<svg width="320" height="320" viewBox="0 0 320 320" fill="none" xmlns="http://www.w3.org/2000/svg"><path d="M188.217 182.385a1.25 1.25 0 0 0-2.379-.77l2.379.77Zm-4.19 8.615-1.174-.427-.012.032 1.186.395Zm5 5.25a1.25 1.25 0 1 0 0-2.5v2.5Zm31-12a1.25 1.25 0 1 0 0-2.5v2.5Zm-26-24.5a1.25 1.25 0 0 0 0 2.5v-2.5Zm30 18.5a1.25 1.25 0 1 0 0-2.5v2.5Zm-26-24.5a1.25 1.25 0 0 0 0 2.5v-2.5Zm30 18.5a1.25 1.25 0 1 0 0-2.5v2.5Zm-97.75-8.25a1.25 1.25 0 1 0-2.5 0h2.5Zm-22.25 33h1.25c0-.69-.559-1.25-1.25-1.25V197Zm-10 18v-1.25c-.69 0-1.25.56-1.25 1.25h1.25Zm-46-139h1.25a1.25 1.25 0 0 0-2.133-.884l.883.884Zm-36.883 35.116a1.25 1.25 0 0 0 1.767 1.768l-1.768-1.768Zm225.767 44a1.25 1.25 0 0 0-1.768 1.768l1.768-1.768Zm62.232 65.768a1.25 1.25 0 0 0 1.768-1.768l-1.768 1.768ZM191.727 215l.016-1.25-.016 1.25Zm29.3-22.6 1.248.076.001-.017-1.249-.059Zm-3.6-4.4.119-1.244-.015-.002-.104 1.246Zm87.484-31.116a1.25 1.25 0 0 0-1.768-1.768l1.768 1.768Zm-87.117 1.915a1.25 1.25 0 1 0 2.467.402l-2.467-.402Zm2.233-13.199 1.25-.027v-.013l-1.25.04Zm-70.2-69.5-.03 1.25h.001l.029-1.25Zm-64.6 107.5 1.1-.593-.01-.019-1.09.612Zm7.2 2-.588-1.103-.022.012.61 1.091Zm2.7-4 1.242.146v-.003l-1.242-.143Zm22.4-20.5.022 1.25h.001l-.023-1.25Zm23.5 18 1.186-.395-.001-.003-1.185.398Zm-12.7 64.9.102 1.246h.001l-.103-1.246Zm60.7-18.65a1.25 1.25 0 1 0 0-2.5v2.5Zm-2-43.35-1.189-.385v.001l-.002.004-.004.015-.019.057-.071.219-.26.799c-.218.671-.518 1.588-.842 2.574-.652 1.981-1.395 4.211-1.787 5.289l2.349.854c.408-1.122 1.164-3.392 1.813-5.361.325-.989.626-1.909.845-2.582l.26-.802.072-.22.018-.057.005-.015.001-.004.001-.001-1.19-.385Zm-4.186 8.605c-.596 1.788-.388 3.339.677 4.404.964.963 2.361 1.241 3.509 1.241v-2.5c-.852 0-1.454-.222-1.741-.509-.185-.185-.477-.634-.073-1.846l-2.372-.79Zm4.186 5.645h2v-2.5h-2v2.5Zm3-28c6.426 0 10.09 3.607 14.116 7.634l1.768-1.768c-3.973-3.973-8.309-8.366-15.884-8.366v2.5Zm14.116 7.634c3.974 3.973 8.31 8.366 15.884 8.366v-2.5c-6.425 0-10.089-3.607-14.116-7.634l-1.768 1.768Zm-10.116-13.634c6.426 0 10.09 3.607 14.116 7.634l1.768-1.768c-3.973-3.973-8.309-8.366-15.884-8.366v2.5Zm14.116 7.634c3.974 3.973 8.31 8.366 15.884 8.366v-2.5c-6.425 0-10.089-3.607-14.116-7.634l-1.768 1.768Zm-10.116-13.634c6.426 0 10.09 3.607 14.116 7.634l1.768-1.768c-3.973-3.973-8.309-8.366-15.884-8.366v2.5Zm14.116 7.634c3.974 3.973 8.31 8.366 15.884 8.366v-2.5c-6.425 0-10.089-3.607-14.116-7.634l-1.768 1.768ZM108.027 186.25c12.291 0 22.25-9.96 22.25-22.25h-2.5c0 10.91-8.84 19.75-19.75 19.75v2.5Zm0-2.5c-3.99 0-7.25 3.26-7.25 7.25h2.5c0-2.61 2.141-4.75 4.75-4.75v-2.5Zm-7.25 7.25c0 3.99 3.26 7.25 7.25 7.25v-2.5c-2.609 0-4.75-2.14-4.75-4.75h-2.5Zm6 6v8h2.5v-8h-2.5Zm0 8c0 4.81-3.94 8.75-8.75 8.75v2.5c6.191 0 11.25-5.06 11.25-11.25h-2.5Zm-53.5 10V76h-2.5v139h2.5ZM51.144 75.116l-36 36 1.767 1.768 36-36-1.767-1.768Zm187.999 81.768 64 64 1.768-1.768-64-64-1.768 1.768ZM50.777 215c0 13.39 10.86 24.25 24.25 24.25v-2.5c-12.01 0-21.75-9.74-21.75-21.75h-2.5Zm24.25 24.25c13.39 0 24.25-10.86 24.25-24.25h-2.5c0 12.01-9.74 21.75-21.75 21.75v2.5Zm115-73.5c-7.89 0-14.25 6.36-14.25 14.25h2.5c0-6.51 5.241-11.75 11.75-11.75v-2.5ZM175.777 180v20h2.5v-20h-2.5Zm0 20c0 8.871 7.038 16.141 15.935 16.25l.031-2.5c-7.503-.091-13.466-6.221-13.466-13.75h-2.5Zm15.935 16.25c8.29.105 15.777-3.668 21.228-8.461 2.731-2.402 4.981-5.085 6.587-7.719 1.596-2.617 2.606-5.267 2.748-7.594l-2.495-.152c-.108 1.773-.911 4.023-2.387 6.444-1.466 2.403-3.547 4.895-6.104 7.143-5.124 4.507-12.036 7.934-19.546 7.839l-.031 2.5Zm30.564-23.791c.127-2.674-1.877-5.432-4.73-5.703l-.237 2.488c1.347.129 2.542 1.571 2.47 3.097l2.497.118Zm-4.745-5.705c-3.11-.259-5.754 2.096-5.754 5.246h2.5c0-1.65 1.357-2.895 3.047-2.754l.207-2.492ZM211.777 192v22.5h2.5V192h-2.5Zm0 22.5c0 13.117 15.849 19.669 25.134 10.384l-1.768-1.768c-7.714 7.715-20.866 2.267-20.866-8.616h-2.5Zm25.134 10.384 68-68-1.768-1.768-68 68 1.768 1.768Zm-16.65-65.683c.71-4.361 1.118-8.939 1.016-13.628l-2.499.054c.098 4.511-.294 8.933-.984 13.172l2.467.402Zm1.016-13.641c-1.221-38.565-32.759-69.794-71.42-70.71l-.059 2.5c37.339.884 67.801 31.055 68.98 68.29l2.499-.08Zm-71.419-70.71c-41.304-1.017-75.08 32.15-75.08 73.25h2.5c0-39.7 32.623-71.733 72.519-70.75l.061-2.5Zm-75.08 73.25c0 13.116 3.355 25.427 9.36 36.112l2.18-1.224c-5.797-10.315-9.04-22.204-9.04-34.888h-2.5Zm9.349 36.093c1.756 3.261 5.849 4.212 8.911 2.498l-1.221-2.182c-1.938 1.086-4.445.437-5.49-1.502l-2.2 1.186Zm8.889 2.51c1.872-.999 3.106-2.863 3.353-4.957l-2.483-.292c-.154 1.306-.92 2.442-2.047 3.043l1.177 2.206Zm3.353-4.96c1.231-10.702 10.131-19.204 21.18-19.393l-.043-2.5c-12.352.211-22.252 9.709-23.62 21.607l2.483.286Zm21.181-19.393c5.361-.096 9.927 1.289 13.635 4.097 3.717 2.814 6.667 7.129 8.657 13.051l2.37-.796c-2.11-6.278-5.31-11.063-9.518-14.249-4.216-3.192-9.35-4.707-15.189-4.603l.045 2.5Zm22.291 17.145 3 9 2.372-.79-3-9-2.372.79Zm3 9c.956 2.866.564 4.101.186 4.605-.392.523-1.133.75-2 .75v2.5c1.134 0 2.893-.273 4-1.75 1.123-1.496 1.231-3.761.186-6.895l-2.372.79Zm-1.814 5.355h-2v2.5h2v-2.5Zm-2 0c-1.79 0-3.25 1.46-3.25 3.25h2.5c0-.41.341-.75.75-.75v-2.5Zm-3.25 3.25v4h2.5v-4h-2.5Zm0 4c0 4.31-3.44 7.75-7.75 7.75v2.5c5.691 0 10.25-4.56 10.25-10.25h-2.5Zm-7.75 7.75h-2v2.5h2v-2.5Zm-2 0c-10.41 0-18.785 8.695-18.248 19.214l2.497-.128c-.464-9.081 6.762-16.586 15.751-16.586v-2.5Zm-18.248 19.214c.54 10.59 10.236 18.032 20.65 17.182l-.203-2.492c-9.187.75-17.491-5.808-17.95-14.818l-2.497.128Zm20.651 17.182c9.508-.784 15.572-6.035 22.591-10.719 7.044-4.7 15.43-9.177 30.006-9.177v-2.5c-15.223 0-24.087 4.723-31.393 9.598-7.331 4.891-12.718 9.59-21.409 10.306l.205 2.492Zm52.597-19.896h8v-2.5h-8v2.5Z" fill="url(#a)"/><path d="M132.228 184.2a2 2 0 1 0 0-4 2 2 0 0 0 0 4ZM197.228 186.2a2 2 0 1 0 0-4 2 2 0 0 0 0 4Z" fill="#6472E3"/><defs><linearGradient id="a" x1="160.027" y1="76" x2="160.027" y2="244.062" gradientUnits="userSpaceOnUse"><stop stop-color="#279BE8"/><stop offset="1" stop-color="#875AE0"/></linearGradient></defs></svg>