<svg width="120" height="120" viewBox="0 0 120 120" fill="none" xmlns="http://www.w3.org/2000/svg"><path d="M69.762 91.759a1.25 1.25 0 1 0-2.236-1.118l2.236 1.118ZM51.644 77.2l.95.812a1.25 1.25 0 0 0-1.442-1.96l.492 1.148Zm.84-24.536a1.25 1.25 0 1 0 2.32-.928l-2.32.928Zm15.042 37.977c-1.844 3.688-5.07 6.214-8.377 7.24-3.319 1.03-6.54.517-8.62-1.565l-1.769 1.768c2.919 2.918 7.198 3.405 11.13 2.185 3.942-1.224 7.716-4.198 9.872-8.51l-2.236-1.118Zm-16.998 5.675c-2.16-2.16-2.933-5.19-2.506-8.507.427-3.328 2.06-6.857 4.572-9.797l-1.9-1.624c-2.787 3.26-4.655 7.231-5.152 11.103-.499 3.882.38 7.754 3.218 10.593l1.768-1.768ZM51.644 77.2l-.492-1.15-.002.002a.507.507 0 0 0-.012.005l-.053.022-.22.09c-.194.077-.484.19-.855.326-.742.273-1.806.638-3.084 1.003-2.568.734-5.944 1.452-9.282 1.452v2.5c3.662 0 7.287-.782 9.969-1.548 1.347-.385 2.47-.77 3.26-1.06a34.779 34.779 0 0 0 1.237-.482l.018-.007.006-.003h.002l-.492-1.15Zm-14 1.75c-6.775 0-12.986-1.937-17.475-5.481-4.461-3.522-7.275-8.666-7.275-15.269h-2.5c0 7.397 3.187 13.253 8.226 17.231 5.01 3.956 11.8 6.019 19.024 6.019v-2.5ZM12.894 58.2c0-3.673 1.37-6.829 3.841-9.075 2.478-2.253 6.159-3.675 10.91-3.675v-2.5c-5.25 0-9.57 1.578-12.592 4.325-3.029 2.754-4.659 6.598-4.659 10.925h2.5Zm14.75-12.75c13.192 0 19.353 10.02 25.93 20.897 6.423 10.622 13.262 22.103 28.07 22.103v-2.5c-13.191 0-19.353-10.02-25.93-20.897-6.423-10.622-13.261-22.103-28.07-22.103v2.5Zm54 43c5.193 0 9.962-1.572 13.46-4.186 3.501-2.615 5.79-6.331 5.79-10.564h-2.5c0 3.267-1.76 6.301-4.785 8.561-3.026 2.261-7.258 3.689-11.965 3.689v2.5Zm19.25-14.75c0-4.233-2.289-7.949-5.79-10.564-3.498-2.614-8.267-4.186-13.46-4.186v2.5c4.707 0 8.939 1.428 11.965 3.689 3.025 2.26 4.785 5.294 4.785 8.561h2.5Zm-19.25-14.75c-7.263 0-11.546 2.604-13.22 5.648-.825 1.5-1.02 3.152-.45 4.52.597 1.431 1.946 2.332 3.67 2.332v-2.5c-.776 0-1.176-.35-1.362-.793-.21-.507-.217-1.355.333-2.355 1.075-1.956 4.292-4.352 11.03-4.352v-2.5Zm-10 12.5c3.617 0 7.948-2.915 11.298-8.069 3.4-5.23 5.952-12.975 5.952-23.181h-2.5c0 9.794-2.448 17.05-5.548 21.819-3.15 4.846-6.819 6.931-9.202 6.931v2.5Zm17.25-31.25c0-6.895-2.098-13.165-5.538-17.739-3.44-4.574-8.281-7.511-13.712-7.511v2.5c4.47 0 8.63 2.413 11.714 6.514 3.084 4.1 5.036 9.831 5.036 16.236h2.5Zm-19.25-25.25c-5.43 0-10.27 2.937-13.711 7.511-3.44 4.574-5.539 10.844-5.539 17.739h2.5c0-6.405 1.952-12.135 5.037-16.236 3.085-4.101 7.244-6.514 11.713-6.514v-2.5ZM50.394 40.2c0 3.617.517 6.714 1.034 8.911.258 1.1.518 1.977.715 2.584a21.49 21.49 0 0 0 .311.893l.02.053.007.015c0 .002 0 .004.002.005v.002l1.161-.463a266.742 266.742 0 0 1 1.161-.463l-.002-.007a30.302 30.302 0 0 1-.942-3.191 36.75 36.75 0 0 1-.967-8.339h-2.5Z" fill="url(#a)"/><defs><linearGradient id="a" x1="55.644" y1="16.2" x2="55.644" y2="99.644" gradientUnits="userSpaceOnUse"><stop stop-color="#FFBE4F"/><stop offset="1" stop-color="#F26B1D"/></linearGradient></defs></svg>