<svg width="192" height="192" viewBox="0 0 192 192" fill="none" xmlns="http://www.w3.org/2000/svg"><path d="M157.382 57.616a1.25 1.25 0 0 0 1.768 1.768l-1.768-1.768Zm8.884 4.884-.884-.884a1.25 1.25 0 0 0 0 1.768l.884-.884Zm-8 8 .884-.884a1.25 1.25 0 0 0-1.601-.14l.717 1.024Zm-8 5.6-.717-1.024.717 1.024Zm-.3 3.1-.934.83c.016.019.033.037.05.054l.884-.884Zm.3.3.884-.884-.884.884Zm-4 4-.884.884.884-.884Zm-7-7 .884-.884-.884.884Zm4-4 .884-.884-.884.884Zm.3.3-.884.884.884-.884Zm3.1-.3 1.011.735a.194.194 0 0 0 .013-.018l-1.024-.717Zm5.6-8 1.024.717a1.25 1.25 0 0 0-.14-1.6l-.884.883Zm0-16 .884-.884-.884.884Zm2.816 4.584a1.25 1.25 0 0 0 1.768-1.768l-1.768 1.768ZM58.616 174.3a1.25 1.25 0 0 0 2.5 0h-2.5Zm-22.75-24h-1.25c0 .69.56 1.25 1.25 1.25v-1.25Zm-24-25.25a1.25 1.25 0 0 0 0 2.5v-2.5Zm166.75 5.25a1.25 1.25 0 0 0 2.5 0h-2.5Zm-14.75-16h-1.25c0 .69.56 1.25 1.25 1.25v-1.25Zm-16-17.25a1.25 1.25 0 0 0 0 2.5v-2.5Zm-33.25-30.75a1.25 1.25 0 0 0 2.5 0h-2.5Zm-14.75-16h-1.25c0 .69.56 1.25 1.25 1.25V50.3Zm-16-17.25a1.25 1.25 0 0 0 0 2.5v-2.5Zm53.484 53.634a1.25 1.25 0 0 0-1.768-1.768l1.768 1.768ZM49.566 84.5l-1.181.409.003.01 1.178-.419Zm10.8-48-.884.884.884-.884Zm-13-13 .884-.884-.884.884Zm-25.8 0 .884.884-.884-.884Zm-4.2 4.2-.884-.884.884.884Zm-5.4 13-1.25-.026v.018l1.25.008Zm35.4 86.2.884-.884-.002-.002-.882.886Zm82.8 35.4-.029 1.25h.004l.025-1.25Zm18.9-37-.884.884.884-.884Zm-13.216-14.984a1.25 1.25 0 0 0-1.768 1.768l1.768-1.768Zm23.3-50.932 9-9-1.768-1.768-9 9 1.768 1.768Zm9-9c1.212-1.212 3.02-1.212 4.232 0l1.768-1.768c-2.188-2.188-5.58-2.188-7.768 0l1.768 1.768Zm4.232 0c1.212 1.212 1.212 3.02 0 4.232l1.768 1.768c2.188-2.188 2.188-5.58 0-7.768l-1.768 1.768Zm0 4.232-7 7 1.768 1.768 7-7-1.768-1.768Zm-7 8.768 8 8 1.768-1.768-8-8-1.768 1.768Zm8 8a4.423 4.423 0 0 1 0 6.232l1.768 1.768c2.688-2.688 2.688-7.08 0-9.768l-1.768 1.768Zm0 6.232a4.423 4.423 0 0 1-6.232 0l-1.768 1.768c2.688 2.688 7.08 2.688 9.768 0l-1.768-1.768Zm-6.232 0-8-8-1.768 1.768 8 8 1.768-1.768Zm-9.601-8.14-8 5.6 1.434 2.048 8-5.6-1.434-2.048Zm-8 5.6c-1.673 1.171-1.763 3.553-.517 4.954l1.868-1.66c-.353-.399-.244-1.017.083-1.246l-1.434-2.048Zm-.467 5.008.3.3 1.768-1.768-.3-.3-1.768 1.768Zm.3.3c.612.612.612 1.62 0 2.232l1.768 1.768a4.087 4.087 0 0 0 0-5.768l-1.768 1.768Zm0 2.232a1.586 1.586 0 0 1-2.232 0l-1.768 1.768a4.087 4.087 0 0 0 5.768 0l-1.768-1.768Zm-2.232 0-7-7-1.768 1.768 7 7 1.768-1.768Zm-7-7a1.586 1.586 0 0 1 0-2.232l-1.768-1.768a4.087 4.087 0 0 0 0 5.768l1.768-1.768Zm0-2.232a1.586 1.586 0 0 1 2.232 0l1.768-1.768a4.087 4.087 0 0 0-5.768 0l1.768 1.768Zm2.232 0 .3.3 1.768-1.768-.3-.3-1.768 1.768Zm.3.3c1.462 1.462 3.759 1.25 4.995-.449l-2.022-1.47c-.364.5-.867.49-1.205.151l-1.768 1.768Zm5.008-.467 5.6-8-2.048-1.434-5.6 8 2.048 1.434Zm5.46-9.6-8-8-1.768 1.767 8 8 1.768-1.768Zm-8-8a4.423 4.423 0 0 1 0-6.233l-1.768-1.768c-2.688 2.688-2.688 7.08 0 9.768l1.768-1.768Zm0-6.233a4.423 4.423 0 0 1 6.232 0l1.768-1.768c-2.688-2.688-7.08-2.688-9.768 0l1.768 1.768Zm6.232 0 3.7 3.7 1.768-1.768-3.7-3.7-1.768 1.768ZM61.116 174.3c0-13.99-11.26-25.25-25.25-25.25v2.5c12.61 0 22.75 10.14 22.75 22.75h2.5Zm-24-24c0-13.99-11.26-25.25-25.25-25.25v2.5c12.61 0 22.75 10.14 22.75 22.75h2.5Zm144-20c0-9.49-7.759-17.25-17.25-17.25v2.5c8.11 0 14.75 6.64 14.75 14.75h2.5Zm-16-16c0-9.49-7.759-17.25-17.25-17.25v2.5c8.11 0 14.75 6.64 14.75 14.75h2.5Zm-48-48c0-9.49-7.759-17.25-17.25-17.25v2.5c8.11 0 14.75 6.64 14.75 14.75h2.5Zm-16-16c0-9.49-7.76-17.25-17.25-17.25v2.5c8.11 0 14.75 6.64 14.75 14.75h2.5Zm34.466 34.616-38.5 38.5 1.768 1.768 38.5-38.5-1.768-1.768Zm-38.5 38.5c-4.24 4.24-5.464 8.933-4.448 12.709 1.016 3.772 4.243 6.425 8.332 6.425v-2.5c-2.91 0-5.183-1.847-5.918-4.575-.733-2.724.042-6.531 3.802-10.291l-1.768-1.768Zm3.884 19.134c5.314 0 8.539-4.456 8.247-8.833-.147-2.219-1.188-4.423-3.253-6.054-2.057-1.624-5.041-2.613-8.994-2.613v2.5c3.548 0 5.938.886 7.444 2.075 1.497 1.181 2.207 2.727 2.309 4.258.208 3.123-2.067 6.167-5.753 6.167v2.5Zm-4-17.5c-4.212 0-9.503-1.652-15.036-4.603-5.512-2.939-11.163-7.114-16.08-12.031l-1.768 1.768c5.084 5.083 10.933 9.408 16.671 12.469 5.716 3.049 11.426 4.897 16.213 4.897v-2.5ZM65.85 108.416c-7.05-7.051-11.96-15.484-15.106-24.335l-2.356.838c3.254 9.15 8.345 17.916 15.694 25.265l1.768-1.768ZM50.747 84.091a12.994 12.994 0 0 1 3.103-13.507l-1.768-1.768a15.494 15.494 0 0 0-3.697 16.093l2.362-.818Zm3.103-13.507 7.4-7.4-1.768-1.768-7.4 7.4 1.768 1.768Zm7.4-7.4c7.588-7.588 7.588-19.98 0-27.568l-1.768 1.768c6.612 6.612 6.612 17.42 0 24.032l1.768 1.768Zm-13-40.568c-7.588-7.588-19.98-7.588-27.568 0l1.768 1.768c6.612-6.612 17.42-6.612 24.032 0l1.768-1.768Zm-27.568 0-4.2 4.2 1.768 1.768 4.2-4.2-1.768-1.768Zm-4.2 4.2c-3.643 3.643-5.66 8.657-5.765 13.859l2.499.05c.094-4.598 1.877-8.984 5.034-12.141l-1.768-1.768Zm-5.766 13.876c-.202 31.62 11.72 63.147 35.768 87.094l1.764-1.772c-23.552-23.453-35.23-54.326-35.032-85.306l-2.5-.016Zm35.766 87.092c23.137 23.137 53.348 35.058 83.655 35.766l.058-2.5c-29.692-.693-59.282-12.371-81.945-35.034l-1.768 1.768Zm83.659 35.766c5.261.107 10.283-2.04 14.009-5.766l-1.768-1.768c-3.274 3.274-7.651 5.127-12.19 5.034l-.051 2.5Zm14.009-5.766 5.8-5.8-1.768-1.768-5.8 5.8 1.768 1.768Zm5.8-5.8c7.588-7.588 7.588-19.98 0-27.568l-1.768 1.768c6.612 6.612 6.612 17.42 0 24.032l1.768 1.768Zm0-27.568-14.1-14.1-1.768 1.768 14.1 14.1 1.768-1.768Zm-88.7-88.8-13-13-1.768 1.768 13 13 1.768-1.768Z" fill="url(#a)"/><defs><linearGradient id="a" x1="95.866" y1="18.175" x2="95.866" y2="174.3" gradientUnits="userSpaceOnUse"><stop stop-color="#279BE8"/><stop offset="1" stop-color="#875AE0"/></linearGradient></defs></svg>