<svg width="320" height="320" viewBox="0 0 320 320" fill="none" xmlns="http://www.w3.org/2000/svg"><path d="m145.145 145.6-.792-.967a1.209 1.209 0 0 0-.092.083l.884.884Zm25.9 30.8-.037 1.249a.445.445 0 0 0 .037.001v-1.25Zm3-1.2.883.884-.883-.884Zm1.3-1.3-.884-.884.884.884Zm-14.3-6.4-.454 1.165.005.002.449-1.167Zm-4.9-3.3.913-.853a.432.432 0 0 0-.03-.031l-.883.884Zm-3.6-5.6-1.186.395a.701.701 0 0 0 .025.069l1.161-.464Zm.8-3.4-.884-.884.884.884Zm1.7-1.7.883.884-.883-.884Zm0-5.9.883-.884-.883.884Zm-2.9-2.9-.884.884.884-.884Zm-5.9 0 .791.967c.032-.026.063-.054.092-.083l-.883-.884Zm-8.481 68.454a1.251 1.251 0 0 0 .961-2.308l-.961 2.308ZM110.845 187.7l1.091-.609-.01-.019-1.081.628Zm2.9-8.5.488 1.151.004-.002-.492-1.149Zm7.6 2.7-1.093.607.002.004 1.091-.611Zm15.2 15.8.662-1.06-.009-.006-.653 1.066Zm8.8-2.8 1.148.492.009-.02-1.157-.472Zm-2.4-7.4-.654 1.065.01.007.644-1.072Zm-12.8-39.5 1.154.479-1.154-.479Zm29.6-18.55a1.25 1.25 0 0 0 0-2.5v2.5Zm21.88-22.104a1.25 1.25 0 1 0-.961 2.308l.961-2.308Zm26.92 25.454-1.092.609.011.019 1.081-.628Zm-2.9 8.5-.489-1.151-.004.002.493 1.149Zm-7.6-2.7 1.092-.607-.002-.004-1.09.611Zm-15.2-15.8-.663 1.06.009.006.654-1.066Zm-8.8 2.8-1.149-.492-.009.02 1.158.472Zm2.4 7.4.653-1.065-.01-.007-.643 1.072Zm12.8 39.5-1.155-.479 1.155.479Zm-29.6 18.55a1.25 1.25 0 1 0 0 2.5v-2.5Zm118 74.4c10.59 0 19.25-8.66 19.25-19.25h-2.5c0 9.21-7.541 16.75-16.75 16.75v2.5Zm19.25-19.25v-172h-2.5v172h2.5Zm0-172c0-10.59-8.66-19.25-19.25-19.25v2.5c9.209 0 16.75 7.54 16.75 16.75h2.5Zm-19.25-19.25h-236v2.5h236v-2.5Zm-236 0c-10.59 0-19.25 8.66-19.25 19.25h2.5c0-9.21 7.54-16.75 16.75-16.75v-2.5ZM22.394 74.2v172h2.5v-172h-2.5Zm0 172c0 10.59 8.66 19.25 19.25 19.25v-2.5c-9.21 0-16.75-7.54-16.75-16.75h-2.5Zm19.25 19.25h236v-2.5h-236v2.5ZM144.26 144.716c-1.06 1.06-1.566 2.491-1.566 3.884h2.5c0-.807.293-1.576.833-2.116l-1.767-1.768Zm-1.566 3.884c0 7.412 2.818 14.936 8.466 20.584l1.767-1.768c-5.151-5.152-7.733-12.028-7.733-18.816h-2.5Zm8.466 20.584c5.44 5.441 12.651 8.257 19.847 8.465l.073-2.498c-6.603-.192-13.193-2.776-18.153-7.735l-1.767 1.768Zm19.884 8.466c1.393 0 2.823-.506 3.883-1.566l-1.767-1.768c-.54.54-1.31.834-2.116.834v2.5Zm3.883-1.566 1.3-1.3-1.767-1.768-1.3 1.3 1.767 1.768Zm1.3-1.3c2.089-2.088 2.089-5.58 0-7.668l-1.767 1.768c1.111 1.112 1.111 3.02 0 4.132l1.767 1.768Zm-3-10.668c-2.088-2.088-5.579-2.088-7.667 0l1.767 1.768c1.112-1.112 3.021-1.112 4.133 0l1.767-1.768Zm-7.667 0-1.8 1.8 1.767 1.768 1.8-1.8-1.767-1.768Zm-1.8 1.8c-.535.535-1.407.748-2.268.417l-.897 2.334c1.739.669 3.667.283 4.932-.983l-1.767-1.768Zm-2.263.419a12.037 12.037 0 0 1-4.44-2.988l-1.827 1.706a14.521 14.521 0 0 0 5.36 3.612l.907-2.33Zm-4.47-3.019c-1.457-1.458-2.573-3.305-3.323-5.18l-2.321.928c.85 2.125 2.134 4.278 3.877 6.02l1.767-1.768Zm-3.298-5.111a2.05 2.05 0 0 1 .498-2.121l-1.767-1.768a4.546 4.546 0 0 0-1.102 4.679l2.371-.79Zm.498-2.121 1.7-1.7-1.767-1.768-1.7 1.7 1.767 1.768Zm1.7-1.7c2.089-2.088 2.089-5.58 0-7.668l-1.767 1.768c1.112 1.112 1.112 3.02 0 4.132l1.767 1.768Zm-2.9-10.568c-2.088-2.088-5.579-2.088-7.667 0l1.767 1.768c1.112-1.112 3.021-1.112 4.133 0l1.767-1.768Zm-7.575-.083-1.1.9 1.583 1.934 1.1-.9-1.583-1.934Zm-6.728 67.113c-11.055-4.598-20.633-12.713-26.789-23.755l-2.183 1.218c6.444 11.558 16.466 20.043 28.011 24.845l.961-2.308Zm-26.799-23.774c-1.411-2.428-.323-5.606 2.307-6.721l-.977-2.302c-3.97 1.685-5.682 6.508-3.492 10.279l2.162-1.256Zm2.311-6.723c2.182-.935 4.811-.01 6.015 2.158l2.185-1.214c-1.795-3.232-5.767-4.707-9.185-3.242l.985 2.298Zm6.017 2.162a44.755 44.755 0 0 0 15.637 16.255l1.307-2.132a42.258 42.258 0 0 1-14.763-15.345l-2.181 1.222Zm15.628 16.249c3.859 2.412 8.814.827 10.611-3.368l-2.297-.984c-1.203 2.805-4.448 3.82-6.989 2.232l-1.325 2.12Zm10.62-3.388c1.323-3.248.136-7.114-2.914-8.944l-1.287 2.144c1.95 1.17 2.763 3.704 1.886 5.856l2.315.944Zm-2.904-8.937c-12.684-7.784-18.16-23.833-12.299-37.956l-2.309-.958c-6.339 15.277-.415 32.628 13.301 41.044l1.307-2.13Zm-12.299-37.956c4.901-11.82 16.337-19.029 28.446-19.029v-2.5c-13.092 0-25.456 7.791-30.755 20.571l2.309.958Zm49.365-38.825c11.055 4.598 20.633 12.713 26.789 23.755l2.183-1.218c-6.444-11.558-16.466-20.043-28.011-24.845l-.961 2.308Zm26.8 23.774c1.41 2.429.322 5.606-2.308 6.721l.977 2.302c3.97-1.685 5.682-6.507 3.493-10.279l-2.162 1.256Zm-2.312 6.723c-2.182.935-4.81.01-6.015-2.158l-2.185 1.214c1.796 3.232 5.767 4.707 9.185 3.242l-.985-2.298Zm-6.017-2.162a44.763 44.763 0 0 0-15.637-16.255l-1.307 2.132a42.258 42.258 0 0 1 14.763 15.345l2.181-1.222Zm-15.628-16.249c-3.859-2.412-8.814-.827-10.611 3.368l2.297.984c1.203-2.805 4.448-3.82 6.989-2.232l1.325-2.12Zm-10.62 3.388c-1.323 3.248-.136 7.114 2.914 8.944l1.287-2.144c-1.95-1.17-2.763-3.704-1.886-5.856l-2.315-.944Zm2.904 8.937c12.684 7.784 18.16 23.833 12.299 37.956l2.309.958c6.339-15.277.415-32.628-13.301-41.044l-1.307 2.13Zm12.299 37.956c-4.901 11.82-16.337 19.029-28.445 19.029v2.5c13.091 0 25.455-7.791 30.754-20.571l-2.309-.958Zm-11.862-4.905-3-3-1.767 1.768 3 3 1.767-1.768Zm-20.3-20.4-2.9-2.9-1.767 1.768 2.9 2.9 1.767-1.768Z" fill="url(#a)"/><defs><linearGradient id="a" x1="159.645" y1="56.2" x2="159.645" y2="264.2" gradientUnits="userSpaceOnUse"><stop stop-color="#279BE8"/><stop offset="1" stop-color="#875AE0"/></linearGradient></defs></svg>