<svg width="120" height="120" viewBox="0 0 120 120" fill="none" xmlns="http://www.w3.org/2000/svg"><path d="M35.116 72.3a1.25 1.25 0 0 0-2.5 0h2.5Zm-2.5 9.9a1.25 1.25 0 0 0 2.5 0h-2.5Zm-16-13a1.25 1.25 0 0 0 2.5 0h-2.5Zm66.85-29.1-.693-1.04a1.3 1.3 0 0 0-.033.023l.726 1.017Zm19.2-12.8.693 1.04.019-.012-.712-1.028Zm0 49.9.712-1.028-.017-.011-.695 1.039Zm-19.3-12.9.695-1.04a1.262 1.262 0 0 0-.075-.045l-.62 1.085Zm-34.1 18.8-1.104.587.019.033 1.085-.62Zm-10.2-19.2 1.104-.586-.008-.014-1.096.6Zm-10.5 0 1.098.598.01-.018-1.108-.58Zm-13.9 25.5 1.095.602.003-.004-1.098-.598Zm18.082 14.341a1.25 1.25 0 0 0 2.236 1.118l-2.236-1.118ZM32.616 72.3v9.9h2.5v-9.9h-2.5Zm-13.5-3.1v-41h-2.5v41h2.5Zm0-41c0-3.71 3.04-6.75 6.75-6.75v-2.5c-5.09 0-9.25 4.16-9.25 9.25h2.5Zm6.75-6.75h48v-2.5h-48v2.5Zm48 0c3.71 0 6.75 3.04 6.75 6.75h2.5c0-5.09-4.16-9.25-9.25-9.25v2.5Zm6.75 6.75v11.1h2.5V28.2h-2.5Zm0 11.1c0 1.801 2.037 2.917 3.577 1.817l-1.453-2.034a.258.258 0 0 1 .24-.004.258.258 0 0 1 .136.221h-2.5Zm3.543 1.84 19.2-12.8-1.386-2.08-19.2 12.8 1.386 2.08Zm19.219-12.812c.214-.149.475-.157.722-.02.251.138.416.389.416.692h2.5c0-2.532-2.871-4.244-5.061-2.728l1.423 2.056Zm1.138.672v46.5h2.5V29h-2.5Zm0 46.5a.782.782 0 0 1-.416.693c-.247.136-.508.128-.722-.02l-1.423 2.055c2.19 1.516 5.061-.195 5.061-2.728h-2.5Zm-1.155.66-19.3-12.9-1.39 2.08 19.3 12.9 1.39-2.08ZM83.986 63.216a2.398 2.398 0 0 0-2.223-.092 2.171 2.171 0 0 0-1.247 1.977h2.5a.327.327 0 0 1-.057.172.296.296 0 0 1-.115.105c-.055.026-.089.014-.098.008l1.24-2.17Zm-3.47 1.885v11.1h2.5V65.1h-2.5Zm0 11.1c0 3.71-3.04 6.75-6.75 6.75v2.5c5.09 0 9.25-4.16 9.25-9.25h-2.5Zm-6.75 6.75h-22.7v2.5h22.7v-2.5Zm-22.7 0c-.224 0-.523-.135-.715-.47l-2.17 1.24c.608 1.065 1.709 1.73 2.885 1.73v-2.5Zm-.696-.436-10.2-19.2-2.208 1.173 10.2 19.2 2.208-1.173ZM40.162 63.3c-2.763-5.047-10.025-5.093-12.703.02l2.214 1.16c1.722-3.287 6.46-3.333 8.297.02l2.192-1.2Zm-12.694.002-13.9 25.5 2.196 1.196 13.9-25.5-2.196-1.196ZM13.571 88.798c-2.662 4.839.851 10.752 6.395 10.752v-2.5c-3.656 0-5.943-3.887-4.205-7.048l-2.19-1.204Zm6.395 10.752h28.9v-2.5h-28.9v2.5Zm28.9 0c2.89 0 5.25-2.36 5.25-5.25h-2.5c0 1.51-1.24 2.75-2.75 2.75v2.5Zm5.25-5.25c0-2.89-2.36-5.25-5.25-5.25v2.5c1.51 0 2.75 1.24 2.75 2.75h2.5Zm-5.25-5.25c-2.367 0-4.562 1.032-6.46 2.431-1.906 1.404-3.61 3.248-5.023 5.047a47.262 47.262 0 0 0-3.372 4.945 46.015 46.015 0 0 0-1.174 2.094l-.065.126-.017.034a.144.144 0 0 1-.006.012v.001c0 .001-.001.001 1.117.56l1.118.559v-.001l.003-.005.013-.026.056-.108a43.597 43.597 0 0 1 1.103-1.967 44.754 44.754 0 0 1 3.19-4.68c1.337-1.701 2.883-3.357 4.54-4.578 1.664-1.226 3.344-1.944 4.977-1.944v-2.5Z" fill="url(#a)"/><path d="M33.866 90.2a2 2 0 1 0 0-4 2 2 0 0 0 0 4Z" fill="url(#b)"/><defs><linearGradient id="a" x1="59.841" y1="20.2" x2="59.841" y2="104.3" gradientUnits="userSpaceOnUse"><stop stop-color="#F55868"/><stop offset="1" stop-color="#875AE0"/></linearGradient><linearGradient id="b" x1="33.866" y1="86.2" x2="33.866" y2="90.2" gradientUnits="userSpaceOnUse"><stop stop-color="#F55868"/><stop offset="1" stop-color="#875AE0"/></linearGradient></defs></svg>