<svg width="120" height="120" viewBox="0 0 120 120" fill="none" xmlns="http://www.w3.org/2000/svg"><path d="m51.544 83.8.56 1.118-.56-1.118Zm16.8 0 .56-1.118a1.18 1.18 0 0 0-.067-.03l-.493 1.148Zm30.6 7.3 1.093.607.013-.023-1.106-.584Zm-40-48.9-.884-.884a1.244 1.244 0 0 0-.054.058l.938.826Zm1.7.2 1.12-.555a1.255 1.255 0 0 0-.08-.138l-1.04.693Zm5.3 10.7-1.12.555a1.25 1.25 0 0 0 2.004.329l-.884-.884Zm5.2-5.2.884.884-.884-.884Zm1.5.1-.976.78.976-.78Zm2.05 9.1a1.25 1.25 0 1 0 2.5 0h-2.5Zm7.35-31.6-1 .75.03.04.97-.79Zm-3.4.4-1.135-.524-.013.029 1.148.495Zm-19.7-16.2.855-.913-.01-.008-.845.921Zm-3.4 1.2-1.24-.155v.003l1.24.152ZM35.744 75l-.559-1.118.56 1.118Zm-14.559 5.882a1.25 1.25 0 1 0 1.118 2.236l-1.118-2.236Zm33.01 22.218V84.7h-2.5v18.4h2.5Zm0-18.4c0-.848-.483-1.516-1.055-1.88-.567-.36-1.386-.522-2.155-.138l1.118 2.236c-.168.084-.287.023-.305.012-.022-.014-.104-.082-.104-.23h2.5Zm-3.21-2.018-22.6 11.3 1.118 2.236 22.6-11.3-1.118-2.236Zm40.518 11.3-22.6-11.3-1.118 2.236 22.6 11.3 1.118-2.236Zm-22.666-11.33a2.235 2.235 0 0 0-3.143 2.048h2.5a.266.266 0 0 1-.119.215.277.277 0 0 1-.126.045.21.21 0 0 1-.097-.011l.985-2.298ZM65.694 84.7v18.4h2.5V84.7h-2.5Zm0 18.4a5.75 5.75 0 0 1-5.75 5.75v2.5a8.25 8.25 0 0 0 8.25-8.25h-2.5Zm-5.75 5.75a5.75 5.75 0 0 1-5.75-5.75h-2.5a8.25 8.25 0 0 0 8.25 8.25v-2.5Zm-5.75-5.75a5.75 5.75 0 0 1 5.75-5.75v-2.5a8.25 8.25 0 0 0-8.25 8.25h2.5Zm5.75-5.75a5.75 5.75 0 0 1 5.75 5.75h2.5a8.25 8.25 0 0 0-8.25-8.25v2.5Zm37.908-6.857c-.9 1.618-2.105 2.772-3.283 3.366-1.176.593-2.222.594-3.014.15l-1.222 2.182c1.708.956 3.662.757 5.362-.1 1.696-.855 3.241-2.402 4.342-4.384l-2.185-1.214Zm-6.297 3.516c-.81-.453-1.402-1.386-1.556-2.727-.155-1.337.15-2.977 1.038-4.575l-2.185-1.214c-1.113 2.002-1.558 4.162-1.337 6.075.22 1.909 1.128 3.676 2.819 4.623l1.221-2.182Zm-.518-7.302c.9-1.618 2.104-2.771 3.283-3.366 1.175-.593 2.221-.594 3.014-.15l1.221-2.182c-1.708-.956-3.662-.757-5.361.1-1.697.856-3.242 2.402-4.342 4.384l2.185 1.214Zm6.296-3.516c.799.447 1.373 1.368 1.519 2.718.144 1.346-.163 2.998-1.013 4.608l2.211 1.166c1.05-1.99 1.492-4.138 1.287-6.042-.205-1.9-1.08-3.679-2.782-4.632l-1.222 2.182Zm-77.481 8.516c1.1 1.982 2.645 3.529 4.342 4.384 1.7.857 3.653 1.056 5.361.1l-1.221-2.182c-.793.444-1.839.443-3.014-.15-1.179-.594-2.384-1.748-3.283-3.366l-2.185 1.214Zm9.703 4.484c1.69-.947 2.598-2.714 2.819-4.623.22-1.913-.225-4.073-1.337-6.075l-2.185 1.214c.887 1.598 1.192 3.238 1.038 4.575-.155 1.341-.747 2.274-1.556 2.727l1.221 2.182Zm1.482-10.698c-1.1-1.982-2.646-3.528-4.342-4.384-1.7-.857-3.654-1.056-5.361-.1l1.221 2.182c.792-.444 1.838-.443 3.014.15 1.178.595 2.384 1.748 3.283 3.366l2.185-1.214Zm-9.703-4.484c-1.69.947-2.599 2.714-2.819 4.623-.22 1.913.224 4.073 1.337 6.075l2.185-1.214c-.888-1.598-1.193-3.238-1.038-4.575.154-1.341.747-2.274 1.556-2.727l-1.221-2.182Zm46.61-7.159c-8.11 0-14.75-6.64-14.75-14.75h-2.5c0 9.49 7.76 17.25 17.25 17.25v-2.5ZM53.194 59.1c0-7.336 4.55-13.644 6.689-16.074l-1.877-1.652c-2.261 2.57-7.312 9.462-7.312 17.726h2.5Zm6.634-16.016a.192.192 0 0 1-.145.045.147.147 0 0 1-.06-.02c-.015-.01-.02-.018-.019-.016l2.08-1.386c-.807-1.211-2.528-1.487-3.624-.39l1.768 1.767Zm-.304-.13 5.3 10.7 2.24-1.109-5.3-10.7-2.24 1.11Zm7.304 11.03 5.2-5.2-1.768-1.768-5.2 5.2 1.768 1.768Zm5.2-5.2c-.06.06-.13.08-.19.077a.24.24 0 0 1-.17-.08l1.952-1.562a2.257 2.257 0 0 0-3.36-.203l1.768 1.768Zm-.36-.003c1.112 1.39 3.026 4.419 3.026 8.319h2.5c0-4.7-2.286-8.27-3.574-9.88l-1.952 1.56ZM67.944 76.35c13.99 0 25.25-11.26 25.25-25.25h-2.5c0 12.61-10.14 22.75-22.75 22.75v2.5Zm25.25-25.25c0-12.129-6.615-22.009-10.18-26.39l-1.94 1.58c3.435 4.219 9.62 13.539 9.62 24.81h2.5Zm-10.15-26.35c-1.517-2.024-4.573-1.456-5.535.626l2.27 1.048a.779.779 0 0 1 .617-.422c.277-.037.505.058.648.248l2-1.5Zm-5.547.655c-1.096 2.539-2.767 6.095-4.142 8.327-.342.555-.648.999-.907 1.315-.296.362-.412.407-.347.38a.839.839 0 0 1 .598-.003c.3.106.428.314.456.367.02.04-.06-.134-.06-.791h-2.5c0 .693.061 1.406.343 1.946.157.303.444.664.93.835.484.171.928.069 1.226-.06.53-.23.97-.7 1.29-1.091.357-.437.729-.986 1.1-1.587 1.474-2.393 3.203-6.087 4.308-8.648l-2.296-.99ZM73.093 35c0-12.055-8.553-21.773-13.295-26.213l-1.709 1.825C62.748 14.973 70.594 24.056 70.594 35h2.5ZM59.79 8.779c-1.911-1.752-5.153-.691-5.485 1.966l2.48.31c.069-.543.827-.882 1.316-.434l1.689-1.842Zm-5.485 1.969C53.054 20.932 46.866 28.46 40.7 36.023 34.63 43.467 28.494 51.033 28.494 61h2.5c0-8.933 5.464-15.817 11.644-23.398 6.085-7.463 12.796-15.534 14.147-26.55l-2.481-.304ZM28.494 61c0 8.61 5.657 14.483 11.213 17.129 2.766 1.317 5.653 1.908 7.952 1.543 1.16-.184 2.251-.626 3.064-1.433.836-.83 1.271-1.943 1.271-3.239h-2.5c0 .704-.22 1.154-.533 1.465-.336.333-.885.61-1.694.738-1.639.26-4.002-.149-6.485-1.332-4.944-2.354-9.788-7.482-9.788-14.871h-2.5Zm23.5 14c0-1.272-.407-2.446-1.338-3.308-.91-.841-2.167-1.244-3.6-1.315-2.827-.142-6.814.977-11.87 3.505l1.117 2.236c4.944-2.472 8.457-3.353 10.629-3.245 1.068.054 1.685.339 2.026.654.318.294.536.745.536 1.473h2.5Zm-16.809-1.118-14 7 1.118 2.236 14-7-1.118-2.236Z" fill="url(#a)"/><defs><linearGradient id="a" x1="59.923" y1="9.167" x2="59.923" y2="110.1" gradientUnits="userSpaceOnUse"><stop stop-color="#F0677E"/><stop offset="1" stop-color="#DB1F2E"/></linearGradient></defs></svg>