<svg width="320" height="320" viewBox="0 0 320 320" fill="none" xmlns="http://www.w3.org/2000/svg"><path d="M306.94 92.93c-.82-4.11-3.19-7.64-6.67-9.97a15.593 15.593 0 0 0-11.77-2.33c-4.11.82-7.64 3.19-9.97 6.67l-7.29 10.93V90c0-10.61-8.64-19.25-19.25-19.25H32c-10.61 0-19.25 8.64-19.25 19.25v140c0 10.61 8.64 19.25 19.25 19.25h220c10.61 0 19.25-8.64 19.25-19.25v-75.26l33.37-50.05c2.32-3.48 3.14-7.66 2.32-11.76ZM268.75 230c0 9.24-7.51 16.75-16.75 16.75H32c-9.24 0-16.75-7.51-16.75-16.75V90c0-9.24 7.51-16.75 16.75-16.75h220c9.24 0 16.75 7.51 16.75 16.75v11.99l-61.31 91.96a9.12 9.12 0 0 0-1.4 3.43l-5.51 29.38H132c-2.62 0-4.75-2.13-4.75-4.75s2.13-4.75 4.75-4.75h28c4 0 7.25-3.25 7.25-7.25s-3.25-7.25-7.25-7.25h-37.78c4.97-3.37 14.76-10.59 23.04-20.04 3.93 1.64 8.23 2.54 12.74 2.54 18.33 0 33.25-20.3 33.25-45.25 0-27.16-22.09-49.25-49.25-49.25S92.75 112.84 92.75 140c0 12.3 4.38 23.96 12.32 32.83.46.51 1.25.56 1.77.1.51-.46.56-1.25.1-1.77-7.53-8.42-11.68-19.48-11.68-31.17 0-25.78 20.97-46.75 46.75-46.75s46.75 20.97 46.75 46.75c0 23.57-13.79 42.75-30.75 42.75-3.89 0-7.6-.73-11.03-2.05 6.86-8.34 12.28-18.24 12.28-28.7 0-11.72-7.74-21.25-17.25-21.25s-17.25 9.53-17.25 21.25c0 12.91 7.4 24.11 18.17 29.62-8.36 9.39-18.26 16.5-22.77 19.51a2.23 2.23 0 0 0-.9 2.52c.29.96 1.16 1.6 2.16 1.6H160c2.62 0 4.75 2.13 4.75 4.75s-2.13 4.75-4.75 4.75h-28c-4 0-7.25 3.25-7.25 7.25s3.25 7.25 7.25 7.25h69.58c.15 0 .29-.03.43-.09.03-.01.06-.02.09-.04.02-.01.04-.01.07-.03l28.23-15.05a9.35 9.35 0 0 0 3.34-3.03l35.02-52.53V230h-.01Zm-124.14-50.32c-10.26-4.99-17.36-15.52-17.36-27.68 0-10.34 6.62-18.75 14.75-18.75 8.13 0 14.75 8.41 14.75 18.75 0 10.03-5.38 19.6-12.14 27.68Zm87.04 29.95c-.62.92-1.46 1.69-2.44 2.21l-25.93 13.83 5.22-27.84c.17-.9.51-1.74 1.02-2.5l71.09-106.64a13.08 13.08 0 0 1 8.38-5.61c.87-.17 1.74-.26 2.61-.26 2.57 0 5.09.76 7.28 2.22a13.08 13.08 0 0 1 5.61 8.38c.69 3.45 0 6.96-1.96 9.89l-70.88 106.32Z" fill="url(#a)"/><defs><linearGradient id="a" x1="160" y1="70.75" x2="160" y2="249.25" gradientUnits="userSpaceOnUse"><stop stop-color="#93C437"/><stop offset="1" stop-color="#279BE8"/></linearGradient></defs></svg>