<svg width="120" height="120" viewBox="0 0 120 120" fill="none" xmlns="http://www.w3.org/2000/svg"><path d="M79.494 104.4a1.25 1.25 0 0 0 2.5 0h-2.5Zm9.25-70.3 1.04-.693-.004-.007-1.036.7Zm-12.1-17.9 1.036-.7-.008-.011-1.028.711Zm-3.5.2 1.116.564.002-.005-1.118-.559Zm-4.5 8.9v1.25a1.25 1.25 0 0 0 1.116-.686l-1.116-.564Zm-9 0-.883.884c.234.234.552.366.883.366V25.3Zm-9.5-9.5-.883.884.883-.884Zm-3.3.9 1.211.31.015-.065-1.226-.245Zm-9.1 35.6-1.21-.31-.002.007 1.212.303ZM21.815 83.464a1.25 1.25 0 1 0 1.858 1.672l-1.858-1.672Zm60.18 20.936v-19h-2.5v19h2.5Zm0-19c0-6.988 3.682-11.418 7.695-16.057 3.954-4.572 8.304-9.41 8.304-16.943h-2.5c0 6.467-3.649 10.629-7.695 15.307-3.987 4.61-8.305 9.68-8.305 17.693h2.5Zm16-33c0-3.269-1.087-6.541-2.627-9.698-1.541-3.16-3.586-6.299-5.584-9.295l-2.08 1.386c2.003 3.004 3.958 6.015 5.417 9.005 1.46 2.993 2.373 5.87 2.373 8.602h2.5Zm-8.215-19-12.1-17.9-2.071 1.4 12.1 17.9 2.071-1.4ZM77.672 15.489c-1.412-2.04-4.498-1.943-5.646.352l2.236 1.118c.253-.505.966-.608 1.355-.047l2.055-1.423Zm-5.643.347-4.5 8.9 2.23 1.128 4.5-8.9-2.23-1.128Zm-3.385 8.214h-9v2.5h9v-2.5Zm-8.116.366-9.5-9.5-1.767 1.768 9.5 9.5 1.767-1.768Zm-9.5-9.5c-1.728-1.728-4.892-1.047-5.41 1.539l2.452.49a.586.586 0 0 1 .45-.463.757.757 0 0 1 .74.202l1.768-1.768Zm-5.395 1.474-9.1 35.6 2.422.62 9.1-35.6-2.422-.62Zm-9.101 35.607c-2.992 11.965-5.933 21.708-14.717 31.467l1.858 1.672c9.217-10.24 12.275-20.498 15.284-32.533l-2.425-.606Z" fill="url(#a)"/><path d="M78.644 46.4a2 2 0 1 0 0-4 2 2 0 0 0 0 4ZM60.645 46.4a2 2 0 1 0 0-4 2 2 0 0 0 0 4Z" fill="#E95064"/><defs><linearGradient id="a" x1="59.744" y1="15.206" x2="59.744" y2="104.4" gradientUnits="userSpaceOnUse"><stop stop-color="#F0677E"/><stop offset="1" stop-color="#DB1F2E"/></linearGradient></defs></svg>