<svg width="192" height="192" viewBox="0 0 192 192" fill="none" xmlns="http://www.w3.org/2000/svg"><path d="M93.207 127.892a1.25 1.25 0 1 0-2.082-1.384l2.082 1.384ZM78.266 148.1l1.028.712.013-.02-1.041-.692Zm14.3 4.5-1.118-.559a1.387 1.387 0 0 0-.019.039l1.137.52Zm-8 17.5 1.118.559.019-.039-1.137-.52Zm16.8-28.6 1.017.727.016-.023-1.033-.704Zm7.5-11 1.033.704-1.033-.704Zm67.1-28.8 1.25.035v-.001l-1.25-.034Zm-32.1-26-1.247.085a1.247 1.247 0 0 0 1.505 1.138l-.258-1.223ZM95.966 31v-1.25h-.011l.011 1.25Zm-46.6 36.5-.113 1.245a1.25 1.25 0 0 0 1.325-.938l-1.212-.307Zm-33.5 30.6 1.25-.03v-.007l-1.25.037Zm40 30.45a1.25 1.25 0 0 0 0-2.5v2.5Zm87.9-52.55 1.25-.007a1.248 1.248 0 0 0-1.645-1.179l.395 1.186Zm-14.9 20.3-.884.884.011.011.873-.895Zm-37.74 30.208-13.9 20.9 2.08 1.384 13.9-20.9-2.08-1.384Zm-13.888 20.88c-1.516 2.191.195 5.062 2.728 5.062v-2.5a.782.782 0 0 1-.693-.416c-.136-.247-.128-.508.02-.722l-2.055-1.424Zm2.728 5.062h11.7v-2.5h-11.7v2.5Zm11.7 0c-.148 0-.216-.082-.23-.104-.01-.018-.072-.136.012-.305l2.236 1.118c.384-.769.223-1.587-.138-2.155-.364-.572-1.032-1.054-1.88-1.054v2.5Zm-.237-.37-8 17.5 2.274 1.04 8-17.5-2.274-1.04Zm-7.981 17.461c-.568 1.136-.078 2.262.72 2.813.795.548 2.002.61 2.882-.27l-1.768-1.768a.268.268 0 0 1 .157-.058.233.233 0 0 1 .15.038c.03.021.075.066.1.149a.32.32 0 0 1-.005.214l-2.236-1.118Zm3.602 2.543 24.7-24.7-1.768-1.768-24.7 24.7 1.768 1.768Zm24.7-24.7c2.098-2.098.615-5.534-2.284-5.534v2.5c.701 0 1.018.764.516 1.266l1.768 1.768Zm-2.284-5.534h-7.3v2.5h7.3v-2.5Zm-7.3 0a.26.26 0 0 1 .222.136.26.26 0 0 1-.005.241l-2.034-1.454c-1.1 1.54.016 3.577 1.817 3.577v-2.5Zm.233.354 7.5-11-2.066-1.408-7.5 11 2.066 1.408Zm7.5-11a6.776 6.776 0 0 1 5.567-2.954v-2.5a9.276 9.276 0 0 0-7.633 4.046l2.066 1.408Zm5.567-2.954h34v-2.5h-34v2.5Zm34 0c14.847 0 27.33-11.609 27.75-26.515l-2.499-.07c-.381 13.494-11.698 24.085-25.251 24.085v2.5Zm27.75-26.516c.419-15.408-11.951-27.984-27.25-27.984v2.5c13.901 0 25.131 11.424 24.751 25.416l2.499.068Zm-27.25-27.984c-2.213 0-4.404.316-6.357.727l.515 2.446c1.846-.389 3.856-.673 5.842-.673v-2.5Zm-4.853 1.865c-1.744-25.652-23.086-45.865-49.147-45.865v2.5c24.739 0 44.997 19.187 46.653 43.535l2.494-.17ZM95.955 29.75c-23.079.205-42.364 16.003-47.8 37.443l2.423.614c5.163-20.36 23.478-35.362 45.4-35.557l-.023-2.5ZM49.479 66.255c-1.1-.1-2.35-.205-3.613-.205v2.5c1.138 0 2.288.095 3.387.195l.226-2.49Zm-3.613-.205c-17.497 0-31.77 14.474-31.25 32.087l2.5-.074c-.48-16.187 12.647-29.513 28.75-29.513v-2.5Zm-31.25 32.08c.418 17.015 14.908 30.42 31.85 30.42v-2.5c-15.658 0-28.968-12.395-29.35-27.98l-2.5.06Zm31.85 30.42h9.4v-2.5h-9.4v2.5Zm96.905-53.736c-6.672 2.224-11.881 6.198-14.792 10.357-2.848 4.07-3.763 8.846-.597 12.013l1.768-1.768c-1.834-1.834-1.749-5.057.878-8.812 2.565-3.666 7.305-7.342 13.533-9.418l-.79-2.372Zm-15.378 22.381c1.38 1.345 3.292 1.663 5.19 1.214 1.885-.446 3.836-1.65 5.577-3.486 3.499-3.688 6.308-10.069 6.256-18.93l-2.5.014c.049 8.339-2.593 14.058-5.569 17.195-1.496 1.577-3.039 2.466-4.339 2.774-1.286.304-2.249.034-2.869-.571l-1.746 1.79Z" fill="url(#a)"/><defs><linearGradient id="a" x1="95.914" y1="31" x2="95.914" y2="171.508" gradientUnits="userSpaceOnUse"><stop stop-color="#F55868"/><stop offset="1" stop-color="#875AE0"/></linearGradient></defs></svg>