<svg width="120" height="120" viewBox="0 0 120 120" fill="none" xmlns="http://www.w3.org/2000/svg"><path d="M48.568 86.13a1.25 1.25 0 0 0 0-2.5v2.5ZM7.679 65.387l1.25-.034v-.01l-1.25.044Zm24.893-20.408-.307 1.211a1.25 1.25 0 0 0 1.526-.93l-1.219-.281Zm63.083 7.513h-1.25c0 .69.56 1.25 1.25 1.25v-1.25Zm15.996 17.058 1.249.057v-.003l-1.249-.054ZM95.255 84.982l-.005 1.25h.005v-1.25Zm-25.493-.101.005-1.25h-.005v1.25Zm-15.246 20.408a1.25 1.25 0 1 0 2.5 0h-2.5Zm41.04-52.9h1.25c0-.69-.56-1.25-1.25-1.25v1.25ZM44.46 92.94a1.25 1.25 0 1 0-1.781 1.754l1.781-1.754ZM55.566 106l-.89.877a1.248 1.248 0 0 0 1.78 0l-.89-.877Zm12.888-11.307a1.25 1.25 0 0 0-1.782-1.754l1.782 1.754ZM48.568 83.63H28.074v2.5h20.494v-2.5Zm-20.494 0c-10.156 0-18.865-8.025-19.145-18.28l-2.5.07c.32 11.677 10.206 20.71 21.645 20.71v-2.5ZM8.928 65.343c-.375-10.882 8.17-19.725 18.746-19.725v-2.5c-12.018 0-21.668 10.043-21.244 22.311l2.498-.086Zm18.746-19.725c1.596 0 3.092.19 4.59.571l.616-2.423a20.884 20.884 0 0 0-5.206-.648v2.5Zm6.117-.36C36.964 31.486 49.174 21.25 63.663 21.25v-2.5c-15.701 0-28.885 11.086-32.31 25.947l2.437.561ZM63.663 21.25c16.986 0 30.741 13.941 30.741 31.241h2.5c0-18.644-14.837-33.741-33.241-33.741v2.5Zm31.991 32.491c8.364 0 15.117 7.101 14.747 15.755l2.498.107c.429-10.03-7.413-18.362-17.245-18.362v2.5Zm14.747 15.75c-.368 8.035-7.186 14.241-15.147 14.241v2.5c9.235 0 17.213-7.196 17.645-16.626l-2.498-.114ZM95.26 83.733l-25.493-.101-.01 2.5 25.493.101.01-2.5Zm-25.498-.101a.771.771 0 0 1-.75-.78h-2.5c0 1.788 1.442 3.28 3.25 3.28v-2.5Zm-.75-.78V58.582h-2.5V82.85h2.5Zm0-24.268c0-4.022-3.24-7.342-7.248-7.342v2.5c2.591 0 4.749 2.164 4.749 4.842h2.5Zm-7.248-7.342c-4.007 0-7.248 3.32-7.248 7.342h2.5c0-2.678 2.158-4.842 4.748-4.842v-2.5Zm-7.248 7.342v46.706h2.5V58.583h-2.5Zm41.04-7.443c-6.263 0-10.678 2.123-12.98 5.045-2.31 2.934-2.433 6.702.092 9.266l1.781-1.754c-1.474-1.498-1.597-3.822.091-5.965 1.698-2.155 5.28-4.092 11.015-4.092v-2.5ZM82.667 65.45c2.536 2.577 6.277 2.45 9.177.094 2.876-2.337 4.96-6.811 4.96-13.154h-2.5c0 5.84-1.915 9.49-4.037 11.214-2.099 1.705-4.356 1.578-5.819.093l-1.781 1.754Zm-39.99 29.243 11.997 12.184 1.782-1.754L44.46 92.939l-1.781 1.754Zm13.779 12.184 11.997-12.184-1.782-1.754-11.997 12.184 1.782 1.754Z" fill="url(#a)"/><defs><linearGradient id="a" x1="59.666" y1="20" x2="59.666" y2="106" gradientUnits="userSpaceOnUse"><stop stop-color="#93C437"/><stop offset="1" stop-color="#279BE8"/></linearGradient></defs></svg>