<svg width="321" height="320" viewBox="0 0 321 320" fill="none" xmlns="http://www.w3.org/2000/svg"><path d="M223.444 119.815a1.249 1.249 0 1 0-2.378.77l2.378-.77Zm1.811 9.385 1.186-.395-.011-.032-1.175.427Zm-5 2.75a1.25 1.25 0 0 0 0 2.5v-2.5Zm-1-27.5a1.25 1.25 0 0 0 0-2.5v2.5Zm-29 13.5a1.25 1.25 0 0 0 0 2.5v-2.5Zm44.75-9.75a1.25 1.25 0 0 0 2.5 0h-2.5Zm-61.634 48.884a1.25 1.25 0 0 0 1.768-1.768l-1.768 1.768Zm-25.929-37.274a1.25 1.25 0 1 0-2.375.78l2.375-.78Zm1.813 9.39 1.186-.395a.098.098 0 0 1-.005-.016l-1.181.411Zm-5 2.75a1.25 1.25 0 0 0 0 2.5v-2.5Zm5-18.5a1.25 1.25 0 0 0 0-2.5v2.5Zm-61.81 6.365a1.25 1.25 0 1 0-2.38.77l2.38-.77Zm1.81 9.385 1.186-.395a.542.542 0 0 0-.011-.032l-1.175.427Zm-5 2.75a1.25 1.25 0 0 0 0 2.5v-2.5Zm-31-14a1.25 1.25 0 0 0 0 2.5v-2.5Zm26-19.5a1.25 1.25 0 0 0 0-2.5v2.5Zm-30 13.5a1.25 1.25 0 0 0 0 2.5v-2.5Zm26-19.5a1.25 1.25 0 0 0 0-2.5v2.5Zm-30 13.5a1.25 1.25 0 0 0 0 2.5v-2.5Zm174.1-4a1.25 1.25 0 0 0 0 2.5v-2.5Zm-1.7 49.25-.015-1.25h-.001l.016 1.25Zm-29.3-22.6-1.249.059a.103.103 0 0 1 .001.017l1.248-.076Zm3.6-4.4-.104-1.246-.015.002.119 1.244Zm0 33.3.561 1.117.014-.007-.575-1.11Zm-22.3 11.2-.561-1.117-.004.002.565 1.115Zm60 0 .559 1.118.002-.001-.561-1.117Zm22.3-11.2.561 1.117.014-.007-.575-1.11Zm0-33.3-.104-1.246-.015.002.119 1.244Zm-3.6 4.4-1.249.059v.003l1.249-.062Zm29.3 22.6.008 1.25h.007l-.015-1.25Zm-4.6-58 .046-1.25h-.002l-.044 1.25Zm12.3 36 1.186-.395a.615.615 0 0 1-.011-.032l-1.175.427Zm-1.811-9.385a1.249 1.249 0 1 0-2.378.77l2.378-.77ZM133.455 94.2l-.04-1.25h-.002l.042 1.25Zm-25.6 67.2.562 1.116.013-.006-.575-1.11Zm-14.3 7.2-.562-1.116-.003.001.565 1.115Zm-60 0 .559 1.118.002-.001-.561-1.117Zm22.3-11.2.56 1.117.015-.007-.575-1.11Zm0-33.2-.104-1.246-.015.002.119 1.244Zm-3.6 4.4-1.249.059v.003l1.249-.062Zm29.3 22.6.008 1.25h.007l-.015-1.25Zm140.7-31-1.189.385v.001l.001.004.005.015.019.057.071.22.261.802c.219.673.519 1.593.845 2.582.648 1.969 1.404 4.239 1.812 5.361l2.35-.854c-.392-1.078-1.136-3.308-1.788-5.289-.324-.986-.624-1.903-.842-2.574l-.26-.799a44.114 44.114 0 0 1-.071-.219l-.019-.057-.004-.015-.001-.004h-.001v-.001l-1.189.385Zm1.814 9.395c.404 1.212.112 1.661-.073 1.846-.287.287-.889.509-1.741.509v2.5c1.148 0 2.545-.278 3.509-1.241 1.065-1.065 1.273-2.616.677-4.404l-2.372.79Zm-1.814 2.355h-2v2.5h2v-2.5Zm-3-30c-7.575 0-11.911 4.393-15.884 8.366l1.768 1.768c4.027-4.027 7.69-7.634 14.116-7.634v-2.5Zm-15.884 8.366c-4.072 4.072-7.715 7.634-13.116 7.634v2.5c6.599 0 10.955-4.438 14.884-8.366l-1.768-1.768Zm34.134-2.116c0-9.49-7.76-17.25-17.25-17.25v2.5c8.11 0 14.75 6.64 14.75 14.75h2.5Zm-17.25-17.25H210.255v2.5H220.255v-2.5Zm-10 0c-16.19 0-29.25 13.06-29.25 29.25h2.5c0-14.81 11.94-26.75 26.75-26.75v-2.5Zm-29.25 29.25v5h2.5v-5h-2.5Zm0 5c0 5.329-3.35 6.832-5.634 9.116l1.768 1.768c1.715-1.716 6.366-4.213 6.366-10.884h-2.5Zm-5.634 9.116c-1.867 1.867-6.366 5.258-6.366 11.884h2.5c0-5.374 3.501-7.983 5.634-10.116l-1.768-1.768Zm-6.366 11.884c0 3.28 1.092 5.994 2.165 7.87a17.097 17.097 0 0 0 1.484 2.192 12.978 12.978 0 0 0 .651.754l.044.046.014.014.005.005.002.001v.001c.001.001.001.001.885-.883l.884-.883h.001l.001.001s0 .001 0 0l-.003-.003-.023-.023-.104-.113a11.045 11.045 0 0 1-.405-.479 14.696 14.696 0 0 1-1.266-1.87c-.928-1.624-1.835-3.91-1.835-6.63h-2.5Zm-22.75-26-1.188.39.001.001.001.004.005.014.018.057.072.217.26.791.844 2.557c.65 1.96 1.403 4.219 1.806 5.38l2.362-.822a471.54 471.54 0 0 1-1.795-5.345l-.843-2.552a330.063 330.063 0 0 0-.349-1.063l-.005-.014-.001-.004v-.001l-1.188.39Zm1.814 9.395c.404 1.212.112 1.661-.073 1.846-.287.287-.889.509-1.741.509v2.5c1.148 0 2.545-.278 3.509-1.241 1.065-1.065 1.273-2.616.677-4.404l-2.372.79Zm-1.814 2.355h-2v2.5h2v-2.5Zm8.75-15.75v19h2.5v-19h-2.5Zm0 19c0 8.11-6.64 14.75-14.75 14.75v2.5c9.49 0 17.25-7.76 17.25-17.25h-2.5Zm-14.75 14.75c-8.11 0-14.75-6.64-14.75-14.75h-2.5c0 9.49 7.76 17.25 17.25 17.25v-2.5Zm-14.75-14.75v-15h-2.5v15h2.5Zm0-15c0-3.71 3.04-6.75 6.75-6.75v-2.5c-5.09 0-9.25 4.16-9.25 9.25h2.5Zm6.75-6.75h17v-2.5h-17v2.5Zm-46 6.75-1.19.385.001.001.001.004a.298.298 0 0 1 .005.015l.019.057.071.22.26.802c.22.673.52 1.593.846 2.582.648 1.969 1.404 4.239 1.812 5.361l2.35-.854c-.392-1.078-1.136-3.308-1.788-5.289a912.08 912.08 0 0 1-.842-2.574l-.26-.799-.071-.219-.018-.057a.298.298 0 0 0-.005-.015l-.001-.004v-.001l-1.19.385Zm1.814 9.395c.404 1.212.112 1.661-.073 1.846-.287.287-.889.509-1.741.509v2.5c1.148 0 2.545-.278 3.509-1.241 1.065-1.065 1.273-2.616.677-4.404l-2.372.79Zm-1.814 2.355h-2v2.5h2v-2.5Zm-3-30c-7.575 0-11.91 4.393-15.884 8.366l1.768 1.768c4.027-4.027 7.69-7.634 14.116-7.634v-2.5Zm-15.884 8.366c-4.027 4.027-7.69 7.634-14.116 7.634v2.5c7.575 0 11.91-4.393 15.884-8.366l-1.768-1.768ZM79.255 95.95c-7.575 0-11.91 4.393-15.884 8.366l1.768 1.768c4.027-4.027 7.69-7.634 14.116-7.634v-2.5Zm-15.884 8.366c-4.027 4.027-7.69 7.634-14.116 7.634v2.5c7.575 0 11.91-4.393 15.884-8.366l-1.768-1.768ZM75.255 89.95c-7.575 0-11.91 4.393-15.884 8.366l1.768 1.768c4.027-4.027 7.69-7.634 14.116-7.634v-2.5ZM59.37 98.316c-4.027 4.027-7.69 7.634-14.116 7.634v2.5c7.575 0 11.91-4.393 15.884-8.366l-1.768-1.768Zm159.984 6.134c6.51 0 11.75 5.24 11.75 11.75h2.5c0-7.89-6.36-14.25-14.25-14.25v2.5Zm11.75 11.75v20h2.5v-20h-2.5Zm0 20c0 7.529-5.963 13.659-13.465 13.75l.03 2.5c8.897-.109 15.935-7.379 15.935-16.25h-2.5Zm-13.466 13.75c-7.51.095-14.422-3.332-19.546-7.839-2.557-2.248-4.638-4.74-6.104-7.143-1.476-2.421-2.278-4.671-2.386-6.444l-2.496.152c.142 2.327 1.152 4.977 2.748 7.594 1.606 2.634 3.856 5.317 6.587 7.719 5.451 4.793 12.939 8.566 21.229 8.461l-.032-2.5Zm-28.036-21.409c-.072-1.526 1.123-2.968 2.47-3.097l-.237-2.488c-2.852.271-4.857 3.029-4.73 5.703l2.497-.118Zm2.456-3.095c1.69-.141 3.046 1.104 3.046 2.754h2.5c0-3.15-2.644-5.505-5.754-5.246l.208 2.492Zm3.046 2.754v22.1h2.5v-22.1h-2.5Zm0 22.1c0 2.53-1.437 4.904-3.726 6.09l1.151 2.22c3.112-1.614 5.075-4.84 5.075-8.31h-2.5Zm-3.711 6.083-22.3 11.2 1.122 2.234 22.3-11.2-1.122-2.234Zm-22.304 11.202c-8.512 4.309-13.985 13.035-13.985 22.615h2.5c0-8.62 4.927-16.494 12.614-20.385l-1.129-2.23ZM155.105 190.2v11.2h2.5v-11.2h-2.5Zm0 11.2c0 17.29 13.96 31.25 31.25 31.25v-2.5c-15.91 0-28.75-12.84-28.75-28.75h-2.5Zm31.25 31.25c17.29 0 31.25-13.96 31.25-31.25h-2.5c0 15.91-12.84 28.75-28.75 28.75v2.5Zm31.25-31.25v-11.2h-2.5v11.2h2.5Zm0-11.2a22.734 22.734 0 0 1 12.609-20.382l-1.118-2.236a25.234 25.234 0 0 0-13.991 22.618h2.5Zm12.611-20.383 22.3-11.2-1.122-2.234-22.3 11.2 1.122 2.234Zm22.314-11.207c3.104-1.61 5.075-4.731 5.075-8.31h-2.5c0 2.622-1.43 4.9-3.726 6.09l1.151 2.22Zm5.075-8.31v-22.1h-2.5v22.1h2.5Zm0-22.1c0-3.029-2.623-5.507-5.754-5.246l.208 2.492c1.669-.139 3.046 1.183 3.046 2.754h2.5Zm-5.769-5.244c-2.852.271-4.857 3.029-4.73 5.703l2.497-.118c-.072-1.526 1.123-2.968 2.47-3.097l-.237-2.488Zm-4.73 5.706c.114 2.309 1.109 4.945 2.692 7.55 1.594 2.623 3.838 5.3 6.569 7.702 5.451 4.794 12.961 8.588 21.296 8.536l-.016-2.5c-7.565.048-14.505-3.408-19.629-7.914-2.557-2.248-4.632-4.733-6.084-7.123-1.464-2.408-2.245-4.634-2.331-6.375l-2.497.124Zm30.564 23.788c8.898-.109 15.935-7.379 15.935-16.25h-2.5c0 7.529-5.963 13.659-13.465 13.75l.03 2.5Zm15.935-16.25v-22.5h-2.5v22.5h2.5Zm0-22.5c0-11.43-8.891-21.323-20.504-21.75l-.092 2.5c10.186.373 18.096 9.08 18.096 19.25h2.5Zm-20.506-21.75c-12.113-.424-21.994 9.248-21.994 21.25h2.5c0-10.598 8.719-19.126 19.406-18.75l.088-2.5Zm-21.994 21.25c0 1.79 1.46 3.25 3.25 3.25v-2.5c-.41 0-.75-.34-.75-.75h-2.5Zm3.25 3.25h2v-2.5h-2v2.5Zm2 0c3.71 0 6.75 3.04 6.75 6.75h2.5c0-5.09-4.16-9.25-9.25-9.25v2.5Zm6.75 6.75v12h2.5v-12h-2.5Zm0 12c0 3.99 3.26 7.25 7.25 7.25v-2.5c-2.61 0-4.75-2.14-4.75-4.75h-2.5Zm7.25 7.25c1.79 0 3.25-1.46 3.25-3.25h-2.5c0 .41-.34.75-.75.75v2.5Zm3.25-3.25c0-2.61 2.14-4.75 4.75-4.75v-2.5c-3.991 0-7.25 3.26-7.25 7.25h2.5Zm8.75-4.75c1.148 0 2.545-.278 3.509-1.241 1.065-1.065 1.273-2.616.677-4.404l-2.372.79c.404 1.212.112 1.661-.073 1.846-.287.287-.889.509-1.741.509v2.5Zm4.175-5.677c-.392-1.078-1.136-3.308-1.788-5.289-.324-.986-.624-1.903-.842-2.574l-.26-.799a44.114 44.114 0 0 1-.071-.219l-.019-.057-.004-.015-.001-.004h-.001v-.001l-1.189.385-1.189.385v.001l.001.004.005.015.019.057.071.22.261.802c.219.673.519 1.593.845 2.582.648 1.969 1.404 4.239 1.812 5.361l2.35-.854ZM157.505 116.2c0-13.108-10.887-23.672-24.09-23.25l.08 2.5c11.796-.378 21.51 9.058 21.51 20.75h2.5Zm-24.092-23.25c-12.615.425-22.408 11.218-22.408 23.75h2.5c0-11.268 8.807-20.875 19.992-21.25l-.084-2.5Zm-22.408 23.75v37.5h2.5v-37.5h-2.5Zm0 37.5c0 2.53-1.437 4.904-3.726 6.09l1.151 2.22c3.112-1.614 5.075-4.84 5.075-8.31h-2.5Zm-3.712 6.084-14.3 7.2 1.124 2.232 14.3-7.2-1.124-2.232Zm-14.303 7.201c-8.512 4.309-13.985 13.035-13.985 22.615h2.5c0-8.62 4.927-16.494 12.614-20.385l-1.129-2.23ZM79.005 190.1v11.2h2.5v-11.2h-2.5Zm0 11.2c0 15.91-12.84 28.75-28.75 28.75v2.5c17.29 0 31.25-13.96 31.25-31.25h-2.5Zm-28.75 28.75c-15.91 0-28.75-12.84-28.75-28.75h-2.5c0 17.29 13.96 31.25 31.25 31.25v-2.5Zm-28.75-28.75v-11.2h-2.5v11.2h2.5Zm0-11.2a22.734 22.734 0 0 1 12.609-20.382l-1.118-2.236A25.233 25.233 0 0 0 19.005 190.1h2.5Zm12.61-20.383 22.3-11.2-1.121-2.234-22.3 11.2 1.122 2.234ZM56.43 158.51c3.104-1.61 5.075-4.732 5.075-8.31h-2.5c0 2.622-1.43 4.9-3.726 6.09l1.151 2.22Zm5.075-8.31v-22h-2.5v22h2.5Zm0-22c0-3.029-2.623-5.507-5.754-5.246l.208 2.492c1.669-.139 3.046 1.183 3.046 2.754h2.5Zm-5.769-5.244c-2.852.271-4.857 3.029-4.73 5.703l2.498-.118c-.073-1.526 1.122-2.968 2.47-3.097l-.238-2.488Zm-4.73 5.706c.114 2.309 1.108 4.945 2.692 7.55 1.594 2.623 3.838 5.3 6.569 7.702 5.451 4.794 12.96 8.588 21.296 8.536l-.016-2.5c-7.565.048-14.505-3.408-19.63-7.914-2.556-2.248-4.63-4.733-6.083-7.123-1.464-2.408-2.245-4.634-2.33-6.375l-2.498.124ZM81.57 152.45c8.898-.109 15.935-7.379 15.935-16.25h-2.5c0 7.529-5.963 13.659-13.465 13.75l.03 2.5Zm15.935-16.25v-20h-2.5v20h2.5Zm0-20c0-7.89-6.36-14.25-14.25-14.25v2.5c6.51 0 11.75 5.24 11.75 11.75h2.5Zm180.85 18.25h4v-2.5h-4v2.5Z" fill="url(#a)"/><path d="M272.255 124.3a2 2 0 1 0 0-4 2 2 0 0 0 0 4ZM212.255 124.2a2 2 0 1 0 0-4 2 2 0 0 0 0 4ZM136.255 124.2a2 2 0 1 0 0-4 2 2 0 0 0 0 4ZM76.255 124.2a2 2 0 1 0 0-4 2 2 0 0 0 0 4Z" fill="#EC576C"/><defs><linearGradient id="a" x1="156.305" y1="91.2" x2="156.305" y2="231.4" gradientUnits="userSpaceOnUse"><stop stop-color="#F0677E"/><stop offset="1" stop-color="#DB1F2E"/></linearGradient></defs></svg>