<svg width="120" height="120" viewBox="0 0 120 120" fill="none" xmlns="http://www.w3.org/2000/svg"><path d="M109.9 27.1a9.299 9.299 0 0 0-6.7-4.3 17.403 17.403 0 0 0-16.4-16 16.7 16.7 0 0 0-12.7 4.7A16.9 16.9 0 0 0 68.8 24v14.6a6.8 6.8 0 0 1-5.6-6.6 7 7 0 0 1 1.7-4.5 1.205 1.205 0 0 0-1.8-1.6 9.1 9.1 0 0 0-2.3 6.1 9.3 9.3 0 0 0 7.9 9.2h.3a2.2 2.2 0 0 0 1.5-.6 2.1 2.1 0 0 0 .7-1.7V24a14.8 14.8 0 0 1 4.6-10.7 14.7 14.7 0 0 1 10.9-4 14.9 14.9 0 0 1 14.1 15.2V33a1.199 1.199 0 1 0 2.4 0v-7.6a6.703 6.703 0 0 1 4.6 3 7.192 7.192 0 0 1 .1 7c-1.4 2.8-5.9 5-10.6 7.3-7.7 3.8-16.5 8.1-16.5 17.3 0 6.9 4.4 11 9 15.4s11 10.3 11 20.6A14.899 14.899 0 0 1 86 110.8H15a3.703 3.703 0 0 1-3.7-3.6H78a1.2 1.2 0 1 0 0-2.4h-4.8V76a9.2 9.2 0 0 0-9.2-9.2H24a9.2 9.2 0 0 0-9.2 9.2v28.8H11a2.202 2.202 0 0 0-2.2 2.2 6.2 6.2 0 0 0 6.2 6.2h71A17.199 17.199 0 0 0 103.2 96c0-11.4-6.2-17.3-11.7-22.4-5.5-5.1-8.3-7.8-8.3-13.6 0-7.7 7.8-11.4 15.2-15.1 5.1-2.4 9.9-4.8 11.7-8.3a9.704 9.704 0 0 0-.2-9.5ZM24 69.2h40a6.9 6.9 0 0 1 6.8 6.8v28.8H17.2V76a6.9 6.9 0 0 1 6.8-6.8Z" fill="url(#a)"/><defs><linearGradient id="a" x1="60.023" y1="6.767" x2="60.023" y2="113.2" gradientUnits="userSpaceOnUse"><stop stop-color="#FFBE4F"/><stop offset="1" stop-color="#F26B1D"/></linearGradient></defs></svg>