<svg width="320" height="320" viewBox="0 0 320 320" fill="none" xmlns="http://www.w3.org/2000/svg"><path d="M208.25 176c0-.69-.56-1.25-1.25-1.25H46a6.757 6.757 0 0 1-6.75-6.75 1.25 1.25 0 0 0-2.5 0c0 5.101 4.15 9.25 9.25 9.25h161c.69 0 1.25-.56 1.25-1.25Z" fill="url(#a)"/><path d="M46 165.25h161a1.25 1.25 0 0 0 0-2.5H46a6.757 6.757 0 0 1-6.75-6.75V84A6.757 6.757 0 0 1 46 77.25h200a6.757 6.757 0 0 1 6.75 6.75v73a1.25 1.25 0 0 0 2.5 0V84c0-5.1-4.149-9.25-9.25-9.25H46c-5.1 0-9.25 4.15-9.25 9.25v72c0 5.101 4.15 9.25 9.25 9.25Z" fill="url(#b)"/><path d="M60.75 120c0 11.717 9.533 21.25 21.25 21.25s21.25-9.533 21.25-21.25S93.717 98.75 82 98.75 60.75 108.283 60.75 120Zm40 0c0 10.339-8.411 18.75-18.75 18.75S63.25 130.339 63.25 120s8.411-18.75 18.75-18.75 18.75 8.411 18.75 18.75Z" fill="url(#c)"/><path d="m269.292 204.248-32.521-16.261a2.734 2.734 0 0 1-1.521-2.459v-8.278H246c5.101 0 9.25-4.149 9.25-9.25v-2a3.254 3.254 0 0 0-3.25-3.25h-16.75v-9.5H242a5.256 5.256 0 0 0 5.25-5.25V92a5.256 5.256 0 0 0-5.25-5.25H130a5.256 5.256 0 0 0-5.25 5.25v56a5.256 5.256 0 0 0 5.25 5.25h82a.75.75 0 0 1 .75.75v62.982l-16.694-16.694c-7.75-7.75-20.362-7.75-28.112 0a5.255 5.255 0 0 0 0 7.424l37.172 37.172c.244.244.564.366.884.366a1.25 1.25 0 0 0 .884-2.134l-37.172-37.172a2.752 2.752 0 0 1 0-3.888c6.775-6.776 17.801-6.776 24.576 0l18.465 18.465c.036 4.152.554 15.421 5.018 18.365a4.508 4.508 0 0 0 2.502.758c.65 0 1.381-.136 2.191-.484 1.469-.587 2.398-1.647 2.689-3.068.967-4.707-5.62-12.272-9.903-16.605V154a3.254 3.254 0 0 0-3.25-3.25h-82a2.752 2.752 0 0 1-2.75-2.75V92a2.753 2.753 0 0 1 2.75-2.75h112a2.753 2.753 0 0 1 2.75 2.75v56a2.752 2.752 0 0 1-2.75 2.75h-6.75V130c0-6.203-5.047-11.25-11.25-11.25s-11.25 5.047-11.25 11.25v15a1.25 1.25 0 0 0 2.5 0v-15c0-4.825 3.925-8.75 8.75-8.75s8.75 3.925 8.75 8.75v55.528c0 2 1.112 3.8 2.902 4.696l32.523 16.26c7.757 3.878 12.575 11.676 12.575 20.349V244a1.25 1.25 0 0 0 2.5 0v-17.167c0-9.626-5.349-18.28-13.958-22.585Zm-46.587 31.342c-.082.396-.288.897-1.197 1.261-1.24.532-1.941.224-2.361-.052-2.293-1.513-3.507-7.5-3.817-13.62 5.942 6.404 7.753 10.569 7.375 12.411ZM252 165.25c.413 0 .75.337.75.75v2a6.758 6.758 0 0 1-6.75 6.75h-10.75v-9.5H252Z" fill="url(#d)"/><defs><linearGradient id="a" x1="160" y1="74.75" x2="160" y2="245.25" gradientUnits="userSpaceOnUse"><stop stop-color="#FFBE4F"/><stop offset="1" stop-color="#F26B1D"/></linearGradient><linearGradient id="b" x1="160" y1="74.75" x2="160" y2="245.25" gradientUnits="userSpaceOnUse"><stop stop-color="#FFBE4F"/><stop offset="1" stop-color="#F26B1D"/></linearGradient><linearGradient id="c" x1="160" y1="74.75" x2="160" y2="245.25" gradientUnits="userSpaceOnUse"><stop stop-color="#FFBE4F"/><stop offset="1" stop-color="#F26B1D"/></linearGradient><linearGradient id="d" x1="160" y1="74.75" x2="160" y2="245.25" gradientUnits="userSpaceOnUse"><stop stop-color="#FFBE4F"/><stop offset="1" stop-color="#F26B1D"/></linearGradient></defs></svg>