<svg width="120" height="120" viewBox="0 0 120 120" fill="none" xmlns="http://www.w3.org/2000/svg"><path d="M93.195 35.343a1.25 1.25 0 1 0 2.5 0h-2.5Zm2.5 36.67a1.25 1.25 0 0 0-2.5 0h2.5ZM20.358 34.228l1.25.001h-1.25ZM53.016 85.26a1.25 1.25 0 0 0 0-2.5v2.5Zm-17.971-2.5a1.25 1.25 0 1 0 0 2.5v-2.5Zm50.4 1.25v1.25-1.25ZM58.35 86.006l1.25.002v-.002h-1.25Zm2-2v1.25-1.25Zm2.765 0v-1.25 1.25Zm31.12-42.637v1.25-1.25Zm-15.77 31.9.206-1.233-.015-.003-.19 1.236Zm-3.95-12.387a1.25 1.25 0 1 0-1.898-1.627l1.898 1.627Zm35.45 12.387-.19-1.236-.015.003.205 1.233Zm5.849-14.014a1.25 1.25 0 1 0-1.898 1.627l1.898-1.627ZM44.22 96.493a1.25 1.25 0 0 0 0 2.5v-2.5Zm28.223 2.5a1.25 1.25 0 1 0 0-2.5v2.5ZM57.08 97.475a1.25 1.25 0 0 0 2.5.004l-2.5-.004Zm-41.74-53.77a1.25 1.25 0 1 0 0-2.5v2.5Zm14.14-1.25v-1.25h-.003l.004 1.25Zm-7.127.022v1.25h.004l-.004-1.25Zm-2-2h-1.25 1.25ZM16.3 89.386a3.067 3.067 0 0 1-3.067 3.067v2.5a5.567 5.567 0 0 0 5.567-5.567h-2.5Zm-3.067 3.067a3.067 3.067 0 0 1-3.068-3.067h-2.5a5.567 5.567 0 0 0 5.568 5.567v-2.5Zm-3.068-3.067a3.068 3.068 0 0 1 3.068-3.068v-2.5a5.568 5.568 0 0 0-5.568 5.568h2.5Zm3.068-3.068a3.068 3.068 0 0 1 3.067 3.068h2.5a5.568 5.568 0 0 0-5.567-5.568v2.5Zm16.125-59.84h56.087v-2.5H29.358v2.5Zm63.837 7.75v1.115h2.5v-1.115h-2.5Zm0 37.785v2.997h2.5v-2.997h-2.5ZM53.016 82.76H35.045v2.5h17.971v-2.5Zm40.179-7.75a7.75 7.75 0 0 1-7.75 7.75v2.5c5.66 0 10.25-4.589 10.25-10.25h-2.5Zm-7.75-48.532a7.75 7.75 0 0 1 7.75 7.75h2.5c0-5.66-4.59-10.25-10.25-10.25v2.5Zm-56.087-2.5c-5.66 0-10.25 4.59-10.25 10.25h2.5a7.75 7.75 0 0 1 7.75-7.75v-2.5ZM59.6 86.006c0-.41.34-.75.75-.75v-2.5c-1.79 0-3.25 1.46-3.25 3.25h2.5Zm.75-.75h2.765v-2.5H60.35v2.5ZM94.236 40.12c-4.9 0-8.916 1.864-11.694 5.01-2.763 3.13-4.226 7.442-4.226 12.24h2.5c0-4.302 1.31-7.99 3.6-10.585 2.276-2.579 5.595-4.165 9.82-4.165v-2.5Zm-15.92 17.25v14.9h2.5v-14.9h-2.5Zm0 14.9c0-.046.018-.101.07-.15a.354.354 0 0 1 .285-.084l-.41 2.467c1.486.248 2.555-.993 2.555-2.233h-2.5Zm.34-.236c-3.323-.51-5.84-3.313-5.84-6.664h-2.5c0 4.649 3.482 8.447 7.96 9.135l.38-2.47Zm-5.84-6.664c0-1.673.674-3.29 1.699-4.487l-1.898-1.627c-1.375 1.604-2.301 3.787-2.301 6.114h2.5Zm21.42-22.75c4.2 0 7.51 1.585 9.782 4.164 2.287 2.595 3.597 6.284 3.597 10.586h2.5c0-4.799-1.464-9.11-4.221-12.24-2.772-3.145-6.778-5.01-11.658-5.01v2.5Zm13.379 14.75v14.9h2.5v-14.9h-2.5Zm0 14.9c0 1.24 1.069 2.48 2.556 2.233l-.411-2.466a.355.355 0 0 1 .285.083c.052.049.07.104.07.15h-2.5Zm2.54 2.235c4.478-.689 7.96-4.486 7.96-9.135h-2.5c0 3.35-2.517 6.153-5.84 6.664l.38 2.471Zm7.96-9.135c0-2.327-.926-4.51-2.301-6.114l-1.898 1.627c1.026 1.197 1.699 2.814 1.699 4.487h2.5ZM44.22 98.993h28.223v-2.5H44.22v2.5ZM33.232 47.456v46.601h2.5V47.456h-2.5Zm-3.75 50.351H8.528v2.5h20.954v-2.5Zm-24.704-3.75V47.456h-2.5v46.601h2.5Zm3.75-50.351h6.812v-2.5H8.528v2.5Zm0 54.101a3.75 3.75 0 0 1-3.75-3.75h-2.5a6.25 6.25 0 0 0 6.25 6.25v-2.5Zm24.704-3.75a3.75 3.75 0 0 1-3.75 3.75v2.5a6.25 6.25 0 0 0 6.25-6.25h-2.5Zm2.5-46.601a6.25 6.25 0 0 0-6.25-6.25v2.5a3.75 3.75 0 0 1 3.75 3.75h2.5Zm-30.954 0a3.75 3.75 0 0 1 3.75-3.75v-2.5a6.25 6.25 0 0 0-6.25 6.25h2.5Zm17.576-6.229c-.41 0-.75-.34-.75-.75h-2.5c0 1.79 1.46 3.25 3.25 3.25v-2.5ZM85.445 82.76l-22.33-.004v2.5l22.33.004v-2.5ZM57.1 86.004l-.019 11.47 2.5.005.019-11.47-2.5-.005ZM21.604 40.478l.004-6.249-2.5-.002-.004 6.25 2.5.001Zm7.874.728-7.128.021.008 2.5 7.127-.021-.007-2.5Z" fill="url(#a)"/><defs><linearGradient id="a" x1="60.197" y1="25.228" x2="60.197" y2="99.057" gradientUnits="userSpaceOnUse"><stop stop-color="#FFBE4F"/><stop offset="1" stop-color="#F26B1D"/></linearGradient></defs></svg>