<svg width="120" height="120" viewBox="0 0 120 120" fill="none" xmlns="http://www.w3.org/2000/svg"><path d="M83.644 33.3h1.25c0-.033-.001-.067-.004-.1l-1.246.1ZM46.526 97.641a1.25 1.25 0 1 0 2.236 1.118l-2.236-1.118ZM11.644 60.95a1.25 1.25 0 1 0 0 2.5v-2.5Zm29.25-26.75a1.25 1.25 0 0 0-2.5 0h2.5Zm20 12v-22h-2.5v22h2.5Zm0-22c0-.41.34-.75.75-.75v-2.5c-1.79 0-3.25 1.46-3.25 3.25h2.5Zm.75-.75h10v-2.5h-10v2.5Zm10 0c5.64 0 10.306 4.39 10.754 9.95l2.492-.2c-.551-6.84-6.285-12.25-13.246-12.25v2.5Zm10.75 9.85c0 .684.342 1.234.744 1.582a2.32 2.32 0 0 0 1.506.568v-2.5c.072 0 .108.022.131.043a.409.409 0 0 1 .12.307h-2.5Zm2.25 2.15h19v-2.5h-19v2.5Zm19 0c1.51 0 2.75 1.24 2.75 2.75h2.5c0-2.89-2.359-5.25-5.25-5.25v2.5Zm2.75 2.75c0 14.81-11.94 26.75-26.75 26.75v2.5c16.19 0 29.25-13.06 29.25-29.25h-2.5Zm-26.75 26.75h-8.6v2.5h8.6v-2.5Zm-8.6 0c-4.972 0-9.606 2.867-11.818 7.291l2.236 1.118c1.788-3.576 5.555-5.909 9.582-5.909v-2.5Zm-11.818 7.291-12.7 25.4 2.236 1.118 12.7-25.4-2.236-1.118ZM11.644 63.45c16.19 0 29.25-13.06 29.25-29.25h-2.5c0 14.81-11.94 26.75-26.75 26.75v2.5Zm26.75-29.25v12h2.5v-12h-2.5Zm0 12c0 6.19 5.06 11.25 11.25 11.25v-2.5c-4.81 0-8.75-3.94-8.75-8.75h-2.5Zm11.25 11.25c6.19 0 11.25-5.06 11.25-11.25h-2.5c0 4.81-3.94 8.75-8.75 8.75v2.5Z" fill="url(#a)"/><path d="M73.644 38.2a2 2 0 1 0 0-4 2 2 0 0 0 0 4Z" fill="url(#b)"/><defs><linearGradient id="a" x1="59.644" y1="22.2" x2="59.644" y2="98.2" gradientUnits="userSpaceOnUse"><stop stop-color="#279BE8"/><stop offset="1" stop-color="#875AE0"/></linearGradient><linearGradient id="b" x1="73.644" y1="34.2" x2="73.644" y2="38.2" gradientUnits="userSpaceOnUse"><stop stop-color="#279BE8"/><stop offset="1" stop-color="#875AE0"/></linearGradient></defs></svg>