<svg width="192" height="192" viewBox="0 0 192 192" fill="none" xmlns="http://www.w3.org/2000/svg"><path d="M22.31 37.04a1.25 1.25 0 1 0 2.5 0h-2.5ZM130.67 47.05l.395 1.187.003-.001-.398-1.185Zm13.414-4.504-.396-1.186-.002.001.398 1.185Zm10.11 5.105 1.186-.394-1.186.394Zm26.927 80.883-1.186.394v.001l1.186-.395Zm-5.105 10.11.395 1.186-.395-1.186Zm-92.894 30.931-.395-1.186.395 1.186Zm-10.11-5.105 1.185-.395v-.002l-1.186.397Zm-4.321-16.814a1.25 1.25 0 1 0-2.37.795l2.37-.795ZM57.595 52.808a1.25 1.25 0 0 0 0 2.5v-2.5Zm18.018 2.5a1.25 1.25 0 0 0 0-2.5v2.5Zm61.311 10.762a1.25 1.25 0 0 0-2.5 0h2.5ZM22.659 64.068l.245-1.226-.062-.012-.063-.006-.12 1.244Zm-9.109-10.31-1.249-.05v.003l1.249.047Zm9.51-9.71.072 1.248h.003l-.075-1.248Zm8.208 3.503-.943.82.434.5.658-.079-.149-1.24Zm7.508-.9.149 1.24.786-.094.25-.751-1.185-.396Zm-.1 14.414 1.185-.395-.244-.733-.765-.11-.176 1.238Zm-6.83-2.238a1.25 1.25 0 0 0-.354 2.474l.353-2.474Zm40.037 26.242-.093-1.247.093 1.247Zm2.724-1.979 1.156.474-1.156-.474Zm-15.758 8.458-.809.954.809-.954Zm1.831-5.637.094 1.247-.094-1.247Zm7.777 16.106 1.215.296-1.215-.296Zm-1.04-3.202.808-.953-.808.953Zm3.175 17.601-.657-1.064.657 1.064Zm-4.796-3.484-1.214-.296 1.214.296Zm17.72-2.42-.656 1.064.657-1.064Zm-3.366 0 .657 1.064-.657-1.064Zm17.72 2.42 1.215-.296-1.214.296Zm-4.794 3.484.656-1.064-.656 1.064Zm3.174-17.601-.808-.953.808.953Zm-1.04 3.202-1.214.296 1.214-.296Zm7.777-16.106-.094 1.247.094-1.247Zm1.832 5.637.808.954-.808-.954ZM89.06 83.09l1.157-.474-1.157.474Zm2.724 1.979.094-1.247-.094 1.247Zm-6.987-12.373-1.156.474 1.156-.474Zm-5.927 0-1.157-.475 1.157.475ZM24.81 37.04V36.04h-2.5v1h2.5Zm0-1.001c0-3.715 3.044-6.758 6.758-6.758v-2.5c-5.095 0-9.258 4.163-9.258 9.258h2.5Zm6.758-6.758h96.098v-2.5H31.568v2.5Zm96.098 0c3.714 0 6.758 3.043 6.758 6.758h2.5c0-5.095-4.163-9.258-9.258-9.258v2.5Zm6.758 6.758v12.012h2.5V36.04h-2.5Zm0 12.012c0 6.286-1.933 9.834-4.004 11.387-2.026 1.52-4.33 1.285-5.874-.259l-1.768 1.768c2.46 2.46 6.162 2.726 9.142.491 2.934-2.2 5.004-6.66 5.004-13.387h-2.5Zm-9.878 11.128c-1.667-1.666-2.009-3.61-1.131-5.463.924-1.951 3.318-4.037 7.649-5.48l-.79-2.372c-4.678 1.56-7.79 3.978-9.118 6.782-1.375 2.902-.716 5.963 1.622 8.3l1.768-1.767Zm6.521-10.944 13.414-4.505-.796-2.37-13.414 4.505.796 2.37Zm13.411-4.504c3.537-1.179 7.342.753 8.529 4.315l2.372-.79c-1.616-4.848-6.82-7.52-11.692-5.897l.791 2.372Zm8.529 4.314 26.927 80.882 2.372-.789-26.927-80.882-2.372.79Zm26.927 80.883c1.18 3.537-.753 7.342-4.314 8.529l.79 2.372c4.847-1.616 7.52-6.82 5.896-11.692l-2.372.791Zm-4.314 8.529-92.894 30.931.79 2.372 92.894-30.931-.79-2.372Zm-92.895 30.931c-3.537 1.18-7.341-.753-8.529-4.314l-2.371.79c1.615 4.847 6.82 7.52 11.691 5.896l-.79-2.372Zm-8.53-4.316-5.505-16.417-2.37.795 5.505 16.417 2.37-.795Zm-16.6-108.765h18.018v-2.5H57.595v2.5Zm76.829 10.762v66.067h2.5V66.07h-2.5Zm0 66.067c0 3.714-3.044 6.758-6.758 6.758v2.5c5.095 0 9.258-4.163 9.258-9.258h-2.5Zm-6.758 6.758H31.568v2.5h96.098v-2.5Zm-96.098 0c-3.714 0-6.758-3.044-6.758-6.758h-2.5c0 5.095 4.164 9.258 9.258 9.258v-2.5Zm-6.758-6.758V65.069h-2.5v67.068h2.5Zm0-67.068c0-1.224-.956-2.037-1.906-2.227l-.49 2.452-.006-.003a.108.108 0 0 1-.027-.022.302.302 0 0 1-.07-.2h2.5Zm-2.031-2.245c-4.576-.44-8.155-4.305-7.98-9.02l-2.498-.093c-.226 6.096 4.404 11.04 10.239 11.601l.239-2.488Zm-7.98-9.017c.176-4.474 3.782-8.249 8.333-8.511l-.144-2.496c-5.86.338-10.462 5.172-10.687 10.909l2.498.098Zm8.336-8.512c2.882-.174 5.42 1.04 7.19 3.077l1.886-1.64c-2.234-2.57-5.502-4.158-9.227-3.932l.151 2.495Zm8.282 3.497 7.508-.9-.298-2.483-7.508.901.298 2.482Zm8.544-1.746c1.645-4.932 4.644-7.754 7.724-7.754v-2.5c-4.728 0-8.336 4.185-10.095 9.463l2.371.79Zm7.724-7.754c2.163 0 4.324 1.42 6.01 4.117 1.672 2.676 2.75 6.443 2.75 10.649h2.5c0-4.603-1.175-8.844-3.13-11.974-1.944-3.11-4.788-5.292-8.13-5.292v2.5Zm8.76 14.766c0 4.206-1.078 7.973-2.75 10.649-1.686 2.696-3.847 4.117-6.01 4.117v2.5c3.342 0 6.186-2.182 8.13-5.292 1.955-3.13 3.13-7.37 3.13-11.974h-2.5Zm-8.76 14.766c-1.512 0-3.034-.754-4.43-2.206-1.395-1.452-2.588-3.53-3.394-5.948l-2.371.79c.895 2.687 2.255 5.114 3.963 6.89 1.707 1.776 3.84 2.974 6.232 2.974v-2.5Zm-8.833-8.996-7.007-1.001-.353 2.474 7.007 1.002.353-2.475ZM83.641 73.17l4.263 10.394 2.313-.948-4.263-10.395-2.313.949Zm8.05 13.145 11.202.843.188-2.493-11.203-.843-.188 2.493Zm12.319 4.28-8.568 7.267 1.617 1.906 8.568-7.266-1.617-1.907Zm-10.014 11.718 2.66 10.915 2.43-.592-2.662-10.915-2.428.592Zm-.264 13.039-9.558-5.903-1.314 2.127 9.559 5.903 1.313-2.127Zm-14.238-5.903-9.56 5.903 1.315 2.127 9.558-5.903-1.313-2.127Zm-12.483 3.779 2.66-10.915-2.428-.592-2.661 10.915 2.429.592Zm1.214-15.366-8.568-7.267-1.617 1.907 8.568 7.266 1.617-1.906Zm-7.451-10.704 11.203-.843-.187-2.493-11.204.843.188 2.493Zm14.99-3.594 4.262-10.394-2.313-.949-4.263 10.395 2.313.948Zm-3.787 2.751a4.453 4.453 0 0 0 3.786-2.75l-2.313-.95a1.953 1.953 0 0 1-1.66 1.207l.187 2.493Zm-12.32 4.28c-1.332-1.13-.625-3.306 1.117-3.437l-.188-2.493c-3.97.298-5.583 5.26-2.546 7.837l1.617-1.907Zm10.015 11.718a4.454 4.454 0 0 0-1.447-4.451l-1.617 1.906c.564.478.81 1.234.635 1.953l2.429.592Zm.263 13.039c-1.486.918-3.338-.427-2.924-2.124l-2.429-.592c-.943 3.869 3.278 6.936 6.667 4.843l-1.314-2.127Zm14.239-5.903a4.452 4.452 0 0 0-4.68 0l1.313 2.127a1.951 1.951 0 0 1 2.053 0l1.314-2.127Zm12.482 3.779c.414 1.697-1.438 3.042-2.924 2.124l-1.313 2.127c3.388 2.093 7.609-.974 6.666-4.843l-2.429.592Zm-1.214-15.366a4.454 4.454 0 0 0-1.446 4.451l2.428-.592a1.953 1.953 0 0 1 .635-1.953l-1.617-1.906Zm7.451-10.704c1.742.13 2.449 2.307 1.117 3.437l1.617 1.907c3.037-2.576 1.425-7.539-2.546-7.837l-.188 2.493Zm-14.99-3.594a4.453 4.453 0 0 0 3.787 2.751l.188-2.493a1.953 1.953 0 0 1-1.661-1.206l-2.313.948Zm-1.95-11.343c-1.51-3.684-6.728-3.684-8.24 0l2.313.949c.663-1.616 2.952-1.616 3.615 0l2.313-.949Z" fill="url(#a)"/><defs><linearGradient id="a" x1="97.537" y1="28.032" x2="97.537" y2="169.986" gradientUnits="userSpaceOnUse"><stop stop-color="#3CC29A"/><stop offset="1" stop-color="#93C437"/></linearGradient></defs></svg>