<svg width="192" height="192" viewBox="0 0 192 192" fill="none" xmlns="http://www.w3.org/2000/svg"><path d="M138.26 68.177a1.25 1.25 0 0 0 1.768 1.768l-1.768-1.768Zm14.434-10.899a1.249 1.249 0 1 0-1.767-1.767l1.767 1.767Zm-12.666 65.788a1.25 1.25 0 0 0-1.768 1.768l1.768-1.768Zm10.899 14.435a1.25 1.25 0 1 0 1.767-1.768l-1.767 1.768Zm-107.7-19.697a1.251 1.251 0 0 0-.277-2.485l.276 2.485ZM18.81 100.728l1.187-.391a1.25 1.25 0 0 0-1.188-.86v1.251Zm-12.667-1.25a1.25 1.25 0 1 0 0 2.5v-2.5Zm145.666-4.222a1.25 1.25 0 0 0 0 2.5v-2.5Zm19 2.5a1.25 1.25 0 1 0 0-2.5v2.5Zm-65.444 13.527.884-.884-.884.884Zm-8.444-8.444-.884.884.884-.884Zm-8.445 8.444-.884.884.884-.884Zm8.445 8.445.883-.884-.883.884Zm-42.223-8.445.884-.884-.884.884Zm10.556 10.556-.884.884.884-.884Zm-6.28 2.164.883.884.02-.021-.904-.863Zm10.502-14.831-.884.884.884-.884Zm10.556 10.556.884-.884-.884.884ZM27.255 65.7a1.25 1.25 0 0 0 0 2.5v-2.5Zm21.111 1.25v1.25-1.25Zm23.222 2.111-.559 1.118h.001l.558-1.118Zm28.447 14.197.559-1.118-.559 1.118Zm.739 1.795-1.166-.449a1.308 1.308 0 0 0-.02.053l1.186.396Zm-14.62 6.07-.558 1.117.559-1.118ZM73.7 84.893l.56-1.118-.56 1.118Zm-1.266-6.438-1.245.113c0 .012.002.024.004.035l1.24-.148Zm-1.32 3.641.923.844.009-.01-.932-.834ZM33.588 93.34l.395-1.186-.395 1.186Zm-3.694 2.639 1.25.024v-.024h-1.25Zm-.106 5.383-1.25-.024a.96.96 0 0 0 0 .024h1.25Zm4.856 3.589v1.25-1.25Zm7.389 1.25a1.25 1.25 0 0 0 0-2.5v2.5Zm90.777-29.556a1.25 1.25 0 1 0 0-2.5v2.5Zm-5.277.862-.694-1.04-.004.003.698 1.037Zm-13.564 9.13.676 1.052.022-.015-.698-1.037Zm-4.961 1.478.038-1.25h-.038v1.25Zm-2.534-1.25a1.25 1.25 0 0 0 0 2.5v-2.5Zm26.336 32.003a1.25 1.25 0 1 0 0-2.5v2.5Zm-5.277-3.361.693-1.04-.001-.001-.692 1.041Zm-13.564-9.025.692-1.041-.016-.011-.676 1.052Zm-4.961-1.478v1.25l.038-.001-.038-1.249Zm-9.922-1.25a1.25 1.25 0 1 0 0 2.5v-2.5Zm40.942-33.808 12.666-12.667-1.767-1.767-12.667 12.666 1.768 1.768Zm-1.768 54.889 12.667 12.667 1.767-1.768-12.666-12.667-1.768 1.768Zm-95.31-9.515c-4.377.486-9.418-1.097-13.768-3.958-4.349-2.862-7.819-6.878-9.184-11.024l-2.375.782c1.59 4.826 5.51 9.254 10.185 12.33 4.675 3.076 10.295 4.924 15.418 4.355l-.276-2.485ZM18.81 99.478H6.145v2.5H18.81v-2.5Zm133-1.722h19v-2.5h-19v2.5Zm-45.56 12.643-8.445-8.444-1.767 1.768 8.444 8.444 1.768-1.768Zm-8.445-8.444c-2.81-2.81-7.401-2.81-10.212 0l1.768 1.768c1.834-1.834 4.843-1.834 6.677 0l1.767-1.768Zm-10.212 0c-2.81 2.81-2.81 7.402 0 10.212l1.768-1.768c-1.834-1.834-1.834-4.842 0-6.676l-1.768-1.768Zm0 10.212 8.445 8.445 1.767-1.768-8.444-8.445-1.768 1.768Zm8.445 8.445c2.81 2.81 7.402 2.81 10.212 0l-1.768-1.768c-1.834 1.834-4.843 1.834-6.677 0l-1.767 1.768Zm10.212 0a7.192 7.192 0 0 0 0-10.213l-1.768 1.768a4.691 4.691 0 0 1 0 6.677l1.768 1.768Zm-31.667-8.101-10.555-10.556-1.768 1.768 10.556 10.555 1.767-1.767Zm-10.555-10.556c-2.81-2.81-7.402-2.81-10.213 0l1.768 1.768c1.834-1.834 4.843-1.834 6.677 0l1.768-1.768Zm-10.213 0c-2.81 2.81-2.81 7.402 0 10.212l1.768-1.768c-1.834-1.834-1.834-4.842 0-6.676l-1.767-1.768Zm0 10.212 10.556 10.556 1.768-1.768-10.556-10.556-1.767 1.768Zm10.556 10.556c2.81 2.81 7.402 2.81 10.212 0l-1.767-1.768c-1.835 1.834-4.843 1.834-6.677 0l-1.768 1.768Zm10.212 0a7.19 7.19 0 0 0 0-10.212l-1.767 1.767a4.691 4.691 0 0 1 0 6.677l1.767 1.768Zm-14.725-8.049-6.333-6.333-1.768 1.768 6.334 6.333 1.767-1.768Zm-6.333-6.333c-2.81-2.81-7.402-2.81-10.212 0l1.767 1.768c1.834-1.834 4.843-1.834 6.677 0l1.768-1.768Zm-10.212 0c-2.81 2.811-2.81 7.402 0 10.212l1.767-1.767c-1.834-1.834-1.834-4.843 0-6.677l-1.767-1.768Zm0 10.212 6.333 6.334 1.768-1.768-6.334-6.333-1.767 1.767Zm6.333 6.334c2.81 2.81 7.402 2.81 10.212 0l-1.767-1.768c-1.835 1.834-4.843 1.834-6.677 0l-1.768 1.768Zm10.232-.021c2.713-2.839 2.808-7.363-.02-10.192l-1.767 1.768c1.816 1.816 1.805 4.787-.02 6.697l1.807 1.727Zm29.483-14.467L78.805 99.844l-1.767 1.768 10.555 10.555 1.768-1.768ZM78.805 99.844c-2.81-2.81-7.401-2.81-10.212 0l1.768 1.768c1.834-1.834 4.843-1.834 6.677 0l1.767-1.768Zm-10.212 0c-2.81 2.81-2.81 7.402 0 10.212l1.768-1.768c-1.834-1.834-1.834-4.842 0-6.676l-1.768-1.768Zm0 10.212 10.556 10.556 1.768-1.768-10.556-10.556-1.768 1.768Zm10.556 10.556c2.81 2.81 7.402 2.81 10.212 0l-1.768-1.768c-1.834 1.834-4.842 1.834-6.676 0l-1.768 1.768Zm10.212 0a7.192 7.192 0 0 0 0-10.213l-1.768 1.768a4.691 4.691 0 0 1 0 6.677l1.768 1.768ZM27.255 68.2h21.111v-2.5H27.255v2.5Zm21.111 0c6.352 0 11.05 0 14.689.26 3.64.26 6.083.774 7.974 1.72l1.118-2.237c-2.331-1.165-5.165-1.708-8.914-1.976-3.75-.268-8.552-.267-14.867-.267v2.5Zm22.664 1.98 28.447 14.197 1.117-2.237-28.448-14.197-1.116 2.237Zm28.447 14.196a.274.274 0 0 1 .115.133c.028.064.016.094.016.095l2.333.897c.523-1.358-.209-2.792-1.347-3.36l-1.117 2.235Zm.111.281c-1.766 5.3-7.86 7.855-12.874 5.347l-1.118 2.236c6.385 3.193 14.12-.059 16.364-6.792l-2.371-.79Zm-12.874 5.347-12.456-6.228-1.118 2.237 12.456 6.227 1.118-2.236Zm-12.456-6.228c-2.028-1.014-3.622-2.129-4.689-3.196-1.103-1.103-1.48-1.987-1.48-2.547h-2.5c0 1.552.94 3.043 2.213 4.315 1.308 1.308 3.144 2.567 5.338 3.665l1.118-2.237Zm-6.17-5.743c0-.443.486-1.05 1.464-1.093.422-.018.793.098 1.058.316.247.202.511.581.578 1.313l2.49-.227c-.119-1.3-.646-2.333-1.483-3.02-.818-.67-1.823-.92-2.753-.88-1.727.076-3.854 1.29-3.854 3.591h2.5Zm3.104.572c.103.86-.274 1.836-1.01 2.659l1.863 1.667c1.058-1.183 1.842-2.846 1.629-4.624l-2.482.297Zm-1.001 2.649c-7.698 8.418-15.388 11.558-21.785 12.41-6.427.854-11.654-.588-14.422-1.51l-.791 2.37c2.932.978 8.577 2.544 15.542 1.617 6.995-.93 15.217-4.36 23.3-13.2l-1.844-1.687Zm-36.208 10.9c-1.172-.392-2.485-.19-3.507.46a3.915 3.915 0 0 0-1.832 3.364h2.5c0-.592.278-1.002.674-1.255.43-.273.964-.335 1.375-.198l.79-2.372Zm-5.339 3.8-.105 5.383 2.499.049.106-5.384-2.5-.049Zm-.106 5.407c0 1.798.493 3.224 1.837 4.048 1.16.711 2.727.791 4.269.791v-2.5c-1.625 0-2.487-.131-2.962-.423-.292-.179-.644-.547-.644-1.916h-2.5Zm6.106 4.839h7.389v-2.5h-7.39v2.5Zm105.088-9.68c0 5.719-.903 10.839-2.319 14.484-.71 1.826-1.525 3.219-2.365 4.134-.84.913-1.61 1.255-2.276 1.255v2.5c1.602 0 2.992-.84 4.116-2.064 1.124-1.223 2.079-2.923 2.855-4.92 1.555-4 2.489-9.441 2.489-15.388h-2.5Zm-6.96 19.873c-.665 0-1.435-.342-2.275-1.255-.841-.915-1.655-2.308-2.365-4.134-1.417-3.645-2.32-8.765-2.32-14.483h-2.5c0 5.947.935 11.388 2.49 15.388.776 1.997 1.73 3.697 2.854 4.92 1.125 1.224 2.514 2.064 4.116 2.064v-2.5Zm-6.96-19.872c0-5.719.903-10.839 2.32-14.484.71-1.826 1.524-3.219 2.365-4.133.84-.914 1.61-1.256 2.275-1.256v-2.5c-1.602 0-2.991.84-4.116 2.064-1.124 1.223-2.078 2.924-2.854 4.92-1.555 4-2.49 9.441-2.49 15.389h2.5Zm6.96-19.873c.666 0 1.436.342 2.276 1.256.84.915 1.655 2.307 2.365 4.133 1.416 3.645 2.319 8.765 2.319 14.484h2.5c0-5.948-.934-11.389-2.489-15.39-.776-1.995-1.731-3.696-2.855-4.919-1.124-1.224-2.514-2.064-4.116-2.064v2.5Zm.038-2.504c-.564 0-1.255 0-2.242.328-.942.315-2.103.91-3.729 1.994l1.387 2.08c1.541-1.028 2.491-1.488 3.133-1.702.596-.198.96-.2 1.451-.2v-2.5Zm-5.975 2.325-13.564 9.13 1.396 2.074 13.564-9.13-1.396-2.074Zm-13.542 9.116c-1.307.84-2.804 1.323-4.247 1.28l-.076 2.498c2.04.062 4.027-.616 5.675-1.675l-1.352-2.103Zm-4.285 1.279h-2.534v2.5h2.534v-2.5Zm23.802 29.503c-.491 0-.855-.001-1.451-.2-.642-.214-1.592-.674-3.133-1.701l-1.387 2.08c1.626 1.083 2.787 1.679 3.729 1.993.987.329 1.678.328 2.242.328v-2.5Zm-4.585-1.902-13.564-9.025-1.385 2.081 13.564 9.025 1.385-2.081Zm-13.58-9.036c-1.648-1.059-3.635-1.737-5.675-1.676l.076 2.499c1.443-.044 2.94.44 4.247 1.28l1.352-2.103Zm-5.637-1.676h-9.922v2.5h9.922v-2.5Z" fill="url(#a)"/><defs><linearGradient id="a" x1="88.477" y1="56.395" x2="88.477" y2="136.617" gradientUnits="userSpaceOnUse"><stop stop-color="#3CC29A"/><stop offset="1" stop-color="#93C437"/></linearGradient></defs></svg>