<svg width="192" height="192" viewBox="0 0 192 192" fill="none" xmlns="http://www.w3.org/2000/svg"><path d="M107.006 164.2h-1.25c0 .69.56 1.25 1.25 1.25v-1.25Zm-24.81-40.615a1.25 1.25 0 1 0-2.38-.77l2.38.77Zm-4.19 8.615-1.175-.427a.74.74 0 0 0-.011.032l1.186.395Zm5 5.25a1.25 1.25 0 0 0 0-2.5v2.5Zm31-12a1.25 1.25 0 0 0 0-2.5v2.5Zm-26-24.5a1.25 1.25 0 0 0 0 2.5v-2.5Zm30 18.5a1.25 1.25 0 0 0 0-2.5v2.5Zm-26-24.5a1.25 1.25 0 0 0 0 2.5v-2.5Zm30 18.5a1.25 1.25 0 0 0 0-2.5v2.5Zm21.882 72.309a1.25 1.25 0 0 0 2.236-1.118l-2.236 1.118ZM36.603 183.85a1.25 1.25 0 0 0 0 2.5v-2.5Zm46.803-16.65 1.205-.331v-.004l-1.205.335Zm24.85-3.1a1.25 1.25 0 0 0-2.5 0h2.5ZM61.558 41.95a1.25 1.25 0 0 0 0 2.5v-2.5Zm64 2.5a1.25 1.25 0 1 0 0-2.5v2.5ZM78.808 26.2a1.25 1.25 0 0 0-2.5 0h2.5Zm-2.5 10a1.25 1.25 0 0 0 2.5 0h-2.5Zm34.5-10a1.25 1.25 0 1 0-2.5 0h2.5Zm-2.5 10a1.25 1.25 0 0 0 2.5 0h-2.5Zm16 14.964a1.25 1.25 0 0 0 2.5 0h-2.5Zm2.5 20.475a1.25 1.25 0 1 0-2.5 0h2.5Zm21.405 82.781a1.25 1.25 0 1 0 1.602 1.92l-1.602-1.92Zm-107.5 1.92a1.25 1.25 0 1 0 1.601-1.92l-1.601 1.92Zm45.53-89.644a1.25 1.25 0 0 0 2.303-.972l-2.303.972Zm-.607 6.2a1.25 1.25 0 1 0-.9-2.332l.9 2.333Zm14.3-7.172a1.25 1.25 0 1 0 2.303.972l-2.303-.972Zm3.81 4.84a1.25 1.25 0 1 0-.9 2.333l.9-2.333Zm32.061-14.08a1.25 1.25 0 1 0-2.5 0h2.5Zm-2.5 7a1.25 1.25 0 0 0 2.5 0h-2.5ZM84.006 106.95c-7.89 0-14.25 6.36-14.25 14.25h2.5c0-6.51 5.24-11.75 11.75-11.75v-2.5Zm-14.25 14.25v20h2.5v-20h-2.5Zm0 20c0 8.99 7.26 16.25 16.25 16.25v-2.5a13.73 13.73 0 0 1-13.75-13.75h-2.5Zm16.25 16.25c8.39 0 15.926-3.926 21.338-8.823 2.712-2.453 4.922-5.178 6.462-7.831 1.527-2.631 2.45-5.291 2.45-7.596h-2.5c0 1.695-.702 3.911-2.113 6.341-1.398 2.41-3.437 4.936-5.976 7.232-5.087 4.603-12.051 8.177-19.661 8.177v2.5Zm30.25-24.25c0-2.89-2.36-5.25-5.25-5.25v2.5c1.51 0 2.75 1.24 2.75 2.75h2.5Zm-5.25-5.25c-2.89 0-5.25 2.36-5.25 5.25h2.5c0-1.51 1.24-2.75 2.75-2.75v-2.5Zm-5.25 5.25v31h2.5v-31h-2.5Zm-24.75-10-1.19-.385v.001l-.001.004a.328.328 0 0 0-.005.015l-.018.057-.071.219-.26.799c-.218.671-.518 1.588-.843 2.574-.651 1.981-1.395 4.211-1.787 5.289l2.35.854c.407-1.122 1.164-3.392 1.812-5.361.326-.989.626-1.909.845-2.582l.26-.802.072-.22.019-.057a.54.54 0 0 1 .005-.015v-.004l.001-.001-1.19-.385Zm-4.186 8.605c-.596 1.788-.388 3.339.677 4.404.963.963 2.361 1.241 3.509 1.241v-2.5c-.852 0-1.455-.222-1.741-.509-.185-.185-.477-.634-.073-1.846l-2.372-.79Zm4.186 5.645h2v-2.5h-2v2.5Zm3-28c6.425 0 10.09 3.607 14.116 7.634l1.768-1.768c-3.973-3.973-8.31-8.366-15.884-8.366v2.5Zm14.116 7.634c3.973 3.973 8.309 8.366 15.884 8.366v-2.5c-6.426 0-10.089-3.607-14.116-7.634l-1.768 1.768ZM88.006 103.45c6.425 0 10.09 3.607 14.116 7.634l1.768-1.768c-3.973-3.973-8.31-8.366-15.884-8.366v2.5Zm14.116 7.634c3.973 3.973 8.309 8.366 15.884 8.366v-2.5c-6.426 0-10.089-3.607-14.116-7.634l-1.768 1.768ZM92.006 97.45c6.425 0 10.089 3.607 14.116 7.634l1.768-1.768c-3.973-3.973-8.31-8.366-15.884-8.366v2.5Zm14.116 7.634c3.973 3.973 8.309 8.366 15.884 8.366v-2.5c-6.426 0-10.089-3.607-14.116-7.634l-1.768 1.768Zm40.002 79.557c-5.088-10.176-10.754-15.649-16.288-18.548-5.525-2.894-10.774-3.143-14.83-3.143v2.5c3.944 0 8.694.251 13.67 2.857 4.965 2.601 10.3 7.628 15.212 17.452l2.236-1.118Zm-31.118-21.691h-8v2.5h8v-2.5Zm-78.403 23.4c9.661 0 13.818-5.767 18.205-10.942 2.214-2.611 4.49-5.099 7.584-6.955 3.07-1.841 7.018-3.103 12.614-3.103v-2.5c-6.004 0-10.406 1.363-13.9 3.459-3.47 2.082-5.968 4.844-8.205 7.483-4.515 5.325-7.96 10.058-16.298 10.058v2.5Zm38.403-21h4.5v-2.5h-4.5v2.5Zm4.5 0c1.27 0 2.326.856 2.695 2.185l2.41-.67c-.632-2.271-2.575-4.015-5.105-4.015v2.5Zm2.694 2.181c1.542 5.615 6.615 9.819 12.806 9.819v-2.5c-5.01 0-9.136-3.396-10.395-7.981l-2.41.662Zm12.806 9.819c7.29 0 13.25-5.96 13.25-13.25h-2.5c0 5.91-4.841 10.75-10.75 10.75v2.5Zm22.552-147.4h-48v2.5h48v-2.5Zm-48 0c-5.09 0-9.25 4.16-9.25 9.25h2.5c0-3.71 3.04-6.75 6.75-6.75v-2.5Zm-9.25 9.25v36h2.5v-36h-2.5Zm0 36c0 5.09 4.16 9.25 9.25 9.25v-2.5c-3.71 0-6.75-3.04-6.75-6.75h-2.5Zm9.25 9.25h48v-2.5h-48v2.5Zm48 0c5.091 0 9.25-4.16 9.25-9.25h-2.5c0 3.71-3.04 6.75-6.75 6.75v2.5Zm9.25-45.25c0-5.08-4.049-9.25-9.25-9.25v2.5c3.8 0 6.75 3.03 6.75 6.75h2.5Zm-50.5-13v10h2.5v-10h-2.5Zm32 0v10h2.5v-10h-2.5Zm18.5 24.964V39.2h-2.5v11.964h2.5Zm0 24.036v-3.56h-2.5v3.56h2.5ZM12.548 90.871c0-45.682 37.034-82.715 82.716-82.715v-2.5c-47.063 0-85.215 38.152-85.215 85.215h2.5ZM95.265 8.156c45.682 0 82.715 37.033 82.715 82.715h2.5c0-47.063-38.152-85.215-85.215-85.215v2.5Zm82.715 82.715c0 25.539-11.573 48.374-29.766 63.549l1.602 1.92c18.737-15.63 30.664-39.157 30.664-65.469h-2.5ZM42.314 154.42C24.122 139.245 12.55 116.41 12.55 90.871h-2.5c0 26.312 11.926 49.839 30.664 65.469l1.601-1.92ZM72.18 68.845c0-3.332 3.103-6.28 7.25-6.28v-2.5c-5.233 0-9.75 3.79-9.75 8.78h2.5Zm7.25-6.28c3.197 0 5.822 1.782 6.813 4.13l2.303-.97c-1.422-3.372-5.023-5.66-9.116-5.66v2.5Zm5.306 8c-2.149.829-5.479 1.057-8.281.602-1.397-.227-2.55-.606-3.318-1.08-.767-.473-.957-.904-.957-1.242h-2.5c0 1.55.99 2.658 2.145 3.37 1.153.712 2.662 1.165 4.23 1.42 3.123.507 6.92.288 9.581-.738l-.9-2.333Zm-2.546-13.25a2.75 2.75 0 0 1-2.75 2.75v2.5c2.9 0 5.25-2.35 5.25-5.25h-2.5Zm-2.75 2.75a2.75 2.75 0 0 1-2.75-2.75h-2.5c0 2.9 2.35 5.25 5.25 5.25v-2.5Zm-2.75-2.75a2.75 2.75 0 0 1 2.75-2.75v-2.5a5.25 5.25 0 0 0-5.25 5.25h2.5Zm2.75-2.75a2.75 2.75 0 0 1 2.75 2.75h2.5c0-2.9-2.35-5.25-5.25-5.25v2.5Zm39.362 14.28c0-4.99-4.517-8.78-9.75-8.78v2.5c4.147 0 7.25 2.948 7.25 6.28h2.5Zm-9.75-8.78c-4.093 0-7.694 2.288-9.117 5.66l2.304.97c.991-2.348 3.616-4.13 6.813-4.13v-2.5Zm-6.206 12.832c2.66 1.026 6.458 1.245 9.582.738 1.566-.255 3.075-.709 4.229-1.42 1.155-.712 2.145-1.82 2.145-3.37h-2.5c0 .338-.19.769-.957 1.242-.768.474-1.922.853-3.318 1.08-2.802.455-6.132.227-8.281-.603l-.9 2.333Zm.946-15.582a5.25 5.25 0 0 0 5.25 5.25v-2.5a2.75 2.75 0 0 1-2.75-2.75h-2.5Zm5.25 5.25c2.9 0 5.25-2.35 5.25-5.25h-2.5a2.75 2.75 0 0 1-2.75 2.75v2.5Zm5.25-5.25c0-2.9-2.35-5.25-5.25-5.25v2.5a2.75 2.75 0 0 1 2.75 2.75h2.5Zm-5.25-5.25a5.25 5.25 0 0 0-5.25 5.25h2.5a2.75 2.75 0 0 1 2.75-2.75v-2.5Zm-11.08 6.729a3.75 3.75 0 0 1-3.75 3.75v2.5a6.25 6.25 0 0 0 6.25-6.25h-2.5Zm-3.75 3.75a3.75 3.75 0 0 1-3.75-3.75h-2.5a6.25 6.25 0 0 0 6.25 6.25v-2.5Zm-3.75-3.75a3.75 3.75 0 0 1 3.75-3.75v-2.5a6.25 6.25 0 0 0-6.25 6.25h2.5Zm3.75-3.75a3.75 3.75 0 0 1 3.75 3.75h2.5a6.25 6.25 0 0 0-6.25-6.25v2.5Zm7.75 16.72c0 .52-.438 1.228-2.025 1.86-1.495.594-3.576.918-5.725.918-2.15 0-4.23-.324-5.726-.919-1.587-.631-2.024-1.338-2.024-1.859h-2.5c0 2.164 1.812 3.47 3.6 4.182 1.88.748 4.3 1.096 6.65 1.096 2.35 0 4.77-.348 6.649-1.096 1.789-.711 3.601-2.018 3.601-4.182h-2.5Zm-15.5 0c0-3.58 3.302-6.75 7.75-6.75v-2.5c-5.553 0-10.25 4.03-10.25 9.25h2.5Zm7.75-6.75c4.447 0 7.75 3.17 7.75 6.75h2.5c0-5.22-4.698-9.25-10.25-9.25v2.5Zm52.095-3.53c0 6.489-5.26 11.75-11.75 11.75v2.5c7.87 0 14.25-6.38 14.25-14.25h-2.5Zm-11.75 11.75c-6.489 0-11.75-5.261-11.75-11.75h-2.5c0 7.87 6.38 14.25 14.25 14.25v-2.5Zm-11.75-11.75c0-6.49 5.261-11.75 11.75-11.75v-2.5c-7.87 0-14.25 6.38-14.25 14.25h2.5Zm11.75-11.75c6.49 0 11.75 5.26 11.75 11.75h2.5c0-7.87-6.38-14.25-14.25-14.25v2.5Zm-1.25 6.75v7h2.5v-7h-2.5ZM61.558 44.45h64v-2.5h-64v2.5Z" fill="url(#a)"/><path d="M91.076 126.123a2 2 0 1 0 0-4 2 2 0 0 0 0 4Z" fill="url(#b)"/><path d="M134.557 68.758a1.524 1.524 0 1 0 0-3.048 1.524 1.524 0 0 0 0 3.048Z" fill="url(#c)"/><defs><linearGradient id="a" x1="95.264" y1="6.906" x2="95.264" y2="185.2" gradientUnits="userSpaceOnUse"><stop stop-color="#FFBE4F"/><stop offset="1" stop-color="#93C437"/></linearGradient><linearGradient id="b" x1="91.076" y1="122.123" x2="91.076" y2="126.123" gradientUnits="userSpaceOnUse"><stop stop-color="#FFBE4F"/><stop offset="1" stop-color="#93C437"/></linearGradient><linearGradient id="c" x1="134.557" y1="65.71" x2="134.557" y2="68.758" gradientUnits="userSpaceOnUse"><stop stop-color="#FFBE4F"/><stop offset="1" stop-color="#93C437"/></linearGradient></defs></svg>