<svg width="192" height="192" viewBox="0 0 192 192" fill="none" xmlns="http://www.w3.org/2000/svg"><path d="M142.645 164.2h-1.25c0 .69.559 1.25 1.25 1.25v-1.25Zm-24.811-40.615a1.25 1.25 0 0 0-2.379-.77l2.379.77Zm-4.189 8.615-1.175-.427a.3.3 0 0 0-.011.032l1.186.395Zm5 5.25a1.25 1.25 0 0 0 0-2.5v2.5Zm31-12a1.25 1.25 0 0 0 0-2.5v2.5Zm-26-24.5a1.25 1.25 0 1 0 0 2.5v-2.5Zm30 18.5a1.25 1.25 0 0 0 0-2.5v2.5Zm-26-24.5a1.25 1.25 0 1 0 0 2.5v-2.5Zm30 18.5a1.25 1.25 0 0 0 0-2.5v2.5Zm-97.75-8.25a1.25 1.25 0 0 0-2.5 0h2.5Zm-47.25 64.75a1.25 1.25 0 0 0 0 2.5v-2.5Zm15-13.75v-1.25c-.69 0-1.25.56-1.25 1.25h1.25Zm151.882 29.559a1.249 1.249 0 1 0 2.236-1.118l-2.236 1.118ZM37.645 138.2h1.25c0-.69-.56-1.25-1.25-1.25v1.25Zm112.173 14.063a1.25 1.25 0 1 0 1.654 1.874l-1.654-1.874ZM178.645 91.6l-1.25-.006v.001l1.25.005Zm-78.3-84.2.084-1.247h-.003l-.081 1.247Zm-83.1 116.5-1.153.484v.001l1.152-.485Zm4.8 2.2.376 1.192.019-.006-.396-1.186Zm2.7-3.3 1.24.155.003-.024-1.244-.131Zm22.4-20.7.02 1.25h.002l-.023-1.25Zm23.5 18 1.185-.395v-.003l-1.186.398Zm3 9-1.186.395 1.185-.395Zm45.4 38.1 1.205-.331-.001-.004-1.204.335Zm24.85-3.1a1.25 1.25 0 0 0-2.5 0h2.5ZM62.645 41.95a1.25 1.25 0 0 0 0 2.5v-2.5Zm64 2.5a1.25 1.25 0 0 0 0-2.5v2.5ZM79.895 26.2a1.25 1.25 0 0 0-2.5 0h2.5Zm-2.5 10a1.25 1.25 0 0 0 2.5 0h-2.5Zm34.5-10a1.25 1.25 0 0 0-2.5 0h2.5Zm-2.5 10a1.25 1.25 0 1 0 2.5 0h-2.5Zm10.25 70.75c-7.891 0-14.25 6.36-14.25 14.25h2.5c0-6.51 5.24-11.75 11.75-11.75v-2.5Zm-14.25 14.25v20h2.5v-20h-2.5Zm0 20c0 8.99 7.259 16.25 16.25 16.25v-2.5a13.73 13.73 0 0 1-13.75-13.75h-2.5Zm16.25 16.25c8.39 0 15.926-3.926 21.338-8.823 2.712-2.453 4.922-5.178 6.461-7.831 1.527-2.631 2.451-5.291 2.451-7.596h-2.5c0 1.695-.702 3.911-2.113 6.341-1.398 2.41-3.438 4.936-5.976 7.232-5.088 4.603-12.052 8.177-19.661 8.177v2.5Zm30.25-24.25c0-2.89-2.36-5.25-5.25-5.25v2.5c1.509 0 2.75 1.24 2.75 2.75h2.5Zm-5.25-5.25a5.262 5.262 0 0 0-5.25 5.25h2.5c0-1.51 1.24-2.75 2.75-2.75v-2.5Zm-5.25 5.25v31h2.5v-31h-2.5Zm-24.75-10-1.19-.385v.001l-.001.004-.005.015-.019.057-.071.219-.259.799c-.219.671-.518 1.588-.843 2.574-.652 1.981-1.395 4.211-1.787 5.289l2.349.854c.408-1.122 1.165-3.392 1.813-5.361.325-.989.626-1.909.845-2.582l.26-.802.072-.22.018-.057.005-.015.001-.004.001-.001-1.189-.385Zm-4.186 8.605c-.596 1.788-.388 3.339.677 4.404.963.963 2.361 1.241 3.509 1.241v-2.5c-.853 0-1.455-.222-1.742-.509-.185-.185-.477-.634-.073-1.846l-2.371-.79Zm4.186 5.645h2v-2.5h-2v2.5Zm3-28c6.425 0 10.089 3.607 14.116 7.634l1.767-1.768c-3.973-3.973-8.309-8.366-15.883-8.366v2.5Zm14.116 7.634c3.973 3.973 8.309 8.366 15.884 8.366v-2.5c-6.426 0-10.09-3.607-14.117-7.634l-1.767 1.768Zm-10.116-13.634c6.425 0 10.089 3.607 14.116 7.634l1.767-1.768c-3.973-3.973-8.309-8.366-15.883-8.366v2.5Zm14.116 7.634c3.973 3.973 8.309 8.366 15.884 8.366v-2.5c-6.426 0-10.09-3.607-14.117-7.634l-1.767 1.768ZM127.645 97.45c6.425 0 10.089 3.607 14.116 7.634l1.767-1.768c-3.973-3.973-8.309-8.366-15.883-8.366v2.5Zm14.116 7.634c3.973 3.973 8.309 8.366 15.884 8.366v-2.5c-6.426 0-10.09-3.607-14.117-7.634l-1.767 1.768ZM37.644 127.45c12.29 0 22.25-9.96 22.25-22.25h-2.5c0 10.91-8.84 19.75-19.75 19.75v2.5Zm-25 45c8.99 0 16.25-7.26 16.25-16.25h-2.5c0 7.61-6.14 13.75-13.75 13.75v2.5Zm169.119 12.191c-5.088-10.176-10.754-15.649-16.288-18.548-5.525-2.894-10.774-3.143-14.83-3.143v2.5c3.944 0 8.694.251 13.67 2.857 4.965 2.601 10.3 7.628 15.212 17.452l2.236-1.118Zm-31.118-21.691h-8v2.5h8v-2.5Zm-113-38c-3.99 0-7.25 3.26-7.25 7.25h2.5c0-2.61 2.14-4.75 4.75-4.75v-2.5Zm-7.25 7.25c0 3.99 3.26 7.25 7.25 7.25v-2.5c-2.61 0-4.75-2.14-4.75-4.75h-2.5Zm6 6v8h2.5v-8h-2.5Zm0 8c0 4.81-3.94 8.75-8.75 8.75v2.5c6.19 0 11.25-5.06 11.25-11.25h-2.5Zm115.077 7.937c17.25-15.221 28.321-36.953 28.423-62.532l-2.5-.01c-.099 24.821-10.828 45.889-27.577 60.668l1.654 1.874Zm28.423-62.531c.202-45.259-34.307-82.409-79.466-85.453l-.169 2.494c43.841 2.956 77.332 39.006 77.135 82.947l2.5.012ZM100.426 6.153C50.802 2.905 9.395 42.28 9.395 91.2h2.5c0-47.481 40.192-85.705 88.368-82.553l.163-2.494ZM9.395 91.2a85.724 85.724 0 0 0 6.697 33.184l2.305-.968A83.23 83.23 0 0 1 11.895 91.2h-2.5Zm6.698 33.185c1.06 2.518 3.836 3.694 6.328 2.907l-.753-2.384c-1.308.413-2.732-.211-3.271-1.493l-2.304.97Zm6.347 2.901c1.954-.651 3.285-2.25 3.545-4.331l-2.48-.31c-.14 1.12-.81 1.92-1.856 2.269l.79 2.372Zm3.548-4.355c1.136-10.794 10.131-19.392 21.178-19.581l-.043-2.5c-12.353.211-22.358 9.813-23.622 21.819l2.487.262Zm21.179-19.581c5.361-.096 9.927 1.289 13.636 4.097 3.716 2.814 6.666 7.129 8.657 13.051l2.37-.796c-2.11-6.278-5.31-11.063-9.518-14.249-4.217-3.192-9.351-4.707-15.19-4.603l.045 2.5Zm22.292 17.145 3 9 2.371-.79-3-9-2.371.79Zm3 9c.955 2.866.563 4.101.185 4.605-.392.523-1.133.75-2 .75v2.5c1.134 0 2.893-.273 4-1.75 1.123-1.496 1.231-3.761.186-6.895l-2.371.79Zm-1.815 5.355h-2v2.5h2v-2.5Zm-2 0c-1.79 0-3.25 1.46-3.25 3.25h2.5c0-.41.34-.75.75-.75v-2.5Zm-3.25 3.25v7.8h2.5v-7.8h-2.5Zm0 7.8c0 4.355-3.484 7.95-7.65 7.95v2.5c5.635 0 10.15-4.805 10.15-10.45h-2.5Zm-7.65 7.95c-9.28 0-16.85 7.449-16.85 16.75h2.5c0-7.899 6.43-14.25 14.35-14.25v-2.5Zm-16.85 16.75c0 4.631 1.758 8.594 4.776 11.392 3.01 2.79 7.2 4.358 11.974 4.358v-2.5c-4.225 0-7.784-1.382-10.274-3.692-2.483-2.302-3.975-5.589-3.975-9.558h-2.5Zm16.75 15.75c9.506 0 15.646-5.605 22.734-10.738 7.136-5.167 15.63-10.262 30.267-10.262v-2.5c-15.365 0-24.37 5.405-31.734 10.738-7.412 5.367-12.772 10.262-21.267 10.262v2.5Zm53.001-21h4.5v-2.5h-4.5v2.5Zm4.5 0c1.269 0 2.326.856 2.695 2.185l2.409-.67c-.631-2.271-2.574-4.015-5.104-4.015v2.5Zm2.694 2.181c1.542 5.615 6.615 9.819 12.806 9.819v-2.5c-5.01 0-9.137-3.396-10.395-7.981l-2.411.662Zm12.806 9.819c7.29 0 13.25-5.96 13.25-13.25h-2.5c0 5.91-4.841 10.75-10.75 10.75v2.5Zm-12-147.4h-48v2.5h48v-2.5Zm-48 0c-5.09 0-9.25 4.16-9.25 9.25h2.5c0-3.71 3.04-6.75 6.75-6.75v-2.5Zm-9.25 9.25v36h2.5v-36h-2.5Zm0 36c0 5.09 4.16 9.25 9.25 9.25v-2.5c-3.71 0-6.75-3.04-6.75-6.75h-2.5Zm9.25 9.25h48v-2.5h-48v2.5Zm48 0c5.09 0 9.25-4.16 9.25-9.25h-2.5c0 3.71-3.041 6.75-6.75 6.75v2.5Zm9.25-9.25v-36h-2.5v36h2.5Zm0-36c0-5.08-4.05-9.25-9.25-9.25v2.5c3.799 0 6.75 3.03 6.75 6.75h2.5Zm-50.5-13v10h2.5v-10h-2.5Zm32 0v10h2.5v-10h-2.5Zm-46.75 18.25h32v-2.5h-32v2.5Zm32 0h32v-2.5h-32v2.5Z" fill="url(#a)"/><path d="M61.645 125.2a2 2 0 1 0 0-4 2 2 0 0 0 0 4ZM126.645 127.2a2 2 0 1 0 0-4 2 2 0 0 0 0 4Z" fill="#F7872F"/><defs><linearGradient id="a" x1="95.644" y1="7.215" x2="95.644" y2="185.2" gradientUnits="userSpaceOnUse"><stop stop-color="#FFBE4F"/><stop offset="1" stop-color="#F26B1D"/></linearGradient></defs></svg>