<svg width="120" height="120" viewBox="0 0 120 120" fill="none" xmlns="http://www.w3.org/2000/svg"><path d="M80.116 49.2a1.25 1.25 0 1 0-2.5 0h2.5ZM54.578 76.372a1.25 1.25 0 1 0-1.424 2.056l1.423-2.056Zm-7.664-5.587a1.25 1.25 0 0 0 2.304-.97l-2.304.97ZM77.616 40.3a1.25 1.25 0 0 0 2.5 0h-2.5Zm5.25 65.15a1.25 1.25 0 0 0 0-2.5v2.5Zm4 0a1.25 1.25 0 0 0 0-2.5v2.5Zm-48-2.5a1.25 1.25 0 0 0 0 2.5v-2.5Zm64.884-85.866a1.25 1.25 0 0 0-1.768-1.768l1.768 1.768ZM21.982 95.316a1.25 1.25 0 0 0 1.768 1.768l-1.768-1.768ZM77.616 49.2v15h2.5v-15h-2.5Zm0 15c0 8.11-6.64 14.75-14.75 14.75v2.5c9.49 0 17.25-7.76 17.25-17.25h-2.5Zm-14.75 14.75a14.48 14.48 0 0 1-8.288-2.578l-1.424 2.056a16.98 16.98 0 0 0 9.712 3.022v-2.5Zm-13.648-9.135a14.054 14.054 0 0 1-1.102-5.515h-2.5c0 2.263.432 4.429 1.298 6.485l2.304-.97ZM48.116 64.3v-32h-2.5v32h2.5Zm0-32c0-8.11 6.64-14.75 14.75-14.75v-2.5c-9.49 0-17.25 7.76-17.25 17.25h2.5Zm14.75-14.75c8.11 0 14.75 6.64 14.75 14.75h2.5c0-9.49-7.76-17.25-17.25-17.25v2.5Zm14.75 14.75v8h2.5v-8h-2.5Zm5.25 70.65c-10.31 0-18.75-8.44-18.75-18.75h-2.5c0 11.69 9.56 21.25 21.25 21.25v-2.5ZM64.116 84.2v-4h-2.5v4h2.5Zm22.75 18.75h-48v2.5h48v-2.5Zm15.116-87.634-80 80 1.768 1.768 80-80-1.768-1.768Z" fill="url(#a)"/><defs><linearGradient id="a" x1="62.866" y1="16.2" x2="62.866" y2="104.2" gradientUnits="userSpaceOnUse"><stop stop-color="#3CC29A"/><stop offset="1" stop-color="#93C437"/></linearGradient></defs></svg>