<svg width="120" height="120" viewBox="0 0 120 120" fill="none" xmlns="http://www.w3.org/2000/svg"><path d="M63.692 45.616a1.25 1.25 0 0 0-1.767 1.768l1.767-1.768Zm8.238 10.006.884.884a1.25 1.25 0 0 0 0-1.768l-.884.884Zm-10.005 8.235a1.25 1.25 0 1 0 1.767 1.768l-1.767-1.768Zm9.195-6.972a1.25 1.25 0 1 0 0-2.5v2.5Zm-26.186-1.25v1.25-1.25Zm-3.233 3.224 1.25.004-1.25-.004Zm-.102 32.201 1.25.006v-.002l-1.25-.004Zm-4.927 4.882-.006 1.25.006-1.25Zm-18.74-.092-.008 1.25h.001l.006-1.25Zm-4.879-4.927-1.25-.006 1.25.006Zm.22-44.979 1.25.006-1.25-.006Zm4.926-4.881-.006 1.25h.006v-1.25Zm12.568 1.25a1.25 1.25 0 1 0 0-2.5v2.5Zm10.986 37.97a1.25 1.25 0 0 0 0 2.5v-2.5Zm60.035 1.25v1.25-1.25Zm5.159-5.162h-1.25 1.25Zm0-47.15h1.25v-.004l-1.25.004Zm-5.163-5.163.004-1.25h-.004v1.25Zm-67.093 0v-1.25h-.002l.002 1.25Zm-5.173 5.163-1.25-.004v.004h1.25Zm0 11.842h-1.25c0 .69.56 1.25 1.25 1.25v-1.25Zm7.419 0 .025-1.25h-.025v1.25Zm4.881 5.019 1.25.015v-.006l-1.25-.01Zm-1.289 3.192a1.25 1.25 0 0 0 2.5.03l-2.5-.03Zm21.396-1.89 9.121 9.122 1.768-1.768-9.122-9.122-1.767 1.768Zm9.122 7.354-9.122 9.119 1.767 1.768 9.122-9.119-1.767-1.768Zm-45.14 31.323a3.406 3.406 0 0 1-3.405 3.406v2.5a5.906 5.906 0 0 0 5.906-5.906h-2.5Zm-3.405 3.406a3.406 3.406 0 0 1-3.406-3.406h-2.5a5.906 5.906 0 0 0 5.906 5.906v-2.5Zm-3.406-3.406a3.406 3.406 0 0 1 3.406-3.406v-2.5a5.906 5.906 0 0 0-5.906 5.906h2.5Zm3.406-3.406a3.406 3.406 0 0 1 3.406 3.406h2.5a5.906 5.906 0 0 0-5.906-5.906v2.5Zm48.618-28.27H44.934v2.5H71.12v-2.5Zm-26.186 0c-1.187 0-2.325.47-3.165 1.309l1.765 1.77c.371-.37.875-.579 1.4-.579v-2.5Zm-3.165 1.309a4.483 4.483 0 0 0-1.319 3.161l2.5.008a1.983 1.983 0 0 1 .584-1.399l-1.765-1.77Zm-1.319 3.161-.1 32.201 2.5.008.1-32.201-2.5-.008Zm-.1 32.2c-.003.48-.1.954-.285 1.397l2.305.967a6.156 6.156 0 0 0 .48-2.353l-2.5-.011Zm-.285 1.397a3.655 3.655 0 0 1-.798 1.181l1.76 1.776a6.155 6.155 0 0 0 1.343-1.99l-2.305-.967Zm-.798 1.181c-.341.338-.745.606-1.19.787l.947 2.314a6.155 6.155 0 0 0 2.002-1.325l-1.76-1.776Zm-1.19.787c-.444.182-.92.274-1.4.272l-.01 2.5a6.154 6.154 0 0 0 2.356-.458l-.945-2.314Zm-1.399.272-18.74-.092-.013 2.5 18.74.092.013-2.5Zm-18.74-.092a3.654 3.654 0 0 1-2.578-1.083l-1.776 1.759a6.155 6.155 0 0 0 4.34 1.824l.014-2.5Zm-2.578-1.083a3.654 3.654 0 0 1-1.057-2.588l-2.5-.012a6.154 6.154 0 0 0 1.78 4.359l1.777-1.759Zm-1.057-2.588.22-44.979-2.5-.012-.22 44.979 2.5.012Zm.22-44.979c.001-.48.098-.954.284-1.397l-2.306-.967a6.156 6.156 0 0 0-.479 2.353l2.5.011Zm.284-1.397c.185-.442.457-.844.797-1.182l-1.76-1.776a6.157 6.157 0 0 0-1.342 1.99l2.305.968Zm.797-1.182c.341-.338.745-.605 1.19-.786l-.946-2.315a6.154 6.154 0 0 0-2.003 1.325l1.76 1.776Zm1.19-.786c.444-.182.92-.274 1.4-.272l.011-2.5a6.154 6.154 0 0 0-2.357.457l.946 2.315Zm1.405-.272h12.568v-2.5H18.2v2.5Zm23.554 40.47h60.035v-2.5H41.753v2.5Zm60.035 0a6.414 6.414 0 0 0 4.532-1.88l-1.768-1.767a3.912 3.912 0 0 1-2.765 1.147l.001 2.5Zm4.532-1.88a6.412 6.412 0 0 0 1.877-4.532h-2.5a3.913 3.913 0 0 1-1.145 2.765l1.768 1.767Zm1.877-4.532V29.22h-2.5v47.15h2.5Zm0-47.154a6.43 6.43 0 0 0-1.883-4.526l-1.768 1.768a3.927 3.927 0 0 1 1.151 2.766l2.5-.008Zm-1.883-4.526a6.43 6.43 0 0 0-4.526-1.883l-.008 2.5a3.93 3.93 0 0 1 2.766 1.151l1.768-1.768Zm-4.53-1.883H34.691v2.5h67.093v-2.5Zm-67.095 0c-1.7.002-3.33.678-4.533 1.879l1.766 1.77a3.929 3.929 0 0 1 2.77-1.149l-.003-2.5Zm-4.533 1.879a6.429 6.429 0 0 0-1.888 4.53l2.5.008a3.93 3.93 0 0 1 1.154-2.769l-1.766-1.769Zm-1.888 4.534v11.842h2.5V29.221h-2.5Zm1.25 13.092h7.419v-2.5h-7.419v2.5Zm7.393 0c.982.02 1.916.425 2.6 1.13l1.792-1.744a6.233 6.233 0 0 0-4.34-1.886l-.052 2.5Zm2.6 1.13a3.733 3.733 0 0 1 1.057 2.63l2.5.018a6.232 6.232 0 0 0-1.764-4.392l-1.793 1.743Zm1.057 2.623-.039 3.208 2.5.03.04-3.207-2.5-.03Z" fill="url(#a)"/><defs><linearGradient id="a" x1="60" y1="24.058" x2="60" y2="95.942" gradientUnits="userSpaceOnUse"><stop stop-color="#FFBE4F"/><stop offset="1" stop-color="#93C437"/></linearGradient></defs></svg>