<svg width="120" height="120" viewBox="0 0 120 120" fill="none" xmlns="http://www.w3.org/2000/svg"><path d="M96 22.75H72a1.25 1.25 0 0 0 0 2.5h20.983L71.116 47.116c-18.053 18.052-14.67 31.008-13.203 34.55a14.782 14.782 0 0 0 2.654 4.242l-.8.8a7.065 7.065 0 0 1-7.692 1.527 37.228 37.228 0 0 1-20.968-22.01 7.091 7.091 0 0 1 1.662-7.342l4.29-4.29a11.914 11.914 0 0 0 0-16.827l-7.53-7.53a11.913 11.913 0 0 0-16.829 0l-2.457 2.456a11.952 11.952 0 0 0-3.492 8.462 71.751 71.751 0 0 0 70.394 72.096 11.807 11.807 0 0 0 8.288-3.49l3.395-3.397a11.894 11.894 0 0 0 2.58-12.967 11.898 11.898 0 0 0-2.58-3.86 1.25 1.25 0 0 0-1.768 1.767 9.4 9.4 0 0 1 0 13.293l-3.395 3.396a9.223 9.223 0 0 1-6.712 2.755A69.253 69.253 0 0 1 9.251 41.165a9.468 9.468 0 0 1 2.76-6.705l2.457-2.457a9.41 9.41 0 0 1 13.293 0l7.53 7.53a9.41 9.41 0 0 1 0 13.293L31 57.116a9.6 9.6 0 0 0-2.251 9.942A39.731 39.731 0 0 0 51.129 90.55a9.56 9.56 0 0 0 10.406-2.073l.858-.857a18.569 18.569 0 0 0 11.67 3.631c3.73 0 6.877-1.78 8.018-4.537a4.996 4.996 0 0 0-1.134-5.597 10.789 10.789 0 0 0-3.66-2.082c-1.345-.448-2.576-.54-4.179-.523a12.75 12.75 0 0 0-8.637 3.494l-2.124 2.124a12.22 12.22 0 0 1-2.124-3.42c-4.14-9.991 3.827-22.99 12.66-31.825L94.75 27.018V48a1.25 1.25 0 0 0 2.5 0V24A1.25 1.25 0 0 0 96 22.75ZM66.238 83.773a10.236 10.236 0 0 1 6.94-2.763c2.269-.082 4.322.49 6.002 1.874a2.506 2.506 0 0 1 .591 2.873c-.617 1.49-2.62 2.993-5.708 2.993a16.277 16.277 0 0 1-9.876-2.926l2.051-2.051Z" fill="url(#a)"/><defs><linearGradient id="a" x1="52" y1="22.75" x2="52" y2="113.25" gradientUnits="userSpaceOnUse"><stop stop-color="#F55868"/><stop offset="1" stop-color="#875AE0"/></linearGradient></defs></svg>