<svg width="121" height="120" viewBox="0 0 121 120" fill="none" xmlns="http://www.w3.org/2000/svg"><path d="M78.248 62.2s2.2 6.8 3 9c1 3-1 4-3 4h-2m-38.9-2.7c-5.6-5.8-9-13.6-9-22.2 0-17.7 14.3-32 32-32s32 14.3 32 32m-34 7.9c0-7.2 5.8-13 13-13h3.9c7.2 0 13 5.8 13 13v20c0 8.2-6.5 14.9-14.7 15-15.8.2-28.8-14.4-29.3-22.6-.1-2.1 1.5-4.2 3.6-4.4 2.4-.2 4.4 1.6 4.4 4v31" stroke="#fff" stroke-width="2.5" stroke-miterlimit="10" stroke-linecap="round" stroke-linejoin="round"/><path d="M68.249 66.2a2 2 0 1 0 0-4 2 2 0 0 0 0 4Z" fill="#fff"/></svg>