<svg width="193" height="192" viewBox="0 0 193 192" fill="none" xmlns="http://www.w3.org/2000/svg"><path d="M126.694 119.75h-2a1.25 1.25 0 0 0 0 2.5h2c2.417 0 4.141-.691 5.123-2.056 1.194-1.654 1.214-4.137.063-7.59l-4-12a1.249 1.249 0 0 0-1.097-.852 1.247 1.247 0 0 0-1.207.689 1.249 1.249 0 0 0-.067.954l4 12c.853 2.562.951 4.408.281 5.337-.487.676-1.528 1.018-3.096 1.018Z" fill="url(#a)"/><path d="M96.697 30.75a51.258 51.258 0 0 0-22.55 97.284 1.237 1.237 0 0 0 .957.065 1.23 1.23 0 0 0 .722-.633 1.251 1.251 0 0 0-.578-1.676 48.752 48.752 0 0 1-21.78-66.34A48.755 48.755 0 0 1 145.448 82a1.252 1.252 0 0 0 2.134.884c.235-.234.366-.552.366-.884a51.306 51.306 0 0 0-51.25-51.25Z" fill="url(#b)"/><path d="M122.697 70.75h-6A21.273 21.273 0 0 0 95.447 92a1.25 1.25 0 0 0 2.5 0 18.772 18.772 0 0 1 18.75-18.75h6A18.77 18.77 0 0 1 141.447 92v34a23.775 23.775 0 0 1-23.75 23.75c-11.513 0-22.112-6.947-29.75-15.996V106a7.251 7.251 0 0 0-14.5 0c0 8.798 4.565 19.645 12 28.678V160a1.25 1.25 0 0 0 2.5 0v-22.472c8.77 9.38 19.521 14.722 29.75 14.722a26.28 26.28 0 0 0 26.25-26.25V92a21.272 21.272 0 0 0-21.25-21.25Zm-37.25 59.826c-5.91-8.068-9.5-17.262-9.5-24.576a4.75 4.75 0 0 1 9.5 0v24.576Z" fill="url(#c)"/><path d="M114.695 107a2 2 0 1 0 0-4 2 2 0 0 0 0 4Z" fill="url(#d)"/><defs><linearGradient id="a" x1="96.697" y1="30.75" x2="96.697" y2="161.25" gradientUnits="userSpaceOnUse"><stop stop-color="#F55868"/><stop offset="1" stop-color="#875AE0"/></linearGradient><linearGradient id="b" x1="96.697" y1="30.75" x2="96.697" y2="161.25" gradientUnits="userSpaceOnUse"><stop stop-color="#F55868"/><stop offset="1" stop-color="#875AE0"/></linearGradient><linearGradient id="c" x1="96.697" y1="30.75" x2="96.697" y2="161.25" gradientUnits="userSpaceOnUse"><stop stop-color="#F55868"/><stop offset="1" stop-color="#875AE0"/></linearGradient><linearGradient id="d" x1="114.695" y1="103" x2="114.695" y2="107" gradientUnits="userSpaceOnUse"><stop stop-color="#F55868"/><stop offset="1" stop-color="#875AE0"/></linearGradient></defs></svg>