<svg width="121" height="120" viewBox="0 0 121 120" fill="none" xmlns="http://www.w3.org/2000/svg"><path d="M79.438 61.815a1.25 1.25 0 0 0-2.379.77l2.379-.77Zm1.81 9.385 1.186-.395a.926.926 0 0 0-.01-.032l-1.176.427Zm-5 2.75a1.25 1.25 0 1 0 0 2.5v-2.5Zm-39.799-.582a1.25 1.25 0 1 0 1.799-1.736l-1.799 1.736ZM91.1 50.3a1.25 1.25 0 0 0 2.5 0h-2.5Zm-34 7.9a1.25 1.25 0 0 0 2.5 0h-2.5Zm16.45 35-.016-1.25.015 1.25Zm-29.3-22.6-1.25.06.002.016 1.247-.076Zm3.6-4.4-.104-1.246-.015.002.118 1.244Zm3.15 35a1.25 1.25 0 0 0 2.5 0h-2.5Zm27.25-39-1.19.385v.001l.002.004.004.015.02.057a554.817 554.817 0 0 1 .331 1.022c.22.673.52 1.593.845 2.582.648 1.97 1.405 4.24 1.813 5.361l2.35-.854c-.393-1.078-1.137-3.308-1.788-5.289a897.903 897.903 0 0 1-1.102-3.373l-.072-.22-.018-.056-.005-.015a.037.037 0 0 1-.001-.005l-1.19.385Zm1.814 9.395c.403 1.212.111 1.661-.073 1.846-.287.287-.89.509-1.742.509v2.5c1.148 0 2.546-.278 3.51-1.241 1.064-1.065 1.272-2.616.676-4.404l-2.371.79Zm-1.815 2.355h-2v2.5h2v-2.5Zm-40-2.318c-5.386-5.578-8.65-13.07-8.65-21.332h-2.5c0 8.938 3.536 17.046 9.351 23.068l1.799-1.736ZM29.598 50.3c0-17.01 13.74-30.75 30.75-30.75v-2.5c-18.39 0-33.25 14.86-33.25 33.25h2.5Zm30.75-30.75c17.01 0 30.75 13.74 30.75 30.75h2.5c0-18.39-14.86-33.25-33.25-33.25v2.5Zm-.75 38.65c0-6.51 5.24-11.75 11.75-11.75v-2.5c-7.89 0-14.25 6.36-14.25 14.25h2.5Zm11.75-11.75h3.9v-2.5h-3.9v2.5Zm3.9 0c6.51 0 11.75 5.24 11.75 11.75h2.5c0-7.89-6.36-14.25-14.25-14.25v2.5Zm11.75 11.75v20h2.5v-20h-2.5Zm0 20c0 7.529-5.962 13.659-13.465 13.75l.03 2.5c8.898-.109 15.935-7.379 15.935-16.25h-2.5ZM73.533 91.95c-7.51.095-14.423-3.332-19.547-7.839-2.556-2.248-4.638-4.74-6.103-7.143-1.476-2.42-2.279-4.67-2.387-6.444l-2.495.152c.142 2.327 1.152 4.977 2.747 7.593 1.607 2.635 3.856 5.318 6.587 7.72 5.451 4.793 12.94 8.566 21.23 8.46l-.032-2.499ZM45.497 70.54c-.073-1.525 1.123-2.967 2.47-3.096l-.237-2.488c-2.853.271-4.857 3.03-4.73 5.703l2.497-.119Zm2.455-3.094c1.69-.141 3.046 1.104 3.046 2.754h2.5c0-3.15-2.643-5.505-5.753-5.246l.207 2.492Zm3.046 2.754v31h2.5v-31h-2.5Z" fill="url(#a)"/><path d="M68.249 66.2a2 2 0 1 0 0-4 2 2 0 0 0 0 4Z" fill="url(#b)"/><defs><linearGradient id="a" x1="60.348" y1="18.3" x2="60.348" y2="101.2" gradientUnits="userSpaceOnUse"><stop stop-color="#F55868"/><stop offset="1" stop-color="#875AE0"/></linearGradient><linearGradient id="b" x1="68.249" y1="62.2" x2="68.249" y2="66.2" gradientUnits="userSpaceOnUse"><stop stop-color="#F55868"/><stop offset="1" stop-color="#875AE0"/></linearGradient></defs></svg>