<svg width="120" height="120" viewBox="0 0 120 120" fill="none" xmlns="http://www.w3.org/2000/svg"><path d="M73.038 51.815a1.25 1.25 0 1 0-2.379.77l2.379-.77Zm1.81 9.385 1.186-.395a1.715 1.715 0 0 0-.01-.032l-1.176.427Zm-12.2-33.9.047-1.25h-.003l-.044 1.25Zm4.6 58 .008 1.25h.008l-.016-1.25Zm-29.3-22.6-1.248.06v.002l1.248-.062Zm3.6-4.4-.103-1.246-.015.002.118 1.244Zm3.15 35a1.25 1.25 0 0 0 2.5 0h-2.5Zm27.15-41.1-1.189.385v.001l.002.004a.98.98 0 0 0 .004.015l.02.057.07.22.261.802c.22.673.52 1.593.845 2.582.648 1.97 1.405 4.24 1.813 5.361l2.35-.854c-.393-1.078-1.136-3.309-1.788-5.289a867.377 867.377 0 0 1-1.103-3.373l-.07-.22a14.446 14.446 0 0 0-.019-.056l-.005-.015a.074.074 0 0 0-.001-.005l-1.19.385Zm1.815 9.395c.404 1.212.112 1.661-.073 1.846-.287.287-.89.509-1.742.509v2.5c1.148 0 2.546-.278 3.51-1.241 1.064-1.065 1.272-2.616.676-4.404l-2.371.79Zm-5.815 2.355c-3.99 0-7.25 3.26-7.25 7.25h2.5c0-2.61 2.14-4.75 4.75-4.75v-2.5Zm-7.25 7.25c0 .41-.34.75-.75.75v2.5c1.79 0 3.25-1.46 3.25-3.25h-2.5Zm-.75.75c-2.61 0-4.75-2.14-4.75-4.75h-2.5c0 3.99 3.26 7.25 7.25 7.25v-2.5Zm-4.75-4.75v-10h-2.5v10h2.5Zm0-10c0-5.09-4.16-9.25-9.25-9.25v2.5c3.71 0 6.75 3.04 6.75 6.75h2.5Zm-9.25-9.25h-2v2.5h2v-2.5Zm-2 0c-.41 0-.75-.34-.75-.75h-2.5c0 1.79 1.46 3.25 3.25 3.25v-2.5Zm-.75-.75c0-10.486 8.807-19.026 19.507-18.65l.087-2.5c-12.1-.424-22.094 9.236-22.094 21.15h2.5Zm19.504-18.65c10.095.373 18.096 8.988 18.096 19.25h2.5c0-11.538-8.998-21.323-20.503-21.75l-.093 2.5ZM80.698 47.8v22.5h2.5V47.8h-2.5Zm0 22.5c0 7.529-5.962 13.659-13.465 13.75l.03 2.5c8.898-.109 15.935-7.379 15.935-16.25h-2.5ZM67.241 84.05c-7.565.048-14.506-3.407-19.63-7.914-2.556-2.248-4.631-4.733-6.083-7.123-1.464-2.408-2.245-4.634-2.331-6.375l-2.497.124c.114 2.309 1.108 4.945 2.691 7.55 1.595 2.623 3.839 5.3 6.57 7.702 5.45 4.794 12.96 8.588 21.295 8.536l-.015-2.5ZM39.197 62.64c-.073-1.525 1.123-2.967 2.47-3.096l-.237-2.488c-2.853.271-4.858 3.03-4.73 5.703l2.497-.118Zm2.455-3.094c1.69-.141 3.046 1.104 3.046 2.754h2.5c0-3.15-2.643-5.505-5.753-5.246l.207 2.492Zm3.046 2.754v31h2.5v-31h-2.5Zm27.15 1.65h-4v2.5h4v-2.5Z" fill="url(#a)"/><path d="M61.849 56.2a2 2 0 1 0 0-4 2 2 0 0 0 0 4Z" fill="url(#b)"/><defs><linearGradient id="a" x1="59.946" y1="27.287" x2="59.946" y2="93.3" gradientUnits="userSpaceOnUse"><stop stop-color="#F55868"/><stop offset="1" stop-color="#875AE0"/></linearGradient><linearGradient id="b" x1="61.849" y1="52.2" x2="61.849" y2="56.2" gradientUnits="userSpaceOnUse"><stop stop-color="#F55868"/><stop offset="1" stop-color="#875AE0"/></linearGradient></defs></svg>