<svg width="121" height="120" viewBox="0 0 121 120" fill="none" xmlns="http://www.w3.org/2000/svg"><path d="M77.39 54.815a1.25 1.25 0 0 0-2.38.77l2.38-.77ZM79.2 64.2l1.186-.395a1.715 1.715 0 0 0-.011-.032L79.2 64.2Zm-5 2.75a1.25 1.25 0 0 0 0 2.5v-2.5Zm-31-14a1.25 1.25 0 0 0 0 2.5v-2.5Zm26-19.5a1.25 1.25 0 0 0 0-2.5v2.5Zm-30 13.5a1.25 1.25 0 0 0 0 2.5v-2.5Zm26-19.5a1.25 1.25 0 0 0 0-2.5v2.5Zm-30 13.5a1.25 1.25 0 0 0 0 2.5v-2.5ZM71.5 86.2l-.015-1.25.015 1.25ZM42.3 63.7l-1.249.06v.002L42.3 63.7Zm3.6-4.4-.104-1.246-.015.002.119 1.244Zm3.15 35a1.25 1.25 0 1 0 2.5 0h-2.5ZM76.2 55.2l-1.19.385.001.001.001.004.005.015.019.057.071.22a753.085 753.085 0 0 0 1.106 3.384c.648 1.97 1.404 4.24 1.812 5.361l2.35-.854c-.392-1.078-1.136-3.308-1.788-5.289a857.837 857.837 0 0 1-1.102-3.373l-.071-.22a14.446 14.446 0 0 0-.019-.056l-.004-.015a.056.056 0 0 0-.002-.005L76.2 55.2Zm1.814 9.395c.404 1.212.112 1.661-.073 1.846-.287.287-.889.509-1.741.509v2.5c1.148 0 2.546-.278 3.509-1.241 1.065-1.065 1.273-2.616.677-4.404l-2.372.79ZM76.2 66.95h-2v2.5h2v-2.5Zm-3-30c-7.575 0-11.91 4.393-15.884 8.366l1.768 1.768c4.027-4.027 7.69-7.634 14.116-7.634v-2.5Zm-15.884 8.366c-4.027 4.027-7.69 7.634-14.116 7.634v2.5c7.575 0 11.91-4.393 15.884-8.366l-1.768-1.768ZM69.2 30.95c-7.575 0-11.91 4.393-15.884 8.366l1.768 1.768c4.027-4.027 7.69-7.634 14.116-7.634v-2.5Zm-15.884 8.366c-4.027 4.027-7.69 7.634-14.116 7.634v2.5c7.575 0 11.91-4.393 15.884-8.366l-1.768-1.768ZM65.2 24.95c-7.575 0-11.91 4.393-15.884 8.366l1.768 1.768c4.027-4.027 7.69-7.634 14.116-7.634v-2.5Zm-15.884 8.366c-4.027 4.027-7.69 7.634-14.116 7.634v2.5c7.575 0 11.91-4.393 15.884-8.366l-1.768-1.768ZM73.2 39.45c6.51 0 11.75 5.24 11.75 11.75h2.5c0-7.89-6.36-14.25-14.25-14.25v2.5ZM84.95 51.2v20h2.5v-20h-2.5Zm0 20c0 7.529-5.963 13.659-13.465 13.75l.03 2.5C80.412 87.34 87.45 80.07 87.45 71.2h-2.5ZM71.484 84.95c-7.51.095-14.422-3.333-19.534-7.826-2.55-2.242-4.622-4.724-6.072-7.112-1.463-2.407-2.244-4.633-2.33-6.374l-2.497.124c.114 2.309 1.108 4.945 2.69 7.548 1.593 2.622 3.834 5.296 6.559 7.691 5.438 4.782 12.926 8.554 21.216 8.449l-.032-2.5ZM43.55 63.64c-.073-1.525 1.122-2.967 2.47-3.096l-.238-2.488c-2.852.271-4.857 3.03-4.73 5.704l2.497-.12Zm2.455-3.094c1.69-.141 3.046 1.104 3.046 2.754h2.5c0-3.15-2.644-5.505-5.754-5.246l.208 2.492ZM49.05 63.3v31h2.5v-31h-2.5Z" fill="url(#a)"/><path d="M66.2 59.2a2 2 0 1 0 0-4 2 2 0 0 0 0 4Z" fill="url(#b)"/><defs><linearGradient id="a" x1="60.7" y1="26.2" x2="60.7" y2="94.3" gradientUnits="userSpaceOnUse"><stop stop-color="#FFBE4F"/><stop offset="1" stop-color="#F26B1D"/></linearGradient><linearGradient id="b" x1="66.2" y1="55.2" x2="66.2" y2="59.2" gradientUnits="userSpaceOnUse"><stop stop-color="#FFBE4F"/><stop offset="1" stop-color="#F26B1D"/></linearGradient></defs></svg>