<svg width="120" height="120" viewBox="0 0 120 120" fill="none" xmlns="http://www.w3.org/2000/svg"><path d="M65.038 52.815a1.25 1.25 0 0 0-2.379.77l2.379-.77Zm1.81 9.385 1.186-.395a1.715 1.715 0 0 0-.01-.032l-1.176.427Zm-5 2.75a1.25 1.25 0 0 0 0 2.5v-2.5ZM36.598 92.2a1.25 1.25 0 0 0 2.5 0h-2.5Zm-3.25-35-.1-1.246-.013.001.113 1.245Zm-3.5 4.5 1.247-.09-.002-.023-1.245.113Zm29.3 22.5-.015-1.25.015 1.25Zm-5.3-57v1.25-1.25Zm-19.9 17.9-1.242-.137a1.83 1.83 0 0 0-.003.033l1.245.104Zm55.9 3.45a1.25 1.25 0 1 0 0-2.5v2.5Zm-26 4.65-1.189.385v.001l.002.004a.98.98 0 0 0 .005.015l.018.057.072.22.26.802c.22.673.52 1.593.845 2.582.648 1.97 1.405 4.24 1.813 5.361l2.35-.854c-.393-1.078-1.136-3.309-1.788-5.289a838.859 838.859 0 0 1-1.192-3.65l-.005-.014a.074.074 0 0 0-.001-.005l-1.19.385Zm1.815 9.395c.404 1.212.112 1.661-.073 1.846-.287.287-.89.509-1.742.509v2.5c1.148 0 2.546-.278 3.51-1.241 1.064-1.065 1.272-2.616.676-4.404l-2.371.79Zm-1.815 2.355h-2v2.5h2v-2.5ZM39.098 92.2v-31h-2.5v31h2.5Zm0-31c0-3.17-2.664-5.5-5.85-5.246l.2 2.492c1.815-.145 3.15 1.125 3.15 2.754h2.5Zm-5.863-5.245c-2.994.272-4.884 3.082-4.631 5.858l2.49-.226c-.148-1.624.962-3.014 2.368-3.142l-.227-2.49Zm-4.633 5.835c.17 2.346 1.196 4.998 2.805 7.61 1.62 2.63 3.876 5.297 6.607 7.68 5.452 4.755 12.913 8.475 21.15 8.37l-.032-2.5c-7.463.095-14.351-3.285-19.474-7.755-2.556-2.23-4.644-4.706-6.122-7.105-1.487-2.416-2.31-4.676-2.44-6.48l-2.494.18Zm30.562 23.66c8.897-.109 15.934-7.379 15.934-16.25h-2.5c0 7.529-5.962 13.659-13.465 13.75l.03 2.5ZM75.098 69.2v-22h-2.5v22h2.5Zm0-22c0-11.69-9.56-21.25-21.25-21.25v2.5c10.31 0 18.75 8.44 18.75 18.75h2.5Zm-21.25-21.25c-10.952 0-19.974 8.395-21.142 19.013l2.485.274c1.032-9.382 9.01-16.787 18.657-16.787v-2.5ZM32.703 44.996c-.16 1.91 1.296 3.554 3.245 3.554v-2.5c-.45 0-.795-.356-.754-.846l-2.491-.208Zm3.245 3.554h53.9v-2.5h-53.9v2.5Z" fill="url(#a)"/><path d="M53.849 57.2a2 2 0 1 0 0-4 2 2 0 0 0 0 4Z" fill="url(#b)"/><defs><linearGradient id="a" x1="59.84" y1="27.2" x2="59.84" y2="92.2" gradientUnits="userSpaceOnUse"><stop stop-color="#3CC29A"/><stop offset="1" stop-color="#93C437"/></linearGradient><linearGradient id="b" x1="53.849" y1="53.2" x2="53.849" y2="57.2" gradientUnits="userSpaceOnUse"><stop stop-color="#3CC29A"/><stop offset="1" stop-color="#93C437"/></linearGradient></defs></svg>