<svg width="60" height="60" viewBox="0 0 60 60" fill="none" xmlns="http://www.w3.org/2000/svg"><path d="m30.848 25.2 2 6c1 3-1 3-2 3h-1m-13 20v-25c0-1.8-1.6-3.3-3.5-3-1.4.2-2.5 1.7-2.5 3.1.1 8 7 16.8 17.8 16.9 5.6.1 10.3-4.5 10.3-10.1V20.6c0-7-5.4-13-12.4-13.4-6.7-.2-12.3 4.4-13.4 10.7-.2 1.2.7 2.4 2 2.4h32.8" stroke="url(#a)" stroke-width="2.5" stroke-miterlimit="10" stroke-linecap="round" stroke-linejoin="round"/><defs><linearGradient id="a" x1="29.398" y1="7.194" x2="29.398" y2="54.2" gradientUnits="userSpaceOnUse"><stop stop-color="#FFBE4F"/><stop offset="1" stop-color="#F26B1D"/></linearGradient></defs></svg>