<svg width="193" height="192" viewBox="0 0 193 192" fill="none" xmlns="http://www.w3.org/2000/svg"><path d="M119.546 107.75h-2a1.25 1.25 0 1 0 0 2.5h2c2.417 0 4.141-.691 5.123-2.056 1.193-1.654 1.214-4.137.062-7.59l-4-12a1.25 1.25 0 1 0-2.371.791l4 12c.854 2.562.952 4.408.282 5.337-.488.676-1.529 1.018-3.096 1.018Z" fill="url(#a)"/><path d="M90.828 62.676c4.78-5.058 8.905-9.426 16.721-9.426a1.252 1.252 0 0 0 1.25-1.25 1.252 1.252 0 0 0-1.25-1.25c-8.893 0-13.577 4.959-18.537 10.209-5.477 5.797-11.14 11.791-23.463 11.791a1.25 1.25 0 0 0 0 2.5c13.4 0 19.712-6.68 25.28-12.574Z" fill="url(#b)"/><path d="M82.828 54.676c4.78-5.058 8.905-9.426 16.72-9.426A1.252 1.252 0 0 0 100.8 44a1.252 1.252 0 0 0-1.25-1.25c-8.893 0-13.577 4.959-18.537 10.209-5.477 5.797-11.14 11.791-23.463 11.791a1.25 1.25 0 0 0 0 2.5c13.4 0 19.712-6.68 25.28-12.574Z" fill="url(#c)"/><path d="M115.549 58.75c-8.893 0-13.577 4.959-18.537 10.209-5.477 5.797-11.14 11.791-23.463 11.791a1.25 1.25 0 0 0 0 2.5c13.4 0 19.712-6.68 25.28-12.574 4.778-5.058 8.904-9.426 16.72-9.426A18.77 18.77 0 0 1 134.299 80v34a23.779 23.779 0 0 1-23.75 23.75c-11.514 0-22.113-6.947-29.75-15.996V94a7.25 7.25 0 1 0-14.5 0c0 8.798 4.564 19.645 12 28.678V148a1.25 1.25 0 0 0 2.5 0v-22.472c8.77 9.38 19.52 14.722 29.75 14.722a26.282 26.282 0 0 0 26.25-26.25V80a21.272 21.272 0 0 0-21.25-21.25Zm-37.25 59.826c-5.91-8.068-9.5-17.262-9.5-24.576a4.75 4.75 0 0 1 9.5 0v24.576Z" fill="url(#d)"/><path d="M107.546 95a2 2 0 1 0 0-4 2 2 0 0 0 0 4Z" fill="url(#e)"/><defs><linearGradient id="a" x1="96.549" y1="42.75" x2="96.549" y2="149.25" gradientUnits="userSpaceOnUse"><stop stop-color="#F55868"/><stop offset="1" stop-color="#875AE0"/></linearGradient><linearGradient id="b" x1="96.549" y1="42.75" x2="96.549" y2="149.25" gradientUnits="userSpaceOnUse"><stop stop-color="#F55868"/><stop offset="1" stop-color="#875AE0"/></linearGradient><linearGradient id="c" x1="96.549" y1="42.75" x2="96.549" y2="149.25" gradientUnits="userSpaceOnUse"><stop stop-color="#F55868"/><stop offset="1" stop-color="#875AE0"/></linearGradient><linearGradient id="d" x1="96.549" y1="42.75" x2="96.549" y2="149.25" gradientUnits="userSpaceOnUse"><stop stop-color="#F55868"/><stop offset="1" stop-color="#875AE0"/></linearGradient><linearGradient id="e" x1="107.546" y1="91" x2="107.546" y2="95" gradientUnits="userSpaceOnUse"><stop stop-color="#F55868"/><stop offset="1" stop-color="#875AE0"/></linearGradient></defs></svg>