<svg width="121" height="120" viewBox="0 0 121 120" fill="none" xmlns="http://www.w3.org/2000/svg"><path d="M82.348 58.2s1.2 3.7 2 6c1 3-1 4-3 4h-2m-23.9 26v-31c0-2.3-2-4.2-4.4-4-2.1.2-3.7 2.3-3.6 4.4.4 8.1 13.4 22.7 29.3 22.6 8.2-.1 14.7-6.8 14.7-15v-8m-14.1-6a6 6 0 1 1-12 0 6 6 0 0 1 12 0Zm0 0h5m0 0a6 6 0 1 0 12 0 6 6 0 0 0-12 0Zm-23-11h30c1.1 0 2-.9 2-2 0-9.9-8.1-18-18-18h-10m-15.9 5.4c-2.3-1.1-5-1.6-7.8-1.2-6.3.7-11.4 5.8-12.1 12.1-.9 7.1 3.6 13.3 9.9 15.2 1.5.4 2.8-.9 2.5-2.4-.4-1.6-.5-3.3-.5-5.1 0-13.3 10.7-24 24-24" stroke="#000" stroke-width="2.5" stroke-miterlimit="10" stroke-linecap="round" stroke-linejoin="round"/></svg>