<svg width="321" height="320" viewBox="0 0 321 320" fill="none" xmlns="http://www.w3.org/2000/svg"><path d="M51.028 166.75h-1a1.252 1.252 0 0 0-.884 2.134c.234.234.552.366.884.366h1a4.038 4.038 0 0 0 3.022-1.156c.834-.9.691-2.065.163-3.489l-2-6a1.25 1.25 0 1 0-2.373.784l.002.007 2 6c.312.934.295 1.021.156 1.191-.14.169-.582.163-.97.163ZM124.999 162.788h-1a1.247 1.247 0 0 0-.883 2.134c.234.234.552.366.883.366h1a4.055 4.055 0 0 0 3.023-1.156c.834-.9.691-2.065.163-3.49l-2-6a1.253 1.253 0 0 0-1.58-.797 1.258 1.258 0 0 0-.854 1.097c-.012.164.009.328.061.484l.002.007 2 6c.311.935.294 1.022.155 1.191-.139.17-.582.164-.97.164ZM51.028 138.75h-8a13.265 13.265 0 0 0-13.191 12.086 9.254 9.254 0 0 0-8.06 9.164v9a3.755 3.755 0 0 1-3.75 3.75 1.252 1.252 0 0 0-.883 2.134c.234.234.552.366.884.366a6.26 6.26 0 0 0 6.25-6.25v-9a6.76 6.76 0 0 1 6.75-6.75 1.247 1.247 0 0 0 1.25-1.25 10.763 10.763 0 0 1 10.75-10.75h8c5.782 0 6.742 2.906 6.792 3.072a1.252 1.252 0 0 0 1.52.889 1.25 1.25 0 0 0 .9-1.514c-.05-.202-1.327-4.947-9.212-4.947ZM112.087 143.177c-1.677 1.917-3.127 3.573-6.059 3.573a1.25 1.25 0 1 0 0 2.5c4.067 0 6.125-2.351 7.94-4.427 1.678-1.917 3.127-3.573 6.06-3.573a1.254 1.254 0 0 0 1.25-1.25 1.254 1.254 0 0 0-1.25-1.25c-4.068 0-6.125 2.352-7.941 4.427ZM194.028 133.25a18.737 18.737 0 0 1 18.158 14.062 1.244 1.244 0 0 0 .574.766 1.246 1.246 0 0 0 1.389-.077c.131-.098.242-.222.325-.364a1.249 1.249 0 0 0 .134-.948 21.258 21.258 0 0 0-20.229-15.936 21.246 21.246 0 0 0-16.334 7.245 21.255 21.255 0 0 0-1.766 25.691 1.247 1.247 0 0 0 1.73.352 1.25 1.25 0 0 0 .356-1.729 18.748 18.748 0 0 1-.842-19.206 18.751 18.751 0 0 1 16.505-9.856Z" fill="#000"/><path d="M312.181 157.219a39.325 39.325 0 0 0-36.372-36.373 38.917 38.917 0 0 0-29.558 10.456 39.385 39.385 0 0 0-11.207 18.859 39.26 39.26 0 0 0-76.004-.009 39.25 39.25 0 0 0-37.999-29.403 39.255 39.255 0 0 0-38 29.4 39.254 39.254 0 0 0-21.977-25.992 39.265 39.265 0 0 0-47.371 12.197 39.256 39.256 0 0 0 1.286 48.899 12.819 12.819 0 0 0 14.528 3.845 13.173 13.173 0 0 0 8.695-11.058 19.43 19.43 0 0 0 10.554 3.208 11.367 11.367 0 0 0 8.088-3.233 11.388 11.388 0 0 0 3.434-8.142V156a9.264 9.264 0 0 0-9.25-9.25c-4.068 0-6.125 2.352-7.94 4.427-1.678 1.917-3.128 3.573-6.06 3.573a1.252 1.252 0 0 0-.884 2.134c.234.234.552.366.884.366 4.067 0 6.125-2.351 7.94-4.427 1.678-1.917 3.127-3.573 6.06-3.573a6.756 6.756 0 0 1 6.75 6.75v13.873a8.815 8.815 0 0 1-2.64 6.316 8.674 8.674 0 0 1-6.35 2.559 17.63 17.63 0 0 1-10.511-3.827V163a4.254 4.254 0 0 0-4.983-4.187 4.432 4.432 0 0 0-3.516 4.293 18.183 18.183 0 0 0 5.186 12.221c.264.277.535.544.813.801v.481a10.594 10.594 0 0 1-7.126 10.14 10.398 10.398 0 0 1-11.759-3.105 36.751 36.751 0 1 1 28.136 13.106 1.252 1.252 0 0 0-.884 2.134c.234.234.552.366.884.366a39.319 39.319 0 0 0 38.006-29.433 39.113 39.113 0 0 0 7.435 14.818 12.253 12.253 0 0 0 13.62 3.879 12.252 12.252 0 0 0 8.188-11.554v-2.871a19.433 19.433 0 0 0 10.479 3.159 11.38 11.38 0 0 0 11.521-11.239l.001-.136V152a9.261 9.261 0 0 0-9.25-9.25c-4.068 0-6.125 2.352-7.941 4.427-1.677 1.917-3.127 3.573-6.059 3.573a1.25 1.25 0 1 0 0 2.5c4.067 0 6.125-2.351 7.94-4.427 1.678-1.917 3.127-3.573 6.06-3.573a6.758 6.758 0 0 1 6.75 6.75v13.873a8.83 8.83 0 0 1-.682 3.425 8.838 8.838 0 0 1-1.959 2.891 8.682 8.682 0 0 1-6.35 2.559 17.627 17.627 0 0 1-10.51-3.827l.001-11.921a4.266 4.266 0 0 0-1.517-3.254 4.248 4.248 0 0 0-3.467-.933 4.43 4.43 0 0 0-3.516 4.293 18.184 18.184 0 0 0 5.186 12.221c.264.277.535.544.813.801v4.832a9.758 9.758 0 0 1-17.363 6.105 36.754 36.754 0 0 1 20.315-58.869 36.75 36.75 0 0 1 31.231 64.52 36.746 36.746 0 0 1-22.932 8.034 1.25 1.25 0 1 0 0 2.5 39.317 39.317 0 0 0 38.004-29.426 39.11 39.11 0 0 0 7.946 15.429 12.826 12.826 0 0 0 6.642 4.275c2.608.69 5.368.539 7.886-.43a13.171 13.171 0 0 0 8.697-11.058 19.428 19.428 0 0 0 10.553 3.208 11.373 11.373 0 0 0 11.52-11.236l.001-.139V156a9.261 9.261 0 0 0-9.25-9.25h-1.999a9.261 9.261 0 0 0-9.25 9.25 1.246 1.246 0 0 0 1.25 1.25 1.254 1.254 0 0 0 1.25-1.25 6.758 6.758 0 0 1 6.75-6.75h1.999a6.754 6.754 0 0 1 4.77 1.98 6.754 6.754 0 0 1 1.98 4.77v13.873a8.882 8.882 0 0 1-8.872 8.876l-.118-.001a17.627 17.627 0 0 1-10.51-3.827V163a4.265 4.265 0 0 0-.398-1.795 4.264 4.264 0 0 0-2.749-2.309 4.236 4.236 0 0 0-1.837-.083 4.43 4.43 0 0 0-3.515 4.293 18.184 18.184 0 0 0 5.186 12.221c.264.277.535.544.813.801v.481a10.595 10.595 0 0 1-7.127 10.14 10.4 10.4 0 0 1-11.758-3.105 36.748 36.748 0 0 1-1.035-46 36.75 36.75 0 0 1 62.126 6.091 36.753 36.753 0 0 1-32.955 53.015 1.25 1.25 0 1 0 0 2.5 39.315 39.315 0 0 0 38.005-29.428 39.26 39.26 0 0 0 7.46 14.841 12.252 12.252 0 0 0 19.534-.629 12.26 12.26 0 0 0 2.25-7.074v-2.87a19.446 19.446 0 0 0 10.478 3.158 11.409 11.409 0 0 0 8.137-3.28 11.293 11.293 0 0 0 3.385-8.095l.001-14.623h7.75a1.254 1.254 0 0 0 1.25-1.25 1.254 1.254 0 0 0-1.25-1.25h-7.845c-.805-6.88-6.646-12.662-13.469-12.984a14.331 14.331 0 0 0-14.703 11.653 3.269 3.269 0 0 0 .707 2.665 3.253 3.253 0 0 0 2.498 1.166h22.562l-.001 14.623a8.83 8.83 0 0 1-.682 3.425 8.838 8.838 0 0 1-1.959 2.891 8.623 8.623 0 0 1-6.35 2.559 17.626 17.626 0 0 1-10.509-3.827V159a4.266 4.266 0 0 0-1.517-3.254 4.248 4.248 0 0 0-3.467-.933 4.43 4.43 0 0 0-3.515 4.293 18.192 18.192 0 0 0 5.185 12.221c.265.277.536.544.814.802v4.831a9.758 9.758 0 0 1-6.504 9.195 9.759 9.759 0 0 1-10.837-3.064 36.749 36.749 0 0 1-.25-45.874 36.75 36.75 0 0 1 61.916 6.756 36.757 36.757 0 0 1-10.137 44.74 36.75 36.75 0 0 1-22.937 8.037 1.25 1.25 0 1 0 0 2.5 39.392 39.392 0 0 0 28.699-12.475 38.936 38.936 0 0 0 10.454-29.556Zm-279.903 5.869a1.98 1.98 0 0 1 1.433-1.81c.105-.019.211-.028.318-.028a1.746 1.746 0 0 1 1.749 1.75l-.001 9.493a14.694 14.694 0 0 1-3.5-9.405Zm74-4a1.978 1.978 0 0 1 1.433-1.81c.105-.019.211-.028.318-.028a1.753 1.753 0 0 1 1.749 1.75l-.001 9.494a14.691 14.691 0 0 1-3.499-9.406Zm78 4a1.978 1.978 0 0 1 1.432-1.81c.105-.019.211-.028.318-.028a1.753 1.753 0 0 1 1.749 1.75v9.493a14.688 14.688 0 0 1-3.499-9.405Zm76.938-14.338a.75.75 0 0 1-.584-.275.736.736 0 0 1-.162-.606 11.79 11.79 0 0 1 12.127-9.605c5.533.261 10.283 4.904 11.067 10.486h-22.448Zm-2.938 10.338a1.978 1.978 0 0 1 1.432-1.81c.105-.019.211-.028.318-.028a1.753 1.753 0 0 1 1.749 1.75v9.493a14.688 14.688 0 0 1-3.499-9.405Z" fill="#000"/><path d="M203.014 166.75h-1a1.254 1.254 0 0 0-1.25 1.25 1.25 1.25 0 0 0 1.25 1.25h1a4.037 4.037 0 0 0 3.023-1.156c.833-.9.691-2.065.163-3.489l-2-6a1.27 1.27 0 0 0-.24-.425 1.264 1.264 0 0 0-.855-.43 1.26 1.26 0 0 0-.908.3 1.264 1.264 0 0 0-.43.855c-.012.164.008.328.06.484l2.002 6.007c.311.934.294 1.021.155 1.191-.139.169-.582.163-.97.163ZM277.036 162.788h-1a1.246 1.246 0 0 0-1.25 1.25 1.254 1.254 0 0 0 1.25 1.25h1a4.057 4.057 0 0 0 3.022-1.156c.834-.9.691-2.065.163-3.49l-2-6a1.25 1.25 0 1 0-2.373.784l.002.007 2 6c.312.935.295 1.022.156 1.191-.139.17-.582.164-.97.164Z" fill="#000"/></svg>