<svg width="120" height="120" viewBox="0 0 120 120" fill="none" xmlns="http://www.w3.org/2000/svg"><path d="M44 54.75h-9a1.25 1.25 0 1 0 0 2.5h9A5.256 5.256 0 0 0 49.25 52v-8A5.256 5.256 0 0 0 44 38.75h-9a1.25 1.25 0 1 0 0 2.5h9A2.753 2.753 0 0 1 46.75 44v8A2.753 2.753 0 0 1 44 54.75Z" fill="url(#a)"/><path d="M22.25 64c0-.69-.56-1.25-1.25-1.25h-9A5.256 5.256 0 0 0 6.75 68v8A5.256 5.256 0 0 0 12 81.25h9a1.25 1.25 0 1 0 0-2.5h-9A2.753 2.753 0 0 1 9.25 76v-8A2.753 2.753 0 0 1 12 65.25h9c.69 0 1.25-.56 1.25-1.25Z" fill="url(#b)"/><path d="M76 57.25h9a1.25 1.25 0 1 0 0-2.5h-9A2.753 2.753 0 0 1 73.25 52v-8A2.753 2.753 0 0 1 76 41.25h9a1.25 1.25 0 1 0 0-2.5h-9A5.256 5.256 0 0 0 70.75 44v8A5.256 5.256 0 0 0 76 57.25Z" fill="url(#c)"/><path d="M108 62.75h-9a1.25 1.25 0 1 0 0 2.5h9a2.753 2.753 0 0 1 2.75 2.75v8a2.753 2.753 0 0 1-2.75 2.75h-9a1.25 1.25 0 1 0 0 2.5h9a5.256 5.256 0 0 0 5.25-5.25v-8a5.256 5.256 0 0 0-5.25-5.25Z" fill="url(#d)"/><path d="M108 30.75h-9a1.25 1.25 0 1 0 0 2.5h9a5.256 5.256 0 0 0 5.25-5.25v-8a5.256 5.256 0 0 0-5.25-5.25H76A5.256 5.256 0 0 0 70.75 20v8A5.256 5.256 0 0 0 76 33.25h14c.413 0 .75.337.75.75v4A3.254 3.254 0 0 0 94 41.25h14a2.753 2.753 0 0 1 2.75 2.75v8a2.753 2.753 0 0 1-2.75 2.75H94A3.254 3.254 0 0 0 90.75 58v4c0 .413-.337.75-.75.75H76A5.256 5.256 0 0 0 70.75 68v8A5.256 5.256 0 0 0 76 81.25h13.943a.75.75 0 0 1 .55.237c.082.087.219.275.205.552C89.732 100.731 77.3 102.75 72 102.75c-3.564 0-7.337-1.4-10.174-3.795 2.194-2.66 3.424-5.853 3.424-8.955 0-4.472-2.023-7.25-5.28-7.25-3.603 0-5.216 3.49-5.216 6.95 0 3.212 1.268 6.52 3.525 9.256-2.848 2.393-6.67 3.794-10.279 3.794-5.3 0-17.732-2.019-18.698-20.712a.741.741 0 0 1 .206-.55.75.75 0 0 1 .549-.238H44A5.256 5.256 0 0 0 49.25 76v-8A5.256 5.256 0 0 0 44 62.75H30a.751.751 0 0 1-.75-.75v-4A3.254 3.254 0 0 0 26 54.75H12A2.753 2.753 0 0 1 9.25 52v-8A2.753 2.753 0 0 1 12 41.25h14A3.254 3.254 0 0 0 29.25 38v-4c0-.413.337-.75.75-.75h14A5.256 5.256 0 0 0 49.25 28v-8A5.256 5.256 0 0 0 44 14.75H12A5.256 5.256 0 0 0 6.75 20v8A5.256 5.256 0 0 0 12 33.25h9a1.25 1.25 0 1 0 0-2.5h-9A2.753 2.753 0 0 1 9.25 28v-8A2.753 2.753 0 0 1 12 17.25h32A2.753 2.753 0 0 1 46.75 20v8A2.753 2.753 0 0 1 44 30.75H30A3.254 3.254 0 0 0 26.75 34v4c0 .413-.337.75-.75.75H12A5.256 5.256 0 0 0 6.75 44v8A5.256 5.256 0 0 0 12 57.25h14c.413 0 .75.337.75.75v4A3.254 3.254 0 0 0 30 65.25h14A2.753 2.753 0 0 1 46.75 68v8A2.753 2.753 0 0 1 44 78.75H30.057a3.258 3.258 0 0 0-3.25 3.418c.745 14.453 8.669 23.082 21.193 23.082 4.911 0 9.056-1.787 12.05-4.453 2.986 2.67 7.093 4.453 11.95 4.453 12.524 0 20.448-8.629 21.194-23.081a3.259 3.259 0 0 0-.888-2.403 3.27 3.27 0 0 0-2.363-1.016H76A2.753 2.753 0 0 1 73.25 76v-8A2.753 2.753 0 0 1 76 65.25h14A3.254 3.254 0 0 0 93.25 62v-4c0-.413.337-.75.75-.75h14a5.256 5.256 0 0 0 5.25-5.25v-8a5.256 5.256 0 0 0-5.25-5.25H94a.751.751 0 0 1-.75-.75v-4A3.254 3.254 0 0 0 90 30.75H76A2.753 2.753 0 0 1 73.25 28v-8A2.753 2.753 0 0 1 76 17.25h32a2.753 2.753 0 0 1 2.75 2.75v8a2.753 2.753 0 0 1-2.75 2.75ZM57.254 89.7c0-.181.031-4.45 2.717-4.45 2.509 0 2.779 3.322 2.779 4.75 0 2.745-1.038 5.186-2.694 7.179-1.72-2.064-2.802-4.609-2.802-7.479Z" fill="url(#e)"/><path d="M20 70.75h-5a1.25 1.25 0 1 0 0 2.5h5a1.25 1.25 0 1 0 0-2.5Z" fill="url(#f)"/><path d="M15 46.75a1.25 1.25 0 1 0 0 2.5h5a1.25 1.25 0 1 0 0-2.5h-5Z" fill="url(#g)"/><path d="M15 22.75a1.25 1.25 0 1 0 0 2.5h5a1.25 1.25 0 1 0 0-2.5h-5Z" fill="url(#h)"/><path d="M79 70.75a1.25 1.25 0 1 0 0 2.5h5a1.25 1.25 0 1 0 0-2.5h-5Z" fill="url(#i)"/><path d="M84 46.75h-5a1.25 1.25 0 1 0 0 2.5h5a1.25 1.25 0 1 0 0-2.5Z" fill="url(#j)"/><path d="M79 22.75a1.25 1.25 0 1 0 0 2.5h5a1.25 1.25 0 1 0 0-2.5h-5Z" fill="url(#k)"/><defs><linearGradient id="a" x1="60" y1="14.75" x2="60" y2="105.25" gradientUnits="userSpaceOnUse"><stop stop-color="#FFBE4F"/><stop offset="1" stop-color="#F26B1D"/></linearGradient><linearGradient id="b" x1="60" y1="14.75" x2="60" y2="105.25" gradientUnits="userSpaceOnUse"><stop stop-color="#FFBE4F"/><stop offset="1" stop-color="#F26B1D"/></linearGradient><linearGradient id="c" x1="60" y1="14.75" x2="60" y2="105.25" gradientUnits="userSpaceOnUse"><stop stop-color="#FFBE4F"/><stop offset="1" stop-color="#F26B1D"/></linearGradient><linearGradient id="d" x1="60" y1="14.75" x2="60" y2="105.25" gradientUnits="userSpaceOnUse"><stop stop-color="#FFBE4F"/><stop offset="1" stop-color="#F26B1D"/></linearGradient><linearGradient id="e" x1="60" y1="14.75" x2="60" y2="105.25" gradientUnits="userSpaceOnUse"><stop stop-color="#FFBE4F"/><stop offset="1" stop-color="#F26B1D"/></linearGradient><linearGradient id="f" x1="60" y1="14.75" x2="60" y2="105.25" gradientUnits="userSpaceOnUse"><stop stop-color="#FFBE4F"/><stop offset="1" stop-color="#F26B1D"/></linearGradient><linearGradient id="g" x1="60" y1="14.75" x2="60" y2="105.25" gradientUnits="userSpaceOnUse"><stop stop-color="#FFBE4F"/><stop offset="1" stop-color="#F26B1D"/></linearGradient><linearGradient id="h" x1="60" y1="14.75" x2="60" y2="105.25" gradientUnits="userSpaceOnUse"><stop stop-color="#FFBE4F"/><stop offset="1" stop-color="#F26B1D"/></linearGradient><linearGradient id="i" x1="60" y1="14.75" x2="60" y2="105.25" gradientUnits="userSpaceOnUse"><stop stop-color="#FFBE4F"/><stop offset="1" stop-color="#F26B1D"/></linearGradient><linearGradient id="j" x1="60" y1="14.75" x2="60" y2="105.25" gradientUnits="userSpaceOnUse"><stop stop-color="#FFBE4F"/><stop offset="1" stop-color="#F26B1D"/></linearGradient><linearGradient id="k" x1="60" y1="14.75" x2="60" y2="105.25" gradientUnits="userSpaceOnUse"><stop stop-color="#FFBE4F"/><stop offset="1" stop-color="#F26B1D"/></linearGradient></defs></svg>