<svg width="320" height="320" viewBox="0 0 320 320" fill="none" xmlns="http://www.w3.org/2000/svg"><path d="M64.644 248.199v1.25-1.25ZM48.894 183.5a1.25 1.25 0 0 0-2.5 0h2.5Zm-1.25-109.401h-1.25l.001.049 1.25-.049Zm239 174v-1.25 1.25ZM90.579 132.716l1.239.171v-.001l-1.239-.17Zm-40.304 37.218-.058-1.248h-.01l.068 1.248ZM47.991 83v1.25a1.25 1.25 0 0 0 1.25-1.299L47.99 83Zm10.748 38.17-.705-1.033c-.341.233-.545.62-.545 1.033h1.25Zm9.942-6.792-.626-1.083a1.226 1.226 0 0 0-.08.051l.706 1.032Zm0 24.043.805-.956a.723.723 0 0 0-.037-.031l-.768.987Zm-9.942-7.743h-1.25c0 .386.178.749.482.986l.768-.986Zm7.42-44.591a1.25 1.25 0 0 0-1.03 2.278l1.03-2.278ZM226.25 153a1.25 1.25 0 0 0-2.5 0h2.5ZM175 104.25a1.25 1.25 0 0 0 0-2.5v2.5ZM64.644 246.949c-8.26 0-15.75-7.489-15.75-16.75h-2.5c0 10.539 8.51 19.25 18.25 19.25v-2.5Zm-15.75-16.75V183.5h-2.5v46.699h2.5Zm0-156.1c0-9.21 7.54-16.75 16.75-16.75v-2.5c-10.59 0-19.25 8.66-19.25 19.25h2.5Zm16.75-16.75h220v-2.5h-220v2.5Zm220 0c9.21 0 16.75 7.54 16.75 16.75h2.5c0-10.59-8.659-19.25-19.25-19.25v2.5Zm16.75 16.75v156h2.5v-156h-2.5Zm0 156c0 9.261-7.49 16.75-15.75 16.75v2.5c9.741 0 18.25-8.711 18.25-19.25h-2.5Zm-237.75 19.35 222.001-.1-.001-2.5-222 .1v2.5Zm24.697-116.905c-2.74 19.794-19.32 35.22-39.124 36.142l.116 2.497c21.038-.979 38.583-17.339 41.484-38.296l-2.476-.343Zm-39.134 36.142C26.223 170.004 6.25 150.629 6.25 126.467h-2.5c0 25.554 21.136 46.114 46.594 44.716l-.138-2.497ZM6.25 126.467c0-23.365 18.665-42.217 41.741-42.217v-2.5c-24.483 0-44.241 19.997-44.241 44.717h2.5Zm53.194-4.265 9.942-6.792-1.41-2.064-9.942 6.791 1.41 2.065Zm9.862-6.742a.283.283 0 0 1 .256-.026c.022.011.024.018.02.011-.008-.011-.002-.012-.002.02h2.5a2.504 2.504 0 0 0-1.426-2.28 2.78 2.78 0 0 0-2.599.11l1.251 2.165Zm.274.005v21.869h2.5v-21.869h-2.5Zm0 21.869c0 .006 0 .012-.01.026a.208.208 0 0 1-.076.064c-.038.019-.062.018-.06.019.002 0 .011.001.024.006a.089.089 0 0 1 .028.016l-1.61 1.912c.865.729 1.962.674 2.746.278.783-.396 1.458-1.229 1.458-2.321h-2.5Zm-.131.1-9.942-7.742-1.536 1.972 9.942 7.743 1.536-1.973Zm-9.46-6.756v-9.508h-2.5v9.508h2.5Zm-6.624 10.975H31.87v2.5h21.496v-2.5Zm-21.496 0c-2.252 0-4.123-1.872-4.123-4.183h-2.5c0 3.666 2.965 6.683 6.623 6.683v-2.5Zm-4.123-4.183v-21.734h-2.5v21.734h2.5Zm0-21.734c0-2.311 1.871-4.183 4.123-4.183v-2.5c-3.659 0-6.623 3.017-6.623 6.683h2.5Zm4.123-4.183h21.496v-2.5H31.87v2.5Zm21.496 0c2.252 0 4.124 1.872 4.124 4.183h2.5c0-3.666-2.965-6.683-6.624-6.683v2.5Zm4.124 4.183v21.734h2.5v-21.734h-2.5Zm0 21.734c0 2.447-1.737 4.183-4.124 4.183v2.5c3.793 0 6.624-2.882 6.624-6.683h-2.5ZM46.395 74.148l.347 8.9 2.498-.097-.347-8.9-2.498.097ZM65.13 88.365c15.944 7.218 26.911 24.621 24.212 44.18l2.477.341c2.859-20.716-8.762-39.15-25.658-46.799l-1.031 2.278ZM179 94.25h1.143v-2.5H179v2.5Zm54.75 53.607V149h2.5v-1.143h-2.5ZM231 151.75h-52v2.5h52v-2.5ZM176.25 149V97h-2.5v52h2.5Zm3.893-54.75c29.606 0 53.607 24.001 53.607 53.607h2.5c0-30.987-25.12-56.107-56.107-56.107v2.5ZM179 151.75a2.75 2.75 0 0 1-2.75-2.75h-2.5a5.25 5.25 0 0 0 5.25 5.25v-2.5Zm54.75-2.75a2.75 2.75 0 0 1-2.75 2.75v2.5a5.25 5.25 0 0 0 5.25-5.25h-2.5ZM179 91.75a5.25 5.25 0 0 0-5.25 5.25h2.5a2.75 2.75 0 0 1 2.75-2.75v-2.5ZM223.75 153c0 26.924-21.826 48.75-48.75 48.75v2.5c28.305 0 51.25-22.946 51.25-51.25h-2.5ZM175 201.75c-26.924 0-48.75-21.826-48.75-48.75h-2.5c0 28.304 22.945 51.25 51.25 51.25v-2.5ZM126.25 153c0-26.924 21.826-48.75 48.75-48.75v-2.5c-28.305 0-51.25 22.945-51.25 51.25h2.5Z" fill="#fff"/></svg>