<svg width="320" height="320" viewBox="0 0 320 320" fill="none" xmlns="http://www.w3.org/2000/svg"><path d="M256.863 182.641a1.25 1.25 0 1 0-2.236 1.118l2.236-1.118Zm3.882 10.559-1.119.559.004.008 1.115-.567Zm11.3 9-.08 1.247.006.001.074-1.248Zm6.7-5.7-1.248-.071a.388.388 0 0 0-.002.034l1.25.037Zm-30 13.7-1.118-.559 1.118.559Zm-9.7 19.4-1.119-.559-.005.011 1.124.548Zm-36.3 5.9-.72 1.022c.032.023.065.044.099.063l.621-1.085Zm-5.4-3.8-.732 1.013.012.009.72-1.022Zm-6.2-1.8.019 1.25a1.44 1.44 0 0 0 .094-.005l-.113-1.245Zm-6.3.1-.02-1.25c-.031.001-.063.002-.094.005l.114 1.245Zm-4 4.7h-1.25l.001.059 1.249-.059Zm.1 2.1-1.249.059.002.033 1.247-.092Zm3.4 6.7.823-.941-.018-.015-.805.956Zm5.7 2.3-.119 1.244a.21.21 0 0 0 .025.002l.094-1.246Zm4 .3.906-.861a1.256 1.256 0 0 0-.813-.386l-.093 1.247Zm16 7.25a1.25 1.25 0 0 0 0-2.5v2.5Zm73.6-38.4a1.25 1.25 0 1 0 0 2.5v-2.5Zm-50 2.5a1.25 1.25 0 0 0 0-2.5v2.5Zm-162 32a1.25 1.25 0 0 0 0-2.5v2.5Zm102.75-62.25a1.25 1.25 0 1 0 2.5 0h-2.5Zm81.35-2.65a1.25 1.25 0 0 0 0-2.5v2.5Zm-14.75-16.25a1.25 1.25 0 0 0-2.5 0h2.5Zm-95.35 77.9-.621-1.085a1.249 1.249 0 0 0-.629 1.085h1.25Zm49.25 8a1.25 1.25 0 0 0-2.5 0h2.5Zm-50.5-35a1.25 1.25 0 1 0 2.5 0h-2.5Zm48 10a1.25 1.25 0 1 0 2.5 0h-2.5Zm-10.5-34a1.25 1.25 0 0 0-2.5 0h2.5Zm-1.25 12h-1.25c0 .69.559 1.25 1.25 1.25v-1.25Zm12 1.25a1.25 1.25 0 0 0 0-2.5v2.5Zm-42 23.75-.701-1.035a1.248 1.248 0 0 0-.525 1.28l1.226-.245Zm6.8-4.6-.656-1.065-.045.03.701 1.035Zm1.4-3.8 1.201-.343-.01-.033-1.191.376Zm-4.5-1.9.563 1.116.021-.011-.584-1.105Zm-9.1 4.6.559 1.118.004-.002-.563-1.116Zm-4.3 5.6-1.224-.255-.004.017 1.228.238Zm-1.2 6.2.85.916c.195-.181.326-.418.377-.679l-1.227-.237Zm-21.1 19.6-.851-.916-.008.007.859.909Zm-12.1-1.4 1.044-.688-.005-.006-1.039.694Zm-15.7-23.5 1.039-.694-.002-.003-1.038.697Zm-36.6-7.6-1.205-.335v.004l1.205.331Zm-22.35-3.1a1.25 1.25 0 0 0-2.5 0h2.5Zm25.939-41.485a1.25 1.25 0 1 0-2.379.77l2.379-.77Zm1.81 9.385 1.186-.395a.74.74 0 0 0-.01-.032l-1.175.427Zm-12.3-34 .047-1.249h-.002l-.045 1.249Zm4.6 58-.015-1.25.015 1.25Zm-29.3-22.6-1.248.059v.017l1.248-.076Zm3.6-4.4-.103-1.246-.015.002.118 1.244Zm3.15 35a1.25 1.25 0 0 0 2.5 0h-2.5Zm239.351-55.25a1.25 1.25 0 1 0 0 2.5v-2.5Zm6-4.95 1.249-.037v-.001l-1.249.038Zm-12.4-7.3.929-.836a1.042 1.042 0 0 0-.046-.048l-.883.884Zm-2.6-8.4 1.108.578.01-.019-1.118-.559Zm1.6-3.2-1.101-.593-.018.034 1.119.559Zm-11.6-4.15a1.25 1.25 0 1 0 0 2.5v-2.5Zm44.381 49.759a1.25 1.25 0 0 0 .637-2.418l-.637 2.418Zm-9.341-31.816a1.25 1.25 0 1 0-2.081-1.386l2.081 1.386Zm-46.39 11.307a1.25 1.25 0 1 0 2.5 0h-2.5Zm-2.75-18-1.185-.398-.001.003 1.186.395Zm47-1-1.196.366a1.25 1.25 0 0 0 2.152.439l-.956-.805Zm13.9 35.3-1.042.691.001.002 1.041-.693Zm-1.866 1.796a1.25 1.25 0 1 0-.669 2.408l.669-2.408Zm-40.052-2.537 5 10 2.236-1.118-5-10-2.236 1.118Zm5.003 10.008c3.014 5.922 7.031 9.342 12.335 9.68l.159-2.495c-4.096-.261-7.479-2.841-10.265-8.319l-2.229 1.134Zm12.341 9.681c3.982.234 7.899-2.691 8.023-6.911l-2.499-.074c-.076 2.58-2.559 4.655-5.377 4.489l-.147 2.496Zm8.021-6.877c.243-4.245-3.158-7.621-7.247-7.621v2.5c2.71 0 4.909 2.224 4.752 4.979l2.495.142Zm-7.247-7.621c-5.288 0-9.824 1.599-13.929 5.042-4.064 3.409-7.656 8.583-11.189 15.649l2.236 1.118c3.467-6.934 6.874-11.76 10.56-14.851 3.645-3.057 7.609-4.458 12.322-4.458v-2.5Zm-25.118 20.691-9.7 19.4 2.236 1.118 9.7-19.4-2.236-1.118Zm-9.706 19.411c-1.782 3.653-5.534 5.898-9.576 5.898v2.5c4.957 0 9.605-2.755 11.823-7.302l-2.247-1.096Zm-9.576 5.898h-23.3v2.5h23.3v-2.5Zm-23.3 0c-.501 0-1.083-.194-1.68-.535l-1.241 2.17c.803.459 1.822.865 2.921.865v-2.5Zm-1.581-.472-5.4-3.8-1.439 2.044 5.4 3.8 1.439-2.044Zm-5.388-3.791c-2.012-1.454-4.507-2.263-7.045-2.032l.227 2.49c1.862-.169 3.767.421 5.355 1.568l1.463-2.026Zm-6.951-2.037-6.3.1.039 2.5 6.3-.1-.039-2.5Zm-6.394.105c-2.869.261-5.136 2.625-5.136 5.945h2.5c0-2.08 1.332-3.316 2.863-3.455l-.227-2.49Zm-5.135 6.004.1 2.1 2.497-.119-.1-2.1-2.497.119Zm.102 2.133a10.967 10.967 0 0 0 3.841 7.564l1.611-1.912a8.469 8.469 0 0 1-2.959-5.836l-2.493.184Zm3.823 7.549c1.842 1.611 4.109 2.385 6.405 2.603l.237-2.488c-1.904-.182-3.637-.808-4.995-1.997l-1.647 1.882Zm6.43 2.605 4 .3.187-2.493-4-.3-.187 2.493Zm4.094-.946c-.907.861-.906.861-.906.862l.001.001.002.002.007.007.018.019.063.063c.054.053.129.127.227.218.196.183.481.436.853.737a22.596 22.596 0 0 0 3.267 2.185c2.86 1.581 7.067 3.156 12.468 3.156v-2.5c-4.9 0-8.693-1.426-11.258-2.844a20.176 20.176 0 0 1-2.905-1.94 13.669 13.669 0 0 1-.89-.786l-.037-.037-.006-.006c-.001 0-.001 0 0 0l.001.001c0 .001.001.001-.905.862Zm89.6-28.65h10v-2.5h-10v2.5Zm10 0c10.59 0 19.25-8.66 19.25-19.25h-2.5c0 9.21-7.541 16.75-16.75 16.75v2.5Zm19.25-19.25v-124h-2.5v124h2.5Zm0-124c0-10.59-8.66-19.25-19.25-19.25v2.5c9.209 0 16.75 7.54 16.75 16.75h2.5Zm-19.25-19.25h-60v2.5h60v-2.5Zm-60 0c-10.591 0-19.25 8.66-19.25 19.25h2.5c0-9.21 7.54-16.75 16.75-16.75v-2.5Zm-19.25 19.25v124h2.5v-124h-2.5Zm0 124c0 10.59 8.659 19.25 19.25 19.25v-2.5c-9.21 0-16.75-7.54-16.75-16.75h-2.5Zm-142.75 48.75h-52v2.5h52v-2.5Zm-52 0c-5.91 0-10.75-4.84-10.75-10.75h-2.5c0 7.29 5.96 13.25 13.25 13.25v-2.5ZM8.895 236.2v-98h-2.5v98h2.5Zm0-98c0-9.21 7.54-16.75 16.75-16.75v-2.5c-10.59 0-19.25 8.66-19.25 19.25h2.5Zm16.75-16.75h132v-2.5h-132v2.5Zm132 0c9.209 0 16.75 7.54 16.75 16.75h2.5c0-10.59-8.66-19.25-19.25-19.25v2.5Zm16.75 16.75v49h2.5v-49h-2.5Zm81.35 43.85h-7.1v2.5h7.1v-2.5Zm-7.1 0c-4.257 0-7.65-3.586-7.65-7.95h-2.5c0 5.636 4.406 10.45 10.15 10.45v-2.5Zm-7.65-7.95v-5.8h-2.5v5.8h2.5Zm-96.6 72.1v14h2.5v-14h-2.5Zm0 14c0 1.79 1.459 3.25 3.25 3.25v-2.5c-.41 0-.75-.34-.75-.75h-2.5Zm3.25 3.25h44v-2.5h-44v2.5Zm44 0c1.79 0 3.25-1.46 3.25-3.25h-2.5c0 .41-.341.75-.75.75v2.5Zm3.25-3.25v-6h-2.5v6h2.5Zm-48-41v-23h-2.5v23h2.5Zm0-23c0-.41.34-.75.75-.75v-2.5a3.256 3.256 0 0 0-3.25 3.25h2.5Zm.75-.75h33.2v-2.5h-33.2v2.5Zm33.2 0c.158 0 .343.061.516.234l1.767-1.768a3.223 3.223 0 0 0-2.283-.966v2.5Zm.516.234 10.8 10.8 1.767-1.768-10.8-10.8-1.767 1.768Zm10.8 10.8a.727.727 0 0 1 .234.516h2.5c0-.842-.34-1.657-.967-2.284l-1.767 1.768Zm.234.516v22.2h2.5V207h-2.5Zm-13-11.8v12h2.5v-12h-2.5Zm1.25 13.25h12v-2.5h-12v2.5Zm-34.38 38.835c3.986-2.278 5.346-6.242 5.745-9.43a20.662 20.662 0 0 0-.113-5.756 4.418 4.418 0 0 1-.018-.101l-.006-.029-.002-.009v-.003l-.001-.001-1.225.244-1.226.244-.001-.001.001.002.002.014.013.069a16.726 16.726 0 0 1 .167 1.394c.074.942.102 2.229-.072 3.623-.351 2.812-1.491 5.848-4.505 7.57l1.241 2.17Zm5.08-14.05 6.8-4.6-1.401-2.07-6.8 4.6 1.401 2.07Zm6.755-4.57c1.833-1.129 2.482-3.336 1.946-5.208l-2.403.686c.265.927-.087 1.921-.854 2.392l1.311 2.13Zm1.936-5.241c-.829-2.628-3.871-3.902-6.276-2.629l1.169 2.21c.995-.527 2.353-.001 2.724 1.171l2.383-.752Zm-6.255-2.64-9.1 4.6 1.127 2.232 9.1-4.6-1.127-2.232Zm-9.095 4.598c-2.546 1.273-4.388 3.693-4.965 6.463l2.447.51a6.915 6.915 0 0 1 3.636-4.737l-1.118-2.236Zm-4.969 6.48-1.2 6.2 2.455.475 1.2-6.199-2.455-.476Zm-.823 5.522-21.1 19.6 1.701 1.832 21.1-19.6-1.701-1.832Zm-21.108 19.607c-3.033 2.865-7.924 2.275-10.198-1.179l-2.087 1.375c3.126 4.747 9.835 5.557 14.002 1.622l-1.717-1.818Zm-10.202-1.185-15.7-23.5-2.079 1.388 15.7 23.5 2.079-1.388Zm-15.702-23.503c-4.73-7.041-12.516-11.253-21.038-11.253v2.5c7.679 0 14.692 3.788 18.963 10.147l2.075-1.394ZM58.144 221.05c-2.53 0-4.473 1.744-5.104 4.015l2.409.67c.369-1.329 1.426-2.185 2.696-2.185v-2.5Zm-5.105 4.019c-1.258 4.585-5.385 7.981-10.395 7.981v2.5c6.191 0 11.264-4.204 12.806-9.819l-2.41-.662Zm-10.395 7.981c-5.91 0-10.75-4.84-10.75-10.75h-2.5c0 7.29 5.96 13.25 13.25 13.25v-2.5Zm14-51.85-1.189.385v.001l.002.004a.54.54 0 0 1 .005.015l.018.057.072.22.26.802c.22.673.52 1.593.845 2.582.648 1.969 1.405 4.239 1.813 5.361l2.35-.854c-.393-1.078-1.136-3.309-1.788-5.289-.325-.986-.624-1.903-.843-2.574l-.26-.799-.07-.219-.019-.057a.328.328 0 0 0-.005-.015v-.004l-.001-.001-1.19.385Zm1.815 9.395c.404 1.212.112 1.661-.073 1.846-.287.287-.89.509-1.742.509v2.5c1.148 0 2.546-.278 3.51-1.241 1.064-1.065 1.272-2.616.676-4.404l-2.371.79Zm-5.815 2.355c-3.99 0-7.25 3.26-7.25 7.25h2.5c0-2.61 2.14-4.75 4.75-4.75v-2.5Zm-7.25 7.25c0 .41-.34.75-.75.75v2.5c1.79 0 3.25-1.46 3.25-3.25h-2.5Zm-.75.75c-2.61 0-4.75-2.14-4.75-4.75h-2.5c0 3.99 3.26 7.25 7.25 7.25v-2.5Zm-4.75-4.75v-10h-2.5v10h2.5Zm0-10c0-5.09-4.16-9.25-9.25-9.25v2.5c3.71 0 6.75 3.04 6.75 6.75h2.5Zm-9.25-9.25h-2v2.5h2v-2.5Zm-2 0c-.41 0-.75-.34-.75-.75h-2.5c0 1.79 1.46 3.25 3.25 3.25v-2.5Zm-.75-.75c0-10.594 8.816-19.126 19.406-18.751l.089-2.498c-12.01-.425-21.995 9.243-21.995 21.249h2.5Zm19.404-18.751c10.095.374 18.096 8.989 18.096 19.251h2.5c0-11.539-8.998-21.323-20.503-21.749l-.093 2.498ZM65.394 176.7v22.5h2.5v-22.5h-2.5Zm0 22.5c0 7.529-5.962 13.659-13.465 13.75l.03 2.5c8.898-.109 15.935-7.379 15.935-16.25h-2.5ZM51.93 212.95c-7.51.095-14.422-3.332-19.547-7.839-2.556-2.248-4.638-4.74-6.103-7.143-1.476-2.421-2.279-4.671-2.387-6.444l-2.495.152c.142 2.327 1.152 4.977 2.748 7.594 1.606 2.634 3.855 5.317 6.587 7.719 5.45 4.793 12.938 8.566 21.228 8.461l-.031-2.5Zm-28.036-21.41c-.073-1.525 1.123-2.967 2.47-3.096l-.237-2.488c-2.853.271-4.857 3.029-4.73 5.703l2.497-.119Zm2.455-3.094c1.69-.141 3.047 1.104 3.047 2.754h2.5c0-3.15-2.644-5.505-5.754-5.246l.207 2.492Zm3.047 2.754v31h2.5v-31h-2.5Zm239.35-21.75c4.11 0 7.37-3.388 7.249-7.487l-2.499.074a4.75 4.75 0 0 1-4.75 4.913v2.5Zm7.249-7.488c-.123-4.046-3.646-7.012-7.449-7.012v2.5c2.597 0 4.873 2.033 4.95 4.588l2.499-.076Zm-7.449-7.012h-2.7v2.5h2.7v-2.5Zm-2.7 0c-.991 0-1.937-.382-2.571-1.086l-1.859 1.672c1.166 1.295 2.821 1.914 4.43 1.914v-2.5Zm-2.617-1.134-1.5-1.5-1.767 1.768 1.5 1.5 1.767-1.768Zm-1.5-1.5c-1.43-1.43-1.812-3.642-.875-5.438l-2.217-1.156c-1.463 2.804-.845 6.192 1.325 8.362l1.767-1.768Zm-.865-5.457 1.6-3.2-2.237-1.118-1.6 3.2 2.237 1.118Zm1.582-3.166c1.176-2.185-.514-4.743-2.9-4.743v2.5c.613 0 .923.642.699 1.057l2.201 1.186Zm-2.9-4.743h-9.8v2.5h9.8v-2.5Zm35.218 47.341c-6.888-1.817-13.768-7.271-13.768-16.091h-2.5c0 10.38 8.119 16.526 15.631 18.509l.637-2.418ZM280.995 170.2c0-3.796.95-7.135 1.91-9.536a26.346 26.346 0 0 1 1.312-2.803c.177-.325.324-.574.423-.738.05-.082.089-.142.113-.181l.027-.041a.038.038 0 0 1 .005-.008l.001-.001h-.001v.001l-1.04-.693-1.041-.693-.001.001-.001.002a.279.279 0 0 1-.016.024l-.04.063a21.69 21.69 0 0 0-.624 1.067 28.746 28.746 0 0 0-1.438 3.072c-1.04 2.599-2.089 6.26-2.089 10.464h2.5Zm-40.1-2c0-1.79-1.46-3.25-3.25-3.25v2.5c.409 0 .75.34.75.75h2.5Zm-3.25-3.25h-2v2.5h2v-2.5Zm-2 0c-.867 0-1.608-.227-2-.75-.378-.504-.77-1.739.185-4.605l-2.371-.79c-1.045 3.134-.937 5.399.186 6.895 1.107 1.477 2.866 1.75 4 1.75v-2.5Zm-1.815-5.355 3-9-2.371-.79-3 9 2.371.79Zm2.999-8.997c1.993-5.928 4.869-10.187 8.601-12.971 3.726-2.78 8.421-4.177 14.215-4.177v-2.5c-6.207 0-11.462 1.503-15.71 4.673-4.244 3.166-7.368 7.907-9.475 14.179l2.369.796Zm22.816-17.148c10.234 0 18.96 6.826 21.804 16.116l2.391-.732c-3.156-10.31-12.83-17.884-24.195-17.884v2.5Zm23.956 16.555c1.403-1.666 3.171-2.555 5.044-2.555v-2.5c-2.728 0-5.16 1.311-6.957 3.445l1.913 1.61Zm5.044-2.555c2.017 0 3.926 1.086 5.373 3.023 1.448 1.939 2.377 4.67 2.377 7.727h2.5c0-3.543-1.072-6.812-2.874-9.223-1.803-2.413-4.394-4.027-7.376-4.027v2.5Zm7.75 10.75c0 1.591-.445 3.325-1.082 5.301-.618 1.913-1.435 4.103-2.016 6.334-1.19 4.578-1.509 9.757 2.206 15.356l2.083-1.382c-3.185-4.801-2.954-9.172-1.869-13.345.557-2.143 1.308-4.128 1.975-6.196.647-2.006 1.203-4.059 1.203-6.068h-2.5Zm-.891 26.993c.365.548-.154 1.289-.825 1.103l-.669 2.408c2.929.814 5.21-2.445 3.575-4.897l-2.081 1.386ZM70.844 221.05h-12.7v2.5h12.7v-2.5Zm-14.2-28.1h-4v2.5h4v-2.5Z" fill="url(#a)"/><path d="M46.645 185.2a2 2 0 1 0 0-4 2 2 0 0 0 0 4ZM244.645 155.2a2 2 0 1 0 0-4 2 2 0 0 0 0 4Z" fill="#B55AAF"/><defs><linearGradient id="a" x1="159.645" y1="56.2" x2="159.645" y2="262.2" gradientUnits="userSpaceOnUse"><stop stop-color="#F55868"/><stop offset="1" stop-color="#875AE0"/></linearGradient></defs></svg>