<svg width="320" height="320" viewBox="0 0 320 320" fill="none" xmlns="http://www.w3.org/2000/svg"><path d="M304.895 71.405a1.25 1.25 0 0 0-2.5 0h2.5Zm-256 80a1.25 1.25 0 1 0-2.5 0h2.5Zm102.75-64.25a1.25 1.25 0 1 0 0 2.5v-2.5Zm96 2.5a1.25 1.25 0 0 0 0-2.5v2.5Zm-96 13.5a1.25 1.25 0 1 0 0 2.5v-2.5Zm48 2.5a1.25 1.25 0 0 0 0-2.5v2.5Zm-48 37.5a1.25 1.25 0 1 0 0 2.5v-2.5Zm96 2.5a1.25 1.25 0 0 0 0-2.5v2.5Zm-88 83.75-1.186.395a1.25 1.25 0 0 0 2.371 0l-1.185-.395Zm0 11-.694 1.04c.42.28.967.28 1.387 0l-.693-1.04ZM54.906 80.182a1.25 1.25 0 0 0-.523 2.445l.523-2.445Zm24.438 36.723 1.239.173v-.001l-1.239-.172Zm-30 27.4-.057-1.249h-.01l.067 1.249Zm-1.7-64v1.25c.69 0 1.25-.56 1.25-1.25h-1.25Zm46.75 160a1.25 1.25 0 0 0 2.5 0h-2.5Zm-47.75-144.7-.154-1.24h-.003l.157 1.24Zm-13.8 13.7-1.237-.175-.001.006 1.238.169Zm3 11.6 1.182.407a1.249 1.249 0 0 0-.182-1.157l-1 .75Zm-3.6 6.8-1.008-.74a.17.17 0 0 1-.009.013l1.018.727Zm.9 1.6.139 1.242.017-.002-.155-1.24Zm9.1-3.2.524-1.135a1.249 1.249 0 0 0-1.257.122l.733 1.013Zm8.7 1.3.16 1.239.015-.002-.175-1.237Zm13.7-13.9 1.243.14v-.01l-1.243-.13Zm237.751-42.1v175h2.5v-175h-2.5Zm0 175c0 9.209-7.541 16.75-16.75 16.75v2.5c10.59 0 19.25-8.66 19.25-19.25h-2.5Zm-16.75 16.75h-220v2.5h220v-2.5Zm-220 0c-9.21 0-16.75-7.541-16.75-16.75h-2.5c0 10.59 8.66 19.25 19.25 19.25v-2.5Zm-16.75-16.75v-95h-2.5v95h2.5Zm83.5-150a8.75 8.75 0 0 1-8.75 8.75v2.5c6.213 0 11.25-5.037 11.25-11.25h-2.5Zm-8.75 8.75a8.75 8.75 0 0 1-8.75-8.75h-2.5c0 6.213 5.036 11.25 11.25 11.25v-2.5Zm-8.75-8.75a8.75 8.75 0 0 1 8.75-8.75v-2.5c-6.214 0-11.25 5.036-11.25 11.25h2.5Zm8.75-8.75a8.75 8.75 0 0 1 8.75 8.75h2.5c0-6.214-5.037-11.25-11.25-11.25v2.5Zm8.75 64.75a8.75 8.75 0 0 1-8.75 8.75v2.5c6.213 0 11.25-5.037 11.25-11.25h-2.5Zm-8.75 8.75a8.75 8.75 0 0 1-8.75-8.75h-2.5c0 6.213 5.036 11.25 11.25 11.25v-2.5Zm-8.75-8.75a8.75 8.75 0 0 1 8.75-8.75v-2.5c-6.214 0-11.25 5.036-11.25 11.25h2.5Zm8.75-8.75a8.75 8.75 0 0 1 8.75 8.75h2.5c0-6.214-5.037-11.25-11.25-11.25v2.5Zm28-54h96v-2.5h-96v2.5Zm0 16h48v-2.5h-48v2.5Zm0 40h96v-2.5h-96v2.5Zm88 69.5h-80v2.5h80v-2.5Zm-80 0c-3.71 0-6.75-3.041-6.75-6.75h-2.5c0 5.09 4.159 9.25 9.25 9.25v-2.5Zm-6.75-6.75v-40h-2.5v40h2.5Zm0-40c0-3.71 3.04-6.75 6.75-6.75v-2.5c-5.091 0-9.25 4.159-9.25 9.25h2.5Zm6.75-6.75h80v-2.5h-80v2.5Zm80 0c3.709 0 6.75 3.04 6.75 6.75h2.5c0-5.091-4.16-9.25-9.25-9.25v2.5Zm6.75 6.75v40h2.5v-40h-2.5Zm0 40c0 3.809-2.941 6.75-6.75 6.75v2.5c5.19 0 9.25-4.06 9.25-9.25h-2.5Zm-77.5 22c0-2.891-2.36-5.25-5.25-5.25v2.5c1.509 0 2.75 1.24 2.75 2.75h2.5Zm-5.25-5.25c-1.977 0-3.3 1.007-4.086 1.949a6.647 6.647 0 0 0-1.076 1.837l-.016.043-.005.015a.014.014 0 0 1-.002.006l-.001.002v.001l1.186.397 1.185.396v.001l-.001.001-.001.003v.002l.002-.007.022-.056a4.113 4.113 0 0 1 .628-1.04c.464-.558 1.141-1.05 2.165-1.05v-2.5Zm-4 4.25 1.185-.397v-.001l-.001-.002-.002-.006-.005-.015-.016-.043a5.755 5.755 0 0 0-.247-.564 6.647 6.647 0 0 0-.829-1.273c-.786-.942-2.109-1.949-4.085-1.949v2.5c1.023 0 1.7.492 2.164 1.05a4.113 4.113 0 0 1 .628 1.04l.022.056a.106.106 0 0 0 .003.007l-.001-.002-.001-.003-.001-.001v-.001l1.186-.396Zm-4-4.25a5.26 5.26 0 0 0-5.25 5.25h2.5c0-1.51 1.24-2.75 2.75-2.75v-2.5Zm-5.25 5.25c0 2.49 1.529 4.791 3.209 6.6 1.718 1.85 3.806 3.412 5.347 4.44l1.387-2.081c-1.459-.972-3.371-2.41-4.902-4.06-1.571-1.691-2.541-3.39-2.541-4.899h-2.5Zm9.943 11.04c1.541-1.028 3.629-2.59 5.348-4.44 1.679-1.809 3.209-4.11 3.209-6.6h-2.5c0 1.509-.971 3.208-2.541 4.899-1.532 1.65-3.444 3.088-4.903 4.06l1.387 2.081ZM54.383 82.627c14.79 3.17 26.029 17.585 23.723 34.105l2.477.345c2.495-17.88-9.667-33.464-25.677-36.895l-.523 2.445Zm23.724 34.104c-2.018 14.41-14.227 25.653-28.82 26.325l.115 2.497c15.806-.728 28.998-12.885 31.18-28.475l-2.475-.347Zm-28.83 26.325c-17.677.961-32.383-13.161-32.383-30.751h-2.5c0 19.009 15.895 34.287 35.018 33.248l-.135-2.497Zm-32.383-30.751c0-17.01 13.74-30.75 30.75-30.75v-2.5c-18.39 0-33.25 14.86-33.25 33.25h2.5Zm32-32v-6h-2.5v6h2.5Zm0-6c0-9.21 7.54-16.75 16.75-16.75v-2.5c-10.59 0-19.25 8.66-19.25 19.25h2.5Zm16.75-16.75h234.001v-2.5h-234v2.5Zm234.001 0c1.509 0 2.75 1.24 2.75 2.75h2.5c0-2.89-2.36-5.25-5.25-5.25v2.5Zm2.75 2.75c0 1.51-1.241 2.75-2.75 2.75v2.5c2.89 0 5.25-2.36 5.25-5.25h-2.5Zm-2.75 2.75h-192v2.5h192v-2.5Zm-192 0c-7.291 0-13.25 5.96-13.25 13.25h2.5c0-5.91 4.84-10.75 10.75-10.75v-2.5Zm-13.25 13.25v164h2.5v-164h-2.5Zm-47.908 18.06c-7.668.972-13.803 7.116-14.88 14.765l2.475.349c.923-6.551 6.188-11.806 12.72-12.634l-.315-2.48Zm-14.881 14.771c-.647 4.741.651 9.069 3.238 12.519l2-1.5c-2.212-2.951-3.314-6.623-2.76-10.682l-2.478-.337Zm3.057 11.361c-.947 2.746-2.375 5.035-3.426 6.468l2.015 1.479c1.15-1.567 2.721-4.078 3.774-7.132l-2.363-.815Zm-3.436 6.481a2.287 2.287 0 0 0-.158 2.419c.4.743 1.222 1.26 2.214 1.15l-.276-2.485a.276.276 0 0 1 .147.037c.06.032.096.076.116.113a.213.213 0 0 1-.008.219l-2.035-1.453Zm2.073 3.567c2.462-.308 6.518-1.14 9.678-3.428l-1.467-2.025c-2.64 1.912-6.184 2.68-8.522 2.972l.31 2.481Zm8.42-3.305c2.813 1.298 6.05 1.835 9.385 1.404l-.32-2.479c-2.866.37-5.63-.093-8.017-1.195l-1.047 2.27Zm9.399 1.402c7.646-1.077 13.902-7.313 14.768-14.997l-2.485-.28c-.734 6.515-6.078 11.879-12.632 12.802l.349 2.475Zm14.769-15.007c1.181-11.279-8.178-20.673-19.399-19.27l.31 2.48c9.58-1.198 17.62 6.808 16.602 16.529l2.487.261Z" fill="url(#a)"/><defs><linearGradient id="a" x1="159.645" y1="56.305" x2="159.645" y2="264.405" gradientUnits="userSpaceOnUse"><stop stop-color="#FFBE4F"/><stop offset="1" stop-color="#93C437"/></linearGradient></defs></svg>