<svg width="120" height="120" viewBox="0 0 120 120" fill="none" xmlns="http://www.w3.org/2000/svg"><path d="M108.482 56.094a17.078 17.078 0 0 0-11.254-5.302 33.25 33.25 0 0 0-65.274-7.653A20.836 20.836 0 0 0 28 42.75 21.25 21.25 0 0 0 6.764 64.774c.4 11.29 10.143 20.476 21.715 20.476H49a1.25 1.25 0 1 0 0-2.5H28.48c-10.242 0-18.863-8.104-19.217-18.065A18.752 18.752 0 0 1 28 45.25c1.538.007 3.07.203 4.561.583a1.25 1.25 0 0 0 1.521-.925 30.744 30.744 0 0 1 60.637 5.877c-7.504.353-11.59 3.772-12.922 6.988a6.33 6.33 0 0 0 1.32 7.11 6.204 6.204 0 0 0 4.438 1.87 6.97 6.97 0 0 0 2.671-.55c3.213-1.33 6.628-5.407 6.988-12.892a14.727 14.727 0 0 1 13.518 15.404A14.963 14.963 0 0 1 95.548 82.75H70A3.254 3.254 0 0 0 66.75 86v12a4.751 4.751 0 0 1-9.5 0V55.017l9.866 9.867a1.25 1.25 0 0 0 1.768-1.768l-12-12a1.254 1.254 0 0 0-1.769 0l-11.999 12a1.25 1.25 0 0 0 1.768 1.768l9.866-9.867V98a7.248 7.248 0 0 0 7.25 7.25A7.249 7.249 0 0 0 69.25 98V86a.751.751 0 0 1 .75-.75h25.548a17.46 17.46 0 0 0 17.682-16.418 17.117 17.117 0 0 0-4.748-12.738Zm-19.212 7.8a3.888 3.888 0 0 1-5.164-5.164c.983-2.371 4.336-5.115 10.61-5.447-.33 6.275-3.075 9.629-5.446 10.61Z" fill="#000"/></svg>