<svg width="36" height="32" viewBox="0 0 36 32" fill="none" xmlns="http://www.w3.org/2000/svg">
<path d="M11.2334 28.2803H15.2451C16.1592 28.2803 16.7559 27.6836 16.7559 26.9092C16.7559 26.4902 16.5908 26.0713 16.1973 25.627C15.6514 25.0176 15.2959 24.3447 15.2959 23.5576C15.2959 22.0596 16.3369 20.9297 18 20.9297C19.6631 20.9297 20.7041 22.0596 20.7041 23.5576C20.7041 24.3447 20.3613 25.0176 19.8154 25.627C19.4219 26.0713 19.2441 26.4902 19.2441 26.9092C19.2441 27.6836 19.8408 28.2803 20.7676 28.2803H24.7793C27.0137 28.2803 28.2324 27.0869 28.2324 24.8779V20.4473C28.2324 20.2188 28.3975 20.1045 28.6387 20.2695C29.3877 20.8027 30.2383 21.2598 31.3682 21.2598C33.6152 21.2598 35.5322 19.4951 35.5322 16.9053C35.5322 14.3027 33.6152 12.5508 31.3682 12.5508C30.2383 12.5508 29.3877 13.0078 28.6387 13.5283C28.3975 13.7061 28.2324 13.5791 28.2324 13.3633V8.75488C28.2324 6.55859 27.0137 5.36523 24.7793 5.36523H20.7676C19.8408 5.36523 19.2441 5.96191 19.2441 6.73633C19.2441 7.14258 19.4219 7.57422 19.8154 8.00586C20.3613 8.62793 20.7041 9.28809 20.7041 10.0752C20.7041 11.5479 19.6377 12.7158 18 12.7158C16.375 12.7158 15.2959 11.5479 15.2959 10.0752C15.2959 9.28809 15.6514 8.62793 16.1973 8.00586C16.5908 7.57422 16.7559 7.14258 16.7559 6.73633C16.7559 5.96191 16.1592 5.36523 15.2451 5.36523H11.2334C8.98633 5.36523 7.76758 6.55859 7.76758 8.75488V13.3633C7.76758 13.5791 7.61523 13.7061 7.36133 13.5283C6.625 13.0078 5.76172 12.5508 4.63184 12.5508C2.38477 12.5508 0.467773 14.3027 0.467773 16.9053C0.467773 19.4951 2.38477 21.2598 4.63184 21.2598C5.76172 21.2598 6.625 20.8027 7.36133 20.2695C7.61523 20.1045 7.76758 20.2188 7.76758 20.4473V24.8779C7.76758 27.0869 8.98633 28.2803 11.2334 28.2803ZM11.2588 26.6172C10.1162 26.6172 9.43066 25.957 9.43066 24.8018V19.6602C9.43066 18.7461 8.83398 18.1494 8.05957 18.1494C7.64062 18.1494 7.22168 18.3145 6.77734 18.708C6.16797 19.2539 5.50781 19.6094 4.70801 19.6094C3.24805 19.6094 2.08008 18.5303 2.08008 16.9053C2.08008 15.2676 3.24805 14.1885 4.70801 14.1885C5.50781 14.1885 6.16797 14.5439 6.77734 15.0898C7.22168 15.4834 7.64062 15.6611 8.05957 15.6611C8.83398 15.6611 9.43066 15.0645 9.43066 14.1377V8.84375C9.43066 7.68848 10.1162 7.02832 11.2588 7.02832H14.293C14.8135 7.02832 14.7119 7.30762 14.5469 7.56152C14.0771 8.27246 13.6455 9.07227 13.6455 10.1514C13.6455 12.4111 15.4102 14.3281 18 14.3281C20.6025 14.3281 22.3545 12.4111 22.3545 10.1514C22.3545 9.07227 21.9229 8.27246 21.4531 7.56152C21.2881 7.30762 21.1865 7.02832 21.707 7.02832H24.7412C25.8838 7.02832 26.5693 7.68848 26.5693 8.84375V14.1377C26.5693 15.0645 27.166 15.6611 27.9404 15.6611C28.3594 15.6611 28.791 15.4834 29.2227 15.0898C29.832 14.5439 30.5049 14.1885 31.292 14.1885C32.752 14.1885 33.9199 15.2676 33.9199 16.9053C33.9199 18.5303 32.752 19.6094 31.292 19.6094C30.5049 19.6094 29.832 19.2539 29.2227 18.708C28.791 18.3145 28.3594 18.1494 27.9404 18.1494C27.166 18.1494 26.5693 18.7461 26.5693 19.6602V24.8018C26.5693 25.957 25.8838 26.6172 24.7412 26.6172H21.707C21.1865 26.6172 21.2881 26.3379 21.4531 26.084C21.9229 25.3604 22.3545 24.5732 22.3545 23.4814C22.3545 21.1963 20.6406 19.3174 18 19.3174C15.3594 19.3174 13.6455 21.1963 13.6455 23.4814C13.6455 24.5732 14.0771 25.3604 14.5469 26.084C14.7119 26.3379 14.8135 26.6172 14.293 26.6172H11.2588Z" fill="black"/>
</svg>
