<svg width="32" height="32" viewBox="0 0 32 32" fill="none" xmlns="http://www.w3.org/2000/svg">
<path d="M21.6621 16.8418C21.6621 12.8428 20.126 9.18652 17.498 6.48242C17.1299 6.08887 16.6221 6.12695 16.3174 6.45703C16.0254 6.77441 16.0889 7.25684 16.4443 7.6123C18.8057 10.0625 20.1006 13.3125 20.1006 16.8418C20.1006 20.3711 18.8057 23.6338 16.4443 26.0713C16.0889 26.4395 16.0254 26.9219 16.3174 27.2393C16.6221 27.5693 17.1299 27.6074 17.498 27.2139C20.126 24.4971 21.6621 20.8535 21.6621 16.8418ZM17.4727 16.8418C17.4727 14.0107 16.4189 11.3828 14.5781 9.42773C14.21 9.02148 13.6895 9.02148 13.3848 9.37695C13.0674 9.71973 13.1562 10.1641 13.5117 10.5576C15.0605 12.2461 15.9111 14.4551 15.9111 16.8418C15.9111 19.2412 15.0605 21.4502 13.5117 23.1387C13.1562 23.5195 13.0674 23.9766 13.3848 24.3193C13.6895 24.6748 14.21 24.6621 14.5781 24.2686C16.4189 22.3135 17.4727 19.6855 17.4727 16.8418ZM13.2832 16.8418C13.2832 15.2422 12.7246 13.7441 11.7471 12.5762C11.4043 12.1572 10.833 12.1572 10.5156 12.5127C10.2109 12.8555 10.3379 13.2744 10.6426 13.6934C11.3535 14.5439 11.7217 15.6357 11.7217 16.8418C11.7217 18.0479 11.3535 19.1523 10.6426 20.0029C10.3379 20.4092 10.2109 20.8408 10.5156 21.1836C10.833 21.5391 11.4043 21.5391 11.7471 21.1074C12.7246 19.9521 13.2832 18.4541 13.2832 16.8418Z" fill="black"/>
</svg>
