<svg width="32" height="32" viewBox="0 0 32 32" fill="none" xmlns="http://www.w3.org/2000/svg">
<path d="M6 6.25C6.41421 6.25 6.75 6.58579 6.75 7V10.25H10C10.4142 10.25 10.75 10.5858 10.75 11C10.75 11.4142 10.4142 11.75 10 11.75H6.75V15C6.75 15.4142 6.41421 15.75 6 15.75C5.58579 15.75 5.25 15.4142 5.25 15V11.75H2C1.58579 11.75 1.25 11.4142 1.25 11C1.25 10.5858 1.58579 10.25 2 10.25H5.25V7C5.25 6.58579 5.58579 6.25 6 6.25Z" fill="#0F0F0F"/>
<path d="M13.6645 8.7439C14.1258 8.42238 14.6746 8.25 15.2369 8.25H18.7631C19.3254 8.25 19.8742 8.42238 20.3355 8.7439L22.1743 10.0255C22.384 10.1716 22.6335 10.25 22.8891 10.25H26C27.5188 10.25 28.75 11.4812 28.75 13V24C28.75 25.5188 27.5188 26.75 26 26.75H8C6.48122 26.75 5.25 25.5188 5.25 24V18C5.25 17.5858 5.58579 17.25 6 17.25C6.41421 17.25 6.75 17.5858 6.75 18V24C6.75 24.6904 7.30964 25.25 8 25.25H26C26.6904 25.25 27.25 24.6904 27.25 24V13C27.25 12.3096 26.6904 11.75 26 11.75H22.8891C22.3268 11.75 21.778 11.5776 21.3166 11.2561L19.4778 9.9745C19.2681 9.82835 19.0187 9.75 18.7631 9.75H15.2369C14.9813 9.75 14.7319 9.82835 14.5222 9.9745L13.6028 10.6153C13.2629 10.8521 12.7955 10.7687 12.5586 10.4288C12.3218 10.089 12.4052 9.62155 12.7451 9.3847L13.6645 8.7439Z" fill="#0F0F0F"/>
<path d="M17 14.75C15.2051 14.75 13.75 16.2051 13.75 18C13.75 19.7949 15.2051 21.25 17 21.25C18.7949 21.25 20.25 19.7949 20.25 18C20.25 16.2051 18.7949 14.75 17 14.75ZM12.25 18C12.25 15.3766 14.3766 13.25 17 13.25C19.6234 13.25 21.75 15.3766 21.75 18C21.75 20.6234 19.6234 22.75 17 22.75C14.3766 22.75 12.25 20.6234 12.25 18Z" fill="#0F0F0F"/>
</svg>
