<svg width="32" height="32" viewBox="0 0 32 32" fill="none" xmlns="http://www.w3.org/2000/svg">
<path d="M6 6.5C6.27614 6.5 6.5 6.72386 6.5 7V10.5H10C10.2761 10.5 10.5 10.7239 10.5 11C10.5 11.2761 10.2761 11.5 10 11.5H6.5V15C6.5 15.2761 6.27614 15.5 6 15.5C5.72386 15.5 5.5 15.2761 5.5 15V11.5H2C1.72386 11.5 1.5 11.2761 1.5 11C1.5 10.7239 1.72386 10.5 2 10.5H5.5V7C5.5 6.72386 5.72386 6.5 6 6.5Z" fill="#0F0F0F"/>
<path d="M13.8074 8.949C14.2268 8.65671 14.7257 8.5 15.2369 8.5H18.7631C19.2743 8.5 19.7732 8.65671 20.1926 8.949L22.0314 10.2306C22.283 10.406 22.5824 10.5 22.8891 10.5H26C27.3807 10.5 28.5 11.6193 28.5 13V24C28.5 25.3807 27.3807 26.5 26 26.5H8C6.61929 26.5 5.5 25.3807 5.5 24V18C5.5 17.7239 5.72386 17.5 6 17.5C6.27614 17.5 6.5 17.7239 6.5 18V24C6.5 24.8284 7.17157 25.5 8 25.5H26C26.8284 25.5 27.5 24.8284 27.5 24V13C27.5 12.1716 26.8284 11.5 26 11.5H22.8891C22.3779 11.5 21.879 11.3433 21.4596 11.051L19.6208 9.7694C19.3692 9.59402 19.0698 9.5 18.7631 9.5H15.2369C14.9302 9.5 14.6308 9.59402 14.3792 9.7694L13.4598 10.4102C13.2333 10.5681 12.9216 10.5124 12.7637 10.2859C12.6058 10.0593 12.6615 9.7477 12.888 9.5898L13.8074 8.949Z" fill="#0F0F0F"/>
<path d="M17 14.5C15.067 14.5 13.5 16.067 13.5 18C13.5 19.933 15.067 21.5 17 21.5C18.933 21.5 20.5 19.933 20.5 18C20.5 16.067 18.933 14.5 17 14.5ZM12.5 18C12.5 15.5147 14.5147 13.5 17 13.5C19.4853 13.5 21.5 15.5147 21.5 18C21.5 20.4853 19.4853 22.5 17 22.5C14.5147 22.5 12.5 20.4853 12.5 18Z" fill="#0F0F0F"/>
</svg>
