<svg width="32" height="32" viewBox="0 0 32 32" fill="none" xmlns="http://www.w3.org/2000/svg">
<path d="M21.9999 8.00071C21.5602 7.99926 21.1324 8.14323 20.783 8.41021C20.4336 8.67719 20.1823 9.0522 20.0682 9.47685C19.9541 9.9015 19.9836 10.352 20.1521 10.7581C20.3206 11.1642 20.6187 11.5033 20.9999 11.7224V16.9997C20.9999 17.2649 21.1053 17.5193 21.2928 17.7068C21.4804 17.8944 21.7347 17.9997 21.9999 17.9997C22.2652 17.9997 22.5195 17.8944 22.707 17.7068C22.8946 17.5193 22.9999 17.2649 22.9999 16.9997V11.7224C23.3812 11.5033 23.6792 11.1642 23.8477 10.7581C24.0163 10.352 24.0458 9.9015 23.9317 9.47685C23.8176 9.0522 23.5663 8.67719 23.2169 8.41021C22.8675 8.14323 22.4396 7.99926 21.9999 8.00071Z" fill="#0F0F0F"/>
<path d="M27.9999 14.2781V9.00071C27.9999 8.73549 27.8946 8.48114 27.707 8.2936C27.5195 8.10607 27.2652 8.00071 26.9999 8.00071C26.7347 8.00071 26.4804 8.10607 26.2928 8.2936C26.1053 8.48114 25.9999 8.73549 25.9999 9.00071V14.2781C25.6187 14.4982 25.3207 14.838 25.1522 15.2447C24.9837 15.6515 24.9541 16.1025 25.0681 16.5277C25.182 16.953 25.4331 17.3288 25.7824 17.5968C26.1317 17.8648 26.5597 18.0101 26.9999 18.0101C27.4402 18.0101 27.8682 17.8648 28.2175 17.5968C28.5667 17.3288 28.8178 16.953 28.9318 16.5277C29.0457 16.1025 29.0162 15.6515 28.8477 15.2447C28.6792 14.838 28.3812 14.4982 27.9999 14.2781Z" fill="#0F0F0F"/>
<path d="M18.9892 27.9997H17.0097C15.83 28.0289 14.6798 27.6294 13.7723 26.8751C12.8648 26.1209 12.2617 25.0631 12.0746 23.898C13.4555 23.6454 14.7043 22.9172 15.604 21.8397C16.5038 20.7621 16.9977 19.4035 16.9999 17.9997V7.99974C16.9999 7.21181 16.8447 6.43159 16.5432 5.70364C16.2417 4.97569 15.7997 4.31425 15.2426 3.7571C14.6854 3.19995 14.024 2.75799 13.296 2.45646C12.5681 2.15494 11.7879 1.99974 10.9999 1.99974C10.212 1.99974 9.43179 2.15494 8.70384 2.45646C7.97588 2.75799 7.31445 3.19995 6.7573 3.7571C6.20014 4.31425 5.75819 4.97569 5.45666 5.70364C5.15513 6.43159 4.99994 7.21181 4.99994 7.99974V17.9997C5.0024 19.4256 5.51222 20.804 6.43813 21.8882C7.36405 22.9725 8.64562 23.6919 10.0535 23.9176C10.2415 25.4649 10.9466 26.9033 12.0545 27.9997H2.9892C2.72398 27.9997 2.46963 28.1051 2.28209 28.2926C2.09455 28.4802 1.9892 28.7345 1.9892 28.9997C1.9892 29.265 2.09455 29.5193 2.28209 29.7068C2.46963 29.8944 2.72398 29.9997 2.9892 29.9997H18.9892C19.2544 29.9997 19.5088 29.8944 19.6963 29.7068C19.8838 29.5193 19.9892 29.265 19.9892 28.9997C19.9892 28.7345 19.8838 28.4802 19.6963 28.2926C19.5088 28.1051 19.2544 27.9997 18.9892 27.9997ZM6.99994 17.9997V7.99973C6.99994 6.93887 7.42136 5.92145 8.17151 5.1713C8.92165 4.42116 9.93907 3.99973 10.9999 3.99973C12.0608 3.99973 13.0782 4.42116 13.8284 5.1713C14.5785 5.92145 14.9999 6.93887 14.9999 7.99973V17.9997C14.9999 19.0606 14.5785 20.078 13.8284 20.8282C13.0782 21.5783 12.0608 21.9997 10.9999 21.9997C9.93907 21.9997 8.92165 21.5783 8.17151 20.8282C7.42136 20.078 6.99994 19.0606 6.99994 17.9997Z" fill="#0F0F0F"/>
</svg>
