<svg width="32" height="32" viewBox="0 0 32 32" fill="none" xmlns="http://www.w3.org/2000/svg">
<path d="M9 8.73244C9.5978 8.38663 10 7.74028 10 7C10 5.89543 9.10457 5 8 5C6.89543 5 6 5.89543 6 7C6 7.74028 6.4022 8.38663 7 8.73244V26C7 26.5523 7.44772 27 8 27C8.55228 27 9 26.5523 9 26V8.73244Z" fill="#0F0F0F"/>
<path d="M16 5C15.4477 5 15 5.44772 15 6V23.2676C14.4022 23.6134 14 24.2597 14 25C14 26.1046 14.8954 27 16 27C17.1046 27 18 26.1046 18 25C18 24.2597 17.5978 23.6134 17 23.2676V6C17 5.44772 16.5523 5 16 5Z" fill="#0F0F0F"/>
<path d="M23 6C23 5.44772 23.4477 5 24 5C24.5523 5 25 5.44772 25 6V14.2676C25.5978 14.6134 26 15.2597 26 16C26 16.7403 25.5978 17.3866 25 17.7324V26C25 26.5523 24.5523 27 24 27C23.4477 27 23 26.5523 23 26V17.7324C22.4022 17.3866 22 16.7403 22 16C22 15.2597 22.4022 14.6134 23 14.2676V6Z" fill="#0F0F0F"/>
</svg>
