<svg width="32" height="32" viewBox="0 0 32 32" fill="none" xmlns="http://www.w3.org/2000/svg">
<path d="M27.88 14.0247C27.749 14.0353 27.6214 14.0716 27.5045 14.1315C27.3876 14.1914 27.2836 14.2738 27.1985 14.3739C27.1135 14.474 27.0489 14.5899 27.0087 14.715C26.9684 14.8401 26.9532 14.9718 26.9639 15.1028C26.988 15.3987 27 15.6978 27 16C26.9994 17.8971 26.5084 19.7618 25.5746 21.4131C24.6408 23.0644 23.2959 24.4462 21.6705 25.4244C20.0451 26.4026 18.1944 26.9439 16.298 26.9958C14.4017 27.0478 12.5241 26.6085 10.8476 25.7207C10.6837 25.6336 10.4988 25.5938 10.3135 25.6058C10.1283 25.6177 9.95008 25.6811 9.79879 25.7886C9.06219 26.3105 8.22654 26.6762 7.34329 26.8629C6.46005 27.0497 5.54792 27.0537 4.66309 26.8746C5.84238 25.9706 6.71377 24.7246 7.15819 23.3067C7.21534 23.1535 7.2341 22.9886 7.21281 22.8265C7.19152 22.6644 7.13085 22.51 7.03609 22.3767C5.8657 20.7312 5.17082 18.7952 5.02758 16.781C4.88435 14.7668 5.29829 12.752 6.22404 10.9574C7.1498 9.16281 8.55165 7.65764 10.276 6.60683C12.0004 5.55602 13.9807 5.00011 16 5C16.3086 5 16.6152 5.0127 16.917 5.0376C17.0481 5.04991 17.1803 5.03592 17.306 4.99645C17.4316 4.95697 17.5481 4.89281 17.6486 4.80773C17.7491 4.72265 17.8316 4.61835 17.8913 4.50096C17.951 4.38357 17.9866 4.25544 17.9961 4.1241C18.0071 3.99323 17.9921 3.86148 17.9522 3.73638C17.9122 3.61128 17.848 3.49527 17.7632 3.39498C17.6784 3.29469 17.5747 3.21209 17.458 3.15188C17.3413 3.09168 17.2139 3.05505 17.083 3.0441C16.7262 3.0147 16.3652 3 16 3C13.6603 3.00011 11.3641 3.63157 9.35332 4.82778C7.34259 6.02399 5.6919 7.74063 4.57535 9.79667C3.45879 11.8527 2.91774 14.1719 3.00925 16.5098C3.10076 18.8477 3.82144 21.1175 5.09529 23.08C4.72066 24.1265 3.98725 25.0064 3.02529 25.5634C2.87189 25.6606 2.73129 25.75 2.60929 25.8403C2.39858 25.9929 2.23202 26.1985 2.12653 26.4364C2.02104 26.6742 1.98038 26.9357 2.00869 27.1943C2.03649 27.4552 2.13181 27.7044 2.28525 27.9173C2.43868 28.1301 2.64494 28.2993 2.88369 28.4082C3.86394 28.814 4.91655 29.016 5.97739 29.0019C7.55349 29.0078 9.10037 28.5766 10.4462 27.7563C12.4279 28.6917 14.6138 29.1111 16.8009 28.9756C18.988 28.84 21.1055 28.154 22.9565 26.9811C24.8075 25.8082 26.3321 24.1866 27.3887 22.2668C28.4452 20.347 28.9995 18.1913 29 16C29 15.6431 28.986 15.2898 28.958 14.94C28.9364 14.6757 28.8107 14.4307 28.6085 14.2591C28.4064 14.0875 28.1443 14.0031 27.88 14.0247Z" fill="#0F0F0F"/>
<path d="M28.125 5C28.7463 5 29.25 4.49632 29.25 3.875C29.25 3.25368 28.7463 2.75 28.125 2.75C27.5037 2.75 27 3.25368 27 3.875C27 4.49632 27.5037 5 28.125 5ZM20.25 8.5625C20.25 6.80209 21.6771 5.375 23.4375 5.375C25.1979 5.375 26.625 6.80209 26.625 8.5625C26.625 10.3229 25.1979 11.75 23.4375 11.75C21.6771 11.75 20.25 10.3229 20.25 8.5625ZM23.4375 3.875C20.8487 3.875 18.75 5.97367 18.75 8.5625C18.75 11.1513 20.8487 13.25 23.4375 13.25C26.0263 13.25 28.125 11.1513 28.125 8.5625C28.125 5.97367 26.0263 3.875 23.4375 3.875Z" fill="url(#paint0_linear_42808_10)"/>
<defs>
<linearGradient id="paint0_linear_42808_10" x1="30" y1="2" x2="18" y2="14" gradientUnits="userSpaceOnUse">
<stop stop-color="#3CC29A"/>
<stop offset="1" stop-color="#0672EF"/>
</linearGradient>
</defs>
</svg>
