<svg width="32" height="32" viewBox="0 0 32 32" fill="none" xmlns="http://www.w3.org/2000/svg">
<path d="M28.125 11C28.7463 11 29.25 10.4963 29.25 9.875C29.25 9.25368 28.7463 8.75 28.125 8.75C27.5037 8.75 27 9.25368 27 9.875C27 10.4963 27.5037 11 28.125 11ZM20.25 14.5625C20.25 12.8021 21.6771 11.375 23.4375 11.375C25.1979 11.375 26.625 12.8021 26.625 14.5625C26.625 16.3229 25.1979 17.75 23.4375 17.75C21.6771 17.75 20.25 16.3229 20.25 14.5625ZM23.4375 9.875C20.8487 9.875 18.75 11.9737 18.75 14.5625C18.75 17.1513 20.8487 19.25 23.4375 19.25C26.0263 19.25 28.125 17.1513 28.125 14.5625C28.125 11.9737 26.0263 9.875 23.4375 9.875Z" fill="url(#paint0_linear_42786_46)"/>
<path d="M25.668 3.62959C26.2738 3.8806 26.8241 4.2485 27.2876 4.71228C27.6994 5.12514 28.0317 5.60254 28.2746 6.12066C28.3232 6.22002 28.3501 6.3319 28.3501 6.44995C28.3501 6.86416 28.0143 7.19995 27.6001 7.19995C27.3137 7.19995 27.0648 7.03944 26.9385 6.80346L26.9369 6.80425C26.7651 6.42468 26.5251 6.07534 26.2248 5.77505C25.5702 5.12042 24.6825 4.75247 23.7567 4.75205C22.8309 4.75164 21.9428 5.11879 21.2876 5.77283L4.82325 22.2377C4.79993 22.2608 4.78145 22.2884 4.76888 22.3187C4.75631 22.349 4.74989 22.3816 4.75001 22.4144V27.0004C4.75013 27.0666 4.77651 27.1301 4.82337 27.177C4.87023 27.2239 4.93374 27.2502 5.00001 27.2504H9.58546C9.6519 27.2504 9.71564 27.224 9.7627 27.1771L17.458 19.4816C17.4657 19.4736 17.4735 19.4657 17.4815 19.4581L17.5235 19.4161L17.5261 19.4187C17.6553 19.3132 17.8203 19.25 18 19.25C18.4142 19.25 18.75 19.5858 18.75 20C18.75 20.1797 18.6868 20.3447 18.5813 20.4739L18.5841 20.4766L10.8232 28.2377C10.6611 28.4008 10.4683 28.5302 10.2558 28.6182C10.0433 28.7062 9.81545 28.7511 9.58546 28.7504H5.00001C4.53605 28.7498 4.09126 28.5653 3.76319 28.2372C3.43512 27.9091 3.25057 27.4643 3.25001 27.0004V22.4144C3.24932 22.1845 3.29429 21.9568 3.3823 21.7444C3.47031 21.532 3.5996 21.3392 3.7627 21.1771L20.2271 4.71228C20.6906 4.2485 21.2409 3.8806 21.8466 3.62959C22.4524 3.37858 23.1016 3.24939 23.7573 3.24939C24.413 3.24939 25.0623 3.37858 25.668 3.62959Z" fill="#0F0F0F"/>
<defs>
<linearGradient id="paint0_linear_42786_46" x1="30" y1="8" x2="18" y2="20" gradientUnits="userSpaceOnUse">
<stop stop-color="#3CC29A"/>
<stop offset="1" stop-color="#0672EF"/>
</linearGradient>
</defs>
</svg>
