<svg width="32" height="32" viewBox="0 0 32 32" fill="none" xmlns="http://www.w3.org/2000/svg">
<path d="M4 26.75H28C28.41 26.75 28.75 26.41 28.75 26C28.75 25.59 28.41 25.25 28 25.25H4C3.59 25.25 3.25 25.59 3.25 26C3.25 26.41 3.59 26.75 4 26.75Z" fill="#0F0F0F"/>
<path d="M8 11.25C7.59 11.25 7.25 11.59 7.25 12V22C7.25 22.41 7.59 22.75 8 22.75H14C14.41 22.75 14.75 22.41 14.75 22V12C14.75 11.59 14.41 11.25 14 11.25H8ZM13.25 21.25H8.75V12.75H13.25V21.25Z" fill="#0F0F0F"/>
<path d="M18 6.25C17.59 6.25 17.25 6.59 17.25 7V22C17.25 22.41 17.59 22.75 18 22.75H24C24.41 22.75 24.75 22.41 24.75 22V7C24.75 6.59 24.41 6.25 24 6.25H18ZM23.25 21.25H18.75V7.75H23.25V21.25Z" fill="#0F0F0F"/>
</svg>
