<svg width="32" height="32" viewBox="0 0 32 32" fill="none" xmlns="http://www.w3.org/2000/svg">
<path fill-rule="evenodd" clip-rule="evenodd" d="M5.5 4C5.5 3.72386 5.27614 3.5 5 3.5C4.72386 3.5 4.5 3.72386 4.5 4V28C4.5 28.2761 4.72386 28.5 5 28.5C5.27614 28.5 5.5 28.2761 5.5 28V4ZM8.5 8C8.5 7.72386 8.72386 7.5 9 7.5H24C24.2761 7.5 24.5 7.72386 24.5 8V14C24.5 14.2761 24.2761 14.5 24 14.5H9C8.72386 14.5 8.5 14.2761 8.5 14V8ZM9.5 8.5V13.5H23.5V8.5H9.5ZM8.5 18C8.5 17.7239 8.72386 17.5 9 17.5H19C19.2761 17.5 19.5 17.7239 19.5 18V24C19.5 24.2761 19.2761 24.5 19 24.5H9C8.72386 24.5 8.5 24.2761 8.5 24V18ZM9.5 18.5V23.5H18.5V18.5H9.5Z" fill="#0F0F0F"/>
</svg>
