<svg width="32" height="32" viewBox="0 0 32 32" fill="none" xmlns="http://www.w3.org/2000/svg">
<path d="M4 6.75H28C28.41 6.75 28.75 6.41 28.75 6C28.75 5.59 28.41 5.25 28 5.25H4C3.59 5.25 3.25 5.59 3.25 6C3.25 6.41 3.59 6.75 4 6.75Z" fill="#010101"/>
<path d="M18 9.25C17.59 9.25 17.25 9.59 17.25 10V20C17.25 20.41 17.59 20.75 18 20.75H24C24.41 20.75 24.75 20.41 24.75 20V10C24.75 9.59 24.41 9.25 24 9.25H18ZM23.25 19.25H18.75V10.75H23.25V19.25Z" fill="#010101"/>
<path d="M8 9.25C7.59 9.25 7.25 9.59 7.25 10V25C7.25 25.41 7.59 25.75 8 25.75H14C14.41 25.75 14.75 25.41 14.75 25V10C14.75 9.59 14.41 9.25 14 9.25H8ZM13.25 24.25H8.75V10.75H13.25V24.25Z" fill="#010101"/>
</svg>
