<svg width="32" height="32" viewBox="0 0 32 32" fill="none" xmlns="http://www.w3.org/2000/svg">
<path d="M8.25 8V14C8.25 14.4142 8.58579 14.75 9 14.75H24C24.4142 14.75 24.75 14.4142 24.75 14V8C24.75 7.58579 24.4142 7.25 24 7.25H9C8.58579 7.25 8.25 7.58579 8.25 8ZM9.75 8.75H23.25V13.25H9.75V8.75Z" fill="#0F0F0F"/>
<path d="M8.25 18C8.25 17.5858 8.58579 17.25 9 17.25H19C19.4142 17.25 19.75 17.5858 19.75 18V24C19.75 24.4142 19.4142 24.75 19 24.75H9C8.58579 24.75 8.25 24.4142 8.25 24V18ZM9.75 18.75V23.25H18.25V18.75H9.75Z" fill="#0F0F0F"/>
<path d="M5 3.25C5.41421 3.25 5.75 3.58579 5.75 4V28C5.75 28.4142 5.41421 28.75 5 28.75C4.58579 28.75 4.25 28.4142 4.25 28V4C4.25 3.58579 4.58579 3.25 5 3.25Z" fill="#0F0F0F"/>
</svg>
