<svg width="32" height="32" viewBox="0 0 32 32" fill="none" xmlns="http://www.w3.org/2000/svg">
<path fill-rule="evenodd" clip-rule="evenodd" d="M18.4864 3.3331C18.4258 3.6027 18.1592 3.7736 17.8887 3.7101C17.2715 3.5705 16.6357 3.5002 16 3.5C11.3135 3.5 7.5 7.3135 7.5 12V19C7.5 19.2764 7.2764 19.5 7 19.5C4.5186 19.5 2.5 17.4814 2.5 15C2.5 12.665 4.3086 10.7402 6.6152 10.5205C7.3271 5.9824 11.2646 2.5 16 2.5C16.71 2.5 17.4199 2.5792 18.1094 2.7354C18.379 2.796 18.5479 3.0636 18.4864 3.3331ZM3.5 15.0002C3.5 16.7599 4.8057 18.2209 6.5 18.465L6.5107 11.5412C4.8076 11.8 3.5 13.2522 3.5 15.0002ZM28.501 15.0002C28.501 14.7238 28.7246 14.5002 29.001 14.5002C29.2773 14.5002 29.501 14.7238 29.5009 15C29.5009 15.3828 29.453 15.7608 29.3573 16.1221C28.875 17.9682 27.2725 19.2829 25.3821 19.4637C24.803 23.1817 22.06 26.188 18.4838 27.1594C18.3999 28.4629 17.3242 29.5001 15.9999 29.5001C14.621 29.5001 13.4999 28.379 13.4999 27.0001C13.4999 25.6212 14.621 24.5001 15.9999 24.5001C17.0842 24.5001 17.9997 25.1968 18.3454 26.1635C21.8937 25.1419 24.4999 21.8724 24.4999 18.0001V17.0001C24.4999 16.7237 24.7235 16.5001 24.9999 16.5001C25.2763 16.5001 25.4999 16.7237 25.4999 17.0001V18.0001C25.4999 18.1104 25.4937 18.2191 25.4875 18.3278C25.4851 18.3704 25.4827 18.413 25.4806 18.4557C26.8723 18.2471 28.0308 17.2444 28.3906 15.8693C28.4629 15.593 28.501 15.2932 28.501 15.0002ZM14.5 27.0002C14.5 27.8273 15.1729 28.5002 16 28.5002C16.8271 28.5002 17.5 27.8273 17.5 27.0002C17.5 26.1731 16.8271 25.5002 16 25.5002C15.1729 25.5002 14.5 26.1731 14.5 27.0002ZM23.1485 4.30889C23.0904 4.10277 22.9075 3.9565 22.6937 3.94516C22.4798 3.93383 22.2825 4.05993 22.203 4.25877L20.5509 8.38891H17.7783C17.5022 8.38891 17.2783 8.61276 17.2783 8.88891C17.2783 9.16505 17.5022 9.38891 17.7783 9.38891H20.8894C21.0939 9.38891 21.2777 9.26443 21.3537 9.0746L22.5849 5.99645L24.4082 12.4689C24.4638 12.6666 24.6347 12.8101 24.839 12.8308C25.0434 12.8515 25.2396 12.7452 25.3337 12.5627L26.9718 9.38891H29.7783C30.0545 9.38891 30.2783 9.16505 30.2783 8.88891C30.2783 8.61276 30.0545 8.38891 29.7783 8.38891H26.6672C26.4801 8.38891 26.3087 8.49334 26.2229 8.65959L25.0268 10.977L23.1485 4.30889Z" fill="#0F0F0F"/>
</svg>
