<svg width="32" height="33" viewBox="0 0 32 33" fill="none" xmlns="http://www.w3.org/2000/svg">
<path fill-rule="evenodd" clip-rule="evenodd" d="M18.7305 4.30573C18.6387 4.71003 18.2383 4.96193 17.834 4.87213C17.2344 4.73633 16.6172 4.66803 16 4.66803C11.4512 4.66803 7.75 8.36923 7.75 12.9181V19.9181C7.75 20.3322 7.4141 20.6681 7 20.6681C4.3809 20.6681 2.25 18.5372 2.25 15.9181C2.25 13.5186 4.0586 11.5294 6.3994 11.212C7.208 6.64653 11.2061 3.16803 16 3.16803C16.7285 3.16803 17.4571 3.24903 18.1641 3.40923C18.5684 3.50003 18.8223 3.90243 18.7305 4.30573ZM3.75 15.918C3.75 17.4522 4.8184 18.7413 6.25 19.0811L6.251 12.7647C4.8164 13.1192 3.75 14.3985 3.75 15.918ZM28.251 15.9181C28.251 15.504 28.5869 15.1681 29.001 15.1681C29.415 15.1681 29.751 15.504 29.7511 15.9182C29.7511 16.3225 29.7003 16.7219 29.5997 17.1037C29.1074 18.9893 27.5088 20.3541 25.5996 20.6137C24.9519 24.2847 22.2426 27.2507 18.7139 28.2761C18.5364 29.6224 17.3941 30.6682 16.0001 30.6682C14.4835 30.6682 13.2501 29.4348 13.2501 27.9182C13.2501 26.4016 14.4835 25.1682 16.0001 25.1682C17.1097 25.1682 18.062 25.8316 18.4963 26.7799C21.8284 25.7193 24.2501 22.597 24.2501 18.9182V17.9182C24.2501 17.5041 24.586 17.1682 25.0001 17.1682C25.4142 17.1682 25.7501 17.5041 25.7501 17.9182V18.9182C25.7501 18.9438 25.7486 18.9691 25.7471 18.9943V18.9944V18.9944L25.7471 18.9945C25.7457 19.0165 25.7444 19.0384 25.7441 19.0607C26.9009 18.7763 27.8412 17.9004 28.1485 16.7238C28.2158 16.4679 28.251 16.1896 28.251 15.9181ZM14.75 27.9181C14.75 28.6076 15.3105 29.1681 16 29.1681C16.6894 29.1681 17.25 28.6076 17.25 27.9181C17.25 27.2286 16.6895 26.6681 16 26.6681C15.3105 26.6681 14.75 27.2286 14.75 27.9181ZM23.3891 5.15914C23.302 4.84995 23.0277 4.63055 22.7069 4.61355C22.3861 4.59654 22.0902 4.7857 21.9709 5.08395L20.3817 9.05694H17.7783C17.3641 9.05694 17.0283 9.39273 17.0283 9.80694C17.0283 10.2212 17.3641 10.5569 17.7783 10.5569H20.8894C21.1961 10.5569 21.4719 10.3702 21.5858 10.0855L22.5438 7.69048L24.1675 13.4547C24.251 13.7512 24.5074 13.9665 24.8139 13.9976C25.1203 14.0286 25.4146 13.8691 25.5559 13.5954L27.1241 10.5569H29.7783C30.1925 10.5569 30.5283 10.2212 30.5283 9.80694C30.5283 9.39273 30.1925 9.05694 29.7783 9.05694H26.6672C26.3866 9.05694 26.1294 9.21359 26.0007 9.46296L25.0955 11.2168L23.3891 5.15914Z" fill="#0F0F0F"/>
</svg>
