<svg width="32" height="32" viewBox="0 0 32 32" fill="none" xmlns="http://www.w3.org/2000/svg">
<path d="M18.9746 3.44334C18.8515 3.98144 18.3135 4.31934 17.7783 4.19824C17.1973 4.06644 16.5986 4.00004 16 3.99994C11.5889 3.99994 8 7.58884 8 11.9999V18.9999C8 19.5526 7.5527 19.9999 7 19.9999C4.2432 19.9999 2 17.7567 2 14.9999C2 12.536 3.8115 10.4823 6.1865 10.0741C7.0859 5.47844 11.1445 1.99994 16 1.99994C16.747 1.99994 17.4941 2.08294 18.2197 2.24704C18.7578 2.36914 19.0967 2.90424 18.9746 3.44334ZM4 15C4 16.3037 4.8359 17.416 6 17.8291V12.1846C4.834 12.6074 4 13.71 4 15Z" fill="#0F0F0F"/>
<path d="M28.001 15C28.001 14.4473 28.4483 14 29.001 14C29.5537 14 30.001 14.4472 30.0011 15.0001C30.0011 15.4259 29.9473 15.8468 29.8409 16.2501C29.3379 18.1769 27.7389 19.5965 25.8062 19.9262C25.0949 23.5506 22.4257 26.4816 18.9439 27.5565C18.6873 28.9519 17.4687 30 16.0001 30C14.3458 30 13.0001 28.6543 13.0001 27C13.0001 25.3457 14.3458 24 16.0001 24C17.1272 24 18.0993 24.632 18.6119 25.5533C21.7426 24.4673 24.0001 21.4957 24.0001 18V17C24.0001 16.4473 24.4474 16 25.0001 16C25.5528 16 26.0001 16.4473 26.0001 17V17.8045C26.9173 17.4641 27.6556 16.7019 27.9063 15.7422C27.9688 15.5068 28.001 15.251 28.001 15ZM15 27C15 27.5518 15.4482 28 16 28C16.5517 28 17 27.5518 17 27C17 26.4482 16.5518 26 16 26C15.4482 26 15 26.4482 15 27Z" fill="#0F0F0F"/>
<path d="M23.6297 4.17333C23.5136 3.76107 23.1479 3.46854 22.7201 3.44587C22.2924 3.4232 21.8978 3.67541 21.7387 4.07308L20.2124 7.88891H17.7783C17.226 7.88891 16.7783 8.33663 16.7783 8.88891C16.7783 9.4412 17.226 9.88891 17.7783 9.88891H20.8894C21.2983 9.88891 21.666 9.63996 21.8179 9.2603L22.5027 7.54844L23.9269 12.6045C24.0383 12.9998 24.38 13.2869 24.7887 13.3283C25.1973 13.3697 25.5897 13.157 25.7781 12.792L27.2764 9.88891H29.7783C30.3306 9.88891 30.7783 9.4412 30.7783 8.88891C30.7783 8.33663 30.3306 7.88891 29.7783 7.88891H26.6672C26.2931 7.88891 25.9502 8.09778 25.7786 8.43027L25.1642 9.62064L23.6297 4.17333Z" fill="#0F0F0F"/>
</svg>
