<svg width="32" height="33" viewBox="0 0 32 33" fill="none" xmlns="http://www.w3.org/2000/svg">
<path fill-rule="evenodd" clip-rule="evenodd" d="M18.9746 4.36137C18.8515 4.89947 18.3135 5.23737 17.7783 5.11627C17.1973 4.98447 16.5986 4.91807 16 4.91797C11.5889 4.91797 8 8.50687 8 12.918V19.918C8 20.4707 7.5527 20.918 7 20.918C4.2432 20.918 2 18.6748 2 15.918C2 13.4541 3.8115 11.4004 6.1865 10.9922C7.0859 6.39647 11.1445 2.91797 16 2.91797C16.747 2.91797 17.4941 3.00097 18.2197 3.16507C18.7578 3.28717 19.0967 3.82227 18.9746 4.36137ZM4 15.9181C4 17.2218 4.8359 18.3341 6 18.7472V13.1027C4.834 13.5255 4 14.6281 4 15.9181ZM28.001 15.9181C28.001 15.3654 28.4483 14.9181 29.001 14.9181C29.5537 14.9181 30.001 15.3653 30.0011 15.9182C30.0011 16.344 29.9473 16.7649 29.8409 17.1682C29.3379 19.095 27.7389 20.5146 25.8062 20.8443C25.0949 24.4687 22.4257 27.3997 18.9439 28.4746C18.6873 29.87 17.4687 30.9181 16.0001 30.9181C14.3458 30.9181 13.0001 29.5724 13.0001 27.9181C13.0001 26.2638 14.3458 24.9181 16.0001 24.9181C17.1272 24.9181 18.0993 25.5501 18.6119 26.4714C21.7426 25.3854 24.0001 22.4138 24.0001 18.9181V17.9181C24.0001 17.3654 24.4474 16.9181 25.0001 16.9181C25.5528 16.9181 26.0001 17.3654 26.0001 17.9181V18.7226C26.9173 18.3822 27.6556 17.62 27.9063 16.6603C27.9688 16.4249 28.001 16.1691 28.001 15.9181ZM15 27.9181C15 28.4699 15.4482 28.9181 16 28.9181C16.5517 28.9181 17 28.4699 17 27.9181C17 27.3663 16.5518 26.9181 16 26.9181C15.4482 26.9181 15 27.3663 15 27.9181ZM23.6297 5.09136C23.5136 4.6791 23.1479 4.38657 22.7201 4.3639C22.2924 4.34123 21.8978 4.59344 21.7387 4.99111L20.2124 8.80694H17.7783C17.226 8.80694 16.7783 9.25466 16.7783 9.80694C16.7783 10.3592 17.226 10.8069 17.7783 10.8069H20.8894C21.2983 10.8069 21.666 10.558 21.8179 10.1783L22.5027 8.46647L23.9269 13.5225C24.0383 13.9179 24.38 14.2049 24.7887 14.2463C25.1973 14.2877 25.5897 14.075 25.7781 13.71L27.2764 10.8069H29.7783C30.3306 10.8069 30.7783 10.3592 30.7783 9.80694C30.7783 9.25466 30.3306 8.80694 29.7783 8.80694H26.6672C26.2931 8.80694 25.9502 9.01581 25.7786 9.3483L25.1642 10.5387L23.6297 5.09136Z" fill="#0F0F0F"/>
</svg>
