<svg width="32" height="32" viewBox="0 0 32 32" fill="none" xmlns="http://www.w3.org/2000/svg">
<path d="M28.76 3.87766C28.4464 3.61816 28.0792 3.43123 27.6848 3.33027C27.2904 3.22931 26.8786 3.2168 26.4788 3.29366L6.78737 7.04563C5.51348 7.27994 4.36199 7.95326 3.53307 8.94855C2.70416 9.94383 2.25024 11.1981 2.25024 12.4934C2.25024 13.7886 2.70416 15.0429 3.53307 16.0382C4.36199 17.0335 5.51348 17.7068 6.78737 17.9411L7.51485 18.0798L12.68 27.1823C13.1299 27.906 13.8414 28.4285 14.6665 28.6411C15.4917 28.8537 16.3671 28.7401 17.1106 28.3239C17.4846 28.1161 17.8128 27.8351 18.0759 27.4977C18.339 27.1603 18.5315 26.7734 18.6419 26.3601C18.7513 25.9595 18.7794 25.5411 18.7246 25.1295C18.6697 24.718 18.533 24.3215 18.3226 23.9636L16.0294 19.7025L26.4788 21.6941L26.4798 21.6951C26.6514 21.7273 26.8257 21.7436 27.0003 21.7439C27.6432 21.744 28.266 21.5194 28.761 21.1091C29.0706 20.8538 29.3198 20.5332 29.4909 20.1702C29.6619 19.8072 29.7505 19.4108 29.7503 19.0095V5.97825C29.7505 5.57673 29.6618 5.18013 29.4906 4.81695C29.3194 4.45376 29.0699 4.13299 28.76 3.87766ZM17.1926 25.9724C17.1335 26.1926 17.0305 26.3986 16.8899 26.5782C16.7493 26.7577 16.5739 26.9071 16.3743 27.0173C15.9744 27.245 15.5022 27.3104 15.0555 27.1999C14.6088 27.0894 14.2215 26.8114 13.9739 26.4236L9.45534 18.4607L14.1477 19.3718L17.0169 24.7009C17.1301 24.8901 17.204 25.1003 17.2342 25.3187C17.2645 25.5372 17.2503 25.7595 17.1926 25.9724ZM28.2503 19.0095C28.25 19.1901 28.2099 19.3683 28.1327 19.5316C28.0556 19.6948 27.9433 19.839 27.804 19.9538C27.6601 20.0721 27.4921 20.1574 27.3117 20.2036C27.1313 20.2498 26.943 20.2559 26.76 20.2214L7.06765 16.4685C6.13668 16.2992 5.29466 15.8085 4.68842 15.082C4.08217 14.3555 3.75016 13.4392 3.75028 12.493C3.7504 11.5467 4.08264 10.6306 4.68907 9.90419C5.2955 9.17782 6.13764 8.68734 7.06865 8.51829L26.7601 4.76629C26.9428 4.73154 27.131 4.73741 27.3112 4.78348C27.4915 4.82955 27.6594 4.9147 27.8031 5.03289C27.9427 5.1477 28.0553 5.292 28.1326 5.45544C28.2099 5.61888 28.2501 5.7974 28.2503 5.97821L28.2503 19.0095Z" fill="#0F0F0F"/>
</svg>
