<svg width="32" height="32" viewBox="0 0 32 32" fill="none" xmlns="http://www.w3.org/2000/svg">
<path d="M24.4424 25.4111C24.4424 26.8457 25.3945 27.7979 26.8037 27.7979C28.2256 27.7979 29.1904 26.8457 29.1904 25.4111V6.17773C29.1904 4.75586 28.2256 3.79102 26.8037 3.79102C25.3945 3.79102 24.4424 4.75586 24.4424 6.17773V25.4111ZM12.2295 21.5771C15.8223 21.9834 19.6943 23.0244 22.9443 24.7764V6.88867C19.6816 8.64062 15.5811 9.73242 12.2295 10.0879V21.5771ZM7.74805 10.0879C4.52344 10.0879 2.80957 11.751 2.80957 14.8613V16.7783C2.80957 19.9014 4.52344 21.5645 7.74805 21.5645H10.7441V10.0879H7.74805ZM12.7627 29.9053C14.248 29.9053 15.3398 28.8643 14.959 27.0107L14.1719 23.2021C13.5625 22.999 11.9375 22.8848 11.0742 22.8594H7.77344L10.0713 27.8232C10.6934 29.1689 11.4043 29.9053 12.7627 29.9053Z" fill="black"/>
</svg>
