<svg width="34" height="32" viewBox="0 0 34 32" fill="none" xmlns="http://www.w3.org/2000/svg">
<path d="M10.3604 6.62207C10.7158 6.5459 10.9697 6.17773 10.8809 5.84766L10.1318 2.38184C10.0557 2.02637 9.7002 1.81055 9.35742 1.87402C9.00195 1.9375 8.74805 2.29297 8.82422 2.64844L9.57324 6.11426C9.66211 6.45703 10.0049 6.71094 10.3604 6.62207ZM6.00586 7.86621C6.25977 8.13281 6.67871 8.13281 6.93262 7.86621C7.18652 7.6123 7.19922 7.19336 6.93262 6.93945L4.41895 4.42578C4.15234 4.14648 3.74609 4.17188 3.49219 4.42578C3.23828 4.67969 3.21289 5.08594 3.49219 5.35254L6.00586 7.86621ZM14.9814 27.9883C18.7393 31.7461 23.3223 31.4414 26.5977 28.1533C29.2891 25.4619 29.8477 22.5293 28.4385 18.9492C27.7529 17.083 26.75 15.1279 25.582 12.9824C25.1504 12.1826 24.668 11.1797 24.3125 10.8369C23.8682 10.3926 23.2588 10.4307 22.8018 10.8877C22.3193 11.3701 22.3066 11.9795 22.6748 13.0332L24.0459 16.7021C24.2236 17.1338 24.1729 17.3877 24.0078 17.54C23.8174 17.7432 23.5635 17.7686 23.2207 17.4258L14.5117 8.7168C14.0293 8.23438 13.2422 8.23438 12.7725 8.7168C12.29 9.19922 12.29 9.97363 12.7725 10.4561L18.9678 16.6514C18.6377 16.8037 18.2949 16.9941 17.9521 17.21L10.6777 9.93555C10.1953 9.45312 9.4209 9.45312 8.93848 9.93555C8.45605 10.4053 8.45605 11.1924 8.93848 11.6748L16.124 18.8604C15.8574 19.165 15.6035 19.4951 15.375 19.8252L8.84961 13.3125C8.37988 12.8301 7.59277 12.8301 7.11035 13.3125C6.64062 13.7822 6.64062 14.5693 7.11035 15.0518L14.1943 22.123C14.0293 22.5674 13.9277 22.9863 13.8516 23.3799L8.93848 18.4668C8.45605 17.9844 7.68164 17.9844 7.19922 18.4668C6.7168 18.9492 6.7168 19.7236 7.19922 20.2061L14.9814 27.9883ZM21.1895 11.3828L18.5234 8.7168C18.041 8.24707 17.2539 8.24707 16.7842 8.7168C16.7588 8.74219 16.7334 8.76758 16.708 8.80566L21.5703 13.668C21.3545 12.8682 21.2148 12.1064 21.1895 11.3828ZM4.76172 11.8018C5.10449 11.8779 5.47266 11.6621 5.53613 11.2939C5.59961 10.9385 5.38379 10.6084 5.02832 10.5322L1.5498 9.77051C1.16895 9.69434 0.813477 9.93555 0.762695 10.3164C0.711914 10.6719 0.927734 11.002 1.2832 11.0654L4.76172 11.8018ZM30.6094 28.1533C33.3008 25.4746 33.8594 22.5293 32.4502 18.9492C31.7646 17.083 30.7617 15.1406 29.5811 12.9824C29.1621 12.1826 28.6797 11.1797 28.3242 10.8369C27.8799 10.3926 27.2705 10.4307 26.8135 10.8877C26.6484 11.04 26.5469 11.2305 26.4834 11.4336C26.7246 11.8779 26.9531 12.335 27.1943 12.7666C28.2734 14.7852 29.2383 16.6895 29.8477 18.5049C31.3965 22.6436 30.7109 26.1475 27.6514 29.1943C27.0928 29.7656 26.4834 30.248 25.8613 30.6289C27.5752 30.4131 29.2256 29.5498 30.6094 28.1533Z" fill="black"/>
</svg>
