<svg width="33" height="32" viewBox="0 0 33 32" fill="none" xmlns="http://www.w3.org/2000/svg">
<path d="M9.67773 6.62207C10.0332 6.5459 10.2871 6.17773 10.1982 5.84766L9.44922 2.38184C9.37305 2.02637 9.01758 1.81055 8.6748 1.87402C8.31934 1.9375 8.06543 2.29297 8.1416 2.64844L8.89062 6.11426C8.97949 6.45703 9.32227 6.71094 9.67773 6.62207ZM5.32324 7.86621C5.57715 8.13281 6.00879 8.13281 6.25 7.86621C6.50391 7.6123 6.5166 7.19336 6.25 6.93945L3.73633 4.42578C3.46973 4.14648 3.07617 4.17188 2.80957 4.42578C2.55566 4.67969 2.53027 5.08594 2.80957 5.35254L5.32324 7.86621ZM14.7432 7.51074C14.5273 7.72656 14.3623 7.98047 14.2861 8.25977C13.4229 7.72656 12.4707 7.85352 11.7217 8.60254C11.3789 8.94531 11.1885 9.38965 11.1885 9.84668C10.2363 9.08496 9.15723 9.08496 8.33203 9.91016C7.51953 10.7227 7.51953 11.8525 8.24316 12.7666C7.78613 12.7666 7.36719 12.957 7.0498 13.2744C6.21191 14.1123 6.2373 15.2676 7.15137 16.1943L8.1543 17.1973C7.67188 17.1719 7.21484 17.3877 6.84668 17.7432C6.00879 18.5938 6.04688 19.7998 6.97363 20.7266L14.21 27.9629C17.498 31.251 21.2939 31.7207 24.4805 29.7783C26.207 29.5498 27.8574 28.6992 29.3047 27.2646C32.2119 24.3574 32.6943 20.7139 30.7266 16.5752L27.959 10.7734C27.4766 9.77051 26.6895 9.25 25.7627 9.25C25.0898 9.25 24.1504 9.63086 23.833 10.5703C23.0332 10.126 22.0684 10.2656 21.3701 10.9639C21.332 10.9893 21.3066 11.0273 21.2812 11.0654L17.79 7.58691C16.8252 6.62207 15.6445 6.62207 14.7432 7.51074ZM21.8398 15.7246L15.2891 9.17383C15.3018 8.95801 15.3906 8.75488 15.5684 8.58984C15.9492 8.19629 16.4697 8.23438 16.876 8.64062L20.8242 12.5889C20.8623 12.8301 20.9258 13.0713 21.0273 13.3125L21.9795 15.5977C22.0049 15.6484 22.0049 15.6992 21.9795 15.7373C21.9287 15.7754 21.8779 15.7627 21.8398 15.7246ZM25.2422 27.3535C22.2842 30.3115 18.5137 30.3115 15.0732 26.8711L8.04004 19.8379C7.63379 19.4316 7.6084 18.9238 7.98926 18.5303C8.37012 18.1494 8.92871 18.1494 9.33496 18.5557L13.626 22.8467C13.918 23.1387 14.3242 23.1006 14.5654 22.8594C14.8193 22.6055 14.8574 22.1992 14.5654 21.9072L8.11621 15.458C7.70996 15.0518 7.68457 14.5312 8.06543 14.1504C8.44629 13.7695 9.00488 13.7695 9.41113 14.1758L15.416 20.1807C15.708 20.4854 16.1143 20.4473 16.3555 20.1934C16.6094 19.9521 16.6475 19.5332 16.3555 19.2412L9.32227 12.208C8.91602 11.8018 8.89062 11.2432 9.27148 10.8623C9.65234 10.4814 10.1982 10.5195 10.6045 10.9258L17.6504 17.959C17.917 18.2256 18.3232 18.2383 18.5898 17.9717C18.8564 17.7051 18.8564 17.2861 18.5898 17.0195L12.585 11.002C12.1787 10.5957 12.166 10.0498 12.5469 9.66895C12.9277 9.28809 13.4609 9.31348 13.8672 9.71973L22.1572 18.0225C22.5635 18.416 23.0332 18.4033 23.3633 18.0732C23.6553 17.7812 23.7695 17.4131 23.541 16.8545L22.0176 12.9443C21.8018 12.373 21.9795 11.8906 22.4365 11.6748C22.9189 11.4463 23.376 11.6875 23.6553 12.2842L26.4736 18.2383C28.2637 22.0088 27.6162 24.9795 25.2422 27.3535ZM4.0791 11.8018C4.42188 11.8779 4.79004 11.6621 4.85352 11.2939C4.91699 10.9385 4.70117 10.6084 4.3457 10.5322L0.867188 9.77051C0.486328 9.69434 0.130859 9.93555 0.0800781 10.3164C0.0292969 10.6719 0.245117 11.002 0.600586 11.0654L4.0791 11.8018ZM27.7051 17.6543L24.9756 11.9287C24.9248 11.8018 24.8994 11.6748 24.8994 11.5225C24.8994 11.0781 25.2422 10.6719 25.8008 10.6719C26.1689 10.6719 26.5244 10.9131 26.7148 11.3193L29.4951 17.1592C31.2979 20.9297 30.6377 23.9004 28.2637 26.2617C27.9844 26.541 27.6924 26.7949 27.4004 27.0234C29.2793 24.3574 29.3936 21.1963 27.7051 17.6543Z" fill="black"/>
</svg>
