<svg width="34" height="32" viewBox="0 0 34 32" fill="none" xmlns="http://www.w3.org/2000/svg">
<path d="M4.12695 23.7861H6.55176V25.9316C6.55176 28.3818 7.80859 29.6387 10.2969 29.6387H29.8604C32.3359 29.6387 33.6055 28.3691 33.6055 25.9316V12.3604C33.6055 9.91016 32.3359 8.64062 29.8604 8.64062H27.4355V6.58398C27.4355 4.14648 26.166 2.87695 23.6904 2.87695H4.12695C1.63867 2.87695 0.381836 4.13379 0.381836 6.58398V20.0791C0.381836 22.542 1.63867 23.7861 4.12695 23.7861ZM4.15234 22.2119C2.73047 22.2119 1.95605 21.4629 1.95605 19.9902V6.67285C1.95605 5.2002 2.73047 4.45117 4.15234 4.45117H23.665C25.0615 4.45117 25.8613 5.2002 25.8613 6.67285V8.64062H10.2969C7.80859 8.64062 6.55176 9.89746 6.55176 12.3604V22.2119H4.15234ZM10.3223 28.0645C8.8877 28.0645 8.12598 27.3154 8.12598 25.8428V12.4365C8.12598 10.9766 8.8877 10.2148 10.3223 10.2148H29.835C31.2314 10.2148 32.0312 10.9766 32.0312 12.4365V25.8428C32.0312 27.3154 31.2314 28.0645 29.835 28.0645H10.3223Z" fill="black"/>
</svg>
