<svg width="32" height="32" viewBox="0 0 32 32" fill="none" xmlns="http://www.w3.org/2000/svg">
<path d="M11.5771 7.27825L4 12.524V25H28V8.28399L21.3508 14.4218C20.7762 14.9521 19.8905 14.9521 19.3159 14.4218L11.5771 7.27825ZM10.7681 5.40584C11.3456 5.00603 12.1232 5.0605 12.6393 5.53692L20.3333 12.6391L27.4826 6.03979C28.4434 5.15285 30 5.83436 30 7.14199V25.5C30 26.3284 29.3284 27 28.5 27H3.5C2.67157 27 2 26.3284 2 25.5V12.262C2 11.7698 2.24149 11.3089 2.64619 11.0287L10.7681 5.40584Z" fill="#0F0F0F"/>
</svg>
