<svg width="32" height="35" viewBox="0 0 32 35" fill="none" xmlns="http://www.w3.org/2000/svg">
<path d="M10.2744 26.3857H23.4268V30.1309C22.665 30.4482 22.1191 31.1973 22.1191 32.0605C22.1191 33.2158 23.0586 34.1426 24.2012 34.1426C25.3564 34.1426 26.2832 33.2158 26.2832 32.0605C26.2832 31.1973 25.75 30.4482 25.001 30.1436V11.875C25.001 9.80566 23.9346 8.75195 21.8525 8.75195H8.61133V4.99414C9.34766 4.67676 9.86816 3.94043 9.86816 3.07715C9.86816 1.93457 8.94141 0.995117 7.78613 0.995117C6.64355 0.995117 5.7041 1.93457 5.7041 3.07715C5.7041 3.96582 6.2627 4.71484 7.03711 5.01953V23.1865C7.03711 25.3193 8.12891 26.3857 10.2744 26.3857ZM10.2617 24.9004C9.16992 24.9004 8.61133 24.3164 8.61133 23.2373V10.2373H21.7637C22.8682 10.2373 23.4268 10.8213 23.4268 11.9131V24.9004H10.2617Z" fill="black"/>
</svg>
