<svg width="32" height="32" viewBox="0 0 32 32" fill="none" xmlns="http://www.w3.org/2000/svg">
<path d="M5.67871 20.4346C5.51367 20.5996 5.41211 20.8154 5.41211 21.0693C5.41211 21.5645 5.79297 21.9453 6.28809 21.9453C6.5293 21.9453 6.75781 21.8564 6.91016 21.6914L16 12.1572L25.0645 21.6914C25.2295 21.8564 25.4707 21.9453 25.6992 21.9453C26.1943 21.9453 26.5752 21.5645 26.5752 21.0693C26.5752 20.8154 26.4736 20.6123 26.3086 20.4473L16.6855 10.3164C16.4951 10.1133 16.2539 9.99902 15.9873 9.99902C15.7207 9.99902 15.4922 10.1133 15.3018 10.3037L5.67871 20.4346Z" fill="black"/>
</svg>
