<svg width="32" height="32" viewBox="0 0 32 32" fill="none" xmlns="http://www.w3.org/2000/svg">
<path d="M20.4688 26.6426C20.6338 26.8076 20.8496 26.9092 21.0908 26.9092C21.5859 26.9092 21.9668 26.5283 21.9668 26.0332C21.9668 25.792 21.8779 25.5635 21.7256 25.4111L12.1787 16.3213L21.7256 7.25684C21.8779 7.0918 21.9668 6.85059 21.9668 6.62207C21.9668 6.12695 21.5859 5.74609 21.0908 5.74609C20.8496 5.74609 20.6465 5.84766 20.4688 6.0127L10.3379 15.6357C10.1475 15.8262 10.0205 16.0674 10.0205 16.334C10.0205 16.6006 10.1348 16.8164 10.3379 17.0195L20.4688 26.6426Z" fill="black"/>
</svg>
