<svg width="32" height="32" viewBox="0 0 32 32" fill="none" xmlns="http://www.w3.org/2000/svg">
<path d="M10.8965 26.9219C11.1504 26.9219 11.3408 26.8203 11.5186 26.6553L21.6494 17.0195C21.8525 16.8291 21.9668 16.6006 21.9668 16.334C21.9668 16.0674 21.8525 15.8262 21.6621 15.6484L11.5312 6.02539C11.3535 5.86035 11.1504 5.75879 10.8965 5.75879C10.4014 5.75879 10.0205 6.13965 10.0205 6.63477C10.0205 6.86328 10.1094 7.0918 10.2744 7.25684L19.8086 16.334L10.2744 25.4111C10.1094 25.5762 10.0205 25.8047 10.0205 26.0459C10.0205 26.541 10.4014 26.9219 10.8965 26.9219Z" fill="black"/>
</svg>
