<svg width="32" height="32" viewBox="0 0 32 32" fill="none" xmlns="http://www.w3.org/2000/svg">
<path d="M16 29.0801C22.9697 29.0801 28.7334 23.3164 28.7334 16.3467C28.7334 9.37695 22.9697 3.61328 15.9873 3.61328C9.01758 3.61328 3.2666 9.37695 3.2666 16.3467C3.2666 23.3164 9.03027 29.0801 16 29.0801ZM16 27.4424C9.85547 27.4424 4.91699 22.4912 4.91699 16.3467C4.91699 10.2021 9.85547 5.26367 15.9873 5.26367C22.1318 5.26367 27.083 10.2021 27.0957 16.3467C27.0957 22.4912 22.1445 27.4424 16 27.4424ZM13.042 22.5928C13.3213 22.8594 13.8291 22.834 14.1211 22.5674L19.6055 17.3115C20.1641 16.7783 20.1768 15.915 19.6055 15.3818L14.1211 10.126C13.8037 9.83398 13.3467 9.80859 13.0547 10.1006C12.75 10.3799 12.7246 10.8877 13.042 11.167L18.4629 16.3467L13.042 21.5137C12.7373 21.8057 12.75 22.3008 13.042 22.5928Z" fill="black"/>
</svg>
