<svg width="32" height="32" viewBox="0 0 32 32" fill="none" xmlns="http://www.w3.org/2000/svg">
<path d="M21.3332 14C23.5423 14 25.3332 12.2091 25.3332 10C25.3332 7.79086 23.5423 6 21.3332 6C19.1241 6 17.3332 7.79086 17.3332 10C17.3332 12.2091 19.1241 14 21.3332 14Z" fill="#0F0F0F"/>
<path d="M21.3332 16C16.9231 16 13.3345 19.118 13.3345 22.9499C13.3345 23.7888 13.8232 24.4897 15.9998 25.3333C17.7205 25.9335 19.5391 26.226 21.3664 26.1907C25.3481 26.1907 29.366 25.0398 29.3345 22.9496C29.3345 19.118 25.745 16 21.3332 16Z" fill="#0F0F0F"/>
<path d="M14.3738 13.2929L9.37378 8.29286C9.18626 8.10534 8.93193 8 8.66674 8C8.40156 8 8.14723 8.10535 7.95971 8.29287C7.7722 8.48038 7.66685 8.73471 7.66685 8.9999C7.66685 9.26509 7.7722 9.51941 7.95972 9.70693L11.2527 12.9999H3.66675C3.40153 12.9999 3.14718 13.1053 2.95964 13.2928C2.7721 13.4804 2.66675 13.7347 2.66675 13.9999C2.66675 14.2651 2.7721 14.5195 2.95964 14.707C3.14718 14.8946 3.40153 14.9999 3.66675 14.9999H11.2527L7.95969 18.2929C7.86684 18.3858 7.79319 18.496 7.74294 18.6173C7.69269 18.7386 7.66682 18.8687 7.66682 19C7.66682 19.1313 7.69268 19.2613 7.74293 19.3826C7.79318 19.5039 7.86683 19.6141 7.95968 19.707C8.05253 19.7998 8.16276 19.8735 8.28407 19.9237C8.40538 19.974 8.53541 19.9999 8.66671 19.9999C8.79802 19.9999 8.92804 19.974 9.04936 19.9237C9.17067 19.8735 9.2809 19.7998 9.37375 19.707L14.3737 14.707C14.4666 14.6142 14.5403 14.5039 14.5906 14.3826C14.6409 14.2613 14.6668 14.1313 14.6668 13.9999C14.6668 13.8686 14.6409 13.7386 14.5906 13.6172C14.5404 13.4959 14.4667 13.3857 14.3738 13.2929Z" fill="#0F0F0F"/>
</svg>
