<svg width="32" height="32" viewBox="0 0 32 32" fill="none" xmlns="http://www.w3.org/2000/svg">
<path d="M24.8359 17.1084L15.3018 26.6426C12.8516 29.1055 9.53809 28.8008 7.41797 26.6807C5.29785 24.5732 5.00586 21.2725 7.46875 18.7969L20.1895 6.08887C21.7764 4.48926 23.9854 4.54004 25.3311 5.88574C26.6768 7.23145 26.7148 9.44043 25.1279 11.0273L12.6992 23.4814C11.9883 24.1924 11.125 24.0273 10.5918 23.5068C10.084 22.9863 9.93164 22.123 10.6299 21.4121L19.5166 12.5381C19.8213 12.2207 19.8213 11.7891 19.542 11.5098C19.2627 11.2305 18.8311 11.2305 18.5137 11.5479L9.61426 20.4473C8.37012 21.7041 8.44629 23.5068 9.52539 24.5859C10.6553 25.7158 12.4072 25.7412 13.6641 24.4971L26.1436 12.0176C28.4414 9.70703 28.1621 6.73633 26.2959 4.87012C24.4551 3.0293 21.4463 2.71191 19.1357 5.02246L6.40234 17.7686C3.31738 20.8535 3.68555 25.0938 6.35156 27.7598C9.01758 30.4131 13.2578 30.7812 16.3301 27.709L25.8896 18.1621C26.1943 17.8574 26.1816 17.3496 25.8896 17.083C25.6104 16.7783 25.1406 16.8164 24.8359 17.1084Z" fill="black"/>
</svg>
