<svg width="32" height="32" viewBox="0 0 32 32" fill="none" xmlns="http://www.w3.org/2000/svg">
<path d="M29.7071 2.29274C29.6143 2.19986 29.5041 2.12618 29.3827 2.07591C29.2614 2.02564 29.1314 1.99976 29.0001 1.99976C28.8688 1.99976 28.7387 2.02564 28.6174 2.07591C28.4961 2.12618 28.3859 2.19986 28.2931 2.29274L20.0001 10.5833V4.99977C20.0001 4.73455 19.8948 4.4802 19.7072 4.29266C19.5197 4.10512 19.2653 3.99977 19.0001 3.99977C18.7349 3.99977 18.4805 4.10512 18.293 4.29266C18.1055 4.4802 18.0001 4.73455 18.0001 4.99977V12.9998C18 13.1311 18.0259 13.2612 18.0761 13.3825C18.1263 13.5039 18.2 13.6142 18.2928 13.707C18.3857 13.7999 18.496 13.8736 18.6173 13.9238C18.7387 13.974 18.8688 13.9998 19.0001 13.9998H27.0001C27.2653 13.9998 27.5197 13.8944 27.7072 13.7069C27.8948 13.5193 28.0001 13.265 28.0001 12.9998C28.0001 12.7346 27.8948 12.4802 27.7072 12.2927C27.5197 12.1051 27.2653 11.9998 27.0001 11.9998H21.4117L29.7071 3.7068C29.8 3.61397 29.8737 3.50375 29.9239 3.38243C29.9742 3.26112 30.0001 3.13108 30.0001 2.99977C30.0001 2.86845 29.9742 2.73842 29.9239 2.6171C29.8737 2.49579 29.8 2.38557 29.7071 2.29274Z" fill="#0F0F0F"/>
<path d="M24.2117 19.5155C23.8849 19.1893 23.4971 18.9307 23.0703 18.7544C22.6435 18.5781 22.1862 18.4877 21.7244 18.4882C21.2627 18.4888 20.8056 18.5803 20.3792 18.7576C19.9528 18.9349 19.5656 19.1944 19.2395 19.5214C19.2395 19.5214 18.0827 20.7003 17.5678 21.2198C15.786 21.1462 14.0972 20.4048 12.8371 19.143C11.577 17.8812 10.8378 16.1914 10.7666 14.4095C11.2864 13.8939 12.4627 12.7356 12.4686 12.7297C13.1274 12.0699 13.4974 11.1756 13.4974 10.2432C13.4974 9.31086 13.1274 8.41658 12.4686 7.75679L9.71426 4.99879C9.04318 4.35737 8.15061 3.99941 7.2223 3.99941C6.29398 3.99941 5.40142 4.35737 4.73034 4.99879L3.25794 6.4732C1.25012 8.48272 0.762556 15.5033 8.61901 23.3702C13.6186 28.3774 18.2762 29.9995 21.52 29.9995C22.9566 30.0998 24.3775 29.6493 25.4937 28.7393L26.966 27.265C27.6273 26.603 27.9988 25.7055 27.9988 24.7697C27.9988 23.834 27.6273 22.9365 26.966 22.2745L24.2117 19.5155ZM25.5513 25.8483L24.0789 27.2855C22.7999 28.5632 16.9435 28.8352 10.0338 21.9163C3.12312 14.9965 3.39473 9.16952 4.67271 7.88984L6.14512 6.44743C6.28643 6.30571 6.45432 6.19326 6.63917 6.11654C6.82401 6.03982 7.02218 6.00033 7.22232 6.00033C7.42245 6.00033 7.62062 6.03982 7.80547 6.11654C7.99031 6.19326 8.1582 6.30571 8.29952 6.44743L11.0538 9.17343C11.3362 9.45632 11.4953 9.83939 11.4964 10.2391C11.4975 10.6388 11.3405 11.0228 11.0597 11.3072C11.0597 11.3072 9.55405 12.7894 9.18868 13.1553C7.8853 14.4643 9.65668 18.7915 11.4242 20.5614C12.5857 21.6923 14.0161 22.5088 15.5805 22.9338C16.4911 23.1833 18.1228 23.4974 18.8214 22.7988C19.1849 22.4349 20.6602 20.9331 20.6602 20.9322C20.9438 20.6493 21.328 20.4904 21.7286 20.4904C22.1292 20.4904 22.5134 20.6493 22.797 20.9322L25.5513 23.6911C25.8372 23.9773 25.9978 24.3652 25.9978 24.7697C25.9978 25.1742 25.8372 25.5622 25.5513 25.8483Z" fill="#0F0F0F"/>
</svg>
