<svg width="32" height="32" viewBox="0 0 32 32" fill="none" xmlns="http://www.w3.org/2000/svg">
<path d="M16.8824 3.576C16.7 3.50049 16.4992 3.48069 16.3055 3.51909C16.1137 3.55714 15.9372 3.6506 15.798 3.78781L8.79891 10.499L4.99975 10.5009C4.33679 10.501 3.70104 10.7644 3.23226 11.2331C2.76343 11.702 2.5 12.3378 2.5 13.0009V19.0009C2.5 19.664 2.76343 20.2998 3.23226 20.7687C3.7011 21.2375 4.33695 21.5009 5 21.5009H8.79904L15.7981 28.211C15.9374 28.3483 16.114 28.4418 16.306 28.4798C16.4999 28.5181 16.7008 28.4982 16.8833 28.4224C17.0658 28.3467 17.2218 28.2186 17.3316 28.0542C17.4415 27.8897 17.5 27.6964 17.5 27.4989L17.5 4.4989L17.5 4.49779C17.4996 4.3004 17.4407 4.10748 17.3308 3.94338C17.2209 3.77935 17.0649 3.65151 16.8824 3.576ZM9.34605 11.3598L16.4931 4.5068L16.5 4.50004V27.4986L9.34603 20.64C9.25293 20.5507 9.12896 20.5009 9 20.5009H5C4.60218 20.5009 4.22068 20.3429 3.93937 20.0616C3.65805 19.7802 3.5 19.3987 3.5 19.0009V13.0009C3.5 12.6031 3.65805 12.2216 3.93937 11.9402C4.22068 11.6589 4.60243 11.5009 5.00025 11.5009L9.00025 11.4989C9.12914 11.4988 9.25302 11.449 9.34605 11.3598Z" fill="#0F0F0F"/>
<path d="M25.5 11C25.5 10.7239 25.2761 10.5 25 10.5C24.7239 10.5 24.5 10.7239 24.5 11C24.5 11.3834 24.3529 11.8603 24.0629 12.3822C23.7764 12.8979 23.3689 13.4239 22.8964 13.8964C22.4239 14.3689 21.8979 14.7764 21.3822 15.0629C20.8603 15.3529 20.3834 15.5 20 15.5C19.7239 15.5 19.5 15.7239 19.5 16C19.5 16.2761 19.7239 16.5 20 16.5C20.3834 16.5 20.8603 16.6471 21.3822 16.9371C21.8979 17.2236 22.4239 17.6311 22.8964 18.1036C23.3689 18.5761 23.7764 19.1021 24.0629 19.6178C24.3529 20.1397 24.5 20.6166 24.5 21C24.5 21.2761 24.7239 21.5 25 21.5C25.2761 21.5 25.5 21.2761 25.5 21C25.5 20.6166 25.6471 20.1397 25.9371 19.6178C26.2236 19.1021 26.6311 18.5761 27.1036 18.1036C27.5761 17.6311 28.1021 17.2236 28.6178 16.9371C29.1397 16.6471 29.6166 16.5 30 16.5C30.2761 16.5 30.5 16.2761 30.5 16C30.5 15.7239 30.2761 15.5 30 15.5C29.6166 15.5 29.1397 15.3529 28.6178 15.0629C28.1021 14.7764 27.5761 14.3689 27.1036 13.8964C26.6311 13.4239 26.2236 12.8979 25.9371 12.3822C25.6471 11.8603 25.5 11.3834 25.5 11ZM24.9371 12.8678C24.9585 12.8293 24.9795 12.7905 25 12.7516C25.0205 12.7905 25.0415 12.8293 25.0629 12.8678C25.4014 13.4771 25.8689 14.0761 26.3964 14.6036C26.9239 15.1311 27.5229 15.5986 28.1322 15.9371C28.1707 15.9585 28.2095 15.9795 28.2484 16C28.2095 16.0205 28.1707 16.0415 28.1322 16.0629C27.5229 16.4014 26.9239 16.8689 26.3964 17.3964C25.8689 17.9239 25.4014 18.5229 25.0629 19.1322C25.0415 19.1707 25.0205 19.2095 25 19.2484C24.9795 19.2095 24.9585 19.1707 24.9371 19.1322C24.5986 18.5229 24.1311 17.9239 23.6036 17.3964C23.0761 16.8689 22.4771 16.4014 21.8678 16.0629C21.8293 16.0415 21.7905 16.0205 21.7516 16C21.7905 15.9795 21.8293 15.9585 21.8678 15.9371C22.4771 15.5986 23.0761 15.1311 23.6036 14.6036C24.1311 14.0761 24.5986 13.4771 24.9371 12.8678Z" fill="#0F0F0F"/>
</svg>
