<svg width="32" height="32" viewBox="0 0 32 32" fill="none" xmlns="http://www.w3.org/2000/svg">
<path d="M27.9972 13.9998C27.8658 13.9998 27.7358 13.974 27.6144 13.9238C27.4931 13.8736 27.3828 13.7999 27.2899 13.707C27.197 13.6142 27.1234 13.5039 27.0732 13.3825C27.0229 13.2612 26.9971 13.1311 26.9972 12.9998C26.9713 10.9857 26.1761 9.05774 24.7745 7.6111C24.0396 6.80683 23.1486 6.16055 22.1559 5.71161C21.1631 5.26268 20.0894 5.02048 19.0001 4.99977C18.7349 4.99977 18.4805 4.89441 18.293 4.70688C18.1055 4.51934 18.0001 4.26499 18.0001 3.99977C18.0001 3.73455 18.1055 3.4802 18.293 3.29266C18.4805 3.10513 18.7349 2.99977 19.0001 2.99977C20.3624 3.02072 21.7061 3.31891 22.9494 3.87616C24.1927 4.43341 25.3094 5.23804 26.2316 6.241C27.9825 8.05825 28.972 10.4764 28.9972 12.9998C28.9973 13.1311 28.9714 13.2612 28.9212 13.3826C28.871 13.5039 28.7973 13.6142 28.7045 13.7071C28.6116 13.7999 28.5013 13.8736 28.38 13.9238C28.2586 13.974 28.1285 13.9998 27.9972 13.9998Z" fill="#0F0F0F"/>
<path d="M24.0001 14.9929C23.8688 14.993 23.7387 14.9672 23.6173 14.917C23.496 14.8667 23.3857 14.7931 23.2928 14.7002C23.2 14.6073 23.1263 14.4971 23.0761 14.3757C23.0259 14.2543 23 14.1243 23.0001 13.9929C23.0523 13.3288 22.967 12.661 22.7496 12.0312C22.5321 11.4015 22.1873 10.8233 21.7364 10.3328C20.7227 9.42461 19.3953 8.94655 18.0353 8.99978C18.0245 8.99978 18.0128 8.99878 18.0001 8.99978C17.7349 9.0003 17.4803 8.89544 17.2924 8.70827C17.1045 8.5211 16.9987 8.26695 16.9982 8.00174C16.9976 7.73652 17.1025 7.48196 17.2897 7.29406C17.4768 7.10615 17.731 7.0003 17.9962 6.99978H18.0372C19.9201 6.93376 21.7523 7.61719 23.1319 8.90017C23.7799 9.57278 24.2807 10.373 24.6023 11.2498C24.924 12.1266 25.0595 13.0609 25.0001 13.9929C25.0002 14.1243 24.9744 14.2543 24.9242 14.3757C24.8739 14.4971 24.8003 14.6073 24.7074 14.7002C24.6145 14.7931 24.5043 14.8667 24.3829 14.917C24.2615 14.9672 24.1315 14.993 24.0001 14.9929Z" fill="#0F0F0F"/>
<path d="M24.2117 19.5155C23.8849 19.1893 23.4971 18.9307 23.0703 18.7544C22.6435 18.5781 22.1862 18.4877 21.7244 18.4883C21.2627 18.4888 20.8056 18.5803 20.3792 18.7576C19.9528 18.9349 19.5656 19.1944 19.2395 19.5214C19.2395 19.5214 18.0827 20.7003 17.5678 21.2198C15.786 21.1462 14.0972 20.4048 12.8371 19.143C11.577 17.8812 10.8378 16.1914 10.7666 14.4095C11.2864 13.8939 12.4627 12.7356 12.4686 12.7297C13.1274 12.0699 13.4974 11.1756 13.4974 10.2433C13.4974 9.31086 13.1274 8.41658 12.4686 7.75679L9.71426 4.99879C9.04318 4.35737 8.15061 3.99942 7.2223 3.99942C6.29398 3.99942 5.40142 4.35737 4.73034 4.99879L3.25794 6.4732C1.25012 8.48272 0.762556 15.5033 8.61901 23.3702C13.6186 28.3774 18.2762 29.9995 21.52 29.9995C22.9566 30.0998 24.3775 29.6493 25.4937 28.7394L26.966 27.265C27.6273 26.603 27.9988 25.7055 27.9988 24.7697C27.9988 23.834 27.6273 22.9365 26.966 22.2745L24.2117 19.5155ZM25.5513 25.8483L24.0789 27.2855C22.7999 28.5632 16.9435 28.8352 10.0338 21.9164C3.12312 14.9965 3.39473 9.16952 4.67271 7.88984L6.14512 6.44743C6.28643 6.30571 6.45432 6.19327 6.63917 6.11654C6.82401 6.03982 7.02218 6.00033 7.22232 6.00033C7.42245 6.00033 7.62062 6.03982 7.80547 6.11654C7.99031 6.19327 8.1582 6.30571 8.29952 6.44743L11.0538 9.17343C11.3362 9.45632 11.4953 9.83939 11.4964 10.2391C11.4975 10.6388 11.3405 11.0228 11.0597 11.3072C11.0597 11.3072 9.55405 12.7894 9.18868 13.1553C7.8853 14.4643 9.65668 18.7915 11.4242 20.5614C12.5857 21.6923 14.0161 22.5088 15.5805 22.9339C16.4911 23.1833 18.1228 23.4974 18.8214 22.7989C19.1849 22.4349 20.6602 20.9332 20.6602 20.9322C20.9438 20.6493 21.328 20.4904 21.7286 20.4904C22.1292 20.4904 22.5134 20.6493 22.797 20.9322L25.5513 23.6911C25.8372 23.9773 25.9978 24.3652 25.9978 24.7697C25.9978 25.1742 25.8372 25.5622 25.5513 25.8483Z" fill="#0F0F0F"/>
</svg>
