<svg width="32" height="32" viewBox="0 0 32 32" fill="none" xmlns="http://www.w3.org/2000/svg">
<path d="M27.9971 13.9998C27.8657 13.9998 27.7357 13.974 27.6143 13.9238C27.493 13.8736 27.3827 13.7999 27.2898 13.707C27.1969 13.6142 27.1233 13.5039 27.0731 13.3825C27.0228 13.2612 26.997 13.1311 26.9971 12.9998C26.9712 10.9857 26.176 9.05774 24.7744 7.6111C24.0395 6.80683 23.1485 6.16055 22.1558 5.71161C21.163 5.26268 20.0893 5.02048 19 4.99977C18.7348 4.99977 18.4804 4.89441 18.2929 4.70688C18.1054 4.51934 18 4.26499 18 3.99977C18 3.73455 18.1054 3.4802 18.2929 3.29266C18.4804 3.10513 18.7348 2.99977 19 2.99977C20.3623 3.02072 21.706 3.31891 22.9493 3.87616C24.1926 4.43341 25.3093 5.23804 26.2315 6.241C27.9824 8.05825 28.9719 10.4764 28.9971 12.9998C28.9972 13.1311 28.9713 13.2612 28.9211 13.3826C28.8709 13.5039 28.7972 13.6142 28.7043 13.7071C28.6115 13.7999 28.5012 13.8736 28.3799 13.9238C28.2585 13.974 28.1284 13.9998 27.9971 13.9998Z" fill="#0F0F0F"/>
<path d="M24 14.9929C23.8687 14.993 23.7386 14.9672 23.6172 14.917C23.4959 14.8667 23.3856 14.7931 23.2927 14.7002C23.1999 14.6073 23.1262 14.4971 23.076 14.3757C23.0258 14.2543 22.9999 14.1243 23 13.9929C23.0522 13.3288 22.9669 12.661 22.7495 12.0312C22.532 11.4015 22.1872 10.8233 21.7363 10.3328C20.7226 9.42461 19.3952 8.94655 18.0352 8.99978C18.0244 8.99978 18.0127 8.99878 18 8.99978C17.7348 9.0003 17.4802 8.89544 17.2923 8.70827C17.1044 8.5211 16.9986 8.26695 16.9981 8.00174C16.9975 7.73652 17.1024 7.48196 17.2896 7.29406C17.4767 7.10615 17.7309 7.0003 17.9961 6.99978H18.0371C19.92 6.93376 21.7522 7.61719 23.1318 8.90017C23.7798 9.57278 24.2806 10.373 24.6022 11.2498C24.9239 12.1266 25.0593 13.0609 25 13.9929C25.0001 14.1243 24.9743 14.2543 24.924 14.3757C24.8738 14.4971 24.8002 14.6073 24.7073 14.7002C24.6144 14.7931 24.5041 14.8667 24.3828 14.917C24.2614 14.9672 24.1314 14.993 24 14.9929Z" fill="#0F0F0F"/>
<path d="M9.10736 22.8427C16.1032 29.8385 22.3711 29.3779 24.172 27.577L25.2092 26.5398C25.8138 25.9339 26.1534 25.1128 26.1534 24.2569C26.1534 23.4009 25.8138 22.5799 25.2092 21.974L22.6853 19.4501C22.0812 18.8505 21.2639 18.5151 20.4128 18.5173C19.5616 18.5195 18.7461 18.8591 18.1451 19.4618L16.9877 20.6192C15.5984 20.3307 14.3297 19.6265 13.35 18.6001C12.324 17.6209 11.6188 16.3538 11.3274 14.9658L12.4951 13.7995C13.0862 13.1691 13.4079 12.333 13.3918 11.469C13.3756 10.605 13.023 9.78147 12.4088 9.17358L9.97608 6.74083C9.37015 6.13624 8.54914 5.7967 7.69318 5.7967C6.83721 5.7967 6.0162 6.13624 5.41027 6.74083L4.37306 7.77804C2.57211 9.57892 2.11155 15.8469 9.10736 22.8427ZM6.82445 8.15501C7.05497 7.92486 7.3674 7.79558 7.69314 7.79558C8.01889 7.79559 8.33132 7.92485 8.56184 8.15501L10.9946 10.5878C11.236 10.8194 11.3796 11.1347 11.3957 11.4688C11.4119 11.803 11.2995 12.1307 11.0816 12.3845L9.6991 13.7656C8.61841 14.8463 10.0257 18.1042 11.9357 20.0142C14.037 22.1155 17.1928 23.2425 18.1885 22.2467L19.5592 20.876C19.7849 20.6478 20.0918 20.5184 20.4128 20.5162C20.7337 20.514 21.0424 20.6392 21.2711 20.8643L23.795 23.3882C24.0252 23.6187 24.1544 23.9311 24.1544 24.2569C24.1544 24.5826 24.0252 24.8951 23.795 25.1256L22.7578 26.1628C21.6902 27.2303 16.4829 27.3899 10.5215 21.4285C4.56016 15.4671 4.71967 10.2598 5.78724 9.19221L6.82445 8.15501Z" fill="#0F0F0F"/>
</svg>
