<svg width="32" height="32" viewBox="0 0 32 32" fill="none" xmlns="http://www.w3.org/2000/svg">
<path d="M29.5303 2.46949C29.4606 2.39983 29.378 2.34457 29.287 2.30687C29.196 2.26917 29.0985 2.24977 29 2.24977C28.9015 2.24977 28.804 2.26917 28.713 2.30687C28.622 2.34457 28.5393 2.39983 28.4697 2.46949L19.75 11.1867V4.99977C19.75 4.80086 19.671 4.61009 19.5303 4.46944C19.3897 4.32879 19.1989 4.24977 19 4.24977C18.8011 4.24977 18.6103 4.32879 18.4697 4.46944C18.329 4.61009 18.25 4.80086 18.25 4.99977V12.9998C18.25 13.1987 18.3291 13.3894 18.4697 13.53C18.6104 13.6707 18.8011 13.7497 19 13.7498H27C27.1989 13.7498 27.3897 13.6708 27.5303 13.5301C27.671 13.3894 27.75 13.1987 27.75 12.9998C27.75 12.8009 27.671 12.6101 27.5303 12.4694C27.3897 12.3288 27.1989 12.2498 27 12.2498H20.808L29.5303 3.53C29.5999 3.46038 29.6552 3.37771 29.6929 3.28673C29.7306 3.19575 29.75 3.09823 29.75 2.99974C29.75 2.90126 29.7306 2.80374 29.6929 2.71276C29.6552 2.62178 29.5999 2.53911 29.5303 2.46949Z" fill="#0F0F0F"/>
<path d="M24.0381 19.699C23.4169 19.1045 22.59 18.773 21.7302 18.7737C20.8703 18.7744 20.044 19.1073 19.4238 19.7029C19.4238 19.7029 18.1611 20.9861 17.6875 21.4636C15.802 21.4273 14.0039 20.6621 12.6705 19.3285C11.3372 17.995 10.5722 16.1968 10.5361 14.3113C11.0146 13.8367 12.2969 12.5769 12.3008 12.572C12.6036 12.2694 12.8438 11.91 13.0076 11.5145C13.1715 11.1189 13.2558 10.695 13.2558 10.2669C13.2558 9.83873 13.1715 9.41479 13.0076 9.01927C12.8438 8.62374 12.6036 8.26437 12.3008 7.96169L9.54784 5.20875C8.93334 4.59618 8.10106 4.25221 7.23339 4.25221C6.36572 4.25221 5.53344 4.59618 4.91894 5.20875L3.44726 6.68043C1.50292 8.62477 1.07909 15.4646 8.80663 23.1931C13.7617 28.1482 18.3515 29.7517 21.5205 29.7517C22.8933 29.849 24.2516 29.4199 25.3193 28.5515L26.791 27.0798C27.404 26.4658 27.7483 25.6336 27.7483 24.7659C27.7483 23.8982 27.404 23.066 26.791 22.4519L24.0381 19.699ZM25.7305 26.0193L24.2588 27.491C22.9287 28.8211 16.8994 29.1648 9.86718 22.1326C2.83399 15.0984 3.1787 9.07008 4.5078 7.741L5.97948 6.2693C6.31229 5.93723 6.76324 5.75074 7.23338 5.75074C7.70352 5.75074 8.15447 5.93723 8.48729 6.2693L11.2402 9.02223C11.5695 9.35146 11.7549 9.79776 11.7558 10.2634C11.7568 10.729 11.5731 11.1761 11.2451 11.5066C11.2451 11.5066 9.7412 12.9851 9.37699 13.3494C8.72953 13.9968 9.15922 15.8064 9.30668 16.3455C9.71886 17.8672 10.5117 19.2589 11.6104 20.3895C13.9073 22.6863 17.7842 23.4832 18.6514 22.6219C19.0147 22.2576 20.4883 20.7596 20.4883 20.7596C20.8236 20.4394 21.2693 20.2608 21.7329 20.2608C22.1965 20.2608 22.6423 20.4394 22.9776 20.7596L25.7305 23.5125C26.0625 23.8451 26.249 24.2959 26.249 24.7659C26.249 25.2359 26.0625 25.6867 25.7305 26.0193Z" fill="#0F0F0F"/>
</svg>
