<svg width="32" height="32" viewBox="0 0 32 32" fill="none" xmlns="http://www.w3.org/2000/svg">
<path d="M29.3536 2.64625C29.3072 2.59982 29.2521 2.56298 29.1915 2.53785C29.1308 2.51272 29.0658 2.49979 29.0001 2.49979C28.9345 2.49979 28.8695 2.51272 28.8088 2.53785C28.7482 2.56298 28.6931 2.59982 28.6466 2.64625L19.5001 11.79V4.99977C19.5001 4.86716 19.4474 4.73998 19.3537 4.64622C19.2599 4.55245 19.1327 4.49977 19.0001 4.49977C18.8675 4.49977 18.7403 4.55245 18.6466 4.64622C18.5528 4.73998 18.5001 4.86716 18.5001 4.99977V12.9998C18.5001 13.0654 18.513 13.1305 18.5381 13.1912C18.5632 13.2518 18.6 13.307 18.6465 13.3534C18.6929 13.3998 18.7481 13.4367 18.8087 13.4618C18.8694 13.4869 18.9345 13.4998 19.0001 13.4998H27.0001C27.1327 13.4998 27.2599 13.4471 27.3537 13.3533C27.4474 13.2596 27.5001 13.1324 27.5001 12.9998C27.5001 12.8672 27.4474 12.74 27.3537 12.6462C27.2599 12.5524 27.1327 12.4998 27.0001 12.4998H20.2044L29.3536 3.35328C29.4001 3.30686 29.4369 3.25175 29.4621 3.1911C29.4872 3.13044 29.5001 3.06542 29.5001 2.99976C29.5001 2.93411 29.4872 2.86909 29.4621 2.80843C29.4369 2.74778 29.4001 2.69267 29.3536 2.64625Z" fill="#0F0F0F"/>
<path d="M23.8615 19.8757C23.2876 19.3278 22.5245 19.0223 21.731 19.0228C20.9375 19.0234 20.1748 19.3299 19.6017 19.8787C19.6017 19.8787 18.129 21.3757 17.84 21.6853C16.8474 21.7058 15.8611 21.5229 14.9418 21.1481C14.0225 20.7733 13.1895 20.2143 12.4943 19.5056C11.0956 18.1033 10.295 16.2134 10.2609 14.2332C10.6232 13.8709 12.1212 12.3982 12.1241 12.3953C12.4037 12.1158 12.6255 11.784 12.7768 11.4188C12.9281 11.0536 13.006 10.6622 13.006 10.2669C13.006 9.87156 12.9281 9.48012 12.7768 9.11493C12.6255 8.74973 12.4037 8.41791 12.1241 8.13844L9.37121 5.38551C8.79542 4.83549 8.02979 4.52858 7.23352 4.52858C6.43724 4.52858 5.67161 4.83549 5.09582 5.38551L3.62412 6.85719C1.74133 8.74 1.38098 15.4128 8.98352 23.0164C13.8966 27.9295 18.421 29.5164 21.5167 29.5164C22.8265 29.6103 24.123 29.2021 25.1427 28.3748L26.6144 26.9031C26.8952 26.6225 27.118 26.2893 27.2699 25.9226C27.4219 25.5559 27.5001 25.1628 27.5001 24.7659C27.5001 24.3689 27.4219 23.9759 27.2699 23.6091C27.118 23.2424 26.8952 22.9093 26.6144 22.6287L23.8615 19.8757ZM25.9074 26.1961L24.4357 27.6677C23.0529 29.0486 16.8497 29.4685 9.69055 22.3093C2.53137 15.1492 2.95032 8.94508 4.33117 7.56422L5.80285 6.09254C6.18254 5.71358 6.69707 5.50074 7.23352 5.50074C7.76996 5.50074 8.28449 5.71358 8.66418 6.09254L11.4171 8.84547C11.7937 9.2219 12.0054 9.73236 12.006 10.2648C12.0065 10.7972 11.7958 11.3081 11.4201 11.6853C11.4201 11.6853 9.91812 13.1619 9.55383 13.5261C8.97473 14.1052 9.48742 16.0584 9.54797 16.28C9.94856 17.7597 10.7192 19.1131 11.7872 20.2127C14.09 22.5154 17.7775 23.1423 18.4747 22.4461C18.838 22.0808 20.3116 20.5828 20.3116 20.5828C20.6945 20.217 21.2036 20.013 21.733 20.013C22.2625 20.013 22.7716 20.217 23.1544 20.5828L25.9074 23.3357C26.2859 23.7154 26.4984 24.2297 26.4984 24.7659C26.4984 25.302 26.2859 25.8163 25.9074 26.1961Z" fill="#0F0F0F"/>
</svg>
