<svg width="32" height="32" viewBox="0 0 32 32" fill="none" xmlns="http://www.w3.org/2000/svg">
<path d="M29.5302 2.46949C29.4605 2.39983 29.3779 2.34457 29.2869 2.30687C29.1959 2.26917 29.0984 2.24977 28.9999 2.24977C28.9014 2.24977 28.8039 2.26917 28.7129 2.30687C28.6219 2.34457 28.5392 2.39983 28.4696 2.46949L19.7499 11.1867V4.99977C19.7499 4.80086 19.6709 4.61009 19.5302 4.46944C19.3896 4.32879 19.1988 4.24977 18.9999 4.24977C18.801 4.24977 18.6102 4.32879 18.4696 4.46944C18.3289 4.61009 18.2499 4.80086 18.2499 4.99977V12.9998C18.2499 13.1987 18.329 13.3894 18.4696 13.53C18.6103 13.6707 18.801 13.7497 18.9999 13.7498H26.9999C27.1988 13.7498 27.3896 13.6708 27.5302 13.5301C27.6709 13.3894 27.7499 13.1987 27.7499 12.9998C27.7499 12.8009 27.6709 12.6101 27.5302 12.4694C27.3896 12.3288 27.1988 12.2498 26.9999 12.2498H20.8079L29.5302 3.53C29.5998 3.46038 29.6551 3.37771 29.6928 3.28673C29.7305 3.19575 29.7499 3.09823 29.7499 2.99974C29.7499 2.90126 29.7305 2.80374 29.6928 2.71276C29.6551 2.62178 29.5998 2.53911 29.5302 2.46949Z" fill="#0F0F0F"/>
<path d="M24.038 19.699C23.4168 19.1045 22.5899 18.773 21.7301 18.7737C20.8702 18.7744 20.0439 19.1073 19.4237 19.7029C19.4237 19.7029 18.161 20.9861 17.6874 21.4636C15.8019 21.4273 14.0038 20.6621 12.6705 19.3285C11.3371 17.995 10.5721 16.1968 10.536 14.3113C11.0145 13.8367 12.2968 12.5769 12.3007 12.572C12.6035 12.2694 12.8437 11.91 13.0075 11.5145C13.1714 11.1189 13.2558 10.695 13.2558 10.2669C13.2558 9.83873 13.1714 9.41479 13.0075 9.01927C12.8437 8.62374 12.6035 8.26437 12.3007 7.96169L9.54774 5.20875C8.93324 4.59618 8.10096 4.25221 7.23329 4.25221C6.36563 4.25221 5.53334 4.59618 4.91884 5.20875L3.44716 6.68043C1.50282 8.62477 1.07899 15.4646 8.80653 23.1931C13.7616 28.1482 18.3515 29.7517 21.5204 29.7517C22.8932 29.849 24.2515 29.4199 25.3192 28.5515L26.7909 27.0798C27.4039 26.4658 27.7482 25.6336 27.7482 24.7659C27.7482 23.8982 27.4039 23.066 26.7909 22.4519L24.038 19.699ZM25.7304 26.0193L24.2587 27.491C22.9286 28.8211 16.8993 29.1648 9.86708 22.1326C2.8339 15.0984 3.1786 9.07008 4.5077 7.741L5.97938 6.2693C6.3122 5.93723 6.76315 5.75074 7.23329 5.75074C7.70343 5.75074 8.15438 5.93723 8.48719 6.2693L11.2401 9.02223C11.5694 9.35146 11.7548 9.79776 11.7557 10.2634C11.7567 10.729 11.573 11.1761 11.245 11.5066C11.245 11.5066 9.7411 12.9851 9.37689 13.3494C8.72943 13.9968 9.15912 15.8064 9.30658 16.3455C9.71877 17.8672 10.5116 19.2589 11.6103 20.3895C13.9072 22.6863 17.7841 23.4832 18.6513 22.6219C19.0146 22.2576 20.4882 20.7596 20.4882 20.7596C20.8235 20.4394 21.2693 20.2608 21.7328 20.2608C22.1964 20.2608 22.6422 20.4394 22.9775 20.7596L25.7304 23.5125C26.0624 23.8451 26.2489 24.2959 26.2489 24.7659C26.2489 25.2359 26.0624 25.6867 25.7304 26.0193Z" fill="#0F0F0F"/>
</svg>
