<svg width="32" height="32" viewBox="0 0 32 32" fill="none" xmlns="http://www.w3.org/2000/svg">
<path d="M29.5302 2.46949C29.4606 2.39983 29.3779 2.34457 29.2869 2.30687C29.1959 2.26917 29.0984 2.24977 28.9999 2.24977C28.9014 2.24977 28.8039 2.26917 28.7129 2.30687C28.6219 2.34457 28.5393 2.39983 28.4696 2.46949L19.7499 11.1867V4.99977C19.7499 4.80086 19.6709 4.61009 19.5302 4.46944C19.3896 4.32879 19.1988 4.24977 18.9999 4.24977C18.801 4.24977 18.6102 4.32879 18.4696 4.46944C18.3289 4.61009 18.2499 4.80086 18.2499 4.99977V12.9998C18.25 13.1987 18.329 13.3894 18.4696 13.53C18.6103 13.6707 18.801 13.7497 18.9999 13.7498H26.9999C27.1988 13.7498 27.3896 13.6708 27.5302 13.5301C27.6709 13.3894 27.7499 13.1987 27.7499 12.9998C27.7499 12.8009 27.6709 12.6101 27.5302 12.4694C27.3896 12.3288 27.1988 12.2498 26.9999 12.2498H20.8079L29.5302 3.53C29.5998 3.46038 29.6551 3.37771 29.6928 3.28673C29.7305 3.19575 29.7499 3.09823 29.7499 2.99974C29.7499 2.90126 29.7305 2.80374 29.6928 2.71276C29.6551 2.62178 29.5998 2.53911 29.5302 2.46949Z" fill="#0F0F0F"/>
<path d="M9.27719 22.6159C16.148 29.4867 22.2489 29.0896 23.9883 27.3502L25.0255 26.313C25.5833 25.754 25.8966 24.9966 25.8966 24.2069C25.8966 23.4172 25.5833 22.6597 25.0255 22.1008L22.5016 19.5769C21.9444 19.0241 21.1907 18.7149 20.4058 18.7171C19.6209 18.7193 18.869 19.0327 18.3149 19.5886L17.0747 20.8288C15.5809 20.5633 14.2113 19.8267 13.1662 18.7268C12.0669 17.6823 11.3293 16.3144 11.0608 14.8219L12.3114 13.5727C12.8564 12.9897 13.1524 12.217 13.1363 11.419C13.1201 10.6211 12.7932 9.86091 12.2251 9.30036L9.79236 6.86761C9.23338 6.30979 8.47594 5.9965 7.68623 5.9965C6.89653 5.9965 6.13908 6.30979 5.5801 6.86761L4.5429 7.90482C2.80341 9.64424 2.40638 15.7451 9.27719 22.6159ZM6.64073 7.92824C6.91819 7.65132 7.29419 7.4958 7.6862 7.4958C8.07821 7.4958 8.4542 7.65132 8.73167 7.92824L11.1644 10.361C11.4513 10.6404 11.6201 11.0192 11.6361 11.4193C11.6522 11.8194 11.5142 12.2105 11.2507 12.512L9.86891 13.8924C8.99677 14.7645 10.1679 17.8498 12.1056 19.7875C14.0432 21.7251 17.1313 22.8935 18.0048 22.02L19.3755 20.6492C19.6481 20.3742 20.0186 20.2186 20.4058 20.2164C20.793 20.2142 21.1653 20.3656 21.4409 20.6375L23.9648 23.1614C24.2418 23.4389 24.3973 23.8149 24.3973 24.2069C24.3973 24.5989 24.2418 24.9749 23.9648 25.2524L22.9276 26.2896C21.7717 27.4455 16.5077 27.7252 10.3378 21.5553C4.1679 15.3853 4.44756 10.1214 5.60352 8.96544L6.64073 7.92824Z" fill="#0F0F0F"/>
</svg>
