<svg width="32" height="32" viewBox="0 0 32 32" fill="none" xmlns="http://www.w3.org/2000/svg">
<path d="M13.5 3.5C13.7761 3.5 14 3.72386 14 4V28C14 28.2761 13.7761 28.5 13.5 28.5C13.2239 28.5 13 28.2761 13 28V4C13 3.72386 13.2239 3.5 13.5 3.5ZM8.5 7.5C8.77614 7.5 9 7.72386 9 8V24C9 24.2761 8.77614 24.5 8.5 24.5C8.22386 24.5 8 24.2761 8 24V8C8 7.72386 8.22386 7.5 8.5 7.5ZM18.5 9.5C18.7761 9.5 19 9.72386 19 10V20C19 20.2761 18.7761 20.5 18.5 20.5C18.2239 20.5 18 20.2761 18 20V10C18 9.72386 18.2239 9.5 18.5 9.5ZM23.5 11.5C23.7761 11.5 24 11.7239 24 12V18C24 18.2761 23.7761 18.5 23.5 18.5C23.2239 18.5 23 18.2761 23 18V12C23 11.7239 23.2239 11.5 23.5 11.5ZM3.5 13.5C3.77614 13.5 4 13.7239 4 14V18C4 18.2761 3.77614 18.5 3.5 18.5C3.22386 18.5 3 18.2761 3 18V14C3 13.7239 3.22386 13.5 3.5 13.5ZM28.5 13.5C28.7761 13.5 29 13.7239 29 14V16.5C29 16.7761 28.7761 17 28.5 17C28.2239 17 28 16.7761 28 16.5V14C28 13.7239 28.2239 13.5 28.5 13.5ZM26.5 19.5C26.7761 19.5 27 19.7239 27 20V22H29C29.2761 22 29.5 22.2239 29.5 22.5C29.5 22.7761 29.2761 23 29 23H27V25C27 25.2761 26.7761 25.5 26.5 25.5C26.2239 25.5 26 25.2761 26 25V23H24C23.7239 23 23.5 22.7761 23.5 22.5C23.5 22.2239 23.7239 22 24 22H26V20C26 19.7239 26.2239 19.5 26.5 19.5ZM19.5 23C19.7761 23 20 23.2239 20 23.5V25.5H22C22.2761 25.5 22.5 25.7239 22.5 26C22.5 26.2761 22.2761 26.5 22 26.5H20V28.5C20 28.7761 19.7761 29 19.5 29C19.2239 29 19 28.7761 19 28.5V26.5H17C16.7239 26.5 16.5 26.2761 16.5 26C16.5 25.7239 16.7239 25.5 17 25.5H19V23.5C19 23.2239 19.2239 23 19.5 23Z" fill="#0F0F0F"/>
</svg>
