<svg width="32" height="32" viewBox="0 0 32 32" fill="none" xmlns="http://www.w3.org/2000/svg">
<path d="M13.5 3C14.0523 3 14.5 3.44772 14.5 4V28C14.5 28.5523 14.0523 29 13.5 29C12.9477 29 12.5 28.5523 12.5 28V4C12.5 3.44772 12.9477 3 13.5 3ZM8.5 7C9.05228 7 9.5 7.44772 9.5 8V24C9.5 24.5523 9.05228 25 8.5 25C7.94772 25 7.5 24.5523 7.5 24V8C7.5 7.44772 7.94772 7 8.5 7ZM18.5 9C19.0523 9 19.5 9.44772 19.5 10V20C19.5 20.5523 19.0523 21 18.5 21C17.9477 21 17.5 20.5523 17.5 20V10C17.5 9.44772 17.9477 9 18.5 9ZM23.5 11C24.0523 11 24.5 11.4477 24.5 12V18C24.5 18.5523 24.0523 19 23.5 19C22.9477 19 22.5 18.5523 22.5 18V12C22.5 11.4477 22.9477 11 23.5 11ZM3.5 13C4.05228 13 4.5 13.4477 4.5 14V18C4.5 18.5523 4.05228 19 3.5 19C2.94772 19 2.5 18.5523 2.5 18V14C2.5 13.4477 2.94772 13 3.5 13ZM28.5 13C29.0523 13 29.5 13.4477 29.5 14V16.5C29.5 17.0523 29.0523 17.5 28.5 17.5C27.9477 17.5 27.5 17.0523 27.5 16.5V14C27.5 13.4477 27.9477 13 28.5 13ZM26.5 19C27.0523 19 27.5 19.4477 27.5 20V21.5H29C29.5523 21.5 30 21.9477 30 22.5C30 23.0523 29.5523 23.5 29 23.5H27.5V25C27.5 25.5523 27.0523 26 26.5 26C25.9477 26 25.5 25.5523 25.5 25V23.5H24C23.4477 23.5 23 23.0523 23 22.5C23 21.9477 23.4477 21.5 24 21.5H25.5V20C25.5 19.4477 25.9477 19 26.5 19ZM19.5 22.5C20.0523 22.5 20.5 22.9477 20.5 23.5V25H22C22.5523 25 23 25.4477 23 26C23 26.5523 22.5523 27 22 27H20.5V28.5C20.5 29.0523 20.0523 29.5 19.5 29.5C18.9477 29.5 18.5 29.0523 18.5 28.5V27H17C16.4477 27 16 26.5523 16 26C16 25.4477 16.4477 25 17 25H18.5V23.5C18.5 22.9477 18.9477 22.5 19.5 22.5Z" fill="black"/>
</svg>
