<svg width="32" height="32" viewBox="0 0 32 32" fill="none" xmlns="http://www.w3.org/2000/svg">
<path d="M29.707 2.29274C29.6142 2.19986 29.504 2.12618 29.3826 2.07591C29.2613 2.02564 29.1313 1.99976 29 1.99976C28.8687 1.99976 28.7386 2.02564 28.6173 2.07591C28.496 2.12618 28.3858 2.19986 28.293 2.29274L20 10.5833V4.99977C20 4.73455 19.8947 4.4802 19.7071 4.29266C19.5196 4.10512 19.2652 3.99977 19 3.99977C18.7348 3.99977 18.4804 4.10512 18.2929 4.29266C18.1054 4.4802 18 4.73455 18 4.99977V12.9998C17.9999 13.1311 18.0258 13.2612 18.076 13.3825C18.1262 13.5039 18.1999 13.6142 18.2927 13.707C18.3856 13.7999 18.4959 13.8736 18.6172 13.9238C18.7386 13.974 18.8687 13.9998 19 13.9998H27C27.2652 13.9998 27.5196 13.8944 27.7071 13.7069C27.8947 13.5193 28 13.265 28 12.9998C28 12.7346 27.8947 12.4802 27.7071 12.2927C27.5196 12.1051 27.2652 11.9998 27 11.9998H21.4116L29.707 3.7068C29.7999 3.61397 29.8736 3.50375 29.9238 3.38243C29.9741 3.26112 30 3.13108 30 2.99977C30 2.86845 29.9741 2.73842 29.9238 2.6171C29.8736 2.49579 29.7999 2.38557 29.707 2.29274Z" fill="#0F0F0F"/>
<path d="M9.10736 22.8427C16.1032 29.8385 22.3711 29.3779 24.172 27.577L25.2092 26.5398C25.8138 25.9339 26.1534 25.1128 26.1534 24.2569C26.1534 23.4009 25.8138 22.5799 25.2092 21.974L22.6853 19.4501C22.0812 18.8505 21.2639 18.5151 20.4128 18.5173C19.5616 18.5195 18.7461 18.8591 18.1451 19.4618L16.9877 20.6192C15.5984 20.3307 14.3297 19.6265 13.35 18.6C12.324 17.6209 11.6188 16.3538 11.3274 14.9658L12.4951 13.7995C13.0862 13.1691 13.4079 12.333 13.3918 11.469C13.3756 10.605 13.023 9.78146 12.4088 9.17358L9.97608 6.74083C9.37015 6.13624 8.54914 5.7967 7.69318 5.7967C6.83721 5.7967 6.0162 6.13624 5.41027 6.74083L4.37306 7.77803C2.57211 9.57891 2.11155 15.8468 9.10736 22.8427ZM6.82445 8.15501C7.05497 7.92485 7.3674 7.79558 7.69314 7.79558C8.01889 7.79558 8.33132 7.92485 8.56184 8.155L10.9946 10.5878C11.236 10.8194 11.3796 11.1347 11.3957 11.4688C11.4119 11.803 11.2995 12.1307 11.0816 12.3845L9.6991 13.7656C8.61841 14.8463 10.0257 18.1042 11.9357 20.0142C14.037 22.1155 17.1928 23.2425 18.1885 22.2467L19.5592 20.876C19.7849 20.6478 20.0918 20.5184 20.4128 20.5162C20.7337 20.514 21.0424 20.6392 21.2711 20.8643L23.795 23.3882C24.0252 23.6187 24.1544 23.9311 24.1544 24.2569C24.1544 24.5826 24.0252 24.8951 23.795 25.1256L22.7578 26.1628C21.6902 27.2303 16.4829 27.3899 10.5215 21.4285C4.56016 15.4671 4.71967 10.2598 5.78724 9.19221L6.82445 8.15501Z" fill="#0F0F0F"/>
</svg>
