<svg width="32" height="32" viewBox="0 0 32 32" fill="none" xmlns="http://www.w3.org/2000/svg">
<path d="M4.20605 16.334C4.20605 16.5752 4.30762 16.791 4.49805 16.9688L13.042 25.5381C13.2324 25.7158 13.4355 25.792 13.6641 25.792C14.1465 25.792 14.5146 25.4365 14.5146 24.9668C14.5146 24.7383 14.4258 24.5098 14.2734 24.3574L10.4775 20.5234L6.71973 17.0449L9.67773 17.1846H26.9434C27.4258 17.1846 27.7812 16.8291 27.7812 16.334C27.7812 15.8389 27.4258 15.4834 26.9434 15.4834H9.67773L6.73242 15.623L10.4775 12.1445L14.2734 8.31055C14.4385 8.14551 14.5146 7.92969 14.5146 7.68848C14.5146 7.21875 14.1465 6.86328 13.6641 6.86328C13.4355 6.86328 13.2197 6.95215 12.9785 7.19336L4.49805 15.6992C4.30762 15.877 4.20605 16.0928 4.20605 16.334Z" fill="black"/>
</svg>
