<svg width="32" height="32" viewBox="0 0 32 32" fill="none" xmlns="http://www.w3.org/2000/svg">
<path d="M24.999 6.00047H12.5663C11.8858 6.00098 11.2126 6.14014 10.5877 6.40945C9.96274 6.67877 9.39924 7.07259 8.93156 7.56688L2.54386 14.1899C2.20661 14.5492 2.01384 15.0204 2.00248 15.5131C1.99113 16.0058 2.162 16.4853 2.48234 16.8598L8.87398 24.227C9.34285 24.7831 9.92765 25.23 10.5874 25.5364C11.2472 25.8427 11.9659 26.0011 12.6933 26.0004H24.999C26.3246 25.9989 27.5954 25.4716 28.5328 24.5343C29.4701 23.5969 29.9974 22.326 29.999 21.0004V11.0004C29.9974 9.67484 29.4701 8.40399 28.5328 7.46665C27.5954 6.52931 26.3246 6.00203 24.999 6.00047ZM27.999 21.0005C27.9981 21.7959 27.6818 22.5584 27.1193 23.1208C26.5569 23.6833 25.7944 23.9996 24.999 24.0005H12.6933C12.2546 24.0004 11.8212 23.9041 11.4237 23.7185C11.0262 23.5329 10.6742 23.2625 10.3925 22.9263L3.9921 15.5688L10.3798 8.94578C10.6608 8.64781 10.9997 8.4103 11.3756 8.24776C11.7516 8.08522 12.1567 8.00108 12.5663 8.00047H24.999C25.7944 8.00134 26.5569 8.31769 27.1193 8.88011C27.6818 9.44253 27.9981 10.2051 27.999 11.0005V21.0005Z" fill="#0F0F0F"/>
<path d="M24.7079 11.2934C24.6151 11.2006 24.5049 11.1269 24.3835 11.0766C24.2622 11.0263 24.1322 11.0005 24.0009 11.0005C23.8696 11.0005 23.7395 11.0263 23.6182 11.0766C23.4969 11.1269 23.3867 11.2006 23.2939 11.2934L20.0009 14.5864L16.7079 11.2934C16.5203 11.1059 16.266 11.0006 16.0008 11.0006C15.7356 11.0006 15.4813 11.1059 15.2938 11.2934C15.1063 11.481 15.0009 11.7353 15.0009 12.0005C15.0009 12.2657 15.1063 12.52 15.2938 12.7075L18.5868 16.0005L15.2938 19.2935C15.2009 19.3864 15.1273 19.4966 15.077 19.6179C15.0268 19.7392 15.0009 19.8692 15.0009 20.0005C15.0009 20.1318 15.0268 20.2619 15.077 20.3832C15.1273 20.5045 15.2009 20.6147 15.2938 20.7076C15.3866 20.8004 15.4969 20.8741 15.6182 20.9243C15.7395 20.9746 15.8695 21.0004 16.0008 21.0004C16.1321 21.0004 16.2622 20.9746 16.3835 20.9243C16.5048 20.8741 16.615 20.8004 16.7079 20.7076L20.0009 17.4146L23.2939 20.7076C23.4814 20.8951 23.7357 21.0004 24.0009 21.0004C24.2661 21.0004 24.5204 20.8951 24.7079 20.7076C24.8954 20.52 25.0008 20.2657 25.0008 20.0005C25.0008 19.7353 24.8954 19.481 24.7079 19.2935L21.4149 16.0005L24.7079 12.7075C24.8008 12.6147 24.8745 12.5045 24.9247 12.3831C24.975 12.2618 25.0009 12.1318 25.0009 12.0005C25.0009 11.8692 24.975 11.7391 24.9247 11.6178C24.8745 11.4965 24.8008 11.3863 24.7079 11.2934Z" fill="#0F0F0F"/>
</svg>
