<svg width="32" height="32" viewBox="0 0 32 32" fill="none" xmlns="http://www.w3.org/2000/svg">
<path d="M14.0386 18.7041C14.9023 17.9781 15.5219 17.0041 15.8132 15.914C16.1046 14.824 16.0536 13.6707 15.6673 12.6106C15.2809 11.5504 14.5779 10.6348 13.6535 9.98782C12.7291 9.34083 11.6281 8.99381 10.4998 8.99381C9.37144 8.99381 8.27042 9.34083 7.34602 9.98782C6.42162 10.6348 5.71857 11.5504 5.33223 12.6106C4.94588 13.6707 4.89493 14.824 5.18628 15.914C5.47763 17.0041 6.09719 17.9781 6.96094 18.7041C5.53846 19.2374 4.30698 20.1821 3.42342 21.4179C2.53987 22.6537 2.04426 24.1245 1.99976 25.643C1.99976 26.4887 2.38648 28.06 4.97339 29.0893C6.74476 29.7265 8.61759 30.0349 10.4998 29.9995C14.7302 29.9995 18.9998 28.6528 18.9998 25.643C18.9553 24.1245 18.4596 22.6537 17.5761 21.4179C16.6925 20.1821 15.461 19.2374 14.0386 18.7041ZM10.4998 11.0004C11.192 11.0004 11.8687 11.2057 12.4443 11.5902C13.0198 11.9748 13.4684 12.5214 13.7333 13.161C13.9982 13.8005 14.0676 14.5043 13.9325 15.1832C13.7975 15.8621 13.4641 16.4858 12.9746 16.9753C12.4851 17.4647 11.8615 17.7981 11.1826 17.9331C10.5036 18.0682 9.7999 17.9989 9.16036 17.734C8.52082 17.4691 7.9742 17.0204 7.58961 16.4449C7.20503 15.8693 6.99976 15.1926 6.99976 14.5004C7.00088 13.5725 7.36999 12.6829 8.02612 12.0268C8.68226 11.3706 9.57184 11.0015 10.4998 11.0004ZM10.4998 27.9994C6.91576 27.9994 3.99976 26.9427 3.99976 25.6429C3.99976 22.5326 6.91576 20.0013 10.4998 20.0013C14.0838 20.0013 16.9998 22.5326 16.9998 25.6429C16.9998 26.9428 14.0837 27.9994 10.4998 27.9994Z" fill="#0F0F0F"/>
<path d="M28.9998 9.00038H27.9094C27.7595 8.10972 27.4092 7.26476 26.8849 6.52931L27.7068 5.70741C27.7996 5.61456 27.8733 5.50434 27.9235 5.38302C27.9738 5.26171 27.9996 5.13169 27.9996 5.00038C27.9996 4.86907 27.9738 4.73905 27.9235 4.61774C27.8733 4.49643 27.7996 4.3862 27.7068 4.29335C27.6139 4.2005 27.5037 4.12685 27.3824 4.0766C27.2611 4.02635 27.1311 4.00049 26.9998 4.00049C26.8684 4.00049 26.7384 4.02635 26.6171 4.0766C26.4958 4.12685 26.3856 4.2005 26.2927 4.29335L25.4708 5.11525C24.7354 4.59092 23.8904 4.24059 22.9998 4.09072V3.00038C22.9998 2.73516 22.8944 2.48081 22.7069 2.29327C22.5193 2.10574 22.265 2.00038 21.9998 2.00038C21.7345 2.00038 21.4802 2.10574 21.2926 2.29327C21.1051 2.48081 20.9998 2.73516 20.9998 3.00038V4.08858C20.1125 4.24524 19.2721 4.60034 18.5413 5.12734L17.7068 4.29334C17.6139 4.20049 17.5037 4.12684 17.3824 4.07659C17.2611 4.02634 17.1311 4.00048 16.9998 4.00048C16.8684 4.00048 16.7384 4.02634 16.6171 4.07659C16.4958 4.12684 16.3856 4.20049 16.2927 4.29334C16.1999 4.38619 16.1262 4.49642 16.076 4.61773C16.0257 4.73904 15.9999 4.86906 15.9999 5.00037C15.9999 5.13168 16.0257 5.2617 16.076 5.38301C16.1262 5.50433 16.1999 5.61455 16.2927 5.7074L17.1257 6.5398C16.6347 7.2142 16.2919 7.98486 16.1199 8.80115C16.067 9.06119 16.1197 9.33156 16.2662 9.5528C16.4127 9.77403 16.6411 9.928 16.9011 9.98084C17.1612 10.0337 17.4315 9.98105 17.6528 9.83454C17.874 9.68802 18.028 9.45963 18.0808 9.19959C18.2323 8.45808 18.5911 7.77478 19.1154 7.22903C19.6398 6.68328 20.3082 6.2975 21.0431 6.11648C21.778 5.93545 22.5491 5.96663 23.2669 6.20637C23.9848 6.44612 24.6199 6.8846 25.0985 7.47089C25.5771 8.05718 25.8795 8.76722 25.9707 9.51853C26.0619 10.2699 25.938 11.0316 25.6135 11.7154C25.289 12.3991 24.7772 12.9767 24.1376 13.3812C23.4979 13.7857 22.7566 14.0004 21.9997 14.0004C21.1341 14.003 20.2913 13.7221 19.6003 13.2006C19.3882 13.0419 19.1217 12.9739 18.8595 13.0114C18.5972 13.049 18.3606 13.1891 18.2015 13.4009C18.0424 13.6128 17.9738 13.8791 18.0109 14.1414C18.048 14.4038 18.1876 14.6407 18.3992 14.8002C19.1636 15.3758 20.0558 15.7584 20.9997 15.9154V17.0004C20.9997 17.2656 21.1051 17.5199 21.2926 17.7075C21.4802 17.895 21.7345 18.0004 21.9997 18.0004C22.265 18.0004 22.5193 17.895 22.7069 17.7075C22.8944 17.5199 22.9997 17.2656 22.9997 17.0004V15.9101C23.8906 15.7601 24.7356 15.4097 25.4712 14.8853L26.2927 15.7074C26.4802 15.8949 26.7346 16.0003 26.9997 16.0003C27.2649 16.0003 27.5193 15.8949 27.7068 15.7074C27.8943 15.5199 27.9996 15.2656 27.9996 15.0004C27.9996 14.7352 27.8943 14.4809 27.7068 14.2934L26.8851 13.4712C27.4093 12.7358 27.7595 11.8909 27.9094 11.0004H28.9997C29.265 11.0004 29.5193 10.895 29.7069 10.7075C29.8944 10.52 29.9997 10.2656 29.9997 10.0004C29.9997 9.73516 29.8944 9.48081 29.7069 9.29327C29.5193 9.10574 29.265 9.00038 28.9998 9.00038Z" fill="#0F0F0F"/>
</svg>
