<svg width="32" height="32" viewBox="0 0 32 32" fill="none" xmlns="http://www.w3.org/2000/svg">
<path d="M5 5C5 4.44772 4.55228 4 4 4C3.44772 4 3 4.44772 3 5V27C3 27.5523 3.44772 28 4 28C4.55228 28 5 27.5523 5 27V5Z" fill="#0F0F0F"/>
<path d="M29 5C29 4.44772 28.5523 4 28 4C27.4477 4 27 4.44772 27 5V27C27 27.5523 27.4477 28 28 28C28.5523 28 29 27.5523 29 27V5Z" fill="#0F0F0F"/>
<path d="M16 14C16.5523 14 17 14.4477 17 15V23C17 23.5523 16.5523 24 16 24C15.4477 24 15 23.5523 15 23V15C15 14.4477 15.4477 14 16 14Z" fill="#0F0F0F"/>
<path d="M21 7C21 6.44772 20.5523 6 20 6C19.4477 6 19 6.44772 19 7V23C19 23.5523 19.4477 24 20 24C20.5523 24 21 23.5523 21 23V7Z" fill="#0F0F0F"/>
<path d="M24 10C24.5523 10 25 10.4477 25 11V23C25 23.5523 24.5523 24 24 24C23.4477 24 23 23.5523 23 23V11C23 10.4477 23.4477 10 24 10Z" fill="#0F0F0F"/>
<path d="M9 15C9 14.4477 8.55228 14 8 14C7.44772 14 7 14.4477 7 15V23C7 23.5523 7.44772 24 8 24C8.55228 24 9 23.5523 9 23V15Z" fill="#0F0F0F"/>
<path d="M12 7C12.5523 7 13 7.44772 13 8V22C13 22.5523 12.5523 23 12 23C11.4477 23 11 22.5523 11 22V8C11 7.44772 11.4477 7 12 7Z" fill="#0F0F0F"/>
<path d="M8 28C8.55228 28 9 27.5523 9 27C9 26.4477 8.55228 26 8 26C7.44772 26 7 26.4477 7 27C7 27.5523 7.44772 28 8 28Z" fill="#0F0F0F"/>
<path d="M13 27C13 27.5523 12.5523 28 12 28C11.4477 28 11 27.5523 11 27C11 26.4477 11.4477 26 12 26C12.5523 26 13 26.4477 13 27Z" fill="#0F0F0F"/>
<path d="M16 28C16.5523 28 17 27.5523 17 27C17 26.4477 16.5523 26 16 26C15.4477 26 15 26.4477 15 27C15 27.5523 15.4477 28 16 28Z" fill="#0F0F0F"/>
<path d="M21 27C21 27.5523 20.5523 28 20 28C19.4477 28 19 27.5523 19 27C19 26.4477 19.4477 26 20 26C20.5523 26 21 26.4477 21 27Z" fill="#0F0F0F"/>
<path d="M24 28C24.5523 28 25 27.5523 25 27C25 26.4477 24.5523 26 24 26C23.4477 26 23 26.4477 23 27C23 27.5523 23.4477 28 24 28Z" fill="#0F0F0F"/>
</svg>
