<svg width="32" height="32" viewBox="0 0 32 32" fill="none" xmlns="http://www.w3.org/2000/svg">
<path fill-rule="evenodd" clip-rule="evenodd" d="M9.30468 20H10.7812C11.6324 19.9988 12.4686 20.1091 13.072 20.7094C13.9936 21.4944 13.9967 22.339 13.9999 23.1841L14 23.2021V26.7715C13.9991 27.6274 13.6586 28.4481 13.0533 29.0533C12.4481 29.6586 11.6274 29.9991 10.7715 30H9.5C6.95313 30 2 25.8936 2 16C2 6.10644 6.75781 2 9.30468 2H10.7715C11.6274 2.00093 12.4481 2.34137 13.0534 2.94662C13.6586 3.55187 13.9991 4.3725 14.0001 5.22847V8.668C14.0045 9.53211 13.6715 10.3638 13.072 10.9861C12.4725 11.6084 11.6537 11.9722 10.7901 12H9.13869C8.36386 13.1877 7.96689 14.5823 8.00002 16C7.9673 17.4184 8.52719 18.8133 9.30468 20ZM11.6399 27.6399C11.8702 27.4096 11.9997 27.0972 12 26.7715V23.2021C11.9974 22.8812 11.8887 22.4169 11.6603 22.1915C11.4558 21.9898 11.1702 21.9942 10.8824 21.9987C10.8487 21.9992 10.8149 21.9997 10.7812 21.9999H9.0029C7.59568 21.9999 6 18.9716 6 15.9999C6 13.2988 7.30859 9.99993 8.83691 9.99993H10.79C11.1238 9.97476 11.4352 9.82265 11.6603 9.5749C11.8853 9.32715 12.0069 9.00257 12 8.66793V5.22851C11.9997 4.90277 11.8702 4.59044 11.6399 4.3601C11.4096 4.12977 11.0972 4.00025 10.7715 4H9.30468C7.79492 4 4 7.56934 4 16C4 24.4307 7.99024 28 9.5 28H10.7715C11.0972 27.9997 11.4096 27.8702 11.6399 27.6399ZM15.707 11.2929L19.707 15.2929C19.7999 15.3858 19.8736 15.496 19.9239 15.6173C19.9741 15.7386 20 15.8686 20 16C20 16.1313 19.9741 16.2613 19.9239 16.3826C19.8736 16.5039 19.7999 16.6142 19.707 16.707L15.707 20.707C15.6143 20.8004 15.5041 20.8745 15.3826 20.9252C15.2612 20.9758 15.1309 21.002 14.9993 21.0023C14.8677 21.0025 14.7374 20.9767 14.6158 20.9265C14.4942 20.8762 14.3837 20.8025 14.2906 20.7094C14.1975 20.6164 14.1238 20.5059 14.0735 20.3843C14.0233 20.2627 13.9975 20.1323 13.9977 20.0007C13.9979 19.8691 14.0241 19.7389 14.0748 19.6174C14.1254 19.496 14.1996 19.3857 14.2929 19.293L16.5859 17H11C10.7348 17 10.4804 16.8946 10.2929 16.7071C10.1054 16.5196 10 16.2652 10 16C10 15.7348 10.1054 15.4804 10.2929 15.2929C10.4804 15.1054 10.7348 15 11 15H16.5859L14.293 12.707C14.1055 12.5195 14.0001 12.2652 14.0001 12C14.0001 11.7348 14.1054 11.4805 14.293 11.2929C14.4805 11.1054 14.7348 11.0001 15 11.0001C15.2652 11.0001 15.5195 11.1054 15.707 11.2929ZM25.1396 2C23.9341 2 22.6934 2.42575 21.7992 3.36761C19.647 5.63446 18.5354 8.03623 18.0171 10.8168C17.9159 11.3597 18.274 11.8819 18.8169 11.9831C19.3599 12.0843 19.8821 11.7262 19.9832 11.1832C20.4363 8.7523 21.3836 6.71016 23.2496 4.74465C23.7044 4.26558 24.3859 4 25.1396 4H26.6189C27.1711 4 27.6189 4.44772 27.6189 5V9C27.6189 9.55228 27.1711 10 26.6189 10H25.0446C24.119 10 23.2613 10.4856 22.7851 11.2793C21.0417 14.185 21.0417 17.815 22.7851 20.7207C23.2613 21.5144 24.119 22 25.0446 22H26.6189C27.1711 22 27.6189 22.4477 27.6189 23V27C27.6189 27.5523 27.1711 28 26.6189 28H24.9522C24.2753 28 23.6907 27.7943 23.302 27.4169C21.5387 25.7053 20.5381 23.3977 20.0365 20.8097C19.9315 20.2675 19.4067 19.9132 18.8645 20.0183C18.3223 20.1233 17.968 20.6481 18.0731 21.1903C18.624 24.033 19.7605 26.7666 21.909 28.852C22.7623 29.6803 23.8981 30 24.9522 30H26.6189C28.2757 30 29.6189 28.6569 29.6189 27V23C29.6189 21.3431 28.2757 20 26.6189 20H25.0446C24.8215 20 24.6148 19.883 24.5 19.6917C23.1367 17.4194 23.1367 14.5806 24.5 12.3083C24.6148 12.117 24.8215 12 25.0446 12H26.6189C28.2757 12 29.6189 10.6569 29.6189 9V5C29.6189 3.34315 28.2757 2 26.6189 2H25.1396Z" fill="#0F0F0F"/>
</svg>
