<svg width="32" height="32" viewBox="0 0 32 32" fill="none" xmlns="http://www.w3.org/2000/svg">
<path d="M16 29.0801C22.9697 29.0801 28.7334 23.3164 28.7334 16.3467C28.7334 9.37695 22.9697 3.61328 15.9873 3.61328C9.01758 3.61328 3.2666 9.37695 3.2666 16.3467C3.2666 23.3164 9.03027 29.0801 16 29.0801ZM15.9873 5.26367C22.1318 5.26367 27.083 10.2021 27.0957 16.3467C27.0957 19.1523 26.0547 21.7041 24.3535 23.6592L8.6875 7.99316C10.6426 6.29199 13.1943 5.26367 15.9873 5.26367ZM16 27.4424C9.85547 27.4424 4.91699 22.4912 4.91699 16.3467C4.91699 13.541 5.94531 10.9893 7.64648 9.03418L23.3125 24.7002C21.3574 26.4014 18.8057 27.4424 16 27.4424Z" fill="black"/>
</svg>
