<svg width="32" height="32" viewBox="0 0 32 32" fill="none" xmlns="http://www.w3.org/2000/svg">
<path d="M23.068 22.3853L16.6925 15.9995L23.0646 9.61575C23.2208 9.45932 23.3405 9.27028 23.4151 9.06218C23.4897 8.85408 23.5174 8.63206 23.4961 8.41201C23.4749 8.19196 23.4053 7.97933 23.2923 7.78933C23.1792 7.59934 23.0256 7.43668 22.8424 7.313L17.0719 3.6802C16.9219 3.57559 16.7461 3.51408 16.5637 3.50236C16.3812 3.49063 16.199 3.52914 16.0369 3.6137C15.8748 3.69826 15.7389 3.82563 15.6441 3.98198C15.5493 4.13832 15.4992 4.31766 15.4991 4.50051L15.4996 14.8052L8.36094 7.65383C8.26696 7.56101 8.14009 7.50912 8.008 7.50948C7.87591 7.50984 7.74933 7.56242 7.65586 7.65576C7.56239 7.74909 7.50963 7.8756 7.50908 8.00769C7.50854 8.13978 7.56025 8.26672 7.65294 8.36083L15.2794 15.9995L7.6534 23.6392C7.56071 23.7333 7.509 23.8602 7.50954 23.9923C7.51009 24.1244 7.56285 24.2509 7.65632 24.3442C7.74979 24.4376 7.87637 24.4902 8.00846 24.4905C8.14055 24.4909 8.26742 24.439 8.3614 24.3462L15.4996 17.1938L15.5001 27.4995C15.4995 27.6834 15.5499 27.8639 15.6457 28.0209C15.7414 28.1779 15.8788 28.3054 16.0425 28.3891C16.1862 28.463 16.3454 28.5015 16.5069 28.5014C16.7035 28.5031 16.8956 28.4429 17.0562 28.3295L22.877 24.6665C23.0544 24.54 23.2021 24.3764 23.3099 24.1871C23.4177 23.9977 23.4829 23.7872 23.5011 23.5701C23.5193 23.353 23.4899 23.1345 23.4151 22.9299C23.3403 22.7253 23.2219 22.5395 23.068 22.3853ZM16.5191 4.51321L22.2891 8.14602C22.3491 8.18774 22.3991 8.24211 22.4357 8.30528C22.4723 8.36845 22.4946 8.43889 22.5011 8.51162C22.5075 8.58436 22.4979 8.65762 22.4729 8.72623C22.4479 8.79484 22.4082 8.85714 22.3565 8.90872L16.5108 14.7661L16.5191 4.51321ZM22.3209 23.8365L16.5001 27.4995L16.5089 17.231L22.36 23.0923C22.4095 23.1421 22.448 23.2017 22.473 23.2673C22.4981 23.3328 22.5091 23.4029 22.5054 23.473C22.5018 23.5431 22.4834 23.6117 22.4517 23.6743C22.4199 23.7369 22.3753 23.7921 22.3209 23.8365Z" fill="#0F0F0F"/>
</svg>
