<svg width="32" height="32" viewBox="0 0 32 32" fill="none" xmlns="http://www.w3.org/2000/svg">
<path d="M23.2447 22.2085L17.0455 15.9995L23.2413 9.79152C23.4221 9.61101 23.5611 9.39298 23.6483 9.15285C23.7355 8.91271 23.769 8.65634 23.7462 8.40187C23.7223 8.14142 23.6407 7.88956 23.5073 7.66457C23.374 7.43957 23.1922 7.24709 22.9752 7.10109L17.2149 3.47509C17.0275 3.34432 16.8078 3.26743 16.5797 3.25278C16.3516 3.23812 16.1239 3.28626 15.9212 3.39196C15.7186 3.49766 15.5488 3.65688 15.4303 3.85231C15.3118 4.04775 15.2491 4.27193 15.2491 4.50048L15.2496 14.2007L8.5377 7.47708C8.46815 7.40697 8.38545 7.35127 8.29434 7.31319C8.20322 7.27511 8.10548 7.25539 8.00673 7.25517C7.90797 7.25495 7.81014 7.27422 7.71886 7.31189C7.62757 7.34955 7.54461 7.40487 7.47475 7.47467C7.40489 7.54447 7.34949 7.62737 7.31174 7.71862C7.27399 7.80988 7.25462 7.90769 7.25475 8.00644C7.25489 8.10519 7.27451 8.20295 7.31251 8.2941C7.3505 8.38526 7.40612 8.46801 7.47617 8.53762L14.9259 15.9995L7.47666 23.4624C7.40702 23.5321 7.35179 23.6149 7.31413 23.7059C7.27647 23.797 7.2571 23.8945 7.25715 23.9931C7.25719 24.0916 7.27664 24.1891 7.31439 24.2801C7.35213 24.3712 7.40743 24.4538 7.47713 24.5235C7.54684 24.5931 7.62957 24.6483 7.72061 24.686C7.81166 24.7237 7.90923 24.743 8.00776 24.743C8.10628 24.7429 8.20384 24.7235 8.29485 24.6857C8.38586 24.648 8.46854 24.5927 8.53818 24.523L15.2496 17.7984L15.2501 27.4996C15.2496 27.7295 15.3126 27.9551 15.4323 28.1514C15.552 28.3477 15.7237 28.5071 15.9283 28.6119C16.1086 28.7041 16.3083 28.7523 16.5108 28.7525C16.7536 28.7548 16.9909 28.6811 17.1896 28.5416L23.0221 24.8697C23.229 24.7222 23.4014 24.5313 23.5271 24.3105C23.6529 24.0896 23.729 23.844 23.7502 23.5907C23.7713 23.3375 23.7371 23.0826 23.6498 22.8439C23.5625 22.6052 23.4243 22.3884 23.2447 22.2085ZM22.1461 8.35012C22.1762 8.37102 22.2013 8.39832 22.2196 8.43006C22.238 8.4618 22.249 8.4972 22.2521 8.53372C22.2555 8.57006 22.2508 8.60671 22.2383 8.641C22.2258 8.67529 22.2059 8.70637 22.1798 8.73196L16.7497 14.1724L16.7492 4.95364L22.1461 8.35012ZM22.1876 23.6245L16.7501 27.0474L16.7496 17.8257L22.1832 23.2681C22.209 23.2939 22.2288 23.325 22.2413 23.3592C22.2538 23.3935 22.2586 23.43 22.2555 23.4663C22.253 23.5256 22.2288 23.5819 22.1876 23.6245Z" fill="#0F0F0F"/>
</svg>
