<svg width="32" height="32" viewBox="0 0 32 32" fill="none" xmlns="http://www.w3.org/2000/svg">
<path d="M19.3824 20.8015L16.9951 18.4142V22.2338L19.3824 20.8015Z" fill="#0F0F0F"/>
<path d="M16.9951 9.76619V13.5858L19.3824 11.1985L16.9951 9.76619Z" fill="#0F0F0F"/>
<path d="M15.9951 2C9.21762 2 3.99512 8.43112 3.99512 16C3.99512 23.5689 9.21762 30 15.9951 30C22.7726 30 27.9951 23.5689 27.9951 16C27.9951 8.43112 22.7726 2 15.9951 2ZM16.5096 7.14251L21.5096 10.1425C21.7737 10.3009 21.95 10.5722 21.9876 10.8778C22.0252 11.1834 21.92 11.4894 21.7022 11.7071L17.4093 16L21.7022 20.2929C21.92 20.5106 22.0252 20.8166 21.9876 21.1222C21.95 21.4278 21.7737 21.6991 21.5096 21.8575L16.5096 24.8575C16.2007 25.0429 15.8159 25.0477 15.5024 24.8702C15.1889 24.6927 14.9951 24.3603 14.9951 24V18.4142L11.7022 21.7071C11.3117 22.0976 10.6785 22.0976 10.288 21.7071C9.89749 21.3166 9.89749 20.6834 10.288 20.2929L14.5809 16L10.288 11.7071C9.89749 11.3166 9.89749 10.6834 10.288 10.2929C10.6785 9.90237 11.3117 9.90237 11.7022 10.2929L14.9951 13.5858V8C14.9951 7.63973 15.1889 7.30731 15.5024 7.1298C15.8159 6.95229 16.2007 6.95715 16.5096 7.14251Z" fill="#0F0F0F"/>
</svg>
