<svg width="32" height="32" viewBox="0 0 32 32" fill="none" xmlns="http://www.w3.org/2000/svg">
<path d="M20 15.9979C20.8284 15.9979 21.5 15.3263 21.5 14.4979C21.5 13.6695 20.8284 12.9979 20 12.9979C19.1716 12.9979 18.5 13.6695 18.5 14.4979C18.5 15.3263 19.1716 15.9979 20 15.9979Z" fill="#0F0F0F"/>
<path d="M12 15.9979C12.8284 15.9979 13.5 15.3263 13.5 14.4979C13.5 13.6695 12.8284 12.9979 12 12.9979C11.1716 12.9979 10.5 13.6695 10.5 14.4979C10.5 15.3263 11.1716 15.9979 12 15.9979Z" fill="#0F0F0F"/>
<path d="M13 20.9926H19C19.2615 20.99 19.5115 20.8842 19.6955 20.6984C19.8795 20.5125 19.9827 20.2615 19.9827 19.9999C19.9827 19.7384 19.8795 19.4874 19.6955 19.3015C19.5115 19.1157 19.2615 19.0099 19 19.0073H13C12.8688 19.006 12.7386 19.0307 12.617 19.08C12.4955 19.1293 12.3848 19.2022 12.2916 19.2945C12.1984 19.3868 12.1244 19.4967 12.0738 19.6178C12.0233 19.7388 11.9973 19.8687 11.9973 19.9999C11.9973 20.1311 12.0233 20.261 12.0738 20.3821C12.1244 20.5032 12.1984 20.6131 12.2916 20.7054C12.3848 20.7977 12.4955 20.8706 12.617 20.9199C12.7386 20.9692 12.8688 20.9939 13 20.9926Z" fill="#0F0F0F"/>
<path d="M30.9927 14C30.9954 13.2524 30.7882 12.519 30.3946 11.8833C30.0011 11.2477 29.4369 10.7353 28.7664 10.4045C28.0959 10.0738 27.346 9.93792 26.6021 10.0124C25.8582 10.0869 25.1501 10.3688 24.5586 10.826C23.967 11.2832 23.5156 11.8972 23.2559 12.5983C22.9962 13.2994 22.9386 14.0593 23.0896 14.7916C23.2406 15.5238 23.5941 16.1989 24.1099 16.7401C24.6258 17.2813 25.2832 17.6667 26.0074 17.8526V23.81C26.0063 24.6576 25.669 25.4703 25.0697 26.0696C24.4703 26.669 23.6576 27.0062 22.81 27.0073H9.19049C8.34276 27.0063 7.53003 26.6692 6.93056 26.0698C6.33108 25.4704 5.9938 24.6577 5.99269 23.81V10.1928C5.99369 9.34492 6.331 8.53207 6.93059 7.93258C7.53019 7.3331 8.34311 6.99595 9.19099 6.9951L16.1475 6.9927C16.3892 7.93443 16.9663 8.7556 17.7704 9.30213C18.5745 9.84867 19.5504 10.083 20.515 9.96118C21.4796 9.83936 22.3666 9.36975 23.0096 8.64045C23.6525 7.91116 24.0073 6.97231 24.0073 6.00005C24.0073 5.02779 23.6525 4.08894 23.0096 3.35964C22.3666 2.63035 21.4796 2.16074 20.515 2.03891C19.5504 1.91709 18.5745 2.15143 17.7704 2.69796C16.9663 3.2445 16.3892 4.06567 16.1475 5.0074L9.19049 5.01C7.81633 5.01159 6.49891 5.55817 5.52723 6.52985C4.55556 7.50152 4.00897 8.81894 4.00739 10.1931V23.81C4.00897 25.1842 4.55556 26.5016 5.52723 27.4732C6.49891 28.4449 7.81633 28.9915 9.19049 28.9931H22.81C24.1841 28.9914 25.5014 28.4448 26.473 27.4731C27.4446 26.5014 27.9911 25.1841 27.9927 23.81V17.853C28.849 17.6339 29.6082 17.1366 30.1512 16.4392C30.6942 15.7418 30.9902 14.8838 30.9927 14ZM20 3.9926C20.397 3.99258 20.7851 4.11029 21.1153 4.33086C21.4454 4.55142 21.7027 4.86493 21.8547 5.23173C22.0066 5.59853 22.0464 6.00216 21.9689 6.39156C21.8915 6.78097 21.7003 7.13866 21.4196 7.41941C21.1388 7.70016 20.7811 7.89136 20.3917 7.96882C20.0023 8.04628 19.5987 8.00654 19.2319 7.8546C18.8651 7.70267 18.5516 7.44538 18.331 7.11526C18.1104 6.78514 17.9927 6.39703 17.9927 6C17.9932 5.46779 18.2049 4.95754 18.5812 4.5812C18.9575 4.20486 19.4678 3.99318 20 3.9926ZM27 16.0073C26.603 16.0073 26.2148 15.8896 25.8847 15.669C25.5546 15.4484 25.2973 15.1349 25.1454 14.7681C24.9934 14.4013 24.9537 13.9976 25.0312 13.6082C25.1086 13.2188 25.2998 12.8612 25.5806 12.5804C25.8613 12.2997 26.219 12.1085 26.6084 12.0311C26.9978 11.9536 27.4015 11.9934 27.7683 12.1453C28.1351 12.2973 28.4486 12.5546 28.6691 12.8847C28.8897 13.2148 29.0074 13.603 29.0074 14C29.0067 14.5322 28.7949 15.0423 28.4186 15.4186C28.0423 15.7949 27.5322 16.0066 27 16.0073Z" fill="#0F0F0F"/>
</svg>
