<svg width="32" height="32" viewBox="0 0 32 32" fill="none" xmlns="http://www.w3.org/2000/svg">
<path d="M14.9778 14.5H17.0731C17.1936 15.2391 17.5874 15.906 18.1763 16.3686C18.7653 16.8311 19.5065 17.0556 20.2531 16.9976C20.9997 16.9395 21.6973 16.6032 22.2077 16.0552C22.7181 15.5071 23.004 14.7874 23.0089 14.0386C23.0138 13.2897 22.7372 12.5663 22.234 12.0117C21.7308 11.4571 21.0376 11.1117 20.2918 11.044C19.546 10.9762 18.8019 11.1911 18.207 11.6459C17.6121 12.1008 17.2097 12.7625 17.0796 13.5H14.9728C14.8437 12.7563 14.4398 12.0882 13.8413 11.6282C13.2427 11.1682 12.4932 10.9499 11.7413 11.0166C10.9894 11.0833 10.29 11.4301 9.78169 11.9882C9.27342 12.5463 8.99343 13.275 8.9972 14.0299C9.00097 14.7848 9.28825 15.5106 9.80207 16.0637C10.3159 16.6167 11.0187 16.9564 11.7713 17.0156C12.5238 17.0747 13.2711 16.849 13.8651 16.383C14.459 15.9171 14.8561 15.245 14.9778 14.5ZM20.0258 12.0317C20.4214 12.0317 20.808 12.149 21.1369 12.3688C21.4658 12.5885 21.7222 12.9009 21.8736 13.2663C22.0249 13.6318 22.0645 14.0339 21.9874 14.4219C21.9102 14.8098 21.7197 15.1662 21.44 15.4459C21.1603 15.7256 20.8039 15.9161 20.416 15.9933C20.028 16.0704 19.6259 16.0308 19.2604 15.8795C18.895 15.7281 18.5826 15.4717 18.3629 15.1428C18.1431 14.8139 18.0258 14.4273 18.0258 14.0317C18.0263 13.5014 18.2372 12.993 18.6122 12.6181C18.9871 12.2431 19.4955 12.0322 20.0258 12.0317ZM10.0258 14.0249C10.0258 13.6293 10.1431 13.2427 10.3629 12.9138C10.5826 12.5849 10.895 12.3285 11.2604 12.1771C11.6259 12.0258 12.028 11.9862 12.416 12.0633C12.8039 12.1405 13.1603 12.331 13.44 12.6107C13.7197 12.8904 13.9102 13.2468 13.9874 13.6347C14.0645 14.0227 14.0249 14.4248 13.8736 14.7903C13.7222 15.1557 13.4658 15.4681 13.1369 15.6878C12.808 15.9076 12.4214 16.0249 12.0258 16.0249C11.4955 16.0244 10.9871 15.8135 10.6122 15.4385C10.2372 15.0636 10.0263 14.5552 10.0258 14.0249Z" fill="#0F0F0F"/>
<path d="M5.50001 23.5505V9.1929C5.5012 8.21457 5.89033 7.27664 6.58207 6.58481C7.2738 5.89298 8.21168 5.50372 9.19001 5.5024H20C20.1326 5.5024 20.2598 5.44972 20.3536 5.35595C20.4473 5.26219 20.5 5.13501 20.5 5.0024C20.5 4.86979 20.4473 4.74261 20.3536 4.64885C20.2598 4.55508 20.1326 4.5024 20 4.5024H9.19001C7.94651 4.50388 6.75437 4.99855 5.87514 5.87788C4.9959 6.75722 4.50136 7.9494 4.50001 9.1929V23.5505C3.62421 23.6769 2.8288 24.1304 2.27386 24.8196C1.71891 25.5088 1.44562 26.3826 1.50899 27.2652C1.57236 28.1478 1.96768 28.9737 2.61539 29.5766C3.26311 30.1794 4.11514 30.5146 5.00001 30.5146C5.88488 30.5146 6.7369 30.1794 7.38462 29.5766C8.03233 28.9737 8.42765 28.1478 8.49102 27.2652C8.55439 26.3826 8.2811 25.5088 7.72615 24.8196C7.17121 24.1304 6.3758 23.6769 5.50001 23.5505ZM5.00001 29.5C4.50555 29.5 4.0222 29.3534 3.61108 29.0787C3.19996 28.804 2.87953 28.4135 2.69031 27.9567C2.50109 27.4999 2.45158 26.9972 2.54804 26.5123C2.64451 26.0273 2.88261 25.5819 3.23224 25.2322C3.58187 24.8826 4.02733 24.6445 4.51228 24.548C4.99723 24.4516 5.4999 24.5011 5.95671 24.6903C6.41353 24.8795 6.80398 25.2 7.07868 25.6111C7.35338 26.0222 7.50001 26.5055 7.50001 27C7.49921 27.6628 7.23556 28.2982 6.7669 28.7669C6.29823 29.2356 5.6628 29.4992 5.00001 29.5Z" fill="#0F0F0F"/>
<path d="M30.5 5C30.5028 4.3285 30.3124 3.67036 29.9515 3.1041C29.5906 2.53783 29.0744 2.08735 28.4645 1.80639C27.8545 1.52543 27.1767 1.42585 26.5118 1.51953C25.8468 1.61321 25.2229 1.8962 24.7143 2.33474C24.2058 2.77327 23.8341 3.34884 23.6437 3.99278C23.4533 4.63673 23.4521 5.32185 23.6404 5.96644C23.8286 6.61102 24.1983 7.18785 24.7053 7.62811C25.2124 8.06836 25.8354 8.35346 26.5 8.4494V22.81C26.4987 23.7883 26.1095 24.7261 25.4178 25.4178C24.7261 26.1095 23.7883 26.4987 22.81 26.5H12C11.8674 26.5 11.7402 26.5527 11.6465 26.6464C11.5527 26.7402 11.5 26.8674 11.5 27C11.5 27.1326 11.5527 27.2598 11.6465 27.3536C11.7402 27.4473 11.8674 27.5 12 27.5H22.81C24.0534 27.4985 25.2455 27.0039 26.1247 26.1247C27.0039 25.2455 27.4985 24.0534 27.5 22.81V8.4494C28.331 8.33056 29.0914 7.91661 29.6422 7.28324C30.1931 6.64987 30.4976 5.8394 30.5 5ZM27 7.5C26.5056 7.5 26.0222 7.35338 25.6111 7.07867C25.2 6.80397 24.8795 6.41352 24.6903 5.95671C24.5011 5.49989 24.4516 4.99723 24.548 4.51227C24.6445 4.02732 24.8826 3.58186 25.2322 3.23223C25.5819 2.8826 26.0273 2.6445 26.5123 2.54804C26.9972 2.45157 27.4999 2.50108 27.9567 2.6903C28.4135 2.87952 28.804 3.19995 29.0787 3.61107C29.3534 4.0222 29.5 4.50555 29.5 5C29.4992 5.6628 29.2356 6.29822 28.7669 6.76689C28.2982 7.23556 27.6628 7.49921 27 7.5Z" fill="#0F0F0F"/>
<path d="M13 19.5C12.8674 19.5 12.7402 19.5527 12.6465 19.6464C12.5527 19.7402 12.5 19.8674 12.5 20C12.5 20.1326 12.5527 20.2598 12.6465 20.3536C12.7402 20.4473 12.8674 20.5 13 20.5H19C19.1326 20.5 19.2598 20.4473 19.3536 20.3536C19.4473 20.2598 19.5 20.1326 19.5 20C19.5 19.8674 19.4473 19.7402 19.3536 19.6464C19.2598 19.5527 19.1326 19.5 19 19.5H13Z" fill="#0F0F0F"/>
</svg>
