<svg width="32" height="32" viewBox="0 0 32 32" fill="none" xmlns="http://www.w3.org/2000/svg">
<path d="M20 15.9979C20.8284 15.9979 21.5 15.3263 21.5 14.4979C21.5 13.6695 20.8284 12.9979 20 12.9979C19.1716 12.9979 18.5 13.6695 18.5 14.4979C18.5 15.3263 19.1716 15.9979 20 15.9979Z" fill="#0F0F0F"/>
<path d="M12 15.9979C12.8284 15.9979 13.5 15.3263 13.5 14.4979C13.5 13.6695 12.8284 12.9979 12 12.9979C11.1716 12.9979 10.5 13.6695 10.5 14.4979C10.5 15.3263 11.1716 15.9979 12 15.9979Z" fill="#0F0F0F"/>
<path d="M13 20.9929H19C19.2633 20.9929 19.5158 20.8883 19.7019 20.7021C19.8881 20.516 19.9927 20.2635 19.9927 20.0002C19.9927 19.7369 19.8881 19.4844 19.7019 19.2983C19.5158 19.1121 19.2633 19.0075 19 19.0075H13C12.7367 19.0075 12.4842 19.1121 12.2981 19.2983C12.1119 19.4844 12.0073 19.7369 12.0073 20.0002C12.0073 20.2635 12.1119 20.516 12.2981 20.7021C12.4842 20.8883 12.7367 20.9929 13 20.9929Z" fill="#0F0F0F"/>
<path d="M30.9927 14C30.9955 13.2524 30.7882 12.519 30.3947 11.8833C30.0011 11.2477 29.4369 10.7353 28.7664 10.4045C28.0959 10.0738 27.346 9.93793 26.6021 10.0124C25.8582 10.0869 25.1502 10.3688 24.5586 10.826C23.967 11.2832 23.5157 11.8972 23.256 12.5983C22.9963 13.2994 22.9386 14.0593 23.0896 14.7916C23.2406 15.5238 23.5941 16.1989 24.11 16.7401C24.6258 17.2813 25.2832 17.6667 26.0074 17.8526V23.81C26.0063 24.6577 25.6691 25.4704 25.0697 26.0698C24.4703 26.6692 23.6577 27.0064 22.81 27.0075H9.1905C8.34274 27.0065 7.52998 26.6693 6.9305 26.0699C6.33102 25.4705 5.99376 24.6578 5.9927 23.81V10.1926C5.99371 9.34472 6.33101 8.53185 6.9306 7.93235C7.5302 7.33285 8.34311 6.99568 9.191 6.9948L16.1474 6.993C16.3891 7.93478 16.9662 8.75599 17.7704 9.30255C18.5745 9.84911 19.5505 10.0835 20.5151 9.96163C21.4798 9.83981 22.3668 9.37017 23.0098 8.64084C23.6528 7.91151 24.0076 6.97261 24.0076 6.0003C24.0076 5.02799 23.6528 4.08909 23.0098 3.35976C22.3668 2.63043 21.4798 2.1608 20.5151 2.03897C19.5505 1.91714 18.5745 2.15149 17.7704 2.69805C16.9662 3.24461 16.3891 4.06582 16.1474 5.0076L9.1905 5.01C7.81634 5.01156 6.4989 5.55814 5.52722 6.52982C4.55554 7.5015 4.00896 8.81894 4.0074 10.1931V23.81C4.00896 25.1842 4.55554 26.5016 5.52721 27.4733C6.49889 28.445 7.81633 28.9916 9.1905 28.9932H22.81C24.1841 28.9915 25.5014 28.4449 26.473 27.4732C27.4446 26.5015 27.9911 25.1841 27.9927 23.81V17.8528C28.8489 17.6337 29.6081 17.1364 30.1511 16.4391C30.6941 15.7417 30.9901 14.8838 30.9927 14ZM20 3.9929C20.397 3.9929 20.7851 4.11063 21.1152 4.33121C21.4453 4.55178 21.7026 4.86529 21.8545 5.23209C22.0064 5.59889 22.0462 6.0025 21.9687 6.39188C21.8912 6.78126 21.7001 7.13893 21.4193 7.41965C21.1386 7.70037 20.7809 7.89153 20.3915 7.96896C20.0021 8.04639 19.5985 8.00661 19.2317 7.85465C18.8649 7.70269 18.5514 7.44538 18.3309 7.11525C18.1104 6.78513 17.9927 6.39702 17.9927 6C17.9933 5.46784 18.205 4.95765 18.5813 4.58137C18.9576 4.20509 19.4678 3.99346 20 3.9929ZM27 16.0075C26.603 16.0075 26.2149 15.8897 25.8849 15.6692C25.5548 15.4486 25.2975 15.1351 25.1456 14.7683C24.9937 14.4016 24.9539 13.998 25.0314 13.6086C25.1088 13.2192 25.3 12.8616 25.5807 12.5809C25.8614 12.3001 26.219 12.109 26.6084 12.0315C26.9978 11.954 27.4014 11.9938 27.7681 12.1457C28.1349 12.2976 28.4484 12.5548 28.669 12.8849C28.8896 13.2149 29.0074 13.603 29.0074 14C29.0069 14.5322 28.7952 15.0425 28.4189 15.4189C28.0425 15.7953 27.5322 16.0069 27 16.0075Z" fill="#0F0F0F"/>
</svg>
