<svg width="32" height="32" viewBox="0 0 32 32" fill="none" xmlns="http://www.w3.org/2000/svg">
<path d="M20 15.4978C20.5523 15.4978 21 15.0501 21 14.4978C21 13.9455 20.5523 13.4978 20 13.4978C19.4477 13.4978 19 13.9455 19 14.4978C19 15.0501 19.4477 15.4978 20 15.4978Z" fill="#0F0F0F"/>
<path d="M12 15.4978C12.5523 15.4978 13 15.0501 13 14.4978C13 13.9455 12.5523 13.4978 12 13.4978C11.4477 13.4978 11 13.9455 11 14.4978C11 15.0501 11.4477 15.4978 12 15.4978Z" fill="#0F0F0F"/>
<path d="M13 20.5H19C19.1326 20.5 19.2598 20.4473 19.3535 20.3536C19.4473 20.2598 19.5 20.1326 19.5 20C19.5 19.8674 19.4473 19.7402 19.3535 19.6465C19.2598 19.5527 19.1326 19.5 19 19.5H13C12.8674 19.5 12.7402 19.5527 12.6464 19.6465C12.5527 19.7402 12.5 19.8674 12.5 20C12.5 20.1326 12.5527 20.2598 12.6464 20.3536C12.7402 20.4473 12.8674 20.5 13 20.5Z" fill="#0F0F0F"/>
<path d="M30.5 14C30.5027 13.3285 30.3122 12.6705 29.9512 12.1043C29.5902 11.5381 29.0739 11.0877 28.464 10.8068C27.8541 10.5259 27.1763 10.4264 26.5114 10.5202C25.8465 10.6139 25.2226 10.897 24.7141 11.3355C24.2056 11.7741 23.834 12.3497 23.6436 12.9936C23.4533 13.6375 23.4521 14.3226 23.6404 14.9672C23.8287 15.6117 24.1984 16.1885 24.7054 16.6288C25.2124 17.069 25.8354 17.3541 26.5 17.45V23.81C26.4988 24.7883 26.1096 25.7261 25.4178 26.4179C24.7261 27.1096 23.7883 27.4988 22.81 27.5H9.1905C8.21214 27.4989 7.27415 27.1098 6.58229 26.4181C5.89044 25.7263 5.50121 24.7884 5.5 23.81V10.1928C5.50116 9.2148 5.89008 8.27715 6.58149 7.58544C7.2729 6.89373 8.21038 6.5044 9.1884 6.50281L16.5536 6.53081C16.6855 7.40822 17.1448 8.20309 17.8392 8.75543C18.5336 9.30777 19.4114 9.57656 20.296 9.5077C21.1805 9.43883 22.0062 9.03743 22.6067 8.38429C23.2072 7.73115 23.5381 6.87476 23.5326 5.98752C23.5271 5.10028 23.1857 4.24807 22.5771 3.60242C21.9685 2.95678 21.1379 2.56564 20.2526 2.50776C19.3672 2.44987 18.4928 2.72952 17.8053 3.29043C17.1178 3.85134 16.6684 4.65184 16.5474 5.53081L9.1904 5.50281C7.94699 5.5043 6.75493 5.99889 5.8757 6.87812C4.99648 7.75734 4.50188 8.9494 4.5004 10.1928V23.81C4.50188 25.0534 4.99648 26.2455 5.8757 27.1247C6.75493 28.0039 7.94699 28.4985 9.1904 28.5H22.81C24.0534 28.4985 25.2455 28.0039 26.1247 27.1247C27.0039 26.2455 27.4985 25.0534 27.5 23.81V17.45C28.331 17.3311 29.0915 16.917 29.6423 16.2836C30.1932 15.6501 30.4976 14.8395 30.5 14ZM20 3.50001C20.4944 3.50001 20.9778 3.64664 21.3889 3.92134C21.8 4.19604 22.1205 4.58649 22.3097 5.0433C22.4989 5.50012 22.5484 6.00279 22.452 6.48774C22.3555 6.97269 22.1174 7.41815 21.7678 7.76778C21.4181 8.11741 20.9727 8.35551 20.4877 8.45198C20.0028 8.54844 19.5001 8.49893 19.0433 8.30971C18.5865 8.12049 18.196 7.80006 17.9213 7.38894C17.6466 6.97782 17.5 6.49447 17.5 6.00001C17.5008 5.33722 17.7644 4.70179 18.2331 4.23312C18.7018 3.76445 19.3372 3.50081 20 3.50001ZM27 16.5C26.5055 16.5 26.0222 16.3534 25.6111 16.0787C25.1999 15.804 24.8795 15.4135 24.6903 14.9567C24.5011 14.4999 24.4516 13.9972 24.548 13.5123C24.6445 13.0273 24.8826 12.5819 25.2322 12.2322C25.5819 11.8826 26.0273 11.6445 26.5123 11.548C26.9972 11.4516 27.4999 11.5011 27.9567 11.6903C28.4135 11.8795 28.804 12.2 29.0787 12.6111C29.3534 13.0222 29.5 13.5056 29.5 14C29.4992 14.6628 29.2356 15.2983 28.7669 15.7669C28.2982 16.2356 27.6628 16.4992 27 16.5Z" fill="#0F0F0F"/>
</svg>
