<svg width="32" height="32" viewBox="0 0 32 32" fill="none" xmlns="http://www.w3.org/2000/svg">
<path d="M23.0459 11.8906L27.9717 9.12305C27.8066 8.95801 27.6289 8.83105 27.3496 8.67871L17.9424 3.35938C17.2695 2.97852 16.6348 2.78809 16 2.78809C15.3652 2.78809 14.7305 2.97852 14.0703 3.35938L10.96 5.11133L23.0459 11.8906ZM16 15.8389L21.5225 12.7412L9.44922 5.97461L4.65039 8.69141C4.38379 8.83105 4.19336 8.95801 4.04102 9.12305L16 15.8389ZM16.7363 29.9561C16.8379 29.9307 16.9268 29.8799 17.0156 29.8291L27.1338 24.1543C28.2002 23.5576 28.7207 22.9229 28.7207 21.3994V11.2812C28.7207 10.9385 28.6953 10.6846 28.6318 10.4688L16.7363 17.1465V29.9561ZM15.2637 29.9561V17.1465L3.36816 10.4688C3.30469 10.6846 3.2793 10.9385 3.2793 11.2812V21.3994C3.2793 22.9229 3.7998 23.5576 4.86621 24.1543L14.9844 29.8291C15.0732 29.8799 15.1621 29.9307 15.2637 29.9561Z" fill="black"/>
</svg>
