<svg width="32" height="32" viewBox="0 0 32 32" fill="none" xmlns="http://www.w3.org/2000/svg">
<path d="M16 6.49512C16.7236 6.49512 17.3203 5.91113 17.3203 5.1748C17.3203 4.45117 16.7236 3.85449 16 3.85449C15.2764 3.85449 14.6797 4.45117 14.6797 5.1748C14.6797 5.91113 15.2764 6.49512 16 6.49512ZM22.9697 9.38965C23.4775 9.89746 24.3154 9.89746 24.8359 9.38965C25.3564 8.86914 25.3564 8.03125 24.8359 7.51074C24.3154 6.99023 23.4775 6.99023 22.9697 7.51074C22.4492 8.03125 22.4492 8.86914 22.9697 9.38965ZM7.16406 9.38965C7.67188 9.91016 8.50977 9.91016 9.03027 9.38965C9.55078 8.86914 9.55078 8.03125 9.03027 7.52344C8.50977 7.00293 7.67188 7.00293 7.16406 7.52344C6.64355 8.03125 6.64355 8.86914 7.16406 9.38965ZM16 22.6182C19.415 22.6182 22.2588 19.7871 22.2588 16.3594C22.2588 12.9443 19.415 10.1133 16 10.1133C12.585 10.1133 9.75391 12.9443 9.75391 16.3594C9.75391 19.7871 12.585 22.6182 16 22.6182ZM4.82812 17.6797C5.55176 17.6797 6.14844 17.083 6.14844 16.3594C6.14844 15.623 5.55176 15.0391 4.82812 15.0391C4.10449 15.0391 3.50781 15.623 3.50781 16.3594C3.50781 17.083 4.10449 17.6797 4.82812 17.6797ZM27.1719 17.7432C27.8955 17.7432 28.4922 17.1465 28.4922 16.4102C28.4922 15.6865 27.8955 15.0898 27.1719 15.0898C26.4482 15.0898 25.8516 15.6865 25.8516 16.4102C25.8516 17.1465 26.4482 17.7432 27.1719 17.7432ZM7.16406 25.1826C7.68457 25.7031 8.52246 25.7031 9.04297 25.1826C9.55078 24.6621 9.55078 23.8242 9.04297 23.3164C8.52246 22.7959 7.68457 22.7959 7.16406 23.3164C6.64355 23.8242 6.64355 24.6621 7.16406 25.1826ZM22.9189 25.2334C23.4395 25.7412 24.2646 25.7412 24.7979 25.2334C25.3057 24.7129 25.3057 23.875 24.7979 23.3672C24.2646 22.834 23.4395 22.834 22.9189 23.3672C22.3984 23.875 22.3984 24.7129 22.9189 25.2334ZM16 28.8389C16.7236 28.8389 17.3203 28.2422 17.3203 27.5186C17.3203 26.7949 16.7236 26.1982 16 26.1982C15.2764 26.1982 14.6797 26.7949 14.6797 27.5186C14.6797 28.2422 15.2764 28.8389 16 28.8389Z" fill="black"/>
</svg>
