<svg width="32" height="32" viewBox="0 0 32 32" fill="none" xmlns="http://www.w3.org/2000/svg">
<path d="M16.8428 11.4702L15.8515 12.4653C15.3734 12.9462 15.0545 13.5623 14.9382 14.2304C14.8218 14.8985 14.9136 15.5862 15.201 16.2004C14.5862 15.9121 13.8977 15.8199 13.2286 15.9361C12.5596 16.0523 11.9425 16.3714 11.4609 16.8501L10.4707 17.8442C9.84935 18.4655 9.50028 19.3083 9.50028 20.187C9.50028 21.0657 9.84934 21.9084 10.4707 22.5297C11.092 23.1511 11.9347 23.5002 12.8135 23.5002C13.6922 23.5002 14.5349 23.1511 15.1562 22.5298L16.1484 21.5346C16.6266 21.0538 16.9454 20.4376 17.0618 19.7696C17.1782 19.1015 17.0865 18.4138 16.7991 17.7996C17.4124 18.0926 18.1018 18.1876 18.7715 18.0713C19.4413 17.9551 20.0583 17.6334 20.5371 17.1508L21.5293 16.1557C22.1506 15.5342 22.4996 14.6914 22.4995 13.8126C22.4994 12.9338 22.1503 12.091 21.5288 11.4697C20.9073 10.8483 20.0645 10.4993 19.1857 10.4994C18.3069 10.4995 17.4641 10.8487 16.8428 11.4702ZM15.4404 20.8276L14.4492 21.8227C14.2347 22.0389 13.9795 22.2105 13.6985 22.3278C13.4174 22.4451 13.1159 22.5058 12.8114 22.5063C12.5068 22.5068 12.2051 22.4472 11.9237 22.3308C11.6422 22.2145 11.3865 22.0437 11.1712 21.8282C10.9559 21.6128 10.7853 21.357 10.6691 21.0755C10.5529 20.7939 10.4935 20.4922 10.4942 20.1877C10.4949 19.8831 10.5557 19.5817 10.6732 19.3007C10.7907 19.0197 10.9625 18.7647 11.1788 18.5503L12.169 17.5561C12.5419 17.1841 13.0305 16.9504 13.5542 16.8938C14.0779 16.8371 14.6052 16.9608 15.049 17.2445L13.6465 18.6469C13.5993 18.6932 13.5618 18.7483 13.536 18.8092C13.5103 18.87 13.4969 18.9354 13.4965 19.0015C13.4962 19.0676 13.509 19.133 13.5341 19.1942C13.5592 19.2553 13.5962 19.3108 13.643 19.3575C13.6897 19.4042 13.7452 19.4412 13.8063 19.4664C13.8674 19.4915 13.9329 19.5043 13.999 19.5039C14.0651 19.5036 14.1304 19.4902 14.1913 19.4644C14.2521 19.4387 14.3073 19.4011 14.3535 19.3539L15.7549 17.9526C16.039 18.3955 16.1627 18.9225 16.1055 19.4456C16.0483 19.9687 15.8136 20.4565 15.4404 20.8276ZM20.8213 15.4487L19.8301 16.4438C19.4573 16.8154 18.969 17.0488 18.4457 17.1056C17.9224 17.1623 17.3954 17.039 16.9516 16.7559L18.3535 15.354C18.4457 15.2599 18.4971 15.1333 18.4964 15.0015C18.4957 14.8698 18.4431 14.7437 18.35 14.6506C18.2568 14.5574 18.1307 14.5048 17.999 14.5041C17.8673 14.5035 17.7406 14.5548 17.6465 14.647L16.2452 16.0483C15.9629 15.6046 15.8402 15.0779 15.8974 14.5551C15.9545 14.0323 16.1881 13.5446 16.5596 13.1724L17.5508 12.1773C17.9846 11.7436 18.573 11.5 19.1864 11.5001C19.7998 11.5002 20.3881 11.7439 20.8218 12.1778C21.2555 12.6116 21.4991 13.1999 21.499 13.8134C21.4989 14.4268 21.2551 15.015 20.8213 15.4487Z" fill="#0F0F0F"/>
<path d="M23 5.49947H22.5V3.00047C22.5 2.86786 22.4473 2.74068 22.3536 2.64692C22.2598 2.55315 22.1326 2.50047 22 2.50047C21.8674 2.50047 21.7402 2.55315 21.6464 2.64692C21.5527 2.74068 21.5 2.86786 21.5 3.00047V5.49947H10.5V3.00047C10.5 2.86786 10.4473 2.74068 10.3536 2.64692C10.2598 2.55315 10.1326 2.50047 10 2.50047C9.86739 2.50047 9.74021 2.55315 9.64645 2.64692C9.55268 2.74068 9.5 2.86786 9.5 3.00047V5.49947H9C7.80693 5.50078 6.66309 5.9753 5.81946 6.81893C4.97583 7.66256 4.5013 8.8064 4.5 9.99947V23.9995C4.5013 25.1925 4.97583 26.3364 5.81946 27.18C6.66309 28.0236 7.80693 28.4982 9 28.4995H23C24.1931 28.4982 25.3369 28.0236 26.1805 27.18C27.0242 26.3364 27.4987 25.1925 27.5 23.9995V9.99947C27.4987 8.8064 27.0242 7.66256 26.1805 6.81893C25.3369 5.9753 24.1931 5.50077 23 5.49947ZM26.5 23.9995C26.4989 24.9274 26.1298 25.817 25.4736 26.4731C24.8175 27.1292 23.9279 27.4983 23 27.4995H9C8.07209 27.4983 7.1825 27.1292 6.52637 26.4731C5.87023 25.817 5.50112 24.9274 5.5 23.9995V9.99947C5.50112 9.07156 5.87023 8.18197 6.52637 7.52584C7.1825 6.8697 8.07209 6.50059 9 6.49947H23C23.9279 6.50059 24.8175 6.8697 25.4736 7.52584C26.1298 8.18197 26.4989 9.07156 26.5 9.99947V23.9995Z" fill="#0F0F0F"/>
</svg>
