<svg width="32" height="32" viewBox="0 0 32 32" fill="none" xmlns="http://www.w3.org/2000/svg">
<path d="M22.0003 11.0005H10.0003C9.73509 11.0005 9.48074 11.1058 9.2932 11.2933C9.10567 11.4809 9.00031 11.7352 9.00031 12.0005C9.00031 12.2657 9.10567 12.52 9.2932 12.7076C9.48074 12.8951 9.73509 13.0005 10.0003 13.0005H22.0003C22.2655 13.0005 22.5199 12.8951 22.7074 12.7076C22.895 12.52 23.0003 12.2657 23.0003 12.0005C23.0003 11.7352 22.895 11.4809 22.7074 11.2933C22.5199 11.1058 22.2655 11.0005 22.0003 11.0005Z" fill="#0F0F0F"/>
<path d="M21.0003 16.0005H11.0003C10.4701 16.0011 9.96178 16.2121 9.58686 16.587C9.21193 16.9619 9.001 17.4702 9.00031 18.0005V21.0005C9.001 21.5307 9.21193 22.039 9.58686 22.4139C9.96178 22.7888 10.4701 22.9998 11.0003 23.0005H21.0003C21.5305 22.9998 22.0388 22.7888 22.4138 22.4139C22.7887 22.039 22.9996 21.5307 23.0003 21.0005V18.0005C22.9996 17.4702 22.7887 16.9619 22.4138 16.587C22.0388 16.2121 21.5305 16.0011 21.0003 16.0005ZM20.9993 21.0005H11.0003V18.0005H21.0003L20.9993 21.0005Z" fill="#0F0F0F"/>
<path d="M23 4.99947V3.00047C23 2.73526 22.8946 2.4809 22.7071 2.29337C22.5196 2.10583 22.2652 2.00047 22 2.00047C21.7348 2.00047 21.4804 2.10583 21.2929 2.29337C21.1054 2.4809 21 2.73526 21 3.00047V4.99947H11V3.00047C11 2.73526 10.8946 2.4809 10.7071 2.29337C10.5196 2.10583 10.2652 2.00047 10 2.00047C9.73478 2.00047 9.48043 2.10583 9.29289 2.29337C9.10536 2.4809 9 2.73526 9 3.00047V4.99947C7.6744 5.00103 6.40353 5.52832 5.46619 6.46566C4.52884 7.40301 4.00156 8.67387 4 9.99947V23.9995C4.00156 25.3251 4.52884 26.5959 5.46619 27.5333C6.40353 28.4706 7.6744 28.9979 9 28.9995H23C24.3256 28.9979 25.5965 28.4706 26.5338 27.5333C27.4712 26.5959 27.9984 25.3251 28 23.9995V9.99947C27.9984 8.67387 27.4712 7.40301 26.5338 6.46566C25.5965 5.52832 24.3256 5.00103 23 4.99947ZM26 23.9995C25.9991 24.7949 25.6828 25.5574 25.1204 26.1198C24.5579 26.6823 23.7954 26.9986 23 26.9995H9C8.20462 26.9986 7.44206 26.6823 6.87964 26.1198C6.31722 25.5574 6.00087 24.7949 6 23.9995V9.99947C6.00087 9.20409 6.31722 8.44153 6.87964 7.87911C7.44206 7.31669 8.20462 7.00034 9 6.99947H23C23.7954 7.00034 24.5579 7.31669 25.1204 7.87911C25.6828 8.44153 25.9991 9.20409 26 9.99947V23.9995Z" fill="#0F0F0F"/>
</svg>
