<svg width="32" height="32" viewBox="0 0 32 32" fill="none" xmlns="http://www.w3.org/2000/svg">
<path d="M9.99988 11.2504C9.80098 11.2505 9.61025 11.3295 9.46961 11.4702C9.32897 11.6108 9.24993 11.8016 9.24988 12.0004V22.0005C9.24988 22.1994 9.3289 22.3901 9.46955 22.5308C9.6102 22.6714 9.80097 22.7505 9.99988 22.7505C10.1988 22.7505 10.3896 22.6714 10.5302 22.5308C10.6709 22.3901 10.7499 22.1994 10.7499 22.0005V12.0004C10.7498 11.8016 10.6708 11.6108 10.5301 11.4702C10.3895 11.3295 10.1988 11.2505 9.99988 11.2504Z" fill="#0F0F0F"/>
<path d="M13.9999 11.2504C13.801 11.2505 13.6102 11.3295 13.4696 11.4702C13.329 11.6108 13.2499 11.8016 13.2499 12.0004V22.0005C13.2499 22.1994 13.3289 22.3901 13.4695 22.5308C13.6102 22.6714 13.801 22.7505 13.9999 22.7505C14.1988 22.7505 14.3896 22.6714 14.5302 22.5308C14.6709 22.3901 14.7499 22.1994 14.7499 22.0005V12.0004C14.7498 11.8016 14.6708 11.6108 14.5301 11.4702C14.3895 11.3295 14.1988 11.2505 13.9999 11.2504Z" fill="#0F0F0F"/>
<path d="M17.9999 11.2504C17.801 11.2505 17.6102 11.3295 17.4696 11.4702C17.329 11.6108 17.2499 11.8016 17.2499 12.0004V22.0005C17.2499 22.1994 17.3289 22.3901 17.4695 22.5308C17.6102 22.6714 17.801 22.7505 17.9999 22.7505C18.1988 22.7505 18.3896 22.6714 18.5302 22.5308C18.6709 22.3901 18.7499 22.1994 18.7499 22.0005V12.0004C18.7498 11.8016 18.6708 11.6108 18.5301 11.4702C18.3895 11.3295 18.1988 11.2505 17.9999 11.2504Z" fill="#0F0F0F"/>
<path d="M21.9999 11.2504C21.801 11.2505 21.6102 11.3295 21.4696 11.4702C21.329 11.6108 21.2499 11.8016 21.2499 12.0004V22.0005C21.2499 22.1994 21.3289 22.3901 21.4695 22.5308C21.6102 22.6714 21.801 22.7505 21.9999 22.7505C22.1988 22.7505 22.3896 22.6714 22.5302 22.5308C22.6709 22.3901 22.7499 22.1994 22.7499 22.0005V12.0004C22.7498 11.8016 22.6708 11.6108 22.5301 11.4702C22.3895 11.3295 22.1988 11.2505 21.9999 11.2504Z" fill="#0F0F0F"/>
<path d="M22.9999 5.24947H22.7499V3.00047C22.7499 2.80156 22.6709 2.61079 22.5302 2.47014C22.3896 2.32949 22.1988 2.25047 21.9999 2.25047C21.801 2.25047 21.6102 2.32949 21.4695 2.47014C21.3289 2.61079 21.2499 2.80156 21.2499 3.00047V5.24947H10.7499V3.00047C10.7499 2.80156 10.6709 2.61079 10.5302 2.47014C10.3896 2.32949 10.1988 2.25047 9.99988 2.25047C9.80097 2.25047 9.6102 2.32949 9.46955 2.47014C9.3289 2.61079 9.24988 2.80156 9.24988 3.00047V5.24947H8.99988C7.74054 5.2509 6.53319 5.7518 5.6427 6.64229C4.75221 7.53278 4.25131 8.74013 4.24988 9.99947V23.9995C4.25131 25.2588 4.75221 26.4662 5.6427 27.3566C6.53319 28.2471 7.74054 28.748 8.99988 28.7495H22.9999C24.2592 28.748 25.4666 28.2471 26.3571 27.3566C27.2475 26.4662 27.7484 25.2588 27.7499 23.9995V9.99947C27.7484 8.74013 27.2475 7.53278 26.3571 6.64229C25.4666 5.7518 24.2592 5.2509 22.9999 5.24947ZM26.2499 23.9995C26.2489 24.8611 25.9062 25.6872 25.2969 26.2965C24.6876 26.9057 23.8615 27.2485 22.9999 27.2495H8.99988C8.13823 27.2485 7.31216 26.9057 6.70288 26.2965C6.0936 25.6872 5.75087 24.8611 5.74988 23.9995V9.99947C5.75088 9.13782 6.09361 8.31175 6.70288 7.70247C7.31216 7.0932 8.13823 6.75047 8.99988 6.74947H22.9999C23.8615 6.75047 24.6876 7.0932 25.2969 7.70247C25.9062 8.31175 26.2489 9.13782 26.2499 9.99947V23.9995Z" fill="#0F0F0F"/>
</svg>
