<svg width="32" height="32" viewBox="0 0 32 32" fill="none" xmlns="http://www.w3.org/2000/svg">
<path d="M19 20.5C19 20.2239 19.2239 20 19.5 20H28.5C28.7761 20 29 20.2239 29 20.5C29 20.7761 28.7761 21 28.5 21H19.5C19.2239 21 19 20.7761 19 20.5Z" fill="#0F0F0F"/>
<path d="M20.5 24.5C20.5 24.2239 20.7239 24 21 24H27C27.2761 24 27.5 24.2239 27.5 24.5C27.5 24.7761 27.2761 25 27 25H21C20.7239 25 20.5 24.7761 20.5 24.5Z" fill="#0F0F0F"/>
<path d="M21.5 28.5C21.5 28.2239 21.7239 28 22 28H26C26.2761 28 26.5 28.2239 26.5 28.5C26.5 28.7761 26.2761 29 26 29H22C21.7239 29 21.5 28.7761 21.5 28.5Z" fill="#0F0F0F"/>
<path d="M10.5 3V5.5L21.5 5.5V3C21.5 2.72386 21.7239 2.5 22 2.5C22.2761 2.5 22.5 2.72386 22.5 3V5.5H23.0015C24.1935 5.50356 25.3356 5.97866 26.1785 6.82153C27.0214 7.66439 27.4964 8.80653 27.5 9.99851L27.5 10L27.5 17C27.5 17.2761 27.2761 17.5 27 17.5C26.7239 17.5 26.5 17.2761 26.5 17L26.5 12.4992C26.4858 12.5004 26.4715 12.501 26.457 12.501H5.5V23.9992C5.50296 24.9268 5.87272 25.8155 6.5286 26.4714C7.18451 27.1273 8.07329 27.4971 9.00087 27.5H14C14.2761 27.5 14.5 27.7239 14.5 28C14.5 28.2761 14.2761 28.5 14 28.5H9L8.99851 28.5C7.80653 28.4964 6.66436 28.0214 5.8215 27.1785C4.97863 26.3356 4.50356 25.1935 4.5 24.0015L4.5 24V9.99851C4.50356 8.80653 4.97863 7.66439 5.8215 6.82153C6.66436 5.97866 7.80652 5.50356 8.99851 5.5L9 5.5H9.5V3C9.5 2.72386 9.72386 2.5 10 2.5C10.2761 2.5 10.5 2.72386 10.5 3ZM10.0005 6.5H9.00077C8.07323 6.50296 7.18449 6.87275 6.5286 7.52863C5.87272 8.18452 5.50296 9.07322 5.5 10.0008V11.501H26.457C26.4715 11.501 26.4858 11.5016 26.5 11.5028V10.0015C26.4971 9.07391 26.1273 8.18454 25.4714 7.52863C24.8155 6.87275 23.9268 6.50296 22.9992 6.5H22.0005H10.0005Z" fill="black"/>
</svg>
