<svg width="32" height="32" viewBox="0 0 32 32" fill="none" xmlns="http://www.w3.org/2000/svg">
<path d="M24.0001 2.25C22.8628 2.25 21.7511 2.58723 20.8055 3.21905C19.8599 3.85087 19.123 4.74889 18.6877 5.79957C18.2525 6.85025 18.1387 8.00638 18.3605 9.12177C18.5824 10.2372 19.13 11.2617 19.9342 12.0659C20.7383 12.87 21.7629 13.4177 22.8783 13.6395C23.9937 13.8614 25.1498 13.7475 26.2005 13.3123C27.2512 12.8771 28.1492 12.1401 28.781 11.1945C29.4128 10.2489 29.7501 9.13724 29.7501 8C29.7484 6.4755 29.1421 5.0139 28.0641 3.93591C26.9862 2.85793 25.5246 2.25161 24.0001 2.25ZM24.0001 3.75C24.9956 3.75202 25.9589 4.10353 26.7217 4.74319C27.4846 5.38285 27.9987 6.27005 28.1742 7.25H19.8259C20.0015 6.27005 20.5155 5.38286 21.2784 4.7432C22.0413 4.10355 23.0045 3.75204 24.0001 3.75ZM24.0001 12.25C23.0045 12.248 22.0413 11.8965 21.2784 11.2568C20.5155 10.6172 20.0014 9.72995 19.8259 8.75H28.1742C27.9987 9.72995 27.4846 10.6172 26.7217 11.2568C25.9589 11.8965 24.9956 12.248 24.0001 12.25Z" fill="#0F0F0F"/>
<path d="M9.27719 22.6159C16.148 29.4867 22.2489 29.0896 23.9883 27.3502L25.0255 26.313C25.5833 25.754 25.8966 24.9966 25.8966 24.2069C25.8966 23.4172 25.5833 22.6597 25.0255 22.1008L22.5016 19.5769C21.9444 19.0241 21.1907 18.7149 20.4058 18.7171C19.6209 18.7193 18.869 19.0327 18.3149 19.5886L17.0747 20.8288C15.5809 20.5633 14.2113 19.8267 13.1662 18.7268C12.0669 17.6823 11.3293 16.3144 11.0608 14.8219L12.3114 13.5727C12.8564 12.9897 13.1524 12.217 13.1363 11.419C13.1201 10.6211 12.7932 9.86091 12.2251 9.30036L9.79236 6.86761C9.23338 6.30979 8.47594 5.9965 7.68623 5.9965C6.89653 5.9965 6.13908 6.30979 5.5801 6.86761L4.5429 7.90482C2.80341 9.64424 2.40638 15.7451 9.27719 22.6159ZM6.64073 7.92824C6.91819 7.65132 7.29419 7.4958 7.6862 7.4958C8.07821 7.4958 8.4542 7.65132 8.73167 7.92824L11.1644 10.361C11.4513 10.6404 11.6201 11.0192 11.6361 11.4193C11.6522 11.8194 11.5142 12.2105 11.2507 12.512L9.86891 13.8924C8.99676 14.7645 10.1679 17.8498 12.1056 19.7875C14.0432 21.7251 17.1313 22.8935 18.0048 22.02L19.3755 20.6492C19.6481 20.3742 20.0186 20.2186 20.4058 20.2164C20.793 20.2142 21.1653 20.3656 21.4409 20.6375L23.9648 23.1614C24.2418 23.4389 24.3973 23.8149 24.3973 24.2069C24.3973 24.5989 24.2418 24.9749 23.9648 25.2524L22.9276 26.2896C21.7717 27.4455 16.5077 27.7252 10.3378 21.5553C4.1679 15.3853 4.44756 10.1214 5.60352 8.96544L6.64073 7.92824Z" fill="#0F0F0F"/>
</svg>
