<svg width="32" height="31" viewBox="0 0 32 31" fill="none" xmlns="http://www.w3.org/2000/svg">
<path d="M18.25 4.03704C18.25 3.64354 18.5858 3.32454 19 3.32454H25.364C25.7782 3.32454 26.114 3.64354 26.114 4.03704V10.0828C26.114 10.4763 25.7782 10.7953 25.364 10.7953C24.9497 10.7953 24.614 10.4763 24.614 10.0828L24.614 5.75719L21.6517 8.57137C21.3588 8.84962 20.8839 8.84962 20.591 8.57137C20.2981 8.29312 20.2981 7.84199 20.591 7.56374L23.5533 4.74954L19 4.74954C18.5858 4.74954 18.25 4.43055 18.25 4.03704ZM16.0005 16.7875C6.28369 16.7875 2.25049 21.1525 2.25049 23.4895V24.8829C2.2513 25.6331 2.56537 26.3524 3.12377 26.8829C3.68218 27.4134 4.4393 27.7117 5.229 27.7125H8.79834C9.58321 27.7095 10.3348 27.4109 10.8882 26.8822C11.4417 26.3535 11.7518 25.6378 11.7505 24.8922V23.2259C12.9945 22.4009 14.4838 21.9756 16.0005 22.0125C17.5164 21.9756 19.0053 22.3991 20.2505 23.2213L20.2495 24.9005C20.2764 25.6583 20.6135 26.3762 21.1891 26.9014C21.7647 27.4266 22.5334 27.7176 23.3315 27.7125H26.7719C27.5616 27.7117 28.3187 27.4134 28.8771 26.8829C29.4356 26.3524 29.7496 25.6331 29.7504 24.8829V23.4894C29.7505 21.1525 25.7173 16.7875 16.0005 16.7875ZM28.2505 24.8829C28.2501 25.2553 28.0942 25.6124 27.817 25.8757C27.5398 26.139 27.164 26.2871 26.772 26.2875H23.3315C22.9311 26.2925 22.5439 26.1515 22.2496 25.8935C21.9553 25.6354 21.7764 25.2801 21.7495 24.9005L21.7505 23.045C21.7505 21.8733 18.7408 20.5875 16.0005 20.5875C13.2603 20.5875 10.2505 21.877 10.2505 23.0506V24.8922C10.2523 25.26 10.1003 25.6135 9.8281 25.875C9.55586 26.1366 9.18554 26.285 8.79834 26.2875H5.229C4.83699 26.2871 4.46115 26.139 4.18397 25.8757C3.90678 25.6124 3.75088 25.2553 3.75049 24.8829V23.4894C3.75049 21.9364 7.2749 18.2125 16.0005 18.2125C24.7261 18.2125 28.2505 21.9364 28.2505 23.4894V24.8829ZM15 14.65C15.5523 14.65 16 14.2247 16 13.7C16 13.1754 15.5523 12.75 15 12.75C14.4477 12.75 14 13.1754 14 13.7C14 14.2247 14.4477 14.65 15 14.65ZM19 10.85C19 11.3747 18.5523 11.8 18 11.8C17.4477 11.8 17 11.3747 17 10.85C17 10.3254 17.4477 9.90003 18 9.90003C18.5523 9.90003 19 10.3254 19 10.85Z" fill="#0F0F0F"/>
</svg>
