<svg width="32" height="32" viewBox="0 0 32 32" fill="none" xmlns="http://www.w3.org/2000/svg">
<path d="M24.0002 2C22.8135 2 21.6534 2.35189 20.6667 3.01118C19.68 3.67047 18.911 4.60754 18.4569 5.7039C18.0028 6.80026 17.8839 8.00666 18.1155 9.17054C18.347 10.3344 18.9184 11.4035 19.7575 12.2426C20.5966 13.0818 21.6657 13.6532 22.8296 13.8847C23.9935 14.1162 25.1999 13.9974 26.2963 13.5433C27.3926 13.0892 28.3297 12.3201 28.989 11.3334C29.6483 10.3467 30.0002 9.18669 30.0002 8C29.9984 6.40924 29.3657 4.88412 28.2409 3.75928C27.116 2.63444 25.5909 2.00174 24.0002 2ZM24.0002 4C24.8846 4.00256 25.7431 4.29848 26.4413 4.84138C27.1395 5.38428 27.6378 6.14348 27.8582 7H20.1421C20.3625 6.14348 20.8608 5.38427 21.559 4.84137C22.2572 4.29847 23.1158 4.00255 24.0002 4ZM24.0002 12C23.1158 11.9974 22.2572 11.7015 21.559 11.1586C20.8608 10.6157 20.3625 9.85652 20.1422 9H27.8582C27.6379 9.85653 27.1395 10.6157 26.4413 11.1586C25.7432 11.7015 24.8846 11.9975 24.0002 12Z" fill="#0F0F0F"/>
<path d="M24.172 27.577C22.3711 29.3779 16.1032 29.8385 9.10736 22.8427C2.11155 15.8469 2.57211 9.57892 4.37306 7.77803L5.41027 6.74083C6.0162 6.13624 6.83721 5.7967 7.69318 5.7967C8.54914 5.7967 9.37015 6.13624 9.97608 6.74083L12.4088 9.17358C13.023 9.78147 13.3756 10.605 13.3918 11.469C13.4079 12.333 13.0862 13.1691 12.4951 13.7995L11.3274 14.9658C11.6188 16.3538 12.324 17.6209 13.35 18.6C14.3297 19.6265 15.5984 20.3307 16.9877 20.6192L18.1451 19.4618C18.7461 18.8591 19.5616 18.5195 20.4128 18.5173C21.2639 18.5151 22.0812 18.8505 22.6853 19.4501L25.2092 21.974C25.8138 22.5799 26.1534 23.4009 26.1534 24.2569C26.1534 25.1128 25.8138 25.9339 25.2092 26.5398L24.172 27.577Z" fill="#0F0F0F"/>
</svg>
