<svg width="32" height="32" viewBox="0 0 32 32" fill="none" xmlns="http://www.w3.org/2000/svg">
<path d="M17.47 18.53L26.19 27.25H20C19.801 27.25 19.6103 27.329 19.4696 27.4697C19.329 27.6103 19.25 27.8011 19.25 28C19.25 28.1989 19.329 28.3897 19.4696 28.5303C19.6103 28.671 19.801 28.75 20 28.75H28C28.1989 28.75 28.3896 28.671 28.5303 28.5303C28.6709 28.3897 28.75 28.1989 28.75 28V20C28.75 19.8011 28.6709 19.6103 28.5303 19.4697C28.3896 19.329 28.1989 19.25 28 19.25C27.801 19.25 27.6103 19.329 27.4696 19.4697C27.329 19.6103 27.25 19.8011 27.25 20V26.188L18.53 17.47C18.3878 17.3375 18.1997 17.2654 18.0054 17.2688C17.8111 17.2723 17.6257 17.351 17.4883 17.4884C17.3509 17.6258 17.2722 17.8112 17.2688 18.0055C17.2654 18.1998 17.3375 18.3878 17.47 18.53V18.53ZM4.00195 12.752C4.20087 12.752 4.39163 12.673 4.53228 12.5323C4.67294 12.3917 4.75195 12.2009 4.75195 12.002V5.806L13.471 14.532C13.6123 14.6687 13.8018 14.7444 13.9984 14.7428C14.1951 14.7411 14.3832 14.6624 14.5223 14.5234C14.6614 14.3844 14.7404 14.1963 14.7422 13.9997C14.744 13.803 14.6685 13.6135 14.532 13.472L5.81995 4.751H12.002C12.2009 4.751 12.3916 4.67198 12.5323 4.53133C12.6729 4.39068 12.752 4.19991 12.752 4.001C12.752 3.80209 12.6729 3.61132 12.5323 3.47067C12.3916 3.33002 12.2009 3.251 12.002 3.251H4.00195C3.80304 3.251 3.61228 3.33002 3.47162 3.47067C3.33097 3.61132 3.25195 3.80209 3.25195 4.001V12.001C3.25195 12.1999 3.33097 12.3907 3.47162 12.5313C3.61228 12.672 3.80304 12.751 4.00195 12.751V12.752Z" fill="#0F0F0F"/>
</svg>
