<svg width="32" height="32" viewBox="0 0 32 32" fill="none" xmlns="http://www.w3.org/2000/svg">
<path d="M18.25 3.82846C18.25 3.41425 18.5858 3.07846 19 3.07846H25.364C25.7782 3.07846 26.114 3.41425 26.114 3.82846V10.1924C26.114 10.6066 25.7782 10.9424 25.364 10.9424C24.9497 10.9424 24.614 10.6066 24.614 10.1924L24.614 5.63915L21.6517 8.60144C21.3588 8.89433 20.8839 8.89433 20.591 8.60144C20.2981 8.30855 20.2981 7.83367 20.591 7.54078L23.5533 4.57846L19 4.57846C18.5858 4.57846 18.25 4.24268 18.25 3.82846ZM16.0005 17.25C6.28369 17.25 2.25049 21.8447 2.25049 24.3047V25.7715C2.2513 26.5612 2.56537 27.3183 3.12377 27.8767C3.68218 28.4351 4.4393 28.7492 5.229 28.75H8.79834C9.58321 28.7469 10.3348 28.4326 10.8882 27.876C11.4417 27.3195 11.7518 26.5661 11.7505 25.7812V24.0273C12.9945 23.1588 14.4838 22.7112 16.0005 22.75C17.5164 22.7112 19.0053 23.1569 20.2505 24.0224L20.2495 25.79C20.2764 26.5877 20.6135 27.3433 21.1891 27.8962C21.7647 28.449 22.5334 28.7554 23.3315 28.75H26.7719C27.5616 28.7492 28.3187 28.4351 28.8771 27.8767C29.4356 27.3183 29.7496 26.5612 29.7504 25.7715V24.3046C29.7505 21.8447 25.7173 17.25 16.0005 17.25ZM28.2505 25.7715C28.2501 26.1635 28.0942 26.5393 27.817 26.8165C27.5398 27.0937 27.164 27.2496 26.772 27.25H23.3315C22.9311 27.2552 22.5439 27.1068 22.2496 26.8352C21.9553 26.5636 21.7764 26.1896 21.7495 25.79L21.7505 23.8369C21.7505 22.6035 18.7408 21.25 16.0005 21.25C13.2603 21.25 10.2505 22.6074 10.2505 23.8427V25.7812C10.2523 26.1684 10.1003 26.5405 9.8281 26.8158C9.55586 27.0912 9.18554 27.2473 8.79834 27.25H5.229C4.83699 27.2496 4.46115 27.0937 4.18397 26.8165C3.90678 26.5393 3.75088 26.1635 3.75049 25.7715V24.3046C3.75049 22.6699 7.2749 18.75 16.0005 18.75C24.7261 18.75 28.2505 22.6699 28.2505 24.3046V25.7715ZM15 15C15.5523 15 16 14.5523 16 14C16 13.4477 15.5523 13 15 13C14.4477 13 14 13.4477 14 14C14 14.5523 14.4477 15 15 15ZM19 11C19 11.5523 18.5523 12 18 12C17.4477 12 17 11.5523 17 11C17 10.4477 17.4477 10 18 10C18.5523 10 19 10.4477 19 11Z" fill="#0F0F0F"/>
</svg>
