<svg width="32" height="32" viewBox="0 0 32 32" fill="none" xmlns="http://www.w3.org/2000/svg">
<path d="M25.0005 6.5003H9.00049C8.86788 6.5003 8.7407 6.55298 8.64694 6.64675C8.55317 6.74051 8.50049 6.86769 8.50049 7.0003C8.50049 7.13291 8.55317 7.26009 8.64694 7.35385C8.7407 7.44762 8.86788 7.5003 9.00049 7.5003H23.7925L6.64697 24.6468C6.59977 24.693 6.56222 24.7482 6.53647 24.809C6.51072 24.8699 6.49729 24.9352 6.49695 25.0013C6.49662 25.0674 6.50939 25.1329 6.53452 25.194C6.55966 25.2551 6.59666 25.3106 6.64338 25.3574C6.69011 25.4041 6.74563 25.4411 6.80674 25.4662C6.86786 25.4914 6.93335 25.5041 6.99942 25.5038C7.0655 25.5035 7.13086 25.49 7.19171 25.4643C7.25257 25.4385 7.30772 25.401 7.35397 25.3538L24.5005 8.20635V23.0004C24.5005 23.133 24.5532 23.2601 24.6469 23.3539C24.7407 23.4477 24.8679 23.5004 25.0005 23.5004C25.1331 23.5004 25.2603 23.4477 25.354 23.3539C25.4478 23.2601 25.5005 23.133 25.5005 23.0004V7.00035C25.5005 6.93467 25.4876 6.86963 25.4625 6.80895C25.4374 6.74826 25.4006 6.69312 25.3541 6.64668C25.3077 6.60024 25.2526 6.56341 25.1919 6.53829C25.1312 6.51317 25.0662 6.50026 25.0005 6.5003Z" fill="#0F0F0F"/>
</svg>
