<svg width="32" height="31" viewBox="0 0 32 31" fill="none" xmlns="http://www.w3.org/2000/svg">
<path d="M19 2.06625C18.4477 2.06625 18 2.48877 18 3.00996C18 3.53116 18.4477 3.95367 19 3.95367H23.5858L20.2929 7.0612C19.9024 7.42974 19.9024 8.02727 20.2929 8.39581C20.6834 8.76435 21.3166 8.76435 21.7071 8.39581L25 5.28828V9.61592C25 10.1371 25.4477 10.5596 26 10.5596C26.5523 10.5596 27 10.1371 27 9.61592V3.00996C27 2.48877 26.5523 2.06625 26 2.06625H19ZM19.5 10.7956C19.5 11.4471 18.9404 11.9752 18.25 11.9752C17.5596 11.9752 17 11.4471 17 10.7956C17 10.1441 17.5596 9.61592 18.25 9.61592C18.9404 9.61592 19.5 10.1441 19.5 10.7956ZM16.5 13.6267C16.5 14.2782 15.9404 14.8063 15.25 14.8063C14.5596 14.8063 14 14.2782 14 13.6267C14 12.9752 14.5596 12.447 15.25 12.447C15.9404 12.447 16.5 12.9752 16.5 13.6267ZM2.00049 23.1153C2.00049 20.7118 6.10693 16.2218 16.0005 16.2218C25.8941 16.2218 30.0005 20.7118 30.0004 23.1153V24.4996C29.9995 25.3074 29.659 26.0818 29.0538 26.653C28.4485 27.2242 27.6279 27.5455 26.7719 27.5463H23.3315C22.4674 27.5505 21.6357 27.2363 21.0134 26.6705C20.391 26.1047 20.0273 25.3321 19.9995 24.517L20.0005 22.9596C18.813 22.2278 17.4184 21.8528 16.0005 21.8841C14.5819 21.8529 13.1869 22.2296 12.0005 22.9642V24.5088C12.0016 25.312 11.6652 26.0829 11.0649 26.6523C10.4646 27.2218 9.64948 27.5433 8.79834 27.5463H5.229C4.37303 27.5455 3.5524 27.2242 2.94714 26.653C2.34188 26.0818 2.00143 25.3073 2.00049 24.4996V23.1153ZM27.6404 25.3191C27.8707 25.1017 28.0002 24.807 28.0005 24.4996V23.1153C28.0005 21.6905 24.4312 18.1092 16.0005 18.1092C7.56982 18.1092 4.00049 21.6905 4.00049 23.1153V24.4996C4.00074 24.807 4.13026 25.1017 4.36059 25.3191C4.59093 25.5365 4.90325 25.6587 5.229 25.6589H8.79834C9.11926 25.6565 9.42607 25.5341 9.65145 25.3184C9.87683 25.1028 10.0024 24.8116 10.0005 24.5088V22.6794C10.0005 21.3505 13.0289 19.9967 16.0005 19.9967C18.7017 19.9967 22.0005 21.2316 22.0005 22.6739L21.9995 24.518C22.0249 24.8328 22.1771 25.1265 22.4249 25.3387C22.6726 25.5509 22.997 25.6655 23.3315 25.6589H26.772C27.0977 25.6587 27.41 25.5365 27.6404 25.3191Z" fill="#0F0F0F"/>
</svg>
