<svg width="32" height="32" viewBox="0 0 32 32" fill="none" xmlns="http://www.w3.org/2000/svg">
<path d="M24.0145 14.75C24.5667 14.75 25.0145 14.3022 25.0145 13.75C25.0145 13.1977 24.5667 12.75 24.0145 12.75C23.4622 12.75 23.0145 13.1977 23.0145 13.75C23.0145 14.3022 23.4622 14.75 24.0145 14.75Z" fill="#0F0F0F"/>
<path d="M20.9999 6.75C21.1988 6.74995 21.3895 6.67092 21.5302 6.53027C21.6708 6.38963 21.7499 6.1989 21.7499 6C21.7499 5.55499 21.8819 5.11998 22.1291 4.74997C22.3763 4.37996 22.7277 4.09157 23.1389 3.92127C23.55 3.75097 24.0024 3.70642 24.4389 3.79323C24.8753 3.88005 25.2762 4.09434 25.5909 4.40901C25.9056 4.72368 26.1199 5.12459 26.2067 5.56105C26.2935 5.9975 26.2489 6.4499 26.0786 6.86104C25.9083 7.27217 25.62 7.62357 25.2499 7.87081C24.8799 8.11804 24.4449 8.25 23.9999 8.25C23.801 8.25005 23.6103 8.32909 23.4696 8.46973C23.329 8.61037 23.25 8.8011 23.2499 9V10C23.2499 10.1989 23.3289 10.3897 23.4696 10.5303C23.6102 10.671 23.801 10.75 23.9999 10.75C24.1988 10.75 24.3896 10.671 24.5302 10.5303C24.6709 10.3897 24.7499 10.1989 24.7499 10V9.6748C25.4452 9.53294 26.086 9.19673 26.5978 8.70522C27.1096 8.21371 27.4715 7.58708 27.6414 6.89811C27.8113 6.20914 27.7822 5.4861 27.5575 4.81299C27.3329 4.13988 26.9219 3.54432 26.3723 3.09549C25.8226 2.64665 25.1569 2.36296 24.4525 2.27737C23.7481 2.19178 23.0338 2.30779 22.3927 2.61195C21.7516 2.9161 21.2099 3.39591 20.8306 3.99563C20.4513 4.59536 20.25 5.29039 20.2499 6C20.25 6.1989 20.329 6.38963 20.4696 6.53027C20.6103 6.67091 20.801 6.74995 20.9999 6.75Z" fill="#0F0F0F"/>
<path d="M9.27719 22.6159C16.148 29.4867 22.2489 29.0896 23.9883 27.3502L25.0255 26.313C25.5833 25.754 25.8966 24.9966 25.8966 24.2069C25.8966 23.4172 25.5833 22.6597 25.0255 22.1008L22.5016 19.5769C21.9444 19.0241 21.1907 18.7149 20.4058 18.7171C19.6209 18.7193 18.869 19.0327 18.3149 19.5886L17.0747 20.8288C15.5809 20.5633 14.2113 19.8267 13.1662 18.7268C12.0669 17.6823 11.3293 16.3144 11.0608 14.8219L12.3114 13.5727C12.8564 12.9897 13.1524 12.217 13.1363 11.419C13.1201 10.6211 12.7932 9.86091 12.2251 9.30036L9.79236 6.86761C9.23338 6.30979 8.47594 5.9965 7.68623 5.9965C6.89653 5.9965 6.13908 6.30979 5.5801 6.86761L4.5429 7.90482C2.80341 9.64424 2.40638 15.7451 9.27719 22.6159ZM6.64073 7.92824C6.91819 7.65132 7.29419 7.4958 7.6862 7.4958C8.07821 7.4958 8.4542 7.65132 8.73167 7.92824L11.1644 10.361C11.4513 10.6404 11.6201 11.0192 11.6361 11.4193C11.6522 11.8194 11.5142 12.2105 11.2507 12.512L9.86891 13.8924C8.99677 14.7645 10.1679 17.8498 12.1056 19.7875C14.0432 21.7251 17.1313 22.8935 18.0048 22.02L19.3755 20.6492C19.6481 20.3742 20.0186 20.2186 20.4058 20.2164C20.793 20.2142 21.1653 20.3656 21.4409 20.6375L23.9648 23.1614C24.2418 23.4389 24.3973 23.8149 24.3973 24.2069C24.3973 24.5989 24.2418 24.9749 23.9648 25.2524L22.9276 26.2896C21.7717 27.4455 16.5077 27.7252 10.3378 21.5553C4.1679 15.3853 4.44756 10.1214 5.60352 8.96544L6.64073 7.92824Z" fill="#0F0F0F"/>
</svg>
