<svg width="32" height="31" viewBox="0 0 32 31" fill="none" xmlns="http://www.w3.org/2000/svg">
<path d="M2 8.95972C2 6.55621 6.10644 2.06622 16 2.06622C25.8936 2.06622 30 6.55617 30 8.95968V10.3439C29.999 11.1517 29.6586 11.9262 29.0533 12.4974C28.448 13.0685 27.6274 13.3898 26.7714 13.3907H23.331C22.4669 13.3949 21.6352 13.0807 21.0129 12.5149C20.3906 11.9491 20.0268 11.1765 19.999 10.3614L20 8.80393C18.8125 8.0722 17.4179 7.69722 16 7.72844C14.5814 7.69727 13.1864 8.07397 12 8.80854V10.3532C12.0012 11.1564 11.6647 11.9273 11.0644 12.4967C10.4641 13.0662 9.64899 13.3877 8.79785 13.3907H5.22851C4.37255 13.3898 3.55191 13.0685 2.94665 12.4974C2.34139 11.9262 2.00094 11.1517 2 10.3439V8.95972ZM27.6399 11.1635C27.8702 10.9461 27.9997 10.6514 28 10.3439V8.95968C28 7.5349 24.4307 3.9536 16 3.9536C7.56933 3.9536 4 7.5349 4 8.95968V10.3439C4.00025 10.6514 4.12977 10.9461 4.3601 11.1635C4.59044 11.3808 4.90277 11.5031 5.22851 11.5033H8.79785C9.11878 11.5009 9.42558 11.3784 9.65096 11.1628C9.87634 10.9472 10.0019 10.656 10 10.3532V8.52379C10 7.19486 13.0284 5.84105 16.0001 5.84105C18.7012 5.84105 22 7.07598 22 8.51826L21.9991 10.3624C22.0244 10.6772 22.1766 10.9709 22.4244 11.1831C22.6721 11.3953 22.9966 11.5099 23.3311 11.5033H26.7715C27.0972 11.5031 27.4096 11.3808 27.6399 11.1635ZM16 13.3907C16.5523 13.3907 17 13.8132 17 14.3344V19.3484L19.4798 21.6887C19.8704 22.0572 19.8704 22.6547 19.4798 23.0233C19.0893 23.3918 18.4561 23.3918 18.0656 23.0233L15.2929 20.4066C15.1054 20.2296 15 19.9896 15 19.7393V14.3344C15 13.8132 15.4477 13.3907 16 13.3907ZM7.44817 14.866C7.96551 15.0485 8.22818 15.5921 8.03486 16.0804C7.68936 16.9529 7.5 17.8984 7.5 18.8879C7.5 23.318 11.3056 26.9094 16 26.9094C20.6944 26.9094 24.5 23.318 24.5 18.8879C24.5 17.8984 24.3106 16.9529 23.9651 16.0804C23.7718 15.5921 24.0345 15.0485 24.5518 14.866C25.0692 14.6836 25.6453 14.9315 25.8386 15.4197C26.2665 16.5004 26.5 17.6695 26.5 18.8879C26.5 24.3604 21.799 28.7968 16 28.7968C10.201 28.7968 5.5 24.3604 5.5 18.8879C5.5 17.6695 5.73348 16.5004 6.16139 15.4197C6.35471 14.9315 6.93082 14.6836 7.44817 14.866Z" fill="#0F0F0F"/>
</svg>
