<svg width="32" height="32" viewBox="0 0 32 32" fill="none" xmlns="http://www.w3.org/2000/svg">
<path d="M29.5303 6.46961L25.5303 2.46961C25.4606 2.39995 25.378 2.3447 25.287 2.30699C25.196 2.26929 25.0985 2.24989 25 2.24989C24.9015 2.24989 24.804 2.26929 24.713 2.30699C24.622 2.3447 24.5393 2.39995 24.4697 2.46961L20.4697 6.46961C20.3295 6.61034 20.2509 6.80094 20.2511 6.99958C20.2513 7.19821 20.3303 7.38866 20.4707 7.52912C20.6112 7.66958 20.8016 7.74857 21.0003 7.74877C21.1989 7.74896 21.3895 7.67034 21.5303 7.53016L24.25 4.81043V24.1249C24.2835 25.165 23.9108 26.1772 23.2108 26.9472C22.5108 27.7172 21.5385 28.1845 20.5 28.2499C19.4614 28.1845 18.4891 27.7172 17.7891 26.9472C17.0891 26.1772 16.7164 25.165 16.75 24.1249V7.87489C16.7789 6.43849 16.2467 5.0474 15.2664 3.9971C14.2861 2.94679 12.935 2.32001 11.5 2.24989C10.065 2.32001 8.71388 2.94679 7.73359 3.9971C6.75331 5.0474 6.22109 6.43849 6.24998 7.87489V27.1903L3.53025 24.4706C3.46066 24.4007 3.37798 24.3453 3.28694 24.3074C3.1959 24.2695 3.09828 24.25 2.99967 24.2499C2.90107 24.2498 2.80341 24.2692 2.7123 24.3069C2.62118 24.3445 2.53839 24.3998 2.46867 24.4696C2.39894 24.5393 2.34366 24.6221 2.30597 24.7132C2.26828 24.8043 2.24893 24.902 2.24902 25.0006C2.24912 25.0992 2.26866 25.1968 2.30653 25.2878C2.3444 25.3789 2.39985 25.4616 2.46971 25.5311L6.46971 29.5311C6.53934 29.6008 6.622 29.6561 6.71299 29.6938C6.80397 29.7315 6.90149 29.7509 6.99998 29.7509C7.09847 29.7509 7.19599 29.7315 7.28698 29.6938C7.37796 29.6561 7.46063 29.6008 7.53025 29.5311L11.5303 25.5311C11.6704 25.3904 11.7491 25.1998 11.7489 25.0012C11.7487 24.8025 11.6697 24.6121 11.5292 24.4716C11.3888 24.3312 11.1983 24.2522 10.9997 24.252C10.801 24.2518 10.6104 24.3304 10.4697 24.4706L7.74998 27.1903V7.87489C7.71643 6.83481 8.08914 5.82253 8.78914 5.05254C9.48914 4.28254 10.4614 3.81533 11.5 3.74989C12.5385 3.81533 13.5108 4.28254 14.2108 5.05254C14.9108 5.82253 15.2835 6.83481 15.25 7.87489V24.1249C15.2211 25.5613 15.7533 26.9524 16.7336 28.0027C17.7139 29.053 19.065 29.6798 20.5 29.7499C21.935 29.6798 23.2861 29.053 24.2664 28.0027C25.2467 26.9524 25.7789 25.5613 25.75 24.1249V4.81043L28.4697 7.53016C28.5393 7.60002 28.622 7.65547 28.713 7.69334C28.8041 7.73121 28.9017 7.75075 29.0003 7.75084C29.0989 7.75094 29.1965 7.73159 29.2877 7.6939C29.3788 7.65621 29.4616 7.60092 29.5313 7.5312C29.601 7.46147 29.6563 7.37868 29.694 7.28756C29.7317 7.19645 29.751 7.09879 29.7509 7.00019C29.7508 6.90158 29.7313 6.80397 29.6934 6.71292C29.6556 6.62188 29.6001 6.5392 29.5303 6.46961Z" fill="#0F0F0F"/>
</svg>
