<svg width="32" height="32" viewBox="0 0 32 32" fill="none" xmlns="http://www.w3.org/2000/svg">
<path d="M12.354 8.35347L15.5005 5.207V12C15.5005 12.1326 15.5532 12.2598 15.6469 12.3536C15.7407 12.4473 15.8679 12.5 16.0005 12.5C16.1331 12.5 16.2603 12.4473 16.354 12.3536C16.4478 12.2598 16.5005 12.1326 16.5005 12V5.207L19.647 8.35348C19.6932 8.40068 19.7484 8.43823 19.8092 8.46398C19.8701 8.48973 19.9354 8.50316 20.0015 8.50349C20.0676 8.50383 20.1331 8.49106 20.1942 8.46593C20.2553 8.44079 20.3108 8.40379 20.3576 8.35707C20.4043 8.31034 20.4413 8.25482 20.4664 8.19371C20.4915 8.13259 20.5043 8.0671 20.504 8.00103C20.5036 7.93495 20.4902 7.86959 20.4645 7.80873C20.4387 7.74788 20.4012 7.69273 20.354 7.64648L16.354 3.64648C16.3076 3.60005 16.2524 3.56321 16.1918 3.53808C16.1311 3.51295 16.0661 3.50001 16.0005 3.50001C15.9348 3.50001 15.8698 3.51295 15.8091 3.53808C15.7485 3.56321 15.6934 3.60005 15.647 3.64648L11.647 7.64648C11.5548 7.74056 11.5034 7.86722 11.5041 7.99893C11.5048 8.13065 11.5574 8.25679 11.6505 8.34993C11.7437 8.44307 11.8698 8.49569 12.0015 8.49635C12.1332 8.49702 12.2599 8.44566 12.354 8.35347Z" fill="#0F0F0F"/>
<path d="M16.0005 17.5C6.46049 17.5 2.50049 21.9316 2.50049 24.3047V25.7715C2.50118 26.4949 2.78886 27.1885 3.30041 27.7001C3.81196 28.2116 4.50556 28.4993 5.229 28.5H8.79834C9.51695 28.497 10.205 28.2091 10.7116 27.6994C11.2182 27.1897 11.5019 26.4999 11.5005 25.7813V23.9287C12.7899 22.946 14.3803 22.441 16.0005 22.5C17.6197 22.441 19.2095 22.9437 20.5005 23.9228L20.4995 25.79C20.5256 26.5216 20.8361 27.2141 21.365 27.7202C21.8939 28.2263 22.5995 28.5061 23.3315 28.5H26.7719C27.4954 28.4993 28.189 28.2116 28.7005 27.7001C29.2121 27.1885 29.4997 26.4949 29.5004 25.7715V24.3047C29.5005 21.9316 25.5405 17.5 16.0005 17.5ZM28.5005 25.7715C28.5 26.2298 28.3177 26.6691 27.9937 26.9932C27.6696 27.3172 27.2302 27.4995 26.772 27.5H23.3315C22.8653 27.5037 22.4154 27.3285 22.0746 27.0103C21.7337 26.6922 21.5279 26.2554 21.4995 25.79L21.5005 23.8369C21.5005 22.8379 18.7818 21.5 16.0005 21.5C13.2193 21.5 10.5005 22.8418 10.5005 23.8427V25.7812C10.5021 26.2347 10.3238 26.6703 10.0047 26.9925C9.68565 27.3147 9.2518 27.4972 8.79834 27.5H5.229C4.77072 27.4995 4.33137 27.3172 4.00732 26.9932C3.68327 26.6691 3.501 26.2298 3.50049 25.7715V24.3047C3.50049 22.5966 7.09717 18.5 16.0005 18.5C24.9038 18.5 28.5005 22.5966 28.5005 24.3047V25.7715Z" fill="#0F0F0F"/>
</svg>
