<svg width="32" height="32" viewBox="0 0 32 32" fill="none" xmlns="http://www.w3.org/2000/svg">
<path d="M27.4996 2.00041C26.837 2.00118 26.2018 2.26471 25.7334 2.7332C25.2649 3.20169 25.0013 3.83687 25.0006 4.49941V10.5004C25.0006 11.1635 25.264 11.7993 25.7328 12.2682C26.2016 12.737 26.8375 13.0004 27.5006 13.0004C28.1636 13.0004 28.7995 12.737 29.2683 12.2682C29.7372 11.7993 30.0006 11.1635 30.0006 10.5004V4.49941C29.9995 3.83661 29.7356 3.20128 29.2668 2.7328C28.7979 2.26431 28.1624 2.00093 27.4996 2.00041ZM28.0006 10.5004C28.0003 10.6329 27.9475 10.76 27.8538 10.8537C27.7601 10.9474 27.6331 11.0001 27.5006 11.0004C27.3681 11.0001 27.2402 10.9473 27.1467 10.8536C27.0532 10.7598 27.0006 10.6328 27.0006 10.5004V4.49941C27.0006 4.3668 27.0532 4.23963 27.147 4.14586C27.2408 4.05209 27.368 3.99941 27.5006 3.99941C27.6332 3.99941 27.7604 4.05209 27.8541 4.14586C27.9479 4.23963 28.0006 4.3668 28.0006 4.49941V10.5004Z" fill="#0F0F0F"/>
<path d="M20.5015 13.0004C21.1644 12.9998 21.7999 12.7362 22.2686 12.2675C22.7373 11.7988 23.0009 11.1633 23.0015 10.5004V4.49941C23.0015 3.83637 22.7381 3.20049 22.2693 2.73165C21.8004 2.2628 21.1646 1.99941 20.5015 1.99941C19.8385 1.99941 19.2026 2.2628 18.7337 2.73165C18.2649 3.20049 18.0015 3.83637 18.0015 4.49941V10.5004C18.0021 11.1633 18.2657 11.7988 18.7344 12.2675C19.2031 12.7362 19.8387 12.9998 20.5015 13.0004ZM20.0015 4.49941C20.0015 4.3668 20.0542 4.23963 20.148 4.14586C20.2417 4.05209 20.3689 3.99941 20.5015 3.99941C20.6341 3.99941 20.7613 4.05209 20.8551 4.14586C20.9488 4.23963 21.0015 4.3668 21.0015 4.49941V10.5004C21.0013 10.6329 20.9485 10.76 20.8548 10.8537C20.7611 10.9474 20.634 11.0001 20.5015 11.0004C20.3691 11.0001 20.2412 10.9473 20.1476 10.8536C20.0541 10.7598 20.0016 10.6328 20.0015 10.5004V4.49941Z" fill="#0F0F0F"/>
<path d="M24.2117 19.5155C23.8849 19.1893 23.4971 18.9307 23.0703 18.7544C22.6435 18.5782 22.1862 18.4877 21.7244 18.4883C21.2627 18.4888 20.8056 18.5803 20.3792 18.7576C19.9528 18.9349 19.5656 19.1944 19.2395 19.5214C19.2395 19.5214 18.0827 20.7003 17.5678 21.2198C15.786 21.1462 14.0972 20.4048 12.8371 19.143C11.577 17.8812 10.8378 16.1914 10.7666 14.4095C11.2864 13.8939 12.4627 12.7356 12.4686 12.7297C13.1274 12.0699 13.4974 11.1756 13.4974 10.2433C13.4974 9.31086 13.1274 8.41658 12.4686 7.75679L9.71426 4.99879C9.04318 4.35737 8.15061 3.99942 7.2223 3.99942C6.29398 3.99942 5.40142 4.35737 4.73034 4.99879L3.25794 6.4732C1.25012 8.48272 0.762556 15.5033 8.61901 23.3702C13.6186 28.3774 18.2762 29.9995 21.52 29.9995C22.9566 30.0998 24.3775 29.6493 25.4937 28.7394L26.966 27.265C27.6273 26.603 27.9988 25.7055 27.9988 24.7697C27.9988 23.834 27.6273 22.9365 26.966 22.2745L24.2117 19.5155ZM25.5513 25.8483L24.0789 27.2855C22.7999 28.5632 16.9435 28.8352 10.0338 21.9164C3.12312 14.9965 3.39473 9.16952 4.67271 7.88984L6.14512 6.44743C6.28643 6.30571 6.45432 6.19327 6.63917 6.11655C6.82401 6.03982 7.02218 6.00033 7.22232 6.00033C7.42245 6.00033 7.62062 6.03982 7.80547 6.11655C7.99031 6.19327 8.1582 6.30571 8.29952 6.44743L11.0538 9.17343C11.3362 9.45632 11.4953 9.83939 11.4964 10.2391C11.4975 10.6388 11.3405 11.0228 11.0597 11.3072C11.0597 11.3072 9.55405 12.7894 9.18868 13.1553C7.8853 14.4643 9.65668 18.7915 11.4242 20.5614C12.5857 21.6923 14.0161 22.5088 15.5805 22.9339C16.4911 23.1833 18.1228 23.4974 18.8214 22.7989C19.1849 22.4349 20.6602 20.9332 20.6602 20.9322C20.9438 20.6493 21.328 20.4904 21.7286 20.4904C22.1292 20.4904 22.5134 20.6493 22.797 20.9322L25.5513 23.6911C25.8372 23.9773 25.9978 24.3652 25.9978 24.7697C25.9978 25.1742 25.8372 25.5622 25.5513 25.8483Z" fill="#0F0F0F"/>
</svg>
