<svg width="32" height="32" viewBox="0 0 32 32" fill="none" xmlns="http://www.w3.org/2000/svg">
<path d="M24.0146 15C24.7049 15 25.2646 14.4403 25.2646 13.75C25.2646 13.0596 24.7049 12.5 24.0146 12.5C23.3242 12.5 22.7646 13.0596 22.7646 13.75C22.7646 14.4403 23.3242 15 24.0146 15Z" fill="#0F0F0F"/>
<path d="M21 7C21.1314 7.00008 21.2614 6.97426 21.3828 6.92404C21.5041 6.87381 21.6144 6.80015 21.7073 6.70728C21.8002 6.6144 21.8738 6.50413 21.924 6.38277C21.9743 6.26141 22.0001 6.13134 22 6C22 5.60444 22.1173 5.21776 22.3371 4.88886C22.5568 4.55996 22.8692 4.30362 23.2346 4.15224C23.6001 4.00087 24.0022 3.96126 24.3902 4.03843C24.7782 4.1156 25.1345 4.30608 25.4142 4.58579C25.6939 4.86549 25.8844 5.22186 25.9616 5.60982C26.0388 5.99778 25.9991 6.39992 25.8478 6.76537C25.6964 7.13082 25.4401 7.44318 25.1112 7.66294C24.7823 7.8827 24.3956 8 24 8C23.8687 7.99992 23.7386 8.02574 23.6172 8.07597C23.4959 8.12619 23.3856 8.19985 23.2927 8.29272C23.1999 8.3856 23.1262 8.49587 23.076 8.61723C23.0258 8.73859 22.9999 8.86866 23 9V10C23 10.2652 23.1054 10.5196 23.2929 10.7071C23.4804 10.8946 23.7348 11 24 11C24.2652 11 24.5196 10.8946 24.7071 10.7071C24.8947 10.5196 25 10.2652 25 10V9.873C25.7244 9.68597 26.3818 9.29953 26.8976 8.7576C27.4133 8.21566 27.7668 7.53994 27.9177 6.8072C28.0687 6.07445 28.0111 5.31406 27.7516 4.61238C27.4921 3.91071 27.041 3.29588 26.4495 2.83774C25.8581 2.37961 25.15 2.09652 24.4057 2.02064C23.6614 1.94477 22.9108 2.07914 22.2391 2.4085C21.5673 2.73786 21.0014 3.249 20.6056 3.88386C20.2098 4.51873 20 5.25187 20 6C19.9999 6.13134 20.0258 6.26141 20.076 6.38277C20.1262 6.50413 20.1999 6.6144 20.2927 6.70727C20.3856 6.80015 20.4959 6.87381 20.6172 6.92403C20.7386 6.97426 20.8687 7.00008 21 7Z" fill="#0F0F0F"/>
<path d="M9.10736 22.8427C16.1032 29.8385 22.3711 29.3779 24.172 27.577L25.2092 26.5398C25.8138 25.9339 26.1534 25.1128 26.1534 24.2569C26.1534 23.4009 25.8138 22.5799 25.2092 21.974L22.6853 19.4501C22.0812 18.8505 21.2639 18.5151 20.4128 18.5173C19.5616 18.5195 18.7461 18.8591 18.1451 19.4618L16.9877 20.6192C15.5984 20.3307 14.3297 19.6265 13.35 18.6001C12.324 17.6209 11.6188 16.3538 11.3274 14.9658L12.4951 13.7995C13.0862 13.1691 13.4079 12.333 13.3918 11.469C13.3756 10.605 13.023 9.78147 12.4088 9.17358L9.97608 6.74083C9.37015 6.13624 8.54914 5.7967 7.69318 5.7967C6.83721 5.7967 6.0162 6.13624 5.41027 6.74083L4.37306 7.77804C2.57211 9.57892 2.11155 15.8469 9.10736 22.8427ZM6.82445 8.15501C7.05497 7.92486 7.3674 7.79558 7.69314 7.79558C8.01889 7.79558 8.33132 7.92485 8.56184 8.15501L10.9946 10.5878C11.236 10.8194 11.3796 11.1347 11.3957 11.4688C11.4119 11.803 11.2995 12.1307 11.0816 12.3845L9.6991 13.7656C8.61841 14.8463 10.0257 18.1042 11.9357 20.0142C14.037 22.1155 17.1928 23.2425 18.1885 22.2467L19.5592 20.876C19.7849 20.6478 20.0918 20.5184 20.4128 20.5162C20.7337 20.514 21.0424 20.6392 21.2711 20.8643L23.795 23.3882C24.0252 23.6187 24.1544 23.9311 24.1544 24.2569C24.1544 24.5826 24.0252 24.8951 23.795 25.1256L22.7578 26.1628C21.6902 27.2303 16.4829 27.3899 10.5215 21.4285C4.56016 15.4671 4.71967 10.2598 5.78724 9.19221L6.82445 8.15501Z" fill="#0F0F0F"/>
</svg>
