<svg width="32" height="32" viewBox="0 0 32 32" fill="none" xmlns="http://www.w3.org/2000/svg">
<path d="M25.354 6.64678C25.3076 6.60035 25.2525 6.56351 25.1918 6.53838C25.1312 6.51325 25.0662 6.50031 25.0005 6.50031C24.9348 6.50031 24.8698 6.51325 24.8092 6.53838C24.7485 6.56351 24.6934 6.60035 24.647 6.64678L7.50049 23.7923V9.0003C7.50049 8.86769 7.44781 8.74051 7.35404 8.64675C7.26027 8.55298 7.1331 8.5003 7.00049 8.5003C6.86788 8.5003 6.7407 8.55298 6.64694 8.64675C6.55317 8.74051 6.50049 8.86769 6.50049 9.0003V25.0003C6.50045 25.066 6.51336 25.131 6.53847 25.1917C6.56359 25.2524 6.60042 25.3075 6.64685 25.3539C6.69329 25.4004 6.74842 25.4372 6.8091 25.4623C6.86978 25.4874 6.93482 25.5003 7.00049 25.5003H23.0005C23.1331 25.5003 23.2603 25.4476 23.354 25.3539C23.4478 25.2601 23.5005 25.1329 23.5005 25.0003C23.5005 24.8677 23.4478 24.7405 23.354 24.6467C23.2603 24.553 23.1331 24.5003 23.0005 24.5003H8.2066L25.354 7.35381C25.4004 7.3074 25.4373 7.25229 25.4624 7.19163C25.4876 7.13097 25.5005 7.06595 25.5005 7.0003C25.5005 6.93464 25.4876 6.86962 25.4624 6.80896C25.4373 6.7483 25.4004 6.69319 25.354 6.64678Z" fill="#0F0F0F"/>
</svg>
