<svg width="32" height="32" viewBox="0 0 32 32" fill="none" xmlns="http://www.w3.org/2000/svg">
<path d="M17.293 18.707L25.587 27H20.001C19.7358 27 19.4814 27.1054 19.2939 27.2929C19.1064 27.4804 19.001 27.7348 19.001 28C19.001 28.2652 19.1064 28.5196 19.2939 28.7071C19.4814 28.8946 19.7358 29 20.001 29H28.001C28.2662 29 28.5206 28.8946 28.7081 28.7071C28.8956 28.5196 29.001 28.2652 29.001 28V20C29.001 19.7348 28.8956 19.4804 28.7081 19.2929C28.5206 19.1054 28.2662 19 28.001 19C27.7358 19 27.4814 19.1054 27.2939 19.2929C27.1064 19.4804 27.001 19.7348 27.001 20V25.585L18.707 17.293C18.5195 17.1055 18.2652 17.0001 18 17.0001C17.7348 17.0001 17.4805 17.1055 17.293 17.293C17.1055 17.4805 17.0001 17.7348 17.0001 18C17.0001 18.2652 17.1055 18.5195 17.293 18.707ZM4.004 13.004C4.26921 13.004 4.52357 12.8986 4.7111 12.7111C4.89864 12.5236 5.004 12.2692 5.004 12.004V6.412L13.296 14.711C13.4835 14.8986 13.7379 15.0041 14.0031 15.0042C14.2684 15.0043 14.5229 14.899 14.7105 14.7115C14.8981 14.524 15.0036 14.2696 15.0037 14.0044C15.0038 13.7391 14.8985 13.4846 14.711 13.297L6.425 5.004H12.004C12.2692 5.004 12.5236 4.89864 12.7111 4.7111C12.8986 4.52357 13.004 4.26921 13.004 4.004C13.004 3.73878 12.8986 3.48443 12.7111 3.29689C12.5236 3.10935 12.2692 3.004 12.004 3.004H4.004C3.73878 3.004 3.48443 3.10935 3.29689 3.29689C3.10935 3.48443 3.004 3.73878 3.004 4.004V12.004C3.004 12.2692 3.10935 12.5236 3.29689 12.7111C3.48443 12.8986 3.73878 13.004 4.004 13.004Z" fill="#0F0F0F"/>
</svg>
