<svg width="32" height="32" viewBox="0 0 32 32" fill="none" xmlns="http://www.w3.org/2000/svg">
<path d="M25.7074 6.29326C25.6146 6.20039 25.5044 6.12671 25.3831 6.07644C25.2617 6.02617 25.1317 6.0003 25.0004 6.0003C24.8691 6.0003 24.739 6.02617 24.6177 6.07644C24.4964 6.12671 24.3862 6.20039 24.2934 6.29326L8.00037 22.5863V9.0003C8.00037 8.73509 7.89501 8.48073 7.70747 8.2932C7.51994 8.10566 7.26558 8.0003 7.00037 8.0003C6.73515 8.0003 6.4808 8.10566 6.29326 8.2932C6.10572 8.48073 6.00037 8.73509 6.00037 9.0003V25.0003C6.00029 25.1316 6.0261 25.2617 6.07633 25.3831C6.12656 25.5044 6.20022 25.6147 6.29309 25.7076C6.38596 25.8005 6.49623 25.8741 6.61759 25.9243C6.73895 25.9746 6.86902 26.0004 7.00037 26.0003H23.0004C23.2656 26.0003 23.5199 25.8949 23.7075 25.7074C23.895 25.5199 24.0004 25.2655 24.0004 25.0003C24.0004 24.7351 23.895 24.4807 23.7075 24.2932C23.5199 24.1057 23.2656 24.0003 23.0004 24.0003H9.41446L25.7075 7.7073C25.8003 7.61447 25.874 7.50425 25.9243 7.38293C25.9745 7.26162 26.0004 7.13159 26.0004 7.00028C26.0004 6.86896 25.9745 6.73894 25.9242 6.61762C25.874 6.49631 25.8003 6.38609 25.7074 6.29326Z" fill="#0F0F0F"/>
</svg>
