<svg width="32" height="32" viewBox="0 0 32 32" fill="none" xmlns="http://www.w3.org/2000/svg">
<path d="M4.70117 21.209C3.95215 21.209 3.74902 21.7295 4.16797 22.3262L6.93555 26.2617C7.29102 26.7695 7.78613 26.7568 8.1416 26.2617L10.9092 22.3135C11.3154 21.7295 11.1123 21.209 10.376 21.209H8.38281V11.5479C8.38281 9.27539 9.74121 7.75195 11.7217 7.75195C13.7021 7.75195 15.1494 9.22461 15.1494 11.5479V20.2822C15.1494 23.6465 17.2441 25.8682 20.2783 25.8682C23.2998 25.8682 25.3184 23.6465 25.3184 20.2822V10.6973H27.2988C28.0352 10.6973 28.251 10.1895 27.832 9.59277L25.0645 5.64453C24.7217 5.14941 24.2139 5.13672 23.8584 5.64453L21.0908 9.58008C20.6719 10.1895 20.875 10.6973 21.624 10.6973H23.6045V20.3584C23.6045 22.6309 22.2588 24.167 20.2783 24.167C18.2852 24.167 16.8506 22.6816 16.8506 20.3584V11.624C16.8506 8.25977 14.7432 6.03809 11.7217 6.03809C8.7002 6.03809 6.68164 8.25977 6.68164 11.624V21.209H4.70117Z" fill="black"/>
</svg>
