<svg width="32" height="32" viewBox="0 0 32 32" fill="none" xmlns="http://www.w3.org/2000/svg">
<path d="M14 5.49989C13.9343 5.49986 13.8693 5.51276 13.8086 5.53788C13.7479 5.56299 13.6928 5.59982 13.6463 5.64626C13.5999 5.69269 13.5631 5.74783 13.538 5.80851C13.5128 5.86919 13.4999 5.93422 13.5 5.99989V12.8002L4.35348 3.64637C4.2594 3.55418 4.13274 3.50284 4.00103 3.5035C3.86931 3.50417 3.74317 3.55679 3.65003 3.64993C3.55689 3.74307 3.50427 3.8692 3.50361 4.00092C3.50294 4.13264 3.55429 4.2593 3.64648 4.35337L12.7857 13.4999H5.99997C5.86736 13.4999 5.74019 13.5525 5.64642 13.6463C5.55265 13.7401 5.49997 13.8673 5.49997 13.9999C5.49997 14.1325 5.55265 14.2596 5.64642 14.3534C5.74019 14.4472 5.86736 14.4999 5.99997 14.4999H14C14.0656 14.4999 14.1307 14.487 14.1914 14.4619C14.252 14.4368 14.3072 14.3999 14.3536 14.3535C14.4 14.3071 14.4369 14.2519 14.462 14.1912C14.4871 14.1306 14.5 14.0655 14.5 13.9999V5.99986C14.5 5.93419 14.4871 5.86916 14.462 5.80849C14.4369 5.74781 14.4 5.69268 14.3536 5.64624C14.3072 5.59981 14.252 5.56299 14.1913 5.53787C14.1307 5.51276 14.0656 5.49986 14 5.49989Z" fill="#0F0F0F"/>
<path d="M28.354 27.6464L19.2066 18.4999H26.0005C26.1331 18.4999 26.2602 18.4472 26.354 18.3534C26.4478 18.2597 26.5005 18.1325 26.5005 17.9999C26.5005 17.8673 26.4478 17.7401 26.354 17.6463C26.2602 17.5526 26.1331 17.4999 26.0005 17.4999H18.0005C17.9348 17.4999 17.8698 17.5128 17.8091 17.5379C17.7484 17.563 17.6933 17.5998 17.6468 17.6463C17.6004 17.6927 17.5636 17.7478 17.5384 17.8085C17.5133 17.8692 17.5004 17.9342 17.5005 17.9999V25.9999C17.5005 26.1325 17.5531 26.2597 17.6469 26.3534C17.7407 26.4472 17.8679 26.4999 18.0005 26.4999C18.1331 26.4999 18.2602 26.4472 18.354 26.3534C18.4478 26.2597 18.5005 26.1325 18.5005 25.9999V19.2079L27.6469 28.3534C27.741 28.4456 27.8677 28.4969 27.9994 28.4963C28.1311 28.4956 28.2572 28.443 28.3504 28.3498C28.4435 28.2567 28.4961 28.1306 28.4968 27.9988C28.4975 27.8671 28.4462 27.7404 28.354 27.6464Z" fill="#0F0F0F"/>
</svg>
