<svg width="32" height="32" viewBox="0 0 32 32" fill="none" xmlns="http://www.w3.org/2000/svg">
<path d="M27.4994 2.50041C26.9694 2.50092 26.4612 2.71169 26.0865 3.08646C25.7117 3.46124 25.5009 3.96939 25.5004 4.49941V10.5004C25.5004 11.0308 25.7111 11.5395 26.0862 11.9146C26.4613 12.2897 26.97 12.5004 27.5004 12.5004C28.0308 12.5004 28.5395 12.2897 28.9146 11.9146C29.2897 11.5395 29.5004 11.0308 29.5004 10.5004V4.49941C29.4996 3.96913 29.2885 3.46084 28.9133 3.08607C28.5382 2.7113 28.0297 2.50067 27.4994 2.50041ZM28.5004 10.5004C28.5002 10.7656 28.3948 11.0198 28.2073 11.2073C28.0198 11.3948 27.7656 11.5002 27.5004 11.5004C27.2354 11.5 26.9804 11.3945 26.7931 11.207C26.6058 11.0195 26.5005 10.7654 26.5004 10.5004V4.49941C26.5004 4.23419 26.6058 3.97983 26.7933 3.7923C26.9808 3.60476 27.2352 3.4994 27.5004 3.4994C27.7656 3.4994 28.02 3.60476 28.2075 3.7923C28.395 3.97983 28.5004 4.23419 28.5004 4.49941V10.5004Z" fill="#0F0F0F"/>
<path d="M20.5013 12.5004C21.0316 12.4997 21.5399 12.2888 21.9148 11.9139C22.2897 11.5389 22.5007 11.0306 22.5013 10.5004V4.49941C22.5013 3.96897 22.2906 3.46026 21.9156 3.08519C21.5405 2.71012 21.0318 2.4994 20.5013 2.4994C19.9709 2.4994 19.4622 2.71012 19.0871 3.08519C18.7121 3.46026 18.5013 3.96897 18.5013 4.49941V10.5004C18.502 11.0306 18.713 11.5389 19.0879 11.9139C19.4628 12.2888 19.9711 12.4997 20.5013 12.5004ZM19.5013 4.49941C19.5013 4.23419 19.6067 3.97983 19.7942 3.7923C19.9818 3.60476 20.2361 3.4994 20.5013 3.4994C20.7666 3.4994 21.0209 3.60476 21.2085 3.7923C21.396 3.97983 21.5013 4.23419 21.5013 4.49941V10.5004C21.5012 10.7656 21.3958 11.0198 21.2083 11.2073C21.0208 11.3948 20.7665 11.5002 20.5013 11.5004C20.2363 11.5 19.9813 11.3945 19.794 11.207C19.6067 11.0195 19.5015 10.7654 19.5013 10.5004V4.49941Z" fill="#0F0F0F"/>
<path d="M9.45401 22.4541C16.1998 29.1999 22.1336 28.8664 23.8116 27.1884L24.8488 26.1512C25.3598 25.6391 25.6469 24.9453 25.6469 24.2218C25.6469 23.4984 25.3598 22.8045 24.8488 22.2925L22.3249 19.7686C21.8146 19.2626 21.1245 18.9796 20.4059 18.9818C19.6873 18.984 18.9989 19.2712 18.4917 19.7803L17.1817 21.0903C15.5751 20.8734 14.0934 20.1059 12.9895 18.9185C11.8029 17.8153 11.0342 16.3357 10.8136 14.7305L12.1346 13.4109C12.6335 12.8751 12.9036 12.1658 12.8875 11.434C12.8714 10.7021 12.5703 10.0054 12.0484 9.49208L9.61563 7.05933C9.10359 6.54827 8.40971 6.26124 7.68628 6.26124C6.96284 6.26124 6.26895 6.54827 5.75692 7.05933L4.71971 8.09653C3.04168 9.7745 2.70818 15.7082 9.45401 22.4541ZM6.46399 7.7664C6.7884 7.44271 7.22796 7.26093 7.68624 7.26093C8.14451 7.26093 8.58408 7.44271 8.90849 7.7664L11.3412 10.1992C11.6736 10.5262 11.8678 10.9683 11.8838 11.4342C11.8999 11.9002 11.7365 12.3546 11.4275 12.7037L10.0457 14.0841C9.33933 14.7905 10.3157 17.659 12.2824 19.6256C14.249 21.5923 17.1203 22.5659 17.828 21.8581L19.1988 20.4874C19.5183 20.1656 19.9524 19.9837 20.4058 19.9815C20.8593 19.9793 21.2951 20.157 21.6178 20.4757L24.1417 22.9996C24.4654 23.324 24.6471 23.7636 24.6471 24.2218C24.6471 24.6801 24.4653 25.1197 24.1417 25.4441L23.1045 26.4813C21.8967 27.689 16.4567 28.0426 10.1611 21.747C3.86549 15.4514 4.21904 10.0113 5.42679 8.8036L6.46399 7.7664Z" fill="#0F0F0F"/>
</svg>
