<svg width="32" height="32" viewBox="0 0 32 32" fill="none" xmlns="http://www.w3.org/2000/svg">
<path d="M19.2929 2.29289C19.6834 1.90237 20.3166 1.90237 20.7071 2.29289L23.9999 5.58571L27.2927 2.29289C27.6833 1.90237 28.3164 1.90237 28.707 2.29289C29.0975 2.68342 29.0975 3.31658 28.707 3.70711L25.4141 6.99993L28.7071 10.2929C29.0976 10.6834 29.0976 11.3166 28.7071 11.7071C28.3166 12.0976 27.6834 12.0976 27.2929 11.7071L23.9999 8.41414L20.707 11.7071C20.3164 12.0976 19.6833 12.0976 19.2927 11.7071C18.9022 11.3166 18.9022 10.6834 19.2927 10.2929L22.5857 6.99993L19.2929 3.70711C18.9024 3.31658 18.9024 2.68342 19.2929 2.29289ZM9.10711 22.8427C16.1029 29.8385 22.3709 29.3779 24.1718 27.577L25.209 26.5398C25.8136 25.9339 26.1531 25.1128 26.1531 24.2569C26.1531 23.4009 25.8136 22.5799 25.209 21.974L22.6851 19.4501C22.0809 18.8505 21.2637 18.5151 20.4125 18.5173C19.5614 18.5195 18.7459 18.8591 18.1448 19.4618L16.9875 20.6192C15.5982 20.3307 14.3294 19.6265 13.3497 18.6001C12.3238 17.6209 11.6186 16.3538 11.3272 14.9658L12.4949 13.7995C13.0859 13.1691 13.4076 12.333 13.3915 11.469C13.3754 10.605 13.0227 9.78147 12.4086 9.17358L9.97584 6.74083C9.36991 6.13624 8.5489 5.7967 7.69293 5.7967C6.83697 5.7967 6.01595 6.13624 5.41002 6.74083L4.37282 7.77804C2.57187 9.57892 2.1113 15.8469 9.10711 22.8427ZM6.8242 8.15501C7.05472 7.92486 7.36715 7.79558 7.6929 7.79558C8.01864 7.79559 8.33107 7.92485 8.56159 8.15501L10.9943 10.5878C11.2358 10.8194 11.3793 11.1347 11.3955 11.4688C11.4117 11.803 11.2992 12.1307 11.0813 12.3845L9.69885 13.7656C8.61817 14.8463 10.0255 18.1042 11.9355 20.0142C14.0368 22.1155 17.1925 23.2425 18.1883 22.2467L19.559 20.876C19.7846 20.6478 20.0916 20.5184 20.4125 20.5162C20.7334 20.514 21.0421 20.6392 21.2709 20.8643L23.7948 23.3882C24.0249 23.6187 24.1542 23.9311 24.1542 24.2569C24.1542 24.5826 24.0249 24.8951 23.7948 25.1256L22.7576 26.1628C21.69 27.2303 16.4827 27.3899 10.5213 21.4285C4.55991 15.4671 4.71943 10.2598 5.787 9.19221L6.8242 8.15501Z" fill="#0F0F0F"/>
</svg>
