<svg width="32" height="32" viewBox="0 0 32 32" fill="none" xmlns="http://www.w3.org/2000/svg">
<path d="M19 2.70004C18.4477 2.70004 18 3.12537 18 3.65004C18 4.17471 18.4477 4.60004 19 4.60004H23.5858L20.2929 7.72829C19.9024 8.09929 19.9024 8.7008 20.2929 9.07179C20.6834 9.44279 21.3166 9.44279 21.7071 9.07179L25 5.94355V10.3C25 10.8247 25.4477 11.25 26 11.25C26.5523 11.25 27 10.8247 27 10.3V3.65004C27 3.12537 26.5523 2.70004 26 2.70004H19ZM19.5 11.4875C19.5 12.1434 18.9404 12.675 18.25 12.675C17.5596 12.675 17 12.1434 17 11.4875C17 10.8317 17.5596 10.3 18.25 10.3C18.9404 10.3 19.5 10.8317 19.5 11.4875ZM16.5 14.3375C16.5 14.9934 15.9404 15.525 15.25 15.525C14.5596 15.525 14 14.9934 14 14.3375C14 13.6817 14.5596 13.15 15.25 13.15C15.9404 13.15 16.5 13.6817 16.5 14.3375ZM2.00049 23.8895C2.00049 21.4699 6.10693 16.95 16.0005 16.95C25.8941 16.95 30.0005 21.4699 30.0004 23.8894V25.2829C29.9995 26.0961 29.659 26.8757 29.0538 27.4507C28.4485 28.0257 27.6279 28.3491 26.7719 28.35H23.3315C22.4674 28.3542 21.6357 28.0379 21.0134 27.4683C20.391 26.8988 20.0273 26.121 19.9995 25.3005L20.0005 23.7326C18.813 22.996 17.4184 22.6185 16.0005 22.65C14.5819 22.6186 13.1869 22.9978 12.0005 23.7373V25.2922C12.0016 26.1008 11.6652 26.8768 11.0649 27.45C10.4646 28.0233 9.64948 28.3469 8.79834 28.35H5.229C4.37303 28.3491 3.5524 28.0257 2.94714 27.4507C2.34188 26.8757 2.00143 26.0961 2.00049 25.2829V23.8895ZM27.6404 26.1079C27.8707 25.8891 28.0002 25.5924 28.0005 25.2829V23.8894C28.0005 22.4551 24.4312 18.85 16.0005 18.85C7.56982 18.85 4.00049 22.4551 4.00049 23.8894V25.2829C4.00074 25.5924 4.13026 25.8891 4.36059 26.1079C4.59093 26.3267 4.90325 26.4498 5.229 26.45H8.79834C9.11926 26.4476 9.42607 26.3243 9.65145 26.1073C9.87683 25.8902 10.0024 25.5971 10.0005 25.2922V23.4506C10.0005 22.1128 13.0289 20.75 16.0005 20.75C18.7017 20.75 22.0005 21.9932 22.0005 23.4451L21.9995 25.3015C22.0249 25.6184 22.1771 25.914 22.4249 26.1276C22.6726 26.3412 22.997 26.4566 23.3315 26.45H26.772C27.0977 26.4498 27.41 26.3267 27.6404 26.1079Z" fill="#0F0F0F"/>
</svg>
