<svg width="32" height="32" viewBox="0 0 32 32" fill="none" xmlns="http://www.w3.org/2000/svg">
<path d="M29.4516 6.53512L29.0439 5.28035C28.9684 5.04744 28.81 4.85036 28.5988 4.72652C28.3876 4.60269 28.1382 4.56073 27.8981 4.6086L27.0086 4.78524L26.2174 4.24105L26.1418 3.39034C26.1196 3.14145 26.0051 2.90986 25.8207 2.74119C25.6364 2.57251 25.3955 2.47896 25.1457 2.47896H23.8262C23.5814 2.47897 23.345 2.56878 23.162 2.73138C22.979 2.89398 22.862 3.11806 22.8332 3.36117L22.7264 4.26168L21.9644 4.84603L21.1319 4.65511C20.8883 4.59914 20.6327 4.63644 20.4152 4.75965C20.1978 4.88287 20.0345 5.08306 19.9573 5.32076L19.5495 6.57552C19.4739 6.80834 19.4862 7.06082 19.5843 7.28512C19.6824 7.50942 19.8593 7.68996 20.0816 7.79252L20.905 8.17252L21.2253 9.07779L20.7866 9.81058C20.6582 10.025 20.6147 10.2796 20.6647 10.5245C20.7147 10.7693 20.8545 10.9866 21.0567 11.1334L22.1241 11.909C22.3222 12.0528 22.5662 12.1191 22.8098 12.0951C23.0535 12.0711 23.2798 11.9586 23.446 11.7788L24.0618 11.1132L25.0218 11.0883L25.583 11.7321C25.7473 11.9204 25.976 12.0404 26.2243 12.0685C26.4726 12.0966 26.7224 12.0308 26.9245 11.8839L27.992 11.1084C28.19 10.9645 28.3284 10.753 28.3809 10.5138C28.4334 10.2747 28.3964 10.0246 28.2768 9.811L27.8339 9.01974L28.1069 8.09909L28.8926 7.76409C29.1225 7.66612 29.3074 7.48564 29.4108 7.25818C29.5143 7.03072 29.5288 6.77277 29.4516 6.53512ZM27.282 7.36361L26.7552 9.14L27.4042 10.2994L26.3367 11.0749L25.4662 10.0765L23.6141 10.1245L22.7119 11.1L21.6445 10.3245L22.3251 9.188L21.7071 7.44129L20.5005 6.8846L20.9083 5.62984L22.1994 5.92584L23.6697 4.7984L23.8262 3.479H25.1456L25.263 4.79846L26.7896 5.84827L28.0928 5.58948L28.5005 6.84424L27.282 7.36361Z" fill="#0F0F0F"/>
<path d="M24.5005 8.35018C25.0528 8.35018 25.5005 7.90246 25.5005 7.35018C25.5005 6.7979 25.0528 6.35018 24.5005 6.35018C23.9483 6.35018 23.5005 6.7979 23.5005 7.35018C23.5005 7.90246 23.9483 8.35018 24.5005 8.35018Z" fill="#0F0F0F"/>
<path d="M23.8614 19.8759C23.2876 19.328 22.5244 19.0225 21.731 19.023C20.9375 19.0236 20.1748 19.3301 19.6017 19.8789C19.6017 19.8789 18.129 21.3759 17.84 21.6845C16.8473 21.7053 15.861 21.5226 14.9416 21.1477C14.0222 20.7729 13.1894 20.2138 12.4943 19.5048C11.0951 18.1034 10.2947 16.2134 10.2618 14.2334C10.6241 13.8691 12.1212 12.3984 12.1241 12.3955C12.4037 12.116 12.6255 11.7842 12.7768 11.419C12.9281 11.0538 13.006 10.6624 13.006 10.267C13.006 9.87175 12.9281 9.48032 12.7768 9.11512C12.6255 8.74992 12.4037 8.4181 12.1241 8.13863L9.37121 5.38472C8.80358 4.81905 8.03488 4.50142 7.23352 4.50142C6.43215 4.50142 5.66345 4.81905 5.09582 5.38472L3.62414 6.8564C1.74132 8.74019 1.38097 15.413 8.98351 23.0156C13.8966 27.9296 18.422 29.5166 21.5167 29.5166C22.8265 29.6107 24.1231 29.2025 25.1427 28.375L26.6144 26.9033C26.8952 26.6227 27.118 26.2895 27.2699 25.9228C27.4219 25.5561 27.5001 25.1631 27.5001 24.7661C27.5001 24.3691 27.4219 23.9761 27.2699 23.6094C27.118 23.2426 26.8952 22.9095 26.6144 22.6289L23.8614 19.8759ZM25.9073 26.1963L24.4357 27.6679C23.0538 29.0468 16.8497 29.4687 9.69054 22.3085C2.53136 15.1494 2.95031 8.94527 4.33117 7.56344L5.80285 6.09176C6.18285 5.71338 6.69726 5.50094 7.23352 5.50094C7.76977 5.50094 8.28419 5.71338 8.66418 6.09176L11.4171 8.84566C11.7936 9.22209 12.0054 9.73254 12.006 10.265C12.0066 10.7974 11.7958 11.3083 11.4201 11.6855C11.4201 11.6855 9.91709 13.1621 9.55382 13.5263C8.97472 14.1054 9.48742 16.0585 9.54797 16.2802C9.9484 17.7597 10.719 19.1127 11.7872 20.2119C12.8871 21.2798 14.2403 22.0507 15.7198 22.4521C15.9396 22.5107 17.8937 23.0254 18.4738 22.4453C18.837 22.082 20.3116 20.583 20.3116 20.583C20.6945 20.2172 21.2036 20.0131 21.733 20.0131C22.2625 20.0131 22.7716 20.2172 23.1544 20.583L25.9073 23.3359C26.2859 23.7156 26.4984 24.2299 26.4984 24.7661C26.4984 25.3022 26.2859 25.8165 25.9073 26.1963Z" fill="#0F0F0F"/>
</svg>
