<svg width="32" height="32" viewBox="0 0 32 32" fill="none" xmlns="http://www.w3.org/2000/svg">
<path d="M29.9271 6.3807L29.5194 5.12594C29.4062 4.77652 29.1686 4.48084 28.8517 4.29505C28.5349 4.10926 28.1608 4.0463 27.8006 4.11812L27.1181 4.25374L26.6945 3.96248L26.6397 3.346C26.6065 2.97268 26.4347 2.62532 26.1582 2.37232C25.8816 2.11932 25.5204 1.979 25.1456 1.979H23.8262C23.4589 1.979 23.1044 2.11372 22.8299 2.35763C22.5554 2.60154 22.3798 2.93769 22.3366 3.30237L22.2546 3.99329L21.8466 4.30615L21.2435 4.16785C20.8781 4.08373 20.4945 4.1396 20.1684 4.32443C19.8422 4.50926 19.5972 4.80963 19.4817 5.16626L19.074 6.421C18.9605 6.77025 18.979 7.14901 19.1261 7.48549C19.2732 7.82198 19.5386 8.09281 19.8721 8.24666L20.504 8.53817L20.6755 9.02291L20.3576 9.55379C20.165 9.87534 20.0998 10.2573 20.1748 10.6246C20.2498 10.9918 20.4596 11.3176 20.7628 11.5379L21.8302 12.3134C22.1273 12.5293 22.4933 12.6287 22.8587 12.5927C23.2242 12.5568 23.5638 12.388 23.8131 12.1184L24.2856 11.6076L24.7995 11.5943L25.2061 12.0606C25.4524 12.3432 25.7955 12.5232 26.168 12.5654C26.5404 12.6075 26.9151 12.5087 27.2184 12.2884L28.2858 11.5129C28.5829 11.2971 28.7905 10.9798 28.8692 10.6211C28.948 10.2624 28.8924 9.88734 28.7131 9.5669L28.3733 8.95973L28.5194 8.46681L29.0887 8.22413C29.4335 8.07716 29.7108 7.80643 29.8659 7.46525C30.0211 7.12407 30.0429 6.73716 29.9271 6.3807ZM27.2819 7.36361L26.7552 9.14L27.4042 10.2994L26.3367 11.0749L25.4662 10.0765L23.6141 10.1245L22.7119 11.1L21.6445 10.3245L22.3251 9.188L21.7071 7.44129L20.5005 6.8846L20.9083 5.62984L22.1994 5.92584L23.6697 4.7984L23.8262 3.479H25.1456L25.263 4.79846L26.7896 5.84827L28.0928 5.58948L28.5005 6.84424L27.2819 7.36361Z" fill="#0F0F0F"/>
<path d="M24.5005 8.60018C25.1909 8.60018 25.7505 8.04054 25.7505 7.35018C25.7505 6.65982 25.1909 6.10018 24.5005 6.10018C23.8102 6.10018 23.2505 6.65982 23.2505 7.35018C23.2505 8.04054 23.8102 8.60018 24.5005 8.60018Z" fill="#0F0F0F"/>
<path d="M24.0382 19.6992C23.417 19.1047 22.5901 18.7732 21.7303 18.7739C20.8704 18.7746 20.0441 19.1075 19.4239 19.7031C19.4239 19.7031 18.1622 20.9853 17.6876 21.4629C15.8023 21.4265 14.0044 20.6614 12.671 19.3281C11.3377 17.9947 10.5726 16.1968 10.5363 14.3115C11.0138 13.8369 12.296 12.5771 12.3009 12.5722C12.6037 12.2695 12.8439 11.9102 13.0078 11.5146C13.1716 11.1191 13.256 10.6952 13.256 10.267C13.256 9.83891 13.1716 9.41497 13.0078 9.01945C12.8439 8.62392 12.6037 8.26455 12.3009 7.96187L9.54797 5.208C8.93347 4.59543 8.10119 4.25146 7.23352 4.25146C6.36585 4.25146 5.53357 4.59543 4.91906 5.208L3.44738 6.67965C1.50309 8.625 1.07922 15.4658 8.80675 23.1923C13.7618 28.1484 18.3517 29.7509 21.5206 29.7509C22.8932 29.8479 24.2513 29.4191 25.3195 28.5517L26.7911 27.08C27.4041 26.4659 27.7484 25.6337 27.7484 24.766C27.7484 23.8984 27.4041 23.0661 26.7911 22.4521L24.0382 19.6992ZM25.7306 26.0195L24.2589 27.4912C22.9288 28.8183 16.9015 29.167 9.8673 22.1318C2.8341 15.0986 3.1798 9.0693 4.50793 7.74019L5.97961 6.26851C6.31274 5.93703 6.76357 5.75094 7.23352 5.75094C7.70347 5.75094 8.1543 5.93703 8.48742 6.26851L11.2404 9.02242C11.5697 9.35165 11.7551 9.79796 11.756 10.2636C11.7569 10.7292 11.5732 11.1763 11.2452 11.5068C11.2452 11.5068 9.74035 12.9853 9.37709 13.3496C8.72963 13.997 9.15931 15.8066 9.30677 16.3457C9.71881 17.8671 10.5117 19.2585 11.6105 20.3887C12.7408 21.4873 14.1321 22.2801 15.6535 22.6924C16.1935 22.8408 18.0021 23.2715 18.6506 22.6221C19.0139 22.2588 20.4885 20.7598 20.4885 20.7598C20.8237 20.4396 21.2695 20.261 21.7331 20.261C22.1967 20.261 22.6424 20.4396 22.9777 20.7598L25.7306 23.5127C26.0627 23.8453 26.2492 24.2961 26.2492 24.7661C26.2491 25.2361 26.0626 25.6869 25.7306 26.0195Z" fill="#0F0F0F"/>
</svg>
