<svg width="32" height="32" viewBox="0 0 32 32" fill="none" xmlns="http://www.w3.org/2000/svg">
<path d="M29.4514 6.53512L29.0437 5.28035C28.9682 5.04744 28.8098 4.85036 28.5986 4.72652C28.3874 4.60269 28.1381 4.56073 27.8979 4.6086L27.0085 4.78524L26.2172 4.24105L26.1416 3.39034C26.1195 3.14145 26.0049 2.90986 25.8206 2.74119C25.6362 2.57251 25.3954 2.47896 25.1455 2.47896H23.826C23.5812 2.47897 23.3449 2.56878 23.1619 2.73138C22.9789 2.89398 22.8619 3.11806 22.833 3.36117L22.7262 4.26168L21.9642 4.84603L21.1317 4.65511C20.8882 4.59914 20.6325 4.63644 20.4151 4.75965C20.1977 4.88287 20.0343 5.08306 19.9572 5.32076L19.5493 6.57552C19.4737 6.80834 19.4861 7.06082 19.5842 7.28512C19.6822 7.50942 19.8592 7.68996 20.0815 7.79252L20.9049 8.17252L21.2252 9.07779L20.7864 9.81058C20.658 10.025 20.6145 10.2796 20.6645 10.5245C20.7145 10.7693 20.8544 10.9866 21.0565 11.1334L22.124 11.909C22.3221 12.0528 22.566 12.1191 22.8097 12.0951C23.0533 12.0711 23.2797 11.9586 23.4459 11.7788L24.0616 11.1132L25.0216 11.0883L25.5829 11.7321C25.7471 11.9204 25.9759 12.0404 26.2242 12.0685C26.4724 12.0966 26.7222 12.0308 26.9244 11.8839L27.9918 11.1084C28.1899 10.9645 28.3283 10.753 28.3808 10.5138C28.4333 10.2747 28.3962 10.0246 28.2766 9.811L27.8338 9.01974L28.1068 8.09909L28.8925 7.76409C29.1223 7.66612 29.3072 7.48564 29.4107 7.25818C29.5141 7.03072 29.5287 6.77277 29.4514 6.53512ZM27.2818 7.36361L26.7551 9.14L27.404 10.2994L26.3366 11.0749L25.4661 10.0765L23.6139 10.1245L22.7118 11.1L21.6443 10.3245L22.3249 9.188L21.7069 7.44129L20.5004 6.8846L20.9082 5.62984L22.1992 5.92584L23.6695 4.7984L23.826 3.479H25.1455L25.2628 4.79846L26.7895 5.84827L28.0927 5.58948L28.5004 6.84424L27.2818 7.36361Z" fill="#0F0F0F"/>
<path d="M24.5004 8.35018C25.0527 8.35018 25.5004 7.90246 25.5004 7.35018C25.5004 6.7979 25.0527 6.35018 24.5004 6.35018C23.9481 6.35018 23.5004 6.7979 23.5004 7.35018C23.5004 7.90246 23.9481 8.35018 24.5004 8.35018Z" fill="#0F0F0F"/>
<path d="M9.45401 22.4541C16.1998 29.1999 22.1336 28.8664 23.8116 27.1884L24.8488 26.1512C25.3598 25.6391 25.6469 24.9453 25.6469 24.2218C25.6469 23.4984 25.3598 22.8045 24.8488 22.2925L22.3249 19.7686C21.8146 19.2626 21.1245 18.9796 20.4059 18.9818C19.6873 18.984 18.9989 19.2712 18.4917 19.7803L17.1817 21.0903C15.5751 20.8734 14.0934 20.1059 12.9895 18.9186C11.8029 17.8153 11.0342 16.3357 10.8136 14.7305L12.1346 13.4109C12.6335 12.8751 12.9036 12.1658 12.8875 11.434C12.8714 10.7021 12.5703 10.0054 12.0484 9.49208L9.61563 7.05933C9.10359 6.54827 8.40971 6.26125 7.68628 6.26125C6.96284 6.26125 6.26895 6.54827 5.75692 7.05933L4.71971 8.09654C3.04168 9.7745 2.70818 15.7082 9.45401 22.4541ZM6.46399 7.7664C6.7884 7.44272 7.22796 7.26093 7.68624 7.26093C8.14451 7.26093 8.58408 7.44272 8.90849 7.7664L11.3412 10.1992C11.6736 10.5262 11.8678 10.9683 11.8838 11.4342C11.8999 11.9002 11.7365 12.3546 11.4275 12.7037L10.0457 14.0841C9.33933 14.7905 10.3157 17.659 12.2824 19.6256C14.249 21.5923 17.1203 22.5659 17.828 21.8581L19.1988 20.4874C19.5183 20.1656 19.9524 19.9837 20.4058 19.9815C20.8593 19.9793 21.2951 20.157 21.6178 20.4757L24.1417 22.9996C24.4654 23.324 24.6471 23.7636 24.6471 24.2218C24.6471 24.6801 24.4653 25.1197 24.1417 25.4441L23.1045 26.4813C21.8967 27.689 16.4567 28.0426 10.1611 21.747C3.86549 15.4514 4.21904 10.0114 5.42679 8.80361L6.46399 7.7664Z" fill="#0F0F0F"/>
</svg>
