<svg width="32" height="31" viewBox="0 0 32 31" fill="none" xmlns="http://www.w3.org/2000/svg">
<path d="M16 2.5C6.10644 2.5 2 7.01992 2 9.43946V10.8329C2.00094 11.6461 2.34139 12.4257 2.94665 13.0007C3.55191 13.5757 4.37255 13.8991 5.22851 13.9H8.79785C9.64899 13.8969 10.4641 13.5733 11.0644 13C11.6647 12.4268 12.0012 11.6508 12 10.8422V9.28727C13.1864 8.5478 14.5814 8.16858 16 8.19996C17.4179 8.16854 18.8125 8.54602 20 9.28263L19.999 10.8505C20.0268 11.671 20.3906 12.4488 21.0129 13.0183C21.6352 13.5879 22.4669 13.9042 23.331 13.9H26.7714C27.6274 13.8991 28.448 13.5757 29.0533 13.0007C29.6586 12.4257 29.999 11.6461 30 10.8329V9.43942C30 7.01988 25.8936 2.5 16 2.5ZM7.44817 15.3851C7.96551 15.5688 8.22818 16.1161 8.03486 16.6076C7.68936 17.4859 7.5 18.4378 7.5 19.4338C7.5 23.8935 11.3056 27.5088 16 27.5088C20.6944 27.5088 24.5 23.8935 24.5 19.4338C24.5 18.4378 24.3106 17.4859 23.9651 16.6076C23.7718 16.1161 24.0345 15.5688 24.5518 15.3851C25.0692 15.2015 25.6453 15.451 25.8386 15.9425C26.2665 17.0304 26.5 18.2073 26.5 19.4338C26.5 24.9428 21.799 29.4088 16 29.4088C10.201 29.4088 5.5 24.9428 5.5 19.4338C5.5 18.2073 5.73348 17.0304 6.16139 15.9425C6.35471 15.451 6.93082 15.2015 7.44817 15.3851ZM17 14.85C17 14.3253 16.5523 13.9 16 13.9C15.4477 13.9 15 14.3253 15 14.85V20.2909C15 20.5429 15.1054 20.7845 15.2929 20.9627L18.0656 23.5968C18.4561 23.9678 19.0893 23.9678 19.4798 23.5968C19.8704 23.2258 19.8704 22.6242 19.4798 22.2532L17 19.8974V14.85Z" fill="#0F0F0F"/>
</svg>
