<svg width="32" height="32" viewBox="0 0 32 32" fill="none" xmlns="http://www.w3.org/2000/svg">
<path d="M21.7378 18.9962C22.5363 18.9957 23.3024 19.3117 23.8683 19.8751L26.6212 22.6291C26.902 22.9096 27.1248 23.2428 27.2768 23.6095C27.4288 23.9762 27.507 24.3693 27.507 24.7663C27.507 25.1632 27.4288 25.5563 27.2768 25.923C27.1248 26.2897 26.902 26.6229 26.6212 26.9035L25.1496 28.3751C24.1302 29.2025 22.8341 29.6107 21.5246 29.5167C18.4289 29.5167 13.9035 27.9288 8.99039 23.0157C1.38785 15.4132 1.74918 8.73938 3.63199 6.85657L5.10365 5.38489C5.67924 4.83488 6.44472 4.52795 7.24085 4.52795C8.03698 4.52795 8.80246 4.83488 9.37806 5.38489L12.131 8.13782C12.4106 8.41729 12.6323 8.7491 12.7836 9.1143C12.9349 9.4795 13.0128 9.87093 13.0128 10.2662C13.0128 10.6615 12.9349 11.053 12.7836 11.4182C12.6323 11.7834 12.4106 12.1152 12.131 12.3946L12.1243 12.4012C12.015 12.5087 10.6161 13.8841 10.2677 14.2325C10.3019 16.2128 11.1024 18.1027 12.5011 19.505C13.1961 20.214 14.029 20.7732 14.9484 21.1481C15.8677 21.523 16.8542 21.7056 17.8468 21.6847C18.1359 21.376 19.6085 19.878 19.6085 19.878C20.1736 19.3139 20.9393 18.9968 21.7378 18.9962ZM24.4425 27.6681L25.9142 26.1964C26.1021 26.0087 26.2512 25.7857 26.3529 25.5403C26.4546 25.2949 26.507 25.0319 26.507 24.7662C26.507 24.5006 26.4546 24.2376 26.3529 23.9922C26.2512 23.7468 26.1021 23.5238 25.9142 23.3361L23.1613 20.5821C22.7839 20.206 22.2727 19.9947 21.7399 19.9947C21.207 19.9947 20.6959 20.206 20.3185 20.5821C20.3185 20.5821 18.8439 22.0821 18.4806 22.4454C17.9005 23.0255 15.9484 22.5118 15.7267 22.4513C14.247 22.0507 12.8937 21.2801 11.7941 20.212C9.49232 17.9103 8.86537 14.2228 9.55969 13.5255C9.92498 13.1612 11.4269 11.6847 11.4269 11.6847C11.8027 11.3075 12.0134 10.7966 12.0129 10.2642C12.0123 9.73173 11.8005 9.22128 11.424 8.84484L8.67102 6.09192C8.48327 5.90399 8.26033 5.75491 8.01493 5.6532C7.76953 5.55149 7.50649 5.49914 7.24085 5.49914C6.97521 5.49914 6.71217 5.55149 6.46677 5.6532C6.22137 5.75491 5.99843 5.90399 5.81068 6.09192L4.33899 7.5636C2.95814 8.94446 2.53821 15.1495 9.69739 22.3087C16.8566 29.4679 23.0626 29.048 24.4425 27.6681ZM20.75 12C21.1642 12 21.5 11.6642 21.5 11.25C21.5 10.8358 21.1642 10.5 20.75 10.5C20.3358 10.5 20 10.8358 20 11.25C20 11.6642 20.3358 12 20.75 12ZM17.5 11.25C17.5 11.6642 17.1642 12 16.75 12C16.3358 12 16 11.6642 16 11.25C16 10.8358 16.3358 10.5 16.75 10.5C17.1642 10.5 17.5 10.8358 17.5 11.25ZM23.8737 6.16782C23.6903 5.96143 23.3742 5.94284 23.1678 6.1263C22.9614 6.30975 22.9428 6.62579 23.1263 6.83218L26.831 11L23.1263 15.1678C22.9428 15.3742 22.9614 15.6902 23.1678 15.8737C23.3742 16.0572 23.6903 16.0386 23.8737 15.8322L27.8737 11.3322C28.0421 11.1427 28.0421 10.8573 27.8737 10.6678L23.8737 6.16782Z" fill="#0F0F0F"/>
</svg>
