<svg width="32" height="32" viewBox="0 0 32 32" fill="none" xmlns="http://www.w3.org/2000/svg">
<path d="M18.5 3.82846C18.5 3.55232 18.7239 3.32846 19 3.32846H25.364C25.6401 3.32846 25.864 3.55232 25.864 3.82846V10.1924C25.864 10.4686 25.6401 10.6924 25.364 10.6924C25.0878 10.6924 24.864 10.4686 24.864 10.1924V5.0356L21.4749 8.42466C21.2796 8.61993 20.963 8.61993 20.7678 8.42466C20.5725 8.2294 20.5725 7.91282 20.7678 7.71756L24.1569 4.32846L19 4.32846C18.7239 4.32846 18.5 4.10461 18.5 3.82846ZM15.5 13.75C15.5 14.1642 15.1642 14.5 14.75 14.5C14.3358 14.5 14 14.1642 14 13.75C14 13.3358 14.3358 13 14.75 13C15.1642 13 15.5 13.3358 15.5 13.75ZM17.75 11.5C18.1642 11.5 18.5 11.1642 18.5 10.75C18.5 10.3358 18.1642 10 17.75 10C17.3358 10 17 10.3358 17 10.75C17 11.1642 17.3358 11.5 17.75 11.5ZM2.50049 24.3047C2.50049 21.9316 6.46049 17.5 16.0005 17.5C25.5405 17.5 29.5005 21.9316 29.5004 24.3046V25.7715C29.4997 26.4949 29.2121 27.1885 28.7005 27.7001C28.189 28.2116 27.4954 28.4993 26.7719 28.5H23.3315C22.5995 28.5061 21.8939 28.2263 21.365 27.7202C20.8361 27.2141 20.5256 26.5216 20.4995 25.79L20.5005 23.9228C19.2095 22.9437 17.6197 22.441 16.0005 22.5C14.3803 22.441 12.7899 22.946 11.5005 23.9287V25.7813C11.5019 26.4999 11.2182 27.1897 10.7116 27.6994C10.205 28.2091 9.51695 28.497 8.79834 28.5H5.229C4.50556 28.4993 3.81196 28.2116 3.30041 27.7001C2.78886 27.1885 2.50118 26.4949 2.50049 25.7715V24.3047ZM27.9937 26.9932C28.3177 26.6691 28.5 26.2298 28.5005 25.7715V24.3046C28.5005 22.5966 24.9038 18.5 16.0005 18.5C7.09717 18.5 3.50049 22.5966 3.50049 24.3046V25.7715C3.501 26.2298 3.68327 26.6691 4.00732 26.9932C4.33137 27.3172 4.77072 27.4995 5.229 27.5H8.79834C9.2518 27.4972 9.68565 27.3147 10.0047 26.9925C10.3238 26.6703 10.5021 26.2347 10.5005 25.7812V23.8427C10.5005 22.8418 13.2193 21.5 16.0005 21.5C18.7818 21.5 21.5005 22.8379 21.5005 23.8369L21.4995 25.79C21.5279 26.2554 21.7337 26.6922 22.0746 27.0103C22.4154 27.3285 22.8653 27.5037 23.3315 27.5H26.772C27.2302 27.4995 27.6696 27.3172 27.9937 26.9932Z" fill="#0F0F0F"/>
</svg>
