<svg width="32" height="31" viewBox="0 0 32 31" fill="none" xmlns="http://www.w3.org/2000/svg">
<path d="M18.25 4.13613C18.25 3.74524 18.5858 3.42835 19 3.42835H25.364C25.7782 3.42835 26.114 3.74524 26.114 4.13613V10.1419C26.114 10.5328 25.7782 10.8496 25.364 10.8496C24.9497 10.8496 24.614 10.5328 24.614 10.1419L24.614 5.84489L21.6517 8.64043C21.3588 8.91684 20.8839 8.91684 20.591 8.64043C20.2981 8.36403 20.2981 7.91588 20.591 7.63948L23.5533 4.84392L19 4.84392C18.5858 4.84392 18.25 4.52703 18.25 4.13613ZM16.0005 16.8022C6.28369 16.8022 2.25049 21.1382 2.25049 23.4597V24.8439C2.2513 25.5892 2.56537 26.3037 3.12377 26.8307C3.68218 27.3576 4.4393 27.654 5.229 27.6548H8.79834C9.58321 27.6519 10.3348 27.3552 10.8882 26.83C11.4417 26.3048 11.7518 25.5939 11.7505 24.8532V23.1979C12.9945 22.3784 14.4838 21.9559 16.0005 21.9925C17.5164 21.9559 19.0053 22.3766 20.2505 23.1933L20.2495 24.8614C20.2764 25.6142 20.6135 26.3273 21.1891 26.849C21.7647 27.3708 22.5334 27.6599 23.3315 27.6548H26.7719C27.5616 27.654 28.3187 27.3576 28.8771 26.8307C29.4356 26.3037 29.7496 25.5892 29.7504 24.8439V23.4597C29.7505 21.1382 25.7173 16.8022 16.0005 16.8022ZM28.2505 24.8439C28.2501 25.2139 28.0942 25.5686 27.817 25.8302C27.5398 26.0917 27.164 26.2389 26.772 26.2392H23.3315C22.9311 26.2442 22.5439 26.1041 22.2496 25.8478C21.9553 25.5915 21.7764 25.2385 21.7495 24.8614L21.7505 23.0182C21.7505 21.8543 18.7408 20.5769 16.0005 20.5769C13.2603 20.5769 10.2505 21.858 10.2505 23.0238V24.8531C10.2523 25.2185 10.1003 25.5697 9.8281 25.8295C9.55586 26.0894 9.18554 26.2367 8.79834 26.2392H5.229C4.83699 26.2389 4.46115 26.0917 4.18397 25.8302C3.90678 25.5686 3.75088 25.2139 3.75049 24.8439V23.4597C3.75049 21.9169 7.2749 18.2177 16.0005 18.2177C24.7261 18.2177 28.2505 21.9169 28.2505 23.4597V24.8439ZM15 14.6788C15.5523 14.6788 16 14.2563 16 13.7351C16 13.2139 15.5523 12.7914 15 12.7914C14.4477 12.7914 14 13.2139 14 13.7351C14 14.2563 14.4477 14.6788 15 14.6788ZM19 10.904C19 11.4252 18.5523 11.8477 18 11.8477C17.4477 11.8477 17 11.4252 17 10.904C17 10.3828 17.4477 9.9603 18 9.9603C18.5523 9.9603 19 10.3828 19 10.904Z" fill="#0F0F0F"/>
</svg>
