<svg width="32" height="32" viewBox="0 0 32 32" fill="none" xmlns="http://www.w3.org/2000/svg">
<path d="M2.5 10.1203C2.5 7.88085 6.46 3.69868 16 3.69868C25.54 3.69868 29.5 7.88082 29.5 10.1203V11.5045C29.4993 12.1873 29.2116 12.8418 28.7 13.3246C28.1885 13.8073 27.4949 14.0788 26.7714 14.0795H23.331C22.599 14.0852 21.8935 13.8212 21.3646 13.3436C20.8356 12.866 20.5251 12.2124 20.499 11.522L20.5 9.75994C19.209 8.83594 17.6192 8.36156 16 8.41718C14.3799 8.36155 12.7894 8.83807 11.5 9.76547V11.5138C11.5014 12.1919 11.2177 12.8429 10.7111 13.3239C10.2045 13.8049 9.51646 14.0766 8.79785 14.0795H5.22851C4.50507 14.0788 3.81147 13.8073 3.29992 13.3246C2.78838 12.8418 2.50069 12.1873 2.5 11.5045V10.1203ZM27.9932 12.6575C28.3172 12.3516 28.4995 11.937 28.5 11.5045V10.1203C28.5 8.50842 24.9033 4.64235 16 4.64235C7.09668 4.64235 3.5 8.50843 3.5 10.1203V11.5045C3.50051 11.937 3.68278 12.3516 4.00683 12.6575C4.33088 12.9633 4.77024 13.1353 5.22851 13.1358H8.79785C9.25131 13.1331 9.68516 12.9609 10.0043 12.6568C10.3233 12.3527 10.5016 11.9417 10.5 11.5137V9.68436C10.5 8.73974 13.2188 7.47347 16.0001 7.47347C18.7813 7.47347 21.5 8.73607 21.5 9.67883L21.4991 11.522C21.5274 11.9612 21.7332 12.3734 22.0741 12.6736C22.4149 12.9739 22.8648 13.1393 23.3311 13.1358H26.7715C27.2298 13.1353 27.6691 12.9633 27.9932 12.6575ZM16 14.5513C16.2761 14.5513 16.5 14.7626 16.5 15.0232V20.2326L19.1263 22.7111C19.3215 22.8953 19.3215 23.1941 19.1263 23.3784C18.931 23.5626 18.6144 23.5626 18.4192 23.3784L15.6464 20.7617C15.5527 20.6732 15.5 20.5532 15.5 20.4281V15.0232C15.5 14.7626 15.7239 14.5513 16 14.5513ZM7.27315 15.9968C7.53182 16.088 7.66316 16.3598 7.56649 16.6039C7.20039 17.5285 7 18.5299 7 19.5766C7 24.2673 11.0294 28.07 16 28.07C20.9706 28.07 25 24.2673 25 19.5766C25 18.5299 24.7996 17.5285 24.4335 16.6039C24.3368 16.3598 24.4682 16.088 24.7269 15.9968C24.9855 15.9055 25.2736 16.0295 25.3702 16.2736C25.7776 17.3022 26 18.4154 26 19.5766C26 24.7885 21.5228 29.0137 16 29.0137C10.4772 29.0137 6 24.7885 6 19.5766C6 18.4154 6.22245 17.3022 6.62976 16.2736C6.72642 16.0295 7.01447 15.9055 7.27315 15.9968Z" fill="#0F0F0F"/>
</svg>
