<svg width="32" height="32" viewBox="0 0 32 32" fill="none" xmlns="http://www.w3.org/2000/svg">
<path d="M27.4994 2.25041C26.9031 2.25105 26.3314 2.4882 25.9098 2.90983C25.4881 3.33146 25.251 3.90313 25.2504 4.49941V10.5004C25.2504 10.7959 25.3086 11.0885 25.4216 11.3614C25.5347 11.6344 25.7004 11.8825 25.9094 12.0914C26.1183 12.3003 26.3663 12.4661 26.6393 12.5791C26.9123 12.6922 27.2049 12.7504 27.5004 12.7504C27.7958 12.7504 28.0884 12.6922 28.3614 12.5791C28.6344 12.4661 28.8824 12.3003 29.0913 12.0914C29.3003 11.8825 29.466 11.6344 29.5791 11.3614C29.6922 11.0885 29.7504 10.7959 29.7504 10.5004V4.49941C29.7494 3.90287 29.5119 3.33106 29.0899 2.90943C28.6679 2.4878 28.0959 2.25079 27.4994 2.25041ZM28.2504 10.5004C28.25 10.6992 28.1708 10.8897 28.0303 11.0303C27.8897 11.1709 27.6992 11.25 27.5004 11.2504C27.3017 11.25 27.1103 11.1708 26.9699 11.0302C26.8294 10.8896 26.7505 10.6991 26.7504 10.5004V4.49941C26.7504 4.3005 26.8294 4.10973 26.97 3.96908C27.1107 3.82843 27.3014 3.74941 27.5004 3.74941C27.6993 3.74941 27.89 3.82843 28.0307 3.96908C28.1713 4.10973 28.2504 4.3005 28.2504 4.49941V10.5004Z" fill="#0F0F0F"/>
<path d="M20.5013 12.7504C21.0978 12.7496 21.6696 12.5123 22.0914 12.0905C22.5132 11.6687 22.7505 11.0969 22.7513 10.5004V4.49941C22.7513 3.90267 22.5143 3.33038 22.0923 2.90842C21.6703 2.48646 21.098 2.24941 20.5013 2.24941C19.9046 2.24941 19.3323 2.48646 18.9103 2.90842C18.4884 3.33038 18.2513 3.90267 18.2513 4.49941V10.5004C18.2521 11.0969 18.4894 11.6687 18.9112 12.0905C19.333 12.5123 19.9048 12.7496 20.5013 12.7504ZM19.7513 4.49941C19.7513 4.3005 19.8303 4.10973 19.971 3.96908C20.1116 3.82843 20.3024 3.74941 20.5013 3.74941C20.7002 3.74941 20.891 3.82843 21.0316 3.96908C21.1723 4.10973 21.2513 4.3005 21.2513 4.49941V10.5004C21.2509 10.6992 21.1718 10.8897 21.0312 11.0303C20.8906 11.1709 20.7001 11.25 20.5013 11.2504C20.3026 11.25 20.1112 11.1708 19.9708 11.0302C19.8304 10.8896 19.7515 10.6991 19.7513 10.5004V4.49941Z" fill="#0F0F0F"/>
<path d="M9.27719 22.6159C16.148 29.4867 22.2489 29.0896 23.9883 27.3502L25.0255 26.313C25.5833 25.754 25.8966 24.9966 25.8966 24.2069C25.8966 23.4172 25.5833 22.6597 25.0255 22.1008L22.5016 19.5769C21.9444 19.0241 21.1907 18.7149 20.4058 18.7171C19.6209 18.7193 18.869 19.0327 18.3149 19.5886L17.0747 20.8288C15.5809 20.5633 14.2113 19.8267 13.1662 18.7268C12.0669 17.6823 11.3293 16.3144 11.0608 14.8219L12.3114 13.5727C12.8564 12.9897 13.1524 12.217 13.1363 11.419C13.1201 10.6211 12.7932 9.86091 12.2251 9.30036L9.79236 6.86761C9.23338 6.30979 8.47594 5.9965 7.68623 5.9965C6.89653 5.9965 6.13908 6.30979 5.5801 6.86761L4.5429 7.90482C2.80341 9.64424 2.40638 15.7451 9.27719 22.6159ZM6.64073 7.92824C6.91819 7.65132 7.29419 7.4958 7.6862 7.4958C8.07821 7.4958 8.4542 7.65132 8.73167 7.92824L11.1644 10.361C11.4513 10.6404 11.6201 11.0192 11.6361 11.4193C11.6522 11.8194 11.5142 12.2105 11.2507 12.512L9.86891 13.8924C8.99677 14.7645 10.1679 17.8498 12.1056 19.7875C14.0432 21.7251 17.1313 22.8935 18.0048 22.02L19.3755 20.6492C19.6481 20.3742 20.0186 20.2186 20.4058 20.2164C20.793 20.2142 21.1653 20.3656 21.4409 20.6375L23.9648 23.1614C24.2418 23.4389 24.3973 23.8149 24.3973 24.2069C24.3973 24.5989 24.2418 24.9749 23.9648 25.2524L22.9276 26.2896C21.7717 27.4455 16.5077 27.7252 10.3378 21.5553C4.1679 15.3853 4.44756 10.1214 5.60352 8.96544L6.64073 7.92824Z" fill="#0F0F0F"/>
</svg>
