<svg width="32" height="32" viewBox="0 0 32 32" fill="none" xmlns="http://www.w3.org/2000/svg">
<path d="M29.9269 6.3807L29.5192 5.12594C29.406 4.77652 29.1684 4.48084 28.8515 4.29505C28.5347 4.10926 28.1606 4.0463 27.8004 4.11812L27.1179 4.25374L26.6944 3.96248L26.6395 3.346C26.6063 2.97268 26.4345 2.62532 26.158 2.37232C25.8815 2.11932 25.5202 1.979 25.1454 1.979H23.826C23.4587 1.979 23.1043 2.11372 22.8297 2.35763C22.5552 2.60154 22.3797 2.93769 22.3364 3.30237L22.2544 3.99329L21.8464 4.30615L21.2433 4.16785C20.8779 4.08373 20.4944 4.1396 20.1682 4.32443C19.8421 4.50926 19.597 4.80963 19.4815 5.16626L19.0738 6.421C18.9603 6.77025 18.9788 7.14901 19.1259 7.48549C19.273 7.82198 19.5385 8.09281 19.8719 8.24666L20.5038 8.53817L20.6753 9.02291L20.3574 9.55379C20.1648 9.87534 20.0996 10.2573 20.1746 10.6246C20.2496 10.9918 20.4594 11.3176 20.7626 11.5379L21.83 12.3134C22.1271 12.5293 22.4931 12.6287 22.8585 12.5927C23.224 12.5568 23.5636 12.388 23.8129 12.1184L24.2854 11.6076L24.7993 11.5943L25.2059 12.0606C25.4522 12.3432 25.7953 12.5232 26.1678 12.5654C26.5402 12.6075 26.9149 12.5087 27.2182 12.2884L28.2856 11.5129C28.5827 11.2971 28.7903 10.9798 28.869 10.6211C28.9478 10.2624 28.8923 9.88734 28.7129 9.5669L28.3731 8.95973L28.5192 8.46681L29.0885 8.22413C29.4333 8.07716 29.7106 7.80643 29.8658 7.46525C30.0209 7.12407 30.0427 6.73716 29.9269 6.3807ZM27.2818 7.36361L26.7551 9.14L27.404 10.2994L26.3365 11.0749L25.4661 10.0765L23.6139 10.1245L22.7117 11.1L21.6443 10.3245L22.3249 9.188L21.7069 7.44129L20.5004 6.8846L20.9081 5.62984L22.1992 5.92584L23.6695 4.7984L23.826 3.479H25.1454L25.2628 4.79846L26.7894 5.84827L28.0926 5.58948L28.5004 6.84424L27.2818 7.36361Z" fill="#0F0F0F"/>
<path d="M24.5004 8.60018C25.1907 8.60018 25.7504 8.04054 25.7504 7.35018C25.7504 6.65982 25.1907 6.10018 24.5004 6.10018C23.81 6.10018 23.2504 6.65982 23.2504 7.35018C23.2504 8.04054 23.81 8.60018 24.5004 8.60018Z" fill="#0F0F0F"/>
<path d="M9.27719 22.6159C16.148 29.4867 22.2489 29.0896 23.9883 27.3502L25.0255 26.313C25.5833 25.754 25.8966 24.9966 25.8966 24.2069C25.8966 23.4172 25.5833 22.6597 25.0255 22.1008L22.5016 19.5769C21.9444 19.0241 21.1907 18.7149 20.4058 18.7171C19.6209 18.7193 18.869 19.0327 18.3149 19.5886L17.0747 20.8288C15.5809 20.5633 14.2113 19.8267 13.1662 18.7268C12.0669 17.6823 11.3293 16.3144 11.0608 14.8219L12.3114 13.5727C12.8564 12.9897 13.1524 12.217 13.1363 11.419C13.1201 10.6211 12.7932 9.86091 12.2251 9.30036L9.79236 6.86761C9.23338 6.30979 8.47594 5.9965 7.68623 5.9965C6.89653 5.9965 6.13908 6.30979 5.5801 6.86761L4.5429 7.90482C2.80341 9.64424 2.40638 15.7451 9.27719 22.6159ZM6.64073 7.92824C6.91819 7.65132 7.29419 7.4958 7.6862 7.4958C8.07821 7.4958 8.4542 7.65133 8.73167 7.92824L11.1644 10.361C11.4513 10.6404 11.6201 11.0192 11.6361 11.4193C11.6522 11.8194 11.5142 12.2105 11.2507 12.512L9.86891 13.8924C8.99676 14.7645 10.1679 17.8498 12.1056 19.7875C14.0432 21.7251 17.1313 22.8935 18.0048 22.02L19.3755 20.6492C19.6481 20.3742 20.0186 20.2186 20.4058 20.2164C20.793 20.2142 21.1653 20.3656 21.4409 20.6375L23.9648 23.1614C24.2418 23.4389 24.3973 23.8149 24.3973 24.2069C24.3973 24.5989 24.2418 24.9749 23.9648 25.2524L22.9276 26.2896C21.7717 27.4455 16.5077 27.7252 10.3378 21.5553C4.1679 15.3853 4.44756 10.1214 5.60352 8.96544L6.64073 7.92824Z" fill="#0F0F0F"/>
</svg>
