<svg width="32" height="32" viewBox="0 0 32 32" fill="none" xmlns="http://www.w3.org/2000/svg">
<path d="M21.7358 18.4624C22.6677 18.4613 23.5618 18.8301 24.2219 19.4878L26.9748 22.2417C27.3021 22.5687 27.5617 22.957 27.7388 23.3844C27.9159 23.8118 28.0071 24.2698 28.0071 24.7325C28.0071 25.1951 27.9159 25.6532 27.7388 26.0805C27.5617 26.5079 27.3021 26.8962 26.9748 27.2232L25.5032 28.6948C24.387 29.6033 22.9671 30.053 21.5315 29.9526C18.2893 29.9526 13.634 28.3335 8.63695 23.3355C0.784414 15.4829 1.27172 8.4751 3.27855 6.46924L4.75023 4.99756C5.42138 4.35724 6.31336 4 7.24096 4C8.16856 4 9.06053 4.35724 9.73168 4.99756L12.4846 7.75049C12.8106 8.07638 13.0692 8.4633 13.2457 8.88916C13.4221 9.31502 13.5129 9.77146 13.5129 10.2324C13.5129 10.6934 13.4221 11.1498 13.2457 11.5757C13.0692 12.0015 12.8106 12.3885 12.4846 12.7144L12.4164 12.7814C12.1577 13.036 11.2291 13.9496 10.7834 14.3911C10.8785 16.1655 11.6145 17.8451 12.8547 19.1177C14.1282 20.3566 15.8073 21.0924 17.5813 21.189C18.0959 20.6704 19.2522 19.4937 19.2522 19.4937C19.9107 18.8344 20.804 18.4635 21.7358 18.4624ZM24.0891 27.2808L25.5608 25.8091C25.7023 25.6677 25.8145 25.4999 25.8911 25.3152C25.9677 25.1305 26.0071 24.9324 26.0071 24.7325C26.0071 24.5325 25.9677 24.3344 25.8911 24.1497C25.8145 23.965 25.7023 23.7971 25.5608 23.6558L22.8079 20.9019C22.5242 20.6195 22.1402 20.461 21.74 20.461C21.3397 20.461 20.9558 20.6195 20.6721 20.9019C20.6721 20.9019 19.1975 22.4019 18.8342 22.7652C18.136 23.4624 16.5051 23.1489 15.595 22.8999C14.0317 22.4759 12.602 21.6609 11.4407 20.5318C9.67406 18.7652 7.90355 14.4458 9.20629 13.1392C9.57152 12.7739 11.0764 11.2944 11.0764 11.2944C11.3571 11.0107 11.514 10.6274 11.5129 10.2283C11.5118 9.82918 11.3528 9.44674 11.0706 9.16455L8.31762 6.41162C8.17629 6.27014 8.00845 6.1579 7.82371 6.08132C7.63897 6.00475 7.44095 5.96533 7.24096 5.96533C7.04098 5.96533 6.84296 6.00475 6.65822 6.08132C6.47348 6.1579 6.30564 6.27014 6.1643 6.41162L4.69262 7.8833C3.41527 9.16065 3.14379 15.0142 10.051 21.9214C16.9573 28.8276 22.8108 28.5562 24.0891 27.2808ZM21.25 12.4662C21.9404 12.4662 22.5 11.9065 22.5 11.2162C22.5 10.5258 21.9404 9.96619 21.25 9.96619C20.5596 9.96619 20 10.5258 20 11.2162C20 11.9065 20.5596 12.4662 21.25 12.4662ZM18.5 11.2162C18.5 11.9065 17.9404 12.4662 17.25 12.4662C16.5596 12.4662 16 11.9065 16 11.2162C16 10.5258 16.5596 9.96619 17.25 9.96619C17.9404 9.96619 18.5 10.5258 18.5 11.2162ZM23.7474 6.30183C23.3805 5.88905 22.7484 5.85187 22.3356 6.21879C21.9229 6.58571 21.8857 7.21778 22.2526 7.63056L25.6621 11.4662L22.2526 15.3018C21.8857 15.7146 21.9229 16.3467 22.3356 16.7136C22.7484 17.0805 23.3805 17.0433 23.7474 16.6306L27.7474 12.1306C28.0842 11.7517 28.0842 11.1807 27.7474 10.8018L23.7474 6.30183Z" fill="#0F0F0F"/>
</svg>
