<svg width="32" height="32" viewBox="0 0 32 32" fill="none" xmlns="http://www.w3.org/2000/svg">
<path d="M19 2.72189C18.4477 2.72189 18 3.14441 18 3.6656C18 4.1868 18.4477 4.60931 19 4.60931H23.5858L20.2929 7.71684C19.9024 8.08538 19.9024 8.68291 20.2929 9.05145C20.6834 9.41999 21.3166 9.41999 21.7071 9.05145L25 5.94392V10.2716C25 10.7928 25.4477 11.2153 26 11.2153C26.5523 11.2153 27 10.7928 27 10.2716V3.6656C27 3.14441 26.5523 2.72189 26 2.72189H19ZM19.5 11.4512C19.5 12.1027 18.9404 12.6308 18.25 12.6308C17.5596 12.6308 17 12.1027 17 11.4512C17 10.7997 17.5596 10.2716 18.25 10.2716C18.9404 10.2716 19.5 10.7997 19.5 11.4512ZM16.5 14.2823C16.5 14.9338 15.9404 15.462 15.25 15.462C14.5596 15.462 14 14.9338 14 14.2823C14 13.6308 14.5596 13.1027 15.25 13.1027C15.9404 13.1027 16.5 13.6308 16.5 14.2823ZM2.00049 23.771C2.00049 21.3675 6.10693 16.8775 16.0005 16.8775C25.8941 16.8775 30.0005 21.3674 30.0004 23.7709V25.1552C29.9995 25.963 29.659 26.7374 29.0538 27.3086C28.4485 27.8798 27.6279 28.2011 26.7719 28.202H23.3315C22.4674 28.2062 21.6357 27.8919 21.0134 27.3261C20.391 26.7604 20.0273 25.9877 19.9995 25.1727L20.0005 23.6152C18.813 22.8835 17.4184 22.5085 16.0005 22.5397C14.5819 22.5085 13.1869 22.8852 12.0005 23.6198V25.1644C12.0016 25.9677 11.6652 26.7385 11.0649 27.308C10.4646 27.8774 9.64948 28.1989 8.79834 28.202H5.229C4.37303 28.2011 3.5524 27.8798 2.94714 27.3086C2.34188 26.7374 2.00143 25.963 2.00049 25.1552V23.771Z" fill="#0F0F0F"/>
</svg>
