<svg width="32" height="32" viewBox="0 0 32 32" fill="none" xmlns="http://www.w3.org/2000/svg">
<path d="M19 2.00003C18.4477 2.00003 18 2.44775 18 3.00003C18 3.55232 18.4477 4.00003 19 4.00003H23.5858L20.2929 7.29292C19.9024 7.68345 19.9024 8.31661 20.2929 8.70714C20.6834 9.09766 21.3166 9.09766 21.7071 8.70714L25 5.41424V10C25 10.5523 25.4477 11 26 11C26.5523 11 27 10.5523 27 10V3.00003C27 2.44775 26.5523 2.00003 26 2.00003H19ZM19.5 11.25C19.5 11.9404 18.9404 12.5 18.25 12.5C17.5596 12.5 17 11.9404 17 11.25C17 10.5597 17.5596 10 18.25 10C18.9404 10 19.5 10.5597 19.5 11.25ZM16.5 14.25C16.5 14.9404 15.9404 15.5 15.25 15.5C14.5596 15.5 14 14.9404 14 14.25C14 13.5597 14.5596 13 15.25 13C15.9404 13 16.5 13.5597 16.5 14.25ZM2.00049 24.3047C2.00049 21.7578 6.10693 17 16.0005 17C25.8941 17 30.0005 21.7578 30.0004 24.3046V25.7715C29.9995 26.6274 29.659 27.4481 29.0538 28.0533C28.4485 28.6586 27.6279 28.999 26.7719 29H23.3315C22.4674 29.0044 21.6357 28.6714 21.0134 28.0719C20.391 27.4724 20.0273 26.6537 19.9995 25.79L20.0005 24.1396C18.813 23.3642 17.4184 22.9669 16.0005 23C14.5819 22.9669 13.1869 23.3661 12.0005 24.1445V25.7812C12.0016 26.6324 11.6652 27.4492 11.0649 28.0526C10.4646 28.6561 9.64948 28.9967 8.79834 29H5.229C4.37303 28.999 3.5524 28.6586 2.94714 28.0533C2.34188 27.4481 2.00143 26.6274 2.00049 25.7715V24.3047Z" fill="#0F0F0F"/>
</svg>
