<svg width="32" height="32" viewBox="0 0 32 32" fill="none" xmlns="http://www.w3.org/2000/svg">
<path d="M4.9043 27.8486H27.083C29.5586 27.8486 30.8281 26.5791 30.8281 24.1416V10.8115C30.8281 8.36133 29.5586 7.0918 27.083 7.0918H23.8584C22.8428 7.0918 22.5508 6.95215 21.9414 6.2666L20.8877 5.08594C20.2275 4.375 19.6436 4.05762 18.374 4.05762H13.4229C12.1533 4.05762 11.5693 4.375 10.9092 5.08594L9.85547 6.2666C9.25879 6.93945 8.9541 7.0918 7.93848 7.0918H4.9043C2.42871 7.0918 1.15918 8.36133 1.15918 10.8115V24.1416C1.15918 26.5791 2.42871 27.8486 4.9043 27.8486ZM15.9873 24.002C12.1279 24.002 9.01758 20.9043 9.01758 17.0195C9.01758 13.1221 12.1279 10.0244 15.9873 10.0244C19.8721 10.0244 22.9697 13.1221 22.9697 17.0195C22.9697 20.9043 19.8594 24.002 15.9873 24.002ZM25.1152 13.8076C24.3281 13.8076 23.6807 13.1729 23.6807 12.373C23.6807 11.5732 24.3281 10.9385 25.1152 10.9385C25.9023 10.9385 26.5498 11.5732 26.5498 12.373C26.5498 13.1729 25.9023 13.8076 25.1152 13.8076ZM15.9873 22.4912C19.0088 22.4912 21.459 20.0537 21.459 17.0195C21.459 13.9727 19.0088 11.5352 15.9873 11.5352C12.9658 11.5352 10.5283 13.9727 10.5283 17.0195C10.5283 20.0537 12.9785 22.4912 15.9873 22.4912Z" fill="black"/>
</svg>
