<svg width="32" height="32" viewBox="0 0 32 32" fill="none" xmlns="http://www.w3.org/2000/svg">
<path d="M19.0023 25.2507H7.00232C6.14067 25.2497 5.3146 24.9069 4.70532 24.2976C4.09605 23.6884 3.75332 22.8623 3.75232 22.0007V10.0007C3.75434 9.18471 4.0653 8.39981 4.62262 7.80387L3.56244 6.74357C2.72346 7.6206 2.25431 8.78695 2.25232 10.0007V22.0007C2.25375 23.26 2.75465 24.4673 3.64514 25.3578C4.53563 26.2483 5.74298 26.7492 7.00232 26.7507H19.0023C20.216 26.7486 21.3823 26.2795 22.2593 25.4406L21.1991 24.3803C20.6032 24.9376 19.8183 25.2486 19.0023 25.2507Z" fill="#0F0F0F"/>
<path d="M28.9203 9.51139C28.655 9.34942 28.3516 9.2605 28.0408 9.25364C27.73 9.24678 27.423 9.32223 27.1508 9.47233L23.7523 11.6337V10.0007C23.7509 8.74131 23.25 7.53396 22.3595 6.64347C21.469 5.75298 20.2617 5.25208 19.0023 5.25065H7.00232C6.78761 5.25151 6.57325 5.26808 6.36096 5.30021L4.53015 3.4694C4.46051 3.39976 4.37784 3.34453 4.28685 3.30684C4.19586 3.26916 4.09834 3.24976 3.99986 3.24976C3.90138 3.24977 3.80386 3.26917 3.71287 3.30686C3.62189 3.34455 3.53922 3.39979 3.46958 3.46943C3.39994 3.53907 3.34471 3.62174 3.30702 3.71273C3.26934 3.80372 3.24994 3.90124 3.24994 3.99972C3.24995 4.0982 3.26935 4.19572 3.30704 4.28671C3.34473 4.37769 3.39997 4.46036 3.46961 4.53L27.4701 28.53C27.5397 28.5996 27.6224 28.6549 27.7134 28.6926C27.8044 28.7302 27.9019 28.7496 28.0004 28.7496C28.0989 28.7496 28.1964 28.7302 28.2874 28.6925C28.3784 28.6549 28.461 28.5996 28.5307 28.53C28.6003 28.4603 28.6555 28.3777 28.6932 28.2867C28.7309 28.1957 28.7503 28.0982 28.7503 27.9997C28.7503 27.9012 28.7309 27.8037 28.6932 27.7127C28.6555 27.6217 28.6003 27.539 28.5306 27.4694L23.7028 22.6418C23.7349 22.4295 23.7514 22.2153 23.7523 22.0007V20.3661L27.2172 22.5651C27.4839 22.6985 27.7804 22.7615 28.0783 22.7481C28.3763 22.7347 28.6659 22.6455 28.9197 22.4887C29.1734 22.332 29.3829 22.1131 29.5283 21.8526C29.6737 21.5922 29.7501 21.2989 29.7504 21.0007V10.9997C29.7513 10.7012 29.6754 10.4076 29.53 10.1469C29.3847 9.88629 29.1747 9.66743 28.9203 9.51139ZM7.81146 6.75065H19.0023C19.864 6.75165 20.69 7.09438 21.2993 7.70365C21.9086 8.31293 22.2513 9.139 22.2523 10.0007V21.1912L7.81146 6.75065ZM28.2504 21.0007C28.2511 21.0432 28.2405 21.0853 28.2197 21.1225C28.199 21.1597 28.1688 21.1908 28.1322 21.2126C28.0873 21.2399 27.9935 21.279 27.9554 21.2614L23.7523 18.59V13.4108L27.8881 10.776C27.9262 10.7572 27.9686 10.7484 28.0111 10.7504C28.0536 10.7525 28.0948 10.7653 28.1311 10.7876C28.1673 10.81 28.1972 10.8411 28.2181 10.8782C28.2389 10.9153 28.2501 10.9571 28.2504 10.9996V21.0007Z" fill="#0F0F0F"/>
</svg>
