<svg width="32" height="32" viewBox="0 0 32 32" fill="none" xmlns="http://www.w3.org/2000/svg">
<path d="M29.0492 9.29753C28.7596 9.11731 28.4285 9.01472 28.0878 8.99967C27.7471 8.98462 27.4082 9.0576 27.1039 9.21159C27.0735 9.22628 27.0442 9.24291 27.016 9.26139L24.0013 11.1776V9.99965C23.9998 8.67405 23.4725 7.40318 22.5352 6.46584C21.5978 5.52849 20.3269 5.00121 19.0013 4.99965H7.00134C5.67574 5.00121 4.40487 5.52849 3.46753 6.46584C2.53019 7.40318 2.0029 8.67405 2.00134 9.99965V21.9996C2.0029 23.3253 2.53019 24.5961 3.46753 25.5335C4.40487 26.4708 5.67574 26.9981 7.00134 26.9996H19.0013C20.3269 26.9981 21.5978 26.4708 22.5352 25.5335C23.4725 24.5961 23.9998 23.3253 24.0013 21.9996V20.8216L27.016 22.738C27.0447 22.7564 27.0744 22.7734 27.1049 22.7888C27.4098 22.9411 27.7485 23.013 28.089 22.9976C28.4295 22.9822 28.7604 22.88 29.0503 22.7008C29.3402 22.5215 29.5795 22.2712 29.7454 21.9735C29.9114 21.6757 29.9984 21.3405 29.9984 20.9997V10.9997C29.9999 10.6583 29.9133 10.3223 29.7471 10.0241C29.5808 9.72596 29.3404 9.4757 29.0492 9.29753ZM22.0013 21.9997C22.0005 22.7951 21.6841 23.5576 21.1217 24.12C20.5593 24.6825 19.7967 24.9988 19.0013 24.9997H7.00134C6.20596 24.9988 5.4434 24.6825 4.88098 24.12C4.31856 23.5576 4.00221 22.7951 4.00134 21.9997V9.99967C4.00221 9.20429 4.31856 8.44173 4.88098 7.87931C5.4434 7.31689 6.20596 7.00054 7.00134 6.99967H19.0013C19.7967 7.00054 20.5593 7.31689 21.1217 7.87931C21.6841 8.44173 22.0005 9.20429 22.0013 9.99967V21.9997ZM24.0013 18.4526V13.5468L27.9984 11.0065L27.9994 20.9938L24.0013 18.4526Z" fill="#0F0F0F"/>
<path d="M13.0053 10.9997C12.0163 10.9997 11.0496 11.2929 10.2274 11.8423C9.40516 12.3917 8.76429 13.1726 8.38585 14.0863C8.00742 14.9999 7.9084 16.0052 8.10133 16.9751C8.29425 17.945 8.77046 18.8359 9.46972 19.5352C10.169 20.2345 11.0599 20.7107 12.0298 20.9036C12.9997 21.0965 14.005 20.9975 14.9187 20.6191C15.8323 20.2406 16.6132 19.5998 17.1626 18.7775C17.712 17.9553 18.0053 16.9886 18.0053 15.9997C18.0037 14.6741 17.4764 13.4032 16.5391 12.4659C15.6017 11.5285 14.3309 11.0012 13.0053 10.9997ZM13.0053 18.9997C12.4119 18.9997 11.8319 18.8237 11.3385 18.4941C10.8452 18.1644 10.4607 17.6959 10.2336 17.1477C10.0066 16.5995 9.94714 15.9963 10.0629 15.4144C10.1787 14.8325 10.4644 14.2979 10.8839 13.8783C11.3035 13.4588 11.838 13.1731 12.42 13.0573C13.0019 12.9416 13.6051 13.001 14.1533 13.228C14.7015 13.4551 15.17 13.8396 15.4997 14.333C15.8293 14.8263 16.0053 15.4063 16.0053 15.9997C16.0044 16.7951 15.688 17.5576 15.1256 18.12C14.5632 18.6825 13.8006 18.9988 13.0053 18.9997Z" fill="#0F0F0F"/>
</svg>
