<svg width="32" height="32" viewBox="0 0 32 32" fill="none" xmlns="http://www.w3.org/2000/svg">
<path d="M28.7866 9.72233C28.5614 9.58492 28.3041 9.509 28.0404 9.50215C27.7766 9.49529 27.5157 9.55775 27.2837 9.68327L23.5015 12.0873V9.99967C23.5002 8.8066 23.0256 7.66276 22.182 6.81913C21.3384 5.9755 20.1945 5.50097 19.0015 5.49967H7.00146C5.80839 5.50097 4.66456 5.9755 3.82093 6.81913C2.97729 7.66276 2.50277 8.8066 2.50146 9.99967V21.9997C2.50277 23.1927 2.97729 24.3366 3.82092 25.1802C4.66455 26.0238 5.80839 26.4984 7.00146 26.4997H19.0015C20.1945 26.4984 21.3384 26.0238 22.182 25.1802C23.0256 24.3366 23.5002 23.1927 23.5015 21.9997V19.9114L27.3286 22.3415C27.5573 22.4557 27.8113 22.5096 28.0667 22.4981C28.322 22.4865 28.5702 22.4099 28.7876 22.2754C29.005 22.141 29.1844 21.9532 29.3089 21.7299C29.4333 21.5067 29.4986 21.2553 29.4985 20.9997V10.9997C29.4994 10.7436 29.4344 10.4916 29.3097 10.2679C29.185 10.0442 29.0049 9.85629 28.7866 9.72233ZM22.5015 21.9997C22.5003 22.9276 22.1312 23.8172 21.4751 24.4733C20.819 25.1294 19.9294 25.4985 19.0015 25.4997H7.00146C6.07355 25.4985 5.18397 25.1294 4.52783 24.4733C3.8717 23.8172 3.50259 22.9276 3.50146 21.9997V9.99967C3.50259 9.07176 3.8717 8.18217 4.52784 7.52604C5.18397 6.86991 6.07355 6.5008 7.00146 6.49967H19.0015C19.9294 6.50079 20.819 6.8699 21.4751 7.52604C22.1312 8.18217 22.5003 9.07176 22.5015 9.99967V21.9997ZM28.4985 20.9997C28.4993 21.085 28.4778 21.169 28.4362 21.2435C28.3946 21.318 28.3343 21.3804 28.2612 21.4245C28.1973 21.4677 28.1237 21.4946 28.0469 21.503C27.9702 21.5113 27.8926 21.5008 27.8208 21.4723L23.5015 18.7267V13.2724L27.7769 10.5524C27.853 10.5144 27.9376 10.4964 28.0226 10.5003C28.1076 10.5042 28.1902 10.5298 28.2625 10.5746C28.3348 10.6195 28.3945 10.682 28.4358 10.7564C28.4771 10.8308 28.4987 10.9145 28.4985 10.9996V20.9997Z" fill="#0F0F0F"/>
<path d="M13.0054 11.4997C12.1154 11.4997 11.2453 11.7636 10.5053 12.2581C9.76529 12.7525 9.18851 13.4553 8.84792 14.2776C8.50732 15.0999 8.41821 16.0047 8.59184 16.8776C8.76547 17.7505 9.19406 18.5523 9.82339 19.1817C10.4527 19.811 11.2546 20.2396 12.1275 20.4132C13.0004 20.5868 13.9052 20.4977 14.7274 20.1571C15.5497 19.8165 16.2525 19.2398 16.747 18.4997C17.2415 17.7597 17.5054 16.8897 17.5054 15.9997C17.5041 14.8066 17.0295 13.6628 16.1859 12.8191C15.3423 11.9755 14.1984 11.501 13.0054 11.4997ZM13.0054 19.4997C12.3131 19.4997 11.6365 19.2944 11.0609 18.9098C10.4853 18.5252 10.0367 17.9786 9.7718 17.3391C9.50689 16.6995 9.43758 15.9958 9.57263 15.3169C9.70767 14.6379 10.041 14.0143 10.5305 13.5248C11.02 13.0353 11.6436 12.702 12.3226 12.5669C13.0015 12.4319 13.7052 12.5012 14.3448 12.7661C14.9843 13.031 15.5309 13.4796 15.9155 14.0552C16.3001 14.6307 16.5054 15.3074 16.5054 15.9997C16.5043 16.9276 16.1351 17.8172 15.479 18.4733C14.8229 19.1294 13.9333 19.4985 13.0054 19.4997Z" fill="#0F0F0F"/>
</svg>
