<svg width="32" height="32" viewBox="0 0 32 32" fill="none" xmlns="http://www.w3.org/2000/svg">
<path d="M28.9203 9.51139C28.6549 9.34943 28.3514 9.26051 28.0406 9.25365C27.7297 9.24679 27.4226 9.32224 27.1503 9.47233L23.7523 11.6335V10.0006C23.7509 8.74131 23.25 7.53396 22.3595 6.64347C21.469 5.75298 20.2617 5.25208 19.0023 5.25065H7.00232C5.74298 5.25208 4.53563 5.75298 3.64514 6.64347C2.75465 7.53396 2.25375 8.74131 2.25232 10.0006V22.0006C2.25375 23.26 2.75465 24.4673 3.64514 25.3578C4.53563 26.2483 5.74298 26.7492 7.00232 26.7506H19.0023C20.2617 26.7492 21.469 26.2483 22.3595 25.3578C23.25 24.4673 23.7509 23.26 23.7523 22.0006V20.3664L27.2167 22.5651C27.4834 22.6986 27.7799 22.7617 28.0779 22.7484C28.376 22.7352 28.6656 22.6459 28.9195 22.4891C29.1733 22.3324 29.3828 22.1134 29.5281 21.8528C29.6735 21.5923 29.7498 21.299 29.7499 21.0006V10.9996C29.7509 10.7013 29.6751 10.4076 29.5298 10.147C29.3845 9.88633 29.1746 9.66745 28.9203 9.51139ZM22.2523 22.0006C22.2513 22.8623 21.9086 23.6884 21.2993 24.2976C20.69 24.9069 19.864 25.2497 19.0023 25.2506H7.00232C6.14067 25.2497 5.3146 24.9069 4.70532 24.2976C4.09605 23.6884 3.75332 22.8623 3.75232 22.0006V10.0006C3.75332 9.139 4.09605 8.31293 4.70532 7.70365C5.3146 7.09438 6.14067 6.75165 7.00232 6.75065H19.0023C19.864 6.75165 20.69 7.09438 21.2993 7.70365C21.9086 8.31293 22.2513 9.139 22.2523 10.0006V22.0006ZM28.2499 21.0006C28.2506 21.0432 28.24 21.0853 28.2192 21.1225C28.1985 21.1597 28.1683 21.1908 28.1317 21.2126C28.0873 21.2409 27.995 21.279 27.955 21.2614L23.7523 18.5904V13.4104L27.8876 10.776C27.9257 10.7566 27.9681 10.7474 28.0108 10.7493C28.0535 10.7512 28.095 10.7641 28.1312 10.7868C28.168 10.8087 28.1983 10.8399 28.2191 10.8773C28.24 10.9147 28.2506 10.9569 28.2499 10.9997V21.0006Z" fill="#0F0F0F"/>
</svg>
