<svg width="33" height="32" viewBox="0 0 33 32" fill="none" xmlns="http://www.w3.org/2000/svg">
<path d="M5.50098 26.6045H19.3516C21.9414 26.6045 23.4395 25.1445 23.4395 22.5547V10.126C23.4395 7.53613 22.0303 6.07617 19.4277 6.07617H5.50098C2.9873 6.07617 1.41309 7.53613 1.41309 10.126V22.5547C1.41309 25.1445 2.91113 26.6045 5.50098 26.6045ZM24.9248 20.0791L29.5078 23.9385C29.9521 24.3193 30.4219 24.5479 30.8916 24.5479C31.7803 24.5479 32.3643 23.9004 32.3643 22.9102V9.77051C32.3643 8.78027 31.7803 8.13281 30.8916 8.13281C30.4219 8.13281 29.9521 8.36133 29.5078 8.74219L24.9248 12.5889V20.0791Z" fill="black"/>
</svg>
