<svg width="32" height="32" viewBox="0 0 32 32" fill="none" xmlns="http://www.w3.org/2000/svg">
<path d="M19.0023 25.5007H7.00232C6.07441 25.4995 5.18482 25.1304 4.52869 24.4743C3.87255 23.8182 3.50344 22.9286 3.50232 22.0007V10.0007C3.50302 9.43627 3.64038 8.88045 3.90266 8.38071C4.16494 7.88097 4.54434 7.45218 5.00842 7.131L4.30151 6.42421C3.74484 6.84001 3.2925 7.37959 2.98024 8.00029C2.66798 8.62099 2.50437 9.30581 2.50232 10.0006V22.0006C2.50362 23.1937 2.97814 24.3375 3.82177 25.1812C4.66541 26.0248 5.80924 26.4993 7.00232 26.5006H19.0023C19.6972 26.4986 20.382 26.335 21.0028 26.0227C21.6235 25.7104 22.1631 25.258 22.5789 24.7013L21.872 23.9943C21.5509 24.4585 21.1221 24.8379 20.6223 25.1003C20.1226 25.3626 19.5667 25.5 19.0023 25.5007Z" fill="#0F0F0F"/>
<path d="M28.7884 9.72428C28.5634 9.58612 28.306 9.5096 28.042 9.5024C27.778 9.4952 27.5168 9.55758 27.2845 9.68328L23.5023 12.0888V10.0007C23.501 8.80758 23.0265 7.66374 22.1829 6.82011C21.3392 5.97648 20.1954 5.50195 19.0023 5.50065H7.00232C6.76178 5.50662 6.52217 5.53275 6.28601 5.57878L4.35339 3.64616C4.25931 3.55397 4.13265 3.50262 4.00094 3.50329C3.86922 3.50395 3.74308 3.55657 3.64994 3.64971C3.5568 3.74285 3.50418 3.86899 3.50352 4.00071C3.50285 4.13242 3.55419 4.25908 3.64639 4.35316L27.6469 28.3532C27.741 28.4454 27.8676 28.4967 27.9993 28.496C28.1311 28.4954 28.2572 28.4427 28.3503 28.3496C28.4435 28.2565 28.4961 28.1303 28.4968 27.9986C28.4974 27.8669 28.4461 27.7402 28.3539 27.6462L23.4243 22.7167C23.4703 22.4806 23.4964 22.2411 23.5023 22.0007V19.9118L27.3285 22.3415C27.5374 22.4462 27.7677 22.501 28.0013 22.5016C28.3988 22.5002 28.7796 22.3416 29.0605 22.0603C29.3413 21.7791 29.4995 21.3981 29.5003 21.0006V10.9996C29.5013 10.7438 29.4363 10.492 29.3116 10.2686C29.1869 10.0452 29.0067 9.85776 28.7884 9.72428ZM22.5023 21.7947L7.20794 6.50065H19.0023C19.9302 6.50177 20.8198 6.87088 21.476 7.52702C22.1321 8.18315 22.5012 9.07274 22.5023 10.0007V21.7947ZM28.5004 21.0007C28.4997 21.0816 28.4797 21.1613 28.4419 21.2329C28.4041 21.3045 28.3496 21.366 28.2831 21.4122C28.2167 21.4585 28.14 21.488 28.0597 21.4985C27.9794 21.5089 27.8978 21.5 27.8217 21.4723L23.5023 18.7271V13.2738L27.7767 10.5524C27.853 10.5145 27.9377 10.4966 28.0227 10.5005C28.1078 10.5045 28.1905 10.53 28.2629 10.5748C28.3354 10.6196 28.3952 10.6821 28.4368 10.7564C28.4783 10.8308 28.5002 10.9145 28.5004 10.9997V21.0007Z" fill="#0F0F0F"/>
</svg>
