<svg width="32" height="32" viewBox="0 0 32 32" fill="none" xmlns="http://www.w3.org/2000/svg">
<path d="M21.0008 15.9997C21.0008 15.0108 20.7076 14.0441 20.1582 13.2218C19.6088 12.3996 18.8279 11.7587 17.9143 11.3803C17.0006 11.0018 15.9953 10.9028 15.0254 11.0957C14.0555 11.2887 13.1646 11.7649 12.4653 12.4641C11.766 13.1634 11.2898 14.0543 11.0969 15.0242C10.904 15.9941 11.003 16.9995 11.3814 17.9131C11.7599 18.8267 12.4007 19.6076 13.223 20.157C14.0452 20.7064 15.0119 20.9997 16.0008 20.9997C17.3264 20.9981 18.5973 20.4708 19.5347 19.5335C20.472 18.5961 20.9993 17.3253 21.0008 15.9997ZM13.0008 15.9997C13.0008 15.4063 13.1768 14.8263 13.5064 14.333C13.8361 13.8396 14.3046 13.4551 14.8528 13.228C15.401 13.001 16.0042 12.9416 16.5861 13.0573C17.1681 13.1731 17.7026 13.4588 18.1222 13.8784C18.5417 14.2979 18.8274 14.8325 18.9432 15.4144C19.059 15.9963 18.9995 16.5995 18.7725 17.1477C18.5454 17.6959 18.1609 18.1644 17.6676 18.4941C17.1742 18.8237 16.5942 18.9997 16.0008 18.9997C15.2055 18.9988 14.4429 18.6825 13.8805 18.12C13.3181 17.5576 13.0017 16.7951 13.0008 15.9997Z" fill="#0F0F0F"/>
<path d="M27.0008 18.9997C26.8695 18.9996 26.7394 19.0254 26.6181 19.0756C26.4967 19.1259 26.3864 19.1995 26.2936 19.2924C26.2007 19.3853 26.127 19.4955 26.0768 19.6169C26.0266 19.7383 26.0008 19.8683 26.0008 19.9997V22.9997C26 23.7951 25.6836 24.5576 25.1212 25.12C24.5588 25.6825 23.7962 25.9988 23.0008 25.9997H9.00084C8.20546 25.9988 7.4429 25.6825 6.88048 25.12C6.31806 24.5576 6.00171 23.7951 6.00084 22.9997V18.4137L8.29384 20.7067C8.38669 20.7996 8.49692 20.8732 8.61823 20.9235C8.73954 20.9737 8.86957 20.9996 9.00087 20.9996C9.13218 20.9996 9.2622 20.9737 9.38352 20.9235C9.50483 20.8732 9.61506 20.7996 9.70791 20.7067C9.80075 20.6139 9.87441 20.5037 9.92465 20.3823C9.9749 20.261 10.0008 20.131 10.0008 19.9997C10.0008 19.8684 9.9749 19.7384 9.92465 19.6171C9.8744 19.4957 9.80075 19.3855 9.7079 19.2927L5.7079 15.2927C5.61507 15.1998 5.50485 15.1261 5.38353 15.0758C5.26222 15.0256 5.13219 14.9997 5.00087 14.9997C4.86955 14.9997 4.73952 15.0256 4.61821 15.0758C4.4969 15.1261 4.38667 15.1998 4.29384 15.2927L0.293841 19.2927C0.106324 19.4802 0.000977496 19.7345 0.000976563 19.9997C0.000975629 20.2649 0.106321 20.5192 0.293837 20.7067C0.481353 20.8943 0.735679 20.9996 1.00087 20.9996C1.26606 20.9996 1.52038 20.8943 1.7079 20.7067L4.0009 18.4137V22.9997C4.00246 24.3253 4.52974 25.5961 5.46709 26.5335C6.40443 27.4708 7.6753 27.9981 9.0009 27.9997H23.0009C24.3265 27.9981 25.5974 27.4708 26.5347 26.5335C27.4721 25.5961 27.9993 24.3253 28.0009 22.9997V19.9997C28.001 19.8683 27.9752 19.7383 27.9249 19.6169C27.8747 19.4955 27.801 19.3853 27.7082 19.2924C27.6153 19.1995 27.505 19.1258 27.3836 19.0756C27.2623 19.0254 27.1322 18.9996 27.0008 18.9997Z" fill="#0F0F0F"/>
<path d="M31.7069 11.2926C31.6141 11.1998 31.5038 11.1261 31.3825 11.0758C31.2612 11.0255 31.1312 10.9997 30.9999 10.9997C30.8685 10.9997 30.7385 11.0255 30.6172 11.0758C30.4959 11.1261 30.3857 11.1998 30.2928 11.2926L27.9998 13.5856V8.9987C27.9983 7.6731 27.471 6.40223 26.5336 5.46488C25.5963 4.52754 24.3254 4.00026 22.9998 3.9987H8.99983C7.67423 4.00026 6.40336 4.52755 5.46602 5.46489C4.52868 6.40224 4.00139 7.6731 3.99983 8.9987V11.9997C3.99983 12.2649 4.10519 12.5193 4.29272 12.7068C4.48026 12.8943 4.73462 12.9997 4.99983 12.9997C5.26505 12.9997 5.5194 12.8943 5.70694 12.7068C5.89447 12.5193 5.99983 12.2649 5.99983 11.9997V8.9987C6.0007 8.20332 6.31705 7.44076 6.87947 6.87834C7.44189 6.31592 8.20445 5.99957 8.99983 5.9987H22.9998C23.7952 5.99957 24.5578 6.31592 25.1202 6.87834C25.6826 7.44076 25.999 8.20332 25.9998 8.9987V13.5856L23.7068 11.2926C23.614 11.1998 23.5038 11.1261 23.3824 11.0759C23.2611 11.0256 23.1311 10.9998 22.9998 10.9998C22.8685 10.9998 22.7385 11.0256 22.6172 11.0759C22.4958 11.1261 22.3856 11.1998 22.2928 11.2926C22.1999 11.3855 22.1263 11.4957 22.076 11.617C22.0258 11.7383 21.9999 11.8683 21.9999 11.9997C21.9999 12.131 22.0258 12.261 22.076 12.3823C22.1263 12.5036 22.1999 12.6138 22.2928 12.7067L26.2928 16.7067C26.3856 16.7996 26.4958 16.8732 26.6171 16.9235C26.7385 16.9738 26.8685 16.9996 26.9998 16.9996C27.1311 16.9996 27.2611 16.9738 27.3825 16.9235C27.5038 16.8732 27.614 16.7996 27.7068 16.7067L31.7068 12.7067C31.7997 12.6139 31.8734 12.5036 31.9237 12.3823C31.9739 12.261 31.9998 12.131 31.9998 11.9997C31.9998 11.8684 31.974 11.7383 31.9237 11.617C31.8734 11.4957 31.7998 11.3855 31.7069 11.2926Z" fill="#0F0F0F"/>
</svg>
