<svg width="32" height="32" viewBox="0 0 32 32" fill="none" xmlns="http://www.w3.org/2000/svg">
<path d="M28.7889 9.72428C28.5638 9.58589 28.3062 9.50924 28.042 9.50205C27.7778 9.49485 27.5164 9.55736 27.2841 9.68328L23.5023 12.0884V10.0007C23.501 8.80758 23.0265 7.66374 22.1829 6.82011C21.3392 5.97648 20.1954 5.50195 19.0023 5.50065H7.00232C5.80924 5.50195 4.66541 5.97648 3.82178 6.82011C2.97815 7.66374 2.50362 8.80758 2.50232 10.0007V22.0006C2.50362 23.1937 2.97814 24.3376 3.82177 25.1812C4.66541 26.0248 5.80924 26.4994 7.00232 26.5006H19.0023C20.1954 26.4994 21.3392 26.0248 22.1829 25.1812C23.0265 24.3376 23.501 23.1937 23.5023 22.0006V19.9118L27.3289 22.3415C27.5376 22.4463 27.7678 22.5011 28.0013 22.5016C28.3988 22.5003 28.7795 22.3416 29.0603 22.0604C29.3411 21.7791 29.4992 21.3981 29.4998 21.0006V10.9996C29.5008 10.7439 29.4358 10.4923 29.3113 10.2689C29.1868 10.0455 29.0069 9.85798 28.7889 9.72428ZM22.5023 22.0006C22.5012 22.9286 22.1321 23.8182 21.476 24.4743C20.8198 25.1304 19.9302 25.4995 19.0023 25.5006H7.00232C6.07441 25.4995 5.18482 25.1304 4.52869 24.4743C3.87255 23.8182 3.50344 22.9286 3.50232 22.0006V10.0007C3.50344 9.07274 3.87255 8.18315 4.52869 7.52702C5.18482 6.87088 6.07441 6.50177 7.00232 6.50065H19.0023C19.9302 6.50177 20.8198 6.87088 21.476 7.52702C22.1321 8.18315 22.5012 9.07274 22.5023 10.0007V22.0006ZM28.4999 21.0006C28.4993 21.0817 28.4793 21.1614 28.4414 21.2331C28.4036 21.3048 28.3491 21.3663 28.2826 21.4126C28.216 21.4588 28.1393 21.4884 28.0589 21.4988C27.9785 21.5092 27.8968 21.5001 27.8207 21.4723L23.5023 18.7277V13.2736L27.7758 10.5524C27.852 10.5143 27.9368 10.4964 28.0219 10.5002C28.1071 10.5041 28.1898 10.5296 28.2623 10.5744C28.3349 10.6192 28.3948 10.6818 28.4363 10.7562C28.4779 10.8306 28.4998 10.9144 28.4999 10.9997V21.0006Z" fill="#0F0F0F"/>
</svg>
