<svg width="33" height="32" viewBox="0 0 33 32" fill="none" xmlns="http://www.w3.org/2000/svg">
<path d="M5.99609 26.7061H19.5928C22.5508 26.7061 24.2773 25.0176 24.2773 22.0596V19.8506L29.3174 24.0273C29.7998 24.4209 30.3076 24.6875 30.8154 24.6875C31.793 24.6875 32.4404 23.9766 32.4404 22.8975V9.7959C32.4404 8.7168 31.793 8.00586 30.8154 8.00586C30.3076 8.00586 29.7998 8.27246 29.3174 8.66602L24.2773 12.8428V10.6338C24.2773 7.67578 22.5508 6 19.5928 6H5.99609C3.12695 6 1.31152 7.67578 1.31152 10.6338V22.0596C1.31152 25.0176 3.03809 26.7061 5.99609 26.7061ZM6.27539 25.2334C4.0791 25.2334 2.88574 24.1035 2.88574 21.8057V10.8877C2.88574 8.60254 4.0791 7.47266 6.27539 7.47266H19.3135C21.5098 7.47266 22.7031 8.60254 22.7031 10.8877V21.8057C22.7031 24.1035 21.5098 25.2334 19.3135 25.2334H6.27539ZM30.0918 22.7197L24.2773 17.9971V14.6963L30.0918 9.97363C30.2822 9.83398 30.4219 9.73242 30.5869 9.73242C30.8027 9.73242 30.9297 9.89746 30.9297 10.1895V22.5166C30.9297 22.8086 30.8027 22.9736 30.5869 22.9736C30.4219 22.9736 30.2822 22.8594 30.0918 22.7197Z" fill="black"/>
</svg>
