<svg width="32" height="32" viewBox="0 0 32 32" fill="none" xmlns="http://www.w3.org/2000/svg">
<path fill-rule="evenodd" clip-rule="evenodd" d="M23 7.58578V7L26 4V6H28L25 9H24.4142L21.5982 11.816C23.0985 13.6318 24 15.9606 24 18.5C24 24.299 19.299 29 13.5 29C7.70101 29 3 24.299 3 18.5C3 12.701 7.70101 8 13.5 8C16.0394 8 18.3682 8.90145 20.184 10.4018L23 7.58578ZM13.5 10C15.4869 10 17.3145 10.6817 18.7618 11.824L17.3347 13.2511C16.2597 12.4644 14.9341 12 13.5 12C9.91015 12 7 14.9101 7 18.5C7 22.0898 9.91015 25 13.5 25C17.0899 25 20 22.0898 20 18.5C20 17.0659 19.5356 15.7403 18.7489 14.6653L20.176 13.2382C21.3183 14.6855 22 16.5131 22 18.5C22 23.1944 18.1944 27 13.5 27C8.80558 27 5 23.1944 5 18.5C5 13.8056 8.80558 10 13.5 10ZM13.5 14C14.3805 14 15.202 14.2529 15.8957 14.69L13.5835 17.0023C13.5559 17.0008 13.528 17 13.5 17C12.6716 17 12 17.6716 12 18.5C12 19.3284 12.6716 20 13.5 20C14.3284 20 15 19.3284 15 18.5C15 18.472 14.9992 18.4441 14.9977 18.4165L17.31 16.1043C17.7471 16.798 18 17.6195 18 18.5C18 20.9853 15.9853 23 13.5 23C11.0147 23 9 20.9853 9 18.5C9 16.0147 11.0147 14 13.5 14Z" fill="#0F0F0F"/>
<path fill-rule="evenodd" clip-rule="evenodd" d="M26.3827 3.07612C26.7564 3.2309 27 3.59554 27 4V5H28C28.4045 5 28.7691 5.24364 28.9239 5.61732C29.0787 5.99099 28.9931 6.42111 28.7071 6.70711L25.7071 9.70711C25.5196 9.89464 25.2652 10 25 10H24.8284L22.9227 11.9058C24.2314 13.7728 25 16.0477 25 18.5C25 24.8513 19.8513 30 13.5 30C7.14873 30 2 24.8513 2 18.5C2 12.1487 7.14873 7 13.5 7C15.9523 7 18.2272 7.76859 20.0942 9.07734L22 7.17157V7C22 6.73478 22.1054 6.48043 22.2929 6.29289L25.2929 3.29289C25.5789 3.00689 26.009 2.92134 26.3827 3.07612ZM25.0633 6.35091L24 7.41421V7.58578C24 7.851 23.8946 8.10535 23.7071 8.29289C23.8946 8.10536 24.149 8 24.4142 8H24.5858L25.6491 6.9367C25.3791 6.8355 25.1645 6.62091 25.0633 6.35091ZM19.547 11.1727C17.9039 9.81496 15.7984 9 13.5 9C15.7196 9 17.7639 9.76244 19.3813 11.039C19.6055 11.2159 19.7434 11.4803 19.7601 11.7654C19.7768 12.0505 19.6709 12.3291 19.4689 12.5311C19.6709 12.3291 19.9495 12.2232 20.2346 12.2399C20.5197 12.2566 20.7841 12.3945 20.961 12.6187C22.2376 14.2361 23 16.2804 23 18.5C23 16.2016 22.185 14.0961 20.8273 12.453C20.4989 12.0555 20.5265 11.4735 20.8911 11.1089C20.5265 11.4735 19.9445 11.5011 19.547 11.1727ZM13.664 11.0018C14.9481 11.0293 16.1515 11.3789 17.1981 11.9734C16.151 11.379 14.9462 11.0293 13.664 11.0018ZM16.7441 14.0581C15.8632 13.4134 14.7845 13.0248 13.6136 13.0011C14.6455 13.0221 15.6102 13.3281 16.4289 13.844C16.6861 14.0061 16.8557 14.2765 16.8895 14.5787C16.9234 14.8809 16.8179 15.1821 16.6028 15.3972C16.8179 15.1821 17.1191 15.0766 17.4213 15.1105C17.7235 15.1443 17.9939 15.3139 18.156 15.5711C18.671 16.3884 18.9768 17.3512 18.9987 18.3811C18.974 17.2123 18.5856 16.1355 17.9419 15.2559C17.6506 14.8579 17.6931 14.3069 18.0418 13.9582C17.6931 14.3069 17.1421 14.3494 16.7441 14.0581ZM20.9962 18.2594C20.9566 17.0058 20.6089 15.8284 20.0263 14.8021C20.609 15.8279 20.9567 17.004 20.9962 18.2594ZM13.5 15C11.567 15 10 16.567 10 18.5C10 20.433 11.567 22 13.5 22C15.433 22 17 20.433 17 18.5C17 18.2891 16.9814 18.0828 16.9459 17.8826L15.9752 18.8532C15.8037 20.0666 14.7608 21 13.5 21C12.1193 21 11 19.8807 11 18.5C11 17.2392 11.9334 16.1963 13.1468 16.0248L14.1174 15.0541C13.9172 15.0186 13.7109 15 13.5 15ZM13.5 18C13.2239 18 13 18.2239 13 18.5C13 18.7761 13.2239 19 13.5 19C13.7761 19 14 18.7761 14 18.5C14 18.494 13.9999 18.4881 13.9997 18.4822C13.9996 18.4785 13.9994 18.4749 13.9992 18.4713C13.9836 18.1874 14.0896 17.9104 14.2906 17.7094C14.0896 17.9104 13.8126 18.0164 13.5287 18.0008C13.5193 18.0003 13.5097 18 13.5 18Z" fill="#0F0F0F"/>
</svg>
