<svg width="32" height="32" viewBox="0 0 32 32" fill="none" xmlns="http://www.w3.org/2000/svg">
<path fill-rule="evenodd" clip-rule="evenodd" d="M23 7.93934V7L26 4V6H28L25 9H24.0607L21.2589 11.8018C22.8111 13.5983 23.75 15.9395 23.75 18.5C23.75 24.1609 19.1609 28.75 13.5 28.75C7.83908 28.75 3.25 24.1609 3.25 18.5C3.25 12.8391 7.83908 8.25 13.5 8.25C16.0605 8.25 18.4017 9.18887 20.1982 10.7411L23 7.93934ZM13.5 9.75C15.6462 9.75 17.612 10.5227 19.1342 11.8051L17.3573 13.582C16.295 12.7476 14.9556 12.25 13.5 12.25C10.0482 12.25 7.25 15.0482 7.25 18.5C7.25 21.9518 10.0482 24.75 13.5 24.75C16.9518 24.75 19.75 21.9518 19.75 18.5C19.75 17.0444 19.2524 15.705 18.418 14.6427L20.1949 12.8658C21.4773 14.388 22.25 16.3538 22.25 18.5C22.25 23.3325 18.3325 27.25 13.5 27.25C8.66751 27.25 4.75 23.3325 4.75 18.5C4.75 13.6675 8.66751 9.75 13.5 9.75ZM13.5 13.75C14.541 13.75 15.5038 14.0849 16.2865 14.6528L13.8885 17.0508C13.7646 17.0177 13.6344 17 13.5 17C12.6716 17 12 17.6716 12 18.5C12 19.3284 12.6716 20 13.5 20C14.3284 20 15 19.3284 15 18.5C15 18.3656 14.9823 18.2354 14.9492 18.1115L17.3472 15.7135C17.9151 16.4962 18.25 17.459 18.25 18.5C18.25 21.1234 16.1234 23.25 13.5 23.25C10.8766 23.25 8.75 21.1234 8.75 18.5C8.75 15.8766 10.8766 13.75 13.5 13.75Z" fill="#0F0F0F"/>
<path fill-rule="evenodd" clip-rule="evenodd" d="M26.287 3.30709C26.5673 3.42318 26.75 3.69665 26.75 4V5.25H28C28.3033 5.25 28.5768 5.43273 28.6929 5.71299C28.809 5.99324 28.7448 6.31583 28.5303 6.53033L25.5303 9.53033C25.3897 9.67098 25.1989 9.75 25 9.75H24.3713L22.2666 11.8547C23.6678 13.7007 24.5 16.004 24.5 18.5C24.5 24.5751 19.5751 29.5 13.5 29.5C7.42487 29.5 2.5 24.5751 2.5 18.5C2.5 12.4249 7.42487 7.5 13.5 7.5C15.996 7.5 18.2993 8.33215 20.1453 9.73343L22.25 7.62868V7C22.25 6.80109 22.329 6.61032 22.4697 6.46967L25.4697 3.46967C25.6842 3.25517 26.0068 3.191 26.287 3.30709ZM23.75 7.31066V7.93934C23.75 8.13825 23.671 8.32902 23.5303 8.46967C23.671 8.32902 23.8617 8.25 24.0607 8.25H24.6893L26.1893 6.75H26C25.5858 6.75 25.25 6.41421 25.25 6V5.81066L23.75 7.31066ZM19.7079 11.3086C18.0424 9.86961 15.8737 9 13.5 9C15.8296 9 17.965 9.83946 19.6174 11.2315C19.7781 11.3668 19.8746 11.5633 19.8835 11.7731C19.8925 11.983 19.8131 12.1869 19.6646 12.3354C19.8131 12.1869 20.017 12.1075 20.2269 12.1165C20.4367 12.1254 20.6332 12.2219 20.7685 12.3826C22.1605 14.035 23 16.1704 23 18.5C23 16.1263 22.1304 13.9576 20.6914 12.2921C20.4346 11.995 20.4506 11.5502 20.7278 11.2722C20.4498 11.5494 20.005 11.5654 19.7079 11.3086ZM13.5 10.5C9.08172 10.5 5.5 14.0817 5.5 18.5C5.5 22.9183 9.08172 26.5 13.5 26.5C17.9183 26.5 21.5 22.9183 21.5 18.5C21.5 16.8322 20.9904 15.2849 20.1178 14.0035L19.396 14.7253C20.0946 15.8146 20.5 17.1107 20.5 18.5C20.5 22.366 17.366 25.5 13.5 25.5C9.63401 25.5 6.5 22.366 6.5 18.5C6.5 14.634 9.63401 11.5 13.5 11.5C14.8893 11.5 16.1854 11.9054 17.2747 12.604L17.9965 11.8822C16.7151 11.0096 15.1678 10.5 13.5 10.5ZM16.8941 14.1718C15.9592 13.4375 14.7817 13 13.5 13C14.7045 13 15.8205 13.388 16.727 14.0458C16.9046 14.1747 17.0169 14.3749 17.0342 14.5937C17.0515 14.8125 16.9721 15.0279 16.8169 15.1831C16.9721 15.0279 17.1875 14.9485 17.4063 14.9658C17.6251 14.9831 17.8253 15.0954 17.9542 15.273C18.612 16.1795 19 17.2955 19 18.5C19 17.2183 18.5625 16.0408 17.8282 15.1059C17.5939 14.8077 17.6192 14.3815 17.887 14.113C17.6185 14.3808 17.1923 14.4061 16.8941 14.1718ZM13.5 14.5C11.2909 14.5 9.5 16.2909 9.5 18.5C9.5 20.7091 11.2909 22.5 13.5 22.5C15.7091 22.5 17.5 20.7091 17.5 18.5C17.5 17.9451 17.3873 17.4173 17.1836 16.9377L15.7466 18.3748C15.7488 18.4163 15.75 18.458 15.75 18.5C15.75 19.7426 14.7426 20.75 13.5 20.75C12.2574 20.75 11.25 19.7426 11.25 18.5C11.25 17.2574 12.2574 16.25 13.5 16.25C13.542 16.25 13.5837 16.2512 13.6252 16.2534L15.0623 14.8164C14.5827 14.6127 14.0549 14.5 13.5 14.5ZM13.5 17.75C13.0858 17.75 12.75 18.0858 12.75 18.5C12.75 18.9142 13.0858 19.25 13.5 19.25C13.9142 19.25 14.25 18.9142 14.25 18.5C14.25 18.4316 14.241 18.3665 14.2247 18.3052C14.1555 18.0465 14.2295 17.7705 14.4189 17.5811C14.2295 17.7705 13.9535 17.8445 13.6948 17.7753C13.6335 17.759 13.5684 17.75 13.5 17.75Z" fill="#0F0F0F"/>
</svg>
