<svg width="32" height="32" viewBox="0 0 32 32" fill="none" xmlns="http://www.w3.org/2000/svg">
<path d="M26.3827 3.07612C26.7564 3.2309 27 3.59554 27 4V5H28C28.4045 5 28.7691 5.24364 28.9239 5.61732C29.0787 5.99099 28.9931 6.42111 28.7071 6.70711L25.7071 9.70711C25.5196 9.89464 25.2652 10 25 10H23.4143L21.5982 11.8161C23.0986 13.6318 24 15.9606 24 18.5C24 24.299 19.299 29 13.5 29C7.70101 29 3 24.299 3 18.5C3 12.701 7.70101 8 13.5 8C16.0394 8 18.3683 8.90147 20.184 10.4018L22 8.58586V7C22 6.73478 22.1054 6.48043 22.2929 6.29289L25.2929 3.29289C25.5789 3.00689 26.009 2.92134 26.3827 3.07612ZM15.8278 17.5865C15.939 17.8694 16 18.1776 16 18.5C16 19.8807 14.8807 21 13.5 21C12.1193 21 11 19.8807 11 18.5C11 17.1193 12.1193 16 13.5 16C13.8224 16 14.1306 16.061 14.4136 16.1722L15.8958 14.6901C15.2021 14.2529 14.3806 14 13.5 14C11.0147 14 9 16.0147 9 18.5C9 20.9853 11.0147 23 13.5 23C15.9853 23 18 20.9853 18 18.5C18 17.6195 17.7471 16.798 17.31 16.1043L15.8278 17.5865ZM17.3347 13.2511L18.7619 11.824C17.3146 10.6817 15.4869 10 13.5 10C8.80558 10 5 13.8056 5 18.5C5 23.1944 8.80558 27 13.5 27C18.1944 27 22 23.1944 22 18.5C22 16.5131 21.3183 14.6855 20.1761 13.2382L18.7489 14.6654C19.5356 15.7403 20 17.0659 20 18.5C20 22.0899 17.0899 25 13.5 25C9.91015 25 7 22.0899 7 18.5C7 14.9101 9.91015 12 13.5 12C14.9341 12 16.2598 12.4644 17.3347 13.2511Z" fill="#0F0F0F"/>
</svg>
