<svg width="32" height="32" viewBox="0 0 32 32" fill="none" xmlns="http://www.w3.org/2000/svg">
<path d="M16.7069 15.9997L25.3534 7.35321C25.4456 7.25913 25.4969 7.13247 25.4963 7.00076C25.4956 6.86904 25.443 6.7429 25.3498 6.64976C25.2567 6.55662 25.1306 6.504 24.9988 6.50334C24.8671 6.50267 24.7405 6.55402 24.6464 6.64621L15.9999 15.2927L7.35339 6.64618C7.25931 6.55399 7.13265 6.50264 7.00093 6.50331C6.86922 6.50397 6.74308 6.55659 6.64994 6.64973C6.5568 6.74287 6.50418 6.86901 6.50352 7.00073C6.50285 7.13244 6.55419 7.2591 6.64639 7.35318L15.2929 15.9997L6.64636 24.6462C6.59916 24.6924 6.56161 24.7476 6.53586 24.8084C6.51011 24.8693 6.49668 24.9346 6.49634 25.0007C6.49601 25.0668 6.50878 25.1323 6.53391 25.1934C6.55905 25.2545 6.59604 25.31 6.64277 25.3568C6.6895 25.4035 6.74502 25.4405 6.80613 25.4656C6.86725 25.4908 6.93273 25.5035 6.99881 25.5032C7.06489 25.5029 7.13025 25.4894 7.1911 25.4637C7.25196 25.4379 7.30711 25.4004 7.35336 25.3532L15.9998 16.7067L24.6463 25.3532C24.7404 25.4454 24.8671 25.4967 24.9988 25.4961C25.1305 25.4954 25.2566 25.4428 25.3498 25.3496C25.4429 25.2565 25.4955 25.1304 25.4962 24.9986C25.4969 24.8669 25.4455 24.7403 25.3533 24.6462L16.7069 15.9997Z" fill="#0F0F0F"/>
</svg>
