<svg width="32" height="32" viewBox="0 0 32 32" fill="none" xmlns="http://www.w3.org/2000/svg">
<path d="M27.9995 24.5001H3.99951C3.8669 24.5001 3.73973 24.5528 3.64596 24.6466C3.55219 24.7403 3.49951 24.8675 3.49951 25.0001C3.49951 25.1327 3.55219 25.2599 3.64596 25.3537C3.73973 25.4474 3.8669 25.5001 3.99951 25.5001H27.9995C28.1321 25.5001 28.2593 25.4474 28.3531 25.3537C28.4468 25.2599 28.4995 25.1327 28.4995 25.0001C28.4995 24.8675 28.4468 24.7403 28.3531 24.6466C28.2593 24.5528 28.1321 24.5001 27.9995 24.5001Z" fill="#0F0F0F"/>
<path d="M4.35303 19.3536L15.9995 7.70716L27.646 19.3536C27.74 19.4458 27.8667 19.4972 27.9984 19.4965C28.1301 19.4958 28.2563 19.4432 28.3494 19.3501C28.4426 19.2569 28.4952 19.1308 28.4958 18.9991C28.4965 18.8674 28.4452 18.7407 28.353 18.6466L16.353 6.64664C16.3066 6.60021 16.2514 6.56337 16.1908 6.53824C16.1301 6.51311 16.0651 6.50017 15.9995 6.50017C15.9338 6.50017 15.8688 6.51311 15.8082 6.53824C15.7475 6.56337 15.6924 6.60021 15.646 6.64664L3.64597 18.6466C3.55378 18.7407 3.50243 18.8674 3.5031 18.9991C3.50376 19.1308 3.55638 19.2569 3.64952 19.3501C3.74266 19.4432 3.8688 19.4958 4.00052 19.4965C4.13224 19.4972 4.25896 19.4458 4.35303 19.3536Z" fill="#0F0F0F"/>
</svg>
