<svg width="32" height="32" viewBox="0 0 32 32" fill="none" xmlns="http://www.w3.org/2000/svg">
<path d="M11.8359 21.7549H20.1514C21.6875 21.7549 22.5635 20.8281 22.5635 19.3682V16.7529H27.6543C28.543 16.7529 29.2158 16.2197 29.2158 15.4072C29.2158 14.9121 28.9619 14.5059 28.4922 14.0869L17.4727 4.375C16.8887 3.86719 16.4951 3.61328 16 3.61328C15.5049 3.61328 15.1113 3.86719 14.5273 4.375L3.50781 14.0996C3.0127 14.5312 2.78418 14.9121 2.78418 15.4072C2.78418 16.2197 3.45703 16.7529 4.3457 16.7529H9.43652V19.3682C9.43652 20.8281 10.3125 21.7549 11.8359 21.7549ZM11.9756 20.2695C11.4424 20.2695 11.0615 19.9014 11.0615 19.3682V15.6484C11.0615 15.3691 10.9473 15.2549 10.668 15.2549H5.04395C4.9043 15.2549 4.84082 15.1914 4.84082 15.1152C4.84082 15.0391 4.86621 14.9756 4.94238 14.8994L15.5684 5.61914C15.7588 5.44141 15.8604 5.37793 16 5.37793C16.1396 5.37793 16.2412 5.44141 16.4316 5.61914L27.0449 14.8994C27.1338 14.9756 27.1592 15.0391 27.1592 15.1152C27.1592 15.1914 27.0957 15.2549 26.9561 15.2549H21.332C21.04 15.2549 20.9385 15.3691 20.9385 15.6484V19.3682C20.9385 19.8887 20.5576 20.2695 20.0244 20.2695H11.9756ZM11.3789 29.2832H20.5322C21.8145 29.2832 22.5635 28.5723 22.5635 27.2773V25.6143C22.5635 24.3193 21.8145 23.5449 20.5322 23.5449H11.3789C10.0967 23.5449 9.34766 24.332 9.34766 25.6143V27.2773C9.34766 28.5596 10.0967 29.2832 11.3789 29.2832ZM11.5693 27.874C11.1123 27.874 10.833 27.6328 10.833 27.1631V25.7285C10.833 25.2588 11.1123 24.9541 11.5693 24.9541H20.3418C20.8115 24.9541 21.0781 25.2588 21.0781 25.7285V27.1631C21.0781 27.6328 20.8115 27.874 20.3418 27.874H11.5693Z" fill="black"/>
</svg>
