<svg width="32" height="32" viewBox="0 0 32 32" fill="none" xmlns="http://www.w3.org/2000/svg">
<path d="M27.9995 24.0001H3.99951C3.7343 24.0001 3.47994 24.1055 3.2924 24.293C3.10487 24.4805 2.99951 24.7349 2.99951 25.0001C2.99951 25.2653 3.10487 25.5197 3.2924 25.7072C3.47994 25.8948 3.7343 26.0001 3.99951 26.0001H27.9995C28.2647 26.0001 28.5191 25.8948 28.7066 25.7072C28.8942 25.5197 28.9995 25.2653 28.9995 25.0001C28.9995 24.7349 28.8942 24.4805 28.7066 24.293C28.5191 24.1055 28.2647 24.0001 27.9995 24.0001Z" fill="#0F0F0F"/>
<path d="M4.70654 19.7072L15.9995 8.41416L27.2925 19.7072C27.4801 19.8947 27.7344 20 27.9996 20C28.2648 20 28.5191 19.8947 28.7066 19.7072C28.8941 19.5196 28.9995 19.2653 28.9995 19.0001C28.9995 18.7349 28.8941 18.4806 28.7066 18.2931L16.7066 6.29309C16.6138 6.20021 16.5035 6.12653 16.3822 6.07626C16.2609 6.026 16.1309 6.00012 15.9996 6.00012C15.8683 6.00012 15.7382 6.026 15.6169 6.07626C15.4956 6.12653 15.3854 6.20021 15.2925 6.29309L3.29254 18.2931C3.10502 18.4806 2.99968 18.7349 2.99968 19.0001C2.99968 19.2653 3.10502 19.5196 3.29254 19.7072C3.48005 19.8947 3.73438 20 3.99957 20C4.26476 20 4.51902 19.8947 4.70654 19.7072Z" fill="#0F0F0F"/>
</svg>
