<svg width="32" height="32" viewBox="0 0 32 32" fill="none" xmlns="http://www.w3.org/2000/svg">
<path d="M28.1875 16.1452C28.1455 16.0392 28.1455 15.9211 28.1875 15.8151L29.3955 12.7995C29.5216 12.4798 29.531 12.1259 29.4221 11.7999C29.3131 11.474 29.0928 11.1969 28.7998 11.0173L25.9755 9.25848C25.8728 9.19632 25.7975 9.09758 25.7646 8.98212L24.8886 5.87177C24.7931 5.54113 24.5874 5.25307 24.3057 5.05537C24.024 4.85767 23.6832 4.76222 23.3398 4.78485L19.9667 4.95085C19.8357 4.95422 19.7071 4.91479 19.6005 4.83854L16.9765 2.82C16.7035 2.61151 16.3695 2.49872 16.026 2.49908C15.6825 2.49943 15.3487 2.6129 15.0761 2.82195L12.4433 4.85028C12.3376 4.93141 12.2063 4.97194 12.0732 4.96454L8.70211 4.81024C8.35825 4.78671 8.01674 4.88204 7.73478 5.08026C7.45282 5.27849 7.24753 5.56758 7.15329 5.89911L6.26461 9.01239C6.2297 9.12923 6.15283 9.22905 6.04879 9.29266L3.21779 11.0612C2.92496 11.2411 2.70449 11.5179 2.59475 11.8436C2.48501 12.1692 2.49295 12.523 2.6172 12.8434L3.81252 15.8552L3.81352 15.8562C3.8547 15.9617 3.85434 16.079 3.81252 16.1843L2.60452 19.1999C2.47877 19.5198 2.46954 19.8737 2.57845 20.1997C2.68735 20.5257 2.90745 20.803 3.20022 20.9831L6.02346 22.74C6.12609 22.8029 6.20163 22.9017 6.23538 23.0173L7.11138 26.1286C7.20401 26.461 7.40899 26.7509 7.69139 26.9491C7.9738 27.1473 8.31617 27.2414 8.66021 27.2155L12.0313 27.0485C12.1632 27.0446 12.2926 27.0844 12.3995 27.1618L15.0245 29.1804C15.2972 29.3891 15.6311 29.502 15.9745 29.5016C16.3179 29.5013 16.6516 29.3877 16.9239 29.1784L19.5586 27.1491C19.6657 27.0727 19.7944 27.0326 19.9258 27.0348L23.2979 27.1901C23.6419 27.2142 23.9836 27.1191 24.2657 26.9208C24.5478 26.7225 24.753 26.4331 24.8467 26.1012L25.7354 22.987C25.7709 22.8704 25.8476 22.7708 25.9512 22.7067L28.7813 20.9391C29.0745 20.7596 29.2954 20.4828 29.4053 20.1571C29.5153 19.8314 29.5073 19.4774 29.3829 19.1569L28.1875 16.1452ZM28.2519 20.0915L25.4209 21.8591C25.1067 22.0537 24.8763 22.3583 24.7744 22.7136L23.8857 25.8278C23.8462 25.9383 23.7724 26.0333 23.675 26.0988C23.5777 26.1643 23.462 26.197 23.3447 26.1921L19.9707 26.0358C19.6027 26.0196 19.2408 26.1333 18.9482 26.3571L16.3145 28.3854C16.2165 28.4594 16.0972 28.4996 15.9745 28.5C15.8517 28.5003 15.7322 28.4608 15.6338 28.3874L13.0098 26.3699C12.7367 26.1604 12.4018 26.0474 12.0576 26.0486C12.0332 26.0486 12.0078 26.0486 11.9834 26.0506L8.61136 26.2176C8.49509 26.2227 8.38022 26.1905 8.28358 26.1257C8.18693 26.0608 8.11358 25.9668 8.07426 25.8572L7.19826 22.7459C7.09703 22.3906 6.86684 22.0859 6.55275 21.8914L3.72946 20.1335C3.63493 20.0786 3.5631 19.9918 3.52693 19.8887C3.49076 19.7855 3.49263 19.6729 3.53219 19.571L4.74119 16.5544C4.87871 16.2116 4.87907 15.8291 4.74219 15.486L3.54684 12.4743C3.50784 12.3715 3.50665 12.2582 3.54351 12.1546C3.58036 12.051 3.65285 11.9639 3.74801 11.9089L6.57711 10.1413C6.89213 9.94716 7.12336 9.64245 7.22555 9.2868L8.11422 6.17255C8.14739 6.05784 8.21988 5.95847 8.31898 5.89187C8.41809 5.82526 8.53748 5.79567 8.65622 5.80829L12.0273 5.96259C12.3965 5.98398 12.7609 5.87049 13.0527 5.64325L15.6855 3.61493C15.7836 3.54095 15.9031 3.50077 16.026 3.5004C16.1489 3.50004 16.2686 3.53953 16.3672 3.61293L18.9901 5.6305C19.2819 5.85848 19.647 5.97173 20.0165 5.94886L23.3895 5.78286C23.5063 5.7739 23.6226 5.80447 23.7198 5.86966C23.8171 5.93484 23.8896 6.03085 23.9257 6.14223L24.8017 9.25258C24.9024 9.60836 25.1327 9.91355 25.4472 10.1081L28.2704 11.8668C28.365 11.9214 28.4369 12.008 28.4731 12.111C28.5093 12.2141 28.5074 12.3266 28.4677 12.4284L27.2587 15.445C27.1211 15.7881 27.1208 16.1709 27.2577 16.5143L28.453 19.526C28.4922 19.6288 28.4936 19.7422 28.4567 19.8458C28.4199 19.9495 28.3472 20.0366 28.2519 20.0915Z" fill="#0F0F0F"/>
<path d="M20.6748 12.6208L14.0273 18.319L11.3545 15.6325C11.3084 15.5849 11.2533 15.5469 11.1925 15.5208C11.1316 15.4947 11.0662 15.4809 11 15.4803C10.9337 15.4796 10.8681 15.4922 10.8067 15.5171C10.7454 15.5421 10.6896 15.579 10.6426 15.6257C10.5957 15.6724 10.5585 15.728 10.5332 15.7892C10.5079 15.8504 10.495 15.916 10.4952 15.9822C10.4955 16.0485 10.5089 16.114 10.5347 16.175C10.5605 16.236 10.5981 16.2912 10.6455 16.3376L13.6455 19.3532C13.7344 19.4426 13.8539 19.4952 13.9799 19.5002C14.106 19.5053 14.2293 19.4626 14.3251 19.3805L21.3251 13.3805C21.375 13.3378 21.416 13.2857 21.4458 13.2272C21.4755 13.1686 21.4934 13.1048 21.4985 13.0393C21.5036 12.9738 21.4957 12.908 21.4754 12.8456C21.455 12.7831 21.4225 12.7253 21.3798 12.6754C21.3371 12.6256 21.285 12.5846 21.2265 12.5548C21.1679 12.5251 21.1041 12.5072 21.0386 12.5021C20.9731 12.497 20.9073 12.5049 20.8449 12.5252C20.7825 12.5456 20.7247 12.5781 20.6748 12.6208Z" fill="#0F0F0F"/>
</svg>
