<svg width="32" height="32" viewBox="0 0 32 32" fill="none" xmlns="http://www.w3.org/2000/svg">
<path d="M19 9H9C8.45 9 8 9.45 8 10C8 10.55 8.45 11 9 11H19C19.55 11 20 10.55 20 10C20 9.45 19.55 9 19 9Z" fill="#0F0F0F"/>
<path d="M9 13C8.45 13 8 13.45 8 14C8 14.55 8.45 15 9 15H13C13.55 15 14 14.55 14 14C14 13.45 13.55 13 13 13H9Z" fill="#0F0F0F"/>
<path d="M24.29 18.2901L21 21.5801L19.71 20.2901C19.32 19.9001 18.69 19.9001 18.3 20.2901C17.91 20.6801 17.91 21.3101 18.3 21.7001L20.3 23.7001C20.5 23.9001 20.75 23.9901 21.01 23.9901C21.27 23.9901 21.52 23.8901 21.72 23.7001L25.72 19.7001C26.11 19.3101 26.11 18.6801 25.72 18.2901C25.33 17.9001 24.7 17.9001 24.31 18.2901H24.29Z" fill="#0F0F0F"/>
<path d="M23 3H7C4.24 3 2 5.24 2 8V18C2 20.76 4.24 23 7 23H14.2533C15.144 26.4459 18.2803 29 22 29C26.41 29 30 25.41 30 21C30 18.9764 29.2441 17.1255 28 15.7149V8C28 5.24 25.76 3 23 3ZM26 14.0742C24.8225 13.3913 23.4559 13 22 13C17.59 13 14 16.59 14 21H7C5.35 21 4 19.65 4 18V8C4 6.35 5.35 5 7 5H23C24.65 5 26 6.35 26 8V14.0742ZM22 27C18.69 27 16 24.31 16 21C16 17.69 18.69 15 22 15C25.31 15 28 17.69 28 21C28 24.31 25.31 27 22 27Z" fill="#0F0F0F"/>
</svg>
