<svg width="32" height="32" viewBox="0 0 32 32" fill="none" xmlns="http://www.w3.org/2000/svg">
<path d="M3.75 13C3.75 7.89137 7.89137 3.75 13 3.75C14.3169 3.75 15.5677 4.02475 16.6997 4.51935C17.0793 4.68519 17.5214 4.51193 17.6873 4.13237C17.8531 3.7528 17.6798 3.31066 17.3003 3.14482C15.9824 2.56904 14.5275 2.25 13 2.25C7.06294 2.25 2.25 7.06294 2.25 13C2.25 18.9371 7.06294 23.75 13 23.75C15.699 23.75 18.1651 22.7556 20.0526 21.1133L28.4697 29.5303C28.7626 29.8232 29.2374 29.8232 29.5303 29.5303C29.8232 29.2374 29.8232 28.7626 29.5303 28.4697L21.1132 20.0526C22.1908 18.8138 22.9894 17.326 23.4113 15.6869C23.5145 15.2858 23.273 14.8769 22.8719 14.7737C22.4708 14.6704 22.0619 14.9119 21.9586 15.3131C20.9317 19.3028 17.3091 22.25 13 22.25C7.89137 22.25 3.75 18.1086 3.75 13Z" fill="#0F0F0F"/>
<path d="M25 2.25C25.4142 2.25 25.75 2.58579 25.75 3V6.25L29 6.25C29.4142 6.25 29.75 6.58579 29.75 7C29.75 7.41421 29.4142 7.75 29 7.75H25.75V11C25.75 11.4142 25.4142 11.75 25 11.75C24.5858 11.75 24.25 11.4142 24.25 11V7.75H21C20.5858 7.75 20.25 7.41421 20.25 7C20.25 6.58579 20.5858 6.25 21 6.25L24.25 6.25V3C24.25 2.58579 24.5858 2.25 25 2.25Z" fill="#0F0F0F"/>
</svg>
