<svg width="32" height="32" viewBox="0 0 32 32" fill="none" xmlns="http://www.w3.org/2000/svg">
<path d="M4 13C4 8.02944 8.02944 4 13 4C14.2818 4 15.4986 4.26737 16.5996 4.74844C17.1057 4.96956 17.6952 4.73855 17.9164 4.23246C18.1375 3.72637 17.9065 3.13685 17.4004 2.91573C16.0516 2.32642 14.5626 2 13 2C6.92487 2 2 6.92487 2 13C2 19.0751 6.92487 24 13 24C15.678 24 18.1318 23.0433 20.039 21.4532L28.2929 29.7071C28.6834 30.0976 29.3166 30.0976 29.7071 29.7071C30.0977 29.3166 30.0977 28.6834 29.7071 28.2929L21.4532 20.0389C22.4794 18.8077 23.2417 17.3488 23.6534 15.7493C23.7911 15.2144 23.4691 14.6692 22.9342 14.5316C22.3994 14.3939 21.8542 14.7159 21.7165 15.2507C20.7174 19.1327 17.1923 22 13 22C8.02944 22 4 17.9706 4 13Z" fill="#0F0F0F"/>
<path d="M25 2C25.5523 2 26 2.44772 26 3V6L29 6C29.5523 6 30 6.44772 30 7C30 7.55228 29.5523 8 29 8H26V11C26 11.5523 25.5523 12 25 12C24.4477 12 24 11.5523 24 11V8H21C20.4477 8 20 7.55228 20 7C20 6.44771 20.4477 6 21 6L24 6V3C24 2.44772 24.4477 2 25 2Z" fill="#0F0F0F"/>
</svg>
