<svg width="32" height="32" viewBox="0 0 32 32" fill="none" xmlns="http://www.w3.org/2000/svg">
<path d="M16 29.0801C22.9697 29.0801 28.7334 23.3164 28.7334 16.3467C28.7334 9.37695 22.9697 3.61328 15.9873 3.61328C9.01758 3.61328 3.2666 9.37695 3.2666 16.3467C3.2666 23.3164 9.03027 29.0801 16 29.0801ZM14.5273 22.7451C14.1973 22.7451 13.9434 22.6182 13.6514 22.2754L9.7793 17.6162C9.62695 17.4258 9.53809 17.1846 9.53809 16.9688C9.53809 16.4863 9.91895 16.1436 10.3379 16.1436C10.6299 16.1436 10.8711 16.2451 11.0996 16.5498L14.4893 20.7139L20.7354 10.8369C20.9258 10.5195 21.1797 10.3672 21.4463 10.3672C21.8779 10.3672 22.2969 10.6592 22.2969 11.1416C22.2969 11.3574 22.1826 11.5859 22.0557 11.7891L15.3525 22.2627C15.1367 22.5928 14.8574 22.7451 14.5273 22.7451Z" fill="black"/>
</svg>
