<svg width="32" height="32" viewBox="0 0 32 32" fill="none" xmlns="http://www.w3.org/2000/svg">
<path d="M16 29.0801C22.9697 29.0801 28.7334 23.3164 28.7334 16.3467C28.7334 9.37695 22.9697 3.61328 15.9873 3.61328C9.01758 3.61328 3.2666 9.37695 3.2666 16.3467C3.2666 23.3164 9.03027 29.0801 16 29.0801ZM16 27.4424C9.85547 27.4424 4.91699 22.4912 4.91699 16.3467C4.91699 10.2021 9.85547 5.26367 15.9873 5.26367C22.1318 5.26367 27.083 10.2021 27.0957 16.3467C27.0957 22.4912 22.1445 27.4424 16 27.4424ZM14.3623 22.6816C14.6924 22.6816 14.959 22.5293 15.1621 22.2246L21.751 11.9287C21.8779 11.7383 21.9795 11.5225 21.9795 11.3066C21.9795 10.8496 21.5732 10.5576 21.167 10.5576C20.9004 10.5576 20.6465 10.71 20.4688 11.0146L14.3242 20.7139L10.998 16.6133C10.7822 16.334 10.5537 16.2197 10.2744 16.2197C9.84277 16.2197 9.4873 16.5625 9.4873 17.0195C9.4873 17.248 9.57617 17.4639 9.72852 17.6543L13.5244 22.2246C13.791 22.5547 14.0449 22.6816 14.3623 22.6816Z" fill="black"/>
</svg>
