<svg width="32" height="32" viewBox="0 0 32 32" fill="none" xmlns="http://www.w3.org/2000/svg">
<path d="M16 29.0801C22.9697 29.0801 28.7334 23.3164 28.7334 16.3467C28.7334 9.37695 22.9697 3.61328 15.9873 3.61328C9.01758 3.61328 3.2666 9.37695 3.2666 16.3467C3.2666 23.3164 9.03027 29.0801 16 29.0801ZM16 27.4424C9.85547 27.4424 4.91699 22.4912 4.91699 16.3467C4.91699 10.2021 9.85547 5.26367 15.9873 5.26367C22.1318 5.26367 27.083 10.2021 27.0957 16.3467C27.0957 22.4912 22.1445 27.4424 16 27.4424ZM11.5693 21.5898C11.7979 21.5898 11.9883 21.5137 12.1533 21.3359L15.9873 17.4893L19.8467 21.3359C20.0117 21.501 20.1895 21.5898 20.4307 21.5898C20.875 21.5898 21.2305 21.2344 21.2305 20.8027C21.2305 20.5615 21.1416 20.3838 20.9766 20.2188L17.1172 16.3594L20.9893 12.4873C21.1543 12.3223 21.2305 12.1445 21.2305 11.9287C21.2305 11.4844 20.875 11.1416 20.4307 11.1416C20.2148 11.1416 20.0498 11.2178 19.8721 11.3955L15.9873 15.2549L12.1406 11.3955C11.9756 11.2305 11.7979 11.1543 11.5693 11.1543C11.125 11.1543 10.7695 11.4971 10.7695 11.9287C10.7695 12.1572 10.8457 12.3477 11.0107 12.5L14.8701 16.3594L11.0107 20.2314C10.8457 20.3838 10.7695 20.5742 10.7695 20.8027C10.7695 21.2344 11.125 21.5898 11.5693 21.5898Z" fill="black"/>
</svg>
