<svg width="32" height="32" viewBox="0 0 32 32" fill="none" xmlns="http://www.w3.org/2000/svg">
<path d="M16 29.0801C22.9697 29.0801 28.7334 23.3164 28.7334 16.3467C28.7334 9.37695 22.9697 3.61328 15.9873 3.61328C9.01758 3.61328 3.2666 9.37695 3.2666 16.3467C3.2666 23.3164 9.03027 29.0801 16 29.0801ZM11.3535 21.8311C10.8838 21.8311 10.5029 21.4629 10.5029 21.0059C10.5029 20.7646 10.5918 20.5742 10.7568 20.4092L14.8193 16.3467L10.7568 12.2842C10.6045 12.1318 10.5029 11.9287 10.5029 11.7002C10.5029 11.2305 10.8838 10.875 11.3535 10.875C11.582 10.875 11.7725 10.9639 11.9375 11.1289L15.9873 15.1787L20.0625 11.1289C20.2402 10.9385 20.4307 10.8623 20.6592 10.8623C21.1289 10.8623 21.4971 11.2305 21.4971 11.6875C21.4971 11.916 21.4209 12.1064 21.2432 12.2842L17.1807 16.3467L21.2305 20.3965C21.3955 20.5615 21.4844 20.7646 21.4844 21.0059C21.4844 21.4629 21.1162 21.8311 20.6465 21.8311C20.4053 21.8311 20.2021 21.7295 20.0371 21.5771L15.9873 17.5273L11.9629 21.5771C11.7979 21.7422 11.582 21.8311 11.3535 21.8311Z" fill="black"/>
</svg>
