<svg width="32" height="32" viewBox="0 0 32 32" fill="none" xmlns="http://www.w3.org/2000/svg">
<path d="M25.0005 3.5H7.00049C5.67488 3.50156 4.40402 4.02884 3.46668 4.96619C2.52933 5.90353 2.00205 7.1744 2.00049 8.5V20.5C2.00364 21.2608 2.1797 22.011 2.51535 22.6938C2.851 23.3766 3.33747 23.9742 3.93799 24.4414C3.66995 24.805 3.32902 25.1086 2.93699 25.333C2.66213 25.4512 2.4276 25.6468 2.262 25.896C2.0964 26.1452 2.0069 26.4372 2.0044 26.7363C2.02442 27.0385 2.13207 27.3283 2.31418 27.5702C2.49629 27.8122 2.74496 27.9958 3.02979 28.0986C3.70082 28.3832 4.4252 28.52 5.15379 28.5C6.88897 28.4886 8.57409 27.9173 9.95848 26.8711C10.1919 26.7041 10.4575 26.4746 10.7319 26.2354C11.0222 25.9607 11.3381 25.7144 11.6753 25.5H25.0005C26.3261 25.4984 27.597 24.9712 28.5343 24.0338C29.4716 23.0965 29.9989 21.8256 30.0005 20.5V8.5C29.9989 7.1744 29.4716 5.90353 28.5343 4.96619C27.597 4.02884 26.3261 3.50156 25.0005 3.5ZM28.0005 20.5C27.9996 21.2954 27.6833 22.0579 27.1208 22.6204C26.5584 23.1828 25.7959 23.4991 25.0005 23.5H11.6284C10.8013 23.4541 10.144 24.0908 9.41456 24.7305C9.1919 24.9248 8.97901 25.1152 8.79056 25.2481L8.76419 25.2676C7.61828 26.1455 6.19307 26.5785 4.75245 26.4863C5.31584 25.97 5.79494 25.3686 6.17237 24.7041C6.27281 24.5172 6.32169 24.3068 6.31397 24.0947C6.29845 23.9056 6.23354 23.7239 6.12574 23.5678C6.01794 23.4117 5.87103 23.2866 5.69971 23.2051C5.19192 22.9581 4.76353 22.5737 4.46317 22.0956C4.16282 21.6174 4.00252 21.0647 4.00049 20.5V8.5C4.00136 7.70462 4.31771 6.94206 4.88013 6.37964C5.44255 5.81722 6.20511 5.50087 7.00049 5.5H25.0005C25.7959 5.50087 26.5584 5.81722 27.1208 6.37964C27.6833 6.94206 27.9996 7.70462 28.0005 8.5V20.5Z" fill="#0F0F0F"/>
<path d="M9.94341 17.256C10.1112 17.4709 10.3243 17.6427 10.5661 17.7582C10.808 17.8737 11.0721 17.9297 11.3381 17.9219C12.5841 17.9219 13.2539 17.2027 13.3476 15.7642H15.5359C15.5029 16.3251 15.3585 16.8728 15.1117 17.3727C14.865 17.8726 14.5213 18.3138 14.1025 18.6684C13.2801 19.2545 12.2961 19.5445 11.3006 19.4943C10.6963 19.5273 10.0927 19.4159 9.53603 19.1689C8.97936 18.9218 8.48435 18.5456 8.08884 18.0689C7.32783 17.043 6.94602 15.7669 7.01289 14.4727C6.96325 13.7668 7.05737 13.058 7.28909 12.3926C7.52081 11.7271 7.88491 11.1201 8.35758 10.6112C9.19546 9.84361 10.2883 9.44693 11.4031 9.50571C12.436 9.45836 13.4501 9.80369 14.2562 10.4773C14.9237 11.0831 15.356 11.9215 15.4722 12.8353H13.3227C13.2857 12.3387 13.0648 11.8764 12.7068 11.546C12.3487 11.2155 11.8813 11.0427 11.4031 11.0638C11.0776 11.0489 10.7542 11.1265 10.4678 11.2882C10.1814 11.45 9.94265 11.6898 9.77726 11.9821C9.38461 12.7459 9.20293 13.608 9.25237 14.4727C9.17512 15.455 9.4186 16.4356 9.94341 17.256Z" fill="#0F0F0F"/>
<path d="M19.4075 17.256C19.5753 17.4709 19.7884 17.6427 20.0302 17.7582C20.2721 17.8737 20.5362 17.9297 20.8022 17.9219C22.0469 17.9219 22.7167 17.2027 22.8117 15.7642H25C24.9667 16.3251 24.8222 16.8727 24.5755 17.3725C24.3288 17.8724 23.9853 18.3136 23.5666 18.6685C22.7437 19.2545 21.7594 19.5445 20.7635 19.4943C20.1591 19.5273 19.5556 19.416 18.9989 19.1689C18.4422 18.9218 17.9472 18.5456 17.5517 18.0689C16.7916 17.0426 16.4103 15.7666 16.477 14.4727C16.4271 13.7669 16.521 13.0581 16.7525 12.3927C16.984 11.7273 17.3479 11.1202 17.8204 10.6112C18.6585 9.84401 19.7512 9.44738 20.866 9.50571C21.8991 9.45858 22.9135 9.80387 23.7203 10.4773C24.3874 11.0832 24.8193 11.9216 24.935 12.8353H22.7855C22.7489 12.3385 22.5282 11.876 22.17 11.5455C21.8118 11.215 21.3442 11.0422 20.866 11.0638C20.5406 11.0489 20.2174 11.1265 19.9312 11.2883C19.6449 11.45 19.4065 11.6899 19.2413 11.9821C18.8487 12.7459 18.667 13.608 18.7164 14.4727C18.6386 15.455 18.8821 16.4359 19.4075 17.256Z" fill="#0F0F0F"/>
</svg>
