<svg width="32" height="32" viewBox="0 0 32 32" fill="none" xmlns="http://www.w3.org/2000/svg">
<path d="M25.0002 3.75H7.00024C5.7409 3.75143 4.53355 4.25233 3.64307 5.14282C2.75258 6.03331 2.25167 7.24066 2.25024 8.5V20.5C2.25396 21.2644 2.44099 22.0167 2.79562 22.6939C3.15025 23.371 3.66215 23.9532 4.28833 24.3916C3.97063 24.8659 3.55004 25.2625 3.05786 25.5518C2.82399 25.6485 2.6234 25.8114 2.48065 26.0204C2.33791 26.2294 2.25919 26.4755 2.25415 26.7285C2.27424 26.9845 2.36841 27.2292 2.52517 27.4326C2.68192 27.636 2.89449 27.7894 3.13694 27.874C3.77522 28.1436 4.46388 28.2731 5.15647 28.2539C6.83797 28.2407 8.4703 27.6851 9.81077 26.6699C10.0383 26.5068 10.2991 26.2822 10.5666 26.0469C10.882 25.7399 11.2336 25.4723 11.6135 25.25H25.0002C26.2596 25.2486 27.4669 24.7477 28.3574 23.8572C29.2479 22.9667 29.7488 21.7594 29.7502 20.5V8.50003C29.7488 7.24069 29.2479 6.03333 28.3574 5.14283C27.4669 4.25234 26.2596 3.75143 25.0002 3.75ZM28.2502 20.5C28.2492 21.3616 27.9065 22.1877 27.2972 22.797C26.688 23.4063 25.8619 23.749 25.0002 23.75H11.6057C10.8173 23.8995 10.1027 24.3115 9.57837 24.9189C9.34888 25.1191 9.12915 25.3145 8.93481 25.4522L8.91431 25.4668C8.24633 25.9887 7.47559 26.3634 6.65262 26.5666C5.82965 26.7697 4.97304 26.7966 4.13894 26.6455C4.88882 26.0956 5.50971 25.3888 5.95828 24.5742C6.03358 24.4291 6.07024 24.2669 6.06473 24.1035C6.05031 23.96 5.99916 23.8226 5.9162 23.7045C5.83324 23.5865 5.72127 23.4919 5.59109 23.4297C5.04105 23.1623 4.57698 22.746 4.25159 22.2282C3.9262 21.7103 3.75251 21.1116 3.75024 20.5V8.5C3.75124 7.63835 4.09397 6.81228 4.70325 6.203C5.31252 5.59372 6.1386 5.251 7.00024 5.25H25.0002C25.8619 5.25099 26.688 5.59372 27.2972 6.203C27.9065 6.81228 28.2493 7.63835 28.2502 8.5V20.5Z" fill="#0F0F0F"/>
<path d="M9.94341 17.256C10.1112 17.4709 10.3243 17.6427 10.5661 17.7582C10.808 17.8737 11.0721 17.9297 11.3381 17.9219C12.5841 17.9219 13.2539 17.2027 13.3476 15.7642H15.5359C15.5029 16.3251 15.3585 16.8728 15.1117 17.3727C14.865 17.8726 14.5213 18.3138 14.1025 18.6684C13.2801 19.2545 12.2961 19.5445 11.3006 19.4943C10.6963 19.5273 10.0927 19.4159 9.53603 19.1689C8.97936 18.9218 8.48435 18.5456 8.08884 18.0689C7.32783 17.043 6.94602 15.7669 7.01289 14.4727C6.96325 13.7668 7.05737 13.058 7.28909 12.3926C7.52081 11.7271 7.88491 11.1201 8.35758 10.6112C9.19546 9.84361 10.2883 9.44693 11.4031 9.50571C12.436 9.45836 13.4501 9.80369 14.2562 10.4773C14.9237 11.0831 15.356 11.9215 15.4722 12.8353H13.3227C13.2857 12.3387 13.0648 11.8764 12.7068 11.546C12.3487 11.2155 11.8813 11.0427 11.4031 11.0638C11.0776 11.0489 10.7542 11.1265 10.4678 11.2882C10.1814 11.45 9.94265 11.6898 9.77726 11.9821C9.38461 12.7459 9.20293 13.608 9.25237 14.4727C9.17512 15.455 9.4186 16.4356 9.94341 17.256Z" fill="#0F0F0F"/>
<path d="M19.4075 17.256C19.5753 17.4709 19.7884 17.6427 20.0302 17.7582C20.2721 17.8737 20.5362 17.9297 20.8022 17.9219C22.0469 17.9219 22.7167 17.2027 22.8117 15.7642H25C24.9667 16.3251 24.8222 16.8727 24.5755 17.3725C24.3288 17.8724 23.9853 18.3136 23.5666 18.6685C22.7437 19.2545 21.7594 19.5445 20.7635 19.4943C20.1591 19.5273 19.5556 19.416 18.9989 19.1689C18.4422 18.9218 17.9472 18.5456 17.5517 18.0689C16.7916 17.0426 16.4103 15.7666 16.477 14.4727C16.4271 13.7669 16.521 13.0581 16.7525 12.3927C16.984 11.7273 17.3479 11.1202 17.8204 10.6112C18.6585 9.84401 19.7512 9.44738 20.866 9.50571C21.8991 9.45858 22.9135 9.80387 23.7203 10.4773C24.3874 11.0832 24.8193 11.9216 24.935 12.8353H22.7855C22.7489 12.3385 22.5282 11.876 22.17 11.5455C21.8118 11.215 21.3442 11.0422 20.866 11.0638C20.5406 11.0489 20.2174 11.1265 19.9312 11.2883C19.6449 11.45 19.4065 11.6899 19.2413 11.9821C18.8487 12.7459 18.667 13.608 18.7164 14.4727C18.6386 15.455 18.8821 16.4359 19.4075 17.256Z" fill="#0F0F0F"/>
</svg>
