<svg width="32" height="32" viewBox="0 0 32 32" fill="none" xmlns="http://www.w3.org/2000/svg">
<path d="M18.3166 9.05146C18.1921 9.00952 18.0605 8.99261 17.9294 9.00172C17.7983 9.01083 17.6703 9.04577 17.5527 9.10454C17.4352 9.16331 17.3304 9.24475 17.2445 9.34416C17.1585 9.44357 17.0931 9.559 17.0519 9.68379L13.0519 21.6838C13.0104 21.8083 12.9938 21.9398 13.003 22.0708C13.0123 22.2017 13.0473 22.3295 13.1059 22.447C13.1646 22.5644 13.2458 22.6691 13.345 22.7552C13.4441 22.8412 13.5593 22.9069 13.6838 22.9484C13.8083 22.99 13.9398 23.0066 14.0707 22.9973C14.2017 22.9881 14.3295 22.9531 14.447 22.8944C14.5644 22.8358 14.6691 22.7545 14.7552 22.6554C14.8412 22.5563 14.9069 22.4411 14.9484 22.3166L18.9484 10.3166C19.0323 10.065 19.0129 9.79047 18.8944 9.55324C18.7759 9.316 18.5681 9.13552 18.3166 9.05146Z" fill="#0F0F0F"/>
<path d="M10.7072 9.29316C10.6144 9.20029 10.5042 9.12661 10.3828 9.07634C10.2615 9.02607 10.1315 9.0002 10.0002 9.0002C9.86887 9.0002 9.73884 9.02607 9.61752 9.07634C9.4962 9.12661 9.38598 9.20029 9.29315 9.29316L3.29315 15.2932C3.20027 15.386 3.12659 15.4962 3.07632 15.6175C3.02606 15.7389 3.00018 15.8689 3.00018 16.0002C3.00018 16.1315 3.02606 16.2615 3.07632 16.3829C3.12659 16.5042 3.20027 16.6144 3.29315 16.7072L9.29315 22.7072C9.48078 22.8942 9.73494 22.9991 9.99982 22.9989C10.2647 22.9986 10.5187 22.8933 10.706 22.706C10.8933 22.5187 10.9986 22.2647 10.9989 21.9998C10.9991 21.7349 10.8942 21.4808 10.7072 21.2932L5.41422 16.0002L10.7072 10.7072C10.8001 10.6143 10.8738 10.5041 10.924 10.3828C10.9743 10.2615 11.0002 10.1315 11.0002 10.0002C11.0002 9.86885 10.9743 9.73883 10.924 9.61752C10.8738 9.49621 10.8001 9.386 10.7072 9.29316Z" fill="#0F0F0F"/>
<path d="M28.7072 15.2932L22.7072 9.29316C22.6144 9.20005 22.5042 9.12615 22.3828 9.07568C22.2614 9.02522 22.1313 8.99918 21.9998 8.99907C21.8684 8.99896 21.7382 9.02476 21.6167 9.07502C21.4952 9.12527 21.3849 9.19898 21.2919 9.29193C21.199 9.38489 21.1253 9.49525 21.075 9.61673C21.0247 9.7382 20.9989 9.86838 20.9991 9.99984C20.9992 10.1313 21.0252 10.2614 21.0757 10.3828C21.1261 10.5042 21.2 10.6144 21.2931 10.7072L26.5862 16.0002L21.2931 21.2932C21.2 21.386 21.1261 21.4963 21.0757 21.6176C21.0252 21.739 20.9992 21.8692 20.9991 22.0006C20.9989 22.1321 21.0247 22.2623 21.075 22.3837C21.1253 22.5052 21.199 22.6156 21.2919 22.7085C21.3849 22.8015 21.4952 22.8752 21.6167 22.9255C21.7382 22.9757 21.8684 23.0015 21.9998 23.0014C22.1313 23.0013 22.2614 22.9753 22.3828 22.9248C22.5042 22.8743 22.6144 22.8004 22.7072 22.7073L28.7072 16.7073C28.8001 16.6145 28.8738 16.5042 28.9241 16.3829C28.9743 16.2616 29.0002 16.1316 29.0002 16.0002C29.0002 15.8689 28.9743 15.7389 28.9241 15.6175C28.8738 15.4962 28.8001 15.386 28.7072 15.2932Z" fill="#0F0F0F"/>
</svg>
