<svg width="32" height="32" viewBox="0 0 32 32" fill="none" xmlns="http://www.w3.org/2000/svg">
<path d="M24.9996 25.9996H6.99963C6.73442 25.9996 6.48006 26.105 6.29253 26.2925C6.10499 26.48 5.99963 26.7344 5.99963 26.9996C5.99963 27.2648 6.10499 27.5192 6.29253 27.7067C6.48006 27.8943 6.73442 27.9996 6.99963 27.9996H24.9996C25.2649 27.9996 25.5192 27.8943 25.7067 27.7067C25.8943 27.5192 25.9996 27.2648 25.9996 26.9996C25.9996 26.7344 25.8943 26.48 25.7067 26.2925C25.5192 26.105 25.2649 25.9996 24.9996 25.9996Z" fill="#0F0F0F"/>
<path d="M7.59338 23.9137C7.71342 23.967 7.84279 23.9962 7.97411 23.9996C8.10543 24.003 8.23613 23.9804 8.35874 23.9333C8.48135 23.8861 8.59347 23.8153 8.68869 23.7248C8.78391 23.6343 8.86037 23.5259 8.91369 23.4059L11.3165 17.9996H20.6828L23.0856 23.4059C23.1389 23.5259 23.2154 23.6342 23.3106 23.7247C23.4058 23.8152 23.518 23.8861 23.6406 23.9332C23.7632 23.9804 23.8938 24.0029 24.0252 23.9996C24.1565 23.9962 24.2858 23.967 24.4059 23.9137C24.5259 23.8603 24.6343 23.7838 24.7248 23.6886C24.8152 23.5934 24.8861 23.4813 24.9332 23.3587C24.9804 23.2361 25.0029 23.1054 24.9996 22.9741C24.9962 22.8428 24.967 22.7134 24.9137 22.5934L16.9137 4.59385C16.835 4.4171 16.7069 4.26695 16.5446 4.16157C16.3824 4.05619 16.1931 4.0001 15.9996 4.0001C15.8062 4.0001 15.6169 4.05619 15.4546 4.16157C15.2924 4.26695 15.1642 4.4171 15.0856 4.59385L7.08557 22.5934C6.978 22.8358 6.97106 23.111 7.06628 23.3586C7.16149 23.6061 7.35107 23.8058 7.59338 23.9137ZM15.9996 7.4625L19.7939 15.9996H12.2054L15.9996 7.4625Z" fill="#0F0F0F"/>
</svg>
