<svg width="32" height="32" viewBox="0 0 32 32" fill="none" xmlns="http://www.w3.org/2000/svg">
<path d="M24.9996 26.4996H6.99963C6.86703 26.4996 6.73985 26.5523 6.64608 26.6461C6.55231 26.7398 6.49963 26.867 6.49963 26.9996C6.49963 27.1322 6.55231 27.2594 6.64608 27.3532C6.73985 27.4469 6.86703 27.4996 6.99963 27.4996H24.9996C25.1322 27.4996 25.2594 27.4469 25.3532 27.3532C25.447 27.2594 25.4996 27.1322 25.4996 26.9996C25.4996 26.867 25.447 26.7398 25.3532 26.6461C25.2594 26.5523 25.1322 26.4996 24.9996 26.4996Z" fill="#0F0F0F"/>
<path d="M7.7965 23.4566C7.91773 23.5104 8.05533 23.5138 8.1791 23.4662C8.30287 23.4186 8.40269 23.3239 8.45666 23.2027L10.9914 17.4996H20.9996L21.0072 17.4981L23.5426 23.2027C23.5691 23.263 23.6073 23.3175 23.6549 23.3629C23.7025 23.4084 23.7586 23.4441 23.82 23.4678C23.8814 23.4916 23.9469 23.503 24.0127 23.5014C24.0785 23.4998 24.1434 23.4852 24.2036 23.4584C24.2637 23.4317 24.318 23.3933 24.3633 23.3456C24.4086 23.2978 24.4441 23.2415 24.4676 23.18C24.4911 23.1185 24.5022 23.053 24.5004 22.9872C24.4985 22.9213 24.4836 22.8565 24.4567 22.7965L16.4567 4.79697C16.4118 4.71494 16.3457 4.6465 16.2653 4.59881C16.1849 4.55113 16.0931 4.52597 15.9996 4.52597C15.9061 4.52597 15.8144 4.55113 15.734 4.59881C15.6536 4.6465 15.5875 4.71494 15.5426 4.79697L7.5426 22.7965C7.48886 22.9177 7.48541 23.0553 7.53301 23.1791C7.58061 23.3028 7.67538 23.4027 7.7965 23.4566ZM15.9996 6.23105L20.5634 16.4996H11.4359L15.9996 6.23105Z" fill="#0F0F0F"/>
</svg>
