<svg width="32" height="32" viewBox="0 0 32 32" fill="none" xmlns="http://www.w3.org/2000/svg">
<path d="M20.9992 17.25C21.6896 17.25 22.2492 16.6904 22.2492 16C22.2492 15.3096 21.6896 14.75 20.9992 14.75C20.3089 14.75 19.7492 15.3096 19.7492 16C19.7492 16.6904 20.3089 17.25 20.9992 17.25Z" fill="#0F0F0F"/>
<path d="M15.9992 17.25C16.6896 17.25 17.2492 16.6904 17.2492 16C17.2492 15.3096 16.6896 14.75 15.9992 14.75C15.3089 14.75 14.7492 15.3096 14.7492 16C14.7492 16.6904 15.3089 17.25 15.9992 17.25Z" fill="#0F0F0F"/>
<path d="M10.9992 17.25C11.6896 17.25 12.2492 16.6904 12.2492 16C12.2492 15.3096 11.6896 14.75 10.9992 14.75C10.3089 14.75 9.74921 15.3096 9.74921 16C9.74921 16.6904 10.3089 17.25 10.9992 17.25Z" fill="#0F0F0F"/>
<path d="M16 3.25C13.6942 3.25026 11.4317 3.87573 9.45313 5.05982C7.4746 6.24392 5.85416 7.94234 4.76429 9.9743C3.67443 12.0063 3.15592 14.2957 3.26395 16.599C3.37199 18.9022 4.10253 21.1331 5.37781 23.0541C4.9871 24.197 4.20002 25.1621 3.15911 25.7748C3.01071 25.8686 2.87491 25.9548 2.75771 26.0409C2.58222 26.1678 2.44343 26.3388 2.35544 26.5366C2.26745 26.7345 2.23339 26.9521 2.25671 27.1674C2.2799 27.3852 2.35947 27.5932 2.48758 27.7709C2.61568 27.9486 2.78789 28.0898 2.98721 28.1806C3.93409 28.5724 4.95086 28.7673 5.97551 28.7533C7.55214 28.7592 9.09763 28.3145 10.43 27.4716C12.1548 28.309 14.0462 28.7467 15.9635 28.7521C17.8808 28.7576 19.7746 28.3305 21.5041 27.5028C23.2335 26.6751 24.754 25.4681 25.9525 23.9715C27.1509 22.4749 27.9965 20.7273 28.4262 18.8588C28.8559 16.9902 28.8586 15.0488 28.4343 13.1791C28.01 11.3093 27.1695 9.5593 25.9753 8.05929C24.7811 6.55927 23.2641 5.34786 21.537 4.51521C19.8099 3.68255 17.9173 3.25009 16 3.25ZM16 27.25C14.1625 27.2498 12.3528 26.8006 10.7285 25.9414C10.6056 25.8762 10.467 25.8465 10.3282 25.8555C10.1894 25.8646 10.0558 25.9121 9.94241 25.9927C9.09852 26.588 8.13154 26.9859 7.11305 27.1569C6.09456 27.3279 5.05065 27.2676 4.05861 26.9805C5.43708 26.115 6.45504 24.7792 6.92381 23.2205C6.96716 23.1056 6.98146 22.9819 6.96544 22.8601C6.94943 22.7384 6.90359 22.6225 6.83201 22.5228C5.36937 20.4677 4.63974 17.9807 4.76029 15.4611C4.88084 12.9415 5.84456 10.5355 7.49673 8.62947C9.14889 6.72338 11.3937 5.42778 13.8706 4.95068C16.3475 4.47358 18.9129 4.84267 21.1549 5.99868C23.3969 7.15468 25.1854 9.03055 26.2332 11.3251C27.281 13.6196 27.5274 16.1997 26.9328 18.6511C26.3381 21.1024 24.937 23.2829 22.9543 24.8423C20.9717 26.4017 18.5225 27.2497 16 27.25Z" fill="#0F0F0F"/>
</svg>
