<svg width="32" height="32" viewBox="0 0 32 32" fill="none" xmlns="http://www.w3.org/2000/svg">
<path d="M20.9993 17C21.5515 17 21.9993 16.5523 21.9993 16C21.9993 15.4477 21.5515 15 20.9993 15C20.447 15 19.9993 15.4477 19.9993 16C19.9993 16.5523 20.447 17 20.9993 17Z" fill="#0F0F0F"/>
<path d="M15.9993 17C16.5515 17 16.9993 16.5523 16.9993 16C16.9993 15.4477 16.5515 15 15.9993 15C15.447 15 14.9993 15.4477 14.9993 16C14.9993 16.5523 15.447 17 15.9993 17Z" fill="#0F0F0F"/>
<path d="M10.9993 17C11.5515 17 11.9993 16.5523 11.9993 16C11.9993 15.4477 11.5515 15 10.9993 15C10.447 15 9.99926 15.4477 9.99926 16C9.99926 16.5523 10.447 17 10.9993 17Z" fill="#0F0F0F"/>
<path d="M16.0001 3.5C13.7284 3.5003 11.4997 4.11959 9.55346 5.29131C7.60726 6.46303 6.01711 8.14291 4.95386 10.1504C3.89062 12.158 3.39447 14.4173 3.51874 16.6856C3.643 18.9539 4.38298 21.1454 5.65916 23.0248C5.25997 24.2684 4.41793 25.3221 3.29296 25.9858C3.14936 26.0766 3.01856 26.1591 2.90526 26.2426C2.76526 26.3439 2.65453 26.4804 2.58428 26.6382C2.51403 26.7961 2.48677 26.9697 2.50526 27.1415C2.52264 27.3164 2.58599 27.4836 2.6889 27.6262C2.7918 27.7687 2.93059 27.8815 3.09116 27.953C4.00497 28.331 4.98617 28.5189 5.97496 28.5053C7.552 28.5108 9.09574 28.0517 10.4135 27.1853C12.1004 28.0278 13.956 28.4777 15.8415 28.5014C17.7269 28.5251 19.5933 28.122 21.3009 27.3223C23.0085 26.5226 24.513 25.3469 25.7019 23.8834C26.8908 22.4198 27.7332 20.7063 28.1661 18.8711C28.599 17.0359 28.6111 15.1265 28.2015 13.2859C27.792 11.4453 26.9714 9.72125 25.8011 8.24273C24.6309 6.76422 23.1414 5.56958 21.4441 4.74825C19.7468 3.92693 17.8856 3.50019 16.0001 3.5ZM16.0001 27.5C14.1217 27.4999 12.2718 27.0408 10.6114 26.1626C10.5392 26.1242 10.4588 26.104 10.3771 26.104C10.2732 26.1042 10.1719 26.1365 10.0871 26.1963C9.14086 26.8638 8.04607 27.2904 6.89767 27.4389C5.74927 27.5875 4.58197 27.4536 3.49706 27.0488C3.59376 26.978 3.70506 26.9082 3.82616 26.8316C5.21225 26.003 6.23492 24.6821 6.69006 23.1327C6.71862 23.056 6.72794 22.9735 6.71722 22.8924C6.7065 22.8113 6.67606 22.734 6.62856 22.6674C5.13359 20.5666 4.38793 18.0244 4.51128 15.449C4.63464 12.8735 5.61986 10.4142 7.30876 8.46596C8.99766 6.51769 11.2923 5.19346 13.8241 4.70589C16.356 4.21832 18.9783 4.5957 21.27 5.77744C23.5616 6.95917 25.3897 8.87671 26.4607 11.2222C27.5317 13.5676 27.7834 16.2049 27.1755 18.7107C26.5676 21.2164 25.1354 23.4451 23.1087 25.0391C21.082 26.6331 18.5785 27.4997 16.0001 27.5Z" fill="#0F0F0F"/>
</svg>
