<svg width="32" height="32" viewBox="0 0 32 32" fill="none" xmlns="http://www.w3.org/2000/svg">
<path d="M16 3.5C13.7284 3.50061 11.4999 4.12007 9.55386 5.29185C7.60782 6.46362 6.0178 8.14344 4.95458 10.1508C3.89136 12.1582 3.39512 14.4174 3.51917 16.6856C3.64322 18.9538 4.38288 21.1453 5.65868 23.0248C5.25966 24.2691 4.41716 25.3232 3.29148 25.9867C3.14888 26.0767 3.01898 26.1596 2.90378 26.2435C2.76398 26.345 2.65349 26.4817 2.58353 26.6396C2.51356 26.7976 2.4866 26.9713 2.50538 27.143C2.52304 27.3176 2.58653 27.4844 2.68942 27.6266C2.79231 27.7687 2.93094 27.8812 3.09128 27.9525C4.00521 28.3314 4.98683 28.5198 5.97608 28.5062C7.55294 28.5114 9.09638 28.0519 10.4136 27.185C12.1005 28.0276 13.9562 28.4776 15.8417 28.5014C17.7272 28.5252 19.5937 28.1222 21.3013 27.3224C23.009 26.5227 24.5136 25.3471 25.7026 23.8835C26.8915 22.4199 27.734 20.7063 28.1668 18.871C28.5997 17.0357 28.6118 15.1263 28.2022 13.2857C27.7926 11.445 26.9719 9.72092 25.8016 8.24239C24.6313 6.76387 23.1416 5.56925 21.4442 4.74798C19.7468 3.92671 17.8856 3.50007 16 3.5ZM10.9987 17.5C10.702 17.5 10.412 17.412 10.1653 17.2472C9.91865 17.0824 9.72639 16.8481 9.61286 16.574C9.49933 16.2999 9.46962 15.9983 9.5275 15.7074C9.58538 15.4164 9.72824 15.1491 9.93802 14.9393C10.1478 14.7296 10.4151 14.5867 10.706 14.5288C10.997 14.4709 11.2986 14.5006 11.5727 14.6142C11.8468 14.7277 12.0811 14.92 12.2459 15.1666C12.4107 15.4133 12.4987 15.7033 12.4987 16C12.4987 16.3977 12.3407 16.7792 12.0595 17.0605C11.7783 17.3418 11.3964 17.4999 10.9987 17.5ZM15.9987 17.5C15.702 17.5 15.412 17.412 15.1653 17.2472C14.9186 17.0824 14.7264 16.8481 14.6129 16.574C14.4993 16.2999 14.4696 15.9983 14.5275 15.7074C14.5854 15.4164 14.7282 15.1491 14.938 14.9393C15.1478 14.7296 15.4151 14.5867 15.706 14.5288C15.997 14.4709 16.2986 14.5006 16.5727 14.6142C16.8468 14.7277 17.0811 14.92 17.2459 15.1666C17.4107 15.4133 17.4987 15.7033 17.4987 16C17.4987 16.3977 17.3407 16.7792 17.0595 17.0605C16.7783 17.3418 16.3964 17.4999 15.9987 17.5ZM20.9987 17.5C20.702 17.5 20.412 17.412 20.1653 17.2472C19.9186 17.0824 19.7264 16.8481 19.6129 16.574C19.4993 16.2999 19.4696 15.9983 19.5275 15.7074C19.5854 15.4164 19.7282 15.1491 19.938 14.9393C20.1478 14.7296 20.4151 14.5867 20.706 14.5288C20.997 14.4709 21.2986 14.5006 21.5727 14.6142C21.8468 14.7277 22.0811 14.92 22.2459 15.1666C22.4107 15.4133 22.4987 15.7033 22.4987 16C22.4987 16.3977 22.3407 16.7792 22.0595 17.0605C21.7783 17.3418 21.3964 17.4999 20.9987 17.5Z" fill="#0F0F0F"/>
</svg>
