<svg width="32" height="32" viewBox="0 0 32 32" fill="none" xmlns="http://www.w3.org/2000/svg">
<path d="M20.9992 17.5C21.8276 17.5 22.4992 16.8284 22.4992 16C22.4992 15.1716 21.8276 14.5 20.9992 14.5C20.1708 14.5 19.4992 15.1716 19.4992 16C19.4992 16.8284 20.1708 17.5 20.9992 17.5Z" fill="#0F0F0F"/>
<path d="M15.9992 17.5C16.8276 17.5 17.4992 16.8284 17.4992 16C17.4992 15.1716 16.8276 14.5 15.9992 14.5C15.1708 14.5 14.4992 15.1716 14.4992 16C14.4992 16.8284 15.1708 17.5 15.9992 17.5Z" fill="#0F0F0F"/>
<path d="M10.9992 17.5C11.8276 17.5 12.4992 16.8284 12.4992 16C12.4992 15.1716 11.8276 14.5 10.9992 14.5C10.1708 14.5 9.49921 15.1716 9.49921 16C9.49921 16.8284 10.1708 17.5 10.9992 17.5Z" fill="#0F0F0F"/>
<path d="M16 3C13.6604 3.00026 11.3642 3.63182 9.35361 4.82808C7.34297 6.02434 5.69238 7.74097 4.57588 9.79696C3.45938 11.853 2.91834 14.1721 3.00981 16.5099C3.10128 18.8477 3.82187 21.1175 5.09561 23.08C4.72037 24.1262 3.98711 25.0059 3.02561 25.5634C2.87131 25.6606 2.73171 25.75 2.61061 25.8393C2.39979 25.9918 2.23303 26.1973 2.12722 26.435C2.02141 26.6727 1.98032 26.9341 2.00811 27.1928C2.0358 27.4541 2.13116 27.7036 2.28477 27.9167C2.43838 28.1299 2.64492 28.2993 2.88401 28.4082C3.86391 28.8141 4.91625 29.0161 5.97681 29.0019C7.55294 29.008 9.0999 28.5769 10.4456 27.7563C12.2079 28.5889 14.1348 29.0146 16.0838 29.0019C18.0328 28.9893 19.9541 28.5385 21.7054 27.6831C23.4567 26.8277 24.9932 25.5895 26.2014 24.06C27.4096 22.5306 28.2584 20.7491 28.6851 18.8473C29.1117 16.9455 29.1054 14.9722 28.6664 13.0732C28.2275 11.1742 27.3672 9.39818 26.1492 7.87656C24.9312 6.35494 23.3867 5.12664 21.6299 4.28253C19.8732 3.43842 17.9491 3.0001 16 3ZM16 27C14.2033 26.9998 12.4339 26.5606 10.8457 25.7207C10.6819 25.6338 10.4972 25.5942 10.3121 25.6063C10.1271 25.6183 9.94905 25.6816 9.79791 25.789C9.06114 26.3106 8.22548 26.676 7.3423 26.8628C6.45911 27.0495 5.54706 27.0537 4.66221 26.875C5.84156 25.9711 6.71323 24.7253 7.15821 23.3076C7.21542 23.1543 7.23421 22.9893 7.21294 22.8271C7.19168 22.6648 7.131 22.5103 7.03621 22.3769C5.60644 20.3674 4.89341 17.9358 5.01159 15.4724C5.12977 13.009 6.0723 10.6568 7.68786 8.79336C9.30342 6.92997 11.4983 5.66351 13.92 5.19732C16.3418 4.73113 18.85 5.09226 21.0418 6.22273C23.2337 7.35319 24.9821 9.18741 26.0064 11.4309C27.0306 13.6744 27.2713 16.1969 26.6897 18.5936C26.1081 20.9903 24.7381 23.122 22.7995 24.6465C20.8609 26.171 18.4662 26.9999 16 27Z" fill="#0F0F0F"/>
</svg>
