<svg width="32" height="32" viewBox="0 0 32 32" fill="none" xmlns="http://www.w3.org/2000/svg">
<path fill-rule="evenodd" clip-rule="evenodd" d="M24.0885 13.2183C24.9008 12.8491 25.6466 12.3995 26.25 11.875V16C26.25 16.1296 26.2328 16.2625 26.1975 16.3976C26.7968 16.8474 27.3216 17.391 27.75 18.0067V9C27.75 7.14433 26.1295 5.7094 24.0885 4.78169C21.9799 3.8232 19.1194 3.25 16 3.25C12.8806 3.25 10.0201 3.8232 7.91147 4.78169C5.87051 5.7094 4.25 7.14433 4.25 9L4.25013 9.02884L4.25 9.04298V23.9999C4.25 24.323 4.45427 24.5984 4.74071 24.7039C5.37083 25.7515 6.54722 26.5982 7.91147 27.2183C10.0201 28.1768 12.8806 28.75 16 28.75C17.1881 28.75 18.3386 28.6668 19.4244 28.5109C18.6478 28.2035 17.9394 27.7611 17.328 27.2128C16.8937 27.2373 16.4505 27.25 16 27.25C13.0443 27.25 10.4047 26.7039 8.53218 25.8528C6.59193 24.9708 5.75 23.9058 5.75 23V18.875C6.35345 19.3995 7.09916 19.8491 7.91147 20.2183C9.79381 21.0739 12.2752 21.6225 15.0051 21.7304C15.0246 21.2166 15.0994 20.717 15.2238 20.2374C12.5836 20.1511 10.2392 19.6287 8.53218 18.8528C6.59193 17.9708 5.75 16.9058 5.75 16V11.875C6.35345 12.3995 7.09916 12.8491 7.91147 13.2183C10.0201 14.1768 12.8806 14.75 16 14.75C19.1194 14.75 21.9799 14.1768 24.0885 13.2183ZM8.53218 6.14724C6.59193 7.02917 5.75 8.09425 5.75 9C5.75 9.90575 6.59193 10.9708 8.53218 11.8528C10.4047 12.7039 13.0443 13.25 16 13.25C18.9557 13.25 21.5953 12.7039 23.4678 11.8528C25.4081 10.9708 26.25 9.90575 26.25 9C26.25 8.09425 25.4081 7.02917 23.4678 6.14724C21.5953 5.29608 18.9557 4.75 16 4.75C13.0443 4.75 10.4047 5.29608 8.53218 6.14724Z" fill="#0F0F0F"/>
<path fill-rule="evenodd" clip-rule="evenodd" d="M27.5 22C27.5 25.0376 25.0376 27.5 22 27.5C18.9624 27.5 16.5 25.0376 16.5 22C16.5 18.9624 18.9624 16.5 22 16.5C25.0376 16.5 27.5 18.9624 27.5 22ZM24.7959 21.1847C25.1104 20.9151 25.1468 20.4416 24.8772 20.1271C24.6076 19.8126 24.1342 19.7762 23.8197 20.0458L21.1176 22.3619L20.224 21.4639C19.9319 21.1702 19.457 21.169 19.1634 21.4612C18.8698 21.7534 18.8686 22.2282 19.1607 22.5219L20.5453 23.9135C20.8223 24.1918 21.267 24.2094 21.5651 23.9539L24.7959 21.1847Z" fill="#0F0F0F"/>
</svg>
