<svg width="32" height="32" viewBox="0 0 32 32" fill="none" xmlns="http://www.w3.org/2000/svg">
<path fill-rule="evenodd" clip-rule="evenodd" d="M8.63563 6.37483C6.71217 7.24913 6 8.25257 6 9C6 9.74743 6.71217 10.7509 8.63563 11.6252C10.4688 12.4584 13.0716 13 16 13C18.9284 13 21.5312 12.4584 23.3644 11.6252C25.2878 10.7509 26 9.74743 26 9C26 8.25257 25.2878 7.24913 23.3644 6.37483C21.5312 5.54156 18.9284 5 16 5C13.0716 5 10.4688 5.54156 8.63563 6.37483ZM24.192 13.4459C24.8402 13.1513 25.4579 12.8009 26 12.3963V16C26 16.077 25.9925 16.1566 25.9768 16.2386C26.7943 16.8039 27.4857 17.5388 28 18.3924V9C28 6.98601 26.2497 5.48944 24.192 4.5541C22.044 3.57772 19.1467 3 16 3C12.8533 3 9.95605 3.57772 7.80802 4.5541C5.75027 5.48944 4 6.98601 4 9L4.00011 9.02787L4 9.04298V23.9999C4 24.3977 4.23222 24.7412 4.56848 24.9023C5.24756 25.9821 6.46201 26.8341 7.80802 27.4459C9.95605 28.4223 12.8533 29 16 29C17.3687 29 18.6902 28.8907 19.9234 28.6868C18.8373 28.3499 17.8644 27.7557 17.076 26.9754C16.7229 26.9916 16.364 27 16 27C13.0716 27 10.4688 26.4584 8.63563 25.6252C6.71217 24.7509 6 23.7474 6 23V19.3963C6.54209 19.8009 7.1598 20.1513 7.80802 20.4459C9.72643 21.3179 12.2424 21.8719 15 21.9804C15.0019 21.2885 15.1042 20.6203 15.293 19.9894C12.6538 19.9101 10.3199 19.3907 8.63563 18.6252C6.71217 17.7509 6 16.7474 6 16V12.3963C6.54209 12.8009 7.1598 13.1513 7.80802 13.4459C9.95605 14.4223 12.8533 15 16 15C19.1467 15 22.044 14.4223 24.192 13.4459Z" fill="#0F0F0F"/>
<path fill-rule="evenodd" clip-rule="evenodd" d="M27 22C27 24.7614 24.7614 27 22 27C19.2386 27 17 24.7614 17 22C17 19.2386 19.2386 17 22 17C24.7614 17 27 19.2386 27 22ZM24.9586 21.3745C25.3779 21.0151 25.4264 20.3838 25.067 19.9644C24.7076 19.5451 24.0763 19.4966 23.657 19.856L21.1311 22.021L20.4013 21.2875C20.0117 20.896 19.3786 20.8944 18.9871 21.284C18.5956 21.6735 18.594 22.3067 18.9835 22.6982L20.3681 24.0898C20.7374 24.4609 21.3303 24.4844 21.7278 24.1437L24.9586 21.3745Z" fill="#0F0F0F"/>
</svg>
