<svg width="32" height="32" viewBox="0 0 32 32" fill="none" xmlns="http://www.w3.org/2000/svg">
<path d="M21.9998 3.49963H9.99979C8.98162 3.50181 7.99426 3.84909 7.1989 4.48477C6.40355 5.12045 5.84718 6.00698 5.62064 6.99963H2.99979C2.73458 6.99963 2.48022 7.10499 2.29268 7.29253C2.10515 7.48006 1.99979 7.73442 1.99979 7.99963C1.99979 8.26485 2.10515 8.5192 2.29268 8.70674C2.48022 8.89428 2.73458 8.99963 2.99979 8.99963H5.49979V14.9996H2.99979C2.73458 14.9996 2.48022 15.105 2.29268 15.2925C2.10515 15.4801 1.99979 15.7344 1.99979 15.9996C1.99979 16.2649 2.10515 16.5192 2.29268 16.7067C2.48022 16.8943 2.73458 16.9996 2.99979 16.9996H5.49979V22.9998L2.99979 23.0006C2.73458 23.0006 2.48022 23.106 2.29268 23.2935C2.10515 23.481 1.99979 23.7354 1.99979 24.0006C1.99979 24.2658 2.10515 24.5202 2.29268 24.7077C2.48022 24.8953 2.73458 25.0006 2.99979 25.0006L5.6207 24.9998C5.84725 25.9924 6.40361 26.8789 7.19895 27.5146C7.9943 28.1502 8.98164 28.4975 9.99979 28.4996H21.9998C23.1929 28.4983 24.3367 28.0238 25.1803 27.1802C26.024 26.3365 26.4985 25.1927 26.4998 23.9996V7.99963C26.4985 6.80656 26.024 5.66273 25.1803 4.81909C24.3367 3.97546 23.1929 3.50094 21.9998 3.49963ZM16 9.49999C16.4945 9.49999 16.9778 9.64662 17.3889 9.92132C17.8001 10.196 18.1205 10.5865 18.3097 11.0433C18.4989 11.5001 18.5484 12.0028 18.452 12.4877C18.3555 12.9727 18.1174 13.4181 17.7678 13.7678C17.4181 14.1174 16.9727 14.3555 16.4877 14.452C16.0028 14.5484 15.5001 14.4989 15.0433 14.3097C14.5865 14.1205 14.196 13.8 13.9213 13.3889C13.6466 12.9778 13.5 12.4944 13.5 12C13.5 11.337 13.7634 10.7011 14.2322 10.2322C14.7011 9.76339 15.337 9.49999 16 9.49999ZM11 20.7426C11 18.3995 13.2386 16.5 16 16.5C18.7615 16.5 21 18.3995 21 20.7426C21 23.0857 11 23.0858 11 20.7426Z" fill="#0F0F0F"/>
</svg>
