<svg width="32" height="32" viewBox="0 0 32 32" fill="none" xmlns="http://www.w3.org/2000/svg">
<path d="M24.9962 5.49969H7.00401C5.80992 5.50106 4.66513 5.97602 3.82078 6.82037C2.97643 7.66472 2.50148 8.80951 2.50011 10.0036V21.9958C2.50148 23.1899 2.97643 24.3347 3.82078 25.179C4.66513 26.0234 5.80992 26.4983 7.00401 26.4997H24.9962C26.1902 26.4983 27.335 26.0234 28.1794 25.179C29.0237 24.3347 29.4987 23.1899 29.5001 21.9958V10.0036C29.4987 8.80951 29.0237 7.66472 28.1794 6.82037C27.335 5.97602 26.1902 5.50106 24.9962 5.49969ZM28.5001 21.9958C28.499 22.9247 28.1294 23.8153 27.4726 24.4722C26.8157 25.1291 25.9251 25.4986 24.9962 25.4997H7.00401C6.07506 25.4986 5.18447 25.1291 4.5276 24.4722C3.87073 23.8153 3.50122 22.9247 3.50011 21.9958V10.0036C3.50122 9.07465 3.87073 8.18406 4.5276 7.52719C5.18447 6.87032 6.07505 6.5008 7.00401 6.49969H24.9962C25.9251 6.5008 26.8157 6.87032 27.4726 7.52719C28.1294 8.18406 28.499 9.07465 28.5001 10.0036V21.9958Z" fill="#0F0F0F"/>
<path d="M13.3961 15.8091C13.876 15.4178 14.223 14.8875 14.3896 14.291C14.5561 13.6946 14.534 13.0612 14.3263 12.4779C14.1186 11.8945 13.7354 11.3897 13.2294 11.0327C12.7234 10.6758 12.1193 10.4841 11.5001 10.4841C10.8808 10.4841 10.2767 10.6758 9.77071 11.0327C9.2647 11.3897 8.88154 11.8945 8.67382 12.4779C8.4661 13.0612 8.44399 13.6946 8.61053 14.291C8.77708 14.8875 9.12411 15.4178 9.60401 15.8091C8.76023 16.0256 8.00613 16.5024 7.44891 17.172C6.89168 17.8416 6.55967 18.6697 6.50007 19.5388C6.50007 20.0261 6.80671 20.695 8.26716 21.1179C9.32261 21.3909 10.41 21.5206 11.5001 21.5036C12.3351 21.5036 16.5001 21.4089 16.5001 19.5388C16.4405 18.6697 16.1085 17.8415 15.5512 17.172C14.994 16.5024 14.2399 16.0256 13.3961 15.8091ZM9.50007 13.5036C9.50007 13.108 9.61736 12.7214 9.83713 12.3925C10.0569 12.0636 10.3692 11.8072 10.7347 11.6558C11.1002 11.5045 11.5023 11.4649 11.8902 11.542C12.2782 11.6192 12.6346 11.8097 12.9143 12.0894C13.194 12.3691 13.3845 12.7255 13.4616 13.1134C13.5388 13.5014 13.4992 13.9035 13.3478 14.269C13.1965 14.6344 12.9401 14.9468 12.6112 15.1665C12.2823 15.3863 11.8956 15.5036 11.5001 15.5036C10.9698 15.503 10.4615 15.2921 10.0865 14.9171C9.71158 14.5422 9.50067 14.0338 9.50007 13.5036ZM11.5001 20.5036C8.87407 20.5036 7.50007 19.8757 7.50007 19.5388C7.50007 17.8649 9.2945 16.5036 11.5001 16.5036C13.7056 16.5036 15.5001 17.8649 15.5001 19.5388C15.5001 19.8757 14.126 20.5036 11.5001 20.5036Z" fill="#0F0F0F"/>
<path d="M25.0001 11.4997H18.0001C17.8675 11.4997 17.7403 11.5524 17.6465 11.6461C17.5527 11.7399 17.5001 11.8671 17.5001 11.9997C17.5001 12.1323 17.5527 12.2595 17.6465 12.3532C17.7403 12.447 17.8675 12.4997 18.0001 12.4997H25.0001C25.1327 12.4997 25.2599 12.447 25.3536 12.3532C25.4474 12.2595 25.5001 12.1323 25.5001 11.9997C25.5001 11.8671 25.4474 11.7399 25.3536 11.6461C25.2599 11.5524 25.1327 11.4997 25.0001 11.4997Z" fill="#0F0F0F"/>
<path d="M25.0001 15.4997H19.0001C18.8675 15.4997 18.7403 15.5524 18.6465 15.6461C18.5527 15.7399 18.5001 15.8671 18.5001 15.9997C18.5001 16.1323 18.5527 16.2595 18.6465 16.3532C18.7403 16.447 18.8675 16.4997 19.0001 16.4997H25.0001C25.1327 16.4997 25.2599 16.447 25.3536 16.3532C25.4474 16.2595 25.5001 16.1323 25.5001 15.9997C25.5001 15.8671 25.4474 15.7399 25.3536 15.6461C25.2599 15.5524 25.1327 15.4997 25.0001 15.4997Z" fill="#0F0F0F"/>
<path d="M25.0001 19.4997H20.0001C19.8675 19.4997 19.7403 19.5524 19.6465 19.6461C19.5527 19.7399 19.5001 19.8671 19.5001 19.9997C19.5001 20.1323 19.5527 20.2595 19.6465 20.3532C19.7403 20.447 19.8675 20.4997 20.0001 20.4997H25.0001C25.1327 20.4997 25.2599 20.447 25.3536 20.3532C25.4474 20.2595 25.5001 20.1323 25.5001 19.9997C25.5001 19.8671 25.4474 19.7399 25.3536 19.6461C25.2599 19.5524 25.1327 19.4997 25.0001 19.4997Z" fill="#0F0F0F"/>
</svg>
