<svg width="32" height="32" viewBox="0 0 32 32" fill="none" xmlns="http://www.w3.org/2000/svg">
<path d="M10.75 3.02278C10.75 2.59599 10.4142 2.25 10 2.25C9.58579 2.25 9.25 2.59599 9.25 3.02278V5.24453H9C6.39927 5.24453 4.25 7.35517 4.25 10.01V23.9845C4.25 26.6394 6.39927 28.75 9 28.75H23C25.6007 28.75 27.75 26.6394 27.75 23.9845V10.01C27.75 7.35517 25.6007 5.24453 23 5.24453H22.75V3.02278C22.75 2.59599 22.4142 2.25 22 2.25C21.5858 2.25 21.25 2.59599 21.25 3.02278V5.24453H10.75V3.02278ZM23 6.7901C24.8175 6.7901 26.25 8.25465 26.25 10.01V23.9845C26.25 25.7399 24.8175 27.2044 23 27.2044H9C7.18245 27.2044 5.75 25.7399 5.75 23.9845V10.01C5.75 8.25465 7.18245 6.7901 9 6.7901H23ZM22.4776 13.9998C22.797 13.728 22.842 13.241 22.5783 12.9119C22.3145 12.5828 21.8417 12.5364 21.5224 12.8082L13.6397 19.5169L10.5218 16.4056C10.2242 16.1086 9.74941 16.1165 9.46125 16.4231C9.17308 16.7296 9.18068 17.2189 9.47823 17.5158L13.0782 21.1082C13.3527 21.3821 13.7831 21.3996 14.0776 21.1489L22.4776 13.9998Z" fill="#0F0F0F"/>
</svg>
