<svg width="32" height="32" viewBox="0 0 32 32" fill="none" xmlns="http://www.w3.org/2000/svg">
<path d="M3.58115 22.7523L7.55229 22.7549C8.01241 22.7546 8.46797 22.6637 8.89292 22.4872C9.31786 22.3108 9.70386 22.0523 10.0288 21.7266C10.3538 21.4008 10.6114 21.0143 10.7869 20.5889C10.9624 20.1636 11.0524 19.7078 11.0516 19.2477C11.0516 19.2477 11.0362 17.5183 11.0325 16.7895C12.385 15.5287 14.1656 14.8281 16.0146 14.8293C17.8636 14.8305 19.6433 15.5334 20.9941 16.796C20.9926 17.5235 20.9788 19.2536 20.9788 19.2614C20.9793 20.1906 21.3487 21.0815 22.0057 21.7385C22.6627 22.3955 23.5536 22.7649 24.4828 22.7654L28.4539 22.768C29.3789 22.7475 30.2602 22.3709 30.9144 21.7167C31.5686 21.0626 31.9451 20.1812 31.9657 19.2563L31.9649 17.1335C31.9629 14.2679 27.2811 8.90994 16.0081 8.90183C9.95129 8.89784 6.17043 10.4564 4.06477 11.7657C3.29852 12.2362 2.58845 12.7926 1.94833 13.4241C0.866889 14.3637 0.191328 15.6856 0.0633545 17.1125L0.0638198 19.2349C0.0653719 20.1673 0.436444 21.0611 1.09573 21.7203C1.75503 22.3796 2.64877 22.7507 3.58115 22.7523ZM1.94713 19.2367L1.9458 17.1134C1.94527 16.2423 2.91816 14.6968 5.06081 13.3648C6.95803 12.1861 10.3969 10.7807 16.009 10.7844C26.0301 10.7919 30.0809 15.2676 30.0821 17.1323L30.0829 19.255C30.0732 19.6843 29.8983 20.0933 29.5947 20.3969C29.2911 20.7005 28.8821 20.8753 28.4529 20.885L24.4817 20.8824C24.0535 20.8822 23.6427 20.7125 23.3392 20.4105C23.0357 20.1084 22.864 19.6985 22.8617 19.2703C22.8617 19.2703 22.8793 17.1189 22.8776 16.5949C22.8577 16.3593 22.7907 16.13 22.6805 15.9208C22.5704 15.7116 22.4194 15.5266 22.2364 15.3768C20.5262 13.8363 18.3131 12.9722 16.0115 12.9463C12.5391 12.9434 9.14552 15.2466 9.14898 16.5846C9.14932 17.1086 9.16894 19.2541 9.16894 19.2541C9.16864 19.6831 8.99809 20.0944 8.69475 20.3977C8.39141 20.7011 7.98008 20.8716 7.55109 20.8719L3.58002 20.8693C3.1472 20.8685 2.73236 20.6962 2.42629 20.3902C2.12022 20.0842 1.94805 19.6695 1.94713 19.2367Z" fill="#0F0F0F"/>
</svg>
