<svg width="32" height="32" viewBox="0 0 32 32" fill="none" xmlns="http://www.w3.org/2000/svg">
<path d="M3.58506 22.2872L7.55341 22.2874C8.35697 22.2859 9.12715 21.9657 9.69499 21.3972C10.2628 20.8286 10.582 20.058 10.5825 19.2545C10.5825 19.2545 10.5642 17.1129 10.5525 16.6673C11.2607 15.9352 12.1094 15.3536 13.0478 14.9574C13.9862 14.5612 14.9949 14.3585 16.0134 14.3615C18.0498 14.3708 20.003 15.1701 21.4617 16.5909C21.4623 17.1153 21.4442 19.2542 21.4442 19.2581C21.444 19.6559 21.5222 20.0498 21.6744 20.4174C21.8266 20.7849 22.0497 21.1189 22.331 21.4002C22.6123 21.6815 22.9463 21.9046 23.3138 22.0568C23.6814 22.209 24.0753 22.2872 24.4731 22.287L28.4415 22.2866C29.2422 22.2679 30.0049 21.9414 30.5713 21.3751C31.1376 20.8087 31.4641 20.046 31.4829 19.2453L31.4835 17.1239C31.4835 15.5476 29.9989 13.6069 27.7023 12.1784C25.6492 10.9011 21.9548 9.37942 16.0132 9.37875C10.0715 9.37809 6.37686 10.9009 4.32416 12.1773C3.59419 12.6263 2.91779 13.1571 2.30805 13.7593C1.31361 14.6157 0.682638 15.8187 0.543433 17.1237L0.542969 19.2451C0.54287 19.6447 0.621485 20.0403 0.774326 20.4094C0.927167 20.7785 1.15123 21.1139 1.43373 21.3964C1.71623 21.6789 2.05162 21.903 2.42074 22.0558C2.78986 22.2087 3.18555 22.2873 3.58506 22.2872Z" fill="#0F0F0F"/>
</svg>
