<svg width="32" height="32" viewBox="0 0 32 32" fill="none" xmlns="http://www.w3.org/2000/svg">
<path d="M3.58995 22.2872L7.5583 22.2874C8.36193 22.2861 9.13223 21.966 9.70013 21.3974C10.268 20.8288 10.5871 20.0581 10.5873 19.2545C10.5873 19.2545 10.5691 17.1129 10.5574 16.6673C11.2657 15.9354 12.1145 15.3539 13.0528 14.9577C13.9911 14.5615 14.9998 14.3587 16.0183 14.3615C18.0546 14.3708 20.0078 15.1701 21.4666 16.5909C21.4672 17.1153 21.449 19.2542 21.449 19.2581C21.4489 19.6559 21.5271 20.0498 21.6793 20.4174C21.8314 20.7849 22.0546 21.1189 22.3358 21.4002C22.6171 21.6815 22.9511 21.9046 23.3187 22.0568C23.6862 22.209 24.0802 22.2872 24.478 22.287L28.4464 22.2866C29.2471 22.2679 30.0098 21.9414 30.5762 21.3751C31.1425 20.8087 31.469 20.046 31.4877 19.2453L31.4883 17.1239C31.4883 15.5477 30.0037 13.6069 27.7071 12.1784C25.654 10.9011 21.9597 9.37943 16.018 9.3787C10.0762 9.37797 6.38175 10.9009 4.32905 12.1773C3.59908 12.6263 2.92267 13.1571 2.31294 13.7593C1.31849 14.6157 0.687522 15.8187 0.548318 17.1237L0.547852 19.2452C0.547753 19.6447 0.62637 20.0403 0.77921 20.4094C0.932051 20.7785 1.15612 21.1139 1.43862 21.3964C1.72112 21.6789 2.05651 21.903 2.42563 22.0558C2.79475 22.2087 3.19044 22.2873 3.58995 22.2872ZM1.48868 19.2452L1.48934 17.1239C1.48934 16.0921 2.52112 14.412 4.82631 12.9761C6.77482 11.7643 10.2976 10.3193 16.0178 10.3193C26.3672 10.32 30.5476 15.1214 30.5476 17.1239L30.5469 19.2452C30.534 19.7983 30.3086 20.3251 29.9174 20.7163C29.5262 21.1074 28.9994 21.3329 28.4464 21.3458H24.4778C23.9246 21.3461 23.3939 21.1267 23.0024 20.7358C22.6108 20.345 22.3904 19.8147 22.3896 19.2615C22.3896 19.2615 22.4076 17.1145 22.4071 16.5905C22.4072 16.4281 22.3552 16.159 21.905 15.7075C20.2868 14.2537 18.1937 13.4405 16.0184 13.4204C12.7181 13.4208 9.62843 15.6015 9.62836 16.5904C9.62836 17.1141 9.64659 19.2582 9.64659 19.2582C9.6459 19.8118 9.42566 20.3426 9.0342 20.734C8.64273 21.1255 8.11198 21.3457 7.55836 21.3464H3.58981C3.31386 21.3464 3.0406 21.2921 2.78565 21.1865C2.53069 21.081 2.29903 20.9262 2.10391 20.7311C1.90878 20.5359 1.75401 20.3043 1.64843 20.0493C1.54286 19.7944 1.48862 19.5211 1.48868 19.2452Z" fill="#0F0F0F"/>
</svg>
