<svg width="32" height="32" viewBox="0 0 32 32" fill="none" xmlns="http://www.w3.org/2000/svg">
<g clip-path="url(#clip0_38580_23698)">
<path d="M3.58969 22.2872L7.55804 22.2874C8.36167 22.2861 9.13197 21.966 9.69987 21.3974C10.2678 20.8288 10.5868 20.0581 10.5871 19.2545C10.5871 19.2545 10.5689 17.1129 10.5572 16.6673C11.2655 15.9354 12.1142 15.3539 13.0526 14.9577C13.9909 14.5615 14.9995 14.3587 16.0181 14.3615C18.0544 14.3708 20.0076 15.1701 21.4664 16.5909C21.467 17.1153 21.4488 19.2542 21.4488 19.2581C21.4486 19.6559 21.5269 20.0498 21.679 20.4174C21.8312 20.7849 22.0543 21.1189 22.3356 21.4002C22.6169 21.6815 22.9509 21.9046 23.3185 22.0568C23.686 22.209 24.08 22.2872 24.4778 22.287L28.4461 22.2866C29.2468 22.2679 30.0096 21.9414 30.5759 21.3751C31.1423 20.8087 31.4687 20.046 31.4875 19.2453L31.4881 17.1239C31.4881 15.5477 30.0035 13.6069 27.7069 12.1784C25.6538 10.9011 21.9595 9.37943 16.0177 9.3787C10.076 9.37797 6.38149 10.9009 4.32879 12.1773C3.59882 12.6263 2.92241 13.1571 2.31268 13.7593C1.31823 14.6157 0.687263 15.8187 0.548058 17.1237L0.547593 19.2452C0.547493 19.6447 0.62611 20.0403 0.77895 20.4094C0.931791 20.7785 1.15586 21.1139 1.43836 21.3964C1.72086 21.6789 2.05625 21.903 2.42537 22.0558C2.79449 22.2087 3.19011 22.2873 3.58962 22.2872L3.58969 22.2872ZM1.48842 19.2452L1.48908 17.1239C1.48908 16.0921 2.52086 14.412 4.82605 12.9761C6.77456 11.7643 10.2973 10.3193 16.0176 10.3193C26.367 10.32 30.5473 15.1214 30.5473 17.1239L30.5467 19.2452C30.5338 19.7983 30.3084 20.3251 29.9172 20.7163C29.526 21.1074 28.9992 21.3329 28.4461 21.3458L24.4776 21.3458C23.9244 21.3461 23.3937 21.1267 23.0021 20.7358C22.6106 20.345 22.3902 19.8147 22.3894 19.2615C22.3894 19.2615 22.4074 17.1145 22.4069 16.5905C22.407 16.4281 22.355 16.159 21.9047 15.7075C20.2866 14.2537 18.1934 13.4405 16.0182 13.4204C12.7179 13.4208 9.62817 15.6015 9.6281 16.5904C9.6281 17.1141 9.64633 19.2582 9.64633 19.2582C9.64564 19.8118 9.4254 20.3426 9.03393 20.734C8.64247 21.1255 8.11172 21.3457 7.5581 21.3464L3.58955 21.3464C3.3136 21.3464 3.04034 21.2921 2.78539 21.1865C2.53043 21.081 2.29877 20.9262 2.10365 20.7311C1.90852 20.5359 1.75375 20.3043 1.64817 20.0493C1.5426 19.7944 1.48829 19.5211 1.48835 19.2452L1.48842 19.2452Z" fill="#0F0F0F"/>
</g>
<defs>
<clipPath id="clip0_38580_23698">
<rect width="32" height="32" fill="white"/>
</clipPath>
</defs>
</svg>
