<svg width="32" height="32" viewBox="0 0 32 32" fill="none" xmlns="http://www.w3.org/2000/svg">
<g clip-path="url(#clip0_38580_23694)">
<path d="M3.58111 22.7523L7.55225 22.7549C8.01237 22.7546 8.46793 22.6637 8.89287 22.4872C9.31782 22.3108 9.70382 22.0523 10.0288 21.7266C10.3538 21.4008 10.6114 21.0143 10.7869 20.5889C10.9624 20.1636 11.0524 19.7078 11.0516 19.2477C11.0516 19.2477 11.0362 17.5183 11.0325 16.7895C12.385 15.5287 14.1655 14.8281 16.0146 14.8293C17.8636 14.8305 19.6433 15.5334 20.9941 16.796C20.9926 17.5235 20.9788 19.2536 20.9788 19.2614C20.9793 20.1906 21.3486 21.0815 22.0057 21.7385C22.6627 22.3955 23.5536 22.7649 24.4828 22.7654L28.4539 22.768C29.3788 22.7475 30.2602 22.3709 30.9144 21.7167C31.5685 21.0626 31.9451 20.1812 31.9656 19.2563L31.9649 17.1335C31.9629 14.2679 27.281 8.90994 16.008 8.90183C9.95125 8.89783 6.17039 10.4564 4.06473 11.7657C3.29848 12.2362 2.58841 12.7926 1.94829 13.4241C0.866848 14.3637 0.191286 15.6856 0.063313 17.1125L0.0637783 19.2349C0.0653307 20.1673 0.436402 21.0611 1.09569 21.7203C1.75498 22.3796 2.64873 22.7507 3.58111 22.7523ZM1.94709 19.2367L1.94576 17.1134C1.94523 16.2423 2.91812 14.6968 5.06077 13.3648C6.95799 12.1861 10.3969 10.7807 16.009 10.7844C26.03 10.7919 30.0809 15.2676 30.0821 17.1323L30.0829 19.255C30.0731 19.6843 29.8983 20.0933 29.5947 20.3969C29.2911 20.7005 28.8821 20.8753 28.4528 20.885L24.4817 20.8824C24.0535 20.8822 23.6427 20.7125 23.3392 20.4105C23.0356 20.1084 22.864 19.6985 22.8617 19.2703C22.8617 19.2703 22.8793 17.1189 22.8776 16.5949C22.8576 16.3593 22.7906 16.13 22.6805 15.9208C22.5704 15.7116 22.4193 15.5266 22.2364 15.3768C20.5262 13.8363 18.313 12.9722 16.0115 12.9463C12.5391 12.9434 9.14548 15.2466 9.14894 16.5846C9.14928 17.1086 9.1689 19.2525 9.1689 19.2541C9.1686 19.6831 8.99805 20.0944 8.69471 20.3977C8.39137 20.7011 7.98004 20.8716 7.55105 20.8719L3.57998 20.8693C3.14716 20.8685 2.73232 20.6962 2.42625 20.3902C2.12018 20.0842 1.94782 19.6693 1.94689 19.2365L1.94709 19.2367Z" fill="#0F0F0F"/>
</g>
<defs>
<clipPath id="clip0_38580_23694">
<rect width="32" height="32" fill="white"/>
</clipPath>
</defs>
</svg>
