<svg width="32" height="32" viewBox="0 0 32 32" fill="none" xmlns="http://www.w3.org/2000/svg">
<path d="M23.9995 10.2497H7.99856C7.75242 10.2497 7.50905 10.3017 7.28434 10.4021C7.05962 10.5026 6.85862 10.6493 6.69444 10.8327C6.53027 11.016 6.40661 11.232 6.33155 11.4664C6.25649 11.7008 6.23171 11.9484 6.25882 12.1931L7.74026 25.5251C7.86857 26.6872 8.42136 27.761 9.29263 28.5406C10.1639 29.3203 11.2923 29.7508 12.4615 29.7497H19.5367C20.7058 29.7508 21.8342 29.3203 22.7055 28.5406C23.5767 27.761 24.1295 26.6872 24.2578 25.5251L25.7388 12.1931C25.766 11.9485 25.7412 11.7009 25.6662 11.4665C25.5911 11.2321 25.4675 11.0162 25.3034 10.8328C25.1393 10.6495 24.9383 10.5027 24.7137 10.4023C24.489 10.3018 24.2456 10.2498 23.9995 10.2497ZM22.7666 25.3591C22.6791 26.1543 22.3009 26.8891 21.7048 27.4226C21.1087 27.956 20.3366 28.2506 19.5366 28.2497H12.4614C11.6615 28.2506 10.8894 27.956 10.2932 27.4226C9.69714 26.8891 9.31902 26.1543 9.23143 25.3591L7.74999 12.0271C7.74594 11.9922 7.74938 11.9568 7.76007 11.9233C7.77076 11.8898 7.78846 11.8589 7.81199 11.8328C7.83554 11.8067 7.86431 11.7858 7.89644 11.7715C7.92857 11.7572 7.96335 11.7498 7.99851 11.7498H23.9995C24.0346 11.7497 24.0694 11.7571 24.1014 11.7715C24.1335 11.7858 24.1622 11.8067 24.1856 11.8329C24.209 11.8591 24.2266 11.8899 24.2373 11.9234C24.248 11.9569 24.2515 11.9922 24.2475 12.0271L22.7666 25.3591Z" fill="#0F0F0F"/>
<path d="M7.00003 7.74973H25C25.1989 7.74973 25.3897 7.67071 25.5304 7.53006C25.671 7.38941 25.75 7.19864 25.75 6.99973C25.75 6.80082 25.671 6.61005 25.5304 6.4694C25.3897 6.32875 25.1989 6.24973 25 6.24973H20.75V4.99973C20.7493 4.27061 20.4593 3.57157 19.9438 3.056C19.4282 2.54044 18.7292 2.25047 18 2.24973H14C13.2709 2.25047 12.5719 2.54044 12.0563 3.056C11.5407 3.57157 11.2508 4.27061 11.25 4.99973V6.24973H7.00003C6.80112 6.24973 6.61036 6.32875 6.4697 6.4694C6.32905 6.61005 6.25003 6.80082 6.25003 6.99973C6.25003 7.19864 6.32905 7.38941 6.4697 7.53006C6.61036 7.67071 6.80112 7.74973 7.00003 7.74973ZM12.75 4.99973C12.7503 4.6683 12.8821 4.35054 13.1165 4.11618C13.3508 3.88183 13.6686 3.75004 14 3.74973H18C18.3315 3.75004 18.6492 3.88183 18.8836 4.11618C19.1179 4.35054 19.2497 4.6683 19.25 4.99973V6.24973H12.75V4.99973Z" fill="#0F0F0F"/>
</svg>
