<svg width="32" height="32" viewBox="0 0 32 32" fill="none" xmlns="http://www.w3.org/2000/svg">
<path d="M10.1094 28.9785H21.9033C23.376 28.9785 24.3789 28.0645 24.4424 26.5918L25.3311 7.58691H27.4131C27.8193 7.58691 28.1367 7.25684 28.1367 6.85059C28.1367 6.44434 27.8193 6.11426 27.4131 6.11426H21.4209V4.12109C21.4209 2.44531 20.2402 1.30273 18.4121 1.30273H13.6006C11.7725 1.30273 10.5918 2.44531 10.5918 4.12109V6.11426H4.59961C4.20605 6.11426 3.86328 6.45703 3.86328 6.85059C3.86328 7.25684 4.20605 7.58691 4.59961 7.58691H6.69434L7.58301 26.5918C7.64648 28.0645 8.63672 28.9785 10.1094 28.9785ZM12.1533 6.11426V4.19727C12.1533 3.37207 12.7754 2.7627 13.7021 2.7627H18.3105C19.2373 2.7627 19.8594 3.37207 19.8594 4.19727V6.11426H12.1533ZM10.998 24.8145L10.2871 10.4434C10.2744 9.99902 10.5791 9.69434 10.96 9.69434C11.3535 9.69434 11.6582 10.0244 11.6709 10.418L12.3184 24.7891C12.3438 25.2207 12.0518 25.5635 11.6455 25.5635C11.2773 25.5635 11.0107 25.2588 10.998 24.8145ZM15.3145 24.8145L15.3018 10.4307C15.3018 10.0244 15.6445 9.69434 16.0127 9.69434C16.3936 9.69434 16.7236 10.0244 16.7236 10.4307L16.7109 24.8145C16.7109 25.2207 16.3682 25.5635 16.0127 25.5635C15.6445 25.5635 15.3145 25.2207 15.3145 24.8145ZM19.707 24.7891L20.3545 10.418C20.3672 10.0244 20.6719 9.69434 21.0527 9.69434C21.4463 9.69434 21.751 10.0117 21.7383 10.4434L21.0273 24.8145C21.0146 25.2588 20.7354 25.5635 20.3545 25.5635C19.9609 25.5635 19.6816 25.2207 19.707 24.7891Z" fill="black"/>
</svg>
