<svg width="32" height="32" viewBox="0 0 32 32" fill="none" xmlns="http://www.w3.org/2000/svg">
<path d="M25.0001 5.0004H7.00012C5.67452 5.00195 4.40365 5.52924 3.46631 6.46658C2.52896 7.40393 2.00168 8.67479 2.00012 10.0004V22.0004C2.00168 23.326 2.52896 24.5969 3.46631 25.5342C4.40365 26.4716 5.67452 26.9988 7.00012 27.0004H25.0001C26.3257 26.9988 27.5966 26.4716 28.5339 25.5342C29.4713 24.5969 29.9986 23.326 30.0001 22.0004V10.0004C29.9986 8.67479 29.4713 7.40393 28.5339 6.46658C27.5966 5.52924 26.3257 5.00196 25.0001 5.0004ZM28.0001 22.0004C27.9993 22.7958 27.6829 23.5583 27.1205 24.1208C26.5581 24.6832 25.7955 24.9995 25.0001 25.0004H7.00012C6.20474 24.9995 5.44218 24.6832 4.87976 24.1208C4.31734 23.5583 4.00099 22.7958 4.00012 22.0004V10.0004C4.00099 9.20501 4.31734 8.44246 4.87976 7.88004C5.44218 7.31761 6.20474 7.00126 7.00012 7.0004H25.0001C25.7955 7.00126 26.5581 7.31761 27.1205 7.88004C27.6829 8.44246 27.9993 9.20501 28.0001 10.0004V22.0004Z" fill="#0F0F0F"/>
<path d="M16.0001 14.6176C15.2118 14.6154 14.4309 14.7697 13.7027 15.0714C12.9744 15.3731 12.3132 15.8163 11.7574 16.3754C11.6646 16.4682 11.5909 16.5785 11.5407 16.6998C11.4904 16.8211 11.4646 16.9511 11.4646 17.0824C11.4646 17.2137 11.4904 17.3438 11.5407 17.4651C11.5909 17.5864 11.6646 17.6966 11.7574 17.7895C11.8503 17.8823 11.9605 17.956 12.0818 18.0062C12.2031 18.0565 12.3332 18.0823 12.4645 18.0823C12.5958 18.0823 12.7258 18.0565 12.8471 18.0062C12.9684 17.956 13.0787 17.8823 13.1715 17.7895C13.9334 17.0617 14.9465 16.6557 16.0001 16.6557C17.0537 16.6557 18.0668 17.0617 18.8287 17.7895C19.0163 17.977 19.2706 18.0823 19.5358 18.0823C19.8009 18.0823 20.0553 17.977 20.2428 17.7895C20.4303 17.6019 20.5357 17.3476 20.5357 17.0824C20.5357 16.8172 20.4303 16.5629 20.2428 16.3754C19.687 15.8163 19.0259 15.3731 18.2976 15.0714C17.5693 14.7697 16.7884 14.6154 16.0001 14.6176Z" fill="#0F0F0F"/>
<path d="M16 21.4104C16.8285 21.4104 17.5 20.7388 17.5 19.9104C17.5 19.082 16.8285 18.4104 16 18.4104C15.1716 18.4104 14.5 19.082 14.5 19.9104C14.5 20.7388 15.1716 21.4104 16 21.4104Z" fill="#0F0F0F"/>
<path d="M16.0001 10.6137C14.6861 10.6105 13.3845 10.8681 12.1707 11.3715C10.9569 11.8749 9.85498 12.6141 8.92883 13.5463C8.83598 13.6391 8.76233 13.7494 8.71208 13.8707C8.66183 13.992 8.63597 14.122 8.63597 14.2533C8.63597 14.3846 8.66183 14.5147 8.71208 14.636C8.76233 14.7573 8.83598 14.8675 8.92883 14.9604C9.02168 15.0532 9.13191 15.1269 9.25322 15.1771C9.37453 15.2274 9.50455 15.2532 9.63586 15.2532C9.76717 15.2532 9.89719 15.2274 10.0185 15.1771C10.1398 15.1269 10.25 15.0532 10.3429 14.9604C11.0852 14.2165 11.967 13.6263 12.9377 13.2236C13.9084 12.8209 14.949 12.6137 15.9999 12.6137C17.0508 12.6137 18.0914 12.8209 19.0621 13.2236C20.0328 13.6263 20.9146 14.2165 21.6569 14.9604C21.8447 15.1465 22.0986 15.2508 22.363 15.2502C22.6275 15.2496 22.8809 15.1443 23.0679 14.9573C23.2549 14.7703 23.3602 14.5169 23.3608 14.2524C23.3613 13.988 23.2571 13.7341 23.0709 13.5463C22.1449 12.6141 21.0431 11.8749 19.8294 11.3715C18.6157 10.8681 17.3141 10.6105 16.0001 10.6137Z" fill="#0F0F0F"/>
</svg>
