<svg width="32" height="32" viewBox="0 0 32 32" fill="none" xmlns="http://www.w3.org/2000/svg">
<path d="M16.5602 4.14132C16.2801 3.97822 15.9816 3.86032 15.675 3.78763V27.4681L16.6988 26.8283C17.05 26.6088 17.5127 26.7155 17.7323 27.0668C17.9518 27.418 17.845 27.8807 17.4938 28.1003L15.633 29.2633C15.2089 29.5283 14.6739 29.5407 14.238 29.2955C9.18178 26.4514 5.67606 21.4805 4.69414 15.7629L4.51081 14.6954C4.30394 13.4908 4.19995 12.2709 4.19995 11.0487V8.70398C4.19995 8.08105 4.53109 7.50507 5.06943 7.19164L12.5349 2.84502C14.0122 1.98493 15.8377 1.98493 17.3149 2.84503L24.7804 7.19164C25.3188 7.50507 25.6499 8.08104 25.6499 8.70398L25.6499 10.1495C25.6499 11.9717 25.488 13.7902 25.166 15.5837L25.0995 15.9539C25.0263 16.3616 24.6364 16.6328 24.2287 16.5596C23.8211 16.4864 23.5499 16.0965 23.6231 15.6888L23.6896 15.3186C23.9959 13.6126 24.1499 11.8828 24.1499 10.1495L24.1499 8.70398C24.1499 8.61499 24.1026 8.53271 24.0257 8.48793L16.5602 4.14132ZM13.2897 4.14132L5.82416 8.48793C5.74726 8.53271 5.69995 8.61499 5.69995 8.70398V11.0487C5.69995 12.1858 5.7967 13.3208 5.98916 14.4415L6.1725 15.509C7.02535 20.475 9.94284 24.8302 14.175 27.5112V3.78758C13.8684 3.86027 13.5699 3.97818 13.2897 4.14132ZM28.4427 21.3532L28.8503 22.608C28.9662 22.9645 28.9444 23.3514 28.7892 23.6926C28.634 24.0338 28.3567 24.3045 28.0119 24.4515L27.4427 24.6941L27.2965 25.187L27.6363 25.7941C27.8142 26.1118 27.8703 26.4834 27.7944 26.8395C27.7185 27.1957 27.5156 27.512 27.2236 27.7296L26.1562 28.5249C25.8531 28.7507 25.476 28.8538 25.1002 28.8135C24.7244 28.7733 24.3777 28.5926 24.1293 28.3078L23.7066 27.8229L23.2061 27.8224L22.7516 28.3289C22.5037 28.6052 22.1623 28.7798 21.7932 28.8189C21.4241 28.8581 21.0536 28.759 20.7534 28.5408L19.6859 27.7652C19.3827 27.5449 19.173 27.2191 19.098 26.8518C19.023 26.4846 19.0882 26.1026 19.2807 25.781L19.5987 25.2501L19.4268 24.7645L18.7961 24.4727C18.4635 24.3187 18.1987 24.0483 18.0518 23.7125C17.9049 23.3767 17.886 22.9987 17.9987 22.6499L18.4042 21.3958C18.5193 21.0386 18.7643 20.7376 19.0907 20.5523C19.417 20.367 19.801 20.3109 20.1668 20.3951L20.7699 20.5334L21.1778 20.2206L21.2598 19.5296C21.3031 19.1649 21.4786 18.8288 21.7531 18.5849C22.0277 18.341 22.3821 18.2063 22.7494 18.2063H24.0688C24.4436 18.2063 24.8048 18.3466 25.0814 18.5996C25.3579 18.8527 25.5297 19.2 25.5629 19.5734L25.6177 20.1897L26.0413 20.481L26.7238 20.3455C27.084 20.2736 27.4581 20.3366 27.7749 20.5224C28.0918 20.7081 28.3294 21.0038 28.4427 21.3532ZM25.6785 25.3672L26.2052 23.5909L27.4238 23.0715L27.0161 21.8167L25.7128 22.0756L24.1862 21.0257L24.0688 19.7063H22.7494L22.5929 21.0257L21.1226 22.1532L19.8315 21.8571L19.4261 23.1113L20.6302 23.6685L21.2482 25.4152L20.5677 26.5517L21.6351 27.3272L22.5373 26.3216L24.3895 26.3236L25.2599 27.322L26.3274 26.5267L25.6785 25.3672ZM24.6738 23.5775C24.6738 24.2679 24.1141 24.8275 23.4238 24.8275C22.7334 24.8275 22.1738 24.2679 22.1738 23.5775C22.1738 22.8872 22.7334 22.3275 23.4238 22.3275C24.1141 22.3275 24.6738 22.8872 24.6738 23.5775Z" fill="#0F0F0F"/>
</svg>
