<svg width="32" height="32" viewBox="0 0 32 32" fill="none" xmlns="http://www.w3.org/2000/svg">
<path d="M4.22411 25.1775C4.20514 25.1695 4.2053 25.143 4.2242 25.1349L15.6065 20.2568C15.858 20.149 16.1427 20.149 16.3943 20.2568L27.7689 25.1316C27.7902 25.1407 27.7903 25.1705 27.769 25.1794L16.7659 29.8445C16.5209 29.9461 16.2583 29.9986 15.993 29.9987C15.7278 29.9989 15.4651 29.9468 15.22 29.8454L4.22411 25.1775Z" fill="#0F0F0F"/>
<path d="M3.44763 23.2918C3.23104 23.3846 2.99937 23.2356 3.00001 23L3.00001 8.66767C2.99923 8.27287 3.11565 7.88672 3.33453 7.55815C3.55341 7.22957 3.86489 6.97336 4.22951 6.82197L14.3048 2.54257C14.6345 2.40251 15.0003 2.64452 15.0003 3.00278V17.6813C15.0003 18.0813 14.7619 18.4428 14.3942 18.6004L3.44763 23.2918Z" fill="#0F0F0F"/>
<path d="M17.6953 2.55135C17.3656 2.41163 17.0003 2.65363 17.0003 3.01172V17.6812C17.0003 18.0812 17.2386 18.4427 17.6063 18.6003L28.5526 23.2915C28.7691 23.3843 29.0004 23.2356 29 23L29 8.66667C29.001 8.27272 28.8852 7.88732 28.6672 7.55917C28.4493 7.23101 28.1389 6.97482 27.7754 6.82297L17.6953 2.55135Z" fill="#0F0F0F"/>
</svg>
