<svg width="32" height="32" viewBox="0 0 32 32" fill="none" xmlns="http://www.w3.org/2000/svg">
<path fill-rule="evenodd" clip-rule="evenodd" d="M8 8C9.38071 8 10.5 6.88071 10.5 5.5C10.5 4.11929 9.38071 3 8 3C6.61929 3 5.5 4.11929 5.5 5.5C5.5 6.88071 6.61929 8 8 8ZM8 15C9.38071 15 10.5 13.8807 10.5 12.5C10.5 11.1193 9.38071 10 8 10C6.61929 10 5.5 11.1193 5.5 12.5C5.5 13.8807 6.61929 15 8 15ZM16 8C17.3807 8 18.5 6.88071 18.5 5.5C18.5 4.11929 17.3807 3 16 3C14.6193 3 13.5 4.11929 13.5 5.5C13.5 6.88071 14.6193 8 16 8ZM16 15C17.3807 15 18.5 13.8807 18.5 12.5C18.5 11.1193 17.3807 10 16 10C14.6193 10 13.5 11.1193 13.5 12.5C13.5 13.8807 14.6193 15 16 15ZM8 22C9.38071 22 10.5 20.8807 10.5 19.5C10.5 18.1193 9.38071 17 8 17C6.61929 17 5.5 18.1193 5.5 19.5C5.5 20.8807 6.61929 22 8 22ZM16 22C17.3807 22 18.5 20.8807 18.5 19.5C18.5 18.1193 17.3807 17 16 17C14.6193 17 13.5 18.1193 13.5 19.5C13.5 20.8807 14.6193 22 16 22ZM16 29C17.3807 29 18.5 27.8807 18.5 26.5C18.5 25.1193 17.3807 24 16 24C14.6193 24 13.5 25.1193 13.5 26.5C13.5 27.8807 14.6193 29 16 29ZM24 8C25.3807 8 26.5 6.88071 26.5 5.5C26.5 4.11929 25.3807 3 24 3C22.6193 3 21.5 4.11929 21.5 5.5C21.5 6.88071 22.6193 8 24 8ZM24 15C25.3807 15 26.5 13.8807 26.5 12.5C26.5 11.1193 25.3807 10 24 10C22.6193 10 21.5 11.1193 21.5 12.5C21.5 13.8807 22.6193 15 24 15ZM24 22C25.3807 22 26.5 20.8807 26.5 19.5C26.5 18.1193 25.3807 17 24 17C22.6193 17 21.5 18.1193 21.5 19.5C21.5 20.8807 22.6193 22 24 22Z" fill="#0F0F0F"/>
</svg>
