<svg width="32" height="32" viewBox="0 0 32 32" fill="none" xmlns="http://www.w3.org/2000/svg">
<path fill-rule="evenodd" clip-rule="evenodd" d="M8 7C8.82843 7 9.5 6.32843 9.5 5.5C9.5 4.67157 8.82843 4 8 4C7.17157 4 6.5 4.67157 6.5 5.5C6.5 6.32843 7.17157 7 8 7ZM8 14C8.82843 14 9.5 13.3284 9.5 12.5C9.5 11.6716 8.82843 11 8 11C7.17157 11 6.5 11.6716 6.5 12.5C6.5 13.3284 7.17157 14 8 14ZM16 7C16.8284 7 17.5 6.32843 17.5 5.5C17.5 4.67157 16.8284 4 16 4C15.1716 4 14.5 4.67157 14.5 5.5C14.5 6.32843 15.1716 7 16 7ZM16 14C16.8284 14 17.5 13.3284 17.5 12.5C17.5 11.6716 16.8284 11 16 11C15.1716 11 14.5 11.6716 14.5 12.5C14.5 13.3284 15.1716 14 16 14ZM8 21C8.82843 21 9.5 20.3284 9.5 19.5C9.5 18.6716 8.82843 18 8 18C7.17157 18 6.5 18.6716 6.5 19.5C6.5 20.3284 7.17157 21 8 21ZM16 21C16.8284 21 17.5 20.3284 17.5 19.5C17.5 18.6716 16.8284 18 16 18C15.1716 18 14.5 18.6716 14.5 19.5C14.5 20.3284 15.1716 21 16 21ZM16 28C16.8284 28 17.5 27.3284 17.5 26.5C17.5 25.6716 16.8284 25 16 25C15.1716 25 14.5 25.6716 14.5 26.5C14.5 27.3284 15.1716 28 16 28ZM24 7C24.8284 7 25.5 6.32843 25.5 5.5C25.5 4.67157 24.8284 4 24 4C23.1716 4 22.5 4.67157 22.5 5.5C22.5 6.32843 23.1716 7 24 7ZM24 14C24.8284 14 25.5 13.3284 25.5 12.5C25.5 11.6716 24.8284 11 24 11C23.1716 11 22.5 11.6716 22.5 12.5C22.5 13.3284 23.1716 14 24 14ZM24 21C24.8284 21 25.5 20.3284 25.5 19.5C25.5 18.6716 24.8284 18 24 18C23.1716 18 22.5 18.6716 22.5 19.5C22.5 20.3284 23.1716 21 24 21Z" fill="black"/>
</svg>
