<svg width="32" height="32" viewBox="0 0 32 32" fill="none" xmlns="http://www.w3.org/2000/svg">
<path d="M1.88281 21.6533C1.88281 23.6338 2.86035 24.5732 4.79004 24.5732H12.3311L11.9756 27.0615H10.6807C10.2236 27.0615 9.84277 27.4297 9.84277 27.8994C9.84277 28.3564 10.2236 28.7373 10.6807 28.7373H21.4082C21.8652 28.7373 22.2334 28.3564 22.2334 27.8994C22.2334 27.4297 21.8652 27.0615 21.4082 27.0615H20.0117L19.6562 24.5732H27.1973C29.127 24.5732 30.1045 23.6338 30.1045 21.6533V7.86621C30.1045 5.88574 29.127 4.94629 27.1973 4.94629H4.79004C2.86035 4.94629 1.88281 5.88574 1.88281 7.86621V21.6533ZM3.5459 21.6279V7.8916C3.5459 6.99023 3.93945 6.60938 4.82812 6.60938H27.1592C28.0479 6.60938 28.4541 6.99023 28.4541 7.8916V21.6279C28.4541 22.5293 28.0479 22.9102 27.1592 22.9102H4.82812C3.93945 22.9102 3.5459 22.5293 3.5459 21.6279Z" fill="black"/>
</svg>
