<svg width="35" height="32" viewBox="0 0 35 32" fill="none" xmlns="http://www.w3.org/2000/svg">
<path d="M3.1748 22.9102C2.28613 22.9102 1.87988 22.5293 1.87988 21.6279V7.8916C1.87988 6.99023 2.28613 6.60938 3.1748 6.60938H25.4932C26.3818 6.60938 26.7881 6.99023 26.7881 7.8916V15.0898C27.0547 14.9756 27.3467 14.9375 27.6387 14.9375C27.918 14.9375 28.1846 14.9883 28.4385 15.0771V7.86621C28.4385 5.88574 27.4736 4.94629 25.5312 4.94629H3.13672C1.19434 4.94629 0.216797 5.88574 0.216797 7.86621V21.6533C0.216797 23.6338 1.19434 24.5732 3.13672 24.5732H10.6777L10.3223 27.0615H9.01465C8.55762 27.0615 8.18945 27.4297 8.18945 27.8994C8.18945 28.3564 8.55762 28.7373 9.01465 28.7373H20.2373C19.8057 28.2295 19.7168 27.7344 19.6914 27.0615H18.3457L17.9902 24.5732H20.542L21.4688 22.9102H3.1748ZM22.459 28.6357H32.8057C33.7705 28.6357 34.3926 27.9248 34.3926 27.0488C34.3926 26.7822 34.3291 26.5156 34.1768 26.2617L28.9971 17.0322C28.6924 16.499 28.1719 16.2324 27.6387 16.2324C27.1055 16.2324 26.5596 16.499 26.2676 17.0322L21.0879 26.2744C20.9482 26.5156 20.8721 26.7822 20.8721 27.0488C20.8721 27.9248 21.4941 28.6357 22.459 28.6357ZM27.6387 24.0146C27.2451 24.0146 26.9785 23.748 26.9658 23.3672L26.877 19.8633C26.8643 19.4062 27.1689 19.0889 27.6387 19.0889C28.1084 19.0889 28.4131 19.4062 28.4004 19.8633L28.3115 23.3672C28.2988 23.748 28.0322 24.0146 27.6387 24.0146ZM27.626 26.7949C27.1055 26.7949 26.6611 26.3633 26.6611 25.8301C26.6611 25.2969 27.1055 24.8525 27.626 24.8525C28.1719 24.8525 28.6162 25.3096 28.6035 25.8301C28.6035 26.3633 28.1592 26.7949 27.626 26.7949Z" fill="black"/>
</svg>
