<svg width="32" height="32" viewBox="0 0 32 32" fill="none" xmlns="http://www.w3.org/2000/svg">
<path d="M4 6.75H28C28.41 6.75 28.75 6.41 28.75 6C28.75 5.59 28.41 5.25 28 5.25H4C3.59 5.25 3.25 5.59 3.25 6C3.25 6.41 3.59 6.75 4 6.75Z" fill="#0F0F0F"/>
<path d="M4 26.75H28C28.41 26.75 28.75 26.41 28.75 26C28.75 25.59 28.41 25.25 28 25.25H4C3.59 25.25 3.25 25.59 3.25 26C3.25 26.41 3.59 26.75 4 26.75Z" fill="#0F0F0F"/>
<path d="M11 12.25C10.59 12.25 10.25 12.59 10.25 13V19C10.25 19.41 10.59 19.75 11 19.75H21C21.41 19.75 21.75 19.41 21.75 19V13C21.75 12.59 21.41 12.25 21 12.25H11ZM20.25 18.25H11.75V13.75H20.25V18.25Z" fill="#0F0F0F"/>
</svg>
