<svg width="32" height="32" viewBox="0 0 32 32" fill="none" xmlns="http://www.w3.org/2000/svg">
<path d="M6 3C5.45 3 5 3.45 5 4V28C5 28.55 5.45 29 6 29C6.55 29 7 28.55 7 28V4C7 3.45 6.55 3 6 3Z" fill="#0F0F0F"/>
<path d="M26 3C25.45 3 25 3.45 25 4V28C25 28.55 25.45 29 26 29C26.55 29 27 28.55 27 28V4C27 3.45 26.55 3 26 3Z" fill="#0F0F0F"/>
<path d="M19 10H13C12.4477 10 12 10.4477 12 11V21C12 21.5523 12.4477 22 13 22H19C19.5523 22 20 21.5523 20 21V11C20 10.4477 19.5523 10 19 10Z" fill="#0F0F0F"/>
</svg>
