<svg width="32" height="32" viewBox="0 0 32 32" fill="none" xmlns="http://www.w3.org/2000/svg">
<path d="M28 5H4C3.45 5 3 5.45 3 6C3 6.55 3.45 7 4 7H28C28.55 7 29 6.55 29 6C29 5.45 28.55 5 28 5Z" fill="#010101"/>
<path d="M28 25H4C3.45 25 3 25.45 3 26C3 26.55 3.45 27 4 27H28C28.55 27 29 26.55 29 26C29 25.45 28.55 25 28 25Z" fill="#010101"/>
<path d="M21 12H11C10.4477 12 10 12.4477 10 13V19C10 19.5523 10.4477 20 11 20H21C21.5523 20 22 19.5523 22 19V13C22 12.4477 21.5523 12 21 12Z" fill="#010101"/>
</svg>
