<svg width="32" height="32" viewBox="0 0 32 32" fill="none" xmlns="http://www.w3.org/2000/svg">
<path d="M9.75003 15.25C9.33582 15.25 9.00003 15.5858 9.00003 16C9.00003 16.4142 9.33582 16.75 9.75003 16.75H22.25C22.6642 16.75 23 16.4142 23 16C23 15.5858 22.6642 15.25 22.25 15.25H9.75003Z" fill="#0F0F0F"/>
<path d="M8.3614 4.56698C10.6226 3.05611 13.281 2.24969 16.0005 2.24969C19.646 2.25373 23.141 3.70368 25.7188 6.28143C28.2965 8.85918 29.7465 12.3542 29.7505 15.9997C29.7505 18.7192 28.9441 21.3776 27.4332 23.6388C25.9223 25.9 23.7749 27.6623 21.2624 28.703C18.7499 29.7437 15.9852 30.016 13.318 29.4855C10.6508 28.9549 8.20075 27.6454 6.27778 25.7224C4.3548 23.7994 3.04524 21.3494 2.5147 18.6822C1.98415 16.0149 2.25645 13.2503 3.29715 10.7378C4.33786 8.22531 6.10023 6.07785 8.3614 4.56698ZM9.19476 26.1852C11.2093 27.5312 13.5777 28.2497 16.0005 28.2497C19.2483 28.2461 22.362 26.9543 24.6586 24.6578C26.9551 22.3612 28.2469 19.2475 28.2505 15.9997C28.2505 13.5769 27.532 11.2085 26.186 9.19396C24.84 7.17945 22.9268 5.60934 20.6884 4.68217C18.45 3.75499 15.9869 3.5124 13.6106 3.98507C11.2344 4.45774 9.05163 5.62444 7.33844 7.33763C5.62524 9.05083 4.45854 11.2336 3.98587 13.6098C3.51321 15.9861 3.7558 18.4492 4.68297 20.6876C5.61014 22.926 7.18026 24.8391 9.19476 26.1852Z" fill="#0F0F0F"/>
</svg>
