<svg width="32" height="32" viewBox="0 0 32 32" fill="none" xmlns="http://www.w3.org/2000/svg">
<path fill-rule="evenodd" clip-rule="evenodd" d="M4 5C4 4.44772 4.44772 4 5 4H22C22.2652 4 22.5196 4.10536 22.7071 4.29289L27.7071 9.29289C27.8946 9.48043 28 9.73478 28 10V27C28 27.5523 27.5523 28 27 28H5C4.44772 28 4 27.5523 4 27V5ZM7 8C7 7.44772 7.44772 7 8 7H20C20.5523 7 21 7.44772 21 8V13C21 13.5523 20.5523 14 20 14H8C7.44772 14 7 13.5523 7 13V8ZM16 25C18.7614 25 21 22.7614 21 20C21 17.2386 18.7614 15 16 15C13.2386 15 11 17.2386 11 20C11 22.7614 13.2386 25 16 25Z" fill="black"/>
</svg>
