<svg width="32" height="32" viewBox="0 0 32 32" fill="none" xmlns="http://www.w3.org/2000/svg">
<path d="M7.5 8C7.5 7.72386 7.72386 7.5 8 7.5H20C20.2761 7.5 20.5 7.72386 20.5 8V13C20.5 13.2761 20.2761 13.5 20 13.5H8C7.72386 13.5 7.5 13.2761 7.5 13V8ZM8.5 8.5V12.5H19.5V8.5H8.5Z" fill="black"/>
<path d="M16 15.5C13.5147 15.5 11.5 17.5147 11.5 20C11.5 22.4853 13.5147 24.5 16 24.5C18.4853 24.5 20.5 22.4853 20.5 20C20.5 17.5147 18.4853 15.5 16 15.5ZM12.5 20C12.5 18.067 14.067 16.5 16 16.5C17.933 16.5 19.5 18.067 19.5 20C19.5 21.933 17.933 23.5 16 23.5C14.067 23.5 12.5 21.933 12.5 20Z" fill="black"/>
<path d="M4.5 5C4.5 4.72386 4.72386 4.5 5 4.5H22C22.1326 4.5 22.2598 4.55268 22.3536 4.64645L27.3536 9.64645C27.4473 9.74021 27.5 9.86739 27.5 10V27C27.5 27.2761 27.2761 27.5 27 27.5H5C4.72386 27.5 4.5 27.2761 4.5 27V5ZM5.5 5.5V26.5H26.5V10.2071L21.7929 5.5H5.5Z" fill="black"/>
</svg>
