<svg width="32" height="32" viewBox="0 0 32 32" fill="none" xmlns="http://www.w3.org/2000/svg">
<path d="M7 11C7 11.5523 6.55228 12 6 12C5.44772 12 5 11.5523 5 11C5 10.4477 5.44772 10 6 10C6.55228 10 7 10.4477 7 11Z" fill="#0F0F0F"/>
<path d="M7 21C7 21.5523 6.55228 22 6 22C5.44772 22 5 21.5523 5 21C5 20.4477 5.44772 20 6 20C6.55228 20 7 20.4477 7 21Z" fill="#0F0F0F"/>
<path d="M17 11C17 11.5523 16.5523 12 16 12C15.4477 12 15 11.5523 15 11C15 10.4477 15.4477 10 16 10C16.5523 10 17 10.4477 17 11Z" fill="#0F0F0F"/>
<path d="M17 21C17 21.5523 16.5523 22 16 22C15.4477 22 15 21.5523 15 21C15 20.4477 15.4477 20 16 20C16.5523 20 17 20.4477 17 21Z" fill="#0F0F0F"/>
<path d="M27 11C27 11.5523 26.5523 12 26 12C25.4477 12 25 11.5523 25 11C25 10.4477 25.4477 10 26 10C26.5523 10 27 10.4477 27 11Z" fill="#0F0F0F"/>
<path d="M27 21C27 21.5523 26.5523 22 26 22C25.4477 22 25 21.5523 25 21C25 20.4477 25.4477 20 26 20C26.5523 20 27 20.4477 27 21Z" fill="#0F0F0F"/>
</svg>
