<svg width="32" height="32" viewBox="0 0 32 32" fill="none" xmlns="http://www.w3.org/2000/svg">
<path d="M21.9998 5.9998H9.99982C8.67421 6.00136 7.40335 6.52864 6.466 7.46599C5.52866 8.40333 5.00138 9.6742 4.99982 10.9998V24.9998C5.00138 26.3254 5.52866 27.5963 6.466 28.5336C7.40335 29.471 8.67421 29.9982 9.99982 29.9998H21.9998C23.3254 29.9982 24.5963 29.471 25.5336 28.5336C26.471 27.5963 26.9983 26.3254 26.9998 24.9998V10.9998C26.9983 9.6742 26.471 8.40333 25.5336 7.46599C24.5963 6.52864 23.3254 6.00136 21.9998 5.9998ZM9.99982 7.9998H21.9998C22.7952 8.00067 23.5578 8.31702 24.1202 8.87944C24.6826 9.44186 24.9989 10.2044 24.9998 10.9998V21.9998H6.99982V10.9998C7.00069 10.2044 7.31704 9.44186 7.87946 8.87944C8.44188 8.31702 9.20443 8.00067 9.99982 7.9998ZM21.9998 27.9998H9.99982C9.20443 27.9989 8.44188 27.6826 7.87946 27.1202C7.31703 26.5577 7.00068 25.7952 6.99982 24.9998V23.9998H24.9998V24.9998C24.9989 25.7952 24.6826 26.5577 24.1202 27.1202C23.5578 27.6826 22.7952 27.9989 21.9998 27.9998Z" fill="#0F0F0F"/>
<path d="M14.9998 3.9998H16.9998C17.265 3.9998 17.5194 3.89444 17.7069 3.70691C17.8945 3.51937 17.9998 3.26502 17.9998 2.9998C17.9998 2.73459 17.8945 2.48023 17.7069 2.29269C17.5194 2.10516 17.265 1.9998 16.9998 1.9998H14.9998C14.7346 1.9998 14.4802 2.10516 14.2927 2.29269C14.1052 2.48023 13.9998 2.73459 13.9998 2.9998C13.9998 3.26502 14.1052 3.51937 14.2927 3.70691C14.4802 3.89444 14.7346 3.9998 14.9998 3.9998Z" fill="#0F0F0F"/>
</svg>
