<svg width="32" height="32" viewBox="0 0 32 32" fill="none" xmlns="http://www.w3.org/2000/svg">
<path d="M24.9998 5.9998H6.99982C5.67421 6.00136 4.40335 6.52865 3.466 7.46599C2.52866 8.40333 2.00138 9.6742 1.99982 10.9998V27.4998C2.00043 28.1627 2.26402 28.7982 2.73273 29.2669C3.20144 29.7356 3.83696 29.9992 4.49982 29.9998H5.38361C6.04627 29.998 6.68145 29.7348 7.15119 29.2674L9.41877 26.9998H22.5535L24.865 29.2801C25.3318 29.7425 25.9628 30.0013 26.6199 29.9998H27.4998C28.1626 29.9992 28.7982 29.7356 29.2669 29.2669C29.7356 28.7982 29.9992 28.1627 29.9998 27.4998V10.9998C29.9982 9.6742 29.4709 8.40335 28.5336 7.466C27.5963 6.52866 26.3254 6.00137 24.9998 5.9998ZM6.99982 7.9998H24.9998C25.7952 8.00067 26.5578 8.31702 27.1202 8.87944C27.6826 9.44186 27.9989 10.2044 27.9998 10.9998V19.9998H3.99982V10.9998C4.00069 10.2044 4.31704 9.44186 4.87946 8.87944C5.44188 8.31702 6.20443 8.00067 6.99982 7.9998ZM27.4998 27.9998H26.6199C26.4889 27.9992 26.3632 27.9477 26.2694 27.8563L23.9569 25.575C23.5835 25.2054 23.0789 24.9986 22.5535 24.9998H9.41877C9.15603 24.9991 8.89576 25.0505 8.65303 25.1511C8.4103 25.2517 8.18994 25.3994 8.00471 25.5857L5.73713 27.8533C5.64314 27.9467 5.51613 27.9994 5.38361 27.9998H4.49982C4.36729 27.9995 4.24027 27.9468 4.14656 27.8531C4.05284 27.7594 4.00008 27.6323 3.99982 27.4998V21.9998H27.9998V27.4998C27.9996 27.6323 27.9468 27.7594 27.8531 27.8531C27.7594 27.9468 27.6323 27.9995 27.4998 27.9998Z" fill="#0F0F0F"/>
<path d="M14.9998 3.9998H16.9998C17.265 3.9998 17.5194 3.89444 17.7069 3.70691C17.8945 3.51937 17.9998 3.26502 17.9998 2.9998C17.9998 2.73459 17.8945 2.48023 17.7069 2.29269C17.5194 2.10516 17.265 1.9998 16.9998 1.9998H14.9998C14.7346 1.9998 14.4802 2.10516 14.2927 2.29269C14.1052 2.48023 13.9998 2.73459 13.9998 2.9998C13.9998 3.26502 14.1052 3.51937 14.2927 3.70691C14.4802 3.89444 14.7346 3.9998 14.9998 3.9998Z" fill="#0F0F0F"/>
</svg>
