<svg width="32" height="32" viewBox="0 0 32 32" fill="none" xmlns="http://www.w3.org/2000/svg">
<path d="M15.6646 5.32918C15.8757 5.22361 16.1243 5.22361 16.3354 5.32918L28.3354 11.3292C28.5817 11.4523 28.7407 11.7006 28.7496 11.9758C28.7585 12.2511 28.6158 12.5091 28.3779 12.6478L16.3779 19.6478C16.1444 19.7841 15.8556 19.7841 15.6221 19.6478L3.6221 12.6478C3.38422 12.5091 3.24152 12.2511 3.25039 11.9758C3.25926 11.7006 3.41827 11.4523 3.66459 11.3292L15.6646 5.32918ZM5.57551 12.0508L16 18.1317L26.4245 12.0508L16 6.83853L5.57551 12.0508Z" fill="#0F0F0F"/>
<path d="M8.5 14.25C8.91421 14.25 9.25 14.5858 9.25 15V21.55L16 25.15L22.75 21.55V15C22.75 14.5858 23.0858 14.25 23.5 14.25C23.9142 14.25 24.25 14.5858 24.25 15V22C24.25 22.277 24.0973 22.5314 23.8529 22.6618L16.3529 26.6618C16.1324 26.7794 15.8676 26.7794 15.6471 26.6618L8.14706 22.6618C7.90266 22.5314 7.75 22.277 7.75 22V15C7.75 14.5858 8.08579 14.25 8.5 14.25Z" fill="#0F0F0F"/>
<path d="M28 11.25C28.4142 11.25 28.75 11.5858 28.75 12V22C28.75 22.4142 28.4142 22.75 28 22.75C27.5858 22.75 27.25 22.4142 27.25 22V12C27.25 11.5858 27.5858 11.25 28 11.25Z" fill="#0F0F0F"/>
</svg>
