<svg width="32" height="32" viewBox="0 0 32 32" fill="none" xmlns="http://www.w3.org/2000/svg">
<g clip-path="url(#clip0_20654_5317)">
<path d="M4.59961 21.9834C4.59961 23.5068 5.52637 24.9795 7.22754 26.1348V27.6709C6.64355 27.8486 6.28809 28.3438 6.28809 29.0547V32.2285C6.28809 33.1172 6.84668 33.6885 7.73535 33.6885H8.06543C8.9541 33.6885 9.5127 33.1172 9.5127 32.2285V29.0547C9.5127 28.3564 9.16992 27.8486 8.58594 27.6709V26.9092C10.4902 27.7979 13.0039 28.3691 15.9873 28.3691C22.9951 28.3691 27.3877 25.2842 27.3877 21.9834V16.3213L31.1328 14.6201C31.8438 14.29 32.2119 13.6553 32.2119 12.9951C32.2119 12.3477 31.8438 11.7002 31.1328 11.3701L19.2627 5.94922C17.9805 5.36523 16.9902 5.11133 15.9873 5.13672C14.9971 5.11133 13.9941 5.36523 12.7246 5.94922L0.854492 11.3701C0.143555 11.7002 -0.224609 12.3477 -0.224609 12.9951C-0.224609 13.6553 0.143555 14.29 0.854492 14.6201L4.59961 16.3213V21.9834ZM15.9873 19.2285C15.1748 19.2285 14.4004 19.0381 13.3594 18.5557L9.65234 16.8672L14.9209 14.1504C15.2637 14.2393 15.6445 14.29 16.0254 14.29C17.333 14.29 18.5137 13.7188 18.5137 12.9951C18.5137 12.2842 17.333 11.7129 16.0254 11.7129C14.7178 11.7129 13.5244 12.2842 13.5244 12.9951C13.5244 13.1348 13.5752 13.2744 13.6768 13.4141L8.20508 16.1943L2.09863 13.4141C1.88281 13.3125 1.76855 13.1602 1.76855 12.9951C1.76855 12.8301 1.88281 12.6777 2.09863 12.5762L13.3594 7.43457C14.4004 6.95215 15.1748 6.76172 15.9873 6.76172C16.8125 6.76172 17.5869 6.95215 18.6279 7.43457L29.8887 12.5762C30.1045 12.6777 30.2061 12.8301 30.2061 12.9951C30.2061 13.1602 30.1045 13.3125 29.8887 13.4141L18.6279 18.5557C17.5869 19.0381 16.8125 19.2285 15.9873 19.2285ZM6.2627 21.9834V17.083L7.22754 17.5273V24.0654C6.59277 23.418 6.2627 22.6943 6.2627 21.9834ZM15.9873 20.8535C16.9902 20.8789 17.9805 20.625 19.2627 20.041L25.7246 17.083V21.9834C25.7246 24.3574 21.9922 26.8076 15.9873 26.8076C12.8135 26.8076 10.2744 26.1221 8.58594 25.1191V18.1494L12.7246 20.041C13.9941 20.625 14.9971 20.8789 15.9873 20.8535Z" fill="black"/>
</g>
<defs>
<clipPath id="clip0_20654_5317">
<rect width="32" height="32" fill="white"/>
</clipPath>
</defs>
</svg>
