<svg width="32" height="32" viewBox="0 0 32 32" fill="none" xmlns="http://www.w3.org/2000/svg">
<g clip-path="url(#clip0_20654_5322)">
<path d="M30.9932 11.5225L19.1738 6.11426C17.9424 5.55566 16.9648 5.31445 16 5.32715C15.0225 5.31445 14.0576 5.55566 12.8135 6.11426L1.00684 11.5225C0.295898 11.8398 -0.046875 12.4238 -0.046875 12.9951C-0.046875 13.5664 0.295898 14.125 1.00684 14.4551L6.27539 16.8545L13.6768 13.3125C13.5879 13.2109 13.5371 13.0967 13.5371 12.9951C13.5371 12.2842 14.7305 11.7129 16.0381 11.7129C17.3457 11.7129 18.5264 12.2842 18.5264 12.9951C18.5264 13.7188 17.3457 14.29 16.0381 14.29C15.6191 14.29 15.2129 14.2393 14.8574 14.125L7.72266 17.54L12.8135 19.876C14.0576 20.4473 15.0225 20.6758 16 20.6631C16.9648 20.6758 17.9424 20.4473 19.1738 19.876L30.9932 14.4551C31.6914 14.125 32.0469 13.5664 32.0469 12.9951C32.0469 12.4238 31.6914 11.8398 30.9932 11.5225ZM7.69727 19.1523V26.3887C9.66504 27.5947 12.4961 28.3691 16 28.3691C22.9951 28.3691 27.3877 25.2842 27.3877 21.9834V17.7305L19.7959 21.2217C18.4248 21.8438 17.1934 22.1611 16 22.1484C14.8066 22.1611 13.5752 21.8438 12.1914 21.2217L7.69727 19.1523ZM4.59961 17.7432V21.9834C4.59961 23.0117 5.20898 24.2559 6.32617 25.335V18.543L4.59961 17.7432ZM5.38672 29.0547V32.2285C5.38672 33.1172 5.95801 33.6885 6.84668 33.6885H7.16406C8.05273 33.6885 8.62402 33.1172 8.62402 32.2285V29.0547C8.62402 28.3564 8.26855 27.8486 7.69727 27.6709V26.3887C7.17676 26.0713 6.70703 25.7158 6.32617 25.335V27.6709C5.74219 27.8486 5.38672 28.3438 5.38672 29.0547Z" fill="black"/>
</g>
<defs>
<clipPath id="clip0_20654_5322">
<rect width="32" height="32" fill="white"/>
</clipPath>
</defs>
</svg>
