<svg width="32" height="32" viewBox="0 0 32 32" fill="none" xmlns="http://www.w3.org/2000/svg">
<path d="M7.26662 5L7.24274 5.00029C5.82507 5.03415 4.47841 5.62727 3.49639 6.65026C2.51645 7.67109 1.97895 9.03731 2.00063 10.452V21.549C1.98439 22.9758 2.53454 24.3509 3.53065 25.3727C4.5283 26.3961 5.8916 26.9816 7.32073 27H16.0001C16.5524 27 17.0001 26.5523 17.0001 26C17.0001 25.4477 16.5524 25 16.0001 25H7.34046C6.44385 24.9868 5.58885 24.6189 4.9628 23.9767C4.33533 23.333 3.98929 22.4664 4.00063 21.5676V10.444L4.00049 10.427C3.99948 10.3676 4.00004 10.3083 4.00215 10.2492L14.7796 18.5826C15.1296 18.8528 15.5593 18.9994 16.0015 18.9994C16.4436 18.9994 16.8735 18.8529 17.2236 18.5826L27.9999 10.2734C28.0013 10.3245 28.0016 10.3757 28.0008 10.427L28.0006 10.444V15C28.0006 15.5523 28.4483 16 29.0006 16C29.5529 16 30.0006 15.5523 30.0006 15V10.452C30.0223 9.03713 29.4848 7.67071 28.5045 6.64981C27.5222 5.62676 26.1752 5.03382 24.7573 5.00028L24.7337 5H7.26662ZM27.2884 8.29653L16.0016 16.9994L4.72558 8.28045C4.79252 8.1957 4.86377 8.11386 4.9392 8.03528C5.55298 7.3959 6.39368 7.02409 7.27934 7H24.7211C25.6069 7.02386 26.448 7.39559 27.0619 8.035C27.1422 8.11862 27.2177 8.20594 27.2884 8.29653Z" fill="#0F0F0F"/>
<path d="M27.2071 19.7929C26.8166 19.4024 26.1834 19.4024 25.7929 19.7929C25.4024 20.1834 25.4024 20.8166 25.7929 21.2071L27.5858 23H20C19.4477 23 19 23.4477 19 24C19 24.5523 19.4477 25 20 25H27.5858L25.7929 26.7929C25.4024 27.1834 25.4024 27.8166 25.7929 28.2071C26.1834 28.5976 26.8166 28.5976 27.2071 28.2071L30.7071 24.7071C30.9024 24.5118 31 24.2559 31 24C31 23.8633 30.9726 23.7331 30.923 23.6144C30.876 23.502 30.8077 23.3964 30.718 23.3039L30.7059 23.2917L27.2071 19.7929Z" fill="#0F0F0F"/>
</svg>
