<svg width="32" height="32" viewBox="0 0 32 32" fill="none" xmlns="http://www.w3.org/2000/svg">
<path d="M7.24871 5.25021L7.26662 5.25H24.7337L24.7514 5.25021C26.1033 5.28219 27.3876 5.84753 28.3242 6.82296C29.2593 7.79679 29.7718 9.10038 29.7506 10.4501V15C29.7506 15.4142 29.4148 15.75 29.0006 15.75C28.5864 15.75 28.2506 15.4142 28.2506 15V10.4312C28.2543 10.2181 28.2392 10.0066 28.206 9.79888L17.0709 18.3847C16.7646 18.621 16.3883 18.7494 16.0016 18.7494C15.6146 18.7494 15.2386 18.6211 14.9324 18.3847L3.79899 9.77606C3.76325 9.99106 3.74677 10.2103 3.75052 10.4312L3.75074 10.444L3.75063 21.5645C3.73846 22.5296 4.11004 23.46 4.78378 24.1512C5.45644 24.8412 6.37525 25.2363 7.33867 25.25H16.0001C16.4144 25.25 16.7501 25.5858 16.7501 26C16.7501 26.4142 16.4144 26.75 16.0001 26.75H7.32396C5.96111 26.7324 4.66104 26.1742 3.70967 25.1982C2.75944 24.2234 2.23476 22.9115 2.25063 21.5505V10.4501C2.22945 9.10055 2.74197 7.79716 3.67674 6.82339C4.61305 5.84801 5.89703 5.2825 7.24871 5.25021ZM4.37983 8.32907L15.8489 17.1973C15.8927 17.2311 15.9464 17.2494 16.0016 17.2494C16.0569 17.2494 16.1107 17.231 16.1544 17.1973L27.6333 8.34638C27.5178 8.17507 27.3872 8.01285 27.2422 7.86185C26.582 7.17419 25.6772 6.77476 24.7244 6.75H7.276C6.32338 6.775 5.41894 7.17452 4.75885 7.86216C4.61887 8.00798 4.49228 8.16425 4.37983 8.32907Z" fill="#0F0F0F"/>
<path d="M25.9697 19.9697C26.2626 19.6768 26.7374 19.6768 27.0303 19.9697L30.5303 23.4697C30.8232 23.7626 30.8232 24.2374 30.5303 24.5303L27.0303 28.0303C26.7374 28.3232 26.2626 28.3232 25.9697 28.0303C25.6768 27.7374 25.6768 27.2626 25.9697 26.9697L28.1893 24.75H20C19.5858 24.75 19.25 24.4142 19.25 24C19.25 23.5858 19.5858 23.25 20 23.25H28.1893L25.9697 21.0303C25.6768 20.7374 25.6768 20.2626 25.9697 19.9697Z" fill="#0F0F0F"/>
</svg>
