<svg width="32" height="32" viewBox="0 0 32 32" fill="none" xmlns="http://www.w3.org/2000/svg">
<path d="M25.75 7.3677V7C25.7485 5.74067 25.2476 4.53333 24.3571 3.64285C23.4666 2.75237 22.2593 2.25146 21 2.25H11C9.74063 2.25143 8.53328 2.75233 7.64279 3.64282C6.7523 4.53331 6.2514 5.74066 6.24997 7V7.3685C5.16745 7.42933 4.14944 7.90285 3.40551 8.6916C2.66158 9.48034 2.24834 10.5243 2.25087 11.6085V24.7335C2.25224 26.0635 2.78117 27.3386 3.72158 28.2791C4.66199 29.2195 5.93708 29.7485 7.26707 29.75H24.7339C26.0639 29.7486 27.3391 29.2197 28.2796 28.2792C29.2201 27.3387 29.7491 26.0635 29.7505 24.7334V11.6082C29.7532 10.5236 29.3399 9.47932 28.5956 8.69041C27.8513 7.9015 26.8329 7.42809 25.75 7.3677V7.3677ZM28.162 10.9423L25.75 12.8017V8.8682C26.3187 8.91736 26.8575 9.14408 27.2903 9.51629C27.7231 9.8885 28.0279 10.3874 28.1616 10.9423H28.162ZM11 3.75H21C21.8616 3.75101 22.6877 4.09374 23.297 4.70301C23.9062 5.31229 24.249 6.13836 24.25 7V13.958L16.1552 20.198C16.1112 20.2316 16.0575 20.2497 16.0022 20.2495C15.9469 20.2493 15.8933 20.2308 15.8496 20.197L7.74957 13.9338V7C7.75057 6.13829 8.09336 5.31216 8.70272 4.70287C9.31208 4.09359 10.1383 3.7509 11 3.75V3.75ZM6.24997 8.8681V12.774L3.84737 10.9164C3.98487 10.3674 4.29025 9.875 4.72093 9.50782C5.15161 9.14065 5.68613 8.91702 6.24997 8.8681V8.8681ZM24.7339 28.25H7.26707C6.33468 28.2491 5.44074 27.8783 4.78145 27.219C4.12215 26.5597 3.75137 25.6658 3.75047 24.7334V12.7388L14.9322 21.3846C15.2384 21.6212 15.6143 21.7496 16.0013 21.7498C16.3882 21.75 16.7643 21.6219 17.0708 21.3856L28.2508 12.7674V24.7332C28.2499 25.6657 27.8791 26.5597 27.2197 27.2191C26.5604 27.8784 25.6663 28.2492 24.7339 28.25V28.25Z" fill="#0F0F0F"/>
</svg>
