<svg width="32" height="32" viewBox="0 0 32 32" fill="none" xmlns="http://www.w3.org/2000/svg">
<path d="M29.5 13.213C29.5 13.1198 29.4739 13.0284 29.4247 12.9492C29.3755 12.87 29.3052 12.8061 29.2216 12.7648C29.138 12.7234 29.0445 12.7063 28.9517 12.7153C28.8589 12.7243 28.7705 12.7591 28.6964 12.8157L17.2141 21.59C16.8651 21.8555 16.4387 21.9992 16.0002 21.9992C15.5618 21.9992 15.1354 21.8555 14.7864 21.59L3.3084 12.8217C3.23433 12.7651 3.14592 12.7304 3.05314 12.7214C2.96037 12.7124 2.86693 12.7295 2.78337 12.7708C2.69981 12.8121 2.62946 12.8759 2.58025 12.9551C2.53105 13.0343 2.50495 13.1256 2.5049 13.2188L2.5 25C2.5013 26.1931 2.97582 27.3369 3.81945 28.1806C4.66308 29.0242 5.80692 29.4987 7 29.5H25C26.1935 29.5 27.3381 29.0259 28.182 28.182C29.0259 27.3381 29.5 26.1935 29.5 25V13.213Z" fill="#0F0F0F"/>
<path d="M16.8108 2.7362C16.5694 2.5799 16.2879 2.49673 16.0002 2.49673C15.7126 2.49673 15.4311 2.5799 15.1897 2.7362C13.7251 3.6842 6.0765 8.4834 3.8535 9.8776C3.78534 9.92056 3.72865 9.97943 3.68829 10.0492C3.64794 10.1189 3.62514 10.1974 3.62185 10.2779C3.61856 10.3584 3.63489 10.4385 3.66943 10.5112C3.70396 10.584 3.75567 10.6473 3.8201 10.6957L16 20L28.1733 10.6978C28.2376 10.6494 28.2893 10.5861 28.3238 10.5134C28.3583 10.4406 28.3746 10.3606 28.3713 10.2802C28.368 10.1997 28.3453 10.1213 28.305 10.0516C28.2647 9.98187 28.2081 9.92299 28.14 9.88C25.9278 8.4914 18.3385 3.7251 16.8108 2.7362Z" fill="#0F0F0F"/>
</svg>
