<svg width="32" height="32" viewBox="0 0 32 32" fill="none" xmlns="http://www.w3.org/2000/svg">
<path d="M2.50488 26.998L11.0361 18.6191L3.55859 11.3955C3.35547 11.1924 3.36816 10.9385 3.57129 10.7861L14.4512 2.55957C15.0859 2.07715 15.4795 1.86133 16 1.86133C16.5078 1.86133 16.876 2.06445 17.5488 2.55957L28.416 10.7861C28.6318 10.9385 28.6318 11.1924 28.416 11.4082L21.04 18.6191L29.4951 26.9346C29.6982 26.6045 29.7871 26.0078 29.7871 25.1826V11.8145C29.7871 10.4814 29.5713 9.91016 28.5049 9.07227L18.4121 1.4043C17.6123 0.794922 16.876 0.363281 16 0.363281C15.1113 0.363281 14.375 0.794922 13.5879 1.4043L3.48242 9.07227C2.42871 9.91016 2.2002 10.4814 2.2002 11.8145V25.1826C2.2002 26.0586 2.30176 26.6553 2.50488 26.998ZM5.69141 28.8896H26.0547C27.2861 28.8896 28.1367 28.6484 28.5938 28.166L17.5742 17.3115C17.0664 16.8037 16.5586 16.5625 16.0381 16.5625C15.5303 16.5625 15.0098 16.8037 14.5146 17.3115L3.41895 28.2295C3.83789 28.6738 4.59961 28.8896 5.69141 28.8896Z" fill="black"/>
</svg>
