<svg width="32" height="32" viewBox="0 0 32 32" fill="none" xmlns="http://www.w3.org/2000/svg">
<path d="M16.0015 17L28.0429 7.7223C28.099 7.67819 28.1451 7.62275 28.1784 7.5596C28.2116 7.49645 28.2311 7.427 28.2357 7.35579C28.2402 7.28458 28.2297 7.21321 28.2048 7.14634C28.1799 7.07947 28.1412 7.0186 28.0912 6.9677C27.6608 6.50738 27.1409 6.13978 26.5635 5.88741C25.986 5.63504 25.3631 5.50321 24.7329 5.5H7.2671C6.64207 5.5031 6.02415 5.63278 5.45061 5.88122C4.87707 6.12965 4.3598 6.49169 3.93 6.9455C3.87959 6.99623 3.84048 7.05704 3.81524 7.12395C3.78999 7.19086 3.77918 7.26236 3.78352 7.33374C3.78785 7.40512 3.80723 7.47478 3.84039 7.53814C3.87354 7.60151 3.91972 7.65714 3.9759 7.7014L16.0015 17Z" fill="#0F0F0F"/>
<path d="M17.2232 18.5844C16.8726 18.8538 16.4428 18.9998 16.0007 18.9994C15.5585 18.999 15.1289 18.8524 14.7788 18.5824L3.3224 9.7237C3.2485 9.66657 3.16007 9.63129 3.06714 9.62184C2.97421 9.6124 2.88049 9.62918 2.79661 9.67028C2.71273 9.71138 2.64203 9.77515 2.59254 9.85437C2.54305 9.93359 2.51674 10.0251 2.5166 10.1185L2.5 21.5551C2.48713 22.8512 2.9887 24.0996 3.89475 25.0265C4.8008 25.9535 6.03741 26.4833 7.3335 26.5H18.3411C17.5328 25.9625 17 25.0435 17 24C17 22.3431 18.3431 21 20 21H23.5417C23.3863 20.0755 23.6653 19.0921 24.3787 18.3787C25.5503 17.2071 27.4497 17.2071 28.6213 18.3787L29.5027 19.26L29.5133 10.1272C29.5134 10.0337 29.4873 9.94209 29.438 9.86269C29.3887 9.78329 29.3181 9.71931 29.2342 9.67802C29.1503 9.63672 29.0566 9.61975 28.9636 9.62905C28.8706 9.63834 28.782 9.67352 28.708 9.7306L17.2232 18.5844Z" fill="#0F0F0F"/>
<path d="M27.2071 19.7929C26.8166 19.4024 26.1834 19.4024 25.7929 19.7929C25.4024 20.1834 25.4024 20.8166 25.7929 21.2071L27.5858 23H20C19.4477 23 19 23.4477 19 24C19 24.5523 19.4477 25 20 25H27.5858L25.7929 26.7929C25.4024 27.1834 25.4024 27.8166 25.7929 28.2071C26.1834 28.5976 26.8166 28.5976 27.2071 28.2071L30.7071 24.7071C30.803 24.6112 30.8753 24.5007 30.9241 24.3828C30.973 24.2649 31 24.1356 31 24C31 23.7282 30.8916 23.4818 30.7157 23.3016L30.7061 23.2918L27.2071 19.7929Z" fill="#0F0F0F"/>
</svg>
