<svg width="32" height="32" viewBox="0 0 32 32" fill="none" xmlns="http://www.w3.org/2000/svg">
<path d="M16 2.25C13.2805 2.25 10.6221 3.05642 8.36092 4.56729C6.09974 6.07816 4.33737 8.22562 3.29666 10.7381C2.25596 13.2506 1.98366 16.0153 2.51421 18.6825C3.04476 21.3497 4.35432 23.7997 6.27729 25.7227C8.20026 27.6457 10.6503 28.9553 13.3175 29.4858C15.9848 30.0163 18.7494 29.744 21.2619 28.7033C23.7744 27.6626 25.9218 25.9003 27.4327 23.6391C28.9436 21.3779 29.75 18.7195 29.75 16C29.7458 12.3546 28.2958 8.85967 25.718 6.28196C23.1403 3.70425 19.6454 2.25423 16 2.25ZM16 28.25C13.5772 28.25 11.2088 27.5315 9.19427 26.1855C7.17977 24.8395 5.60966 22.9263 4.68248 20.6879C3.75531 18.4495 3.51272 15.9864 3.98539 13.6101C4.45806 11.2339 5.62475 9.05114 7.33795 7.33794C9.05114 5.62475 11.2339 4.45805 13.6102 3.98538C15.9864 3.51271 18.4495 3.7553 20.6879 4.68248C22.9263 5.60965 24.8395 7.17976 26.1855 9.19426C27.5316 11.2088 28.25 13.5772 28.25 16C28.2464 19.2478 26.9546 22.3615 24.6581 24.6581C22.3615 26.9546 19.2478 28.2464 16 28.25Z" fill="#0F0F0F"/>
<path d="M11.5 14.75C12.1904 14.75 12.75 14.1904 12.75 13.5C12.75 12.8096 12.1904 12.25 11.5 12.25C10.8097 12.25 10.25 12.8096 10.25 13.5C10.25 14.1904 10.8097 14.75 11.5 14.75Z" fill="#0F0F0F"/>
<path d="M20.5 14.75C21.1904 14.75 21.75 14.1904 21.75 13.5C21.75 12.8096 21.1904 12.25 20.5 12.25C19.8096 12.25 19.25 12.8096 19.25 13.5C19.25 14.1904 19.8096 14.75 20.5 14.75Z" fill="#0F0F0F"/>
<path d="M22.27 18.3012C22.1782 18.2652 22.0802 18.2477 21.9816 18.2498C21.883 18.2519 21.7858 18.2735 21.6956 18.3134C21.6055 18.3532 21.5241 18.4106 21.4562 18.482C21.3882 18.5535 21.3352 18.6378 21.3 18.7299C20.861 19.7738 20.1234 20.6648 19.1799 21.2912C18.2364 21.9176 17.129 22.2514 15.9965 22.2507C14.864 22.2501 13.7569 21.9151 12.8141 21.2877C11.8713 20.6602 11.1348 19.7684 10.6969 18.724C10.6606 18.6324 10.6066 18.5489 10.5381 18.4782C10.4695 18.4075 10.3877 18.351 10.2972 18.3119C10.2068 18.2728 10.1096 18.252 10.0111 18.2505C9.91264 18.2489 9.81482 18.2669 9.72326 18.3032C9.63169 18.3394 9.54817 18.3934 9.47747 18.462C9.40677 18.5306 9.35026 18.6124 9.31118 18.7028C9.2721 18.7932 9.25121 18.8904 9.24971 18.9889C9.2482 19.0874 9.26611 19.1852 9.30241 19.2768C9.85152 20.6017 10.7813 21.734 11.974 22.5305C13.1668 23.3269 14.569 23.7517 16.0032 23.751C17.4374 23.7504 18.8392 23.3244 20.0313 22.5269C21.2233 21.7294 22.1521 20.5963 22.7 19.2709C22.7355 19.179 22.7524 19.081 22.75 18.9825C22.7476 18.8841 22.7258 18.787 22.6859 18.697C22.6459 18.6069 22.5887 18.5256 22.5173 18.4577C22.4459 18.3898 22.3619 18.3366 22.27 18.3012Z" fill="#0F0F0F"/>
</svg>
