<svg width="32" height="32" viewBox="0 0 32 32" fill="none" xmlns="http://www.w3.org/2000/svg">
<path d="M16 29.0801C22.9697 29.0801 28.7334 23.3164 28.7334 16.3467C28.7334 9.37695 22.9697 3.61328 15.9873 3.61328C9.01758 3.61328 3.2666 9.37695 3.2666 16.3467C3.2666 23.3164 9.03027 29.0801 16 29.0801ZM16 27.4424C9.85547 27.4424 4.91699 22.4912 4.91699 16.3467C4.91699 10.2021 9.85547 5.26367 15.9873 5.26367C22.1318 5.26367 27.083 10.2021 27.0957 16.3467C27.0957 22.4912 22.1445 27.4424 16 27.4424ZM12.3057 15.0898C13.0166 15.0898 13.5879 14.4678 13.5879 13.5918C13.5879 12.7285 13.0166 12.0938 12.3057 12.0938C11.6074 12.0938 11.0361 12.7285 11.0361 13.5918C11.0361 14.4678 11.6074 15.0898 12.3057 15.0898ZM19.7197 15.0898C20.4307 15.0898 21.002 14.4678 21.002 13.5918C21.002 12.7285 20.4307 12.0938 19.7197 12.0938C19.0215 12.0938 18.4502 12.7285 18.4502 13.5918C18.4502 14.4678 19.0215 15.0898 19.7197 15.0898ZM16 22.4277C18.8311 22.4277 20.6719 20.4092 20.6719 19.6094C20.6719 19.4697 20.5449 19.3936 20.4434 19.4951C19.5801 20.2568 18.082 20.9678 16 20.9678C13.918 20.9678 12.4072 20.2314 11.5566 19.4951C11.4424 19.4062 11.3281 19.4697 11.3281 19.6094C11.3281 20.4092 13.1689 22.4277 16 22.4277Z" fill="black"/>
</svg>
