<svg width="32" height="32" viewBox="0 0 32 32" fill="none" xmlns="http://www.w3.org/2000/svg">
<path d="M16 2.5C13.33 2.5 10.7199 3.29176 8.49981 4.77516C6.27974 6.25856 4.54942 8.36697 3.52763 10.8338C2.50585 13.3006 2.2385 16.015 2.7594 18.6337C3.28031 21.2525 4.56606 23.6579 6.45406 25.5459C8.34207 27.434 10.7475 28.7197 13.3663 29.2406C15.985 29.7615 18.6994 29.4942 21.1662 28.4724C23.633 27.4506 25.7414 25.7203 27.2248 23.5002C28.7082 21.2801 29.5 18.67 29.5 16C29.4959 12.4208 28.0723 8.98944 25.5414 6.45859C23.0106 3.92774 19.5792 2.5041 16 2.5ZM16 28.5C13.5277 28.5 11.111 27.7669 9.05538 26.3934C6.99976 25.0199 5.39761 23.0676 4.45151 20.7835C3.50542 18.4995 3.25787 15.9861 3.74019 13.5614C4.22251 11.1366 5.41301 8.90932 7.16117 7.16117C8.90933 5.41301 11.1366 4.2225 13.5614 3.74018C15.9861 3.25787 18.4995 3.50541 20.7835 4.45151C23.0676 5.3976 25.0199 6.99976 26.3934 9.05537C27.7669 11.111 28.5 13.5277 28.5 16C28.4963 19.3141 27.1781 22.4913 24.8347 24.8347C22.4913 27.1781 19.3141 28.4963 16 28.5Z" fill="#0F0F0F"/>
<path d="M11.5 14.5C12.0523 14.5 12.5 14.0523 12.5 13.5C12.5 12.9477 12.0523 12.5 11.5 12.5C10.9477 12.5 10.5 12.9477 10.5 13.5C10.5 14.0523 10.9477 14.5 11.5 14.5Z" fill="#0F0F0F"/>
<path d="M20.5 14.5C21.0523 14.5 21.5 14.0523 21.5 13.5C21.5 12.9477 21.0523 12.5 20.5 12.5C19.9477 12.5 19.5 12.9477 19.5 13.5C19.5 14.0523 19.9477 14.5 20.5 14.5Z" fill="#0F0F0F"/>
<path d="M22.18 18.5336C22.0562 18.4862 21.9186 18.4897 21.7974 18.5436C21.6762 18.5974 21.5813 18.697 21.5335 18.8207C21.0762 19.9115 20.3067 20.8428 19.3217 21.4976C18.3368 22.1524 17.1802 22.5015 15.9974 22.501C14.8146 22.5004 13.6584 22.1503 12.674 21.4947C11.6896 20.839 10.9209 19.907 10.4646 18.8158C10.4404 18.7547 10.4043 18.699 10.3586 18.6519C10.3128 18.6048 10.2582 18.5671 10.1979 18.5411C10.1376 18.515 10.0727 18.5011 10.007 18.5002C9.94131 18.4992 9.87607 18.5112 9.81501 18.5354C9.75394 18.5596 9.69825 18.5957 9.65111 18.6414C9.60397 18.6872 9.56631 18.7418 9.54027 18.8021C9.51423 18.8624 9.50033 18.9273 9.49936 18.993C9.49839 19.0587 9.51036 19.1239 9.53461 19.185C10.0653 20.4631 10.9629 21.5553 12.1141 22.3235C13.2653 23.0916 14.6183 23.5013 16.0022 23.5008C17.3862 23.5003 18.7389 23.0895 19.8895 22.3205C21.04 21.5514 21.9368 20.4586 22.4665 19.18C22.5142 19.0563 22.5108 18.9187 22.4571 18.7975C22.4034 18.6762 22.3037 18.5813 22.18 18.5336Z" fill="#0F0F0F"/>
</svg>
