<svg width="32" height="32" viewBox="0 0 32 32" fill="none" xmlns="http://www.w3.org/2000/svg">
<path d="M16 2.5C13.33 2.5 10.7199 3.29176 8.49981 4.77516C6.27974 6.25856 4.54942 8.36697 3.52763 10.8338C2.50585 13.3006 2.2385 16.015 2.7594 18.6337C3.28031 21.2525 4.56606 23.6579 6.45406 25.5459C8.34207 27.434 10.7475 28.7197 13.3663 29.2406C15.985 29.7615 18.6994 29.4942 21.1662 28.4724C23.633 27.4506 25.7414 25.7203 27.2248 23.5002C28.7082 21.2801 29.5 18.67 29.5 16C29.4959 12.4208 28.0723 8.98944 25.5414 6.45859C23.0106 3.92774 19.5792 2.5041 16 2.5ZM16 28.5C13.5277 28.5 11.111 27.7669 9.05538 26.3934C6.99976 25.0199 5.39761 23.0676 4.45151 20.7835C3.50542 18.4995 3.25787 15.9861 3.74019 13.5614C4.22251 11.1366 5.41301 8.90932 7.16117 7.16117C8.90933 5.41301 11.1366 4.2225 13.5614 3.74018C15.9861 3.25787 18.4995 3.50541 20.7835 4.45151C23.0676 5.3976 25.0199 6.99976 26.3934 9.05537C27.7669 11.111 28.5 13.5277 28.5 16C28.4963 19.3141 27.1781 22.4913 24.8347 24.8347C22.4913 27.1781 19.3141 28.4963 16 28.5ZM11.5 14.5C12.0523 14.5 12.5 14.0523 12.5 13.5C12.5 12.9477 12.0523 12.5 11.5 12.5C10.9477 12.5 10.5 12.9477 10.5 13.5C10.5 14.0523 10.9477 14.5 11.5 14.5ZM21.5 13.5C21.5 14.0523 21.0523 14.5 20.5 14.5C19.9477 14.5 19.5 14.0523 19.5 13.5C19.5 12.9477 19.9477 12.5 20.5 12.5C21.0523 12.5 21.5 12.9477 21.5 13.5ZM11.8319 18.55C13.0666 17.8629 14.5189 17.4974 16.0038 17.5C17.4891 17.5024 18.9403 17.8708 20.1746 18.5588C21.4089 19.2468 22.371 20.2237 22.9398 21.3663C23.0293 21.5713 23.0187 21.7973 22.9103 21.9958C22.8019 22.1943 22.6044 22.3495 22.3601 22.4281C22.1159 22.5067 22.0065 22.499 22.0065 22.499C21.8701 22.499 21.6222 22.4369 21.2626 22.3469C20.3036 22.1067 18.5507 21.6677 16.0038 21.6783C13.4597 21.6888 11.7078 22.118 10.7536 22.3518C10.3946 22.4397 10.1485 22.5 10.0157 22.4999C9.8842 22.5015 9.75365 22.4815 9.63146 22.4411C9.50928 22.4006 9.39786 22.3406 9.30355 22.2643C9.20925 22.188 9.13391 22.0969 9.08185 21.9964C9.02978 21.8959 9.00201 21.7878 9.0001 21.6783C8.9982 21.5688 9.02221 21.4601 9.07076 21.3583C9.63602 20.2147 10.5972 19.2371 11.8319 18.55Z" fill="#0F0F0F"/>
</svg>
