<svg width="32" height="32" viewBox="0 0 32 32" fill="none" xmlns="http://www.w3.org/2000/svg">
<path d="M16 29.2959C16.2285 29.2959 16.5459 29.1943 16.8379 29.0293C23.9473 24.916 26.2959 23.3672 26.2959 19V9.35156C26.2959 7.99316 25.7881 7.54883 24.6201 7.0791C22.8174 6.35547 18.8184 4.87012 17.0029 4.24805C16.6729 4.13379 16.3301 4.05762 16 4.05762C15.6572 4.05762 15.3145 4.14648 14.9844 4.24805C13.1816 4.83203 9.16992 6.36816 7.36719 7.0791C6.19922 7.53613 5.69141 7.99316 5.69141 9.35156V19C5.69141 23.3672 8.06543 24.8779 15.1494 29.0293C15.4414 29.1943 15.7588 29.2959 16 29.2959ZM16 27.5312C15.7842 27.5312 15.5557 27.4297 15.251 27.252C9.36035 23.583 7.25293 22.5293 7.25293 18.6699V9.63086C7.25293 8.99609 7.36719 8.75488 7.84961 8.56445C9.53809 7.8916 13.6895 6.41895 15.3906 5.74609C15.6191 5.64453 15.835 5.59375 16 5.59375C16.1523 5.59375 16.3555 5.65723 16.6094 5.74609C18.2979 6.41895 22.4238 7.94238 24.1377 8.56445C24.6201 8.74219 24.7344 8.99609 24.7344 9.63086V18.6699C24.7344 22.5293 22.6016 23.5576 16.7363 27.252C16.4316 27.4297 16.2031 27.5312 16 27.5312Z" fill="black"/>
</svg>
