<svg width="32" height="32" viewBox="0 0 32 32" fill="none" xmlns="http://www.w3.org/2000/svg">
<path d="M24.9996 2.99991H6.99963C5.67403 3.00147 4.40317 3.52875 3.46582 4.4661C2.52848 5.40344 2.00119 6.6743 1.99963 7.99991V20.0004C2.00119 21.326 2.52847 22.5969 3.46582 23.5342C4.40316 24.4716 5.67403 24.9988 6.99963 25.0004H14.9996V27.0004H12.9996C12.7344 27.0004 12.4801 27.1058 12.2925 27.2933C12.105 27.4808 11.9996 27.7352 11.9996 28.0004C11.9996 28.2656 12.105 28.52 12.2925 28.7075C12.4801 28.895 12.7344 29.0004 12.9996 29.0004H18.9996C19.2649 29.0004 19.5192 28.895 19.7067 28.7075C19.8943 28.52 19.9996 28.2656 19.9996 28.0004C19.9996 27.7352 19.8943 27.4808 19.7067 27.2933C19.5192 27.1058 19.2649 27.0004 18.9996 27.0004H16.9996V25.0004H24.9996C26.3252 24.9988 27.5961 24.4716 28.5334 23.5342C29.4708 22.5969 29.9981 21.326 29.9996 20.0004V7.99991C29.9981 6.6743 29.4708 5.40344 28.5334 4.4661C27.5961 3.52875 26.3252 3.00147 24.9996 2.99991ZM4.00003 17H28V19H4.00003V17ZM17 9H15C14.7348 9 14.4805 8.89464 14.2929 8.70711C14.1054 8.51957 14 8.26522 14 8C14 7.73478 14.1054 7.48043 14.2929 7.29289C14.4805 7.10536 14.7348 7 15 7H17C17.2652 7 17.5196 7.10536 17.7071 7.29289C17.8947 7.48043 18 7.73478 18 8C18 8.26522 17.8947 8.51957 17.7071 8.70711C17.5196 8.89464 17.2652 9 17 9Z" fill="#0F0F0F"/>
</svg>
