<svg width="32" height="32" viewBox="0 0 32 32" fill="none" xmlns="http://www.w3.org/2000/svg">
<path d="M5.04395 25.9697C5.53906 25.9697 5.89453 25.6143 5.89453 25.1191C5.89453 24.7637 5.86914 24.3066 5.86914 23.6211C5.86914 18.8223 7.72266 16.8799 12.4326 16.8799H22.2334L25.293 16.7402L21.5352 20.2568L17.79 24.0527C17.6377 24.2051 17.5488 24.4336 17.5488 24.6621C17.5488 25.1445 17.917 25.5 18.3994 25.5C18.6279 25.5 18.8438 25.4111 19.0342 25.2334L27.5654 16.6768C27.7812 16.4736 27.8701 16.2578 27.8701 16.0166C27.8701 15.7754 27.7812 15.5596 27.5654 15.3564L19.0977 6.87598C18.8438 6.62207 18.6279 6.5332 18.3994 6.5332C17.917 6.5332 17.5488 6.88867 17.5488 7.37109C17.5488 7.59961 17.625 7.82812 17.79 7.98047L21.5352 11.7764L25.2803 15.2803L22.2334 15.1533H12.3564C6.60547 15.1533 4.12988 17.6416 4.12988 23.5322C4.12988 24.2686 4.14258 24.916 4.21875 25.2334C4.29492 25.6396 4.52344 25.9697 5.04395 25.9697Z" fill="black"/>
</svg>
