<svg width="32" height="32" viewBox="0 0 32 32" fill="none" xmlns="http://www.w3.org/2000/svg">
<path d="M24.9995 23.7105C24.9338 23.7105 24.8688 23.7234 24.8081 23.7485C24.7474 23.7736 24.6923 23.8104 24.6459 23.8569C24.5994 23.9033 24.5626 23.9585 24.5375 24.0191C24.5124 24.0798 24.4995 24.1448 24.4995 24.2105V24.9996C24.4984 25.9275 24.1293 26.8171 23.4731 27.4732C22.817 28.1293 21.9274 28.4985 20.9995 28.4996H11C10.0721 28.4985 9.1825 28.1293 8.52637 27.4732C7.87023 26.8171 7.50112 25.9275 7.5 24.9996V6.99958C7.50112 6.07167 7.87023 5.18208 8.52637 4.52595C9.1825 3.86981 10.0721 3.5007 11 3.49958H20.9995C21.9274 3.5007 22.817 3.86981 23.4731 4.52595C24.1293 5.18208 24.4984 6.07167 24.4995 6.99958V7.70466C24.4995 7.83727 24.5522 7.96445 24.646 8.05821C24.7397 8.15198 24.8669 8.20466 24.9995 8.20466C25.1321 8.20466 25.2593 8.15198 25.3531 8.05821C25.4468 7.96445 25.4995 7.83727 25.4995 7.70466V6.99958C25.4982 5.80651 25.0237 4.66267 24.1801 3.81904C23.3364 2.97541 22.1926 2.50088 20.9995 2.49958H11C9.80692 2.50088 8.66309 2.9754 7.81945 3.81903C6.97582 4.66267 6.5013 5.8065 6.5 6.99958V24.9996C6.5013 26.1927 6.97583 27.3365 7.81946 28.1801C8.66309 29.0238 9.80693 29.4983 11 29.4996H20.9995C22.1926 29.4983 23.3364 29.0237 24.18 28.1801C25.0237 27.3365 25.4982 26.1927 25.4995 24.9996V24.2105C25.4995 24.1448 25.4866 24.0798 25.4615 24.0191C25.4364 23.9585 25.3996 23.9033 25.3531 23.8569C25.3067 23.8104 25.2516 23.7736 25.1909 23.7485C25.1302 23.7234 25.0652 23.7105 24.9995 23.7105Z" fill="#0F0F0F"/>
<path d="M29.0005 15.4996H22.2065L25.353 12.3531C25.4002 12.3068 25.4378 12.2517 25.4635 12.1908C25.4893 12.13 25.5027 12.0646 25.503 11.9985C25.5034 11.9325 25.4906 11.867 25.4655 11.8059C25.4403 11.7447 25.4033 11.6892 25.3566 11.6425C25.3099 11.5958 25.2544 11.5588 25.1932 11.5336C25.1321 11.5085 25.0666 11.4957 25.0006 11.4961C24.9345 11.4964 24.8691 11.5098 24.8083 11.5356C24.7474 11.5613 24.6923 11.5989 24.646 11.6461L20.646 15.6461C20.5996 15.6925 20.5627 15.7476 20.5376 15.8083C20.5125 15.8689 20.4996 15.9339 20.4996 15.9996C20.4996 16.0652 20.5125 16.1303 20.5376 16.1909C20.5627 16.2516 20.5996 16.3067 20.646 16.3531L24.646 20.3531C24.6923 20.4003 24.7474 20.4378 24.8083 20.4636C24.8691 20.4893 24.9345 20.5028 25.0006 20.5031C25.0666 20.5034 25.1321 20.4907 25.1932 20.4655C25.2544 20.4404 25.3099 20.4034 25.3566 20.3567C25.4033 20.31 25.4403 20.2544 25.4655 20.1933C25.4906 20.1322 25.5034 20.0667 25.503 20.0006C25.5027 19.9346 25.4893 19.8692 25.4635 19.8083C25.4378 19.7475 25.4002 19.6923 25.353 19.6461L22.2065 16.4996H29.0005C29.1331 16.4996 29.2603 16.4469 29.354 16.3532C29.4478 16.2594 29.5005 16.1322 29.5005 15.9996C29.5005 15.867 29.4478 15.7398 29.354 15.6461C29.2603 15.5523 29.1331 15.4996 29.0005 15.4996Z" fill="#0F0F0F"/>
</svg>
