<svg width="32" height="32" viewBox="0 0 32 32" fill="none" xmlns="http://www.w3.org/2000/svg">
<path d="M12.3818 28.5469H19.6055C21.4336 28.5469 22.1318 27.9375 23.0332 26.9727L27.5654 22.0342C28.3652 21.1709 28.5684 20.6123 28.5684 19.3682V13.376C28.5684 12.1318 28.3652 11.5732 27.5654 10.71L23.0332 5.77148C22.1318 4.80664 21.4336 4.19727 19.6055 4.19727H12.3818C10.541 4.19727 9.84277 4.80664 8.9541 5.77148L4.40918 10.71C3.62207 11.5732 3.41895 12.1318 3.41895 13.376V19.3682C3.41895 20.6123 3.62207 21.1709 4.40918 22.0342L8.9541 26.9727C9.84277 27.9375 10.541 28.5469 12.3818 28.5469ZM12.8262 26.9854C11.3408 26.9854 10.9727 26.6426 10.1348 25.7412L5.81836 21.0693C5.29785 20.498 5.19629 20.1553 5.19629 19.2031V13.5283C5.19629 12.5889 5.29785 12.2461 5.81836 11.6748L10.1348 7.00293C10.9727 6.10156 11.3408 5.74609 12.8262 5.74609H19.1484C20.6338 5.74609 21.0146 6.10156 21.8525 7.00293L26.1562 11.6748C26.6768 12.2461 26.791 12.5889 26.791 13.5283V19.2031C26.791 20.1553 26.6768 20.498 26.1562 21.0693L21.8525 25.7412C21.0146 26.6426 20.6338 26.9854 19.1484 26.9854H12.8262ZM11.5566 21.6025C11.7852 21.6025 11.9756 21.5137 12.1406 21.3486L15.9873 17.502L19.834 21.3486C19.999 21.5137 20.1895 21.6025 20.418 21.6025C20.8623 21.6025 21.2178 21.2471 21.2178 20.8027C21.2178 20.5742 21.1289 20.3965 20.9639 20.2314L17.1172 16.3721L20.9766 12.5C21.1543 12.3223 21.2305 12.1572 21.2305 11.9287C21.2305 11.4971 20.875 11.1543 20.4307 11.1543C20.2148 11.1543 20.0371 11.2178 19.8594 11.4082L15.9873 15.2549L12.1279 11.4082C11.9629 11.2432 11.7852 11.167 11.5566 11.167C11.1123 11.167 10.7568 11.4971 10.7568 11.9414C10.7568 12.1572 10.8457 12.3477 10.998 12.5127L14.8574 16.3721L10.998 20.2441C10.8457 20.3965 10.7568 20.5869 10.7568 20.8027C10.7568 21.2471 11.1123 21.6025 11.5566 21.6025Z" fill="black"/>
</svg>
