<svg width="32" height="32" viewBox="0 0 32 32" fill="none" xmlns="http://www.w3.org/2000/svg">
<path d="M12.3818 28.5469H19.6055C21.4336 28.5469 22.1318 27.9375 23.0332 26.9727L27.5654 22.0342C28.3652 21.1709 28.5684 20.6123 28.5684 19.3682V13.376C28.5684 12.1318 28.3652 11.5732 27.5654 10.71L23.0332 5.77148C22.1318 4.80664 21.4336 4.19727 19.6055 4.19727H12.3818C10.541 4.19727 9.84277 4.80664 8.9541 5.77148L4.40918 10.71C3.62207 11.5732 3.41895 12.1318 3.41895 13.376V19.3682C3.41895 20.6123 3.62207 21.1709 4.40918 22.0342L8.9541 26.9727C9.84277 27.9375 10.541 28.5469 12.3818 28.5469ZM11.3408 21.8564C10.8711 21.8564 10.5029 21.4883 10.5029 21.0312C10.5029 20.79 10.5791 20.5996 10.7568 20.4346L14.8066 16.3721L10.7568 12.3096C10.5918 12.1572 10.5029 11.9541 10.5029 11.7256C10.5029 11.2559 10.8711 10.9004 11.3408 10.9004C11.582 10.9004 11.7725 10.9893 11.9248 11.1543L15.9873 15.2041L20.0498 11.1543C20.2275 10.9639 20.418 10.8877 20.6465 10.8877C21.1162 10.8877 21.4844 11.2559 21.4844 11.7129C21.4844 11.9414 21.4082 12.1318 21.2305 12.3096L17.168 16.3721L21.2178 20.4219C21.3828 20.5869 21.4717 20.79 21.4717 21.0312C21.4717 21.4883 21.1035 21.8564 20.6338 21.8564C20.3926 21.8564 20.1895 21.7549 20.0244 21.6025L15.9873 17.5527L11.9502 21.6025C11.7852 21.7676 11.582 21.8564 11.3408 21.8564Z" fill="black"/>
</svg>
