<svg width="32" height="32" viewBox="0 0 32 32" fill="none" xmlns="http://www.w3.org/2000/svg">
<path fill-rule="evenodd" clip-rule="evenodd" d="M6 2C3.79086 2 2 3.79086 2 6V26C2 28.2091 3.79086 30 6 30H26C28.2091 30 30 28.2091 30 26V6C30 3.79086 28.2091 2 26 2H6ZM17.0001 15.0004H27.0001C27.2653 15.0004 27.5197 15.1058 27.7072 15.2933C27.8948 15.4808 28.0001 15.7352 28.0001 16.0004C28.0001 16.2656 27.8948 16.52 27.7072 16.7075C27.5197 16.895 27.2653 17.0004 27.0001 17.0004H24.0001V20.0004H24.9933C25.5235 20.0011 26.0318 20.212 26.4067 20.5869C26.7817 20.9619 26.9926 21.4702 26.9933 22.0004V26.0004C26.9926 26.5306 26.7817 27.0389 26.4067 27.4139C26.0318 27.7888 25.5235 27.9997 24.9933 28.0004H20.9933C20.4631 27.9997 19.9548 27.7888 19.5798 27.4139C19.2049 27.0389 18.994 26.5306 18.9933 26.0004V22.0004C18.994 21.4702 19.2049 20.9619 19.5798 20.5869C19.9548 20.212 20.4631 20.0011 20.9933 20.0004H22.0001V17.0004H10.0001V20.0004H10.9933C11.5235 20.0011 12.0318 20.212 12.4067 20.5869C12.7817 20.9619 12.9926 21.4702 12.9933 22.0004V26.0004C12.9926 26.5306 12.7817 27.0389 12.4067 27.4139C12.0318 27.7888 11.5235 27.9997 10.9933 28.0004H6.99328C6.46306 27.9997 5.95475 27.7888 5.57983 27.4139C5.2049 27.0389 4.99397 26.5306 4.99328 26.0004V22.0004C4.99397 21.4702 5.2049 20.9619 5.57983 20.5869C5.95475 20.212 6.46306 20.0011 6.99328 20.0004H8.00012V17.0004H5.00012C4.8688 17.0004 4.73876 16.9745 4.61744 16.9243C4.49611 16.874 4.38587 16.8004 4.29302 16.7075C4.20016 16.6146 4.1265 16.5044 4.07624 16.3831C4.02599 16.2618 4.00012 16.1317 4.00012 16.0004C4.00012 15.8691 4.02599 15.739 4.07624 15.6177C4.1265 15.4964 4.20016 15.3861 4.29302 15.2933C4.38587 15.2004 4.49611 15.1268 4.61744 15.0765C4.73876 15.0263 4.8688 15.0004 5.00012 15.0004H15.0001V12.0004H13.9933C13.4631 11.9997 12.9548 11.7888 12.5798 11.4139C12.2049 11.0389 11.994 10.5306 11.9933 10.0004V6.0004C11.994 5.47018 12.2049 4.96187 12.5798 4.58694C12.9548 4.21202 13.4631 4.00108 13.9933 4.0004H17.9933C18.5235 4.00108 19.0318 4.21202 19.4067 4.58694C19.7817 4.96187 19.9926 5.47018 19.9933 6.0004V10.0004C19.9926 10.5306 19.7817 11.0389 19.4067 11.4139C19.0318 11.7888 18.5235 11.9997 17.9933 12.0004H17.0001V15.0004ZM17.9933 6.0004H13.9933V10.0004H17.9943L17.9933 6.0004ZM6.99328 26.0004H10.9943L10.9933 22.0004H6.99328V26.0004ZM20.9933 26.0004H24.9943L24.9933 22.0004H20.9933V26.0004Z" fill="#0F0F0F"/>
</svg>
