<svg width="32" height="32" viewBox="0 0 32 32" fill="none" xmlns="http://www.w3.org/2000/svg">
<path d="M10.6504 2.65047L4.6504 8.65047C4.60396 8.69689 4.56712 8.75199 4.54199 8.81265C4.51686 8.8733 4.50392 8.93832 4.50392 9.00397C4.50392 9.06963 4.51686 9.13464 4.54199 9.1953C4.56712 9.25595 4.60396 9.31106 4.6504 9.35747L10.6504 15.3575C10.7445 15.4497 10.8711 15.501 11.0028 15.5003C11.1346 15.4997 11.2607 15.4471 11.3538 15.3539C11.447 15.2608 11.4996 15.1346 11.5003 15.0029C11.5009 14.8712 11.4496 14.7445 11.3574 14.6505L6.21094 9.50398L27.0039 9.50398C27.1365 9.50398 27.2637 9.4513 27.3575 9.35753C27.4513 9.26377 27.5039 9.13659 27.5039 9.00398C27.5039 8.87137 27.4513 8.7442 27.3575 8.65043C27.2637 8.55666 27.1365 8.50398 27.0039 8.50398L6.21094 8.50398L11.3574 3.3575C11.4046 3.31125 11.4422 3.2561 11.4679 3.19525C11.4937 3.13439 11.5071 3.06903 11.5074 3.00295C11.5078 2.93688 11.495 2.87139 11.4699 2.81027C11.4447 2.74916 11.4077 2.69364 11.361 2.64691C11.3143 2.60019 11.2588 2.56319 11.1977 2.53805C11.1365 2.51292 11.071 2.50015 11.005 2.50048C10.9389 2.50082 10.8735 2.51425 10.8127 2.54C10.7518 2.56575 10.6966 2.60328 10.6504 2.65047Z" fill="#0F0F0F"/>
<path d="M20.6504 17.3575L25.7969 22.504L5.00391 22.504C4.8713 22.504 4.74412 22.5567 4.65035 22.6504C4.55658 22.7442 4.50391 22.8714 4.50391 23.004C4.50391 23.1366 4.55658 23.2638 4.65035 23.3575C4.74412 23.4513 4.8713 23.504 5.00391 23.504L25.7969 23.504L20.6504 28.6505C20.5582 28.7445 20.5069 28.8712 20.5075 29.0029C20.5082 29.1346 20.5608 29.2608 20.6539 29.3539C20.7471 29.4471 20.8732 29.4997 21.0049 29.5003C21.1367 29.501 21.2633 29.4497 21.3574 29.3575L27.3574 23.3575C27.4038 23.3111 27.4407 23.2559 27.4658 23.1953C27.4909 23.1346 27.5039 23.0696 27.5039 23.004C27.5039 22.9383 27.4909 22.8733 27.4658 22.8127C27.4407 22.752 27.4038 22.6969 27.3574 22.6505L21.3574 16.6505C21.2633 16.5583 21.1367 16.5069 21.0049 16.5076C20.8732 16.5083 20.7471 16.5609 20.6539 16.654C20.5608 16.7472 20.5082 16.8733 20.5075 17.005C20.5069 17.1367 20.5582 17.2634 20.6504 17.3575Z" fill="#0F0F0F"/>
</svg>
