<svg width="32" height="32" viewBox="0 0 32 32" fill="none" xmlns="http://www.w3.org/2000/svg">
<path d="M24.9995 23.4605C24.8006 23.4606 24.6099 23.5396 24.4692 23.6802C24.3286 23.8209 24.2496 24.0116 24.2495 24.2105V24.9996C24.2485 25.8612 23.9058 26.6873 23.2965 27.2966C22.6872 27.9059 21.8612 28.2486 20.9995 28.2496H10.9995C10.1379 28.2486 9.31179 27.9059 8.70251 27.2966C8.09324 26.6873 7.75051 25.8612 7.74951 24.9996V6.99958C7.75051 6.13793 8.09324 5.31186 8.70251 4.70258C9.31179 4.0933 10.1379 3.75058 10.9995 3.74958H20.9995C21.8612 3.75058 22.6872 4.09331 23.2965 4.70259C23.9058 5.31186 24.2485 6.13793 24.2495 6.99958V7.70466C24.2495 7.90357 24.3285 8.09434 24.4692 8.23499C24.6098 8.37564 24.8006 8.45466 24.9995 8.45466C25.1984 8.45466 25.3892 8.37564 25.5298 8.23499C25.6705 8.09434 25.7495 7.90357 25.7495 7.70466V6.99958C25.7481 5.74024 25.2472 4.53289 24.3567 3.6424C23.4662 2.75191 22.2589 2.25101 20.9995 2.24958H10.9995C9.74017 2.25101 8.53282 2.75191 7.64233 3.6424C6.75184 4.53289 6.25094 5.74024 6.24951 6.99958V24.9996C6.25094 26.2589 6.75184 27.4663 7.64233 28.3568C8.53282 29.2472 9.74017 29.7482 10.9995 29.7496H20.9995C22.2589 29.7482 23.4662 29.2472 24.3567 28.3568C25.2472 27.4663 25.7481 26.2589 25.7495 24.9996V24.2105C25.7495 24.0116 25.6704 23.8209 25.5298 23.6802C25.3891 23.5396 25.1984 23.4606 24.9995 23.4605Z" fill="#0F0F0F"/>
<path d="M29.5308 15.4693L25.5308 11.4693C25.39 11.3291 25.1994 11.2505 25.0008 11.2507C24.8022 11.2509 24.6117 11.3299 24.4713 11.4703C24.3308 11.6108 24.2518 11.8012 24.2516 11.9999C24.2514 12.1985 24.33 12.3891 24.4702 12.5299L27.1899 15.2496H20.9995C20.8006 15.2496 20.6098 15.3286 20.4692 15.4693C20.3285 15.6099 20.2495 15.8007 20.2495 15.9996C20.2495 16.1985 20.3285 16.3893 20.4692 16.5299C20.6098 16.6706 20.8006 16.7496 20.9995 16.7496H27.1899L24.4702 19.4693C24.4003 19.5389 24.3449 19.6216 24.307 19.7126C24.2691 19.8037 24.2496 19.9013 24.2495 19.9999C24.2494 20.0985 24.2688 20.1961 24.3065 20.2873C24.3441 20.3784 24.3994 20.4612 24.4692 20.5309C24.5389 20.6006 24.6217 20.6559 24.7128 20.6936C24.8039 20.7313 24.9016 20.7506 25.0002 20.7505C25.0988 20.7504 25.1964 20.7309 25.2874 20.693C25.3785 20.6552 25.4612 20.5997 25.5307 20.5299L29.5307 16.5299C29.6004 16.4602 29.6557 16.3776 29.6934 16.2866C29.7311 16.1956 29.7505 16.0981 29.7505 15.9996C29.7505 15.9011 29.7311 15.8036 29.6934 15.7126C29.6557 15.6216 29.6004 15.5389 29.5308 15.4693Z" fill="#0F0F0F"/>
</svg>
