<svg width="32" height="32" viewBox="0 0 32 32" fill="none" xmlns="http://www.w3.org/2000/svg">
<path d="M27.3751 21.72L17.5075 16.0228L27.3751 10.3255C27.4622 10.2772 27.5387 10.212 27.6002 10.1338C27.6618 10.0556 27.7072 9.96587 27.7337 9.86994C27.7603 9.77401 27.7675 9.67375 27.7549 9.57501C27.7423 9.47627 27.7102 9.38103 27.6604 9.29483C27.6106 9.20863 27.5442 9.1332 27.465 9.07294C27.3857 9.01268 27.2953 8.96879 27.199 8.94384C27.1026 8.91888 27.0022 8.91335 26.9037 8.92758C26.8052 8.94181 26.7105 8.9755 26.6251 9.0267L16.7499 14.7283V3C16.7499 2.80109 16.6709 2.61032 16.5303 2.46967C16.3896 2.32902 16.1989 2.25 15.9999 2.25C15.801 2.25 15.6103 2.32902 15.4696 2.46967C15.329 2.61032 15.2499 2.80109 15.2499 3V14.72L5.37515 9.018C5.28979 8.9668 5.19509 8.93311 5.09657 8.91888C4.99806 8.90466 4.89769 8.91018 4.80134 8.93514C4.70498 8.96009 4.61455 9.00398 4.53533 9.06424C4.4561 9.1245 4.38967 9.19993 4.33989 9.28613C4.29011 9.37233 4.258 9.46757 4.2454 9.56631C4.23281 9.66505 4.24 9.76531 4.26655 9.86124C4.2931 9.95717 4.33849 10.0469 4.40005 10.1251C4.46162 10.2033 4.53814 10.2685 4.62515 10.3168L14.5079 16.0229L4.62515 21.7289C4.53854 21.7775 4.46244 21.8427 4.40126 21.9209C4.34008 21.9991 4.29503 22.0887 4.26873 22.1844C4.24244 22.2802 4.23541 22.3802 4.24806 22.4787C4.26072 22.5771 4.2928 22.6721 4.34245 22.7581C4.39209 22.8441 4.45832 22.9194 4.53728 22.9796C4.61625 23.0398 4.70638 23.0837 4.80244 23.1087C4.89851 23.1338 4.9986 23.1396 5.09691 23.1257C5.19523 23.1118 5.2898 23.0785 5.37515 23.0278L15.2501 17.3262V29C15.2501 29.1989 15.3292 29.3897 15.4698 29.5303C15.6105 29.671 15.8012 29.75 16.0001 29.75C16.1991 29.75 16.3898 29.671 16.5305 29.5303C16.6711 29.3897 16.7501 29.1989 16.7501 29V17.3174L26.6251 23.019C26.7972 23.1155 27.0004 23.1403 27.1906 23.088C27.3808 23.0358 27.5428 22.9107 27.6414 22.7398C27.7401 22.569 27.7675 22.3662 27.7176 22.1753C27.6678 21.9844 27.5447 21.8209 27.3751 21.7201V21.72Z" fill="#0F0F0F"/>
</svg>
