<svg width="32" height="32" viewBox="0 0 32 32" fill="none" xmlns="http://www.w3.org/2000/svg">
<path d="M27.25 21.9369L17.0073 16.0229L27.25 10.1093C27.3068 10.0765 27.3567 10.0328 27.3967 9.98066C27.4366 9.92856 27.466 9.8691 27.483 9.80567C27.5 9.74224 27.5043 9.67608 27.4958 9.61097C27.4872 9.54586 27.4659 9.48308 27.4331 9.4262C27.4002 9.36932 27.3565 9.31947 27.3044 9.27949C27.2523 9.23951 27.1929 9.21018 27.1294 9.19318C27.066 9.17617 26.9998 9.17183 26.9347 9.1804C26.8696 9.18896 26.8068 9.21027 26.75 9.2431L16.5 15.1614V3C16.5 2.86739 16.4473 2.74021 16.3535 2.64645C16.2597 2.55268 16.1326 2.5 16 2.5C15.8673 2.5 15.7402 2.55268 15.6464 2.64645C15.5526 2.74021 15.5 2.86739 15.5 3V15.1526L5.24995 9.2343C5.13509 9.168 4.99859 9.15004 4.87048 9.18438C4.74238 9.21871 4.63316 9.30254 4.56685 9.4174C4.50055 9.53227 4.48259 9.66877 4.51693 9.79687C4.55127 9.92498 4.63509 10.0342 4.74995 10.1005L15.0079 16.0229L4.74995 21.9457C4.65484 22.0008 4.58054 22.0858 4.53856 22.1874C4.49658 22.289 4.48925 22.4016 4.51772 22.5078C4.54618 22.6139 4.60885 22.7078 4.69603 22.7748C4.7832 22.8418 4.89002 22.8781 4.99995 22.8783C5.0878 22.8785 5.17411 22.8553 5.24995 22.811L15.5 16.8931V29C15.5 29.1326 15.5526 29.2598 15.6464 29.3536C15.7402 29.4473 15.8673 29.5 16 29.5C16.1326 29.5 16.2597 29.4473 16.3535 29.3536C16.4473 29.2598 16.5 29.1326 16.5 29V16.8843L26.75 22.8022C26.8257 22.8467 26.9121 22.8701 27 22.87C27.1099 22.8699 27.2168 22.8335 27.304 22.7665C27.3912 22.6995 27.4539 22.6057 27.4824 22.4995C27.5108 22.3932 27.5035 22.2806 27.4615 22.179C27.4195 22.0773 27.3451 21.9924 27.25 21.9373V21.9369Z" fill="#0F0F0F"/>
</svg>
