<svg width="32" height="32" viewBox="0 0 32 32" fill="none" xmlns="http://www.w3.org/2000/svg">
<path d="M17.8916 26.4648V19.5459L23.8457 22.9736C24.2773 23.2402 24.6201 23.3799 24.9248 23.3799C25.3945 23.3799 25.7373 23.0498 26.207 22.3389L26.2959 22.1992C26.5879 21.7549 26.7275 21.3867 26.7275 21.0693C26.7275 20.5742 26.3721 20.2061 25.6738 19.8125L19.5039 16.2324L25.6611 12.8682C26.3594 12.5 26.6895 12.1318 26.6895 11.6367C26.6895 11.3193 26.5498 10.9512 26.2959 10.4941L26.1943 10.3291C25.7754 9.60547 25.4072 9.30078 24.9375 9.30078C24.6328 9.30078 24.2646 9.42773 23.833 9.68164L17.8916 13.1221V6.21582C17.8916 4.88281 17.4219 4.51465 16.0635 4.51465H15.9111C14.5527 4.51465 14.083 4.88281 14.083 6.21582V13.1221L8.1416 9.68164C7.69727 9.41504 7.31641 9.27539 6.98633 9.27539C6.49121 9.27539 6.11035 9.59277 5.74219 10.3291L5.66602 10.4814C5.4375 10.9512 5.31055 11.3193 5.31055 11.6367C5.31055 12.1318 5.61523 12.4873 6.32617 12.8809L12.4707 16.2324L6.28809 19.8125C5.61523 20.2061 5.27246 20.5615 5.27246 21.0439C5.27246 21.3613 5.41211 21.7422 5.69141 22.2119L5.75488 22.3262C6.17383 23.0498 6.54199 23.3799 7.02441 23.3799C7.3291 23.3799 7.69727 23.2402 8.12891 22.9736L14.083 19.5459V26.4648C14.083 27.7979 14.5527 28.166 15.9111 28.166H16.0635C17.4219 28.166 17.8916 27.7979 17.8916 26.4648Z" fill="black"/>
</svg>
