<svg width="32" height="32" viewBox="0 0 32 32" fill="none" xmlns="http://www.w3.org/2000/svg">
<path d="M7.46875 29.2578C7.90039 29.5752 8.4209 29.4863 9.08105 29.0039L16 23.9385L22.9189 29.0039C23.5664 29.4863 24.0996 29.5752 24.5186 29.2578C24.9502 28.9404 25.0518 28.4199 24.7852 27.6455L22.0811 19.5078L29.0508 14.5059C29.7109 14.0361 29.9395 13.541 29.7744 13.0459C29.6094 12.5508 29.1396 12.2842 28.3271 12.2969L19.7705 12.335L17.1553 4.17188C16.9014 3.39746 16.5205 3.0293 16 3.0293C15.4668 3.0293 15.0986 3.39746 14.8447 4.17188L12.2295 12.335L3.67285 12.2969C2.84766 12.2842 2.37793 12.5508 2.21289 13.0459C2.04785 13.541 2.28906 14.0361 2.94922 14.5059L9.90625 19.5078L7.21484 27.6455C6.94824 28.4199 7.0498 28.9404 7.46875 29.2578ZM8.82715 27.3916C8.80176 27.3535 8.81445 27.3281 8.83984 27.2393L11.4551 19.5713C11.5947 19.1523 11.5059 18.7969 11.125 18.5303L4.49805 13.8838C4.42188 13.833 4.38379 13.7949 4.40918 13.7568C4.42188 13.7188 4.45996 13.7188 4.54883 13.7188L12.6611 13.8203C13.1055 13.8203 13.3975 13.6426 13.5371 13.1982L15.9111 5.4541C15.9365 5.36523 15.9619 5.32715 16 5.32715C16.0381 5.32715 16.0635 5.36523 16.0889 5.4541L18.4629 13.1982C18.6025 13.6426 18.8945 13.8203 19.3389 13.8203L27.4512 13.7188C27.54 13.7188 27.5781 13.7188 27.5908 13.7568C27.6035 13.7949 27.5781 13.833 27.502 13.8838L20.875 18.5303C20.4941 18.7969 20.3926 19.1523 20.5449 19.5713L23.1602 27.2393C23.1855 27.3281 23.1982 27.3535 23.1602 27.3916C23.1348 27.417 23.0967 27.3916 23.0205 27.3535L16.5459 22.4785C16.1904 22.2119 15.7969 22.2119 15.4541 22.4785L8.97949 27.3535C8.90332 27.3916 8.86523 27.417 8.82715 27.3916Z" fill="black"/>
</svg>
