<svg width="35" height="32" viewBox="0 0 35 32" fill="none" xmlns="http://www.w3.org/2000/svg">
<path d="M15.9404 26.0586C16.8037 26.0586 17.5654 25.4111 17.5654 24.1162V16.8164C17.6924 17.2607 18.0225 17.6416 18.5684 17.959L31.6191 25.6396C32.0508 25.8936 32.4697 26.0586 32.9268 26.0586C33.79 26.0586 34.5518 25.4111 34.5518 24.1162V8.60254C34.5518 7.30762 33.79 6.66016 32.9268 6.66016C32.4697 6.66016 32.0635 6.8252 31.6191 7.0791L18.5684 14.7598C18.0225 15.0898 17.6924 15.458 17.5654 15.8896V8.60254C17.5654 7.30762 16.8037 6.66016 15.9404 6.66016C15.4834 6.66016 15.0771 6.8252 14.6328 7.0791L1.59473 14.7598C0.858398 15.1914 0.52832 15.7119 0.52832 16.3594C0.52832 17.0068 0.871094 17.54 1.59473 17.959L14.6328 25.6396C15.0645 25.8936 15.4834 26.0586 15.9404 26.0586ZM15.5596 24.2939C15.458 24.2939 15.3311 24.2559 15.1533 24.1543L2.71191 16.791C2.49609 16.6768 2.38184 16.5625 2.38184 16.3594C2.38184 16.1562 2.4834 16.0547 2.71191 15.9277L15.1533 8.56445C15.3311 8.46289 15.458 8.4248 15.5596 8.4248C15.7754 8.4248 16.0166 8.57715 16.0166 8.95801V23.7734C16.0166 24.1543 15.7754 24.2939 15.5596 24.2939ZM32.5459 24.2939C32.4316 24.2939 32.3047 24.2559 32.127 24.1543L19.6982 16.791C19.4824 16.6768 19.3555 16.5625 19.3555 16.3594C19.3555 16.1562 19.4697 16.0547 19.6982 15.9277L32.127 8.56445C32.3174 8.46289 32.4316 8.4248 32.5459 8.4248C32.749 8.4248 32.9902 8.57715 32.9902 8.95801V23.7734C32.9902 24.1543 32.749 24.2939 32.5459 24.2939Z" fill="black"/>
</svg>
