<svg width="35" height="32" viewBox="0 0 35 32" fill="none" xmlns="http://www.w3.org/2000/svg">
<path d="M15.9404 26.0586C16.8037 26.0586 17.5654 25.4111 17.5654 24.1162V16.8164C17.6924 17.2607 18.0225 17.6416 18.5684 17.959L31.6191 25.6396C32.0508 25.8936 32.4697 26.0586 32.9268 26.0586C33.79 26.0586 34.5518 25.4111 34.5518 24.1162V8.60254C34.5518 7.30762 33.79 6.66016 32.9268 6.66016C32.4697 6.66016 32.0635 6.8252 31.6191 7.0791L18.5684 14.7598C18.0225 15.0898 17.6924 15.458 17.5654 15.8896V8.60254C17.5654 7.30762 16.8037 6.66016 15.9404 6.66016C15.4834 6.66016 15.0771 6.8252 14.6328 7.0791L1.59473 14.7598C0.858398 15.1914 0.52832 15.7119 0.52832 16.3594C0.52832 17.0068 0.871094 17.54 1.59473 17.959L14.6328 25.6396C15.0645 25.8936 15.4834 26.0586 15.9404 26.0586Z" fill="black"/>
</svg>
