<svg width="32" height="32" viewBox="0 0 32 32" fill="none" xmlns="http://www.w3.org/2000/svg">
<path d="M28.5864 13.7522L17.5815 5.75418C17.1697 5.46479 16.6862 5.29403 16.184 5.26051C15.6817 5.227 15.1799 5.33202 14.7332 5.56413C14.2865 5.79623 13.9121 6.14651 13.6508 6.57678C13.3895 7.00705 13.2514 7.50079 13.2515 8.00418V10.8977L6.63525 5.7932C6.22593 5.49022 5.74051 5.30686 5.23309 5.26356C4.72568 5.22026 4.21621 5.31872 3.76147 5.54797C3.30673 5.77721 2.92458 6.12823 2.65762 6.56191C2.39066 6.99558 2.24937 7.49487 2.24951 8.00413V23.9963C2.25057 24.7254 2.54044 25.4243 3.05566 25.9401C3.57088 26.4558 4.26948 26.7465 4.99851 26.7483C5.59274 26.7466 6.17068 26.5539 6.64695 26.1985L13.2514 21.0987V23.9954C13.2515 24.7245 13.5409 25.4237 14.0562 25.9395C14.5715 26.4553 15.2704 26.7455 15.9994 26.7464C16.57 26.7451 17.1262 26.5678 17.5922 26.2386L28.5805 18.2493C28.9414 17.996 29.236 17.6596 29.4397 17.2686C29.6433 16.8775 29.7499 16.4432 29.7504 16.0023C29.751 15.5614 29.6455 15.1268 29.443 14.7352C29.2404 14.3436 28.9466 14.0064 28.5864 13.7522ZM13.2515 19.204L5.74365 25.0012C5.55755 25.1389 5.33688 25.2222 5.10622 25.2419C4.87556 25.2616 4.64397 25.2168 4.43724 25.1126C4.2305 25.0085 4.05675 24.8489 3.93533 24.6518C3.8139 24.4548 3.74958 24.2278 3.74951 23.9963V8.00413C3.74697 7.77201 3.81019 7.54391 3.93186 7.34621C4.05353 7.14852 4.22869 6.98931 4.43706 6.887C4.61369 6.79689 4.80908 6.74971 5.00737 6.7493C5.26817 6.74931 5.52199 6.83357 5.73101 6.98953L13.2515 12.792V19.204ZM27.7085 17.0286L16.7202 25.0188C16.5329 25.1502 16.3131 25.2277 16.0847 25.2429C15.8564 25.258 15.6282 25.2102 15.4252 25.1047C15.2221 24.9991 15.0519 24.8399 14.9331 24.6442C14.8143 24.4486 14.7515 24.2242 14.7515 23.9953V8.00413C14.7493 7.7748 14.8112 7.54941 14.9302 7.35339C15.0493 7.15737 15.2208 6.99852 15.4253 6.89476C15.6049 6.8006 15.8045 6.75103 16.0073 6.75023C16.2589 6.75022 16.5042 6.82836 16.7094 6.97386L27.7192 14.9768C27.8842 15.0927 28.0187 15.2467 28.1112 15.4259C28.2037 15.605 28.2514 15.8039 28.2504 16.0055C28.2493 16.2071 28.1995 16.4054 28.1051 16.5836C28.0107 16.7618 27.8747 16.9145 27.7085 17.0286Z" fill="#0F0F0F"/>
</svg>
