<svg width="35" height="32" viewBox="0 0 35 32" fill="none" xmlns="http://www.w3.org/2000/svg">
<path d="M2.06055 26.0586C2.51758 26.0586 2.93652 25.8936 3.36816 25.6396L16.4189 17.959C16.9648 17.6416 17.2822 17.2607 17.4219 16.8164V24.1162C17.4219 25.4111 18.1709 26.0586 19.0469 26.0586C19.5039 26.0586 19.9102 25.8936 20.3545 25.6396L33.3926 17.959C34.1162 17.54 34.459 17.0068 34.459 16.3594C34.459 15.7119 34.1289 15.1914 33.3926 14.7598L20.3545 7.0791C19.9102 6.8252 19.5039 6.66016 19.0469 6.66016C18.1709 6.66016 17.4219 7.30762 17.4219 8.60254V15.8896C17.2949 15.458 16.9648 15.0898 16.4189 14.7598L3.36816 7.0791C2.92383 6.8252 2.51758 6.66016 2.06055 6.66016C1.19727 6.66016 0.435547 7.30762 0.435547 8.60254V24.1162C0.435547 25.4111 1.19727 26.0586 2.06055 26.0586Z" fill="black"/>
</svg>
