<svg width="32" height="32" viewBox="0 0 32 32" fill="none" xmlns="http://www.w3.org/2000/svg">
<path d="M5.36133 27.8486H26.8926C29.127 27.8486 30.3838 26.5791 30.3838 24.1416V10.7607C30.3838 8.31055 29.1143 7.05371 26.6387 7.05371H14.21C13.2451 7.05371 12.7373 6.86328 12.0771 6.2793L11.3408 5.64453C10.5029 4.9082 9.93164 4.70508 8.66211 4.70508H4.87891C2.77148 4.70508 1.61621 5.86035 1.61621 8.18359V24.1416C1.61621 26.5918 2.88574 27.8486 5.36133 27.8486ZM3.19043 8.28516C3.19043 6.92676 3.87598 6.2666 5.18359 6.2666H8.26855C9.20801 6.2666 9.69043 6.44434 10.376 7.06641L11.1123 7.68848C11.9121 8.38672 12.5469 8.61523 13.8291 8.61523H26.6133C28.0098 8.61523 28.8223 9.37695 28.8223 10.8369V11.8906H3.19043V8.28516ZM5.38672 26.2744C3.96484 26.2744 3.19043 25.5254 3.19043 24.0527V13.376H28.8223V24.0654C28.8223 25.5254 28.0098 26.2744 26.6133 26.2744H5.38672Z" fill="black"/>
</svg>
