<svg width="32" height="32" viewBox="0 0 32 32" fill="none" xmlns="http://www.w3.org/2000/svg">
<g clip-path="url(#clip0_26246_7883)">
<path d="M19.8999 6.50002C17.9669 6.50002 16.3999 8.06702 16.3999 10C16.3999 11.933 17.9669 13.5 19.8999 13.5C21.8329 13.5 23.3999 11.933 23.3999 10C23.3999 8.06702 21.8329 6.50002 19.8999 6.50002ZM18.3999 10C18.3999 9.17159 19.0715 8.50002 19.8999 8.50002C20.7283 8.50002 21.3999 9.17159 21.3999 10C21.3999 10.8284 20.7283 11.5 19.8999 11.5C19.0715 11.5 18.3999 10.8284 18.3999 10Z" fill="#0F0F0F"/>
<path d="M2.34509 0.244327C2.76244 -0.117382 3.394 -0.0722705 3.7557 0.345085L6.16557 3.1257C7.09063 2.41947 8.24634 2.00002 9.50002 2.00002H22.5C25.5376 2.00002 28 4.46245 28 7.50002V24.5C28 25.5561 27.7024 26.5427 27.1863 27.3804L29.7557 30.3451C30.1174 30.7624 30.0723 31.394 29.6549 31.7557C29.256 32.1014 28.6614 32.0755 28.2938 31.708L3.75569 3.39487C3.73972 3.37645 3.72323 3.35875 3.70625 3.34178L2.24433 1.65495C1.88262 1.23759 1.92773 0.606035 2.34509 0.244327ZM7.4795 4.64178L18.6553 17.5369L20.8435 15.8792C22.1396 14.8973 23.982 15.1267 24.9977 16.3963L26 17.6492V7.50002C26 5.56702 24.433 4.00002 22.5 4.00002H9.50002C8.7474 4.00002 8.05027 4.23757 7.4795 4.64178ZM19.968 19.0516L25.7712 25.7475C25.919 25.36 26 24.9395 26 24.5V20.8508L23.436 17.6457C23.0974 17.2225 22.4833 17.1461 22.0512 17.4733L19.968 19.0516Z" fill="#0F0F0F"/>
<path d="M4.04622 6.78386C4.01574 7.01826 4.00002 7.2573 4.00002 7.50002V24.5C4.00002 27.5376 6.46245 30 9.50002 30H22.5C23.0164 30 23.5161 29.9289 23.9899 29.7958L22.4336 28H9.50002C9.11285 28 8.74038 27.9372 8.39223 27.8211L16.7748 21.4707L15.4621 19.956L13.9874 21.0732L11.6213 18.7071C10.4498 17.5355 8.55027 17.5356 7.3787 18.7071L6.00002 20.0858V9.03824L4.04622 6.78386ZM10.2071 20.1213L12.3781 22.2923L6.69695 26.5963C6.25927 26.0119 6.00002 25.2863 6.00002 24.5V22.9142L8.79291 20.1213C9.18343 19.7308 9.8166 19.7308 10.2071 20.1213Z" fill="#0F0F0F"/>
</g>
<defs>
<clipPath id="clip0_26246_7883">
<rect width="32" height="32" fill="white"/>
</clipPath>
</defs>
</svg>
