<svg width="32" height="32" viewBox="0 0 32 32" fill="none" xmlns="http://www.w3.org/2000/svg">
<path d="M23 2.24953H9C7.74066 2.25096 6.53331 2.75186 5.64282 3.64235C4.75233 4.53284 4.25143 5.74019 4.25 6.99953V24.9995C4.25143 26.2589 4.75233 27.4662 5.64282 28.3567C6.53331 29.2472 7.74066 29.7481 9 29.7495H23C24.2593 29.7481 25.4667 29.2472 26.3572 28.3567C27.2477 27.4662 27.7486 26.2589 27.75 24.9995V6.99953C27.7486 5.74019 27.2477 4.53284 26.3572 3.64235C25.4667 2.75186 24.2593 2.25096 23 2.24953ZM26.25 24.9995C26.249 25.8612 25.9063 26.6873 25.297 27.2965C24.6877 27.9058 23.8616 28.2485 23 28.2495H9C8.13835 28.2485 7.31228 27.9058 6.703 27.2965C6.09373 26.6872 5.751 25.8612 5.75 24.9995V6.99953C5.751 6.13788 6.09373 5.31181 6.703 4.70254C7.31228 4.09326 8.13835 3.75053 9 3.74953H23C23.8616 3.75053 24.6877 4.09326 25.297 4.70253C25.9063 5.31181 26.249 6.13788 26.25 6.99953V24.9995Z" fill="#0F0F0F"/>
<path d="M12.5303 16.4693C12.4607 16.3996 12.378 16.3443 12.287 16.3066C12.196 16.2689 12.0985 16.2495 12 16.2495C11.9015 16.2495 11.804 16.2689 11.713 16.3066C11.622 16.3443 11.5394 16.3996 11.4697 16.4693L8.46973 19.4693C8.40007 19.5389 8.34481 19.6215 8.30711 19.7125C8.26941 19.8035 8.25 19.901 8.25 19.9995C8.25 20.098 8.26941 20.1955 8.30711 20.2865C8.34481 20.3775 8.40007 20.4602 8.46973 20.5298L11.4697 23.5298C11.6105 23.67 11.8011 23.7486 11.9997 23.7484C12.1983 23.7482 12.3888 23.6692 12.5292 23.5288C12.6697 23.3883 12.7487 23.1979 12.7489 22.9992C12.7491 22.8006 12.6705 22.61 12.5303 22.4693L10.0606 19.9995L12.5303 17.5298C12.5999 17.4602 12.6552 17.3775 12.6929 17.2865C12.7306 17.1955 12.75 17.098 12.75 16.9995C12.75 16.901 12.7306 16.8035 12.6929 16.7125C12.6552 16.6215 12.5999 16.5389 12.5303 16.4693Z" fill="#0F0F0F"/>
<path d="M20.5303 16.4693C20.3895 16.3291 20.1989 16.2505 20.0003 16.2506C19.8017 16.2508 19.6112 16.3298 19.4708 16.4703C19.3303 16.6108 19.2513 16.8012 19.2511 16.9998C19.2509 17.1985 19.3295 17.3891 19.4697 17.5298L21.9395 19.9995L19.4697 22.4693C19.3999 22.5388 19.3444 22.6215 19.3066 22.7126C19.2687 22.8036 19.2491 22.9012 19.249 22.9998C19.249 23.0984 19.2683 23.1961 19.306 23.2872C19.3437 23.3783 19.399 23.4611 19.4687 23.5308C19.5384 23.6006 19.6212 23.6559 19.7123 23.6935C19.8034 23.7312 19.9011 23.7506 19.9997 23.7505C20.0983 23.7504 20.1959 23.7309 20.287 23.693C20.378 23.6551 20.4607 23.5997 20.5303 23.5298L23.5303 20.5298C23.5999 20.4602 23.6552 20.3775 23.6929 20.2865C23.7306 20.1955 23.75 20.098 23.75 19.9995C23.75 19.901 23.7306 19.8035 23.6929 19.7125C23.6552 19.6215 23.5999 19.5389 23.5303 19.4693L20.5303 16.4693Z" fill="#0F0F0F"/>
<path d="M17.2373 16.2876C17.0485 16.2249 16.8425 16.2397 16.6646 16.3286C16.4866 16.4176 16.3512 16.5735 16.2881 16.7622L14.2881 22.7622C14.2254 22.951 14.2401 23.157 14.3291 23.335C14.4181 23.5129 14.574 23.6483 14.7627 23.7115C14.8393 23.7364 14.9194 23.7492 15 23.7495C15.1574 23.7495 15.3109 23.7 15.4387 23.608C15.5664 23.516 15.662 23.3862 15.7119 23.2368L17.7119 17.2368C17.7746 17.048 17.7599 16.842 17.6709 16.6641C17.5819 16.4861 17.426 16.3507 17.2373 16.2876Z" fill="#0F0F0F"/>
</svg>
