<svg width="32" height="32" viewBox="0 0 32 32" fill="none" xmlns="http://www.w3.org/2000/svg">
<path d="M25.0002 6.99951H16.9226C16.7758 6.99238 16.6322 6.95413 16.5013 6.8873C16.3704 6.82046 16.2552 6.72656 16.1633 6.61182L15.4475 5.769C14.9785 5.21421 14.394 4.76845 13.735 4.46283C13.0759 4.1572 12.3581 3.99907 11.6316 3.99947H7.00024C5.67464 4.00103 4.40378 4.52831 3.46643 5.46565C2.52909 6.403 2.0018 7.67386 2.00024 8.99947V22.9995C2.0018 24.3251 2.52909 25.5959 3.46643 26.5333C4.40378 27.4706 5.67464 27.9979 7.00024 27.9995H25.0002C26.3258 27.9979 27.5967 27.4706 28.5341 26.5333C29.4714 25.5959 29.9987 24.3251 30.0002 22.9995V11.9614C29.9937 10.6409 29.4636 9.3768 28.5263 8.44658C27.5889 7.51636 26.3208 6.99594 25.0002 6.99951ZM7.00024 5.99951H11.6316C12.0678 5.99915 12.4989 6.09415 12.8945 6.27785C13.2902 6.46156 13.6409 6.72953 13.9221 7.063L14.6404 7.9087C14.9192 8.24485 15.2676 8.51647 15.6617 8.7048C16.0557 8.89314 16.4859 8.99369 16.9226 8.99952H25.0002C25.7906 8.99545 26.5502 9.30498 27.1126 9.86024C27.675 10.4155 27.9942 11.1711 28.0002 11.9614V13.0105L4.00024 12.9924V8.99951C4.00112 8.20412 4.31746 7.44157 4.87989 6.87915C5.44231 6.31673 6.20486 6.00038 7.00024 5.99951ZM25.0002 25.9995H7.00024C6.20486 25.9986 5.4423 25.6823 4.87988 25.1199C4.31746 24.5574 4.00111 23.7949 4.00024 22.9995V14.9924L28.0002 15.0105V22.9995C27.9994 23.7949 27.683 24.5574 27.1206 25.1199C26.5582 25.6823 25.7956 25.9986 25.0002 25.9995Z" fill="#0F0F0F"/>
</svg>
