<svg width="32" height="32" viewBox="0 0 32 32" fill="none" xmlns="http://www.w3.org/2000/svg">
<path d="M8.99994 2.49974H22.9999C24.193 2.50105 25.3368 2.97557 26.1805 3.8192C27.0241 4.66283 27.4986 5.80667 27.4999 6.99974V24.9997C27.4986 26.1928 27.0241 27.3367 26.1805 28.1803C25.3368 29.0239 24.193 29.4984 22.9999 29.4997H8.99994C7.80686 29.4984 6.66303 29.0239 5.81939 28.1803C4.97576 27.3367 4.50124 26.1928 4.49994 24.9997V6.99974C4.50124 5.80667 4.97577 4.66283 5.8194 3.8192C6.66303 2.97557 7.80686 2.50104 8.99994 2.49974ZM20.6931 21.7496C20.8152 21.4654 20.9675 21.15 21.0896 20.899C21.7605 19.5113 22.5203 17.9381 21.5144 16.9312C20.407 15.8228 18.906 17.0425 17.1697 18.4576C16.947 18.6392 16.6746 18.8599 16.3962 19.0787C16.6102 18.771 16.8334 18.4624 17.0256 18.1964L17.0437 18.1715C18.6052 16.0132 20.2195 13.7818 18.7537 12.4381C18.5813 12.2832 18.3793 12.1647 18.16 12.0897C17.9407 12.0146 17.7085 11.9847 17.4773 12.0015C15.1062 12.107 10.5887 16.8687 9.26054 18.3257C9.17061 18.4226 9.10075 18.5363 9.05501 18.6602C9.00926 18.7842 8.98854 18.916 8.99403 19.0481C8.99952 19.1801 9.03112 19.3097 9.087 19.4295C9.14288 19.5492 9.22194 19.6567 9.3196 19.7457C9.41726 19.8348 9.5316 19.9035 9.656 19.9481C9.7804 19.9927 9.9124 20.0122 10.0444 20.0055C10.1764 19.9987 10.3057 19.9659 10.4249 19.9089C10.5441 19.8519 10.6509 19.7718 10.739 19.6734C13.2653 16.9019 16.1179 14.4693 17.2683 14.0591C16.7595 15.102 16.1411 16.0877 15.4235 16.9995C14.0007 18.9644 12.8776 20.5171 13.9401 21.5806C15.0866 22.729 16.7126 21.4087 18.4323 20.0083C18.8102 19.7007 19.3347 19.2739 19.78 18.9546C19.6267 19.3286 19.4265 19.7437 19.2888 20.0288C18.6413 21.3677 18.03 22.6323 18.8933 23.4956C19.0514 23.6583 19.241 23.7869 19.4506 23.8737C19.6601 23.9606 19.8852 24.0037 20.112 24.0005C21.0955 23.8966 22.0093 23.4442 22.6882 22.7251C22.8806 22.5425 22.9926 22.2909 22.9996 22.0258C23.0066 21.7606 22.9079 21.5035 22.7253 21.311C22.5427 21.1186 22.2911 21.0066 22.0259 20.9996C21.7607 20.9927 21.5037 21.0914 21.3113 21.274C21.1206 21.4515 20.9136 21.6108 20.6931 21.7496Z" fill="#0F0F0F"/>
</svg>
