<svg width="32" height="32" viewBox="0 0 32 32" fill="none" xmlns="http://www.w3.org/2000/svg">
<path fill-rule="evenodd" clip-rule="evenodd" d="M8.99951 2.50023H22.9995C24.1926 2.50153 25.3364 2.97606 26.1801 3.81969C27.0237 4.66332 27.4982 5.80715 27.4995 7.00023V25.0002C27.4982 26.1933 27.0237 27.3371 26.1801 28.1808C25.3364 29.0244 24.1926 29.4989 22.9995 29.5002H8.99951C7.80644 29.4989 6.6626 29.0244 5.81897 28.1808C4.97534 27.3371 4.50081 26.1933 4.49951 25.0002V7.00023C4.50082 5.80716 4.97534 4.66332 5.81897 3.81969C6.6626 2.97606 7.80644 2.50153 8.99951 2.50023ZM20.3875 10.0378C20.6905 10.0976 20.9755 10.2269 21.22 10.4156C21.4636 10.6014 21.6608 10.8411 21.7961 11.1159C21.9315 11.3907 22.0014 11.6932 22.0003 11.9995V19.4244C22.0003 19.4291 21.9989 19.4335 21.9976 19.4378C21.9963 19.442 21.9951 19.4461 21.9949 19.4506C21.9951 19.4588 21.9963 19.4666 21.9974 19.4745C21.9987 19.4829 21.9999 19.4913 21.9999 19.5C21.9999 20.0159 21.8403 20.5192 21.5429 20.9409C21.2455 21.3625 20.825 21.6818 20.339 21.8549C19.853 22.0281 19.3253 22.0467 18.8283 21.9081C18.3313 21.7695 17.8894 21.4805 17.5631 21.0809C17.2369 20.6812 17.0422 20.1903 17.006 19.6757C16.9697 19.161 17.0935 18.6477 17.3605 18.2062C17.6274 17.7647 18.0245 17.4166 18.4971 17.2097C18.9697 17.0028 19.4948 16.9471 20.0003 17.0504V11.9995L14.0139 13.6792L14.0003 21.5005L13.9995 21.5041C13.9987 22.0199 13.8383 22.5228 13.5404 22.9439C13.2424 23.3649 12.8216 23.6835 12.3355 23.856C11.8494 24.0285 11.3219 24.0464 10.8252 23.9073C10.3285 23.7682 9.88699 23.4789 9.56118 23.0791C9.23538 22.6792 9.04122 22.1884 9.00533 21.6738C8.96944 21.1593 9.09356 20.6462 9.3607 20.205C9.62783 19.7638 10.0249 19.416 10.4975 19.2092C10.97 19.0025 11.4949 18.947 12.0003 19.0504V13.6831C12.0002 13.2415 12.1464 12.8123 12.416 12.4624C12.6856 12.1126 13.0634 11.862 13.4905 11.7495L19.4739 10.0708C19.7718 9.98929 20.0845 9.97798 20.3875 10.0378Z" fill="#0F0F0F"/>
</svg>
