<svg width="32" height="32" viewBox="0 0 32 32" fill="none" xmlns="http://www.w3.org/2000/svg">
<path d="M23 30H9C7.6744 29.9984 6.40353 29.4712 5.46619 28.5338C4.52884 27.5965 4.00156 26.3256 4 25V7C4.00156 5.6744 4.52884 4.40353 5.46618 3.46618C6.40353 2.52884 7.6744 2.00156 9 2H23C24.3256 2.00156 25.5965 2.52884 26.5338 3.46619C27.4712 4.40353 27.9984 5.6744 28 7V25C27.9984 26.3256 27.4712 27.5965 26.5338 28.5338C25.5965 29.4712 24.3256 29.9984 23 30ZM9 4C8.20462 4.00087 7.44206 4.31722 6.87964 4.87964C6.31722 5.44206 6.00087 6.20462 6 7V25C6.00087 25.7954 6.31722 26.5579 6.87964 27.1204C7.44206 27.6828 8.20462 27.9991 9 28H23C23.7954 27.9991 24.5579 27.6828 25.1204 27.1204C25.6828 26.5579 25.9991 25.7954 26 25V7C25.9991 6.20462 25.6828 5.44206 25.1204 4.87964C24.5579 4.31722 23.7954 4.00087 23 4H9Z" fill="#0F0F0F"/>
<path d="M17.8897 15.3428H19.6055V23.9824H17.5303L14.1221 17.8506V23.9824H12.3935V15.3428H14.626L17.8897 21.2461V15.3428Z" fill="#0F0F0F"/>
</svg>
