<svg width="32" height="32" viewBox="0 0 32 32" fill="none" xmlns="http://www.w3.org/2000/svg">
<path d="M25.0002 7.49951H16.9226C16.7034 7.49208 16.4882 7.43798 16.2915 7.34081C16.0948 7.24363 15.9211 7.10563 15.782 6.936L15.0662 6.09225C14.644 5.59291 14.118 5.19169 13.5248 4.9166C12.9316 4.6415 12.2855 4.49915 11.6316 4.49947H7.00024C5.80717 4.50078 4.66334 4.9753 3.81971 5.81893C2.97607 6.66256 2.50155 7.8064 2.50024 8.99947V22.9995C2.50155 24.1925 2.97607 25.3364 3.8197 26.18C4.66333 27.0236 5.80717 27.4982 7.00024 27.4995H25.0002C26.1933 27.4982 27.3372 27.0236 28.1808 26.18C29.0244 25.3364 29.4989 24.1925 29.5002 22.9995V11.9614C29.4938 10.7734 29.0164 9.63651 28.1728 8.80004C27.3292 7.96357 26.1882 7.49586 25.0002 7.49951ZM7.00024 5.49951H11.6316C12.1403 5.49916 12.643 5.60988 13.1045 5.82393C13.5659 6.03798 13.9751 6.35019 14.3035 6.73877L15.0208 7.5835C15.2526 7.86471 15.5427 8.09224 15.8711 8.25039C16.1994 8.40854 16.5582 8.49353 16.9226 8.4995H25.0002C25.9231 8.49551 26.8099 8.85775 27.4661 9.50676C28.1222 10.1558 28.4941 11.0385 28.5002 11.9614V13.5109L3.50024 13.4921V8.99951C3.50137 8.0716 3.87048 7.18201 4.52661 6.52588C5.18275 5.86974 6.07233 5.50063 7.00024 5.49951ZM25.0002 26.4995H7.00024C6.07233 26.4984 5.18274 26.1293 4.52661 25.4731C3.87048 24.817 3.50137 23.9274 3.50024 22.9995V14.4921L28.5002 14.5109V22.9995C28.4991 23.9274 28.13 24.817 27.4739 25.4731C26.8177 26.1293 25.9282 26.4984 25.0002 26.4995Z" fill="#0F0F0F"/>
</svg>
