<svg width="32" height="32" viewBox="0 0 32 32" fill="none" xmlns="http://www.w3.org/2000/svg">
<path d="M15.3755 21.9937H16.6245C16.9891 21.9933 17.3388 21.8484 17.5967 21.5906C17.8547 21.3329 17.9999 20.9833 18.0005 20.6187V16.8306C18.0004 16.6104 17.9129 16.3992 17.7573 16.2434C17.6017 16.0876 17.3906 15.9999 17.1704 15.9995H14.8305C14.6103 15.9999 14.3993 16.0876 14.2437 16.2434C14.088 16.3992 14.0006 16.6104 14.0005 16.8306V20.6187C14.001 20.9832 14.146 21.3326 14.4038 21.5904C14.6615 21.8481 15.011 21.9931 15.3755 21.9937Z" fill="#0F0F0F"/>
<path d="M9 2.49974H23C24.1931 2.50105 25.3369 2.97557 26.1805 3.8192C27.0242 4.66283 27.4987 5.80667 27.5 6.99974V24.9997C27.4987 26.1928 27.0242 27.3367 26.1805 28.1803C25.3369 29.0239 24.1931 29.4984 23 29.4997H9C7.80692 29.4984 6.66309 29.0239 5.81946 28.1803C4.97582 27.3367 4.5013 26.1928 4.5 24.9997V6.99974C4.5013 5.80667 4.97583 4.66283 5.81946 3.8192C6.66309 2.97557 7.80693 2.50104 9 2.49974ZM22.4826 20.4944C22.0552 20.1753 21.5367 20.0018 21.0034 19.9995H20.0004V18.9995H21.101C21.3609 19.0008 21.6185 18.9507 21.859 18.8522C22.0995 18.7537 22.3181 18.6086 22.5024 18.4253C22.5434 18.3843 23.8178 16.5845 23.8178 16.5845C23.8935 16.4771 23.9473 16.356 23.9761 16.2278C24.0049 16.0997 24.0082 15.9671 23.9858 15.8377C23.9634 15.7083 23.9158 15.5846 23.8456 15.4736C23.7753 15.3626 23.684 15.2666 23.5766 15.1909C23.4693 15.1153 23.3481 15.0615 23.22 15.0326C23.0918 15.0038 22.9593 15.0005 22.8299 15.0229C22.5685 15.0681 22.3359 15.2154 22.183 15.4321L21.0786 16.9995H20.0004V16.8306C19.999 16.1138 19.7241 15.4247 19.2318 14.9037L19.9106 13.4136C19.965 13.2941 19.9953 13.165 19.9998 13.0338C20.0043 12.9025 19.9829 12.7717 19.9368 12.6487C19.8907 12.5258 19.8209 12.4131 19.7313 12.3171C19.6417 12.2211 19.534 12.1437 19.4145 12.0894C19.295 12.035 19.1659 12.0047 19.0347 12.0002C18.9034 11.9957 18.7726 12.0171 18.6496 12.0632C18.5267 12.1092 18.414 12.1791 18.318 12.2687C18.222 12.3583 18.1447 12.4659 18.0903 12.5855L17.434 14.0262C17.4028 14.0232 17.3719 14.019 17.341 14.0148C17.2848 14.0072 17.2286 13.9995 17.1704 13.9995H14.8305C14.7713 13.9995 14.7142 14.0073 14.6571 14.0151C14.6263 14.0193 14.5954 14.0235 14.5642 14.0264L13.9106 12.5864C13.801 12.345 13.6001 12.1571 13.3519 12.0639C13.1038 11.9706 12.8287 11.9798 12.5874 12.0894C12.346 12.1989 12.158 12.3999 12.0648 12.648C11.9715 12.8962 11.9807 13.1712 12.0903 13.4126L12.7678 14.9052C12.2763 15.426 12.0019 16.1145 12.0004 16.8306V16.9985L10.9282 17.0005L9.81781 15.4233C9.66501 15.2066 9.43234 15.0594 9.17099 15.0141C8.90965 14.9689 8.64104 15.0293 8.42426 15.1821C8.20748 15.3349 8.06027 15.5676 8.01504 15.829C7.9698 16.0903 8.03024 16.3589 8.18304 16.5757C8.18304 16.5757 9.45551 18.3745 9.49652 18.4146C9.68038 18.5995 9.89906 18.7461 10.1399 18.846C10.3808 18.9459 10.6391 18.9971 10.8998 18.9966H12.0004V19.9995H10.9965C10.4636 20.002 9.9456 20.1753 9.51849 20.494C9.09137 20.8127 8.77768 21.2599 8.62348 21.77L8.04243 23.7134C8.00409 23.8394 7.99103 23.9718 8.00401 24.1029C8.01698 24.2339 8.05573 24.3612 8.11803 24.4772C8.18033 24.5933 8.26495 24.6959 8.36703 24.7792C8.4691 24.8624 8.58663 24.9247 8.71284 24.9624C8.83906 25.0001 8.97148 25.0125 9.1025 24.9988C9.23351 24.9852 9.36055 24.9458 9.47629 24.8829C9.59204 24.82 9.69422 24.7349 9.77696 24.6324C9.8597 24.5299 9.92137 24.4121 9.95842 24.2856L10.5395 22.3413C10.5684 22.2426 10.6286 22.1559 10.711 22.0943C10.7934 22.0327 10.8936 21.9994 10.9965 21.9995H12.3031C12.5688 22.5924 13.0001 23.096 13.5451 23.4497C14.0901 23.8035 14.7256 23.9924 15.3754 23.9937H16.6244C17.2742 23.9923 17.9099 23.8035 18.455 23.4497C19.0001 23.096 19.4315 22.5924 19.6975 21.9995H21.0033C21.1063 22.0001 21.2063 22.0339 21.2887 22.0958C21.371 22.1577 21.4311 22.2445 21.4603 22.3433L22.0423 24.2866C22.104 24.4927 22.2306 24.6733 22.4032 24.8018C22.5758 24.9302 22.7852 24.9995 23.0003 24.9995C23.0975 24.9994 23.1942 24.9852 23.2874 24.9575C23.4132 24.9198 23.5304 24.8577 23.6322 24.7747C23.734 24.6918 23.8184 24.5896 23.8807 24.4739C23.943 24.3583 23.982 24.2315 23.9953 24.1009C24.0086 23.9702 23.996 23.8382 23.9583 23.7124L23.3774 21.772C23.2236 21.2613 22.91 20.8134 22.4826 20.4944Z" fill="#0F0F0F"/>
</svg>
