<svg width="32" height="32" viewBox="0 0 32 32" fill="none" xmlns="http://www.w3.org/2000/svg">
<path d="M12.9503 7.68705L10.3239 5.06066C10.031 4.76777 10.031 4.29289 10.3239 4C10.6168 3.70711 11.0916 3.70711 11.3845 4L24.6882 17.3037C25.0787 17.6942 25.0787 18.3274 24.6882 18.7179L15.9555 27.4506C14.8815 28.5246 13.1403 28.5246 12.0664 27.4506L4.57108 19.9553C3.49714 18.8814 3.49714 17.1402 4.57108 16.0662L12.9503 7.68705ZM14.0109 8.74771L5.63174 17.1269C5.59255 17.1661 5.55651 17.2072 5.52362 17.25L22.5132 17.25L14.0109 8.74771ZM5.63174 18.8947L13.127 26.39C13.6152 26.8781 14.4067 26.8781 14.8948 26.39L22.5348 18.75L5.50742 18.75C5.54458 18.8005 5.58602 18.8489 5.63174 18.8947ZM26.0305 20.4697C25.7377 20.1768 25.2628 20.1768 24.9699 20.4697L24.917 20.5224C24.6389 20.7993 24.0224 21.4132 23.4614 22.1656C22.885 22.9387 22.2502 24.0078 22.2502 25.0968C22.2502 27.203 23.7814 28.75 25.5002 28.75C27.196 28.75 28.7502 27.3621 28.7502 25.0968C28.7502 23.9625 28.1199 22.8958 27.5354 22.1245C27.0107 21.4321 26.4327 20.8649 26.1397 20.5774C26.0969 20.5354 26.0601 20.4993 26.0305 20.4697ZM23.7502 25.0968C23.7502 24.5273 24.1153 23.798 24.6639 23.0623C24.9472 22.6823 25.2485 22.3406 25.5058 22.0664C25.762 22.3319 26.0589 22.6597 26.3399 23.0305C26.8804 23.7437 27.2502 24.4754 27.2502 25.0968C27.2502 26.5982 26.3045 27.25 25.5002 27.25C24.719 27.25 23.7502 26.4881 23.7502 25.0968Z" fill="#0F0F0F"/>
</svg>
