<svg width="32" height="32" viewBox="0 0 32 32" fill="none" xmlns="http://www.w3.org/2000/svg">
<path d="M13.3038 7.68705L10.3239 4.70711C10.1286 4.51185 10.1286 4.19526 10.3239 4C10.5191 3.80474 10.8357 3.80474 11.031 4L24.3347 17.3037C24.7252 17.6942 24.7252 18.3274 24.3347 18.7179L15.7787 27.2738C14.8024 28.2502 13.2195 28.2502 12.2432 27.2738L4.74786 19.7785C3.77155 18.8022 3.77155 17.2193 4.74786 16.243L13.3038 7.68705ZM14.0109 8.39415L5.45496 16.9501C5.29409 17.111 5.1774 17.2993 5.10489 17.5L23.1168 17.5L14.0109 8.39415ZM5.45497 19.0714L12.9503 26.5667C13.5361 27.1525 14.4858 27.1525 15.0716 26.5667L23.1383 18.5L5.09729 18.5C5.16912 18.7088 5.28835 18.9048 5.45497 19.0714ZM25.8538 20.6465C25.6585 20.4512 25.3419 20.4512 25.1466 20.6464L25.094 20.699C24.8162 20.9756 24.2114 21.578 23.6618 22.3151C23.09 23.0819 22.5002 24.0944 22.5002 25.0968C22.5002 27.0838 23.9376 28.5 25.5002 28.5C27.0474 28.5 28.5002 27.2348 28.5002 25.0968C28.5002 24.048 27.9133 23.0371 27.3362 22.2755C26.8236 21.5992 26.2599 21.0458 25.9657 20.7569C25.9221 20.7141 25.8845 20.6772 25.8538 20.6465ZM23.5002 25.0968C23.5002 24.4407 23.9103 23.6548 24.4635 22.9128C24.8232 22.4305 25.2106 22.0089 25.5034 21.7068C25.797 22.0018 26.1809 22.4068 26.5392 22.8795C27.087 23.6024 27.5002 24.3899 27.5002 25.0968C27.5002 26.7255 26.453 27.5 25.5002 27.5C24.5627 27.5 23.5002 26.6072 23.5002 25.0968Z" fill="#0F0F0F"/>
</svg>
