<svg width="32" height="32" viewBox="0 0 32 32" fill="none" xmlns="http://www.w3.org/2000/svg">
<path d="M9.61677 4.70711L12.5967 7.68705L4.3943 15.8895C3.22273 17.061 3.22273 18.9605 4.39431 20.1321L11.8896 27.6274C13.0612 28.799 14.9607 28.799 16.1322 27.6274L25.7489 18.0108L11.031 3.29289L9.61677 4.70711ZM21.9097 17L6.11219 17L14.0109 9.10126L21.9097 17Z" fill="#0F0F0F"/>
<path d="M25.4481 21.052L25.5002 21C25.5332 21.033 25.5727 21.0718 25.6177 21.1161C26.2553 21.7426 28.0002 23.4569 28.0002 25.0968C28.0002 26.9801 26.7502 28 25.5002 28C24.2502 28 23.0002 26.8455 23.0002 25.0968C23.0002 23.491 24.875 21.623 25.4481 21.052Z" fill="#0F0F0F"/>
</svg>
