<svg width="32" height="32" viewBox="0 0 32 32" fill="none" xmlns="http://www.w3.org/2000/svg">
<path d="M26.4257 15.9835L22.9155 10.9962L26.4218 6.01671C26.6089 5.75514 26.7203 5.44706 26.7438 5.12631C26.7672 4.80557 26.7018 4.48456 26.5547 4.19856C26.4076 3.91257 26.1846 3.67264 25.91 3.50515C25.6355 3.33765 25.3201 3.24907 24.9985 3.24913L5.99847 3.25013C5.79958 3.25018 5.60884 3.32921 5.4682 3.46986C5.32756 3.6105 5.24852 3.80123 5.24847 4.00013V18.0001L5.25042 18.0098V28.0001C5.25042 28.199 5.32944 28.3898 5.47009 28.5305C5.61075 28.6711 5.80151 28.7501 6.00042 28.7501C6.19934 28.7501 6.3901 28.6711 6.53075 28.5305C6.67141 28.3898 6.75042 28.199 6.75042 28.0001V18.7501L24.9995 18.7491C25.3208 18.7491 25.636 18.6606 25.9104 18.4933C26.1848 18.326 26.4078 18.0865 26.5551 17.8008C26.7024 17.5152 26.7683 17.1946 26.7455 16.874C26.7226 16.5535 26.612 16.2454 26.4257 15.9835ZM25.2216 17.1134C25.2016 17.155 25.17 17.1899 25.1305 17.214C25.0911 17.2381 25.0456 17.2503 24.9994 17.2491L6.75044 17.2501V4.75013L24.9985 4.74913C25.0447 4.74797 25.0902 4.76016 25.1296 4.78424C25.169 4.80832 25.2006 4.84327 25.2207 4.88488C25.2429 4.92623 25.2527 4.97317 25.2488 5.01998C25.2449 5.0668 25.2275 5.11146 25.1987 5.14855L21.3852 10.5646C21.2963 10.6909 21.2486 10.8417 21.2486 10.9962C21.2486 11.1507 21.2963 11.3014 21.3852 11.4278L25.2001 16.8487L25.2031 16.8526C25.2308 16.8897 25.2474 16.9341 25.2507 16.9803C25.2539 17.0265 25.2439 17.0727 25.2216 17.1134Z" fill="#0F0F0F"/>
</svg>
