<svg width="32" height="32" viewBox="0 0 32 32" fill="none" xmlns="http://www.w3.org/2000/svg">
<path d="M16.0002 2.00011C13.2313 2.00011 10.5246 2.82119 8.22227 4.35953C5.91998 5.89787 4.12556 8.08437 3.06594 10.6425C2.00631 13.2007 1.72906 16.0156 2.26926 18.7314C2.80945 21.4471 4.14282 23.9417 6.10076 25.8996C8.05869 27.8575 10.5533 29.1909 13.269 29.7311C15.9847 30.2713 18.7997 29.994 21.3578 28.9344C23.916 27.8748 26.1025 26.0804 27.6408 23.7781C29.1792 21.4758 30.0002 18.769 30.0002 16.0001C29.9961 12.2884 28.5198 8.72982 25.8951 6.10521C23.2705 3.4806 19.712 2.00427 16.0002 2.00011ZM16.0002 28.0001C13.6269 28.0001 11.3068 27.2963 9.33341 25.9777C7.36002 24.6592 5.82195 22.785 4.9137 20.5923C4.00544 18.3996 3.7678 15.9868 4.23083 13.659C4.69385 11.3313 5.83674 9.19306 7.51497 7.51483C9.1932 5.8366 11.3314 4.69371 13.6592 4.23068C15.9869 3.76766 18.3997 4.0053 20.5925 4.91355C22.7852 5.8218 24.6593 7.35987 25.9779 9.33326C27.2965 11.3067 28.0002 13.6267 28.0002 16.0001C27.9967 19.1816 26.7313 22.2318 24.4816 24.4815C22.2319 26.7311 19.1818 27.9966 16.0002 28.0001Z" fill="#0F0F0F"/>
<path d="M20.882 10.5284C20.7966 10.3688 20.6694 10.2354 20.5141 10.1424C20.3589 10.0494 20.1812 10.0002 20.0002 10.0001H12.0002C11.8689 10.0001 11.7388 10.0259 11.6175 10.0762C11.4961 10.1264 11.3859 10.2001 11.293 10.2929C11.2002 10.3858 11.1265 10.496 11.0763 10.6174C11.026 10.7387 11.0002 10.8688 11.0002 11.0001V21.0001C11.0002 21.2653 11.1056 21.5197 11.2931 21.7072C11.4806 21.8947 11.735 22.0001 12.0002 22.0001C12.2654 22.0001 12.5198 21.8947 12.7073 21.7072C12.8949 21.5197 13.0002 21.2653 13.0002 21.0001V18.0001H20.0002C20.1812 18.0001 20.3588 17.951 20.5141 17.858C20.6694 17.765 20.7965 17.6316 20.8819 17.472C20.9673 17.3124 21.0078 17.1326 20.999 16.9518C20.9903 16.771 20.9326 16.596 20.8322 16.4454L19.2018 14.0001L20.8322 11.5548C20.9326 11.4042 20.9903 11.2293 20.999 11.0485C21.0078 10.8678 20.9674 10.688 20.882 10.5284ZM17.1682 14.5548L18.1316 16.0001H13.0003V12.0001H18.1316L17.1682 13.4454C17.0586 13.6096 17.0001 13.8027 17.0001 14.0001C17.0001 14.1975 17.0586 14.3906 17.1682 14.5548Z" fill="#0F0F0F"/>
</svg>
