<svg width="32" height="32" viewBox="0 0 32 32" fill="none" xmlns="http://www.w3.org/2000/svg">
<path fill-rule="evenodd" clip-rule="evenodd" d="M9.5 8.25C9.66477 8.25 9.82768 8.25797 9.98837 8.27355C10.9622 5.91209 13.287 4.25 16 4.25C18.713 4.25 21.0377 5.91209 22.0116 8.27355C22.1723 8.25797 22.3352 8.25 22.5 8.25C25.2614 8.25 27.5 10.4886 27.5 13.25C27.5 15.5798 25.9065 17.5374 23.75 18.0925V25C23.75 26.5188 22.5188 27.75 21 27.75H11C9.48122 27.75 8.25 26.5188 8.25 25V18.0925C6.09347 17.5374 4.5 15.5798 4.5 13.25C4.5 10.4886 6.73858 8.25 9.5 8.25ZM9.75 18.2439V25C9.75 25.6904 10.3096 26.25 11 26.25H21C21.6904 26.25 22.25 25.6904 22.25 25V18.2439C20.8856 18.1767 19.6651 17.5626 18.8029 16.6163C17.9542 17.0225 17.0037 17.25 16 17.25C14.9963 17.25 14.0457 17.0225 13.1971 16.6163C12.3349 17.5626 11.1144 18.1767 9.75 18.2439ZM19.2864 14.6388C19.4766 15.0785 19.7545 15.4715 20.098 15.7957C20.7248 16.3873 21.5701 16.75 22.5 16.75C24.433 16.75 26 15.183 26 13.25C26 11.317 24.433 9.75 22.5 9.75C22.4745 9.75 22.449 9.75028 22.4237 9.75082C21.9645 9.76065 21.527 9.85891 21.1277 10.0293C21.0707 10.0536 21.0144 10.0794 20.959 10.1066C20.6433 7.64909 18.5434 5.75 16 5.75C13.9888 5.75 12.255 6.93739 11.4614 8.64935C11.2513 9.10246 11.107 9.59232 11.041 10.1066C10.7501 9.96376 10.4365 9.86007 10.107 9.80246C9.93415 9.77223 9.75691 9.75468 9.57629 9.75082C9.55093 9.75028 9.5255 9.75 9.5 9.75C7.567 9.75 6 11.317 6 13.25C6 15.183 7.567 16.75 9.5 16.75C10.4299 16.75 11.2752 16.3873 11.902 15.7957C12.2683 15.4499 12.5601 15.0258 12.7505 14.5502C13.134 14.8785 13.5678 15.1497 14.0386 15.3507C14.6409 15.6077 15.3038 15.75 16 15.75C16.6978 15.75 17.3622 15.6071 17.9655 15.3488C18.0011 15.3336 18.0365 15.318 18.0717 15.3019C18.5001 15.1066 18.8961 14.8527 19.2495 14.5502C19.2614 14.58 19.2737 14.6095 19.2864 14.6388Z" fill="#0F0F0F"/>
</svg>
