<svg width="32" height="32" viewBox="0 0 32 32" fill="none" xmlns="http://www.w3.org/2000/svg">
<path fill-rule="evenodd" clip-rule="evenodd" d="M22.3276 7.75265C22.3849 7.75089 22.4423 7.75 22.5 7.75C25.5376 7.75 28 10.2124 28 13.25C28 15.7676 26.3085 17.89 24 18.543V25C24 26.6569 22.6569 28 21 28H11C9.34315 28 8 26.6569 8 25V18.543C5.69149 17.89 4 15.7676 4 13.25C4 10.2124 6.46243 7.75 9.5 7.75C9.55767 7.75 9.61512 7.75089 9.67236 7.75265C10.7953 5.38627 13.2065 3.75 16 3.75C18.7934 3.75 21.2047 5.38627 22.3276 7.75265ZM22.5 9.75C22.6466 9.75 22.791 9.75901 22.9328 9.7765C24.6616 9.98972 26 11.4636 26 13.25C26 15.183 24.433 16.75 22.5 16.75C21.7534 16.75 21.0614 16.5162 20.4931 16.1179C20.4306 16.074 20.3695 16.0281 20.31 15.9803C19.8436 15.6058 19.4753 15.1142 19.2495 14.5502C18.7413 14.9852 18.1448 15.32 17.4906 15.524C17.0198 15.6709 16.5192 15.75 16 15.75C15.4808 15.75 14.9801 15.6709 14.5094 15.524C13.8552 15.32 13.2587 14.9852 12.7505 14.5502C12.557 15.0337 12.2587 15.4639 11.8837 15.8128C11.8134 15.8782 11.7404 15.9408 11.6649 16.0003C11.6134 16.0409 11.5607 16.0801 11.5068 16.1179C10.9386 16.5162 10.2466 16.75 9.5 16.75C7.567 16.75 6 15.183 6 13.25C6 11.4636 7.33838 9.98973 9.06714 9.7765C9.20897 9.75901 9.35344 9.75 9.5 9.75C10.053 9.75 10.576 9.87825 11.041 10.1066C11.1293 9.41948 11.357 8.77598 11.695 8.20546C12.5657 6.73555 14.1677 5.75 16 5.75C17.8323 5.75 19.4343 6.73555 20.305 8.20546C20.3408 8.26587 20.3754 8.32711 20.4086 8.38913C20.6896 8.91276 20.8801 9.49224 20.959 10.1066C21.424 9.87825 21.947 9.75 22.5 9.75ZM10 18.7276V25C10 25.5523 10.4477 26 11 26H21C21.5523 26 22 25.5523 22 25V18.7276C20.7189 18.6121 19.5644 18.0574 18.6884 17.2151C17.8607 17.5597 16.9526 17.75 16 17.75C15.0474 17.75 14.1393 17.5597 13.3115 17.2151C12.4356 18.0574 11.2811 18.6121 10 18.7276Z" fill="#0F0F0F"/>
</svg>
