<svg width="32" height="32" viewBox="0 0 32 32" fill="none" xmlns="http://www.w3.org/2000/svg">
<path d="M22.5 22C22.5 22.1326 22.5527 22.2598 22.6464 22.3536C22.7402 22.4473 22.8674 22.5 23 22.5H28C28.1326 22.5 28.2598 22.4473 28.3536 22.3536C28.4473 22.2598 28.5 22.1326 28.5 22C28.5 21.8674 28.4473 21.7402 28.3536 21.6464C28.2598 21.5527 28.1326 21.5 28 21.5H23C22.8674 21.5 22.7402 21.5527 22.6464 21.6464C22.5527 21.7402 22.5 21.8674 22.5 22Z" fill="#0F0F0F"/>
<path d="M22.5 10C22.5 10.1326 22.5527 10.2598 22.6464 10.3536C22.7402 10.4473 22.8674 10.5 23 10.5H28C28.1326 10.5 28.2598 10.4473 28.3536 10.3536C28.4473 10.2598 28.5 10.1326 28.5 10C28.5 9.86739 28.4473 9.74021 28.3536 9.64645C28.2598 9.55268 28.1326 9.5 28 9.5H23C22.8674 9.5 22.7402 9.55268 22.6464 9.64645C22.5527 9.74021 22.5 9.86739 22.5 10Z" fill="#0F0F0F"/>
<path d="M13.5 22C13.5 22.1326 13.5527 22.2598 13.6464 22.3536C13.7402 22.4473 13.8674 22.5 14 22.5H18C18.1326 22.5 18.2598 22.4473 18.3536 22.3536C18.4473 22.2598 18.5 22.1326 18.5 22C18.5 21.8674 18.4473 21.7402 18.3536 21.6464C18.2598 21.5527 18.1326 21.5 18 21.5H14C13.8674 21.5 13.7402 21.5527 13.6464 21.6464C13.5527 21.7402 13.5 21.8674 13.5 22Z" fill="#0F0F0F"/>
<path d="M13.5 10C13.5 10.1326 13.5527 10.2598 13.6464 10.3536C13.7402 10.4473 13.8674 10.5 14 10.5H18C18.1326 10.5 18.2598 10.4473 18.3536 10.3536C18.4473 10.2598 18.5 10.1326 18.5 10C18.5 9.86739 18.4473 9.74021 18.3536 9.64645C18.2598 9.55268 18.1326 9.5 18 9.5H14C13.8674 9.5 13.7402 9.55268 13.6464 9.64645C13.5527 9.74021 13.5 9.86739 13.5 10Z" fill="#0F0F0F"/>
<path d="M3.5 22C3.5 22.1326 3.55268 22.2598 3.64645 22.3536C3.74021 22.4473 3.86739 22.5 4 22.5H9C9.13261 22.5 9.25979 22.4473 9.35355 22.3536C9.44732 22.2598 9.5 22.1326 9.5 22C9.5 21.8674 9.44732 21.7402 9.35355 21.6464C9.25979 21.5527 9.13261 21.5 9 21.5H4C3.86739 21.5 3.74021 21.5527 3.64645 21.6464C3.55268 21.7402 3.5 21.8674 3.5 22Z" fill="#0F0F0F"/>
<path d="M3.5 10C3.5 10.1326 3.55268 10.2598 3.64645 10.3536C3.74021 10.4473 3.86739 10.5 4 10.5H9C9.13261 10.5 9.25979 10.4473 9.35355 10.3536C9.44732 10.2598 9.5 10.1326 9.5 10C9.5 9.86739 9.44732 9.74021 9.35355 9.64645C9.25979 9.55268 9.13261 9.5 9 9.5H4C3.86739 9.5 3.74021 9.55268 3.64645 9.64645C3.55268 9.74021 3.5 9.86739 3.5 10Z" fill="#0F0F0F"/>
</svg>
