<svg width="32" height="32" viewBox="0 0 32 32" fill="none" xmlns="http://www.w3.org/2000/svg">
<path d="M15.5176 25.7031C15.9873 25.7031 16.2285 25.5 16.4189 24.9668L18.3232 19.8633H26.2197L28.124 24.9668C28.3145 25.5 28.5557 25.7031 29.0381 25.7031C29.5586 25.7031 29.9014 25.3984 29.9014 24.9033C29.9014 24.7383 29.8633 24.5859 29.7871 24.3701L23.4775 7.84082C23.2617 7.26953 22.8809 6.97754 22.2715 6.97754C21.6748 6.97754 21.2939 7.25684 21.0781 7.84082L14.7686 24.3828C14.6797 24.5859 14.6543 24.751 14.6543 24.916C14.6543 25.3984 14.9844 25.7031 15.5176 25.7031ZM18.8057 18.3652L22.2334 9.17383H22.2969L25.7246 18.3652H18.8057ZM2.92383 25.7031C3.33008 25.7031 3.58398 25.5 3.76172 24.9922L5.00586 21.5645H9.94434L11.2012 24.9922C11.3789 25.5127 11.6328 25.7031 12.0518 25.7031C12.5342 25.7031 12.8643 25.3984 12.8643 24.9287C12.8643 24.7637 12.8389 24.5859 12.7373 24.3574L8.64941 13.6172C8.44629 13.0713 8.06543 12.7285 7.46875 12.7285C6.88477 12.7285 6.5166 13.0713 6.31348 13.6172L2.21289 24.3574C2.12402 24.5859 2.09863 24.7637 2.09863 24.9287C2.09863 25.3984 2.42871 25.7031 2.92383 25.7031ZM5.47559 20.2188L7.41797 14.7598H7.53223L9.5 20.2188H5.47559Z" fill="black"/>
</svg>
