<svg width="32" height="32" viewBox="0 0 32 32" fill="none" xmlns="http://www.w3.org/2000/svg">
<path d="M28.8946 12.553C28.8359 12.4355 28.7546 12.3308 28.6554 12.2447C28.5562 12.1586 28.441 12.0929 28.3164 12.0514C28.1918 12.0099 28.0602 11.9933 27.9292 12.0026C27.7982 12.0119 27.6703 12.047 27.5528 12.1057L15.9999 17.8821L4.44745 12.1057C4.2102 11.9871 3.93554 11.9675 3.6839 12.0514C3.43225 12.1353 3.22423 12.3157 3.1056 12.553C2.98697 12.7902 2.96744 13.0649 3.05132 13.3165C3.13519 13.5682 3.3156 13.7762 3.55285 13.8948L15.5528 19.8948C15.6918 19.9642 15.8449 20.0003 16.0001 20.0003C16.1554 20.0003 16.3085 19.9642 16.4474 19.8948L28.4474 13.8948C28.5649 13.8361 28.6697 13.7548 28.7557 13.6556C28.8418 13.5563 28.9075 13.4411 28.949 13.3165C28.9905 13.1919 29.0071 13.0604 28.9978 12.9294C28.9884 12.7984 28.9534 12.6705 28.8946 12.553Z" fill="#0F0F0F"/>
</svg>
