<svg width="32" height="32" viewBox="0 0 32 32" fill="none" xmlns="http://www.w3.org/2000/svg">
<path d="M29.1994 15.2856L18.2 4.7865C18.0595 4.64842 17.8813 4.55493 17.6878 4.51779C17.4943 4.48064 17.2941 4.50149 17.1124 4.57771C16.9307 4.65394 16.7756 4.78214 16.6665 4.94622C16.5574 5.11031 16.4992 5.30296 16.4992 5.5L16.5002 10.5005L3.99724 10.5069C3.60015 10.5084 3.21979 10.667 2.93928 10.9481C2.65877 11.2291 2.50093 11.6098 2.50024 12.0069V20C2.50067 20.3977 2.65881 20.7789 2.93998 21.0601C3.22115 21.3413 3.60238 21.4995 4.00004 21.5H16.5V26.5C16.5 26.6965 16.5579 26.8886 16.6665 27.0524C16.775 27.2162 16.9294 27.3444 17.1103 27.421C17.2913 27.4976 17.4908 27.5191 17.684 27.483C17.8771 27.4469 18.0553 27.3546 18.1963 27.2178L29.2072 16.7074C29.3007 16.6139 29.3748 16.5028 29.425 16.3805C29.4753 16.2582 29.5008 16.1271 29.5001 15.9949C29.4993 15.8626 29.4724 15.7319 29.4208 15.6101C29.3692 15.4884 29.294 15.3781 29.1994 15.2856ZM17.5 26.5V21C17.5 20.8674 17.4474 20.7402 17.3536 20.6464C17.2598 20.5527 17.1327 20.5 17 20.5H4.00004C3.86752 20.4997 3.74049 20.447 3.64678 20.3533C3.55307 20.2596 3.50031 20.1325 3.50004 20V12.0073C3.50004 11.875 3.55245 11.7482 3.64578 11.6545C3.73912 11.5607 3.86578 11.5078 3.99804 11.5073L17 11.5C17.1327 11.5 17.2598 11.4473 17.3536 11.3536C17.4474 11.2598 17.5 11.1326 17.5 11L17.5039 5.5049L28.508 15.9926L17.5 26.5Z" fill="#0F0F0F"/>
</svg>
