<svg width="32" height="32" viewBox="0 0 32 32" fill="none" xmlns="http://www.w3.org/2000/svg">
<path d="M28.9998 26.25H25.1424C27.2897 24.3301 28.7792 21.7837 29.4002 18.971C30.0212 16.1582 29.7422 13.2215 28.6028 10.5759C27.4634 7.93036 25.5212 5.70993 23.0508 4.22861C20.5804 2.74729 17.7069 2.08004 14.8365 2.32122C11.9661 2.56239 9.2442 3.69978 7.05562 5.57255C4.86704 7.44532 3.32255 9.95871 2.64057 12.7573C1.95858 15.5559 2.1736 18.498 3.25523 21.1677C4.33686 23.8374 6.23036 26.0995 8.66797 27.6342C8.83618 27.7404 9.03969 27.7754 9.23371 27.7315C9.42774 27.6877 9.59639 27.5685 9.70257 27.4003C9.80875 27.2321 9.84376 27.0286 9.79989 26.8346C9.75603 26.6405 9.63688 26.4719 9.46867 26.3657C7.27067 24.9861 5.56705 22.9446 4.60299 20.5352C3.63892 18.1259 3.46411 15.4727 4.10373 12.9577C4.74334 10.4426 6.1644 8.19533 8.16238 6.53923C10.1604 4.88312 12.6322 3.9036 15.2223 3.74163C17.8124 3.57965 20.387 4.24358 22.5758 5.63785C24.7645 7.03213 26.4545 9.08486 27.4024 11.5006C28.3504 13.9164 28.5075 16.5706 27.8511 19.0814C27.1948 21.5921 25.7588 23.8299 23.7498 25.4726V21C23.7498 20.8011 23.6708 20.6103 23.5301 20.4697C23.3894 20.329 23.1987 20.25 22.9998 20.25C22.8009 20.25 22.6101 20.329 22.4694 20.4697C22.3288 20.6103 22.2498 20.8011 22.2498 21V27C22.2498 27.1989 22.3288 27.3897 22.4694 27.5303C22.6101 27.671 22.8009 27.75 22.9998 27.75H28.9998C29.1987 27.75 29.3894 27.671 29.5301 27.5303C29.6708 27.3897 29.7498 27.1989 29.7498 27C29.7498 26.8011 29.6708 26.6103 29.5301 26.4697C29.3894 26.329 29.1987 26.25 28.9998 26.25Z" fill="#0F0F0F"/>
<path d="M13.36 20V10.9H12.138L10.084 11.966V13.253L12.125 12.2V20H13.36Z" fill="#0F0F0F"/>
<path d="M18.7499 20.195C20.5959 20.195 21.9999 18.687 21.9999 15.424C21.9999 12.07 20.5829 10.705 18.7499 10.705C16.9169 10.705 15.4999 12.07 15.4999 15.424C15.4999 18.687 16.9039 20.195 18.7499 20.195ZM18.7499 19.155C17.4239 19.155 16.7739 17.972 16.7739 15.424C16.7739 12.889 17.4239 11.745 18.7499 11.745C20.0759 11.745 20.7259 12.889 20.7259 15.424C20.7259 17.972 20.0759 19.155 18.7499 19.155Z" fill="#0F0F0F"/>
</svg>
