<svg width="32" height="32" viewBox="0 0 32 32" fill="none" xmlns="http://www.w3.org/2000/svg">
<path d="M29 26H25.763C27.8378 23.9675 29.2281 21.3392 29.7406 18.4803C30.2532 15.6214 29.8625 12.6739 28.623 10.0472C27.3835 7.42052 25.3566 5.24511 22.824 3.82321C20.2914 2.40131 17.3788 1.80353 14.4908 2.11291C11.6029 2.4223 8.88303 3.62349 6.70909 5.5496C4.53515 7.47571 3.0151 10.0311 2.36012 12.8608C1.70513 15.6904 1.94774 18.6538 3.05424 21.3392C4.16073 24.0247 6.07617 26.2988 8.53444 27.8457C8.6455 27.9158 8.76928 27.9634 8.89873 27.9857C9.02818 28.008 9.16076 28.0046 9.28889 27.9757C9.41702 27.9468 9.5382 27.8929 9.6455 27.8171C9.75281 27.7414 9.84414 27.6452 9.91429 27.5341C9.98443 27.4231 10.032 27.2993 10.0543 27.1699C10.0766 27.0404 10.0732 26.9078 10.0443 26.7797C10.0154 26.6516 9.96147 26.5304 9.88571 26.4231C9.80995 26.3158 9.7138 26.2244 9.60274 26.1543C7.46742 24.8157 5.80705 22.8396 4.85652 20.5056C3.90598 18.1715 3.71342 15.5977 4.30606 13.1482C4.89871 10.6987 6.24655 8.49752 8.15892 6.85612C10.0713 5.21473 12.4514 4.2162 14.9624 4.00179C17.4734 3.78739 19.9883 4.36797 22.1513 5.6614C24.3142 6.95482 26.0158 8.89561 27.0151 11.2092C28.0144 13.5228 28.261 16.092 27.7199 18.5534C27.1788 21.0148 25.8775 23.2438 24 24.925V21C24 20.7348 23.8947 20.4804 23.7071 20.2929C23.5196 20.1054 23.2653 20 23 20C22.7348 20 22.4805 20.1054 22.2929 20.2929C22.1054 20.4804 22 20.7348 22 21V27C22 27.2652 22.1054 27.5196 22.2929 27.7071C22.4805 27.8946 22.7348 28 23 28H29C29.2653 28 29.5196 27.8946 29.7071 27.7071C29.8947 27.5196 30 27.2652 30 27C30 26.7348 29.8947 26.4804 29.7071 26.2929C29.5196 26.1054 29.2653 26 29 26Z" fill="#0F0F0F"/>
<path d="M11.7221 20H13.7501V10.9H11.7351L9.64212 12.005V13.838L11.7221 12.772V20Z" fill="#0F0F0F"/>
<path d="M18.75 20.195C20.856 20.195 22.208 18.765 22.208 15.476C22.208 12.096 20.882 10.705 18.75 10.705C16.618 10.705 15.292 12.096 15.292 15.476C15.292 18.765 16.644 20.195 18.75 20.195ZM18.75 18.817C17.892 18.817 17.385 18.102 17.385 15.476C17.385 12.85 17.892 12.07 18.75 12.07C19.608 12.07 20.115 12.85 20.115 15.476C20.115 18.102 19.608 18.817 18.75 18.817Z" fill="#0F0F0F"/>
</svg>
