<svg width="32" height="32" viewBox="0 0 32 32" fill="none" xmlns="http://www.w3.org/2000/svg">
<path d="M18.904 4.78534C21.0474 5.40454 23.0163 6.30971 24.3532 7.64655C26.9809 10.2743 27.7571 13.6821 27.498 16.7915C27.2589 19.6619 26.1332 22.3386 24.6946 23.9875L28.3536 27.6464C28.5488 27.8417 28.5488 28.1583 28.3536 28.3536C28.1583 28.5488 27.8417 28.5488 27.6464 28.3536L23.9876 24.6947C22.3387 26.1335 19.6616 27.2592 16.791 27.4984C13.6816 27.7574 10.2738 26.9812 7.64606 24.3537C6.30923 23.0169 5.40406 21.048 4.78487 18.9047C4.16315 16.7526 3.81548 14.3736 3.62643 12.168C3.43718 9.96006 3.40577 7.91203 3.4215 6.41678C3.42938 5.66873 3.44907 5.05798 3.46684 4.63351C3.47572 4.42124 3.48413 4.25549 3.49034 4.14236C3.49345 4.08579 3.49601 4.04237 3.49781 4.01286L3.49991 3.97913L3.50048 3.97027L3.50064 3.96788C3.50064 3.96788 3.50071 3.96684 3.9995 4.0001L3.96668 3.50119L3.96977 3.50099L3.97863 3.50041L4.01236 3.49831C4.04186 3.49651 4.08528 3.49395 4.14185 3.49085C4.25498 3.48463 4.42073 3.47622 4.63298 3.46733C5.05745 3.44956 5.66818 3.42987 6.41621 3.422C7.91143 3.40625 9.95942 3.43766 12.1673 3.6269C14.3729 3.81595 16.7519 4.16361 18.904 4.78534ZM26.5015 16.7085C26.7423 13.818 26.0183 10.726 23.646 8.35365C22.4829 7.19046 20.7018 6.34561 18.6265 5.74605C16.5598 5.14902 14.2513 4.80919 12.0819 4.62325C9.91478 4.4375 7.90027 4.40642 6.42674 4.42194C5.6904 4.42969 5.09019 4.44907 4.67481 4.46646C4.60243 4.46949 4.53568 4.47246 4.4748 4.4753C4.47196 4.53618 4.46899 4.60294 4.46596 4.67533C4.44857 5.09072 4.4292 5.69094 4.42145 6.4273C4.40594 7.90086 4.43702 9.91541 4.62278 12.0826C4.80872 14.252 5.14855 16.5605 5.74558 18.6271C6.34514 20.7025 7.18998 22.4835 8.35314 23.6465C10.7254 26.0186 13.8174 26.7426 16.7079 26.5018C19.3766 26.2795 21.8133 25.2392 23.2786 23.9857L20.7929 21.5H13C12.7239 21.5 12.5 21.2761 12.5 21C12.5 20.7239 12.7239 20.5 13 20.5H19.7929L16.7929 17.5H10C9.72386 17.5 9.5 17.2761 9.5 17C9.5 16.7239 9.72386 16.5 10 16.5H15.7929L12.7929 13.5H8C7.72386 13.5 7.5 13.2761 7.5 13C7.5 12.7239 7.72386 12.5 8 12.5H11.7929L7.64645 8.35355C7.45118 8.15829 7.45118 7.84171 7.64645 7.64645C7.84171 7.45118 8.15829 7.45118 8.35355 7.64645L12.5 11.7929V8C12.5 7.72386 12.7239 7.5 13 7.5C13.2761 7.5 13.5 7.72386 13.5 8V12.7929L16.5 15.7929V10C16.5 9.72386 16.7239 9.5 17 9.5C17.2761 9.5 17.5 9.72386 17.5 10V16.7929L20.5 19.7929V13C20.5 12.7239 20.7239 12.5 21 12.5C21.2761 12.5 21.5 12.7239 21.5 13V20.7929L23.9857 23.2786C25.2389 21.8132 26.2792 19.3768 26.5015 16.7085Z" fill="#0F0F0F"/>
<path d="M3.96668 3.50119C3.71675 3.51785 3.51737 3.71691 3.50071 3.96684L3.9995 4.0001C3.96623 3.5012 3.96668 3.50119 3.96668 3.50119Z" fill="#0F0F0F"/>
</svg>
