<svg width="32" height="32" viewBox="0 0 32 32" fill="none" xmlns="http://www.w3.org/2000/svg">
<path d="M9.02619 3.55223C9.27646 3.43552 9.57395 3.5438 9.69066 3.79407L14.0899 13.2282C14.2066 13.4785 14.0983 13.776 13.848 13.8927C13.5978 14.0094 13.3003 13.9011 13.1836 13.6509L8.78435 4.21669C8.66765 3.96642 8.77592 3.66893 9.02619 3.55223Z" fill="#0F0F0F"/>
<path d="M15.202 8.10402C15.4522 7.98732 15.7497 8.0956 15.8664 8.34587L17.9367 12.7855C18.0534 13.0357 17.9451 13.3332 17.6948 13.4499C17.4445 13.5666 17.1471 13.4584 17.0304 13.2081L14.9601 8.76848C14.8434 8.51821 14.9517 8.22072 15.202 8.10402Z" fill="#0F0F0F"/>
<path d="M19.0487 7.66126C19.2989 7.54455 19.5964 7.65283 19.7131 7.9031L21.5246 11.7878C21.6413 12.038 21.533 12.3355 21.2827 12.4522C21.0324 12.5689 20.735 12.4606 20.6183 12.2104L18.8068 8.32572C18.6901 8.07545 18.7984 7.77796 19.0487 7.66126Z" fill="#0F0F0F"/>
<path d="M6.19303 3.27384C7.16872 2.81887 8.32938 3.24099 8.78435 4.21669L9.69066 3.79407C9.00228 2.31784 7.24665 1.67915 5.77041 2.36753C4.29418 3.05591 3.6555 4.81068 4.34387 6.28691L5.25018 5.86429C4.79521 4.8886 5.21734 3.72881 6.19303 3.27384Z" fill="#0F0F0F"/>
<path d="M13.183 8.12181C12.5138 8.43387 12.2243 9.22933 12.5363 9.89854C12.653 10.1488 12.5448 10.4463 12.2945 10.563C12.0442 10.6797 11.7467 10.5714 11.63 10.3212C11.0846 9.15141 11.5906 7.76097 12.7604 7.21551C13.9301 6.67005 15.321 7.17612 15.8664 8.34587C15.9831 8.59614 15.8745 8.89363 15.6242 9.01033C15.3739 9.12704 15.0768 9.01875 14.9601 8.76848C14.6481 8.09928 13.8522 7.80976 13.183 8.12181Z" fill="#0F0F0F"/>
<path d="M17.0307 7.67905C16.3615 7.9911 16.0719 8.78657 16.384 9.45577C16.5007 9.70604 16.3924 10.0035 16.1421 10.1202C15.8919 10.2369 15.5944 10.1287 15.4777 9.87839C14.9322 8.70865 15.4383 7.3182 16.608 6.77274C17.7778 6.22728 19.1677 6.73336 19.7131 7.9031C19.8298 8.15337 19.7221 8.45087 19.4718 8.56757C19.2216 8.68427 18.9235 8.57599 18.8068 8.32572C18.4948 7.65652 17.6999 7.36699 17.0307 7.67905Z" fill="#0F0F0F"/>
<path d="M20.8783 7.23628C20.2091 7.54833 19.9196 8.3438 20.2316 9.013C20.3483 9.26327 20.2401 9.56076 19.9898 9.67746C19.7395 9.79417 19.442 9.68589 19.3253 9.43562C18.7799 8.26588 19.286 6.87543 20.4557 6.32997C21.6254 5.78451 23.0159 6.29059 23.5613 7.46033C23.678 7.7106 23.5698 8.00809 23.3195 8.1248C23.0692 8.2415 22.7717 8.13322 22.655 7.88295C22.343 7.21375 21.5475 6.92422 20.8783 7.23628Z" fill="#0F0F0F"/>
<path d="M4.5875 5.62179C4.83777 5.50508 5.13526 5.61336 5.25197 5.86363L11.9802 20.2924C12.0657 20.4756 12.0323 20.6923 11.8957 20.8414C11.7591 20.9906 11.5461 21.0427 11.3561 20.9735C11.2213 20.9245 11.0762 20.8692 10.9216 20.8102C10.421 20.6193 9.8208 20.3905 9.14722 20.2134C8.27116 19.9832 7.33079 19.8593 6.44345 20.0313C5.39856 20.2339 4.76088 20.9591 4.54681 21.6761C4.32358 22.4237 4.57485 22.9706 5.03831 23.1393C5.76136 23.4024 6.28963 23.5948 7.25398 23.946C8.02619 24.2272 9.07802 24.6103 10.7334 25.2131C11.6563 25.5491 12.5954 26.0273 13.5363 26.5064C13.5795 26.5284 13.6227 26.5504 13.6659 26.5724C14.6611 27.0788 15.6683 27.585 16.7255 27.9696C18.8194 28.7314 21.0838 29.008 23.7053 27.7856C27.4395 26.0443 29.055 21.6057 27.3138 17.8715L22.655 7.88295C22.5383 7.63268 22.6473 7.33467 22.8976 7.21797C23.1479 7.10126 23.4446 7.21006 23.5613 7.46033L28.2201 17.4489C30.1947 21.6836 28.3626 26.7172 24.128 28.6919C21.2003 30.0571 18.6489 29.7335 16.3836 28.9094C15.2612 28.501 14.203 27.9678 13.2123 27.4636C13.1766 27.4454 13.141 27.4273 13.1055 27.4092C12.1449 26.9202 11.2553 26.4673 10.3912 26.1527C8.73699 25.5504 7.6855 25.1674 6.91349 24.8863C5.94811 24.5347 5.41977 24.3423 4.69634 24.079C3.53267 23.6555 3.28452 22.4085 3.5886 21.39C3.90185 20.3408 4.81822 19.3278 6.25313 19.0496C7.34861 18.8372 8.45507 18.9975 9.40142 19.2463C9.81201 19.3542 10.2038 19.4823 10.5577 19.608L4.34566 6.28625C4.22896 6.03598 4.33723 5.73849 4.5875 5.62179Z" fill="#0F0F0F"/>
</svg>
