<svg width="32" height="32" viewBox="0 0 32 32" fill="none" xmlns="http://www.w3.org/2000/svg">
<path d="M27.0101 5.9898C24.049 3.0386 19.3821 2.6772 16.0019 5.1372C12.2109 2.3724 6.89629 3.2042 4.13149 6.9953C1.66509 10.3771 2.02929 15.0513 4.98959 18.0103C4.98959 18.0103 10.0946 23.1197 13.8314 26.8531C14.6268 27.6674 15.9196 27.7188 16.7772 26.9703C17.0263 26.7226 17.2052 26.4133 17.2958 26.0738L18.2406 27.0191C18.5731 27.3377 19.0185 27.5112 19.4789 27.5015C20.029 27.5018 20.557 27.2849 20.9481 26.898C21.2155 26.6331 21.4017 26.2973 21.4847 25.9302C22.4369 26.4904 23.6629 26.1727 24.2231 25.2206C24.6031 24.5747 24.5903 23.7706 24.1898 23.1372C25.2615 22.8848 25.9257 21.8114 25.6733 20.7397C25.5933 20.4002 25.4257 20.0876 25.1872 19.8332L27.0101 18.0103C30.2966 14.6938 30.2753 9.3274 27.0101 5.9898ZM24.4349 21.8999C24.0535 22.2792 23.3693 22.2474 22.9413 21.8194L18.3534 17.2319C18.1562 17.0386 17.8397 17.0418 17.6464 17.239C17.4558 17.4334 17.4558 17.7445 17.6464 17.9389L23.2059 23.4985C23.5986 23.887 23.602 24.5203 23.2135 24.913C22.825 25.3057 22.1917 25.3091 21.799 24.9206C21.7966 24.9182 21.7942 24.9158 21.7918 24.9134L16.3534 19.4769C16.1562 19.2836 15.8397 19.2868 15.6464 19.484C15.4559 19.6784 15.4559 19.9895 15.6464 20.1839L20.265 24.8011C20.642 25.211 20.6153 25.8489 20.2054 26.2259C19.8579 26.5455 19.2364 26.6007 18.7446 26.1089L14.2826 21.6459C14.0893 21.4487 13.7728 21.4455 13.5756 21.6388C13.3784 21.8321 13.3752 22.1486 13.5685 22.3458C13.5708 22.3482 13.5732 22.3506 13.5756 22.3529L16.0756 24.8539C16.4606 25.2456 16.4582 25.8743 16.0702 26.2631C15.6645 26.6688 14.9448 26.5685 14.538 26.1459C9.37199 20.9838 5.69669 17.3031 5.69669 17.3031C2.76779 14.3762 2.76619 9.6291 5.69309 6.7002C8.23599 4.1556 12.2277 3.7758 15.2049 5.7951C15.134 5.8614 15.0588 5.9205 14.9897 5.9896L8.48719 12.4925C8.12099 12.8034 7.93489 13.2772 7.99159 13.7542C8.14209 14.3436 8.56719 14.8245 9.13369 15.0462C10.7078 15.8721 12.6412 15.5301 13.8363 14.2142L15.9995 12.0493L24.4349 20.4847C24.8255 20.8757 24.8255 21.5091 24.4349 21.8999ZM24.4852 19.1211L17.5965 12.2324C19.4432 12.6321 21.365 12.0439 22.6717 10.6792C22.8689 10.4859 22.8721 10.1694 22.6788 9.9722C22.4855 9.775 22.169 9.7718 21.9718 9.9651C21.9694 9.9674 21.967 9.9698 21.9647 9.9722C20.4878 11.4528 18.2111 11.7814 16.3758 10.7788C16.3058 10.7469 16.2292 10.7321 16.1523 10.7356C16.0144 10.7201 15.8765 10.7655 15.7747 10.8599L13.1292 13.5074C12.1312 14.5054 10.7772 14.7843 9.58919 14.1558C9.17019 13.9419 8.99929 13.7281 8.97929 13.5992C8.95729 13.4605 9.10429 13.2896 9.19419 13.1998L15.6966 6.6969C15.7879 6.6056 15.8861 6.5256 15.9809 6.44C19.0525 3.6652 23.792 3.9058 26.5668 6.9775C29.2433 9.9403 29.1273 14.4811 26.303 17.3033L24.4852 19.1211Z" fill="#0F0F0F"/>
</svg>
