<svg width="32" height="32" viewBox="0 0 32 32" fill="none" xmlns="http://www.w3.org/2000/svg">
<path d="M22.25 7.44215V8.74977C22.25 8.94868 22.329 9.13945 22.4696 9.2801C22.6103 9.42075 22.801 9.49977 23 9.49977C23.1989 9.49977 23.3896 9.42075 23.5303 9.2801C23.6709 9.13945 23.75 8.94868 23.75 8.74977V7.44215C23.75 7.24324 23.6709 7.05247 23.5303 6.91182C23.3896 6.77117 23.1989 6.69215 23 6.69215C22.801 6.69215 22.6103 6.77117 22.4696 6.91182C22.329 7.05247 22.25 7.24324 22.25 7.44215Z" fill="#0F0F0F"/>
<path d="M23 12C23.4142 12 23.75 11.6642 23.75 11.25C23.75 10.8358 23.4142 10.5 23 10.5C22.5858 10.5 22.25 10.8358 22.25 11.25C22.25 11.6642 22.5858 12 23 12Z" fill="#0F0F0F"/>
<path d="M29.7382 12.0115L24.7519 3.01149L24.7402 2.992C24.5632 2.6886 24.3095 2.43717 24.0045 2.26299C23.6994 2.08882 23.3539 1.99806 23.0027 1.99984C22.6515 2.00162 22.3069 2.09588 22.0037 2.27314C21.7004 2.4504 21.4492 2.70439 21.2753 3.00957L16.2733 11.992C16.0963 12.296 16.0025 12.6414 16.0015 12.9932C16.0004 13.345 16.0922 13.6909 16.2675 13.9959C16.4428 14.301 16.6954 14.5544 16.9999 14.7306C17.3044 14.9069 17.65 14.9997 18.0019 14.9998H27.999C28.3489 14.9998 28.6927 14.908 28.9961 14.7335C29.2994 14.5591 29.5517 14.3081 29.7277 14.0057C29.9038 13.7033 29.9974 13.3599 29.9992 13.01C30.0011 12.6601 29.911 12.3158 29.7382 12.0115ZM18.0117 12.9822L23.0107 3.99586L27.999 12.9998L18.0117 12.9822Z" fill="#0F0F0F"/>
<path d="M9.10736 22.8427C16.1032 29.8385 22.3711 29.3779 24.172 27.577L25.2092 26.5398C25.8138 25.9339 26.1534 25.1128 26.1534 24.2569C26.1534 23.4009 25.8138 22.5799 25.2092 21.974L22.6853 19.4501C22.0812 18.8505 21.2639 18.5151 20.4128 18.5173C19.5616 18.5195 18.7461 18.8591 18.1451 19.4618L16.9877 20.6192C15.5984 20.3307 14.3297 19.6265 13.35 18.6001C12.324 17.6209 11.6188 16.3538 11.3274 14.9658L12.4951 13.7995C13.0862 13.1691 13.4079 12.333 13.3918 11.469C13.3756 10.605 13.023 9.78147 12.4088 9.17358L9.97608 6.74083C9.37015 6.13624 8.54914 5.7967 7.69318 5.7967C6.83721 5.7967 6.0162 6.13624 5.41027 6.74083L4.37306 7.77804C2.57211 9.57892 2.11155 15.8469 9.10736 22.8427ZM6.82445 8.15501C7.05497 7.92486 7.3674 7.79558 7.69314 7.79559C8.01889 7.79559 8.33132 7.92485 8.56184 8.15501L10.9946 10.5878C11.236 10.8194 11.3796 11.1347 11.3957 11.4688C11.4119 11.803 11.2995 12.1307 11.0816 12.3845L9.6991 13.7656C8.61841 14.8463 10.0257 18.1042 11.9357 20.0142C14.037 22.1155 17.1928 23.2425 18.1885 22.2467L19.5592 20.876C19.7849 20.6478 20.0918 20.5184 20.4128 20.5162C20.7337 20.514 21.0424 20.6392 21.2711 20.8643L23.795 23.3882C24.0252 23.6187 24.1544 23.9311 24.1544 24.2569C24.1544 24.5826 24.0252 24.8951 23.795 25.1256L22.7578 26.1628C21.6902 27.2303 16.4829 27.3899 10.5215 21.4285C4.56016 15.4671 4.71967 10.2598 5.78724 9.19222L6.82445 8.15501Z" fill="#0F0F0F"/>
</svg>
