<svg width="32" height="32" viewBox="0 0 32 32" fill="none" xmlns="http://www.w3.org/2000/svg">
<path d="M24.8617 18.8757C24.2878 18.3278 23.5247 18.0223 22.7312 18.0228C21.9378 18.0234 21.1751 18.3299 20.6019 18.8787C20.6019 18.8787 19.1293 20.3757 18.8402 20.6853C17.8883 20.7535 16.9349 20.5766 16.0708 20.1715L12.2085 24.0339C16.2477 27.3672 19.8954 28.5164 22.517 28.5164C23.8268 28.6103 25.1232 28.2021 26.143 27.3748L27.6147 25.9031C27.8955 25.6225 28.1182 25.2893 28.2702 24.9226C28.4222 24.5559 28.5004 24.1628 28.5004 23.7659C28.5004 23.3689 28.4222 22.9759 28.2702 22.6091C28.1182 22.2424 27.8955 21.9093 27.6147 21.6287L24.8617 18.8757Z" fill="#0F0F0F"/>
<path d="M4.70741 28.7068L28.7074 4.7068C28.8003 4.61395 28.8739 4.50372 28.9242 4.38241C28.9744 4.2611 29.0003 4.13108 29.0003 3.99977C29.0003 3.86846 28.9744 3.73844 28.9242 3.61713C28.8739 3.49582 28.8003 3.38559 28.7074 3.29274C28.6146 3.19989 28.5043 3.12624 28.383 3.07599C28.2617 3.02574 28.1317 2.99988 28.0004 2.99988C27.8691 2.99988 27.739 3.02574 27.6177 3.07599C27.4964 3.12624 27.3862 3.19989 27.2933 3.29274L12.8388 17.7473C11.8326 16.456 11.2783 14.8701 11.2611 13.2332C11.6234 12.8709 13.1215 11.3982 13.1244 11.3953C13.404 11.1158 13.6257 10.784 13.7771 10.4188C13.9284 10.0536 14.0062 9.66216 14.0062 9.26686C14.0062 8.87156 13.9284 8.48012 13.7771 8.11492C13.6257 7.74972 13.404 7.41791 13.1244 7.13844L10.3715 4.38551C9.79587 3.8355 9.03039 3.52857 8.23427 3.52857C7.43814 3.52857 6.67266 3.8355 6.09706 4.38551L4.62538 5.85719C3.52284 6.95875 3.20155 9.34938 3.80702 11.947C4.31459 14.1261 5.68446 17.4684 9.28816 21.2979L3.29335 27.2927C3.10583 27.4803 3.00049 27.7346 3.00049 27.9998C3.00049 28.265 3.10583 28.5193 3.29335 28.7068C3.48087 28.8943 3.73519 28.9997 4.00038 28.9997C4.26557 28.9997 4.51989 28.8943 4.70741 28.7068Z" fill="#0F0F0F"/>
</svg>
