<svg width="32" height="32" viewBox="0 0 32 32" fill="none" xmlns="http://www.w3.org/2000/svg">
<path d="M28.3541 3.64625C28.3077 3.59982 28.2526 3.56298 28.1919 3.53785C28.1313 3.51272 28.0662 3.49978 28.0006 3.49978C27.9349 3.49978 27.8699 3.51272 27.8093 3.53785C27.7486 3.56298 27.6935 3.59982 27.6471 3.64625L12.7182 18.5751C11.7861 17.318 11.2761 15.798 11.2613 14.2331C11.6236 13.8708 13.1217 12.3981 13.1246 12.3953C13.4042 12.1158 13.6259 11.784 13.7772 11.4188C13.9286 11.0536 14.0064 10.6621 14.0064 10.2668C14.0064 9.87154 13.9286 9.4801 13.7772 9.11491C13.6259 8.74971 13.4042 8.41789 13.1246 8.13842L10.3717 5.38551C9.79606 4.8355 9.03058 4.52857 8.23446 4.52857C7.43833 4.52857 6.67285 4.8355 6.09725 5.38551L4.62557 6.85719C3.52303 7.95875 3.20174 10.3494 3.80721 12.947C4.75453 16.4265 6.59598 19.5975 9.14852 22.1448L3.64709 27.6462C3.5999 27.6925 3.56234 27.7476 3.53659 27.8085C3.51084 27.8694 3.49741 27.9347 3.49708 28.0008C3.49674 28.0669 3.50951 28.1324 3.53465 28.1935C3.55978 28.2546 3.59678 28.3101 3.6435 28.3568C3.69023 28.4036 3.74575 28.4406 3.80686 28.4657C3.86798 28.4908 3.93347 28.5036 3.99955 28.5033C4.06562 28.5029 4.13098 28.4895 4.19184 28.4638C4.25269 28.438 4.30784 28.4004 4.35409 28.3533L28.3541 4.35325C28.4005 4.30684 28.4374 4.25173 28.4625 4.19107C28.4876 4.13042 28.5006 4.06541 28.5006 3.99975C28.5006 3.93409 28.4876 3.86908 28.4625 3.80843C28.4374 3.74777 28.4005 3.69266 28.3541 3.64625ZM9.85543 21.4379C7.43414 19.0232 5.68497 16.0184 4.78084 12.7205C4.17928 10.1404 4.62459 8.27125 5.3326 7.56422L6.80428 6.09254C7.18967 5.72491 7.70184 5.5198 8.23446 5.5198C8.76708 5.5198 9.27924 5.72491 9.66463 6.09254L12.4176 8.84547C12.7941 9.2219 13.0059 9.73236 13.0064 10.2648C13.007 10.7972 12.7962 11.3081 12.4205 11.6853C12.4205 11.6853 10.9185 13.1619 10.5543 13.5261C9.94606 14.1343 10.3556 17.0272 12.0083 19.285L9.85543 21.4379Z" fill="#0F0F0F"/>
<path d="M24.8619 19.8757C24.288 19.3278 23.5249 19.0223 22.7314 19.0228C21.9379 19.0234 21.1753 19.3299 20.6021 19.8787C20.6021 19.8787 19.1295 21.3757 18.8404 21.6853C17.1084 21.7326 15.419 21.1445 14.0907 20.0319L13.3816 20.7411C15.6777 22.6065 18.8359 23.0835 19.4752 22.4461C19.8385 22.0809 21.3121 20.5828 21.3121 20.5828C21.6949 20.2171 22.204 20.013 22.7335 20.013C23.2629 20.013 23.772 20.2171 24.1549 20.5828L26.9078 23.3358C27.2863 23.7155 27.4989 24.2298 27.4989 24.7659C27.4989 25.3021 27.2863 25.8164 26.9078 26.1961L25.4361 27.6677C24.0898 29.0111 18.1801 29.4237 11.2684 22.8542L10.5556 23.567C15.2465 28.0418 19.5422 29.5164 22.5172 29.5164C23.827 29.6103 25.1234 29.2021 26.1432 28.3748L27.6148 26.9031C27.8956 26.6225 28.1184 26.2893 28.2704 25.9226C28.4223 25.5559 28.5006 25.1628 28.5006 24.7659C28.5006 24.3689 28.4223 23.9759 28.2704 23.6091C28.1184 23.2424 27.8956 22.9093 27.6148 22.6287L24.8619 19.8757Z" fill="#0F0F0F"/>
</svg>
