<svg width="32" height="32" viewBox="0 0 32 32" fill="none" xmlns="http://www.w3.org/2000/svg">
<path fill-rule="evenodd" clip-rule="evenodd" d="M28.7071 3.29289C29.0976 3.68342 29.0976 4.31658 28.7071 4.70711L4.70711 28.7071C4.31658 29.0976 3.68342 29.0976 3.29289 28.7071C2.90237 28.3166 2.90237 27.6834 3.29289 27.2929L27.2929 3.29289C27.6834 2.90237 28.3166 2.90237 28.7071 3.29289Z" fill="#0F0F0F"/>
<path d="M12.9853 23.2489C19.0503 28.1239 24.2152 27.5842 25.8224 25.977L26.8596 24.9398C27.4642 24.3339 27.8037 23.5128 27.8037 22.6569C27.8037 21.8009 27.4642 20.9799 26.8596 20.374L24.3357 17.8501C23.7316 17.2505 22.9143 16.9151 22.0631 16.9173C21.212 16.9195 20.3965 17.2591 19.7954 17.8618L18.6381 19.0192C18.2618 18.941 17.8943 18.8324 17.5391 18.6951L12.9853 23.2489Z" fill="#0F0F0F"/>
<path d="M11.472 21.9338L15.7367 17.6691C15.4768 17.4647 15.2306 17.2413 15.0003 17C13.9744 16.0208 13.2692 14.7537 12.9778 13.3658L14.1455 12.1995C14.7365 11.5691 15.0582 10.733 15.0421 9.869C15.026 9.00503 14.6734 8.18146 14.0592 7.57357L11.6265 5.14082C11.0205 4.53623 10.1995 4.19669 9.34355 4.19669C8.48759 4.19669 7.66657 4.53624 7.06064 5.14082L6.02344 6.17803C4.22249 7.97891 3.76192 14.2468 10.7577 21.2427C10.9967 21.4817 11.2349 21.7119 11.472 21.9338Z" fill="#0F0F0F"/>
</svg>
