<svg width="32" height="32" viewBox="0 0 32 32" fill="none" xmlns="http://www.w3.org/2000/svg">
<path d="M22.9999 9.88844C23.0655 9.88848 23.1306 9.87557 23.1912 9.85046C23.2519 9.82534 23.3071 9.78852 23.3535 9.74208C23.3999 9.69564 23.4368 9.64051 23.4619 9.57983C23.487 9.51915 23.4999 9.45411 23.4999 9.38844V7.44215C23.4999 7.30954 23.4472 7.18236 23.3534 7.0886C23.2596 6.99483 23.1325 6.94215 22.9999 6.94215C22.8673 6.94215 22.7401 6.99483 22.6463 7.0886C22.5525 7.18236 22.4999 7.30954 22.4999 7.44215V9.38844C22.4998 9.45411 22.5127 9.51915 22.5378 9.57983C22.563 9.64051 22.5998 9.69564 22.6462 9.74208C22.6927 9.78852 22.7478 9.82534 22.8085 9.85046C22.8692 9.87557 22.9342 9.88848 22.9999 9.88844Z" fill="#0F0F0F"/>
<path d="M22.9999 11.75C23.2761 11.75 23.4999 11.5262 23.4999 11.25C23.4999 10.9739 23.2761 10.75 22.9999 10.75C22.7238 10.75 22.4999 10.9739 22.4999 11.25C22.4999 11.5262 22.7238 11.75 22.9999 11.75Z" fill="#0F0F0F"/>
<path d="M29.3006 12.2537L24.3143 3.25367L24.3085 3.24391C24.176 3.01674 23.9861 2.8284 23.7579 2.69779C23.5296 2.56718 23.271 2.49889 23.0081 2.49978C22.7451 2.50067 22.487 2.57071 22.2596 2.70286C22.0323 2.83501 21.8437 3.02464 21.7128 3.2527L16.7059 12.2439C16.573 12.4719 16.5025 12.7309 16.5017 12.9947C16.5008 13.2586 16.5696 13.518 16.701 13.7469C16.8325 13.9757 17.022 14.1658 17.2503 14.298C17.4787 14.4302 17.7379 14.4998 18.0018 14.4998H27.9989C28.2618 14.4997 28.5201 14.4306 28.7479 14.2993C28.9757 14.1681 29.165 13.9792 29.2969 13.7517C29.4287 13.5243 29.4985 13.2661 29.4991 13.0032C29.4998 12.7403 29.4313 12.4818 29.3006 12.2537ZM28.4325 13.2488C28.3894 13.3257 28.3265 13.3897 28.2502 13.4338C28.1739 13.478 28.087 13.5008 27.9989 13.4998H18.0018C17.9136 13.5008 17.8268 13.478 17.7505 13.4338C17.6742 13.3897 17.6113 13.3257 17.5682 13.2488C17.523 13.1712 17.4997 13.0829 17.5008 12.9931C17.5018 12.9033 17.5271 12.8155 17.5741 12.739L22.5809 3.74781C22.6247 3.67267 22.6874 3.61026 22.7628 3.56676C22.8381 3.52326 22.9235 3.50017 23.0105 3.49978C23.0975 3.49939 23.183 3.5217 23.2588 3.56452C23.3345 3.60733 23.3977 3.66917 23.4422 3.74391L28.4315 12.7478C28.4766 12.8235 28.5005 12.91 28.5007 12.9982C28.5009 13.0863 28.4773 13.1729 28.4325 13.2488Z" fill="#0F0F0F"/>
<path d="M23.8612 19.8757C23.2873 19.3278 22.5242 19.0223 21.7307 19.0228C20.9372 19.0234 20.1746 19.3299 19.6014 19.8787C19.6014 19.8787 18.1288 21.3757 17.8397 21.6853C16.8471 21.7057 15.8609 21.5228 14.9416 21.148C14.0223 20.7732 13.1893 20.2143 12.494 19.5056C11.0953 18.1033 10.2948 16.2134 10.2606 14.2332C10.6229 13.8709 12.121 12.3982 12.1239 12.3953C12.4035 12.1158 12.6252 11.784 12.7765 11.4188C12.9278 11.0536 13.0057 10.6622 13.0057 10.2669C13.0057 9.87156 12.9278 9.48012 12.7765 9.11493C12.6252 8.74973 12.4035 8.41791 12.1239 8.13844L9.37092 5.38551C8.79513 4.83549 8.0295 4.52858 7.23323 4.52858C6.43695 4.52858 5.67132 4.83549 5.09553 5.38551L3.62392 6.85719C1.74107 8.74 1.38072 15.4129 8.98326 23.0164C13.8964 27.9295 18.4208 29.5164 21.5165 29.5164C22.8263 29.6103 24.1227 29.2021 25.1425 28.3748L26.6141 26.9031C26.8949 26.6225 27.1177 26.2893 27.2697 25.9226C27.4217 25.5559 27.4999 25.1628 27.4999 24.7659C27.4999 24.3689 27.4217 23.9759 27.2697 23.6091C27.1177 23.2424 26.8949 22.9093 26.6141 22.6287L23.8612 19.8757ZM25.9071 26.1961L24.4354 27.6677C23.0526 29.0486 16.8485 29.4685 9.69029 22.3093C2.53111 15.1492 2.95006 8.94508 4.33092 7.56422L5.8026 6.09254C6.18229 5.71358 6.69682 5.50074 7.23326 5.50074C7.7697 5.50074 8.28423 5.71358 8.66392 6.09254L11.4169 8.84547C11.7934 9.2219 12.0052 9.73236 12.0057 10.2648C12.0063 10.7972 11.7955 11.3081 11.4198 11.6853C11.4198 11.6853 9.91778 13.1619 9.55357 13.5261C8.97447 14.1052 9.48717 16.0584 9.54771 16.28C9.9483 17.7597 10.7189 19.1131 11.787 20.2127C14.0897 22.5154 17.7762 23.1424 18.4745 22.4461C18.8378 22.0808 20.3114 20.5828 20.3114 20.5828C20.6942 20.217 21.2033 20.013 21.7328 20.013C22.2622 20.013 22.7713 20.217 23.1542 20.5828L25.9071 23.3357C26.2856 23.7154 26.4982 24.2297 26.4982 24.7659C26.4982 25.302 26.2856 25.8163 25.9071 26.1961Z" fill="#0F0F0F"/>
</svg>
