<svg width="32" height="32" viewBox="0 0 32 32" fill="none" xmlns="http://www.w3.org/2000/svg">
<path d="M22.9999 9.88844C23.0656 9.88848 23.1306 9.87557 23.1913 9.85046C23.252 9.82534 23.3071 9.78852 23.3535 9.74208C23.4 9.69564 23.4368 9.64051 23.4619 9.57983C23.487 9.51915 23.4999 9.45411 23.4999 9.38844V7.44215C23.4999 7.30954 23.4472 7.18237 23.3534 7.0886C23.2597 6.99483 23.1325 6.94215 22.9999 6.94215C22.8673 6.94215 22.7401 6.99483 22.6463 7.0886C22.5526 7.18237 22.4999 7.30954 22.4999 7.44215V9.38844C22.4999 9.45411 22.5128 9.51915 22.5379 9.57983C22.563 9.64051 22.5998 9.69564 22.6462 9.74208C22.6927 9.78852 22.7478 9.82534 22.8085 9.85046C22.8692 9.87557 22.9342 9.88848 22.9999 9.88844Z" fill="#0F0F0F"/>
<path d="M22.9999 11.75C23.2761 11.75 23.4999 11.5262 23.4999 11.25C23.4999 10.9739 23.2761 10.75 22.9999 10.75C22.7238 10.75 22.4999 10.9739 22.4999 11.25C22.4999 11.5262 22.7238 11.75 22.9999 11.75Z" fill="#0F0F0F"/>
<path d="M29.3007 12.2537L24.3143 3.25367L24.3085 3.24391C24.176 3.01674 23.9861 2.8284 23.7579 2.69779C23.5296 2.56718 23.2711 2.49889 23.0081 2.49978C22.7451 2.50067 22.487 2.57071 22.2597 2.70286C22.0323 2.83501 21.8437 3.02464 21.7128 3.2527L16.7059 12.2439C16.573 12.4719 16.5026 12.7309 16.5017 12.9947C16.5009 13.2586 16.5696 13.518 16.7011 13.7469C16.8325 13.9757 17.022 14.1658 17.2504 14.298C17.4787 14.4302 17.738 14.4998 18.0018 14.4998H27.9989C28.2619 14.4997 28.5202 14.4306 28.748 14.2993C28.9758 14.1681 29.1651 13.9792 29.2969 13.7517C29.4287 13.5243 29.4985 13.2661 29.4992 13.0032C29.4998 12.7403 29.4314 12.4818 29.3007 12.2537ZM28.4325 13.2488C28.3895 13.3257 28.3265 13.3897 28.2502 13.4338C28.1739 13.478 28.0871 13.5008 27.9989 13.4998H18.0018C17.9137 13.5008 17.8269 13.478 17.7506 13.4338C17.6743 13.3897 17.6113 13.3257 17.5682 13.2488C17.5231 13.1712 17.4998 13.0829 17.5008 12.9931C17.5018 12.9033 17.5272 12.8155 17.5741 12.739L22.5809 3.74781C22.6248 3.67267 22.6875 3.61026 22.7628 3.56676C22.8381 3.52326 22.9235 3.50017 23.0105 3.49978C23.0975 3.49939 23.1831 3.5217 23.2588 3.56452C23.3345 3.60733 23.3978 3.66917 23.4423 3.74391L28.4315 12.7478C28.4766 12.8235 28.5005 12.91 28.5007 12.9982C28.5009 13.0863 28.4773 13.1729 28.4325 13.2488Z" fill="#0F0F0F"/>
<path d="M9.45401 22.4541C16.1998 29.1999 22.1336 28.8664 23.8116 27.1884L24.8488 26.1512C25.3598 25.6391 25.6469 24.9453 25.6469 24.2218C25.6469 23.4984 25.3598 22.8045 24.8488 22.2925L22.3249 19.7686C21.8146 19.2626 21.1245 18.9796 20.4059 18.9818C19.6873 18.984 18.9989 19.2712 18.4917 19.7803L17.1817 21.0903C15.5751 20.8734 14.0934 20.1059 12.9895 18.9186C11.8029 17.8153 11.0342 16.3357 10.8136 14.7305L12.1346 13.4109C12.6335 12.8751 12.9036 12.1658 12.8875 11.434C12.8714 10.7021 12.5703 10.0054 12.0484 9.49208L9.61563 7.05933C9.10359 6.54827 8.40971 6.26125 7.68628 6.26125C6.96284 6.26125 6.26895 6.54827 5.75692 7.05933L4.71971 8.09654C3.04168 9.7745 2.70818 15.7082 9.45401 22.4541ZM6.46399 7.7664C6.7884 7.44272 7.22796 7.26093 7.68624 7.26093C8.14451 7.26093 8.58408 7.44272 8.90849 7.7664L11.3412 10.1992C11.6736 10.5262 11.8678 10.9683 11.8838 11.4342C11.8999 11.9002 11.7365 12.3546 11.4275 12.7037L10.0457 14.0841C9.33933 14.7905 10.3157 17.659 12.2824 19.6256C14.249 21.5923 17.1203 22.5659 17.828 21.8581L19.1988 20.4874C19.5183 20.1656 19.9524 19.9837 20.4058 19.9815C20.8593 19.9793 21.2951 20.157 21.6178 20.4757L24.1417 22.9996C24.4654 23.324 24.6471 23.7636 24.6471 24.2218C24.6471 24.6801 24.4653 25.1197 24.1417 25.4441L23.1045 26.4813C21.8967 27.689 16.4567 28.0426 10.1611 21.747C3.86549 15.4514 4.21904 10.0114 5.42679 8.80361L6.46399 7.7664Z" fill="#0F0F0F"/>
</svg>
