<svg width="32" height="32" viewBox="0 0 32 32" fill="none" xmlns="http://www.w3.org/2000/svg">
<path d="M11.1113 20.3892C17.8571 27.135 23.7909 26.8015 25.4689 25.1235L26.5061 24.0863C27.0171 23.5742 27.3042 22.8804 27.3042 22.1569C27.3042 21.4335 27.0171 20.7396 26.5061 20.2276L23.9822 17.7037C23.4719 17.1977 22.7818 16.9147 22.0632 16.9169C21.3446 16.9191 20.6562 17.2063 20.149 17.7154L18.8391 19.0254C17.2324 18.8085 15.7508 18.041 14.6468 16.8537C13.4602 15.7504 12.6915 14.2708 12.4709 12.6656L13.792 11.346C14.2908 10.8102 14.5609 10.1009 14.5448 9.36905C14.5287 8.63718 14.2276 7.94048 13.7057 7.42718L11.2729 4.99443C10.7609 4.48337 10.067 4.19635 9.34359 4.19635C8.62015 4.19635 7.92626 4.48337 7.41423 4.99443L6.37702 6.03163C4.69899 7.7096 4.36549 13.6433 11.1113 20.3892ZM8.1213 5.7015C8.44571 5.37781 8.88527 5.19603 9.34355 5.19603C9.80182 5.19603 10.2414 5.37781 10.5658 5.7015L12.9985 8.13425C13.3309 8.46129 13.5251 8.90336 13.5411 9.36934C13.5572 9.83531 13.3938 10.2897 13.0848 10.6388L11.703 12.0192C10.9966 12.7256 11.973 15.5941 13.9397 17.5607C15.9063 19.5274 18.7776 20.501 19.4854 19.7932L20.8561 18.4225C21.1756 18.1007 21.6097 17.9188 22.0631 17.9166C22.5166 17.9144 22.9524 18.0921 23.2751 18.4108L25.799 20.9347C26.1227 21.2591 26.3044 21.6987 26.3044 22.1569C26.3044 22.6152 26.1227 23.0548 25.799 23.3792L24.7618 24.4164C23.554 25.6241 18.114 25.9777 11.8184 19.6821C5.5228 13.3865 5.87635 7.94645 7.0841 6.73871L8.1213 5.7015Z" fill="#0F0F0F"/>
</svg>
