<svg width="32" height="32" viewBox="0 0 32 32" fill="none" xmlns="http://www.w3.org/2000/svg">
<path d="M28.8968 21.7533L25.9144 18.7669C25.5684 18.4213 25.1576 18.1473 24.7057 17.9606C24.2537 17.7738 23.7694 17.678 23.2804 17.6786C22.7913 17.6791 22.3072 17.776 21.8557 17.9638C21.4041 18.1515 20.994 18.4265 20.6488 18.7728C20.6488 18.7728 19.3607 20.0841 18.8158 20.6346C16.8518 20.5657 14.9872 19.754 13.5985 18.3636C12.2098 16.9731 11.4006 15.1074 11.3343 13.1433C11.8822 12.5977 13.1927 11.3079 13.1986 11.302C13.8965 10.6033 14.2885 9.65622 14.2885 8.66871C14.2885 7.6812 13.8965 6.73407 13.1986 6.03541L10.2162 3.04901C9.50565 2.36934 8.5603 1.99 7.57703 1.99C6.59377 1.99 5.64841 2.36934 4.93788 3.04901L3.34308 4.64491C1.19108 6.80001 0.682982 14.3451 9.14878 22.8231C13.6976 27.3779 17.7103 29.048 20.2767 29.6465C21.2062 29.8687 22.1579 29.9842 23.1136 29.9907C24.6324 30.0973 26.1336 29.6116 27.3021 28.6354L28.8968 27.04C29.5963 26.3381 29.9891 25.3876 29.9891 24.3967C29.9891 23.4057 29.5963 22.4552 28.8968 21.7533ZM27.4828 25.6233L25.8881 27.22C25.2338 27.8751 23.3412 28.3054 20.7299 27.6962C18.4183 27.1562 14.7777 25.628 10.5629 21.4076C3.03748 13.8709 3.35678 7.46301 4.75718 6.06081L6.35188 4.46491C6.68178 4.14962 7.12055 3.97367 7.57688 3.97367C8.03322 3.97367 8.47198 4.14962 8.80188 4.46491L11.7843 7.45131C12.106 7.77327 12.2872 8.20947 12.2883 8.66459C12.2894 9.11972 12.1103 9.55679 11.7902 9.88031C11.7902 9.88031 10.1602 11.4839 9.76768 11.879C9.60558 12.071 9.48368 12.2937 9.4092 12.5337C9.33471 12.7737 9.30917 13.0262 9.33408 13.2763C9.4617 15.7192 10.4755 18.0319 12.1857 19.781C14.7931 22.3928 19.0744 23.2122 20.0773 22.2041C20.4709 21.81 22.0673 20.1841 22.0685 20.1829C22.3911 19.8607 22.8284 19.6798 23.2843 19.6798C23.7403 19.6798 24.1776 19.8607 24.5002 20.1829L27.4826 23.1692C27.8072 23.4951 27.9895 23.9364 27.9895 24.3964C27.9896 24.8564 27.8074 25.2976 27.4828 25.6236V25.6233Z" fill="#0F0F0F"/>
</svg>
