<svg width="32" height="32" viewBox="0 0 32 32" fill="none" xmlns="http://www.w3.org/2000/svg">
<path d="M10.7578 21.2427C17.7536 28.2385 24.0216 27.7779 25.8225 25.977L26.8597 24.9398C27.4643 24.3339 27.8038 23.5128 27.8038 22.6569C27.8038 21.8009 27.4643 20.9799 26.8597 20.374L24.3358 17.8501C23.7316 17.2505 22.9143 16.9151 22.0632 16.9173C21.2121 16.9195 20.3965 17.2591 19.7955 17.8618L18.6381 19.0192C17.2488 18.7307 15.9801 18.0265 15.0004 17C13.9744 16.0208 13.2693 14.7537 12.9778 13.3658L14.1455 12.1995C14.7366 11.5691 15.0583 10.733 15.0422 9.869C15.0261 9.00503 14.6734 8.18146 14.0593 7.57357L11.6265 5.14082C11.0206 4.53623 10.1996 4.19669 9.34361 4.19669C8.48765 4.19669 7.66664 4.53624 7.06071 5.14082L6.0235 6.17803C4.22255 7.97891 3.76198 14.2468 10.7578 21.2427ZM8.47488 6.555C8.7054 6.32485 9.01783 6.19558 9.34358 6.19558C9.66932 6.19558 9.98176 6.32485 10.2123 6.555L12.645 8.98775C12.8865 9.21936 13.03 9.53465 13.0462 9.86882C13.0624 10.203 12.9499 10.5307 12.732 10.7845L11.3495 12.1656C10.2688 13.2462 11.6762 16.5042 13.5862 18.4142C15.6875 20.5155 18.8432 21.6424 19.839 20.6467L21.2097 19.276C21.4353 19.0478 21.7423 18.9183 22.0632 18.9162C22.3841 18.914 22.6928 19.0392 22.9215 19.2643L25.4455 21.7882C25.6756 22.0187 25.8049 22.3311 25.8049 22.6569C25.8049 22.9826 25.6756 23.295 25.4454 23.5256L24.4082 24.5628C23.3407 25.6303 18.1334 25.7899 12.172 19.8285C6.2106 13.8671 6.37011 8.65978 7.43768 7.59221L8.47488 6.555Z" fill="#0F0F0F"/>
</svg>
