<svg width="32" height="32" viewBox="0 0 32 32" fill="none" xmlns="http://www.w3.org/2000/svg">
<path d="M28.5522 22.1052L25.57 19.1228C24.9651 18.5198 24.1457 18.1815 23.2916 18.182C22.4374 18.1825 21.6184 18.522 21.0143 19.1257C21.0143 19.1257 19.4186 20.7488 19.0925 21.0925C18.0101 21.1102 16.9353 20.9094 15.9323 20.502C14.9294 20.0946 14.019 19.4889 13.2556 18.7214C11.7323 17.184 10.8651 15.1155 10.8366 12.9514C11.2302 12.5569 12.8513 10.9631 12.8542 10.9602C13.1533 10.6614 13.3905 10.3065 13.5524 9.91592C13.7143 9.52533 13.7976 9.10667 13.7976 8.68387C13.7976 8.26106 13.7143 7.8424 13.5524 7.45182C13.3905 7.06123 13.1533 6.70637 12.8542 6.40752L9.8716 3.42552C9.25574 2.83787 8.4372 2.51 7.58595 2.51C6.73471 2.51 5.91617 2.83787 5.3003 3.42552L3.7056 5.01932C2.521 6.20392 2.1782 8.77812 2.8306 11.5776C3.4136 14.0805 5.0464 18.0004 9.5112 22.4663C13.976 26.9322 17.897 28.5642 20.3989 29.1476C21.2849 29.3588 22.1922 29.4682 23.103 29.4738C24.4939 29.5776 25.8722 29.1477 26.9575 28.2716L28.5522 26.6776C28.8525 26.3775 29.0908 26.0211 29.2533 25.6288C29.4158 25.2365 29.4995 24.8161 29.4995 24.3915C29.4995 23.9669 29.4158 23.5464 29.2533 23.1541C29.0908 22.7619 28.8525 22.4055 28.5522 22.1053V22.1052ZM27.8452 25.9705L26.2505 27.5642C25.4751 28.3396 23.437 28.8269 20.6255 28.1736C18.2505 27.6199 14.5171 26.0584 10.2182 21.7595C2.4409 13.9812 2.9077 7.23122 4.4126 5.72632L6.0073 4.13262C6.43261 3.72666 6.99796 3.50016 7.5859 3.50016C8.17385 3.50016 8.7392 3.72666 9.1645 4.13262L12.147 7.11502C12.5629 7.5306 12.7969 8.0943 12.7974 8.68227C12.798 9.27023 12.5651 9.83437 12.1499 10.2507C12.1499 10.2507 10.5229 11.8507 10.1294 12.2449C10.0073 12.3669 9.8442 12.6082 9.8432 13.2859C9.96676 15.5946 10.9286 17.7787 12.5483 19.4285C15.0288 21.9085 18.9897 22.5916 19.7329 21.8485C20.1265 21.4549 21.7241 19.8299 21.7241 19.8299C22.1407 19.4144 22.7051 19.181 23.2935 19.181C23.8818 19.181 24.4462 19.4144 24.8628 19.8299L27.8452 22.8124C28.0526 23.0198 28.2172 23.2659 28.3294 23.5369C28.4417 23.8078 28.4995 24.0982 28.4995 24.3915C28.4995 24.6848 28.4417 24.9752 28.3294 25.2462C28.2172 25.5171 28.0526 25.7633 27.8452 25.9706V25.9705Z" fill="#0F0F0F"/>
</svg>
