<svg width="32" height="32" viewBox="0 0 32 32" fill="none" xmlns="http://www.w3.org/2000/svg">
<path d="M27.8062 21.7444L25.0003 18.9382C24.431 18.3711 23.6601 18.0528 22.8565 18.0534C22.0529 18.0539 21.2824 18.3731 20.7138 18.9409C20.7138 18.9409 19.2124 20.4681 18.9056 20.7915C17.8872 20.8084 16.8758 20.6195 15.9321 20.2362C14.9884 19.8528 14.1318 19.2829 13.4137 18.5605C11.9804 17.114 11.1645 15.1677 11.1376 13.1315C11.508 12.7604 13.0333 11.2608 13.036 11.258C13.3174 10.9768 13.5406 10.643 13.6929 10.2754C13.8453 9.90794 13.9236 9.51403 13.9236 9.11621C13.9236 8.7184 13.8453 8.32448 13.6929 7.95697C13.5406 7.58947 13.3174 7.25558 13.036 6.97439L10.2297 4.16863C9.6502 3.61571 8.88003 3.30722 8.0791 3.30722C7.27816 3.30722 6.50799 3.61571 5.92853 4.16863L4.42807 5.66824C3.31348 6.78283 2.99094 9.20489 3.60479 11.8389C4.15333 14.1939 5.68963 17.8822 9.89056 22.084C14.0915 26.2859 17.7808 27.8216 20.1348 28.3706C20.9685 28.5692 21.8221 28.6722 22.6791 28.6775C23.9878 28.7751 25.2846 28.3706 26.3058 27.5463L27.8062 26.0465C28.0888 25.7641 28.313 25.4288 28.4659 25.0597C28.6188 24.6906 28.6975 24.295 28.6975 23.8955C28.6975 23.496 28.6188 23.1004 28.4659 22.7313C28.313 22.3622 28.0888 22.0269 27.8062 21.7445V21.7444Z" fill="#0F0F0F"/>
</svg>
