<svg width="32" height="32" viewBox="0 0 32 32" fill="none" xmlns="http://www.w3.org/2000/svg">
<path d="M28.5309 4.53C28.6012 4.46051 28.657 4.3778 28.6952 4.28665C28.7334 4.1955 28.7532 4.09769 28.7535 3.99885C28.7538 3.90001 28.7345 3.80209 28.6968 3.71073C28.6591 3.61936 28.6038 3.53634 28.5339 3.46645C28.464 3.39657 28.381 3.34118 28.2896 3.30349C28.1982 3.2658 28.1003 3.24654 28.0015 3.24682C27.9026 3.2471 27.8048 3.26692 27.7137 3.30513C27.6225 3.34335 27.5398 3.3992 27.4703 3.46949L12.7614 18.1784C11.9868 17.0354 11.5613 15.6918 11.5367 14.3113C12.0152 13.8367 13.2975 12.5769 13.3014 12.572C13.6042 12.2693 13.8444 11.91 14.0082 11.5145C14.1721 11.1189 14.2565 10.695 14.2565 10.2669C14.2565 9.83872 14.1721 9.41478 14.0082 9.01926C13.8444 8.62373 13.6042 8.26436 13.3014 7.96168L10.5484 5.20875C9.92508 4.61359 9.09635 4.2815 8.23448 4.2815C7.37262 4.2815 6.54389 4.61359 5.92052 5.20875L4.44884 6.68043C3.26912 7.86012 2.92931 10.283 3.56312 13.0037C4.49584 16.4478 6.30027 19.5935 8.80238 22.1375L3.47038 27.4695C3.39985 27.5389 3.34377 27.6216 3.30536 27.7128C3.26695 27.804 3.24697 27.9019 3.24659 28.0009C3.2462 28.0999 3.26541 28.198 3.3031 28.2895C3.3408 28.381 3.39623 28.4641 3.46622 28.5341C3.5362 28.6041 3.61934 28.6595 3.71085 28.6972C3.80236 28.7349 3.90043 28.7541 3.9994 28.7538C4.09837 28.7534 4.19629 28.7334 4.2875 28.695C4.37872 28.6566 4.46143 28.6005 4.53087 28.53L28.5309 4.53ZM5.02404 12.6638C4.44786 10.1902 4.87169 8.37867 5.50939 7.74098L6.98112 6.2693C7.31873 5.94681 7.76765 5.76686 8.23453 5.76686C8.70142 5.76686 9.15034 5.94681 9.48795 6.2693L12.2409 9.02223C12.5702 9.35146 12.7556 9.79776 12.7565 10.2634C12.7574 10.729 12.5738 11.1761 12.2458 11.5066C12.2458 11.5066 10.7419 12.9851 10.3776 13.3494C9.64573 14.0812 10.1147 16.9894 11.6812 19.2587L9.86376 21.0761C7.5582 18.7316 5.89196 15.8354 5.02404 12.6638Z" fill="#0F0F0F"/>
<path d="M25.0387 19.699C24.4176 19.1043 23.5907 18.7726 22.7308 18.7733C21.8709 18.7741 21.0445 19.1071 20.4244 19.7029C20.4244 19.7029 19.1627 20.9851 18.6881 21.4636C17.3388 21.4362 16.0247 21.0284 14.897 20.2871L13.8083 21.3757C14.6791 21.9664 15.6402 22.4114 16.6539 22.6931C17.1939 22.8406 19.0025 23.2703 19.6519 22.6218C20.0152 22.2576 21.4888 20.7595 21.4888 20.7595C21.8244 20.4398 22.27 20.2615 22.7335 20.2615C23.1969 20.2615 23.6426 20.4398 23.9781 20.7595L26.7311 23.5125C27.0632 23.8451 27.2497 24.2959 27.2497 24.7659C27.2497 25.2359 27.0632 25.6867 26.7311 26.0193L25.2594 27.491C24.0008 28.7496 18.5329 29.115 11.9907 23.1934L10.927 24.2571C15.4494 28.3758 19.5925 29.7517 22.5211 29.7517C23.8939 29.8491 25.2522 29.4199 26.3199 28.5515L27.7916 27.0799C28.4046 26.4658 28.7489 25.6336 28.7489 24.7659C28.7489 23.8982 28.4046 23.066 27.7916 22.4519L25.0387 19.699Z" fill="#0F0F0F"/>
</svg>
