<svg width="32" height="32" viewBox="0 0 32 32" fill="none" xmlns="http://www.w3.org/2000/svg">
<path d="M26.6151 22.6287L23.8622 19.8757C23.2883 19.3278 22.5252 19.0223 21.7317 19.0228C20.9382 19.0234 20.1755 19.3299 19.6024 19.8787C19.6024 19.8787 18.1297 21.3757 17.8407 21.6853C16.8481 21.7058 15.8618 21.5229 14.9425 21.1481C14.0232 20.7733 13.1903 20.2143 12.495 19.5056C11.0963 18.1033 10.2958 16.2134 10.2616 14.2332C10.6239 13.8709 12.1219 12.3982 12.1249 12.3953C12.6882 11.8302 13.0045 11.0648 13.0045 10.2669C13.0045 9.46894 12.6882 8.70355 12.1249 8.13844L9.37193 5.38551C8.79614 4.83549 8.03051 4.52858 7.23423 4.52858C6.43796 4.52858 5.67233 4.83549 5.09654 5.38551L3.62487 6.85719C1.74206 8.74 1.38171 15.4128 8.98425 23.0164C13.8973 27.9295 18.4217 29.5164 21.5174 29.5164C22.8273 29.6103 24.1237 29.2021 25.1434 28.3748L26.6151 26.9031C27.1808 26.3356 27.4984 25.5671 27.4984 24.7659C27.4984 23.9647 27.1808 23.1961 26.6151 22.6287Z" fill="#0F0F0F"/>
<path d="M29.3006 12.2537L24.3143 3.25172L24.3085 3.242C24.176 3.01482 23.9861 2.82648 23.7579 2.69587C23.5296 2.56526 23.271 2.49697 23.0081 2.49786C22.7451 2.49875 22.487 2.56878 22.2596 2.70094C22.0323 2.83309 21.8437 3.02271 21.7128 3.25078L16.7049 12.2439C16.572 12.4719 16.5016 12.7309 16.5007 12.9947C16.4999 13.2586 16.5686 13.518 16.7001 13.7469C16.8315 13.9757 17.021 14.1658 17.2494 14.298C17.4777 14.4301 17.7369 14.4998 18.0008 14.4998H27.9988C28.2617 14.4997 28.52 14.4306 28.7478 14.2993C28.9756 14.1681 29.1649 13.9792 29.2968 13.7517C29.4286 13.5243 29.4984 13.2661 29.499 13.0032C29.4997 12.7403 29.4313 12.4818 29.3006 12.2537ZM22.2499 7.44215C22.2499 7.24324 22.3289 7.05247 22.4695 6.91182C22.6102 6.77117 22.801 6.69215 22.9999 6.69215C23.1988 6.69215 23.3895 6.77117 23.5302 6.91182C23.6709 7.05247 23.7499 7.24324 23.7499 7.44215V8.74977C23.7499 8.94868 23.6709 9.13945 23.5302 9.2801C23.3895 9.42075 23.1988 9.49977 22.9999 9.49977C22.801 9.49977 22.6102 9.42075 22.4695 9.2801C22.3289 9.13945 22.2499 8.94868 22.2499 8.74977V7.44215ZM22.9999 12C22.8516 12 22.7066 11.956 22.5833 11.8736C22.4599 11.7912 22.3638 11.6741 22.307 11.537C22.2503 11.4 22.2354 11.2492 22.2643 11.1037C22.2933 10.9582 22.3647 10.8246 22.4696 10.7197C22.5745 10.6148 22.7081 10.5433 22.8536 10.5144C22.9991 10.4855 23.1499 10.5003 23.2869 10.5571C23.424 10.6139 23.5411 10.71 23.6235 10.8333C23.7059 10.9567 23.7499 11.1017 23.7499 11.25C23.7499 11.4489 23.6709 11.6397 23.5303 11.7803C23.3896 11.921 23.1988 12 22.9999 12Z" fill="#0F0F0F"/>
</svg>
