<svg width="32" height="32" viewBox="0 0 32 32" fill="none" xmlns="http://www.w3.org/2000/svg">
<path d="M22.2501 7.44215V8.74977C22.2501 8.94868 22.3291 9.13945 22.4697 9.2801C22.6104 9.42075 22.8011 9.49977 23.0001 9.49977C23.199 9.49977 23.3897 9.42075 23.5304 9.2801C23.671 9.13945 23.7501 8.94868 23.7501 8.74977V7.44215C23.7501 7.24324 23.671 7.05247 23.5304 6.91182C23.3897 6.77117 23.199 6.69215 23.0001 6.69215C22.8011 6.69215 22.6104 6.77117 22.4697 6.91182C22.3291 7.05247 22.2501 7.24324 22.2501 7.44215Z" fill="#0F0F0F"/>
<path d="M23.0001 12C23.4143 12 23.7501 11.6642 23.7501 11.25C23.7501 10.8358 23.4143 10.5 23.0001 10.5C22.5859 10.5 22.2501 10.8358 22.2501 11.25C22.2501 11.6642 22.5859 12 23.0001 12Z" fill="#0F0F0F"/>
<path d="M29.7383 12.0115L24.752 3.01149L24.7403 2.992C24.5633 2.6886 24.3096 2.43717 24.0046 2.26299C23.6995 2.08882 23.354 1.99806 23.0028 1.99984C22.6516 2.00162 22.307 2.09588 22.0038 2.27314C21.7005 2.4504 21.4493 2.70439 21.2754 3.00957L16.2734 11.992C16.0964 12.296 16.0026 12.6414 16.0016 12.9932C16.0005 13.345 16.0923 13.6909 16.2676 13.9959C16.4429 14.301 16.6955 14.5544 17 14.7306C17.3045 14.9069 17.6501 14.9997 18.002 14.9998H27.9991C28.349 14.9998 28.6928 14.908 28.9962 14.7335C29.2995 14.5591 29.5518 14.3081 29.7278 14.0057C29.9039 13.7033 29.9975 13.3599 29.9993 13.01C30.0012 12.6601 29.9112 12.3158 29.7383 12.0115ZM18.0118 12.9822L23.0108 3.99586L27.9991 12.9998L18.0118 12.9822Z" fill="#0F0F0F"/>
<path d="M24.2117 19.5155C23.8849 19.1893 23.4971 18.9307 23.0703 18.7544C22.6435 18.5782 22.1862 18.4877 21.7244 18.4883C21.2627 18.4888 20.8056 18.5803 20.3792 18.7576C19.9528 18.9349 19.5656 19.1944 19.2395 19.5214C19.2395 19.5214 18.0827 20.7003 17.5678 21.2198C15.786 21.1462 14.0972 20.4048 12.8371 19.143C11.577 17.8812 10.8378 16.1914 10.7666 14.4095C11.2864 13.8939 12.4627 12.7356 12.4686 12.7297C13.1274 12.0699 13.4974 11.1756 13.4974 10.2433C13.4974 9.31086 13.1274 8.41658 12.4686 7.75679L9.71426 4.99879C9.04318 4.35737 8.15061 3.99942 7.2223 3.99942C6.29398 3.99942 5.40142 4.35737 4.73034 4.99879L3.25794 6.4732C1.25012 8.48272 0.762556 15.5033 8.61901 23.3702C13.6186 28.3774 18.2762 29.9995 21.52 29.9995C22.9566 30.0998 24.3775 29.6493 25.4937 28.7394L26.966 27.265C27.6273 26.603 27.9988 25.7055 27.9988 24.7697C27.9988 23.834 27.6273 22.9365 26.966 22.2745L24.2117 19.5155ZM25.5513 25.8483L24.0789 27.2855C22.7999 28.5632 16.9435 28.8352 10.0338 21.9164C3.12312 14.9965 3.39473 9.16952 4.67271 7.88984L6.14512 6.44743C6.28643 6.30571 6.45432 6.19327 6.63917 6.11655C6.82401 6.03982 7.02218 6.00033 7.22232 6.00033C7.42245 6.00033 7.62062 6.03982 7.80547 6.11655C7.99031 6.19327 8.1582 6.30571 8.29952 6.44743L11.0538 9.17343C11.3362 9.45632 11.4953 9.83939 11.4964 10.2391C11.4975 10.6388 11.3405 11.0228 11.0597 11.3072C11.0597 11.3072 9.55405 12.7894 9.18868 13.1553C7.8853 14.4643 9.65668 18.7915 11.4242 20.5614C12.5857 21.6923 14.0161 22.5088 15.5805 22.9339C16.4911 23.1833 18.1228 23.4974 18.8214 22.7989C19.1849 22.4349 20.6602 20.9332 20.6602 20.9322C20.9438 20.6493 21.328 20.4904 21.7286 20.4904C22.1292 20.4904 22.5134 20.6493 22.797 20.9322L25.5513 23.6911C25.8372 23.9773 25.9978 24.3652 25.9978 24.7697C25.9978 25.1742 25.8372 25.5622 25.5513 25.8483Z" fill="#0F0F0F"/>
</svg>
