<svg width="32" height="32" viewBox="0 0 32 32" fill="none" xmlns="http://www.w3.org/2000/svg">
<path d="M22.3316 9.42674C21.8026 8.30705 20.4674 7.82476 19.3445 8.3496C19.0298 8.49668 18.7651 8.70728 18.5585 8.95899C18.5347 8.95037 18.5105 8.94294 18.4859 8.93675C17.8445 8.46786 16.974 8.35376 16.2034 8.71391C15.8887 8.861 15.624 9.0716 15.4174 9.32331C15.3935 9.31466 15.3692 9.30721 15.3445 9.30101C14.7032 8.83219 13.8327 8.71813 13.0622 9.07826C12.8239 9.1896 12.6144 9.33734 12.437 9.51176L11.0067 6.45156L11.0051 6.44827C10.361 5.0747 8.72575 4.48209 7.35094 5.12467C5.97997 5.76545 5.38523 7.39273 6.01715 8.76555C6.01934 8.7705 6.02159 8.77545 6.0239 8.78039L10.8123 19.0253C10.6233 18.9808 10.425 18.9393 10.2203 18.9036C9.19702 18.725 7.89565 18.668 6.75505 19.2011C5.80032 19.6473 5.31923 20.5364 5.2656 21.3761C5.21385 22.1864 5.57171 23.1426 6.51637 23.4855C6.83448 23.6009 7.2978 23.7579 7.80775 23.9308C8.15831 24.0496 8.53097 24.1758 8.89357 24.3012C9.81635 24.6203 10.6653 24.9305 11.0928 25.1417L11.1064 25.1482C11.5827 25.3718 12.0707 25.6141 12.566 25.8601C13.8307 26.4882 15.143 27.1398 16.4295 27.5626C18.2673 28.1664 20.2095 28.3663 22.1953 27.4381C26.0728 25.6258 27.747 21.0132 25.9347 17.1356L22.3356 9.43522C22.3343 9.43238 22.3329 9.42955 22.3316 9.42674ZM7.98607 6.48357C8.61149 6.19125 9.35546 6.46128 9.64777 7.0867L13.2469 14.7871C13.4223 15.1624 13.8686 15.3244 14.2439 15.149C14.6191 14.9736 14.7812 14.5272 14.6058 14.152L13.3307 11.424C13.163 11.0509 13.3254 10.611 13.6973 10.4372C14.0725 10.2618 14.5189 10.4238 14.6943 10.799L16.388 14.4228C16.5634 14.798 17.0098 14.96 17.385 14.7846C17.7603 14.6093 17.9223 14.1629 17.7469 13.7876L16.4766 11.0698C16.3013 10.6946 16.4633 10.2482 16.8385 10.0728C17.2099 9.89922 17.651 10.0562 17.8301 10.4232L19.3174 13.6055C19.4928 13.9807 19.9392 14.1427 20.3144 13.9674C20.6897 13.792 20.8517 13.3456 20.6763 12.9703L19.6178 10.7055C19.4424 10.3303 19.6044 9.88388 19.9796 9.70849C20.3549 9.5331 20.8013 9.69511 20.9767 10.0704L24.5758 17.7708C26.0374 20.8979 24.6872 24.6177 21.5601 26.0792C20.0436 26.7881 18.5269 26.6728 16.8978 26.1375C15.7196 25.7504 14.5616 25.1751 13.3381 24.5674C12.8226 24.3113 12.2954 24.0494 11.7502 23.7934C11.2196 23.5324 10.2783 23.1928 9.38373 22.8835C8.99545 22.7493 8.61256 22.6196 8.26041 22.5003C7.76818 22.3336 7.33516 22.1869 7.02819 22.0755C6.9094 22.0324 6.738 21.8561 6.76255 21.4717C6.78523 21.1167 6.98604 20.7489 7.39018 20.56C8.11722 20.2201 9.05113 20.2222 9.96241 20.3812C10.8117 20.5295 11.5395 20.7947 11.8983 20.9254L11.952 20.9449C12.2371 21.0484 12.5565 20.97 12.7613 20.7461C12.966 20.5223 13.0158 20.1972 12.8873 19.9224L7.38294 8.14526C7.09063 7.51985 7.36066 6.77588 7.98607 6.48357Z" fill="black"/>
</svg>
