<svg width="32" height="32" viewBox="0 0 32 32" fill="none" xmlns="http://www.w3.org/2000/svg">
<path d="M7.14305 11.3573C6.5378 12.512 6.16086 13.7803 6.0413 15.0918C3.73851 15.539 2 17.5665 2 20C2 22.7614 4.23858 25 7 25C7.55228 25 8 24.5523 8 24V16C8 14.9092 8.22277 13.8414 8.64311 12.8574L7.14305 11.3573ZM6 17.1707V22.8293C4.83481 22.4175 4 21.3062 4 20C4 18.6938 4.83481 17.5825 6 17.1707Z" fill="black"/>
<path d="M26.0345 27.4487L27.2929 28.7071C27.6834 29.0976 28.3166 29.0976 28.7071 28.7071C29.0976 28.3166 29.0976 27.6834 28.7071 27.2929L26.2553 24.8411C28.4092 24.2842 30 22.3279 30 20C30 17.5665 28.2615 15.539 25.9587 15.0918C25.7473 12.7727 24.7311 10.589 23.0711 8.92893C21.1957 7.05357 18.6522 6 16 6C13.6833 6 11.4495 6.80391 9.67146 8.25725L4.70711 3.29289C4.31658 2.90237 3.68342 2.90237 3.29289 3.29289C2.95088 3.63491 2.90839 4.16303 3.16544 4.55128L25.9071 27.2929C25.9556 27.3414 25.9981 27.3937 26.0345 27.4487ZM24 22.5858L11.0946 9.68039C12.4903 8.59697 14.2144 8 16 8C18.1217 8 20.1566 8.84285 21.6568 10.3431C23.1571 11.8434 24 13.8783 24 16V22.5858ZM28 20C28 21.3062 27.1652 22.4175 26 22.8293V17.1707C27.1652 17.5825 28 18.6938 28 20Z" fill="black"/>
</svg>
