<svg width="32" height="32" viewBox="0 0 32 32" fill="none" xmlns="http://www.w3.org/2000/svg">
<path d="M29.7505 15.0083C29.7417 13.8569 29.3159 12.7477 28.5519 11.8863C27.7879 11.0248 26.7375 10.4695 25.5954 10.3232C25.2022 8.06429 24.025 6.01637 22.271 4.53966C20.5169 3.06295 18.2984 2.25202 16.0055 2.24952C13.7126 2.24702 11.4923 3.05311 9.735 4.52599C7.97775 5.99888 6.79613 8.04423 6.39799 10.3023C5.20009 10.4547 4.1053 11.0578 3.33647 11.989C2.56765 12.9202 2.18259 14.1093 2.25969 15.3144C2.33679 16.5195 2.87026 17.6499 3.75148 18.4755C4.6327 19.3011 5.79544 19.7599 7.00299 19.7583C7.10164 19.7583 7.19932 19.7388 7.29044 19.701C7.38155 19.6632 7.46431 19.6077 7.53397 19.5379C7.60364 19.468 7.65884 19.3851 7.69642 19.2939C7.734 19.2027 7.75323 19.105 7.75299 19.0063L7.75006 11.9995C7.75006 9.81145 8.61925 7.71303 10.1664 6.16586C11.7136 4.61868 13.812 3.74949 16.0001 3.74949C18.1881 3.74949 20.2865 4.61868 21.8337 6.16586C23.3809 7.71303 24.2501 9.81145 24.2501 11.9995V17.9995C24.2476 19.7505 23.6891 21.4554 22.6549 22.8684C21.6208 24.2814 20.1646 25.3294 18.4963 25.8612C18.2237 25.2541 17.7409 24.7661 17.1368 24.4869C16.5327 24.2078 15.848 24.1565 15.2091 24.3424C14.5701 24.5283 14.0198 24.939 13.6598 25.4987C13.2998 26.0584 13.1542 26.7294 13.25 27.3879C13.3457 28.0465 13.6763 28.6483 14.1808 29.0823C14.6853 29.5163 15.3297 29.7532 15.9952 29.7495C16.6607 29.7458 17.3024 29.5016 17.802 29.062C18.3016 28.6224 18.6255 28.017 18.7139 27.3574C20.4629 26.8471 22.0346 25.8583 23.2517 24.5025C24.4688 23.1466 25.2828 21.4777 25.602 19.6839C26.7417 19.5372 27.7897 18.9829 28.5523 18.1234C29.315 17.2639 29.7406 16.1574 29.7505 15.0083ZM6.25053 18.1704C5.53884 18.0029 4.90463 17.5998 4.45074 17.0266C3.99685 16.4534 3.74991 15.7437 3.74997 15.0125C3.75003 14.2814 3.99708 13.5717 4.45105 12.9986C4.90503 12.4254 5.5393 12.0224 6.25102 11.855L6.25053 18.1704ZM16 28.2495C15.7528 28.2495 15.5111 28.1762 15.3056 28.0389C15.1 27.9015 14.9398 27.7063 14.8452 27.4779C14.7506 27.2495 14.7258 26.9982 14.7741 26.7557C14.8223 26.5132 14.9413 26.2905 15.1162 26.1157C15.291 25.9408 15.5137 25.8218 15.7562 25.7736C15.9987 25.7253 16.25 25.7501 16.4784 25.8447C16.7068 25.9393 16.902 26.0995 17.0394 26.3051C17.1767 26.5106 17.25 26.7523 17.25 26.9995C17.2497 27.331 17.1179 27.6487 16.8836 27.8831C16.6492 28.1174 16.3315 28.2492 16 28.2495ZM25.744 18.1425C25.7447 18.0945 25.7438 11.9101 25.7432 11.8647C26.4551 12.026 27.091 12.4245 27.5466 12.9948C28.0022 13.5651 28.2504 14.2733 28.2505 15.0033C28.2506 15.7332 28.0026 16.4415 27.5471 17.0119C27.0917 17.5823 26.4559 17.981 25.744 18.1425Z" fill="#0F0F0F"/>
</svg>
