<svg width="32" height="32" viewBox="0 0 32 32" fill="none" xmlns="http://www.w3.org/2000/svg">
<path d="M22.9996 9.49989C23.1985 9.49984 23.3892 9.42081 23.5298 9.28017C23.6705 9.13952 23.7495 8.94879 23.7496 8.74989V7.44228C23.7496 7.24337 23.6705 7.0526 23.5299 6.91195C23.3892 6.7713 23.1985 6.69228 22.9996 6.69228C22.8007 6.69228 22.6099 6.7713 22.4692 6.91195C22.3286 7.0526 22.2496 7.24337 22.2496 7.44228V8.74989C22.2496 8.94879 22.3286 9.13952 22.4693 9.28017C22.6099 9.42081 22.8007 9.49984 22.9996 9.49989Z" fill="#0F0F0F"/>
<path d="M22.9999 12C23.4141 12 23.7499 11.6642 23.7499 11.25C23.7499 10.8357 23.4141 10.5 22.9999 10.5C22.5857 10.5 22.2499 10.8357 22.2499 11.25C22.2499 11.6642 22.5857 12 22.9999 12Z" fill="#0F0F0F"/>
<path d="M29.5191 12.1327L24.5328 3.13271L24.524 3.11806C24.3713 2.85301 24.1512 2.63307 23.886 2.48059C23.6209 2.32811 23.3201 2.24852 23.0142 2.24989C22.7056 2.24886 22.4012 2.32988 22.1342 2.48466C21.8672 2.63944 21.6462 2.86242 21.4937 3.13075L16.4888 12.1181C16.3338 12.3841 16.2518 12.6863 16.2509 12.9942C16.25 13.302 16.3303 13.6047 16.4837 13.8716C16.6371 14.1385 16.8582 14.3603 17.1247 14.5145C17.3912 14.6687 17.6936 14.7499 18.0015 14.7499H27.9995C28.3059 14.7498 28.6068 14.6692 28.8723 14.5163C29.1378 14.3634 29.3585 14.1435 29.5123 13.8785C29.6661 13.6136 29.7477 13.3129 29.7489 13.0065C29.7501 12.7001 29.6709 12.3988 29.5191 12.1327ZM28.2154 13.1249C28.1944 13.1636 28.1631 13.1957 28.1251 13.2178C28.087 13.2398 28.0436 13.2509 27.9996 13.2499H18.0016C17.9574 13.2508 17.9138 13.2395 17.8755 13.2172C17.8373 13.195 17.8059 13.1627 17.7848 13.1239C17.7615 13.0837 17.7499 13.0378 17.7512 12.9914C17.7526 12.945 17.7669 12.8999 17.7926 12.8612L22.7965 3.87486C22.8182 3.83735 22.8492 3.80612 22.8866 3.78421C22.9239 3.7623 22.9664 3.75047 23.0097 3.74988C23.053 3.74929 23.0957 3.75996 23.1337 3.78084C23.1716 3.80173 23.2035 3.83211 23.2262 3.86901L28.2145 12.8739C28.2378 12.9116 28.2502 12.955 28.2504 12.9993C28.2506 13.0436 28.2384 13.0871 28.2154 13.1249Z" fill="#0F0F0F"/>
<path d="M15.9996 3.74989C16.3062 3.74964 16.6127 3.76627 16.9176 3.7997C17.0158 3.81267 17.1156 3.80562 17.211 3.77899C17.3064 3.75236 17.3954 3.70669 17.4727 3.64473C17.55 3.58278 17.6139 3.50582 17.6607 3.41849C17.7074 3.33117 17.736 3.23528 17.7447 3.13661C17.7557 3.03873 17.7472 2.93965 17.7198 2.84505C17.6924 2.75045 17.6465 2.66219 17.5849 2.58535C17.5233 2.5085 17.4471 2.44457 17.3608 2.39723C17.2744 2.34988 17.1795 2.32006 17.0816 2.30946C16.7223 2.26985 16.3611 2.24997 15.9996 2.24989C13.709 2.25285 11.4923 3.0609 9.73717 4.53275C7.98202 6.00461 6.80009 8.04659 6.39806 10.3017C5.2002 10.454 4.10542 11.0571 3.33658 11.9883C2.56774 12.9194 2.18264 14.1085 2.25968 15.3136C2.33671 16.5186 2.87009 17.649 3.75123 18.4747C4.63237 19.3003 5.79504 19.7591 7.00255 19.7577C7.10121 19.7577 7.19888 19.7382 7.29 19.7004C7.38111 19.6625 7.46387 19.6071 7.53353 19.5373C7.6032 19.4674 7.6584 19.3845 7.69598 19.2933C7.73357 19.2021 7.75279 19.1044 7.75255 19.0057L7.74962 11.9999C7.75219 9.81262 8.6222 7.7157 10.1688 6.16909C11.7154 4.62248 13.8123 3.75246 15.9996 3.74989ZM6.24956 18.1698C5.53795 18.0021 4.90384 17.599 4.45006 17.0258C3.99628 16.4525 3.74943 15.7428 3.74955 15.0117C3.74967 14.2806 3.99674 13.571 4.4507 12.9979C4.90466 12.4248 5.5389 12.0219 6.25056 11.8544C6.24956 11.9032 6.24956 18.1698 6.24956 18.1698Z" fill="#0F0F0F"/>
<path d="M25.0269 18.2548C24.8293 18.233 24.6312 18.2907 24.4761 18.415C24.3209 18.5394 24.2216 18.7203 24.1998 18.9179C24.0246 20.5036 23.392 22.0042 22.379 23.2367C21.3661 24.4693 20.0165 25.3806 18.4947 25.8596C18.2217 25.2536 17.7389 24.7665 17.1353 24.4881C16.5317 24.2097 15.8478 24.1588 15.2096 24.3446C14.5714 24.5304 14.0217 24.9404 13.6618 25.4993C13.302 26.0582 13.1561 26.7283 13.251 27.3862C13.346 28.0441 13.6753 28.6456 14.1785 29.0799C14.6818 29.5142 15.3249 29.7522 15.9896 29.7499C16.6544 29.7477 17.2959 29.5055 17.7962 29.0678C18.2965 28.6301 18.6218 28.0264 18.7124 27.3679C20.5658 26.834 22.2188 25.7613 23.4612 24.2859C24.7036 22.8106 25.4794 20.9992 25.69 19.0819C25.7009 18.9841 25.6924 18.885 25.6649 18.7904C25.6375 18.6959 25.5917 18.6076 25.5301 18.5308C25.4685 18.454 25.3923 18.39 25.306 18.3427C25.2197 18.2953 25.1248 18.2654 25.0269 18.2548ZM15.9996 28.2499C15.7524 28.2499 15.5107 28.1766 15.3051 28.0392C15.0996 27.9019 14.9394 27.7067 14.8447 27.4782C14.7501 27.2498 14.7254 26.9985 14.7736 26.756C14.8218 26.5136 14.9409 26.2908 15.1157 26.116C15.2905 25.9412 15.5133 25.8221 15.7557 25.7739C15.9982 25.7257 16.2495 25.7504 16.4779 25.845C16.7064 25.9397 16.9016 26.0999 17.0389 26.3054C17.1763 26.511 17.2496 26.7527 17.2496 26.9999C17.2493 27.3313 17.1175 27.6491 16.8831 27.8834C16.6488 28.1178 16.331 28.2496 15.9996 28.2499Z" fill="#0F0F0F"/>
</svg>
