<svg width="32" height="32" viewBox="0 0 32 32" fill="none" xmlns="http://www.w3.org/2000/svg">
<path d="M24.2337 23.1728C24.9145 22.111 25.3794 20.9255 25.6018 19.6839C26.7463 19.5456 27.8005 18.9927 28.565 18.1297C29.3294 17.2667 29.7511 16.1535 29.7503 15.0006C29.7495 13.8478 29.3262 12.7352 28.5606 11.8732C27.7949 11.0113 26.7399 10.4599 25.5952 10.3232C25.261 8.38911 24.3498 6.60129 22.9811 5.1945C21.6124 3.78772 19.8502 2.82774 17.926 2.44065C16.0018 2.05355 14.0055 2.25742 12.1993 3.02549C10.3931 3.79357 8.86134 5.08993 7.80526 6.74435L4.53017 3.46927C4.46063 3.39922 4.37794 3.34358 4.28685 3.30556C4.19575 3.26754 4.09805 3.24787 3.99934 3.24769C3.90063 3.24751 3.80285 3.26682 3.71162 3.30451C3.62039 3.3422 3.5375 3.39754 3.4677 3.46734C3.3979 3.53713 3.34257 3.62003 3.30488 3.71126C3.26718 3.80249 3.24787 3.90026 3.24805 3.99897C3.24823 4.09769 3.2679 4.19539 3.30592 4.28648C3.34395 4.37758 3.39958 4.46027 3.46963 4.52981L27.4696 28.5298C27.5392 28.5999 27.6219 28.6555 27.713 28.6935C27.8041 28.7315 27.9018 28.7512 28.0005 28.7514C28.0992 28.7516 28.197 28.7323 28.2882 28.6946C28.3794 28.6569 28.4623 28.6015 28.5321 28.5317C28.6019 28.4619 28.6572 28.3791 28.6949 28.2878C28.7326 28.1966 28.7519 28.0988 28.7518 28.0001C28.7516 27.9014 28.7319 27.8037 28.6939 27.7126C28.6559 27.6215 28.6002 27.5388 28.5302 27.4693L24.2337 23.1728ZM28.2503 15.0083C28.2432 15.7358 27.9924 16.4399 27.5381 17.008C27.0837 17.5762 26.452 17.9756 25.7439 18.1425C25.7446 18.0945 25.7437 11.9101 25.743 11.8647C26.4523 12.0328 27.0848 12.4339 27.5393 13.0038C27.9938 13.5736 28.2442 14.2794 28.2503 15.0083ZM8.90554 7.84463C9.81549 6.2784 11.2168 5.05616 12.8921 4.36746C14.5675 3.67875 16.4232 3.56207 18.1717 4.0355C19.9201 4.50894 21.4634 5.54603 22.5624 6.98595C23.6613 8.42588 24.2545 10.1882 24.2498 11.9995V17.9995C24.2486 19.4339 23.8659 20.8422 23.1408 22.0799L8.90554 7.84463Z" fill="#0F0F0F"/>
<path d="M6.3989 10.294C5.20121 10.4461 4.10647 11.0488 3.33747 11.9796C2.56848 12.9103 2.18303 14.0991 2.25955 15.304C2.33608 16.5089 2.86883 17.6393 3.7494 18.4653C4.62996 19.2912 5.79216 19.7507 6.99947 19.75C7.19837 19.75 7.38911 19.6709 7.52975 19.5303C7.67039 19.3896 7.74942 19.1989 7.74947 19V12C7.74962 11.7025 7.7656 11.4052 7.79732 11.1094L7.80318 11.0576C7.80556 11.0366 7.81063 11.0165 7.81318 10.9956L6.52914 9.71158C6.4825 9.90451 6.4338 10.0968 6.3989 10.294ZM6.24947 12V18.1631C5.53787 17.9954 4.90377 17.5922 4.44999 17.019C3.99622 16.4458 3.74938 15.7361 3.74949 15.005C3.74961 14.2739 3.99668 13.5643 4.45063 12.9912C4.90459 12.4181 5.53881 12.0151 6.25047 11.8477C6.24947 11.8985 6.24947 11.9493 6.24947 12Z" fill="#0F0F0F"/>
<path d="M18.4961 25.8612C18.2235 25.2541 17.7407 24.7661 17.1366 24.487C16.5325 24.2079 15.8478 24.1566 15.2089 24.3425C14.5699 24.5284 14.0197 24.9391 13.6596 25.4988C13.2996 26.0585 13.1541 26.7295 13.2498 27.388C13.3456 28.0466 13.6762 28.6483 14.1807 29.0823C14.6852 29.5163 15.3296 29.7533 15.995 29.7496C16.6605 29.7458 17.3022 29.5017 17.8018 29.0621C18.3014 28.6224 18.6253 28.017 18.7137 27.3575C20.0198 26.977 21.2319 26.3274 22.2719 25.4505L21.1936 24.372C20.3963 25.034 19.4811 25.5393 18.4961 25.8612ZM15.9998 28.2495C15.7526 28.2495 15.5109 28.1762 15.3054 28.0389C15.0998 27.9015 14.9396 27.7063 14.845 27.4779C14.7504 27.2495 14.7256 26.9982 14.7739 26.7557C14.8221 26.5132 14.9411 26.2905 15.116 26.1157C15.2908 25.9408 15.5135 25.8218 15.756 25.7736C15.9985 25.7253 16.2498 25.7501 16.4782 25.8447C16.7066 25.9393 16.9018 26.0995 17.0392 26.3051C17.1765 26.5106 17.2498 26.7523 17.2498 26.9995C17.2495 27.331 17.1177 27.6487 16.8834 27.8831C16.649 28.1174 16.3313 28.2492 15.9998 28.2495Z" fill="#0F0F0F"/>
</svg>
