<svg width="32" height="32" viewBox="0 0 32 32" fill="none" xmlns="http://www.w3.org/2000/svg">
<path d="M24 13.5001C25.0878 13.5001 26.1511 13.1775 27.0556 12.5731C27.9601 11.9688 28.665 11.1098 29.0813 10.1048C29.4976 9.09983 29.6065 7.99396 29.3943 6.92706C29.1821 5.86017 28.6583 4.88016 27.8891 4.11097C27.1199 3.34178 26.1399 2.81796 25.073 2.60574C24.0061 2.39352 22.9002 2.50244 21.8952 2.91872C20.8902 3.335 20.0312 4.03995 19.4269 4.94442C18.8225 5.84889 18.5 6.91226 18.5 8.00006C18.5018 9.45819 19.0818 10.8561 20.1129 11.8871C21.1439 12.9182 22.5418 13.4982 24 13.5001ZM24 3.50006C25.1036 3.50349 26.1673 3.91323 26.988 4.65103C27.8087 5.38884 28.3289 6.40306 28.4494 7.50006H19.5505C19.671 6.40306 20.1913 5.38885 21.012 4.65104C21.8327 3.91323 22.8964 3.5035 24 3.50006ZM28.4494 8.50006C28.3323 9.5984 27.813 10.6146 26.9915 11.353C26.1701 12.0915 25.1046 12.5 24 12.5C22.8954 12.5 21.8299 12.0915 21.0084 11.353C20.187 10.6146 19.6677 9.5984 19.5505 8.50006H28.4494Z" fill="#0F0F0F"/>
<path d="M16.5 3.00006C16.5 2.93439 16.4871 2.86935 16.462 2.80867C16.4369 2.748 16.4 2.69286 16.3536 2.64642C16.3072 2.59999 16.252 2.56316 16.1914 2.53805C16.1307 2.51293 16.0656 2.50002 16 2.50006C13.7375 2.50282 11.5501 3.31171 9.83018 4.7816C8.11027 6.2515 6.97044 8.28618 6.61521 10.5206C5.45948 10.6193 4.38656 11.1606 3.6205 12.0316C2.85444 12.9026 2.45447 14.0358 2.50413 15.1947C2.55378 16.3536 3.04922 17.4485 3.88698 18.2507C4.72474 19.053 5.84004 19.5006 6.99997 19.5001C7.06565 19.5001 7.13068 19.4872 7.19136 19.4621C7.25204 19.437 7.30718 19.4001 7.35361 19.3537C7.40005 19.3073 7.43688 19.2521 7.46199 19.1914C7.48711 19.1308 7.50001 19.0657 7.49997 19.0001V12.0001C7.50266 9.74654 8.39905 7.58609 9.99253 5.99262C11.586 4.39914 13.7465 3.50274 16 3.50006C16.0656 3.5001 16.1307 3.48719 16.1914 3.46208C16.252 3.43696 16.3072 3.40014 16.3536 3.3537C16.4 3.30726 16.4369 3.25213 16.462 3.19145C16.4871 3.13077 16.5 3.06573 16.5 3.00006ZM6.49997 18.4649C5.66626 18.3453 4.90375 17.9287 4.3526 17.2919C3.80144 16.655 3.4987 15.8406 3.5 14.9983C3.50131 14.1561 3.80659 13.3426 4.35971 12.7074C4.91284 12.0723 5.67665 11.6581 6.51072 11.5411L6.49997 18.4649Z" fill="#0F0F0F"/>
<path d="M28.7099 16.5694C28.6534 16.536 28.5908 16.5141 28.5258 16.5049C28.4608 16.4957 28.3946 16.4994 28.331 16.5158C28.2674 16.5322 28.2077 16.561 28.1552 16.6005C28.1028 16.6401 28.0587 16.6896 28.0254 16.7462C27.7545 17.2027 27.3857 17.5935 26.9456 17.8904C26.5056 18.1873 26.0051 18.3829 25.4804 18.4632C25.4879 18.309 25.5 18.1561 25.5 18.0001V17.0079C25.5 16.8753 25.4473 16.7481 25.3536 16.6543C25.2598 16.5606 25.1326 16.5079 25 16.5079C24.8674 16.5079 24.7402 16.5606 24.6465 16.6543C24.5527 16.7481 24.5 16.8753 24.5 17.0079V18.0001C24.4969 19.8438 23.8951 21.6367 22.7852 23.1089C21.6752 24.5811 20.1172 25.6531 18.3455 26.1635C18.1388 25.5793 17.7227 25.0933 17.1776 24.7985C16.6325 24.5037 15.9974 24.4217 15.3953 24.5684C14.7933 24.7152 14.2671 25.0802 13.9188 25.5927C13.5705 26.1053 13.4248 26.7289 13.51 27.3427C13.5953 27.9565 13.9053 28.5168 14.38 28.9151C14.8548 29.3134 15.4605 29.5212 16.0798 29.4984C16.6991 29.4756 17.2878 29.2237 17.732 28.7916C18.1762 28.3594 18.4441 27.7778 18.4839 27.1594C20.2502 26.6777 21.8401 25.697 23.0632 24.3348C24.2863 22.9726 25.0908 21.2866 25.3803 19.4789C26.0985 19.4098 26.7903 19.1723 27.3995 18.7857C28.0087 18.3991 28.5182 17.8744 28.8867 17.254C28.9202 17.1975 28.9421 17.1349 28.9514 17.0699C28.9606 17.0048 28.9569 16.9386 28.9405 16.875C28.9241 16.8114 28.8952 16.7517 28.8557 16.6992C28.8161 16.6468 28.7666 16.6027 28.7099 16.5694ZM15.9999 28.5001C15.7033 28.5001 15.4133 28.4121 15.1666 28.2473C14.9199 28.0824 14.7276 27.8482 14.6141 27.5741C14.5006 27.3 14.4709 26.9984 14.5288 26.7074C14.5866 26.4165 14.7295 26.1492 14.9393 25.9394C15.1491 25.7296 15.4163 25.5868 15.7073 25.5289C15.9983 25.471 16.2999 25.5007 16.574 25.6142C16.848 25.7278 17.0823 25.92 17.2471 26.1667C17.412 26.4134 17.4999 26.7034 17.4999 27.0001C17.4995 27.3977 17.3413 27.779 17.0601 28.0602C16.7789 28.3414 16.3976 28.4996 15.9999 28.5001Z" fill="#0F0F0F"/>
</svg>
