<svg width="32" height="32" viewBox="0 0 32 32" fill="none" xmlns="http://www.w3.org/2000/svg">
<path d="M15.4033 21.6406C16.0508 21.6406 16.3555 21.1963 16.3555 20.5869V19.8125C16.3809 18.0352 16.9902 17.2354 19.0977 15.7627C21.4082 14.1504 22.6396 12.5381 22.6396 10.2021C22.6396 6.59668 19.6943 4.32422 15.9619 4.32422C13.0801 4.32422 10.6299 5.84766 9.66504 8.33594C9.43652 8.90723 9.34766 9.42773 9.34766 9.84668C9.34766 10.3926 9.66504 10.7607 10.2363 10.7607C10.7314 10.7607 11.0488 10.4814 11.1885 9.98633C11.7344 7.39648 13.5498 6.10156 15.9111 6.10156C18.5771 6.10156 20.6846 7.73926 20.6846 10.2021C20.6846 12.0049 19.6182 13.1475 17.752 14.5059C15.6064 16.0293 14.4131 17.3877 14.4131 19.5967V20.5996C14.4131 21.2217 14.7559 21.6406 15.4033 21.6406ZM15.416 28.3818C16.2285 28.3818 16.876 27.7217 16.876 26.9219C16.876 26.1221 16.2285 25.4619 15.416 25.4619C14.6289 25.4619 13.9688 26.1221 13.9688 26.9219C13.9688 27.7217 14.6289 28.3818 15.416 28.3818Z" fill="black"/>
</svg>
