<svg width="32" height="32" viewBox="0 0 32 32" fill="none" xmlns="http://www.w3.org/2000/svg">
<path d="M16 29.0801C22.9697 29.0801 28.7334 23.3164 28.7334 16.3467C28.7334 9.37695 22.9697 3.61328 15.9873 3.61328C9.01758 3.61328 3.2666 9.37695 3.2666 16.3467C3.2666 23.3164 9.03027 29.0801 16 29.0801ZM16 27.4424C9.85547 27.4424 4.91699 22.4912 4.91699 16.3467C4.91699 10.2021 9.85547 5.26367 15.9873 5.26367C22.1318 5.26367 27.083 10.2021 27.0957 16.3467C27.0957 22.4912 22.1445 27.4424 16 27.4424ZM15.7588 18.9365C16.2412 18.9365 16.5459 18.6191 16.5459 18.2129V17.959C16.5459 17.21 16.9268 16.7402 17.8662 16.1182C19.1357 15.2676 19.8721 14.5186 19.8721 13.1348C19.8721 11.2305 18.1836 10.1006 16.1016 10.1006C14.0068 10.1006 12.6357 11.1797 12.3564 12.4111C12.3057 12.6016 12.2803 12.792 12.2803 12.9824C12.2803 13.4268 12.623 13.6807 12.9658 13.6807C13.5117 13.6807 13.6387 13.376 13.9053 12.9951C14.2227 12.0938 14.9463 11.459 16.0381 11.459C17.3457 11.459 18.1836 12.1826 18.1836 13.2236C18.1836 14.0869 17.6885 14.5566 16.5205 15.3691C15.5557 16.042 14.9717 16.7148 14.9717 17.8701V18.1494C14.9717 18.6572 15.2637 18.9365 15.7588 18.9365ZM15.7334 22.5547C16.3682 22.5547 16.9141 22.0469 16.9141 21.4121C16.9141 20.7773 16.3809 20.2695 15.7334 20.2695C15.0859 20.2695 14.5527 20.7773 14.5527 21.4121C14.5527 22.0342 15.0986 22.5547 15.7334 22.5547Z" fill="black"/>
</svg>
