<svg width="36" height="32" viewBox="0 0 36 32" fill="none" xmlns="http://www.w3.org/2000/svg">
<path d="M28.1055 27.3535C28.3975 27.6582 28.8672 27.6709 29.1719 27.3535C29.502 27.0234 29.4766 26.5791 29.1719 26.2871L7.69141 4.80664C7.39941 4.51465 6.91699 4.50195 6.6123 4.80664C6.32031 5.09863 6.32031 5.59375 6.6123 5.88574L28.1055 27.3535ZM18 5.58105C15.6641 5.58105 13.6455 6.02539 11.6904 6.73633L12.998 8.03125C14.5723 7.48535 16.1592 7.16797 18 7.16797C26.6582 7.16797 33.2979 14.6709 33.2979 16.3467C33.2979 17.4512 30.9746 20.4727 27.2422 22.7197L28.4609 23.9385C32.5742 21.3486 35.0371 17.8574 35.0371 16.3467C35.0371 13.7949 28.0039 5.58105 18 5.58105ZM18 27.1123C20.4375 27.1123 22.6211 26.6426 24.6396 25.9062L23.3447 24.5986C21.6816 25.1699 19.9424 25.5254 18 25.5254C9.36719 25.5254 2.70215 18.2129 2.70215 16.3467C2.70215 15.3311 5.08887 12.1953 8.98633 9.87207L7.75488 8.64062C3.50195 11.2559 0.950195 14.8105 0.950195 16.3467C0.950195 18.8984 8.07227 27.1123 18 27.1123ZM24.3096 19.4951C24.8301 18.5684 25.1221 17.4766 25.1221 16.3467C25.1221 12.3857 21.9229 9.25 18 9.25C16.8574 9.25 15.7783 9.5293 14.8262 10.0244L24.3096 19.4951ZM18 23.4434C19.2314 23.4434 20.374 23.1133 21.3643 22.5547L11.7539 12.9443C11.1826 13.9346 10.8652 15.1025 10.8652 16.3467C10.8906 20.2188 14.0391 23.4434 18 23.4434Z" fill="black"/>
</svg>
