<svg width="32" height="32" viewBox="0 0 32 32" fill="none" xmlns="http://www.w3.org/2000/svg">
<path d="M16.0005 10C6.10693 10 2.00049 14.7578 2.00049 17.3047V18.7715C2.00143 19.6274 2.34188 20.4481 2.94714 21.0533C3.5524 21.6586 4.37303 21.9991 5.229 22H8.79834C9.64948 21.9968 10.4646 21.6561 11.0649 21.0527C11.6652 20.4493 12.0016 19.6324 12.0005 18.7812V17.1445C13.1869 16.3661 14.5819 15.9669 16.0005 16C17.4184 15.9669 18.813 16.3642 20.0005 17.1396L19.9995 18.79C20.0273 19.6537 20.391 20.4724 21.0134 21.0719C21.6357 21.6714 22.4674 22.0044 23.3315 22H26.7719C27.6279 21.9991 28.4485 21.6586 29.0538 21.0533C29.659 20.4481 29.9995 19.6274 30.0004 18.7715V17.3047C30.0005 14.7578 25.8941 10 16.0005 10ZM28.0005 18.7715C28.0002 19.0972 27.8707 19.4096 27.6404 19.6399C27.41 19.8702 27.0977 19.9997 26.772 20H23.3315C22.997 20.0069 22.6726 19.8855 22.4249 19.6607C22.1771 19.4358 22.0249 19.1246 21.9995 18.791L22.0005 16.8369C22.0005 15.3086 18.7017 14 16.0005 14C13.0289 14 10.0005 15.4346 10.0005 16.8428V18.7812C10.0024 19.1022 9.87683 19.4107 9.65145 19.6392C9.42607 19.8677 9.11926 19.9974 8.79834 20H5.229C4.90325 19.9997 4.59093 19.8702 4.36059 19.6399C4.13026 19.4096 4.00074 19.0972 4.00049 18.7715V17.3047C4.00049 15.7949 7.56982 12 16.0005 12C24.4312 12 28.0005 15.7949 28.0005 17.3047V18.7715Z" fill="#0F0F0F"/>
</svg>
