<svg width="32" height="32" viewBox="0 0 32 32" fill="none" xmlns="http://www.w3.org/2000/svg">
<path d="M16.0005 10C6.28369 10 2.25049 14.5947 2.25049 17.0547V18.5215C2.2513 19.3112 2.56537 20.0683 3.12377 20.6267C3.68218 21.1851 4.4393 21.4992 5.229 21.5H8.79834C9.58321 21.4969 10.3348 21.1826 10.8882 20.626C11.4417 20.0695 11.7518 19.3161 11.7505 18.5312V16.7773C12.9945 15.9088 14.4838 15.4612 16.0005 15.5C17.5164 15.4612 19.0053 15.9069 20.2505 16.7724L20.2495 18.54C20.2764 19.3377 20.6135 20.0933 21.1891 20.6462C21.7647 21.199 22.5334 21.5054 23.3315 21.5H26.7719C27.5616 21.4992 28.3187 21.1851 28.8771 20.6267C29.4356 20.0683 29.7496 19.3112 29.7504 18.5215V17.0547C29.7505 14.5947 25.7173 10 16.0005 10ZM28.2505 18.5215C28.2501 18.9135 28.0942 19.2893 27.817 19.5665C27.5398 19.8437 27.164 19.9996 26.772 20H23.3315C22.9311 20.0052 22.5439 19.8568 22.2496 19.5852C21.9553 19.3136 21.7764 18.9396 21.7495 18.54L21.7505 16.5869C21.7505 15.3535 18.7408 14 16.0005 14C13.2603 14 10.2505 15.3574 10.2505 16.5927V18.5312C10.2523 18.9184 10.1003 19.2905 9.8281 19.5658C9.55586 19.8412 9.18554 19.9973 8.79834 20H5.229C4.83699 19.9996 4.46115 19.8437 4.18397 19.5665C3.90678 19.2893 3.75088 18.9135 3.75049 18.5215V17.0547C3.75049 15.4199 7.2749 11.5 16.0005 11.5C24.7261 11.5 28.2505 15.4199 28.2505 17.0547V18.5215Z" fill="#0F0F0F"/>
</svg>
