<svg width="32" height="32" viewBox="0 0 32 32" fill="none" xmlns="http://www.w3.org/2000/svg">
<path d="M10.75 3C10.75 2.58579 10.4142 2.25 10 2.25C9.58579 2.25 9.25 2.58579 9.25 3V5.25H9C6.37665 5.25 4.25 7.37665 4.25 10V24C4.25 26.6234 6.37665 28.75 9 28.75H23C25.6234 28.75 27.75 26.6234 27.75 24V10C27.75 7.37665 25.6234 5.25 23 5.25H22.75V3C22.75 2.58579 22.4142 2.25 22 2.25C21.5858 2.25 21.25 2.58579 21.25 3V5.25H10.75V3ZM23 6.75C24.7949 6.75 26.25 8.20507 26.25 10V24C26.25 25.7949 24.7949 27.25 23 27.25H9C7.20507 27.25 5.75 25.7949 5.75 24V10C5.75 8.20507 7.20507 6.75 9 6.75H23ZM18.5809 10.1134C18.6326 9.77498 18.4487 9.44452 18.1339 9.31017C17.819 9.17583 17.4532 9.27171 17.2447 9.54319L10.7489 18.0015C10.575 18.228 10.5448 18.5337 10.671 18.7899C10.7973 19.0461 11.0581 19.2083 11.3438 19.2083H14.1419L13.4266 23.8867C13.3749 24.225 13.5588 24.5555 13.8736 24.6898C14.1885 24.8242 14.5543 24.7283 14.7628 24.4568L21.2586 15.9985C21.4325 15.772 21.4627 15.4663 21.3365 15.2101C21.2102 14.9539 20.9494 14.7917 20.6637 14.7917H17.8656L18.5809 10.1134ZM15.0153 17.7083H12.8654L16.6571 12.771L16.2508 15.4283C16.2178 15.6445 16.2808 15.8644 16.4232 16.0303C16.5657 16.1962 16.7735 16.2917 16.9922 16.2917H19.1421L15.3504 21.229L15.7566 18.5717C15.7897 18.3555 15.7267 18.1356 15.5843 17.9697C15.4418 17.8038 15.234 17.7083 15.0153 17.7083Z" fill="#0F0F0F"/>
</svg>
