<svg width="32" height="32" viewBox="0 0 32 32" fill="none" xmlns="http://www.w3.org/2000/svg">
<path fill-rule="evenodd" clip-rule="evenodd" d="M11 3C11 2.44772 10.5523 2 10 2C9.44772 2 9 2.44772 9 3V5C6.23858 5 4 7.23858 4 10V24C4 26.7614 6.23858 29 9 29H23C25.7614 29 28 26.7614 28 24V10C28 7.23858 25.7614 5 23 5V3C23 2.44772 22.5523 2 22 2C21.4477 2 21 2.44772 21 3V5H11V3ZM6 10C6 8.34315 7.34315 7 9 7H23C24.6569 7 26 8.34315 26 10V24C26 25.6569 24.6569 27 23 27H9C7.34315 27 6 25.6569 6 24V10ZM11.3438 18.4583L17.8395 10L16.9922 15.5417H20.6637L14.168 24L15.0153 18.4583H11.3438Z" fill="#0F0F0F"/>
<path d="M9 5V6C9.55228 6 10 5.55228 10 5H9ZM23 5H22C22 5.55228 22.4477 6 23 6V5ZM21 5V6C21.5523 6 22 5.55228 22 5H21ZM11 5H10C10 5.55228 10.4477 6 11 6V5ZM17.8395 10L18.828 10.1511C18.897 9.69998 18.6518 9.25936 18.232 9.08023C17.8122 8.90111 17.3244 9.02894 17.0464 9.39092L17.8395 10ZM11.3438 18.4583L10.5506 17.8492C10.3187 18.1513 10.2784 18.5589 10.4468 18.9004C10.6152 19.242 10.9629 19.4583 11.3438 19.4583V18.4583ZM16.9922 15.5417L16.0037 15.3905C15.9597 15.6788 16.0436 15.9719 16.2336 16.1932C16.4236 16.4144 16.7006 16.5417 16.9922 16.5417V15.5417ZM20.6637 15.5417L21.4569 16.1507C21.6888 15.8487 21.7291 15.4411 21.5607 15.0996C21.3923 14.758 21.0446 14.5417 20.6637 14.5417V15.5417ZM14.168 24L13.1795 23.8489C13.1105 24.3 13.3557 24.7406 13.7755 24.9198C14.1953 25.0989 14.6831 24.9711 14.9611 24.6091L14.168 24ZM15.0153 18.4583L16.0038 18.6095C16.0479 18.3212 15.9639 18.0281 15.7739 17.8068C15.584 17.5856 15.3069 17.4583 15.0153 17.4583V18.4583ZM10 3H12C12 1.89543 11.1046 1 10 1V3ZM10 3V1C8.89543 1 8 1.89543 8 3H10ZM10 5V3H8V5H10ZM5 10C5 7.79086 6.79086 6 9 6V4C5.68629 4 3 6.68629 3 10H5ZM5 24V10H3V24H5ZM9 28C6.79086 28 5 26.2091 5 24H3C3 27.3137 5.68629 30 9 30V28ZM23 28H9V30H23V28ZM27 24C27 26.2091 25.2091 28 23 28V30C26.3137 30 29 27.3137 29 24H27ZM27 10V24H29V10H27ZM23 6C25.2091 6 27 7.79086 27 10H29C29 6.68629 26.3137 4 23 4V6ZM22 3V5H24V3H22ZM22 3H24C24 1.89543 23.1046 1 22 1V3ZM22 3V1C20.8954 1 20 1.89543 20 3H22ZM22 5V3H20V5H22ZM11 6H21V4H11V6ZM10 3V5H12V3H10ZM9 6C6.79086 6 5 7.79086 5 10H7C7 8.89543 7.89543 8 9 8V6ZM23 6H9V8H23V6ZM27 10C27 7.79086 25.2091 6 23 6V8C24.1046 8 25 8.89543 25 10H27ZM27 24V10H25V24H27ZM23 28C25.2091 28 27 26.2091 27 24H25C25 25.1046 24.1046 26 23 26V28ZM9 28H23V26H9V28ZM5 24C5 26.2091 6.79086 28 9 28V26C7.89543 26 7 25.1046 7 24H5ZM5 10V24H7V10H5ZM17.0464 9.39092L10.5506 17.8492L12.1369 19.0674L18.6326 10.6091L17.0464 9.39092ZM17.9807 15.6928L18.828 10.1511L16.851 9.84887L16.0037 15.3905L17.9807 15.6928ZM20.6637 14.5417H16.9922V16.5417H20.6637V14.5417ZM14.9611 24.6091L21.4569 16.1507L19.8706 14.9326L13.3749 23.3909L14.9611 24.6091ZM14.0268 18.3072L13.1795 23.8489L15.1565 24.1511L16.0038 18.6095L14.0268 18.3072ZM11.3438 19.4583H15.0153V17.4583H11.3438V19.4583Z" fill="#0F0F0F"/>
</svg>
