<svg width="32" height="32" viewBox="0 0 32 32" fill="none" xmlns="http://www.w3.org/2000/svg">
<path d="M10 2C10.5523 2 11 2.44772 11 3V5H21V3C21 2.44772 21.4477 2 22 2C22.5523 2 23 2.44772 23 3V5C25.7614 5 28 7.23858 28 10V24C28 26.7614 25.7614 29 23 29H9C6.23858 29 4 26.7614 4 24V10C4 7.23858 6.23858 5 9 5V3C9 2.44772 9.44772 2 10 2ZM18.232 9.08023C17.8122 8.90111 17.3244 9.02894 17.0464 9.39091L10.5507 17.8492C10.3187 18.1513 10.2784 18.5588 10.4468 18.9004C10.6152 19.242 10.9629 19.4583 11.3438 19.4583H13.8508L13.1795 23.8489C13.1105 24.3 13.3558 24.7406 13.7755 24.9198C14.1953 25.0989 14.6831 24.9711 14.9611 24.6091L21.4569 16.1507C21.6888 15.8487 21.7291 15.4411 21.5607 15.0996C21.3924 14.758 21.0446 14.5417 20.6638 14.5417H18.1568L18.828 10.1511C18.897 9.69997 18.6518 9.25935 18.232 9.08023ZM13.3726 17.4583H15.0153C15.3069 17.4583 15.584 17.5856 15.7739 17.8068C15.9639 18.0281 16.0479 18.3212 16.0038 18.6095L15.7445 20.3054L18.6349 16.5417H16.9922C16.7006 16.5417 16.4236 16.4144 16.2336 16.1931C16.0436 15.9719 15.9597 15.6788 16.0037 15.3905L16.263 13.6946L13.3726 17.4583Z" fill="#0F0F0F"/>
</svg>
