<svg width="32" height="32" viewBox="0 0 32 32" fill="none" xmlns="http://www.w3.org/2000/svg">
<path d="M18.828 10.1511C18.897 9.69998 18.6518 9.25936 18.232 9.08023C17.8122 8.90111 17.3244 9.02894 17.0464 9.39092L10.5506 17.8492C10.3187 18.1513 10.2784 18.5589 10.4468 18.9004C10.6152 19.242 10.9629 19.4583 11.3438 19.4583H13.8508L13.1795 23.8489C13.1105 24.3 13.3557 24.7406 13.7755 24.9198C14.1953 25.0989 14.6831 24.9711 14.9611 24.6091L21.4569 16.1507C21.6888 15.8487 21.7291 15.4411 21.5607 15.0996C21.3923 14.758 21.0446 14.5417 20.6637 14.5417H18.1567L18.828 10.1511Z" fill="#0F0F0F"/>
<path d="M10 1C8.89543 1 8 1.89543 8 3V4.08296C5.16229 4.55904 3 7.027 3 10V24C3 27.3137 5.68629 30 9 30H23C26.3137 30 29 27.3137 29 24V10C29 7.027 26.8377 4.55904 24 4.08296V3C24 1.89543 23.1046 1 22 1C20.8954 1 20 1.89543 20 3V4H12V3C12 1.89543 11.1046 1 10 1ZM7 10C7 8.89543 7.89543 8 9 8H23C24.1046 8 25 8.89543 25 10V24C25 25.1046 24.1046 26 23 26H9C7.89543 26 7 25.1046 7 24V10Z" fill="#0F0F0F"/>
</svg>
