<svg width="32" height="32" viewBox="0 0 32 32" fill="none" xmlns="http://www.w3.org/2000/svg">
<path d="M29.3539 2.64689C29.3075 2.60046 29.2524 2.56362 29.1917 2.53849C29.1311 2.51336 29.066 2.50042 29.0004 2.50042C28.9347 2.50042 28.8697 2.51336 28.8091 2.53849C28.7484 2.56362 28.6933 2.60046 28.6469 2.64689L19.5004 11.7944V5.00041C19.5004 4.8678 19.4477 4.74062 19.354 4.64686C19.2602 4.55309 19.133 4.50041 19.0004 4.50041C18.8678 4.50041 18.7406 4.55309 18.6469 4.64686C18.5531 4.74062 18.5004 4.8678 18.5004 5.00041V13.0004C18.5004 13.0661 18.5133 13.1311 18.5384 13.1918C18.5635 13.2525 18.6003 13.3076 18.6468 13.354C18.6932 13.4005 18.7483 13.4373 18.809 13.4624C18.8697 13.4875 18.9347 13.5004 19.0004 13.5004H27.0004C27.133 13.5004 27.2602 13.4477 27.354 13.354C27.4477 13.2602 27.5004 13.133 27.5004 13.0004C27.5004 12.8678 27.4477 12.7406 27.354 12.6469C27.2602 12.5531 27.133 12.5004 27.0004 12.5004H20.2083L29.3539 3.35393C29.4003 3.30751 29.4372 3.2524 29.4623 3.19175C29.4874 3.13109 29.5004 3.06607 29.5004 3.00041C29.5004 2.93475 29.4874 2.86973 29.4623 2.80908C29.4372 2.74842 29.4003 2.69331 29.3539 2.64689Z" fill="#0F0F0F"/>
<path d="M9.45401 22.4541C16.1998 29.1999 22.1336 28.8664 23.8116 27.1884L24.8488 26.1512C25.3598 25.6391 25.6469 24.9453 25.6469 24.2218C25.6469 23.4984 25.3598 22.8045 24.8488 22.2925L22.3249 19.7686C21.8146 19.2626 21.1245 18.9796 20.4059 18.9818C19.6873 18.984 18.9989 19.2712 18.4917 19.7803L17.1817 21.0903C15.5751 20.8734 14.0934 20.1059 12.9895 18.9186C11.8029 17.8153 11.0342 16.3357 10.8136 14.7305L12.1346 13.4109C12.6335 12.8751 12.9036 12.1658 12.8875 11.434C12.8714 10.7021 12.5703 10.0054 12.0484 9.49208L9.61563 7.05933C9.10359 6.54827 8.40971 6.26125 7.68628 6.26125C6.96284 6.26125 6.26895 6.54827 5.75692 7.05933L4.71971 8.09654C3.04168 9.7745 2.70818 15.7082 9.45401 22.4541ZM6.46399 7.7664C6.7884 7.44272 7.22796 7.26093 7.68624 7.26093C8.14451 7.26093 8.58408 7.44272 8.90849 7.7664L11.3412 10.1992C11.6736 10.5262 11.8678 10.9683 11.8838 11.4342C11.8999 11.9002 11.7365 12.3546 11.4275 12.7037L10.0457 14.0841C9.33933 14.7905 10.3157 17.659 12.2824 19.6256C14.249 21.5923 17.1203 22.5659 17.828 21.8581L19.1988 20.4874C19.5183 20.1656 19.9524 19.9837 20.4058 19.9815C20.8593 19.9793 21.2951 20.157 21.6178 20.4757L24.1417 22.9996C24.4654 23.324 24.6471 23.7636 24.6471 24.2218C24.6471 24.6801 24.4653 25.1197 24.1417 25.4441L23.1045 26.4813C21.8967 27.689 16.4567 28.0426 10.1611 21.747C3.86549 15.4514 4.21904 10.0114 5.42679 8.80361L6.46399 7.7664Z" fill="#0F0F0F"/>
</svg>
