<svg width="32" height="32" viewBox="0 0 32 32" fill="none" xmlns="http://www.w3.org/2000/svg">
<path d="M29.5306 2.47014C29.461 2.40048 29.3783 2.34522 29.2873 2.30752C29.1963 2.26982 29.0988 2.25041 29.0003 2.25041C28.9018 2.25041 28.8043 2.26982 28.7133 2.30752C28.6223 2.34522 28.5397 2.40048 28.4701 2.47014L19.7503 11.1907V5.00041C19.7503 4.8015 19.6713 4.61073 19.5307 4.47008C19.39 4.32943 19.1992 4.25041 19.0003 4.25041C18.8014 4.25041 18.6107 4.32943 18.47 4.47008C18.3294 4.61073 18.2503 4.8015 18.2503 5.00041V13.0004C18.2504 13.1993 18.3294 13.39 18.4701 13.5307C18.6107 13.6713 18.8014 13.7504 19.0003 13.7504H27.0003C27.1993 13.7504 27.39 13.6714 27.5307 13.5307C27.6713 13.3901 27.7503 13.1993 27.7503 13.0004C27.7503 12.8015 27.6713 12.6107 27.5307 12.4701C27.39 12.3294 27.1993 12.2504 27.0003 12.2504H20.8117L29.5306 3.53068C29.6003 3.46106 29.6555 3.37839 29.6932 3.2874C29.7309 3.19642 29.7503 3.0989 29.7503 3.00041C29.7503 2.90192 29.7309 2.8044 29.6932 2.71341C29.6555 2.62243 29.6003 2.53976 29.5306 2.47014Z" fill="#0F0F0F"/>
<path d="M9.27719 22.6159C16.148 29.4867 22.2489 29.0896 23.9883 27.3502L25.0255 26.313C25.5833 25.754 25.8966 24.9966 25.8966 24.2069C25.8966 23.4172 25.5833 22.6597 25.0255 22.1008L22.5016 19.5769C21.9444 19.0241 21.1907 18.7149 20.4058 18.7171C19.6209 18.7193 18.869 19.0327 18.3149 19.5886L17.0747 20.8288C15.5809 20.5633 14.2113 19.8267 13.1662 18.7268C12.0669 17.6823 11.3293 16.3144 11.0608 14.8219L12.3114 13.5727C12.8564 12.9897 13.1524 12.217 13.1363 11.419C13.1201 10.6211 12.7932 9.86091 12.2251 9.30036L9.79236 6.86761C9.23338 6.30979 8.47594 5.9965 7.68623 5.9965C6.89653 5.9965 6.13908 6.30979 5.5801 6.86761L4.5429 7.90482C2.80341 9.64424 2.40638 15.7451 9.27719 22.6159ZM6.64073 7.92824C6.91819 7.65132 7.29419 7.4958 7.6862 7.4958C8.07821 7.4958 8.4542 7.65132 8.73167 7.92824L11.1644 10.361C11.4513 10.6404 11.6201 11.0192 11.6361 11.4193C11.6522 11.8194 11.5142 12.2105 11.2507 12.512L9.86891 13.8924C8.99676 14.7645 10.1679 17.8498 12.1056 19.7875C14.0432 21.7251 17.1313 22.8935 18.0048 22.02L19.3755 20.6492C19.6481 20.3742 20.0186 20.2186 20.4058 20.2164C20.793 20.2142 21.1653 20.3656 21.4409 20.6375L23.9648 23.1614C24.2418 23.4389 24.3973 23.8149 24.3973 24.2069C24.3973 24.5989 24.2418 24.9749 23.9648 25.2524L22.9276 26.2896C21.7717 27.4455 16.5077 27.7252 10.3378 21.5553C4.1679 15.3853 4.44756 10.1214 5.60352 8.96544L6.64073 7.92824Z" fill="#0F0F0F"/>
</svg>
