<svg width="32" height="32" viewBox="0 0 32 32" fill="none" xmlns="http://www.w3.org/2000/svg">
<path d="M11.3292 3.66459C11.4864 3.35018 11.8409 3.18714 12.1819 3.27239L16 4.22692L19.8181 3.27239C20.1591 3.18714 20.5136 3.35018 20.6708 3.66459L23.6708 9.66459C23.7871 9.89708 23.7746 10.1732 23.638 10.3943C23.5013 10.6154 23.2599 10.75 23 10.75H9C8.74007 10.75 8.49867 10.6154 8.36201 10.3943C8.22536 10.1732 8.21293 9.89708 8.32918 9.66459L11.3292 3.66459ZM12.4018 4.87352L10.2135 9.25H21.7865L19.5982 4.87352L16.1819 5.72761C16.0625 5.75746 15.9375 5.75746 15.8181 5.72761L12.4018 4.87352Z" fill="#0F0F0F"/>
<path d="M7.00005 12.25C6.83777 12.25 6.67987 12.3026 6.55005 12.4L2.55005 15.4C2.29179 15.5937 2.18645 15.9309 2.28854 16.2372C2.39062 16.5434 2.67723 16.75 3.00005 16.75H29C29.3229 16.75 29.6095 16.5434 29.7116 16.2372C29.8136 15.9309 29.7083 15.5937 29.45 15.4L25.45 12.4C25.3202 12.3026 25.1623 12.25 25 12.25H7.00005ZM5.25005 15.25L7.25005 13.75H24.75L26.75 15.25H5.25005Z" fill="#0F0F0F"/>
<path d="M5.25 23C5.25 20.3766 7.37665 18.25 10 18.25C11.8093 18.25 13.3823 19.2616 14.1843 20.75H17.8157C18.6177 19.2616 20.1907 18.25 22 18.25C24.6234 18.25 26.75 20.3766 26.75 23C26.75 25.6234 24.6234 27.75 22 27.75C19.3766 27.75 17.25 25.6234 17.25 23C17.25 22.7448 17.2701 22.4943 17.3089 22.25H14.6911C14.7299 22.4943 14.75 22.7448 14.75 23C14.75 25.6234 12.6234 27.75 10 27.75C7.37665 27.75 5.25 25.6234 5.25 23ZM10 19.75C8.20507 19.75 6.75 21.2051 6.75 23C6.75 24.7949 8.20507 26.25 10 26.25C11.7949 26.25 13.25 24.7949 13.25 23C13.25 21.2051 11.7949 19.75 10 19.75ZM22 19.75C20.2051 19.75 18.75 21.2051 18.75 23C18.75 24.7949 20.2051 26.25 22 26.25C23.7949 26.25 25.25 24.7949 25.25 23C25.25 21.2051 23.7949 19.75 22 19.75Z" fill="#0F0F0F"/>
</svg>
