<svg width="32" height="32" viewBox="0 0 32 32" fill="none" xmlns="http://www.w3.org/2000/svg">
<path d="M29.3541 2.64689C29.3077 2.60046 29.2526 2.56362 29.1919 2.53849C29.1313 2.51336 29.0663 2.50042 29.0006 2.50042C28.935 2.50042 28.87 2.51336 28.8093 2.53849C28.7487 2.56362 28.6935 2.60046 28.6471 2.64689L19.5006 11.7944V5.00041C19.5006 4.8678 19.448 4.74062 19.3542 4.64686C19.2604 4.55309 19.1333 4.50041 19.0006 4.50041C18.868 4.50041 18.7409 4.55309 18.6471 4.64686C18.5533 4.74062 18.5006 4.8678 18.5006 5.00041V13.0004C18.5006 13.0661 18.5135 13.1311 18.5386 13.1918C18.5637 13.2525 18.6006 13.3076 18.647 13.354C18.6934 13.4005 18.7486 13.4373 18.8093 13.4624C18.8699 13.4875 18.935 13.5004 19.0006 13.5004H27.0006C27.1333 13.5004 27.2604 13.4477 27.3542 13.354C27.448 13.2602 27.5006 13.133 27.5006 13.0004C27.5006 12.8678 27.448 12.7406 27.3542 12.6469C27.2604 12.5531 27.1333 12.5004 27.0006 12.5004H20.2086L29.3541 3.35393C29.4006 3.30751 29.4374 3.2524 29.4625 3.19175C29.4877 3.13109 29.5006 3.06607 29.5006 3.00041C29.5006 2.93475 29.4877 2.86973 29.4625 2.80908C29.4374 2.74842 29.4006 2.69331 29.3541 2.64689Z" fill="#0F0F0F"/>
<path d="M23.861 19.8754C23.2953 19.3116 22.5291 18.9952 21.7305 18.9958C20.9318 18.9963 20.166 19.3137 19.6012 19.8783C19.6012 19.8783 18.1286 21.3763 17.8395 21.685C16.8469 21.7059 15.8606 21.5233 14.9413 21.1484C14.022 20.7735 13.1892 20.2143 12.4943 19.5053C11.0956 18.103 10.295 16.2131 10.2609 14.2328C10.6237 13.8705 12.1212 12.3978 12.1241 12.3949C12.6877 11.8299 13.0042 11.0645 13.0042 10.2665C13.0042 9.46853 12.6877 8.70311 12.1241 8.13811L9.37073 5.38518C8.79525 4.83495 8.02972 4.52788 7.23352 4.52788C6.43733 4.52788 5.6718 4.83495 5.09632 5.38518L3.62464 6.85686C1.74183 8.74064 1.3805 15.4135 8.98353 23.016C13.1119 27.1439 16.7379 28.6537 19.0524 29.1927C19.8725 29.388 20.7122 29.4892 21.5553 29.4945C22.8499 29.5909 24.1325 29.1903 25.1422 28.3744L26.6139 26.9027C26.8947 26.6222 27.1174 26.289 27.2694 25.9223C27.4214 25.5556 27.4996 25.1625 27.4996 24.7655C27.4996 24.3686 27.4214 23.9755 27.2694 23.6088C27.1174 23.2421 26.8947 22.9089 26.6139 22.6283L23.861 19.8754ZM25.9069 26.1957L24.4352 27.6674C23.7282 28.3764 21.859 28.8227 19.2789 28.2192C17.0914 27.7094 13.6519 26.2699 9.69056 22.309C2.53138 15.1498 2.95081 8.94572 4.33167 7.56389L5.80335 6.09221C5.9911 5.90429 6.21405 5.75521 6.45945 5.6535C6.70484 5.55178 6.96788 5.49943 7.23352 5.49943C7.49917 5.49943 7.7622 5.55178 8.0076 5.6535C8.253 5.75521 8.47595 5.90429 8.6637 6.09221L11.4171 8.84514C11.793 9.22192 12.0043 9.73224 12.0049 10.2645C12.0054 10.7967 11.7952 11.3074 11.42 11.685C11.42 11.685 9.91859 13.1615 9.55384 13.5258C8.97523 14.1049 9.48743 16.059 9.54798 16.2797C9.94856 17.7594 10.7192 19.1127 11.7872 20.2123C14.091 22.516 17.777 23.1401 18.4732 22.4457C18.8365 22.0824 20.3111 20.5824 20.3111 20.5824C20.694 20.2167 21.2031 20.0126 21.7325 20.0126C22.262 20.0126 22.7711 20.2167 23.1539 20.5824L25.9068 23.3354C26.0948 23.5231 26.2438 23.7461 26.3455 23.9915C26.4473 24.2369 26.4996 24.4999 26.4996 24.7655C26.4996 25.0312 26.4473 25.2942 26.3455 25.5396C26.2438 25.785 26.0948 26.008 25.9069 26.1957Z" fill="#0F0F0F"/>
</svg>
