<svg width="32" height="32" viewBox="0 0 32 32" fill="none" xmlns="http://www.w3.org/2000/svg">
<path d="M15.9998 2.2498C18.7193 2.2498 21.3778 3.05623 23.6389 4.56709C25.9001 6.07796 27.6625 8.22542 28.7032 10.7379C29.7439 13.2504 30.0162 16.0151 29.4856 18.6823C28.9551 21.3495 27.6455 23.7995 25.7226 25.7225C23.7996 27.6455 21.3496 28.9551 18.6823 29.4856C16.0151 30.0161 13.2504 29.7439 10.7379 28.7031C8.22546 27.6624 6.078 25.9001 4.56713 23.6389C3.05626 21.3777 2.24984 18.7193 2.24984 15.9998C2.25396 12.3543 3.70393 8.85937 6.28167 6.28163C8.8594 3.7039 12.3544 2.25392 15.9998 2.2498ZM15.9998 28.2498C19.1161 28.2448 22.1134 27.0528 24.382 24.9163C26.6506 22.7798 28.0201 19.8593 28.2118 16.7489L17.8106 16.7497L20.5301 19.4695C20.5999 19.5391 20.6554 19.6218 20.6933 19.7128C20.7311 19.8039 20.7507 19.9015 20.7508 20.0001C20.7509 20.0987 20.7315 20.1964 20.6938 20.2875C20.6561 20.3786 20.6008 20.4614 20.5311 20.5311C20.4614 20.6008 20.3786 20.6561 20.2875 20.6938C20.1964 20.7315 20.0987 20.7509 20.0001 20.7508C19.9015 20.7507 19.8039 20.7311 19.7128 20.6933C19.6218 20.6554 19.5391 20.5999 19.4695 20.5301L15.47 16.5301C15.3295 16.3893 15.2507 16.1986 15.2507 15.9998C15.2507 15.801 15.3295 15.6103 15.47 15.4695L19.4695 11.4695C19.5391 11.3997 19.6218 11.3442 19.7128 11.3064C19.8039 11.2685 19.9015 11.2489 20.0001 11.2488C20.0987 11.2487 20.1964 11.2681 20.2875 11.3058C20.3786 11.3435 20.4614 11.3988 20.5311 11.4685C20.6008 11.5382 20.6561 11.621 20.6938 11.7121C20.7315 11.8032 20.7509 11.9009 20.7508 11.9995C20.7507 12.0981 20.7311 12.1957 20.6933 12.2868C20.6554 12.3778 20.5999 12.4605 20.5301 12.5301L17.8108 15.2497L28.2118 15.2489C28.0638 12.8641 27.2212 10.5747 25.7879 8.66295C24.3545 6.75121 22.3931 5.30068 20.1454 4.49018C17.8976 3.67968 15.4619 3.54463 13.1383 4.10168C10.8148 4.65874 8.70499 5.88355 7.0691 7.62512C5.43321 9.36669 4.3427 11.5489 3.932 13.9027C3.52131 16.2566 3.80837 18.6791 4.75781 20.8718C5.70726 23.0645 7.27757 24.9314 9.27518 26.2424C11.2728 27.5534 13.6104 28.2512 15.9998 28.2498Z" fill="#0F0F0F"/>
</svg>
