<svg width="32" height="32" viewBox="0 0 32 32" fill="none" xmlns="http://www.w3.org/2000/svg">
<path d="M15.9998 2.49979C18.6699 2.49979 21.28 3.29155 23.5 4.77495C25.7201 6.25835 27.4504 8.36676 28.4722 10.8336C29.494 13.3004 29.7613 16.0148 29.2404 18.6335C28.7195 21.2523 27.4338 23.6577 25.5458 25.5457C23.6578 27.4337 21.2523 28.7195 18.6336 29.2404C16.0148 29.7613 13.3004 29.4939 10.8336 28.4722C8.36681 27.4504 6.2584 25.72 4.775 23.5C3.2916 21.2799 2.49984 18.6698 2.49984 15.9998C2.50383 12.4206 3.92743 8.98913 6.45831 6.45825C8.98918 3.92738 12.4206 2.50378 15.9998 2.49979ZM15.9998 28.4998C19.2256 28.4946 22.3246 27.2431 24.6493 25.0067C26.974 22.7703 28.3446 19.722 28.4746 16.4989L17.2072 16.4997L20.3534 19.6463C20.4005 19.6925 20.4381 19.7477 20.4639 19.8085C20.4896 19.8694 20.503 19.9347 20.5034 20.0008C20.5037 20.0669 20.4909 20.1324 20.4658 20.1935C20.4407 20.2546 20.4037 20.3101 20.3569 20.3569C20.3102 20.4036 20.2547 20.4406 20.1936 20.4657C20.1325 20.4908 20.067 20.5036 20.0009 20.5033C19.9348 20.5029 19.8695 20.4895 19.8086 20.4638C19.7477 20.438 19.6926 20.4005 19.6464 20.3533L15.6468 16.3533C15.6004 16.3068 15.5636 16.2517 15.5384 16.1911C15.5133 16.1304 15.5004 16.0654 15.5004 15.9998C15.5004 15.9341 15.5133 15.8691 15.5384 15.8084C15.5636 15.7478 15.6004 15.6927 15.6468 15.6463L19.6464 11.6463C19.7404 11.5541 19.8671 11.5027 19.9988 11.5034C20.1305 11.5041 20.2567 11.5567 20.3498 11.6498C20.4429 11.743 20.4956 11.8691 20.4962 12.0008C20.4969 12.1325 20.4455 12.2592 20.3534 12.3533L17.2074 15.4997L28.4745 15.4989C28.3748 13.0515 27.5578 10.6873 26.1251 8.70057C24.6925 6.71379 22.7073 5.19202 20.4167 4.32453C18.126 3.45703 15.6308 3.28209 13.2415 3.82146C10.8522 4.36083 8.67411 5.59071 6.97823 7.35813C5.28236 9.12556 4.14348 11.3525 3.70326 13.7621C3.26303 16.1717 3.54088 18.6575 4.50224 20.9104C5.4636 23.1633 7.06606 25.0839 9.11031 26.4332C11.1546 27.7826 13.5504 28.5013 15.9998 28.4998Z" fill="#0F0F0F"/>
</svg>
