<svg width="32" height="32" viewBox="0 0 32 32" fill="none" xmlns="http://www.w3.org/2000/svg">
<path d="M18.8014 3.31323C19.1135 3.45019 19.294 3.78034 19.2408 4.11697L17.8777 12.75H23.5C23.7877 12.75 24.0501 12.9146 24.1753 13.1737C24.3005 13.4328 24.2664 13.7406 24.0876 13.966L12.5876 28.466C12.3759 28.7331 12.0107 28.8237 11.6986 28.6868C11.3865 28.5498 11.206 28.2197 11.2592 27.883L12.6223 19.25H7.00001C6.71227 19.25 6.44991 19.0854 6.32472 18.8263C6.19953 18.5672 6.23359 18.2594 6.41238 18.034L17.9124 3.53395C18.1242 3.26693 18.4893 3.17627 18.8014 3.31323ZM8.55208 17.75H13.5C13.7194 17.75 13.9277 17.846 14.0702 18.0128C14.2127 18.1795 14.275 18.4003 14.2408 18.617L13.186 25.2977L21.9479 14.25H17C16.7807 14.25 16.5723 14.154 16.4298 13.9872C16.2873 13.8205 16.225 13.5997 16.2592 13.383L17.314 6.70232L8.55208 17.75Z" fill="#0F0F0F"/>
</svg>
