<svg width="32" height="32" viewBox="0 0 32 32" fill="none" xmlns="http://www.w3.org/2000/svg">
<path d="M18.9019 3.0843C19.318 3.26692 19.5586 3.70711 19.4878 4.15596L18.1703 12.5H23.5C23.8837 12.5 24.2335 12.7195 24.4004 13.0649C24.5673 13.4103 24.5219 13.8208 24.2835 14.1214L12.7835 28.6214C12.5011 28.9774 12.0142 29.0983 11.5981 28.9157C11.182 28.7331 10.9414 28.2929 11.0122 27.844L12.3297 19.5H7.00001C6.61637 19.5 6.26654 19.2805 6.09962 18.9351C5.9327 18.5897 5.97812 18.1792 6.21651 17.8786L17.7165 3.3786C17.9989 3.02258 18.4858 2.90169 18.9019 3.0843ZM9.06944 17.5H13.5C13.7925 17.5 14.0703 17.628 14.2603 17.8504C14.4503 18.0727 14.5334 18.3671 14.4878 18.656L13.5813 24.3969L21.4306 14.5H17C16.7075 14.5 16.4297 14.372 16.2398 14.1496C16.0498 13.9273 15.9666 13.6329 16.0122 13.344L16.9187 7.60309L9.06944 17.5Z" fill="#0F0F0F"/>
</svg>
