<svg width="32" height="32" viewBox="0 0 32 32" fill="none" xmlns="http://www.w3.org/2000/svg">
<path d="M17.9982 24.9985L9.85809 25C9.6147 24.0573 9.03586 23.2358 8.23008 22.6894C7.4243 22.143 6.4469 21.9092 5.48109 22.0319C4.51528 22.1546 3.62736 22.6253 2.98377 23.3558C2.34018 24.0863 1.98511 25.0264 1.98511 26C1.98511 26.9736 2.34018 27.9137 2.98377 28.6442C3.62736 29.3747 4.51528 29.8454 5.48109 29.9681C6.4469 30.0908 7.4243 29.857 8.23008 29.3106C9.03586 28.7642 9.6147 27.9427 9.85809 27L17.9981 26.9982C18.2633 26.9982 18.5177 26.8928 18.7052 26.7053C18.8927 26.5178 18.9981 26.2634 18.9981 25.9982C18.9981 25.733 18.8927 25.4786 18.7052 25.2911C18.5177 25.1036 18.2634 24.9985 17.9982 24.9985ZM5.99989 28C5.60433 28 5.21765 27.8827 4.88875 27.6629C4.55985 27.4432 4.30351 27.1308 4.15213 26.7654C4.00076 26.3999 3.96115 25.9978 4.03832 25.6098C4.11549 25.2219 4.30597 24.8655 4.58568 24.5858C4.86538 24.3061 5.22175 24.1156 5.60971 24.0384C5.99767 23.9613 6.39981 24.0009 6.76526 24.1522C7.13071 24.3036 7.44307 24.56 7.66283 24.8889C7.88259 25.2178 7.99989 25.6044 7.99989 26C7.99928 26.5302 7.78837 27.0386 7.41343 27.4135C7.03849 27.7885 6.53014 27.9994 5.99989 28Z" fill="#0F0F0F"/>
<path d="M13.9999 6.9985L22.1399 7C22.3833 7.94265 22.9621 8.76419 23.7679 9.3106C24.5737 9.85701 25.5511 10.0908 26.5169 9.96811C27.4827 9.84544 28.3706 9.37473 29.0142 8.64423C29.6578 7.91372 30.0129 6.97357 30.0129 6C30.0129 5.02642 29.6578 4.08627 29.0142 3.35576C28.3706 2.62526 27.4827 2.15455 26.5169 2.03188C25.5511 1.9092 24.5737 2.14298 23.7679 2.68939C22.9621 3.23581 22.3833 4.05734 22.1399 5L13.9999 4.9985C13.7347 4.9985 13.4803 5.10385 13.2928 5.29139C13.1052 5.47893 12.9999 5.73328 12.9999 5.9985C12.9999 6.26371 13.1052 6.51807 13.2928 6.7056C13.4803 6.89314 13.7347 6.9985 13.9999 6.9985ZM25.9982 4C26.3938 4 26.7804 4.11729 27.1093 4.33706C27.4382 4.55682 27.6946 4.86918 27.846 5.23463C27.9973 5.60008 28.0369 6.00221 27.9598 6.39018C27.8826 6.77814 27.6921 7.1345 27.4124 7.41421C27.1327 7.69391 26.7763 7.8844 26.3884 7.96157C26.0004 8.03874 25.5983 7.99913 25.2328 7.84776C24.8674 7.69638 24.555 7.44003 24.3353 7.11114C24.1155 6.78224 23.9982 6.39556 23.9982 6C23.9988 5.46975 24.2097 4.9614 24.5847 4.58645C24.9596 4.21151 25.4679 4.0006 25.9982 4Z" fill="#0F0F0F"/>
<path d="M26.9999 22.1481L27.0021 14.0081C27.0021 13.7429 26.8967 13.4885 26.7092 13.301C26.5217 13.1135 26.2673 13.0081 26.0021 13.0081C25.7369 13.0081 25.4825 13.1135 25.295 13.301C25.1074 13.4885 25.0021 13.7429 25.0021 14.0081L24.9999 22.1486C24.0572 22.392 23.2357 22.9708 22.6893 23.7766C22.1429 24.5824 21.9091 25.5598 22.0318 26.5256C22.1544 27.4914 22.6252 28.3793 23.3557 29.0229C24.0862 29.6665 25.0263 30.0216 25.9999 30.0216C26.9735 30.0216 27.9136 29.6665 28.6441 29.0229C29.3746 28.3793 29.8453 27.4914 29.968 26.5256C30.0907 25.5598 29.8569 24.5824 29.3105 23.7766C28.7641 22.9708 27.9426 22.3915 26.9999 22.1481ZM25.9999 28.0063C25.6043 28.0063 25.2176 27.889 24.8888 27.6692C24.5599 27.4495 24.3035 27.1371 24.1521 26.7717C24.0008 26.4062 23.9611 26.0041 24.0383 25.6161C24.1155 25.2282 24.306 24.8718 24.5857 24.5921C24.8654 24.3124 25.2217 24.1219 25.6097 24.0447C25.9977 23.9676 26.3998 24.0072 26.7653 24.1585C27.1307 24.3099 27.4431 24.5663 27.6628 24.8952C27.8826 25.2241 27.9999 25.6107 27.9999 26.0063C27.9993 26.5365 27.7884 27.0449 27.4134 27.4198C27.0385 27.7948 26.5301 28.0057 25.9999 28.0063Z" fill="#0F0F0F"/>
<path d="M4.99989 9.866L5.00209 18.006C5.00209 18.2712 5.10745 18.5256 5.29498 18.7131C5.48252 18.9006 5.73687 19.006 6.00209 19.006C6.26731 19.006 6.52166 18.9006 6.7092 18.7131C6.89673 18.5256 7.00209 18.2712 7.00209 18.006L6.99989 9.8665C7.94261 9.62334 8.76429 9.04471 9.3109 8.23907C9.85751 7.43342 10.0915 6.45608 9.9691 5.49024C9.84667 4.52439 9.37619 3.63636 8.64584 2.99259C7.9155 2.34881 6.97543 1.99351 6.00186 1.99326C5.02829 1.99302 4.08804 2.34786 3.35738 2.99126C2.62671 3.63467 2.15578 4.52247 2.03287 5.48825C1.90995 6.45404 2.14349 7.4315 2.6897 8.23741C3.23591 9.04333 4.05729 9.62237 4.99989 9.866ZM5.99989 4.0083C6.39545 4.0083 6.78213 4.12559 7.11103 4.34536C7.43993 4.56512 7.69628 4.87748 7.84765 5.24293C7.99903 5.60838 8.03863 6.01052 7.96146 6.39848C7.88429 6.78644 7.69381 7.14281 7.4141 7.42251C7.1344 7.70222 6.77803 7.8927 6.39007 7.96987C6.00211 8.04704 5.59998 8.00743 5.23452 7.85606C4.86907 7.70468 4.55671 7.44834 4.33695 7.11944C4.11719 6.79054 3.99989 6.40386 3.99989 6.0083C4.0005 5.47805 4.21141 4.9697 4.58635 4.59476C4.96129 4.21981 5.46964 4.0089 5.99989 4.0083Z" fill="#0F0F0F"/>
</svg>
