<svg width="32" height="32" viewBox="0 0 32 32" fill="none" xmlns="http://www.w3.org/2000/svg">
<path d="M10.2871 25.4365H18.4121C18.8691 25.4365 19.1992 25.1445 19.1992 24.6875C19.1992 24.2432 18.8818 23.9639 18.4248 23.9639H15.2383L18.5137 8.69141H21.7002C22.1445 8.69141 22.4746 8.41211 22.4746 7.95508C22.4746 7.51074 22.1572 7.23145 21.7002 7.23145H13.5625C13.1055 7.23145 12.7881 7.51074 12.7881 7.95508C12.7881 8.41211 13.1182 8.69141 13.5625 8.69141H16.749L13.4736 23.9639H10.2871C9.83008 23.9639 9.5127 24.2432 9.5127 24.6875C9.5127 25.1445 9.83008 25.4365 10.2871 25.4365Z" fill="black"/>
</svg>
