<svg width="32" height="32" viewBox="0 0 32 32" fill="none" xmlns="http://www.w3.org/2000/svg">
<path d="M24.0004 28.4997H22.0209C20.6353 28.532 19.2911 28.0265 18.2702 27.0891C17.2493 26.1517 16.6311 24.8554 16.5453 23.4721C17.9022 23.3352 19.16 22.6998 20.0753 21.6889C20.9907 20.678 21.4985 19.3635 21.5004 17.9997V7.99973C21.5002 6.73611 21.065 5.51108 20.2679 4.53059C19.4708 3.5501 18.3604 2.87394 17.1235 2.61577C15.8865 2.35761 14.5984 2.53319 13.4756 3.113C12.3529 3.69281 11.464 4.64148 10.9584 5.79954C10.9062 5.92086 10.9041 6.05791 10.9526 6.18076C11.0011 6.3036 11.0963 6.40225 11.2173 6.45515C11.3384 6.50805 11.4754 6.5109 11.5985 6.46308C11.7216 6.41526 11.8208 6.32065 11.8744 6.19993C12.2881 5.25239 13.0154 4.47615 13.934 4.00172C14.8526 3.52728 15.9066 3.38358 16.9187 3.59475C17.9308 3.80593 18.8394 4.35911 19.4917 5.16131C20.1439 5.96352 20.5001 6.96582 20.5004 7.99973V17.9997C20.5002 18.9443 20.2028 19.8648 19.6504 20.631C19.098 21.3971 18.3186 21.9701 17.4225 22.2688C16.5264 22.5674 15.5591 22.5766 14.6575 22.2951C13.7559 22.0135 12.9657 21.4555 12.3988 20.6999C12.3193 20.594 12.201 20.524 12.0698 20.5053C11.9387 20.4866 11.8055 20.5208 11.6996 20.6003C11.5937 20.6798 11.5237 20.7982 11.505 20.9293C11.4863 21.0604 11.5205 21.1936 11.6 21.2995C12.0621 21.9196 12.6511 22.4342 13.3276 22.8088C14.0042 23.1835 14.7528 23.4097 15.5236 23.4724C15.587 24.4872 15.8909 25.4724 16.4103 26.3466C16.9297 27.2208 17.6496 27.9588 18.5106 28.4997H8.0004C7.86779 28.4997 7.74061 28.5524 7.64684 28.6462C7.55307 28.7399 7.5004 28.8671 7.5004 28.9997C7.5004 29.1323 7.55307 29.2595 7.64684 29.3533C7.74061 29.4471 7.86779 29.4997 8.0004 29.4997H24.0004C24.133 29.4997 24.2602 29.4471 24.354 29.3533C24.4477 29.2595 24.5004 29.1323 24.5004 28.9997C24.5004 28.8671 24.4477 28.7399 24.354 28.6462C24.2602 28.5524 24.133 28.4997 24.0004 28.4997Z" fill="#0F0F0F"/>
<path d="M8.64688 17.6462C8.59968 17.6925 8.56212 17.7476 8.53637 17.8085C8.51063 17.8693 8.4972 17.9347 8.49686 18.0008C8.49653 18.0668 8.5093 18.1323 8.53443 18.1934C8.55956 18.2546 8.59656 18.3101 8.64329 18.3568C8.69001 18.4035 8.74554 18.4405 8.80665 18.4657C8.86776 18.4908 8.93325 18.5036 8.99933 18.5032C9.06541 18.5029 9.13077 18.4895 9.19162 18.4637C9.25248 18.438 9.30763 18.4004 9.35388 18.3532L13.3539 14.3532C13.4003 14.3068 13.4372 14.2517 13.4623 14.191C13.4874 14.1304 13.5004 14.0654 13.5004 13.9997C13.5004 13.9341 13.4874 13.8691 13.4623 13.8084C13.4372 13.7477 13.4003 13.6926 13.3539 13.6462L9.35388 9.64622C9.2598 9.55403 9.13314 9.50268 9.00142 9.50335C8.8697 9.50401 8.74357 9.55663 8.65043 9.64977C8.55729 9.74291 8.50467 9.86905 8.504 10.0008C8.50334 10.1325 8.55468 10.2591 8.64688 10.3532L11.7934 13.4997H5.00037C4.86776 13.4997 4.74058 13.5524 4.64681 13.6461C4.55304 13.7399 4.50037 13.8671 4.50037 13.9997C4.50037 14.1323 4.55304 14.2595 4.64681 14.3533C4.74058 14.447 4.86776 14.4997 5.00037 14.4997H11.7934L8.64688 17.6462Z" fill="#0F0F0F"/>
</svg>
