<svg width="32" height="32" viewBox="0 0 32 32" fill="none" xmlns="http://www.w3.org/2000/svg">
<path d="M24.0004 27.9997H22.0209C20.841 28.0289 19.6905 27.6291 18.783 26.8745C17.8754 26.1199 17.2724 25.0618 17.0857 23.8963C18.4644 23.6416 19.7104 22.9126 20.608 21.8357C21.5057 20.7587 21.9982 19.4017 22.0004 17.9997V7.99973C22.0003 6.62126 21.5255 5.28488 20.656 4.21525C19.7865 3.14562 18.5752 2.40797 17.2259 2.12631C15.8765 1.84466 14.4713 2.03617 13.2465 2.66866C12.0217 3.30114 11.052 4.33603 10.5004 5.59934C10.447 5.71977 10.4179 5.84957 10.4147 5.98129C10.4116 6.11302 10.4346 6.24405 10.4823 6.36687C10.53 6.48969 10.6015 6.60186 10.6927 6.69695C10.7839 6.79203 10.893 6.86815 11.0138 6.92092C11.1345 6.97369 11.2645 7.00208 11.3962 7.00444C11.5279 7.00681 11.6588 6.98311 11.7814 6.93471C11.9039 6.88632 12.0157 6.81417 12.1103 6.72242C12.2048 6.63068 12.2803 6.52114 12.3324 6.40012C12.7001 5.55776 13.3466 4.86768 14.1632 4.44588C14.9798 4.02407 15.9167 3.89628 16.8164 4.08397C17.7162 4.27166 18.5239 4.7634 19.1037 5.47651C19.6835 6.18962 20.0002 7.08063 20.0004 7.99973V17.9997C20.0003 18.8394 19.736 19.6577 19.245 20.3388C18.754 21.0198 18.0611 21.5292 17.2645 21.7946C16.468 22.06 15.6081 22.0681 14.8067 21.8176C14.0052 21.5672 13.303 21.0709 12.7993 20.3991C12.6398 20.1876 12.4029 20.048 12.1405 20.0109C11.8782 19.9738 11.6119 20.0424 11.4 20.2015C11.1882 20.3605 11.0481 20.5972 11.0105 20.8594C10.9729 21.1217 11.041 21.3882 11.1996 21.6003C12.1336 22.8508 13.522 23.6837 15.0649 23.9192C15.2532 25.4659 15.9582 26.9037 17.0657 27.9997H8.00043C7.73521 27.9997 7.48086 28.1051 7.29332 28.2926C7.10578 28.4802 7.00043 28.7345 7.00043 28.9997C7.00043 29.2649 7.10578 29.5193 7.29332 29.7068C7.48086 29.8944 7.73521 29.9997 8.00043 29.9997H24.0004C24.2656 29.9997 24.52 29.8944 24.7075 29.7068C24.8951 29.5193 25.0004 29.2649 25.0004 28.9997C25.0004 28.7345 24.8951 28.4802 24.7075 28.2926C24.52 28.1051 24.2656 27.9997 24.0004 27.9997Z" fill="#0F0F0F"/>
<path d="M8.2934 17.2927C8.20055 17.3855 8.1269 17.4958 8.07665 17.6171C8.0264 17.7384 8.00054 17.8684 8.00054 17.9997C8.00054 18.131 8.0264 18.2611 8.07665 18.3824C8.1269 18.5037 8.20055 18.6139 8.2934 18.7068C8.48091 18.8943 8.73524 18.9996 9.00043 18.9996C9.13173 18.9996 9.26176 18.9738 9.38307 18.9235C9.50438 18.8733 9.61461 18.7996 9.70746 18.7068L13.7075 14.7068C13.8003 14.6139 13.874 14.5037 13.9243 14.3824C13.9745 14.2611 14.0004 14.131 14.0004 13.9997C14.0004 13.8684 13.9745 13.7384 13.9243 13.6171C13.874 13.4958 13.8003 13.3855 13.7075 13.2927L9.70746 9.2927C9.51994 9.10518 9.26561 8.99984 9.00043 8.99984C8.73524 8.99984 8.48091 9.10518 8.2934 9.2927C8.10588 9.48021 8.00054 9.73454 8.00054 9.99973C8.00054 10.2649 8.10588 10.5192 8.2934 10.7068L10.5864 12.9998H5.00043C4.73521 12.9998 4.48086 13.1051 4.29332 13.2927C4.10578 13.4802 4.00043 13.7345 4.00043 13.9998C4.00043 14.265 4.10578 14.5193 4.29332 14.7069C4.48086 14.8944 4.73521 14.9998 5.00043 14.9998H10.5864L8.2934 17.2927Z" fill="#0F0F0F"/>
</svg>
