<svg width="32" height="32" viewBox="0 0 32 32" fill="none" xmlns="http://www.w3.org/2000/svg">
<path d="M24.0004 27.9997H22.0209C20.7557 28.0294 19.5285 27.566 18.5987 26.7074C17.6689 25.8488 17.1093 24.6623 17.0384 23.3987C18.2933 23.1565 19.425 22.4854 20.2394 21.5004C21.0538 20.5154 21.5003 19.2778 21.5024 17.9997V7.99974C21.5023 6.59038 20.9611 5.23484 19.9906 4.21286C19.0201 3.19088 17.6944 2.58046 16.2869 2.50755C14.8794 2.43465 13.4977 2.90483 12.4268 3.82107C11.3559 4.73732 10.6776 6.02969 10.5319 7.4315C10.7134 7.58843 15.1215 11.8786 15.1215 11.8786C15.4002 12.1571 15.6212 12.4878 15.772 12.8517C15.9228 13.2157 16.0004 13.6058 16.0004 13.9997C16.0004 14.3937 15.9228 14.7838 15.772 15.1477C15.6212 15.5117 15.4002 15.8423 15.1215 16.1208C15.1215 16.1208 11.0279 20.1888 10.9819 20.2348C11.3472 21.0516 11.9057 21.7671 12.6093 22.3198C13.3129 22.8724 14.1404 23.2455 15.0204 23.4069C15.1041 25.1397 15.8338 26.7782 17.0657 27.9997H8.00043C7.73521 27.9997 7.48086 28.1051 7.29332 28.2926C7.10578 28.4801 7.00043 28.7345 7.00043 28.9997C7.00043 29.2649 7.10578 29.5193 7.29332 29.7068C7.48086 29.8944 7.73521 29.9997 8.00043 29.9997H24.0004C24.2656 29.9997 24.52 29.8944 24.7075 29.7068C24.8951 29.5193 25.0004 29.2649 25.0004 28.9997C25.0004 28.7345 24.8951 28.4801 24.7075 28.2926C24.52 28.1051 24.2656 27.9997 24.0004 27.9997Z" fill="#0F0F0F"/>
<path d="M10.5864 14.9997L8.29336 17.2927C8.20051 17.3856 8.12686 17.4958 8.07661 17.6171C8.02636 17.7384 8.0005 17.8685 8.0005 17.9998C8.0005 18.1311 8.02636 18.2611 8.07661 18.3824C8.12686 18.5037 8.20051 18.6139 8.29336 18.7068C8.38621 18.7996 8.49643 18.8733 8.61775 18.9235C8.73906 18.9738 8.86908 18.9997 9.00039 18.9997C9.13169 18.9997 9.26172 18.9738 9.38303 18.9235C9.50434 18.8733 9.61457 18.7996 9.70742 18.7068L13.7074 14.7068C13.8003 14.614 13.874 14.5037 13.9242 14.3824C13.9745 14.2611 14.0004 14.1311 14.0004 13.9998C14.0004 13.8684 13.9745 13.7384 13.9242 13.6171C13.874 13.4958 13.8003 13.3856 13.7074 13.2927L9.70742 9.29274C9.51947 9.10734 9.26582 9.0038 9.00182 9.0047C8.73782 9.0056 8.48488 9.11088 8.29821 9.29755C8.11153 9.48423 8.00625 9.73717 8.00535 10.0012C8.00445 10.2652 8.108 10.5188 8.2934 10.7068L10.5864 12.9998H5.00043C4.73521 12.9998 4.48086 13.1051 4.29332 13.2927C4.10578 13.4802 4.00043 13.7346 4.00043 13.9998C4.00043 14.265 4.10578 14.5193 4.29332 14.7069C4.48086 14.8944 4.73521 14.9998 5.00043 14.9998L10.5864 14.9997Z" fill="#0F0F0F"/>
</svg>
