<svg width="36" height="33" viewBox="0 0 36 33" fill="none" xmlns="http://www.w3.org/2000/svg">
<path d="M3.93359 26.0332H32.0791C34.542 26.0332 35.8115 24.7637 35.8115 22.3135V10.0371C35.8115 7.59961 34.542 6.33008 32.0791 6.33008H3.93359C1.44531 6.33008 0.188477 7.58691 0.188477 10.0371V22.3135C0.188477 24.7764 1.44531 26.0332 3.93359 26.0332ZM3.95898 24.459C2.53711 24.459 1.7627 23.6973 1.7627 22.2373V10.126C1.7627 8.65332 2.53711 7.9043 3.95898 7.9043H32.041C33.4375 7.9043 34.25 8.65332 34.25 10.126V22.2373C34.25 23.6973 33.4375 24.459 32.041 24.459H3.95898ZM29.7432 12.9951H30.6572C30.9746 12.9951 31.127 12.8428 31.127 12.5254V11.6113C31.127 11.2812 30.9746 11.1416 30.6572 11.1416H29.7432C29.4131 11.1416 29.2734 11.2812 29.2734 11.6113V12.5254C29.2734 12.8428 29.4131 12.9951 29.7432 12.9951ZM5.24121 12.9951H6.15527C6.47266 12.9951 6.625 12.8428 6.625 12.5254V11.6113C6.625 11.2812 6.47266 11.1416 6.15527 11.1416H5.24121C4.91113 11.1416 4.77148 11.2812 4.77148 11.6113V12.5254C4.77148 12.8428 4.91113 12.9951 5.24121 12.9951ZM25.6553 12.9951H26.5693C26.8994 12.9951 27.0391 12.8428 27.0391 12.5254V11.6113C27.0391 11.2812 26.8994 11.1416 26.5693 11.1416H25.6553C25.3379 11.1416 25.1855 11.2812 25.1855 11.6113V12.5254C25.1855 12.8428 25.3379 12.9951 25.6553 12.9951ZM9.3291 12.9951H10.2305C10.5605 12.9951 10.7129 12.8428 10.7129 12.5254V11.6113C10.7129 11.2812 10.5605 11.1416 10.2305 11.1416H9.3291C8.99902 11.1416 8.84668 11.2812 8.84668 11.6113V12.5254C8.84668 12.8428 8.99902 12.9951 9.3291 12.9951ZM21.5801 12.9951H22.4814C22.8115 12.9951 22.9639 12.8428 22.9639 12.5254V11.6113C22.9639 11.2812 22.8115 11.1416 22.4814 11.1416H21.5801C21.25 11.1416 21.0977 11.2812 21.0977 11.6113V12.5254C21.0977 12.8428 21.25 12.9951 21.5801 12.9951ZM13.4043 12.9951H14.3184C14.6484 12.9951 14.7881 12.8428 14.7881 12.5254V11.6113C14.7881 11.2812 14.6484 11.1416 14.3184 11.1416H13.4043C13.0869 11.1416 12.9346 11.2812 12.9346 11.6113V12.5254C12.9346 12.8428 13.0869 12.9951 13.4043 12.9951ZM17.4922 12.9951H18.4062C18.7236 12.9951 18.876 12.8428 18.876 12.5254V11.6113C18.876 11.2812 18.7236 11.1416 18.4062 11.1416H17.4922C17.1621 11.1416 17.0225 11.2812 17.0225 11.6113V12.5254C17.0225 12.8428 17.1621 12.9951 17.4922 12.9951ZM29.7432 17.0703H30.6572C30.9746 17.0703 31.127 16.9307 31.127 16.6006V15.6992C31.127 15.3691 30.9746 15.2168 30.6572 15.2168H29.7432C29.4131 15.2168 29.2734 15.3691 29.2734 15.6992V16.6006C29.2734 16.9307 29.4131 17.0703 29.7432 17.0703ZM25.6553 17.0703H26.5693C26.8994 17.0703 27.0391 16.9307 27.0391 16.6006V15.6992C27.0391 15.3691 26.8994 15.2168 26.5693 15.2168H25.6553C25.3379 15.2168 25.1855 15.3691 25.1855 15.6992V16.6006C25.1855 16.9307 25.3379 17.0703 25.6553 17.0703ZM21.5801 17.0703H22.4814C22.8115 17.0703 22.9639 16.9307 22.9639 16.6006V15.6992C22.9639 15.3691 22.8115 15.2168 22.4814 15.2168H21.5801C21.25 15.2168 21.0977 15.3691 21.0977 15.6992V16.6006C21.0977 16.9307 21.25 17.0703 21.5801 17.0703ZM17.4922 17.0703H18.4062C18.7236 17.0703 18.876 16.9307 18.876 16.6006V15.6992C18.876 15.3691 18.7236 15.2168 18.4062 15.2168H17.4922C17.1621 15.2168 17.0225 15.3691 17.0225 15.6992V16.6006C17.0225 16.9307 17.1621 17.0703 17.4922 17.0703ZM13.4043 17.0703H14.3184C14.6484 17.0703 14.7881 16.9307 14.7881 16.6006V15.6992C14.7881 15.3691 14.6484 15.2168 14.3184 15.2168H13.4043C13.0869 15.2168 12.9346 15.3691 12.9346 15.6992V16.6006C12.9346 16.9307 13.0869 17.0703 13.4043 17.0703ZM9.3291 17.0703H10.2305C10.5605 17.0703 10.7129 16.9307 10.7129 16.6006V15.6992C10.7129 15.3691 10.5605 15.2168 10.2305 15.2168H9.3291C8.99902 15.2168 8.84668 15.3691 8.84668 15.6992V16.6006C8.84668 16.9307 8.99902 17.0703 9.3291 17.0703ZM5.24121 17.0703H6.15527C6.47266 17.0703 6.625 16.9307 6.625 16.6006V15.6992C6.625 15.3691 6.47266 15.2168 6.15527 15.2168H5.24121C4.91113 15.2168 4.77148 15.3691 4.77148 15.6992V16.6006C4.77148 16.9307 4.91113 17.0703 5.24121 17.0703ZM9.3291 21.1582H26.5693C26.8994 21.1582 27.0391 21.0186 27.0391 20.6885V19.7744C27.0391 19.457 26.8994 19.3047 26.5693 19.3047H9.3291C8.99902 19.3047 8.84668 19.457 8.84668 19.7744V20.6885C8.84668 21.0186 8.99902 21.1582 9.3291 21.1582ZM29.7432 21.1582H30.6572C30.9746 21.1582 31.127 21.0186 31.127 20.6885V19.7744C31.127 19.457 30.9746 19.3047 30.6572 19.3047H29.7432C29.4131 19.3047 29.2734 19.457 29.2734 19.7744V20.6885C29.2734 21.0186 29.4131 21.1582 29.7432 21.1582ZM5.24121 21.1582H6.15527C6.47266 21.1582 6.625 21.0186 6.625 20.6885V19.7744C6.625 19.457 6.47266 19.3047 6.15527 19.3047H5.24121C4.91113 19.3047 4.77148 19.457 4.77148 19.7744V20.6885C4.77148 21.0186 4.91113 21.1582 5.24121 21.1582ZM17.4668 32.8252C17.835 32.8252 18.3174 32.6221 18.6982 32.4951L25.6426 29.8037C26.0107 29.6768 26.1504 29.3467 26.1504 29.1309C26.1504 28.6738 25.833 28.2803 25.3252 28.2803C25.0967 28.2803 24.7539 28.4199 24.5381 28.4961L17.4795 31.2383L10.4082 28.4961C10.1924 28.4199 9.8623 28.2803 9.62109 28.2803C9.15137 28.2803 8.7959 28.6611 8.7959 29.1309C8.7959 29.3467 8.93555 29.6768 9.31641 29.8037L16.2607 32.4951C16.6416 32.6348 17.0986 32.8252 17.4668 32.8252Z" fill="black"/>
</svg>
