<svg width="32" height="32" viewBox="0 0 32 32" fill="none" xmlns="http://www.w3.org/2000/svg">
<path d="M16.0002 2.50038C13.3302 2.50038 10.7201 3.29214 8.50005 4.77554C6.27999 6.25894 4.54966 8.36735 3.52788 10.8342C2.50609 13.301 2.23875 16.0154 2.75965 18.6341C3.28055 21.2528 4.5663 23.6583 6.45431 25.5463C8.34232 27.4343 10.7478 28.7201 13.3665 29.241C15.9853 29.7619 18.6997 29.4945 21.1665 28.4728C23.6333 27.451 25.7417 25.7206 27.2251 23.5006C28.7085 21.2805 29.5002 18.6704 29.5002 16.0004C29.4963 12.4212 28.0728 8.98965 25.5419 6.45875C23.011 3.92786 19.5795 2.50429 16.0002 2.50038ZM28.4749 15.5004H22.4522C22.2056 11.24 20.7276 7.14274 18.1976 3.706C20.9966 4.2101 23.5401 5.65331 25.4085 7.7975C27.2769 9.94169 28.3585 12.6587 28.4749 15.5004ZM16.5002 28.4751V16.5004H21.5306C21.3338 20.9121 19.651 25.1276 16.7558 28.4621C16.6708 28.4672 16.5857 28.4716 16.5002 28.4751ZM15.2383 28.4618C12.3577 25.1246 10.6999 20.9058 10.5378 16.5004H15.5002V28.4751C15.4127 28.4716 15.3253 28.4672 15.2383 28.4618ZM15.5003 3.52571V15.5004H10.5471C10.8121 11.1225 12.4462 6.9386 15.2185 3.54C15.3122 3.5342 15.4061 3.52944 15.5003 3.52571ZM16.5002 15.5004V3.52571C16.603 3.5298 16.7056 3.53471 16.8078 3.54128C19.6208 6.91945 21.2747 11.1116 21.526 15.5004H16.5002ZM13.8229 3.703C11.275 7.13359 9.78557 11.2343 9.53803 15.5004H3.52558C3.64217 12.6553 4.72633 9.9353 6.59876 7.79011C8.47119 5.64491 11.0197 4.20306 13.8229 3.703ZM3.52558 16.5004H9.52802C9.66361 20.7966 11.1795 24.9349 13.8511 28.3021C11.042 27.8078 8.48637 26.3678 6.60825 24.2211C4.73013 22.0745 3.64241 19.3502 3.52558 16.5004ZM18.1428 28.3032C20.815 24.9361 22.3299 20.7969 22.4625 16.5004H28.4749C28.358 19.3514 27.2695 22.0766 25.39 24.2236C23.5105 26.3706 20.9532 27.8101 18.1428 28.3032Z" fill="#0F0F0F"/>
</svg>
