<svg width="32" height="32" viewBox="0 0 32 32" fill="none" xmlns="http://www.w3.org/2000/svg">
<path d="M28.9971 21.1812C29.2437 21.3016 29.4592 21.4772 29.6269 21.6943C29.7932 21.9069 29.9084 22.1548 29.9634 22.419C30.0184 22.6832 30.0119 22.9565 29.9442 23.2178C29.6628 24.3053 29.0266 25.2678 28.1363 25.9529C27.246 26.638 26.1526 27.0065 25.0292 27H6.97063C5.84692 27.0064 4.75321 26.6376 3.86274 25.9522C2.97228 25.2667 2.33598 24.3037 2.05463 23.2158C1.98753 22.9548 1.98134 22.6818 2.03654 22.418C2.09174 22.1542 2.20686 21.9066 2.37299 21.6943C2.54076 21.4772 2.75629 21.3016 3.00287 21.1812C3.24945 21.0608 3.52046 20.9988 3.79486 21H28.2051C28.4795 20.9988 28.7505 21.0608 28.9971 21.1812Z" fill="#0F0F0F"/>
<path d="M26.5614 6.53376C27.4988 7.49634 28.0161 8.79135 27.9999 10.1348V19H3.99994L3.99994 10.1348C3.98382 8.79135 4.50113 7.49634 5.43844 6.53376C6.37575 5.57118 7.65654 5.01961 8.99995 5H22.9999C24.3433 5.01961 25.6241 5.57118 26.5614 6.53376Z" fill="#0F0F0F"/>
</svg>
