<svg width="32" height="32" viewBox="0 0 32 32" fill="none" xmlns="http://www.w3.org/2000/svg">
<path d="M17.2832 1.04094C17.7083 1.16647 18 1.5568 18 2V12H26C26.3663 12 26.7034 12.2003 26.8784 12.5221C27.0535 12.8439 27.0386 13.2357 26.8396 13.5432L15.8396 30.5432C15.5988 30.9153 15.1418 31.0846 14.7168 30.9591C14.2917 30.8335 14 30.4432 14 30V20H6C5.63366 20 5.29665 19.7997 5.12158 19.4779C4.94651 19.1561 4.96142 18.7643 5.16043 18.4567L16.1604 1.45675C16.4012 1.08465 16.8582 0.915418 17.2832 1.04094ZM7.83815 18H15C15.5523 18 16 18.4477 16 19V26.6138L24.1619 14H17C16.4477 14 16 13.5523 16 13V5.38622L7.83815 18Z" fill="#0F0F0F"/>
</svg>
