<svg width="32" height="32" viewBox="0 0 32 32" fill="none" xmlns="http://www.w3.org/2000/svg">
<path d="M24.417 28.1279C25.3945 27.8867 26.3721 27.2646 26.3721 26.0713C26.3721 25.5762 26.2451 25.2334 26.0674 24.9414C25.9785 24.7891 25.9912 24.6621 26.1309 24.5986C26.918 24.2432 27.5781 23.5449 27.5781 22.542C27.5781 21.9707 27.4258 21.4629 27.1338 21.1074C26.9941 20.9043 27.0322 20.752 27.248 20.625C27.832 20.2949 28.2129 19.5713 28.2129 18.7461C28.2129 18.1621 28.0225 17.5273 27.6797 17.2227C27.4893 17.0449 27.5273 16.9307 27.7432 16.7529C28.1494 16.4355 28.3779 15.8389 28.3779 15.1279C28.3779 13.8965 27.4258 12.9062 26.1689 12.9062H21.7129C20.583 12.9062 19.8213 12.3223 19.8213 11.3955C19.8213 9.66895 21.9541 6.57129 21.9541 4.32422C21.9541 3.15625 21.1924 2.4707 20.2021 2.4707C19.3008 2.4707 18.8564 3.09277 18.3613 4.04492C16.4951 7.71387 13.9814 10.6846 12.0518 13.2236C10.4268 15.3945 9.62695 17.2227 9.60156 20.2188C9.55078 24.8271 13.2705 28.3564 19.1484 28.3945L20.875 28.4072C22.5254 28.4199 23.7188 28.3057 24.417 28.1279ZM3.60938 20.3203C3.60938 24.0654 5.90723 27.2012 9.04297 27.2012H11.5059C9.15723 25.5889 8.07812 23.0879 8.11621 20.1807C8.16699 16.918 9.41113 14.7471 10.4521 13.376H8.57324C5.74219 13.376 3.60938 16.4102 3.60938 20.3203Z" fill="black"/>
</svg>
