<svg width="32" height="32" viewBox="0 0 32 32" fill="none" xmlns="http://www.w3.org/2000/svg">
<path d="M18.8184 29.2705H20.5449C22.1064 29.2705 23.4268 29.1816 24.29 28.9658C25.9023 28.5596 26.8926 27.4805 26.8926 26.0713C26.8926 25.7031 26.8291 25.373 26.7021 25.0557C27.5908 24.4844 28.0986 23.5576 28.0986 22.542C28.0986 21.9834 27.9844 21.4502 27.7559 21.0439C28.3652 20.5234 28.7334 19.6602 28.7334 18.7461C28.7334 18.124 28.5557 17.4766 28.2637 17.0576C28.6699 16.5879 28.8984 15.9023 28.8984 15.1279C28.8984 13.4014 27.5527 12.043 25.8389 12.043H21.1924C20.6719 12.043 20.3545 11.8018 20.3545 11.3955C20.3545 9.94824 22.4873 6.7998 22.4873 4.32422C22.4873 2.75 21.3828 1.60742 19.8721 1.60742C18.7422 1.60742 18.0059 2.2041 17.2568 3.65137C15.6953 6.67285 14.1211 8.80566 10.9473 12.792H8.54785C5.56445 12.792 3.10156 16.1689 3.10156 20.3965C3.10156 24.5605 5.80566 27.9375 9.01758 27.9375H13.1182C14.7178 28.7754 16.6602 29.2705 18.8184 29.2705ZM20.5576 27.7852L18.8311 27.7725C13.5117 27.7217 9.89355 24.7002 9.89355 20.3711C9.89355 17.6416 10.5029 15.877 12.2168 13.5918C14.1084 11.0654 16.6982 8.06934 18.5771 4.33691C19.0977 3.32129 19.3896 3.09277 19.8721 3.09277C20.5703 3.09277 21.002 3.5498 21.002 4.32422C21.002 6.39355 18.8691 9.47852 18.8691 11.3955C18.8691 12.7031 19.9482 13.5283 21.3828 13.5283H25.8389C26.7402 13.5283 27.4131 14.2266 27.4131 15.1279C27.4131 15.7246 27.2227 16.1436 26.7783 16.5498C26.626 16.6895 26.5625 16.8418 26.5625 16.9941C26.5625 17.1084 26.6133 17.2354 26.7148 17.3496C27.083 17.8193 27.248 18.2383 27.248 18.7461C27.248 19.3682 26.9561 19.9268 26.4229 20.2949C26.1816 20.4727 26.0547 20.6631 26.0547 20.8789C26.0547 20.9678 26.0928 21.0693 26.1562 21.1836C26.4609 21.7422 26.6133 22.0596 26.6133 22.542C26.6133 23.2402 26.1816 23.7988 25.3184 24.2178C25.1279 24.3193 25.0137 24.4717 25.0137 24.6621C25.0137 24.751 25.0391 24.8398 25.0898 24.9414C25.3564 25.5508 25.4072 25.7285 25.4072 26.0713C25.4072 26.7441 24.9121 27.2773 23.9346 27.5186C23.1982 27.709 22.0049 27.7979 20.5576 27.7852ZM9.01758 26.4521C6.66895 26.4521 4.58691 23.7354 4.58691 20.3965C4.58691 16.9814 6.46582 14.2773 8.54785 14.2773H9.96973C8.86523 16.1689 8.4082 18.0098 8.4082 20.3457C8.4082 22.8213 9.38574 24.9414 11.1123 26.4521H9.01758Z" fill="black"/>
</svg>
