<svg width="32" height="32" viewBox="0 0 32 32" fill="none" xmlns="http://www.w3.org/2000/svg">
<path d="M25 10.9967L17.999 10.9977L18 6.9986C17.9997 6.27035 17.7344 5.56709 17.2538 5.01998C16.7732 4.47287 16.1099 4.11928 15.3878 4.02514C14.6656 3.93101 13.9339 4.10277 13.3291 4.50839C12.7242 4.914 12.2876 5.52577 12.1006 6.2296C11.209 9.565 10.375 12.6383 10.0059 13.9996L7 13.9967C5.93948 13.9978 4.92273 14.4196 4.17283 15.1695C3.42293 15.9194 3.00114 16.9362 3 17.9967V23.9967C3.00114 25.0572 3.42293 26.074 4.17283 26.8239C4.92273 27.5738 5.93948 27.9956 7 27.9967H21.001C23.1226 27.9964 25.1571 27.1535 26.6572 25.6532C28.1573 24.1529 29 22.1183 29 19.9967V14.9967C28.9989 13.9362 28.5771 12.9194 27.8272 12.1695C27.0773 11.4196 26.0605 10.9978 25 10.9967ZM5 23.9967V17.9967C5.00056 17.4666 5.21131 16.9584 5.58605 16.5835C5.96078 16.2085 6.46891 15.9975 6.999 15.9967L10 15.9994V25.9966H7C6.46977 25.996 5.96143 25.7851 5.58649 25.4102C5.21156 25.0353 5.00064 24.5269 5 23.9967ZM27 19.9967C27 21.588 26.3679 23.1141 25.2426 24.2393C24.1174 25.3646 22.5913 25.9967 21 25.9967H11.9999V14.2867C12.3962 12.828 13.1874 9.9078 14.0321 6.746C14.0933 6.51043 14.2383 6.30525 14.4399 6.16893C14.6415 6.0326 14.8859 5.97449 15.1273 6.00547C15.3687 6.03646 15.5905 6.15442 15.7512 6.33725C15.9118 6.52008 16.0003 6.75522 16 6.9986L15.9989 11.4C15.9855 11.6048 16.0143 11.8102 16.0835 12.0034C16.1527 12.1966 16.2608 12.3736 16.4012 12.5233C16.5415 12.6731 16.7111 12.7925 16.8994 12.8741C17.0877 12.9557 17.2908 12.9977 17.496 12.9977L25 12.9967C25.5302 12.9973 26.0386 13.2082 26.4135 13.5832C26.7885 13.9581 26.9994 14.4665 27 14.9967V19.9967Z" fill="#0F0F0F"/>
</svg>
