<svg width="32" height="32" viewBox="0 0 32 32" fill="none" xmlns="http://www.w3.org/2000/svg">
<path d="M4.72656 12.2969H27.2607C27.6924 12.2969 28.0479 11.9541 28.0479 11.5098C28.0479 11.0781 27.6924 10.7354 27.2607 10.7354H4.72656C4.28223 10.7354 3.93945 11.0781 3.93945 11.5098C3.93945 11.9541 4.28223 12.2969 4.72656 12.2969ZM4.72656 17.6543H27.2607C27.6924 17.6543 28.0479 17.2988 28.0479 16.8672C28.0479 16.4229 27.6924 16.0801 27.2607 16.0801H4.72656C4.28223 16.0801 3.93945 16.4229 3.93945 16.8672C3.93945 17.2988 4.28223 17.6543 4.72656 17.6543ZM4.72656 22.999H27.2607C27.6924 22.999 28.0479 22.6562 28.0479 22.2119C28.0479 21.7803 27.6924 21.4375 27.2607 21.4375H4.72656C4.28223 21.4375 3.93945 21.7803 3.93945 22.2119C3.93945 22.6562 4.28223 22.999 4.72656 22.999Z" fill="black"/>
</svg>
