<svg width="32" height="32" viewBox="0 0 32 32" fill="none" xmlns="http://www.w3.org/2000/svg">
<path d="M10.6468 21.3534C10.7405 21.4471 10.8677 21.4998 11.0003 21.4998C11.1328 21.4998 11.26 21.4471 11.3538 21.3534L21.3538 11.3534C21.4448 11.2591 21.4952 11.1328 21.4941 11.0017C21.4929 10.8706 21.4404 10.7452 21.3477 10.6525C21.255 10.5598 21.1295 10.5072 20.9985 10.5061C20.8674 10.5049 20.7411 10.5553 20.6468 10.6464L10.6468 20.6464C10.553 20.7402 10.5004 20.8673 10.5004 20.9999C10.5004 21.1325 10.553 21.2596 10.6468 21.3534Z" fill="#0F0F0F"/>
<path d="M18.0201 20.5C17.8881 20.4909 17.7579 20.5338 17.6573 20.6197C17.5567 20.7055 17.4938 20.8273 17.482 20.959C17.3678 22.3759 16.7534 23.7059 15.7486 24.7114L13.7113 26.748C13.1558 27.3034 12.4964 27.744 11.7707 28.0446C11.045 28.3452 10.2672 28.4999 9.48175 28.4999C7.89538 28.4999 6.37399 27.8697 5.25225 26.748C4.13052 25.6263 3.50034 24.1049 3.50034 22.5185C3.50034 20.9321 4.13052 19.4107 5.25225 18.289L7.28935 16.2519C8.29411 15.2472 9.62369 14.6329 11.0401 14.519C11.1723 14.5084 11.2949 14.4457 11.3809 14.3447C11.4669 14.2437 11.5092 14.1127 11.4986 13.9804C11.488 13.8482 11.4253 13.7256 11.3243 13.6396C11.2233 13.5536 11.0923 13.5113 10.9601 13.5219C9.30676 13.6546 7.75476 14.3718 6.58215 15.5448L4.54515 17.5819C3.2359 18.8912 2.50037 20.6669 2.50037 22.5185C2.50037 24.37 3.2359 26.1457 4.54515 27.455C5.85441 28.7643 7.63014 29.4998 9.4817 29.4998C11.3333 29.4998 13.109 28.7643 14.4183 27.455L16.4554 25.4184C17.6284 24.245 18.3454 22.6923 18.4779 21.0384C18.4832 20.973 18.4756 20.9071 18.4555 20.8447C18.4354 20.7822 18.4031 20.7243 18.3606 20.6743C18.3181 20.6243 18.2661 20.5831 18.2077 20.5532C18.1492 20.5233 18.0855 20.5052 18.0201 20.5Z" fill="#0F0F0F"/>
<path d="M27.4554 4.5448C26.145 3.23769 24.3697 2.50365 22.5189 2.50365C20.668 2.50365 18.8927 3.23769 17.5824 4.5448L15.5579 6.5693C14.3407 7.72108 13.6119 9.296 13.5218 10.9693C13.5134 11.1016 13.5578 11.2319 13.6453 11.3315C13.7328 11.4311 13.8563 11.4919 13.9886 11.5006C14.1198 11.5046 14.2477 11.4587 14.3463 11.372C14.4449 11.2854 14.507 11.1645 14.5199 11.0338C14.5953 9.60945 15.2156 8.26866 16.2523 7.289L18.2894 5.2519C19.4126 4.13713 20.9318 3.51291 22.5143 3.51592C24.0969 3.51893 25.6137 4.14894 26.7327 5.26798C27.8517 6.38702 28.4816 7.90388 28.4845 9.4864C28.4875 11.0689 27.8632 12.5881 26.7484 13.7113L24.7113 15.748C23.7064 16.7527 22.3767 17.367 20.9603 17.4809C20.8314 17.4909 20.7113 17.5504 20.6254 17.647C20.5395 17.7436 20.4943 17.8697 20.4993 17.9989C20.5044 18.1281 20.5593 18.2503 20.6525 18.3399C20.7457 18.4295 20.87 18.4795 20.9993 18.4794C21.013 18.4794 21.0267 18.4789 21.0404 18.4779C22.6936 18.3448 24.2454 17.6277 25.4183 16.455L27.4554 14.4184C28.763 13.1082 29.4974 11.3327 29.4974 9.4816C29.4974 7.6305 28.763 5.85502 27.4554 4.5448Z" fill="#0F0F0F"/>
</svg>
