<svg width="32" height="32" viewBox="0 0 32 32" fill="none" xmlns="http://www.w3.org/2000/svg">
<path d="M4.30762 17.1719L14.375 17.21C14.5273 17.21 14.6035 17.2861 14.6035 17.4385L14.6289 27.5059C14.6289 28.4453 15.0732 29.207 15.8604 29.207C16.6094 29.207 17.0283 28.5469 17.3838 27.7725L27.3242 6.46973C27.5146 6.06348 27.6035 5.70801 27.6035 5.40332C27.6035 4.75586 27.1084 4.22266 26.4102 4.22266C26.1055 4.22266 25.75 4.31152 25.3438 4.50195L4.04102 14.4297C3.30469 14.7598 2.59375 15.2041 2.59375 15.9531C2.59375 16.7148 3.31738 17.1719 4.30762 17.1719Z" fill="black"/>
</svg>
