<svg width="32" height="32" viewBox="0 0 32 32" fill="none" xmlns="http://www.w3.org/2000/svg">
<path d="M24.0488 24.0908C25.3438 21.8184 25.8643 19.3682 26.2197 18.2002C26.6006 16.9561 27.3242 15.3691 27.3242 14.5186C27.3242 13.9727 26.6006 13.5029 26.1309 13.5029C25.0391 13.5029 24.6328 13.9854 23.998 15.3438C23.2998 16.8418 22.4365 19.6348 21.7637 19.6348C21.3701 19.6348 21.2305 18.9365 21.2305 17.6162V5.50488C21.2305 4.84473 20.8369 4.23535 19.9863 4.23535C19.1357 4.23535 18.7168 4.84473 18.7168 5.50488V15.4199C18.3232 15.3057 17.8662 15.2168 17.3584 15.1533V3.85449C17.3584 3.18164 16.9268 2.59766 16.0889 2.59766C15.251 2.59766 14.8447 3.18164 14.8447 3.85449V14.9502L24.0488 24.0908ZM13.4736 13.5918V4.81934C13.4736 4.15918 13.042 3.5498 12.2168 3.5498C11.3916 3.5498 10.96 4.15918 10.96 4.81934V11.0781L13.4736 13.5918ZM24.6074 28.8262C24.9121 29.1182 25.4072 29.1182 25.6865 28.8262C25.9912 28.5088 25.9785 28.0391 25.6865 27.7471L4.0918 6.17773C3.7998 5.87305 3.30469 5.87305 3.0127 6.17773C2.7207 6.45703 2.7207 6.96484 3.0127 7.24414L24.6074 28.8262ZM9.58887 9.71973V8.39941C9.58887 7.73926 9.19531 7.12988 8.35742 7.12988C7.93848 7.12988 7.6084 7.33301 7.49414 7.58691L9.58887 9.71973ZM7.0752 20.4219C7.0752 26.6045 10.5156 29.3721 15.2891 29.3721C17.7646 29.3721 19.707 28.7119 21.3066 27.4551L7.0752 13.2236V20.4219Z" fill="black"/>
</svg>
