<svg width="32" height="32" viewBox="0 0 32 32" fill="none" xmlns="http://www.w3.org/2000/svg">
<path d="M16.8799 17.9406L16.8782 17.9426L17.9443 19.0086L17.9459 19.0065L22.4432 23.5039L22.4423 23.5067L23.6118 24.6761L23.6129 24.6735L28.4697 29.5303C28.7626 29.8232 29.2374 29.8232 29.5303 29.5303C29.8232 29.2374 29.8232 28.7626 29.5303 28.4697L24.1023 23.0416C24.1986 22.5356 24.2481 22.0184 24.2481 21.4964L24.2488 16.2778C24.2491 15.8373 24.2495 15.246 24.2497 14.6431C24.25 13.4445 24.2495 12.1802 24.2458 11.9839C24.2358 11.468 24.0703 11.0443 23.8267 10.7804L23.8168 10.7694C23.7626 10.7091 23.5845 10.5106 23.2848 10.3827C22.954 10.2415 22.5572 10.2139 22.0962 10.328C21.7784 10.405 21.4967 10.5314 21.2494 10.6973V5.49952C21.2494 4.90293 21.0124 4.33071 20.5906 3.90878C20.1688 3.48685 19.5966 3.24981 19 3.24981C18.6523 3.24981 18.313 3.33031 18.0068 3.48098C17.9005 3.27156 17.761 3.07818 17.5919 2.90898C17.17 2.48704 16.5979 2.25 16.0012 2.25C15.4046 2.25 14.8325 2.48704 14.4106 2.90898C14.2415 3.07818 14.102 3.27156 13.9957 3.48098C13.6895 3.33031 13.3502 3.24981 13.0025 3.24981C12.4059 3.24981 11.8337 3.48685 11.4119 3.90878C10.9901 4.33071 10.7531 4.90293 10.7531 5.49952V6.37774C10.5147 6.29347 10.2615 6.24923 10.0037 6.24923C9.40714 6.24923 8.83497 6.48627 8.41313 6.90821C8.33849 6.98286 8.2695 7.06231 8.20651 7.14585L3.53033 2.46967C3.23744 2.17678 2.76256 2.17678 2.46967 2.46967C2.17678 2.76256 2.17678 3.23744 2.46967 3.53033L7.75218 8.81284V8.81652L9.25191 10.3162L9.25191 10.3126L10.7531 11.8138V11.8175L12.2531 13.3175V13.3138L16.8799 17.9406ZM16.0012 3.75C16.2 3.75 16.3905 3.82895 16.5311 3.96952C16.6716 4.11009 16.7506 4.30081 16.7506 4.49971V12.9981C16.7506 13.4123 17.0864 13.7481 17.5006 13.7481C17.9148 13.7481 18.2506 13.4123 18.2506 12.9981V5.49952C18.2506 5.30061 18.3296 5.1099 18.4702 4.96932C18.6107 4.82876 18.8013 4.74981 19 4.74981C19.1987 4.74981 19.3893 4.82876 19.5298 4.96932C19.6704 5.1099 19.7494 5.30061 19.7494 5.49952V16.3188C19.1361 16.4184 18.5491 16.637 18.0215 16.9609L14.7623 13.7016C15.0481 13.5958 15.2519 13.3207 15.2519 12.9981V4.49971C15.2519 4.30081 15.3309 4.11009 15.4714 3.96952C15.6119 3.82895 15.8025 3.75 16.0012 3.75ZM12.2531 11.1925V5.49952C12.2531 5.30061 12.3321 5.1099 12.4727 4.96932C12.6132 4.82876 12.8038 4.74981 13.0025 4.74981C13.2012 4.74981 13.3918 4.82876 13.5323 4.96932C13.6729 5.1099 13.7519 5.30061 13.7519 5.49952V12.6912L12.2531 11.1925ZM10.7531 9.69246L9.29962 8.23896C9.3371 8.1391 9.39606 8.04662 9.47391 7.96875C9.61445 7.82818 9.80504 7.74923 10.0037 7.74923C10.2025 7.74923 10.3931 7.82818 10.5336 7.96875C10.6741 8.10932 10.7531 8.30003 10.7531 8.49894V9.69246ZM22.7455 21.6848L19.1269 18.0663C19.5533 17.8662 20.0219 17.7589 20.5018 17.7573C20.9151 17.756 21.2494 17.4206 21.2494 17.0073V14.5678C21.2494 13.7031 21.3744 13.0242 21.5964 12.5536C21.8073 12.1064 22.0886 11.873 22.4507 11.7855L22.4555 11.7843C22.5615 11.758 22.6272 11.7558 22.6608 11.7575C22.6752 11.7583 22.6849 11.7598 22.6906 11.761L22.7048 11.7764C22.7069 11.781 22.7095 11.7874 22.7126 11.7958C22.7257 11.8324 22.7439 11.903 22.746 12.0127C22.7494 12.1898 22.75 13.43 22.7497 14.6426C22.7495 15.2452 22.7491 15.8362 22.7488 16.2766L22.7481 21.4964C22.7481 21.5593 22.7472 21.6221 22.7455 21.6848Z" fill="#0F0F0F"/>
<path d="M9.25126 12.4369L7.75173 10.9374L7.75115 12.726C7.75004 16.0759 7.74885 19.6761 7.75217 19.9983L7.75215 21.4964C7.75215 23.6841 8.62318 25.7871 10.1697 27.334C11.7163 28.8809 13.814 29.75 16.0012 29.75C18.1885 29.75 20.2861 28.8809 21.8326 27.334C22.2243 26.9423 22.5724 26.5149 22.874 26.0596L21.7866 24.9723C21.5051 25.4424 21.1653 25.88 20.7719 26.2734C19.5066 27.539 17.7906 28.25 16.0012 28.25C14.2119 28.25 12.4958 27.539 11.2305 26.2734C9.96518 25.0078 9.25215 23.2863 9.25215 21.4964L9.25217 19.9967C9.25217 19.9896 9.25207 19.9825 9.25187 19.9753L9.25134 19.8746L9.25074 19.5949C9.2504 19.3578 9.25018 19.0246 9.25007 18.6183C9.24984 17.8058 9.24999 16.7022 9.25031 15.4947L9.25126 12.4369Z" fill="#0F0F0F"/>
<path d="M16.084 19.2697L17.2957 20.4813C17.2667 20.6546 17.2516 20.831 17.251 21.009C17.2497 21.4232 16.9128 21.7579 16.4986 21.7565C16.0844 21.7552 15.7497 21.4183 15.751 21.0041C15.753 20.4045 15.8679 19.8169 16.084 19.2697Z" fill="#0F0F0F"/>
</svg>
