<svg width="32" height="32" viewBox="0 0 32 32" fill="none" xmlns="http://www.w3.org/2000/svg">
<path d="M16.5004 28.2497C14.7108 28.2476 12.9951 27.5358 11.7297 26.2704C10.4643 25.005 9.75249 23.2893 9.75037 21.4997L9.7497 12.9302L8.24964 11.4302L8.25037 21.4997C8.24831 23.2417 8.79832 24.9395 9.82143 26.3493C10.8445 27.7591 12.2881 28.8085 13.9448 29.3466C15.6016 29.8848 17.3862 29.8841 19.0425 29.3446C20.6988 28.8052 22.1416 27.7547 23.1636 26.3441L22.0936 25.2741C21.476 26.1899 20.6431 26.9402 19.6679 27.459C18.6926 27.9779 17.605 28.2494 16.5004 28.2497Z" fill="#0F0F0F"/>
<path d="M17.7504 21.0056C17.7504 20.9823 17.7567 20.9608 17.7572 20.9377L16.4671 19.6476C16.3286 20.0872 16.2556 20.5448 16.2504 21.0056C16.2504 21.2045 16.3294 21.3953 16.47 21.5359C16.6107 21.6766 16.8015 21.7556 17.0004 21.7556C17.1993 21.7556 17.39 21.6766 17.5307 21.5359C17.6714 21.3953 17.7504 21.2045 17.7504 21.0056Z" fill="#0F0F0F"/>
<path d="M29.5306 28.4695L24.5073 23.4461C24.667 22.8096 24.7486 22.156 24.7504 21.4997V11.9997C24.7749 11.7295 24.7312 11.4574 24.6233 11.2085C24.5154 10.9595 24.3467 10.7417 24.1326 10.5749C23.9186 10.4081 23.6661 10.2977 23.3983 10.2539C23.1306 10.21 22.8561 10.2342 22.6 10.324C22.2968 10.397 22.0091 10.5237 21.7504 10.698V5.49973C21.7504 5.11735 21.6529 4.74128 21.4672 4.40702C21.2815 4.07276 21.0137 3.79135 20.689 3.58934C20.3643 3.38733 19.9935 3.27139 19.6116 3.25247C19.2297 3.23354 18.8493 3.31226 18.5062 3.48118C18.3182 3.1107 18.0313 2.79952 17.6772 2.58216C17.3232 2.36479 16.9158 2.24973 16.5004 2.24973C16.0849 2.24973 15.6776 2.36479 15.3235 2.58216C14.9695 2.79952 14.6825 3.1107 14.4945 3.48118C14.1515 3.31227 13.771 3.23356 13.3891 3.25249C13.0072 3.27142 12.6364 3.38736 12.3118 3.58937C11.9871 3.79138 11.7193 4.07279 11.5336 4.40704C11.3479 4.74129 11.2504 5.11735 11.2504 5.49973V6.37864C10.7415 6.19794 10.1844 6.20748 9.68204 6.40551C9.17966 6.60354 8.76591 6.97668 8.51721 7.456L3.53064 2.46946C3.38983 2.32967 3.19935 2.25138 3.00093 2.25174C2.80252 2.2521 2.61233 2.33109 2.47203 2.47139C2.33172 2.61169 2.25274 2.80188 2.25238 3.0003C2.25202 3.19871 2.33031 3.38919 2.4701 3.53L28.4701 29.53C28.5397 29.5999 28.6224 29.6553 28.7134 29.6932C28.8045 29.731 28.9021 29.7506 29.0007 29.7507C29.0993 29.7508 29.1969 29.7314 29.2881 29.6937C29.3792 29.656 29.462 29.6008 29.5317 29.531C29.6014 29.4613 29.6567 29.3785 29.6944 29.2874C29.7321 29.1963 29.7514 29.0986 29.7513 29C29.7512 28.9014 29.7317 28.8038 29.6938 28.7128C29.656 28.6217 29.6005 28.539 29.5306 28.4695ZM21.7504 17.0056V14.5652C21.7504 13.4275 21.9584 12.0222 22.9515 11.782C23.0189 11.7648 23.0881 11.7556 23.1576 11.7546C23.1869 11.7546 23.1996 11.7566 23.2074 11.7556C23.2418 11.8322 23.2566 11.9161 23.2504 11.9998V21.4998C23.2499 21.7185 23.2384 21.9371 23.216 22.1548L19.306 18.2449C19.8136 17.9259 20.4008 17.7563 21.0004 17.7556C21.1993 17.7555 21.39 17.6765 21.5306 17.5359C21.6713 17.3952 21.7503 17.2045 21.7504 17.0056ZM15.0004 13.7497C15.1993 13.7497 15.39 13.6706 15.5306 13.53C15.6713 13.3894 15.7503 13.1986 15.7504 12.9997V4.49973C15.7504 4.30082 15.8294 4.11005 15.97 3.9694C16.1107 3.82875 16.3015 3.74973 16.5004 3.74973C16.6993 3.74973 16.89 3.82875 17.0307 3.9694C17.1714 4.11005 17.2504 4.30082 17.2504 4.49973V12.9997C17.2504 13.1986 17.3294 13.3894 17.47 13.5301C17.6107 13.6707 17.8015 13.7497 18.0004 13.7497C18.1993 13.7497 18.39 13.6707 18.5307 13.5301C18.6714 13.3894 18.7504 13.1986 18.7504 12.9997V5.49973C18.7504 5.30082 18.8294 5.11005 18.97 4.9694C19.1107 4.82875 19.3015 4.74973 19.5004 4.74973C19.6993 4.74973 19.89 4.82875 20.0307 4.9694C20.1714 5.11005 20.2504 5.30082 20.2504 5.49973V16.3152C19.521 16.4383 18.832 16.7349 18.2412 17.18L14.7629 13.7018C14.8389 13.7308 14.9191 13.747 15.0004 13.7497ZM13.5004 4.74973C13.6992 4.75012 13.8897 4.82926 14.0303 4.96983C14.1708 5.1104 14.25 5.30094 14.2504 5.49973V12.9997C14.2531 13.081 14.2693 13.1612 14.2984 13.2372L12.7504 11.6892V5.49973C12.7508 5.30094 12.8299 5.11039 12.9705 4.96982C13.111 4.82925 13.3016 4.75011 13.5004 4.74973ZM9.74937 8.49583C9.75002 8.29678 9.82971 8.10615 9.97091 7.96586C10.1121 7.82557 10.3033 7.74712 10.5023 7.74777C10.7014 7.74842 10.892 7.82811 11.0323 7.96931C11.1726 8.11052 11.251 8.30166 11.2504 8.50071V10.1892L9.74937 8.68818V8.49583Z" fill="#0F0F0F"/>
</svg>
