<svg width="32" height="32" viewBox="0 0 32 32" fill="none" xmlns="http://www.w3.org/2000/svg">
<path d="M22.6467 19.6469L21.5 20.7941V10C21.4999 9.89911 21.4693 9.80061 21.4122 9.71743C21.3551 9.63426 21.2742 9.5703 21.1801 9.53396C21.086 9.49762 20.9831 9.49061 20.8849 9.51383C20.7867 9.53706 20.6979 9.58944 20.63 9.6641L16 14.768L11.37 9.664C11.3021 9.58934 11.2133 9.53695 11.1151 9.51373C11.0169 9.49051 10.914 9.49753 10.8199 9.53388C10.7257 9.57023 10.6448 9.6342 10.5877 9.7174C10.5306 9.80059 10.5001 9.8991 10.5 10V20C10.5 20.1326 10.5527 20.2598 10.6464 20.3536C10.7402 20.4473 10.8674 20.5 11 20.5C11.1326 20.5 11.2598 20.4473 11.3536 20.3536C11.4473 20.2598 11.5 20.1326 11.5 20V11.2953L15.63 15.8481C15.678 15.8977 15.7355 15.9371 15.7991 15.964C15.8627 15.9909 15.931 16.0047 16 16.0047C16.069 16.0047 16.1373 15.9909 16.2009 15.964C16.2645 15.9371 16.322 15.8977 16.37 15.8481L20.5 11.2953V20.7927L19.3535 19.6469C19.2592 19.5558 19.1329 19.5054 19.0018 19.5066C18.8707 19.5077 18.7453 19.5603 18.6526 19.653C18.5599 19.7457 18.5073 19.8711 18.5062 20.0022C18.505 20.1333 18.5554 20.2596 18.6465 20.3539L20.6474 22.3539C20.7412 22.4477 20.8683 22.5003 21.0009 22.5003C21.1336 22.5003 21.2607 22.4477 21.3545 22.3539L23.3535 20.3539C23.4446 20.2596 23.495 20.1333 23.4938 20.0022C23.4927 19.8711 23.4401 19.7457 23.3474 19.653C23.2547 19.5603 23.1293 19.5077 22.9982 19.5066C22.8671 19.5054 22.741 19.5558 22.6467 19.6469Z" fill="#0F0F0F"/>
<path d="M23 4.5H9C7.80692 4.5013 6.66308 4.97582 5.81945 5.81945C4.97582 6.66308 4.5013 7.80692 4.5 9V23C4.5013 24.1931 4.97582 25.3369 5.81945 26.1805C6.66308 27.0242 7.80692 27.4987 9 27.5H23C24.1931 27.4987 25.3369 27.0242 26.1805 26.1805C27.0242 25.3369 27.4987 24.1931 27.5 23V9C27.4987 7.80693 27.0241 6.66311 26.1805 5.81948C25.3369 4.97585 24.1931 4.50132 23 4.5ZM26.5 23C26.4989 23.9279 26.1298 24.8175 25.4736 25.4736C24.8175 26.1298 23.9279 26.4989 23 26.5H9C8.07208 26.4989 7.18249 26.1298 6.52635 25.4736C5.87022 24.8175 5.50111 23.9279 5.5 23V9C5.50111 8.07208 5.87022 7.18249 6.52635 6.52635C7.18249 5.87022 8.07208 5.50111 9 5.5H23C23.9279 5.50111 24.8175 5.87022 25.4736 6.52635C26.1298 7.18249 26.4989 8.07208 26.5 9V23Z" fill="#0F0F0F"/>
</svg>
