<svg width="32" height="32" viewBox="0 0 32 32" fill="none" xmlns="http://www.w3.org/2000/svg">
<path d="M25.4834 28.2041H29.0762C30.8408 28.2041 31.7549 27.3281 31.7549 25.6143V7.24414C31.7549 5.53027 30.8408 4.66699 29.0762 4.66699H25.4834C23.7188 4.66699 22.8174 5.53027 22.8174 7.24414V25.6143C22.8174 27.3281 23.7188 28.2041 25.4834 28.2041ZM25.7119 26.7188C24.7471 26.7188 24.3789 26.3252 24.3789 25.373V7.48535C24.3789 6.5332 24.7471 6.15234 25.7119 6.15234H28.8604C29.8125 6.15234 30.1934 6.5332 30.1934 7.48535V25.373C30.1934 26.3252 29.8125 26.7188 28.8604 26.7188H25.7119ZM14.1846 28.2041H17.79C19.542 28.2041 20.4561 27.3281 20.4561 25.6143V10.9385C20.4561 9.21191 19.542 8.34863 17.79 8.34863H14.1846C12.4199 8.34863 11.5312 9.21191 11.5312 10.9385V25.6143C11.5312 27.3281 12.4199 28.2041 14.1846 28.2041ZM14.4131 26.7188C13.4609 26.7188 13.0801 26.3252 13.0801 25.373V11.1797C13.0801 10.2148 13.4609 9.83398 14.4131 9.83398H17.5615C18.5264 9.83398 18.9072 10.2148 18.9072 11.1797V25.373C18.9072 26.3252 18.5264 26.7188 17.5615 26.7188H14.4131ZM2.89844 28.2041H6.49121C8.25586 28.2041 9.15723 27.3281 9.15723 25.6143V14.582C9.15723 12.8682 8.25586 11.9922 6.49121 11.9922H2.89844C1.13379 11.9922 0.232422 12.8682 0.232422 14.582V25.6143C0.232422 27.3281 1.13379 28.2041 2.89844 28.2041ZM3.12695 26.7188C2.16211 26.7188 1.78125 26.3252 1.78125 25.373V14.8232C1.78125 13.8711 2.16211 13.4902 3.12695 13.4902H6.27539C7.22754 13.4902 7.6084 13.8711 7.6084 14.8232V25.373C7.6084 26.3252 7.22754 26.7188 6.27539 26.7188H3.12695Z" fill="black"/>
</svg>
