<svg width="32" height="32" viewBox="0 0 32 32" fill="none" xmlns="http://www.w3.org/2000/svg">
<path d="M25.3818 28.0898H29.2031C30.8154 28.0898 31.6406 27.3027 31.6406 25.7285V7.14258C31.6406 5.55566 30.8154 4.76855 29.2031 4.76855H25.3818C23.7695 4.76855 22.9443 5.55566 22.9443 7.14258V25.7285C22.9443 27.3027 23.7695 28.0898 25.3818 28.0898ZM14.083 28.0898H17.917C19.5293 28.0898 20.3418 27.3027 20.3418 25.7285V10.8242C20.3418 9.25 19.5293 8.46289 17.917 8.46289H14.083C12.4707 8.46289 11.6582 9.25 11.6582 10.8242V25.7285C11.6582 27.3027 12.4707 28.0898 14.083 28.0898ZM2.78418 28.0898H6.61816C8.23047 28.0898 9.05566 27.3027 9.05566 25.7285V14.4678C9.05566 12.8936 8.23047 12.1064 6.61816 12.1064H2.78418C1.18457 12.1064 0.359375 12.8936 0.359375 14.4678V25.7285C0.359375 27.3027 1.18457 28.0898 2.78418 28.0898Z" fill="black"/>
</svg>
