<svg width="32" height="32" viewBox="0 0 32 32" fill="none" xmlns="http://www.w3.org/2000/svg">
<path d="M29.7499 10C29.753 9.04409 29.4666 8.10963 28.9285 7.31959C28.3903 6.52954 27.6256 5.92091 26.735 5.57377C25.8443 5.22663 24.8694 5.15724 23.9386 5.37474C23.0077 5.59224 22.1645 6.08643 21.5199 6.7923C19.8556 5.78342 17.9467 5.25 16.0005 5.25C14.0543 5.25 12.1453 5.78342 10.481 6.7923C9.99594 6.26245 9.39672 5.84987 8.72868 5.58577C8.06064 5.32166 7.34128 5.21296 6.62503 5.26787C5.90878 5.32279 5.2144 5.53988 4.59443 5.90274C3.97446 6.2656 3.44513 6.76471 3.0465 7.3623C2.64787 7.9599 2.39038 8.64034 2.29351 9.35213C2.19664 10.0639 2.26293 10.7884 2.48736 11.4708C2.71178 12.1532 3.08847 12.7756 3.58893 13.291C4.08938 13.8063 4.70049 14.2011 5.37601 14.4454C5.02471 16.7056 5.41339 19.0188 6.48408 21.04C7.55477 23.0613 9.25012 24.6823 11.3173 25.6614C11.4715 26.794 12.0309 27.8323 12.892 28.5841C13.753 29.3359 14.8574 29.7501 16.0004 29.7501C17.1435 29.7501 18.2478 29.3359 19.1088 28.5841C19.9699 27.8323 20.5293 26.794 20.6835 25.6614C22.7506 24.6822 24.4459 23.0612 25.5166 21.04C26.5873 19.0187 26.9761 16.7056 26.6249 14.4454C27.5385 14.1138 28.3281 13.5096 28.887 12.7145C29.4459 11.9194 29.7471 10.9719 29.7499 10ZM20.6364 23.9907C20.4073 22.9312 19.8222 21.9821 18.9785 21.3014C18.1349 20.6207 17.0835 20.2494 15.9995 20.2494C14.9155 20.2494 13.8642 20.6207 13.0205 21.3014C12.1768 21.9821 11.5918 22.9312 11.3626 23.9907C9.76478 23.0825 8.47863 21.7127 7.67276 20.0609C6.86688 18.4091 6.57888 16.5523 6.84651 14.734C6.89851 14.7357 6.94711 14.7495 6.99951 14.7495C8.25884 14.7482 9.46624 14.2474 10.3568 13.357C11.2474 12.4666 11.7484 11.2593 11.7499 10C11.7476 9.32243 11.5989 8.65335 11.314 8.0386C12.7316 7.19518 14.3505 6.74999 16 6.74999C17.6494 6.74999 19.2684 7.19518 20.6859 8.0386C20.401 8.65338 20.2523 9.32243 20.2499 10C20.2513 11.2593 20.7522 12.4667 21.6427 13.3572C22.5332 14.2477 23.7406 14.7486 24.9999 14.75C25.0524 14.75 25.101 14.7362 25.153 14.7345C25.4205 16.5528 25.1324 18.4095 24.3265 20.0613C23.5207 21.7131 22.2346 23.0829 20.6368 23.9912L20.6364 23.9907Z" fill="#0F0F0F"/>
</svg>
