<svg width="32" height="32" viewBox="0 0 32 32" fill="none" xmlns="http://www.w3.org/2000/svg">
<path d="M15.9999 2.25C13.8634 2.248 11.7558 2.74391 9.84435 3.69838C7.93288 4.65286 6.27014 6.03964 4.98803 7.7487C3.70592 9.45777 2.83971 11.4421 2.45813 13.5443C2.07655 15.6464 2.1901 17.8086 2.78976 19.8592C3.38942 21.9099 4.4587 23.7926 5.91277 25.3579C7.36683 26.9233 9.16568 28.1283 11.1666 28.8773C13.1675 29.6263 15.3155 29.8988 17.44 29.673C19.5646 29.4472 21.6073 28.7295 23.4061 27.5767C23.489 27.5233 23.5605 27.4542 23.6166 27.3732C23.6727 27.2922 23.7123 27.201 23.7332 27.1047C23.7541 27.0084 23.7557 26.9089 23.7382 26.8119C23.7206 26.715 23.6841 26.6224 23.6307 26.5396C23.5774 26.4568 23.5082 26.3852 23.4272 26.3291C23.3462 26.273 23.255 26.2334 23.1587 26.2125C23.0624 26.1917 22.9629 26.19 22.866 26.2076C22.769 26.2251 22.6765 26.2616 22.5936 26.315C20.3018 27.7779 17.5882 28.4364 14.8807 28.1866C12.1733 27.9367 9.62599 26.7929 7.64051 24.9353C5.65504 23.0777 4.34434 20.6121 3.91508 17.9272C3.48581 15.2424 3.96241 12.491 5.26971 10.107C6.57702 7.72294 8.64066 5.84185 11.1353 4.76031C13.6298 3.67877 16.4135 3.45832 19.0472 4.13371C21.6809 4.8091 24.0149 6.34192 25.6812 8.49046C27.3475 10.639 28.2512 13.281 28.2499 16C28.2499 19.7451 26.8593 20.25 25.4989 20.25C24.802 20.2689 24.1252 20.0156 23.6119 19.5438C23.0987 19.072 22.7895 18.4187 22.7499 17.7227V10C22.7499 9.80109 22.6709 9.61032 22.5302 9.46967C22.3896 9.32902 22.1988 9.25 21.9999 9.25C21.801 9.25 21.6102 9.32902 21.4696 9.46967C21.3289 9.61032 21.2499 9.80109 21.2499 10V11.77C20.3515 10.652 19.1204 9.84906 17.735 9.47767C16.3496 9.10627 14.882 9.18567 13.5448 9.70437C12.2076 10.2231 11.0703 11.1541 10.2977 12.3625C9.52516 13.571 9.15747 14.994 9.24796 16.4255C9.33845 17.8569 9.8824 19.2223 10.801 20.3238C11.7196 21.4254 12.9651 22.2058 14.3569 22.552C15.7488 22.8981 17.2148 22.7921 18.5424 22.2492C19.8699 21.7063 20.9901 20.7548 21.7406 19.5325C22.1138 20.2026 22.6586 20.7612 23.3192 21.1509C23.9797 21.5406 24.7322 21.7474 25.4991 21.75C28.3191 21.75 29.7501 19.8154 29.7501 16C29.746 12.3545 28.2959 8.85953 25.7182 6.2818C23.1404 3.70407 19.6454 2.2541 15.9999 2.25ZM15.9989 21.2515C14.9606 21.2515 13.9455 20.9436 13.0822 20.3667C12.2188 19.7898 11.5459 18.9699 11.1485 18.0106C10.7512 17.0513 10.6472 15.9957 10.8498 14.9773C11.0524 13.9589 11.5524 13.0234 12.2866 12.2892C13.0208 11.555 13.9563 11.0549 14.9747 10.8524C15.9931 10.6498 17.0487 10.7538 18.008 11.1511C18.9673 11.5485 19.7873 12.2214 20.3641 13.0848C20.941 13.9481 21.2489 14.9631 21.2489 16.0015C21.2472 17.3933 20.6935 18.7276 19.7094 19.7118C18.7252 20.696 17.3907 21.2498 15.9989 21.2515Z" fill="#0F0F0F"/>
</svg>
