<svg width="32" height="32" viewBox="0 0 32 32" fill="none" xmlns="http://www.w3.org/2000/svg">
<path d="M24.0023 28.4997H22.0233C20.6377 28.5321 19.2934 28.0265 18.2724 27.0891C17.2514 26.1517 16.6331 24.8554 16.5473 23.472C17.778 23.3433 18.9287 22.8008 19.811 21.9331L19.1135 21.2356C18.4793 21.8496 17.6781 22.263 16.8103 22.4242C15.9424 22.5854 15.0462 22.4873 14.2338 22.142C13.4214 21.7967 12.7288 21.2196 12.2425 20.4829C11.7563 19.7462 11.498 18.8825 11.4999 17.9997V13.622L10.4999 12.622V17.9997C10.5019 19.3754 11.019 20.7004 11.9492 21.7139C12.8793 22.7274 14.1553 23.356 15.5257 23.4758C15.5896 24.49 15.8938 25.4745 16.4131 26.3481C16.9325 27.2216 17.6521 27.9591 18.5127 28.4997H8.00235C7.86974 28.4997 7.74256 28.5524 7.6488 28.6462C7.55503 28.74 7.50235 28.8671 7.50235 28.9997C7.50235 29.1324 7.55503 29.2595 7.6488 29.3533C7.74256 29.4471 7.86974 29.4997 8.00235 29.4997H24.0023C24.135 29.4997 24.2621 29.4471 24.3559 29.3533C24.4497 29.2595 24.5023 29.1324 24.5023 28.9997C24.5023 28.8671 24.4497 28.74 24.3559 28.6462C24.2621 28.5524 24.135 28.4997 24.0023 28.4997Z" fill="#0F0F0F"/>
<path d="M28.3539 27.6462L20.979 20.2715C21.3181 19.5619 21.4959 18.7861 21.4999 17.9997V7.99973C21.4999 7.27746 21.3576 6.56226 21.0812 5.89497C20.8048 5.22768 20.3997 4.62136 19.889 4.11064C19.3783 3.59992 18.772 3.19479 18.1047 2.91839C17.4374 2.64199 16.7222 2.49973 15.9999 2.49973C15.2776 2.49973 14.5624 2.64199 13.8952 2.91839C13.2279 3.19479 12.6215 3.59992 12.1108 4.11064C11.6001 4.62136 11.195 5.22768 10.9186 5.89497C10.6422 6.56226 10.4999 7.27746 10.4999 7.99973V9.79258L4.35342 3.64622C4.25934 3.55403 4.13268 3.50268 4.00096 3.50335C3.86925 3.50401 3.74311 3.55663 3.64997 3.64977C3.55683 3.74291 3.50421 3.86905 3.50355 4.00077C3.50288 4.13248 3.55422 4.25914 3.64642 4.35322L27.6469 28.3532C27.6932 28.4004 27.7483 28.438 27.8092 28.4637C27.87 28.4895 27.9354 28.5029 28.0015 28.5032C28.0675 28.5036 28.133 28.4908 28.1941 28.4657C28.2552 28.4405 28.3108 28.4035 28.3575 28.3568C28.4042 28.3101 28.4412 28.2546 28.4664 28.1934C28.4915 28.1323 28.5043 28.0668 28.5039 28.0008C28.5036 27.9347 28.4902 27.8693 28.4644 27.8085C28.4387 27.7476 28.4011 27.6925 28.3539 27.6462ZM11.4999 10.7926V7.99973C11.4999 6.80626 11.974 5.66166 12.8179 4.81775C13.6618 3.97384 14.8064 3.49973 15.9999 3.49973C17.1934 3.49973 18.338 3.97384 19.1819 4.81775C20.0258 5.66166 20.4999 6.80626 20.4999 7.99973V17.9997C20.4971 18.5173 20.4033 19.0303 20.2229 19.5154L11.4999 10.7926Z" fill="#0F0F0F"/>
</svg>
