<svg width="32" height="32" viewBox="0 0 32 32" fill="none" xmlns="http://www.w3.org/2000/svg">
<path d="M5 8.12582C5 4.83406 7.68629 2.16556 11 2.16556C14.3137 2.16556 17 4.83406 17 8.12582V18.0596C17 20.9863 14.8764 23.4204 12.0764 23.9242C12.2161 24.74 12.5575 25.5813 13.1827 26.2755C14.0197 27.2047 15.4759 27.9934 18 27.9934H19C19.5523 27.9934 20 28.4381 20 28.9867C20 29.5354 19.5523 29.9801 19 29.9801H3C2.44772 29.9801 2 29.5354 2 28.9867C2 28.4381 2.44772 27.9934 3 27.9934H12.0788C11.9431 27.8669 11.8143 27.7358 11.6923 27.6003C10.6893 26.4868 10.2131 25.158 10.0588 23.9469C7.19219 23.4983 5 21.0333 5 18.0596V8.12582ZM11 22.0331C13.2091 22.0331 15 20.2541 15 18.0596V8.12582C15 5.93131 13.2091 4.15231 11 4.15231C8.79086 4.15231 7 5.93131 7 8.12582V18.0596C7 20.2541 8.79086 22.0331 11 22.0331Z" fill="#0F0F0F"/>
<path d="M22.5 13.5894C23.0523 13.5894 23.5 14.0341 23.5 14.5828V16.0728H25C25.5523 16.0728 26 16.5176 26 17.0662C26 17.6148 25.5523 18.0596 25 18.0596H23.5V19.5497C23.5 20.0983 23.0523 20.543 22.5 20.543C21.9477 20.543 21.5 20.0983 21.5 19.5497V18.0596H20C19.4477 18.0596 19 17.6148 19 17.0662C19 16.5176 19.4477 16.0728 20 16.0728H21.5V14.5828C21.5 14.0341 21.9477 13.5894 22.5 13.5894Z" fill="#0F0F0F"/>
<path d="M27.5 7.13244C27.5 6.58382 27.0523 6.13907 26.5 6.13907C25.9477 6.13907 25.5 6.58382 25.5 7.13244V8.62251H24C23.4477 8.62251 23 9.06726 23 9.61589C23 10.1645 23.4477 10.6093 24 10.6093H25.5V12.0993C25.5 12.648 25.9477 13.0927 26.5 13.0927C27.0523 13.0927 27.5 12.648 27.5 12.0993V10.6093H29C29.5523 10.6093 30 10.1645 30 9.61589C30 9.06726 29.5523 8.62251 29 8.62251H27.5V7.13244Z" fill="#0F0F0F"/>
</svg>
