<svg width="32" height="33" viewBox="0 0 32 33" fill="none" xmlns="http://www.w3.org/2000/svg">
<path d="M11 2.75828C7.82436 2.75828 5.25 5.31559 5.25 8.4702V18.404C5.25 21.3182 7.44694 23.7226 10.2853 24.0722C10.4079 25.2921 10.8637 26.6524 11.8786 27.7791C12.1401 28.0694 12.4348 28.34 12.7649 28.5861H3C2.58579 28.5861 2.25 28.9197 2.25 29.3311C2.25 29.7426 2.58579 30.0762 3 30.0762H19C19.4142 30.0762 19.75 29.7426 19.75 29.3311C19.75 28.9197 19.4142 28.5861 19 28.5861H18C15.4194 28.5861 13.8898 27.7773 12.9964 26.7855C12.2702 25.9792 11.9095 24.9908 11.7932 24.062C14.5935 23.6782 16.75 21.2912 16.75 18.404V8.4702C16.75 5.31559 14.1756 2.75828 11 2.75828ZM15.25 18.404C15.25 20.7356 13.3472 22.6258 11 22.6258C8.65279 22.6258 6.75 20.7356 6.75 18.404V8.4702C6.75 6.13853 8.65279 4.24834 11 4.24834C13.3472 4.24834 15.25 6.13853 15.25 8.4702V18.404Z" fill="#0F0F0F"/>
<path d="M24.75 14.193V8.98164L24.7551 8.87979C24.7796 8.6703 24.8917 8.48732 25.054 8.36788C25.134 8.30898 25.2262 8.26553 25.3262 8.24196C25.4228 8.21901 25.525 8.21489 25.6275 8.23258C25.659 8.23794 25.6898 8.24524 25.7198 8.25435L29.2061 9.24385C29.6044 9.35689 29.835 9.76925 29.7212 10.1649C29.6074 10.5605 29.1923 10.7896 28.794 10.6766L26.25 9.95453V16.9139C26.25 18.6969 24.7949 20.1424 23 20.1424C21.2051 20.1424 19.75 18.6969 19.75 16.9139C19.75 15.1309 21.2051 13.6854 23 13.6854C23.6443 13.6854 24.2449 13.8717 24.75 14.193ZM24.75 16.9139C24.75 15.9538 23.9665 15.1755 23 15.1755C22.0335 15.1755 21.25 15.9538 21.25 16.9139C21.25 17.874 22.0335 18.6523 23 18.6523C23.9665 18.6523 24.75 17.874 24.75 16.9139Z" fill="#0F0F0F"/>
<path d="M24.7551 8.87979C24.7517 8.90836 24.75 8.93743 24.75 8.96689V8.98164C24.7493 8.94794 24.751 8.91392 24.7551 8.87979Z" fill="#0F0F0F"/>
</svg>
