<svg width="32" height="32" viewBox="0 0 32 32" fill="none" xmlns="http://www.w3.org/2000/svg">
<path d="M17.023 28.5H19.0024C19.135 28.5 19.2622 28.5527 19.356 28.6464C19.4498 28.7402 19.5024 28.8674 19.5024 29C19.5024 29.1326 19.4498 29.2598 19.356 29.3536C19.2622 29.4473 19.135 29.5 19.0024 29.5H3.00244C2.86983 29.5 2.74266 29.4473 2.64889 29.3536C2.55512 29.2598 2.50244 29.1326 2.50244 29C2.50244 28.8674 2.55512 28.7402 2.64889 28.6464C2.74266 28.5527 2.86983 28.5 3.00244 28.5H13.5127C12.6522 27.9594 11.9326 27.2218 11.4132 26.3483C10.8939 25.4748 10.5897 24.4902 10.5258 23.476C9.15551 23.356 7.87975 22.7274 6.94968 21.714C6.01962 20.7005 5.50263 19.3756 5.50049 18V8C5.50049 6.54131 6.07995 5.14236 7.1114 4.11091C8.14285 3.07946 9.5418 2.5 11.0005 2.5C12.4592 2.5 13.8581 3.07946 14.8896 4.11091C15.921 5.14236 16.5005 6.54131 16.5005 8V18C16.4986 19.3634 15.9911 20.6777 15.0761 21.6885C14.1612 22.6994 12.9038 23.3349 11.5474 23.4723C11.6331 24.8556 12.2513 26.152 13.2722 27.0893C14.2931 28.0267 15.6374 28.5323 17.023 28.5ZM6.50049 12.5V14.988H15.5005V12.5H6.50049ZM6.50049 11.5H15.5L15.5005 8C15.4992 6.80693 15.0247 5.66309 14.181 4.81946C13.3374 3.97583 12.1936 3.5013 11.0005 3.5C9.80742 3.5013 8.66358 3.97582 7.81995 4.81946C6.97631 5.66309 6.50179 6.80693 6.50049 8V11.5Z" fill="#0F0F0F"/>
<path d="M25.1989 8.10052C25.3242 8.00604 25.4865 7.97583 25.6374 8.01894L29.1374 9.01894C29.4029 9.0948 29.5566 9.37154 29.4808 9.63706C29.4049 9.90258 29.1282 10.0563 28.8626 9.98046L26 9.16256V16.4997C26 18.1566 24.6569 19.4997 23 19.4997C21.3431 19.4997 20 18.1566 20 16.4997C20 14.8428 21.3431 13.4997 23 13.4997C23.7684 13.4997 24.4692 13.7886 25 14.2636V8.4997C25 8.3428 25.0736 8.19501 25.1989 8.10052ZM23 14.4997C21.8954 14.4997 21 15.3951 21 16.4997C21 17.6043 21.8954 18.4997 23 18.4997C24.1046 18.4997 25 17.6043 25 16.4997C25 15.3951 24.1046 14.4997 23 14.4997Z" fill="#0F0F0F"/>
</svg>
