<svg width="32" height="32" viewBox="0 0 32 32" fill="none" xmlns="http://www.w3.org/2000/svg">
<path d="M10.0001 18.4997H4.99915C4.86654 18.4997 4.73936 18.5524 4.64559 18.6462C4.55182 18.7399 4.49915 18.8671 4.49915 18.9997C4.49915 19.1323 4.55182 19.2595 4.64559 19.3533C4.73936 19.447 4.86654 19.4997 4.99915 19.4997H10.0001C10.663 19.5003 11.2985 19.7639 11.7672 20.2326C12.2359 20.7013 12.4995 21.3369 12.5001 21.9997V26.9997C12.5001 27.1323 12.5528 27.2595 12.6466 27.3533C12.7404 27.447 12.8675 27.4997 13.0001 27.4997C13.1328 27.4997 13.2599 27.447 13.3537 27.3533C13.4475 27.2595 13.5001 27.1323 13.5001 26.9997V21.9997C13.499 21.0718 13.1299 20.1822 12.4738 19.5261C11.8176 18.8699 10.9281 18.5008 10.0001 18.4997Z" fill="#0F0F0F"/>
<path d="M27.0001 12.4997H22.0001C21.3373 12.4991 20.7018 12.2355 20.2331 11.7668C19.7643 11.2981 19.5008 10.6626 19.5001 9.99971V4.99971C19.5001 4.8671 19.4475 4.73992 19.3537 4.64616C19.2599 4.55239 19.1328 4.49971 19.0001 4.49971C18.8675 4.49971 18.7404 4.55239 18.6466 4.64616C18.5528 4.73992 18.5001 4.8671 18.5001 4.99971V9.99971C18.5013 10.9276 18.8704 11.8172 19.5265 12.4733C20.1826 13.1295 21.0722 13.4986 22.0001 13.4997H27.0001C27.1328 13.4997 27.2599 13.447 27.3537 13.3533C27.4475 13.2595 27.5001 13.1323 27.5001 12.9997C27.5001 12.8671 27.4475 12.7399 27.3537 12.6462C27.2599 12.5524 27.1328 12.4997 27.0001 12.4997Z" fill="#0F0F0F"/>
</svg>
