<svg width="32" height="32" viewBox="0 0 32 32" fill="none" xmlns="http://www.w3.org/2000/svg">
<path fill-rule="evenodd" clip-rule="evenodd" d="M11.5 8.5C11.5 6.01472 13.5147 4 16 4C18.4853 4 20.5 6.01472 20.5 8.5C20.5 10.9853 18.4853 13 16 13C13.5147 13 11.5 10.9853 11.5 8.5ZM22.5 8.5C22.5 10.5918 21.5119 12.4528 19.977 13.6417C21.0918 14.0126 22.1314 14.5334 23.0681 15.1749C23.5238 15.4869 23.6402 16.1093 23.3281 16.565C23.016 17.0206 22.3937 17.137 21.938 16.825C20.2777 15.6879 18.2252 15 16 15C10.4044 15 6 19.3126 6 24.0702C6 25.0542 6.82544 26.0453 8.80712 26.8336C10.7155 27.5928 13.3302 27.9933 15.9999 27.9931C16.5522 27.993 16.9999 28.4407 17 28.993C17.0001 29.5453 16.5524 29.993 16.0001 29.9931C13.1698 29.9934 10.2845 29.5738 8.06786 28.692C5.92454 27.8394 4 26.3687 4 24.0702C4 19.3394 7.38263 15.1892 12.0247 13.6431C10.4888 12.4542 9.5 10.5926 9.5 8.5C9.5 4.91015 12.4101 2 16 2C19.5899 2 22.5 4.91015 22.5 8.5ZM26.5 20C25.6716 20 25 20.6716 25 21.5C25 22.3284 25.6716 23 26.5 23C27.3284 23 28 22.3284 28 21.5C28 20.6716 27.3284 20 26.5 20ZM23 21.5C23 19.567 24.567 18 26.5 18C28.433 18 30 19.567 30 21.5C30 23.433 28.433 25 26.5 25C25.8972 25 25.3301 24.8476 24.8349 24.5793L23.7071 25.7071L23.7059 25.7083L22.9142 26.5L23.7071 27.2929C24.0976 27.6834 24.0976 28.3166 23.7071 28.7071L22.7071 29.7071C22.3166 30.0976 21.6834 30.0976 21.2929 29.7071L19.7929 28.2071C19.4024 27.8166 19.4024 27.1834 19.7929 26.7929L22.2924 24.2934L22.2929 24.2929L23.4207 23.1651C23.1524 22.6699 23 22.1028 23 21.5Z" fill="#0F0F0F"/>
</svg>
