<svg width="32" height="32" viewBox="0 0 32 32" fill="none" xmlns="http://www.w3.org/2000/svg">
<path d="M16.0002 17C17.6571 17 19.0002 15.6569 19.0002 14C19.0002 12.3431 17.6571 11 16.0002 11C14.3433 11 13.0002 12.3431 13.0002 14C13.0002 15.6569 14.3433 17 16.0002 17ZM16.0002 15C15.4479 15 15.0002 14.5523 15.0002 14C15.0002 13.4477 15.4479 13 16.0002 13C16.5525 13 17.0002 13.4477 17.0002 14C17.0002 14.5523 16.5525 15 16.0002 15ZM10.8055 10.06C12.0819 8.96166 13.8246 8 16.0002 8C18.1758 8 19.9185 8.96166 21.1948 10.06C22.4666 11.1544 23.3292 12.4281 23.7781 13.1846C24.0741 13.6818 24.0739 14.3198 23.7774 14.8167C23.3282 15.5734 22.4659 16.8462 21.1948 17.94C19.9185 19.0383 18.1758 20 16.0002 20C13.8246 20 12.0819 19.0383 10.8055 17.94C9.53382 16.8456 8.67126 15.5719 8.22228 14.8154C7.92628 14.3182 7.92655 13.6802 8.22309 13.1833C8.6723 12.4266 9.53459 11.1538 10.8055 10.06ZM10.0671 14C10.4786 14.66 11.1672 15.6126 12.1101 16.424C13.1515 17.3202 14.4488 18 16.0002 18C17.5516 18 18.8489 17.3202 19.8903 16.424C20.8332 15.6126 21.5217 14.66 21.9333 14C21.5217 13.34 20.8332 12.3874 19.8903 11.576C18.8489 10.6798 17.5516 10 16.0002 10C14.4488 10 13.1515 10.6798 12.1101 11.576C11.1672 12.3874 10.4786 13.34 10.0671 14ZM28.9973 21.1812C29.2439 21.3016 29.4594 21.4772 29.6271 21.6943C29.7934 21.9069 29.9086 22.1548 29.9636 22.419C30.0186 22.6832 30.0121 22.9565 29.9444 23.2178C29.663 24.3053 29.0268 25.2678 28.1365 25.9529C27.2462 26.638 26.1528 27.0065 25.0294 27H6.97087C5.84716 27.0064 4.75345 26.6376 3.86298 25.9522C2.97252 25.2667 2.33622 24.3037 2.05487 23.2158C1.98777 22.9548 1.98158 22.6818 2.03678 22.418C2.09198 22.1542 2.2071 21.9066 2.37323 21.6943C2.541 21.4772 2.75653 21.3016 3.00311 21.1812C3.24969 21.0608 3.5207 20.9988 3.7951 21H4.00018V10.1348C3.98406 8.79135 4.50137 7.49634 5.43868 6.53376C6.37599 5.57118 7.65678 5.01961 9.00019 5H23.0001C24.3435 5.01961 25.6243 5.57118 26.5616 6.53376C27.499 7.49634 28.0163 8.79135 28.0001 10.1348V21H28.2053C28.4797 20.9988 28.7507 21.0608 28.9973 21.1812ZM6.8524 7.94747C6.29006 8.53507 5.9836 9.32164 6.00019 10.1348V21H26.0001V10.1348C26.0167 9.32164 25.7103 8.53507 25.1479 7.94747C24.5856 7.35986 23.8132 7.01915 23.0001 7H9.00019C8.18708 7.01915 7.41473 7.35986 6.8524 7.94747ZM6.97088 25H25.0294C25.6588 25.0047 26.2742 24.8152 26.7919 24.4573C27.3096 24.0994 27.7042 23.5905 27.922 23H4.07831C4.29618 23.5904 4.69085 24.0993 5.20849 24.4572C5.72614 24.8151 6.34157 25.0046 6.97088 25Z" fill="black"/>
</svg>
