<svg width="32" height="32" viewBox="0 0 32 32" fill="none" xmlns="http://www.w3.org/2000/svg">
<path d="M16 29.0801C22.9697 29.0801 28.7334 23.3164 28.7334 16.3467C28.7334 9.37695 22.9697 3.61328 15.9873 3.61328C9.01758 3.61328 3.2666 9.37695 3.2666 16.3467C3.2666 23.3164 9.03027 29.0801 16 29.0801ZM11.6074 16.3467C11.6074 17.2354 10.8076 18.0352 9.90625 18.0352C9.00488 18.0352 8.23047 17.2354 8.23047 16.3467C8.23047 15.4326 8.9668 14.6455 9.90625 14.6455C10.8076 14.6455 11.6074 15.4453 11.6074 16.3467ZM17.6758 16.3467C17.6758 17.2354 16.9014 18.0352 15.9873 18.0352C15.0986 18.0352 14.3115 17.2354 14.3115 16.3467C14.3115 15.4326 15.0605 14.6455 15.9873 14.6455C16.9014 14.6455 17.6758 15.4453 17.6758 16.3467ZM23.7695 16.3467C23.7695 17.2354 22.9951 18.0352 22.0811 18.0352C21.1797 18.0352 20.3926 17.2354 20.3926 16.3467C20.3926 15.4326 21.1416 14.6455 22.0811 14.6455C22.9951 14.6455 23.7695 15.4453 23.7695 16.3467Z" fill="black"/>
</svg>
