<svg width="32" height="32" viewBox="0 0 32 32" fill="none" xmlns="http://www.w3.org/2000/svg">
<path d="M16 29.0801C22.9697 29.0801 28.7334 23.3164 28.7334 16.3467C28.7334 9.37695 22.9697 3.61328 15.9873 3.61328C9.01758 3.61328 3.2666 9.37695 3.2666 16.3467C3.2666 23.3164 9.03027 29.0801 16 29.0801ZM16 27.4424C9.85547 27.4424 4.91699 22.4912 4.91699 16.3467C4.91699 10.2021 9.85547 5.26367 15.9873 5.26367C22.1318 5.26367 27.083 10.2021 27.0957 16.3467C27.0957 22.4912 22.1445 27.4424 16 27.4424ZM11.7471 16.3467C11.7471 15.4961 11.0361 14.8232 10.2109 14.8232C9.37305 14.8232 8.6875 15.4961 8.6875 16.3467C8.6875 17.1719 9.39844 17.8701 10.2109 17.8701C11.0361 17.8701 11.7471 17.1719 11.7471 16.3467ZM17.5234 16.3467C17.5234 15.4961 16.8125 14.8232 15.9873 14.8232C15.1494 14.8232 14.4639 15.4961 14.4639 16.3467C14.4639 17.1719 15.1875 17.8701 15.9873 17.8701C16.8125 17.8701 17.5234 17.1719 17.5234 16.3467ZM23.2998 16.3467C23.2998 15.4961 22.6016 14.8232 21.7637 14.8232C20.9258 14.8232 20.2275 15.4961 20.2275 16.3467C20.2275 17.1719 20.9639 17.8701 21.7637 17.8701C22.6016 17.8701 23.2998 17.1719 23.2998 16.3467Z" fill="black"/>
</svg>
