<svg width="32" height="32" viewBox="0 0 32 32" fill="none" xmlns="http://www.w3.org/2000/svg">
<path d="M12.0005 6.2496C11.8016 6.2496 11.6108 6.32862 11.4702 6.46927C11.3295 6.60992 11.2505 6.80069 11.2505 6.9996C11.2505 7.19851 11.3295 7.38928 11.4702 7.52993C11.6108 7.67058 11.8016 7.7496 12.0005 7.7496H16.0005C16.1994 7.7496 16.3902 7.67058 16.5308 7.52993C16.6715 7.38928 16.7505 7.19851 16.7505 6.9996C16.7505 6.80069 16.6715 6.60992 16.5308 6.46927C16.3902 6.32862 16.1994 6.2496 16.0005 6.2496H12.0005Z" fill="#0F0F0F"/>
<path d="M20.0002 7.74996C20.4145 7.74996 20.7502 7.41417 20.7502 6.99996C20.7502 6.58575 20.4145 6.24996 20.0002 6.24996C19.586 6.24996 19.2502 6.58575 19.2502 6.99996C19.2502 7.41417 19.586 7.74996 20.0002 7.74996Z" fill="#0F0F0F"/>
<path d="M25.0005 23.1998C24.8016 23.1998 24.6109 23.2789 24.4702 23.4195C24.3296 23.5602 24.2505 23.7509 24.2505 23.9498V24.9996C24.2495 25.8612 23.9068 26.6873 23.2975 27.2966C22.6882 27.9059 21.8621 28.2486 21.0005 28.2496H11.0005C10.1388 28.2486 9.31277 27.9059 8.70349 27.2966C8.09421 26.6873 7.75148 25.8612 7.75049 24.9996V6.9996C7.75148 6.13795 8.09421 5.31188 8.70349 4.7026C9.31277 4.09332 10.1388 3.75059 11.0005 3.7496H21.0005C21.8621 3.7506 22.6882 4.09333 23.2975 4.7026C23.9068 5.31188 24.2495 6.13795 24.2505 6.9996V7.9996C24.2505 8.19851 24.3295 8.38928 24.4702 8.52993C24.6108 8.67058 24.8016 8.7496 25.0005 8.7496C25.1994 8.7496 25.3902 8.67058 25.5308 8.52993C25.6715 8.38928 25.7505 8.19851 25.7505 7.9996V6.9996C25.7491 5.74026 25.2482 4.53291 24.3577 3.64242C23.4672 2.75193 22.2598 2.25103 21.0005 2.2496H11.0005C9.74115 2.25103 8.5338 2.75193 7.64331 3.64242C6.75282 4.53291 6.25192 5.74026 6.25049 6.9996V24.9996C6.25192 26.2589 6.75282 27.4663 7.64331 28.3568C8.5338 29.2473 9.74115 29.7482 11.0005 29.7496H21.0005C22.2598 29.7482 23.4672 29.2473 24.3577 28.3568C25.2482 27.4663 25.7491 26.2589 25.7505 24.9996V23.9498C25.7504 23.7509 25.6714 23.5602 25.5308 23.4195C25.3901 23.2789 25.1994 23.1998 25.0005 23.1998Z" fill="#0F0F0F"/>
<path d="M28.5308 15.4693L24.5308 11.4693C24.3898 11.33 24.1995 11.2521 24.0014 11.2527C23.8032 11.2533 23.6133 11.3322 23.4732 11.4723C23.3331 11.6125 23.2541 11.8023 23.2536 12.0005C23.253 12.1986 23.3309 12.389 23.4702 12.5299L26.1899 15.2496H20.0005C19.8016 15.2496 19.6108 15.3286 19.4702 15.4693C19.3295 15.6099 19.2505 15.8007 19.2505 15.9996C19.2505 16.1985 19.3295 16.3893 19.4702 16.5299C19.6108 16.6706 19.8016 16.7496 20.0005 16.7496H26.1899L23.4702 19.4693C23.4004 19.5389 23.3449 19.6216 23.3071 19.7126C23.2692 19.8037 23.2497 19.9013 23.2496 19.9999C23.2495 20.0985 23.2688 20.1962 23.3065 20.2873C23.3442 20.3784 23.3995 20.4612 23.4692 20.5309C23.5389 20.6006 23.6217 20.6559 23.7128 20.6936C23.804 20.7313 23.9016 20.7507 24.0002 20.7506C24.0988 20.7505 24.1964 20.7309 24.2875 20.6931C24.3785 20.6552 24.4612 20.5997 24.5308 20.5299L28.5308 16.5299C28.6004 16.4602 28.6557 16.3776 28.6934 16.2866C28.7311 16.1956 28.7505 16.0981 28.7505 15.9996C28.7505 15.9011 28.7311 15.8036 28.6934 15.7126C28.6557 15.6216 28.6004 15.539 28.5308 15.4693Z" fill="#0F0F0F"/>
</svg>
