<svg width="32" height="32" viewBox="0 0 32 32" fill="none" xmlns="http://www.w3.org/2000/svg">
<path d="M24.9995 21.9996H8V6.9996C8.00087 6.20422 8.31722 5.44166 8.87964 4.87924C9.44206 4.31682 10.2046 4.00047 11 3.9996H20.9995C21.7949 4.00047 22.5575 4.31682 23.1199 4.87924C23.6823 5.44166 23.9986 6.20422 23.9995 6.9996C23.9995 7.26482 24.1049 7.51917 24.2924 7.70671C24.4799 7.89425 24.7343 7.9996 24.9995 7.9996C25.2647 7.9996 25.5191 7.89425 25.7066 7.70671C25.8942 7.51917 25.9995 7.26482 25.9995 6.9996C25.998 5.674 25.4707 4.40313 24.5333 3.46579C23.596 2.52844 22.3251 2.00116 20.9995 1.9996H11C9.6744 2.00116 8.40353 2.52844 7.46618 3.46579C6.52884 4.40313 6.00156 5.674 6 6.9996V24.9996C6.00156 26.3252 6.52884 27.5961 7.46619 28.5334C8.40353 29.4708 9.6744 29.998 11 29.9996H20.9995C22.3251 29.998 23.596 29.4708 24.5333 28.5334C25.4707 27.5961 25.9979 26.3252 25.9995 24.9996V22.9996C25.9996 22.8683 25.9738 22.7382 25.9235 22.6168C25.8733 22.4955 25.7997 22.3852 25.7068 22.2923C25.6139 22.1995 25.5036 22.1258 25.3823 22.0756C25.2609 22.0253 25.1309 21.9995 24.9995 21.9996ZM23.9995 24.9996C23.9986 25.795 23.6823 26.5575 23.1199 27.12C22.5575 27.6824 21.7949 27.9987 20.9995 27.9996H11C10.2046 27.9987 9.44206 27.6824 8.87964 27.12C8.31722 26.5575 8.00087 25.795 8 24.9996V23.9996H23.9995V24.9996Z" fill="#0F0F0F"/>
<path d="M14.9995 26.9996H16.9995C17.2647 26.9996 17.5191 26.8942 17.7066 26.7067C17.8942 26.5192 17.9995 26.2648 17.9995 25.9996C17.9995 25.7344 17.8942 25.48 17.7066 25.2925C17.5191 25.105 17.2647 24.9996 16.9995 24.9996H14.9995C14.7343 24.9996 14.4799 25.105 14.2924 25.2925C14.1049 25.48 13.9995 25.7344 13.9995 25.9996C13.9995 26.2648 14.1049 26.5192 14.2924 26.7067C14.4799 26.8942 14.7343 26.9996 14.9995 26.9996Z" fill="#0F0F0F"/>
<path d="M29.0005 13.9996H23.4136L25.7066 11.7066C25.7994 11.6138 25.8731 11.5035 25.9233 11.3822C25.9736 11.2609 25.9994 11.1309 25.9994 10.9996C25.9994 10.8683 25.9736 10.7382 25.9233 10.6169C25.8731 10.4956 25.7994 10.3854 25.7066 10.2925C25.6137 10.1997 25.5035 10.126 25.3822 10.0758C25.2609 10.0255 25.1308 9.99968 24.9995 9.99968C24.8682 9.99968 24.7382 10.0255 24.6169 10.0758C24.4956 10.126 24.3854 10.1997 24.2925 10.2925L20.2925 14.2925C20.1996 14.3854 20.1259 14.4956 20.0757 14.6169C20.0254 14.7382 19.9995 14.8683 19.9995 14.9996C19.9995 15.1309 20.0254 15.2609 20.0757 15.3822C20.1259 15.5036 20.1996 15.6138 20.2925 15.7066L24.2925 19.7066C24.48 19.8941 24.7344 19.9995 24.9995 19.9995C25.2647 19.9995 25.5191 19.8941 25.7066 19.7066C25.8941 19.5191 25.9994 19.2648 25.9994 18.9996C25.9994 18.7344 25.8941 18.4801 25.7066 18.2925L23.4136 15.9995H29.0005C29.2657 15.9995 29.5201 15.8942 29.7076 15.7066C29.8951 15.5191 30.0005 15.2648 30.0005 14.9995C30.0005 14.7343 29.8951 14.48 29.7076 14.2924C29.5201 14.1049 29.2657 13.9996 29.0005 13.9996Z" fill="#0F0F0F"/>
</svg>
