<svg width="32" height="32" viewBox="0 0 32 32" fill="none" xmlns="http://www.w3.org/2000/svg">
<path d="M26.0005 22.2496H6.75049V6.9996C6.75149 6.13795 7.09422 5.31188 7.70349 4.7026C8.31277 4.09333 9.13884 3.7506 10.0005 3.7496H22.0005C22.8621 3.7506 23.6882 4.09333 24.2975 4.7026C24.9068 5.31188 25.2495 6.13795 25.2505 6.9996C25.2505 7.19851 25.3295 7.38928 25.4702 7.52993C25.6108 7.67058 25.8016 7.7496 26.0005 7.7496C26.1994 7.7496 26.3902 7.67058 26.5308 7.52993C26.6715 7.38928 26.7505 7.19851 26.7505 6.9996C26.7491 5.74026 26.2482 4.53291 25.3577 3.64242C24.4672 2.75193 23.2598 2.25103 22.0005 2.2496H10.0005C8.74115 2.25103 7.5338 2.75193 6.64331 3.64242C5.75282 4.53291 5.25192 5.74026 5.25049 6.9996V24.9996C5.25192 26.2589 5.75282 27.4663 6.64331 28.3568C7.5338 29.2473 8.74115 29.7482 10.0005 29.7496H22.0005C23.2598 29.7482 24.4672 29.2473 25.3577 28.3568C26.2482 27.4663 26.7491 26.2589 26.7505 24.9996V22.9996C26.7504 22.8007 26.6714 22.61 26.5308 22.4693C26.3901 22.3287 26.1994 22.2496 26.0005 22.2496ZM25.2505 24.9996C25.2495 25.8612 24.9068 26.6873 24.2975 27.2966C23.6882 27.9059 22.8621 28.2486 22.0005 28.2496H10.0005C9.13884 28.2486 8.31277 27.9059 7.70349 27.2966C7.09422 26.6873 6.75149 25.8612 6.75049 24.9996V23.7496H25.2505V24.9996Z" fill="#0F0F0F"/>
<path d="M15.0005 26.7496H17.0005C17.1994 26.7496 17.3902 26.6706 17.5308 26.5299C17.6715 26.3893 17.7505 26.1985 17.7505 25.9996C17.7505 25.8007 17.6715 25.6099 17.5308 25.4693C17.3902 25.3286 17.1994 25.2496 17.0005 25.2496H15.0005C14.8016 25.2496 14.6108 25.3286 14.4702 25.4693C14.3295 25.6099 14.2505 25.8007 14.2505 25.9996C14.2505 26.1985 14.3295 26.3893 14.4702 26.5299C14.6108 26.6706 14.8016 26.7496 15.0005 26.7496Z" fill="#0F0F0F"/>
<path d="M29.5308 14.4693L25.5308 10.4693C25.39 10.3291 25.1994 10.2505 25.0008 10.2507C24.8022 10.2509 24.6117 10.3299 24.4713 10.4704C24.3308 10.6108 24.2518 10.8013 24.2516 10.9999C24.2514 11.1985 24.33 11.3891 24.4702 11.5299L27.1899 14.2496H21.0005C20.8016 14.2496 20.6108 14.3286 20.4702 14.4693C20.3295 14.6099 20.2505 14.8007 20.2505 14.9996C20.2505 15.1985 20.3295 15.3893 20.4702 15.5299C20.6108 15.6706 20.8016 15.7496 21.0005 15.7496H27.1899L24.4702 18.4693C24.4004 18.5389 24.3449 18.6216 24.307 18.7126C24.2692 18.8037 24.2496 18.9013 24.2495 18.9999C24.2494 19.0985 24.2688 19.1962 24.3065 19.2873C24.3442 19.3784 24.3995 19.4612 24.4692 19.5309C24.5389 19.6006 24.6217 19.6559 24.7128 19.6936C24.8039 19.7313 24.9016 19.7507 25.0002 19.7506C25.0988 19.7505 25.1964 19.7309 25.2875 19.6931C25.3785 19.6552 25.4612 19.5997 25.5308 19.5299L29.5308 15.5299C29.6004 15.4602 29.6557 15.3776 29.6934 15.2866C29.7311 15.1956 29.7505 15.0981 29.7505 14.9996C29.7505 14.9011 29.7311 14.8036 29.6934 14.7126C29.6557 14.6216 29.6004 14.539 29.5308 14.4693Z" fill="#0F0F0F"/>
</svg>
