<svg width="32" height="32" viewBox="0 0 32 32" fill="none" xmlns="http://www.w3.org/2000/svg">
<path d="M12.0005 6.4996C11.8679 6.4996 11.7407 6.55228 11.6469 6.64605C11.5532 6.73981 11.5005 6.86699 11.5005 6.9996C11.5005 7.13221 11.5532 7.25939 11.6469 7.35315C11.7407 7.44692 11.8679 7.4996 12.0005 7.4996H16.0005C16.1331 7.4996 16.2603 7.44692 16.354 7.35315C16.4478 7.25939 16.5005 7.13221 16.5005 6.9996C16.5005 6.86699 16.4478 6.73981 16.354 6.64605C16.2603 6.55228 16.1331 6.4996 16.0005 6.4996H12.0005Z" fill="#0F0F0F"/>
<path d="M20.0002 7.49996C20.2764 7.49996 20.5002 7.2761 20.5002 6.99996C20.5002 6.72382 20.2764 6.49996 20.0002 6.49996C19.7241 6.49996 19.5002 6.72382 19.5002 6.99996C19.5002 7.2761 19.7241 7.49996 20.0002 7.49996Z" fill="#0F0F0F"/>
<path d="M25.0005 23.4498C24.9348 23.4498 24.8698 23.4627 24.8091 23.4878C24.7484 23.5129 24.6933 23.5497 24.6469 23.5962C24.6004 23.6426 24.5636 23.6977 24.5385 23.7584C24.5134 23.8191 24.5005 23.8841 24.5005 23.9498V24.9996C24.4994 25.9275 24.1303 26.8171 23.4741 27.4732C22.818 28.1294 21.9284 28.4985 21.0005 28.4996H11.0005C10.0726 28.4985 9.18299 28.1294 8.52685 27.4732C7.87072 26.8171 7.50161 25.9275 7.50049 24.9996V6.9996C7.50161 6.07169 7.87072 5.1821 8.52685 4.52597C9.18299 3.86983 10.0726 3.50072 11.0005 3.4996H21.0005C21.9284 3.50072 22.818 3.86983 23.4741 4.52597C24.1303 5.1821 24.4994 6.07169 24.5005 6.9996V7.9996C24.5005 8.13221 24.5532 8.25939 24.6469 8.35315C24.7407 8.44692 24.8679 8.4996 25.0005 8.4996C25.1331 8.4996 25.2603 8.44692 25.354 8.35315C25.4478 8.25939 25.5005 8.13221 25.5005 7.9996V6.9996C25.4992 5.80653 25.0247 4.66269 24.181 3.81906C23.3374 2.97543 22.1936 2.5009 21.0005 2.4996H11.0005C9.80741 2.5009 8.66358 2.97542 7.81994 3.81905C6.97631 4.66269 6.50179 5.80652 6.50049 6.9996V24.9996C6.50179 26.1927 6.97631 27.3365 7.81995 28.1801C8.66358 29.0238 9.80741 29.4983 11.0005 29.4996H21.0005C22.1936 29.4983 23.3374 29.0238 24.181 28.1801C25.0247 27.3365 25.4992 26.1927 25.5005 24.9996V23.9498C25.5005 23.8841 25.4876 23.8191 25.4625 23.7584C25.4374 23.6977 25.4006 23.6426 25.3541 23.5962C25.3077 23.5497 25.2526 23.5129 25.1919 23.4878C25.1312 23.4627 25.0662 23.4498 25.0005 23.4498Z" fill="#0F0F0F"/>
<path d="M28.354 15.6461L24.354 11.6461C24.3077 11.5989 24.2526 11.5613 24.1917 11.5356C24.1309 11.5098 24.0655 11.4964 23.9995 11.4961C23.9334 11.4957 23.8679 11.5085 23.8068 11.5336C23.7457 11.5588 23.6901 11.5958 23.6434 11.6425C23.5967 11.6892 23.5597 11.7447 23.5346 11.8059C23.5094 11.867 23.4967 11.9325 23.497 11.9985C23.4973 12.0646 23.5107 12.13 23.5365 12.1908C23.5622 12.2517 23.5998 12.3068 23.647 12.3531L26.7935 15.4996H20.0005C19.8679 15.4996 19.7407 15.5522 19.6469 15.646C19.5532 15.7398 19.5005 15.867 19.5005 15.9996C19.5005 16.1322 19.5532 16.2594 19.6469 16.3531C19.7407 16.4469 19.8679 16.4996 20.0005 16.4996H26.7935L23.647 19.646C23.5998 19.6923 23.5622 19.7474 23.5365 19.8083C23.5107 19.8692 23.4973 19.9345 23.497 20.0006C23.4967 20.0667 23.5094 20.1322 23.5346 20.1933C23.5597 20.2544 23.5967 20.3099 23.6434 20.3566C23.6901 20.4034 23.7457 20.4404 23.8068 20.4655C23.8679 20.4906 23.9334 20.5034 23.9995 20.5031C24.0655 20.5027 24.1309 20.4893 24.1917 20.4636C24.2526 20.4378 24.3077 20.4002 24.354 20.3531L28.354 16.353C28.4004 16.3066 28.4373 16.2515 28.4624 16.1909C28.4875 16.1302 28.5005 16.0652 28.5005 15.9996C28.5005 15.9339 28.4875 15.8689 28.4624 15.8083C28.4373 15.7476 28.4004 15.6925 28.354 15.6461Z" fill="#0F0F0F"/>
</svg>
