<svg width="32" height="32" viewBox="0 0 32 32" fill="none" xmlns="http://www.w3.org/2000/svg">
<path d="M2.5 10C2.5 7.51472 4.51472 5.5 7 5.5H25C27.4853 5.5 29.5 7.51472 29.5 10V13C29.5 13.2761 29.2761 13.5 29 13.5C28.7239 13.5 28.5 13.2761 28.5 13V10C28.5 8.067 26.933 6.5 25 6.5H7C5.067 6.5 3.5 8.067 3.5 10V22C3.5 23.933 5.067 25.5 7 25.5H13C13.2761 25.5 13.5 25.7239 13.5 26C13.5 26.2761 13.2761 26.5 13 26.5H7C4.51472 26.5 2.5 24.4853 2.5 22V10ZM12.8536 11.6464C13.0488 11.8417 13.0488 12.1583 12.8536 12.3536L9.70711 15.5H16C16.2761 15.5 16.5 15.7239 16.5 16C16.5 16.2761 16.2761 16.5 16 16.5H9.70711L12.8536 19.6464C13.0488 19.8417 13.0488 20.1583 12.8536 20.3536C12.6583 20.5488 12.3417 20.5488 12.1464 20.3536L8.14645 16.3536C7.95118 16.1583 7.95118 15.8417 8.14645 15.6464L12.1464 11.6464C12.3417 11.4512 12.6583 11.4512 12.8536 11.6464ZM23 14.5C24.6568 14.5 26 15.8432 26 17.5001C26 19.1569 24.6568 20.5 23 20.5C21.3431 20.5 20 19.1569 20 17.5001C20 15.8432 21.3431 14.5 23 14.5ZM25.1983 20.8423C26.2837 20.127 27 18.8972 27 17.5001C27 15.2909 25.2091 13.5 23 13.5C20.7908 13.5 19 15.2909 19 17.5001C19 18.8972 19.7163 20.127 20.8017 20.8423C18.3184 21.6415 16.5 23.7577 16.5 26.3146C16.5 27.5384 17.5248 28.3296 18.6902 28.7932C19.8922 29.2715 21.4598 29.5 23 29.5C24.5402 29.5 26.1078 29.2715 27.3098 28.7932C28.4752 28.3296 29.5 27.5384 29.5 26.3146C29.5 23.7577 27.6815 21.6415 25.1983 20.8423ZM23 21.5C26.0964 21.5 28.5 23.7104 28.5 26.3146C28.5 26.8811 28.0248 27.4326 26.9402 27.8641C25.8922 28.281 24.4598 28.5 23 28.5C21.5402 28.5 20.1078 28.281 19.0598 27.8641C17.9752 27.4326 17.5 26.8811 17.5 26.3146C17.5 23.7104 19.9036 21.5 23 21.5Z" fill="#0F0F0F"/>
</svg>
