<svg width="32" height="32" viewBox="0 0 32 32" fill="none" xmlns="http://www.w3.org/2000/svg">
<path d="M15 26.7457H17C17.1989 26.7457 17.3897 26.6667 17.5303 26.526C17.671 26.3854 17.75 26.1946 17.75 25.9957C17.75 25.7968 17.671 25.606 17.5303 25.4654C17.3897 25.3247 17.1989 25.2457 17 25.2457H15C14.8011 25.2457 14.6103 25.3247 14.4697 25.4654C14.329 25.606 14.25 25.7968 14.25 25.9957C14.25 26.1946 14.329 26.3854 14.4697 26.526C14.6103 26.6667 14.8011 26.7457 15 26.7457Z" fill="#0F0F0F"/>
<path d="M26 22.2496H6.75V7.00058C6.751 6.13893 7.09372 5.31286 7.703 4.70358C8.31228 4.0943 9.13835 3.75157 10 3.75058H22C22.8616 3.75157 23.6877 4.0943 24.297 4.70358C24.9063 5.31286 25.249 6.13893 25.25 7.00058C25.25 7.19949 25.329 7.39026 25.4697 7.53091C25.6103 7.67156 25.8011 7.75058 26 7.75058C26.1989 7.75058 26.3897 7.67156 26.5303 7.53091C26.671 7.39026 26.75 7.19949 26.75 7.00058C26.7486 5.74124 26.2477 4.53389 25.3572 3.6434C24.4667 2.75291 23.2593 2.25201 22 2.25058H10C8.74066 2.25201 7.53331 2.75291 6.64282 3.6434C5.75233 4.53389 5.25143 5.74124 5.25 7.00058V25.0006C5.25143 26.2599 5.75233 27.4673 6.64282 28.3578C7.53331 29.2482 8.74066 29.7492 10 29.7506H22C23.2593 29.7492 24.4667 29.2482 25.3572 28.3578C26.2477 27.4673 26.7486 26.2599 26.75 25.0006V22.9996C26.7499 22.8007 26.6709 22.61 26.5303 22.4693C26.3896 22.3287 26.1989 22.2497 26 22.2496ZM25.25 25.0006C25.249 25.8622 24.9063 26.6883 24.297 27.2976C23.6877 27.9069 22.8616 28.2496 22 28.2506H10C9.13835 28.2496 8.31228 27.9069 7.703 27.2976C7.09373 26.6883 6.751 25.8622 6.75 25.0006V23.7496H25.25V25.0006Z" fill="#0F0F0F"/>
<path d="M29.001 14.2496H22.8105L25.5303 11.5299C25.6701 11.3891 25.7483 11.1986 25.748 11.0002C25.7476 10.8017 25.6686 10.6116 25.5283 10.4713C25.388 10.331 25.1979 10.252 24.9994 10.2516C24.801 10.2513 24.6105 10.3295 24.4697 10.4693L20.4697 14.4693C20.4001 14.539 20.3448 14.6216 20.3071 14.7126C20.2694 14.8036 20.25 14.9011 20.25 14.9996C20.25 15.0981 20.2694 15.1956 20.3071 15.2866C20.3448 15.3776 20.4001 15.4602 20.4697 15.5299L24.4697 19.5299C24.6105 19.6697 24.801 19.7479 24.9994 19.7476C25.1979 19.7472 25.388 19.6682 25.5283 19.5279C25.6686 19.3876 25.7476 19.1975 25.748 18.999C25.7483 18.8006 25.6701 18.6101 25.5303 18.4693L22.8105 15.7496H29.001C29.1999 15.7496 29.3907 15.6706 29.5313 15.5299C29.672 15.3893 29.751 15.1985 29.751 14.9996C29.751 14.8007 29.672 14.6099 29.5313 14.4693C29.3907 14.3286 29.1999 14.2496 29.001 14.2496Z" fill="#0F0F0F"/>
</svg>
