<svg width="32" height="32" viewBox="0 0 32 32" fill="none" xmlns="http://www.w3.org/2000/svg">
<path d="M12.0005 5.9996C11.7353 5.9996 11.4809 6.10496 11.2934 6.2925C11.1058 6.48003 11.0005 6.73439 11.0005 6.9996C11.0005 7.26482 11.1058 7.51917 11.2934 7.70671C11.4809 7.89425 11.7353 7.9996 12.0005 7.9996H16.0005C16.2657 7.9996 16.5201 7.89425 16.7076 7.70671C16.8951 7.51917 17.0005 7.26482 17.0005 6.9996C17.0005 6.73439 16.8951 6.48003 16.7076 6.2925C16.5201 6.10496 16.2657 5.9996 16.0005 5.9996H12.0005Z" fill="#0F0F0F"/>
<path d="M20.0002 7.99996C20.5525 7.99996 21.0002 7.55225 21.0002 6.99996C21.0002 6.44768 20.5525 5.99996 20.0002 5.99996C19.448 5.99996 19.0002 6.44768 19.0002 6.99996C19.0002 7.55225 19.448 7.99996 20.0002 7.99996Z" fill="#0F0F0F"/>
<path d="M25.0005 22.9498C24.8691 22.9497 24.7391 22.9755 24.6177 23.0258C24.4964 23.076 24.3861 23.1496 24.2932 23.2425C24.2003 23.3354 24.1267 23.4457 24.0765 23.567C24.0262 23.6884 24.0004 23.8184 24.0005 23.9498V24.9996C23.9996 25.795 23.6833 26.5575 23.1208 27.12C22.5584 27.6824 21.7959 27.9987 21.0005 27.9996H11.0005C10.2051 27.9987 9.44255 27.6824 8.88013 27.12C8.31771 26.5575 8.00136 25.795 8.00049 24.9996V6.9996C8.00136 6.20422 8.31771 5.44166 8.88013 4.87924C9.44255 4.31682 10.2051 4.00047 11.0005 3.9996H21.0005C21.7959 4.00047 22.5584 4.31682 23.1208 4.87924C23.6833 5.44166 23.9996 6.20422 24.0005 6.9996V7.9996C24.0005 8.26482 24.1058 8.51917 24.2934 8.70671C24.4809 8.89425 24.7353 8.9996 25.0005 8.9996C25.2657 8.9996 25.5201 8.89425 25.7076 8.70671C25.8951 8.51917 26.0005 8.26482 26.0005 7.9996V6.9996C25.9989 5.674 25.4716 4.40314 24.5343 3.46579C23.597 2.52845 22.3261 2.00116 21.0005 1.9996H11.0005C9.67488 2.00116 8.40402 2.52844 7.46667 3.46579C6.52933 4.40313 6.00204 5.674 6.00049 6.9996V24.9996C6.00205 26.3252 6.52933 27.5961 7.46668 28.5334C8.40402 29.4708 9.67488 29.998 11.0005 29.9996H21.0005C22.3261 29.998 23.597 29.4708 24.5343 28.5334C25.4716 27.5961 25.9989 26.3252 26.0005 24.9996V23.9498C26.0006 23.8184 25.9747 23.6884 25.9245 23.567C25.8743 23.4457 25.8006 23.3354 25.7078 23.2425C25.6149 23.1496 25.5046 23.076 25.3833 23.0258C25.2619 22.9755 25.1318 22.9497 25.0005 22.9498Z" fill="#0F0F0F"/>
<path d="M28.7075 15.2926L24.7075 11.2926C24.52 11.1051 24.2657 10.9997 24.0005 10.9997C23.7353 10.9997 23.481 11.1051 23.2935 11.2926C23.1059 11.4801 23.0006 11.7344 23.0006 11.9996C23.0006 12.2648 23.1059 12.5191 23.2935 12.7066L25.5865 14.9996H20.0005C19.7353 14.9996 19.4809 15.105 19.2934 15.2925C19.1058 15.4801 19.0005 15.7344 19.0005 15.9996C19.0005 16.2648 19.1058 16.5192 19.2934 16.7067C19.4809 16.8943 19.7353 16.9996 20.0005 16.9996H25.5864L23.2934 19.2926C23.2006 19.3855 23.1269 19.4957 23.0767 19.617C23.0264 19.7383 23.0006 19.8684 23.0006 19.9997C23.0006 20.131 23.0264 20.261 23.0767 20.3823C23.1269 20.5036 23.2006 20.6138 23.2934 20.7067C23.3863 20.7995 23.4965 20.8732 23.6178 20.9234C23.7391 20.9737 23.8691 20.9996 24.0004 20.9996C24.1318 20.9996 24.2618 20.9737 24.3831 20.9234C24.5044 20.8732 24.6146 20.7995 24.7075 20.7067L28.7075 16.7067C28.8004 16.6139 28.8741 16.5036 28.9243 16.3823C28.9746 16.261 29.0005 16.131 29.0005 15.9996C29.0005 15.8683 28.9746 15.7383 28.9244 15.617C28.8741 15.4956 28.8004 15.3854 28.7075 15.2926Z" fill="#0F0F0F"/>
</svg>
