<svg width="32" height="32" viewBox="0 0 32 32" fill="none" xmlns="http://www.w3.org/2000/svg">
<path d="M24.9995 22.2496H7.75V6.9996C7.751 6.13795 8.09373 5.31188 8.703 4.7026C9.31228 4.09333 10.1384 3.7506 11 3.7496H20.9995C21.8612 3.7506 22.6872 4.09333 23.2965 4.7026C23.9058 5.31188 24.2485 6.13795 24.2495 6.9996C24.2495 7.19851 24.3285 7.38928 24.4692 7.52993C24.6098 7.67058 24.8006 7.7496 24.9995 7.7496C25.1984 7.7496 25.3892 7.67058 25.5298 7.52993C25.6705 7.38928 25.7495 7.19851 25.7495 6.9996C25.7481 5.74026 25.2472 4.53291 24.3567 3.64242C23.4662 2.75193 22.2588 2.25103 20.9995 2.2496H11C9.74066 2.25103 8.53331 2.75193 7.64282 3.64242C6.75233 4.53291 6.25143 5.74026 6.25 6.9996V24.9996C6.25143 26.2589 6.75233 27.4663 7.64282 28.3568C8.53331 29.2473 9.74066 29.7482 11 29.7496H20.9995C22.2588 29.7482 23.4662 29.2473 24.3567 28.3568C25.2472 27.4663 25.7481 26.2589 25.7495 24.9996V22.9996C25.7495 22.8007 25.6704 22.61 25.5298 22.4693C25.3891 22.3287 25.1984 22.2497 24.9995 22.2496ZM24.2495 24.9996C24.2485 25.8612 23.9058 26.6873 23.2965 27.2966C22.6872 27.9059 21.8612 28.2486 20.9995 28.2496H11C10.1384 28.2486 9.31228 27.9059 8.703 27.2966C8.09373 26.6873 7.751 25.8612 7.75 24.9996V23.7496H24.2495V24.9996Z" fill="#0F0F0F"/>
<path d="M14.9995 26.7496H16.9995C17.1984 26.7496 17.3892 26.6706 17.5298 26.5299C17.6705 26.3893 17.7495 26.1985 17.7495 25.9996C17.7495 25.8007 17.6705 25.6099 17.5298 25.4693C17.3892 25.3286 17.1984 25.2496 16.9995 25.2496H14.9995C14.8006 25.2496 14.6098 25.3286 14.4692 25.4693C14.3285 25.6099 14.2495 25.8007 14.2495 25.9996C14.2495 26.1985 14.3285 26.3893 14.4692 26.5299C14.6098 26.6706 14.8006 26.7496 14.9995 26.7496Z" fill="#0F0F0F"/>
<path d="M29.0005 14.2496H22.8101L25.5298 11.5299C25.5998 11.4603 25.6555 11.3776 25.6935 11.2865C25.7315 11.1954 25.7512 11.0977 25.7514 10.999C25.7515 10.9003 25.7322 10.8025 25.6945 10.7113C25.6568 10.6201 25.6015 10.5372 25.5317 10.4674C25.4619 10.3976 25.379 10.3423 25.2878 10.3046C25.1966 10.2669 25.0988 10.2476 25.0001 10.2478C24.9014 10.2479 24.8037 10.2676 24.7126 10.3056C24.6215 10.3436 24.5388 10.3993 24.4692 10.4693L20.4692 14.4693C20.3996 14.539 20.3443 14.6216 20.3066 14.7126C20.2689 14.8036 20.2495 14.9011 20.2495 14.9996C20.2495 15.0981 20.2689 15.1956 20.3066 15.2866C20.3443 15.3776 20.3996 15.4602 20.4692 15.5299L24.4692 19.5299C24.5388 19.5999 24.6215 19.6556 24.7126 19.6936C24.8037 19.7316 24.9014 19.7513 25.0001 19.7514C25.0988 19.7516 25.1966 19.7323 25.2878 19.6946C25.379 19.6569 25.4619 19.6016 25.5317 19.5318C25.6015 19.462 25.6568 19.3791 25.6945 19.2879C25.7322 19.1967 25.7515 19.0989 25.7514 19.0002C25.7512 18.9015 25.7315 18.8038 25.6935 18.7127C25.6555 18.6216 25.5998 18.5389 25.5298 18.4693L22.8101 15.7496H29.0005C29.1994 15.7496 29.3902 15.6706 29.5308 15.5299C29.6715 15.3893 29.7505 15.1985 29.7505 14.9996C29.7505 14.8007 29.6715 14.6099 29.5308 14.4693C29.3902 14.3286 29.1994 14.2496 29.0005 14.2496Z" fill="#0F0F0F"/>
</svg>
