<svg width="32" height="32" viewBox="0 0 32 32" fill="none" xmlns="http://www.w3.org/2000/svg">
<path d="M25 2.24965H13C11.7407 2.25108 10.5333 2.75198 9.64282 3.64247C8.75233 4.53296 8.25143 5.74031 8.25 6.99965V12.2496H6.99707C5.73773 12.2511 4.53038 12.752 3.63989 13.6425C2.7494 14.533 2.2485 15.7403 2.24707 16.9996V24.9996C2.2485 26.259 2.7494 27.4663 3.63989 28.3568C4.53038 29.2473 5.73773 29.7482 6.99707 29.7496H18.9971C20.2564 29.7482 21.4638 29.2473 22.3542 28.3568C23.2447 27.4663 23.7456 26.259 23.7471 24.9996V19.7496H25C26.2593 19.7482 27.4667 19.2473 28.3572 18.3568C29.2477 17.4663 29.7486 16.259 29.75 14.9996V6.99965C29.7486 5.74031 29.2477 4.53296 28.3572 3.64247C27.4667 2.75198 26.2593 2.25108 25 2.24965ZM22.2471 24.9996C22.2461 25.8613 21.9033 26.6874 21.2941 27.2966C20.6848 27.9059 19.8587 28.2487 18.9971 28.2496H6.99707C6.13542 28.2487 5.30935 27.9059 4.70007 27.2966C4.09079 26.6874 3.74807 25.8613 3.74707 24.9996V16.9996C3.74807 16.138 4.09079 15.3119 4.70007 14.7027C5.30935 14.0934 6.13542 13.7506 6.99707 13.7496H18.9971C19.8587 13.7506 20.6848 14.0934 21.2941 14.7027C21.9033 15.3119 22.2461 16.138 22.2471 16.9996V24.9996ZM28.25 14.9996C28.249 15.8613 27.9063 16.6874 27.297 17.2966C26.6877 17.9059 25.8616 18.2487 25 18.2496H23.7471V16.9996C23.7456 15.7403 23.2447 14.533 22.3542 13.6425C21.4638 12.752 20.2564 12.2511 18.9971 12.2496H9.75V6.99965C9.751 6.138 10.0937 5.31193 10.703 4.70265C11.3123 4.09337 12.1384 3.75064 13 3.74965H25C25.8616 3.75065 26.6877 4.09338 27.297 4.70265C27.9063 5.31193 28.249 6.138 28.25 6.99965V14.9996Z" fill="#0F0F0F"/>
<path d="M20 6.24965H18C17.8011 6.24965 17.6103 6.32867 17.4697 6.46932C17.329 6.60997 17.25 6.80074 17.25 6.99965C17.25 7.19856 17.329 7.38933 17.4697 7.52998C17.6103 7.67063 17.8011 7.74965 18 7.74965H20C20.1989 7.74965 20.3897 7.67063 20.5303 7.52998C20.671 7.38933 20.75 7.19856 20.75 6.99965C20.75 6.80074 20.671 6.60997 20.5303 6.46932C20.3897 6.32867 20.1989 6.24965 20 6.24965Z" fill="#0F0F0F"/>
<path d="M14 16.2496H12C11.8011 16.2496 11.6103 16.3287 11.4697 16.4693C11.329 16.61 11.25 16.8007 11.25 16.9996C11.25 17.1986 11.329 17.3893 11.4697 17.53C11.6103 17.6706 11.8011 17.7496 12 17.7496H14C14.1989 17.7496 14.3897 17.6706 14.5303 17.53C14.671 17.3893 14.75 17.1986 14.75 16.9996C14.75 16.8007 14.671 16.61 14.5303 16.4693C14.3897 16.3287 14.1989 16.2496 14 16.2496Z" fill="#0F0F0F"/>
</svg>
