<svg width="32" height="32" viewBox="0 0 32 32" fill="none" xmlns="http://www.w3.org/2000/svg">
<path d="M27 3.67188C27 2.66709 26.0314 1.94642 25.069 2.23514L11.4253 6.32825C10.5793 6.58204 10 7.36068 10 8.2439V22.5351C9.41165 22.1948 8.72857 22 8 22C5.79086 22 4 23.7909 4 26C4 28.2091 5.79086 30 8 30C10.2091 30 12 28.2091 12 26C12 26 12 26 12 26V8.98793C12 8.54632 12.2897 8.157 12.7127 8.0301L24.3563 4.537C24.6771 4.44076 25 4.68098 25 5.01591V18.5351C24.4117 18.1948 23.7286 18 23 18C20.7909 18 19 19.7909 19 22C19 24.2091 20.7909 26 23 26C25.2091 26 27 24.2091 27 22C27 22 27 22 27 22V3.67188Z" fill="#0F0F0F"/>
</svg>
