<svg width="32" height="32" viewBox="0 0 32 32" fill="none" xmlns="http://www.w3.org/2000/svg">
<path fill-rule="evenodd" clip-rule="evenodd" d="M26.75 3.50098C26.75 2.49619 25.7814 1.77552 24.819 2.06424L11.6753 6.00735C10.8293 6.26114 10.25 7.03978 10.25 7.923V22.8773C9.5652 22.3284 8.69595 22 7.75 22C5.54086 22 3.75 23.7909 3.75 26C3.75 28.2091 5.54086 30 7.75 30C9.95914 30 11.75 28.2091 11.75 26V8.29501C11.75 7.85341 12.0397 7.46408 12.4627 7.33719L24.6063 3.69409C24.9271 3.59784 25.25 3.83807 25.25 4.173V18.8773C24.5652 18.3284 23.6959 18 22.75 18C20.5409 18 18.75 19.7909 18.75 22C18.75 24.2091 20.5409 26 22.75 26C24.9591 26 26.75 24.2091 26.75 22V3.50098ZM25.25 22C25.25 20.6193 24.1307 19.5 22.75 19.5C21.3693 19.5 20.25 20.6193 20.25 22C20.25 23.3807 21.3693 24.5 22.75 24.5C24.1307 24.5 25.25 23.3807 25.25 22ZM10.25 26C10.25 24.6193 9.13071 23.5 7.75 23.5C6.36929 23.5 5.25 24.6193 5.25 26C5.25 27.3807 6.36929 28.5 7.75 28.5C9.13071 28.5 10.25 27.3807 10.25 26Z" fill="#0F0F0F"/>
</svg>
