<svg width="32" height="32" viewBox="0 0 32 32" fill="none" xmlns="http://www.w3.org/2000/svg">
<path fill-rule="evenodd" clip-rule="evenodd" d="M18.9686 10.7083C20.0546 9.83776 20.75 8.50009 20.75 7C20.75 4.37665 18.6234 2.25 16 2.25C13.3766 2.25 11.25 4.37665 11.25 7C11.25 8.50009 11.9454 9.83776 13.0314 10.7083C12.1226 11.0017 11.2974 11.4273 10.5968 11.9592C9.18758 13.029 8.25 14.5616 8.25 16.3141C8.25 17.0362 8.61175 17.6187 9.10704 18.053C9.59186 18.4782 10.24 18.7978 10.9454 19.0384C12.361 19.5212 14.1993 19.75 16 19.75C17.8007 19.75 19.639 19.5212 21.0546 19.0384C21.76 18.7978 22.4081 18.4782 22.893 18.053C23.3882 17.6187 23.75 17.0362 23.75 16.3141C23.75 14.5616 22.8124 13.029 21.4032 11.9592C20.7026 11.4273 19.8774 11.0017 18.9686 10.7083ZM12.75 7C12.75 5.20507 14.2051 3.75 16 3.75C17.7949 3.75 19.25 5.20507 19.25 7C19.25 8.79493 17.7949 10.25 16 10.25C14.2051 10.25 12.75 8.79493 12.75 7ZM16 11.75C14.2158 11.75 12.6286 12.2999 11.5038 13.1539C10.3795 14.0074 9.75 15.1318 9.75 16.3141C9.75 16.4872 9.82575 16.6882 10.0961 16.9253C10.3769 17.1716 10.8225 17.4116 11.4296 17.6187C12.639 18.0311 14.3007 18.25 16 18.25C17.6993 18.25 19.361 18.0311 20.5704 17.6187C21.1775 17.4116 21.6231 17.1716 21.9039 16.9253C22.1743 16.6882 22.25 16.4872 22.25 16.3141C22.25 15.1318 21.6205 14.0074 20.4962 13.1539C19.3714 12.2999 17.7842 11.75 16 11.75Z" fill="#0F0F0F"/>
<path d="M2.25 24C2.25 23.5858 2.58579 23.25 3 23.25H29C29.4142 23.25 29.75 23.5858 29.75 24C29.75 24.4142 29.4142 24.75 29 24.75H3C2.58579 24.75 2.25 24.4142 2.25 24Z" fill="#0F0F0F"/>
<path d="M5.25 29C5.25 28.5858 5.58579 28.25 6 28.25H26C26.4142 28.25 26.75 28.5858 26.75 29C26.75 29.4142 26.4142 29.75 26 29.75H6C5.58579 29.75 5.25 29.4142 5.25 29Z" fill="#0F0F0F"/>
</svg>
