<svg width="32" height="32" viewBox="0 0 32 32" fill="none" xmlns="http://www.w3.org/2000/svg">
<path fill-rule="evenodd" clip-rule="evenodd" d="M18.4049 10.8042C19.6641 10.0065 20.5 8.60085 20.5 7C20.5 4.51472 18.4853 2.5 16 2.5C13.5147 2.5 11.5 4.51472 11.5 7C11.5 8.60085 12.3359 10.0065 13.5951 10.8042C12.5183 11.0854 11.5474 11.5514 10.748 12.1583C9.38623 13.1921 8.5 14.6567 8.5 16.3141C8.5 16.9447 8.81408 17.4636 9.27188 17.8651C9.7227 18.2605 10.3371 18.5668 11.0261 18.8018C12.4074 19.2729 14.2162 19.5 16 19.5C17.7838 19.5 19.5926 19.2729 20.9739 18.8018C21.6629 18.5668 22.2773 18.2605 22.7281 17.8651C23.1859 17.4636 23.5 16.9447 23.5 16.3141C23.5 14.6567 22.6138 13.1921 21.252 12.1583C20.4526 11.5514 19.4817 11.0854 18.4049 10.8042ZM12.5 7C12.5 5.067 14.067 3.5 16 3.5C17.933 3.5 19.5 5.067 19.5 7C19.5 8.933 17.933 10.5 16 10.5C14.067 10.5 12.5 8.933 12.5 7ZM16 11.5C14.1662 11.5 12.5248 12.0649 11.3526 12.9548C10.1808 13.8443 9.5 15.0368 9.5 16.3141C9.5 16.5787 9.62342 16.8433 9.93125 17.1133C10.2461 17.3894 10.7254 17.6426 11.3489 17.8553C12.5926 18.2795 14.2838 18.5 16 18.5C17.7162 18.5 19.4074 18.2795 20.6511 17.8553C21.2746 17.6426 21.7539 17.3894 22.0688 17.1133C22.3766 16.8433 22.5 16.5787 22.5 16.3141C22.5 15.0368 21.8192 13.8443 20.6474 12.9548C19.4752 12.0649 17.8338 11.5 16 11.5Z" fill="#0F0F0F"/>
<path d="M2.5 24C2.5 23.7239 2.72386 23.5 3 23.5H29C29.2761 23.5 29.5 23.7239 29.5 24C29.5 24.2761 29.2761 24.5 29 24.5H3C2.72386 24.5 2.5 24.2761 2.5 24Z" fill="#0F0F0F"/>
<path d="M5.5 29C5.5 28.7239 5.72386 28.5 6 28.5H26C26.2761 28.5 26.5 28.7239 26.5 29C26.5 29.2761 26.2761 29.5 26 29.5H6C5.72386 29.5 5.5 29.2761 5.5 29Z" fill="#0F0F0F"/>
</svg>
