<svg width="32" height="32" viewBox="0 0 32 32" fill="none" xmlns="http://www.w3.org/2000/svg">
<path d="M27.7812 16.334C27.7812 16.0928 27.6797 15.877 27.4893 15.6992L19.0088 7.19336C18.7676 6.95215 18.5518 6.86328 18.3232 6.86328C17.8408 6.86328 17.4854 7.21875 17.4854 7.68848C17.4854 7.92969 17.5615 8.14551 17.7139 8.31055L21.5098 12.1445L25.2549 15.623L22.3096 15.4834H5.04395C4.56152 15.4834 4.20605 15.8389 4.20605 16.334C4.20605 16.8291 4.56152 17.1846 5.04395 17.1846H22.3096L25.2676 17.0449L21.5098 20.5234L17.7139 24.3574C17.5615 24.5098 17.4854 24.7383 17.4854 24.9668C17.4854 25.4365 17.8408 25.792 18.3232 25.792C18.5518 25.792 18.7549 25.7158 18.9453 25.5381L27.4893 16.9688C27.6797 16.791 27.7812 16.5752 27.7812 16.334Z" fill="black"/>
</svg>
