<svg width="32" height="32" viewBox="0 0 32 32" fill="none" xmlns="http://www.w3.org/2000/svg">
<path d="M1.05762 18.5938H5.03125C5.29785 18.5938 5.56445 18.4287 5.62793 18.1367L6.16113 15.8896L8.07812 24.8906C8.21777 25.5254 9.2207 25.5381 9.30957 24.8906L11.0361 13.4902L12.9785 30.3877C13.0674 31.1367 14.1465 31.1367 14.21 30.3877L16.0381 9.91016L17.8535 30.3623C17.9297 31.124 18.9961 31.1367 19.0977 30.3623L21.04 13.4902L22.7666 24.916C22.8682 25.5381 23.8584 25.5381 23.998 24.916L25.9023 15.9658L26.4482 18.1367C26.5244 18.4668 26.7783 18.5938 27.0449 18.5938H30.9297C31.3359 18.5938 31.6406 18.2891 31.6406 17.9082C31.6406 17.5146 31.3359 17.1973 30.9297 17.1973H27.502L26.4355 13.0332C26.2705 12.3604 25.3691 12.373 25.2168 13.0459L23.4775 21.3613L21.5605 8.74219C21.4463 7.99316 20.4053 8.00586 20.3164 8.74219L18.5518 24.1797L16.6602 2.83887C16.5967 2.07715 15.4795 2.07715 15.416 2.83887L13.5244 24.1797L11.7471 8.74219C11.6582 7.99316 10.6299 7.99316 10.5156 8.74219L8.59863 21.3613L6.84668 13.0586C6.70703 12.3984 5.79297 12.3984 5.62793 13.0586L4.56152 17.1973H1.05762C0.664062 17.1973 0.34668 17.5146 0.34668 17.9082C0.34668 18.2891 0.664062 18.5938 1.05762 18.5938Z" fill="black"/>
</svg>
