<svg width="32" height="32" viewBox="0 0 32 32" fill="none" xmlns="http://www.w3.org/2000/svg">
<path d="M27 19.987L21.2902 19.9908L22.7453 11.988L27.001 11.985C27.2662 11.9849 27.5205 11.8794 27.7079 11.6918C27.8954 11.5041 28.0006 11.2497 28.0005 10.9845C28.0003 10.7193 27.8948 10.465 27.7072 10.2775C27.5196 10.0901 27.2652 9.98487 27 9.985L23.1089 9.98768L23.9833 5.17836C24.0079 5.04878 24.0065 4.91562 23.9794 4.78655C23.9522 4.65749 23.8998 4.53507 23.8251 4.42636C23.7505 4.31764 23.655 4.22479 23.5443 4.15314C23.4336 4.08148 23.3097 4.03246 23.18 4.00888C23.0502 3.9853 22.9171 3.98764 22.7882 4.01575C22.6594 4.04387 22.5373 4.09721 22.4292 4.17271C22.321 4.2482 22.2289 4.34435 22.1581 4.45562C22.0873 4.56688 22.0392 4.69106 22.0166 4.821L21.0769 9.98921L13.1077 9.99476L13.9834 5.17842C14.0068 5.04928 14.0046 4.91678 13.9769 4.78849C13.9492 4.6602 13.8964 4.53863 13.8217 4.43072C13.747 4.32281 13.6517 4.23067 13.5414 4.15957C13.4311 4.08847 13.3078 4.0398 13.1787 4.01633C13.0495 3.99286 12.917 3.99506 12.7888 4.02279C12.6605 4.05053 12.5389 4.10327 12.431 4.17799C12.3231 4.25271 12.2309 4.34795 12.1598 4.45828C12.0887 4.56861 12.0401 4.69186 12.0166 4.821L11.0757 9.99617L5.99901 9.9997C5.86769 9.99977 5.73767 10.0257 5.61637 10.076C5.49507 10.1263 5.38486 10.2 5.29205 10.2929C5.10461 10.4806 4.99938 10.735 4.99951 11.0002C4.99964 11.2654 5.10513 11.5197 5.29276 11.7072C5.48039 11.8946 5.7348 11.9998 6.00001 11.9997L10.712 11.9964L9.25701 19.9988L4.99901 20.0017C4.86769 20.0017 4.73767 20.0276 4.61637 20.078C4.49507 20.1283 4.38486 20.202 4.29205 20.2949C4.10461 20.4825 3.99938 20.7369 3.99951 21.0022C3.99964 21.2674 4.10513 21.5217 4.29276 21.7091C4.48039 21.8966 4.7348 22.0018 5.00001 22.0017L8.89335 21.9991L8.01659 26.821C7.99295 26.9502 7.99503 27.0827 8.0227 27.2111C8.05036 27.3394 8.10308 27.4611 8.17783 27.569C8.25257 27.677 8.34788 27.7691 8.4583 27.8402C8.56871 27.9112 8.69206 27.9598 8.82127 27.9831C8.8805 27.9944 8.94067 28 9.00096 27.9997C9.23501 27.9997 9.46162 27.9174 9.64118 27.7673C9.82075 27.6172 9.94186 27.4088 9.98336 27.1784L10.9254 21.9977L18.8945 21.9924L18.0166 26.821C17.993 26.9502 17.995 27.0827 18.0227 27.2111C18.0504 27.3394 18.1031 27.4611 18.1778 27.569C18.2526 27.677 18.3479 27.7691 18.4583 27.8402C18.5687 27.9112 18.6921 27.9598 18.8213 27.9831C18.8805 27.9944 18.9407 28 19.001 27.9997C19.235 27.9997 19.4616 27.9174 19.6412 27.7673C19.8208 27.6172 19.9419 27.4088 19.9834 27.1784L20.9266 21.991L27.001 21.987C27.2662 21.9869 27.5205 21.8814 27.7079 21.6938C27.8954 21.5062 28.0006 21.2518 28.0005 20.9865C28.0003 20.7213 27.8948 20.467 27.7072 20.2796C27.5196 20.0921 27.2652 19.9869 27 19.987ZM11.289 19.9974L12.744 11.995L20.7132 11.9894L19.2582 19.9921L11.289 19.9974Z" fill="#0F0F0F"/>
</svg>
