<svg width="32" height="32" viewBox="0 0 32 32" fill="none" xmlns="http://www.w3.org/2000/svg">
<path d="M11 3.5C11 2.94772 10.5523 2.5 10 2.5C9.44772 2.5 9 2.94772 9 3.5V5.5C6.23858 5.5 4 7.73858 4 10.5V24.5C4 27.2614 6.23858 29.5 9 29.5H23C25.7614 29.5 28 27.2614 28 24.5V10.5C28 7.73858 25.7614 5.5 23 5.5V3.5C23 2.94772 22.5523 2.5 22 2.5C21.4477 2.5 21 2.94772 21 3.5V5.5H11V3.5ZM23 7.5C24.6569 7.5 26 8.84315 26 10.5V24.5C26 26.1569 24.6569 27.5 23 27.5H9C7.34315 27.5 6 26.1569 6 24.5V10.5C6 8.84315 7.34315 7.5 9 7.5H23ZM15.592 14.94V20.5H17.152V13.5H15.602L13.992 14.35V15.76L15.592 14.94Z" fill="#0F0F0F"/>
</svg>
