<svg width="32" height="32" viewBox="0 0 32 32" fill="none" xmlns="http://www.w3.org/2000/svg">
<path d="M11 3C11 2.44772 10.5523 2 10 2C9.44772 2 9 2.44772 9 3V5C6.23858 5 4 7.23858 4 10V24C4 26.7614 6.23858 29 9 29H23C25.7614 29 28 26.7614 28 24V10C28 7.23858 25.7614 5 23 5V3C23 2.44772 22.5523 2 22 2C21.4477 2 21 2.44772 21 3V5H11V3ZM23 7C24.6569 7 26 8.34315 26 10V24C26 25.6569 24.6569 27 23 27H9C7.34315 27 6 25.6569 6 24V10C6 8.34315 7.34315 7 9 7H23ZM15.592 14.44V20H17.152V13H15.602L13.992 13.85V15.26L15.592 14.44Z" fill="#0F0F0F"/>
</svg>
