<svg width="32" height="32" viewBox="0 0 32 32" fill="none" xmlns="http://www.w3.org/2000/svg">
<path d="M10.75 3.5C10.75 3.08579 10.4142 2.75 10 2.75C9.58579 2.75 9.25 3.08579 9.25 3.5V5.75H9C6.37665 5.75 4.25 7.87665 4.25 10.5V24.5C4.25 27.1234 6.37665 29.25 9 29.25H23C25.6234 29.25 27.75 27.1234 27.75 24.5V10.5C27.75 7.87665 25.6234 5.75 23 5.75H22.75V3.5C22.75 3.08579 22.4142 2.75 22 2.75C21.5858 2.75 21.25 3.08579 21.25 3.5V5.75H10.75V3.5ZM23 7.25C24.7949 7.25 26.25 8.70507 26.25 10.5V24.5C26.25 26.2949 24.7949 27.75 23 27.75H9C7.20507 27.75 5.75 26.2949 5.75 24.5V10.5C5.75 8.70507 7.20507 7.25 9 7.25H23ZM15.782 20.5H16.972V13.5H15.792L14.192 14.33V15.49L15.782 14.68V20.5Z" fill="#0F0F0F"/>
</svg>
