<svg width="32" height="32" viewBox="0 0 32 32" fill="none" xmlns="http://www.w3.org/2000/svg">
<path d="M10.75 3C10.75 2.58579 10.4142 2.25 10 2.25C9.58579 2.25 9.25 2.58579 9.25 3V5.25H9C6.37665 5.25 4.25 7.37665 4.25 10V24C4.25 26.6234 6.37665 28.75 9 28.75H23C25.6234 28.75 27.75 26.6234 27.75 24V10C27.75 7.37665 25.6234 5.25 23 5.25H22.75V3C22.75 2.58579 22.4142 2.25 22 2.25C21.5858 2.25 21.25 2.58579 21.25 3V5.25H10.75V3ZM23 6.75C24.7949 6.75 26.25 8.20507 26.25 10V24C26.25 25.7949 24.7949 27.25 23 27.25H9C7.20507 27.25 5.75 25.7949 5.75 24V10C5.75 8.20507 7.20507 6.75 9 6.75H23ZM15.782 20H16.972V13H15.792L14.192 13.83V14.99L15.782 14.18V20Z" fill="#0F0F0F"/>
</svg>
