<svg width="32" height="32" viewBox="0 0 32 32" fill="none" xmlns="http://www.w3.org/2000/svg">
<path d="M29.0001 2.50041H21.0001C20.8675 2.50041 20.7403 2.55309 20.6466 2.64686C20.5528 2.74062 20.5001 2.8678 20.5001 3.00041C20.5001 3.13302 20.5528 3.2602 20.6466 3.35396C20.7403 3.44773 20.8675 3.50041 21.0001 3.50041H27.7904L18.6466 12.6469C18.5994 12.6931 18.5619 12.7483 18.5361 12.8091C18.5104 12.87 18.4969 12.9354 18.4966 13.0014C18.4963 13.0675 18.509 13.133 18.5342 13.1941C18.5593 13.2552 18.5963 13.3108 18.643 13.3575C18.6897 13.4042 18.7453 13.4412 18.8064 13.4663C18.8675 13.4915 18.933 13.5042 18.9991 13.5039C19.0651 13.5036 19.1305 13.4901 19.1914 13.4644C19.2522 13.4386 19.3074 13.4011 19.3536 13.3539L28.5001 4.20472V11.0004C28.5001 11.133 28.5528 11.2602 28.6465 11.3539C28.7403 11.4477 28.8675 11.5004 29.0001 11.5004C29.1327 11.5004 29.2599 11.4477 29.3537 11.3539C29.4474 11.2602 29.5001 11.133 29.5001 11.0004V3.00037C29.5001 2.9347 29.4872 2.86968 29.4621 2.809C29.437 2.74833 29.4002 2.6932 29.3537 2.64677C29.3073 2.60034 29.2522 2.56351 29.1915 2.5384C29.1308 2.51328 29.0658 2.50038 29.0001 2.50041Z" fill="#0F0F0F"/>
<path d="M23.8615 19.8754C23.2875 19.3275 22.5243 19.022 21.7307 19.0225C20.9372 19.0231 20.1744 19.3296 19.6012 19.8783C19.6012 19.8783 18.1295 21.3754 17.84 21.685C16.8473 21.7061 15.8608 21.5235 14.9414 21.1486C14.022 20.7738 13.1892 20.2145 12.4943 19.5053C11.0956 18.103 10.295 16.2131 10.2609 14.2328C10.6237 13.8705 12.1212 12.3978 12.1241 12.3949C12.6877 11.8299 13.0042 11.0645 13.0042 10.2665C13.0042 9.46853 12.6877 8.70311 12.1241 8.13811L9.37073 5.38518C8.79525 4.83495 8.02972 4.52788 7.23352 4.52788C6.43733 4.52788 5.6718 4.83495 5.09632 5.38518L3.62464 6.85686C1.74183 8.74064 1.3805 15.4135 8.98353 23.016C13.1119 27.1439 16.7379 28.6537 19.0524 29.1928C19.8727 29.388 20.7126 29.4893 21.5558 29.4945C22.8503 29.5907 24.1329 29.1902 25.1427 28.3744L26.6144 26.9027C27.1812 26.3359 27.4996 25.5671 27.4996 24.7655C27.4996 23.9639 27.1812 23.1951 26.6144 22.6283L23.8615 19.8754ZM25.9074 26.1957L24.4357 27.6674C23.7277 28.3744 21.8605 28.8217 19.2794 28.2192C17.0914 27.7094 13.652 26.2699 9.69056 22.309C2.53138 15.1498 2.95081 8.94572 4.33167 7.56389L5.80335 6.09221C5.9911 5.90429 6.21405 5.75521 6.45945 5.6535C6.70484 5.55178 6.96788 5.49943 7.23352 5.49943C7.49917 5.49943 7.7622 5.55178 8.0076 5.6535C8.253 5.75521 8.47595 5.90429 8.6637 6.09221L11.4171 8.84514C11.793 9.22192 12.0043 9.73224 12.0049 10.2645C12.0054 10.7967 11.7952 11.3074 11.42 11.685C11.42 11.685 9.91859 13.1615 9.55384 13.5258C8.97523 14.1049 9.48743 16.059 9.54798 16.2797C9.94856 17.7594 10.7192 19.1127 11.7872 20.2123C14.0905 22.516 17.7755 23.141 18.4732 22.4457C18.837 22.0824 20.3111 20.5824 20.3111 20.5824C20.6938 20.2163 21.2031 20.0119 21.7328 20.0119C22.2624 20.0119 22.7717 20.2163 23.1544 20.5824L25.9073 23.3354C26.2866 23.7147 26.4996 24.2291 26.4996 24.7655C26.4996 25.3019 26.2866 25.8164 25.9074 26.1957Z" fill="#0F0F0F"/>
</svg>
