<svg width="32" height="32" viewBox="0 0 32 32" fill="none" xmlns="http://www.w3.org/2000/svg">
<path d="M28.9998 2.25041H20.9998C20.8009 2.25041 20.6102 2.32943 20.4695 2.47008C20.3289 2.61073 20.2498 2.8015 20.2498 3.00041C20.2498 3.19932 20.3289 3.39009 20.4695 3.53074C20.6102 3.67139 20.8009 3.75041 20.9998 3.75041H27.1867L18.4696 12.4701C18.3995 12.5397 18.3439 12.6224 18.3059 12.7135C18.2678 12.8046 18.2482 12.9023 18.248 13.001C18.2478 13.0997 18.2671 13.1975 18.3048 13.2887C18.3425 13.3799 18.3978 13.4628 18.4676 13.5326C18.5374 13.6024 18.6203 13.6577 18.7116 13.6954C18.8028 13.7331 18.9006 13.7524 18.9993 13.7523C19.098 13.7521 19.1957 13.7324 19.2868 13.6944C19.3779 13.6564 19.4606 13.6007 19.5301 13.5307L28.2498 4.80839V11.0004C28.2498 11.1993 28.3289 11.3901 28.4695 11.5307C28.6102 11.6714 28.8009 11.7504 28.9998 11.7504C29.1988 11.7504 29.3895 11.6714 29.5302 11.5307C29.6708 11.3901 29.7498 11.1993 29.7498 11.0004V3.00039C29.7498 2.8015 29.6708 2.61077 29.5301 2.47013C29.3895 2.3295 29.1987 2.25047 28.9998 2.25041Z" fill="#0F0F0F"/>
<path d="M9.27719 22.6159C16.148 29.4867 22.2489 29.0896 23.9883 27.3502L25.0255 26.313C25.5833 25.754 25.8966 24.9966 25.8966 24.2069C25.8966 23.4172 25.5833 22.6597 25.0255 22.1008L22.5016 19.5769C21.9444 19.0241 21.1907 18.7149 20.4058 18.7171C19.6209 18.7193 18.869 19.0327 18.3149 19.5886L17.0747 20.8288C15.5809 20.5633 14.2113 19.8267 13.1662 18.7268C12.0669 17.6823 11.3293 16.3144 11.0608 14.8219L12.3114 13.5727C12.8564 12.9897 13.1524 12.217 13.1363 11.419C13.1201 10.6211 12.7932 9.86091 12.2251 9.30037L9.79236 6.86762C9.23338 6.30979 8.47594 5.9965 7.68623 5.9965C6.89653 5.99651 6.13908 6.30979 5.5801 6.86762L4.5429 7.90482C2.80341 9.64424 2.40638 15.7451 9.27719 22.6159ZM6.64073 7.92824C6.91819 7.65133 7.29419 7.49581 7.6862 7.49581C8.07821 7.49581 8.4542 7.65133 8.73167 7.92824L11.1644 10.361C11.4513 10.6404 11.6201 11.0192 11.6361 11.4193C11.6522 11.8194 11.5142 12.2105 11.2507 12.512L9.86891 13.8924C8.99677 14.7645 10.1679 17.8498 12.1056 19.7875C14.0432 21.7251 17.1313 22.8935 18.0048 22.02L19.3755 20.6492C19.6481 20.3742 20.0186 20.2186 20.4058 20.2164C20.793 20.2142 21.1653 20.3656 21.4409 20.6375L23.9648 23.1614C24.2418 23.4389 24.3973 23.8149 24.3973 24.2069C24.3973 24.5989 24.2418 24.9749 23.9648 25.2524L22.9276 26.2896C21.7717 27.4455 16.5077 27.7252 10.3378 21.5553C4.1679 15.3853 4.44756 10.1214 5.60352 8.96545L6.64073 7.92824Z" fill="#0F0F0F"/>
</svg>
