<svg width="32" height="32" viewBox="0 0 32 32" fill="none" xmlns="http://www.w3.org/2000/svg">
<path d="M28.9998 2.00041H20.9998C20.7346 2.00041 20.4802 2.10577 20.2927 2.29331C20.1052 2.48084 19.9998 2.7352 19.9998 3.00041C19.9998 3.26563 20.1052 3.51998 20.2927 3.70752C20.4802 3.89505 20.7346 4.00041 20.9998 4.00041H26.5833L18.2928 12.2934C18.1999 12.3863 18.1263 12.4965 18.076 12.6178C18.0258 12.7391 17.9999 12.8691 17.9999 13.0004C17.9999 13.1318 18.0258 13.2618 18.0761 13.3831C18.1263 13.5044 18.2 13.6146 18.2928 13.7075C18.3857 13.8003 18.4959 13.874 18.6172 13.9242C18.7385 13.9745 18.8685 14.0003 18.9998 14.0003C19.1312 14.0003 19.2612 13.9745 19.3825 13.9242C19.5038 13.8739 19.614 13.8003 19.7069 13.7074L27.9999 5.41203V11.0004C27.9999 11.2656 28.1052 11.52 28.2928 11.7075C28.4803 11.8951 28.7347 12.0004 28.9999 12.0004C29.2651 12.0004 29.5194 11.8951 29.707 11.7075C29.8945 11.52 29.9999 11.2656 29.9999 11.0004V3.00041C29.9999 2.86908 29.9741 2.73902 29.9238 2.61767C29.8736 2.49633 29.7999 2.38607 29.707 2.29321C29.6142 2.20034 29.5039 2.12668 29.3826 2.07645C29.2612 2.02621 29.1311 2.00037 28.9998 2.00041Z" fill="#0F0F0F"/>
<path d="M24.2115 19.5155C23.8847 19.1893 23.4968 18.9307 23.07 18.7544C22.6432 18.5782 22.1859 18.4877 21.7242 18.4883C21.2624 18.4888 20.8053 18.5803 20.3789 18.7576C19.9526 18.9349 19.5653 19.1944 19.2393 19.5214C19.2393 19.5214 18.0825 20.7003 17.5676 21.2198C15.7858 21.1462 14.097 20.4048 12.8369 19.143C11.5768 17.8812 10.8376 16.1914 10.7663 14.4095C11.2861 13.8939 12.4625 12.7356 12.4683 12.7297C13.1271 12.0699 13.4972 11.1756 13.4972 10.2433C13.4972 9.31086 13.1271 8.41658 12.4683 7.75679L9.71401 4.99879C9.04293 4.35737 8.15037 3.99942 7.22205 3.99942C6.29374 3.99942 5.40117 4.35737 4.73009 4.99879L3.25769 6.4732C1.24987 8.48272 0.762311 15.5033 8.61876 23.3702C13.6183 28.3774 18.2759 29.9995 21.5198 29.9995C22.9563 30.0998 24.3772 29.6493 25.4934 28.7394L26.9658 27.265C27.6271 26.603 27.9985 25.7055 27.9985 24.7697C27.9985 23.834 27.6271 22.9365 26.9658 22.2745L24.2115 19.5155ZM25.551 25.8483L24.0786 27.2855C22.7996 28.5632 16.9432 28.8352 10.0335 21.9164C3.12287 14.9965 3.39448 9.16952 4.67246 7.88984L6.14487 6.44743C6.28618 6.30571 6.45408 6.19327 6.63892 6.11655C6.82377 6.03982 7.02194 6.00033 7.22207 6.00033C7.42221 6.00033 7.62038 6.03982 7.80522 6.11655C7.99007 6.19327 8.15796 6.30571 8.29927 6.44743L11.0536 9.17343C11.336 9.45632 11.4951 9.83939 11.4962 10.2391C11.4973 10.6388 11.3403 11.0228 11.0594 11.3072C11.0594 11.3072 9.5538 12.7894 9.18843 13.1553C7.88505 14.4643 9.65643 18.7915 11.4239 20.5614C12.5854 21.6923 14.0158 22.5088 15.5803 22.9339C16.4909 23.1833 18.1226 23.4974 18.8212 22.7989C19.1846 22.4349 20.66 20.9332 20.66 20.9322C20.9436 20.6493 21.3278 20.4904 21.7284 20.4904C22.1289 20.4904 22.5132 20.6493 22.7968 20.9322L25.5511 23.6911C25.837 23.9773 25.9976 24.3652 25.9976 24.7697C25.9976 25.1742 25.8369 25.5622 25.551 25.8483Z" fill="#0F0F0F"/>
</svg>
