<svg width="32" height="32" viewBox="0 0 32 32" fill="none" xmlns="http://www.w3.org/2000/svg">
<path d="M18.0158 20.9991C17.3235 21.0003 16.6392 21.1463 16.0068 21.4279C15.2455 21.0909 14.4121 20.9493 13.5823 21.016C12.7524 21.0827 11.9523 21.3555 11.2547 21.8098C10.557 22.264 9.98376 22.8853 9.58702 23.6172C9.19028 24.3491 8.98256 25.1685 8.98273 26.001C8.9829 26.8336 9.19094 27.6529 9.58797 28.3846C9.98501 29.1164 10.5585 29.7374 11.2563 30.1914C11.9542 30.6453 12.7544 30.9179 13.5843 30.9842C14.4141 31.0506 15.2474 30.9087 16.0086 30.5714C16.6893 30.8705 17.4281 31.0139 18.1713 30.9911C18.9144 30.9684 19.6432 30.7801 20.3043 30.4401C20.9655 30.1 21.5424 29.6166 21.9931 29.0253C22.4437 28.434 22.7568 27.7495 22.9093 27.0218C23.0619 26.2942 23.0502 25.5416 22.8751 24.819C22.6999 24.0965 22.3657 23.4221 21.8969 22.8451C21.428 22.268 20.8363 21.8029 20.1649 21.4836C19.4934 21.1642 18.7592 20.9987 18.0158 20.9991ZM16.9996 26.0001C16.9985 26.4178 16.9097 26.8306 16.739 27.2117C16.5682 27.5929 16.3193 27.9339 16.0083 28.2127C15.6962 27.9347 15.4465 27.5938 15.2754 27.2125C15.1044 26.8311 15.0159 26.4179 15.0158 25.9999C15.0156 25.582 15.1039 25.1687 15.2747 24.7873C15.4456 24.4058 15.6952 24.0648 16.0071 23.7866C16.3184 24.0654 16.5676 24.4065 16.7386 24.7879C16.9096 25.1692 16.9985 25.5822 16.9996 26.0001ZM10.9996 26.0001C11.0005 25.2048 11.3168 24.4422 11.8793 23.8798C12.4417 23.3174 13.2043 23.001 13.9996 23.0001C14.0126 23.0001 14.0245 23.0037 14.0374 23.0039C13.3748 23.8622 13.0155 24.916 13.0158 26.0003C13.016 27.0846 13.3758 28.1382 14.0388 28.9962C14.0255 28.9964 14.0131 29.0002 13.9996 29.0002C13.2042 28.9993 12.4417 28.6829 11.8793 28.1205C11.3168 27.5581 11.0005 26.7955 10.9996 26.0001ZM18.0158 28.9991C18.0028 28.9991 17.9909 28.9955 17.978 28.9954C18.6406 28.1371 18.9999 27.0833 18.9996 25.999C18.9994 24.9147 18.6396 23.8611 17.9766 23.0031C17.9899 23.0029 18.0023 22.9991 18.0158 22.9991C18.8114 22.9991 19.5745 23.3152 20.1371 23.8778C20.6997 24.4404 21.0158 25.2035 21.0158 25.9991C21.0158 26.7948 20.6997 27.5578 20.1371 28.1204C19.5745 28.683 18.8114 28.9991 18.0158 28.9991Z" fill="#0F0F0F"/>
<path d="M25.0001 5.00012H7.00012C5.67452 5.00168 4.40365 5.52896 3.46631 6.46631C2.52896 7.40365 2.00168 8.67452 2.00012 10.0001V22.0001C1.99986 23.1071 2.36694 24.1828 3.04382 25.0587C3.7207 25.9346 4.66911 26.5611 5.74035 26.84C5.86757 26.8734 6.00012 26.8814 6.13042 26.8635C6.26072 26.8456 6.38621 26.8021 6.4997 26.7357C6.61319 26.6692 6.71245 26.581 6.79179 26.4761C6.87113 26.3712 6.929 26.2516 6.96207 26.1243C6.99515 25.997 7.00279 25.8645 6.98455 25.7342C6.96631 25.604 6.92255 25.4786 6.85578 25.3653C6.78901 25.2519 6.70054 25.1529 6.59544 25.0738C6.49034 24.9948 6.37067 24.9372 6.24328 24.9045C5.60064 24.737 5.03175 24.3609 4.6258 23.8353C4.21985 23.3097 3.99979 22.6643 4.00012 22.0002V10.0002C4.00099 9.20478 4.31734 8.44222 4.87976 7.8798C5.44218 7.31738 6.20474 7.00103 7.00012 7.00016H25.0001C25.7955 7.00103 26.5581 7.31738 27.1205 7.8798C27.6829 8.44222 27.9993 9.20478 28.0001 10.0002V22.0002C28.0005 22.6642 27.7805 23.3096 27.3746 23.8352C26.9688 24.3608 26.4 24.7368 25.7574 24.9045C25.522 24.9656 25.317 25.1105 25.1807 25.3119C25.0443 25.5133 24.9861 25.7575 25.0169 25.9988C25.0477 26.2401 25.1653 26.4619 25.3479 26.6226C25.5304 26.7834 25.7652 26.8721 26.0084 26.8722C26.0935 26.8725 26.1782 26.8617 26.2604 26.84C27.3316 26.5611 28.28 25.9346 28.9568 25.0587C29.6336 24.1828 30.0005 23.1071 30.0002 22.0002V10.0002C29.9986 8.67454 29.4714 7.40365 28.534 6.4663C27.5966 5.52894 26.3257 5.00166 25.0001 5.00012Z" fill="#0F0F0F"/>
</svg>
