<svg width="32" height="32" viewBox="0 0 32 32" fill="none" xmlns="http://www.w3.org/2000/svg">
<path d="M18.0158 21.2491C17.3202 21.2524 16.634 21.4102 16.0068 21.7109C15.3801 21.4108 14.6945 21.2534 13.9996 21.2501C12.7399 21.2501 11.5317 21.7506 10.6409 22.6414C9.75008 23.5322 9.24963 24.7403 9.24963 26.0001C9.24963 27.2599 9.75008 28.4681 10.6409 29.3589C11.5317 30.2497 12.7399 30.7501 13.9996 30.7501C14.6952 30.7468 15.3814 30.5891 16.0086 30.2883C16.6354 30.5885 17.3209 30.7459 18.0158 30.7491C19.2756 30.7491 20.4837 30.2487 21.3745 29.3579C22.2653 28.4671 22.7658 27.2589 22.7658 25.9991C22.7658 24.7394 22.2653 23.5312 21.3745 22.6404C20.4837 21.7496 19.2755 21.2491 18.0158 21.2491ZM17.2496 26.0001C17.2479 26.4891 17.1353 26.9712 16.9203 27.4103C16.7053 27.8494 16.3935 28.234 16.0083 28.5351C15.6216 28.2353 15.3086 27.8509 15.0933 27.4115C14.8779 26.9721 14.7659 26.4893 14.7658 26C14.7656 25.5106 14.8774 25.0278 15.0926 24.5883C15.3077 24.1488 15.6205 23.7643 16.0071 23.4642C16.3926 23.7653 16.7047 24.15 16.9199 24.5893C17.1352 25.0286 17.2479 25.511 17.2496 26.0001ZM10.7496 26.0001C10.7506 25.1385 11.0934 24.3124 11.7026 23.7031C12.3119 23.0939 13.138 22.7511 13.9996 22.7501C14.176 22.7534 14.3519 22.7712 14.5254 22.8033C13.7157 23.6709 13.2655 24.8136 13.2658 26.0003C13.266 27.1871 13.7167 28.3295 14.5269 29.1968C14.0612 29.2834 13.582 29.2654 13.1242 29.1439C12.6664 29.0225 12.2413 28.8008 11.8797 28.4948C11.5181 28.1888 11.2291 27.8062 11.0337 27.3747C10.8382 26.9433 10.7412 26.4737 10.7496 26.0001ZM18.0158 29.2491C17.8393 29.2459 17.6635 29.2281 17.49 29.196C18.2997 28.3283 18.7499 27.1857 18.7496 25.9989C18.7494 24.8122 18.2986 23.6698 17.4885 22.8025C17.9313 22.7289 18.3846 22.748 18.8196 22.8585C19.2546 22.9691 19.662 23.1687 20.016 23.4447C20.37 23.7207 20.6628 24.0671 20.8761 24.4621C21.0893 24.8571 21.2183 25.292 21.2549 25.7393C21.2915 26.1867 21.2349 26.6368 21.0886 27.0612C20.9424 27.4856 20.7097 27.875 20.4053 28.2048C20.1009 28.5347 19.7313 28.7978 19.32 28.9776C18.9087 29.1573 18.4646 29.2498 18.0158 29.2491Z" fill="#0F0F0F"/>
<path d="M25.0001 5.25012H7.00012C5.74078 5.25155 4.53343 5.75246 3.64294 6.64294C2.75246 7.53343 2.25155 8.74078 2.25012 10.0001V22.0001C2.24965 23.0518 2.59831 24.0738 3.24138 24.9059C3.88446 25.738 4.78557 26.3331 5.80334 26.5978C5.89863 26.6225 5.99786 26.6283 6.09536 26.6147C6.19287 26.6011 6.28674 26.5684 6.37162 26.5186C6.4565 26.4687 6.53073 26.4026 6.59006 26.324C6.6494 26.2455 6.69268 26.156 6.71743 26.0607C6.74219 25.9654 6.74793 25.8662 6.73434 25.7687C6.72074 25.6712 6.68808 25.5773 6.6382 25.4924C6.58833 25.4075 6.52222 25.3333 6.44367 25.274C6.36511 25.2146 6.27563 25.1714 6.18034 25.1466C5.48417 24.965 4.86791 24.5576 4.42813 23.9882C3.98835 23.4188 3.74991 22.7196 3.75016 22.0001V10.0001C3.75116 9.13847 4.09389 8.3124 4.70317 7.70313C5.31244 7.09385 6.13852 6.75112 7.00016 6.75012H25.0002C25.8618 6.75112 26.6879 7.09385 27.2972 7.70313C27.9064 8.3124 28.2492 9.13847 28.2502 10.0001V22.0001C28.2505 22.7195 28.0122 23.4187 27.5725 23.9882C27.1328 24.5576 26.5166 24.965 25.8205 25.1466C25.6439 25.1924 25.4901 25.301 25.3878 25.452C25.2855 25.6031 25.2418 25.7862 25.2648 25.9672C25.2879 26.1481 25.3761 26.3145 25.513 26.435C25.6499 26.5556 25.8261 26.6222 26.0085 26.6222C26.0723 26.6222 26.1358 26.614 26.1975 26.5978C27.2151 26.3328 28.116 25.7377 28.7589 24.9056C29.4019 24.0736 29.7505 23.0517 29.7502 22.0001V10.0001C29.7488 8.74077 29.2479 7.53341 28.3574 6.64292C27.4668 5.75242 26.2595 5.25153 25.0001 5.25012Z" fill="#0F0F0F"/>
</svg>
