<svg width="32" height="32" viewBox="0 0 32 32" fill="none" xmlns="http://www.w3.org/2000/svg">
<path d="M25.5002 2.25012C24.8003 2.25498 24.1128 2.43481 23.5002 2.77325C22.8876 2.43481 22.2 2.25497 21.5002 2.25012C20.373 2.25012 19.292 2.69789 18.495 3.49492C17.6979 4.29195 17.2502 5.37295 17.2502 6.50012C17.2502 7.62729 17.6979 8.7083 18.495 9.50533C19.292 10.3024 20.373 10.7501 21.5002 10.7501C22.2 10.7453 22.8876 10.5654 23.5002 10.227C24.1128 10.5654 24.8003 10.7453 25.5002 10.7501C26.6273 10.7501 27.7084 10.3024 28.5054 9.50533C29.3024 8.7083 29.7502 7.62729 29.7502 6.50012C29.7502 5.37295 29.3024 4.29195 28.5054 3.49492C27.7084 2.69789 26.6273 2.25012 25.5002 2.25012ZM23.5002 8.37567C23.0187 7.86993 22.7502 7.1984 22.7502 6.50012C22.7502 5.80185 23.0187 5.13032 23.5002 4.62457C23.9816 5.13032 24.2502 5.80185 24.2502 6.50012C24.2502 7.1984 23.9816 7.86993 23.5002 8.37567ZM18.7502 6.50012C18.7509 5.771 19.0409 5.07196 19.5565 4.5564C20.072 4.04083 20.7711 3.75086 21.5002 3.75012C21.7377 3.75332 21.9738 3.78767 22.2024 3.85229C21.5869 4.5974 21.2502 5.53366 21.2502 6.50012C21.2502 7.46658 21.5869 8.40284 22.2024 9.14795C21.9738 9.21257 21.7377 9.24692 21.5002 9.25012C20.7711 9.24938 20.072 8.95941 19.5565 8.44385C19.0409 7.92828 18.7509 7.22924 18.7502 6.50012ZM25.5002 9.25012C25.2626 9.24692 25.0266 9.21257 24.798 9.14795C25.4135 8.40284 25.7502 7.46658 25.7502 6.50012C25.7502 5.53366 25.4135 4.5974 24.798 3.85229C25.0266 3.78768 25.2626 3.75333 25.5002 3.75012C26.2295 3.75012 26.929 4.03985 27.4447 4.55558C27.9604 5.0713 28.2502 5.77078 28.2502 6.50012C28.2502 7.22947 27.9604 7.92894 27.4447 8.44467C26.929 8.96039 26.2295 9.25012 25.5002 9.25012Z" fill="#0F0F0F"/>
<path d="M24.0451 19.6984C23.4323 19.0872 22.6019 18.7444 21.7365 18.7454C20.871 18.7463 20.0414 19.0908 19.4299 19.7033C19.4299 19.7033 18.1701 20.9845 17.6955 21.463C15.8099 21.427 14.0115 20.6618 12.6779 19.3282C11.3443 17.9947 10.5792 16.1963 10.5431 14.3107C11.0217 13.8361 12.3039 12.5763 12.3078 12.5714C12.6106 12.2687 12.8508 11.9094 13.0147 11.5138C13.1785 11.1183 13.2629 10.6944 13.2629 10.2662C13.2629 9.83809 13.1785 9.41416 13.0147 9.01863C12.8508 8.6231 12.6106 8.26373 12.3078 7.96105L9.55487 5.20813C8.93149 4.61297 8.10277 4.28089 7.2409 4.28089C6.37904 4.28089 5.55031 4.61297 4.92694 5.20813L3.45526 6.67981C1.51093 8.62414 1.08612 15.465 8.81366 23.1925C13.7687 28.1476 18.3596 29.7511 21.5285 29.7511C22.9008 29.8482 24.2587 29.4195 25.3264 28.5519L26.798 27.0802C27.1021 26.7764 27.3432 26.4157 27.5078 26.0186C27.6723 25.6216 27.757 25.196 27.757 24.7662C27.757 24.3364 27.6723 23.9109 27.5078 23.5138C27.3432 23.1168 27.1021 22.7561 26.798 22.4523L24.0451 19.6984ZM25.7375 26.0197L24.2658 27.4913C22.9377 28.8185 16.9074 29.1661 9.87421 22.132C2.84104 15.0988 3.18671 9.06946 4.51581 7.74035L5.98749 6.26868C6.15203 6.10398 6.34742 5.97332 6.56249 5.88417C6.77756 5.79503 7.00809 5.74914 7.2409 5.74914C7.47372 5.74914 7.70425 5.79503 7.91931 5.88417C8.13438 5.97332 8.32977 6.10398 8.49432 6.26868L11.2472 9.0216C11.5766 9.35083 11.762 9.79714 11.7629 10.2628C11.7638 10.7284 11.5801 11.1755 11.2521 11.506C11.2521 11.506 9.74823 12.9845 9.38304 13.3497C8.52268 14.212 9.31956 18.0909 11.6174 20.3888C12.748 21.4875 14.1397 22.2803 15.6614 22.6925C16.1994 22.8409 18.01 23.2706 18.6574 22.6222C19.0207 22.2589 20.4944 20.7599 20.4953 20.7589C20.826 20.4298 21.2735 20.2451 21.74 20.2451C22.2065 20.2451 22.654 20.4298 22.9846 20.7589L25.7375 23.5128C25.9022 23.6774 26.0329 23.8728 26.122 24.0878C26.2112 24.3029 26.2571 24.5334 26.2571 24.7662C26.2571 24.999 26.2112 25.2296 26.122 25.4446C26.0329 25.6597 25.9022 25.8551 25.7375 26.0197Z" fill="#0F0F0F"/>
</svg>
