<svg width="32" height="32" viewBox="0 0 32 32" fill="none" xmlns="http://www.w3.org/2000/svg">
<path d="M28.0001 22.9997H25.0001V19.9997C25.0001 19.7345 24.8947 19.4801 24.7072 19.2926C24.5196 19.105 24.2653 18.9997 24.0001 18.9997C23.7348 18.9997 23.4805 19.105 23.293 19.2926C23.1054 19.4801 23.0001 19.7345 23.0001 19.9997V22.9997H20.0001C19.7348 22.9997 19.4805 23.105 19.293 23.2926C19.1054 23.4801 19.0001 23.7345 19.0001 23.9997C19.0001 24.2649 19.1054 24.5193 19.293 24.7068C19.4805 24.8943 19.7348 24.9997 20.0001 24.9997H23.0001V27.9997C23.0001 28.2649 23.1054 28.5193 23.293 28.7068C23.4805 28.8943 23.7348 28.9997 24.0001 28.9997C24.2653 28.9997 24.5196 28.8943 24.7072 28.7068C24.8947 28.5193 25.0001 28.2649 25.0001 27.9997V24.9997H28.0001C28.2653 24.9997 28.5196 24.8943 28.7072 24.7068C28.8947 24.5193 29.0001 24.2649 29.0001 23.9997C29.0001 23.7345 28.8947 23.4801 28.7072 23.2926C28.5196 23.105 28.2653 22.9997 28.0001 22.9997Z" fill="#0F0F0F"/>
<path d="M18.8467 27.7126C13.7979 28.5095 8.11236 27.6501 5.9024 25.7595C5.63506 25.5657 5.41502 25.3139 5.25876 25.023C5.1025 24.7321 5.01406 24.4097 5.00006 24.0798C5.00006 19.1579 9.57916 14.9997 15.0001 14.9997C17.3098 14.9995 19.5555 15.7592 21.3907 17.1618C21.6007 17.3237 21.8665 17.3955 22.1295 17.3614C22.3925 17.3273 22.6312 17.1902 22.793 16.9801C22.9549 16.7701 23.0267 16.5043 22.9926 16.2414C22.9586 15.9784 22.8214 15.7397 22.6114 15.5778C21.5101 14.7333 20.2749 14.0798 18.9571 13.6445C20.0351 12.8174 20.8268 11.6732 21.2209 10.3728C21.615 9.07236 21.5917 7.68116 21.1542 6.39471C20.7167 5.10826 19.8871 3.99125 18.7819 3.20071C17.6768 2.41016 16.3517 1.98583 14.9929 1.98736C13.6341 1.98889 12.3099 2.41621 11.2065 3.20925C10.1032 4.00228 9.27604 5.12116 8.84146 6.40859C8.40688 7.69602 8.38669 9.08728 8.78372 10.3868C9.18075 11.6863 9.97504 12.8287 11.0549 13.6534C6.42144 15.2 3.00006 19.3445 3.00006 24.0798C3.0133 24.6986 3.16395 25.3068 3.4411 25.8603C3.71826 26.4137 4.11499 26.8987 4.60259 27.28C6.81939 29.1755 11.0479 29.9948 15.0421 29.9948C16.4196 29.9984 17.7954 29.8962 19.1573 29.6892C19.2871 29.6688 19.4116 29.623 19.5237 29.5545C19.6358 29.486 19.7333 29.3961 19.8106 29.2899C19.888 29.1837 19.9437 29.0633 19.9745 28.9356C20.0053 28.8079 20.0107 28.6754 19.9903 28.5456C19.9699 28.4158 19.9241 28.2913 19.8556 28.1792C19.7871 28.0671 19.6972 27.9696 19.591 27.8923C19.4848 27.8149 19.3645 27.7593 19.2367 27.7284C19.109 27.6976 18.9765 27.6922 18.8467 27.7126ZM10.5001 8.49969C10.5001 7.60967 10.764 6.73964 11.2584 5.99962C11.7529 5.2596 12.4557 4.68283 13.278 4.34223C14.1003 4.00164 15.0051 3.91252 15.878 4.08616C16.7509 4.25979 17.5527 4.68837 18.182 5.31771C18.8114 5.94705 19.24 6.74887 19.4136 7.62178C19.5872 8.4947 19.4981 9.3995 19.1575 10.2218C18.8169 11.044 18.2401 11.7468 17.5001 12.2413C16.7601 12.7358 15.8901 12.9997 15.0001 12.9997C13.807 12.9984 12.6632 12.5239 11.8195 11.6802C10.9759 10.8366 10.5014 9.69276 10.5001 8.49969Z" fill="#0F0F0F"/>
</svg>
