<svg width="32" height="32" viewBox="0 0 32 32" fill="none" xmlns="http://www.w3.org/2000/svg">
<path d="M27.0001 23.4997H23.5001V19.9997C23.5001 19.8671 23.4474 19.7399 23.3536 19.6461C23.2598 19.5524 23.1327 19.4997 23.0001 19.4997C22.8675 19.4997 22.7403 19.5524 22.6465 19.6461C22.5527 19.7399 22.5001 19.8671 22.5001 19.9997V23.4997H19.0001C18.8675 23.4997 18.7403 23.5524 18.6465 23.6461C18.5527 23.7399 18.5001 23.8671 18.5001 23.9997C18.5001 24.1323 18.5527 24.2595 18.6465 24.3532C18.7403 24.447 18.8675 24.4997 19.0001 24.4997H22.5001V27.9997C22.5001 28.1323 22.5527 28.2595 22.6465 28.3532C22.7403 28.447 22.8675 28.4997 23.0001 28.4997C23.1327 28.4997 23.2598 28.447 23.3536 28.3532C23.4474 28.2595 23.5001 28.1323 23.5001 27.9997V24.4997H27.0001C27.1327 24.4997 27.2598 24.447 27.3536 24.3532C27.4474 24.2595 27.5001 24.1323 27.5001 23.9997C27.5001 23.8671 27.4474 23.7399 27.3536 23.6461C27.2598 23.5524 27.1327 23.4997 27.0001 23.4997Z" fill="#0F0F0F"/>
<path d="M17.9239 28.2067C12.7471 29.0212 6.88482 28.113 4.5772 26.1403C4.25518 25.8991 3.99129 25.5888 3.80489 25.2322C3.61849 24.8757 3.51434 24.4819 3.50006 24.0798C3.50006 18.8864 8.30865 14.4997 14.0001 14.4997C16.4204 14.4997 18.7735 15.2962 20.6963 16.7663C20.7484 16.8063 20.8079 16.8357 20.8713 16.8527C20.9347 16.8698 21.0008 16.8741 21.066 16.8656C21.1311 16.8571 21.1939 16.8358 21.2507 16.803C21.3076 16.7702 21.3575 16.7266 21.3975 16.6745C21.4375 16.6224 21.4669 16.563 21.4839 16.4996C21.501 16.4361 21.5054 16.37 21.4968 16.3049C21.4883 16.2398 21.4671 16.177 21.4343 16.1201C21.4015 16.0632 21.3578 16.0133 21.3057 15.9733C19.9572 14.9424 18.4047 14.2103 16.7515 13.8257C17.9473 13.2088 18.9011 12.2077 19.4595 10.9835C20.018 9.75923 20.1487 8.38279 19.8307 7.07528C19.5127 5.76778 18.7645 4.60511 17.7062 3.77405C16.6479 2.943 15.3409 2.4918 13.9953 2.49293C12.6497 2.49407 11.3435 2.94748 10.2866 3.78032C9.22969 4.61316 8.4834 5.7771 8.16762 7.08513C7.85184 8.39317 7.9849 9.76939 8.54543 10.9927C9.10595 12.216 10.0614 13.2154 11.2583 13.8303C6.29897 14.9972 2.50006 19.2116 2.50006 24.0798C2.51114 24.6269 2.64522 25.1645 2.89238 25.6527C3.13953 26.1409 3.49342 26.5673 3.92779 26.9001C6.05079 28.7155 10.1299 29.4977 14.0059 29.4977C15.3697 29.5016 16.7318 29.4004 18.0801 29.195C18.1452 29.1849 18.2076 29.1621 18.2638 29.1279C18.32 29.0936 18.3689 29.0486 18.4077 28.9954C18.4465 28.9422 18.4744 28.8819 18.4898 28.8179C18.5052 28.7539 18.5079 28.6875 18.4976 28.6225C18.4873 28.5575 18.4643 28.4951 18.4299 28.439C18.3955 28.3829 18.3503 28.3342 18.297 28.2955C18.2437 28.2569 18.1833 28.2292 18.1193 28.214C18.0553 28.1987 17.9889 28.1963 17.9239 28.2067ZM9.00006 8.49969C9.00006 7.51078 9.29331 6.54408 9.84271 5.72184C10.3921 4.89959 11.173 4.25873 12.0866 3.88029C13.0003 3.50185 14.0056 3.40284 14.9755 3.59576C15.9454 3.78869 16.8363 4.26489 17.5356 4.96416C18.2349 5.66342 18.7111 6.55433 18.904 7.52424C19.0969 8.49414 18.9979 9.49948 18.6195 10.4131C18.241 11.3267 17.6002 12.1076 16.7779 12.657C15.9557 13.2064 14.989 13.4997 14.0001 13.4997C12.6745 13.4981 11.4036 12.9708 10.4662 12.0335C9.52891 11.0962 9.00162 9.82529 9.00006 8.49969Z" fill="#0F0F0F"/>
</svg>
