<svg width="32" height="32" viewBox="0 0 32 32" fill="none" xmlns="http://www.w3.org/2000/svg">
<path d="M17.8848 27.9597C12.7774 28.7673 7.00098 27.8815 4.74122 25.9499C4.44519 25.7329 4.2022 25.4516 4.03051 25.1272C3.85883 24.8028 3.76292 24.4437 3.75 24.0769C3.75 19.0212 8.44434 14.7497 14 14.7497C15.738 14.7409 17.4515 15.1603 18.989 15.9709C20.5265 16.7815 21.8407 17.9582 22.8154 19.3972C22.9242 19.5637 23.0947 19.6803 23.2894 19.7211C23.4841 19.7619 23.687 19.7238 23.8535 19.615C24.0201 19.5062 24.1366 19.3357 24.1774 19.141C24.2182 18.9464 24.1801 18.7434 24.0713 18.5769C22.4907 16.2197 20.1187 14.506 17.3843 13.7458C18.5179 13.0151 19.3847 11.9373 19.8553 10.6733C20.3258 9.40939 20.3748 8.02715 19.995 6.73305C19.6152 5.43894 18.8269 4.30244 17.748 3.49327C16.669 2.6841 15.3572 2.2457 14.0085 2.24354C12.6598 2.24138 11.3466 2.67558 10.265 3.48129C9.18348 4.287 8.39158 5.42097 8.00763 6.71385C7.62367 8.00673 7.66827 9.38912 8.13476 10.6546C8.60124 11.92 9.46458 13.0006 10.5958 13.7349C5.8252 15.1169 2.25 19.2933 2.25 24.0769C2.26382 24.6601 2.40706 25.2329 2.66934 25.7539C2.93163 26.2749 3.30642 26.7312 3.76661 27.0896C5.9375 28.946 10.0908 29.7468 14.0244 29.7468C15.3948 29.7506 16.7634 29.6488 18.1182 29.4422C18.2155 29.4268 18.3089 29.3925 18.3929 29.3411C18.477 29.2897 18.5501 29.2222 18.6081 29.1425C18.6661 29.0629 18.7078 28.9726 18.7309 28.8768C18.754 28.781 18.758 28.6816 18.7427 28.5842C18.7274 28.4869 18.693 28.3935 18.6416 28.3095C18.5902 28.2254 18.5227 28.1523 18.4431 28.0943C18.3634 28.0363 18.2731 27.9946 18.1773 27.9715C18.0815 27.9484 17.9821 27.9443 17.8848 27.9597ZM9.24906 8.49969C9.24906 7.56023 9.52764 6.64186 10.0496 5.86073C10.5715 5.0796 11.3134 4.47078 12.1813 4.11126C13.0493 3.75175 14.0043 3.65768 14.9257 3.84096C15.8471 4.02424 16.6935 4.47663 17.3578 5.14093C18.0221 5.80523 18.4745 6.6516 18.6578 7.57301C18.8411 8.49442 18.747 9.44949 18.3875 10.3174C18.028 11.1854 17.4192 11.9272 16.638 12.4492C15.8569 12.9711 14.9385 13.2497 13.9991 13.2497C12.7397 13.2483 11.5324 12.7474 10.6419 11.8569C9.75139 10.9664 9.25049 9.75903 9.24906 8.49969Z" fill="#0F0F0F"/>
<path d="M27 23.2497H19C18.8011 23.2497 18.6103 23.3287 18.4697 23.4694C18.329 23.61 18.25 23.8008 18.25 23.9997C18.25 24.1986 18.329 24.3894 18.4697 24.53C18.6103 24.6707 18.8011 24.7497 19 24.7497H27C27.1989 24.7497 27.3897 24.6707 27.5303 24.53C27.671 24.3894 27.75 24.1986 27.75 23.9997C27.75 23.8008 27.671 23.61 27.5303 23.4694C27.3897 23.3287 27.1989 23.2497 27 23.2497Z" fill="#0F0F0F"/>
</svg>
