<svg width="32" height="32" viewBox="0 0 32 32" fill="none" xmlns="http://www.w3.org/2000/svg">
<path d="M28.0001 22.9997H25.0001V19.9997C25.0001 19.7345 24.8948 19.4801 24.7072 19.2926C24.5197 19.105 24.2653 18.9997 24.0001 18.9997C23.7349 18.9997 23.4806 19.105 23.293 19.2926C23.1055 19.4801 23.0001 19.7345 23.0001 19.9997V22.9997H20.0001C19.7349 22.9997 19.4806 23.105 19.293 23.2926C19.1055 23.4801 19.0001 23.7345 19.0001 23.9997C19.0001 24.2649 19.1055 24.5193 19.293 24.7068C19.4806 24.8943 19.7349 24.9997 20.0001 24.9997H23.0001V27.9997C23.0001 28.2649 23.1055 28.5193 23.293 28.7068C23.4806 28.8943 23.7349 28.9997 24.0001 28.9997C24.2653 28.9997 24.5197 28.8943 24.7072 28.7068C24.8948 28.5193 25.0001 28.2649 25.0001 27.9997V24.9997H28.0001C28.2653 24.9997 28.5197 24.8943 28.7072 24.7068C28.8948 24.5193 29.0001 24.2649 29.0001 23.9997C29.0001 23.7345 28.8948 23.4801 28.7072 23.2926C28.5197 23.105 28.2653 22.9997 28.0001 22.9997Z" fill="#0F0F0F"/>
<path d="M18.8468 27.7126C13.798 28.5095 8.11242 27.6501 5.90246 25.7595C5.63512 25.5657 5.41508 25.3139 5.25882 25.023C5.10256 24.7321 5.01412 24.4097 5.00012 24.0798C5.00012 19.1579 9.57922 14.9997 15.0001 14.9997C17.3099 14.9995 19.5556 15.7592 21.3907 17.1618C21.6008 17.3237 21.8665 17.3955 22.1295 17.3614C22.3925 17.3273 22.6312 17.1902 22.7931 16.9801C22.955 16.7701 23.0268 16.5043 22.9927 16.2414C22.9586 15.9784 22.8215 15.7397 22.6114 15.5778C21.5102 14.7333 20.2749 14.0798 18.9572 13.6445C20.0352 12.8174 20.8269 11.6732 21.221 10.3728C21.6151 9.07236 21.5918 7.68116 21.1543 6.39471C20.7168 5.10826 19.8872 3.99125 18.782 3.20071C17.6768 2.41016 16.3517 1.98583 14.9929 1.98736C13.6341 1.98889 12.31 2.41621 11.2066 3.20925C10.1032 4.00228 9.2761 5.12116 8.84152 6.40859C8.40694 7.69602 8.38675 9.08728 8.78378 10.3868C9.18081 11.6863 9.9751 12.8287 11.055 13.6534C6.4215 15.2 3.00012 19.3445 3.00012 24.0798C3.01336 24.6986 3.16401 25.3068 3.44116 25.8603C3.71832 26.4137 4.11505 26.8987 4.60265 27.28C6.81945 29.1755 11.048 29.9948 15.0421 29.9948C16.4197 29.9984 17.7954 29.8962 19.1573 29.6892C19.2871 29.6688 19.4116 29.623 19.5237 29.5545C19.6358 29.486 19.7333 29.3961 19.8107 29.2899C19.888 29.1837 19.9437 29.0633 19.9745 28.9356C20.0054 28.8079 20.0107 28.6754 19.9903 28.5456C19.97 28.4158 19.9242 28.2913 19.8557 28.1792C19.7872 28.0671 19.6973 27.9696 19.5911 27.8923C19.4849 27.8149 19.3645 27.7593 19.2368 27.7284C19.1091 27.6976 18.9766 27.6922 18.8468 27.7126ZM10.5001 8.49969C10.5001 7.60967 10.764 6.73964 11.2585 5.99962C11.753 5.2596 12.4558 4.68283 13.278 4.34223C14.1003 4.00164 15.0051 3.91252 15.878 4.08616C16.7509 4.25979 17.5528 4.68837 18.1821 5.31771C18.8114 5.94705 19.24 6.74887 19.4137 7.62178C19.5873 8.4947 19.4982 9.3995 19.1576 10.2218C18.817 11.044 18.2402 11.7468 17.5002 12.2413C16.7602 12.7358 15.8901 12.9997 15.0001 12.9997C13.807 12.9984 12.6632 12.5239 11.8196 11.6802C10.9759 10.8366 10.5014 9.69276 10.5001 8.49969Z" fill="#0F0F0F"/>
</svg>
