<svg width="32" height="33" viewBox="0 0 32 33" fill="none" xmlns="http://www.w3.org/2000/svg">
<path d="M18.6025 16.2451C21.3447 16.2451 23.6172 13.8203 23.6172 10.6719C23.6172 7.625 21.332 5.25098 18.6025 5.25098C15.8857 5.25098 13.5752 7.65039 13.5879 10.6846C13.5879 13.8203 15.8604 16.2451 18.6025 16.2451ZM18.5898 18.5176C16.2158 18.5176 14.1719 19.127 12.5596 20.0537C14.4004 21.4756 15.5938 23.6973 15.5938 26.1982C15.5938 26.7695 15.5303 27.3408 15.4033 27.874H26.7783C28.5049 27.874 29.2158 27.3789 29.2158 26.2744C29.2158 23.0117 25.1406 18.5176 18.5898 18.5176ZM7.79883 32.5078C11.2646 32.5078 14.1211 29.6641 14.1211 26.1982C14.1211 22.7324 11.2646 19.876 7.79883 19.876C4.3457 19.876 1.48926 22.7324 1.48926 26.1982C1.48926 29.6641 4.3457 32.5078 7.79883 32.5078ZM4.47266 26.8711C4.10449 26.8711 3.7998 26.5537 3.7998 26.1982C3.7998 25.8301 4.10449 25.5127 4.47266 25.5127H11.1377C11.5059 25.5127 11.8105 25.8301 11.8105 26.1982C11.8105 26.5537 11.5059 26.8711 11.1377 26.8711H4.47266Z" fill="black"/>
</svg>
