<svg width="32" height="32" viewBox="0 0 32 32" fill="none" xmlns="http://www.w3.org/2000/svg">
<path d="M10.1855 26.4395H13.0039C14.0068 26.4395 14.502 25.957 14.502 24.9414V7.73926C14.502 6.68555 14.0068 6.22852 13.0039 6.22852H10.1855C9.18262 6.22852 8.6875 6.72363 8.6875 7.73926V24.9414C8.6875 25.957 9.18262 26.4395 10.1855 26.4395ZM18.9961 26.4395H21.8145C22.8174 26.4395 23.3125 25.957 23.3125 24.9414V7.73926C23.3125 6.68555 22.8174 6.22852 21.8145 6.22852H18.9961C17.9932 6.22852 17.498 6.72363 17.498 7.73926V24.9414C17.498 25.957 17.9932 26.4395 18.9961 26.4395Z" fill="black"/>
</svg>
