<svg width="32" height="32" viewBox="0 0 32 32" fill="none" xmlns="http://www.w3.org/2000/svg">
<path d="M16 29.0928C22.9697 29.0928 28.7334 23.3418 28.7334 16.3594C28.7334 9.38965 22.9697 3.62598 15.9873 3.62598C9.01758 3.62598 3.2666 9.38965 3.2666 16.3594C3.2666 23.3418 9.03027 29.0928 16 29.0928ZM16 15.6992C14.2227 15.6865 12.8008 14.1885 12.8008 12.1826C12.8008 10.3164 14.2227 8.75488 16 8.75488C17.7773 8.75488 19.2119 10.3164 19.2119 12.1826C19.2119 14.1885 17.7773 15.7119 16 15.6992ZM10.1602 22.7832C9.74121 22.7832 9.55078 22.5166 9.55078 22.123C9.55078 20.7266 11.6201 17.0703 16 17.0703C20.3926 17.0703 22.4492 20.7266 22.4492 22.123C22.4492 22.5166 22.2588 22.7832 21.8398 22.7832H10.1602Z" fill="black"/>
</svg>
