<svg width="32" height="32" viewBox="0 0 32 32" fill="none" xmlns="http://www.w3.org/2000/svg">
<path d="M11.509 2C8.74761 2 6.50903 4.23858 6.50903 7C6.50903 8.40912 7.09194 9.68209 8.02978 10.5909C4.54513 11.8204 2 14.8504 2 18.529C2 20.4544 3.61202 21.6454 5.28656 22.3117C6.68282 22.8672 8.40608 23.1874 10.1671 23.2937C10.0541 23.8349 9.99487 24.395 9.99487 24.97C9.99487 26.1832 10.6328 27.1431 11.5113 27.8429C12.3745 28.5306 13.5277 29.0219 14.7721 29.3595C17.2674 30.0365 20.4074 30.1695 23.141 29.7802C23.6878 29.7023 24.0679 29.196 23.99 28.6492C23.9121 28.1024 23.4058 27.7223 22.859 27.8002C20.3565 28.1565 17.494 28.0257 15.2958 27.4293C14.1933 27.1302 13.3271 26.7324 12.7575 26.2786C12.2031 25.837 11.9949 25.403 11.9949 24.97C11.9949 21.233 15.4585 18.001 19.9949 18.001C20.9471 18.001 21.8577 18.1458 22.7008 18.4102C23.2278 18.5754 23.789 18.2822 23.9542 17.7552C24.0721 17.379 23.9565 16.9854 23.6889 16.7308C25.0938 15.6327 25.9968 13.9223 25.9968 12.001C25.9968 8.68727 23.3105 6.00098 19.9968 6.00098C18.6954 6.00098 17.4908 6.41531 16.5076 7.11927C16.5086 7.07962 16.509 7.03987 16.509 7C16.509 4.23858 14.2705 2 11.509 2ZM8.50903 7C8.50903 5.34315 9.85218 4 11.509 4C13.1659 4 14.509 5.34315 14.509 7C14.509 8.65686 13.1659 10 11.509 10C9.85218 10 8.50903 8.65686 8.50903 7ZM10.8504 21.3234C9.0385 21.2653 7.31254 20.9653 6.02594 20.4534C4.51298 19.8514 4 19.14 4 18.529C4 15.034 7.24062 12.001 11.5 12.001C12.3869 12.001 13.2296 12.1325 14.0081 12.3723C14.1139 14.1041 14.9542 15.6374 16.2215 16.6646C13.8485 17.5332 11.9039 19.1982 10.8504 21.3234ZM15.9968 12.001C15.9968 9.79184 17.7877 8.00098 19.9968 8.00098C22.206 8.00098 23.9968 9.79184 23.9968 12.001C23.9968 14.2101 22.206 16.001 19.9968 16.001C17.7877 16.001 15.9968 14.2101 15.9968 12.001Z" fill="#0F0F0F"/>
<path d="M28 18.984C28 18.4317 27.5523 17.984 27 17.984C26.4477 17.984 26 18.4317 26 18.984V21.984H23C22.4477 21.984 22 22.4317 22 22.984C22 23.5363 22.4477 23.984 23 23.984H26V26.984C26 27.5363 26.4477 27.984 27 27.984C27.5523 27.984 28 27.5363 28 26.984V23.984H31C31.5523 23.984 32 23.5363 32 22.984C32 22.4317 31.5523 21.984 31 21.984H28V18.984Z" fill="#0F0F0F"/>
</svg>
