<svg width="32" height="32" viewBox="0 0 32 32" fill="none" xmlns="http://www.w3.org/2000/svg">
<path d="M11.509 2.5C9.02375 2.5 7.00903 4.51472 7.00903 7C7.00903 8.59393 7.83774 9.9943 9.08779 10.7938C5.31929 11.7287 2.5 14.801 2.5 18.529C2.5 20.1258 3.83726 21.1969 5.4714 21.8471C6.96255 22.4404 8.86934 22.7606 10.8013 22.8225C10.6015 23.5067 10.4949 24.226 10.4949 24.97C10.4949 26.0913 11.1363 26.9778 12.067 27.6348C12.9922 28.2879 14.2523 28.7545 15.6418 29.057C18.4231 29.6625 21.875 29.643 24.6148 28.9965C24.8836 28.933 25.0501 28.6637 24.9866 28.395C24.9232 28.1262 24.6539 27.9598 24.3852 28.0232C21.7936 28.6347 18.4929 28.6543 15.8545 28.0799C14.5341 27.7924 13.4176 27.3642 12.6437 26.8178C11.8751 26.2753 11.4949 25.6576 11.4949 24.97C11.4949 20.9015 15.2412 17.501 19.9949 17.501C21.5572 17.501 23.0177 17.8712 24.2718 18.5145C24.5175 18.6406 24.8188 18.5435 24.9449 18.2978C25.0709 18.0521 24.9739 17.7508 24.7282 17.6248C24.0735 17.2889 23.37 17.0208 22.63 16.8309C24.3382 15.8976 25.4968 14.0846 25.4968 12.001C25.4968 8.96341 23.0344 6.50098 19.9968 6.50098C18.2875 6.50098 16.7604 7.2807 15.7516 8.50386C15.9183 8.0336 16.009 7.5274 16.009 7C16.009 4.51472 13.9943 2.5 11.509 2.5ZM8.00903 7C8.00903 5.067 9.57604 3.5 11.509 3.5C13.442 3.5 15.009 5.067 15.009 7C15.009 8.933 13.442 10.5 11.509 10.5C9.57604 10.5 8.00903 8.933 8.00903 7ZM11.1662 21.8311C9.19688 21.7995 7.27677 21.4892 5.8411 20.918C4.28774 20.2999 3.5 19.4686 3.5 18.529C3.5 14.7025 7.02331 11.501 11.5 11.501C12.5643 11.501 13.5748 11.6819 14.4968 12.0093C14.4999 14.0896 15.658 15.8992 17.3642 16.8311C14.5501 17.5541 12.2498 19.4079 11.1662 21.8311ZM15.4968 12.001C15.4968 9.5157 17.5115 7.50098 19.9968 7.50098C22.4821 7.50098 24.4968 9.5157 24.4968 12.001C24.4968 14.4862 22.4821 16.501 19.9968 16.501C17.5115 16.501 15.4968 14.4862 15.4968 12.001Z" fill="#0F0F0F"/>
<path d="M27.5 18.984C27.5 18.7079 27.2761 18.484 27 18.484C26.7239 18.484 26.5 18.7079 26.5 18.984V22.484H23C22.7239 22.484 22.5 22.7079 22.5 22.984C22.5 23.2601 22.7239 23.484 23 23.484H26.5V26.984C26.5 27.2601 26.7239 27.484 27 27.484C27.2761 27.484 27.5 27.2601 27.5 26.984V23.484H31C31.2761 23.484 31.5 23.2601 31.5 22.984C31.5 22.7079 31.2761 22.484 31 22.484H27.5V18.984Z" fill="#0F0F0F"/>
</svg>
