<svg width="32" height="32" viewBox="0 0 32 32" fill="none" xmlns="http://www.w3.org/2000/svg">
<path d="M14.9998 25.5004C14.8672 25.5004 14.74 25.5531 14.6462 25.6469C14.5525 25.7406 14.4998 25.8678 14.4998 26.0004C14.4998 26.133 14.5525 26.2602 14.6462 26.354C14.74 26.4478 14.8672 26.5004 14.9998 26.5004H16.9998C17.1324 26.5004 17.2596 26.4478 17.3533 26.354C17.4471 26.2602 17.4998 26.133 17.4998 26.0004C17.4998 25.8678 17.4471 25.7406 17.3533 25.6469C17.2596 25.5531 17.1324 25.5004 16.9998 25.5004H14.9998Z" fill="#0F0F0F"/>
<path d="M20.9998 28.5004H10.9998C10.0719 28.4993 9.18228 28.1302 8.52614 27.4741C7.87001 26.8179 7.5009 25.9283 7.49978 25.0004V23.5004H21.3775L20.3775 22.5004H7.49978V9.62323L6.49978 8.6233V25.0004C6.50108 26.1935 6.9756 27.3373 7.81924 28.181C8.66287 29.0246 9.8067 29.4991 10.9998 29.5004H20.9998C21.8178 29.4975 22.6194 29.271 23.3179 28.8455C24.0165 28.4199 24.5854 27.8115 24.9632 27.086L24.2277 26.3505C23.961 26.9868 23.5124 27.5302 22.9382 27.9127C22.364 28.2951 21.6897 28.4996 20.9998 28.5004Z" fill="#0F0F0F"/>
<path d="M29.3533 28.6469L25.4998 24.7934V7.00043C25.4985 5.80736 25.024 4.66352 24.1803 3.81989C23.3367 2.97626 22.1929 2.50173 20.9998 2.50043H10.9998C9.99387 2.50308 9.01788 2.84282 8.22776 3.46537C7.43764 4.08791 6.87899 4.95733 6.64108 5.9347L3.3533 2.64692C3.25922 2.55473 3.13256 2.50338 3.00084 2.50405C2.86912 2.50471 2.74299 2.55733 2.64985 2.65047C2.55671 2.74361 2.50409 2.86975 2.50342 3.00147C2.50276 3.13318 2.5541 3.25984 2.6463 3.35392L6.49978 7.20746V7.20923L7.49978 8.20923V8.20746L21.7928 22.5005H21.7916L22.4649 23.1737L22.4651 23.1727L24.4808 25.1885L24.4807 25.1895L28.6463 29.354C28.6925 29.4012 28.7477 29.4388 28.8085 29.4645C28.8694 29.4903 28.9347 29.5037 29.0008 29.504C29.0669 29.5043 29.1324 29.4916 29.1935 29.4664C29.2546 29.4413 29.3101 29.4043 29.3568 29.3576C29.4036 29.3109 29.4406 29.2553 29.4657 29.1942C29.4908 29.1331 29.5036 29.0676 29.5033 29.0015C29.5029 28.9355 29.4895 28.8701 29.4638 28.8093C29.438 28.7484 29.4005 28.6932 29.3533 28.6469ZM24.4998 23.7934L7.51878 6.8124C7.56569 5.92001 7.9526 5.07948 8.60001 4.46351C9.24742 3.84754 10.1062 3.50292 10.9998 3.50045H20.9998C21.9277 3.50157 22.8173 3.87068 23.4734 4.52682C24.1295 5.18295 24.4987 6.07254 24.4998 7.00045V23.7934Z" fill="#0F0F0F"/>
</svg>
