<svg width="32" height="32" viewBox="0 0 32 32" fill="none" xmlns="http://www.w3.org/2000/svg">
<path d="M18.208 14.9999H5.41406L10.7071 9.70689C10.8932 9.5191 10.9975 9.2652 10.9969 9.00075C10.9963 8.73631 10.891 8.48286 10.704 8.29587C10.517 8.10888 10.2636 8.00358 9.99914 8.00302C9.73469 8.00246 9.48079 8.10667 9.293 8.29286L2.293 15.2929C2.20012 15.3857 2.12644 15.4959 2.07617 15.6172C2.0259 15.7385 2.00003 15.8686 2.00003 15.9999C2.00003 16.1312 2.0259 16.2612 2.07617 16.3826C2.12644 16.5039 2.20012 16.6141 2.293 16.7069L9.293 23.7069C9.48093 23.8925 9.73463 23.9962 9.99872 23.9953C10.2628 23.9945 10.5159 23.8892 10.7026 23.7025C10.8893 23.5157 10.9946 23.2627 10.9954 22.9986C10.9963 22.7345 10.8926 22.4808 10.707 22.2929L5.414 16.9999H18.208C23.4238 16.9999 28 21.2059 28 25.9999C28 26.2651 28.1054 26.5194 28.2929 26.707C28.4804 26.8945 28.7348 26.9999 29 26.9999C29.2652 26.9999 29.5196 26.8945 29.7071 26.707C29.8946 26.5194 30 26.2651 30 25.9999C30 20.1405 24.4893 14.9999 18.208 14.9999Z" fill="#0F0F0F"/>
</svg>
