<svg width="32" height="32" viewBox="0 0 32 32" fill="none" xmlns="http://www.w3.org/2000/svg">
<path d="M14 26.7497H16C16.1989 26.7497 16.3897 26.6706 16.5303 26.53C16.671 26.3893 16.75 26.1986 16.75 25.9997C16.75 25.8007 16.671 25.61 16.5303 25.4693C16.3897 25.3287 16.1989 25.2497 16 25.2497H14C13.8011 25.2497 13.6103 25.3287 13.4697 25.4693C13.329 25.61 13.25 25.8007 13.25 25.9997C13.25 26.1986 13.329 26.3893 13.4697 26.53C13.6103 26.6706 13.8011 26.7497 14 26.7497Z" fill="#0F0F0F"/>
<path d="M24 17.2497C23.8011 17.2497 23.6104 17.3287 23.4697 17.4694C23.3291 17.61 23.25 17.8008 23.25 17.9997V22.2497H6.75V6.99965C6.751 6.138 7.09372 5.31193 7.703 4.70265C8.31228 4.09338 9.13835 3.75065 10 3.74965H18C18.1989 3.74965 18.3897 3.67063 18.5303 3.52998C18.671 3.38933 18.75 3.19856 18.75 2.99965C18.75 2.80074 18.671 2.60997 18.5303 2.46932C18.3897 2.32867 18.1989 2.24965 18 2.24965H10C8.74066 2.25108 7.53331 2.75198 6.64282 3.64247C5.75233 4.53296 5.25143 5.74031 5.25 6.99965V24.9997C5.25143 26.259 5.75233 27.4663 6.64282 28.3568C7.53331 29.2473 8.74066 29.7482 10 29.7497H20C21.2593 29.7482 22.4667 29.2473 23.3572 28.3568C24.2477 27.4663 24.7486 26.259 24.75 24.9997V17.9997C24.7499 17.8008 24.6709 17.61 24.5303 17.4694C24.3896 17.3287 24.1989 17.2497 24 17.2497ZM23.25 24.9997C23.249 25.8613 22.9063 26.6874 22.297 27.2966C21.6877 27.9059 20.8616 28.2487 20 28.2497H10C9.13835 28.2487 8.31228 27.9059 7.703 27.2966C7.09372 26.6874 6.751 25.8613 6.75 24.9997V23.7497H23.25V24.9997Z" fill="#0F0F0F"/>
<path d="M23 6.692C22.8011 6.69205 22.6104 6.77109 22.4697 6.91173C22.3291 7.05237 22.25 7.2431 22.25 7.442V8.74965C22.25 8.94856 22.329 9.13933 22.4697 9.27998C22.6103 9.42063 22.8011 9.49965 23 9.49965C23.1989 9.49965 23.3897 9.42063 23.5303 9.27998C23.671 9.13933 23.75 8.94856 23.75 8.74965V7.442C23.7499 7.24311 23.6709 7.05237 23.5303 6.91173C23.3896 6.77109 23.1989 6.69205 23 6.692Z" fill="#0F0F0F"/>
<path d="M22.9999 12C23.4141 12 23.7499 11.6642 23.7499 11.25C23.7499 10.8357 23.4141 10.5 22.9999 10.5C22.5857 10.5 22.2499 10.8357 22.2499 11.25C22.2499 11.6642 22.5857 12 22.9999 12Z" fill="#0F0F0F"/>
<path d="M29.5195 12.1325L24.5332 3.13046L24.5244 3.11581C24.3697 2.85056 24.1479 2.6307 23.8813 2.47831C23.6147 2.32592 23.3127 2.24638 23.0056 2.24767C22.6985 2.24895 22.3972 2.33103 22.1319 2.48564C21.8666 2.64026 21.6466 2.86197 21.4941 3.12851L16.4883 12.1178C16.3333 12.3838 16.2512 12.686 16.2504 12.9939C16.2495 13.3017 16.3298 13.6044 16.4832 13.8713C16.6366 14.1383 16.8577 14.36 17.1242 14.5142C17.3907 14.6684 17.6931 14.7496 18.001 14.7496H27.999C28.3055 14.7497 28.6066 14.6692 28.8722 14.5164C29.1378 14.3635 29.3586 14.1436 29.5126 13.8786C29.6665 13.6137 29.7482 13.3129 29.7494 13.0065C29.7506 12.7 29.6714 12.3987 29.5195 12.1325ZM28.2158 13.1237C28.1947 13.1625 28.1633 13.1948 28.1251 13.217C28.0868 13.2392 28.0432 13.2505 27.999 13.2497H18.001C17.9569 13.2507 17.9133 13.2396 17.8751 13.2175C17.8368 13.1955 17.8054 13.1634 17.7842 13.1247C17.7606 13.0844 17.7489 13.0383 17.7503 12.9917C17.7516 12.9451 17.7661 12.8998 17.792 12.861L22.7969 3.87172C22.8188 3.83439 22.8499 3.80335 22.8873 3.78162C22.9247 3.75989 22.9671 3.74821 23.0104 3.74772C23.0536 3.74723 23.0963 3.75794 23.1342 3.77881C23.1721 3.79969 23.2039 3.83001 23.2266 3.86684L28.2149 12.8737C28.238 12.9112 28.2503 12.9544 28.2504 12.9985C28.2506 13.0426 28.2386 13.0859 28.2158 13.1237Z" fill="#0F0F0F"/>
</svg>
