<svg width="32" height="32" viewBox="0 0 32 32" fill="none" xmlns="http://www.w3.org/2000/svg">
<path d="M17 25.2496H15C14.8011 25.2496 14.6103 25.3287 14.4697 25.4693C14.329 25.61 14.25 25.8007 14.25 25.9996C14.25 26.1986 14.329 26.3893 14.4697 26.53C14.6103 26.6706 14.8011 26.7496 15 26.7496H17C17.1989 26.7496 17.3897 26.6706 17.5303 26.53C17.671 26.3893 17.75 26.1986 17.75 25.9996C17.75 25.8007 17.671 25.61 17.5303 25.4693C17.3897 25.3287 17.1989 25.2496 17 25.2496Z" fill="#0F0F0F"/>
<path d="M21 2.24965H11C9.74066 2.25108 8.53331 2.75198 7.64282 3.64247C6.75233 4.53296 6.25143 5.74031 6.25 6.99965V24.9996C6.25143 26.259 6.75233 27.4663 7.64282 28.3568C8.53331 29.2473 9.74066 29.7482 11 29.7496H21C22.2593 29.7482 23.4667 29.2473 24.3572 28.3568C25.2477 27.4663 25.7486 26.259 25.75 24.9996V6.99965C25.7486 5.74031 25.2477 4.53296 24.3572 3.64247C23.4667 2.75198 22.2593 2.25108 21 2.24965ZM11 3.74965H21C21.8616 3.75065 22.6877 4.09338 23.297 4.70265C23.9063 5.31193 24.249 6.138 24.25 6.99965V22.2496H7.75V6.99965C7.751 6.138 8.09372 5.31193 8.703 4.70265C9.31228 4.09337 10.1384 3.75064 11 3.74965ZM21 28.2496H11C10.1384 28.2487 9.31228 27.9059 8.703 27.2966C8.09372 26.6874 7.751 25.8613 7.75 24.9996V23.7496H24.25V24.9996C24.249 25.8613 23.9063 26.6874 23.297 27.2966C22.6877 27.9059 21.8616 28.2487 21 28.2496Z" fill="#0F0F0F"/>
</svg>
