<svg width="32" height="32" viewBox="0 0 32 32" fill="none" xmlns="http://www.w3.org/2000/svg">
<path d="M4.0601 15.9999L10.5298 9.53017C10.5995 9.46053 10.6547 9.37786 10.6924 9.28687C10.7301 9.19589 10.7495 9.09837 10.7495 8.99989C10.7495 8.90141 10.7301 8.80389 10.6924 8.71291C10.6547 8.62192 10.5995 8.53925 10.5298 8.46962C10.4602 8.39998 10.3775 8.34474 10.2865 8.30705C10.1956 8.26937 10.098 8.24997 9.99955 8.24997C9.90107 8.24997 9.80356 8.26937 9.71257 8.30705C9.62159 8.34474 9.53892 8.39998 9.46928 8.46962L2.46928 15.4696C2.32868 15.6102 2.24961 15.8009 2.24942 15.9997C2.24923 16.1985 2.32794 16.3893 2.46828 16.5302L9.45559 23.5302C9.52523 23.5999 9.60792 23.6553 9.69896 23.6931C9.78999 23.7309 9.88758 23.7504 9.98615 23.7505C10.0847 23.7506 10.1823 23.7313 10.2734 23.6936C10.3646 23.656 10.4473 23.6008 10.5171 23.5311C10.5869 23.4615 10.6422 23.3788 10.68 23.2878C10.7179 23.1967 10.7374 23.0992 10.7375 23.0006C10.7375 22.902 10.7182 22.8044 10.6806 22.7133C10.6429 22.6222 10.5877 22.5394 10.5181 22.4696L4.0601 15.9999Z" fill="#0F0F0F"/>
<path d="M18.9995 15.2499H11.8101L17.5298 9.53017C17.5995 9.46053 17.6547 9.37786 17.6924 9.28687C17.7301 9.19589 17.7495 9.09837 17.7495 8.99989C17.7495 8.90141 17.7301 8.80389 17.6924 8.71291C17.6547 8.62192 17.5995 8.53925 17.5298 8.46962C17.4602 8.39998 17.3775 8.34474 17.2865 8.30705C17.1956 8.26937 17.098 8.24997 16.9996 8.24997C16.9011 8.24997 16.8036 8.26937 16.7126 8.30705C16.6216 8.34474 16.5389 8.39998 16.4693 8.46962L9.46928 15.4696C9.39962 15.5392 9.34436 15.6219 9.30666 15.7129C9.26896 15.8039 9.24955 15.9014 9.24955 15.9999C9.24955 16.0984 9.26896 16.1959 9.30666 16.2869C9.34436 16.3779 9.39962 16.4605 9.46928 16.5302L16.4693 23.5302C16.6099 23.6708 16.8007 23.7498 16.9996 23.7498C17.1984 23.7498 17.3892 23.6708 17.5298 23.5302C17.6705 23.3895 17.7495 23.1988 17.7495 22.9999C17.7495 22.801 17.6705 22.6103 17.5298 22.4696L11.8101 16.7499H18.9995C21.452 16.7526 23.8031 17.7281 25.5373 19.4622C27.2714 21.1963 28.2468 23.5475 28.2495 25.9999C28.2495 26.1988 28.3286 26.3896 28.4692 26.5302C28.6099 26.6709 28.8006 26.7499 28.9995 26.7499C29.1985 26.7499 29.3892 26.6709 29.5299 26.5302C29.6705 26.3896 29.7495 26.1988 29.7495 25.9999C29.7464 23.1498 28.6128 20.4173 26.5974 18.402C24.5821 16.3867 21.8497 15.2531 18.9995 15.2499Z" fill="#0F0F0F"/>
</svg>
