<svg width="14" height="14" viewBox="0 0 14 14" fill="none" xmlns="http://www.w3.org/2000/svg">
<g clip-path="url(#clip0_10115_15216)">
<path d="M4.37498 1.96885C3.96902 1.96934 3.57982 2.13083 3.29276 2.41788C3.0057 2.70494 2.84422 3.09414 2.84373 3.5001V10.5001C2.84373 10.9062 3.00505 11.2957 3.29222 11.5829C3.57939 11.87 3.96886 12.0313 4.37498 12.0313C4.78109 12.0313 5.17057 11.87 5.45773 11.5829C5.7449 11.2957 5.90623 10.9062 5.90623 10.5001V3.5001C5.90574 3.09414 5.74425 2.70494 5.45719 2.41788C5.17013 2.13083 4.78094 1.96934 4.37498 1.96885Z" fill="#0F0F0F"/>
<path d="M9.62476 1.9697C9.2188 1.97019 8.82961 2.13168 8.54255 2.41874C8.25549 2.7058 8.094 3.09499 8.09351 3.50095V10.501C8.09351 10.9071 8.25484 11.2965 8.54201 11.5837C8.82917 11.8709 9.21865 12.0322 9.62476 12.0322C10.0309 12.0322 10.4204 11.8709 10.7075 11.5837C10.9947 11.2965 11.156 10.9071 11.156 10.501V3.50095C11.1555 3.09499 10.994 2.7058 10.707 2.41874C10.4199 2.13168 10.0307 1.97019 9.62476 1.9697Z" fill="#0F0F0F"/>
</g>
<defs>
<clipPath id="clip0_10115_15216">
<rect width="14" height="14" fill="white"/>
</clipPath>
</defs>
</svg>
