<svg width="32" height="32" viewBox="0 0 32 32" fill="none" xmlns="http://www.w3.org/2000/svg">
<path d="M4.41261 16.0009L10.7065 9.70692C10.8941 9.5194 10.9994 9.26508 10.9994 8.99989C10.9994 8.7347 10.8941 8.48038 10.7065 8.29286C10.519 8.10534 10.2647 8 9.99952 8C9.73433 8 9.48 8.10534 9.29249 8.29286L2.29249 15.2929C2.105 15.4801 1.99958 15.7342 1.99939 15.9992C1.9992 16.2642 2.10427 16.5184 2.29149 16.7059L9.2788 23.7059C9.37146 23.7992 9.4816 23.8732 9.6029 23.9238C9.72421 23.9744 9.8543 24.0006 9.98574 24.0009C10.1172 24.0011 10.2474 23.9755 10.3689 23.9254C10.4904 23.8753 10.6009 23.8018 10.6939 23.709C10.787 23.6162 10.8609 23.5059 10.9113 23.3845C10.9617 23.2631 10.9877 23.133 10.9878 23.0016C10.9878 22.8701 10.962 22.74 10.9117 22.6185C10.8615 22.4971 10.7878 22.3868 10.6948 22.2938L4.41261 16.0009Z" fill="#0F0F0F"/>
<path d="M18.9995 14.9999H12.4136L17.7066 9.70689C17.8941 9.51938 17.9994 9.26505 17.9994 8.99986C17.9994 8.73467 17.8941 8.48035 17.7066 8.29283C17.5191 8.10532 17.2647 7.99997 16.9995 7.99997C16.7344 7.99997 16.48 8.10532 16.2925 8.29283L9.29252 15.2928C9.19964 15.3857 9.12596 15.4959 9.07569 15.6172C9.02542 15.7385 8.99955 15.8685 8.99955 15.9999C8.99955 16.1312 9.02542 16.2612 9.07569 16.3825C9.12596 16.5038 9.19964 16.6141 9.29252 16.7069L16.2925 23.7069C16.48 23.8944 16.7344 23.9998 16.9995 23.9998C17.2647 23.9998 17.5191 23.8944 17.7066 23.7069C17.8941 23.5194 17.9994 23.265 17.9994 22.9999C17.9994 22.7347 17.8941 22.4803 17.7066 22.2928L12.4136 16.9998H18.9995C21.3857 17.0024 23.6733 17.9515 25.3606 19.6387C27.0479 21.326 27.9969 23.6137 27.9995 25.9998C27.9995 26.265 28.1049 26.5194 28.2924 26.7069C28.4799 26.8945 28.7343 26.9998 28.9995 26.9998C29.2647 26.9998 29.5191 26.8945 29.7066 26.7069C29.8942 26.5194 29.9995 26.265 29.9995 25.9998C29.9962 23.0835 28.8362 20.2875 26.774 18.2253C24.7118 16.1632 21.9159 15.0032 18.9995 14.9999Z" fill="#0F0F0F"/>
</svg>
