<svg width="32" height="32" viewBox="0 0 32 32" fill="none" xmlns="http://www.w3.org/2000/svg">
<path d="M16 5.1748C15.7588 5.1748 15.543 5.26367 15.3018 5.4668L6.5293 12.665C6.35156 12.8047 6.25 13.0078 6.25 13.3125C6.25 13.8076 6.61816 14.1885 7.12598 14.1885C7.3291 14.1885 7.54492 14.1123 7.77344 13.9219L16 7.15527L24.2266 13.9219C24.4551 14.1123 24.6709 14.1885 24.874 14.1885C25.3818 14.1885 25.75 13.8076 25.75 13.3125C25.75 13.0078 25.6484 12.8047 25.4707 12.665L16.6855 5.4541C16.4443 5.26367 16.2412 5.1748 16 5.1748ZM16 27.2646C16.2412 27.2646 16.4443 27.1758 16.6855 26.9727L25.4707 19.7744C25.6484 19.6221 25.75 19.4316 25.75 19.127C25.75 18.6318 25.3818 18.251 24.874 18.251C24.6709 18.251 24.4551 18.3271 24.2266 18.5049L16 25.2842L7.77344 18.5049C7.54492 18.3271 7.3291 18.251 7.12598 18.251C6.61816 18.251 6.25 18.6318 6.25 19.127C6.25 19.4316 6.35156 19.6221 6.5293 19.7744L15.3018 26.9727C15.543 27.1631 15.7588 27.2646 16 27.2646Z" fill="black"/>
</svg>
