<svg width="32" height="32" viewBox="0 0 32 32" fill="none" xmlns="http://www.w3.org/2000/svg">
<path d="M5.53906 27.7852H26.4609C28.873 27.7852 30.0791 26.5791 30.0791 24.2051V9.5166C30.0791 7.14258 28.873 5.92383 26.4609 5.92383H5.53906C3.12695 5.92383 1.9082 7.12988 1.9082 9.5166V24.2051C1.9082 26.5791 3.12695 27.7852 5.53906 27.7852ZM5.56445 26.1348C4.26953 26.1348 3.57129 25.4492 3.57129 24.1162V9.60547C3.57129 8.27246 4.26953 7.58691 5.56445 7.58691H26.4229C27.6924 7.58691 28.4287 8.27246 28.4287 9.60547V24.1162C28.4287 25.4492 27.6924 26.1348 26.4229 26.1348H5.56445ZM26.9307 18.3398C26.9307 17.4385 26.334 16.8418 25.4453 16.8418H17.4854C16.5967 16.8418 16 17.4385 16 18.3398V23.0879C16 24.002 16.5967 24.5986 17.4854 24.5986H25.4453C26.334 24.5986 26.9307 24.002 26.9307 23.0879V18.3398Z" fill="black"/>
</svg>
