<svg width="32" height="32" viewBox="0 0 32 32" fill="none" xmlns="http://www.w3.org/2000/svg">
<path d="M5.01307 12.9953L8.34317 9.51483C8.89325 8.93977 9.64889 8.60627 10.4445 8.58741C11.24 8.56856 12.0106 8.86589 12.5873 9.41424C12.7757 9.6001 12.9988 9.74699 13.244 9.84647C13.4892 9.94596 13.7517 9.9961 14.0163 9.99401C14.2809 9.99192 14.5425 9.93766 14.7861 9.83431C15.0297 9.73097 15.2505 9.58059 15.4359 9.39178L19.681 4.882C20.2439 4.32074 21.0063 4.0054 21.8012 4.00502C22.5961 4.00465 23.3588 4.31927 23.9222 4.88L27.1224 8.10071C27.6811 8.65913 27.9969 9.41538 28.0013 10.2053C28.0057 10.9951 27.6983 11.7549 27.1459 12.3195L22.9291 16.2648C22.8332 16.3545 22.7559 16.4623 22.7016 16.582C22.6473 16.7016 22.6171 16.8308 22.6128 16.9621C22.6084 17.0934 22.63 17.2243 22.6762 17.3473C22.7224 17.4702 22.7924 17.5829 22.8822 17.6788C22.972 17.7748 23.0798 17.8521 23.1994 17.9063C23.3191 17.9606 23.4482 17.9908 23.5795 17.9951C23.7108 17.9995 23.8417 17.9779 23.9647 17.9317C24.0877 17.8855 24.2004 17.8155 24.2963 17.7257L28.5365 13.757C29.4741 12.8199 30.001 11.5488 30.0014 10.2232C30.0018 8.89766 29.4755 7.62624 28.5385 6.68864L25.3383 3.468C24.3948 2.53035 23.1176 2.00586 21.7874 2.00989C20.4573 2.01392 19.1832 2.54614 18.2455 3.48949L14.0004 7.9992C13.5274 7.54151 12.9689 7.18148 12.3567 6.93966C11.7445 6.69785 11.0907 6.57899 10.4326 6.58987C9.77455 6.60076 9.12504 6.74117 8.52122 7.00309C7.91739 7.26501 7.37107 7.64331 6.91346 8.11639L3.58246 11.5978C3.20905 11.9733 2.99945 12.4814 2.99945 13.0109C2.99945 13.5405 3.20905 14.0485 3.58246 14.424L9.86151 20.7197L2.29335 28.2931C2.2005 28.386 2.12685 28.4962 2.0766 28.6175C2.02635 28.7388 2.00049 28.8689 2.00049 29.0002C2.00049 29.1315 2.02635 29.2615 2.0766 29.3828C2.12685 29.5041 2.2005 29.6144 2.29335 29.7072C2.3862 29.8001 2.49643 29.8737 2.61774 29.924C2.73905 29.9742 2.86907 30.0001 3.00038 30.0001C3.13169 30.0001 3.26171 29.9742 3.38302 29.924C3.50433 29.8737 3.61456 29.8001 3.70741 29.7072L11.2737 22.1356L14.2943 25.1642C14.3869 25.2579 14.497 25.3324 14.6185 25.3834C14.7399 25.4344 14.8702 25.4609 15.0019 25.4614C15.1336 25.4619 15.2641 25.4364 15.3859 25.3863C15.5077 25.3362 15.6185 25.2625 15.7117 25.1695C15.805 25.0765 15.8789 24.966 15.9294 24.8444C15.9798 24.7227 16.0057 24.5922 16.0056 24.4605C16.0054 24.3288 15.9793 24.1985 15.9286 24.0769C15.8779 23.9553 15.8038 23.8449 15.7103 23.7521L5.01307 12.9953Z" fill="#0F0F0F"/>
<path d="M21.5 28C23.9853 28 26 25.9853 26 23.5C26 21.0147 23.9853 19 21.5 19C19.0147 19 17 21.0147 17 23.5C17 25.9853 19.0147 28 21.5 28Z" fill="#0353A8"/>
</svg>
