<svg width="32" height="32" viewBox="0 0 32 32" fill="none" xmlns="http://www.w3.org/2000/svg">
<path d="M6.5293 20.168C6.5293 21.082 7.17676 21.7041 8.17969 21.7041H15.0986V28.4072C15.0986 29.9941 15.7334 31.3525 16 31.3525C16.2666 31.3525 16.9014 29.9941 16.9014 28.4072V21.7041H23.8203C24.8232 21.7041 25.4707 21.082 25.4707 20.168C25.4707 17.4512 23.3379 14.7217 19.8721 13.5029L19.4658 7.58691C21.0781 6.64746 22.6016 5.4668 23.2617 4.57812C23.5537 4.18457 23.7061 3.80371 23.7061 3.46094C23.7061 2.78809 23.1729 2.28027 22.373 2.28027H9.62695C8.82715 2.28027 8.30664 2.78809 8.30664 3.46094C8.30664 3.80371 8.44629 4.18457 8.73828 4.57812C9.41113 5.4668 10.9346 6.64746 12.5342 7.58691L12.1279 13.5029C8.66211 14.7217 6.5293 17.4512 6.5293 20.168Z" fill="black"/>
</svg>
