<svg width="32" height="32" viewBox="0 0 32 32" fill="none" xmlns="http://www.w3.org/2000/svg">
<path d="M23.0293 21.6152L17.4141 16L23.0293 10.3847C24.3003 11.9804 24.9924 13.96 24.9924 16C24.9924 18.04 24.3003 20.0196 23.0293 21.6152Z" fill="#0F0F0F"/>
<path d="M8.97 10.3844L14.586 16L8.97 21.6155C7.69892 20.0198 7.00681 18.0401 7.00681 16C7.00681 13.9599 7.69892 11.9801 8.97 10.3844Z" fill="#0F0F0F"/>
<path fill-rule="evenodd" clip-rule="evenodd" d="M24.4493 23.0352C26.0909 21.0584 26.9896 18.5698 26.9896 16.0002C26.9896 13.4306 26.0909 10.942 24.4493 8.96519L29.7071 3.70699C29.8019 3.61457 29.8774 3.50425 29.9292 3.38243C29.981 3.26061 30.0082 3.1297 30.009 2.99732C30.0098 2.86493 29.9844 2.7337 29.9341 2.61123C29.8838 2.48876 29.8097 2.37749 29.7161 2.28388C29.6225 2.19026 29.5112 2.11617 29.3888 2.06589C29.2663 2.01562 29.1351 1.99016 29.0027 1.991C28.8703 1.99184 28.7394 2.01896 28.6176 2.07078C28.4957 2.1226 28.3854 2.1981 28.293 2.29289L23.0368 7.54919C21.0618 5.90215 18.5716 5.00008 16 5.00008C13.4283 5.00008 10.9381 5.90215 8.9631 7.54919L3.7071 2.29289C3.51877 2.10928 3.26569 2.00726 3.00267 2.00892C2.73966 2.01059 2.48789 2.11581 2.3019 2.3018C2.11592 2.48778 2.0107 2.73955 2.00903 3.00257C2.00736 3.26558 2.10939 3.51867 2.293 3.70699L7.5505 8.96449C5.90863 10.9413 5.00987 13.4302 5.00987 15.9999C5.00987 18.5697 5.90863 21.0585 7.5505 23.0354L2.293 28.2929C2.19821 28.3853 2.12271 28.4956 2.07089 28.6175C2.01907 28.7393 1.99195 28.8702 1.99111 29.0026C1.99027 29.135 2.01573 29.2662 2.066 29.3887C2.11628 29.5111 2.19037 29.6224 2.28398 29.716C2.37759 29.8096 2.48886 29.8837 2.61133 29.934C2.73381 29.9843 2.86504 30.0097 2.99743 30.0089C3.12981 30.008 3.26071 29.9809 3.38254 29.9291C3.50436 29.8773 3.61468 29.8018 3.7071 29.707L8.9631 24.4509C10.9381 26.0979 13.4283 27 16 27C18.5716 27 21.0618 26.0979 23.0368 24.4509L28.293 29.707C28.4813 29.8906 28.7344 29.9926 28.9974 29.991C29.2604 29.9893 29.5122 29.8841 29.6982 29.6981C29.8842 29.5121 29.9894 29.2603 29.9911 28.9973C29.9927 28.7343 29.8907 28.4812 29.7071 28.2929L24.4493 23.0352ZM7 16C7 12.2535 9.28924 9.04166 12.5452 7.68698C11.7735 8.00858 11.0454 8.4392 10.3847 8.97052L16 14.5859L21.6153 8.97073C20.9024 8.39744 20.1112 7.94139 19.2712 7.61299C22.6244 8.92181 25 12.1835 25 16C25 19.8242 22.6149 23.0913 19.2511 24.3949C20.0985 24.066 20.8967 23.6072 21.6153 23.0293L16 17.414L10.3847 23.0294C11.074 23.5837 11.8365 24.0284 12.6455 24.3541C9.33633 23.0241 7 19.7849 7 16Z" fill="#0F0F0F"/>
</svg>
