<svg width="32" height="32" viewBox="0 0 32 32" fill="none" xmlns="http://www.w3.org/2000/svg">
<path d="M16 27C9.92487 27 5 22.0751 5 16C5 9.92487 9.92487 5 16 5C22.0751 5 27 9.92487 27 16C27 22.0751 22.0751 27 16 27ZM16 29C23.1797 29 29 23.1797 29 16C29 8.8203 23.1797 3 16 3C8.8203 3 3 8.8203 3 16C3 23.1797 8.8203 29 16 29Z" fill="#0F0F0F"/>
<path d="M19.5 16L14.25 19.0311V12.9689L19.5 16ZM22 16.866C22.6667 16.4811 22.6667 15.5189 22 15.134L13.75 10.3708C13.0833 9.98593 12.25 10.4671 12.25 11.2369V20.7631C12.25 21.5329 13.0833 22.0141 13.75 21.6292L22 16.866Z" fill="#0F0F0F"/>
</svg>
