<svg width="32" height="32" viewBox="0 0 32 32" fill="none" xmlns="http://www.w3.org/2000/svg">
<path d="M25.937 8.99041L18.9409 3.95721C18.0878 3.33445 17.0591 2.99861 16.0029 2.99809C14.9467 2.99756 13.9176 3.33237 13.0639 3.95428L6.06006 8.99334C5.4229 9.45793 4.90433 10.0663 4.54646 10.7689C4.1886 11.4716 4.00154 12.2488 4.00049 13.0373V24.0002C4.00205 25.3258 4.52933 26.5966 5.46668 27.534C6.40402 28.4713 7.67488 28.9986 9.00049 29.0002H23.0005C24.3261 28.9986 25.597 28.4713 26.5343 27.534C27.4716 26.5966 27.9989 25.3258 28.0005 24.0002V13.0373C27.9992 12.248 27.8117 11.4701 27.4532 10.7669C27.0946 10.0637 26.5751 9.45501 25.937 8.99041ZM26.0005 24.0002C25.9996 24.7956 25.6833 25.5581 25.1208 26.1205C24.5584 26.683 23.7959 26.9993 23.0005 27.0002H9.00049C8.20511 26.9993 7.44255 26.683 6.88013 26.1205C6.31771 25.5581 6.00136 24.7956 6.00049 24.0002V13.0373C6.00097 12.5649 6.11271 12.0994 6.32666 11.6783C6.5406 11.2572 6.85074 10.8924 7.23194 10.6135L14.2358 5.5744C14.749 5.20011 15.3678 4.99867 16.0029 4.9992C16.638 4.99973 17.2566 5.20219 17.769 5.57733L24.7651 10.6105C25.1473 10.8895 25.4583 11.2546 25.673 11.6762C25.8876 12.0978 25.9998 12.5642 26.0005 13.0373V24.0002Z" fill="#0F0F0F"/>
<path d="M18.877 15.7678C19.4227 15.2031 19.7901 14.4903 19.9334 13.7182C20.0767 12.946 19.9895 12.1488 19.6828 11.4259C19.3761 10.703 18.8633 10.0864 18.2085 9.65292C17.5537 9.21944 16.7858 8.9883 16.0005 8.9883C15.2152 8.9883 14.4473 9.21944 13.7925 9.65292C13.1377 10.0864 12.625 10.703 12.3183 11.4259C12.0115 12.1488 11.9244 12.946 12.0677 13.7182C12.211 14.4903 12.5783 15.2031 13.124 15.7678C12.2082 16.2514 11.4367 16.9688 10.8881 17.8472C10.3395 18.7256 10.0332 19.7336 10.0005 20.7687C10.0005 21.4172 10.2857 22.6174 12.1939 23.3762C13.4138 23.8163 14.7039 24.0297 16.0005 24.006C18.7681 24.006 22.0005 23.1584 22.0005 20.7687C21.9678 19.7336 21.6616 18.7256 21.113 17.8472C20.5643 16.9688 19.7929 16.2514 18.877 15.7678ZM16.0005 11.0002C16.3961 11.0002 16.7827 11.1175 17.1116 11.3372C17.4405 11.557 17.6969 11.8694 17.8482 12.2348C17.9996 12.6003 18.0392 13.0024 17.9621 13.3904C17.8849 13.7783 17.6944 14.1347 17.4147 14.4144C17.135 14.6941 16.7786 14.8846 16.3907 14.9618C16.0027 15.0389 15.6006 14.9993 15.2351 14.8479C14.8697 14.6966 14.5573 14.4402 14.3375 14.1113C14.1178 13.7824 14.0005 13.3957 14.0005 13.0002C14.0012 12.47 14.2121 11.9617 14.587 11.5867C14.962 11.2118 15.4703 11.0009 16.0005 11.0002ZM16.0005 22.006C13.5591 22.006 12.0005 21.2736 12.0005 20.7687C12.0636 19.7507 12.5125 18.7951 13.2557 18.0965C13.9989 17.3979 14.9805 17.009 16.0005 17.009C17.0205 17.009 18.0021 17.3979 18.7453 18.0965C19.4885 18.7951 19.9374 19.7507 20.0005 20.7687C20.0005 21.2736 18.4419 22.006 16.0005 22.006Z" fill="#0F0F0F"/>
</svg>
