<svg width="32" height="32" viewBox="0 0 32 32" fill="none" xmlns="http://www.w3.org/2000/svg">
<path d="M26 1.99983H16C14.9395 2.00089 13.9227 2.42266 13.1727 3.17257C12.4228 3.92249 12.0011 4.93929 12 5.99983V11.9998H6C4.93946 12.0009 3.92266 12.4227 3.17274 13.1726C2.42283 13.9225 2.00106 14.9393 2 15.9998V25.9998C2.00106 27.0604 2.42283 28.0772 3.17274 28.8271C3.92266 29.577 4.93946 29.9988 6 29.9998H16C17.0605 29.9988 18.0773 29.577 18.8273 28.8271C19.5772 28.0772 19.9989 27.0604 20 25.9998V19.9998H26C27.0605 19.9988 28.0773 19.577 28.8273 18.8271C29.5772 18.0772 29.9989 17.0604 30 15.9998V5.99983C29.9989 4.93929 29.5772 3.92249 28.8273 3.17257C28.0773 2.42266 27.0605 2.00089 26 1.99983ZM18 25.9998C17.9993 26.5301 17.7884 27.0384 17.4135 27.4133C17.0385 27.7882 16.5302 27.9991 16 27.9998H6C5.46978 27.9991 4.96147 27.7882 4.58655 27.4133C4.21162 27.0384 4.00069 26.5301 4 25.9998V17.9998H18V25.9998ZM4 15.9998C4.00069 15.4696 4.21162 14.9613 4.58655 14.5864C4.96147 14.2115 5.46978 14.0005 6 13.9998H16C16.5302 14.0005 17.0385 14.2115 17.4135 14.5864C17.7884 14.9613 17.9993 15.4696 18 15.9998H4ZM28 15.9998C27.9993 16.5301 27.7884 17.0384 27.4135 17.4133C27.0385 17.7882 26.5302 17.9991 26 17.9998H20V15.9998C19.9989 14.9393 19.5772 13.9225 18.8273 13.1726C18.0773 12.4227 17.0605 12.0009 16 11.9998H14V7.99983H28V15.9998ZM14 5.99983C14.0007 5.46961 14.2116 4.9613 14.5865 4.58638C14.9615 4.21145 15.4698 4.00052 16 3.99983H26C26.5302 4.00052 27.0385 4.21145 27.4135 4.58638C27.7884 4.9613 27.9993 5.46961 28 5.99983H14Z" fill="#0F0F0F"/>
</svg>
