<svg width="32" height="32" viewBox="0 0 32 32" fill="none" xmlns="http://www.w3.org/2000/svg">
<path d="M4.24414 23.8242H12.2295V25.6016C12.2295 27.9756 13.4482 29.1816 15.8477 29.1816H27.7559C30.1553 29.1816 31.3867 27.9629 31.3867 25.6016V17.7559C31.3867 15.3818 30.1553 14.1758 27.7559 14.1758H25.3691V8.12012C25.3691 5.74609 24.1504 4.52734 21.751 4.52734H4.24414C1.83203 4.52734 0.613281 5.7334 0.613281 8.12012V20.2441C0.613281 22.6309 1.83203 23.8242 4.24414 23.8242ZM4.26953 22.1738C2.97461 22.1738 2.27637 21.4883 2.27637 20.1553V8.20898C2.27637 6.87598 2.97461 6.19043 4.26953 6.19043H21.7129C22.9824 6.19043 23.7188 6.87598 23.7188 8.20898V14.1758H15.8477C13.4482 14.1758 12.2295 15.3818 12.2295 17.7559V22.1738H4.26953ZM6.18652 13.1475L7.3418 11.9795L9.55078 14.1758C9.71582 14.3408 9.86816 14.3916 10.0713 14.3916C10.4775 14.3916 10.7822 14.0996 10.7822 13.7314C10.7822 13.5156 10.7061 13.3506 10.541 13.1855L8.33203 10.9893L9.5 9.80859C10.0332 9.28809 9.70312 8.60254 8.9541 8.47559L5.05664 7.85352C4.52344 7.77734 4.14258 8.1709 4.21875 8.69141L4.84082 12.6016C4.95508 13.376 5.65332 13.6807 6.18652 13.1475Z" fill="black"/>
</svg>
