<svg width="32" height="32" viewBox="0 0 32 32" fill="none" xmlns="http://www.w3.org/2000/svg">
<path fill-rule="evenodd" clip-rule="evenodd" d="M12.5 6.5C12.5 4.567 14.067 3 16 3C17.933 3 19.5 4.567 19.5 6.5C19.5 8.24223 18.227 9.68715 16.5604 9.95537L20.4735 16.2765L25.2706 13.9517C24.5019 13.4085 24 12.5129 24 11.5C24 9.84315 25.3431 8.5 27 8.5C28.6569 8.5 30 9.84315 30 11.5C30 13.1569 28.6569 14.5 27 14.5C26.8122 14.5 26.6285 14.4828 26.4503 14.4498L24.3003 25.0898C24.2991 25.0964 24.2978 25.1028 24.2963 25.1092L23.4901 29.099C23.443 29.3323 23.238 29.5 23 29.5H9.00002C8.76205 29.5 8.55706 29.3323 8.50992 29.099L7.70369 25.1092L7.70228 25.1027L7.69979 25.0899L5.5497 14.4497C5.3715 14.4828 5.18776 14.5 5 14.5C3.34315 14.5 2 13.1569 2 11.5C2 9.84315 3.34315 8.5 5 8.5C6.65685 8.5 8 9.84315 8 11.5C8 12.5129 7.49807 13.4085 6.72937 13.9517L11.5265 16.2765L15.4396 9.95537C13.773 9.68716 12.5 8.24224 12.5 6.5ZM16 4C14.6193 4 13.5 5.11929 13.5 6.5C13.5 7.88071 14.6193 9 16 9C17.3807 9 18.5 7.88071 18.5 6.5C18.5 5.11929 17.3807 4 16 4ZM3 11.5C3 10.3954 3.89543 9.5 5 9.5C6.10457 9.5 7 10.3954 7 11.5C7 12.6046 6.10457 13.5 5 13.5C3.89543 13.5 3 12.6046 3 11.5ZM9.40909 28.5L8.80287 25.5H23.1972L22.5909 28.5H9.40909ZM8.6008 24.5H23.3992L25.3101 15.0438L20.5038 17.373C20.2732 17.4848 19.9955 17.4041 19.8606 17.1863L16 10.9499L12.1394 17.1863C12.0046 17.4041 11.7268 17.4848 11.4963 17.373L6.68996 15.0438L8.6008 24.5ZM25 11.5C25 10.3954 25.8954 9.5 27 9.5C28.1046 9.5 29 10.3954 29 11.5C29 12.6046 28.1046 13.5 27 13.5C25.8954 13.5 25 12.6046 25 11.5Z" fill="#0F0F0F"/>
</svg>
