<svg width="32" height="32" viewBox="0 0 32 32" fill="none" xmlns="http://www.w3.org/2000/svg">
<path fill-rule="evenodd" clip-rule="evenodd" d="M27.5 16.5H28C28.8284 16.5 29.5 15.8284 29.5 15V11C29.5 10.1716 28.8284 9.5 28 9.5H22.1458C22.9762 8.76706 23.5 7.69469 23.5 6.5C23.5 4.29086 21.7091 2.5 19.5 2.5C17.994 2.5 16.6824 3.33229 16 4.562C15.3176 3.33229 14.006 2.5 12.5 2.5C10.2909 2.5 8.5 4.29086 8.5 6.5C8.5 7.69469 9.02376 8.76706 9.85418 9.5H4C3.17157 9.5 2.5 10.1716 2.5 11V15C2.5 15.8284 3.17157 16.5 4 16.5H4.5V26C4.5 27.933 6.067 29.5 8 29.5H24C25.933 29.5 27.5 27.933 27.5 26V16.5ZM19.5 3.5C17.8431 3.5 16.5 4.84315 16.5 6.5C16.5 7.38722 16.5007 8.01023 16.5516 8.46822C16.6029 8.9299 16.6962 9.11411 16.7911 9.20895C16.8859 9.30378 17.0701 9.39707 17.5318 9.44837C17.9898 9.49926 18.6128 9.5 19.5 9.5C21.1569 9.5 22.5 8.15685 22.5 6.5C22.5 4.84315 21.1569 3.5 19.5 3.5ZM4 10.5C3.72386 10.5 3.5 10.7239 3.5 11V15C3.5 15.2761 3.72386 15.5 4 15.5H15.5V10.5H4ZM26.5 16.5H16.5V28.5H24C25.3807 28.5 26.5 27.3807 26.5 26V16.5ZM5.5 16.5V26C5.5 27.3807 6.61929 28.5 8 28.5H15.5V16.5H5.5ZM16.5 10.5V15.5H28C28.2761 15.5 28.5 15.2761 28.5 15V11C28.5 10.7239 28.2761 10.5 28 10.5H16.5ZM15.5 6.5C15.5 4.84315 14.1569 3.5 12.5 3.5C10.8431 3.5 9.5 4.84315 9.5 6.5C9.5 8.15685 10.8431 9.5 12.5 9.5C13.3872 9.5 14.0102 9.49926 14.4682 9.44837C14.9299 9.39707 15.1141 9.30378 15.2089 9.20895C15.3038 9.11411 15.3971 8.9299 15.4484 8.46822C15.4993 8.01023 15.5 7.38722 15.5 6.5Z" fill="black"/>
</svg>
