<svg width="32" height="32" viewBox="0 0 32 32" fill="none" xmlns="http://www.w3.org/2000/svg">
<path fill-rule="evenodd" clip-rule="evenodd" d="M23.75 6.5C23.75 7.54875 23.3701 8.50878 22.7405 9.25H28C28.9665 9.25 29.75 10.0335 29.75 11V15C29.75 15.9665 28.9665 16.75 28 16.75H27.75V26C27.75 28.0711 26.0711 29.75 24 29.75H8C5.92893 29.75 4.25 28.0711 4.25 26V16.75H4C3.0335 16.75 2.25 15.9665 2.25 15V11C2.25 10.0335 3.0335 9.25 4 9.25H9.25951C8.62987 8.50878 8.25 7.54875 8.25 6.5C8.25 4.15279 10.1528 2.25 12.5 2.25C13.9516 2.25 15.2333 2.97779 16 4.0884C16.7667 2.97779 18.0484 2.25 19.5 2.25C21.8472 2.25 23.75 4.15279 23.75 6.5ZM19.5 3.75C17.9812 3.75 16.75 4.98122 16.75 6.5C16.75 7.39332 16.7511 7.99973 16.8001 8.44061C16.8497 8.88703 16.935 8.99929 16.9678 9.03217C17.0007 9.06505 17.113 9.1503 17.5594 9.1999C18.0003 9.24889 18.6067 9.25 19.5 9.25C21.0188 9.25 22.25 8.01878 22.25 6.5C22.25 4.98122 21.0188 3.75 19.5 3.75ZM5.75 16.75V26C5.75 27.2426 6.75736 28.25 8 28.25H15.25V16.75H5.75ZM16.75 28.25H24C25.2426 28.25 26.25 27.2426 26.25 26V16.75H16.75V28.25ZM28 15.25H16.75V10.75H28C28.1381 10.75 28.25 10.8619 28.25 11V15C28.25 15.1381 28.1381 15.25 28 15.25ZM15.25 10.75V15.25H4C3.86193 15.25 3.75 15.1381 3.75 15V11C3.75 10.8619 3.86193 10.75 4 10.75H15.25ZM12.5 9.25C13.3933 9.25 13.9997 9.24889 14.4406 9.1999C14.887 9.1503 14.9993 9.06505 15.0322 9.03217C15.065 8.99929 15.1503 8.88703 15.1999 8.44061C15.2489 7.99973 15.25 7.39332 15.25 6.5C15.25 4.98122 14.0188 3.75 12.5 3.75C10.9812 3.75 9.75 4.98122 9.75 6.5C9.75 8.01878 10.9812 9.25 12.5 9.25Z" fill="black"/>
</svg>
