<svg width="32" height="32" viewBox="0 0 32 32" fill="none" xmlns="http://www.w3.org/2000/svg">
<path d="M3.64645 3.64645C3.84171 3.45118 4.15829 3.45118 4.35355 3.64645L15.5 14.7929V4C15.5 3.72386 15.7239 3.5 16 3.5C16.2761 3.5 16.5 3.72386 16.5 4V15.7929L19.5 18.7929L21.6464 16.6464C21.8417 16.4512 22.1583 16.4512 22.3536 16.6464C22.5488 16.8417 22.5488 17.1583 22.3536 17.3536L20.2071 19.5L28.3536 27.6464C28.5488 27.8417 28.5488 28.1583 28.3536 28.3536C28.1825 28.5246 27.9185 28.5458 27.7244 28.4173L4.35355 5.04647C4.3293 5.02222 4.30317 5.00097 4.27564 4.98275L3.64645 4.35355C3.45118 4.15829 3.45118 3.84171 3.64645 3.64645Z" fill="#0F0F0F"/>
<path d="M15.5 17.6071V21.7929L10.3536 16.6464C10.1583 16.4512 9.84171 16.4512 9.64645 16.6464C9.45118 16.8417 9.45118 17.1583 9.64645 17.3536L15.6464 23.3536C15.8417 23.5488 16.1583 23.5488 16.3536 23.3536L18.8 20.9071L18.0929 20.2L16.5 21.7929V18.6071L15.5 17.6071Z" fill="#0F0F0F"/>
<path d="M4.5 28C4.5 28.2761 4.72386 28.5 5 28.5H25C25.2761 28.5 25.5 28.2761 25.5 28C25.5 27.7239 25.2761 27.5 25 27.5H5C4.72386 27.5 4.5 27.7239 4.5 28Z" fill="#0F0F0F"/>
</svg>
