<svg width="32" height="32" viewBox="0 0 32 32" fill="none" xmlns="http://www.w3.org/2000/svg">
<path d="M16 3.25C16.4142 3.25 16.75 3.58579 16.75 4V15.6893L19.5 18.4393L21.4697 16.4697C21.7626 16.1768 22.2374 16.1768 22.5303 16.4697C22.8232 16.7626 22.8232 17.2374 22.5303 17.5303L20.5607 19.5L28.5303 27.4697C28.8232 27.7626 28.8232 28.2374 28.5303 28.5303C28.2739 28.7868 27.8779 28.8187 27.5867 28.626L4.53033 5.56965C4.4939 5.53321 4.45464 5.50131 4.41328 5.47394L3.46967 4.53033C3.17678 4.23744 3.17678 3.76256 3.46967 3.46967C3.76256 3.17678 4.23744 3.17678 4.53033 3.46967L15.25 14.1893V4C15.25 3.58579 15.5858 3.25 16 3.25Z" fill="#0B0B0B"/>
<path d="M15.25 18.4106V21.1893L10.5303 16.4697C10.2374 16.1768 9.76256 16.1768 9.46967 16.4697C9.17678 16.7626 9.17678 17.2374 9.46967 17.5303L15.4697 23.5303C15.7626 23.8232 16.2374 23.8232 16.5303 23.5303L18.45 21.6106L17.3894 20.55L16.75 21.1893V19.9106L15.25 18.4106Z" fill="#0B0B0B"/>
<path d="M5 27.25C4.58579 27.25 4.25 27.5858 4.25 28C4.25 28.4142 4.58579 28.75 5 28.75H23C23.4142 28.75 23.75 28.4142 23.75 28C23.75 27.5858 23.4142 27.25 23 27.25H5Z" fill="#0B0B0B"/>
</svg>
