<svg width="32" height="32" viewBox="0 0 32 32" fill="none" xmlns="http://www.w3.org/2000/svg">
<path d="M3.29289 3.29289C3.68342 2.90237 4.31658 2.90237 4.70711 3.29289L15 13.5858V4C15 3.44772 15.4477 3 16 3C16.5523 3 17 3.44772 17 4V15.5858L19.5 18.0858L21.2929 16.2929C21.6834 15.9024 22.3166 15.9024 22.7071 16.2929C23.0976 16.6834 23.0976 17.3166 22.7071 17.7071L20.9142 19.5L28.7071 27.2929C29.0976 27.6834 29.0976 28.3166 28.7071 28.7071C28.3651 29.0491 27.837 29.0916 27.4487 28.8346L4.70711 6.09294C4.6586 6.04443 4.60634 6.00195 4.55128 5.96549L3.29289 4.70711C2.90237 4.31658 2.90237 3.68342 3.29289 3.29289ZM15 19.2143V20.5858L10.7071 16.2929C10.3166 15.9024 9.68342 15.9024 9.29289 16.2929C8.90237 16.6834 8.90237 17.3166 9.29289 17.7071L15.2929 23.7071C15.6834 24.0976 16.3166 24.0976 16.7071 23.7071L18.1 22.3142L15 19.2143ZM5 27C4.44772 27 4 27.4477 4 28C4 28.5523 4.44772 29 5 29H22C22.5523 29 23 28.5523 23 28C23 27.4477 22.5523 27 22 27H5Z" fill="#0B0B0B"/>
</svg>
