<svg width="32" height="32" viewBox="0 0 32 32" fill="none" xmlns="http://www.w3.org/2000/svg">
<path d="M16 29.0801C22.9697 29.0801 28.7334 23.3164 28.7334 16.3467C28.7334 9.37695 22.9697 3.61328 15.9873 3.61328C9.01758 3.61328 3.2666 9.37695 3.2666 16.3467C3.2666 23.3164 9.03027 29.0801 16 29.0801ZM15.9873 18.3906C15.4541 18.3906 15.1494 18.0605 15.124 17.4893L14.9844 10.9004C14.959 10.3291 15.3906 9.92285 15.9873 9.92285C16.5713 9.92285 17.0156 10.3418 16.9902 10.9131L16.8379 17.4893C16.8252 18.0732 16.5078 18.3906 15.9873 18.3906ZM15.9873 22.7451C15.3398 22.7451 14.7432 22.2119 14.7432 21.5391C14.7432 20.8535 15.3271 20.3203 15.9873 20.3203C16.6602 20.3203 17.2314 20.8408 17.2314 21.5391C17.2314 22.2246 16.6475 22.7451 15.9873 22.7451Z" fill="black"/>
</svg>
