<svg width="32" height="32" viewBox="0 0 32 32" fill="none" xmlns="http://www.w3.org/2000/svg">
<path d="M11.4138 20.8277L12.5895 21.9996L13.9997 20.5895L12.822 19.4156L11.4138 20.8277Z" fill="#0F0F0F"/>
<path d="M18.766 13.8484C19.0086 13.7478 19.2288 13.6001 19.4138 13.4137C19.5996 13.228 19.747 13.0076 19.8475 12.7649C19.9481 12.5223 19.9998 12.2621 19.9997 11.9995C19.9996 11.7368 19.9477 11.4767 19.847 11.2341C19.7463 10.9915 19.5987 10.7711 19.4128 10.5856L19.4118 10.5846C19.1791 10.3527 18.8928 10.1818 18.5783 10.0869C18.2638 9.99196 17.9308 9.97601 17.6087 10.0404C17.2866 10.1049 16.9853 10.2477 16.7315 10.4563C16.4777 10.6649 16.2792 10.9328 16.1536 11.2363C16.028 11.5398 15.9792 11.8697 16.0114 12.1966C16.0436 12.5235 16.1559 12.8374 16.3383 13.1106C16.5207 13.3838 16.7676 13.6079 17.0572 13.7629C17.3468 13.918 17.6702 13.9993 17.9987 13.9996H18.0007C18.2633 14.0004 18.5234 13.949 18.766 13.8484Z" fill="#0F0F0F"/>
<path d="M8.5003 4.77516C10.7204 3.29176 13.3304 2.5 16.0005 2.5C19.5797 2.50391 23.0112 3.92748 25.5421 6.45837C28.073 8.98927 29.4966 12.4208 29.5005 16C29.5005 18.67 28.7087 21.2801 27.2253 23.5002C25.7419 25.7203 23.6335 27.4506 21.1667 28.4724C18.6999 29.4942 15.9855 29.7615 13.3668 29.2406C10.748 28.7197 8.34256 27.434 6.45455 25.5459C4.56654 23.6579 3.28079 21.2525 2.75989 18.6337C2.23899 16.015 2.50634 13.3006 3.52812 10.8338C4.5499 8.36697 6.28023 6.25856 8.5003 4.77516ZM14.0179 11.7406C13.9583 12.7077 14.2525 13.6635 14.8456 14.4297L12.0964 17.3111L9.29168 20.1236C9.19893 20.2166 9.1254 20.3269 9.0753 20.4483C9.0252 20.5697 8.99951 20.6998 8.9997 20.8311C8.99988 20.9624 9.02593 21.0924 9.07637 21.2136C9.12681 21.3349 9.20064 21.445 9.29365 21.5377L11.1774 23.4156C11.5529 23.7893 12.0612 23.999 12.5909 23.9986C13.1207 23.9982 13.6287 23.7879 14.0036 23.4136L15.4138 22.0035C15.5997 21.8177 15.7471 21.597 15.8477 21.3541C15.9482 21.1112 15.9999 20.8509 15.9997 20.588C15.9995 20.3252 15.9475 20.0649 15.8466 19.8222C15.7457 19.5794 15.598 19.359 15.4118 19.1734L14.2189 17.9842L16.4234 15.6738C16.9208 15.8887 17.4569 15.9995 17.9987 15.9996H18.0016C18.6593 15.9992 19.3068 15.8366 19.8867 15.5262C20.4665 15.2158 20.9609 14.7672 21.326 14.2201C21.6911 13.673 21.9156 13.0444 21.9797 12.3898C22.0438 11.7352 21.9455 11.0749 21.6935 10.4674C21.4414 9.85987 21.0434 9.32389 20.5348 8.90692C20.0261 8.48995 19.4225 8.20486 18.7774 8.0769C18.1322 7.94894 17.4655 7.98205 16.8362 8.17331C16.2069 8.36458 15.6345 8.70812 15.1696 9.17344C14.4869 9.861 14.0775 10.7734 14.0179 11.7406Z" fill="#0F0F0F"/>
</svg>
