<svg width="32" height="32" viewBox="0 0 32 32" fill="none" xmlns="http://www.w3.org/2000/svg">
<path d="M16.5469 15.8656L17.9991 21.0003L13.9825 21.0765L15.4229 15.8402C15.4803 15.6291 15.4672 15.4051 15.3856 15.2022C15.304 14.9993 15.1583 14.8287 14.9708 14.7162C14.6709 14.5363 14.4234 14.2809 14.2529 13.9756C14.0825 13.6702 13.9951 13.3255 13.9995 12.9758C14.0038 12.6261 14.0998 12.2837 14.2778 11.9826C14.4557 11.6816 14.7095 11.4325 15.0138 11.2602C15.3181 11.0878 15.6623 10.9982 16.012 11.0004C16.3617 11.0025 16.7047 11.0963 17.0068 11.2724C17.309 11.4485 17.5597 11.7007 17.734 12.0039C17.9083 12.3071 18 12.6506 18.0001 13.0004C17.999 13.3499 17.9069 13.6932 17.7327 13.9963C17.5586 14.2995 17.3084 14.5519 17.0069 14.7289C16.9913 14.7381 16.973 14.7499 16.9571 14.7602L16.9542 14.7621C16.7782 14.8792 16.6439 15.0492 16.5708 15.2475C16.4976 15.4458 16.4892 15.6622 16.5469 15.8656Z" fill="#0F0F0F"/>
<path fill-rule="evenodd" clip-rule="evenodd" d="M16 2.00032C13.2311 2.00032 10.5243 2.82141 8.22202 4.35975C5.91974 5.89809 4.12532 8.08459 3.06569 10.6428C2.00607 13.2009 1.72882 16.0159 2.26901 18.7316C2.80921 21.4473 4.14258 23.9419 6.10051 25.8998C8.05845 27.8577 10.553 29.1911 13.2687 29.7313C15.9845 30.2715 18.7994 29.9943 21.3576 28.9346C23.9157 27.875 26.1022 26.0806 27.6406 23.7783C29.1789 21.476 30 18.7693 30 16.0003C29.9958 12.2886 28.5195 8.73003 25.8949 6.10543C23.2703 3.48082 19.7118 2.00449 16 2.00032ZM16 9.00032C14.9395 9.00138 13.9227 9.42315 13.1728 10.1731C12.4229 10.923 12.0011 11.9398 12 13.0003C11.998 13.5582 12.1143 14.1102 12.3414 14.6198C12.5685 15.1293 12.9012 15.5849 13.3174 15.9564L12.0371 20.6214C11.9811 20.9107 11.9898 21.2089 12.0625 21.4945C12.1353 21.7802 12.2703 22.0462 12.4579 22.2735C12.6454 22.5008 12.881 22.6839 13.1476 22.8095C13.4142 22.9352 13.7053 23.0003 14 23.0003H17.999C18.2946 23.0007 18.5866 22.9354 18.8538 22.8091C19.121 22.6827 19.3567 22.4985 19.5439 22.2698C19.7384 22.0299 19.8753 21.7488 19.9444 21.4478C20.0134 21.1469 20.0128 20.8341 19.9424 20.5335L18.6592 15.9876C19.265 15.4485 19.6926 14.7381 19.8854 13.9504C20.0781 13.1627 20.0269 12.3351 19.7385 11.5772C19.45 10.8193 18.938 10.167 18.2704 9.70678C17.6027 9.24656 16.8109 9.00021 16 9.00032Z" fill="#0F0F0F"/>
</svg>
