<svg width="32" height="32" viewBox="0 0 32 32" fill="none" xmlns="http://www.w3.org/2000/svg">
<path d="M15.9999 2.25032C13.2804 2.25032 10.622 3.05674 8.36079 4.56761C6.09962 6.07848 4.33725 8.22594 3.29654 10.7384C2.25584 13.2509 1.98354 16.0156 2.51409 18.6828C3.04463 21.35 4.35419 23.8001 6.27717 25.723C8.20014 27.646 10.6502 28.9556 13.3174 29.4861C15.9846 30.0167 18.7493 29.7444 21.2618 28.7037C23.7743 27.663 25.9217 25.9006 27.4326 23.6394C28.9435 21.3782 29.7499 18.7198 29.7499 16.0003C29.7458 12.3548 28.2959 8.85981 25.7181 6.28206C23.1404 3.70431 19.6454 2.25436 15.9999 2.25032ZM15.9999 28.2503C13.5771 28.2503 11.2087 27.5319 9.19415 26.1858C7.17965 24.8398 5.60953 22.9266 4.68236 20.6882C3.75519 18.4498 3.5126 15.9867 3.98526 13.6105C4.45793 11.2342 5.62463 9.05146 7.33783 7.33826C9.05102 5.62507 11.2338 4.45837 13.61 3.9857C15.9863 3.51303 18.4494 3.75562 20.6878 4.6828C22.9262 5.60997 24.8393 7.18008 26.1854 9.19459C27.5314 11.2091 28.2499 13.5775 28.2499 16.0003C28.2463 19.2481 26.9545 22.3619 24.658 24.6584C22.3614 26.9549 19.2477 28.2467 15.9999 28.2503Z" fill="#0F0F0F"/>
<path d="M15.9999 9.25032C15.0057 9.25157 14.0526 9.64706 13.3496 10.3501C12.6466 11.053 12.2511 12.0061 12.2499 13.0003C12.2481 13.5493 12.3682 14.0917 12.6016 14.5886C12.835 15.0854 13.1759 15.5242 13.5995 15.8733L12.2821 20.6682C12.233 20.9215 12.2406 21.1825 12.3042 21.4325C12.3678 21.6825 12.4859 21.9153 12.6501 22.1143C12.8143 22.3132 13.0204 22.4735 13.2538 22.5834C13.4871 22.6934 13.7419 22.7503 13.9999 22.7502H17.9989C18.2575 22.7508 18.5129 22.6938 18.7467 22.5833C18.9805 22.4728 19.1867 22.3117 19.3504 22.1116C19.5198 21.9029 19.6395 21.6585 19.7004 21.3967C19.7613 21.135 19.7619 20.8628 19.702 20.6008L18.3749 15.9016C18.9735 15.4118 19.4059 14.7488 19.613 14.0036C19.8201 13.2584 19.7916 12.4673 19.5315 11.7389C19.2714 11.0105 18.7924 10.3803 18.1601 9.93479C17.5279 9.48925 16.7733 9.25023 15.9999 9.25032ZM16.787 15.7982L18.245 20.9505C18.2521 20.9869 18.251 21.0244 18.2419 21.0603C18.2329 21.0962 18.216 21.1297 18.1925 21.1583C18.169 21.1869 18.1394 21.21 18.106 21.2259C18.0725 21.2418 18.0359 21.2502 17.9989 21.2503H13.9999C13.9631 21.2506 13.9267 21.2426 13.8934 21.2269C13.8601 21.2111 13.8307 21.1881 13.8075 21.1595C13.7699 21.1181 13.7466 21.0657 13.7411 21.0101L15.1816 15.7738C15.2244 15.6153 15.2144 15.4472 15.1531 15.2949C15.0918 15.1426 14.9824 15.0145 14.8417 14.93C14.5044 14.7276 14.2261 14.4403 14.0344 14.0967C13.8428 13.7532 13.7446 13.3654 13.7496 12.9721C13.7546 12.5787 13.8626 12.1935 14.0628 11.855C14.2631 11.5164 14.5486 11.2362 14.891 11.0424C15.2333 10.8486 15.6204 10.7479 16.0138 10.7504C16.4072 10.7528 16.793 10.8584 17.1329 11.0565C17.4727 11.2546 17.7547 11.5383 17.9507 11.8794C18.1467 12.2205 18.2499 12.6069 18.2499 13.0003C18.2491 13.3936 18.1455 13.7799 17.9496 14.1209C17.7537 14.4619 17.4721 14.7459 17.1327 14.9447L17.0927 14.9701C16.9607 15.058 16.86 15.1855 16.8051 15.3343C16.7501 15.4832 16.7438 15.6455 16.787 15.7982Z" fill="#0F0F0F"/>
</svg>
