<svg width="32" height="32" viewBox="0 0 32 32" fill="none" xmlns="http://www.w3.org/2000/svg">
<path d="M15.9995 2.49961C13.3295 2.49961 10.7194 3.29137 8.49932 4.77477C6.27926 6.25817 4.54893 8.36658 3.52714 10.8334C2.50536 13.3002 2.23802 16.0146 2.75892 18.6333C3.27982 21.2521 4.56557 23.6575 6.45358 25.5456C8.34159 27.4336 10.7471 28.7193 13.3658 29.2402C15.9845 29.7611 18.6989 29.4938 21.1657 28.472C23.6325 27.4502 25.741 25.7199 27.2244 23.4998C28.7078 21.2797 29.4995 18.6697 29.4995 15.9996C29.4956 12.4204 28.072 8.98888 25.5411 6.45798C23.0103 3.92709 19.5787 2.50352 15.9995 2.49961ZM15.9995 28.4996C13.5273 28.4996 11.1105 27.7665 9.05489 26.393C6.99927 25.0195 5.39712 23.0672 4.45102 20.7832C3.50493 18.4991 3.25739 15.9857 3.7397 13.561C4.22202 11.1362 5.41253 8.90893 7.16068 7.16078C8.90884 5.41262 11.1361 4.22211 13.5609 3.73979C15.9857 3.25748 18.499 3.50502 20.7831 4.45112C23.0671 5.39721 25.0194 6.99937 26.3929 9.05498C27.7664 11.1106 28.4995 13.5273 28.4995 15.9996C28.4958 19.3137 27.1776 22.4909 24.8342 24.8343C22.4908 27.1777 19.3136 28.4959 15.9995 28.4996Z" fill="#0F0F0F"/>
<path d="M17.9995 8.50059H17.9966C17.3066 8.5009 16.6321 8.70527 16.058 9.08799C15.4839 9.47071 15.0358 10.0147 14.7701 10.6515C14.5044 11.2882 14.4329 11.9894 14.5648 12.6666C14.6966 13.3439 15.0257 13.9671 15.5109 14.4577L12.4695 17.6452L12.4653 17.6481L9.64502 20.4762C9.552 20.5707 9.49976 20.698 9.49952 20.8307C9.49946 20.8964 9.51247 20.9615 9.53778 21.0222C9.5631 21.0829 9.60021 21.138 9.64698 21.1842L11.5298 23.0611C11.6687 23.2006 11.8338 23.3112 12.0157 23.3864C12.1975 23.4617 12.3925 23.5002 12.5894 23.4996C12.7863 23.5002 12.9823 23.4616 13.1642 23.3862C13.3461 23.3107 13.5112 23.1999 13.65 23.0602L15.0601 21.65C15.1995 21.5106 15.3101 21.345 15.3855 21.1628C15.4609 20.9806 15.4997 20.7853 15.4995 20.5881C15.4993 20.3909 15.4602 20.1957 15.3845 20.0136C15.3087 19.8315 15.1978 19.6661 15.0581 19.527L13.5187 17.9925L16.3217 15.0548C16.8337 15.3433 17.4108 15.4964 17.9985 15.4997H18.0014C18.9281 15.4972 19.816 15.1273 20.4703 14.471C21.1246 13.8148 21.4919 12.9258 21.4916 11.9992C21.4914 11.0725 21.1235 10.1837 20.4689 9.52786C19.8142 8.872 18.9262 8.50252 17.9995 8.50059ZM14.4995 20.5895C14.4998 20.6552 14.4869 20.7202 14.4618 20.7809C14.4366 20.8416 14.3997 20.8967 14.353 20.943L12.9429 22.3531C12.8965 22.3996 12.8413 22.4364 12.7807 22.4615C12.72 22.4867 12.655 22.4996 12.5894 22.4996C12.5237 22.4996 12.4587 22.4867 12.398 22.4615C12.3374 22.4364 12.2823 22.3996 12.2359 22.3531L10.7066 20.8287L12.8208 18.7086L14.352 20.235C14.3988 20.2814 14.4359 20.3366 14.4613 20.3975C14.4866 20.4583 14.4996 20.5236 14.4995 20.5895ZM19.7681 13.7662C19.5366 13.9993 19.2612 14.1842 18.9578 14.3101C18.6544 14.4359 18.329 14.5004 18.0005 14.4996H17.9985C17.3368 14.4979 16.7028 14.2338 16.2355 13.7654C15.7682 13.2969 15.5057 12.6623 15.5055 12.0006C15.5054 11.3389 15.7676 10.7042 16.2348 10.2355C16.7019 9.7669 17.3358 9.50261 17.9975 9.50061H17.9995C18.4938 9.5004 18.977 9.64678 19.3881 9.92124C19.7992 10.1957 20.1197 10.5859 20.309 11.0425C20.4983 11.4991 20.548 12.0016 20.4517 12.4864C20.3554 12.9712 20.1175 13.4166 19.7681 13.7662Z" fill="#0F0F0F"/>
</svg>
