<svg width="32" height="32" viewBox="0 0 32 32" fill="none" xmlns="http://www.w3.org/2000/svg">
<path d="M15.9995 2.24961C13.28 2.24961 10.6216 3.05603 8.36043 4.5669C6.09925 6.07777 4.33688 8.22523 3.29617 10.7377C2.25547 13.2502 1.98317 16.0149 2.51372 18.6821C3.04427 21.3493 4.35383 23.7994 6.2768 25.7223C8.19977 27.6453 10.6498 28.9549 13.317 29.4854C15.9843 30.016 18.7489 29.7437 21.2614 28.703C23.7739 27.6622 25.9214 25.8999 27.4322 23.6387C28.9431 21.3775 29.7495 18.7191 29.7495 15.9996C29.7455 12.3541 28.2955 8.8591 25.7178 6.28135C23.14 3.7036 19.645 2.25364 15.9995 2.24961ZM15.9995 28.2496C13.5767 28.2496 11.2083 27.5312 9.19378 26.1851C7.17928 24.8391 5.60917 22.9259 4.68199 20.6875C3.75482 18.4491 3.51223 15.986 3.9849 13.6098C4.45757 11.2335 5.62427 9.05075 7.33746 7.33755C9.05065 5.62436 11.2334 4.45766 13.6097 3.98499C15.9859 3.51232 18.449 3.75491 20.6874 4.68209C22.9258 5.60926 24.839 7.17937 26.185 9.19388C27.5311 11.2084 28.2495 13.5768 28.2495 15.9996C28.2459 19.2474 26.9541 22.3612 24.6576 24.6577C22.3611 26.9542 19.2473 28.246 15.9995 28.2496Z" fill="#0F0F0F"/>
<path d="M17.9995 8.25059H17.9966C17.279 8.24999 16.5763 8.45606 15.9727 8.84417C15.3691 9.23228 14.89 9.78602 14.5927 10.4392C14.2954 11.0923 14.1925 11.8173 14.2963 12.5274C14.4001 13.2375 14.7062 13.9026 15.178 14.4434L9.46825 20.3004C9.39872 20.3702 9.34361 20.4529 9.30608 20.544C9.26854 20.635 9.24932 20.7326 9.2495 20.8311C9.24968 20.9296 9.26927 21.0271 9.30713 21.118C9.345 21.2089 9.40041 21.2915 9.4702 21.361L11.354 23.2389C11.516 23.4013 11.7086 23.5301 11.9206 23.6178C12.1326 23.7054 12.3599 23.7502 12.5893 23.7496C12.8191 23.7503 13.0477 23.7053 13.2599 23.6173C13.4722 23.5293 13.6648 23.4 13.8267 23.2369L15.2368 21.8268C15.3995 21.6641 15.5285 21.471 15.6165 21.2585C15.7045 21.0459 15.7497 20.8181 15.7495 20.5881C15.7493 20.358 15.7038 20.1303 15.6154 19.9179C15.5271 19.7055 15.3978 19.5126 15.2348 19.3502L13.869 17.9886L16.3726 15.3646C16.8782 15.6149 17.4343 15.7466 17.9985 15.7496H18.0014C18.9944 15.747 19.9457 15.3507 20.6469 14.6476C21.348 13.9445 21.7416 12.992 21.7413 11.9991C21.7411 11.0061 21.3469 10.0538 20.6455 9.3511C19.944 8.64837 18.9925 8.2526 17.9995 8.25059ZM14.2495 20.5895C14.2495 20.6558 14.2231 20.7193 14.1763 20.7662L12.7651 22.1773C12.7457 22.2064 12.7195 22.2301 12.6887 22.2465C12.6579 22.2629 12.6235 22.2714 12.5886 22.2713C12.5537 22.2712 12.5194 22.2625 12.4887 22.2459C12.458 22.2294 12.4318 22.2055 12.4126 22.1763L11.0601 20.8277L12.8218 19.0621L14.1763 20.4127C14.1995 20.4359 14.218 20.4634 14.2305 20.4938C14.2431 20.5241 14.2496 20.5566 14.2495 20.5895ZM19.5903 13.5895C19.3823 13.7994 19.1346 13.9659 18.8617 14.0792C18.5888 14.1925 18.296 14.2505 18.0005 14.2496H17.9985C17.403 14.248 16.8325 14.0103 16.412 13.5887C15.9915 13.1672 15.7553 12.5961 15.7552 12.0006C15.755 11.4052 15.991 10.834 16.4113 10.4122C16.8316 9.99042 17.402 9.75251 17.9975 9.75061H17.9995C18.2946 9.74968 18.587 9.80729 18.8597 9.9201C19.1325 10.0329 19.3801 10.1987 19.5883 10.4078C19.7977 10.6163 19.9639 10.8651 20.0774 11.1379C20.1908 11.4107 20.2493 11.7033 20.2495 11.9988C20.2497 12.2942 20.1916 12.5868 20.0785 12.8598C19.9653 13.1328 19.7995 13.3807 19.5903 13.5895Z" fill="#0F0F0F"/>
</svg>
