<svg width="32" height="32" viewBox="0 0 32 32" fill="none" xmlns="http://www.w3.org/2000/svg">
<path d="M16 25.9999C16.8285 25.9999 17.5 25.3284 17.5 24.5C17.5 23.6716 16.8285 23 16 23C15.1716 23 14.5001 23.6716 14.5001 24.5C14.5001 25.3284 15.1716 25.9999 16 25.9999Z" fill="#0F0F0F"/>
<path d="M28.7072 11.2644C25.3342 7.89959 20.7644 6.00996 16.0001 6.00996C11.2358 6.00996 6.66605 7.89959 3.29311 11.2644C3.20026 11.3572 3.12661 11.4674 3.07636 11.5887C3.02611 11.7101 3.00024 11.8401 3.00024 11.9714C3.00024 12.1027 3.02611 12.2327 3.07636 12.354C3.12661 12.4753 3.20026 12.5856 3.29311 12.6784C3.38595 12.7713 3.49618 12.8449 3.61749 12.8952C3.73881 12.9454 3.86883 12.9713 4.00014 12.9713C4.13144 12.9713 4.26147 12.9454 4.38278 12.8952C4.50409 12.8449 4.61432 12.7713 4.70717 12.6784C7.70469 9.68794 11.766 8.0085 16.0001 8.0085C20.2343 8.0085 24.2956 9.68794 27.2931 12.6784C27.386 12.7713 27.4962 12.8449 27.6175 12.8952C27.7388 12.9454 27.8688 12.9713 28.0001 12.9713C28.1314 12.9713 28.2615 12.9454 28.3828 12.8952C28.5041 12.8449 28.6143 12.7713 28.7072 12.6784C28.8 12.5856 28.8737 12.4753 28.9239 12.354C28.9742 12.2327 29 12.1027 29 11.9714C29 11.8401 28.9742 11.7101 28.9239 11.5887C28.8737 11.4674 28.8 11.3572 28.7072 11.2644Z" fill="#0F0F0F"/>
<path d="M8.31947 17.0075C8.22279 17.0967 8.14464 17.204 8.08952 17.3234C8.03439 17.4429 8.00336 17.572 7.99821 17.7034C7.99305 17.8348 8.01387 17.9659 8.05947 18.0893C8.10508 18.2127 8.17457 18.3258 8.26396 18.4223C8.35336 18.5187 8.46091 18.5966 8.58045 18.6514C8.69999 18.7063 8.82918 18.737 8.96061 18.7418C9.09204 18.7467 9.22313 18.7255 9.34637 18.6796C9.46962 18.6337 9.5826 18.564 9.67885 18.4743C11.4027 16.8919 13.6574 16.0136 15.9974 16.0129C18.3374 16.0122 20.5927 16.8891 22.3175 18.4704C22.4138 18.5606 22.5269 18.6308 22.6504 18.6771C22.7739 18.7234 22.9054 18.7447 23.0372 18.74C23.169 18.7352 23.2986 18.7045 23.4184 18.6495C23.5383 18.5944 23.6461 18.5162 23.7356 18.4194C23.8251 18.3225 23.8946 18.2089 23.94 18.0851C23.9855 17.9612 24.0059 17.8297 24.0003 17.6979C23.9947 17.5661 23.963 17.4368 23.9072 17.3173C23.8513 17.1978 23.7724 17.0905 23.6749 17.0017C21.5788 15.0814 18.8389 14.0167 15.9961 14.0178C13.1533 14.0189 10.4142 15.0856 8.31947 17.0075Z" fill="#0F0F0F"/>
</svg>
