<svg width="32" height="32" viewBox="0 0 32 32" fill="none" xmlns="http://www.w3.org/2000/svg">
<path d="M3.00001 20.2504C2.80109 20.2504 2.61033 20.3294 2.46968 20.4701C2.32902 20.6107 2.25001 20.8015 2.25001 21.0004C2.25001 21.1993 2.32902 21.3901 2.46968 21.5307C2.61033 21.6714 2.80109 21.7504 3.00001 21.7504C4.12682 21.7516 5.20714 22.1997 6.00391 22.9965C6.80069 23.7933 7.24883 24.8736 7.25001 26.0004C7.25001 26.1993 7.32902 26.3901 7.46968 26.5307C7.61033 26.6714 7.80109 26.7504 8.00001 26.7504C8.19892 26.7504 8.38968 26.6714 8.53034 26.5307C8.67099 26.3901 8.75001 26.1993 8.75001 26.0004C8.7484 24.4759 8.14208 23.0143 7.06409 21.9363C5.98611 20.8583 4.52451 20.252 3.00001 20.2504Z" fill="#0F0F0F"/>
<path d="M3.49989 26.75C4.19024 26.75 4.74989 26.1903 4.74989 25.5C4.74989 24.8096 4.19024 24.25 3.49989 24.25C2.80953 24.25 2.24989 24.8096 2.24989 25.5C2.24989 26.1903 2.80953 26.75 3.49989 26.75Z" fill="#0F0F0F"/>
<path d="M3.00001 16.2504C2.80109 16.2504 2.61033 16.3294 2.46968 16.4701C2.32902 16.6107 2.25001 16.8015 2.25001 17.0004C2.25001 17.1993 2.32902 17.3901 2.46968 17.5307C2.61033 17.6714 2.80109 17.7504 3.00001 17.7504C5.18726 17.753 7.28419 18.623 8.83082 20.1696C10.3774 21.7162 11.2475 23.8131 11.25 26.0004C11.25 26.1993 11.329 26.3901 11.4697 26.5307C11.6103 26.6714 11.8011 26.7504 12 26.7504C12.1989 26.7504 12.3897 26.6714 12.5303 26.5307C12.671 26.3901 12.75 26.1993 12.75 26.0004C12.747 23.4155 11.7188 20.9372 9.891 19.1094C8.06317 17.2816 5.58495 16.2534 3.00001 16.2504Z" fill="#0F0F0F"/>
<path d="M28.9209 9.51114C28.6554 9.34919 28.3518 9.26028 28.0409 9.25342C27.73 9.24656 27.4228 9.322 27.1504 9.47208L23.748 11.636V10.0043C23.7466 8.74497 23.2457 7.53762 22.3552 6.64713C21.4647 5.75664 20.2574 5.25574 18.998 5.25431H6.99805C5.73855 5.2558 4.53108 5.75686 3.64058 6.64755C2.75007 7.53824 2.24927 8.74581 2.24805 10.0053L2.25005 13.0004C2.25011 13.0989 2.26958 13.1964 2.30733 13.2874C2.34508 13.3784 2.40038 13.461 2.47007 13.5306C2.53976 13.6002 2.62248 13.6554 2.7135 13.693C2.80452 13.7307 2.90206 13.75 3.00055 13.7499C3.09904 13.7499 3.19655 13.7304 3.28752 13.6926C3.37849 13.6549 3.46113 13.5996 3.53073 13.5299C3.60033 13.4602 3.65552 13.3775 3.69315 13.2865C3.73078 13.1955 3.75011 13.0979 3.75005 12.9994L3.74805 10.0043C3.74904 9.14267 4.09177 8.3166 4.70105 7.70732C5.31033 7.09804 6.1364 6.75532 6.99805 6.75432H18.998C19.8597 6.75531 20.6858 7.09804 21.295 7.70732C21.9043 8.3166 22.2471 9.14267 22.248 10.0043V22.0043C22.2471 22.8658 21.9045 23.6918 21.2955 24.301C20.6864 24.9103 19.8605 25.2531 18.999 25.2543L16.001 25.2504C15.8021 25.2503 15.6103 25.3292 15.4695 25.4697C15.3288 25.6103 15.2496 25.801 15.2495 25.9999C15.2494 26.1988 15.3283 26.3896 15.4688 26.5304C15.6094 26.6711 15.8001 26.7503 15.999 26.7504L18.998 26.7543C20.2573 26.7529 21.4647 26.252 22.3552 25.3615C23.2457 24.471 23.7466 23.2637 23.748 22.0043V20.3634L27.2177 22.5658C27.4845 22.6992 27.781 22.7622 28.079 22.7487C28.377 22.7353 28.6666 22.6459 28.9203 22.4891C29.174 22.3322 29.3834 22.1131 29.5286 21.8526C29.6739 21.592 29.7501 21.2987 29.75 21.0004V10.9994C29.7509 10.7011 29.6751 10.4075 29.5299 10.1469C29.3848 9.88632 29.175 9.66739 28.9209 9.51114ZM28.25 21.0004C28.2507 21.0431 28.2401 21.0853 28.2194 21.1226C28.1986 21.16 28.1684 21.1913 28.1318 21.2133C28.0879 21.2397 27.998 21.2797 27.9551 21.2621L23.7481 18.5874V13.413L27.8877 10.7758C27.9259 10.7566 27.9683 10.7474 28.011 10.7493C28.0536 10.7511 28.0951 10.7638 28.1314 10.7863C28.1678 10.8087 28.1978 10.8401 28.2185 10.8774C28.2393 10.9147 28.2501 10.9567 28.25 10.9994L28.25 21.0004Z" fill="#0F0F0F"/>
</svg>
