<svg width="32" height="32" viewBox="0 0 32 32" fill="none" xmlns="http://www.w3.org/2000/svg">
<path d="M26.918 25.7793C27.2227 26.0713 27.7051 26.0713 27.9971 25.7793C28.2891 25.4746 28.2891 25.0049 27.9971 24.7002L5.08203 1.79785C4.79004 1.50586 4.30762 1.49316 4.00293 1.79785C3.71094 2.07715 3.71094 2.57227 4.00293 2.86426L26.918 25.7793ZM27.4512 14.6201C27.6543 14.8232 27.959 14.8232 28.1875 14.5947L29.7617 13.0078C29.9648 12.8047 29.9648 12.5508 29.7998 12.3477C26.9053 8.88184 21.5479 6.30469 16 6.30469C14.6162 6.30469 13.2451 6.48242 11.9248 6.78711L14.9844 9.84668C19.707 9.5293 24.1885 11.2051 27.4512 14.6201ZM3.8252 14.6074C4.04102 14.8232 4.3584 14.8232 4.57422 14.5947C6.16113 12.9062 8.04004 11.6494 10.1348 10.8496L7.58301 8.28516C5.41211 9.33887 3.5332 10.748 2.2002 12.3477C2.03516 12.5508 2.04785 12.8047 2.23828 13.0078L3.8252 14.6074ZM8.90332 19.7109C9.13184 19.9268 9.42383 19.9268 9.65234 19.6602C11.2266 17.9463 13.7529 16.8418 16.2158 16.918L13.1055 13.8076C10.6045 14.3789 8.4082 15.6738 7.0498 17.2988C6.89746 17.4893 6.91016 17.7432 7.10059 17.9209L8.90332 19.7109ZM23.9727 18.835L24.8994 17.9209C25.0898 17.7432 25.1025 17.4893 24.9502 17.2988C23.6299 15.6992 21.4717 14.4424 19.0215 13.8838L23.9727 18.835ZM16.0127 26.3887C16.2412 26.3887 16.457 26.2617 16.9014 25.8301L19.834 22.999C20.0244 22.834 20.0498 22.6055 19.8975 22.4023C19.1484 21.4248 17.6504 20.5742 16.0127 20.5742C14.3369 20.5742 12.8262 21.4502 12.0898 22.4531C11.9629 22.6309 12.001 22.834 12.1787 22.999L15.1113 25.8301C15.5557 26.2617 15.7715 26.3887 16.0127 26.3887Z" fill="black"/>
</svg>
