<svg width="32" height="32" viewBox="0 0 32 32" fill="none" xmlns="http://www.w3.org/2000/svg">
<path d="M16.0001 25.5C16.5524 25.5 17.0001 25.0523 17.0001 24.5C17.0001 23.9477 16.5524 23.5 16.0001 23.5C15.4478 23.5 15 23.9477 15 24.5C15 25.0523 15.4478 25.5 16.0001 25.5Z" fill="#0F0F0F"/>
<path d="M28.3537 11.6179C25.0742 8.34733 20.6317 6.51071 16.0002 6.51071C11.3686 6.51071 6.9261 8.34733 3.64666 11.6179C3.55447 11.7119 3.50313 11.8386 3.50379 11.9703C3.50446 12.102 3.55708 12.2282 3.65022 12.3213C3.74336 12.4145 3.86949 12.4671 4.00121 12.4677C4.13293 12.4684 4.25959 12.4171 4.35366 12.3249C7.44493 9.24059 11.6334 7.50845 16.0002 7.50845C20.3669 7.50845 24.5554 9.24059 27.6467 12.3249C27.6929 12.3721 27.7481 12.4096 27.8089 12.4354C27.8698 12.4611 27.9351 12.4746 28.0012 12.4749C28.0673 12.4752 28.1328 12.4624 28.1939 12.4373C28.255 12.4122 28.3105 12.3752 28.3573 12.3285C28.404 12.2817 28.441 12.2262 28.4661 12.1651C28.4912 12.104 28.504 12.0385 28.5037 11.9724C28.5033 11.9063 28.4899 11.841 28.4642 11.7801C28.4384 11.7193 28.4009 11.6641 28.3537 11.6179Z" fill="#0F0F0F"/>
<path d="M8.65933 17.3737C8.56214 17.4639 8.50471 17.589 8.49967 17.7215C8.49462 17.854 8.54238 17.983 8.63244 18.0803C8.72249 18.1776 8.84749 18.2352 8.97998 18.2404C9.11246 18.2456 9.2416 18.198 9.33901 18.1081C11.1556 16.441 13.5312 15.5156 15.9968 15.5147C18.4623 15.5138 20.8386 16.4375 22.6564 18.1032C22.7538 18.1934 22.883 18.2411 23.0156 18.236C23.0812 18.2334 23.1458 18.218 23.2054 18.1905C23.2651 18.1631 23.3188 18.1241 23.3634 18.0759C23.4081 18.0277 23.4428 17.9711 23.4655 17.9095C23.4883 17.8479 23.4987 17.7824 23.4962 17.7167C23.4937 17.651 23.4782 17.5865 23.4507 17.5269C23.4233 17.4672 23.3843 17.4135 23.3361 17.3689C21.3325 15.5337 18.7138 14.5161 15.9968 14.517C13.2797 14.5179 10.6617 15.5372 8.65933 17.3737Z" fill="#0F0F0F"/>
</svg>
