<svg width="32" height="32" viewBox="0 0 32 32" fill="none" xmlns="http://www.w3.org/2000/svg">
<path d="M16 25.5C16.5523 25.5 17 25.0523 17 24.5C17 23.9477 16.5523 23.5 16 23.5C15.4477 23.5 15 23.9477 15 24.5C15 25.0523 15.4477 25.5 16 25.5Z" fill="#0F0F0F"/>
<path d="M3.64654 11.6179C3.55435 11.7119 3.503 11.8386 3.50367 11.9703C3.50433 12.102 3.55695 12.2282 3.65009 12.3213C3.74323 12.4145 3.86937 12.4671 4.00109 12.4677C4.13281 12.4684 4.25946 12.4171 4.35354 12.3249C5.34458 11.3414 6.45722 10.4886 7.66443 9.78712L6.93567 9.05836C5.74067 9.77662 4.63637 10.636 3.64654 11.6179Z" fill="#0F0F0F"/>
<path d="M16.2327 15.5253C18.6168 15.5715 20.9017 16.4884 22.6563 18.1032C22.7537 18.1934 22.8829 18.2411 23.0155 18.236C23.1481 18.2309 23.2732 18.1733 23.3633 18.0759C23.4535 17.9785 23.5012 17.8493 23.4961 17.7167C23.491 17.5841 23.4334 17.459 23.336 17.3689C22.2526 16.3735 20.9771 15.6101 19.588 15.1255C18.1989 14.6409 16.7254 14.4452 15.258 14.5506L9.5401 8.83272C12.5626 7.54446 15.9011 7.18861 19.1272 7.81084C22.3533 8.43306 25.32 10.005 27.6465 12.3249C27.6928 12.3721 27.7479 12.4097 27.8088 12.4354C27.8697 12.4612 27.935 12.4746 28.0011 12.4749C28.0672 12.4753 28.1327 12.4625 28.1938 12.4374C28.2549 12.4122 28.3104 12.3752 28.3571 12.3285C28.4039 12.2818 28.4409 12.2262 28.466 12.1651C28.4911 12.104 28.5039 12.0385 28.5036 11.9725C28.5032 11.9064 28.4898 11.841 28.464 11.7802C28.4383 11.7193 28.4007 11.6642 28.3535 11.6179C25.8373 9.11139 22.6176 7.43043 19.1226 6.79866C15.6276 6.16688 12.0231 6.61425 8.78863 8.08125L4.35357 3.64619C4.2595 3.554 4.13284 3.50265 4.00112 3.50332C3.8694 3.50398 3.74326 3.5566 3.65012 3.64974C3.55698 3.74288 3.50436 3.86902 3.5037 4.00074C3.50303 4.13245 3.55438 4.25911 3.64657 4.35319L7.82623 8.53291L7.82501 8.53365L8.57245 9.28108L8.57379 9.28047L13.9962 14.7028L13.9946 14.7032L14.8773 15.5859L14.879 15.5857L27.6465 28.3532C27.6928 28.4004 27.7479 28.438 27.8088 28.4637C27.8697 28.4895 27.935 28.5029 28.0011 28.5032C28.0672 28.5036 28.1327 28.4908 28.1938 28.4657C28.2549 28.4405 28.3104 28.4035 28.3571 28.3568C28.4039 28.3101 28.4409 28.2546 28.466 28.1935C28.4911 28.1323 28.5039 28.0669 28.5036 28.0008C28.5032 27.9347 28.4898 27.8693 28.464 27.8085C28.4383 27.7476 28.4007 27.6925 28.3535 27.6462L16.2327 15.5253Z" fill="#0F0F0F"/>
<path d="M8.65924 17.3737C8.56205 17.4639 8.50462 17.589 8.49958 17.7215C8.49453 17.854 8.54228 17.983 8.63234 18.0803C8.7224 18.1776 8.8474 18.2352 8.97989 18.2404C9.11237 18.2456 9.2415 18.198 9.33892 18.1081C10.5628 16.979 12.0569 16.1841 13.6771 15.7998L12.8613 14.984C11.2964 15.449 9.85887 16.2665 8.65924 17.3737Z" fill="#0F0F0F"/>
</svg>
