<svg width="32" height="32" viewBox="0 0 32 32" fill="none" xmlns="http://www.w3.org/2000/svg">
<path d="M16 25.75C16.6903 25.75 17.25 25.1903 17.25 24.5C17.25 23.8096 16.6903 23.25 16 23.25C15.3096 23.25 14.75 23.8096 14.75 24.5C14.75 25.1903 15.3096 25.75 16 25.75Z" fill="#0F0F0F"/>
<path d="M3.46977 11.4411C3.32959 11.5819 3.25097 11.7725 3.25117 11.9711C3.25136 12.1697 3.33036 12.3602 3.47082 12.5006C3.61127 12.6411 3.80172 12.7201 4.00036 12.7203C4.19899 12.7205 4.38959 12.6418 4.53032 12.5017C5.33631 11.6974 6.22482 10.9804 7.18114 10.3624L6.10051 9.28181C5.15633 9.91548 4.27535 10.6386 3.46977 11.4411Z" fill="#0F0F0F"/>
<path d="M8.48931 17.1901C8.34358 17.3254 8.2575 17.513 8.24996 17.7117C8.24243 17.9104 8.31406 18.104 8.44912 18.2499C8.58419 18.3959 8.77165 18.4822 8.97034 18.4901C9.16903 18.4979 9.36271 18.4265 9.50884 18.2917C10.5248 17.3542 11.7346 16.6516 13.0523 16.2336L11.8788 15.0601C10.6273 15.5551 9.47818 16.2773 8.48931 17.1901Z" fill="#0F0F0F"/>
<path d="M16.8636 15.8027C18.9615 15.9852 20.9395 16.8589 22.4874 18.2868C22.6334 18.4218 22.8271 18.4931 23.0258 18.4853C23.2245 18.4774 23.412 18.3909 23.5469 18.2448C23.6819 18.0988 23.7533 17.9051 23.7454 17.7064C23.7375 17.5076 23.651 17.3202 23.505 17.1853C22.4111 16.1804 21.1257 15.4066 19.7257 14.9102C18.3258 14.4139 16.84 14.2051 15.3575 14.2966L9.97649 8.91558C12.9239 7.73918 16.1513 7.4519 19.2601 8.08921C22.369 8.72652 25.223 10.2605 27.4698 12.5017C27.5394 12.5716 27.6221 12.627 27.7131 12.6649C27.8042 12.7027 27.9018 12.7223 28.0004 12.7224C28.099 12.7225 28.1967 12.7031 28.2878 12.6654C28.3789 12.6278 28.4617 12.5725 28.5314 12.5027C28.6011 12.433 28.6564 12.3502 28.6941 12.2591C28.7318 12.168 28.7512 12.0703 28.7511 11.9717C28.751 11.8731 28.7314 11.7755 28.6936 11.6845C28.6557 11.5934 28.6002 11.5107 28.5304 11.4412C25.9993 8.91872 22.7653 7.21963 19.2521 6.5665C15.7389 5.91337 12.1103 6.33666 8.84178 7.7809L4.53032 3.46944C4.38968 3.3288 4.19894 3.24979 4.00004 3.24979C3.80115 3.24979 3.61041 3.32881 3.46977 3.46944C3.32913 3.61008 3.25012 3.80083 3.25012 3.99972C3.25012 4.19862 3.32913 4.38936 3.46977 4.53L27.4698 28.53C27.5394 28.5999 27.622 28.6553 27.7131 28.6932C27.8041 28.731 27.9017 28.7506 28.0003 28.7507C28.099 28.7508 28.1966 28.7314 28.2877 28.6937C28.3788 28.6561 28.4616 28.6008 28.5314 28.531C28.6011 28.4613 28.6564 28.3785 28.6941 28.2874C28.7318 28.1963 28.7511 28.0986 28.751 28C28.7509 27.9014 28.7314 27.8038 28.6935 27.7128C28.6556 27.6217 28.6002 27.539 28.5303 27.4695L16.8636 15.8027Z" fill="#0F0F0F"/>
</svg>
