<svg width="32" height="32" viewBox="0 0 32 32" fill="none" xmlns="http://www.w3.org/2000/svg">
<path d="M28.9652 6.90372C28.4815 6.15555 27.7217 5.6288 26.8515 5.4382C25.9812 5.24761 25.0708 5.4086 24.3187 5.88612L17.8407 10.023L11.4925 5.91062C11.0801 5.67878 10.5989 5.60075 10.1344 5.6904C9.66993 5.78004 9.2523 6.03156 8.95584 6.4002C8.65938 6.76884 8.5033 7.23069 8.51537 7.7036C8.52745 8.1765 8.7069 8.62979 9.02179 8.98282L12.428 13.4797L9.52669 15.3323C8.39554 14.4941 7.10467 13.8966 5.73369 13.5765C4.94319 13.4226 4.12368 13.5584 3.42519 13.9593C2.44269 14.5901 2.37729 15.2893 2.62339 15.7024L5.38509 20.2024L6.51999 22.1537C6.68945 22.4451 6.91607 22.6992 7.18622 22.9007C7.45638 23.1023 7.76449 23.2471 8.09206 23.3266C8.41962 23.406 8.75986 23.4185 9.09234 23.3631C9.42482 23.3077 9.74267 23.1857 10.0268 23.0043L16.5659 18.8275L17.0278 24.9701C17.0949 25.4395 17.3307 25.8683 17.691 26.1764C18.0514 26.4845 18.5117 26.6507 18.9858 26.644H19.0014C19.4751 26.6534 19.9361 26.4903 20.2985 26.185C20.6609 25.8798 20.9001 25.4533 20.9714 24.9848L22.4627 15.0648L27.9427 11.5648C28.3163 11.3263 28.6392 11.0164 28.8929 10.6529C29.1466 10.2894 29.3261 9.87936 29.4211 9.44637C29.516 9.01338 29.5247 8.56591 29.4464 8.12958C29.3682 7.69325 29.2047 7.27674 28.9652 6.90372ZM9.78449 8.33932C9.62277 8.16702 9.52722 7.94307 9.51475 7.7071C9.50228 7.47113 9.57369 7.23835 9.71635 7.04997C9.859 6.86158 10.0637 6.72974 10.2942 6.67778C10.5247 6.62581 10.7662 6.65707 10.9759 6.76602L16.9145 10.6145L13.273 12.94L9.78449 8.33932ZM28.4445 9.23182C28.3786 9.53664 28.2527 9.8253 28.0742 10.081C27.8956 10.3367 27.668 10.5543 27.4045 10.7211L21.7317 14.3441C21.6718 14.3829 21.6207 14.4339 21.582 14.4938C21.5433 14.5538 21.5178 14.6213 21.5071 14.6918L19.9846 24.8218C19.9498 25.0555 19.8305 25.2684 19.6492 25.42C19.468 25.5715 19.2374 25.6513 19.0012 25.6441H18.9934C18.7628 25.6519 18.5372 25.576 18.3583 25.4304C18.1793 25.2849 18.0591 25.0794 18.0198 24.8521L17.4998 17.9185C17.4934 17.8322 17.4646 17.749 17.4164 17.6771C17.3681 17.6051 17.302 17.547 17.2246 17.5083C17.1471 17.4696 17.0609 17.4517 16.9744 17.4563C16.888 17.461 16.8042 17.488 16.7313 17.5347L9.48859 22.1615C9.31817 22.2703 9.12753 22.3435 8.92811 22.3767C8.72869 22.4099 8.52461 22.4025 8.32813 22.3549C8.13165 22.3072 7.94683 22.2204 7.78478 22.0995C7.62272 21.9786 7.48676 21.8263 7.38509 21.6515L6.24349 19.6899L3.49939 15.2631C3.50719 15.2162 3.61069 15.0287 3.96519 14.8012C4.46463 14.5246 5.04855 14.4418 5.60519 14.5688C6.91854 14.9183 8.15106 15.5208 9.23369 16.3423C9.31471 16.3984 9.41047 16.4293 9.50897 16.4312C9.60748 16.4331 9.70436 16.4059 9.78749 16.353L24.8575 6.73002C25.2519 6.47801 25.7122 6.34857 26.1802 6.35806C26.6481 6.36755 27.1028 6.51554 27.4867 6.78332C27.8705 7.05111 28.1664 7.42668 28.337 7.86257C28.5075 8.29847 28.5448 8.77463 28.4445 9.23182Z" fill="#0F0F0F"/>
</svg>
