<svg width="32" height="32" viewBox="0 0 32 32" fill="none" xmlns="http://www.w3.org/2000/svg">
<path d="M29.5913 5.80953C29.4854 5.73182 29.3652 5.67575 29.2376 5.64453C29.1101 5.61331 28.9776 5.60756 28.8478 5.62761C28.718 5.64766 28.5934 5.69311 28.4812 5.76135C28.369 5.8296 28.2713 5.91931 28.1938 6.02535L26.4907 8.35235C26.2068 7.07276 25.6707 5.86261 24.9136 4.79267C24.1565 3.72273 23.1937 2.81447 22.0815 2.12102C21.8489 1.99485 21.5757 1.96604 21.3219 2.04092C21.068 2.1158 20.8542 2.28825 20.7273 2.52048C20.6004 2.75271 20.5707 3.02579 20.6448 3.27985C20.7189 3.53392 20.8907 3.74827 21.1225 3.87591C22.0561 4.47812 22.8521 5.27065 23.4583 6.20167C24.0645 7.13268 24.4673 8.1812 24.6404 9.27862L21.4604 7.63277C21.225 7.51078 20.9507 7.48731 20.698 7.56753C20.4453 7.64774 20.2347 7.82507 20.1127 8.0605C19.9908 8.29594 19.9673 8.57018 20.0475 8.82292C20.1277 9.07565 20.3051 9.28617 20.5405 9.40816L25.3335 11.8886C25.5453 11.9979 25.7892 12.028 26.0213 11.9734C26.2533 11.9188 26.4582 11.7831 26.5991 11.5908L29.8071 7.20699C29.9638 6.99304 30.029 6.72563 29.9886 6.46356C29.9481 6.2015 29.8052 5.96624 29.5913 5.80953Z" fill="#0F0F0F"/>
<path d="M24.172 27.577C22.3711 29.3779 16.1032 29.8385 9.10736 22.8427C2.11155 15.8469 2.57211 9.57892 4.37306 7.77803L5.41027 6.74083C6.0162 6.13624 6.83721 5.7967 7.69318 5.7967C8.54914 5.7967 9.37015 6.13624 9.97608 6.74083L12.4088 9.17358C13.023 9.78147 13.3756 10.605 13.3918 11.469C13.4079 12.333 13.0862 13.1691 12.4951 13.7995L11.3274 14.9658C11.6188 16.3538 12.324 17.6209 13.35 18.6C14.3297 19.6265 15.5984 20.3307 16.9877 20.6192L18.1451 19.4618C18.7461 18.8591 19.5616 18.5195 20.4128 18.5173C21.2639 18.5151 22.0812 18.8505 22.6853 19.4501L25.2092 21.974C25.8138 22.5799 26.1534 23.4009 26.1534 24.2569C26.1534 25.1128 25.8138 25.9339 25.2092 26.5398L24.172 27.577Z" fill="#0F0F0F"/>
</svg>
