<svg width="32" height="32" viewBox="0 0 32 32" fill="none" xmlns="http://www.w3.org/2000/svg">
<path d="M29.4437 6.0107C29.2831 5.8933 29.0824 5.84443 28.8858 5.87482C28.6891 5.90521 28.5126 6.01238 28.3949 6.17281L26.3593 8.95553C26.1385 7.6037 25.6321 6.31447 24.8737 5.17383C24.1153 4.0332 23.1224 3.06738 21.9613 2.34078C21.7867 2.24655 21.5818 2.22534 21.3916 2.2818C21.2014 2.33826 21.0413 2.46778 20.9463 2.64202C20.8514 2.81626 20.8294 3.02102 20.8851 3.21146C20.9408 3.40191 21.0697 3.56253 21.2435 3.65816C22.2807 4.32394 23.154 5.21559 23.7981 6.26643C24.4421 7.31727 24.8403 8.50011 24.9628 9.72652L21.3451 7.85445C21.2575 7.80851 21.1618 7.78032 21.0633 7.77151C20.9649 7.7627 20.8657 7.77344 20.7714 7.80311C20.6771 7.83278 20.5896 7.8808 20.5139 7.94441C20.4383 8.00801 20.3759 8.08595 20.3305 8.17373C20.285 8.26152 20.2574 8.35742 20.2492 8.45592C20.2409 8.55443 20.2522 8.65359 20.2824 8.7477C20.3127 8.84182 20.3612 8.92903 20.4252 9.00433C20.4893 9.07963 20.5676 9.14152 20.6556 9.18645L25.4476 11.6659C25.6065 11.7482 25.7896 11.771 25.9638 11.7301C26.1381 11.6893 26.292 11.5876 26.3978 11.4433L29.6058 7.0595C29.7231 6.89883 29.7719 6.6982 29.7416 6.50159C29.7112 6.30498 29.6041 6.12845 29.4437 6.0107Z" fill="#0F0F0F"/>
<path d="M9.27719 22.6159C16.148 29.4867 22.2489 29.0896 23.9883 27.3502L25.0255 26.313C25.5833 25.754 25.8966 24.9966 25.8966 24.2069C25.8966 23.4172 25.5833 22.6597 25.0255 22.1008L22.5016 19.5769C21.9444 19.0241 21.1907 18.7149 20.4058 18.7171C19.6209 18.7193 18.869 19.0327 18.3149 19.5886L17.0747 20.8288C15.5809 20.5633 14.2113 19.8267 13.1662 18.7268C12.0669 17.6823 11.3293 16.3144 11.0608 14.8219L12.3114 13.5727C12.8564 12.9897 13.1524 12.217 13.1363 11.419C13.1201 10.6211 12.7932 9.86091 12.2251 9.30037L9.79236 6.86762C9.23338 6.30979 8.47594 5.9965 7.68623 5.9965C6.89653 5.9965 6.13908 6.30979 5.5801 6.86762L4.5429 7.90482C2.80341 9.64424 2.40638 15.7451 9.27719 22.6159ZM6.64073 7.92824C6.91819 7.65133 7.29419 7.49581 7.6862 7.49581C8.07821 7.49581 8.4542 7.65133 8.73167 7.92824L11.1644 10.361C11.4513 10.6404 11.6201 11.0192 11.6361 11.4193C11.6522 11.8194 11.5142 12.2105 11.2507 12.512L9.86891 13.8924C8.99676 14.7645 10.1679 17.8498 12.1056 19.7875C14.0432 21.7251 17.1313 22.8935 18.0048 22.02L19.3755 20.6492C19.6481 20.3742 20.0186 20.2186 20.4058 20.2164C20.793 20.2142 21.1653 20.3656 21.4409 20.6375L23.9648 23.1614C24.2418 23.4389 24.3973 23.8149 24.3973 24.2069C24.3973 24.5989 24.2418 24.9749 23.9648 25.2524L22.9276 26.2896C21.7717 27.4455 16.5077 27.7252 10.3378 21.5553C4.1679 15.3853 4.44756 10.1214 5.60352 8.96545L6.64073 7.92824Z" fill="#0F0F0F"/>
</svg>
