<svg width="32" height="32" viewBox="0 0 32 32" fill="none" xmlns="http://www.w3.org/2000/svg">
<path d="M29.2953 6.21285C29.1883 6.13469 29.0547 6.1022 28.9237 6.12252C28.7928 6.14285 28.6753 6.21433 28.5971 6.32125L26.2067 9.58761C26.0626 8.16121 25.5945 6.78658 24.8381 5.56871C24.0816 4.35083 23.0569 3.32191 21.8422 2.56051C21.7257 2.49718 21.5889 2.4827 21.4618 2.52024C21.3347 2.55779 21.2278 2.64428 21.1644 2.76071C21.1011 2.87713 21.0866 3.01393 21.1242 3.14103C21.1617 3.26813 21.2482 3.37511 21.3646 3.43844C22.501 4.16812 23.4467 5.15855 24.1231 6.32738C24.7995 7.4962 25.1871 8.80963 25.2536 10.1584L21.2299 8.07613C21.112 8.01526 20.9748 8.0037 20.8485 8.04399C20.7221 8.08428 20.6169 8.17312 20.556 8.29097C20.4952 8.40881 20.4836 8.54601 20.5239 8.67238C20.5642 8.79875 20.653 8.90393 20.7709 8.9648L25.5629 11.4443C25.6339 11.4807 25.7125 11.4997 25.7924 11.5C25.871 11.5001 25.9486 11.4815 26.0187 11.4459C26.0888 11.4102 26.1494 11.3585 26.1957 11.2949L29.4037 6.91109C29.4425 6.85817 29.4705 6.7981 29.4861 6.73433C29.5017 6.67056 29.5045 6.60434 29.4945 6.53947C29.4844 6.47459 29.4616 6.41235 29.4274 6.3563C29.3933 6.30025 29.3484 6.2515 29.2953 6.21285Z" fill="#0F0F0F"/>
<path d="M9.45401 22.4541C16.1998 29.1999 22.1336 28.8664 23.8116 27.1884L24.8488 26.1512C25.3598 25.6391 25.6469 24.9453 25.6469 24.2218C25.6469 23.4984 25.3598 22.8045 24.8488 22.2925L22.3249 19.7686C21.8146 19.2626 21.1245 18.9796 20.4059 18.9818C19.6873 18.984 18.9989 19.2712 18.4917 19.7803L17.1817 21.0903C15.5751 20.8734 14.0934 20.1059 12.9895 18.9186C11.8029 17.8153 11.0342 16.3357 10.8136 14.7305L12.1346 13.4109C12.6335 12.8751 12.9036 12.1658 12.8875 11.434C12.8714 10.7021 12.5703 10.0054 12.0484 9.49208L9.61563 7.05933C9.10359 6.54827 8.40971 6.26125 7.68628 6.26125C6.96284 6.26125 6.26895 6.54827 5.75692 7.05933L4.71971 8.09654C3.04168 9.7745 2.70818 15.7082 9.45401 22.4541ZM6.46399 7.7664C6.7884 7.44272 7.22796 7.26093 7.68624 7.26093C8.14451 7.26093 8.58408 7.44272 8.90849 7.7664L11.3412 10.1992C11.6736 10.5262 11.8678 10.9683 11.8838 11.4342C11.8999 11.9002 11.7365 12.3546 11.4275 12.7037L10.0457 14.0841C9.33933 14.7905 10.3157 17.659 12.2824 19.6256C14.249 21.5923 17.1203 22.5659 17.828 21.8581L19.1988 20.4874C19.5183 20.1656 19.9524 19.9837 20.4058 19.9815C20.8593 19.9793 21.2951 20.157 21.6178 20.4757L24.1417 22.9996C24.4654 23.324 24.6471 23.7636 24.6471 24.2218C24.6471 24.6801 24.4653 25.1197 24.1417 25.4441L23.1045 26.4813C21.8967 27.689 16.4567 28.0426 10.1611 21.747C3.86549 15.4514 4.21904 10.0114 5.42679 8.80361L6.46399 7.7664Z" fill="#0F0F0F"/>
</svg>
