<svg width="32" height="32" viewBox="0 0 32 32" fill="none" xmlns="http://www.w3.org/2000/svg">
<path d="M29.591 5.80953C29.4851 5.73182 29.365 5.67575 29.2374 5.64453C29.1098 5.61331 28.9773 5.60756 28.8475 5.62761C28.7177 5.64766 28.5932 5.69311 28.4809 5.76135C28.3687 5.8296 28.2711 5.91931 28.1936 6.02535L26.4904 8.35235C26.2066 7.07276 25.6704 5.86261 24.9133 4.79267C24.1563 3.72273 23.1935 2.81447 22.0812 2.12102C21.8486 1.99485 21.5755 1.96604 21.3216 2.04092C21.0678 2.1158 20.854 2.28825 20.7271 2.52048C20.6002 2.75271 20.5705 3.02579 20.6446 3.27985C20.7186 3.53392 20.8904 3.74827 21.1222 3.87591C22.0559 4.47812 22.8518 5.27065 23.458 6.20167C24.0643 7.13268 24.4671 8.1812 24.6402 9.27862L21.4602 7.63277C21.2247 7.51078 20.9505 7.48731 20.6977 7.56753C20.445 7.64774 20.2345 7.82507 20.1125 8.0605C19.9905 8.29594 19.967 8.57018 20.0473 8.82292C20.1275 9.07565 20.3048 9.28617 20.5402 9.40816L25.3332 11.8886C25.5451 11.9979 25.789 12.028 26.021 11.9734C26.2531 11.9188 26.458 11.7831 26.5989 11.5908L29.8069 7.20699C29.9635 6.99304 30.0288 6.72563 29.9883 6.46356C29.9478 6.2015 29.8049 5.96624 29.591 5.80953Z" fill="#0F0F0F"/>
<path d="M9.10711 22.8427C16.1029 29.8385 22.3709 29.3779 24.1718 27.577L25.209 26.5398C25.8136 25.9339 26.1531 25.1128 26.1531 24.2569C26.1531 23.4009 25.8136 22.5799 25.209 21.974L22.6851 19.4501C22.0809 18.8505 21.2637 18.5151 20.4125 18.5173C19.5614 18.5195 18.7459 18.8591 18.1448 19.4618L16.9875 20.6192C15.5982 20.3307 14.3294 19.6265 13.3497 18.6C12.3238 17.6209 11.6186 16.3538 11.3272 14.9658L12.4949 13.7995C13.0859 13.1691 13.4076 12.333 13.3915 11.469C13.3754 10.605 13.0227 9.78147 12.4086 9.17358L9.97584 6.74083C9.36991 6.13624 8.5489 5.7967 7.69293 5.7967C6.83697 5.7967 6.01595 6.13624 5.41002 6.74083L4.37282 7.77803C2.57187 9.57892 2.1113 15.8469 9.10711 22.8427ZM6.8242 8.15501C7.05472 7.92485 7.36715 7.79558 7.6929 7.79558C8.01864 7.79558 8.33107 7.92485 8.56159 8.15501L10.9943 10.5878C11.2358 10.8194 11.3793 11.1347 11.3955 11.4688C11.4117 11.803 11.2992 12.1307 11.0813 12.3845L9.69885 13.7656C8.61817 14.8463 10.0255 18.1042 11.9355 20.0142C14.0368 22.1155 17.1925 23.2425 18.1883 22.2467L19.559 20.876C19.7846 20.6478 20.0916 20.5184 20.4125 20.5162C20.7334 20.514 21.0421 20.6392 21.2709 20.8643L23.7948 23.3882C24.0249 23.6187 24.1542 23.9311 24.1542 24.2569C24.1542 24.5826 24.0249 24.8951 23.7948 25.1256L22.7576 26.1628C21.69 27.2303 16.4827 27.3899 10.5213 21.4285C4.55991 15.4671 4.71943 10.2598 5.787 9.19221L6.8242 8.15501Z" fill="#0F0F0F"/>
</svg>
