<svg width="32" height="32" viewBox="0 0 32 32" fill="none" xmlns="http://www.w3.org/2000/svg">
<path d="M29.2955 6.21285C29.1886 6.13469 29.0549 6.1022 28.924 6.12252C28.7931 6.14285 28.6756 6.21433 28.5973 6.32125L26.2069 9.58761C26.0628 8.16121 25.5947 6.78658 24.8383 5.56871C24.0819 4.35083 23.0572 3.32191 21.8424 2.56051C21.726 2.49718 21.5892 2.4827 21.4621 2.52024C21.335 2.55779 21.228 2.64428 21.1647 2.76071C21.1014 2.87713 21.0869 3.01393 21.1244 3.14103C21.162 3.26813 21.2484 3.37511 21.3649 3.43844C22.5012 4.16812 23.4469 5.15855 24.1233 6.32738C24.7998 7.4962 25.1874 8.80963 25.2539 10.1584L21.2301 8.07613C21.1123 8.01526 20.9751 8.0037 20.8487 8.04399C20.7223 8.08428 20.6171 8.17312 20.5563 8.29097C20.4954 8.40881 20.4838 8.54601 20.5241 8.67238C20.5644 8.79875 20.6533 8.90393 20.7711 8.9648L25.5631 11.4443C25.6342 11.4807 25.7128 11.4997 25.7926 11.5C25.8712 11.5001 25.9488 11.4815 26.0189 11.4459C26.089 11.4102 26.1497 11.3585 26.1959 11.2949L29.4039 6.91109C29.4428 6.85817 29.4708 6.7981 29.4864 6.73433C29.502 6.67056 29.5048 6.60434 29.4947 6.53947C29.4847 6.47459 29.4619 6.41235 29.4277 6.3563C29.3935 6.30025 29.3486 6.2515 29.2955 6.21285Z" fill="#0F0F0F"/>
<path d="M9.45425 22.4541C16.2 29.1999 22.1338 28.8664 23.8118 27.1884L24.849 26.1512C25.3601 25.6391 25.6471 24.9453 25.6471 24.2218C25.6471 23.4984 25.3601 22.8045 24.849 22.2925L22.3251 19.7686C21.8149 19.2626 21.1247 18.9796 20.4061 18.9818C19.6875 18.984 18.9991 19.2712 18.492 19.7803L17.182 21.0903C15.5753 20.8734 14.0937 20.1059 12.9898 18.9186C11.8031 17.8153 11.0344 16.3357 10.8139 14.7305L12.1349 13.4109C12.6337 12.8751 12.9038 12.1658 12.8877 11.434C12.8716 10.7021 12.5706 10.0054 12.0486 9.49208L9.61587 7.05933C9.10384 6.54827 8.40996 6.26125 7.68652 6.26125C6.96308 6.26125 6.2692 6.54827 5.75716 7.05933L4.71996 8.09654C3.04192 9.7745 2.70842 15.7082 9.45425 22.4541ZM6.46423 7.7664C6.78865 7.44272 7.22821 7.26093 7.68648 7.26093C8.14476 7.26093 8.58432 7.44272 8.90873 7.7664L11.3415 10.1992C11.6738 10.5262 11.868 10.9683 11.884 11.4342C11.9001 11.9002 11.7368 12.3546 11.4277 12.7037L10.046 14.0841C9.33957 14.7905 10.316 17.659 12.2826 19.6256C14.2493 21.5923 17.1205 22.5659 17.8283 21.8581L19.199 20.4874C19.5185 20.1656 19.9526 19.9837 20.4061 19.9815C20.8595 19.9793 21.2954 20.157 21.618 20.4757L24.1419 22.9996C24.4656 23.324 24.6474 23.7636 24.6474 24.2218C24.6474 24.6801 24.4656 25.1197 24.1419 25.4441L23.1047 26.4813C21.897 27.689 16.4569 28.0426 10.1613 21.747C3.86573 15.4514 4.21928 10.0114 5.42703 8.80361L6.46423 7.7664Z" fill="#0F0F0F"/>
</svg>
