<svg width="32" height="32" viewBox="0 0 32 32" fill="none" xmlns="http://www.w3.org/2000/svg">
<path d="M24.2115 19.5156C23.8847 19.1894 23.4968 18.9307 23.07 18.7544C22.6433 18.5782 22.1859 18.4877 21.7242 18.4883C21.2624 18.4888 20.8053 18.5803 20.3789 18.7576C19.9526 18.9349 19.5653 19.1944 19.2393 19.5214C19.2393 19.5214 18.0825 20.7003 17.5676 21.2197C15.7858 21.1461 14.097 20.4047 12.8368 19.143C11.5767 17.8812 10.8375 16.1914 10.7663 14.4095C11.2861 13.894 12.4625 12.7355 12.4683 12.7297C13.1271 12.0699 13.4972 11.1756 13.4972 10.2432C13.4972 9.31086 13.1271 8.41658 12.4683 7.7568L9.71404 4.99874C9.04293 4.35736 8.15037 3.99944 7.22207 3.99944C6.29376 3.99944 5.4012 4.35736 4.73009 4.99874L3.25768 6.4731C1.24987 8.48263 0.762321 15.5034 8.61877 23.3702C13.6183 28.3774 18.2759 29.9995 21.5197 29.9995C22.9563 30.0998 24.3772 29.6493 25.4934 28.7393L26.9658 27.265C27.6271 26.6029 27.9985 25.7054 27.9985 24.7697C27.9985 23.834 27.6271 22.9365 26.9658 22.2744L24.2115 19.5156ZM25.551 25.8483L24.0786 27.2855C22.7997 28.5632 16.9432 28.8352 10.0335 21.9163C3.12286 14.9965 3.3945 9.16951 4.6725 7.88985L6.14487 6.44747C6.28617 6.30574 6.45406 6.19328 6.6389 6.11656C6.82375 6.03983 7.02191 6.00033 7.22205 6.00033C7.42219 6.00033 7.62036 6.03983 7.8052 6.11656C7.99004 6.19328 8.15793 6.30574 8.29923 6.44747L11.0536 9.17347C11.3359 9.45637 11.495 9.83944 11.4961 10.2392C11.4972 10.6389 11.3402 11.0228 11.0594 11.3073C11.0594 11.3073 9.5538 12.7894 9.18842 13.1553C7.88501 14.4643 9.65642 18.7915 11.4239 20.5614C12.5854 21.6923 14.0158 22.5088 15.5803 22.9338C16.4909 23.1833 18.1225 23.4973 18.8211 22.7988C19.1846 22.4349 20.6599 20.9331 20.6599 20.9321C20.9436 20.6493 21.3278 20.4905 21.7283 20.4905C22.1289 20.4905 22.5131 20.6493 22.7968 20.9321L25.551 23.6911C25.8369 23.9773 25.9976 24.3652 25.9976 24.7697C25.9976 25.1743 25.8369 25.5622 25.551 25.8483Z" fill="#0F0F0F"/>
<path d="M29.5911 5.80953C29.4852 5.73182 29.3651 5.67575 29.2375 5.64453C29.1099 5.61331 28.9774 5.60756 28.8476 5.62761C28.7178 5.64766 28.5933 5.69311 28.481 5.76135C28.3688 5.8296 28.2712 5.91931 28.1937 6.02535L26.4905 8.35235C26.2067 7.07276 25.6705 5.86261 24.9134 4.79267C24.1564 3.72273 23.1936 2.81448 22.0814 2.12102C21.8487 1.99485 21.5756 1.96604 21.3217 2.04092C21.0679 2.1158 20.8541 2.28825 20.7272 2.52048C20.6003 2.75271 20.5706 3.02579 20.6447 3.27985C20.7187 3.53392 20.8905 3.74827 21.1224 3.87591C22.056 4.47812 22.8519 5.27065 23.4581 6.20167C24.0644 7.13268 24.4672 8.1812 24.6403 9.27862L21.4603 7.63277C21.2248 7.51078 20.9506 7.48731 20.6978 7.56753C20.4451 7.64774 20.2346 7.82507 20.1126 8.0605C19.9906 8.29594 19.9671 8.57018 20.0474 8.82292C20.1276 9.07565 20.3049 9.28617 20.5403 9.40816L25.3333 11.8886C25.5452 11.9979 25.7891 12.028 26.0211 11.9734C26.2532 11.9188 26.4581 11.7831 26.599 11.5908L29.807 7.20699C29.9636 6.99304 30.0289 6.72563 29.9884 6.46356C29.9479 6.2015 29.805 5.96624 29.5911 5.80953Z" fill="#0F0F0F"/>
</svg>
