<svg width="32" height="32" viewBox="0 0 32 32" fill="none" xmlns="http://www.w3.org/2000/svg">
<path d="M8.24316 27.8486H23.7441C26.2197 27.8486 27.4893 26.5791 27.4893 24.1416V8.57715C27.4893 6.12695 26.2197 4.85742 23.7441 4.85742H8.24316C5.76758 4.85742 4.49805 6.11426 4.49805 8.57715V24.1416C4.49805 26.5918 5.76758 27.8486 8.24316 27.8486ZM15.8223 19.0508C15.3018 19.0508 14.9971 18.7588 14.9971 18.2383V17.9336C14.9971 16.7148 15.5938 16.0166 16.6221 15.3057C17.8535 14.4678 18.3613 13.96 18.3613 13.0459C18.3613 11.9668 17.4854 11.1924 16.1143 11.1924C14.9717 11.1924 14.1465 11.8652 13.8799 12.8047C13.6006 13.2109 13.4736 13.5156 12.8896 13.5156C12.5342 13.5156 12.166 13.2617 12.166 12.792C12.166 12.5889 12.2041 12.3984 12.2549 12.1953C12.5342 10.9131 13.9814 9.7832 16.1777 9.7832C18.3613 9.7832 20.1387 10.9639 20.1387 12.957C20.1387 14.417 19.3516 15.166 18.0312 16.0928C17.0664 16.7656 16.6348 17.2354 16.6348 18.0225V18.3018C16.6348 18.7207 16.3301 19.0508 15.8223 19.0508ZM15.8604 22.7451C15.2002 22.7451 14.6162 22.2119 14.6162 21.5391C14.6162 20.8535 15.2002 20.3203 15.8604 20.3203C16.5205 20.3203 17.1045 20.8408 17.1045 21.5391C17.1045 22.2246 16.5078 22.7451 15.8604 22.7451Z" fill="black"/>
</svg>
