<svg width="32" height="32" viewBox="0 0 32 32" fill="none" xmlns="http://www.w3.org/2000/svg">
<path d="M5.74023 6.55896C5.74023 4.86951 7.10983 3.5 8.79926 3.5C10.0955 3.5 11.2034 4.3062 11.6489 5.44456C9.94139 6.24026 8.75781 7.97187 8.75781 9.97998C8.75781 10.8124 8.96117 11.5972 9.32091 12.2876C9.04327 12.4792 8.77753 12.6906 8.52589 12.921C7.53666 13.8266 6.82051 14.9752 6.43788 16.2374C6.02401 16.142 5.62914 16.0179 5.27143 15.8595C4.30687 15.4325 3.5 14.6946 3.5 13.5179C3.5 13.5103 3.50017 13.5027 3.50052 13.4951C3.56239 12.144 4.15684 10.8724 5.15384 9.95851C5.65339 9.50059 6.23363 9.15113 6.85829 8.9234C6.17564 8.36239 5.74023 7.51153 5.74023 6.55896Z" fill="black"/>
<path d="M13.7589 6.479C11.8253 6.479 10.2578 8.04642 10.2578 9.97998C10.2578 11.1252 10.8077 12.1419 11.6577 12.7806C10.8792 13.0407 10.1558 13.4625 9.53878 14.0274C8.38546 15.0832 7.69754 16.553 7.62553 18.115C7.62518 18.1226 7.625 18.1303 7.625 18.138C7.625 19.4821 8.58384 20.3206 9.72367 20.809C10.1924 21.0098 10.7142 21.1631 11.259 21.2772C11.9934 19.6639 13.2367 18.3257 14.7755 17.4057C14.1148 16.4384 13.7285 15.2688 13.7285 14.009C13.7285 11.6739 15.0558 9.6488 16.9971 8.64701C16.4728 7.37463 15.2204 6.479 13.7589 6.479Z" fill="black"/>
<path d="M15.2285 14.009C15.2285 11.5072 17.2566 9.479 19.7585 9.479C22.2603 9.479 24.2885 11.5072 24.2885 14.009C24.2885 15.647 23.4192 17.0818 22.1168 17.8775C25.2116 18.791 27.4863 21.4551 27.4863 24.6559C27.4863 26.09 26.3214 27.0488 24.9177 27.626C23.4836 28.2157 21.607 28.4994 19.7583 28.4994C17.9096 28.4994 16.033 28.2157 14.5989 27.626C13.1951 27.0488 12.0303 26.09 12.0303 24.6559C12.0303 21.455 14.3051 18.7909 17.4001 17.8774C16.0977 17.0817 15.2285 15.6469 15.2285 14.009Z" fill="black"/>
</svg>
