<svg width="32" height="32" viewBox="0 0 32 32" fill="none" xmlns="http://www.w3.org/2000/svg">
<path d="M6.00028 8.75744C5.52421 8.1522 5.24023 7.38875 5.24023 6.55896C5.24023 4.59335 6.8337 3 8.79926 3C10.6561 3 12.1809 4.42196 12.3439 6.23642C12.7838 6.07005 13.2607 5.979 13.7589 5.979C15.7748 5.979 17.4426 7.47001 17.7195 9.40946C18.3427 9.13275 19.0326 8.979 19.7585 8.979C22.5365 8.979 24.7885 11.231 24.7885 14.009C24.7885 15.4777 24.1591 16.7993 23.1553 17.7188C25.9763 18.9042 27.9863 21.524 27.9863 24.6559C27.9863 26.4096 26.5601 27.4913 25.1078 28.0884C23.5949 28.7105 21.6486 28.9994 19.7583 28.9994C17.8679 28.9994 15.9216 28.7105 14.4087 28.0884C12.9565 27.4913 11.5303 26.4096 11.5303 24.6559C11.5303 23.6865 11.7228 22.7662 12.0724 21.9222C11.181 21.8032 10.294 21.5973 9.52675 21.2685C8.30869 20.7466 7.125 19.7762 7.125 18.138C7.125 18.1226 7.12535 18.1073 7.12606 18.0919C7.14476 17.6864 7.20173 17.2866 7.29474 16.8973C6.51502 16.7949 5.73918 16.6134 5.06901 16.3167C4.01649 15.8507 3 14.9773 3 13.5179C3 13.5027 3.00035 13.4874 3.00105 13.4722C3.06896 11.9891 3.72152 10.5932 4.81597 9.58994C5.17627 9.25966 5.57481 8.98079 6.00028 8.75744ZM7.24023 6.55896C7.24023 7.38606 7.88436 8.06273 8.69839 8.11471C8.73784 8.11533 8.77732 8.11637 8.81682 8.11782C9.66977 8.10841 10.3583 7.41408 10.3583 6.55896C10.3583 5.69798 9.6603 5 8.79926 5C7.93821 5 7.24023 5.69798 7.24023 6.55896ZM13.2199 20.027C14.0439 19.0337 15.1248 18.2383 16.3616 17.7187C15.3761 16.8158 14.7515 15.5255 14.7291 14.0889C14.4047 14.025 14.0749 13.9888 13.7434 13.9809C13.6836 13.9807 13.624 13.9792 13.5648 13.9763C12.4522 13.9676 11.3751 14.3799 10.5517 15.1337C9.69731 15.9159 9.18519 17.0024 9.12519 18.1585C9.13357 18.6129 9.42272 19.0481 10.3144 19.4302C11.094 19.7642 12.1373 19.9552 13.2199 20.027ZM8.10481 14.9717C8.40736 14.4911 8.77495 14.0488 9.20115 13.6586C9.66649 13.2326 10.1876 12.8816 10.7458 12.6125C10.1807 11.9662 9.8201 11.1365 9.76515 10.2243C9.44472 10.1594 9.11857 10.1237 8.79069 10.1179C8.7377 10.1178 8.68499 10.1165 8.63257 10.1141C7.72202 10.1084 6.84097 10.4468 6.16742 11.0642C5.46913 11.7043 5.05025 12.5927 5.00022 13.538C5.00744 13.8601 5.19222 14.184 5.87871 14.4879C6.46228 14.7463 7.25092 14.9042 8.10481 14.9717ZM13.7754 11.9809C14.8729 11.972 15.7598 11.0796 15.7598 9.97998C15.7598 8.87486 14.864 7.979 13.7589 7.979C12.6537 7.979 11.7578 8.87489 11.7578 9.97998C11.7578 11.0425 12.586 11.9116 13.6321 11.977C13.6798 11.9778 13.7276 11.9791 13.7754 11.9809ZM19.7585 10.979C18.0851 10.979 16.7285 12.3356 16.7285 14.009C16.7285 15.6824 18.085 17.0389 19.7585 17.0389C21.4319 17.0389 22.7885 15.6824 22.7885 14.009C22.7885 12.3356 21.4319 10.979 19.7585 10.979ZM13.5303 24.6559C13.5303 25.1313 13.9111 25.7213 15.1693 26.2387C16.3669 26.7311 18.0346 26.9994 19.7583 26.9994C21.4819 26.9994 23.1496 26.7311 24.3472 26.2387C25.6055 25.7213 25.9863 25.1313 25.9863 24.6559C25.9863 21.6346 23.283 19.0389 19.7583 19.0389C16.2336 19.0389 13.5303 21.6346 13.5303 24.6559Z" fill="#0F0F0F"/>
</svg>
