<svg width="32" height="32" viewBox="0 0 32 32" fill="none" xmlns="http://www.w3.org/2000/svg">
<path d="M5.43457 4.19877C5.43457 5.36738 6.34625 6.32306 7.49722 6.3934C7.54892 6.39416 7.60066 6.39552 7.65245 6.39747C8.85809 6.38725 9.83227 5.40677 9.83227 4.19877C9.83227 2.98443 8.84783 2 7.63342 2C6.41901 2 5.43457 2.98443 5.43457 4.19877ZM4.53198 7.02921C3.85033 6.28274 3.43457 5.28932 3.43457 4.19877C3.43457 1.8798 5.31451 0 7.63342 0C9.94094 0 11.8138 1.86137 11.8321 4.16462C12.4404 3.88176 13.1184 3.72384 13.8334 3.72384C16.3448 3.72384 18.4011 5.67229 18.5731 8.13998C19.4001 7.71425 20.3383 7.47392 21.3325 7.47392C24.667 7.47392 27.3702 10.1771 27.3702 13.5116C27.3702 15.4199 26.4848 17.1213 25.1025 18.2277C28.7449 19.5935 31.3683 22.8822 31.3683 26.8205C31.3683 28.8528 29.7162 30.1435 27.925 30.88C26.0733 31.6414 23.6752 32 21.3331 32C18.9909 32 16.5928 31.6414 14.7411 30.88C12.9499 30.1435 11.2979 28.8528 11.2979 26.8205C11.2979 25.5275 11.5806 24.3045 12.0895 23.1965C10.881 23.0581 9.66934 22.7967 8.64172 22.3564C7.15822 21.7207 5.79102 20.5737 5.79102 18.6729C5.79102 18.6575 5.79137 18.6422 5.79208 18.6268C5.81909 18.0408 5.91212 17.4647 6.06654 16.9083C5.01475 16.7904 3.9625 16.5618 3.07228 16.1676C1.80058 15.6046 0.634766 14.5806 0.634766 12.8977C0.634766 12.8825 0.635115 12.8672 0.635812 12.852C0.71768 11.064 1.50434 9.38131 2.82371 8.17189C3.33638 7.70194 3.91326 7.31832 4.53198 7.02921ZM13.2728 21.2918C14.3675 19.9345 15.8529 18.8693 17.5629 18.228C16.1804 17.1216 15.2949 15.42 15.2949 13.5116C15.2949 13.4772 15.2952 13.4428 15.2958 13.4085C14.8109 13.2992 14.3157 13.2381 13.8175 13.2264C13.744 13.2262 13.6708 13.2243 13.5981 13.2207C12.1424 13.208 10.7328 13.7469 9.65558 14.7331C8.53708 15.7571 7.86747 17.1803 7.79115 18.6942C7.80025 19.4093 8.27029 20.0213 9.42941 20.518C10.4708 20.9642 11.8582 21.2079 13.2728 21.2918ZM6.89893 14.9754C7.27958 14.3441 7.75151 13.7647 8.30506 13.2579C8.95451 12.6633 9.69362 12.1895 10.4878 11.8489C9.64216 11.0103 9.11007 9.85592 9.08311 8.57727C8.60572 8.46644 8.11733 8.40605 7.62597 8.39754C7.56085 8.39743 7.49608 8.39583 7.43168 8.39279C6.22889 8.38415 5.0648 8.83069 4.17516 9.6462C3.25174 10.4927 2.69871 11.6682 2.63492 12.9186C2.64312 13.4621 2.97369 13.9367 3.88198 14.3389C4.68157 14.6929 5.75759 14.8971 6.89893 14.9754ZM13.8501 11.2264C15.362 11.2174 16.5847 9.98909 16.5847 8.47515C16.5847 6.95563 15.3529 5.72384 13.8334 5.72384C12.3139 5.72384 11.082 6.95565 11.082 8.47515C11.082 9.93817 12.224 11.1345 13.6652 11.2214C13.7268 11.2223 13.7884 11.224 13.8501 11.2264ZM21.3325 9.47392C19.1026 9.47392 17.2949 11.2816 17.2949 13.5116C17.2949 15.7415 19.1026 17.5491 21.3325 17.5491C23.5625 17.5491 25.3702 15.7414 25.3702 13.5116C25.3702 11.2817 23.5624 9.47392 21.3325 9.47392ZM13.2979 26.8205C13.2979 27.5746 13.9046 28.3736 15.5016 29.0303C17.0381 29.662 19.1576 30 21.3331 30C23.5085 30 25.628 29.662 27.1645 29.0303C28.7616 28.3736 29.3683 27.5746 29.3683 26.8205C29.3683 22.8853 25.8559 19.5491 21.3331 19.5491C16.8102 19.5491 13.2979 22.8853 13.2979 26.8205Z" fill="#0F0F0F"/>
</svg>
