<svg width="32" height="32" viewBox="0 0 32 32" fill="none" xmlns="http://www.w3.org/2000/svg">
<path d="M6.40176 8.83964C5.83693 8.24609 5.49023 7.44302 5.49023 6.55896C5.49023 4.73143 6.97177 3.25 8.79926 3.25C10.6267 3.25 12.1083 4.73143 12.1083 6.55896C12.1083 6.57632 12.1081 6.59364 12.1079 6.61093C12.6061 6.36635 13.1664 6.229 13.7589 6.229C15.7676 6.229 17.4075 7.80791 17.5052 9.79236C18.1765 9.43286 18.9437 9.229 19.7585 9.229C22.3984 9.229 24.5385 11.3691 24.5385 14.009C24.5385 15.5519 23.8076 16.9239 22.6731 17.7979C25.6128 18.8647 27.7363 21.4994 27.7363 24.6559C27.7363 26.2498 26.4407 27.2701 25.0127 27.8572C23.5392 28.4631 21.6278 28.7494 19.7583 28.7494C17.8887 28.7494 15.9773 28.4631 14.5038 27.8572C13.0758 27.2701 11.7803 26.2498 11.7803 24.6559C11.7803 23.6049 12.0157 22.6116 12.4384 21.7149C11.4522 21.6067 10.4612 21.397 9.62521 21.0387C8.44626 20.5336 7.375 19.6292 7.375 18.138C7.375 18.1265 7.37527 18.1149 7.3758 18.1034C7.39815 17.6185 7.47747 17.1421 7.60959 16.6831C6.75217 16.5912 5.89302 16.4081 5.17022 16.0881C4.16168 15.6416 3.25 14.8359 3.25 13.5179C3.25 13.5065 3.25026 13.4951 3.25078 13.4836C3.31567 12.0665 3.93918 10.7328 4.98491 9.77423C5.40857 9.38587 5.88756 9.07189 6.40176 8.83964ZM6.99023 6.55896C6.99023 7.52085 7.74101 8.3074 8.68857 8.36459C8.73012 8.3652 8.77171 8.36629 8.81333 8.36787C9.80595 8.36031 10.6083 7.55333 10.6083 6.55896C10.6083 5.5599 9.79836 4.75 8.79926 4.75C7.80015 4.75 6.99023 5.5599 6.99023 6.55896ZM13.3331 20.2845C14.2223 19.174 15.44 18.3071 16.8438 17.7978C15.7094 16.9238 14.9785 15.5518 14.9785 14.009C14.9785 13.9683 14.979 13.9276 14.98 13.8871C14.576 13.7931 14.1628 13.7407 13.7471 13.7309C13.6884 13.7308 13.6301 13.7292 13.5722 13.7264C12.3946 13.7158 11.2543 14.1516 10.3828 14.9493C9.47798 15.7777 8.93642 16.9293 8.87509 18.154C8.88203 18.7557 9.28003 19.2589 10.216 19.66C11.0627 20.0228 12.1895 20.2186 13.3331 20.2845ZM8.23847 15.232C8.54322 14.7209 8.92307 14.2521 9.36996 13.843C9.90416 13.3539 10.5148 12.9678 11.1714 12.6957C10.4639 12.0215 10.0196 11.0737 10.008 10.022C9.61041 9.92676 9.20307 9.87497 8.79316 9.86791C8.74162 9.86782 8.69036 9.86655 8.6394 9.86413C7.664 9.85672 6.71991 10.2187 5.99849 10.88C5.24969 11.5664 4.8014 12.5197 4.75011 13.5337C4.7564 13.9969 5.04116 14.3905 5.77749 14.7165C6.43156 15.0061 7.31082 15.1707 8.23847 15.232ZM13.7714 12.2309C15.0088 12.2242 16.0098 11.219 16.0098 9.97998C16.0098 8.73679 15.002 7.729 13.7589 7.729C12.5156 7.729 11.5078 8.73681 11.5078 9.97998C11.5078 11.1773 12.4427 12.1564 13.6224 12.2269C13.672 12.2276 13.7217 12.229 13.7714 12.2309ZM19.7585 10.729C17.947 10.729 16.4785 12.1975 16.4785 14.009C16.4785 15.8205 17.947 17.2889 19.7585 17.2889C21.57 17.2889 23.0385 15.8205 23.0385 14.009C23.0385 12.1975 21.57 10.729 19.7585 10.729ZM13.2803 24.6559C13.2803 25.2911 13.7918 25.9426 15.0742 26.4699C16.3112 26.9785 18.0138 27.2494 19.7583 27.2494C21.5027 27.2494 23.2053 26.9785 24.4423 26.4699C25.7248 25.9426 26.2363 25.2911 26.2363 24.6559C26.2363 21.4762 23.3998 18.7889 19.7583 18.7889C16.1168 18.7889 13.2803 21.4762 13.2803 24.6559Z" fill="black"/>
</svg>
