<svg width="32" height="32" viewBox="0 0 32 32" fill="none" xmlns="http://www.w3.org/2000/svg">
<path d="M4.96803 7.11237C4.17924 6.39041 3.68457 5.35237 3.68457 4.19877C3.68457 2.01788 5.45257 0.25 7.63342 0.25C9.81427 0.25 11.5823 2.01788 11.5823 4.19877C11.5823 4.32987 11.5759 4.45947 11.5634 4.58729C12.2298 4.19734 13.0055 3.97384 13.8334 3.97384C16.3194 3.97384 18.3347 5.98913 18.3347 8.47515C18.3347 8.50359 18.3345 8.53198 18.3339 8.5603C19.2084 8.02953 20.2348 7.72393 21.3325 7.72393C24.5289 7.72393 27.1202 10.3152 27.1202 13.5116C27.1202 15.5071 26.1102 17.2667 24.5736 18.3072C28.3577 19.5326 31.1183 22.8453 31.1183 26.8205C31.1183 28.693 29.5968 29.9223 27.83 30.6488C26.0176 31.394 23.6544 31.75 21.3331 31.75C19.0117 31.75 16.6485 31.394 14.8361 30.6488C13.0693 29.9223 11.5479 28.693 11.5479 26.8205C11.5479 25.4427 11.8795 24.1444 12.4705 22.985C11.1626 22.8607 9.83866 22.5972 8.74018 22.1266C7.29579 21.5077 6.04102 20.4266 6.04102 18.6729C6.04102 18.6614 6.04128 18.6498 6.04181 18.6383C6.0726 17.9705 6.19195 17.316 6.39259 16.6903C5.259 16.5855 4.11716 16.3568 3.17349 15.939C1.94577 15.3954 0.884766 14.4392 0.884766 12.8977C0.884766 12.8863 0.885027 12.8748 0.885551 12.8634C0.964395 11.1415 1.722 9.52093 2.99264 8.35618C3.57651 7.82097 4.24686 7.40202 4.96803 7.11237ZM5.18457 4.19877C5.18457 5.50233 6.20315 6.56799 7.48786 6.64329C7.54136 6.64404 7.59492 6.64544 7.64852 6.6475C8.99404 6.63938 10.0823 5.54616 10.0823 4.19877C10.0823 2.84635 8.98589 1.75 7.63342 1.75C6.28095 1.75 5.18457 2.84635 5.18457 4.19877ZM13.3886 21.5487C14.5524 20.0628 16.1932 18.9224 18.0918 18.3074C16.555 17.2669 15.5449 15.5072 15.5449 13.5116C15.5449 13.4114 15.5475 13.3118 15.5525 13.2129C14.9866 13.0694 14.4058 12.99 13.8209 12.9764C13.7487 12.9762 13.6769 12.9743 13.6055 12.9708C12.0848 12.9561 10.612 13.5185 9.48676 14.5487C8.31785 15.6188 7.61883 17.1069 7.54108 18.6893C7.54833 19.5528 8.12884 20.2327 9.33095 20.7478C10.4414 21.2236 11.9143 21.4714 13.3886 21.5487ZM7.03632 15.2347C7.41733 14.573 7.90033 13.9674 8.47388 13.4423C9.20094 12.7767 10.0441 12.2674 10.9516 11.9332C9.96186 11.1076 9.33203 9.86491 9.33203 8.47515C9.33203 8.44384 9.33236 8.41261 9.33299 8.38146C8.77667 8.23604 8.20435 8.15735 7.6281 8.14754C7.56466 8.14746 7.50156 8.14588 7.43885 8.14284C6.17108 8.13238 4.94383 8.60244 4.00623 9.46191C3.03242 10.3546 2.45001 11.5949 2.38484 12.9139C2.39152 13.5998 2.8244 14.144 3.78077 14.5675C4.65346 14.9538 5.82285 15.1635 7.03632 15.2347ZM13.8459 11.4764C15.4977 11.4697 16.8347 10.1286 16.8347 8.47515C16.8347 6.81755 15.491 5.47384 13.8334 5.47384C12.1758 5.47384 10.832 6.81757 10.832 8.47515C10.832 10.0731 12.0809 11.3794 13.6558 11.4713C13.7191 11.4722 13.7825 11.4739 13.8459 11.4764ZM21.3325 9.22393C18.9645 9.22393 17.0449 11.1436 17.0449 13.5116C17.0449 15.8795 18.9645 17.7991 21.3325 17.7991C23.7005 17.7991 25.6202 15.8795 25.6202 13.5116C25.6202 11.1436 23.7005 9.22393 21.3325 9.22393ZM13.0479 26.8205C13.0479 27.7344 13.7852 28.5948 15.4066 29.2615C16.9824 29.9094 19.1368 30.25 21.3331 30.25C23.5293 30.25 25.6837 29.9094 27.2595 29.2615C28.8809 28.5948 29.6183 27.7344 29.6183 26.8205C29.6183 22.7269 25.9727 19.2991 21.3331 19.2991C16.6934 19.2991 13.0479 22.7269 13.0479 26.8205Z" fill="#0F0F0F"/>
</svg>
