<svg width="32" height="32" viewBox="0 0 32 32" fill="none" xmlns="http://www.w3.org/2000/svg">
<path d="M5.74023 6.55896C5.74023 4.86951 7.10983 3.5 8.79926 3.5C9.91735 3.5 10.8954 4.09985 11.429 4.99532C9.55556 5.87246 8.25781 7.77463 8.25781 9.97998C8.25781 10.7419 8.41311 11.4677 8.69313 12.1273C8.51965 12.2613 8.35119 12.403 8.18826 12.5522C7.12779 13.5231 6.36132 14.7554 5.95418 16.1096C5.71576 16.0379 5.48686 15.9549 5.27143 15.8595C4.30687 15.4325 3.5 14.6946 3.5 13.5179C3.5 13.5103 3.50017 13.5027 3.50052 13.4951C3.56239 12.144 4.15684 10.8724 5.15384 9.95851C5.65339 9.50059 6.23363 9.15113 6.85829 8.9234C6.17564 8.36239 5.74023 7.51153 5.74023 6.55896Z" fill="#0F0F0F"/>
<path d="M17.0346 9.76361C16.531 10.3738 16.2285 11.1561 16.2285 12.009C16.2285 13.9586 17.8089 15.5389 19.7585 15.5389C19.8397 15.5389 19.9202 15.5362 20 15.5308C21.8369 15.4067 23.2885 13.8774 23.2885 12.009C23.2885 10.0595 21.708 8.479 19.7585 8.479C18.7686 8.479 17.8738 8.8865 17.2328 9.54289C17.1637 9.61364 17.0976 9.68728 17.0346 9.76361Z" fill="#0F0F0F"/>
<path d="M12.0303 24.6559C12.0303 20.6841 15.5327 17.5389 19.7583 17.5389C23.9839 17.5389 27.4863 20.6841 27.4863 24.6559C27.4863 26.09 26.3214 27.0488 24.9177 27.626C23.4836 28.2157 21.607 28.4994 19.7583 28.4994C17.9096 28.4994 16.033 28.2157 14.5989 27.626C13.1951 27.0488 12.0303 26.09 12.0303 24.6559Z" fill="#0F0F0F"/>
<path d="M10.2578 9.97998C10.2578 8.04642 11.8253 6.479 13.7589 6.479C14.7939 6.479 15.7241 6.9282 16.3651 7.64229C15.0649 8.65415 14.2285 10.2339 14.2285 12.009C14.2285 13.6818 14.9712 15.181 16.1448 16.195C13.7517 17.0949 11.7743 18.865 10.7618 21.1601C10.397 21.0639 10.0476 20.9478 9.72367 20.809C8.58384 20.3206 7.625 19.4821 7.625 18.138C7.625 18.1303 7.62518 18.1226 7.62553 18.115C7.69754 16.553 8.38546 15.0832 9.53878 14.0274C10.1558 13.4625 10.8792 13.0407 11.6577 12.7806C10.8077 12.1419 10.2578 11.1252 10.2578 9.97998Z" fill="#0F0F0F"/>
</svg>
