<svg width="32" height="32" viewBox="0 0 32 32" fill="none" xmlns="http://www.w3.org/2000/svg">
<path d="M16.0012 3.75C16.2 3.75 16.3905 3.82895 16.5311 3.96952C16.6716 4.11009 16.7506 4.30081 16.7506 4.49971V12.9981C16.7506 13.4123 17.0864 13.7481 17.5006 13.7481C17.9148 13.7481 18.2506 13.4123 18.2506 12.9981V5.49952C18.2506 5.30061 18.3296 5.1099 18.4702 4.96932C18.6107 4.82876 18.8013 4.74981 19 4.74981C19.1987 4.74981 19.3893 4.82876 19.5298 4.96932C19.6704 5.1099 19.7494 5.30061 19.7494 5.49952V16.3188C18.7692 16.478 17.8564 16.9411 17.1455 17.6522C16.2563 18.5415 15.7551 19.7465 15.751 21.0041C15.7497 21.4183 16.0844 21.7552 16.4986 21.7565C16.9128 21.7579 17.2497 21.4232 17.251 21.009C17.2538 20.1473 17.5972 19.3219 18.2062 18.7127C18.8153 18.1035 19.6405 17.7601 20.5018 17.7573C20.9151 17.756 21.2494 17.4206 21.2494 17.0073V14.5678C21.2494 13.7031 21.3744 13.0242 21.5964 12.5536C21.8073 12.1064 22.0886 11.873 22.4507 11.7855L22.4555 11.7843C22.5615 11.758 22.6272 11.7558 22.6608 11.7575C22.6752 11.7583 22.6849 11.7598 22.6906 11.761C22.693 11.7636 22.6971 11.768 22.7048 11.7764C22.7069 11.781 22.7095 11.7874 22.7126 11.7958C22.7257 11.8324 22.7439 11.903 22.746 12.0127C22.7494 12.1898 22.75 13.43 22.7497 14.6426C22.7495 15.2452 22.7491 15.8362 22.7488 16.2766L22.7481 21.4964C22.7481 23.2868 22.0368 25.0082 20.7719 26.2734C19.5066 27.539 17.7906 28.25 16.0012 28.25C14.2119 28.25 12.4958 27.539 11.2305 26.2734C9.96518 25.0078 9.25215 23.2863 9.25215 21.4964L9.25217 19.9967C9.25217 19.9896 9.25207 19.9825 9.25187 19.9753C9.25187 19.9753 9.25186 19.9744 9.25184 19.9717C9.25177 19.962 9.25155 19.9323 9.25134 19.8746L9.25074 19.5949C9.2504 19.3578 9.25018 19.0246 9.25007 18.6183C9.24984 17.8058 9.24999 16.7022 9.25031 15.4947C9.25053 14.6481 9.25083 13.7503 9.25112 12.866C9.25166 11.2277 9.25219 9.6353 9.25219 8.49894C9.25219 8.30283 9.33139 8.11131 9.47391 7.96875C9.61445 7.82818 9.80504 7.74923 10.0037 7.74923C10.2025 7.74923 10.3931 7.82818 10.5336 7.96875C10.6741 8.10932 10.7531 8.30003 10.7531 8.49894V14.9977C10.7531 15.4119 11.0889 15.7477 11.5031 15.7477C11.9173 15.7477 12.2531 15.4119 12.2531 14.9977V5.49952C12.2531 5.30061 12.3321 5.1099 12.4727 4.96932C12.6132 4.82876 12.8038 4.74981 13.0025 4.74981C13.2012 4.74981 13.3918 4.82876 13.5323 4.96932C13.6729 5.1099 13.7519 5.30061 13.7519 5.49952V12.9981C13.7519 13.4123 14.0877 13.7481 14.5019 13.7481C14.9161 13.7481 15.2519 13.4123 15.2519 12.9981V4.49971C15.2519 4.30081 15.3309 4.11009 15.4714 3.96952C15.6119 3.82895 15.8025 3.75 16.0012 3.75ZM18.0068 3.48098C17.9005 3.27156 17.761 3.07818 17.5919 2.90898C17.17 2.48704 16.5979 2.25 16.0012 2.25C15.4046 2.25 14.8325 2.48704 14.4106 2.90898C14.2415 3.07818 14.102 3.27156 13.9957 3.48098C13.6895 3.33031 13.3502 3.24981 13.0025 3.24981C12.4059 3.24981 11.8337 3.48685 11.4119 3.90878C10.9901 4.33071 10.7531 4.90293 10.7531 5.49952V6.37774C10.5147 6.29347 10.2615 6.24923 10.0037 6.24923C9.40714 6.24923 8.83497 6.48627 8.41313 6.90821C7.99329 7.32815 7.75219 7.89956 7.75219 8.49894C7.75219 9.59928 7.75168 11.1345 7.75115 12.7261C7.75004 16.0761 7.74885 19.6761 7.75217 19.9983L7.75215 21.4964C7.75215 23.6841 8.62318 25.7871 10.1697 27.334C11.7163 28.8809 13.814 29.75 16.0012 29.75C18.1885 29.75 20.2861 28.8809 21.8326 27.334C23.3796 25.7867 24.2481 23.6835 24.2481 21.4964L24.2488 16.2778C24.2491 15.8373 24.2495 15.246 24.2497 14.6431C24.25 13.4445 24.2495 12.1802 24.2458 11.9839C24.2358 11.468 24.0703 11.0443 23.8267 10.7804C23.8241 10.7775 23.8208 10.7738 23.8168 10.7694C23.7626 10.7091 23.5845 10.5106 23.2848 10.3827C22.954 10.2415 22.5572 10.2139 22.0962 10.328C21.7784 10.405 21.4967 10.5314 21.2494 10.6973V5.49952C21.2494 4.90293 21.0124 4.33071 20.5906 3.90878C20.1688 3.48685 19.5966 3.24981 19 3.24981C18.6523 3.24981 18.313 3.33031 18.0068 3.48098Z" fill="#0F0F0F"/>
</svg>
