<svg width="32" height="32" viewBox="0 0 32 32" fill="none" xmlns="http://www.w3.org/2000/svg">
<path d="M16.0013 3.5C16.2663 3.5 16.5205 3.6053 16.7079 3.79276C16.8953 3.98023 17.0006 4.23452 17.0006 4.49971V12.9981C17.0006 13.2742 17.2245 13.4981 17.5006 13.4981C17.7768 13.4981 18.0006 13.2742 18.0006 12.9981V5.49952C18.0006 5.23433 18.106 4.98003 18.2934 4.79257C18.4808 4.60511 18.735 4.49981 19 4.49981C19.265 4.49981 19.5192 4.60511 19.7066 4.79257C19.8941 4.98003 19.9994 5.23433 19.9994 5.49952V16.5365C18.9915 16.6519 18.0464 17.1046 17.3223 17.8289C16.4798 18.6716 16.0049 19.8133 16.0011 21.0049C16.0002 21.2811 16.2233 21.5056 16.4994 21.5065C16.7756 21.5074 17.0002 21.2843 17.001 21.0082C17.004 20.0805 17.3737 19.1918 18.0294 18.536C18.6852 17.8801 19.5737 17.5103 20.501 17.5073C20.7765 17.5064 20.9994 17.2828 20.9994 17.0073V14.5678C20.9994 13.6839 21.1265 12.9638 21.3703 12.4469C21.6067 11.9457 21.9422 11.6511 22.392 11.5425L22.3952 11.5417C22.6436 11.48 22.7565 11.5163 22.7941 11.5323C22.8365 11.5504 22.8545 11.57 22.9027 11.6223L22.9082 11.6282L22.9087 11.6293C22.9175 11.6425 22.9911 11.7546 22.996 12.0079C22.9995 12.1882 23.0001 13.4324 22.9997 14.6427C22.9995 15.2454 22.9991 15.8364 22.9988 16.2768L22.9981 21.4964C22.9981 23.3529 22.2606 25.138 20.9487 26.4502C19.6365 27.7627 17.8569 28.5 16.0013 28.5C14.1456 28.5 12.3659 27.7627 11.0537 26.4502C9.74153 25.1377 9.00217 23.3526 9.00217 21.4964L9.00219 19.9967L9.00198 19.9825L9.00197 19.9813C9.00194 19.9785 9.00184 19.9705 9.00173 19.9549L9.00136 19.8755L9.00075 19.5953C9.00041 19.3581 9.0002 19.0247 9.00008 18.6183C8.99985 17.8057 9.00001 16.7022 9.00032 15.4946C9.00054 14.6479 9.00084 13.7501 9.00113 12.8657C9.00168 11.2275 9.00221 9.63523 9.0022 8.49894C9.0022 8.23561 9.10838 7.98078 9.29713 7.79199C9.48455 7.60453 9.73874 7.49923 10.0038 7.49923C10.2688 7.49923 10.523 7.60453 10.7104 7.79199C10.8978 7.97946 11.0031 8.23375 11.0031 8.49894V14.9977C11.0031 15.2738 11.227 15.4977 11.5031 15.4977C11.7793 15.4977 12.0031 15.2738 12.0031 14.9977V5.49952C12.0031 5.23433 12.1085 4.98003 12.2959 4.79257C12.4833 4.60511 12.7375 4.49981 13.0025 4.49981C13.2675 4.49981 13.5217 4.60511 13.7091 4.79257C13.8966 4.98003 14.0019 5.23433 14.0019 5.49952V12.9981C14.0019 13.2742 14.2257 13.4981 14.5019 13.4981C14.778 13.4981 15.0019 13.2742 15.0019 12.9981V4.49971C15.0019 4.23452 15.1072 3.98023 15.2946 3.79276C15.482 3.6053 15.7362 3.5 16.0013 3.5ZM17.8879 3.83768C17.7896 3.55738 17.6291 3.2998 17.4151 3.08573C17.0401 2.71069 16.5316 2.5 16.0013 2.5C15.471 2.5 14.9624 2.71069 14.5874 3.08573C14.3734 3.2998 14.213 3.55738 14.1146 3.83768C13.788 3.61901 13.4014 3.49981 13.0025 3.49981C12.4722 3.49981 11.9636 3.7105 11.5887 4.08554C11.2137 4.46057 11.0031 4.96921 11.0031 5.49952V6.76694C10.7019 6.59306 10.3576 6.49923 10.0038 6.49923C9.47347 6.49923 8.9649 6.70992 8.58994 7.08496C8.21632 7.45867 8.0022 7.96677 8.0022 8.49894C8.00221 9.61085 8.00169 11.1643 8.00116 12.771C8.00004 16.1397 7.99885 19.7424 8.00219 19.9997L8.00217 21.4964C8.00217 23.6178 8.84686 25.6572 10.3465 27.1572C11.8462 28.6573 13.8803 29.5 16.0013 29.5C18.1222 29.5 20.1562 28.6572 21.6559 27.1572C23.1558 25.657 23.9981 23.6174 23.9981 21.4964L23.9988 16.2776C23.9991 15.8371 23.9995 15.2459 23.9997 14.643C24.0001 13.4421 23.9995 12.1818 23.9958 11.9887C23.9868 11.5203 23.8367 11.1597 23.643 10.9499C23.6401 10.9467 23.6366 10.9429 23.6326 10.9385C23.58 10.8801 23.4339 10.7182 23.1866 10.6126C22.9144 10.4964 22.5743 10.4671 22.1557 10.5708C21.6876 10.6842 21.3045 10.9156 20.9994 11.232V5.49952C20.9994 4.96921 20.7888 4.46058 20.4138 4.08554C20.0389 3.7105 19.5303 3.49981 19 3.49981C18.6011 3.49981 18.2146 3.61901 17.8879 3.83768Z" fill="#0F0F0F"/>
</svg>
