<svg width="32" height="32" viewBox="0 0 32 32" fill="none" xmlns="http://www.w3.org/2000/svg">
<path d="M15.7334 29.0547C20.0117 29.0547 23.0459 26.7314 24.6328 22.2754L26.9307 15.8008C27.4385 14.3535 26.9434 13.1475 25.75 12.7031C24.6582 12.2969 23.5283 12.7666 22.9951 14.0488L21.916 16.7402C21.8906 16.8037 21.8398 16.8291 21.8018 16.8291C21.7383 16.8291 21.7002 16.791 21.7002 16.7275V5.91113C21.7002 4.50195 20.8242 3.63867 19.542 3.63867C19.0215 3.63867 18.5391 3.81641 18.1963 4.18457C18.082 2.91504 17.2949 2.08984 16.0762 2.08984C14.8701 2.08984 14.0322 2.95312 13.9053 4.17188C13.5752 3.81641 13.1182 3.63867 12.6357 3.63867C11.4043 3.63867 10.5791 4.50195 10.5791 5.86035V7.40918C10.2363 7.02832 9.72852 6.83789 9.18262 6.83789C7.96387 6.83789 7.11328 7.73926 7.11328 9.11035V19.876C7.11328 25.7539 10.668 29.0547 15.7334 29.0547ZM15.6826 27.6836C11.3154 27.6836 8.43359 24.916 8.43359 19.749V9.22461C8.43359 8.57715 8.81445 8.13281 9.42383 8.13281C10.0332 8.13281 10.4521 8.57715 10.4521 9.22461V15.6104C10.4521 16.0293 10.7568 16.2705 11.0869 16.2705C11.4424 16.2705 11.7471 16.0293 11.7471 15.6104V6C11.7471 5.35254 12.1152 4.9082 12.7246 4.9082C13.334 4.9082 13.7529 5.35254 13.7529 6V14.9502C13.7529 15.3818 14.0576 15.623 14.3877 15.623C14.7432 15.623 15.0479 15.3818 15.0479 14.9502V4.48926C15.0479 3.8418 15.4668 3.37207 16.0762 3.37207C16.6602 3.37207 17.0664 3.8418 17.0664 4.48926V14.9629C17.0664 15.3311 17.333 15.623 17.7012 15.623C18.0693 15.623 18.3486 15.3311 18.3486 14.9629V6C18.3486 5.35254 18.7676 4.9082 19.377 4.9082C19.9863 4.9082 20.3672 5.35254 20.3672 6V18.3652C20.3672 18.9111 20.7227 19.2666 21.2051 19.2666C21.624 19.2666 21.9668 19.0762 22.1953 18.5303L23.8838 14.6328C24.1504 13.9854 24.6582 13.6807 25.2041 13.8838C25.7754 14.1123 25.9531 14.6582 25.6992 15.3691L23.4014 21.8438C21.9541 25.9062 19.25 27.6836 15.6826 27.6836Z" fill="black"/>
</svg>
