<svg width="32" height="32" viewBox="0 0 32 32" fill="none" xmlns="http://www.w3.org/2000/svg">
<path fill-rule="evenodd" clip-rule="evenodd" d="M16.0012 4C15.8688 4 15.7419 4.0526 15.6482 4.14627C15.5545 4.23996 15.5019 4.36709 15.5019 4.49971V12.9981C15.5019 13.5504 15.0542 13.9981 14.5019 13.9981C13.9496 13.9981 13.5019 13.5504 13.5019 12.9981V5.49952C13.5019 5.36689 13.4492 5.23976 13.3555 5.14608C13.2619 5.05241 13.1349 4.99981 13.0025 4.99981C12.8701 4.99981 12.7431 5.05241 12.6495 5.14608C12.5558 5.23976 12.5031 5.36689 12.5031 5.49952V14.9977C12.5031 15.55 12.0554 15.9977 11.5031 15.9977C10.9508 15.9977 10.5031 15.55 10.5031 14.9977V8.49894C10.5031 8.36632 10.4504 8.23919 10.3568 8.1455C10.2631 8.05183 10.1361 7.99923 10.0037 7.99923C9.87135 7.99923 9.74436 8.05183 9.6507 8.1455C9.5544 8.24183 9.50218 8.37004 9.50218 8.49894C9.50219 9.63541 9.50166 11.228 9.50111 12.8664C9.50082 13.7507 9.50052 14.6483 9.5003 15.4947C9.49999 16.7023 9.49983 17.8058 9.50006 18.6182C9.50018 19.0245 9.50039 19.3576 9.50073 19.5945L9.50134 19.8737C9.50149 19.9174 9.50165 19.9438 9.50174 19.9573C9.5018 19.9674 9.50182 19.9704 9.50176 19.9682C9.50203 19.9777 9.50217 19.9872 9.50217 19.9967L9.50215 21.4965C9.50215 23.22 10.1888 24.878 11.4073 26.0967C12.6257 27.3154 14.2782 28 16.0012 28C17.7242 28 19.3766 27.3154 20.5951 26.0967C21.813 24.8785 22.4981 23.2207 22.4981 21.4964V17.0062L22.4988 16.2764C22.4991 15.836 22.4995 15.2451 22.4997 14.6426C22.5 13.4566 22.4994 12.2504 22.4963 12.0318C22.2277 12.1003 22.0049 12.2734 21.8225 12.6602C21.6224 13.0845 21.4994 13.7223 21.4994 14.5678V17.0073C21.4994 17.5583 21.0536 18.0055 20.5026 18.0073C19.7074 18.0099 18.9454 18.327 18.383 18.8895C17.8207 19.4519 17.5036 20.2141 17.501 21.0098C17.4992 21.5621 17.0501 22.0083 16.4978 22.0065C15.9455 22.0048 15.4993 21.5556 15.501 21.0033C15.5053 19.6797 16.0328 18.4115 16.9686 17.4754C17.6659 16.778 18.5477 16.3072 19.4994 16.1107V5.49952C19.4994 5.36689 19.4467 5.23976 19.353 5.14608C19.2594 5.05241 19.1324 4.99981 19 4.99981C18.8676 4.99981 18.7406 5.05241 18.6469 5.14608C18.5533 5.23976 18.5006 5.36689 18.5006 5.49952V12.9981C18.5006 13.5504 18.0529 13.9981 17.5006 13.9981C16.9483 13.9981 16.5006 13.5504 16.5006 12.9981V4.49971C16.5006 4.36709 16.4479 4.23996 16.3543 4.14627C16.2606 4.0526 16.1336 4 16.0012 4ZM18.113 3.16252C18.0152 3.00803 17.9 2.86357 17.7687 2.73222C17.2999 2.26339 16.6642 2 16.0012 2C15.3383 2 14.7025 2.26339 14.2338 2.73222C14.1025 2.86357 13.9873 3.00803 13.8895 3.16252C13.6088 3.05595 13.3085 2.99981 13.0025 2.99981C12.3396 2.99981 11.7038 3.2632 11.2351 3.73203C10.7664 4.20085 10.5031 4.83665 10.5031 5.49952V6.04962C10.34 6.01635 10.1727 5.99923 10.0037 5.99923C9.34082 5.99923 8.70505 6.26262 8.23633 6.73145C7.77026 7.19762 7.50218 7.83235 7.50218 8.49894C7.50219 9.58805 7.50168 11.1056 7.50116 12.6826C7.50005 16.0185 7.49884 19.6206 7.50217 19.9967L7.50215 21.4964C7.50215 23.7504 8.3995 25.917 9.99292 27.5107C11.5864 29.1045 13.7477 30 16.0012 30C18.2548 30 20.416 29.1045 22.0094 27.5107C23.6034 25.9164 24.4981 23.7496 24.4981 21.4964L24.4981 17.0083L24.4981 17.0073L24.4988 16.278C24.4991 15.8374 24.4995 15.2461 24.4997 14.6431C24.5 13.4469 24.4995 12.1786 24.4957 11.979C24.4849 11.4157 24.3039 10.9288 24.0104 10.6108C24.008 10.6082 24.0049 10.6048 24.0011 10.6004C23.9458 10.5386 23.7355 10.3033 23.3829 10.1528C22.9936 9.98656 22.5402 9.96067 22.0367 10.0852C21.8456 10.1315 21.6666 10.1942 21.4994 10.2712V5.49952C21.4994 4.83665 21.2361 4.20085 20.7674 3.73203C20.2987 3.2632 19.6629 2.99981 19 2.99981C18.6939 2.99981 18.3937 3.05595 18.113 3.16252Z" fill="#0F0F0F"/>
</svg>
