<svg width="32" height="32" viewBox="0 0 32 32" fill="none" xmlns="http://www.w3.org/2000/svg">
<path d="M16 29.0801C22.9697 29.0801 28.7334 23.3164 28.7334 16.3467C28.7334 9.37695 22.9697 3.61328 15.9873 3.61328C9.01758 3.61328 3.2666 9.37695 3.2666 16.3467C3.2666 23.3164 9.03027 29.0801 16 29.0801ZM9.09375 17.5781C8.7002 17.5781 8.4082 17.2734 8.4082 16.8799C8.4082 16.499 8.7002 16.1943 9.09375 16.1943H15.3018V7.98047C15.3018 7.58691 15.6064 7.29492 15.9873 7.29492C16.3936 7.29492 16.6982 7.58691 16.6982 7.98047V16.8799C16.6982 17.2734 16.3936 17.5781 15.9873 17.5781H9.09375Z" fill="black"/>
</svg>
