<svg width="32" height="32" viewBox="0 0 32 32" fill="none" xmlns="http://www.w3.org/2000/svg">
<path d="M16 19.1111C17.7182 19.1111 19.1111 17.7182 19.1111 16C19.1111 14.2818 17.7182 12.8889 16 12.8889C14.2818 12.8889 12.8889 14.2818 12.8889 16C12.8889 17.7182 14.2818 19.1111 16 19.1111Z" fill="#0F0F0F"/>
<path d="M16 2C13.2311 2 10.5243 2.82109 8.22202 4.35942C5.91973 5.89776 4.12532 8.08426 3.06569 10.6424C2.00607 13.2006 1.72882 16.0155 2.26901 18.7313C2.80921 21.447 4.14258 23.9416 6.10051 25.8995C8.05844 27.8574 10.553 29.1908 13.2687 29.731C15.9845 30.2712 18.7994 29.9939 21.3576 28.9343C23.9157 27.8747 26.1022 26.0803 27.6406 23.778C29.1789 21.4757 30 18.7689 30 16C29.9959 12.2882 28.5197 8.72961 25.895 6.10498C23.2704 3.48035 19.7118 2.00405 16 2ZM16 21.1852C14.9745 21.1852 13.972 20.8811 13.1193 20.3113C12.2666 19.7416 11.602 18.9317 11.2095 17.9843C10.8171 17.0368 10.7144 15.9942 10.9144 14.9884C11.1145 13.9826 11.6084 13.0587 12.3335 12.3335C13.0587 11.6084 13.9826 11.1145 14.9884 10.9144C15.9943 10.7144 17.0368 10.8171 17.9843 11.2095C18.9318 11.602 19.7416 12.2666 20.3113 13.1193C20.8811 13.972 21.1852 14.9745 21.1852 16C21.1836 17.3747 20.6368 18.6926 19.6647 19.6647C18.6926 20.6367 17.3747 21.1836 16 21.1852Z" fill="#0F0F0F"/>
</svg>
