<svg width="32" height="32" viewBox="0 0 32 32" fill="none" xmlns="http://www.w3.org/2000/svg">
<path d="M25.3798 9.80285C26.6008 11.639 27.2515 13.7952 27.2501 16.0002C27.2479 16.6296 27.1957 17.2579 27.0939 17.8791C27.062 18.0754 27.1095 18.2763 27.2258 18.4377C27.3421 18.599 27.5177 18.7076 27.714 18.7394C27.754 18.7461 27.7945 18.7493 27.8351 18.7492C28.013 18.749 28.185 18.6855 28.3205 18.5701C28.4559 18.4547 28.5459 18.2949 28.5743 18.1193C28.689 17.4187 28.7478 16.7101 28.7501 16.0002C28.7511 13.3974 27.9504 10.8574 26.4569 8.72577L25.3798 9.80285Z" fill="#0F0F0F"/>
<path d="M29.5303 2.46991C29.4606 2.40025 29.378 2.34499 29.287 2.30729C29.196 2.26959 29.0985 2.25018 29 2.25018C28.9015 2.25018 28.804 2.26959 28.713 2.30729C28.622 2.34499 28.5393 2.40025 28.4697 2.46991L24.4507 6.48891C23.1316 5.30576 21.579 4.41239 19.8932 3.86651C18.2074 3.32062 16.4259 3.13435 14.6636 3.31971C12.9013 3.50507 11.1975 4.05795 9.66221 4.94264C8.12689 5.82734 6.79416 7.02419 5.75009 8.45591V4.00018C5.75009 3.80127 5.67107 3.6105 5.53042 3.46985C5.38976 3.3292 5.199 3.25018 5.00009 3.25018C4.80117 3.25018 4.61041 3.3292 4.46976 3.46985C4.3291 3.6105 4.25009 3.80127 4.25009 4.00018V10.0002C4.25014 10.1991 4.32917 10.3898 4.46982 10.5305C4.61046 10.6711 4.80119 10.7501 5.00009 10.7502H11.0001C11.199 10.7502 11.3898 10.6712 11.5304 10.5305C11.6711 10.3899 11.7501 10.1991 11.7501 10.0002C11.7501 9.80127 11.6711 9.6105 11.5304 9.46985C11.3898 9.3292 11.199 9.25018 11.0001 9.25018H7.02593C7.94937 8.0101 9.12013 6.97517 10.4641 6.21085C11.8082 5.44654 13.2962 4.96949 14.834 4.80987C16.3719 4.65026 17.9262 4.81155 19.3985 5.28355C20.8708 5.75556 22.2292 6.528 23.3876 7.552L7.55193 23.3877C5.74874 21.349 4.75236 18.7219 4.75011 16.0002C4.7539 15.37 4.80745 14.7411 4.91027 14.1193C4.94151 13.9233 4.89374 13.7228 4.77743 13.562C4.66112 13.4011 4.48577 13.2929 4.28981 13.2611C4.09385 13.2293 3.89328 13.2765 3.73206 13.3923C3.57085 13.5082 3.46215 13.6832 3.4298 13.8791C3.31413 14.5803 3.25404 15.2895 3.25011 16.0002C3.25148 19.1199 4.40483 22.1293 6.48887 24.4508L2.46971 28.4699C2.39985 28.5395 2.3444 28.6222 2.30653 28.7132C2.26866 28.8043 2.24912 28.9019 2.24902 29.0005C2.24893 29.0991 2.26828 29.1967 2.30597 29.2879C2.34366 29.379 2.39895 29.4618 2.46867 29.5315C2.5384 29.6012 2.62119 29.6565 2.7123 29.6942C2.80342 29.7319 2.90108 29.7512 2.99968 29.7511C3.09829 29.751 3.1959 29.7315 3.28695 29.6936C3.37799 29.6558 3.46067 29.6003 3.53026 29.5305L29.5303 3.53045C29.5999 3.46083 29.6552 3.37816 29.6929 3.28718C29.7306 3.19619 29.75 3.09867 29.75 3.00018C29.75 2.90169 29.7306 2.80417 29.6929 2.71318C29.6552 2.6222 29.5999 2.53953 29.5303 2.46991Z" fill="#0F0F0F"/>
<path d="M27.0001 21.2502H21.0001C20.8012 21.2502 20.6104 21.3292 20.4698 21.4699C20.3291 21.6105 20.2501 21.8013 20.2501 22.0002C20.2501 22.1991 20.3291 22.3899 20.4698 22.5305C20.6104 22.6712 20.8012 22.7502 21.0001 22.7502H24.9743C23.2612 25.045 20.7341 26.5964 17.9124 27.0856C15.0907 27.5747 12.1889 26.9644 9.80329 25.3801L8.72618 26.4573C11.4473 28.3615 14.8065 29.123 18.0828 28.5784C21.3591 28.0338 24.2913 26.2265 26.2501 23.5444V28.0002C26.2501 28.1991 26.3291 28.3899 26.4698 28.5305C26.6104 28.6712 26.8012 28.7502 27.0001 28.7502C27.199 28.7502 27.3898 28.6712 27.5304 28.5305C27.6711 28.3899 27.7501 28.1991 27.7501 28.0002V22.0002C27.7501 21.8013 27.671 21.6105 27.5304 21.4699C27.3897 21.3293 27.199 21.2502 27.0001 21.2502Z" fill="#0F0F0F"/>
</svg>
