<svg width="32" height="32" viewBox="0 0 32 32" fill="none" xmlns="http://www.w3.org/2000/svg">
<path d="M16.0005 3.00018C14.0896 2.99984 12.2022 3.42187 10.4735 4.23608C8.74471 5.05029 7.21729 6.23654 6.00049 7.70996V4.00018C6.00049 3.73497 5.89513 3.48061 5.7076 3.29308C5.52006 3.10554 5.26571 3.00018 5.00049 3.00018C4.73528 3.00018 4.48092 3.10554 4.29338 3.29308C4.10585 3.48061 4.00049 3.73497 4.00049 4.00018V10.0002C4.00042 10.1315 4.02623 10.2616 4.07646 10.383C4.12669 10.5043 4.20034 10.6146 4.29322 10.7075C4.38609 10.8003 4.49636 10.874 4.61772 10.9242C4.73908 10.9744 4.86915 11.0003 5.00049 11.0002H11.0005C11.2657 11.0002 11.5201 10.8948 11.7076 10.7073C11.8951 10.5198 12.0005 10.2654 12.0005 10.0002C12.0005 9.73497 11.8951 9.48061 11.7076 9.29308C11.5201 9.10554 11.2657 9.00018 11.0005 9.00018H7.52849C8.96889 7.2528 10.9139 5.99299 13.0975 5.39301C15.2811 4.79303 17.5967 4.88217 19.7277 5.64825C21.8587 6.41433 23.7011 7.81994 25.0029 9.67289C26.3047 11.5258 27.0023 13.7357 27.0005 16.0002C26.9983 16.6159 26.9471 17.2305 26.8472 17.8381C26.826 17.9677 26.8306 18.1003 26.8607 18.2282C26.8907 18.3561 26.9457 18.4768 27.0224 18.5834C27.0991 18.6901 27.1961 18.7805 27.3078 18.8497C27.4195 18.9189 27.5437 18.9654 27.6733 18.9865C27.727 18.995 27.7812 18.9993 27.8355 18.9992C28.0726 18.9989 28.3019 18.9144 28.4825 18.7607C28.6632 18.6071 28.7834 18.3943 28.8218 18.1603C28.9384 17.4461 28.9981 16.7238 29.0005 16.0002C28.9965 12.5536 27.6256 9.2493 25.1885 6.81219C22.7514 4.37508 19.4471 3.00417 16.0005 3.00018Z" fill="#0F0F0F"/>
<path d="M27.0005 21.0002H21.0005C20.7353 21.0002 20.4809 21.1055 20.2934 21.2931C20.1058 21.4806 20.0005 21.735 20.0005 22.0002C20.0005 22.2654 20.1058 22.5198 20.2934 22.7073C20.4809 22.8948 20.7353 23.0002 21.0005 23.0002H24.4725C23.0321 24.7476 21.0871 26.0074 18.9035 26.6074C16.7199 27.2073 14.4043 27.1182 12.2733 26.3521C10.1423 25.586 8.29991 24.1804 6.99812 22.3275C5.69632 20.4745 4.99865 18.2647 5.00049 16.0002C5.00429 15.3837 5.05686 14.7685 5.15772 14.1603C5.19984 13.8988 5.13648 13.6312 4.98153 13.4162C4.82658 13.2013 4.5927 13.0567 4.33121 13.014C4.06972 12.9713 3.80198 13.0341 3.58674 13.1886C3.3715 13.3431 3.22634 13.5767 3.18311 13.8381C3.06549 14.5529 3.00443 15.2758 3.00049 16.0002C2.99859 18.6746 3.82217 21.2845 5.35881 23.4734C6.89544 25.6623 9.07022 27.3237 11.5862 28.2305C14.1022 29.1374 16.8368 29.2456 19.4166 28.5405C21.9964 27.8353 24.2957 26.351 26.0005 24.2904V28.0002C26.0005 28.2654 26.1058 28.5198 26.2934 28.7073C26.4809 28.8948 26.7353 29.0002 27.0005 29.0002C27.2657 29.0002 27.5201 28.8948 27.7076 28.7073C27.8951 28.5198 28.0005 28.2654 28.0005 28.0002V22.0002C28.0006 21.8688 27.9748 21.7388 27.9245 21.6174C27.8743 21.4961 27.8006 21.3858 27.7078 21.2929C27.6149 21.2 27.5046 21.1264 27.3833 21.0761C27.2619 21.0259 27.1318 21.0001 27.0005 21.0002Z" fill="#0F0F0F"/>
</svg>
