<svg width="32" height="32" viewBox="0 0 32 32" fill="none" xmlns="http://www.w3.org/2000/svg">
<path d="M29.0001 26.5H24.4589C26.681 24.7049 28.2757 22.2506 29.0129 19.4908C29.7502 16.731 29.5921 13.8084 28.5613 11.1443C27.5305 8.48016 25.6803 6.21222 23.2774 4.66743C20.8746 3.12263 18.0433 2.38079 15.1916 2.54887C12.34 2.71694 9.61543 3.78624 7.4107 5.6026C5.20596 7.41896 3.63499 9.88854 2.92428 12.6553C2.21356 15.422 2.39982 18.343 3.45621 20.9971C4.51259 23.6511 6.38451 25.9012 8.8021 27.4228C8.88178 27.4734 8.97428 27.5002 9.0687 27.5C9.17708 27.5 9.28251 27.4647 9.36912 27.3996C9.45573 27.3344 9.51883 27.2429 9.54891 27.1388C9.57898 27.0346 9.57442 26.9236 9.53589 26.8223C9.49736 26.721 9.42697 26.6349 9.3353 26.5771C7.06863 25.1596 5.31501 23.054 4.33096 20.5683C3.34691 18.0826 3.18407 15.3472 3.86627 12.7623C4.54846 10.1774 6.03988 7.87865 8.12237 6.20225C10.2049 4.52585 12.7691 3.5598 15.4401 3.44542C18.111 3.33104 20.7485 4.07432 22.9667 5.56655C25.1849 7.05878 26.8674 9.22164 27.7681 11.7388C28.6687 14.2559 28.7403 16.9951 27.9724 19.5559C27.2045 22.1166 25.6373 24.3644 23.5001 25.9705V21C23.5001 20.8674 23.4474 20.7402 23.3537 20.6464C23.2599 20.5527 23.1327 20.5 23.0001 20.5C22.8675 20.5 22.7403 20.5527 22.6465 20.6464C22.5528 20.7402 22.5001 20.8674 22.5001 21V27C22.5001 27.1326 22.5528 27.2598 22.6465 27.3536C22.7403 27.4473 22.8675 27.5 23.0001 27.5H29.0001C29.1327 27.5 29.2599 27.4473 29.3537 27.3536C29.4474 27.2598 29.5001 27.1326 29.5001 27C29.5001 26.8674 29.4474 26.7402 29.3537 26.6464C29.2599 26.5527 29.1327 26.5 29.0001 26.5Z" fill="#0F0F0F"/>
</svg>
