<svg width="32" height="32" viewBox="0 0 32 32" fill="none" xmlns="http://www.w3.org/2000/svg">
<path d="M16 29.0801C22.9697 29.0801 28.7334 23.3164 28.7334 16.3467C28.7334 9.37695 22.9697 3.61328 15.9873 3.61328C9.01758 3.61328 3.2666 9.37695 3.2666 16.3467C3.2666 23.3164 9.03027 29.0801 16 29.0801ZM16 27.4424C9.85547 27.4424 4.91699 22.4912 4.91699 16.3467C4.91699 10.2021 9.85547 5.26367 15.9873 5.26367C22.1318 5.26367 27.083 10.2021 27.0957 16.3467C27.0957 22.4912 22.1445 27.4424 16 27.4424ZM10.5791 17.1846H21.4082C21.9414 17.1846 22.3223 16.8799 22.3223 16.3848C22.3223 15.8643 21.9668 15.5469 21.4082 15.5469H10.5791C10.0332 15.5469 9.66504 15.8643 9.66504 16.3848C9.66504 16.8799 10.0586 17.1846 10.5791 17.1846Z" fill="black"/>
</svg>
