<svg width="32" height="32" viewBox="0 0 32 32" fill="none" xmlns="http://www.w3.org/2000/svg">
<path d="M20.6404 10.5H15.4999L15.4989 5.49951C15.499 5.30299 15.4412 5.1108 15.3327 4.94695C15.2242 4.7831 15.0698 4.65485 14.8888 4.57822C14.7079 4.50159 14.5083 4.47997 14.3152 4.51607C14.122 4.55217 13.9438 4.64439 13.8027 4.78121L2.79278 15.2934C2.69973 15.3872 2.62609 15.4984 2.5761 15.6206C2.52611 15.7429 2.50076 15.8738 2.50148 16.0059C2.5022 16.138 2.529 16.2687 2.58033 16.3904C2.63165 16.5121 2.7065 16.6225 2.80058 16.7152L13.7986 27.2133C13.9392 27.3511 14.1174 27.4444 14.3108 27.4814C14.5042 27.5184 14.7042 27.4974 14.8858 27.4212C15.0673 27.3449 15.2223 27.2168 15.3313 27.0528C15.4404 26.8888 15.4985 26.6963 15.4986 26.4994L15.4999 21.5H20.5849C27.2011 21.5 28.4657 25.9385 28.5165 26.1279C28.5475 26.2453 28.6202 26.3475 28.7211 26.4152C28.8219 26.4829 28.9439 26.5116 29.0644 26.496C29.1848 26.4803 29.2954 26.4213 29.3756 26.3301C29.4557 26.2388 29.4999 26.1215 29.4999 26V18.9887C29.4873 17.8461 29.2467 16.7174 28.7924 15.669C28.3381 14.6205 27.679 13.6732 26.8539 12.8826C26.0289 12.0921 25.0543 11.4741 23.9873 11.065C22.9204 10.6559 21.7825 10.4638 20.6404 10.5Z" fill="#0F0F0F"/>
</svg>
