<svg width="32" height="32" viewBox="0 0 32 32" fill="none" xmlns="http://www.w3.org/2000/svg">
<path d="M13.2928 18.2939C13.4803 18.1064 13.7347 18.001 13.9999 18.001C14.2651 18.001 14.5195 18.1064 14.707 18.2939C14.8946 18.4815 14.9999 18.7358 14.9999 19.001L14.9991 24.5004C14.9991 24.796 14.9118 25.0851 14.748 25.3312C14.5843 25.5773 14.3515 25.7696 14.0789 25.8838C13.8062 25.9981 13.5059 26.0292 13.2156 25.9734C12.9254 25.9175 12.6581 25.7771 12.4473 25.5698L1.45611 15.0789C1.31305 14.9403 1.19904 14.7745 1.12073 14.5914C1.04242 14.4082 1.00139 14.2112 1.00003 14.012C0.998676 13.8128 1.03701 13.6153 1.11281 13.4311C1.18861 13.2468 1.30035 13.0795 1.44151 12.9389L12.4569 2.42004C12.6688 2.21577 12.9361 2.07837 13.2256 2.02493C13.515 1.97149 13.8138 2.00439 14.0847 2.11952C14.3555 2.23465 14.5866 2.42693 14.7489 2.6724C14.9113 2.91788 14.9979 3.20571 14.9979 3.50004L14.9999 8.00104H21.6387C23.6874 7.95833 25.6921 8.59873 27.3367 9.82126C28.9812 11.0438 30.1721 12.7789 30.7215 14.753C30.7541 14.8803 30.7613 15.0126 30.7427 15.1426C30.7241 15.2726 30.6801 15.3977 30.6132 15.5107C30.5462 15.6237 30.4577 15.7224 30.3527 15.8012C30.2476 15.88 30.128 15.9373 30.0008 15.9698C29.8736 16.0024 29.7412 16.0096 29.6112 15.991C29.4812 15.9724 29.3561 15.9284 29.2432 15.8615C29.1302 15.7946 29.0315 15.706 28.9527 15.601C28.8739 15.4959 28.8166 15.3764 28.784 15.2491C28.3442 13.7054 27.4034 12.3519 26.1098 11.4018C24.8161 10.4516 23.2431 9.95882 21.6385 10.001H13.9999C13.7347 10.001 13.4803 9.89568 13.2928 9.70814C13.1053 9.52061 12.9999 9.26625 12.9999 9.00104L12.9981 4.66854L3.22471 14.001L12.9989 23.3321L12.9999 19.001C12.9999 18.7358 13.1053 18.4815 13.2928 18.2939Z" fill="#0F0F0F"/>
<path d="M18.9999 16.1945C18.9999 13.8785 20.8774 12.001 23.1934 12.001C25.5093 12.001 27.3868 13.8785 27.3868 16.1945C27.3868 17.5506 26.7431 18.7564 25.7445 19.5229C28.2173 20.5046 29.9999 22.7754 29.9999 25.5105C29.9999 26.2616 29.65 26.8726 29.1726 27.3255C28.7104 27.7641 28.1048 28.0827 27.4711 28.3166C26.2001 28.7855 24.5737 29.001 22.9999 29.001C21.4261 29.001 19.7997 28.7855 18.5287 28.3166C17.895 28.0827 17.2895 27.7641 16.8272 27.3255C16.3498 26.8726 15.9999 26.2616 15.9999 25.5105C15.9999 22.6793 17.9101 20.3455 20.5185 19.4242C19.5908 18.655 18.9999 17.4938 18.9999 16.1945ZM23.1934 14.001C21.9819 14.001 20.9999 14.9831 20.9999 16.1945C20.9999 17.4059 21.9819 18.3879 23.1934 18.3879C24.4048 18.3879 25.3868 17.4059 25.3868 16.1945C25.3868 14.9831 24.4048 14.001 23.1934 14.001ZM22.9999 21.001C20.1562 21.001 17.9999 23.0987 17.9999 25.5105C17.9999 25.5895 18.025 25.705 18.2038 25.8746C18.3979 26.0588 18.7298 26.259 19.2211 26.4402C20.2001 26.8015 21.5737 27.001 22.9999 27.001C24.4261 27.001 25.7997 26.8015 26.7787 26.4402C27.27 26.259 27.602 26.0588 27.796 25.8746C27.9748 25.705 27.9999 25.5895 27.9999 25.5105C27.9999 23.0987 25.8436 21.001 22.9999 21.001Z" fill="#0F0F0F"/>
</svg>
