<svg width="32" height="32" viewBox="0 0 32 32" fill="none" xmlns="http://www.w3.org/2000/svg">
<path d="M20.9571 2.04289C21.3476 2.43342 21.3476 3.06658 20.9571 3.45711L18.6642 5.75002L22.6244 5.75001C23.5084 5.74983 25.036 5.74952 26.5227 6.47672C28.0934 7.24498 29.4849 8.74996 30.2162 11.4924C30.3586 12.026 30.0413 12.574 29.5077 12.7163C28.974 12.8586 28.4261 12.5413 28.2838 12.0077C27.6817 9.75008 26.6288 8.75506 25.6439 8.27332C24.5984 7.7619 23.4839 7.75002 22.5833 7.75002H18.6643L20.9571 10.0429C21.3476 10.4334 21.3476 11.0666 20.9571 11.4571C20.5666 11.8476 19.9334 11.8476 19.5429 11.4571L15.5429 7.4571C15.3554 7.26956 15.25 7.01521 15.25 6.74999C15.25 6.48477 15.3554 6.23042 15.5429 6.04288L19.5429 2.04289C19.9334 1.65237 20.5666 1.65237 20.9571 2.04289Z" fill="#0F0F0F"/>
<path d="M9.10736 22.8427C16.1032 29.8385 22.3711 29.3779 24.172 27.577L25.2092 26.5398C25.8138 25.9339 26.1534 25.1128 26.1534 24.2569C26.1534 23.4009 25.8138 22.5799 25.2092 21.974L22.6853 19.4501C22.0812 18.8505 21.2639 18.5151 20.4128 18.5173C19.5616 18.5195 18.7461 18.8591 18.1451 19.4618L16.9877 20.6192C15.5984 20.3307 14.3297 19.6265 13.35 18.6C12.324 17.6209 11.6188 16.3538 11.3274 14.9658L12.4951 13.7995C13.0862 13.1691 13.4079 12.333 13.3918 11.469C13.3756 10.605 13.023 9.78147 12.4088 9.17358L9.97608 6.74083C9.37015 6.13624 8.54914 5.7967 7.69318 5.7967C6.83721 5.7967 6.0162 6.13624 5.41027 6.74083L4.37306 7.77803C2.57211 9.57892 2.11155 15.8469 9.10736 22.8427ZM6.82445 8.15501C7.05497 7.92485 7.3674 7.79558 7.69314 7.79558C8.01889 7.79558 8.33132 7.92485 8.56184 8.15501L10.9946 10.5878C11.236 10.8194 11.3796 11.1347 11.3957 11.4688C11.4119 11.803 11.2995 12.1307 11.0816 12.3845L9.6991 13.7656C8.61841 14.8463 10.0257 18.1042 11.9357 20.0142C14.037 22.1155 17.1928 23.2425 18.1885 22.2467L19.5592 20.876C19.7849 20.6478 20.0918 20.5184 20.4128 20.5162C20.7337 20.514 21.0424 20.6392 21.2711 20.8643L23.795 23.3882C24.0252 23.6187 24.1544 23.9311 24.1544 24.2569C24.1544 24.5826 24.0252 24.8951 23.795 25.1256L22.7578 26.1628C21.6902 27.2303 16.4829 27.3899 10.5215 21.4285C4.56016 15.4671 4.71967 10.2598 5.78724 9.19221L6.82445 8.15501Z" fill="#0F0F0F"/>
</svg>
