<svg width="32" height="32" viewBox="0 0 32 32" fill="none" xmlns="http://www.w3.org/2000/svg">
<path d="M20.5302 2.46967C20.8231 2.76256 20.8231 3.23744 20.5302 3.53033L17.8105 6.25002L22.3656 6.25002C23.2497 6.24991 24.7284 6.24973 26.1628 6.95129C27.6602 7.68374 29.0094 9.12498 29.7246 11.8068C29.8313 12.207 29.5934 12.618 29.1932 12.7247C28.7929 12.8314 28.382 12.5935 28.2752 12.1933C27.657 9.87506 26.5618 8.8163 25.5037 8.29874C24.4001 7.75893 23.2308 7.75002 22.3332 7.75002H17.8106L20.5302 10.4697C20.8231 10.7626 20.8231 11.2374 20.5302 11.5303C20.2373 11.8232 19.7625 11.8232 19.4696 11.5303L15.4696 7.53032C15.3289 7.38967 15.2499 7.1989 15.2499 6.99999C15.2499 6.80108 15.3289 6.61031 15.4696 6.46966L19.4696 2.46967C19.7625 2.17678 20.2373 2.17678 20.5302 2.46967Z" fill="#0F0F0F"/>
<path d="M9.27719 22.6159C16.148 29.4867 22.2489 29.0896 23.9883 27.3502L25.0255 26.313C25.5833 25.754 25.8966 24.9966 25.8966 24.2069C25.8966 23.4172 25.5833 22.6597 25.0255 22.1008L22.5016 19.5769C21.9444 19.0241 21.1907 18.7149 20.4058 18.7171C19.6209 18.7193 18.869 19.0327 18.3149 19.5886L17.0747 20.8288C15.5809 20.5633 14.2113 19.8267 13.1662 18.7268C12.0669 17.6823 11.3293 16.3144 11.0608 14.8219L12.3114 13.5727C12.8564 12.9897 13.1524 12.217 13.1363 11.419C13.1201 10.6211 12.7932 9.86091 12.2251 9.30036L9.79236 6.86761C9.23338 6.30979 8.47594 5.9965 7.68623 5.9965C6.89653 5.9965 6.13908 6.30979 5.5801 6.86761L4.5429 7.90482C2.80341 9.64424 2.40638 15.7451 9.27719 22.6159ZM6.64073 7.92824C6.91819 7.65132 7.29419 7.4958 7.6862 7.4958C8.07821 7.4958 8.4542 7.65132 8.73167 7.92824L11.1644 10.361C11.4513 10.6404 11.6201 11.0192 11.6361 11.4193C11.6522 11.8194 11.5142 12.2105 11.2507 12.512L9.86891 13.8924C8.99677 14.7645 10.1679 17.8498 12.1056 19.7875C14.0432 21.7251 17.1313 22.8935 18.0048 22.02L19.3755 20.6492C19.6481 20.3742 20.0186 20.2186 20.4058 20.2164C20.793 20.2142 21.1653 20.3656 21.4409 20.6375L23.9648 23.1614C24.2418 23.4389 24.3973 23.8149 24.3973 24.2069C24.3973 24.5989 24.2418 24.9749 23.9648 25.2524L22.9276 26.2896C21.7717 27.4455 16.5077 27.7252 10.3378 21.5553C4.1679 15.3853 4.44756 10.1214 5.60352 8.96544L6.64073 7.92824Z" fill="#0F0F0F"/>
</svg>
