<svg width="32" height="32" viewBox="0 0 32 32" fill="none" xmlns="http://www.w3.org/2000/svg">
<path d="M20.9571 2.04289C21.3476 2.43342 21.3476 3.06658 20.9571 3.45711L18.6642 5.75002L22.6244 5.75001C23.5084 5.74983 25.036 5.74952 26.5227 6.47672C28.0934 7.24498 29.4849 8.74996 30.2162 11.4924C30.3586 12.026 30.0413 12.574 29.5077 12.7163C28.974 12.8586 28.4261 12.5413 28.2838 12.0077C27.6817 9.75008 26.6288 8.75506 25.6439 8.27332C24.5984 7.7619 23.4839 7.75002 22.5833 7.75002H18.6643L20.9571 10.0429C21.3476 10.4334 21.3476 11.0666 20.9571 11.4571C20.5666 11.8476 19.9334 11.8476 19.5429 11.4571L15.5429 7.4571C15.3554 7.26956 15.25 7.01521 15.25 6.74999C15.25 6.48477 15.3554 6.23042 15.5429 6.04288L19.5429 2.04289C19.9334 1.65237 20.5666 1.65237 20.9571 2.04289Z" fill="#0F0F0F"/>
<path d="M24.172 27.577C22.3711 29.3779 16.1032 29.8385 9.10736 22.8427C2.11155 15.8469 2.57211 9.57892 4.37306 7.77803L5.41027 6.74083C6.0162 6.13624 6.83721 5.7967 7.69318 5.7967C8.54914 5.7967 9.37015 6.13624 9.97608 6.74083L12.4088 9.17358C13.023 9.78147 13.3756 10.605 13.3918 11.469C13.4079 12.333 13.0862 13.1691 12.4951 13.7995L11.3274 14.9658C11.6188 16.3538 12.324 17.6209 13.35 18.6C14.3297 19.6265 15.5984 20.3307 16.9877 20.6192L18.1451 19.4618C18.7461 18.8591 19.5616 18.5195 20.4128 18.5173C21.2639 18.5151 22.0812 18.8505 22.6853 19.4501L25.2092 21.974C25.8138 22.5799 26.1534 23.4009 26.1534 24.2569C26.1534 25.1128 25.8138 25.9339 25.2092 26.5398L24.172 27.577Z" fill="#0F0F0F"/>
</svg>
