<svg width="32" height="32" viewBox="0 0 32 32" fill="none" xmlns="http://www.w3.org/2000/svg">
<path d="M25.5 18.9988V6.00136C25.5 5.77159 25.4472 5.5449 25.3456 5.33877C25.2441 5.13264 25.0966 4.95257 24.9145 4.81245C24.7324 4.67234 24.5206 4.57591 24.2953 4.53061C24.0701 4.4853 23.8374 4.49234 23.6153 4.55116L11.6153 7.73769C11.2956 7.82283 11.013 8.01114 10.8114 8.27337C10.6097 8.5356 10.5003 8.85707 10.5 9.18788V20.555C9.93253 19.9763 9.18159 19.6128 8.37566 19.5265C7.56973 19.4403 6.75888 19.6368 6.08179 20.0823C5.40469 20.5278 4.90343 21.1948 4.66372 21.9691C4.42402 22.7433 4.46076 23.5768 4.76768 24.327C5.07459 25.0772 5.6326 25.6974 6.34627 26.0817C7.05995 26.4659 7.88494 26.5902 8.68016 26.4334C9.47538 26.2766 10.1914 25.8484 10.7058 25.222C11.2202 24.5956 11.501 23.8099 11.5001 22.9994L11.5 9.18788C11.4999 9.07766 11.5363 8.97049 11.6034 8.88307C11.6705 8.79564 11.7646 8.73285 11.8711 8.70448L23.8711 5.51796C23.9452 5.4975 24.023 5.4947 24.0983 5.5098C24.1736 5.5249 24.2443 5.55746 24.3047 5.60488C24.3656 5.65146 24.4149 5.71148 24.4488 5.78025C24.4827 5.84902 24.5002 5.92469 24.5 6.00136V16.555C23.9325 15.9763 23.1816 15.6128 22.3757 15.5265C21.5697 15.4403 20.7589 15.6368 20.0818 16.0823C19.4047 16.5278 18.9034 17.1948 18.6637 17.9691C18.424 18.7433 18.4608 19.5768 18.7677 20.327C19.0746 21.0772 19.6326 21.6974 20.3463 22.0817C21.0599 22.4659 21.8849 22.5902 22.6802 22.4334C23.4754 22.2766 24.1914 21.8484 24.7058 21.222C25.2202 20.5956 25.5009 19.8093 25.5 18.9988Z" fill="#0F0F0F"/>
</svg>
