<svg width="32" height="32" viewBox="0 0 32 32" fill="none" xmlns="http://www.w3.org/2000/svg">
<path d="M2 7C2 4.23858 4.23858 2 7 2H25C27.7614 2 30 4.23858 30 7V25C30 27.7614 27.7614 30 25 30H7C4.23858 30 2 27.7614 2 25V7ZM8 9C8 9.55228 8.44772 10 9 10C16.1797 10 22 15.8203 22 23C22 23.5523 22.4477 24 23 24C23.5523 24 24 23.5523 24 23C24 14.7157 17.2843 8 9 8C8.44772 8 8 8.44772 8 9ZM8 15C8 15.5523 8.44772 16 9 16C12.866 16 16 19.134 16 23C16 23.5523 16.4477 24 17 24C17.5523 24 18 23.5523 18 23C18 18.0294 13.9706 14 9 14C8.44772 14 8 14.4477 8 15ZM8 22C8 23.1046 8.89543 24 10 24C11.1046 24 12 23.1046 12 22C12 20.8954 11.1046 20 10 20C8.89543 20 8 20.8954 8 22Z" fill="#0F0F0F"/>
</svg>
