<svg width="32" height="32" viewBox="0 0 32 32" fill="none" xmlns="http://www.w3.org/2000/svg">
<path d="M16 29.0801C22.9697 29.0801 28.7334 23.3164 28.7334 16.3467C28.7334 9.37695 22.9697 3.61328 15.9873 3.61328C9.01758 3.61328 3.2666 9.37695 3.2666 16.3467C3.2666 23.3164 9.03027 29.0801 16 29.0801ZM16 27.4424C9.85547 27.4424 4.91699 22.4912 4.91699 16.3467C4.91699 10.2021 9.85547 5.26367 15.9873 5.26367C22.1318 5.26367 27.083 10.2021 27.0957 16.3467C27.0957 22.4912 22.1445 27.4424 16 27.4424ZM10.4648 22.7959L17.917 19.0635C18.2852 18.8857 18.5391 18.6191 18.7295 18.251L22.4492 10.8115C22.8174 10.0625 22.3096 9.49121 21.5098 9.88477L14.083 13.6045C13.7275 13.7695 13.4863 14.0107 13.2705 14.417L9.53809 21.8691C9.18262 22.6055 9.71582 23.1641 10.4648 22.7959ZM16 17.9082C15.1367 17.9082 14.4512 17.21 14.4512 16.3467C14.4512 15.4834 15.1367 14.7979 16 14.7979C16.8633 14.7979 17.5615 15.4834 17.5615 16.3467C17.5615 17.21 16.8633 17.9082 16 17.9082Z" fill="#0F0F0F"/>
</svg>
