<svg width="32" height="32" viewBox="0 0 32 32" fill="none" xmlns="http://www.w3.org/2000/svg">
<path d="M22.75 3.5V5.75H23C25.6234 5.75 27.75 7.87665 27.75 10.5V24.5C27.75 27.1234 25.6234 29.25 23 29.25H9C6.37665 29.25 4.25 27.1234 4.25 24.5V10.5C4.25 7.87665 6.37665 5.75 9 5.75H9.25V3.5C9.25 3.08579 9.58579 2.75 10 2.75C10.4142 2.75 10.75 3.08579 10.75 3.5V5.75H21.25V3.5C21.25 3.08579 21.5858 2.75 22 2.75C22.4142 2.75 22.75 3.08579 22.75 3.5ZM9 7.25C7.20507 7.25 5.75 8.70507 5.75 10.5V24.5C5.75 26.2949 7.20507 27.75 9 27.75H23C24.7949 27.75 26.25 26.2949 26.25 24.5V10.5C26.25 8.70507 24.7949 7.25 23 7.25H9ZM16.9836 15.6097L16.9872 15.6196C17.0703 15.8446 17.2184 16.0398 17.4125 16.1806C17.607 16.3216 17.8386 16.4012 18.0777 16.4103L18.0919 16.4109H20.7594L18.6476 18.2229C18.4674 18.3697 18.3328 18.5655 18.2607 18.7874C18.1867 19.0152 18.1818 19.2598 18.2468 19.4903L18.2505 19.5037L19.1598 22.326L16.6798 20.6347L16.6736 20.6306C16.4743 20.4975 16.2402 20.4267 16.0008 20.4267C15.7613 20.4267 15.5272 20.4975 15.3279 20.6305L12.8422 22.3256L13.7388 19.5472L13.7425 19.5342C13.8114 19.2909 13.8065 19.0326 13.7284 18.792C13.6523 18.5576 13.51 18.3505 13.3191 18.1954L11.2415 16.4109H13.9384L13.9539 16.4102C14.1927 16.4004 14.4234 16.3201 14.6169 16.1794C14.8101 16.0389 14.9577 15.8442 15.0407 15.6195L15.0434 15.6121L16.003 12.8354L16.9836 15.6097ZM15.9998 10.75C15.7524 10.75 15.5105 10.8257 15.3068 10.9676C15.1035 11.1094 14.9484 11.3101 14.8628 11.5428L14.8602 11.5499L13.6987 14.9109H10.4276L10.4124 14.9115C10.1652 14.9216 9.92694 15.007 9.72972 15.1565C9.53225 15.3061 9.38562 15.5126 9.30923 15.7478C9.23275 15.9833 9.23028 16.2365 9.30214 16.4734C9.37209 16.704 9.50923 16.9085 9.69594 17.0607L12.2556 19.2593L11.1455 22.6994L11.1414 22.7141C11.0751 22.9524 11.0833 23.2052 11.165 23.4386C11.2467 23.6721 11.3978 23.8748 11.598 24.0198C11.7984 24.1649 12.0382 24.2449 12.285 24.2498C12.5316 24.2546 12.7743 24.1841 12.9804 24.0469L12.9873 24.0423L16.0008 21.9873L19.0142 24.0423L19.0211 24.0469C19.2272 24.1841 19.4699 24.2546 19.7166 24.2498C19.9634 24.2449 20.2031 24.1649 20.4036 24.0198C20.6037 23.8748 20.7549 23.6721 20.8366 23.4386C20.9182 23.2052 20.9265 22.9524 20.8602 22.7141L20.8561 22.6996L19.7468 19.2563L22.3054 17.0608C22.4922 16.9086 22.6294 16.704 22.6994 16.4734C22.7713 16.2365 22.7688 15.9833 22.6923 15.7478C22.6159 15.5126 22.4693 15.3061 22.2718 15.1565C22.0746 15.007 21.8363 14.9216 21.5892 14.9115L21.5739 14.9109H18.3276L17.1403 11.552L17.1369 11.5428C17.0512 11.3101 16.8962 11.1094 16.6929 10.9676C16.4892 10.8256 16.2472 10.75 15.9998 10.75Z" fill="#0F0F0F"/>
</svg>
