<svg width="32" height="32" viewBox="0 0 32 32" fill="none" xmlns="http://www.w3.org/2000/svg">
<path d="M21.9998 28.75C22.5521 28.75 22.9998 28.3023 22.9998 27.75C22.9998 27.1977 22.5521 26.75 21.9998 26.75C21.4475 26.75 20.9998 27.1977 20.9998 27.75C20.9998 28.3023 21.4475 28.75 21.9998 28.75Z" fill="#0F0F0F"/>
<path d="M21.9995 16.2498C21.0053 16.2511 20.0522 16.6466 19.3492 17.3496C18.6463 18.0526 18.2508 19.0057 18.2495 19.9998C18.2495 20.1987 18.3285 20.3895 18.4692 20.5302C18.6098 20.6708 18.8006 20.7498 18.9995 20.7498C19.1984 20.7498 19.3892 20.6708 19.5298 20.5302C19.6705 20.3895 19.7495 20.1987 19.7495 19.9998C19.7495 19.5548 19.8815 19.1198 20.1287 18.7498C20.3759 18.3798 20.7273 18.0914 21.1385 17.9211C21.5496 17.7508 22.002 17.7062 22.4385 17.7931C22.8749 17.8799 23.2758 18.0942 23.5905 18.4088C23.9052 18.7235 24.1195 19.1244 24.2063 19.5609C24.2931 19.9973 24.2485 20.4497 24.0782 20.8609C23.9079 21.272 23.6196 21.6234 23.2495 21.8706C22.8795 22.1179 22.4445 22.2498 21.9995 22.2498C21.8006 22.2499 21.6099 22.3289 21.4692 22.4696C21.3286 22.6102 21.2496 22.8009 21.2495 22.9998V24.9998C21.2495 25.1987 21.3285 25.3895 21.4692 25.5302C21.6098 25.6708 21.8006 25.7498 21.9995 25.7498C22.1984 25.7498 22.3892 25.6708 22.5298 25.5302C22.6705 25.3895 22.7495 25.1987 22.7495 24.9998V23.6746C23.6601 23.4887 24.4691 22.9713 25.0199 22.2228C25.5707 21.4742 25.8239 20.5479 25.7305 19.6232C25.6371 18.6986 25.2038 17.8416 24.5144 17.2183C23.8251 16.595 22.9288 16.2499 21.9995 16.2498Z" fill="#0F0F0F"/>
<path d="M22.9995 5.24983H22.7495V3.0008C22.7495 2.80189 22.6705 2.61112 22.5298 2.47047C22.3892 2.32982 22.1984 2.2508 21.9995 2.2508C21.8006 2.2508 21.6098 2.32982 21.4692 2.47047C21.3285 2.61112 21.2495 2.80189 21.2495 3.0008V5.2498H10.7495V3.0008C10.7495 2.80189 10.6705 2.61112 10.5298 2.47047C10.3892 2.32982 10.1984 2.2508 9.99951 2.2508C9.8006 2.2508 9.60983 2.32982 9.46918 2.47047C9.32853 2.61112 9.24951 2.80189 9.24951 3.0008V5.2498H8.99951C7.74017 5.25123 6.53282 5.75213 5.64233 6.64262C4.75184 7.53311 4.25094 8.74046 4.24951 9.9998V23.9998C4.25094 25.2591 4.75184 26.4665 5.64233 27.357C6.53282 28.2475 7.74017 28.7484 8.99951 28.7498H13.9995C14.1984 28.7498 14.3892 28.6708 14.5298 28.5301C14.6705 28.3895 14.7495 28.1987 14.7495 27.9998C14.7495 27.8009 14.6705 27.6101 14.5298 27.4695C14.3892 27.3288 14.1984 27.2498 13.9995 27.2498H8.99951C8.13786 27.2488 7.31179 26.9061 6.70252 26.2968C6.09324 25.6875 5.75051 24.8614 5.74951 23.9998V12.7518H26.2495V14.9998C26.2495 15.1987 26.3285 15.3895 26.4692 15.5301C26.6098 15.6708 26.8006 15.7498 26.9995 15.7498C27.1984 15.7498 27.3892 15.6708 27.5298 15.5301C27.6705 15.3895 27.7495 15.1987 27.7495 14.9998V9.9998C27.7481 8.74047 27.2472 7.53312 26.3567 6.64264C25.4662 5.75216 24.2588 5.25126 22.9995 5.24983ZM5.74951 11.2518V9.99983C5.75051 9.13818 6.09324 8.31211 6.70252 7.70284C7.31179 7.09356 8.13786 6.75083 8.99951 6.74983H22.9995C23.8612 6.75083 24.6872 7.09356 25.2965 7.70283C25.9058 8.31211 26.2485 9.13818 26.2495 9.99983V11.2518H5.74951Z" fill="#0F0F0F"/>
</svg>
