<svg width="32" height="32" viewBox="0 0 32 32" fill="none" xmlns="http://www.w3.org/2000/svg">
<path d="M22.5 3.5V6H23C25.4853 6 27.5 8.01472 27.5 10.5V24.5C27.5 26.9853 25.4853 29 23 29H9C6.51472 29 4.5 26.9853 4.5 24.5V10.5C4.5 8.01472 6.51472 6 9 6H9.5V3.5C9.5 3.22386 9.72386 3 10 3C10.2761 3 10.5 3.22386 10.5 3.5V6H21.5V3.5C21.5 3.22386 21.7239 3 22 3C22.2761 3 22.5 3.22386 22.5 3.5ZM9 7C7.067 7 5.5 8.567 5.5 10.5V24.5C5.5 26.433 7.067 28 9 28H23C24.933 28 26.5 26.433 26.5 24.5V10.5C26.5 8.567 24.933 7 23 7H9ZM14.8097 15.523L16.0003 12.0777L17.2193 15.5264L17.2217 15.533C17.2877 15.7115 17.4052 15.8665 17.5592 15.9782C17.7136 16.09 17.8973 16.1533 18.0872 16.1605L18.0967 16.1609H21.4347L18.8078 18.4148C18.6636 18.5316 18.556 18.6877 18.4984 18.8647C18.4397 19.0455 18.4359 19.2396 18.4874 19.4225L18.4899 19.4314L19.6214 22.9433L16.5389 20.8413L16.5348 20.8385C16.3767 20.7329 16.1908 20.6767 16.0008 20.6767C15.8107 20.6767 15.6249 20.7329 15.4667 20.8385L15.4626 20.8413L12.3802 22.9433L13.4995 19.4748L13.5019 19.4661C13.5574 19.2704 13.5534 19.0627 13.4906 18.8692C13.4291 18.6797 13.3138 18.5124 13.1589 18.3874L10.5668 16.1609H13.9333L13.9436 16.1605C14.1332 16.1526 14.3163 16.0889 14.4698 15.9773C14.6232 15.8657 14.7403 15.7112 14.8062 15.5329L14.8097 15.523ZM15.9998 11C15.8034 11 15.6114 11.0601 15.4498 11.1727C15.2884 11.2852 15.1654 11.4445 15.0974 11.6292L15.094 11.6386L13.8768 15.1609H10.4327L10.4225 15.1613C10.2263 15.1693 10.0372 15.2371 9.88071 15.3557C9.72402 15.4745 9.60763 15.6384 9.547 15.825C9.48631 16.0119 9.48435 16.2128 9.54138 16.4008C9.59718 16.5848 9.70688 16.7478 9.85625 16.8688L12.5222 19.1588L12.5306 19.1654C12.5348 19.1687 12.5379 19.1732 12.5395 19.1781C12.5408 19.1821 12.5411 19.1862 12.5405 19.1903L11.3849 22.7713L11.3822 22.7811C11.3296 22.9702 11.3362 23.1709 11.401 23.3561C11.4658 23.5413 11.5857 23.7022 11.7446 23.8173C11.9036 23.9324 12.0939 23.996 12.2899 23.9998C12.4857 24.0037 12.6783 23.9477 12.8419 23.8388L12.8464 23.8357L16.0008 21.6847L19.1551 23.8357L19.1597 23.8388C19.3232 23.9477 19.5159 24.0037 19.7117 23.9998C19.9076 23.996 20.0979 23.9324 20.2569 23.8173C20.4158 23.7022 20.5358 23.5413 20.6006 23.3561C20.6654 23.1709 20.6719 22.9702 20.6193 22.7811L20.6166 22.7714L19.4578 19.1747L22.1452 16.8689C22.2946 16.7479 22.4043 16.5848 22.4602 16.4008C22.5172 16.2128 22.5152 16.0119 22.4545 15.825C22.3939 15.6384 22.2775 15.4745 22.1208 15.3557C21.9643 15.2371 21.7752 15.1693 21.579 15.1613L21.5688 15.1609H18.1508L16.9045 11.6353L16.9023 11.6292C16.8343 11.4445 16.7113 11.2852 16.5499 11.1727C16.3883 11.0601 16.1963 11 15.9998 11Z" fill="#0F0F0F"/>
</svg>
