<svg width="32" height="32" viewBox="0 0 32 32" fill="none" xmlns="http://www.w3.org/2000/svg">
<path d="M21.9998 29C22.6902 29 23.2498 28.4404 23.2498 27.75C23.2498 27.0597 22.6902 26.5 21.9998 26.5C21.3095 26.5 20.7498 27.0597 20.7498 27.75C20.7498 28.4404 21.3095 29 21.9998 29Z" fill="#0F0F0F"/>
<path d="M21.9995 15.9998C20.939 16.0009 19.9222 16.4227 19.1723 17.1726C18.4223 17.9225 18.0006 18.9393 17.9995 19.9998C17.9995 20.265 18.1049 20.5194 18.2924 20.7069C18.4799 20.8945 18.7343 20.9998 18.9995 20.9998C19.2647 20.9998 19.5191 20.8945 19.7066 20.7069C19.8942 20.5194 19.9995 20.265 19.9995 19.9998C19.9995 19.6043 20.1168 19.2176 20.3366 18.8887C20.5563 18.5598 20.8687 18.3034 21.2341 18.1521C21.5996 18.0007 22.0017 17.9611 22.3897 18.0383C22.7777 18.1154 23.134 18.3059 23.4137 18.5856C23.6934 18.8653 23.8839 19.2217 23.9611 19.6096C24.0383 19.9976 23.9986 20.3997 23.8473 20.7652C23.6959 21.1307 23.4395 21.443 23.1107 21.6628C22.7818 21.8825 22.3951 21.9998 21.9995 21.9998C21.8682 21.9998 21.7381 22.0256 21.6167 22.0758C21.4954 22.126 21.3851 22.1997 21.2922 22.2926C21.1994 22.3854 21.1257 22.4957 21.0755 22.6171C21.0252 22.7384 20.9994 22.8685 20.9995 22.9998V23.9998C20.9995 24.265 21.1049 24.5194 21.2924 24.7069C21.4799 24.8945 21.7343 24.9998 21.9995 24.9998C22.2647 24.9998 22.5191 24.8945 22.7066 24.7069C22.8942 24.5194 22.9995 24.265 22.9995 23.9998V23.8728C23.9422 23.6294 24.7637 23.0506 25.3102 22.2448C25.8566 21.4391 26.0904 20.4616 25.9677 19.4958C25.845 18.53 25.3743 17.6421 24.6438 16.9985C23.9133 16.3549 22.9731 15.9998 21.9995 15.9998Z" fill="#0F0F0F"/>
<path d="M22.9995 4.99983V3.0008C22.9995 2.73558 22.8942 2.48123 22.7066 2.29369C22.5191 2.10616 22.2647 2.0008 21.9995 2.0008C21.7343 2.0008 21.4799 2.10616 21.2924 2.29369C21.1049 2.48123 20.9995 2.73558 20.9995 3.0008V4.9998H10.9995V3.0008C10.9995 2.73558 10.8942 2.48123 10.7066 2.29369C10.5191 2.10616 10.2647 2.0008 9.99951 2.0008C9.73429 2.0008 9.47994 2.10616 9.2924 2.29369C9.10487 2.48123 8.99951 2.73558 8.99951 3.0008V4.9998C7.67391 5.00136 6.40304 5.52865 5.4657 6.46599C4.52836 7.40333 4.00107 8.6742 3.99951 9.9998V23.9998C4.00107 25.3254 4.52836 26.5963 5.4657 27.5336C6.40304 28.471 7.67391 28.9982 8.99951 28.9998H13.9995C14.2647 28.9998 14.5191 28.8944 14.7066 28.7069C14.8942 28.5194 14.9995 28.265 14.9995 27.9998C14.9995 27.7346 14.8942 27.4802 14.7066 27.2927C14.5191 27.1052 14.2647 26.9998 13.9995 26.9998H8.99951C8.20413 26.9989 7.44157 26.6826 6.87915 26.1202C6.31673 25.5577 6.00038 24.7952 5.99951 23.9998V13.0018H25.9995V14.9998C25.9995 15.265 26.1049 15.5194 26.2924 15.7069C26.4799 15.8944 26.7343 15.9998 26.9995 15.9998C27.2647 15.9998 27.5191 15.8944 27.7066 15.7069C27.8942 15.5194 27.9995 15.265 27.9995 14.9998V9.9998C27.9979 8.6742 27.4707 7.40334 26.5333 6.46601C25.596 5.52867 24.3251 5.00139 22.9995 4.99983ZM5.99951 11.0018V9.99983C6.00038 9.20445 6.31673 8.44189 6.87915 7.87947C7.44157 7.31705 8.20413 7.0007 8.99951 6.99983H22.9995C23.7949 7.0007 24.5574 7.31705 25.1199 7.87947C25.6823 8.44189 25.9986 9.20445 25.9995 9.99983V11.0018H5.99951Z" fill="#0F0F0F"/>
</svg>
