<svg width="32" height="32" viewBox="0 0 32 32" fill="none" xmlns="http://www.w3.org/2000/svg">
<path d="M26.7554 25.7801C25.9554 25.8518 25.1507 25.7088 24.4244 25.366C23.5704 24.9672 22.8597 24.3155 22.3886 23.4992C21.9175 22.6829 21.7087 21.7415 21.7906 20.8026C21.8577 20.0024 22.1361 19.2344 22.5971 18.577C22.6783 18.4604 22.7213 18.3216 22.7202 18.1796C22.7192 18.0376 22.6741 17.8994 22.5913 17.784C22.5102 17.6682 22.3945 17.5812 22.2607 17.5354C22.127 17.4896 21.9822 17.4874 21.8471 17.5291C21.0346 17.7684 20.2869 18.1889 19.6605 18.7591C19.0341 19.3292 18.5452 20.0341 18.2307 20.8206C17.9162 21.6071 17.7843 22.4547 17.8449 23.2996C17.9055 24.1445 18.1571 24.9646 18.5806 25.6981C19.0042 26.4317 19.5887 27.0595 20.2901 27.5344C20.9915 28.0093 21.7916 28.3188 22.63 28.4396C23.4684 28.5604 24.3232 28.4894 25.1302 28.2319C25.9371 27.9744 26.6751 27.5371 27.2886 26.953C27.3915 26.8565 27.4616 26.7301 27.4887 26.5917C27.5159 26.4532 27.4988 26.3097 27.4399 26.1815C27.3815 26.0519 27.2842 25.9437 27.1616 25.8718C27.0389 25.7999 26.897 25.7678 26.7554 25.7801ZM21.5298 27.0926C20.7434 26.737 20.0729 26.1673 19.595 25.4486C19.1171 24.73 18.8511 23.8913 18.8274 23.0286C18.8036 22.1658 19.0231 21.3138 19.4608 20.57C19.8984 19.8261 20.5366 19.2204 21.3022 18.8221C20.9197 19.639 20.7401 20.5361 20.7787 21.4373C20.8173 22.3385 21.0729 23.217 21.5238 23.9982C21.9747 24.7794 22.6076 25.4402 23.3686 25.9243C24.1297 26.4085 24.9963 26.7017 25.895 26.7791C25.2499 27.1878 24.5136 27.4303 23.7518 27.485C22.9901 27.5397 22.2267 27.4049 21.5298 27.0926Z" fill="#0F0F0F"/>
<path d="M23.0005 5.49983H22.5005V3.0008C22.5005 2.86819 22.4478 2.74102 22.354 2.64725C22.2603 2.55348 22.1331 2.5008 22.0005 2.5008C21.8679 2.5008 21.7407 2.55348 21.6469 2.64725C21.5532 2.74102 21.5005 2.86819 21.5005 3.0008V5.4998H10.5005V3.0008C10.5005 2.86819 10.4478 2.74102 10.354 2.64725C10.2603 2.55348 10.1331 2.5008 10.0005 2.5008C9.86788 2.5008 9.7407 2.55348 9.64693 2.64725C9.55317 2.74102 9.50049 2.86819 9.50049 3.0008V5.4998H9.00049C7.80741 5.5011 6.66358 5.97563 5.81995 6.81926C4.97631 7.66289 4.50179 8.80673 4.50049 9.9998V23.9998C4.50179 25.1929 4.97632 26.3367 5.81995 27.1803C6.66358 28.024 7.80742 28.4985 9.00049 28.4998H14.0005C14.1331 28.4998 14.2603 28.4471 14.354 28.3534C14.4478 28.2596 14.5005 28.1324 14.5005 27.9998C14.5005 27.8672 14.4478 27.74 14.354 27.6462C14.2603 27.5525 14.1331 27.4998 14.0005 27.4998H9.00049C8.07258 27.4987 7.18299 27.1296 6.52685 26.4734C5.87072 25.8173 5.50161 24.9277 5.50049 23.9998V12.5018H26.4565C26.4721 12.5018 26.4852 12.4944 26.5005 12.493V16.9998C26.5005 17.1325 26.5532 17.2596 26.6469 17.3534C26.7407 17.4472 26.8679 17.4998 27.0005 17.4998C27.1331 17.4998 27.2603 17.4472 27.354 17.3534C27.4478 17.2596 27.5005 17.1325 27.5005 16.9998V9.99985C27.4992 8.80677 27.0247 7.66293 26.181 6.81929C25.3374 5.97566 24.1936 5.50113 23.0005 5.49983ZM26.4565 11.5018H5.50049V9.99983C5.50161 9.07192 5.87072 8.18233 6.52685 7.5262C7.18299 6.87006 8.07258 6.50095 9.00049 6.49983H23.0005C23.9284 6.50095 24.818 6.87006 25.4741 7.5262C26.1303 8.18233 26.4994 9.07192 26.5005 9.99983V11.5106C26.4852 11.5092 26.4721 11.5018 26.4565 11.5018Z" fill="#0F0F0F"/>
</svg>
