<svg width="32" height="32" viewBox="0 0 32 32" fill="none" xmlns="http://www.w3.org/2000/svg">
<path d="M9.99035 27.2385C11.8392 28.2268 13.9033 28.7438 15.9998 28.7438C18.5216 28.7455 20.9871 27.9989 23.0844 26.5987C23.5719 26.2732 24.0344 25.9159 24.4693 25.5297L28.4695 29.53C28.539 29.5998 28.6217 29.6551 28.7127 29.6928C28.8037 29.7305 28.9013 29.7499 28.9998 29.7497C29.1481 29.7497 29.2931 29.7057 29.4164 29.6233C29.5397 29.5408 29.6358 29.4237 29.6926 29.2867C29.7493 29.1497 29.7642 28.9989 29.7353 28.8534C29.7063 28.7079 29.6349 28.5743 29.5301 28.4694L25.5303 24.4697C26.4711 23.4121 27.2341 22.1994 27.7817 20.8778C28.747 18.5481 28.9993 15.9844 28.5069 13.5112C28.0145 11.0379 26.7994 8.7664 25.0154 6.98407C23.5333 5.50136 21.7083 4.40709 19.7023 3.79819C17.6962 3.18928 15.5709 3.08454 13.5147 3.49324C11.4584 3.90195 9.53473 4.81148 7.91398 6.14126C6.29324 7.47105 5.02548 9.18003 4.22302 11.1168C3.42056 13.0536 3.10815 15.1584 3.31349 17.2448C3.51883 19.3312 4.23557 21.3347 5.40022 23.0779C6.56487 24.8211 8.14147 26.2502 9.99035 27.2385ZM23.9591 23.9506L23.9549 23.9548L23.9513 23.9584C22.6547 25.2524 21.053 26.2183 19.279 26.7577C16.7902 27.5143 14.116 27.3846 11.7121 26.3907C9.30818 25.3968 7.32324 23.6001 6.09545 21.3068C4.86766 19.0135 4.473 16.3655 4.97869 13.8138C5.48438 11.2622 6.85915 8.96477 8.86876 7.31306C10.8784 5.66136 13.3985 4.75752 15.9998 4.75555C17.477 4.75301 18.9402 5.04226 20.3054 5.60669C21.6705 6.17112 22.9108 6.99962 23.9549 8.04462C25.7952 9.88302 26.9413 12.3026 27.1977 14.8913C27.4541 17.4799 26.8051 20.0773 25.3612 22.2411C24.9486 22.8594 24.4784 23.4313 23.9591 23.9506Z" fill="#0F0F0F"/>
</svg>
