<svg width="32" height="32" viewBox="0 0 32 32" fill="none" xmlns="http://www.w3.org/2000/svg">
<path d="M16.0002 2.49988C13.3302 2.49988 10.7201 3.29164 8.50005 4.77504C6.27999 6.25844 4.54966 8.36685 3.52788 10.8337C2.50609 13.3005 2.23875 16.0149 2.75965 18.6336C3.28055 21.2523 4.5663 23.6578 6.45431 25.5458C8.34232 27.4338 10.7478 28.7196 13.3665 29.2405C15.9853 29.7614 18.6997 29.494 21.1665 28.4723C23.6333 27.4505 25.7417 25.7201 27.2251 23.5001C28.7085 21.28 29.5002 18.6699 29.5002 15.9999C29.4963 12.4207 28.0728 8.98915 25.5419 6.45825C23.011 3.92736 19.5795 2.50379 16.0002 2.49988ZM16.0002 28.4999C13.528 28.4999 11.1112 27.7668 9.05562 26.3932C7.00001 25.0197 5.39785 23.0675 4.45176 20.7834C3.50566 18.4993 3.25812 15.986 3.74043 13.5613C4.22275 11.1365 5.41326 8.9092 7.16142 7.16105C8.90957 5.41289 11.1369 4.22238 13.5616 3.74006C15.9864 3.25775 18.4997 3.50529 20.7838 4.45139C23.0679 5.39748 25.0201 6.99964 26.3936 9.05525C27.7671 11.1109 28.5002 13.5276 28.5002 15.9999C28.4965 19.3139 27.1784 22.4912 24.835 24.8346C22.4916 27.178 19.3143 28.4962 16.0002 28.4999Z" fill="#0F0F0F"/>
<path d="M18.846 14.3466H18.4231V12.9237C18.4238 12.6051 18.3617 12.2895 18.2403 11.995C18.1189 11.7004 17.9406 11.4327 17.7156 11.2072C17.4906 10.9816 17.2233 10.8027 16.929 10.6805C16.6348 10.5584 16.3194 10.4955 16.0008 10.4955C15.6822 10.4954 15.3667 10.5582 15.0724 10.6802C14.7781 10.8022 14.5108 10.981 14.2857 11.2065C14.0606 11.4319 13.8822 11.6996 13.7606 11.9941C13.6391 12.2886 13.5768 12.6041 13.5774 12.9227V14.3465H13.1536C12.7559 14.347 12.3746 14.5051 12.0934 14.7864C11.8122 15.0676 11.654 15.4488 11.6536 15.8465V19.9999C11.654 20.3976 11.8122 20.7788 12.0934 21.06C12.3746 21.3413 12.7559 21.4994 13.1536 21.4999H18.846C19.2437 21.4994 19.6249 21.3413 19.9062 21.06C20.1874 20.7788 20.3455 20.3976 20.346 19.9999V15.8466C20.3455 15.4489 20.1874 15.0676 19.9061 14.7864C19.6249 14.5052 19.2437 14.347 18.846 14.3466ZM14.5774 12.9227C14.577 12.7356 14.6135 12.5502 14.6848 12.3771C14.7562 12.2041 14.861 12.0468 14.9932 11.9143C15.1254 11.7819 15.2825 11.6768 15.4553 11.6051C15.6282 11.5334 15.8136 11.4966 16.0008 11.4966C16.1879 11.4967 16.3732 11.5337 16.5461 11.6055C16.7189 11.6773 16.8759 11.7825 17.008 11.9151C17.1402 12.0476 17.2448 12.205 17.3161 12.378C17.3873 12.5511 17.4237 12.7366 17.4231 12.9237V14.3466H14.5774V12.9227ZM19.346 19.9999C19.3457 20.1324 19.2929 20.2594 19.1992 20.3531C19.1055 20.4469 18.9785 20.4996 18.846 20.4999H13.1536C13.021 20.4996 12.894 20.4469 12.8003 20.3531C12.7066 20.2594 12.6538 20.1324 12.6536 19.9999V15.8466C12.6538 15.714 12.7066 15.587 12.8003 15.4933C12.894 15.3996 13.021 15.3468 13.1536 15.3466H18.846C18.9785 15.3468 19.1055 15.3996 19.1992 15.4933C19.2929 15.587 19.3457 15.714 19.346 15.8466V19.9999Z" fill="#0F0F0F"/>
</svg>
