<svg width="32" height="32" viewBox="0 0 32 32" fill="none" xmlns="http://www.w3.org/2000/svg">
<path d="M28.5264 3.83899L24.9595 1.86731C24.5165 1.62677 24.0127 1.5 23.4995 1.5C22.9864 1.5 22.4826 1.62677 22.0396 1.86731L18.4736 3.83899C18.3284 3.92175 18.2086 4.03796 18.126 4.17635C18.0433 4.31475 18.0005 4.47063 18.0018 4.6289V5.61068C17.9671 7.38044 18.4338 9.12758 19.3551 10.6769C20.2764 12.2263 21.62 13.5234 23.2511 14.4383C23.3268 14.4787 23.4127 14.5 23.5 14.5C23.5874 14.5 23.6732 14.4787 23.749 14.4383C25.3801 13.5235 26.7237 12.2263 27.645 10.677C28.5663 9.1276 29.033 7.38044 28.9982 5.61068V4.6289C28.9995 4.47064 28.9567 4.31476 28.874 4.17637C28.7914 4.03797 28.6717 3.92176 28.5264 3.83899Z" fill="#0F0F0F"/>
<path d="M24.2129 19.5157C23.8862 19.1895 23.4983 18.9309 23.0715 18.7546C22.6447 18.5784 22.1874 18.4879 21.7256 18.4885C21.2639 18.489 20.8068 18.5805 20.3804 18.7578C19.954 18.9351 19.5668 19.1946 19.2408 19.5216C19.2408 19.5216 18.0839 20.7005 17.569 21.22C15.7873 21.1464 14.0985 20.405 12.8383 19.1432C11.5782 17.8814 10.8391 16.1916 10.7678 14.4097C11.2097 13.9714 12.1263 13.0683 12.3945 12.8041L12.4698 12.7299C13.1286 12.0701 13.4986 11.1759 13.4986 10.2435C13.4986 9.31108 13.1286 8.4168 12.4698 7.75701L9.71548 4.99901C9.0444 4.35759 8.15183 3.99963 7.22352 3.99963C6.2952 3.99963 5.40264 4.35759 4.73156 4.99901L3.25916 6.47342C1.25134 8.48294 0.763776 15.5035 8.62023 23.3704C13.6198 28.3776 18.2774 29.9997 21.5212 29.9997C22.9578 30.1001 24.3787 29.6495 25.4949 28.7396L26.9673 27.2652C27.6285 26.6032 28 25.7057 28 24.77C28 23.8342 27.6285 22.9367 26.9673 22.2747L24.2129 19.5157Z" fill="#0F0F0F"/>
</svg>
