<svg width="32" height="32" viewBox="0 0 32 32" fill="none" xmlns="http://www.w3.org/2000/svg">
<path d="M23.0005 12.0001H22.0015V8.45422C22.0015 4.77453 19.4214 2.00012 16.0005 2.00012C12.5806 2.00012 10.0025 4.77453 10.0025 8.45422V12.0001H9.00049C7.93994 12.0012 6.92313 12.4229 6.17321 13.1728C5.42329 13.9228 5.00153 14.9396 5.00049 16.0001V26.0001C5.00155 27.0607 5.42331 28.0775 6.17323 28.8274C6.92315 29.5773 7.93995 29.9991 9.00049 30.0001H23.0005C24.061 29.9991 25.0778 29.5773 25.8277 28.8274C26.5777 28.0775 26.9994 27.0607 27.0005 26.0001V16.0001C26.9994 14.9396 26.5777 13.9228 25.8277 13.1729C25.0778 12.4229 24.061 12.0012 23.0005 12.0001ZM12.0025 8.45422C12.0025 5.87316 13.6841 4.00012 16.0005 4.00012C18.3188 4.00012 20.0015 5.87312 20.0015 8.45422V12.0001H12.0025V8.45422ZM25.0005 26.0001C24.9998 26.5303 24.7889 27.0387 24.4139 27.4136C24.039 27.7885 23.5307 27.9994 23.0005 28.0001H9.00049C8.47027 27.9994 7.96196 27.7885 7.58703 27.4136C7.21211 27.0387 7.00118 26.5303 7.00049 26.0001V16.0001C7.00118 15.4699 7.21211 14.9616 7.58703 14.5867C7.96196 14.2117 8.47027 14.0008 9.00049 14.0001H23.0005C23.5307 14.0008 24.039 14.2117 24.4139 14.5867C24.7889 14.9616 24.9998 15.4699 25.0005 16.0001V26.0001Z" fill="#0F0F0F"/>
</svg>
