<svg width="32" height="32" viewBox="0 0 32 32" fill="none" xmlns="http://www.w3.org/2000/svg">
<path d="M23.0005 12.5001H21.5015V8.45422C21.5015 5.00402 19.188 2.50012 16.0005 2.50012C12.8149 2.50012 10.5025 5.00402 10.5025 8.45422V12.5001H9.00049C8.07258 12.5012 7.18299 12.8704 6.52686 13.5265C5.87072 14.1826 5.50161 15.0722 5.50049 16.0001V26.0001C5.50162 26.928 5.87073 27.8176 6.52686 28.4737C7.18299 29.1299 8.07258 29.499 9.00049 29.5001H23.0005C23.9284 29.499 24.818 29.1299 25.4741 28.4738C26.1303 27.8176 26.4994 26.928 26.5005 26.0001V16.0001C26.4994 15.0722 26.1303 14.1826 25.4741 13.5265C24.818 12.8704 23.9284 12.5012 23.0005 12.5001ZM11.5025 8.45422C11.5025 5.5841 13.3941 3.50012 16.0005 3.50012C18.6089 3.50012 20.5015 5.58412 20.5015 8.45422V12.5001H11.5025V8.45422ZM25.5005 26.0001C25.4999 26.663 25.2363 27.2985 24.7676 27.7672C24.2989 28.2359 23.6633 28.4995 23.0005 28.5001H9.00049C8.33764 28.4995 7.70211 28.2359 7.2334 27.7672C6.76469 27.2985 6.5011 26.663 6.50049 26.0001V16.0001C6.5011 15.3373 6.76469 14.7017 7.2334 14.233C7.70211 13.7643 8.33764 13.5007 9.00049 13.5001H23.0005C23.6633 13.5007 24.2989 13.7643 24.7676 14.233C25.2363 14.7017 25.4999 15.3373 25.5005 16.0001V26.0001Z" fill="#0F0F0F"/>
</svg>
