<svg width="32" height="32" viewBox="0 0 32 32" fill="none" xmlns="http://www.w3.org/2000/svg">
<path d="M16 29.0801C9.03027 29.0801 3.2666 23.3164 3.2666 16.3467C3.2666 9.37695 9.01758 3.61328 15.9873 3.61328C22.9697 3.61328 28.7334 9.37695 28.7334 16.3467C28.7334 23.3164 22.9697 29.0801 16 29.0801ZM16 27.4424C22.1445 27.4424 27.0957 22.4912 27.0957 16.3467C27.083 10.2021 22.1318 5.26367 15.9873 5.26367C9.85547 5.26367 4.91699 10.2021 4.91699 16.3467C4.91699 22.4912 9.85547 27.4424 16 27.4424ZM12.5088 22.7959C11.5947 22.7959 11.1631 22.3516 11.1631 21.374V15.9912C11.1631 15.0771 11.5312 14.6328 12.3057 14.5693V12.9316C12.3057 10.3672 13.8926 8.79297 16 8.79297C18.1074 8.79297 19.6943 10.3672 19.6943 12.9316V14.5566C20.4688 14.6201 20.8369 15.0771 20.8369 15.9912V21.374C20.8369 22.3516 20.4053 22.7959 19.4912 22.7959H12.5088ZM13.3975 12.8301V14.5566H18.6025V12.8301C18.6025 11.0527 17.5615 9.85938 16 9.85938C14.4385 9.85938 13.3975 11.0527 13.3975 12.8301Z" fill="black"/>
</svg>
