<svg width="32" height="32" viewBox="0 0 32 32" fill="none" xmlns="http://www.w3.org/2000/svg">
<path d="M16.0002 1.99988C13.2313 1.99988 10.5246 2.82096 8.22227 4.3593C5.91998 5.89764 4.12556 8.08414 3.06594 10.6423C2.00631 13.2005 1.72906 16.0154 2.26926 18.7311C2.80945 21.4469 4.14282 23.9414 6.10076 25.8994C8.05869 27.8573 10.5533 29.1907 13.269 29.7309C15.9847 30.2711 18.7997 29.9938 21.3578 28.9342C23.916 27.8746 26.1025 26.0801 27.6408 23.7779C29.1792 21.4756 30.0002 18.7688 30.0002 15.9999C29.9961 12.2881 28.5198 8.72959 25.8951 6.10498C23.2705 3.48037 19.712 2.00404 16.0002 1.99988ZM16.0002 27.9999C13.6269 27.9999 11.3068 27.2961 9.33341 25.9775C7.36002 24.6589 5.82195 22.7848 4.9137 20.5921C4.00544 18.3994 3.7678 15.9866 4.23083 13.6588C4.69385 11.331 5.83674 9.19283 7.51497 7.5146C9.1932 5.83637 11.3314 4.69348 13.6592 4.23045C15.9869 3.76743 18.3997 4.00507 20.5925 4.91332C22.7852 5.82158 24.6593 7.35965 25.9779 9.33304C27.2965 11.3064 28.0002 13.6265 28.0002 15.9999C27.9968 19.1814 26.7314 22.2316 24.4817 24.4813C22.232 26.731 19.1818 27.9964 16.0002 27.9999Z" fill="#0F0F0F"/>
<path d="M18.9231 13.8544V12.9237C18.9239 12.5394 18.8489 12.1588 18.7024 11.8035C18.5559 11.4482 18.3407 11.1253 18.0693 10.8533C17.7979 10.5813 17.4754 10.3654 17.1205 10.2182C16.7656 10.0709 16.3851 9.99503 16.0008 9.99496C15.6165 9.9949 15.2359 10.0706 14.881 10.2178C14.526 10.3649 14.2035 10.5807 13.9319 10.8526C13.6604 11.1245 13.4452 11.4473 13.2985 11.8026C13.1519 12.1578 13.0768 12.5384 13.0774 12.9227V13.8542C12.5615 13.8736 12.0731 14.0918 11.7145 14.4632C11.3559 14.8345 11.1549 15.3303 11.1536 15.8465V19.9999C11.1543 20.5301 11.3652 21.0384 11.7401 21.4133C12.1151 21.7882 12.6234 21.9992 13.1536 21.9999H18.846C19.3762 21.9992 19.8845 21.7882 20.2594 21.4133C20.6343 21.0384 20.8453 20.5301 20.846 19.9999V15.8466C20.8447 15.3305 20.6438 14.8349 20.2854 14.4636C19.927 14.0923 19.4388 13.874 18.9231 13.8544ZM15.0774 12.9227C15.0771 12.8013 15.1007 12.681 15.147 12.5687C15.1932 12.4564 15.2612 12.3543 15.347 12.2684C15.4328 12.1824 15.5347 12.1142 15.6469 12.0677C15.7591 12.0212 15.8793 11.9973 16.0008 11.9974C16.1222 11.9974 16.2424 12.0215 16.3546 12.0681C16.4667 12.1147 16.5686 12.183 16.6542 12.2691C16.7399 12.3551 16.8078 12.4573 16.8539 12.5696C16.9001 12.6819 16.9236 12.8023 16.9231 12.9237V13.8466H15.0774L15.0774 12.9227ZM13.1536 19.9999V15.8466H18.846L18.848 19.9999H13.1536Z" fill="#0F0F0F"/>
</svg>
