<svg width="32" height="32" viewBox="0 0 32 32" fill="none" xmlns="http://www.w3.org/2000/svg">
<path d="M11 26C5.47715 26 1 21.5228 1 16C1 10.4772 5.47715 6 11 6C12.8214 6 14.5291 6.48697 16 7.33782C17.4709 6.48697 19.1786 6 21 6C26.5228 6 31 10.4772 31 16C31 21.5228 26.5228 26 21 26C19.1786 26 17.4709 25.513 16 24.6622C14.5291 25.513 12.8214 26 11 26ZM11 8C6.58172 8 3 11.5817 3 16C3 20.4183 6.58172 24 11 24C12.1384 24 13.2212 23.7622 14.2016 23.3336C12.2324 21.5073 11 18.8976 11 16C11 13.1024 12.2324 10.4927 14.2016 8.66636C13.2212 8.23777 12.1384 8 11 8ZM21 8C19.8616 8 18.7788 8.23777 17.7984 8.66636C19.7676 10.4927 21 13.1024 21 16C21 18.8976 19.7676 21.5073 17.7984 23.3336C18.7788 23.7622 19.8616 24 21 24C25.4183 24 29 20.4183 29 16C29 11.5817 25.4183 8 21 8Z" fill="#0F0F0F"/>
</svg>
