<svg width="32" height="32" viewBox="0 0 32 32" fill="none" xmlns="http://www.w3.org/2000/svg">
<path d="M15.9873 6.46973C17.1299 6.46973 18.2217 6.66016 19.2627 7.00293L19.9102 5.39062C18.6787 4.95898 17.3584 4.71777 15.9873 4.71777C14.6162 4.71777 13.2705 4.95898 12.0391 5.39062L12.7119 7.00293C13.7402 6.64746 14.8447 6.46973 15.9873 6.46973ZM25.2549 12.1826L26.8545 11.5352C25.6611 9.12305 23.6934 7.15527 21.2939 5.96191L20.6338 7.56152C22.627 8.55176 24.2646 10.1768 25.2549 12.1826ZM11.3281 7.56152L10.668 5.9873C8.26855 7.16797 6.30078 9.12305 5.12012 11.5352L6.71973 12.1953C7.70996 10.1895 9.33496 8.56445 11.3281 7.56152ZM26.3594 16.8418C26.3594 17.9844 26.1689 19.0889 25.8389 20.1172L27.4385 20.7773C27.8574 19.5459 28.0986 18.2129 28.0986 16.8418C28.0986 15.4707 27.8574 14.1377 27.4385 12.9062L25.8389 13.5664C26.1816 14.5947 26.3594 15.6992 26.3594 16.8418ZM5.62793 16.8418C5.62793 15.6992 5.81836 14.5947 6.14844 13.5791L4.53613 12.9062C4.11719 14.1377 3.87598 15.4707 3.87598 16.8418C3.87598 18.2129 4.11719 19.5332 4.54883 20.7646L6.14844 20.1045C5.81836 19.0889 5.62793 17.9844 5.62793 16.8418ZM20.6338 26.1094L21.2939 27.709C23.6934 26.5156 25.6738 24.5479 26.8418 22.1484L25.2676 21.4883C24.2646 23.4941 22.6396 25.1191 20.6338 26.1094ZM6.71973 21.4883L5.13281 22.1484C6.31348 24.5479 8.26855 26.5156 10.6807 27.6963L11.3281 26.1094C9.33496 25.1064 7.70996 23.4814 6.71973 21.4883ZM15.9873 27.2012C14.8447 27.2012 13.7402 27.0234 12.7119 26.6807L12.0518 28.2803C13.2832 28.7119 14.6162 28.9531 15.9873 28.9531C17.3584 28.9531 18.6787 28.7119 19.9229 28.293L19.25 26.6934C18.2217 27.0234 17.1299 27.2012 15.9873 27.2012Z" fill="black"/>
</svg>
