<svg width="32" height="32" viewBox="0 0 32 32" fill="none" xmlns="http://www.w3.org/2000/svg">
<path d="M12.2812 20H10.6436C9.86608 18.8133 9.4673 17.4184 9.50002 16C9.46689 14.5823 9.86386 13.1877 10.6387 12H12.2901C13.1537 11.9722 13.9725 11.6084 14.572 10.9861C15.1715 10.3638 15.5045 9.53211 15.5001 8.668V5.22847C15.4991 4.3725 15.1586 3.55187 14.5534 2.94662C13.9481 2.34137 13.1274 2.00093 12.2715 2H10.8047C8.25781 2 3.5 6.10644 3.5 16C3.5 25.8936 8.25781 30 10.8047 30H12.2715C13.1274 29.9991 13.9481 29.6586 14.5533 29.0533C15.1586 28.4481 15.4991 27.6274 15.5 26.7715V23.2021C15.4967 22.351 15.1561 21.5359 14.5526 20.9356C13.9492 20.3353 13.1324 19.9988 12.2812 20Z" fill="#0F0F0F"/>
<path d="M30.207 21.2929L26.207 17.2929C26.0195 17.1054 25.7652 17.0001 25.5 17.0001C25.2348 17.0001 24.9805 17.1054 24.793 17.2929C24.6054 17.4805 24.5001 17.7348 24.5001 18C24.5001 18.2652 24.6055 18.5195 24.793 18.707L27.0859 21H19.5C19.2348 21 18.9804 21.1054 18.7929 21.2929C18.6054 21.4804 18.5 21.7348 18.5 22C18.5 22.2652 18.6054 22.5196 18.7929 22.7071C18.9804 22.8946 19.2348 23 19.5 23H27.0859L24.7929 25.293C24.6996 25.3857 24.6254 25.496 24.5748 25.6174C24.5241 25.7389 24.4979 25.8691 24.4977 26.0007C24.4975 26.1323 24.5233 26.2627 24.5735 26.3843C24.6238 26.5059 24.6975 26.6164 24.7906 26.7094C24.8837 26.8025 24.9942 26.8762 25.1158 26.9265C25.2374 26.9767 25.3677 27.0025 25.4993 27.0023C25.6309 27.002 25.7612 26.9758 25.8826 26.9252C26.0041 26.8745 26.1143 26.8004 26.207 26.707L30.207 22.707C30.2999 22.6142 30.3736 22.5039 30.4239 22.3826C30.4741 22.2613 30.5 22.1313 30.5 22C30.5 21.8687 30.4741 21.7386 30.4239 21.6173C30.3736 21.496 30.2999 21.3858 30.207 21.2929Z" fill="#0F0F0F"/>
</svg>
