<svg width="32" height="32" viewBox="0 0 32 32" fill="none" xmlns="http://www.w3.org/2000/svg">
<path d="M12.2812 20.5H10.4277C9.44567 19.2103 8.94112 17.62 9 16C8.94063 14.3807 9.44335 12.7908 10.4229 11.5H12.29C13.0216 11.4739 13.7142 11.1634 14.2203 10.6344C14.7264 10.1055 15.0062 9.40003 15 8.668V5.22847C14.9993 4.50504 14.7116 3.81143 14.2001 3.2999C13.6885 2.78836 12.9949 2.50068 12.2715 2.5H10.8047C8.43168 2.5 4 6.46 4 16C4 25.54 8.43164 29.5 10.8047 29.5H12.2715C12.9949 29.4993 13.6885 29.2116 14.2001 28.7001C14.7116 28.1885 14.9993 27.4949 15 26.7715V23.2021C14.997 22.4835 14.7091 21.7954 14.1994 21.2889C13.6897 20.7823 12.9999 20.4986 12.2812 20.5ZM14 26.7715C13.9995 27.2298 13.8172 27.6691 13.4932 27.9932C13.1691 28.3172 12.7298 28.4995 12.2715 28.5H10.8047C9.09668 28.5 5 24.9033 5 16C5 7.09668 9.09668 3.5 10.8047 3.5H12.2715C12.7298 3.50051 13.1691 3.68279 13.4932 4.00683C13.8172 4.33088 13.9995 4.77024 14 5.22851V8.66793C14.0037 9.13417 13.8285 9.58407 13.5103 9.92492C13.1922 10.2658 12.7554 10.4716 12.29 10.4999H10.3369C9.33791 10.4999 8 13.2187 8 15.9999C8 18.7812 9.34082 21.4999 10.3418 21.4999H12.2812C12.7347 21.4983 13.1703 21.6766 13.4925 21.9957C13.8147 22.3148 13.9972 22.7486 14 23.2021V26.7715Z" fill="#0F0F0F"/>
<path d="M29.8535 21.6464L25.8535 17.6464C25.7595 17.5543 25.6328 17.5029 25.5011 17.5036C25.3694 17.5042 25.2432 17.5569 25.1501 17.65C25.057 17.7431 25.0043 17.8693 25.0037 18.001C25.003 18.1327 25.0543 18.2594 25.1465 18.3534L28.293 21.5H19.5C19.3674 21.5 19.2402 21.5527 19.1464 21.6465C19.0527 21.7402 19 21.8674 19 22C19 22.1326 19.0527 22.2598 19.1464 22.3536C19.2402 22.4473 19.3674 22.5 19.5 22.5H28.293L25.1465 25.6465C25.0993 25.6927 25.0618 25.7479 25.036 25.8087C25.0103 25.8696 24.9968 25.935 24.9965 26.001C24.9962 26.0671 25.0089 26.1326 25.0341 26.1937C25.0592 26.2548 25.0962 26.3104 25.1429 26.3571C25.1896 26.4038 25.2452 26.4408 25.3063 26.4659C25.3674 26.4911 25.4329 26.5038 25.499 26.5035C25.565 26.5032 25.6304 26.4897 25.6913 26.464C25.7521 26.4382 25.8073 26.4007 25.8535 26.3535L29.8535 22.3535C29.9 22.3071 29.9368 22.252 29.9619 22.1913C29.9871 22.1307 30 22.0656 30 22C30 21.9343 29.9871 21.8693 29.962 21.8086C29.9368 21.748 29.9 21.6929 29.8535 21.6464Z" fill="#0F0F0F"/>
</svg>
