<svg width="32" height="32" viewBox="0 0 32 32" fill="none" xmlns="http://www.w3.org/2000/svg">
<path d="M2.52403 28.8519C2.49491 28.9455 2.49395 29.0456 2.52128 29.1398C2.5486 29.2339 2.603 29.318 2.67771 29.3815C2.75243 29.4449 2.84415 29.485 2.94148 29.4968C3.03881 29.5086 3.13745 29.4915 3.22513 29.4476L28.1199 17H6.21453L2.52403 28.8519Z" fill="#0F0F0F"/>
<path d="M6.21453 15H28.1199L3.22513 2.5526C3.13745 2.50875 3.03881 2.49164 2.94148 2.5034C2.84415 2.51516 2.75243 2.55527 2.67771 2.61875C2.603 2.68223 2.5486 2.76628 2.52128 2.86043C2.49395 2.95458 2.49491 3.05469 2.52403 3.1483L6.21453 15Z" fill="#0F0F0F"/>
</svg>
