<svg width="32" height="32" viewBox="0 0 32 32" fill="none" xmlns="http://www.w3.org/2000/svg">
<path d="M22.0001 27.9996H10.0001C9.20475 27.9987 8.44219 27.6824 7.87977 27.1199C7.31735 26.5575 7.001 25.795 7.00014 24.9996V20.9996H16.7658L14.7658 18.9996H7.00014V11.234L5.00014 9.234V24.9996C5.00169 26.3252 5.52898 27.5961 6.46632 28.5334C7.40367 29.4707 8.67453 29.998 10.0001 29.9996H22.0001C23.0235 29.9988 24.0216 29.6817 24.8577 29.0916L23.4019 27.6357C22.9719 27.8711 22.4903 27.9961 22.0001 27.9996Z" fill="#0F0F0F"/>
<path d="M28.7072 27.2925L26.9464 25.5317C26.974 25.3555 26.9919 25.1778 27.0001 24.9996V6.99958C26.9986 5.67398 26.4713 4.40311 25.5339 3.46577C24.5966 2.52842 23.3257 2.00114 22.0001 1.99958H10.0001C9.15322 2.00149 8.32074 2.219 7.58113 2.63161C6.84153 3.04422 6.21915 3.63834 5.77266 4.358L4.70717 3.29255C4.51965 3.10503 4.26532 2.99969 4.00014 2.99969C3.73495 2.99969 3.48062 3.10503 3.29311 3.29255C3.10559 3.48007 3.00024 3.73439 3.00024 3.99958C3.00024 4.13089 3.02611 4.26091 3.07636 4.38222C3.12661 4.50353 3.20026 4.61376 3.29311 4.70661L27.2931 28.7066C27.3 28.7135 27.3093 28.7154 27.3164 28.722C27.5066 28.9029 27.7605 29.0015 28.023 28.9964C28.2854 28.9913 28.5353 28.8829 28.7183 28.6947C28.9014 28.5066 29.0029 28.2539 29.0008 27.9914C28.9987 27.7289 28.8932 27.4778 28.7072 27.2925ZM10.4044 8.98975C10.4368 8.99183 10.4676 8.99945 10.5006 8.99945C10.7972 8.99945 11.0872 8.91148 11.3339 8.74665C11.5806 8.58183 11.7729 8.34756 11.8864 8.07348C11.9999 7.79939 12.0296 7.49779 11.9717 7.20681C11.9139 6.91584 11.771 6.64857 11.5612 6.43879C11.3514 6.22901 11.0842 6.08615 10.7932 6.02827C10.5022 5.97039 10.2006 6.0001 9.92654 6.11363C9.65245 6.22716 9.41818 6.41942 9.25336 6.6661C9.08854 6.91277 9.00057 7.20278 9.00057 7.49945C9.00057 7.53245 9.00819 7.56324 9.01027 7.59565L7.24027 5.82565C7.47092 5.28445 7.85542 4.82289 8.34605 4.49827C8.83668 4.17364 9.41183 4.00024 10.0001 3.99958H22.0001C22.7955 4.00045 23.5581 4.3168 24.1205 4.87922C24.6829 5.44164 24.9993 6.2042 25.0001 6.99958V10.9996H12.4142L10.4044 8.98975ZM14.4142 12.9996H25.0001V18.9996H20.4142L14.4142 12.9996ZM22.4142 20.9996H25.0001V23.5855L22.4142 20.9996Z" fill="#0F0F0F"/>
</svg>
