<svg width="32" height="32" viewBox="0 0 32 32" fill="none" xmlns="http://www.w3.org/2000/svg">
<path d="M22 2.49958H10C8.80692 2.50088 7.66309 2.9754 6.81945 3.81904C5.97582 4.66267 5.5013 5.80651 5.5 6.99958V24.9996C5.5013 26.1927 5.97583 27.3365 6.81946 28.1801C7.66309 29.0238 8.80693 29.4983 10 29.4996H22C23.1931 29.4983 24.3369 29.0238 25.1805 28.1801C26.0242 27.3365 26.4987 26.1927 26.5 24.9996V6.99958C26.4987 5.80651 26.0242 4.66267 25.1805 3.81904C24.3369 2.97541 23.1931 2.50088 22 2.49958ZM6.5 12.4996H25.5V19.4996H6.5V12.4996ZM10 3.49958H22C22.9279 3.5007 23.8175 3.86981 24.4736 4.52595C25.1298 5.18208 25.4989 6.07167 25.5 6.99958V11.4996H6.5V6.99958C6.50112 6.07167 6.87023 5.18208 7.52637 4.52595C8.1825 3.86981 9.07209 3.5007 10 3.49958ZM22 28.4996H10C9.07209 28.4985 8.1825 28.1293 7.52637 27.4732C6.87023 26.8171 6.50112 25.9275 6.5 24.9996V20.4996H25.5V24.9996C25.4989 25.9275 25.1298 26.8171 24.4736 27.4732C23.8175 28.1293 22.9279 28.4985 22 28.4996Z" fill="#0F0F0F"/>
<path d="M10.4958 8.50013C11.0481 8.50013 11.4958 8.05242 11.4958 7.50013C11.4958 6.94785 11.0481 6.50013 10.4958 6.50013C9.94356 6.50013 9.49585 6.94785 9.49585 7.50013C9.49585 8.05242 9.94356 8.50013 10.4958 8.50013Z" fill="#0F0F0F"/>
</svg>
