<svg width="32" height="32" viewBox="0 0 32 32" fill="none" xmlns="http://www.w3.org/2000/svg">
<path d="M5.53906 27.7852H26.4609C28.873 27.7852 30.0791 26.5791 30.0791 24.2051V9.5166C30.0791 7.14258 28.873 5.92383 26.4609 5.92383H5.53906C3.12695 5.92383 1.9082 7.12988 1.9082 9.5166V24.2051C1.9082 26.5791 3.12695 27.7852 5.53906 27.7852ZM3.57129 9.60547C3.57129 8.27246 4.26953 7.58691 5.56445 7.58691H26.4229C27.6924 7.58691 28.4287 8.27246 28.4287 9.60547V12.7285H3.57129V9.60547ZM24.1504 11.6748C24.9502 11.6494 25.623 10.9893 25.623 10.1895C25.623 9.37695 24.9502 8.69141 24.1504 8.69141C23.3506 8.69141 22.665 9.37695 22.665 10.1895C22.665 10.9893 23.3506 11.6875 24.1504 11.6748ZM3.57129 19.4316V14.29H28.4287V19.4316H3.57129ZM24.1504 18.3145C24.9502 18.3018 25.623 17.6289 25.623 16.8291C25.623 16.0166 24.9502 15.3311 24.1504 15.3311C23.3506 15.3311 22.665 16.0166 22.665 16.8291C22.665 17.6289 23.3506 18.3271 24.1504 18.3145ZM5.56445 26.1348C4.26953 26.1348 3.57129 25.4492 3.57129 24.1162V20.9932H28.4287V24.1162C28.4287 25.4492 27.6924 26.1348 26.4229 26.1348H5.56445ZM24.1504 24.9668C24.9502 24.9414 25.623 24.2812 25.623 23.4814C25.623 22.6689 24.9502 21.9834 24.1504 21.9834C23.3506 21.9834 22.665 22.6689 22.665 23.4814C22.665 24.2812 23.3506 24.9795 24.1504 24.9668Z" fill="black"/>
</svg>
