<svg width="32" height="32" viewBox="0 0 32 32" fill="none" xmlns="http://www.w3.org/2000/svg">
<path d="M22.0001 28.2496H10.0001C9.1384 28.2486 8.31233 27.9059 7.70306 27.2966C7.09378 26.6873 6.75105 25.8612 6.75005 24.9996V20.7496H17.5902L16.0902 19.2496H6.75005V9.90958L5.25005 8.40964V24.9996C5.25148 26.2589 5.75238 27.4663 6.64287 28.3568C7.53336 29.2472 8.74071 29.7482 10.0001 29.7496H22.0001C23.2196 29.7479 24.3912 29.2747 25.2698 28.429L24.2095 27.3688C23.6119 27.9328 22.8218 28.2478 22.0001 28.2496Z" fill="#0F0F0F"/>
<path d="M10.5005 8.74945C11.1908 8.74945 11.7505 8.18981 11.7505 7.49945C11.7505 6.80909 11.1908 6.24945 10.5005 6.24945C9.81013 6.24945 9.25048 6.80909 9.25048 7.49945C9.25048 8.18981 9.81013 8.74945 10.5005 8.74945Z" fill="#0F0F0F"/>
<path d="M28.5303 27.4693L26.6868 25.6257C26.7219 25.4187 26.743 25.2095 26.7501 24.9996V6.99958C26.7486 5.74024 26.2477 4.53289 25.3572 3.6424C24.4667 2.75191 23.2594 2.25101 22.0001 2.24958H10.0001C9.14202 2.25267 8.30095 2.48883 7.56673 2.93284C6.8325 3.37685 6.23272 4.01201 5.83147 4.77045L4.53032 3.4693C4.39571 3.33287 4.21365 3.25365 4.02207 3.24815C3.8305 3.24265 3.64419 3.31129 3.50197 3.43977C3.35976 3.56824 3.27261 3.74664 3.25868 3.93779C3.24476 4.12894 3.30514 4.31809 3.42723 4.46582C3.44023 4.48792 3.45443 4.50928 3.46977 4.52982L27.4698 28.5298C27.4907 28.5455 27.5126 28.56 27.5351 28.5733C27.683 28.6953 27.8722 28.7555 28.0633 28.7414C28.2545 28.7273 28.4328 28.6399 28.5611 28.4976C28.6894 28.3552 28.7579 28.1688 28.7521 27.9772C28.7464 27.7857 28.6669 27.6037 28.5303 27.4693ZM6.95622 5.89521C7.18201 5.26839 7.59523 4.72625 8.13978 4.34239C8.68432 3.95853 9.33381 3.75156 10.0001 3.74958H22.0001C22.8617 3.75058 23.6878 4.0933 24.2971 4.70258C24.9063 5.31186 25.2491 6.13793 25.2501 6.99958V11.2496H12.3106L6.95622 5.89521ZM13.8106 12.7496H25.2501V19.2496H20.3106L13.8106 12.7496ZM21.8106 20.7496H25.2501V24.189L21.8106 20.7496Z" fill="#0F0F0F"/>
</svg>
