<svg width="32" height="32" viewBox="0 0 32 32" fill="none" xmlns="http://www.w3.org/2000/svg">
<path d="M23 1.99958C21.6155 1.99958 20.2622 2.41012 19.111 3.17929C17.9599 3.94846 17.0627 5.04171 16.5328 6.3208C16.003 7.59988 15.8644 9.00735 16.1345 10.3652C16.4046 11.7231 17.0713 12.9704 18.0503 13.9493C19.0292 14.9283 20.2765 15.595 21.6344 15.8651C22.9922 16.1352 24.3997 15.9966 25.6788 15.4667C26.9579 14.9369 28.0511 14.0397 28.8203 12.8886C29.5895 11.7374 30 10.3841 30 8.99958C29.9978 7.14373 29.2596 5.36451 27.9474 4.05222C26.6351 2.73994 24.8559 2.00174 23 1.99958ZM23 13.9996C22.0111 13.9996 21.0444 13.7063 20.2221 13.1569C19.3999 12.6075 18.759 11.8266 18.3806 10.913C18.0022 9.99937 17.9031 8.99403 18.0961 8.02413C18.289 7.05422 18.7652 6.16331 19.4645 5.46405C20.1637 4.76478 21.0546 4.28858 22.0245 4.09565C22.9945 3.90273 23.9998 4.00174 24.9134 4.38018C25.827 4.75862 26.6079 5.39948 27.1573 6.22173C27.7068 7.04397 28 8.01067 28 8.99958C27.9984 10.3252 27.4712 11.596 26.5338 12.5334C25.5965 13.4707 24.3256 13.998 23 13.9996Z" fill="#0F0F0F"/>
<path d="M23 4.99958C22.4933 4.99769 21.9945 5.12579 21.5515 5.37165C21.1084 5.61751 20.7358 5.97291 20.4692 6.40387C20.1882 6.8545 20.0273 7.36963 20.0019 7.90012C19.9765 8.4306 20.0875 8.95874 20.3242 9.43415L21.6436 12.1656L21.667 12.2125C21.7982 12.4512 21.9911 12.6503 22.2256 12.789C22.4601 12.9276 22.7276 13.0007 23 13.0006C23.2805 12.9984 23.5551 12.9196 23.794 12.7726C24.033 12.6256 24.2271 12.416 24.3555 12.1665L25.6758 9.4351C25.9137 8.95744 26.0256 8.42694 26.001 7.89389C25.9764 7.36085 25.816 6.84292 25.5352 6.38921C25.266 5.9608 24.8918 5.60827 24.4481 5.36507C24.0044 5.12187 23.506 4.99606 23 4.99958ZM23.875 8.56403L23 10.3765L22.1211 8.55719C22.0345 8.38563 21.9933 8.19474 22.0015 8.00274C22.0097 7.81074 22.067 7.62405 22.168 7.46051C22.2573 7.32 22.3805 7.20417 22.5262 7.12363C22.6719 7.0431 22.8355 7.00044 23.002 6.99956C23.1685 6.99869 23.3325 7.03963 23.4791 7.11863C23.6257 7.19763 23.75 7.31217 23.8408 7.45173C23.9406 7.61895 23.996 7.80883 24.002 8.00344C24.008 8.19805 23.9643 8.391 23.875 8.56403Z" fill="#0F0F0F"/>
<path d="M26 17.9996C25.8687 17.9995 25.7386 18.0253 25.6172 18.0755C25.4959 18.1258 25.3856 18.1994 25.2927 18.2923C25.1999 18.3852 25.1262 18.4954 25.076 18.6168C25.0257 18.7382 24.9999 18.8682 25 18.9996H7V12.9996H13C13.2652 12.9996 13.5196 12.8942 13.7071 12.7067C13.8946 12.5192 14 12.2648 14 11.9996C14 11.7344 13.8946 11.48 13.7071 11.2925C13.5196 11.1049 13.2652 10.9996 13 10.9996H7V6.99958C7.00087 6.2042 7.31722 5.44164 7.87964 4.87922C8.44206 4.3168 9.20462 4.00045 10 3.99958H15C15.2652 3.99958 15.5196 3.89422 15.7071 3.70669C15.8946 3.51915 16 3.2648 16 2.99958C16 2.73436 15.8946 2.48001 15.7071 2.29247C15.5196 2.10494 15.2652 1.99958 15 1.99958H10C8.6744 2.00114 7.40353 2.52842 6.46618 3.46577C5.52884 4.40311 5.00156 5.67398 5 6.99958V24.9996C5.00156 26.3252 5.52884 27.596 6.46619 28.5334C7.40353 29.4707 8.6744 29.998 10 29.9996H22C23.3256 29.998 24.5965 29.4707 25.5338 28.5334C26.4712 27.596 26.9984 26.3252 27 24.9996V18.9996C27.0001 18.8682 26.9743 18.7382 26.924 18.6168C26.8738 18.4954 26.8001 18.3852 26.7073 18.2923C26.6144 18.1994 26.5041 18.1258 26.3828 18.0755C26.2614 18.0253 26.1313 17.9995 26 17.9996ZM25 24.9996C24.9991 25.795 24.6828 26.5575 24.1204 27.1199C23.5579 27.6824 22.7954 27.9987 22 27.9996H10C9.20462 27.9987 8.44206 27.6824 7.87964 27.1199C7.31722 26.5575 7.00087 25.795 7 24.9996V20.9996H25V24.9996Z" fill="#0F0F0F"/>
<path d="M10.4958 9.00013C11.3243 9.00013 11.9958 8.32856 11.9958 7.50013C11.9958 6.6717 11.3243 6.00013 10.4958 6.00013C9.66742 6.00013 8.99585 6.6717 8.99585 7.50013C8.99585 8.32856 9.66742 9.00013 10.4958 9.00013Z" fill="#0F0F0F"/>
</svg>
