<svg width="32" height="32" viewBox="0 0 32 32" fill="none" xmlns="http://www.w3.org/2000/svg">
<path d="M14.8701 29.3213H17.1172C17.7646 29.3213 18.209 28.9531 18.3486 28.3057L18.9707 25.7158C19.4023 25.5635 19.8213 25.3984 20.2021 25.2207L22.4746 26.6172C23.0205 26.96 23.6045 26.9092 24.0488 26.4648L25.623 24.8906C26.0674 24.4463 26.1309 23.8369 25.7754 23.291L24.3789 21.0439C24.5566 20.6377 24.7217 20.2314 24.8613 19.8252L27.4766 19.2158C28.1113 19.0762 28.4668 18.6191 28.4668 17.9717V15.75C28.4668 15.1279 28.1113 14.6709 27.4766 14.5312L24.874 13.9092C24.7217 13.4521 24.5439 13.0459 24.4043 12.6777L25.7881 10.3926C26.1436 9.85938 26.1055 9.27539 25.6484 8.81836L24.0488 7.24414C23.5918 6.8252 23.0586 6.74902 22.5127 7.06641L20.2021 8.50098C19.834 8.31055 19.415 8.1582 18.9707 8.00586L18.3486 5.37793C18.209 4.73047 17.7646 4.375 17.1172 4.375H14.8701C14.2354 4.375 13.7783 4.73047 13.6387 5.37793L13.0166 7.98047C12.585 8.13281 12.1533 8.29785 11.7725 8.48828L9.47461 7.06641C8.92871 6.74902 8.38281 6.8125 7.93848 7.24414L6.33887 8.81836C5.88184 9.27539 5.84375 9.85938 6.18652 10.3926L7.58301 12.6777C7.43066 13.0459 7.26562 13.4521 7.11328 13.9092L4.52344 14.5312C3.87598 14.6709 3.52051 15.1279 3.52051 15.75V17.9717C3.52051 18.6191 3.87598 19.0762 4.52344 19.2158L7.12598 19.8252C7.26562 20.2314 7.43066 20.6377 7.6084 21.0439L6.21191 23.291C5.85645 23.8369 5.90723 24.4463 6.36426 24.8906L7.93848 26.4648C8.38281 26.9092 8.9668 26.96 9.5127 26.6172L11.7725 25.2207C12.166 25.3984 12.585 25.5635 13.0166 25.7158L13.6387 28.3057C13.7783 28.9531 14.2354 29.3213 14.8701 29.3213ZM16 21.1074C13.6514 21.1074 11.7344 19.1777 11.7344 16.8291C11.7344 14.5059 13.6641 12.5762 16 12.5762C18.3486 12.5762 20.2656 14.5059 20.2656 16.8291C20.2656 19.1777 18.3486 21.1074 16 21.1074Z" fill="black"/>
</svg>
