<svg width="32" height="32" viewBox="0 0 32 32" fill="none" xmlns="http://www.w3.org/2000/svg">
<path d="M15.9995 10.2504C14.8623 10.2504 13.7506 10.5876 12.805 11.2194C11.8594 11.8512 11.1224 12.7493 10.6872 13.7999C10.252 14.8506 10.1381 16.0068 10.36 17.1221C10.5819 18.2375 11.1295 19.2621 11.9336 20.0662C12.7378 20.8704 13.7624 21.418 14.8777 21.6399C15.9931 21.8618 17.1493 21.7479 18.1999 21.3127C19.2506 20.8775 20.1486 20.1405 20.7805 19.1949C21.4123 18.2493 21.7495 17.1376 21.7495 16.0004C21.7479 14.4759 21.1416 13.0143 20.0636 11.9363C18.9856 10.8583 17.524 10.252 15.9995 10.2504ZM15.9995 20.2504C15.1589 20.2504 14.3372 20.0011 13.6383 19.5341C12.9394 19.0671 12.3947 18.4034 12.073 17.6268C11.7514 16.8502 11.6672 15.9957 11.8312 15.1712C11.9952 14.3468 12.3999 13.5895 12.9943 12.9952C13.5887 12.4008 14.346 11.996 15.1704 11.832C15.9948 11.6681 16.8493 11.7522 17.6259 12.0739C18.4025 12.3956 19.0663 12.9403 19.5333 13.6392C20.0003 14.3381 20.2495 15.1598 20.2495 16.0004C20.2483 17.1272 19.8002 18.2075 19.0034 19.0043C18.2066 19.8011 17.1263 20.2492 15.9995 20.2504Z" fill="#0F0F0F"/>
<path d="M27.9995 13.2504H25.6714C25.6218 13.2503 25.5733 13.2355 25.5321 13.2078C25.4909 13.1802 25.4589 13.141 25.4399 13.0951L24.7729 11.4623C24.7541 11.4163 24.7494 11.3656 24.7595 11.3169C24.7696 11.2682 24.794 11.2236 24.8296 11.1889L26.4907 9.558C26.6548 9.39708 26.7856 9.20542 26.8755 8.99395C26.9655 8.78248 27.013 8.55536 27.0151 8.32555C27.0173 8.09575 26.9742 7.86776 26.8882 7.65463C26.8023 7.44149 26.6752 7.24739 26.5142 7.08339L25.1138 5.65566C24.7884 5.32471 24.3449 5.13637 23.8808 5.13198C23.4167 5.12758 22.9698 5.30749 22.6382 5.63222L20.9731 7.267C20.9376 7.30144 20.8929 7.32478 20.8443 7.33414C20.7957 7.34351 20.7455 7.33851 20.6997 7.31974L18.9038 6.56581C18.8582 6.54695 18.8192 6.51499 18.7917 6.47397C18.7643 6.43295 18.7496 6.38471 18.7495 6.33534V4.00034C18.7489 3.53638 18.5644 3.09159 18.2363 2.76353C17.9083 2.43546 17.4635 2.2509 16.9995 2.25034H14.9995C14.5356 2.2509 14.0908 2.43546 13.7627 2.76352C13.4346 3.09159 13.2501 3.53638 13.2495 4.00034V6.33144C13.2496 6.38096 13.235 6.4294 13.2075 6.4706C13.1801 6.51181 13.141 6.54392 13.0952 6.56288L11.3813 7.27288C11.3355 7.29176 11.2852 7.29673 11.2365 7.28718C11.1879 7.27763 11.1432 7.25398 11.1079 7.21917L9.45947 5.5707C9.13118 5.24242 8.68594 5.058 8.22168 5.058C7.75742 5.058 7.31217 5.24242 6.98388 5.5707L5.56982 6.98476C5.24199 7.31308 5.05786 7.75809 5.05786 8.22206C5.05786 8.68604 5.24199 9.13104 5.56982 9.45937L7.21924 11.1078C7.25408 11.1429 7.27784 11.1874 7.28756 11.2358C7.29728 11.2843 7.29254 11.3345 7.27392 11.3803L6.56201 13.0961C6.54326 13.1418 6.51133 13.1809 6.47028 13.2083C6.42924 13.2358 6.38094 13.2505 6.33154 13.2504H3.99951C3.53556 13.2509 3.09076 13.4355 2.76269 13.7636C2.43463 14.0916 2.25007 14.5364 2.24951 15.0004V17.0004C2.25007 17.4643 2.43462 17.9091 2.76269 18.2372C3.09076 18.5653 3.53555 18.7498 3.99951 18.7504H6.33151C6.38103 18.7503 6.42946 18.7649 6.47066 18.7924C6.51186 18.8198 6.54398 18.8589 6.56293 18.9047L7.27293 20.6185C7.29204 20.6643 7.29714 20.7147 7.28758 20.7634C7.27802 20.8121 7.25423 20.8568 7.21922 20.892L5.56982 22.5404C5.24198 22.8689 5.05786 23.3141 5.05786 23.7782C5.05786 24.2423 5.24198 24.6875 5.56982 25.016L6.98391 26.4301C7.31243 26.7579 7.75759 26.942 8.22171 26.942C8.68582 26.942 9.13098 26.7579 9.4595 26.4301L11.1079 24.7807C11.1426 24.7453 11.1872 24.7212 11.2357 24.7115C11.2843 24.7017 11.3347 24.7068 11.3804 24.726L13.0962 25.4379C13.1417 25.4567 13.1806 25.4887 13.2079 25.5298C13.2352 25.5708 13.2497 25.6191 13.2495 25.6684V28.0004C13.2501 28.4643 13.4346 28.9091 13.7627 29.2372C14.0908 29.5652 14.5356 29.7498 14.9995 29.7504H16.9995C17.4635 29.7498 17.9083 29.5652 18.2363 29.2372C18.5644 28.9091 18.749 28.4643 18.7495 28.0004V25.6684C18.7496 25.6187 18.7643 25.5702 18.792 25.529C18.8196 25.4878 18.8589 25.4558 18.9048 25.4369L20.6196 24.7269C20.6652 24.7073 20.7156 24.7019 20.7642 24.7115C20.8128 24.7211 20.8574 24.7452 20.8921 24.7806L22.5405 26.43C22.8691 26.7574 23.314 26.9413 23.7778 26.9413C24.2417 26.9413 24.6866 26.7574 25.0151 26.43L26.4311 25.015C26.7581 24.6861 26.9414 24.2411 26.941 23.7773C26.9407 23.3136 26.7566 22.8688 26.4292 22.5404L24.7808 20.892C24.7459 20.857 24.7221 20.8125 24.7124 20.764C24.7026 20.7156 24.7074 20.6653 24.7261 20.6195L25.438 18.9037C25.4568 18.8582 25.4888 18.8193 25.5299 18.792C25.5709 18.7647 25.6192 18.7502 25.6685 18.7504H27.9995C28.4635 18.7498 28.9083 18.5653 29.2363 18.2372C29.5644 17.9092 29.749 17.4644 29.7495 17.0004V15.0004C29.749 14.5364 29.5644 14.0916 29.2363 13.7636C28.9083 13.4355 28.4635 13.2509 27.9995 13.2504ZM28.2495 17.0004C28.2494 17.0666 28.223 17.1302 28.1761 17.177C28.1293 17.2239 28.0658 17.2503 27.9995 17.2504H25.6685C25.3222 17.2493 24.9835 17.3515 24.6956 17.5439C24.4077 17.7363 24.1837 18.0101 24.0522 18.3305L23.3403 20.0463C23.2076 20.3659 23.1729 20.7177 23.2405 21.0571C23.3081 21.3966 23.4751 21.7082 23.7202 21.9525L25.3687 23.601C25.4155 23.648 25.4418 23.7117 25.442 23.778C25.4422 23.8444 25.4162 23.9082 25.3697 23.9555L23.9547 25.3696C23.9314 25.3928 23.9039 25.4112 23.8736 25.4238C23.8432 25.4363 23.8107 25.4428 23.7779 25.4428C23.7451 25.4428 23.7126 25.4363 23.6822 25.4238C23.6519 25.4112 23.6243 25.3928 23.6011 25.3696L21.9527 23.7201C21.7085 23.4744 21.3967 23.3071 21.0569 23.2396C20.7172 23.1721 20.365 23.2075 20.0455 23.3412L18.3316 24.0512C18.011 24.1828 17.7369 24.4069 17.5442 24.695C17.3515 24.983 17.2489 25.3219 17.2496 25.6684V28.0004C17.2495 28.0667 17.2231 28.1302 17.1762 28.1771C17.1294 28.2239 17.0659 28.2503 16.9996 28.2504H14.9996C14.9333 28.2503 14.8698 28.2239 14.823 28.1771C14.7761 28.1302 14.7497 28.0667 14.7496 28.0004V25.6684C14.7506 25.3222 14.6485 24.9835 14.4561 24.6956C14.2637 24.4077 13.9898 24.1837 13.6695 24.0522L11.9537 23.3403C11.6341 23.2074 11.2822 23.1725 10.9428 23.2402C10.6033 23.3078 10.2917 23.4749 10.0475 23.7202L8.39891 25.3695C8.35185 25.4164 8.28811 25.4428 8.22167 25.4428C8.15522 25.4428 8.09148 25.4164 8.04442 25.3695L6.63037 23.9555C6.58347 23.9084 6.55713 23.8447 6.55713 23.7782C6.55713 23.7118 6.58347 23.648 6.63037 23.601L8.27978 21.9525C8.52501 21.7081 8.69199 21.3962 8.75946 21.0566C8.82694 20.717 8.79186 20.3649 8.65869 20.0453L7.94869 18.3314C7.81709 18.0109 7.59297 17.7369 7.30492 17.5443C7.01687 17.3518 6.67798 17.2494 6.3315 17.2504H3.99951C3.93325 17.2503 3.86973 17.2239 3.82288 17.177C3.77602 17.1302 3.74964 17.0666 3.74951 17.0004V15.0004C3.74964 14.9341 3.77602 14.8706 3.82288 14.8237C3.86973 14.7769 3.93325 14.7505 3.99951 14.7504H6.33151C6.67783 14.7512 7.01652 14.6488 7.30439 14.4562C7.59225 14.2637 7.81622 13.9898 7.94772 13.6694L8.65963 11.9545C8.79259 11.6348 8.82747 11.2827 8.75982 10.9431C8.69218 10.6035 8.52507 10.2917 8.27975 10.0473L6.63037 8.39882C6.60715 8.37561 6.58873 8.34806 6.57616 8.31773C6.5636 8.2874 6.55713 8.25489 6.55713 8.22206C6.55713 8.18924 6.5636 8.15673 6.57616 8.1264C6.58873 8.09607 6.60715 8.06852 6.63037 8.04531L8.04443 6.63124C8.0915 6.58434 8.15523 6.558 8.22168 6.558C8.28812 6.558 8.35186 6.58434 8.39892 6.63124L10.0474 8.27968C10.2917 8.52511 10.6036 8.69223 10.9432 8.75971C11.2829 8.82719 11.635 8.79199 11.9546 8.65859L13.6685 7.94859C13.989 7.81699 14.263 7.59287 14.4555 7.30483C14.6481 7.0168 14.7504 6.67791 14.7495 6.33144V4.00038C14.7496 3.93411 14.776 3.8706 14.8229 3.82374C14.8697 3.77689 14.9332 3.75051 14.9995 3.75038H16.9995C17.0658 3.75051 17.1293 3.77689 17.1761 3.82375C17.223 3.8706 17.2494 3.93412 17.2495 4.00038V6.33538C17.2492 6.6802 17.3509 7.0174 17.5419 7.3045C17.7329 7.59159 18.0046 7.81573 18.3228 7.94867L20.1187 8.70257C20.4363 8.83665 20.7866 8.8737 21.1253 8.80906C21.464 8.74441 21.776 8.58095 22.022 8.33929L22.023 8.33829L23.689 6.70255C23.737 6.65703 23.8008 6.63199 23.867 6.63272C23.9332 6.63345 23.9965 6.6599 24.0435 6.70646L25.4439 8.13419C25.4898 8.18153 25.5154 8.24498 25.5151 8.31095C25.515 8.34393 25.5082 8.37654 25.4953 8.40688C25.4824 8.43723 25.4636 8.46471 25.44 8.48771L23.7798 10.1176C23.5309 10.3605 23.3603 10.6722 23.2898 11.0127C23.2193 11.3532 23.2522 11.707 23.3843 12.0287L24.0523 13.6635C24.1832 13.9853 24.4073 14.2607 24.6958 14.4544C24.9842 14.648 25.324 14.7511 25.6714 14.7504H27.9995C28.0658 14.7505 28.1293 14.7769 28.1761 14.8238C28.223 14.8706 28.2494 14.9341 28.2495 15.0004V17.0004Z" fill="#0F0F0F"/>
</svg>
