<svg width="32" height="32" viewBox="0 0 32 32" fill="none" xmlns="http://www.w3.org/2000/svg">
<path fill-rule="evenodd" clip-rule="evenodd" d="M8.66295 10.9497C6.81305 12.2951 5.75 14.0899 5.75 16C5.75 17.9101 6.81305 19.7049 8.66295 21.0503C10.5121 22.3952 13.1037 23.25 16 23.25C18.8963 23.25 21.4879 22.3952 23.337 21.0503C25.1869 19.7049 26.25 17.9101 26.25 16C26.25 14.0899 25.1869 12.2951 23.337 10.9497C21.4879 9.60485 18.8963 8.75 16 8.75C13.1037 8.75 10.5121 9.60485 8.66295 10.9497ZM7.7807 9.73659C9.91275 8.18601 12.8211 7.25 16 7.25C19.1789 7.25 22.0873 8.18601 24.2193 9.73659C26.3506 11.2866 27.75 13.4918 27.75 16C27.75 18.5082 26.3506 20.7134 24.2193 22.2634C22.0873 23.814 19.1789 24.75 16 24.75C12.8211 24.75 9.91275 23.814 7.7807 22.2634C5.64938 20.7134 4.25 18.5082 4.25 16C4.25 13.4918 5.64938 11.2866 7.7807 9.73659Z" fill="#0F0F0F"/>
</svg>
