<svg width="32" height="32" viewBox="0 0 32 32" fill="none" xmlns="http://www.w3.org/2000/svg">
<path d="M7 4.75C6.13806 4.75 5.31146 5.0924 4.70196 5.7019C4.09245 6.31141 3.75 7.13807 3.75 8V20C3.75 20.8619 4.09245 21.6886 4.70196 22.2981C5.31146 22.9076 6.13806 23.25 7 23.25C7.41421 23.25 7.75 23.5858 7.75 24C7.75 24.4142 7.41421 24.75 7 24.75C5.74021 24.75 4.53209 24.2496 3.6413 23.3588C2.75052 22.468 2.25 21.2598 2.25 20V8C2.25 6.74019 2.75052 5.53202 3.6413 4.64124C4.53209 3.75045 5.74021 3.25 7 3.25H25C26.2598 3.25 27.468 3.75043 28.3588 4.64124C29.2496 5.53206 29.75 6.74025 29.75 8V20C29.75 21.2597 29.2496 22.4679 28.3588 23.3588C27.468 24.2496 26.2598 24.75 25 24.75C24.5858 24.75 24.25 24.4142 24.25 24C24.25 23.5858 24.5858 23.25 25 23.25C25.862 23.25 26.6887 22.9076 27.2982 22.2981C27.9076 21.6886 28.25 20.862 28.25 20V8C28.25 7.13802 27.9076 6.31137 27.2982 5.7019C26.6887 5.09242 25.862 4.75 25 4.75H7ZM16.5303 19.4687C16.2374 19.1758 15.7626 19.1758 15.4697 19.4687L11.4697 23.4687C11.1768 23.7616 11.1768 24.2365 11.4697 24.5294C11.7626 24.8222 12.2374 24.8222 12.5303 24.5294L15.25 21.8097V28.0001C15.25 28.4143 15.5858 28.7501 16 28.7501C16.4142 28.7501 16.75 28.4143 16.75 28.0001V21.8097L19.4697 24.5294C19.7626 24.8222 20.2374 24.8222 20.5303 24.5294C20.8232 24.2365 20.8232 23.7616 20.5303 23.4687L16.5303 19.4687ZM15 6.25C14.5858 6.25 14.25 6.58579 14.25 7C14.25 7.41421 14.5858 7.75 15 7.75H17C17.4142 7.75 17.75 7.41421 17.75 7C17.75 6.58579 17.4142 6.25 17 6.25H15Z" fill="#0F0F0F"/>
</svg>
