<svg width="32" height="32" viewBox="0 0 32 32" fill="none" xmlns="http://www.w3.org/2000/svg">
<path d="M7 4.5C6.07175 4.5 5.18157 4.86874 4.52518 5.52512C3.86879 6.18151 3.5 7.07176 3.5 8V20C3.5 20.9282 3.86879 21.8185 4.52518 22.4749C5.18157 23.1313 6.07175 23.5 7 23.5C7.27614 23.5 7.5 23.7239 7.5 24C7.5 24.2761 7.27614 24.5 7 24.5C5.80652 24.5 4.66199 24.0259 3.81808 23.182C2.97418 22.3381 2.5 21.1935 2.5 20V8C2.5 6.80651 2.97418 5.66192 3.81808 4.81802C4.66199 3.97411 5.80652 3.5 7 3.5H25C26.1935 3.5 27.3381 3.9741 28.182 4.81802C29.026 5.66194 29.5 6.80655 29.5 8V20C29.5 21.1935 29.026 22.3381 28.182 23.182C27.3381 24.0259 26.1935 24.5 25 24.5C24.7239 24.5 24.5 24.2761 24.5 24C24.5 23.7239 24.7239 23.5 25 23.5C25.9283 23.5 26.8186 23.1312 27.4749 22.4749C28.1313 21.8185 28.5 20.9283 28.5 20V8C28.5 7.07172 28.1313 6.18149 27.4749 5.52512C26.8186 4.86875 25.9283 4.5 25 4.5H7Z" fill="#0F0F0F"/>
<path d="M16.3536 19.6455C16.1583 19.4502 15.8417 19.4502 15.6464 19.6455L11.6464 23.6455C11.4512 23.8407 11.4512 24.1573 11.6464 24.3526C11.8417 24.5478 12.1583 24.5478 12.3536 24.3526L15.5 21.2061V28.0001C15.5 28.2763 15.7239 28.5001 16 28.5001C16.2761 28.5001 16.5 28.2763 16.5 28.0001V21.2061L19.6464 24.3526C19.8417 24.5478 20.1583 24.5478 20.3536 24.3526C20.5488 24.1573 20.5488 23.8407 20.3536 23.6455L16.3536 19.6455Z" fill="#0F0F0F"/>
<path d="M15 6.5C14.7239 6.5 14.5 6.72386 14.5 7C14.5 7.27614 14.7239 7.5 15 7.5H17C17.2761 7.5 17.5 7.27614 17.5 7C17.5 6.72386 17.2761 6.5 17 6.5H15Z" fill="#0F0F0F"/>
</svg>
