<svg width="32" height="32" viewBox="0 0 32 32" fill="none" xmlns="http://www.w3.org/2000/svg">
<path fill-rule="evenodd" clip-rule="evenodd" d="M7 5C6.20436 5 5.44136 5.31606 4.87874 5.87868C4.3161 6.44131 4 7.20439 4 8V20C4 20.7956 4.3161 21.5587 4.87874 22.1213C5.44136 22.6839 6.20436 23 7 23C7.55228 23 8 23.4477 8 24C8 24.5523 7.55228 25 7 25C5.6739 25 4.4022 24.4732 3.46452 23.5355C2.52687 22.5979 2 21.3261 2 20V8C2 6.67388 2.52687 5.40212 3.46452 4.46446C4.4022 3.52679 5.6739 3 7 3H25C26.3261 3 27.5979 3.52677 28.5356 4.46446C29.4733 5.40217 30 6.67396 30 8V20C30 21.326 29.4733 22.5978 28.5356 23.5355C27.5979 24.4732 26.3261 25 25 25C24.4477 25 24 24.5523 24 24C24 23.4477 24.4477 23 25 23C25.7957 23 26.5588 22.6839 27.1214 22.1213C27.684 21.5587 28 20.7957 28 20V8C28 7.20431 27.684 6.44126 27.1214 5.87868C26.5588 5.31608 25.7957 5 25 5H7ZM16.7071 19.2919C16.3166 18.9014 15.6834 18.9014 15.2929 19.2919L11.2929 23.2919C10.9024 23.6824 10.9024 24.3156 11.2929 24.7061C11.6834 25.0967 12.3166 25.0967 12.7071 24.7061L15 22.4132V28.0001C15 28.5524 15.4477 29.0001 16 29.0001C16.5523 29.0001 17 28.5524 17 28.0001V22.4132L19.2929 24.7061C19.6834 25.0967 20.3166 25.0967 20.7071 24.7061C21.0976 24.3156 21.0976 23.6824 20.7071 23.2919L16.7071 19.2919ZM15 6C14.4477 6 14 6.44772 14 7C14 7.55228 14.4477 8 15 8H17C17.5523 8 18 7.55228 18 7C18 6.44772 17.5523 6 17 6H15Z" fill="#0F0F0F"/>
</svg>
