<svg width="32" height="32" viewBox="0 0 32 32" fill="none" xmlns="http://www.w3.org/2000/svg">
<path d="M16 10.0752C16.4189 10.0752 16.7744 9.73242 16.7744 9.31348V5.32715L16.7236 3.48633L17.8535 4.6543L20.0117 6.90137C20.1514 7.05371 20.3545 7.12988 20.5449 7.12988C20.9385 7.12988 21.2559 6.83789 21.2559 6.44434C21.2559 6.22852 21.167 6.07617 21.0273 5.92383L16.5586 1.55664C16.3682 1.36621 16.2031 1.30273 16 1.30273C15.7969 1.30273 15.6318 1.36621 15.4414 1.55664L10.9727 5.92383C10.8203 6.07617 10.7314 6.22852 10.7314 6.44434C10.7314 6.83789 11.0361 7.12988 11.4424 7.12988C11.6328 7.12988 11.8486 7.05371 11.9883 6.90137L14.1465 4.6543L15.2764 3.48633L15.2256 5.32715V9.31348C15.2256 9.73242 15.5811 10.0752 16 10.0752ZM8.6875 29.5371H23.2998C25.7754 29.5371 27.0449 28.2676 27.0449 25.8301V13.0205C27.0449 10.5703 25.7754 9.31348 23.2998 9.31348H17.0156V19C17.0156 19.5459 16.5459 20.0029 16 20.0029C15.4414 20.0029 14.9717 19.5459 14.9717 19V9.31348H8.6875C6.21191 9.31348 4.94238 10.5576 4.94238 13.0205V25.8301C4.94238 28.2803 6.21191 29.5371 8.6875 29.5371Z" fill="black"/>
</svg>
