<svg width="32" height="32" viewBox="0 0 32 32" fill="none" xmlns="http://www.w3.org/2000/svg">
<path fill-rule="evenodd" clip-rule="evenodd" d="M3.25 4C3.25 3.58579 3.58579 3.25 4 3.25H7C7.36393 3.25 7.67534 3.51127 7.73859 3.86966L8.24688 6.75H28C28.226 6.75 28.44 6.85193 28.5824 7.02744C28.7248 7.20296 28.7805 7.43333 28.7339 7.65451L26.7339 17.1545C26.6608 17.5016 26.3547 17.75 26 17.75H10.1881L10.6292 20.25L25 20.25C25.4142 20.25 25.75 20.5858 25.75 21C25.75 21.4142 25.4142 21.75 25 21.75L10.0128 21.75C9.82813 21.7534 9.65352 21.6882 9.51804 21.5747C9.4338 21.5041 9.36469 21.4148 9.31769 21.3118C9.28987 21.251 9.26993 21.1859 9.25919 21.1177L6.37076 4.75H4C3.58579 4.75 3.25 4.41421 3.25 4ZM9.92335 16.25L8.51159 8.25H27.0757L25.3915 16.25H9.92335Z" fill="#0F0F0F"/>
<path fill-rule="evenodd" clip-rule="evenodd" d="M7.25 26C7.25 24.4812 8.48122 23.25 10 23.25C11.5188 23.25 12.75 24.4812 12.75 26C12.75 27.5188 11.5188 28.75 10 28.75C8.48122 28.75 7.25 27.5188 7.25 26ZM10 24.75C9.30964 24.75 8.75 25.3096 8.75 26C8.75 26.6904 9.30964 27.25 10 27.25C10.6904 27.25 11.25 26.6904 11.25 26C11.25 25.3096 10.6904 24.75 10 24.75Z" fill="#0F0F0F"/>
<path fill-rule="evenodd" clip-rule="evenodd" d="M25 23.25C23.4812 23.25 22.25 24.4812 22.25 26C22.25 27.5188 23.4812 28.75 25 28.75C26.5188 28.75 27.75 27.5188 27.75 26C27.75 24.4812 26.5188 23.25 25 23.25ZM23.75 26C23.75 25.3096 24.3096 24.75 25 24.75C25.6904 24.75 26.25 25.3096 26.25 26C26.25 26.6904 25.6904 27.25 25 27.25C24.3096 27.25 23.75 26.6904 23.75 26Z" fill="#0F0F0F"/>
</svg>
