<svg width="32" height="32" viewBox="0 0 32 32" fill="none" xmlns="http://www.w3.org/2000/svg">
<path d="M15.9997 17.9995C17.1043 17.9995 17.9997 17.1041 17.9997 15.9995C17.9997 14.8949 17.1043 13.9995 15.9997 13.9995C14.8951 13.9995 13.9997 14.8949 13.9997 15.9995C13.9997 17.1041 14.8951 17.9995 15.9997 17.9995Z" fill="#0F0F0F"/>
<path d="M28.3967 15.6958C28.1721 15.4019 22.8069 8.5 15.9999 8.5C9.1929 8.5 3.8279 15.4019 3.6028 15.6958C3.53613 15.783 3.5 15.8897 3.5 15.9995C3.5 16.1093 3.53613 16.216 3.6028 16.3032C3.8279 16.5972 9.1931 23.5 15.9999 23.5C22.8067 23.5 28.1723 16.5977 28.3969 16.3037C28.464 16.2166 28.5003 16.1097 28.5003 15.9997C28.5002 15.8898 28.4638 15.7829 28.3967 15.6958ZM11.9999 16C11.9999 15.2089 12.2345 14.4355 12.674 13.7777C13.1135 13.1199 13.7383 12.6072 14.4692 12.3045C15.2001 12.0017 16.0043 11.9225 16.7803 12.0769C17.5562 12.2312 18.2689 12.6122 18.8283 13.1716C19.3877 13.731 19.7687 14.4437 19.923 15.2196C20.0774 15.9956 19.9982 16.7998 19.6954 17.5307C19.3927 18.2616 18.88 18.8864 18.2222 19.3259C17.5644 19.7654 16.791 20 15.9999 20C14.9394 19.9989 13.9226 19.5771 13.1727 18.8272C12.4228 18.0773 12.001 17.0605 11.9999 16Z" fill="#0F0F0F"/>
</svg>
