<svg width="32" height="32" viewBox="0 0 32 32" fill="none" xmlns="http://www.w3.org/2000/svg">
<path d="M28.5959 15.5435C28.3674 15.2456 22.9289 8.24951 16.0002 8.24951C9.07056 8.24951 3.63306 15.2456 3.40454 15.5435C3.30431 15.6744 3.25 15.8346 3.25 15.9995C3.25 16.1644 3.30431 16.3247 3.40454 16.4556C3.63306 16.7534 9.07054 23.7495 16.0002 23.7495C22.929 23.7495 28.3674 16.7534 28.5959 16.4556C28.6962 16.3247 28.7505 16.1644 28.7505 15.9995C28.7505 15.8346 28.6962 15.6744 28.5959 15.5435ZM16.0002 22.2495C10.7766 22.2495 6.27564 17.5103 4.97388 15.9995C6.27564 14.4888 10.7766 9.74951 16.0002 9.74951C21.2239 9.74951 25.7258 14.4898 27.0276 16.0005C25.7278 17.5112 21.2346 22.2495 16.0002 22.2495Z" fill="#0F0F0F"/>
<path d="M16.0002 12.2495C15.2586 12.2495 14.5335 12.4694 13.9169 12.8815C13.3002 13.2936 12.8195 13.8792 12.5357 14.5644C12.2519 15.2497 12.1776 16.0037 12.3223 16.7311C12.467 17.4585 12.8242 18.1267 13.3486 18.6512C13.873 19.1756 14.5412 19.5328 15.2687 19.6775C15.9961 19.8222 16.7501 19.7479 17.4353 19.4641C18.1205 19.1802 18.7062 18.6996 19.1183 18.0829C19.5303 17.4662 19.7502 16.7412 19.7502 15.9995C19.749 15.0053 19.3535 14.0522 18.6505 13.3492C17.9475 12.6463 16.9944 12.2508 16.0002 12.2495ZM16.0002 18.2495C15.5552 18.2495 15.1202 18.1176 14.7502 17.8703C14.3802 17.6231 14.0918 17.2717 13.9215 16.8605C13.7512 16.4494 13.7067 15.997 13.7935 15.5606C13.8803 15.1241 14.0946 14.7232 14.4093 14.4085C14.7239 14.0939 15.1248 13.8796 15.5613 13.7927C15.9978 13.7059 16.4502 13.7505 16.8613 13.9208C17.2724 14.0911 17.6238 14.3795 17.8711 14.7495C18.1183 15.1195 18.2502 15.5545 18.2502 15.9995C18.2494 16.596 18.0121 17.1678 17.5903 17.5896C17.1686 18.0114 16.5967 18.2487 16.0002 18.2495Z" fill="#0F0F0F"/>
</svg>
