<svg width="32" height="32" viewBox="0 0 32 32" fill="none" xmlns="http://www.w3.org/2000/svg">
<path d="M28.3967 15.6958C28.1721 15.4019 22.8069 8.49951 16.0002 8.49951C9.19263 8.49951 3.82837 15.4019 3.60376 15.6958C3.53679 15.7829 3.50049 15.8897 3.50049 15.9995C3.50049 16.1094 3.53679 16.2161 3.60376 16.3032C3.82837 16.5972 9.19263 23.4995 16.0002 23.4995C22.8069 23.4995 28.1721 16.5972 28.3967 16.3032C28.4637 16.2161 28.5 16.1094 28.5 15.9995C28.5 15.8897 28.4637 15.7829 28.3967 15.6958ZM16.0002 22.4995C10.469 22.4995 5.75806 17.3218 4.64576 15.9995C5.75806 14.6772 10.469 9.49951 16.0002 9.49951C21.5315 9.49951 26.2424 14.6772 27.3557 15.9995C26.2434 17.3228 21.5383 22.4995 16.0002 22.4995Z" fill="#0F0F0F"/>
<path d="M16.0002 12.4995C15.308 12.4995 14.6313 12.7048 14.0558 13.0894C13.4802 13.474 13.0316 14.0206 12.7667 14.6601C12.5018 15.2997 12.4325 16.0034 12.5675 16.6823C12.7025 17.3613 13.0359 17.9849 13.5254 18.4744C14.0149 18.9639 14.6385 19.2972 15.3174 19.4323C15.9964 19.5673 16.7001 19.498 17.3396 19.2331C17.9792 18.9682 18.5258 18.5196 18.9104 17.944C19.295 17.3684 19.5002 16.6917 19.5002 15.9995C19.4991 15.0716 19.13 14.182 18.4739 13.5259C17.8177 12.8697 16.9282 12.5006 16.0002 12.4995ZM16.0002 18.4995C15.5058 18.4995 15.0224 18.3529 14.6113 18.0782C14.2002 17.8035 13.8798 17.413 13.6905 16.9562C13.5013 16.4994 13.4518 15.9967 13.5483 15.5118C13.6447 15.0268 13.8828 14.5814 14.2325 14.2317C14.5821 13.8821 15.0276 13.644 15.5125 13.5475C15.9975 13.4511 16.5001 13.5006 16.957 13.6898C17.4138 13.879 17.8042 14.1995 18.0789 14.6106C18.3536 15.0217 18.5002 15.5051 18.5002 15.9995C18.4996 16.6624 18.236 17.2979 17.7673 17.7666C17.2986 18.2353 16.6631 18.4989 16.0002 18.4995Z" fill="#0F0F0F"/>
</svg>
