<svg width="32" height="32" viewBox="0 0 32 32" fill="none" xmlns="http://www.w3.org/2000/svg">
<path d="M3.25 16.0021C3.25005 16.201 3.32909 16.3917 3.46973 16.5324C3.61037 16.673 3.8011 16.752 4 16.7521L14.1903 16.7504L11.4717 19.4728C11.402 19.5425 11.3468 19.6253 11.3092 19.7164C11.2716 19.8075 11.2522 19.9052 11.2523 20.0037C11.2524 20.1023 11.2719 20.1999 11.3097 20.2909C11.3475 20.382 11.4029 20.4647 11.4727 20.5343C11.5424 20.6039 11.6252 20.6592 11.7163 20.6968C11.8074 20.7344 11.905 20.7538 12.0036 20.7537C12.1022 20.7536 12.1998 20.7341 12.2908 20.6963C12.3818 20.6585 12.4645 20.6031 12.5342 20.5333L16.5303 16.5304C16.6705 16.3898 16.7493 16.1992 16.7493 16.0006C16.7493 15.802 16.6705 15.6115 16.5303 15.4708L12.5381 11.4679C12.3977 11.3272 12.2071 11.2479 12.0083 11.2476C11.8095 11.2473 11.6187 11.326 11.4779 11.4663C11.3371 11.6066 11.2577 11.7971 11.2573 11.9959C11.2568 12.1947 11.3354 12.3856 11.4756 12.5265L14.1918 15.2504L4 15.2521C3.8011 15.2521 3.61037 15.3312 3.46973 15.4718C3.32909 15.6125 3.25005 15.8032 3.25 16.0021Z" fill="#0F0F0F"/>
<path d="M16 2.25012C13.2876 2.24575 10.6347 3.04538 8.37647 4.54801C6.11827 6.05064 4.35607 8.18885 3.3125 10.6925C3.23634 10.8757 3.23591 11.0817 3.31132 11.2652C3.38673 11.4488 3.53183 11.5949 3.71481 11.6717C3.89779 11.7485 4.10374 11.7496 4.28753 11.6747C4.47132 11.5999 4.61795 11.4553 4.69531 11.2726C5.78821 8.66065 7.7522 6.50797 10.2532 5.18071C12.7542 3.85345 15.6378 3.43358 18.4134 3.99252C21.1891 4.55145 23.6854 6.05468 25.4778 8.2465C27.2701 10.4383 28.2479 13.1834 28.2446 16.0147C28.2414 18.8461 27.2574 21.5889 25.4601 23.7767C23.6627 25.9644 21.163 27.4619 18.3861 28.0146C15.6092 28.5672 12.7266 28.1407 10.2286 26.8078C7.7306 25.4748 5.77152 23.3177 4.68457 20.7033C4.60777 20.5202 4.46152 20.3751 4.27789 20.2997C4.09427 20.2243 3.88824 20.2248 3.70496 20.301C3.52169 20.3773 3.37613 20.5231 3.30018 20.7065C3.22423 20.8899 3.22409 21.0959 3.2998 21.2794C4.25523 23.5783 5.81679 25.5747 7.81789 27.0556C9.819 28.5365 12.1846 29.4465 14.6623 29.6883C17.14 29.9302 19.6369 29.4949 21.8867 28.429C24.1364 27.363 26.0546 25.7063 27.4365 23.6356C28.8185 21.5649 29.6125 19.1579 29.7337 16.6714C29.8549 14.1848 29.2989 11.712 28.1249 9.51674C26.9509 7.32145 25.203 5.48603 23.0676 4.20627C20.9322 2.92651 18.4895 2.25042 16 2.25012Z" fill="#0F0F0F"/>
</svg>
