<svg width="32" height="32" viewBox="0 0 32 32" fill="none" xmlns="http://www.w3.org/2000/svg">
<path d="M4 20.9998C3.86866 20.9998 3.73859 21.0256 3.61723 21.0758C3.49587 21.126 3.3856 21.1997 3.29272 21.2926C3.19985 21.3854 3.12619 21.4957 3.07597 21.6171C3.02574 21.7384 2.99992 21.8685 3 21.9998V25.9998C3 26.265 3.10536 26.5194 3.29289 26.7069C3.48043 26.8945 3.73478 26.9998 4 26.9998C4.26522 26.9998 4.51957 26.8945 4.70711 26.7069C4.89464 26.5194 5 26.265 5 25.9998V21.9998C5.00008 21.8685 4.97426 21.7384 4.92403 21.6171C4.8738 21.4957 4.80015 21.3854 4.70727 21.2926C4.6144 21.1997 4.50413 21.126 4.38277 21.0758C4.26141 21.0256 4.13134 20.9998 4 20.9998Z" fill="#0F0F0F"/>
<path d="M12 16.9988C11.8687 16.9988 11.7386 17.0246 11.6172 17.0748C11.4959 17.125 11.3856 17.1987 11.2927 17.2916C11.1999 17.3844 11.1262 17.4947 11.076 17.6161C11.0257 17.7374 10.9999 17.8675 11 17.9988V25.9988C11 26.2641 11.1054 26.5184 11.2929 26.706C11.4804 26.8935 11.7348 26.9988 12 26.9988C12.2652 26.9988 12.5196 26.8935 12.7071 26.706C12.8946 26.5184 13 26.2641 13 25.9988V17.9988C13.0001 17.8675 12.9743 17.7374 12.924 17.6161C12.8738 17.4947 12.8001 17.3844 12.7073 17.2916C12.6144 17.1987 12.5041 17.125 12.3828 17.0748C12.2614 17.0246 12.1313 16.9988 12 16.9988Z" fill="#0F0F0F"/>
<path d="M20 10.9988C19.8687 10.9988 19.7386 11.0246 19.6172 11.0748C19.4959 11.125 19.3856 11.1987 19.2927 11.2916C19.1999 11.3844 19.1262 11.4947 19.076 11.6161C19.0257 11.7374 18.9999 11.8675 19 11.9988V25.9988C19 26.2641 19.1054 26.5184 19.2929 26.706C19.4804 26.8935 19.7348 26.9988 20 26.9988C20.2652 26.9988 20.5196 26.8935 20.7071 26.706C20.8946 26.5184 21 26.2641 21 25.9988V11.9988C21.0001 11.8675 20.9743 11.7374 20.924 11.6161C20.8738 11.4947 20.8001 11.3844 20.7073 11.2916C20.6144 11.1987 20.5041 11.125 20.3828 11.0748C20.2614 11.0246 20.1313 10.9988 20 10.9988Z" fill="#0F0F0F"/>
<path d="M27.9999 27C28.5522 27 28.9999 26.5523 28.9999 26C28.9999 25.4477 28.5522 25 27.9999 25C27.4476 25 26.9999 25.4477 26.9999 26C26.9999 26.5523 27.4476 27 27.9999 27Z" fill="#0F0F0F"/>
</svg>
