<svg width="32" height="32" viewBox="0 0 32 32" fill="none" xmlns="http://www.w3.org/2000/svg">
<path d="M4 21.4998C3.93433 21.4998 3.86929 21.5127 3.80861 21.5378C3.74793 21.5629 3.6928 21.5998 3.64636 21.6462C3.59992 21.6926 3.5631 21.7478 3.53798 21.8084C3.51287 21.8691 3.49996 21.9342 3.5 21.9998V25.9998C3.5 26.1324 3.55268 26.2596 3.64645 26.3534C3.74021 26.4472 3.86739 26.4998 4 26.4998C4.13261 26.4998 4.25979 26.4472 4.35355 26.3534C4.44732 26.2596 4.5 26.1324 4.5 25.9998V21.9998C4.50004 21.9342 4.48713 21.8691 4.46201 21.8084C4.4369 21.7478 4.40007 21.6926 4.35364 21.6462C4.3072 21.5998 4.25207 21.5629 4.19139 21.5378C4.13071 21.5127 4.06567 21.4998 4 21.4998Z" fill="#0F0F0F"/>
<path d="M12 17.4988C11.9343 17.4988 11.8693 17.5117 11.8086 17.5368C11.7479 17.5619 11.6928 17.5988 11.6464 17.6452C11.5999 17.6917 11.5631 17.7468 11.538 17.8075C11.5129 17.8681 11.5 17.9332 11.5 17.9988V25.9988C11.5 26.1315 11.5527 26.2586 11.6464 26.3524C11.7402 26.4462 11.8674 26.4988 12 26.4988C12.1326 26.4988 12.2598 26.4462 12.3536 26.3524C12.4473 26.2586 12.5 26.1315 12.5 25.9988V17.9988C12.5 17.9332 12.4871 17.8681 12.462 17.8075C12.4369 17.7468 12.4001 17.6917 12.3536 17.6452C12.3072 17.5988 12.2521 17.5619 12.1914 17.5368C12.1307 17.5117 12.0657 17.4988 12 17.4988Z" fill="#0F0F0F"/>
<path d="M20 11.4988C19.9343 11.4988 19.8693 11.5117 19.8086 11.5368C19.7479 11.562 19.6928 11.5988 19.6464 11.6452C19.5999 11.6917 19.5631 11.7468 19.538 11.8075C19.5129 11.8681 19.5 11.9332 19.5 11.9988V25.9988C19.5 26.1315 19.5527 26.2586 19.6464 26.3524C19.7402 26.4462 19.8674 26.4988 20 26.4988C20.1326 26.4988 20.2598 26.4462 20.3536 26.3524C20.4473 26.2586 20.5 26.1315 20.5 25.9988V11.9988C20.5 11.9332 20.4871 11.8681 20.462 11.8075C20.4369 11.7468 20.4001 11.6917 20.3536 11.6452C20.3072 11.5988 20.2521 11.562 20.1914 11.5368C20.1307 11.5117 20.0657 11.4988 20 11.4988Z" fill="#0F0F0F"/>
<path d="M27.9999 26.5C28.276 26.5 28.4999 26.2762 28.4999 26C28.4999 25.7239 28.276 25.5 27.9999 25.5C27.7237 25.5 27.4999 25.7239 27.4999 26C27.4999 26.2762 27.7237 26.5 27.9999 26.5Z" fill="#0F0F0F"/>
</svg>
