<svg width="32" height="32" viewBox="0 0 32 32" fill="none" xmlns="http://www.w3.org/2000/svg">
<path d="M4 21.2496C3.8011 21.2497 3.61037 21.3287 3.46973 21.4694C3.32909 21.61 3.25005 21.8007 3.25 21.9996V25.9996C3.25 26.1985 3.32902 26.3893 3.46967 26.53C3.61032 26.6706 3.80109 26.7496 4 26.7496C4.19891 26.7496 4.38968 26.6706 4.53033 26.53C4.67098 26.3893 4.75 26.1985 4.75 25.9996V21.9996C4.74995 21.8007 4.67091 21.61 4.53027 21.4694C4.38963 21.3287 4.1989 21.2497 4 21.2496Z" fill="#0F0F0F"/>
<path d="M12 17.2487C11.8011 17.2487 11.6104 17.3277 11.4697 17.4684C11.3291 17.609 11.2501 17.7998 11.25 17.9987V25.9987C11.25 26.1976 11.329 26.3883 11.4697 26.529C11.6103 26.6696 11.8011 26.7487 12 26.7487C12.1989 26.7487 12.3897 26.6696 12.5303 26.529C12.671 26.3883 12.75 26.1976 12.75 25.9987V17.9987C12.7499 17.7998 12.6709 17.609 12.5303 17.4684C12.3896 17.3277 12.1989 17.2487 12 17.2487Z" fill="#0F0F0F"/>
<path d="M20 11.2496C19.8011 11.2497 19.6104 11.3287 19.4697 11.4694C19.3291 11.61 19.2501 11.8007 19.25 11.9996V25.9996C19.25 26.1985 19.329 26.3893 19.4697 26.53C19.6103 26.6706 19.8011 26.7496 20 26.7496C20.1989 26.7496 20.3897 26.6706 20.5303 26.53C20.671 26.3893 20.75 26.1985 20.75 25.9996V11.9996C20.7499 11.8007 20.6709 11.61 20.5303 11.4694C20.3896 11.3287 20.1989 11.2497 20 11.2496Z" fill="#0F0F0F"/>
<path d="M28 7.24866C27.8011 7.24871 27.6104 7.32775 27.4697 7.46839C27.3291 7.60903 27.2501 7.79976 27.25 7.99866V25.9987C27.25 26.1976 27.329 26.3883 27.4697 26.529C27.6103 26.6696 27.8011 26.7487 28 26.7487C28.1989 26.7487 28.3897 26.6696 28.5303 26.529C28.671 26.3883 28.75 26.1976 28.75 25.9987V7.99866C28.7499 7.79976 28.6709 7.60903 28.5303 7.46839C28.3896 7.32775 28.1989 7.24871 28 7.24866Z" fill="#0F0F0F"/>
</svg>
