<svg width="32" height="32" viewBox="0 0 32 32" fill="none" xmlns="http://www.w3.org/2000/svg">
<path d="M6.99969 20.5001C7.09857 20.5001 7.19522 20.4708 7.27743 20.4158C7.35964 20.3609 7.42372 20.2828 7.46156 20.1915C7.49939 20.1001 7.5093 19.9996 7.49001 19.9026C7.47073 19.8056 7.42312 19.7165 7.35321 19.6466L4.20764 16.501L15.9997 16.5001C16.1323 16.5001 16.2595 16.4474 16.3532 16.3536C16.447 16.2599 16.4997 16.1327 16.4997 16.0001C16.4997 15.8675 16.447 15.7403 16.3532 15.6465C16.2595 15.5528 16.1323 15.5001 15.9997 15.5001L4.20581 15.501L7.35321 12.3536C7.4454 12.2595 7.49675 12.1329 7.49608 12.0011C7.49542 11.8694 7.4428 11.7433 7.34966 11.6502C7.25652 11.557 7.13038 11.5044 6.99866 11.5037C6.86694 11.5031 6.74029 11.5544 6.64621 11.6466L2.64621 15.6466C2.59977 15.693 2.56293 15.7481 2.5378 15.8088C2.51267 15.8694 2.49973 15.9344 2.49973 16.0001C2.49973 16.0658 2.51267 16.1308 2.5378 16.1914C2.56293 16.2521 2.59977 16.3072 2.64621 16.3536L6.64621 20.3536C6.69257 20.4001 6.74766 20.437 6.80833 20.4621C6.86899 20.4873 6.93402 20.5002 6.99969 20.5001Z" fill="#0F0F0F"/>
<path d="M15.9997 2.50012C13.9471 2.49435 11.9206 2.95943 10.0759 3.85959C8.23121 4.75975 6.61757 6.07101 5.35907 7.69251C5.31867 7.74419 5.28885 7.80333 5.27131 7.86653C5.25376 7.92974 5.24884 7.99578 5.25682 8.06089C5.2648 8.126 5.28553 8.1889 5.31782 8.246C5.35011 8.3031 5.39333 8.35328 5.44501 8.39368C5.49669 8.43408 5.55582 8.4639 5.61903 8.48144C5.68224 8.49899 5.74828 8.50391 5.81339 8.49593C5.8785 8.48795 5.9414 8.46722 5.9985 8.43493C6.0556 8.40264 6.10578 8.35942 6.14618 8.30774C7.74795 6.25612 9.95021 4.75568 12.4457 4.01579C14.9411 3.2759 17.6053 3.33346 20.0665 4.18044C22.5277 5.02743 24.6631 6.62158 26.1748 8.74046C27.6864 10.8594 28.499 13.3973 28.499 16.0001C28.499 18.603 27.6864 21.1409 26.1748 23.2598C24.6631 25.3787 22.5277 26.9728 20.0665 27.8198C17.6053 28.6668 14.9411 28.7243 12.4457 27.9845C9.95021 27.2446 7.74795 25.7441 6.14618 23.6925C6.10578 23.6408 6.0556 23.5976 5.9985 23.5653C5.9414 23.533 5.8785 23.5123 5.81339 23.5043C5.74828 23.4963 5.68224 23.5013 5.61903 23.5188C5.55582 23.5364 5.49669 23.5662 5.44501 23.6066C5.39333 23.647 5.35011 23.6971 5.31782 23.7542C5.28553 23.8113 5.2648 23.8742 5.25682 23.9394C5.24884 24.0045 5.25376 24.0705 5.27131 24.1337C5.28885 24.1969 5.31867 24.2561 5.35907 24.3077C6.76837 26.1128 8.61369 27.5297 10.7214 28.4251C12.8292 29.3205 15.1301 29.665 17.4077 29.4262C19.6852 29.1874 21.8646 28.3731 23.7408 27.06C25.617 25.7468 27.1283 23.978 28.1325 21.9198C29.1367 19.8617 29.6009 17.5819 29.4813 15.295C29.3617 13.0081 28.6623 10.7892 27.4489 8.84698C26.2355 6.90481 24.548 5.30324 22.5451 4.19293C20.5422 3.08263 18.2897 2.50009 15.9997 2.50012Z" fill="#0F0F0F"/>
</svg>
