<svg width="32" height="32" viewBox="0 0 32 32" fill="none" xmlns="http://www.w3.org/2000/svg">
<path d="M4 21.5C3.93433 21.5 3.86929 21.5129 3.80861 21.538C3.74793 21.5631 3.6928 21.5999 3.64636 21.6464C3.59992 21.6928 3.5631 21.7479 3.53798 21.8086C3.51287 21.8693 3.49996 21.9343 3.5 22V26C3.5 26.1326 3.55268 26.2598 3.64645 26.3536C3.74021 26.4473 3.86739 26.5 4 26.5C4.13261 26.5 4.25979 26.4473 4.35355 26.3536C4.44732 26.2598 4.5 26.1326 4.5 26V22C4.50004 21.9343 4.48713 21.8693 4.46201 21.8086C4.4369 21.7479 4.40007 21.6928 4.35364 21.6464C4.3072 21.5999 4.25207 21.5631 4.19139 21.538C4.13071 21.5129 4.06567 21.5 4 21.5Z" fill="#0F0F0F"/>
<path d="M11.9999 26.5C12.276 26.5 12.4999 26.2761 12.4999 26C12.4999 25.7238 12.276 25.5 11.9999 25.5C11.7237 25.5 11.4999 25.7238 11.4999 26C11.4999 26.2761 11.7237 26.5 11.9999 26.5Z" fill="#0F0F0F"/>
<path d="M19.9999 26.5C20.276 26.5 20.4999 26.2761 20.4999 26C20.4999 25.7238 20.276 25.5 19.9999 25.5C19.7237 25.5 19.4999 25.7238 19.4999 26C19.4999 26.2761 19.7237 26.5 19.9999 26.5Z" fill="#0F0F0F"/>
<path d="M27.9999 26.5C28.276 26.5 28.4999 26.2761 28.4999 26C28.4999 25.7238 28.276 25.5 27.9999 25.5C27.7237 25.5 27.4999 25.7238 27.4999 26C27.4999 26.2761 27.7237 26.5 27.9999 26.5Z" fill="#0F0F0F"/>
</svg>
