<svg width="32" height="32" viewBox="0 0 32 32" fill="none" xmlns="http://www.w3.org/2000/svg">
<path d="M4.91699 16.0801C4.91699 16.5752 5.25977 16.9307 5.76758 16.9307H20.0117L22.7539 16.8545L19.0469 20.3203L15.3271 24.04C15.1621 24.2051 15.0732 24.4463 15.0732 24.6875C15.0732 25.1826 15.4414 25.5381 15.9238 25.5381C16.1777 25.5381 16.3936 25.4238 16.6094 25.208L25.0898 16.7148C25.2295 16.6006 25.3184 16.4482 25.3564 16.2959V24.8018C25.3564 25.2969 25.7119 25.6396 26.2197 25.6396C26.7275 25.6396 27.083 25.2969 27.083 24.8018V7.3584C27.083 6.85059 26.7275 6.50781 26.2197 6.50781C25.7119 6.50781 25.3564 6.85059 25.3564 7.3584V15.8516C25.3184 15.6992 25.2295 15.5469 25.0898 15.4326L16.6094 6.92676C16.3936 6.72363 16.1777 6.60938 15.9238 6.60938C15.4414 6.60938 15.0732 6.96484 15.0732 7.44727C15.0732 7.68848 15.1621 7.92969 15.3271 8.09473L19.0469 11.8271L22.7412 15.293L20.0117 15.2168H5.76758C5.25977 15.2168 4.91699 15.5723 4.91699 16.0801Z" fill="black"/>
</svg>
