<svg width="32" height="32" viewBox="0 0 32 32" fill="none" xmlns="http://www.w3.org/2000/svg">
<path d="M6.09766 26.4395H8.91602C9.91895 26.4395 10.4141 25.957 10.4141 24.9414V16.791C10.376 16.6387 10.3506 16.4863 10.3506 16.3213C10.3506 16.1562 10.376 16.0039 10.4141 15.8643V7.73926C10.4141 6.68555 9.91895 6.22852 8.91602 6.22852H6.09766C5.09473 6.22852 4.59961 6.72363 4.59961 7.73926V24.9414C4.59961 25.957 5.09473 26.4395 6.09766 26.4395ZM25.7627 26.0332C26.6387 26.0332 27.3877 25.373 27.3877 24.0908V8.56445C27.3877 7.28223 26.6387 6.62207 25.7627 6.62207C25.3057 6.62207 24.8994 6.7998 24.4678 7.05371L11.417 14.7217C10.8711 15.0518 10.541 15.4199 10.4141 15.8643V16.791C10.541 17.2354 10.8711 17.6035 11.417 17.9336L24.4678 25.6016C24.8994 25.8682 25.3057 26.0332 25.7627 26.0332Z" fill="black"/>
</svg>
