<svg width="32" height="32" viewBox="0 0 32 32" fill="none" xmlns="http://www.w3.org/2000/svg">
<path d="M9.75 2.5C7.26472 2.5 5.25 4.51472 5.25 7V25C5.25 27.4853 7.26472 29.5 9.75 29.5H17.75C18.8909 29.5 19.9337 29.0748 20.7267 28.3749C20.9337 28.1921 20.9534 27.8762 20.7707 27.6691C20.588 27.4621 20.272 27.4424 20.065 27.6251C19.4477 28.17 18.638 28.5 17.75 28.5H9.75C7.817 28.5 6.25 26.933 6.25 25V7C6.25 5.067 7.817 3.5 9.75 3.5H17.75C18.3883 3.5 18.9853 3.67043 19.4996 3.96793C19.7016 4.08477 19.8909 4.22127 20.065 4.37487C20.272 4.5576 20.588 4.5379 20.7707 4.33087C20.9534 4.12383 20.9337 3.80786 20.7267 3.62513C20.5033 3.42796 20.2601 3.25257 20.0004 3.10233C19.338 2.71915 18.5688 2.5 17.75 2.5H9.75ZM13.4973 24.4543C12.5769 24.5682 11.6419 24.4578 10.775 24.1325C10.7661 24.1292 10.7574 24.1256 10.7488 24.1218C10.6173 24.0638 10.5021 23.9729 10.4153 23.8567C10.3285 23.7405 10.2732 23.6034 10.2559 23.4585C10.2385 23.3136 10.2598 23.167 10.3173 23.0333C10.3747 22.8997 10.466 22.7841 10.5812 22.697C10.6032 22.6804 10.6265 22.6656 10.6509 22.6529C11.0845 22.4263 11.4673 22.1181 11.7777 21.7467C12.0366 21.4369 12.2408 21.088 12.383 20.7146C11.2571 19.057 10.7581 17.0602 10.9803 15.0728C11.2122 12.9989 12.2129 11.0828 13.7893 9.68758C15.3655 8.2926 17.4077 7.51502 19.5277 7.50022C21.6477 7.48541 23.7009 8.23438 25.2971 9.60714C26.8936 10.9801 27.9219 12.8819 28.1839 14.9523C28.446 17.0228 27.9229 19.1146 26.7159 20.8301C25.5091 22.5452 23.7034 23.7638 21.6435 24.2574C19.6803 24.7278 17.6141 24.5091 15.8017 23.6441C15.1038 24.0759 14.3173 24.3528 13.4973 24.4543ZM19.5347 8.50019C17.6541 8.51332 15.8454 9.20322 14.4521 10.4364C13.059 11.6694 12.1782 13.3592 11.9742 15.1839C11.7702 17.0085 12.2566 18.844 13.3432 20.3421C13.4353 20.4692 13.4625 20.6321 13.4165 20.7821C13.2367 21.3691 12.9404 21.9148 12.5451 22.3879C12.2436 22.7487 11.8892 23.0617 11.4944 23.3174C12.103 23.4903 12.7428 23.5401 13.3745 23.4619C14.1236 23.3691 14.8377 23.0994 15.4553 22.6767C15.5415 22.6081 15.6502 22.568 15.7666 22.568H15.7686C15.8613 22.568 15.9494 22.5935 16.0251 22.6388C17.6789 23.4898 19.5942 23.7202 21.4105 23.285C23.2369 22.8473 24.8332 21.7679 25.898 20.2546C26.9626 18.7416 27.4224 16.8995 27.1919 15.0779C26.9613 13.2562 26.0561 11.5788 24.6451 10.3653C23.2338 9.15163 21.4153 8.48706 19.5347 8.50019Z" fill="#0F0F0F"/>
</svg>
