<svg width="32" height="32" viewBox="0 0 32 32" fill="none" xmlns="http://www.w3.org/2000/svg">
<path d="M22.3604 6.2666C22.3604 5.54297 21.8525 4.94629 21.0908 4.94629C20.5703 4.94629 20.1895 5.1875 19.6562 5.68262L14.1719 10.9385C14.0703 11.0273 13.9561 11.0908 13.8291 11.1035L12.7246 11.1162L22.3604 20.7646V6.2666ZM26.2451 28.6357C26.5371 28.9404 27.0322 28.9404 27.3242 28.6357C27.6162 28.3311 27.6162 27.8613 27.3242 27.5693L6.19922 6.45703C5.90723 6.16504 5.4248 6.15234 5.12012 6.45703C4.82812 6.73633 4.82812 7.23145 5.12012 7.52344L26.2451 28.6357ZM9.56348 21.4375H13.5117C13.6641 21.4375 13.791 21.4883 13.9053 21.5771L19.6562 27.0488C20.1514 27.5059 20.583 27.7344 21.1162 27.7344C21.6748 27.7344 22.0684 27.4043 22.2207 26.9473C22.2461 26.833 22.2842 26.7188 22.3096 26.5791L7.76074 12.0176C7.3291 12.4365 7.08789 13.0967 7.08789 13.8838V18.873C7.08789 20.498 8.01465 21.4375 9.56348 21.4375Z" fill="black"/>
</svg>
