<svg width="32" height="32" viewBox="0 0 32 32" fill="none" xmlns="http://www.w3.org/2000/svg">
<path d="M22.3047 30C19.7578 30 15 25.8936 15 16C15 6.10643 19.7578 2 22.3046 2.00005H23.7715C24.6274 2.00099 25.4481 2.34145 26.0533 2.9467C26.6586 3.55196 26.9991 4.3726 27 5.22856L27 8.66899C27.0044 9.5331 26.6714 10.3648 26.0719 10.9871C25.4724 11.6094 24.6537 11.9732 23.79 12.001L22.1396 12C21.3642 13.1875 20.9669 14.5821 21 16C20.9669 17.4186 21.3661 18.8136 22.1445 20H23.7812C24.6324 19.9988 25.4493 20.3353 26.0527 20.9356C26.6561 21.5359 26.9968 22.351 27 23.2021V26.7715C26.9991 27.6275 26.6586 28.4481 26.0533 29.0533C25.4481 29.6586 24.6274 29.9991 23.7715 30H22.3047ZM24.6399 4.3601C24.4096 4.12977 24.0972 4.00025 23.7715 4H22.3046C20.7949 4 17 7.56933 17 16C17 24.4307 20.7949 28 22.3046 28H23.7715C24.0972 27.9997 24.4096 27.8702 24.6399 27.6399C24.8702 27.4096 24.9997 27.0972 25 26.7715V23.2021C24.9974 22.8812 24.8677 22.5744 24.6392 22.349C24.4107 22.1237 24.1022 21.9981 23.7812 21.9999H21.8428C20.4346 21.9999 19 18.9716 19 15.9999C19 13.2988 20.3086 9.99995 21.8369 9.99995L23.791 10.0009C24.1246 9.97555 24.4358 9.82335 24.6607 9.57561C24.8855 9.32788 25.0069 9.00343 25 8.66894L25 5.22852C24.9997 4.90277 24.8702 4.59044 24.6399 4.3601Z" fill="#0F0F0F"/>
<path d="M3 10.5C2.44772 10.5 2 10.9477 2 11.5C2 12.0523 2.44772 12.5 3 12.5H12.5C13.0523 12.5 13.5 12.0523 13.5 11.5C13.5 10.9477 13.0523 10.5 12.5 10.5H3Z" fill="#0F0F0F"/>
<path d="M6 16C6 15.4477 6.44772 15 7 15L12.5 15C13.0523 15 13.5 15.4477 13.5 16C13.5 16.5523 13.0523 17 12.5 17L7 17C6.44772 17 6 16.5523 6 16Z" fill="#0F0F0F"/>
<path d="M11 19.5C10.4477 19.5 10 19.9477 10 20.5C10 21.0523 10.4477 21.5 11 21.5H12.5C13.0523 21.5 13.5 21.0523 13.5 20.5C13.5 19.9477 13.0523 19.5 12.5 19.5H11Z" fill="#0F0F0F"/>
</svg>
