<svg width="32" height="32" viewBox="0 0 32 32" fill="none" xmlns="http://www.w3.org/2000/svg">
<path d="M29 16.5C28.9343 16.5 28.8693 16.4871 28.8086 16.462C28.7479 16.4369 28.6928 16.4001 28.6464 16.3536C28.5999 16.3072 28.5631 16.2521 28.538 16.1914C28.5129 16.1307 28.5 16.0657 28.5 16C28.5 18.4723 27.7669 20.889 26.3934 22.9446C25.0199 25.0002 23.0676 26.6024 20.7836 27.5485C18.4995 28.4946 15.9861 28.7421 13.5614 28.2598C11.1366 27.7775 8.90933 26.587 7.16117 24.8388C5.41302 23.0907 4.22251 20.8634 3.74019 18.4386C3.25787 16.0139 3.50542 13.5005 4.45151 11.2165C5.39761 8.93238 6.99976 6.98015 9.05538 5.60663C11.111 4.23311 13.5277 3.5 16 3.5C15.8674 3.5 15.7402 3.44732 15.6465 3.35355C15.5527 3.25979 15.5 3.13261 15.5 3C15.5 2.86739 15.5527 2.74021 15.6465 2.64645C15.7402 2.55268 15.8674 2.5 16 2.5C13.33 2.5 10.7199 3.29176 8.49981 4.77516C6.27974 6.25856 4.54942 8.36697 3.52763 10.8338C2.50585 13.3006 2.2385 16.015 2.7594 18.6337C3.28031 21.2525 4.56606 23.6579 6.45406 25.5459C8.34207 27.434 10.7475 28.7197 13.3663 29.2406C15.985 29.7615 18.6994 29.4942 21.1662 28.4724C23.633 27.4506 25.7414 25.7203 27.2248 23.5002C28.7082 21.2801 29.5 18.67 29.5 16C29.5 16.0657 29.4871 16.1307 29.462 16.1914C29.4369 16.2521 29.4001 16.3072 29.3536 16.3536C29.3072 16.4001 29.2521 16.4369 29.1914 16.462C29.1307 16.4871 29.0657 16.5 29 16.5V16.5Z" fill="#D1D3D4"/>
<path d="M15.5 4C15.5 4.06567 15.5129 4.13071 15.538 4.19139C15.5631 4.25207 15.5999 4.3072 15.6464 4.35364C15.6928 4.40008 15.7479 4.4369 15.8086 4.46202C15.8693 4.48713 15.9343 4.50004 16 4.5C19.3141 4.50373 22.4913 5.82188 24.8347 8.16528C27.1781 10.5087 28.4963 13.6859 28.5 17C28.5 17.1326 28.5527 17.2598 28.6464 17.3536C28.7402 17.4473 28.8674 17.5 29 17.5C29.1326 17.5 29.2598 17.4473 29.3536 17.3536C29.4473 17.2598 29.5 17.1326 29.5 17C29.4961 13.4208 28.0725 9.98927 25.5416 7.45838C23.0107 4.92748 19.5792 3.50391 16 3.5C15.9343 3.49996 15.8693 3.51287 15.8086 3.53798C15.7479 3.5631 15.6928 3.59992 15.6464 3.64636C15.5999 3.6928 15.5631 3.74793 15.538 3.80861C15.5129 3.86929 15.5 3.93433 15.5 4V4Z" fill="#0F0F0F"/>
</svg>
