<svg width="32" height="32" viewBox="0 0 32 32" fill="none" xmlns="http://www.w3.org/2000/svg">
<path d="M2.25 6C2.25 3.89786 4.02175 2.25 6.13636 2.25H11.3636C13.4782 2.25 15.25 3.89786 15.25 6V13C15.25 13.4142 14.9142 13.75 14.5 13.75C14.0858 13.75 13.75 13.4142 13.75 13V6C13.75 4.78843 12.7134 3.75 11.3636 3.75H6.13636C4.78664 3.75 3.75 4.78843 3.75 6V26C3.75 27.2116 4.78664 28.25 6.13636 28.25H11.3636C12.7134 28.25 13.75 27.2116 13.75 26V19C13.75 18.5858 14.0858 18.25 14.5 18.25C14.9142 18.25 15.25 18.5858 15.25 19V26C15.25 28.1021 13.4782 29.75 11.3636 29.75H6.13636C4.02175 29.75 2.25 28.1021 2.25 26V6Z" fill="#0F0F0F"/>
<path d="M20.375 3.75C20.0844 3.75 19.8088 3.81135 19.5575 3.92246C19.1786 4.08997 18.7357 3.91866 18.5682 3.53982C18.4007 3.16099 18.572 2.7181 18.9509 2.55059C19.3884 2.35711 19.8703 2.25 20.375 2.25H21.8125C22.2267 2.25 22.5625 2.58579 22.5625 3C22.5625 3.41421 22.2267 3.75 21.8125 3.75H20.375ZM23.9375 3C23.9375 2.58579 24.2733 2.25 24.6875 2.25H26.125C26.6297 2.25 27.1116 2.35711 27.5491 2.55059C27.928 2.7181 28.0993 3.16099 27.9318 3.53982C27.7643 3.91866 27.3214 4.08997 26.9425 3.92246C26.6912 3.81135 26.4156 3.75 26.125 3.75H24.6875C24.2733 3.75 23.9375 3.41421 23.9375 3ZM17.9821 4.17314C18.3681 4.32334 18.5593 4.75804 18.4091 5.14406C18.3069 5.40651 18.25 5.69511 18.25 6V7.75C18.25 8.16421 17.9142 8.5 17.5 8.5C17.0858 8.5 16.75 8.16421 16.75 7.75V6C16.75 5.507 16.8423 5.03408 17.0112 4.60014C17.1614 4.21411 17.5961 4.02294 17.9821 4.17314ZM28.5179 4.17314C28.9039 4.02294 29.3386 4.21411 29.4888 4.60014C29.6577 5.03408 29.75 5.507 29.75 6V7.66667C29.75 8.08088 29.4142 8.41667 29 8.41667C28.5858 8.41667 28.25 8.08088 28.25 7.66667V6C28.25 5.69511 28.1931 5.40651 28.0909 5.14406C27.9407 4.75804 28.1319 4.32334 28.5179 4.17314ZM29 10.25C29.4142 10.25 29.75 10.5858 29.75 11V14.3333C29.75 14.7475 29.4142 15.0833 29 15.0833C28.5858 15.0833 28.25 14.7475 28.25 14.3333V11C28.25 10.5858 28.5858 10.25 29 10.25ZM17.5 10.5C17.9142 10.5 18.25 10.8358 18.25 11.25V13C18.25 13.4142 17.9142 13.75 17.5 13.75C17.0858 13.75 16.75 13.4142 16.75 13V11.25C16.75 10.8358 17.0858 10.5 17.5 10.5ZM29 16.9167C29.4142 16.9167 29.75 17.2525 29.75 17.6667V21C29.75 21.4142 29.4142 21.75 29 21.75C28.5858 21.75 28.25 21.4142 28.25 21V17.6667C28.25 17.2525 28.5858 16.9167 29 16.9167ZM17.5 18.25C17.9142 18.25 18.25 18.5858 18.25 19V20.75C18.25 21.1642 17.9142 21.5 17.5 21.5C17.0858 21.5 16.75 21.1642 16.75 20.75V19C16.75 18.5858 17.0858 18.25 17.5 18.25ZM17.5 23.5C17.9142 23.5 18.25 23.8358 18.25 24.25V26C18.25 26.3049 18.3069 26.5935 18.4091 26.8559C18.5593 27.242 18.3681 27.6767 17.9821 27.8269C17.596 27.9771 17.1614 27.7859 17.0112 27.3999C16.8423 26.9659 16.75 26.493 16.75 26V24.25C16.75 23.8358 17.0858 23.5 17.5 23.5ZM29 23.5833C29.4142 23.5833 29.75 23.9191 29.75 24.3333V26C29.75 26.493 29.6577 26.9659 29.4888 27.3999C29.3386 27.7859 28.9039 27.9771 28.5179 27.8269C28.1319 27.6767 27.9407 27.242 28.0909 26.8559C28.1931 26.5935 28.25 26.3049 28.25 26V24.3333C28.25 23.9191 28.5858 23.5833 29 23.5833ZM18.5682 28.4602C18.7357 28.0813 19.1786 27.91 19.5575 28.0775C19.8088 28.1887 20.0844 28.25 20.375 28.25H21.8125C22.2267 28.25 22.5625 28.5858 22.5625 29C22.5625 29.4142 22.2267 29.75 21.8125 29.75H20.375C19.8703 29.75 19.3884 29.6429 18.9509 29.4494C18.572 29.2819 18.4007 28.839 18.5682 28.4602ZM27.9318 28.4602C28.0993 28.839 27.928 29.2819 27.5491 29.4494C27.1116 29.6429 26.6297 29.75 26.125 29.75H24.6875C24.2733 29.75 23.9375 29.4142 23.9375 29C23.9375 28.5858 24.2733 28.25 24.6875 28.25H26.125C26.4156 28.25 26.6912 28.1887 26.9425 28.0775C27.3214 27.91 27.7643 28.0813 27.9318 28.4602Z" fill="#0F0F0F"/>
<path d="M24.75 16C24.75 16.4142 24.4142 16.75 24 16.75H10C9.58579 16.75 9.25 16.4142 9.25 16C9.25 15.5858 9.58579 15.25 10 15.25H24C24.4142 15.25 24.75 15.5858 24.75 16Z" fill="#0F0F0F"/>
<path d="M24.7305 15.4697C25.0234 15.7626 25.0234 16.2374 24.7305 16.5303L21.7305 19.5303C21.4376 19.8232 20.9628 19.8232 20.6699 19.5303C20.377 19.2374 20.377 18.7626 20.6699 18.4697L23.1395 16L20.6699 13.5303C20.377 13.2374 20.377 12.7626 20.6699 12.4697C20.9628 12.1768 21.4376 12.1768 21.7305 12.4697L24.7305 15.4697Z" fill="#0F0F0F"/>
</svg>
