<svg width="32" height="32" viewBox="0 0 32 32" fill="none" xmlns="http://www.w3.org/2000/svg">
<path fill-rule="evenodd" clip-rule="evenodd" d="M2.5 6C2.5 4.04629 4.14923 2.5 6.13636 2.5H11.3636C13.3508 2.5 15 4.04629 15 6V13C15 13.2761 14.7761 13.5 14.5 13.5C14.2239 13.5 14 13.2761 14 13V6C14 4.64 12.8408 3.5 11.3636 3.5H6.13636C4.65916 3.5 3.5 4.64 3.5 6V26C3.5 27.36 4.65916 28.5 6.13636 28.5H11.3636C12.8408 28.5 14 27.36 14 26V19C14 18.7239 14.2239 18.5 14.5 18.5C14.7761 18.5 15 18.7239 15 19V26C15 27.9537 13.3508 29.5 11.3636 29.5H6.13636C4.14923 29.5 2.5 27.9537 2.5 26V6Z" fill="black"/>
<path fill-rule="evenodd" clip-rule="evenodd" d="M20.375 3.5C20.0487 3.5 19.7387 3.56897 19.4564 3.69382C19.2038 3.80549 18.9086 3.69128 18.7969 3.43872C18.6852 3.18617 18.7994 2.89091 19.052 2.77923C19.4585 2.59949 19.906 2.5 20.375 2.5H21.8125C22.0886 2.5 22.3125 2.72386 22.3125 3C22.3125 3.27614 22.0886 3.5 21.8125 3.5H20.375ZM24.1875 3C24.1875 2.72386 24.4114 2.5 24.6875 2.5H26.125C26.594 2.5 27.0415 2.59949 27.448 2.77923C27.7006 2.89091 27.8148 3.18617 27.7031 3.43872C27.5914 3.69128 27.2962 3.80549 27.0436 3.69382C26.7613 3.56897 26.4513 3.5 26.125 3.5H24.6875C24.4114 3.5 24.1875 3.27614 24.1875 3ZM17.8914 4.40613C18.1488 4.50626 18.2762 4.79606 18.1761 5.0534C18.0628 5.34444 18 5.66376 18 6V7.75C18 8.02614 17.7761 8.25 17.5 8.25C17.2239 8.25 17 8.02614 17 7.75V6C17 5.53835 17.0864 5.09615 17.2441 4.69079C17.3443 4.43344 17.6341 4.30599 17.8914 4.40613ZM28.6086 4.40613C28.8659 4.30599 29.1557 4.43344 29.2559 4.69079C29.4136 5.09615 29.5 5.53835 29.5 6V7.66667C29.5 7.94281 29.2761 8.16667 29 8.16667C28.7239 8.16667 28.5 7.94281 28.5 7.66667V6C28.5 5.66376 28.4372 5.34444 28.3239 5.0534C28.2238 4.79606 28.3512 4.50626 28.6086 4.40613ZM29 10.5C29.2761 10.5 29.5 10.7239 29.5 11V14.3333C29.5 14.6095 29.2761 14.8333 29 14.8333C28.7239 14.8333 28.5 14.6095 28.5 14.3333V11C28.5 10.7239 28.7239 10.5 29 10.5ZM17.5 10.75C17.7761 10.75 18 10.9739 18 11.25V13C18 13.2761 17.7761 13.5 17.5 13.5C17.2239 13.5 17 13.2761 17 13V11.25C17 10.9739 17.2239 10.75 17.5 10.75ZM29 17.1667C29.2761 17.1667 29.5 17.3905 29.5 17.6667V21C29.5 21.2761 29.2761 21.5 29 21.5C28.7239 21.5 28.5 21.2761 28.5 21V17.6667C28.5 17.3905 28.7239 17.1667 29 17.1667ZM17.5 18.5C17.7761 18.5 18 18.7239 18 19V20.75C18 21.0261 17.7761 21.25 17.5 21.25C17.2239 21.25 17 21.0261 17 20.75V19C17 18.7239 17.2239 18.5 17.5 18.5ZM17.5 23.75C17.7761 23.75 18 23.9739 18 24.25V26C18 26.3362 18.0628 26.6556 18.1761 26.9466C18.2762 27.2039 18.1488 27.4937 17.8914 27.5939C17.6341 27.694 17.3443 27.5666 17.2441 27.3092C17.0864 26.9038 17 26.4616 17 26V24.25C17 23.9739 17.2239 23.75 17.5 23.75ZM29 23.8333C29.2761 23.8333 29.5 24.0572 29.5 24.3333V26C29.5 26.4617 29.4136 26.9038 29.2559 27.3092C29.1557 27.5666 28.8659 27.694 28.6086 27.5939C28.3512 27.4937 28.2238 27.2039 28.3239 26.9466C28.4372 26.6556 28.5 26.3362 28.5 26V24.3333C28.5 24.0572 28.7239 23.8333 29 23.8333ZM18.7969 28.5613C18.9086 28.3087 19.2038 28.1945 19.4564 28.3062C19.7387 28.431 20.0487 28.5 20.375 28.5H21.8125C22.0886 28.5 22.3125 28.7239 22.3125 29C22.3125 29.2761 22.0886 29.5 21.8125 29.5H20.375C19.906 29.5 19.4585 29.4005 19.052 29.2208C18.7994 29.1091 18.6852 28.8138 18.7969 28.5613ZM27.7031 28.5613C27.8148 28.8138 27.7006 29.1091 27.448 29.2208C27.0415 29.4005 26.594 29.5 26.125 29.5H24.6875C24.4114 29.5 24.1875 29.2761 24.1875 29C24.1875 28.7239 24.4114 28.5 24.6875 28.5H26.125C26.4513 28.5 26.7613 28.431 27.0436 28.3062C27.2962 28.1945 27.5914 28.3087 27.7031 28.5613Z" fill="black"/>
<path fill-rule="evenodd" clip-rule="evenodd" d="M24.5 16C24.5 16.2761 24.2761 16.5 24 16.5H10C9.72386 16.5 9.5 16.2761 9.5 16C9.5 15.7239 9.72386 15.5 10 15.5H24C24.2761 15.5 24.5 15.7239 24.5 16Z" fill="black"/>
<path fill-rule="evenodd" clip-rule="evenodd" d="M24.5537 15.6464C24.749 15.8417 24.749 16.1583 24.5537 16.3536L21.5537 19.3536C21.3585 19.5488 21.0419 19.5488 20.8466 19.3536C20.6514 19.1583 20.6514 18.8417 20.8466 18.6464L23.4931 16L20.8466 13.3536C20.6514 13.1583 20.6514 12.8417 20.8466 12.6464C21.0419 12.4512 21.3585 12.4512 21.5537 12.6464L24.5537 15.6464Z" fill="black"/>
</svg>
