<svg width="32" height="32" viewBox="0 0 32 32" fill="none" xmlns="http://www.w3.org/2000/svg">
<path d="M6.00684 23.5004H8.00684C8.40453 23.4999 8.78581 23.3418 9.06702 23.0606C9.34823 22.7794 9.50641 22.3981 9.50684 22.0004V6.00038C9.50641 5.60269 9.34823 5.22141 9.06702 4.9402C8.78581 4.65899 8.40453 4.50081 8.00684 4.50038H6.00684C5.60915 4.50081 5.22787 4.65899 4.94666 4.9402C4.66545 5.22141 4.50727 5.60269 4.50684 6.00038V22.0004C4.50727 22.3981 4.66545 22.7794 4.94666 23.0606C5.22787 23.3418 5.60915 23.4999 6.00684 23.5004ZM5.50684 6.00038C5.5071 5.86785 5.55987 5.74083 5.65358 5.64712C5.74729 5.55341 5.87431 5.50064 6.00684 5.50038H8.00684C8.13937 5.50064 8.26639 5.55341 8.3601 5.64712C8.45381 5.74083 8.50658 5.86785 8.50684 6.00038V11L8.49994 11H5.50684V6.00038Z" fill="#0F0F0F"/>
<path d="M15 23.5004H17C17.3977 23.4999 17.779 23.3418 18.0602 23.0606C18.3414 22.7794 18.4996 22.3981 18.5 22.0004V6.00038C18.4996 5.60269 18.3414 5.22141 18.0602 4.9402C17.779 4.65899 17.3977 4.50081 17 4.50038H15C14.6023 4.50081 14.221 4.65899 13.9398 4.9402C13.6586 5.22141 13.5004 5.60269 13.5 6.00038V22.0004C13.5004 22.3981 13.6586 22.7794 13.9398 23.0606C14.221 23.3418 14.6023 23.4999 15 23.5004ZM14.5 6.00038C14.5003 5.86785 14.553 5.74083 14.6467 5.64712C14.7404 5.55341 14.8675 5.50065 15 5.50038H17C17.1325 5.50065 17.2596 5.55341 17.3533 5.64712C17.447 5.74083 17.4997 5.86785 17.5 6.00038L17.4999 8H14.5V6.00038Z" fill="#0F0F0F"/>
<path d="M26 4.50038H24C23.6023 4.50081 23.221 4.65899 22.9398 4.9402C22.6586 5.22141 22.5004 5.60269 22.5 6.00038V22.0004C22.5004 22.3981 22.6586 22.7794 22.9398 23.0606C23.221 23.3418 23.6023 23.4999 24 23.5004H26C26.3977 23.4999 26.779 23.3418 27.0602 23.0606C27.3414 22.7794 27.4996 22.3981 27.5 22.0004V6.00038C27.4996 5.60269 27.3414 5.22141 27.0602 4.9402C26.779 4.65899 26.3977 4.50081 26 4.50038Z" fill="#0F0F0F"/>
<path d="M27 26.4994H5C4.86739 26.4994 4.74021 26.5521 4.64645 26.6459C4.55268 26.7396 4.5 26.8668 4.5 26.9994C4.5 27.132 4.55268 27.2592 4.64645 27.353C4.74021 27.4467 4.86739 27.4994 5 27.4994H27C27.1326 27.4994 27.2598 27.4467 27.3536 27.353C27.4473 27.2592 27.5 27.132 27.5 26.9994C27.5 26.8668 27.4473 26.7396 27.3536 26.6459C27.2598 26.5521 27.1326 26.4994 27 26.4994Z" fill="#0F0F0F"/>
</svg>
