<svg width="37" height="31" viewBox="0 0 37 31" fill="none" xmlns="http://www.w3.org/2000/svg">
<path d="M9.96875 28.7578C10.4004 29.0752 10.9209 28.9863 11.5811 28.5039L18.5 23.4385L25.4189 28.5039C26.0664 28.9863 26.5996 29.0752 27.0186 28.7578C27.4502 28.4404 27.5518 27.9199 27.2852 27.1455L24.5811 19.0078L31.5508 14.0059C32.2109 13.5361 32.4395 13.041 32.2744 12.5459C32.1094 12.0508 31.6396 11.7842 30.8271 11.7969L22.2705 11.835L19.6553 3.67188C19.4014 2.89746 19.0205 2.5293 18.5 2.5293C17.9668 2.5293 17.5986 2.89746 17.3447 3.67188L14.7295 11.835L6.17285 11.7969C5.34766 11.7842 4.87793 12.0508 4.71289 12.5459C4.54785 13.041 4.78906 13.5361 5.44922 14.0059L12.4062 19.0078L9.71484 27.1455C9.44824 27.9199 9.5498 28.4404 9.96875 28.7578ZM11.3271 26.8916C11.3018 26.8535 11.3145 26.8281 11.3398 26.7393L13.9551 19.0713C14.0947 18.6523 14.0059 18.2969 13.625 18.0303L6.99805 13.3838C6.92188 13.333 6.88379 13.2949 6.90918 13.2568C6.92188 13.2188 6.95996 13.2188 7.04883 13.2188L15.1611 13.3203C15.6055 13.3203 15.8975 13.1426 16.0371 12.6982L18.4111 4.9541C18.4365 4.86523 18.4619 4.82715 18.5 4.82715C18.5381 4.82715 18.5635 4.86523 18.5889 4.9541L20.9629 12.6982C21.1025 13.1426 21.3945 13.3203 21.8389 13.3203L29.9512 13.2188C30.04 13.2188 30.0781 13.2188 30.0908 13.2568C30.1035 13.2949 30.0781 13.333 30.002 13.3838L23.375 18.0303C22.9941 18.2969 22.8926 18.6523 23.0449 19.0713L25.6602 26.7393C25.6855 26.8281 25.6982 26.8535 25.6602 26.8916C25.6348 26.917 25.5967 26.8916 25.5205 26.8535L19.0459 21.9785C18.6904 21.7119 18.2969 21.7119 17.9541 21.9785L11.4795 26.8535C11.4033 26.8916 11.3652 26.917 11.3271 26.8916Z" fill="#0F0F0F"/>
</svg>
