<svg width="32" height="32" viewBox="0 0 32 32" fill="none" xmlns="http://www.w3.org/2000/svg">
<path d="M29.7499 16C29.7498 14.1493 29.3762 12.3177 28.6514 10.6149C27.9265 8.91211 26.8655 7.37313 25.5317 6.09018C24.1979 4.80722 22.6189 3.80671 20.8892 3.14856C19.1595 2.49042 17.3148 2.1882 15.4655 2.26C12.0098 2.40505 8.7346 3.84289 6.28889 6.28863C3.84319 8.73437 2.4054 12.0096 2.2604 15.4653C2.18843 17.3146 2.49052 19.1594 3.14857 20.8891C3.80662 22.6188 4.80708 24.1979 6.09001 25.5318C7.37293 26.8656 8.91192 27.9267 10.6148 28.6515C12.3176 29.3764 14.1492 29.75 15.9999 29.75C16.8074 29.7211 17.6125 29.6448 18.411 29.5215C18.8082 29.4648 19.1738 29.2731 19.4462 28.9785L29.2099 18.4272C29.2874 18.3395 29.3576 18.2456 29.4199 18.1465C29.5601 17.9156 29.6461 17.656 29.6715 17.3871C29.7048 16.9985 29.7499 16.3823 29.7499 16ZM7.1745 24.4955C6.02608 23.3098 5.13099 21.9027 4.54372 20.36C3.95645 18.8173 3.68929 17.1712 3.7585 15.5219C3.9223 12.4552 5.2143 9.55743 7.38595 7.38596C9.5576 5.21449 12.4555 3.92274 15.5222 3.7592C15.6833 3.75287 15.8438 3.74977 16.0036 3.7499C19.2519 3.75088 22.3668 5.04195 24.6633 7.33918C26.9598 9.63642 28.2499 12.7517 28.2499 16C28.2499 16.2646 28.2249 16.653 28.1999 16.98L24.9617 17.19C23.1943 17.2974 21.5273 18.0477 20.2749 19.2994C19.0225 20.551 18.2713 22.2177 18.1629 23.985L17.9143 28.0743C17.28 28.169 16.6408 28.2276 15.9999 28.25C14.3511 28.2558 12.7183 27.926 11.201 27.2805C9.68376 26.635 8.31378 25.6875 7.1745 24.4955ZM27.0445 18.5583L19.5007 26.7107L19.6607 24.0766C19.7464 22.6745 20.3425 21.3522 21.3363 20.3595C22.3302 19.3667 23.6531 18.7721 25.0553 18.6879L27.0445 18.5583Z" fill="#0F0F0F"/>
</svg>
