<svg width="32" height="32" viewBox="0 0 32 32" fill="none" xmlns="http://www.w3.org/2000/svg">
<path d="M16.0005 2.50024C13.3304 2.50024 10.7204 3.29201 8.5003 4.7754C6.28023 6.2588 4.5499 8.36722 3.52812 10.834C2.50634 13.3008 2.23899 16.0152 2.75989 18.634C3.28079 21.2527 4.56654 23.6582 6.45455 25.5462C8.34256 27.4342 10.748 28.7199 13.3668 29.2408C15.9855 29.7617 18.6999 29.4944 21.1667 28.4726C23.6335 27.4508 25.7419 25.7205 27.2253 23.5004C28.7087 21.2804 29.5005 18.6703 29.5005 16.0002C29.4966 12.421 28.073 8.98951 25.5421 6.45862C23.0112 3.92772 19.5797 2.50415 16.0005 2.50024ZM13 11H19C20.1046 11 21 11.8954 21 13V19C21 20.1046 20.1046 21 19 21H13C11.8954 21 11 20.1046 11 19V13C11 11.8954 11.8954 11 13 11Z" fill="#0F0F0F"/>
</svg>
