<svg width="32" height="32" viewBox="0 0 32 32" fill="none" xmlns="http://www.w3.org/2000/svg">
<path d="M23 27.5002H9C7.80693 27.4989 6.66309 27.0244 5.81946 26.1808C4.97583 25.3371 4.5013 24.1933 4.5 23.0002V9.00023C4.5013 7.80715 4.97582 6.66332 5.81945 5.81968C6.66309 4.97605 7.80692 4.50153 9 4.50023H23C24.1931 4.50153 25.3369 4.97606 26.1805 5.81969C27.0242 6.66332 27.4987 7.80716 27.5 9.00023V23.0002C27.4987 24.1933 27.0242 25.3371 26.1805 26.1808C25.3369 27.0244 24.1931 27.4989 23 27.5002ZM9 5.50023C8.07209 5.50135 7.1825 5.87046 6.52637 6.5266C5.87023 7.18273 5.50112 8.07232 5.5 9.00023V23.0002C5.50112 23.9281 5.87023 24.8177 6.52637 25.4739C7.1825 26.13 8.07209 26.4991 9 26.5002H23C23.9279 26.4991 24.8175 26.13 25.4736 25.4739C26.1298 24.8177 26.4989 23.9281 26.5 23.0002V9.00023C26.4989 8.07232 26.1298 7.18273 25.4736 6.5266C24.8175 5.87046 23.9279 5.50135 23 5.50023H9Z" fill="#0F0F0F"/>
</svg>
