<svg width="32" height="32" viewBox="0 0 32 32" fill="none" xmlns="http://www.w3.org/2000/svg">
<path d="M5.85645 25.7031C6.33887 25.7031 6.56738 25.5 6.75781 24.9668L8.6748 19.8633H16.5586L18.4756 24.9668C18.666 25.5 18.8945 25.7031 19.377 25.7031C19.8975 25.7031 20.2402 25.3984 20.2402 24.9033C20.2402 24.7383 20.2021 24.5859 20.1387 24.3701L13.8164 7.84082C13.6006 7.26953 13.2197 6.97754 12.623 6.97754C12.0264 6.97754 11.6328 7.25684 11.4297 7.84082L5.10742 24.3828C5.03125 24.5859 5.00586 24.751 5.00586 24.916C5.00586 25.3984 5.33594 25.7031 5.85645 25.7031ZM9.15723 18.3652L12.5723 9.17383H12.6484L16.0635 18.3652H9.15723ZM26.2832 28.6738C26.7148 28.6738 26.9941 28.3818 26.9941 27.9756V19.1523C26.9941 18.6699 26.7021 18.3652 26.2197 18.3652C25.7881 18.3652 25.585 18.5303 25.2676 18.7461L23.0459 20.2314C22.7666 20.4219 22.665 20.5869 22.665 20.8154C22.665 21.1328 22.9062 21.3867 23.2236 21.3867C23.4141 21.3867 23.541 21.3359 23.7188 21.209L25.5342 20.0156H25.5723V27.9756C25.5723 28.3818 25.8516 28.6738 26.2832 28.6738Z" fill="black"/>
</svg>
