<svg width="32" height="32" viewBox="0 0 32 32" fill="none" xmlns="http://www.w3.org/2000/svg">
<path d="M24.4551 14.9502C24.8994 14.9502 25.1787 14.6582 25.1787 14.252V5.42871C25.1787 4.95898 24.874 4.6543 24.4043 4.6543C23.9727 4.6543 23.7568 4.80664 23.4395 5.02246L21.2305 6.50781C20.9512 6.69824 20.8369 6.86328 20.8369 7.0918C20.8369 7.40918 21.0781 7.66309 21.3955 7.66309C21.5859 7.66309 21.7129 7.6123 21.9033 7.48535L23.7188 6.29199H23.7441V14.252C23.7441 14.6582 24.0234 14.9502 24.4551 14.9502ZM7.67188 25.7031C8.1543 25.7031 8.38281 25.5 8.57324 24.9668L10.4902 19.8633H18.374L20.291 24.9668C20.4814 25.5 20.71 25.7031 21.1924 25.7031C21.7129 25.7031 22.0557 25.3984 22.0557 24.9033C22.0557 24.7383 22.0176 24.5859 21.9541 24.3701L15.6318 7.84082C15.416 7.26953 15.0352 6.97754 14.4385 6.97754C13.8418 6.97754 13.4482 7.25684 13.2451 7.84082L6.92285 24.3828C6.84668 24.5859 6.82129 24.751 6.82129 24.916C6.82129 25.3984 7.15137 25.7031 7.67188 25.7031ZM10.9727 18.3652L14.3877 9.17383H14.4639L17.8789 18.3652H10.9727Z" fill="black"/>
</svg>
