<svg width="32" height="32" viewBox="0 0 32 32" fill="none" xmlns="http://www.w3.org/2000/svg">
<path d="M4.87891 27.8486H27.1211C29.6094 27.8486 30.8662 26.5791 30.8662 24.1416V8.57715C30.8662 6.12695 29.6094 4.85742 27.1211 4.85742H4.87891C2.40332 4.85742 1.13379 6.11426 1.13379 8.57715V24.1416C1.13379 26.5918 2.40332 27.8486 4.87891 27.8486ZM2.70801 8.65332C2.70801 7.19336 3.48242 6.43164 4.9043 6.43164H15.3018V12.1191H2.70801V8.65332ZM16.6982 12.1191V6.43164H27.0957C28.4922 6.43164 29.292 7.19336 29.292 8.65332V12.1191H16.6982ZM16.6982 19.1904V13.5283H29.292V19.1904H16.6982ZM15.3018 13.5283V19.1904H2.70801V13.5283H15.3018ZM27.0957 26.2744H16.6982V20.5869H29.292V24.0527C29.292 25.5254 28.4922 26.2744 27.0957 26.2744ZM4.9043 26.2744C3.48242 26.2744 2.70801 25.5254 2.70801 24.0527V20.5869H15.3018V26.2744H4.9043Z" fill="black"/>
</svg>
