<svg width="32" height="32" viewBox="0 0 32 32" fill="none" xmlns="http://www.w3.org/2000/svg">
<path d="M25 5.25H7C5.74066 5.25143 4.53331 5.75233 3.64282 6.64282C2.75233 7.53331 2.25143 8.74066 2.25 10V22C2.25143 23.2593 2.75233 24.4667 3.64282 25.3572C4.53331 26.2477 5.74066 26.7486 7 26.75H25C26.2593 26.7486 27.4667 26.2477 28.3572 25.3572C29.2477 24.4667 29.7486 23.2593 29.75 22V10C29.7486 8.74066 29.2477 7.53331 28.3572 6.64282C27.4667 5.75233 26.2593 5.25143 25 5.25ZM3.75 22V10C3.751 9.13835 4.09373 8.31228 4.70301 7.703C5.31228 7.09373 6.13835 6.751 7 6.75H20.2656V25.25H7C6.13835 25.249 5.31228 24.9063 4.70301 24.297C4.09373 23.6877 3.751 22.8616 3.75 22ZM28.25 22C28.249 22.8616 27.9063 23.6877 27.297 24.297C26.6877 24.9063 25.8616 25.249 25 25.25H21.7656V6.75H25C25.8616 6.751 26.6877 7.09372 27.297 7.703C27.9063 8.31228 28.249 9.13835 28.25 10V22Z" fill="#0F0F0F"/>
<path d="M25 14.25C24.8011 14.2501 24.6104 14.3291 24.4697 14.4697C24.3291 14.6104 24.2501 14.8011 24.25 15V17C24.25 17.1989 24.329 17.3897 24.4697 17.5303C24.6103 17.671 24.8011 17.75 25 17.75C25.1989 17.75 25.3897 17.671 25.5303 17.5303C25.671 17.3897 25.75 17.1989 25.75 17V15C25.75 14.8011 25.6709 14.6104 25.5303 14.4697C25.3896 14.3291 25.1989 14.2501 25 14.25Z" fill="#0F0F0F"/>
</svg>
