<svg width="32" height="32" viewBox="0 0 32 32" fill="none" xmlns="http://www.w3.org/2000/svg">
<path d="M15.3906 29.7783C17.0918 31.4922 18.8691 31.5049 20.6211 29.7656L28.6953 21.7041C30.4346 19.9648 30.4219 18.1748 28.708 16.4609L16.2031 4.00684C15.3271 3.14355 14.8828 3.06738 13.5371 3.06738H8.71289C7.48145 3.06738 7.11328 3.30859 6.14844 4.27344L3.19043 7.23145C2.22559 8.19629 1.98438 8.56445 1.98438 9.7959V14.6201C1.98438 15.9658 2.06055 16.4102 2.92383 17.2861L15.3906 29.7783ZM16.4443 28.5977L4.04102 16.1816C3.72363 15.8643 3.55859 15.5342 3.55859 15.0645V9.71973C3.55859 9.2627 3.71094 8.93262 4.04102 8.61523L7.53223 5.12402C7.84961 4.79395 8.17969 4.6416 8.63672 4.6416H13.9814C14.4512 4.6416 14.7812 4.80664 15.0986 5.12402L27.5273 17.5146C28.543 18.5303 28.5684 19.6094 27.5273 20.6377L19.5674 28.5977C18.5264 29.6387 17.46 29.626 16.4443 28.5977ZM10.1475 12.7793C11.0361 12.7793 11.6963 12.0938 11.6963 11.2305C11.6963 10.3672 11.0361 9.69434 10.1475 9.69434C9.27148 9.69434 8.61133 10.3672 8.61133 11.2305C8.61133 12.0938 9.27148 12.7793 10.1475 12.7793Z" fill="black"/>
</svg>
