<svg width="32" height="32" viewBox="0 0 32 32" fill="none" xmlns="http://www.w3.org/2000/svg">
<path d="M24.0144 13.9977C25.201 13.9977 26.3611 13.6458 27.3478 12.9866C28.3345 12.3273 29.1035 11.3902 29.5576 10.2938C30.0118 9.19748 30.1306 7.99108 29.8991 6.82719C29.6676 5.66331 29.0961 4.59421 28.257 3.7551C27.4179 2.91598 26.3488 2.34454 25.1849 2.11303C24.021 1.88151 22.8146 2.00033 21.7183 2.45446C20.6219 2.90859 19.6848 3.67762 19.0255 4.66432C18.3663 5.65101 18.0144 6.81105 18.0144 7.99774C18.0161 9.5885 18.6488 11.1136 19.7736 12.2385C20.8985 13.3633 22.4236 13.996 24.0144 13.9977ZM24.0144 11.9977C23.1299 11.9952 22.2714 11.6993 21.5732 11.1564C20.875 10.6135 20.3767 9.85426 20.1564 8.99774H27.8724C27.6521 9.85427 27.1537 10.6135 26.4556 11.1564C25.7574 11.6993 24.8988 11.9952 24.0144 11.9977ZM24.0144 3.99774C24.8988 4.00029 25.7573 4.2962 26.4555 4.8391C27.1537 5.38201 27.652 6.14121 27.8724 6.99774H20.1563C20.3767 6.14121 20.875 5.382 21.5732 4.83909C22.2714 4.29619 23.1299 4.00028 24.0144 3.99774Z" fill="#0F0F0F"/>
<path d="M28.9997 15.9997C28.8684 15.9996 28.7383 16.0254 28.6169 16.0757C28.4956 16.1259 28.3853 16.1995 28.2924 16.2924C28.1996 16.3853 28.1259 16.4956 28.0757 16.6169C28.0254 16.7383 27.9996 16.8684 27.9997 16.9997V21.5554C28.0536 22.4087 27.7688 23.2489 27.2072 23.8937C26.6456 24.5385 25.8524 24.9359 24.9997 24.9997H22.7712C22.5086 24.0666 22.0483 23.201 21.4214 22.4616C20.7945 21.7223 20.0159 21.1265 19.1383 20.7148C19.7798 20.0905 20.2205 19.2889 20.4041 18.4128C20.5877 17.5366 20.5057 16.6255 20.1687 15.7962C19.8318 14.9668 19.2551 14.2568 18.5124 13.7569C17.7698 13.2571 16.8949 12.9901 15.9997 12.9901C15.1045 12.9901 14.2296 13.2571 13.487 13.7569C12.7443 14.2568 12.1677 14.9668 11.8307 15.7962C11.4937 16.6255 11.4118 17.5366 11.5953 18.4128C11.7789 19.2889 12.2196 20.0905 12.8611 20.7148C11.9835 21.1266 11.2048 21.7224 10.578 22.4618C9.95108 23.2012 9.4907 24.0668 9.2281 24.9999L6.99971 24.9997C6.14701 24.9359 5.35384 24.5385 4.79223 23.8937C4.23062 23.2489 3.94586 22.4087 3.99971 21.5554V10.444C3.94586 9.59062 4.23063 8.75041 4.79224 8.10562C5.35384 7.46084 6.14701 7.06345 6.99971 6.99967H14.0001C14.2654 6.99967 14.5197 6.89431 14.7073 6.70677C14.8948 6.51924 15.0001 6.26488 15.0001 5.99967C15.0001 5.73445 14.8948 5.4801 14.7073 5.29256C14.5197 5.10502 14.2654 4.99967 14.0001 4.99967H6.99971C5.61614 5.06264 4.31371 5.67056 3.37688 6.69064C2.44005 7.71073 1.94495 9.06008 1.99971 10.444V21.5554C1.94495 22.9393 2.44005 24.2886 3.37688 25.3087C4.31371 26.3288 5.61614 26.9367 6.99971 26.9997H9.02699C9.14637 27.7805 9.71834 28.7248 11.5466 29.3591C12.9872 29.8093 14.4906 30.0256 15.9997 29.9997C19.0734 29.9997 22.6298 29.2038 22.9664 26.9997H24.9997C26.3833 26.9367 27.6857 26.3288 28.6225 25.3087C29.5594 24.2886 30.0545 22.9393 29.9997 21.5554V16.9997C29.9998 16.8684 29.974 16.7383 29.9237 16.6169C29.8735 16.4956 29.7999 16.3853 29.707 16.2924C29.6141 16.1995 29.5038 16.1259 29.3825 16.0757C29.2611 16.0254 29.1311 15.9996 28.9997 15.9997ZM15.9997 14.9997C16.4942 14.9997 16.9775 15.1463 17.3886 15.421C17.7998 15.6957 18.1202 16.0862 18.3094 16.543C18.4986 16.9998 18.5481 17.5025 18.4517 17.9874C18.3552 18.4724 18.1171 18.9178 17.7675 19.2675C17.4178 19.6171 16.9724 19.8552 16.4874 19.9517C16.0025 20.0481 15.4998 19.9986 15.043 19.8094C14.5862 19.6202 14.1957 19.2997 13.921 18.8886C13.6463 18.4775 13.4997 17.9942 13.4997 17.4997C13.5003 16.8368 13.7639 16.2013 14.2326 15.7326C14.7013 15.2639 15.3369 15.0003 15.9997 14.9997ZM15.9997 27.9997C12.7644 27.9997 10.9997 27.113 10.9997 26.6569C11.0482 25.3773 11.6014 24.169 12.5384 23.2962C13.4754 22.4235 14.7199 21.9573 15.9997 21.9997C17.2795 21.9573 18.524 22.4235 19.461 23.2962C20.398 24.169 20.9513 25.3773 20.9997 26.6569C20.9997 27.113 19.2351 27.9997 15.9997 27.9997Z" fill="#0F0F0F"/>
</svg>
