<svg width="32" height="32" viewBox="0 0 32 32" fill="none" xmlns="http://www.w3.org/2000/svg">
<path d="M14.5781 31.5176C18.1201 31.5176 20.9893 28.6357 20.9893 25.1064C20.9893 23.2275 20.2148 21.5771 18.6787 20.2568C18.374 19.9902 18.2979 19.8125 18.2979 19.3809L18.3105 7.6377C18.3105 5.11133 16.8125 3.43555 14.5781 3.43555C12.3057 3.43555 10.8076 5.11133 10.8076 7.6377L10.833 19.3809C10.833 19.8125 10.7568 19.9902 10.4395 20.2568C8.91602 21.5771 8.1416 23.2275 8.1416 25.1064C8.1416 28.6357 11.0107 31.5176 14.5781 31.5176ZM14.5781 30.0957C11.8105 30.0957 9.57617 27.8486 9.57617 25.1064C9.57617 23.5068 10.2998 22.0596 11.6836 21.1074C12.1025 20.8154 12.2676 20.5107 12.2676 19.9648V7.70117C12.2676 5.96191 13.207 4.88281 14.5781 4.88281C15.9238 4.88281 16.8633 5.96191 16.8633 7.70117V19.9648C16.8633 20.5107 17.0283 20.8154 17.4473 21.1074C18.8311 22.0596 19.5547 23.5068 19.5547 25.1064C19.5547 27.8486 17.3076 30.0957 14.5781 30.0957ZM20.5576 8.00586H23.2363C23.5918 8.00586 23.8457 7.73926 23.8457 7.42188C23.8457 7.0918 23.5918 6.8252 23.2363 6.8252H20.5576C20.1895 6.8252 19.9355 7.0918 19.9355 7.42188C19.9355 7.73926 20.1895 8.00586 20.5576 8.00586ZM20.5576 11.5732H23.2363C23.5918 11.5732 23.8457 11.3066 23.8457 10.9766C23.8457 10.6592 23.5918 10.3926 23.2363 10.3926H20.5576C20.1895 10.3926 19.9355 10.6592 19.9355 10.9766C19.9355 11.3066 20.1895 11.5732 20.5576 11.5732ZM14.5654 28.3818C16.3809 28.3818 17.8408 26.9219 17.8408 25.0938C17.8408 23.8242 17.1299 22.7832 16.0762 22.2119C15.6445 21.9834 15.5049 21.8057 15.5049 21.1582V14.5312C15.5049 13.8203 15.0986 13.3887 14.5654 13.3887C14.0322 13.3887 13.626 13.8203 13.626 14.5312V21.1582C13.626 21.8057 13.4863 21.9834 13.042 22.2119C12.001 22.7832 11.29 23.8242 11.29 25.0938C11.29 26.9219 12.75 28.3818 14.5654 28.3818ZM20.5576 15.1406H23.2363C23.5918 15.1406 23.8457 14.8613 23.8457 14.5439C23.8457 14.2266 23.5918 13.9473 23.2363 13.9473H20.5576C20.1895 13.9473 19.9355 14.2266 19.9355 14.5439C19.9355 14.8613 20.1895 15.1406 20.5576 15.1406ZM20.5576 18.708H23.2363C23.5918 18.708 23.8457 18.4287 23.8457 18.1113C23.8457 17.7939 23.5918 17.5146 23.2363 17.5146H20.5576C20.1895 17.5146 19.9355 17.7939 19.9355 18.1113C19.9355 18.4287 20.1895 18.708 20.5576 18.708Z" fill="black"/>
</svg>
