<svg width="32" height="32" viewBox="0 0 32 32" fill="none" xmlns="http://www.w3.org/2000/svg">
<path d="M16.9139 6.59362C16.8352 6.41687 16.707 6.26672 16.5448 6.16134C16.3826 6.05596 16.1933 5.99988 15.9998 5.99988C15.8064 5.99988 15.6171 6.05596 15.4548 6.16134C15.2926 6.26672 15.1644 6.41687 15.0858 6.59362L7.08576 24.5936C7.03202 24.7137 7.00251 24.8432 6.99891 24.9748C6.9953 25.1063 7.01768 25.2372 7.06476 25.3601C7.11184 25.4829 7.18269 25.5953 7.27326 25.6907C7.36383 25.7861 7.47233 25.8628 7.59256 25.9162C7.71279 25.9696 7.84238 25.9988 7.9739 26.0021C8.10543 26.0054 8.23631 25.9827 8.35905 25.9353C8.48179 25.8879 8.59398 25.8168 8.68919 25.726C8.78439 25.6352 8.86075 25.5265 8.91389 25.4061L11.3165 19.9999H20.6831L23.0858 25.4061C23.1389 25.5265 23.2153 25.6352 23.3105 25.726C23.4057 25.8168 23.5179 25.8879 23.6406 25.9353C23.7633 25.9827 23.8942 26.0054 24.0257 26.0021C24.1573 25.9988 24.2869 25.9696 24.4071 25.9162C24.5273 25.8628 24.6358 25.7861 24.7264 25.6907C24.817 25.5953 24.8878 25.4829 24.9349 25.3601C24.982 25.2372 25.0043 25.1063 25.0007 24.9748C24.9971 24.8432 24.9676 24.7137 24.9139 24.5936L16.9139 6.59362ZM12.2053 17.9999L15.9998 9.46179L19.7943 17.9999H12.2053Z" fill="#0F0F0F"/>
<path d="M24.9998 1.99987H6.99982C5.67421 2.00143 4.40335 2.52871 3.466 3.46606C2.52866 4.4034 2.00138 5.67427 1.99982 6.99987V24.9999C2.00138 26.3255 2.52866 27.5963 3.466 28.5337C4.40335 29.471 5.67421 29.9983 6.99982 29.9999H24.9998C26.3254 29.9983 27.5963 29.471 28.5336 28.5337C29.471 27.5963 29.9983 26.3255 29.9998 24.9999V6.99987C29.9983 5.67427 29.471 4.4034 28.5336 3.46606C27.5963 2.52871 26.3254 2.00143 24.9998 1.99987ZM27.9998 24.9999C27.9989 25.7953 27.6826 26.5578 27.1202 27.1202C26.5578 27.6827 25.7952 27.999 24.9998 27.9999H6.99982C6.20443 27.999 5.44188 27.6827 4.87946 27.1202C4.31703 26.5578 4.00068 25.7953 3.99982 24.9999V6.99987C4.00069 6.20449 4.31704 5.44193 4.87946 4.87951C5.44188 4.31709 6.20443 4.00074 6.99982 3.99987H24.9998C25.7952 4.00074 26.5578 4.31709 27.1202 4.87951C27.6826 5.44193 27.9989 6.20449 27.9998 6.99987V24.9999Z" fill="#0F0F0F"/>
</svg>
