<svg width="32" height="32" viewBox="0 0 32 32" fill="none" xmlns="http://www.w3.org/2000/svg">
<path d="M21.5 10C22.0523 10 22.5 10.4477 22.5 11C22.5 11.5523 22.0523 12 21.5 12H17V21C17 21.5523 16.5523 22 16 22C15.4477 22 15 21.5523 15 21V12H10.5C9.94772 12 9.5 11.5523 9.5 11C9.5 10.4477 9.94772 10 10.5 10H21.5Z" fill="#0F0F0F"/>
<path d="M2 2H8V4H24V2H30V8H28V24H30V30H24V28H8V30H2V24H4V8H2V2ZM26 28H28V26H26V28ZM26 24V8H24V6H8V8H6V24H8V26H24V24H26ZM28 6V4H26V6H28ZM6 26H4V28H6V26ZM6 4H4V6H6V4Z" fill="#0F0F0F"/>
</svg>
