<svg width="32" height="32" viewBox="0 0 32 32" fill="none" xmlns="http://www.w3.org/2000/svg">
<path d="M16.4569 6.79675C16.412 6.71472 16.3459 6.64628 16.2655 6.59859C16.1851 6.55091 16.0933 6.52575 15.9998 6.52575C15.9063 6.52575 15.8146 6.55091 15.7342 6.59859C15.6537 6.64628 15.5876 6.71472 15.5428 6.79675L7.54279 24.7967C7.48891 24.918 7.4854 25.0556 7.53302 25.1794C7.58064 25.3032 7.67548 25.403 7.7967 25.4569C7.91791 25.5108 8.05556 25.5143 8.17936 25.4667C8.30317 25.4191 8.40298 25.3242 8.45686 25.203L10.9923 19.4984L10.9998 19.4999H20.9998L21.0074 19.4984L23.5428 25.203C23.5695 25.263 23.6077 25.3172 23.6553 25.3624C23.7029 25.4077 23.759 25.4431 23.8203 25.4667C23.8816 25.4903 23.9469 25.5015 24.0126 25.4999C24.0782 25.4982 24.1429 25.4836 24.2029 25.4569C24.263 25.4302 24.3171 25.392 24.3624 25.3444C24.4076 25.2968 24.443 25.2407 24.4666 25.1794C24.4902 25.1181 24.5015 25.0528 24.4998 24.9871C24.4981 24.9215 24.4835 24.8568 24.4569 24.7967L16.4569 6.79675ZM11.436 18.4999L15.9998 8.23132L20.5636 18.4999H11.436Z" fill="#0F0F0F"/>
<path d="M24.9998 2.49987H6.99982C5.80674 2.50118 4.66291 2.9757 3.81928 3.81933C2.97565 4.66296 2.50112 5.8068 2.49982 6.99987V24.9999C2.50112 26.1929 2.97564 27.3368 3.81927 28.1804C4.66291 29.024 5.80674 29.4986 6.99982 29.4999H24.9998C26.1929 29.4986 27.3367 29.024 28.1804 28.1804C29.024 27.3368 29.4985 26.1929 29.4998 24.9999V6.99987C29.4985 5.8068 29.024 4.66296 28.1804 3.81933C27.3367 2.9757 26.1929 2.50117 24.9998 2.49987ZM28.4998 24.9999C28.4987 25.9278 28.1296 26.8174 27.4735 27.4735C26.8173 28.1296 25.9277 28.4987 24.9998 28.4999H6.99982C6.0719 28.4987 5.18232 28.1296 4.52619 27.4735C3.87005 26.8174 3.50094 25.9278 3.49982 24.9999V6.99987C3.50094 6.07196 3.87005 5.18237 4.52619 4.52624C5.18232 3.87011 6.07191 3.501 6.99982 3.49987H24.9998C25.9277 3.501 26.8173 3.87011 27.4734 4.52624C28.1296 5.18237 28.4987 6.07196 28.4998 6.99987V24.9999Z" fill="#0F0F0F"/>
</svg>
