<svg width="32" height="32" viewBox="0 0 32 32" fill="none" xmlns="http://www.w3.org/2000/svg">
<path d="M10 2.5C10.2761 2.5 10.5 2.72386 10.5 3V5.5H21.5V3C21.5 2.72386 21.7239 2.5 22 2.5C22.2761 2.5 22.5 2.72386 22.5 3V5.5H23C25.4853 5.5 27.5 7.51472 27.5 10V24C27.5 26.4853 25.4853 28.5 23 28.5H9C6.51472 28.5 4.5 26.4853 4.5 24V10C4.5 7.51472 6.51472 5.5 9 5.5H9.5V3C9.5 2.72386 9.72386 2.5 10 2.5ZM9 6.5C7.067 6.5 5.5 8.067 5.5 10V24C5.5 25.933 7.067 27.5 9 27.5H23C24.933 27.5 26.5 25.933 26.5 24V10C26.5 8.067 24.933 6.5 23 6.5H9ZM16 11.5C12.9624 11.5 10.5 13.9624 10.5 17C10.5 20.0376 12.9624 22.5 16 22.5C19.0376 22.5 21.5 20.0376 21.5 17C21.5 13.9624 19.0376 11.5 16 11.5ZM9.5 17C9.5 13.4101 12.4101 10.5 16 10.5C19.5899 10.5 22.5 13.4101 22.5 17C22.5 20.5899 19.5899 23.5 16 23.5C12.4101 23.5 9.5 20.5899 9.5 17ZM13.5 16.5C13.2239 16.5 13 16.7239 13 17C13 17.2761 13.2239 17.5 13.5 17.5H18.5C18.7761 17.5 19 17.2761 19 17C19 16.7239 18.7761 16.5 18.5 16.5H13.5Z" fill="#0F0F0F"/>
</svg>
