<svg width="32" height="32" viewBox="0 0 32 32" fill="none" xmlns="http://www.w3.org/2000/svg">
<path d="M10 3C10.2761 3 10.5 3.22386 10.5 3.5V6H21.5V3.5C21.5 3.22386 21.7239 3 22 3C22.2761 3 22.5 3.22386 22.5 3.5V6H23C25.4853 6 27.5 8.01472 27.5 10.5V24.5C27.5 26.9853 25.4853 29 23 29H9C6.51472 29 4.5 26.9853 4.5 24.5V10.5C4.5 8.01472 6.51472 6 9 6H9.5V3.5C9.5 3.22386 9.72386 3 10 3ZM9 7C7.067 7 5.5 8.567 5.5 10.5V24.5C5.5 26.433 7.067 28 9 28H23C24.933 28 26.5 26.433 26.5 24.5V10.5C26.5 8.567 24.933 7 23 7H9ZM16 12C12.9624 12 10.5 14.4624 10.5 17.5C10.5 20.5376 12.9624 23 16 23C19.0376 23 21.5 20.5376 21.5 17.5C21.5 14.4624 19.0376 12 16 12ZM9.5 17.5C9.5 13.9101 12.4101 11 16 11C19.5899 11 22.5 13.9101 22.5 17.5C22.5 21.0899 19.5899 24 16 24C12.4101 24 9.5 21.0899 9.5 17.5ZM13.5 17C13.2239 17 13 17.2239 13 17.5C13 17.7761 13.2239 18 13.5 18H18.5C18.7761 18 19 17.7761 19 17.5C19 17.2239 18.7761 17 18.5 17H13.5Z" fill="#0F0F0F"/>
</svg>
