<svg width="32" height="32" viewBox="0 0 32 32" fill="none" xmlns="http://www.w3.org/2000/svg">
<path d="M16 18.0479C16.4316 18.0479 16.8252 17.9082 17.333 17.6162L27.4639 11.7383C28.2891 11.2559 28.6445 10.875 28.6445 10.2783C28.6445 9.68164 28.2891 9.28809 27.4639 8.80566L17.333 2.94043C16.8252 2.64844 16.4316 2.49609 16 2.49609C15.5684 2.49609 15.1748 2.64844 14.667 2.94043L4.53613 8.80566C3.71094 9.28809 3.35547 9.68164 3.35547 10.2783C3.35547 10.875 3.71094 11.2559 4.53613 11.7383L14.667 17.6162C15.1748 17.9082 15.5684 18.0479 16 18.0479ZM16 16.3594C15.835 16.3594 15.6953 16.3086 15.5049 16.1943L5.51367 10.4688C5.4248 10.4307 5.36133 10.3672 5.36133 10.2783C5.36133 10.1768 5.4248 10.126 5.51367 10.0752L15.5049 4.34961C15.6953 4.24805 15.835 4.18457 16 4.18457C16.165 4.18457 16.3047 4.24805 16.4951 4.34961L26.4863 10.0752C26.5752 10.126 26.6387 10.1768 26.6387 10.2783C26.6387 10.3672 26.5752 10.4307 26.4863 10.4688L16.4951 16.1943C16.3047 16.3086 16.165 16.3594 16 16.3594ZM16 24.3828C16.3936 24.3828 16.7236 24.1924 17.1807 23.9258L28.0732 17.54C28.4922 17.2988 28.6699 16.9561 28.6699 16.6387C28.6699 16.2324 28.3906 15.9023 28.1494 15.7754L16.4443 22.5166C16.2793 22.6182 16.1396 22.6816 16 22.6816C15.8604 22.6816 15.7207 22.6182 15.5557 22.5166L3.85059 15.7754C3.60938 15.9023 3.33008 16.2324 3.33008 16.6387C3.33008 16.9561 3.52051 17.3115 3.92676 17.54L14.8193 23.9258C15.2764 24.1924 15.6064 24.3828 16 24.3828ZM16 30.3623C16.3936 30.3623 16.7236 30.1846 17.1807 29.918L28.0732 23.5322C28.4795 23.291 28.6699 22.9355 28.6699 22.6182C28.6699 22.2119 28.3906 21.8945 28.1494 21.7676L16.4443 28.5088C16.2793 28.5977 16.1396 28.6738 16 28.6738C15.8604 28.6738 15.7207 28.5977 15.5557 28.5088L3.85059 21.7676C3.60938 21.8945 3.33008 22.2119 3.33008 22.6182C3.33008 22.9355 3.52051 23.291 3.92676 23.5322L14.8193 29.918C15.2764 30.1846 15.6064 30.3623 16 30.3623Z" fill="black"/>
</svg>
