<svg width="32" height="32" viewBox="0 0 32 32" fill="none" xmlns="http://www.w3.org/2000/svg">
<path d="M29.7072 10.2934L23.7072 4.29337C23.6144 4.20049 23.5042 4.12681 23.3829 4.07654C23.2615 4.02627 23.1315 4.0004 23.0002 4.0004C22.8689 4.0004 22.7388 4.02627 22.6175 4.07654C22.4962 4.12681 22.386 4.20049 22.2932 4.29337L16.2932 10.2934C16.2003 10.3862 16.1267 10.4964 16.0764 10.6178C16.0262 10.7391 16.0003 10.8691 16.0003 11.0004C16.0003 11.1317 16.0262 11.2617 16.0764 11.383C16.1267 11.5044 16.2003 11.6146 16.2932 11.7074C16.4807 11.8949 16.735 12.0003 17.0002 12.0003C17.1315 12.0003 17.2615 11.9744 17.3828 11.9242C17.5041 11.8739 17.6144 11.8003 17.7072 11.7074L22.0002 7.41443V27.0004C22.0002 27.2656 22.1056 27.52 22.2931 27.7075C22.4807 27.895 22.735 28.0004 23.0002 28.0004C23.2654 28.0004 23.5198 27.895 23.7073 27.7075C23.8949 27.52 24.0002 27.2656 24.0002 27.0004V7.41446L28.2932 11.7075C28.4807 11.895 28.7351 12.0003 29.0003 12.0003C29.2654 12.0003 29.5198 11.895 29.7073 11.7075C29.8948 11.5199 30.0001 11.2656 30.0001 11.0004C30.0001 10.7352 29.8947 10.4809 29.7072 10.2934Z" fill="#0F0F0F"/>
<path d="M14.2932 20.2934L10.0002 24.5864V5.0004C10.0002 4.73518 9.89481 4.48083 9.70727 4.29329C9.51974 4.10576 9.26538 4.0004 9.00016 4.0004C8.73495 4.0004 8.48059 4.10576 8.29306 4.29329C8.10552 4.48083 8.00016 4.73518 8.00016 5.0004V24.5863L3.70717 20.2933C3.51965 20.1058 3.26532 20.0005 3.00014 20.0005C2.73495 20.0005 2.48062 20.1058 2.29311 20.2933C2.10559 20.4809 2.00024 20.7352 2.00024 21.0004C2.00024 21.2656 2.10559 21.5199 2.29311 21.7074L8.29311 27.7074C8.38594 27.8003 8.49616 27.874 8.61747 27.9242C8.73879 27.9745 8.86882 28.0004 9.00014 28.0004C9.13145 28.0004 9.26148 27.9745 9.3828 27.9242C9.50411 27.874 9.61433 27.8003 9.70717 27.7074L15.7072 21.7074C15.8947 21.5199 16 21.2656 16 21.0004C16 20.7352 15.8947 20.4809 15.7072 20.2933C15.5196 20.1058 15.2653 20.0005 15.0001 20.0005C14.7349 20.0005 14.4807 20.1059 14.2932 20.2934Z" fill="#0F0F0F"/>
</svg>
