<svg width="32" height="32" viewBox="0 0 32 32" fill="none" xmlns="http://www.w3.org/2000/svg">
<path d="M22.4873 28.2295C22.7158 28.2295 22.9316 28.1406 23.1221 27.9502L30.625 20.3711C30.79 20.2061 30.8916 19.9648 30.8916 19.749C30.8916 19.2412 30.5361 18.8984 30.041 18.8984C29.7998 18.8984 29.5967 18.9873 29.457 19.1396L25.4961 23.1514L23.2363 25.665L23.3379 22.7705V5.30176C23.3379 4.80664 22.9824 4.45117 22.4873 4.45117C21.9795 4.45117 21.624 4.80664 21.624 5.30176V22.7705L21.7256 25.665L19.4658 23.1514L15.5049 19.1396C15.3652 18.9873 15.1621 18.8984 14.9209 18.8984C14.4258 18.8984 14.0703 19.2412 14.0703 19.749C14.0703 19.9648 14.1719 20.2061 14.3369 20.3711L21.8398 27.9502C22.0303 28.1406 22.2461 28.2295 22.4873 28.2295ZM9.5127 28.2295C10.0205 28.2295 10.376 27.874 10.376 27.3789V9.91016L10.2744 7.01562L12.5342 9.5293L16.4824 13.541C16.6348 13.6934 16.8379 13.7822 17.0791 13.7822C17.5742 13.7822 17.9297 13.4395 17.9297 12.9316C17.9297 12.7158 17.8281 12.4746 17.6631 12.3096L10.1602 4.73047C9.96973 4.54004 9.75391 4.45117 9.5127 4.45117C9.28418 4.45117 9.06836 4.54004 8.87793 4.73047L1.375 12.3096C1.20996 12.4746 1.1084 12.7158 1.1084 12.9316C1.1084 13.4395 1.46387 13.7822 1.94629 13.7822C2.2002 13.7822 2.40332 13.6934 2.54297 13.541L6.50391 9.5293L8.76367 7.01562L8.66211 9.91016V27.3789C8.66211 27.874 9.01758 28.2295 9.5127 28.2295Z" fill="black"/>
</svg>
