<svg width="32" height="32" viewBox="0 0 32 32" fill="none" xmlns="http://www.w3.org/2000/svg">
<path d="M25 2.2498H7C5.74066 2.25123 4.53331 2.75213 3.64282 3.64262C2.75233 4.53311 2.25143 5.74046 2.25 6.9998V18.9998C2.25143 20.2591 2.75233 21.4665 3.64282 22.357C4.53331 23.2475 5.74066 23.7484 7 23.7498C7.19891 23.7498 7.38968 23.6708 7.53033 23.5301C7.67098 23.3895 7.75 23.1987 7.75 22.9998C7.75 22.8009 7.67098 22.6101 7.53033 22.4695C7.38968 22.3288 7.19891 22.2498 7 22.2498C6.13835 22.2488 5.31228 21.9061 4.703 21.2968C4.09373 20.6875 3.751 19.8614 3.75 18.9998V6.9998C3.751 6.13815 4.09373 5.31208 4.703 4.70281C5.31228 4.09353 6.13835 3.7508 7 3.7498H25C25.8616 3.7508 26.6877 4.09353 27.297 4.70281C27.9063 5.31208 28.249 6.13815 28.25 6.9998V18.9998C28.249 19.8614 27.9063 20.6875 27.297 21.2968C26.6877 21.9061 25.8616 22.2488 25 22.2498C24.8011 22.2498 24.6103 22.3288 24.4697 22.4695C24.329 22.6101 24.25 22.8009 24.25 22.9998C24.25 23.1987 24.329 23.3895 24.4697 23.5301C24.6103 23.6708 24.8011 23.7498 25 23.7498C26.2593 23.7484 27.4667 23.2475 28.3572 22.357C29.2477 21.4665 29.7486 20.2591 29.75 18.9998V6.9998C29.7486 5.74046 29.2477 4.53311 28.3572 3.64262C27.4667 2.75213 26.2593 2.25123 25 2.2498Z" fill="#0F0F0F"/>
<path d="M21 18.2498C20.8011 18.2499 20.6104 18.3289 20.4697 18.4695C20.3291 18.6102 20.2501 18.8009 20.25 18.9998V20.1603C20.1854 20.0887 20.1327 20.0015 20.0654 19.9344C19.1967 19.0676 18.0732 18.5018 16.8595 18.32C15.6459 18.1381 14.4059 18.3498 13.3213 18.924C12.2366 19.4981 11.3644 20.4046 10.8325 21.5105C10.3005 22.6164 10.1367 23.8636 10.3652 25.0694C10.5936 26.2752 11.2022 27.3761 12.1018 28.2108C13.0014 29.0455 14.1447 29.5701 15.3642 29.7078C16.5837 29.8454 17.8152 29.5889 18.8782 28.9757C19.9413 28.3626 20.78 27.4251 21.2715 26.3006C21.351 26.1182 21.3548 25.9118 21.2821 25.7266C21.2094 25.5415 21.0661 25.3928 20.8838 25.3133C20.7015 25.2338 20.495 25.2299 20.3098 25.3026C20.1247 25.3754 19.976 25.5186 19.8965 25.701C19.5333 26.5342 18.9127 27.2292 18.1257 27.6839C17.3386 28.1386 16.4266 28.3291 15.5233 28.2276C14.62 28.126 13.7731 27.7377 13.1067 27.1195C12.4403 26.5014 11.9895 25.686 11.8204 24.7929C11.6514 23.8998 11.773 22.976 12.1673 22.1571C12.5617 21.3381 13.2081 20.6671 14.0118 20.2424C14.8154 19.8178 15.734 19.6618 16.6328 19.7974C17.5316 19.933 18.3633 20.353 19.0059 20.9959C19.081 21.071 19.1423 21.167 19.2128 21.2498H18C17.8011 21.2498 17.6103 21.3288 17.4697 21.4695C17.329 21.6101 17.25 21.8009 17.25 21.9998C17.25 22.1987 17.329 22.3895 17.4697 22.5301C17.6103 22.6708 17.8011 22.7498 18 22.7498H21C21.1989 22.7498 21.3896 22.6707 21.5303 22.5301C21.6709 22.3894 21.7499 22.1987 21.75 21.9998V18.9998C21.7499 18.8009 21.6709 18.6102 21.5303 18.4695C21.3896 18.3289 21.1989 18.2499 21 18.2498Z" fill="#0F0F0F"/>
</svg>
