<svg width="32" height="32" viewBox="0 0 32 32" fill="none" xmlns="http://www.w3.org/2000/svg">
<path d="M8.00195 1C8.55424 1 9.00195 1.44772 9.00195 2V5.00195H12.0034C12.5557 5.00195 13.0034 5.44967 13.0034 6.00195C13.0034 6.55424 12.5557 7.00195 12.0034 7.00195H9.00195V10.0034C9.00195 10.5557 8.55424 11.0034 8.00195 11.0034C7.44967 11.0034 7.00195 10.5557 7.00195 10.0034V7.00195H4C3.44772 7.00195 3 6.55424 3 6.00195C3 5.44967 3.44772 5.00195 4 5.00195H7.00195V2C7.00195 1.44772 7.44967 1 8.00195 1ZM16 4C16 3.44772 16.4477 3 17 3H24C26.7614 3 29 5.23858 29 8V26C29 28.7614 26.7614 31 24 31H10C7.23858 31 5 28.7614 5 26V15C5 14.4477 5.44772 14 6 14C6.55228 14 7 14.4477 7 15V23.8817L10.8524 18.9437C12.7866 16.4645 16.5019 16.3648 18.5663 18.7367L26.425 27.7665C26.7866 27.271 27 26.6604 27 26V8C27 6.34315 25.6569 5 24 5H17C16.4477 5 16 4.55228 16 4ZM10 29H24C24.2634 29 24.5188 28.9661 24.7621 28.9023L17.0576 20.0497C15.819 18.6266 13.5898 18.6864 12.4293 20.1739L7.15037 26.9405C7.54492 28.1366 8.67164 29 10 29ZM22 12.5C22 11.6716 21.3284 11 20.5 11C19.6716 11 19 11.6716 19 12.5C19 13.3284 19.6716 14 20.5 14C21.3284 14 22 13.3284 22 12.5ZM24 12.5C24 14.433 22.433 16 20.5 16C18.567 16 17 14.433 17 12.5C17 10.567 18.567 9 20.5 9C22.433 9 24 10.567 24 12.5Z" fill="#0F0F0F"/>
</svg>
