<svg width="32" height="32" viewBox="0 0 32 32" fill="none" xmlns="http://www.w3.org/2000/svg">
<path d="M8.00195 1.5C8.2781 1.5 8.50195 1.72386 8.50195 2V5.50195H12.0034C12.2796 5.50195 12.5034 5.72581 12.5034 6.00195C12.5034 6.2781 12.2796 6.50195 12.0034 6.50195H8.50195V10.0034C8.50195 10.2796 8.2781 10.5034 8.00195 10.5034C7.72581 10.5034 7.50195 10.2796 7.50195 10.0034V6.50195H4C3.72386 6.50195 3.5 6.2781 3.5 6.00195C3.5 5.72581 3.72386 5.50195 4 5.50195H7.50195V2C7.50195 1.72386 7.72581 1.5 8.00195 1.5ZM16.5 4C16.5 4.27614 16.7239 4.5 17 4.5H24C25.933 4.5 27.5 6.067 27.5 8V26C27.5 26.9927 27.0868 27.8888 26.4229 28.5258L18.1891 19.065C16.3312 16.9302 12.9874 17.02 11.2466 19.2513L6.5 25.3355V15C6.5 14.7239 6.27614 14.5 6 14.5C5.72386 14.5 5.5 14.7239 5.5 15V26C5.5 28.4853 7.51472 30.5 10 30.5H24C26.4853 30.5 28.5 28.4853 28.5 26V8C28.5 5.51472 26.4853 3.5 24 3.5H17C16.7239 3.5 16.5 3.72386 16.5 4ZM10 29.5C8.35416 29.5 6.97365 28.364 6.59981 26.8333L12.0351 19.8664C13.389 18.1309 15.9898 18.0611 17.4348 19.7215L25.6062 29.1105C25.1251 29.3594 24.579 29.5 24 29.5H10ZM22.5 12.5C22.5 11.3954 21.6046 10.5 20.5 10.5C19.3954 10.5 18.5 11.3954 18.5 12.5C18.5 13.6046 19.3954 14.5 20.5 14.5C21.6046 14.5 22.5 13.6046 22.5 12.5ZM23.5 12.5C23.5 14.1569 22.1569 15.5 20.5 15.5C18.8431 15.5 17.5 14.1569 17.5 12.5C17.5 10.8431 18.8431 9.5 20.5 9.5C22.1569 9.5 23.5 10.8431 23.5 12.5Z" fill="#0F0F0F"/>
</svg>
