<svg width="24" height="24" viewBox="0 0 24 24" fill="none" xmlns="http://www.w3.org/2000/svg">
<path d="M6.91857 5.57143C6.91857 3.44119 8.77831 1.71429 11.0724 1.71429C13.3665 1.71429 15.2263 3.44119 15.2263 5.57143C15.2263 7.70167 13.3665 9.42857 11.0724 9.42857C8.77831 9.42857 6.91857 7.70167 6.91857 5.57143ZM11.0724 0C7.75871 0 5.07242 2.49441 5.07242 5.57143C5.07242 7.36736 5.98752 8.96482 7.40837 9.98369C3.12288 11.3087 0 14.8661 0 18.9213C0 21.0078 1.98887 22.2961 4.13792 23.0131C6.37768 23.7603 9.27106 24.0711 12.0335 23.9779C12.543 23.9608 12.941 23.5633 12.9225 23.0903C12.904 22.6172 12.476 22.2476 11.9665 22.2648C9.36494 22.3525 6.71986 22.0529 4.76215 21.3998C2.71375 20.7164 1.84615 19.8143 1.84615 18.9213C1.84615 14.8435 5.91174 11.1471 11.0769 11.1471L11.0791 11.1471C13.2108 11.1424 15.2844 11.7919 16.9777 12.9945C17.3826 13.2821 17.9619 13.2104 18.2717 12.8344C18.5814 12.4584 18.5042 11.9204 18.0993 11.6328C17.0791 10.9083 15.9431 10.3524 14.7408 9.9806C16.1592 8.96159 17.0724 7.36554 17.0724 5.57143C17.0724 2.49441 14.3861 0 11.0724 0ZM23.7296 14.1796C24.0901 14.5144 24.0901 15.0571 23.7296 15.3918L20.69 18.2143L23.7296 21.0368C24.0901 21.3715 24.0901 21.9142 23.7296 22.2489C23.3692 22.5837 22.7847 22.5837 22.4242 22.2489L19.3846 19.4265L16.345 22.2489C15.9845 22.5837 15.4001 22.5837 15.0396 22.2489C14.6791 21.9142 14.6791 21.3715 15.0396 21.0368L18.0792 18.2143L15.0396 15.3918C14.6791 15.0571 14.6791 14.5144 15.0396 14.1796C15.4001 13.8449 15.9845 13.8449 16.345 14.1796L19.3846 17.0021L22.4242 14.1796C22.7847 13.8449 23.3692 13.8449 23.7296 14.1796Z" fill="#0F0F0F"/>
</svg>
