<svg width="32" height="32" viewBox="0 0 32 32" fill="none" xmlns="http://www.w3.org/2000/svg">
<path d="M16 29.0801C22.9697 29.0801 28.7334 23.3164 28.7334 16.3467C28.7334 9.37695 22.9697 3.61328 15.9873 3.61328C9.01758 3.61328 3.2666 9.37695 3.2666 16.3467C3.2666 23.3164 9.03027 29.0801 16 29.0801ZM16 8.95801C18.4121 8.95801 20.3291 11.0908 20.3291 13.6426C20.3291 16.3594 18.4375 18.4414 16 18.4287C13.5625 18.416 11.6709 16.3594 11.6709 13.6426C11.6582 11.0908 13.5879 8.95801 16 8.95801ZM23.9092 23.8369L23.9346 24.002C22.0176 26.0967 19.1484 27.4297 16 27.4297C12.8516 27.4297 9.98242 26.0967 8.06543 24.002L8.09082 23.8369C9.34766 22.1738 12.3184 20.5996 16 20.5996C19.6816 20.5996 22.6523 22.1738 23.9092 23.8369Z" fill="black"/>
</svg>
