<svg width="26" height="26" viewBox="0 0 26 26" fill="none" xmlns="http://www.w3.org/2000/svg">
<g clip-path="url(#clip0_15575_3719)">
<path d="M7.24512 6.03572C7.24512 3.59974 9.37177 1.625 11.9951 1.625C14.6185 1.625 16.7451 3.59974 16.7451 6.03572C16.7451 8.47169 14.6185 10.4464 11.9951 10.4464C9.37177 10.4464 7.24512 8.47169 7.24512 6.03572ZM11.9951 0.232143C8.54334 0.232143 5.74512 2.83049 5.74512 6.03572C5.74512 8.07128 6.87371 9.86209 8.58156 10.898C3.78619 12.1813 0.25 16.0698 0.25 20.4981C0.25 22.5968 2.25277 23.9402 4.56728 24.7124C6.95549 25.5092 10.0564 25.8443 13.0272 25.7441C13.4412 25.7302 13.7645 25.4072 13.7495 25.0229C13.7345 24.6385 13.3867 24.3382 12.9728 24.3522C10.1326 24.4479 7.23351 24.1219 5.07447 23.4016C2.84173 22.6567 1.75 21.6271 1.75 20.4981C1.75 15.9359 6.28454 11.8438 12 11.8438L12.0018 11.8438C14.3662 11.8387 16.6663 12.5591 18.5444 13.8929C18.8734 14.1266 19.3441 14.0684 19.5957 13.7629C19.8474 13.4574 19.7847 13.0203 19.4556 12.7866C18.2387 11.9223 16.8664 11.284 15.4134 10.8951C17.1186 9.85875 18.2451 8.06939 18.2451 6.03572C18.2451 2.83049 15.4469 0.232143 11.9951 0.232143ZM25.5303 15.5254C25.8232 15.7974 25.8232 16.2383 25.5303 16.5103L22.0607 19.7321L25.5303 22.954C25.8232 23.226 25.8232 23.6669 25.5303 23.9389C25.2374 24.2109 24.7626 24.2109 24.4697 23.9389L21 20.717L17.5303 23.9389C17.2374 24.2109 16.7626 24.2109 16.4697 23.9389C16.1768 23.6669 16.1768 23.226 16.4697 22.954L19.9393 19.7321L16.4697 16.5103C16.1768 16.2383 16.1768 15.7974 16.4697 15.5254C16.7626 15.2534 17.2374 15.2534 17.5303 15.5254L21 18.7472L24.4697 15.5254C24.7626 15.2534 25.2374 15.2534 25.5303 15.5254Z" fill="#0F0F0F"/>
</g>
<defs>
<clipPath id="clip0_15575_3719">
<rect width="26" height="26" fill="white"/>
</clipPath>
</defs>
</svg>
