<svg width="32" height="32" viewBox="0 0 32 32" fill="none" xmlns="http://www.w3.org/2000/svg">
<path d="M16 29.0801C22.9697 29.0801 28.7334 23.3164 28.7334 16.3467C28.7334 9.37695 22.9697 3.61328 15.9873 3.61328C9.01758 3.61328 3.2666 9.37695 3.2666 16.3467C3.2666 23.3164 9.03027 29.0801 16 29.0801ZM16 20.5996C12.001 20.5996 8.9668 22.1992 7.78613 23.8115C6.00879 21.8438 4.91699 19.2285 4.91699 16.3467C4.91699 10.2021 9.85547 5.26367 15.9873 5.26367C22.1318 5.26367 27.083 10.2021 27.0957 16.3467C27.0957 19.2285 26.0039 21.8564 24.2139 23.8242C23.0332 22.1992 19.999 20.5996 16 20.5996ZM16 18.4287C18.4375 18.4414 20.3291 16.3594 20.3291 13.6426C20.3291 11.0908 18.4121 8.95801 16 8.95801C13.5879 8.95801 11.6582 11.0908 11.6709 13.6426C11.6836 16.3594 13.5625 18.416 16 18.4287Z" fill="black"/>
</svg>
