<svg width="32" height="32" viewBox="0 0 32 32" fill="none" xmlns="http://www.w3.org/2000/svg">
<path d="M10.9186 9.57143C10.9186 7.44119 12.7783 5.71429 15.0724 5.71429C17.3665 5.71429 19.2263 7.44119 19.2263 9.57143C19.2263 11.7017 17.3665 13.4286 15.0724 13.4286C12.7783 13.4286 10.9186 11.7017 10.9186 9.57143ZM15.0724 4C11.7587 4 9.07242 6.49441 9.07242 9.57143C9.07242 11.3674 9.98752 12.9648 11.4084 13.9837C7.12288 15.3087 4 18.8661 4 22.9213C4 25.0078 5.98887 26.2961 8.13792 27.0131C10.3777 27.7603 13.2711 28.0711 16.0335 27.9779C16.543 27.9608 16.941 27.5633 16.9225 27.0903C16.904 26.6172 16.476 26.2476 15.9665 26.2648C13.3649 26.3525 10.7199 26.0529 8.76215 25.3998C6.71375 24.7164 5.84615 23.8143 5.84615 22.9213C5.84615 18.8435 9.91174 15.1471 15.0769 15.1471L15.0791 15.1471C17.2108 15.1424 19.2844 15.7919 20.9777 16.9945C21.3826 17.2821 21.9619 17.2104 22.2717 16.8344C22.5814 16.4584 22.5042 15.9204 22.0993 15.6328C21.0791 14.9083 19.9431 14.3524 18.7408 13.9806C20.1592 12.9616 21.0724 11.3655 21.0724 9.57143C21.0724 6.49441 18.3861 4 15.0724 4ZM27.7296 18.1796C28.0901 18.5144 28.0901 19.0571 27.7296 19.3918L24.69 22.2143L27.7296 25.0368C28.0901 25.3715 28.0901 25.9142 27.7296 26.2489C27.3692 26.5837 26.7847 26.5837 26.4242 26.2489L23.3846 23.4265L20.345 26.2489C19.9845 26.5837 19.4001 26.5837 19.0396 26.2489C18.6791 25.9142 18.6791 25.3715 19.0396 25.0368L22.0792 22.2143L19.0396 19.3918C18.6791 19.0571 18.6791 18.5144 19.0396 18.1796C19.4001 17.8449 19.9845 17.8449 20.345 18.1796L23.3846 21.0021L26.4242 18.1796C26.7847 17.8449 27.3692 17.8449 27.7296 18.1796Z" fill="#0F0F0F"/>
</svg>
