<svg width="28" height="26" viewBox="0 0 28 26" fill="none" xmlns="http://www.w3.org/2000/svg">
<g clip-path="url(#clip0_15575_3719)">
<path d="M7.80249 6.03572C7.80249 3.59974 10.0927 1.625 12.9179 1.625C15.743 1.625 18.0333 3.59974 18.0333 6.03572C18.0333 8.47169 15.743 10.4464 12.9179 10.4464C10.0927 10.4464 7.80249 8.47169 7.80249 6.03572ZM12.9179 0.232143C9.20057 0.232143 6.18711 2.83049 6.18711 6.03572C6.18711 8.07128 7.40251 9.86209 9.24173 10.898C4.0775 12.1813 0.269287 16.0698 0.269287 20.4981C0.269287 22.5968 2.42612 23.9402 4.91867 24.7124C7.49058 25.5092 10.83 25.8443 14.0294 25.7441C14.4751 25.7302 14.8234 25.4072 14.8072 25.0229C14.791 24.6385 14.4165 24.3382 13.9707 24.3522C10.9121 24.4479 7.79 24.1219 5.46487 23.4016C3.06038 22.6567 1.88467 21.6271 1.88467 20.4981C1.88467 15.9359 6.76802 11.8439 12.9231 11.8439L12.925 11.8438C15.4714 11.8387 17.9483 12.5591 19.9709 13.8929C20.3252 14.1266 20.8321 14.0684 21.1031 13.7629C21.3741 13.4574 21.3066 13.0203 20.9523 12.7866C19.6418 11.9223 18.1638 11.284 16.5991 10.8951C18.4355 9.85876 19.6486 8.06939 19.6486 6.03572C19.6486 2.83049 16.6352 0.232143 12.9179 0.232143ZM27.4943 15.5254C27.8097 15.7974 27.8097 16.2383 27.4943 16.5103L23.7577 19.7321L27.4943 22.954C27.8097 23.226 27.8097 23.6669 27.4943 23.9389C27.1788 24.2109 26.6674 24.2109 26.352 23.9389L22.6154 20.717L18.8789 23.9389C18.5634 24.2109 18.052 24.2109 17.7366 23.9389C17.4212 23.6669 17.4212 23.226 17.7366 22.954L21.4732 19.7321L17.7366 16.5103C17.4212 16.2383 17.4212 15.7974 17.7366 15.5254C18.052 15.2534 18.5634 15.2534 18.8789 15.5254L22.6154 18.7472L26.352 15.5254C26.6674 15.2534 27.1788 15.2534 27.4943 15.5254Z" fill="#0F0F0F"/>
</g>
<defs>
<clipPath id="clip0_15575_3719">
<rect width="28" height="26" fill="white"/>
</clipPath>
</defs>
</svg>
