<svg width="32" height="32" viewBox="0 0 32 32" fill="none" xmlns="http://www.w3.org/2000/svg">
<path d="M15.9873 28.8516C20.5449 28.8516 24.1758 25.3096 24.1758 20.8662C24.1758 18.3906 22.9316 15.9531 21.8525 13.9219L17.4854 5.77148C17.1299 5.13672 16.6475 4.83203 15.9873 4.83203C15.3271 4.83203 14.832 5.13672 14.4893 5.77148L10.1348 13.9219C9.05566 15.9531 7.81152 18.3906 7.81152 20.8662C7.81152 25.3096 11.4424 28.8516 15.9873 28.8516ZM15.9873 27.1631C12.3945 27.1631 9.5 24.3828 9.5 20.8662C9.5 18.7588 10.5664 16.7529 11.6582 14.7217L15.8096 6.99023C15.8984 6.78711 16.1016 6.7998 16.2031 6.99023L20.3418 14.7217C21.4209 16.7529 22.4873 18.7588 22.4873 20.8662C22.4873 24.3828 19.5928 27.1631 15.9873 27.1631Z" fill="black"/>
</svg>
