<svg width="32" height="32" viewBox="0 0 32 32" fill="none" xmlns="http://www.w3.org/2000/svg">
<path d="M12.4961 9.65625C12.623 9.65625 12.6738 9.58008 12.6992 9.46582C13.1309 7.51074 13.1436 7.37109 15.2129 6.95215C15.3398 6.92676 15.416 6.86328 15.416 6.74902C15.416 6.63477 15.3398 6.57129 15.2129 6.5459C13.1436 6.12695 13.1309 5.97461 12.6992 4.03223C12.6738 3.91797 12.623 3.8418 12.4961 3.8418C12.3818 3.8418 12.3311 3.91797 12.3057 4.03223C11.8613 5.97461 11.874 6.12695 9.79199 6.5459C9.66504 6.57129 9.58887 6.63477 9.58887 6.74902C9.58887 6.85059 9.66504 6.92676 9.79199 6.95215C11.874 7.37109 11.8613 7.51074 12.3057 9.46582C12.3311 9.58008 12.3818 9.65625 12.4961 9.65625ZM22.7285 13.9727C22.8682 13.9727 22.9443 13.8838 22.9697 13.7441C23.4395 11.4844 23.4648 11.2812 25.877 10.8369C26.0166 10.8115 26.1055 10.7354 26.1055 10.5957C26.1055 10.4561 26.0166 10.3672 25.877 10.3418C23.4648 9.91016 23.4395 9.69434 22.9697 7.43457C22.9443 7.30762 22.8682 7.21875 22.7285 7.21875C22.6016 7.21875 22.5254 7.30762 22.5 7.43457C22.0303 9.69434 22.0049 9.91016 19.5928 10.3418C19.4531 10.3672 19.3516 10.4561 19.3516 10.5957C19.3516 10.7354 19.4531 10.8115 19.5928 10.8369C22.0049 11.2812 22.0303 11.4844 22.5 13.7441C22.5254 13.8838 22.6016 13.9727 22.7285 13.9727ZM5.7168 17.54C5.84375 17.54 5.93262 17.4512 5.95801 17.3115C6.41504 15.0518 6.45312 14.8486 8.86523 14.4043C9.00488 14.3789 9.09375 14.3027 9.09375 14.1631C9.09375 14.0234 9.00488 13.9346 8.86523 13.9092C6.45312 13.4775 6.41504 13.2744 5.95801 11.002C5.93262 10.875 5.84375 10.7861 5.7168 10.7861C5.58984 10.7861 5.50098 10.875 5.47559 11.002C5.01855 13.2744 4.99316 13.4775 2.56836 13.9092C2.42871 13.9346 2.33984 14.0234 2.33984 14.1631C2.33984 14.3027 2.42871 14.3789 2.56836 14.4043C4.99316 14.8486 5.01855 15.0518 5.47559 17.3115C5.50098 17.4512 5.58984 17.54 5.7168 17.54ZM27.6797 28.75C28.1367 29.2197 28.8857 29.207 29.3174 28.75C29.749 28.2676 29.7617 27.582 29.3174 27.1123L17.1553 14.9121C16.7109 14.4551 15.9492 14.4678 15.5303 14.9121C15.0859 15.3945 15.0859 16.0928 15.5303 16.5498L27.6797 28.75ZM11.7471 28.458C11.9248 28.458 12.0645 28.3311 12.0771 28.1279C12.5469 24.7383 12.6357 24.7129 16.0889 24.1162C16.3047 24.0781 16.4316 23.9766 16.4316 23.7734C16.4316 23.583 16.3047 23.4688 16.127 23.4307C12.6484 22.7578 12.5469 22.8086 12.0771 19.4189C12.0645 19.2158 11.9248 19.0889 11.7471 19.0889C11.5693 19.0889 11.4297 19.2158 11.4043 19.4062C10.9219 22.834 10.8584 22.8721 7.36719 23.4307C7.18945 23.4561 7.0625 23.583 7.0625 23.7734C7.0625 23.9639 7.18945 24.0781 7.36719 24.1162C10.8584 24.7891 10.9092 24.751 11.4043 28.1533C11.4297 28.3311 11.5693 28.458 11.7471 28.458ZM28.0605 28.0137L20.0752 20.041L20.6211 19.4951L28.5938 27.4805C28.7969 27.6836 28.8477 27.8867 28.6572 28.0898C28.4795 28.2676 28.2764 28.2295 28.0605 28.0137Z" fill="black"/>
</svg>
