<svg width="32" height="32" viewBox="0 0 32 32" fill="none" xmlns="http://www.w3.org/2000/svg">
<path d="M2 10C2 7.23858 4.23858 5 7 5H25.0001C27.7615 5 30.0001 7.23858 30.0001 10V22C30.0001 24.7614 27.7615 27 25.0001 27H24.6459V26C24.6459 22.657 22.4619 19.8655 19.416 18.6513C20.3909 17.7389 21.0001 16.4406 21.0001 15C21.0001 12.2386 18.7615 10 16.0001 10C13.2387 10 11 12.2385 11 15C11 16.4406 11.6093 17.7389 12.5842 18.6513C9.53848 19.8655 7.35498 22.657 7.35498 26V27H7C4.23858 27 2 24.7614 2 22V10Z" fill="#0F0F0F"/>
<path d="M9.35498 27H22.6459V26C22.6459 22.7676 19.7547 20 16 20C12.2455 20 9.35498 22.7674 9.35498 26V27Z" fill="#0F0F0F"/>
<path d="M16.0001 12C14.3432 12 13 13.3432 13 15C13 16.6568 14.3432 18 16.0001 18C17.657 18 19.0001 16.6569 19.0001 15C19.0001 13.3431 17.657 12 16.0001 12Z" fill="#0F0F0F"/>
</svg>
