<svg width="32" height="32" viewBox="0 0 32 32" fill="none" xmlns="http://www.w3.org/2000/svg">
<path d="M27.8711 4.12816C27.4685 3.72622 26.9229 3.50047 26.354 3.50047C25.7851 3.50047 25.2395 3.72622 24.8369 4.12816L4.12791 24.8382C3.72568 25.2405 3.49977 25.7862 3.49986 26.3551C3.49995 26.924 3.72604 27.4696 4.1284 27.8718C4.53076 28.2741 5.07642 28.5 5.64535 28.4999C6.21427 28.4998 6.75986 28.2737 7.16209 27.8714L27.8711 7.16236C28.273 6.75978 28.4988 6.21414 28.4988 5.64526C28.4988 5.07638 28.273 4.53074 27.8711 4.12816ZM27.1641 6.4553L6.45509 27.1643C6.2366 27.3721 5.94658 27.488 5.64503 27.488C5.34348 27.488 5.05346 27.3721 4.83497 27.1643C4.62048 26.9495 4.50001 26.6583 4.50001 26.3547C4.50001 26.0512 4.62048 25.76 4.83497 25.5452L25.544 4.83516C25.7588 4.62032 26.0502 4.49963 26.354 4.49964C26.6579 4.49964 26.9492 4.62034 27.1641 4.83519C27.3789 5.05003 27.4996 5.34142 27.4996 5.64525C27.4996 5.94908 27.3789 6.24046 27.1641 6.4553Z" fill="#0F0F0F"/>
<path d="M7 7.50023H10.5V11.0002C10.5 11.1328 10.5527 11.26 10.6464 11.3538C10.7402 11.4476 10.8674 11.5002 11 11.5002C11.1326 11.5002 11.2598 11.4476 11.3536 11.3538C11.4473 11.26 11.5 11.1328 11.5 11.0002V7.50023H15C15.1326 7.50023 15.2598 7.44755 15.3536 7.35378C15.4473 7.26002 15.5 7.13284 15.5 7.00023C15.5 6.86762 15.4473 6.74044 15.3536 6.64668C15.2598 6.55291 15.1326 6.50023 15 6.50023H11.5V3.00023C11.5 2.86762 11.4473 2.74044 11.3536 2.64668C11.2598 2.55291 11.1326 2.50023 11 2.50023C10.8674 2.50023 10.7402 2.55291 10.6464 2.64668C10.5527 2.74044 10.5 2.86762 10.5 3.00023V6.50023H7C6.86739 6.50023 6.74021 6.55291 6.64645 6.64668C6.55268 6.74044 6.5 6.86762 6.5 7.00023C6.5 7.13284 6.55268 7.26002 6.64645 7.35378C6.74021 7.44755 6.86739 7.50023 7 7.50023Z" fill="#0F0F0F"/>
<path d="M26 23.5002H23.5V21.0002C23.5 20.8676 23.4473 20.7404 23.3536 20.6467C23.2598 20.5529 23.1326 20.5002 23 20.5002C22.8674 20.5002 22.7402 20.5529 22.6464 20.6467C22.5527 20.7404 22.5 20.8676 22.5 21.0002V23.5002H20C19.8674 23.5002 19.7402 23.5529 19.6464 23.6467C19.5527 23.7404 19.5 23.8676 19.5 24.0002C19.5 24.1328 19.5527 24.26 19.6464 24.3538C19.7402 24.4475 19.8674 24.5002 20 24.5002H22.5V27.0002C22.5 27.1328 22.5527 27.26 22.6464 27.3538C22.7402 27.4475 22.8674 27.5002 23 27.5002C23.1326 27.5002 23.2598 27.4475 23.3536 27.3538C23.4473 27.26 23.5 27.1328 23.5 27.0002V24.5002H26C26.1326 24.5002 26.2598 24.4475 26.3536 24.3538C26.4473 24.26 26.5 24.1328 26.5 24.0002C26.5 23.8676 26.4473 23.7404 26.3536 23.6467C26.2598 23.5529 26.1326 23.5002 26 23.5002Z" fill="#0F0F0F"/>
<path d="M4.5 18.0002C4.5 18.1328 4.55268 18.26 4.64645 18.3538C4.74021 18.4476 4.86739 18.5002 5 18.5002C5.13261 18.5002 5.25979 18.4476 5.35355 18.3538C5.44732 18.26 5.5 18.1328 5.5 18.0002V16.5002H7C7.13261 16.5002 7.25979 16.4476 7.35355 16.3538C7.44732 16.26 7.5 16.1328 7.5 16.0002C7.5 15.8676 7.44732 15.7404 7.35355 15.6467C7.25979 15.5529 7.13261 15.5002 7 15.5002H5.5V14.0002C5.5 13.8676 5.44732 13.7404 5.35355 13.6467C5.25979 13.5529 5.13261 13.5002 5 13.5002C4.86739 13.5002 4.74021 13.5529 4.64645 13.6467C4.55268 13.7404 4.5 13.8676 4.5 14.0002V15.5002H3C2.86739 15.5002 2.74021 15.5529 2.64645 15.6467C2.55268 15.7404 2.5 15.8676 2.5 16.0002C2.5 16.1328 2.55268 16.26 2.64645 16.3538C2.74021 16.4476 2.86739 16.5002 3 16.5002H4.5V18.0002Z" fill="#0F0F0F"/>
</svg>
