<svg width="32" height="32" viewBox="0 0 32 32" fill="none" xmlns="http://www.w3.org/2000/svg">
<path d="M12.5088 9.65625C12.6357 9.65625 12.6865 9.58008 12.7119 9.46582C13.1436 7.51074 13.1562 7.37109 15.2256 6.95215C15.3525 6.92676 15.4287 6.86328 15.4287 6.74902C15.4287 6.63477 15.3525 6.57129 15.2256 6.5459C13.1562 6.12695 13.1436 5.97461 12.7119 4.03223C12.6865 3.91797 12.6357 3.8418 12.5088 3.8418C12.3945 3.8418 12.3438 3.91797 12.3184 4.03223C11.874 5.97461 11.8867 6.12695 9.80469 6.5459C9.67773 6.57129 9.60156 6.63477 9.60156 6.74902C9.60156 6.85059 9.67773 6.92676 9.80469 6.95215C11.8867 7.37109 11.874 7.51074 12.3184 9.46582C12.3438 9.58008 12.3945 9.65625 12.5088 9.65625ZM22.7412 13.9727C22.8809 13.9727 22.957 13.8838 22.9824 13.7441C23.4521 11.4844 23.4775 11.2812 25.8896 10.8369C26.0293 10.8115 26.1182 10.7354 26.1182 10.5957C26.1182 10.4561 26.0293 10.3672 25.8896 10.3418C23.4775 9.91016 23.4521 9.69434 22.9824 7.43457C22.957 7.30762 22.8809 7.21875 22.7412 7.21875C22.6143 7.21875 22.5381 7.30762 22.5127 7.43457C22.043 9.69434 22.0176 9.91016 19.6055 10.3418C19.4658 10.3672 19.3643 10.4561 19.3643 10.5957C19.3643 10.7354 19.4658 10.8115 19.6055 10.8369C22.0176 11.2812 22.043 11.4844 22.5127 13.7441C22.5381 13.8838 22.6143 13.9727 22.7412 13.9727ZM5.72949 17.54C5.85645 17.54 5.94531 17.4512 5.9707 17.3115C6.42773 15.0518 6.46582 14.8486 8.87793 14.4043C9.01758 14.3789 9.10645 14.3027 9.10645 14.1631C9.10645 14.0234 9.01758 13.9346 8.87793 13.9092C6.46582 13.4775 6.42773 13.2744 5.9707 11.002C5.94531 10.875 5.85645 10.7861 5.72949 10.7861C5.60254 10.7861 5.51367 10.875 5.48828 11.002C5.03125 13.2744 5.00586 13.4775 2.58105 13.9092C2.44141 13.9346 2.35254 14.0234 2.35254 14.1631C2.35254 14.3027 2.44141 14.3789 2.58105 14.4043C5.00586 14.8486 5.03125 15.0518 5.48828 17.3115C5.51367 17.4512 5.60254 17.54 5.72949 17.54ZM27.6797 28.75C28.1494 29.2197 28.8857 29.207 29.3174 28.75C29.7617 28.2803 29.7744 27.582 29.3174 27.1123L17.168 14.9121C16.7109 14.4551 15.9619 14.4678 15.5303 14.9121C15.0732 15.3818 15.0859 16.0928 15.5303 16.5498L27.6797 28.75ZM20.0879 20.041L16.292 16.2324C16.0889 16.0293 16.0381 15.8262 16.2285 15.623C16.4189 15.4453 16.6221 15.4834 16.8379 15.6992L20.6338 19.4951L20.0879 20.041ZM11.7598 28.458C11.9375 28.458 12.0771 28.3311 12.0898 28.1279C12.5596 24.7383 12.6484 24.7129 16.1016 24.1162C16.3174 24.0781 16.4443 23.9766 16.4443 23.7734C16.4443 23.583 16.3174 23.4688 16.1396 23.4307C12.6611 22.7578 12.5596 22.8086 12.0898 19.4189C12.0771 19.2158 11.9375 19.0889 11.7598 19.0889C11.582 19.0889 11.4424 19.2158 11.417 19.4062C10.9346 22.834 10.8711 22.8721 7.37988 23.4307C7.20215 23.4561 7.0752 23.583 7.0752 23.7734C7.0752 23.9639 7.20215 24.0781 7.37988 24.1162C10.8711 24.7891 10.9219 24.751 11.417 28.1533C11.4424 28.3311 11.582 28.458 11.7598 28.458Z" fill="black"/>
</svg>
