<svg width="32" height="32" viewBox="0 0 32 32" fill="none" xmlns="http://www.w3.org/2000/svg">
<path d="M25.0002 5.49958H7.00024C5.80717 5.50088 4.66333 5.9754 3.8197 6.81904C2.97607 7.66267 2.50154 8.80651 2.50024 9.99958V21.9996C2.50155 23.1927 2.97607 24.3365 3.8197 25.1801C4.66333 26.0238 5.80717 26.4983 7.00024 26.4996H25.0002C26.1933 26.4983 27.3372 26.0237 28.1808 25.1801C29.0244 24.3365 29.4989 23.1927 29.5002 21.9996V9.99958C29.4989 8.80651 29.0244 7.66267 28.1808 6.81904C27.3372 5.97541 26.1933 5.50088 25.0002 5.49958ZM7.00024 6.49958H25.0002C25.9282 6.5007 26.8177 6.86981 27.4739 7.52595C28.13 8.18208 28.4991 9.07167 28.5002 9.99958V18.4996H3.50024V9.99958C3.50137 9.07167 3.87048 8.18208 4.52661 7.52595C5.18274 6.86981 6.07233 6.5007 7.00024 6.49958ZM19.5002 19.4996V25.4996H12.5002V19.4996H19.5002ZM3.50024 21.9996V19.4996H11.5002V25.4996H7.00024C6.07233 25.4985 5.18275 25.1293 4.52661 24.4732C3.87048 23.8171 3.50137 22.9275 3.50024 21.9996ZM25.0002 25.4996H20.5002V19.4996H28.5002V21.9996C28.4991 22.9275 28.13 23.8171 27.4739 24.4732C26.8177 25.1293 25.9282 25.4985 25.0002 25.4996Z" fill="#0F0F0F"/>
</svg>
