<svg width="32" height="32" viewBox="0 0 32 32" fill="none" xmlns="http://www.w3.org/2000/svg">
<path d="M26 16.9997H6C5.20462 17.0006 4.44206 17.317 3.87964 17.8794C3.31722 18.4418 3.00087 19.2044 3 19.9997V23.9997C3.00087 24.7951 3.31722 25.5577 3.87964 26.1201C4.44206 26.6825 5.20462 26.9989 6 26.9997H26C26.7954 26.9989 27.5579 26.6825 28.1204 26.1201C28.6828 25.5577 28.9991 24.7951 29 23.9997V19.9997C28.9991 19.2044 28.6828 18.4418 28.1204 17.8794C27.5579 17.317 26.7954 17.0006 26 16.9997ZM27 23.9997C26.9998 24.2649 26.8944 24.5192 26.7069 24.7067C26.5194 24.8941 26.2652 24.9996 26 24.9997H6C5.73486 24.9995 5.48066 24.894 5.29319 24.7066C5.10571 24.5191 5.00026 24.2649 5 23.9997V19.9997C5.00026 19.7346 5.10571 19.4804 5.29319 19.2929C5.48066 19.1054 5.73486 19 6 18.9997H26C26.2652 18.9999 26.5194 19.1053 26.7069 19.2928C26.8944 19.4803 26.9998 19.7346 27 19.9997V23.9997Z" fill="#0F0F0F"/>
<path d="M26 4.99974H6C5.20462 5.00061 4.44206 5.31696 3.87964 5.87938C3.31722 6.4418 3.00087 7.20436 3 7.99974V11.9997C3.00087 12.7951 3.31722 13.5577 3.87964 14.1201C4.44206 14.6825 5.20462 14.9989 6 14.9997H26C26.7954 14.9989 27.5579 14.6825 28.1204 14.1201C28.6828 13.5577 28.9991 12.7951 29 11.9997V7.99974C28.9991 7.20436 28.6828 6.4418 28.1204 5.87938C27.5579 5.31696 26.7954 5.00061 26 4.99974ZM27 11.9997C26.9998 12.2649 26.8944 12.5192 26.7069 12.7067C26.5194 12.8941 26.2652 12.9996 26 12.9997H6C5.73486 12.9995 5.48066 12.894 5.29319 12.7066C5.10571 12.5191 5.00026 12.2649 5 11.9997V7.99974C5.00026 7.73461 5.10571 7.48041 5.29319 7.29293C5.48066 7.10545 5.73486 7.00001 6 6.99974H26C26.2652 6.99992 26.5194 7.10533 26.7069 7.29283C26.8944 7.48033 26.9998 7.73458 27 7.99974V11.9997Z" fill="#0F0F0F"/>
</svg>
