<svg width="32" height="32" viewBox="0 0 32 32" fill="none" xmlns="http://www.w3.org/2000/svg">
<path d="M25 5.25484H15C14.0058 5.25609 13.0527 5.65158 12.3497 6.35457C11.6467 7.05756 11.2513 8.01066 11.25 9.00484V9.25H11C10.0058 9.25125 9.05273 9.64674 8.34974 10.3497C7.64675 11.0527 7.25126 12.0058 7.25 13V14.25H5.99316C4.99899 14.2513 4.04589 14.6467 3.3429 15.3497C2.63991 16.0527 2.24442 17.0058 2.24316 18V24C2.24442 24.9942 2.63991 25.9473 3.3429 26.6503C4.04589 27.3533 4.99899 27.7487 5.99316 27.75H16C16.9942 27.7487 17.9473 27.3533 18.6503 26.6503C19.3533 25.9473 19.7488 24.9942 19.75 24V22.75H21C21.9942 22.7487 22.9473 22.3533 23.6503 21.6503C24.3533 20.9473 24.7488 19.9942 24.75 19V18.7549H25C25.9942 18.7536 26.9473 18.3581 27.6503 17.6551C28.3533 16.9522 28.7488 15.9991 28.75 15.0049V9.00488C28.7488 8.0107 28.3533 7.05759 27.6503 6.35459C26.9473 5.65159 25.9942 5.25609 25 5.25484ZM18.25 24C18.2492 24.5965 18.0119 25.1683 17.5901 25.5901C17.1683 26.0119 16.5965 26.2492 16 26.25H5.99316C5.39668 26.2492 4.82486 26.0119 4.40308 25.5901C3.9813 25.1683 3.74398 24.5965 3.74316 24V18C3.74398 17.4035 3.9813 16.8317 4.40308 16.4099C4.82486 15.9881 5.39668 15.7508 5.99316 15.75H16C16.5965 15.7508 17.1683 15.9881 17.5901 16.4099C18.0119 16.8317 18.2492 17.4035 18.25 18V24ZM23.25 19C23.2492 19.5965 23.0119 20.1683 22.5901 20.5901C22.1683 21.0119 21.5965 21.2492 21 21.25H19.75V18C19.7488 17.0058 19.3533 16.0527 18.6503 15.3497C17.9473 14.6467 16.9942 14.2513 16 14.25H8.75V13C8.75082 12.4035 8.98814 11.8317 9.40992 11.4099C9.8317 10.9881 10.4035 10.7508 11 10.75H21C21.5965 10.7508 22.1683 10.9881 22.5901 11.4099C23.0119 11.8317 23.2492 12.4035 23.25 13V19ZM27.25 15.0049C27.2492 15.6014 27.0119 16.1732 26.5901 16.595C26.1683 17.0167 25.5965 17.2541 25 17.2549H24.75V13C24.7488 12.0058 24.3533 11.0527 23.6503 10.3497C22.9473 9.64674 21.9942 9.25125 21 9.25H12.75V9.00484C12.7508 8.40835 12.9881 7.83653 13.4099 7.41475C13.8317 6.99297 14.4035 6.75566 15 6.75484H25C25.5965 6.75566 26.1683 6.99297 26.5901 7.41475C27.0119 7.83653 27.2492 8.40835 27.25 9.00484V15.0049Z" fill="#0F0F0F"/>
</svg>
