<svg width="32" height="32" viewBox="0 0 32 32" fill="none" xmlns="http://www.w3.org/2000/svg">
<path fill-rule="evenodd" clip-rule="evenodd" d="M13.8757 9.813C12.6727 9.87709 11.3 10.0032 10.4211 10.2373C9.68873 10.4323 8.55739 10.7961 7.50633 11.4032C6.44744 12.0149 5.5536 12.8248 5.15871 13.8758C4.18403 16.4701 5.14758 18.9398 6.05449 20.3882C6.47235 21.0556 7.28782 21.9061 8.46724 22.1679C9.60923 22.4214 11.3 22.167 13.5899 20.2154C14.3544 19.5639 15.1286 19.1153 16.0002 19.1153C16.8719 19.1153 17.646 19.5639 18.4105 20.2154C20.7005 22.167 22.3912 22.4214 23.5332 22.1679C24.7126 21.9061 25.5281 21.0556 25.9459 20.3882C26.8528 18.9398 27.8164 16.4701 26.8417 13.8758C26.4468 12.8248 25.553 12.0149 24.4941 11.4032C23.443 10.7961 22.3117 10.4323 21.5794 10.2373C20.7004 10.0032 19.3278 9.87709 18.1248 9.813C17.5337 9.78151 17.0011 9.76574 16.6162 9.75785C16.4239 9.75391 16.269 9.75195 16.1625 9.75097C16.1093 9.75048 16.0682 9.75024 16.0407 9.75012L16.0098 9.75001H15.9908L15.9599 9.75012C15.9324 9.75024 15.8913 9.75048 15.8381 9.75097C15.7316 9.75195 15.5767 9.75391 15.3844 9.75785C14.9995 9.76574 14.4668 9.78151 13.8757 9.813ZM16.0003 9C16.0003 8.25 16.0005 8.25 16.0005 8.25L16.013 8.25002L16.0473 8.25013C16.0771 8.25026 16.1205 8.25052 16.1763 8.25103C16.2878 8.25206 16.4484 8.2541 16.647 8.25817C17.0437 8.26629 17.5932 8.28255 18.2046 8.31513C19.4066 8.37917 20.92 8.50935 21.9654 8.78778C22.7588 8.9991 24.0319 9.40394 25.2444 10.1044C26.4491 10.8003 27.6781 11.837 28.2459 13.3483C29.4584 16.5754 28.2355 19.558 27.2173 21.1843C26.6726 22.0542 25.5644 23.2535 23.8582 23.6323C22.1147 24.0193 19.9579 23.505 17.4375 21.3571C16.7612 20.7807 16.3319 20.6153 16.0002 20.6153C15.6685 20.6153 15.2393 20.7806 14.5629 21.3571C12.0425 23.505 9.88576 24.0193 8.14218 23.6323C6.43603 23.2535 5.32786 22.0542 4.78314 21.1843C3.7649 19.558 2.54206 16.5754 3.75455 13.3483C4.32235 11.837 5.55133 10.8003 6.75602 10.1044C7.96856 9.40394 9.24159 8.9991 10.035 8.78778C11.0804 8.50935 12.5939 8.37917 13.7959 8.31513C14.4073 8.28255 14.9569 8.26629 15.3536 8.25817C15.5522 8.2541 15.7128 8.25206 15.8243 8.25103C15.8801 8.25052 15.9236 8.25026 15.9534 8.25013L15.9876 8.25002L15.9992 8.25C15.9992 8.25 16.0003 8.25 16.0003 9Z" fill="black"/>
</svg>
