<svg width="32" height="32" viewBox="0 0 32 32" fill="none" xmlns="http://www.w3.org/2000/svg">
<path fill-rule="evenodd" clip-rule="evenodd" d="M13.8888 10.0626C12.6856 10.1267 11.3363 10.2521 10.4852 10.4788C9.763 10.6712 8.65527 11.0281 7.63113 11.6197C6.59654 12.2174 5.75855 12.9894 5.39248 13.9638C4.45743 16.4525 5.37777 18.8368 6.26613 20.2556C6.66284 20.8891 7.42952 21.6815 8.52117 21.9238C9.56289 22.1551 11.1759 21.944 13.4275 20.0252C14.2067 19.3611 15.0383 18.8653 16 18.8653C16.9616 18.8653 17.7932 19.3611 18.5724 20.0252C20.2664 21.4688 21.5985 21.9413 22.5785 21.9947C23.5455 22.0474 24.2996 21.6994 24.8677 21.2358C25.2955 20.8866 25.9255 20.9503 26.2747 21.3782C26.6239 21.8061 26.5601 22.436 26.1323 22.7852C25.2576 23.4991 24.0279 24.0767 22.4696 23.9917C20.9243 23.9075 19.1897 23.179 17.2751 21.5473C16.6135 20.9834 16.2417 20.8653 16 20.8653C15.7583 20.8653 15.3865 20.9834 14.7248 21.5473C12.166 23.728 9.93159 24.2856 8.08775 23.8763C6.29382 23.4781 5.13686 22.2207 4.571 21.3169C3.5342 19.6611 2.26814 16.593 3.52026 13.2604C4.11688 11.6724 5.40172 10.5979 6.63072 9.88791C7.87017 9.17192 9.16681 8.76024 9.97043 8.5462C11.0436 8.26038 12.5805 8.12951 13.7824 8.06548C14.3972 8.03273 14.9496 8.01639 15.3483 8.00822C15.5478 8.00413 15.7095 8.00207 15.8218 8.00104C15.8779 8.00053 15.9218 8.00027 15.952 8.00013L15.9868 8.00002L15.9999 8L16.0133 8.00002L16.0481 8.00013C16.0783 8.00027 16.1222 8.00053 16.1783 8.00104C16.2906 8.00207 16.4523 8.00413 16.6518 8.00822C17.0505 8.01639 17.6029 8.03273 18.2177 8.06548C19.4195 8.12951 20.9563 8.26039 22.0295 8.5462C22.6327 8.70687 23.5039 8.97642 24.4182 9.39737C24.9198 9.62835 25.1393 10.2223 24.9083 10.7239C24.6773 11.2256 24.0834 11.445 23.5817 11.2141C22.804 10.856 22.0491 10.6212 21.5148 10.4788C20.6636 10.2521 19.3144 10.1267 18.1113 10.0626C17.5236 10.0313 16.9937 10.0156 16.6108 10.0078C16.4196 10.0039 16.2656 10.0019 16.16 10.001C16.1072 10.0005 16.0665 10.0002 16.0394 10.0001L16.009 10L16.0002 10L15.9911 10L15.9607 10.0001C15.9336 10.0002 15.8929 10.0005 15.8401 10.001C15.7345 10.0019 15.5805 10.0039 15.3892 10.0078C15.0063 10.0156 14.4765 10.0313 13.8888 10.0626ZM25.2921 12.2927C24.9015 12.683 24.9012 13.3162 25.2916 13.7069L26.5849 15.001H20C19.4477 15.001 19 15.4487 19 16.001C19 16.5533 19.4477 17.001 20 17.001H26.5838L25.2919 18.2929C24.9014 18.6834 24.9013 19.3166 25.2919 19.7071C25.6824 20.0976 26.3156 20.0976 26.7061 19.7071L29.7051 16.7082C30.0955 16.3177 30.0957 15.6847 29.7053 15.2942L26.7063 12.2931C26.3159 11.9025 25.6828 11.9023 25.2921 12.2927Z" fill="#0F0F0F"/>
</svg>
