<svg width="32" height="32" viewBox="0 0 32 32" fill="none" xmlns="http://www.w3.org/2000/svg">
<path d="M10.4852 10.4788C11.3363 10.2521 12.6856 10.1267 13.8888 10.0626C14.4765 10.0313 15.0063 10.0156 15.3892 10.0078C15.5805 10.0039 15.7345 10.0019 15.8401 10.001C15.8929 10.0005 15.9336 10.0002 15.9607 10.0001L15.9911 10L15.9999 10L16.009 10L16.0394 10.0001C16.0665 10.0002 16.1072 10.0005 16.16 10.001C16.2656 10.0019 16.4196 10.0039 16.6108 10.0078C16.9937 10.0156 17.5236 10.0313 18.1113 10.0626C19.3144 10.1267 20.6636 10.2521 21.5148 10.4788C22.1747 10.6546 23.1619 10.9691 24.113 11.4776C25.0742 11.9914 25.912 12.6574 26.3867 13.4936C26.6594 13.9739 27.2697 14.1423 27.75 13.8697C28.2303 13.597 28.3987 12.9867 28.1261 12.5064C27.3895 11.2087 26.1844 10.3171 25.0559 9.7138C23.9173 9.1051 22.768 8.74289 22.0295 8.5462C20.9563 8.26039 19.4195 8.12951 18.2177 8.06548C17.6029 8.03273 17.0505 8.01639 16.6518 8.00822C16.4523 8.00413 16.2906 8.00207 16.1783 8.00104C16.1222 8.00053 16.0783 8.00027 16.0481 8.00013L16.0133 8.00002L16.0002 8L15.9868 8.00002L15.952 8.00013C15.9218 8.00027 15.8779 8.00053 15.8218 8.00104C15.7095 8.00207 15.5478 8.00413 15.3483 8.00822C14.9496 8.01639 14.3972 8.03273 13.7824 8.06548C12.5805 8.12951 11.0436 8.26038 9.97043 8.5462C9.16681 8.76024 7.87017 9.17192 6.63072 9.88791C5.40172 10.5979 4.11688 11.6724 3.52026 13.2604C2.26814 16.593 3.5342 19.6611 4.571 21.3169C5.13686 22.2207 6.29382 23.4781 8.08775 23.8763C9.93159 24.2856 12.166 23.728 14.7248 21.5473C15.3865 20.9834 15.7583 20.8653 16 20.8653C16.2417 20.8653 16.6135 20.9834 17.2751 21.5473C19.8339 23.728 22.0683 24.2856 23.9122 23.8763C25.7061 23.4781 26.8631 22.2207 27.4289 21.3169C27.7648 20.7805 28.1148 20.1135 28.399 19.3481C28.5912 18.8303 28.3273 18.2548 27.8096 18.0625C27.2918 17.8703 26.7163 18.1342 26.5241 18.6519C26.2934 19.2732 26.0075 19.8184 25.7338 20.2556C25.3371 20.8891 24.5704 21.6815 23.4788 21.9238C22.437 22.1551 20.824 21.944 18.5724 20.0252C17.7932 19.3611 16.9616 18.8653 16 18.8653C15.0383 18.8653 14.2067 19.3611 13.4275 20.0252C11.1759 21.944 9.56289 22.1551 8.52117 21.9238C7.42952 21.6815 6.66284 20.8891 6.26613 20.2556C5.37778 18.8368 4.45743 16.4525 5.39248 13.9638C5.75855 12.9894 6.59654 12.2174 7.63113 11.6197C8.65527 11.0281 9.763 10.6712 10.4852 10.4788ZM23.7059 12.2927C24.0965 12.683 24.0967 13.3162 23.7063 13.7069L22.4131 15.001H28.998C29.5503 15.001 29.998 15.4487 29.998 16.001C29.998 16.5533 29.5503 17.001 28.998 17.001H22.4141L23.7061 18.2929C24.0966 18.6834 24.0966 19.3166 23.7061 19.7071C23.3156 20.0976 22.6824 20.0976 22.2919 19.7071L19.2929 16.7082C18.9024 16.3177 18.9023 15.6847 19.2926 15.2942L22.2916 12.2931C22.682 11.9025 23.3152 11.9023 23.7059 12.2927Z" fill="#0F0F0F"/>
</svg>
