<svg width="32" height="32" viewBox="0 0 32 32" fill="none" xmlns="http://www.w3.org/2000/svg">
<path d="M13.8757 9.813C12.6727 9.87709 11.3 10.0032 10.4211 10.2373C9.68873 10.4323 8.55739 10.7961 7.50633 11.4032C6.44744 12.0149 5.5536 12.8248 5.15871 13.8758C4.18403 16.4701 5.14758 18.9398 6.05449 20.3882C6.47235 21.0556 7.28782 21.9061 8.46724 22.1679C9.60923 22.4214 11.3 22.167 13.5899 20.2154C14.3544 19.5639 15.1286 19.1153 16.0002 19.1153C16.8719 19.1153 17.646 19.5639 18.4105 20.2154C20.132 21.6826 21.5145 22.187 22.5651 22.2443C23.606 22.3011 24.4196 21.9244 25.026 21.4295C25.3469 21.1676 25.8193 21.2154 26.0813 21.5363C26.3432 21.8572 26.2953 22.3296 25.9744 22.5915C25.1381 23.2742 23.9678 23.823 22.4835 23.7421C21.0088 23.6617 19.3246 22.9653 17.4375 21.3571C16.7612 20.7807 16.3319 20.6153 16.0002 20.6153C15.6685 20.6153 15.2393 20.7806 14.5629 21.3571C12.0425 23.505 9.88576 24.0193 8.14218 23.6323C6.43603 23.2535 5.32786 22.0542 4.78314 21.1843C3.7649 19.558 2.54206 16.5754 3.75455 13.3483C4.32235 11.837 5.55133 10.8003 6.75602 10.1044C7.96856 9.40394 9.24159 8.9991 10.035 8.78778C11.0804 8.50935 12.5939 8.37917 13.7959 8.31513C14.4073 8.28255 14.9569 8.26629 15.3536 8.25817C15.5522 8.2541 15.7128 8.25206 15.8243 8.25103C15.8801 8.25052 15.9236 8.25026 15.9534 8.25013L15.9876 8.25002L15.9992 8.25C15.9992 8.25 16.0003 8.25 16.0003 9C16.0003 8.25 16.0005 8.25 16.0005 8.25L16.013 8.25002L16.0473 8.25013C16.0771 8.25026 16.1205 8.25052 16.1763 8.25103C16.2878 8.25206 16.4484 8.2541 16.647 8.25817C17.0437 8.26629 17.5932 8.28255 18.2046 8.31513C19.4066 8.37917 20.92 8.50935 21.9654 8.78778C22.56 8.94616 23.4167 9.21137 24.3139 9.62446C24.6901 9.79769 24.8547 10.2431 24.6815 10.6194C24.5082 10.9956 24.0628 11.1602 23.6865 10.987C22.8918 10.621 22.1223 10.3819 21.5794 10.2373C20.7004 10.0032 19.3278 9.87709 18.1248 9.813C17.5337 9.78151 17.0011 9.76574 16.6162 9.75785C16.4239 9.75391 16.269 9.75195 16.1625 9.75097C16.1093 9.75048 16.0682 9.75024 16.0407 9.75012L16.0098 9.75001L16.0006 9.75L15.9983 9.75L15.9908 9.75001L15.9599 9.75012C15.9324 9.75024 15.8913 9.75048 15.8381 9.75097C15.7316 9.75195 15.5767 9.75391 15.3844 9.75785C14.9995 9.76574 14.4668 9.78151 13.8757 9.813ZM25.4691 12.4695C25.1761 12.7623 25.1759 13.2372 25.4687 13.5302L27.1884 15.251H20.0002C19.586 15.251 19.2502 15.5868 19.2502 16.001C19.2502 16.4152 19.586 16.751 20.0002 16.751H27.1876L25.4689 18.4697C25.176 18.7626 25.176 19.2374 25.4689 19.5303C25.7618 19.8232 26.2367 19.8232 26.5296 19.5303L29.5286 16.5314C29.8214 16.2386 29.8215 15.7638 29.5288 15.4709L26.5297 12.4698C26.2369 12.1769 25.7621 12.1767 25.4691 12.4695Z" fill="#0F0F0F"/>
</svg>
