<svg width="32" height="32" viewBox="0 0 32 32" fill="none" xmlns="http://www.w3.org/2000/svg">
<path d="M11 18.0003C12.1046 18.0003 13 17.1049 13 16.0003C13 14.8957 12.1046 14.0003 11 14.0003C9.89543 14.0003 9 14.8957 9 16.0003C9 17.1049 9.89543 18.0003 11 18.0003Z" fill="#0F0F0F"/>
<path d="M25 6.50031H7C5.80692 6.5016 4.66309 6.97613 3.81945 7.81976C2.97582 8.66339 2.5013 9.80723 2.5 11.0003V21.0003C2.5013 22.1934 2.97583 23.3372 3.81946 24.1808C4.66309 25.0245 5.80693 25.499 7 25.5003H25C26.1931 25.499 27.3369 25.0245 28.1805 24.1808C29.0242 23.3372 29.4987 22.1934 29.5 21.0003V11.0003C29.4987 9.80723 29.0242 8.66339 28.1805 7.81976C27.3369 6.97613 26.1931 6.50161 25 6.50031ZM21 20.0003H11C10.2089 20.0003 9.43552 19.7657 8.77772 19.3262C8.11992 18.8867 7.60723 18.2619 7.30448 17.531C7.00173 16.8001 6.92252 15.9959 7.07686 15.2199C7.2312 14.444 7.61216 13.7313 8.17157 13.1719C8.73098 12.6125 9.44371 12.2315 10.2196 12.0772C10.9956 11.9228 11.7998 12.002 12.5307 12.3048C13.2616 12.6075 13.8864 13.1202 14.3259 13.778C14.7654 14.4358 15 15.2092 15 16.0003C14.996 16.7046 14.804 17.3951 14.4438 18.0003H17.5562C17.196 17.3951 17.004 16.7046 17 16.0003C17 15.2092 17.2346 14.4358 17.6741 13.778C18.1136 13.1202 18.7384 12.6075 19.4693 12.3048C20.2002 12.002 21.0044 11.9228 21.7804 12.0772C22.5563 12.2315 23.269 12.6125 23.8284 13.1719C24.3878 13.7313 24.7688 14.444 24.9231 15.2199C25.0775 15.9959 24.9983 16.8001 24.6955 17.531C24.3928 18.2619 23.8801 18.8867 23.2223 19.3262C22.5645 19.7657 21.7911 20.0003 21 20.0003Z" fill="#0F0F0F"/>
<path d="M21 18.0003C22.1046 18.0003 23 17.1049 23 16.0003C23 14.8957 22.1046 14.0003 21 14.0003C19.8954 14.0003 19 14.8957 19 16.0003C19 17.1049 19.8954 18.0003 21 18.0003Z" fill="#0F0F0F"/>
</svg>
