<svg width="32" height="32" viewBox="0 0 32 32" fill="none" xmlns="http://www.w3.org/2000/svg">
<path d="M21 12.0003C19.9395 12.0014 18.9227 12.4231 18.1727 13.173C17.4228 13.923 17.0011 14.9398 17 16.0003C17.004 16.7046 17.196 17.3951 17.5562 18.0003H14.4438C14.804 17.3951 14.996 16.7046 15 16.0003C15 15.2092 14.7654 14.4358 14.3259 13.778C13.8864 13.1202 13.2616 12.6075 12.5307 12.3048C11.7998 12.002 10.9956 11.9228 10.2196 12.0772C9.44371 12.2315 8.73098 12.6125 8.17157 13.1719C7.61216 13.7313 7.2312 14.444 7.07686 15.2199C6.92252 15.9959 7.00173 16.8001 7.30448 17.531C7.60723 18.2619 8.11992 18.8867 8.77772 19.3262C9.43552 19.7657 10.2089 20.0003 11 20.0003H21C22.0609 20.0003 23.0783 19.5789 23.8284 18.8287C24.5786 18.0786 25 17.0612 25 16.0003C25 14.9394 24.5786 13.922 23.8284 13.1719C23.0783 12.4217 22.0609 12.0003 21 12.0003ZM9 16.0003C9 15.6047 9.1173 15.2181 9.33706 14.8892C9.55682 14.5603 9.86918 14.3039 10.2346 14.1525C10.6001 14.0012 11.0022 13.9616 11.3902 14.0387C11.7781 14.1159 12.1345 14.3064 12.4142 14.5861C12.6939 14.8658 12.8844 15.2222 12.9616 15.6101C13.0387 15.9981 12.9991 16.4002 12.8478 16.7657C12.6964 17.1311 12.44 17.4435 12.1111 17.6632C11.7822 17.883 11.3956 18.0003 11 18.0003C10.4698 17.9996 9.96147 17.7887 9.58655 17.4138C9.21162 17.0388 9.00069 16.5305 9 16.0003ZM21 18.0003C20.6044 18.0003 20.2178 17.883 19.8889 17.6632C19.56 17.4435 19.3036 17.1311 19.1522 16.7657C19.0009 16.4002 18.9613 15.9981 19.0384 15.6101C19.1156 15.2222 19.3061 14.8658 19.5858 14.5861C19.8655 14.3064 20.2219 14.1159 20.6098 14.0387C20.9978 13.9616 21.3999 14.0012 21.7654 14.1525C22.1308 14.3039 22.4432 14.5603 22.6629 14.8892C22.8827 15.2181 23 15.6047 23 16.0003C22.9993 16.5305 22.7884 17.0388 22.4135 17.4137C22.0385 17.7887 21.5302 17.9996 21 18.0003Z" fill="#0F0F0F"/>
<path d="M25 6.0003H7C5.6744 6.00185 4.40353 6.52914 3.46618 7.46648C2.52884 8.40383 2.00156 9.67469 2 11.0003V21.0003C2.00156 22.3259 2.52884 23.5968 3.46619 24.5341C4.40353 25.4715 5.6744 25.9987 7 26.0003H25C26.3256 25.9987 27.5965 25.4715 28.5338 24.5341C29.4712 23.5968 29.9984 22.3259 30 21.0003V11.0003C29.9984 9.67469 29.4712 8.40383 28.5338 7.46649C27.5965 6.52914 26.3256 6.00186 25 6.0003ZM28 21.0003C27.9991 21.7957 27.6828 22.5582 27.1204 23.1207C26.5579 23.6831 25.7954 23.9994 25 24.0003H7C6.20462 23.9994 5.44206 23.6831 4.87964 23.1207C4.31722 22.5582 4.00087 21.7957 4 21.0003V11.0003C4.00087 10.2049 4.31722 9.44236 4.87964 8.87994C5.44206 8.31751 6.20462 8.00117 7 8.0003H25C25.7954 8.00117 26.5579 8.31751 27.1204 8.87994C27.6828 9.44236 27.9991 10.2049 28 11.0003V21.0003Z" fill="#0F0F0F"/>
</svg>
