<svg width="32" height="32" viewBox="0 0 32 32" fill="none" xmlns="http://www.w3.org/2000/svg">
<path d="M16 2.24954C13.2805 2.24954 10.6221 3.05597 8.36092 4.56684C6.09974 6.0777 4.33737 8.22516 3.29666 10.7376C2.25596 13.2501 1.98366 16.0148 2.51421 18.682C3.04476 21.3493 4.35432 23.7993 6.27729 25.7223C8.20026 27.6452 10.6503 28.9548 13.3175 29.4853C15.9848 30.0159 18.7494 29.7436 21.2619 28.7029C23.7744 27.6622 25.9218 25.8998 27.4327 23.6386C28.9436 21.3775 29.75 18.719 29.75 15.9995C29.746 12.3541 28.296 8.85903 25.7183 6.28128C23.1405 3.70353 19.6455 2.25358 16 2.24954ZM16 28.2495C13.5772 28.2495 11.2088 27.5311 9.19427 26.185C7.17977 24.839 5.60966 22.9258 4.68248 20.6874C3.75531 18.449 3.51272 15.986 3.98539 13.6097C4.45806 11.2334 5.62475 9.05068 7.33795 7.33748C9.05114 5.62429 11.2339 4.45759 13.6102 3.98492C15.9864 3.51225 18.4495 3.75484 20.6879 4.68202C22.9263 5.60919 24.8395 7.1793 26.1855 9.19381C27.5316 11.2083 28.25 13.5767 28.25 15.9995C28.2464 19.2473 26.9546 22.3611 24.6581 24.6576C22.3615 26.9542 19.2478 28.2459 16 28.2495Z" fill="#0F0F0F"/>
<path d="M15.9999 17.75C16.9664 17.75 17.7499 16.9665 17.7499 16C17.7499 15.0335 16.9664 14.25 15.9999 14.25C15.0334 14.25 14.2499 15.0335 14.2499 16C14.2499 16.9665 15.0334 17.75 15.9999 17.75Z" fill="#0F0F0F"/>
</svg>
