<svg width="32" height="32" viewBox="0 0 32 32" fill="none" xmlns="http://www.w3.org/2000/svg">
<path d="M16 1.99954C13.2311 1.99954 10.5243 2.82063 8.22202 4.35897C5.91973 5.89731 4.12532 8.08381 3.06569 10.642C2.00607 13.2001 1.72882 16.0151 2.26901 18.7308C2.80921 21.4465 4.14258 23.9411 6.10051 25.899C8.05845 27.857 10.553 29.1903 13.2687 29.7305C15.9845 30.2707 18.7994 29.9935 21.3576 28.9339C23.9157 27.8742 26.1022 26.0798 27.6406 23.7775C29.1789 21.4752 30 18.7685 30 15.9995C29.9958 12.2878 28.5195 8.72925 25.8949 6.10464C23.2703 3.48004 19.7118 2.0037 16 1.99954ZM16 27.9995C13.6266 27.9995 11.3066 27.2958 9.33316 25.9772C7.35977 24.6586 5.8217 22.7845 4.91345 20.5917C4.0052 18.399 3.76756 15.9862 4.23058 13.6585C4.69361 11.3307 5.83649 9.19249 7.51472 7.51426C9.19296 5.83603 11.3312 4.69314 13.6589 4.23012C15.9867 3.7671 18.3995 4.00474 20.5922 4.91299C22.7849 5.82124 24.6591 7.35931 25.9776 9.3327C27.2962 11.3061 28 13.6262 28 15.9995C27.9965 19.1811 26.7311 22.2313 24.4815 24.481C22.2318 26.7307 19.1815 27.9961 16 27.9995Z" fill="#0F0F0F"/>
<path d="M15.9999 18C17.1045 18 17.9999 17.1045 17.9999 16C17.9999 14.8954 17.1045 14 15.9999 14C14.8953 14 13.9999 14.8954 13.9999 16C13.9999 17.1045 14.8953 18 15.9999 18Z" fill="#0F0F0F"/>
</svg>
