<svg width="32" height="32" viewBox="0 0 32 32" fill="none" xmlns="http://www.w3.org/2000/svg">
<path d="M4.87891 27.8486H27.1211C29.6094 27.8486 30.8662 26.5791 30.8662 24.1416V8.57715C30.8662 6.12695 29.6094 4.85742 27.1211 4.85742H4.87891C2.40332 4.85742 1.13379 6.11426 1.13379 8.57715V24.1416C1.13379 26.5918 2.40332 27.8486 4.87891 27.8486ZM10.2871 16.6006C8.58594 16.6006 7.20215 15.2041 7.20215 13.5029C7.20215 11.8145 8.58594 10.418 10.2871 10.418C11.9756 10.418 13.3594 11.8145 13.3594 13.5029C13.3594 15.2041 11.9756 16.6006 10.2871 16.6006ZM4.86621 26.2744C3.52051 26.2744 2.70801 25.4746 2.70801 24.1162V23.4307L6.92285 19.7871C7.50684 19.2793 8.11621 19.0127 8.6748 19.0127C9.29688 19.0127 9.94434 19.2793 10.5156 19.8125L12.9023 21.9707L18.9834 16.6387C19.6436 16.0547 20.3672 15.7754 21.0654 15.7754C21.7891 15.7754 22.5381 16.0674 23.1729 16.6514L29.292 22.2373V24.1289C29.292 25.4746 28.4795 26.2744 27.1465 26.2744H4.86621Z" fill="black"/>
</svg>
