<svg width="32" height="32" viewBox="0 0 32 32" fill="none" xmlns="http://www.w3.org/2000/svg">
<path d="M29.3787 23.6241L18.3816 4.62508C18.1402 4.20702 17.793 3.85987 17.3749 3.61851C16.9568 3.37714 16.4826 3.25008 15.9998 3.25008C15.5171 3.25008 15.0428 3.37714 14.6247 3.61851C14.2066 3.85987 13.8594 4.20702 13.618 4.62508L2.61892 23.6251C2.37759 24.0431 2.25052 24.5172 2.25049 24.9999C2.25046 25.4826 2.37746 25.9567 2.61874 26.3748C2.86002 26.7928 3.20707 27.14 3.62503 27.3814C4.04298 27.6228 4.51711 27.75 4.99978 27.7501H26.9969C27.4798 27.7501 27.9541 27.623 28.3722 27.3815C28.7904 27.1401 29.1376 26.7929 29.379 26.3747C29.6204 25.9565 29.7474 25.4822 29.7474 24.9994C29.7474 24.5165 29.6202 24.0422 29.3787 23.6241ZM28.0799 25.6251C27.9711 25.816 27.8135 25.9745 27.6231 26.0844C27.4328 26.1942 27.2167 26.2514 26.9969 26.2501H4.99982C4.78053 26.25 4.56512 26.1923 4.37522 26.0826C4.18532 25.973 4.02763 25.8153 3.91798 25.6253C3.80834 25.4354 3.7506 25.22 3.75057 25.0007C3.75054 24.7814 3.80822 24.566 3.91782 24.3761L14.9168 5.37608C15.0266 5.18597 15.1845 5.02713 15.3747 4.91742C15.5649 4.80771 15.7806 4.75001 16.0001 4.75011C16.2196 4.75021 16.4353 4.80811 16.6253 4.918C16.8154 5.02788 16.9732 5.18587 17.0828 5.37608L28.0799 24.3751C28.1907 24.5647 28.2491 24.7804 28.2491 25.0001C28.2491 25.2197 28.1907 25.4354 28.0799 25.6251Z" fill="#0F0F0F"/>
<path d="M15.9999 23.75C16.5522 23.75 16.9999 23.3022 16.9999 22.75C16.9999 22.1977 16.5522 21.75 15.9999 21.75C15.4477 21.75 14.9999 22.1977 14.9999 22.75C14.9999 23.3022 15.4477 23.75 15.9999 23.75Z" fill="#0F0F0F"/>
<path d="M15.9998 19.7501C16.1987 19.75 16.3895 19.671 16.5301 19.5304C16.6707 19.3897 16.7498 19.199 16.7498 19.0001V12.0001C16.7498 11.8012 16.6708 11.6104 16.5301 11.4697C16.3895 11.3291 16.1987 11.2501 15.9998 11.2501C15.8009 11.2501 15.6101 11.3291 15.4695 11.4697C15.3288 11.6104 15.2498 11.8012 15.2498 12.0001V19.0001C15.2499 19.199 15.3289 19.3897 15.4695 19.5304C15.6102 19.671 15.8009 19.75 15.9998 19.7501Z" fill="#0F0F0F"/>
</svg>
