<svg width="32" height="32" viewBox="0 0 32 32" fill="none" xmlns="http://www.w3.org/2000/svg">
<path d="M4.5 13.0012V23.9992C4.5013 25.1923 4.97583 26.3361 5.81946 27.1798C6.66309 28.0234 7.80693 28.4979 9 28.4992H23C24.1931 28.4979 25.3369 28.0234 26.1805 27.1798C27.0242 26.3361 27.4987 25.1923 27.5 23.9992V12.9924C27.4847 12.9931 27.472 13.0012 27.4565 13.0012H4.5Z" fill="#0F0F0F"/>
<path d="M23 5.49927V3.00027C23 2.73506 22.8946 2.4807 22.7071 2.29317C22.5196 2.10563 22.2652 2.00027 22 2.00027C21.7348 2.00027 21.4804 2.10563 21.2929 2.29317C21.1054 2.4807 21 2.73506 21 3.00027V5.49927H11V3.00027C11 2.73506 10.8946 2.4807 10.7071 2.29317C10.5196 2.10563 10.2652 2.00027 10 2.00027C9.73478 2.00027 9.48043 2.10563 9.29289 2.29317C9.10536 2.4807 9 2.73506 9 3.00027V5.49927C7.80693 5.50058 6.66309 5.9751 5.81946 6.81873C4.97583 7.66236 4.5013 8.8062 4.5 9.99927V11.0012H27.4565C27.472 11.0012 27.4847 11.0093 27.5 11.01V9.99927C27.4987 8.8062 27.0242 7.66236 26.1805 6.81873C25.3369 5.9751 24.1931 5.50057 23 5.49927Z" fill="#0F0F0F"/>
</svg>
