<svg width="32" height="32" viewBox="0 0 32 32" fill="none" xmlns="http://www.w3.org/2000/svg">
<path d="M29.7646 18.8174C29.7287 17.9126 29.4246 17.0388 28.891 16.3072C28.3574 15.5757 27.6183 15.0192 26.7676 14.7087C27.1486 14.2754 27.3966 13.7414 27.4818 13.1708C27.567 12.6001 27.4859 12.017 27.2481 11.4913C27.0103 10.9656 26.626 10.5196 26.1412 10.2068C25.6564 9.89395 25.0916 9.72757 24.5146 9.72757C23.9377 9.72757 23.3729 9.89395 22.8881 10.2068C22.4033 10.5196 22.019 10.9656 21.7812 11.4913C21.5434 12.017 21.4622 12.6001 21.5475 13.1708C21.6327 13.7414 21.8806 14.2754 22.2616 14.7087C21.7552 14.9218 21.2844 15.2111 20.8655 15.5667C20.2602 15.2086 19.6156 14.9213 18.9446 14.7105C19.7228 14.1009 20.2914 13.2638 20.5713 12.3158C20.8511 11.3677 20.8282 10.356 20.5058 9.42156C20.1834 8.48713 19.5775 7.67656 18.7726 7.10279C17.9677 6.52903 17.0038 6.22066 16.0154 6.22065C15.0269 6.22064 14.063 6.52899 13.2581 7.10274C12.4532 7.67649 11.8473 8.48705 11.5248 9.42146C11.2024 10.3559 11.1795 11.3676 11.4593 12.3157C11.7392 13.2637 12.3078 14.1008 13.0859 14.7104C12.4073 14.9233 11.7558 15.2144 11.1444 15.5778C10.7232 15.2185 10.2491 14.9263 9.73888 14.7115C10.1199 14.2782 10.3678 13.7442 10.453 13.1736C10.5382 12.603 10.4571 12.0198 10.2193 11.4942C9.98148 10.9685 9.59715 10.5225 9.11234 10.2097C8.62752 9.89687 8.06279 9.7305 7.48583 9.7305C6.90886 9.7305 6.34412 9.89687 5.85931 10.2097C5.3745 10.5225 4.99017 10.9685 4.75238 11.4942C4.5146 12.0198 4.43344 12.603 4.51865 13.1736C4.60385 13.7442 4.8518 14.2782 5.23277 14.7115C4.38213 15.0221 3.64302 15.5785 3.10938 16.3101C2.57575 17.0417 2.27168 17.9155 2.23584 18.8203C2.23584 19.4131 2.57128 20.2236 4.16845 20.7227C5.19783 21.0117 6.26268 21.1547 7.33184 21.1477C7.28928 21.4537 7.267 21.7623 7.26513 22.0713C7.26513 22.9512 7.78857 24.1699 10.2832 24.9815C12.1445 25.5242 14.0771 25.7833 16.0156 25.75C20.0518 25.75 24.7656 24.7871 24.7656 22.0713C24.7637 21.7616 24.7413 21.4524 24.6985 21.1457C27.182 21.1166 29.7646 20.4948 29.7646 18.8174ZM24.5146 11.249C24.8113 11.249 25.1013 11.337 25.348 11.5018C25.5947 11.6666 25.7869 11.9009 25.9005 12.175C26.014 12.4491 26.0437 12.7507 25.9858 13.0417C25.9279 13.3326 25.7851 13.5999 25.5753 13.8097C25.3655 14.0195 25.0982 14.1623 24.8073 14.2202C24.5163 14.2781 24.2147 14.2484 23.9406 14.1348C23.6665 14.0213 23.4323 13.829 23.2674 13.5824C23.1026 13.3357 23.0146 13.0457 23.0146 12.749C23.0151 12.3513 23.1732 11.97 23.4545 11.6888C23.7357 11.4076 24.1169 11.2495 24.5146 11.249ZM12.7651 11C12.7651 10.3571 12.9557 9.7287 13.3128 9.19416C13.6699 8.65962 14.1775 8.24299 14.7714 7.99696C15.3654 7.75092 16.0189 7.68654 16.6494 7.81194C17.2799 7.93734 17.8591 8.24691 18.3137 8.70148C18.7682 9.15605 19.0778 9.73521 19.2032 10.3657C19.3286 10.9962 19.2642 11.6498 19.0182 12.2437C18.7721 12.8376 18.3555 13.3452 17.821 13.7023C17.2864 14.0595 16.658 14.25 16.0151 14.25C15.1535 14.249 14.3274 13.9063 13.7181 13.297C13.1089 12.6877 12.7661 11.8616 12.7651 11ZM7.48584 11.252C7.78251 11.252 8.07252 11.34 8.3192 11.5048C8.56587 11.6696 8.75813 11.9039 8.87166 12.178C8.98519 12.4521 9.0149 12.7537 8.95702 13.0446C8.89914 13.3356 8.75628 13.6029 8.5465 13.8127C8.33672 14.0224 8.06945 14.1653 7.77848 14.2232C7.4875 14.2811 7.1859 14.2514 6.91181 14.1378C6.63773 14.0243 6.40346 13.832 6.23864 13.5854C6.07381 13.3387 5.98584 13.0487 5.98584 12.752C5.98627 12.3543 6.14445 11.973 6.42566 11.6918C6.70687 11.4106 7.08815 11.2524 7.48584 11.252ZM7.70105 19.646C7.62689 19.6471 7.56243 19.6523 7.48584 19.6523C5.03027 19.6523 3.82373 19.0586 3.73584 18.8203C3.73584 17.128 5.41796 15.752 7.48584 15.752C8.34584 15.747 9.1869 16.0044 9.89672 16.49C8.91156 17.3411 8.15662 18.4264 7.70105 19.646ZM16.0156 24.25C11.6782 24.25 8.76513 23.124 8.76513 22.0713C8.76513 18.5859 12.0176 15.75 16.0151 15.75C20.0127 15.75 23.2656 18.5859 23.2656 22.0713C23.2656 23.124 20.3525 24.25 16.0156 24.25ZM24.5146 19.6484C24.4483 19.6484 24.3927 19.6437 24.3283 19.6428C23.8699 18.4183 23.1096 17.3295 22.1181 16.4772C22.8251 15.9981 23.6606 15.7443 24.5146 15.749C26.5801 15.749 28.2617 17.123 28.2646 18.8125C28.1641 19.0615 26.957 19.6484 24.5146 19.6484Z" fill="#0F0F0F"/>
</svg>
