<svg width="32" height="32" viewBox="0 0 32 32" fill="none" xmlns="http://www.w3.org/2000/svg">
<path d="M24.9995 10.2502H6.99951C5.74017 10.2517 4.53282 10.7526 3.64233 11.6431C2.75184 12.5336 2.25094 13.7409 2.24951 15.0002V17.0002C2.25094 18.2596 2.75184 19.4669 3.64233 20.3574C4.53282 21.2479 5.74017 21.7488 6.99951 21.7502H24.9995C26.2589 21.7488 27.4662 21.2479 28.3567 20.3574C29.2472 19.4669 29.7481 18.2596 29.7495 17.0002V15.0002C29.7481 13.7409 29.2472 12.5336 28.3567 11.6431C27.4662 10.7526 26.2589 10.2517 24.9995 10.2502ZM28.2495 17.0002C28.2485 17.8619 27.9058 18.688 27.2965 19.2972C26.6872 19.9065 25.8612 20.2492 24.9995 20.2502H6.99951C6.13786 20.2492 5.31179 19.9065 4.70251 19.2972C4.09324 18.688 3.75051 17.8619 3.74951 17.0002V15.0002C3.7505 14.1386 4.09323 13.3125 4.70251 12.7032C5.31179 12.094 6.13786 11.7512 6.99951 11.7502H24.9995C25.8612 11.7512 26.6872 12.094 27.2965 12.7032C27.9058 13.3125 28.2485 14.1386 28.2495 15.0002V17.0002Z" fill="#0F0F0F"/>
<path d="M16.9985 15.2502H15.0015C14.8025 15.2502 14.6118 15.3293 14.4711 15.4699C14.3305 15.6106 14.2515 15.8013 14.2515 16.0002C14.2515 16.1992 14.3305 16.3899 14.4711 16.5306C14.6118 16.6712 14.8025 16.7502 15.0015 16.7502H16.9985C17.1974 16.7502 17.3882 16.6712 17.5289 16.5306C17.6695 16.3899 17.7485 16.1992 17.7485 16.0002C17.7485 15.8013 17.6695 15.6106 17.5289 15.4699C17.3882 15.3293 17.1974 15.2502 16.9985 15.2502Z" fill="#0F0F0F"/>
</svg>
