<svg width="32" height="32" viewBox="0 0 32 32" fill="none" xmlns="http://www.w3.org/2000/svg">
<path d="M24.9995 5.50043H6.99951C5.80644 5.50173 4.6626 5.97626 3.81897 6.81989C2.97534 7.66352 2.50081 8.80736 2.49951 10.0004V22.0004C2.50081 23.1935 2.97533 24.3373 3.81897 25.181C4.6626 26.0246 5.80644 26.4991 6.99951 26.5004H24.9995C26.1926 26.4991 27.3364 26.0246 28.1801 25.181C29.0237 24.3373 29.4982 23.1935 29.4995 22.0004V10.0004C29.4982 8.80736 29.0237 7.66352 28.18 6.81989C27.3364 5.97626 26.1926 5.50174 24.9995 5.50043ZM28.4995 22.0004C28.4984 22.9283 28.1293 23.8179 27.4731 24.4741C26.817 25.1302 25.9274 25.4993 24.9995 25.5004H6.99951C6.0716 25.4993 5.18201 25.1302 4.52588 24.4741C3.86974 23.8179 3.50063 22.9283 3.49951 22.0004V10.0004C3.50063 9.07252 3.86974 8.18293 4.52588 7.5268C5.18201 6.87066 6.0716 6.50155 6.99951 6.50043H24.9995C25.9274 6.50155 26.817 6.87067 27.4731 7.5268C28.1293 8.18293 28.4984 9.07252 28.4995 10.0004V22.0004Z" fill="#0F0F0F"/>
<path d="M16.9995 9.50043H14.9995C14.8669 9.50043 14.7397 9.55311 14.646 9.64688C14.5522 9.74064 14.4995 9.86782 14.4995 10.0004C14.4995 10.133 14.5522 10.2602 14.646 10.354C14.7397 10.4478 14.8669 10.5004 14.9995 10.5004H16.9995C17.1321 10.5004 17.2593 10.4478 17.3531 10.354C17.4468 10.2602 17.4995 10.133 17.4995 10.0004C17.4995 9.86782 17.4468 9.74064 17.3531 9.64688C17.2593 9.55311 17.1321 9.50043 16.9995 9.50043Z" fill="#0F0F0F"/>
<path d="M24.9995 21.5004H21.0239C20.8913 21.5004 20.7641 21.5531 20.6704 21.6469C20.5766 21.7406 20.5239 21.8678 20.5239 22.0004C20.5239 22.133 20.5766 22.2602 20.6704 22.354C20.7641 22.4478 20.8913 22.5004 21.0239 22.5004H24.9995C25.1321 22.5004 25.2593 22.4478 25.3531 22.354C25.4468 22.2602 25.4995 22.133 25.4995 22.0004C25.4995 21.8678 25.4468 21.7406 25.3531 21.6469C25.2593 21.5531 25.1321 21.5004 24.9995 21.5004Z" fill="#0F0F0F"/>
<path d="M15.9998 22.7836C16.414 22.7836 16.7498 22.4478 16.7498 22.0336C16.7498 21.6194 16.414 21.2836 15.9998 21.2836C15.5856 21.2836 15.2498 21.6194 15.2498 22.0336C15.2498 22.4478 15.5856 22.7836 15.9998 22.7836Z" fill="#0F0F0F"/>
</svg>
