<svg width="32" height="32" viewBox="0 0 32 32" fill="none" xmlns="http://www.w3.org/2000/svg">
<path d="M23 5.499H22.5V3C22.5 2.86739 22.4473 2.74021 22.3536 2.64645C22.2598 2.55268 22.1326 2.5 22 2.5C21.8674 2.5 21.7402 2.55268 21.6464 2.64645C21.5527 2.74021 21.5 2.86739 21.5 3V5.499H10.5V3C10.5 2.86739 10.4473 2.74021 10.3536 2.64645C10.2598 2.55268 10.1326 2.5 10 2.5C9.86739 2.5 9.74021 2.55268 9.64645 2.64645C9.55268 2.74021 9.5 2.86739 9.5 3V5.499H9C7.80693 5.5003 6.66309 5.97483 5.81946 6.81846C4.97583 7.66209 4.5013 8.80593 4.5 9.999V23.999C4.5013 25.1921 4.97582 26.3359 5.81946 27.1795C6.66309 28.0232 7.80692 28.4977 9 28.499H23C24.1931 28.4977 25.3369 28.0232 26.1805 27.1795C27.0242 26.3359 27.4987 25.1921 27.5 23.999V9.999C27.4987 8.80593 27.0242 7.66209 26.1805 6.81846C25.3369 5.97483 24.1931 5.5003 23 5.499ZM9 6.499H23C23.9279 6.50012 24.8175 6.86923 25.4736 7.52537C26.1298 8.1815 26.4989 9.07109 26.5 9.999V11.5088C26.4849 11.5074 26.472 11.5 26.4565 11.5H5.5V9.99898C5.50113 9.07107 5.87024 8.18149 6.52637 7.52536C7.18251 6.86923 8.07209 6.50012 9 6.499ZM23 27.499H9C8.07209 27.4979 7.1825 27.1288 6.52637 26.4726C5.87023 25.8165 5.50112 24.9269 5.5 23.999V12.5H26.4565C26.472 12.5 26.4849 12.4925 26.5 12.4912V23.999C26.4989 24.9269 26.1298 25.8165 25.4736 26.4726C24.8175 27.1288 23.9279 27.4979 23 27.499Z" fill="#0F0F0F"/>
</svg>
