<svg width="32" height="32" viewBox="0 0 32 32" fill="none" xmlns="http://www.w3.org/2000/svg">
<path d="M20.7398 7L17.5884 10.1443C17.2123 10.5195 17.001 11.0289 17.001 11.5602V14.0002C17.001 15.1047 17.8964 16.0002 19.001 16.0002H21.4259C21.9564 16.0002 22.4651 15.7894 22.8402 15.4143L29.1066 9.14695C29.6698 9.95605 30 10.9395 30 12V24C30 26.7614 27.7614 29 25 29H7C4.23858 29 2 26.7614 2 24V12C2 9.23858 4.23858 7 7 7H20.7398Z" fill="#0F0F0F"/>
<path d="M27.298 3.5C26.7156 3.5 26.156 3.72675 25.7379 4.1322L18.6478 11.2062C18.5538 11.3 18.501 11.4273 18.501 11.5602V14.0002C18.501 14.2763 18.7248 14.5002 19.001 14.5002H21.4259C21.5585 14.5002 21.6857 14.4475 21.7795 14.3537L28.8635 7.26873L28.8688 7.26324C29.2743 6.84516 29.5011 6.28562 29.5011 5.70316C29.5011 5.12069 29.2743 4.56116 28.8688 4.14307L28.858 4.1322C28.4399 3.72677 27.8804 3.5 27.298 3.5Z" fill="#0F0F0F"/>
</svg>
