<svg width="32" height="32" viewBox="0 0 32 32" fill="none" xmlns="http://www.w3.org/2000/svg">
<path fill-rule="evenodd" clip-rule="evenodd" d="M16.3873 7.12868C15.2157 8.30026 15.2157 10.1997 16.3873 11.3713L20.6299 15.614C21.8015 16.7855 23.701 16.7855 24.8726 15.614L29.1152 11.3713C30.2868 10.1998 30.2868 8.30026 29.1152 7.12868L24.8726 2.88604C23.701 1.71447 21.8015 1.71447 20.6299 2.88604L16.3873 7.12868ZM17.8015 9.95711C17.411 9.56659 17.411 8.93342 17.8015 8.5429L22.0441 4.30026C22.4347 3.90973 23.0678 3.90973 23.4584 4.30026L27.701 8.5429C28.0915 8.93342 28.0915 9.56659 27.701 9.95711L23.4583 14.1997C23.0678 14.5903 22.4347 14.5903 22.0441 14.1997L17.8015 9.95711Z" fill="#07120D"/>
<path fill-rule="evenodd" clip-rule="evenodd" d="M5 3C3.34315 3 2 4.34315 2 6V12C2 13.6569 3.34315 15 5 15H11C12.6569 15 14 13.6569 14 12V6C14 4.34315 12.6569 3 11 3H5ZM4 6C4 5.44772 4.44772 5 5 5H11C11.5523 5 12 5.44772 12 6V12C12 12.5523 11.5523 13 11 13H5C4.44772 13 4 12.5523 4 12V6Z" fill="#07120D"/>
<path fill-rule="evenodd" clip-rule="evenodd" d="M5 18C3.34315 18 2 19.3431 2 21V27C2 28.6569 3.34315 30 5 30H11C12.6569 30 14 28.6569 14 27V21C14 19.3431 12.6569 18 11 18H5ZM4 21C4 20.4477 4.44772 20 5 20H11C11.5523 20 12 20.4477 12 21V27C12 27.5523 11.5523 28 11 28H5C4.44772 28 4 27.5523 4 27V21Z" fill="#07120D"/>
<path fill-rule="evenodd" clip-rule="evenodd" d="M17 21C17 19.3431 18.3431 18 20 18H26C27.6569 18 29 19.3431 29 21V27C29 28.6569 27.6569 30 26 30H20C18.3431 30 17 28.6569 17 27V21ZM20 20C19.4477 20 19 20.4477 19 21V27C19 27.5523 19.4477 28 20 28H26C26.5523 28 27 27.5523 27 27V21C27 20.4477 26.5523 20 26 20H20Z" fill="#07120D"/>
</svg>
