<svg width="32" height="32" viewBox="0 0 32 32" fill="none" xmlns="http://www.w3.org/2000/svg">
<path d="M16.0127 21.1201C16.5205 21.1201 16.876 20.7773 16.8887 20.2441L16.9648 5.30176C16.9648 4.74316 16.5332 4.375 16 4.375C15.4668 4.375 15.0352 4.74316 15.0352 5.30176C15.0732 10.2783 15.0986 15.2676 15.1367 20.2441C15.1367 20.7773 15.4922 21.1201 16.0127 21.1201ZM3.8252 14.6201C4.04102 14.8486 4.3584 14.8359 4.57422 14.6074C6.97363 12.0684 10.0205 10.4814 13.4482 9.96094L13.4229 6.49512C8.85254 7.14258 4.6377 9.41504 2.2002 12.3477C2.03516 12.5508 2.04785 12.8047 2.23828 13.0078L3.8252 14.6201ZM27.4512 14.6201C27.6543 14.8232 27.959 14.8232 28.2002 14.5693L29.7617 13.0078C29.9648 12.8047 29.9648 12.5508 29.7998 12.3477C27.3623 9.42773 23.1475 7.14258 18.5771 6.50781L18.5518 9.97363C21.9668 10.4941 25.0391 12.0938 27.4512 14.6201ZM8.90332 19.7236C9.13184 19.9521 9.42383 19.9268 9.65234 19.6729C10.6299 18.6064 12.001 17.7559 13.499 17.2988L13.4736 13.7061C10.7949 14.252 8.47168 15.6104 7.0498 17.2988C6.89746 17.4893 6.91016 17.7305 7.10059 17.9209L8.90332 19.7236ZM22.3604 19.6982C22.5889 19.9395 22.8682 19.9268 23.1348 19.6729L24.8994 17.9209C25.0898 17.7432 25.1025 17.4893 24.9502 17.2988C23.541 15.5977 21.2051 14.2393 18.5391 13.7061L18.5137 17.3115C20.0117 17.7812 21.3828 18.6445 22.3604 19.6982ZM16 26.5791C16.9648 26.5791 17.7393 25.792 17.7393 24.8398C17.7393 23.875 16.9648 23.0879 16 23.0879C15.0479 23.0879 14.248 23.8623 14.248 24.8398C14.248 25.792 15.0479 26.5791 16 26.5791Z" fill="black"/>
</svg>
