<svg width="32" height="32" viewBox="0 0 32 32" fill="none" xmlns="http://www.w3.org/2000/svg">
<path d="M15.2979 23.808C15.158 23.9479 15.0628 24.126 15.0242 24.32C14.9856 24.514 15.0054 24.7151 15.0811 24.8978C15.1568 25.0805 15.285 25.2367 15.4494 25.3466C15.6139 25.4564 15.8072 25.5151 16.005 25.5151C16.2028 25.5151 16.3961 25.4564 16.5605 25.3466C16.725 25.2367 16.8532 25.0805 16.9289 24.8978C17.0045 24.7151 17.0244 24.514 16.9858 24.32C16.9472 24.126 16.852 23.9479 16.7121 23.808C16.6192 23.7151 16.509 23.6415 16.3877 23.5912C16.2663 23.541 16.1363 23.5151 16.005 23.5151C15.8737 23.5151 15.7436 23.541 15.6223 23.5912C15.501 23.6415 15.3907 23.7151 15.2979 23.808Z" fill="#0F0F0F"/>
<path d="M11.9522 20.1363C11.9045 20.182 11.8663 20.2368 11.8399 20.2973C11.8134 20.3579 11.7992 20.4231 11.7982 20.4892C11.7971 20.5553 11.8091 20.621 11.8336 20.6824C11.858 20.7438 11.8944 20.7997 11.9407 20.847C11.9869 20.8942 12.042 20.9319 12.1029 20.9577C12.1637 20.9835 12.2291 20.997 12.2952 20.9974C12.3613 20.9977 12.4268 20.985 12.4879 20.9599C12.5491 20.9348 12.6047 20.8979 12.6514 20.8511C13.5501 19.9831 14.7507 19.498 16.0001 19.498C17.2495 19.498 18.4501 19.9831 19.3487 20.8511C19.4422 20.9424 19.5676 20.9936 19.6983 20.9937C19.7977 20.9937 19.8948 20.9641 19.9772 20.9087C20.0597 20.8532 20.1238 20.7745 20.1613 20.6825C20.1988 20.5905 20.208 20.4894 20.1878 20.3921C20.1677 20.2948 20.1189 20.2058 20.0479 20.1363C18.9618 19.0867 17.5105 18.5001 16.0001 18.5001C14.4897 18.5001 13.0383 19.0867 11.9522 20.1363Z" fill="#0F0F0F"/>
</svg>
