<svg width="32" height="32" viewBox="0 0 32 32" fill="none" xmlns="http://www.w3.org/2000/svg">
<path d="M27.9971 15.497H16.5V5.207L19.6465 8.35349C19.6928 8.40069 19.7479 8.43824 19.8088 8.46399C19.8696 8.48974 19.935 8.50317 20.0011 8.5035C20.0671 8.50384 20.1326 8.49107 20.1937 8.46594C20.2548 8.4408 20.3104 8.4038 20.3571 8.35708C20.4038 8.31035 20.4408 8.25483 20.466 8.19372C20.4911 8.1326 20.5039 8.06711 20.5035 8.00104C20.5032 7.93496 20.4898 7.8696 20.464 7.80874C20.4383 7.74789 20.4007 7.69274 20.3535 7.64649L16.3541 3.64706C16.2601 3.5533 16.1328 3.50065 16 3.50065C15.8673 3.50065 15.7399 3.5533 15.6459 3.64706L11.6465 7.64645C11.5543 7.74053 11.503 7.86719 11.5036 7.9989C11.5043 8.13062 11.5569 8.25676 11.6501 8.3499C11.7432 8.44304 11.8693 8.49566 12.0011 8.49632C12.1328 8.49699 12.2594 8.44564 12.3535 8.35345L15.5 5.207V15.497H4.00293C3.87032 15.497 3.74314 15.5497 3.64938 15.6434C3.55561 15.7372 3.50293 15.8644 3.50293 15.997C3.50293 16.1296 3.55561 16.2568 3.64938 16.3506C3.74314 16.4443 3.87032 16.497 4.00293 16.497H15.5V26.7929L12.3535 23.6464C12.2595 23.5542 12.1328 23.5029 12.0011 23.5035C11.8694 23.5042 11.7432 23.5568 11.6501 23.65C11.557 23.7431 11.5043 23.8692 11.5037 24.001C11.503 24.1327 11.5543 24.2593 11.6465 24.3534L15.6465 28.3534C15.693 28.3999 15.7481 28.4367 15.8087 28.4618C15.8694 28.4869 15.9344 28.4999 16 28.4999C16.0657 28.4999 16.1307 28.4869 16.1914 28.4618C16.252 28.4367 16.3071 28.3999 16.3535 28.3534L20.3535 24.3534C20.4457 24.2593 20.4971 24.1327 20.4964 24.001C20.4957 23.8692 20.4431 23.7431 20.35 23.65C20.2568 23.5568 20.1307 23.5042 19.999 23.5035C19.8673 23.5029 19.7406 23.5542 19.6465 23.6464L16.5 26.7929V16.497H27.9971C28.1297 16.497 28.2569 16.4443 28.3507 16.3506C28.4444 16.2568 28.4971 16.1296 28.4971 15.997C28.4971 15.8644 28.4444 15.7372 28.3507 15.6434C28.2569 15.5497 28.1297 15.497 27.9971 15.497Z" fill="#0F0F0F"/>
</svg>
