<svg width="32" height="32" viewBox="0 0 32 32" fill="none" xmlns="http://www.w3.org/2000/svg">
<path d="M13 4C8.02944 4 4 8.02944 4 13C4 17.9706 8.02944 22 13 22C17.9706 22 22 17.9706 22 13C22 8.02944 17.9706 4 13 4ZM2 13C2 6.92487 6.92487 2 13 2C19.0751 2 24 6.92487 24 13C24 15.6775 23.0434 18.1316 21.4533 20.0391L29.7071 28.2929C30.0976 28.6834 30.0976 29.3166 29.7071 29.7071C29.3166 30.0976 28.6834 30.0976 28.2929 29.7071L20.0391 21.4533C18.1316 23.0434 15.6775 24 13 24C6.92487 24 2 19.0751 2 13ZM13 8C13.5523 8 14 8.44772 14 9V12H17C17.5523 12 18 12.4477 18 13C18 13.5523 17.5523 14 17 14H14V17C14 17.5523 13.5523 18 13 18C12.4477 18 12 17.5523 12 17V14H9C8.44772 14 8 13.5523 8 13C8 12.4477 8.44772 12 9 12H12V9C12 8.44772 12.4477 8 13 8Z" fill="#0F0F0F"/>
</svg>
