<svg width="32" height="32" viewBox="0 0 32 32" fill="none" xmlns="http://www.w3.org/2000/svg">
<path d="M29.5302 28.4695L25.5189 24.4582C27.7256 21.9757 28.878 18.731 28.7317 15.4128C28.5853 12.0946 27.1517 8.96394 24.7351 6.68532C22.3185 4.40671 19.1091 3.15945 15.788 3.20824C12.4669 3.25704 9.29548 4.59805 6.94685 6.94668C4.59821 9.29531 3.25721 12.4667 3.20841 15.7878C3.15962 19.1089 4.40687 22.3183 6.68549 24.7349C8.96411 27.1516 12.0947 28.5852 15.413 28.7315C18.7312 28.8779 21.9759 27.7254 24.4584 25.5188L28.4696 29.53C28.5392 29.5999 28.6219 29.6553 28.7129 29.6932C28.804 29.7311 28.9016 29.7506 29.0002 29.7507C29.0988 29.7508 29.1965 29.7314 29.2876 29.6937C29.3787 29.6561 29.4615 29.6008 29.5312 29.531C29.6009 29.4613 29.6562 29.3785 29.6939 29.2874C29.7316 29.1963 29.751 29.0986 29.7509 29C29.7508 28.9014 29.7312 28.8038 29.6934 28.7128C29.6555 28.6217 29.6 28.5391 29.5302 28.4695ZM8.04481 23.9548C6.47144 22.3815 5.39997 20.3769 4.96588 18.1945C4.53179 16.0122 4.75458 13.7502 5.60608 11.6945C6.45758 9.63879 7.89954 7.88175 9.74962 6.64556C11.5997 5.40938 13.7748 4.74956 15.9999 4.74956C18.225 4.74956 20.4001 5.40938 22.2502 6.64556C24.1002 7.88175 25.5422 9.63879 26.3937 11.6945C27.2452 13.7502 27.468 16.0122 27.0339 18.1945C26.5998 20.3769 25.5283 22.3815 23.955 23.9548C21.8436 26.0616 18.9826 27.2449 15.9999 27.2449C13.0171 27.2449 10.1562 26.0616 8.04481 23.9548Z" fill="#0F0F0F"/>
<path d="M19.9999 15.2497H16.7499V11.9997C16.7499 11.8008 16.6709 11.6101 16.5302 11.4694C16.3896 11.3288 16.1988 11.2497 15.9999 11.2497C15.801 11.2497 15.6102 11.3288 15.4696 11.4694C15.3289 11.6101 15.2499 11.8008 15.2499 11.9997V15.2497H11.9999C11.801 15.2497 11.6102 15.3288 11.4696 15.4694C11.3289 15.6101 11.2499 15.8008 11.2499 15.9997C11.2499 16.1987 11.3289 16.3894 11.4696 16.5301C11.6102 16.6707 11.801 16.7497 11.9999 16.7497H15.2499V19.9997C15.2499 20.1987 15.3289 20.3894 15.4696 20.5301C15.6102 20.6707 15.801 20.7497 15.9999 20.7497C16.1988 20.7497 16.3896 20.6707 16.5302 20.5301C16.6709 20.3894 16.7499 20.1987 16.7499 19.9997V16.7497H19.9999C20.1988 16.7497 20.3896 16.6707 20.5302 16.5301C20.6709 16.3894 20.7499 16.1987 20.7499 15.9997C20.7499 15.8008 20.6709 15.6101 20.5302 15.4694C20.3896 15.3288 20.1988 15.2497 19.9999 15.2497Z" fill="#0F0F0F"/>
</svg>
