<svg width="32" height="32" viewBox="0 0 32 32" fill="none" xmlns="http://www.w3.org/2000/svg">
<path d="M13.6768 23.3291C15.8477 23.3291 17.8408 22.6055 19.4531 21.3867L25.915 27.8613C26.1309 28.0771 26.4355 28.2041 26.7529 28.2041C27.4639 28.2041 27.9336 27.6582 27.9336 26.998C27.9336 26.6934 27.832 26.3887 27.6035 26.1602L21.167 19.7236C22.5 18.0732 23.2871 15.9912 23.2871 13.7188C23.2871 8.4375 18.9707 4.1084 13.6768 4.1084C8.38281 4.1084 4.06641 8.4375 4.06641 13.7188C4.06641 19.0127 8.38281 23.3291 13.6768 23.3291ZM13.6768 21.7168C9.28418 21.7168 5.67871 18.1113 5.67871 13.7188C5.67871 9.33887 9.28418 5.7207 13.6768 5.7207C18.0693 5.7207 21.6748 9.33887 21.6748 13.7188C21.6748 18.1113 18.0693 21.7168 13.6768 21.7168ZM14.7178 17.4512V14.6836H17.2441C17.7646 14.6836 18.1963 14.2266 18.1963 13.7188C18.1963 13.2236 17.7646 12.7666 17.2441 12.7666H14.7178V9.98633C14.7178 9.38965 14.21 9.02148 13.6768 9.02148C13.1436 9.02148 12.6357 9.38965 12.6357 9.98633V12.7666H10.1094C9.58887 12.7666 9.15723 13.2236 9.15723 13.7188C9.15723 14.2266 9.58887 14.6836 10.1094 14.6836H12.6357V17.4512C12.6357 18.0479 13.1436 18.4287 13.6768 18.4287C14.21 18.4287 14.7178 18.0479 14.7178 17.4512Z" fill="black"/>
</svg>
