<svg width="32" height="32" viewBox="0 0 32 32" fill="none" xmlns="http://www.w3.org/2000/svg">
<path d="M23.9996 10.2497H7.99863C7.75248 10.2497 7.50911 10.3017 7.2844 10.4021C7.05968 10.5026 6.85868 10.6493 6.6945 10.8327C6.53033 11.016 6.40667 11.232 6.33161 11.4664C6.25655 11.7008 6.23177 11.9484 6.25889 12.1931L7.74033 25.5251C7.86863 26.6872 8.42142 27.761 9.29269 28.5406C10.164 29.3203 11.2924 29.7508 12.4615 29.7497H19.5367C20.7059 29.7508 21.8343 29.3203 22.7055 28.5406C23.5768 27.761 24.1296 26.6872 24.2579 25.5251L25.7389 12.1931C25.766 11.9485 25.7412 11.7009 25.6662 11.4665C25.5912 11.2321 25.4676 11.0162 25.3034 10.8328C25.1393 10.6495 24.9384 10.5027 24.7137 10.4023C24.4891 10.3018 24.2457 10.2498 23.9996 10.2497ZM22.7667 25.3591C22.6791 26.1543 22.301 26.8891 21.7049 27.4226C21.1088 27.956 20.3367 28.2506 19.5367 28.2497H12.4615C11.6615 28.2506 10.8894 27.956 10.2933 27.4226C9.6972 26.8891 9.31908 26.1543 9.2315 25.3591L7.75006 12.0271C7.74601 11.9922 7.74944 11.9568 7.76013 11.9233C7.77082 11.8898 7.78852 11.8589 7.81206 11.8328C7.8356 11.8067 7.86437 11.7858 7.8965 11.7715C7.92863 11.7572 7.96341 11.7498 7.99858 11.7498H23.9996C24.0347 11.7497 24.0694 11.7571 24.1015 11.7715C24.1336 11.7858 24.1623 11.8067 24.1857 11.8329C24.2091 11.8591 24.2267 11.8899 24.2374 11.9234C24.248 11.9569 24.2515 11.9922 24.2476 12.0271L22.7667 25.3591Z" fill="#0F0F0F"/>
<path d="M7.0001 7.74973H25.0001C25.199 7.74973 25.3898 7.67071 25.5304 7.53006C25.6711 7.38941 25.7501 7.19864 25.7501 6.99973C25.7501 6.80082 25.6711 6.61005 25.5304 6.4694C25.3898 6.32875 25.199 6.24973 25.0001 6.24973H20.7501V4.99973C20.7494 4.27061 20.4594 3.57157 19.9438 3.056C19.4283 2.54044 18.7292 2.25047 18.0001 2.24973H14.0001C13.271 2.25047 12.5719 2.54044 12.0564 3.056C11.5408 3.57157 11.2508 4.27061 11.2501 4.99973V6.24973H7.0001C6.80118 6.24973 6.61042 6.32875 6.46977 6.4694C6.32911 6.61005 6.2501 6.80082 6.2501 6.99973C6.2501 7.19864 6.32911 7.38941 6.46977 7.53006C6.61042 7.67071 6.80118 7.74973 7.0001 7.74973ZM12.7501 4.99973C12.7504 4.6683 12.8822 4.35054 13.1166 4.11618C13.3509 3.88183 13.6687 3.75004 14.0001 3.74973H18.0001C18.3315 3.75004 18.6493 3.88183 18.8836 4.11618C19.118 4.35054 19.2498 4.6683 19.2501 4.99973V6.24973H12.7501V4.99973Z" fill="#0F0F0F"/>
</svg>
