<svg width="32" height="32" viewBox="0 0 32 32" fill="none" xmlns="http://www.w3.org/2000/svg">
<path d="M13.5 2.5C14.0523 2.5 14.5 2.91574 14.5 3.42857V27.5714C14.5 28.0843 14.0523 28.5 13.5 28.5C12.9477 28.5 12.5 28.0843 12.5 27.5714V3.42857C12.5 2.91574 12.9477 2.5 13.5 2.5Z" fill="#0F0F0F"/>
<path d="M27 23.5C27 22.9477 26.5523 22.5 26 22.5C25.4477 22.5 25 22.9477 25 23.5V25H23.5C22.9477 25 22.5 25.4477 22.5 26C22.5 26.5523 22.9477 27 23.5 27H25V28.5C25 29.0523 25.4477 29.5 26 29.5C26.5523 29.5 27 29.0523 27 28.5V27H28.5C29.0523 27 29.5 26.5523 29.5 26C29.5 25.4477 29.0523 25 28.5 25H27V23.5Z" fill="#0F0F0F"/>
<path d="M9.5 7.5C9.5 6.94772 9.05228 6.5 8.5 6.5C7.94772 6.5 7.5 6.94772 7.5 7.5V23.5C7.5 24.0523 7.94772 24.5 8.5 24.5C9.05228 24.5 9.5 24.0523 9.5 23.5V7.5Z" fill="#0F0F0F"/>
<path d="M3.5 12.5C4.05228 12.5 4.5 12.9477 4.5 13.5V17.5C4.5 18.0523 4.05228 18.5 3.5 18.5C2.94772 18.5 2.5 18.0523 2.5 17.5V13.5C2.5 12.9477 2.94772 12.5 3.5 12.5Z" fill="#0F0F0F"/>
<path d="M19.5 9.5C19.5 8.94772 19.0523 8.5 18.5 8.5C17.9477 8.5 17.5 8.94772 17.5 9.5V21.5C17.5 22.0523 17.9477 22.5 18.5 22.5C19.0523 22.5 19.5 22.0523 19.5 21.5V9.5Z" fill="#0F0F0F"/>
<path d="M23.5 10.5C24.0523 10.5 24.5 10.9477 24.5 11.5V19.5C24.5 20.0523 24.0523 20.5 23.5 20.5C22.9477 20.5 22.5 20.0523 22.5 19.5V11.5C22.5 10.9477 22.9477 10.5 23.5 10.5Z" fill="#0F0F0F"/>
<path d="M29.5 13.5C29.5 12.9477 29.0523 12.5 28.5 12.5C27.9477 12.5 27.5 12.9477 27.5 13.5V17.5C27.5 18.0523 27.9477 18.5 28.5 18.5C29.0523 18.5 29.5 18.0523 29.5 17.5V13.5Z" fill="#0F0F0F"/>
</svg>
