<svg width="32" height="32" viewBox="0 0 32 32" fill="none" xmlns="http://www.w3.org/2000/svg">
<path d="M28 25H4C3.45 25 3 25.45 3 26C3 26.55 3.45 27 4 27H28C28.55 27 29 26.55 29 26C29 25.45 28.55 25 28 25Z" fill="#010101"/>
<path d="M14 11H8C7.44772 11 7 11.4477 7 12V22C7 22.5523 7.44772 23 8 23H14C14.5523 23 15 22.5523 15 22V12C15 11.4477 14.5523 11 14 11Z" fill="#010101"/>
<path d="M24 6H18C17.4477 6 17 6.44772 17 7V22C17 22.5523 17.4477 23 18 23H24C24.5523 23 25 22.5523 25 22V7C25 6.44772 24.5523 6 24 6Z" fill="#010101"/>
</svg>
