<svg width="32" height="32" viewBox="0 0 32 32" fill="none" xmlns="http://www.w3.org/2000/svg">
<path d="M27 28.5C27.28 28.5 27.5 28.28 27.5 28V4C27.5 3.72 27.28 3.5 27 3.5C26.72 3.5 26.5 3.72 26.5 4V28C26.5 28.28 26.72 28.5 27 28.5Z" fill="#010101"/>
<path d="M23 17.5H13C12.72 17.5 12.5 17.72 12.5 18V24C12.5 24.28 12.72 24.5 13 24.5H23C23.28 24.5 23.5 24.28 23.5 24V18C23.5 17.72 23.28 17.5 23 17.5ZM22.5 23.5H13.5V18.5H22.5V23.5Z" fill="#010101"/>
<path d="M8 14.5H23C23.28 14.5 23.5 14.28 23.5 14V8C23.5 7.72 23.28 7.5 23 7.5H8C7.72 7.5 7.5 7.72 7.5 8V14C7.5 14.28 7.72 14.5 8 14.5ZM8.5 8.5H22.5V13.5H8.5V8.5Z" fill="#010101"/>
</svg>
