<svg width="32" height="32" viewBox="0 0 32 32" fill="none" xmlns="http://www.w3.org/2000/svg">
<path d="M12 17.25H6C5.27 17.25 4.57 17.54 4.06 18.06C3.54 18.57 3.25 19.27 3.25 20V26C3.25 26.73 3.54 27.43 4.06 27.94C4.58 28.46 5.27 28.75 6 28.75H12C12.73 28.75 13.43 28.46 13.94 27.94C14.46 27.42 14.75 26.73 14.75 26V20C14.75 19.27 14.46 18.57 13.94 18.06C13.43 17.54 12.73 17.25 12 17.25ZM13.25 26C13.25 26.33 13.12 26.65 12.88 26.88C12.65 27.12 12.33 27.25 12 27.25H6C5.67 27.25 5.35 27.12 5.12 26.88C4.88 26.65 4.75 26.33 4.75 26V20C4.75 19.67 4.88 19.35 5.12 19.12C5.35 18.89 5.67 18.75 6 18.75H12C12.33 18.75 12.65 18.88 12.88 19.12C13.12 19.35 13.25 19.67 13.25 20V26Z" fill="#0F0F0F"/>
<path d="M26 17.25H20C19.27 17.25 18.57 17.54 18.06 18.06C17.54 18.57 17.25 19.27 17.25 20V26C17.25 26.73 17.54 27.43 18.06 27.94C18.58 28.46 19.27 28.75 20 28.75H26C26.73 28.75 27.43 28.46 27.94 27.94C28.46 27.42 28.75 26.73 28.75 26V20C28.75 19.27 28.46 18.57 27.94 18.06C27.43 17.54 26.73 17.25 26 17.25ZM27.25 26C27.25 26.33 27.12 26.65 26.88 26.88C26.65 27.12 26.33 27.25 26 27.25H20C19.67 27.25 19.35 27.12 19.12 26.88C18.89 26.65 18.75 26.33 18.75 26V20C18.75 19.67 18.88 19.35 19.12 19.12C19.35 18.89 19.67 18.75 20 18.75H26C26.33 18.75 26.65 18.88 26.88 19.12C27.12 19.35 27.25 19.67 27.25 20V26Z" fill="#0F0F0F"/>
<path d="M12 3.25H6C5.27 3.25 4.57 3.54 4.06 4.06C3.54 4.57 3.25 5.27 3.25 6V12C3.25 12.73 3.54 13.43 4.06 13.94C4.58 14.46 5.27 14.75 6 14.75H12C12.73 14.75 13.43 14.46 13.94 13.94C14.46 13.42 14.75 12.73 14.75 12V6C14.75 5.27 14.46 4.57 13.94 4.06C13.43 3.54 12.73 3.25 12 3.25ZM13.25 12C13.25 12.33 13.12 12.65 12.88 12.88C12.65 13.12 12.33 13.25 12 13.25H6C5.67 13.25 5.35 13.12 5.12 12.88C4.88 12.65 4.75 12.33 4.75 12V6C4.75 5.67 4.88 5.35 5.12 5.12C5.35 4.88 5.67 4.75 6 4.75H12C12.33 4.75 12.65 4.88 12.88 5.12C13.12 5.35 13.25 5.67 13.25 6V12Z" fill="#0F0F0F"/>
<path d="M18.75 9.75H22.25V13.25C22.25 13.66 22.59 14 23 14C23.41 14 23.75 13.66 23.75 13.25V9.75H27.25C27.66 9.75 28 9.41 28 9C28 8.59 27.66 8.25 27.25 8.25H23.75V4.75C23.75 4.34 23.41 4 23 4C22.59 4 22.25 4.34 22.25 4.75V8.25H18.75C18.34 8.25 18 8.59 18 9C18 9.41 18.34 9.75 18.75 9.75Z" fill="#0F0F0F"/>
</svg>
