<svg width="32" height="32" viewBox="0 0 32 32" fill="none" xmlns="http://www.w3.org/2000/svg">
<path d="M24.9995 23.7105C24.9338 23.7105 24.8688 23.7234 24.8081 23.7485C24.7474 23.7736 24.6923 23.8104 24.6459 23.8569C24.5994 23.9033 24.5626 23.9585 24.5375 24.0191C24.5124 24.0798 24.4995 24.1448 24.4995 24.2105V24.9996C24.4984 25.9275 24.1293 26.8171 23.4731 27.4732C22.817 28.1293 21.9274 28.4985 20.9995 28.4996H10.9995C10.0716 28.4985 9.18201 28.1293 8.52588 27.4732C7.86974 26.8171 7.50063 25.9275 7.49951 24.9996V6.99958C7.50063 6.07167 7.86974 5.18208 8.52588 4.52595C9.18201 3.86981 10.0716 3.5007 10.9995 3.49958H20.9995C21.9274 3.5007 22.817 3.86981 23.4731 4.52595C24.1293 5.18208 24.4984 6.07167 24.4995 6.99958V7.70466C24.4995 7.83727 24.5522 7.96445 24.646 8.05821C24.7397 8.15198 24.8669 8.20466 24.9995 8.20466C25.1321 8.20466 25.2593 8.15198 25.3531 8.05821C25.4468 7.96445 25.4995 7.83727 25.4995 7.70466V6.99958C25.4982 5.80651 25.0237 4.66267 24.1801 3.81904C23.3364 2.97541 22.1926 2.50088 20.9995 2.49958H10.9995C9.80644 2.50088 8.6626 2.9754 7.81897 3.81903C6.97533 4.66267 6.50081 5.8065 6.49951 6.99958V24.9996C6.50081 26.1927 6.97534 27.3365 7.81897 28.1801C8.6626 29.0238 9.80644 29.4983 10.9995 29.4996H20.9995C22.1926 29.4983 23.3364 29.0237 24.1801 28.1801C25.0237 27.3365 25.4982 26.1927 25.4995 24.9996V24.2105C25.4995 24.1448 25.4866 24.0798 25.4615 24.0191C25.4364 23.9585 25.3996 23.9033 25.3531 23.8569C25.3067 23.8104 25.2516 23.7736 25.1909 23.7485C25.1302 23.7234 25.0652 23.7105 24.9995 23.7105Z" fill="#0F0F0F"/>
<path d="M29.354 15.6461L25.354 11.6461C25.2599 11.5539 25.1333 11.5025 25.0015 11.5032C24.8698 11.5039 24.7437 11.5565 24.6506 11.6496C24.5574 11.7428 24.5048 11.8689 24.5041 12.0006C24.5035 12.1323 24.5548 12.259 24.647 12.3531L27.7935 15.4996H20.9995C20.8669 15.4996 20.7397 15.5522 20.646 15.646C20.5522 15.7398 20.4995 15.8669 20.4995 15.9995C20.4995 16.1322 20.5522 16.2593 20.646 16.3531C20.7397 16.4469 20.8669 16.4995 20.9995 16.4995H27.7935L24.647 19.646C24.5998 19.6923 24.5622 19.7474 24.5365 19.8083C24.5107 19.8691 24.4973 19.9345 24.497 20.0006C24.4966 20.0667 24.5094 20.1321 24.5345 20.1933C24.5597 20.2544 24.5967 20.3099 24.6434 20.3566C24.6901 20.4033 24.7456 20.4403 24.8067 20.4655C24.8679 20.4906 24.9333 20.5034 24.9994 20.503C25.0655 20.5027 25.1309 20.4893 25.1917 20.4635C25.2526 20.4378 25.3077 20.4002 25.354 20.353L29.354 16.353C29.4004 16.3066 29.4372 16.2515 29.4624 16.1909C29.4875 16.1302 29.5004 16.0652 29.5004 15.9996C29.5004 15.9339 29.4875 15.8689 29.4624 15.8082C29.4373 15.7476 29.4004 15.6925 29.354 15.6461Z" fill="#0F0F0F"/>
</svg>
