<svg width="32" height="32" viewBox="0 0 32 32" fill="none" xmlns="http://www.w3.org/2000/svg">
<path d="M28.8948 21.553C28.836 21.4355 28.7548 21.3307 28.6555 21.2447C28.5563 21.1586 28.4411 21.0929 28.3165 21.0514C28.1919 21.0099 28.0604 20.9933 27.9293 21.0026C27.7983 21.0119 27.6704 21.0469 27.553 21.1057L16.0001 26.8821L4.44757 21.1057C4.21032 20.9871 3.93566 20.9675 3.68402 21.0514C3.43237 21.1353 3.22435 21.3157 3.10572 21.5529C2.98709 21.7902 2.96756 22.0649 3.05144 22.3165C3.13532 22.5681 3.31572 22.7762 3.55297 22.8948L15.553 28.8948C15.6919 28.9642 15.845 29.0003 16.0003 29.0003C16.1555 29.0003 16.3087 28.9642 16.4476 28.8948L28.4476 22.8948C28.565 22.8361 28.6698 22.7548 28.7559 22.6556C28.8419 22.5563 28.9076 22.4411 28.9491 22.3165C28.9906 22.1919 29.0072 22.0604 28.9979 21.9294C28.9886 21.7983 28.9535 21.6705 28.8948 21.553Z" fill="#0F0F0F"/>
<path d="M28.4479 9.10569L16.4474 3.10569C16.3085 3.03634 16.1554 3.00024 16.0001 3.00024C15.8449 3.00024 15.6918 3.03634 15.5529 3.10569L3.55288 9.10569C3.31563 9.22431 3.13522 9.43232 3.05133 9.68396C3.00979 9.80855 2.99321 9.94011 3.00251 10.0711C3.01182 10.2021 3.04684 10.33 3.10558 10.4475C3.16431 10.565 3.24561 10.6697 3.34483 10.7558C3.44404 10.8418 3.55924 10.9075 3.68384 10.949C3.93547 11.0329 4.21013 11.0134 4.44738 10.8948L16.0002 5.11839L27.5534 10.8948C27.7906 11.0134 28.0653 11.0329 28.3169 10.949C28.4415 10.9075 28.5567 10.8418 28.6559 10.7558C28.7551 10.6697 28.8364 10.565 28.8952 10.4475C28.9539 10.33 28.9889 10.2021 28.9982 10.0711C29.0075 9.94011 28.991 9.80855 28.9494 9.68396C28.9079 9.55936 28.8422 9.44416 28.7562 9.34494C28.6701 9.24572 28.5653 9.16443 28.4479 9.10569Z" fill="#0F0F0F"/>
</svg>
