<svg width="32" height="32" viewBox="0 0 32 32" fill="none" xmlns="http://www.w3.org/2000/svg">
<path fill-rule="evenodd" clip-rule="evenodd" d="M28.25 9C28.25 7.20508 26.7949 5.75 25 5.75L7 5.75C5.20508 5.75 3.75 7.20507 3.75 9L3.75 23C3.75 24.7949 5.20507 26.25 7 26.25H25C26.7949 26.25 28.25 24.7949 28.25 23V9ZM25 4.25C27.6234 4.25 29.75 6.37665 29.75 9V23C29.75 25.6234 27.6234 27.75 25 27.75H7C4.37665 27.75 2.25 25.6234 2.25 23L2.25 9C2.25 6.37665 4.37665 4.25 7 4.25L25 4.25Z" fill="black"/>
<path d="M11.8918 19.9994H13.8418V20.5394C13.8446 20.7502 13.8023 20.9592 13.7178 21.1523C13.6333 21.3455 13.5085 21.5183 13.3518 21.6594C12.9705 22.0072 12.4674 22.1905 11.9518 22.1694C11.6946 22.1749 11.4392 22.1251 11.203 22.0233C10.9668 21.9215 10.7552 21.7701 10.5827 21.5794C10.0781 20.9617 9.82775 20.175 9.88267 19.3794C9.84195 18.6747 10.0239 17.975 10.4027 17.3794C10.5769 17.1363 10.8089 16.9404 11.0778 16.8095C11.3466 16.6786 11.6439 16.6166 11.9427 16.6294C12.3254 16.6159 12.7038 16.7131 13.0327 16.9094C13.2048 17.0188 13.3529 17.1621 13.4681 17.3304C13.5832 17.4988 13.663 17.6888 13.7027 17.8889H14.9635C14.8742 17.2885 14.5639 16.7431 14.0935 16.3596C13.4855 15.872 12.7222 15.62 11.9435 15.6496C11.1029 15.6161 10.282 15.9098 9.65347 16.469C9.27452 16.848 8.98117 17.3039 8.79316 17.8058C8.60514 18.3078 8.52682 18.8442 8.56347 19.379C8.51444 20.344 8.80453 21.2958 9.38347 22.0695C9.6668 22.422 10.0287 22.7033 10.4403 22.8908C10.8518 23.0783 11.3015 23.1669 11.7535 23.1495C12.1826 23.1554 12.6083 23.0719 13.0035 22.9044C13.3586 22.7547 13.6711 22.5191 13.9127 22.2189L14.0934 22.9989H14.9734V19.07H11.8934L11.8918 19.9994Z" fill="#0F0F0F"/>
<path d="M17.5949 15.7992H16.3146V22.9994H17.5949V15.7992Z" fill="#0F0F0F"/>
<path d="M19.015 22.999H20.295V20.009H23.154V19.039H20.295V16.799H23.485V15.799H19.015V22.999Z" fill="#0F0F0F"/>
</svg>
