<svg width="32" height="32" viewBox="0 0 32 32" fill="none" xmlns="http://www.w3.org/2000/svg">
<path d="M24.9995 22.4996H7.5V6.9996C7.50112 6.07169 7.87023 5.1821 8.52637 4.52597C9.1825 3.86983 10.0721 3.50072 11 3.4996H20.9995C21.9274 3.50072 22.817 3.86983 23.4731 4.52597C24.1293 5.1821 24.4984 6.07169 24.4995 6.9996C24.4995 7.13221 24.5522 7.25939 24.646 7.35315C24.7397 7.44692 24.8669 7.4996 24.9995 7.4996C25.1321 7.4996 25.2593 7.44692 25.3531 7.35315C25.4468 7.25939 25.4995 7.13221 25.4995 6.9996C25.4982 5.80652 25.0237 4.66269 24.1801 3.81905C23.3364 2.97542 22.1926 2.5009 20.9995 2.4996H11C9.80692 2.5009 8.66309 2.97542 7.81945 3.81905C6.97582 4.66269 6.5013 5.80652 6.5 6.9996V24.9996C6.5013 26.1927 6.97583 27.3365 7.81946 28.1801C8.66309 29.0238 9.80693 29.4983 11 29.4996H20.9995C22.1926 29.4983 23.3364 29.0238 24.1801 28.1801C25.0237 27.3365 25.4982 26.1927 25.4995 24.9996V22.9996C25.4995 22.9339 25.4866 22.8689 25.4615 22.8082C25.4364 22.7475 25.3996 22.6924 25.3531 22.646C25.3067 22.5995 25.2516 22.5627 25.1909 22.5376C25.1302 22.5125 25.0652 22.4996 24.9995 22.4996ZM24.4995 24.9996C24.4984 25.9275 24.1293 26.8171 23.4731 27.4732C22.817 28.1294 21.9274 28.4985 20.9995 28.4996H11C10.0721 28.4985 9.1825 28.1294 8.52637 27.4732C7.87023 26.8171 7.50112 25.9275 7.5 24.9996V23.4996H24.4995V24.9996Z" fill="#0F0F0F"/>
<path d="M14.9995 26.4996H16.9995C17.1321 26.4996 17.2593 26.4469 17.3531 26.3532C17.4468 26.2594 17.4995 26.1322 17.4995 25.9996C17.4995 25.867 17.4468 25.7398 17.3531 25.646C17.2593 25.5523 17.1321 25.4996 16.9995 25.4996H14.9995C14.8669 25.4996 14.7397 25.5523 14.646 25.646C14.5522 25.7398 14.4995 25.867 14.4995 25.9996C14.4995 26.1322 14.5522 26.2594 14.646 26.3532C14.7397 26.4469 14.8669 26.4996 14.9995 26.4996Z" fill="#0F0F0F"/>
<path d="M29.0005 14.4996H22.2065L25.353 11.3531C25.4452 11.259 25.4965 11.1324 25.4959 11.0007C25.4952 10.8689 25.4426 10.7428 25.3494 10.6497C25.2563 10.5565 25.1302 10.5039 24.9984 10.5032C24.8667 10.5026 24.7401 10.5539 24.646 10.6461L20.646 14.6461C20.5995 14.6925 20.5627 14.7476 20.5376 14.8083C20.5124 14.8689 20.4995 14.934 20.4995 14.9996C20.4995 15.0653 20.5124 15.1303 20.5376 15.1909C20.5627 15.2516 20.5995 15.3067 20.646 15.3531L24.646 19.3531C24.7401 19.4453 24.8667 19.4966 24.9984 19.496C25.1302 19.4953 25.2563 19.4427 25.3494 19.3496C25.4426 19.2564 25.4952 19.1303 25.4959 18.9986C25.4965 18.8668 25.4452 18.7402 25.353 18.6461L22.2065 15.4996H29.0005C29.1332 15.4996 29.2603 15.4469 29.3541 15.3532C29.4479 15.2594 29.5005 15.1322 29.5005 14.9996C29.5005 14.867 29.4479 14.7398 29.3541 14.646C29.2603 14.5523 29.1331 14.4996 29.0005 14.4996Z" fill="#0F0F0F"/>
</svg>
