<svg width="32" height="32" viewBox="0 0 32 32" fill="none" xmlns="http://www.w3.org/2000/svg">
<path d="M26.9999 20.237L20.9914 20.241L22.5374 11.7381L27.0009 11.735C27.1998 11.7349 27.3906 11.6557 27.5311 11.515C27.6717 11.3743 27.7506 11.1834 27.7504 10.9845C27.7503 10.7856 27.6712 10.5949 27.5304 10.4543C27.3897 10.3138 27.1988 10.2349 26.9999 10.235L22.8102 10.238L23.7383 5.13351C23.7735 4.9378 23.7296 4.7361 23.6163 4.57272C23.5029 4.40934 23.3293 4.29765 23.1336 4.26219C22.9379 4.22673 22.7362 4.2704 22.5727 4.38361C22.4092 4.49681 22.2973 4.67029 22.2617 4.86593L21.2847 10.239L12.8088 10.2449L13.7382 5.13347C13.7735 4.93768 13.7297 4.73588 13.6164 4.57237C13.503 4.40887 13.3295 4.29702 13.1337 4.2614C12.9382 4.22853 12.7376 4.27334 12.5747 4.38626C12.4118 4.49919 12.2995 4.6713 12.2617 4.86589L11.2834 10.246L5.99896 10.2497C5.80005 10.2498 5.60934 10.3289 5.46878 10.4697C5.32822 10.6104 5.24933 10.8013 5.24946 11.0002C5.24959 11.1991 5.32874 11.3898 5.46949 11.5304C5.61023 11.6709 5.80105 11.7498 5.99996 11.7497L11.0107 11.7462L9.46483 20.2486L4.99901 20.2516C4.8001 20.2518 4.60939 20.3309 4.46883 20.4717C4.32827 20.6124 4.24938 20.8032 4.24951 21.0021C4.24964 21.201 4.32879 21.3918 4.46954 21.5323C4.61028 21.6729 4.8011 21.7518 5.00001 21.7516L9.19211 21.7488L8.26165 26.8659C8.22633 27.0617 8.27015 27.2635 8.38349 27.427C8.49683 27.5905 8.67042 27.7024 8.86615 27.738C8.91065 27.7458 8.95574 27.7497 9.00091 27.7497C9.17645 27.7493 9.34631 27.6875 9.481 27.5749C9.61569 27.4624 9.7067 27.3062 9.73822 27.1335L10.7174 21.7479L19.1932 21.7422L18.2617 26.8659C18.2263 27.0617 18.2701 27.2635 18.3835 27.427C18.4968 27.5905 18.6704 27.7024 18.8662 27.738C18.9107 27.7458 18.9557 27.7497 19.0009 27.7497C19.1764 27.7493 19.3463 27.6875 19.481 27.5749C19.6157 27.4624 19.7067 27.3062 19.7382 27.1335L20.7186 21.7412L27.0009 21.737C27.1998 21.7369 27.3905 21.6577 27.5311 21.517C27.6717 21.3762 27.7505 21.1854 27.7504 20.9865C27.7503 20.7876 27.6711 20.5969 27.5304 20.4563C27.3896 20.3158 27.1989 20.2369 26.9999 20.237ZM10.9902 20.2477L12.5361 11.7451L21.0119 11.7392L19.4659 20.242L10.9902 20.2477Z" fill="#0F0F0F"/>
</svg>
