<svg width="32" height="32" viewBox="0 0 32 32" fill="none" xmlns="http://www.w3.org/2000/svg">
<path d="M11.0011 17.2491C10.3084 17.2523 9.625 17.4086 8.99978 17.7068C8.375 17.4092 7.69219 17.2532 7.00015 17.2501C5.74037 17.2501 4.53219 17.7506 3.64139 18.6414C2.75059 19.5322 2.25015 20.7403 2.25015 22.0001C2.25015 23.2599 2.75059 24.4681 3.64139 25.3589C4.53219 26.2497 5.74037 26.7501 7.00015 26.7501C7.69286 26.747 8.37631 26.5907 9.00155 26.2924C9.62631 26.5901 10.3091 26.746 11.0011 26.7491C12.2609 26.7491 13.4691 26.2487 14.3599 25.3579C15.2507 24.4671 15.7511 23.2589 15.7511 21.9991C15.7511 20.7394 15.2507 19.5312 14.3599 18.6404C13.4691 17.7496 12.2609 17.2491 11.0011 17.2491ZM10.2501 22.0001C10.2484 22.4907 10.1351 22.9745 9.91869 23.4148C9.70231 23.8551 9.38856 24.2403 9.00122 24.5414C8.61235 24.2416 8.29744 23.8566 8.08072 23.416C7.864 22.9754 7.75125 22.4909 7.75113 21.9999C7.75102 21.5089 7.86355 21.0244 8.08007 20.5837C8.29659 20.143 8.61132 19.7579 9.00005 19.4579C9.38774 19.7589 9.7018 20.1443 9.91839 20.5848C10.135 21.0253 10.2484 21.5093 10.2501 22.0001ZM3.75012 22.0001C3.75112 21.1385 4.09385 20.3124 4.70312 19.7031C5.3124 19.0939 6.13847 18.7511 7.00012 18.7501C7.17182 18.7537 7.34296 18.771 7.5119 18.8019C6.70145 19.6697 6.25081 20.8129 6.25109 22.0004C6.25137 23.1878 6.70256 24.3308 7.51342 25.1982C7.34398 25.2292 7.17233 25.2466 7.00012 25.2501C6.13847 25.2491 5.31241 24.9064 4.70314 24.2971C4.09387 23.6878 3.75111 22.8618 3.75012 22.0001ZM11.0011 25.2491C10.8294 25.2456 10.6583 25.2283 10.4893 25.1974C11.2998 24.3296 11.7504 23.1863 11.7501 21.9989C11.7499 20.8115 11.2987 19.6685 10.4878 18.8011C10.6573 18.7701 10.8289 18.7527 11.0011 18.7491C11.8631 18.7491 12.6897 19.0916 13.2992 19.701C13.9087 20.3105 14.2511 21.1372 14.2511 21.9991C14.2511 22.8611 13.9087 23.6877 13.2992 24.2972C12.6897 24.9067 11.8631 25.2491 11.0011 25.2491Z" fill="#0F0F0F"/>
<path d="M28.92 9.51086C28.6546 9.34928 28.3511 9.26067 28.0404 9.25398C27.7297 9.2473 27.4227 9.32277 27.1505 9.47278L23.7482 11.6359V10.004C23.7467 8.74466 23.2458 7.53731 22.3553 6.64682C21.4649 5.75633 20.2575 5.25543 18.9982 5.254H6.99817C5.73883 5.25543 4.53148 5.75633 3.64099 6.64682C2.7505 7.53731 2.2496 8.74466 2.24817 10.004L2.25017 15.0001C2.25022 15.199 2.32926 15.3897 2.4699 15.5304C2.61054 15.671 2.80127 15.75 3.00017 15.7501C3.19901 15.75 3.39018 15.671 3.53074 15.5303C3.6713 15.3897 3.75023 15.1989 3.75017 15.0001L3.74817 10.004C3.74916 9.14235 4.09189 8.31628 4.70117 7.707C5.31045 7.09773 6.13652 6.755 6.99817 6.754H18.9982C19.8598 6.75499 20.6859 7.09772 21.2952 7.707C21.9044 8.31628 22.2472 9.14235 22.2482 10.004V22.004C22.2473 22.8652 21.9051 23.6909 21.2964 24.3001C20.6877 24.9094 19.8623 25.2524 19.0011 25.254L18.0031 25.2501H18.0001C17.8012 25.2497 17.6103 25.3283 17.4694 25.4687C17.3285 25.6091 17.2491 25.7997 17.2487 25.9986C17.2483 26.1975 17.3269 26.3885 17.4673 26.5294C17.6077 26.6703 17.7983 26.7497 17.9972 26.7501L18.9982 26.754C20.2576 26.7526 21.4649 26.2517 22.3554 25.3612C23.2459 24.4707 23.7468 23.2633 23.7482 22.004V20.3632L27.2179 22.5656C27.4847 22.6989 27.7812 22.7619 28.0792 22.7484C28.3772 22.735 28.6668 22.6456 28.9205 22.4888C29.1742 22.3319 29.3836 22.1128 29.5288 21.8523C29.674 21.5917 29.7502 21.2984 29.7502 21.0001V11.0001C29.7512 10.7015 29.6754 10.4077 29.53 10.1469C29.3846 9.88603 29.1746 9.66701 28.92 9.51086ZM28.2501 21.0001C28.2508 21.0428 28.2402 21.085 28.2195 21.1224C28.1988 21.1597 28.1686 21.191 28.132 21.213C28.0871 21.2394 27.9962 21.2794 27.9552 21.2618L23.7482 18.5871V13.4128L27.8889 10.7765C27.9269 10.7574 27.9693 10.7483 28.0119 10.7502C28.0544 10.7521 28.0958 10.7648 28.1321 10.7873C28.1683 10.8097 28.1982 10.841 28.2189 10.8783C28.2395 10.9156 28.2503 10.9575 28.2502 11.0001L28.2501 21.0001Z" fill="#0F0F0F"/>
</svg>
