<svg width="32" height="32" viewBox="0 0 32 32" fill="none" xmlns="http://www.w3.org/2000/svg">
<path d="M22.1214 5.8132C22.0351 5.76588 21.9403 5.73602 21.8425 5.72533C21.7446 5.71464 21.6456 5.72332 21.5511 5.75089C21.3603 5.80657 21.1994 5.93577 21.1038 6.11008C21.0083 6.28438 20.9859 6.48952 21.0415 6.68035C21.0972 6.87118 21.2264 7.03208 21.4007 7.12765C23.5935 8.32729 25.3244 10.223 26.3202 12.5156C27.316 14.8082 27.52 17.3671 26.9 19.7885C26.2801 22.2099 24.8714 24.3559 22.8963 25.8878C20.9213 27.4197 18.4923 28.2503 15.9928 28.2485C13.4933 28.2467 11.0656 27.4126 9.09276 25.8778C7.11993 24.343 5.71437 22.195 5.09789 19.7727C4.48141 17.3504 4.68912 14.7918 5.68824 12.5006C6.68737 10.2095 8.421 8.3163 10.6156 7.11984C10.702 7.07265 10.7783 7.00889 10.8401 6.93221C10.9019 6.85553 10.948 6.76743 10.9757 6.67294C11.0035 6.57845 11.0123 6.47942 11.0018 6.3815C10.9913 6.28358 10.9616 6.1887 10.9144 6.10226C10.8672 6.01582 10.8034 5.93953 10.7268 5.87773C10.6501 5.81594 10.562 5.76985 10.4675 5.7421C10.2767 5.68606 10.0714 5.70812 9.89681 5.80343C7.40987 7.15934 5.44525 9.30479 4.31298 11.9012C3.18071 14.4976 2.94526 17.3971 3.6438 20.1422C4.34234 22.8873 5.93508 25.3216 8.17067 27.061C10.4063 28.8003 13.1574 29.7458 15.99 29.748C18.8225 29.7503 21.5752 28.8093 23.8136 27.0735C26.0519 25.3376 27.6486 22.9059 28.3515 20.1619C29.0544 17.418 28.8236 14.5181 27.6955 11.9199C26.5674 9.32167 24.6062 7.17309 22.1214 5.8132Z" fill="#0F0F0F"/>
<path d="M15.9837 17.7497C16.1826 17.7497 16.3733 17.6706 16.514 17.53C16.6546 17.3894 16.7337 17.1986 16.7337 16.9997V2.99972C16.7337 2.80081 16.6547 2.61004 16.514 2.46939C16.3734 2.32874 16.1826 2.24972 15.9837 2.24972C15.7848 2.24972 15.594 2.32874 15.4534 2.46939C15.3127 2.61004 15.2337 2.80081 15.2337 2.99972V16.9997C15.2338 17.1986 15.3128 17.3894 15.4534 17.53C15.5941 17.6706 15.7848 17.7497 15.9837 17.7497Z" fill="#0F0F0F"/>
</svg>
