<svg width="32" height="32" viewBox="0 0 32 32" fill="none" xmlns="http://www.w3.org/2000/svg">
<path d="M14.7915 16.501L11.6467 19.6466C11.5995 19.6929 11.562 19.748 11.5362 19.8089C11.5105 19.8697 11.497 19.9351 11.4967 20.0012C11.4964 20.0673 11.5091 20.1327 11.5343 20.1939C11.5594 20.255 11.5964 20.3105 11.6431 20.3572C11.6898 20.4039 11.7454 20.4409 11.8065 20.4661C11.8676 20.4912 11.9331 20.504 11.9992 20.5036C12.0652 20.5033 12.1306 20.4899 12.1914 20.4641C12.2523 20.4384 12.3075 20.4008 12.3537 20.3536L16.3527 16.3536C16.3991 16.3072 16.436 16.2521 16.4611 16.1915C16.4862 16.1308 16.4992 16.0658 16.4992 16.0001C16.4992 15.9345 16.4862 15.8695 16.4611 15.8088C16.436 15.7482 16.3991 15.693 16.3527 15.6466L12.3537 11.6466C12.2596 11.5544 12.133 11.5031 12.0013 11.5038C11.8695 11.5044 11.7434 11.557 11.6503 11.6502C11.5571 11.7433 11.5045 11.8695 11.5038 12.0012C11.5032 12.1329 11.5545 12.2596 11.6467 12.3536L14.7932 15.501L4.50024 15.5002V12.0001C4.50024 11.8675 4.44757 11.7403 4.3538 11.6466C4.26003 11.5528 4.13285 11.5001 4.00024 11.5001C3.86764 11.5001 3.74046 11.5528 3.64669 11.6466C3.55292 11.7403 3.50024 11.8675 3.50024 12.0001V20.0001C3.50024 20.1327 3.55292 20.2599 3.64669 20.3537C3.74046 20.4474 3.86764 20.5001 4.00024 20.5001C4.13285 20.5001 4.26003 20.4474 4.3538 20.3537C4.44757 20.2599 4.50024 20.1327 4.50024 20.0001V16.5002L14.7915 16.501Z" fill="#0F0F0F"/>
<path d="M16.0002 2.50012C13.9475 2.49445 11.9208 2.95957 10.076 3.85971C8.23122 4.75986 6.61739 6.07106 5.35861 7.69251C5.27703 7.79689 5.24025 7.9294 5.25637 8.06089C5.27248 8.19239 5.34018 8.3121 5.44455 8.39368C5.54893 8.47526 5.68144 8.51204 5.81294 8.49593C5.94443 8.47981 6.06414 8.41212 6.14572 8.30774C7.74749 6.25612 9.94975 4.75568 12.4452 4.01579C14.9407 3.2759 17.6049 3.33346 20.0661 4.18044C22.5273 5.02743 24.6627 6.62158 26.1743 8.74046C27.686 10.8594 28.4985 13.3973 28.4985 16.0001C28.4985 18.603 27.686 21.1409 26.1743 23.2598C24.6627 25.3787 22.5273 26.9728 20.0661 27.8198C17.6049 28.6668 14.9407 28.7243 12.4452 27.9845C9.94975 27.2446 7.74749 25.7441 6.14572 23.6925C6.10533 23.6408 6.05515 23.5976 5.99805 23.5653C5.94095 23.533 5.87805 23.5123 5.81294 23.5043C5.74783 23.4963 5.68178 23.5013 5.61858 23.5188C5.55537 23.5364 5.49624 23.5662 5.44455 23.6066C5.39287 23.647 5.34965 23.6971 5.31736 23.7542C5.28507 23.8113 5.26435 23.8742 5.25637 23.9394C5.24839 24.0045 5.25331 24.0705 5.27085 24.1337C5.2884 24.1969 5.31822 24.2561 5.35861 24.3077C6.76787 26.1129 8.61318 27.5299 10.721 28.4255C12.8287 29.321 15.1297 29.6656 17.4073 29.4269C19.685 29.1882 21.8645 28.374 23.7407 27.0608C25.617 25.7477 27.1284 23.9789 28.1328 21.9207C29.1371 19.8626 29.6013 17.5828 29.4818 15.2958C29.3623 13.0088 28.663 10.7897 27.4496 8.84748C26.2362 6.90521 24.5487 5.30354 22.5457 4.19315C20.5428 3.08276 18.2903 2.50015 16.0002 2.50012Z" fill="#0F0F0F"/>
</svg>
