<svg width="32" height="32" viewBox="0 0 32 32" fill="none" xmlns="http://www.w3.org/2000/svg">
<path d="M27.4701 2.46948C27.6107 2.32884 27.8015 2.24981 28.0004 2.24976C28.1993 2.24981 28.39 2.32884 28.5306 2.46948C28.6713 2.61012 28.7503 2.80086 28.7504 2.99976V5.99976C28.7503 6.19865 28.6713 6.38939 28.5306 6.53003C28.39 6.67067 28.1993 6.74971 28.0004 6.74976H25.0004C24.8014 6.74976 24.6107 6.67074 24.47 6.53009C24.3294 6.38943 24.2504 6.19867 24.2504 5.99976C24.2504 5.80084 24.3294 5.61008 24.47 5.46943C24.6107 5.32877 24.8014 5.24976 25.0004 5.24976H26.2131C26.1854 5.21719 26.1591 5.18257 26.1328 5.14798C26.0923 5.09467 26.0518 5.04142 26.0062 4.99585C25.3636 4.35298 24.5319 3.93294 23.6332 3.79734C22.7344 3.66174 21.8158 3.81771 21.0121 4.24238C20.2085 4.66705 19.5621 5.33807 19.1677 6.15701C18.7733 6.97595 18.6517 7.89972 18.8208 8.79282C18.9899 9.68591 19.4406 10.5013 20.107 11.1195C20.7735 11.7376 21.6204 12.126 22.5237 12.2275C23.4269 12.3291 24.339 12.1385 25.126 11.6838C25.913 11.2291 26.5337 10.5342 26.8968 9.70093C26.9764 9.51859 27.125 9.37531 27.3102 9.3026C27.4954 9.22989 27.7018 9.23372 27.8841 9.31323C28.0665 9.39274 28.2098 9.54143 28.2825 9.72659C28.3552 9.91174 28.3514 10.1182 28.2718 10.3005C27.7804 11.425 26.9416 12.3625 25.8786 12.9757C24.8155 13.5888 23.584 13.8454 22.3646 13.7077C21.1451 13.5701 20.0018 13.0454 19.1022 12.2107C18.2026 11.376 17.5939 10.2751 17.3655 9.06936C17.1371 7.8636 17.3009 6.61637 17.8328 5.51046C18.3648 4.40455 19.237 3.49809 20.3216 2.92393C21.4062 2.34977 22.6462 2.13809 23.8599 2.31992C25.0735 2.50175 26.1971 3.06752 27.0658 3.93433C27.1033 3.97171 27.1363 4.01538 27.1693 4.0591C27.1955 4.09382 27.2218 4.12859 27.2504 4.16028V2.99976C27.2504 2.80086 27.3294 2.61013 27.4701 2.46948Z" fill="#0F0F0F"/>
<path d="M24.0382 19.699C23.4171 19.1043 22.5902 18.7726 21.7303 18.7733C20.8704 18.7741 20.044 19.1071 19.4239 19.7029C19.4239 19.7029 18.1612 20.9861 17.6876 21.4636C15.8022 21.4273 14.0041 20.6621 12.6707 19.3285C11.3373 17.995 10.5723 16.1968 10.5362 14.3113C10.8488 14.0013 11.5043 13.3563 11.9224 12.9448C12.1444 12.7264 12.2995 12.5737 12.3009 12.572C12.6037 12.2694 12.8439 11.91 13.0078 11.5145C13.1716 11.1189 13.256 10.695 13.256 10.2669C13.256 9.83872 13.1716 9.41478 13.0078 9.01926C12.8439 8.62373 12.6037 8.26436 12.3009 7.96168L9.548 5.20874C8.9335 4.59617 8.10122 4.2522 7.23355 4.2522C6.36588 4.2522 5.5336 4.59617 4.9191 5.20874L3.44742 6.68042C1.50308 8.62476 1.07921 15.4646 8.80679 23.1931C13.7619 28.1482 18.3517 29.7517 21.5207 29.7517C22.8935 29.849 24.2518 29.4199 25.3195 28.5515L26.7912 27.0798C27.4042 26.4658 27.7485 25.6335 27.7485 24.7659C27.7485 23.8982 27.4042 23.066 26.7912 22.4519L24.0382 19.699ZM25.7306 26.0193L24.2589 27.491C22.9279 28.8211 16.8996 29.1648 9.86734 22.1326C2.83414 15.0984 3.17886 9.07007 4.50796 7.74099L5.97964 6.26929C6.31246 5.93722 6.7634 5.75073 7.23355 5.75073C7.70369 5.75073 8.15464 5.93722 8.48746 6.26929L11.2404 9.02222C11.5697 9.35145 11.7551 9.79775 11.756 10.2634C11.7569 10.729 11.5733 11.1761 11.2453 11.5066C11.2453 11.5066 9.74136 12.9851 9.3771 13.3494C8.72964 13.9968 9.15933 15.8064 9.30679 16.3455C9.71898 17.8672 10.5118 19.2589 11.6105 20.3895C13.9074 22.6863 17.7853 23.4832 18.6515 22.6219C19.0148 22.2576 20.4884 20.7596 20.4884 20.7596C20.8239 20.4399 21.2696 20.2615 21.733 20.2615C22.1965 20.2615 22.6422 20.4399 22.9777 20.7596L25.7306 23.5125C26.0626 23.8451 26.2491 24.2959 26.2491 24.7659C26.2491 25.2359 26.0626 25.6867 25.7306 26.0193Z" fill="#0F0F0F"/>
</svg>
