<svg width="32" height="32" viewBox="0 0 32 32" fill="none" xmlns="http://www.w3.org/2000/svg">
<path d="M4 26.5H28C28.28 26.5 28.5 26.28 28.5 26C28.5 25.72 28.28 25.5 28 25.5H4C3.72 25.5 3.5 25.72 3.5 26C3.5 26.28 3.72 26.5 4 26.5Z" fill="#0F0F0F"/>
<path d="M8 22.5H14C14.28 22.5 14.5 22.28 14.5 22V12C14.5 11.72 14.28 11.5 14 11.5H8C7.72 11.5 7.5 11.72 7.5 12V22C7.5 22.28 7.72 22.5 8 22.5ZM8.5 12.5H13.5V21.5H8.5V12.5Z" fill="#0F0F0F"/>
<path d="M18 22.5H24C24.28 22.5 24.5 22.28 24.5 22V7C24.5 6.72 24.28 6.5 24 6.5H18C17.72 6.5 17.5 6.72 17.5 7V22C17.5 22.28 17.72 22.5 18 22.5ZM18.5 7.5H23.5V21.5H18.5V7.5Z" fill="#0F0F0F"/>
</svg>
