<svg width="32" height="32" viewBox="0 0 32 32" fill="none" xmlns="http://www.w3.org/2000/svg">
<path d="M27.997 13.7498C27.7981 13.7497 27.6073 13.6707 27.4667 13.53C27.3261 13.3894 27.247 13.1987 27.247 12.9998C27.2211 10.9222 26.4018 8.93324 24.957 7.4402C24.1987 6.61084 23.2794 5.94458 22.2553 5.48203C21.2311 5.01948 20.1235 4.77033 18.9999 4.74977C18.801 4.74977 18.6102 4.67075 18.4696 4.5301C18.3289 4.38945 18.2499 4.19868 18.2499 3.99977C18.2499 3.80086 18.3289 3.61009 18.4696 3.46944C18.6102 3.32879 18.801 3.24977 18.9999 3.24977C20.3281 3.27063 21.638 3.56185 22.8499 4.10568C24.0618 4.6495 25.1502 5.43452 26.0487 6.41285C27.7565 8.18322 28.722 10.5401 28.747 12.9998C28.7469 13.1987 28.6679 13.3894 28.5273 13.53C28.3866 13.6707 28.1959 13.7497 27.997 13.7498Z" fill="#0F0F0F"/>
<path d="M23.9999 14.7429C23.801 14.7429 23.6103 14.6638 23.4696 14.5232C23.329 14.3826 23.25 14.1918 23.2499 13.9929C23.3032 13.2953 23.2117 12.5943 22.9813 11.9337C22.7509 11.2731 22.3866 10.6672 21.911 10.1541C20.8406 9.19537 19.4386 8.69163 18.0028 8.74977H17.9999C17.801 8.75016 17.6101 8.67151 17.4691 8.53114C17.3282 8.39076 17.2488 8.20015 17.2484 8.00124C17.2481 7.80232 17.3267 7.6114 17.4671 7.47048C17.6075 7.32955 17.7981 7.25016 17.997 7.24977H18.037C19.8549 7.184 21.6247 7.84218 22.9579 9.07985C23.5811 9.72966 24.0622 10.502 24.3708 11.3479C24.6793 12.1937 24.8084 13.0945 24.7499 13.9929C24.7499 14.1918 24.6708 14.3826 24.5302 14.5232C24.3895 14.6638 24.1988 14.7429 23.9999 14.7429Z" fill="#0F0F0F"/>
<path d="M9.27719 22.6159C16.148 29.4867 22.2489 29.0896 23.9883 27.3502L25.0255 26.313C25.5833 25.754 25.8966 24.9966 25.8966 24.2069C25.8966 23.4172 25.5833 22.6597 25.0255 22.1008L22.5016 19.5769C21.9444 19.0241 21.1907 18.7149 20.4058 18.7171C19.6209 18.7193 18.869 19.0327 18.3149 19.5886L17.0747 20.8288C15.5809 20.5633 14.2113 19.8267 13.1662 18.7268C12.0669 17.6823 11.3293 16.3144 11.0608 14.8219L12.3114 13.5727C12.8564 12.9897 13.1524 12.217 13.1363 11.419C13.1201 10.6211 12.7932 9.86091 12.2251 9.30037L9.79236 6.86762C9.23338 6.30979 8.47594 5.9965 7.68623 5.9965C6.89653 5.9965 6.13908 6.30979 5.5801 6.86762L4.5429 7.90482C2.80341 9.64424 2.40638 15.7451 9.27719 22.6159ZM6.64073 7.92824C6.91819 7.65133 7.29419 7.49581 7.6862 7.49581C8.07821 7.49581 8.4542 7.65133 8.73167 7.92824L11.1644 10.361C11.4513 10.6404 11.6201 11.0192 11.6361 11.4193C11.6522 11.8194 11.5142 12.2105 11.2507 12.512L9.86891 13.8924C8.99677 14.7645 10.1679 17.8498 12.1056 19.7875C14.0432 21.7251 17.1313 22.8935 18.0048 22.02L19.3755 20.6492C19.6481 20.3742 20.0186 20.2186 20.4058 20.2164C20.793 20.2142 21.1653 20.3656 21.4409 20.6375L23.9648 23.1614C24.2418 23.4389 24.3973 23.8149 24.3973 24.2069C24.3973 24.5989 24.2418 24.9749 23.9648 25.2524L22.9276 26.2896C21.7717 27.4455 16.5077 27.7252 10.3378 21.5553C4.1679 15.3853 4.44756 10.1214 5.60352 8.96545L6.64073 7.92824Z" fill="#0F0F0F"/>
</svg>
