<svg width="32" height="32" viewBox="0 0 32 32" fill="none" xmlns="http://www.w3.org/2000/svg">
<path d="M13.9999 5C13.8686 4.99997 13.7385 5.02581 13.6172 5.07605C13.4959 5.1263 13.3856 5.19995 13.2927 5.29282C13.1999 5.38568 13.1262 5.49594 13.076 5.61728C13.0257 5.73862 12.9999 5.86867 12.9999 6V11.5919L4.70744 3.29286C4.51956 3.10698 4.26574 3.00302 4.00145 3.00368C3.73716 3.00434 3.48387 3.10958 3.29692 3.29641C3.10998 3.48323 3.00457 3.73645 3.00373 4.00074C3.00289 4.26503 3.10668 4.51892 3.29244 4.70692L11.5788 12.9999H5.99998C5.73476 12.9999 5.48041 13.1053 5.29287 13.2928C5.10534 13.4804 4.99998 13.7347 4.99998 13.9999C4.99998 14.2651 5.10534 14.5195 5.29287 14.707C5.48041 14.8946 5.73476 14.9999 5.99998 14.9999H13.9999C14.1313 15 14.2613 14.9741 14.3826 14.9239C14.504 14.8736 14.6142 14.8 14.7071 14.7071C14.8 14.6142 14.8736 14.504 14.9239 14.3826C14.9741 14.2613 15 14.1313 14.9999 13.9999V6C15 5.86867 14.9741 5.73862 14.9239 5.61728C14.8736 5.49594 14.8 5.38568 14.7071 5.29282C14.6142 5.19995 14.504 5.1263 14.3826 5.07605C14.2613 5.02581 14.1313 4.99997 13.9999 5Z" fill="#0F0F0F"/>
<path d="M28.7074 27.2929L20.4136 18.9999H26C26.2652 18.9999 26.5196 18.8945 26.7071 18.707C26.8946 18.5194 27 18.2651 27 17.9999C27 17.7346 26.8946 17.4803 26.7071 17.2928C26.5196 17.1052 26.2652 16.9999 26 16.9999H18.0004C17.8691 16.9998 17.739 17.0256 17.6176 17.0758C17.4963 17.1261 17.386 17.1997 17.2931 17.2926C17.2003 17.3855 17.1266 17.4957 17.0764 17.6171C17.0261 17.7384 17.0003 17.8685 17.0004 17.9999V26C17.0004 26.2652 17.1058 26.5196 17.2933 26.7071C17.4808 26.8946 17.7352 27 18.0004 27C18.2656 27 18.52 26.8946 18.7075 26.7071C18.8951 26.5196 19.0004 26.2652 19.0004 26V20.4148L27.2934 28.7069C27.3863 28.7998 27.4965 28.8734 27.6178 28.9237C27.7391 28.9739 27.8691 28.9998 28.0004 28.9998C28.1317 28.9998 28.2618 28.9739 28.3831 28.9237C28.5044 28.8734 28.6146 28.7998 28.7075 28.7069C28.8003 28.6141 28.874 28.5038 28.9242 28.3825C28.9745 28.2612 29.0003 28.1312 29.0003 27.9999C29.0003 27.8686 28.9745 27.7386 28.9242 27.6173C28.874 27.4959 28.8003 27.3857 28.7074 27.2929Z" fill="#0F0F0F"/>
</svg>
