<svg width="32" height="32" viewBox="0 0 32 32" fill="none" xmlns="http://www.w3.org/2000/svg">
<path d="M15.2197 19.5228C16.1833 26.8788 20.0842 30 22.3046 30H23.7714C24.6273 29.999 25.448 29.6586 26.0532 29.0533C26.6585 28.448 26.9989 27.6274 26.9999 26.7714V23.2021C26.9966 22.351 26.656 21.5359 26.0525 20.9356C25.4491 20.3353 24.6323 19.9988 23.7811 20H22.1444C21.366 18.8136 20.9668 17.4185 20.9999 16C20.9668 14.5821 21.3641 13.1875 22.1395 12L23.7899 12.0009C24.6536 11.9732 25.4723 11.6094 26.0718 10.9871C26.6713 10.3648 27.0043 9.53305 26.9999 8.66895V5.22852C26.9989 4.37255 26.6585 3.55192 26.0532 2.94666C25.448 2.3414 24.6273 2.00095 23.7714 2H22.3045C20.0841 1.99996 16.1833 5.12113 15.2197 12.4772L16.6212 13.8787C17.7928 15.0502 17.7928 16.9497 16.6212 18.1213L15.2197 19.5228Z" fill="#0F0F0F"/>
<path d="M4 15C3.44772 15 3 15.4477 3 16C3 16.5523 3.44772 17 4 17H12.0858L8.79289 20.2929C8.40237 20.6834 8.40237 21.3166 8.79289 21.7071C9.18342 22.0976 9.81658 22.0976 10.2071 21.7071L15.2071 16.7071C15.5976 16.3166 15.5976 15.6834 15.2071 15.2929L10.2071 10.2929C9.81658 9.90237 9.18342 9.90237 8.79289 10.2929C8.40237 10.6834 8.40237 11.3166 8.79289 11.7071L12.0858 15H4Z" fill="#0F0F0F"/>
</svg>
