<svg width="32" height="31" viewBox="0 0 32 31" fill="none" xmlns="http://www.w3.org/2000/svg">
<path d="M2.25 9.54002C2.25 7.21854 6.2832 2.88245 16 2.88245C25.7168 2.88245 29.75 7.2185 29.75 9.53998V10.9242C29.7491 11.6695 29.4351 12.384 28.8767 12.911C28.3183 13.4379 27.5611 13.7343 26.7714 13.7351H23.331C22.5329 13.7402 21.7642 13.4511 21.1886 12.9293C20.613 12.4076 20.2759 11.6945 20.249 10.9417L20.25 9.27364C19.0048 8.45689 17.516 8.03623 16 8.07281C14.4833 8.03624 12.994 8.45865 11.75 9.27825V10.9335C11.7513 11.6742 11.4412 12.3851 10.8878 12.9103C10.3343 13.4355 9.58273 13.7322 8.79785 13.7351H5.22851C4.43881 13.7343 3.68169 13.4379 3.12329 12.911C2.56488 12.384 2.25082 11.6695 2.25 10.9242V9.54002ZM27.8165 11.9105C28.0937 11.6489 28.2496 11.2942 28.25 10.9242V9.53998C28.25 7.99724 24.7256 4.29798 16 4.29798C7.27441 4.29798 3.75 7.99724 3.75 9.53998V10.9242C3.75039 11.2942 3.90629 11.6489 4.18348 11.9105C4.46067 12.172 4.8365 12.3192 5.22851 12.3195H8.79785C9.18505 12.317 9.55538 12.1697 9.82761 11.9098C10.0999 11.65 10.2518 11.2988 10.25 10.9334V9.10407C10.25 7.93826 13.2598 6.65725 16.0001 6.65725C18.7403 6.65725 21.75 7.93457 21.75 9.09854L21.7491 10.9417C21.7759 11.3188 21.9549 11.6718 22.2491 11.9281C22.5434 12.1844 22.9306 12.3245 23.3311 12.3195H26.7715C27.1635 12.3192 27.5393 12.172 27.8165 11.9105ZM16 13.971C16.4142 13.971 16.75 14.2879 16.75 14.6788V19.7905L19.3031 22.1999C19.596 22.4763 19.596 22.9244 19.3031 23.2008C19.0102 23.4772 18.5353 23.4772 18.2424 23.2008L15.4697 20.5842C15.329 20.4514 15.25 20.2714 15.25 20.0837V14.6788C15.25 14.2879 15.5858 13.971 16 13.971ZM7.36066 15.4313C7.74866 15.5682 7.94567 15.9759 7.80068 16.3421C7.44487 17.2407 7.25 18.2141 7.25 19.2322C7.25 23.7926 11.1675 27.4896 16 27.4896C20.8325 27.4896 24.75 23.7926 24.75 19.2322C24.75 18.2141 24.5551 17.2407 24.1993 16.3421C24.0543 15.9759 24.2513 15.5682 24.6393 15.4313C25.0274 15.2945 25.4594 15.4804 25.6044 15.8466C26.022 16.9012 26.25 18.0424 26.25 19.2322C26.25 24.5744 21.6609 28.9052 16 28.9052C10.3391 28.9052 5.75 24.5744 5.75 19.2322C5.75 18.0424 5.97796 16.9012 6.39558 15.8466C6.54057 15.4804 6.97265 15.2945 7.36066 15.4313Z" fill="#0F0F0F"/>
</svg>
