<svg width="32" height="32" viewBox="0 0 32 32" fill="none" xmlns="http://www.w3.org/2000/svg">
<path d="M26.1913 3.53806C26.3782 3.61545 26.5 3.79777 26.5 4V5.5H28C28.2022 5.5 28.3845 5.62182 28.4619 5.80866C28.5393 5.9955 28.4966 6.21055 28.3536 6.35355L25.3536 9.35355C25.2598 9.44732 25.1326 9.5 25 9.5H23.2071L20.9158 11.7913C22.5218 13.5654 23.5 15.9185 23.5 18.5C23.5 24.0228 19.0228 28.5 13.5 28.5C7.97715 28.5 3.5 24.0228 3.5 18.5C3.5 12.9772 7.97715 8.5 13.5 8.5C16.0815 8.5 18.4346 9.47821 20.2087 11.0842L22.5 8.79293V7C22.5 6.86739 22.5527 6.74021 22.6464 6.64645L25.6464 3.64645C25.7894 3.50345 26.0045 3.46067 26.1913 3.53806ZM20.2078 12.4994L18.0815 14.6256C18.9664 15.6709 19.5 17.0232 19.5 18.5C19.5 21.8137 16.8137 24.5 13.5 24.5C10.1863 24.5 7.5 21.8137 7.5 18.5C7.5 15.1863 10.1863 12.5 13.5 12.5C14.9769 12.5 16.3291 13.0336 17.3744 13.9185L19.5007 11.7923C17.9083 10.3668 15.8054 9.5 13.5 9.5C8.52944 9.5 4.5 13.5294 4.5 18.5C4.5 23.4706 8.52944 27.5 13.5 27.5C18.4706 27.5 22.5 23.4706 22.5 18.5C22.5 16.1946 21.6332 14.0917 20.2078 12.4994ZM16.6644 14.6285C15.8024 13.9232 14.7006 13.5 13.5 13.5C10.7386 13.5 8.5 15.7386 8.5 18.5C8.5 21.2614 10.7386 23.5 13.5 23.5C16.2614 23.5 18.5 21.2614 18.5 18.5C18.5 17.2994 18.0768 16.1976 17.3715 15.3357L15.2231 17.484C15.399 17.7818 15.5 18.1291 15.5 18.5C15.5 19.6046 14.6046 20.5 13.5 20.5C12.3954 20.5 11.5 19.6046 11.5 18.5C11.5 17.3954 12.3954 16.5 13.5 16.5C13.8709 16.5 14.2182 16.601 14.516 16.7769L16.6644 14.6285Z" fill="#0F0F0F"/>
</svg>
