<svg width="32" height="32" viewBox="0 0 32 32" fill="none" xmlns="http://www.w3.org/2000/svg">
<path d="M3.5896 22.5306H7.55815C8.42471 22.5296 9.25538 22.1845 9.86752 21.5711C10.4797 20.9578 10.8231 20.1264 10.8224 19.2599C10.8224 19.2599 10.8068 17.3925 10.8049 16.7214C12.2007 15.3641 14.0708 14.6047 16.0177 14.6046C17.9647 14.6045 19.8349 15.3636 21.2309 16.7207C21.229 17.3919 21.2128 19.2599 21.2134 19.2657C21.2132 19.6944 21.2975 20.1189 21.4615 20.515C21.6255 20.9111 21.866 21.2711 22.1691 21.5742C22.4722 21.8773 22.8322 22.1178 23.2283 22.2818C23.6244 22.4458 24.0489 22.5301 24.4776 22.5299H28.4461C29.309 22.5103 30.131 22.1587 30.7413 21.5485C31.3515 20.9382 31.703 20.1162 31.7227 19.2533L31.7233 17.132C31.7233 14.3499 27.1168 9.1521 16.0175 9.15151C10.0206 9.15144 6.28341 10.6926 4.20489 11.9862C3.45124 12.4484 2.7528 12.995 2.12311 13.6156C1.08923 14.5107 0.440768 15.7704 0.312921 17.1319L0.312256 19.2532C0.312161 19.6836 0.396864 20.1098 0.561527 20.5075C0.726188 20.9051 0.967582 21.2664 1.27192 21.5708C1.57625 21.8751 1.93757 22.1165 2.33522 22.2812C2.73287 22.4458 3.1592 22.5307 3.5896 22.5306ZM1.72366 19.2533L1.72419 17.1319C1.72419 16.1963 2.73294 14.5613 4.95078 13.1843C6.87328 11.9882 10.3532 10.5629 16.0175 10.5626C26.1994 10.5633 30.3115 15.1991 30.3121 17.132L30.3115 19.2534C30.3006 19.7447 30.1005 20.2128 29.753 20.5603C29.4056 20.9078 28.9374 21.1078 28.4461 21.1188L24.4777 21.1186C23.9874 21.1188 23.517 20.9245 23.1696 20.5784C22.8223 20.2323 22.6264 19.7626 22.6249 19.2722C22.6249 19.2722 22.6428 17.1229 22.6418 16.5996C22.6206 16.3955 22.5592 16.1975 22.4612 16.0173C22.3631 15.837 22.2303 15.6779 22.0705 15.5492C20.4072 14.0529 18.2548 13.2152 16.0176 13.1934C12.7309 13.1934 9.39243 15.377 9.3923 16.5985C9.39236 17.1222 9.41053 19.2663 9.41053 19.2663C9.40985 19.7576 9.2144 20.2285 8.86705 20.5758C8.5197 20.9232 8.04879 21.1186 7.55755 21.1193H3.58907C3.09443 21.1187 2.62022 20.9219 2.2705 20.5721C1.92078 20.2223 1.72412 19.748 1.72366 19.2533Z" fill="#0F0F0F"/>
</svg>
