<svg width="32" height="32" viewBox="0 0 32 32" fill="none" xmlns="http://www.w3.org/2000/svg">
<path d="M23.0002 2.24953H9.00024C7.7409 2.25096 6.53355 2.75186 5.64307 3.64235C4.75258 4.53284 4.25167 5.74019 4.25024 6.99953V24.9995C4.25167 26.2589 4.75258 27.4662 5.64307 28.3567C6.53355 29.2472 7.7409 29.7481 9.00024 29.7495H23.0002C24.2596 29.7481 25.4669 29.2472 26.3574 28.3567C27.2479 27.4662 27.7488 26.2589 27.7502 24.9995V6.99953C27.7488 5.74019 27.2479 4.53284 26.3574 3.64235C25.4669 2.75186 24.2596 2.25096 23.0002 2.24953ZM26.2502 24.9995C26.2492 25.8612 25.9065 26.6872 25.2972 27.2965C24.688 27.9058 23.8619 28.2485 23.0002 28.2495H9.00024C8.1386 28.2485 7.31253 27.9058 6.70325 27.2965C6.09397 26.6872 5.75124 25.8612 5.75024 24.9995V6.99953C5.75124 6.13788 6.09397 5.31181 6.70325 4.70254C7.31253 4.09326 8.1386 3.75053 9.00024 3.74953H23.0002C23.8619 3.75053 24.688 4.09326 25.2972 4.70254C25.9065 5.31181 26.2492 6.13788 26.2502 6.99953V24.9995Z" fill="#0F0F0F"/>
<path d="M21.0676 10.6138C20.854 10.4489 20.6051 10.3359 20.3404 10.2835C20.0757 10.2312 19.8025 10.2409 19.5422 10.312L13.5539 11.9907C13.1803 12.0894 12.8498 12.3089 12.6139 12.615C12.3781 12.9211 12.2502 13.2967 12.2502 13.6831V19.3878C11.8008 19.2296 11.3127 19.2185 10.8566 19.356C10.4004 19.4936 9.99989 19.7727 9.7129 20.153C9.42591 20.5333 9.26735 20.9951 9.26019 21.4714C9.25302 21.9478 9.39761 22.4141 9.67304 22.8029C9.94846 23.1916 10.3404 23.4827 10.7922 23.6339C11.244 23.7851 11.7322 23.7887 12.1862 23.644C12.6401 23.4994 13.0363 23.2141 13.3173 22.8294C13.5984 22.4446 13.7497 21.9805 13.7495 21.504L13.7502 21.5005V13.6831C13.7508 13.6262 13.7705 13.5711 13.806 13.5267C13.8416 13.4823 13.8911 13.451 13.9465 13.438L19.9367 11.7583C19.9737 11.7487 20.0123 11.7477 20.0497 11.7553C20.0871 11.7629 20.1222 11.779 20.1525 11.8022C20.1827 11.8255 20.2073 11.8554 20.2242 11.8896C20.2411 11.9238 20.25 11.9614 20.2502 11.9995V17.3878C19.8006 17.2297 19.3124 17.2187 18.8562 17.3565C18.4 17.4943 17.9995 17.7737 17.7126 18.1543C17.4258 18.5349 17.2676 18.9969 17.2608 19.4734C17.254 19.9499 17.3991 20.4163 17.675 20.8048C17.9509 21.1934 18.3433 21.4841 18.7954 21.6348C19.2476 21.7855 19.7359 21.7884 20.1898 21.6431C20.6436 21.4977 21.0395 21.2117 21.32 20.8264C21.6005 20.4411 21.751 19.9766 21.7499 19.5C21.7499 19.4831 21.7453 19.4674 21.7449 19.4506C21.7452 19.4413 21.7502 19.4336 21.7502 19.4244V11.9995C21.7511 11.7315 21.69 11.467 21.5716 11.2265C21.4531 10.9861 21.2807 10.7764 21.0676 10.6138Z" fill="#0F0F0F"/>
</svg>
