<svg width="32" height="32" viewBox="0 0 32 32" fill="none" xmlns="http://www.w3.org/2000/svg">
<path d="M28 9C28 7.34315 26.6569 6 25 6L7 6C5.34315 6 4 7.34315 4 9L4 23C4 24.6569 5.34315 26 7 26H25C26.6569 26 28 24.6569 28 23V9ZM25 4C27.7614 4 30 6.23858 30 9V23C30 25.7614 27.7614 28 25 28H7C4.23858 28 2 25.7614 2 23L2 9C2 6.23858 4.23858 4 7 4L25 4Z" fill="#0F0F0F"/>
<path d="M11.88 16.82C12.2019 16.7891 12.5239 16.8781 12.7841 17.0701C13.0444 17.262 13.2245 17.5433 13.29 17.86H14.96C14.8465 17.2456 14.5122 16.694 14.02 16.3092C13.403 15.8513 12.6477 15.6187 11.88 15.65C10.9987 15.6065 10.1337 15.8994 9.46002 16.4694C9.0796 16.8453 8.78516 17.2992 8.59699 17.7999C8.40882 18.3005 8.33139 18.836 8.37002 19.3694C8.31685 20.3486 8.61076 21.3151 9.20002 22.099C9.488 22.4442 9.85154 22.7185 10.2625 22.9007C10.6735 23.0829 11.1208 23.1681 11.57 23.1498C11.954 23.1731 12.3383 23.1117 12.6959 22.97C13.0535 22.8283 13.3755 22.6097 13.6393 22.3298L13.8793 22.9998H14.9593V18.99H11.81V20.08H13.51V20.59C13.5133 20.7669 13.4783 20.9425 13.4076 21.1047C13.3368 21.2669 13.2319 21.412 13.1 21.53C12.9372 21.6793 12.7465 21.7951 12.5389 21.8706C12.3312 21.9461 12.1107 21.9799 11.89 21.97C11.6644 21.9779 11.44 21.9343 11.2338 21.8425C11.0276 21.7506 10.845 21.613 10.7 21.44C10.2666 20.8409 10.061 20.107 10.12 19.37C10.079 18.7138 10.2318 18.06 10.5594 17.49C10.702 17.2728 10.8989 17.0967 11.1305 16.9792C11.3622 16.8616 11.6206 16.8068 11.88 16.82Z" fill="#0F0F0F"/>
<path d="M17.8693 15.7992H16.1896V22.9994H17.8693V15.7992Z" fill="#0F0F0F"/>
<path d="M19.167 22.999H20.847V20.089H23.427V18.929H20.847V17.009H23.737V15.799H19.167V22.999Z" fill="#0F0F0F"/>
</svg>
