<svg width="32" height="32" viewBox="0 0 32 32" fill="none" xmlns="http://www.w3.org/2000/svg">
<path d="M15.9999 2.50011C13.3298 2.50011 10.7197 3.29187 8.49969 4.77527C6.27962 6.25867 4.54929 8.36708 3.52751 10.8339C2.50573 13.3007 2.23838 16.0151 2.75928 18.6338C3.28018 21.2526 4.56593 23.658 6.45394 25.5461C8.34195 27.4341 10.7474 28.7198 13.3662 29.2407C15.9849 29.7616 18.6993 29.4943 21.1661 28.4725C23.6329 27.4507 25.7413 25.7204 27.2247 23.5003C28.7081 21.2802 29.4999 18.6702 29.4999 16.0001C29.4959 12.4209 28.0723 8.98945 25.5414 6.45857C23.0105 3.9277 19.5791 2.5041 15.9999 2.50011ZM15.9999 28.5001C13.5276 28.5001 11.1109 27.767 9.05526 26.3935C6.99964 25.02 5.39749 23.0677 4.45139 20.7837C3.50529 18.4996 3.25775 15.9862 3.74007 13.5615C4.22238 11.1367 5.41289 8.90943 7.16105 7.16128C8.90921 5.41312 11.1365 4.22261 13.5613 3.74029C15.986 3.25798 18.4993 3.50552 20.7834 4.45162C23.0675 5.39771 25.0197 6.99987 26.3933 9.05548C27.7668 11.1111 28.4999 13.5278 28.4999 16.0001C28.4962 19.3142 27.178 22.4914 24.8346 24.8348C22.4912 27.1782 19.3139 28.4964 15.9999 28.5001Z" fill="#0F0F0F"/>
<path d="M16 22.5C16.4142 22.5 16.75 22.1642 16.75 21.75C16.75 21.3358 16.4142 21 16 21C15.5858 21 15.25 21.3358 15.25 21.75C15.25 22.1642 15.5858 22.5 16 22.5Z" fill="#0F0F0F"/>
<path d="M15.9999 9.50011C15.0687 9.50445 14.1773 9.87794 13.5212 10.5387C12.865 11.1994 12.4977 12.0934 12.4999 13.0245C12.4999 13.1571 12.5526 13.2843 12.6463 13.3781C12.7401 13.4718 12.8673 13.5245 12.9999 13.5245C13.1325 13.5245 13.2597 13.4718 13.3534 13.3781C13.4472 13.2843 13.4999 13.1571 13.4999 13.0245C13.4954 12.5291 13.6382 12.0435 13.9102 11.6294C14.1822 11.2153 14.5711 10.8914 15.0275 10.6987C15.484 10.506 15.9873 10.4533 16.4738 10.5472C16.9602 10.6411 17.4078 10.8774 17.7597 11.2262C18.1116 11.5749 18.352 12.0203 18.4503 12.5059C18.5486 12.9915 18.5004 13.4953 18.3118 13.9535C18.1233 14.4116 17.8028 14.8034 17.3912 15.0791C16.9796 15.3549 16.4953 15.5021 15.9999 15.5021C15.8673 15.5021 15.7401 15.5548 15.6464 15.6485C15.5526 15.7423 15.4999 15.8695 15.4999 16.0021L15.5004 18.0001C15.5004 18.1327 15.5531 18.2598 15.6468 18.3536C15.7406 18.4474 15.8678 18.5001 16.0004 18.5001C16.133 18.5001 16.2602 18.4474 16.3539 18.3536C16.4477 18.2598 16.5004 18.1327 16.5004 18.0001L16.4999 16.4669C17.3758 16.3401 18.1712 15.8864 18.7261 15.197C19.2811 14.5076 19.5543 13.6336 19.491 12.7508C19.4276 11.8681 19.0323 11.0421 18.3847 10.439C17.737 9.83587 16.8849 9.50045 15.9999 9.50011Z" fill="#0F0F0F"/>
</svg>
