<svg width="32" height="32" viewBox="0 0 32 32" fill="none" xmlns="http://www.w3.org/2000/svg">
<path d="M7.56739 11.8111C6.0981 12.946 4.76748 14.2499 3.60299 15.6958C3.53631 15.783 3.50019 15.8897 3.50019 15.9995C3.50019 16.1093 3.53631 16.216 3.60299 16.3032C3.82809 16.5972 9.19339 23.5 15.9999 23.5C16.9637 23.4921 17.9221 23.3558 18.8499 23.0945L7.56739 11.8111Z" fill="#0F0F0F"/>
<path d="M28.707 27.2925L22.7662 21.3516C24.9052 19.9863 26.8071 18.2811 28.397 16.3032C28.4637 16.216 28.4998 16.1093 28.4998 15.9995C28.4998 15.8897 28.4637 15.783 28.397 15.6958C28.1719 15.4019 22.8066 8.5 15.9999 8.5C14.2928 8.52542 12.6115 8.92038 11.0716 9.6577L4.70699 3.2925C4.51851 3.10967 4.26568 3.00832 4.0031 3.01033C3.74053 3.01233 3.48928 3.11754 3.30361 3.30322C3.11794 3.4889 3.01276 3.74016 3.01077 4.00273C3.00878 4.26531 3.11015 4.51813 3.29299 4.7066L9.23379 10.6474L9.23259 10.6482L20.9271 22.3426L20.9284 22.3419L27.2931 28.7066C27.4816 28.8894 27.7344 28.9908 27.997 28.9888C28.2595 28.9868 28.5108 28.8816 28.6965 28.6959C28.8821 28.5102 28.9873 28.2589 28.9893 27.9964C28.9913 27.7338 28.8898 27.481 28.707 27.2925Z" fill="#0F0F0F"/>
</svg>
