<svg width="32" height="32" viewBox="0 0 32 32" fill="none" xmlns="http://www.w3.org/2000/svg">
<path d="M11 3C11 2.44772 10.5523 2 10 2C9.44772 2 9 2.44772 9 3V5C6.23858 5 4 7.23858 4 10V24C4 26.7614 6.23858 29 9 29H23C25.7614 29 28 26.7614 28 24V10C28 7.23858 25.7614 5 23 5V3C23 2.44772 22.5523 2 22 2C21.4477 2 21 2.44772 21 3V5H11V3ZM23 7C24.6569 7 26 8.34315 26 10V24C26 25.6569 24.6569 27 23 27H9C7.34315 27 6 25.6569 6 24V10C6 8.34315 7.34315 7 9 7H23ZM18.828 10.1511C18.897 9.69998 18.6518 9.25936 18.232 9.08023C17.8122 8.90111 17.3244 9.02894 17.0464 9.39092L10.5506 17.8492C10.3187 18.1513 10.2784 18.5589 10.4468 18.9004C10.6152 19.242 10.9629 19.4583 11.3438 19.4583H13.8508L13.1795 23.8489C13.1105 24.3 13.3557 24.7406 13.7755 24.9198C14.1953 25.0989 14.6831 24.9711 14.9611 24.6091L21.4569 16.1507C21.6888 15.8487 21.7291 15.4411 21.5607 15.0996C21.3923 14.758 21.0446 14.5417 20.6637 14.5417H18.1567L18.828 10.1511ZM15.0153 17.4583H13.3726L16.263 13.6946L16.0037 15.3905C15.9597 15.6788 16.0436 15.9719 16.2336 16.1932C16.4235 16.4144 16.7006 16.5417 16.9922 16.5417H18.6349L15.7445 20.3054L16.0038 18.6095C16.0478 18.3212 15.9639 18.0281 15.7739 17.8068C15.584 17.5856 15.3069 17.4583 15.0153 17.4583Z" fill="#0F0F0F"/>
</svg>
