<svg width="32" height="32" viewBox="0 0 32 32" fill="none" xmlns="http://www.w3.org/2000/svg">
<path d="M10.5 3C10.5 2.72386 10.2761 2.5 10 2.5C9.72386 2.5 9.5 2.72386 9.5 3V5.5H9C6.51472 5.5 4.5 7.51472 4.5 10V24C4.5 26.4853 6.51472 28.5 9 28.5H23C25.4853 28.5 27.5 26.4853 27.5 24V10C27.5 7.51472 25.4853 5.5 23 5.5H22.5V3C22.5 2.72386 22.2761 2.5 22 2.5C21.7239 2.5 21.5 2.72386 21.5 3V5.5H10.5V3ZM23 6.5C24.933 6.5 26.5 8.067 26.5 10V24C26.5 25.933 24.933 27.5 23 27.5H9C7.067 27.5 5.5 25.933 5.5 24V10C5.5 8.067 7.067 6.5 9 6.5H23ZM15.902 20H16.852V13H15.912L14.332 13.82V14.81L15.902 14V20Z" fill="#0F0F0F"/>
</svg>
