<svg width="32" height="31" viewBox="0 0 32 31" fill="none" xmlns="http://www.w3.org/2000/svg">
<path d="M18.8466 26.8466C13.7987 27.6185 8.11516 26.786 5.90324 24.9545C5.63568 24.7662 5.41548 24.5218 5.25906 24.2396C5.10265 23.9573 5.01406 23.6445 4.99992 23.3244C4.99992 18.5583 9.57903 14.5309 14.9999 14.5309C16.6965 14.522 18.3693 14.9181 19.8704 15.6842C21.3714 16.4503 22.6546 17.5628 23.6064 18.9234C23.7515 19.1382 23.9788 19.2883 24.2381 19.3408C24.4975 19.3933 24.7678 19.344 24.9896 19.2036C25.2114 19.0632 25.3666 18.8432 25.4211 18.592C25.4756 18.3408 25.4249 18.0789 25.2802 17.8639C23.7643 15.6721 21.5291 14.0401 18.9365 13.2323C20.0184 12.4343 20.8147 11.3276 21.2133 10.0682C21.6119 8.80877 21.5927 7.45994 21.1585 6.21161C20.7243 4.96328 19.8968 3.87831 18.7927 3.10944C17.6886 2.34057 16.3633 1.92652 15.0035 1.92558C13.6437 1.92464 12.3179 2.33686 11.2126 3.1042C10.1073 3.87155 9.27829 4.95537 8.84223 6.2031C8.40616 7.45083 8.38501 8.79963 8.78176 10.0596C9.17851 11.3196 9.97317 12.4273 11.0539 13.2268C6.42082 14.7248 2.99988 18.7382 2.99988 23.3244C3.01327 23.9244 3.16408 24.514 3.4414 25.0507C3.71872 25.5873 4.11562 26.0576 4.60344 26.4275C6.82219 28.2638 11.0497 29.0575 15.0419 29.0575C16.4195 29.0614 17.7953 28.9624 19.1571 28.7614C19.2869 28.7416 19.4114 28.6973 19.5235 28.631C19.6356 28.5646 19.7331 28.4775 19.8105 28.3746C19.8878 28.2717 19.9435 28.1551 19.9743 28.0314C20.0052 27.9077 20.0105 27.7793 19.9902 27.6536C19.9698 27.5278 19.924 27.4072 19.8555 27.2986C19.787 27.19 19.6971 27.0956 19.5909 27.0206C19.4847 26.9457 19.3643 26.8918 19.2366 26.8619C19.1089 26.8321 18.9764 26.8268 18.8466 26.8466ZM14.999 3.8747C15.889 3.8747 16.759 4.13037 17.499 4.60939C18.2391 5.0884 18.8158 5.76924 19.1564 6.56581C19.497 7.36238 19.5861 8.23891 19.4125 9.08455C19.2389 9.93018 18.8103 10.7069 18.181 11.3166C17.5516 11.9263 16.7498 12.3415 15.8769 12.5097C15.004 12.6779 14.0992 12.5916 13.2769 12.2616C12.4546 11.9317 11.7518 11.3729 11.2574 10.656C10.7629 9.93912 10.499 9.09628 10.499 8.23407C10.5003 7.07828 10.9748 5.97019 11.8184 5.15293C12.6621 4.33566 13.8059 3.87596 14.999 3.8747Z" fill="#0F0F0F"/>
<path d="M27.9999 22.2809H19.9999C19.7347 22.2809 19.4803 22.383 19.2928 22.5647C19.1053 22.7464 18.9999 22.9928 18.9999 23.2497C18.9999 23.5066 19.1053 23.753 19.2928 23.9347C19.4803 24.1164 19.7347 24.2184 19.9999 24.2184H27.9999C28.2651 24.2184 28.5195 24.1164 28.707 23.9347C28.8946 23.753 28.9999 23.5066 28.9999 23.2497C28.9999 22.9928 28.8946 22.7464 28.707 22.5647C28.5195 22.383 28.2651 22.2809 27.9999 22.2809Z" fill="#0F0F0F"/>
</svg>
