<svg width="32" height="32" viewBox="0 0 32 32" fill="none" xmlns="http://www.w3.org/2000/svg">
<path d="M3.00001 20.5004C2.8674 20.5004 2.74022 20.5531 2.64645 20.6468C2.55269 20.7406 2.50001 20.8678 2.50001 21.0004C2.50001 21.133 2.55269 21.2602 2.64645 21.354C2.74022 21.4477 2.8674 21.5004 3.00001 21.5004C4.19308 21.5017 5.33692 21.9762 6.18055 22.8199C7.02418 23.6635 7.4987 24.8073 7.50001 26.0004C7.50001 26.133 7.55269 26.2602 7.64645 26.354C7.74022 26.4477 7.8674 26.5004 8.00001 26.5004C8.13262 26.5004 8.25979 26.4477 8.35356 26.354C8.44733 26.2602 8.50001 26.133 8.50001 26.0004C8.49819 24.5423 7.91815 23.1444 6.88709 22.1133C5.85603 21.0823 4.45814 20.5022 3.00001 20.5004Z" fill="#0F0F0F"/>
<path d="M3.49989 26.5C4.05217 26.5 4.49989 26.0523 4.49989 25.5C4.49989 24.9477 4.05217 24.5 3.49989 24.5C2.9476 24.5 2.49989 24.9477 2.49989 25.5C2.49989 26.0523 2.9476 26.5 3.49989 26.5Z" fill="#0F0F0F"/>
<path d="M3.00001 16.5004C2.8674 16.5004 2.74022 16.5531 2.64645 16.6468C2.55269 16.7406 2.50001 16.8678 2.50001 17.0004C2.50001 17.133 2.55269 17.2602 2.64645 17.354C2.74022 17.4477 2.8674 17.5004 3.00001 17.5004C5.25352 17.5031 7.41397 18.3995 9.00745 19.993C10.6009 21.5864 11.4973 23.7469 11.5 26.0004C11.5 26.133 11.5527 26.2602 11.6465 26.354C11.7402 26.4477 11.8674 26.5004 12 26.5004C12.1326 26.5004 12.2598 26.4477 12.3536 26.354C12.4473 26.2602 12.5 26.133 12.5 26.0004C12.4971 23.4817 11.4953 21.067 9.71436 19.286C7.93339 17.5051 5.51869 16.5033 3.00001 16.5004Z" fill="#0F0F0F"/>
<path d="M28.7891 9.724C28.5639 9.58561 28.3063 9.50896 28.0421 9.50177C27.7779 9.49457 27.5165 9.55708 27.2842 9.683L23.498 12.091V10.0043C23.4967 8.81123 23.0222 7.6674 22.1786 6.82376C21.335 5.98013 20.1911 5.50561 18.998 5.50431H6.99805C5.80497 5.50561 4.66114 5.98014 3.8175 6.82377C2.97387 7.6674 2.49935 8.81124 2.49805 10.0043L2.50005 13.0004C2.50005 13.133 2.55273 13.2602 2.64649 13.354C2.74026 13.4477 2.86744 13.5004 3.00005 13.5004C3.13265 13.5004 3.25983 13.4477 3.3536 13.354C3.44737 13.2602 3.50005 13.133 3.50005 13.0004L3.49805 10.0043C3.49917 9.0764 3.86828 8.18681 4.52442 7.53068C5.18055 6.87454 6.07013 6.50543 6.99805 6.50431H18.998C19.926 6.50543 20.8155 6.87454 21.4717 7.53068C22.1278 8.18681 22.4969 9.0764 22.498 10.0043V22.0043C22.497 22.9321 22.128 23.8215 21.4721 24.4777C20.8162 25.1338 19.9268 25.503 18.999 25.5043L16.001 25.5004C15.9353 25.5003 15.8693 25.5132 15.8086 25.5383C15.7479 25.5633 15.6928 25.6001 15.6463 25.6465C15.5998 25.6929 15.5629 25.748 15.5377 25.8086C15.5126 25.8692 15.4996 25.9342 15.4995 25.9999C15.4994 26.0656 15.5123 26.1306 15.5374 26.1913C15.5624 26.252 15.5992 26.3071 15.6456 26.3536C15.692 26.4001 15.7471 26.437 15.8077 26.4621C15.8683 26.4873 15.9333 26.5003 15.999 26.5004L18.998 26.5043C20.1911 26.503 21.3349 26.0285 22.1785 25.1849C23.0222 24.3412 23.4967 23.1974 23.498 22.0043V19.9091L27.3291 22.3421C27.5577 22.4571 27.8121 22.5114 28.0677 22.4998C28.3234 22.4882 28.5718 22.411 28.7891 22.2757C29.0071 22.142 29.187 21.9545 29.3115 21.7311C29.436 21.5077 29.5009 21.2561 29.5 21.0004V10.9993C29.5009 10.7436 29.436 10.492 29.3115 10.2686C29.187 10.0452 29.0071 9.85769 28.7891 9.724ZM28.5 21.0004C28.5006 21.0857 28.479 21.1697 28.4374 21.2441C28.3958 21.3186 28.3356 21.381 28.2627 21.4252C28.1986 21.4687 28.1249 21.4957 28.048 21.5041C27.971 21.5124 27.8932 21.5018 27.8213 21.4731L23.498 18.7245V13.2762L27.7764 10.5522C27.8523 10.513 27.9372 10.4944 28.0225 10.4983C28.1079 10.5023 28.1907 10.5286 28.2627 10.5746C28.3356 10.6188 28.3958 10.6812 28.4374 10.7557C28.479 10.8301 28.5006 10.9141 28.5 10.9994V21.0004Z" fill="#0F0F0F"/>
</svg>
