<svg width="32" height="32" viewBox="0 0 32 32" fill="none" xmlns="http://www.w3.org/2000/svg">
<path d="M3.5 7C3.5 5.067 5.067 3.5 7 3.5H25C26.933 3.5 28.5 5.067 28.5 7V18C28.5 18.2761 28.7239 18.5 29 18.5C29.2761 18.5 29.5 18.2761 29.5 18V7C29.5 4.51472 27.4853 2.5 25 2.5H7C4.51472 2.5 2.5 4.51472 2.5 7V25C2.5 27.4853 4.51472 29.5 7 29.5H15C15.2761 29.5 15.5 29.2761 15.5 29C15.5 28.7239 15.2761 28.5 15 28.5H7C5.067 28.5 3.5 26.933 3.5 25V7ZM16.5681 6.79693C16.4879 6.61637 16.3088 6.5 16.1112 6.5C15.9136 6.5 15.7346 6.61637 15.6543 6.79693L8.54322 22.7969C8.43107 23.0493 8.54471 23.3448 8.79706 23.4569C9.0494 23.5691 9.34488 23.4554 9.45703 23.2031L11.6954 18.1667H20.527L22.7654 23.2031C22.8776 23.4554 23.1731 23.5691 23.4254 23.4569C23.6778 23.3448 23.7914 23.0493 23.6793 22.7969L16.5681 6.79693ZM20.0826 17.1667H12.1399L16.1112 8.23111L20.0826 17.1667ZM29.3796 22.1746C29.5593 22.3843 29.5351 22.6999 29.3254 22.8796L22.3957 28.8194C22.1577 29.0234 21.8027 29.0098 21.581 28.7881L18.6464 25.8536C18.4512 25.6583 18.4512 25.3417 18.6464 25.1464C18.8417 24.9512 19.1583 24.9512 19.3536 25.1464L22.0262 27.819L28.6746 22.1204C28.8843 21.9407 29.1999 21.9649 29.3796 22.1746Z" fill="#0F0F0F"/>
</svg>
