<svg width="32" height="32" viewBox="0 0 32 32" fill="none" xmlns="http://www.w3.org/2000/svg">
<path d="M25 5H7C5.6744 5.00156 4.40353 5.52884 3.46619 6.46619C2.52884 7.40353 2.00156 8.6744 2 10V22C2.00156 23.3256 2.52884 24.5965 3.46619 25.5338C4.40353 26.4712 5.6744 26.9984 7 27H25C26.3256 26.9984 27.5965 26.4712 28.5338 25.5338C29.4712 24.5965 29.9984 23.3256 30 22V10C29.9984 8.6744 29.4712 7.40353 28.5338 6.46619C27.5965 5.52884 26.3256 5.00156 25 5ZM4 22V10C4.00087 9.20462 4.31722 8.44206 4.87964 7.87964C5.44206 7.31722 6.20462 7.00087 7 7H20.0257C20.0248 7.01746 20.0156 7.03217 20.0156 7.0498V25H7C6.20462 24.9991 5.44206 24.6828 4.87964 24.1204C4.31722 23.5579 4.00087 22.7954 4 22ZM28 22C27.9991 22.7954 27.6828 23.5579 27.1204 24.1204C26.5579 24.6828 25.7954 24.9991 25 25H22.0156V7.0498C22.0156 7.03217 22.0065 7.01746 22.0056 7H25C25.7954 7.00087 26.5579 7.31722 27.1204 7.87964C27.6828 8.44206 27.9991 9.20462 28 10V22Z" fill="#0F0F0F"/>
<path d="M25 14C24.8687 14 24.7386 14.0258 24.6173 14.0761C24.4959 14.1263 24.3857 14.2 24.2928 14.2928C24.2 14.3857 24.1263 14.4959 24.0761 14.6173C24.0258 14.7386 24 14.8687 24 15V17C24 17.2652 24.1054 17.5196 24.2929 17.7071C24.4804 17.8946 24.7348 18 25 18C25.2652 18 25.5196 17.8946 25.7071 17.7071C25.8946 17.5196 26 17.2652 26 17V15C26 14.8687 25.9742 14.7386 25.924 14.6173C25.8737 14.4959 25.8001 14.3857 25.7072 14.2928C25.6143 14.1999 25.5041 14.1263 25.3827 14.076C25.2614 14.0258 25.1313 14 25 14Z" fill="#0F0F0F"/>
</svg>
