<svg width="32" height="32" viewBox="0 0 32 32" fill="none" xmlns="http://www.w3.org/2000/svg">
<path d="M25.0005 5.49985H7.00049C5.80741 5.50115 4.66358 5.97568 3.81995 6.81931C2.97631 7.66294 2.50179 8.80678 2.50049 9.99985V21.9998C2.50179 23.1929 2.97632 24.3368 3.81995 25.1804C4.66358 26.024 5.80741 26.4985 7.00049 26.4998H25.0005C26.1936 26.4985 27.3374 26.024 28.181 25.1804C29.0247 24.3368 29.4992 23.1929 29.5005 21.9998V9.99985C29.4992 8.80678 29.0247 7.66294 28.181 6.8193C27.3374 5.97567 26.1936 5.50115 25.0005 5.49985ZM3.50049 19.5165V11.5164H11.5005V19.5165H3.50049ZM12.5005 11.5164H20.5005V19.5165H12.5005V11.5164ZM21.5005 11.5164H28.5005V19.5165H21.5005V11.5164ZM7.00049 6.49985H25.0005C25.9284 6.50097 26.818 6.87008 27.4741 7.52622C28.1303 8.18235 28.4994 9.07194 28.5005 9.99985V10.5164H3.50049V9.99985C3.50161 9.07194 3.87072 8.18235 4.52685 7.52622C5.18299 6.87008 6.07258 6.50097 7.00049 6.49985ZM25.0005 25.4998H7.00049C6.07258 25.4987 5.18299 25.1296 4.52686 24.4735C3.87072 23.8173 3.50161 22.9278 3.50049 21.9998V20.5165H28.5005V21.9998C28.4994 22.9278 28.1303 23.8173 27.4741 24.4735C26.818 25.1296 25.9284 25.4987 25.0005 25.4998Z" fill="#0F0F0F"/>
</svg>
