<svg width="32" height="32" viewBox="0 0 32 32" fill="none" xmlns="http://www.w3.org/2000/svg">
<path d="M25 5.24958H7C5.74066 5.25101 4.53331 5.75191 3.64282 6.6424C2.75233 7.53289 2.25143 8.74024 2.25 9.99958V21.9996C2.25143 23.2589 2.75233 24.4663 3.64282 25.3568C4.53331 26.2472 5.74066 26.7482 7 26.7496H25C26.2593 26.7482 27.4667 26.2472 28.3572 25.3568C29.2477 24.4663 29.7486 23.2589 29.75 21.9996V9.99958C29.7486 8.74024 29.2477 7.53289 28.3572 6.6424C27.4667 5.75191 26.2593 5.25101 25 5.24958ZM28.25 21.9996C28.249 22.8612 27.9063 23.6873 27.297 24.2966C26.6877 24.9059 25.8616 25.2486 25 25.2496H7C6.13835 25.2486 5.31228 24.9059 4.70301 24.2966C4.09373 23.6873 3.751 22.8612 3.75 21.9996V9.99958C3.751 9.13793 4.09372 8.31186 4.703 7.70258C5.31228 7.0933 6.13835 6.75058 7 6.74958H25C25.8616 6.75058 26.6877 7.0933 27.297 7.70258C27.9063 8.31186 28.249 9.13793 28.25 9.99958V21.9996Z" fill="#0F0F0F"/>
<path d="M16 9.24958C15.8011 9.24963 15.6104 9.32867 15.4697 9.46931C15.3291 9.60995 15.2501 9.80068 15.25 9.99958V10.2798C14.1872 10.419 13.1845 10.8528 12.3552 11.5319C11.526 12.2111 10.9032 13.1086 10.5572 14.1231C10.2112 15.1377 10.1559 16.2287 10.3974 17.2731C10.6389 18.3174 11.1677 19.2733 11.924 20.0329C12.6803 20.7925 13.6339 21.3255 14.6772 21.5716C15.7205 21.8177 16.8117 21.7671 17.8278 21.4256C18.8438 21.084 19.7441 20.4651 20.4268 19.6388C21.1096 18.8125 21.5477 17.8118 21.6916 16.7496H22C22.1989 16.7495 22.3896 16.6705 22.5303 16.5299C22.6709 16.3892 22.7499 16.1985 22.75 15.9996C22.7479 14.21 22.036 12.4944 20.7706 11.2289C19.5052 9.96354 17.7896 9.2517 16 9.24958ZM16 20.2252C14.9384 20.2265 13.9148 19.8301 13.1311 19.1139C12.3474 18.3978 11.8604 17.414 11.7663 16.3566C11.6721 15.2992 11.9776 14.2448 12.6225 13.4015C13.2674 12.5582 14.2048 11.9872 15.25 11.801V15.9996C15.2501 16.1985 15.3291 16.3892 15.4697 16.5299C15.6104 16.6705 15.8011 16.7495 16 16.7496H20.1717C19.9908 17.7245 19.4749 18.6055 18.7131 19.2402C17.9513 19.8749 16.9915 20.2233 16 20.2252ZM16.75 15.2496V10.8033C17.8711 10.9667 18.9096 11.4877 19.7107 12.2889C20.5118 13.09 21.0329 14.1284 21.1963 15.2496H16.75Z" fill="#0F0F0F"/>
</svg>
