<svg width="32" height="32" viewBox="0 0 32 32" fill="none" xmlns="http://www.w3.org/2000/svg">
<path d="M15.4277 3.28516C8.52417 3.28516 2.92773 8.8816 2.92773 15.7852C2.92773 22.2244 7.79716 27.5271 14.0543 28.2106C14.3288 28.2406 14.527 28.4874 14.497 28.7619C14.4671 29.0365 14.2202 29.2347 13.9457 29.2047C7.18689 28.4664 1.92773 22.7403 1.92773 15.7852C1.92773 8.32931 7.97189 2.28516 15.4277 2.28516C21.5171 2.28516 26.6636 6.31643 28.3465 11.8546C28.4268 12.1188 28.2777 12.3981 28.0134 12.4784C27.7492 12.5587 27.47 12.4096 27.3897 12.1454C25.8312 7.01666 21.0646 3.28516 15.4277 3.28516ZM20.4998 17.1934C20.4998 15.7059 21.7057 14.5 23.1932 14.5C24.6807 14.5 25.8866 15.7059 25.8866 17.1934C25.8866 18.681 24.6807 19.8869 23.1932 19.8869C21.7057 19.8869 20.4998 18.681 20.4998 17.1934ZM23.1932 13.5C21.1534 13.5 19.4998 15.1536 19.4998 17.1934C19.4998 18.7323 20.4408 20.0513 21.7788 20.6064C18.7987 21.132 16.4998 23.5455 16.4998 26.5094C16.4998 27.0926 16.7685 27.5796 17.1712 27.9618C17.5664 28.3367 18.1036 28.6257 18.7017 28.8464C19.8997 29.2885 21.4629 29.5 22.9998 29.5C24.5366 29.5 26.0999 29.2885 27.2978 28.8464C27.896 28.6257 28.4331 28.3367 28.8283 27.9618C29.231 27.5796 29.4998 27.0926 29.4998 26.5094C29.4998 23.6316 27.3326 21.2728 24.4788 20.657C25.8848 20.1349 26.8866 18.7812 26.8866 17.1934C26.8866 15.1536 25.233 13.5 23.1932 13.5ZM17.4998 26.5094C17.4998 23.7822 19.9209 21.5 22.9998 21.5C26.0786 21.5 28.4998 23.7822 28.4998 26.5094C28.4998 26.7565 28.3935 26.9958 28.14 27.2363C27.8789 27.484 27.4786 27.7139 26.9517 27.9083C25.8997 28.2964 24.4629 28.5 22.9998 28.5C21.5366 28.5 20.0999 28.2964 19.0478 27.9083C18.521 27.7139 18.1206 27.484 17.8595 27.2363C17.606 26.9958 17.4998 26.7565 17.4998 26.5094ZM14.9275 7.78516C14.9275 7.50901 15.1513 7.28516 15.4275 7.28516C15.7036 7.28516 15.9275 7.50901 15.9275 7.78516V15.7852C15.9275 15.9178 15.8748 16.0449 15.781 16.1387L10.781 21.1387C10.5858 21.334 10.2692 21.334 10.0739 21.1387C9.87867 20.9434 9.87867 20.6269 10.0739 20.4316L14.9275 15.578V7.78516Z" fill="#0F0F0F"/>
</svg>
