<svg width="32" height="32" viewBox="0 0 32 32" fill="none" xmlns="http://www.w3.org/2000/svg">
<path d="M16.0663 20.3004L4.30355 8.53763C3.55594 9.19109 3.00794 10.0423 2.72257 10.9933C2.43719 11.9444 2.42603 12.9566 2.69037 13.9137C2.9547 14.8709 3.4838 15.7339 4.21682 16.4037C4.94984 17.0735 5.85701 17.5228 6.83402 17.6999L7.67649 17.8604L12.8946 27.0554C13.3106 27.7236 13.9681 28.2059 14.7304 28.4021C15.4927 28.5983 16.3013 28.4934 16.9883 28.1091C17.3329 27.9179 17.6354 27.6593 17.878 27.3487C18.1206 27.0382 18.2983 26.6821 18.4004 26.3015C18.5015 25.9309 18.5273 25.5438 18.4763 25.1631C18.4253 24.7823 18.2986 24.4157 18.1036 24.0847L16.0663 20.3004Z" fill="#0F0F0F"/>
<path d="M29.707 28.2927L22.0047 20.5904L26.5264 21.4519C26.6831 21.4818 26.8424 21.4969 27.002 21.4968C27.5854 21.4969 28.1506 21.2931 28.5996 20.9206C28.8813 20.6888 29.1081 20.3974 29.2638 20.0675C29.4195 19.7376 29.5001 19.3772 29.5 19.0124V5.98118C29.5001 5.61637 29.4195 5.25606 29.2638 4.92613C29.1081 4.5962 28.8813 4.30485 28.5996 4.073C28.3148 3.83676 27.9811 3.66659 27.6226 3.57473C27.2641 3.48287 26.8897 3.4716 26.5264 3.54175L8.4081 6.99375L3.70702 2.2927C3.5191 2.10714 3.2654 2.00346 3.0013 2.00429C2.7372 2.00513 2.48416 2.11041 2.29742 2.29716C2.11068 2.48391 2.00541 2.73696 2.00458 3.00105C2.00376 3.26515 2.10745 3.51885 2.29302 3.70676L28.293 29.7068C28.4809 29.8923 28.7346 29.996 28.9987 29.9952C29.2628 29.9943 29.5159 29.889 29.7026 29.7023C29.8894 29.5155 29.9946 29.2625 29.9955 28.9984C29.9963 28.7343 29.8926 28.4806 29.707 28.2927Z" fill="#0F0F0F"/>
</svg>
