<svg width="32" height="32" viewBox="0 0 32 32" fill="none" xmlns="http://www.w3.org/2000/svg">
<path d="M26.5 3C26.5 2.72386 26.2761 2.5 26 2.5C25.7239 2.5 25.5 2.72386 25.5 3V6.5H22C21.7239 6.5 21.5 6.72386 21.5 7C21.5 7.27614 21.7239 7.5 22 7.5H25.5V11C25.5 11.2761 25.7239 11.5 26 11.5C26.2761 11.5 26.5 11.2761 26.5 11V7.5H30C30.2761 7.5 30.5 7.27614 30.5 7C30.5 6.72386 30.2761 6.5 30 6.5H26.5V3Z" fill="#0F0F0F"/>
<path d="M9 6.5C7.067 6.5 5.5 8.067 5.5 10V24C5.5 25.933 7.067 27.5 9 27.5H23C24.933 27.5 26.5 25.933 26.5 24V16C26.5 15.7239 26.7239 15.5 27 15.5C27.2761 15.5 27.5 15.7239 27.5 16V24C27.5 26.4853 25.4853 28.5 23 28.5H9C6.51472 28.5 4.5 26.4853 4.5 24V10C4.5 7.51472 6.51472 5.5 9 5.5H9.5V3C9.5 2.72386 9.72386 2.5 10 2.5C10.2761 2.5 10.5 2.72386 10.5 3V5.5H17C17.2761 5.5 17.5 5.72386 17.5 6C17.5 6.27614 17.2761 6.5 17 6.5H9Z" fill="#0F0F0F"/>
<path d="M10 11.75C10.4142 11.75 10.75 11.4142 10.75 11C10.75 10.5858 10.4142 10.25 10 10.25C9.58579 10.25 9.25 10.5858 9.25 11C9.25 11.4142 9.58579 11.75 10 11.75Z" fill="#0F0F0F"/>
<path d="M16 11.75C16.4142 11.75 16.75 11.4142 16.75 11C16.75 10.5858 16.4142 10.25 16 10.25C15.5858 10.25 15.25 10.5858 15.25 11C15.25 11.4142 15.5858 11.75 16 11.75Z" fill="#0F0F0F"/>
<path d="M16 17.75C16.4142 17.75 16.75 17.4142 16.75 17C16.75 16.5858 16.4142 16.25 16 16.25C15.5858 16.25 15.25 16.5858 15.25 17C15.25 17.4142 15.5858 17.75 16 17.75Z" fill="#0F0F0F"/>
<path d="M16.75 23C16.75 23.4142 16.4142 23.75 16 23.75C15.5858 23.75 15.25 23.4142 15.25 23C15.25 22.5857 15.5858 22.25 16 22.25C16.4142 22.25 16.75 22.5857 16.75 23Z" fill="#0F0F0F"/>
<path d="M10.75 17C10.75 17.4142 10.4142 17.75 10 17.75C9.58579 17.75 9.25 17.4142 9.25 17C9.25 16.5858 9.58579 16.25 10 16.25C10.4142 16.25 10.75 16.5858 10.75 17Z" fill="#0F0F0F"/>
<path d="M10 23.75C10.4142 23.75 10.75 23.4142 10.75 23C10.75 22.5857 10.4142 22.25 10 22.25C9.58579 22.25 9.25 22.5857 9.25 23C9.25 23.4142 9.58579 23.75 10 23.75Z" fill="#0F0F0F"/>
<path d="M22.75 17C22.75 17.4142 22.4142 17.75 22 17.75C21.5858 17.75 21.25 17.4142 21.25 17C21.25 16.5858 21.5858 16.25 22 16.25C22.4142 16.25 22.75 16.5858 22.75 17Z" fill="#0F0F0F"/>
<path d="M22 23.75C22.4142 23.75 22.75 23.4142 22.75 23C22.75 22.5857 22.4142 22.25 22 22.25C21.5858 22.25 21.25 22.5857 21.25 23C21.25 23.4142 21.5858 23.75 22 23.75Z" fill="#0F0F0F"/>
</svg>
