<svg width="32" height="32" viewBox="0 0 32 32" fill="none" xmlns="http://www.w3.org/2000/svg">
<path d="M19 9H9C8.4473 9 8 9.4473 8 10C8 10.5527 8.4473 11 9 11H19C19.5527 11 20 10.5527 20 10C20 9.4473 19.5527 9 19 9Z" fill="#0F0F0F"/>
<path d="M9 13C8.4473 13 8 13.4473 8 14C8 14.5527 8.4473 15 9 15H13C13.5527 15 14 14.5527 14 14C14 13.4473 13.5527 13 13 13H9Z" fill="#0F0F0F"/>
<path d="M24.7071 18.2927C24.3165 17.9021 23.6837 17.9021 23.293 18.2927L22.0001 19.5857L20.7071 18.2927C20.3165 17.9021 19.6837 17.9021 19.293 18.2927C18.9023 18.6833 18.9024 19.3161 19.293 19.7068L20.586 20.9998L19.293 22.2928C18.9024 22.6834 18.9024 23.3162 19.293 23.7069C19.4883 23.9022 19.7442 23.9999 20 23.9999C20.2558 23.9999 20.5117 23.9022 20.707 23.7069L22.0001 22.4138L23.2931 23.7068C23.4884 23.9021 23.7443 23.9998 24.0001 23.9998C24.2559 23.9998 24.5118 23.9021 24.7071 23.7068C25.0977 23.3162 25.0977 22.6834 24.7071 22.2927L23.4141 20.9997L24.7071 19.7067C25.0978 19.3162 25.0978 18.6834 24.7071 18.2927Z" fill="#0F0F0F"/>
<path d="M23 3H7C4.2432 3 2 5.2432 2 8V18C2 20.7568 4.2432 23 7 23H14V23.4863C14 24.0117 14.2129 24.5263 14.585 24.8984L18.1016 28.415C18.4737 28.7871 18.9883 29 19.5137 29H24.4864C25.0118 29 25.5264 28.7871 25.8985 28.415L29.4151 24.8984C29.7871 24.5262 30 24.0116 30 23.4862V18.5145C30 17.9803 29.792 17.4784 29.4141 17.1005L28 15.6864V8C28 5.2431 25.7568 3 23 3ZM26 13.6864L25.8995 13.5859C25.5216 13.208 25.0196 13 24.4854 13H19.5137C18.9864 13 18.4707 13.2139 18.1016 13.585L14.585 17.1016C14.2129 17.4735 14 17.9882 14 18.5136V21H7C5.3457 21 4 19.6543 4 18V8C4 6.3457 5.3457 5 7 5H23C24.6543 5 26 6.3457 26 8V13.6864ZM16 23.4862V18.5155L19.5137 14.9999H24.4854L28 18.5145V23.4842L24.4863 26.9999L19.5156 27.0009L16 23.4862Z" fill="#0F0F0F"/>
</svg>
