<svg width="32" height="32" viewBox="0 0 32 32" fill="none" xmlns="http://www.w3.org/2000/svg">
<path d="M25.0002 7.24951H16.9226C16.7396 7.24219 16.5603 7.196 16.3965 7.114C16.2328 7.032 16.0884 6.91607 15.9729 6.77393L15.2566 5.93115C14.8112 5.40388 14.256 4.98022 13.6299 4.68977C13.0038 4.39931 12.3218 4.24906 11.6316 4.24951H7.00024C5.7409 4.25094 4.53355 4.75184 3.64307 5.64233C2.75258 6.53282 2.25167 7.74017 2.25024 8.99951V22.9995C2.25167 24.2589 2.75258 25.4662 3.64307 26.3567C4.53355 27.2472 5.7409 27.7481 7.00024 27.7495H25.0002C26.2596 27.7481 27.4669 27.2472 28.3574 26.3567C29.2479 25.4662 29.7488 24.2589 29.7502 22.9995V11.9614C29.7438 10.7071 29.2401 9.50658 28.3496 8.62322C27.4591 7.73986 26.2546 7.24582 25.0002 7.24951ZM7.00024 5.74951H11.6316C12.104 5.74915 12.5709 5.85201 12.9994 6.05089C13.4279 6.24976 13.8079 6.53986 14.1126 6.90088L14.8304 7.74561C15.0857 8.05434 15.405 8.30398 15.7663 8.4773C16.1275 8.65062 16.522 8.74349 16.9227 8.74951H25.0003C25.8569 8.7454 26.6802 9.08126 27.2895 9.68341C27.8988 10.2856 28.2443 11.1048 28.2503 11.9614V13.2607L3.75028 13.2422V8.99951C3.75128 8.13787 4.09401 7.3118 4.70327 6.70253C5.31254 6.09325 6.1386 5.75052 7.00024 5.74951ZM25.0002 26.2495H7.00024C6.1386 26.2485 5.31253 25.9058 4.70325 25.2965C4.09397 24.6872 3.75124 23.8612 3.75024 22.9995V14.7422L28.2502 14.7607V22.9995C28.2492 23.8612 27.9065 24.6872 27.2972 25.2965C26.688 25.9058 25.8619 26.2485 25.0002 26.2495Z" fill="#0F0F0F"/>
</svg>
