<svg width="32" height="32" viewBox="0 0 32 32" fill="none" xmlns="http://www.w3.org/2000/svg">
<path d="M28.6711 12.6653C28.6271 12.5772 28.5661 12.4985 28.4917 12.434C28.4173 12.3694 28.3309 12.3201 28.2375 12.2889C28.1441 12.2577 28.0454 12.2452 27.9471 12.2522C27.8488 12.2591 27.7529 12.2854 27.6648 12.3294L16 18.1614L4.33566 12.3294C4.15773 12.2404 3.95174 12.2258 3.76301 12.2887C3.57429 12.3516 3.41828 12.4869 3.32931 12.6649C3.24034 12.8428 3.22571 13.0488 3.28861 13.2375C3.35152 13.4262 3.48683 13.5822 3.66476 13.6712L15.6648 19.6712C15.7689 19.7232 15.8838 19.7503 16.0002 19.7503C16.1166 19.7503 16.2315 19.7232 16.3357 19.6712L28.3357 13.6712C28.5135 13.5822 28.6487 13.4263 28.7116 13.2377C28.7745 13.0491 28.7599 12.8432 28.6711 12.6653Z" fill="#0F0F0F"/>
</svg>
