<svg width="32" height="32" viewBox="0 0 32 32" fill="none" xmlns="http://www.w3.org/2000/svg">
<path d="M8.5 6.5C8.5 4.29086 10.2909 2.5 12.5 2.5C14.006 2.5 15.3176 3.33229 16 4.562C16.6824 3.33229 17.994 2.5 19.5 2.5C21.7091 2.5 23.5 4.29086 23.5 6.5C23.5 7.69469 22.9762 8.76706 22.1458 9.5H28C28.8284 9.5 29.5 10.1716 29.5 11V15C29.5 15.8284 28.8284 16.5 28 16.5H27.5V26C27.5 27.933 25.933 29.5 24 29.5H8C6.067 29.5 4.5 27.933 4.5 26V16.5H4C3.17157 16.5 2.5 15.8284 2.5 15V11C2.5 10.1716 3.17157 9.5 4 9.5H9.85418C9.02375 8.76706 8.5 7.69469 8.5 6.5ZM16.5 10.5V15.5H28C28.2761 15.5 28.5 15.2761 28.5 15V11C28.5 10.7239 28.2761 10.5 28 10.5H16.5ZM15.5 9.5V6.5C15.5 4.84315 14.1569 3.5 12.5 3.5C10.8431 3.5 9.5 4.84315 9.5 6.5C9.5 8.15685 10.8431 9.5 12.5 9.5H15.5ZM15.5 10.5H4C3.72386 10.5 3.5 10.7239 3.5 11V15C3.5 15.2761 3.72386 15.5 4 15.5H15.5V10.5ZM19.5 9.5C21.1569 9.5 22.5 8.15685 22.5 6.5C22.5 4.84315 21.1569 3.5 19.5 3.5C17.8431 3.5 16.5 4.84315 16.5 6.5V9.5H19.5ZM16.5 16.5V28.5H24C25.3807 28.5 26.5 27.3807 26.5 26V16.5H16.5ZM15.5 16.5H5.5V26C5.5 27.3807 6.61929 28.5 8 28.5H15.5V16.5Z" fill="#0F0F0F"/>
</svg>
