<svg width="32" height="32" viewBox="0 0 32 32" fill="none" xmlns="http://www.w3.org/2000/svg">
<path d="M8.25 7C7.55964 7 7 7.55964 7 8.25V9.75C7 10.4404 7.55964 11 8.25 11H9.75C10.4404 11 11 10.4404 11 9.75V8.25C11 7.55964 10.4404 7 9.75 7H8.25Z" fill="#0F0F0F"/>
<path d="M3 6C3 4.34315 4.34315 3 6 3H12C13.6569 3 15 4.34315 15 6V12C15 13.6569 13.6569 15 12 15H6C4.34315 15 3 13.6569 3 12V6ZM6 5C5.44772 5 5 5.44772 5 6V12C5 12.5523 5.44772 13 6 13H12C12.5523 13 13 12.5523 13 12V6C13 5.44772 12.5523 5 12 5H6Z" fill="#0F0F0F"/>
<path d="M22.25 7C21.5596 7 21 7.55964 21 8.25V9.75C21 10.4404 21.5596 11 22.25 11H23.75C24.4404 11 25 10.4404 25 9.75V8.25C25 7.55964 24.4404 7 23.75 7H22.25Z" fill="#0F0F0F"/>
<path d="M17 6C17 4.34315 18.3431 3 20 3H26C27.6569 3 29 4.34315 29 6V12C29 13.6569 27.6569 15 26 15H20C18.3431 15 17 13.6569 17 12V6ZM20 5C19.4477 5 19 5.44772 19 6V12C19 12.5523 19.4477 13 20 13H26C26.5523 13 27 12.5523 27 12V6C27 5.44772 26.5523 5 26 5H20Z" fill="#0F0F0F"/>
<path d="M8.25 21C7.55964 21 7 21.5596 7 22.25V23.75C7 24.4404 7.55964 25 8.25 25H9.75C10.4404 25 11 24.4404 11 23.75V22.25C11 21.5596 10.4404 21 9.75 21H8.25Z" fill="#0F0F0F"/>
<path d="M6 17C4.34315 17 3 18.3431 3 20V26C3 27.6569 4.34315 29 6 29H12C13.6569 29 15 27.6569 15 26V20C15 18.3431 13.6569 17 12 17H6ZM5 20C5 19.4477 5.44772 19 6 19H12C12.5523 19 13 19.4477 13 20V26C13 26.5523 12.5523 27 12 27H6C5.44772 27 5 26.5523 5 26V20Z" fill="#0F0F0F"/>
<path d="M18.25 17C17.5596 17 17 17.5596 17 18.25V19.75C17 20.4404 17.5596 21 18.25 21H19.75C20.4404 21 21 20.4404 21 19.75V18.25C21 17.5596 20.4404 17 19.75 17H18.25Z" fill="#0F0F0F"/>
<path d="M18.25 25C17.5596 25 17 25.5596 17 26.25V27.75C17 28.4404 17.5596 29 18.25 29H19.75C20.4404 29 21 28.4404 21 27.75V26.25C21 25.5596 20.4404 25 19.75 25H18.25Z" fill="#0F0F0F"/>
<path d="M22.25 21C21.5596 21 21 21.5596 21 22.25V23.75C21 24.4404 21.5596 25 22.25 25H23.75C24.4404 25 25 24.4404 25 23.75V22.25C25 21.5596 24.4404 21 23.75 21H22.25Z" fill="#0F0F0F"/>
<path d="M26.25 25C25.5596 25 25 25.5596 25 26.25V27.75C25 28.4404 25.5596 29 26.25 29H27.75C28.4404 29 29 28.4404 29 27.75V26.25C29 25.5596 28.4404 25 27.75 25H26.25Z" fill="#0F0F0F"/>
<path d="M26.25 17C25.5596 17 25 17.5596 25 18.25V19.75C25 20.4404 25.5596 21 26.25 21H27.75C28.4404 21 29 20.4404 29 19.75V18.25C29 17.5596 28.4404 17 27.75 17H26.25Z" fill="#0F0F0F"/>
</svg>
