<svg width="32" height="32" viewBox="0 0 32 32" fill="none" xmlns="http://www.w3.org/2000/svg">
<path d="M25 5.5H7C5.80693 5.5013 4.66309 5.97583 3.81946 6.81946C2.97583 7.66309 2.5013 8.80693 2.5 10V22C2.5013 23.1931 2.97583 24.3369 3.81946 25.1805C4.66309 26.0242 5.80693 26.4987 7 26.5H25C26.1931 26.4987 27.3369 26.0242 28.1805 25.1805C29.0242 24.3369 29.4987 23.1931 29.5 22V10C29.4987 8.80692 29.0242 7.66309 28.1805 6.81946C27.3369 5.97582 26.1931 5.5013 25 5.5ZM3.5 22V10C3.50112 9.07209 3.87023 8.1825 4.52637 7.52637C5.1825 6.87023 6.07209 6.50112 7 6.5H20.5156V25.5H7C6.07209 25.4989 5.1825 25.1298 4.52637 24.4736C3.87023 23.8175 3.50112 22.9279 3.5 22ZM28.5 22C28.4989 22.9279 28.1298 23.8175 27.4736 24.4736C26.8175 25.1298 25.9279 25.4989 25 25.5H21.5156V6.5H25C25.9279 6.50112 26.8175 6.87023 27.4736 7.52637C28.1298 8.1825 28.4989 9.07209 28.5 10V22Z" fill="#0F0F0F"/>
<path d="M25 14.5C24.9343 14.5 24.8693 14.5129 24.8086 14.538C24.7479 14.5631 24.6928 14.5999 24.6464 14.6464C24.5999 14.6928 24.5631 14.7479 24.538 14.8086C24.5129 14.8693 24.5 14.9343 24.5 15V17C24.5 17.1326 24.5527 17.2598 24.6464 17.3536C24.7402 17.4473 24.8674 17.5 25 17.5C25.1326 17.5 25.2598 17.4473 25.3536 17.3536C25.4473 17.2598 25.5 17.1326 25.5 17V15C25.5 14.9343 25.4871 14.8693 25.462 14.8086C25.4369 14.7479 25.4001 14.6928 25.3536 14.6464C25.3072 14.5999 25.2521 14.5631 25.1914 14.538C25.1307 14.5129 25.0657 14.5 25 14.5Z" fill="#0F0F0F"/>
</svg>
