<svg width="32" height="32" viewBox="0 0 32 32" fill="none" xmlns="http://www.w3.org/2000/svg">
<path d="M29.75 10C29.75 7.37665 27.6234 5.25 25 5.25H16.0203L15.9994 5.24971H6.99943C6.51004 5.25139 6.0246 5.33749 5.56449 5.50422L3.5297 3.46943C3.38906 3.32879 3.19831 3.24978 2.99941 3.24979C2.80052 3.24979 2.60977 3.3288 2.46913 3.46944C2.32849 3.61009 2.24949 3.80084 2.24949 3.99973C2.24949 4.19862 2.32851 4.38937 2.46915 4.53001L27.4691 29.53C27.6098 29.6706 27.8005 29.7497 27.9994 29.7497C28.1983 29.7497 28.3891 29.6706 28.5297 29.53C28.6703 29.3894 28.7493 29.1986 28.7493 28.9997C28.7493 28.8008 28.6703 28.6101 28.5297 28.4695L26.5142 26.454C27.4871 26.0625 28.3177 25.3842 28.8956 24.5091C29.4735 23.6341 29.7713 22.6038 29.7494 21.5554L29.75 10ZM28.25 16.9706L28.2496 16.9823L28.2494 16.9997V21.5554C28.2924 22.4247 28.0129 23.2793 27.4645 23.9552C26.9161 24.6311 26.1375 25.0806 25.2779 25.2177L19.6685 19.6082C20.0478 18.9702 20.2484 18.2419 20.2494 17.4997C20.2483 16.3729 19.8001 15.2926 19.0033 14.4958C18.2066 13.699 17.1262 13.2509 15.9994 13.2497C15.2571 13.2507 14.5287 13.4511 13.8904 13.8301L6.82474 6.76448C6.84807 6.76299 6.87112 6.76034 6.89416 6.7577C6.92894 6.7537 6.96371 6.74971 6.99943 6.74971L25 6.75C26.7949 6.75 28.25 8.20507 28.25 10V16.9706ZM17.9432 15.556C18.4587 16.0715 18.7487 16.7706 18.7494 17.4997C18.7442 17.8379 18.6746 18.172 18.5444 18.4842L15.0149 14.9547C15.3271 14.8245 15.6612 14.755 15.9994 14.7497C16.7285 14.7505 17.4276 15.0404 17.9432 15.556Z" fill="#0F0F0F"/>
<path d="M15.9994 28.2497C19.0932 28.2497 21.2494 27.4108 21.2494 26.6569C21.2419 26.1435 21.1477 25.6349 20.9707 25.1529L22.7179 26.9001C22.4622 28.9928 18.9972 29.7497 15.9994 29.7497C14.5182 29.7757 13.0425 29.564 11.6283 29.1227C9.74257 28.4679 9.28565 27.4887 9.25156 26.7497H6.99943C5.68217 26.6867 4.44333 26.1052 3.55338 25.132C2.66344 24.1588 2.19467 22.873 2.24943 21.5554V10.444C2.24825 9.34912 2.57578 8.27909 3.18961 7.37245L4.2703 8.45301C3.92744 9.06047 3.74797 9.74647 3.74943 10.444V21.5554C3.69541 22.4751 4.00644 23.3789 4.61496 24.0707C5.22348 24.7624 6.08034 25.1861 6.99943 25.2497H9.41874C9.66933 24.248 10.1542 23.3201 10.8335 22.5424C11.5127 21.7647 12.367 21.1594 13.3259 20.7763C12.648 20.2451 12.1538 19.5145 11.9132 18.6875C11.6725 17.8606 11.6974 16.9789 11.9843 16.1669L13.2556 17.4381C13.2554 17.4481 13.254 17.4578 13.2526 17.4675C13.251 17.4781 13.2494 17.4887 13.2494 17.4997C13.2502 18.2288 13.5401 18.9279 14.0557 19.4434C14.5713 19.959 15.2703 20.249 15.9994 20.2497C16.0105 20.2497 16.0211 20.2481 16.0317 20.2466C16.0414 20.2451 16.0511 20.2437 16.0611 20.2435L17.9179 22.1002C17.3043 21.8705 16.6547 21.7518 15.9994 21.7497C14.6533 21.7074 13.3453 22.1999 12.3614 23.1195C11.3775 24.0392 10.7979 25.311 10.7494 26.6569C10.7494 27.4108 12.9057 28.2497 15.9994 28.2497Z" fill="#0F0F0F"/>
</svg>
