<svg width="32" height="32" viewBox="0 0 32 32" fill="none" xmlns="http://www.w3.org/2000/svg">
<path d="M10 2C10.5523 2 11 2.44772 11 3V5H21V3C21 2.44772 21.4477 2 22 2C22.5523 2 23 2.44772 23 3V5C25.7614 5 28 7.23858 28 10V24C28 26.7614 25.7614 29 23 29H9C6.23858 29 4 26.7614 4 24V10C4 7.23858 6.23858 5 9 5V3C9 2.44772 9.44772 2 10 2ZM9 7C7.34315 7 6 8.34315 6 10V24C6 25.6569 7.34315 27 9 27H23C24.6569 27 26 25.6569 26 24V10C26 8.34315 24.6569 7 23 7H9ZM16 12C13.2386 12 11 14.2386 11 17C11 19.7614 13.2386 22 16 22C18.7614 22 21 19.7614 21 17C21 14.2386 18.7614 12 16 12ZM9 17C9 13.134 12.134 10 16 10C19.866 10 23 13.134 23 17C23 20.866 19.866 24 16 24C12.134 24 9 20.866 9 17ZM13.5 16C12.9477 16 12.5 16.4477 12.5 17C12.5 17.5523 12.9477 18 13.5 18H18.5C19.0523 18 19.5 17.5523 19.5 17C19.5 16.4477 19.0523 16 18.5 16H13.5Z" fill="#0F0F0F"/>
</svg>
