<svg width="32" height="32" viewBox="0 0 32 32" fill="none" xmlns="http://www.w3.org/2000/svg">
<path d="M12 2.99974H6C5.20462 3.00061 4.44206 3.31696 3.87964 3.87938C3.31722 4.4418 3.00087 5.20436 3 5.99974V11.9997C3.00087 12.7951 3.31722 13.5577 3.87964 14.1201C4.44206 14.6825 5.20462 14.9989 6 14.9997H12C12.7954 14.9989 13.5579 14.6825 14.1204 14.1201C14.6828 13.5577 14.9991 12.7951 15 11.9997V5.99974C14.9991 5.20436 14.6828 4.4418 14.1204 3.87938C13.5579 3.31696 12.7954 3.00061 12 2.99974ZM13 11.9997C12.9998 12.2649 12.8944 12.5192 12.7069 12.7067C12.5194 12.8941 12.2652 12.9996 12 12.9997H6C5.73484 12.9996 5.48059 12.8941 5.29309 12.7067C5.10559 12.5192 5.00018 12.2649 5 11.9997V5.99974C5.00018 5.73458 5.10559 5.48033 5.29309 5.29283C5.48059 5.10533 5.73484 4.99992 6 4.99974H12C12.2652 4.99992 12.5194 5.10533 12.7069 5.29283C12.8944 5.48033 12.9998 5.73458 13 5.99974V11.9997Z" fill="#0F0F0F"/>
<path d="M26 2.99974H20C19.2046 3.00061 18.4421 3.31696 17.8796 3.87938C17.3172 4.4418 17.0009 5.20436 17 5.99974V11.9997C17.0009 12.7951 17.3172 13.5577 17.8796 14.1201C18.4421 14.6825 19.2046 14.9989 20 14.9997H26C26.7954 14.9989 27.5579 14.6825 28.1204 14.1201C28.6828 13.5577 28.9991 12.7951 29 11.9997V5.99974C28.9991 5.20436 28.6828 4.4418 28.1204 3.87938C27.5579 3.31696 26.7954 3.00061 26 2.99974ZM27 11.9997C26.9998 12.2649 26.8944 12.5192 26.7069 12.7067C26.5194 12.8941 26.2652 12.9996 26 12.9997H20C19.7348 12.9996 19.4806 12.8941 19.2931 12.7067C19.1056 12.5192 19.0002 12.2649 19 11.9997V5.99974C19.0002 5.73458 19.1056 5.48033 19.2931 5.29283C19.4806 5.10533 19.7348 4.99992 20 4.99974H26C26.2652 4.99992 26.5194 5.10533 26.7069 5.29283C26.8944 5.48033 26.9998 5.73458 27 5.99974V11.9997Z" fill="#0F0F0F"/>
<path d="M26 16.9997H20C19.2046 17.0006 18.4421 17.317 17.8796 17.8794C17.3172 18.4418 17.0009 19.2044 17 19.9997V25.9997C17.0009 26.7951 17.3172 27.5577 17.8796 28.1201C18.4421 28.6825 19.2046 28.9989 20 28.9997H26C26.7954 28.9989 27.5579 28.6825 28.1204 28.1201C28.6828 27.5577 28.9991 26.7951 29 25.9997V19.9997C28.9991 19.2044 28.6828 18.4418 28.1204 17.8794C27.5579 17.317 26.7954 17.0006 26 16.9997ZM27 25.9997C26.9998 26.2649 26.8944 26.5192 26.7069 26.7067C26.5194 26.8941 26.2652 26.9996 26 26.9997H20C19.7348 26.9996 19.4806 26.8941 19.2931 26.7067C19.1056 26.5192 19.0002 26.2649 19 25.9997V19.9997C19.0002 19.7346 19.1056 19.4803 19.2931 19.2928C19.4806 19.1053 19.7348 18.9999 20 18.9997H26C26.2652 18.9999 26.5194 19.1053 26.7069 19.2928C26.8944 19.4803 26.9998 19.7346 27 19.9997V25.9997Z" fill="#0F0F0F"/>
<path d="M12 16.9997H6C5.20462 17.0006 4.44206 17.317 3.87964 17.8794C3.31722 18.4418 3.00087 19.2044 3 19.9997V25.9997C3.00087 26.7951 3.31722 27.5577 3.87964 28.1201C4.44206 28.6825 5.20462 28.9989 6 28.9997H12C12.7954 28.9989 13.5579 28.6825 14.1204 28.1201C14.6828 27.5577 14.9991 26.7951 15 25.9997V19.9997C14.9991 19.2044 14.6828 18.4418 14.1204 17.8794C13.5579 17.317 12.7954 17.0006 12 16.9997ZM13 25.9997C12.9998 26.2649 12.8944 26.5192 12.7069 26.7067C12.5194 26.8941 12.2652 26.9996 12 26.9997H6C5.73484 26.9996 5.48059 26.8941 5.29309 26.7067C5.10559 26.5192 5.00018 26.2649 5 25.9997V19.9997C5.00018 19.7346 5.10559 19.4803 5.29309 19.2928C5.48059 19.1053 5.73484 18.9999 6 18.9997H12C12.2652 18.9999 12.5194 19.1053 12.7069 19.2928C12.8944 19.4803 12.9998 19.7346 13 19.9997V25.9997Z" fill="#0F0F0F"/>
</svg>
