<svg width="32" height="32" viewBox="0 0 32 32" fill="none" xmlns="http://www.w3.org/2000/svg">
<path d="M13.8622 9.56336C12.6593 9.62744 11.2632 9.7542 10.3565 9.99568C9.61397 10.1934 8.45902 10.5641 7.38105 11.1868C6.29785 11.8125 5.34816 12.6602 4.92445 13.7879C3.91013 16.4876 4.9169 19.0428 5.84237 20.5209C6.28137 21.222 7.14562 22.1307 8.41283 22.412C9.65509 22.6877 11.4235 22.39 13.7519 20.4057C14.5017 19.7667 15.2183 19.3653 16 19.3653C16.7817 19.3653 17.4983 19.7667 18.2481 20.4057C20.5765 22.39 22.3449 22.6877 23.5871 22.412C24.8543 22.1307 25.7186 21.222 26.1576 20.5209C27.0831 19.0428 28.0898 16.4876 27.0755 13.7879C26.6518 12.6602 25.7021 11.8125 24.6189 11.1868C23.5409 10.5641 22.386 10.1934 21.6435 9.99568C20.7368 9.7542 19.3407 9.62744 18.1379 9.56336C17.5434 9.53169 17.008 9.51583 16.6211 9.5079C16.4278 9.50394 16.2719 9.50197 16.1646 9.50098C16.1109 9.50049 16.0695 9.50024 16.0416 9.50012L16.0101 9.50001H15.99L15.9586 9.50012C15.9307 9.50024 15.8892 9.50049 15.8356 9.50098C15.7283 9.50197 15.5723 9.50394 15.379 9.5079C14.9922 9.51583 14.4567 9.53169 13.8622 9.56336ZM16.0001 9C16.0001 8.5 16.0002 8.5 16.0002 8.5L16.0122 8.50002L16.0459 8.50013C16.0754 8.50026 16.1184 8.50051 16.1738 8.50102C16.2844 8.50204 16.4441 8.50407 16.6416 8.50811C17.0363 8.5162 17.5831 8.53238 18.1911 8.56477C19.3932 8.62882 20.8832 8.75832 21.9008 9.02936C22.6841 9.23797 23.9335 9.63597 25.1191 10.3209C26.2995 11.0027 27.4726 12.0016 28.0116 13.4362C29.1845 16.5579 28.0048 19.455 27.0052 21.0516C26.4816 21.8878 25.4222 23.0289 23.8038 23.3882C22.1605 23.753 20.0814 23.282 17.5995 21.1668C16.9084 20.5779 16.4217 20.3653 16 20.3653C15.5783 20.3653 15.0916 20.5778 14.4005 21.1668C11.9185 23.282 9.83944 23.753 8.19612 23.3882C6.57776 23.0289 5.51838 21.8878 4.9948 21.0516C3.99511 19.455 2.81549 16.5579 3.98834 13.4362C4.52732 12.0016 5.70044 11.0027 6.88084 10.3209C8.06647 9.63597 9.31588 9.23797 10.0991 9.02936C11.1168 8.75832 12.6068 8.62882 13.809 8.56477C14.417 8.53238 14.9638 8.5162 15.3585 8.50811C15.556 8.50407 15.7157 8.50204 15.8264 8.50102C15.8817 8.50051 15.9248 8.50026 15.9542 8.50013L15.9879 8.50002L15.9991 8.5C15.9991 8.5 16.0001 8.5 16.0001 9Z" fill="#0F0F0F"/>
</svg>
