<svg width="120" height="120" viewBox="0 0 120 120" fill="none" xmlns="http://www.w3.org/2000/svg">
<path d="M16.2002 106.2H72.2002M16.2002 106.2H11.2002C10.6002 106.2 10.2002 106.6 10.2002 107.2C10.2002 110 12.4002 112.2 15.2002 112.2H86.2002C95.0002 112.2 102.2 105 102.2 96.2C102.2 76.2 82.2002 74.2 82.2002 60.2C82.2002 46.2 105.2 44.2 109.2 36.2C112.2 30.1 107.9 24.2 102.2 24.2M16.2002 106.2V76.2C16.2002 71.8 19.8002 68.2 24.2002 68.2H64.2002C68.6002 68.2 72.2002 71.8 72.2002 76.2V106.2M72.2002 106.2H78.2002M102.2 33.2V24.7C102.2 16.1 95.6002 8.69999 87.0002 8.29999C77.8002 7.89999 70.2002 15.2 70.2002 24.3V39.2C70.2002 39.8 69.7002 40.3 69.1002 40.2C65.2002 39.6 62.2002 36.3 62.2002 32.3C62.2002 30.3 63.0002 28.4 64.2002 27" stroke="white" stroke-width="2.5" stroke-miterlimit="10" stroke-linecap="round" stroke-linejoin="round"/>
</svg>
