<svg width="120" height="120" viewBox="0 0 120 120" fill="none" xmlns="http://www.w3.org/2000/svg">
<path d="M66.0445 30.3C66.7445 32.3 68.1445 36.6 68.7445 38.3C69.7445 41.3 67.7445 42.3 65.7445 42.3H63.7445M7.64453 80.2C11.6445 68.2 19.6445 48.2 37.6445 48.2H38.6445M111.645 80.2C107.645 68.2 99.6445 48.2 81.6445 48.2H53.6445C49.2445 48.2 45.6445 44.6 45.6445 40.2V32.2C45.6445 27.8 49.2445 24.2 53.6445 24.2H75.1445C78.7445 24.2 81.9445 26.7 82.9445 30.2C83.5445 32.7 83.8445 35.4 83.6445 38.1C82.7445 49.7 73.3445 59.2 61.6445 60.1C46.8445 61.3 34.6445 49 35.7445 34.2C36.6445 22.6 46.0445 13.2 57.6445 12.2C63.9445 11.7 69.8445 13.6 74.3445 17.1M31.6445 72.2V104.2M87.6445 72.2V104.2M69.6445 100.2H49.6445C47.4445 100.2 45.6445 98.4 45.6445 96.2V76.2C45.6445 74 47.4445 72.2 49.6445 72.2H69.6445C71.8445 72.2 73.6445 74 73.6445 76.2V96.2C73.6445 98.5 71.9445 100.2 69.6445 100.2Z" stroke="#0F0F0F" stroke-width="2.5" stroke-miterlimit="10" stroke-linecap="round" stroke-linejoin="round"/>
<path d="M57.6445 34.2C58.7491 34.2 59.6445 33.3045 59.6445 32.2C59.6445 31.0954 58.7491 30.2 57.6445 30.2C56.54 30.2 55.6445 31.0954 55.6445 32.2C55.6445 33.3045 56.54 34.2 57.6445 34.2Z" fill="#0F0F0F"/>
<path d="M52.6445 84.2C53.7491 84.2 54.6445 83.3045 54.6445 82.2C54.6445 81.0954 53.7491 80.2 52.6445 80.2C51.54 80.2 50.6445 81.0954 50.6445 82.2C50.6445 83.3045 51.54 84.2 52.6445 84.2Z" fill="#0F0F0F"/>
<path d="M59.6445 84.2C60.7491 84.2 61.6445 83.3045 61.6445 82.2C61.6445 81.0954 60.7491 80.2 59.6445 80.2C58.54 80.2 57.6445 81.0954 57.6445 82.2C57.6445 83.3045 58.54 84.2 59.6445 84.2Z" fill="#0F0F0F"/>
<path d="M66.6445 84.2C67.7491 84.2 68.6445 83.3045 68.6445 82.2C68.6445 81.0954 67.7491 80.2 66.6445 80.2C65.54 80.2 64.6445 81.0954 64.6445 82.2C64.6445 83.3045 65.54 84.2 66.6445 84.2Z" fill="#0F0F0F"/>
</svg>
