<svg width="120" height="120" viewBox="0 0 120 120" fill="none" xmlns="http://www.w3.org/2000/svg">
<path d="M68.6443 91.2C64.6443 99.2 54.6443 102.2 49.6443 97.2C44.6443 92.2 46.3443 83.4 51.6443 77.2C51.6443 77.2 44.6443 80.2 37.6443 80.2C23.6443 80.2 11.6443 72.2 11.6443 58.2C11.6443 50.2 17.6443 44.2 27.6443 44.2C55.6443 44.2 53.6443 87.2 81.6443 87.2C91.5443 87.2 99.6443 81.2 99.6443 73.7C99.6443 66.2 91.5443 60.2 81.6443 60.2C67.6443 60.2 66.6443 70.2 71.6443 70.2C77.6443 70.2 87.6443 60.2 87.6443 40.2C87.6443 26.9 79.5443 16.2 69.6443 16.2C59.7443 16.2 51.6443 26.9 51.6443 40.2C51.6443 47.2 53.6443 52.2 53.6443 52.2" stroke="url(#paint0_linear_4_2992)" stroke-width="2.5" stroke-miterlimit="10" stroke-linecap="round" stroke-linejoin="round"/>
<defs>
<linearGradient id="paint0_linear_4_2992" x1="55.6443" y1="16.2" x2="55.6443" y2="99.6445" gradientUnits="userSpaceOnUse">
<stop stop-color="#F55868"/>
<stop offset="1" stop-color="#875AE0"/>
</linearGradient>
</defs>
</svg>
