<svg width="120" height="120" viewBox="0 0 120 120" fill="none" xmlns="http://www.w3.org/2000/svg">
<path d="M69.7623 91.759C70.0711 91.1415 69.8208 90.3907 69.2033 90.082C68.5858 89.7732 67.835 90.0235 67.5263 90.641L69.7623 91.759ZM51.6443 77.2L52.5944 78.0122C52.9719 77.5707 52.9954 76.9273 52.6512 76.4593C52.307 75.9914 51.6858 75.8222 51.1519 76.0511L51.6443 77.2ZM52.4837 52.6642C52.7401 53.3052 53.4675 53.617 54.1085 53.3606C54.7495 53.1042 55.0613 52.3767 54.8049 51.7358L52.4837 52.6642ZM67.5263 90.641C65.6821 94.3292 62.4563 96.8547 59.1488 97.8812C55.8301 98.9111 52.6097 98.3977 50.5282 96.3161L48.7604 98.0839C51.6789 101.002 55.9584 101.489 59.8898 100.269C63.8323 99.0453 67.6064 96.0708 69.7623 91.759L67.5263 90.641ZM50.5282 96.3161C48.3671 94.1551 47.5954 91.1269 48.0216 87.8093C48.4492 84.481 50.0812 80.9523 52.5944 78.0122L50.6941 76.3878C47.9074 79.6477 46.0394 83.619 45.542 87.4907C45.0432 91.3731 45.9215 95.2449 48.7604 98.0839L50.5282 96.3161ZM51.6443 77.2C51.1519 76.0511 51.1521 76.051 51.1522 76.0509C51.1522 76.0509 51.1524 76.0509 51.1524 76.0509C51.1524 76.0508 51.1524 76.0509 51.1522 76.0509C51.1519 76.051 51.1512 76.0514 51.1501 76.0518C51.1478 76.0528 51.1438 76.0545 51.1382 76.0569C51.127 76.0616 51.1092 76.069 51.0851 76.0791C51.0368 76.0991 50.9631 76.1293 50.8656 76.1683C50.6706 76.2463 50.381 76.3592 50.0101 76.4954C49.268 76.768 48.2038 77.133 46.9259 77.4981C44.3576 78.2319 40.9822 78.95 37.6443 78.95V81.45C41.3063 81.45 44.931 80.6681 47.6127 79.9019C48.9598 79.517 50.0831 79.132 50.8722 78.8421C51.267 78.6971 51.5789 78.5756 51.7941 78.4895C51.9017 78.4465 51.9852 78.4122 52.0428 78.3883C52.0717 78.3764 52.0941 78.367 52.1098 78.3604C52.1176 78.357 52.1238 78.3544 52.1283 78.3525C52.1306 78.3516 52.1324 78.3508 52.1338 78.3502C52.1345 78.3499 52.1351 78.3496 52.1356 78.3494C52.1358 78.3493 52.1361 78.3492 52.1362 78.3491C52.1365 78.349 52.1367 78.3489 51.6443 77.2ZM37.6443 78.95C30.8688 78.95 24.6576 77.0127 20.1688 73.4689C15.7077 69.9469 12.8943 64.8031 12.8943 58.2H10.3943C10.3943 65.5969 13.5809 71.4531 18.6197 75.4311C23.6309 79.3873 30.4197 81.45 37.6443 81.45V78.95ZM12.8943 58.2C12.8943 54.5266 14.2641 51.3713 16.7351 49.1249C19.2133 46.872 22.8939 45.45 27.6443 45.45V42.95C22.3947 42.95 18.0752 44.528 15.0534 47.2751C12.0245 50.0287 10.3943 53.8734 10.3943 58.2H12.8943ZM27.6443 45.45C40.8359 45.45 46.9974 55.4691 53.5746 66.3468C59.9974 76.9691 66.8359 88.45 81.6443 88.45V85.95C68.4527 85.95 62.2911 75.9309 55.714 65.0532C49.2911 54.4309 42.4527 42.95 27.6443 42.95V45.45ZM81.6443 88.45C86.8373 88.45 91.606 86.878 95.1049 84.2639C98.6051 81.6488 100.894 77.9326 100.894 73.7H98.3943C98.3943 76.9674 96.6335 80.0012 93.6086 82.2611C90.5826 84.522 86.3513 85.95 81.6443 85.95V88.45ZM100.894 73.7C100.894 69.4674 98.6051 65.7512 95.1049 63.1361C91.606 60.522 86.8373 58.95 81.6443 58.95V61.45C86.3513 61.45 90.5826 62.878 93.6086 65.1389C96.6335 67.3988 98.3943 70.4326 98.3943 73.7H100.894ZM81.6443 58.95C74.3815 58.95 70.0982 61.5536 68.424 64.5976C67.599 66.0976 67.4048 67.7503 67.9748 69.1183C68.571 70.5491 69.9201 71.45 71.6443 71.45V68.95C70.8685 68.95 70.4676 68.6009 70.2825 68.1567C70.0712 67.6497 70.0646 66.8024 70.6146 65.8024C71.6903 63.8464 74.907 61.45 81.6443 61.45V58.95ZM71.6443 71.45C75.2614 71.45 79.5925 68.5348 82.9423 63.3812C86.3423 58.1506 88.8943 50.4062 88.8943 40.2H86.3943C86.3943 49.9938 83.9463 57.2495 80.8462 62.0188C77.696 66.8652 74.0271 68.95 71.6443 68.95V71.45ZM88.8943 40.2C88.8943 33.3049 86.7961 27.0351 83.3558 22.4611C79.9155 17.8873 75.075 14.95 69.6443 14.95V17.45C74.1136 17.45 78.2731 19.8627 81.3578 23.9639C84.4425 28.0649 86.3943 33.7951 86.3943 40.2H88.8943ZM69.6443 14.95C64.2136 14.95 59.3731 17.8873 55.9328 22.4611C52.4925 27.0351 50.3943 33.3049 50.3943 40.2H52.8943C52.8943 33.7951 54.8461 28.0649 57.9308 23.9639C61.0155 19.8627 65.175 17.45 69.6443 17.45V14.95ZM50.3943 40.2C50.3943 43.8167 50.9106 46.9145 51.4275 49.1113C51.6862 50.2108 51.9458 51.0878 52.1428 51.695C52.2413 51.9987 52.3242 52.2352 52.3836 52.3987C52.4133 52.4804 52.4372 52.5439 52.4542 52.5884C52.4627 52.6106 52.4695 52.6281 52.4744 52.6408C52.4769 52.6471 52.4789 52.6523 52.4805 52.6562C52.4813 52.6581 52.4819 52.6598 52.4825 52.6611C52.4827 52.6618 52.483 52.6624 52.4832 52.6629C52.4833 52.6632 52.4834 52.6635 52.4834 52.6636C52.4836 52.6639 52.4837 52.6642 53.6443 52.2C54.8049 51.7358 54.805 51.736 54.8051 51.7363C54.8051 51.7363 54.8052 51.7365 54.8052 51.7366C54.8053 51.7368 54.8054 51.737 54.8054 51.737C54.8054 51.7372 54.8054 51.737 54.8052 51.7365C54.8048 51.7356 54.804 51.7334 54.8027 51.7301C54.8 51.7234 54.7956 51.712 54.7895 51.6959C54.7772 51.6637 54.7581 51.613 54.7331 51.5443C54.6831 51.407 54.6098 51.1982 54.5208 50.9237C54.3428 50.3747 54.1024 49.5642 53.8611 48.5387C53.378 46.4855 52.8943 43.5833 52.8943 40.2H50.3943Z" fill="url(#paint0_linear_4_3000)"/>
<defs>
<linearGradient id="paint0_linear_4_3000" x1="55.6443" y1="16.2" x2="55.6443" y2="99.6444" gradientUnits="userSpaceOnUse">
<stop stop-color="#F0677E"/>
<stop offset="1" stop-color="#DB1F2E"/>
</linearGradient>
</defs>
</svg>
