<svg width="120" height="120" viewBox="0 0 120 120" fill="none" xmlns="http://www.w3.org/2000/svg">
<path d="M47.87 47.0762L47.0985 47.838C46.6713 48.2603 46.3321 48.7632 46.1006 49.3176C45.8691 49.8719 45.7499 50.4667 45.7499 51.0674C45.7286 54.1247 46.3226 57.1551 47.4964 59.9781C48.6703 62.8012 50.4001 65.3592 52.5829 67.5001C56.8408 71.7145 62.556 74.1308 68.5457 74.2491C68.5789 74.2491 68.6112 74.2501 68.6444 74.2501C69.8423 74.2426 70.9894 73.7658 71.8397 72.922L72.9022 71.8702C73.329 71.4497 73.668 70.9486 73.8993 70.3959C74.1307 69.8433 74.2498 69.2501 74.2498 68.6509C74.2498 68.0518 74.1307 67.4586 73.8993 66.906C73.668 66.3533 73.329 65.8522 72.9022 65.4317L70.5457 63.1007C69.6821 62.2524 68.52 61.7772 67.3094 61.7772C66.0989 61.7772 64.9367 62.2524 64.0731 63.1007L62.6014 64.5567C62.4088 64.7438 62.1658 64.8707 61.9021 64.9218C61.6385 64.973 61.3657 64.9462 61.117 64.8448C59.7961 64.3113 58.5944 63.5206 57.5819 62.5186C56.4453 61.401 55.5766 60.0404 55.0409 58.5391C54.9585 58.3052 54.9443 58.0526 55 57.8109C55.0556 57.5692 55.1789 57.3483 55.3553 57.1739L56.6981 55.8467C57.1249 55.4261 57.4639 54.9248 57.6952 54.372C57.9266 53.8191 58.0457 53.2258 58.0457 52.6265C58.0457 52.0272 57.9266 51.4339 57.6952 50.8811C57.4639 50.3283 57.1249 49.827 56.6981 49.4063L54.3407 47.0772C53.4775 46.2289 52.3158 45.7534 51.1055 45.7532C49.8953 45.7531 48.7334 46.2282 47.87 47.0762ZM54.9403 51.1846C55.132 51.3728 55.2843 51.5972 55.3882 51.8449C55.4922 52.0925 55.5457 52.3584 55.5457 52.627C55.5457 52.8956 55.4922 53.1615 55.3882 53.4092C55.2843 53.6568 55.132 53.8813 54.9403 54.0694L53.5975 55.3965C53.0837 55.9061 52.7254 56.5512 52.5642 57.2566C52.4031 57.9621 52.4458 58.6988 52.6873 59.3809C53.3481 61.2352 54.4205 62.9157 55.8241 64.2959C57.0713 65.5313 58.5523 66.5057 60.1805 67.1621C60.8818 67.4472 61.6512 67.5206 62.3938 67.3734C63.1364 67.2263 63.8196 66.8649 64.3592 66.334L65.8309 64.878C66.2253 64.4903 66.7563 64.273 67.3094 64.273C67.8625 64.273 68.3934 64.4903 68.7879 64.878L71.1443 67.209C71.3361 67.397 71.4883 67.6214 71.5923 67.869C71.6963 68.1166 71.7498 68.3824 71.7498 68.6509C71.7498 68.9194 71.6963 69.1852 71.5923 69.4328C71.4883 69.6804 71.3361 69.9048 71.1443 70.0928L70.0828 71.1436C69.893 71.3439 69.6628 71.5015 69.4073 71.6059C69.1519 71.7103 68.8772 71.7591 68.6014 71.7491C63.2507 71.6445 58.1449 69.4868 54.3407 65.7227C52.3953 63.8151 50.8535 61.5356 49.8071 59.0199C48.7608 56.5042 48.2312 53.8037 48.2499 51.0792C48.2494 50.8072 48.3028 50.5379 48.4069 50.2867C48.511 50.0354 48.6637 49.8073 48.8563 49.6153L49.6258 48.8555L49.6268 48.8545C50.0212 48.4671 50.552 48.25 51.1049 48.25C51.6577 48.25 52.1885 48.4671 52.5829 48.8545L54.9403 51.1846Z" fill="url(#paint0_linear_4_938)"/>
<path d="M65.5506 5.02546C64.6964 4.94279 63.8343 5.03961 63.0196 5.3097C62.205 5.57979 61.4558 6.01718 60.8202 6.59382C60.169 7.18393 59.6484 7.90371 59.2918 8.70694C58.9353 9.51016 58.7507 10.3791 58.7499 11.2579C58.7476 12.8075 59.3226 14.3024 60.3627 15.4511C61.4029 16.5997 62.8336 17.3198 64.3759 17.4708C73.9661 18.4144 82.9513 22.588 89.8586 29.3074C96.766 36.0269 101.186 44.8936 102.393 54.4542C102.465 54.9952 102.42 55.5452 102.262 56.0675C102.104 56.5899 101.837 57.0726 101.477 57.4835C101.13 57.8839 100.699 58.2044 100.216 58.423C99.7328 58.6417 99.208 58.7532 98.6776 58.7501C97.7532 58.7464 96.8626 58.4026 96.1755 57.7843C95.4884 57.166 95.0528 56.3164 94.952 55.3975C93.9375 47.9556 90.5873 41.0276 85.3839 35.6112C80.1804 30.1949 73.3923 26.5698 65.9969 25.2579C65.1122 25.1077 64.2053 25.1527 63.3398 25.3897C62.4743 25.6267 61.671 26.05 60.9862 26.6299C60.074 27.395 59.399 28.4043 59.0404 29.5395C58.6818 30.6747 58.6545 31.8887 58.9617 33.0389C59.2689 34.1891 59.8978 35.2278 60.7746 36.033C61.6515 36.8383 62.7398 37.3767 63.912 37.5851C68.951 38.466 73.5462 41.019 76.9562 44.8321C80.3662 48.6452 82.392 53.496 82.7067 58.6017C83.0215 63.7075 81.6068 68.7704 78.691 72.9734C75.7751 77.1765 71.5283 80.2745 66.6356 81.7677C66.4786 81.8155 66.3326 81.8938 66.2059 81.9981C66.0792 82.1023 65.9742 82.2305 65.8971 82.3754C65.8199 82.5202 65.772 82.6788 65.7561 82.8421C65.7403 83.0054 65.7567 83.1703 65.8045 83.3273C65.8524 83.4842 65.9307 83.6302 66.0349 83.757C66.1392 83.8837 66.2674 83.9886 66.4122 84.0658C66.557 84.143 66.7156 84.1908 66.879 84.2067C67.0423 84.2226 67.2071 84.2061 67.3641 84.1583C72.7947 82.5014 77.5086 79.063 80.7451 74.3979C83.9815 69.7329 85.5515 64.1134 85.2019 58.4464C84.8523 52.7794 82.6033 47.3955 78.818 43.1637C75.0327 38.9318 69.9318 36.0989 64.3387 35.1222C63.4716 34.9715 62.6857 34.5188 62.1203 33.8442C61.555 33.1696 61.2466 32.3167 61.2499 31.4366C61.2495 30.8848 61.37 30.3397 61.6028 29.8395C61.8356 29.3393 62.1752 28.8961 62.5975 28.5411C63.0034 28.1947 63.4806 27.9418 63.9952 27.8004C64.5097 27.6589 65.0491 27.6324 65.5751 27.7227C72.4453 28.9412 78.7514 32.3088 83.5853 37.3404C88.4192 42.3721 91.5314 48.8082 92.4735 55.7217C92.6636 57.2379 93.3971 58.6337 94.5379 59.6503C95.6788 60.6669 97.1496 61.2353 98.6776 61.2501C99.563 61.2501 100.438 61.0612 101.245 60.6962C102.052 60.3311 102.771 59.7981 103.355 59.1329C103.949 58.4551 104.391 57.6586 104.653 56.7964C104.914 55.9342 104.989 55.0262 104.872 54.1329C103.594 44.0123 98.9153 34.6263 91.6033 27.5134C84.2913 20.4005 74.7797 15.9827 64.6278 14.9844C63.7023 14.8942 62.8436 14.4625 62.2191 13.7735C61.5946 13.0846 61.2491 12.1877 61.2499 11.2579C61.2504 10.7284 61.3616 10.2048 61.5764 9.72082C61.7911 9.23681 62.1047 8.80304 62.4969 8.44734C62.8708 8.10044 63.3147 7.83763 63.7986 7.6766C64.2826 7.51556 64.7954 7.46003 65.3026 7.51374C78.3265 8.78392 90.408 14.8678 99.1833 24.575C107.959 34.2823 112.796 46.9144 112.75 60.0001C112.75 60.3316 112.882 60.6495 113.116 60.8839C113.35 61.1184 113.668 61.2501 114 61.2501C114.331 61.2501 114.649 61.1184 114.884 60.8839C115.118 60.6495 115.25 60.3316 115.25 60.0001C115.298 46.2938 110.23 33.0627 101.039 22.8952C91.8469 12.7278 79.1923 6.35568 65.5506 5.02546Z" fill="url(#paint1_linear_4_938)"/>
<path d="M21.3221 61.2501C22.2465 61.2538 23.1371 61.5976 23.8242 62.2159C24.5114 62.8342 24.9469 63.6838 25.0477 64.6026C26.0622 72.0446 29.4124 78.9726 34.6158 84.3889C39.8193 89.8052 46.6074 93.4303 54.0028 94.7423C54.8875 94.8929 55.7945 94.8482 56.6601 94.6111C57.5257 94.3741 58.329 93.9506 59.0135 93.3702C59.9257 92.6052 60.6007 91.5958 60.9593 90.4606C61.3179 89.3254 61.3452 88.1114 61.038 86.9613C60.7308 85.8111 60.1019 84.7724 59.2251 83.9671C58.3482 83.1618 57.2599 82.6234 56.0877 82.4151C51.0487 81.5341 46.4535 78.9811 43.0435 75.168C39.6335 71.3549 37.6077 66.5042 37.293 61.3984C36.9782 56.2927 38.3929 51.2298 41.3087 47.0267C44.2246 42.8237 48.4715 39.7256 53.3641 38.2324C53.6811 38.1358 53.9468 37.9173 54.1026 37.6248C54.2585 37.3323 54.2918 36.9899 54.1952 36.6729C54.0986 36.3559 53.88 36.0902 53.5875 35.9344C53.295 35.7785 52.9526 35.7452 52.6356 35.8418C47.205 37.4987 42.4911 40.9372 39.2546 45.6022C36.0182 50.2673 34.4482 55.8868 34.7978 61.5538C35.1474 67.2208 37.3964 72.6046 41.1817 76.8365C44.967 81.0683 50.0679 83.9012 55.661 84.878C56.5281 85.0286 57.314 85.4814 57.8794 86.1559C58.4447 86.8305 58.7531 87.6834 58.7499 88.5635C58.7502 89.1153 58.6297 89.6604 58.3969 90.1606C58.1641 90.6609 57.8246 91.104 57.4022 91.459C56.9958 91.8047 56.5186 92.0571 56.0042 92.1985C55.4898 92.3398 54.9506 92.3668 54.4247 92.2774C47.5545 91.0589 41.2483 87.6914 36.4144 82.6597C31.5805 77.628 28.4684 71.1919 27.5262 64.2784C27.3361 62.7622 26.6026 61.3664 25.4618 60.3498C24.3209 59.3332 22.8501 58.7648 21.3221 58.7501C20.4367 58.75 19.5615 58.9389 18.7548 59.304C17.9482 59.6691 17.2287 60.202 16.6444 60.8673C16.0507 61.545 15.6084 62.3415 15.3469 63.2037C15.0853 64.0659 15.0106 64.9739 15.1278 65.8673C16.4059 75.9878 21.0844 85.3739 28.3964 92.4868C35.7084 99.5997 45.22 104.017 55.3719 105.016C56.2974 105.106 57.1561 105.538 57.7806 106.227C58.4051 106.916 58.7506 107.812 58.7499 108.742C58.7493 109.272 58.6381 109.795 58.4233 110.279C58.2086 110.763 57.895 111.197 57.5028 111.553C57.1284 111.899 56.6845 112.161 56.2006 112.322C55.7168 112.483 55.2043 112.539 54.6971 112.486C41.6732 111.216 29.5917 105.132 20.8165 95.4251C12.0412 85.7179 7.20348 73.0857 7.24985 60.0001C7.24985 59.6685 7.11815 59.3506 6.88373 59.1162C6.64931 58.8818 6.33137 58.7501 5.99985 58.7501C5.66833 58.7501 5.35039 58.8818 5.11597 59.1162C4.88155 59.3506 4.74985 59.6685 4.74985 60.0001C4.70178 73.7064 9.76933 86.9375 18.9611 97.1049C28.1528 107.272 40.8074 113.644 54.4491 114.975C54.6493 114.994 54.8495 115.004 55.0497 115.004C56.5767 115.002 58.0485 114.432 59.1795 113.406C59.8307 112.816 60.3513 112.096 60.7079 111.293C61.0644 110.49 61.249 109.621 61.2499 108.742C61.2521 107.193 60.6771 105.698 59.637 104.549C58.5968 103.4 57.1661 102.68 55.6239 102.529C46.0336 101.586 37.0485 97.4121 30.1411 90.6927C23.2337 83.9732 18.814 75.1065 17.6063 65.546C17.535 65.0049 17.5799 64.4549 17.7378 63.9326C17.8958 63.4103 18.1632 62.9276 18.5223 62.5167C18.8701 62.1162 19.3004 61.7957 19.7837 61.5771C20.2669 61.3585 20.7917 61.2469 21.3221 61.2501Z" fill="url(#paint2_linear_4_938)"/>
<defs>
<linearGradient id="paint0_linear_4_938" x1="59.9999" y1="4.99683" x2="59.9999" y2="115.004" gradientUnits="userSpaceOnUse">
<stop stop-color="#F55868"/>
<stop offset="1" stop-color="#875AE0"/>
</linearGradient>
<linearGradient id="paint1_linear_4_938" x1="59.9999" y1="4.99683" x2="59.9999" y2="115.004" gradientUnits="userSpaceOnUse">
<stop stop-color="#F55868"/>
<stop offset="1" stop-color="#875AE0"/>
</linearGradient>
<linearGradient id="paint2_linear_4_938" x1="59.9999" y1="4.99683" x2="59.9999" y2="115.004" gradientUnits="userSpaceOnUse">
<stop stop-color="#F55868"/>
<stop offset="1" stop-color="#875AE0"/>
</linearGradient>
</defs>
</svg>
