<svg width="120" height="120" viewBox="0 0 120 120" fill="none" xmlns="http://www.w3.org/2000/svg">
<path d="M84.7499 88.7162C84.2618 88.228 83.4703 88.228 82.9822 88.7162C82.494 89.2043 82.494 89.9958 82.9822 90.4839L84.7499 88.7162ZM83.8661 104.7L84.7366 105.597C84.7411 105.593 84.7455 105.588 84.7499 105.584L83.8661 104.7ZM80.4661 108L79.5955 107.103C79.591 107.107 79.5866 107.112 79.5822 107.116L80.4661 108ZM72.8661 111.1L72.9107 109.851C72.9053 109.851 72.9 109.851 72.8946 109.85L72.8661 111.1ZM24.5661 90.5001L23.6822 91.384L23.6855 91.3873L24.5661 90.5001ZM3.96605 40.3001L5.21605 40.3069V40.3001H3.96605ZM7.06605 32.7001L7.94994 33.584L7.94994 33.584L7.06605 32.7001ZM9.56605 30.2001L8.68217 29.3162L9.56605 30.2001ZM24.6661 30.2001L25.5499 29.3162L24.6661 30.2001ZM32.1661 37.7001L31.2822 38.584V38.584L32.1661 37.7001ZM25.8661 65.7001L24.6802 66.0954C24.684 66.1066 24.6879 66.1179 24.692 66.1291L25.8661 65.7001ZM47.5661 88.5001L48.0495 87.3473L48.0433 87.3447L47.5661 88.5001ZM56.5661 86.7001L55.6822 85.8162C55.6759 85.8224 55.6697 85.8288 55.6636 85.8352L56.5661 86.7001ZM86.99 31.8809C87.4212 32.42 88.2078 32.5074 88.7469 32.0762C89.286 31.6449 89.3734 30.8583 88.9421 30.3192L86.99 31.8809ZM96.8499 38.2162C96.3618 37.728 95.5703 37.728 95.0822 38.2162C94.594 38.7043 94.594 39.4958 95.0822 39.984L96.8499 38.2162ZM115.677 52.3161C116.348 52.476 117.022 52.0612 117.182 51.3896C117.342 50.718 116.927 50.044 116.256 49.8841L115.677 52.3161ZM92.2161 40.1001C92.2161 39.4097 91.6564 38.8501 90.9661 38.8501C90.2757 38.8501 89.7161 39.4097 89.7161 40.1001H92.2161ZM89.7161 48.1001C89.7161 48.7904 90.2757 49.3501 90.9661 49.3501C91.6564 49.3501 92.2161 48.7904 92.2161 48.1001H89.7161ZM86.9661 37.3501C87.6564 37.3501 88.2161 36.7904 88.2161 36.1001C88.2161 35.4097 87.6564 34.8501 86.9661 34.8501V37.3501ZM78.9661 34.8501C78.2757 34.8501 77.7161 35.4097 77.7161 36.1001C77.7161 36.7904 78.2757 37.3501 78.9661 37.3501V34.8501ZM91.7161 30.1001C91.7161 30.7904 92.2757 31.3501 92.9661 31.3501C93.6564 31.3501 94.2161 30.7904 94.2161 30.1001H91.7161ZM94.2161 22.1001C94.2161 21.4097 93.6564 20.8501 92.9661 20.8501C92.2757 20.8501 91.7161 21.4097 91.7161 22.1001H94.2161ZM96.9661 32.8501C96.2757 32.8501 95.7161 33.4097 95.7161 34.1001C95.7161 34.7904 96.2757 35.3501 96.9661 35.3501V32.8501ZM104.966 35.3501C105.656 35.3501 106.216 34.7904 106.216 34.1001C106.216 33.4097 105.656 32.8501 104.966 32.8501V35.3501ZM82.9822 90.4839C86.694 94.1958 86.694 100.104 82.9822 103.816L84.7499 105.584C89.4381 100.896 89.4381 93.4043 84.7499 88.7162L82.9822 90.4839ZM82.9955 103.803L79.5955 107.103L81.3367 108.897L84.7366 105.597L82.9955 103.803ZM79.5822 107.116C77.805 108.893 75.3332 109.937 72.9107 109.851L72.8214 112.349C75.9989 112.463 79.1271 111.107 81.3499 108.884L79.5822 107.116ZM72.8946 109.85C55.704 109.457 38.6121 102.68 25.4466 89.6129L23.6855 91.3873C37.32 104.92 55.0281 111.943 72.8375 112.35L72.8946 109.85ZM25.4499 89.6162C11.7967 75.963 5.11778 58.1884 5.21603 40.3069L2.71607 40.2932C2.61432 58.8117 9.5354 77.2372 23.6822 91.3839L25.4499 89.6162ZM5.21605 40.3001C5.21605 37.8154 6.19556 35.3383 7.94994 33.584L6.18217 31.8162C3.93654 34.0618 2.71605 37.1847 2.71605 40.3001H5.21605ZM7.94994 33.584L10.4499 31.084L8.68217 29.3162L6.18217 31.8162L7.94994 33.584ZM10.4499 31.084C14.1618 27.3721 20.0703 27.3721 23.7822 31.084L25.5499 29.3162C20.8618 24.628 13.3703 24.628 8.68217 29.3162L10.4499 31.084ZM31.2822 38.584C34.994 42.2958 34.994 48.2043 31.2822 51.9162L33.0499 53.684C37.7381 48.9958 37.7381 41.5043 33.0499 36.8162L31.2822 38.584ZM31.2822 51.9162L26.9822 56.2162L28.7499 57.984L33.0499 53.684L31.2822 51.9162ZM26.9822 56.2162C24.3354 58.863 23.5359 62.6625 24.6802 66.0954L27.0519 65.3048C26.1962 62.7377 26.7967 59.9372 28.7499 57.984L26.9822 56.2162ZM24.692 66.1291C26.6483 71.4833 29.7415 76.6432 34.0822 80.984L35.8499 79.2162C31.7906 75.1569 28.8838 70.3168 27.0401 65.2711L24.692 66.1291ZM34.0822 80.984C37.9025 84.8042 42.3419 87.6947 47.0889 89.6554L48.0433 87.3447C43.5902 85.5054 39.4297 82.7959 35.8499 79.2162L34.0822 80.984ZM47.0826 89.6528C50.6429 91.1458 54.7982 90.3514 57.4685 87.5649L55.6636 85.8352C53.7339 87.8488 50.6892 88.4543 48.0495 87.3473L47.0826 89.6528ZM57.4499 87.5839L62.1499 82.8839L60.3822 81.1162L55.6822 85.8162L57.4499 87.5839ZM62.1499 82.8839C63.9767 81.0572 66.5711 80.168 69.0998 80.0996C71.6624 80.0304 73.904 80.8058 75.0822 81.984L76.8499 80.2162C75.0281 78.3944 72.0197 77.5198 69.0323 77.6005C66.011 77.6822 62.7554 78.7429 60.3822 81.1162L62.1499 82.8839ZM75.0822 81.984C76.1047 83.0065 76.1518 84.3508 75.4015 85.5699C74.6357 86.8144 73.0449 87.8501 70.9661 87.8501V90.3501C73.8872 90.3501 76.2964 88.8857 77.5306 86.8802C78.7804 84.8494 78.8274 82.1937 76.8499 80.2162L75.0822 81.984ZM70.9661 87.8501C66.5691 87.8501 61.9558 84.628 57.8098 79.1001C53.7054 73.6276 50.2665 66.1562 48.1742 58.2792C46.0808 50.3985 45.3628 42.2155 46.6026 35.3213C47.8411 28.4339 50.9951 22.9831 56.5251 20.2181L55.407 17.982C48.937 21.2171 45.466 27.5162 44.142 34.8788C42.8193 42.2347 43.6013 50.8017 45.7579 58.921C47.9156 67.0439 51.4767 74.8226 55.8098 80.6001C60.1013 86.3221 65.363 90.3501 70.9661 90.3501V87.8501ZM56.5251 20.2181C63.9186 16.5213 71.4045 19.228 77.2727 23.1401C80.1842 25.0812 82.6205 27.2723 84.3322 28.984C85.1864 29.8382 85.8561 30.5689 86.31 31.0833C86.5369 31.3405 86.7096 31.5433 86.8243 31.6802C86.8816 31.7486 86.9244 31.8005 86.9522 31.8345C86.9661 31.8515 86.9762 31.8639 86.9826 31.8717C86.9857 31.8756 86.9879 31.8784 86.9892 31.8799C86.9898 31.8807 86.9902 31.8812 86.9903 31.8813C86.9904 31.8814 86.9903 31.8813 86.9903 31.8814C86.9902 31.8812 86.99 31.8809 87.9661 31.1001C88.9421 30.3192 88.9418 30.3188 88.9414 30.3183C88.9412 30.3181 88.9408 30.3175 88.9404 30.317C88.9395 30.3159 88.9384 30.3146 88.9371 30.3129C88.9345 30.3096 88.9308 30.3051 88.9262 30.2995C88.9171 30.2881 88.904 30.272 88.8871 30.2514C88.8534 30.2102 88.8044 30.1507 88.7406 30.0746C88.6131 29.9225 88.4265 29.7034 88.1846 29.4293C87.701 28.8813 86.9957 28.112 86.0999 27.2162C84.3116 25.4279 81.7479 23.119 78.6594 21.06C72.5276 16.9721 64.0135 13.6788 55.407 17.982L56.5251 20.2181ZM95.0822 39.984C99.9552 44.857 105.082 47.9328 108.992 49.7915C110.948 50.7214 112.603 51.3487 113.777 51.7452C114.364 51.9435 114.83 52.0843 115.154 52.1764C115.316 52.2225 115.443 52.2564 115.531 52.2793C115.575 52.2908 115.609 52.2995 115.634 52.3056C115.646 52.3086 115.655 52.311 115.663 52.3127C115.666 52.3136 115.669 52.3143 115.672 52.3149C115.673 52.3152 115.674 52.3154 115.674 52.3156C115.675 52.3157 115.675 52.3158 115.676 52.3159C115.676 52.316 115.677 52.3161 115.966 51.1001C116.256 49.8841 116.256 49.8841 116.256 49.8842C116.256 49.8842 116.257 49.8843 116.257 49.8843C116.257 49.8844 116.257 49.8844 116.257 49.8843C116.257 49.8843 116.256 49.8841 116.254 49.8837C116.251 49.883 116.246 49.8816 116.238 49.8797C116.222 49.8757 116.196 49.8692 116.161 49.86C116.09 49.8417 115.982 49.8126 115.838 49.7718C115.551 49.6901 115.123 49.5613 114.577 49.3768C113.485 49.0077 111.922 48.4162 110.065 47.5337C106.35 45.7674 101.477 42.8432 96.8499 38.2162L95.0822 39.984ZM89.7161 40.1001V48.1001H92.2161V40.1001H89.7161ZM86.9661 34.8501H78.9661V37.3501H86.9661V34.8501ZM94.2161 30.1001V22.1001H91.7161V30.1001H94.2161ZM96.9661 35.3501H104.966V32.8501H96.9661V35.3501ZM23.7822 31.084L31.2822 38.584L33.0499 36.8162L25.5499 29.3162L23.7822 31.084Z" fill="url(#paint0_linear_4_1335)"/>
<defs>
<linearGradient id="paint0_linear_4_1335" x1="59.9655" y1="17.2112" x2="59.9655" y2="111.106" gradientUnits="userSpaceOnUse">
<stop stop-color="#3CC29A"/>
<stop offset="1" stop-color="#93C437"/>
</linearGradient>
</defs>
</svg>
