<svg width="320" height="320" viewBox="0 0 320 320" fill="none" xmlns="http://www.w3.org/2000/svg">
<path d="M270.2 102.1V89.7002C270.2 79.8002 262.1 71.7002 252.2 71.7002H32.2002C22.3002 71.7002 14.2002 79.8002 14.2002 89.7002V229.7C14.2002 239.6 22.3002 247.7 32.2002 247.7H252.2C262.1 247.7 270.2 239.6 270.2 229.7V154.1M201.8 227.7H132.2C128.9 227.7 126.2 225 126.2 221.7C126.2 218.4 128.9 215.7 132.2 215.7H160.2C163.5 215.7 166.2 213 166.2 209.7C166.2 206.4 163.5 203.7 160.2 203.7H121.6C120.6 203.7 120.2 202.4 121 201.9C130.2 195.8 158.2 175.1 158.2 151.7C158.2 140.7 151 131.7 142.2 131.7C133.4 131.7 126.2 140.7 126.2 151.7C126.2 169.4 140.5 183.7 158.2 183.7C175.9 183.7 190.2 164 190.2 139.7C190.2 113.2 168.7 91.7002 142.2 91.7002C115.7 91.7002 94.2002 113.2 94.2002 139.7C94.2002 152 98.6002 163.2 106.2 171.7M208.7 194.4L279.8 87.8002C284.2 81.2002 293.2 79.4002 299.8 83.8002C306.4 88.2002 308.2 97.2002 303.8 103.8L232.9 210.1C232.2 211.2 231.2 212.1 230 212.7L201.8 227.8L207.5 197.4C207.7 196.3 208.1 195.3 208.7 194.4Z" stroke="url(#paint0_linear_3240_2761)" stroke-width="2.5" stroke-miterlimit="10" stroke-linecap="round" stroke-linejoin="round"/>
<defs>
<linearGradient id="paint0_linear_3240_2761" x1="160.204" y1="71.7002" x2="160.204" y2="247.7" gradientUnits="userSpaceOnUse">
<stop stop-color="#F55868"/>
<stop offset="1" stop-color="#875AE0"/>
</linearGradient>
</defs>
</svg>
