<svg width="320" height="320" viewBox="0 0 320 320" fill="none" xmlns="http://www.w3.org/2000/svg">
<path d="M306.94 92.93C306.12 88.82 303.75 85.29 300.27 82.96C296.79 80.64 292.6 79.81 288.5 80.63C284.39 81.45 280.86 83.82 278.53 87.3L271.24 98.23V90C271.24 79.39 262.6 70.75 251.99 70.75H32C21.39 70.75 12.75 79.39 12.75 90V230C12.75 240.61 21.39 249.25 32 249.25H252C262.61 249.25 271.25 240.61 271.25 230V154.74L304.62 104.69C306.94 101.21 307.76 97.03 306.94 92.93ZM268.75 230C268.75 239.24 261.24 246.75 252 246.75H32C22.76 246.75 15.25 239.24 15.25 230V90C15.25 80.76 22.76 73.25 32 73.25H252C261.24 73.25 268.75 80.76 268.75 90V101.99L207.44 193.95C206.74 194.99 206.27 196.15 206.04 197.38L200.53 226.76H132C129.38 226.76 127.25 224.63 127.25 222.01C127.25 219.39 129.38 217.26 132 217.26H160C164 217.26 167.25 214.01 167.25 210.01C167.25 206.01 164 202.76 160 202.76H122.22C127.19 199.39 136.98 192.17 145.26 182.72C149.19 184.36 153.49 185.26 158 185.26C176.33 185.26 191.25 164.96 191.25 140.01C191.25 112.85 169.16 90.76 142 90.76C114.84 90.76 92.75 112.84 92.75 140C92.75 152.3 97.13 163.96 105.07 172.83C105.53 173.34 106.32 173.39 106.84 172.93C107.35 172.47 107.4 171.68 106.94 171.16C99.41 162.74 95.26 151.68 95.26 139.99C95.26 114.21 116.23 93.24 142.01 93.24C167.79 93.24 188.76 114.21 188.76 139.99C188.76 163.56 174.97 182.74 158.01 182.74C154.12 182.74 150.41 182.01 146.98 180.69C153.84 172.35 159.26 162.45 159.26 151.99C159.26 140.27 151.52 130.74 142.01 130.74C132.5 130.74 124.76 140.27 124.76 151.99C124.76 164.9 132.16 176.1 142.93 181.61C134.57 191 124.67 198.11 120.16 201.12C119.33 201.67 118.97 202.69 119.26 203.64C119.55 204.6 120.42 205.24 121.42 205.24H160C162.62 205.24 164.75 207.37 164.75 209.99C164.75 212.61 162.62 214.74 160 214.74H132C128 214.74 124.75 217.99 124.75 221.99C124.75 225.99 128 229.24 132 229.24H201.58C201.73 229.24 201.87 229.21 202.01 229.15C202.04 229.14 202.07 229.13 202.1 229.11C202.12 229.1 202.14 229.1 202.17 229.08L230.4 214.03C231.74 213.31 232.9 212.26 233.74 211L268.76 158.47V230H268.75ZM144.61 179.68C134.35 174.69 127.25 164.16 127.25 152C127.25 141.66 133.87 133.25 142 133.25C150.13 133.25 156.75 141.66 156.75 152C156.75 162.03 151.37 171.6 144.61 179.68ZM231.65 209.63C231.03 210.55 230.19 211.32 229.21 211.84L203.28 225.67L208.5 197.83C208.67 196.93 209.01 196.09 209.52 195.33L280.61 88.69C282.56 85.76 285.54 83.77 288.99 83.08C289.86 82.91 290.73 82.82 291.6 82.82C294.17 82.82 296.69 83.58 298.88 85.04C301.81 86.99 303.8 89.97 304.49 93.42C305.18 96.87 304.49 100.38 302.53 103.31L231.65 209.63Z" fill="url(#paint0_linear_4_923)"/>
<defs>
<linearGradient id="paint0_linear_4_923" x1="160" y1="70.75" x2="160" y2="249.25" gradientUnits="userSpaceOnUse">
<stop stop-color="#93C437"/>
<stop offset="1" stop-color="#279BE8"/>
</linearGradient>
</defs>
</svg>
