<svg width="120" height="120" viewBox="0 0 120 120" fill="none" xmlns="http://www.w3.org/2000/svg">
<path d="M80.7441 104.4V85.4001C80.7441 70.4001 96.7441 66.4001 96.7441 52.4001C96.7441 46.4001 92.7441 40.1001 88.7441 34.1001L76.6441 16.2001C75.7441 14.9001 73.8441 15.0001 73.1441 16.4001L68.6441 25.3001H59.6441L50.1441 15.8001C49.0441 14.7001 47.1441 15.2001 46.8441 16.7001L37.7441 52.3001C34.7441 64.3001 31.7441 74.3001 22.7441 84.3001" stroke="url(#paint0_linear_3240_4615)" stroke-width="2.5" stroke-miterlimit="10" stroke-linecap="round" stroke-linejoin="round"/>
<path d="M78.6445 46.4001C79.7491 46.4001 80.6445 45.5047 80.6445 44.4001C80.6445 43.2956 79.7491 42.4001 78.6445 42.4001C77.54 42.4001 76.6445 43.2956 76.6445 44.4001C76.6445 45.5047 77.54 46.4001 78.6445 46.4001Z" fill="#57C37D"/>
<path d="M60.6445 46.4001C61.7491 46.4001 62.6445 45.5047 62.6445 44.4001C62.6445 43.2956 61.7491 42.4001 60.6445 42.4001C59.54 42.4001 58.6445 43.2956 58.6445 44.4001C58.6445 45.5047 59.54 46.4001 60.6445 46.4001Z" fill="#57C37D"/>
<defs>
<linearGradient id="paint0_linear_3240_4615" x1="59.7441" y1="15.2058" x2="59.7441" y2="104.4" gradientUnits="userSpaceOnUse">
<stop stop-color="#3CC29A"/>
<stop offset="1" stop-color="#93C437"/>
</linearGradient>
</defs>
</svg>
