<svg width="192" height="192" viewBox="0 0 192 192" fill="none" xmlns="http://www.w3.org/2000/svg">
<path d="M171.638 88.8132C171.203 88.2767 170.416 88.1941 169.879 88.6286C169.343 89.0632 169.26 89.8503 169.695 90.3867L171.638 88.8132ZM82.2328 90.3926C82.6705 89.8587 82.5926 89.0711 82.0588 88.6334C81.525 88.1956 80.7374 88.2735 80.2996 88.8074L82.2328 90.3926ZM116.616 76.4C116.616 77.0903 117.176 77.65 117.866 77.65C118.557 77.65 119.116 77.0903 119.116 76.4H116.616ZM123.866 27.4L122.823 28.088L122.826 28.0933L123.866 27.4ZM111.866 9.19996L112.91 8.51189C112.905 8.50402 112.899 8.4962 112.894 8.48845L111.866 9.19996ZM108.366 9.39996L109.482 9.96399L109.484 9.95898L108.366 9.39996ZM103.866 18.3V19.55C104.338 19.55 104.769 19.2847 104.982 18.864L103.866 18.3ZM94.8662 18.3L93.9823 19.1838C94.2168 19.4183 94.5347 19.55 94.8662 19.55V18.3ZM85.3662 8.79996L84.4823 9.68385L85.3662 8.79996ZM82.0662 9.69996L83.2739 10.0224C83.2807 9.99681 83.2868 9.97105 83.2919 9.94511L82.0662 9.69996ZM69.8662 55.4L71.0589 55.7742C71.0643 55.7571 71.0693 55.7398 71.0739 55.7224L69.8662 55.4ZM45.8662 101.4L46.7879 102.244L46.7897 102.242L45.8662 101.4ZM17.8662 144.4L16.6186 144.322L16.6185 144.324L17.8662 144.4ZM3.86621 183.15C3.17585 183.15 2.61621 183.71 2.61621 184.4C2.61621 185.09 3.17585 185.65 3.86621 185.65V183.15ZM124.56 149.36C123.985 148.977 123.209 149.132 122.826 149.707C122.443 150.281 122.598 151.057 123.173 151.44L124.56 149.36ZM131.866 152.4V153.65C132.557 153.65 133.116 153.09 133.116 152.4H131.866ZM127.866 146.4L127.307 145.282C126.884 145.494 126.616 145.926 126.616 146.4C126.616 146.873 126.884 147.306 127.307 147.518L127.866 146.4ZM131.866 140.4H133.116C133.116 139.71 132.557 139.15 131.866 139.15V140.4ZM116.982 144.284C117.47 144.772 118.262 144.772 118.75 144.284C119.238 143.796 119.238 143.004 118.75 142.516L116.982 144.284ZM92.5596 131.44C93.134 131.057 93.2892 130.281 92.9063 129.707C92.5233 129.132 91.7472 128.977 91.1728 129.36L92.5596 131.44ZM83.8662 132.4H82.6162C82.6162 133.09 83.1759 133.65 83.8662 133.65V132.4ZM87.8662 126.4L88.4252 127.518C88.8487 127.306 89.1162 126.873 89.1162 126.4C89.1162 125.926 88.8487 125.494 88.4252 125.282L87.8662 126.4ZM83.8662 120.4V119.15C83.1759 119.15 82.6162 119.71 82.6162 120.4H83.8662ZM96.9823 122.516C96.4942 123.004 96.4942 123.796 96.9823 124.284C97.4705 124.772 98.2619 124.772 98.7501 124.284L96.9823 122.516ZM148.56 119.44C149.134 119.057 149.289 118.281 148.906 117.707C148.523 117.132 147.747 116.977 147.173 117.36L148.56 119.44ZM139.866 120.4H138.616C138.616 121.09 139.176 121.65 139.866 121.65V120.4ZM143.866 114.4L144.425 115.518C144.849 115.306 145.116 114.873 145.116 114.4C145.116 113.926 144.849 113.494 144.425 113.282L143.866 114.4ZM139.866 108.4V107.15C139.176 107.15 138.616 107.71 138.616 108.4H139.866ZM152.982 110.516C152.494 111.004 152.494 111.796 152.982 112.284C153.47 112.772 154.262 112.772 154.75 112.284L152.982 110.516ZM101.085 169.424C100.546 169.855 100.459 170.642 100.89 171.181C101.321 171.72 102.108 171.807 102.647 171.376L101.085 169.424ZM155.982 167.284C156.47 167.772 157.262 167.772 157.75 167.284C158.238 166.796 158.238 166.004 157.75 165.516L155.982 167.284ZM169.616 90.4C169.616 90.2997 169.679 90.448 169.195 90.8156C168.739 91.1627 167.987 91.5511 166.898 91.9515C164.736 92.7469 161.535 93.486 157.494 94.1146C149.432 95.3687 138.249 96.15 125.866 96.15V98.65C138.336 98.65 149.654 97.8642 157.878 96.5849C161.981 95.9467 165.37 95.1774 167.761 94.2979C168.95 93.8607 169.966 93.3701 170.708 92.8058C171.424 92.2621 172.116 91.4667 172.116 90.4H169.616ZM125.866 96.15C113.484 96.15 102.301 95.3687 94.2385 94.1146C90.1976 93.486 86.9968 92.7469 84.834 91.9515C83.7454 91.5511 82.9935 91.1627 82.5369 90.8156C82.0534 90.448 82.1162 90.2997 82.1162 90.4H79.6162C79.6162 91.4667 80.3087 92.2621 81.024 92.8058C81.7663 93.3701 82.7826 93.8607 83.9711 94.2979C86.3625 95.1774 89.7518 95.9467 93.8543 96.5849C102.079 97.8642 113.396 98.65 125.866 98.65V96.15ZM82.1162 90.4C82.1162 90.5002 82.0534 90.3519 82.5369 89.9843C82.9935 89.6372 83.7454 89.2488 84.834 88.8484C86.9968 88.053 90.1976 87.314 94.2385 86.6854C102.301 85.4312 113.484 84.65 125.866 84.65V82.15C113.396 82.15 102.079 82.9357 93.8543 84.2151C89.7518 84.8532 86.3625 85.6226 83.9711 86.5021C82.7826 86.9392 81.7663 87.4298 81.024 87.9941C80.3087 88.5379 79.6162 89.3332 79.6162 90.4H82.1162ZM125.866 84.65C138.249 84.65 149.432 85.4312 157.494 86.6854C161.535 87.314 164.736 88.053 166.898 88.8484C167.987 89.2488 168.739 89.6372 169.195 89.9843C169.679 90.3519 169.616 90.5002 169.616 90.4H172.116C172.116 89.3332 171.424 88.5379 170.708 87.9941C169.966 87.4298 168.95 86.9392 167.761 86.5021C165.37 85.6226 161.981 84.8532 157.878 84.2151C149.654 82.9357 138.336 82.15 125.866 82.15V84.65ZM169.695 90.3867C177.633 100.187 182.716 112.814 182.716 126.4H185.216C185.216 112.186 179.9 99.0134 171.638 88.8132L169.695 90.3867ZM182.716 126.4C182.716 157.71 157.276 183.15 125.966 183.15V185.65C158.657 185.65 185.216 159.09 185.216 126.4H182.716ZM125.966 183.15C94.6566 183.15 69.2162 157.71 69.2162 126.4H66.7162C66.7162 159.09 93.2759 185.65 125.966 185.65V183.15ZM69.2162 126.4C69.2162 112.808 74.2033 100.185 82.2328 90.3926L80.2996 88.8074C71.9291 99.0153 66.7162 112.191 66.7162 126.4H69.2162ZM119.116 76.4C119.116 69.3845 122.337 65.4377 125.819 61.3337C129.304 57.2271 133.116 52.9075 133.116 45.4H130.616C130.616 51.8924 127.429 55.5729 123.913 59.7162C120.395 63.8622 116.616 68.4154 116.616 76.4H119.116ZM133.116 45.4C133.116 42.1267 132.027 38.9262 130.484 35.8409C128.943 32.7585 126.897 29.6922 124.906 26.7066L122.826 28.0933C124.836 31.1077 126.789 34.0414 128.248 36.959C129.706 39.8737 130.616 42.6732 130.616 45.4H133.116ZM124.91 26.7119L112.91 8.51189L110.823 9.88804L122.823 28.088L124.91 26.7119ZM112.894 8.48845C111.482 6.44905 108.396 6.54618 107.248 8.84095L109.484 9.95898C109.737 9.45374 110.45 9.35087 110.838 9.91147L112.894 8.48845ZM107.251 8.83594L102.751 17.7359L104.982 18.864L109.482 9.96399L107.251 8.83594ZM103.866 17.05H94.8662V19.55H103.866V17.05ZM95.7501 17.4161L86.2501 7.91608L84.4823 9.68385L93.9823 19.1838L95.7501 17.4161ZM86.2501 7.91608C84.5222 6.1882 81.3576 6.86935 80.8405 9.45482L83.2919 9.94511C83.3389 9.71025 83.499 9.54718 83.7412 9.48198C83.99 9.41499 84.2703 9.47178 84.4823 9.68385L86.2501 7.91608ZM80.8585 9.37755L68.6585 55.0776L71.0739 55.7224L83.2739 10.0224L80.8585 9.37755ZM68.6736 55.0257C61.2095 78.8111 55.1841 89.3314 44.9428 100.558L46.7897 102.242C57.3483 90.6685 63.5229 79.7888 71.0589 55.7742L68.6736 55.0257ZM44.9445 100.556C38.4486 107.647 31.6158 114.484 26.3298 121.511C21.0259 128.562 17.1405 135.972 16.6186 144.322L19.1138 144.478C19.5919 136.828 23.1566 129.888 28.3276 123.014C33.5167 116.116 40.1838 109.453 46.7879 102.244L44.9445 100.556ZM16.6185 144.324C15.9001 156.126 19.4925 166.475 26.429 173.88C33.3673 181.286 43.5621 185.65 55.8662 185.65V183.15C44.1703 183.15 34.6651 179.014 28.2534 172.17C21.84 165.325 18.4323 155.674 19.1139 144.476L16.6185 144.324ZM55.8662 185.65C61.059 185.65 65.8086 184.354 69.3003 182.071C72.7999 179.783 75.1162 176.432 75.1162 172.4H72.6162C72.6162 175.368 70.9325 178.017 67.9322 179.979C64.9238 181.946 60.6734 183.15 55.8662 183.15V185.65ZM75.1162 172.4C75.1162 164.527 68.3584 159.15 59.8662 159.15V161.65C67.3741 161.65 72.6162 166.273 72.6162 172.4H75.1162ZM59.8662 159.15C49.3154 159.15 43.1666 165.561 35.9524 171.43C28.7038 177.327 19.9752 183.15 3.86621 183.15V185.65C20.7572 185.65 30.0286 179.472 37.5301 173.37C45.0658 167.239 50.417 161.65 59.8662 161.65V159.15ZM123.866 150.4C123.173 151.44 123.173 151.44 123.174 151.441C123.174 151.441 123.174 151.441 123.175 151.441C123.175 151.442 123.176 151.442 123.177 151.442C123.178 151.443 123.18 151.444 123.181 151.446C123.185 151.448 123.189 151.451 123.194 151.454C123.204 151.461 123.218 151.469 123.234 151.479C123.266 151.5 123.31 151.527 123.365 151.56C123.476 151.626 123.633 151.715 123.835 151.821C124.238 152.031 124.82 152.304 125.564 152.575C127.053 153.116 129.198 153.65 131.866 153.65V151.15C129.534 151.15 127.679 150.684 126.418 150.225C125.788 149.996 125.307 149.769 124.991 149.604C124.834 149.522 124.717 149.455 124.645 149.412C124.608 149.39 124.583 149.375 124.569 149.366C124.561 149.361 124.557 149.358 124.556 149.357C124.555 149.357 124.555 149.357 124.555 149.357C124.556 149.357 124.556 149.358 124.557 149.358C124.557 149.358 124.558 149.359 124.558 149.359C124.558 149.359 124.559 149.359 124.559 149.359C124.559 149.36 124.56 149.36 123.866 150.4ZM133.116 152.4C133.116 149.952 131.886 148.152 130.75 147.016C130.179 146.445 129.61 146.019 129.185 145.735C128.971 145.592 128.79 145.484 128.658 145.408C128.592 145.371 128.539 145.342 128.499 145.32C128.48 145.31 128.463 145.301 128.451 145.295C128.445 145.292 128.439 145.289 128.435 145.287C128.433 145.286 128.431 145.285 128.429 145.284C128.429 145.284 128.428 145.283 128.427 145.283C128.427 145.283 128.426 145.282 128.426 145.282C128.426 145.282 128.425 145.282 127.866 146.4C127.307 147.518 127.307 147.518 127.306 147.518C127.306 147.518 127.306 147.517 127.306 147.517C127.305 147.517 127.305 147.517 127.304 147.517C127.304 147.516 127.303 147.516 127.303 147.516C127.303 147.516 127.303 147.516 127.304 147.517C127.307 147.518 127.313 147.521 127.323 147.526C127.342 147.537 127.374 147.554 127.418 147.579C127.505 147.629 127.637 147.708 127.798 147.815C128.122 148.031 128.554 148.355 128.982 148.784C129.846 149.648 130.616 150.848 130.616 152.4H133.116ZM127.866 146.4C128.425 147.518 128.426 147.518 128.426 147.518C128.426 147.517 128.427 147.517 128.427 147.517C128.428 147.517 128.429 147.516 128.429 147.516C128.431 147.515 128.433 147.514 128.435 147.513C128.439 147.511 128.445 147.508 128.451 147.505C128.463 147.498 128.48 147.49 128.499 147.479C128.539 147.458 128.592 147.429 128.658 147.392C128.79 147.316 128.971 147.208 129.185 147.065C129.61 146.781 130.179 146.355 130.75 145.784C131.886 144.648 133.116 142.848 133.116 140.4H130.616C130.616 141.952 129.846 143.152 128.982 144.016C128.554 144.445 128.122 144.769 127.798 144.985C127.637 145.092 127.505 145.171 127.418 145.221C127.374 145.246 127.342 145.263 127.323 145.274C127.313 145.279 127.307 145.282 127.304 145.283C127.303 145.284 127.303 145.284 127.303 145.284C127.303 145.284 127.304 145.284 127.304 145.283C127.305 145.283 127.305 145.283 127.306 145.283C127.306 145.283 127.306 145.282 127.306 145.282C127.307 145.282 127.307 145.282 127.866 146.4ZM131.866 139.15C126.269 139.15 123.436 142.315 120.941 145.059C118.436 147.815 116.269 150.15 111.866 150.15V152.65C117.464 152.65 120.296 149.485 122.791 146.741C125.296 143.985 127.464 141.65 131.866 141.65V139.15ZM111.866 150.15C109.618 150.15 107.878 149.477 106.726 148.639C105.513 147.757 105.116 146.835 105.116 146.4H102.616C102.616 147.965 103.719 149.543 105.256 150.661C106.854 151.823 109.114 152.65 111.866 152.65V150.15ZM105.116 146.4C105.116 145.965 105.513 145.043 106.726 144.161C107.878 143.323 109.618 142.65 111.866 142.65V140.15C109.114 140.15 106.854 140.977 105.256 142.139C103.719 143.257 102.616 144.835 102.616 146.4H105.116ZM111.866 142.65C113.65 142.65 114.96 143.094 115.807 143.518C116.233 143.731 116.544 143.94 116.741 144.087C116.84 144.161 116.909 144.219 116.949 144.255C116.969 144.272 116.982 144.284 116.988 144.289C116.991 144.292 116.992 144.293 116.991 144.292C116.99 144.292 116.989 144.291 116.988 144.289C116.987 144.289 116.986 144.288 116.985 144.287C116.985 144.286 116.984 144.286 116.984 144.285C116.984 144.285 116.983 144.285 116.983 144.285C116.983 144.284 116.982 144.284 117.866 143.4C118.75 142.516 118.75 142.516 118.749 142.515C118.749 142.515 118.749 142.515 118.748 142.514C118.748 142.514 118.747 142.513 118.746 142.512C118.745 142.511 118.743 142.509 118.742 142.508C118.738 142.504 118.734 142.501 118.73 142.496C118.721 142.488 118.711 142.478 118.698 142.466C118.672 142.441 118.638 142.41 118.596 142.373C118.511 142.299 118.393 142.201 118.241 142.087C117.938 141.86 117.5 141.569 116.925 141.282C115.772 140.706 114.082 140.15 111.866 140.15V142.65ZM91.8662 130.4C91.1728 129.36 91.1732 129.36 91.1736 129.359C91.1737 129.359 91.174 129.359 91.1743 129.359C91.1747 129.359 91.1751 129.358 91.1754 129.358C91.1761 129.358 91.1766 129.357 91.1769 129.357C91.1776 129.357 91.1776 129.357 91.1768 129.357C91.1753 129.358 91.1709 129.361 91.1638 129.366C91.1495 129.375 91.1241 129.39 91.0878 129.412C91.0151 129.455 90.8989 129.522 90.7411 129.604C90.4254 129.769 89.9446 129.996 89.314 130.225C88.0531 130.684 86.198 131.15 83.8662 131.15V133.65C86.5344 133.65 88.6793 133.116 90.1684 132.575C90.9128 132.304 91.4945 132.031 91.8975 131.821C92.0992 131.716 92.2564 131.626 92.3673 131.56C92.4228 131.527 92.4667 131.5 92.4988 131.479C92.5149 131.469 92.528 131.461 92.5381 131.454C92.5432 131.451 92.5475 131.448 92.5511 131.446C92.5529 131.444 92.5545 131.443 92.5559 131.442C92.5566 131.442 92.5573 131.442 92.5579 131.441C92.5582 131.441 92.5586 131.441 92.5588 131.441C92.5592 131.44 92.5596 131.44 91.8662 130.4ZM85.1162 132.4C85.1162 130.848 85.8863 129.648 86.7501 128.784C87.1786 128.355 87.6104 128.031 87.9346 127.815C88.0956 127.708 88.2272 127.629 88.3145 127.579C88.3581 127.554 88.3904 127.537 88.4095 127.526C88.4191 127.521 88.4253 127.518 88.428 127.517C88.4294 127.516 88.4299 127.516 88.4294 127.516C88.4292 127.516 88.4287 127.516 88.428 127.517C88.4277 127.517 88.4273 127.517 88.4268 127.517C88.4266 127.517 88.4262 127.518 88.4261 127.518C88.4257 127.518 88.4252 127.518 87.8662 126.4C87.3072 125.282 87.3067 125.282 87.3063 125.282C87.3061 125.282 87.3056 125.283 87.3053 125.283C87.3046 125.283 87.3038 125.284 87.303 125.284C87.3013 125.285 87.2994 125.286 87.2972 125.287C87.2929 125.289 87.2877 125.292 87.2814 125.295C87.269 125.301 87.2528 125.31 87.2331 125.32C87.1936 125.341 87.14 125.371 87.0742 125.408C86.9427 125.484 86.7618 125.592 86.5478 125.735C86.122 126.019 85.5538 126.445 84.9823 127.016C83.8461 128.152 82.6162 129.952 82.6162 132.4H85.1162ZM87.8662 126.4C88.4252 125.282 88.4257 125.282 88.4261 125.282C88.4262 125.282 88.4266 125.283 88.4268 125.283C88.4273 125.283 88.4277 125.283 88.428 125.283C88.4287 125.284 88.4292 125.284 88.4294 125.284C88.4299 125.284 88.4294 125.284 88.428 125.283C88.4253 125.282 88.4191 125.279 88.4095 125.274C88.3904 125.263 88.3581 125.246 88.3145 125.221C88.2272 125.171 88.0956 125.092 87.9346 124.985C87.6104 124.769 87.1786 124.445 86.7501 124.016C85.8863 123.152 85.1162 121.952 85.1162 120.4H82.6162C82.6162 122.848 83.8461 124.648 84.9823 125.784C85.5538 126.355 86.122 126.781 86.5478 127.065C86.7618 127.208 86.9427 127.316 87.0742 127.392C87.14 127.429 87.1936 127.458 87.2331 127.479C87.2528 127.49 87.269 127.498 87.2814 127.505C87.2877 127.508 87.2929 127.511 87.2972 127.513C87.2994 127.514 87.3013 127.515 87.303 127.516C87.3038 127.516 87.3046 127.517 87.3053 127.517C87.3056 127.517 87.3061 127.517 87.3063 127.518C87.3067 127.518 87.3072 127.518 87.8662 126.4ZM83.8662 121.65C88.2685 121.65 90.4361 123.985 92.9413 126.741C95.4361 129.485 98.2685 132.65 103.866 132.65V130.15C99.4639 130.15 97.2964 127.815 94.7911 125.059C92.2964 122.315 89.4639 119.15 83.8662 119.15V121.65ZM103.866 132.65C106.618 132.65 108.878 131.823 110.476 130.661C112.013 129.543 113.116 127.965 113.116 126.4H110.616C110.616 126.835 110.219 127.757 109.006 128.639C107.854 129.477 106.114 130.15 103.866 130.15V132.65ZM113.116 126.4C113.116 124.835 112.013 123.257 110.476 122.139C108.878 120.977 106.618 120.15 103.866 120.15V122.65C106.114 122.65 107.854 123.323 109.006 124.161C110.219 125.043 110.616 125.965 110.616 126.4H113.116ZM103.866 120.15C101.65 120.15 99.9601 120.705 98.8072 121.282C98.2328 121.569 97.7943 121.86 97.4912 122.087C97.3396 122.201 97.2215 122.299 97.1368 122.373C97.0945 122.41 97.0605 122.441 97.0347 122.466C97.0219 122.478 97.0111 122.488 97.0023 122.496C96.998 122.501 96.9941 122.504 96.9908 122.508C96.9891 122.509 96.9876 122.511 96.9862 122.512C96.9855 122.513 96.9848 122.514 96.9842 122.514C96.9838 122.515 96.9834 122.515 96.9832 122.515C96.9828 122.516 96.9823 122.516 97.8662 123.4C98.7501 124.284 98.7497 124.284 98.7493 124.285C98.7491 124.285 98.7487 124.285 98.7485 124.285C98.7479 124.286 98.7474 124.286 98.747 124.287C98.7461 124.288 98.7453 124.289 98.7446 124.289C98.7432 124.291 98.7423 124.292 98.7418 124.292C98.7409 124.293 98.7418 124.292 98.7446 124.289C98.7501 124.284 98.7629 124.272 98.7831 124.255C98.8234 124.219 98.8928 124.161 98.9912 124.087C99.1881 123.94 99.4996 123.731 99.9252 123.518C100.772 123.094 102.082 122.65 103.866 122.65V120.15ZM147.866 118.4C147.173 117.36 147.173 117.36 147.174 117.359C147.174 117.359 147.174 117.359 147.174 117.359C147.175 117.359 147.175 117.358 147.175 117.358C147.176 117.358 147.177 117.357 147.177 117.357C147.178 117.357 147.178 117.357 147.177 117.357C147.175 117.358 147.171 117.361 147.164 117.366C147.15 117.375 147.124 117.39 147.088 117.412C147.015 117.455 146.899 117.522 146.741 117.604C146.425 117.769 145.945 117.996 145.314 118.225C144.053 118.684 142.198 119.15 139.866 119.15V121.65C142.534 121.65 144.679 121.116 146.168 120.575C146.913 120.304 147.495 120.031 147.898 119.821C148.099 119.716 148.256 119.626 148.367 119.56C148.423 119.527 148.467 119.5 148.499 119.479C148.515 119.469 148.528 119.461 148.538 119.454C148.543 119.451 148.548 119.448 148.551 119.446C148.553 119.444 148.554 119.443 148.556 119.442C148.557 119.442 148.557 119.442 148.558 119.441C148.558 119.441 148.559 119.441 148.559 119.441C148.559 119.44 148.56 119.44 147.866 118.4ZM141.116 120.4C141.116 118.848 141.886 117.648 142.75 116.784C143.179 116.355 143.61 116.031 143.935 115.815C144.096 115.708 144.227 115.629 144.315 115.579C144.358 115.554 144.39 115.537 144.41 115.526C144.419 115.521 144.425 115.518 144.428 115.517C144.429 115.516 144.43 115.516 144.429 115.516C144.429 115.516 144.429 115.516 144.428 115.517C144.428 115.517 144.427 115.517 144.427 115.517C144.427 115.517 144.426 115.518 144.426 115.518C144.426 115.518 144.425 115.518 143.866 114.4C143.307 113.282 143.307 113.282 143.306 113.282C143.306 113.282 143.306 113.283 143.305 113.283C143.305 113.283 143.304 113.284 143.303 113.284C143.301 113.285 143.299 113.286 143.297 113.287C143.293 113.289 143.288 113.292 143.281 113.295C143.269 113.301 143.253 113.31 143.233 113.32C143.194 113.341 143.14 113.371 143.074 113.408C142.943 113.484 142.762 113.592 142.548 113.735C142.122 114.019 141.554 114.445 140.982 115.016C139.846 116.152 138.616 117.952 138.616 120.4H141.116ZM143.866 114.4C144.425 113.282 144.426 113.282 144.426 113.282C144.426 113.282 144.427 113.283 144.427 113.283C144.427 113.283 144.428 113.283 144.428 113.283C144.429 113.284 144.429 113.284 144.429 113.284C144.43 113.284 144.429 113.284 144.428 113.283C144.425 113.282 144.419 113.279 144.41 113.274C144.39 113.263 144.358 113.246 144.315 113.221C144.227 113.171 144.096 113.092 143.935 112.985C143.61 112.769 143.179 112.445 142.75 112.016C141.886 111.152 141.116 109.952 141.116 108.4H138.616C138.616 110.848 139.846 112.648 140.982 113.784C141.554 114.355 142.122 114.781 142.548 115.065C142.762 115.208 142.943 115.316 143.074 115.392C143.14 115.429 143.194 115.458 143.233 115.479C143.253 115.49 143.269 115.498 143.281 115.505C143.288 115.508 143.293 115.511 143.297 115.513C143.299 115.514 143.301 115.515 143.303 115.516C143.304 115.516 143.305 115.517 143.305 115.517C143.306 115.517 143.306 115.517 143.306 115.518C143.307 115.518 143.307 115.518 143.866 114.4ZM139.866 109.65C144.269 109.65 146.436 111.985 148.941 114.741C151.436 117.485 154.269 120.65 159.866 120.65V118.15C155.464 118.15 153.296 115.815 150.791 113.059C148.296 110.315 145.464 107.15 139.866 107.15V109.65ZM159.866 120.65C162.618 120.65 164.878 119.823 166.476 118.661C168.013 117.543 169.116 115.965 169.116 114.4H166.616C166.616 114.835 166.219 115.757 165.006 116.639C163.854 117.477 162.114 118.15 159.866 118.15V120.65ZM169.116 114.4C169.116 112.835 168.013 111.257 166.476 110.139C164.878 108.977 162.618 108.15 159.866 108.15V110.65C162.114 110.65 163.854 111.323 165.006 112.161C166.219 113.043 166.616 113.965 166.616 114.4H169.116ZM159.866 108.15C157.65 108.15 155.96 108.705 154.807 109.282C154.233 109.569 153.794 109.86 153.491 110.087C153.34 110.201 153.221 110.299 153.137 110.373C153.094 110.41 153.06 110.441 153.035 110.466C153.022 110.478 153.011 110.488 153.002 110.496C152.998 110.501 152.994 110.504 152.991 110.508C152.989 110.509 152.988 110.511 152.986 110.512C152.985 110.513 152.985 110.514 152.984 110.514C152.984 110.515 152.983 110.515 152.983 110.515C152.983 110.516 152.982 110.516 153.866 111.4C154.75 112.284 154.75 112.284 154.749 112.285C154.749 112.285 154.749 112.285 154.748 112.285C154.748 112.286 154.747 112.286 154.747 112.287C154.746 112.288 154.745 112.289 154.745 112.289C154.743 112.291 154.742 112.292 154.742 112.292C154.741 112.293 154.742 112.292 154.745 112.289C154.75 112.284 154.763 112.272 154.783 112.255C154.823 112.219 154.893 112.161 154.991 112.087C155.188 111.94 155.5 111.731 155.925 111.518C156.772 111.094 158.082 110.65 159.866 110.65V108.15ZM101.866 170.4C102.647 171.376 102.647 171.376 102.647 171.376C102.647 171.376 102.646 171.377 102.646 171.377C102.646 171.377 102.646 171.377 102.646 171.377C102.646 171.377 102.646 171.377 102.647 171.376C102.648 171.375 102.65 171.373 102.654 171.371C102.661 171.365 102.673 171.356 102.689 171.343C102.721 171.318 102.772 171.28 102.839 171.23C102.973 171.129 103.174 170.983 103.432 170.806C103.95 170.451 104.691 169.977 105.579 169.503C107.384 168.54 109.668 167.65 111.866 167.65V165.15C109.064 165.15 106.348 166.26 104.403 167.297C103.416 167.823 102.595 168.349 102.019 168.744C101.73 168.942 101.502 169.108 101.343 169.226C101.264 169.286 101.202 169.333 101.158 169.367C101.137 169.383 101.12 169.397 101.107 169.406C101.101 169.411 101.096 169.415 101.093 169.418C101.091 169.419 101.089 169.421 101.088 169.422C101.088 169.422 101.087 169.423 101.087 169.423C101.086 169.423 101.086 169.423 101.086 169.423C101.086 169.424 101.085 169.424 101.866 170.4ZM111.866 167.65C114.416 167.65 116.089 168.884 118.423 170.44C120.735 171.982 123.49 173.65 127.866 173.65V171.15C124.242 171.15 121.997 169.818 119.81 168.36C117.644 166.916 115.316 165.15 111.866 165.15V167.65ZM127.866 173.65C132.911 173.65 135.986 170.797 138.603 168.305C141.304 165.733 143.448 163.65 146.866 163.65V161.15C142.285 161.15 139.428 164.067 136.879 166.495C134.246 169.003 131.821 171.15 127.866 171.15V173.65ZM146.866 163.65C149.586 163.65 151.872 164.557 153.496 165.485C154.305 165.948 154.939 166.409 155.367 166.751C155.58 166.922 155.741 167.062 155.845 167.156C155.897 167.203 155.935 167.238 155.958 167.26C155.969 167.271 155.977 167.279 155.981 167.283C155.983 167.285 155.984 167.286 155.985 167.286C155.985 167.286 155.985 167.286 155.984 167.286C155.984 167.286 155.984 167.285 155.983 167.285C155.983 167.285 155.983 167.285 155.983 167.284C155.983 167.284 155.982 167.284 156.866 166.4C157.75 165.516 157.75 165.516 157.749 165.515C157.749 165.515 157.749 165.515 157.749 165.515C157.748 165.514 157.747 165.513 157.747 165.513C157.745 165.511 157.744 165.51 157.742 165.508C157.738 165.504 157.734 165.5 157.728 165.494C157.716 165.483 157.701 165.468 157.682 165.45C157.643 165.413 157.59 165.363 157.52 165.3C157.382 165.176 157.184 165.003 156.928 164.799C156.418 164.391 155.677 163.852 154.736 163.315C152.86 162.242 150.146 161.15 146.866 161.15V163.65Z" fill="#E2597D"/>
<path d="M113.866 40.3999C114.971 40.3999 115.866 39.5045 115.866 38.3999C115.866 37.2953 114.971 36.3999 113.866 36.3999C112.762 36.3999 111.866 37.2953 111.866 38.3999C111.866 39.5045 112.762 40.3999 113.866 40.3999Z" fill="#E2597D"/>
<path d="M95.8662 40.3999C96.9708 40.3999 97.8662 39.5045 97.8662 38.3999C97.8662 37.2953 96.9708 36.3999 95.8662 36.3999C94.7616 36.3999 93.8662 37.2953 93.8662 38.3999C93.8662 39.5045 94.7616 40.3999 95.8662 40.3999Z" fill="#E2597D"/>
</svg>
