<svg width="321" height="320" viewBox="0 0 321 320" fill="none" xmlns="http://www.w3.org/2000/svg">
<path d="M59.2549 188.2C55.8549 188.2 53.1549 185.4 53.2549 182C53.3549 178.7 56.2549 176.2 59.4549 176.2H62.1549C63.4549 176.2 64.7549 175.7 65.6549 174.7L67.1549 173.2C68.9549 171.4 69.4549 168.6 68.2549 166.3L66.6549 163.1C65.9549 161.8 66.9549 160.2 68.4549 160.2H78.2549M44.2549 176.2C44.2549 176.2 48.2549 182.2 48.2549 190.2C48.2549 199.8 40.7549 205.6 33.5549 207.5C31.7549 208 30.3549 206 31.3549 204.5C38.2549 194.1 30.2549 185.4 30.2549 178.2C30.2549 171.6 34.2549 166.2 39.2549 166.2C41.5549 166.2 43.6549 167.3 45.2549 169.2C48.2549 159.4 57.4549 152.2 68.2549 152.2C80.2549 152.2 88.1549 158 92.2549 170.2L95.2549 179.2C97.2549 185.2 94.2549 186.2 92.2549 186.2H90.2549C89.1549 186.2 88.2549 187.1 88.2549 188.2V196C88.2549 201 84.2549 205.2 79.3549 205.2H73.7549C70.7549 205.2 68.2549 207.7 68.2549 210.7C68.2549 213.7 70.7549 216.2 73.7549 216.2H81.4549C90.5549 216.2 98.8549 221.3 102.955 229.5L120.355 264.2H160.355C161.455 264.2 162.355 263.3 162.355 262.2V252.2C162.355 251.1 161.455 250.2 160.355 250.2H140.355C133.755 250.2 128.355 244.8 128.355 238.2V196.2C128.355 189.6 133.755 184.2 140.355 184.2H204.355C210.955 184.2 216.355 189.6 216.355 196.2V238.2C216.355 244.8 210.955 250.2 204.355 250.2H184.355C183.255 250.2 182.355 251.1 182.355 252.2V262.2C182.355 263.3 183.255 264.2 184.355 264.2H279.855C281.955 264.2 282.655 261.4 280.755 260.4L264.355 252.2V232.2L294.555 217.1C295.655 216.6 296.355 215.4 296.355 214.2C296.355 213 295.655 211.9 294.555 211.3L266.355 197.2L269.355 194.2C271.055 192.5 271.055 189.9 269.355 188.2C267.655 186.5 265.055 186.5 263.355 188.2L254.655 196.9C249.455 194.1 242.855 194.7 238.155 198.7C237.755 199.1 237.655 199.8 238.055 200.2L257.255 219.4C257.655 219.8 258.355 219.8 258.755 219.3C262.755 214.6 263.355 208.1 260.555 202.8M88.2549 264.2L70.8549 229.5C66.7549 221.4 58.4549 216.2 49.3549 216.2H36.2549C29.6549 216.2 24.2549 221.6 24.2549 228.2V264.2M237.355 84.2C240.755 84.2 243.455 81.4 243.355 78C243.255 74.7 240.355 72.2 237.155 72.2H234.455C233.155 72.2 231.855 71.7 230.955 70.7L229.455 69.2C227.655 67.4 227.155 64.6 228.355 62.3L229.955 59.1C230.655 57.8 229.655 56.2 228.155 56.2H218.355M252.255 72.2C252.255 72.2 248.255 78.2 248.255 86.2C248.255 95.8 255.755 101.6 262.955 103.5C264.755 104 266.155 102 265.155 100.5C258.255 90.1 266.255 81.4 266.255 74.2C266.255 67.6 262.255 62.2 257.255 62.2C254.955 62.2 252.855 63.3 251.255 65.2C248.255 55.4 239.055 48.2 228.255 48.2C216.255 48.2 208.355 54 204.255 66.2L201.255 75.2C199.255 81.2 202.255 82.2 204.255 82.2H206.255C207.355 82.2 208.255 83.1 208.255 84.2V92C208.255 97 212.255 101.2 217.155 101.2H222.755C225.755 101.2 228.255 103.7 228.255 106.7C228.255 109.7 225.755 112.2 222.755 112.2H215.055C205.955 112.2 197.655 117.3 193.555 125.5L178.355 155.8C176.955 158.5 174.255 160.2 171.155 160.2H112.255C107.855 160.2 104.255 156.6 104.255 152.2V120.2C104.255 115.8 107.855 112.2 112.255 112.2H160.255C164.655 112.2 168.255 115.8 168.255 120.2V153.2M232.255 144.2L240.255 152.2L252.255 140.2M61.2549 146.2L61.3549 143.2C61.3549 125.2 70.2549 118.3 78.3549 110.2C85.3549 103.2 88.3549 97.2 92.3549 81.2L98.8549 55C99.0549 54.2 99.9549 54 100.555 54.5L105.355 59.3H112.355L114.555 54.8C114.855 54.1 115.855 54.1 116.255 54.7L123.255 65.2999C125.655 68.7999 128.255 72.2999 128.255 76.2999C128.255 84.2999 120.255 85.2999 120.255 94.2999V105.3M264.255 152.2C264.255 165.455 253.51 176.2 240.255 176.2C227 176.2 216.255 165.455 216.255 152.2C216.255 138.945 227 128.2 240.255 128.2C253.51 128.2 264.255 138.945 264.255 152.2Z" stroke="black" stroke-width="2.5" stroke-miterlimit="10" stroke-linecap="round" stroke-linejoin="round"/>
<path d="M83.2549 175.2C84.3595 175.2 85.2549 174.305 85.2549 173.2C85.2549 172.095 84.3595 171.2 83.2549 171.2C82.1503 171.2 81.2549 172.095 81.2549 173.2C81.2549 174.305 82.1503 175.2 83.2549 175.2Z" fill="black"/>
<path d="M213.255 71.2C214.359 71.2 215.255 70.3045 215.255 69.2C215.255 68.0954 214.359 67.2 213.255 67.2C212.15 67.2 211.255 68.0954 211.255 69.2C211.255 70.3045 212.15 71.2 213.255 71.2Z" fill="black"/>
</svg>
