<svg width="321" height="320" viewBox="0 0 321 320" fill="none" xmlns="http://www.w3.org/2000/svg">
<path d="M59.2549 189.45C59.9452 189.45 60.5049 188.89 60.5049 188.2C60.5049 187.51 59.9452 186.95 59.2549 186.95V189.45ZM53.2549 182L52.0055 181.962L52.0054 181.963L53.2549 182ZM65.6549 174.7L64.771 173.816C64.7555 173.832 64.7404 173.847 64.7258 173.864L65.6549 174.7ZM68.2549 166.3L67.1368 166.859C67.1401 166.865 67.1433 166.872 67.1467 166.878L68.2549 166.3ZM66.6549 163.1L67.7729 162.541C67.7673 162.53 67.7615 162.518 67.7555 162.507L66.6549 163.1ZM78.2549 161.45C78.9452 161.45 79.5049 160.89 79.5049 160.2C79.5049 159.51 78.9452 158.95 78.2549 158.95V161.45ZM45.2549 169.2L44.2987 170.005C44.5936 170.355 45.0564 170.516 45.505 170.425C45.9535 170.333 46.3161 170.004 46.4501 169.566L45.2549 169.2ZM31.3549 204.5L32.3949 205.193L32.3965 205.191L31.3549 204.5ZM33.5549 207.5L33.2359 206.291C33.2307 206.293 33.2255 206.294 33.2203 206.296L33.5549 207.5ZM45.2949 175.507C44.912 174.932 44.1359 174.777 43.5615 175.16C42.9871 175.543 42.8319 176.319 43.2148 176.893L45.2949 175.507ZM87.1375 264.76C87.4469 265.377 88.1981 265.627 88.8152 265.317C89.4323 265.008 89.6817 264.257 89.3723 263.64L87.1375 264.76ZM70.8549 229.5L71.9723 228.94L71.9701 228.935L70.8549 229.5ZM23.0049 264.2C23.0049 264.89 23.5645 265.45 24.2549 265.45C24.9452 265.45 25.5049 264.89 25.5049 264.2H23.0049ZM92.2549 170.2L93.4407 169.805L93.4398 169.802L92.2549 170.2ZM102.955 229.5L101.837 230.059L101.837 230.06L102.955 229.5ZM120.355 264.2L119.238 264.76C119.449 265.183 119.882 265.45 120.355 265.45V264.2ZM280.755 260.4L281.337 259.294C281.329 259.29 281.322 259.286 281.314 259.282L280.755 260.4ZM264.355 252.2H263.105C263.105 252.673 263.372 253.106 263.796 253.318L264.355 252.2ZM264.355 232.2L263.796 231.082C263.372 231.294 263.105 231.726 263.105 232.2H264.355ZM294.555 217.1L294.038 215.962C294.024 215.968 294.01 215.975 293.996 215.982L294.555 217.1ZM294.555 211.3L295.153 210.203C295.14 210.195 295.127 210.189 295.114 210.182L294.555 211.3ZM266.355 197.2L265.471 196.316C265.187 196.6 265.057 197.004 265.121 197.4C265.185 197.797 265.436 198.138 265.796 198.318L266.355 197.2ZM254.655 196.9L254.062 198.001C254.548 198.262 255.148 198.174 255.539 197.784L254.655 196.9ZM238.155 198.7L237.345 197.748C237.319 197.77 237.295 197.792 237.271 197.816L238.155 198.7ZM258.755 219.3L257.803 218.49C257.795 218.499 257.787 218.509 257.779 218.519L258.755 219.3ZM261.66 202.216C261.338 201.606 260.581 201.372 259.971 201.695C259.361 202.017 259.127 202.773 259.45 203.384L261.66 202.216ZM237.355 82.95C236.665 82.95 236.105 83.5096 236.105 84.2C236.105 84.8903 236.665 85.45 237.355 85.45V82.95ZM243.355 78L244.604 77.9632L244.604 77.9621L243.355 78ZM230.955 70.7L231.884 69.8637C231.869 69.8475 231.854 69.8316 231.839 69.8161L230.955 70.7ZM228.355 62.3L229.463 62.8782C229.466 62.8718 229.47 62.8654 229.473 62.859L228.355 62.3ZM229.955 59.1L228.854 58.5073C228.848 58.5184 228.842 58.5296 228.837 58.5409L229.955 59.1ZM218.355 54.95C217.665 54.95 217.105 55.5096 217.105 56.2C217.105 56.8903 217.665 57.45 218.355 57.45V54.95ZM251.255 65.2L250.06 65.5658C250.194 66.0036 250.556 66.3331 251.005 66.4247C251.453 66.5163 251.916 66.3553 252.211 66.0051L251.255 65.2ZM265.155 100.5L264.113 101.191L264.115 101.193L265.155 100.5ZM262.955 103.5L263.289 102.296C263.284 102.294 263.279 102.293 263.274 102.291L262.955 103.5ZM253.295 72.8933C253.678 72.3189 253.523 71.5428 252.948 71.1599C252.374 70.7769 251.598 70.9322 251.215 71.5066L253.295 72.8933ZM204.255 66.2L203.07 65.8018L203.069 65.8047L204.255 66.2ZM193.555 125.5L194.672 126.06L194.673 126.059L193.555 125.5ZM178.355 155.8L179.465 156.375C179.467 156.37 179.47 156.365 179.472 156.36L178.355 155.8ZM167.005 153.2C167.005 153.89 167.565 154.45 168.255 154.45C168.945 154.45 169.505 153.89 169.505 153.2H167.005ZM233.139 143.316C232.651 142.828 231.859 142.828 231.371 143.316C230.883 143.804 230.883 144.596 231.371 145.084L233.139 143.316ZM240.255 152.2L239.371 153.084C239.859 153.572 240.651 153.572 241.139 153.084L240.255 152.2ZM253.139 141.084C253.627 140.596 253.627 139.804 253.139 139.316C252.651 138.828 251.859 138.828 251.371 139.316L253.139 141.084ZM60.0056 146.158C59.9826 146.848 60.5233 147.426 61.2132 147.449C61.9032 147.472 62.4812 146.932 62.5042 146.242L60.0056 146.158ZM61.3549 143.2L62.6042 143.242C62.6046 143.228 62.6049 143.214 62.6049 143.2H61.3549ZM92.3549 81.2L93.5676 81.5031L93.5681 81.5009L92.3549 81.2ZM98.8549 55L97.6422 54.6968L97.6417 54.699L98.8549 55ZM100.555 54.5L101.439 53.6161C101.412 53.5894 101.384 53.5639 101.355 53.5397L100.555 54.5ZM105.355 59.3L104.471 60.1838C104.705 60.4183 105.023 60.55 105.355 60.55V59.3ZM112.355 59.3V60.55C112.832 60.55 113.268 60.2779 113.478 59.849L112.355 59.3ZM114.555 54.8L115.678 55.349C115.687 55.3303 115.696 55.3114 115.704 55.2924L114.555 54.8ZM116.255 54.7L117.298 54.0111L117.295 54.0066L116.255 54.7ZM123.255 65.2999L122.212 65.9888C122.216 65.9948 122.22 66.0009 122.224 66.0069L123.255 65.2999ZM119.005 105.3C119.005 105.99 119.565 106.55 120.255 106.55C120.945 106.55 121.505 105.99 121.505 105.3H119.005ZM59.2549 186.95C56.565 186.95 54.4249 184.738 54.5043 182.037L52.0054 181.963C51.8849 186.062 55.1448 189.45 59.2549 189.45V186.95ZM54.5043 182.038C54.5817 179.483 56.8579 177.45 59.4549 177.45V174.95C55.6519 174.95 52.1281 177.916 52.0055 181.962L54.5043 182.038ZM59.4549 177.45H62.1549V174.95H59.4549V177.45ZM62.1549 177.45C63.7639 177.45 65.4182 176.831 66.584 175.536L64.7258 173.864C64.0915 174.568 63.1459 174.95 62.1549 174.95V177.45ZM66.5388 175.584L68.0388 174.084L66.271 172.316L64.771 173.816L66.5388 175.584ZM68.0388 174.084C70.2083 171.914 70.8263 168.526 69.3631 165.722L67.1467 166.878C68.0835 168.674 67.7015 170.886 66.271 172.316L68.0388 174.084ZM69.3729 165.741L67.7729 162.541L65.5368 163.659L67.1368 166.859L69.3729 165.741ZM67.7555 162.507C67.5317 162.092 67.8413 161.45 68.4549 161.45V158.95C66.0684 158.95 64.378 161.508 65.5543 163.693L67.7555 162.507ZM68.4549 161.45H78.2549V158.95H68.4549V161.45ZM46.211 168.395C44.4141 166.261 41.9823 164.95 39.2549 164.95V167.45C41.1275 167.45 42.8956 168.339 44.2987 170.005L46.211 168.395ZM39.2549 164.95C36.2723 164.95 33.6811 166.564 31.8785 168.977C30.0768 171.388 29.0049 174.657 29.0049 178.2H31.5049C31.5049 175.143 32.4329 172.412 33.8813 170.473C35.3287 168.536 37.2375 167.45 39.2549 167.45V164.95ZM29.0049 178.2C29.0049 180.209 29.5604 182.262 30.2074 184.268C30.8745 186.336 31.6253 188.321 32.1826 190.464C33.2674 194.637 33.4986 199.008 30.3133 203.809L32.3965 205.191C36.1112 199.592 35.7924 194.413 34.6022 189.835C34.0219 187.604 33.204 185.414 32.5867 183.501C31.9494 181.525 31.5049 179.791 31.5049 178.2H29.0049ZM30.3148 203.807C28.6797 206.259 30.9601 209.518 33.8894 208.704L33.2203 206.296C32.5497 206.482 32.03 205.741 32.3949 205.193L30.3148 203.807ZM33.8738 208.709C41.3853 206.726 49.5049 200.58 49.5049 190.2H47.0049C47.0049 199.02 40.1245 204.474 33.2359 206.291L33.8738 208.709ZM49.5049 190.2C49.5049 185.996 48.4553 182.335 47.4155 179.736C46.8944 178.433 46.3722 177.388 45.9773 176.664C45.7796 176.302 45.6134 176.019 45.4945 175.823C45.435 175.726 45.3874 175.65 45.3535 175.597C45.3365 175.57 45.323 175.549 45.3132 175.534C45.3082 175.527 45.3042 175.521 45.3012 175.516C45.2997 175.514 45.2984 175.512 45.2973 175.51C45.2968 175.509 45.2964 175.509 45.296 175.508C45.2958 175.508 45.2955 175.507 45.2954 175.507C45.2952 175.507 45.2949 175.507 44.2549 176.2C43.2148 176.893 43.2146 176.893 43.2144 176.893C43.2144 176.893 43.2142 176.892 43.2142 176.892C43.214 176.892 43.2139 176.892 43.2139 176.892C43.2138 176.892 43.214 176.892 43.2144 176.893C43.2152 176.894 43.2169 176.897 43.2196 176.901C43.2249 176.909 43.2338 176.923 43.2462 176.942C43.2708 176.98 43.3091 177.041 43.359 177.123C43.4589 177.287 43.6051 177.536 43.7825 177.861C44.1375 178.512 44.6154 179.467 45.0943 180.664C46.0545 183.065 47.0049 186.404 47.0049 190.2H49.5049ZM89.3723 263.64L71.9723 228.94L69.7375 230.06L87.1375 264.76L89.3723 263.64ZM71.9701 228.935C67.6613 220.423 58.9348 214.95 49.3549 214.95V217.45C57.9749 217.45 65.8485 222.377 69.7396 230.064L71.9701 228.935ZM49.3549 214.95H36.2549V217.45H49.3549V214.95ZM36.2549 214.95C28.9645 214.95 23.0049 220.91 23.0049 228.2H25.5049C25.5049 222.29 30.3452 217.45 36.2549 217.45V214.95ZM23.0049 228.2V264.2H25.5049V228.2H23.0049ZM46.4501 169.566C49.294 160.276 58.02 153.45 68.2549 153.45V150.95C56.8897 150.95 47.2158 158.524 44.0596 168.834L46.4501 169.566ZM68.2549 153.45C74.0481 153.45 78.7436 154.847 82.4699 157.627C86.2018 160.411 89.0777 164.67 91.07 170.598L93.4398 169.802C91.3321 163.53 88.2079 158.789 83.9649 155.623C79.7161 152.453 74.4616 150.95 68.2549 150.95V153.45ZM91.069 170.595L94.069 179.595L96.4407 178.805L93.4407 169.805L91.069 170.595ZM94.069 179.595C95.0242 182.461 94.6327 183.696 94.2549 184.2C93.8624 184.723 93.1213 184.95 92.2549 184.95V187.45C93.3884 187.45 95.1474 187.177 96.2549 185.7C97.3771 184.204 97.4855 181.939 96.4407 178.805L94.069 179.595ZM92.2549 184.95H90.2549V187.45H92.2549V184.95ZM90.2549 184.95C88.4645 184.95 87.0049 186.41 87.0049 188.2H89.5049C89.5049 187.79 89.8452 187.45 90.2549 187.45V184.95ZM87.0049 188.2V196H89.5049V188.2H87.0049ZM87.0049 196C87.0049 200.355 83.5201 203.95 79.3549 203.95V206.45C84.9896 206.45 89.5049 201.645 89.5049 196H87.0049ZM79.3549 203.95H73.7549V206.45H79.3549V203.95ZM73.7549 203.95C70.0645 203.95 67.0049 207.01 67.0049 210.7H69.5049C69.5049 208.39 71.4452 206.45 73.7549 206.45V203.95ZM67.0049 210.7C67.0049 214.39 70.0645 217.45 73.7549 217.45V214.95C71.4452 214.95 69.5049 213.01 69.5049 210.7H67.0049ZM73.7549 217.45H81.4549V214.95H73.7549V217.45ZM81.4549 217.45C90.0822 217.45 97.949 222.283 101.837 230.059L104.073 228.941C99.7608 220.317 91.0275 214.95 81.4549 214.95V217.45ZM101.837 230.06L119.238 264.76L121.472 263.64L104.072 228.94L101.837 230.06ZM120.355 265.45H160.355V262.95H120.355V265.45ZM160.355 265.45C162.145 265.45 163.605 263.99 163.605 262.2H161.105C161.105 262.61 160.765 262.95 160.355 262.95V265.45ZM163.605 262.2V252.2H161.105V262.2H163.605ZM163.605 252.2C163.605 250.41 162.145 248.95 160.355 248.95V251.45C160.765 251.45 161.105 251.79 161.105 252.2H163.605ZM160.355 248.95H140.355V251.45H160.355V248.95ZM140.355 248.95C134.445 248.95 129.605 244.11 129.605 238.2H127.105C127.105 245.49 133.065 251.45 140.355 251.45V248.95ZM129.605 238.2V196.2H127.105V238.2H129.605ZM129.605 196.2C129.605 190.29 134.445 185.45 140.355 185.45V182.95C133.065 182.95 127.105 188.91 127.105 196.2H129.605ZM140.355 185.45H204.355V182.95H140.355V185.45ZM204.355 185.45C210.265 185.45 215.105 190.29 215.105 196.2H217.605C217.605 188.91 211.645 182.95 204.355 182.95V185.45ZM215.105 196.2V238.2H217.605V196.2H215.105ZM215.105 238.2C215.105 244.11 210.265 248.95 204.355 248.95V251.45C211.645 251.45 217.605 245.49 217.605 238.2H215.105ZM204.355 248.95H184.355V251.45H204.355V248.95ZM184.355 248.95C182.565 248.95 181.105 250.41 181.105 252.2H183.605C183.605 251.79 183.945 251.45 184.355 251.45V248.95ZM181.105 252.2V262.2H183.605V252.2H181.105ZM181.105 262.2C181.105 263.99 182.565 265.45 184.355 265.45V262.95C183.945 262.95 183.605 262.61 183.605 262.2H181.105ZM184.355 265.45H279.855V262.95H184.355V265.45ZM279.855 265.45C283.29 265.45 284.365 260.887 281.337 259.294L280.173 261.506C280.945 261.913 280.619 262.95 279.855 262.95V265.45ZM281.314 259.282L264.914 251.082L263.796 253.318L280.196 261.518L281.314 259.282ZM265.605 252.2V232.2H263.105V252.2H265.605ZM264.914 233.318L295.114 218.218L293.996 215.982L263.796 231.082L264.914 233.318ZM295.072 218.238C296.662 217.515 297.605 215.841 297.605 214.2H295.105C295.105 214.959 294.648 215.685 294.038 215.962L295.072 218.238ZM297.605 214.2C297.605 212.499 296.615 211 295.153 210.203L293.956 212.397C294.694 212.8 295.105 213.501 295.105 214.2H297.605ZM295.114 210.182L266.914 196.082L265.796 198.318L293.996 212.418L295.114 210.182ZM267.239 198.084L270.239 195.084L268.471 193.316L265.471 196.316L267.239 198.084ZM270.239 195.084C272.427 192.896 272.427 189.504 270.239 187.316L268.471 189.084C269.683 190.296 269.683 192.104 268.471 193.316L270.239 195.084ZM270.239 187.316C268.051 185.128 264.659 185.128 262.471 187.316L264.239 189.084C265.451 187.872 267.259 187.872 268.471 189.084L270.239 187.316ZM262.471 187.316L253.771 196.016L255.539 197.784L264.239 189.084L262.471 187.316ZM255.248 195.799C249.598 192.757 242.44 193.411 237.345 197.748L238.965 199.652C243.27 195.988 249.312 195.443 254.062 198.001L255.248 195.799ZM237.271 197.816C236.859 198.228 236.611 198.778 236.56 199.337C236.508 199.904 236.658 200.571 237.171 201.084L238.939 199.316C238.99 199.367 239.021 199.425 239.037 199.475C239.052 199.522 239.051 199.553 239.05 199.563C239.049 199.573 239.047 199.575 239.048 199.572C239.05 199.57 239.048 199.574 239.039 199.584L237.271 197.816ZM237.171 201.084L256.371 220.284L258.139 218.516L238.939 199.316L237.171 201.084ZM256.371 220.284C257.28 221.193 258.85 221.182 259.731 220.081L257.779 218.519C257.812 218.478 257.877 218.442 257.948 218.439C258.008 218.436 258.079 218.457 258.139 218.516L256.371 220.284ZM259.707 220.11C264.046 215.012 264.694 207.958 261.66 202.216L259.45 203.384C262.016 208.242 261.464 214.188 257.803 218.49L259.707 220.11ZM237.355 85.45C241.465 85.45 244.725 82.0623 244.604 77.9632L242.105 78.0367C242.185 80.7376 240.045 82.95 237.355 82.95V85.45ZM244.604 77.9621C244.482 73.9164 240.958 70.95 237.155 70.95V73.45C239.752 73.45 242.028 75.4835 242.105 78.0378L244.604 77.9621ZM237.155 70.95H234.455V73.45H237.155V70.95ZM234.455 70.95C233.464 70.95 232.518 70.5684 231.884 69.8637L230.026 71.5362C231.192 72.8315 232.846 73.45 234.455 73.45V70.95ZM231.839 69.8161L230.339 68.3161L228.571 70.0838L230.071 71.5838L231.839 69.8161ZM230.339 68.3161C228.908 66.8856 228.526 64.6737 229.463 62.8782L227.247 61.7217C225.783 64.5262 226.401 67.9143 228.571 70.0838L230.339 68.3161ZM229.473 62.859L231.073 59.659L228.837 58.5409L227.237 61.7409L229.473 62.859ZM231.055 59.6926C232.232 57.5081 230.541 54.95 228.155 54.95V57.45C228.768 57.45 229.078 58.0918 228.854 58.5073L231.055 59.6926ZM228.155 54.95H218.355V57.45H228.155V54.95ZM252.211 66.0051C253.614 64.3389 255.382 63.45 257.255 63.45V60.95C254.527 60.95 252.096 62.261 250.299 64.3948L252.211 66.0051ZM257.255 63.45C259.272 63.45 261.181 64.5358 262.629 66.4731C264.077 68.4116 265.005 71.143 265.005 74.2H267.505C267.505 70.6569 266.433 67.3883 264.631 64.9768C262.829 62.5641 260.237 60.95 257.255 60.95V63.45ZM265.005 74.2C265.005 75.7906 264.56 77.5251 263.923 79.5005C263.306 81.414 262.488 83.6037 261.908 85.8354C260.717 90.4132 260.399 95.5921 264.113 101.191L266.196 99.8089C263.011 95.0078 263.242 90.6367 264.327 86.4645C264.884 84.3212 265.635 82.3359 266.302 80.2681C266.949 78.2623 267.505 76.2093 267.505 74.2H265.005ZM264.115 101.193C264.48 101.741 263.96 102.482 263.289 102.296L262.62 104.704C265.55 105.518 267.83 102.259 266.195 99.8066L264.115 101.193ZM263.274 102.291C256.385 100.474 249.505 95.0195 249.505 86.2H247.005C247.005 96.5804 255.124 102.726 262.636 104.709L263.274 102.291ZM249.505 86.2C249.505 82.4036 250.455 79.0646 251.415 76.6642C251.894 75.4669 252.372 74.5119 252.727 73.861C252.905 73.5358 253.051 73.2874 253.151 73.1233C253.201 73.0413 253.239 72.9805 253.264 72.9418C253.276 72.9225 253.285 72.9087 253.29 72.9006C253.293 72.8965 253.295 72.8939 253.295 72.8927C253.296 72.892 253.296 72.8918 253.296 72.8919C253.296 72.892 253.296 72.8921 253.296 72.8923C253.296 72.8925 253.295 72.8927 253.295 72.8928C253.295 72.893 253.295 72.8933 252.255 72.2C251.215 71.5066 251.215 71.5069 251.214 71.5073C251.214 71.5074 251.214 71.5078 251.214 71.5081C251.213 71.5087 251.213 71.5094 251.212 71.5102C251.211 71.5118 251.21 71.5137 251.209 71.516C251.206 71.5206 251.202 71.5267 251.197 71.5342C251.187 71.5493 251.173 71.5702 251.156 71.5967C251.122 71.6499 251.075 71.7258 251.015 71.8235C250.896 72.0188 250.73 72.3016 250.533 72.6639C250.138 73.388 249.615 74.433 249.094 75.7357C248.054 78.3353 247.005 81.9963 247.005 86.2H249.505ZM252.45 64.8341C249.294 54.5239 239.62 46.95 228.255 46.95V49.45C238.49 49.45 247.216 56.276 250.06 65.5658L252.45 64.8341ZM228.255 46.95C222.048 46.95 216.794 48.4532 212.545 51.6231C208.302 54.7887 205.178 59.5302 203.07 65.8018L205.44 66.5981C207.432 60.6697 210.308 56.4112 214.04 53.6268C217.766 50.8467 222.462 49.45 228.255 49.45V46.95ZM203.069 65.8047L200.069 74.8047L202.441 75.5952L205.441 66.5952L203.069 65.8047ZM200.069 74.8047C199.024 77.9391 199.133 80.2037 200.255 81.7C201.362 83.1766 203.121 83.45 204.255 83.45V80.95C203.388 80.95 202.647 80.7233 202.255 80.2C201.877 79.6962 201.486 78.4609 202.441 75.5952L200.069 74.8047ZM204.255 83.45H206.255V80.95H204.255V83.45ZM206.255 83.45C206.665 83.45 207.005 83.7903 207.005 84.2H209.505C209.505 82.4096 208.045 80.95 206.255 80.95V83.45ZM207.005 84.2V92H209.505V84.2H207.005ZM207.005 92C207.005 97.6451 211.52 102.45 217.155 102.45V99.95C212.99 99.95 209.505 96.3548 209.505 92H207.005ZM217.155 102.45H222.755V99.95H217.155V102.45ZM222.755 102.45C225.065 102.45 227.005 104.39 227.005 106.7H229.505C229.505 103.01 226.445 99.95 222.755 99.95V102.45ZM227.005 106.7C227.005 109.01 225.065 110.95 222.755 110.95V113.45C226.445 113.45 229.505 110.39 229.505 106.7H227.005ZM222.755 110.95H215.055V113.45H222.755V110.95ZM215.055 110.95C205.482 110.95 196.749 116.317 192.437 124.941L194.673 126.059C198.561 118.283 206.428 113.45 215.055 113.45V110.95ZM192.438 124.939L177.238 155.239L179.472 156.36L194.672 126.06L192.438 124.939ZM177.245 155.225C176.055 157.521 173.776 158.95 171.155 158.95V161.45C174.733 161.45 177.855 159.479 179.465 156.375L177.245 155.225ZM171.155 158.95H112.255V161.45H171.155V158.95ZM112.255 158.95C108.545 158.95 105.505 155.91 105.505 152.2H103.005C103.005 157.29 107.165 161.45 112.255 161.45V158.95ZM105.505 152.2V120.2H103.005V152.2H105.505ZM105.505 120.2C105.505 116.49 108.545 113.45 112.255 113.45V110.95C107.165 110.95 103.005 115.11 103.005 120.2H105.505ZM112.255 113.45H160.255V110.95H112.255V113.45ZM160.255 113.45C163.965 113.45 167.005 116.49 167.005 120.2H169.505C169.505 115.11 165.345 110.95 160.255 110.95V113.45ZM167.005 120.2V153.2H169.505V120.2H167.005ZM263.005 152.2C263.005 164.764 252.819 174.95 240.255 174.95V177.45C254.2 177.45 265.505 166.145 265.505 152.2H263.005ZM240.255 174.95C227.69 174.95 217.505 164.764 217.505 152.2H215.005C215.005 166.145 226.31 177.45 240.255 177.45V174.95ZM217.505 152.2C217.505 139.635 227.69 129.45 240.255 129.45V126.95C226.31 126.95 215.005 138.255 215.005 152.2H217.505ZM240.255 129.45C252.819 129.45 263.005 139.635 263.005 152.2H265.505C265.505 138.255 254.2 126.95 240.255 126.95V129.45ZM231.371 145.084L239.371 153.084L241.139 151.316L233.139 143.316L231.371 145.084ZM241.139 153.084L253.139 141.084L251.371 139.316L239.371 151.316L241.139 153.084ZM62.5042 146.242L62.6042 143.242L60.1056 143.158L60.0056 146.158L62.5042 146.242ZM62.6049 143.2C62.6049 134.433 64.7645 128.446 67.8659 123.668C71.0102 118.824 75.1165 115.206 79.2388 111.084L77.471 109.316C73.4933 113.294 69.0995 117.176 65.7689 122.307C62.3953 127.504 60.1049 133.967 60.1049 143.2H62.6049ZM79.2388 111.084C82.8149 107.508 85.4061 104.147 87.6043 99.6211C89.7875 95.1263 91.5623 89.5243 93.5676 81.5031L91.1422 80.8968C89.1475 88.8756 87.4223 94.2736 85.3555 98.5288C83.3037 102.753 80.8949 105.892 77.471 109.316L79.2388 111.084ZM93.5681 81.5009L100.068 55.3009L97.6417 54.699L91.1417 80.899L93.5681 81.5009ZM100.068 55.3031C100.066 55.3102 100.053 55.3492 100.01 55.3922C99.9694 55.4334 99.9218 55.4582 99.8799 55.4695C99.8394 55.4804 99.8076 55.4782 99.7872 55.4736C99.7767 55.4712 99.7687 55.468 99.763 55.4652C99.7572 55.4624 99.7546 55.4602 99.7547 55.4602L101.355 53.5397C100.754 53.0384 99.9615 52.8585 99.2299 53.0554C98.4719 53.2595 97.8535 53.8518 97.6422 54.6968L100.068 55.3031ZM99.671 55.3838L104.471 60.1838L106.239 58.4161L101.439 53.6161L99.671 55.3838ZM105.355 60.55H112.355V58.05H105.355V60.55ZM113.478 59.849L115.678 55.349L113.432 54.2509L111.232 58.7509L113.478 59.849ZM115.704 55.2924C115.676 55.3581 115.622 55.4218 115.554 55.464C115.494 55.5019 115.443 55.5105 115.414 55.5116C115.375 55.513 115.286 55.5006 115.215 55.3933L117.295 54.0066C116.823 53.2993 116.035 52.9869 115.321 53.0133C114.586 53.0405 113.778 53.44 113.406 54.3076L115.704 55.2924ZM115.212 55.3888L122.212 65.9888L124.298 64.6111L117.298 54.0111L115.212 55.3888ZM122.224 66.0069C123.447 67.7906 124.641 69.4632 125.548 71.1927C126.446 72.9059 127.005 74.5761 127.005 76.2999H129.505C129.505 74.0238 128.764 71.944 127.762 70.0322C126.769 68.1367 125.463 66.3093 124.286 64.593L122.224 66.0069ZM127.005 76.2999C127.005 79.7905 125.322 81.7176 123.299 84.1198C121.265 86.5347 119.005 89.3304 119.005 94.2999H121.505C121.505 90.2695 123.245 88.0652 125.211 85.7301C127.188 83.3823 129.505 80.8094 129.505 76.2999H127.005ZM119.005 94.2999V105.3H121.505V94.2999H119.005Z" fill="url(#paint0_linear_4_326)"/>
<path d="M83.2549 175.2C84.3595 175.2 85.2549 174.305 85.2549 173.2C85.2549 172.095 84.3595 171.2 83.2549 171.2C82.1503 171.2 81.2549 172.095 81.2549 173.2C81.2549 174.305 82.1503 175.2 83.2549 175.2Z" fill="url(#paint1_linear_4_326)"/>
<path d="M213.255 71.2C214.359 71.2 215.255 70.3045 215.255 69.2C215.255 68.0954 214.359 67.2 213.255 67.2C212.15 67.2 211.255 68.0954 211.255 69.2C211.255 70.3045 212.15 71.2 213.255 71.2Z" fill="url(#paint2_linear_4_326)"/>
<defs>
<linearGradient id="paint0_linear_4_326" x1="160.305" y1="48.2" x2="160.305" y2="264.2" gradientUnits="userSpaceOnUse">
<stop stop-color="#93C437"/>
<stop offset="1" stop-color="#279BE8"/>
</linearGradient>
<linearGradient id="paint1_linear_4_326" x1="148.255" y1="67.2" x2="148.255" y2="175.2" gradientUnits="userSpaceOnUse">
<stop stop-color="#93C437"/>
<stop offset="1" stop-color="#279BE8"/>
</linearGradient>
<linearGradient id="paint2_linear_4_326" x1="148.255" y1="67.2" x2="148.255" y2="175.2" gradientUnits="userSpaceOnUse">
<stop stop-color="#93C437"/>
<stop offset="1" stop-color="#279BE8"/>
</linearGradient>
</defs>
</svg>
