<svg width="320" height="320" viewBox="0 0 320 320" fill="none" xmlns="http://www.w3.org/2000/svg">
<path d="M59.2275 188.2C55.8275 188.2 53.1275 185.4 53.2275 182C53.3275 178.7 56.2275 176.2 59.4275 176.2H62.1275C63.4275 176.2 64.7275 175.7 65.6275 174.7L67.1275 173.2C68.9275 171.4 69.4275 168.6 68.2275 166.3L66.6275 163.1C65.9275 161.8 66.9275 160.2 68.4275 160.2H78.2275M44.2275 176.2C44.2275 176.2 48.2275 182.2 48.2275 190.2C48.2275 199.8 40.7275 205.6 33.5275 207.5C31.7275 208 30.3275 206 31.3275 204.5C38.2275 194.1 30.2275 185.4 30.2275 178.2C30.2275 171.6 34.2275 166.2 39.2275 166.2C41.5275 166.2 43.6275 167.3 45.2275 169.2C48.2275 159.4 57.4275 152.2 68.2275 152.2C80.2275 152.2 88.1275 158 92.2275 170.2L95.2275 179.2C97.2275 185.2 94.2275 186.2 92.2275 186.2H90.2275C89.1275 186.2 88.2275 187.1 88.2275 188.2V196C88.2275 201 84.2275 205.2 79.3275 205.2H73.7275C70.7275 205.2 68.2275 207.7 68.2275 210.7C68.2275 213.7 70.7275 216.2 73.7275 216.2H81.4275C90.5275 216.2 98.8275 221.3 102.928 229.5L120.328 264.2H160.328C161.428 264.2 162.328 263.3 162.328 262.2V252.2C162.328 251.1 161.428 250.2 160.328 250.2H140.328C133.728 250.2 128.328 244.8 128.328 238.2V196.2C128.328 189.6 133.728 184.2 140.328 184.2H204.328C210.928 184.2 216.328 189.6 216.328 196.2V238.2C216.328 244.8 210.928 250.2 204.328 250.2H184.328C183.228 250.2 182.328 251.1 182.328 252.2V262.2C182.328 263.3 183.228 264.2 184.328 264.2H279.828C281.928 264.2 282.628 261.4 280.728 260.4L264.328 252.2V232.2L294.528 217.1C295.628 216.6 296.328 215.4 296.328 214.2C296.328 213 295.628 211.9 294.528 211.3L266.328 197.2L269.328 194.2C271.028 192.5 271.028 189.9 269.328 188.2C267.628 186.5 265.028 186.5 263.328 188.2L254.628 196.9C249.428 194.1 242.828 194.7 238.128 198.7C237.728 199.1 237.628 199.8 238.028 200.2L257.228 219.4C257.628 219.8 258.328 219.8 258.728 219.3C262.728 214.6 263.328 208.1 260.528 202.8M88.2275 264.2L70.8275 229.5C66.7275 221.4 58.4275 216.2 49.3275 216.2H36.2275C29.6275 216.2 24.2275 221.6 24.2275 228.2V264.2M237.328 84.2C240.728 84.2 243.428 81.4 243.328 78C243.228 74.7 240.328 72.2 237.128 72.2H234.428C233.128 72.2 231.828 71.7 230.928 70.7L229.428 69.2C227.628 67.4 227.128 64.6 228.328 62.3L229.928 59.1C230.628 57.8 229.628 56.2 228.128 56.2H218.328M252.228 72.2C252.228 72.2 248.228 78.2 248.228 86.2C248.228 95.8 255.728 101.6 262.928 103.5C264.728 104 266.128 102 265.128 100.5C258.228 90.1 266.228 81.4 266.228 74.2C266.228 67.6 262.228 62.2 257.228 62.2C254.928 62.2 252.828 63.3 251.228 65.2C248.228 55.4 239.028 48.2 228.228 48.2C216.228 48.2 208.328 54 204.228 66.2L201.228 75.2C199.228 81.2 202.228 82.2 204.228 82.2H206.228C207.328 82.2 208.228 83.1 208.228 84.2V92C208.228 97 212.228 101.2 217.128 101.2H222.728C225.728 101.2 228.228 103.7 228.228 106.7C228.228 109.7 225.728 112.2 222.728 112.2H215.028C205.928 112.2 197.628 117.3 193.528 125.5L178.328 155.8C176.928 158.5 174.228 160.2 171.128 160.2H112.228C107.828 160.2 104.228 156.6 104.228 152.2V120.2C104.228 115.8 107.828 112.2 112.228 112.2H160.228C164.628 112.2 168.228 115.8 168.228 120.2V153.2M232.228 144.2L240.228 152.2L252.228 140.2M61.2275 146.2L61.3275 143.2C61.3275 125.2 70.2275 118.3 78.3275 110.2C85.3275 103.2 88.3275 97.2 92.3275 81.2L98.8275 55C99.0275 54.2 99.9275 54 100.528 54.5L105.328 59.3H112.328L114.528 54.8C114.828 54.1 115.828 54.1 116.228 54.7L123.228 65.2999C125.628 68.7999 128.228 72.2999 128.228 76.2999C128.228 84.2999 120.228 85.2999 120.228 94.2999V105.3M264.228 152.2C264.228 165.455 253.482 176.2 240.228 176.2C226.973 176.2 216.228 165.455 216.228 152.2C216.228 138.945 226.973 128.2 240.228 128.2C253.482 128.2 264.228 138.945 264.228 152.2Z" stroke="url(#paint0_linear_3377_376)" stroke-width="2.5" stroke-miterlimit="10" stroke-linecap="round" stroke-linejoin="round"/>
<path d="M83.2275 175.2C84.3321 175.2 85.2275 174.305 85.2275 173.2C85.2275 172.095 84.3321 171.2 83.2275 171.2C82.123 171.2 81.2275 172.095 81.2275 173.2C81.2275 174.305 82.123 175.2 83.2275 175.2Z" fill="#D3C145"/>
<path d="M213.228 71.2C214.332 71.2 215.228 70.3045 215.228 69.2C215.228 68.0954 214.332 67.2 213.228 67.2C212.123 67.2 211.228 68.0954 211.228 69.2C211.228 70.3045 212.123 71.2 213.228 71.2Z" fill="#D3C145"/>
<defs>
<linearGradient id="paint0_linear_3377_376" x1="160.278" y1="48.2" x2="160.278" y2="264.2" gradientUnits="userSpaceOnUse">
<stop stop-color="#279BE8"/>
<stop offset="1" stop-color="#875AE0"/>
</linearGradient>
</defs>
</svg>
