<svg width="321" height="320" viewBox="0 0 321 320" fill="none" xmlns="http://www.w3.org/2000/svg">
<path d="M180.355 191.7H160.355C158.155 191.7 156.355 193.5 156.355 195.7V200.7M191.255 191.7H196.255C198.455 191.7 200.255 193.5 200.255 195.7V207.7H212.255C214.455 207.7 216.255 209.5 216.255 211.7V223.7H228.255C230.455 223.7 232.255 225.5 232.255 227.7V232.7M160.255 207.7H174.255C184.155 207.7 192.255 215.8 192.255 225.7V235.7C192.255 237.9 194.055 239.7 196.255 239.7H268.255C281.555 239.7 292.255 229 292.255 215.7V179.7C292.255 169.8 284.155 161.7 274.255 161.7H268.355C263.955 161.7 260.355 158.1 260.355 153.7V131.7C260.355 129.3 262.355 127.5 264.755 127.7C266.855 127.9 268.455 130 268.355 132.1C267.855 140.3 254.855 154.9 239.055 154.7C230.855 154.6 224.355 147.9 224.355 139.7V119.7C224.355 112.5 230.155 106.7 237.355 106.7H241.255C248.455 106.7 254.255 112.5 254.255 119.7M160.255 207.7C158.055 207.7 156.255 209.5 156.255 211.7V216.7M160.255 207.7H167.255M172.255 214.7V235.7C172.255 237.9 170.455 239.7 168.255 239.7H158.255M159.855 184.7L168.755 166.9C170.255 164 174.455 164 175.955 166.9L185.455 186C186.755 188.7 184.855 191.8 181.855 191.8H162.755M262.455 168.8C259.855 174.1 254.755 177.8 248.455 177.8C239.655 177.8 232.455 170.6 232.455 161.8H219.555C212.755 161.8 206.455 165.7 203.455 171.8L198.355 181.8L196.855 184.8M28.2546 223.7C36.2546 175.7 52.2546 175.7 59.2546 161.7C60.2546 159.7 61.2546 157.7 61.2546 154.7C61.2546 146.7 57.2546 144.6 57.2546 135.7C57.2546 122.4 67.9546 111.7 81.2546 111.7C93.2546 111.7 101.155 117.5 105.255 129.7L108.255 138.7C110.255 144.7 107.255 145.7 105.255 145.7H103.255C102.155 145.7 101.255 146.6 101.255 147.7V155.5C101.255 160.5 97.2546 164.7 92.3546 164.7H85.2546L80.2546 174.7C77.3546 180.4 73.6546 183.4 68.9546 183.7C65.5546 183.9 62.3546 181.4 62.2546 178C62.0546 174.5 64.8546 171.7 68.2546 171.7C78.2546 171.7 85.2546 177.7 92.2546 191.7L104.955 217.1C106.955 221.2 111.155 223.7 115.655 223.7H143.055C143.855 223.7 144.655 223.4 145.355 223L150.755 219.2C152.555 217.9 154.755 217.2 156.955 217.4L163.255 217.5C165.455 217.7 167.255 219.6 167.255 222.3V223C167.255 224.5 167.155 226 166.555 227.4C165.955 228.8 165.055 230.1 163.855 231.1C162.255 232.5 160.255 233.2 158.155 233.4L154.155 233.7C154.155 233.7 151.155 239.7 138.155 239.7M72.2546 147.7C68.8546 147.7 66.1546 144.9 66.2546 141.5C66.3546 138.2 69.2546 135.7 72.4546 135.7H75.1546C76.4546 135.7 77.7546 135.2 78.6546 134.2L80.1546 132.7C81.9546 130.9 82.4546 128.1 81.2546 125.8L79.6546 122.6C78.9546 121.3 79.9546 119.7 81.4546 119.7H91.2546M234.455 123.7C234.455 123.7 232.255 130.5 231.455 132.7C230.455 135.7 232.455 136.7 234.455 136.7H236.455M275.355 134C280.955 128.2 284.355 120.4 284.355 111.8C284.355 94.1 270.055 79.8 252.355 79.8C234.655 79.8 220.355 94.1 220.355 111.8" stroke="white" stroke-width="2.5" stroke-miterlimit="10" stroke-linecap="round" stroke-linejoin="round"/>
<path d="M96.3545 134.7C97.4591 134.7 98.3545 133.805 98.3545 132.7C98.3545 131.595 97.4591 130.7 96.3545 130.7C95.2499 130.7 94.3545 131.595 94.3545 132.7C94.3545 133.805 95.2499 134.7 96.3545 134.7Z" fill="white"/>
<path d="M244.455 127.7C245.559 127.7 246.455 126.805 246.455 125.7C246.455 124.595 245.559 123.7 244.455 123.7C243.35 123.7 242.455 124.595 242.455 125.7C242.455 126.805 243.35 127.7 244.455 127.7Z" fill="white"/>
</svg>
