<svg width="321" height="320" viewBox="0 0 321 320" fill="none" xmlns="http://www.w3.org/2000/svg">
<path d="M132.445 95.1044C132.658 94.4475 132.297 93.7428 131.641 93.5303C130.984 93.3178 130.279 93.678 130.067 94.3348L132.445 95.1044ZM128.256 103.72L127.081 103.292C127.077 103.303 127.074 103.314 127.07 103.324L128.256 103.72ZM133.256 108.97C133.946 108.97 134.506 108.41 134.506 107.72C134.506 107.029 133.946 106.47 133.256 106.47V108.97ZM163.256 94.9696C163.946 94.9696 164.506 94.41 164.506 93.7196C164.506 93.0292 163.946 92.4696 163.256 92.4696V94.9696ZM136.256 125.72L136.272 124.47L136.271 124.47L136.256 125.72ZM165.256 103.12L166.504 103.196C166.504 103.19 166.504 103.185 166.504 103.179L165.256 103.12ZM161.656 98.7196L161.774 97.4752C161.769 97.4748 161.765 97.4743 161.76 97.4739L161.656 98.7196ZM185.456 139.52L186.321 138.618L186.32 138.616L185.456 139.52ZM197.856 151.42L196.99 152.321C197.004 152.335 197.018 152.348 197.033 152.36L197.856 151.42ZM200.656 151.42L201.479 152.36C201.494 152.347 201.509 152.334 201.523 152.32L200.656 151.42ZM225.256 127.72L226.123 128.62C226.368 128.384 226.506 128.059 226.506 127.72H225.256ZM238.156 111.62L238.671 112.758C238.686 112.752 238.7 112.745 238.715 112.738L238.156 111.62ZM241.656 117.12L240.837 116.175L240.835 116.177L241.656 117.12ZM236.256 121.82L235.435 120.877C234.98 121.273 234.873 121.937 235.18 122.456L236.256 121.82ZM231.756 139.52L231.089 138.462C231.08 138.468 231.071 138.474 231.062 138.48L231.756 139.52ZM274.256 150.97C274.946 150.97 275.506 150.41 275.506 149.72C275.506 149.029 274.946 148.47 274.256 148.47V150.97ZM116.006 82.7196C116.006 83.41 116.566 83.9696 117.256 83.9696C117.946 83.9696 118.506 83.41 118.506 82.7196H116.006ZM169.006 93.7196C169.006 94.41 169.566 94.9696 170.256 94.9696C170.946 94.9696 171.506 94.41 171.506 93.7196H169.006ZM192.656 237.02L191.541 236.455L191.538 236.459L192.656 237.02ZM203.356 177.72L202.171 177.321L202.17 177.324L203.356 177.72ZM246.106 208.72C246.106 209.41 246.666 209.97 247.356 209.97C248.046 209.97 248.606 209.41 248.606 208.72H246.106ZM52.2559 176.97C52.9462 176.97 53.5059 176.41 53.5059 175.72C53.5059 175.029 52.9462 174.47 52.2559 174.47V176.97ZM90.2559 160.72H89.0059C89.0059 161.41 89.5655 161.97 90.2559 161.97V160.72ZM136.256 133.97C136.946 133.97 137.506 133.41 137.506 132.72C137.506 132.029 136.946 131.47 136.256 131.47V133.97ZM80.3559 85.0196L81.5965 84.8669C81.5959 84.862 81.5953 84.8571 81.5946 84.8522L80.3559 85.0196ZM93.2559 96.7196L93.16 97.9659C93.17 97.9667 93.1801 97.9673 93.1902 97.9679L93.2559 96.7196ZM98.0559 96.1196L98.4511 97.3055C98.4744 97.2977 98.4974 97.2893 98.5201 97.2802L98.0559 96.1196ZM98.3559 92.6196L97.65 93.6512C97.6599 93.658 97.6699 93.6646 97.6799 93.6711L98.3559 92.6196ZM100.856 71.1196L102.087 71.3351L102.088 71.332L100.856 71.1196ZM73.9559 35.9196L73.8473 37.1649L73.8497 37.1651L73.9559 35.9196ZM41.6559 70.8196L40.422 71.02L40.4226 71.0235L41.6559 70.8196ZM70.2559 94.8196V96.0697L70.2684 96.0695L70.2559 94.8196ZM230.006 107.72C230.006 108.41 230.566 108.97 231.256 108.97C231.946 108.97 232.506 108.41 232.506 107.72H230.006ZM266.856 84.3196L265.972 85.2035L266.856 84.3196ZM277.656 95.1196L278.54 94.2357L277.656 95.1196ZM277.006 115.72C277.006 116.41 277.566 116.97 278.256 116.97C278.946 116.97 279.506 116.41 279.506 115.72H277.006ZM266.506 84.7196C266.506 84.0292 265.946 83.4696 265.256 83.4696C264.566 83.4696 264.006 84.0292 264.006 84.7196H266.506ZM265.256 96.7196H264.006C264.006 97.41 264.566 97.9696 265.256 97.9696V96.7196ZM277.256 97.9696C277.946 97.9696 278.506 97.41 278.506 96.7196C278.506 96.0292 277.946 95.4696 277.256 95.4696V97.9696ZM236.356 194.47C235.666 194.47 235.106 195.029 235.106 195.72C235.106 196.41 235.666 196.97 236.356 196.97V194.47ZM242.356 189.52L243.605 189.483L243.605 189.482L242.356 189.52ZM229.956 182.22L230.885 181.383C230.87 181.367 230.855 181.351 230.84 181.336L229.956 182.22ZM227.356 173.82L228.464 174.398C228.467 174.391 228.471 174.385 228.474 174.379L227.356 173.82ZM228.956 170.62L227.855 170.027C227.849 170.038 227.843 170.049 227.838 170.061L228.956 170.62ZM217.356 166.47C216.666 166.47 216.106 167.029 216.106 167.72C216.106 168.41 216.666 168.97 217.356 168.97V166.47ZM248.506 208.72C248.506 208.029 247.946 207.47 247.256 207.47C246.566 207.47 246.006 208.029 246.006 208.72H248.506ZM268.356 129.82L267.434 130.664C267.438 130.668 267.442 130.673 267.446 130.677L268.356 129.82ZM268.456 125.62L269.301 126.541C269.314 126.529 269.327 126.516 269.34 126.503L268.456 125.62ZM272.456 125.32L271.706 126.32L271.709 126.322L272.456 125.32ZM278.356 129.72L277.609 130.722C277.988 131.004 278.494 131.049 278.916 130.837C279.339 130.625 279.606 130.192 279.606 129.72H278.356ZM278.356 115.72V114.47C277.666 114.47 277.106 115.029 277.106 115.72H278.356ZM289.106 135.72C289.106 136.41 289.665 136.97 290.356 136.97C291.046 136.97 291.606 136.41 291.606 135.72H289.106ZM196.256 176.97C196.946 176.97 197.506 176.41 197.506 175.72C197.506 175.029 196.946 174.47 196.256 174.47V176.97ZM131.256 94.7196C130.067 94.3348 130.067 94.3348 130.067 94.3349C130.067 94.3349 130.066 94.335 130.066 94.3351C130.066 94.3353 130.066 94.3356 130.066 94.336C130.066 94.3368 130.066 94.338 130.065 94.3397C130.064 94.3429 130.062 94.3477 130.06 94.3542C130.056 94.367 130.05 94.3862 130.042 94.4113C130.026 94.4614 130.002 94.5354 129.971 94.6303C129.909 94.8202 129.82 95.094 129.711 95.4295C129.493 96.1005 129.193 97.0179 128.869 98.0038C128.217 99.9841 127.473 102.214 127.081 103.292L129.431 104.147C129.839 103.025 130.595 100.755 131.243 98.7854C131.569 97.7963 131.869 96.8762 132.088 96.2035C132.198 95.8671 132.287 95.5924 132.349 95.4018C132.38 95.3065 132.404 95.2322 132.42 95.1817C132.428 95.1565 132.435 95.1372 132.439 95.1242C132.441 95.1177 132.442 95.1127 132.444 95.1094C132.444 95.1078 132.444 95.1065 132.445 95.1057C132.445 95.1052 132.445 95.1049 132.445 95.1047C132.445 95.1046 132.445 95.1045 132.445 95.1045C132.445 95.1044 132.445 95.1044 131.256 94.7196ZM127.07 103.324C126.474 105.112 126.682 106.663 127.747 107.728C128.71 108.692 130.108 108.97 131.256 108.97V106.47C130.404 106.47 129.801 106.247 129.515 105.961C129.33 105.776 129.038 105.327 129.442 104.115L127.07 103.324ZM131.256 108.97H133.256V106.47H131.256V108.97ZM134.256 78.9696C140.681 78.9696 144.345 82.5766 148.372 86.6035L150.14 84.8357C146.167 80.8626 141.83 76.4696 134.256 76.4696V78.9696ZM148.372 86.6035C152.3 90.5318 156.657 94.9696 163.256 94.9696V92.4696C157.855 92.4696 154.211 88.9074 150.14 84.8357L148.372 86.6035ZM134.256 76.4696C126.366 76.4696 120.006 82.8292 120.006 90.7196H122.506C122.506 84.21 127.746 78.9696 134.256 78.9696V76.4696ZM120.006 90.7196V110.72H122.506V90.7196H120.006ZM120.006 110.72C120.006 119.624 127.376 126.861 136.241 126.97L136.271 124.47C128.736 124.378 122.506 118.216 122.506 110.72H120.006ZM136.24 126.969C144.532 127.074 151.947 123.3 157.325 118.502C160.02 116.099 162.231 113.415 163.808 110.78C165.375 108.163 166.362 105.516 166.504 103.196L164.008 103.044C163.9 104.823 163.112 107.077 161.663 109.496C160.225 111.899 158.18 114.39 155.661 116.637C150.614 121.139 143.779 124.565 136.272 124.47L136.24 126.969ZM166.504 103.179C166.632 100.505 164.627 97.7469 161.774 97.4752L161.537 99.964C162.885 100.092 164.08 101.534 164.007 103.06L166.504 103.179ZM161.76 97.4739C158.65 97.2147 156.006 99.5697 156.006 102.72H158.506C158.506 101.069 159.862 99.8245 161.552 99.9653L161.76 97.4739ZM156.006 102.72V124.72H158.506V102.72H156.006ZM156.006 124.72C156.006 129.81 160.165 133.97 165.256 133.97V131.47C161.546 131.47 158.506 128.429 158.506 124.72H156.006ZM165.256 133.97H168.356V131.47H165.256V133.97ZM168.356 133.97C174.441 133.97 180.23 136.25 184.592 140.423L186.32 138.616C181.482 133.989 175.07 131.47 168.356 131.47V133.97ZM184.59 140.421L196.99 152.321L198.721 150.518L186.321 138.618L184.59 140.421ZM197.033 152.36C198.304 153.473 200.208 153.473 201.479 152.36L199.833 150.479C199.504 150.767 199.008 150.767 198.679 150.479L197.033 152.36ZM201.523 152.32L226.123 128.62L224.389 126.819L199.789 150.519L201.523 152.32ZM226.506 127.72C226.506 123.554 228.464 120.308 231.004 117.826C233.557 115.333 236.635 113.68 238.671 112.758L237.641 110.481C235.477 111.459 232.105 113.256 229.257 116.038C226.397 118.832 224.006 122.685 224.006 127.72H226.506ZM238.715 112.738C239.381 112.404 240.309 112.541 240.972 113.203L242.74 111.436C241.402 110.098 239.331 109.635 237.597 110.502L238.715 112.738ZM240.972 113.203C241.771 114.003 241.776 115.361 240.837 116.175L242.475 118.064C244.536 116.278 244.54 113.236 242.74 111.436L240.972 113.203ZM240.835 116.177L235.435 120.877L237.077 122.762L242.477 118.062L240.835 116.177ZM235.18 122.456C236.449 124.601 236.929 127.676 236.306 130.719C235.688 133.739 234.008 136.621 231.089 138.462L232.423 140.577C236.004 138.318 238.023 134.8 238.756 131.22C239.483 127.663 238.962 123.938 237.332 121.183L235.18 122.456ZM231.062 138.48C230.541 138.827 230.006 139.469 230.006 140.32H232.506C232.506 140.45 232.463 140.529 232.448 140.553C232.433 140.577 232.429 140.573 232.449 140.56L231.062 138.48ZM230.006 140.32V147.72H232.506V140.32H230.006ZM230.006 147.72C230.006 149.51 231.465 150.97 233.256 150.97V148.47C232.846 148.47 232.506 148.129 232.506 147.72H230.006ZM233.256 150.97H274.256V148.47H233.256V150.97ZM118.506 82.7196C118.506 74.61 125.146 67.9696 133.256 67.9696V65.4696C123.766 65.4696 116.006 73.2292 116.006 82.7196H118.506ZM133.256 67.9696C133.266 67.9696 133.275 67.9696 133.285 67.9696C133.295 67.9696 133.305 67.9696 133.315 67.9696C133.325 67.9696 133.335 67.9696 133.344 67.9696C133.354 67.9696 133.364 67.9696 133.374 67.9696C133.384 67.9696 133.394 67.9696 133.404 67.9696C133.414 67.9696 133.424 67.9696 133.434 67.9696C133.445 67.9696 133.455 67.9696 133.465 67.9696C133.475 67.9696 133.485 67.9696 133.495 67.9696C133.505 67.9696 133.516 67.9696 133.526 67.9696C133.536 67.9696 133.546 67.9696 133.557 67.9696C133.567 67.9696 133.577 67.9696 133.588 67.9696C133.598 67.9696 133.608 67.9696 133.619 67.9696C133.629 67.9696 133.64 67.9696 133.65 67.9696C133.66 67.9696 133.671 67.9696 133.681 67.9696C133.692 67.9696 133.702 67.9696 133.713 67.9696C133.723 67.9696 133.734 67.9696 133.745 67.9696C133.755 67.9696 133.766 67.9696 133.776 67.9696C133.787 67.9696 133.798 67.9696 133.808 67.9696C133.819 67.9696 133.83 67.9696 133.84 67.9696C133.851 67.9696 133.862 67.9696 133.873 67.9696C133.883 67.9696 133.894 67.9696 133.905 67.9696C133.916 67.9696 133.927 67.9696 133.938 67.9696C133.949 67.9696 133.959 67.9696 133.97 67.9696C133.981 67.9696 133.992 67.9696 134.003 67.9696C134.014 67.9696 134.025 67.9696 134.036 67.9696C134.047 67.9696 134.058 67.9696 134.069 67.9696C134.08 67.9696 134.091 67.9696 134.102 67.9696C134.114 67.9696 134.125 67.9696 134.136 67.9696C134.147 67.9696 134.158 67.9696 134.169 67.9696C134.181 67.9696 134.192 67.9696 134.203 67.9696C134.214 67.9696 134.226 67.9696 134.237 67.9696C134.248 67.9696 134.259 67.9696 134.271 67.9696C134.282 67.9696 134.293 67.9696 134.305 67.9696C134.316 67.9696 134.328 67.9696 134.339 67.9696C134.35 67.9696 134.362 67.9696 134.373 67.9696C134.385 67.9696 134.396 67.9696 134.408 67.9696C134.419 67.9696 134.431 67.9696 134.442 67.9696C134.454 67.9696 134.465 67.9696 134.477 67.9696C134.489 67.9696 134.5 67.9696 134.512 67.9696C134.524 67.9696 134.535 67.9696 134.547 67.9696C134.559 67.9696 134.57 67.9696 134.582 67.9696C134.594 67.9696 134.605 67.9696 134.617 67.9696C134.629 67.9696 134.641 67.9696 134.652 67.9696C134.664 67.9696 134.676 67.9696 134.688 67.9696C134.7 67.9696 134.712 67.9696 134.724 67.9696C134.735 67.9696 134.747 67.9696 134.759 67.9696C134.771 67.9696 134.783 67.9696 134.795 67.9696C134.807 67.9696 134.819 67.9696 134.831 67.9696C134.843 67.9696 134.855 67.9696 134.867 67.9696C134.879 67.9696 134.891 67.9696 134.903 67.9696C134.915 67.9696 134.927 67.9696 134.94 67.9696C134.952 67.9696 134.964 67.9696 134.976 67.9696C134.988 67.9696 135 67.9696 135.013 67.9696C135.025 67.9696 135.037 67.9696 135.049 67.9696C135.061 67.9696 135.074 67.9696 135.086 67.9696C135.098 67.9696 135.111 67.9696 135.123 67.9696C135.135 67.9696 135.147 67.9696 135.16 67.9696C135.172 67.9696 135.185 67.9696 135.197 67.9696C135.209 67.9696 135.222 67.9696 135.234 67.9696C135.247 67.9696 135.259 67.9696 135.271 67.9696C135.284 67.9696 135.296 67.9696 135.309 67.9696C135.321 67.9696 135.334 67.9696 135.346 67.9696C135.359 67.9696 135.372 67.9696 135.384 67.9696C135.397 67.9696 135.409 67.9696 135.422 67.9696C135.434 67.9696 135.447 67.9696 135.46 67.9696C135.472 67.9696 135.485 67.9696 135.498 67.9696C135.51 67.9696 135.523 67.9696 135.536 67.9696C135.548 67.9696 135.561 67.9696 135.574 67.9696C135.587 67.9696 135.599 67.9696 135.612 67.9696C135.625 67.9696 135.638 67.9696 135.651 67.9696C135.663 67.9696 135.676 67.9696 135.689 67.9696C135.702 67.9696 135.715 67.9696 135.728 67.9696C135.741 67.9696 135.753 67.9696 135.766 67.9696C135.779 67.9696 135.792 67.9696 135.805 67.9696C135.818 67.9696 135.831 67.9696 135.844 67.9696C135.857 67.9696 135.87 67.9696 135.883 67.9696C135.896 67.9696 135.909 67.9696 135.922 67.9696C135.935 67.9696 135.948 67.9696 135.961 67.9696C135.974 67.9696 135.987 67.9696 136 67.9696C136.014 67.9696 136.027 67.9696 136.04 67.9696C136.053 67.9696 136.066 67.9696 136.079 67.9696C136.092 67.9696 136.106 67.9696 136.119 67.9696C136.132 67.9696 136.145 67.9696 136.158 67.9696C136.172 67.9696 136.185 67.9696 136.198 67.9696C136.211 67.9696 136.225 67.9696 136.238 67.9696C136.251 67.9696 136.265 67.9696 136.278 67.9696C136.291 67.9696 136.304 67.9696 136.318 67.9696C136.331 67.9696 136.345 67.9696 136.358 67.9696C136.371 67.9696 136.385 67.9696 136.398 67.9696C136.411 67.9696 136.425 67.9696 136.438 67.9696C136.452 67.9696 136.465 67.9696 136.479 67.9696C136.492 67.9696 136.506 67.9696 136.519 67.9696C136.532 67.9696 136.546 67.9696 136.559 67.9696C136.573 67.9696 136.586 67.9696 136.6 67.9696C136.614 67.9696 136.627 67.9696 136.641 67.9696C136.654 67.9696 136.668 67.9696 136.681 67.9696C136.695 67.9696 136.709 67.9696 136.722 67.9696C136.736 67.9696 136.749 67.9696 136.763 67.9696C136.777 67.9696 136.79 67.9696 136.804 67.9696C136.818 67.9696 136.831 67.9696 136.845 67.9696C136.859 67.9696 136.872 67.9696 136.886 67.9696C136.9 67.9696 136.914 67.9696 136.927 67.9696C136.941 67.9696 136.955 67.9696 136.969 67.9696C136.982 67.9696 136.996 67.9696 137.01 67.9696C137.024 67.9696 137.038 67.9696 137.051 67.9696C137.065 67.9696 137.079 67.9696 137.093 67.9696C137.107 67.9696 137.121 67.9696 137.134 67.9696C137.148 67.9696 137.162 67.9696 137.176 67.9696C137.19 67.9696 137.204 67.9696 137.218 67.9696C137.232 67.9696 137.245 67.9696 137.259 67.9696C137.273 67.9696 137.287 67.9696 137.301 67.9696C137.315 67.9696 137.329 67.9696 137.343 67.9696C137.357 67.9696 137.371 67.9696 137.385 67.9696C137.399 67.9696 137.413 67.9696 137.427 67.9696C137.441 67.9696 137.455 67.9696 137.469 67.9696C137.483 67.9696 137.497 67.9696 137.511 67.9696C137.525 67.9696 137.539 67.9696 137.553 67.9696C137.568 67.9696 137.582 67.9696 137.596 67.9696C137.61 67.9696 137.624 67.9696 137.638 67.9696C137.652 67.9696 137.666 67.9696 137.68 67.9696C137.695 67.9696 137.709 67.9696 137.723 67.9696C137.737 67.9696 137.751 67.9696 137.765 67.9696C137.78 67.9696 137.794 67.9696 137.808 67.9696C137.822 67.9696 137.836 67.9696 137.851 67.9696C137.865 67.9696 137.879 67.9696 137.893 67.9696C137.907 67.9696 137.922 67.9696 137.936 67.9696C137.95 67.9696 137.964 67.9696 137.979 67.9696C137.993 67.9696 138.007 67.9696 138.021 67.9696C138.036 67.9696 138.05 67.9696 138.064 67.9696C138.079 67.9696 138.093 67.9696 138.107 67.9696C138.122 67.9696 138.136 67.9696 138.15 67.9696C138.165 67.9696 138.179 67.9696 138.193 67.9696C138.208 67.9696 138.222 67.9696 138.236 67.9696C138.251 67.9696 138.265 67.9696 138.279 67.9696C138.294 67.9696 138.308 67.9696 138.323 67.9696C138.337 67.9696 138.351 67.9696 138.366 67.9696C138.38 67.9696 138.395 67.9696 138.409 67.9696C138.424 67.9696 138.438 67.9696 138.452 67.9696C138.467 67.9696 138.481 67.9696 138.496 67.9696C138.51 67.9696 138.525 67.9696 138.539 67.9696C138.554 67.9696 138.568 67.9696 138.583 67.9696C138.597 67.9696 138.612 67.9696 138.626 67.9696C138.64 67.9696 138.655 67.9696 138.67 67.9696C138.684 67.9696 138.699 67.9696 138.713 67.9696C138.728 67.9696 138.742 67.9696 138.757 67.9696C138.771 67.9696 138.786 67.9696 138.8 67.9696C138.815 67.9696 138.829 67.9696 138.844 67.9696C138.858 67.9696 138.873 67.9696 138.888 67.9696C138.902 67.9696 138.917 67.9696 138.931 67.9696C138.946 67.9696 138.96 67.9696 138.975 67.9696C138.99 67.9696 139.004 67.9696 139.019 67.9696C139.033 67.9696 139.048 67.9696 139.063 67.9696C139.077 67.9696 139.092 67.9696 139.107 67.9696C139.121 67.9696 139.136 67.9696 139.15 67.9696C139.165 67.9696 139.18 67.9696 139.194 67.9696C139.209 67.9696 139.224 67.9696 139.238 67.9696C139.253 67.9696 139.268 67.9696 139.282 67.9696C139.297 67.9696 139.312 67.9696 139.326 67.9696C139.341 67.9696 139.356 67.9696 139.37 67.9696C139.385 67.9696 139.4 67.9696 139.414 67.9696C139.429 67.9696 139.444 67.9696 139.458 67.9696C139.473 67.9696 139.488 67.9696 139.502 67.9696C139.517 67.9696 139.532 67.9696 139.547 67.9696C139.561 67.9696 139.576 67.9696 139.591 67.9696C139.605 67.9696 139.62 67.9696 139.635 67.9696C139.65 67.9696 139.664 67.9696 139.679 67.9696C139.694 67.9696 139.709 67.9696 139.723 67.9696C139.738 67.9696 139.753 67.9696 139.767 67.9696C139.782 67.9696 139.797 67.9696 139.812 67.9696C139.826 67.9696 139.841 67.9696 139.856 67.9696C139.871 67.9696 139.885 67.9696 139.9 67.9696C139.915 67.9696 139.93 67.9696 139.945 67.9696C139.959 67.9696 139.974 67.9696 139.989 67.9696C140.004 67.9696 140.018 67.9696 140.033 67.9696C140.048 67.9696 140.063 67.9696 140.077 67.9696C140.092 67.9696 140.107 67.9696 140.122 67.9696C140.137 67.9696 140.151 67.9696 140.166 67.9696C140.181 67.9696 140.196 67.9696 140.21 67.9696C140.225 67.9696 140.24 67.9696 140.255 67.9696C140.27 67.9696 140.284 67.9696 140.299 67.9696C140.314 67.9696 140.329 67.9696 140.344 67.9696C140.358 67.9696 140.373 67.9696 140.388 67.9696C140.403 67.9696 140.418 67.9696 140.432 67.9696C140.447 67.9696 140.462 67.9696 140.477 67.9696C140.492 67.9696 140.506 67.9696 140.521 67.9696C140.536 67.9696 140.551 67.9696 140.566 67.9696C140.58 67.9696 140.595 67.9696 140.61 67.9696C140.625 67.9696 140.64 67.9696 140.654 67.9696C140.669 67.9696 140.684 67.9696 140.699 67.9696C140.714 67.9696 140.728 67.9696 140.743 67.9696C140.758 67.9696 140.773 67.9696 140.788 67.9696C140.802 67.9696 140.817 67.9696 140.832 67.9696C140.847 67.9696 140.862 67.9696 140.876 67.9696C140.891 67.9696 140.906 67.9696 140.921 67.9696C140.936 67.9696 140.95 67.9696 140.965 67.9696C140.98 67.9696 140.995 67.9696 141.01 67.9696C141.024 67.9696 141.039 67.9696 141.054 67.9696C141.069 67.9696 141.084 67.9696 141.098 67.9696C141.113 67.9696 141.128 67.9696 141.143 67.9696C141.158 67.9696 141.172 67.9696 141.187 67.9696C141.202 67.9696 141.217 67.9696 141.231 67.9696C141.246 67.9696 141.261 67.9696 141.276 67.9696C141.291 67.9696 141.305 67.9696 141.32 67.9696C141.335 67.9696 141.35 67.9696 141.364 67.9696C141.379 67.9696 141.394 67.9696 141.409 67.9696C141.423 67.9696 141.438 67.9696 141.453 67.9696C141.468 67.9696 141.483 67.9696 141.497 67.9696C141.512 67.9696 141.527 67.9696 141.542 67.9696C141.556 67.9696 141.571 67.9696 141.586 67.9696C141.601 67.9696 141.615 67.9696 141.63 67.9696C141.645 67.9696 141.659 67.9696 141.674 67.9696C141.689 67.9696 141.704 67.9696 141.718 67.9696C141.733 67.9696 141.748 67.9696 141.763 67.9696C141.777 67.9696 141.792 67.9696 141.807 67.9696C141.821 67.9696 141.836 67.9696 141.851 67.9696C141.866 67.9696 141.88 67.9696 141.895 67.9696C141.91 67.9696 141.924 67.9696 141.939 67.9696C141.954 67.9696 141.968 67.9696 141.983 67.9696C141.998 67.9696 142.012 67.9696 142.027 67.9696C142.042 67.9696 142.056 67.9696 142.071 67.9696C142.086 67.9696 142.1 67.9696 142.115 67.9696C142.13 67.9696 142.144 67.9696 142.159 67.9696C142.174 67.9696 142.188 67.9696 142.203 67.9696C142.218 67.9696 142.232 67.9696 142.247 67.9696C142.261 67.9696 142.276 67.9696 142.291 67.9696C142.305 67.9696 142.32 67.9696 142.335 67.9696C142.349 67.9696 142.364 67.9696 142.378 67.9696C142.393 67.9696 142.408 67.9696 142.422 67.9696C142.437 67.9696 142.451 67.9696 142.466 67.9696C142.48 67.9696 142.495 67.9696 142.51 67.9696C142.524 67.9696 142.539 67.9696 142.553 67.9696C142.568 67.9696 142.582 67.9696 142.597 67.9696C142.611 67.9696 142.626 67.9696 142.64 67.9696C142.655 67.9696 142.669 67.9696 142.684 67.9696C142.698 67.9696 142.713 67.9696 142.727 67.9696C142.742 67.9696 142.756 67.9696 142.771 67.9696C142.785 67.9696 142.8 67.9696 142.814 67.9696C142.829 67.9696 142.843 67.9696 142.858 67.9696C142.872 67.9696 142.887 67.9696 142.901 67.9696C142.916 67.9696 142.93 67.9696 142.944 67.9696C142.959 67.9696 142.973 67.9696 142.988 67.9696C143.002 67.9696 143.017 67.9696 143.031 67.9696C143.045 67.9696 143.06 67.9696 143.074 67.9696C143.088 67.9696 143.103 67.9696 143.117 67.9696C143.132 67.9696 143.146 67.9696 143.16 67.9696C143.175 67.9696 143.189 67.9696 143.203 67.9696C143.218 67.9696 143.232 67.9696 143.246 67.9696C143.261 67.9696 143.275 67.9696 143.289 67.9696C143.304 67.9696 143.318 67.9696 143.332 67.9696C143.346 67.9696 143.361 67.9696 143.375 67.9696C143.389 67.9696 143.404 67.9696 143.418 67.9696C143.432 67.9696 143.446 67.9696 143.46 67.9696C143.475 67.9696 143.489 67.9696 143.503 67.9696C143.517 67.9696 143.532 67.9696 143.546 67.9696C143.56 67.9696 143.574 67.9696 143.588 67.9696C143.603 67.9696 143.617 67.9696 143.631 67.9696C143.645 67.9696 143.659 67.9696 143.673 67.9696C143.687 67.9696 143.702 67.9696 143.716 67.9696C143.73 67.9696 143.744 67.9696 143.758 67.9696C143.772 67.9696 143.786 67.9696 143.8 67.9696C143.814 67.9696 143.828 67.9696 143.843 67.9696C143.857 67.9696 143.871 67.9696 143.885 67.9696C143.899 67.9696 143.913 67.9696 143.927 67.9696C143.941 67.9696 143.955 67.9696 143.969 67.9696C143.983 67.9696 143.997 67.9696 144.011 67.9696C144.025 67.9696 144.039 67.9696 144.053 67.9696C144.067 67.9696 144.081 67.9696 144.094 67.9696C144.108 67.9696 144.122 67.9696 144.136 67.9696C144.15 67.9696 144.164 67.9696 144.178 67.9696C144.192 67.9696 144.206 67.9696 144.22 67.9696C144.233 67.9696 144.247 67.9696 144.261 67.9696C144.275 67.9696 144.289 67.9696 144.303 67.9696C144.316 67.9696 144.33 67.9696 144.344 67.9696C144.358 67.9696 144.372 67.9696 144.385 67.9696C144.399 67.9696 144.413 67.9696 144.427 67.9696C144.44 67.9696 144.454 67.9696 144.468 67.9696C144.482 67.9696 144.495 67.9696 144.509 67.9696C144.523 67.9696 144.536 67.9696 144.55 67.9696C144.564 67.9696 144.577 67.9696 144.591 67.9696C144.605 67.9696 144.618 67.9696 144.632 67.9696C144.646 67.9696 144.659 67.9696 144.673 67.9696C144.686 67.9696 144.7 67.9696 144.714 67.9696C144.727 67.9696 144.741 67.9696 144.754 67.9696C144.768 67.9696 144.781 67.9696 144.795 67.9696C144.808 67.9696 144.822 67.9696 144.835 67.9696C144.849 67.9696 144.862 67.9696 144.876 67.9696C144.889 67.9696 144.903 67.9696 144.916 67.9696C144.929 67.9696 144.943 67.9696 144.956 67.9696C144.97 67.9696 144.983 67.9696 144.996 67.9696C145.01 67.9696 145.023 67.9696 145.037 67.9696C145.05 67.9696 145.063 67.9696 145.077 67.9696C145.09 67.9696 145.103 67.9696 145.116 67.9696C145.13 67.9696 145.143 67.9696 145.156 67.9696C145.17 67.9696 145.183 67.9696 145.196 67.9696C145.209 67.9696 145.222 67.9696 145.236 67.9696C145.249 67.9696 145.262 67.9696 145.275 67.9696C145.288 67.9696 145.302 67.9696 145.315 67.9696C145.328 67.9696 145.341 67.9696 145.354 67.9696C145.367 67.9696 145.38 67.9696 145.393 67.9696C145.406 67.9696 145.42 67.9696 145.433 67.9696C145.446 67.9696 145.459 67.9696 145.472 67.9696C145.485 67.9696 145.498 67.9696 145.511 67.9696C145.524 67.9696 145.537 67.9696 145.55 67.9696C145.562 67.9696 145.575 67.9696 145.588 67.9696C145.601 67.9696 145.614 67.9696 145.627 67.9696C145.64 67.9696 145.653 67.9696 145.666 67.9696C145.679 67.9696 145.691 67.9696 145.704 67.9696C145.717 67.9696 145.73 67.9696 145.743 67.9696C145.755 67.9696 145.768 67.9696 145.781 67.9696C145.794 67.9696 145.806 67.9696 145.819 67.9696C145.832 67.9696 145.845 67.9696 145.857 67.9696C145.87 67.9696 145.883 67.9696 145.895 67.9696C145.908 67.9696 145.92 67.9696 145.933 67.9696C145.946 67.9696 145.958 67.9696 145.971 67.9696C145.983 67.9696 145.996 67.9696 146.009 67.9696C146.021 67.9696 146.034 67.9696 146.046 67.9696C146.059 67.9696 146.071 67.9696 146.084 67.9696C146.096 67.9696 146.108 67.9696 146.121 67.9696C146.133 67.9696 146.146 67.9696 146.158 67.9696C146.171 67.9696 146.183 67.9696 146.195 67.9696C146.208 67.9696 146.22 67.9696 146.232 67.9696C146.245 67.9696 146.257 67.9696 146.269 67.9696C146.282 67.9696 146.294 67.9696 146.306 67.9696C146.318 67.9696 146.331 67.9696 146.343 67.9696C146.355 67.9696 146.367 67.9696 146.379 67.9696C146.391 67.9696 146.404 67.9696 146.416 67.9696C146.428 67.9696 146.44 67.9696 146.452 67.9696C146.464 67.9696 146.476 67.9696 146.488 67.9696C146.5 67.9696 146.512 67.9696 146.524 67.9696C146.536 67.9696 146.548 67.9696 146.56 67.9696C146.572 67.9696 146.584 67.9696 146.596 67.9696C146.608 67.9696 146.62 67.9696 146.632 67.9696C146.644 67.9696 146.656 67.9696 146.668 67.9696C146.679 67.9696 146.691 67.9696 146.703 67.9696C146.715 67.9696 146.727 67.9696 146.738 67.9696C146.75 67.9696 146.762 67.9696 146.774 67.9696C146.785 67.9696 146.797 67.9696 146.809 67.9696C146.821 67.9696 146.832 67.9696 146.844 67.9696C146.855 67.9696 146.867 67.9696 146.879 67.9696C146.89 67.9696 146.902 67.9696 146.913 67.9696C146.925 67.9696 146.937 67.9696 146.948 67.9696C146.96 67.9696 146.971 67.9696 146.983 67.9696C146.994 67.9696 147.005 67.9696 147.017 67.9696C147.028 67.9696 147.04 67.9696 147.051 67.9696C147.062 67.9696 147.074 67.9696 147.085 67.9696C147.097 67.9696 147.108 67.9696 147.119 67.9696C147.13 67.9696 147.142 67.9696 147.153 67.9696C147.164 67.9696 147.175 67.9696 147.187 67.9696C147.198 67.9696 147.209 67.9696 147.22 67.9696C147.231 67.9696 147.243 67.9696 147.254 67.9696C147.265 67.9696 147.276 67.9696 147.287 67.9696C147.298 67.9696 147.309 67.9696 147.32 67.9696C147.331 67.9696 147.342 67.9696 147.353 67.9696C147.364 67.9696 147.375 67.9696 147.386 67.9696C147.397 67.9696 147.408 67.9696 147.419 67.9696C147.43 67.9696 147.44 67.9696 147.451 67.9696C147.462 67.9696 147.473 67.9696 147.484 67.9696C147.494 67.9696 147.505 67.9696 147.516 67.9696C147.527 67.9696 147.537 67.9696 147.548 67.9696C147.559 67.9696 147.569 67.9696 147.58 67.9696C147.591 67.9696 147.601 67.9696 147.612 67.9696C147.623 67.9696 147.633 67.9696 147.644 67.9696C147.654 67.9696 147.665 67.9696 147.675 67.9696C147.686 67.9696 147.696 67.9696 147.707 67.9696C147.717 67.9696 147.728 67.9696 147.738 67.9696C147.748 67.9696 147.759 67.9696 147.769 67.9696C147.779 67.9696 147.79 67.9696 147.8 67.9696C147.81 67.9696 147.821 67.9696 147.831 67.9696C147.841 67.9696 147.851 67.9696 147.862 67.9696C147.872 67.9696 147.882 67.9696 147.892 67.9696C147.902 67.9696 147.912 67.9696 147.922 67.9696C147.933 67.9696 147.943 67.9696 147.953 67.9696C147.963 67.9696 147.973 67.9696 147.983 67.9696C147.993 67.9696 148.003 67.9696 148.013 67.9696C148.023 67.9696 148.032 67.9696 148.042 67.9696C148.052 67.9696 148.062 67.9696 148.072 67.9696C148.082 67.9696 148.092 67.9696 148.101 67.9696C148.111 67.9696 148.121 67.9696 148.131 67.9696C148.14 67.9696 148.15 67.9696 148.16 67.9696C148.169 67.9696 148.179 67.9696 148.189 67.9696C148.198 67.9696 148.208 67.9696 148.217 67.9696C148.227 67.9696 148.236 67.9696 148.246 67.9696C148.256 67.9696 148.265 67.9696 148.274 67.9696C148.284 67.9696 148.293 67.9696 148.303 67.9696C148.312 67.9696 148.322 67.9696 148.331 67.9696C148.34 67.9696 148.35 67.9696 148.359 67.9696C148.368 67.9696 148.377 67.9696 148.387 67.9696C148.396 67.9696 148.405 67.9696 148.414 67.9696C148.423 67.9696 148.433 67.9696 148.442 67.9696C148.451 67.9696 148.46 67.9696 148.469 67.9696C148.478 67.9696 148.487 67.9696 148.496 67.9696C148.505 67.9696 148.514 67.9696 148.523 67.9696C148.532 67.9696 148.541 67.9696 148.55 67.9696C148.559 67.9696 148.567 67.9696 148.576 67.9696C148.585 67.9696 148.594 67.9696 148.603 67.9696C148.611 67.9696 148.62 67.9696 148.629 67.9696C148.638 67.9696 148.646 67.9696 148.655 67.9696C148.664 67.9696 148.672 67.9696 148.681 67.9696C148.689 67.9696 148.698 67.9696 148.707 67.9696C148.715 67.9696 148.724 67.9696 148.732 67.9696C148.741 67.9696 148.749 67.9696 148.757 67.9696C148.766 67.9696 148.774 67.9696 148.783 67.9696C148.791 67.9696 148.799 67.9696 148.808 67.9696C148.816 67.9696 148.824 67.9696 148.832 67.9696C148.841 67.9696 148.849 67.9696 148.857 67.9696C148.865 67.9696 148.873 67.9696 148.881 67.9696C148.89 67.9696 148.898 67.9696 148.906 67.9696C148.914 67.9696 148.922 67.9696 148.93 67.9696C148.938 67.9696 148.946 67.9696 148.954 67.9696C148.962 67.9696 148.969 67.9696 148.977 67.9696C148.985 67.9696 148.993 67.9696 149.001 67.9696C149.009 67.9696 149.016 67.9696 149.024 67.9696C149.032 67.9696 149.04 67.9696 149.047 67.9696C149.055 67.9696 149.063 67.9696 149.07 67.9696C149.078 67.9696 149.085 67.9696 149.093 67.9696C149.1 67.9696 149.108 67.9696 149.115 67.9696C149.123 67.9696 149.13 67.9696 149.138 67.9696C149.145 67.9696 149.153 67.9696 149.16 67.9696C149.167 67.9696 149.175 67.9696 149.182 67.9696C149.189 67.9696 149.197 67.9696 149.204 67.9696C149.211 67.9696 149.218 67.9696 149.225 67.9696C149.232 67.9696 149.24 67.9696 149.247 67.9696C149.254 67.9696 149.261 67.9696 149.268 67.9696C149.275 67.9696 149.282 67.9696 149.289 67.9696C149.296 67.9696 149.303 67.9696 149.31 67.9696C149.317 67.9696 149.323 67.9696 149.33 67.9696C149.337 67.9696 149.344 67.9696 149.351 67.9696C149.357 67.9696 149.364 67.9696 149.371 67.9696C149.377 67.9696 149.384 67.9696 149.391 67.9696C149.397 67.9696 149.404 67.9696 149.411 67.9696C149.417 67.9696 149.424 67.9696 149.43 67.9696C149.437 67.9696 149.443 67.9696 149.449 67.9696C149.456 67.9696 149.462 67.9696 149.469 67.9696C149.475 67.9696 149.481 67.9696 149.488 67.9696C149.494 67.9696 149.5 67.9696 149.506 67.9696C149.512 67.9696 149.519 67.9696 149.525 67.9696C149.531 67.9696 149.537 67.9696 149.543 67.9696C149.549 67.9696 149.555 67.9696 149.561 67.9696C149.567 67.9696 149.573 67.9696 149.579 67.9696C149.585 67.9696 149.591 67.9696 149.597 67.9696C149.603 67.9696 149.608 67.9696 149.614 67.9696C149.62 67.9696 149.626 67.9696 149.632 67.9696C149.637 67.9696 149.643 67.9696 149.649 67.9696C149.654 67.9696 149.66 67.9696 149.665 67.9696C149.671 67.9696 149.676 67.9696 149.682 67.9696C149.687 67.9696 149.693 67.9696 149.698 67.9696C149.704 67.9696 149.709 67.9696 149.715 67.9696C149.72 67.9696 149.725 67.9696 149.73 67.9696C149.736 67.9696 149.741 67.9696 149.746 67.9696C149.751 67.9696 149.757 67.9696 149.762 67.9696C149.767 67.9696 149.772 67.9696 149.777 67.9696C149.782 67.9696 149.787 67.9696 149.792 67.9696C149.797 67.9696 149.802 67.9696 149.807 67.9696C149.812 67.9696 149.817 67.9696 149.822 67.9696C149.826 67.9696 149.831 67.9696 149.836 67.9696C149.841 67.9696 149.845 67.9696 149.85 67.9696C149.855 67.9696 149.859 67.9696 149.864 67.9696C149.869 67.9696 149.873 67.9696 149.878 67.9696C149.882 67.9696 149.887 67.9696 149.891 67.9696C149.896 67.9696 149.9 67.9696 149.904 67.9696C149.909 67.9696 149.913 67.9696 149.917 67.9696C149.922 67.9696 149.926 67.9696 149.93 67.9696C149.934 67.9696 149.939 67.9696 149.943 67.9696C149.947 67.9696 149.951 67.9696 149.955 67.9696C149.959 67.9696 149.963 67.9696 149.967 67.9696C149.971 67.9696 149.975 67.9696 149.979 67.9696C149.983 67.9696 149.987 67.9696 149.991 67.9696C149.994 67.9696 149.998 67.9696 150.002 67.9696C150.006 67.9696 150.01 67.9696 150.013 67.9696C150.017 67.9696 150.021 67.9696 150.024 67.9696C150.028 67.9696 150.031 67.9696 150.035 67.9696C150.038 67.9696 150.042 67.9696 150.045 67.9696C150.049 67.9696 150.052 67.9696 150.055 67.9696C150.059 67.9696 150.062 67.9696 150.065 67.9696C150.069 67.9696 150.072 67.9696 150.075 67.9696C150.078 67.9696 150.081 67.9696 150.084 67.9696C150.088 67.9696 150.091 67.9696 150.094 67.9696C150.097 67.9696 150.1 67.9696 150.103 67.9696C150.106 67.9696 150.109 67.9696 150.111 67.9696C150.114 67.9696 150.117 67.9696 150.12 67.9696C150.123 67.9696 150.125 67.9696 150.128 67.9696C150.131 67.9696 150.133 67.9696 150.136 67.9696C150.139 67.9696 150.141 67.9696 150.144 67.9696C150.146 67.9696 150.149 67.9696 150.151 67.9696C150.154 67.9696 150.156 67.9696 150.159 67.9696C150.161 67.9696 150.163 67.9696 150.166 67.9696C150.168 67.9696 150.17 67.9696 150.172 67.9696C150.174 67.9696 150.177 67.9696 150.179 67.9696C150.181 67.9696 150.183 67.9696 150.185 67.9696C150.187 67.9696 150.189 67.9696 150.191 67.9696C150.193 67.9696 150.195 67.9696 150.197 67.9696C150.198 67.9696 150.2 67.9696 150.202 67.9696C150.204 67.9696 150.206 67.9696 150.207 67.9696C150.209 67.9696 150.211 67.9696 150.212 67.9696C150.214 67.9696 150.215 67.9696 150.217 67.9696C150.218 67.9696 150.22 67.9696 150.221 67.9696C150.223 67.9696 150.224 67.9696 150.225 67.9696C150.227 67.9696 150.228 67.9696 150.229 67.9696C150.231 67.9696 150.232 67.9696 150.233 67.9696C150.234 67.9696 150.235 67.9696 150.236 67.9696C150.237 67.9696 150.238 67.9696 150.239 67.9696C150.24 67.9696 150.241 67.9696 150.242 67.9696C150.243 67.9696 150.244 67.9696 150.245 67.9696C150.246 67.9696 150.246 67.9696 150.247 67.9696C150.248 67.9696 150.249 67.9696 150.249 67.9696C150.25 67.9696 150.25 67.9696 150.251 67.9696C150.251 67.9696 150.252 67.9696 150.252 67.9696C150.253 67.9696 150.253 67.9696 150.254 67.9696C150.254 67.9696 150.254 67.9696 150.255 67.9696C150.255 67.9696 150.255 67.9696 150.255 67.9696C150.255 67.9696 150.256 67.9696 150.256 67.9696C150.256 67.9696 150.256 67.9696 150.256 66.7196C150.256 65.4696 150.256 65.4696 150.256 65.4696C150.256 65.4696 150.255 65.4696 150.255 65.4696C150.255 65.4696 150.255 65.4696 150.255 65.4696C150.254 65.4696 150.254 65.4696 150.254 65.4696C150.253 65.4696 150.253 65.4696 150.252 65.4696C150.252 65.4696 150.251 65.4696 150.251 65.4696C150.25 65.4696 150.25 65.4696 150.249 65.4696C150.249 65.4696 150.248 65.4696 150.247 65.4696C150.246 65.4696 150.246 65.4696 150.245 65.4696C150.244 65.4696 150.243 65.4696 150.242 65.4696C150.241 65.4696 150.24 65.4696 150.239 65.4696C150.238 65.4696 150.237 65.4696 150.236 65.4696C150.235 65.4696 150.234 65.4696 150.233 65.4696C150.232 65.4696 150.231 65.4696 150.229 65.4696C150.228 65.4696 150.227 65.4696 150.225 65.4696C150.224 65.4696 150.223 65.4696 150.221 65.4696C150.22 65.4696 150.218 65.4696 150.217 65.4696C150.215 65.4696 150.214 65.4696 150.212 65.4696C150.211 65.4696 150.209 65.4696 150.207 65.4696C150.206 65.4696 150.204 65.4696 150.202 65.4696C150.2 65.4696 150.198 65.4696 150.197 65.4696C150.195 65.4696 150.193 65.4696 150.191 65.4696C150.189 65.4696 150.187 65.4696 150.185 65.4696C150.183 65.4696 150.181 65.4696 150.179 65.4696C150.177 65.4696 150.174 65.4696 150.172 65.4696C150.17 65.4696 150.168 65.4696 150.166 65.4696C150.163 65.4696 150.161 65.4696 150.159 65.4696C150.156 65.4696 150.154 65.4696 150.151 65.4696C150.149 65.4696 150.146 65.4696 150.144 65.4696C150.141 65.4696 150.139 65.4696 150.136 65.4696C150.133 65.4696 150.131 65.4696 150.128 65.4696C150.125 65.4696 150.123 65.4696 150.12 65.4696C150.117 65.4696 150.114 65.4696 150.111 65.4696C150.109 65.4696 150.106 65.4696 150.103 65.4696C150.1 65.4696 150.097 65.4696 150.094 65.4696C150.091 65.4696 150.088 65.4696 150.084 65.4696C150.081 65.4696 150.078 65.4696 150.075 65.4696C150.072 65.4696 150.069 65.4696 150.065 65.4696C150.062 65.4696 150.059 65.4696 150.055 65.4696C150.052 65.4696 150.049 65.4696 150.045 65.4696C150.042 65.4696 150.038 65.4696 150.035 65.4696C150.031 65.4696 150.028 65.4696 150.024 65.4696C150.021 65.4696 150.017 65.4696 150.013 65.4696C150.01 65.4696 150.006 65.4696 150.002 65.4696C149.998 65.4696 149.994 65.4696 149.991 65.4696C149.987 65.4696 149.983 65.4696 149.979 65.4696C149.975 65.4696 149.971 65.4696 149.967 65.4696C149.963 65.4696 149.959 65.4696 149.955 65.4696C149.951 65.4696 149.947 65.4696 149.943 65.4696C149.939 65.4696 149.934 65.4696 149.93 65.4696C149.926 65.4696 149.922 65.4696 149.917 65.4696C149.913 65.4696 149.909 65.4696 149.904 65.4696C149.9 65.4696 149.896 65.4696 149.891 65.4696C149.887 65.4696 149.882 65.4696 149.878 65.4696C149.873 65.4696 149.869 65.4696 149.864 65.4696C149.859 65.4696 149.855 65.4696 149.85 65.4696C149.845 65.4696 149.841 65.4696 149.836 65.4696C149.831 65.4696 149.826 65.4696 149.822 65.4696C149.817 65.4696 149.812 65.4696 149.807 65.4696C149.802 65.4696 149.797 65.4696 149.792 65.4696C149.787 65.4696 149.782 65.4696 149.777 65.4696C149.772 65.4696 149.767 65.4696 149.762 65.4696C149.757 65.4696 149.751 65.4696 149.746 65.4696C149.741 65.4696 149.736 65.4696 149.73 65.4696C149.725 65.4696 149.72 65.4696 149.715 65.4696C149.709 65.4696 149.704 65.4696 149.698 65.4696C149.693 65.4696 149.687 65.4696 149.682 65.4696C149.676 65.4696 149.671 65.4696 149.665 65.4696C149.66 65.4696 149.654 65.4696 149.649 65.4696C149.643 65.4696 149.637 65.4696 149.632 65.4696C149.626 65.4696 149.62 65.4696 149.614 65.4696C149.608 65.4696 149.603 65.4696 149.597 65.4696C149.591 65.4696 149.585 65.4696 149.579 65.4696C149.573 65.4696 149.567 65.4696 149.561 65.4696C149.555 65.4696 149.549 65.4696 149.543 65.4696C149.537 65.4696 149.531 65.4696 149.525 65.4696C149.519 65.4696 149.512 65.4696 149.506 65.4696C149.5 65.4696 149.494 65.4696 149.488 65.4696C149.481 65.4696 149.475 65.4696 149.469 65.4696C149.462 65.4696 149.456 65.4696 149.449 65.4696C149.443 65.4696 149.437 65.4696 149.43 65.4696C149.424 65.4696 149.417 65.4696 149.411 65.4696C149.404 65.4696 149.397 65.4696 149.391 65.4696C149.384 65.4696 149.377 65.4696 149.371 65.4696C149.364 65.4696 149.357 65.4696 149.351 65.4696C149.344 65.4696 149.337 65.4696 149.33 65.4696C149.323 65.4696 149.317 65.4696 149.31 65.4696C149.303 65.4696 149.296 65.4696 149.289 65.4696C149.282 65.4696 149.275 65.4696 149.268 65.4696C149.261 65.4696 149.254 65.4696 149.247 65.4696C149.24 65.4696 149.232 65.4696 149.225 65.4696C149.218 65.4696 149.211 65.4696 149.204 65.4696C149.197 65.4696 149.189 65.4696 149.182 65.4696C149.175 65.4696 149.167 65.4696 149.16 65.4696C149.153 65.4696 149.145 65.4696 149.138 65.4696C149.13 65.4696 149.123 65.4696 149.115 65.4696C149.108 65.4696 149.1 65.4696 149.093 65.4696C149.085 65.4696 149.078 65.4696 149.07 65.4696C149.063 65.4696 149.055 65.4696 149.047 65.4696C149.04 65.4696 149.032 65.4696 149.024 65.4696C149.016 65.4696 149.009 65.4696 149.001 65.4696C148.993 65.4696 148.985 65.4696 148.977 65.4696C148.969 65.4696 148.962 65.4696 148.954 65.4696C148.946 65.4696 148.938 65.4696 148.93 65.4696C148.922 65.4696 148.914 65.4696 148.906 65.4696C148.898 65.4696 148.89 65.4696 148.881 65.4696C148.873 65.4696 148.865 65.4696 148.857 65.4696C148.849 65.4696 148.841 65.4696 148.832 65.4696C148.824 65.4696 148.816 65.4696 148.808 65.4696C148.799 65.4696 148.791 65.4696 148.783 65.4696C148.774 65.4696 148.766 65.4696 148.757 65.4696C148.749 65.4696 148.741 65.4696 148.732 65.4696C148.724 65.4696 148.715 65.4696 148.707 65.4696C148.698 65.4696 148.689 65.4696 148.681 65.4696C148.672 65.4696 148.664 65.4696 148.655 65.4696C148.646 65.4696 148.638 65.4696 148.629 65.4696C148.62 65.4696 148.611 65.4696 148.603 65.4696C148.594 65.4696 148.585 65.4696 148.576 65.4696C148.567 65.4696 148.559 65.4696 148.55 65.4696C148.541 65.4696 148.532 65.4696 148.523 65.4696C148.514 65.4696 148.505 65.4696 148.496 65.4696C148.487 65.4696 148.478 65.4696 148.469 65.4696C148.46 65.4696 148.451 65.4696 148.442 65.4696C148.433 65.4696 148.423 65.4696 148.414 65.4696C148.405 65.4696 148.396 65.4696 148.387 65.4696C148.377 65.4696 148.368 65.4696 148.359 65.4696C148.35 65.4696 148.34 65.4696 148.331 65.4696C148.322 65.4696 148.312 65.4696 148.303 65.4696C148.293 65.4696 148.284 65.4696 148.274 65.4696C148.265 65.4696 148.256 65.4696 148.246 65.4696C148.236 65.4696 148.227 65.4696 148.217 65.4696C148.208 65.4696 148.198 65.4696 148.189 65.4696C148.179 65.4696 148.169 65.4696 148.16 65.4696C148.15 65.4696 148.14 65.4696 148.131 65.4696C148.121 65.4696 148.111 65.4696 148.101 65.4696C148.092 65.4696 148.082 65.4696 148.072 65.4696C148.062 65.4696 148.052 65.4696 148.042 65.4696C148.032 65.4696 148.023 65.4696 148.013 65.4696C148.003 65.4696 147.993 65.4696 147.983 65.4696C147.973 65.4696 147.963 65.4696 147.953 65.4696C147.943 65.4696 147.933 65.4696 147.922 65.4696C147.912 65.4696 147.902 65.4696 147.892 65.4696C147.882 65.4696 147.872 65.4696 147.862 65.4696C147.851 65.4696 147.841 65.4696 147.831 65.4696C147.821 65.4696 147.81 65.4696 147.8 65.4696C147.79 65.4696 147.779 65.4696 147.769 65.4696C147.759 65.4696 147.748 65.4696 147.738 65.4696C147.728 65.4696 147.717 65.4696 147.707 65.4696C147.696 65.4696 147.686 65.4696 147.675 65.4696C147.665 65.4696 147.654 65.4696 147.644 65.4696C147.633 65.4696 147.623 65.4696 147.612 65.4696C147.601 65.4696 147.591 65.4696 147.58 65.4696C147.569 65.4696 147.559 65.4696 147.548 65.4696C147.537 65.4696 147.527 65.4696 147.516 65.4696C147.505 65.4696 147.494 65.4696 147.484 65.4696C147.473 65.4696 147.462 65.4696 147.451 65.4696C147.44 65.4696 147.43 65.4696 147.419 65.4696C147.408 65.4696 147.397 65.4696 147.386 65.4696C147.375 65.4696 147.364 65.4696 147.353 65.4696C147.342 65.4696 147.331 65.4696 147.32 65.4696C147.309 65.4696 147.298 65.4696 147.287 65.4696C147.276 65.4696 147.265 65.4696 147.254 65.4696C147.243 65.4696 147.231 65.4696 147.22 65.4696C147.209 65.4696 147.198 65.4696 147.187 65.4696C147.175 65.4696 147.164 65.4696 147.153 65.4696C147.142 65.4696 147.13 65.4696 147.119 65.4696C147.108 65.4696 147.097 65.4696 147.085 65.4696C147.074 65.4696 147.062 65.4696 147.051 65.4696C147.04 65.4696 147.028 65.4696 147.017 65.4696C147.005 65.4696 146.994 65.4696 146.983 65.4696C146.971 65.4696 146.96 65.4696 146.948 65.4696C146.937 65.4696 146.925 65.4696 146.913 65.4696C146.902 65.4696 146.89 65.4696 146.879 65.4696C146.867 65.4696 146.855 65.4696 146.844 65.4696C146.832 65.4696 146.821 65.4696 146.809 65.4696C146.797 65.4696 146.785 65.4696 146.774 65.4696C146.762 65.4696 146.75 65.4696 146.738 65.4696C146.727 65.4696 146.715 65.4696 146.703 65.4696C146.691 65.4696 146.679 65.4696 146.668 65.4696C146.656 65.4696 146.644 65.4696 146.632 65.4696C146.62 65.4696 146.608 65.4696 146.596 65.4696C146.584 65.4696 146.572 65.4696 146.56 65.4696C146.548 65.4696 146.536 65.4696 146.524 65.4696C146.512 65.4696 146.5 65.4696 146.488 65.4696C146.476 65.4696 146.464 65.4696 146.452 65.4696C146.44 65.4696 146.428 65.4696 146.416 65.4696C146.404 65.4696 146.391 65.4696 146.379 65.4696C146.367 65.4696 146.355 65.4696 146.343 65.4696C146.331 65.4696 146.318 65.4696 146.306 65.4696C146.294 65.4696 146.282 65.4696 146.269 65.4696C146.257 65.4696 146.245 65.4696 146.232 65.4696C146.22 65.4696 146.208 65.4696 146.195 65.4696C146.183 65.4696 146.171 65.4696 146.158 65.4696C146.146 65.4696 146.133 65.4696 146.121 65.4696C146.108 65.4696 146.096 65.4696 146.084 65.4696C146.071 65.4696 146.059 65.4696 146.046 65.4696C146.034 65.4696 146.021 65.4696 146.009 65.4696C145.996 65.4696 145.983 65.4696 145.971 65.4696C145.958 65.4696 145.946 65.4696 145.933 65.4696C145.92 65.4696 145.908 65.4696 145.895 65.4696C145.883 65.4696 145.87 65.4696 145.857 65.4696C145.845 65.4696 145.832 65.4696 145.819 65.4696C145.806 65.4696 145.794 65.4696 145.781 65.4696C145.768 65.4696 145.755 65.4696 145.743 65.4696C145.73 65.4696 145.717 65.4696 145.704 65.4696C145.691 65.4696 145.679 65.4696 145.666 65.4696C145.653 65.4696 145.64 65.4696 145.627 65.4696C145.614 65.4696 145.601 65.4696 145.588 65.4696C145.575 65.4696 145.562 65.4696 145.55 65.4696C145.537 65.4696 145.524 65.4696 145.511 65.4696C145.498 65.4696 145.485 65.4696 145.472 65.4696C145.459 65.4696 145.446 65.4696 145.433 65.4696C145.42 65.4696 145.406 65.4696 145.393 65.4696C145.38 65.4696 145.367 65.4696 145.354 65.4696C145.341 65.4696 145.328 65.4696 145.315 65.4696C145.302 65.4696 145.288 65.4696 145.275 65.4696C145.262 65.4696 145.249 65.4696 145.236 65.4696C145.222 65.4696 145.209 65.4696 145.196 65.4696C145.183 65.4696 145.17 65.4696 145.156 65.4696C145.143 65.4696 145.13 65.4696 145.116 65.4696C145.103 65.4696 145.09 65.4696 145.077 65.4696C145.063 65.4696 145.05 65.4696 145.037 65.4696C145.023 65.4696 145.01 65.4696 144.996 65.4696C144.983 65.4696 144.97 65.4696 144.956 65.4696C144.943 65.4696 144.929 65.4696 144.916 65.4696C144.903 65.4696 144.889 65.4696 144.876 65.4696C144.862 65.4696 144.849 65.4696 144.835 65.4696C144.822 65.4696 144.808 65.4696 144.795 65.4696C144.781 65.4696 144.768 65.4696 144.754 65.4696C144.741 65.4696 144.727 65.4696 144.714 65.4696C144.7 65.4696 144.686 65.4696 144.673 65.4696C144.659 65.4696 144.646 65.4696 144.632 65.4696C144.618 65.4696 144.605 65.4696 144.591 65.4696C144.577 65.4696 144.564 65.4696 144.55 65.4696C144.536 65.4696 144.523 65.4696 144.509 65.4696C144.495 65.4696 144.482 65.4696 144.468 65.4696C144.454 65.4696 144.44 65.4696 144.427 65.4696C144.413 65.4696 144.399 65.4696 144.385 65.4696C144.372 65.4696 144.358 65.4696 144.344 65.4696C144.33 65.4696 144.316 65.4696 144.303 65.4696C144.289 65.4696 144.275 65.4696 144.261 65.4696C144.247 65.4696 144.233 65.4696 144.22 65.4696C144.206 65.4696 144.192 65.4696 144.178 65.4696C144.164 65.4696 144.15 65.4696 144.136 65.4696C144.122 65.4696 144.108 65.4696 144.094 65.4696C144.081 65.4696 144.067 65.4696 144.053 65.4696C144.039 65.4696 144.025 65.4696 144.011 65.4696C143.997 65.4696 143.983 65.4696 143.969 65.4696C143.955 65.4696 143.941 65.4696 143.927 65.4696C143.913 65.4696 143.899 65.4696 143.885 65.4696C143.871 65.4696 143.857 65.4696 143.843 65.4696C143.828 65.4696 143.814 65.4696 143.8 65.4696C143.786 65.4696 143.772 65.4696 143.758 65.4696C143.744 65.4696 143.73 65.4696 143.716 65.4696C143.702 65.4696 143.687 65.4696 143.673 65.4696C143.659 65.4696 143.645 65.4696 143.631 65.4696C143.617 65.4696 143.603 65.4696 143.588 65.4696C143.574 65.4696 143.56 65.4696 143.546 65.4696C143.532 65.4696 143.517 65.4696 143.503 65.4696C143.489 65.4696 143.475 65.4696 143.46 65.4696C143.446 65.4696 143.432 65.4696 143.418 65.4696C143.404 65.4696 143.389 65.4696 143.375 65.4696C143.361 65.4696 143.346 65.4696 143.332 65.4696C143.318 65.4696 143.304 65.4696 143.289 65.4696C143.275 65.4696 143.261 65.4696 143.246 65.4696C143.232 65.4696 143.218 65.4696 143.203 65.4696C143.189 65.4696 143.175 65.4696 143.16 65.4696C143.146 65.4696 143.132 65.4696 143.117 65.4696C143.103 65.4696 143.088 65.4696 143.074 65.4696C143.06 65.4696 143.045 65.4696 143.031 65.4696C143.017 65.4696 143.002 65.4696 142.988 65.4696C142.973 65.4696 142.959 65.4696 142.944 65.4696C142.93 65.4696 142.916 65.4696 142.901 65.4696C142.887 65.4696 142.872 65.4696 142.858 65.4696C142.843 65.4696 142.829 65.4696 142.814 65.4696C142.8 65.4696 142.785 65.4696 142.771 65.4696C142.756 65.4696 142.742 65.4696 142.727 65.4696C142.713 65.4696 142.698 65.4696 142.684 65.4696C142.669 65.4696 142.655 65.4696 142.64 65.4696C142.626 65.4696 142.611 65.4696 142.597 65.4696C142.582 65.4696 142.568 65.4696 142.553 65.4696C142.539 65.4696 142.524 65.4696 142.51 65.4696C142.495 65.4696 142.48 65.4696 142.466 65.4696C142.451 65.4696 142.437 65.4696 142.422 65.4696C142.408 65.4696 142.393 65.4696 142.378 65.4696C142.364 65.4696 142.349 65.4696 142.335 65.4696C142.32 65.4696 142.305 65.4696 142.291 65.4696C142.276 65.4696 142.261 65.4696 142.247 65.4696C142.232 65.4696 142.218 65.4696 142.203 65.4696C142.188 65.4696 142.174 65.4696 142.159 65.4696C142.144 65.4696 142.13 65.4696 142.115 65.4696C142.1 65.4696 142.086 65.4696 142.071 65.4696C142.056 65.4696 142.042 65.4696 142.027 65.4696C142.012 65.4696 141.998 65.4696 141.983 65.4696C141.968 65.4696 141.954 65.4696 141.939 65.4696C141.924 65.4696 141.91 65.4696 141.895 65.4696C141.88 65.4696 141.866 65.4696 141.851 65.4696C141.836 65.4696 141.821 65.4696 141.807 65.4696C141.792 65.4696 141.777 65.4696 141.763 65.4696C141.748 65.4696 141.733 65.4696 141.718 65.4696C141.704 65.4696 141.689 65.4696 141.674 65.4696C141.659 65.4696 141.645 65.4696 141.63 65.4696C141.615 65.4696 141.601 65.4696 141.586 65.4696C141.571 65.4696 141.556 65.4696 141.542 65.4696C141.527 65.4696 141.512 65.4696 141.497 65.4696C141.483 65.4696 141.468 65.4696 141.453 65.4696C141.438 65.4696 141.423 65.4696 141.409 65.4696C141.394 65.4696 141.379 65.4696 141.364 65.4696C141.35 65.4696 141.335 65.4696 141.32 65.4696C141.305 65.4696 141.291 65.4696 141.276 65.4696C141.261 65.4696 141.246 65.4696 141.231 65.4696C141.217 65.4696 141.202 65.4696 141.187 65.4696C141.172 65.4696 141.158 65.4696 141.143 65.4696C141.128 65.4696 141.113 65.4696 141.098 65.4696C141.084 65.4696 141.069 65.4696 141.054 65.4696C141.039 65.4696 141.024 65.4696 141.01 65.4696C140.995 65.4696 140.98 65.4696 140.965 65.4696C140.95 65.4696 140.936 65.4696 140.921 65.4696C140.906 65.4696 140.891 65.4696 140.876 65.4696C140.862 65.4696 140.847 65.4696 140.832 65.4696C140.817 65.4696 140.802 65.4696 140.788 65.4696C140.773 65.4696 140.758 65.4696 140.743 65.4696C140.728 65.4696 140.714 65.4696 140.699 65.4696C140.684 65.4696 140.669 65.4696 140.654 65.4696C140.64 65.4696 140.625 65.4696 140.61 65.4696C140.595 65.4696 140.58 65.4696 140.566 65.4696C140.551 65.4696 140.536 65.4696 140.521 65.4696C140.506 65.4696 140.492 65.4696 140.477 65.4696C140.462 65.4696 140.447 65.4696 140.432 65.4696C140.418 65.4696 140.403 65.4696 140.388 65.4696C140.373 65.4696 140.358 65.4696 140.344 65.4696C140.329 65.4696 140.314 65.4696 140.299 65.4696C140.284 65.4696 140.27 65.4696 140.255 65.4696C140.24 65.4696 140.225 65.4696 140.21 65.4696C140.196 65.4696 140.181 65.4696 140.166 65.4696C140.151 65.4696 140.137 65.4696 140.122 65.4696C140.107 65.4696 140.092 65.4696 140.077 65.4696C140.063 65.4696 140.048 65.4696 140.033 65.4696C140.018 65.4696 140.004 65.4696 139.989 65.4696C139.974 65.4696 139.959 65.4696 139.945 65.4696C139.93 65.4696 139.915 65.4696 139.9 65.4696C139.885 65.4696 139.871 65.4696 139.856 65.4696C139.841 65.4696 139.826 65.4696 139.812 65.4696C139.797 65.4696 139.782 65.4696 139.767 65.4696C139.753 65.4696 139.738 65.4696 139.723 65.4696C139.709 65.4696 139.694 65.4696 139.679 65.4696C139.664 65.4696 139.65 65.4696 139.635 65.4696C139.62 65.4696 139.605 65.4696 139.591 65.4696C139.576 65.4696 139.561 65.4696 139.547 65.4696C139.532 65.4696 139.517 65.4696 139.502 65.4696C139.488 65.4696 139.473 65.4696 139.458 65.4696C139.444 65.4696 139.429 65.4696 139.414 65.4696C139.4 65.4696 139.385 65.4696 139.37 65.4696C139.356 65.4696 139.341 65.4696 139.326 65.4696C139.312 65.4696 139.297 65.4696 139.282 65.4696C139.268 65.4696 139.253 65.4696 139.238 65.4696C139.224 65.4696 139.209 65.4696 139.194 65.4696C139.18 65.4696 139.165 65.4696 139.15 65.4696C139.136 65.4696 139.121 65.4696 139.107 65.4696C139.092 65.4696 139.077 65.4696 139.063 65.4696C139.048 65.4696 139.033 65.4696 139.019 65.4696C139.004 65.4696 138.99 65.4696 138.975 65.4696C138.96 65.4696 138.946 65.4696 138.931 65.4696C138.917 65.4696 138.902 65.4696 138.888 65.4696C138.873 65.4696 138.858 65.4696 138.844 65.4696C138.829 65.4696 138.815 65.4696 138.8 65.4696C138.786 65.4696 138.771 65.4696 138.757 65.4696C138.742 65.4696 138.728 65.4696 138.713 65.4696C138.699 65.4696 138.684 65.4696 138.67 65.4696C138.655 65.4696 138.64 65.4696 138.626 65.4696C138.612 65.4696 138.597 65.4696 138.583 65.4696C138.568 65.4696 138.554 65.4696 138.539 65.4696C138.525 65.4696 138.51 65.4696 138.496 65.4696C138.481 65.4696 138.467 65.4696 138.452 65.4696C138.438 65.4696 138.424 65.4696 138.409 65.4696C138.395 65.4696 138.38 65.4696 138.366 65.4696C138.351 65.4696 138.337 65.4696 138.323 65.4696C138.308 65.4696 138.294 65.4696 138.279 65.4696C138.265 65.4696 138.251 65.4696 138.236 65.4696C138.222 65.4696 138.208 65.4696 138.193 65.4696C138.179 65.4696 138.165 65.4696 138.15 65.4696C138.136 65.4696 138.122 65.4696 138.107 65.4696C138.093 65.4696 138.079 65.4696 138.064 65.4696C138.05 65.4696 138.036 65.4696 138.021 65.4696C138.007 65.4696 137.993 65.4696 137.979 65.4696C137.964 65.4696 137.95 65.4696 137.936 65.4696C137.922 65.4696 137.907 65.4696 137.893 65.4696C137.879 65.4696 137.865 65.4696 137.851 65.4696C137.836 65.4696 137.822 65.4696 137.808 65.4696C137.794 65.4696 137.78 65.4696 137.765 65.4696C137.751 65.4696 137.737 65.4696 137.723 65.4696C137.709 65.4696 137.695 65.4696 137.68 65.4696C137.666 65.4696 137.652 65.4696 137.638 65.4696C137.624 65.4696 137.61 65.4696 137.596 65.4696C137.582 65.4696 137.568 65.4696 137.553 65.4696C137.539 65.4696 137.525 65.4696 137.511 65.4696C137.497 65.4696 137.483 65.4696 137.469 65.4696C137.455 65.4696 137.441 65.4696 137.427 65.4696C137.413 65.4696 137.399 65.4696 137.385 65.4696C137.371 65.4696 137.357 65.4696 137.343 65.4696C137.329 65.4696 137.315 65.4696 137.301 65.4696C137.287 65.4696 137.273 65.4696 137.259 65.4696C137.245 65.4696 137.232 65.4696 137.218 65.4696C137.204 65.4696 137.19 65.4696 137.176 65.4696C137.162 65.4696 137.148 65.4696 137.134 65.4696C137.121 65.4696 137.107 65.4696 137.093 65.4696C137.079 65.4696 137.065 65.4696 137.051 65.4696C137.038 65.4696 137.024 65.4696 137.01 65.4696C136.996 65.4696 136.982 65.4696 136.969 65.4696C136.955 65.4696 136.941 65.4696 136.927 65.4696C136.914 65.4696 136.9 65.4696 136.886 65.4696C136.872 65.4696 136.859 65.4696 136.845 65.4696C136.831 65.4696 136.818 65.4696 136.804 65.4696C136.79 65.4696 136.777 65.4696 136.763 65.4696C136.749 65.4696 136.736 65.4696 136.722 65.4696C136.709 65.4696 136.695 65.4696 136.681 65.4696C136.668 65.4696 136.654 65.4696 136.641 65.4696C136.627 65.4696 136.614 65.4696 136.6 65.4696C136.586 65.4696 136.573 65.4696 136.559 65.4696C136.546 65.4696 136.532 65.4696 136.519 65.4696C136.506 65.4696 136.492 65.4696 136.479 65.4696C136.465 65.4696 136.452 65.4696 136.438 65.4696C136.425 65.4696 136.411 65.4696 136.398 65.4696C136.385 65.4696 136.371 65.4696 136.358 65.4696C136.345 65.4696 136.331 65.4696 136.318 65.4696C136.304 65.4696 136.291 65.4696 136.278 65.4696C136.265 65.4696 136.251 65.4696 136.238 65.4696C136.225 65.4696 136.211 65.4696 136.198 65.4696C136.185 65.4696 136.172 65.4696 136.158 65.4696C136.145 65.4696 136.132 65.4696 136.119 65.4696C136.106 65.4696 136.092 65.4696 136.079 65.4696C136.066 65.4696 136.053 65.4696 136.04 65.4696C136.027 65.4696 136.014 65.4696 136 65.4696C135.987 65.4696 135.974 65.4696 135.961 65.4696C135.948 65.4696 135.935 65.4696 135.922 65.4696C135.909 65.4696 135.896 65.4696 135.883 65.4696C135.87 65.4696 135.857 65.4696 135.844 65.4696C135.831 65.4696 135.818 65.4696 135.805 65.4696C135.792 65.4696 135.779 65.4696 135.766 65.4696C135.753 65.4696 135.741 65.4696 135.728 65.4696C135.715 65.4696 135.702 65.4696 135.689 65.4696C135.676 65.4696 135.663 65.4696 135.651 65.4696C135.638 65.4696 135.625 65.4696 135.612 65.4696C135.599 65.4696 135.587 65.4696 135.574 65.4696C135.561 65.4696 135.548 65.4696 135.536 65.4696C135.523 65.4696 135.51 65.4696 135.498 65.4696C135.485 65.4696 135.472 65.4696 135.46 65.4696C135.447 65.4696 135.434 65.4696 135.422 65.4696C135.409 65.4696 135.397 65.4696 135.384 65.4696C135.372 65.4696 135.359 65.4696 135.346 65.4696C135.334 65.4696 135.321 65.4696 135.309 65.4696C135.296 65.4696 135.284 65.4696 135.271 65.4696C135.259 65.4696 135.247 65.4696 135.234 65.4696C135.222 65.4696 135.209 65.4696 135.197 65.4696C135.185 65.4696 135.172 65.4696 135.16 65.4696C135.147 65.4696 135.135 65.4696 135.123 65.4696C135.111 65.4696 135.098 65.4696 135.086 65.4696C135.074 65.4696 135.061 65.4696 135.049 65.4696C135.037 65.4696 135.025 65.4696 135.013 65.4696C135 65.4696 134.988 65.4696 134.976 65.4696C134.964 65.4696 134.952 65.4696 134.94 65.4696C134.927 65.4696 134.915 65.4696 134.903 65.4696C134.891 65.4696 134.879 65.4696 134.867 65.4696C134.855 65.4696 134.843 65.4696 134.831 65.4696C134.819 65.4696 134.807 65.4696 134.795 65.4696C134.783 65.4696 134.771 65.4696 134.759 65.4696C134.747 65.4696 134.735 65.4696 134.724 65.4696C134.712 65.4696 134.7 65.4696 134.688 65.4696C134.676 65.4696 134.664 65.4696 134.652 65.4696C134.641 65.4696 134.629 65.4696 134.617 65.4696C134.605 65.4696 134.594 65.4696 134.582 65.4696C134.57 65.4696 134.559 65.4696 134.547 65.4696C134.535 65.4696 134.524 65.4696 134.512 65.4696C134.5 65.4696 134.489 65.4696 134.477 65.4696C134.465 65.4696 134.454 65.4696 134.442 65.4696C134.431 65.4696 134.419 65.4696 134.408 65.4696C134.396 65.4696 134.385 65.4696 134.373 65.4696C134.362 65.4696 134.35 65.4696 134.339 65.4696C134.328 65.4696 134.316 65.4696 134.305 65.4696C134.293 65.4696 134.282 65.4696 134.271 65.4696C134.259 65.4696 134.248 65.4696 134.237 65.4696C134.226 65.4696 134.214 65.4696 134.203 65.4696C134.192 65.4696 134.181 65.4696 134.169 65.4696C134.158 65.4696 134.147 65.4696 134.136 65.4696C134.125 65.4696 134.114 65.4696 134.102 65.4696C134.091 65.4696 134.08 65.4696 134.069 65.4696C134.058 65.4696 134.047 65.4696 134.036 65.4696C134.025 65.4696 134.014 65.4696 134.003 65.4696C133.992 65.4696 133.981 65.4696 133.97 65.4696C133.959 65.4696 133.949 65.4696 133.938 65.4696C133.927 65.4696 133.916 65.4696 133.905 65.4696C133.894 65.4696 133.883 65.4696 133.873 65.4696C133.862 65.4696 133.851 65.4696 133.84 65.4696C133.83 65.4696 133.819 65.4696 133.808 65.4696C133.798 65.4696 133.787 65.4696 133.776 65.4696C133.766 65.4696 133.755 65.4696 133.745 65.4696C133.734 65.4696 133.723 65.4696 133.713 65.4696C133.702 65.4696 133.692 65.4696 133.681 65.4696C133.671 65.4696 133.66 65.4696 133.65 65.4696C133.64 65.4696 133.629 65.4696 133.619 65.4696C133.608 65.4696 133.598 65.4696 133.588 65.4696C133.577 65.4696 133.567 65.4696 133.557 65.4696C133.546 65.4696 133.536 65.4696 133.526 65.4696C133.516 65.4696 133.505 65.4696 133.495 65.4696C133.485 65.4696 133.475 65.4696 133.465 65.4696C133.455 65.4696 133.445 65.4696 133.434 65.4696C133.424 65.4696 133.414 65.4696 133.404 65.4696C133.394 65.4696 133.384 65.4696 133.374 65.4696C133.364 65.4696 133.354 65.4696 133.344 65.4696C133.335 65.4696 133.325 65.4696 133.315 65.4696C133.305 65.4696 133.295 65.4696 133.285 65.4696C133.275 65.4696 133.266 65.4696 133.256 65.4696V67.9696ZM150.256 67.9696C160.566 67.9696 169.006 76.41 169.006 86.7196H171.506C171.506 75.0292 161.946 65.4696 150.256 65.4696V67.9696ZM169.006 86.7196V93.7196H171.506V86.7196H169.006ZM78.2559 272.97H111.256V270.47H78.2559V272.97ZM111.256 272.97C113.046 272.97 114.506 271.51 114.506 269.72H112.006C112.006 270.129 111.666 270.47 111.256 270.47V272.97ZM114.506 269.72V259.72H112.006V269.72H114.506ZM114.506 259.72C114.506 257.929 113.046 256.47 111.256 256.47V258.97C111.666 258.97 112.006 259.31 112.006 259.72H114.506ZM111.256 256.47H91.2559V258.97H111.256V256.47ZM91.2559 256.47C85.3462 256.47 80.5059 251.629 80.5059 245.72H78.0059C78.0059 253.01 83.9655 258.97 91.2559 258.97V256.47ZM80.5059 245.72V203.72H78.0059V245.72H80.5059ZM80.5059 203.72C80.5059 197.81 85.3462 192.97 91.2559 192.97V190.47C83.9655 190.47 78.0059 196.429 78.0059 203.72H80.5059ZM91.2559 192.97H155.256V190.47H91.2559V192.97ZM155.256 192.97C161.165 192.97 166.006 197.81 166.006 203.72H168.506C168.506 196.429 162.546 190.47 155.256 190.47V192.97ZM166.006 203.72V245.72H168.506V203.72H166.006ZM166.006 245.72C166.006 251.629 161.165 256.47 155.256 256.47V258.97C162.546 258.97 168.506 253.01 168.506 245.72H166.006ZM155.256 256.47H135.256V258.97H155.256V256.47ZM135.256 256.47C133.465 256.47 132.006 257.929 132.006 259.72H134.506C134.506 259.31 134.846 258.97 135.256 258.97V256.47ZM132.006 259.72V269.72H134.506V259.72H132.006ZM132.006 269.72C132.006 271.51 133.465 272.97 135.256 272.97V270.47C134.846 270.47 134.506 270.129 134.506 269.72H132.006ZM135.256 272.97H175.256V270.47H135.256V272.97ZM176.373 272.28L193.773 237.58L191.538 236.459L174.138 271.159L176.373 272.28ZM193.771 237.584C197.662 229.897 205.536 224.97 214.156 224.97V222.47C204.576 222.47 195.849 227.942 191.541 236.455L193.771 237.584ZM214.156 224.97H221.856V222.47H214.156V224.97ZM221.856 224.97C225.546 224.97 228.606 221.91 228.606 218.22H226.106C226.106 220.529 224.166 222.47 221.856 222.47V224.97ZM228.606 218.22C228.606 214.529 225.546 211.47 221.856 211.47V213.97C224.166 213.97 226.106 215.91 226.106 218.22H228.606ZM221.856 211.47H216.256V213.97H221.856V211.47ZM216.256 211.47C212 211.47 208.606 207.884 208.606 203.52H206.106C206.106 209.155 210.512 213.97 216.256 213.97V211.47ZM208.606 203.52V195.72H206.106V203.52H208.606ZM208.606 195.72C208.606 193.929 207.146 192.47 205.356 192.47V194.97C205.766 194.97 206.106 195.31 206.106 195.72H208.606ZM205.356 192.47H203.356V194.97H205.356V192.47ZM203.356 192.47C202.489 192.47 201.748 192.243 201.356 191.72C200.978 191.216 200.587 189.98 201.542 187.115L199.17 186.324C198.125 189.459 198.234 191.723 199.356 193.22C200.463 194.696 202.222 194.97 203.356 194.97V192.47ZM201.542 187.115L204.542 178.115L202.17 177.324L199.17 186.324L201.542 187.115ZM204.541 178.118C206.533 172.189 209.409 167.931 213.141 165.146C216.867 162.366 221.563 160.97 227.356 160.97V158.47C221.149 158.47 215.895 159.973 211.646 163.143C207.403 166.308 204.279 171.05 202.171 177.321L204.541 178.118ZM227.356 160.97C239.966 160.97 250.106 171.11 250.106 183.72H252.606C252.606 169.729 241.346 158.47 227.356 158.47V160.97ZM250.106 183.72C250.106 188.526 249.155 191.624 248.154 195.126C247.141 198.673 246.106 202.551 246.106 208.72H248.606C248.606 202.888 249.571 199.266 250.558 195.813C251.557 192.315 252.606 188.913 252.606 183.72H250.106ZM52.2559 174.47H38.2559V176.97H52.2559V174.47ZM38.2559 174.47C34.5462 174.47 31.5059 171.429 31.5059 167.72H29.0059C29.0059 172.81 33.1655 176.97 38.2559 176.97V174.47ZM31.5059 167.72V134.72H29.0059V167.72H31.5059ZM31.5059 134.72C31.5059 131.01 34.5462 127.97 38.2559 127.97V125.47C33.1655 125.47 29.0059 129.629 29.0059 134.72H31.5059ZM38.2559 127.97H82.2559V125.47H38.2559V127.97ZM82.2559 127.97C85.9655 127.97 89.0059 131.01 89.0059 134.72H91.5059C91.5059 129.629 87.3462 125.47 82.2559 125.47V127.97ZM89.0059 134.72V160.72H91.5059V134.72H89.0059ZM90.2559 161.97C93.3267 161.97 96.0291 159.839 98.5619 157.212C99.8609 155.865 101.191 154.303 102.568 152.664C103.954 151.016 105.392 149.284 106.938 147.552C113.13 140.617 120.813 133.97 132.256 133.97V131.47C119.699 131.47 111.381 138.822 105.073 145.887C103.495 147.655 102.027 149.423 100.654 151.056C99.2739 152.698 97.9945 154.199 96.7623 155.477C94.2326 158.1 92.185 159.47 90.2559 159.47V161.97ZM132.256 133.97H136.256V131.47H132.256V133.97ZM87.5059 83.7196C87.5059 82.1444 87.1418 80.8224 86.3567 79.873C85.5461 78.8928 84.4188 78.4696 83.2559 78.4696V80.9696C83.793 80.9696 84.1656 81.1464 84.4301 81.4662C84.72 81.8168 85.0059 82.4948 85.0059 83.7196H87.5059ZM83.2559 78.4696C81.9224 78.4696 80.6539 79.0523 79.8519 80.31C79.0837 81.5146 78.8454 83.1759 79.1171 85.187L81.5946 84.8522C81.3664 83.1633 81.628 82.1746 81.9598 81.6542C82.2578 81.1869 82.6894 80.9696 83.2559 80.9696V78.4696ZM79.1152 85.1723C79.9975 92.3406 86.1485 97.4266 93.16 97.9659L93.3517 95.4733C87.3632 95.0126 82.3142 90.6986 81.5965 84.8669L79.1152 85.1723ZM93.1902 97.9679C95.2356 98.0755 96.7928 97.8582 98.4511 97.3055L97.6606 94.9337C96.3189 95.381 95.0761 95.5637 93.3216 95.4713L93.1902 97.9679ZM98.5201 97.2802C100.979 96.2965 101.272 93.0082 99.0318 91.5681L97.6799 93.6711C98.2399 94.031 98.1323 94.7427 97.5916 94.959L98.5201 97.2802ZM99.0617 91.588C97.4816 90.5069 96.5059 88.7826 96.5059 86.8196H94.0059C94.0059 89.6566 95.4301 92.1323 97.65 93.6512L99.0617 91.588ZM96.5059 86.8196C96.5059 85.0887 97.3649 83.4693 98.6442 80.9629C99.883 78.5359 101.354 75.5252 102.087 71.3351L99.6246 70.9041C98.9578 74.714 97.6287 77.4533 96.4175 79.8263C95.2468 82.1199 94.0059 84.3505 94.0059 86.8196H96.5059ZM102.088 71.332C105.209 53.2269 92.4089 36.2378 74.062 34.6741L73.8497 37.1651C90.7029 38.6014 102.502 54.2123 99.624 70.9072L102.088 71.332ZM74.0644 34.6743C53.7584 32.9041 37.0905 50.5102 40.422 71.02L42.8897 70.6192C39.8212 51.729 55.1534 35.5351 73.8473 37.1649L74.0644 34.6743ZM40.4226 71.0235C42.6158 84.287 54.6045 96.0696 70.2559 96.0696V93.5696C55.9072 93.5696 44.8959 82.7522 42.8891 70.6157L40.4226 71.0235ZM70.2684 96.0695C75.5162 96.0171 79.7875 94.4145 82.773 92.094C85.7329 89.7934 87.5059 86.7114 87.5059 83.7196H85.0059C85.0059 85.7278 83.7788 88.1458 81.2387 90.1202C78.7242 92.0747 74.9956 93.5221 70.2434 93.5697L70.2684 96.0695ZM232.506 107.72V85.7196H230.006V107.72H232.506ZM232.506 85.7196C232.506 85.31 232.846 84.9696 233.256 84.9696V82.4696C231.465 82.4696 230.006 83.9292 230.006 85.7196H232.506ZM233.256 84.9696H265.456V82.4696H233.256V84.9696ZM265.456 84.9696C265.614 84.9696 265.799 85.0304 265.972 85.2035L267.74 83.4357C267.113 82.8088 266.298 82.4696 265.456 82.4696V84.9696ZM265.972 85.2035L276.772 96.0035L278.54 94.2357L267.74 83.4357L265.972 85.2035ZM276.772 96.0035C276.945 96.1765 277.006 96.3615 277.006 96.5196H279.506C279.506 95.6777 279.167 94.8627 278.54 94.2357L276.772 96.0035ZM277.006 96.5196V115.72H279.506V96.5196H277.006ZM264.006 84.7196V96.7196H266.506V84.7196H264.006ZM265.256 97.9696H277.256V95.4696H265.256V97.9696ZM236.356 196.97C240.466 196.97 243.726 193.582 243.605 189.483L241.106 189.556C241.186 192.257 239.046 194.47 236.356 194.47V196.97ZM243.605 189.482C243.483 185.436 239.959 182.47 236.156 182.47V184.97C238.753 184.97 241.029 187.003 241.106 189.557L243.605 189.482ZM236.156 182.47H233.456V184.97H236.156V182.47ZM233.456 182.47C232.465 182.47 231.519 182.088 230.885 181.383L229.027 183.056C230.193 184.351 231.847 184.97 233.456 184.97V182.47ZM230.84 181.336L229.34 179.836L227.572 181.603L229.072 183.103L230.84 181.336ZM229.34 179.836C227.909 178.405 227.527 176.193 228.464 174.398L226.248 173.241C224.784 176.046 225.402 179.434 227.572 181.603L229.34 179.836ZM228.474 174.379L230.074 171.179L227.838 170.061L226.238 173.261L228.474 174.379ZM230.056 171.212C231.233 169.028 229.542 166.47 227.156 166.47V168.97C227.769 168.97 228.079 169.611 227.855 170.027L230.056 171.212ZM227.156 166.47H217.356V168.97H227.156V166.47ZM246.006 208.72C246.006 217.71 253.266 224.97 262.256 224.97V222.47C254.646 222.47 248.506 216.329 248.506 208.72H246.006ZM262.256 224.97C268.787 224.97 276.12 220.655 281.764 212.959C287.437 205.223 291.506 193.958 291.506 179.72H289.006C289.006 193.481 285.075 204.216 279.748 211.48C274.392 218.784 267.725 222.47 262.256 222.47V224.97ZM291.506 179.72C291.506 162.145 284.042 144.65 269.266 128.963L267.446 130.677C281.869 145.989 289.006 162.894 289.006 179.72H291.506ZM269.277 128.975C268.6 128.236 268.656 127.132 269.301 126.541L267.611 124.698C265.856 126.307 265.912 129.003 267.434 130.664L269.277 128.975ZM269.34 126.503C269.998 125.845 271.002 125.792 271.706 126.32L273.206 124.32C271.51 123.048 269.113 123.194 267.572 124.736L269.34 126.503ZM271.709 126.322L277.609 130.722L279.103 128.718L273.203 124.318L271.709 126.322ZM279.606 129.72V115.72H277.106V129.72H279.606ZM278.356 116.97C284.266 116.97 289.106 121.81 289.106 127.72H291.606C291.606 120.429 285.646 114.47 278.356 114.47V116.97ZM289.106 127.72V135.72H291.606V127.72H289.106ZM185.006 279.72C185.006 281.829 183.366 283.47 181.256 283.47V285.97C184.746 285.97 187.506 283.21 187.506 279.72H185.006ZM181.256 283.47C179.22 283.47 177.2 282.323 176.077 280.371C174.976 278.458 174.685 275.656 176.374 272.279L174.138 271.161C172.127 275.183 172.336 278.881 173.91 281.618C175.462 284.316 178.292 285.97 181.256 285.97V283.47ZM175.256 272.97C181.84 272.97 185.006 276.656 185.006 279.72H187.506C187.506 274.783 182.672 270.47 175.256 270.47V272.97ZM78.2559 270.47C52.4462 270.47 31.5059 249.529 31.5059 223.72H29.0059C29.0059 250.91 51.0655 272.97 78.2559 272.97V270.47ZM31.5059 223.72C31.5059 197.91 52.4462 176.97 78.2559 176.97V174.47C51.0655 174.47 29.0059 196.529 29.0059 223.72H31.5059ZM78.2559 176.97H196.256V174.47H78.2559V176.97Z" fill="url(#paint0_linear_4_236)"/>
<path d="M141.256 98.7195C142.36 98.7195 143.256 97.8241 143.256 96.7195C143.256 95.6149 142.36 94.7195 141.256 94.7195C140.151 94.7195 139.256 95.6149 139.256 96.7195C139.256 97.8241 140.151 98.7195 141.256 98.7195Z" fill="url(#paint1_linear_4_236)"/>
<path d="M212.256 182.719C213.36 182.719 214.256 181.824 214.256 180.719C214.256 179.615 213.36 178.719 212.256 178.719C211.151 178.719 210.256 179.615 210.256 180.719C210.256 181.824 211.151 182.719 212.256 182.719Z" fill="url(#paint2_linear_4_236)"/>
<path d="M63.2559 67.7195C64.3604 67.7195 65.2559 66.8241 65.2559 65.7195C65.2559 64.6149 64.3604 63.7195 63.2559 63.7195C62.1513 63.7195 61.2559 64.6149 61.2559 65.7195C61.2559 66.8241 62.1513 67.7195 63.2559 67.7195Z" fill="url(#paint3_linear_4_236)"/>
<path d="M71.2559 67.7195C72.3604 67.7195 73.2559 66.8241 73.2559 65.7195C73.2559 64.6149 72.3604 63.7195 71.2559 63.7195C70.1513 63.7195 69.2559 64.6149 69.2559 65.7195C69.2559 66.8241 70.1513 67.7195 71.2559 67.7195Z" fill="url(#paint4_linear_4_236)"/>
<path d="M79.2559 67.7195C80.3604 67.7195 81.2559 66.8241 81.2559 65.7195C81.2559 64.6149 80.3604 63.7195 79.2559 63.7195C78.1513 63.7195 77.2559 64.6149 77.2559 65.7195C77.2559 66.8241 78.1513 67.7195 79.2559 67.7195Z" fill="url(#paint5_linear_4_236)"/>
<defs>
<linearGradient id="paint0_linear_4_236" x1="160.306" y1="35.8015" x2="160.306" y2="284.72" gradientUnits="userSpaceOnUse">
<stop stop-color="#F55868"/>
<stop offset="1" stop-color="#875AE0"/>
</linearGradient>
<linearGradient id="paint1_linear_4_236" x1="137.756" y1="63.7195" x2="137.756" y2="182.719" gradientUnits="userSpaceOnUse">
<stop stop-color="#F55868"/>
<stop offset="1" stop-color="#875AE0"/>
</linearGradient>
<linearGradient id="paint2_linear_4_236" x1="137.756" y1="63.7195" x2="137.756" y2="182.719" gradientUnits="userSpaceOnUse">
<stop stop-color="#F55868"/>
<stop offset="1" stop-color="#875AE0"/>
</linearGradient>
<linearGradient id="paint3_linear_4_236" x1="137.756" y1="63.7195" x2="137.756" y2="182.719" gradientUnits="userSpaceOnUse">
<stop stop-color="#F55868"/>
<stop offset="1" stop-color="#875AE0"/>
</linearGradient>
<linearGradient id="paint4_linear_4_236" x1="137.756" y1="63.7195" x2="137.756" y2="182.719" gradientUnits="userSpaceOnUse">
<stop stop-color="#F55868"/>
<stop offset="1" stop-color="#875AE0"/>
</linearGradient>
<linearGradient id="paint5_linear_4_236" x1="137.756" y1="63.7195" x2="137.756" y2="182.719" gradientUnits="userSpaceOnUse">
<stop stop-color="#F55868"/>
<stop offset="1" stop-color="#875AE0"/>
</linearGradient>
</defs>
</svg>
