<svg width="320" height="320" viewBox="0 0 320 320" fill="none" xmlns="http://www.w3.org/2000/svg">
<path d="M245.999 242.8H238.999C238.681 242.8 238.376 242.927 238.151 243.152C237.926 243.377 237.799 243.682 237.799 244C237.799 244.318 237.926 244.624 238.151 244.849C238.376 245.074 238.681 245.2 238.999 245.2H245.999C246.204 245.222 246.395 245.313 246.541 245.459C246.686 245.604 246.777 245.795 246.799 246C246.773 248.326 245.838 250.549 244.193 252.194C242.548 253.839 240.325 254.774 237.999 254.8H81.9992C79.6827 254.774 77.47 253.835 75.8412 252.188C74.2124 250.54 73.299 248.317 73.2992 246C73.2977 245.804 73.3681 245.615 73.4971 245.467C73.6261 245.32 73.8048 245.225 73.9992 245.2H229.999C230.428 245.214 230.855 245.141 231.255 244.986C231.654 244.831 232.019 244.598 232.327 244.299C232.635 244.001 232.879 243.643 233.046 243.248C233.213 242.853 233.299 242.429 233.299 242V199C233.3 198.834 233.266 198.669 233.199 198.517C233.133 198.364 233.035 198.227 232.913 198.114C232.791 198.001 232.647 197.915 232.489 197.861C232.332 197.807 232.165 197.786 231.999 197.8C231.681 197.8 231.376 197.927 231.151 198.152C230.926 198.377 230.799 198.682 230.799 199V242C230.777 242.205 230.686 242.396 230.541 242.542C230.395 242.687 230.204 242.778 229.999 242.8H73.9992C73.1505 242.8 72.3366 243.137 71.7365 243.737C71.1363 244.338 70.7992 245.151 70.7992 246C70.7992 248.971 71.9792 251.819 74.0796 253.92C76.18 256.02 79.0288 257.2 81.9992 257.2H237.999C240.979 257.2 243.838 256.024 245.954 253.926C248.071 251.828 249.273 248.98 249.299 246C249.299 245.571 249.213 245.147 249.046 244.752C248.879 244.357 248.635 244 248.327 243.701C248.019 243.403 247.654 243.169 247.255 243.014C246.855 242.86 246.428 242.787 245.999 242.8Z" fill="url(#paint0_linear_4_826)"/>
<path d="M273.999 124C283.499 116.6 289.299 106.8 289.299 96.0002C289.299 73.3002 263.599 54.8002 231.999 54.8002C197.499 54.8002 170.499 67.4002 141.999 80.8002C110.499 95.5002 77.8992 110.8 31.9992 110.8C31.6809 110.8 31.3757 110.927 31.1507 111.152C30.9256 111.377 30.7992 111.682 30.7992 112C30.7992 112.318 30.9256 112.624 31.1507 112.849C31.3757 113.074 31.6809 113.2 31.9992 113.2C78.4992 113.2 111.299 97.9002 142.999 83.0002C171.299 69.8002 198.099 57.2002 231.999 57.2002C262.199 57.2002 286.799 74.6002 286.799 96.0002C286.799 106.2 281.099 115.5 271.899 122.5C261.599 115.2 247.499 110.8 231.999 110.8C216.499 110.8 206.799 116.6 206.799 124C206.799 131.4 217.799 137.2 231.999 137.2C246.199 137.2 261.599 132.8 271.899 125.5C281.099 132.5 286.799 141.8 286.799 152C286.799 173.1 262.899 190.3 233.299 190.7V164C233.273 160.49 231.86 157.133 229.369 154.66C226.877 152.188 223.509 150.8 219.999 150.8H99.9992C96.4983 150.8 93.1409 152.191 90.6654 154.666C88.1899 157.142 86.7992 160.499 86.7992 164V237C86.7992 237.318 86.9256 237.624 87.1507 237.849C87.3757 238.074 87.6809 238.2 87.9992 238.2C88.165 238.214 88.3318 238.193 88.4892 238.139C88.6465 238.085 88.7909 237.999 88.9131 237.886C89.0354 237.773 89.1328 237.636 89.1993 237.484C89.2658 237.331 89.2998 237.167 89.2992 237V164C89.2991 161.153 90.4232 158.421 92.427 156.399C94.4308 154.376 97.1522 153.227 99.9992 153.2H219.999C222.855 153.226 225.587 154.373 227.607 156.392C229.627 158.412 230.773 161.144 230.799 164V190.8H177.199C176.886 188.582 175.783 186.552 174.093 185.082C172.403 183.613 170.239 182.802 167.999 182.8H145.999C145.15 182.8 144.337 183.137 143.736 183.737C143.136 184.338 142.799 185.152 142.799 186V198C142.799 198.849 143.136 199.663 143.736 200.263C144.337 200.863 145.15 201.2 145.999 201.2H167.999C170.239 201.198 172.403 200.388 174.093 198.918C175.783 197.448 176.886 195.418 177.199 193.2H231.999C263.599 193.2 289.299 174.7 289.299 152C289.299 141.2 283.499 131.4 273.999 124ZM231.999 134.8C219.699 134.8 209.299 129.8 209.299 124C209.299 118.2 219.699 113.2 231.999 113.2C246.599 113.2 259.999 117.3 269.799 124C259.999 130.7 246.599 134.8 231.999 134.8ZM145.299 198V186C145.298 185.804 145.368 185.615 145.497 185.467C145.626 185.32 145.805 185.225 145.999 185.2H158.799V198.8H145.999C145.805 198.776 145.626 198.681 145.497 198.533C145.368 198.386 145.298 198.196 145.299 198ZM167.999 198.8H161.299V185.2H167.999C169.803 185.2 171.532 185.917 172.808 187.192C174.083 188.467 174.799 190.197 174.799 192C174.799 193.804 174.083 195.533 172.808 196.809C171.532 198.084 169.803 198.8 167.999 198.8Z" fill="url(#paint1_linear_4_826)"/>
<defs>
<linearGradient id="paint0_linear_4_826" x1="160.049" y1="54.8002" x2="160.049" y2="257.2" gradientUnits="userSpaceOnUse">
<stop stop-color="#FFBE4F"/>
<stop offset="1" stop-color="#F26B1D"/>
</linearGradient>
<linearGradient id="paint1_linear_4_826" x1="160.049" y1="54.8002" x2="160.049" y2="257.2" gradientUnits="userSpaceOnUse">
<stop stop-color="#FFBE4F"/>
<stop offset="1" stop-color="#F26B1D"/>
</linearGradient>
</defs>
</svg>
