<svg width="320" height="320" viewBox="0 0 320 320" fill="none" xmlns="http://www.w3.org/2000/svg">
<path d="M246 242.75H239C238.668 242.75 238.351 242.882 238.116 243.116C237.882 243.351 237.75 243.668 237.75 244C237.75 244.332 237.882 244.649 238.116 244.884C238.351 245.118 238.668 245.25 239 245.25H246C246.199 245.25 246.389 245.33 246.53 245.47C246.67 245.611 246.75 245.801 246.75 246C246.748 248.32 245.825 250.544 244.184 252.184C242.544 253.825 240.32 254.748 238 254.75H82C79.6801 254.748 77.456 253.825 75.8156 252.184C74.1751 250.544 73.2525 248.32 73.25 246C73.2504 245.801 73.3295 245.611 73.4701 245.47C73.6107 245.33 73.8012 245.25 74 245.25H230C230.862 245.249 231.688 244.906 232.297 244.297C232.906 243.688 233.249 242.862 233.25 242V199C233.25 198.668 233.118 198.351 232.884 198.116C232.649 197.882 232.332 197.75 232 197.75C231.668 197.75 231.351 197.882 231.116 198.116C230.882 198.351 230.75 198.668 230.75 199V242C230.75 242.199 230.67 242.389 230.53 242.53C230.389 242.67 230.199 242.75 230 242.75H74C73.1384 242.751 72.3123 243.094 71.703 243.703C71.0937 244.312 70.751 245.138 70.75 246C70.7534 248.983 71.9398 251.842 74.0488 253.951C76.1579 256.06 79.0174 257.247 82 257.25H238C240.983 257.247 243.842 256.06 245.951 253.951C248.06 251.842 249.247 248.983 249.25 246C249.249 245.138 248.906 244.312 248.297 243.703C247.688 243.094 246.862 242.751 246 242.75Z" fill="url(#paint0_linear_4_841)"/>
<path d="M273.99 124C283.452 116.639 289.25 106.8 289.25 96C289.25 73.2549 263.567 54.75 232 54.75C197.526 54.75 170.539 67.3862 141.968 80.7646C110.483 95.5063 77.9277 110.75 32 110.75C31.6685 110.75 31.3505 110.882 31.1161 111.116C30.8817 111.351 30.75 111.668 30.75 112C30.75 112.332 30.8817 112.649 31.1161 112.884C31.3505 113.118 31.6685 113.25 32 113.25C78.4834 113.25 111.296 97.8867 143.027 83.0283C171.34 69.7715 198.083 57.25 232 57.25C262.189 57.25 286.75 74.6333 286.75 96C286.75 106.231 281.109 115.543 271.925 122.476C261.603 115.228 247.517 110.75 232 110.75C217.841 110.75 206.75 116.57 206.75 124C206.75 131.43 217.841 137.25 232 137.25C247.517 137.25 261.603 132.772 271.925 125.524C281.109 132.457 286.75 141.769 286.75 152C286.75 173.07 262.863 190.254 233.25 190.728V164C233.246 160.487 231.849 157.119 229.365 154.635C226.881 152.151 223.513 150.754 220 150.75H100C96.4871 150.754 93.1193 152.151 90.6354 154.635C88.1514 157.119 86.7541 160.487 86.75 164V237C86.75 237.332 86.8817 237.649 87.1161 237.884C87.3505 238.118 87.6685 238.25 88 238.25C88.3315 238.25 88.6495 238.118 88.8839 237.884C89.1183 237.649 89.25 237.332 89.25 237V164C89.2532 161.15 90.3868 158.417 92.4021 156.402C94.4174 154.387 97.1499 153.253 100 153.25H220C222.85 153.253 225.583 154.387 227.598 156.402C229.613 158.417 230.747 161.15 230.75 164V190.75H181.25V187.657C181.252 186.967 181.117 186.284 180.853 185.647C180.589 185.009 180.201 184.431 179.712 183.944L172.056 176.288C171.569 175.799 170.991 175.411 170.353 175.147C169.716 174.883 169.033 174.748 168.343 174.75H156C154.828 174.753 153.69 175.149 152.769 175.874C151.848 176.599 151.196 177.611 150.917 178.75H142C141.138 178.751 140.312 179.094 139.703 179.703C139.094 180.312 138.751 181.138 138.75 182V202C138.751 202.862 139.094 203.688 139.703 204.297C140.312 204.906 141.138 205.249 142 205.25H150.917C151.196 206.389 151.848 207.401 152.769 208.126C153.69 208.851 154.828 209.247 156 209.25H168.343C169.033 209.252 169.716 209.117 170.353 208.853C170.991 208.589 171.569 208.201 172.056 207.712L179.712 200.056C180.201 199.569 180.589 198.991 180.853 198.353C181.117 197.716 181.252 197.033 181.25 196.343V193.25H232C263.567 193.25 289.25 174.745 289.25 152C289.25 141.2 283.452 131.361 273.99 124ZM232 134.75C219.668 134.75 209.25 129.827 209.25 124C209.25 118.173 219.668 113.25 232 113.25C246.645 113.25 259.954 117.348 269.789 124C259.954 130.652 246.645 134.75 232 134.75ZM141.25 202V182C141.25 181.801 141.33 181.611 141.47 181.47C141.611 181.33 141.801 181.25 142 181.25H150.75V202.75H142C141.801 202.75 141.611 202.67 141.47 202.53C141.33 202.389 141.25 202.199 141.25 202ZM178.75 196.343C178.751 196.704 178.68 197.062 178.542 197.396C178.404 197.73 178.201 198.033 177.944 198.288L170.288 205.944C170.033 206.201 169.73 206.404 169.396 206.542C169.062 206.68 168.704 206.751 168.343 206.75H156C155.271 206.749 154.572 206.459 154.056 205.944C153.541 205.428 153.251 204.729 153.25 204V180C153.251 179.271 153.541 178.572 154.056 178.056C154.572 177.541 155.271 177.251 156 177.25H168.343C168.704 177.249 169.062 177.32 169.396 177.458C169.73 177.596 170.033 177.799 170.288 178.056L177.944 185.712C178.201 185.967 178.404 186.27 178.542 186.604C178.68 186.938 178.751 187.296 178.75 187.657V196.343Z" fill="url(#paint1_linear_4_841)"/>
<defs>
<linearGradient id="paint0_linear_4_841" x1="160" y1="54.75" x2="160" y2="257.25" gradientUnits="userSpaceOnUse">
<stop stop-color="#FFBE4F"/>
<stop offset="1" stop-color="#93C437"/>
</linearGradient>
<linearGradient id="paint1_linear_4_841" x1="160" y1="54.75" x2="160" y2="257.25" gradientUnits="userSpaceOnUse">
<stop stop-color="#FFBE4F"/>
<stop offset="1" stop-color="#93C437"/>
</linearGradient>
</defs>
</svg>
