<svg width="320" height="320" viewBox="0 0 320 320" fill="none" xmlns="http://www.w3.org/2000/svg">
<path d="M232.2 192.7V164.7C232.2 158.1 226.8 152.7 220.2 152.7H100.2C93.6002 152.7 88.2002 158.1 88.2002 164.7V237.7M232.2 192.7H176.2M232.2 192.7C263.1 192.7 288.2 174.8 288.2 152.7C288.2 130.6 263.1 112.7 232.2 112.7C218.9 112.7 208.2 118.1 208.2 124.7C208.2 131.3 218.9 136.7 232.2 136.7C263.1 136.7 288.2 118.8 288.2 96.7002C288.2 74.6002 263.1 56.7002 232.2 56.7002C160.2 56.7002 120.2 112.7 32.2002 112.7M239.2 244.7H246.2C247.3 244.7 248.2 245.6 248.2 246.7C248.2 252.2 243.7 256.7 238.2 256.7H82.2002C76.7002 256.7 72.2002 252.2 72.2002 246.7C72.2002 245.6 73.1002 244.7 74.2002 244.7H230.2C231.3 244.7 232.2 243.8 232.2 242.7V199.7M168.3 200.7H160.3V184.7H168.3C172.7 184.7 176.3 188.3 176.3 192.7C176.2 197.2 172.7 200.7 168.3 200.7ZM160.2 200.7H146.2C145.1 200.7 144.2 199.8 144.2 198.7V186.7C144.2 185.6 145.1 184.7 146.2 184.7H160.2V200.7Z" stroke="url(#paint0_linear_3240_2681)" stroke-width="2.5" stroke-miterlimit="10" stroke-linecap="round" stroke-linejoin="round"/>
<defs>
<linearGradient id="paint0_linear_3240_2681" x1="160.2" y1="56.7002" x2="160.2" y2="256.7" gradientUnits="userSpaceOnUse">
<stop stop-color="#93C437"/>
<stop offset="1" stop-color="#279BE8"/>
</linearGradient>
</defs>
</svg>
