<svg width="320" height="320" viewBox="0 0 320 320" fill="none" xmlns="http://www.w3.org/2000/svg">
<path d="M304.895 71.199C304.895 70.5086 304.335 69.949 303.645 69.949C302.954 69.949 302.395 70.5086 302.395 71.199H304.895ZM48.8945 151.199C48.8945 150.509 48.3349 149.949 47.6445 149.949C46.9542 149.949 46.3945 150.509 46.3945 151.199H48.8945ZM54.9064 79.9767C54.2314 79.8321 53.5669 80.2621 53.4223 80.9371C53.2776 81.6121 53.7076 82.2766 54.3826 82.4213L54.9064 79.9767ZM79.3445 116.699L80.5825 116.872L80.5825 116.872L79.3445 116.699ZM49.3445 144.099L49.287 142.85L49.2767 142.851L49.3445 144.099ZM47.6445 80.099V81.349C48.3349 81.349 48.8945 80.7894 48.8945 80.099H47.6445ZM94.3945 240.099C94.3945 240.789 94.9542 241.349 95.6445 241.349C96.3349 241.349 96.8945 240.789 96.8945 240.099H94.3945ZM172.834 122.814C172.621 122.157 171.917 121.797 171.26 122.01C170.603 122.222 170.243 122.927 170.455 123.584L172.834 122.814ZM174.645 132.199L175.83 131.804C175.827 131.793 175.823 131.782 175.819 131.772L174.645 132.199ZM169.645 134.949C168.954 134.949 168.395 135.509 168.395 136.199C168.395 136.889 168.954 137.449 169.645 137.449V134.949ZM164.645 103.449C165.335 103.449 165.895 102.889 165.895 102.199C165.895 101.509 165.335 100.949 164.645 100.949V103.449ZM134.645 116.949C133.954 116.949 133.395 117.509 133.395 118.199C133.395 118.889 133.954 119.449 134.645 119.449V116.949ZM160.645 97.449C161.335 97.449 161.895 96.8894 161.895 96.199C161.895 95.5086 161.335 94.949 160.645 94.949V97.449ZM130.645 110.949C129.954 110.949 129.395 111.509 129.395 112.199C129.395 112.889 129.954 113.449 130.645 113.449V110.949ZM159.645 174.949C158.954 174.949 158.395 175.509 158.395 176.199C158.395 176.889 158.954 177.449 159.645 177.449V174.949ZM157.845 80.199L157.89 81.4482L157.89 81.4482L157.845 80.199ZM111.645 125.999L110.396 125.944L110.396 125.945L111.645 125.999ZM125.045 161.499L125.946 160.633L125.943 160.63L125.045 161.499ZM141.245 129.199L141.141 127.953L141.131 127.954L141.245 129.199ZM137.645 133.599L136.396 133.656L136.396 133.661L137.645 133.599ZM166.945 156.199L166.952 157.449L166.96 157.449L166.945 156.199ZM138.645 122.949C137.954 122.949 137.395 123.509 137.395 124.199C137.395 124.889 137.954 125.449 138.645 125.449V122.949ZM111.645 230.949C110.954 230.949 110.395 231.509 110.395 232.199C110.395 232.889 110.954 233.449 111.645 233.449V230.949ZM143.645 233.449C144.335 233.449 144.895 232.889 144.895 232.199C144.895 231.509 144.335 230.949 143.645 230.949V233.449ZM111.645 238.949C110.954 238.949 110.395 239.509 110.395 240.199C110.395 240.889 110.954 241.449 111.645 241.449V238.949ZM175.645 241.449C176.335 241.449 176.895 240.889 176.895 240.199C176.895 239.509 176.335 238.949 175.645 238.949V241.449ZM111.645 198.949C110.954 198.949 110.395 199.509 110.395 200.199C110.395 200.889 110.954 201.449 111.645 201.449V198.949ZM143.645 201.449C144.335 201.449 144.895 200.889 144.895 200.199C144.895 199.509 144.335 198.949 143.645 198.949V201.449ZM111.645 206.949C110.954 206.949 110.395 207.509 110.395 208.199C110.395 208.889 110.954 209.449 111.645 209.449V206.949ZM175.645 209.449C176.335 209.449 176.895 208.889 176.895 208.199C176.895 207.509 176.335 206.949 175.645 206.949V209.449ZM207.645 230.949C206.954 230.949 206.395 231.509 206.395 232.199C206.395 232.889 206.954 233.449 207.645 233.449V230.949ZM239.645 233.449C240.335 233.449 240.895 232.889 240.895 232.199C240.895 231.509 240.335 230.949 239.645 230.949V233.449ZM207.645 238.949C206.954 238.949 206.395 239.509 206.395 240.199C206.395 240.889 206.954 241.449 207.645 241.449V238.949ZM271.645 241.449C272.335 241.449 272.895 240.889 272.895 240.199C272.895 239.509 272.335 238.949 271.645 238.949V241.449ZM207.645 198.949C206.954 198.949 206.395 199.509 206.395 200.199C206.395 200.889 206.954 201.449 207.645 201.449V198.949ZM239.645 201.449C240.335 201.449 240.895 200.889 240.895 200.199C240.895 199.509 240.335 198.949 239.645 198.949V201.449ZM207.645 206.949C206.954 206.949 206.395 207.509 206.395 208.199C206.395 208.889 206.954 209.449 207.645 209.449V206.949ZM271.645 209.449C272.335 209.449 272.895 208.889 272.895 208.199C272.895 207.509 272.335 206.949 271.645 206.949V209.449ZM33.6445 102.449C34.3349 102.449 34.8945 101.889 34.8945 101.199C34.8945 100.509 34.3349 99.949 33.6445 99.949V102.449ZM29.6445 99.949C28.9542 99.949 28.3945 100.509 28.3945 101.199C28.3945 101.889 28.9542 102.449 29.6445 102.449V99.949ZM33.6445 113.449C34.3349 113.449 34.8945 112.889 34.8945 112.199C34.8945 111.509 34.3349 110.949 33.6445 110.949V113.449ZM29.6445 110.949C28.9542 110.949 28.3945 111.509 28.3945 112.199C28.3945 112.889 28.9542 113.449 29.6445 113.449V110.949ZM33.6445 124.449C34.3349 124.449 34.8945 123.889 34.8945 123.199C34.8945 122.509 34.3349 121.949 33.6445 121.949V124.449ZM29.6445 121.949C28.9542 121.949 28.3945 122.509 28.3945 123.199C28.3945 123.889 28.9542 124.449 29.6445 124.449V121.949ZM302.395 71.199V246.199H304.895V71.199H302.395ZM302.395 246.199C302.395 255.409 294.854 262.949 285.645 262.949V265.449C296.235 265.449 304.895 256.789 304.895 246.199H302.395ZM285.645 262.949H65.6445V265.449H285.645V262.949ZM65.6445 262.949C56.4349 262.949 48.8945 255.409 48.8945 246.199H46.3945C46.3945 256.789 55.0542 265.449 65.6445 265.449V262.949ZM48.8945 246.199V151.199H46.3945V246.199H48.8945ZM54.3826 82.4213C69.1733 85.5907 80.4116 100.007 78.1065 116.526L80.5825 116.872C83.0775 98.9914 70.9157 83.4073 54.9064 79.9767L54.3826 82.4213ZM78.1066 116.526C76.0892 130.935 63.8805 142.178 49.287 142.85L49.402 145.348C65.2085 144.62 78.3998 132.463 80.5825 116.872L78.1066 116.526ZM49.2767 142.851C31.6002 143.812 16.8945 129.69 16.8945 112.099H14.3945C14.3945 131.108 30.2889 146.386 49.4124 145.347L49.2767 142.851ZM16.8945 112.099C16.8945 95.0894 30.6349 81.349 47.6445 81.349V78.849C29.2542 78.849 14.3945 93.7086 14.3945 112.099H16.8945ZM48.8945 80.099V74.099H46.3945V80.099H48.8945ZM48.8945 74.099C48.8945 64.8894 56.4349 57.349 65.6445 57.349V54.849C55.0542 54.849 46.3945 63.5086 46.3945 74.099H48.8945ZM65.6445 57.349H299.645V54.849H65.6445V57.349ZM299.645 57.349C301.154 57.349 302.395 58.5894 302.395 60.099H304.895C304.895 57.2086 302.535 54.849 299.645 54.849V57.349ZM302.395 60.099C302.395 61.6086 301.154 62.849 299.645 62.849V65.349C302.535 65.349 304.895 62.9894 304.895 60.099H302.395ZM299.645 62.849H107.645V65.349H299.645V62.849ZM107.645 62.849C100.354 62.849 94.3945 68.8086 94.3945 76.099H96.8945C96.8945 70.1894 101.735 65.349 107.645 65.349V62.849ZM94.3945 76.099V240.099H96.8945V76.099H94.3945ZM171.645 123.199C170.455 123.584 170.455 123.584 170.455 123.584C170.455 123.584 170.455 123.584 170.455 123.584C170.455 123.584 170.456 123.585 170.456 123.585C170.456 123.586 170.456 123.587 170.457 123.589C170.458 123.592 170.46 123.597 170.462 123.604C170.466 123.617 170.472 123.636 170.48 123.661C170.497 123.712 170.521 123.786 170.552 123.881C170.613 124.072 170.703 124.346 170.812 124.683C171.031 125.356 171.332 126.276 171.657 127.265C172.305 129.234 173.062 131.504 173.47 132.626L175.819 131.772C175.427 130.694 174.684 128.464 174.032 126.483C173.707 125.497 173.408 124.58 173.189 123.909C173.08 123.573 172.991 123.3 172.93 123.11C172.899 123.015 172.875 122.941 172.859 122.891C172.85 122.866 172.844 122.846 172.84 122.834C172.838 122.827 172.836 122.822 172.835 122.819C172.835 122.817 172.834 122.816 172.834 122.815C172.834 122.815 172.834 122.815 172.834 122.815C172.834 122.814 172.834 122.814 172.834 122.814C172.834 122.814 172.834 122.814 171.645 123.199ZM173.459 132.594C173.863 133.806 173.571 134.255 173.386 134.44C173.099 134.727 172.497 134.949 171.645 134.949V137.449C172.792 137.449 174.19 137.171 175.153 136.208C176.218 135.143 176.426 133.592 175.83 131.804L173.459 132.594ZM171.645 134.949H169.645V137.449H171.645V134.949ZM164.645 100.949C157.07 100.949 152.734 105.342 148.761 109.315L150.528 111.083C154.555 107.056 158.219 103.449 164.645 103.449V100.949ZM148.761 109.315C144.734 113.342 141.07 116.949 134.645 116.949V119.449C142.219 119.449 146.555 115.056 150.528 111.083L148.761 109.315ZM160.645 94.949C153.07 94.949 148.734 99.342 144.761 103.315L146.528 105.083C150.555 101.056 154.219 97.449 160.645 97.449V94.949ZM144.761 103.315C140.734 107.342 137.07 110.949 130.645 110.949V113.449C138.219 113.449 142.555 109.056 146.528 105.083L144.761 103.315ZM159.645 177.449C186.835 177.449 208.895 155.389 208.895 128.199H206.395C206.395 154.009 185.454 174.949 159.645 174.949V177.449ZM208.895 128.199C208.895 100.394 185.81 77.9238 157.799 78.9498L157.89 81.4482C184.479 80.4742 206.395 101.804 206.395 128.199H208.895ZM157.799 78.9498C132.349 79.8734 111.525 100.492 110.396 125.944L112.893 126.054C113.964 101.906 133.74 82.3246 157.89 81.4482L157.799 78.9498ZM110.396 125.945C109.78 140.099 115.116 153.03 124.146 162.368L125.943 160.63C117.373 151.768 112.309 139.499 112.893 126.053L110.396 125.945ZM124.143 162.365C132.338 170.892 146.895 164.903 146.895 153.099H144.395C144.395 162.695 132.551 167.506 125.946 160.633L124.143 162.365ZM146.895 153.099V133.199H144.395V153.099H146.895ZM146.895 133.199C146.895 130.17 144.272 127.692 141.141 127.953L141.348 130.445C143.017 130.306 144.395 131.628 144.395 133.199H146.895ZM141.131 127.954C138.166 128.224 136.27 130.893 136.396 133.656L138.893 133.542C138.819 131.905 139.923 130.574 141.358 130.444L141.131 127.954ZM136.396 133.661C136.51 135.97 137.504 138.606 139.087 141.211C140.682 143.834 142.926 146.511 145.657 148.913C151.108 153.707 158.617 157.501 166.952 157.449L166.937 154.949C159.372 154.997 152.431 151.541 147.308 147.035C144.751 144.787 142.676 142.302 141.224 139.912C139.76 137.504 138.979 135.278 138.893 133.537L136.396 133.661ZM166.96 157.449C175.857 157.34 182.895 150.07 182.895 141.199H180.395C180.395 148.728 174.432 154.858 166.929 154.949L166.96 157.449ZM182.895 141.199V121.199H180.395V141.199H182.895ZM182.895 121.199C182.895 113.309 176.535 106.949 168.645 106.949V109.449C175.154 109.449 180.395 114.689 180.395 121.199H182.895ZM168.645 106.949C161.07 106.949 156.734 111.342 152.761 115.315L154.528 117.083C158.555 113.056 162.219 109.449 168.645 109.449V106.949ZM152.761 115.315C148.734 119.342 145.07 122.949 138.645 122.949V125.449C146.219 125.449 150.555 121.056 154.528 117.083L152.761 115.315ZM111.645 233.449H143.645V230.949H111.645V233.449ZM111.645 241.449H175.645V238.949H111.645V241.449ZM111.645 201.449H143.645V198.949H111.645V201.449ZM111.645 209.449H175.645V206.949H111.645V209.449ZM207.645 233.449H239.645V230.949H207.645V233.449ZM207.645 241.449H271.645V238.949H207.645V241.449ZM207.645 201.449H239.645V198.949H207.645V201.449ZM207.645 209.449H271.645V206.949H207.645V209.449ZM57.6445 127.949H37.6445V130.449H57.6445V127.949ZM37.6445 127.949C36.1349 127.949 34.8945 126.709 34.8945 125.199H32.3945C32.3945 128.089 34.7542 130.449 37.6445 130.449V127.949ZM34.8945 125.199V99.199H32.3945V125.199H34.8945ZM34.8945 99.199C34.8945 97.6894 36.1349 96.449 37.6445 96.449V93.949C34.7542 93.949 32.3945 96.3086 32.3945 99.199H34.8945ZM37.6445 96.449H57.6445V93.949H37.6445V96.449ZM57.6445 96.449C59.1542 96.449 60.3945 97.6894 60.3945 99.199H62.8945C62.8945 96.3086 60.5349 93.949 57.6445 93.949V96.449ZM60.3945 99.199V125.199H62.8945V99.199H60.3945ZM60.3945 125.199C60.3945 126.809 59.2542 127.949 57.6445 127.949V130.449C60.6349 130.449 62.8945 128.189 62.8945 125.199H60.3945ZM53.3945 118.199C53.3945 118.235 53.3889 118.358 53.1422 118.577C52.8831 118.808 52.4506 119.053 51.8424 119.274C50.6326 119.714 49.0323 119.949 47.6445 119.949V122.449C49.2567 122.449 51.1565 122.184 52.6967 121.624C53.4635 121.345 54.2185 120.965 54.8031 120.446C55.4002 119.915 55.8945 119.163 55.8945 118.199H53.3945ZM47.6445 119.949C46.2567 119.949 44.6565 119.714 43.4467 119.274C42.8385 119.053 42.406 118.808 42.1469 118.577C41.9002 118.358 41.8945 118.235 41.8945 118.199H39.3945C39.3945 119.163 39.8889 119.915 40.486 120.446C41.0706 120.965 41.8256 121.345 42.5924 121.624C44.1326 122.184 46.0323 122.449 47.6445 122.449V119.949ZM41.8945 118.199C41.8945 116.582 42.446 115.149 43.4048 114.131C44.3526 113.124 45.7651 112.449 47.6445 112.449V109.949C45.1239 109.949 43.0365 110.874 41.5843 112.417C40.143 113.949 39.3945 116.016 39.3945 118.199H41.8945ZM47.6445 112.449C49.5239 112.449 50.9365 113.124 51.8843 114.131C52.843 115.149 53.3945 116.582 53.3945 118.199H55.8945C55.8945 116.016 55.146 113.949 53.7048 112.417C52.2526 110.874 50.1651 109.949 47.6445 109.949V112.449ZM50.3945 107.199C50.3945 108.718 49.1633 109.949 47.6445 109.949V112.449C50.544 112.449 52.8945 110.098 52.8945 107.199H50.3945ZM47.6445 109.949C46.1257 109.949 44.8945 108.718 44.8945 107.199H42.3945C42.3945 110.098 44.745 112.449 47.6445 112.449V109.949ZM44.8945 107.199C44.8945 105.68 46.1257 104.449 47.6445 104.449V101.949C44.745 101.949 42.3945 104.3 42.3945 107.199H44.8945ZM47.6445 104.449C49.1633 104.449 50.3945 105.68 50.3945 107.199H52.8945C52.8945 104.3 50.544 101.949 47.6445 101.949V104.449ZM33.6445 99.949H29.6445V102.449H33.6445V99.949ZM33.6445 110.949H29.6445V113.449H33.6445V110.949ZM33.6445 121.949H29.6445V124.449H33.6445V121.949Z" fill="url(#paint0_linear_4_2231)"/>
<path d="M159.645 127.999C160.749 127.999 161.645 127.104 161.645 125.999C161.645 124.894 160.749 123.999 159.645 123.999C158.54 123.999 157.645 124.894 157.645 125.999C157.645 127.104 158.54 127.999 159.645 127.999Z" fill="url(#paint1_linear_4_2231)"/>
<defs>
<linearGradient id="paint0_linear_4_2231" x1="159.645" y1="56.099" x2="159.645" y2="264.199" gradientUnits="userSpaceOnUse">
<stop stop-color="#3CC29A"/>
<stop offset="1" stop-color="#93C437"/>
</linearGradient>
<linearGradient id="paint1_linear_4_2231" x1="159.645" y1="123.999" x2="159.645" y2="127.999" gradientUnits="userSpaceOnUse">
<stop stop-color="#3CC29A"/>
<stop offset="1" stop-color="#93C437"/>
</linearGradient>
</defs>
</svg>
