<svg width="320" height="320" viewBox="0 0 320 320" fill="none" xmlns="http://www.w3.org/2000/svg">
<path d="M163 120.43V115.833M163 120.43L159 119.13M163 120.43L160.528 123.833M163 120.43L165.472 123.833M163 120.43L167 119.13M177 120.43V115.833M177 120.43L173 119.13M177 120.43L174.528 123.833M177 120.43L179.472 123.833M177 120.43L181 119.13M191 120.43V115.833M191 120.43L187 119.13M191 120.43L188.528 123.833M191 120.43L193.472 123.833M191 120.43L195 119.13M205 120.43V115.833M205 120.43L201 119.13M205 120.43L202.528 123.833M205 120.43L207.472 123.833M205 120.43L209 119.13M234 152H242C244.209 152 246 150.209 246 148V92C246 89.7909 244.209 88 242 88H130C127.791 88 126 89.7909 126 92V148C126 150.209 127.791 152 130 152H212C213.105 152 214 152.895 214 154V220M207 176H46C41.5817 176 38 172.418 38 168M234 164H252C253.105 164 254 164.895 254 166V168C254 172.418 250.418 176 246 176H234M254 157V84C254 79.5817 250.418 76 246 76H46C41.5817 76 38 79.5817 38 84V156C38 160.418 41.5817 164 46 164H207M282 244V226.833C282 217.742 276.864 209.432 268.733 205.367L236.211 189.106C234.856 188.428 234 187.043 234 185.528V130C234 124.477 229.523 120 224 120C218.477 120 214 124.477 214 130V145M206 244L168.828 206.828C167.266 205.266 167.266 202.734 168.828 201.172C176.103 193.897 187.897 193.897 195.171 201.172L214 220M214 220C222 228 227 236 222 238C215 241 214 226 214 220ZM102 120C102 131.046 93.0457 140 82 140C70.9543 140 62 131.046 62 120C62 108.954 70.9543 100 82 100C93.0457 100 102 108.954 102 120Z" stroke="black" stroke-width="2.5" stroke-miterlimit="10" stroke-linecap="round" stroke-linejoin="round"/>
</svg>
