<svg width="320" height="320" viewBox="0 0 320 320" fill="none" xmlns="http://www.w3.org/2000/svg">
<path d="M208.25 176C208.25 175.31 207.69 174.75 207 174.75H46C42.2778 174.75 39.25 171.722 39.25 168C39.25 167.31 38.6904 166.75 38 166.75C37.3096 166.75 36.75 167.31 36.75 168C36.75 173.101 40.8994 177.25 46 177.25H207C207.69 177.25 208.25 176.69 208.25 176Z" fill="url(#paint0_linear_4_732)"/>
<path d="M46 165.25H207C207.69 165.25 208.25 164.69 208.25 164C208.25 163.31 207.69 162.75 207 162.75H46C42.2778 162.75 39.25 159.722 39.25 156V84C39.25 80.2778 42.2778 77.25 46 77.25H246C249.722 77.25 252.75 80.2778 252.75 84V157C252.75 157.69 253.31 158.25 254 158.25C254.69 158.25 255.25 157.69 255.25 157V84C255.25 78.8994 251.101 74.75 246 74.75H46C40.8994 74.75 36.75 78.8994 36.75 84V156C36.75 161.101 40.8994 165.25 46 165.25Z" fill="url(#paint1_linear_4_732)"/>
<path d="M60.75 120C60.75 131.717 70.2827 141.25 82 141.25C93.7173 141.25 103.25 131.717 103.25 120C103.25 108.283 93.7173 98.75 82 98.75C70.2827 98.75 60.75 108.283 60.75 120ZM100.75 120C100.75 130.339 92.3389 138.75 82 138.75C71.6611 138.75 63.25 130.339 63.25 120C63.25 109.661 71.6611 101.25 82 101.25C92.3389 101.25 100.75 109.661 100.75 120Z" fill="url(#paint2_linear_4_732)"/>
<path d="M269.292 204.248L236.771 187.987C235.833 187.519 235.25 186.576 235.25 185.528V177.25H246C251.101 177.25 255.25 173.101 255.25 168V166C255.25 164.208 253.792 162.75 252 162.75H235.25V153.25H242C244.895 153.25 247.25 150.895 247.25 148V92C247.25 89.105 244.895 86.75 242 86.75H130C127.105 86.75 124.75 89.105 124.75 92V148C124.75 150.895 127.105 153.25 130 153.25H212C212.413 153.25 212.75 153.586 212.75 154V216.982L196.056 200.288C188.306 192.538 175.694 192.538 167.944 200.288C165.897 202.335 165.897 205.665 167.944 207.712L205.116 244.884C205.36 245.128 205.68 245.25 206 245.25C206.32 245.25 206.64 245.128 206.884 244.884C207.372 244.396 207.372 243.604 206.884 243.116L169.712 205.944C168.64 204.872 168.64 203.128 169.712 202.056C176.487 195.28 187.513 195.28 194.288 202.056L212.753 220.521C212.789 224.673 213.307 235.942 217.771 238.886C218.367 239.279 219.209 239.644 220.273 239.644C220.923 239.644 221.654 239.508 222.464 239.16C223.933 238.573 224.862 237.513 225.153 236.092C226.12 231.385 219.533 223.82 215.25 219.487V154C215.25 152.208 213.792 150.75 212 150.75H130C128.483 150.75 127.25 149.517 127.25 148V92C127.25 90.4834 128.483 89.25 130 89.25H242C243.517 89.25 244.75 90.4834 244.75 92V148C244.75 149.517 243.517 150.75 242 150.75H235.25V130C235.25 123.797 230.203 118.75 224 118.75C217.797 118.75 212.75 123.797 212.75 130V145C212.75 145.69 213.31 146.25 214 146.25C214.69 146.25 215.25 145.69 215.25 145V130C215.25 125.175 219.175 121.25 224 121.25C228.825 121.25 232.75 125.175 232.75 130V185.528C232.75 187.528 233.862 189.328 235.652 190.224L268.175 206.484C275.932 210.362 280.75 218.16 280.75 226.833V244C280.75 244.69 281.31 245.25 282 245.25C282.69 245.25 283.25 244.69 283.25 244V226.833C283.25 217.207 277.901 208.553 269.292 204.248ZM222.705 235.59C222.623 235.986 222.417 236.487 221.508 236.851C220.268 237.383 219.567 237.075 219.147 236.799C216.854 235.286 215.64 229.299 215.33 223.179C221.272 229.583 223.083 233.748 222.705 235.59ZM252 165.25C252.413 165.25 252.75 165.587 252.75 166V168C252.75 171.722 249.722 174.75 246 174.75H235.25V165.25H252Z" fill="url(#paint3_linear_4_732)"/>
<defs>
<linearGradient id="paint0_linear_4_732" x1="160" y1="74.75" x2="160" y2="245.25" gradientUnits="userSpaceOnUse">
<stop stop-color="#FFBE4F"/>
<stop offset="1" stop-color="#F26B1D"/>
</linearGradient>
<linearGradient id="paint1_linear_4_732" x1="160" y1="74.75" x2="160" y2="245.25" gradientUnits="userSpaceOnUse">
<stop stop-color="#FFBE4F"/>
<stop offset="1" stop-color="#F26B1D"/>
</linearGradient>
<linearGradient id="paint2_linear_4_732" x1="160" y1="74.75" x2="160" y2="245.25" gradientUnits="userSpaceOnUse">
<stop stop-color="#FFBE4F"/>
<stop offset="1" stop-color="#F26B1D"/>
</linearGradient>
<linearGradient id="paint3_linear_4_732" x1="160" y1="74.75" x2="160" y2="245.25" gradientUnits="userSpaceOnUse">
<stop stop-color="#FFBE4F"/>
<stop offset="1" stop-color="#F26B1D"/>
</linearGradient>
</defs>
</svg>
