<svg width="320" height="320" viewBox="0 0 320 320" fill="none" xmlns="http://www.w3.org/2000/svg">
<path d="M160.755 72.2354C162.002 72.2354 163.022 71.2153 163.022 69.9684C163.022 68.7215 162.002 67.7014 160.755 67.7014C159.508 67.7014 158.488 68.7102 158.488 69.9684C158.488 71.2266 159.508 72.2354 160.755 72.2354Z" fill="#FFBF50"/>
<path d="M262.047 78.9832C262.737 78.9832 263.297 78.4236 263.297 77.7332C263.297 77.0429 262.737 76.4832 262.047 76.4832V78.9832ZM61.4817 76.4832C60.7913 76.4832 60.2317 77.0429 60.2317 77.7332C60.2317 78.4236 60.7913 78.9832 61.4817 78.9832V76.4832ZM280.625 128.217C279.935 128.217 279.375 128.777 279.375 129.467C279.375 130.157 279.935 130.717 280.625 130.717V128.217ZM270.015 129.467V130.717C270.706 130.717 271.265 130.157 271.265 129.467H270.015ZM208.499 203.46C207.809 203.46 207.249 204.02 207.249 204.71C207.249 205.4 207.809 205.96 208.499 205.96V203.46ZM264.801 204.71H266.051C266.051 204.02 265.491 203.46 264.801 203.46V204.71ZM209.749 212.588C209.749 211.898 209.189 211.338 208.499 211.338C207.809 211.338 207.249 211.898 207.249 212.588H209.749ZM177.883 194.614C178.573 194.614 179.133 194.054 179.133 193.364C179.133 192.673 178.573 192.114 177.883 192.114V194.614ZM48.6389 194.625C49.3292 194.625 49.8889 194.065 49.8889 193.375C49.8889 192.685 49.3292 192.125 48.6389 192.125V194.625ZM208.499 225.151C209.189 225.151 209.749 224.591 209.749 223.901C209.749 223.21 209.189 222.651 208.499 222.651V225.151ZM209.749 223.855C209.749 223.165 209.189 222.605 208.499 222.605C207.809 222.605 207.249 223.165 207.249 223.855H209.749ZM208.499 230.985V232.235C209.189 232.235 209.749 231.675 209.749 230.985H208.499ZM52.7649 229.735C52.0745 229.735 51.5149 230.295 51.5149 230.985C51.5149 231.675 52.0745 232.235 52.7649 232.235V229.735ZM262.047 76.4832H61.4817V78.9832H262.047V76.4832ZM280.625 130.717H288.775V128.217H280.625V130.717ZM288.775 130.717C290.839 130.717 292.512 132.39 292.512 134.455H295.012C295.012 131.01 292.22 128.217 288.775 128.217V130.717ZM292.512 134.455V199.734H295.012V134.455H292.512ZM292.512 199.734C292.512 201.798 290.839 203.471 288.775 203.471V205.971C292.22 205.971 295.012 203.179 295.012 199.734H292.512ZM288.775 203.471H182.87V205.971H288.775V203.471ZM182.87 203.471C180.806 203.471 179.133 201.798 179.133 199.734H176.633C176.633 203.179 179.425 205.971 182.87 205.971V203.471ZM179.133 199.734V134.455H176.633V199.734H179.133ZM179.133 134.455C179.133 132.39 180.806 130.717 182.87 130.717V128.217C179.425 128.217 176.633 131.01 176.633 134.455H179.133ZM182.87 130.717H270.015V128.217H182.87V130.717ZM208.499 205.96H264.801V203.46H208.499V205.96ZM263.551 204.71V248.339H266.051V204.71H263.551ZM263.551 248.339C263.551 252.58 260.121 256.01 255.88 256.01V258.51C261.501 258.51 266.051 253.96 266.051 248.339H263.551ZM255.88 256.01H217.42V258.51H255.88V256.01ZM217.42 256.01C213.179 256.01 209.749 252.58 209.749 248.339H207.249C207.249 253.96 211.799 258.51 217.42 258.51V256.01ZM209.749 248.339V212.588H207.249V248.339H209.749ZM177.883 192.114H59.6454V194.614H177.883V192.114ZM59.6454 192.114C56.8785 192.114 54.6383 189.873 54.6383 187.106H52.1383C52.1383 191.254 55.4978 194.614 59.6454 194.614V192.114ZM54.6383 187.106V70.2067H52.1383V187.106H54.6383ZM54.6383 70.2067C54.6383 66.363 57.7513 63.25 61.595 63.25V60.75C56.3706 60.75 52.1383 64.9822 52.1383 70.2067H54.6383ZM61.595 63.25H261.808V60.75H61.595V63.25ZM261.808 63.25C265.652 63.25 268.765 66.363 268.765 70.2067H271.265C271.265 64.9822 267.033 60.75 261.808 60.75V63.25ZM268.765 70.2067V129.467H271.265V70.2067H268.765ZM35.5127 222.651C31.499 222.651 28.25 219.402 28.25 215.388H25.75C25.75 220.782 30.1183 225.151 35.5127 225.151V222.651ZM28.25 215.388V201.888H25.75V215.388H28.25ZM28.25 201.888C28.25 197.874 31.499 194.625 35.5127 194.625V192.125C30.1183 192.125 25.75 196.493 25.75 201.888H28.25ZM35.5127 194.625H48.6389V192.125H35.5127V194.625ZM137.413 208.632C137.413 212.186 134.532 215.067 130.978 215.067V217.567C135.913 217.567 139.913 213.567 139.913 208.632H137.413ZM130.978 215.067C127.424 215.067 124.542 212.186 124.542 208.632H122.042C122.042 213.567 126.043 217.567 130.978 217.567V215.067ZM124.542 208.632C124.542 205.078 127.424 202.197 130.978 202.197V199.697C126.043 199.697 122.042 203.697 122.042 208.632H124.542ZM130.978 202.197C134.532 202.197 137.413 205.078 137.413 208.632H139.913C139.913 203.697 135.913 199.697 130.978 199.697V202.197ZM207.249 223.855V230.985H209.749V223.855H207.249ZM208.499 229.735H52.7649V232.235H208.499V229.735ZM208.499 222.651H35.5127V225.151H208.499V222.651Z" fill="url(#paint0_linear_4_749)"/>
<defs>
<linearGradient id="paint0_linear_4_749" x1="160.381" y1="62" x2="160.381" y2="257.26" gradientUnits="userSpaceOnUse">
<stop stop-color="#FFBE4F"/>
<stop offset="1" stop-color="#93C437"/>
</linearGradient>
</defs>
</svg>
