<svg width="120" height="120" viewBox="0 0 120 120" fill="none" xmlns="http://www.w3.org/2000/svg">
<path d="M105.458 34.228L106.708 34.229V34.228H105.458ZM106.708 72.0126C106.708 71.3222 106.149 70.7626 105.458 70.7626C104.768 70.7626 104.208 71.3222 104.208 72.0126H106.708ZM31.3718 34.228L32.6218 34.2289V34.228H31.3718ZM64.0299 85.2603C64.7202 85.2603 65.2799 84.7007 65.2799 84.0103C65.2799 83.32 64.7202 82.7603 64.0299 82.7603V85.2603ZM46.0585 82.7603C45.3681 82.7603 44.8085 83.32 44.8085 84.0103C44.8085 84.7007 45.3681 85.2603 46.0585 85.2603V82.7603ZM96.4584 84.0103L96.4582 85.2603H96.4584V84.0103ZM69.3635 86.006H68.1135H69.3635ZM71.3635 84.006L71.3637 82.756H71.3635V84.006ZM55.2336 96.4928C54.5433 96.4928 53.9836 97.0525 53.9836 97.7428C53.9836 98.4332 54.5433 98.9928 55.2336 98.9928V96.4928ZM83.4563 98.9928C84.1466 98.9928 84.7063 98.4332 84.7063 97.7428C84.7063 97.0525 84.1466 96.4928 83.4563 96.4928V98.9928ZM68.1135 97.7428C68.1135 98.4332 68.6731 98.9928 69.3635 98.9928C70.0538 98.9928 70.6135 98.4332 70.6135 97.7428H68.1135ZM26.354 43.7057C27.0444 43.7057 27.604 43.146 27.604 42.4557C27.604 41.7653 27.0444 41.2057 26.354 41.2057V43.7057ZM40.4952 42.4557V41.2057L40.4914 41.2057L40.4952 42.4557ZM33.3674 42.477V43.7271L33.3712 43.727L33.3674 42.477ZM31.3674 40.477L30.1174 40.4762V40.477H31.3674ZM89.8179 63.9396C90.3061 64.4278 91.0975 64.4278 91.5857 63.9396C92.0738 63.4515 92.0738 62.66 91.5857 62.1718L89.8179 63.9396ZM81.983 54.337L81.0993 53.4529C80.8648 53.6873 80.7331 54.0053 80.733 54.3369C80.733 54.6684 80.8647 54.9864 81.0992 55.2209L81.983 54.337ZM91.5855 46.5054C92.0738 46.0173 92.0739 45.2259 91.5858 44.7376C91.0978 44.2494 90.3063 44.2492 89.8181 44.7373L91.5855 46.5054ZM105.446 49.2118L104.196 49.2108V49.2118H105.446ZM100.321 54.3368V53.0868H100.321L100.321 54.3368ZM27.3139 89.3857C27.3139 91.0798 25.9406 92.4532 24.2465 92.4532V94.9532C27.3213 94.9532 29.8139 92.4605 29.8139 89.3857H27.3139ZM24.2465 92.4532C22.5523 92.4532 21.179 91.0798 21.179 89.3857H18.679C18.679 92.4605 21.1716 94.9532 24.2465 94.9532V92.4532ZM21.179 89.3857C21.179 87.6915 22.5523 86.3182 24.2465 86.3182V83.8182C21.1716 83.8182 18.679 86.3108 18.679 89.3857H21.179ZM24.2465 86.3182C25.9406 86.3182 27.3139 87.6915 27.3139 89.3857H29.8139C29.8139 86.3108 27.3213 83.8182 24.2465 83.8182V86.3182ZM40.3718 26.478H96.4584V23.978H40.3718V26.478ZM104.208 72.0126V75.0103H106.708V72.0126H104.208ZM64.0299 82.7603H46.0585V85.2603H64.0299V82.7603ZM104.208 75.0103C104.208 79.2905 100.739 82.7603 96.4584 82.7603V85.2603C102.119 85.2603 106.708 80.6712 106.708 75.0103H104.208ZM96.4584 26.478C100.739 26.478 104.208 29.9478 104.208 34.228H106.708C106.708 28.5671 102.119 23.978 96.4584 23.978V26.478ZM40.3718 23.978C34.7109 23.978 30.1218 28.5671 30.1218 34.228H32.6218C32.6218 29.9478 36.0916 26.478 40.3718 26.478V23.978ZM70.6135 86.006C70.6135 85.5964 70.9538 85.256 71.3635 85.256V82.756C69.5731 82.756 68.1135 84.2157 68.1135 86.006H70.6135ZM55.2336 98.9928H83.4563V96.4928H55.2336V98.9928ZM44.2452 47.4557V94.0571H46.7452V47.4557H44.2452ZM40.4952 97.8071H19.5417V100.307H40.4952V97.8071ZM15.7917 94.0571V47.4557H13.2917V94.0571H15.7917ZM19.5417 43.7057H26.354V41.2057H19.5417V43.7057ZM19.5417 97.8071C17.4707 97.8071 15.7917 96.1282 15.7917 94.0571H13.2917C13.2917 97.5089 16.09 100.307 19.5417 100.307V97.8071ZM44.2452 94.0571C44.2452 96.1282 42.5662 97.8071 40.4952 97.8071V100.307C43.947 100.307 46.7452 97.5089 46.7452 94.0571H44.2452ZM46.7452 47.4557C46.7452 44.0039 43.947 41.2057 40.4952 41.2057V43.7057C42.5662 43.7057 44.2452 45.3846 44.2452 47.4557H46.7452ZM15.7917 47.4557C15.7917 45.3846 17.4707 43.7057 19.5417 43.7057V41.2057C16.09 41.2057 13.2917 44.0039 13.2917 47.4557H15.7917ZM33.3674 41.227C32.9578 41.227 32.6174 40.8867 32.6174 40.477H30.1174C30.1174 42.2674 31.5771 43.727 33.3674 43.727V41.227ZM68.1135 86.006V97.7428H70.6135V86.006H68.1135ZM32.6174 40.4779L32.6218 34.2289L30.1218 34.2271L30.1174 40.4762L32.6174 40.4779ZM40.4914 41.2057L33.3637 41.2271L33.3712 43.727L40.4989 43.7057L40.4914 41.2057ZM91.5857 62.1718L82.8669 53.4531L81.0992 55.2209L89.8179 63.9396L91.5857 62.1718ZM82.8668 55.221L91.5855 46.5054L89.8181 44.7373L81.0993 53.4529L82.8668 55.221ZM104.196 49.2118C104.196 51.3527 102.462 53.0868 100.321 53.0868V55.5868C103.843 55.5868 106.696 52.7334 106.696 49.2118H104.196ZM100.321 53.0868L81.983 53.087L81.983 55.587L100.321 55.5868L100.321 53.0868ZM71.3633 85.256L96.4582 85.2603L96.4586 82.7603L71.3637 82.756L71.3633 85.256ZM104.208 34.227L104.196 49.2108L106.696 49.2128L106.708 34.229L104.208 34.227Z" fill="white"/>
</svg>
