<svg width="120" height="120" viewBox="0 0 120 120" fill="none" xmlns="http://www.w3.org/2000/svg">
<path d="M22.7085 56.1V53.2M22.7085 56.1L20.1085 55.3M22.7085 56.1L21.1085 58.2M22.7085 56.1L24.2085 58.2M22.7085 56.1L25.1085 55.3M31.7085 56.1V53.2M31.7085 56.1L29.1085 55.3M31.7085 56.1L30.1085 58.2M31.7085 56.1L33.2085 58.2M31.7085 56.1L34.1085 55.3M40.7085 56.1V53.2M40.7085 56.1L38.1085 55.3M40.7085 56.1L39.1085 58.2M40.7085 56.1L42.2085 58.2M40.7085 56.1L43.1085 55.3M55.1085 56.1V53.2M55.1085 56.1L52.7085 55.3M55.1085 56.1L53.6085 58.2M55.1085 56.1L56.7085 58.2M55.1085 56.1L57.7085 55.3M64.1085 56.1V53.2M64.1085 56.1L61.7085 55.3M64.1085 56.1L62.6085 58.2M64.1085 56.1L65.7085 58.2M64.1085 56.1L66.7085 55.3M73.1085 56.1V53.2M73.1085 56.1L70.7085 55.3M73.1085 56.1L71.6085 58.2M73.1085 56.1L74.7085 58.2M73.1085 56.1L75.7085 55.3M87.7085 56.1V53.2M87.7085 56.1L85.1085 55.3M87.7085 56.1L86.1085 58.2M87.7085 56.1L89.2085 58.2M87.7085 56.1L90.1085 55.3M96.7085 56.1V53.2M96.7085 56.1L94.1085 55.3M96.7085 56.1L95.1085 58.2M96.7085 56.1L98.2085 58.2M96.7085 56.1L99.1085 55.3M105.708 56.1V53.2M105.708 56.1L103.108 55.3M105.708 56.1L104.108 58.2M105.708 56.1L107.208 58.2M105.708 56.1L108.108 55.3M99.1085 67.2H112.108C114.308 67.2 116.108 65.4 116.108 63.2V48.2C116.108 46 114.308 44.2 112.108 44.2H16.1085C13.9085 44.2 12.1085 46 12.1085 48.2V63.2C12.1085 65.4 13.9085 67.2 16.1085 67.2H90.1085C91.2085 67.2 92.1085 68.1 92.1085 69.2V84.2C92.1085 88.6 88.5085 92.2 84.1085 92.2H12.1085C7.70846 92.2 4.10846 88.6 4.10846 84.2V36.2C4.10846 31.8 7.70846 28.2 12.1085 28.2H84.1085C88.5085 28.2 92.1085 31.8 92.1085 36.2V37.2" stroke="url(#paint0_linear_4_1464)" stroke-width="2.5" stroke-miterlimit="10" stroke-linecap="round" stroke-linejoin="round"/>
<defs>
<linearGradient id="paint0_linear_4_1464" x1="60.1085" y1="28.2" x2="60.1085" y2="92.2" gradientUnits="userSpaceOnUse">
<stop stop-color="#279BE8"/>
<stop offset="1" stop-color="#875AE0"/>
</linearGradient>
</defs>
</svg>
