<svg width="120" height="120" viewBox="0 0 120 120" fill="none" xmlns="http://www.w3.org/2000/svg">
<path d="M94.4449 35.3427V34.2281C94.4449 29.2575 90.4154 25.2281 85.4448 25.2281H29.3583C24.3877 25.2281 20.3583 29.2575 20.3583 34.2281L20.3539 40.4771C20.3539 41.5771 21.2539 42.4771 22.3539 42.4771L29.4816 42.4557C32.243 42.4557 34.4816 44.6943 34.4816 47.4557V94.0572C34.4816 96.8186 32.243 99.0572 29.4816 99.0572H8.5282C5.76677 99.0572 3.5282 96.8186 3.5282 94.0572V47.4557C3.5282 44.6943 5.76677 42.4557 8.5282 42.4557H15.3404M94.4449 72.0126V75.0104C94.4449 79.9809 90.4154 84.0104 85.4449 84.0104L63.1146 84.0061H60.3499C59.2499 84.0061 58.3499 84.9061 58.3499 86.0061L58.3314 97.4767M53.0163 84.0104H35.0449M73.5658 60.0688C72.3658 61.4688 71.5658 63.3688 71.5658 65.3688C71.5658 69.3688 74.5658 72.6688 78.4658 73.2688C79.0658 73.3688 79.5658 72.8688 79.5658 72.2688V57.3688C79.5658 48.2688 85.1115 41.3688 94.2358 41.3688C103.317 41.3688 108.865 48.2688 108.865 57.3688V72.2688C108.865 72.8688 109.365 73.3688 109.965 73.2688C113.865 72.6688 116.865 69.3688 116.865 65.3688C116.865 63.3688 116.065 61.4688 114.865 60.0688M44.2201 97.7429H72.4427M17.5504 89.3857C17.5504 91.7702 15.6174 93.7032 13.2329 93.7032C10.8484 93.7032 8.91541 91.7702 8.91541 89.3857C8.91541 87.0012 10.8484 85.0682 13.2329 85.0682C15.6174 85.0682 17.5504 87.0012 17.5504 89.3857Z" stroke="url(#paint0_linear_4_1250)" stroke-width="2.5" stroke-linecap="round" stroke-linejoin="round"/>
<defs>
<linearGradient id="paint0_linear_4_1250" x1="60.1968" y1="25.2281" x2="60.1968" y2="99.0572" gradientUnits="userSpaceOnUse">
<stop stop-color="#3CC29A"/>
<stop offset="1" stop-color="#93C437"/>
</linearGradient>
</defs>
</svg>
