<svg width="120" height="120" viewBox="0 0 120 120" fill="none" xmlns="http://www.w3.org/2000/svg">
<path d="M102.616 44.45C102.616 45.1404 103.176 45.7 103.866 45.7C104.556 45.7 105.116 45.1404 105.116 44.45H102.616ZM12.866 60.7C13.5563 60.7 14.116 60.1404 14.116 59.45C14.116 58.7596 13.5563 58.2 12.866 58.2V60.7ZM12.466 106.35L11.3434 105.8C11.3341 105.819 11.3253 105.838 11.317 105.858L12.466 106.35ZM14.866 101.45V100.2C14.3888 100.2 13.9533 100.472 13.7434 100.9L14.866 101.45ZM52.866 101.45L53.9885 100.9C53.7787 100.472 53.3431 100.2 52.866 100.2V101.45ZM55.266 106.35L56.4149 105.858C56.4066 105.838 56.3978 105.819 56.3885 105.8L55.266 106.35ZM93.116 74.45C93.116 73.7596 92.5563 73.2 91.866 73.2C91.1756 73.2 90.616 73.7596 90.616 74.45H93.116ZM83.866 84.7C84.5563 84.7 85.116 84.1404 85.116 83.45C85.116 82.7596 84.5563 82.2 83.866 82.2V84.7ZM3.96597 94.2C3.27561 94.2 2.71597 94.7596 2.71597 95.45C2.71597 96.1404 3.27561 96.7 3.96597 96.7V94.2ZM63.866 96.7C64.5563 96.7 65.116 96.1404 65.116 95.45C65.116 94.7596 64.5563 94.2 63.866 94.2V96.7ZM29.866 58.2H21.866V60.7H29.866V58.2ZM21.866 58.2C21.4563 58.2 21.116 57.8596 21.116 57.45H18.616C18.616 59.2404 20.0756 60.7 21.866 60.7V58.2ZM21.116 57.45V19.45H18.616V57.45H21.116ZM21.116 19.45C21.116 15.7404 24.1563 12.7 27.866 12.7V10.2C22.7756 10.2 18.616 14.3596 18.616 19.45H21.116ZM27.866 12.7H95.866V10.2H27.866V12.7ZM95.866 12.7C99.5756 12.7 102.616 15.7404 102.616 19.45H105.116C105.116 14.3596 100.956 10.2 95.866 10.2V12.7ZM102.616 19.45V44.45H105.116V19.45H102.616ZM12.866 58.2H7.86597V60.7H12.866V58.2ZM7.86597 58.2C4.97561 58.2 2.61597 60.5596 2.61597 63.45H5.11597C5.11597 61.9404 6.35632 60.7 7.86597 60.7V58.2ZM2.61597 63.45V105.45H5.11597V63.45H2.61597ZM2.61597 105.45C2.61597 107.24 4.07561 108.7 5.86597 108.7V106.2C5.45632 106.2 5.11597 105.86 5.11597 105.45H2.61597ZM5.86597 108.7H10.666V106.2H5.86597V108.7ZM10.666 108.7C11.8784 108.7 13.0856 108.078 13.6149 106.842L11.317 105.858C11.2464 106.022 11.0536 106.2 10.666 106.2V108.7ZM13.5885 106.9L15.9885 102L13.7434 100.9L11.3434 105.8L13.5885 106.9ZM14.866 102.7H52.866V100.2H14.866V102.7ZM51.7434 102L54.1434 106.9L56.3885 105.8L53.9885 100.9L51.7434 102ZM54.117 106.842C54.6464 108.078 55.8536 108.7 57.066 108.7V106.2C56.6784 106.2 56.4856 106.022 56.4149 105.858L54.117 106.842ZM57.066 108.7H61.866V106.2H57.066V108.7ZM61.866 108.7C63.6563 108.7 65.116 107.24 65.116 105.45H62.616C62.616 105.86 62.2756 106.2 61.866 106.2V108.7ZM65.116 105.45V63.45H62.616V105.45H65.116ZM65.116 63.45C65.116 60.5596 62.7563 58.2 59.866 58.2V60.7C61.3756 60.7 62.616 61.9404 62.616 63.45H65.116ZM59.866 58.2H37.866V60.7H59.866V58.2ZM90.616 74.45V87.45H93.116V74.45H90.616ZM90.616 87.45C90.616 90.3404 92.9756 92.7 95.866 92.7V90.2C94.3563 90.2 93.116 88.9596 93.116 87.45H90.616ZM95.866 92.7H111.866V90.2H95.866V92.7ZM111.866 92.7C114.756 92.7 117.116 90.3404 117.116 87.45H114.616C114.616 88.9596 113.376 90.2 111.866 90.2V92.7ZM117.116 87.45V55.45H114.616V87.45H117.116ZM117.116 55.45C117.116 52.5596 114.756 50.2 111.866 50.2V52.7C113.376 52.7 114.616 53.9404 114.616 55.45H117.116ZM111.866 50.2H95.866V52.7H111.866V50.2ZM95.866 50.2C92.9756 50.2 90.616 52.5596 90.616 55.45H93.116C93.116 53.9404 94.3563 52.7 95.866 52.7V50.2ZM90.616 55.45V65.45H93.116V55.45H90.616ZM90.616 65.45C90.616 65.8596 90.2756 66.2 89.866 66.2V68.7C91.6563 68.7 93.116 67.2404 93.116 65.45H90.616ZM89.866 66.2H73.866V68.7H89.866V66.2ZM73.866 66.2C72.0756 66.2 70.616 67.6596 70.616 69.45H73.116C73.116 69.0404 73.4563 68.7 73.866 68.7V66.2ZM70.616 69.45V81.45H73.116V69.45H70.616ZM70.616 81.45C70.616 83.2404 72.0756 84.7 73.866 84.7V82.2C73.4563 82.2 73.116 81.8596 73.116 81.45H70.616ZM73.866 84.7H83.866V82.2H73.866V84.7ZM36.616 59.45C36.616 60.9688 35.3848 62.2 33.866 62.2V64.7C36.7655 64.7 39.116 62.3495 39.116 59.45H36.616ZM33.866 62.2C32.3472 62.2 31.116 60.9688 31.116 59.45H28.616C28.616 62.3495 30.9665 64.7 33.866 64.7V62.2ZM31.116 59.45C31.116 57.9312 32.3472 56.7 33.866 56.7V54.2C30.9665 54.2 28.616 56.5505 28.616 59.45H31.116ZM33.866 56.7C35.3848 56.7 36.616 57.9312 36.616 59.45H39.116C39.116 56.5505 36.7655 54.2 33.866 54.2V56.7ZM3.96597 96.7H63.866V94.2H3.96597V96.7Z" fill="url(#paint0_linear_4_1212)"/>
<defs>
<linearGradient id="paint0_linear_4_1212" x1="59.866" y1="11.45" x2="59.866" y2="107.45" gradientUnits="userSpaceOnUse">
<stop stop-color="#3CC29A"/>
<stop offset="1" stop-color="#93C437"/>
</linearGradient>
</defs>
</svg>
