<svg width="120" height="120" viewBox="0 0 120 120" fill="none" xmlns="http://www.w3.org/2000/svg">
<path d="M99.1084 67.2H112.108C114.308 67.2 116.108 65.4 116.108 63.2V48.2C116.108 46 114.308 44.2 112.108 44.2H74.1084C71.9084 44.2 70.1084 46 70.1084 48.2V63.2C70.1084 65.4 71.9084 67.2 74.1084 67.2H90.1084C91.2084 67.2 92.1084 68.1 92.1084 69.2V84.2C92.1084 88.6 88.5084 92.1999 84.1084 92.1999H12.1084C7.7084 92.1999 4.1084 88.6 4.1084 84.2V36.2C4.1084 31.8 7.7084 28.2 12.1084 28.2H84.1084C88.5084 28.2 92.1084 31.8 92.1084 36.2V37.2M79.7084 56.1V53.2M79.7084 56.1L77.1084 55.2999M79.7084 56.1L78.1084 58.2M79.7084 56.1L81.2084 58.2M79.7084 56.1L82.1084 55.2999M88.7084 56.1V53.2M88.7084 56.1L86.1084 55.2999M88.7084 56.1L87.1084 58.2M88.7084 56.1L90.2084 58.2M88.7084 56.1L91.1084 55.2999M97.7084 56.1V53.2M97.7084 56.1L95.1084 55.2999M97.7084 56.1L96.1084 58.2M97.7084 56.1L99.2084 58.2M97.7084 56.1L100.108 55.2999M106.708 56.1V53.2M106.708 56.1L104.108 55.2999M106.708 56.1L105.108 58.2M106.708 56.1L108.208 58.2M106.708 56.1L109.108 55.2999" stroke="url(#paint0_linear_3240_882)" stroke-width="2" stroke-miterlimit="10" stroke-linecap="round" stroke-linejoin="round"/>
<defs>
<linearGradient id="paint0_linear_3240_882" x1="60.1084" y1="28.2" x2="60.1084" y2="92.1999" gradientUnits="userSpaceOnUse">
<stop stop-color="#F55868"/>
<stop offset="1" stop-color="#875AE0"/>
</linearGradient>
</defs>
</svg>
