<svg width="320" height="320" viewBox="0 0 320 320" fill="none" xmlns="http://www.w3.org/2000/svg">
<path d="M292 50.8H144C140.499 50.8 137.142 52.1908 134.666 54.6662C132.191 57.1417 130.8 60.4992 130.8 64V66.8001C122.204 67.1109 114.065 70.7456 108.096 76.9384C102.127 83.1312 98.7943 91.3989 98.7999 100C98.7619 104.51 99.6572 108.98 101.43 113.127C103.202 117.275 105.814 121.011 109.1 124.1C115.268 129.995 123.468 133.29 132 133.3H133.8C141.819 132.92 149.428 129.639 155.207 124.066C160.987 118.494 164.545 111.011 165.218 103.011C165.891 95.0107 163.633 87.0386 158.865 80.5793C154.097 74.12 147.143 69.6139 139.3 67.9001C138.982 67.8205 138.645 67.8706 138.364 68.0394C138.082 68.2082 137.879 68.4818 137.8 68.8001C137.72 69.1183 137.77 69.4551 137.939 69.7364C138.108 70.0178 138.382 70.2205 138.7 70.3001C143.331 71.3214 147.662 73.4016 151.354 76.3776C155.046 79.3536 157.998 83.1444 159.98 87.4528C161.961 91.7611 162.917 96.4699 162.774 101.21C162.63 105.95 161.39 110.592 159.152 114.772C156.913 118.953 153.736 122.558 149.871 125.305C146.005 128.052 141.556 129.866 136.872 130.605C132.187 131.343 127.396 130.987 122.872 129.564C118.349 128.14 114.217 125.688 110.8 122.4C106.311 118.163 103.198 112.676 101.865 106.648C100.533 100.621 101.042 94.3325 103.327 88.5983C105.613 82.864 109.568 77.9487 114.681 74.4897C119.793 71.0308 125.827 69.1879 132 69.2C132.318 69.2 132.623 69.0736 132.848 68.8486C133.073 68.6235 133.2 68.3183 133.2 68V64C133.226 61.1438 134.372 58.4119 136.392 56.3921C138.412 54.3724 141.144 53.2261 144 53.2001H292C294.856 53.2261 297.588 54.3724 299.608 56.3921C301.628 58.4119 302.774 61.1438 302.8 64V154.8H133.2V139C133.2 138.682 133.073 138.377 132.848 138.152C132.623 137.926 132.318 137.8 132 137.8C131.682 137.8 131.376 137.926 131.151 138.152C130.926 138.377 130.8 138.682 130.8 139V162C130.8 162.849 131.137 163.663 131.737 164.263C132.337 164.863 133.151 165.2 134 165.2H188C190.856 165.226 193.588 166.372 195.608 168.392C197.628 170.412 198.774 173.144 198.8 176V254C198.778 254.205 198.687 254.396 198.541 254.541C198.396 254.687 198.205 254.778 198 254.8H41.9999C41.1512 254.8 40.3373 255.137 39.7372 255.737C39.1371 256.337 38.7999 257.151 38.7999 258C38.7999 260.97 39.9799 263.819 42.0803 265.92C44.1807 268.02 47.0295 269.2 49.9999 269.2H206C208.97 269.2 211.819 268.02 213.92 265.92C216.02 263.819 217.2 260.97 217.2 258C217.2 257.151 216.863 256.337 216.263 255.737C215.663 255.137 214.849 254.8 214 254.8H207.1C206.782 254.8 206.476 254.926 206.251 255.152C206.026 255.377 205.9 255.682 205.9 256C205.9 256.318 206.026 256.624 206.251 256.849C206.476 257.074 206.782 257.2 207.1 257.2H214C214.205 257.222 214.396 257.313 214.541 257.459C214.687 257.604 214.778 257.795 214.8 258C214.774 260.326 213.838 262.549 212.194 264.194C210.549 265.839 208.326 266.774 206 266.8H49.9999C47.6741 266.774 45.4508 265.839 43.8061 264.194C42.1614 262.549 41.2259 260.326 41.1999 258C41.2217 257.795 41.3129 257.604 41.4585 257.459C41.6041 257.313 41.7952 257.222 41.9999 257.2H198C198.849 257.2 199.663 256.863 200.263 256.263C200.863 255.663 201.2 254.849 201.2 254V176C201.2 172.499 199.809 169.142 197.334 166.666C194.858 164.191 191.501 162.8 188 162.8H134C133.795 162.778 133.604 162.687 133.458 162.541C133.313 162.396 133.222 162.205 133.2 162V157.2H302.8V176C302.774 178.856 301.628 181.588 299.608 183.608C297.588 185.628 294.856 186.774 292 186.8H207C206.682 186.8 206.376 186.926 206.151 187.152C205.926 187.377 205.8 187.682 205.8 188C205.8 188.318 205.926 188.624 206.151 188.849C206.376 189.074 206.682 189.2 207 189.2H292C293.733 189.2 295.45 188.859 297.051 188.195C298.653 187.532 300.108 186.56 301.334 185.334C302.559 184.108 303.532 182.653 304.195 181.051C304.859 179.45 305.2 177.733 305.2 176V64C305.2 60.4992 303.809 57.1417 301.334 54.6662C298.858 52.1908 295.501 50.8 292 50.8Z" fill="url(#paint0_linear_4_787)"/>
<path d="M70.7999 166V216C70.7873 218.385 69.9859 220.698 68.5207 222.579C67.0554 224.46 65.0088 225.804 62.6999 226.4C62.5398 226.435 62.3884 226.502 62.2552 226.598C62.122 226.693 62.0098 226.815 61.9254 226.955C61.8411 227.096 61.7865 227.252 61.7649 227.415C61.7433 227.577 61.7552 227.742 61.7999 227.9C61.8476 228.183 61.9949 228.439 62.2149 228.622C62.435 228.805 62.7135 228.904 62.9999 228.9H63.2999C66.1533 228.163 68.678 226.493 70.4721 224.155C72.2663 221.818 73.2265 218.947 73.1999 216V166C73.2217 165.795 73.3129 165.604 73.4585 165.459C73.6041 165.313 73.7952 165.222 73.9999 165.2H125C125.318 165.2 125.623 165.074 125.848 164.849C126.073 164.624 126.2 164.318 126.2 164C126.2 163.682 126.073 163.377 125.848 163.152C125.623 162.926 125.318 162.8 125 162.8H73.9999C73.1512 162.8 72.3373 163.137 71.7372 163.737C71.1371 164.337 70.7999 165.151 70.7999 166Z" fill="url(#paint1_linear_4_787)"/>
<path d="M54.7999 230V249C54.7999 249.318 54.9264 249.624 55.1514 249.849C55.3764 250.074 55.6817 250.2 55.9999 250.2C56.3182 250.2 56.6234 250.074 56.8485 249.849C57.0735 249.624 57.1999 249.318 57.1999 249V230C57.1999 229.58 57.1172 229.164 56.9563 228.775C56.7955 228.387 56.5598 228.034 56.2627 227.737C55.9655 227.44 55.6128 227.204 55.2245 227.044C54.8363 226.883 54.4202 226.8 53.9999 226.8H27.9999C25.1437 226.774 22.4118 225.628 20.392 223.608C18.3722 221.588 17.226 218.856 17.1999 216V144C17.226 141.144 18.3722 138.412 20.392 136.392C22.4118 134.372 25.1437 133.226 27.9999 133.2H59.9999C62.8562 133.226 65.5881 134.372 67.6078 136.392C69.6276 138.412 70.7738 141.144 70.7999 144V157C70.7999 157.318 70.9264 157.624 71.1514 157.849C71.3764 158.074 71.6817 158.2 71.9999 158.2C72.3182 158.2 72.6234 158.074 72.8485 157.849C73.0735 157.624 73.1999 157.318 73.1999 157V144C73.1999 140.499 71.8092 137.142 69.3337 134.666C66.8583 132.191 63.5008 130.8 59.9999 130.8H27.9999C24.4991 130.8 21.1416 132.191 18.6661 134.666C16.1906 137.142 14.7999 140.499 14.7999 144V216C14.7999 219.501 16.1906 222.858 18.6661 225.334C21.1416 227.809 24.4991 229.2 27.9999 229.2H53.9999C54.2047 229.222 54.3958 229.313 54.5413 229.459C54.6869 229.604 54.7782 229.795 54.7999 230Z" fill="url(#paint2_linear_4_787)"/>
<path d="M122.679 98.0824C125.56 96.1539 128.969 95.1664 132.435 95.256C135.902 95.3455 139.255 96.5077 142.033 98.5824C142.687 99.0708 143.467 99.361 144.28 99.4185C145.094 99.476 145.907 99.2983 146.622 98.9066C147.338 98.515 147.926 97.9258 148.316 97.2094C148.706 96.493 148.882 95.6796 148.822 94.8661C148.781 94.2675 148.612 93.6847 148.327 93.1571C148.041 92.6294 147.646 92.1692 147.167 91.8075C142.304 88.1571 136.287 86.3839 130.221 86.8135C124.156 87.243 118.449 89.8466 114.148 94.1459C113.915 94.3804 113.784 94.6981 113.784 95.0292C113.784 95.3603 113.916 95.6777 114.15 95.9118C114.384 96.1459 114.702 96.2776 115.033 96.2779C115.364 96.2782 115.682 96.1471 115.916 95.9135C119.79 92.0402 124.932 89.6946 130.396 89.3073C135.861 88.92 141.281 90.517 145.663 93.8051C145.857 93.9504 146.017 94.1362 146.132 94.3496C146.247 94.5631 146.314 94.799 146.328 95.0409C146.346 95.2946 146.31 95.5492 146.221 95.7875C146.132 96.0258 145.993 96.2423 145.813 96.4222C145.518 96.7211 145.123 96.9021 144.703 96.9315C144.284 96.961 143.868 96.8369 143.533 96.5824C140.34 94.1966 136.485 92.86 132.501 92.7568C128.516 92.6536 124.598 93.7889 121.285 96.0062C120.777 96.3455 120.35 96.7923 120.034 97.3151C119.717 97.8379 119.52 98.4238 119.455 99.0313C119.391 99.6388 119.461 100.253 119.66 100.831C119.859 101.408 120.183 101.935 120.608 102.373C120.624 102.39 120.639 102.406 120.654 102.421C121.359 103.12 122.28 103.56 123.267 103.669C124.254 103.777 125.249 103.549 126.089 103.02C127.651 101.994 129.453 101.391 131.318 101.272C133.183 101.153 135.047 101.521 136.727 102.34C136.961 102.456 137.165 102.627 137.319 102.838C137.474 103.049 137.576 103.294 137.615 103.553C137.663 103.835 137.642 104.124 137.555 104.396C137.469 104.668 137.319 104.916 137.117 105.119C136.867 105.373 136.545 105.543 136.194 105.607C135.843 105.67 135.481 105.623 135.158 105.472C134.174 104.998 133.096 104.751 132.003 104.75C131.051 104.748 130.107 104.934 129.227 105.299C128.347 105.663 127.548 106.199 126.877 106.874C126.761 106.99 126.668 107.128 126.605 107.28C126.542 107.432 126.509 107.594 126.509 107.759C126.509 107.923 126.541 108.086 126.604 108.238C126.667 108.389 126.759 108.527 126.875 108.644C126.992 108.76 127.129 108.852 127.281 108.915C127.433 108.978 127.596 109.01 127.76 109.01C127.925 109.01 128.087 108.977 128.239 108.914C128.391 108.851 128.529 108.758 128.645 108.642C129.084 108.199 129.608 107.848 130.184 107.61C130.761 107.371 131.379 107.249 132.003 107.25C132.719 107.251 133.426 107.412 134.071 107.723C134.862 108.099 135.749 108.221 136.611 108.071C137.474 107.921 138.268 107.507 138.885 106.886C139.367 106.402 139.728 105.81 139.936 105.159C140.144 104.508 140.194 103.816 140.081 103.142C139.979 102.49 139.72 101.872 139.327 101.341C138.934 100.81 138.418 100.383 137.824 100.094C135.754 99.084 133.456 98.6303 131.156 98.7775C128.857 98.9248 126.636 99.668 124.711 100.934C124.357 101.141 123.946 101.228 123.538 101.182C123.13 101.137 122.749 100.96 122.449 100.68L122.415 100.645C122.242 100.472 122.11 100.264 122.028 100.034C121.945 99.804 121.915 99.5588 121.939 99.3158C121.963 99.0683 122.042 98.8291 122.17 98.6158C122.298 98.4025 122.472 98.2203 122.679 98.0824Z" fill="url(#paint3_linear_4_787)"/>
<path d="M132.003 115C133.107 115 134.003 114.105 134.003 113C134.003 111.896 133.107 111 132.003 111C130.898 111 130.003 111.896 130.003 113C130.003 114.105 130.898 115 132.003 115Z" fill="url(#paint4_linear_4_787)"/>
<defs>
<linearGradient id="paint0_linear_4_787" x1="160" y1="50.8" x2="160" y2="269.2" gradientUnits="userSpaceOnUse">
<stop stop-color="#3CC29A"/>
<stop offset="1" stop-color="#93C437"/>
</linearGradient>
<linearGradient id="paint1_linear_4_787" x1="160" y1="50.8" x2="160" y2="269.2" gradientUnits="userSpaceOnUse">
<stop stop-color="#3CC29A"/>
<stop offset="1" stop-color="#93C437"/>
</linearGradient>
<linearGradient id="paint2_linear_4_787" x1="160" y1="50.8" x2="160" y2="269.2" gradientUnits="userSpaceOnUse">
<stop stop-color="#3CC29A"/>
<stop offset="1" stop-color="#93C437"/>
</linearGradient>
<linearGradient id="paint3_linear_4_787" x1="160" y1="50.8" x2="160" y2="269.2" gradientUnits="userSpaceOnUse">
<stop stop-color="#3CC29A"/>
<stop offset="1" stop-color="#93C437"/>
</linearGradient>
<linearGradient id="paint4_linear_4_787" x1="160" y1="50.8" x2="160" y2="269.2" gradientUnits="userSpaceOnUse">
<stop stop-color="#3CC29A"/>
<stop offset="1" stop-color="#93C437"/>
</linearGradient>
</defs>
</svg>
