<svg width="120" height="120" viewBox="0 0 120 120" fill="none" xmlns="http://www.w3.org/2000/svg">
<path d="M105.458 72.0126V75.0104C105.458 79.9809 101.429 84.0104 96.4584 84.0104L71.3635 84.0061C70.2635 84.0061 69.3635 84.9061 69.3635 86.0061V97.7429M64.0299 84.0104H46.0585M55.2336 97.7429H83.4563M26.354 42.4557H19.5417C16.7803 42.4557 14.5417 44.6943 14.5417 47.4557V94.0572C14.5417 96.8186 16.7803 99.0572 19.5417 99.0572H40.4952C43.2566 99.0572 45.4952 96.8186 45.4952 94.0572V47.4557C45.4952 44.6943 43.2566 42.4557 40.4952 42.4557L33.3674 42.4771C32.2674 42.4771 31.3674 41.5771 31.3674 40.4771L31.3718 34.2281C31.3718 29.2575 35.4013 25.2281 40.3718 25.2281H96.4584C101.429 25.2281 105.458 29.2575 105.458 34.2281L105.446 49.2119C105.446 52.0431 103.152 54.3369 100.321 54.3369L81.983 54.337M90.7018 63.0558L81.983 54.337M81.983 54.337L90.7018 45.6214M28.5639 89.3857C28.5639 91.7702 26.6309 93.7032 24.2465 93.7032C21.862 93.7032 19.929 91.7702 19.929 89.3857C19.929 87.0012 21.862 85.0682 24.2465 85.0682C26.6309 85.0682 28.5639 87.0012 28.5639 89.3857Z" stroke="url(#paint0_linear_4_1267)" stroke-width="2.5" stroke-miterlimit="10" stroke-linecap="round" stroke-linejoin="round"/>
<defs>
<linearGradient id="paint0_linear_4_1267" x1="60.0001" y1="25.2281" x2="60.0001" y2="99.0572" gradientUnits="userSpaceOnUse">
<stop stop-color="#F0677E"/>
<stop offset="1" stop-color="#DB1F2E"/>
</linearGradient>
</defs>
</svg>
