<svg width="120" height="120" viewBox="0 0 120 120" fill="none" xmlns="http://www.w3.org/2000/svg">
<path d="M94.445 35.3426V34.228C94.445 29.2575 90.4155 25.228 85.445 25.228H29.3584C24.3878 25.228 20.3584 29.2575 20.3584 34.228L20.354 40.477C20.354 41.577 21.254 42.477 22.354 42.477L29.4817 42.4557C32.2432 42.4557 34.4817 44.6943 34.4817 47.4557V94.0571C34.4817 96.8185 32.2432 99.0571 29.4817 99.0571H8.52832C5.7669 99.0571 3.52832 96.8185 3.52832 94.0571V47.4557C3.52832 44.6943 5.7669 42.4557 8.52832 42.4557H15.3406M94.445 72.0126V75.0103C94.445 79.9809 90.4155 84.0103 85.445 84.0103L63.1147 84.006H60.35C59.25 84.006 58.35 84.906 58.35 86.006L58.3315 97.4766M53.0165 84.0103H35.045M73.5659 60.0688C72.3659 61.4688 71.5659 63.3688 71.5659 65.3688C71.5659 69.3688 74.5659 72.6688 78.4659 73.2688C79.0659 73.3688 79.5659 72.8688 79.5659 72.2688V57.3688C79.5659 48.2688 85.1116 41.3688 94.2359 41.3688C103.317 41.3688 108.866 48.2688 108.866 57.3688V72.2688C108.866 72.8688 109.366 73.3688 109.966 73.2688C113.866 72.6688 116.866 69.3688 116.866 65.3688C116.866 63.3688 116.066 61.4688 114.866 60.0688M44.2202 97.7428H72.4428M17.5505 89.3857C17.5505 91.7702 15.6175 93.7032 13.233 93.7032C10.8485 93.7032 8.91553 91.7702 8.91553 89.3857C8.91553 87.0012 10.8485 85.0682 13.233 85.0682C15.6175 85.0682 17.5505 87.0012 17.5505 89.3857Z" stroke="url(#paint0_linear_3240_1341)" stroke-width="2.5" stroke-linecap="round" stroke-linejoin="round"/>
<defs>
<linearGradient id="paint0_linear_3240_1341" x1="60.1969" y1="25.228" x2="60.1969" y2="99.0571" gradientUnits="userSpaceOnUse">
<stop stop-color="#3CC29A"/>
<stop offset="1" stop-color="#93C437"/>
</linearGradient>
</defs>
</svg>
