<svg width="120" height="120" viewBox="0 0 120 120" fill="none" xmlns="http://www.w3.org/2000/svg">
<path d="M83.6443 33.3H84.8943C84.8943 33.2665 84.8929 33.2329 84.8902 33.1995L83.6443 33.3ZM46.5263 97.641C46.2175 98.2585 46.4678 99.0093 47.0853 99.318C47.7027 99.6268 48.4536 99.3765 48.7623 98.759L46.5263 97.641ZM11.6443 60.95C10.9539 60.95 10.3943 61.5096 10.3943 62.2C10.3943 62.8904 10.9539 63.45 11.6443 63.45V60.95ZM40.8943 34.2C40.8943 33.5096 40.3346 32.95 39.6443 32.95C38.9539 32.95 38.3943 33.5096 38.3943 34.2H40.8943ZM60.8943 46.2V24.2H58.3943V46.2H60.8943ZM60.8943 24.2C60.8943 23.7904 61.2346 23.45 61.6443 23.45V20.95C59.8539 20.95 58.3943 22.4096 58.3943 24.2H60.8943ZM61.6443 23.45H71.6443V20.95H61.6443V23.45ZM71.6443 23.45C77.2836 23.45 81.9499 27.8405 82.3983 33.4005L84.8902 33.1995C84.3386 26.3595 78.605 20.95 71.6443 20.95V23.45ZM82.3943 33.3C82.3943 33.9844 82.7361 34.5337 83.1381 34.8821C83.5366 35.2275 84.0727 35.45 84.6443 35.45V32.95C84.7159 32.95 84.752 32.9725 84.7755 32.9929C84.8025 33.0163 84.8943 33.1156 84.8943 33.3H82.3943ZM84.6443 35.45H103.644V32.95H84.6443V35.45ZM103.644 35.45C105.154 35.45 106.394 36.6904 106.394 38.2H108.894C108.894 35.3096 106.535 32.95 103.644 32.95V35.45ZM106.394 38.2C106.394 53.0096 94.4539 64.95 79.6443 64.95V67.45C95.8346 67.45 108.894 54.3904 108.894 38.2H106.394ZM79.6443 64.95H71.0443V67.45H79.6443V64.95ZM71.0443 64.95C66.0716 64.95 61.4384 67.8168 59.2263 72.241L61.4623 73.359C63.2502 69.7832 67.0169 67.45 71.0443 67.45V64.95ZM59.2263 72.241L46.5263 97.641L48.7623 98.759L61.4623 73.359L59.2263 72.241ZM11.6443 63.45C27.8346 63.45 40.8943 50.3904 40.8943 34.2H38.3943C38.3943 49.0096 26.4539 60.95 11.6443 60.95V63.45ZM38.3943 34.2V46.2H40.8943V34.2H38.3943ZM38.3943 46.2C38.3943 52.3904 43.4539 57.45 49.6443 57.45V54.95C44.8346 54.95 40.8943 51.0096 40.8943 46.2H38.3943ZM49.6443 57.45C55.8346 57.45 60.8943 52.3904 60.8943 46.2H58.3943C58.3943 51.0096 54.4539 54.95 49.6443 54.95V57.45Z" fill="url(#paint0_linear_4_2910)"/>
<path d="M73.6445 38.2C74.7491 38.2 75.6445 37.3045 75.6445 36.2C75.6445 35.0954 74.7491 34.2 73.6445 34.2C72.54 34.2 71.6445 35.0954 71.6445 36.2C71.6445 37.3045 72.54 38.2 73.6445 38.2Z" fill="url(#paint1_linear_4_2910)"/>
<defs>
<linearGradient id="paint0_linear_4_2910" x1="59.6443" y1="22.2" x2="59.6443" y2="98.2" gradientUnits="userSpaceOnUse">
<stop stop-color="#279BE8"/>
<stop offset="1" stop-color="#875AE0"/>
</linearGradient>
<linearGradient id="paint1_linear_4_2910" x1="73.6445" y1="34.2" x2="73.6445" y2="38.2" gradientUnits="userSpaceOnUse">
<stop stop-color="#279BE8"/>
<stop offset="1" stop-color="#875AE0"/>
</linearGradient>
</defs>
</svg>
