<svg width="120" height="120" viewBox="0 0 120 120" fill="none" xmlns="http://www.w3.org/2000/svg">
<path d="M47.6443 98.2L60.3443 72.8C62.3443 68.8 66.5443 66.2 71.0443 66.2H79.6443C95.1443 66.2 107.644 53.7 107.644 38.2C107.644 36 105.844 34.2 103.644 34.2H84.6443C84.1443 34.2 83.6443 33.8 83.6443 33.3C83.1443 27.1 77.9443 22.2 71.6443 22.2H61.6443C60.5443 22.2 59.6443 23.1 59.6443 24.2V46.2C59.6443 51.7 55.1443 56.2 49.6443 56.2C44.1443 56.2 39.6443 51.7 39.6443 46.2V34.2C39.6443 49.7 27.1443 62.2 11.6443 62.2" stroke="url(#paint0_linear_4_2916)" stroke-width="2.5" stroke-miterlimit="10" stroke-linecap="round" stroke-linejoin="round"/>
<path d="M73.6445 38.2C74.7491 38.2 75.6445 37.3045 75.6445 36.2C75.6445 35.0954 74.7491 34.2 73.6445 34.2C72.54 34.2 71.6445 35.0954 71.6445 36.2C71.6445 37.3045 72.54 38.2 73.6445 38.2Z" fill="url(#paint1_linear_4_2916)"/>
<defs>
<linearGradient id="paint0_linear_4_2916" x1="59.6443" y1="22.2" x2="59.6443" y2="98.2" gradientUnits="userSpaceOnUse">
<stop stop-color="#3CC29A"/>
<stop offset="1" stop-color="#93C437"/>
</linearGradient>
<linearGradient id="paint1_linear_4_2916" x1="73.6445" y1="34.2" x2="73.6445" y2="38.2" gradientUnits="userSpaceOnUse">
<stop stop-color="#3CC29A"/>
<stop offset="1" stop-color="#93C437"/>
</linearGradient>
</defs>
</svg>
