<svg width="192" height="192" viewBox="0 0 192 192" fill="none" xmlns="http://www.w3.org/2000/svg">
<path d="M22.3102 37.0406C22.3102 37.731 22.8698 38.2906 23.5602 38.2906C24.2505 38.2906 24.8102 37.731 24.8102 37.0406H22.3102ZM130.669 47.0508L131.064 48.2367L131.067 48.2358L130.669 47.0508ZM144.083 42.5462L143.687 41.3604L143.685 41.3613L144.083 42.5462ZM154.193 47.6514L155.379 47.2566L155.379 47.2561L154.193 47.6514ZM181.12 128.534L179.934 128.928L179.934 128.929L181.12 128.534ZM176.015 138.644L176.41 139.83L176.41 139.83L176.015 138.644ZM83.1207 169.575L82.7258 168.389L82.7254 168.389L83.1207 169.575ZM73.0104 164.47L74.1963 164.075L74.1956 164.073L73.0104 164.47ZM68.69 147.656C68.4705 147.001 67.7619 146.649 67.1074 146.868C66.4528 147.088 66.1002 147.796 66.3197 148.451L68.69 147.656ZM57.5948 52.8079C56.9044 52.8079 56.3448 53.3676 56.3448 54.0579C56.3448 54.7483 56.9044 55.3079 57.5948 55.3079V52.8079ZM75.6131 55.3079C76.3034 55.3079 76.8631 54.7483 76.8631 54.0579C76.8631 53.3676 76.3034 52.8079 75.6131 52.8079V55.3079ZM136.924 66.0701C136.924 65.3798 136.364 64.8201 135.674 64.8201C134.984 64.8201 134.424 65.3798 134.424 66.0701H136.924ZM22.6593 64.0681L22.9044 62.8424L22.8421 62.8299L22.7789 62.8239L22.6593 64.0681ZM13.55 53.7576L12.301 53.7087L12.3008 53.7114L13.55 53.7576ZM23.0597 44.0478L23.1317 45.2957L23.1353 45.2955L23.0597 44.0478ZM31.268 47.5513L30.3247 48.3716L30.7593 48.8713L31.4169 48.7924L31.268 47.5513ZM38.7756 46.6504L38.9246 47.8915L39.711 47.7971L39.9615 47.0457L38.7756 46.6504ZM38.6755 61.0651L39.8614 60.6698L39.6171 59.9369L38.8523 59.8276L38.6755 61.0651ZM31.8452 58.8266C31.1618 58.729 30.5286 59.2038 30.431 59.8873C30.3333 60.5707 30.8082 61.2038 31.4916 61.3015L31.8452 58.8266ZM71.8833 85.0687L71.7896 83.8222L71.8833 85.0687ZM74.6068 83.09L75.7633 83.5643L74.6068 83.09ZM58.8486 91.5484L58.0401 92.5017L58.8486 91.5484ZM60.6803 85.9111L60.774 87.1576L60.6803 85.9111ZM68.4572 102.017L69.6716 102.313V102.313L68.4572 102.017ZM67.4169 98.8149L68.2254 97.8616L67.4169 98.8149ZM70.5918 116.416L69.9349 115.352L70.5918 116.416ZM65.7964 112.932L64.582 112.636L65.7964 112.932ZM83.5168 110.512L82.86 111.576L83.5168 110.512ZM80.1504 110.512L80.8073 111.576L80.1504 110.512ZM97.8708 112.932L99.0852 112.636L97.8708 112.932ZM93.0755 116.416L93.7323 115.352L93.0755 116.416ZM96.2503 98.8149L95.4418 97.8616L96.2503 98.8149ZM95.2101 102.017L93.9956 102.313L95.2101 102.017ZM102.987 85.9111L102.893 87.1576L102.987 85.9111ZM104.819 91.5484L105.627 92.5017L104.819 91.5484ZM89.0604 83.09L90.2169 82.6156L89.0604 83.09ZM91.7839 85.0687L91.8776 83.8222L91.7839 85.0687ZM84.7973 72.6956L83.6408 73.1699L84.7973 72.6956ZM78.8699 72.6956L77.7134 72.2212H77.7134L78.8699 72.6956ZM24.8102 37.0406V36.0396H22.3102V37.0406H24.8102ZM24.8102 36.0396C24.8102 32.3255 27.8542 29.2815 31.5683 29.2815V26.7815C26.4735 26.7815 22.3102 30.9448 22.3102 36.0396H24.8102ZM31.5683 29.2815H127.666V26.7815H31.5683V29.2815ZM127.666 29.2815C131.38 29.2815 134.424 32.3255 134.424 36.0396H136.924C136.924 30.9448 132.761 26.7815 127.666 26.7815V29.2815ZM134.424 36.0396V48.0518H136.924V36.0396H134.424ZM134.424 48.0518C134.424 54.3383 132.491 57.8861 130.42 59.4394C128.394 60.9584 126.09 60.7245 124.546 59.1802L122.778 60.9479C125.238 63.4076 128.94 63.6743 131.92 61.4394C134.854 59.2389 136.924 54.7786 136.924 48.0518H134.424ZM124.546 59.1802C122.879 57.5137 122.537 55.5703 123.415 53.7172C124.339 51.766 126.733 49.6804 131.064 48.2367L130.274 45.865C125.596 47.4243 122.484 49.8433 121.156 52.6469C119.781 55.5486 120.44 58.6104 122.778 60.9479L124.546 59.1802ZM131.067 48.2358L144.481 43.7312L143.685 41.3613L130.271 45.8659L131.067 48.2358ZM144.478 43.7321C148.015 42.553 151.82 44.4851 153.007 48.0467L155.379 47.2561C153.763 42.4092 148.559 39.7366 143.687 41.3604L144.478 43.7321ZM153.007 48.0463L179.934 128.928L182.306 128.139L155.379 47.2566L153.007 48.0463ZM179.934 128.929C181.114 132.466 179.181 136.271 175.62 137.458L176.41 139.83C181.257 138.214 183.93 133.01 182.306 128.138L179.934 128.929ZM175.62 137.458L82.7258 168.389L83.5156 170.761L176.41 139.83L175.62 137.458ZM82.7254 168.389C79.1883 169.569 75.3835 167.636 74.1963 164.075L71.8246 164.865C73.4402 169.712 78.6446 172.385 83.516 170.761L82.7254 168.389ZM74.1956 164.073L68.69 147.656L66.3197 148.451L71.8253 164.868L74.1956 164.073ZM57.5948 55.3079H75.6131V52.8079H57.5948V55.3079ZM134.424 66.0701V132.137H136.924V66.0701H134.424ZM134.424 132.137C134.424 135.851 131.38 138.895 127.666 138.895V141.395C132.761 141.395 136.924 137.232 136.924 132.137H134.424ZM127.666 138.895H31.5683V141.395H127.666V138.895ZM31.5683 138.895C27.8542 138.895 24.8102 135.851 24.8102 132.137H22.3102C22.3102 137.232 26.4735 141.395 31.5683 141.395V138.895ZM24.8102 132.137V65.0691H22.3102V132.137H24.8102ZM24.8102 65.0691C24.8102 63.8449 23.854 63.0323 22.9044 62.8424L22.4141 65.2938C22.414 65.2938 22.4122 65.2935 22.4082 65.2913C22.4043 65.2892 22.3944 65.2831 22.3814 65.269C22.3525 65.2379 22.3102 65.1669 22.3102 65.0691H24.8102ZM22.7789 62.8239C18.2032 62.3839 14.6245 58.5191 14.7991 53.8039L12.3008 53.7114C12.0751 59.8072 16.7048 64.7513 22.5396 65.3124L22.7789 62.8239ZM14.799 53.8066C14.9745 49.3326 18.5807 45.5583 23.1317 45.2957L22.9877 42.7998C17.1281 43.1379 12.5259 47.9723 12.301 53.7087L14.799 53.8066ZM23.1353 45.2955C26.0175 45.1208 28.5546 46.3359 30.3247 48.3716L32.2113 46.7311C29.9773 44.1621 26.7086 42.5743 22.984 42.8001L23.1353 45.2955ZM31.4169 48.7924L38.9246 47.8915L38.6267 45.4093L31.1191 46.3102L31.4169 48.7924ZM39.9615 47.0457C41.6056 42.1135 44.6045 39.2917 47.6847 39.2917V36.7917C42.9569 36.7917 39.3492 40.977 37.5898 46.2551L39.9615 47.0457ZM47.6847 39.2917C49.8477 39.2917 52.0093 40.7128 53.6944 43.4089C55.367 46.0852 56.4449 49.8523 56.4449 54.0579H58.9449C58.9449 49.4546 57.7704 45.2136 55.8144 42.0839C53.8708 38.9742 51.0273 36.7917 47.6847 36.7917V39.2917ZM56.4449 54.0579C56.4449 58.2636 55.367 62.0307 53.6944 64.7069C52.0093 67.4031 49.8477 68.8242 47.6847 68.8242V71.3242C51.0273 71.3242 53.8708 69.1416 55.8144 66.0319C57.7704 62.9023 58.9449 58.6612 58.9449 54.0579H56.4449ZM47.6847 68.8242C46.1732 68.8242 44.6515 68.0701 43.2554 66.6178C41.8601 65.1662 40.6675 63.0881 39.8614 60.6698L37.4897 61.4603C38.3853 64.1472 39.7453 66.5737 41.4531 68.3503C43.1602 70.1263 45.2922 71.3242 47.6847 71.3242V68.8242ZM38.8523 59.8276L31.8452 58.8266L31.4916 61.3015L38.4988 62.3025L38.8523 59.8276ZM83.6408 73.1699L87.9039 83.5643L90.2169 82.6156L85.9538 72.2212L83.6408 73.1699ZM91.6902 86.3152L102.893 87.1576L103.081 84.6647L91.8776 83.8222L91.6902 86.3152ZM104.01 90.5951L95.4418 97.8616L97.0588 99.7683L105.627 92.5017L104.01 90.5951ZM93.9956 102.313L96.6563 113.228L99.0852 112.636L96.4245 101.721L93.9956 102.313ZM93.7323 115.352L84.1736 109.449L82.86 111.576L92.4186 117.479L93.7323 115.352ZM79.4936 109.449L69.9349 115.352L71.2486 117.479L80.8073 111.576L79.4936 109.449ZM67.0109 113.228L69.6716 102.313L67.2427 101.721L64.582 112.636L67.0109 113.228ZM68.2254 97.8616L59.6571 90.5951L58.0401 92.5017L66.6084 99.7683L68.2254 97.8616ZM60.774 87.1576L71.977 86.3152L71.7896 83.8222L60.5865 84.6647L60.774 87.1576ZM75.7633 83.5643L80.0264 73.1699L77.7134 72.2212L73.4503 82.6156L75.7633 83.5643ZM71.977 86.3152C73.6581 86.1888 75.1236 85.124 75.7633 83.5643L73.4503 82.6156C73.1697 83.2997 72.5269 83.7668 71.7896 83.8222L71.977 86.3152ZM59.6571 90.5951C58.3249 89.4653 59.0322 87.2886 60.774 87.1576L60.5865 84.6647C56.6153 84.9633 55.0029 89.9259 58.0401 92.5017L59.6571 90.5951ZM69.6716 102.313C70.0708 100.675 69.5111 98.952 68.2254 97.8616L66.6084 99.7683C67.1723 100.246 67.4178 101.002 67.2427 101.721L69.6716 102.313ZM69.9349 115.352C68.4488 116.27 66.5972 114.925 67.0109 113.228L64.582 112.636C63.6389 116.505 67.8603 119.572 71.2486 117.479L69.9349 115.352ZM84.1736 109.449C82.7394 108.563 80.9279 108.563 79.4936 109.449L80.8073 111.576C81.4363 111.187 82.2309 111.187 82.86 111.576L84.1736 109.449ZM96.6563 113.228C97.07 114.925 95.2184 116.27 93.7323 115.352L92.4186 117.479C95.8069 119.572 100.028 116.505 99.0852 112.636L96.6563 113.228ZM95.4418 97.8616C94.1562 98.9519 93.5964 100.675 93.9956 102.313L96.4245 101.721C96.2494 101.002 96.4949 100.246 97.0588 99.7683L95.4418 97.8616ZM102.893 87.1576C104.635 87.2886 105.342 89.4653 104.01 90.5951L105.627 92.5017C108.664 89.9259 107.052 84.9633 103.081 84.6647L102.893 87.1576ZM87.9039 83.5643C88.5436 85.124 90.0092 86.1888 91.6902 86.3152L91.8776 83.8222C91.1403 83.7668 90.4975 83.2997 90.2169 82.6156L87.9039 83.5643ZM85.9538 72.2212C84.4426 68.5367 79.2246 68.5367 77.7134 72.2212L80.0264 73.1699C80.6893 71.5538 82.978 71.5538 83.6408 73.1699L85.9538 72.2212Z" fill="url(#paint0_linear_4_1591)"/>
<defs>
<linearGradient id="paint0_linear_4_1591" x1="97.5371" y1="28.0315" x2="97.5371" y2="169.986" gradientUnits="userSpaceOnUse">
<stop stop-color="#F55868"/>
<stop offset="1" stop-color="#875AE0"/>
</linearGradient>
</defs>
</svg>
