<svg width="192" height="192" viewBox="0 0 192 192" fill="none" xmlns="http://www.w3.org/2000/svg">
<path d="M138.26 68.1773C137.772 68.6654 137.772 69.4569 138.26 69.945C138.748 70.4332 139.54 70.4332 140.028 69.945L138.26 68.1773ZM152.694 57.2783C153.183 56.7902 153.183 55.9987 152.694 55.5106C152.206 55.0224 151.415 55.0224 150.927 55.5106L152.694 57.2783ZM140.028 123.066C139.54 122.578 138.748 122.578 138.26 123.066C137.772 123.554 137.772 124.346 138.26 124.834L140.028 123.066ZM150.927 137.501C151.415 137.989 152.206 137.989 152.694 137.501C153.183 137.012 153.183 136.221 152.694 135.733L150.927 137.501ZM43.2263 117.803C43.9124 117.727 44.4068 117.109 44.3306 116.423C44.2544 115.737 43.6363 115.243 42.9502 115.319L43.2263 117.803ZM18.8105 100.728L19.9977 100.337C19.8289 99.8241 19.3501 99.4778 18.8105 99.4778L18.8105 100.728ZM6.1438 99.4778C5.45344 99.4778 4.8938 100.037 4.8938 100.728C4.8938 101.418 5.45344 101.978 6.1438 101.978L6.1438 99.4778ZM151.81 95.2556C151.12 95.2556 150.56 95.8152 150.56 96.5056C150.56 97.1959 151.12 97.7556 151.81 97.7556V95.2556ZM170.81 97.7556C171.501 97.7556 172.06 97.1959 172.06 96.5056C172.06 95.8152 171.501 95.2556 170.81 95.2556V97.7556ZM105.366 111.283L106.25 110.399L105.366 111.283ZM96.9216 102.839L96.0377 103.723L96.9216 102.839ZM88.4771 111.283L87.5933 112.167L88.4771 111.283ZM96.9216 119.728L97.8055 118.844L96.9216 119.728ZM54.6994 111.283L55.5832 110.399L54.6994 111.283ZM65.2549 121.839L64.371 122.723L65.2549 121.839ZM58.9744 124.003L59.8582 124.887C59.8649 124.88 59.8716 124.873 59.8781 124.866L58.9744 124.003ZM69.4771 109.172L68.5933 110.056L69.4771 109.172ZM80.0327 119.728L80.9166 118.844L80.0327 119.728ZM27.2549 65.7C26.5646 65.7 26.0049 66.2597 26.0049 66.95C26.0049 67.6404 26.5646 68.2 27.2549 68.2V65.7ZM48.366 66.95V68.2V66.95ZM71.5883 69.0611L71.0292 70.1792L71.0301 70.1796L71.5883 69.0611ZM100.035 83.2584L100.594 82.1403L100.594 82.1399L100.035 83.2584ZM100.774 85.0528L99.6077 84.6041C99.6009 84.6217 99.5945 84.6396 99.5885 84.6575L100.774 85.0528ZM86.1549 91.1223L85.5959 92.2403H85.5959L86.1549 91.1223ZM73.6994 84.8945L74.2584 83.7764H74.2584L73.6994 84.8945ZM72.4327 78.4556L71.1878 78.5687C71.1889 78.5807 71.1902 78.5926 71.1916 78.6045L72.4327 78.4556ZM71.1133 82.0972L72.0358 82.9408L72.0448 82.9307L71.1133 82.0972ZM33.5882 93.3389L33.9835 92.1531L33.5882 93.3389ZM29.8938 95.9778L31.1436 96.0023C31.1437 95.9941 31.1438 95.986 31.1438 95.9778H29.8938ZM29.7882 101.361L28.5385 101.337C28.5383 101.345 28.5382 101.353 28.5382 101.361H29.7882ZM34.6438 104.95V106.2V104.95ZM42.0327 106.2C42.723 106.2 43.2827 105.64 43.2827 104.95C43.2827 104.26 42.723 103.7 42.0327 103.7V106.2ZM132.81 76.6445C133.501 76.6445 134.06 76.0848 134.06 75.3945C134.06 74.7041 133.501 74.1445 132.81 74.1445V76.6445ZM127.533 77.5056L126.839 76.4655L126.835 76.4686L127.533 77.5056ZM113.969 86.6361L114.645 87.6876C114.652 87.6828 114.66 87.678 114.667 87.6731L113.969 86.6361ZM109.008 88.1139L109.046 86.8645C109.033 86.8641 109.02 86.8639 109.008 86.8639V88.1139ZM106.474 86.8639C105.784 86.8639 105.224 87.4236 105.224 88.1139C105.224 88.8043 105.784 89.3639 106.474 89.3639V86.8639ZM132.81 118.867C133.501 118.867 134.06 118.307 134.06 117.617C134.06 116.926 133.501 116.367 132.81 116.367V118.867ZM127.533 115.506L128.226 114.466L128.225 114.465L127.533 115.506ZM113.969 106.481L114.661 105.44C114.656 105.436 114.65 105.433 114.645 105.429L113.969 106.481ZM109.008 105.003V106.253C109.02 106.253 109.033 106.253 109.046 106.252L109.008 105.003ZM99.0855 103.753C98.3951 103.753 97.8355 104.312 97.8355 105.003C97.8355 105.693 98.3951 106.253 99.0855 106.253V103.753ZM140.028 69.945L152.694 57.2783L150.927 55.5106L138.26 68.1773L140.028 69.945ZM138.26 124.834L150.927 137.501L152.694 135.733L140.028 123.066L138.26 124.834ZM42.9502 115.319C38.5733 115.805 33.5319 114.222 29.1822 111.361C24.8331 108.499 21.3635 104.483 19.9977 100.337L17.6232 101.119C19.213 105.945 23.1322 110.373 27.8082 113.449C32.4834 116.525 38.1032 118.373 43.2263 117.803L42.9502 115.319ZM18.8105 99.4778L6.1438 99.4778L6.1438 101.978L18.8105 101.978L18.8105 99.4778ZM151.81 97.7556L170.81 97.7556V95.2556L151.81 95.2556V97.7556ZM106.25 110.399L97.8055 101.955L96.0377 103.723L104.482 112.167L106.25 110.399ZM97.8055 101.955C94.9951 99.1447 90.4036 99.1447 87.5933 101.955L89.361 103.723C91.1951 101.889 94.2036 101.889 96.0377 103.723L97.8055 101.955ZM87.5933 101.955C84.7829 104.765 84.7829 109.357 87.5933 112.167L89.361 110.399C87.527 108.565 87.527 105.557 89.361 103.723L87.5933 101.955ZM87.5933 112.167L96.0377 120.612L97.8055 118.844L89.361 110.399L87.5933 112.167ZM96.0377 120.612C98.8481 123.422 103.44 123.422 106.25 120.612L104.482 118.844C102.648 120.678 99.6395 120.678 97.8055 118.844L96.0377 120.612ZM106.25 120.612C109.053 117.809 109.12 113.27 106.25 110.399L104.482 112.167C106.362 114.047 106.323 117.003 104.482 118.844L106.25 120.612ZM74.5832 112.511L64.0277 101.955L62.2599 103.723L72.8155 114.278L74.5832 112.511ZM64.0277 101.955C61.2173 99.1447 56.6259 99.1447 53.8155 101.955L55.5832 103.723C57.4173 101.889 60.4259 101.889 62.2599 103.723L64.0277 101.955ZM53.8155 101.955C51.0051 104.765 51.0051 109.357 53.8155 112.167L55.5832 110.399C53.7492 108.565 53.7492 105.557 55.5832 103.723L53.8155 101.955ZM53.8155 112.167L64.371 122.723L66.1388 120.955L55.5832 110.399L53.8155 112.167ZM64.371 122.723C67.1814 125.533 71.7729 125.533 74.5832 122.723L72.8155 120.955C70.9814 122.789 67.9729 122.789 66.1388 120.955L64.371 122.723ZM74.5832 122.723C77.3864 119.92 77.4536 115.381 74.5832 112.511L72.8155 114.278C74.6951 116.158 74.6568 119.114 72.8155 120.955L74.5832 122.723ZM59.8582 114.674L53.5249 108.341L51.7571 110.109L58.0905 116.442L59.8582 114.674ZM53.5249 108.341C50.7145 105.531 46.1231 105.531 43.3127 108.341L45.0805 110.109C46.9145 108.275 49.9231 108.275 51.7571 110.109L53.5249 108.341ZM43.3127 108.341C40.5023 111.152 40.5023 115.743 43.3127 118.553L45.0805 116.786C43.2464 114.952 43.2464 111.943 45.0805 110.109L43.3127 108.341ZM43.3127 118.553L49.646 124.887L51.4138 123.119L45.0805 116.786L43.3127 118.553ZM49.646 124.887C52.4564 127.697 57.0479 127.697 59.8582 124.887L58.0905 123.119C56.2564 124.953 53.2479 124.953 51.4138 123.119L49.646 124.887ZM59.8781 124.866C62.5914 122.027 62.6864 117.503 59.8582 114.674L58.0905 116.442C59.9067 118.258 59.8962 121.229 58.0706 123.139L59.8781 124.866ZM89.361 110.399L78.8055 99.8439L77.0377 101.612L87.5933 112.167L89.361 110.399ZM78.8055 99.8439C75.9951 97.0335 71.4036 97.0336 68.5933 99.8439L70.361 101.612C72.1951 99.7776 75.2036 99.7776 77.0377 101.612L78.8055 99.8439ZM68.5933 99.8439C65.7829 102.654 65.7829 107.246 68.5933 110.056L70.361 108.288C68.527 106.454 68.527 103.446 70.361 101.612L68.5933 99.8439ZM68.5933 110.056L79.1488 120.612L80.9166 118.844L70.361 108.288L68.5933 110.056ZM79.1488 120.612C81.9592 123.422 86.5506 123.422 89.361 120.612L87.5933 118.844C85.7592 120.678 82.7507 120.678 80.9166 118.844L79.1488 120.612ZM89.361 120.612C92.1642 117.809 92.2314 113.27 89.361 110.399L87.5933 112.167C89.4729 114.047 89.4346 117.003 87.5933 118.844L89.361 120.612ZM27.2549 68.2L48.366 68.2V65.7L27.2549 65.7V68.2ZM48.366 68.2C54.718 68.2 59.4153 68.2008 63.0547 68.4607C66.6947 68.7207 69.1383 69.2337 71.0292 70.1792L72.1473 67.9431C69.816 66.7774 66.9818 66.2349 63.2329 65.9671C59.4834 65.6993 54.6807 65.7 48.366 65.7V68.2ZM71.0301 70.1796L99.4773 84.3768L100.594 82.1399L72.1464 67.9427L71.0301 70.1796ZM99.4765 84.3764C99.5125 84.3944 99.563 84.4408 99.5925 84.5094C99.6197 84.573 99.608 84.6032 99.6077 84.6041L101.941 85.5015C102.464 84.1427 101.732 82.7091 100.594 82.1403L99.4765 84.3764ZM99.5885 84.6575C97.8218 89.9576 91.7288 92.5117 86.7139 90.0042L85.5959 92.2403C91.981 95.4329 99.7158 92.1814 101.96 85.4481L99.5885 84.6575ZM86.7139 90.0042L74.2584 83.7764L73.1403 86.0125L85.5959 92.2403L86.7139 90.0042ZM74.2584 83.7764C72.2301 82.7623 70.6363 81.6469 69.5694 80.58C68.4662 79.4769 68.0883 78.5928 68.0883 78.0334H65.5883C65.5883 79.585 66.5298 81.076 67.8016 82.3478C69.1097 83.6559 70.9464 84.9155 73.1404 86.0125L74.2584 83.7764ZM68.0883 78.0334C68.0883 77.5897 68.5736 76.9831 69.5518 76.9401C69.9741 76.9216 70.3448 77.0382 70.6099 77.2556C70.857 77.4584 71.1213 77.8372 71.1878 78.5687L73.6776 78.3424C73.5593 77.042 73.032 76.009 72.1955 75.3228C71.377 74.6513 70.3721 74.4017 69.4421 74.4425C67.7154 74.5184 65.5883 75.7326 65.5883 78.0334H68.0883ZM71.1916 78.6045C71.2948 79.4647 70.918 80.4408 70.1817 81.2638L72.0448 82.9307C73.1029 81.7481 73.8872 80.0853 73.6738 78.3066L71.1916 78.6045ZM70.1908 81.2537C62.4935 89.6718 54.8032 92.8125 48.4057 93.6634C41.9792 94.5181 36.7519 93.0758 33.9835 92.1531L33.193 94.5248C36.1246 95.502 41.7696 97.068 48.7353 96.1415C55.7302 95.2112 63.9524 91.7811 72.0357 82.9408L70.1908 81.2537ZM33.9835 92.1531C32.8108 91.7621 31.4975 91.9643 30.4762 92.6142C29.4216 93.2853 28.6438 94.4586 28.6438 95.9778H31.1438C31.1438 95.3859 31.4216 94.9759 31.8184 94.7234C32.2485 94.4496 32.7824 94.3879 33.193 94.5248L33.9835 92.1531ZM28.644 95.9533L28.5385 101.337L31.038 101.386L31.1436 96.0023L28.644 95.9533ZM28.5382 101.361C28.5382 103.159 29.0311 104.585 30.3753 105.409C31.5359 106.12 33.1023 106.2 34.6438 106.2V103.7C33.0186 103.7 32.1572 103.569 31.6817 103.277C31.3899 103.098 31.0382 102.73 31.0382 101.361H28.5382ZM34.6438 106.2L42.0327 106.2V103.7L34.6438 103.7V106.2ZM139.732 96.5206C139.732 102.239 138.829 107.359 137.413 111.004C136.703 112.83 135.888 114.223 135.048 115.138C134.208 116.051 133.438 116.393 132.772 116.393V118.893C134.374 118.893 135.764 118.053 136.888 116.829C138.012 115.606 138.967 113.906 139.743 111.909C141.298 107.909 142.232 102.468 142.232 96.5206H139.732ZM132.772 116.393C132.107 116.393 131.337 116.051 130.497 115.138C129.656 114.223 128.842 112.83 128.132 111.004C126.715 107.359 125.812 102.239 125.812 96.5206H123.312C123.312 102.468 124.247 107.909 125.802 111.909C126.578 113.906 127.532 115.606 128.656 116.829C129.781 118.053 131.17 118.893 132.772 118.893V116.393ZM125.812 96.5206C125.812 90.8024 126.715 85.6823 128.132 82.0375C128.842 80.2112 129.656 78.8185 130.497 77.9037C131.337 76.99 132.107 76.648 132.772 76.648V74.148C131.17 74.148 129.781 74.9881 128.656 76.2121C127.532 77.4351 126.578 79.1357 125.802 81.1318C124.247 85.132 123.312 90.5732 123.312 96.5206H125.812ZM132.772 76.648C133.438 76.648 134.208 76.99 135.048 77.9037C135.888 78.8185 136.703 80.2112 137.413 82.0375C138.829 85.6823 139.732 90.8024 139.732 96.5206H142.232C142.232 90.5732 141.298 85.132 139.743 81.1318C138.967 79.1357 138.012 77.4351 136.888 76.2121C135.764 74.9881 134.374 74.148 132.772 74.148V76.648ZM132.81 74.1445C132.246 74.1445 131.555 74.1435 130.568 74.4725C129.626 74.7865 128.465 75.3818 126.839 76.4655L128.226 78.5456C129.767 77.5183 130.717 77.058 131.359 76.8442C131.955 76.6455 132.319 76.6445 132.81 76.6445V74.1445ZM126.835 76.4686L113.271 85.5992L114.667 87.6731L128.231 78.5425L126.835 76.4686ZM113.293 85.5847C111.986 86.4251 110.489 86.9082 109.046 86.8645L108.97 89.3633C111.01 89.4252 112.997 88.7472 114.645 87.6876L113.293 85.5847ZM109.008 86.8639L106.474 86.8639V89.3639L109.008 89.3639V86.8639ZM132.81 116.367C132.319 116.367 131.955 116.366 131.359 116.167C130.717 115.953 129.767 115.493 128.226 114.466L126.839 116.546C128.465 117.629 129.626 118.225 130.568 118.539C131.555 118.868 132.246 118.867 132.81 118.867V116.367ZM128.225 114.465L114.661 105.44L113.276 107.521L126.84 116.546L128.225 114.465ZM114.645 105.429C112.997 104.37 111.01 103.692 108.97 103.753L109.046 106.252C110.489 106.208 111.986 106.692 113.293 107.532L114.645 105.429ZM109.008 103.753H99.0855V106.253H109.008V103.753Z" fill="url(#paint0_linear_4_1168)"/>
<defs>
<linearGradient id="paint0_linear_4_1168" x1="88.4771" y1="56.3945" x2="88.4771" y2="136.617" gradientUnits="userSpaceOnUse">
<stop stop-color="#93C437"/>
<stop offset="1" stop-color="#279BE8"/>
</linearGradient>
</defs>
</svg>
