<svg width="192" height="192" viewBox="0 0 192 192" fill="none" xmlns="http://www.w3.org/2000/svg">
<path d="M15.3072 127.782C14.6897 128.091 14.4394 128.842 14.7482 129.459C15.0569 130.076 15.8078 130.327 16.4252 130.018L15.3072 127.782ZM90.1162 74.9C90.1162 74.2096 89.5566 73.65 88.8662 73.65C88.1759 73.65 87.6162 74.2096 87.6162 74.9H90.1162ZM15.3072 135.782C14.6897 136.091 14.4394 136.842 14.7482 137.459C15.0569 138.076 15.8078 138.327 16.4252 138.018L15.3072 135.782ZM26.4662 131.6L25.9738 130.451C25.9513 130.461 25.9291 130.471 25.9072 130.482L26.4662 131.6ZM29.9662 175.9L29.8542 174.655L29.853 174.655L29.9662 175.9ZM43.1662 156.1L43.3612 157.335C43.378 157.332 43.3947 157.329 43.4114 157.326L43.1662 156.1ZM39.8662 160.2H38.6162C38.6162 160.205 38.6162 160.21 38.6163 160.215L39.8662 160.2ZM57.6662 175.9L57.77 174.654L57.7669 174.654L57.6662 175.9ZM61.5662 114.1L62.0835 115.238C62.0993 115.231 62.115 115.223 62.1306 115.215L61.5662 114.1ZM69.8662 109.9L69.3072 108.782L69.3018 108.785L69.8662 109.9ZM105.316 110.3C105.868 110.714 106.652 110.602 107.066 110.05C107.48 109.498 107.368 108.714 106.816 108.3L105.316 110.3ZM175.307 80.018C175.925 80.3267 176.676 80.0765 176.984 79.459C177.293 78.8415 177.043 78.0907 176.425 77.7819L175.307 80.018ZM104.116 24.9C104.116 24.2096 103.557 23.65 102.866 23.65C102.176 23.65 101.616 24.2096 101.616 24.9H104.116ZM175.307 88.018C175.925 88.3267 176.676 88.0765 176.984 87.459C177.293 86.8415 177.043 86.0907 176.425 85.7819L175.307 88.018ZM165.266 81.6L165.825 80.4819C165.803 80.471 165.781 80.4607 165.759 80.451L165.266 81.6ZM161.766 125.9L161.879 124.655L161.878 124.655L161.766 125.9ZM148.566 106.1L148.321 107.326C148.338 107.329 148.354 107.332 148.371 107.335L148.566 106.1ZM151.866 110.2L153.116 110.215C153.116 110.21 153.116 110.205 153.116 110.2H151.866ZM134.066 125.9L133.966 124.654L133.962 124.654L134.066 125.9ZM130.166 64L129.602 65.1153C129.617 65.1232 129.633 65.1307 129.649 65.1379L130.166 64ZM121.866 59.8L122.431 58.6846L122.425 58.6819L121.866 59.8ZM84.9162 58.2C84.3639 58.6142 84.252 59.3977 84.6662 59.95C85.0804 60.5023 85.8639 60.6142 86.4162 60.2L84.9162 58.2ZM16.4252 130.018L68.4252 104.018L67.3072 101.782L15.3072 127.782L16.4252 130.018ZM68.4252 104.018C76.4214 100.02 81.9073 96.6656 85.3481 92.2986C88.8437 87.8619 90.1162 82.5368 90.1162 74.9H87.6162C87.6162 82.2632 86.3888 86.9381 83.3843 90.7514C80.3251 94.6343 75.311 97.78 67.3072 101.782L68.4252 104.018ZM16.4252 138.018L27.0252 132.718L25.9072 130.482L15.3072 135.782L16.4252 138.018ZM26.9586 132.749C26.9451 132.755 26.9103 132.765 26.8618 132.76C26.8157 132.756 26.772 132.739 26.7353 132.715C26.6614 132.666 26.6162 132.581 26.6162 132.5H29.1162C29.1162 130.918 27.5127 129.792 25.9738 130.451L26.9586 132.749ZM26.6162 132.5V173.9H29.1162V132.5H26.6162ZM26.6162 173.9C26.6162 175.805 28.218 177.314 30.0794 177.145L29.853 174.655C29.5145 174.686 29.1162 174.395 29.1162 173.9H26.6162ZM30.0783 177.145C40.4641 176.21 49.1162 169.077 49.1162 160H46.6162C46.6162 167.323 39.4684 173.79 29.8542 174.655L30.0783 177.145ZM49.1162 160C49.1162 156.866 46.2475 154.209 42.9211 154.874L43.4114 157.326C45.0849 156.991 46.6162 158.334 46.6162 160H49.1162ZM42.9713 154.865C40.3907 155.273 38.6162 157.662 38.6162 160.2H41.1162C41.1162 158.738 42.1418 157.527 43.3612 157.335L42.9713 154.865ZM38.6163 160.215C38.7268 169.275 47.2608 176.313 57.5655 177.146L57.7669 174.654C48.2716 173.887 41.2056 167.525 41.1161 160.185L38.6163 160.215ZM57.5624 177.146C59.4725 177.305 61.1162 175.85 61.1162 173.9H58.6162C58.6162 174.35 58.2599 174.695 57.77 174.654L57.5624 177.146ZM61.1162 173.9V116.8H58.6162V173.9H61.1162ZM61.1162 116.8C61.1162 116.134 61.4788 115.513 62.0835 115.238L61.049 112.962C59.4536 113.687 58.6162 115.266 58.6162 116.8H61.1162ZM62.1306 115.215L70.4306 111.015L69.3018 108.785L61.0018 112.985L62.1306 115.215ZM70.4252 111.018C79.4443 106.508 85.2633 104.241 90.2516 104.099C95.1319 103.961 99.4003 105.863 105.316 110.3L106.816 108.3C100.732 103.737 95.9005 101.439 90.1808 101.6C84.5691 101.759 78.2881 104.291 69.3072 108.782L70.4252 111.018ZM112.775 84.4701C115.752 90.4236 117.319 96.3098 117.489 100.981C117.664 105.776 116.377 108.774 114.318 109.804L115.436 112.04C118.909 110.303 120.169 105.872 119.987 100.89C119.801 95.7862 118.11 89.55 115.011 83.352L112.775 84.4701ZM114.318 109.804C112.259 110.833 109.088 110.064 105.357 107.047C101.722 104.108 97.9533 99.3228 94.9765 93.3693L92.7405 94.4874C95.8395 100.685 99.8137 105.78 103.786 108.991C107.662 112.125 111.963 113.777 115.436 112.04L114.318 109.804ZM94.9765 93.3693C91.9998 87.4158 90.4329 81.5296 90.2627 76.8579C90.0881 72.0631 91.3745 69.0651 93.4337 68.0355L92.3156 65.7994C88.8424 67.536 87.5829 71.9677 87.7644 76.9489C87.9503 82.0532 89.6415 88.2894 92.7405 94.4874L94.9765 93.3693ZM93.4337 68.0355C95.4928 67.0059 98.6631 67.7755 102.394 70.7922C106.029 73.7313 109.798 78.5166 112.775 84.4701L115.011 83.352C111.912 77.154 107.938 72.0594 103.966 68.8481C100.09 65.7142 95.7889 64.0628 92.3156 65.7994L93.4337 68.0355ZM176.425 77.7819L124.425 51.7819L123.307 54.018L175.307 80.018L176.425 77.7819ZM124.425 51.7819C116.421 47.78 111.407 44.6343 108.348 40.7514C105.344 36.9381 104.116 32.2632 104.116 24.9H101.616C101.616 32.5368 102.889 37.8619 106.384 42.2986C109.825 46.6656 115.311 50.0199 123.307 54.018L124.425 51.7819ZM176.425 85.7819L165.825 80.4819L164.707 82.718L175.307 88.018L176.425 85.7819ZM165.759 80.451C164.22 79.7915 162.616 80.9179 162.616 82.5H165.116C165.116 82.5814 165.071 82.6658 164.997 82.715C164.96 82.7395 164.917 82.7556 164.871 82.76C164.822 82.7646 164.787 82.7547 164.774 82.7489L165.759 80.451ZM162.616 82.5V123.9H165.116V82.5H162.616ZM162.616 123.9C162.616 124.395 162.218 124.686 161.879 124.655L161.653 127.145C163.514 127.314 165.116 125.805 165.116 123.9H162.616ZM161.878 124.655C152.264 123.79 145.116 117.323 145.116 110H142.616C142.616 119.077 151.268 126.21 161.654 127.145L161.878 124.655ZM145.116 110C145.116 108.334 146.648 106.991 148.321 107.326L148.811 104.874C145.485 104.209 142.616 106.866 142.616 110H145.116ZM148.371 107.335C149.591 107.527 150.616 108.738 150.616 110.2H153.116C153.116 107.662 151.342 105.273 148.761 104.865L148.371 107.335ZM150.616 110.185C150.527 117.525 143.461 123.887 133.966 124.654L134.167 127.146C144.472 126.313 153.006 119.275 153.116 110.215L150.616 110.185ZM133.962 124.654C133.473 124.695 133.116 124.35 133.116 123.9H130.616C130.616 125.85 132.26 127.305 134.17 127.146L133.962 124.654ZM133.116 123.9V66.7H130.616V123.9H133.116ZM133.116 66.7C133.116 65.1661 132.279 63.5872 130.683 62.862L129.649 65.1379C130.254 65.4128 130.616 66.0338 130.616 66.7H133.116ZM130.731 62.8846L122.431 58.6846L121.302 60.9153L129.602 65.1153L130.731 62.8846ZM122.425 58.6819C113.444 54.1915 107.163 51.6593 101.552 51.5005C95.8319 51.3386 91.0003 53.6369 84.9162 58.2L86.4162 60.2C92.3322 55.763 96.6005 53.8613 101.481 53.9995C106.469 54.1406 112.288 56.4084 121.307 60.918L122.425 58.6819ZM98.3498 18.0526C100.409 19.0821 101.695 22.0801 101.521 26.875C101.351 31.5467 99.7837 37.4329 96.807 43.3864L99.043 44.5044C102.142 38.3064 103.833 32.0703 104.019 26.966C104.201 21.9848 102.941 17.5531 99.4678 15.8165L98.3498 18.0526ZM96.807 43.3864C93.8302 49.3399 90.0614 54.1251 86.4261 57.0643C82.695 60.0809 79.5247 60.8505 77.4656 59.821L76.3476 62.057C79.8208 63.7937 84.1219 62.1422 87.9979 59.0084C91.9698 55.7971 95.944 50.7024 99.043 44.5044L96.807 43.3864ZM77.4656 59.821C75.4065 58.7914 74.12 55.7934 74.2946 50.9986C74.4648 46.3268 76.0317 40.4407 79.0085 34.4872L76.7724 33.3691C73.6734 39.5671 71.9822 45.8033 71.7963 50.9076C71.6148 55.8887 72.8743 60.3204 76.3476 62.057L77.4656 59.821ZM79.0085 34.4872C81.9852 28.5337 85.754 23.7484 89.3893 20.8092C93.1204 17.7926 96.2907 17.023 98.3498 18.0526L99.4678 15.8165C95.9946 14.0799 91.6936 15.7313 87.8175 18.8652C83.8456 22.0765 79.8714 27.1711 76.7724 33.3691L79.0085 34.4872Z" fill="url(#paint0_linear_4_1570)"/>
<defs>
<linearGradient id="paint0_linear_4_1570" x1="95.8662" y1="16.3667" x2="95.8662" y2="175.908" gradientUnits="userSpaceOnUse">
<stop stop-color="#FFBE4F"/>
<stop offset="1" stop-color="#93C437"/>
</linearGradient>
</defs>
</svg>
