<svg width="329" height="329" viewBox="0 0 329 329" fill="none" xmlns="http://www.w3.org/2000/svg">
<path d="M261.234 148.683C261.234 174.428 240.364 195.298 214.619 195.298C188.874 195.298 168.004 174.428 168.004 148.683C168.004 122.938 188.874 102.068 214.619 102.068M122.027 158.047L125.51 168.469C127.252 173.679 125.51 175.416 122.027 175.416H116.801C112.881 175.416 109.572 178.022 108.439 181.583C108.004 183.059 106.61 184.101 105.13 184.101C101.036 184.101 97.6394 180.801 97.6394 176.632V159.784C97.6394 154.052 92.9362 149.362 87.1878 149.362H82.0491C81.0039 149.362 80.2201 148.494 80.3072 147.538C81.2652 132.774 93.8072 121.224 108.875 121.658C124.03 122.092 135.962 134.859 135.962 150.057V180.627C135.962 192.004 126.643 201.557 115.233 201.644C94.4168 201.731 76.9975 179.498 76.7362 163.779C76.6491 161 78.6523 158.481 81.4394 158.221C84.5749 157.873 87.1878 160.305 87.1878 163.431C87.1878 163.431 87.1878 187.749 87.1878 198.17C87.1878 208.592 83.7039 208.592 73.2523 212.066C62.8007 215.54 73.2523 212.066 62.8007 215.54C52.3491 219.014 41.2105 223.267 37.4813 234.455L34.8905 245.854C33.8298 250.521 37.3773 254.965 42.1635 254.965H152.155M94.3518 210.545C94.3518 219.122 101.256 226.14 109.695 226.14C116.855 226.14 122.736 221.201 124.526 214.573C125.166 212.234 127.083 210.545 129.513 210.545H145.751C156.107 210.545 165.569 215.743 171.322 224.451L185.802 247.533C189.254 252.861 196.67 253.771 201.273 249.353L228.251 231.338L229.785 223.281C230.424 220.162 232.47 217.433 235.283 216.003L246.918 210.025C249.092 208.855 251.904 210.025 252.672 212.494C253.183 214.313 252.544 216.393 250.882 217.433L242.187 223.411C242.187 223.411 244.039 232.82 239.077 238.829C237.28 241.005 235.102 242.934 233.796 245.436L228.251 255.899M39.947 207.419V90.0408C39.947 80.8109 47.4987 73.2593 56.7285 73.2593H278.617C287.847 73.2593 295.398 80.8109 295.398 90.0408V239.209C295.398 248.439 287.94 255.991 279.549 255.991H244.453M219.414 92.7446H218.348C216.288 92.7446 214.619 94.4143 214.619 96.4738V144.954C214.619 147.013 216.288 148.683 218.348 148.683H266.828C268.888 148.683 270.557 147.013 270.557 144.954V143.888C270.557 115.642 247.659 92.7446 219.414 92.7446Z" stroke="white" stroke-width="2.5" stroke-miterlimit="10" stroke-linecap="round" stroke-linejoin="round"/>
<path d="M110.201 162.667C111.746 162.667 112.998 161.415 112.998 159.87C112.998 158.325 111.746 157.073 110.201 157.073C108.657 157.073 107.404 158.325 107.404 159.87C107.404 161.415 108.657 162.667 110.201 162.667Z" fill="white"/>
</svg>
