<svg width="320" height="320" viewBox="0 0 320 320" fill="none" xmlns="http://www.w3.org/2000/svg">
<path d="M256.233 143.683C256.233 169.428 235.363 190.298 209.618 190.298C183.873 190.298 163.003 169.428 163.003 143.683C163.003 117.938 183.873 97.0677 209.618 97.0677M117.026 153.047L120.51 163.469C122.252 168.679 120.51 170.416 117.026 170.416H111.8C107.881 170.416 104.571 173.022 103.439 176.583C103.003 178.059 101.61 179.101 100.129 179.101C96.0355 179.101 92.6387 175.801 92.6387 171.632V154.784C92.6387 149.052 87.9355 144.362 82.1871 144.362H77.0484C76.0032 144.362 75.2193 143.494 75.3064 142.538C76.2645 127.774 88.8064 116.224 103.874 116.658C119.029 117.092 130.961 129.859 130.961 145.057V175.627C130.961 187.004 121.642 196.557 110.232 196.644C89.4161 196.731 71.9967 174.498 71.7354 158.779C71.6484 156 73.6516 153.481 76.4387 153.221C79.5742 152.873 82.1871 155.305 82.1871 158.431C82.1871 158.431 82.1871 182.749 82.1871 193.17C82.1871 203.592 78.7032 203.592 68.2516 207.066C57.8 210.54 68.2516 207.066 57.8 210.54C47.3483 214.014 36.2098 218.267 32.4805 229.455L29.8898 240.854C28.8291 245.521 32.3765 249.965 37.1627 249.965H147.154M89.3511 205.545C89.3511 214.122 96.2554 221.14 104.694 221.14C111.854 221.14 117.735 216.201 119.526 209.573C120.165 207.234 122.083 205.545 124.512 205.545H140.75C151.106 205.545 160.568 210.743 166.321 219.451L180.801 242.533C184.253 247.861 191.669 248.771 196.272 244.353L223.25 226.338L224.784 218.281C225.424 215.162 227.469 212.433 230.282 211.003L241.917 205.025C244.091 203.855 246.904 205.025 247.671 207.494C248.182 209.313 247.543 211.393 245.881 212.433L237.187 218.411C237.187 218.411 239.038 227.82 234.077 233.829C232.28 236.005 230.101 237.934 228.796 240.436L223.25 250.899M34.9463 202.419V85.0408C34.9463 75.8109 42.498 68.2593 51.7278 68.2593H273.616C282.846 68.2593 290.398 75.8109 290.398 85.0408V234.209C290.398 243.439 282.939 250.991 274.548 250.991H239.452M214.413 87.7446H213.347C211.288 87.7446 209.618 89.4143 209.618 91.4738V139.954C209.618 142.013 211.288 143.683 213.347 143.683H261.827C263.887 143.683 265.556 142.013 265.556 139.954V138.888C265.556 110.642 242.659 87.7446 214.413 87.7446Z" stroke="url(#paint0_linear_3240_2560)" stroke-width="2.5" stroke-miterlimit="10" stroke-linecap="round" stroke-linejoin="round"/>
<path d="M105.201 157.667C106.746 157.667 107.998 156.415 107.998 154.87C107.998 153.325 106.746 152.073 105.201 152.073C103.657 152.073 102.404 153.325 102.404 154.87C102.404 156.415 103.657 157.667 105.201 157.667Z" fill="url(#paint1_linear_3240_2560)"/>
<defs>
<linearGradient id="paint0_linear_3240_2560" x1="160.049" y1="68.2593" x2="160.049" y2="250.991" gradientUnits="userSpaceOnUse">
<stop stop-color="#3CC29A"/>
<stop offset="1" stop-color="#93C437"/>
</linearGradient>
<linearGradient id="paint1_linear_3240_2560" x1="105.201" y1="152.073" x2="105.201" y2="157.667" gradientUnits="userSpaceOnUse">
<stop stop-color="#3CC29A"/>
<stop offset="1" stop-color="#93C437"/>
</linearGradient>
</defs>
</svg>
