<svg width="120" height="120" viewBox="0 0 120 120" fill="none" xmlns="http://www.w3.org/2000/svg">
<path d="M80.9403 81.1094C76.5399 76.7764 69.3046 77.169 64.4706 82.0054L59.7675 86.7085C58.7795 87.694 57.5218 88.365 56.153 88.6368C54.7843 88.9086 53.3657 88.7691 52.0761 88.2359C51.9241 88.1735 51.7614 88.1416 51.5971 88.1421C51.4328 88.1426 51.2703 88.1755 51.1187 88.2389C50.9672 88.3023 50.8296 88.395 50.7139 88.5116C50.5982 88.6282 50.5066 88.7664 50.4443 88.9184C50.3821 89.0705 50.3504 89.2333 50.3511 89.3975C50.3519 89.5618 50.3849 89.7243 50.4485 89.8758C50.5121 90.0272 50.6049 90.1647 50.7216 90.2803C50.8383 90.3959 50.9767 90.4873 51.1288 90.5494C52.8742 91.2702 54.794 91.458 56.646 91.0891C58.498 90.7201 60.1992 89.8109 61.5351 88.4761L66.2382 83.773C70.0888 79.921 75.7753 79.5338 79.1513 82.8541L87.0604 91.3033C88.8231 93.066 89.8134 95.4567 89.8134 97.9496C89.8134 100.442 88.8231 102.833 87.0604 104.596L83.6649 107.992C82.7904 108.881 81.7447 109.584 80.5911 110.057C79.4375 110.531 78.1999 110.765 76.953 110.747C58.7987 110.342 41.5301 102.821 28.8669 89.8065C16.2037 76.7917 9.15921 59.3236 9.2509 41.165C9.24778 39.9209 9.4899 38.6884 9.96344 37.5379C10.437 36.3874 11.1326 35.3415 12.0106 34.46L14.4676 32.003C16.2317 30.2428 18.6221 29.2542 21.1141 29.2542C23.6062 29.2542 25.9965 30.2428 27.7606 32.003L35.2909 39.5332C37.0507 41.2975 38.0389 43.6876 38.0389 46.1795C38.0389 48.6713 37.0507 51.0615 35.2909 52.8257L31.0009 57.1157C29.7301 58.3945 28.845 60.0052 28.4469 61.7635C28.0488 63.5218 28.1538 65.3567 28.7499 67.0581C28.8046 67.2129 28.8892 67.3554 28.999 67.4775C29.1088 67.5996 29.2415 67.6988 29.3896 67.7696C29.6888 67.9125 30.0325 67.9308 30.3451 67.8203C30.4999 67.7656 30.6424 67.681 30.7645 67.5712C30.8866 67.4614 30.9858 67.3287 31.0566 67.1806C31.1274 67.0324 31.1683 66.8718 31.177 66.7079C31.1857 66.5439 31.162 66.3799 31.1073 66.2251C30.6672 64.9688 30.5895 63.614 30.8833 62.3156C31.177 61.0172 31.8304 59.8278 32.7685 58.8833L37.0585 54.5933C39.2863 52.3599 40.5375 49.3341 40.5375 46.1795C40.5375 43.0249 39.2863 39.9991 37.0585 37.7657L29.5282 30.2354C27.2949 28.0071 24.2689 26.7557 21.1141 26.7557C17.9593 26.7557 14.9333 28.0071 12.7001 30.2354L10.2431 32.6924C9.13356 33.8042 8.25407 35.1237 7.65486 36.5756C7.05565 38.0274 6.74847 39.5832 6.7509 41.1539C6.65658 59.9676 13.9555 78.0657 27.0756 91.5501C40.1957 105.034 58.0871 112.826 76.8964 113.247C76.9794 113.249 77.0624 113.25 77.1454 113.25C80.26 113.225 83.2386 111.971 85.4325 109.76L88.828 106.363C91.0547 104.137 92.308 101.119 92.3134 97.9703C92.3187 94.8216 91.0755 91.7992 88.8563 89.5655L80.9403 81.1094Z" fill="black"/>
<path d="M107.446 54.6607C105.706 49.3155 99.8905 45.125 92.6318 43.9849C88.8418 43.4421 84.9839 43.6086 81.2547 44.4761C81.2645 37.0884 85.5047 26.6456 104.558 17.1182C104.705 17.0449 104.836 16.9433 104.944 16.8193C105.051 16.6954 105.134 16.5514 105.186 16.3957C105.237 16.24 105.258 16.0756 105.247 15.9119C105.235 15.7481 105.191 15.5883 105.118 15.4415C105.045 15.2946 104.943 15.1637 104.819 15.0561C104.695 14.9485 104.551 14.8664 104.396 14.8144C104.081 14.7095 103.738 14.7337 103.441 14.8819C82.7206 25.2422 78.5341 36.959 78.7636 45.1109C69.5601 47.7807 57.4037 54.9012 44.2499 72.209V57C44.2499 56.6685 44.1182 56.3506 43.8838 56.1162C43.6494 55.8817 43.3314 55.75 42.9999 55.75C42.6684 55.75 42.3504 55.8817 42.116 56.1162C41.8816 56.3506 41.7499 56.6685 41.7499 57V76C41.7499 76.1642 41.7822 76.3268 41.845 76.4784C41.9078 76.6301 41.9999 76.7679 42.116 76.884C42.2321 77 42.3699 77.0921 42.5215 77.1549C42.6732 77.2177 42.8357 77.2501 42.9999 77.25H61.9999C62.3314 77.25 62.6494 77.1183 62.8838 76.8839C63.1182 76.6495 63.2499 76.3316 63.2499 76C63.2499 75.6685 63.1182 75.3506 62.8838 75.1162C62.6494 74.8817 62.3314 74.75 61.9999 74.75H45.4637C58.3383 57.4548 70.1157 50.3298 78.9814 47.6387C79.6386 51.7351 81.3248 55.5977 83.882 58.8646C86.4392 62.1316 89.7838 64.6961 93.6024 66.3179C98.1142 68.0621 102.227 67.5406 104.884 64.8838C106.242 63.6019 107.205 61.9582 107.659 60.1467C108.113 58.3352 108.039 56.4316 107.446 54.6607ZM103.116 63.1163C101.19 65.0411 98.0497 65.3575 94.5038 63.9859C91.0654 62.4872 88.0622 60.1427 85.7739 57.1708C83.4857 54.1988 81.9868 50.6961 81.4169 46.9888C84.9592 46.1244 88.6339 45.9431 92.2441 46.4546C98.5829 47.4502 103.617 50.9751 105.069 55.4346C105.522 56.7667 105.578 58.2015 105.231 59.5649C104.885 60.9284 104.15 62.162 103.116 63.1163Z" fill="black"/>
</svg>
