<svg width="321" height="320" viewBox="0 0 321 320" fill="none" xmlns="http://www.w3.org/2000/svg">
<path d="M177.027 230.8H74.0274C64.8274 230.8 57.3274 223.3 57.2274 214V176C57.2274 170.1 62.0274 165.3 68.0274 165.2H104.027C109.127 165.2 113.227 161.1 113.227 156V100C113.227 94.9 109.127 90.8 104.027 90.8H24.0274C18.9274 90.8 14.8274 94.9 14.8274 100V156C14.8274 161.1 18.9274 165.2 24.0274 165.2H44.0274C51.3274 165.2 57.2274 159.3 57.2274 152V150.1C60.3274 152.1 64.0274 153.2 67.7274 153.3C74.0274 153.4 79.1274 148.3 79.2274 142.1V128C79.2274 122.9 75.1274 118.8 70.0274 118.8H68.0274C62.9274 118.8 58.8274 122.9 58.8274 128C58.8274 128.7 59.4274 129.2 60.0274 129.2C60.6274 129.2 61.2274 128.6 61.2274 128C61.2274 124.3 64.2274 121.3 68.0274 121.2H70.0274C73.7274 121.2 76.7274 124.2 76.8274 128V141.9C76.8274 146.8 72.8274 150.8 67.9274 150.8H67.8274C64.0274 150.8 60.3274 149.4 57.3274 147V135C57.3274 132.7 55.4274 130.7 53.0274 130.7C52.8274 130.7 52.5274 130.7 52.3274 130.8C50.3274 131.2 48.8274 133 48.8274 135.1C48.9274 139.7 50.8274 144 54.0274 147.3C54.3274 147.6 54.5274 147.8 54.8274 148.1V152C54.8274 157.9 50.0274 162.7 44.0274 162.8H24.0274C20.3274 162.8 17.3274 159.8 17.2274 156V100C17.2274 96.3 20.2274 93.3 24.0274 93.2H104.027C107.727 93.2 110.727 96.2 110.827 100V156C110.827 159.7 107.827 162.7 104.027 162.8H68.0274C60.7274 162.8 54.8274 168.7 54.8274 176V214C54.8274 224.6 63.4274 233.2 74.0274 233.2H177.027C177.727 233.2 178.227 232.6 178.227 232C178.227 231.4 177.727 230.8 177.027 230.8ZM51.2274 135.1C51.2274 134.3 51.8274 133.5 52.6274 133.3C52.7274 133.3 52.8274 133.3 52.9274 133.3C53.3274 133.3 53.7274 133.4 54.0274 133.7C54.4274 134 54.6274 134.5 54.6274 135V144.4C52.6274 141.8 51.3274 138.5 51.2274 135.1Z" fill="url(#paint0_linear_4_210)"/>
<path d="M70.0274 138.8H69.0274C68.3274 138.8 67.8274 139.4 67.8274 140C67.8274 140.6 68.4274 141.2 69.0274 141.2H70.0274C71.1274 141.2 72.3274 141 73.0274 140C73.7274 139 73.6274 137.6 73.2274 136.5L71.2274 130.5C71.0274 129.8 70.3274 129.5 69.6274 129.7C68.9274 129.9 68.6274 130.6 68.8274 131.3L70.8274 137.3C71.1274 138.2 71.1274 138.3 71.0274 138.5C70.8274 138.8 70.2274 138.8 70.0274 138.8Z" fill="url(#paint1_linear_4_210)"/>
<path d="M168.027 205.2C181.027 205.2 191.827 195.4 193.127 182.6C193.127 182.4 193.227 182.2 193.427 182.1C193.627 182 193.827 181.9 194.127 182L216.327 189.4C224.127 192 233.927 195.2 239.027 201.8C239.427 202.3 240.227 202.4 240.827 202C241.327 201.6 241.427 200.8 241.027 200.2C235.427 193.1 225.327 189.7 217.127 187L194.927 179.6C194.027 179.3 192.927 179.4 192.127 180C191.327 180.5 190.827 181.4 190.727 182.3C189.527 193.9 179.727 202.7 168.127 202.7C158.127 202.7 149.327 196.1 146.327 186.6C146.127 185.9 145.427 185.6 144.727 185.8C144.027 186 143.727 186.7 143.927 187.4C147.127 198 156.927 205.2 168.027 205.2Z" fill="url(#paint2_linear_4_210)"/>
<path d="M134.927 181.7C133.927 182 132.827 182.4 131.627 182.8L118.927 187C107.027 191 90.8274 196.4 90.8274 212.9C90.8274 213.6 91.4274 214.1 92.0274 214.1C92.6274 214.1 93.2274 213.5 93.2274 212.9C93.2274 198.1 107.927 193.2 119.627 189.3L132.327 185.1C133.527 184.7 134.527 184.4 135.627 184C145.227 180.9 149.227 179.6 149.227 167.9V158.8C157.227 167.1 167.927 173.2 179.927 173.2H180.127C194.027 173 205.227 161.7 205.227 147.8V112.6C205.227 94.4 190.727 79.2 172.927 78.7C155.027 78.2 139.927 91.9 138.827 109.7C138.727 111.5 140.027 113 141.827 113.2C141.927 113.2 141.927 113.2 142.027 113.2H147.927C153.827 113.2 158.627 118 158.727 124V143.4C158.727 148.8 163.127 153.2 168.527 153.2C170.827 153.2 172.927 151.7 173.527 149.4C174.627 145.7 178.027 143.2 181.927 143.2H187.927C190.327 143.2 192.027 142.5 193.027 141.1C194.227 139.4 194.227 137 193.127 133.5L189.127 121.5C188.927 120.8 188.227 120.5 187.527 120.7C186.827 120.9 186.527 121.6 186.727 122.3L190.727 134.3C191.627 136.9 191.727 138.7 191.027 139.6C190.527 140.3 189.527 140.6 187.927 140.6H181.927C176.927 140.6 172.627 143.9 171.127 148.6C170.827 149.8 169.727 150.6 168.527 150.6C164.427 150.6 161.227 147.3 161.227 143.3V124C161.227 116.7 155.327 110.8 148.027 110.8H142.127C141.727 110.8 141.327 110.5 141.327 110C142.327 93.8 155.827 81.3 172.027 81.3C172.327 81.3 172.627 81.3 172.927 81.3C189.427 81.8 202.827 95.8 202.827 112.7V147.9C202.827 160.4 192.827 170.7 180.227 170.8H180.027C169.527 170.8 158.927 165.6 150.227 156.2C149.927 155.9 149.627 155.5 149.327 155.2V128C149.327 124 146.127 120.7 142.027 120.7C141.827 120.7 141.527 120.7 141.327 120.7C137.527 121.2 134.727 124.5 134.827 128.4C134.927 136.8 139.427 147.3 146.827 156V168C146.827 177.9 144.227 178.7 134.927 181.7ZM137.327 128.4C137.227 125.9 139.027 123.6 141.527 123.3C141.727 123.3 141.827 123.3 142.027 123.3C143.227 123.3 144.327 123.7 145.227 124.5C146.227 125.4 146.827 126.7 146.827 128V152.1C140.927 144.5 137.427 135.8 137.327 128.4Z" fill="url(#paint3_linear_4_210)"/>
<path d="M56.0274 86.2C56.7274 86.2 57.2274 85.6 57.2274 85V82C57.2274 72.8 64.7274 65.3 74.0274 65.2C74.7274 65.2 75.2274 64.6 75.2274 64C75.2274 63.3 74.6274 62.8 74.0274 62.8C63.4274 62.8 54.8274 71.4 54.8274 82V85C54.7274 85.7 55.3274 86.2 56.0274 86.2Z" fill="url(#paint4_linear_4_210)"/>
<path d="M146.027 65.2H220.027C221.527 65.2 222.727 66.4 222.827 68V96C222.827 101.1 226.927 105.2 232.027 105.2H266.027C268.927 105.2 271.227 102.8 271.227 100V92.1C271.527 91.8 271.727 91.6 272.027 91.3C275.227 88 277.127 83.7 277.227 79.1C277.227 77 275.727 75.2 273.727 74.8C271.427 74.4 269.227 75.9 268.827 78.3C268.827 78.5 268.727 78.8 268.727 79V90.9C265.727 93.3 262.027 94.6 258.227 94.7H258.127C253.227 94.7 249.227 90.7 249.227 85.8V72C249.227 68.3 252.227 65.3 255.927 65.2C258.827 65.2 260.327 66.9 262.027 68.8C263.827 70.9 265.927 73.2 269.927 73.2C270.627 73.2 271.127 72.6 271.127 72C271.127 71.4 270.527 70.8 269.927 70.8C267.027 70.8 265.527 69.1 263.827 67.2C262.027 65.1 259.927 62.8 255.927 62.8C250.827 62.8 246.727 66.9 246.727 72V85.9C246.727 92.2 251.827 97.3 258.127 97.3H258.227C261.927 97.3 265.627 96.2 268.727 94.1V100C268.727 101.5 267.527 102.7 265.927 102.8H231.927C228.227 102.8 225.227 99.8 225.127 96V68C225.127 65.1 222.727 62.8 219.927 62.8H145.927C145.227 62.8 144.727 63.4 144.727 64C144.827 64.7 145.327 65.2 146.027 65.2ZM271.227 79C271.227 78.5 271.427 78 271.827 77.7C272.127 77.4 272.527 77.3 272.927 77.3C273.927 77.3 274.627 78.1 274.727 79V79.1C274.727 82.5 273.427 85.9 271.227 88.5V79Z" fill="url(#paint5_linear_4_210)"/>
<path d="M257.227 75.4C257.427 74.7 257.127 74 256.427 73.8C255.727 73.6 255.027 73.9 254.827 74.6L252.827 80.6C252.427 81.7 252.227 83.1 253.027 84.1C253.727 85 254.927 85.3 256.027 85.3H257.027C257.727 85.3 258.227 84.7 258.227 84.1C258.227 83.5 257.627 82.9 257.027 82.9H256.027C255.827 82.9 255.127 82.9 255.027 82.8C254.927 82.7 254.927 82.5 255.227 81.6L257.227 75.4Z" fill="url(#paint6_linear_4_210)"/>
<path d="M267.127 64.8C268.927 66.9 271.027 69.2 275.027 69.2C275.727 69.2 276.227 68.6 276.227 68C276.227 67.4 275.627 66.8 275.027 66.8C272.127 66.8 270.627 65.1 268.927 63.2C267.127 61.1 265.027 58.8 261.027 58.8C260.327 58.8 259.827 59.4 259.827 60C259.827 60.6 260.427 61.2 261.027 61.2C263.927 61.2 265.427 62.9 267.127 64.8Z" fill="url(#paint7_linear_4_210)"/>
<path d="M292.027 206.8H283.027C282.327 206.8 281.827 207.4 281.827 208C281.827 208.6 282.427 209.2 283.027 209.2H292.027C297.927 209.2 302.727 214 302.827 220V284C302.827 289.9 298.027 294.7 292.027 294.8H266.027C260.127 294.8 255.327 290 255.227 284.1V271.6C259.927 267.1 263.027 261.8 263.227 257.6C263.427 254.8 261.327 252.2 258.527 251.9C255.627 251.6 253.027 253.7 252.727 256.6C252.727 256.8 252.727 257 252.727 257.1V270.5C247.627 275.2 240.527 278.9 232.727 278.8C225.227 278.7 219.227 272.5 219.227 265.1V258.1C220.727 258.5 222.327 258.4 223.727 257.8C223.227 259.1 223.227 260.6 224.127 261.7C225.027 262.9 226.527 263.4 228.027 263.4H230.027C230.727 263.4 231.227 262.8 231.227 262.2C231.227 261.6 230.627 261 230.027 261H228.027C227.327 261 226.627 260.9 226.227 260.4C225.927 259.9 226.027 259.3 226.227 258.7L228.227 252.7H228.127V252.6H230.827C231.527 256.5 235.227 259.2 239.227 258.5C243.127 257.8 245.827 254.1 245.127 250.1C244.427 246.1 240.727 243.5 236.727 244.2C233.727 244.7 231.327 247.1 230.827 250.1H228.127C227.427 246.2 223.727 243.5 219.727 244.2C215.827 244.9 213.127 248.6 213.827 252.6C214.127 254.5 215.227 256.1 216.727 257.2V265.3C216.727 274.2 223.827 281.4 232.727 281.5C240.227 281.6 247.327 278.4 252.827 274V284.3C252.827 291.6 258.727 297.5 266.027 297.5H292.027C299.327 297.5 305.227 291.6 305.227 284.3V220.3C305.227 212.7 299.327 206.8 292.027 206.8ZM238.027 246.2C240.627 246.2 242.827 248.3 242.827 251C242.827 253.7 240.727 255.8 238.027 255.8C235.327 255.8 233.227 253.7 233.227 251C233.327 248.4 235.427 246.3 238.027 246.2ZM221.027 246.2C223.627 246.2 225.827 248.3 225.827 251C225.827 253.7 223.727 255.8 221.027 255.8C218.327 255.8 216.227 253.7 216.227 251C216.327 248.4 218.427 246.3 221.027 246.2ZM255.227 257C255.227 256.2 255.527 255.5 256.127 255C256.627 254.5 257.327 254.3 257.927 254.3C258.027 254.3 258.127 254.3 258.227 254.3C259.727 254.6 260.727 255.9 260.727 257.4C260.527 260.2 258.527 264.2 255.227 267.9V257Z" fill="url(#paint8_linear_4_210)"/>
<path d="M250.027 294.8H196.027C190.127 294.8 185.327 290 185.227 284V220C185.227 214.1 190.027 209.3 196.027 209.2H268.027C275.327 209.2 281.227 203.3 281.227 196V108C281.227 106.5 282.427 105.3 284.027 105.2H288.027C293.127 105.2 297.227 101.1 297.227 96V56C297.227 50.9 293.127 46.8 288.027 46.8H232.027C226.927 46.8 222.827 50.9 222.827 56V57C222.827 57.7 223.427 58.2 224.027 58.2C224.627 58.2 225.227 57.6 225.227 57V56C225.227 52.3 228.227 49.3 232.027 49.2H288.027C291.727 49.2 294.727 52.2 294.827 56V96C294.827 99.7 291.827 102.7 288.027 102.8H284.027C281.127 102.8 278.827 105.2 278.827 108V196C278.827 201.9 274.027 206.7 268.027 206.8H196.027C188.727 206.8 182.827 212.7 182.827 220V284C182.827 291.3 188.727 297.2 196.027 297.2H250.027C250.727 297.2 251.227 296.6 251.227 296C251.227 295.4 250.727 294.8 250.027 294.8Z" fill="url(#paint9_linear_4_210)"/>
<path d="M269.227 251.9C269.827 252.5 270.627 252.8 271.427 252.8C271.727 252.8 272.027 252.8 272.327 252.7C280.427 250.3 285.027 241.8 282.627 233.7C280.227 225.6 271.727 221 263.627 223.4C262.927 223.6 262.227 223.9 261.527 224.2C257.127 220.7 251.627 218.8 245.927 218.8H235.927C225.327 218.8 216.727 227.4 216.727 238C216.727 239.8 218.227 241.2 219.927 241.2H249.927C250.627 241.2 251.127 240.6 251.127 240C251.127 239.4 250.527 238.8 249.927 238.8H219.927C219.527 238.8 219.227 238.5 219.127 238C219.127 228.8 226.627 221.3 235.927 221.2H245.927C258.527 221.2 268.727 231.4 268.727 244C268.727 245.6 268.527 247.2 268.227 248.8C268.027 249.9 268.427 251.1 269.227 251.9ZM263.727 226C270.327 223.6 277.627 227.1 280.027 233.7C280.327 234.6 280.527 235.5 280.727 236.4C281.527 242.6 277.727 248.5 271.727 250.2C271.427 250.3 271.227 250.2 271.027 250C270.827 249.8 270.727 249.5 270.827 249.3C272.527 240.9 269.927 232.1 263.727 226Z" fill="url(#paint10_linear_4_210)"/>
<path d="M61.0274 105.2C69.6274 105.2 77.0274 111 79.2274 119.3C79.4274 120 80.1274 120.4 80.7274 120.2C81.4274 120 81.8274 119.3 81.6274 118.7C78.7274 107.3 67.1274 100.5 55.7274 103.4C44.3274 106.3 37.5274 117.9 40.4274 129.3C41.0274 131.6 41.9274 133.7 43.2274 135.7C43.6274 136.3 44.4274 136.4 44.9274 136.1C45.4274 135.8 45.6274 134.9 45.3274 134.4C39.6274 125.7 42.0274 114.1 50.7274 108.4C53.8274 106.3 57.3274 105.3 61.0274 105.2Z" fill="url(#paint11_linear_4_210)"/>
<path d="M109.027 84.2C113.327 84.2 117.427 83 121.027 80.6C123.727 83.8 127.627 85.8 131.927 86.1C132.327 86.1 132.727 86.1 133.027 86.1C134.427 86.1 135.827 85.9 137.227 85.4C138.327 85 139.127 84 139.227 82.8C139.327 81.6 138.827 80.4 137.827 79.7C136.227 78.6 135.327 76.8 135.327 74.9C135.327 73.2 136.127 71.6 137.227 69.5C139.027 66.4 140.227 63 140.827 59.4C142.327 50.7 140.127 41.7 134.727 34.7C129.427 27.8 121.427 23.4 112.827 22.7C95.6274 21.2 80.4274 33.9 78.9274 51.1C78.7274 53.8 78.8274 56.4 79.2274 59.1C81.5274 73.5 94.3274 84.2 109.027 84.2ZM121.527 77C120.927 75.8 120.527 74.5 120.327 73.1C120.027 71.9 120.227 70.7 120.827 69.7C121.127 69.4 121.527 69.2 121.927 69.2C123.427 69.2 123.727 70.9 123.727 72C123.627 73.9 122.927 75.6 121.527 77ZM88.9274 34.5C94.9274 28 103.727 24.6 112.527 25.4C120.527 26 127.827 30 132.727 36.4C137.727 42.9 139.727 51.1 138.327 59.1C137.727 62.4 136.527 65.5 134.927 68.5C133.727 70.8 132.727 72.8 132.727 75C132.727 77.7 134.127 80.3 136.327 81.8C136.627 82 136.727 82.3 136.727 82.6C136.727 82.9 136.527 83.1 136.327 83.2C134.927 83.7 133.527 83.9 132.027 83.7C128.527 83.5 125.227 81.8 122.927 79.1C124.927 77.3 126.127 74.7 126.227 72C126.227 68.1 123.927 66.8 122.027 66.8C120.927 66.8 119.827 67.3 119.027 68.1C118.327 68.9 117.527 70.5 117.827 73.5C118.027 75.3 118.627 77.1 119.627 78.7C116.527 80.8 112.827 81.9 109.027 81.8C95.5274 81.8 84.0274 72.1 81.6274 58.9C80.1274 50 82.8274 41 88.9274 34.5Z" fill="url(#paint12_linear_4_210)"/>
<path d="M176.027 128C177.132 128 178.027 127.105 178.027 126C178.027 124.895 177.132 124 176.027 124C174.923 124 174.027 124.895 174.027 126C174.027 127.105 174.923 128 176.027 128Z" fill="#FCAA43"/>
<path d="M102.027 56C103.132 56 104.027 55.1046 104.027 54C104.027 52.8954 103.132 52 102.027 52C100.923 52 100.027 52.8954 100.027 54C100.027 55.1046 100.923 56 102.027 56Z" fill="#FCAA43"/>
<path d="M110.027 56C111.132 56 112.027 55.1046 112.027 54C112.027 52.8954 111.132 52 110.027 52C108.923 52 108.027 52.8954 108.027 54C108.027 55.1046 108.923 56 110.027 56Z" fill="#FCAA43"/>
<path d="M118.027 56C119.132 56 120.027 55.1046 120.027 54C120.027 52.8954 119.132 52 118.027 52C116.923 52 116.027 52.8954 116.027 54C116.027 55.1046 116.923 56 118.027 56Z" fill="#FCAA43"/>
<defs>
<linearGradient id="paint0_linear_4_210" x1="160.027" y1="22.5797" x2="160.027" y2="297.5" gradientUnits="userSpaceOnUse">
<stop stop-color="#FFBE4F"/>
<stop offset="1" stop-color="#F26B1D"/>
</linearGradient>
<linearGradient id="paint1_linear_4_210" x1="160.027" y1="22.5797" x2="160.027" y2="297.5" gradientUnits="userSpaceOnUse">
<stop stop-color="#FFBE4F"/>
<stop offset="1" stop-color="#F26B1D"/>
</linearGradient>
<linearGradient id="paint2_linear_4_210" x1="160.027" y1="22.5797" x2="160.027" y2="297.5" gradientUnits="userSpaceOnUse">
<stop stop-color="#FFBE4F"/>
<stop offset="1" stop-color="#F26B1D"/>
</linearGradient>
<linearGradient id="paint3_linear_4_210" x1="160.027" y1="22.5797" x2="160.027" y2="297.5" gradientUnits="userSpaceOnUse">
<stop stop-color="#FFBE4F"/>
<stop offset="1" stop-color="#F26B1D"/>
</linearGradient>
<linearGradient id="paint4_linear_4_210" x1="160.027" y1="22.5797" x2="160.027" y2="297.5" gradientUnits="userSpaceOnUse">
<stop stop-color="#FFBE4F"/>
<stop offset="1" stop-color="#F26B1D"/>
</linearGradient>
<linearGradient id="paint5_linear_4_210" x1="160.027" y1="22.5797" x2="160.027" y2="297.5" gradientUnits="userSpaceOnUse">
<stop stop-color="#FFBE4F"/>
<stop offset="1" stop-color="#F26B1D"/>
</linearGradient>
<linearGradient id="paint6_linear_4_210" x1="160.027" y1="22.5797" x2="160.027" y2="297.5" gradientUnits="userSpaceOnUse">
<stop stop-color="#FFBE4F"/>
<stop offset="1" stop-color="#F26B1D"/>
</linearGradient>
<linearGradient id="paint7_linear_4_210" x1="160.027" y1="22.5797" x2="160.027" y2="297.5" gradientUnits="userSpaceOnUse">
<stop stop-color="#FFBE4F"/>
<stop offset="1" stop-color="#F26B1D"/>
</linearGradient>
<linearGradient id="paint8_linear_4_210" x1="160.027" y1="22.5797" x2="160.027" y2="297.5" gradientUnits="userSpaceOnUse">
<stop stop-color="#FFBE4F"/>
<stop offset="1" stop-color="#F26B1D"/>
</linearGradient>
<linearGradient id="paint9_linear_4_210" x1="160.027" y1="22.5797" x2="160.027" y2="297.5" gradientUnits="userSpaceOnUse">
<stop stop-color="#FFBE4F"/>
<stop offset="1" stop-color="#F26B1D"/>
</linearGradient>
<linearGradient id="paint10_linear_4_210" x1="160.027" y1="22.5797" x2="160.027" y2="297.5" gradientUnits="userSpaceOnUse">
<stop stop-color="#FFBE4F"/>
<stop offset="1" stop-color="#F26B1D"/>
</linearGradient>
<linearGradient id="paint11_linear_4_210" x1="160.027" y1="22.5797" x2="160.027" y2="297.5" gradientUnits="userSpaceOnUse">
<stop stop-color="#FFBE4F"/>
<stop offset="1" stop-color="#F26B1D"/>
</linearGradient>
<linearGradient id="paint12_linear_4_210" x1="160.027" y1="22.5797" x2="160.027" y2="297.5" gradientUnits="userSpaceOnUse">
<stop stop-color="#FFBE4F"/>
<stop offset="1" stop-color="#F26B1D"/>
</linearGradient>
</defs>
</svg>
