<svg width="320" height="320" viewBox="0 0 320 320" fill="none" xmlns="http://www.w3.org/2000/svg">
<path d="M295.866 263C279.866 263 271.866 259 263.866 247L171.266 108C169.666 105.6 166.166 105.6 164.566 108L111.866 187L83.1662 144C81.5662 141.6 78.0662 141.6 76.4662 144L43.8662 193C31.8662 211 23.8662 223 23.8662 235C23.8662 251 43.8662 263 79.8662 263C147.866 263 215.866 239 215.866 215C215.866 191 143.866 199 143.866 179V153L159.866 161L149.866 166M118.866 203C118.866 207.4 115.766 211 111.866 211C107.966 211 104.866 207.4 104.866 203C104.866 199 106.566 195 109.866 190L111.966 187L113.866 190C117.166 195 118.866 199 118.866 203Z" stroke="url(#paint0_linear_3380_1646)" stroke-width="2.5" stroke-miterlimit="10" stroke-linecap="round" stroke-linejoin="round"/>
<defs>
<linearGradient id="paint0_linear_3380_1646" x1="159.866" y1="106.2" x2="159.866" y2="263" gradientUnits="userSpaceOnUse">
<stop stop-color="#93C437"/>
<stop offset="1" stop-color="#279BE8"/>
</linearGradient>
</defs>
</svg>
