<svg width="321" height="320" viewBox="0 0 321 320" fill="none" xmlns="http://www.w3.org/2000/svg">
<path d="M77.2546 166.8L57.2546 180.1C51.1546 184.2 48.1546 192.5 48.2546 198.5C48.2546 201.3 49.6546 204 51.8546 205.8C52.1546 206 52.3546 206.2 52.6546 206.4L160.355 278.1M267.255 208.1V216.1L270.755 218.4C271.955 219.2 271.955 220.9 270.755 221.7L177.255 284C165.255 292 165.255 268 177.255 260L270.755 197.7C271.955 196.9 271.955 195.2 270.755 194.4L243.255 176.1V168.1M160.355 222.1L76.7546 166.4C76.4546 166.2 76.2546 166 75.9546 165.8C73.7546 164 72.3546 161.3 72.3546 158.5C72.2546 152.5 75.2546 144.2 81.3546 140.1M243.255 184.1L177.255 228.1C165.255 236.1 165.255 212.1 177.255 204.1L246.755 157.8C247.955 157 247.955 155.3 246.755 154.5L195.255 120.2M195.255 120.1C153.255 92.1001 143.255 140.1 169.255 140.1C169.855 140.1 170.355 140.1 170.955 140C188.755 138.2 200.855 108.5 201.255 85.3001C201.455 72.0001 191.155 60.3001 177.855 60.1001C171.455 60.0001 165.555 62.3001 161.155 66.3001C158.955 68.3001 155.655 68.3001 153.455 66.3001C149.055 62.3001 143.155 59.9001 136.755 60.1001C124.055 60.4001 113.455 71.7001 113.355 84.4001C113.255 95.5001 116.055 105.4 119.955 113.4C120.155 113.8 120.055 114.4 119.655 114.7L81.3546 140.2M157.255 67.1001C157.255 46.1001 177.255 29.7001 198.255 28.2001C199.755 28.1001 200.755 29.6001 200.255 30.9001C191.255 52.3001 167.355 55.0001 167.355 55.0001" stroke="white" stroke-width="2.5" stroke-miterlimit="10" stroke-linecap="round" stroke-linejoin="round"/>
</svg>
