<svg width="120" height="120" viewBox="0 0 120 120" fill="none" xmlns="http://www.w3.org/2000/svg">
<path d="M62.866 80.2V84.2C62.866 95.2 71.866 104.2 82.866 104.2M62.866 80.2C69.4324 80.2 75.108 76.1911 77.5661 70.4999M62.866 80.2C50.066 80.2 46.866 70.4999 46.866 64.3V32.3C46.866 23.5 54.066 16.3 62.866 16.3C71.2285 16.3 78.1461 22.8018 78.8133 30.9999M86.866 104.2H38.866M77.9502 43.55V53.45M93.3502 54.35L83.1502 35.15C80.8502 30.95 74.8502 30.95 72.6502 35.15L58.7502 60.65C56.5502 64.65 59.4502 69.55 64.0502 69.55H77.7444M77.7444 69.55H92.9502C95.1502 69.55 96.9502 67.75 96.9502 65.55C96.9502 63.35 95.1502 61.55 92.9502 61.55C83.1021 61.55 78.7652 67.8008 77.7444 69.55ZM77.7444 69.55C77.5783 69.8346 77.5 70 77.5 70" stroke="url(#paint0_linear_4_1139)" stroke-width="2.5" stroke-miterlimit="10" stroke-linecap="round" stroke-linejoin="round"/>
<path d="M79.4502 59.45C79.4502 60.2784 78.7786 60.95 77.9502 60.95C77.1218 60.95 76.4502 60.2784 76.4502 59.45C76.4502 58.6215 77.1218 57.95 77.9502 57.95C78.7786 57.95 79.4502 58.6215 79.4502 59.45Z" fill="white" stroke="url(#paint1_linear_4_1139)"/>
<defs>
<linearGradient id="paint0_linear_4_1139" x1="67.9081" y1="16.3" x2="67.9081" y2="104.2" gradientUnits="userSpaceOnUse">
<stop stop-color="#F55868"/>
<stop offset="1" stop-color="#875AE0"/>
</linearGradient>
<linearGradient id="paint1_linear_4_1139" x1="77.9502" y1="57.45" x2="77.9502" y2="61.45" gradientUnits="userSpaceOnUse">
<stop stop-color="#F55868"/>
<stop offset="1" stop-color="#875AE0"/>
</linearGradient>
</defs>
</svg>
