<svg width="120" height="120" viewBox="0 0 120 120" fill="none" xmlns="http://www.w3.org/2000/svg">
<path d="M63.6924 45.6162C63.2042 45.1281 62.4128 45.1281 61.9246 45.6162C61.4365 46.1044 61.4365 46.8958 61.9246 47.384L63.6924 45.6162ZM71.9304 55.622L72.8141 56.5061C73.0486 56.2717 73.1804 55.9537 73.1804 55.6222C73.1805 55.2906 73.0488 54.9726 72.8143 54.7382L71.9304 55.622ZM61.9248 63.8567C61.4365 64.3447 61.4364 65.1362 61.9244 65.6244C62.4125 66.1127 63.204 66.1128 63.6922 65.6248L61.9248 63.8567ZM71.1195 56.8852C71.8099 56.8852 72.3695 56.3256 72.3695 55.6352C72.3695 54.9449 71.8099 54.3852 71.1195 54.3852V56.8852ZM44.934 55.6352L44.934 56.8852H44.934V55.6352ZM41.7005 58.859L42.9505 58.8629V58.8628L41.7005 58.859ZM41.5991 91.0604L42.8491 91.0662L42.8491 91.0643L41.5991 91.0604ZM36.672 95.9417L36.6659 97.1917H36.6661L36.672 95.9417ZM17.9311 95.8502L17.9245 97.1002H17.925L17.9311 95.8502ZM13.053 90.923L11.803 90.917L11.803 90.9172L13.053 90.923ZM13.2721 45.9444L14.5221 45.9505L14.5221 45.9502L13.2721 45.9444ZM18.1992 41.063L18.1934 42.313H18.1992V41.063ZM30.7672 42.313C31.4576 42.313 32.0172 41.7534 32.0172 41.063C32.0172 40.3727 31.4576 39.813 30.7672 39.813V42.313ZM41.7528 80.283C41.0624 80.283 40.5028 80.8427 40.5028 81.533C40.5028 82.2234 41.0624 82.783 41.7528 82.783V80.283ZM101.788 81.533V82.783H101.788L101.788 81.533ZM106.947 76.3705H105.697H106.947ZM106.947 29.2208H108.197L108.197 29.2169L106.947 29.2208ZM101.784 24.0583L101.788 22.8083H101.784V24.0583ZM34.6907 24.0583V22.8083L34.6891 22.8083L34.6907 24.0583ZM29.5183 29.2208L28.2683 29.2169V29.2208H29.5183ZM29.5183 41.063H28.2683C28.2683 41.7534 28.8279 42.313 29.5183 42.313V41.063ZM36.9368 41.063L36.9622 39.8133C36.9537 39.8131 36.9453 39.813 36.9368 39.813V41.063ZM41.8182 46.0817L43.0681 46.097L43.0681 46.091L41.8182 46.0817ZM40.529 49.2738C40.5206 49.9641 41.0734 50.5306 41.7637 50.539C42.454 50.5475 43.0204 49.9947 43.0289 49.3044L40.529 49.2738ZM61.9246 47.384L71.0465 56.5059L72.8143 54.7382L63.6924 45.6162L61.9246 47.384ZM71.0467 54.738L61.9248 63.8567L63.6922 65.6248L72.8141 56.5061L71.0467 54.738ZM25.9078 86.0612C25.9078 87.9421 24.383 89.467 22.502 89.467V91.967C25.7637 91.967 28.4078 89.3229 28.4078 86.0612H25.9078ZM22.502 89.467C20.621 89.467 19.0962 87.9421 19.0962 86.0612H16.5962C16.5962 89.3229 19.2403 91.967 22.502 91.967V89.467ZM19.0962 86.0612C19.0962 84.1802 20.621 82.6554 22.502 82.6554V80.1554C19.2403 80.1554 16.5962 82.7995 16.5962 86.0612H19.0962ZM22.502 82.6554C24.383 82.6554 25.9078 84.1802 25.9078 86.0612H28.4078C28.4078 82.7995 25.7637 80.1554 22.502 80.1554V82.6554ZM71.1195 54.3852H44.934V56.8852H71.1195V54.3852ZM44.934 54.3852C43.7473 54.3852 42.6089 54.8557 41.7685 55.6936L43.5336 57.4641C43.9054 57.0934 44.409 56.8852 44.934 56.8852L44.934 54.3852ZM41.7685 55.6936C40.928 56.5315 40.4541 57.6684 40.4505 58.8552L42.9505 58.8628C42.9521 58.3377 43.1618 57.8347 43.5336 57.4641L41.7685 55.6936ZM40.4505 58.855L40.3491 91.0564L42.8491 91.0643L42.9505 58.8629L40.4505 58.855ZM40.3491 91.0545C40.3469 91.5344 40.2502 92.0092 40.0645 92.4517L42.3697 93.4191C42.6824 92.6739 42.8453 91.8744 42.8491 91.0662L40.3491 91.0545ZM40.0645 92.4517C39.8787 92.8942 39.6077 93.2958 39.2668 93.6335L41.0263 95.4095C41.6004 94.8407 42.0569 94.1644 42.3697 93.4191L40.0645 92.4517ZM39.2668 93.6335C38.9259 93.9713 38.5218 94.2386 38.0776 94.4201L39.0235 96.7343C39.7716 96.4285 40.4521 95.9783 41.0263 95.4095L39.2668 93.6335ZM38.0776 94.4201C37.6333 94.6017 37.1577 94.694 36.6778 94.6918L36.6661 97.1917C37.4743 97.1955 38.2754 97.0401 39.0235 96.7343L38.0776 94.4201ZM36.6781 94.6918L17.9372 94.6002L17.925 97.1002L36.6659 97.1917L36.6781 94.6918ZM17.9378 94.6002C16.969 94.5951 16.042 94.2054 15.3604 93.517L13.5838 95.2759C14.7317 96.4353 16.293 97.0915 17.9245 97.1002L17.9378 94.6002ZM15.3604 93.517C14.6788 92.8286 14.2985 91.8977 14.303 90.9289L11.803 90.9172C11.7954 92.5487 12.4359 94.1165 13.5838 95.2759L15.3604 93.517ZM14.303 90.9291L14.5221 45.9505L12.0221 45.9383L11.803 90.917L14.303 90.9291ZM14.5221 45.9502C14.5243 45.4703 14.621 44.9956 14.8068 44.5531L12.5015 43.5856C12.1888 44.3308 12.0259 45.1304 12.0221 45.9386L14.5221 45.9502ZM14.8068 44.5531C14.9925 44.1106 15.2635 43.709 15.6044 43.3712L13.8449 41.5952C13.2708 42.1641 12.8143 42.8404 12.5015 43.5856L14.8068 44.5531ZM15.6044 43.3712C15.9453 43.0335 16.3494 42.7662 16.7937 42.5846L15.8478 40.2705C15.0996 40.5763 14.4191 41.0264 13.8449 41.5952L15.6044 43.3712ZM16.7937 42.5846C17.2379 42.4031 17.7135 42.3108 18.1934 42.313L18.2051 39.813C17.3969 39.8092 16.5959 39.9647 15.8478 40.2705L16.7937 42.5846ZM18.1992 42.313H30.7672V39.813H18.1992V42.313ZM41.7528 82.783H101.788V80.283H41.7528V82.783ZM101.788 82.783C103.488 82.7819 105.118 82.1059 106.32 80.9034L104.552 79.1362C103.819 79.8699 102.824 80.2824 101.787 80.283L101.788 82.783ZM106.32 80.9034C107.522 79.7009 108.197 78.0705 108.197 76.3705H105.697C105.697 77.4077 105.285 78.4025 104.552 79.1362L106.32 80.9034ZM108.197 76.3705V29.2208H105.697V76.3705H108.197ZM108.197 29.2169C108.191 27.5189 107.515 25.8919 106.314 24.6912L104.546 26.459C105.28 27.1928 105.694 28.1871 105.697 29.2248L108.197 29.2169ZM106.314 24.6912C105.113 23.4906 103.486 22.8136 101.788 22.8083L101.78 25.3083C102.818 25.3116 103.812 25.7252 104.546 26.459L106.314 24.6912ZM101.784 22.8083H34.6907V25.3083H101.784V22.8083ZM34.6891 22.8083C32.9889 22.8104 31.3589 23.4859 30.1556 24.687L31.9216 26.4564C32.657 25.7224 33.6532 25.3096 34.6922 25.3083L34.6891 22.8083ZM30.1556 24.687C28.9522 25.888 28.2737 27.5168 28.2683 29.2169L30.7683 29.2248C30.7716 28.1858 31.1863 27.1904 31.9216 26.4564L30.1556 24.687ZM28.2683 29.2208V41.063H30.7683V29.2208H28.2683ZM29.5183 42.313H36.9368V39.813H29.5183V42.313ZM36.9114 42.3128C37.8929 42.3327 38.8269 42.7384 39.5114 43.4421L41.3035 41.6991C40.1607 40.5241 38.601 39.8466 36.9622 39.8133L36.9114 42.3128ZM39.5114 43.4421C40.1958 44.1458 40.5755 45.0908 40.5682 46.0724L43.0681 46.091C43.0803 44.4519 42.4463 42.874 41.3035 41.6991L39.5114 43.4421ZM40.5683 46.0664L40.529 49.2738L43.0289 49.3044L43.0681 46.097L40.5683 46.0664Z" fill="url(#paint0_linear_4_1100)"/>
<defs>
<linearGradient id="paint0_linear_4_1100" x1="59.9999" y1="24.0583" x2="59.9999" y2="95.9418" gradientUnits="userSpaceOnUse">
<stop stop-color="#FFBE4F"/>
<stop offset="1" stop-color="#F26B1D"/>
</linearGradient>
</defs>
</svg>
