<svg width="120" height="120" viewBox="0 0 120 120" fill="none" xmlns="http://www.w3.org/2000/svg">
<path d="M82.9625 62.5693C83.4506 63.0575 84.2421 63.0575 84.7302 62.5693C85.2184 62.0811 85.2184 61.2897 84.7302 60.8015L82.9625 62.5693ZM74.7487 52.5878L73.865 51.7037C73.6305 51.9381 73.4987 52.2561 73.4987 52.5877C73.4987 52.9192 73.6304 53.2372 73.8648 53.4717L74.7487 52.5878ZM84.7301 44.3775C85.2183 43.8894 85.2185 43.0979 84.7304 42.6097C84.2423 42.1214 83.4509 42.1213 82.9626 42.6094L84.7301 44.3775ZM75.6813 51.3251C74.9909 51.3251 74.4313 51.8848 74.4313 52.5751C74.4313 53.2655 74.9909 53.8251 75.6813 53.8251V51.3251ZM106.822 29.3028H108.072L108.072 29.2989L106.822 29.3028ZM101.673 24.154L101.677 22.904H101.673V24.154ZM34.7583 24.154V22.904L34.7567 22.904L34.7583 24.154ZM29.5997 29.3028L28.3497 29.2988V29.3028H29.5997ZM29.5997 41.1688H28.3497C28.3497 41.8568 28.9056 42.4155 29.5936 42.4188L29.5997 41.1688ZM36.9984 41.2047L36.9924 42.4547L36.9926 42.4547L36.9984 41.2047ZM41.8668 46.1187L43.1168 46.1248V46.1246L41.8668 46.1187ZM41.6483 90.9776L40.3983 90.9715L40.3983 90.9717L41.6483 90.9776ZM36.7343 95.846L36.7282 97.0959H36.7285L36.7343 95.846ZM18.0434 95.7547L18.0367 97.0046L18.0373 97.0046L18.0434 95.7547ZM13.1783 90.8406L11.9283 90.8345L11.9283 90.8348L13.1783 90.8406ZM13.3967 45.9818L14.6467 45.9879L14.6467 45.9876L13.3967 45.9818ZM18.3108 41.1134L18.317 39.8634L18.3166 39.8634L18.3108 41.1134ZM23.5577 42.3895C24.2481 42.3929 24.8105 41.8361 24.8139 41.1457C24.8173 40.4554 24.2605 39.8929 23.5701 39.8895L23.5577 42.3895ZM41.8016 80.2256C41.1112 80.2256 40.5516 80.7852 40.5516 81.4756C40.5516 82.166 41.1112 82.7256 41.8016 82.7256V80.2256ZM101.676 81.4756L101.676 82.7256H101.677L101.676 81.4756ZM106.822 76.3268L105.572 76.3268L106.822 76.3268ZM108.072 59.5141C108.072 58.8238 107.512 58.2641 106.822 58.2641C106.132 58.2641 105.572 58.8238 105.572 59.5141H108.072ZM84.7302 60.8015L75.6326 51.7039L73.8648 53.4717L82.9625 62.5693L84.7302 60.8015ZM75.6324 53.4718L84.7301 44.3775L82.9626 42.6094L73.865 51.7037L75.6324 53.4718ZM25.9954 85.9918C25.9954 87.8659 24.4761 89.3852 22.602 89.3852V91.8852C25.8569 91.8852 28.4954 89.2467 28.4954 85.9918H25.9954ZM22.602 89.3852C20.7279 89.3852 19.2086 87.8659 19.2086 85.9918H16.7086C16.7086 89.2467 19.3472 91.8852 22.602 91.8852V89.3852ZM19.2086 85.9918C19.2086 84.1177 20.7279 82.5984 22.602 82.5984V80.0984C19.3472 80.0984 16.7086 82.737 16.7086 85.9918H19.2086ZM22.602 82.5984C24.4761 82.5984 25.9954 84.1177 25.9954 85.9918H28.4954C28.4954 82.737 25.8569 80.0984 22.602 80.0984V82.5984ZM75.6813 53.8251H101.931V51.3251H75.6813V53.8251ZM101.931 53.8251C103.559 53.8251 105.122 53.1781 106.273 52.0264L104.505 50.2586C103.823 50.9415 102.896 51.3251 101.931 51.3251V53.8251ZM106.273 52.0264C107.425 50.8747 108.072 49.3127 108.072 47.6839H105.572C105.572 48.6496 105.188 49.5758 104.505 50.2586L106.273 52.0264ZM108.072 47.6839V29.3028H105.572V47.6839H108.072ZM108.072 29.2989C108.067 27.6045 107.391 25.981 106.193 24.7829L104.425 26.5507C105.156 27.2819 105.569 28.2727 105.572 29.3067L108.072 29.2989ZM106.193 24.7829C104.995 23.5848 103.371 22.9093 101.677 22.904L101.669 25.404C102.703 25.4072 103.694 25.8195 104.425 26.5507L106.193 24.7829ZM101.673 22.904H34.7583V25.404H101.673V22.904ZM34.7567 22.904C33.0602 22.9061 31.4336 23.5802 30.2329 24.7786L31.999 26.5481C32.7318 25.8167 33.7245 25.4053 34.7598 25.404L34.7567 22.904ZM30.2329 24.7786C29.0322 25.9771 28.355 27.6024 28.3497 29.2988L30.8497 29.3067C30.8529 28.2714 31.2662 27.2795 31.999 26.5481L30.2329 24.7786ZM28.3497 29.3028V41.1688H30.8497V29.3028H28.3497ZM29.5936 42.4188L36.9924 42.4547L37.0045 39.9547L29.6057 39.9189L29.5936 42.4188ZM36.9926 42.4547C37.4708 42.4569 37.9438 42.5533 38.3847 42.7384L39.3522 40.4332C38.6086 40.1211 37.8107 39.9585 37.0042 39.9547L36.9926 42.4547ZM38.3847 42.7384C38.8257 42.9234 39.2258 43.1935 39.5624 43.5332L41.3384 41.7737C40.7708 41.2008 40.0959 40.7452 39.3522 40.4332L38.3847 42.7384ZM39.5624 43.5332C39.8989 43.8729 40.1652 44.2755 40.3462 44.7182L42.6603 43.7723C42.3552 43.0257 41.906 42.3466 41.3384 41.7737L39.5624 43.5332ZM40.3462 44.7182C40.5271 45.1608 40.6191 45.6347 40.6168 46.1129L43.1168 46.1246C43.1206 45.3181 42.9654 44.5188 42.6603 43.7723L40.3462 44.7182ZM40.6168 46.1127L40.3983 90.9715L42.8983 90.9837L43.1168 46.1248L40.6168 46.1127ZM40.3983 90.9717C40.3961 91.4499 40.2997 91.923 40.1147 92.3639L42.4199 93.3314C42.732 92.5877 42.8946 91.7899 42.8983 90.9834L40.3983 90.9717ZM40.1147 92.3639C39.9296 92.8048 39.6595 93.205 39.3199 93.5415L41.0793 95.3175C41.6523 94.7499 42.1078 94.075 42.4199 93.3314L40.1147 92.3639ZM39.3199 93.5415C38.9802 93.878 38.5775 94.1444 38.1349 94.3253L39.0808 96.6395C39.8273 96.3343 40.5064 95.8851 41.0793 95.3175L39.3199 93.5415ZM38.1349 94.3253C37.6922 94.5062 37.2183 94.5982 36.7401 94.596L36.7285 97.0959C37.5349 97.0997 38.3343 96.9446 39.0808 96.6395L38.1349 94.3253ZM36.7404 94.596L18.0495 94.5047L18.0373 97.0046L36.7282 97.0959L36.7404 94.596ZM18.05 94.5047C17.0848 94.4995 16.161 94.1113 15.4819 93.4253L13.7053 95.1842C14.8507 96.3412 16.4087 96.996 18.0367 97.0046L18.05 94.5047ZM15.4819 93.4253C14.8027 92.7393 14.4237 91.8118 14.4283 90.8465L11.9283 90.8348C11.9207 92.4628 12.5598 94.0273 13.7053 95.1842L15.4819 93.4253ZM14.4283 90.8467L14.6467 45.9879L12.1468 45.9757L11.9283 90.8345L14.4283 90.8467ZM14.6467 45.9876C14.649 45.5094 14.7454 45.0364 14.9304 44.5955L12.6252 43.628C12.3131 44.3717 12.1505 45.1695 12.1468 45.976L14.6467 45.9876ZM14.9304 44.5955C15.1154 44.1546 15.3855 43.7544 15.7252 43.4179L13.9657 41.6419C13.3928 42.2095 12.9373 42.8844 12.6252 43.628L14.9304 44.5955ZM15.7252 43.4179C16.0649 43.0813 16.4676 42.815 16.9102 42.6341L15.9643 40.3199C15.2178 40.6251 14.5387 41.0743 13.9657 41.6419L15.7252 43.4179ZM16.9102 42.6341C17.3528 42.4531 17.8268 42.3612 18.3049 42.3634L18.3166 39.8634C17.5101 39.8597 16.7108 40.0148 15.9643 40.3199L16.9102 42.6341ZM18.3046 42.3634L23.5577 42.3895L23.5701 39.8895L18.317 39.8634L18.3046 42.3634ZM41.8016 82.7256H101.676V80.2256H41.8016V82.7256ZM101.677 82.7256C103.374 82.7245 105 82.0499 106.199 80.85L104.431 79.0828C103.7 79.8139 102.709 80.2249 101.676 80.2256L101.677 82.7256ZM106.199 80.85C107.398 79.6501 108.072 78.0232 108.072 76.3268L105.572 76.3268C105.572 77.3604 105.162 78.3517 104.431 79.0828L106.199 80.85ZM108.072 76.3268V59.5141H105.572V76.3268H108.072Z" fill="url(#paint0_linear_4_1083)"/>
<defs>
<linearGradient id="paint0_linear_4_1083" x1="60.0001" y1="24.154" x2="60.0001" y2="95.846" gradientUnits="userSpaceOnUse">
<stop stop-color="#93C437"/>
<stop offset="1" stop-color="#279BE8"/>
</linearGradient>
</defs>
</svg>
