<svg width="320" height="320" viewBox="0 0 320 320" fill="none" xmlns="http://www.w3.org/2000/svg">
<path d="M219.999 209.45L218.749 209.45V209.45H219.999ZM222.199 213.05L221.606 214.151L221.622 214.16L221.638 214.168L222.199 213.05ZM254.699 229.35L255.263 228.235L255.259 228.233L254.699 229.35ZM266.749 268.05C266.749 268.741 267.308 269.3 267.999 269.3C268.689 269.3 269.249 268.741 269.249 268.05H266.749ZM199.999 153.95H198.749V153.95L199.999 153.95ZM219.999 153.95H218.749V153.95L219.999 153.95ZM191.115 268.834C191.603 269.322 192.394 269.322 192.883 268.834C193.371 268.346 193.371 267.555 192.883 267.067L191.115 268.834ZM154.799 230.75L153.915 231.634L154.799 230.75ZM181.099 225.05L180.209 225.928L180.215 225.934L181.099 225.05ZM198.75 192.95C198.75 193.64 199.309 194.2 200 194.2C200.69 194.2 201.25 193.64 201.25 192.95L198.75 192.95ZM207.999 261.95L207.534 260.79L207.52 260.796L207.506 260.802L207.999 261.95ZM63.9996 199.95L63.9996 198.7L63.9996 199.95ZM51.9995 187.95H53.2495H51.9995ZM268 187.95L269.25 187.95L268 187.95ZM256 199.95L256 201.2L256 199.95ZM255.999 51.9497V53.1997V51.9497ZM267.999 63.9489L266.749 63.949L267.999 63.9489ZM63.9995 51.9497L63.9995 53.1997L63.9995 51.9497ZM51.9995 63.9497L53.2495 63.9497L51.9995 63.9497ZM200 202.45L201.25 202.45L200 202.45ZM197.499 199.95V201.2V199.95ZM224.976 109.422V108.172H224.976L224.976 109.422ZM224.976 129.422L224.976 130.672H224.976V129.422ZM194.975 109.423V110.673H194.975L194.975 109.423ZM194.975 129.422L194.975 128.172H194.975V129.422ZM84.9995 111.047C84.3092 111.047 83.7495 111.607 83.7495 112.297C83.7495 112.987 84.3092 113.547 84.9995 113.547V111.047ZM152 113.547C152.69 113.547 153.25 112.987 153.25 112.297C153.25 111.607 152.69 111.047 152 111.047V113.547ZM84.9995 125.484C84.3092 125.484 83.7495 126.044 83.7495 126.734C83.7495 127.425 84.3092 127.984 84.9995 127.984V125.484ZM118.5 127.984C119.19 127.984 119.75 127.425 119.75 126.734C119.75 126.044 119.19 125.484 118.5 125.484V127.984ZM218.749 209.45C218.749 211.442 219.93 213.248 221.606 214.151L222.791 211.95C221.867 211.452 221.249 210.459 221.249 209.45H218.749ZM221.638 214.168L254.138 230.468L255.259 228.233L222.759 211.933L221.638 214.168ZM266.749 250.85V268.05H269.249V250.85H266.749ZM201.249 153.95C201.249 149.141 205.189 145.2 209.999 145.2V142.7C203.808 142.7 198.749 147.76 198.749 153.95H201.249ZM209.999 145.2C214.808 145.2 218.749 149.141 218.749 153.95H221.249C221.249 147.76 216.189 142.7 209.999 142.7V145.2ZM192.883 267.067L155.683 229.867L153.915 231.634L191.115 268.834L192.883 267.067ZM155.683 229.867C154.571 228.755 154.571 227.046 155.683 225.934L153.915 224.167C151.827 226.255 151.827 229.546 153.915 231.634L155.683 229.867ZM155.683 225.934C162.498 219.119 173.502 219.128 180.209 225.928L181.989 224.173C174.296 216.373 161.7 216.382 153.915 224.167L155.683 225.934ZM180.215 225.934L199.115 244.834L200.883 243.067L181.983 224.167L180.215 225.934ZM199.115 244.834C203.084 248.804 206.221 252.691 207.756 255.759C208.531 257.311 208.815 258.493 208.739 259.301C208.703 259.68 208.59 259.957 208.426 260.171C208.261 260.387 207.99 260.608 207.534 260.79L208.463 263.111C209.257 262.793 209.924 262.326 210.411 261.691C210.899 261.053 211.154 260.314 211.227 259.537C211.37 258.033 210.841 256.34 209.992 254.641C208.276 251.21 204.913 247.097 200.883 243.067L199.115 244.834ZM207.506 260.802C206.813 261.099 206.287 261.135 205.882 261.057C205.477 260.979 205.079 260.763 204.679 260.363C203.838 259.522 203.127 258.002 202.58 255.997C201.499 252.035 201.249 246.919 201.249 243.95H198.749C198.749 246.982 198.998 252.366 200.168 256.654C200.746 258.774 201.597 260.816 202.912 262.131C203.59 262.809 204.419 263.321 205.408 263.512C206.397 263.703 207.434 263.552 208.491 263.099L207.506 260.802ZM221.249 209.451L221.25 199.951L218.75 199.95L218.749 209.45L221.249 209.451ZM201.25 192.95L201.249 153.95L198.749 153.95L198.75 192.95L201.25 192.95ZM201.249 243.95L201.25 202.45L198.75 202.45L198.749 243.95L201.249 243.95ZM254.134 230.466C261.822 234.357 266.749 242.23 266.749 250.85H269.249C269.249 241.271 263.776 232.544 255.263 228.235L254.134 230.466ZM218.749 153.95L218.75 199.95L221.25 199.95L221.249 153.95L218.749 153.95ZM255.999 50.6997C191.999 50.6997 128 50.6998 63.9995 50.6997L63.9995 53.1997C128 53.1998 192 53.1997 255.999 53.1997V50.6997ZM269.25 187.95C269.25 146.616 269.251 105.282 269.249 63.9488L266.749 63.949C266.751 105.283 266.75 146.616 266.75 187.95L269.25 187.95ZM220 201.2C232 201.2 244 201.2 256 201.2L256 198.7C244 198.7 232 198.7 220 198.7L220 201.2ZM63.9996 201.2L197.499 201.2V198.7L63.9996 198.7L63.9996 201.2ZM50.7495 63.9497C50.7495 105.283 50.7495 146.617 50.7495 187.95H53.2495C53.2495 146.617 53.2495 105.283 53.2495 63.9497L50.7495 63.9497ZM63.9996 198.7C58.0625 198.7 53.2495 193.887 53.2495 187.95H50.7495C50.7495 195.268 56.6818 201.2 63.9996 201.2L63.9996 198.7ZM266.75 187.95C266.75 193.887 261.937 198.7 256 198.7L256 201.2C263.317 201.2 269.25 195.268 269.25 187.95L266.75 187.95ZM255.999 53.1997C261.936 53.1997 266.749 58.0122 266.749 63.949L269.249 63.9488C269.249 56.6314 263.317 50.6997 255.999 50.6997V53.1997ZM63.9995 50.6997C56.6818 50.6997 50.7495 56.6319 50.7495 63.9497L53.2495 63.9497C53.2495 58.0126 58.0625 53.1997 63.9995 53.1997L63.9995 50.6997ZM201.25 202.45C201.25 200.379 199.571 198.7 197.499 198.7V201.2C198.19 201.2 198.75 201.759 198.75 202.45L201.25 202.45ZM224.976 110.672C229.785 110.672 233.726 114.612 233.726 119.422H236.226C236.226 113.232 231.166 108.172 224.976 108.172V110.672ZM233.726 119.422C233.726 124.232 229.785 128.172 224.976 128.172V130.672C231.166 130.672 236.226 125.612 236.226 119.422H233.726ZM194.975 110.673L224.976 110.672L224.976 108.172L194.975 108.173L194.975 110.673ZM224.976 128.172L194.975 128.172L194.975 130.672L224.976 130.672L224.976 128.172ZM194.975 108.173C188.785 108.173 183.725 113.232 183.725 119.423H186.225C186.225 114.613 190.165 110.673 194.975 110.673V108.173ZM183.725 119.423C183.725 125.613 188.785 130.672 194.975 130.672V128.172C190.165 128.172 186.225 124.232 186.225 119.423H183.725ZM84.9995 113.547H152V111.047H84.9995V113.547ZM84.9995 127.984H118.5V125.484H84.9995V127.984Z" fill="url(#paint0_linear_4_535)"/>
<defs>
<linearGradient id="paint0_linear_4_535" x1="160" y1="51.9497" x2="160" y2="268.05" gradientUnits="userSpaceOnUse">
<stop stop-color="#93C437"/>
<stop offset="1" stop-color="#279BE8"/>
</linearGradient>
</defs>
</svg>
