<svg width="120" height="120" viewBox="0 0 120 120" fill="none" xmlns="http://www.w3.org/2000/svg">
<path d="M95.9999 22.75H71.9999C71.6684 22.75 71.3504 22.8817 71.116 23.1161C70.8816 23.3505 70.7499 23.6685 70.7499 24C70.7499 24.3315 70.8816 24.6495 71.116 24.8839C71.3504 25.1183 71.6684 25.25 71.9999 25.25H92.9828L71.1161 47.1162C53.0634 65.1685 56.4462 78.1245 57.913 81.6655C58.5502 83.2203 59.4478 84.6551 60.5673 85.9082L59.7675 86.7085C58.7795 87.6944 57.5216 88.3656 56.1526 88.6373C54.7836 88.909 53.3647 88.7692 52.0751 88.2354C47.2283 86.2483 42.8553 83.2608 39.2422 79.468C35.629 75.6752 32.857 71.1626 31.1073 66.2251C30.6672 64.9688 30.5895 63.614 30.8833 62.3156C31.177 61.0172 31.8304 59.8278 32.7685 58.8833L37.0585 54.5933C39.2863 52.3599 40.5375 49.3341 40.5375 46.1795C40.5375 43.0249 39.2863 39.9991 37.0585 37.7657L29.5282 30.2354C27.2949 28.0071 24.2689 26.7557 21.1141 26.7557C17.9593 26.7557 14.9333 28.0071 12.7001 30.2354L10.2431 32.6924C9.13357 33.8041 8.25407 35.1237 7.65486 36.5755C7.05565 38.0274 6.74848 39.5831 6.7509 41.1538C6.65658 59.9675 13.9555 78.0657 27.0756 91.55C40.1957 105.034 58.0871 112.826 76.8964 113.247C76.9794 113.249 77.0624 113.25 77.1454 113.25C80.26 113.225 83.2386 111.971 85.4325 109.76L88.828 106.363C89.933 105.258 90.8095 103.947 91.4075 102.503C92.0056 101.059 92.3134 99.5121 92.3134 97.9495C92.3134 96.3869 92.0056 94.8395 91.4075 93.3959C90.8095 91.9522 89.933 90.6405 88.828 89.5356C88.7119 89.4196 88.5742 89.3275 88.4225 89.2647C88.2709 89.2019 88.1084 89.1696 87.9442 89.1696C87.7801 89.1696 87.6176 89.2019 87.4659 89.2647C87.3143 89.3275 87.1765 89.4196 87.0604 89.5356C86.9444 89.6517 86.8523 89.7895 86.7895 89.9411C86.7267 90.0928 86.6944 90.2553 86.6944 90.4194C86.6944 90.5836 86.7267 90.7461 86.7895 90.8977C86.8523 91.0494 86.9444 91.1872 87.0604 91.3032C88.8231 93.0659 89.8134 95.4566 89.8134 97.9495C89.8134 100.442 88.8231 102.833 87.0604 104.596L83.6649 107.992C82.7899 108.881 81.7442 109.583 80.5907 110.056C79.4371 110.529 78.1997 110.765 76.953 110.747C58.7987 110.341 41.5301 102.821 28.8669 89.8065C16.2037 76.7917 9.15921 59.3236 9.2509 41.165C9.24778 39.9209 9.4899 38.6883 9.96344 37.5378C10.437 36.3873 11.1326 35.3415 12.0106 34.46L14.4676 32.003C16.2317 30.2428 18.6221 29.2542 21.1141 29.2542C23.6062 29.2542 25.9965 30.2428 27.7606 32.003L35.2909 39.5332C37.0507 41.2974 38.0389 43.6876 38.0389 46.1794C38.0389 48.6713 37.0507 51.0614 35.2909 52.8257L31.0009 57.1157C29.7301 58.3944 28.845 60.0051 28.4469 61.7635C28.0488 63.5218 28.1538 65.3566 28.7499 67.0581C30.6173 72.3278 33.5759 77.1441 37.4322 81.1921C41.2885 85.2401 45.9558 88.4287 51.1288 90.5493C52.8742 91.2702 54.794 91.4581 56.646 91.0891C58.498 90.7201 60.1992 89.8109 61.5351 88.4761L62.3925 87.6187C65.7615 90.1115 69.8748 91.3913 74.0634 91.25C77.7929 91.25 80.9404 89.4692 82.0809 86.7134C82.4866 85.7764 82.5954 84.7375 82.3927 83.7368C82.19 82.7361 81.6855 81.8215 80.9472 81.1162C79.8757 80.1883 78.632 79.4806 77.287 79.0336C75.9419 78.5865 74.7106 78.4941 73.1083 78.5107C69.8913 78.5441 66.8058 79.7924 64.4706 82.0054L62.3466 84.1294C61.4543 83.1145 60.7366 81.9587 60.2226 80.709C56.0839 70.7178 64.0497 57.7183 72.8837 48.8838L94.7499 27.0181V48C94.7499 48.3315 94.8816 48.6495 95.116 48.8839C95.3504 49.1183 95.6684 49.25 95.9999 49.25C96.3314 49.25 96.6494 49.1183 96.8838 48.8839C97.1182 48.6495 97.2499 48.3315 97.2499 48V24C97.2499 23.8358 97.2176 23.6733 97.1548 23.5216C97.092 23.37 96.9999 23.2322 96.8838 23.1161C96.7677 23 96.6299 22.9079 96.4783 22.8451C96.3266 22.7823 96.1641 22.75 95.9999 22.75ZM66.2382 83.773C68.1207 82.0107 70.599 81.0239 73.1776 81.0098C75.4468 80.9285 77.5 81.5003 79.1796 82.8838C79.5675 83.2399 79.8334 83.709 79.9396 84.2247C80.0458 84.7404 79.987 85.2765 79.7714 85.7568C79.1542 87.2466 77.1503 88.75 74.0634 88.75C70.5414 88.8694 67.0758 87.8425 64.1874 85.8237L66.2382 83.773Z" fill="url(#paint0_linear_4_503)"/>
<defs>
<linearGradient id="paint0_linear_4_503" x1="52" y1="22.75" x2="52" y2="113.25" gradientUnits="userSpaceOnUse">
<stop stop-color="#3CC29A"/>
<stop offset="1" stop-color="#93C437"/>
</linearGradient>
</defs>
</svg>
