<svg width="192" height="192" viewBox="0 0 192 192" fill="none" xmlns="http://www.w3.org/2000/svg">
<path d="M119.758 92.32C121.525 92.32 122.958 90.8873 122.958 89.12C122.958 87.3527 121.525 85.92 119.758 85.92C117.991 85.92 116.558 87.3527 116.558 89.12C116.558 90.8873 117.991 92.32 119.758 92.32Z" fill="url(#paint0_linear_256_758)"/>
<path d="M140.4 84.8C140.4 84.8 144.8 98.4 146.4 102.8C148.4 108.8 144.4 110.8 140.4 110.8H136.4M134.4 50.8C120.4 50.8 112.4 58.8 104.4 66.8C96.4 74.8 88.4 82.8 76.4 82.8M88.6 163V101C88.6 96.4 84.6 92.6 79.8 93C75.6 93.4 72.4 97.6 72.6 101.8C73.4 118 99.4 147.2 131.2 147C147.6 146.8 160.6 133.4 160.6 117V77C160.6 62.6 149 51 134.6 51M168.4 60.8C168.4 43.2 154 28.8 136.4 28.8C126.4 28.8 100.4 28.8 100.4 28.8M22.4 131C31.2 131 38.4 123.8 38.4 115V91C38.4 77.8 49.2 67 62.4 67C62.4 46 79.4 29 100.4 29" stroke="url(#paint1_linear_256_758)" stroke-width="2.5" stroke-miterlimit="10" stroke-linecap="round" stroke-linejoin="round"/>
<defs>
<linearGradient id="paint0_linear_256_758" x1="119.758" y1="85.92" x2="119.758" y2="92.32" gradientUnits="userSpaceOnUse">
<stop stop-color="#F55868"/>
<stop offset="1" stop-color="#875AE0"/>
</linearGradient>
<linearGradient id="paint1_linear_256_758" x1="95.4" y1="28.8" x2="95.4" y2="163" gradientUnits="userSpaceOnUse">
<stop stop-color="#F55868"/>
<stop offset="1" stop-color="#875AE0"/>
</linearGradient>
</defs>
</svg>
