<svg width="193" height="192" viewBox="0 0 193 192" fill="none" xmlns="http://www.w3.org/2000/svg">
<path d="M102.197 93.4994C103.302 93.4994 104.197 92.604 104.197 91.4994C104.197 90.3948 103.302 89.4994 102.197 89.4994C101.093 89.4994 100.197 90.3948 100.197 91.4994C100.197 92.604 101.093 93.4994 102.197 93.4994Z" fill="url(#paint0_linear_4_2813)"/>
<path d="M99.1309 44.2621C90.533 43.9988 82.1692 47.0865 75.8049 52.8734C69.4405 58.6603 65.5737 66.6937 65.0205 75.2778C64.9916 75.7226 65.0541 76.1686 65.2044 76.5883C65.3547 77.008 65.5894 77.3924 65.8941 77.7177C66.1988 78.0431 66.5669 78.3025 66.9759 78.48C67.3848 78.6574 67.8257 78.7491 68.2715 78.7494H74.1973C77.0474 78.7526 79.7798 79.8862 81.7952 81.9015C83.8105 83.9169 84.9441 86.6493 84.9473 89.4994V108.911C84.9503 111.519 85.9879 114.02 87.8324 115.864C89.6769 117.709 92.1776 118.746 94.7861 118.749C95.921 118.748 97.0249 118.379 97.9324 117.698C98.8398 117.016 99.5019 116.059 99.8193 114.969C100.371 113.175 101.481 111.604 102.988 110.485C104.495 109.366 106.32 108.758 108.197 108.749H114.197C116.614 108.749 118.338 108.058 119.32 106.694C120.514 105.039 120.534 102.556 119.383 99.1039L115.383 87.1039C115.278 86.7898 115.052 86.5302 114.756 86.3822C114.459 86.2342 114.116 86.21 113.802 86.3148C113.488 86.4197 113.228 86.645 113.08 86.9413C112.932 87.2376 112.907 87.5806 113.012 87.8949L117.012 99.8949C117.865 102.456 117.963 104.302 117.293 105.232C116.806 105.908 115.765 106.249 114.197 106.249H108.197C105.784 106.26 103.437 107.042 101.5 108.481C99.5619 109.92 98.1346 111.94 97.4258 114.246C97.2614 114.821 96.9153 115.326 96.4394 115.687C95.9636 116.049 95.3835 116.246 94.7861 116.249C92.8404 116.247 90.975 115.473 89.5991 114.098C88.2233 112.722 87.4494 110.856 87.4473 108.911V89.4994C87.4432 85.9866 86.0459 82.6188 83.5619 80.1348C81.0779 77.6508 77.7101 76.2536 74.1973 76.2494H68.2715C68.1679 76.249 68.0655 76.2274 67.9705 76.186C67.8755 76.1446 67.79 76.0842 67.7191 76.0086C67.6483 75.933 67.5936 75.8438 67.5584 75.7463C67.5233 75.6488 67.5084 75.5452 67.5146 75.4418C68.0123 67.6522 71.4636 60.346 77.1641 55.014C82.8647 49.682 90.3849 46.7261 98.1904 46.7494C98.4795 46.7494 98.7715 46.7533 99.0625 46.7621C115.541 47.2133 128.947 61.3012 128.947 78.1655V112.499C128.94 118.796 126.436 124.833 121.983 129.285C117.531 133.738 111.494 136.242 105.197 136.249C93.6836 136.249 83.085 129.302 75.4473 120.253V92.4994C75.4473 90.5766 74.6834 88.7326 73.3238 87.3729C71.9642 86.0133 70.1201 85.2494 68.1973 85.2494C66.2744 85.2494 64.4304 86.0133 63.0707 87.3729C61.7111 88.7326 60.9473 90.5766 60.9473 92.4994C60.9473 101.297 65.5117 112.144 72.9473 121.177V146.499C72.9473 146.831 73.079 147.149 73.3134 147.383C73.5478 147.618 73.8657 147.749 74.1973 147.749C74.5288 147.749 74.8467 147.618 75.0811 147.383C75.3156 147.149 75.4473 146.831 75.4473 146.499V124.028C84.2168 133.408 94.9678 138.749 105.197 138.749C112.157 138.742 118.829 135.974 123.75 131.052C128.671 126.131 131.44 119.459 131.447 112.499V78.1654C131.447 59.9594 116.95 44.7504 99.1309 44.2621ZM72.9473 117.076C67.0371 109.007 63.4473 99.8139 63.4473 92.4994C63.4473 91.2397 63.9477 90.0315 64.8385 89.1407C65.7293 88.2499 66.9375 87.7494 68.1973 87.7494C69.457 87.7494 70.6652 88.2499 71.556 89.1407C72.4468 90.0315 72.9473 91.2397 72.9473 92.4994V117.076Z" fill="url(#paint1_linear_4_2813)"/>
<defs>
<linearGradient id="paint0_linear_4_2813" x1="102.197" y1="89.4994" x2="102.197" y2="93.4994" gradientUnits="userSpaceOnUse">
<stop stop-color="#3CC29A"/>
<stop offset="1" stop-color="#93C437"/>
</linearGradient>
<linearGradient id="paint1_linear_4_2813" x1="96.1973" y1="44.2466" x2="96.1973" y2="147.749" gradientUnits="userSpaceOnUse">
<stop stop-color="#3CC29A"/>
<stop offset="1" stop-color="#93C437"/>
</linearGradient>
</defs>
</svg>
