<svg width="193" height="192" viewBox="0 0 193 192" fill="none" xmlns="http://www.w3.org/2000/svg">
<path d="M102.194 105.75H100.194C99.8628 105.75 99.5449 105.882 99.3105 106.116C99.076 106.351 98.9443 106.668 98.9443 107C98.9443 107.332 99.076 107.649 99.3105 107.884C99.5449 108.118 99.8628 108.25 100.194 108.25H102.194C104.611 108.25 106.335 107.559 107.317 106.194C108.511 104.54 108.531 102.057 107.38 98.6045L103.38 86.6045C103.328 86.4487 103.246 86.3046 103.138 86.1805C103.031 86.0564 102.9 85.9547 102.753 85.8813C102.606 85.8078 102.446 85.764 102.283 85.7524C102.119 85.7408 101.954 85.7615 101.799 85.8135C101.643 85.8654 101.499 85.9476 101.375 86.0552C101.251 86.1629 101.149 86.2939 101.076 86.4408C101.002 86.5878 100.959 86.7477 100.947 86.9115C100.936 87.0753 100.957 87.2398 101.009 87.3955L105.009 99.3955C105.862 101.957 105.96 103.803 105.29 104.732C104.803 105.408 103.762 105.75 102.194 105.75Z" fill="url(#paint0_linear_4_2882)"/>
<path d="M142.197 76.75H119.424C119.111 68.4623 115.713 60.5905 109.896 54.6791C104.079 48.7677 96.2627 45.2435 87.9811 44.798C79.6995 44.3525 71.5503 47.0178 65.1325 52.271C58.7148 57.5242 54.4917 64.986 53.292 73.1924C53.1816 73.9481 53.235 74.7188 53.4486 75.4521C53.6623 76.1854 54.0312 76.8642 54.5303 77.4424C55.0212 78.0099 55.6285 78.465 56.311 78.7769C56.9934 79.0888 57.735 79.2502 58.4854 79.25H116.947V112C116.94 118.297 114.436 124.333 109.983 128.786C105.531 133.238 99.494 135.743 93.1973 135.75C81.6836 135.75 71.085 128.803 63.4473 119.754V92C63.4473 90.0772 62.6834 88.2331 61.3238 86.8735C59.9642 85.5138 58.1201 84.75 56.1973 84.75C54.2744 84.75 52.4304 85.5138 51.0707 86.8735C49.7111 88.2331 48.9473 90.0772 48.9473 92C48.9473 100.798 53.5117 111.645 60.9473 120.678V146C60.9473 146.332 61.079 146.649 61.3134 146.884C61.5478 147.118 61.8657 147.25 62.1973 147.25C62.5288 147.25 62.8467 147.118 63.0812 146.884C63.3156 146.649 63.4473 146.332 63.4473 146V123.528C72.2168 132.908 82.9678 138.25 93.1973 138.25C100.157 138.242 106.829 135.474 111.75 130.553C116.671 125.632 119.439 118.96 119.447 112V79.25H142.197C142.529 79.25 142.847 79.1183 143.081 78.8839C143.316 78.6495 143.447 78.3315 143.447 78C143.447 77.6685 143.316 77.3505 143.081 77.1161C142.847 76.8817 142.529 76.75 142.197 76.75ZM60.9473 116.576C55.0371 108.508 51.4473 99.3144 51.4473 92C51.4473 90.7402 51.9477 89.532 52.8385 88.6412C53.7293 87.7504 54.9375 87.25 56.1973 87.25C57.457 87.25 58.6652 87.7504 59.556 88.6412C60.4468 89.532 60.9473 90.7402 60.9473 92V116.576ZM58.4854 76.75C58.0932 76.7525 57.7052 76.6693 57.3485 76.5064C56.9917 76.3435 56.6749 76.1047 56.4199 75.8066C56.1557 75.4994 55.9606 75.139 55.8478 74.7498C55.7351 74.3606 55.7074 73.9516 55.7666 73.5508C56.8757 65.9698 60.7746 59.0759 66.7 54.2189C72.6254 49.362 80.1504 46.8917 87.8016 47.292C95.4528 47.6922 102.679 50.9342 108.065 56.3829C113.451 61.8316 116.61 69.0947 116.922 76.75H58.4854Z" fill="url(#paint1_linear_4_2882)"/>
<path d="M90.1946 93C91.2991 93 92.1946 92.1046 92.1946 91C92.1946 89.8954 91.2991 89 90.1946 89C89.09 89 88.1946 89.8954 88.1946 91C88.1946 92.1046 89.09 93 90.1946 93Z" fill="url(#paint2_linear_4_2882)"/>
<defs>
<linearGradient id="paint0_linear_4_2882" x1="96.1973" y1="44.7499" x2="96.1973" y2="147.25" gradientUnits="userSpaceOnUse">
<stop stop-color="#279BE8"/>
<stop offset="1" stop-color="#875AE0"/>
</linearGradient>
<linearGradient id="paint1_linear_4_2882" x1="96.1973" y1="44.7499" x2="96.1973" y2="147.25" gradientUnits="userSpaceOnUse">
<stop stop-color="#279BE8"/>
<stop offset="1" stop-color="#875AE0"/>
</linearGradient>
<linearGradient id="paint2_linear_4_2882" x1="90.1946" y1="89" x2="90.1946" y2="93" gradientUnits="userSpaceOnUse">
<stop stop-color="#279BE8"/>
<stop offset="1" stop-color="#875AE0"/>
</linearGradient>
</defs>
</svg>
