<svg width="321" height="320" viewBox="0 0 321 320" fill="none" xmlns="http://www.w3.org/2000/svg">
<path d="M179.255 111.3L179.185 110.052L179.177 110.052L179.255 111.3ZM182.255 117L181.016 116.833C181.015 116.838 181.015 116.842 181.014 116.847L182.255 117ZM169.255 128.3L169.32 129.548C169.33 129.548 169.34 129.547 169.35 129.546L169.255 128.3ZM164.455 127.7L163.99 128.861C164.013 128.87 164.036 128.878 164.059 128.886L164.455 127.7ZM164.155 124.2L164.831 125.251C164.841 125.245 164.851 125.238 164.86 125.232L164.155 124.2ZM161.655 102.7L160.423 102.912L160.423 102.915L161.655 102.7ZM188.555 67.5L188.661 68.7455L188.663 68.7453L188.555 67.5ZM220.755 102.4L219.522 102.193L219.521 102.196L220.755 102.4ZM192.155 126.4L192.129 127.65C192.138 127.65 192.146 127.65 192.155 127.65V126.4ZM257.255 72.8L258.505 72.8V72.8H257.255ZM239.555 49.6L239.887 48.3951L239.885 48.3944L239.555 49.6ZM82.9546 49.6L82.6263 48.3939L82.6188 48.3959L82.9546 49.6ZM64.0046 94.3C64.0046 94.9904 64.5642 95.55 65.2546 95.55C65.9449 95.55 66.5046 94.9904 66.5046 94.3H64.0046ZM161.254 207.2H160.004C160.004 207.89 160.564 208.45 161.254 208.45V207.2ZM161.254 200.45C161.945 200.45 162.504 199.89 162.504 199.2C162.504 198.51 161.945 197.95 161.254 197.95V200.45ZM110.254 170.95C109.564 170.95 109.004 171.51 109.004 172.2C109.004 172.89 109.564 173.45 110.254 173.45V170.95ZM110.444 133.815C110.231 133.158 109.526 132.798 108.87 133.011C108.213 133.223 107.853 133.928 108.065 134.585L110.444 133.815ZM112.254 143.2L113.44 142.805C113.437 142.794 113.433 142.783 113.429 142.773L112.254 143.2ZM107.254 145.95C106.564 145.95 106.004 146.51 106.004 147.2C106.004 147.89 106.564 148.45 107.254 148.45V145.95ZM67.3551 145.368C67.8347 145.865 68.626 145.879 69.1226 145.399C69.6193 144.92 69.6332 144.128 69.1536 143.632L67.3551 145.368ZM122.004 122.3C122.004 122.99 122.564 123.55 123.254 123.55C123.945 123.55 124.504 122.99 124.504 122.3H122.004ZM88.8544 205.95C88.164 205.95 87.6044 206.51 87.6044 207.2C87.6044 207.89 88.164 208.45 88.8544 208.45V205.95ZM201.254 208.45C201.945 208.45 202.504 207.89 202.504 207.2C202.504 206.51 201.945 205.95 201.254 205.95V208.45ZM88.1044 130.2C88.1044 130.89 88.664 131.45 89.3544 131.45C90.0447 131.45 90.6044 130.89 90.6044 130.2H88.1044ZM104.554 165.2L104.539 163.95L104.539 163.95L104.554 165.2ZM75.2544 142.6L74.0058 142.659C74.0061 142.665 74.0064 142.671 74.0067 142.676L75.2544 142.6ZM78.8544 138.2L78.7506 136.954C78.7457 136.955 78.7408 136.955 78.7359 136.956L78.8544 138.2ZM65.5544 183.1L64.3106 182.976L64.3097 182.984L65.5544 183.1ZM93.7544 242.2L93.061 243.24L93.0614 243.24L93.7544 242.2ZM159.054 285.7L159.766 284.672C159.76 284.668 159.754 284.664 159.747 284.66L159.054 285.7ZM163.454 285.7L162.761 284.66C162.755 284.664 162.749 284.668 162.743 284.672L163.454 285.7ZM228.754 242.2L229.447 243.24L229.449 243.239L228.754 242.2ZM257.254 188.9H256.004H257.254ZM177.605 116.1C177.605 114.882 177.889 113.949 178.264 113.351C178.639 112.753 179.041 112.566 179.333 112.548L179.177 110.052C177.868 110.134 176.821 110.947 176.145 112.024C175.47 113.101 175.105 114.518 175.105 116.1H177.605ZM179.324 112.548C179.669 112.529 180.146 112.705 180.546 113.37C180.951 114.042 181.238 115.187 181.016 116.833L183.493 117.167C183.771 115.113 183.458 113.358 182.688 112.08C181.913 110.795 180.641 109.971 179.185 110.052L179.324 112.548ZM181.014 116.847C180.304 122.619 175.216 126.588 169.159 127.054L169.35 129.546C176.293 129.012 182.606 124.381 183.495 117.153L181.014 116.847ZM169.189 127.052C167.434 127.144 166.192 126.961 164.85 126.514L164.059 128.886C165.718 129.439 167.275 129.656 169.32 129.548L169.189 127.052ZM164.919 126.539C164.378 126.323 164.271 125.611 164.831 125.251L163.479 123.149C161.239 124.589 161.531 127.877 163.99 128.861L164.919 126.539ZM164.86 125.232C167.08 123.713 168.505 121.237 168.505 118.4H166.005C166.005 120.363 165.029 122.087 163.449 123.168L164.86 125.232ZM168.505 118.4C168.505 115.931 167.264 113.7 166.093 111.407C164.882 109.034 163.553 106.294 162.886 102.485L160.423 102.915C161.157 107.106 162.627 110.116 163.866 112.543C165.146 115.05 166.005 116.669 166.005 118.4H168.505ZM162.886 102.488C160.008 85.7927 171.808 70.1818 188.661 68.7455L188.448 66.2545C170.102 67.8182 157.301 84.8073 160.423 102.912L162.886 102.488ZM188.663 68.7453C207.358 67.1154 222.685 83.309 219.522 102.193L221.987 102.607C225.424 82.091 208.751 64.4846 188.446 66.2547L188.663 68.7453ZM219.521 102.196C217.515 114.333 206.503 125.15 192.155 125.15V127.65C207.806 127.65 219.795 115.867 221.988 102.604L219.521 102.196ZM192.18 125.15C187.484 125.054 183.788 123.786 181.301 122.029C178.801 120.263 177.605 118.079 177.605 116.1H175.105C175.105 119.121 176.909 121.987 179.858 124.071C182.822 126.164 187.025 127.546 192.129 127.65L192.18 125.15ZM258.505 72.8C258.505 61.4375 250.929 51.4447 239.887 48.3951L239.222 50.8049C249.18 53.5553 256.005 62.5625 256.005 72.8H258.505ZM239.885 48.3944C223.008 43.7733 194.994 37.95 161.255 37.95V40.45C194.715 40.45 222.501 46.2267 239.224 50.8056L239.885 48.3944ZM161.255 37.95C127.515 37.95 99.6009 43.7736 82.6263 48.3939L83.2829 50.8061C100.108 46.2265 127.795 40.45 161.255 40.45V37.95ZM82.6188 48.3959C71.6881 51.4439 64.0046 61.329 64.0046 72.8H66.5046C66.5046 62.471 73.4211 53.5561 83.2903 50.8041L82.6188 48.3959ZM64.0046 72.8V94.3H66.5046V72.8H64.0046ZM217.254 154.95H169.254V157.45H217.254V154.95ZM169.254 154.95C164.164 154.95 160.004 159.11 160.004 164.2H162.504C162.504 160.49 165.545 157.45 169.254 157.45V154.95ZM160.004 164.2V207.2H162.504V164.2H160.004ZM161.254 208.45H217.254V205.95H161.254V208.45ZM217.254 208.45C222.345 208.45 226.504 204.29 226.504 199.2H224.004C224.004 202.91 220.964 205.95 217.254 205.95V208.45ZM226.504 199.2V164.2H224.004V199.2H226.504ZM226.504 164.2C226.504 159.12 222.455 154.95 217.254 154.95V157.45C221.054 157.45 224.004 160.48 224.004 164.2H226.504ZM161.254 197.95C151.339 197.95 144.951 191.625 137.739 184.793C130.625 178.053 122.799 170.95 110.254 170.95V173.45C121.71 173.45 128.884 179.847 136.02 186.607C143.058 193.275 150.17 200.45 161.254 200.45V197.95ZM109.254 134.2C108.065 134.585 108.065 134.585 108.065 134.585C108.065 134.585 108.065 134.585 108.065 134.585C108.065 134.585 108.065 134.586 108.066 134.586C108.066 134.587 108.066 134.588 108.067 134.59C108.068 134.593 108.069 134.598 108.071 134.605C108.076 134.618 108.082 134.637 108.09 134.662C108.107 134.713 108.131 134.787 108.161 134.882C108.223 135.073 108.313 135.347 108.422 135.684C108.641 136.357 108.942 137.277 109.267 138.266C109.915 140.235 110.672 142.505 111.08 143.627L113.429 142.773C113.037 141.695 112.293 139.465 111.642 137.484C111.317 136.498 111.018 135.581 110.799 134.91C110.69 134.574 110.601 134.301 110.539 134.111C110.509 134.016 110.485 133.942 110.468 133.892C110.46 133.867 110.454 133.847 110.45 133.835C110.448 133.828 110.446 133.823 110.445 133.82C110.445 133.818 110.444 133.817 110.444 133.816C110.444 133.816 110.444 133.816 110.444 133.816C110.444 133.815 110.444 133.815 110.444 133.815C110.444 133.815 110.444 133.815 109.254 134.2ZM111.069 143.595C111.473 144.807 111.18 145.256 110.996 145.441C110.709 145.728 110.107 145.95 109.254 145.95V148.45C110.402 148.45 111.8 148.172 112.763 147.209C113.828 146.144 114.036 144.593 113.44 142.805L111.069 143.595ZM109.254 145.95H107.254V148.45H109.254V145.95ZM69.1536 143.632C63.7685 138.054 60.5044 130.562 60.5044 122.3H58.0044C58.0044 131.238 61.5403 139.346 67.3551 145.368L69.1536 143.632ZM60.5044 122.3C60.5044 105.29 74.2448 91.55 91.2544 91.55V89.05C72.864 89.05 58.0044 103.91 58.0044 122.3H60.5044ZM91.2544 91.55C108.264 91.55 122.004 105.29 122.004 122.3H124.504C124.504 103.91 109.645 89.05 91.2544 89.05V91.55ZM88.8544 208.45H201.254V205.95H88.8544V208.45ZM90.6044 130.2C90.6044 123.69 95.8447 118.45 102.354 118.45V115.95C94.464 115.95 88.1044 122.31 88.1044 130.2H90.6044ZM102.354 118.45H106.254V115.95H102.354V118.45ZM106.254 118.45C112.764 118.45 118.004 123.69 118.004 130.2H120.504C120.504 122.31 114.145 115.95 106.254 115.95V118.45ZM118.004 130.2V150.2H120.504V130.2H118.004ZM118.004 150.2C118.004 157.729 112.042 163.859 104.539 163.95L104.57 166.45C113.467 166.341 120.504 159.071 120.504 150.2H118.004ZM104.539 163.95C97.0287 164.045 90.1164 160.618 84.9924 156.111C82.4359 153.863 80.3542 151.371 78.8888 148.968C77.4126 146.547 76.6102 144.297 76.5021 142.524L74.0067 142.676C74.1486 145.003 75.1587 147.653 76.7544 150.27C78.3608 152.904 80.6103 155.587 83.3414 157.989C88.7924 162.782 96.2801 166.555 104.57 166.45L104.539 163.95ZM76.503 142.541C76.4303 141.015 77.6257 139.573 78.9729 139.444L78.7359 136.956C75.8831 137.227 73.8785 139.985 74.0058 142.659L76.503 142.541ZM78.9582 139.446C80.6481 139.305 82.0044 140.55 82.0044 142.2H84.5044C84.5044 139.05 81.8607 136.695 78.7506 136.954L78.9582 139.446ZM82.0044 142.2V168.2H84.5044V142.2H82.0044ZM82.0044 168.2C82.0044 169.71 80.764 170.95 79.2544 170.95V173.45C82.1448 173.45 84.5044 171.09 84.5044 168.2H82.0044ZM79.2544 170.95H77.5544V173.45H79.2544V170.95ZM77.5544 170.95C70.9084 170.95 64.9741 176.34 64.3106 182.976L66.7982 183.224C67.3347 177.86 72.2004 173.45 77.5544 173.45V170.95ZM64.3097 182.984C62.0669 207.146 73.1825 229.988 93.061 243.24L94.4478 241.16C75.3263 228.412 64.6419 206.454 66.799 183.216L64.3097 182.984ZM93.0614 243.24L158.361 286.74L159.747 284.66L94.4474 241.16L93.0614 243.24ZM158.343 286.728C160.071 287.924 162.438 287.924 164.166 286.728L162.743 284.672C161.871 285.276 160.638 285.276 159.766 284.672L158.343 286.728ZM164.147 286.74L229.447 243.24L228.061 241.16L162.761 284.66L164.147 286.74ZM229.449 243.239C247.596 231.108 258.504 210.718 258.504 188.9H256.004C256.004 209.882 245.513 229.492 228.06 241.161L229.449 243.239ZM258.504 188.9L258.505 72.8L256.005 72.8L256.004 188.9H258.504Z" fill="url(#paint0_linear_4_144)"/>
<path d="M199.354 99.2C200.459 99.2 201.354 98.3046 201.354 97.2C201.354 96.0954 200.459 95.2 199.354 95.2C198.25 95.2 197.354 96.0954 197.354 97.2C197.354 98.3046 198.25 99.2 199.354 99.2Z" fill="#FCA842"/>
<path d="M191.354 99.2C192.459 99.2 193.354 98.3046 193.354 97.2C193.354 96.0954 192.459 95.2 191.354 95.2C190.25 95.2 189.354 96.0954 189.354 97.2C189.354 98.3046 190.25 99.2 191.354 99.2Z" fill="#FCA842"/>
<path d="M183.354 99.2C184.459 99.2 185.354 98.3046 185.354 97.2C185.354 96.0954 184.459 95.2 183.354 95.2C182.25 95.2 181.354 96.0954 181.354 97.2C181.354 98.3046 182.25 99.2 183.354 99.2Z" fill="#FCA842"/>
<path d="M99.2544 138.2C100.359 138.2 101.254 137.305 101.254 136.2C101.254 135.095 100.359 134.2 99.2544 134.2C98.1498 134.2 97.2544 135.095 97.2544 136.2C97.2544 137.305 98.1498 138.2 99.2544 138.2Z" fill="#FCA842"/>
<defs>
<linearGradient id="paint0_linear_4_144" x1="158.254" y1="39.2" x2="158.254" y2="286.375" gradientUnits="userSpaceOnUse">
<stop stop-color="#FFBE4F"/>
<stop offset="1" stop-color="#F26B1D"/>
</linearGradient>
</defs>
</svg>
