<svg width="120" height="120" viewBox="0 0 120 120" fill="none" xmlns="http://www.w3.org/2000/svg">
<path d="M71.8484 53.2C71.8484 53.2 74.0484 60 74.8484 62.2C75.8484 65.2 73.8484 66.2 71.8484 66.2H69.8484M81.8484 49.2C81.8484 37 72.0484 27.2 59.8484 27.2C47.6484 27.2 37.8484 37 37.8484 49.2V92.2M81.9484 49.2V68.2C81.9484 77 74.7484 84.2 65.9484 84.2C57.1484 84.2 49.9484 77 49.9484 68.2V53.2C49.9484 48.8 53.5484 45.2 57.9484 45.2H74.9484" stroke="white" stroke-width="2.5" stroke-miterlimit="10" stroke-linecap="round" stroke-linejoin="round"/>
<path d="M61.8486 57.2C62.9532 57.2 63.8486 56.3045 63.8486 55.2C63.8486 54.0954 62.9532 53.2 61.8486 53.2C60.7441 53.2 59.8486 54.0954 59.8486 55.2C59.8486 56.3045 60.7441 57.2 61.8486 57.2Z" fill="white"/>
</svg>
