<svg width="320" height="320" viewBox="0 0 320 320" fill="none" xmlns="http://www.w3.org/2000/svg">
<path d="M65.2272 94.2999V72.7999C65.2272 61.9 72.5272 52.5 82.9272 49.6C99.8272 45 127.627 39.2 161.227 39.2C194.827 39.2 222.727 45 239.527 49.6C250.027 52.5 257.227 61.9999 257.227 72.7999L257.227 188.9C257.227 210.3 246.527 230.3 228.727 242.2L163.427 285.7C162.127 286.6 160.327 286.6 159.027 285.7L93.7271 242.2C74.2271 229.2 63.3271 206.8 65.5271 183.1C66.1271 177.1 71.5271 172.2 77.5271 172.2H79.2271C81.4271 172.2 83.2271 170.4 83.2271 168.2V142.2C83.2271 139.8 81.227 138 78.827 138.2C76.727 138.4 75.1271 140.5 75.2271 142.6C75.7271 150.8 88.727 165.4 104.527 165.2C112.727 165.1 119.227 158.4 119.227 150.2V130.2C119.227 123 113.427 117.2 106.227 117.2H102.327C95.127 117.2 89.327 123 89.327 130.2M161.227 199.2C140.227 199.2 134.227 172.2 110.227 172.2M109.227 134.2C109.227 134.2 111.427 141 112.227 143.2C113.227 146.2 111.227 147.2 109.227 147.2H107.227M68.2271 144.5C62.6271 138.7 59.2271 130.9 59.2271 122.3C59.2271 104.6 73.5271 90.3 91.2271 90.3C108.927 90.3 123.227 104.6 123.227 122.3M88.827 207.2H201.227M176.327 116.1C176.327 113.3 177.627 111.4 179.227 111.3C181.027 111.2 182.727 113.3 182.227 117C181.427 123.5 175.727 127.8 169.227 128.3C167.327 128.4 165.927 128.2 164.427 127.7C162.927 127.1 162.727 125.1 164.127 124.2C166.027 122.9 167.227 120.8 167.227 118.4C167.227 114.2 163.027 110.7 161.627 102.7C158.627 85.2999 170.927 69 188.527 67.5C208.027 65.8 224.027 82.6999 220.727 102.4C218.627 115.1 207.127 126.4 192.127 126.4C182.327 126.2 176.327 121.1 176.327 116.1ZM217.227 156.2H169.227C164.827 156.2 161.227 159.8 161.227 164.2V207.2H217.227C221.627 207.2 225.227 203.6 225.227 199.2V164.2C225.227 159.8 221.727 156.2 217.227 156.2Z" stroke="url(#paint0_linear_3377_434)" stroke-width="2.5" stroke-miterlimit="10" stroke-linecap="round" stroke-linejoin="round"/>
<path d="M199.327 99.2C200.432 99.2 201.327 98.3045 201.327 97.2C201.327 96.0954 200.432 95.2 199.327 95.2C198.222 95.2 197.327 96.0954 197.327 97.2C197.327 98.3045 198.222 99.2 199.327 99.2Z" fill="#4488E6"/>
<path d="M191.327 99.2C192.432 99.2 193.327 98.3045 193.327 97.2C193.327 96.0954 192.432 95.2 191.327 95.2C190.222 95.2 189.327 96.0954 189.327 97.2C189.327 98.3045 190.222 99.2 191.327 99.2Z" fill="#4488E6"/>
<path d="M183.327 99.2C184.432 99.2 185.327 98.3045 185.327 97.2C185.327 96.0954 184.432 95.2 183.327 95.2C182.222 95.2 181.327 96.0954 181.327 97.2C181.327 98.3045 182.222 99.2 183.327 99.2Z" fill="#4488E6"/>
<path d="M99.2271 138.2C100.332 138.2 101.227 137.305 101.227 136.2C101.227 135.095 100.332 134.2 99.2271 134.2C98.1225 134.2 97.2271 135.095 97.2271 136.2C97.2271 137.305 98.1225 138.2 99.2271 138.2Z" fill="#4488E6"/>
<defs>
<linearGradient id="paint0_linear_3377_434" x1="158.227" y1="39.2" x2="158.227" y2="286.375" gradientUnits="userSpaceOnUse">
<stop stop-color="#93C437"/>
<stop offset="1" stop-color="#279BE8"/>
</linearGradient>
</defs>
</svg>
