<svg width="192" height="192" viewBox="0 0 192 192" fill="none" xmlns="http://www.w3.org/2000/svg">
<path d="M105.758 90.7199C106.862 90.7199 107.758 89.8245 107.758 88.7199C107.758 87.6153 106.862 86.7199 105.758 86.7199C104.653 86.7199 103.758 87.6153 103.758 88.7199C103.758 89.8245 104.653 90.7199 105.758 90.7199Z" fill="black"/>
<path d="M126.8 85.2C126.8 85.2 131.2 98.8 132.8 103.2C134.8 109.2 130.8 111.2 126.8 111.2H122.8M60.7998 83.2C74.7998 83.2 82.7998 75.2 90.7998 67.2C98.7998 59.2 106.8 51.2 120.8 51.2C135.2 51.2 146.8 62.8 146.8 77.2V117.2C146.8 133.6 133.8 147 117.4 147.2C85.7998 147.6 59.7998 118.4 58.9998 102.2C58.7998 98 61.9998 93.7999 66.1998 93.3999C70.9998 92.9999 74.9998 96.5999 74.9998 101.4V163.4M112.8 39.2C98.7998 39.2 90.7998 47.2 82.7998 55.2C74.7998 63.2 66.7998 71.2 52.7998 71.2M104.8 27.2C90.7998 27.2 82.7998 35.2 74.7998 43.2C66.7998 51.2 58.7998 59.2 44.7998 59.2" stroke="black" stroke-width="2.5" stroke-miterlimit="10" stroke-linecap="round" stroke-linejoin="round"/>
</svg>
