<svg width="121" height="120" viewBox="0 0 121 120" fill="none" xmlns="http://www.w3.org/2000/svg">
<path d="M76.2 55.2C76.2 55.2 78.4 62 79.2 64.2C80.2 67.2 78.2 68.2 76.2 68.2H74.2M43.2 54.2C50.2 54.2 54.2 50.2 58.2 46.2C62.2 42.2 66.2 38.2 73.2 38.2C80.4 38.2 86.2 44 86.2 51.2V71.2C86.2 79.4 79.7 86.1 71.5 86.2C55.7 86.4 42.7 71.8 42.3 63.7C42.2 61.6 43.8 59.5 45.9 59.3C48.3 59.1 50.3 60.9 50.3 63.3V94.3M69.2 32.2C62.2 32.2 58.2 36.2 54.2 40.2C50.2 44.2 46.2 48.2 39.2 48.2M65.2 26.2C58.2 26.2 54.2 30.2 50.2 34.2C46.2 38.2 42.2 42.2 35.2 42.2" stroke="black" stroke-width="2.5" stroke-miterlimit="10" stroke-linecap="round" stroke-linejoin="round"/>
<path d="M66.2002 59.2C67.3048 59.2 68.2002 58.3045 68.2002 57.2C68.2002 56.0954 67.3048 55.2 66.2002 55.2C65.0956 55.2 64.2002 56.0954 64.2002 57.2C64.2002 58.3045 65.0956 59.2 66.2002 59.2Z" fill="black"/>
</svg>
