<svg width="60" height="60" viewBox="0 0 60 60" fill="none" xmlns="http://www.w3.org/2000/svg">
<path d="M26.3482 54.7V29.7C26.3482 27.9 24.7482 26.4 22.8482 26.7C21.4482 26.9 20.3482 28.3 20.3482 29.8C20.4482 37.7 27.2482 46.6 38.0482 46.7C43.6482 46.8 48.3482 42.2 48.3482 36.6V32.7M40.3482 28.7H44.3482M27.3482 20.7H46.3482C47.4482 20.7 48.3482 19.8 48.3482 18.7C48.3482 12.1 42.9482 6.70001 36.3482 6.70001H31.3482M20.4482 11.1C18.9482 10.2 17.2482 9.70001 15.4482 9.70001C9.94824 9.70001 5.44824 14.2 5.44824 19.7C5.44824 25.2 9.94824 29.7 15.4482 29.7C15.9482 29.7 16.3482 29.4 16.3482 28.9C16.2482 27.9 15.4482 25.4 15.4482 22.7C15.4482 13.9 22.6482 6.70001 31.4482 6.70001M39.0482 31.8C39.8482 31.1 40.4482 30 40.4482 28.8C40.4482 26.6 38.6482 24.8 36.4482 24.8C34.2482 24.8 32.4482 26.6 32.4482 28.8C32.4482 31 34.2482 32.8 36.4482 32.8C37.4482 32.7 38.3482 32.4 39.0482 31.8ZM45.3482 31.4C46.0482 32.2 47.1482 32.8 48.3482 32.8C50.5482 32.8 52.3482 31 52.3482 28.8C52.3482 26.6 50.5482 24.8 48.3482 24.8C46.1482 24.8 44.3482 26.6 44.3482 28.8C44.3482 29.8 44.7482 30.7 45.3482 31.4Z" stroke="#0F0F0F" stroke-width="2.5" stroke-miterlimit="10" stroke-linecap="round" stroke-linejoin="round"/>
</svg>
