<svg width="192" height="192" viewBox="0 0 192 192" fill="none" xmlns="http://www.w3.org/2000/svg">
<path d="M138.629 92.8C138.629 92.8 141.029 100.2 142.629 104.8C144.629 110.8 140.629 112.8 136.629 112.8H132.629M84.8294 164.8V102.8C84.8294 98.2 80.8294 94.4 76.0294 94.8C71.8294 95.2 68.6294 99.4 68.8294 103.6C69.6294 119.8 95.6294 149 127.429 148.8C143.829 148.6 156.829 135.2 156.829 118.8V102.8M128.629 90.8C128.629 97.4274 123.257 102.8 116.629 102.8C110.002 102.8 104.629 97.4274 104.629 90.8C104.629 84.1726 110.002 78.8 116.629 78.8C123.257 78.8 128.629 84.1726 128.629 90.8ZM128.629 90.8H138.629M138.629 90.8C138.629 97.4274 144.002 102.8 150.629 102.8C157.257 102.8 162.629 97.4274 162.629 90.8C162.629 84.1726 157.257 78.8 150.629 78.8C144.002 78.8 138.629 84.1726 138.629 90.8ZM92.6294 68.8H152.629C154.829 68.8 156.629 67 156.629 64.8C156.629 45 140.429 28.8 120.629 28.8H100.629M68.8294 39.6C64.2294 37.4 58.8294 36.4 53.2294 37.2C40.6294 38.6 30.4294 48.8 29.0294 61.4C27.2294 75.6 36.2294 88 48.8294 91.8C51.8294 92.6 54.4294 90 53.8294 87C53.0294 83.8 52.8294 80.4 52.8294 76.8C52.8294 50.2 74.2294 28.8 100.829 28.8" stroke="url(#paint0_linear_256_785)" stroke-width="2.5" stroke-miterlimit="10" stroke-linecap="round" stroke-linejoin="round"/>
<defs>
<linearGradient id="paint0_linear_256_785" x1="95.7147" y1="28.8" x2="95.7147" y2="164.8" gradientUnits="userSpaceOnUse">
<stop stop-color="#FFBE4F"/>
<stop offset="1" stop-color="#F26B1D"/>
</linearGradient>
</defs>
</svg>
