<svg width="192" height="192" viewBox="0 0 192 192" fill="none" xmlns="http://www.w3.org/2000/svg">
<path d="M119.199 82.3999C119.199 82.3999 123.599 95.9999 125.199 100.4C127.199 106.4 123.199 108.4 119.199 108.4H115.199M139.199 74.3999C139.199 49.9999 119.599 30.3999 95.1992 30.3999C70.7992 30.3999 51.1992 49.9999 51.1992 74.3999V160.4M139.399 74.3999V112.4C139.399 130 124.999 144.4 107.399 144.4C89.7992 144.4 75.3992 130 75.3992 112.4V82.3999C75.3992 73.5999 82.5992 66.3999 91.3992 66.3999H125.399" stroke="url(#paint0_linear_3240_4083)" stroke-width="2.5" stroke-miterlimit="10" stroke-linecap="round" stroke-linejoin="round"/>
<path d="M97.7578 87.52C98.8624 87.52 99.7578 86.6246 99.7578 85.52C99.7578 84.4154 98.8624 83.52 97.7578 83.52C96.6532 83.52 95.7578 84.4154 95.7578 85.52C95.7578 86.6246 96.6532 87.52 97.7578 87.52Z" fill="url(#paint1_linear_3240_4083)"/>
<defs>
<linearGradient id="paint0_linear_3240_4083" x1="95.2992" y1="30.3999" x2="95.2992" y2="160.4" gradientUnits="userSpaceOnUse">
<stop stop-color="#3CC29A"/>
<stop offset="1" stop-color="#93C437"/>
</linearGradient>
<linearGradient id="paint1_linear_3240_4083" x1="97.7578" y1="83.52" x2="97.7578" y2="87.52" gradientUnits="userSpaceOnUse">
<stop stop-color="#3CC29A"/>
<stop offset="1" stop-color="#93C437"/>
</linearGradient>
</defs>
</svg>
