<svg width="194" height="192" viewBox="0 0 194 192" fill="none" xmlns="http://www.w3.org/2000/svg">
<path d="M132.668 107.75H130.668C130.336 107.75 130.018 107.882 129.784 108.116C129.549 108.35 129.418 108.668 129.418 109C129.418 109.331 129.549 109.649 129.784 109.884C130.018 110.118 130.336 110.25 130.668 110.25H132.668C135.085 110.25 136.808 109.558 137.791 108.194C138.984 106.54 139.005 104.056 137.853 100.604L133.853 88.6043C133.748 88.2901 133.523 88.0305 133.226 87.8826C132.93 87.7346 132.587 87.7104 132.272 87.8152C131.958 87.92 131.698 88.1454 131.55 88.4417C131.402 88.738 131.378 89.081 131.482 89.3953L135.482 101.395C136.336 103.957 136.433 105.803 135.763 106.732C135.276 107.408 134.235 107.75 132.668 107.75Z" fill="url(#paint0_linear_4_2603)"/>
<path d="M128.671 58.75C119.778 58.75 115.093 63.709 110.134 68.959C104.657 74.7559 98.9941 80.75 86.6708 80.75C86.3393 80.75 86.0214 80.8817 85.787 81.1161C85.5525 81.3505 85.4208 81.6685 85.4208 82C85.4208 82.3315 85.5525 82.6495 85.787 82.8839C86.0214 83.1183 86.3393 83.25 86.6708 83.25C100.071 83.25 106.383 76.5693 111.95 70.6758C116.729 65.6182 120.855 61.25 128.671 61.25C133.642 61.2556 138.408 63.2328 141.923 66.7479C145.438 70.263 147.415 75.0289 147.421 80V114C147.413 120.297 144.909 126.333 140.457 130.786C136.004 135.238 129.967 137.743 123.671 137.75C112.157 137.75 101.558 130.803 93.9208 121.754V94C93.9208 92.0772 93.157 90.2331 91.7974 88.8735C90.4377 87.5138 88.5937 86.75 86.6708 86.75C84.748 86.75 82.9039 87.5138 81.5443 88.8735C80.1847 90.2331 79.4208 92.0772 79.4208 94C79.4208 102.798 83.9853 113.645 91.4208 122.678V148C91.4208 148.332 91.5525 148.649 91.787 148.884C92.0214 149.118 92.3393 149.25 92.6708 149.25C93.0024 149.25 93.3203 149.118 93.5547 148.884C93.7891 148.649 93.9208 148.332 93.9208 148V125.528C102.69 134.908 113.441 140.25 123.671 140.25C130.63 140.242 137.302 137.474 142.224 132.553C147.145 127.632 149.913 120.96 149.921 114V80C149.914 74.3661 147.674 68.9646 143.69 64.9808C139.706 60.997 134.305 58.7562 128.671 58.75ZM91.4208 118.576C85.5107 110.508 81.9208 101.314 81.9208 94C81.9208 92.7402 82.4213 91.532 83.3121 90.6412C84.2029 89.7504 85.4111 89.25 86.6708 89.25C87.9306 89.25 89.1388 89.7504 90.0296 90.6412C90.9204 91.532 91.4208 92.7402 91.4208 94V118.576Z" fill="url(#paint1_linear_4_2603)"/>
<path d="M129.671 42.75H103.671C95.0622 42.7609 86.7927 46.1068 80.5985 52.0851C74.4042 58.0633 70.7672 66.209 70.451 74.8118C66.1021 75.1224 62.0319 77.0673 59.0582 80.2558C56.0845 83.4443 54.4278 87.64 54.4208 92V120C54.4177 122.85 53.284 125.583 51.2687 127.598C49.2534 129.613 46.5209 130.747 43.6708 130.75C43.3393 130.75 43.0214 130.882 42.7869 131.116C42.5525 131.351 42.4208 131.668 42.4208 132C42.4208 132.332 42.5525 132.649 42.7869 132.884C43.0214 133.118 43.3393 133.25 43.6708 133.25C47.1837 133.246 50.5515 131.849 53.0355 129.365C55.5194 126.881 56.9167 123.513 56.9208 120V92C56.9254 88.0895 58.4809 84.3404 61.246 81.5752C64.0112 78.81 67.7603 77.2545 71.6708 77.25C71.9667 77.2721 72.3152 77.1729 72.541 76.9805C72.7667 76.788 72.8958 76.5808 72.9208 76.2852C72.9208 76.1719 72.9252 76.0767 72.9208 76C72.9299 67.8474 76.1725 60.0313 81.9373 54.2665C87.7021 48.5017 95.5182 45.2591 103.671 45.25H129.671C135.172 45.2563 140.446 47.4445 144.336 51.3345C148.226 55.2245 150.414 60.4987 150.421 66C150.421 66.3315 150.552 66.6495 150.787 66.8839C151.021 67.1183 151.339 67.25 151.671 67.25C152.002 67.25 152.32 67.1183 152.555 66.8839C152.789 66.6495 152.921 66.3315 152.921 66C152.914 59.8358 150.462 53.9261 146.103 49.5674C141.745 45.2087 135.835 42.7569 129.671 42.75Z" fill="url(#paint2_linear_4_2603)"/>
<path d="M120.668 95C121.772 95 122.668 94.1046 122.668 93C122.668 91.8954 121.772 91 120.668 91C119.563 91 118.668 91.8954 118.668 93C118.668 94.1046 119.563 95 120.668 95Z" fill="url(#paint3_linear_4_2603)"/>
<defs>
<linearGradient id="paint0_linear_4_2603" x1="97.671" y1="42.75" x2="97.671" y2="149.25" gradientUnits="userSpaceOnUse">
<stop stop-color="#F0677E"/>
<stop offset="1" stop-color="#DB1F2E"/>
</linearGradient>
<linearGradient id="paint1_linear_4_2603" x1="97.671" y1="42.75" x2="97.671" y2="149.25" gradientUnits="userSpaceOnUse">
<stop stop-color="#F0677E"/>
<stop offset="1" stop-color="#DB1F2E"/>
</linearGradient>
<linearGradient id="paint2_linear_4_2603" x1="97.671" y1="42.75" x2="97.671" y2="149.25" gradientUnits="userSpaceOnUse">
<stop stop-color="#F0677E"/>
<stop offset="1" stop-color="#DB1F2E"/>
</linearGradient>
<linearGradient id="paint3_linear_4_2603" x1="120.668" y1="91" x2="120.668" y2="95" gradientUnits="userSpaceOnUse">
<stop stop-color="#F0677E"/>
<stop offset="1" stop-color="#DB1F2E"/>
</linearGradient>
</defs>
</svg>
