<svg width="120" height="120" viewBox="0 0 120 120" fill="none" xmlns="http://www.w3.org/2000/svg">
<path d="M74.8486 57.7C75.9532 57.7 76.8486 56.8045 76.8486 55.7C76.8486 54.5954 75.9532 53.7 74.8486 53.7C73.7441 53.7 72.8486 54.5954 72.8486 55.7C72.8486 56.8045 73.7441 57.7 74.8486 57.7Z" fill="url(#paint0_linear_3380_2516)"/>
<path d="M87.75 53C87.75 53 90.5 61.5 91.5 64.25C92.75 68 90.25 69.25 87.75 69.25H85.25M84 31.75C75.25 31.75 70.25 36.75 65.25 41.75C60.25 46.75 55.25 51.75 47.75 51.75M55.375 101.875V63.125C55.375 60.25 52.875 57.875 49.875 58.125C47.25 58.375 45.25 61 45.375 63.625C45.875 73.75 62.125 92 82 91.875C92.25 91.75 100.375 83.375 100.375 73.125V48.125C100.375 39.125 93.125 31.875 84.125 31.875M105.25 38C105.25 27 96.25 18 85.25 18C79 18 62.75 18 62.75 18M14 81.875C19.5 81.875 24 77.375 24 71.875V56.875C24 48.625 30.75 41.875 39 41.875C39 28.75 49.625 18.125 62.75 18.125" stroke="url(#paint1_linear_3380_2516)" stroke-width="2.5" stroke-miterlimit="10" stroke-linecap="round" stroke-linejoin="round"/>
<defs>
<linearGradient id="paint0_linear_3380_2516" x1="74.8486" y1="53.7" x2="74.8486" y2="57.7" gradientUnits="userSpaceOnUse">
<stop stop-color="#279BE8"/>
<stop offset="1" stop-color="#875AE0"/>
</linearGradient>
<linearGradient id="paint1_linear_3380_2516" x1="59.625" y1="18" x2="59.625" y2="101.875" gradientUnits="userSpaceOnUse">
<stop stop-color="#279BE8"/>
<stop offset="1" stop-color="#875AE0"/>
</linearGradient>
</defs>
</svg>
