<svg width="320" height="320" viewBox="0 0 320 320" fill="none" xmlns="http://www.w3.org/2000/svg">
<path d="M86.6445 117.2C86.6445 117.2 88.8445 124 89.6445 126.2C90.6445 129.2 88.6445 130.2 86.6445 130.2H84.6445M54.6445 116.2C60.6445 116.2 64.6445 112.2 68.6445 108.2C72.6445 104.2 76.6445 100.2 83.6445 100.2C90.8445 100.2 96.6445 106 96.6445 113.2V133.2C96.6445 141.4 90.1445 148.1 81.9445 148.2C66.1445 148.4 53.1445 133.8 52.6445 125.6C52.5445 123.5 54.1445 121.4 56.2445 121.2C58.6445 121 60.6445 122.8 60.6445 125.2V147.2C60.6445 153.2 55.6445 156.2 49.6445 158.2L32.5445 163.9C26.6445 165.9 22.6445 171.4 22.6445 177.7C22.6445 180.4 25.3445 182.4 27.9445 181.5L145.645 142.3M100.645 105.2C100.645 96.4002 93.4445 89.2002 84.6445 89.2002C79.6445 89.2002 74.6445 89.2002 74.6445 89.2002C59.1445 89.2002 46.6445 101.7 46.6445 117.2V122.2C46.6445 128.2 42.6445 130.2 40.6445 132.2C38.6445 134.2 34.6445 137.2 34.6445 143.2C34.6445 149.2 38.6445 153.2 38.6445 153.2M167.645 161.2C164.245 161.2 161.545 158.4 161.645 155C161.745 151.7 164.645 149.2 167.845 149.2H170.545C171.845 149.2 173.145 148.7 174.045 147.7L175.545 146.2C177.345 144.4 177.845 141.6 176.645 139.3L175.045 136.1C174.345 134.8 175.345 133.2 176.845 133.2H186.645M285.645 123.2L281.045 109.2M256.245 106.2L251.645 115.4C251.145 116.4 251.545 117.6 252.545 118.1L260.945 122.3C261.945 122.8 262.345 124 261.845 125L257.645 133.4C257.145 134.4 257.545 135.6 258.545 136.1L267.745 140.7M196.645 125.2L255.745 105.5C256.345 105.3 256.945 105.2 257.545 105.3L294.645 110.6C296.245 110.8 296.945 112.8 295.745 114L269.245 140.5C268.845 140.9 268.245 141.3 267.645 141.5L239.345 150.6C238.545 150.8 237.845 150.1 238.045 149.4L240.245 142.2C240.845 140.2 239.345 138.3 237.345 138.3C236.145 138.3 235.145 139 234.645 140L229.745 149.8C228.945 151.5 228.445 153.3 228.445 155.2V202.9C228.445 208.2 221.945 210.9 218.245 207.1L205.745 194.6C202.345 191.2 197.745 189.3 193.045 189.3H182.045C179.045 189.3 176.545 186.8 176.545 183.8C176.545 180.8 179.045 178.3 182.045 178.3H187.645C192.645 178.3 196.545 174.1 196.545 169.1V161.3C196.545 160.2 197.445 159.3 198.545 159.3H200.545C202.545 159.3 205.545 158.3 203.545 152.3L200.545 143.3C196.445 131.1 188.545 125.3 176.545 125.3C163.245 125.3 152.545 136 152.545 149.3C152.545 159.3 156.545 161.3 156.545 173.3V175.8C156.545 177.5 155.445 179.1 153.845 179.6L89.4445 201C87.1445 201.8 84.5445 201.4 82.4445 200.1L77.5445 196.9C77.0445 196.5 76.6445 195.9 76.6445 195.3C76.5445 189.2 75.6445 188.2 74.6445 186.3L70.6445 178.3C70.0445 177.1 68.7445 176.5 67.4445 176.7C65.8445 177 64.8445 178.5 65.1445 180.1L66.3445 187C66.4445 187.9 65.5445 188.5 64.8445 188L56.3445 182.4C53.7445 180.7 50.2445 181.2 48.3445 183.7C44.2445 188.9 45.4445 196.5 50.9445 200.1L84.1445 222.2C87.1445 224.2 90.7445 225.3 94.3445 225.3C104.545 225.3 112.745 217 112.745 206.9C112.745 203.2 112.745 200.3 112.745 200.3M256.645 145.2C258.445 149.9 256.645 155.1 252.445 157.8L248.145 160.6C244.745 162.8 242.645 166.6 242.645 170.7V173.2" stroke="url(#paint0_linear_3240_3537)" stroke-width="2.5" stroke-miterlimit="10" stroke-linecap="round" stroke-linejoin="round"/>
<path d="M76.6445 121.2C77.7491 121.2 78.6445 120.305 78.6445 119.2C78.6445 118.096 77.7491 117.2 76.6445 117.2C75.54 117.2 74.6445 118.096 74.6445 119.2C74.6445 120.305 75.54 121.2 76.6445 121.2Z" fill="#5FC373"/>
<path d="M191.645 148.2C192.749 148.2 193.645 147.305 193.645 146.2C193.645 145.096 192.749 144.2 191.645 144.2C190.54 144.2 189.645 145.096 189.645 146.2C189.645 147.305 190.54 148.2 191.645 148.2Z" fill="#5FC373"/>
<defs>
<linearGradient id="paint0_linear_3240_3537" x1="159.497" y1="89.2002" x2="159.497" y2="225.3" gradientUnits="userSpaceOnUse">
<stop stop-color="#3CC29A"/>
<stop offset="1" stop-color="#93C437"/>
</linearGradient>
</defs>
</svg>
