<svg width="120" height="120" viewBox="0 0 120 120" fill="none" xmlns="http://www.w3.org/2000/svg">
<path d="M71.8484 52.2C71.8484 52.2 74.0484 59 74.8484 61.2C75.8484 64.2 73.8484 65.2 71.8484 65.2H67.8484C64.5484 65.2 61.8484 67.9 61.8484 71.2C61.8484 72.3 60.9484 73.2 59.8484 73.2C56.5484 73.2 53.8484 70.5 53.8484 67.2V57.2C53.8484 52.8 50.2484 49.2 45.8484 49.2H43.8484C42.7484 49.2 41.8484 48.3 41.8484 47.2C41.8484 36 51.2484 26.9 62.6484 27.3C73.4484 27.7 81.9484 36.9 81.9484 47.8V70.3C81.9484 78.5 75.4484 85.2 67.2484 85.3C51.3484 85.4 38.3484 70.8 37.9484 62.7C37.8484 60.6 39.4484 58.5 41.5484 58.3C43.9484 58.1 45.9484 59.9 45.9484 62.3V93.3" stroke="white" stroke-width="2.5" stroke-miterlimit="10" stroke-linecap="round" stroke-linejoin="round"/>
<path d="M61.8486 56.2C62.9532 56.2 63.8486 55.3046 63.8486 54.2C63.8486 53.0954 62.9532 52.2 61.8486 52.2C60.7441 52.2 59.8486 53.0954 59.8486 54.2C59.8486 55.3046 60.7441 56.2 61.8486 56.2Z" fill="white"/>
</svg>
