<svg width="120" height="120" viewBox="0 0 120 120" fill="none" xmlns="http://www.w3.org/2000/svg">
<path d="M73.0377 51.8152C72.8252 51.1584 72.1205 50.7982 71.4637 51.0107C70.8068 51.2232 70.4466 51.9279 70.6591 52.5848L73.0377 51.8152ZM74.8484 61.2L76.0343 60.8047C76.0307 60.794 76.027 60.7834 76.0232 60.7728L74.8484 61.2ZM62.6484 27.3L62.6947 26.0509L62.6923 26.0508L62.6484 27.3ZM67.2484 85.3L67.2563 86.55L67.2637 86.5499L67.2484 85.3ZM37.9484 62.7L36.6999 62.7595L36.7 62.7617L37.9484 62.7ZM41.5484 58.3L41.4446 57.0543C41.4397 57.0547 41.4348 57.0552 41.4299 57.0556L41.5484 58.3ZM44.6984 93.3C44.6984 93.9904 45.2581 94.55 45.9484 94.55C46.6388 94.55 47.1984 93.9904 47.1984 93.3H44.6984ZM71.8484 52.2C70.6591 52.5848 70.6591 52.5848 70.6592 52.5849C70.6592 52.5849 70.6592 52.585 70.6592 52.5851C70.6593 52.5853 70.6594 52.5857 70.6596 52.5861C70.6598 52.5869 70.6602 52.5882 70.6608 52.5898C70.6618 52.5931 70.6634 52.5981 70.6655 52.6046C70.6698 52.6176 70.676 52.6369 70.6842 52.6621C70.7006 52.7126 70.7246 52.7869 70.7555 52.8822C70.8174 53.0728 70.9066 53.3475 71.0161 53.6839C71.2351 54.3566 71.5356 55.2767 71.8611 56.2658C72.5093 58.2355 73.2658 60.5054 73.6737 61.6272L76.0232 60.7728C75.6311 59.6946 74.8875 57.4645 74.2358 55.4842C73.9113 54.4983 73.6118 53.5809 73.3933 52.9099C73.2841 52.5744 73.1951 52.3006 73.1335 52.1107C73.1027 52.0158 73.0788 51.9419 73.0625 51.8917C73.0544 51.8666 73.0482 51.8474 73.044 51.8346C73.0419 51.8281 73.0404 51.8233 73.0393 51.8201C73.0388 51.8184 73.0384 51.8172 73.0381 51.8164C73.038 51.816 73.0379 51.8157 73.0378 51.8155C73.0378 51.8154 73.0378 51.8153 73.0378 51.8153C73.0378 51.8152 73.0377 51.8152 71.8484 52.2ZM73.6626 61.5953C74.0666 62.8073 73.7745 63.2562 73.5896 63.4411C73.3029 63.7277 72.7006 63.95 71.8484 63.95V66.45C72.9963 66.45 74.394 66.1723 75.3573 65.2089C76.4224 64.1438 76.6303 62.5927 76.0343 60.8047L73.6626 61.5953ZM67.8484 63.95C63.8581 63.95 60.5984 67.2096 60.5984 71.2H63.0984C63.0984 68.5904 65.2388 66.45 67.8484 66.45V63.95ZM60.5984 71.2C60.5984 71.6096 60.2581 71.95 59.8484 71.95V74.45C61.6388 74.45 63.0984 72.9904 63.0984 71.2H60.5984ZM59.8484 71.95C57.2388 71.95 55.0984 69.8096 55.0984 67.2H52.5984C52.5984 71.1904 55.8581 74.45 59.8484 74.45V71.95ZM55.0984 67.2V57.2H52.5984V67.2H55.0984ZM55.0984 57.2C55.0984 52.1096 50.9388 47.95 45.8484 47.95V50.45C49.5581 50.45 52.5984 53.4904 52.5984 57.2H55.0984ZM45.8484 47.95H43.8484V50.45H45.8484V47.95ZM43.8484 47.95C43.4388 47.95 43.0984 47.6096 43.0984 47.2H40.5984C40.5984 48.9904 42.0581 50.45 43.8484 50.45V47.95ZM43.0984 47.2C43.0984 36.7141 51.9052 28.1738 62.6046 28.5492L62.6923 26.0508C50.5917 25.6262 40.5984 35.2859 40.5984 47.2H43.0984ZM62.6022 28.5491C72.697 28.923 80.6984 37.5385 80.6984 47.8H83.1984C83.1984 36.2615 74.1999 26.477 62.6947 26.0509L62.6022 28.5491ZM80.6984 47.8V70.3H83.1984V47.8H80.6984ZM80.6984 70.3C80.6984 77.8286 74.7359 83.9586 67.2332 84.0501L67.2637 86.5499C76.161 86.4414 83.1984 79.1714 83.1984 70.3H80.6984ZM67.2406 84.05C59.6756 84.0976 52.7353 80.6425 47.6114 76.1363C45.0548 73.888 42.9799 71.4026 41.5275 69.0132C40.0638 66.6052 39.2829 64.379 39.1969 62.6383L36.7 62.7617C36.814 65.071 37.8081 67.7073 39.3912 70.3118C40.9857 72.9349 43.2296 75.612 45.9605 78.0137C51.4115 82.8075 58.9213 86.6024 67.2563 86.55L67.2406 84.05ZM39.197 62.6405C39.1244 61.1147 40.3197 59.6727 41.667 59.5444L41.4299 57.0556C38.5772 57.3273 36.5725 60.0853 36.6999 62.7595L39.197 62.6405ZM41.6522 59.5457C43.3421 59.4049 44.6984 60.6499 44.6984 62.3H47.1984C47.1984 59.1501 44.5548 56.7951 41.4446 57.0543L41.6522 59.5457ZM44.6984 62.3V93.3H47.1984V62.3H44.6984ZM71.8484 63.95H67.8484V66.45H71.8484V63.95Z" fill="url(#paint0_linear_4_2782)"/>
<path d="M61.8486 56.2C62.9532 56.2 63.8486 55.3046 63.8486 54.2C63.8486 53.0954 62.9532 52.2 61.8486 52.2C60.7441 52.2 59.8486 53.0954 59.8486 54.2C59.8486 55.3046 60.7441 56.2 61.8486 56.2Z" fill="url(#paint1_linear_4_2782)"/>
<defs>
<linearGradient id="paint0_linear_4_2782" x1="59.9462" y1="27.2873" x2="59.9462" y2="93.3" gradientUnits="userSpaceOnUse">
<stop stop-color="#F0677E"/>
<stop offset="1" stop-color="#DB1F2E"/>
</linearGradient>
<linearGradient id="paint1_linear_4_2782" x1="61.8486" y1="52.2" x2="61.8486" y2="56.2" gradientUnits="userSpaceOnUse">
<stop stop-color="#F0677E"/>
<stop offset="1" stop-color="#DB1F2E"/>
</linearGradient>
</defs>
</svg>
