<svg width="192" height="192" viewBox="0 0 192 192" fill="none" xmlns="http://www.w3.org/2000/svg">
<path d="M105.758 90.7199C106.862 90.7199 107.758 89.8245 107.758 88.7199C107.758 87.6153 106.862 86.7199 105.758 86.7199C104.653 86.7199 103.758 87.6153 103.758 88.7199C103.758 89.8245 104.653 90.7199 105.758 90.7199Z" fill="url(#paint0_linear_256_92)"/>
<path d="M126.8 85.2C126.8 85.2 131.2 98.8 132.8 103.2C134.8 109.2 130.8 111.2 126.8 111.2H122.8M60.8 83.2C74.8 83.2 82.8 75.2 90.8 67.2C98.8 59.2 106.8 51.2 120.8 51.2C135.2 51.2 146.8 62.8 146.8 77.2V117.2C146.8 133.6 133.8 147 117.4 147.2C85.8 147.6 59.8 118.4 59 102.2C58.8 98 62 93.8 66.2 93.4C71 93 75 96.6 75 101.4V163.4M112.8 39.2C98.8 39.2 90.8 47.2 82.8 55.2C74.8 63.2 66.8 71.2 52.8 71.2M104.8 27.2C90.8 27.2 82.8001 35.2 74.8001 43.2C66.8001 51.2 58.8 59.2 44.8 59.2" stroke="url(#paint1_linear_256_92)" stroke-width="2.5" stroke-miterlimit="10" stroke-linecap="round" stroke-linejoin="round"/>
<defs>
<linearGradient id="paint0_linear_256_92" x1="105.758" y1="86.7199" x2="105.758" y2="90.7199" gradientUnits="userSpaceOnUse">
<stop stop-color="#F0677E"/>
<stop offset="1" stop-color="#DB1F2E"/>
</linearGradient>
<linearGradient id="paint1_linear_256_92" x1="95.8" y1="27.2" x2="95.8" y2="163.4" gradientUnits="userSpaceOnUse">
<stop stop-color="#F0677E"/>
<stop offset="1" stop-color="#DB1F2E"/>
</linearGradient>
</defs>
</svg>
