<svg width="60" height="60" viewBox="0 0 60 60" fill="none" xmlns="http://www.w3.org/2000/svg">
<path d="M20.8486 53.7V28.7C20.8486 26.9 19.2486 25.4 17.3486 25.7C15.9486 25.9 14.8486 27.4 14.8486 28.8C14.9486 36.8 21.8486 45.6 32.6486 45.7C38.2486 45.8 42.9486 41.2 42.9486 35.6V21.1C42.9486 14.3 37.3486 8.1 30.5486 7.7C23.8486 7.5 18.2486 12.1 17.1486 18.4C16.9486 19.6 17.8486 20.8 19.1486 20.8H21.9486C24.1486 20.8 25.9486 22.6 25.9486 24.8V35.4C25.9486 36.3 27.0486 36.7 27.6486 36.1C29.1486 34.6 31.1486 33.8 33.1486 33.8H34.9486C35.9486 33.8 37.9486 33.8 36.9486 30.8C35.9486 27.8 34.9486 24.8 34.9486 24.8" stroke="url(#paint0_linear_3240_4840)" stroke-width="2.5" stroke-miterlimit="10" stroke-linecap="round" stroke-linejoin="round"/>
<defs>
<linearGradient id="paint0_linear_3240_4840" x1="28.8986" y1="7.69373" x2="28.8986" y2="53.7" gradientUnits="userSpaceOnUse">
<stop stop-color="#3CC29A"/>
<stop offset="1" stop-color="#93C437"/>
</linearGradient>
</defs>
</svg>
