<svg width="320" height="320" viewBox="0 0 320 320" fill="none" xmlns="http://www.w3.org/2000/svg">
<path d="M151.228 181.2C149.028 179 148.028 176 148.228 172.2C148.728 164.1 154.428 153.3 163.828 143.9C173.728 134 185.028 128.3 193.128 128.2C196.428 128.2 199.128 129.2 201.128 131.2C203.328 133.4 204.328 136.4 204.128 140.2C203.628 148.3 197.928 159.1 188.528 168.5C179.828 177.2 170.028 182.7 162.228 183.9M211.428 201.3C202.928 208.3 194.028 212.2 187.228 212.3C183.928 212.3 181.228 211.3 179.228 209.3L151.228 181.3M296.228 220.2C256.228 180.2 208.228 216.2 208.228 252.2C208.228 270.2 218.028 284.2 230.228 284.2C242.428 284.2 252.228 270.2 252.228 252.2C252.228 224.6 225.728 203.2 218.428 197.8C217.428 197.1 217.328 195.7 218.128 194.8C226.628 185.8 231.728 175.7 232.228 168.1C232.428 164.3 231.428 161.3 229.228 159.1L210.228 140.1M168.228 68.2002V92.2002M216.228 116.2H192.228M201.228 83.2002L184.228 100.2M136.228 196.2V172.2M88.2275 148.2H112.228M103.228 181.2L120.228 164.2M24.2275 240.2C24.2275 240.2 34.2275 268.2 56.2275 268.2C73.9275 268.2 88.2275 246.7 88.2275 220.2C88.2275 160.2 24.2275 144.2 24.2275 84.2002C24.2275 57.7002 38.5275 36.2002 56.2275 36.2002C74.2275 36.2002 89.2275 52.2002 89.2275 74.2002C89.2275 79.7002 86.5275 84.2002 83.2275 84.2002C79.9275 84.2002 77.2275 79.7002 77.2275 74.2002C77.2275 68.2002 82.2275 62.2002 88.2275 58.2002C102.628 48.6002 120.928 50.9002 133.228 63.2002L149.228 79.2002C151.428 81.4002 152.428 84.4002 152.228 88.2002C152.028 91.8002 150.728 96.1002 148.528 100.4L164.328 116.2C166.528 118.4 166.528 122 164.328 124.2C162.128 126.4 158.528 126.4 156.328 124.2L142.328 110.2C140.628 112.4 138.728 114.5 136.728 116.6C134.628 118.7 132.528 120.6 130.328 122.2L144.328 136.2C146.528 138.4 146.528 142 144.328 144.2C142.128 146.4 138.528 146.4 136.328 144.2L120.528 128.5C115.728 130.9 111.128 132.2 107.328 132.3C104.028 132.3 101.328 131.3 99.3275 129.3L83.3275 113.3C75.0275 105 71.4275 93.9002 72.7275 83.2002M169.028 169C166.728 171.3 163.628 171.9 162.128 170.4C160.628 168.9 161.228 165.8 163.528 163.5C165.828 161.2 168.928 160.6 170.428 162.1C171.928 163.6 171.328 166.7 169.028 169ZM190.028 148C187.728 150.3 184.628 150.9 183.128 149.4C181.628 147.9 182.228 144.8 184.528 142.5C186.828 140.2 189.928 139.6 191.428 141.1C192.928 142.6 192.328 145.7 190.028 148Z" stroke="url(#paint0_linear_3240_613)" stroke-width="2.5" stroke-miterlimit="10" stroke-linecap="round" stroke-linejoin="round"/>
<defs>
<linearGradient id="paint0_linear_3240_613" x1="160.228" y1="36.2002" x2="160.228" y2="284.2" gradientUnits="userSpaceOnUse">
<stop stop-color="#93C437"/>
<stop offset="1" stop-color="#279BE8"/>
</linearGradient>
</defs>
</svg>
