<svg width="192" height="192" viewBox="0 0 192 192" fill="none" xmlns="http://www.w3.org/2000/svg">
<path d="M100.479 110.011C99.8225 110.225 99.4637 110.931 99.6774 111.587C99.8911 112.243 100.597 112.602 101.253 112.389L100.479 110.011ZM128.628 125.191C129.175 124.77 129.278 123.985 128.857 123.438C128.436 122.891 127.651 122.788 127.104 123.209L128.628 125.191ZM40.616 50.2C40.616 49.5097 40.0563 48.95 39.366 48.95C38.6756 48.95 38.116 49.5097 38.116 50.2H40.616ZM45.966 66.2L46.8499 65.3161L46.8399 65.3063L45.966 66.2ZM70.866 77.1L71.7498 76.2161C71.3763 75.8426 70.8083 75.7442 70.3309 75.9703L70.866 77.1ZM80.466 86.7L81.3499 85.8161L80.466 86.7ZM85.466 81.7L86.3499 80.8161L85.466 81.7ZM76.966 73.2L76.2268 72.192C75.9327 72.4077 75.7474 72.7411 75.7196 73.1047C75.6918 73.4683 75.8242 73.826 76.0821 74.0839L76.966 73.2ZM84.966 65.2L85.8499 64.3161C85.592 64.0582 85.2343 63.9258 84.8707 63.9537C84.507 63.9815 84.1736 64.1667 83.958 64.4608L84.966 65.2ZM98.466 68.7L99.3499 67.8161L98.466 68.7ZM88.866 59.1L87.7363 58.5649C87.5101 59.0423 87.6085 59.6104 87.9821 59.9839L88.866 59.1ZM45.0821 33.3161C44.5939 33.8043 44.5939 34.5957 45.0821 35.0839C45.5702 35.5721 46.3617 35.5721 46.8498 35.0839L45.0821 33.3161ZM110.982 55.3161C110.494 55.8043 110.494 56.5957 110.982 57.0839C111.47 57.5721 112.262 57.5721 112.75 57.0839L110.982 55.3161ZM124.75 45.0839C125.238 44.5957 125.238 43.8043 124.75 43.3161C124.262 42.828 123.47 42.828 122.982 43.3161L124.75 45.0839ZM100.616 52.2C100.616 52.8904 101.176 53.45 101.866 53.45C102.556 53.45 103.116 52.8904 103.116 52.2H100.616ZM103.116 36.2C103.116 35.5097 102.556 34.95 101.866 34.95C101.176 34.95 100.616 35.5097 100.616 36.2H103.116ZM115.866 64.95C115.176 64.95 114.616 65.5097 114.616 66.2C114.616 66.8904 115.176 67.45 115.866 67.45V64.95ZM131.866 67.45C132.556 67.45 133.116 66.8904 133.116 66.2C133.116 65.5097 132.556 64.95 131.866 64.95V67.45ZM68.7499 101.084C69.238 100.596 69.238 99.8043 68.7499 99.3161C68.2617 98.828 67.4702 98.828 66.9821 99.3161L68.7499 101.084ZM54.9821 111.316C54.4939 111.804 54.4939 112.596 54.9821 113.084C55.4702 113.572 56.2617 113.572 56.7499 113.084L54.9821 111.316ZM79.116 104.2C79.116 103.51 78.5563 102.95 77.866 102.95C77.1756 102.95 76.616 103.51 76.616 104.2H79.116ZM76.616 120.2C76.616 120.89 77.1756 121.45 77.866 121.45C78.5563 121.45 79.116 120.89 79.116 120.2H76.616ZM63.866 91.45C64.5563 91.45 65.116 90.8904 65.116 90.2C65.116 89.5097 64.5563 88.95 63.866 88.95V91.45ZM47.866 88.95C47.1756 88.95 46.616 89.5097 46.616 90.2C46.616 90.8904 47.1756 91.45 47.866 91.45V88.95ZM134.066 120.8L134.634 119.687L134.625 119.682L134.066 120.8ZM133.766 119.2L132.834 118.367C132.819 118.384 132.804 118.401 132.79 118.419L133.766 119.2ZM131.75 86.3161C131.262 85.828 130.47 85.828 129.982 86.3161C129.494 86.8043 129.494 87.5957 129.982 88.0839L131.75 86.3161ZM183.027 137.126C183.538 137.59 184.329 137.551 184.792 137.039C185.256 136.528 185.217 135.737 184.705 135.274L183.027 137.126ZM46.7499 35.0839C47.238 34.5957 47.238 33.8043 46.7499 33.3161C46.2617 32.828 45.4702 32.828 44.9821 33.3161L46.7499 35.0839ZM9.03638 151.761C8.79398 151.115 8.07346 150.787 7.42706 151.03C6.78066 151.272 6.45316 151.993 6.69556 152.639L9.03638 151.761ZM90.7498 109.316C88.9492 107.515 88.5327 104.245 89.8821 100.004C91.2101 95.8304 94.1618 91.072 98.4499 86.7839L96.6821 85.0161C92.1702 89.5281 88.9719 94.6196 87.4998 99.246C86.0492 103.805 86.1827 108.285 88.9821 111.084L90.7498 109.316ZM98.4499 86.7839C102.738 82.4958 107.496 79.5441 111.67 78.2162C115.911 76.8668 119.181 77.2833 120.982 79.0839L122.75 77.3161C119.95 74.5168 115.471 74.3833 110.912 75.8339C106.286 77.3059 101.194 80.5042 96.6821 85.0161L98.4499 86.7839ZM120.982 79.0839C122.783 80.8845 123.199 84.155 121.85 88.396C120.522 92.5696 117.57 97.3281 113.282 101.616L115.05 103.384C119.562 98.872 122.76 93.7804 124.232 89.154C125.683 84.595 125.549 80.1155 122.75 77.3161L120.982 79.0839ZM113.282 101.616C109.088 105.81 104.551 108.686 100.479 110.011L101.253 112.389C105.781 110.914 110.644 107.79 115.05 103.384L113.282 101.616ZM127.104 123.209C123.31 126.128 119.454 128 116.148 128.689C112.818 129.383 110.279 128.845 108.75 127.316L106.982 129.084C109.353 131.455 112.913 131.917 116.659 131.136C120.428 130.35 124.622 128.272 128.628 125.191L127.104 123.209ZM108.75 127.316L90.7498 109.316L88.9821 111.084L106.982 129.084L108.75 127.316ZM38.116 50.2C38.116 56.302 40.328 62.4356 45.0921 67.0938L46.8399 65.3063C42.6039 61.1644 40.616 55.698 40.616 50.2H38.116ZM45.0821 67.0839L56.0821 78.0839L57.8498 76.3161L46.8498 65.3161L45.0821 67.0839ZM56.0821 78.0839C57.8386 79.8405 60.2573 80.5546 62.892 80.4997C65.5185 80.445 68.4445 79.6302 71.4011 78.2297L70.3309 75.9703C67.5874 77.2699 65.0134 77.955 62.8399 78.0003C60.6746 78.0454 58.9933 77.4596 57.8498 76.3161L56.0821 78.0839ZM69.9821 77.9839L79.5821 87.5839L81.3499 85.8161L71.7498 76.2161L69.9821 77.9839ZM79.5821 87.5839C81.4702 89.472 84.4617 89.472 86.3499 87.5839L84.5821 85.8161C83.6702 86.728 82.2617 86.728 81.3499 85.8161L79.5821 87.5839ZM86.3499 87.5839C88.238 85.6957 88.238 82.7043 86.3499 80.8161L84.5821 82.5839C85.4939 83.4957 85.4939 84.9043 84.5821 85.8161L86.3499 87.5839ZM86.3499 80.8161L77.8499 72.3161L76.0821 74.0839L84.5821 82.5839L86.3499 80.8161ZM77.7052 74.208C79.2578 73.0694 80.706 71.8277 82.1498 70.3839L80.3821 68.6161C79.0259 69.9723 77.6741 71.1306 76.2268 72.192L77.7052 74.208ZM82.1498 70.3839C83.5937 68.9401 84.8354 67.4919 85.974 65.9392L83.958 64.4608C82.8966 65.9082 81.7383 67.2599 80.3821 68.6161L82.1498 70.3839ZM84.0821 66.0839L92.5821 74.5839L94.3499 72.8161L85.8499 64.3161L84.0821 66.0839ZM92.5821 74.5839C94.4702 76.472 97.4617 76.472 99.3499 74.5839L97.5821 72.8161C96.6702 73.728 95.2617 73.728 94.3499 72.8161L92.5821 74.5839ZM99.3499 74.5839C101.238 72.6957 101.238 69.7043 99.3499 67.8161L97.5821 69.5839C98.4939 70.4957 98.4939 71.9043 97.5821 72.8161L99.3499 74.5839ZM99.3499 67.8161L89.7498 58.2161L87.9821 59.9839L97.5821 69.5839L99.3499 67.8161ZM89.9956 59.6351C91.3961 56.6786 92.211 53.7526 92.2657 51.126C92.3206 48.4913 91.6064 46.0727 89.8499 44.3161L88.0821 46.0839C89.2255 47.2273 89.8114 48.9087 89.7662 51.074C89.721 53.2474 89.0358 55.8214 87.7363 58.5649L89.9956 59.6351ZM89.8499 44.3161L78.8499 33.3161L77.0821 35.0839L88.0821 46.0839L89.8499 44.3161ZM78.8499 33.3161C69.5617 24.028 54.3702 24.028 45.0821 33.3161L46.8498 35.0839C55.1617 26.7721 68.7702 26.7721 77.0821 35.0839L78.8499 33.3161ZM112.75 57.0839L124.75 45.0839L122.982 43.3161L110.982 55.3161L112.75 57.0839ZM103.116 52.2V36.2H100.616V52.2H103.116ZM115.866 67.45H131.866V64.95H115.866V67.45ZM66.9821 99.3161L54.9821 111.316L56.7499 113.084L68.7499 101.084L66.9821 99.3161ZM76.616 104.2V120.2H79.116V104.2H76.616ZM63.866 88.95H47.866V91.45H63.866V88.95ZM113.382 88.7161C112.729 89.3695 111.983 89.7647 111.362 89.9064C110.71 90.0556 110.426 89.8925 110.35 89.8161L108.582 91.5839C109.506 92.5076 110.822 92.5944 111.92 92.3436C113.049 92.0853 114.203 91.4305 115.15 90.4839L113.382 88.7161ZM110.35 89.8161C110.274 89.7398 110.11 89.456 110.26 88.8035C110.401 88.1834 110.796 87.4373 111.45 86.7839L109.682 85.0161C108.735 85.9628 108.081 87.1166 107.822 88.2465C107.572 89.344 107.658 90.6602 108.582 91.5839L110.35 89.8161ZM111.45 86.7839C112.103 86.1305 112.849 85.7353 113.469 85.5936C114.122 85.4445 114.406 85.6076 114.482 85.6839L116.25 83.9161C115.326 82.9925 114.01 82.9056 112.912 83.1564C111.783 83.4147 110.629 84.0695 109.682 85.0161L111.45 86.7839ZM114.482 85.6839C114.558 85.7602 114.722 86.044 114.572 86.6965C114.431 87.3166 114.035 88.0628 113.382 88.7161L115.15 90.4839C116.096 89.5373 116.751 88.3835 117.01 87.2535C117.26 86.1561 117.174 84.8398 116.25 83.9161L114.482 85.6839ZM100.382 101.716C99.7287 102.369 98.9825 102.765 98.3624 102.906C97.7099 103.056 97.4262 102.892 97.3499 102.816L95.5821 104.584C96.5057 105.508 97.822 105.594 98.9195 105.344C100.049 105.085 101.203 104.431 102.15 103.484L100.382 101.716ZM97.3499 102.816C97.2735 102.74 97.1104 102.456 97.2595 101.804C97.4013 101.183 97.7965 100.437 98.4499 99.7839L96.6821 98.0161C95.7355 98.9628 95.0807 100.117 94.8224 101.246C94.5715 102.344 94.6584 103.66 95.5821 104.584L97.3499 102.816ZM98.4499 99.7839C99.1032 99.1305 99.8494 98.7353 100.469 98.5936C101.122 98.4445 101.406 98.6076 101.482 98.6839L103.25 96.9161C102.326 95.9925 101.01 95.9056 99.9124 96.1564C98.7825 96.4147 97.6287 97.0695 96.6821 98.0161L98.4499 99.7839ZM101.482 98.6839C101.558 98.7602 101.722 99.044 101.572 99.6965C101.431 100.317 101.035 101.063 100.382 101.716L102.15 103.484C103.096 102.537 103.751 101.383 104.01 100.254C104.26 99.1561 104.174 97.8398 103.25 96.9161L101.482 98.6839ZM157.116 154.2C157.116 132.735 139.4 122.12 134.634 119.687L133.497 121.913C138.132 124.28 154.616 134.265 154.616 154.2H157.116ZM134.625 119.682C134.666 119.702 134.705 119.736 134.734 119.777C134.76 119.815 134.77 119.848 134.774 119.87C134.779 119.902 134.775 119.94 134.742 119.981L132.79 118.419C131.979 119.433 132.077 121.203 133.507 121.918L134.625 119.682ZM134.698 120.033C138.602 115.667 141.313 110.823 142.486 106.449C143.642 102.137 143.373 97.9391 140.75 95.3161L138.982 97.0839C140.659 98.7609 141.14 101.813 140.071 105.801C139.019 109.727 136.53 114.233 132.834 118.367L134.698 120.033ZM140.75 95.3161L131.75 86.3161L129.982 88.0839L138.982 97.0839L140.75 95.3161ZM184.705 135.274C168.407 120.503 152.867 119.308 141.317 124.952C129.891 130.535 122.616 142.719 122.616 154.2H125.116C125.116 143.681 131.841 132.365 142.415 127.198C152.865 122.092 167.325 122.897 183.027 137.126L184.705 135.274ZM122.616 154.2C122.616 160.536 124.484 166.301 127.556 170.512C130.627 174.721 134.969 177.45 139.866 177.45V174.95C135.963 174.95 132.305 172.779 129.576 169.038C126.848 165.299 125.116 160.064 125.116 154.2H122.616ZM139.866 177.45C144.763 177.45 149.105 174.721 152.176 170.512C155.248 166.301 157.116 160.536 157.116 154.2H154.616C154.616 160.064 152.884 165.299 150.156 169.038C147.427 172.779 143.769 174.95 139.866 174.95V177.45ZM44.9821 33.3161C42.7323 35.5659 41.616 38.8908 41.616 41.2H44.116C44.116 39.5092 44.9996 36.8342 46.7499 35.0839L44.9821 33.3161ZM7.86597 152.2C6.69556 152.639 6.69574 152.639 6.69595 152.64C6.69605 152.64 6.69629 152.641 6.69649 152.641C6.6969 152.642 6.69739 152.644 6.69798 152.645C6.69917 152.648 6.70072 152.653 6.70265 152.658C6.7065 152.668 6.71184 152.682 6.71869 152.699C6.73238 152.734 6.75208 152.784 6.77784 152.848C6.82937 152.976 6.90523 153.158 7.00593 153.389C7.20723 153.849 7.50837 154.499 7.91357 155.277C8.72244 156.83 9.95416 158.906 11.6458 160.988C15.0177 165.138 20.3383 169.45 27.866 169.45V166.95C21.3936 166.95 16.7142 163.262 13.5861 159.412C12.0278 157.494 10.8845 155.57 10.1309 154.123C9.75482 153.401 9.47783 152.801 9.29632 152.386C9.20561 152.179 9.13889 152.018 9.09569 151.911C9.0741 151.858 9.05839 151.818 9.04852 151.793C9.04359 151.78 9.04011 151.771 9.03809 151.766C9.03708 151.763 9.03643 151.761 9.03615 151.76C9.03601 151.76 9.03595 151.76 9.03599 151.76C9.03601 151.76 9.03611 151.76 9.03612 151.76C9.03624 151.761 9.03638 151.761 7.86597 152.2ZM27.866 169.45C33.9525 169.45 39.2941 165.498 43.0503 159.501C46.8181 153.486 49.116 145.248 49.116 136.2H46.616C46.616 144.852 44.4138 152.615 40.9316 158.174C37.4379 163.752 32.7795 166.95 27.866 166.95V169.45ZM49.116 136.2C49.116 116.708 38.818 103.889 28.8421 91.4191C18.818 78.8891 9.11597 66.708 9.11597 48.2H6.61597C6.61597 67.692 16.9139 80.511 26.8899 92.9809C36.9139 105.511 46.616 117.692 46.616 136.2H49.116ZM9.11597 48.2C9.11597 39.5478 11.3181 31.7855 14.8003 26.226C18.2941 20.6481 22.9525 17.45 27.866 17.45V14.95C21.7795 14.95 16.4379 18.9019 12.6816 24.899C8.91379 30.9145 6.61597 39.1522 6.61597 48.2H9.11597ZM41.616 41.2C41.616 44.4244 43.7368 47.45 46.866 47.45V44.95C45.5951 44.95 44.116 43.5756 44.116 41.2H41.616ZM46.866 47.45C49.9951 47.45 52.116 44.4244 52.116 41.2H49.616C49.616 43.5756 48.1368 44.95 46.866 44.95V47.45ZM52.116 41.2C52.116 26.5996 41.2429 14.95 27.866 14.95V17.45C39.689 17.45 49.616 27.8005 49.616 41.2H52.116Z" fill="url(#paint0_linear_4_1040)"/>
<defs>
<linearGradient id="paint0_linear_4_1040" x1="95.866" y1="16.2" x2="95.866" y2="176.2" gradientUnits="userSpaceOnUse">
<stop stop-color="#F0677E"/>
<stop offset="1" stop-color="#DB1F2E"/>
</linearGradient>
</defs>
</svg>
