<svg width="321" height="320" viewBox="0 0 321 320" fill="none" xmlns="http://www.w3.org/2000/svg">
<path d="M151.255 181.2C149.055 179 148.055 176 148.255 172.2C148.755 164.1 154.455 153.3 163.855 143.9C173.755 134 185.055 128.3 193.155 128.2C196.455 128.2 199.155 129.2 201.155 131.2C203.355 133.4 204.355 136.4 204.155 140.2C203.655 148.3 197.955 159.1 188.555 168.5C179.855 177.2 170.055 182.7 162.255 183.9M211.455 201.3C202.955 208.3 194.055 212.2 187.255 212.3C183.955 212.3 181.255 211.3 179.255 209.3L151.255 181.3M296.255 220.2C256.255 180.2 208.255 216.2 208.255 252.2C208.255 270.2 218.055 284.2 230.255 284.2C242.455 284.2 252.255 270.2 252.255 252.2C252.255 224.6 225.755 203.2 218.455 197.8C217.455 197.1 217.355 195.7 218.155 194.8C226.655 185.8 231.755 175.7 232.255 168.1C232.455 164.3 231.455 161.3 229.255 159.1L210.255 140.1M168.255 68.2V92.2M216.255 116.2H192.255M201.255 83.2L184.255 100.2M136.255 196.2V172.2M88.2546 148.2H112.255M103.255 181.2L120.255 164.2M24.2546 240.2C24.2546 240.2 34.2546 268.2 56.2546 268.2C73.9546 268.2 88.2546 246.7 88.2546 220.2C88.2546 160.2 24.2546 144.2 24.2546 84.2C24.2546 57.7 38.5546 36.2 56.2546 36.2C74.2546 36.2 89.2546 52.2 89.2546 74.2C89.2546 79.7 86.5546 84.2 83.2546 84.2C79.9546 84.2 77.2546 79.7 77.2546 74.2C77.2546 68.2 82.2546 62.2 88.2546 58.2C102.655 48.6 120.955 50.9 133.255 63.2L149.255 79.2C151.455 81.4 152.455 84.4 152.255 88.2C152.055 91.8 150.755 96.1 148.555 100.4L164.355 116.2C166.555 118.4 166.555 122 164.355 124.2C162.155 126.4 158.555 126.4 156.355 124.2L142.355 110.2C140.655 112.4 138.755 114.5 136.755 116.6C134.655 118.7 132.555 120.6 130.355 122.2L144.355 136.2C146.555 138.4 146.555 142 144.355 144.2C142.155 146.4 138.555 146.4 136.355 144.2L120.555 128.5C115.755 130.9 111.155 132.2 107.355 132.3C104.055 132.3 101.355 131.3 99.3546 129.3L83.3546 113.3C75.0546 105 71.4546 93.9 72.7546 83.2M169.055 169C166.755 171.3 163.655 171.9 162.155 170.4C160.655 168.9 161.255 165.8 163.555 163.5C165.855 161.2 168.955 160.6 170.455 162.1C171.955 163.6 171.355 166.7 169.055 169ZM190.055 148C187.755 150.3 184.655 150.9 183.155 149.4C181.655 147.9 182.255 144.8 184.555 142.5C186.855 140.2 189.955 139.6 191.455 141.1C192.955 142.6 192.355 145.7 190.055 148Z" stroke="white" stroke-width="2.5" stroke-miterlimit="10" stroke-linecap="round" stroke-linejoin="round"/>
</svg>
