<svg width="192" height="192" viewBox="0 0 192 192" fill="none" xmlns="http://www.w3.org/2000/svg">
<path d="M111.862 92.3909C112.409 91.97 112.512 91.1852 112.091 90.638C111.67 90.0908 110.885 89.9884 110.338 90.4094L111.862 92.3909ZM91.1 95.4001L90.2112 96.2791L90.2161 96.284L91.1 95.4001ZM56.75 50.2C56.75 49.5096 56.1904 48.95 55.5 48.95C54.8096 48.95 54.25 49.5096 54.25 50.2H56.75ZM62.1 66.2L62.9839 65.316L62.9739 65.3062L62.1 66.2ZM87.5351 78.2296C88.159 77.9341 88.4252 77.1887 88.1297 76.5648C87.8341 75.9409 87.0888 75.6747 86.4649 75.9703L87.5351 78.2296ZM92.3608 72.1919C91.8041 72.6002 91.6837 73.3825 92.092 73.9392C92.5003 74.4959 93.2825 74.6162 93.8392 74.208L92.3608 72.1919ZM102.108 65.9392C102.516 65.3825 102.396 64.6002 101.839 64.1919C101.283 63.7837 100.5 63.904 100.092 64.4607L102.108 65.9392ZM103.87 58.5648C103.575 59.1887 103.841 59.9341 104.465 60.2296C105.089 60.5252 105.834 60.259 106.13 59.6351L103.87 58.5648ZM61.2161 33.3161C60.728 33.8042 60.728 34.5957 61.2161 35.0838C61.7043 35.572 62.4957 35.572 62.9839 35.0838L61.2161 33.3161ZM117.3 88.0002L117.868 86.8869L117.859 86.8821L117.3 88.0002ZM117 86.4001L116.068 85.567C116.053 85.584 116.038 85.6014 116.024 85.6193L117 86.4001ZM123.1 63.4001L122.211 64.2791L122.216 64.284L123.1 63.4001ZM166.261 104.326C166.772 104.79 167.563 104.751 168.026 104.24C168.49 103.728 168.451 102.938 167.939 102.474L166.261 104.326ZM62.8839 35.0838C63.372 34.5957 63.372 33.8042 62.8839 33.3161C62.3957 32.8279 61.6043 32.8279 61.1161 33.3161L62.8839 35.0838ZM25.1704 151.761C24.928 151.115 24.2075 150.787 23.5611 151.03C22.9147 151.272 22.5872 151.992 22.8296 152.639L25.1704 151.761ZM110.338 90.4094C106.544 93.328 102.688 95.1997 99.3824 95.889C96.0525 96.5832 93.5131 96.0455 91.9839 94.5163L90.2161 96.284C92.5869 98.6548 96.1475 99.1171 99.8926 98.3363C103.662 97.5506 107.856 95.4723 111.862 92.3909L110.338 90.4094ZM91.9888 94.5212L73.9888 76.321L72.2112 78.0789L90.2112 96.2791L91.9888 94.5212ZM54.25 50.2C54.25 56.302 56.4621 62.4355 61.2261 67.0937L62.9739 65.3062C58.7379 61.1644 56.75 55.6979 56.75 50.2H54.25ZM61.2161 67.0838L72.2161 78.0838L73.9839 76.3161L62.9839 65.3161L61.2161 67.0838ZM72.2161 78.0838C73.9727 79.8404 76.3913 80.5546 79.026 80.4997C81.6526 80.445 84.5786 79.6301 87.5351 78.2296L86.4649 75.9703C83.7214 77.2698 81.1474 77.9549 78.974 78.0002C76.8087 78.0453 75.1273 77.4595 73.9839 76.3161L72.2161 78.0838ZM93.8392 74.208C95.3919 73.0693 96.8401 71.8276 98.2839 70.3838L96.5161 68.6161C95.1599 69.9723 93.8082 71.1306 92.3608 72.1919L93.8392 74.208ZM98.2839 70.3838C99.7277 68.94 100.969 67.4918 102.108 65.9392L100.092 64.4607C99.0306 65.9081 97.8723 67.2599 96.5161 68.6161L98.2839 70.3838ZM106.13 59.6351C107.53 56.6785 108.345 53.7525 108.4 51.126C108.455 48.4913 107.74 46.0726 105.984 44.3161L104.216 46.0838C105.36 47.2273 105.945 48.9086 105.9 51.0739C105.855 53.2474 105.17 55.8214 103.87 58.5648L106.13 59.6351ZM105.984 44.3161L94.9839 33.3161L93.2161 35.0838L104.216 46.0838L105.984 44.3161ZM94.9839 33.3161C85.6957 24.0279 70.5043 24.0279 61.2161 33.3161L62.9839 35.0838C71.2957 26.772 84.9043 26.772 93.2161 35.0838L94.9839 33.3161ZM140.35 121.4C140.35 99.9349 122.634 89.3202 117.868 86.8869L116.732 89.1134C121.366 91.4801 137.85 101.465 137.85 121.4H140.35ZM117.859 86.8821C117.9 86.9026 117.939 86.9363 117.968 86.9771C117.994 87.015 118.004 87.0485 118.008 87.0696C118.013 87.1021 118.009 87.1398 117.976 87.181L116.024 85.6193C115.213 86.6329 115.311 88.403 116.741 89.1182L117.859 86.8821ZM117.932 87.2333C121.836 82.867 124.547 78.0228 125.72 73.6488C126.876 69.3369 126.607 65.1392 123.984 62.5163L122.216 64.284C123.893 65.9611 124.374 69.0134 123.305 73.0015C122.253 76.9275 119.764 81.4333 116.068 85.567L117.932 87.2333ZM123.989 62.5212L105.989 44.321L104.211 46.0789L122.211 64.2791L123.989 62.5212ZM167.939 102.474C151.641 87.7033 136.101 86.5085 124.551 92.1521C113.125 97.7351 105.85 109.919 105.85 121.4H108.35C108.35 110.881 115.075 99.5652 125.649 94.3982C136.099 89.2918 150.559 90.097 166.261 104.326L167.939 102.474ZM105.85 121.4C105.85 127.736 107.718 133.501 110.79 137.712C113.861 141.921 118.203 144.65 123.1 144.65V142.15C119.197 142.15 115.539 139.979 112.81 136.238C110.082 132.499 108.35 127.264 108.35 121.4H105.85ZM123.1 144.65C127.997 144.65 132.339 141.921 135.41 137.712C138.482 133.501 140.35 127.736 140.35 121.4H137.85C137.85 127.264 136.118 132.499 133.39 136.238C130.661 139.979 127.003 142.15 123.1 142.15V144.65ZM61.1161 33.3161C58.8664 35.5658 57.75 38.8907 57.75 41.2H60.25C60.25 39.5092 61.1336 36.8341 62.8839 35.0838L61.1161 33.3161ZM24 152.2C22.8296 152.639 22.8298 152.639 22.83 152.64C22.8301 152.64 22.8303 152.641 22.8305 152.641C22.8309 152.642 22.8314 152.644 22.832 152.645C22.8332 152.648 22.8348 152.653 22.8367 152.658C22.8405 152.668 22.8459 152.682 22.8527 152.699C22.8664 152.734 22.8861 152.784 22.9119 152.848C22.9634 152.976 23.0393 153.158 23.14 153.388C23.3413 153.849 23.6424 154.499 24.0476 155.277C24.8565 156.83 26.0882 158.906 27.7799 160.988C31.1517 165.138 36.4723 169.45 44 169.45V166.95C37.5277 166.95 32.8483 163.262 29.7201 159.412C28.1618 157.494 27.0185 155.57 26.2649 154.123C25.8889 153.401 25.6119 152.801 25.4304 152.386C25.3396 152.179 25.2729 152.018 25.2297 151.911C25.2081 151.858 25.1924 151.818 25.1826 151.793C25.1776 151.78 25.1741 151.771 25.1721 151.766C25.1711 151.763 25.1705 151.761 25.1702 151.76C25.17 151.76 25.17 151.76 25.17 151.76C25.17 151.76 25.1701 151.76 25.1702 151.76C25.1703 151.761 25.1704 151.761 24 152.2ZM44 169.45C50.0865 169.45 55.4281 165.498 59.1844 159.501C62.9522 153.485 65.25 145.248 65.25 136.2H62.75C62.75 144.852 60.5478 152.614 57.0656 158.174C53.5719 163.752 48.9135 166.95 44 166.95V169.45ZM65.25 136.2C65.25 116.708 54.952 103.889 44.9761 91.4191C34.952 78.889 25.25 66.708 25.25 48.2H22.75C22.75 67.6919 33.048 80.5109 43.0239 92.9808C53.048 105.511 62.75 117.692 62.75 136.2H65.25ZM25.25 48.2C25.25 39.5477 27.4522 31.7855 30.9344 26.226C34.4281 20.6481 39.0865 17.45 44 17.45V14.95C37.9135 14.95 32.5719 18.9018 28.8156 24.8989C25.0478 30.9144 22.75 39.1522 22.75 48.2H25.25ZM57.75 41.2C57.75 44.4244 59.8708 47.45 63 47.45V44.95C61.7292 44.95 60.25 43.5755 60.25 41.2H57.75ZM63 47.45C66.1292 47.45 68.25 44.4244 68.25 41.2H65.75C65.75 43.5755 64.2708 44.95 63 44.95V47.45ZM68.25 41.2C68.25 26.5995 57.3769 14.95 44 14.95V17.45C55.8231 17.45 65.75 27.8004 65.75 41.2H68.25Z" fill="url(#paint0_linear_4_1011)"/>
<defs>
<linearGradient id="paint0_linear_4_1011" x1="95.55" y1="16.2" x2="95.55" y2="168.2" gradientUnits="userSpaceOnUse">
<stop stop-color="#FFBE4F"/>
<stop offset="1" stop-color="#93C437"/>
</linearGradient>
</defs>
</svg>
