<svg width="120" height="120" viewBox="0 0 120 120" fill="none" xmlns="http://www.w3.org/2000/svg">
<path d="M49.6443 30.1C49.6443 23.9 53.5443 18.6 56.4443 14.8C58.0443 12.7 61.1443 12.7 62.7443 14.8C65.6443 18.6 69.5443 23.9 69.5443 30.1M39.6443 48.1V43.1C39.6443 39.3 41.6443 36.3 43.1443 34.6C43.9443 33.7 45.3443 33.7 46.1443 34.6C47.6443 36.3 49.6443 39.3 49.6443 43.1V43.8C49.6443 45.9 48.8443 48 47.3443 49.5L34.9443 61.8C31.5443 65.2 29.6443 69.8 29.6443 74.5V77C29.6443 78.1 30.5443 79 31.6443 79H47.6443C48.7443 79 49.6443 78.1 49.6443 77V56M79.6443 48.1V43.1C79.6443 39.3 77.6443 36.3 76.1443 34.6C75.3443 33.7 73.9443 33.7 73.1443 34.6C71.6443 36.3 69.6443 39.3 69.6443 43.1V43.8C69.6443 45.9 70.4443 48 71.9443 49.5L84.4443 61.8C87.8443 65.2 89.7443 69.8 89.7443 74.5V77C89.7443 78.1 88.8443 79 87.7443 79H71.7443C70.6443 79 69.7443 78.1 69.7443 77V56M35.6443 107.1C35.6443 102.7 39.2443 99.1 43.6443 99.1C43.6443 94.7 47.2443 91.1 51.6443 91.1C51.6443 86.7 55.2443 83.1 59.6443 83.1C64.0443 83.1 67.6443 86.7 67.6443 91.1C72.0443 91.1 75.6443 94.7 75.6443 99.1C80.0443 99.1 83.6443 102.7 83.6443 107.1M63.6443 37.1C63.6443 39.3091 61.8534 41.1 59.6443 41.1C57.4351 41.1 55.6443 39.3091 55.6443 37.1C55.6443 34.8908 57.4351 33.1 59.6443 33.1C61.8534 33.1 63.6443 34.8908 63.6443 37.1Z" stroke="url(#paint0_linear_4_2370)" stroke-width="2.5" stroke-miterlimit="10" stroke-linecap="round" stroke-linejoin="round"/>
<defs>
<linearGradient id="paint0_linear_4_2370" x1="59.6943" y1="13.225" x2="59.6943" y2="107.1" gradientUnits="userSpaceOnUse">
<stop stop-color="#FFBE4F"/>
<stop offset="1" stop-color="#93C437"/>
</linearGradient>
</defs>
</svg>
