<svg width="320" height="320" viewBox="0 0 320 320" fill="none" xmlns="http://www.w3.org/2000/svg">
<path d="M108 108.25C105.775 108.25 103.6 108.91 101.75 110.146C99.8995 111.382 98.4576 113.139 97.6061 115.195C96.7546 117.25 96.5318 119.512 96.9659 121.695C97.4 123.877 98.4715 125.882 100.045 127.455C101.618 129.028 103.623 130.1 105.805 130.534C107.987 130.968 110.249 130.745 112.305 129.894C114.361 129.042 116.118 127.6 117.354 125.75C118.59 123.9 119.25 121.725 119.25 119.5C119.246 116.517 118.06 113.658 115.951 111.549C113.842 109.44 110.982 108.253 108 108.25ZM108 128.25C106.269 128.25 104.577 127.737 103.139 126.775C101.7 125.814 100.578 124.447 99.9158 122.848C99.2535 121.25 99.0803 119.49 99.4179 117.793C99.7555 116.096 100.589 114.537 101.813 113.313C103.036 112.089 104.595 111.256 106.293 110.918C107.99 110.581 109.749 110.754 111.348 111.416C112.947 112.078 114.314 113.2 115.275 114.639C116.237 116.078 116.75 117.769 116.75 119.5C116.747 121.82 115.825 124.044 114.184 125.684C112.544 127.325 110.32 128.248 108 128.25Z" fill="white"/>
<path d="M108 164.25C105.775 164.25 103.6 164.91 101.75 166.146C99.8995 167.382 98.4576 169.139 97.6061 171.195C96.7546 173.25 96.5318 175.512 96.9659 177.695C97.4 179.877 98.4715 181.882 100.045 183.455C101.618 185.028 103.623 186.1 105.805 186.534C107.987 186.968 110.249 186.745 112.305 185.894C114.361 185.042 116.118 183.6 117.354 181.75C118.59 179.9 119.25 177.725 119.25 175.5C119.246 172.517 118.06 169.658 115.951 167.549C113.842 165.44 110.982 164.253 108 164.25ZM108 184.25C106.269 184.25 104.577 183.737 103.139 182.775C101.7 181.814 100.578 180.447 99.9158 178.848C99.2535 177.25 99.0803 175.49 99.4179 173.793C99.7555 172.096 100.589 170.537 101.813 169.313C103.036 168.089 104.595 167.256 106.293 166.918C107.99 166.581 109.749 166.754 111.348 167.416C112.947 168.078 114.314 169.2 115.275 170.639C116.237 172.078 116.75 173.769 116.75 175.5C116.747 177.82 115.825 180.044 114.184 181.684C112.544 183.325 110.32 184.248 108 184.25Z" fill="white"/>
<path d="M232 110.25H136C135.668 110.25 135.35 110.382 135.116 110.616C134.881 110.851 134.75 111.168 134.75 111.5C134.75 111.832 134.881 112.149 135.116 112.384C135.35 112.618 135.668 112.75 136 112.75H232C232.331 112.75 232.649 112.618 232.884 112.384C233.118 112.149 233.25 111.832 233.25 111.5C233.25 111.168 233.118 110.851 232.884 110.616C232.649 110.382 232.331 110.25 232 110.25Z" fill="white"/>
<path d="M136 128.75H184C184.331 128.75 184.649 128.618 184.884 128.384C185.118 128.149 185.25 127.832 185.25 127.5C185.25 127.168 185.118 126.851 184.884 126.616C184.649 126.382 184.331 126.25 184 126.25H136C135.668 126.25 135.35 126.382 135.116 126.616C134.881 126.851 134.75 127.168 134.75 127.5C134.75 127.832 134.881 128.149 135.116 128.384C135.35 128.618 135.668 128.75 136 128.75Z" fill="white"/>
<path d="M232 166.25H136C135.668 166.25 135.35 166.382 135.116 166.616C134.881 166.851 134.75 167.168 134.75 167.5C134.75 167.832 134.881 168.149 135.116 168.384C135.35 168.618 135.668 168.75 136 168.75H232C232.331 168.75 232.649 168.618 232.884 168.384C233.118 168.149 233.25 167.832 233.25 167.5C233.25 167.168 233.118 166.851 232.884 166.616C232.649 166.382 232.331 166.25 232 166.25Z" fill="white"/>
<path d="M233.25 231.5V191.5C233.247 189.048 232.272 186.696 230.537 184.962C228.803 183.228 226.452 182.253 224 182.25H144C141.547 182.253 139.196 183.228 137.462 184.962C135.728 186.696 134.752 189.048 134.75 191.5V231.5C134.752 233.952 135.728 236.304 137.462 238.038C139.196 239.772 141.547 240.747 144 240.75H224C226.452 240.747 228.803 239.772 230.537 238.038C232.272 236.304 233.247 233.952 233.25 231.5ZM137.25 231.5V191.5C137.252 189.71 137.964 187.995 139.229 186.729C140.495 185.464 142.21 184.752 144 184.75H224C225.789 184.752 227.505 185.464 228.77 186.729C230.036 187.995 230.748 189.71 230.75 191.5V231.5C230.748 233.29 230.036 235.005 228.77 236.271C227.505 237.536 225.789 238.248 224 238.25H144C142.21 238.248 140.495 237.536 139.229 236.271C137.964 235.005 137.252 233.29 137.25 231.5Z" fill="white"/>
<path d="M144 250.096C143.512 249.51 142.9 249.04 142.208 248.721C141.516 248.402 140.762 248.241 140 248.25C138.608 248.252 137.274 248.805 136.289 249.79C135.305 250.774 134.751 252.108 134.75 253.5C134.75 258.143 140.111 262.409 143.306 264.54C143.512 264.677 143.753 264.75 144 264.75C144.247 264.75 144.488 264.677 144.693 264.54C147.888 262.409 153.25 258.143 153.25 253.5C153.248 252.108 152.694 250.774 151.71 249.79C150.726 248.805 149.392 248.252 148 248.25C147.238 248.241 146.483 248.402 145.791 248.721C145.099 249.04 144.487 249.51 144 250.096ZM150.75 253.5C150.75 255.876 148.242 259.016 144 261.986C139.758 259.016 137.25 255.876 137.25 253.5C137.251 252.771 137.54 252.072 138.056 251.556C138.572 251.041 139.271 250.751 140 250.75C140.628 250.791 141.23 251.016 141.731 251.398C142.232 251.779 142.609 252.3 142.814 252.896C142.897 253.142 143.056 253.357 143.267 253.509C143.478 253.662 143.732 253.744 143.992 253.745H144.002C144.261 253.744 144.514 253.663 144.726 253.512C144.937 253.361 145.097 253.149 145.182 252.903C145.387 252.307 145.764 251.784 146.265 251.401C146.767 251.017 147.37 250.791 148 250.75C148.729 250.751 149.428 251.041 149.943 251.556C150.459 252.072 150.749 252.771 150.75 253.5Z" fill="white"/>
<path d="M172.884 58.6162C172.649 58.3825 172.331 58.2515 172 58.2518C171.669 58.2521 171.352 58.3838 171.118 58.6179C170.884 58.852 170.752 59.1694 170.752 59.5005C170.751 59.8316 170.882 60.1492 171.116 60.3838L183.115 72.3832C183.35 72.6169 183.668 72.7482 184 72.7482C184.331 72.7482 184.649 72.6169 184.884 72.3832L196.884 60.3838C197.117 60.1492 197.248 59.8316 197.248 59.5005C197.248 59.1694 197.116 58.852 196.882 58.6179C196.648 58.3838 196.33 58.2521 195.999 58.2518C195.668 58.2515 195.351 58.3825 195.116 58.6162L185.25 68.4824V39.5C185.252 37.7104 185.964 35.9948 187.229 34.7294C188.495 33.464 190.21 32.7521 192 32.75H208C209.789 32.7521 211.505 33.464 212.77 34.7294C214.036 35.9948 214.748 37.7104 214.75 39.5V72.5C214.75 72.8315 214.881 73.1495 215.116 73.3839C215.35 73.6183 215.668 73.75 216 73.75C216.331 73.75 216.649 73.6183 216.884 73.3839C217.118 73.1495 217.25 72.8315 217.25 72.5V39.5C217.247 37.0476 216.272 34.6964 214.537 32.9623C212.803 31.2282 210.452 30.2527 208 30.25H192C189.547 30.2527 187.196 31.2282 185.462 32.9623C183.728 34.6964 182.753 37.0476 182.75 39.5V68.4824L172.884 58.6162Z" fill="white"/>
<path d="M146.25 87.5C146.25 87.3358 146.217 87.1733 146.155 87.0216C146.092 86.87 146 86.7322 145.884 86.6161C145.768 86.5 145.63 86.4079 145.478 86.3451C145.326 86.2823 145.164 86.25 145 86.25H91.9998C88.4869 86.2541 85.1191 87.6514 82.6351 90.1354C80.1512 92.6193 78.7539 95.9871 78.7498 99.5V255.5C78.7498 255.832 78.8815 256.149 79.1159 256.384C79.3503 256.618 79.6682 256.75 79.9998 256.75C80.3313 256.75 80.6492 256.618 80.8836 256.384C81.1181 256.149 81.2498 255.832 81.2498 255.5V99.5C81.2529 96.6499 82.3865 93.9174 84.4019 91.9021C86.4172 89.8868 89.1497 88.7532 91.9998 88.75H145C145.164 88.75 145.326 88.7177 145.478 88.6549C145.63 88.5921 145.768 88.5 145.884 88.3839C146 88.2678 146.092 88.13 146.155 87.9784C146.217 87.8267 146.25 87.6642 146.25 87.5Z" fill="white"/>
<path d="M160 96.75H208C210.452 96.7473 212.803 95.7718 214.537 94.0377C216.272 92.3036 217.247 89.9524 217.25 87.5V83.5C217.25 82.7709 217.54 82.0718 218.056 81.5563C218.572 81.0407 219.271 80.7507 220 80.75H292C292.729 80.75 293.429 81.0397 293.944 81.5555C294.46 82.0712 294.75 82.7707 294.75 83.5C294.75 84.2293 294.46 84.9288 293.944 85.4445C293.429 85.9603 292.729 86.25 292 86.25H223C222.668 86.25 222.35 86.3817 222.116 86.6161C221.881 86.8505 221.75 87.1685 221.75 87.5C221.75 87.8315 221.881 88.1495 222.116 88.3839C222.35 88.6183 222.668 88.75 223 88.75H292C293.392 88.75 294.728 88.1969 295.712 87.2123C296.697 86.2277 297.25 84.8924 297.25 83.5C297.25 82.1076 296.697 80.7723 295.712 79.7877C294.728 78.8031 293.392 78.25 292 78.25H220C218.608 78.2517 217.274 78.8054 216.289 79.7896C215.305 80.7738 214.751 82.1081 214.75 83.5V87.5C214.748 89.2896 214.036 91.0052 212.77 92.2706C211.505 93.536 209.789 94.2479 208 94.25H160C158.21 94.2479 156.495 93.536 155.229 92.2706C153.964 91.0052 153.252 89.2896 153.25 87.5V39.5C153.252 37.7104 153.964 35.9948 155.229 34.7294C156.495 33.464 158.21 32.7521 160 32.75H177C177.331 32.75 177.649 32.6183 177.884 32.3839C178.118 32.1495 178.25 31.8315 178.25 31.5C178.25 31.1685 178.118 30.8505 177.884 30.6161C177.649 30.3817 177.331 30.25 177 30.25H160C157.547 30.2527 155.196 31.2282 153.462 32.9623C151.728 34.6964 150.752 37.0476 150.75 39.5V87.5C150.752 89.9524 151.728 92.3036 153.462 94.0377C155.196 95.7718 157.547 96.7473 160 96.75Z" fill="white"/>
<path d="M296 93.25C295.836 93.25 295.673 93.2823 295.521 93.3451C295.37 93.4079 295.232 93.5 295.116 93.6161C295 93.7322 294.908 93.87 294.845 94.0216C294.782 94.1733 294.75 94.3358 294.75 94.5V261.5C294.745 265.941 292.979 270.198 289.838 273.339C286.698 276.479 282.441 278.245 278 278.25H41.9998C37.5589 278.245 33.3013 276.479 30.1611 273.339C27.021 270.198 25.2547 265.941 25.2498 261.5V97.5C25.2547 93.0591 27.021 88.8015 30.1611 85.6614C33.3013 82.5212 37.5589 80.7549 41.9998 80.75H145C145.331 80.75 145.649 80.6183 145.884 80.3839C146.118 80.1495 146.25 79.8315 146.25 79.5C146.25 79.1685 146.118 78.8505 145.884 78.6161C145.649 78.3817 145.331 78.25 145 78.25H41.9998C36.8961 78.2558 32.0032 80.2858 28.3944 83.8947C24.7856 87.5035 22.7556 92.3964 22.7498 97.5V261.5C22.7556 266.604 24.7856 271.497 28.3944 275.105C32.0032 278.714 36.8961 280.744 41.9998 280.75H278C283.103 280.744 287.996 278.714 291.605 275.105C295.214 271.497 297.244 266.604 297.25 261.5V94.5C297.25 94.3358 297.217 94.1733 297.155 94.0216C297.092 93.87 297 93.7322 296.884 93.6161C296.768 93.5 296.63 93.4079 296.478 93.3451C296.326 93.2823 296.164 93.25 296 93.25Z" fill="white"/>
</svg>
