<svg width="321" height="320" viewBox="0 0 321 320" fill="none" xmlns="http://www.w3.org/2000/svg">
<path d="M51.0277 166.75H50.0277C49.6962 166.75 49.3782 166.882 49.1438 167.116C48.9094 167.351 48.7777 167.669 48.7777 168C48.7777 168.332 48.9094 168.65 49.1438 168.884C49.3782 169.118 49.6962 169.25 50.0277 169.25H51.0277C51.5839 169.276 52.1394 169.186 52.6594 168.987C53.1794 168.788 53.6529 168.484 54.0501 168.094C54.8838 167.194 54.7411 166.029 54.2132 164.605L52.2132 158.605C52.1092 158.29 51.8845 158.029 51.5884 157.88C51.2923 157.731 50.9492 157.706 50.6344 157.81C50.3197 157.914 50.0592 158.139 49.9102 158.435C49.7612 158.731 49.7359 159.074 49.8399 159.389L49.8421 159.396L51.8421 165.396C52.1537 166.33 52.1366 166.417 51.9975 166.587C51.8584 166.756 51.4155 166.75 51.0277 166.75Z" fill="url(#paint0_linear_4_117)"/>
<path d="M124.999 162.788H123.999C123.668 162.788 123.35 162.919 123.116 163.154C122.881 163.388 122.749 163.706 122.749 164.038C122.749 164.369 122.881 164.687 123.116 164.922C123.35 165.156 123.668 165.288 123.999 165.288H124.999C125.556 165.313 126.111 165.224 126.631 165.025C127.151 164.826 127.625 164.522 128.022 164.132C128.856 163.232 128.713 162.067 128.185 160.642L126.185 154.642C126.134 154.486 126.052 154.342 125.945 154.217C125.838 154.092 125.707 153.99 125.561 153.916C125.414 153.842 125.254 153.798 125.09 153.786C124.926 153.773 124.762 153.794 124.605 153.845C124.449 153.897 124.305 153.979 124.181 154.086C124.056 154.193 123.954 154.324 123.881 154.471C123.807 154.618 123.763 154.778 123.751 154.942C123.739 155.106 123.76 155.27 123.812 155.426L123.814 155.433L125.814 161.433C126.125 162.368 126.108 162.455 125.969 162.624C125.83 162.794 125.387 162.788 124.999 162.788Z" fill="url(#paint1_linear_4_117)"/>
<path d="M51.0277 138.75H43.0277C39.7173 138.755 36.5285 139.998 34.0877 142.234C31.6469 144.47 30.1306 147.538 29.8368 150.836C27.6106 151.126 25.5659 152.216 24.0833 153.902C22.6007 155.588 21.7813 157.755 21.7777 160V169C21.7764 169.994 21.3809 170.947 20.6779 171.65C19.9749 172.353 19.0218 172.749 18.0277 172.75C17.6962 172.75 17.3782 172.882 17.1438 173.116C16.9094 173.351 16.7777 173.669 16.7777 174C16.7777 174.332 16.9094 174.65 17.1438 174.884C17.3782 175.118 17.6962 175.25 18.0277 175.25C19.6847 175.248 21.2733 174.589 22.445 173.418C23.6167 172.246 24.2758 170.657 24.2777 169V160C24.2798 158.211 24.9916 156.495 26.257 155.229C27.5224 153.964 29.2381 153.252 31.0277 153.25C31.1918 153.25 31.3543 153.218 31.506 153.155C31.6576 153.092 31.7954 153 31.9115 152.884C32.0276 152.768 32.1197 152.63 32.1825 152.479C32.2453 152.327 32.2777 152.164 32.2777 152C32.2808 149.15 33.4145 146.418 35.4298 144.402C37.4451 142.387 40.1776 141.253 43.0277 141.25H51.0277C56.8099 141.25 57.7699 144.156 57.8197 144.322C57.9046 144.641 58.1121 144.913 58.3969 145.08C58.6817 145.246 59.0208 145.294 59.3402 145.211C59.6597 145.129 59.9335 144.923 60.1022 144.64C60.2708 144.356 60.3206 144.017 60.2406 143.697C60.1898 143.495 58.9134 138.75 51.0277 138.75Z" fill="url(#paint2_linear_4_117)"/>
<path d="M112.087 143.177C110.41 145.094 108.96 146.75 106.028 146.75C105.696 146.75 105.378 146.882 105.144 147.116C104.909 147.351 104.778 147.669 104.778 148C104.778 148.332 104.909 148.65 105.144 148.884C105.378 149.118 105.696 149.25 106.028 149.25C110.095 149.25 112.153 146.899 113.968 144.823C115.646 142.906 117.095 141.25 120.028 141.25C120.359 141.25 120.677 141.118 120.912 140.884C121.146 140.65 121.278 140.332 121.278 140C121.278 139.669 121.146 139.351 120.912 139.116C120.677 138.882 120.359 138.75 120.028 138.75C115.96 138.75 113.903 141.102 112.087 143.177Z" fill="url(#paint3_linear_4_117)"/>
<path d="M194.028 133.25C198.186 133.247 202.226 134.627 205.514 137.173C208.801 139.718 211.148 143.285 212.186 147.312C212.227 147.471 212.298 147.621 212.397 147.752C212.495 147.884 212.619 147.994 212.76 148.078C212.902 148.162 213.058 148.217 213.221 148.24C213.384 148.263 213.55 148.254 213.709 148.213C213.868 148.172 214.018 148.1 214.149 148.001C214.28 147.903 214.391 147.779 214.474 147.637C214.558 147.496 214.613 147.339 214.635 147.176C214.658 147.013 214.649 146.848 214.608 146.689C213.836 143.701 212.423 140.917 210.467 138.53C208.511 136.144 206.058 134.212 203.28 132.869C200.502 131.526 197.465 130.804 194.379 130.753C191.294 130.703 188.234 131.324 185.414 132.576C182.593 133.827 180.078 135.677 178.045 137.998C176.011 140.319 174.508 143.055 173.638 146.016C172.769 148.977 172.555 152.091 173.011 155.143C173.467 158.195 174.582 161.111 176.279 163.689C176.462 163.965 176.746 164.157 177.071 164.223C177.395 164.289 177.732 164.223 178.009 164.041C178.285 163.859 178.478 163.574 178.544 163.25C178.611 162.926 178.546 162.588 178.365 162.312C176.504 159.484 175.444 156.206 175.296 152.825C175.147 149.444 175.917 146.086 177.523 143.106C179.128 140.127 181.51 137.638 184.416 135.903C187.322 134.167 190.643 133.251 194.028 133.25Z" fill="url(#paint4_linear_4_117)"/>
<path d="M312.181 157.219C311.497 147.799 307.446 138.939 300.767 132.26C294.089 125.581 285.229 121.53 275.809 120.846C270.426 120.444 265.019 121.166 259.931 122.966C254.842 124.766 250.184 127.605 246.251 131.302C240.805 136.4 236.918 142.94 235.044 150.161C232.862 141.742 227.947 134.286 221.07 128.962C214.193 123.639 205.742 120.75 197.045 120.749C188.349 120.748 179.898 123.635 173.019 128.957C166.14 134.278 161.224 141.734 159.04 150.152C156.858 141.734 151.942 134.28 145.064 128.958C138.187 123.636 129.737 120.749 121.041 120.749C112.346 120.748 103.896 123.635 97.0178 128.956C90.14 134.278 85.2237 141.732 83.0404 150.149C81.5625 144.445 78.8197 139.147 75.0153 134.648C71.2109 130.148 66.4426 126.563 61.0637 124.157C55.6849 121.752 49.8336 120.588 43.9436 120.752C38.0537 120.915 32.2761 122.403 27.0394 125.104C21.8026 127.805 17.241 131.65 13.6927 136.354C10.1444 141.058 7.70046 146.5 6.54206 152.278C5.38366 158.055 5.54052 164.019 7.00102 169.727C8.46151 175.436 11.1882 180.742 14.9789 185.253C16.6878 187.341 19.012 188.837 21.6206 189.527C24.2291 190.218 26.989 190.067 29.5072 189.098C31.8532 188.265 33.9151 186.784 35.4541 184.827C36.993 182.87 37.946 180.517 38.2025 178.04C41.3367 180.106 45.0023 181.221 48.7562 181.248C50.2506 181.267 51.734 180.991 53.1217 180.436C54.5095 179.881 55.7743 179.058 56.8441 178.015C57.9139 176.971 58.7677 175.727 59.3566 174.354C59.9456 172.98 60.2583 171.504 60.2768 170.009C60.2774 169.964 60.2777 169.919 60.2777 169.873V156C60.2749 153.548 59.2995 151.197 57.5654 149.462C55.8313 147.728 53.4801 146.753 51.0277 146.75C46.9603 146.75 44.9027 149.102 43.0872 151.177C41.4095 153.094 39.9602 154.75 37.0277 154.75C36.6961 154.75 36.3782 154.882 36.1438 155.116C35.9094 155.351 35.7777 155.669 35.7777 156C35.7777 156.332 35.9094 156.65 36.1438 156.884C36.3782 157.118 36.6961 157.25 37.0277 157.25C41.0951 157.25 43.1527 154.899 44.9681 152.823C46.6458 150.906 48.0951 149.25 51.0277 149.25C52.8172 149.252 54.5329 149.964 55.7983 151.23C57.0637 152.495 57.7756 154.211 57.7777 156V169.873C57.781 171.049 57.5491 172.213 57.0956 173.298C56.6421 174.382 55.9762 175.365 55.1371 176.189C54.3078 177.024 53.3172 177.682 52.2255 178.122C51.1339 178.562 49.9641 178.775 48.7874 178.748C44.9613 178.647 41.272 177.304 38.2767 174.921L38.2777 163C38.2774 162.38 38.1415 161.767 37.8795 161.205C37.6174 160.643 37.2356 160.145 36.7609 159.746C36.2861 159.347 35.7297 159.057 35.1309 158.896C34.5321 158.734 33.9052 158.706 33.2943 158.813C32.3068 159.021 31.42 159.56 30.7805 160.34C30.1411 161.121 29.7873 162.097 29.7777 163.106C29.9046 167.688 31.757 172.053 34.9642 175.327C35.2279 175.604 35.4987 175.871 35.7767 176.128V176.609C35.8037 178.833 35.1299 181.009 33.8509 182.829C32.5719 184.649 30.7526 186.021 28.6507 186.749C26.6128 187.531 24.3805 187.652 22.2701 187.094C20.1598 186.537 18.2782 185.33 16.8919 183.644C11.5094 177.239 8.47326 169.19 8.28516 160.826C8.09705 152.462 10.7683 144.284 15.8574 137.644C20.9465 131.003 28.1489 126.298 36.2743 124.306C44.3997 122.313 52.9616 123.153 60.5453 126.686C68.1289 130.218 74.2803 136.233 77.9828 143.735C81.6853 151.237 82.7173 159.778 80.9082 167.946C79.0992 176.114 74.5574 183.421 68.0334 188.658C61.5094 193.895 53.3938 196.75 45.0277 196.75C44.6962 196.75 44.3782 196.882 44.1438 197.116C43.9094 197.351 43.7777 197.669 43.7777 198C43.7777 198.332 43.9094 198.65 44.1438 198.884C44.3782 199.118 44.6962 199.25 45.0277 199.25C53.7261 199.239 62.1754 196.344 69.0527 191.018C75.93 185.692 80.8471 178.236 83.0343 169.817C84.4254 175.231 86.9606 180.284 90.4691 184.635C92.0589 186.611 94.2226 188.046 96.662 188.74C99.1013 189.435 101.696 189.356 104.089 188.514C106.481 187.672 108.554 186.109 110.02 184.039C111.487 181.97 112.275 179.496 112.277 176.96V174.089C115.395 176.124 119.033 177.221 122.756 177.248C125.774 177.286 128.684 176.122 130.844 174.015C133.005 171.907 134.239 169.028 134.277 166.009C134.277 165.964 134.278 165.919 134.278 165.873V152C134.275 149.548 133.3 147.197 131.565 145.462C129.831 143.728 127.48 142.753 125.028 142.75C120.96 142.75 118.903 145.102 117.087 147.177C115.41 149.094 113.96 150.75 111.028 150.75C110.696 150.75 110.378 150.882 110.144 151.116C109.909 151.351 109.778 151.669 109.778 152C109.778 152.332 109.909 152.65 110.144 152.884C110.378 153.118 110.696 153.25 111.028 153.25C115.095 153.25 117.153 150.899 118.968 148.823C120.646 146.906 122.095 145.25 125.028 145.25C126.817 145.252 128.533 145.964 129.798 147.229C131.064 148.495 131.776 150.211 131.778 152V165.873C131.781 167.049 131.549 168.213 131.096 169.298C130.642 170.382 129.976 171.365 129.137 172.189C128.308 173.023 127.317 173.681 126.225 174.121C125.134 174.561 123.964 174.774 122.787 174.748C118.961 174.647 115.272 173.304 112.277 170.921L112.278 159C112.277 158.38 112.141 157.767 111.879 157.205C111.617 156.643 111.236 156.145 110.761 155.746C110.286 155.347 109.73 155.057 109.131 154.896C108.532 154.734 107.905 154.706 107.294 154.813C106.307 155.021 105.42 155.56 104.781 156.34C104.141 157.121 103.787 158.097 103.778 159.106C103.905 163.688 105.757 168.053 108.964 171.327C109.228 171.604 109.499 171.871 109.777 172.128V176.96C109.775 178.979 109.147 180.948 107.979 182.595C106.811 184.243 105.161 185.487 103.256 186.157C101.351 186.826 99.2851 186.889 97.3433 186.335C95.4015 185.781 93.6794 184.638 92.4144 183.065C87.1838 176.576 84.3137 168.503 84.2751 160.169C84.2364 151.835 87.0315 143.735 92.2017 137.199C97.3719 130.663 104.61 126.077 112.729 124.196C120.848 122.314 129.365 123.248 136.884 126.844C144.402 130.44 150.475 136.485 154.106 143.986C157.737 151.488 158.711 160 156.867 168.128C155.024 176.256 150.473 183.515 143.96 188.716C137.448 193.917 129.362 196.75 121.028 196.75C120.696 196.75 120.378 196.882 120.144 197.116C119.909 197.351 119.778 197.669 119.778 198C119.778 198.332 119.909 198.65 120.144 198.884C120.378 199.118 120.696 199.25 121.028 199.25C129.725 199.239 138.173 196.345 145.05 191.02C151.927 185.696 156.844 178.241 159.032 169.824C160.492 175.497 163.207 180.77 166.978 185.253C168.687 187.341 171.011 188.837 173.62 189.528C176.228 190.218 178.988 190.067 181.506 189.098C183.853 188.265 185.915 186.784 187.454 184.827C188.993 182.87 189.946 180.517 190.203 178.04C193.337 180.106 197.002 181.221 200.756 181.248C202.25 181.267 203.734 180.991 205.121 180.436C206.509 179.882 207.773 179.059 208.843 178.016C209.913 176.972 210.767 175.728 211.356 174.355C211.945 172.982 212.257 171.506 212.276 170.012C212.276 169.966 212.277 169.919 212.277 169.873V156C212.274 153.548 211.299 151.197 209.564 149.462C207.83 147.728 205.479 146.753 203.027 146.75H201.028C198.575 146.753 196.224 147.728 194.49 149.462C192.756 151.197 191.78 153.548 191.778 156C191.778 156.332 191.909 156.65 192.144 156.884C192.378 157.118 192.696 157.25 193.028 157.25C193.359 157.25 193.677 157.118 193.912 156.884C194.146 156.65 194.278 156.332 194.278 156C194.28 154.211 194.992 152.495 196.257 151.23C197.523 149.964 199.238 149.252 201.028 149.25H203.027C204.816 149.252 206.532 149.964 207.797 151.23C209.063 152.495 209.775 154.211 209.777 156V169.873C209.776 172.226 208.841 174.483 207.178 176.147C205.514 177.812 203.258 178.747 200.905 178.749C200.866 178.749 200.827 178.749 200.787 178.748C196.961 178.647 193.272 177.304 190.277 174.921V163C190.276 162.38 190.141 161.767 189.879 161.205C189.616 160.643 189.235 160.145 188.76 159.746C188.285 159.347 187.729 159.057 187.13 158.896C186.531 158.734 185.904 158.706 185.293 158.813C184.306 159.021 183.419 159.56 182.78 160.34C182.141 161.121 181.787 162.097 181.778 163.106C181.905 167.688 183.757 172.053 186.964 175.327C187.228 175.604 187.499 175.871 187.777 176.128V176.609C187.803 178.833 187.13 181.009 185.85 182.829C184.571 184.65 182.752 186.021 180.65 186.749C178.612 187.531 176.38 187.651 174.27 187.094C172.159 186.537 170.278 185.33 168.892 183.644C163.509 177.239 160.473 169.19 160.285 160.826C160.097 152.462 162.768 144.284 167.857 137.644C172.947 131.003 180.149 126.298 188.274 124.306C196.4 122.313 204.962 123.153 212.545 126.686C220.129 130.218 226.28 136.233 229.983 143.735C233.685 151.237 234.717 159.778 232.908 167.946C231.099 176.114 226.557 183.421 220.033 188.658C213.509 193.895 205.394 196.75 197.028 196.75C196.696 196.75 196.378 196.882 196.144 197.116C195.909 197.351 195.778 197.669 195.778 198C195.778 198.332 195.909 198.65 196.144 198.884C196.378 199.118 196.696 199.25 197.028 199.25C205.725 199.239 214.174 196.345 221.051 191.019C227.928 185.694 232.845 178.24 235.033 169.822C236.433 175.244 238.976 180.305 242.493 184.663C244.086 186.633 246.25 188.062 248.689 188.751C251.127 189.44 253.719 189.356 256.107 188.512C258.496 187.667 260.565 186.103 262.027 184.034C263.49 181.965 264.276 179.494 264.277 176.96V174.09C267.395 176.124 271.032 177.22 274.755 177.248C276.261 177.265 277.755 176.984 279.151 176.421C280.548 175.858 281.819 175.024 282.892 173.968C283.968 172.913 284.821 171.653 285.402 170.263C285.984 168.872 286.281 167.38 286.277 165.873L286.278 151.25H294.028C294.359 151.25 294.677 151.118 294.912 150.884C295.146 150.65 295.278 150.332 295.278 150C295.278 149.669 295.146 149.351 294.912 149.116C294.677 148.882 294.359 148.75 294.028 148.75H286.183C285.378 141.87 279.537 136.088 272.714 135.766C269.272 135.616 265.891 136.711 263.19 138.851C260.49 140.992 258.651 144.033 258.011 147.419C257.927 147.888 257.946 148.37 258.069 148.83C258.191 149.29 258.413 149.718 258.718 150.084C259.024 150.449 259.406 150.743 259.838 150.944C260.269 151.146 260.74 151.25 261.216 151.25H283.778L283.777 165.873C283.78 167.049 283.548 168.213 283.095 169.298C282.641 170.382 281.975 171.365 281.136 172.189C280.309 173.026 279.318 173.686 278.226 174.126C277.134 174.566 275.964 174.778 274.786 174.748C270.961 174.647 267.272 173.304 264.277 170.921V159C264.276 158.38 264.14 157.767 263.878 157.205C263.616 156.643 263.235 156.145 262.76 155.746C262.285 155.347 261.729 155.057 261.13 154.896C260.531 154.734 259.904 154.706 259.293 154.813C258.306 155.021 257.419 155.56 256.78 156.34C256.141 157.121 255.787 158.097 255.778 159.106C255.905 163.687 257.757 168.052 260.963 171.327C261.228 171.604 261.499 171.871 261.777 172.129V176.96C261.776 178.977 261.151 180.944 259.986 182.591C258.821 184.238 257.175 185.483 255.273 186.155C253.372 186.828 251.309 186.894 249.368 186.345C247.427 185.796 245.704 184.659 244.436 183.091C239.198 176.606 236.32 168.534 236.275 160.198C236.229 151.862 239.019 143.759 244.186 137.217C249.352 130.676 256.589 126.085 264.709 124.199C272.828 122.312 281.348 123.242 288.869 126.835C296.391 130.428 302.468 136.472 306.102 143.973C309.736 151.475 310.713 159.99 308.871 168.119C307.029 176.249 302.478 183.511 295.965 188.713C289.452 193.916 281.363 196.75 273.028 196.75C272.696 196.75 272.378 196.882 272.144 197.116C271.909 197.351 271.778 197.669 271.778 198C271.778 198.332 271.909 198.65 272.144 198.884C272.378 199.118 272.696 199.25 273.028 199.25C278.41 199.242 283.733 198.13 288.669 195.985C293.605 193.839 298.049 190.705 301.727 186.775C305.423 182.842 308.26 178.184 310.06 173.096C311.86 168.008 312.582 162.601 312.181 157.219ZM32.2777 163.088C32.2971 162.674 32.4459 162.277 32.7031 161.952C32.9603 161.627 33.3129 161.391 33.7113 161.278C33.8161 161.259 33.9223 161.25 34.0287 161.25C34.4415 161.248 34.8413 161.395 35.1556 161.662C35.3506 161.826 35.5074 162.031 35.6148 162.262C35.7223 162.493 35.7779 162.745 35.7777 163L35.7767 172.493C33.543 169.866 32.3044 166.537 32.2777 163.088ZM106.278 159.088C106.297 158.674 106.446 158.277 106.703 157.952C106.96 157.627 107.313 157.391 107.711 157.278C107.816 157.259 107.922 157.25 108.029 157.25C108.442 157.248 108.841 157.395 109.156 157.662C109.351 157.826 109.507 158.031 109.615 158.262C109.722 158.493 109.778 158.745 109.778 159L109.777 168.494C107.543 165.867 106.304 162.537 106.278 159.088ZM184.278 163.088C184.297 162.674 184.446 162.277 184.703 161.952C184.96 161.627 185.312 161.391 185.71 161.278C185.815 161.259 185.921 161.25 186.028 161.25C186.441 161.248 186.84 161.395 187.155 161.662C187.35 161.826 187.506 162.031 187.614 162.262C187.721 162.493 187.777 162.745 187.777 163V172.493C185.543 169.866 184.304 166.537 184.278 163.088ZM261.216 148.75C261.104 148.751 260.994 148.726 260.893 148.678C260.792 148.631 260.703 148.561 260.632 148.475C260.562 148.392 260.511 148.295 260.483 148.19C260.454 148.086 260.45 147.976 260.47 147.869C260.976 145.169 262.41 142.73 264.523 140.974C266.635 139.218 269.295 138.255 272.042 138.25C272.226 138.25 272.411 138.255 272.597 138.264C278.13 138.525 282.88 143.168 283.664 148.75H261.216ZM258.278 159.088C258.297 158.674 258.446 158.277 258.703 157.952C258.96 157.627 259.312 157.391 259.71 157.278C259.815 157.259 259.921 157.25 260.028 157.25C260.441 157.248 260.84 157.395 261.155 157.662C261.35 157.826 261.506 158.031 261.614 158.262C261.721 158.493 261.777 158.745 261.777 159V168.493C259.543 165.866 258.304 162.537 258.278 159.088Z" fill="url(#paint5_linear_4_117)"/>
<path d="M203.014 166.75H202.014C201.683 166.75 201.365 166.882 201.13 167.116C200.896 167.351 200.764 167.669 200.764 168C200.764 168.332 200.896 168.65 201.13 168.884C201.365 169.118 201.683 169.25 202.014 169.25H203.014C203.571 169.276 204.126 169.186 204.646 168.987C205.166 168.788 205.64 168.484 206.037 168.094C206.87 167.194 206.728 166.029 206.2 164.605L204.2 158.605C204.148 158.449 204.067 158.305 203.96 158.18C203.852 158.056 203.722 157.954 203.575 157.88C203.428 157.807 203.269 157.762 203.105 157.75C202.941 157.738 202.777 157.759 202.621 157.81C202.465 157.862 202.321 157.943 202.197 158.05C202.073 158.158 201.971 158.288 201.897 158.435C201.823 158.581 201.779 158.741 201.767 158.905C201.755 159.069 201.775 159.233 201.827 159.389L203.829 165.396C204.14 166.33 204.123 166.417 203.984 166.587C203.845 166.756 203.402 166.75 203.014 166.75Z" fill="url(#paint6_linear_4_117)"/>
<path d="M277.036 162.788H276.036C275.704 162.788 275.386 162.919 275.152 163.154C274.918 163.388 274.786 163.706 274.786 164.038C274.786 164.369 274.918 164.687 275.152 164.922C275.386 165.156 275.704 165.288 276.036 165.288H277.036C277.592 165.313 278.148 165.224 278.668 165.025C279.188 164.826 279.661 164.522 280.058 164.132C280.892 163.232 280.749 162.067 280.221 160.642L278.221 154.642C278.17 154.486 278.089 154.342 277.982 154.217C277.874 154.092 277.744 153.99 277.597 153.916C277.45 153.842 277.29 153.798 277.126 153.786C276.963 153.773 276.798 153.794 276.642 153.845C276.486 153.897 276.342 153.979 276.217 154.086C276.093 154.193 275.991 154.324 275.917 154.471C275.843 154.618 275.799 154.778 275.787 154.942C275.776 155.106 275.796 155.27 275.848 155.426L275.85 155.433L277.85 161.433C278.162 162.368 278.145 162.455 278.006 162.624C277.867 162.794 277.424 162.788 277.036 162.788Z" fill="url(#paint7_linear_4_117)"/>
<defs>
<linearGradient id="paint0_linear_4_117" x1="159.032" y1="120.736" x2="159.032" y2="199.25" gradientUnits="userSpaceOnUse">
<stop stop-color="#FFBE4F"/>
<stop offset="1" stop-color="#93C437"/>
</linearGradient>
<linearGradient id="paint1_linear_4_117" x1="159.032" y1="120.736" x2="159.032" y2="199.25" gradientUnits="userSpaceOnUse">
<stop stop-color="#FFBE4F"/>
<stop offset="1" stop-color="#93C437"/>
</linearGradient>
<linearGradient id="paint2_linear_4_117" x1="159.032" y1="120.736" x2="159.032" y2="199.25" gradientUnits="userSpaceOnUse">
<stop stop-color="#FFBE4F"/>
<stop offset="1" stop-color="#93C437"/>
</linearGradient>
<linearGradient id="paint3_linear_4_117" x1="159.032" y1="120.736" x2="159.032" y2="199.25" gradientUnits="userSpaceOnUse">
<stop stop-color="#FFBE4F"/>
<stop offset="1" stop-color="#93C437"/>
</linearGradient>
<linearGradient id="paint4_linear_4_117" x1="159.032" y1="120.736" x2="159.032" y2="199.25" gradientUnits="userSpaceOnUse">
<stop stop-color="#FFBE4F"/>
<stop offset="1" stop-color="#93C437"/>
</linearGradient>
<linearGradient id="paint5_linear_4_117" x1="159.032" y1="120.736" x2="159.032" y2="199.25" gradientUnits="userSpaceOnUse">
<stop stop-color="#FFBE4F"/>
<stop offset="1" stop-color="#93C437"/>
</linearGradient>
<linearGradient id="paint6_linear_4_117" x1="159.032" y1="120.736" x2="159.032" y2="199.25" gradientUnits="userSpaceOnUse">
<stop stop-color="#FFBE4F"/>
<stop offset="1" stop-color="#93C437"/>
</linearGradient>
<linearGradient id="paint7_linear_4_117" x1="159.032" y1="120.736" x2="159.032" y2="199.25" gradientUnits="userSpaceOnUse">
<stop stop-color="#FFBE4F"/>
<stop offset="1" stop-color="#93C437"/>
</linearGradient>
</defs>
</svg>
