<svg width="320" height="320" viewBox="0 0 320 320" fill="none" xmlns="http://www.w3.org/2000/svg">
<mask id="path-1-inside-1_3240_758" fill="white">
<path d="M228.7 127.4C219.8 118.8 208 114.3 195.6 114.8C183.3 115.3 171.6 120.9 163.4 130.2C162.9 130.7 163 131.5 163.5 132C164 132.5 164.8 132.4 165.3 131.9C173.1 123.1 184.1 117.8 195.7 117.4C207.4 117 218.6 121.2 227 129.3C235.5 137.4 240.1 148.4 240.1 160.1C240.1 183.7 220.9 202.9 197.3 202.9C196.6 202.9 196.1 203.5 196.1 204.1C196.1 204.7 196.7 205.3 197.3 205.3C222.3 205.3 242.5 185 242.5 160.1C242.6 147.6 237.7 136 228.7 127.4Z"/>
<path d="M225.3 173V164.9C227.1 163.6 228.3 161.4 228.3 159C228.3 155 225 151.8 221.1 151.8C217.5 151.8 214.6 154.4 214 157.8H211.3C210.7 154.4 207.7 151.8 204.2 151.8C200.2 151.8 197 155.1 197 159C197 163 200.3 166.2 204.2 166.2C207.8 166.2 210.7 163.6 211.3 160.2H213.9L215.9 166.3C216.1 166.9 216.2 167.6 215.9 168C215.6 168.4 214.9 168.6 214.1 168.6H212.1C211.4 168.6 210.9 169.2 210.9 169.8C210.9 170.4 211.5 171 212.1 171H214.1C215.8 171 217.2 170.4 218 169.3C218.5 168.6 219 167.3 218.4 165.4C219.3 165.8 220.2 166 221.2 166C221.8 166 222.4 165.9 223 165.8V172.8C223 180.3 217 186.5 209.5 186.5C201.7 186.5 194.6 182.8 189.5 178.2V164.8C189.5 163.3 188.9 161.9 187.8 160.9C186.7 159.9 185.2 159.4 183.7 159.6C180.9 159.9 178.8 162.4 179 165.3C179.2 169.5 182.3 174.9 187 179.4V185.8C187 189.6 184.9 192.9 181.5 194.6C178.1 196.3 174.2 195.9 171.2 193.5C169.1 191.9 167.1 190 165.4 188C164.9 187.5 164.2 187.4 163.6 187.9C163.1 188.4 163 189.1 163.5 189.7C165.4 191.8 167.4 193.8 169.7 195.5C171.9 197.2 174.6 198.1 177.2 198.1C179 198.1 180.9 197.7 182.6 196.8C186.9 194.7 189.5 190.5 189.5 185.8V181.6C195.6 186.5 202.6 189.1 209.5 189.1C218.1 189.1 225.3 181.9 225.3 173ZM204 163.8C201.4 163.8 199.2 161.7 199.2 159C199.2 156.3 201.3 154.2 204 154.2C206.7 154.2 208.8 156.3 208.8 159C208.8 161.7 206.6 163.8 204 163.8ZM216.2 159C216.2 156.4 218.3 154.2 221 154.2C223.7 154.2 225.8 156.3 225.8 159C225.8 161.7 223.7 163.8 221 163.8C218.3 163.8 216.2 161.6 216.2 159ZM186.8 175.9C183.5 172.2 181.5 168.2 181.3 165.4C181.2 163.9 182.4 162.4 183.8 162.3C183.9 162.3 184 162.3 184.1 162.3C184.8 162.3 185.4 162.5 185.9 163C186.5 163.5 186.8 164.3 186.8 165V175.9Z"/>
<path d="M222 146.8H192C191.3 146.8 190.8 147.4 190.8 148C190.8 148.6 191.4 149.2 192 149.2H222C223.8 149.2 225.2 147.7 225.2 146C225.2 135.4 216.6 126.8 206 126.8H196C182.1 126.8 170.8 138.1 170.8 152V180C170.8 182.9 173.2 185.2 176 185.2H181C181.7 185.2 182.2 184.6 182.2 184C182.2 183.4 181.6 182.8 181 182.8H176C174.5 182.8 173.2 181.6 173.2 180V152C173.2 139.5 183.4 129.2 196 129.2H206C215.2 129.2 222.8 136.7 222.8 146C222.8 146.4 222.4 146.8 222 146.8Z"/>
<path d="M122.7 114.8C109.7 114.8 97.2999 120.4 88.6999 130.2C88.1999 130.7 88.2999 131.5 88.7999 132C89.2999 132.5 90.0999 132.4 90.5999 131.9C98.6999 122.6 110.4 117.3 122.8 117.3C146.4 117.3 165.6 136.5 165.6 160.1C165.6 183.7 146.4 202.9 122.8 202.9C122.1 202.9 121.6 203.5 121.6 204.1C121.6 204.7 122.2 205.3 122.8 205.3C147.8 205.3 168.1 185 168.1 160.1C168.1 135.2 147.6 114.8 122.7 114.8Z"/>
<path d="M79.3999 127.4C70.4999 118.8 58.6999 114.3 46.2999 114.8C22.6999 115.7 3.69994 134.8 2.79994 158.4C2.29994 173.3 9.09995 187.5 20.9999 196.3C24.0999 198.6 27.9999 198.9 31.4999 197.2C34.9999 195.4 37.1999 191.9 37.1999 188V181.8C43.2999 186.7 50.2999 189.3 57.1999 189.3C65.9999 189.2 73.1999 181.9 73.1999 173.1V153.1C73.1999 145.2 66.7999 138.9 58.9999 138.9C51.4999 138.9 47.1999 143.2 43.0999 147.3C39.1999 151.2 35.4999 154.9 29.9999 154.9C29.2999 154.9 28.7999 155.5 28.7999 156.1C28.7999 156.7 29.3999 157.3 29.9999 157.3C36.4999 157.3 40.7999 153 44.8999 148.9C48.7999 145 52.4999 141.3 58.9999 141.3C65.4999 141.3 70.7999 146.6 70.7999 153.1V173.1C70.7999 180.6 64.7999 186.8 57.2999 186.8C57.1999 186.8 57.0999 186.8 56.9999 186.8C49.2999 186.8 42.2999 183.1 37.1999 178.5V165.1C37.1999 163.6 36.5999 162.2 35.4999 161.2C34.3999 160.2 32.8999 159.7 31.3999 159.9C28.5999 160.2 26.4999 162.7 26.6999 165.6C26.8999 169.8 29.9999 175.2 34.6999 179.7V188.1C34.6999 191.1 32.9999 193.7 30.3999 195.1C27.7999 196.4 24.7999 196.2 22.4999 194.4C11.1999 186 4.79994 172.6 5.29994 158.6C6.09994 136.3 24.0999 118.2 46.3999 117.4C58.0999 117 69.2999 121.2 77.6999 129.3C86.0999 137.4 90.7999 148.4 90.7999 160.1C90.7999 183.7 71.5999 202.9 47.9999 202.9C47.2999 202.9 46.7999 203.5 46.7999 204.1C46.7999 204.7 47.3999 205.3 47.9999 205.3C72.9999 205.3 93.1999 185 93.1999 160.1C93.1999 147.6 88.2999 136 79.3999 127.4ZM29.2999 165.3C29.1999 163.8 30.3999 162.3 31.7999 162.2C31.8999 162.2 31.9999 162.2 32.0999 162.2C32.7999 162.2 33.3999 162.4 33.8999 162.9C34.4999 163.4 34.7999 164.2 34.7999 164.9V175.8C31.3999 172.1 29.3999 168.2 29.2999 165.3Z"/>
<path d="M21.7999 146.8C14.9999 147.4 9.69994 153.1 9.69994 160V170C9.69994 170.7 10.2999 171.2 10.8999 171.2C11.4999 171.2 12.0999 170.6 12.0999 170V160C12.0999 154.1 16.8999 149.2 22.8999 149.2C23.5999 149.2 24.0999 148.6 24.0999 148C24.0999 138.2 32.0999 130.2 41.8999 130.2C41.8999 130.2 54.8999 130.2 59.8999 130.2C67.9999 130.2 74.6999 136.8 74.6999 145C74.6999 145.7 75.2999 146.2 75.8999 146.2C76.4999 146.2 77.0999 145.6 77.0999 145C77.0999 135.5 69.3999 127.8 59.8999 127.8C54.8999 127.8 41.8999 127.8 41.8999 127.8C31.1999 127.8 22.3999 136.2 21.7999 146.8Z"/>
<path d="M303.4 127.4C294.5 118.8 282.7 114.3 270.3 114.8C258.1 115.3 246.3 120.9 238.1 130.2C237.6 130.7 237.7 131.5 238.2 132C238.7 132.5 239.5 132.4 240 131.9C247.8 123.1 258.8 117.8 270.4 117.4C282.1 117 293.3 121.2 301.7 129.3C310.2 137.4 314.8 148.4 314.8 160.1C314.8 183.7 295.6 202.9 272 202.9C271.3 202.9 270.8 203.5 270.8 204.1C270.8 204.7 271.4 205.3 272 205.3C297 205.3 317.2 185 317.2 160.1C317.2 147.6 312.3 136 303.4 127.4Z"/>
<path d="M297.2 173V150.5C297.2 138.9 288 129.2 276.7 128.8C270.9 128.6 265.4 130.7 261.2 134.7C257 138.7 254.7 144.2 254.7 150C254.7 151.8 256.2 153.2 257.9 153.2H259.9C263.6 153.2 266.7 156.2 266.7 160V170C266.7 174 270 177.2 273.9 177.2C275.7 177.2 277.1 175.7 277.1 174C277.1 171.4 279.2 169.2 281.9 169.2H285.9C287.6 169.2 289 168.6 289.8 167.5C290.3 166.8 290.8 165.5 290.1 163.5L287.1 154.5C286.9 153.8 286.2 153.5 285.5 153.7C284.8 153.9 284.5 154.6 284.7 155.3C284.7 155.3 287.5 163.7 287.7 164.3C287.9 164.9 288 165.6 287.7 166.1C287.4 166.6 286.7 166.6 285.9 166.6H281.9C277.9 166.6 274.7 169.9 274.7 173.8C274.7 174.2 274.4 174.6 273.9 174.6C271.3 174.6 269.1 172.5 269.1 169.8V159.8C269.1 154.7 265 150.6 259.9 150.6H257.9C257.5 150.6 257.1 150.3 257.1 149.8C257.1 144.7 259.1 139.9 262.8 136.3C266.5 132.7 271.3 130.9 276.5 131.1C286.5 131.5 294.6 140.1 294.6 150.3V173C294.6 180.5 288.6 186.7 281.1 186.7C273.3 186.8 266.2 183 261.1 178.4V165C261.1 163.5 260.5 162.1 259.4 161.1C258.3 160.1 256.8 159.6 255.3 159.8C252.6 160.1 250.4 162.7 250.6 165.5C250.8 169.7 253.9 175.1 258.6 179.6V188C258.6 191 256.9 193.6 254.3 195C251.7 196.3 248.7 196.1 246.4 194.3C244 192.5 241.7 190.4 239.7 188.2C239.2 187.7 238.5 187.6 237.9 188.1C237.4 188.6 237.3 189.3 237.8 189.9C239.9 192.3 242.3 194.5 244.8 196.4C246.6 197.7 248.6 198.4 250.7 198.4C252.2 198.4 253.8 198 255.3 197.3C258.8 195.5 261 192 261 188.1V181.9C267 186.8 274.1 189.4 281 189.4C290.1 189.2 297.2 181.9 297.2 173ZM258.8 175.9C255.5 172.2 253.5 168.2 253.3 165.4C253.2 163.9 254.4 162.4 255.8 162.3C255.9 162.3 256 162.3 256.1 162.3C256.8 162.3 257.4 162.5 257.9 163C258.5 163.5 258.8 164.3 258.8 165V175.9Z"/>
<path d="M99.9999 148.8C99.2999 148.8 98.7999 149.4 98.7999 150C98.7999 150.6 99.3999 151.2 99.9999 151.2C107.5 151.2 111.8 146.9 115.9 142.8C119.8 138.9 123.5 135.2 130 135.2C130.7 135.2 131.2 134.6 131.2 134C131.2 133.4 130.6 132.8 130 132.8C122.5 132.8 118.2 137.1 114.1 141.2C110.2 145 106.5 148.8 99.9999 148.8Z"/>
<path d="M126 126.8C118.5 126.8 114.2 131.1 110.1 135.2C106.2 139.1 102.5 142.8 95.9999 142.8C95.2999 142.8 94.7999 143.4 94.7999 144C94.7999 144.6 95.3999 145.2 95.9999 145.2C103.5 145.2 107.8 140.9 111.9 136.8C115.8 132.9 119.5 129.2 126 129.2C126.7 129.2 127.2 128.6 127.2 128C127.2 127.4 126.7 126.8 126 126.8Z"/>
<path d="M148.2 173V153C148.2 145.1 141.8 138.8 134 138.8C126.5 138.8 122.2 143.1 118.1 147.2C114.2 151.1 110.5 154.8 104 154.8C103.3 154.8 102.8 155.4 102.8 156C102.8 156.6 103.4 157.2 104 157.2C111.5 157.2 115.8 152.9 119.9 148.8C123.8 144.9 127.5 141.2 134 141.2C140.5 141.2 145.8 146.5 145.8 153V173C145.8 180.5 139.8 186.7 132.3 186.7C124.5 186.8 117.4 183 112.3 178.4V165C112.3 163.5 111.7 162.1 110.6 161.1C109.5 160.1 108 159.6 106.5 159.8C103.7 160.1 101.6 162.6 101.8 165.5C102 169.7 105.1 175.1 109.8 179.6V188.3C109.8 191.3 108.2 193.9 105.5 195.2C102.9 196.5 99.8999 196.3 97.4999 194.6C94.9999 192.7 92.5999 190.6 90.4999 188.2C89.9999 187.7 89.2999 187.6 88.6999 188.1C88.1999 188.6 88.0999 189.3 88.5999 189.9C90.7999 192.4 93.2999 194.7 95.9999 196.6C97.7999 197.9 99.8999 198.6 102 198.6C103.6 198.6 105.2 198.2 106.6 197.5C110.1 195.7 112.2 192.2 112.2 188.3V181.8C118.3 186.7 125.3 189.3 132.2 189.3C141.1 189.2 148.2 181.9 148.2 173ZM109.7 175.9C106.4 172.2 104.4 168.2 104.2 165.4C104.1 163.9 105.3 162.4 106.7 162.3C106.8 162.3 106.9 162.3 107 162.3C107.7 162.3 108.3 162.5 108.8 163C109.4 163.5 109.7 164.3 109.7 165V175.9Z"/>
<path d="M60.7999 157.2C60.5999 156.5 60.8999 155.8 61.5999 155.6C62.2999 155.4 62.9999 155.7 63.1999 156.4L66.1999 165.4C66.8999 167.4 66.3999 168.7 65.8999 169.4C65.0999 170.5 63.7999 171.1 61.9999 171.1H59.9999C59.2999 171.1 58.7999 170.5 58.7999 169.9C58.7999 169.2 59.3999 168.7 59.9999 168.7H61.9999C62.8999 168.7 63.5999 168.5 63.7999 168.1C64.0999 167.7 63.9999 166.9 63.7999 166.4L60.7999 157.2Z"/>
<path d="M135.8 157.2C135.6 156.5 135.9 155.8 136.6 155.6C137.3 155.4 138 155.7 138.2 156.4L141.2 165.4C141.9 167.4 141.4 168.7 140.9 169.4C140.1 170.5 138.8 171.1 137 171.1H135C134.3 171.1 133.8 170.5 133.8 169.9C133.8 169.2 134.4 168.7 135 168.7H137C137.9 168.7 138.6 168.5 138.8 168.1C139.1 167.7 139 166.9 138.8 166.4L135.8 157.2Z"/>
</mask>
<path d="M228.7 127.4C219.8 118.8 208 114.3 195.6 114.8C183.3 115.3 171.6 120.9 163.4 130.2C162.9 130.7 163 131.5 163.5 132C164 132.5 164.8 132.4 165.3 131.9C173.1 123.1 184.1 117.8 195.7 117.4C207.4 117 218.6 121.2 227 129.3C235.5 137.4 240.1 148.4 240.1 160.1C240.1 183.7 220.9 202.9 197.3 202.9C196.6 202.9 196.1 203.5 196.1 204.1C196.1 204.7 196.7 205.3 197.3 205.3C222.3 205.3 242.5 185 242.5 160.1C242.6 147.6 237.7 136 228.7 127.4Z" fill="url(#paint0_linear_3240_758)"/>
<path d="M225.3 173V164.9C227.1 163.6 228.3 161.4 228.3 159C228.3 155 225 151.8 221.1 151.8C217.5 151.8 214.6 154.4 214 157.8H211.3C210.7 154.4 207.7 151.8 204.2 151.8C200.2 151.8 197 155.1 197 159C197 163 200.3 166.2 204.2 166.2C207.8 166.2 210.7 163.6 211.3 160.2H213.9L215.9 166.3C216.1 166.9 216.2 167.6 215.9 168C215.6 168.4 214.9 168.6 214.1 168.6H212.1C211.4 168.6 210.9 169.2 210.9 169.8C210.9 170.4 211.5 171 212.1 171H214.1C215.8 171 217.2 170.4 218 169.3C218.5 168.6 219 167.3 218.4 165.4C219.3 165.8 220.2 166 221.2 166C221.8 166 222.4 165.9 223 165.8V172.8C223 180.3 217 186.5 209.5 186.5C201.7 186.5 194.6 182.8 189.5 178.2V164.8C189.5 163.3 188.9 161.9 187.8 160.9C186.7 159.9 185.2 159.4 183.7 159.6C180.9 159.9 178.8 162.4 179 165.3C179.2 169.5 182.3 174.9 187 179.4V185.8C187 189.6 184.9 192.9 181.5 194.6C178.1 196.3 174.2 195.9 171.2 193.5C169.1 191.9 167.1 190 165.4 188C164.9 187.5 164.2 187.4 163.6 187.9C163.1 188.4 163 189.1 163.5 189.7C165.4 191.8 167.4 193.8 169.7 195.5C171.9 197.2 174.6 198.1 177.2 198.1C179 198.1 180.9 197.7 182.6 196.8C186.9 194.7 189.5 190.5 189.5 185.8V181.6C195.6 186.5 202.6 189.1 209.5 189.1C218.1 189.1 225.3 181.9 225.3 173ZM204 163.8C201.4 163.8 199.2 161.7 199.2 159C199.2 156.3 201.3 154.2 204 154.2C206.7 154.2 208.8 156.3 208.8 159C208.8 161.7 206.6 163.8 204 163.8ZM216.2 159C216.2 156.4 218.3 154.2 221 154.2C223.7 154.2 225.8 156.3 225.8 159C225.8 161.7 223.7 163.8 221 163.8C218.3 163.8 216.2 161.6 216.2 159ZM186.8 175.9C183.5 172.2 181.5 168.2 181.3 165.4C181.2 163.9 182.4 162.4 183.8 162.3C183.9 162.3 184 162.3 184.1 162.3C184.8 162.3 185.4 162.5 185.9 163C186.5 163.5 186.8 164.3 186.8 165V175.9Z" fill="url(#paint1_linear_3240_758)"/>
<path d="M222 146.8H192C191.3 146.8 190.8 147.4 190.8 148C190.8 148.6 191.4 149.2 192 149.2H222C223.8 149.2 225.2 147.7 225.2 146C225.2 135.4 216.6 126.8 206 126.8H196C182.1 126.8 170.8 138.1 170.8 152V180C170.8 182.9 173.2 185.2 176 185.2H181C181.7 185.2 182.2 184.6 182.2 184C182.2 183.4 181.6 182.8 181 182.8H176C174.5 182.8 173.2 181.6 173.2 180V152C173.2 139.5 183.4 129.2 196 129.2H206C215.2 129.2 222.8 136.7 222.8 146C222.8 146.4 222.4 146.8 222 146.8Z" fill="url(#paint2_linear_3240_758)"/>
<path d="M122.7 114.8C109.7 114.8 97.2999 120.4 88.6999 130.2C88.1999 130.7 88.2999 131.5 88.7999 132C89.2999 132.5 90.0999 132.4 90.5999 131.9C98.6999 122.6 110.4 117.3 122.8 117.3C146.4 117.3 165.6 136.5 165.6 160.1C165.6 183.7 146.4 202.9 122.8 202.9C122.1 202.9 121.6 203.5 121.6 204.1C121.6 204.7 122.2 205.3 122.8 205.3C147.8 205.3 168.1 185 168.1 160.1C168.1 135.2 147.6 114.8 122.7 114.8Z" fill="url(#paint3_linear_3240_758)"/>
<path d="M79.3999 127.4C70.4999 118.8 58.6999 114.3 46.2999 114.8C22.6999 115.7 3.69994 134.8 2.79994 158.4C2.29994 173.3 9.09995 187.5 20.9999 196.3C24.0999 198.6 27.9999 198.9 31.4999 197.2C34.9999 195.4 37.1999 191.9 37.1999 188V181.8C43.2999 186.7 50.2999 189.3 57.1999 189.3C65.9999 189.2 73.1999 181.9 73.1999 173.1V153.1C73.1999 145.2 66.7999 138.9 58.9999 138.9C51.4999 138.9 47.1999 143.2 43.0999 147.3C39.1999 151.2 35.4999 154.9 29.9999 154.9C29.2999 154.9 28.7999 155.5 28.7999 156.1C28.7999 156.7 29.3999 157.3 29.9999 157.3C36.4999 157.3 40.7999 153 44.8999 148.9C48.7999 145 52.4999 141.3 58.9999 141.3C65.4999 141.3 70.7999 146.6 70.7999 153.1V173.1C70.7999 180.6 64.7999 186.8 57.2999 186.8C57.1999 186.8 57.0999 186.8 56.9999 186.8C49.2999 186.8 42.2999 183.1 37.1999 178.5V165.1C37.1999 163.6 36.5999 162.2 35.4999 161.2C34.3999 160.2 32.8999 159.7 31.3999 159.9C28.5999 160.2 26.4999 162.7 26.6999 165.6C26.8999 169.8 29.9999 175.2 34.6999 179.7V188.1C34.6999 191.1 32.9999 193.7 30.3999 195.1C27.7999 196.4 24.7999 196.2 22.4999 194.4C11.1999 186 4.79994 172.6 5.29994 158.6C6.09994 136.3 24.0999 118.2 46.3999 117.4C58.0999 117 69.2999 121.2 77.6999 129.3C86.0999 137.4 90.7999 148.4 90.7999 160.1C90.7999 183.7 71.5999 202.9 47.9999 202.9C47.2999 202.9 46.7999 203.5 46.7999 204.1C46.7999 204.7 47.3999 205.3 47.9999 205.3C72.9999 205.3 93.1999 185 93.1999 160.1C93.1999 147.6 88.2999 136 79.3999 127.4ZM29.2999 165.3C29.1999 163.8 30.3999 162.3 31.7999 162.2C31.8999 162.2 31.9999 162.2 32.0999 162.2C32.7999 162.2 33.3999 162.4 33.8999 162.9C34.4999 163.4 34.7999 164.2 34.7999 164.9V175.8C31.3999 172.1 29.3999 168.2 29.2999 165.3Z" fill="url(#paint4_linear_3240_758)"/>
<path d="M21.7999 146.8C14.9999 147.4 9.69994 153.1 9.69994 160V170C9.69994 170.7 10.2999 171.2 10.8999 171.2C11.4999 171.2 12.0999 170.6 12.0999 170V160C12.0999 154.1 16.8999 149.2 22.8999 149.2C23.5999 149.2 24.0999 148.6 24.0999 148C24.0999 138.2 32.0999 130.2 41.8999 130.2C41.8999 130.2 54.8999 130.2 59.8999 130.2C67.9999 130.2 74.6999 136.8 74.6999 145C74.6999 145.7 75.2999 146.2 75.8999 146.2C76.4999 146.2 77.0999 145.6 77.0999 145C77.0999 135.5 69.3999 127.8 59.8999 127.8C54.8999 127.8 41.8999 127.8 41.8999 127.8C31.1999 127.8 22.3999 136.2 21.7999 146.8Z" fill="url(#paint5_linear_3240_758)"/>
<path d="M303.4 127.4C294.5 118.8 282.7 114.3 270.3 114.8C258.1 115.3 246.3 120.9 238.1 130.2C237.6 130.7 237.7 131.5 238.2 132C238.7 132.5 239.5 132.4 240 131.9C247.8 123.1 258.8 117.8 270.4 117.4C282.1 117 293.3 121.2 301.7 129.3C310.2 137.4 314.8 148.4 314.8 160.1C314.8 183.7 295.6 202.9 272 202.9C271.3 202.9 270.8 203.5 270.8 204.1C270.8 204.7 271.4 205.3 272 205.3C297 205.3 317.2 185 317.2 160.1C317.2 147.6 312.3 136 303.4 127.4Z" fill="url(#paint6_linear_3240_758)"/>
<path d="M297.2 173V150.5C297.2 138.9 288 129.2 276.7 128.8C270.9 128.6 265.4 130.7 261.2 134.7C257 138.7 254.7 144.2 254.7 150C254.7 151.8 256.2 153.2 257.9 153.2H259.9C263.6 153.2 266.7 156.2 266.7 160V170C266.7 174 270 177.2 273.9 177.2C275.7 177.2 277.1 175.7 277.1 174C277.1 171.4 279.2 169.2 281.9 169.2H285.9C287.6 169.2 289 168.6 289.8 167.5C290.3 166.8 290.8 165.5 290.1 163.5L287.1 154.5C286.9 153.8 286.2 153.5 285.5 153.7C284.8 153.9 284.5 154.6 284.7 155.3C284.7 155.3 287.5 163.7 287.7 164.3C287.9 164.9 288 165.6 287.7 166.1C287.4 166.6 286.7 166.6 285.9 166.6H281.9C277.9 166.6 274.7 169.9 274.7 173.8C274.7 174.2 274.4 174.6 273.9 174.6C271.3 174.6 269.1 172.5 269.1 169.8V159.8C269.1 154.7 265 150.6 259.9 150.6H257.9C257.5 150.6 257.1 150.3 257.1 149.8C257.1 144.7 259.1 139.9 262.8 136.3C266.5 132.7 271.3 130.9 276.5 131.1C286.5 131.5 294.6 140.1 294.6 150.3V173C294.6 180.5 288.6 186.7 281.1 186.7C273.3 186.8 266.2 183 261.1 178.4V165C261.1 163.5 260.5 162.1 259.4 161.1C258.3 160.1 256.8 159.6 255.3 159.8C252.6 160.1 250.4 162.7 250.6 165.5C250.8 169.7 253.9 175.1 258.6 179.6V188C258.6 191 256.9 193.6 254.3 195C251.7 196.3 248.7 196.1 246.4 194.3C244 192.5 241.7 190.4 239.7 188.2C239.2 187.7 238.5 187.6 237.9 188.1C237.4 188.6 237.3 189.3 237.8 189.9C239.9 192.3 242.3 194.5 244.8 196.4C246.6 197.7 248.6 198.4 250.7 198.4C252.2 198.4 253.8 198 255.3 197.3C258.8 195.5 261 192 261 188.1V181.9C267 186.8 274.1 189.4 281 189.4C290.1 189.2 297.2 181.9 297.2 173ZM258.8 175.9C255.5 172.2 253.5 168.2 253.3 165.4C253.2 163.9 254.4 162.4 255.8 162.3C255.9 162.3 256 162.3 256.1 162.3C256.8 162.3 257.4 162.5 257.9 163C258.5 163.5 258.8 164.3 258.8 165V175.9Z" fill="url(#paint7_linear_3240_758)"/>
<path d="M99.9999 148.8C99.2999 148.8 98.7999 149.4 98.7999 150C98.7999 150.6 99.3999 151.2 99.9999 151.2C107.5 151.2 111.8 146.9 115.9 142.8C119.8 138.9 123.5 135.2 130 135.2C130.7 135.2 131.2 134.6 131.2 134C131.2 133.4 130.6 132.8 130 132.8C122.5 132.8 118.2 137.1 114.1 141.2C110.2 145 106.5 148.8 99.9999 148.8Z" fill="url(#paint8_linear_3240_758)"/>
<path d="M126 126.8C118.5 126.8 114.2 131.1 110.1 135.2C106.2 139.1 102.5 142.8 95.9999 142.8C95.2999 142.8 94.7999 143.4 94.7999 144C94.7999 144.6 95.3999 145.2 95.9999 145.2C103.5 145.2 107.8 140.9 111.9 136.8C115.8 132.9 119.5 129.2 126 129.2C126.7 129.2 127.2 128.6 127.2 128C127.2 127.4 126.7 126.8 126 126.8Z" fill="url(#paint9_linear_3240_758)"/>
<path d="M148.2 173V153C148.2 145.1 141.8 138.8 134 138.8C126.5 138.8 122.2 143.1 118.1 147.2C114.2 151.1 110.5 154.8 104 154.8C103.3 154.8 102.8 155.4 102.8 156C102.8 156.6 103.4 157.2 104 157.2C111.5 157.2 115.8 152.9 119.9 148.8C123.8 144.9 127.5 141.2 134 141.2C140.5 141.2 145.8 146.5 145.8 153V173C145.8 180.5 139.8 186.7 132.3 186.7C124.5 186.8 117.4 183 112.3 178.4V165C112.3 163.5 111.7 162.1 110.6 161.1C109.5 160.1 108 159.6 106.5 159.8C103.7 160.1 101.6 162.6 101.8 165.5C102 169.7 105.1 175.1 109.8 179.6V188.3C109.8 191.3 108.2 193.9 105.5 195.2C102.9 196.5 99.8999 196.3 97.4999 194.6C94.9999 192.7 92.5999 190.6 90.4999 188.2C89.9999 187.7 89.2999 187.6 88.6999 188.1C88.1999 188.6 88.0999 189.3 88.5999 189.9C90.7999 192.4 93.2999 194.7 95.9999 196.6C97.7999 197.9 99.8999 198.6 102 198.6C103.6 198.6 105.2 198.2 106.6 197.5C110.1 195.7 112.2 192.2 112.2 188.3V181.8C118.3 186.7 125.3 189.3 132.2 189.3C141.1 189.2 148.2 181.9 148.2 173ZM109.7 175.9C106.4 172.2 104.4 168.2 104.2 165.4C104.1 163.9 105.3 162.4 106.7 162.3C106.8 162.3 106.9 162.3 107 162.3C107.7 162.3 108.3 162.5 108.8 163C109.4 163.5 109.7 164.3 109.7 165V175.9Z" fill="url(#paint10_linear_3240_758)"/>
<path d="M60.7999 157.2C60.5999 156.5 60.8999 155.8 61.5999 155.6C62.2999 155.4 62.9999 155.7 63.1999 156.4L66.1999 165.4C66.8999 167.4 66.3999 168.7 65.8999 169.4C65.0999 170.5 63.7999 171.1 61.9999 171.1H59.9999C59.2999 171.1 58.7999 170.5 58.7999 169.9C58.7999 169.2 59.3999 168.7 59.9999 168.7H61.9999C62.8999 168.7 63.5999 168.5 63.7999 168.1C64.0999 167.7 63.9999 166.9 63.7999 166.4L60.7999 157.2Z" fill="url(#paint11_linear_3240_758)"/>
<path d="M135.8 157.2C135.6 156.5 135.9 155.8 136.6 155.6C137.3 155.4 138 155.7 138.2 156.4L141.2 165.4C141.9 167.4 141.4 168.7 140.9 169.4C140.1 170.5 138.8 171.1 137 171.1H135C134.3 171.1 133.8 170.5 133.8 169.9C133.8 169.2 134.4 168.7 135 168.7H137C137.9 168.7 138.6 168.5 138.8 168.1C139.1 167.7 139 166.9 138.8 166.4L135.8 157.2Z" fill="url(#paint12_linear_3240_758)"/>
<path d="M228.7 127.4C219.8 118.8 208 114.3 195.6 114.8C183.3 115.3 171.6 120.9 163.4 130.2C162.9 130.7 163 131.5 163.5 132C164 132.5 164.8 132.4 165.3 131.9C173.1 123.1 184.1 117.8 195.7 117.4C207.4 117 218.6 121.2 227 129.3C235.5 137.4 240.1 148.4 240.1 160.1C240.1 183.7 220.9 202.9 197.3 202.9C196.6 202.9 196.1 203.5 196.1 204.1C196.1 204.7 196.7 205.3 197.3 205.3C222.3 205.3 242.5 185 242.5 160.1C242.6 147.6 237.7 136 228.7 127.4Z" stroke="url(#paint13_linear_3240_758)" stroke-width="2" mask="url(#path-1-inside-1_3240_758)"/>
<path d="M225.3 173V164.9C227.1 163.6 228.3 161.4 228.3 159C228.3 155 225 151.8 221.1 151.8C217.5 151.8 214.6 154.4 214 157.8H211.3C210.7 154.4 207.7 151.8 204.2 151.8C200.2 151.8 197 155.1 197 159C197 163 200.3 166.2 204.2 166.2C207.8 166.2 210.7 163.6 211.3 160.2H213.9L215.9 166.3C216.1 166.9 216.2 167.6 215.9 168C215.6 168.4 214.9 168.6 214.1 168.6H212.1C211.4 168.6 210.9 169.2 210.9 169.8C210.9 170.4 211.5 171 212.1 171H214.1C215.8 171 217.2 170.4 218 169.3C218.5 168.6 219 167.3 218.4 165.4C219.3 165.8 220.2 166 221.2 166C221.8 166 222.4 165.9 223 165.8V172.8C223 180.3 217 186.5 209.5 186.5C201.7 186.5 194.6 182.8 189.5 178.2V164.8C189.5 163.3 188.9 161.9 187.8 160.9C186.7 159.9 185.2 159.4 183.7 159.6C180.9 159.9 178.8 162.4 179 165.3C179.2 169.5 182.3 174.9 187 179.4V185.8C187 189.6 184.9 192.9 181.5 194.6C178.1 196.3 174.2 195.9 171.2 193.5C169.1 191.9 167.1 190 165.4 188C164.9 187.5 164.2 187.4 163.6 187.9C163.1 188.4 163 189.1 163.5 189.7C165.4 191.8 167.4 193.8 169.7 195.5C171.9 197.2 174.6 198.1 177.2 198.1C179 198.1 180.9 197.7 182.6 196.8C186.9 194.7 189.5 190.5 189.5 185.8V181.6C195.6 186.5 202.6 189.1 209.5 189.1C218.1 189.1 225.3 181.9 225.3 173ZM204 163.8C201.4 163.8 199.2 161.7 199.2 159C199.2 156.3 201.3 154.2 204 154.2C206.7 154.2 208.8 156.3 208.8 159C208.8 161.7 206.6 163.8 204 163.8ZM216.2 159C216.2 156.4 218.3 154.2 221 154.2C223.7 154.2 225.8 156.3 225.8 159C225.8 161.7 223.7 163.8 221 163.8C218.3 163.8 216.2 161.6 216.2 159ZM186.8 175.9C183.5 172.2 181.5 168.2 181.3 165.4C181.2 163.9 182.4 162.4 183.8 162.3C183.9 162.3 184 162.3 184.1 162.3C184.8 162.3 185.4 162.5 185.9 163C186.5 163.5 186.8 164.3 186.8 165V175.9Z" stroke="url(#paint14_linear_3240_758)" stroke-width="2" mask="url(#path-1-inside-1_3240_758)"/>
<path d="M222 146.8H192C191.3 146.8 190.8 147.4 190.8 148C190.8 148.6 191.4 149.2 192 149.2H222C223.8 149.2 225.2 147.7 225.2 146C225.2 135.4 216.6 126.8 206 126.8H196C182.1 126.8 170.8 138.1 170.8 152V180C170.8 182.9 173.2 185.2 176 185.2H181C181.7 185.2 182.2 184.6 182.2 184C182.2 183.4 181.6 182.8 181 182.8H176C174.5 182.8 173.2 181.6 173.2 180V152C173.2 139.5 183.4 129.2 196 129.2H206C215.2 129.2 222.8 136.7 222.8 146C222.8 146.4 222.4 146.8 222 146.8Z" stroke="url(#paint15_linear_3240_758)" stroke-width="2" mask="url(#path-1-inside-1_3240_758)"/>
<path d="M122.7 114.8C109.7 114.8 97.2999 120.4 88.6999 130.2C88.1999 130.7 88.2999 131.5 88.7999 132C89.2999 132.5 90.0999 132.4 90.5999 131.9C98.6999 122.6 110.4 117.3 122.8 117.3C146.4 117.3 165.6 136.5 165.6 160.1C165.6 183.7 146.4 202.9 122.8 202.9C122.1 202.9 121.6 203.5 121.6 204.1C121.6 204.7 122.2 205.3 122.8 205.3C147.8 205.3 168.1 185 168.1 160.1C168.1 135.2 147.6 114.8 122.7 114.8Z" stroke="url(#paint16_linear_3240_758)" stroke-width="2" mask="url(#path-1-inside-1_3240_758)"/>
<path d="M79.3999 127.4C70.4999 118.8 58.6999 114.3 46.2999 114.8C22.6999 115.7 3.69994 134.8 2.79994 158.4C2.29994 173.3 9.09995 187.5 20.9999 196.3C24.0999 198.6 27.9999 198.9 31.4999 197.2C34.9999 195.4 37.1999 191.9 37.1999 188V181.8C43.2999 186.7 50.2999 189.3 57.1999 189.3C65.9999 189.2 73.1999 181.9 73.1999 173.1V153.1C73.1999 145.2 66.7999 138.9 58.9999 138.9C51.4999 138.9 47.1999 143.2 43.0999 147.3C39.1999 151.2 35.4999 154.9 29.9999 154.9C29.2999 154.9 28.7999 155.5 28.7999 156.1C28.7999 156.7 29.3999 157.3 29.9999 157.3C36.4999 157.3 40.7999 153 44.8999 148.9C48.7999 145 52.4999 141.3 58.9999 141.3C65.4999 141.3 70.7999 146.6 70.7999 153.1V173.1C70.7999 180.6 64.7999 186.8 57.2999 186.8C57.1999 186.8 57.0999 186.8 56.9999 186.8C49.2999 186.8 42.2999 183.1 37.1999 178.5V165.1C37.1999 163.6 36.5999 162.2 35.4999 161.2C34.3999 160.2 32.8999 159.7 31.3999 159.9C28.5999 160.2 26.4999 162.7 26.6999 165.6C26.8999 169.8 29.9999 175.2 34.6999 179.7V188.1C34.6999 191.1 32.9999 193.7 30.3999 195.1C27.7999 196.4 24.7999 196.2 22.4999 194.4C11.1999 186 4.79994 172.6 5.29994 158.6C6.09994 136.3 24.0999 118.2 46.3999 117.4C58.0999 117 69.2999 121.2 77.6999 129.3C86.0999 137.4 90.7999 148.4 90.7999 160.1C90.7999 183.7 71.5999 202.9 47.9999 202.9C47.2999 202.9 46.7999 203.5 46.7999 204.1C46.7999 204.7 47.3999 205.3 47.9999 205.3C72.9999 205.3 93.1999 185 93.1999 160.1C93.1999 147.6 88.2999 136 79.3999 127.4ZM29.2999 165.3C29.1999 163.8 30.3999 162.3 31.7999 162.2C31.8999 162.2 31.9999 162.2 32.0999 162.2C32.7999 162.2 33.3999 162.4 33.8999 162.9C34.4999 163.4 34.7999 164.2 34.7999 164.9V175.8C31.3999 172.1 29.3999 168.2 29.2999 165.3Z" stroke="url(#paint17_linear_3240_758)" stroke-width="2" mask="url(#path-1-inside-1_3240_758)"/>
<path d="M21.7999 146.8C14.9999 147.4 9.69994 153.1 9.69994 160V170C9.69994 170.7 10.2999 171.2 10.8999 171.2C11.4999 171.2 12.0999 170.6 12.0999 170V160C12.0999 154.1 16.8999 149.2 22.8999 149.2C23.5999 149.2 24.0999 148.6 24.0999 148C24.0999 138.2 32.0999 130.2 41.8999 130.2C41.8999 130.2 54.8999 130.2 59.8999 130.2C67.9999 130.2 74.6999 136.8 74.6999 145C74.6999 145.7 75.2999 146.2 75.8999 146.2C76.4999 146.2 77.0999 145.6 77.0999 145C77.0999 135.5 69.3999 127.8 59.8999 127.8C54.8999 127.8 41.8999 127.8 41.8999 127.8C31.1999 127.8 22.3999 136.2 21.7999 146.8Z" stroke="url(#paint18_linear_3240_758)" stroke-width="2" mask="url(#path-1-inside-1_3240_758)"/>
<path d="M303.4 127.4C294.5 118.8 282.7 114.3 270.3 114.8C258.1 115.3 246.3 120.9 238.1 130.2C237.6 130.7 237.7 131.5 238.2 132C238.7 132.5 239.5 132.4 240 131.9C247.8 123.1 258.8 117.8 270.4 117.4C282.1 117 293.3 121.2 301.7 129.3C310.2 137.4 314.8 148.4 314.8 160.1C314.8 183.7 295.6 202.9 272 202.9C271.3 202.9 270.8 203.5 270.8 204.1C270.8 204.7 271.4 205.3 272 205.3C297 205.3 317.2 185 317.2 160.1C317.2 147.6 312.3 136 303.4 127.4Z" stroke="url(#paint19_linear_3240_758)" stroke-width="2" mask="url(#path-1-inside-1_3240_758)"/>
<path d="M297.2 173V150.5C297.2 138.9 288 129.2 276.7 128.8C270.9 128.6 265.4 130.7 261.2 134.7C257 138.7 254.7 144.2 254.7 150C254.7 151.8 256.2 153.2 257.9 153.2H259.9C263.6 153.2 266.7 156.2 266.7 160V170C266.7 174 270 177.2 273.9 177.2C275.7 177.2 277.1 175.7 277.1 174C277.1 171.4 279.2 169.2 281.9 169.2H285.9C287.6 169.2 289 168.6 289.8 167.5C290.3 166.8 290.8 165.5 290.1 163.5L287.1 154.5C286.9 153.8 286.2 153.5 285.5 153.7C284.8 153.9 284.5 154.6 284.7 155.3C284.7 155.3 287.5 163.7 287.7 164.3C287.9 164.9 288 165.6 287.7 166.1C287.4 166.6 286.7 166.6 285.9 166.6H281.9C277.9 166.6 274.7 169.9 274.7 173.8C274.7 174.2 274.4 174.6 273.9 174.6C271.3 174.6 269.1 172.5 269.1 169.8V159.8C269.1 154.7 265 150.6 259.9 150.6H257.9C257.5 150.6 257.1 150.3 257.1 149.8C257.1 144.7 259.1 139.9 262.8 136.3C266.5 132.7 271.3 130.9 276.5 131.1C286.5 131.5 294.6 140.1 294.6 150.3V173C294.6 180.5 288.6 186.7 281.1 186.7C273.3 186.8 266.2 183 261.1 178.4V165C261.1 163.5 260.5 162.1 259.4 161.1C258.3 160.1 256.8 159.6 255.3 159.8C252.6 160.1 250.4 162.7 250.6 165.5C250.8 169.7 253.9 175.1 258.6 179.6V188C258.6 191 256.9 193.6 254.3 195C251.7 196.3 248.7 196.1 246.4 194.3C244 192.5 241.7 190.4 239.7 188.2C239.2 187.7 238.5 187.6 237.9 188.1C237.4 188.6 237.3 189.3 237.8 189.9C239.9 192.3 242.3 194.5 244.8 196.4C246.6 197.7 248.6 198.4 250.7 198.4C252.2 198.4 253.8 198 255.3 197.3C258.8 195.5 261 192 261 188.1V181.9C267 186.8 274.1 189.4 281 189.4C290.1 189.2 297.2 181.9 297.2 173ZM258.8 175.9C255.5 172.2 253.5 168.2 253.3 165.4C253.2 163.9 254.4 162.4 255.8 162.3C255.9 162.3 256 162.3 256.1 162.3C256.8 162.3 257.4 162.5 257.9 163C258.5 163.5 258.8 164.3 258.8 165V175.9Z" stroke="url(#paint20_linear_3240_758)" stroke-width="2" mask="url(#path-1-inside-1_3240_758)"/>
<path d="M99.9999 148.8C99.2999 148.8 98.7999 149.4 98.7999 150C98.7999 150.6 99.3999 151.2 99.9999 151.2C107.5 151.2 111.8 146.9 115.9 142.8C119.8 138.9 123.5 135.2 130 135.2C130.7 135.2 131.2 134.6 131.2 134C131.2 133.4 130.6 132.8 130 132.8C122.5 132.8 118.2 137.1 114.1 141.2C110.2 145 106.5 148.8 99.9999 148.8Z" stroke="url(#paint21_linear_3240_758)" stroke-width="2" mask="url(#path-1-inside-1_3240_758)"/>
<path d="M126 126.8C118.5 126.8 114.2 131.1 110.1 135.2C106.2 139.1 102.5 142.8 95.9999 142.8C95.2999 142.8 94.7999 143.4 94.7999 144C94.7999 144.6 95.3999 145.2 95.9999 145.2C103.5 145.2 107.8 140.9 111.9 136.8C115.8 132.9 119.5 129.2 126 129.2C126.7 129.2 127.2 128.6 127.2 128C127.2 127.4 126.7 126.8 126 126.8Z" stroke="url(#paint22_linear_3240_758)" stroke-width="2" mask="url(#path-1-inside-1_3240_758)"/>
<path d="M148.2 173V153C148.2 145.1 141.8 138.8 134 138.8C126.5 138.8 122.2 143.1 118.1 147.2C114.2 151.1 110.5 154.8 104 154.8C103.3 154.8 102.8 155.4 102.8 156C102.8 156.6 103.4 157.2 104 157.2C111.5 157.2 115.8 152.9 119.9 148.8C123.8 144.9 127.5 141.2 134 141.2C140.5 141.2 145.8 146.5 145.8 153V173C145.8 180.5 139.8 186.7 132.3 186.7C124.5 186.8 117.4 183 112.3 178.4V165C112.3 163.5 111.7 162.1 110.6 161.1C109.5 160.1 108 159.6 106.5 159.8C103.7 160.1 101.6 162.6 101.8 165.5C102 169.7 105.1 175.1 109.8 179.6V188.3C109.8 191.3 108.2 193.9 105.5 195.2C102.9 196.5 99.8999 196.3 97.4999 194.6C94.9999 192.7 92.5999 190.6 90.4999 188.2C89.9999 187.7 89.2999 187.6 88.6999 188.1C88.1999 188.6 88.0999 189.3 88.5999 189.9C90.7999 192.4 93.2999 194.7 95.9999 196.6C97.7999 197.9 99.8999 198.6 102 198.6C103.6 198.6 105.2 198.2 106.6 197.5C110.1 195.7 112.2 192.2 112.2 188.3V181.8C118.3 186.7 125.3 189.3 132.2 189.3C141.1 189.2 148.2 181.9 148.2 173ZM109.7 175.9C106.4 172.2 104.4 168.2 104.2 165.4C104.1 163.9 105.3 162.4 106.7 162.3C106.8 162.3 106.9 162.3 107 162.3C107.7 162.3 108.3 162.5 108.8 163C109.4 163.5 109.7 164.3 109.7 165V175.9Z" stroke="url(#paint23_linear_3240_758)" stroke-width="2" mask="url(#path-1-inside-1_3240_758)"/>
<path d="M60.7999 157.2C60.5999 156.5 60.8999 155.8 61.5999 155.6C62.2999 155.4 62.9999 155.7 63.1999 156.4L66.1999 165.4C66.8999 167.4 66.3999 168.7 65.8999 169.4C65.0999 170.5 63.7999 171.1 61.9999 171.1H59.9999C59.2999 171.1 58.7999 170.5 58.7999 169.9C58.7999 169.2 59.3999 168.7 59.9999 168.7H61.9999C62.8999 168.7 63.5999 168.5 63.7999 168.1C64.0999 167.7 63.9999 166.9 63.7999 166.4L60.7999 157.2Z" stroke="url(#paint24_linear_3240_758)" stroke-width="2" mask="url(#path-1-inside-1_3240_758)"/>
<path d="M135.8 157.2C135.6 156.5 135.9 155.8 136.6 155.6C137.3 155.4 138 155.7 138.2 156.4L141.2 165.4C141.9 167.4 141.4 168.7 140.9 169.4C140.1 170.5 138.8 171.1 137 171.1H135C134.3 171.1 133.8 170.5 133.8 169.9C133.8 169.2 134.4 168.7 135 168.7H137C137.9 168.7 138.6 168.5 138.8 168.1C139.1 167.7 139 166.9 138.8 166.4L135.8 157.2Z" stroke="url(#paint25_linear_3240_758)" stroke-width="2" mask="url(#path-1-inside-1_3240_758)"/>
<path d="M53.5 159C53.5 159.828 52.8284 160.5 52 160.5C51.1716 160.5 50.5 159.828 50.5 159C50.5 158.172 51.1716 157.5 52 157.5C52.8284 157.5 53.5 158.172 53.5 159ZM277.5 157C277.5 157.828 276.828 158.5 276 158.5C275.172 158.5 274.5 157.828 274.5 157C274.5 156.172 275.172 155.5 276 155.5C276.828 155.5 277.5 156.172 277.5 157ZM128.5 159C128.5 159.828 127.828 160.5 127 160.5C126.172 160.5 125.5 159.828 125.5 159C125.5 158.172 126.172 157.5 127 157.5C127.828 157.5 128.5 158.172 128.5 159Z" fill="url(#paint26_linear_3240_758)" stroke="url(#paint27_linear_3240_758)"/>
<defs>
<linearGradient id="paint0_linear_3240_758" x1="159.987" y1="114.762" x2="159.987" y2="205.3" gradientUnits="userSpaceOnUse">
<stop stop-color="#3CC29A"/>
<stop offset="1" stop-color="#93C437"/>
</linearGradient>
<linearGradient id="paint1_linear_3240_758" x1="159.987" y1="114.762" x2="159.987" y2="205.3" gradientUnits="userSpaceOnUse">
<stop stop-color="#3CC29A"/>
<stop offset="1" stop-color="#93C437"/>
</linearGradient>
<linearGradient id="paint2_linear_3240_758" x1="159.987" y1="114.762" x2="159.987" y2="205.3" gradientUnits="userSpaceOnUse">
<stop stop-color="#3CC29A"/>
<stop offset="1" stop-color="#93C437"/>
</linearGradient>
<linearGradient id="paint3_linear_3240_758" x1="159.987" y1="114.762" x2="159.987" y2="205.3" gradientUnits="userSpaceOnUse">
<stop stop-color="#3CC29A"/>
<stop offset="1" stop-color="#93C437"/>
</linearGradient>
<linearGradient id="paint4_linear_3240_758" x1="159.987" y1="114.762" x2="159.987" y2="205.3" gradientUnits="userSpaceOnUse">
<stop stop-color="#3CC29A"/>
<stop offset="1" stop-color="#93C437"/>
</linearGradient>
<linearGradient id="paint5_linear_3240_758" x1="159.987" y1="114.762" x2="159.987" y2="205.3" gradientUnits="userSpaceOnUse">
<stop stop-color="#3CC29A"/>
<stop offset="1" stop-color="#93C437"/>
</linearGradient>
<linearGradient id="paint6_linear_3240_758" x1="159.987" y1="114.762" x2="159.987" y2="205.3" gradientUnits="userSpaceOnUse">
<stop stop-color="#3CC29A"/>
<stop offset="1" stop-color="#93C437"/>
</linearGradient>
<linearGradient id="paint7_linear_3240_758" x1="159.987" y1="114.762" x2="159.987" y2="205.3" gradientUnits="userSpaceOnUse">
<stop stop-color="#3CC29A"/>
<stop offset="1" stop-color="#93C437"/>
</linearGradient>
<linearGradient id="paint8_linear_3240_758" x1="159.987" y1="114.762" x2="159.987" y2="205.3" gradientUnits="userSpaceOnUse">
<stop stop-color="#3CC29A"/>
<stop offset="1" stop-color="#93C437"/>
</linearGradient>
<linearGradient id="paint9_linear_3240_758" x1="159.987" y1="114.762" x2="159.987" y2="205.3" gradientUnits="userSpaceOnUse">
<stop stop-color="#3CC29A"/>
<stop offset="1" stop-color="#93C437"/>
</linearGradient>
<linearGradient id="paint10_linear_3240_758" x1="159.987" y1="114.762" x2="159.987" y2="205.3" gradientUnits="userSpaceOnUse">
<stop stop-color="#3CC29A"/>
<stop offset="1" stop-color="#93C437"/>
</linearGradient>
<linearGradient id="paint11_linear_3240_758" x1="159.987" y1="114.762" x2="159.987" y2="205.3" gradientUnits="userSpaceOnUse">
<stop stop-color="#3CC29A"/>
<stop offset="1" stop-color="#93C437"/>
</linearGradient>
<linearGradient id="paint12_linear_3240_758" x1="159.987" y1="114.762" x2="159.987" y2="205.3" gradientUnits="userSpaceOnUse">
<stop stop-color="#3CC29A"/>
<stop offset="1" stop-color="#93C437"/>
</linearGradient>
<linearGradient id="paint13_linear_3240_758" x1="159.987" y1="114.762" x2="159.987" y2="205.3" gradientUnits="userSpaceOnUse">
<stop stop-color="#3CC29A"/>
<stop offset="1" stop-color="#93C437"/>
</linearGradient>
<linearGradient id="paint14_linear_3240_758" x1="159.987" y1="114.762" x2="159.987" y2="205.3" gradientUnits="userSpaceOnUse">
<stop stop-color="#3CC29A"/>
<stop offset="1" stop-color="#93C437"/>
</linearGradient>
<linearGradient id="paint15_linear_3240_758" x1="159.987" y1="114.762" x2="159.987" y2="205.3" gradientUnits="userSpaceOnUse">
<stop stop-color="#3CC29A"/>
<stop offset="1" stop-color="#93C437"/>
</linearGradient>
<linearGradient id="paint16_linear_3240_758" x1="159.987" y1="114.762" x2="159.987" y2="205.3" gradientUnits="userSpaceOnUse">
<stop stop-color="#3CC29A"/>
<stop offset="1" stop-color="#93C437"/>
</linearGradient>
<linearGradient id="paint17_linear_3240_758" x1="159.987" y1="114.762" x2="159.987" y2="205.3" gradientUnits="userSpaceOnUse">
<stop stop-color="#3CC29A"/>
<stop offset="1" stop-color="#93C437"/>
</linearGradient>
<linearGradient id="paint18_linear_3240_758" x1="159.987" y1="114.762" x2="159.987" y2="205.3" gradientUnits="userSpaceOnUse">
<stop stop-color="#3CC29A"/>
<stop offset="1" stop-color="#93C437"/>
</linearGradient>
<linearGradient id="paint19_linear_3240_758" x1="159.987" y1="114.762" x2="159.987" y2="205.3" gradientUnits="userSpaceOnUse">
<stop stop-color="#3CC29A"/>
<stop offset="1" stop-color="#93C437"/>
</linearGradient>
<linearGradient id="paint20_linear_3240_758" x1="159.987" y1="114.762" x2="159.987" y2="205.3" gradientUnits="userSpaceOnUse">
<stop stop-color="#3CC29A"/>
<stop offset="1" stop-color="#93C437"/>
</linearGradient>
<linearGradient id="paint21_linear_3240_758" x1="159.987" y1="114.762" x2="159.987" y2="205.3" gradientUnits="userSpaceOnUse">
<stop stop-color="#3CC29A"/>
<stop offset="1" stop-color="#93C437"/>
</linearGradient>
<linearGradient id="paint22_linear_3240_758" x1="159.987" y1="114.762" x2="159.987" y2="205.3" gradientUnits="userSpaceOnUse">
<stop stop-color="#3CC29A"/>
<stop offset="1" stop-color="#93C437"/>
</linearGradient>
<linearGradient id="paint23_linear_3240_758" x1="159.987" y1="114.762" x2="159.987" y2="205.3" gradientUnits="userSpaceOnUse">
<stop stop-color="#3CC29A"/>
<stop offset="1" stop-color="#93C437"/>
</linearGradient>
<linearGradient id="paint24_linear_3240_758" x1="159.987" y1="114.762" x2="159.987" y2="205.3" gradientUnits="userSpaceOnUse">
<stop stop-color="#3CC29A"/>
<stop offset="1" stop-color="#93C437"/>
</linearGradient>
<linearGradient id="paint25_linear_3240_758" x1="159.987" y1="114.762" x2="159.987" y2="205.3" gradientUnits="userSpaceOnUse">
<stop stop-color="#3CC29A"/>
<stop offset="1" stop-color="#93C437"/>
</linearGradient>
<linearGradient id="paint26_linear_3240_758" x1="164" y1="155" x2="164" y2="161" gradientUnits="userSpaceOnUse">
<stop stop-color="#3CC29A"/>
<stop offset="1" stop-color="#93C437"/>
</linearGradient>
<linearGradient id="paint27_linear_3240_758" x1="164" y1="155" x2="164" y2="161" gradientUnits="userSpaceOnUse">
<stop stop-color="#3CC29A"/>
<stop offset="1" stop-color="#93C437"/>
</linearGradient>
</defs>
</svg>
