<svg width="320" height="320" viewBox="0 0 320 320" fill="none" xmlns="http://www.w3.org/2000/svg">
<path d="M303.645 71.4046V246.405C303.645 256.305 295.545 264.405 285.645 264.405H65.6445C55.7445 264.405 47.6445 256.305 47.6445 246.405V151.405M151.645 88.4046H247.645M151.645 104.405H199.645M151.645 144.405H247.645M54.6445 81.4046C70.0445 84.7046 81.7445 99.7046 79.3445 116.905C77.2445 131.905 64.5445 143.605 49.3445 144.305C30.9445 145.305 15.6445 130.605 15.6445 112.305C15.6445 94.6046 29.9445 80.3046 47.6445 80.3046V74.3046C47.6445 64.4046 55.7445 56.3046 65.6445 56.3046H299.645C301.845 56.3046 303.645 58.1046 303.645 60.3046C303.645 62.5046 301.845 64.3046 299.645 64.3046H107.645C101.045 64.3046 95.6445 69.7046 95.6445 76.3046V240.305M133.645 96.4046C133.645 101.927 129.167 106.405 123.645 106.405C118.122 106.405 113.645 101.927 113.645 96.4046C113.645 90.8817 118.122 86.4046 123.645 86.4046C129.167 86.4046 133.645 90.8817 133.645 96.4046ZM133.645 152.405C133.645 157.927 129.167 162.405 123.645 162.405C118.122 162.405 113.645 157.927 113.645 152.405C113.645 146.882 118.122 142.405 123.645 142.405C129.167 142.405 133.645 146.882 133.645 152.405ZM239.645 216.405H159.645C155.245 216.405 151.645 212.805 151.645 208.405V168.405C151.645 164.005 155.245 160.405 159.645 160.405H239.645C244.045 160.405 247.645 164.005 247.645 168.405V208.405C247.645 212.905 244.145 216.405 239.645 216.405ZM167.645 230.405C167.645 228.205 165.845 226.405 163.645 226.405C160.645 226.405 159.645 229.405 159.645 229.405C159.645 229.405 158.645 226.405 155.645 226.405C153.445 226.405 151.645 228.205 151.645 230.405C151.645 234.405 156.645 238.405 159.645 240.405C162.645 238.405 167.645 234.405 167.645 230.405ZM46.6445 95.6046C39.5445 96.5046 33.8445 102.205 32.8445 109.305C32.2445 113.705 33.4445 117.705 35.8445 120.905C34.8445 123.805 33.3445 126.205 32.2445 127.705C31.7445 128.405 32.2445 129.405 33.1445 129.305C35.5445 129.005 39.3445 128.205 42.2445 126.105C44.8445 127.305 47.8445 127.805 50.9445 127.405C58.0445 126.405 63.8445 120.605 64.6445 113.505C65.7445 103.005 57.0445 94.3046 46.6445 95.6046Z" stroke="white" stroke-width="2.5" stroke-miterlimit="10" stroke-linecap="round" stroke-linejoin="round"/>
</svg>
