<svg width="321" height="320" viewBox="0 0 321 320" fill="none" xmlns="http://www.w3.org/2000/svg">
<path d="M265.355 171.2C268.755 171.2 271.455 168.4 271.355 165C271.255 161.7 268.355 159.2 265.155 159.2H262.455C261.155 159.2 259.855 158.7 258.955 157.7L257.455 156.2C255.655 154.4 255.155 151.6 256.355 149.3L257.955 146.1C258.655 144.8 257.655 143.2 256.155 143.2H246.355M280.255 159.2C280.255 159.2 276.255 165.2 276.255 173.2C276.255 182.8 283.755 188.6 290.955 190.5C292.755 191 294.155 189 293.155 187.5C286.255 177.1 294.255 168.4 294.255 161.2C294.255 154.6 290.255 149.2 285.255 149.2C282.955 149.2 280.855 150.3 279.255 152.2C276.255 142.4 267.055 135.2 256.255 135.2C244.255 135.2 236.355 141 232.255 153.2L229.255 162.2C227.255 168.2 230.255 169.2 232.255 169.2H234.255C235.355 169.2 236.255 170.1 236.255 171.2V179C236.255 184 240.255 188.2 245.155 188.2H250.755C253.755 188.2 256.255 190.7 256.255 193.7C256.255 196.7 253.755 199.2 250.755 199.2H243.055C233.955 199.2 225.655 204.3 221.555 212.5L206.355 242.8C204.955 245.5 202.255 247.2 199.155 247.2H140.055C135.655 247.2 132.055 243.6 132.055 239.2V207.2C132.055 202.8 135.655 199.2 140.055 199.2H188.055C192.455 199.2 196.055 202.8 196.055 207.2V240.2M64.2549 135.2V114.2C64.2549 112.3 62.6549 110.9 60.7549 111.2C59.2549 111.5 58.2549 112.8 58.2549 114.3C58.2549 122.2 65.1549 131.1 75.9549 131.2C81.6549 131.3 86.2549 126.7 86.2549 121.1V107.2C86.2549 102.8 82.6549 99.2001 78.2549 99.2001H76.2549C71.8549 99.2001 68.2549 102.8 68.2549 107.2M78.2549 110.2C78.2549 110.2 79.2549 113.2 80.2549 116.2C81.2549 119.2 79.2549 119.2 78.2549 119.2H77.2549M88.6549 98.2001C86.4549 89.6 78.5549 83.2001 69.2549 83.2001C58.2549 83.2001 49.2549 92.2001 49.2549 103.2C49.2549 107.3 50.4549 111 52.5549 114.2M40.4549 164.3C30.4549 153.6 24.2549 139.2 24.2549 123.3C24.2549 90.2001 51.1549 63.3 84.2549 63.3C117.355 63.3 144.255 90.2001 144.255 123.3M116.255 159.2H106.255C104.055 159.2 102.255 157.4 102.255 155.2V139.2C102.255 137 104.055 135.2 106.255 135.2H112.255C114.455 135.2 116.255 137 116.255 139.2V148.2M116.255 159.2H120.255C122.555 159.2 124.255 157.5 124.255 155.2V152.2C124.255 150 122.455 148.2 120.255 148.2H116.255M116.255 159.2C114.055 159.2 112.255 157.4 112.255 155.2V152.2C112.255 150 114.055 148.2 116.255 148.2M84.2549 135.2C94.2549 135.2 94.2549 151.2 102.255 151.2M144.255 123.2C144.255 154.5 122.655 158.8 140.955 179.7C142.755 181.8 141.955 185.1 139.355 186.1C137.555 186.8 135.155 187.3 132.255 187.3C117.255 187.3 110.255 177.4 110.255 177.4C102.355 181.2 93.5549 183.3 84.2549 183.3C58.2549 183.3 45.2549 168.3 45.2549 154.3C45.2549 143.8 53.7549 135.3 64.2549 135.3" stroke="url(#paint0_linear_244_169)" stroke-width="2.5" stroke-miterlimit="10" stroke-linecap="round" stroke-linejoin="round"/>
<path d="M241.255 158.2C242.359 158.2 243.255 157.305 243.255 156.2C243.255 155.096 242.359 154.2 241.255 154.2C240.15 154.2 239.255 155.096 239.255 156.2C239.255 157.305 240.15 158.2 241.255 158.2Z" fill="url(#paint1_linear_244_169)"/>
<defs>
<linearGradient id="paint0_linear_244_169" x1="159.255" y1="63.3" x2="159.255" y2="247.2" gradientUnits="userSpaceOnUse">
<stop stop-color="#3CC29A"/>
<stop offset="1" stop-color="#93C437"/>
</linearGradient>
<linearGradient id="paint1_linear_244_169" x1="241.255" y1="154.2" x2="241.255" y2="158.2" gradientUnits="userSpaceOnUse">
<stop stop-color="#3CC29A"/>
<stop offset="1" stop-color="#93C437"/>
</linearGradient>
</defs>
</svg>
