<svg width="120" height="120" viewBox="0 0 120 120" fill="none" xmlns="http://www.w3.org/2000/svg">
<path d="M58.7392 32V40C58.7392 40.3315 58.8709 40.6495 59.1053 40.8839C59.3398 41.1183 59.6577 41.25 59.9892 41.25C60.3208 41.25 60.6387 41.1183 60.8731 40.8839C61.1075 40.6495 61.2392 40.3315 61.2392 40V32C61.2392 31.6685 61.1075 31.3505 60.8731 31.1161C60.6387 30.8817 60.3208 30.75 59.9892 30.75C59.6577 30.75 59.3398 30.8817 59.1053 31.1161C58.8709 31.3505 58.7392 31.6685 58.7392 32Z" fill="url(#paint0_linear_4_396)"/>
<path d="M37.3642 36.8125C37.0772 36.9783 36.8677 37.2513 36.7819 37.5715C36.6961 37.8917 36.741 38.2329 36.9067 38.52L40.9067 45.4482C40.9882 45.5915 41.0972 45.7173 41.2275 45.8183C41.3578 45.9193 41.5068 45.9935 41.6658 46.0367C41.8249 46.0799 41.991 46.0912 42.1545 46.07C42.3179 46.0487 42.4756 45.9954 42.6184 45.9129C42.7611 45.8305 42.8862 45.7206 42.9863 45.5897C43.0865 45.4587 43.1597 45.3093 43.2018 45.1499C43.244 44.9905 43.2542 44.8244 43.2318 44.6611C43.2095 44.4977 43.1551 44.3404 43.0717 44.1982L39.0717 37.27C38.9059 36.9829 38.6329 36.7734 38.3127 36.6876C37.9925 36.6018 37.6513 36.6468 37.3642 36.8125Z" fill="url(#paint1_linear_4_396)"/>
<path d="M28.8116 59.25C29.0868 59.2502 29.3545 59.1596 29.5729 58.9922C29.7914 58.8247 29.9485 58.5899 30.0199 58.324C30.0912 58.0582 30.0728 57.7762 29.9675 57.5219C29.8622 57.2676 29.676 57.0551 29.4376 56.9175L22.5094 52.9175C22.3672 52.8341 22.2099 52.7797 22.0465 52.7574C21.8832 52.735 21.7171 52.7452 21.5577 52.7874C21.3983 52.8295 21.2489 52.9028 21.1179 53.0029C20.987 53.103 20.8771 53.2281 20.7947 53.3708C20.7122 53.5136 20.6589 53.6713 20.6376 53.8347C20.6164 53.9982 20.6277 54.1643 20.6709 54.3234C20.7141 54.4825 20.7883 54.6314 20.8893 54.7617C20.9903 54.892 21.1161 55.001 21.2594 55.0825L28.1876 59.0825C28.3772 59.1924 28.5925 59.2502 28.8116 59.25Z" fill="url(#paint2_linear_4_396)"/>
<path d="M15.9892 74.75C15.6577 74.75 15.3398 74.8817 15.1053 75.1161C14.8709 75.3505 14.7392 75.6685 14.7392 76C14.7392 76.3315 14.8709 76.6495 15.1053 76.8839C15.3398 77.1183 15.6577 77.25 15.9892 77.25H23.9892C24.3208 77.25 24.6387 77.1183 24.8731 76.8839C25.1075 76.6495 25.2392 76.3315 25.2392 76C25.2392 75.6685 25.1075 75.3505 24.8731 75.1161C24.6387 74.8817 24.3208 74.75 23.9892 74.75H15.9892Z" fill="url(#paint3_linear_4_396)"/>
<path d="M103.989 74.75H95.9892C95.6577 74.75 95.3398 74.8817 95.1053 75.1161C94.8709 75.3505 94.7392 75.6685 94.7392 76C94.7392 76.3315 94.8709 76.6495 95.1053 76.8839C95.3398 77.1183 95.6577 77.25 95.9892 77.25H103.989C104.321 77.25 104.639 77.1183 104.873 76.8839C105.108 76.6495 105.239 76.3315 105.239 76C105.239 75.6685 105.108 75.3505 104.873 75.1161C104.639 74.8817 104.321 74.75 103.989 74.75Z" fill="url(#paint4_linear_4_396)"/>
<path d="M99.1766 53.3751C99.0108 53.0881 98.7378 52.8786 98.4176 52.7929C98.0974 52.7071 97.7562 52.7519 97.4691 52.9176L90.5409 56.9176C90.3976 56.999 90.2718 57.1081 90.1708 57.2383C90.0698 57.3686 89.9956 57.5176 89.9524 57.6767C89.9092 57.8358 89.8979 58.0019 89.9191 58.1653C89.9404 58.3288 89.9937 58.4865 90.0762 58.6292C90.1586 58.772 90.2684 58.897 90.3994 58.9972C90.5304 59.0973 90.6798 59.1705 90.8392 59.2127C90.9986 59.2548 91.1647 59.265 91.328 59.2427C91.4914 59.2204 91.6487 59.1659 91.7909 59.0826L98.7191 55.0826C99.0061 54.9168 99.2156 54.6437 99.3014 54.3235C99.3872 54.0034 99.3423 53.6622 99.1766 53.3751Z" fill="url(#paint5_linear_4_396)"/>
<path d="M97.6425 38.3467C92.6979 33.4019 86.8277 29.4795 80.3671 26.8034C73.9065 24.1274 66.9821 22.75 59.9892 22.75C52.9963 22.75 46.0719 24.1274 39.6114 26.8034C33.1508 29.4795 27.2806 33.4019 22.3359 38.3467C14.1119 46.5208 8.8106 57.177 7.25197 68.667C6.15529 76.6201 8.09377 83.917 12.7105 89.2144C17.2261 94.3955 23.8677 97.169 31.9336 97.2481C31.9556 97.2491 31.9776 97.25 32 97.25H32.2891C32.3062 97.25 32.3233 97.25 32.3404 97.249C45.1763 97.1709 53.2998 92.6592 57.8667 88.8691C58.6297 88.2339 59.3602 87.5608 60.0556 86.8522C60.7627 87.5807 61.5074 88.2716 62.2866 88.9223C66.852 92.7212 75.0205 97.25 88.0063 97.25C88.3378 97.25 88.6558 97.1183 88.8902 96.8839C89.1246 96.6495 89.2563 96.3315 89.2563 96C89.2563 95.6685 89.1246 95.3505 88.8902 95.1161C88.6558 94.8817 88.3378 94.75 88.0063 94.75C75.7675 94.75 68.1342 90.5356 63.8857 87.0005C63.1311 86.3717 62.4117 85.7017 61.7309 84.9937C64.7315 81.3474 66.4863 77.2849 66.4863 73.6768C66.5307 72.1333 66.1028 70.6131 65.2599 69.3194L81.5804 41.2117L83.794 49.3291C83.8662 49.5935 84.0232 49.8268 84.241 49.9932C84.4587 50.1597 84.725 50.2501 84.999 50.2505C85.1105 50.2503 85.2215 50.2353 85.3291 50.2061C85.649 50.1188 85.9211 49.908 86.0855 49.6201C86.25 49.3322 86.2934 48.9908 86.2061 48.6709L83.2061 37.6709C83.1185 37.3513 82.9077 37.0794 82.6199 36.915C82.3321 36.7506 81.9908 36.707 81.671 36.7939L70.671 39.7939C70.3519 39.8819 70.0808 40.0928 69.917 40.3804C69.7532 40.668 69.7102 41.0089 69.7973 41.3282C69.8844 41.6475 70.0946 41.9192 70.3818 42.0837C70.6689 42.2483 71.0096 42.2923 71.3292 42.206L79.3888 40.0076L63.377 67.5837C62.453 67.0768 61.4228 66.7943 60.3695 66.7591C60.3427 66.7574 60.1808 66.7555 60.1808 66.7555C56.2711 66.814 53.75 69.5531 53.75 73.7744C53.75 77.3569 55.4618 81.3762 58.3917 84.9844C57.7198 85.6751 57.0117 86.3296 56.2705 86.9453C51.999 90.4902 44.3535 94.7129 32.1611 94.75C24.7368 94.7217 18.6645 92.2407 14.5952 87.5718C10.4604 82.8276 8.7319 76.2349 9.72849 69.0088C11.0283 59.6582 14.9108 50.8556 20.9393 43.5906C26.9678 36.3256 34.9034 30.8863 43.8538 27.8842C52.8043 24.8821 62.4147 24.4363 71.6047 26.5968C80.7947 28.7574 89.1997 33.4386 95.875 40.1143C100.602 44.8158 104.348 50.4085 106.898 56.5684C109.448 62.7282 110.75 69.3328 110.728 75.9995C110.728 76.1637 110.761 76.3262 110.823 76.4779C110.886 76.6296 110.978 76.7674 111.094 76.8836C111.21 76.9997 111.348 77.0918 111.5 77.1547C111.651 77.2176 111.814 77.2499 111.978 77.25C112.309 77.25 112.628 77.1183 112.862 76.884C113.097 76.6497 113.228 76.3319 113.228 76.0005C113.251 69.0052 111.884 62.0751 109.209 55.6116C106.534 49.1481 102.602 43.2798 97.6425 38.3467ZM56.25 73.7744C56.25 72.106 56.7697 69.3256 60.181 69.2564C63.4826 69.3587 63.9863 72.0549 63.9863 73.6768C63.9863 75.999 62.8923 79.5089 60.0676 83.0791C57.318 79.5527 56.25 76.0819 56.25 73.7744Z" fill="url(#paint6_linear_4_396)"/>
<defs>
<linearGradient id="paint0_linear_4_396" x1="60.0907" y1="22.75" x2="60.0907" y2="97.25" gradientUnits="userSpaceOnUse">
<stop stop-color="#FFBE4F"/>
<stop offset="1" stop-color="#93C437"/>
</linearGradient>
<linearGradient id="paint1_linear_4_396" x1="60.0907" y1="22.75" x2="60.0907" y2="97.25" gradientUnits="userSpaceOnUse">
<stop stop-color="#FFBE4F"/>
<stop offset="1" stop-color="#93C437"/>
</linearGradient>
<linearGradient id="paint2_linear_4_396" x1="60.0907" y1="22.75" x2="60.0907" y2="97.25" gradientUnits="userSpaceOnUse">
<stop stop-color="#FFBE4F"/>
<stop offset="1" stop-color="#93C437"/>
</linearGradient>
<linearGradient id="paint3_linear_4_396" x1="60.0907" y1="22.75" x2="60.0907" y2="97.25" gradientUnits="userSpaceOnUse">
<stop stop-color="#FFBE4F"/>
<stop offset="1" stop-color="#93C437"/>
</linearGradient>
<linearGradient id="paint4_linear_4_396" x1="60.0907" y1="22.75" x2="60.0907" y2="97.25" gradientUnits="userSpaceOnUse">
<stop stop-color="#FFBE4F"/>
<stop offset="1" stop-color="#93C437"/>
</linearGradient>
<linearGradient id="paint5_linear_4_396" x1="60.0907" y1="22.75" x2="60.0907" y2="97.25" gradientUnits="userSpaceOnUse">
<stop stop-color="#FFBE4F"/>
<stop offset="1" stop-color="#93C437"/>
</linearGradient>
<linearGradient id="paint6_linear_4_396" x1="60.0907" y1="22.75" x2="60.0907" y2="97.25" gradientUnits="userSpaceOnUse">
<stop stop-color="#FFBE4F"/>
<stop offset="1" stop-color="#93C437"/>
</linearGradient>
</defs>
</svg>
