<svg width="120" height="120" viewBox="0 0 120 120" fill="none" xmlns="http://www.w3.org/2000/svg">
<path d="M34.3945 59C34.3945 59.6903 34.9542 60.25 35.6445 60.25C36.3349 60.25 36.8945 59.6903 36.8945 59H34.3945ZM42.3945 59C42.3945 59.6903 42.9542 60.25 43.6445 60.25C44.3349 60.25 44.8945 59.6903 44.8945 59H42.3945ZM34.3945 68.2C34.3945 68.8903 34.9542 69.45 35.6445 69.45C36.3349 69.45 36.8945 68.8903 36.8945 68.2H34.3945ZM8.08551 98.0819C7.46804 98.3907 7.21776 99.1415 7.5265 99.759C7.83523 100.376 8.58608 100.627 9.20355 100.318L8.08551 98.0819ZM50.3945 59C50.3945 59.6903 50.9542 60.25 51.6445 60.25C52.3349 60.25 52.8945 59.6903 52.8945 59H50.3945ZM58.3945 59C58.3945 59.6903 58.9542 60.25 59.6445 60.25C60.3349 60.25 60.8945 59.6903 60.8945 59H58.3945ZM42.3945 56C42.3945 56.6903 42.9542 57.25 43.6445 57.25C44.3349 57.25 44.8945 56.6903 44.8945 56H42.3945ZM50.3945 56C50.3945 56.6903 50.9542 57.25 51.6445 57.25C52.3349 57.25 52.8945 56.6903 52.8945 56H50.3945ZM60.2035 97.0819C59.5861 96.7732 58.8352 97.0235 58.5265 97.6409C58.2178 98.2584 58.468 99.0092 59.0855 99.318L60.2035 97.0819ZM87.0855 113.318C87.703 113.627 88.4538 113.376 88.7626 112.759C89.0713 112.141 88.821 111.391 88.2035 111.082L87.0855 113.318ZM33.0855 111.082C32.468 111.391 32.2178 112.141 32.5265 112.759C32.8352 113.376 33.5861 113.627 34.2035 113.318L33.0855 111.082ZM80.0445 83.5L79.4691 84.6096C79.4746 84.6125 79.48 84.6152 79.4855 84.618L80.0445 83.5ZM111.086 100.418C111.703 100.727 112.454 100.476 112.763 99.859C113.071 99.2415 112.821 98.4907 112.204 98.1819L111.086 100.418ZM67.7606 19.3161C67.2725 19.8042 67.2725 20.5957 67.7606 21.0838C68.2488 21.572 69.0403 21.572 69.5284 21.0838L67.7606 19.3161ZM77.5284 13.0838C78.0166 12.5957 78.0166 11.8042 77.5284 11.3161C77.0403 10.8279 76.2488 10.8279 75.7607 11.3161L77.5284 13.0838ZM51.7606 21.0838C52.2488 21.572 53.0403 21.572 53.5284 21.0838C54.0166 20.5957 54.0166 19.8042 53.5284 19.3161L51.7606 21.0838ZM45.5284 11.3161C45.0403 10.8279 44.2488 10.8279 43.7606 11.3161C43.2725 11.8042 43.2725 12.5957 43.7606 13.0838L45.5284 11.3161ZM59.3945 19.2C59.3945 19.8903 59.9542 20.45 60.6445 20.45C61.3349 20.45 61.8945 19.8903 61.8945 19.2H59.3945ZM61.8945 8.19995C61.8945 7.5096 61.3349 6.94995 60.6445 6.94995C59.9542 6.94995 59.3945 7.5096 59.3945 8.19995H61.8945ZM36.8945 59V34.2H34.3945V59H36.8945ZM36.8945 34.2C36.8945 32.6903 38.1349 31.45 39.6445 31.45V28.95C36.7542 28.95 34.3945 31.3096 34.3945 34.2H36.8945ZM39.6445 31.45C41.1542 31.45 42.3945 32.6903 42.3945 34.2H44.8945C44.8945 31.3096 42.5349 28.95 39.6445 28.95V31.45ZM42.3945 34.2V59H44.8945V34.2H42.3945ZM36.8945 68.2V56.4H34.3945V68.2H36.8945ZM36.8945 56.4C36.8945 52.4096 33.6349 49.15 29.6445 49.15V51.65C32.2542 51.65 34.3945 53.7903 34.3945 56.4H36.8945ZM29.6445 49.15C27.8542 49.15 26.3945 50.6096 26.3945 52.4H28.8945C28.8945 51.9903 29.2349 51.65 29.6445 51.65V49.15ZM26.3945 52.4V73.2H28.8945V52.4H26.3945ZM26.3945 73.2C26.3945 78.4188 27.7018 82.127 29.0518 84.557C29.7247 85.7682 30.4036 86.6537 30.926 87.2457C31.1872 87.5417 31.4093 87.7645 31.5722 87.918C31.6536 87.9948 31.7203 88.0544 31.7697 88.0972C31.7944 88.1186 31.8148 88.1358 31.8306 88.149C31.8384 88.1555 31.8452 88.161 31.8507 88.1656C31.8535 88.1678 31.8559 88.1698 31.8581 88.1716C31.8592 88.1724 31.8602 88.1732 31.8611 88.174C31.8616 88.1744 31.8622 88.1749 31.8624 88.1751C31.8631 88.1756 31.8637 88.176 32.6445 87.2C33.4254 86.2239 33.426 86.2243 33.4265 86.2248C33.4267 86.2249 33.4272 86.2253 33.4275 86.2255C33.4281 86.2261 33.4287 86.2265 33.4291 86.2269C33.4301 86.2276 33.4308 86.2282 33.4311 86.2285C33.4318 86.2291 33.4314 86.2287 33.4298 86.2274C33.4266 86.2248 33.419 86.2183 33.407 86.208C33.3832 86.1873 33.3425 86.1512 33.2872 86.0991C33.1767 85.9948 33.0082 85.8269 32.8006 85.5917C32.3855 85.1212 31.8144 84.3817 31.2372 83.3429C30.0872 81.2729 28.8945 77.9811 28.8945 73.2H26.3945ZM32.0855 86.0819L8.08551 98.0819L9.20355 100.318L33.2035 88.318L32.0855 86.0819ZM52.8945 59V34.2H50.3945V59H52.8945ZM52.8945 34.2C52.8945 32.6903 54.1349 31.45 55.6445 31.45V28.95C52.7542 28.95 50.3945 31.3096 50.3945 34.2H52.8945ZM55.6445 31.45C57.1542 31.45 58.3945 32.6903 58.3945 34.2H60.8945C60.8945 31.3096 58.5349 28.95 55.6445 28.95V31.45ZM58.3945 34.2V59H60.8945V34.2H58.3945ZM44.8945 56V31.2H42.3945V56H44.8945ZM44.8945 31.2C44.8945 29.6903 46.1349 28.45 47.6445 28.45V25.95C44.7542 25.95 42.3945 28.3096 42.3945 31.2H44.8945ZM47.6445 28.45C49.1542 28.45 50.3945 29.6903 50.3945 31.2H52.8945C52.8945 28.3096 50.5349 25.95 47.6445 25.95V28.45ZM50.3945 31.2V56H52.8945V31.2H50.3945ZM33.2035 88.318C37.5779 86.1308 40.3251 86.0423 41.7975 86.5528C43.1754 87.0307 43.5546 88.0469 43.413 88.8608C43.2695 89.6859 42.5442 90.557 41.0536 90.5909C39.4843 90.6266 36.9212 89.7088 33.5284 86.3161L31.7606 88.0838C35.3679 91.6911 38.5547 93.1483 41.1104 93.0903C43.7449 93.0304 45.5195 91.339 45.876 89.2891C46.2345 87.228 45.1136 85.0567 42.6166 84.1908C40.2139 83.3577 36.7111 83.7691 32.0855 86.0819L33.2035 88.318ZM59.0855 99.318L87.0855 113.318L88.2035 111.082L60.2035 97.0819L59.0855 99.318ZM34.2035 113.318L52.2035 104.318L51.0855 102.082L33.0855 111.082L34.2035 113.318ZM52.2035 104.318C62.6159 99.1118 68.8945 89.6857 68.8945 77.0999H66.3945C66.3945 88.7142 60.6731 97.2881 51.0855 102.082L52.2035 104.318ZM68.8945 38.2C68.8945 36.6903 70.1349 35.45 71.6445 35.45V32.95C68.7542 32.95 66.3945 35.3096 66.3945 38.2H68.8945ZM71.6445 35.45C73.1542 35.45 74.3945 36.6903 74.3945 38.2H76.8945C76.8945 35.3096 74.5349 32.95 71.6445 32.95V35.45ZM74.3945 76.3C74.3945 79.7698 76.3573 82.9961 79.4691 84.6096L80.6199 82.3903C78.3317 81.2038 76.8945 78.8302 76.8945 76.3H74.3945ZM79.4855 84.618L111.086 100.418L112.204 98.1819L80.6035 82.3819L79.4855 84.618ZM69.5284 21.0838L77.5284 13.0838L75.7607 11.3161L67.7606 19.3161L69.5284 21.0838ZM53.5284 19.3161L45.5284 11.3161L43.7606 13.0838L51.7606 21.0838L53.5284 19.3161ZM61.8945 19.2V8.19995H59.3945V19.2H61.8945ZM68.8945 77.0999V38.2H66.3945V77.0999H68.8945ZM74.3945 38.2V76.3H76.8945V38.2H74.3945Z" fill="url(#paint0_linear_4_1799)"/>
<defs>
<linearGradient id="paint0_linear_4_1799" x1="60.1445" y1="8.19995" x2="60.1445" y2="112.2" gradientUnits="userSpaceOnUse">
<stop stop-color="#FFBE4F"/>
<stop offset="1" stop-color="#93C437"/>
</linearGradient>
</defs>
</svg>
