<svg width="120" height="120" viewBox="0 0 120 120" fill="none" xmlns="http://www.w3.org/2000/svg">
<path d="M93.4087 53.361V64.9924M111.502 66.0498L99.5181 43.492C96.8159 38.5574 89.7666 38.5574 87.1818 43.492L70.8509 73.4516C68.2661 78.1511 71.6733 83.9081 77.0778 83.9081H95.4646M95.4646 83.9081H111.032C113.617 83.9081 115.732 81.7933 115.732 79.2086C115.732 76.6238 113.617 74.509 111.032 74.509C102.02 74.509 97.6162 79.2627 95.4646 83.9081ZM95.4646 83.9081C93.4087 88.3467 93.4087 92.6865 93.4087 92.6865V92.8C93.4087 97.2183 89.827 100.8 85.4087 100.8H12.8001C8.38177 100.8 4.80005 97.2183 4.80005 92.8V33.8C4.80005 29.3818 8.38177 25.8 12.8 25.8H91.2M40.8001 63.4001V72.5809C40.8001 73.9442 42.2567 74.8127 43.456 74.1644L60.1417 65.1451C61.3857 64.4727 61.4041 62.6942 60.1743 61.9962L43.4886 52.5259C42.2886 51.8449 40.8001 52.7116 40.8001 54.0914V56.8" stroke="url(#paint0_linear_404_35)" stroke-width="2.5" stroke-linecap="round" stroke-linejoin="round"/>
<path d="M93.5 71C94.3284 71 95 70.3284 95 69.5C95 68.6716 94.3284 68 93.5 68C92.6716 68 92 68.6716 92 69.5C92 70.3284 92.6716 71 93.5 71Z" fill="#5978E3"/>
<defs>
<linearGradient id="paint0_linear_404_35" x1="60.2658" y1="25.8" x2="60.2658" y2="100.8" gradientUnits="userSpaceOnUse">
<stop stop-color="#279BE8"/>
<stop offset="1" stop-color="#875AE0"/>
</linearGradient>
</defs>
</svg>
