<svg width="120" height="120" viewBox="0 0 120 120" fill="none" xmlns="http://www.w3.org/2000/svg">
<path d="M76.1169 71.8739H75.0471C72.7293 71.8739 70.7682 73.8362 70.7682 76.3593V102.515M99.0293 71.56V62.28C99.0293 57.1567 95.1298 53 90.3235 53C85.5171 53 81.6176 57.1567 81.6176 62.28V71.56H99.0293ZM99.0293 71.56H106.647C109.096 71.56 111 73.59 111 76.2V106.36C111 108.97 109.096 111 106.647 111H105.559C100.629 111 94.4148 107.539 90.3234 102.994M90.3234 102.994C87.7157 100.097 85.9705 96.7609 85.9705 93.6C85.9705 90.99 87.8749 88.96 90.3235 88.96C92.772 88.96 94.6764 90.99 94.6764 93.6C94.6764 96.7609 92.9312 100.097 90.3234 102.994ZM90.3234 102.994C86.2321 107.539 80.0174 111 75.0881 111H17.9999C13.7947 111 12.6991 107.692 13.2598 105.932C13.8205 104.173 19.2871 87.5703 19.2871 87.5703C21.5298 80.702 27.9776 76.0763 35.2664 76.0763H39.892C42.9757 76.0763 45.4988 73.5533 45.4988 70.4696V42.716C45.4988 40.4733 43.8168 38.3707 41.574 38.2305C39.1912 38.0904 37.0886 40.0527 37.0886 42.4356C37.0886 48.0424 44.0971 64.8628 60.9174 64.8628C67.9259 64.8628 73.5327 59.256 73.5327 52.2475V29.8204M73.6729 29.8204C73.6729 20.5692 66.1037 13 56.8525 13C48.7227 13 41.8544 18.8871 40.3125 26.5965C40.0322 28.2785 41.2937 29.8204 43.1159 29.8204H84.8864M63.861 36.8288C63.861 36.8288 65.2627 41.0339 66.6644 45.239C68.0661 49.4441 65.2627 49.4441 63.861 49.4441H62.4593" stroke="url(#paint0_linear_404_52)" stroke-width="2.5" stroke-linecap="round" stroke-linejoin="round"/>
<defs>
<linearGradient id="paint0_linear_404_52" x1="62.0619" y1="13" x2="62.0619" y2="111" gradientUnits="userSpaceOnUse">
<stop stop-color="#FFBE4F"/>
<stop offset="1" stop-color="#F26B1D"/>
</linearGradient>
</defs>
</svg>
