<svg width="120" height="120" viewBox="0 0 120 120" fill="none" xmlns="http://www.w3.org/2000/svg">
<path d="M76.1171 71.8739H75.0473C72.7296 71.8739 70.7685 73.8362 70.7685 76.3593V102.515M99.0296 71.56V62.28C99.0296 57.1567 95.1301 53 90.3237 53C85.5173 53 81.6178 57.1567 81.6178 62.28V71.56H99.0296ZM99.0296 71.56H106.647C109.096 71.56 111 73.59 111 76.2V106.36C111 108.97 109.096 111 106.647 111H105.559C100.63 111 94.4151 107.539 90.3237 102.994M90.3237 102.994C87.7159 100.097 85.9707 96.7609 85.9707 93.6C85.9707 90.99 87.8752 88.96 90.3237 88.96C92.7722 88.96 94.6766 90.99 94.6766 93.6C94.6766 96.7609 92.9315 100.097 90.3237 102.994ZM90.3237 102.994C86.2323 107.539 80.0177 111 75.0884 111H18.0002C13.795 111 12.6993 107.692 13.26 105.932C13.8207 104.173 19.2873 87.5703 19.2873 87.5703C21.53 80.702 27.9778 76.0763 35.2666 76.0763H39.8922C42.976 76.0763 45.499 73.5533 45.499 70.4696V42.716C45.499 40.4733 43.817 38.3707 41.5743 38.2305C39.1914 38.0904 37.0889 40.0527 37.0889 42.4356C37.0889 48.0424 44.0973 64.8628 60.9177 64.8628C67.9262 64.8628 73.533 59.256 73.533 52.2475V29.8204M73.6731 29.8204C73.6731 20.5692 66.104 13 56.8528 13C48.7229 13 41.8546 18.8871 40.3128 26.5965C40.0324 28.2785 41.2939 29.8204 43.1162 29.8204H84.8867M63.8613 36.8288C63.8613 36.8288 65.263 41.0339 66.6647 45.239C68.0664 49.4441 65.263 49.4441 63.8613 49.4441H62.4596" stroke="url(#paint0_linear_3240_1187)" stroke-width="2.5" stroke-linecap="round" stroke-linejoin="round"/>
<defs>
<linearGradient id="paint0_linear_3240_1187" x1="62.0621" y1="13" x2="62.0621" y2="111" gradientUnits="userSpaceOnUse">
<stop stop-color="#3CC29A"/>
<stop offset="1" stop-color="#93C437"/>
</linearGradient>
</defs>
</svg>
