<svg xmlns="http://www.w3.org/2000/svg" width="120" height="120" fill="none" viewBox="0 0 120 120"><path stroke="#0F0F0F" stroke-linecap="round" stroke-linejoin="round" stroke-miterlimit="10" stroke-width="2.5" d="M48.902 84.88H28.406c-10.797 0-20.094-8.528-20.394-19.494-.4-11.575 8.697-21.018 19.994-21.018 1.7 0 3.3.203 4.899.61C36.205 30.66 48.902 20 63.997 20 81.693 20 95.99 34.52 95.99 52.491c9.097 0 16.395 7.717 15.995 17.058-.4 8.732-7.798 15.433-16.395 15.433l-25.493-.101c-1.1 0-2-.914-2-2.03V58.582c0-3.35-2.699-6.092-5.998-6.092S56.1 55.233 56.1 58.583v46.706M43.903 93.816 55.9 106l11.996-12.184M95.89 52.39c-11.997 0-15.996 8.122-11.997 12.184s11.997 0 11.997-12.184"/></svg>