<svg xmlns="http://www.w3.org/2000/svg" width="320" height="320" fill="none" viewBox="0 0 320 320"><path fill="#FFBF50" d="M160.755 72.235a2.274 2.274 0 0 0 2.267-2.267 2.266 2.266 0 1 0-2.267 2.267"/><path stroke="url(#a)" stroke-linecap="round" stroke-linejoin="round" stroke-width="2.5" d="M262.047 77.733H61.482m219.143 51.734h8.15a4.99 4.99 0 0 1 4.987 4.988v65.279a4.987 4.987 0 0 1-4.987 4.987H182.87a4.987 4.987 0 0 1-4.987-4.987v-65.279a4.99 4.99 0 0 1 4.987-4.988h87.145v-59.26A8.204 8.204 0 0 0 261.808 62H61.595a8.205 8.205 0 0 0-8.207 8.207v116.9c0 3.457 2.8 6.257 6.257 6.257h118.238m30.616 11.346h56.302v43.629a8.916 8.916 0 0 1-8.921 8.921h-38.46a8.916 8.916 0 0 1-8.921-8.921v-35.751m-159.86-19.213H35.513A8.51 8.51 0 0 0 27 201.888v13.5a8.51 8.51 0 0 0 8.513 8.513h172.986m0-.046v7.13H52.765m85.898-22.353a7.685 7.685 0 1 1-15.37 0 7.685 7.685 0 0 1 15.37 0"/><defs><linearGradient id="a" x1="160.381" x2="160.381" y1="62" y2="257.26" gradientUnits="userSpaceOnUse"><stop stop-color="#FFBE4F"/><stop offset="1" stop-color="#EC6400"/></linearGradient></defs></svg>