<svg xmlns="http://www.w3.org/2000/svg" width="156" height="134" fill="none" viewBox="0 0 156 134"><linearGradient id="a" x1="78" x2="78" y1="2" y2="132" gradientUnits="userSpaceOnUse"><stop offset="0" stop-color="#f55868"/><stop offset="1" stop-color="#875ae0"/></linearGradient><path stroke="url(#a)" stroke-linecap="round" stroke-linejoin="round" stroke-width="2.5" d="M37.286 67H26.429a2.72 2.72 0 0 1-2.715-2.708V12.833C23.714 6.875 28.6 2 34.571 2h92.286c5.972 0 10.857 4.875 10.857 10.833v33.855M37.286 67c0 2.991 2.43 5.417 5.428 5.417s5.429-2.425 5.429-5.417m-10.857 0c0-2.991 2.43-5.417 5.428-5.417S48.143 64.01 48.143 67m-33.929 0H7.43C4.443 67 2 69.438 2 72.417v56.875A2.72 2.72 0 0 0 4.714 132h6.515c1.085 0 2.035-.542 2.442-1.49l3.258-6.635H68.5l3.257 6.635c.407.948 1.357 1.49 2.443 1.49h6.514a2.72 2.72 0 0 0 2.715-2.708V72.417C83.429 69.437 80.986 67 78 67H48.143m73.286 20.312v17.605c0 2.979 2.442 5.416 5.428 5.416h21.714c2.986 0 5.429-2.437 5.429-5.416V61.583c0-2.979-2.443-5.416-5.429-5.416h-21.714c-2.986 0-5.428 2.437-5.428 5.416v13.542a2.72 2.72 0 0 1-2.715 2.708H97a2.72 2.72 0 0 0-2.714 2.709v16.25A2.72 2.72 0 0 0 97 99.5h13.571M2.136 115.75h81.293"/></svg>