<svg xmlns="http://www.w3.org/2000/svg" width="120" height="120" fill="none" viewBox="0 0 120 120"><path fill="url(#a)" d="M93.75 28.125H63.584a5.607 5.607 0 0 1-4.28-1.974l-2.806-3.303a16.845 16.845 0 0 0-12.88-5.973H26.25A16.894 16.894 0 0 0 9.375 33.75v52.5a16.894 16.894 0 0 0 16.875 16.875h67.5a16.893 16.893 0 0 0 16.875-16.875V45A16.892 16.892 0 0 0 93.75 28.125Zm-67.5-7.5h17.367a13.087 13.087 0 0 1 10.019 4.646l2.814 3.31a9.357 9.357 0 0 0 7.134 3.294H93.75A13.14 13.14 0 0 1 106.875 45v5.625h-93.75V33.75A13.14 13.14 0 0 1 26.25 20.625Zm67.5 78.75h-67.5A13.14 13.14 0 0 1 13.125 86.25V54.375h93.75V86.25A13.138 13.138 0 0 1 93.75 99.375Z"/><defs><linearGradient id="a" x1="60" x2="60" y1="16.875" y2="103.125" gradientUnits="userSpaceOnUse"><stop stop-color="#93C437"/><stop offset="1" stop-color="#279BE8"/></linearGradient></defs></svg>