<svg xmlns="http://www.w3.org/2000/svg" width="120" height="120" fill="none" viewBox="0 0 120 120"><path fill="#0F0F0F" d="M52.849 56.2a2 2 0 1 0 0-4 2 2 0 0 0 0 4"/><path stroke="#0F0F0F" stroke-linecap="round" stroke-linejoin="round" stroke-miterlimit="10" stroke-width="2.5" d="M64.522 51.5s2.75 8.5 3.75 11.25c1.25 3.75-1.25 5-3.75 5h-2.5m-30 32.5V61.5c0-3-2.5-5.25-5.625-5-2.75.25-4.625 2.875-4.375 5.625.75 10.375 17 28.375 36.625 28.125 10.25-.125 18.375-8.5 18.375-18.75V44c0-13.75-11.25-25-25-25-12.875 0-23.5 9.875-24.875 22.375-.125 1.5 1 2.75 2.5 2.75h67.375"/></svg>