<svg xmlns="http://www.w3.org/2000/svg" width="192" height="192" fill="none" viewBox="0 0 192 192"><path fill="#0F0F0F" d="M97.758 84.32a2 2 0 1 0 0-4 2 2 0 0 0 0 4"/><path stroke="#0F0F0F" stroke-linecap="round" stroke-linejoin="round" stroke-miterlimit="10" stroke-width="2.5" d="M119.008 80.225s4.4 13.6 6 18c2 6-2 8-6 8h-8c-6.6 0-12 5.4-12 12 0 2.2-1.8 4-4 4-6.6 0-12-5.4-12-12v-20c0-8.8-7.2-16-16-16h-4c-2.2 0-4-1.8-4-4 0-22.4 18.8-40.6 41.6-39.8 21.6.8 38.6 19.2 38.6 41v45c0 16.4-13 29.8-29.4 30-31.8.2-57.8-29-58.6-45.2-.2-4.2 3-8.4 7.2-8.8 4.8-.4 8.8 3.2 8.8 8v62"/></svg>