<svg xmlns="http://www.w3.org/2000/svg" width="320" height="320" fill="none" viewBox="0 0 320 320"><linearGradient id="a" x1="159.186" x2="159.186" y1="35.267" y2="285.6" gradientUnits="userSpaceOnUse"><stop offset="0" stop-color="#f55868"/><stop offset="1" stop-color="#875ae0"/></linearGradient><path stroke="url(#a)" stroke-linecap="round" stroke-linejoin="round" stroke-miterlimit="10" stroke-width="2.5" d="M132.386 80.267c0-16.534 10.4-30.667 18.133-40.8a10.5 10.5 0 0 1 16.8 0c7.734 10.133 18.134 24.266 18.134 40.8m-79.734 48v-13.334c0-10.133 5.334-18.133 9.334-22.666a5.344 5.344 0 0 1 8 0c4 4.533 9.333 12.533 9.333 22.666v1.867c0 5.6-2.133 11.2-6.133 15.2l-33.067 32.8c-9.067 9.067-14.133 21.333-14.133 33.867v6.666c0 2.934 2.4 5.334 5.333 5.334h42.667c2.933 0 5.333-2.4 5.333-5.334v-56m80-21.066v-13.334c0-10.133-5.333-18.133-9.333-22.666a5.344 5.344 0 0 0-8 0c-4 4.533-9.334 12.533-9.334 22.666v1.867c0 5.6 2.134 11.2 6.134 15.2l33.333 32.8c9.067 9.067 14.133 21.333 14.133 33.867v6.666c0 2.934-2.4 5.334-5.333 5.334h-42.667c-2.933 0-5.333-2.4-5.333-5.334v-56M95.053 285.6c0-11.733 9.6-21.333 21.333-21.333 0-11.734 9.6-21.334 21.333-21.334 0-11.733 9.6-21.333 21.334-21.333 11.733 0 21.333 9.6 21.333 21.333 11.733 0 21.333 9.6 21.333 21.334 11.734 0 21.334 9.6 21.334 21.333M169.719 98.933c0 5.891-4.775 10.667-10.666 10.667s-10.667-4.776-10.667-10.667c0-5.89 4.776-10.666 10.667-10.666s10.666 4.775 10.666 10.666z"/></svg>