<svg xmlns="http://www.w3.org/2000/svg" width="90" height="138" fill="none" viewBox="0 0 90 138"><linearGradient id="a" x1="45" x2="45" y1="2" y2="136" gradientUnits="userSpaceOnUse"><stop offset="0" stop-color="#f55868"/><stop offset="1" stop-color="#875ae0"/></linearGradient><path stroke="url(#a)" stroke-linecap="round" stroke-linejoin="round" stroke-miterlimit="10" stroke-width="2.5" d="M30.619 26.088c0-8.85 5.58-16.416 9.73-21.84a5.643 5.643 0 0 1 9.015 0c4.15 5.424 9.73 12.99 9.73 21.84M16.31 51.782v-7.137c0-5.425 2.861-9.707 5.008-12.134a2.873 2.873 0 0 1 4.293 0c2.146 2.427 5.008 6.71 5.008 12.133v1c0 2.997-1.145 5.995-3.291 8.136L9.584 71.337C4.719 76.191 2 82.757 2 89.466v3.568a2.867 2.867 0 0 0 2.862 2.855h22.895a2.867 2.867 0 0 0 2.862-2.855V63.058m42.928-11.276v-7.137c0-5.425-2.861-9.707-5.008-12.134a2.872 2.872 0 0 0-4.293 0c-2.146 2.427-5.008 6.71-5.008 12.134v.999c0 2.997 1.145 5.995 3.291 8.136l17.887 17.557C85.281 76.191 88 82.757 88 89.466v3.568a2.867 2.867 0 0 1-2.862 2.855H62.243a2.867 2.867 0 0 1-2.862-2.855V63.058M10.586 136c0-6.281 5.151-11.419 11.447-11.419 0-6.281 5.152-11.42 11.448-11.42 0-6.281 5.151-11.419 11.447-11.419 6.297 0 11.448 5.138 11.448 11.419 6.296 0 11.448 5.139 11.448 11.42 6.296 0 11.447 5.138 11.447 11.419M50.652 36.08c0 3.153-2.562 5.71-5.724 5.71-3.16 0-5.723-2.557-5.723-5.71s2.562-5.71 5.723-5.71c3.162 0 5.724 2.556 5.724 5.71z"/></svg>