<svg xmlns="http://www.w3.org/2000/svg" width="320" height="320" fill="none" viewBox="0 0 320 320"><path fill="url(#a)" d="M108 108.75A11.25 11.25 0 1 0 119.25 120 11.26 11.26 0 0 0 108 108.75Zm0 20a8.744 8.744 0 0 1-8.084-5.402 8.748 8.748 0 0 1 6.377-11.93 8.755 8.755 0 0 1 8.982 3.721 8.744 8.744 0 0 1-1.091 11.045A8.753 8.753 0 0 1 108 128.75Z"/><path fill="url(#b)" d="M108 164.75A11.25 11.25 0 1 0 119.25 176 11.26 11.26 0 0 0 108 164.75Zm0 20a8.744 8.744 0 0 1-8.084-5.402 8.748 8.748 0 0 1 6.377-11.93 8.755 8.755 0 0 1 8.982 3.721 8.744 8.744 0 0 1-1.091 11.045A8.753 8.753 0 0 1 108 184.75Z"/><path fill="url(#c)" d="M232 110.75h-96a1.252 1.252 0 0 0-1.25 1.25 1.252 1.252 0 0 0 1.25 1.25h96a1.252 1.252 0 0 0 1.25-1.25 1.252 1.252 0 0 0-1.25-1.25Z"/><path fill="url(#d)" d="M136 129.25h48a1.252 1.252 0 0 0 1.25-1.25 1.252 1.252 0 0 0-1.25-1.25h-48a1.252 1.252 0 0 0-1.25 1.25 1.252 1.252 0 0 0 1.25 1.25Z"/><path fill="url(#e)" d="M232 166.75h-96a1.252 1.252 0 0 0-1.25 1.25 1.252 1.252 0 0 0 1.25 1.25h96a1.252 1.252 0 0 0 1.25-1.25 1.252 1.252 0 0 0-1.25-1.25Z"/><path fill="url(#f)" d="M233.25 232v-40a9.263 9.263 0 0 0-9.25-9.25h-80a9.263 9.263 0 0 0-9.25 9.25v40a9.263 9.263 0 0 0 9.25 9.25h80a9.263 9.263 0 0 0 9.25-9.25Zm-96 0v-40a6.76 6.76 0 0 1 6.75-6.75h80a6.76 6.76 0 0 1 6.75 6.75v40a6.76 6.76 0 0 1-6.75 6.75h-80a6.76 6.76 0 0 1-6.75-6.75Z"/><path fill="url(#g)" d="M144 250.596a5.124 5.124 0 0 0-4-1.846 5.253 5.253 0 0 0-3.71 1.54 5.253 5.253 0 0 0-1.54 3.71c0 4.643 5.361 8.909 8.557 11.04a1.247 1.247 0 0 0 1.386 0c3.196-2.131 8.557-6.397 8.557-11.04a5.253 5.253 0 0 0-1.54-3.71 5.253 5.253 0 0 0-3.71-1.54 5.129 5.129 0 0 0-4 1.846Zm6.75 3.404c0 2.376-2.508 5.516-6.75 8.486-4.242-2.97-6.75-6.11-6.75-8.486a2.758 2.758 0 0 1 .806-1.944 2.758 2.758 0 0 1 1.944-.806 3.195 3.195 0 0 1 2.814 2.146 1.255 1.255 0 0 0 1.178.849h.01a1.252 1.252 0 0 0 1.181-.842 3.189 3.189 0 0 1 1.083-1.502 3.19 3.19 0 0 1 1.734-.651 2.758 2.758 0 0 1 1.944.806c.515.516.805 1.215.806 1.944Z"/><path fill="url(#h)" d="M172.884 59.116a1.25 1.25 0 0 0-1.768 1.768l12 12a1.254 1.254 0 0 0 1.768 0l12-12a1.25 1.25 0 0 0-1.768-1.768l-9.866 9.866V40a6.759 6.759 0 0 1 6.75-6.75h16a6.76 6.76 0 0 1 6.75 6.75v33a1.252 1.252 0 0 0 2.134.884c.234-.234.366-.552.366-.884V40a9.262 9.262 0 0 0-9.25-9.25h-16a9.261 9.261 0 0 0-9.25 9.25v28.982l-9.866-9.866Z"/><path fill="url(#i)" d="M146.25 88a1.247 1.247 0 0 0-1.25-1.25H92A13.265 13.265 0 0 0 78.75 100v156a1.25 1.25 0 0 0 2.5 0V100A10.762 10.762 0 0 1 92 89.25h53a1.247 1.247 0 0 0 1.155-.772c.063-.151.095-.314.095-.478Z"/><path fill="url(#j)" d="M160 97.25h48a9.261 9.261 0 0 0 9.25-9.25v-4a2.756 2.756 0 0 1 2.75-2.75h72a2.752 2.752 0 0 1 2.75 2.75 2.753 2.753 0 0 1-2.75 2.75h-69a1.25 1.25 0 0 0 0 2.5h69a5.249 5.249 0 1 0 0-10.5h-72a5.255 5.255 0 0 0-5.25 5.25v4a6.759 6.759 0 0 1-6.75 6.75h-48a6.76 6.76 0 0 1-6.75-6.75V40a6.759 6.759 0 0 1 6.75-6.75h17a1.25 1.25 0 0 0 0-2.5h-17a9.261 9.261 0 0 0-9.25 9.25v48a9.262 9.262 0 0 0 9.25 9.25Z"/><path fill="url(#k)" d="M296 93.75a1.247 1.247 0 0 0-1.155.772 1.247 1.247 0 0 0-.095.478v167A16.771 16.771 0 0 1 278 278.75H42A16.77 16.77 0 0 1 25.25 262V98A16.768 16.768 0 0 1 42 81.25h103a1.25 1.25 0 0 0 0-2.5H42A19.271 19.271 0 0 0 22.75 98v164A19.269 19.269 0 0 0 42 281.25h236A19.27 19.27 0 0 0 297.25 262V95a1.247 1.247 0 0 0-1.25-1.25Z"/><defs><linearGradient id="a" x1="160" x2="160" y1="30.75" y2="281.25" gradientUnits="userSpaceOnUse"><stop stop-color="#279BE8"/><stop offset="1" stop-color="#875AE0"/></linearGradient><linearGradient id="b" x1="160" x2="160" y1="30.75" y2="281.25" gradientUnits="userSpaceOnUse"><stop stop-color="#279BE8"/><stop offset="1" stop-color="#875AE0"/></linearGradient><linearGradient id="c" x1="160" x2="160" y1="30.75" y2="281.25" gradientUnits="userSpaceOnUse"><stop stop-color="#279BE8"/><stop offset="1" stop-color="#875AE0"/></linearGradient><linearGradient id="d" x1="160" x2="160" y1="30.75" y2="281.25" gradientUnits="userSpaceOnUse"><stop stop-color="#279BE8"/><stop offset="1" stop-color="#875AE0"/></linearGradient><linearGradient id="e" x1="160" x2="160" y1="30.75" y2="281.25" gradientUnits="userSpaceOnUse"><stop stop-color="#279BE8"/><stop offset="1" stop-color="#875AE0"/></linearGradient><linearGradient id="f" x1="160" x2="160" y1="30.75" y2="281.25" gradientUnits="userSpaceOnUse"><stop stop-color="#279BE8"/><stop offset="1" stop-color="#875AE0"/></linearGradient><linearGradient id="g" x1="160" x2="160" y1="30.75" y2="281.25" gradientUnits="userSpaceOnUse"><stop stop-color="#279BE8"/><stop offset="1" stop-color="#875AE0"/></linearGradient><linearGradient id="h" x1="160" x2="160" y1="30.75" y2="281.25" gradientUnits="userSpaceOnUse"><stop stop-color="#279BE8"/><stop offset="1" stop-color="#875AE0"/></linearGradient><linearGradient id="i" x1="160" x2="160" y1="30.75" y2="281.25" gradientUnits="userSpaceOnUse"><stop stop-color="#279BE8"/><stop offset="1" stop-color="#875AE0"/></linearGradient><linearGradient id="j" x1="160" x2="160" y1="30.75" y2="281.25" gradientUnits="userSpaceOnUse"><stop stop-color="#279BE8"/><stop offset="1" stop-color="#875AE0"/></linearGradient><linearGradient id="k" x1="160" x2="160" y1="30.75" y2="281.25" gradientUnits="userSpaceOnUse"><stop stop-color="#279BE8"/><stop offset="1" stop-color="#875AE0"/></linearGradient></defs></svg>