<svg xmlns="http://www.w3.org/2000/svg" width="320" height="320" fill="none" viewBox="0 0 320 320"><g fill="#fff" clip-path="url(#a)"><path d="M50.973 166.75h-1a1.252 1.252 0 0 0-.884 2.134c.235.234.553.366.884.366h1a4.038 4.038 0 0 0 3.022-1.156c.834-.9.691-2.065.163-3.489l-2-6a1.25 1.25 0 1 0-2.373.784l.002.007 2 6c.312.934.295 1.021.156 1.191-.14.169-.582.163-.97.163ZM124.945 162.788h-1a1.246 1.246 0 0 0-1.25 1.25 1.25 1.25 0 0 0 1.25 1.25h1a4.06 4.06 0 0 0 3.022-1.156c.834-.9.691-2.065.163-3.49l-2-6a1.236 1.236 0 0 0-.24-.425 1.236 1.236 0 0 0-.855-.431 1.24 1.24 0 0 0-.909.3 1.252 1.252 0 0 0-.369 1.34l.002.007 2 6c.312.935.295 1.022.156 1.191-.139.17-.582.164-.97.164ZM50.973 138.75h-8a13.265 13.265 0 0 0-13.19 12.086 9.254 9.254 0 0 0-8.06 9.164v9a3.755 3.755 0 0 1-3.75 3.75 1.252 1.252 0 0 0-.884 2.134c.235.234.553.366.884.366a6.26 6.26 0 0 0 6.25-6.25v-9a6.76 6.76 0 0 1 6.75-6.75 1.246 1.246 0 0 0 1.155-.771c.063-.152.095-.315.095-.479a10.764 10.764 0 0 1 10.75-10.75h8c5.782 0 6.742 2.906 6.792 3.072a1.252 1.252 0 0 0 1.52.889 1.25 1.25 0 0 0 .9-1.514c-.05-.202-1.326-4.947-9.212-4.947ZM112.033 143.177c-1.678 1.917-3.127 3.573-6.06 3.573a1.252 1.252 0 0 0-1.25 1.25 1.25 1.25 0 0 0 1.25 1.25c4.067 0 6.125-2.351 7.94-4.427 1.678-1.917 3.127-3.573 6.06-3.573a1.252 1.252 0 0 0 1.25-1.25 1.254 1.254 0 0 0-1.25-1.25c-4.067 0-6.125 2.352-7.94 4.427ZM193.973 133.25a18.735 18.735 0 0 1 18.158 14.062 1.262 1.262 0 0 0 .575.766 1.241 1.241 0 0 0 .948.135 1.247 1.247 0 0 0 .766-.576 1.256 1.256 0 0 0 .133-.948 21.249 21.249 0 0 0-29.194-14.113 21.254 21.254 0 0 0-12.403 22.567 21.255 21.255 0 0 0 3.268 8.546 1.25 1.25 0 0 0 2.086-1.377 18.758 18.758 0 0 1-.842-19.206 18.754 18.754 0 0 1 16.505-9.856Z"/><path d="M312.126 157.219a39.324 39.324 0 0 0-36.372-36.373 38.921 38.921 0 0 0-29.557 10.456 39.387 39.387 0 0 0-11.208 18.859 39.257 39.257 0 0 0-76.003-.009 39.26 39.26 0 0 0-37.999-29.403 39.254 39.254 0 0 0-38.001 29.4 39.254 39.254 0 0 0-21.977-25.992 39.266 39.266 0 0 0-47.371 12.197 39.256 39.256 0 0 0 1.286 48.899 12.819 12.819 0 0 0 14.529 3.845 13.173 13.173 0 0 0 8.695-11.058 19.43 19.43 0 0 0 10.553 3.208 11.367 11.367 0 0 0 8.088-3.233 11.388 11.388 0 0 0 3.434-8.142V156a9.263 9.263 0 0 0-9.25-9.25c-4.067 0-6.125 2.352-7.94 4.427-1.678 1.917-3.127 3.573-6.06 3.573a1.252 1.252 0 0 0-.884 2.134c.235.234.553.366.884.366 4.067 0 6.125-2.351 7.94-4.427 1.678-1.917 3.127-3.573 6.06-3.573a6.756 6.756 0 0 1 6.75 6.75v13.873a8.815 8.815 0 0 1-2.64 6.316 8.665 8.665 0 0 1-6.35 2.559 17.63 17.63 0 0 1-10.511-3.827L38.223 163a4.254 4.254 0 0 0-4.983-4.187 4.433 4.433 0 0 0-3.517 4.293 18.184 18.184 0 0 0 5.187 12.221c.263.277.534.544.812.801v.481a10.594 10.594 0 0 1-7.126 10.14 10.398 10.398 0 0 1-11.759-3.105 36.751 36.751 0 1 1 28.136 13.106 1.252 1.252 0 0 0-.884 2.134c.235.234.553.366.884.366a39.319 39.319 0 0 0 38.007-29.433 39.115 39.115 0 0 0 7.434 14.818 12.253 12.253 0 0 0 13.62 3.879 12.256 12.256 0 0 0 8.188-11.554v-2.871a19.433 19.433 0 0 0 10.479 3.159 11.378 11.378 0 0 0 11.521-11.239l.001-.136V152a9.263 9.263 0 0 0-9.25-9.25c-4.067 0-6.125 2.352-7.94 4.427-1.678 1.917-3.127 3.573-6.06 3.573a1.252 1.252 0 0 0-1.25 1.25 1.25 1.25 0 0 0 1.25 1.25c4.067 0 6.125-2.351 7.94-4.427 1.678-1.917 3.127-3.573 6.06-3.573a6.76 6.76 0 0 1 6.75 6.75v13.873a8.83 8.83 0 0 1-.682 3.425 8.838 8.838 0 0 1-1.959 2.891 8.688 8.688 0 0 1-6.349 2.559 17.63 17.63 0 0 1-10.511-3.827l.001-11.921a4.25 4.25 0 0 0-4.983-4.187 4.43 4.43 0 0 0-3.517 4.293 18.18 18.18 0 0 0 5.187 12.221c.263.277.534.544.812.801v4.832a9.758 9.758 0 0 1-17.362 6.105 36.754 36.754 0 0 1 20.314-58.869 36.75 36.75 0 0 1 41.377 19.79 36.755 36.755 0 0 1-33.078 52.764 1.25 1.25 0 1 0 0 2.5 39.317 39.317 0 0 0 38.005-29.426 39.096 39.096 0 0 0 7.945 15.429 12.826 12.826 0 0 0 6.642 4.275c2.609.69 5.368.539 7.887-.43a13.174 13.174 0 0 0 8.696-11.058 19.431 19.431 0 0 0 10.554 3.208 11.367 11.367 0 0 0 8.086-3.232 11.388 11.388 0 0 0 3.433-8.004l.001-.139V156a9.263 9.263 0 0 0-9.25-9.25h-1.999a9.263 9.263 0 0 0-9.25 9.25 1.25 1.25 0 1 0 2.5 0 6.758 6.758 0 0 1 6.75-6.75h1.999a6.757 6.757 0 0 1 6.75 6.75v13.873a8.877 8.877 0 0 1-8.872 8.876l-.117-.001a17.63 17.63 0 0 1-10.511-3.827V163a4.25 4.25 0 0 0-4.983-4.187 4.432 4.432 0 0 0-3.516 4.293 18.18 18.18 0 0 0 5.187 12.221c.263.277.534.544.812.801v.481a10.594 10.594 0 0 1-7.127 10.14 10.4 10.4 0 0 1-11.758-3.105 36.752 36.752 0 1 1 61.091-39.909 36.747 36.747 0 0 1-9.949 44.923 36.752 36.752 0 0 1-23.006 8.092 1.252 1.252 0 0 0-1.25 1.25 1.25 1.25 0 0 0 1.25 1.25 39.317 39.317 0 0 0 38.005-29.428 39.26 39.26 0 0 0 7.46 14.841 12.257 12.257 0 0 0 19.535-.629 12.252 12.252 0 0 0 2.249-7.074v-2.87a19.446 19.446 0 0 0 10.479 3.158 11.416 11.416 0 0 0 10.647-6.985 11.31 11.31 0 0 0 .874-4.39l.001-14.623h7.75a1.252 1.252 0 0 0 1.25-1.25 1.254 1.254 0 0 0-1.25-1.25h-7.845c-.804-6.88-6.645-12.662-13.468-12.984a14.332 14.332 0 0 0-9.525 3.085 14.332 14.332 0 0 0-5.179 8.568 3.263 3.263 0 0 0 .708 2.665 3.251 3.251 0 0 0 2.497 1.166h22.562l-.001 14.623a8.812 8.812 0 0 1-2.641 6.316 8.62 8.62 0 0 1-6.349 2.559 17.627 17.627 0 0 1-10.51-3.827V159a4.25 4.25 0 0 0-4.983-4.187 4.432 4.432 0 0 0-3.516 4.293 18.192 18.192 0 0 0 5.185 12.221c.265.277.536.544.814.802v4.831a9.75 9.75 0 0 1-6.503 9.195 9.749 9.749 0 0 1-10.838-3.064 36.755 36.755 0 0 1 20.273-58.892 36.752 36.752 0 1 1 8.319 72.551 1.25 1.25 0 1 0 0 2.5 39.392 39.392 0 0 0 28.699-12.475 38.922 38.922 0 0 0 10.454-29.556Zm-279.903 5.869a1.98 1.98 0 0 1 1.434-1.81c.104-.019.21-.028.317-.028a1.747 1.747 0 0 1 1.749 1.75l-.001 9.493a14.694 14.694 0 0 1-3.499-9.405Zm74-4a1.978 1.978 0 0 1 1.434-1.81 1.77 1.77 0 0 1 .317-.028c.413-.002.813.145 1.127.412a1.74 1.74 0 0 1 .622 1.338l-.001 9.494a14.691 14.691 0 0 1-3.499-9.406Zm78 4a1.978 1.978 0 0 1 1.433-1.81 1.77 1.77 0 0 1 .317-.028c.413-.002.813.145 1.127.412a1.74 1.74 0 0 1 .622 1.338v9.493a14.688 14.688 0 0 1-3.499-9.405Zm76.938-14.338a.75.75 0 0 1-.584-.275.736.736 0 0 1-.162-.606 11.795 11.795 0 0 1 12.127-9.605c5.534.261 10.284 4.904 11.068 10.486h-22.449Zm-2.938 10.338a1.978 1.978 0 0 1 1.433-1.81 1.77 1.77 0 0 1 .317-.028c.413-.002.813.145 1.127.412a1.74 1.74 0 0 1 .622 1.338v9.493a14.688 14.688 0 0 1-3.499-9.405Z"/><path d="M202.96 166.75h-1a1.25 1.25 0 1 0 0 2.5h1a4.052 4.052 0 0 0 3.022-1.156c.834-.9.691-2.065.163-3.489l-2-6a1.253 1.253 0 0 0-1.095-.855 1.263 1.263 0 0 0-.908.3 1.264 1.264 0 0 0-.43.855c-.012.164.008.328.06.484l2.002 6.007c.312.934.295 1.021.156 1.191-.14.169-.582.163-.97.163ZM276.981 162.788h-1a1.25 1.25 0 1 0 0 2.5h1a4.057 4.057 0 0 0 3.023-1.156c.833-.9.691-2.065.163-3.49l-2-6a1.253 1.253 0 0 0-1.58-.797 1.252 1.252 0 0 0-.794 1.581l.003.007 2 6c.311.935.294 1.022.155 1.191-.139.17-.582.164-.97.164Z"/></g><defs><clipPath id="a"><path fill="#fff" d="M0 0h320v320H0z"/></clipPath></defs></svg>