<svg xmlns="http://www.w3.org/2000/svg" width="320" height="320" fill="none" viewBox="0 0 320 320"><path fill="url(#a)" d="M51 166.75h-1a1.252 1.252 0 0 0-1.25 1.25 1.249 1.249 0 0 0 1.25 1.25h1a4.039 4.039 0 0 0 3.023-1.156c.833-.9.69-2.065.163-3.489l-2-6a1.25 1.25 0 1 0-2.373.784l.002.007 2 6c.311.934.294 1.021.155 1.191-.139.169-.582.163-.97.163Z"/><path fill="url(#b)" d="M124.972 162.788h-1a1.25 1.25 0 1 0 0 2.5h1a4.057 4.057 0 0 0 3.023-1.156c.833-.9.691-2.065.163-3.49l-2-6a1.24 1.24 0 0 0-1.095-.856 1.246 1.246 0 0 0-1.339 1.156c-.012.164.008.328.06.484l.003.007 2 6c.311.935.294 1.022.155 1.191-.139.17-.582.164-.97.164Z"/><path fill="url(#c)" d="M51 138.75h-8a13.265 13.265 0 0 0-13.19 12.086A9.253 9.253 0 0 0 21.75 160v9a3.754 3.754 0 0 1-3.75 3.75 1.252 1.252 0 0 0-1.25 1.25 1.249 1.249 0 0 0 1.25 1.25 6.26 6.26 0 0 0 6.25-6.25v-9a6.76 6.76 0 0 1 6.75-6.75 1.247 1.247 0 0 0 1.25-1.25A10.764 10.764 0 0 1 43 141.25h8c5.783 0 6.742 2.906 6.792 3.072a1.252 1.252 0 0 0 2.283.318c.168-.284.218-.623.138-.943-.05-.202-1.327-4.947-9.213-4.947Z"/><path fill="url(#d)" d="M112.06 143.177c-1.678 1.917-3.127 3.573-6.06 3.573a1.254 1.254 0 0 0-1.25 1.25 1.25 1.25 0 0 0 1.25 1.25c4.068 0 6.125-2.351 7.941-4.427 1.677-1.917 3.127-3.573 6.059-3.573a1.25 1.25 0 1 0 0-2.5c-4.067 0-6.125 2.352-7.94 4.427Z"/><path fill="url(#e)" d="M194 133.25a18.735 18.735 0 0 1 18.159 14.062 1.242 1.242 0 0 0 1.035.928 1.249 1.249 0 0 0 1.386-1.551 21.25 21.25 0 0 0-36.562-8.691 21.241 21.241 0 0 0-5.034 17.145 21.268 21.268 0 0 0 3.267 8.546 1.25 1.25 0 0 0 2.086-1.377 18.768 18.768 0 0 1-3.069-9.487A18.754 18.754 0 0 1 194 133.25Z"/><path fill="url(#f)" d="M312.154 157.219a39.325 39.325 0 0 0-36.372-36.373 38.917 38.917 0 0 0-29.558 10.456 39.395 39.395 0 0 0-11.208 18.859 39.261 39.261 0 0 0-37.998-29.412 39.253 39.253 0 0 0-24.026 8.208 39.254 39.254 0 0 0-13.979 21.195 39.26 39.26 0 0 0-37.999-29.403 39.252 39.252 0 0 0-38.001 29.4 39.253 39.253 0 0 0-21.977-25.992 39.265 39.265 0 0 0-47.37 12.197 39.256 39.256 0 0 0 1.285 48.899 12.82 12.82 0 0 0 14.529 3.845 13.172 13.172 0 0 0 8.695-11.058 19.43 19.43 0 0 0 10.554 3.208 11.367 11.367 0 0 0 8.088-3.233 11.39 11.39 0 0 0 3.433-8.142V156a9.263 9.263 0 0 0-9.25-9.25c-4.067 0-6.125 2.352-7.94 4.427-1.678 1.917-3.127 3.573-6.06 3.573a1.252 1.252 0 0 0-1.25 1.25 1.249 1.249 0 0 0 1.25 1.25c4.068 0 6.125-2.351 7.94-4.427 1.678-1.917 3.128-3.573 6.06-3.573a6.756 6.756 0 0 1 6.75 6.75v13.873a8.813 8.813 0 0 1-2.64 6.316 8.665 8.665 0 0 1-6.35 2.559 17.63 17.63 0 0 1-10.51-3.827V163a4.253 4.253 0 0 0-4.983-4.187 4.432 4.432 0 0 0-3.517 4.293 18.183 18.183 0 0 0 5.187 12.221c.264.277.534.544.812.801v.481a10.595 10.595 0 0 1-7.126 10.14 10.398 10.398 0 0 1-11.759-3.105A36.751 36.751 0 1 1 45 196.75a1.251 1.251 0 0 0-.883 2.134c.234.234.552.366.883.366a39.319 39.319 0 0 0 38.007-29.433 39.116 39.116 0 0 0 7.435 14.818 12.253 12.253 0 0 0 13.619 3.879 12.255 12.255 0 0 0 8.188-11.554v-2.871a19.436 19.436 0 0 0 10.48 3.159 11.382 11.382 0 0 0 11.52-11.239l.001-.136V152a9.26 9.26 0 0 0-9.25-9.25c-4.067 0-6.125 2.352-7.94 4.427-1.678 1.917-3.127 3.573-6.06 3.573a1.254 1.254 0 0 0-1.25 1.25 1.25 1.25 0 0 0 1.25 1.25c4.068 0 6.125-2.351 7.941-4.427 1.677-1.917 3.127-3.573 6.059-3.573a6.758 6.758 0 0 1 6.75 6.75v13.873a8.82 8.82 0 0 1-2.64 6.316 8.692 8.692 0 0 1-6.35 2.559 17.632 17.632 0 0 1-10.511-3.827L112.25 159a4.25 4.25 0 0 0-4.983-4.187 4.433 4.433 0 0 0-3.517 4.293 18.185 18.185 0 0 0 5.187 12.221c.264.277.534.544.812.801v4.832a9.76 9.76 0 0 1-12.433 9.375 9.763 9.763 0 0 1-4.929-3.27 36.754 36.754 0 0 1-.213-45.866A36.751 36.751 0 1 1 121 196.75a1.254 1.254 0 0 0-1.25 1.25 1.25 1.25 0 0 0 1.25 1.25 39.316 39.316 0 0 0 38.005-29.426 39.098 39.098 0 0 0 7.946 15.429 12.824 12.824 0 0 0 14.528 3.845 13.174 13.174 0 0 0 8.696-11.058 19.431 19.431 0 0 0 10.554 3.208 11.367 11.367 0 0 0 8.087-3.232 11.385 11.385 0 0 0 3.433-8.004V156a9.26 9.26 0 0 0-9.25-9.25H201a9.26 9.26 0 0 0-9.25 9.25 1.247 1.247 0 0 0 1.25 1.25 1.25 1.25 0 0 0 1.25-1.25 6.759 6.759 0 0 1 6.75-6.75h1.999a6.755 6.755 0 0 1 6.75 6.75v13.873a8.875 8.875 0 0 1-8.872 8.876l-.117-.001a17.632 17.632 0 0 1-10.511-3.827V163a4.25 4.25 0 0 0-4.983-4.187 4.43 4.43 0 0 0-3.516 4.293 18.185 18.185 0 0 0 5.187 12.221c.264.277.534.544.812.801v.481a10.594 10.594 0 0 1-7.127 10.14 10.399 10.399 0 0 1-11.757-3.105 36.748 36.748 0 0 1-1.035-46 36.746 36.746 0 0 1 44.688-10.958 36.747 36.747 0 0 1 7.488 61.972A36.752 36.752 0 0 1 197 196.75a1.254 1.254 0 0 0-1.25 1.25 1.25 1.25 0 0 0 1.25 1.25 39.319 39.319 0 0 0 38.006-29.428 39.258 39.258 0 0 0 7.459 14.841 12.257 12.257 0 0 0 19.535-.629 12.252 12.252 0 0 0 2.249-7.074v-2.87a19.452 19.452 0 0 0 10.479 3.158 11.412 11.412 0 0 0 10.647-6.985c.581-1.391.879-2.883.874-4.39l.001-14.623H294a1.25 1.25 0 1 0 0-2.5h-7.844c-.805-6.88-6.646-12.662-13.469-12.984a14.328 14.328 0 0 0-14.703 11.653 3.247 3.247 0 0 0 .707 2.665 3.258 3.258 0 0 0 2.498 1.166h22.561l-.001 14.623a8.82 8.82 0 0 1-2.64 6.316 8.633 8.633 0 0 1-6.35 2.559 17.627 17.627 0 0 1-10.51-3.827V159a4.25 4.25 0 0 0-4.983-4.187 4.43 4.43 0 0 0-3.516 4.293 18.188 18.188 0 0 0 5.186 12.221c.265.277.536.544.813.802v4.831a9.757 9.757 0 0 1-6.503 9.195 9.749 9.749 0 0 1-10.838-3.064 36.76 36.76 0 0 1-8.161-22.893A36.753 36.753 0 1 1 273 196.75a1.254 1.254 0 0 0-1.25 1.25 1.25 1.25 0 0 0 1.25 1.25 39.397 39.397 0 0 0 28.7-12.475 38.95 38.95 0 0 0 10.454-29.556ZM32.25 163.088a1.98 1.98 0 0 1 1.434-1.81c.105-.019.21-.028.317-.028a1.747 1.747 0 0 1 1.75 1.75l-.002 9.493a14.695 14.695 0 0 1-3.499-9.405Zm74-4a1.986 1.986 0 0 1 1.434-1.81c.105-.019.211-.028.317-.028.413-.002.813.145 1.127.412a1.74 1.74 0 0 1 .622 1.338l-.001 9.494a14.697 14.697 0 0 1-3.499-9.406Zm78 4a1.973 1.973 0 0 1 1.433-1.81c.105-.019.211-.028.317-.028.413-.002.813.145 1.127.412a1.74 1.74 0 0 1 .622 1.338v9.493a14.694 14.694 0 0 1-3.499-9.405Zm76.939-14.338a.75.75 0 0 1-.584-.275.725.725 0 0 1-.162-.606 11.794 11.794 0 0 1 11.572-9.619c.184 0 .369.005.555.014 5.533.261 10.283 4.904 11.067 10.486h-22.448Zm-2.939 10.338a1.973 1.973 0 0 1 1.433-1.81c.105-.019.211-.028.317-.028.413-.002.813.145 1.127.412a1.74 1.74 0 0 1 .622 1.338v9.493a14.694 14.694 0 0 1-3.499-9.405Z"/><path fill="url(#g)" d="M202.987 166.75h-1a1.252 1.252 0 0 0-1.25 1.25 1.25 1.25 0 0 0 1.25 1.25h1a4.04 4.04 0 0 0 3.022-1.156c.834-.9.691-2.065.164-3.489l-2-6a1.26 1.26 0 0 0-1.095-.855 1.26 1.26 0 0 0-.908.3 1.26 1.26 0 0 0-.431.855 1.26 1.26 0 0 0 .06.484l2.002 6.007c.312.934.295 1.021.156 1.191-.139.169-.582.163-.97.163Z"/><path fill="url(#h)" d="M277.009 162.788h-1a1.246 1.246 0 0 0-1.25 1.25 1.25 1.25 0 0 0 1.25 1.25h1a4.053 4.053 0 0 0 3.022-1.156c.834-.9.691-2.065.163-3.49l-2-6a1.253 1.253 0 0 0-1.579-.797 1.262 1.262 0 0 0-.725.626 1.25 1.25 0 0 0-.069.955l.002.007 2 6c.312.935.294 1.022.155 1.191-.139.17-.582.164-.969.164Z"/><defs><linearGradient id="a" x1="159.005" x2="159.005" y1="120.736" y2="199.25" gradientUnits="userSpaceOnUse"><stop stop-color="#FFBE4F"/><stop offset="1" stop-color="#F26B1D"/></linearGradient><linearGradient id="b" x1="159.005" x2="159.005" y1="120.736" y2="199.25" gradientUnits="userSpaceOnUse"><stop stop-color="#FFBE4F"/><stop offset="1" stop-color="#F26B1D"/></linearGradient><linearGradient id="c" x1="159.005" x2="159.005" y1="120.736" y2="199.25" gradientUnits="userSpaceOnUse"><stop stop-color="#FFBE4F"/><stop offset="1" stop-color="#F26B1D"/></linearGradient><linearGradient id="d" x1="159.005" x2="159.005" y1="120.736" y2="199.25" gradientUnits="userSpaceOnUse"><stop stop-color="#FFBE4F"/><stop offset="1" stop-color="#F26B1D"/></linearGradient><linearGradient id="e" x1="159.005" x2="159.005" y1="120.736" y2="199.25" gradientUnits="userSpaceOnUse"><stop stop-color="#FFBE4F"/><stop offset="1" stop-color="#F26B1D"/></linearGradient><linearGradient id="f" x1="159.005" x2="159.005" y1="120.736" y2="199.25" gradientUnits="userSpaceOnUse"><stop stop-color="#FFBE4F"/><stop offset="1" stop-color="#F26B1D"/></linearGradient><linearGradient id="g" x1="159.005" x2="159.005" y1="120.736" y2="199.25" gradientUnits="userSpaceOnUse"><stop stop-color="#FFBE4F"/><stop offset="1" stop-color="#F26B1D"/></linearGradient><linearGradient id="h" x1="159.005" x2="159.005" y1="120.736" y2="199.25" gradientUnits="userSpaceOnUse"><stop stop-color="#FFBE4F"/><stop offset="1" stop-color="#F26B1D"/></linearGradient></defs></svg>