<svg xmlns="http://www.w3.org/2000/svg" width="120" height="120" fill="none" viewBox="0 0 120 120"><path stroke="url(#a)" stroke-linecap="round" stroke-linejoin="round" stroke-width="2.5" d="M79.6 50.022v9.693m15.079.88-9.987-18.797c-2.252-4.113-8.126-4.113-10.28 0l-13.61 24.966c-2.153 3.916.686 8.714 5.19 8.714h15.322m0 0h12.973a3.928 3.928 0 0 0 3.916-3.917 3.928 3.928 0 0 0-3.916-3.916c-7.51 0-11.18 3.961-12.973 7.833Zm0 0c-1.713 3.698-1.713 7.315-1.713 7.315m-.067-50.128v-10.37a1.78 1.78 0 0 0-.3-.968 1.747 1.747 0 0 0-.778-.64 1.72 1.72 0 0 0-1.883.372l-24.91 24.176H37.728c-1.848 0-3.62.744-4.927 2.068a7.106 7.106 0 0 0-2.04 4.991v21.177c0 1.872.733 3.667 2.04 4.991a6.923 6.923 0 0 0 4.927 2.067h13.935l24.91 24.177a1.732 1.732 0 0 0 1.883.372c.315-.132.585-.354.777-.64a1.78 1.78 0 0 0 .301-.967v-20.2"/><path fill="url(#b)" d="M79.713 66.981a2 2 0 1 0 0-4 2 2 0 0 0 0 4Z"/><defs><linearGradient id="a" x1="64.482" x2="64.482" y1="20.554" y2="105.211" gradientUnits="userSpaceOnUse"><stop stop-color="#FFBE4F"/><stop offset="1" stop-color="#93C437"/></linearGradient><linearGradient id="b" x1="79.713" x2="79.713" y1="62.981" y2="66.981" gradientUnits="userSpaceOnUse"><stop stop-color="#FFBE4F"/><stop offset="1" stop-color="#93C437"/></linearGradient></defs></svg>