<svg xmlns="http://www.w3.org/2000/svg" width="120" height="120" fill="none" viewBox="0 0 120 120"><path stroke="#000" stroke-linecap="round" stroke-linejoin="round" stroke-width="2.5" d="M93.409 53.361v11.631m18.093 1.058L99.518 43.492c-2.702-4.935-9.751-4.935-12.336 0L70.85 73.452c-2.585 4.7.822 10.456 6.227 10.456h18.387m0 0h15.567c2.585 0 4.7-2.115 4.7-4.7 0-2.584-2.115-4.699-4.7-4.699-9.012 0-13.416 4.754-15.567 9.4Zm0 0c-2.056 4.439-2.056 8.778-2.056 8.778v.114a8 8 0 0 1-8 8H12.8a8 8 0 0 1-8-8v-59a8 8 0 0 1 8-8h78.4M40.8 63.4v9.18a1.8 1.8 0 0 0 2.656 1.584l16.686-9.019c1.244-.672 1.262-2.45.032-3.149l-16.685-9.47c-1.2-.681-2.689.186-2.689 1.565V56.8"/><path fill="#000" d="M93.5 71a1.5 1.5 0 1 0 0-3 1.5 1.5 0 0 0 0 3Z"/></svg>