<svg xmlns="http://www.w3.org/2000/svg" width="120" height="120" fill="none" viewBox="0 0 120 120"><path fill="url(#a)" d="M71.254 54.169h9.09a1.874 1.874 0 0 0 1.326-.549l26.568-26.569a8.302 8.302 0 1 0-11.74-11.74L69.93 41.82a1.866 1.866 0 0 0-.552 1.325v9.148a1.875 1.875 0 0 0 1.875 1.875Zm1.875-10.246 26.018-25.961a4.554 4.554 0 0 1 6.44 6.438l-26.02 26.019H73.13v-6.496Z"/><path fill="url(#b)" d="M108.75 54.374a1.877 1.877 0 0 0-1.875 1.875V90a13.138 13.138 0 0 1-13.125 13.126h-67.5a13.145 13.145 0 0 1-13.125-13.126V45A13.141 13.141 0 0 1 26.25 31.874H60a1.875 1.875 0 1 0 0-3.75H26.25A16.894 16.894 0 0 0 9.375 45v45a16.895 16.895 0 0 0 16.875 16.876h67.5a16.897 16.897 0 0 0 16.875-16.876V56.25a1.877 1.877 0 0 0-1.875-1.875Z"/><defs><linearGradient id="a" x1="60.022" x2="60.022" y1="12.879" y2="106.875" gradientUnits="userSpaceOnUse"><stop stop-color="#93C437"/><stop offset="1" stop-color="#279BE8"/></linearGradient><linearGradient id="b" x1="60.022" x2="60.022" y1="12.879" y2="106.875" gradientUnits="userSpaceOnUse"><stop stop-color="#93C437"/><stop offset="1" stop-color="#279BE8"/></linearGradient></defs></svg>