<svg xmlns="http://www.w3.org/2000/svg" width="163" height="133" fill="none" viewBox="0 0 163 133"><linearGradient id="a" x1="81.277" x2="81.277" y1="1.729" y2="131.729" gradientUnits="userSpaceOnUse"><stop offset="0" stop-color="#f55868"/><stop offset="1" stop-color="#875ae0"/></linearGradient><path stroke="url(#a)" stroke-linecap="round" stroke-linejoin="round" stroke-miterlimit="10" stroke-width="2.5" d="M132.527 97.354v-5.625c0-2.75-2.25-5-5-5m0 0h-41.25c-2.75 0-5 2.25-5 5v5c0 2.75 2.25 5 5 5m41.25-15c2.75 0 5-2.25 5-5v-5c0-2.75-2.25-5-5-5h-41.25c-2.75 0-5 2.25-5 5v5.625m5 19.375h5c2.75 0 5 2.25 5 5v20c0 2.75-2.25 5-5 5h-5c-2.75 0-5-2.25-5-5v-20.625m5-4.375h55c2.75 0 5 2.25 5 5v8.75h10c2.75 0 5 2.25 5 5v6.25c0 2.75-2.25 5-5 5h-35c-2.75 0-5-2.25-5-5v-20.625m-95-64.375 16.188 10.812A24.956 24.956 0 0 0 51.34 56.73h8.687c.688 0 1.25-.563 1.25-1.25 0-3.438-2.812-6.25-6.25-6.25h-2c-1.062 0-2-.625-2.312-1.625l-1-2.688c-1.25-3.312 0-7.062 3-8.937l3.937-2.5a5.045 5.045 0 0 1 7.188 2l1 2c.187.375.25.75.25 1.125v1.937c0 3.438 2.812 6.25 6.25 6.25.687 0 1.25-.562 1.25-1.25V35.416c0-.75-.188-1.562-.5-2.25L66.527 21.98c-.875-1.688-2.562-2.75-4.5-2.75h-.5c-.875 0-1.625-.5-2-1.25l-.5-1c-.875-1.688-2.562-2.75-4.5-2.75h-.5c-.875 0-1.625-.5-2-1.25-1.062-2.188-3.562-3.25-5.937-2.563-1.5.438-2.938 1-4.313 1.688l-.437.187-9.875 4.938a7.643 7.643 0 0 1-7.5-.438L1.277 1.73m65.375 68.75-7.75-23.313c-.625-1.937 1.188-3.812 3.188-3.187l23.312 7.75c1.75.562 2.313 2.812 1 4.125l-15.5 15.5c-1.437 1.437-3.687.875-4.25-.875z"/></svg>