<svg width="180" height="96" viewBox="0 0 180 96" fill="none" xmlns="http://www.w3.org/2000/svg">
<g clip-path="url(#clip0_23746_2128)">
<path fill-rule="evenodd" clip-rule="evenodd" d="M113.999 94.9966H112.666V95.7492C112.666 95.8877 112.815 96.0001 112.999 96.0001H113.666C113.85 96.0001 113.999 95.8877 113.999 95.7492V94.9966Z" fill="#222222"/>
<path fill-rule="evenodd" clip-rule="evenodd" d="M67.3333 94.9966H66V95.7492C66 95.8877 66.1493 96.0001 66.3333 96.0001H67C67.184 96.0001 67.3333 95.8877 67.3333 95.7492V94.9966Z" fill="#222222"/>
<path fill-rule="evenodd" clip-rule="evenodd" d="M109.999 85.6306H108.666V86.3832C108.666 86.5217 108.815 86.6341 108.999 86.6341H109.666C109.85 86.6341 109.999 86.5217 109.999 86.3832V85.6306Z" fill="#222222"/>
<path fill-rule="evenodd" clip-rule="evenodd" d="M71.3333 85.6306H70V86.3832C70 86.5217 70.1493 86.6341 70.3333 86.6341H71C71.184 86.6341 71.3333 86.5217 71.3333 86.3832V85.6306Z" fill="#222222"/>
<path fill-rule="evenodd" clip-rule="evenodd" d="M66 94.9964H67.3333V93.6584H66V94.9964Z" fill="#D5D5D5"/>
<g filter="url(#filter0_d_23746_2128)">
<path fill-rule="evenodd" clip-rule="evenodd" d="M89.8316 88.217L110 84.1487V83.8515L87.1779 87.6646L68.666 83.4897L85.9293 88.2268L66.2684 93.003L63.9766 93.3638H66.2684L88.0817 88.9193V88.969L112.838 93.146V92.7979L89.8316 88.217Z" fill="black" fill-opacity="0.01"/>
</g>
<path fill-rule="evenodd" clip-rule="evenodd" d="M88.6667 86.9687L70 84.2927V85.6307L88.6667 89.6446V86.9687Z" fill="#D4D4D4"/>
<path fill-rule="evenodd" clip-rule="evenodd" d="M112.666 94.9964H113.999V93.6584H112.666V94.9964Z" fill="#D6D6D6"/>
<g filter="url(#filter1_i_23746_2128)">
<path fill-rule="evenodd" clip-rule="evenodd" d="M110.001 84.2927L91.334 86.9687V89.6446L110.001 85.6307V84.2927Z" fill="#FDFDFD"/>
</g>
<rect x="88.666" y="48.1672" width="4" height="40.1394" fill="url(#paint0_linear_23746_2128)"/>
<path fill-rule="evenodd" clip-rule="evenodd" d="M90.0007 86.9688L67.334 93.7069V95.0448L90.0007 89.6929V86.9688Z" fill="url(#paint1_linear_23746_2128)"/>
<path fill-rule="evenodd" clip-rule="evenodd" d="M89.9993 86.9688L112.666 93.7069V95.0448L89.9993 89.6929V86.9688Z" fill="url(#paint2_linear_23746_2128)"/>
<path fill-rule="evenodd" clip-rule="evenodd" d="M66 93.6586L88.6667 86.9688H90L67.3333 93.6586H66Z" fill="url(#paint3_linear_23746_2128)"/>
<path fill-rule="evenodd" clip-rule="evenodd" d="M114 93.6586L91.3333 86.9688H90L112.667 93.6586H114Z" fill="url(#paint4_linear_23746_2128)"/>
<path fill-rule="evenodd" clip-rule="evenodd" d="M124.667 48.1673H55.3333C54.5973 48.1673 54 47.5692 54 46.8293V1.33798C54 0.598077 54.5973 0 55.3333 0H124.667C125.403 0 126 0.598077 126 1.33798V46.8293C126 47.5692 125.403 48.1673 124.667 48.1673Z" fill="#E0E0E0"/>
<path fill-rule="evenodd" clip-rule="evenodd" d="M89.3086 46.8207H89.4082V46.3793H89.3086V46.8207ZM90.2132 46.5062C90.2096 46.5049 90.1772 46.4821 90.1292 46.4821C90.0645 46.4821 90.0201 46.5329 90.0201 46.6012C90.0201 46.6667 90.0633 46.7189 90.1292 46.7189C90.176 46.7189 90.2096 46.6975 90.2132 46.6948V46.8125C90.2012 46.8178 90.1664 46.8286 90.122 46.8286C90.0105 46.8286 89.9121 46.7416 89.9121 46.6012C89.9121 46.4687 90.0009 46.3724 90.122 46.3724C90.1688 46.3724 90.2036 46.3845 90.2132 46.3885V46.5062ZM89.1722 46.5062C89.1686 46.5049 89.1362 46.4821 89.0882 46.4821C89.0234 46.4821 88.9791 46.5329 88.9791 46.6012C88.9791 46.6667 89.0222 46.7189 89.0882 46.7189C89.135 46.7189 89.1686 46.6975 89.1722 46.6948V46.8125C89.1602 46.8178 89.1266 46.8286 89.0822 46.8286C88.9695 46.8286 88.8711 46.7416 88.8711 46.6012C88.8711 46.4687 88.9599 46.3724 89.0822 46.3724C89.129 46.3724 89.1638 46.3845 89.1722 46.3885V46.5062ZM90.529 46.4839C90.4702 46.4839 90.4258 46.5374 90.4258 46.6003C90.4258 46.6645 90.4702 46.7166 90.529 46.7166C90.5889 46.7166 90.6321 46.6645 90.6321 46.6003C90.6321 46.5374 90.5889 46.4839 90.529 46.4839ZM90.739 46.6003C90.739 46.726 90.6514 46.829 90.529 46.829C90.4079 46.829 90.3203 46.726 90.3203 46.6003C90.3203 46.4746 90.4079 46.3729 90.529 46.3729C90.6514 46.3729 90.739 46.4746 90.739 46.6003ZM89.7889 46.48C89.7877 46.48 89.7457 46.4667 89.7109 46.4667C89.6701 46.4667 89.6485 46.4814 89.6485 46.5028C89.6485 46.5295 89.6785 46.5389 89.6953 46.5443L89.7217 46.555C89.7877 46.5777 89.8165 46.6272 89.8165 46.6807C89.8165 46.7917 89.7301 46.8292 89.6533 46.8292C89.5994 46.8292 89.5502 46.8171 89.5442 46.8158V46.7155C89.5538 46.7181 89.5958 46.7315 89.6389 46.7315C89.6893 46.7315 89.7121 46.7155 89.7121 46.69C89.7121 46.6686 89.6917 46.6553 89.6665 46.6472C89.6617 46.6446 89.6521 46.6419 89.6461 46.6392C89.5898 46.6192 89.543 46.583 89.543 46.5095C89.543 46.4279 89.5994 46.3717 89.6917 46.3717C89.7397 46.3717 89.7853 46.3851 89.7889 46.3864V46.48ZM88.7656 45.9059C88.7656 45.8752 88.7416 45.8511 88.7152 45.8511C88.6876 45.8511 88.666 45.8752 88.666 45.9059V46.021C88.666 46.0517 88.6876 46.0772 88.7152 46.0772C88.7416 46.0772 88.7656 46.0517 88.7656 46.021V45.9059ZM89.037 45.7531C89.037 45.7236 89.0142 45.6982 88.9866 45.6982C88.9602 45.6982 88.9374 45.7236 88.9374 45.7531V46.0206C88.9374 46.0513 88.9602 46.0768 88.9866 46.0768C89.0142 46.0768 89.037 46.0513 89.037 46.0206V45.7531ZM89.3086 45.5461C89.3086 45.5153 89.2858 45.4912 89.2582 45.4912C89.2318 45.4912 89.209 45.5153 89.209 45.5461V46.1319C89.209 46.1613 89.2318 46.1868 89.2582 46.1868C89.2858 46.1868 89.3086 46.1613 89.3086 46.1319V45.5461ZM89.582 45.7531C89.582 45.7237 89.5592 45.6982 89.5328 45.6982C89.5052 45.6982 89.4824 45.7237 89.4824 45.7531V46.0206C89.4824 46.0514 89.5052 46.0768 89.5328 46.0768C89.5592 46.0768 89.582 46.0514 89.582 46.0206V45.7531ZM89.8535 45.9059C89.8535 45.8752 89.8307 45.8511 89.8031 45.8511C89.7767 45.8511 89.7539 45.8752 89.7539 45.9059V46.0209C89.7539 46.0517 89.7767 46.0771 89.8031 46.0771C89.8307 46.0771 89.8535 46.0517 89.8535 46.0209V45.9059ZM90.125 45.7531C90.125 45.7237 90.1022 45.6982 90.0746 45.6982C90.0482 45.6982 90.0254 45.7237 90.0254 45.7531V46.0206C90.0254 46.0514 90.0482 46.0768 90.0746 46.0768C90.1022 46.0768 90.125 46.0514 90.125 46.0206V45.7531ZM90.3982 45.5461C90.3982 45.5153 90.3766 45.4912 90.349 45.4912C90.3214 45.4912 90.2986 45.5153 90.2986 45.5461V46.1319C90.2986 46.1613 90.3214 46.1868 90.349 46.1868C90.3766 46.1868 90.3982 46.1613 90.3982 46.1319V45.5461ZM90.6718 45.7531C90.6718 45.7237 90.649 45.6982 90.6215 45.6982C90.5939 45.6982 90.5723 45.7237 90.5723 45.7531V46.0206C90.5723 46.0514 90.5939 46.0768 90.6215 46.0768C90.649 46.0768 90.6718 46.0514 90.6718 46.0206V45.7531ZM90.9433 45.9059C90.9433 45.8752 90.9205 45.8511 90.8941 45.8511C90.8665 45.8511 90.8438 45.8752 90.8438 45.9059V46.0209C90.8438 46.0517 90.8665 46.0771 90.8941 46.0771C90.9205 46.0771 90.9433 46.0517 90.9433 46.0209V45.9059Z" fill="#908E8E"/>
<path fill-rule="evenodd" clip-rule="evenodd" d="M123.837 44.5H56.1635C55.7972 44.5 55.5 44.196 55.5 43.8214V7.17857C55.5 6.804 55.7972 6.5 56.1635 6.5H123.837C124.203 6.5 124.5 6.804 124.5 7.17857V43.8214C124.5 44.196 124.203 44.5 123.837 44.5Z" fill="#222222"/>
<path fill-rule="evenodd" clip-rule="evenodd" d="M123.837 44.5H56.1635C55.7972 44.5 55.5 44.196 55.5 43.8214V7.17857C55.5 6.804 55.7972 6.5 56.1635 6.5H123.837C124.203 6.5 124.5 6.804 124.5 7.17857V43.8214C124.5 44.196 124.203 44.5 123.837 44.5Z" fill="url(#paint5_linear_23746_2128)"/>
<path fill-rule="evenodd" clip-rule="evenodd" d="M91.25 3.75C91.25 3.05875 90.69 2.5 90 2.5C89.31 2.5 88.75 3.05875 88.75 3.75C88.75 4.44125 89.31 5 90 5C90.69 5 91.25 4.44125 91.25 3.75Z" fill="#232323"/>
<path fill-rule="evenodd" clip-rule="evenodd" d="M90.75 3.75C90.75 3.336 90.414 3 90 3C89.586 3 89.25 3.336 89.25 3.75C89.25 4.164 89.586 4.5 90 4.5C90.414 4.5 90.75 4.164 90.75 3.75Z" fill="#555B6C"/>
</g>
<defs>
<filter id="filter0_d_23746_2128" x="62.9766" y="83.4897" width="50.8613" height="13.874" filterUnits="userSpaceOnUse" color-interpolation-filters="sRGB">
<feFlood flood-opacity="0" result="BackgroundImageFix"/>
<feColorMatrix in="SourceAlpha" type="matrix" values="0 0 0 0 0 0 0 0 0 0 0 0 0 0 0 0 0 0 127 0" result="hardAlpha"/>
<feOffset dy="3"/>
<feGaussianBlur stdDeviation="0.5"/>
<feColorMatrix type="matrix" values="0 0 0 0 0 0 0 0 0 0 0 0 0 0 0 0 0 0 0.4 0"/>
<feBlend mode="normal" in2="BackgroundImageFix" result="effect1_dropShadow_23746_2128"/>
<feBlend mode="normal" in="SourceGraphic" in2="effect1_dropShadow_23746_2128" result="shape"/>
</filter>
<filter id="filter1_i_23746_2128" x="91.334" y="84.2927" width="18.666" height="5.35181" filterUnits="userSpaceOnUse" color-interpolation-filters="sRGB">
<feFlood flood-opacity="0" result="BackgroundImageFix"/>
<feBlend mode="normal" in="SourceGraphic" in2="BackgroundImageFix" result="shape"/>
<feColorMatrix in="SourceAlpha" type="matrix" values="0 0 0 0 0 0 0 0 0 0 0 0 0 0 0 0 0 0 127 0" result="hardAlpha"/>
<feOffset/>
<feGaussianBlur stdDeviation="0.5"/>
<feComposite in2="hardAlpha" operator="arithmetic" k2="-1" k3="1"/>
<feColorMatrix type="matrix" values="0 0 0 0 0 0 0 0 0 0 0 0 0 0 0 0 0 0 0.08 0"/>
<feBlend mode="normal" in2="shape" result="effect1_innerShadow_23746_2128"/>
</filter>
<linearGradient id="paint0_linear_23746_2128" x1="88.7802" y1="87.7338" x2="92.666" y2="87.7338" gradientUnits="userSpaceOnUse">
<stop stop-color="#C6C6C6"/>
<stop offset="0.259574" stop-color="#EAEAEA"/>
<stop offset="0.288679" stop-color="white"/>
<stop offset="0.332889" stop-color="#E9E9E9"/>
<stop offset="0.596324" stop-color="#B9B9B9"/>
<stop offset="0.823451" stop-color="white"/>
<stop offset="1" stop-color="white"/>
</linearGradient>
<linearGradient id="paint1_linear_23746_2128" x1="80.685" y1="84.3512" x2="74.7507" y2="98.1314" gradientUnits="userSpaceOnUse">
<stop stop-color="#DCDBDB"/>
<stop offset="0.165395" stop-color="#F4F4F4"/>
<stop offset="1" stop-color="white"/>
</linearGradient>
<linearGradient id="paint2_linear_23746_2128" x1="99.7237" y1="84.6052" x2="105.541" y2="98.1132" gradientUnits="userSpaceOnUse">
<stop stop-color="#C2C1C1"/>
<stop offset="0.165395" stop-color="#D6D6D6"/>
<stop offset="1" stop-color="#DFDFDF"/>
</linearGradient>
<linearGradient id="paint3_linear_23746_2128" x1="80.0715" y1="84.7787" x2="75.9504" y2="97.011" gradientUnits="userSpaceOnUse">
<stop stop-color="#C2C2C2"/>
<stop offset="0.165395" stop-color="#E6E6E6"/>
<stop offset="1" stop-color="#EFEFEF"/>
</linearGradient>
<linearGradient id="paint4_linear_23746_2128" x1="123.928" y1="91.4686" x2="121.461" y2="80.7683" gradientUnits="userSpaceOnUse">
<stop stop-color="#EFEFEF"/>
<stop offset="0.881842" stop-color="#E6E6E6"/>
<stop offset="1" stop-color="#C2C2C2"/>
</linearGradient>
<linearGradient id="paint5_linear_23746_2128" x1="21" y1="25.5" x2="53.1147" y2="83.8136" gradientUnits="userSpaceOnUse">
<stop stop-color="white" stop-opacity="0.24"/>
<stop offset="1" stop-opacity="0.5"/>
</linearGradient>
<clipPath id="clip0_23746_2128">
<rect width="180" height="96" fill="white"/>
</clipPath>
</defs>
</svg>
