<svg width="180" height="96" viewBox="0 0 180 96" fill="none" xmlns="http://www.w3.org/2000/svg">
<g clip-path="url(#clip0_23746_2127)">
<path fill-rule="evenodd" clip-rule="evenodd" d="M164.798 60.974H15.2025C12.3292 60.974 10 58.6448 10 55.7715V40.2025C10 37.3292 12.3292 35 15.2025 35H164.798C167.671 35 170 37.3292 170 40.2025V55.7715C170 58.6448 167.671 60.974 164.798 60.974Z" fill="url(#paint0_linear_23746_2127)"/>
<path fill-rule="evenodd" clip-rule="evenodd" d="M164.804 59.9349H15.1957C12.9001 59.9349 11.0391 58.0739 11.0391 55.7782V40.1955C11.0391 37.8998 12.9001 36.0388 15.1957 36.0388H164.804C167.1 36.0388 168.961 37.8998 168.961 40.1955V55.7782C168.961 58.0739 167.1 59.9349 164.804 59.9349Z" fill="url(#paint1_linear_23746_2127)"/>
<path fill-rule="evenodd" clip-rule="evenodd" d="M83.248 47.9876C83.248 51.713 86.2762 54.7409 90.0013 54.7409C93.7264 54.7409 96.7545 51.713 96.7545 47.9876C96.7545 44.2622 93.7264 41.2344 90.0013 41.2344C86.2762 41.2344 83.248 44.2622 83.248 47.9876Z" fill="url(#paint2_linear_23746_2127)"/>
<path fill-rule="evenodd" clip-rule="evenodd" d="M92.5971 47.9868C92.5971 49.4192 91.4321 50.5842 89.9997 50.5842C88.5674 50.5842 87.4023 49.4192 87.4023 47.9868C87.4023 46.5544 88.5674 45.3894 89.9997 45.3894C91.4321 45.3894 92.5971 46.5544 92.5971 47.9868Z" fill="#3A3E49"/>
<path opacity="0.5" fill-rule="evenodd" clip-rule="evenodd" d="M89.6961 46.2148C89.8981 46.4168 89.7328 46.9105 89.3277 47.3157C88.9226 47.7209 88.4288 47.8861 88.2268 47.6841C88.0248 47.4822 88.1901 46.9884 88.5952 46.5832C89.0004 46.1781 89.4941 46.0129 89.6961 46.2148Z" fill="white"/>
<path fill-rule="evenodd" clip-rule="evenodd" d="M89.9997 45.3896C91.4362 45.3896 92.5971 46.5507 92.5971 47.9871C92.5971 49.4234 91.4362 50.5845 89.9997 50.5845C88.5633 50.5845 87.4023 49.4234 87.4023 47.9871C87.4023 46.5507 88.5633 45.3896 89.9997 45.3896Z" stroke="black" stroke-width="0.52" stroke-miterlimit="10"/>
<g opacity="0.2">
<path opacity="0.2" d="M90.0013 41.9616C93.324 41.9616 96.0273 44.6649 96.0273 47.9876C96.0273 51.3103 93.324 54.0136 90.0013 54.0136C86.6786 54.0136 83.9753 51.3103 83.9753 47.9876C83.9753 44.6649 86.6786 41.9616 90.0013 41.9616ZM90.0013 41.2344C86.2762 41.2344 83.248 44.2622 83.248 47.9876C83.248 51.713 86.2762 54.7409 90.0013 54.7409C93.7264 54.7409 96.7545 51.713 96.7545 47.9876C96.7545 44.2622 93.7264 41.2344 90.0013 41.2344Z" fill="black"/>
</g>
<g opacity="0.5">
<path opacity="0.5" d="M90.0001 41.2336C93.7251 41.2336 96.7533 44.2615 96.7533 47.9869C96.7533 51.7123 93.7251 54.7401 90.0001 54.7401C86.275 54.7401 83.2468 51.7123 83.2468 47.9869C83.2468 44.2615 86.275 41.2336 90.0001 41.2336ZM90.0001 40.5063C85.8753 40.5063 82.5195 43.8621 82.5195 47.9869C82.5195 52.1116 85.8753 55.4674 90.0001 55.4674C94.1248 55.4674 97.4806 52.1116 97.4806 47.9869C97.4806 43.8621 94.1248 40.5063 90.0001 40.5063Z" fill="url(#paint3_linear_23746_2127)"/>
</g>
<path d="M23.7818 48.3921H23.3262V50.1974H23.7818V48.3921Z" fill="white"/>
<path d="M27.4555 48.9093C27.4369 48.8997 27.2901 48.8129 27.0722 48.8129C26.7777 48.8129 26.5734 49.0179 26.5734 49.2944C26.5734 49.5627 26.769 49.7764 27.0722 49.7764C27.2864 49.7764 27.4355 49.6914 27.4555 49.6806V50.1652C27.3982 50.1813 27.2427 50.2295 27.0403 50.2295C26.528 50.2295 26.0781 49.8763 26.0781 49.2945C26.0781 48.7554 26.4851 48.3601 27.0403 48.3601C27.2539 48.3601 27.4124 48.4121 27.4555 48.4248V48.9093Z" fill="white"/>
<path d="M22.7009 48.9093C22.6827 48.8997 22.5361 48.8129 22.3182 48.8129C22.0231 48.8129 21.819 49.0179 21.819 49.2944C21.819 49.5627 22.0147 49.7764 22.3182 49.7764C22.5324 49.7764 22.6813 49.6914 22.7009 49.6806V50.1652C22.6443 50.1813 22.489 50.2295 22.2856 50.2295C21.7735 50.2295 21.3242 49.8763 21.3242 49.2945C21.3242 48.7554 21.7312 48.3601 22.2856 48.3601C22.4999 48.3601 22.6581 48.4121 22.7009 48.4248V48.9093Z" fill="white"/>
<path d="M29.8431 49.2943C29.8431 49.8108 29.4443 50.2293 28.889 50.2293C28.3338 50.2293 27.9355 49.8108 27.9355 49.2943C27.9355 48.7787 28.3338 48.3599 28.889 48.3599C29.4443 48.3599 29.8431 48.7787 29.8431 49.2943ZM28.8891 48.8195C28.6189 48.8195 28.4181 49.0322 28.4181 49.2943C28.4181 49.557 28.6188 49.7694 28.8891 49.7694C29.1591 49.7694 29.3604 49.557 29.3604 49.2943C29.3604 49.0322 29.1591 48.8195 28.8891 48.8195Z" fill="white"/>
<path d="M25.5095 48.8024C25.5027 48.8003 25.3109 48.7474 25.1533 48.7474C24.9707 48.7474 24.8714 48.8086 24.8714 48.8953C24.8714 49.0052 25.0053 49.0436 25.0803 49.0673L25.206 49.1073C25.5017 49.2013 25.6363 49.4038 25.6363 49.6237C25.6363 50.0772 25.2376 50.2295 24.8889 50.2295C24.6465 50.2295 24.4196 50.185 24.3973 50.1802V49.7648C24.4375 49.775 24.6283 49.8319 24.8275 49.8319C25.0541 49.8319 25.1584 49.7656 25.1584 49.6634C25.1584 49.572 25.0682 49.5191 24.9552 49.4836C24.9275 49.4744 24.8861 49.4614 24.8579 49.4522C24.6041 49.372 24.3926 49.2229 24.3926 48.924C24.3926 48.5863 24.6454 48.3596 25.0653 48.3596C25.2871 48.3596 25.4959 48.4134 25.5094 48.4171V48.8024H25.5095Z" fill="white"/>
<path d="M20.8415 46.4521C20.8415 46.3275 20.7398 46.2266 20.6151 46.2266C20.4905 46.2266 20.3887 46.3275 20.3887 46.4521V46.9265C20.3887 47.0517 20.4905 47.1528 20.6151 47.1528C20.7398 47.1528 20.8415 47.0518 20.8415 46.9265V46.4521Z" fill="white"/>
<path d="M22.0832 45.8299C22.0832 45.7055 21.9816 45.6045 21.857 45.6045C21.7325 45.6045 21.6309 45.7055 21.6309 45.8299V46.9258C21.6309 47.0509 21.7325 47.1519 21.857 47.1519C21.9816 47.1519 22.0832 47.051 22.0832 46.9258V45.8299Z" fill="white"/>
<path d="M23.3254 44.9788C23.3254 44.8543 23.2238 44.7534 23.0992 44.7534C22.9747 44.7534 22.873 44.8543 22.873 44.9788V47.3761C22.873 47.5012 22.9747 47.6021 23.0992 47.6021C23.2238 47.6021 23.3254 47.5013 23.3254 47.3761V44.9788Z" fill="white"/>
<path d="M24.5676 45.8299C24.5676 45.7055 24.466 45.6045 24.3414 45.6045C24.2168 45.6045 24.1152 45.7055 24.1152 45.8299V46.9258C24.1152 47.0509 24.2168 47.1519 24.3414 47.1519C24.466 47.1519 24.5676 47.051 24.5676 46.9258V45.8299Z" fill="white"/>
<path d="M25.8088 46.4521C25.8088 46.3275 25.7078 46.2266 25.5838 46.2266C25.4591 46.2266 25.3574 46.3275 25.3574 46.4521V46.9265C25.3574 47.0517 25.4591 47.1528 25.5838 47.1528C25.7078 47.1528 25.8088 47.0518 25.8088 46.9265V46.4521Z" fill="white"/>
<path d="M27.0525 45.8299C27.0525 45.7055 26.9516 45.6045 26.827 45.6045C26.7028 45.6045 26.6016 45.7055 26.6016 45.8299V46.9258C26.6016 47.0509 26.7028 47.1519 26.827 47.1519C26.9516 47.1519 27.0525 47.051 27.0525 46.9258V45.8299Z" fill="white"/>
<path d="M28.2947 44.9788C28.2947 44.8543 28.1938 44.7534 28.0692 44.7534C27.9446 44.7534 27.8438 44.8543 27.8438 44.9788V47.3761C27.8438 47.5012 27.9446 47.6021 28.0692 47.6021C28.1938 47.6021 28.2947 47.5013 28.2947 47.3761V44.9788Z" fill="white"/>
<path d="M29.5377 45.8299C29.5377 45.7055 29.4368 45.6045 29.3094 45.6045C29.1849 45.6045 29.084 45.7055 29.084 45.8299V46.9258C29.084 47.0509 29.1849 47.1519 29.3094 47.1519C29.4368 47.1519 29.5377 47.051 29.5377 46.9258V45.8299Z" fill="white"/>
<path d="M30.7778 46.4521C30.7778 46.3275 30.6765 46.2266 30.5522 46.2266C30.4275 46.2266 30.3262 46.3275 30.3262 46.4521V46.9265C30.3262 47.0517 30.4275 47.1528 30.5522 47.1528C30.6765 47.1528 30.7778 47.0518 30.7778 46.9265V46.4521Z" fill="white"/>
<path d="M89.999 44.2635C89.8033 44.2635 89.6445 44.1048 89.6445 43.909V43.1455C89.6445 42.9498 89.8033 42.791 89.999 42.791C90.1948 42.791 90.3535 42.9498 90.3535 43.1455V43.909C90.3535 44.1048 90.1948 44.2635 89.999 44.2635Z" fill="#666666"/>
</g>
<defs>
<linearGradient id="paint0_linear_23746_2127" x1="90" y1="35" x2="90" y2="60.974" gradientUnits="userSpaceOnUse">
<stop offset="4.47534e-07" stop-color="#EEEDED"/>
<stop offset="1" stop-color="#C6C6C5"/>
</linearGradient>
<linearGradient id="paint1_linear_23746_2127" x1="90.0001" y1="36.0388" x2="90.0001" y2="59.9349" gradientUnits="userSpaceOnUse">
<stop offset="4.47534e-07" stop-color="#D8D8D7"/>
<stop offset="1" stop-color="#898889"/>
</linearGradient>
<linearGradient id="paint2_linear_23746_2127" x1="90.0013" y1="54.7409" x2="90.0013" y2="41.2344" gradientUnits="userSpaceOnUse">
<stop stop-color="#2B2B2B"/>
<stop offset="0.42" stop-color="#535353"/>
<stop offset="0.58" stop-color="#535353"/>
<stop offset="1" stop-color="#1C1C1C"/>
</linearGradient>
<linearGradient id="paint3_linear_23746_2127" x1="82.5195" y1="47.9869" x2="97.4806" y2="47.9869" gradientUnits="userSpaceOnUse">
<stop offset="4.47534e-07" stop-color="white"/>
<stop offset="0.6946" stop-color="#191919"/>
<stop offset="1" stop-color="#898889"/>
</linearGradient>
<clipPath id="clip0_23746_2127">
<rect width="180" height="96" fill="white"/>
</clipPath>
</defs>
</svg>
