<svg width="180" height="96" viewBox="0 0 180 96" fill="none" xmlns="http://www.w3.org/2000/svg">
<g clip-path="url(#clip0_23746_2126)">
<rect x="10.5" y="34.5002" width="159" height="26" rx="4.5" fill="url(#paint0_linear_23746_2126)"/>
<rect x="10.5" y="34.5002" width="159" height="26" rx="4.5" fill="url(#paint1_linear_23746_2126)"/>
<rect x="10.5" y="34.5002" width="159" height="26" rx="4.5" fill="url(#paint2_linear_23746_2126)"/>
<rect x="10.5" y="34.5002" width="159" height="26" rx="4.5" stroke="#151B1E" stroke-opacity="0.48"/>
<rect x="10.5" y="34.5002" width="159" height="26" rx="4.5" stroke="#151B1E" stroke-opacity="0.12"/>
<rect x="10.5" y="34.5002" width="159" height="26" rx="4.5" stroke="url(#paint3_linear_23746_2126)"/>
<rect x="11.2" y="35.2002" width="157.6" height="24.6" rx="3.8" stroke="#151B1E" stroke-opacity="0.32" stroke-width="0.4"/>
<circle cx="90" cy="47.5002" r="6.875" fill="url(#paint4_linear_23746_2126)"/>
<circle cx="90" cy="47.5002" r="6.875" stroke="#21242D" stroke-opacity="0.659052" stroke-width="0.75"/>
<circle cx="90" cy="47.5002" r="6.875" stroke="url(#paint5_linear_23746_2126)" stroke-width="0.75"/>
<path d="M90.0007 50.7C91.7554 50.7 93.1673 49.2615 93.1673 47.5C93.1673 45.7386 91.7554 44.3 90.0007 44.3C88.2459 44.3 86.834 45.7386 86.834 47.5C86.834 49.2615 88.2459 50.7 90.0007 50.7Z" fill="url(#paint6_linear_23746_2126)"/>
<path d="M90.0007 50.7C91.7554 50.7 93.1673 49.2615 93.1673 47.5C93.1673 45.7386 91.7554 44.3 90.0007 44.3C88.2459 44.3 86.834 45.7386 86.834 47.5C86.834 49.2615 88.2459 50.7 90.0007 50.7Z" stroke="url(#paint7_linear_23746_2126)"/>
<path d="M90.0007 50.7C91.7554 50.7 93.1673 49.2615 93.1673 47.5C93.1673 45.7386 91.7554 44.3 90.0007 44.3C88.2459 44.3 86.834 45.7386 86.834 47.5C86.834 49.2615 88.2459 50.7 90.0007 50.7Z" stroke="#16181C" stroke-opacity="0.64"/>
<path fill-rule="evenodd" clip-rule="evenodd" d="M91.6063 45.3442C92.1051 45.7258 92.4674 46.2807 92.6055 46.9205C92.2386 47.1017 91.4673 47.344 89.967 47.344C88.5946 47.344 87.8208 47.0806 87.4102 46.8557C87.5551 46.2564 87.8975 45.7357 88.3636 45.3683L89.7793 45.9893L91.6063 45.3442Z" fill="#2A2A35" fill-opacity="0.48"/>
<path opacity="0.96" fill-rule="evenodd" clip-rule="evenodd" d="M92.1526 45.908C92.4109 46.2656 92.5844 46.6899 92.6432 47.1506L92.1464 47.2421C92.0508 46.6479 91.7773 46.1669 91.7773 46.1669L92.1526 45.908Z" fill="white"/>
<path opacity="0.96" fill-rule="evenodd" clip-rule="evenodd" d="M87.3418 47.2922C87.3596 47.0554 87.4075 46.8271 87.4818 46.6113L87.7953 46.6863C87.7953 46.6863 87.5553 47.6064 87.6151 47.7902C87.6151 47.7902 87.3984 47.8459 87.39 47.7902C87.3564 47.6074 87.3431 47.44 87.3418 47.2922Z" fill="white"/>
<path opacity="0.96" fill-rule="evenodd" clip-rule="evenodd" d="M89.9957 42.1038C89.8593 42.106 89.75 42.2083 89.75 42.3338V43.0737C89.75 43.2008 89.8619 43.3038 90 43.3038C90.1381 43.3038 90.25 43.2008 90.25 43.0737V42.3338C90.25 42.2052 90.1354 42.1016 89.9957 42.1038Z" fill="white"/>
</g>
<defs>
<linearGradient id="paint0_linear_23746_2126" x1="10" y1="63.0947" x2="170" y2="63.0947" gradientUnits="userSpaceOnUse">
<stop stop-color="#C1C5C7"/>
<stop offset="1" stop-color="#9CA1A7"/>
</linearGradient>
<linearGradient id="paint1_linear_23746_2126" x1="75.026" y1="55.9465" x2="75.026" y2="61.0002" gradientUnits="userSpaceOnUse">
<stop stop-opacity="0.01"/>
<stop offset="1" stop-opacity="0.08"/>
</linearGradient>
<linearGradient id="paint2_linear_23746_2126" x1="31.6979" y1="41.3233" x2="31.6979" y2="61.0002" gradientUnits="userSpaceOnUse">
<stop stop-opacity="0.01"/>
<stop offset="1" stop-opacity="0.08"/>
</linearGradient>
<linearGradient id="paint3_linear_23746_2126" x1="10" y1="34.0002" x2="10" y2="61.0002" gradientUnits="userSpaceOnUse">
<stop stop-color="#E9E9E8"/>
<stop offset="1" stop-color="#E0E2E5"/>
</linearGradient>
<linearGradient id="paint4_linear_23746_2126" x1="88.0514" y1="51.6738" x2="96.3986" y2="51.6738" gradientUnits="userSpaceOnUse">
<stop stop-color="#4F5A6A"/>
<stop offset="1" stop-color="#555858"/>
</linearGradient>
<linearGradient id="paint5_linear_23746_2126" x1="82.75" y1="40.2502" x2="82.75" y2="54.7502" gradientUnits="userSpaceOnUse">
<stop stop-color="#D9D9DD"/>
<stop offset="1" stop-color="#C7C9CE"/>
</linearGradient>
<linearGradient id="paint6_linear_23746_2126" x1="87.334" y1="44.8" x2="87.334" y2="50.2" gradientUnits="userSpaceOnUse">
<stop stop-color="#767687"/>
<stop offset="1" stop-color="#626772"/>
</linearGradient>
<linearGradient id="paint7_linear_23746_2126" x1="87.334" y1="44.8" x2="87.334" y2="50.2" gradientUnits="userSpaceOnUse">
<stop stop-color="#353A43"/>
<stop offset="1" stop-color="#353A43"/>
</linearGradient>
<clipPath id="clip0_23746_2126">
<rect width="180" height="96" fill="white"/>
</clipPath>
</defs>
</svg>
