<svg width="180" height="96" viewBox="0 0 180 96" fill="none" xmlns="http://www.w3.org/2000/svg">
<g clip-path="url(#clip0_23746_2122)">
<rect x="26.25" y="11.25" width="127.5" height="80.5" rx="2.95" fill="#222222"/>
<rect x="26.25" y="11.25" width="127.5" height="80.5" rx="2.95" stroke="#DDDDDD" stroke-opacity="0.12" stroke-width="0.5"/>
<rect x="26.25" y="11.25" width="127.5" height="80.5" rx="2.95" stroke="black" stroke-width="0.5"/>
<rect x="26.25" y="11.25" width="127.5" height="80.5" rx="2.95" stroke="#979797" stroke-width="0.5"/>
<rect x="29.3691" y="17.75" width="121.263" height="67.5" rx="0.4" fill="#222222"/>
<rect x="29.3691" y="17.75" width="121.263" height="67.5" rx="0.4" fill="url(#paint0_linear_23746_2122)"/>
<rect x="26" y="11" width="128" height="81" rx="3.2" fill="url(#paint1_linear_23746_2122)" fill-opacity="0.8"/>
<path fill-rule="evenodd" clip-rule="evenodd" d="M138.335 88.0355C138.668 87.8683 139.036 87.7812 139.41 87.7812H149.41C149.852 87.7812 150.21 88.1394 150.21 88.5813V88.6687C150.21 89.1106 149.852 89.4688 149.41 89.4688H139.41C139.036 89.4688 138.668 89.3817 138.335 89.2145L137.515 88.8038C137.368 88.7301 137.368 88.5199 137.515 88.4462L138.335 88.0355Z" fill="white" fill-opacity="0.24"/>
<g filter="url(#filter0_i_23746_2122)">
<rect x="87.4746" y="13.3623" width="4.63158" height="2.7" rx="0.8" fill="#535353"/>
<rect x="87.4746" y="13.3623" width="4.63158" height="2.7" rx="0.8" fill="url(#paint2_angular_23746_2122)"/>
<rect x="87.4746" y="13.3623" width="4.63158" height="2.7" rx="0.8" fill="url(#paint3_radial_23746_2122)"/>
<rect x="87.4746" y="13.3623" width="4.63158" height="2.7" rx="0.8" fill="url(#paint4_radial_23746_2122)"/>
<rect x="87.4746" y="13.3623" width="4.63158" height="2.7" rx="0.8" fill="white" fill-opacity="0.12"/>
</g>
<g filter="url(#filter1_i_23746_2122)">
<ellipse cx="89.789" cy="14.5859" rx="1.05263" ry="1.05469" fill="#242424"/>
<ellipse cx="89.789" cy="14.5859" rx="1.05263" ry="1.05469" fill="url(#paint5_radial_23746_2122)"/>
</g>
<path d="M90.5916 14.5859C90.5916 15.0308 90.2318 15.3906 89.789 15.3906C89.3461 15.3906 88.9863 15.0308 88.9863 14.5859C88.9863 14.1411 89.3461 13.7812 89.789 13.7812C90.2318 13.7812 90.5916 14.1411 90.5916 14.5859Z" stroke="black" stroke-opacity="0.4" stroke-width="0.5"/>
<ellipse cx="89.789" cy="14.5859" rx="1.05263" ry="1.05469" fill="white" fill-opacity="0.08"/>
<g opacity="0.8">
<ellipse cx="89.9993" cy="88.5406" rx="1.17895" ry="1.18125" fill="white" fill-opacity="0.24"/>
<path d="M91.0782 88.5406C91.0782 89.138 90.595 89.6219 89.9993 89.6219C89.4036 89.6219 88.9203 89.138 88.9203 88.5406C88.9203 87.9433 89.4036 87.4594 89.9993 87.4594C90.595 87.4594 91.0782 87.9433 91.0782 88.5406Z" stroke="white" stroke-opacity="0.8" stroke-width="0.2"/>
</g>
<path fill-rule="evenodd" clip-rule="evenodd" d="M89.9991 88.0029C89.937 88.0029 89.8867 88.0572 89.8867 88.1241C89.8867 88.1909 89.937 88.2452 89.9991 88.2452C90.0611 88.2452 90.1114 88.1909 90.1114 88.1241C90.1114 88.0572 90.0611 88.0029 89.9991 88.0029ZM89.5869 88.0031C89.5249 88.0031 89.4746 88.0573 89.4746 88.1242C89.4746 88.1911 89.5249 88.2453 89.5869 88.2453C89.6489 88.2453 89.6993 88.1911 89.6993 88.1242C89.6993 88.0573 89.6489 88.0031 89.5869 88.0031ZM90.2988 88.1241C90.2988 88.0572 90.3492 88.0029 90.4112 88.0029C90.4732 88.0029 90.5235 88.0572 90.5235 88.1241C90.5235 88.1909 90.4732 88.2452 90.4112 88.2452C90.3492 88.2452 90.2988 88.1909 90.2988 88.1241ZM89.5869 88.4077C89.5249 88.4077 89.4746 88.462 89.4746 88.5288C89.4746 88.5957 89.5249 88.65 89.5869 88.65C89.6489 88.65 89.6993 88.5957 89.6993 88.5288C89.6993 88.462 89.6489 88.4077 89.5869 88.4077ZM89.8867 88.5289C89.8867 88.462 89.937 88.4077 89.9991 88.4077C90.0611 88.4077 90.1114 88.462 90.1114 88.5289C90.1114 88.5957 90.0611 88.65 89.9991 88.65C89.937 88.65 89.8867 88.5957 89.8867 88.5289ZM90.4112 88.4077C90.3492 88.4077 90.2988 88.462 90.2988 88.5289C90.2988 88.5957 90.3492 88.65 90.4112 88.65C90.4732 88.65 90.5235 88.5957 90.5235 88.5289C90.5235 88.462 90.4732 88.4077 90.4112 88.4077ZM89.4746 88.9336C89.4746 88.8667 89.5249 88.8124 89.5869 88.8124C89.6489 88.8124 89.6993 88.8667 89.6993 88.9336C89.6993 89.0004 89.6489 89.0547 89.5869 89.0547C89.5249 89.0547 89.4746 89.0004 89.4746 88.9336ZM89.9991 88.8125C89.937 88.8125 89.8867 88.8668 89.8867 88.9336C89.8867 89.0005 89.937 89.0548 89.9991 89.0548C90.0611 89.0548 90.1114 89.0005 90.1114 88.9336C90.1114 88.8668 90.0611 88.8125 89.9991 88.8125ZM90.2988 88.9336C90.2988 88.8668 90.3492 88.8125 90.4112 88.8125C90.4732 88.8125 90.5235 88.8668 90.5235 88.9336C90.5235 89.0005 90.4732 89.0548 90.4112 89.0548C90.3492 89.0548 90.2988 89.0005 90.2988 88.9336Z" fill="white"/>
</g>
<defs>
<filter id="filter0_i_23746_2122" x="87.4746" y="13.3623" width="4.63086" height="2.69995" filterUnits="userSpaceOnUse" color-interpolation-filters="sRGB">
<feFlood flood-opacity="0" result="BackgroundImageFix"/>
<feBlend mode="normal" in="SourceGraphic" in2="BackgroundImageFix" result="shape"/>
<feColorMatrix in="SourceAlpha" type="matrix" values="0 0 0 0 0 0 0 0 0 0 0 0 0 0 0 0 0 0 127 0" result="hardAlpha"/>
<feOffset/>
<feGaussianBlur stdDeviation="0.5"/>
<feComposite in2="hardAlpha" operator="arithmetic" k2="-1" k3="1"/>
<feColorMatrix type="matrix" values="0 0 0 0 0 0 0 0 0 0 0 0 0 0 0 0 0 0 0.5 0"/>
<feBlend mode="normal" in2="shape" result="effect1_innerShadow_23746_2122"/>
</filter>
<filter id="filter1_i_23746_2122" x="88.7363" y="13.5312" width="2.10547" height="2.10938" filterUnits="userSpaceOnUse" color-interpolation-filters="sRGB">
<feFlood flood-opacity="0" result="BackgroundImageFix"/>
<feBlend mode="normal" in="SourceGraphic" in2="BackgroundImageFix" result="shape"/>
<feColorMatrix in="SourceAlpha" type="matrix" values="0 0 0 0 0 0 0 0 0 0 0 0 0 0 0 0 0 0 127 0" result="hardAlpha"/>
<feOffset/>
<feGaussianBlur stdDeviation="0.5"/>
<feComposite in2="hardAlpha" operator="arithmetic" k2="-1" k3="1"/>
<feColorMatrix type="matrix" values="0 0 0 0 1 0 0 0 0 1 0 0 0 0 1 0 0 0 0.128114 0"/>
<feBlend mode="normal" in2="shape" result="effect1_innerShadow_23746_2122"/>
</filter>
<linearGradient id="paint0_linear_23746_2122" x1="-31.2624" y1="51.5" x2="26.1079" y2="154.565" gradientUnits="userSpaceOnUse">
<stop stop-color="white" stop-opacity="0.06"/>
<stop offset="1" stop-opacity="0.5"/>
</linearGradient>
<linearGradient id="paint1_linear_23746_2122" x1="-38" y1="51.5" x2="35.2018" y2="167.177" gradientUnits="userSpaceOnUse">
<stop stop-color="white" stop-opacity="0.2"/>
<stop offset="1" stop-opacity="0.5"/>
</linearGradient>
<radialGradient id="paint2_angular_23746_2122" cx="0" cy="0" r="1" gradientUnits="userSpaceOnUse" gradientTransform="translate(89.7904 14.7123) scale(2.31579 1.35)">
<stop offset="0.0933668" stop-color="white" stop-opacity="0.24281"/>
<stop offset="0.430152" stop-color="#FDFDFD" stop-opacity="0.380774"/>
<stop offset="0.492251" stop-color="#181818" stop-opacity="0.280318"/>
<stop offset="0.640658" stop-opacity="0.133633"/>
<stop offset="1" stop-color="#080808" stop-opacity="0.175215"/>
</radialGradient>
<radialGradient id="paint3_radial_23746_2122" cx="0" cy="0" r="1" gradientUnits="userSpaceOnUse" gradientTransform="translate(89.7904 14.4071) rotate(90) scale(1.65516 3.00904)">
<stop stop-color="white" stop-opacity="0.24448"/>
<stop offset="1" stop-opacity="0.0713032"/>
</radialGradient>
<radialGradient id="paint4_radial_23746_2122" cx="0" cy="0" r="1" gradientUnits="userSpaceOnUse" gradientTransform="translate(89.7904 16.0623) rotate(90) scale(1.12627 4.18846)">
<stop stop-opacity="0.747424"/>
<stop offset="1" stop-opacity="0.0713032"/>
</radialGradient>
<radialGradient id="paint5_radial_23746_2122" cx="0" cy="0" r="1" gradientUnits="userSpaceOnUse" gradientTransform="translate(89.789 14.3164) rotate(180) scale(0.913034 0.544203)">
<stop offset="0.0383174" stop-color="white" stop-opacity="0.248896"/>
<stop offset="1" stop-color="white" stop-opacity="0.01"/>
</radialGradient>
<clipPath id="clip0_23746_2122">
<rect width="180" height="96" fill="white"/>
</clipPath>
</defs>
</svg>
