<svg xmlns="http://www.w3.org/2000/svg" width="32" height="32" viewBox="0 0 32 32"><path d="M29 6h-3V3a1 1 0 1 0-2 0v3h-3a1 1 0 1 0 0 2h3v3a1 1 0 0 0 2 0V8h3a1 1 0 1 0 0-2ZM27 13.965a1 1 0 0 0-1 1v11.036a1 1 0 1 1-2 0v-11a1 1 0 1 0-2 0v11a3 3 0 0 0 6 0V14.965a.997.997 0 0 0-1-1ZM15.998 11A3.002 3.002 0 0 0 13 13.998v12.004A3.002 3.002 0 0 0 15.997 29h.004A3.001 3.001 0 0 0 19 26.002V13.998A3.002 3.002 0 0 0 15.998 11ZM17 26.002a.998.998 0 0 1-.998.998h-.003a.999.999 0 0 1-1-.998V13.998a1 1 0 0 1 2 0v12.004ZM7 6a3.003 3.003 0 0 0-3 3v17a3 3 0 1 0 6 0V9a3.003 3.003 0 0 0-3-3Zm1 20a1 1 0 1 1-2 0V9a1 1 0 0 1 2 0v17Z"/></svg>