<svg xmlns="http://www.w3.org/2000/svg" width="32" height="32" viewBox="0 0 32 32"><path d="M27.92 14.523a.5.5 0 0 0-.457.539 11.504 11.504 0 0 1-16.851 11.1.5.5 0 0 0-.525.034 7.118 7.118 0 0 1-6.59.853c.096-.071.207-.14.329-.217a6.414 6.414 0 0 0 2.864-3.7.5.5 0 0 0-.062-.465A11.501 11.501 0 0 1 16.96 4.54a.49.49 0 0 0 .54-.457.5.5 0 0 0-.458-.54A12.502 12.502 0 0 0 5.66 23.026a5.324 5.324 0 0 1-2.368 2.961c-.142.09-.272.173-.386.257a.978.978 0 0 0-.4.9.996.996 0 0 0 .586.81 7.277 7.277 0 0 0 2.884.553 8.026 8.026 0 0 0 4.439-1.32A12.504 12.504 0 0 0 28.459 14.98a.505.505 0 0 0-.539-.458Z"/><path d="M28.125 5a1.125 1.125 0 1 0 0-2.25 1.125 1.125 0 0 0 0 2.25ZM20.25 8.563a3.188 3.188 0 1 1 6.375 0 3.188 3.188 0 0 1-6.375 0Zm3.188-4.688a4.688 4.688 0 1 0 0 9.375 4.688 4.688 0 0 0 0-9.375Z"/><defs><linearGradient id="a" x1="30" x2="18" y1="2" y2="14" gradientUnits="userSpaceOnUse"><stop stop-color="#3CC29A"/><stop offset="1" stop-color="#0672EF"/></linearGradient></defs></svg>