<svg xmlns="http://www.w3.org/2000/svg" width="32" height="32" viewBox="0 0 32 32"><path d="M28.125 11a1.125 1.125 0 1 0 0-2.25 1.125 1.125 0 0 0 0 2.25Zm-7.875 3.563a3.188 3.188 0 1 1 6.375 0 3.188 3.188 0 0 1-6.375 0Zm3.188-4.688a4.688 4.688 0 1 0 0 9.375 4.688 4.688 0 0 0 0-9.375Z"/><path d="M25.668 3.63a4.99 4.99 0 0 1 2.607 2.49.75.75 0 0 1-1.336.683l-.002.001a3.49 3.49 0 0 0-5.65-1.031L4.824 22.238a.248.248 0 0 0-.073.176V27a.25.25 0 0 0 .25.25h4.585c.067 0 .13-.026.178-.073l7.695-7.695a.744.744 0 0 1 .024-.024l.041-.042.003.003a.75.75 0 0 1 1.055 1.055l.003.003-7.76 7.76a1.737 1.737 0 0 1-1.239.513H5A1.752 1.752 0 0 1 3.25 27v-4.586a1.737 1.737 0 0 1 .513-1.237L20.227 4.712a4.991 4.991 0 0 1 5.441-1.082Z"/><defs><linearGradient id="a" x1="30" x2="18" y1="8" y2="20" gradientUnits="userSpaceOnUse"><stop stop-color="#3CC29A"/><stop offset="1" stop-color="#0672EF"/></linearGradient></defs></svg>