<svg xmlns="http://www.w3.org/2000/svg" width="32" height="32" viewBox="0 0 32 32"><path d="M28.92 3.685a3.003 3.003 0 0 0-2.488-.637L6.74 6.8a5.79 5.79 0 0 0 0 11.387l.614.117 5.111 9.007a3.565 3.565 0 0 0 4.768 1.23 3.437 3.437 0 0 0 1.65-2.116 3.35 3.35 0 0 0-.34-2.58l-2.045-3.798 9.933 1.893a3.013 3.013 0 0 0 3.285-1.664c.187-.396.284-.828.283-1.267V5.98a2.968 2.968 0 0 0-1.08-2.294ZM16.95 25.908a1.452 1.452 0 0 1-.7.891 1.544 1.544 0 0 1-2.06-.498l-4.25-7.492 4.043.785 2.818 5.234a1.398 1.398 0 0 1 .15 1.08Zm11.05-6.899a.962.962 0 0 1-.356.752 1.008 1.008 0 0 1-.839.214L7.115 16.222a3.79 3.79 0 0 1 0-7.458l19.692-3.752a.998.998 0 0 1 .837.214.964.964 0 0 1 .356.752V19.01Z"/></svg>