<svg xmlns="http://www.w3.org/2000/svg" width="32" height="32" viewBox="0 0 32 32"><path d="M25 4H7a5.006 5.006 0 0 0-5 5v10a5.006 5.006 0 0 0 5 5h4l-.599.8A1.999 1.999 0 0 0 12 28h8a1.999 1.999 0 0 0 1.599-3.2l-.6-.8H25a5.006 5.006 0 0 0 5-5V9a5.006 5.006 0 0 0-5-5ZM12.945 14.37a1.835 1.835 0 0 1 2.598 0l.918.917a1.844 1.844 0 0 1 0 2.603l-.49.491c-.344.343-.814.513-1.257.58-.464.071-.991.046-1.552-.085-1.127-.263-2.435-.96-3.757-2.281-1.321-1.322-2.018-2.63-2.281-3.757a4.144 4.144 0 0 1-.086-1.552c.068-.443.238-.913.581-1.256l.49-.49a1.841 1.841 0 0 1 2.604 0l.918.917a1.838 1.838 0 0 1 0 2.597l-.006.006-.333.328.016.065c.072.264.217.564.446.793a1.82 1.82 0 0 0 .857.463l.334-.34Z"/></svg>