<svg xmlns="http://www.w3.org/2000/svg" width="32" height="32" viewBox="0 0 32 32"><path d="M12.5 3.5a6.002 6.002 0 0 0-5.556 8.27 5.98 5.98 0 0 0 .478.928.5.5 0 0 1-.845.535 6.984 6.984 0 0 1-.412-.752 3 3 0 0 1 0-5.962 7 7 0 0 1 12.234-.789.5.5 0 0 1-.842.54A5.995 5.995 0 0 0 12.5 3.5Zm-8 6a2 2 0 0 0 1.248 1.854A7.006 7.006 0 0 1 5.5 9.5c0-.642.086-1.263.248-1.854A2 2 0 0 0 4.5 9.5Zm5 0a3 3 0 1 0 6 0 3 3 0 0 0-6 0Zm7 0a5 5 0 1 1 5.47 8.348c3.183.923 5.53 3.582 5.53 6.795 0 1.448-1.212 2.407-2.658 2.982-1.484.59-3.426.875-5.341.875-1.916 0-3.858-.284-5.342-.875-1.446-.575-2.659-1.534-2.659-2.982 0-.75.129-1.472.367-2.148-2.43-.036-4.189-.285-5.374-.784-.65-.274-1.157-.635-1.499-1.104C4.65 20.133 4.5 19.588 4.5 19c0-1.955 1.118-3.59 2.64-4.715a9.313 9.313 0 0 1 3.106-1.48A4 4 0 1 1 16.5 9.5Zm-3.51 12.89a5.466 5.466 0 0 0-.49 2.253c0 .79.663 1.51 2.03 2.053 1.328.53 3.136.804 4.97.804 1.835 0 3.643-.275 4.972-.804 1.366-.543 2.028-1.262 2.028-2.053 0-3.338-3.074-6.143-7-6.143-2.824 0-5.208 1.453-6.323 3.512a.5.5 0 0 1-.188.378Zm4.04-4.542a5 5 0 0 1-2.523-4.089A8.32 8.32 0 0 0 12.5 13.5c-1.64 0-3.412.59-4.765 1.59C6.382 16.09 5.5 17.455 5.5 19c0 .412.101.742.302 1.018.206.281.543.545 1.08.771 1.064.448 2.797.7 5.43.71.95-1.73 2.66-3.053 4.719-3.65Zm2.47-.348a4 4 0 1 0 0-8 4 4 0 0 0 0 8Zm.533-11.983a.5.5 0 1 0-.066.998 7 7 0 0 1 5.726 10.251.5.5 0 0 0 .884.468c.153-.29.289-.59.406-.899a3 3 0 0 0 0-5.67 8.005 8.005 0 0 0-6.95-5.148Zm7.334 6.523c.39.365.633.884.633 1.46s-.243 1.095-.633 1.46a8.038 8.038 0 0 0 0-2.92Z"/></svg>