<svg xmlns="http://www.w3.org/2000/svg" width="32" height="32" viewBox="0 0 32 32"><path d="M6.362 4.508 4.77 6.106l-.002.001c-.253.253-.552.804-.691 1.717-.136.893-.107 2.058.215 3.438.642 2.755 2.438 6.324 6.281 10.166 3.842 3.841 7.412 5.638 10.168 6.28 1.381.322 2.547.352 3.441.215.913-.139 1.464-.437 1.717-.69l1.594-1.6a1.73 1.73 0 0 0 0-2.45l-2.981-2.98a1.72 1.72 0 0 0-2.43-.003l-.845.858c-.447.454-.948.962-1.149 1.162-.287.287-.664.362-.831.39a3.8 3.8 0 0 1-.74.039 8.3 8.3 0 0 1-1.857-.305c-1.383-.378-3.072-1.153-4.463-2.543-1.39-1.39-2.166-3.08-2.544-4.464a8.3 8.3 0 0 1-.305-1.857c-.008-.258.001-.511.04-.74.027-.165.102-.545.392-.832.198-.197.704-.696 1.16-1.145l.858-.846a1.72 1.72 0 0 0-.002-2.427L8.813 4.508a1.734 1.734 0 0 0-2.45 0m6.842 6.831-.86.849-.994.98q-.007.09-.003.244c.012.343.08.83.235 1.398.31 1.137.942 2.49 2.03 3.577 1.086 1.087 2.439 1.718 3.576 2.028a6.4 6.4 0 0 0 1.398.235q.155.004.246-.003l.98-.993.847-.86.006-.006a3.72 3.72 0 0 1 5.26 0l2.982 2.981a3.73 3.73 0 0 1 0 5.279l-1.592 1.598-.002.001c-.658.659-1.668 1.077-2.83 1.254-1.182.18-2.606.125-4.195-.245-3.184-.742-7.073-2.759-11.129-6.813-4.057-4.056-6.074-7.945-6.815-11.127-.37-1.589-.425-3.013-.244-4.194.177-1.161.596-2.17 1.254-2.829l1.594-1.6a3.733 3.733 0 0 1 5.28 0l2.981 2.982a3.72 3.72 0 0 1 .807 4.053 3.7 3.7 0 0 1-.807 1.206zm5.759 9.29-.026.006zm-7.595-7.593q0 .001-.006.026zM17 9a6 6 0 1 1 12 0 6 6 0 0 1-12 0m6-4a4 4 0 1 0 0 8 4 4 0 0 0 0-8m3 4a1 1 0 0 1-1 1h-4a1 1 0 1 1 0-2h4a1 1 0 0 1 1 1"/></svg>