<svg xmlns="http://www.w3.org/2000/svg" width="32" height="32" viewBox="0 0 32 32"><path d="m13.204 11.34-.86.848-.994.98q-.007.09-.003.244c.012.343.08.83.235 1.398.31 1.137.942 2.49 2.03 3.577 1.086 1.087 2.439 1.718 3.576 2.028a6.4 6.4 0 0 0 1.398.235q.155.004.246-.003l.98-.993.853-.866a3.72 3.72 0 0 1 5.26 0l2.982 2.981a3.73 3.73 0 0 1 0 5.279l-1.592 1.598-.002.001c-.658.659-1.668 1.077-2.83 1.254-1.182.18-2.606.125-4.195-.245-3.184-.742-7.073-2.759-11.129-6.813-4.057-4.056-6.074-7.945-6.815-11.127-.37-1.589-.425-3.013-.244-4.194.177-1.161.596-2.17 1.254-2.829l1.594-1.6a3.733 3.733 0 0 1 5.28 0l2.981 2.982a3.72 3.72 0 0 1 .807 4.053 3.7 3.7 0 0 1-.807 1.206zm5.759 9.289q0 0-.026.006zm-7.595-7.593q0 .001-.006.026zM17 9a6 6 0 1 1 12 0 6 6 0 0 1-12 0m2.5-1a1 1 0 1 0 0 2h7a1 1 0 1 0 0-2z"/></svg>