<svg xmlns="http://www.w3.org/2000/svg" width="32" height="32" viewBox="0 0 32 32"><path d="M6.009 4.154 4.416 5.753h-.001c-.355.355-.683 1.02-.832 1.995-.148.965-.112 2.195.222 3.628.666 2.862 2.518 6.51 6.415 10.406 3.895 3.894 7.545 5.746 10.408 6.413 1.433.334 2.664.37 3.63.223.975-.149 1.64-.477 1.995-.831l1.593-1.6a2.234 2.234 0 0 0 0-3.157l-2.981-2.981a2.22 2.22 0 0 0-3.138-.002l-.001.002-.002.001-.843.857c-.448.455-.948.96-1.146 1.16-.168.167-.407.224-.56.25-.185.03-.404.04-.64.032a7.8 7.8 0 0 1-1.743-.287c-1.322-.361-2.927-1.1-4.241-2.414-1.315-1.315-2.055-2.92-2.416-4.243a7.8 7.8 0 0 1-.287-1.742 3.3 3.3 0 0 1 .032-.64c.026-.153.083-.392.252-.56.198-.197.703-.695 1.158-1.143l.857-.845.002-.002a2.22 2.22 0 0 0 0-3.137L9.167 4.154a2.233 2.233 0 0 0-3.158 0m6.844 6.83-.86.848c-.427.42-.895.88-1.114 1.098l-.012.06a2.3 2.3 0 0 0-.02.439c.014.387.09.914.253 1.512.327 1.2.995 2.637 2.158 3.8s2.6 1.829 3.798 2.157a7 7 0 0 0 1.512.252q.294.007.44-.02l.061-.012c.218-.219.68-.686 1.1-1.113l.847-.86.003-.004a3.22 3.22 0 0 1 4.553 0l2.982 2.982a3.23 3.23 0 0 1 0 4.571l-1.593 1.6c-.557.556-1.453.945-2.553 1.112-1.11.17-2.47.12-4.007-.237-3.077-.717-6.886-2.679-10.888-6.68-4.004-4.003-5.966-7.81-6.682-10.887-.358-1.536-.406-2.895-.237-4.005.168-1.099.557-1.994 1.114-2.55l1.593-1.6a3.236 3.236 0 0 1 4.573 0l2.982 2.982a3.22 3.22 0 0 1 0 4.552zM17.5 9a5.5 5.5 0 1 1 11 0 5.5 5.5 0 0 1-11 0M23 4.5a4.5 4.5 0 1 0 0 9 4.5 4.5 0 0 0 0-9M19.5 9a.5.5 0 0 1 .5-.5h6a.5.5 0 0 1 0 1h-6a.5.5 0 0 1-.5-.5"/></svg>