<svg xmlns="http://www.w3.org/2000/svg" width="32" height="32" viewBox="0 0 32 32"><path d="M16 2.5a.5.5 0 0 1 .5.5v4.515c1.97.114 3.76.9 5.145 2.132h.002l3.5-3.5.078-.065a.5.5 0 0 1 .693.693l-.064.079-3.5 3.5h-.002a8.46 8.46 0 0 1 2.132 5.146H29a.5.5 0 0 1 0 1h-4.516a8.46 8.46 0 0 1-2.132 5.145l3.502 3.502.064.078a.5.5 0 0 1-.693.693l-.079-.064-3.501-3.502a8.46 8.46 0 0 1-5.145 2.132V29a.5.5 0 0 1-1 0v-4.516a8.46 8.46 0 0 1-5.145-2.132l-.002.002-3.5 3.5a.5.5 0 1 1-.707-.707l3.5-3.5.001-.002A8.46 8.46 0 0 1 7.516 16.5H3a.5.5 0 0 1 0-1h4.516c.114-1.97.9-3.76 2.131-5.145l-3.5-3.501-.065-.079a.5.5 0 0 1 .693-.693l.079.064 3.5 3.501A8.46 8.46 0 0 1 15.5 7.515V3a.5.5 0 0 1 .5-.5m-.5 6.019a7.499 7.499 0 0 0 0 14.962zm1 14.962a7.499 7.499 0 0 0 0-14.962z"/></svg>