<svg xmlns="http://www.w3.org/2000/svg" width="32" height="32" viewBox="0 0 32 32"><path d="M2.5 10.12C2.5 7.88 6.46 3.7 16 3.7S29.5 7.88 29.5 10.12v1.385c0 .682-.288 1.337-.8 1.82a2.816 2.816 0 0 1-1.929.755h-3.44a2.903 2.903 0 0 1-1.966-.736 2.587 2.587 0 0 1-.866-1.822L20.5 9.76A7.313 7.313 0 0 0 16 8.417a7.29 7.29 0 0 0-4.5 1.348v1.749a2.489 2.489 0 0 1-.789 1.81 2.797 2.797 0 0 1-1.913.755h-3.57a2.816 2.816 0 0 1-1.928-.754 2.506 2.506 0 0 1-.8-1.82V10.12Zm25.493 2.538c.324-.306.507-.721.507-1.153V10.12c0-1.612-3.597-5.478-12.5-5.478S3.5 8.508 3.5 10.12v1.385c0 .432.183.847.507 1.152.324.306.763.478 1.222.479h3.569a1.765 1.765 0 0 0 1.206-.48c.32-.303.498-.714.496-1.142v-1.83c0-.944 2.719-2.21 5.5-2.21s5.5 1.262 5.5 2.205v1.843c.027.44.233.851.574 1.152.34.3.79.465 1.257.462h3.44c.459 0 .898-.173 1.222-.478ZM16 14.55c.276 0 .5.212.5.472v5.21l2.626 2.478a.453.453 0 0 1 0 .667.521.521 0 0 1-.707 0l-2.773-2.616a.459.459 0 0 1-.146-.334v-5.405c0-.26.224-.472.5-.472Zm-8.727 1.446c.259.091.39.363.293.607A8.051 8.051 0 0 0 7 19.577c0 4.69 4.03 8.493 9 8.493s9-3.803 9-8.493c0-1.047-.2-2.049-.567-2.973a.464.464 0 0 1 .294-.607.509.509 0 0 1 .643.277 8.946 8.946 0 0 1 .63 3.303c0 5.211-4.477 9.437-10 9.437S6 24.788 6 19.577c0-1.162.222-2.275.63-3.303a.51.51 0 0 1 .643-.277Z"/></svg>