<svg xmlns="http://www.w3.org/2000/svg" width="32" height="32" viewBox="0 0 32 32"><path d="M28.919 9.511a1.76 1.76 0 0 0-1.77-.039l-3.398 2.16V10a4.756 4.756 0 0 0-4.75-4.75h-12A4.755 4.755 0 0 0 2.251 10v12a4.756 4.756 0 0 0 4.75 4.75h12a4.755 4.755 0 0 0 4.75-4.75v-1.634l3.465 2.199a1.75 1.75 0 0 0 2.532-1.566V11a1.74 1.74 0 0 0-.83-1.488m-6.667 12.49a3.254 3.254 0 0 1-3.25 3.25h-12A3.254 3.254 0 0 1 3.751 22V10a3.254 3.254 0 0 1 3.25-3.25h12a3.254 3.254 0 0 1 3.25 3.25zm5.997-1.002a.24.24 0 0 1-.12.214c-.043.026-.134.067-.174.048l-4.203-2.672v-5.18l4.135-2.633a.25.25 0 0 1 .361.223z"/></svg>