<svg xmlns="http://www.w3.org/2000/svg" width="32" height="32" viewBox="0 0 32 32"><path d="M23 3.25H7C4.38 3.25 2.25 5.38 2.25 8v10c0 2.62 2.13 4.75 4.75 4.75h8c.41 0 .75-.34.75-.75s-.34-.75-.75-.75H7c-1.79 0-3.25-1.46-3.25-3.25V8c0-1.79 1.46-3.25 3.25-3.25h16c1.79 0 3.25 1.46 3.25 3.25v8c0 .41.34.75.75.75s.75-.34.75-.75V8c0-2.62-2.13-4.75-4.75-4.75"/><path d="M19 9.25H9c-.41 0-.75.34-.75.75s.34.75.75.75h10c.41 0 .75-.34.75-.75s-.34-.75-.75-.75M8.25 14c0-.41.34-.75.75-.75h4c.41 0 .75.34.75.75s-.34.75-.75.75H9c-.41 0-.75-.34-.75-.75"/></svg>