<svg xmlns="http://www.w3.org/2000/svg" width="32" height="32" viewBox="0 0 32 32"><path d="M17.874 4.91a11.24 11.24 0 0 0-9.418 2.738 11.24 11.24 0 0 0-1.629 14.858.75.75 0 0 1 .107.65 6.95 6.95 0 0 1-2.832 3.805 6.82 6.82 0 0 0 5.798-.957.75.75 0 0 1 .472-.167h.003c.14 0 .275.04.39.11a11.242 11.242 0 0 0 16.31-11.822.75.75 0 0 1 1.48-.25q.045.273.08.548a12.741 12.741 0 0 1-18.21 13.032 8.31 8.31 0 0 1-7.438.71 1.25 1.25 0 0 1-.25-2.13 1 1 0 0 1 .105-.068 5.45 5.45 0 0 0 2.544-2.91A12.742 12.742 0 0 1 18.126 3.43a.75.75 0 0 1-.252 1.48"/></svg>