<svg xmlns="http://www.w3.org/2000/svg" width="32" height="32" viewBox="0 0 32 32"><path d="m19.704 4.643-.008.024-.036.113a7.57 7.57 0 0 0-.285 2.037c0 1.272.337 2.834 1.655 4.153s2.878 1.655 4.146 1.655a7.5 7.5 0 0 0 2.03-.285l.112-.035.023-.008.003-.001.07-.022a.75.75 0 0 1 .917.548 12.74 12.74 0 0 1-1.853 10.405 12.74 12.74 0 0 1-16.053 4.228 8.31 8.31 0 0 1-7.438.71 1.25 1.25 0 0 1-.25-2.13 1 1 0 0 1 .105-.068 5.45 5.45 0 0 0 2.544-2.91A12.742 12.742 0 0 1 19.204 3.663a.746.746 0 0 1 .511.949z"/></svg>