<svg xmlns="http://www.w3.org/2000/svg" width="32" height="32" viewBox="0 0 32 32"><path d="M29 26h-3.237a13.98 13.98 0 1 0-17.229 1.846 1 1 0 0 0 1.069-1.692A12.016 12.016 0 1 1 24 24.925V21a1 1 0 1 0-2 0v6a1 1 0 0 0 1 1h6a1 1 0 1 0 0-2Z"/><path d="M11.722 20h2.028v-9.1h-2.015l-2.093 1.105v1.833l2.08-1.066V20ZM18.75 20.195c2.105 0 3.457-1.43 3.457-4.719 0-3.38-1.326-4.771-3.457-4.771-2.133 0-3.459 1.391-3.459 4.771 0 3.289 1.352 4.719 3.459 4.719Zm0-1.378c-.858 0-1.366-.715-1.366-3.341 0-2.626.508-3.406 1.366-3.406.858 0 1.364.78 1.364 3.406 0 2.626-.506 3.341-1.364 3.341Z"/></svg>