<svg xmlns="http://www.w3.org/2000/svg" width="32" height="32" viewBox="0 0 32 32"><path fill-rule="evenodd" d="M18.973 4.545c2.16.624 4.177 1.545 5.557 2.925 2.691 2.691 3.48 6.178 3.217 9.342-.234 2.813-1.307 5.456-2.713 7.162l3.496 3.496a.75.75 0 1 1-1.06 1.06l-3.496-3.496c-1.706 1.407-4.349 2.48-7.162 2.714-3.164.263-6.651-.526-9.343-3.218-1.38-1.38-2.3-3.396-2.924-5.556-.628-2.173-.978-4.57-1.168-6.785a61 61 0 0 1-.129-8.191l.002-.035.001-.009v-.003l.749.05-.05-.75h.013l.034-.002a22 22 0 0 1 .626-.031 61.252 61.252 0 0 1 7.566.16c2.214.19 4.61.54 6.784 1.167m7.28 12.143c-.21 2.501-1.149 4.782-2.285 6.219l-2.218-2.218V13a.75.75 0 0 0-1.5 0v6.19l-2.5-2.5V10a.75.75 0 0 0-1.5 0v5.19l-2.5-2.5V8a.75.75 0 0 0-1.5 0v3.19L8.53 7.47a.75.75 0 0 0-1.06 1.06l3.72 3.72H8a.75.75 0 0 0 0 1.5h4.69l2.5 2.5H10a.75.75 0 0 0 0 1.5h6.69l2.5 2.5H13a.75.75 0 0 0 0 1.5h7.69l2.217 2.218c-1.437 1.137-3.718 2.076-6.22 2.285-2.836.236-5.849-.475-8.157-2.783-1.12-1.12-1.95-2.854-2.544-4.912-.591-2.046-.929-4.336-1.114-6.497a60 60 0 0 1-.157-7.346 59.753 59.753 0 0 1 7.346.157c2.16.186 4.45.523 6.496 1.114 2.059.595 3.793 1.425 4.912 2.544 2.309 2.309 3.02 5.322 2.783 8.158" clip-rule="evenodd"/><path d="M3.95 3.252a.75.75 0 0 0-.699.698L4 4z"/></svg>