<svg xmlns="http://www.w3.org/2000/svg" width="32" height="32" viewBox="0 0 32 32"><path fill-rule="evenodd" d="M19.043 4.305c2.177.629 4.24 1.564 5.664 2.988 2.755 2.756 3.558 6.321 3.29 9.54-.23 2.76-1.255 5.37-2.628 7.122l3.338 3.338a1 1 0 0 1-1.414 1.414l-3.338-3.337c-1.753 1.373-4.363 2.397-7.122 2.627-3.22.268-6.785-.535-9.54-3.29-1.424-1.423-2.36-3.486-2.988-5.664-.635-2.194-.986-4.609-1.177-6.832a61.501 61.501 0 0 1-.13-8.229l.003-.035v-.012L4 4l-.997-.066a1 1 0 0 1 .932-.932L3.999 4l-.065-.998H3.947l.035-.003a21.748 21.748 0 0 1 .63-.031 61.497 61.497 0 0 1 7.598.161c2.224.19 4.638.542 6.833 1.176Zm6.96 12.362c-.194 2.333-1.036 4.46-2.061 5.86L22 20.587V13a1 1 0 1 0-2 0v5.586l-2-2V10a1 1 0 1 0-2 0v4.586l-2-2V8a1 1 0 1 0-2 0v2.586L8.707 7.293a1 1 0 0 0-1.414 1.414L10.586 12H8a1 1 0 1 0 0 2h4.586l2 2H10a1 1 0 1 0 0 2h6.586l2 2H13a1 1 0 1 0 0 2h7.586l1.942 1.942c-1.4 1.025-3.528 1.867-5.862 2.061-2.78.232-5.715-.466-7.96-2.71-1.076-1.076-1.89-2.763-2.48-4.805-.585-2.023-.92-4.297-1.105-6.448a59.503 59.503 0 0 1-.166-7.084 59.502 59.502 0 0 1 7.084.166c2.152.184 4.425.52 6.449 1.104 2.041.59 3.728 1.405 4.805 2.481 2.244 2.245 2.942 5.179 2.71 7.96Z" clip-rule="evenodd"/></svg>