<svg xmlns="http://www.w3.org/2000/svg" width="32" height="32" viewBox="0 0 32 32"><path d="M28.803 11.788A5 5 0 0 1 30 15.008a5.01 5.01 0 0 1-4.191 4.905 10.03 10.03 0 0 1-6.865 7.643 2.986 2.986 0 1 1-.332-2.003A8.01 8.01 0 0 0 24 18v-6a8 8 0 0 0-16 0l.003 7.005a1 1 0 0 1-1 1.003 4.996 4.996 0 0 1-.818-9.925 9.998 9.998 0 0 1 19.628.012 5 5 0 0 1 2.99 1.693M16 10a1 1 0 0 1 1 1v5.586l2.293-2.293a1 1 0 0 1 1.414 1.414l-4 4a1 1 0 0 1-1.414 0l-4-4a1 1 0 0 1 1.414-1.414L15 16.586V11a1 1 0 0 1 1-1"/></svg>