<svg xmlns="http://www.w3.org/2000/svg" width="32" height="32" viewBox="0 0 32 32"><path d="M16.955 3.537c-4.287-.39-7.991 2.357-8.458 6.557a.5.5 0 0 1-.994-.11c.533-4.8 4.775-7.877 9.542-7.443 2.456.223 4.352 1.476 5.64 3.155a.5.5 0 0 1-.794.608c-1.141-1.487-2.795-2.573-4.936-2.767Zm-2.076 3.017c1.53-.383 3.859.014 5.17 1.631a.5.5 0 1 1-.777.63c-1.012-1.248-2.905-1.603-4.15-1.291-1.47.367-2.245 1.412-2.664 2.504-.3.78-.405 1.558-.44 2.056.996.173 2.037.818 2.712 1.723a.5.5 0 1 1-.802.598c-.637-.854-1.655-1.366-2.428-1.366a.5.5 0 0 1-.5-.5c0-.365.037-1.601.524-2.87.492-1.279 1.466-2.643 3.355-3.115Zm9.305 4.255a.5.5 0 0 1 .522.477 8.278 8.278 0 0 1-.22 2.374c-.529 2.11-1.703 3.798-2.978 5.2a31.482 31.482 0 0 1-1.935 1.92l-.454.418c-.46.423-.887.815-1.265 1.194-.348.349-.53.753-.644 1.235-.085.357-.126.723-.172 1.136-.02.175-.04.358-.066.552-.167 1.283-.516 2.744-2.152 4.108-2.043 1.702-5.663 1.196-7.039-2.008a.5.5 0 0 1 .92-.395c1.108 2.582 3.944 2.914 5.479 1.634 1.364-1.136 1.65-2.309 1.8-3.468.02-.153.038-.313.057-.475.049-.437.1-.894.2-1.314.142-.602.392-1.194.91-1.712.394-.395.843-.807 1.308-1.234l.44-.405a30.518 30.518 0 0 0 1.873-1.858c1.216-1.338 2.275-2.881 2.747-4.77a7.282 7.282 0 0 0 .192-2.087.5.5 0 0 1 .477-.522ZM28.854 3.146a.5.5 0 0 1 0 .708l-25 25a.5.5 0 1 1-.708-.708l25-25a.5.5 0 0 1 .708 0ZM12 15.5a.5.5 0 1 1-1 0 .5.5 0 0 1 1 0Z"/><path d="M13.658 23.526a.5.5 0 0 1 .316.632c-.232.696-.677 1.307-1.317 1.666-.649.363-1.447.44-2.315.15a.5.5 0 1 1 .316-.948c.632.21 1.134.137 1.51-.075.385-.216.69-.605.858-1.11a.5.5 0 0 1 .632-.315Z"/></svg>