<svg xmlns="http://www.w3.org/2000/svg" width="32" height="32" viewBox="0 0 32 32"><path d="M16.932 3.786c-4.166-.38-7.737 2.286-8.187 6.335a.75.75 0 1 1-1.49-.165c.55-4.95 4.925-8.109 9.813-7.664a8.05 8.05 0 0 1 5.087 2.414.75.75 0 0 1-1.07 1.052 6.551 6.551 0 0 0-4.153-1.972ZM14.818 6.31c1.352-.338 3.244-.098 4.635.955a.75.75 0 0 1-.906 1.196c-.993-.753-2.409-.935-3.365-.696-1.363.341-2.09 1.307-2.49 2.351a6.945 6.945 0 0 0-.406 1.767 4.608 4.608 0 0 1 1.663.796.75.75 0 0 1-.898 1.202c-.53-.396-1.107-.593-1.55-.593a.75.75 0 0 1-.75-.75c0-.377.037-1.65.54-2.96.51-1.325 1.533-2.77 3.527-3.268Zm9.433 5.482a.75.75 0 0 1 .669.823 7.902 7.902 0 0 1-.192 1.105c-.542 2.165-1.745 3.889-3.035 5.308-.645.709-1.319 1.35-1.95 1.934l-.458.422c-.46.422-.88.81-1.254 1.183-.306.307-.471.664-.578 1.116-.08.343-.12.686-.165 1.091-.02.178-.041.367-.068.573-.17 1.314-.535 2.846-2.24 4.267-1.914 1.595-5.117 1.36-6.837-1.046a.75.75 0 0 1 1.22-.873c1.212 1.695 3.412 1.804 4.657.766 1.295-1.08 1.566-2.18 1.713-3.308l.054-.456c.05-.442.104-.923.206-1.358.15-.633.417-1.271.976-1.831.4-.4.854-.818 1.32-1.245l.435-.402a30.234 30.234 0 0 0 1.86-1.843c1.2-1.32 2.23-2.828 2.689-4.662.07-.285.123-.585.155-.895a.75.75 0 0 1 .823-.67ZM29.03 2.97a.75.75 0 0 1 0 1.06l-25 25a.75.75 0 0 1-1.06-1.06l25-25a.75.75 0 0 1 1.06 0ZM12.25 15.5a.75.75 0 1 1-1.5 0 .75.75 0 0 1 1.5 0Z"/><path d="M13.737 23.288a.75.75 0 0 1 .475.95c-.248.743-.729 1.409-1.432 1.804-.717.402-1.59.479-2.517.17a.75.75 0 0 1 .474-1.424c.573.191 1 .118 1.309-.055.321-.18.59-.514.743-.97a.75.75 0 0 1 .948-.475Z"/></svg>