<svg xmlns="http://www.w3.org/2000/svg" width="32" height="32" viewBox="0 0 32 32"><path d="M16.91 4.035c-4.046-.368-7.483 2.214-7.916 6.114a1 1 0 1 1-1.988-.22c.567-5.1 5.076-8.342 10.085-7.886a8.264 8.264 0 0 1 4.542 1.848 1 1 0 1 1-1.266 1.548 6.265 6.265 0 0 0-3.457-1.404Zm-2.152 2.034c1.179-.295 2.707-.168 4.009.48a1 1 0 0 1-.892 1.79c-.877-.437-1.917-.51-2.632-.33-1.258.314-1.935 1.2-2.318 2.198a6.546 6.546 0 0 0-.366 1.492c.318.093.627.224.919.383a1 1 0 1 1-.956 1.757c-.384-.21-.747-.3-1.022-.3a1 1 0 0 1-1-1c0-.39.038-1.697.558-3.05.527-1.372 1.6-2.896 3.7-3.42Zm9.338 7.3a1 1 0 0 1 .62 1.27c-.676 1.962-1.872 3.538-3.099 4.84a36.157 36.157 0 0 1-1.83 1.784l-.33.304c-.462.424-.88.808-1.25 1.178-.263.264-.41.575-.51.997-.078.327-.114.65-.159 1.045-.02.18-.042.375-.07.593-.175 1.345-.555 2.95-2.328 4.427-1.76 1.466-4.53 1.463-6.411-.212a1 1 0 0 1 1.33-1.493c1.159 1.032 2.82.986 3.8.168 1.228-1.022 1.483-2.051 1.626-3.148.017-.135.034-.283.051-.437.05-.446.108-.951.214-1.403.156-.662.441-1.348 1.042-1.95.404-.404.861-.824 1.325-1.25l.315-.29a34.215 34.215 0 0 0 1.73-1.685c1.127-1.197 2.116-2.532 2.663-4.12a1 1 0 0 1 1.27-.619ZM29.207 2.793a1 1 0 0 1 0 1.414l-25 25a1 1 0 0 1-1.414-1.414l25-25a1 1 0 0 1 1.414 0ZM12.5 15.5a1 1 0 1 1-2 0 1 1 0 0 1 2 0Z"/><path d="M13.816 23.051a1 1 0 0 1 .633 1.265c-.264.792-.78 1.513-1.547 1.944-.785.44-1.731.517-2.718.189a1 1 0 1 1 .633-1.898c.513.172.867.099 1.107-.036.258-.144.492-.423.628-.831a1 1 0 0 1 1.264-.633Z"/></svg>