<svg xmlns="http://www.w3.org/2000/svg" width="32" height="32" viewBox="0 0 32 32"><path fill-rule="evenodd" d="M9.27 7.066a7.002 7.002 0 0 1 13.46 0 4.001 4.001 0 0 1 0 7.868 6.039 6.039 0 0 1-.039.127C26.964 16.645 29 19.81 29 23c0 2.52-1.613 4.305-3.95 5.405C22.739 29.493 19.573 30 16 30c-3.572 0-6.738-.507-9.05-1.595C4.612 27.305 3 25.52 3 23c0-3.19 2.037-6.355 6.309-7.939a6.845 6.845 0 0 1-.038-.127 4.001 4.001 0 0 1 0-7.868ZM10 8a1 1 0 0 1 1 1v4a1 1 0 1 1-2 0V9a1 1 0 0 1 1-1Zm12 0a1 1 0 0 1 1 1v4a1 1 0 1 1-2 0V9a1 1 0 0 1 1-1Zm-7 11a1 1 0 1 1 2 0 1 1 0 0 1-2 0Zm1-3a3 3 0 1 0 2.961 3.485 6.89 6.89 0 0 0 2.023-1.449 7.2 7.2 0 0 0 1.148-1.556 1 1 0 0 0-1.754-.96 5.196 5.196 0 0 1-.83 1.124l-.003.003c-.294.304-.625.569-.986.787A2.998 2.998 0 0 0 16 16Z" clip-rule="evenodd"/></svg>