<svg xmlns="http://www.w3.org/2000/svg" width="32" height="32" viewBox="0 0 32 32"><path d="M17.023 28.25h1.98a.75.75 0 1 1 0 1.5h-16a.75.75 0 1 1 0-1.5h9.72a6.67 6.67 0 0 1-2.436-4.549 5.754 5.754 0 0 1-5.037-5.7V8a5.75 5.75 0 1 1 11.5 0v10a5.75 5.75 0 0 1-4.932 5.684 5.114 5.114 0 0 0 5.205 4.565M15.25 18V8q0-.15-.01-.299A4.25 4.25 0 0 0 6.75 8v10a4.25 4.25 0 0 0 8.5 0M25.048 7.901a.75.75 0 0 1 .658-.122l3.5 1a.75.75 0 0 1-.412 1.442l-2.544-.727V16.5a3.25 3.25 0 1 1-1.5-2.74V8.5a.75.75 0 0 1 .298-.599M23 14.75a1.75 1.75 0 1 0 0 3.5 1.75 1.75 0 0 0 0-3.5"/></svg>