<svg xmlns="http://www.w3.org/2000/svg" width="32" height="32" viewBox="0 0 32 32"><path d="M5 8.126c0-3.292 2.686-5.96 6-5.96s6 2.668 6 5.96v9.934c0 2.926-2.124 5.36-4.924 5.864.14.816.481 1.657 1.107 2.352.837.929 2.293 1.717 4.817 1.717h1c.552 0 1 .445 1 .994a.997.997 0 0 1-1 .993H3c-.552 0-1-.445-1-.993a.997.997 0 0 1 1-.994h9.079a6.303 6.303 0 0 1-.387-.393c-1.003-1.113-1.479-2.442-1.633-3.653C7.192 23.498 5 21.033 5 18.06V8.126Zm6 13.907c2.21 0 4-1.779 4-3.973V8.126c0-2.195-1.79-3.974-4-3.974s-4 1.78-4 3.974v9.934c0 2.194 1.79 3.973 4 3.973ZM22.5 13.59c.552 0 1 .444 1 .993v1.49H25c.552 0 1 .445 1 .993a.997.997 0 0 1-1 .994h-1.5v1.49a.997.997 0 0 1-1 .993c-.552 0-1-.445-1-.993v-1.49H20c-.552 0-1-.445-1-.994a.997.997 0 0 1 1-.993h1.5v-1.49a.997.997 0 0 1 1-.994ZM27.5 7.132a.997.997 0 0 0-1-.993c-.552 0-1 .445-1 .993v1.49H24c-.552 0-1 .445-1 .994 0 .549.448.993 1 .993h1.5v1.49c0 .549.448.994 1 .994s1-.445 1-.994v-1.49H29c.552 0 1-.444 1-.993a.997.997 0 0 0-1-.993h-1.5v-1.49Z"/></svg>