<svg xmlns="http://www.w3.org/2000/svg" width="32" height="33" viewBox="0 0 32 33"><path d="M5.5 8.815C5.5 5.797 7.962 3.35 11 3.35s5.5 2.446 5.5 5.464v9.933c0 2.844-2.187 5.18-4.98 5.44.084 1.038.458 2.183 1.29 3.108.95 1.054 2.553 1.883 5.19 1.883h1c.276 0 .5.222.5.497a.498.498 0 0 1-.5.496H3a.498.498 0 0 1-.5-.497c0-.274.224-.496.5-.496h10.607a5.962 5.962 0 0 1-1.542-1.221c-1.028-1.142-1.461-2.539-1.548-3.767-2.811-.243-5.017-2.587-5.017-5.443V8.815ZM11 23.218c2.485 0 4.5-2 4.5-4.47V8.815c0-2.47-2.015-4.47-4.5-4.47s-4.5 2-4.5 4.47v9.933c0 2.47 2.015 4.47 4.5 4.47ZM22.5 14.775c.276 0 .5.222.5.496v1.987h2c.276 0 .5.223.5.497a.498.498 0 0 1-.5.497h-2v1.986a.498.498 0 0 1-.5.497.498.498 0 0 1-.5-.497v-1.986h-2a.498.498 0 0 1-.5-.497c0-.274.224-.497.5-.497h2v-1.986c0-.275.224-.497.5-.497ZM27 7.821a.498.498 0 0 0-.5-.497c-.276 0-.5.223-.5.497v1.987h-2c-.276 0-.5.222-.5.497 0 .274.224.496.5.496h2v1.987c0 .274.224.497.5.497s.5-.223.5-.497v-1.987h2c.276 0 .5-.222.5-.496a.498.498 0 0 0-.5-.497h-2V7.82Z"/></svg>