<svg xmlns="http://www.w3.org/2000/svg" width="32" height="32" viewBox="0 0 32 32"><path d="M11 2.166c-3.314 0-6 2.668-6 5.96v9.934c0 2.973 2.192 5.438 5.059 5.887.154 1.211.63 2.54 1.633 3.653.122.136.251.267.387.393H3c-.552 0-1 .445-1 .994 0 .548.448.993 1 .993h16c.552 0 1-.445 1-.993a.997.997 0 0 0-1-.994h-1c-2.524 0-3.98-.788-4.817-1.717-.626-.695-.967-1.536-1.107-2.352C14.876 23.42 17 20.986 17 18.06V8.126c0-3.292-2.686-5.96-6-5.96Zm4 15.894c0 2.194-1.79 3.973-4 3.973s-4-1.779-4-3.973V8.126c0-2.195 1.79-3.974 4-3.974s4 1.78 4 3.974v9.934ZM24.5 13.427V8.646l.01-.164a.991.991 0 0 1 .79-.833 1 1 0 0 1 .498.025l3.477.987c.53.15.838.7.687 1.228a1 1 0 0 1-1.237.682L26.5 9.94v6.63c0 1.92-1.567 3.477-3.5 3.477s-3.5-1.556-3.5-3.476 1.567-3.477 3.5-3.477c.537 0 1.045.12 1.5.334Zm0 3.143c0-.823-.672-1.49-1.5-1.49s-1.5.667-1.5 1.49c0 .822.672 1.49 1.5 1.49s1.5-.668 1.5-1.49Z"/><path d="M24.51 8.482a.992.992 0 0 0-.01.14v.024a.98.98 0 0 1 .01-.164Z"/></svg>