<svg xmlns="http://www.w3.org/2000/svg" width="32" height="33" viewBox="0 0 32 33"><path d="M11 3.351c-3.038 0-5.5 2.446-5.5 5.464v9.933c0 2.856 2.206 5.2 5.017 5.443.087 1.228.52 2.625 1.548 3.767.419.465.929.88 1.542 1.22H3c-.276 0-.5.223-.5.497 0 .275.224.497.5.497h16c.276 0 .5-.222.5-.497a.498.498 0 0 0-.5-.496h-1c-2.637 0-4.24-.83-5.19-1.883-.832-.925-1.206-2.07-1.29-3.108 2.793-.26 4.98-2.596 4.98-5.44V8.815c0-3.018-2.462-5.464-5.5-5.464Zm4.5 15.397c0 2.47-2.015 4.47-4.5 4.47s-4.5-2-4.5-4.47V8.815c0-2.47 2.015-4.47 4.5-4.47s4.5 2 4.5 4.47v9.933ZM25 15.037V9.323a.488.488 0 0 1 .045-.218.5.5 0 0 1 .597-.27l3.495.992a.496.496 0 1 1-.274.955L26 9.97v7.288a2.99 2.99 0 0 1-3 2.98 2.99 2.99 0 0 1-3-2.98 2.99 2.99 0 0 1 3-2.98 3 3 0 0 1 2 .759Zm0 2.221a1.993 1.993 0 0 0-2-1.986c-1.105 0-2 .889-2 1.986 0 1.098.895 1.987 2 1.987s2-.89 2-1.987Z"/></svg>