<svg xmlns="http://www.w3.org/2000/svg" width="32" height="32" fill="none" viewBox="0 0 32 32"><path fill="#DB1F2E" d="M18 23.749a.75.75 0 0 1-.53-.219l-15-15a.75.75 0 0 1 1.06-1.06l1.72 1.72V8a5.75 5.75 0 1 1 11.5 0v10a5.6 5.6 0 0 1-.475 2.214l2.255 2.256a.75.75 0 0 1-.53 1.279M7.993 4.995A4.25 4.25 0 0 0 6.75 8v2.69l8.353 8.352A4 4 0 0 0 15.249 18V8a4.25 4.25 0 0 0-7.255-3.005M17.021 28.25H19a.75.75 0 1 1 0 1.5H3a.75.75 0 0 1 0-1.5h9.72a6.67 6.67 0 0 1-2.436-4.55A5.755 5.755 0 0 1 5.25 18v-4.547l1.5 1.5V18a4.243 4.243 0 0 0 6.59 3.542l1.063 1.064c-.76.57-1.65.94-2.588 1.08a5.114 5.114 0 0 0 5.206 4.564M26.5 6.25a.75.75 0 0 1 .75.75v1.75H29a.75.75 0 0 1 0 1.5h-1.75V12a.75.75 0 0 1-1.5 0v-1.75H24a.75.75 0 0 1 0-1.5h1.75V7a.75.75 0 0 1 .75-.75M22.5 13.75a.75.75 0 0 1 .75.75v1.75H25a.75.75 0 0 1 0 1.5h-1.75v1.75a.75.75 0 0 1-1.5 0v-1.75H20a.75.75 0 0 1 0-1.5h1.75V14.5a.75.75 0 0 1 .75-.75"/></svg>