<svg xmlns="http://www.w3.org/2000/svg" width="32" height="32" fill="none" viewBox="0 0 32 32"><path fill="#DB1F2E" d="M17.293 23.707a1 1 0 0 0 1.414-1.414l-2.122-2.122A5.9 5.9 0 0 0 17 18V8A6 6 0 1 0 5 8v.586L3.707 7.293a1 1 0 1 0-1.414 1.414zM7 8a4 4 0 1 1 8 0v10q-.005.27-.05.537L7 10.586zM19 28H17.02a4.88 4.88 0 0 1-4.936-4.104 6 6 0 0 0 1.878-.692l-1.492-1.493A3.983 3.983 0 0 1 7 18v-1.76l-2-2V18a6.004 6.004 0 0 0 5.064 5.92A6.9 6.9 0 0 0 12.065 28H3a1 1 0 0 0 0 2h16a1 1 0 1 0 0-2"/><path fill="#000" fill-opacity=".95" d="M28 11v-1a3 3 0 0 0-6 0v1a2 2 0 0 0-2 2v4a2 2 0 0 0 2 2h6a2.003 2.003 0 0 0 2-2v-4a2.003 2.003 0 0 0-2-2m-4-1a1 1 0 0 1 2 0v1h-2zm-2 7v-4h6l.002 4z"/></svg>