<svg xmlns="http://www.w3.org/2000/svg" width="32" height="31" viewBox="0 0 32 31"><path d="M28 22.281h-3v-2.906a.953.953 0 0 0-.293-.685 1.016 1.016 0 0 0-.707-.284c-.265 0-.52.102-.707.284a.954.954 0 0 0-.293.685v2.906h-3c-.265 0-.52.102-.707.284a.954.954 0 0 0-.293.685c0 .257.105.503.293.685.188.181.442.284.707.284h3v2.906c0 .257.105.503.293.685.188.181.442.284.707.284.265 0 .52-.103.707-.284a.953.953 0 0 0 .293-.685v-2.907h3c.265 0 .52-.102.707-.283A.953.953 0 0 0 29 23.25a.953.953 0 0 0-.293-.685A1.016 1.016 0 0 0 28 22.28Z"/><path d="M18.847 26.847c-5.049.771-10.735-.061-12.945-1.893a2.143 2.143 0 0 1-.643-.713A2.07 2.07 0 0 1 5 23.327c0-4.768 4.58-8.796 10-8.796 2.31 0 4.556.736 6.39 2.094a1.024 1.024 0 0 0 1.403-.175.946.946 0 0 0-.182-1.359 12.532 12.532 0 0 0-3.654-1.873 6.299 6.299 0 0 0 2.264-3.17 6.11 6.11 0 0 0-.067-3.853A6.317 6.317 0 0 0 18.782 3.1a6.644 6.644 0 0 0-3.79-1.176 6.643 6.643 0 0 0-3.785 1.184 6.316 6.316 0 0 0-2.365 3.1 6.11 6.11 0 0 0-.058 3.853 6.3 6.3 0 0 0 2.271 3.165C6.422 14.725 3 18.74 3 23.327c.013.6.164 1.189.441 1.725a4.075 4.075 0 0 0 1.162 1.375c2.216 1.837 6.445 2.63 10.44 2.63a27.785 27.785 0 0 0 4.114-.296.99.99 0 0 0 .653-.387.956.956 0 0 0 .18-.72.949.949 0 0 0-.399-.633 1.015 1.015 0 0 0-.744-.174ZM10.5 8.234c0-.862.264-1.705.758-2.422a4.473 4.473 0 0 1 2.02-1.605 4.635 4.635 0 0 1 2.6-.249 4.547 4.547 0 0 1 2.304 1.194 4.32 4.32 0 0 1 1.232 2.232 4.233 4.233 0 0 1-.256 2.518A4.393 4.393 0 0 1 17.5 11.86c-.74.479-1.61.735-2.5.735a4.58 4.58 0 0 1-3.18-1.279 4.296 4.296 0 0 1-1.32-3.08Z"/></svg>