<svg xmlns="http://www.w3.org/2000/svg" width="32" height="32" viewBox="0 0 32 32"><path d="M16 2.5A13.5 13.5 0 1 0 29.5 16 13.515 13.515 0 0 0 16 2.5Zm0 26A12.5 12.5 0 1 1 28.5 16 12.514 12.514 0 0 1 16 28.5Z"/><path d="M19.5 13a3.5 3.5 0 1 0-6.638 1.555c.24.483.59.903 1.02 1.228l-1.355 4.933A1.5 1.5 0 0 0 14 22.5h3.999a1.494 1.494 0 0 0 1.458-1.154c.053-.223.054-.454.005-.677l-1.373-4.86A3.515 3.515 0 0 0 19.5 13Zm-2.24 2.16a.5.5 0 0 0-.232.57l1.462 5.172A.5.5 0 0 1 18 21.5H14a.489.489 0 0 1-.385-.181.475.475 0 0 1-.114-.375l1.44-5.237a.505.505 0 0 0-.228-.563 2.5 2.5 0 1 1 2.547.017Z"/></svg>