<svg xmlns="http://www.w3.org/2000/svg" width="32" height="32" viewBox="0 0 32 32"><path d="M3.685 4.005C3.685 1.84 5.453.083 7.633.083c1.583 0 2.948.924 3.578 2.26-2.285 1-3.879 3.27-3.879 5.91 0 .998.228 1.943.635 2.786a9.441 9.441 0 0 0-3.563 5.045 7.96 7.96 0 0 1-1.23-.416c-1.228-.54-2.29-1.49-2.29-3.021l.002-.034a6.458 6.458 0 0 1 2.107-4.478A6.524 6.524 0 0 1 4.968 6.9a3.9 3.9 0 0 1-1.283-2.895Z"/><path d="M11.563 4.391a4.464 4.464 0 0 0-2.062 5.08l.38-1.145a.751.751 0 0 0 .945-.463.744.744 0 0 0-.463-.948l-.059-.02a3.904 3.904 0 0 0 1.26-2.504ZM8.162 13.488l-.511 1.536a.746.746 0 0 1-.261 1.452 17.29 17.29 0 0 1-.997-.062 7.455 7.455 0 0 1 1.77-2.926Z"/><path d="M13.833 3.782c-2.486 0-4.501 2.002-4.501 4.471 0 1.381.63 2.615 1.62 3.436a7.522 7.522 0 0 0-2.478 1.499 7.444 7.444 0 0 0-2.433 5.196c0 1.742 1.255 2.816 2.7 3.43.73.312 1.562.532 2.421.68 1.162-2.538 3.397-4.51 6.12-5.506a6.97 6.97 0 0 1-2.987-5.718 6.971 6.971 0 0 1 3.077-5.78 4.504 4.504 0 0 0-3.539-1.708Z"/><path d="M18.237 7.322a4.984 4.984 0 0 0-1.58 5.814l3.972-.335-.13.94h-3.548a5.042 5.042 0 0 0 4.377 2.533h.005c.226 0 .449-.015.667-.044v-2.393l.243-1.756a.742.742 0 0 0-.2-.614.753.753 0 0 0-.606-.23l-4.652.393a4.449 4.449 0 0 0 1.452-4.308ZM22 18.283a10.08 10.08 0 0 0-.667-.022 9.63 9.63 0 0 0-5.113 1.441h1.126l-2.457 1.016a8.318 8.318 0 0 0-1.598 2.01c.142.007.282.013.421.017a.754.754 0 0 0 .313-.056l6.763-2.796a.748.748 0 0 0 .271-.191H22v-1.42Z"/><path d="M21.332 16.274c2.783 0 5.038-2.24 5.038-5.004 0-2.764-2.255-5.005-5.038-5.005-2.782 0-5.037 2.241-5.037 5.005s2.255 5.004 5.037 5.004ZM30.368 26.477c0 5.536-18.07 5.536-18.07 0 0-4.538 4.045-8.216 9.035-8.216s9.035 3.678 9.035 8.216Z"/></svg>