<svg xmlns="http://www.w3.org/2000/svg" width="32" height="32" viewBox="0 0 32 32"><path d="M6 8.757a3.559 3.559 0 1 1 6.344-2.521A4.002 4.002 0 0 1 17.72 9.41a5.03 5.03 0 0 1 5.436 8.31c2.82 1.185 4.83 3.805 4.83 6.937 0 1.754-1.426 2.835-2.878 3.432-1.513.622-3.46.911-5.35.911-1.89 0-3.836-.288-5.35-.91-1.451-.598-2.878-1.68-2.878-3.433 0-.97.193-1.89.542-2.734-.891-.119-1.778-.325-2.545-.654-1.218-.521-2.402-1.492-2.402-3.13l.001-.046c.019-.406.076-.805.169-1.195-.78-.102-1.556-.284-2.226-.58C4.016 15.85 3 14.977 3 13.517l.001-.045a5.615 5.615 0 0 1 3-4.715ZM7.24 6.56a1.56 1.56 0 1 0 3.118 0 1.56 1.56 0 0 0-3.118 0Zm5.98 13.468a8.208 8.208 0 0 1 3.142-2.308 5.017 5.017 0 0 1-1.633-3.63 5.818 5.818 0 0 0-.986-.108 4.411 4.411 0 0 0-4.618 4.178c.009.454.298.89 1.19 1.271.779.334 1.822.525 2.905.597Zm-5.115-5.055a6.41 6.41 0 0 1 2.64-2.36 3.985 3.985 0 0 1-.98-2.388c-.32-.065-.646-.1-.974-.106A3.615 3.615 0 0 0 5 13.538c.006.322.191.646.878.95.583.258 1.372.416 2.226.484Zm5.67-2.991a2 2 0 1 0-.033-4.002 2 2 0 0 0 .033 4.002Zm5.984-1.002a3.03 3.03 0 1 0 0 6.06 3.03 3.03 0 0 0 0-6.06ZM13.53 24.656c0 .475.381 1.065 1.64 1.583 1.197.492 2.865.76 4.588.76 1.724 0 3.392-.268 4.59-.76 1.258-.518 1.638-1.108 1.638-1.583 0-3.021-2.703-5.617-6.228-5.617-3.524 0-6.228 2.596-6.228 5.617Z"/></svg>