<svg xmlns="http://www.w3.org/2000/svg" width="32" height="32" viewBox="0 0 32 32"><path d="M3.335 2.33a.75.75 0 0 0-1.051.893L6.25 15.966a.757.757 0 0 0 0 .069L2.284 28.777a.75.75 0 0 0 1.051.894l10.271-5.136a.75.75 0 0 0-.67-1.341l-8.697 4.348L7.6 16.75h18.224l-1.332.666a.75.75 0 1 0 .671 1.341l4.16-2.08a.752.752 0 0 0 .129-1.277.746.746 0 0 0-.13-.078L3.335 2.33Zm22.488 12.92H7.599L4.239 4.458 25.823 15.25ZM21.75 22.5a.75.75 0 0 0-1.5 0v2.727l1.126 1.689a.75.75 0 1 0 1.248-.832l-.874-1.311V22.5Z"/><path d="M15.25 25a5.75 5.75 0 1 1 11.5 0 5.75 5.75 0 0 1-11.5 0ZM21 20.75a4.25 4.25 0 1 0 0 8.5 4.25 4.25 0 0 0 0-8.5Z"/></svg>