<svg xmlns="http://www.w3.org/2000/svg" width="32" height="32" viewBox="0 0 32 32"><path d="M3.224 2.553a.5.5 0 0 0-.701.596l3.98 12.788a.505.505 0 0 0 0 .126L2.524 28.85a.5.5 0 0 0 .7.596l10.5-5.25a.5.5 0 1 0-.447-.894l-9.45 4.725L7.415 16.5h19.467l-2.46 1.23a.5.5 0 0 0 .447.894l4.345-2.172A.5.5 0 0 0 29.5 16L3.224 2.553ZM26.882 15.5H7.415L3.826 3.972 26.882 15.5ZM29.3 15.6a.509.509 0 0 0-.086-.052l.01.005c.027.013.053.03.076.047ZM21.5 22.5a.5.5 0 0 0-1 0v2.651l1.084 1.626a.5.5 0 1 0 .832-.554l-.916-1.374V22.5Z"/><path d="M15.5 25a5.5 5.5 0 1 1 11 0 5.5 5.5 0 0 1-11 0Zm5.5-4.5a4.5 4.5 0 1 0 0 9 4.5 4.5 0 0 0 0-9Z"/></svg>