<svg xmlns="http://www.w3.org/2000/svg" width="32" height="32" viewBox="0 0 32 32"><path d="M16 29.093c-6.97 0-12.733-5.751-12.733-12.734 0-6.97 5.75-12.733 12.72-12.733 6.983 0 12.746 5.764 12.746 12.733 0 6.983-5.763 12.734-12.733 12.734Zm-4.837-7.719c0 .978.432 1.422 1.346 1.422h6.982c.914 0 1.346-.444 1.346-1.422v-5.383c0-.914-.368-1.358-1.143-1.422v-1.637c0-2.565-1.587-4.139-3.694-4.139s-3.694 1.574-3.694 4.139v1.65c-.775.063-1.143.495-1.143 1.41v5.382Zm2.235-6.817V12.83c0-1.777 1.04-2.97 2.602-2.97 1.561 0 2.602 1.193 2.602 2.97v1.727h-5.204Z"/></svg>