<svg xmlns="http://www.w3.org/2000/svg" width="32" height="32" viewBox="0 0 32 32"><path d="M6 9a3 3 0 0 1 3-3h1a1 1 0 1 0 0-2H9a5 5 0 0 0-5 5v1a1 1 0 1 0 2 0zM22 4a1 1 0 1 0 0 2h1a3 3 0 0 1 3 3v1a1 1 0 1 0 2 0V9a5 5 0 0 0-5-5zM6 22a1 1 0 1 0-2 0v1a5 5 0 0 0 5 5h1a1 1 0 1 0 0-2H9a3 3 0 0 1-3-3zM28 22a1 1 0 1 0-2 0v1a3 3 0 0 1-3 3h-1a1 1 0 1 0 0 2h1a5 5 0 0 0 5-5zM10.879 9.574a1 1 0 0 0-1.305 1.305l4.5 11a1 1 0 0 0 1.84.027l1.409-3.17 2.97 2.971a1 1 0 0 0 1.414-1.414l-2.97-2.97 3.17-1.41a1 1 0 0 0-.028-1.838z"/></svg>