<svg xmlns="http://www.w3.org/2000/svg" width="32" height="32" viewBox="0 0 32 32"><path d="M20.42 3.659a6.983 6.983 0 0 1 5.158 2.922 6.983 6.983 0 0 1 1.067 5.83 1 1 0 1 0 1.935.506 8.983 8.983 0 0 0-1.372-7.495 8.983 8.983 0 0 0-6.63-3.757 1 1 0 1 0-.158 1.994ZM6.296 15.478l-2.413-4.179A2.5 2.5 0 0 1 5.65 7.58a2.498 2.498 0 0 1 3.658-2.112 2.5 2.5 0 0 1 4.103.33l.275.478a2.5 2.5 0 0 1 3.824.621l6.5 11.258.005.009a8.5 8.5 0 0 1-14.728 8.491l-4.715-8.167c-.26-.45-.446-1.248-.067-1.973.35-.673 1.009-.99 1.792-1.037Zm4.514-8.182 3.252 5.632.003.005.497.861a1 1 0 1 1-1.732 1L8.58 7.433a.5.5 0 1 0-.866.5l4.25 7.361a1 1 0 0 1-1.732 1L6.497 9.826a.5.5 0 1 0-.882.473l4.286 7.424a9.091 9.091 0 0 1 .482.831l.008.017.974 1.687a1 1 0 0 1-1.732 1L8.2 18.773a6.242 6.242 0 0 0-.24-.337 3.806 3.806 0 0 0-.651-.68c-.229-.179-.411-.252-.543-.268a1.62 1.62 0 0 0-.463-.003l.001.002v.001l4.715 8.167a6.5 6.5 0 0 0 11.259-6.5l-6.5-11.258a.5.5 0 1 0-.866.5l2.25 3.897a1 1 0 0 1-1.732 1l-.98-1.697a1.134 1.134 0 0 1-.021-.035L11.678 6.8a.5.5 0 0 0-.868.497Z"/><path d="M19.974 6.64a3.992 3.992 0 0 1 3.16 1.68 3.993 3.993 0 0 1 .55 3.536 1 1 0 1 0 1.905.607 5.992 5.992 0 0 0-.826-5.302 5.992 5.992 0 0 0-4.737-2.521 1 1 0 0 0-.052 2Z"/></svg>