<svg xmlns="http://www.w3.org/2000/svg" width="32" height="32" viewBox="0 0 32 32"><path d="M18.72 3.72a.75.75 0 0 1 1.281.53v.46a.793.793 0 0 0-.001.04v8a.75.75 0 0 0 1.5 0V5.29l.001-.04a.75.75 0 1 1 1.5 0v8.5c0 .042.003.083.01.123-.007.147-.01.296-.01.447v1.752a4.763 4.763 0 0 0-4 4.686.75.75 0 0 0 1.5.004 3.263 3.263 0 0 1 3.252-3.252.75.75 0 0 0 .748-.75v-2.44c0-.865.125-1.544.347-2.015.211-.447.493-.68.855-.768a.751.751 0 0 0 .124-.042.132.132 0 0 1 .183.142.75.75 0 0 0-.009.118v9.5a6.75 6.75 0 0 1-11.523 4.773.75.75 0 0 0-1.06 1.06A8.25 8.25 0 0 0 27.5 21.256v-9.45a1.633 1.633 0 0 0-2.209-1.711c-.295.078-.558.199-.79.355V5.25a2.25 2.25 0 0 0-3.245-2.019 2.25 2.25 0 0 0-4.012 0A2.25 2.25 0 0 0 14 5.25v.879a2.25 2.25 0 0 0-3 2.121v4.3l-.001.2a.75.75 0 1 0 1.5 0v-.203l.001-4.297A.75.75 0 0 1 14 8.21v4.54a.75.75 0 0 0 1.5 0V8.291l.001-.041v-3A.75.75 0 0 1 17 5.21v7.54a.75.75 0 0 0 1.5 0V5.291l.001-.041v-1a.75.75 0 0 1 .22-.53Z"/><path fill-rule="evenodd" d="M9.436 14.445a.75.75 0 0 0-1.371 0l-4 9a.75.75 0 0 0 1.37.61L6.572 21.5h4.358l1.136 2.555a.75.75 0 0 0 1.37-.61l-4-9Zm-.686 2.152L10.263 20H7.238l1.512-3.403Z" clip-rule="evenodd"/></svg>