<svg xmlns="http://www.w3.org/2000/svg" width="32" height="32" viewBox="0 0 32 32"><path d="M25.782 6.436A7.233 7.233 0 0 0 20.44 3.41a.75.75 0 0 1 .118-1.496 8.733 8.733 0 0 1 6.446 3.653 8.733 8.733 0 0 1 1.334 7.287.75.75 0 0 1-1.451-.38 7.233 7.233 0 0 0-1.105-6.038ZM4.725 16.63c.353-.676 1.085-.958 2.005-.902L4.1 11.174a2.25 2.25 0 0 1 1.8-3.37 2.25 2.25 0 0 1 3.476-2.007 2.25 2.25 0 0 1 3.819.127l.438.76a2.25 2.25 0 0 1 3.66.337l6.502 11.264A8.25 8.25 0 0 1 9.503 26.53l-4.716-8.167c-.23-.399-.39-1.104-.062-1.733Zm1.361.983 4.716 8.167a6.75 6.75 0 0 0 11.691-6.75l-.002-.004-6.497-11.254a.75.75 0 1 0-1.3.75l2.25 3.897a.75.75 0 0 1-1.298.75l-.987-1.709a.891.891 0 0 1-.014-.023l-2.75-4.763a.75.75 0 0 0-1.31.73l3.261 5.65a.83.83 0 0 1 .012.02l.488.845a.75.75 0 1 1-1.3.75l-3.75-6.495a2.257 2.257 0 0 1-.02-.036l-.479-.83a.75.75 0 1 0-1.299.75l4.25 7.361a.75.75 0 0 1-1.299.75L6.713 9.697a.75.75 0 1 0-1.313.727l4.297 7.443a8.845 8.845 0 0 1 .462.798l.005.011.986 1.707a.75.75 0 0 1-1.3.75l-1.43-2.479a6.487 6.487 0 0 0-.263-.37 4.048 4.048 0 0 0-.696-.726c-.25-.195-.474-.295-.667-.318-.365-.044-.564-.005-.656.03a.23.23 0 0 0-.07.038.05.05 0 0 0-.013.015.247.247 0 0 0-.014.128.436.436 0 0 0 .045.162Z"/><path d="M23.337 8.175A4.242 4.242 0 0 0 19.98 6.39a.75.75 0 0 1 .04-1.5 5.742 5.742 0 0 1 4.54 2.417 5.742 5.742 0 0 1 .791 5.082.75.75 0 1 1-1.43-.456 4.242 4.242 0 0 0-.584-3.757Z"/></svg>