<svg xmlns="http://www.w3.org/2000/svg" width="32" height="32" viewBox="0 0 32 32"><path d="M19.006 4a.997.997 0 0 0-.998 1v8.286a.5.5 0 1 1-.998 0V5.999a1 1 0 0 0-.998-1 .997.997 0 0 0-.998 1v7.287a.5.5 0 1 1-.998 0V8.998a1 1 0 0 0-.998-1 .997.997 0 0 0-.998 1 272.722 272.722 0 0 1-.022 4.273.5.5 0 1 1-.997.029c-.002-.054 0-.154.002-.356.006-.482.02-1.546.02-3.946a2 2 0 0 1 1.995-2c.354 0 .697.094.998.268V6a2.001 2.001 0 0 1 1.996-2c.398 0 .784.12 1.11.339A2 2 0 0 1 19.006 3a1.994 1.994 0 0 1 1.883 1.338 1.993 1.993 0 0 1 3.106 1.66v5.733a2.34 2.34 0 0 1 1.117-.652 1.377 1.377 0 0 1 1.791.775c.086.217.115.452.086.683v8.466A7.997 7.997 0 0 1 19.006 29a7.98 7.98 0 0 1-5.645-2.346.5.5 0 0 1 .705-.706A6.983 6.983 0 0 0 19.006 28a6.996 6.996 0 0 0 6.985-6.997v-8.502c0-.026.002-.052.006-.078a.383.383 0 0 0-.529-.41.508.508 0 0 1-.082.028c-.45.108-.784.403-1.02.904-.244.517-.37 1.237-.37 2.12v2.44a.5.5 0 0 1-.498.5 3.503 3.503 0 0 0-2.468 1.028 3.515 3.515 0 0 0-1.026 2.471.5.5 0 1 1-.998-.003 4.516 4.516 0 0 1 1.319-3.175 4.5 4.5 0 0 1 2.672-1.292v-1.969c0-.157.004-.312.012-.464a.501.501 0 0 1-.012-.105V5.999a1 1 0 0 0-.997-1 .997.997 0 0 0-.998 1v7.287a.5.5 0 1 1-.998 0V4.999a1 1 0 0 0-.998-1Z"/><path d="M8.859 14.5a.5.5 0 0 1 .45.27l4.135 8a.5.5 0 0 1-.888.46l-1.42-2.749A.501.501 0 0 1 11 20.5H7a.497.497 0 0 1-.213-.048L5.45 23.217a.5.5 0 1 1-.9-.434l3.866-8a.5.5 0 0 1 .443-.283Zm-1.612 5h3.382L8.88 16.118 7.247 19.5Z"/></svg>