<svg xmlns="http://www.w3.org/2000/svg" width="32" height="32" viewBox="0 0 32 32"><path d="M15.038 4.606a16.743 16.743 0 0 1 0 23.304.5.5 0 1 0 .718.696 17.743 17.743 0 0 0 0-24.696.5.5 0 1 0-.718.696M13.758 16.258c0-2.834-1.103-5.556-3.076-7.591a.5.5 0 0 1 .718-.696 11.906 11.906 0 0 1 0 16.575.5.5 0 1 1-.718-.696 10.9 10.9 0 0 0 3.076-7.592M7.759 16.26A4.81 4.81 0 0 0 6.4 12.908a.5.5 0 1 1 .718-.696 5.813 5.813 0 0 1 0 8.096.5.5 0 0 1-.718-.696 4.81 4.81 0 0 0 1.359-3.352M26 19.5a.5.5 0 0 1 .5.5v2.5H29a.5.5 0 1 1 0 1h-2.5V26a.5.5 0 1 1-1 0v-2.5H23a.5.5 0 0 1 0-1h2.5V20a.5.5 0 0 1 .5-.5"/></svg>