<svg xmlns="http://www.w3.org/2000/svg" width="32" height="32" fill="none" viewBox="0 0 32 32"><path d="M19.602 17.093h2.625a.175.175 0 0 0 .174-.181v-.662a.175.175 0 0 0-.174-.175h-1.783v-.687h1.783a.175.175 0 0 0 .174-.175v-.669a.175.175 0 0 0-.174-.175h-1.783v-.687h1.783a.175.175 0 0 0 .174-.175v-.662a.175.175 0 0 0-.174-.175h-2.625a.175.175 0 0 0-.175.175v4.073a.175.175 0 0 0 .175.175M12.525 17.093a.175.175 0 0 0 .175-.175v-.662a.175.175 0 0 0-.175-.175h-1.782v-3.237a.175.175 0 0 0-.175-.175h-.665a.175.175 0 0 0-.175.175v4.071a.175.175 0 0 0 .175.175h2.625zM13.442 12.662h.662c.099 0 .178.08.178.178v4.074c0 .099-.08.179-.178.179h-.662a.18.18 0 0 1-.178-.179V12.84c0-.098.08-.178.178-.178M18.611 12.662h-.662a.175.175 0 0 0-.175.175v2.42l-1.863-2.517-.015-.019-.01-.01-.01-.008h-.005l-.01-.007h-.005l-.01-.005h-.741a.175.175 0 0 0-.175.175v4.074a.175.175 0 0 0 .175.175h.662a.175.175 0 0 0 .175-.175v-2.444l1.867 2.52a.2.2 0 0 0 .045.045l.01.007h.006l.009.005h.027a.2.2 0 0 0 .047.006h.658a.175.175 0 0 0 .175-.175V12.84a.175.175 0 0 0-.175-.178"/><path d="M23.688 2H8.312A6.31 6.31 0 0 0 2 8.312v15.376A6.31 6.31 0 0 0 8.312 30h15.376A6.31 6.31 0 0 0 30 23.688V8.312A6.31 6.31 0 0 0 23.688 2M6.662 14.68c0-4.177 4.188-7.575 9.335-7.575s9.336 3.398 9.336 7.576c0 1.669-.649 3.178-2.001 4.66-1.959 2.255-6.338 5.002-7.335 5.421-.97.408-.856-.232-.812-.484l.004-.02.133-.799c.031-.238.064-.608-.03-.844-.105-.26-.519-.395-.823-.46-4.482-.593-7.807-3.73-7.807-7.475"/></svg>