<svg xmlns="http://www.w3.org/2000/svg" width="31" height="32" fill="none" viewBox="0 0 31 32"><path d="M24.291 6.036c-.629-.596-3.17-2.492-8.83-2.517 0 0-6.676-.414-9.93 2.653-1.812 1.861-2.449 4.585-2.516 7.962s-.154 9.705 5.783 11.421h.006L8.8 28.174s-.038 1.06.642 1.276c.685.219 1.135-.306 1.72-.99q.174-.206.368-.422a68 68 0 0 0 1.474-1.713c4.06.351 7.184-.451 7.538-.57q.111-.035.306-.085c1.312-.343 5.22-1.364 5.908-7.126.779-6.523-.377-10.648-2.465-12.508m.688 12.04c-.573 4.757-3.681 5.5-4.8 5.768q-.188.043-.293.076c-.296.097-3.038.799-6.488.567 0 0-2.57 3.186-3.373 4.014-.125.13-.272.182-.37.156-.139-.034-.177-.203-.175-.448l.022-4.351c-4.857-1.386-4.744-6.468-4.68-9.352l.007-.288c.057-2.82.572-5.13 2.104-6.685 2.753-2.561 8.423-2.179 8.423-2.179 4.788.022 7.083 1.503 7.615 2 1.766 1.554 2.666 5.272 2.008 10.72zm-7.188-3.76a.32.32 0 0 1-.22-.091.33.33 0 0 1-.1-.222c-.054-1.116-.566-1.663-1.61-1.72a.32.32 0 0 1-.216-.112.335.335 0 0 1 .024-.458.32.32 0 0 1 .226-.087c1.379.078 2.145.886 2.215 2.344a.34.34 0 0 1-.082.237.32.32 0 0 1-.221.108zm1.634.566h.008a.32.32 0 0 0 .224-.095.33.33 0 0 0 .096-.228c.028-1.284-.354-2.377-1.123-3.242-.77-.864-1.851-1.354-3.215-1.457a.32.32 0 0 0-.233.08.333.333 0 0 0-.033.464.32.32 0 0 0 .219.113c1.212.091 2.122.497 2.79 1.245.667.749.98 1.66.955 2.783a.33.33 0 0 0 .088.235c.06.063.14.1.224.102m1.69.674a.32.32 0 0 1-.226-.095.33.33 0 0 1-.095-.231c-.015-2.011-.578-3.547-1.723-4.694-1.13-1.132-2.56-1.713-4.246-1.725a.31.31 0 0 1-.226-.097.334.334 0 0 1 .001-.465.32.32 0 0 1 .227-.096h.003c1.857.014 3.435.657 4.688 1.912 1.254 1.255 1.9 2.994 1.917 5.16a.33.33 0 0 1-.092.234.32.32 0 0 1-.226.098zm-4.482 2.568c-.242.307-.692.268-.692.268-3.29-.863-4.17-4.286-4.17-4.286s-.039-.462.261-.711l.595-.485c.294-.234.482-.8.182-1.353a14 14 0 0 0-.75-1.207 33 33 0 0 0-.873-1.121c-.294-.356-.726-.44-1.182-.195L10 9.035l-.004.001c-.453.268-.862.61-1.21 1.01l-.004.005-.004.004q-.421.524-.483 1.026a.7.7 0 0 0-.009.15 1.4 1.4 0 0 0 .065.436l.016.011c.142.518.497 1.381 1.27 2.82q.663 1.251 1.523 2.37a12 12 0 0 0 .954 1.1l.105.108q.492.502 1.037.945a16.3 16.3 0 0 0 2.306 1.565c1.4.794 2.241 1.159 2.745 1.305l.01.016a1.3 1.3 0 0 0 .57.058q.491-.06 1-.496l.003-.004.005-.003c.39-.359.722-.779.983-1.244v-.005l.002-.005c.237-.468.157-.912-.192-1.214l-.077-.065c-.197-.168-.727-.616-1.014-.833q-.568-.416-1.174-.77c-.539-.308-1.088-.115-1.316.188z"/></svg>