<svg xmlns="http://www.w3.org/2000/svg" width="32" height="32" fill="none" viewBox="0 0 32 32"><path fill="#06C755" d="M23.688 2H8.312A6.312 6.312 0 0 0 2 8.312v15.376A6.312 6.312 0 0 0 8.312 30h15.376A6.312 6.312 0 0 0 30 23.688V8.312A6.312 6.312 0 0 0 23.688 2Z"/><path fill="#fff" d="M25.333 14.68c0-4.177-4.188-7.575-9.336-7.575-5.147 0-9.335 3.398-9.335 7.575 0 3.745 3.325 6.882 7.807 7.475.304.065.718.2.822.46.095.236.062.606.03.844l-.132.8c-.041.235-.188.922.808.503.997-.419 5.376-3.166 7.335-5.42 1.352-1.483 2-2.992 2-4.661Z"/><path fill="#06C755" d="M22.227 17.093h-2.625a.175.175 0 0 1-.175-.175v-4.073a.175.175 0 0 1 .175-.175h2.625a.175.175 0 0 1 .174.175v.662a.175.175 0 0 1-.174.175h-1.783v.687h1.783a.175.175 0 0 1 .174.175v.668a.175.175 0 0 1-.174.175h-1.783v.688h1.783a.175.175 0 0 1 .174.175v.662a.176.176 0 0 1-.106.167.175.175 0 0 1-.069.014ZM12.525 17.093a.175.175 0 0 0 .175-.175v-.662a.175.175 0 0 0-.175-.175h-1.782v-3.237a.175.175 0 0 0-.175-.175h-.665a.175.175 0 0 0-.175.175v4.071a.175.175 0 0 0 .175.175h2.625l-.003.003ZM14.104 12.662h-.662a.178.178 0 0 0-.178.178v4.074c0 .099.08.179.178.179h.662c.099 0 .178-.08.178-.179V12.84a.178.178 0 0 0-.178-.178ZM18.611 12.662h-.662a.175.175 0 0 0-.175.175v2.42l-1.863-2.517a.11.11 0 0 0-.015-.019l-.01-.01-.01-.008h-.005l-.01-.007h-.005l-.01-.005H15.105a.175.175 0 0 0-.175.175v4.074a.175.175 0 0 0 .175.175h.662a.175.175 0 0 0 .175-.175v-2.444l1.867 2.52a.179.179 0 0 0 .045.045l.01.007h.006l.009.005h.027a.209.209 0 0 0 .047.006h.658a.175.175 0 0 0 .175-.175V12.84a.175.175 0 0 0-.175-.178Z"/></svg>