<svg xmlns="http://www.w3.org/2000/svg" width="33" height="32" fill="none" viewBox="0 0 33 32"><path d="M8.559 2h15.376a6.31 6.31 0 0 1 6.312 6.312v15.376A6.31 6.31 0 0 1 23.935 30H8.559a6.31 6.31 0 0 1-6.312-6.312V8.312A6.31 6.31 0 0 1 8.559 2m7.685 5.105c-5.147 0-9.335 3.398-9.335 7.576 0 3.745 3.325 6.881 7.807 7.474.304.065.718.2.822.46.095.236.062.606.03.844l-.132.8-.004.02c-.045.252-.158.891.812.483.997-.419 5.376-3.166 7.334-5.42 1.353-1.483 2.002-2.992 2.002-4.661 0-4.178-4.188-7.576-9.336-7.576"/><path d="M22.473 17.093h-2.625a.175.175 0 0 1-.175-.175v-4.073a.175.175 0 0 1 .175-.175h2.625a.175.175 0 0 1 .175.175v.662a.175.175 0 0 1-.175.175h-1.782v.687h1.782a.175.175 0 0 1 .175.175v.668a.175.175 0 0 1-.175.175h-1.782v.688h1.782a.175.175 0 0 1 .175.175v.662a.17.17 0 0 1-.106.167.2.2 0 0 1-.069.014M12.772 17.093a.175.175 0 0 0 .175-.175v-.662a.175.175 0 0 0-.175-.175H10.99v-3.237a.175.175 0 0 0-.175-.175h-.665a.175.175 0 0 0-.175.175v4.071a.175.175 0 0 0 .175.175h2.625zM14.35 12.662h-.66a.18.18 0 0 0-.18.178v4.074c0 .099.08.179.18.179h.66c.1 0 .18-.08.18-.179V12.84a.18.18 0 0 0-.18-.178M18.858 12.662h-.662a.175.175 0 0 0-.175.175v2.42l-1.864-2.517-.014-.019-.01-.01-.01-.008h-.006l-.01-.007h-.005l-.01-.005h-.74a.175.175 0 0 0-.175.175v4.074a.175.175 0 0 0 .175.175h.662a.175.175 0 0 0 .175-.175v-2.444l1.866 2.52a.2.2 0 0 0 .046.045l.01.007h.006l.008.005h.027a.2.2 0 0 0 .048.006h.658a.175.175 0 0 0 .175-.175V12.84a.18.18 0 0 0-.05-.126.17.17 0 0 0-.125-.052"/></svg>