<svg xmlns="http://www.w3.org/2000/svg" width="33" height="32" fill="none" viewBox="0 0 33 32"><path fill="#06C755" d="M24.441 2H9.066a6.31 6.31 0 0 0-6.313 6.312v15.376A6.31 6.31 0 0 0 9.066 30H24.44a6.31 6.31 0 0 0 6.312-6.312V8.312A6.31 6.31 0 0 0 24.441 2"/><path fill="#fff" d="M26.086 14.68c0-4.177-4.188-7.575-9.335-7.575s-9.336 3.398-9.336 7.576c0 3.745 3.325 6.881 7.807 7.474.305.065.719.2.823.46.094.236.062.606.03.844l-.133.8c-.04.235-.188.922.809.503.996-.419 5.376-3.166 7.334-5.42 1.353-1.483 2.001-2.992 2.001-4.661"/><path fill="#06C755" d="M22.98 17.093h-2.625a.175.175 0 0 1-.175-.175v-4.073a.175.175 0 0 1 .175-.175h2.625a.175.175 0 0 1 .175.175v.662a.175.175 0 0 1-.175.175h-1.782v.687h1.782a.175.175 0 0 1 .175.175v.668a.175.175 0 0 1-.175.175h-1.782v.688h1.782a.175.175 0 0 1 .175.175v.662a.176.176 0 0 1-.175.18M13.279 17.093a.175.175 0 0 0 .175-.175v-.662a.175.175 0 0 0-.175-.175h-1.783v-3.237a.175.175 0 0 0-.175-.175h-.665a.175.175 0 0 0-.175.175v4.071a.175.175 0 0 0 .175.175h2.625zM14.857 12.662h-.661a.18.18 0 0 0-.179.178v4.074c0 .099.08.179.179.179h.661c.099 0 .179-.08.179-.179V12.84a.18.18 0 0 0-.179-.178M19.364 12.662h-.661a.175.175 0 0 0-.175.175v2.42l-1.864-2.517-.015-.019-.01-.01-.01-.008h-.005l-.01-.007h-.005l-.01-.005h-.74a.175.175 0 0 0-.176.175v4.074a.175.175 0 0 0 .175.175h.663a.175.175 0 0 0 .175-.175v-2.444l1.866 2.52a.2.2 0 0 0 .046.045l.01.007h.005l.009.005h.027a.2.2 0 0 0 .047.006h.658a.175.175 0 0 0 .175-.175V12.84a.175.175 0 0 0-.175-.178"/></svg>