<svg xmlns="http://www.w3.org/2000/svg" width="32" height="32" viewBox="0 0 32 32"><path d="M18.682 12.269a1.002 1.002 0 0 0-1.414.049L11 19.034l-6.268-6.716a1.001 1.001 0 0 0-1.463 1.365L9.631 20.5l-6.363 6.818A1.002 1.002 0 0 0 4 29a.998.998 0 0 0 .732-.318l6.268-6.716 6.27 6.716a.998.998 0 0 0 1.413.049c.403-.377.425-1.01.049-1.414L12.368 20.5l6.363-6.817a1.002 1.002 0 0 0-.049-1.414ZM26.252 10.716c1.034-.992 1.733-1.75 2.095-2.272.48-.683.72-1.43.72-2.24 0-.896-.314-1.637-.943-2.224-.694-.65-1.627-.976-2.8-.976-1.003 0-1.867.261-2.593.785-.854.596-1.349 1.413-1.487 2.447h2.015c.075-.501.278-.906.609-1.216.362-.33.832-.496 1.408-.496.522 0 .95.134 1.28.4.361.31.543.736.543 1.28 0 .49-.146.955-.44 1.392-.293.438-.914 1.11-1.864 2.016l-3.263 3.168v1.664h7.471V12.78h-4.912l2.16-2.064Z"/></svg>