<svg xmlns="http://www.w3.org/2000/svg" width="33" height="32" fill="none" viewBox="0 0 33 32"><path d="M30.758 16.5h-4.019a5.003 5.003 0 0 1-4.978 4.5H11.755a5.003 5.003 0 0 1-4.979-4.5H2.758c.263 7.5 6.43 13.5 14 13.5 7.569 0 13.736-6 14-13.5M30.758 15.5h-4.019a5.003 5.003 0 0 0-4.978-4.5H11.755a5.003 5.003 0 0 0-4.979 4.5H2.758C3.02 8 9.188 2 16.758 2c7.569 0 13.736 6 14 13.5"/><path d="M13.756 16a2 2 0 1 1-4.002-.001 2 2 0 0 1 4.002.001M21.76 18a2 2 0 1 0 .002-4.001A2 2 0 0 0 21.761 18"/></svg>