<svg xmlns="http://www.w3.org/2000/svg" width="32" height="32" fill="none" viewBox="0 0 32 32"><path fill="#fff" d="M6 2v13l3-4h7L6 2ZM10 28v2h2v-1h12v1h2v-2h-1V16h1v-2h-2v1H12v-1h-2v2h1v12h-1Z"/><path fill="#000" d="M5.25.316 17.954 11.75H9.375l-4.125 5.5V.316Zm1.5 3.368v9.066l1.875-2.5h5.42L6.75 3.684ZM15 18.25h6a.75.75 0 0 1 0 1.5h-2.25V25a.75.75 0 0 1-1.5 0v-5.25H15a.75.75 0 0 1 0-1.5Z"/><path fill="#000" d="M12.75 13.25h-3.5v3.5h1v10.5h-1v3.5h3.5v-1h10.5v1h3.5v-3.5h-1v-10.5h1v-3.5h-3.5v1h-10.5v-1Zm10.5 14v1h-10.5v-1h-1v-10.5h1v-1h10.5v1h1v10.5h-1Zm1.5 2v-.5h.5v.5h-.5Zm.5-14h-.5v-.5h.5v.5Zm-14.5 13.5h.5v.5h-.5v-.5Zm.5-14v.5h-.5v-.5h.5Z"/></svg>