<svg xmlns="http://www.w3.org/2000/svg" width="32" height="32" viewBox="0 0 32 32"><path d="M16 2.25a6.25 6.25 0 0 1 3.364 11.516c1.092.337 2.114.825 3.04 1.419a.75.75 0 1 1-.808 1.262C19.974 15.41 18.05 14.75 16 14.75c-2.815 0-5.39 1.243-7.267 2.995C6.84 19.512 5.75 21.701 5.75 23.5c0 .875.256 1.571.705 2.144q.686.876 2.064 1.47c1.85.797 4.477 1.136 7.481 1.136 1.021 0 2.004-.039 2.932-.123a.75.75 0 0 1 .136 1.493c-.98.09-2.01.13-3.068.13-3.072 0-5.944-.34-8.075-1.258-1.073-.462-1.995-1.087-2.65-1.923-.665-.847-1.025-1.873-1.025-3.069 0-2.344 1.372-4.904 3.46-6.852 1.347-1.257 3.033-2.296 4.927-2.881A6.25 6.25 0 0 1 16 2.25m8.5 15c.999 0 1.8.506 2.466.93.706.449 1.354.877 2.217 1.093a.75.75 0 0 1 .567.727c0 2.567-.384 4.575-1.21 6.16-.836 1.601-2.09 2.704-3.704 3.51a.75.75 0 0 1-.671 0c-1.614-.806-2.87-1.909-3.705-3.51-.826-1.585-1.21-3.593-1.21-6.16a.75.75 0 0 1 .568-.727c.862-.216 1.511-.644 2.217-1.093.665-.424 1.466-.93 2.465-.93m0 1.5c-.5 0-.95.244-1.66.695-.551.35-1.227.797-2.083 1.104.051 2.15.411 3.725 1.033 4.917.61 1.168 1.498 2.019 2.71 2.686 1.212-.667 2.1-1.518 2.71-2.686.622-1.192.98-2.768 1.032-4.917-.856-.307-1.531-.753-2.082-1.104-.71-.451-1.159-.695-1.66-.695m-8.5-15a4.75 4.75 0 1 0 0 9.5 4.75 4.75 0 0 0 0-9.5"/></svg>