<svg xmlns="http://www.w3.org/2000/svg" width="33" height="32" fill="none" viewBox="0 0 33 32"><path d="M26.36 14.23c1.333-.539 1.894-2.245 1.296-3.623l-.05-.132a12 12 0 0 0-.847-1.614 5.7 5.7 0 0 0-.523-.762C24.529 5.894 22.524 5.5 21.303 5.5a5.7 5.7 0 0 0-2.463.54 6 6 0 0 0-2.033 1.56q.444.595.784 1.26c.835 1.589 1.358 3.768 1.794 5.619l.104-.373c.212-.765.451-1.63.718-2.147.51-.985.86-.985 1.096-.985.71 0 1.283 1.103 1.557 1.746 0 0 .984 2.547 3.5 1.51M4.525 8.716c-1.346.105-2.454 1.575-2.255 3.085.062.551.2 1.404.374 2.336.074.42.162.867.249 1.3q.326 1.572.81 3.098A26 26 0 0 0 4.96 21.83c1.88 3.859 4.422 4.673 6.228 4.673a5.7 5.7 0 0 0 2.464-.538 6 6 0 0 0 2.032-1.562 9.3 9.3 0 0 1-.834-1.352c-.797-1.55-1.308-3.335-1.744-5.199-.2.743-.467 1.464-.797 2.153-.523 1.024-.885 1.024-1.121 1.024-.511 0-1.047-.578-1.595-1.693a19 19 0 0 1-.747-1.877c-.15-.46-.299-.933-.424-1.392l-.029-.107c-.127-.47-.327-1.204-.419-1.678-.222-1.057-.48-2.689-.56-3.202l-.025-.159c-.113-.59-.773-2.389-2.865-2.205"/><path d="M27.756 8.69h-.063q.39.686.698 1.418l.062.131c.375.883.404 1.887.08 2.792a3.6 3.6 0 0 1-1.811 2.039 3.4 3.4 0 0 1-1.433.328 3.7 3.7 0 0 1-.996-.158c-.35 1.379-.897 3.072-1.395 4.096-.499 1.024-1.084 1.693-1.607 1.693-.224 0-.586 0-1.109-1.023a12.5 12.5 0 0 1-.797-2.153 43 43 0 0 1-.46-1.838c-.063-.236-.113-.473-.163-.709-.473-2.074-1.009-4.253-1.93-5.999a9.6 9.6 0 0 0-1.147-1.706 6 6 0 0 0-2.039-1.564 5.7 5.7 0 0 0-2.47-.537c-1.208 0-3.213.394-4.92 2.6.538.255 1.006.65 1.359 1.148.353.499.58 1.084.659 1.7.087.656.299 1.93.548 3.137.025.131.05.263.087.407.146-.398.291-.749.442-1.114l.131-.317.15-.34c.274-.644.847-1.747 1.544-1.747.25 0 .598 0 1.109.985.344.704.62 1.443.822 2.205.162.59.324 1.22.46 1.85.05.185.088.368.126.552.498 2.192 1.02 4.306 1.918 6.052q.279.556.635 1.063.263.377.56.722c1.483 1.693 3.19 2.1 4.485 2.1 1.806 0 4.36-.814 6.24-4.673.96-1.982 1.77-4.91 2.068-6.393s.523-2.822.623-3.636c.047-.357.027-.72-.06-1.069a2.8 2.8 0 0 0-.445-.963 2.6 2.6 0 0 0-.762-.708 2.5 2.5 0 0 0-.963-.345z"/></svg>