<svg xmlns="http://www.w3.org/2000/svg" width="32" height="32" viewBox="0 0 32 32"><g clip-path="url(#a)"><path d="M20.523 17.52a6 6 0 0 1 3.556-.432l.24.049a6 6 0 0 1 3.097 1.8l.162.184a6 6 0 0 1-5.99 9.701l-.237-.062a6 6 0 0 1-2.997-1.963l-.152-.192-.052-.087a.5.5 0 0 1 .782-.59l.069.074.126.16a5 5 0 0 0 2.497 1.636l.197.052a5 5 0 0 0 4.993-8.084l-.135-.154a5 5 0 0 0-2.582-1.5l-.2-.04a5 5 0 0 0-3.147.447l-.095.036a.5.5 0 0 1-.353-.93zM25 23a2 2 0 1 1-4 0 2 2 0 0 1 4 0M24.5 23a1.5 1.5 0 1 0-3 0 1.5 1.5 0 0 0 3 0m1 0a2.5 2.5 0 1 1-5 0 2.5 2.5 0 0 1 5 0M7.912 16.997a.5.5 0 1 1 .183.983 5 5 0 0 0-2.64 1.405l-.141.148a5.07 5.07 0 0 0-1.268 2.73l-.023.204a5.1 5.1 0 0 0 .723 3.127l.11.173a5 5 0 0 0 2.334 1.88l.19.07c.962.332 2.003.36 2.983.08a5 5 0 0 0 2.624-1.81l.12-.168c.58-.843.893-1.846.893-2.877h1a6.08 6.08 0 0 1-1.068 3.445l-.144.199a6 6 0 0 1-3.15 2.173 5.96 5.96 0 0 1-3.583-.097l-.23-.085a6 6 0 0 1-2.8-2.254l-.131-.207a6.1 6.1 0 0 1-.868-3.742l.029-.245a6.07 6.07 0 0 1 1.518-3.268l.17-.178a6 6 0 0 1 3.17-1.686M21.811 10.626a.5.5 0 1 1-.961-.273c.28-.981.249-2.024-.084-2.99l-.07-.192a5.07 5.07 0 0 0-1.88-2.35l-.173-.112a5.1 5.1 0 0 0-3.122-.743l-.204.022a5 5 0 0 0-2.722 1.253l-.148.14a4.96 4.96 0 0 0-1.399 2.636 5 5 0 0 0 .454 3.155l.096.182a5.08 5.08 0 0 0 2.18 2.08.5.5 0 1 1-.445.895 6.08 6.08 0 0 1-2.61-2.49l-.114-.217a6 6 0 0 1-.545-3.787 5.96 5.96 0 0 1 1.681-3.167l.179-.167a6 6 0 0 1 3.264-1.505l.244-.026a6.1 6.1 0 0 1 3.737.888l.207.135a6.07 6.07 0 0 1 2.25 2.814l.086.23a6 6 0 0 1 .099 3.59M11 23a2 2 0 1 1-4 0 2 2 0 0 1 4 0M10.5 23a1.5 1.5 0 1 0-3 0 1.5 1.5 0 0 0 3 0m1 0a2.5 2.5 0 1 1-5 0 2.5 2.5 0 0 1 5 0M18 9.026a2 2 0 1 1-4 0 2 2 0 0 1 4 0M17.5 9.026a1.5 1.5 0 1 0-3 0 1.5 1.5 0 0 0 3 0m1 0a2.5 2.5 0 1 1-5 0 2.5 2.5 0 0 1 5 0M14.004 14.113l-4.557 9.125-.894-.447 4.556-9.125zM15.553 9.22l4.564 9.14.447-.223.448-.223-4.565-9.141zM23.004 22.5v1h-8.512a.5.5 0 1 1 0-1z"/></g><defs><clipPath id="a"><path d="M0 0h32v32H0z"/></clipPath></defs></svg>