<svg xmlns="http://www.w3.org/2000/svg" width="32" height="32" fill="none" viewBox="0 0 32 32"><path d="M15.121 23.631a1.251 1.251 0 1 0 1.77 1.769 1.251 1.251 0 0 0-1.77-1.769M28.525 11.325a18.017 18.017 0 0 0-25.05 0 .75.75 0 0 0 1.05 1.072 16.51 16.51 0 0 1 22.95 0 .75.75 0 0 0 1.05-1.072"/><path d="M7.536 15.68a.75.75 0 1 0 1.049 1.072 10.67 10.67 0 0 1 14.83 0 .75.75 0 0 0 1.049-1.072 12.18 12.18 0 0 0-16.928 0M11.61 20.2a.8.8 0 0 1 .167-.242 6.074 6.074 0 0 1 8.446 0 .75.75 0 0 1-1.05 1.072 4.567 4.567 0 0 0-6.347 0 .752.752 0 0 1-1.226-.253.75.75 0 0 1 .01-.577"/></svg>