<svg width="850" height="287" viewBox="0 0 850 287" xmlns="http://www.w3.org/2000/svg">
  <path
    d="M267.69 40.6503C268.849 40.6503 269.788 39.7134 269.788 38.5576C269.788 37.4018 268.849 36.4648 267.69 36.4648C266.532 36.4648 265.593 37.4018 265.593 38.5576C265.593 39.7134 266.532 40.6503 267.69 40.6503Z"
    fill="black" />
  <path
    d="M387.026 92.9706C388.185 92.9706 389.124 92.0337 389.124 90.8779C389.124 89.7221 388.185 88.7852 387.026 88.7852C385.868 88.7852 384.929 89.7221 384.929 90.8779C384.929 92.0337 385.868 92.9706 387.026 92.9706Z"
    fill="black" />
  <path
    d="M367.708 91.5593C366.973 92.2982 365.972 92.7123 364.928 92.7089H362.12C357.95 92.6672 354.485 95.9074 354.258 100.062C354.128 104.249 357.425 107.749 361.622 107.878C361.7 107.88 361.778 107.881 361.857 107.881C362.581 107.881 363.168 107.296 363.168 106.574C363.168 105.851 362.581 105.266 361.857 105.266C359.105 105.265 356.875 103.04 356.875 100.294C356.875 100.243 356.876 100.192 356.877 100.141C357.054 97.3954 359.363 95.2739 362.12 95.3249H364.928C366.668 95.3298 368.336 94.6398 369.563 93.4089L371.112 91.8628C373.429 89.5555 374.003 86.0266 372.537 83.1065L370.84 79.7191C370.645 79.332 370.801 78.8606 371.189 78.6662C371.299 78.6113 371.42 78.5827 371.542 78.5828H381.783C382.507 78.5828 383.094 77.9972 383.094 77.2748C383.094 76.5524 382.507 75.9668 381.783 75.9668H371.542C369.66 75.9672 368.134 77.4901 368.135 79.3682C368.135 79.8958 368.258 80.4161 368.494 80.8881L370.191 84.2755C371.153 86.1888 370.777 88.5014 369.258 90.0133L367.708 91.5593Z"
    fill="black" />
  <path
    d="M500.51 187.407C505.865 187.401 510.205 183.071 510.211 177.728V144.244C510.205 138.901 505.865 134.571 500.51 134.565H450.171C444.815 134.571 440.476 138.901 440.47 144.244V178.774C440.47 179.497 441.057 180.082 441.781 180.082C442.505 180.082 443.092 179.497 443.092 178.774V144.244C443.096 140.345 446.263 137.185 450.171 137.181H500.51C504.418 137.185 507.584 140.345 507.589 144.244V177.728C507.584 181.627 504.418 184.787 500.51 184.791H431.016C428.332 184.8 425.876 183.286 424.683 180.888L408.789 149.17C404.33 140.195 395.145 134.531 385.105 134.565H377.064C374.603 134.565 372.607 132.574 372.607 130.118C372.607 127.662 374.603 125.671 377.064 125.671H382.944C385.717 125.667 388.375 124.561 390.328 122.596C392.405 120.519 393.574 117.707 393.582 114.774V106.574C393.583 106.141 393.934 105.79 394.368 105.789H396.466C398.105 105.887 399.689 105.18 400.708 103.894C401.859 102.301 401.908 99.8953 400.855 96.7428L397.709 87.3254C393.346 74.2682 384.496 67.6322 371.402 67.6005C371.367 67.5974 371.332 67.5964 371.296 67.5964C360.423 67.6466 350.665 74.264 346.616 84.3324C345.001 83.0012 342.977 82.2645 340.883 82.2458C338.446 82.2882 336.125 83.2899 334.425 85.0324C329.898 83.1458 325.033 82.1977 320.127 82.2458C312.167 82.237 305.716 75.8005 305.707 67.858C305.694 63.1043 306.433 58.3783 307.897 53.8545C309.195 49.9314 309.872 45.8299 309.902 41.6985C309.885 27.1133 298.039 15.2939 283.421 15.2773C283.386 15.2773 283.351 15.2784 283.316 15.2814C270.222 15.3141 261.37 21.95 257.008 35.0063L253.862 44.4238C252.809 47.5762 252.859 49.9817 254.01 51.5747C255.028 52.8606 256.68 53.4703 258.252 53.4703C259.824 53.4703 260.349 53.4703 260.349 53.4703C260.783 53.4711 261.135 53.822 261.136 54.2551V59.2254H255.492C254.768 56.2786 251.787 54.4755 248.833 55.1978C245.88 55.9202 244.073 58.8946 244.797 61.8413C245.521 64.788 248.502 66.5912 251.455 65.8689C253.448 65.3815 255.003 63.8293 255.492 61.8413H261.136V62.4544C261.143 65.3882 262.313 68.2 264.39 70.2767C266.341 72.2407 268.997 73.3473 271.769 73.3515H277.653C280.115 73.3515 282.111 75.3426 282.111 77.7986C282.111 80.2547 280.115 82.2458 277.653 82.2458H269.613C269.475 82.3037 269.319 82.3037 269.181 82.2458C258.321 82.2458 250.444 88.7203 242.838 103.897L232.683 124.161C230.759 128 228.401 130.379 222.595 130.379H201.014C199.616 130.38 198.25 129.967 197.087 129.193L189.787 124.337C188.974 123.798 188.107 123.345 187.2 122.987V87.7393C187.198 85.862 185.673 84.3407 183.792 84.3385H149.003C148.099 84.336 147.231 84.6948 146.593 85.3348L135.237 96.6652C134.596 97.3013 134.236 98.1672 134.239 99.0696V154.708C134.241 156.585 135.766 158.106 137.647 158.108H183.792C185.673 158.106 187.198 156.585 187.2 154.708V148.429C187.2 147.707 186.613 147.121 185.889 147.121C185.165 147.121 184.578 147.707 184.578 148.429V154.708C184.577 155.141 184.226 155.492 183.792 155.492H137.647C137.213 155.492 136.861 155.141 136.861 154.708V100.557H149.183C149.907 100.558 150.494 99.972 150.494 99.2497C150.494 99.2496 150.494 99.2495 150.494 99.2495V86.9545H183.792C184.226 86.9553 184.577 87.3062 184.578 87.7393V122.242C183.754 122.089 182.917 122.011 182.078 122.008H176.762C174.128 122.008 171.993 124.139 171.993 126.767C171.993 129.034 173.598 130.987 175.827 131.432L182.675 132.798C183.778 137.667 187.755 145.552 196.376 145.552C197.1 145.552 197.687 144.966 197.687 144.244C197.687 143.521 197.1 142.936 196.376 142.936C187.14 142.936 185.164 131.939 185.084 131.471C184.994 130.936 184.582 130.512 184.049 130.405L176.341 128.867C175.178 128.635 174.424 127.506 174.657 126.346C174.858 125.345 175.739 124.624 176.762 124.624H182.078C184.305 124.622 186.482 125.279 188.333 126.514L195.633 131.37C197.226 132.431 199.098 132.997 201.014 132.995H222.595C230.167 132.995 233.129 129.12 235.028 125.33L245.184 105.066C252.375 90.7149 259.327 84.8617 269.181 84.8617C269.319 84.8038 269.475 84.8038 269.613 84.8617H277.653C281.563 84.8617 284.732 81.6995 284.732 77.7986C284.732 73.8978 281.563 70.7356 277.653 70.7356H271.808C269.717 70.7376 267.712 69.9045 266.24 68.4221C264.655 66.8382 263.763 64.6928 263.758 62.4544V61.8413H266.941C277.854 61.8782 287.006 53.6271 288.071 42.7899C288.227 41.1644 287.64 39.5554 286.473 38.4102L283.619 35.5623C283.38 35.3233 283.32 34.9582 283.472 34.6559L286.522 28.5697C287.363 26.8898 286.681 24.8471 284.997 24.0073C284.524 23.7712 284.002 23.6483 283.473 23.6484H273.233C272.509 23.6484 271.922 24.234 271.922 24.9564C271.922 25.6788 272.509 26.2644 273.233 26.2644H283.473C283.907 26.2637 284.259 26.6144 284.26 27.0475C284.26 27.1702 284.231 27.2911 284.176 27.4007L281.126 33.4868C280.469 34.7958 280.727 36.3777 281.765 37.4118L284.62 40.2597C285.229 40.8506 285.538 41.6841 285.462 42.5283C284.528 52.0268 276.506 59.2583 266.941 59.2254H263.758V54.2551C263.756 52.3778 262.231 50.8565 260.349 50.8543C260.349 50.8543 259.36 50.8543 258.252 50.8543C257.144 50.8543 256.678 50.628 256.137 50.045C255.524 49.1979 255.599 47.4955 256.349 45.2515L259.495 35.834C263.527 23.7639 271.349 17.8974 283.409 17.8974H283.421C283.455 17.8974 283.488 17.8963 283.522 17.8933C296.653 17.9639 307.265 28.5966 307.28 41.6985C307.243 45.5857 306.601 49.4436 305.376 53.1341C303.839 57.8908 303.066 62.8602 303.085 67.858C303.096 77.2444 310.72 84.8509 320.127 84.8617C324.42 84.8233 328.68 85.6034 332.679 87.1599C330.982 89.8354 330.098 92.9441 330.133 96.1103C330.325 98.9501 330.969 101.741 332.042 104.378C334.001 110.136 336.026 116.091 331.518 122.856C330.488 124.431 330.932 126.54 332.509 127.568C333.055 127.924 333.692 128.116 334.345 128.122C334.639 128.122 334.933 128.083 335.218 128.008C342.646 126.037 350.584 119.922 350.584 108.667C350.635 99.2341 345.37 90.5726 336.962 86.2586C338.077 85.3706 339.457 84.879 340.883 84.8617C342.958 84.9271 344.897 85.9082 346.177 87.54C346.201 87.5681 346.235 87.5801 346.26 87.6059C346.388 87.7259 346.535 87.8228 346.696 87.8923C346.731 87.9064 346.756 87.9334 346.793 87.9446C346.927 87.9572 347.06 87.9697 347.193 87.9822C347.277 87.9813 347.361 87.972 347.443 87.9543C347.612 87.9197 347.773 87.85 347.914 87.7497C347.952 87.7314 347.989 87.7112 348.024 87.6892C348.052 87.6661 348.063 87.6332 348.088 87.6084C348.152 87.5436 348.208 87.472 348.257 87.3949C348.304 87.3245 348.345 87.2495 348.378 87.1711C348.391 87.1361 348.419 87.1108 348.43 87.074C351.539 77.114 360.741 70.2987 371.196 70.2124C371.234 70.2154 371.279 70.2103 371.308 70.2165C383.367 70.2165 391.189 76.084 395.223 88.1531L398.369 97.5706C399.118 99.8146 399.267 101.435 398.581 102.364C398.04 102.947 397.286 103.199 396.466 103.173H394.368C392.487 103.176 390.962 104.697 390.96 106.574V114.774C390.955 117.012 390.063 119.157 388.477 120.741C387.014 122.218 385.02 123.051 382.938 123.055H377.064C373.155 123.055 369.985 126.217 369.985 130.118C369.985 134.019 373.155 137.181 377.064 137.181H385.105C394.15 137.15 402.426 142.253 406.444 150.339L422.338 182.058C423.972 185.345 427.338 187.42 431.016 187.407H500.51ZM250.161 63.4109C248.568 63.4109 247.277 62.1226 247.277 60.5333C247.277 58.9441 248.568 57.6558 250.161 57.6558C251.754 57.6558 253.045 58.9441 253.045 60.5333C253.043 62.1219 251.753 63.4093 250.161 63.4109ZM137.666 97.9415L147.872 87.7577V97.9415H137.666ZM347.962 108.667C347.962 118.438 341.03 123.759 334.544 125.48C334.123 125.577 333.702 125.316 333.604 124.895C333.557 124.694 333.592 124.481 333.701 124.305C338.924 116.469 336.485 109.298 334.526 103.538C333.558 101.167 332.961 98.6621 332.755 96.1103C332.709 93.3152 333.518 90.5725 335.075 88.2482C342.996 92.3019 347.962 99.6817 347.962 108.667Z"
    fill="black" />
  <path
    d="M292.859 52.9472C292.135 52.9472 291.548 53.5328 291.548 54.2551C291.548 54.9775 292.135 55.5631 292.859 55.5631C297.058 55.5631 300.463 52.1666 300.463 47.9769C300.463 43.7871 297.058 40.3906 292.859 40.3906C292.135 40.3906 291.548 40.9762 291.548 41.6986C291.548 42.421 292.135 43.0066 292.859 43.0066C295.61 43.0066 297.841 45.2319 297.841 47.9769C297.841 50.7219 295.61 52.9472 292.859 52.9472Z"
    fill="black" />
  <path
    d="M105.136 185.053C106.294 185.053 107.234 184.116 107.234 182.96C107.234 181.804 106.294 180.867 105.136 180.867C103.978 180.867 103.039 181.804 103.039 182.96C103.039 184.116 103.978 185.053 105.136 185.053Z"
    fill="black" />
  <path
    d="M68.9676 217.348C68.3091 217.054 67.5363 217.344 67.2347 217.998C67.0494 218.405 62.4397 227.952 43.7785 226.5C20.4358 224.552 2.5164 205.026 2.6228 181.655C2.7252 161.481 15.1831 145.063 39.6522 132.856L41.0809 132.143C45.7951 129.806 48.7701 125.001 48.7539 119.749L48.7559 112.648C54.6435 117.604 62.0799 120.355 69.7828 120.427C79.0737 120.259 86.5168 112.695 86.5145 103.423L86.5053 81.7221H101.99C102.714 81.7221 103.3 81.1365 103.3 80.4141C103.3 79.6917 102.714 79.1061 101.99 79.1061H86.4664C85.7417 66.8463 75.1933 57.4939 62.9059 58.217C52.0521 58.8557 43.2443 67.2154 42.063 77.9994C41.964 78.9415 42.2703 79.8812 42.9059 80.5847C43.5573 81.3078 44.4857 81.7212 45.4602 81.7221H83.8834L83.8927 103.424C83.8993 111.264 77.61 117.664 69.7542 117.811C69.6579 117.812 69.5637 117.813 69.4684 117.813C61.3038 117.813 54.0026 113.97 48.7569 109.191L48.76 95.0532C48.7589 92.0178 46.2919 89.5579 43.2496 89.559C43.0386 89.5591 42.8278 89.5712 42.6181 89.5954C39.6328 90.0425 37.5108 92.729 37.7729 95.7296C38.0617 99.8058 41.1413 105.451 46.1341 110.316L46.132 119.749C46.1452 124.01 43.7317 127.908 39.9072 129.803L38.4795 130.517C13.0548 143.201 0.108476 160.402 0.000955097 181.641C-0.10799 206.382 18.8647 227.049 43.5757 229.108C44.9481 229.214 46.2508 229.263 47.489 229.263C64.871 229.263 69.4306 219.511 69.6282 219.068C69.9204 218.411 69.625 217.642 68.9676 217.348ZM45.4602 79.1061C45.2295 79.1057 45.0099 79.0076 44.8559 78.8363C44.7174 78.6859 44.65 78.4836 44.6705 78.2804C45.852 67.5086 55.5617 59.732 66.3578 60.9108C75.8353 61.9456 83.2034 69.6146 83.8394 79.1061H45.4602ZM40.3885 95.5448C40.2139 93.9392 41.3178 92.474 42.9121 92.1951C43.026 92.1821 43.1405 92.1756 43.2552 92.1757C43.9641 92.173 44.6487 92.4338 45.1754 92.9073C45.7874 93.4536 46.1375 94.2339 46.1382 95.0532L46.1351 106.542C42.699 102.681 40.6026 98.5755 40.3885 95.5448Z"
    fill="black" />
  <path
    d="M74.7062 98.977H72.6088C71.8848 98.977 71.2979 99.5626 71.2979 100.285C71.2979 101.007 71.8848 101.593 72.6088 101.593C72.6088 101.593 73.0749 101.593 74.7062 101.593C76.5339 101.593 77.768 101.06 78.7557 99.8609C79.5655 98.6147 79.6848 97.2713 79.0958 95.6856L75.9495 86.2683C75.7189 85.5837 74.9757 85.2153 74.2895 85.4455C73.6056 85.6749 73.2362 86.4126 73.4629 87.096L76.6091 96.5133C76.7174 96.8225 76.7876 97.0996 76.8051 97.3709C76.8495 98.0601 76.4103 98.6444 75.7511 98.8549C75.4331 98.9565 75.0877 98.991 74.7062 98.977Z"
    fill="black" />
  <path
    d="M64.2195 90.8673C65.378 90.8673 66.317 89.9303 66.317 88.7745C66.317 87.6186 65.378 86.6816 64.2195 86.6816C63.0611 86.6816 62.1221 87.6186 62.1221 88.7745C62.1221 89.9303 63.0611 90.8673 64.2195 90.8673Z"
    fill="black" />
  <path
  d="M352.832 188.594C353.06 187.908 352.687 187.169 352 186.942C351.315 186.715 350.576 187.084 350.346 187.766L347.2 197.184C346.597 198.922 346.73 200.113 347.54 201.359C348.527 202.558 350.019 203.131 351.589 203.091H353.687C354.411 203.091 354.997 202.505 354.997 201.783C354.997 201.061 354.411 200.475 353.687 200.475C353.687 200.475 352.277 200.475 351.589 200.475C350.901 200.475 350.59 200.428 350.159 200.19C349.799 199.991 349.546 199.621 349.496 199.213C349.446 198.807 349.578 198.34 349.686 198.011C349.795 197.683 352.832 188.594 352.832 188.594Z"
    fill="black" />
  <path
    d="M362.076 192.367C363.235 192.367 364.174 191.43 364.174 190.274C364.174 189.119 363.235 188.182 362.076 188.182C360.918 188.182 359.979 189.119 359.979 190.274C359.979 191.43 360.918 192.367 362.076 192.367Z"
    fill="black" />
  <path
    d="M407.479 232.4L394.789 226.069C390.96 224.175 388.543 220.274 388.557 216.009V183.996C388.557 170.56 377.641 159.668 364.174 159.668C350.708 159.668 339.791 170.56 339.791 183.996V203.884C339.791 213.853 347.89 221.934 357.882 221.934C367.873 221.934 375.972 213.853 375.972 203.884V188.182C375.966 182.839 371.627 178.509 366.272 178.503H348.443C347.719 178.503 347.132 179.088 347.132 179.811C347.132 180.533 347.719 181.119 348.443 181.119H366.272C370.179 181.123 373.346 184.283 373.351 188.182V203.884C373.349 212.408 366.422 219.317 357.879 219.315C349.335 219.313 342.411 212.402 342.413 203.878V183.996C342.413 172.005 352.156 162.284 364.174 162.284C376.193 162.284 385.935 172.005 385.935 183.996V216.009C385.918 221.266 388.897 226.075 393.618 228.409L406.307 234.74C414.411 238.749 419.526 247.007 419.495 256.032V278.181C419.495 278.903 420.082 279.489 420.806 279.489C421.53 279.489 422.117 278.903 422.117 278.181V256.032C422.151 246.015 416.474 236.85 407.479 232.4Z"
    fill="black" />
  <path
    d="M357.881 226.646H353.686C340.4 226.646 333.804 236.517 327.426 246.064C321.392 255.094 315.664 263.619 304.658 264.254V240.511C304.654 237.478 302.191 235.021 299.152 235.017H284.469C281.43 235.021 278.967 237.478 278.964 240.511V255.945H278.177C275.138 255.949 272.675 258.406 272.671 261.438V270.856C272.671 271.578 273.258 272.164 273.982 272.164C274.706 272.164 275.293 271.578 275.293 270.856V261.438C275.295 259.85 276.585 258.563 278.177 258.561H284.469C287.219 258.564 289.448 260.788 289.451 263.531V271.902C289.448 274.646 287.219 276.87 284.469 276.873H215.253C214.819 276.872 214.467 276.521 214.466 276.088V265.624C214.467 265.191 214.819 264.84 215.253 264.839H236.228C243.898 264.83 250.114 258.628 250.123 250.975V207.027C250.114 199.373 243.898 193.171 236.228 193.162H169.109C161.438 193.171 155.222 199.373 155.213 207.027V250.975C155.222 258.628 161.438 264.83 169.109 264.839H190.083C190.517 264.84 190.869 265.191 190.87 265.624V276.088C190.869 276.521 190.517 276.872 190.083 276.873H149.124C146.441 276.882 143.985 275.368 142.793 272.969L126.899 241.252C122.439 232.277 113.253 226.612 103.213 226.646H95.1726C92.711 226.646 90.7155 224.655 90.7155 222.199C90.7155 219.743 92.711 217.752 95.1726 217.752H101.052C103.826 217.749 106.483 216.642 108.436 214.677C110.513 212.601 111.683 209.789 111.69 206.855V198.656C111.691 198.222 112.043 197.872 112.477 197.871H114.574C116.214 197.969 117.798 197.261 118.816 195.975C119.967 194.382 120.017 191.977 118.964 188.824L115.818 179.407C111.444 166.316 102.563 159.678 89.4168 159.678H81.0147C68.7124 159.692 58.7429 169.639 58.729 181.913V211.212C58.7289 211.934 59.3158 212.52 60.0397 212.52C60.0398 212.52 60.0399 212.52 60.0399 212.52H79.9659C80.6899 212.52 81.2768 211.935 81.2768 211.212C81.2768 211.212 81.2768 211.212 81.2768 211.212V198.656C81.2769 197.933 80.6901 197.348 79.9661 197.348C79.966 197.348 79.966 197.348 79.9659 197.348C77.2144 197.347 74.984 195.122 74.9841 192.377C74.9841 192.325 74.9849 192.274 74.9865 192.223C75.1633 189.477 77.4731 187.356 80.2301 187.407H81.0147C88.6853 187.398 94.9014 181.196 94.9104 173.542V168.31C94.9104 167.588 94.3235 167.002 93.5995 167.002C92.8755 167.002 92.2886 167.588 92.2886 168.31V173.542C92.2816 179.752 87.2382 184.784 81.0147 184.791H80.2301C76.0598 184.749 72.5949 187.989 72.3667 192.144C72.2511 195.916 74.93 199.2 78.655 199.852V209.904H61.3509V181.913C61.3631 171.083 70.1597 162.306 81.0147 162.294H89.4168C101.475 162.294 109.298 168.162 113.331 180.234L116.477 189.652C117.227 191.896 117.302 193.598 116.689 194.445C116.148 195.028 115.367 195.327 114.574 195.255H112.477C110.595 195.257 109.071 196.778 109.068 198.656V206.855C109.063 209.093 108.171 211.239 106.586 212.823C105.122 214.3 103.128 215.132 101.046 215.136H95.1726C91.263 215.136 88.0936 218.298 88.0936 222.199C88.0936 226.1 91.263 229.262 95.1726 229.262H103.213C112.259 229.231 120.535 234.334 124.554 242.421L140.447 274.138C142.081 277.426 145.446 279.502 149.124 279.489H190.083C191.965 279.486 193.489 277.965 193.492 276.088V265.624C193.489 263.747 191.965 262.225 190.083 262.223H169.109C162.885 262.216 157.842 257.184 157.835 250.975V207.027C157.842 200.817 162.885 195.785 169.109 195.778H236.228C242.451 195.785 247.495 200.817 247.502 207.027V250.975C247.495 257.184 242.451 262.216 236.228 262.223H215.253C213.371 262.225 211.847 263.747 211.845 265.624V276.088C211.847 277.965 213.371 279.486 215.253 279.489H299.152C302.191 279.485 304.654 277.028 304.658 273.995V266.871C317.062 266.235 323.445 256.737 329.607 247.515C335.879 238.128 341.803 229.262 353.686 229.262H357.881C358.605 229.262 359.192 228.677 359.192 227.954C359.192 227.232 358.605 226.646 357.881 226.646ZM302.036 273.995C302.034 275.584 300.744 276.871 299.152 276.873H290.2C291.407 275.497 292.073 273.731 292.073 271.902V263.531C292.068 259.343 288.667 255.949 284.469 255.945H281.585V240.511C281.587 238.922 282.877 237.635 284.469 237.633H299.152C300.744 237.635 302.034 238.922 302.036 240.511V273.995Z"
    fill="black" />
  <path
    d="M497.557 34.7873C497.788 34.1027 497.419 33.3612 496.733 33.131C496.047 32.9009 495.303 33.2693 495.073 33.9539C495.072 33.9558 495.071 33.9577 495.071 33.9596L491.925 43.3771C491.327 44.7374 491.455 46.3062 492.265 47.5524C493.252 48.7517 494.762 49.3976 496.314 49.2844H498.412C499.136 49.2844 499.723 48.6988 499.723 47.9765C499.723 47.2541 499.136 46.6685 498.412 46.6685H496.314C496.072 46.6795 495.872 46.6865 495.657 46.651C494.617 46.4797 493.991 45.4859 494.304 44.4821C494.333 44.3879 494.369 44.2953 494.411 44.2048L497.557 34.7873Z"
    fill="black" />
  <path
    d="M506.802 38.5585C507.96 38.5585 508.899 37.6216 508.899 36.4658C508.899 35.31 507.96 34.373 506.802 34.373C505.643 34.373 504.704 35.31 504.704 36.4658C504.704 37.6216 505.643 38.5585 506.802 38.5585Z"
    fill="black" />
  <path
    d="M532.233 35.4212C532.233 34.6988 531.646 34.1132 530.922 34.1132C530.922 34.1132 530.922 34.1132 530.922 34.1132C524.124 34.1132 520.235 30.2332 516.118 26.1253C511.804 21.8213 507.344 17.3711 499.46 17.3711C491.21 17.3804 484.525 24.0508 484.515 32.282V53.2096C484.526 62.596 492.15 70.2025 501.557 70.2133H504.704C506.296 70.2133 507.588 71.5017 507.588 73.0909C507.588 74.6801 506.296 75.9684 504.704 75.9684H495.09C485.05 75.9344 475.864 81.5988 471.404 90.5738L457.387 118.547C457.063 119.193 457.326 119.979 457.973 120.302C458.621 120.624 459.408 120.362 459.732 119.716L473.749 91.7428C477.768 83.6566 486.044 78.5533 495.09 78.5844H504.704C507.744 78.5844 510.21 76.1249 510.21 73.0909C510.21 70.0569 507.744 67.5974 504.704 67.5974H501.557C493.597 67.5886 487.146 61.1521 487.137 53.2096V32.282C487.145 25.495 492.658 19.9951 499.46 19.987C506.258 19.987 510.147 23.867 514.264 27.9749C518.578 32.279 523.038 36.7291 530.922 36.7291C531.646 36.7292 532.233 36.1437 532.233 35.4214C532.233 35.4213 532.233 35.4212 532.233 35.4212Z"
    fill="black" />
  <path
    d="M503.655 13.7078C510.454 13.7078 514.342 17.5878 518.459 21.6956C522.773 25.9997 527.233 30.4499 535.117 30.4499C535.841 30.4499 536.428 29.8643 536.428 29.1419C536.428 28.4196 535.841 27.834 535.117 27.834C528.319 27.834 524.43 23.954 520.313 19.8461C515.999 15.542 511.539 11.0918 503.655 11.0918C502.931 11.0918 502.344 11.6774 502.344 12.3998C502.344 13.1222 502.931 13.7078 503.655 13.7078Z"
    fill="black" />
  <path
    d="M507.85 7.42846C514.649 7.42846 518.538 11.3085 522.655 15.4163C526.968 19.7204 531.429 24.1706 539.313 24.1706C540.037 24.1706 540.623 23.585 540.623 22.8626C540.623 22.1403 540.037 21.5547 539.313 21.5547C532.514 21.5547 528.625 17.6747 524.508 13.5668C520.195 9.2627 515.734 4.8125 507.85 4.8125C507.126 4.8125 506.54 5.3981 506.54 6.12048C506.54 6.84286 507.126 7.42846 507.85 7.42846Z"
    fill="black" />
  <path
    d="M573.135 121.77V91.9245C573.125 83.1155 565.97 75.9769 557.141 75.9671C556.417 75.9671 555.83 76.5527 555.83 77.2751C555.83 77.9975 556.417 78.5831 557.141 78.5831C564.523 78.5915 570.504 84.5597 570.513 91.9245V121.77C570.513 128.836 564.772 134.564 557.691 134.565C551.806 134.565 546.677 130.569 545.25 124.873L532.958 75.8169C532.366 73.4437 530.228 71.779 527.777 71.7816C522.711 71.7762 518.606 67.6802 518.6 62.6258V58.4402C518.603 55.6965 520.832 53.473 523.582 53.4699H529.874C529.959 53.4699 538.437 53.5557 541.216 60.9468L557.996 111.173C558.223 111.859 558.965 112.231 559.652 112.004C560.339 111.777 560.712 111.037 560.484 110.351C560.483 110.349 560.483 110.347 560.482 110.346L543.687 60.0742C542.569 57.0069 540.359 54.4575 537.478 52.912V44.8373C537.474 41.8048 535.011 39.3474 531.972 39.3438H525.679C522.64 39.3474 520.177 41.8048 520.173 44.8373V51.6684C517.605 52.9537 515.982 55.5735 515.979 58.4402V62.6258C515.986 69.1241 521.264 74.3901 527.777 74.3976C529.024 74.3963 530.112 75.2436 530.414 76.4515L542.706 125.507C544.774 133.764 553.159 138.784 561.435 136.721C568.311 135.006 573.135 128.842 573.135 121.77ZM522.795 44.8373C522.797 43.2487 524.087 41.9613 525.679 41.9597H531.972C533.564 41.9613 534.854 43.2487 534.856 44.8373V51.7639C533.249 51.2173 531.571 50.9107 529.874 50.854H523.582C523.319 50.854 523.057 50.8677 522.795 50.8948V44.8373Z"
    fill="black" />
  <path
    d="M624.861 271.429L614.5 264.536C613.895 264.14 613.082 264.307 612.684 264.911C612.29 265.509 612.451 266.312 613.045 266.713L623.407 273.605C625.507 275.002 628.345 274.435 629.745 272.339C630.954 270.53 630.715 268.122 629.174 266.585L618.385 255.821C615.785 253.212 612.247 251.75 608.56 251.76H576.018C575.294 251.76 574.707 252.345 574.707 253.068C574.707 253.79 575.294 254.376 576.018 254.376H608.56C611.551 254.368 614.422 255.554 616.532 257.67L627.32 268.435C628.081 269.194 628.082 270.425 627.32 271.185C626.664 271.841 625.634 271.943 624.861 271.429H624.861Z"
    fill="black" />
  <path
    d="M638.357 277.009L626.986 282.681C624.261 284.043 620.968 283.51 618.814 281.359L609.996 272.561C607.396 269.952 603.857 268.49 600.17 268.5H567.635C561.411 268.493 556.368 263.461 556.361 257.251V223.767C556.331 214.743 561.445 206.485 569.548 202.476L582.234 196.146C586.953 193.811 589.932 189.002 589.914 183.746L589.912 177.508C595.8 182.461 603.23 185.219 610.931 185.311C620.221 185.143 627.665 177.58 627.663 168.309V144.744C627.663 132.635 618.029 122.441 606.188 122.021C593.887 121.575 583.553 131.162 583.106 143.435C583.097 143.691 583.092 143.948 583.091 144.204C583.088 146.096 584.604 147.643 586.5 147.643H588.597C592.505 147.648 595.671 150.807 595.676 154.706V165.17C595.681 169.358 599.082 172.752 603.279 172.756C605.161 172.754 606.686 171.233 606.688 169.355C606.691 166.612 608.919 164.388 611.669 164.385H615.864C617.751 164.392 618.926 163.852 619.914 162.653C620.756 161.376 620.89 160.218 620.254 158.478L617.108 149.06C616.877 148.376 616.134 148.007 615.448 148.237C614.764 148.467 614.394 149.204 614.621 149.888L617.767 159.305C617.845 159.552 617.92 159.709 617.951 159.919C618.067 160.714 617.59 161.453 616.819 161.683C616.513 161.774 616.208 161.77 615.864 161.769H611.669C607.472 161.773 604.071 165.167 604.066 169.355C604.066 169.786 603.683 170.143 603.25 170.14C600.514 170.121 598.301 167.904 598.298 165.17V154.706C598.292 149.363 593.952 145.033 588.597 145.027H586.5C586.073 145.027 585.713 144.682 585.713 144.256C585.706 133.413 594.512 124.622 605.377 124.622C605.617 124.622 605.856 124.626 606.095 124.635C616.542 125.006 625.041 134.027 625.041 144.744V168.309C625.048 176.149 618.758 182.548 610.902 182.695C602.717 182.813 595.246 178.856 589.912 173.984L589.908 160.178C589.908 158.925 589.569 157.67 588.817 156.667C587.577 155.014 585.671 154.287 583.846 154.471C580.877 154.855 578.718 157.473 578.911 160.454C579.149 164.811 582.389 170.456 587.29 175.191L587.292 183.746C587.307 188.011 584.89 191.912 581.06 193.806L568.375 200.136C559.381 204.586 553.705 213.751 553.739 223.767V257.251C553.748 264.905 559.964 271.107 567.635 271.116H600.17C603.162 271.108 606.032 272.294 608.142 274.41L616.96 283.209C619.91 286.158 624.423 286.889 628.157 285.021L639.528 279.349C640.176 279.026 640.439 278.241 640.115 277.595C639.792 276.948 639.004 276.686 638.357 277.009ZM581.528 160.311C581.437 158.736 582.545 157.344 584.103 157.075C584.202 157.064 584.302 157.059 584.402 157.059C585.118 157.057 585.809 157.323 586.338 157.805C586.941 158.351 587.286 159.125 587.286 159.938L587.289 171.334C583.808 167.428 581.692 163.294 581.528 160.311Z"
    fill="black" />
  <path
    d="M605.376 153.66C606.535 153.66 607.474 152.723 607.474 151.567C607.474 150.412 606.535 149.475 605.376 149.475C604.218 149.475 603.279 150.412 603.279 151.567C603.279 152.723 604.218 153.66 605.376 153.66Z"
    fill="black" />
  <path
    d="M683.184 77.6877C683.415 77.0031 683.046 76.2616 682.36 76.0314C681.674 75.8013 680.93 76.1697 680.7 76.8543C680.699 76.8562 680.698 76.8581 680.698 76.86L677.551 86.2775C676.954 87.6378 677.082 89.2067 677.892 90.4529C678.879 91.6522 680.161 92.1849 681.941 92.1849H684.038C684.762 92.1849 685.349 91.5993 685.349 90.8769C685.349 90.1545 684.762 89.5689 684.038 89.5689H681.941C681.496 89.5927 681.101 89.5503 680.722 89.387C680.183 89.1548 679.831 88.6234 679.831 88.0373C679.831 87.7188 679.9 87.4005 680.038 87.1052L683.184 77.6877Z"
    fill="black" />
  <path
    d="M692.428 81.4609C693.586 81.4609 694.526 80.5239 694.526 79.3681C694.526 78.2123 693.586 77.2754 692.428 77.2754C691.27 77.2754 690.331 78.2123 690.331 79.3681C690.331 80.5239 691.27 81.4609 692.428 81.4609Z"
    fill="black" />
  <path
    d="M667.258 66.0261C667.982 66.0261 668.569 65.4406 668.569 64.7183C668.569 64.7182 668.569 64.7181 668.569 64.7181C668.579 56.1981 675.499 49.2938 684.038 49.2839H694.525C710.012 49.3014 722.561 61.8231 722.579 77.2747V82.5066C722.579 88.2239 725.706 90.8542 727.989 92.7753C728.46 93.1707 728.904 93.5447 729.256 93.8952C729.507 94.1466 729.789 94.4133 730.089 94.6974C732.231 96.7227 735.164 99.496 735.164 104.481C735.073 108.012 733.721 111.394 731.353 114.02C730.84 114.529 730.838 115.357 731.349 115.869C731.859 116.381 732.689 116.383 733.202 115.874C733.204 115.872 733.205 115.871 733.207 115.869C736.081 112.762 737.711 108.709 737.786 104.481C737.786 98.371 734.097 94.8833 731.893 92.7988C731.61 92.532 731.346 92.2817 731.109 92.0456C730.679 91.6165 730.194 91.2077 729.678 90.7745C727.58 89.0097 725.201 87.0079 725.201 82.5066V77.2747C725.182 60.3789 711.459 46.6868 694.525 46.668H684.038C674.051 46.6792 665.959 54.7539 665.947 64.7181C665.947 65.4404 666.534 66.026 667.258 66.0261C667.258 66.0261 667.258 66.0261 667.258 66.0261Z"
    fill="black" />
  <path
    d="M717.598 118.868C713.69 118.863 710.524 115.704 710.519 111.805L710.515 100.845C715.464 96.1081 718.643 90.5614 718.884 86.1623C719.043 83.193 716.901 80.5951 713.95 80.1793C712.399 80.0322 710.857 80.5379 709.697 81.5742C708.545 82.6164 707.888 84.0951 707.887 85.6463L707.893 99.7581C707.736 99.9012 707.578 100.043 707.418 100.182C703.87 103.298 696.52 108.473 686.893 108.402C679.037 108.256 672.747 101.856 672.754 94.0163V73.0887C672.762 66.3017 678.275 60.8017 685.077 60.7937L685.082 60.7926L685.087 60.7937C691.885 60.7937 695.774 64.6737 699.891 68.7816C704.205 73.0856 708.665 77.5358 715.5 77.5358C716.224 77.5358 716.811 76.9502 716.811 76.2278C716.811 75.5055 716.224 74.9199 715.5 74.9199C709.751 74.9199 705.862 71.0399 701.745 66.932C697.431 62.6279 692.971 58.1777 685.087 58.1777L685.082 58.1788L685.077 58.1777C676.827 58.1871 670.142 64.8575 670.132 73.0887V94.0163C670.13 103.288 677.573 110.851 686.864 111.018C686.963 111.019 687.062 111.02 687.16 111.02C694.89 111.019 702.226 107.682 707.894 103.142L707.897 111.805C707.903 117.148 712.243 121.478 717.598 121.484H720.851C727.182 121.474 733.277 123.884 737.883 128.219L750.894 140.658C752.213 141.924 754.298 141.922 755.615 140.654L781.43 115.887C781.687 115.64 781.833 115.3 781.833 114.944C781.833 106.028 790.738 101.002 794.567 99.2544C795.369 98.8936 796.311 99.0648 796.934 99.6846C797.759 100.509 797.758 101.845 796.931 102.668C796.899 102.7 796.865 102.731 796.831 102.761L791.195 107.682C790.718 108.099 790.608 108.796 790.934 109.339C793.494 113.596 793.092 122.029 786.62 126.092C785.928 126.52 785.505 127.273 785.504 128.085V135.872C785.506 137.749 787.03 139.27 788.912 139.272H831.91C832.634 139.272 833.221 138.687 833.221 137.964C833.221 137.242 832.634 136.656 831.91 136.656H788.912C788.478 136.656 788.126 136.305 788.125 135.872V128.236C794.452 124.034 796.812 115.887 793.706 108.965L798.557 104.729C800.525 103.011 800.724 100.027 799.002 98.0633C797.625 96.4937 795.379 96.0109 793.477 96.8755C789.265 98.7976 779.574 104.306 779.221 114.378L753.798 138.769C753.494 139.062 753.013 139.062 752.709 138.77L739.689 126.322C734.596 121.526 727.854 118.858 720.851 118.868L717.598 118.868ZM711.457 83.5127C711.986 83.031 712.677 82.7651 713.393 82.7677C713.493 82.7678 713.592 82.7729 713.692 82.7831C715.251 83.0503 716.359 84.4438 716.266 86.0193C716.094 89.1574 713.887 93.3164 710.514 97.1085L710.509 85.6453C710.509 84.8328 710.854 84.0583 711.457 83.5127Z"
    fill="black" />
  <path
    d="M635.67 157.265C635.35 157.913 635.617 158.698 636.266 159.018C636.914 159.336 637.697 159.073 638.02 158.428L651.563 131.182C654.519 125.223 660.615 121.462 667.279 121.485H678.795C679.212 121.496 679.553 121.821 679.581 122.236C680.62 131.354 688.358 138.238 697.555 138.227C704.377 138.23 710.575 134.264 713.416 128.075C713.732 127.425 713.46 126.642 712.808 126.327C712.159 126.012 711.376 126.281 711.058 126.929C708.647 132.209 703.371 135.602 697.555 135.611C689.692 135.621 683.076 129.736 682.186 121.941C682.004 120.205 680.544 118.883 678.795 118.869H667.279C659.62 118.843 652.613 123.167 649.216 130.016L635.67 157.265Z"
    fill="black" />
  <path
    d="M658.909 199.982C649.566 191.636 635.211 192.427 626.845 201.749C618.48 211.071 619.273 225.394 628.617 233.741C629.524 234.551 630.495 235.287 631.52 235.942C632.129 236.332 632.94 236.155 633.331 235.548C633.722 234.94 633.545 234.131 632.935 233.741C623.593 227.774 620.868 215.38 626.848 206.058C632.829 196.737 645.251 194.018 654.593 199.985C660.361 203.669 663.85 210.03 663.85 216.863C663.85 223.603 660.989 229.371 656.003 232.684C653.175 234.672 649.7 235.522 646.271 235.066C648.419 232.994 652.582 228.171 652.628 221.896C652.659 217.87 651.027 214.6 648.152 212.925C645.498 211.401 642.23 211.405 639.579 212.936C636.609 214.637 634.905 217.899 634.905 221.885C634.905 228.799 639.143 233.496 641.505 235.576L637.893 238.46L630.342 244.738C629.786 245.2 629.71 246.024 630.173 246.579C630.422 246.878 630.791 247.051 631.181 247.051H651.946C652.959 247.044 653.786 247.859 653.793 248.87C653.799 249.881 652.983 250.706 651.969 250.713C651.962 250.713 651.954 250.713 651.947 250.713H640.62C638.158 250.713 636.163 252.704 636.163 255.16C636.163 257.616 638.158 259.607 640.62 259.607H647.782C648.506 259.607 649.093 259.022 649.093 258.299C649.093 257.577 648.506 256.991 647.782 256.991H640.62C639.606 256.991 638.784 256.171 638.784 255.16C638.784 254.149 639.606 253.329 640.62 253.329H651.947C654.409 253.329 656.404 251.337 656.404 248.881C656.403 246.425 654.407 244.434 651.946 244.435H634.801L639.551 240.486L643.781 237.107C647.916 238.593 653.1 237.757 657.456 234.861C663.185 231.053 666.471 224.494 666.471 216.863C666.467 210.42 663.718 204.282 658.909 199.982ZM644.205 233.42L643.595 233.909C641.709 232.315 637.527 228.081 637.527 221.885C637.527 218.818 638.719 216.445 640.885 215.205C641.802 214.678 642.841 214.401 643.899 214.399C644.929 214.397 645.94 214.667 646.83 215.183C648.902 216.391 650.03 218.767 650.006 221.876C649.964 227.497 645.886 231.865 644.205 233.42Z"
    fill="black" />
  <path
    d="M262.709 187.982V140.267C262.709 139.545 262.122 138.959 261.398 138.959C260.674 138.959 260.087 139.545 260.087 140.267V187.982C260.087 188.704 260.674 189.29 261.398 189.29C262.122 189.29 262.709 188.704 262.709 187.982Z"
    fill="black" />
  <path
    d="M270.26 195.517V132.734C270.26 132.011 269.673 131.426 268.949 131.426C268.225 131.426 267.638 132.011 267.638 132.734V195.517C267.638 196.239 268.225 196.825 268.949 196.825C269.673 196.825 270.26 196.239 270.26 195.517Z"
    fill="black" />
  <path
    d="M285.361 187.982V140.267C285.361 139.545 284.774 138.959 284.05 138.959C283.326 138.959 282.739 139.545 282.739 140.267V187.982C282.739 188.704 283.326 189.29 284.05 189.29C284.774 189.29 285.361 188.704 285.361 187.982Z"
    fill="black" />
  <path
    d="M277.811 180.449V147.802C277.811 147.08 277.224 146.494 276.5 146.494C275.776 146.494 275.189 147.08 275.189 147.802V180.449C275.189 181.171 275.776 181.757 276.5 181.757C277.224 181.757 277.811 181.171 277.811 180.449Z"
    fill="black" />
  <path
    d="M290.29 155.335V172.915C290.29 173.638 290.877 174.223 291.601 174.223C292.325 174.223 292.912 173.638 292.912 172.915V155.335C292.912 154.613 292.325 154.027 291.601 154.027C290.877 154.027 290.29 154.613 290.29 155.335Z"
    fill="black" />
  <path
    d="M297.841 161.615V166.638C297.841 167.36 298.428 167.946 299.152 167.946C299.876 167.946 300.463 167.36 300.463 166.638V161.615C300.463 160.892 299.876 160.307 299.152 160.307C298.428 160.307 297.841 160.892 297.841 161.615Z"
    fill="black" />
  <path
    d="M644.463 27.6831C644.465 28.4043 645.052 28.9881 645.774 28.988H645.777L649.136 28.9798L649.162 31.8369L638.331 42.6443C637.105 41.7821 635.68 41.2468 634.189 41.0891L640.766 34.5265L640.774 34.5142L641.259 34.0309C642.078 33.2026 642.488 32.0544 642.376 30.8958C642.275 29.7313 641.759 28.6414 640.923 27.8231C639.293 26.0253 636.515 25.8756 634.701 27.4879L632.456 29.7276C632.018 28.9531 631.724 28.1056 631.589 27.2263C631.47 26.5135 630.794 26.032 630.08 26.1508C629.365 26.2696 628.883 26.9437 629.002 27.6565C629.217 29.0782 629.748 30.4339 630.555 31.6244L619.631 42.5245C619.382 42.7728 619.243 43.1104 619.247 43.4616L619.29 48.1662C619.296 48.8838 619.881 49.4619 620.601 49.4619H620.604L625.265 49.4507C625.989 49.4498 626.575 48.8635 626.574 48.1412C626.573 47.4188 625.986 46.8339 625.262 46.8347H625.258L621.899 46.8429L621.874 43.9858L632.433 33.4504C633.659 34.3117 635.086 34.8461 636.577 35.0029L629.944 41.6212L629.936 41.6335L629.777 41.7919C629.764 41.8047 629.756 41.821 629.743 41.8337C629.711 41.8699 629.68 41.908 629.652 41.9477C628.921 42.7602 628.562 43.8394 628.66 44.9269C628.9 47.4504 630.993 49.3965 633.533 49.4578C634.579 49.4719 635.589 49.0675 636.335 48.3348L651.405 33.2982C651.654 33.0499 651.792 32.7122 651.789 32.3611L651.745 27.6565C651.738 26.9391 651.153 26.3611 650.434 26.3608H650.431L645.771 26.372C645.047 26.3737 644.462 26.9606 644.463 27.6829C644.463 27.6829 644.463 27.683 644.463 27.6831ZM636.555 29.3374C637.35 28.7699 638.451 28.9166 639.069 29.6726C639.46 30.0515 639.705 30.5553 639.762 31.096C639.805 31.4902 639.676 31.884 639.408 32.1769C637.703 32.6831 635.864 32.4576 634.333 31.5546L636.555 29.3374ZM634.481 46.4852C633.686 47.0543 632.584 46.9074 631.967 46.15C631.576 45.7711 631.331 45.2673 631.274 44.7266C631.25 44.4343 631.312 44.1413 631.453 43.8838C633.132 43.4127 634.932 43.6493 636.432 44.5385L634.481 46.4852Z"
    fill="black" />
  <path
    d="M586.296 56.6089H639.153C642.655 56.605 645.494 53.7731 645.498 50.2785V46.9299C645.498 46.2075 644.911 45.6219 644.187 45.6219C643.463 45.6219 642.876 46.2075 642.876 46.9299V50.2785C642.873 52.3289 641.208 53.9904 639.153 53.993H586.296C584.241 53.9904 582.576 52.3289 582.574 50.2785V15.1195C582.576 13.0691 584.241 11.4076 586.296 11.405H639.153C641.208 11.4076 642.873 13.0691 642.876 15.1195V21.3978C642.876 22.1201 643.463 22.7057 644.187 22.7057C644.911 22.7057 645.498 22.1201 645.498 21.3978V15.1195C645.494 11.6249 642.655 8.79297 639.153 8.78906H586.296C582.794 8.79297 579.956 11.6249 579.952 15.1195V50.2785C579.956 53.7731 582.794 56.605 586.296 56.6089Z"
    fill="black" />
  <path
    d="M424.161 62.8873C427.217 62.8896 430.258 62.4486 433.187 61.5782C433.881 61.3717 434.275 60.6431 434.068 59.9509C433.861 59.2588 433.131 58.8651 432.437 59.0716C417.147 63.6348 401.044 54.9667 396.471 39.7108C391.897 24.4549 400.585 8.38839 415.875 3.82517C431.165 -0.738038 447.268 7.93008 451.842 23.186C452.645 25.8653 453.053 28.647 453.054 31.4437C453.054 43.988 446.088 52.7484 436.116 52.7484C434.551 52.7477 432.997 52.4823 431.521 51.9636C431.451 51.9228 431.378 51.8886 431.301 51.8614C424.333 49.3926 418.644 44.2449 415.502 37.5656L415.082 36.6786C411.915 30.0365 411.533 22.4083 414.021 15.4842L414.168 15.2032C414.196 15.1497 414.22 15.0944 414.241 15.0377C414.464 14.4105 414.93 13.8984 415.534 13.6153L417.365 12.7518C418.62 12.1608 420.118 12.6963 420.712 13.9484L423.255 19.3172C423.846 20.5699 423.31 22.0638 422.055 22.6567L420.202 23.5314C420.202 23.5314 419.104 24.075 418.323 24.4429C416.041 25.5189 415.894 31.4447 418.038 35.9695C419.107 38.1476 420.715 40.0181 422.71 41.4047C423.629 42.0465 425.907 43.4781 427.212 42.8537C427.923 42.5186 428.976 41.9933 428.975 41.9933L430.806 41.1298C432.065 40.5397 433.565 41.0796 434.156 42.3358C434.157 42.3361 434.157 42.3364 434.157 42.3367L436.824 47.8445C437.139 48.4952 437.923 48.7679 438.575 48.4535C439.227 48.1392 439.501 47.3569 439.186 46.7061L436.523 41.2085C435.309 38.6527 432.25 37.5597 429.686 38.7652L427.828 39.641C427.828 39.641 427.011 40.0487 426.34 40.3716C423.735 39.3443 421.616 37.3724 420.408 34.8515C418.641 31.1217 419.073 27.4859 419.562 26.7523C420.34 26.3823 421.345 25.8857 421.345 25.8847L423.176 25.0212C425.738 23.8099 426.833 20.758 425.625 18.1993L423.082 12.8304C421.87 10.272 418.809 9.17796 416.245 10.3868C416.245 10.3869 416.245 10.387 416.245 10.3871L414.413 11.2506C413.21 11.8137 412.275 12.8231 411.807 14.0638L411.656 14.3499C411.625 14.4117 411.598 14.4751 411.574 14.54C408.825 22.1322 409.235 30.5062 412.711 37.7954L413.131 38.6824C416.532 45.9132 422.664 51.5066 430.186 54.2402C430.254 54.2799 430.324 54.3134 430.397 54.3404C432.228 55.0168 434.164 55.3635 436.116 55.3643C447.633 55.3643 455.676 45.5279 455.676 31.4436C455.676 14.0777 441.566 -3.58909e-05 424.161 0C406.756 3.5891e-05 392.647 14.0779 392.647 31.4437C392.647 48.8094 406.756 62.8872 424.161 62.8873Z"
    fill="black" />
  <path
    d="M170.157 41.3309C173.155 41.3264 175.742 39.2329 176.364 36.3074H183.949C183.949 36.3074 183.973 44.8057 184.007 44.9932H180.225C178.112 44.9953 176.4 46.7038 176.398 48.8119V55.2082C172.988 56.0034 170.87 59.4056 171.667 62.8073C172.464 66.2091 175.874 68.3221 179.284 67.527C182.693 66.7318 184.811 63.3296 184.014 59.9279C183.443 57.4903 181.485 55.6181 179.02 55.1525V48.8119C179.02 48.148 179.56 47.6099 180.225 47.6092H199.05V55.1756C195.622 55.898 193.429 59.2566 194.153 62.6774C194.877 66.0982 198.243 68.2856 201.672 67.5632C205.1 66.8409 207.293 63.4822 206.569 60.0614C206.05 57.6092 204.13 55.6934 201.672 55.1756V47.6092H205.395C207.508 47.6067 209.22 45.898 209.223 43.7895V36.3074H216.806C217.53 39.7282 220.897 41.9156 224.325 41.1933C227.753 40.4709 229.946 37.1122 229.222 33.6915C228.498 30.2707 225.132 28.0832 221.703 28.8056C219.245 29.3235 217.325 31.2393 216.806 33.6915H209.223V26.2104C209.218 25.8003 209.146 25.3936 209.009 25.0067H212.946C215.059 25.0047 216.771 23.2963 216.774 21.188V14.7917C220.184 13.9965 222.302 10.5938 221.505 7.19151C220.708 3.7892 217.298 1.67565 213.888 2.47078C210.478 3.26592 208.36 6.66862 209.157 10.0709C209.728 12.5091 211.686 14.3818 214.152 14.8474V21.188C214.151 21.8523 213.611 22.3904 212.946 22.3907H199.522C198.798 22.3907 198.211 22.9763 198.211 23.6987C198.211 24.4211 198.798 25.0067 199.522 25.0067H205.395C206.061 25.0071 206.601 25.5458 206.601 26.2104V43.7895C206.601 44.4541 206.061 44.9928 205.395 44.9932H187.147C186.829 44.9924 186.571 44.7347 186.571 44.4169V26.2104C186.571 25.5461 187.11 25.0076 187.776 25.0067H192.81C193.534 25.0067 194.121 24.4212 194.121 23.6989C194.121 23.6988 194.121 23.6988 194.121 23.6987V14.8244C197.549 14.102 199.742 10.7433 199.018 7.32256C198.294 3.90181 194.927 1.71434 191.499 2.43672C188.07 3.1591 185.878 6.51777 186.602 9.93852C187.121 12.3907 189.041 14.3065 191.499 14.8244V22.3908H187.776C185.663 22.3933 183.951 24.1021 183.949 26.2105V33.6915H176.364C175.64 30.2711 172.273 28.0844 168.845 28.8075C165.417 29.5305 163.225 32.8895 163.95 36.31C164.57 39.2369 167.159 41.331 170.157 41.3309ZM181.558 61.3685C181.558 63.42 179.892 65.083 177.836 65.083C175.78 65.083 174.113 63.42 174.113 61.3685C174.113 59.3171 175.78 57.6541 177.836 57.6541H177.836C179.891 57.6566 181.556 59.3181 181.558 61.3685ZM204.084 61.3685C204.084 63.42 202.417 65.083 200.361 65.083C198.305 65.083 196.638 63.42 196.638 61.3685C196.638 59.3171 198.305 57.6541 200.361 57.6541C200.361 57.6541 200.361 57.6541 200.361 57.6541C202.416 57.6566 204.081 59.3181 204.084 61.3685ZM223.014 31.285C225.071 31.2853 226.737 32.9487 226.737 35.0005C226.737 37.0522 225.07 38.7152 223.013 38.7149C220.957 38.7147 219.29 37.0512 219.29 34.9995C219.29 34.9994 219.29 34.9994 219.29 34.9994C219.293 32.9487 220.959 31.287 223.014 31.285ZM211.612 8.63138C211.612 6.57966 213.279 4.91618 215.335 4.91589C217.391 4.91561 219.059 6.57863 219.059 8.63036C219.059 10.6821 217.392 12.3456 215.336 12.3458C213.281 12.3436 211.615 10.6821 211.612 8.63138ZM189.087 8.63138C189.087 6.57966 190.753 4.91618 192.81 4.91589C194.866 4.91561 196.533 6.57863 196.534 8.63036C196.534 10.6821 194.867 12.3456 192.811 12.3458C192.81 12.3458 192.81 12.3458 192.81 12.3458C190.755 12.3432 189.09 10.6817 189.087 8.63138ZM170.157 31.285C172.214 31.2847 173.881 32.9477 173.881 34.9994C173.882 37.0512 172.215 38.7146 170.159 38.7149C168.102 38.7152 166.435 37.0522 166.435 35.0005C166.435 35.0001 166.435 34.9998 166.435 34.9994C166.437 32.9491 168.103 31.2875 170.157 31.285Z"
    fill="black" />
  <path
    d="M306.702 166.217C307.86 166.217 308.799 165.28 308.799 164.124C308.799 162.968 307.86 162.031 306.702 162.031C305.544 162.031 304.604 162.968 304.604 164.124C304.604 165.28 305.544 166.217 306.702 166.217Z"
    fill="black" />
  <path
    d="M314.253 166.217C315.412 166.217 316.351 165.28 316.351 164.124C316.351 162.968 315.412 162.031 314.253 162.031C313.095 162.031 312.156 162.968 312.156 164.124C312.156 165.28 313.095 166.217 314.253 166.217Z"
    fill="black" />
  <path
    d="M506.802 271.117H505.543C500.829 271.117 494.838 268.66 489.907 264.706C489.212 264.148 488.556 263.578 487.939 262.996C482.965 267.721 475.955 271.116 470.306 271.116H469.047C465.545 271.113 462.707 268.281 462.703 264.786V232.139C462.707 228.644 465.545 225.812 469.047 225.808H476.567L476.546 217.066C476.553 210.797 481.652 205.72 487.935 205.727C494.208 205.733 499.293 210.804 499.301 217.063L499.303 227.116C499.303 227.839 498.716 228.424 497.992 228.424H469.047C466.992 228.427 465.327 230.088 465.324 232.139V264.786C465.327 266.836 466.992 268.498 469.047 268.501H470.306C475.191 268.501 481.589 265.337 486.1 261.095C483.186 257.773 481.579 254.234 481.58 250.973C481.58 247.476 484.421 244.643 487.925 244.643C491.429 244.643 494.269 247.478 494.269 250.974C494.267 254.431 492.49 257.974 489.755 261.106C490.317 261.638 490.915 262.158 491.55 262.668C496.037 266.266 501.398 268.501 505.543 268.501H506.802C508.857 268.498 510.522 266.836 510.525 264.786V232.139C510.521 230.087 508.854 228.426 506.798 228.424H505.533C504.809 228.424 504.222 227.839 504.222 227.116C504.222 226.394 504.809 225.808 505.533 225.808H506.798C510.301 225.811 513.141 228.643 513.146 232.139V264.786C513.142 268.281 510.304 271.113 506.802 271.117ZM487.925 247.259C485.87 247.262 484.204 248.923 484.202 250.974C484.201 253.514 485.544 256.416 487.928 259.195C490.186 256.581 491.646 253.705 491.647 250.973C491.644 248.923 489.979 247.262 487.925 247.259ZM479.188 225.808H496.681L496.679 217.063C496.672 212.239 492.747 208.333 487.912 208.339C483.085 208.346 479.175 212.248 479.168 217.063L479.188 225.808Z"
    fill="black" />
  <path
    d="M766.888 172.492C768.047 172.492 768.986 171.555 768.986 170.399C768.986 169.244 768.047 168.307 766.888 168.307C765.73 168.307 764.791 169.244 764.791 170.399C764.791 171.555 765.73 172.492 766.888 172.492Z"
    fill="black" />
  <path
    d="M791.794 172.232H788.987C787.936 172.232 786.949 171.824 786.205 171.083L784.656 169.537C783.138 168.022 782.763 165.716 783.723 163.8L785.421 160.411C785.953 159.35 785.897 158.113 785.271 157.103C784.646 156.093 783.562 155.49 782.372 155.49H772.132C771.408 155.49 770.821 156.076 770.821 156.798C770.821 157.521 771.408 158.106 772.132 158.106H782.372C782.768 158.106 782.972 158.367 783.042 158.478C783.11 158.591 783.253 158.889 783.075 159.241L781.377 162.63C779.913 165.555 780.485 169.075 782.802 171.386L784.351 172.932C785.59 174.168 787.235 174.848 788.987 174.848H791.794C794.605 174.848 796.958 177.008 797.038 179.665C797.079 181.022 796.58 182.307 795.634 183.28C794.687 184.252 793.417 184.789 792.058 184.789C791.334 184.789 790.747 185.374 790.747 186.097C790.747 186.819 791.334 187.405 792.058 187.405C794.132 187.405 796.071 186.586 797.516 185.1C798.96 183.616 799.721 181.657 799.657 179.587C799.536 175.531 796.008 172.232 791.794 172.232Z"
    fill="black" />
  <path
    d="M848.69 124.622C849.414 124.622 850.001 124.036 850.001 123.314V114.943C850.001 107.739 844.465 101.806 837.416 101.144V82.3254C837.416 81.4169 837.062 80.5627 836.417 79.9204L825.062 68.5901C824.417 67.9473 823.562 67.5938 822.652 67.5938H788.912C787.033 67.5938 785.504 69.1194 785.504 70.9945V94.0149C785.504 94.7374 786.09 95.3229 786.814 95.3229C787.539 95.3229 788.125 94.7374 788.125 94.0149V70.9945C788.125 70.5617 788.479 70.2097 788.912 70.2097H821.161V82.5047C821.161 83.2272 821.747 83.8127 822.471 83.8127H834.794V102.386V114.419L830.724 111.374C828.938 110.038 826.402 110.216 824.824 111.792C823.085 113.526 823.042 116.278 824.728 118.057C839.546 133.686 847.379 151.425 847.379 169.354C847.379 198.158 830.791 214.087 819.325 214.087C811.374 214.087 804.905 207.633 804.905 199.7C804.905 193.319 806.018 189.444 807.095 185.696C808.126 182.107 809.1 178.718 809.1 173.54C809.1 158.971 797.221 147.119 782.62 147.119C782.584 147.119 782.549 147.12 782.514 147.123C769.42 147.156 760.568 153.792 756.207 166.848L753.06 176.265C752.007 179.418 752.057 181.823 753.208 183.416C754.091 184.638 755.597 185.312 757.45 185.312H759.547C759.981 185.312 760.334 185.664 760.334 186.097V194.296C760.334 197.212 761.52 200.063 763.588 202.118C765.586 204.102 768.207 205.193 770.967 205.193C770.982 205.193 770.996 205.193 771.012 205.193H776.851C779.309 205.193 781.309 207.188 781.309 209.64C781.309 212.093 779.309 214.087 776.851 214.087H768.811C758.716 214.087 749.64 219.684 745.125 228.693L727.275 264.314H689.667C689.073 264.314 688.502 264.134 688.014 263.794L682.36 259.848C680.233 258.256 677.598 257.497 675.021 257.691L668.32 257.838C665.188 258.077 662.914 260.715 662.914 264.115L662.931 266.425C663.189 269.509 664.623 272.323 666.97 274.35C668.756 275.892 671.081 276.822 673.692 277.04L677.387 277.348C678.878 278.799 684.638 283.672 694.764 283.672C695.488 283.672 696.075 283.086 696.075 282.364C696.075 281.641 695.488 281.056 694.764 281.056C684.354 281.056 679.015 275.272 678.965 275.217C678.741 274.965 678.429 274.81 678.094 274.782L673.91 274.432C671.856 274.261 670.048 273.549 668.686 272.372C666.86 270.795 665.745 268.606 665.549 266.308L665.536 264.107C665.536 262.054 666.735 260.583 668.449 260.45L675.15 260.303C677.164 260.144 679.169 260.73 680.821 261.966L686.511 265.937C687.441 266.586 688.532 266.93 689.667 266.93H726.132C724.978 270.283 725.197 273.591 726.833 276.231C728.475 278.884 731.367 280.533 734.378 280.533C737.992 280.533 740.932 277.599 740.932 273.993C740.932 269.705 737.162 265.183 730.146 264.434L747.47 229.862C751.537 221.745 759.715 216.703 768.811 216.703H776.851C780.755 216.703 783.93 213.534 783.93 209.64C783.93 205.746 780.755 202.577 776.851 202.577H771.006C768.948 202.624 766.949 201.766 765.438 200.264C763.86 198.697 762.956 196.522 762.956 194.296V186.097C762.956 184.221 761.427 182.696 759.547 182.696H757.45C756.751 182.696 755.817 182.556 755.335 181.886C754.723 181.039 754.797 179.337 755.547 177.093L758.693 167.676C762.725 155.605 770.547 149.739 782.607 149.739C782.61 149.739 782.615 149.739 782.62 149.739C782.653 149.739 782.686 149.738 782.72 149.735C795.829 149.79 806.478 160.447 806.478 173.54C806.478 178.35 805.553 181.568 804.574 184.976C803.448 188.896 802.283 192.951 802.283 199.7C802.283 209.075 809.929 216.703 819.325 216.703C832.186 216.703 850.001 200.249 850.001 169.354C850.001 150.743 841.92 132.384 826.633 116.26C825.941 115.53 825.962 114.357 826.679 113.642C827.338 112.981 828.402 112.907 829.151 113.467L835.318 118.082C835.717 118.379 836.247 118.428 836.691 118.205C837.135 117.984 837.416 117.531 837.416 117.035V103.77C843.017 104.419 847.379 109.182 847.379 114.943V123.314C847.379 124.036 847.966 124.622 848.69 124.622ZM738.31 273.993C738.31 276.156 736.546 277.917 734.378 277.917C732.269 277.917 730.232 276.743 729.062 274.855C727.702 272.659 727.655 269.876 728.913 266.949C735.024 267.237 738.31 270.714 738.31 273.993ZM823.782 71.0129L833.989 81.1967H823.782V71.0129Z"
    fill="black" />
</svg>
