<svg xmlns="http://www.w3.org/2000/svg" width="33" height="33" fill="none" viewBox="0 0 33 33"><path fill="url(#a)" d="M24.693 2.393H8.826A6.067 6.067 0 0 0 2.76 8.46v15.867a6.067 6.067 0 0 0 6.066 6.066h15.867a6.067 6.067 0 0 0 6.067-6.066V8.46a6.067 6.067 0 0 0-6.067-6.067"/><path fill="#FEFEFE" d="M16.878 7.412c-5.67 0-10.267 3.762-10.267 8.4 0 2.95 1.867 5.542 4.667 7.04a.47.47 0 0 1 .233.574 4.2 4.2 0 0 1-1.295 1.703.233.233 0 0 0 .04.388.23.23 0 0 0 .15.023 8.4 8.4 0 0 0 3.392-1.4.92.92 0 0 1 .716-.166c.78.153 1.574.232 2.369.234 5.67 0 10.266-3.762 10.266-8.4 0-4.639-4.601-8.396-10.271-8.396"/><defs><linearGradient id="a" x1="16.76" x2="16.76" y1="2.393" y2="30.393" gradientUnits="userSpaceOnUse"><stop stop-color="#5CF777"/><stop offset="1" stop-color="#0DBC29"/></linearGradient></defs></svg>