<svg xmlns="http://www.w3.org/2000/svg" width="236" height="28" fill="none" viewBox="0 0 236 28"><mask id="a" width="38" height="20" x="1" y="3" maskUnits="userSpaceOnUse" style="mask-type:luminance"><path fill="#fff" fill-rule="evenodd" d="M1.026 3h37.947v20H1.026z" clip-rule="evenodd"/></mask><g mask="url(#a)"><path fill="#000" fill-rule="evenodd" d="M38.973 9.203a.823.823 0 0 0-1.648 0v1.731a.825.825 0 1 0 1.648 0zm-4.53-2.272a.826.826 0 0 0-.833-.823.823.823 0 0 0-.823.823v4.004c0 .456.368.824.823.824a.826.826 0 0 0 .834-.825zm-4.539-3.108a.824.824 0 0 0-1.647 0v8.756a.824.824 0 1 0 1.647 0zm-4.54 3.108a.824.824 0 0 0-1.648 0v4.004a.824.824 0 1 0 1.647 0zm-4.54 2.272a.825.825 0 0 0-1.647 0v1.731a.823.823 0 1 0 1.647 0zM16.29 6.931a.826.826 0 0 0-1.652 0v4.004a.826.826 0 0 0 1.652 0zm-4.538-3.108a.825.825 0 0 0-1.652 0v8.756a.826.826 0 0 0 1.652 0zM7.216 6.931a.826.826 0 0 0-1.652 0v4.004a.826.826 0 0 0 1.652 0zM2.678 9.203a.824.824 0 0 0-.826-.822.825.825 0 0 0-.826.822v1.731a.826.826 0 0 0 1.652 0zm17.055 7.178a7 7 0 0 0-1.621-.211c-1.534 0-2.459.828-2.459 2.062 0 1.091.774 1.635 1.701 1.928.103.035.253.082.355.116.413.129.741.322.741.656 0 .373-.38.616-1.208.616-.727 0-1.425-.208-1.571-.245v1.517c.082.018.911.18 1.796.18 1.273 0 2.73-.556 2.73-2.213 0-.802-.493-1.543-1.572-1.886l-.46-.146c-.273-.086-.762-.226-.762-.628 0-.317.362-.54 1.03-.54.575 0 1.275.194 1.3.201zm12.34 1.47c.986 0 1.722.777 1.722 1.734 0 .96-.736 1.736-1.721 1.736-.988 0-1.72-.777-1.72-1.736 0-.957.732-1.734 1.72-1.734m3.484 1.734c0-1.882-1.456-3.412-3.483-3.412-2.029 0-3.483 1.53-3.483 3.412 0 1.887 1.454 3.415 3.483 3.415 2.027 0 3.483-1.528 3.483-3.415M9.471 16.408c-.157-.045-.735-.235-1.517-.235-2.025 0-3.511 1.444-3.511 3.412 0 2.125 1.64 3.415 3.51 3.415.744 0 1.31-.175 1.518-.235v-1.77c-.072.04-.615.35-1.397.35-1.11 0-1.825-.78-1.825-1.76 0-1.01.747-1.757 1.825-1.757.795 0 1.33.317 1.397.35zm17.368 0c-.157-.045-.736-.235-1.517-.235-2.027 0-3.513 1.444-3.513 3.412 0 2.125 1.642 3.415 3.513 3.415.74 0 1.308-.175 1.517-.235v-1.77c-.073.04-.618.35-1.4.35-1.107 0-1.822-.78-1.822-1.76 0-1.01.746-1.757 1.822-1.757.796 0 1.332.317 1.4.35zm-15.08 6.476h1.664V16.29h-1.665z" clip-rule="evenodd"/></g><path fill="#000" fill-rule="evenodd" d="M84.91 10.226q.636 0 1.35.152.72.146 1.343.54.63.395 1.032 1.129.4.727.401 1.89V21h-2.021v-1.454h-.084a3 3 0 0 1-.602.79 3.2 3.2 0 0 1-1.032.644q-.63.256-1.51.256-1.01 0-1.828-.374a3.1 3.1 0 0 1-1.295-1.101q-.47-.72-.47-1.766 0-.9.346-1.481.345-.582.935-.922.588-.34 1.315-.512.728-.173 1.482-.264l1.551-.18q.595-.075.866-.241.27-.167.27-.54v-.05q0-.906-.513-1.405-.505-.498-1.51-.499-1.044 0-1.647.464-.596.457-.824 1.018l-1.946-.443q.346-.97 1.011-1.565a4.1 4.1 0 0 1 1.544-.872 6 6 0 0 1 1.835-.277m2.056 5.567q-.11.11-.43.208-.31.09-.713.16-.4.061-.782.116l-.638.084q-.602.076-1.1.256-.492.18-.79.52-.29.332-.29.886 0 .768.567 1.163.568.388 1.447.388.86 0 1.468-.34.616-.338.936-.885a2.3 2.3 0 0 0 .325-1.185zM123.956 10.226q.637 0 1.351.152.72.146 1.342.54.631.395 1.033 1.129.4.727.401 1.89V21h-2.021v-1.454h-.084a3 3 0 0 1-.602.79 3.2 3.2 0 0 1-1.032.644q-.63.256-1.51.256-1.01 0-1.828-.374a3.1 3.1 0 0 1-1.295-1.101q-.471-.72-.471-1.766 0-.9.347-1.481a2.56 2.56 0 0 1 .934-.922 4.9 4.9 0 0 1 1.316-.512q.727-.173 1.482-.264l1.551-.18q.595-.075.865-.241.27-.167.271-.54v-.05q0-.906-.513-1.405-.505-.498-1.51-.499-1.045 0-1.647.464-.596.457-.824 1.018l-1.947-.443q.347-.97 1.012-1.565a4.1 4.1 0 0 1 1.544-.872 6 6 0 0 1 1.835-.277m2.057 5.567q-.112.11-.43.208-.311.09-.713.16-.4.061-.782.116l-.638.084a5 5 0 0 0-1.1.256q-.493.18-.79.52-.29.332-.29.886 0 .768.567 1.163.568.388 1.447.388.86 0 1.468-.34.616-.338.936-.885a2.3 2.3 0 0 0 .325-1.185zM66.26 10.226q1.497 0 2.611.685 1.114.686 1.732 1.925.615 1.24.616 2.894 0 1.65-.616 2.881-.617 1.233-1.732 1.918-1.115.686-2.61.686-1.496 0-2.61-.686-1.116-.685-1.732-1.918t-.616-2.88q0-1.656.616-2.895t1.731-1.925q1.116-.685 2.61-.685m.008 1.731q-.977 0-1.62.52-.638.519-.95 1.377a5.5 5.5 0 0 0-.304 1.87q0 1.025.304 1.877.312.85.95 1.364.644.512 1.62.512.969 0 1.606-.512.638-.513.942-1.364a5.4 5.4 0 0 0 .312-1.877q0-1.018-.312-1.87-.305-.858-.942-1.377-.637-.52-1.606-.52M106.781 10.226q1.495 0 2.611.685 1.114.686 1.731 1.925.616 1.24.616 2.894 0 1.65-.616 2.881-.616 1.233-1.731 1.918-1.116.686-2.611.686t-2.61-.686-1.732-1.918q-.615-1.232-.616-2.88 0-1.656.616-2.895.617-1.24 1.732-1.925t2.61-.685m.007 1.731q-.977 0-1.62.52-.638.519-.949 1.377a5.5 5.5 0 0 0-.305 1.87q0 1.025.305 1.877.311.85.949 1.364.644.512 1.62.512.97 0 1.607-.512.637-.513.942-1.364a5.4 5.4 0 0 0 .311-1.877q0-1.018-.311-1.87-.305-.858-.942-1.377-.638-.52-1.607-.52M144.883 10.226q1.495 0 2.61.685 1.115.686 1.732 1.925.615 1.24.616 2.894 0 1.65-.616 2.881-.617 1.233-1.732 1.918-1.114.686-2.61.686t-2.611-.686q-1.114-.685-1.731-1.918-.616-1.232-.616-2.88 0-1.656.616-2.895.617-1.24 1.731-1.925 1.116-.685 2.611-.685m.007 1.731q-.976 0-1.62.52-.638.519-.95 1.377a5.5 5.5 0 0 0-.304 1.87q0 1.025.304 1.877.312.85.95 1.364.643.512 1.62.512.969 0 1.606-.512.638-.513.942-1.364a5.4 5.4 0 0 0 .312-1.877q0-1.018-.312-1.87-.305-.858-.942-1.377-.637-.52-1.606-.52" clip-rule="evenodd"/><path fill="#000" d="M230.867 10.226q1.725 0 2.715.748.99.74 1.309 1.987l-1.877.332a2.3 2.3 0 0 0-.374-.686 1.86 1.86 0 0 0-.679-.533q-.43-.207-1.073-.207-.88 0-1.468.395-.589.387-.589 1.004 0 .533.395.858.395.326 1.274.533l1.689.388q1.469.34 2.189 1.046.72.705.721 1.835a2.8 2.8 0 0 1-.555 1.703q-.547.741-1.53 1.164-.977.422-2.265.422-1.787 0-2.915-.762-1.128-.768-1.385-2.18l2.001-.305q.187.782.769 1.183.581.395 1.516.395 1.019 0 1.628-.422.61-.43.61-1.046 0-.498-.374-.838-.367-.34-1.129-.512l-1.801-.395q-1.489-.339-2.202-1.08-.706-.741-.706-1.877 0-.942.526-1.647.527-.707 1.454-1.102.929-.402 2.126-.401"/><path fill="#000" fill-rule="evenodd" d="M93.18 12.088h.126q.18-.333.52-.769.338-.435.94-.761.603-.332 1.593-.332 1.288 0 2.3.65 1.01.651 1.585 1.877.582 1.225.582 2.95 0 1.723-.575 2.956-.575 1.226-1.58 1.89-1.004.66-2.291.659-.97-.001-1.586-.326-.609-.325-.955-.762-.346-.436-.533-.775h-.173V21H91.11V6.818h2.07zm2.736-.104q-.9 0-1.523.464-.617.464-.935 1.295-.318.83-.318 1.939 0 1.122.325 1.966.325.845.941 1.323.616.471 1.51.471.927 0 1.55-.492.624-.499.943-1.35.325-.852.325-1.918 0-1.053-.318-1.891-.312-.838-.941-1.322-.624-.485-1.559-.485" clip-rule="evenodd"/><path fill="#000" d="M54.378 6.624q1.129 0 2.104.325a5.6 5.6 0 0 1 1.767.943q.782.615 1.295 1.508.512.887.692 2.03h-2.16a3.3 3.3 0 0 0-.465-1.22 3.4 3.4 0 0 0-.83-.893 3.6 3.6 0 0 0-1.101-.553 4.3 4.3 0 0 0-1.282-.187q-1.226 0-2.195.616-.962.616-1.523 1.807-.554 1.191-.554 2.91 0 1.73.554 2.921.561 1.192 1.53 1.8.97.61 2.182.61.67 0 1.274-.18a3.7 3.7 0 0 0 1.1-.547q.492-.36.832-.88.346-.526.477-1.204l2.161.006a5.8 5.8 0 0 1-.671 1.925 5.3 5.3 0 0 1-1.268 1.51 5.7 5.7 0 0 1-1.759.977 6.5 6.5 0 0 1-2.16.345q-1.842 0-3.282-.872-1.44-.88-2.272-2.513Q48 16.173 48 13.909q0-2.271.831-3.9.831-1.633 2.271-2.505 1.44-.88 3.276-.88"/><path fill="#000" fill-rule="evenodd" d="M205.661 6.624q1.834 0 3.276.88 1.446.873 2.278 2.506.831 1.627.831 3.9 0 2.27-.831 3.904-.832 1.628-2.278 2.507-1.442.873-3.276.872-1.842 0-3.289-.872-1.44-.88-2.271-2.513-.831-1.635-.831-3.899 0-2.271.831-3.9.831-1.633 2.271-2.505 1.447-.88 3.289-.88m0 1.953q-1.226 0-2.188.616-.963.61-1.524 1.8-.553 1.185-.553 2.916t.553 2.922q.561 1.185 1.524 1.8.962.61 2.188.61 1.22 0 2.182-.61.97-.615 1.523-1.8.561-1.191.561-2.922t-.561-2.916q-.554-1.19-1.523-1.8-.963-.615-2.182-.616" clip-rule="evenodd"/><path fill="#000" d="M132.775 10.363h2.181v1.662h-2.181v5.852q0 .603.18.907a.94.94 0 0 0 .464.408q.291.105.63.105.25 0 .436-.035l.291-.055.374 1.71a3.5 3.5 0 0 1-.512.139q-.333.075-.831.083a3.65 3.65 0 0 1-1.524-.291 2.6 2.6 0 0 1-1.142-.942q-.437-.636-.437-1.6v-6.28h-1.558v-1.663h1.558V7.815h2.071zM74.75 21h-2.07V6.818h2.07zM78.757 21h-2.07V6.818h2.07zM118.47 10.218q.27.014.423.035v1.98a4 4 0 0 0-.444-.076 4 4 0 0 0-.637-.049q-.734 0-1.309.312a2.3 2.3 0 0 0-.899.851 2.3 2.3 0 0 0-.333 1.233V21H113.2V10.363h2.001v1.69h.111a2.57 2.57 0 0 1 1.025-1.35 2.94 2.94 0 0 1 1.676-.499q.193 0 .457.014M138.467 21h-2.071V10.363h2.071zM156.558 10.226q1.086 0 1.904.457.817.45 1.267 1.343.45.894.451 2.21V21h-2.072v-6.516q0-1.155-.602-1.807-.603-.657-1.654-.657-.721 0-1.282.311a2.24 2.24 0 0 0-.88.914q-.318.596-.318 1.44V21h-2.07V10.364h1.987v1.732h.132a3.05 3.05 0 0 1 1.149-1.358q.79-.512 1.988-.512"/><path fill="#000" fill-rule="evenodd" d="M178.188 21h-2.271l-1.296-3.753h-5.541L167.781 21h-2.271l5.103-14.182h2.472zm-8.485-5.554h4.296l-2.091-6.051h-.111z" clip-rule="evenodd"/><path fill="#000" d="M181.526 21h-2.139V6.818h2.139z"/><path fill="#000" fill-rule="evenodd" d="M193.158 6.818q1.655 0 2.742.603 1.088.603 1.628 1.648.54 1.04.54 2.34 0 1.31-.547 2.355-.54 1.038-1.634 1.648-1.088.603-2.736.603h-2.908V21h-2.139V6.818zm-2.915 7.382h2.715q1.045 0 1.696-.36a2.26 2.26 0 0 0 .956-.997q.305-.63.305-1.434 0-.802-.305-1.426a2.2 2.2 0 0 0-.963-.976q-.65-.354-1.717-.354h-2.687zM218.6 6.818q2.084 0 3.58.852 1.495.844 2.292 2.43.803 1.58.803 3.789 0 2.216-.81 3.808a5.7 5.7 0 0 1-2.326 2.451q-1.524.852-3.685.852h-4.591V6.818zm-2.597 12.312h2.334q1.62 0 2.693-.61a3.84 3.84 0 0 0 1.607-1.779q.533-1.17.533-2.852 0-1.67-.533-2.833-.527-1.164-1.573-1.766t-2.596-.602h-2.465z" clip-rule="evenodd"/><path fill="#000" d="M137.441 6.25q.54 0 .921.367.388.36.388.872 0 .506-.388.873-.381.36-.921.36t-.927-.36a1.17 1.17 0 0 1-.381-.873q0-.512.381-.872a1.3 1.3 0 0 1 .927-.367"/></svg>