<svg xmlns="http://www.w3.org/2000/svg" width="231" height="28" fill="none" viewBox="0 0 231 28"><path fill="#fff" fill-rule="evenodd" d="M38.469 10.501q.499 0 1.146.122.654.115 1.262.479.615.364 1.02 1.1.405.735.404 1.97V21h-1.592v-1.403h-.081q-.162.337-.54.721-.378.385-1.005.655-.628.27-1.532.27a4.2 4.2 0 0 1-1.788-.37 3.07 3.07 0 0 1-1.275-1.088q-.472-.715-.472-1.726 0-.891.35-1.445.351-.56.939-.877a5 5 0 0 1 1.295-.472q.715-.162 1.437-.256.945-.121 1.531-.183.594-.068.864-.223.276-.155.277-.54v-.053q0-.999-.547-1.552-.54-.553-1.64-.553-1.14 0-1.788.5-.646.498-.91 1.065l-1.511-.54q.404-.944 1.079-1.47.681-.533 1.484-.742a6.2 6.2 0 0 1 1.593-.217m2.24 5.29q-.102.12-.445.223-.338.095-.784.169a36 36 0 0 1-1.524.202 6 6 0 0 0-1.161.263 2 2 0 0 0-.863.533q-.325.351-.325.959 0 .83.615 1.255.62.417 1.572.418.944 0 1.593-.372.654-.37.984-.958.338-.585.338-1.234zM79.382 10.501q.5 0 1.146.122.654.115 1.262.479.615.364 1.02 1.1.404.735.404 1.97V21h-1.592v-1.403h-.081q-.162.337-.54.721-.378.385-1.005.655-.628.27-1.532.27a4.2 4.2 0 0 1-1.788-.37 3.07 3.07 0 0 1-1.275-1.088q-.471-.715-.472-1.726 0-.891.35-1.445.351-.56.939-.877a5 5 0 0 1 1.295-.472q.715-.162 1.437-.256.945-.121 1.531-.183.594-.068.864-.223.276-.155.277-.54v-.053q0-.999-.547-1.552-.54-.553-1.64-.553-1.14 0-1.788.5-.646.498-.91 1.065l-1.511-.54q.405-.944 1.079-1.47.681-.533 1.484-.742a6.2 6.2 0 0 1 1.593-.217m2.24 5.29q-.101.12-.445.223-.338.095-.783.169a36 36 0 0 1-1.525.202 6 6 0 0 0-1.161.263 2 2 0 0 0-.863.533q-.325.351-.325.959 0 .83.615 1.255.621.417 1.572.418.945 0 1.593-.372.654-.37.984-.958.338-.585.338-1.234zM18.357 10.501q1.404 0 2.457.668 1.059.667 1.645 1.876.594 1.208.594 2.827 0 1.605-.594 2.807-.587 1.2-1.645 1.869-1.053.668-2.457.668t-2.462-.668q-1.053-.668-1.647-1.87-.587-1.2-.587-2.806 0-1.62.587-2.827.594-1.207 1.647-1.876 1.06-.668 2.462-.668m0 1.43q-1.066.001-1.755.554a3.26 3.26 0 0 0-1.018 1.45 5.6 5.6 0 0 0-.331 1.937q0 1.04.331 1.93.33.89 1.018 1.437.69.547 1.755.546 1.066 0 1.754-.546a3.2 3.2 0 0 0 1.019-1.437q.33-.89.33-1.93a5.6 5.6 0 0 0-.33-1.937 3.26 3.26 0 0 0-1.019-1.45q-.687-.553-1.754-.553M47.016 12.282h.134q.176-.27.487-.687.316-.426.903-.756.594-.338 1.607-.338 1.308 0 2.307.655t1.559 1.856.56 2.833q0 1.647-.56 2.854-.56 1.201-1.552 1.862-.992.655-2.288.655-.999 0-1.599-.33-.6-.338-.925-.763a10 10 0 0 1-.499-.716h-.188V21h-1.54V7.182h1.594zm2.941-.35q-.972 0-1.633.493-.66.486-.998 1.362-.338.87-.338 2.031 0 1.174.345 2.072.344.89 1.005 1.396.66.5 1.619.5 1 0 1.667-.527.675-.533 1.012-1.43.344-.905.344-2.01 0-1.095-.337-1.971-.33-.884-1.005-1.397-.669-.52-1.681-.52M61.219 10.501q1.403 0 2.456.668 1.059.667 1.645 1.876.594 1.208.594 2.827 0 1.605-.594 2.807-.587 1.2-1.645 1.869-1.053.668-2.456.668t-2.463-.668q-1.052-.668-1.647-1.87-.586-1.2-.587-2.806 0-1.62.587-2.827.594-1.207 1.647-1.876 1.059-.668 2.463-.668m0 1.43q-1.066.001-1.755.554a3.26 3.26 0 0 0-1.019 1.45 5.6 5.6 0 0 0-.33 1.937q0 1.04.33 1.93t1.019 1.437 1.755.546q1.065 0 1.754-.546a3.2 3.2 0 0 0 1.018-1.437q.33-.89.331-1.93a5.6 5.6 0 0 0-.33-1.937 3.26 3.26 0 0 0-1.02-1.45q-.687-.553-1.753-.553M101.742 10.501q1.404 0 2.456.668 1.059.667 1.646 1.876.593 1.208.594 2.827 0 1.605-.594 2.807-.587 1.2-1.646 1.869-1.052.668-2.456.668t-2.463-.668q-1.052-.668-1.646-1.87-.587-1.2-.587-2.806 0-1.62.587-2.827.594-1.207 1.646-1.876 1.06-.668 2.463-.668m0 1.43q-1.067.001-1.755.554a3.26 3.26 0 0 0-1.018 1.45 5.6 5.6 0 0 0-.331 1.937q0 1.04.33 1.93t1.02 1.437 1.754.546q1.066 0 1.754-.546a3.23 3.23 0 0 0 1.019-1.437q.33-.89.331-1.93 0-1.039-.331-1.937a3.27 3.27 0 0 0-1.019-1.45q-.688-.553-1.754-.553M143.36 10.501q1.404 0 2.456.668 1.06.667 1.646 1.876.594 1.208.594 2.827 0 1.605-.594 2.807-.587 1.2-1.646 1.869-1.052.668-2.456.668t-2.463-.668q-1.052-.668-1.646-1.87-.587-1.2-.587-2.806 0-1.62.587-2.827.594-1.207 1.646-1.876 1.06-.668 2.463-.668m0 1.43q-1.066.001-1.755.554a3.26 3.26 0 0 0-1.018 1.45 5.6 5.6 0 0 0-.331 1.937q0 1.04.331 1.93.33.89 1.018 1.437.69.547 1.755.546 1.067 0 1.754-.546a3.23 3.23 0 0 0 1.019-1.437q.33-.89.331-1.93 0-1.039-.331-1.937a3.27 3.27 0 0 0-1.019-1.45q-.687-.553-1.754-.553M179.468 10.501q1.403 0 2.456.668 1.059.667 1.645 1.876.594 1.208.594 2.827 0 1.605-.594 2.807-.586 1.2-1.645 1.869-1.053.668-2.456.668t-2.463-.668q-1.053-.668-1.647-1.87-.587-1.2-.587-2.806 0-1.62.587-2.827.594-1.207 1.647-1.876 1.059-.668 2.463-.668m0 1.43q-1.066.001-1.755.554a3.27 3.27 0 0 0-1.019 1.45 5.6 5.6 0 0 0-.331 1.937q0 1.04.331 1.93t1.019 1.437 1.755.546q1.065 0 1.754-.546a3.2 3.2 0 0 0 1.018-1.437 5.5 5.5 0 0 0 .331-1.93q0-1.039-.331-1.937a3.26 3.26 0 0 0-1.018-1.45q-.689-.553-1.754-.553M223.359 12.282h.135q.176-.27.486-.687.318-.426.904-.756.594-.338 1.606-.338 1.31 0 2.308.655t1.558 1.856.56 2.833q0 1.647-.56 2.854-.56 1.201-1.551 1.862-.993.655-2.288.655-.999 0-1.599-.33-.6-.338-.925-.763a10 10 0 0 1-.499-.716h-.188V21h-1.539V7.182h1.592zm2.942-.35q-.972 0-1.633.493-.661.486-.998 1.362-.338.87-.338 2.031 0 1.174.345 2.072.344.89 1.005 1.396.66.5 1.619.5.999 0 1.667-.527.674-.533 1.011-1.43.345-.905.345-2.01 0-1.095-.338-1.971-.33-.884-1.005-1.397-.668-.52-1.68-.52" clip-rule="evenodd"/><path fill="#fff" d="M6.1 6.993q1.044 0 1.963.304a5.4 5.4 0 0 1 1.666.89q.742.581 1.242 1.417.498.831.688 1.896H9.985a3.48 3.48 0 0 0-1.41-2.187 3.8 3.8 0 0 0-1.153-.566A4.6 4.6 0 0 0 6.1 8.56q-1.256 0-2.275.633-1.011.634-1.612 1.87-.594 1.234-.594 3.029t.594 3.03q.6 1.233 1.612 1.868 1.02.635 2.275.635.688 0 1.322-.19a3.9 3.9 0 0 0 1.153-.559q.527-.378.89-.925.372-.554.52-1.268h1.674a5.6 5.6 0 0 1-.688 1.896 5.2 5.2 0 0 1-1.242 1.423 5.4 5.4 0 0 1-1.666.885 6.2 6.2 0 0 1-1.963.303q-1.768 0-3.145-.864Q1.578 19.462.79 17.87 0 16.278 0 14.091q0-2.186.79-3.778.788-1.592 2.165-2.457 1.377-.863 3.145-.863M131.103 6.993q1.046 0 1.962.304.926.304 1.667.89.743.581 1.242 1.417.499.831.688 1.896h-1.674a3.49 3.49 0 0 0-1.41-2.187 3.8 3.8 0 0 0-1.153-.566 4.6 4.6 0 0 0-1.322-.188q-1.256 0-2.275.633-1.012.634-1.612 1.87-.594 1.234-.594 3.029t.594 3.03q.6 1.233 1.612 1.868a4.2 4.2 0 0 0 2.275.635q.687 0 1.322-.19a3.9 3.9 0 0 0 1.153-.559q.527-.378.891-.925.37-.554.519-1.268h1.674a5.6 5.6 0 0 1-.688 1.896 5.2 5.2 0 0 1-1.242 1.423 5.4 5.4 0 0 1-1.667.885 6.2 6.2 0 0 1-1.962.303q-1.768 0-3.145-.864-1.377-.863-2.166-2.456-.789-1.591-.789-3.778 0-2.186.789-3.778t2.166-2.457 3.145-.863M88.414 10.637h2.214v1.348h-2.214v6.046q0 .675.196 1.012.202.33.513.445.317.108.668.109.263 0 .432-.028l.27-.053.323 1.43q-.161.06-.452.121a3.3 3.3 0 0 1-.735.068q-.674 0-1.322-.29a2.63 2.63 0 0 1-1.067-.884q-.418-.594-.418-1.498v-6.478h-1.565v-1.348h1.565V8.153h1.592zM163.895 10.637h2.213v1.348h-2.213v6.046q0 .675.196 1.012.202.33.513.445.317.108.667.109.264 0 .432-.028l.27-.053.324 1.43q-.162.06-.452.121a3.3 3.3 0 0 1-.736.068q-.674 0-1.322-.29a2.6 2.6 0 0 1-1.066-.884q-.418-.594-.418-1.498v-6.478h-1.566v-1.348h1.566V8.153h1.592zM212.104 17.113q0 1.135.633 1.809.642.675 1.633.675a2.7 2.7 0 0 0 1.208-.304q.62-.303 1.039-.93.425-.629.425-1.6v-6.126h1.593V21h-1.593v-1.754h-.107a3.4 3.4 0 0 1-1.134 1.343q-.77.546-1.944.546-.971 0-1.726-.425-.756-.432-1.188-1.296-.431-.87-.432-2.192v-6.585h1.593zM27.076 21h-1.593V7.182h1.593zM31.585 21h-1.593V7.182h1.593zM73.129 10.481q.263.007.398.02v1.62a5 5 0 0 0-.37-.061 3.7 3.7 0 0 0-.601-.047 2.8 2.8 0 0 0-1.35.317 2.4 2.4 0 0 0-.932.863q-.336.547-.337 1.248V21h-1.592V10.637h1.539v1.565h.107q.284-.77 1.026-1.249a3 3 0 0 1 1.673-.478q.176 0 .439.006M94.615 21h-1.593V10.637h1.593zM113.564 10.501q1.053 0 1.842.433.79.424 1.229 1.295.438.863.438 2.186V21h-1.593v-6.477q0-1.222-.633-1.903-.635-.688-1.742-.688-.762 0-1.362.33-.594.332-.938.965-.344.634-.344 1.539V21h-1.593V10.637h1.539v1.619h.135q.365-.79 1.106-1.269.743-.485 1.916-.486M155.183 10.501q1.052 0 1.841.433.79.424 1.229 1.295.438.863.438 2.186V21h-1.592v-6.477q0-1.222-.634-1.903-.635-.688-1.741-.688-.762 0-1.363.33-.594.332-.938.965-.344.634-.344 1.539V21h-1.593V10.637h1.539v1.619h.135a2.96 2.96 0 0 1 1.107-1.269q.741-.485 1.916-.486M173.287 10.481q.263.007.399.02v1.62a5 5 0 0 0-.372-.061 3.6 3.6 0 0 0-.6-.047q-.756 0-1.35.317a2.4 2.4 0 0 0-.931.863q-.337.547-.337 1.248V21h-1.593V10.637h1.539v1.565h.107q.284-.77 1.026-1.249a3 3 0 0 1 1.674-.478q.175 0 .438.006M188.187 21h-1.593V7.182h1.593zM198.336 13.335h7.368V7.182h1.673V21h-1.673v-6.18h-7.368V21h-1.674V7.182h1.674zM93.832 6.75q.466 0 .797.317.337.318.337.762 0 .445-.337.763a1.1 1.1 0 0 1-.797.317q-.465 0-.803-.317a1.02 1.02 0 0 1-.33-.763q0-.444.33-.762.338-.316.803-.317"/></svg>