<svg xmlns="http://www.w3.org/2000/svg" width="172" height="92" fill="none" viewBox="0 0 172 92"><g clip-path="url(#a)"><path fill="#303030" d="M44.447 25.839s-1.963 0-2.394.672-.478.769-.67 2.642-2.946 50.164-2.946 50.164-.335 2.066.91 2.882c.859.534 1.868.77 2.874.672l83.708-.048c.478 0 1.533 0 2.205-.864.672-.865.718-1.441.67-2.978s-1.389-30.785-1.389-30.785-.048-1.441-.575-2.018-1.34-1.105-2.011-1.152c-.67-.048-58.423-.097-58.423-.097s-1.533.097-2.18-.6a2.07 2.07 0 0 1-.574-1.73c0-.335.359-14.335.359-14.335s.096-1.106-.383-1.73c-.48-.623-1.533-.624-1.82-.624H60.37a1.05 1.05 0 0 0-.766.24 1.62 1.62 0 0 1-1.15.625c-.526 0-13.216-.865-13.36-.865a2.8 2.8 0 0 0-.648-.071"/><path fill="url(#b)" d="M44.447 25.118s-1.963 0-2.394.673c-.431.672-.478.768-.67 2.641s-2.946 50.166-2.946 50.166-.335 2.063.91 2.882c.859.534 1.868.77 2.874.672l83.708-.048c.478 0 1.533 0 2.205-.864s.718-1.441.67-2.978-1.389-30.785-1.389-30.785-.048-1.441-.575-2.018-1.34-1.105-2.011-1.152c-.67-.047-58.423-.096-58.423-.096s-1.533.096-2.18-.6a2.07 2.07 0 0 1-.574-1.731c0-.336.359-14.336.359-14.336s.096-1.106-.383-1.73c-.48-.623-1.533-.624-1.82-.624H60.37a1.05 1.05 0 0 0-.766.24 1.62 1.62 0 0 1-1.15.626c-.527 0-13.218-.865-13.361-.865a2.8 2.8 0 0 0-.647-.073"/><path fill="url(#c)" d="M62.36 25.191a5 5 0 0 0-.507-.024h-1.436a1.05 1.05 0 0 0-.766.24 1.62 1.62 0 0 1-1.15.624c-.107 0-.723-.037-1.636-.094l-.974 12.99 5.65.287z"/><path fill="url(#d)" stroke="#000" stroke-miterlimit="10" stroke-opacity=".7" stroke-width=".301" d="M45.788 25.07s-2.394-.096-3.064.288c-.67.385-.91 1.585-.958 3.026-.048 1.442-2.873 50.237-2.873 50.237s-.431 3.012 2.412 3.012H58.62s3.164.061 3.26-2.868l1.676-51.485s0-1.442-.24-1.826c-.24-.383-1.34-.405-1.723-.394-.383.01-1.15.01-1.15.01s.144-.098.144.432c0 .627-.144 3.796-.144 4.371s-.144 3.698-.191 4.995c-.006.153-.192 2.977-2.49 3.266-4.134.518-11.35-8.405-11.35-8.405z"/><path stroke="url(#e)" stroke-miterlimit="10" stroke-width=".401" d="m46.622 64.838 8.988.192A2.62 2.62 0 0 1 58 66.707c.125.322.185.665.178 1.01l-.138 6.512a4.12 4.12 0 0 1-1.264 2.883 4.1 4.1 0 0 1-2.926 1.142l-7.595-.162a2.37 2.37 0 0 1-1.666-.734 2.39 2.39 0 0 1-.66-1.7l.179-8.406a2.47 2.47 0 0 1 .758-1.73 2.46 2.46 0 0 1 1.755-.685z"/><path fill="#3D3D3D" stroke="url(#f)" stroke-miterlimit="10" stroke-width=".251" d="m46.973 65.132 8.685.186a2.39 2.39 0 0 1 2.183 1.53c.114.295.17.609.163.924l-.133 6.283a4.22 4.22 0 0 1-1.29 2.948 4.2 4.2 0 0 1-2.993 1.17l-7.508-.16a1.84 1.84 0 0 1-1.677-1.177 1.9 1.9 0 0 1-.126-.71l.182-8.578a2.47 2.47 0 0 1 .758-1.73 2.46 2.46 0 0 1 1.756-.686Z"/><path fill="url(#g)" d="M62.23 53.569c.795-16.149-3.423-29.481-9.423-29.778-6-.298-11.51 12.552-12.305 28.7-.796 16.149 3.422 29.48 9.422 29.778s11.51-12.552 12.305-28.7"/><path fill="url(#h)" d="M47.991 87.614s-.852.805-.79 1.525c.104.814.087 1.64-.048 2.45a1.1 1.1 0 0 1-.982.407c-.67-.047-.79-.12-.838-.36a2 2 0 0 1-.073-.552q-.181.358-.431.672a.97.97 0 0 1-.527.096 5 5 0 0 1-1.005-.096.72.72 0 0 1-.335-.432.4.4 0 0 1-.408.264 8 8 0 0 1-.814-.096 1.17 1.17 0 0 1-.742-.408 2 2 0 0 1-.455.072 2.64 2.64 0 0 1-1.365-.409c-.158.028-.32.028-.477 0a2.54 2.54 0 0 1-1.342-.624 1.3 1.3 0 0 1-.574-.048c-.383-.096-1.054-.432-1.15-.624 0 0-.574.048-1.388-.625a2.3 2.3 0 0 1-1.389-.864s-.575-.144-1.245-1.057 0-.069 0-.069a2.7 2.7 0 0 1-.67-.747 3.6 3.6 0 0 1-.312-.697s-.287-.144-.575-1.056c0 0-.335-.336-.335-1.585 0 0-.263-.312.072-1.56a2.7 2.7 0 0 1 .551-1.513c.129-.469.396-.887.767-1.2a2.86 2.86 0 0 1 .861-1.059 2.64 2.64 0 0 1 1.103-1.008s.191-.529 1.245-1.01c.311-.339.708-.588 1.149-.72 0 0 .624-.768 1.245-.768a.8.8 0 0 1 .288-.384 7 7 0 0 1 .766-.384q.111-.15.24-.289c.073-.073.79-.479.79-.479l-.286 4.97s-.218.361-.409.41a1.2 1.2 0 0 1-.335.528 2.6 2.6 0 0 1-.527.576 5 5 0 0 1-.623.479 1.97 1.97 0 0 1-.861.72c-.14.222-.32.417-.527.576a4 4 0 0 1-.478.72s-.144.29-.239.433q-.027.339-.096.672c.215.272.377.582.478.913q.198.192.335.432c.29.141.55.337.766.577.393.102.755.3 1.054.576q.319.04.622.144.29.127.527.336l-.048-.048q.39.065.766.192c.239.07.454.203.625.385.29-.023.583.01.862.096.226.049.44.147.624.288.31-.014.62.035.91.144.27.051.53.149.766.288q.404-.08.814-.048c.29.04.567.136.818.284.207-.103.436-.151.667-.14q.432-.012.862.048c.287.096.287.192.287.192.227-.194.517-.297.814-.288.527 0 .767.004.767.004z"/><path fill="url(#i)" fill-opacity=".2" d="M47.991 87.614s-.852.805-.79 1.525c.104.814.087 1.64-.048 2.449a1.1 1.1 0 0 1-.982.408c-.67-.048-.79-.12-.838-.36a2 2 0 0 1-.073-.552q-.181.358-.431.672a.97.97 0 0 1-.527.096 5 5 0 0 1-1.005-.096.72.72 0 0 1-.335-.433.4.4 0 0 1-.408.265 8 8 0 0 1-.814-.096 1.17 1.17 0 0 1-.742-.409 2 2 0 0 1-.455.072 2.64 2.64 0 0 1-1.365-.408c-.158.028-.32.028-.477 0a2.54 2.54 0 0 1-1.342-.624c-.192.027-.389.01-.574-.048-.383-.096-1.054-.433-1.15-.624 0 0-.574.047-1.388-.625a2.3 2.3 0 0 1-1.389-.864s-.575-.145-1.245-1.057 0-.069 0-.069a2.7 2.7 0 0 1-.67-.747 3.6 3.6 0 0 1-.312-.697s-.287-.144-.575-1.056c0 0-.335-.337-.335-1.585 0 0-.263-.312.072-1.56a2.7 2.7 0 0 1 .551-1.514c.129-.468.396-.887.767-1.2a2.86 2.86 0 0 1 .861-1.058 2.64 2.64 0 0 1 1.103-1.009s.191-.528 1.245-1.008c.311-.34.708-.59 1.149-.72 0 0 .624-.769 1.245-.769a.8.8 0 0 1 .288-.384 7 7 0 0 1 .766-.385q.111-.15.24-.288c.07-.072.72-.439.72-.439l-.216 4.93s-.218.36-.409.408a1.2 1.2 0 0 1-.335.528 2.6 2.6 0 0 1-.527.576 5 5 0 0 1-.623.48 1.97 1.97 0 0 1-.861.72c-.14.222-.32.417-.527.576a4 4 0 0 1-.478.72s-.144.289-.239.433q-.027.339-.096.672c.215.272.377.581.478.913q.198.192.335.432c.29.141.55.337.766.576.393.102.755.3 1.054.576q.319.041.622.145.29.126.527.336l-.048-.048q.39.064.766.192c.239.07.454.203.625.384.29-.023.583.01.862.096.226.05.44.148.624.289.31-.014.62.035.91.144.27.05.53.148.766.288q.404-.08.814-.048c.29.039.567.136.818.284.207-.103.436-.151.667-.14q.432-.012.862.048c.287.096.287.192.287.192.227-.194.517-.297.814-.288.527 0 .767.004.767.004z"/><path fill="url(#j)" stroke="#515051" stroke-miterlimit="10" stroke-opacity=".5" stroke-width=".15" d="M48.9 77.252s-1.005 5.667-1.149 7.972-.144 5.716-.144 5.956 0 .334.647.335 1.125-.047 1.078-.431c-.048-.384-.048-5.163.287-7.024s.766-6.808.766-6.808z"/><g fill="#1A1A1B" opacity=".5"><path d="M46.076 87.17s-.91.864-.862 3.842c0 0-.383.816-.527.72-.232-.155-.191-.479-.095-1.777.096-1.297.911-2.882 1.484-2.785M44.208 87.025s-1.724 1.921-1.245 4.227c0 0-.335.288-.478.192-.232-.155-.346-.704-.047-1.97.236-1.005.81-2.254 1.77-2.449M42.483 86.834s-2.01 1.873-1.532 4.178a.37.37 0 0 1-.335 0c-.233-.155-.431-1.009-.096-2.065.243-.769.862-2.161 1.963-2.114M40.52 86.546s-2.298 2.016-1.388 4.082a.5.5 0 0 1-.383 0c-.233-.156-.431-.961-.096-2.017.243-.767 1.053-1.97 1.867-2.065M39.18 86.017s-2.443 1.008-1.916 3.986a.25.25 0 0 1-.24-.048c-.232-.155-.383-1.153-.048-2.161.128-.494.412-.934.809-1.254.396-.32.885-.503 1.394-.523M37.934 85.488s-2.826.817-2.347 3.843a.25.25 0 0 1-.24-.048c-.232-.156-.435-.98-.047-2.018.43-1.15 1.724-1.872 2.634-1.777M36.306 84.865s-2.922 1.105-2.155 3.795a.25.25 0 0 1-.24-.048c-.232-.156-.58-.885-.191-1.921.43-1.154 1.676-1.923 2.586-1.826M34.678 84.383s-2.634.816-1.868 3.506c0 0 0 .048-.144-.048-.232-.155-.483-.835-.095-1.873a2.32 2.32 0 0 1 2.107-1.585M33.817 83.568s-2.586.624-2.346 3.168a.7.7 0 0 1-.192-.24c-.048-.096-.24-.672.192-1.633.405-.901 1.725-1.487 2.346-1.295" opacity=".5"/><path d="M33.672 82.799a2.49 2.49 0 0 0-2.49.96 2.2 2.2 0 0 0-.58 1.72 1.1 1.1 0 0 1-.186-.28c-.218-.437.171-1.568.862-2.112.67-.528 1.718-.736 2.394-.288" opacity=".5"/><path d="M33.002 81.887a2.6 2.6 0 0 0-2.49.912 1.88 1.88 0 0 0-.477 1.488s-.085-.034-.144-.24c-.095-.336-.335-.96.719-1.873.643-.558 1.715-.735 2.392-.288" opacity=".5"/><path d="M32.954 81.022a2.79 2.79 0 0 0-2.538.48 1.65 1.65 0 0 0-.718 1.44s-.024-.17-.048-.384a1.55 1.55 0 0 1 .91-1.584 2.44 2.44 0 0 1 2.394.048" opacity=".5"/><path d="M33.24 80.35c-.027.04-1.388-.962-2.825.046a1.8 1.8 0 0 0-.62.818h-.002c.026-.352.16-.687.383-.96a2.22 2.22 0 0 1 3.065.096" opacity=".5"/><path d="M33.577 79.677a2.16 2.16 0 0 0-1.676-.674c-1.15 0-1.546.623-1.546.623s.157-.863 1.306-.91c1.15-.05 1.916.961 1.916.961M34.102 78.957a2.46 2.46 0 0 0-1.82-.864c-1.15 0-1.15.336-1.15.336s.097-.624 1.15-.624 1.82 1.152 1.82 1.152M34.87 78.333s-.765-1.153-2.057-1.153c-.766 0-.766.144-.766.144s-.047-.436.862-.432c.91.004 1.483.527 1.962 1.44M35.732 77.804s-.718-1.536-2.06-1.536c-.526 0-.574.047-.574.047s.048-.24.622-.24c.575 0 1.486.288 2.011 1.73M34.2 75.451a.96.96 0 0 1 .526-.048c.336.048 1.102.336 1.724 1.393 0 0-.477-1.441-1.437-1.585-.67-.1-.814.24-.814.24" opacity=".5"/></g><path fill="#2D2D2D" d="M124.779 49.68V8.206a3.34 3.34 0 0 0-2.051-3.078 3.3 3.3 0 0 0-1.271-.253H98.028a3.14 3.14 0 0 1-2.604 1.392 3.13 3.13 0 0 1-2.605-1.392H69.472c-.877 0-1.718.349-2.338.97a3.32 3.32 0 0 0-.968 2.346v41.23c-.026.494.09.984.335 1.413.72 1.228 2.244 1.293 2.366 1.296h53.465c.084-.002 1.586-.069 2.208-1.248.189-.371.272-.787.239-1.203"/><path fill="url(#k)" d="M124.779 49.342V7.87c0-.884-.35-1.73-.973-2.356a3.32 3.32 0 0 0-2.349-.975H98.222a3.14 3.14 0 0 1-2.8 1.728 3.13 3.13 0 0 1-2.8-1.728h-23.15c-.877 0-1.718.349-2.338.97a3.32 3.32 0 0 0-.968 2.346v41.23c-.026.493.09.984.335 1.413.72 1.228 2.244 1.293 2.366 1.296h53.465c.084-.002 1.586-.069 2.208-1.248.189-.371.272-.788.239-1.204"/><path fill="url(#l)" d="M69.087 51.317h52.88c.073 0 1.488-.019 2.119-1.129.212-.384.303-.823.263-1.26v-4.575H66.644v4.514c-.031.462.077.922.311 1.321.662 1.099 2.034 1.129 2.132 1.129"/><path fill="url(#m)" d="M121.435 4.875H98.028a3.14 3.14 0 0 1-2.604 1.392 3.13 3.13 0 0 1-2.605-1.392H69.556c-.773 0-1.514.307-2.06.855a2.93 2.93 0 0 0-.853 2.066v36.557h57.705V7.796c0-.775-.307-1.518-.853-2.066a2.9 2.9 0 0 0-2.06-.855"/><path fill="#353434" d="M119.848 39.214h-48.75v-28.72h48.75z"/><path fill="url(#n)" stroke="#fff" stroke-miterlimit="10" stroke-width=".192" d="M95.472 50.26c1.19 0 2.155-.87 2.155-1.944 0-1.075-.965-1.946-2.155-1.946s-2.156.871-2.156 1.946.965 1.945 2.156 1.945Z"/><path fill="#C7C7C7" d="M95.495 48.652c.133 0 .24-.097.24-.216 0-.12-.107-.217-.24-.217-.132 0-.24.097-.24.217s.108.216.24.216"/><path fill="url(#o)" stroke="#3F3F3F" stroke-miterlimit="10" stroke-width=".05" d="M95.4 6.22c1.56 0 2.825-1.387 2.825-3.098S96.961.024 95.401.024s-2.825 1.387-2.825 3.098 1.265 3.098 2.825 3.098Z"/><path fill="url(#p)" d="M95.449 6.243a2.925 2.925 0 0 0 2.92-2.93A2.925 2.925 0 0 0 95.45.385a2.925 2.925 0 0 0-2.922 2.93 2.925 2.925 0 0 0 2.921 2.93"/><path fill="url(#q)" d="M95.448 6.244a2.83 2.83 0 0 0 2.826-2.834A2.83 2.83 0 0 0 95.448.577a2.83 2.83 0 0 0-2.825 2.833 2.83 2.83 0 0 0 2.825 2.834"/><path fill="url(#r)" d="M95.447 6.147a2.686 2.686 0 0 0 2.682-2.69c0-1.484-1.2-2.689-2.682-2.689a2.686 2.686 0 0 0-2.681 2.69c0 1.485 1.2 2.69 2.681 2.69"/><path fill="url(#s)" d="M95.423 6.003a2.54 2.54 0 0 0 2.538-2.545A2.54 2.54 0 0 0 95.423.913a2.54 2.54 0 0 0-2.538 2.545 2.54 2.54 0 0 0 2.538 2.545"/><path fill="#000" d="M95.424 5.86a2.4 2.4 0 0 0 2.394-2.402 2.4 2.4 0 0 0-2.394-2.401 2.4 2.4 0 0 0-2.395 2.401 2.4 2.4 0 0 0 2.395 2.401"/><path fill="url(#t)" d="M95.543 4.178a.72.72 0 1 0-.003-1.439.72.72 0 0 0 .002 1.44"/><path fill="#131312" d="M95.543 4.034a.575.575 0 1 0-.001-1.15.575.575 0 0 0 .001 1.15"/><path fill="#FCFFF5" d="M95.688 3.601a.047.047 0 1 0 0-.094.047.047 0 0 0 0 .094M95.377 3.41a.072.072 0 1 0 0-.144.072.072 0 0 0 0 .145"/><path fill="url(#u)" d="M95.022 3.175a.167.167 0 1 0 .316-.1.17.17 0 0 0-.152-.097l-.022.003a.6.6 0 0 0-.142.194"/><path stroke="#fff" stroke-miterlimit="10" stroke-width=".05" d="M94.288 4.707a.108.108 0 1 0 0-.216.108.108 0 0 0 0 .216Z"/><path fill="#fff" d="M96.634 4.707a.108.108 0 1 0 0-.216.108.108 0 0 0 0 .216M96.556 4.74l-.063-.04a1.6 1.6 0 0 1-2.039 0l-.063.04a1.67 1.67 0 0 0 2.165 0"/><path fill="url(#v)" d="M52.803 19.139s3.041.024 3.832.144c.66.1 2.49.528 2.49 2.497 0 1.97-.958 16.81-.982 18.563-.025 1.8-.838 23.655-.934 33.355-.012 1.21-.503 3.842-4.31 3.842s-5.591.067-6.466.048c-2.298-.048-3.634-1.095-3.95-3.866-.318-2.787 1.73-43.404 2.753-50.693.386-2.752 1.221-3.578 3.017-3.746 1.228-.115 3.353-.144 4.55-.144"/><path fill="url(#w)" d="M52.307 19.355s2.9.024 3.653.142c.632.1 2.374.522 2.374 2.467s-.913 16.602-.936 18.333c-.023 1.777-.799 23.36-.89 32.942-.011 1.194-.48 3.795-4.11 3.795s-5.33.066-6.164.047c-2.192-.047-3.466-1.08-3.767-3.818-.303-2.753 1.65-42.868 2.626-50.065.367-2.718 1.164-3.534 2.876-3.7 1.17-.114 3.197-.143 4.338-.143"/><path fill="url(#x)" fill-opacity=".45" d="m50.875 69.107 5.378 4.507a1.965 1.965 0 0 1-1.255 3.47H44.24a1.95 1.95 0 0 1-1.84-1.294 1.97 1.97 0 0 1 .585-2.177l5.378-4.507a1.955 1.955 0 0 1 2.51 0"/><path fill="#AE000E" d="M51.964 19.645c0 .047-.24 1.344-.43 4.034 0 0 0 .162.215.162s.311-.066.311-.162.24-2.546.478-3.986c0 0 .047-.192-.24-.192-.334-.002-.334.144-.334.144"/><path fill="#1B1B1B" fill-opacity=".25" d="M87.504 58.161h3.25a1.1 1.1 0 0 1 1.102 1.105v1.935a1.14 1.14 0 0 1-1.136 1.14h-3.368a.954.954 0 0 1-.956-.959v-2.11a1.11 1.11 0 0 1 .684-1.027q.204-.084.424-.084"/><path fill="url(#y)" d="M87.495 57.993h3.242a1.1 1.1 0 0 1 1.023.686c.055.134.084.279.084.425v2.336a.733.733 0 0 1-.73.731h-4.083a.646.646 0 0 1-.646-.648v-2.417a1.115 1.115 0 0 1 1.11-1.113"/><path fill="url(#z)" stroke="#999" stroke-miterlimit="10" stroke-opacity=".5" stroke-width=".05" d="M87.422 58.065h3.335a.847.847 0 0 1 .848.85v2.02a.733.733 0 0 1-.73.732h-3.603a.645.645 0 0 1-.647-.648v-2.155a.8.8 0 0 1 .796-.8Z"/><path fill="#1B1B1B" fill-opacity=".25" d="M94.016 58.161h3.25a1.1 1.1 0 0 1 1.102 1.105v1.935a1.14 1.14 0 0 1-1.137 1.14h-3.368a.954.954 0 0 1-.955-.959v-2.11a1.11 1.11 0 0 1 .684-1.027c.134-.056.278-.084.424-.084"/><path fill="url(#A)" d="M94.008 57.993h3.242a1.1 1.1 0 0 1 1.023.686c.056.134.085.279.085.425v2.336a.733.733 0 0 1-.73.731h-4.083a.646.646 0 0 1-.647-.648v-2.417a1.115 1.115 0 0 1 1.11-1.113"/><path fill="url(#B)" stroke="#999" stroke-miterlimit="10" stroke-opacity=".5" stroke-width=".05" d="M93.934 58.065h3.335a.847.847 0 0 1 .848.85v2.02a.733.733 0 0 1-.73.732h-3.604a.645.645 0 0 1-.646-.648v-2.155a.8.8 0 0 1 .797-.8Z"/><path fill="#1B1B1B" fill-opacity=".25" d="M100.53 58.161h3.249a1.106 1.106 0 0 1 1.102 1.105v1.935a1.14 1.14 0 0 1-1.136 1.14h-3.368a.954.954 0 0 1-.955-.959v-2.11a1.11 1.11 0 0 1 1.108-1.111"/><path fill="url(#C)" d="M100.52 57.993h3.242a1.11 1.11 0 0 1 1.107 1.11v2.337a.73.73 0 0 1-.729.732h-4.083a.646.646 0 0 1-.647-.65v-2.416a1.115 1.115 0 0 1 1.11-1.113"/><path fill="url(#D)" stroke="#999" stroke-miterlimit="10" stroke-opacity=".5" stroke-width=".05" d="M100.445 58.065h3.335a.847.847 0 0 1 .849.85v2.02a.733.733 0 0 1-.73.732h-3.604a.646.646 0 0 1-.647-.648v-2.155a.8.8 0 0 1 .797-.8Z"/><path fill="#1B1B1B" fill-opacity=".25" d="M87.504 63.204h3.25a1.1 1.1 0 0 1 1.102 1.106v1.932a1.14 1.14 0 0 1-1.136 1.14h-3.368a.954.954 0 0 1-.956-.959v-2.11a1.11 1.11 0 0 1 .685-1.025c.134-.055.278-.084.423-.084"/><path fill="url(#E)" d="M87.495 63.036h3.242a1.1 1.1 0 0 1 1.023.685c.055.135.084.28.084.425v2.336a.733.733 0 0 1-.73.732h-4.083a.646.646 0 0 1-.646-.648v-2.417a1.115 1.115 0 0 1 1.11-1.113"/><path fill="url(#F)" stroke="#999" stroke-miterlimit="10" stroke-opacity=".5" stroke-width=".05" d="M87.422 63.108h3.335a.847.847 0 0 1 .848.85v2.02a.733.733 0 0 1-.73.732h-3.603a.646.646 0 0 1-.647-.649v-2.154a.8.8 0 0 1 .796-.8Z"/><path fill="#1B1B1B" fill-opacity=".25" d="M94.016 63.204h3.25a1.1 1.1 0 0 1 1.102 1.106v1.932a1.14 1.14 0 0 1-1.137 1.14h-3.368a.954.954 0 0 1-.955-.959v-2.11a1.11 1.11 0 0 1 1.108-1.109"/><path fill="url(#G)" d="M94.008 63.036h3.242a1.106 1.106 0 0 1 1.108 1.11v2.337a.733.733 0 0 1-.73.731h-4.083a.646.646 0 0 1-.647-.648v-2.417a1.115 1.115 0 0 1 1.11-1.113"/><path fill="url(#H)" stroke="#999" stroke-miterlimit="10" stroke-opacity=".5" stroke-width=".05" d="M93.934 63.108h3.335a.847.847 0 0 1 .848.85v2.02a.733.733 0 0 1-.73.732h-3.604a.646.646 0 0 1-.646-.649v-2.154a.8.8 0 0 1 .797-.8Z"/><path fill="#1B1B1B" fill-opacity=".25" d="M100.53 63.204h3.249a1.106 1.106 0 0 1 1.102 1.105v1.933a1.14 1.14 0 0 1-1.136 1.14h-3.368a.954.954 0 0 1-.955-.959v-2.11a1.11 1.11 0 0 1 .684-1.025c.134-.055.278-.084.424-.084"/><path fill="url(#I)" d="M100.52 63.036h3.242a1.106 1.106 0 0 1 1.107 1.11v2.336a.73.73 0 0 1-.729.732h-4.083a.646.646 0 0 1-.647-.648v-2.417a1.115 1.115 0 0 1 1.11-1.113"/><path fill="url(#J)" stroke="#999" stroke-miterlimit="10" stroke-opacity=".5" stroke-width=".05" d="M100.445 63.108h3.335a.847.847 0 0 1 .849.85v2.02a.733.733 0 0 1-.73.732h-3.604a.647.647 0 0 1-.647-.649v-2.154a.8.8 0 0 1 .797-.8Z"/><path fill="#1B1B1B" fill-opacity=".25" d="M69.28 69.111h10.785a.587.587 0 0 1 .588.59v1.784a.606.606 0 0 1-.604.605h-10.85a.507.507 0 0 1-.508-.509v-1.879a.59.59 0 0 1 .589-.591"/><path fill="url(#K)" d="M69.256 68.991h10.78a.587.587 0 0 1 .588.59v1.999a.39.39 0 0 1-.388.389H69.009a.343.343 0 0 1-.343-.345v-2.042a.6.6 0 0 1 .364-.546.6.6 0 0 1 .226-.045"/><path fill="url(#L)" stroke="#999" stroke-miterlimit="10" stroke-opacity=".5" stroke-width=".027" d="M69.318 69.043h10.667a.45.45 0 0 1 .451.452v1.726a.39.39 0 0 1-.388.389h-10.81a.343.343 0 0 1-.344-.345v-1.798a.425.425 0 0 1 .424-.424Z"/><path fill="#1B1B1B" fill-opacity=".25" d="M69.264 61.955h4.142a.587.587 0 0 1 .588.59v1.784a.606.606 0 0 1-.604.605h-4.204a.507.507 0 0 1-.508-.509v-1.879a.59.59 0 0 1 .586-.59"/><path fill="url(#M)" d="M69.172 61.835h4.28a.587.587 0 0 1 .588.59v1.999a.39.39 0 0 1-.388.389h-4.727a.343.343 0 0 1-.343-.345v-2.042a.594.594 0 0 1 .59-.59"/><path fill="url(#N)" stroke="#999" stroke-miterlimit="10" stroke-opacity=".5" stroke-width=".027" d="M69.191 61.887h4.185a.45.45 0 0 1 .45.452v1.726a.39.39 0 0 1-.387.389H69.11a.343.343 0 0 1-.343-.345v-1.798a.426.426 0 0 1 .423-.424Z"/><path fill="#1B1B1B" fill-opacity=".25" d="M76.066 61.955h4.142a.587.587 0 0 1 .588.59v1.784a.606.606 0 0 1-.604.605h-4.206a.507.507 0 0 1-.508-.509v-1.879a.59.59 0 0 1 .588-.59"/><path fill="url(#O)" d="M75.973 61.835h4.281a.587.587 0 0 1 .588.59v1.999a.39.39 0 0 1-.388.389h-4.728a.343.343 0 0 1-.343-.345v-2.042a.6.6 0 0 1 .364-.546.6.6 0 0 1 .226-.045"/><path fill="url(#P)" stroke="#999" stroke-miterlimit="10" stroke-opacity=".5" stroke-width=".027" d="M75.992 61.887h4.185a.45.45 0 0 1 .45.452v1.726a.39.39 0 0 1-.387.389h-4.328a.343.343 0 0 1-.344-.345v-1.798a.425.425 0 0 1 .424-.425Z"/><path fill="#1B1B1B" fill-opacity=".25" d="M72.809 58.16h4.142a.587.587 0 0 1 .588.59v1.785a.606.606 0 0 1-.604.605h-4.207a.507.507 0 0 1-.507-.51v-1.878a.59.59 0 0 1 .588-.591"/><path fill="url(#Q)" d="M72.719 58.041h4.28a.587.587 0 0 1 .589.59v1.999a.39.39 0 0 1-.24.36.4.4 0 0 1-.148.029h-4.73a.343.343 0 0 1-.343-.345v-2.041a.59.59 0 0 1 .592-.592"/><path fill="url(#R)" stroke="#999" stroke-miterlimit="10" stroke-opacity=".5" stroke-width=".027" d="M72.734 58.093h4.185a.45.45 0 0 1 .45.452v1.726a.39.39 0 0 1-.387.389h-4.328a.343.343 0 0 1-.343-.345v-1.798a.425.425 0 0 1 .423-.424Z"/><path fill="#1B1B1B" fill-opacity=".25" d="M110.977 61.955h4.141a.587.587 0 0 1 .588.59v1.784a.603.603 0 0 1-.603.605h-4.207a.51.51 0 0 1-.507-.509v-1.879a.58.58 0 0 1 .362-.546.6.6 0 0 1 .226-.045"/><path fill="url(#S)" d="M110.883 61.835h4.281a.587.587 0 0 1 .588.59v1.999a.39.39 0 0 1-.388.389h-4.728a.343.343 0 0 1-.343-.345v-2.042a.59.59 0 0 1 .364-.546.6.6 0 0 1 .226-.045"/><path fill="url(#T)" stroke="#999" stroke-miterlimit="10" stroke-opacity=".5" stroke-width=".027" d="M110.902 61.887h4.185a.45.45 0 0 1 .45.452v1.726a.387.387 0 0 1-.387.389h-4.328a.344.344 0 0 1-.343-.345v-1.798a.426.426 0 0 1 .423-.425Z"/><path fill="#1B1B1B" fill-opacity=".25" d="M117.777 61.955h4.142a.587.587 0 0 1 .588.59v1.784a.607.607 0 0 1-.604.605h-4.206a.51.51 0 0 1-.508-.509v-1.879a.59.59 0 0 1 .172-.418.6.6 0 0 1 .416-.173"/><path fill="url(#U)" d="M117.683 61.835h4.282a.585.585 0 0 1 .587.59v1.999a.39.39 0 0 1-.387.389h-4.728a.344.344 0 0 1-.343-.345v-2.042a.59.59 0 0 1 .589-.59"/><path fill="url(#V)" stroke="#999" stroke-miterlimit="10" stroke-opacity=".5" stroke-width=".027" d="M117.701 61.887h4.185a.45.45 0 0 1 .45.452v1.726a.387.387 0 0 1-.387.389h-4.328a.34.34 0 0 1-.344-.345v-1.798a.427.427 0 0 1 .424-.424Z"/><path fill="#1B1B1B" fill-opacity=".25" d="M114.52 58.16h4.142a.588.588 0 0 1 .588.59v1.785a.607.607 0 0 1-.604.605h-4.207a.51.51 0 0 1-.507-.51v-1.878a.585.585 0 0 1 .588-.591"/><path fill="url(#W)" d="M114.428 58.041h4.281a.588.588 0 0 1 .588.59v1.999a.39.39 0 0 1-.388.389h-4.728a.343.343 0 0 1-.343-.344v-2.042a.59.59 0 0 1 .172-.419.6.6 0 0 1 .418-.173"/><path fill="url(#X)" stroke="#999" stroke-miterlimit="10" stroke-opacity=".5" stroke-width=".027" d="M114.445 58.093h4.185a.45.45 0 0 1 .45.452v1.726a.39.39 0 0 1-.387.389h-4.328a.344.344 0 0 1-.344-.345v-1.798a.427.427 0 0 1 .424-.424Z"/><path fill="#1B1B1B" fill-opacity=".25" d="M111.406 69.063h4.142a.587.587 0 0 1 .588.59v1.784a.607.607 0 0 1-.604.606h-4.206a.506.506 0 0 1-.508-.51v-1.879a.59.59 0 0 1 .172-.418.59.59 0 0 1 .416-.173"/><path fill="url(#Y)" d="M111.315 68.943h4.281a.588.588 0 0 1 .588.59v2a.39.39 0 0 1-.388.388h-4.728a.344.344 0 0 1-.343-.345v-2.042a.59.59 0 0 1 .364-.546.6.6 0 0 1 .226-.045"/><path fill="url(#Z)" stroke="#999" stroke-miterlimit="10" stroke-opacity=".5" stroke-width=".027" d="M111.33 68.994h4.188a.45.45 0 0 1 .451.453v1.726a.389.389 0 0 1-.387.389h-4.328a.343.343 0 0 1-.344-.345v-1.8a.425.425 0 0 1 .42-.423Z"/><path fill="#1B1B1B" fill-opacity=".25" d="M118.207 69.063h4.142a.59.59 0 0 1 .588.59v1.784a.607.607 0 0 1-.604.606h-4.206a.506.506 0 0 1-.508-.51v-1.879q0-.117.044-.226a.59.59 0 0 1 .544-.365"/><path fill="url(#aa)" d="M118.115 68.943h4.281a.587.587 0 0 1 .588.59v1.999a.39.39 0 0 1-.388.389h-4.727a.34.34 0 0 1-.344-.345v-2.042a.594.594 0 0 1 .59-.59"/><path fill="url(#ab)" stroke="#999" stroke-miterlimit="10" stroke-opacity=".5" stroke-width=".027" d="M118.131 68.994h4.183a.45.45 0 0 1 .451.453v1.726a.39.39 0 0 1-.388.388h-4.325a.343.343 0 0 1-.343-.345v-1.799a.424.424 0 0 1 .422-.423Z"/><path fill="#1B1B1B" fill-opacity=".25" d="M114.855 73.097h4.142a.587.587 0 0 1 .588.59v1.784a.603.603 0 0 1-.603.606h-4.207a.51.51 0 0 1-.507-.51v-1.879a.591.591 0 0 1 .587-.591"/><path fill="url(#ac)" d="M114.764 72.978h4.281a.59.59 0 0 1 .588.589v2a.39.39 0 0 1-.388.388h-4.728a.344.344 0 0 1-.343-.344v-2.043a.59.59 0 0 1 .173-.418.6.6 0 0 1 .417-.172"/><path fill="url(#ad)" stroke="#999" stroke-miterlimit="10" stroke-opacity=".5" stroke-width=".027" d="M114.781 73.028h4.185a.45.45 0 0 1 .45.453v1.726a.39.39 0 0 1-.387.388h-4.328a.343.343 0 0 1-.344-.344v-1.798q0-.084.033-.163a.422.422 0 0 1 .391-.262Z"/><path fill="#1B1B1B" fill-opacity=".25" d="M94.016 68.247h3.25a1.1 1.1 0 0 1 1.102 1.105v1.932a1.14 1.14 0 0 1-1.137 1.14h-3.368a.954.954 0 0 1-.955-.958v-2.11a1.11 1.11 0 0 1 1.108-1.11"/><path fill="url(#ae)" d="M94.008 68.079h3.242a1.106 1.106 0 0 1 1.108 1.11v2.337a.733.733 0 0 1-.73.731h-4.083a.646.646 0 0 1-.647-.648v-2.417a1.115 1.115 0 0 1 1.11-1.113"/><path fill="url(#af)" stroke="#999" stroke-miterlimit="10" stroke-opacity=".5" stroke-width=".05" d="M93.934 68.15h3.335a.847.847 0 0 1 .848.851v2.02a.733.733 0 0 1-.73.732h-3.604a.646.646 0 0 1-.646-.649V68.95a.8.8 0 0 1 .797-.8Z"/><path fill="#1B1B1B" fill-opacity=".25" d="M87.504 68.247h3.25a1.1 1.1 0 0 1 1.102 1.105v1.932a1.14 1.14 0 0 1-1.136 1.14h-3.368a.954.954 0 0 1-.956-.958v-2.11a1.11 1.11 0 0 1 .685-1.025c.134-.056.278-.084.423-.084"/><path fill="url(#ag)" d="M87.495 68.079h3.242a1.1 1.1 0 0 1 1.023.686c.055.134.084.279.084.424v2.337a.733.733 0 0 1-.73.731h-4.083a.646.646 0 0 1-.646-.648v-2.417a1.115 1.115 0 0 1 1.11-1.113"/><path fill="url(#ah)" stroke="#999" stroke-miterlimit="10" stroke-opacity=".5" stroke-width=".05" d="M87.422 68.15h3.335a.847.847 0 0 1 .848.851v2.02a.73.73 0 0 1-.73.732h-3.603a.646.646 0 0 1-.647-.649V68.95a.8.8 0 0 1 .796-.8Z"/><path fill="#1B1B1B" fill-opacity=".25" d="M100.53 68.247h3.249a1.106 1.106 0 0 1 1.102 1.105v1.932a1.14 1.14 0 0 1-1.136 1.14h-3.368a.954.954 0 0 1-.955-.958v-2.11a1.11 1.11 0 0 1 .684-1.025c.134-.056.278-.084.424-.084"/><path fill="url(#ai)" d="M100.52 68.079h3.242a1.106 1.106 0 0 1 1.107 1.11v2.337a.73.73 0 0 1-.729.732h-4.083a.646.646 0 0 1-.647-.65v-2.416a1.115 1.115 0 0 1 1.11-1.113"/><path fill="url(#aj)" stroke="#999" stroke-miterlimit="10" stroke-opacity=".5" stroke-width=".05" d="M100.445 68.15h3.335a.847.847 0 0 1 .849.851v2.02a.73.73 0 0 1-.73.732h-3.604a.647.647 0 0 1-.647-.649V68.95a.8.8 0 0 1 .797-.8Z"/><path fill="#1B1B1B" fill-opacity=".25" d="M87.504 73.386h3.25a1.1 1.1 0 0 1 1.102 1.105v1.932a1.14 1.14 0 0 1-1.136 1.14h-3.368a.954.954 0 0 1-.956-.958v-2.11a1.11 1.11 0 0 1 .685-1.025c.134-.056.278-.085.423-.084"/><path fill="url(#ak)" d="M87.495 73.218h3.242a1.1 1.1 0 0 1 1.023.685c.055.135.084.28.084.425v2.337a.733.733 0 0 1-.73.731h-4.083a.646.646 0 0 1-.646-.648V74.33a1.115 1.115 0 0 1 1.11-1.113"/><path fill="url(#al)" stroke="#999" stroke-miterlimit="10" stroke-opacity=".5" stroke-width=".05" d="M87.422 73.29h3.335a.847.847 0 0 1 .848.85v2.02a.733.733 0 0 1-.73.732h-3.603a.646.646 0 0 1-.647-.648v-2.155a.8.8 0 0 1 .492-.738c.096-.04.2-.061.304-.061Z"/><path fill="#1B1B1B" fill-opacity=".25" d="M94.016 73.386h3.25a1.1 1.1 0 0 1 1.102 1.105v1.932a1.14 1.14 0 0 1-1.137 1.14h-3.368a.954.954 0 0 1-.955-.958v-2.11a1.11 1.11 0 0 1 1.108-1.11"/><path fill="url(#am)" d="M94.008 73.218h3.242a1.106 1.106 0 0 1 1.108 1.11v2.337a.733.733 0 0 1-.73.731h-4.083a.646.646 0 0 1-.647-.648V74.33a1.115 1.115 0 0 1 1.11-1.113"/><path fill="url(#an)" stroke="#999" stroke-miterlimit="10" stroke-opacity=".5" stroke-width=".05" d="M93.934 73.29h3.335a.847.847 0 0 1 .848.85v2.02a.733.733 0 0 1-.73.732h-3.604a.646.646 0 0 1-.646-.648v-2.155a.8.8 0 0 1 .492-.739q.146-.06.305-.06Z"/><path fill="#1B1B1B" fill-opacity=".25" d="M100.53 73.386h3.249a1.106 1.106 0 0 1 1.102 1.105v1.932a1.14 1.14 0 0 1-1.136 1.14h-3.368a.954.954 0 0 1-.955-.958v-2.11a1.11 1.11 0 0 1 .684-1.025 1.1 1.1 0 0 1 .424-.084"/><path fill="url(#ao)" d="M100.52 73.218h3.242a1.106 1.106 0 0 1 1.107 1.11v2.337a.73.73 0 0 1-.729.732h-4.083a.646.646 0 0 1-.647-.65v-2.416a1.115 1.115 0 0 1 1.11-1.113"/><path fill="url(#ap)" stroke="#999" stroke-miterlimit="10" stroke-opacity=".5" stroke-width=".05" d="M100.445 73.29h3.335a.847.847 0 0 1 .849.85v2.02a.73.73 0 0 1-.73.732h-3.604a.647.647 0 0 1-.647-.648v-2.155a.8.8 0 0 1 .492-.739.8.8 0 0 1 .305-.06Z"/><path fill="#C6C5C5" d="m89.013 59.084-.388.2v-.343l.39-.207h.376v1.701h-.378z"/><path fill="#B3B2B2" d="M94.959 59.2a.617.617 0 0 1 .652-.503.52.52 0 0 1 .584.486c0 .268-.122.39-.456.715l-.235.228h.678v.31h-1.175v-.31l.41-.403c.295-.295.392-.386.392-.54a.192.192 0 0 0-.21-.204.25.25 0 0 0-.246.221zM101.921 60a.22.22 0 0 0 .238.197.228.228 0 0 0 .242-.248.25.25 0 0 0-.015-.115.3.3 0 0 0-.064-.097.254.254 0 0 0-.215-.068h-.147v-.26h.167a.23.23 0 0 0 .225-.14.2.2 0 0 0 .017-.093.188.188 0 0 0-.054-.148.2.2 0 0 0-.147-.058.197.197 0 0 0-.215.167h-.368a.554.554 0 0 1 .606-.44c.301 0 .562.139.562.448a.4.4 0 0 1-.351.376.436.436 0 0 1 .39.42c0 .32-.249.53-.627.53a.56.56 0 0 1-.618-.471z"/><path fill="#BCBCBC" d="M89.58 63.777v1.1h.191v.28h-.191v.32h-.359v-.32h-.735v-.32l.713-1.06zm-.359 1.1v-.592l-.383.593zM95.425 65.04a.22.22 0 0 0 .232.2c.144 0 .255-.105.255-.326s-.097-.32-.26-.32a.34.34 0 0 0-.23.104h-.298l.044-.921h1.013v.267h-.674l-.022.382a.54.54 0 0 1 .286-.08.506.506 0 0 1 .531.552.61.61 0 0 1-.404.582.6.6 0 0 1-.248.032.546.546 0 0 1-.593-.473zM102.398 64.112a.165.165 0 0 0-.174-.116c-.136 0-.26.106-.294.51a.47.47 0 0 1 .373-.19.505.505 0 0 1 .526.569.6.6 0 0 1-.175.455.6.6 0 0 1-.453.174c-.404 0-.654-.284-.654-.83 0-.764.349-.944.678-.944a.555.555 0 0 1 .582.372zm-.206 1.135c.153 0 .257-.14.257-.338 0-.219-.085-.325-.24-.325-.169 0-.261.15-.261.331-.001.124.05.332.244.332M89.081 70.569h-.398l.655-1.414h-.805v-.287h1.176v.296zM95.95 69.662a.51.51 0 0 1 .32.44c0 .3-.229.503-.638.503s-.647-.199-.647-.488a.43.43 0 0 1 .31-.433.42.42 0 0 1-.269-.396c0-.335.294-.457.606-.457.26 0 .593.1.593.433a.45.45 0 0 1-.276.398m-.371.141a.31.31 0 0 0-.194.3.23.23 0 0 0 .24.237.23.23 0 0 0 .245-.238c0-.196-.16-.257-.29-.299zm.077-.257a.31.31 0 0 0 .199-.27.23.23 0 0 0-.23-.205.23.23 0 0 0-.228.205c-.002.17.148.236.259.27M101.974 70.197a.18.18 0 0 0 .192.153c.133 0 .242-.102.276-.498a.42.42 0 0 1-.349.177.52.52 0 0 1-.532-.367.5.5 0 0 1-.019-.23.6.6 0 0 1 .186-.439.6.6 0 0 1 .447-.162c.392 0 .652.243.652.831 0 .737-.32.943-.664.943a.57.57 0 0 1-.599-.408zm.209-1.098c-.184 0-.259.15-.259.32 0 .224.087.343.249.343.175 0 .255-.146.255-.332 0-.154-.052-.331-.245-.331M89.109 75.073l-.417.664-.196-.148.502-.61-.766-.197.077-.23.728.288-.053-.788h.25l-.053.793.732-.293.077.23-.766.198.503.61-.197.147zM95.078 74.91c0-.631.247-.892.644-.892.398 0 .645.26.645.892 0 .615-.252.882-.645.882-.392 0-.644-.267-.644-.882m.899 0c0-.49-.095-.637-.255-.637s-.254.148-.254.637c0 .49.095.625.254.625.16 0 .255-.134.255-.625M79.356 69.876v.384h.378v.299h-.378v.386h-.312v-.386h-.376v-.299h.376v-.384zM70.419 70.559h-.921v-.299h.92zM101.699 74.444h.206l.037-.437h.204l-.037.437h.511l.039-.437h.203l-.039.437h.184v.182h-.201l-.037.462h.192v.184h-.209l-.037.438h-.203l.037-.438h-.511l-.037.438h-.204l.037-.438h-.184v-.184h.199l.037-.462h-.189zm.354.644h.511l.037-.462h-.511z"/><path fill="#fff" d="M92.562 54.36a.2.2 0 0 1 .025-.042.1.1 0 0 1 .037-.032.1.1 0 0 1 .052-.012q.03 0 .056.012a.16.16 0 0 1 .074.075.1.1 0 0 1 .012.055v.322q0 .03-.012.056a.2.2 0 0 1-.031.046.1.1 0 0 1-.043.031.16.16 0 0 1-.108 0 .1.1 0 0 1-.037-.03.167.167 0 0 1-.034-.102v-.323q0-.028.009-.055m.565 1.932a.52.52 0 0 0 .29.279.6.6 0 0 0 .293.03 2 2 0 0 0 .158-.03v-.285q0 .006-.019.015a.527.527 0 0 1-.204.04.3.3 0 0 1-.117-.021.24.24 0 0 1-.136-.146.33.33 0 0 1 0-.219.24.24 0 0 1 .139-.148.3.3 0 0 1 .114-.022q.045 0 .09.01l.068.018a1 1 0 0 1 .065.028v-.279a.1.1 0 0 0-.028-.012.7.7 0 0 0-.124-.022q-.04-.002-.089-.003a.6.6 0 0 0-.22.04.5.5 0 0 0-.173.11.5.5 0 0 0-.11.17.62.62 0 0 0 .003.447m.13-2.303a.14.14 0 0 1 .033-.043.2.2 0 0 1 .05-.031.13.13 0 0 1 .111 0 .2.2 0 0 1 .046.03.2.2 0 0 1 .031.044.1.1 0 0 1 .013.056v.693q0 .03-.013.056a.2.2 0 0 1-.03.046.1.1 0 0 1-.047.031.165.165 0 0 1-.111 0 .1.1 0 0 1-.05-.03.2.2 0 0 1-.033-.047.1.1 0 0 1-.013-.056v-.693q0-.03.013-.056m.725-.467a.15.15 0 0 1 .086-.074.17.17 0 0 1 .108 0 .2.2 0 0 1 .046.027.1.1 0 0 1 .031.047.2.2 0 0 1 .01.052v1.4a.2.2 0 0 1-.01.056.1.1 0 0 1-.03.043.2.2 0 0 1-.047.031.126.126 0 0 1-.108 0 .2.2 0 0 1-.086-.074.1.1 0 0 1-.016-.056v-1.4a.1.1 0 0 1 .016-.052m.546 3.086V55.55h-.265v1.06zm.18-2.619a.14.14 0 0 1 .033-.043.2.2 0 0 1 .05-.031.131.131 0 0 1 .111 0 .2.2 0 0 1 .046.03.2.2 0 0 1 .031.044.1.1 0 0 1 .012.056v.693q0 .03-.012.056a.2.2 0 0 1-.03.046.1.1 0 0 1-.047.031.16.16 0 0 1-.112 0 .1.1 0 0 1-.049-.03.2.2 0 0 1-.034-.047.1.1 0 0 1-.012-.056v-.693q0-.03.012-.056m.188 1.975a.3.3 0 0 0 .058.087.3.3 0 0 0 .087.062 1 1 0 0 0 .117.046l.012.006.016.007.015.003q.024.006.046.015a.2.2 0 0 1 .037.022.1.1 0 0 1 .024.03q.01.018.01.038a.06.06 0 0 1-.015.036.1.1 0 0 1-.04.031.2.2 0 0 1-.065.019 1 1 0 0 1-.09.006q-.044 0-.083-.003a.7.7 0 0 1-.17-.034v.241l.032.006a1 1 0 0 0 .065.01q.04.001.09.01.052.005.104.005a.7.7 0 0 0 .154-.018.5.5 0 0 0 .147-.06.307.307 0 0 0 .151-.275.27.27 0 0 0-.06-.176.3.3 0 0 0-.078-.071.4.4 0 0 0-.114-.05l-.068-.025-.04-.012a.1.1 0 0 1-.04-.019.1.1 0 0 1-.031-.028.06.06 0 0 1-.013-.04q0-.018.01-.034a.1.1 0 0 1 .027-.028.1.1 0 0 1 .05-.018.452.452 0 0 1 .141 0l.065.012.07.013v-.221l-.082-.019a1 1 0 0 0-.08-.01l-.096-.002a.6.6 0 0 0-.164.021.3.3 0 0 0-.12.065.3.3 0 0 0-.074.106.36.36 0 0 0-.005.246m.533-1.603a.14.14 0 0 1 .035-.043.2.2 0 0 1 .046-.032.13.13 0 0 1 .11 0 .2.2 0 0 1 .046.032.14.14 0 0 1 .034.043.1.1 0 0 1 .013.055v.322a.1.1 0 0 1-.013.056.2.2 0 0 1-.034.046.1.1 0 0 1-.046.031.17.17 0 0 1-.11 0 .1.1 0 0 1-.046-.03.2.2 0 0 1-.035-.047.1.1 0 0 1-.012-.056v-.322q0-.029.012-.055m.473 1.931q.046.099.126.17a.6.6 0 0 0 .184.109.6.6 0 0 0 .3.03l.067-.012.056-.012a.2.2 0 0 1 .037-.006v-.285a.1.1 0 0 1-.025.015.3.3 0 0 1-.114.034 1 1 0 0 1-.09.006.32.32 0 0 1-.213-.08.3.3 0 0 1-.064-.087.25.25 0 0 1 0-.219.28.28 0 0 1 .16-.148.3.3 0 0 1 .117-.022.4.4 0 0 1 .09.01q.04.008.068.018l.046.018a.1.1 0 0 0 .025.01v-.279l-.034-.012a1 1 0 0 0-.124-.022q-.039-.002-.09-.003a.62.62 0 0 0-.405.15.5.5 0 0 0-.12.17.5.5 0 0 0-.044.218.5.5 0 0 0 .047.23m.25-2.303a.2.2 0 0 1 .03-.043.2.2 0 0 1 .047-.031.13.13 0 0 1 .11 0 .2.2 0 0 1 .05.03.14.14 0 0 1 .034.044.1.1 0 0 1 .013.056v.693a.1.1 0 0 1-.013.056.2.2 0 0 1-.034.046.1.1 0 0 1-.05.031.166.166 0 0 1-.111 0 .1.1 0 0 1-.045-.03.2.2 0 0 1-.031-.047.1.1 0 0 1-.013-.056v-.693a.1.1 0 0 1 .013-.056m.728-.467a.13.13 0 0 1 .084-.075.2.2 0 0 1 .11 0 .12.12 0 0 1 .078.075.1.1 0 0 1 .012.052v1.4q0 .03-.012.056a.15.15 0 0 1-.077.074.1.1 0 0 1-.053.013.14.14 0 0 1-.058-.013.2.2 0 0 1-.05-.03.14.14 0 0 1-.034-.044.1.1 0 0 1-.012-.056v-1.4a.1.1 0 0 1 .012-.052m.096 2.752a.52.52 0 0 0 .29.29.6.6 0 0 0 .45 0 .517.517 0 0 0 .29-.291.57.57 0 0 0 0-.42.5.5 0 0 0-.114-.17.584.584 0 0 0-.802 0 .5.5 0 0 0-.114.17.57.57 0 0 0 0 .42m.262-.316a.24.24 0 0 1 .055-.087.272.272 0 0 1 .197-.08.28.28 0 0 1 .197.08.25.25 0 0 1 .056.087q.018.052.018.105a.3.3 0 0 1-.018.108.24.24 0 0 1-.056.09.28.28 0 0 1-.394 0 .24.24 0 0 1-.055-.09.33.33 0 0 1 0-.213m.365-1.969a.154.154 0 0 1 .136-.087.1.1 0 0 1 .052.013.2.2 0 0 1 .049.03.14.14 0 0 1 .034.044.1.1 0 0 1 .013.056v.693q0 .03-.013.056a.2.2 0 0 1-.034.046.1.1 0 0 1-.05.031.17.17 0 0 1-.11 0 .1.1 0 0 1-.047-.03.2.2 0 0 1-.03-.047.1.1 0 0 1-.013-.056v-.693q0-.03.013-.056m.721.372a.17.17 0 0 1 .075-.075.1.1 0 0 1 .055-.012q.029 0 .053.012a.145.145 0 0 1 .07.13v.322a.2.2 0 0 1-.009.056.2.2 0 0 1-.025.046.1.1 0 0 1-.036.031.154.154 0 0 1-.108 0 .1.1 0 0 1-.043-.03.2.2 0 0 1-.032-.047.1.1 0 0 1-.012-.056v-.322q0-.029.012-.055"/><path fill="#B0AFAF" d="M75.704 58.807a.07.07 0 0 1 .021.052v1.055a.07.07 0 0 1-.021.053.073.073 0 0 1-.054.022H74a.07.07 0 0 1-.055-.022.07.07 0 0 1-.021-.053V58.86a.07.07 0 0 1 .021-.052.073.073 0 0 1 .054-.022h1.65a.07.07 0 0 1 .055.022m-.354.84a.3.3 0 0 0 .151-.26.3.3 0 0 0-.15-.262.3.3 0 0 0-.412.11.3.3 0 0 0 0 .301h-.227a.3.3 0 0 0 .04-.15.3.3 0 0 0-.15-.261.3.3 0 0 0-.411.111.3.3 0 0 0 .11.412.3.3 0 0 0 .151.04h.75a.3.3 0 0 0 .15-.04zm-.795-.154a.146.146 0 0 1-.244-.064.147.147 0 0 1 .17-.186.15.15 0 0 1 .118.144.15.15 0 0 1-.043.105zm.751 0a.15.15 0 0 1-.106.044.15.15 0 0 1-.138-.208.15.15 0 1 1 .244.163M78.718 62.345a.07.07 0 0 1 .02.047v1.467a.066.066 0 0 1-.067.068h-.932a.07.07 0 0 1-.047-.02.07.07 0 0 1-.02-.048v-.166h-.066a.065.065 0 0 1-.062-.042.1.1 0 0 1-.005-.026v-1a.07.07 0 0 1 .02-.048.06.06 0 0 1 .047-.02h.066v-.166a.07.07 0 0 1 .067-.067h.932a.06.06 0 0 1 .047.02m-.153 1.148-.024-.136a.04.04 0 0 0-.013-.018l-.209-.123-.014-.016-.023-.058a.15.15 0 0 0 .04-.069.3.3 0 0 0 .016-.083v-.092a.14.14 0 0 0-.04-.095.13.13 0 0 0-.148-.03.1.1 0 0 0-.044.03.13.13 0 0 0-.041.095v.092q0 .043.014.085.01.04.044.067l-.024.058q0 .009-.013.016l-.211.123q-.013.008-.013.018l-.022.136zM119.148 63.387a.2.2 0 0 0-.062.058.2.2 0 0 0-.032.078l-.005.022h-.274l.03-.176q0-.006.003-.013l.01-.009.271-.153a.04.04 0 0 0 .017-.022l.034-.07a.17.17 0 0 1-.055-.088.3.3 0 0 1-.019-.108v-.116a.2.2 0 0 1 .012-.067.18.18 0 0 1 .094-.096.2.2 0 0 1 .067-.012.17.17 0 0 1 .124.052.17.17 0 0 1 .052.125v.116a.3.3 0 0 1-.024.106.2.2 0 0 1-.053.083l.033.077q.006.013.018.022l.047.027zm1.475.443-1.482-.008.046-.279q0-.012.007-.022l.007-.009.011-.005.428-.25a.1.1 0 0 0 .031-.036l.052-.11a.26.26 0 0 1-.084-.137.6.6 0 0 1-.03-.17v-.184a.27.27 0 0 1 .037-.14.275.275 0 0 1 .48.002.27.27 0 0 1 .037.14v.184a.6.6 0 0 1-.071.251.15.15 0 0 1-.047.054l.05.117.014.022q.006.011.018.016l.425.254q.025.022.025.037zm.373-.273h-.273l-.005-.023a.2.2 0 0 0-.032-.078.2.2 0 0 0-.06-.058l-.287-.17.047-.026a.05.05 0 0 0 .018-.022l.034-.07a.17.17 0 0 1-.056-.088.4.4 0 0 1-.017-.107v-.117q0-.034.013-.067a.17.17 0 0 1 .16-.108.17.17 0 0 1 .124.052.175.175 0 0 1 .051.125v.116a.3.3 0 0 1-.023.103.2.2 0 0 1-.052.087l.031.076q.006.014.018.022l.268.155q.016.014.016.023zM116.198 58.636l-.008 1.307h-.228a.06.06 0 0 1-.046-.02l-.015-.02a.1.1 0 0 1-.005-.026l.006-1.175a.07.07 0 0 1 .02-.047.07.07 0 0 1 .046-.02zm.599.023a.1.1 0 0 1 .015.02.1.1 0 0 1 .004.026l-.005 1.176a.1.1 0 0 1-.006.025.1.1 0 0 1-.014.02.06.06 0 0 1-.046.02h-.228l.006-1.307h.228q.014 0 .025.005a.1.1 0 0 1 .021.015M113.952 70.654a.32.32 0 0 1-.175.116.553.553 0 0 1-.397.327.12.12 0 0 1-.047.058.13.13 0 0 1-.147-.002.14.14 0 0 1-.048-.06.13.13 0 0 1-.006-.076.13.13 0 0 1 .036-.067.12.12 0 0 1 .093-.037q.03 0 .059.015.027.014.044.04a.42.42 0 0 0 .284-.232.4.4 0 0 0 .042-.184l.003-.396a.43.43 0 0 0-.213-.373.424.424 0 0 0-.585.154.4.4 0 0 0-.059.214l-.003.627a.332.332 0 0 1-.273-.512.33.33 0 0 1 .145-.121.55.55 0 0 1 .28-.48.56.56 0 0 1 .839.485.333.333 0 0 1 .128.504M120.008 70.055l.582-.543-.009 1.751-.576-.55h-.221a.077.077 0 0 1-.051-.022.08.08 0 0 1-.02-.051l.002-.512q0-.015.006-.028a.1.1 0 0 1 .016-.023.1.1 0 0 1 .023-.016.1.1 0 0 1 .027-.006zM116.47 74.748a.066.066 0 0 1-.111-.047q0-.028.019-.047l.309-.306.003-.525a.294.294 0 0 1 .424-.262.3.3 0 0 1 .155.21l.221-.222a.06.06 0 0 1 .045-.018.07.07 0 0 1 .061.04.1.1 0 0 1 .004.025.06.06 0 0 1-.018.046zm.784.265q.007.006.012.017l.003.02a.04.04 0 0 1-.004.018.04.04 0 0 1-.011.016l-.017.01a.1.1 0 0 1-.02.004l-.488-.003a.04.04 0 0 1-.019-.003l-.016-.011-.01-.016-.004-.018q0-.01.004-.02a.04.04 0 0 1 .011-.017.04.04 0 0 1 .015-.011l.019-.004.18-.023V74.9h.129v.073l.18.025q.01 0 .02.004a.04.04 0 0 1 .016.012m-.406-.275a.3.3 0 0 1-.1-.082l.524-.522v.343a.294.294 0 0 1-.293.293.3.3 0 0 1-.129-.032zM71.854 63.042l.272.164-.052.224-.315.03-.013.018-.015.02-.017.02a.1.1 0 0 1-.018.018l.043.315-.207.1-.216-.231a.01.01 0 0 0-.012 0l-.005.001-.006-.001h-.012a.01.01 0 0 1-.011 0 .02.02 0 0 1-.013 0h-.014a.02.02 0 0 1-.012 0 .01.01 0 0 0-.014 0l-.216.23-.207-.099.043-.319-.015-.018-.017-.02-.014-.02-.013-.018-.315-.03-.053-.22.276-.168q0-.012.003-.023l.005-.023a.3.3 0 0 1 .011-.046l-.177-.267.144-.178.3.11.019-.01.021-.01.023-.009.021-.01.099-.306.23.004.095.3q.011.008.025.012l.02.01.022.012a.1.1 0 0 1 .022.014l.293-.118.145.184-.177.26.008.027q.001.01.005.024l.005.027.005.024zm-.584.484a.4.4 0 0 0 .152-.033.4.4 0 0 0 .125-.086.39.39 0 0 0 .085-.436.4.4 0 0 0-.085-.125.5.5 0 0 0-.125-.084.3.3 0 0 0-.152-.03.34.34 0 0 0-.154.03.4.4 0 0 0-.125.084.388.388 0 0 0-.084.434q.03.071.084.127a.35.35 0 0 0 .124.086q.075.03.155.033M113.286 62.542q.024 0 .045.01a.1.1 0 0 1 .038.027l.681.68-.688.674a.117.117 0 0 1-.166 0h-.003a.117.117 0 0 1 0-.167l.508-.504-.5-.516a.13.13 0 0 1-.032-.06.12.12 0 0 1 .051-.121.1.1 0 0 1 .065-.02z"/><path fill="#B0AFAF" d="M113.645 63.108h-1.101a.144.144 0 0 0 0 .288h1.101a.144.144 0 1 0 0-.288"/></g><defs><linearGradient id="b" x1="83.606" x2="83.606" y1="25.22" y2="81.889" gradientUnits="userSpaceOnUse"><stop stop-color="#848383"/><stop offset=".512" stop-color="#7E7D7D"/><stop offset=".971" stop-color="#797979"/><stop offset=".977" stop-color="#747474"/><stop offset=".986" stop-color="#646464"/><stop offset=".995" stop-color="#4B4A4A"/><stop offset="1" stop-color="#393838"/></linearGradient><linearGradient id="d" x1="50.837" x2="51.6" y1="25.414" y2="81.567" gradientUnits="userSpaceOnUse"><stop stop-color="#717070"/><stop offset=".006" stop-color="#6C6B6B"/><stop offset=".042" stop-color="#515050"/><stop offset=".075" stop-color="#414040"/><stop offset=".1" stop-color="#3B3A3A"/><stop offset=".412" stop-color="#3D3C3C"/><stop offset=".594" stop-color="#464545"/><stop offset=".742" stop-color="#545353"/><stop offset=".871" stop-color="#686767"/><stop offset=".955" stop-color="#797878"/><stop offset=".967" stop-color="#757474"/><stop offset=".979" stop-color="#696868"/><stop offset=".991" stop-color="#555454"/><stop offset="1" stop-color="#3F3E3E"/></linearGradient><linearGradient id="e" x1="43.698" x2="58.335" y1="71.553" y2="71.561" gradientUnits="userSpaceOnUse"><stop stop-color="#1B1B1B"/><stop offset=".58" stop-color="#1B1B1B"/><stop offset=".676" stop-color="#1B1B1B"/><stop offset=".875" stop-color="#1D1D1D"/><stop offset=".949" stop-color="#242424"/><stop offset="1" stop-color="#2F2F2F"/></linearGradient><linearGradient id="f" x1="44.148" x2="58.114" y1="71.635" y2="71.64" gradientUnits="userSpaceOnUse"><stop stop-color="#171616" stop-opacity="0"/><stop offset=".417" stop-color="#191818" stop-opacity=".013"/><stop offset=".567" stop-color="#1E1D1D" stop-opacity=".059"/><stop offset=".674" stop-color="#282727" stop-opacity=".14"/><stop offset=".761" stop-color="#363535" stop-opacity=".256"/><stop offset=".835" stop-color="#494848" stop-opacity=".407"/><stop offset=".9" stop-color="#605E5E" stop-opacity=".593"/><stop offset=".958" stop-color="#7A7979" stop-opacity=".809"/><stop offset="1" stop-color="#929090"/></linearGradient><linearGradient id="i" x1="38.807" x2="38.807" y1="73.367" y2="90.8" gradientUnits="userSpaceOnUse"><stop offset=".262" stop-color="#1A1A1B"/><stop offset=".588" stop-color="#8E8E8E" stop-opacity=".744"/><stop offset=".857" stop-color="#DEDEDE" stop-opacity=".567"/><stop offset="1" stop-color="#FCFCFC" stop-opacity=".5"/></linearGradient><linearGradient id="j" x1="48.996" x2="48.996" y1="77.821" y2="91.357" gradientUnits="userSpaceOnUse"><stop stop-color="#292929"/><stop offset=".278" stop-color="#6E6C6D"/><stop offset=".468" stop-color="#989697"/><stop offset=".543" stop-color="#949293"/><stop offset=".618" stop-color="#888687"/><stop offset=".693" stop-color="#747374"/><stop offset=".767" stop-color="#585859"/><stop offset=".837" stop-color="#373738"/><stop offset=".918" stop-color="#494949"/><stop offset="1" stop-color="#565656"/></linearGradient><linearGradient id="k" x1="95.473" x2="95.473" y1="5.998" y2="51.586" gradientUnits="userSpaceOnUse"><stop stop-color="#555454"/><stop offset=".756" stop-color="#494949"/><stop offset=".838" stop-color="#474747"/><stop offset=".848" stop-color="#535353"/><stop offset=".871" stop-color="#696969"/><stop offset=".894" stop-color="#767676"/><stop offset=".915" stop-color="#7A7A7A"/><stop offset=".923" stop-color="#7B7B7B"/><stop offset="1" stop-color="#7D7D7D"/></linearGradient><linearGradient id="l" x1="95.498" x2="95.498" y1="44.353" y2="51.317" gradientUnits="userSpaceOnUse"><stop stop-color="#696665"/><stop offset=".19" stop-color="#7C7978"/><stop offset=".53" stop-color="#A6A5A4"/><stop offset="1" stop-color="#CBCAC9"/></linearGradient><linearGradient id="m" x1="69.016" x2="123.872" y1="7.182" y2="44.505" gradientUnits="userSpaceOnUse"><stop stop-color="#0F0F0F"/><stop offset=".973" stop-color="#010101"/></linearGradient><linearGradient id="o" x1="92.576" x2="98.225" y1="3.122" y2="3.122" gradientUnits="userSpaceOnUse"><stop stop-color="#282726"/><stop offset=".474" stop-color="#4B4B4C"/><stop offset=".973" stop-color="#57585D"/></linearGradient><linearGradient id="p" x1="95.448" x2="95.448" y1=".357" y2="6.225" gradientUnits="userSpaceOnUse"><stop stop-color="#7D7C7D"/><stop offset=".966" stop-color="#3F3C3B"/></linearGradient><linearGradient id="q" x1="95.448" x2="95.448" y1=".55" y2="6.226" gradientUnits="userSpaceOnUse"><stop stop-color="#E2E2E1"/><stop offset=".484" stop-color="#625F5D"/><stop offset=".966" stop-color="#323130"/></linearGradient><linearGradient id="r" x1="95.447" x2="95.447" y1=".743" y2="6.13" gradientUnits="userSpaceOnUse"><stop stop-color="#797776"/><stop offset=".494" stop-color="#777574"/><stop offset=".966" stop-color="#6A6867"/></linearGradient><linearGradient id="s" x1="95.423" x2="95.423" y1=".889" y2="5.987" gradientUnits="userSpaceOnUse"><stop stop-color="#292826"/><stop offset=".496" stop-color="#6A6A6B"/><stop offset=".966" stop-color="#D4D3D3"/></linearGradient><linearGradient id="t" x1="94.987" x2="96.124" y1="2.989" y2="3.943" gradientUnits="userSpaceOnUse"><stop stop-color="#211429"/><stop offset=".372" stop-color="#0B0B0B"/><stop offset=".692" stop-color="#131312"/><stop offset=".966" stop-color="#BAB9B3"/></linearGradient><linearGradient id="u" x1="95.058" x2="95.343" y1="3.064" y2="3.245" gradientUnits="userSpaceOnUse"><stop stop-color="#4F3257"/><stop offset=".966" stop-color="#4A3B4D"/></linearGradient><linearGradient id="v" x1="61.044" x2="41.456" y1="18.375" y2="77.984" gradientUnits="userSpaceOnUse"><stop offset=".015" stop-color="#656566"/><stop offset=".11" stop-color="#74757B"/><stop offset=".143" stop-color="#707177"/><stop offset=".313" stop-color="#606064"/><stop offset=".432" stop-color="#5A5A5D"/><stop offset=".828" stop-color="#5E5F60"/><stop offset=".888" stop-color="#4A4A4B"/><stop offset=".952" stop-color="#585858"/><stop offset=".958" stop-color="#535353"/><stop offset=".977" stop-color="#494848"/><stop offset=".999" stop-color="#464545"/></linearGradient><linearGradient id="y" x1="84.835" x2="90.349" y1="52.65" y2="52.536" gradientUnits="userSpaceOnUse"><stop stop-color="#1B1B1B"/><stop offset=".58" stop-color="#1B1B1B"/><stop offset=".676" stop-color="#1B1B1B"/><stop offset=".875" stop-color="#1D1D1D"/><stop offset=".949" stop-color="#242424"/><stop offset="1" stop-color="#2F2F2F"/></linearGradient><linearGradient id="z" x1="86.611" x2="91.61" y1="59.866" y2="59.866" gradientUnits="userSpaceOnUse"><stop stop-color="#626262"/><stop offset=".982" stop-color="#797979"/></linearGradient><linearGradient id="A" x1="91.413" x2="96.927" y1="52.506" y2="52.392" gradientUnits="userSpaceOnUse"><stop stop-color="#1B1B1B"/><stop offset=".58" stop-color="#1B1B1B"/><stop offset=".676" stop-color="#1B1B1B"/><stop offset=".875" stop-color="#1D1D1D"/><stop offset=".949" stop-color="#242424"/><stop offset="1" stop-color="#2F2F2F"/></linearGradient><linearGradient id="B" x1="93.124" x2="98.122" y1="59.866" y2="59.866" gradientUnits="userSpaceOnUse"><stop stop-color="#626262"/><stop offset=".982" stop-color="#797979"/></linearGradient><linearGradient id="C" x1="97.99" x2="103.504" y1="52.362" y2="52.248" gradientUnits="userSpaceOnUse"><stop stop-color="#1B1B1B"/><stop offset=".58" stop-color="#1B1B1B"/><stop offset=".676" stop-color="#1B1B1B"/><stop offset=".875" stop-color="#1D1D1D"/><stop offset=".949" stop-color="#242424"/><stop offset="1" stop-color="#2F2F2F"/></linearGradient><linearGradient id="D" x1="99.636" x2="104.634" y1="59.866" y2="59.866" gradientUnits="userSpaceOnUse"><stop stop-color="#626262"/><stop offset=".982" stop-color="#797979"/></linearGradient><linearGradient id="E" x1="84.941" x2="90.454" y1="57.758" y2="57.644" gradientUnits="userSpaceOnUse"><stop stop-color="#1B1B1B"/><stop offset=".58" stop-color="#1B1B1B"/><stop offset=".676" stop-color="#1B1B1B"/><stop offset=".875" stop-color="#1D1D1D"/><stop offset=".949" stop-color="#242424"/><stop offset="1" stop-color="#2F2F2F"/></linearGradient><linearGradient id="F" x1="86.611" x2="91.61" y1="64.909" y2="64.909" gradientUnits="userSpaceOnUse"><stop stop-color="#626262"/><stop offset=".982" stop-color="#797979"/></linearGradient><linearGradient id="G" x1="91.519" x2="97.033" y1="57.614" y2="57.5" gradientUnits="userSpaceOnUse"><stop stop-color="#1B1B1B"/><stop offset=".58" stop-color="#1B1B1B"/><stop offset=".676" stop-color="#1B1B1B"/><stop offset=".875" stop-color="#1D1D1D"/><stop offset=".949" stop-color="#242424"/><stop offset="1" stop-color="#2F2F2F"/></linearGradient><linearGradient id="H" x1="93.124" x2="98.122" y1="64.909" y2="64.909" gradientUnits="userSpaceOnUse"><stop stop-color="#626262"/><stop offset=".982" stop-color="#797979"/></linearGradient><linearGradient id="I" x1="98.096" x2="103.61" y1="57.471" y2="57.357" gradientUnits="userSpaceOnUse"><stop stop-color="#1B1B1B"/><stop offset=".58" stop-color="#1B1B1B"/><stop offset=".676" stop-color="#1B1B1B"/><stop offset=".875" stop-color="#1D1D1D"/><stop offset=".949" stop-color="#242424"/><stop offset="1" stop-color="#2F2F2F"/></linearGradient><linearGradient id="J" x1="99.636" x2="104.634" y1="64.909" y2="64.909" gradientUnits="userSpaceOnUse"><stop stop-color="#626262"/><stop offset=".982" stop-color="#797979"/></linearGradient><linearGradient id="K" x1="67.156" x2="79.234" y1="63.574" y2="63.324" gradientUnits="userSpaceOnUse"><stop stop-color="#1B1B1B"/><stop offset=".58" stop-color="#1B1B1B"/><stop offset=".676" stop-color="#1B1B1B"/><stop offset=".875" stop-color="#1D1D1D"/><stop offset=".949" stop-color="#242424"/><stop offset="1" stop-color="#2F2F2F"/></linearGradient><linearGradient id="L" x1="68.864" x2="80.447" y1="70.326" y2="70.326" gradientUnits="userSpaceOnUse"><stop stop-color="#626262"/><stop offset=".982" stop-color="#797979"/></linearGradient><linearGradient id="M" x1="66.922" x2="72.436" y1="56.327" y2="56.212" gradientUnits="userSpaceOnUse"><stop stop-color="#1B1B1B"/><stop offset=".58" stop-color="#1B1B1B"/><stop offset=".676" stop-color="#1B1B1B"/><stop offset=".875" stop-color="#1D1D1D"/><stop offset=".949" stop-color="#242424"/><stop offset="1" stop-color="#2F2F2F"/></linearGradient><linearGradient id="N" x1="68.754" x2="73.832" y1="63.17" y2="63.17" gradientUnits="userSpaceOnUse"><stop stop-color="#626262"/><stop offset=".982" stop-color="#797979"/></linearGradient><linearGradient id="O" x1="73.79" x2="79.305" y1="56.176" y2="56.063" gradientUnits="userSpaceOnUse"><stop stop-color="#1B1B1B"/><stop offset=".58" stop-color="#1B1B1B"/><stop offset=".676" stop-color="#1B1B1B"/><stop offset=".875" stop-color="#1D1D1D"/><stop offset=".949" stop-color="#242424"/><stop offset="1" stop-color="#2F2F2F"/></linearGradient><linearGradient id="P" x1="75.555" x2="80.632" y1="63.17" y2="63.17" gradientUnits="userSpaceOnUse"><stop stop-color="#626262"/><stop offset=".982" stop-color="#797979"/></linearGradient><linearGradient id="Q" x1="70.422" x2="75.936" y1="52.405" y2="52.291" gradientUnits="userSpaceOnUse"><stop stop-color="#1B1B1B"/><stop offset=".58" stop-color="#1B1B1B"/><stop offset=".676" stop-color="#1B1B1B"/><stop offset=".875" stop-color="#1D1D1D"/><stop offset=".949" stop-color="#242424"/><stop offset="1" stop-color="#2F2F2F"/></linearGradient><linearGradient id="R" x1="72.297" x2="77.374" y1="59.376" y2="59.376" gradientUnits="userSpaceOnUse"><stop stop-color="#626262"/><stop offset=".982" stop-color="#797979"/></linearGradient><linearGradient id="S" x1="109.05" x2="114.564" y1="55.406" y2="55.292" gradientUnits="userSpaceOnUse"><stop stop-color="#1B1B1B"/><stop offset=".58" stop-color="#1B1B1B"/><stop offset=".676" stop-color="#1B1B1B"/><stop offset=".875" stop-color="#1D1D1D"/><stop offset=".949" stop-color="#242424"/><stop offset="1" stop-color="#2F2F2F"/></linearGradient><linearGradient id="T" x1="110.465" x2="115.542" y1="63.17" y2="63.17" gradientUnits="userSpaceOnUse"><stop stop-color="#626262"/><stop offset=".982" stop-color="#797979"/></linearGradient><linearGradient id="U" x1="115.918" x2="121.432" y1="55.256" y2="55.142" gradientUnits="userSpaceOnUse"><stop stop-color="#1B1B1B"/><stop offset=".58" stop-color="#1B1B1B"/><stop offset=".676" stop-color="#1B1B1B"/><stop offset=".875" stop-color="#1D1D1D"/><stop offset=".949" stop-color="#242424"/><stop offset="1" stop-color="#2F2F2F"/></linearGradient><linearGradient id="V" x1="117.264" x2="122.341" y1="63.17" y2="63.17" gradientUnits="userSpaceOnUse"><stop stop-color="#626262"/><stop offset=".982" stop-color="#797979"/></linearGradient><linearGradient id="W" x1="112.551" x2="118.065" y1="51.485" y2="51.371" gradientUnits="userSpaceOnUse"><stop stop-color="#1B1B1B"/><stop offset=".58" stop-color="#1B1B1B"/><stop offset=".676" stop-color="#1B1B1B"/><stop offset=".875" stop-color="#1D1D1D"/><stop offset=".949" stop-color="#242424"/><stop offset="1" stop-color="#2F2F2F"/></linearGradient><linearGradient id="X" x1="114.008" x2="119.086" y1="59.376" y2="59.376" gradientUnits="userSpaceOnUse"><stop stop-color="#626262"/><stop offset=".982" stop-color="#797979"/></linearGradient><linearGradient id="Y" x1="109.634" x2="115.149" y1="62.597" y2="62.483" gradientUnits="userSpaceOnUse"><stop stop-color="#1B1B1B"/><stop offset=".58" stop-color="#1B1B1B"/><stop offset=".676" stop-color="#1B1B1B"/><stop offset=".875" stop-color="#1D1D1D"/><stop offset=".949" stop-color="#242424"/><stop offset="1" stop-color="#2F2F2F"/></linearGradient><linearGradient id="Z" x1="110.895" x2="115.972" y1="70.278" y2="70.278" gradientUnits="userSpaceOnUse"><stop stop-color="#626262"/><stop offset=".982" stop-color="#797979"/></linearGradient><linearGradient id="aa" x1="116.503" x2="122.017" y1="62.447" y2="62.333" gradientUnits="userSpaceOnUse"><stop stop-color="#1B1B1B"/><stop offset=".58" stop-color="#1B1B1B"/><stop offset=".676" stop-color="#1B1B1B"/><stop offset=".875" stop-color="#1D1D1D"/><stop offset=".949" stop-color="#242424"/><stop offset="1" stop-color="#2F2F2F"/></linearGradient><linearGradient id="ab" x1="117.695" x2="122.772" y1="70.278" y2="70.278" gradientUnits="userSpaceOnUse"><stop stop-color="#626262"/><stop offset=".982" stop-color="#797979"/></linearGradient><linearGradient id="ac" x1="113.203" x2="118.717" y1="66.608" y2="66.494" gradientUnits="userSpaceOnUse"><stop stop-color="#1B1B1B"/><stop offset=".58" stop-color="#1B1B1B"/><stop offset=".676" stop-color="#1B1B1B"/><stop offset=".875" stop-color="#1D1D1D"/><stop offset=".949" stop-color="#242424"/><stop offset="1" stop-color="#2F2F2F"/></linearGradient><linearGradient id="ad" x1="114.344" x2="119.422" y1="74.313" y2="74.313" gradientUnits="userSpaceOnUse"><stop stop-color="#626262"/><stop offset=".982" stop-color="#797979"/></linearGradient><linearGradient id="ae" x1="91.624" x2="97.138" y1="62.723" y2="62.609" gradientUnits="userSpaceOnUse"><stop stop-color="#1B1B1B"/><stop offset=".58" stop-color="#1B1B1B"/><stop offset=".676" stop-color="#1B1B1B"/><stop offset=".875" stop-color="#1D1D1D"/><stop offset=".949" stop-color="#242424"/><stop offset="1" stop-color="#2F2F2F"/></linearGradient><linearGradient id="af" x1="93.124" x2="98.122" y1="69.952" y2="69.952" gradientUnits="userSpaceOnUse"><stop stop-color="#626262"/><stop offset=".982" stop-color="#797979"/></linearGradient><linearGradient id="ag" x1="85.046" x2="90.56" y1="62.867" y2="62.753" gradientUnits="userSpaceOnUse"><stop stop-color="#1B1B1B"/><stop offset=".58" stop-color="#1B1B1B"/><stop offset=".676" stop-color="#1B1B1B"/><stop offset=".875" stop-color="#1D1D1D"/><stop offset=".949" stop-color="#242424"/><stop offset="1" stop-color="#2F2F2F"/></linearGradient><linearGradient id="ah" x1="86.611" x2="91.61" y1="69.952" y2="69.952" gradientUnits="userSpaceOnUse"><stop stop-color="#626262"/><stop offset=".982" stop-color="#797979"/></linearGradient><linearGradient id="ai" x1="98.201" x2="103.715" y1="62.579" y2="62.465" gradientUnits="userSpaceOnUse"><stop stop-color="#1B1B1B"/><stop offset=".58" stop-color="#1B1B1B"/><stop offset=".676" stop-color="#1B1B1B"/><stop offset=".875" stop-color="#1D1D1D"/><stop offset=".949" stop-color="#242424"/><stop offset="1" stop-color="#2F2F2F"/></linearGradient><linearGradient id="aj" x1="99.636" x2="104.634" y1="69.952" y2="69.952" gradientUnits="userSpaceOnUse"><stop stop-color="#626262"/><stop offset=".982" stop-color="#797979"/></linearGradient><linearGradient id="ak" x1="85.154" x2="90.667" y1="68.072" y2="67.958" gradientUnits="userSpaceOnUse"><stop stop-color="#1B1B1B"/><stop offset=".58" stop-color="#1B1B1B"/><stop offset=".676" stop-color="#1B1B1B"/><stop offset=".875" stop-color="#1D1D1D"/><stop offset=".949" stop-color="#242424"/><stop offset="1" stop-color="#2F2F2F"/></linearGradient><linearGradient id="al" x1="86.611" x2="91.61" y1="75.091" y2="75.091" gradientUnits="userSpaceOnUse"><stop stop-color="#626262"/><stop offset=".982" stop-color="#797979"/></linearGradient><linearGradient id="am" x1="91.732" x2="97.246" y1="67.929" y2="67.815" gradientUnits="userSpaceOnUse"><stop stop-color="#1B1B1B"/><stop offset=".58" stop-color="#1B1B1B"/><stop offset=".676" stop-color="#1B1B1B"/><stop offset=".875" stop-color="#1D1D1D"/><stop offset=".949" stop-color="#242424"/><stop offset="1" stop-color="#2F2F2F"/></linearGradient><linearGradient id="an" x1="93.124" x2="98.122" y1="75.091" y2="75.091" gradientUnits="userSpaceOnUse"><stop stop-color="#626262"/><stop offset=".982" stop-color="#797979"/></linearGradient><linearGradient id="ao" x1="98.309" x2="103.823" y1="67.785" y2="67.671" gradientUnits="userSpaceOnUse"><stop stop-color="#1B1B1B"/><stop offset=".58" stop-color="#1B1B1B"/><stop offset=".676" stop-color="#1B1B1B"/><stop offset=".875" stop-color="#1D1D1D"/><stop offset=".949" stop-color="#242424"/><stop offset="1" stop-color="#2F2F2F"/></linearGradient><linearGradient id="ap" x1="99.636" x2="104.634" y1="75.091" y2="75.091" gradientUnits="userSpaceOnUse"><stop stop-color="#626262"/><stop offset=".982" stop-color="#797979"/></linearGradient><radialGradient id="c" cx="0" cy="0" r="1" gradientTransform="matrix(-3.89533 .54007 -2.01645 -14.6805 56.245 24.527)" gradientUnits="userSpaceOnUse"><stop stop-color="#141414"/><stop offset=".431" stop-color="#161616"/><stop offset=".587" stop-color="#1D1C1C"/><stop offset=".697" stop-color="#282727"/><stop offset=".743" stop-color="#302E2E"/><stop offset=".791" stop-color="#333131"/><stop offset=".833" stop-color="#3E3C3C"/><stop offset=".872" stop-color="#4F4E4E"/><stop offset=".909" stop-color="#676666"/><stop offset=".945" stop-color="#868686"/><stop offset=".947" stop-color="#888"/></radialGradient><radialGradient id="g" cx="0" cy="0" r="1" gradientTransform="matrix(10.4168 .23128 -.39669 29.0747 51.364 53.026)" gradientUnits="userSpaceOnUse"><stop offset=".281"/><stop offset="1" stop-opacity="0"/></radialGradient><radialGradient id="h" cx="0" cy="0" r="1" gradientTransform="matrix(-15.678 -4.80358 3.17555 -10.4247 42.8 81.107)" gradientUnits="userSpaceOnUse"><stop offset=".42" stop-color="#1A1A1B"/><stop offset=".507" stop-color="#4C4B4C"/><stop offset=".58" stop-color="#706E6F"/><stop offset=".619" stop-color="#7D7B7C"/><stop offset=".691" stop-color="#514F50"/><stop offset=".754" stop-color="#2E2C2D"/><stop offset=".795" stop-color="#323132"/><stop offset=".843" stop-color="#3F3E40"/><stop offset=".857" stop-color="#444345"/></radialGradient><radialGradient id="n" cx="0" cy="0" r="1" gradientTransform="matrix(2.74845 0 0 2.75644 95.66 48.833)" gradientUnits="userSpaceOnUse"><stop offset=".28" stop-color="#B4B2B0"/><stop offset=".478" stop-color="#A8A6A4"/><stop offset=".836" stop-color="#888785"/><stop offset="1" stop-color="#777675"/></radialGradient><radialGradient id="w" cx="0" cy="0" r="1" gradientTransform="matrix(8.80157 0 0 63.1583 50.627 49.375)" gradientUnits="userSpaceOnUse"><stop stop-color="#AFAFAF"/><stop offset=".463" stop-color="#878584"/><stop offset=".656" stop-color="#767473"/><stop offset=".825" stop-color="#6D6A69"/><stop offset=".996" stop-color="#636261"/></radialGradient><radialGradient id="x" cx="0" cy="0" r="1" gradientTransform="matrix(.15382 7.60215 -5.43282 .12958 49.545 76.18)" gradientUnits="userSpaceOnUse"><stop offset=".693" stop-color="#575656"/><stop offset=".751" stop-color="#595858" stop-opacity=".938"/><stop offset=".823" stop-color="#5F5E5E" stop-opacity=".76"/><stop offset=".904" stop-color="#696767" stop-opacity=".466"/><stop offset=".989" stop-color="#767474" stop-opacity=".059"/><stop offset="1" stop-color="#787676" stop-opacity="0"/></radialGradient><clipPath id="a"><path fill="#fff" d="M29.623 0h99.192v92H29.623z"/></clipPath></defs></svg>