<svg xmlns="http://www.w3.org/2000/svg" width="1080" height="576" fill="none" viewBox="0 0 1080 576"><g fill-rule="evenodd" clip-path="url(#a)" clip-rule="evenodd"><path fill="url(#b)" d="M320.072 576h-58.18c-8.78 0-15.892-7.168-15.892-16V440h111.243l-21.525 122.784C334.383 570.432 327.78 576 320.072 576"/><path fill="url(#c)" d="M759.925 576h58.18c8.781 0 15.892-7.168 15.892-16V440H722.754l21.525 122.784c1.335 7.648 7.938 13.216 15.646 13.216"/><path fill="#1A1A1A" d="M834 400H246V40c0-8.832 7.12-16 15.892-16h556.216C826.88 24 834 31.168 834 40z"/><path fill="#E0E0E0" d="M818.108 528H261.892C253.12 528 246 520.832 246 512V400h588v112c0 8.832-7.12 16-15.892 16"/><path fill="#908E8E" d="M539.719 495.898h1.187v-5.279h-1.187zm10.784-3.761c-.043-.016-.429-.288-1.001-.288-.772 0-1.301.608-1.301 1.423 0 .784.515 1.408 1.301 1.408.558 0 .958-.256 1.001-.288v1.408c-.143.064-.558.192-1.087.192-1.329 0-2.502-1.04-2.502-2.72 0-1.583 1.058-2.735 2.502-2.735.558 0 .973.144 1.087.192zm-12.41 0c-.043-.016-.429-.288-1.001-.288-.772 0-1.301.608-1.301 1.423 0 .784.514 1.408 1.301 1.408.557 0 .958-.256 1.001-.288v1.408a2.9 2.9 0 0 1-1.073.192c-1.344 0-2.516-1.04-2.516-2.72 0-1.583 1.058-2.735 2.516-2.735.558 0 .972.144 1.073.192zm16.157-.265c-.7 0-1.229.64-1.229 1.392 0 .767.529 1.391 1.229 1.391.715 0 1.23-.624 1.23-1.391 0-.752-.515-1.392-1.23-1.392m2.506 1.391c0 1.503-1.044 2.735-2.502 2.735-1.444 0-2.488-1.232-2.488-2.735 0-1.504 1.044-2.719 2.488-2.719 1.458 0 2.502 1.215 2.502 2.719m-11.329-1.439c-.014 0-.514-.16-.929-.16-.486 0-.744.176-.744.432 0 .32.358.432.558.496l.315.128c.786.272 1.129.864 1.129 1.504 0 1.327-1.029 1.775-1.944 1.775-.644 0-1.23-.144-1.302-.16v-1.199c.115.032.615.192 1.13.192.601 0 .872-.192.872-.496 0-.256-.243-.416-.543-.512-.057-.032-.172-.064-.243-.096-.672-.24-1.23-.672-1.23-1.552 0-.975.672-1.647 1.773-1.647.572 0 1.115.16 1.158.176zm-12.186-6.864c0-.368-.286-.656-.6-.656-.329 0-.586.288-.586.656v1.375c0 .368.257.672.586.672.314 0 .6-.304.6-.672zm3.235-1.82c0-.352-.272-.656-.6-.656-.315 0-.587.304-.587.656v3.199c0 .368.272.672.587.672.328 0 .6-.304.6-.672zm3.245-2.484c0-.368-.271-.656-.6-.656-.315 0-.586.288-.586.656v7.006c0 .352.271.656.586.656.329 0 .6-.304.6-.656zm3.247 2.484c0-.352-.272-.656-.586-.656-.329 0-.601.304-.601.656v3.199c0 .368.272.672.601.672.314 0 .586-.304.586-.672zm3.245 1.82c0-.368-.272-.656-.6-.656-.315 0-.587.288-.587.656v1.375c0 .368.272.672.587.672.328 0 .6-.304.6-.672zm3.236-1.82c0-.352-.272-.656-.601-.656-.314 0-.586.304-.586.656v3.199c0 .368.272.672.586.672.329 0 .601-.304.601-.672zm3.245-2.484c0-.368-.257-.656-.586-.656s-.601.288-.601.656v7.006c0 .352.272.656.601.656s.586-.304.586-.656zm3.259 2.484c0-.352-.272-.656-.6-.656-.329 0-.587.304-.587.656v3.199c0 .368.258.672.587.672s.6-.304.6-.672zm3.245 1.82c0-.368-.271-.656-.586-.656-.329 0-.6.288-.6.656v1.375c0 .368.271.672.6.672.315 0 .586-.304.586-.672z"/><path fill="#fff" fill-opacity=".6" d="M802.22 488c0 4.424-3.56 8-7.946 8s-7.946-3.576-7.946-8 3.56-8 7.946-8 7.946 3.576 7.946 8"/><path fill="url(#d)" d="M563.84 24c0-13.256-10.672-24-23.838-24s-23.838 10.744-23.838 24 10.671 24 23.838 24c13.166 0 23.838-10.744 23.838-24"/><path fill="#232323" d="M555.893 24c0-8.832-7.119-16-15.892-16s-15.892 7.168-15.892 16 7.12 16 15.892 16c8.773 0 15.892-7.168 15.892-16"/><path fill="#222" d="M798.241 360H281.754c-2.193 0-3.973-1.792-3.973-4V76c0-2.208 1.78-4 3.973-4h516.487c2.193 0 3.973 1.792 3.973 4v280c0 2.208-1.78 4-3.973 4"/><path fill="url(#e)" d="M798.241 360H281.754c-2.193 0-3.973-1.792-3.973-4V76c0-2.208 1.78-4 3.973-4h516.487c2.193 0 3.973 1.792 3.973 4v280c0 2.208-1.78 4-3.973 4"/><path fill="#494E5C" d="M547.947 23.998c0-4.424-3.56-8-7.946-8-4.387 0-7.946 3.576-7.946 8s3.559 8 7.946 8 7.946-3.576 7.946-8"/></g><defs><linearGradient id="b" x1="274.233" x2="274.233" y1="508" y2="574.968" gradientUnits="userSpaceOnUse"><stop stop-color="#CFCFCF"/><stop offset="1" stop-color="#E6E6E6"/></linearGradient><linearGradient id="c" x1="750.987" x2="750.987" y1="508" y2="574.968" gradientUnits="userSpaceOnUse"><stop stop-color="#CFCFCF"/><stop offset="1" stop-color="#E6E6E6"/></linearGradient><linearGradient id="d" x1="517.903" x2="517.903" y1="1.737" y2="46.237" gradientUnits="userSpaceOnUse"><stop stop-color="#424242"/><stop offset="1" stop-color="#656565"/></linearGradient><linearGradient id="e" x1="15.565" x2="258.592" y1="216" y2="658.538" gradientUnits="userSpaceOnUse"><stop stop-color="#fff" stop-opacity=".24"/><stop offset="1" stop-opacity=".5"/></linearGradient><clipPath id="a"><path fill="#fff" d="M0 0h1080v576H0z"/></clipPath></defs></svg>