<svg xmlns="http://www.w3.org/2000/svg" width="1080" height="576" fill="none" viewBox="0 0 1080 576"><g clip-path="url(#a)"><rect width="959" height="161" x="60.5" y="204.502" fill="url(#b)" rx="4.5"/><rect width="959" height="161" x="60.5" y="204.502" fill="url(#c)" rx="4.5"/><rect width="959" height="161" x="60.5" y="204.502" fill="url(#d)" rx="4.5"/><rect width="959" height="161" x="60.5" y="204.502" stroke="#151B1E" stroke-opacity=".48" rx="4.5"/><rect width="959" height="161" x="60.5" y="204.502" stroke="#151B1E" stroke-opacity=".12" rx="4.5"/><rect width="959" height="161" x="60.5" y="204.502" stroke="url(#e)" rx="4.5"/><rect width="947.6" height="149.6" x="66.2" y="210.202" stroke="#151B1E" stroke-opacity=".32" stroke-width=".4" rx="3.8"/><path fill="url(#f)" d="M540 241.877c23.817 0 43.125 19.308 43.125 43.125S563.817 328.127 540 328.127s-43.125-19.308-43.125-43.125 19.308-43.125 43.125-43.125"/><path stroke="#21242D" stroke-opacity=".659" stroke-width=".75" d="M540 241.877c23.817 0 43.125 19.308 43.125 43.125S563.817 328.127 540 328.127s-43.125-19.308-43.125-43.125 19.308-43.125 43.125-43.125Z"/><path stroke="url(#g)" stroke-width=".75" d="M540 241.877c23.817 0 43.125 19.308 43.125 43.125S563.817 328.127 540 328.127s-43.125-19.308-43.125-43.125 19.308-43.125 43.125-43.125Z"/><path fill="url(#h)" d="M540.004 268.301c9.118 0 16.5 7.483 16.5 16.7s-7.382 16.7-16.5 16.7-16.5-7.483-16.5-16.7 7.381-16.7 16.5-16.7"/><path stroke="url(#i)" d="M540.004 268.301c9.118 0 16.5 7.483 16.5 16.7s-7.382 16.7-16.5 16.7-16.5-7.483-16.5-16.7 7.381-16.7 16.5-16.7Z"/><path stroke="#16181C" stroke-opacity=".64" d="M540.004 268.301c9.118 0 16.5 7.483 16.5 16.7s-7.382 16.7-16.5 16.7-16.5-7.483-16.5-16.7 7.381-16.7 16.5-16.7Z"/><path fill="#2A2A35" fill-opacity=".48" d="M549.635 272.066a16.23 16.23 0 0 1 5.996 9.457c-2.202 1.087-6.83 2.541-15.829 2.541-8.233 0-12.875-1.582-15.339-2.931a16.22 16.22 0 0 1 5.719-8.923l8.493 3.726z"/><path fill="#fff" d="M552.914 275.449a16.2 16.2 0 0 1 2.944 7.454l-2.98.55c-.574-3.565-2.214-6.451-2.214-6.451zM526.771 280.119c-.013.048-1.439 5.524-1.083 6.623-.025.007-1.3.33-1.35 0a17.3 17.3 0 0 1-.287-2.994c.107-1.418.395-2.785.84-4.078z" opacity=".96"/><path fill="#fff" fill-rule="evenodd" d="M539.974 252.623c-.818.013-1.474.627-1.474 1.38v4.44c0 .762.672 1.38 1.5 1.38s1.5-.618 1.5-1.38v-4.44c0-.771-.687-1.393-1.526-1.38" clip-rule="evenodd" opacity=".96"/></g><defs><linearGradient id="b" x1="60" x2="1020" y1="378.569" y2="378.569" gradientUnits="userSpaceOnUse"><stop stop-color="#C1C5C7"/><stop offset="1" stop-color="#9CA1A7"/></linearGradient><linearGradient id="c" x1="450.156" x2="450.156" y1="335.68" y2="366.002" gradientUnits="userSpaceOnUse"><stop stop-opacity=".01"/><stop offset="1" stop-opacity=".08"/></linearGradient><linearGradient id="d" x1="190.187" x2="190.187" y1="247.94" y2="366.002" gradientUnits="userSpaceOnUse"><stop stop-opacity=".01"/><stop offset="1" stop-opacity=".08"/></linearGradient><linearGradient id="e" x1="60" x2="60" y1="204.002" y2="366.002" gradientUnits="userSpaceOnUse"><stop stop-color="#E9E9E8"/><stop offset="1" stop-color="#E0E2E5"/></linearGradient><linearGradient id="f" x1="528.309" x2="578.392" y1="310.044" y2="310.044" gradientUnits="userSpaceOnUse"><stop stop-color="#4F5A6A"/><stop offset="1" stop-color="#555858"/></linearGradient><linearGradient id="g" x1="496.5" x2="496.5" y1="241.502" y2="328.502" gradientUnits="userSpaceOnUse"><stop stop-color="#D9D9DD"/><stop offset="1" stop-color="#C7C9CE"/></linearGradient><linearGradient id="h" x1="524.004" x2="524.004" y1="268.801" y2="301.201" gradientUnits="userSpaceOnUse"><stop stop-color="#767687"/><stop offset="1" stop-color="#626772"/></linearGradient><linearGradient id="i" x1="524.004" x2="524.004" y1="268.801" y2="301.201" gradientUnits="userSpaceOnUse"><stop stop-color="#353A43"/><stop offset="1" stop-color="#353A43"/></linearGradient><clipPath id="a"><path fill="#fff" d="M0 0h1080v576H0z"/></clipPath></defs></svg>