<svg xmlns="http://www.w3.org/2000/svg" width="172" height="92" fill="none" viewBox="0 0 172 92"><g clip-path="url(#a)"><g filter="url(#b)"><path fill="#E0E0E0" fill-rule="evenodd" d="M125.368 92H46.499c-1.404 0-2.544-1.095-2.544-2.445V63.89h83.958v25.666c0 1.35-1.14 2.445-2.545 2.445" clip-rule="evenodd"/></g><path fill="#908E8E" fill-rule="evenodd" d="M84.619 89.428h.19v-.843h-.19zm1.726-.6c-.007-.003-.069-.047-.16-.047-.124 0-.209.097-.209.228 0 .125.083.224.209.224a.3.3 0 0 0 .16-.046v.225a.5.5 0 0 1-.174.03c-.213 0-.4-.165-.4-.433 0-.253.169-.437.4-.437.089 0 .155.023.174.03zm-1.988 0c-.007-.003-.069-.047-.16-.047-.124 0-.208.097-.208.228 0 .125.082.224.208.224a.3.3 0 0 0 .16-.046v.225a.5.5 0 0 1-.172.03c-.215 0-.403-.165-.403-.433 0-.253.17-.437.403-.437.09 0 .156.023.172.03zm2.586-.043c-.112 0-.197.102-.197.222 0 .123.085.222.197.222.115 0 .197-.1.197-.222 0-.12-.082-.222-.197-.222m.403.222c0 .24-.168.437-.401.437-.231 0-.398-.197-.398-.437s.167-.434.398-.434c.233 0 .4.194.4.434m-1.813-.23c-.002 0-.082-.025-.148-.025-.078 0-.12.028-.12.069 0 .05.058.069.09.079l.05.02c.126.044.181.138.181.24 0 .213-.165.284-.311.284-.103 0-.197-.023-.209-.025v-.192c.019.005.099.03.181.03.096 0 .14-.03.14-.079 0-.04-.039-.066-.087-.081-.01-.005-.028-.01-.039-.016-.108-.038-.197-.107-.197-.247 0-.156.108-.264.284-.264a.7.7 0 0 1 .185.029zm-1.951-1.096c0-.059-.046-.105-.097-.105s-.093.046-.093.105v.22c0 .059.04.107.093.107.05 0 .097-.048.097-.107zm.518-.29c0-.057-.043-.106-.096-.106-.05 0-.094.049-.094.105v.511c0 .059.044.108.094.108.053 0 .096-.05.096-.108zm.52-.398c0-.058-.044-.104-.097-.104-.05 0-.094.046-.094.104v1.12c0 .056.044.104.094.104.053 0 .096-.048.096-.105zm.518.397c0-.056-.043-.105-.094-.105s-.096.049-.096.105v.511c0 .059.044.108.096.108.05 0 .094-.05.094-.108zm.52.291c0-.059-.043-.105-.095-.105-.05 0-.094.046-.094.105v.22c0 .059.043.107.094.107s.096-.048.096-.107zm.52-.29c0-.057-.044-.106-.097-.106-.05 0-.093.049-.093.105v.511c0 .059.043.108.094.108s.096-.05.096-.108zm.518-.398c0-.058-.04-.104-.093-.104s-.097.046-.097.104v1.12c0 .056.044.104.097.104.052 0 .093-.048.093-.105zm.521.397c0-.056-.043-.105-.096-.105s-.094.049-.094.105v.511c0 .059.041.108.094.108s.096-.05.096-.108zm.52.291c0-.059-.044-.105-.095-.105s-.096.046-.096.105v.22c0 .059.044.107.096.107.05 0 .094-.048.094-.107z" clip-rule="evenodd"/><path fill="#1A1A1A" fill-rule="evenodd" d="M127.913 63.889H43.955V10.222A2.55 2.55 0 0 1 46.5 7.667h78.869a2.55 2.55 0 0 1 2.545 2.555z" clip-rule="evenodd"/><path fill="url(#c)" fill-rule="evenodd" d="M91.022 5.111C91.022 2.29 88.744 0 85.934 0s-5.088 2.289-5.088 5.111c0 2.823 2.278 5.111 5.088 5.111s5.088-2.288 5.088-5.11" clip-rule="evenodd"/><path fill="#222" fill-rule="evenodd" d="M123.46 56.222H48.408a.64.64 0 0 1-.636-.639V14.694c0-.353.284-.639.636-.639h75.052c.352 0 .636.286.636.64v40.888a.637.637 0 0 1-.636.639" clip-rule="evenodd"/><path fill="url(#d)" fill-rule="evenodd" d="M123.46 56.222H48.408a.64.64 0 0 1-.636-.639V14.694c0-.353.284-.639.636-.639h75.052c.352 0 .636.286.636.64v40.888a.637.637 0 0 1-.636.639" clip-rule="evenodd"/><path fill="#232323" fill-rule="evenodd" d="M89.75 5.111a3.825 3.825 0 0 0-3.817-3.833 3.825 3.825 0 0 0-3.816 3.833 3.825 3.825 0 0 0 3.816 3.834A3.825 3.825 0 0 0 89.75 5.11" clip-rule="evenodd"/><path fill="#494E5C" fill-rule="evenodd" d="M87.525 6.39h-3.18a.957.957 0 0 1-.954-.96v-.638c0-.53.427-.958.954-.958h3.18c.526 0 .954.429.954.958v.639a.957.957 0 0 1-.954.958" clip-rule="evenodd"/><path stroke="#474747" stroke-width=".667" d="M125.368 60.056c0 .706-.57 1.277-1.272 1.277a1.275 1.275 0 0 1-1.272-1.277c0-.707.57-1.278 1.272-1.278s1.272.571 1.272 1.278Z" clip-rule="evenodd"/><path fill="#fff" fill-opacity=".6" fill-rule="evenodd" d="M125.368 88.166c0 .707-.57 1.278-1.272 1.278a1.275 1.275 0 0 1-1.272-1.278c0-.706.57-1.277 1.272-1.277s1.272.57 1.272 1.277" clip-rule="evenodd"/><path stroke="#474747" stroke-width=".667" d="M113.919 61.333h5.088c.702 0 1.272-.57 1.272-1.277s-.57-1.278-1.272-1.278h-5.088c-.703 0-1.273.571-1.273 1.278 0 .706.57 1.277 1.273 1.277Z" clip-rule="evenodd"/></g><defs><linearGradient id="c" x1="81.217" x2="81.217" y1=".37" y2="9.847" gradientUnits="userSpaceOnUse"><stop stop-color="#424242"/><stop offset="1" stop-color="#656565"/></linearGradient><linearGradient id="d" x1="9.609" x2="45.305" y1="35.139" y2="99.751" gradientUnits="userSpaceOnUse"><stop stop-color="#fff" stop-opacity=".24"/><stop offset="1" stop-opacity=".5"/></linearGradient><clipPath id="a"><path fill="#fff" d="M0 0h172v92H0z"/></clipPath><filter id="b" width="83.957" height="28.111" x="43.955" y="63.889" color-interpolation-filters="sRGB" filterUnits="userSpaceOnUse"><feFlood flood-opacity="0" result="BackgroundImageFix"/><feBlend in="SourceGraphic" in2="BackgroundImageFix" result="shape"/><feColorMatrix in="SourceAlpha" result="hardAlpha" values="0 0 0 0 0 0 0 0 0 0 0 0 0 0 0 0 0 0 127 0"/><feOffset dx="1"/><feComposite in2="hardAlpha" k2="-1" k3="1" operator="arithmetic"/><feColorMatrix values="0 0 0 0 0 0 0 0 0 0 0 0 0 0 0 0 0 0 0.08 0"/><feBlend in2="shape" result="effect1_innerShadow_30148_6992"/><feColorMatrix in="SourceAlpha" result="hardAlpha" values="0 0 0 0 0 0 0 0 0 0 0 0 0 0 0 0 0 0 127 0"/><feOffset dx="-1"/><feComposite in2="hardAlpha" k2="-1" k3="1" operator="arithmetic"/><feColorMatrix values="0 0 0 0 0 0 0 0 0 0 0 0 0 0 0 0 0 0 0.04 0"/><feBlend in2="effect1_innerShadow_30148_6992" result="effect2_innerShadow_30148_6992"/></filter></defs></svg>