<svg xmlns="http://www.w3.org/2000/svg" width="1080" height="576" fill="none" viewBox="0 0 1080 576"><g clip-path="url(#a)"><path fill="#E9E9E9" fill-rule="evenodd" d="M467.768 50a2.01 2.01 0 0 1-1.941-1.512L458.223 18h-8.866l-7.604 30.488c-.272 1.064-1.35 1.696-2.428 1.456a2.02 2.02 0 0 1-1.454-2.432L446.242 14h15.096l8.371 33.512a2.02 2.02 0 0 1-1.454 2.432q-.249.058-.487.056" clip-rule="evenodd"/><mask id="c" fill="#fff"><path fill-rule="evenodd" d="M421.838 20a4 4 0 0 0-3.994 4v48c0 2.209 1.789 4 3.994 4h63.9a4 4 0 0 0 3.993-4V24c0-2.207-1.789-4-3.993-4zm63.895 64h-63.9c-6.606 0-11.981-5.384-11.981-12V24c0-6.616 5.375-12 11.981-12h63.9c6.605 0 11.981 5.384 11.981 12v48c0 6.616-5.376 12-11.981 12" clip-rule="evenodd"/></mask><path fill="url(#b)" fill-rule="evenodd" d="M421.838 20a4 4 0 0 0-3.994 4v48c0 2.209 1.789 4 3.994 4h63.9a4 4 0 0 0 3.993-4V24c0-2.207-1.789-4-3.993-4zm63.895 64h-63.9c-6.606 0-11.981-5.384-11.981-12V24c0-6.616 5.375-12 11.981-12h63.9c6.605 0 11.981 5.384 11.981 12v48c0 6.616-5.376 12-11.981 12" clip-rule="evenodd"/><path fill="#EAEAEA" d="M421.838 20v-.5a4.5 4.5 0 0 0-4.494 4.5h1c0-1.932 1.566-3.5 3.494-3.5zm-3.994 4h-.5v48h1V24zm0 48h-.5c0 2.484 2.012 4.5 4.494 4.5v-1a3.5 3.5 0 0 1-3.494-3.5zm3.994 4v.5h63.9v-1h-63.9zm63.9 0v.5a4.5 4.5 0 0 0 4.493-4.5h-1c0 1.933-1.566 3.5-3.493 3.5zm3.993-4h.5V24h-1v48zm0-48h.5c0-2.483-2.012-4.5-4.493-4.5v1a3.5 3.5 0 0 1 3.493 3.5zm-3.993-4v-.5h-63.9v1h63.9zm-.005 64v-.5h-63.9v1h63.9zm-63.9 0v-.5c-6.329 0-11.481-5.16-11.481-11.5h-1c0 6.891 5.598 12.5 12.481 12.5zm-11.981-12h.5V24h-1v48zm0-48h.5c0-6.34 5.152-11.5 11.481-11.5v-1c-6.883 0-12.481 5.609-12.481 12.5zm11.981-12v.5h63.9v-1h-63.9zm63.9 0v.5c6.329 0 11.481 5.16 11.481 11.5h1c0-6.891-5.599-12.5-12.481-12.5zm11.981 12h-.5v48h1V24zm0 48h-.5c0 6.34-5.152 11.5-11.481 11.5v1c6.882 0 12.481-5.609 12.481-12.5z" mask="url(#c)"/><path fill="#E9E9E9" fill-rule="evenodd" d="M643.491 50a2.01 2.01 0 0 1-1.941-1.512L633.946 18h-8.866l-7.605 30.488c-.271 1.064-1.349 1.696-2.428 1.456a2.02 2.02 0 0 1-1.454-2.432L621.964 14h15.097l8.371 33.512a2.02 2.02 0 0 1-1.454 2.432q-.25.058-.487.056" clip-rule="evenodd"/><mask id="e" fill="#fff"><path fill-rule="evenodd" d="M597.572 20a4 4 0 0 0-3.994 4v48c0 2.209 1.79 4 3.994 4h63.9a4 4 0 0 0 3.994-4V24c0-2.207-1.789-4-3.994-4zm63.895 64h-63.9c-6.605 0-11.981-5.384-11.981-12V24c0-6.616 5.376-12 11.981-12h63.9c6.606 0 11.981 5.384 11.981 12v48c0 6.616-5.375 12-11.981 12" clip-rule="evenodd"/></mask><path fill="url(#d)" fill-rule="evenodd" d="M597.572 20a4 4 0 0 0-3.994 4v48c0 2.209 1.79 4 3.994 4h63.9a4 4 0 0 0 3.994-4V24c0-2.207-1.789-4-3.994-4zm63.895 64h-63.9c-6.605 0-11.981-5.384-11.981-12V24c0-6.616 5.376-12 11.981-12h63.9c6.606 0 11.981 5.384 11.981 12v48c0 6.616-5.375 12-11.981 12" clip-rule="evenodd"/><path fill="#EAEAEA" d="M597.572 20v-.5a4.5 4.5 0 0 0-4.494 4.5h1c0-1.932 1.566-3.5 3.494-3.5zm-3.994 4h-.5v48h1V24zm0 48h-.5c0 2.484 2.013 4.5 4.494 4.5v-1a3.5 3.5 0 0 1-3.494-3.5zm3.994 4v.5h63.9v-1h-63.9zm63.9 0v.5a4.5 4.5 0 0 0 4.494-4.5h-1c0 1.933-1.566 3.5-3.494 3.5zm3.994-4h.5V24h-1v48zm0-48h.5c0-2.483-2.012-4.5-4.494-4.5v1a3.5 3.5 0 0 1 3.494 3.5zm-3.994-4v-.5h-63.9v1h63.9zm-.005 64v-.5h-63.9v1h63.9zm-63.9 0v-.5c-6.329 0-11.481-5.16-11.481-11.5h-1c0 6.891 5.599 12.5 12.481 12.5zm-11.981-12h.5V24h-1v48zm0-48h.5c0-6.34 5.152-11.5 11.481-11.5v-1c-6.882 0-12.481 5.609-12.481 12.5zm11.981-12v.5h63.9v-1h-63.9zm63.9 0v.5c6.329 0 11.481 5.16 11.481 11.5h1c0-6.891-5.598-12.5-12.481-12.5zm11.981 12h-.5v48h1V24zm0 48h-.5c0 6.34-5.152 11.5-11.481 11.5v1c6.883 0 12.481-5.609 12.481-12.5z" mask="url(#e)"/><path fill="url(#f)" fill-rule="evenodd" d="M341.967 344v184c0 8.832 7.157 16 15.975 16v8H333.98l-7.988-8V336z" clip-rule="evenodd"/><path fill="url(#g)" fill-rule="evenodd" d="M741.342 344v184c0 8.832-7.157 16-15.975 16v8h23.963l7.987-8V336z" clip-rule="evenodd"/><path fill="url(#h)" fill-rule="evenodd" d="M749.325 308.438v219.559c0 8.84-7.157 16-15.975 16h-383.4c-8.818 0-15.975-7.16-15.975-16V308.438C324.47 313.981 318 324.189 318 335.997v192c0 17.672 14.306 32 31.95 32h383.4c17.644 0 31.95-14.328 31.95-32v-192c0-11.808-6.47-22.016-15.975-27.559" clip-rule="evenodd"/><path fill="#E0E0E0" fill-rule="evenodd" d="M669.445 71.999c0 4.416-3.578 8-7.987 8h-63.9c-4.409 0-7.988-3.584-7.988-8v-48c0-4.416 3.579-8 7.988-8h63.9c4.409 0 7.987 3.584 7.987 8zm-175.722 0c0 4.416-3.579 8-7.988 8h-63.9c-4.409 0-7.987-3.584-7.987-8v-48c0-4.416 3.578-8 7.987-8h63.9c4.409 0 7.988 3.584 7.988 8zM749.325 0h-415.35C325.157 0 318 7.168 318 16v312c0 8.832 7.157 16 15.975 16h415.35c8.818 0 15.975-7.168 15.975-16V16c0-8.832-7.157-16-15.975-16" clip-rule="evenodd"/><path fill="#908E8E" fill-rule="evenodd" d="M533.39 335.9h1.193v-5.278h-1.193zm10.838-3.763c-.043-.016-.431-.288-1.006-.288-.776 0-1.308.608-1.308 1.423 0 .784.517 1.408 1.308 1.408.56 0 .963-.256 1.006-.288v1.408c-.144.064-.561.192-1.092.192-1.337 0-2.516-1.04-2.516-2.72 0-1.583 1.064-2.735 2.516-2.735.56 0 .977.144 1.092.192zm-12.48 0c-.043-.016-.431-.288-1.006-.288-.776 0-1.308.608-1.308 1.423 0 .784.517 1.408 1.308 1.408.56 0 .963-.256 1.006-.288v1.408a2.9 2.9 0 0 1-1.078.192c-1.351 0-2.53-1.04-2.53-2.72 0-1.583 1.064-2.735 2.53-2.735.56 0 .977.144 1.078.192zm16.238-.265c-.704 0-1.236.64-1.236 1.392 0 .767.532 1.391 1.236 1.391.719 0 1.236-.624 1.236-1.391 0-.752-.517-1.392-1.236-1.392m2.526 1.391c0 1.503-1.049 2.735-2.515 2.735-1.452 0-2.501-1.232-2.501-2.735 0-1.504 1.049-2.719 2.501-2.719 1.466 0 2.515 1.215 2.515 2.719m-11.384-1.439c-.015 0-.518-.16-.935-.16-.488 0-.747.176-.747.432 0 .32.359.432.561.496l.316.128c.79.272 1.135.864 1.135 1.504 0 1.327-1.035 1.775-1.954 1.775-.647 0-1.237-.144-1.308-.16v-1.199c.115.032.618.192 1.135.192.604 0 .877-.192.877-.496 0-.256-.245-.416-.546-.512-.058-.032-.173-.064-.245-.096-.675-.24-1.236-.672-1.236-1.552 0-.975.676-1.647 1.782-1.647.575 0 1.122.16 1.165.176zm-12.255-6.864c0-.368-.288-.656-.604-.656-.331 0-.589.288-.589.656v1.375c0 .368.258.672.589.672.316 0 .604-.304.604-.672zm3.257-1.82c0-.352-.273-.656-.604-.656-.316 0-.589.304-.589.656v3.199c0 .368.273.672.589.672.331 0 .604-.304.604-.672zm3.259-2.484c0-.368-.274-.656-.604-.656-.316 0-.589.288-.589.656v7.006c0 .352.273.656.589.656.33 0 .604-.304.604-.656zm3.257 2.484c0-.352-.273-.656-.589-.656-.33 0-.604.304-.604.656v3.199c0 .368.274.672.604.672.316 0 .589-.304.589-.672zm3.27 1.82c0-.368-.273-.656-.604-.656-.316 0-.589.288-.589.656v1.375c0 .368.273.672.589.672.331 0 .604-.304.604-.672zm3.258-1.82c0-.352-.273-.656-.604-.656-.316 0-.589.304-.589.656v3.199c0 .368.273.672.589.672.331 0 .604-.304.604-.672zm3.257-2.484c0-.368-.259-.656-.59-.656s-.603.288-.603.656v7.006c0 .352.273.656.603.656.331 0 .59-.304.59-.656zm3.269 2.484c0-.352-.273-.656-.603-.656-.331 0-.59.304-.59.656v3.199c0 .368.259.672.59.672s.603-.304.603-.672zm3.26 1.82c0-.368-.273-.656-.589-.656-.331 0-.604.288-.604.656v1.375c0 .368.273.672.604.672.316 0 .589-.304.589-.672z" clip-rule="evenodd"/><path fill="url(#i)" fill-rule="evenodd" d="M349.945 576v-8l15.975-16h23.963v8l-15.975 16z" clip-rule="evenodd"/><path fill="#D3D3D3" fill-rule="evenodd" d="M376.248 565.656a8 8 0 0 1-5.647 2.344h-20.656v8h20.656a8 8 0 0 0 5.647-2.344L389.883 560v-8z" clip-rule="evenodd"/><path fill="url(#j)" fill-rule="evenodd" d="M733.348 576v-8l-15.975-16H693.41v8l15.975 16z" clip-rule="evenodd"/><path fill="#D3D3D3" fill-rule="evenodd" d="M707.045 565.656a8 8 0 0 0 5.647 2.344h20.656v8h-20.656a8 8 0 0 1-5.647-2.344L693.41 560v-8z" clip-rule="evenodd"/><path fill="#222" fill-rule="evenodd" d="M745.329 311.998H337.966a4 4 0 0 1-3.993-4v-216c0-2.208 1.789-4 3.993-4h407.363a4 4 0 0 1 3.994 4v216c0 2.208-1.79 4-3.994 4" clip-rule="evenodd"/><path fill="url(#k)" fill-rule="evenodd" d="M745.329 311.998H337.966a4 4 0 0 1-3.993-4v-216c0-2.208 1.789-4 3.993-4h407.363a4 4 0 0 1 3.994 4v216c0 2.208-1.79 4-3.994 4" clip-rule="evenodd"/><path fill="#232323" fill-rule="evenodd" d="M469.762 48c0-8.832-7.156-16-15.975-16s-15.975 7.168-15.975 16 7.157 16 15.975 16c8.819 0 15.975-7.168 15.975-16" clip-rule="evenodd"/><path fill="#373B47" fill-rule="evenodd" d="M461.78 48c0-4.416-3.579-8-7.988-8s-7.987 3.584-7.987 8 3.578 8 7.987 8 7.988-3.584 7.988-8" clip-rule="evenodd"/><path fill="#232323" fill-rule="evenodd" d="M645.485 48c0-8.832-7.157-16-15.975-16s-15.975 7.168-15.975 16 7.157 16 15.975 16 15.975-7.168 15.975-16" clip-rule="evenodd"/><path fill="#373B47" fill-rule="evenodd" d="M637.502 48c0-4.416-3.578-8-7.987-8s-7.988 3.584-7.988 8 3.579 8 7.988 8 7.987-3.584 7.987-8" clip-rule="evenodd"/></g><defs><linearGradient id="b" x1="409.852" x2="409.852" y1="12" y2="84" gradientUnits="userSpaceOnUse"><stop stop-color="#EFEFEF"/><stop offset=".506" stop-color="#fff"/><stop offset="1" stop-color="#EFEFEF"/></linearGradient><linearGradient id="d" x1="585.586" x2="585.586" y1="12" y2="84" gradientUnits="userSpaceOnUse"><stop stop-color="#EFEFEF"/><stop offset=".506" stop-color="#fff"/><stop offset="1" stop-color="#EFEFEF"/></linearGradient><linearGradient id="f" x1="326.003" x2="326.003" y1="336" y2="551.854" gradientUnits="userSpaceOnUse"><stop stop-color="#B1B1B1"/><stop offset=".278" stop-color="#C9C9C9"/><stop offset=".514" stop-color="#D6D6D6"/><stop offset=".744" stop-color="#C9C9C9"/><stop offset=".954" stop-color="#ECECEC"/><stop offset="1" stop-color="#B1B1B1"/></linearGradient><linearGradient id="g" x1="725.378" x2="725.378" y1="336" y2="551.854" gradientUnits="userSpaceOnUse"><stop stop-color="#B1B1B1"/><stop offset=".278" stop-color="#C9C9C9"/><stop offset=".514" stop-color="#D6D6D6"/><stop offset=".744" stop-color="#C9C9C9"/><stop offset=".954" stop-color="#ECECEC"/><stop offset="1" stop-color="#B1B1B1"/></linearGradient><linearGradient id="h" x1="318.061" x2="318.061" y1="308.438" y2="559.929" gradientUnits="userSpaceOnUse"><stop stop-color="#CFCFCF"/><stop offset=".47" stop-color="#F1F1F1"/><stop offset="1" stop-color="#D9D9D9"/></linearGradient><linearGradient id="k" x1="126.298" x2="313.468" y1="199.998" y2="547.056" gradientUnits="userSpaceOnUse"><stop stop-color="#fff" stop-opacity=".24"/><stop offset="1" stop-opacity=".5"/></linearGradient><radialGradient id="i" cx="0" cy="0" r="1" gradientTransform="rotate(24.009 -1226.437 1182.47)scale(29.4925 22.914)" gradientUnits="userSpaceOnUse"><stop stop-color="#9C9C9C"/><stop offset=".528" stop-color="#E8E8E8"/><stop offset="1" stop-color="#E8E8E8"/></radialGradient><radialGradient id="j" cx="0" cy="0" r="1" gradientTransform="matrix(26.94081 12 -9.32332 20.93148 718.481 601.324)" gradientUnits="userSpaceOnUse"><stop stop-color="#9C9C9C"/><stop offset=".528" stop-color="#E8E8E8"/><stop offset="1" stop-color="#E8E8E8"/></radialGradient><clipPath id="a"><path fill="#fff" d="M0 0h1080v576H0z"/></clipPath></defs></svg>