<svg xmlns="http://www.w3.org/2000/svg" width="1080" height="576" fill="none" viewBox="0 0 1080 576"><g clip-path="url(#a)"><path fill="#222" fill-rule="evenodd" d="M683.996 569.98h-8v4.516c0 .831.896 1.505 2 1.505h4c1.104 0 2-.674 2-1.505zM404 569.98h-8v4.516c0 .831.896 1.505 2 1.505h4c1.104 0 2-.674 2-1.505zM659.996 513.785h-8v4.516c0 .831.896 1.505 2 1.505h4c1.104 0 2-.674 2-1.505zM428 513.785h-8v4.516c0 .831.896 1.505 2 1.505h4c1.104 0 2-.674 2-1.505z" clip-rule="evenodd"/><path fill="#D5D5D5" fill-rule="evenodd" d="M396 569.979h8v-8.028h-8z" clip-rule="evenodd"/><g filter="url(#b)"><path fill="#000" fill-opacity=".01" d="M523.066 525.985 660 503.107v1.784L538.992 529.3l138.037 27.485v2.089l-148.537-25.062v-.298l-130.88 26.668h-13.751l13.751-2.165 117.964-28.658-103.578-28.421z"/></g><path fill="#D4D4D4" fill-rule="evenodd" d="m532 521.812-112-16.056v8.028l112 24.083z" clip-rule="evenodd"/><path fill="#D6D6D6" fill-rule="evenodd" d="M675.996 569.977h8v-8.028h-8z" clip-rule="evenodd"/><g filter="url(#c)"><path fill="#FDFDFD" fill-rule="evenodd" d="m660.004 505.758-112 16.056v16.055l112-24.083z" clip-rule="evenodd"/></g><path fill="url(#d)" d="M531.996 289.002h24v240.836h-24z"/><path fill="url(#e)" fill-rule="evenodd" d="m540.004 521.812-136 40.429v8.028l136-32.111z" clip-rule="evenodd"/><path fill="url(#f)" fill-rule="evenodd" d="m539.996 521.812 136 40.429v8.028l-136-32.111z" clip-rule="evenodd"/><path fill="url(#g)" fill-rule="evenodd" d="m396 561.952 136-40.14h8l-136 40.14z" clip-rule="evenodd"/><path fill="url(#h)" fill-rule="evenodd" d="m684 561.952-136-40.14h-8l136 40.14z" clip-rule="evenodd"/><path fill="#E0E0E0" fill-rule="evenodd" d="M748 289.003H332c-4.416 0-8-3.588-8-8.027V8.028C324 3.588 327.584 0 332 0h416c4.416 0 8 3.588 8 8.028v272.948c0 4.439-3.584 8.027-8 8.027" clip-rule="evenodd"/><path fill="#908E8E" fill-rule="evenodd" d="M535.852 280.924h.597v-2.649h-.597zm5.427-1.887c-.021-.008-.216-.145-.504-.145-.388 0-.655.305-.655.715 0 .393.26.706.655.706a.95.95 0 0 0 .504-.144v.706a1.5 1.5 0 0 1-.547.096c-.669 0-1.259-.522-1.259-1.364 0-.795.532-1.373 1.259-1.373.281 0 .49.073.547.097zm-6.246 0c-.021-.008-.216-.145-.504-.145-.388 0-.655.305-.655.715 0 .393.259.706.655.706a.95.95 0 0 0 .504-.144v.706a1.4 1.4 0 0 1-.54.096c-.676 0-1.266-.522-1.266-1.364 0-.795.532-1.373 1.266-1.373.281 0 .49.073.54.097zm8.141-.135c-.353 0-.619.321-.619.699 0 .385.266.698.619.698.359 0 .619-.313.619-.698 0-.378-.26-.699-.619-.699m1.26.701c0 .754-.526 1.372-1.26 1.372-.727 0-1.252-.618-1.252-1.372s.525-1.365 1.252-1.365c.734 0 1.26.61 1.26 1.365m-5.701-.722c-.007 0-.259-.081-.467-.081-.245 0-.375.089-.375.217 0 .16.18.217.281.249l.158.064c.396.136.569.433.569.754 0 .666-.518.891-.979.891-.324 0-.619-.072-.655-.08v-.602c.058.016.31.096.569.096.302 0 .439-.096.439-.248 0-.129-.123-.209-.274-.257-.029-.016-.086-.032-.122-.048-.338-.121-.619-.338-.619-.779 0-.489.338-.827.892-.827.288 0 .562.081.583.089zm-6.139-3.445c0-.184-.144-.329-.303-.329-.165 0-.295.145-.295.329v.691c0 .184.13.337.295.337.159 0 .303-.153.303-.337zm1.628-.918c0-.176-.136-.329-.302-.329-.158 0-.295.153-.295.329v1.606c0 .184.137.337.295.337.166 0 .302-.153.302-.337zm1.629-1.242c0-.184-.136-.329-.302-.329-.158 0-.295.145-.295.329v3.515c0 .177.137.33.295.33.166 0 .302-.153.302-.33zm1.641 1.242c0-.176-.137-.329-.295-.329-.166 0-.302.153-.302.329v1.606c0 .184.136.337.302.337.158 0 .295-.153.295-.337zm1.629.918c0-.184-.137-.329-.302-.329-.159 0-.296.145-.296.329v.691c0 .184.137.337.296.337.165 0 .302-.153.302-.337zm1.629-.918c0-.176-.137-.329-.303-.329-.158 0-.295.153-.295.329v1.606c0 .184.137.337.295.337.166 0 .303-.153.303-.337zm1.64-1.242c0-.184-.129-.329-.295-.329s-.302.145-.302.329v3.515c0 .177.137.33.302.33.166 0 .295-.153.295-.33zm1.641 1.242c0-.176-.137-.329-.302-.329-.166 0-.295.153-.295.329v1.606c0 .184.129.337.295.337s.302-.153.302-.337zm1.629.918c0-.184-.137-.329-.295-.329-.166 0-.303.145-.303.329v.691c0 .184.137.337.303.337.158 0 .295-.153.295-.337z" clip-rule="evenodd"/><path fill="#222" fill-rule="evenodd" d="M743.019 267H336.981c-2.198 0-3.981-1.824-3.981-4.071V43.071c0-2.247 1.783-4.071 3.981-4.071h406.038c2.198 0 3.981 1.824 3.981 4.071V262.93c0 2.247-1.783 4.071-3.981 4.071" clip-rule="evenodd"/><path fill="url(#i)" fill-rule="evenodd" d="M743.019 267H336.981c-2.198 0-3.981-1.824-3.981-4.071V43.071c0-2.247 1.783-4.071 3.981-4.071h406.038c2.198 0 3.981 1.824 3.981 4.071V262.93c0 2.247-1.783 4.071-3.981 4.071" clip-rule="evenodd"/><path fill="#232323" fill-rule="evenodd" d="M547.5 22.5c0-4.148-3.36-7.5-7.5-7.5s-7.5 3.352-7.5 7.5 3.36 7.5 7.5 7.5 7.5-3.352 7.5-7.5" clip-rule="evenodd"/><path fill="#555B6C" fill-rule="evenodd" d="M544.5 22.5c0-2.484-2.016-4.5-4.5-4.5a4.5 4.5 0 0 0-4.5 4.5c0 2.484 2.016 4.5 4.5 4.5s4.5-2.016 4.5-4.5" clip-rule="evenodd"/></g><defs><linearGradient id="d" x1="532.681" x2="555.996" y1="526.401" y2="526.401" gradientUnits="userSpaceOnUse"><stop stop-color="#C6C6C6"/><stop offset=".26" stop-color="#EAEAEA"/><stop offset=".289" stop-color="#fff"/><stop offset=".333" stop-color="#E9E9E9"/><stop offset=".596" stop-color="#B9B9B9"/><stop offset=".823" stop-color="#fff"/><stop offset="1" stop-color="#fff"/></linearGradient><linearGradient id="e" x1="484.11" x2="448.504" y1="506.107" y2="588.789" gradientUnits="userSpaceOnUse"><stop stop-color="#DCDBDB"/><stop offset=".165" stop-color="#F4F4F4"/><stop offset="1" stop-color="#fff"/></linearGradient><linearGradient id="f" x1="598.342" x2="633.245" y1="507.631" y2="588.679" gradientUnits="userSpaceOnUse"><stop stop-color="#C2C1C1"/><stop offset=".165" stop-color="#D6D6D6"/><stop offset="1" stop-color="#DFDFDF"/></linearGradient><linearGradient id="g" x1="480.429" x2="455.702" y1="508.672" y2="582.066" gradientUnits="userSpaceOnUse"><stop stop-color="#C2C2C2"/><stop offset=".165" stop-color="#E6E6E6"/><stop offset="1" stop-color="#EFEFEF"/></linearGradient><linearGradient id="h" x1="743.571" x2="728.764" y1="548.811" y2="484.61" gradientUnits="userSpaceOnUse"><stop stop-color="#EFEFEF"/><stop offset=".882" stop-color="#E6E6E6"/><stop offset="1" stop-color="#C2C2C2"/></linearGradient><linearGradient id="i" x1="126" x2="318.688" y1="153" y2="502.882" gradientUnits="userSpaceOnUse"><stop stop-color="#fff" stop-opacity=".24"/><stop offset="1" stop-opacity=".5"/></linearGradient><filter id="b" width="295.168" height="63.244" x="382.861" y="500.938" color-interpolation-filters="sRGB" filterUnits="userSpaceOnUse"><feFlood flood-opacity="0" result="BackgroundImageFix"/><feColorMatrix in="SourceAlpha" result="hardAlpha" values="0 0 0 0 0 0 0 0 0 0 0 0 0 0 0 0 0 0 127 0"/><feOffset dy="3"/><feGaussianBlur stdDeviation=".5"/><feColorMatrix values="0 0 0 0 0 0 0 0 0 0 0 0 0 0 0 0 0 0 0.4 0"/><feBlend in2="BackgroundImageFix" result="effect1_dropShadow_23746_2128"/><feBlend in="SourceGraphic" in2="effect1_dropShadow_23746_2128" result="shape"/></filter><filter id="c" width="112" height="32.111" x="548.004" y="505.758" color-interpolation-filters="sRGB" filterUnits="userSpaceOnUse"><feFlood flood-opacity="0" result="BackgroundImageFix"/><feBlend in="SourceGraphic" in2="BackgroundImageFix" result="shape"/><feColorMatrix in="SourceAlpha" result="hardAlpha" values="0 0 0 0 0 0 0 0 0 0 0 0 0 0 0 0 0 0 127 0"/><feOffset/><feGaussianBlur stdDeviation=".5"/><feComposite in2="hardAlpha" k2="-1" k3="1" operator="arithmetic"/><feColorMatrix values="0 0 0 0 0 0 0 0 0 0 0 0 0 0 0 0 0 0 0.08 0"/><feBlend in2="shape" result="effect1_innerShadow_23746_2128"/></filter><clipPath id="a"><path fill="#fff" d="M0 0h1080v576H0z"/></clipPath></defs></svg>