<svg xmlns="http://www.w3.org/2000/svg" width="172" height="92" fill="none" viewBox="0 0 172 92"><g clip-path="url(#a)"><path fill="url(#b)" d="M47.777 4.792h114.667v67.083H47.777z"/><path fill="url(#c)" fill-rule="evenodd" d="m159.021 8.232 3.423-3.44v67.083l-3.423-3.44z" clip-rule="evenodd" opacity=".2"/><path fill="url(#d)" fill-rule="evenodd" d="m51.201 8.232-3.423-3.44v67.083l3.423-3.44z" clip-rule="evenodd" opacity=".6"/><path stroke="#000" stroke-opacity=".24" stroke-width=".527" d="M48.041 5.055h114.14v66.556H48.041z"/><path stroke="url(#e)" stroke-width=".527" d="M48.041 5.055h114.14v66.556H48.041z"/><path fill="#222" d="M51.201 8.232h107.821v60.203H51.201z"/><path fill="url(#f)" d="M51.201 8.232h107.821v60.203H51.201z"/><path stroke="#fff" stroke-opacity=".24" stroke-width=".557" d="M51.201 8.232h107.821v60.203H51.201z"/><path fill="url(#g)" d="M47.777 4.792h114.667v67.083H47.777z"/><g filter="url(#h)"><ellipse cx="46.522" cy="86.957" fill="#B9BABF" rx="37.923" ry=".157"/></g><g filter="url(#i)"><rect width="61.452" height="42.736" x="15.672" y="43.125" fill="url(#j)" rx="2.483"/></g><g filter="url(#k)"><rect width="60.827" height="42.109" x="15.984" y="43.438" fill="#000" rx="2.191"/></g><rect width="60.285" height="41.567" x="16.255" y="43.709" stroke="#000" stroke-width=".542" rx="1.92"/><g filter="url(#l)"><path fill="url(#m)" d="m16.32 83.167 57.457 1.942h-54.76a2.845 2.845 0 0 1-2.697-1.942"/></g><ellipse cx="46.397" cy="44.817" fill="#070B0C" rx=".25" ry=".251"/><circle cx="46.394" cy="44.879" r=".062" fill="#232428"/><g opacity=".6"><rect width="60.827" height="42.109" x="15.672" y="43.125" fill="#222" rx="2.191"/><rect width="60.827" height="42.109" x="15.672" y="43.125" fill="url(#n)" rx="2.191"/></g><rect width="57.76" height="36.219" x="17.486" y="46.007" fill="#222" rx=".073"/><rect width="57.76" height="36.219" x="17.486" y="46.007" fill="url(#o)" rx=".073"/><mask id="p" width="59" height="37" x="17" y="46" maskUnits="userSpaceOnUse" style="mask-type:luminance"><rect width="57.76" height="36.219" x="17.486" y="46.007" fill="#fff" rx=".073"/><rect width="57.76" height="36.219" x="17.486" y="46.007" stroke="#fff" rx=".073"/></mask><path fill="url(#q)" d="M84.194 85.798c-.022.014-2.324 1.441-15.858 1.41-13.547-.031-21.87 0-21.938 0 0 0-8.338-.031-21.94 0S8.6 85.798 8.6 85.798z"/><mask id="r" fill="#fff"><ellipse cx="58.194" cy="86.518" rx=".469" ry=".094"/></mask><ellipse cx="58.194" cy="86.518" fill="#E4E5E9" rx=".469" ry=".094"/><path fill="#D7D8DB" d="M58.663 86.518h-.541c0-.19.098-.314.153-.368a.5.5 0 0 1 .12-.085c.034-.016.05-.016.024-.011-.04.008-.12.017-.225.017v1.083c.154 0 .309-.012.438-.038a1 1 0 0 0 .226-.072.6.6 0 0 0 .175-.12.57.57 0 0 0 .172-.406zm-.47.094v-.541c-.104 0-.184-.01-.225-.017-.024-.005-.01-.005.025.011a.5.5 0 0 1 .12.085.52.52 0 0 1 .153.368h-1.083c0 .204.105.34.172.406a.6.6 0 0 0 .175.12 1 1 0 0 0 .226.072c.13.026.284.038.438.038zm-.468-.094h.541c0 .19-.098.315-.153.368a.5.5 0 0 1-.12.085c-.034.017-.05.017-.025.012.04-.008.12-.017.226-.017v-1.083a2.3 2.3 0 0 0-.438.038 1 1 0 0 0-.226.071.6.6 0 0 0-.175.12.57.57 0 0 0-.172.406zm.469-.094v.542c.105 0 .185.009.225.017.025.005.01.005-.024-.012a.5.5 0 0 1-.12-.085.52.52 0 0 1-.153-.368h1.083a.57.57 0 0 0-.172-.406.6.6 0 0 0-.175-.12 1 1 0 0 0-.226-.071 2.3 2.3 0 0 0-.438-.038z" mask="url(#r)"/><ellipse cx="58.193" cy="86.533" fill="#C5C7CD" rx=".094" ry=".046"/><mask id="s" fill="#fff"><ellipse cx="34.665" cy="86.518" rx=".469" ry=".094"/></mask><ellipse cx="34.665" cy="86.518" fill="#E4E5E9" rx=".469" ry=".094"/><path fill="#D7D8DB" d="M35.134 86.518h-.542c0-.19.099-.314.154-.368a.5.5 0 0 1 .12-.085c.034-.016.049-.016.024-.011-.04.008-.12.017-.225.017v1.083c.154 0 .309-.012.438-.038a1 1 0 0 0 .226-.072.6.6 0 0 0 .174-.12.57.57 0 0 0 .173-.406zm-.47.094v-.541c-.104 0-.184-.01-.225-.017-.025-.005-.01-.005.025.011a.5.5 0 0 1 .12.085.52.52 0 0 1 .153.368h-1.083c0 .204.105.34.172.406a.6.6 0 0 0 .174.12 1 1 0 0 0 .226.072c.13.026.285.038.439.038zm-.469-.094h.542c0 .19-.099.315-.153.368a.5.5 0 0 1-.12.085c-.034.017-.05.017-.025.012.04-.008.12-.017.226-.017v-1.083a2.3 2.3 0 0 0-.439.038 1 1 0 0 0-.226.071.6.6 0 0 0-.174.12.57.57 0 0 0-.172.406zm.47-.094v.542c.105 0 .185.009.225.017.025.005.01.005-.025-.012a.5.5 0 0 1-.12-.085.52.52 0 0 1-.153-.368h1.084a.57.57 0 0 0-.173-.406.6.6 0 0 0-.174-.12 1 1 0 0 0-.226-.071 2.3 2.3 0 0 0-.438-.038z" mask="url(#s)"/><ellipse cx="34.664" cy="86.533" fill="#C5C7CD" rx=".094" ry=".046"/><path fill="url(#t)" fill-rule="evenodd" d="M8.6 84.493c0-.04.032-.074.073-.074h31.553l.188.063h12.053l.25-.063h31.405c.04 0 .073.033.073.074v1.305H8.6z" clip-rule="evenodd"/><g filter="url(#u)"><path fill="url(#v)" fill-rule="evenodd" d="M51.715 85.36H41.203c-.532 0-.968-.416-1-.94l.25.062h12.012l.25-.063c-.032.525-.467.94-1 .94" clip-rule="evenodd"/></g><path fill="#fff" fill-opacity=".24" d="M105.695 45.634h-1.062V35.329h-3.781v-.969h8.625v.97h-3.782zm0 19h-1.062l-4.219-11.274h1.125l3.571 9.875h.101l3.57-9.875h1.125z"/></g><defs><linearGradient id="b" x1="47.777" x2="156.585" y1="36.619" y2="36.619" gradientUnits="userSpaceOnUse"><stop stop-color="#9A9EA1"/><stop offset="1" stop-color="#D3D3D3"/></linearGradient><linearGradient id="c" x1="159.021" x2="159.021" y1="4.792" y2="71.875" gradientUnits="userSpaceOnUse"><stop stop-color="#666"/><stop offset=".294" stop-color="#A0A0A2"/><stop offset="1" stop-color="#696969"/></linearGradient><linearGradient id="d" x1="49.49" x2="49.49" y1="4.792" y2="71.875" gradientUnits="userSpaceOnUse"><stop stop-color="#AAABAD"/><stop offset=".157" stop-color="#DCDCDC"/><stop offset="1" stop-color="#AAABAD"/></linearGradient><linearGradient id="e" x1="-9.556" x2="48.921" y1="38.333" y2="138.289" gradientUnits="userSpaceOnUse"><stop stop-color="#fff" stop-opacity=".4"/><stop offset=".542" stop-color="#fff" stop-opacity=".01"/><stop offset="1" stop-color="#fff" stop-opacity=".4"/></linearGradient><linearGradient id="f" x1="-2.709" x2="48.542" y1="38.333" y2="130.123" gradientUnits="userSpaceOnUse"><stop stop-color="#fff" stop-opacity=".16"/><stop offset="1" stop-opacity=".5"/></linearGradient><linearGradient id="g" x1="-9.556" x2="48.921" y1="38.333" y2="138.289" gradientUnits="userSpaceOnUse"><stop stop-color="#fff" stop-opacity=".08"/><stop offset="1" stop-color="#fff" stop-opacity=".01"/></linearGradient><linearGradient id="j" x1="16.794" x2="16.794" y1="43.125" y2="84.3" gradientUnits="userSpaceOnUse"><stop stop-color="#4B4D4C"/><stop offset="1" stop-color="#636466"/></linearGradient><linearGradient id="m" x1="26.45" x2="26.45" y1="83.851" y2="85.109" gradientUnits="userSpaceOnUse"><stop stop-color="#1D1D1D"/><stop offset="1" stop-color="#0D0D0D"/></linearGradient><linearGradient id="n" x1="-14.741" x2="24.672" y1="64.18" y2="121.112" gradientUnits="userSpaceOnUse"><stop stop-color="#fff" stop-opacity=".24"/><stop offset="1" stop-opacity=".5"/></linearGradient><linearGradient id="o" x1="-11.394" x2="21.209" y1="64.117" y2="116.11" gradientUnits="userSpaceOnUse"><stop stop-color="#fff" stop-opacity=".24"/><stop offset="1" stop-opacity=".5"/></linearGradient><linearGradient id="q" x1="84.194" x2="84.194" y1="87.209" y2="85.798" gradientUnits="userSpaceOnUse"><stop stop-color="#F6F6F6"/><stop offset=".147" stop-color="#F8F8F9"/><stop offset=".445" stop-color="#E7E7E8"/><stop offset=".826" stop-color="#C6C7CD"/><stop offset="1" stop-color="#B8B9BD"/></linearGradient><linearGradient id="t" x1="8.6" x2="84.195" y1="85.798" y2="85.798" gradientUnits="userSpaceOnUse"><stop stop-color="#27282C"/><stop offset=".008" stop-color="#ABACB0"/><stop offset=".025" stop-color="#3E3F43"/><stop offset=".132" stop-color="#88898D"/><stop offset=".506" stop-color="#A2A3A7"/><stop offset=".876" stop-color="#88898D"/><stop offset=".975" stop-color="#3E3F43"/><stop offset=".992" stop-color="#ABACB0"/><stop offset="1" stop-color="#27282C"/></linearGradient><linearGradient id="v" x1="40.203" x2="52.715" y1="85.359" y2="85.359" gradientUnits="userSpaceOnUse"><stop stop-color="#4E5457"/><stop offset=".151" stop-color="#83888B"/><stop offset=".506" stop-color="#9D9FA4"/><stop offset=".85" stop-color="#83888B"/><stop offset="1" stop-color="#4E5457"/></linearGradient><filter id="h" width="77.751" height="2.219" x="7.647" y="85.848" color-interpolation-filters="sRGB" filterUnits="userSpaceOnUse"><feFlood flood-opacity="0" result="BackgroundImageFix"/><feBlend in="SourceGraphic" in2="BackgroundImageFix" result="shape"/><feGaussianBlur result="effect1_foregroundBlur_30148_3576" stdDeviation=".476"/></filter><filter id="i" width="61.453" height="42.735" x="15.672" y="43.125" color-interpolation-filters="sRGB" filterUnits="userSpaceOnUse"><feFlood flood-opacity="0" result="BackgroundImageFix"/><feBlend in="SourceGraphic" in2="BackgroundImageFix" result="shape"/><feColorMatrix in="SourceAlpha" result="hardAlpha" values="0 0 0 0 0 0 0 0 0 0 0 0 0 0 0 0 0 0 127 0"/><feOffset/><feGaussianBlur stdDeviation=".5"/><feComposite in2="hardAlpha" k2="-1" k3="1" operator="arithmetic"/><feColorMatrix values="0 0 0 0 0.257004 0 0 0 0 0.261685 0 0 0 0 0.271046 0 0 0 1 0"/><feBlend in2="shape" result="effect1_innerShadow_30148_3576"/></filter><filter id="k" width="60.826" height="42.109" x="15.984" y="43.438" color-interpolation-filters="sRGB" filterUnits="userSpaceOnUse"><feFlood flood-opacity="0" result="BackgroundImageFix"/><feBlend in="SourceGraphic" in2="BackgroundImageFix" result="shape"/><feColorMatrix in="SourceAlpha" result="hardAlpha" values="0 0 0 0 0 0 0 0 0 0 0 0 0 0 0 0 0 0 127 0"/><feOffset/><feGaussianBlur stdDeviation=".5"/><feComposite in2="hardAlpha" k2="-1" k3="1" operator="arithmetic"/><feColorMatrix values="0 0 0 0 0.708679 0 0 0 0 0.708679 0 0 0 0 0.708679 0 0 0 1 0"/><feBlend in2="shape" result="effect1_innerShadow_30148_3576"/></filter><filter id="l" width="57.457" height="1.942" x="16.32" y="83.166" color-interpolation-filters="sRGB" filterUnits="userSpaceOnUse"><feFlood flood-opacity="0" result="BackgroundImageFix"/><feBlend in="SourceGraphic" in2="BackgroundImageFix" result="shape"/><feColorMatrix in="SourceAlpha" result="hardAlpha" values="0 0 0 0 0 0 0 0 0 0 0 0 0 0 0 0 0 0 127 0"/><feOffset/><feGaussianBlur stdDeviation=".5"/><feComposite in2="hardAlpha" k2="-1" k3="1" operator="arithmetic"/><feColorMatrix values="0 0 0 0 1 0 0 0 0 1 0 0 0 0 1 0 0 0 0.03 0"/><feBlend in2="shape" result="effect1_innerShadow_30148_3576"/></filter><filter id="u" width="14.512" height="2.94" x="39.203" y="83.419" color-interpolation-filters="sRGB" filterUnits="userSpaceOnUse"><feFlood flood-opacity="0" result="BackgroundImageFix"/><feColorMatrix in="SourceAlpha" result="hardAlpha" values="0 0 0 0 0 0 0 0 0 0 0 0 0 0 0 0 0 0 127 0"/><feOffset/><feGaussianBlur stdDeviation=".5"/><feColorMatrix values="0 0 0 0 1 0 0 0 0 1 0 0 0 0 1 0 0 0 0.242584 0"/><feBlend in2="BackgroundImageFix" result="effect1_dropShadow_30148_3576"/><feBlend in="SourceGraphic" in2="effect1_dropShadow_30148_3576" result="shape"/><feColorMatrix in="SourceAlpha" result="hardAlpha" values="0 0 0 0 0 0 0 0 0 0 0 0 0 0 0 0 0 0 127 0"/><feOffset/><feGaussianBlur stdDeviation=".5"/><feComposite in2="hardAlpha" k2="-1" k3="1" operator="arithmetic"/><feColorMatrix values="0 0 0 0 0 0 0 0 0 0 0 0 0 0 0 0 0 0 0.434471 0"/><feBlend in2="shape" result="effect2_innerShadow_30148_3576"/></filter><clipPath id="a"><path fill="#fff" d="M0 0h172v92H0z"/></clipPath></defs></svg>