<svg xmlns="http://www.w3.org/2000/svg" width="172" height="92" fill="none" viewBox="0 0 172 92"><g clip-path="url(#a)"><path fill="url(#b)" fill-rule="evenodd" d="M54.462 54.944v29.39a2.55 2.55 0 0 0 2.544 2.555v1.278H53.19l-1.272-1.278V53.667z" clip-rule="evenodd"/><path fill="url(#c)" fill-rule="evenodd" d="M117.499 54.944v29.39a2.55 2.55 0 0 1-2.544 2.555v1.278h3.816l1.272-1.278V53.667z" clip-rule="evenodd"/><path fill="#E9E9E9" fill-rule="evenodd" d="M88.49 7.986a.32.32 0 0 1-.31-.242l-1.21-4.87h-1.413l-1.21 4.87a.323.323 0 0 1-.387.233.323.323 0 0 1-.232-.389l1.333-5.352h2.404L88.8 7.588a.323.323 0 0 1-.31.398" clip-rule="evenodd"/><mask id="e" fill="#fff"><path fill-rule="evenodd" d="M81.176 3.194a.64.64 0 0 0-.636.64V11.5c0 .352.285.639.636.639h10.177a.64.64 0 0 0 .636-.64V3.834a.64.64 0 0 0-.636-.639zm10.176 10.223H81.176a1.915 1.915 0 0 1-1.908-1.917V3.833c0-1.057.856-1.916 1.908-1.916h10.176c1.052 0 1.908.86 1.908 1.916V11.5a1.915 1.915 0 0 1-1.908 1.916" clip-rule="evenodd"/></mask><path fill="url(#d)" fill-rule="evenodd" d="M81.176 3.194a.64.64 0 0 0-.636.64V11.5c0 .352.285.639.636.639h10.177a.64.64 0 0 0 .636-.64V3.834a.64.64 0 0 0-.636-.639zm10.176 10.223H81.176a1.915 1.915 0 0 1-1.908-1.917V3.833c0-1.057.856-1.916 1.908-1.916h10.176c1.052 0 1.908.86 1.908 1.916V11.5a1.915 1.915 0 0 1-1.908 1.916" clip-rule="evenodd"/><path fill="#EAEAEA" d="M81.176 3.194v-.5c-.629 0-1.136.512-1.136 1.14h1c0-.08.064-.14.136-.14zm-.636.64h-.5V11.5h1V3.833zm0 7.666h-.5c0 .627.507 1.139 1.136 1.139v-1a.14.14 0 0 1-.136-.14zm.636.639v.5h10.177v-1H81.176zm10.177 0v.5c.63 0 1.136-.512 1.136-1.14h-1a.14.14 0 0 1-.136.14zm.636-.64h.5V3.834h-1V11.5zm0-7.666h.5c0-.627-.507-1.139-1.136-1.139v1c.073 0 .136.06.136.14zm-.636-.639v-.5H81.176v1h10.177zm0 10.223v-.5H81.175v1h10.176zm-10.177 0v-.5a1.415 1.415 0 0 1-1.408-1.417h-1a2.415 2.415 0 0 0 2.408 2.416zM79.268 11.5h.5V3.833h-1V11.5zm0-7.667h.5c0-.783.634-1.416 1.408-1.416v-1a2.415 2.415 0 0 0-2.408 2.416zm1.908-1.916v.5h10.176v-1H81.176zm10.176 0v.5c.774 0 1.408.633 1.408 1.416h1a2.415 2.415 0 0 0-2.408-2.416zm1.908 1.916h-.5V11.5h1V3.833zm0 7.667h-.5c0 .783-.634 1.416-1.408 1.416v1A2.415 2.415 0 0 0 93.76 11.5z" mask="url(#e)"/><path fill="url(#f)" fill-rule="evenodd" d="M118.83 48.875v35.13c0 1.414-1.131 2.56-2.525 2.56h-60.61c-1.394 0-2.525-1.146-2.525-2.56v-35.13a5.11 5.11 0 0 0-2.526 4.41v30.72c0 2.828 2.262 5.12 5.051 5.12h60.61c2.789 0 5.051-2.293 5.051-5.12v-30.72a5.11 5.11 0 0 0-2.526-4.41" clip-rule="evenodd"/><path fill="#E0E0E0" fill-rule="evenodd" d="M92.624 11.5c0 .705-.57 1.277-1.272 1.277H81.175a1.275 1.275 0 0 1-1.272-1.277V3.833c0-.705.57-1.278 1.272-1.278h10.177c.702 0 1.272.573 1.272 1.278zM118.83 0H53.17c-1.394 0-2.526 1.145-2.526 2.556v49.833c0 1.41 1.132 2.555 2.526 2.555h65.66c1.394 0 2.526-1.144 2.526-2.555V2.556c0-1.411-1.132-2.556-2.526-2.556" clip-rule="evenodd"/><path fill="#908E8E" fill-rule="evenodd" d="M84.949 53.65h.19v-.842h-.19zm1.726-.6c-.007-.003-.069-.046-.16-.046-.124 0-.209.097-.209.227 0 .125.083.225.209.225a.3.3 0 0 0 .16-.046v.225a.5.5 0 0 1-.174.03c-.213 0-.4-.166-.4-.434 0-.253.169-.437.4-.437.09 0 .155.023.174.031zm-1.988 0c-.007-.003-.069-.046-.16-.046-.124 0-.208.097-.208.227 0 .125.082.225.208.225a.3.3 0 0 0 .16-.046v.225a.5.5 0 0 1-.171.03c-.216 0-.403-.166-.403-.434 0-.253.169-.437.403-.437.089 0 .155.023.171.031zm2.586-.043c-.112 0-.197.103-.197.223 0 .122.085.222.197.222.115 0 .197-.1.197-.222 0-.12-.082-.223-.197-.223m.403.223c0 .24-.168.437-.401.437-.231 0-.398-.197-.398-.437s.167-.435.398-.435c.233 0 .4.194.4.435M85.864 53c-.003 0-.083-.026-.15-.026-.077 0-.118.029-.118.07 0 .05.057.068.089.079l.05.02c.126.044.181.138.181.24 0 .212-.165.284-.311.284-.103 0-.197-.023-.209-.026v-.191c.019.005.099.03.181.03.097 0 .14-.03.14-.079 0-.04-.039-.066-.087-.082-.01-.005-.028-.01-.039-.015-.108-.038-.197-.107-.197-.248 0-.156.108-.263.284-.263.092 0 .179.026.185.028zm-1.952-1.096c0-.06-.046-.105-.096-.105-.053 0-.094.046-.094.105v.22c0 .058.04.107.094.107.05 0 .096-.049.096-.108zm.519-.291c0-.056-.044-.105-.097-.105-.05 0-.093.049-.093.105v.51c0 .06.043.108.093.108.053 0 .097-.048.097-.107zm.518-.397c0-.059-.043-.105-.096-.105-.05 0-.094.046-.094.105v1.12c0 .055.044.104.094.104.053 0 .096-.049.096-.105zm.52.397c0-.056-.044-.105-.095-.105s-.096.049-.096.105v.51c0 .06.044.108.096.108.05 0 .094-.048.094-.107zm.52.29c0-.058-.044-.104-.096-.104-.05 0-.094.046-.094.105v.22c0 .058.043.107.094.107s.096-.049.096-.108zm.519-.29c0-.056-.044-.105-.096-.105-.05 0-.094.049-.094.105v.51c0 .06.043.108.094.108s.096-.048.096-.107zm.519-.397c0-.059-.042-.105-.094-.105-.053 0-.096.046-.096.105v1.12c0 .055.043.104.096.104.052 0 .094-.049.094-.105zm.52.397c0-.056-.043-.105-.096-.105s-.094.049-.094.105v.51c0 .06.041.108.094.108s.096-.048.096-.107zm.52.29c0-.058-.044-.104-.094-.104-.053 0-.097.046-.097.105v.22c0 .058.044.107.097.107.05 0 .093-.049.093-.108z" clip-rule="evenodd"/><path fill="#222" fill-rule="evenodd" d="M118.702 49.833H53.826a.64.64 0 0 1-.636-.639v-34.5c0-.353.284-.639.636-.639h64.876c.351 0 .636.286.636.64v34.5a.64.64 0 0 1-.636.638" clip-rule="evenodd"/><path fill="url(#g)" fill-rule="evenodd" d="M118.702 49.833H53.826a.64.64 0 0 1-.636-.639v-34.5c0-.353.284-.639.636-.639h64.876c.351 0 .636.286.636.64v34.5a.64.64 0 0 1-.636.638" clip-rule="evenodd"/><path fill="#232323" fill-rule="evenodd" d="M88.809 7.666a2.55 2.55 0 0 0-2.544-2.555 2.55 2.55 0 0 0-2.544 2.555 2.55 2.55 0 0 0 2.544 2.556 2.55 2.55 0 0 0 2.544-2.556" clip-rule="evenodd"/><path fill="#373B47" fill-rule="evenodd" d="M87.534 7.667c0-.705-.57-1.278-1.272-1.278s-1.272.573-1.272 1.278.57 1.278 1.272 1.278 1.272-.573 1.272-1.278" clip-rule="evenodd"/><path fill="url(#h)" fill-rule="evenodd" d="M55.732 92v-1.278l2.545-2.555h3.816v1.277L59.549 92z" clip-rule="evenodd"/><path fill="#D3D3D3" fill-rule="evenodd" d="M59.921 90.348a1.27 1.27 0 0 1-.899.374h-3.29V92h3.29c.337 0 .662-.136.9-.375l2.17-2.18v-1.278z" clip-rule="evenodd"/><path fill="url(#i)" fill-rule="evenodd" d="M116.249 92v-1.278l-2.544-2.555h-3.816v1.277L112.433 92z" clip-rule="evenodd"/><path fill="#D3D3D3" fill-rule="evenodd" d="M112.06 90.348c.238.239.562.374.899.374h3.29V92h-3.29a1.27 1.27 0 0 1-.899-.375l-2.171-2.18v-1.278z" clip-rule="evenodd"/></g><defs><linearGradient id="b" x1="51.92" x2="51.92" y1="53.666" y2="88.143" gradientUnits="userSpaceOnUse"><stop stop-color="#B1B1B1"/><stop offset=".278" stop-color="#C9C9C9"/><stop offset=".514" stop-color="#D6D6D6"/><stop offset=".744" stop-color="#C9C9C9"/><stop offset=".954" stop-color="#ECECEC"/><stop offset="1" stop-color="#B1B1B1"/></linearGradient><linearGradient id="c" x1="114.957" x2="114.957" y1="53.666" y2="88.143" gradientUnits="userSpaceOnUse"><stop stop-color="#B1B1B1"/><stop offset=".278" stop-color="#C9C9C9"/><stop offset=".514" stop-color="#D6D6D6"/><stop offset=".744" stop-color="#C9C9C9"/><stop offset=".954" stop-color="#ECECEC"/><stop offset="1" stop-color="#B1B1B1"/></linearGradient><linearGradient id="d" x1="79.268" x2="79.268" y1="1.917" y2="13.416" gradientUnits="userSpaceOnUse"><stop stop-color="#EFEFEF"/><stop offset=".506" stop-color="#fff"/><stop offset="1" stop-color="#EFEFEF"/></linearGradient><linearGradient id="f" x1="50.654" x2="50.654" y1="48.875" y2="89.114" gradientUnits="userSpaceOnUse"><stop stop-color="#CFCFCF"/><stop offset=".47" stop-color="#F1F1F1"/><stop offset="1" stop-color="#D9D9D9"/></linearGradient><linearGradient id="g" x1="20.115" x2="50.058" y1="31.944" y2="87.304" gradientUnits="userSpaceOnUse"><stop stop-color="#fff" stop-opacity=".24"/><stop offset="1" stop-opacity=".5"/></linearGradient><radialGradient id="h" cx="0" cy="0" r="1" gradientTransform="matrix(4.29057 1.91667 -3.18021 2.58587 59.725 96.045)" gradientUnits="userSpaceOnUse"><stop stop-color="#9C9C9C"/><stop offset=".528" stop-color="#E8E8E8"/><stop offset="1" stop-color="#E8E8E8"/></radialGradient><radialGradient id="i" cx="0" cy="0" r="1" gradientTransform="matrix(4.29057 1.91667 -3.18021 2.58587 113.881 96.045)" gradientUnits="userSpaceOnUse"><stop stop-color="#9C9C9C"/><stop offset=".528" stop-color="#E8E8E8"/><stop offset="1" stop-color="#E8E8E8"/></radialGradient><clipPath id="a"><path fill="#fff" d="M0 0h172v92H0z"/></clipPath></defs></svg>