<svg xmlns="http://www.w3.org/2000/svg" width="1080" height="576" fill="none" viewBox="0 0 1080 576"><g clip-path="url(#a)"><path fill="url(#b)" fill-rule="evenodd" d="M137.718 396.529a1 1 0 0 1 .882-.529h802.8a1 1 0 0 1 .882.529L990 486H90z" clip-rule="evenodd"/><mask id="c" width="901" height="90" x="90" y="396" maskUnits="userSpaceOnUse" style="mask-type:luminance"><path fill="#fff" fill-rule="evenodd" d="M90.002 396h899.999v90H90.002z" clip-rule="evenodd"/></mask><g mask="url(#c)"><path fill="url(#d)" fill-rule="evenodd" d="M141.6 396h796.8a6 6 0 0 1 5.292 3.174L990 486H90l46.308-86.826A5.99 5.99 0 0 1 141.6 396" clip-rule="evenodd"/></g><path fill="#C8C8C8" fill-rule="evenodd" d="M518.344 442.835h3.148v-5.589h-3.148zm28.61-3.984c-.114-.017-1.138-.305-2.655-.305-2.049 0-3.452.644-3.452 1.507 0 .83 1.365 1.491 3.452 1.491 1.479 0 2.541-.271 2.655-.305v1.49c-.379.068-1.479.203-2.883.203-3.528 0-6.638-1.1-6.638-2.879 0-1.676 2.807-2.896 6.638-2.896 1.48 0 2.58.153 2.883.203zm-32.952 0c-.114-.017-1.138-.305-2.656-.305-2.048 0-3.452.644-3.452 1.507 0 .83 1.366 1.491 3.452 1.491 1.48 0 2.542-.271 2.656-.305v1.49c-.38.068-1.442.203-2.845.203-3.566 0-6.677-1.1-6.677-2.879 0-1.676 2.807-2.896 6.677-2.896 1.479 0 2.579.153 2.845.203zm42.889-.281c-1.859 0-3.263.678-3.263 1.473 0 .813 1.404 1.474 3.263 1.474 1.897 0 3.262-.661 3.262-1.474 0-.795-1.365-1.473-3.262-1.473m6.637 1.473c0 1.592-2.769 2.896-6.638 2.896-3.831 0-6.601-1.304-6.601-2.896s2.77-2.879 6.601-2.879c3.869 0 6.638 1.287 6.638 2.879m-30.036-1.522c-.038 0-1.366-.17-2.466-.17-1.29 0-1.973.187-1.973.458 0 .338.949.457 1.48.525l.834.135c2.087.288 2.997.915 2.997 1.592 0 1.406-2.731 1.88-5.159 1.88-1.707 0-3.262-.152-3.452-.169v-1.271c.303.034 1.631.204 2.997.204 1.593 0 2.314-.204 2.314-.525 0-.271-.645-.441-1.442-.542-.151-.034-.455-.068-.645-.102-1.782-.254-3.262-.711-3.262-1.643 0-1.033 1.783-1.744 4.704-1.744 1.517 0 2.959.169 3.073.186zm-32.343-7.27c0-.389-.759-.694-1.594-.694-.872 0-1.555.305-1.555.694v1.457c0 .389.683.711 1.555.711.835 0 1.594-.322 1.594-.711zm8.602-1.925c0-.373-.721-.694-1.594-.694-.834 0-1.555.321-1.555.694v3.387c0 .39.721.712 1.555.712.873 0 1.594-.322 1.594-.712zm8.601-2.632c0-.389-.721-.694-1.594-.694-.834 0-1.555.305-1.555.694v7.418c0 .373.721.695 1.555.695.873 0 1.594-.322 1.594-.695zm8.602 2.632c0-.373-.721-.694-1.556-.694-.872 0-1.593.321-1.593.694v3.387c0 .39.721.712 1.593.712.835 0 1.556-.322 1.556-.712zm8.612 1.925c0-.389-.721-.694-1.593-.694-.835 0-1.555.305-1.555.694v1.457c0 .389.72.711 1.555.711.872 0 1.593-.322 1.593-.711zm8.591-1.925c0-.373-.721-.694-1.594-.694-.834 0-1.555.321-1.555.694v3.387c0 .39.721.712 1.555.712.873 0 1.594-.322 1.594-.712zm8.612-2.632c0-.389-.683-.694-1.555-.694-.873 0-1.593.305-1.593.694v7.418c0 .373.72.695 1.593.695.872 0 1.555-.322 1.555-.695zm8.637 2.632c0-.373-.721-.694-1.593-.694-.873 0-1.556.321-1.556.694v3.387c0 .39.683.712 1.556.712.872 0 1.593-.322 1.593-.712zm8.59 1.925c0-.389-.72-.694-1.555-.694-.872 0-1.593.305-1.593.694v1.457c0 .389.721.711 1.593.711.835 0 1.555-.322 1.555-.711z" clip-rule="evenodd"/><rect width="900" height="96" x="90" y="480" fill="url(#e)" rx="1"/><mask id="f" width="612" height="96" x="234" y="246" maskUnits="userSpaceOnUse" style="mask-type:luminance"><path fill="#fff" fill-rule="evenodd" d="M234 246h612v96H234z" clip-rule="evenodd"/></mask><g filter="url(#g)" mask="url(#f)"><path fill="#555" fill-rule="evenodd" d="M273.643 246h532.611l34.847 25.56a11.98 11.98 0 0 1 4.709 11.814l-6.203 33.996c-2.608 14.256-15.074 24.63-29.625 24.63H270.03c-14.557 0-27.023-10.374-29.631-24.63l-6.203-34.008a11.97 11.97 0 0 1 4.697-11.802z" clip-rule="evenodd"/></g><mask id="h" width="594" height="78" x="243" y="246" maskUnits="userSpaceOnUse" style="mask-type:luminance"><path fill="#fff" fill-rule="evenodd" d="M243 246h594v78H243z" clip-rule="evenodd"/></mask><g filter="url(#i)" mask="url(#h)"><path fill="url(#j)" fill-rule="evenodd" d="M277.355 246h525.29l30.061 25.176c3.516 2.946 5.044 7.668 3.94 12.132l-4.471 17.97C828.85 314.628 816.912 324 803.218 324H276.782c-13.7 0-25.638-9.372-28.957-22.722l-4.471-17.97a12.05 12.05 0 0 1 3.94-12.132z" clip-rule="evenodd"/></g><path fill="#908E8E" fill-rule="evenodd" d="M531.609 313.079h1.487v-6.334h-1.487zm13.509-4.514c-.054-.019-.538-.345-1.254-.345-.967 0-1.63.729-1.63 1.708 0 .941.645 1.689 1.63 1.689.699 0 1.2-.307 1.254-.345v1.689c-.179.077-.699.23-1.362.23-1.666 0-3.134-1.247-3.134-3.263 0-1.9 1.325-3.282 3.134-3.282.699 0 1.219.173 1.362.23zm-15.563-.002c-.054-.019-.538-.345-1.254-.345-.967 0-1.63.729-1.63 1.708 0 .941.645 1.689 1.63 1.689.699 0 1.2-.307 1.254-.345v1.689c-.179.077-.681.23-1.344.23-1.683 0-3.152-1.248-3.152-3.263 0-1.9 1.325-3.282 3.152-3.282.699 0 1.219.173 1.344.23zm20.247-.317c-.877 0-1.54.768-1.54 1.67 0 .922.663 1.67 1.54 1.67.896 0 1.541-.748 1.541-1.67 0-.902-.645-1.67-1.541-1.67m3.14 1.669c0 1.805-1.308 3.283-3.135 3.283-1.809 0-3.117-1.478-3.117-3.283s1.308-3.263 3.117-3.263c1.827 0 3.135 1.459 3.135 3.263m-14.18-1.725c-.018 0-.645-.192-1.164-.192-.609 0-.932.211-.932.518 0 .384.448.519.699.595l.394.154c.985.326 1.415 1.037 1.415 1.804 0 1.593-1.29 2.131-2.436 2.131-.806 0-1.541-.173-1.63-.192v-1.44c.143.039.77.231 1.415.231.752 0 1.093-.231 1.093-.595 0-.307-.305-.499-.681-.615-.072-.038-.215-.076-.305-.115-.842-.288-1.54-.806-1.54-1.862 0-1.17.842-1.977 2.221-1.977.717 0 1.397.192 1.451.212zm-15.275-8.239c0-.441-.358-.787-.753-.787-.412 0-.734.346-.734.787v1.651c0 .441.322.806.734.806.395 0 .753-.365.753-.806zm4.054-2.182c0-.423-.34-.787-.752-.787-.394 0-.735.364-.735.787v3.839c0 .441.341.806.735.806.412 0 .752-.365.752-.806zm4.067-2.982c0-.442-.34-.787-.752-.787-.395 0-.735.345-.735.787v8.407c0 .422.34.787.735.787.412 0 .752-.365.752-.787zm4.067 2.982c0-.423-.341-.787-.735-.787-.412 0-.752.364-.752.787v3.839c0 .441.34.806.752.806.394 0 .735-.365.735-.806zm4.066 2.182c0-.441-.341-.787-.753-.787-.394 0-.734.346-.734.787v1.651c0 .441.34.806.734.806.412 0 .753-.365.753-.806zm4.055-2.182c0-.423-.34-.787-.752-.787-.395 0-.735.364-.735.787v3.839c0 .441.34.806.735.806.412 0 .752-.365.752-.806zm4.066-2.982c0-.442-.323-.787-.735-.787s-.752.345-.752.787v8.407c0 .422.34.787.752.787s.735-.365.735-.787zm4.079 2.982c0-.423-.34-.787-.752-.787s-.735.364-.735.787v3.839c0 .441.323.806.735.806s.752-.365.752-.806zm4.053 2.182c0-.441-.34-.787-.734-.787-.412 0-.752.346-.752.787v1.651c0 .441.34.806.752.806.394 0 .734-.365.734-.806z" clip-rule="evenodd"/><g filter="url(#k)"><path fill="#1C1B1B" d="M585.307 262.369a2 2 0 0 1-1.966 1.631H496.66a2 2 0 0 1-1.966-1.631L477 168h6l17.643 76.45a2 2 0 0 0 1.949 1.55h74.817a2 2 0 0 0 1.949-1.55L597 168h6z"/></g><g filter="url(#l)"><circle cx="540" cy="108" r="108" fill="#3B3A3A"/></g><g filter="url(#m)"><circle cx="540" cy="108" r="78" fill="#172029"/></g><g filter="url(#n)"><circle cx="540" cy="108" r="48" fill="#232122"/></g><g filter="url(#o)"><circle cx="540" cy="108" r="24" fill="#10151C"/></g><g filter="url(#p)"><circle cx="540" cy="108" r="6" fill="#000" fill-opacity=".01"/></g></g><defs><filter id="g" width="612.006" height="96.5" x="234" y="245.5" color-interpolation-filters="sRGB" filterUnits="userSpaceOnUse"><feFlood flood-opacity="0" result="BackgroundImageFix"/><feBlend in="SourceGraphic" in2="BackgroundImageFix" result="shape"/><feColorMatrix in="SourceAlpha" result="hardAlpha" values="0 0 0 0 0 0 0 0 0 0 0 0 0 0 0 0 0 0 127 0"/><feOffset dy="-.5"/><feGaussianBlur stdDeviation="1"/><feComposite in2="hardAlpha" k2="-1" k3="1" operator="arithmetic"/><feColorMatrix values="0 0 0 0 0 0 0 0 0 0 0 0 0 0 0 0 0 0 0.8 0"/><feBlend in2="shape" result="effect1_innerShadow_23746_2130"/></filter><filter id="i" width="595.002" height="79" x="242.498" y="246" color-interpolation-filters="sRGB" filterUnits="userSpaceOnUse"><feFlood flood-opacity="0" result="BackgroundImageFix"/><feColorMatrix in="SourceAlpha" result="hardAlpha" values="0 0 0 0 0 0 0 0 0 0 0 0 0 0 0 0 0 0 127 0"/><feOffset dy=".5"/><feGaussianBlur stdDeviation=".25"/><feColorMatrix values="0 0 0 0 0 0 0 0 0 0 0 0 0 0 0 0 0 0 0.6 0"/><feBlend in2="BackgroundImageFix" result="effect1_dropShadow_23746_2130"/><feBlend in="SourceGraphic" in2="effect1_dropShadow_23746_2130" result="shape"/><feColorMatrix in="SourceAlpha" result="hardAlpha" values="0 0 0 0 0 0 0 0 0 0 0 0 0 0 0 0 0 0 127 0"/><feOffset dy="-.5"/><feComposite in2="hardAlpha" k2="-1" k3="1" operator="arithmetic"/><feColorMatrix values="0 0 0 0 1 0 0 0 0 1 0 0 0 0 1 0 0 0 0.24 0"/><feBlend in2="shape" result="effect2_innerShadow_23746_2130"/></filter><filter id="k" width="126" height="97" x="477" y="168" color-interpolation-filters="sRGB" filterUnits="userSpaceOnUse"><feFlood flood-opacity="0" result="BackgroundImageFix"/><feBlend in="SourceGraphic" in2="BackgroundImageFix" result="shape"/><feColorMatrix in="SourceAlpha" result="hardAlpha" values="0 0 0 0 0 0 0 0 0 0 0 0 0 0 0 0 0 0 127 0"/><feOffset dy="1"/><feGaussianBlur stdDeviation=".5"/><feComposite in2="hardAlpha" k2="-1" k3="1" operator="arithmetic"/><feColorMatrix values="0 0 0 0 1 0 0 0 0 1 0 0 0 0 1 0 0 0 0.5 0"/><feBlend in2="shape" result="effect1_innerShadow_23746_2130"/></filter><filter id="l" width="216" height="216" x="432" y="0" color-interpolation-filters="sRGB" filterUnits="userSpaceOnUse"><feFlood flood-opacity="0" result="BackgroundImageFix"/><feBlend in="SourceGraphic" in2="BackgroundImageFix" result="shape"/><feColorMatrix in="SourceAlpha" result="hardAlpha" values="0 0 0 0 0 0 0 0 0 0 0 0 0 0 0 0 0 0 127 0"/><feMorphology in="SourceAlpha" radius="1" result="effect1_innerShadow_23746_2130"/><feOffset/><feGaussianBlur stdDeviation=".5"/><feComposite in2="hardAlpha" k2="-1" k3="1" operator="arithmetic"/><feColorMatrix values="0 0 0 0 0 0 0 0 0 0 0 0 0 0 0 0 0 0 0.4 0"/><feBlend in2="shape" result="effect1_innerShadow_23746_2130"/></filter><filter id="m" width="156" height="156" x="462" y="30" color-interpolation-filters="sRGB" filterUnits="userSpaceOnUse"><feFlood flood-opacity="0" result="BackgroundImageFix"/><feBlend in="SourceGraphic" in2="BackgroundImageFix" result="shape"/><feColorMatrix in="SourceAlpha" result="hardAlpha" values="0 0 0 0 0 0 0 0 0 0 0 0 0 0 0 0 0 0 127 0"/><feMorphology in="SourceAlpha" radius="2" result="effect1_innerShadow_23746_2130"/><feOffset/><feGaussianBlur stdDeviation="1"/><feComposite in2="hardAlpha" k2="-1" k3="1" operator="arithmetic"/><feColorMatrix values="0 0 0 0 0 0 0 0 0 0 0 0 0 0 0 0 0 0 0.6 0"/><feBlend in2="shape" result="effect1_innerShadow_23746_2130"/></filter><filter id="n" width="96" height="96" x="492" y="60" color-interpolation-filters="sRGB" filterUnits="userSpaceOnUse"><feFlood flood-opacity="0" result="BackgroundImageFix"/><feBlend in="SourceGraphic" in2="BackgroundImageFix" result="shape"/><feColorMatrix in="SourceAlpha" result="hardAlpha" values="0 0 0 0 0 0 0 0 0 0 0 0 0 0 0 0 0 0 127 0"/><feMorphology in="SourceAlpha" radius="2" result="effect1_innerShadow_23746_2130"/><feOffset/><feGaussianBlur stdDeviation="1"/><feComposite in2="hardAlpha" k2="-1" k3="1" operator="arithmetic"/><feColorMatrix values="0 0 0 0 0 0 0 0 0 0 0 0 0 0 0 0 0 0 0.6 0"/><feBlend in2="shape" result="effect1_innerShadow_23746_2130"/></filter><filter id="o" width="50" height="50" x="515" y="83" color-interpolation-filters="sRGB" filterUnits="userSpaceOnUse"><feFlood flood-opacity="0" result="BackgroundImageFix"/><feColorMatrix in="SourceAlpha" result="hardAlpha" values="0 0 0 0 0 0 0 0 0 0 0 0 0 0 0 0 0 0 127 0"/><feMorphology in="SourceAlpha" operator="dilate" radius=".5" result="effect1_dropShadow_23746_2130"/><feOffset/><feGaussianBlur stdDeviation=".25"/><feColorMatrix values="0 0 0 0 1 0 0 0 0 1 0 0 0 0 1 0 0 0 0.08 0"/><feBlend in2="BackgroundImageFix" result="effect1_dropShadow_23746_2130"/><feBlend in="SourceGraphic" in2="effect1_dropShadow_23746_2130" result="shape"/></filter><filter id="p" width="12.5" height="12.5" x="533.75" y="101.75" color-interpolation-filters="sRGB" filterUnits="userSpaceOnUse"><feFlood flood-opacity="0" result="BackgroundImageFix"/><feColorMatrix in="SourceAlpha" result="hardAlpha" values="0 0 0 0 0 0 0 0 0 0 0 0 0 0 0 0 0 0 127 0"/><feOffset/><feGaussianBlur stdDeviation=".125"/><feColorMatrix values="0 0 0 0 0.0922915 0 0 0 0 0.16284 0 0 0 0 0.150571 0 0 0 1 0"/><feBlend in2="BackgroundImageFix" result="effect1_dropShadow_23746_2130"/><feBlend in="SourceGraphic" in2="effect1_dropShadow_23746_2130" result="shape"/></filter><radialGradient id="b" cx="0" cy="0" r="1" gradientTransform="matrix(-424.805 0 0 -2.45487 540 441)" gradientUnits="userSpaceOnUse"><stop stop-color="#F5F6F7"/><stop offset="1" stop-color="#EFEFEF"/></radialGradient><radialGradient id="d" cx="0" cy="0" r="1" gradientTransform="matrix(-424.805 0 0 -2.45487 540 441)" gradientUnits="userSpaceOnUse"><stop stop-color="#F5F6F7"/><stop offset="1" stop-color="#EFEFEF"/></radialGradient><linearGradient id="e" x1="90" x2="990" y1="578.233" y2="578.233" gradientUnits="userSpaceOnUse"><stop stop-color="#E9EAEB"/><stop offset=".013" stop-color="#D3D4D5"/><stop offset=".501" stop-color="#DADBDC"/><stop offset=".968" stop-color="#D8D8D9"/><stop offset=".984" stop-color="#E2E2E2"/><stop offset="1" stop-color="#F7F7F7"/></linearGradient><linearGradient id="j" x1="242.998" x2="242.998" y1="246" y2="324" gradientUnits="userSpaceOnUse"><stop stop-color="#DBDCDD"/><stop offset=".316" stop-color="#E0E0E1"/><stop offset=".409" stop-color="#F7F7F7"/><stop offset=".524" stop-color="#D7D9DB"/><stop offset="1" stop-color="#CFD1D3"/></linearGradient><clipPath id="a"><path fill="#fff" d="M0 0h1080v576H0z"/></clipPath></defs></svg>