<svg xmlns="http://www.w3.org/2000/svg" width="1080" height="576" fill="none" viewBox="0 0 1080 576"><g fill-rule="evenodd" clip-path="url(#a)" clip-rule="evenodd"><path fill="url(#b)" d="M513.035 48h47.925V36h-47.925z"/><path fill="url(#c)" d="M560.96 35.998c0 2.208-10.727 4-23.962 4-13.236 0-23.963-1.792-23.963-4s10.727-4 23.963-4c13.235 0 23.962 1.792 23.962 4"/><path fill="url(#d)" d="M552.977 16c0-8.832-7.156-16-15.975-16s-15.975 7.168-15.975 16v8h31.95z"/><path fill="url(#e)" d="m393 567 8.289-38.474a.67.67 0 0 1 .652-.526h263.01c.273 0 .518.166.619.419L681 567z"/><path fill="#2F2F2F" d="M393 575.333c0 .369.298.667.667.667h286.666a.667.667 0 0 0 .667-.667V567H393z"/><path fill="url(#f)" d="M504 546h66V354h-66z"/><path fill="#E0E0E0" d="M752.069 354H321.931c-8.794 0-15.931-7.215-15.931-16.105V64.105C306 55.215 313.137 48 321.931 48h430.138C760.863 48 768 55.215 768 64.105v273.79c0 8.89-7.137 16.105-15.931 16.105"/><path fill="#222" d="M751.945 306H322.056c-2.239 0-4.056-1.792-4.056-4V70c0-2.208 1.817-4 4.056-4h429.889c2.238 0 4.055 1.792 4.055 4v232c0 2.208-1.817 4-4.055 4"/><path fill="#222" d="M751.945 306H322.056c-2.239 0-4.056-1.792-4.056-4V70c0-2.208 1.817-4 4.056-4h429.889c2.238 0 4.055 1.792 4.055 4v232c0 2.208-1.817 4-4.055 4"/><path fill="url(#g)" d="M751.945 306H322.056c-2.239 0-4.056-1.792-4.056-4V70c0-2.208 1.817-4 4.056-4h429.889c2.238 0 4.055 1.792 4.055 4v232c0 2.208-1.817 4-4.055 4"/><path fill="#908E8E" d="M530.625 335.392h1.193v-5.279h-1.193zm10.838-3.761c-.043-.016-.431-.288-1.006-.288-.776 0-1.308.608-1.308 1.423 0 .784.517 1.408 1.308 1.408.561 0 .963-.256 1.006-.288v1.408c-.144.064-.56.192-1.092.192-1.337 0-2.516-1.04-2.516-2.72 0-1.583 1.064-2.735 2.516-2.735.56 0 .977.144 1.092.192zm-12.48 0c-.043-.016-.432-.288-1.006-.288-.777 0-1.308.608-1.308 1.423 0 .784.517 1.408 1.308 1.408.56 0 .963-.256 1.006-.288v1.408a2.9 2.9 0 0 1-1.078.192c-1.351 0-2.53-1.04-2.53-2.72 0-1.583 1.064-2.735 2.53-2.735.56 0 .977.144 1.078.192zm16.237-.264c-.704 0-1.236.64-1.236 1.392 0 .768.532 1.391 1.236 1.391.719 0 1.237-.623 1.237-1.391 0-.752-.518-1.392-1.237-1.392m2.527 1.389c0 1.504-1.05 2.735-2.516 2.735-1.451 0-2.501-1.231-2.501-2.735s1.05-2.719 2.501-2.719c1.466 0 2.516 1.216 2.516 2.719m-11.384-1.437c-.015 0-.518-.16-.935-.16-.488 0-.747.176-.747.432 0 .32.359.432.56.496l.317.128c.79.272 1.135.864 1.135 1.503 0 1.328-1.035 1.776-1.955 1.776-.646 0-1.236-.144-1.308-.16v-1.2c.115.032.618.192 1.136.192.604 0 .877-.192.877-.496 0-.256-.245-.416-.547-.512-.057-.032-.172-.064-.244-.096-.675-.239-1.236-.671-1.236-1.551 0-.976.676-1.648 1.782-1.648.575 0 1.121.16 1.165.176zm-12.256-6.864c0-.368-.287-.656-.604-.656-.33 0-.589.288-.589.656v1.375c0 .368.259.672.589.672.317 0 .604-.304.604-.672zm3.258-1.821c0-.352-.273-.655-.604-.655-.316 0-.589.303-.589.655v3.199c0 .368.273.672.589.672.331 0 .604-.304.604-.672zm3.258-2.484c0-.368-.273-.656-.604-.656-.316 0-.589.288-.589.656v7.006c0 .352.273.656.589.656.331 0 .604-.304.604-.656zm3.257 2.484c0-.352-.273-.655-.589-.655-.33 0-.603.303-.603.655v3.199c0 .368.273.672.603.672.316 0 .589-.304.589-.672zm3.27 1.821c0-.368-.273-.656-.604-.656-.316 0-.589.288-.589.656v1.375c0 .368.273.672.589.672.331 0 .604-.304.604-.672zm3.258-1.821c0-.352-.273-.655-.604-.655-.316 0-.589.303-.589.655v3.199c0 .368.273.672.589.672.331 0 .604-.304.604-.672zm3.258-2.484c0-.368-.259-.656-.59-.656s-.603.288-.603.656v7.006c0 .352.273.656.603.656.331 0 .59-.304.59-.656zm3.269 2.484c0-.352-.273-.655-.604-.655s-.589.303-.589.655v3.199c0 .368.259.672.589.672.331 0 .604-.304.604-.672zm3.26 1.821c0-.368-.273-.656-.589-.656-.331 0-.604.288-.604.656v1.375c0 .368.273.672.604.672.316 0 .589-.304.589-.672z"/><path fill="#232323" d="M552.977 23.998c0-8.832-7.156-16-15.975-16s-15.975 7.168-15.975 16 7.157 16 15.975 16c8.819 0 15.975-7.168 15.975-16"/><path fill="#373B47" d="M544.983 24c0-4.416-3.579-8-7.988-8s-7.987 3.584-7.987 8 3.578 8 7.987 8 7.988-3.584 7.988-8"/></g><defs><linearGradient id="b" x1="513.035" x2="560.96" y1="54" y2="54" gradientUnits="userSpaceOnUse"><stop stop-color="#DFDFDF"/><stop offset="1" stop-color="#6F6F6F"/></linearGradient><linearGradient id="c" x1="525.016" x2="525.642" y1="33.318" y2="38.993" gradientUnits="userSpaceOnUse"><stop stop-color="#F6F6F6"/><stop offset="1" stop-color="#969696"/></linearGradient><linearGradient id="d" x1="521.027" x2="552.977" y1="12.657" y2="12.657" gradientUnits="userSpaceOnUse"><stop stop-color="#B4B4B4"/><stop offset=".264" stop-color="#F5F5F5"/><stop offset=".664" stop-color="#CCC"/><stop offset="1" stop-color="gray"/></linearGradient><linearGradient id="f" x1="504.002" x2="504.002" y1="354" y2="545.987" gradientUnits="userSpaceOnUse"><stop stop-color="#CFCFCF"/><stop offset=".278" stop-color="#D9D9D9"/><stop offset=".514" stop-color="#DFDFDF"/><stop offset=".753" stop-color="#D6D6D6"/><stop offset="1" stop-color="silver"/></linearGradient><linearGradient id="g" x1="99" x2="301.28" y1="186" y2="555.161" gradientUnits="userSpaceOnUse"><stop stop-color="#fff" stop-opacity=".24"/><stop offset="1" stop-opacity=".5"/></linearGradient><radialGradient id="e" cx="0" cy="0" r="1" gradientTransform="matrix(194.277 19.5 -144 26.3084 573.793 608.152)" gradientUnits="userSpaceOnUse"><stop stop-color="#9C9C9C"/><stop offset=".528" stop-color="#E8E8E8"/><stop offset="1" stop-color="#E8E8E8"/></radialGradient><clipPath id="a"><path fill="#fff" d="M0 0h1080v576H0z"/></clipPath></defs></svg>