<svg xmlns="http://www.w3.org/2000/svg" width="172" height="92" fill="none" viewBox="0 0 172 92"><g clip-path="url(#a)"><path fill="#E9E9E9" fill-rule="evenodd" d="M74.497 7.986a.32.32 0 0 1-.309-.242l-1.21-4.87h-1.413l-1.21 4.87a.323.323 0 0 1-.388.233.32.32 0 0 1-.231-.389l1.333-5.352h2.404l1.333 5.352a.323.323 0 0 1-.309.398" clip-rule="evenodd"/><mask id="c" fill="#fff"><path fill-rule="evenodd" d="M67.182 3.194a.64.64 0 0 0-.636.64V11.5c0 .352.285.639.636.639H77.36a.64.64 0 0 0 .636-.64V3.834a.64.64 0 0 0-.636-.639zm10.176 10.223H67.182a1.915 1.915 0 0 1-1.909-1.917V3.833c0-1.057.856-1.916 1.909-1.916h10.176c1.052 0 1.908.86 1.908 1.916V11.5a1.915 1.915 0 0 1-1.908 1.916" clip-rule="evenodd"/></mask><path fill="url(#b)" fill-rule="evenodd" d="M67.182 3.194a.64.64 0 0 0-.636.64V11.5c0 .352.285.639.636.639H77.36a.64.64 0 0 0 .636-.64V3.834a.64.64 0 0 0-.636-.639zm10.176 10.223H67.182a1.915 1.915 0 0 1-1.909-1.917V3.833c0-1.057.856-1.916 1.909-1.916h10.176c1.052 0 1.908.86 1.908 1.916V11.5a1.915 1.915 0 0 1-1.908 1.916" clip-rule="evenodd"/><path fill="#EAEAEA" d="M67.182 3.194v-.5c-.629 0-1.136.512-1.136 1.14h1c0-.08.063-.14.136-.14zm-.636.64h-.5V11.5h1V3.833zm0 7.666h-.5c0 .627.507 1.139 1.136 1.139v-1a.14.14 0 0 1-.136-.14zm.636.639v.5H77.36v-1H67.182zm10.177 0v.5c.63 0 1.136-.512 1.136-1.14h-1a.14.14 0 0 1-.136.14zm.636-.64h.5V3.834h-1V11.5zm0-7.666h.5c0-.627-.507-1.139-1.136-1.139v1c.073 0 .136.06.136.14zm-.636-.639v-.5H67.182v1H77.36zm0 10.223v-.5H67.181v1h10.176zm-10.177 0v-.5a1.415 1.415 0 0 1-1.409-1.417h-1a2.415 2.415 0 0 0 2.409 2.416zM65.273 11.5h.5V3.833h-1V11.5zm0-7.667h.5c0-.783.635-1.416 1.409-1.416v-1a2.415 2.415 0 0 0-2.409 2.416zm1.909-1.916v.5h10.176v-1H67.182zm10.176 0v.5c.774 0 1.408.633 1.408 1.416h1a2.415 2.415 0 0 0-2.408-2.416zm1.908 1.916h-.5V11.5h1V3.833zm0 7.667h-.5c0 .783-.634 1.416-1.408 1.416v1a2.415 2.415 0 0 0 2.408-2.416z" mask="url(#c)"/><path fill="#E9E9E9" fill-rule="evenodd" d="M102.482 7.986a.32.32 0 0 1-.309-.242l-1.212-4.87h-1.412l-1.21 4.87a.323.323 0 0 1-.387.233.323.323 0 0 1-.232-.389l1.333-5.352h2.405l1.333 5.352a.323.323 0 0 1-.309.398" clip-rule="evenodd"/><mask id="e" fill="#fff"><path fill-rule="evenodd" d="M95.169 3.194a.64.64 0 0 0-.636.64V11.5c0 .352.284.639.636.639h10.176a.64.64 0 0 0 .636-.64V3.834a.64.64 0 0 0-.636-.639zm10.176 10.223H95.168A1.915 1.915 0 0 1 93.26 11.5V3.833c0-1.057.856-1.916 1.908-1.916h10.177c1.052 0 1.908.86 1.908 1.916V11.5a1.915 1.915 0 0 1-1.908 1.916" clip-rule="evenodd"/></mask><path fill="url(#d)" fill-rule="evenodd" d="M95.169 3.194a.64.64 0 0 0-.636.64V11.5c0 .352.284.639.636.639h10.176a.64.64 0 0 0 .636-.64V3.834a.64.64 0 0 0-.636-.639zm10.176 10.223H95.168A1.915 1.915 0 0 1 93.26 11.5V3.833c0-1.057.856-1.916 1.908-1.916h10.177c1.052 0 1.908.86 1.908 1.916V11.5a1.915 1.915 0 0 1-1.908 1.916" clip-rule="evenodd"/><path fill="#EAEAEA" d="M95.169 3.194v-.5c-.63 0-1.136.512-1.136 1.14h1c0-.08.063-.14.136-.14zm-.636.64h-.5V11.5h1V3.833zm0 7.666h-.5c0 .627.506 1.139 1.136 1.139v-1a.14.14 0 0 1-.136-.14zm.636.639v.5h10.176v-1H95.169zm10.176 0v.5c.63 0 1.136-.512 1.136-1.14h-1a.14.14 0 0 1-.136.14zm.636-.64h.5V3.834h-1V11.5zm0-7.666h.5c0-.627-.506-1.139-1.136-1.139v1c.073 0 .136.06.136.14zm-.636-.639v-.5H95.169v1h10.176zm0 10.223v-.5H95.168v1h10.177zm-10.177 0v-.5A1.415 1.415 0 0 1 93.76 11.5h-1a2.415 2.415 0 0 0 2.408 2.416zM93.26 11.5h.5V3.833h-1V11.5zm0-7.667h.5c0-.783.634-1.416 1.408-1.416v-1a2.415 2.415 0 0 0-2.408 2.416zm1.908-1.916v.5h10.177v-1H95.168zm10.177 0v.5c.773 0 1.408.633 1.408 1.416h1a2.415 2.415 0 0 0-2.408-2.416zm1.908 1.916h-.5V11.5h1V3.833zm0 7.667h-.5c0 .783-.635 1.416-1.408 1.416v1a2.415 2.415 0 0 0 2.408-2.416z" mask="url(#e)"/><path fill="url(#f)" fill-rule="evenodd" d="M54.462 54.944v29.39a2.55 2.55 0 0 0 2.544 2.555v1.278H53.19l-1.272-1.278V53.667z" clip-rule="evenodd"/><path fill="url(#g)" fill-rule="evenodd" d="M118.066 54.944v29.39c0 1.41-1.14 2.555-2.545 2.555v1.278h3.817l1.272-1.278V53.667z" clip-rule="evenodd"/><path fill="url(#h)" fill-rule="evenodd" d="M119.337 49.264v35.069a2.55 2.55 0 0 1-2.544 2.555h-61.06a2.55 2.55 0 0 1-2.544-2.555V49.264c-1.514.886-2.544 2.516-2.544 4.402v30.667c0 2.822 2.278 5.11 5.088 5.11h61.06c2.81 0 5.088-2.288 5.088-5.11V53.666c0-1.886-1.03-3.516-2.544-4.402" clip-rule="evenodd"/><path fill="#E0E0E0" fill-rule="evenodd" d="M106.615 11.5c0 .705-.569 1.278-1.272 1.278H95.167a1.275 1.275 0 0 1-1.272-1.278V3.833c0-.705.57-1.277 1.272-1.277h10.176c.703 0 1.272.572 1.272 1.277zm-27.985 0c0 .705-.57 1.278-1.272 1.278H67.18A1.275 1.275 0 0 1 65.91 11.5V3.833c0-.705.57-1.277 1.272-1.277h10.177c.702 0 1.272.572 1.272 1.277zM119.337 0H53.189a2.55 2.55 0 0 0-2.544 2.556v49.833a2.55 2.55 0 0 0 2.544 2.555h66.148a2.55 2.55 0 0 0 2.544-2.555V2.556A2.55 2.55 0 0 0 119.337 0" clip-rule="evenodd"/><path fill="#908E8E" fill-rule="evenodd" d="M84.949 53.65h.19v-.842h-.19zm1.726-.6c-.007-.002-.069-.046-.16-.046-.124 0-.209.097-.209.227 0 .126.083.225.209.225.089 0 .153-.04.16-.046v.225a.5.5 0 0 1-.174.03c-.213 0-.4-.165-.4-.434 0-.252.169-.436.4-.436.09 0 .155.023.174.03zm-1.988 0c-.007-.002-.069-.046-.16-.046-.124 0-.208.097-.208.227 0 .126.082.225.208.225.09 0 .153-.04.16-.046v.225a.5.5 0 0 1-.171.03c-.216 0-.403-.165-.403-.434 0-.252.169-.436.403-.436.089 0 .155.023.171.03zm2.586-.043c-.112 0-.197.103-.197.223 0 .122.085.222.197.222.115 0 .197-.1.197-.222 0-.12-.082-.223-.197-.223m.403.223c0 .24-.168.437-.401.437-.231 0-.398-.197-.398-.437s.167-.435.398-.435c.233 0 .4.194.4.435M85.864 53c-.003 0-.083-.026-.15-.026-.077 0-.118.028-.118.07 0 .05.057.068.089.078l.05.02c.126.044.181.139.181.24 0 .213-.165.285-.311.285-.103 0-.197-.023-.209-.026v-.192c.019.006.099.031.181.031.097 0 .14-.03.14-.08 0-.04-.039-.066-.087-.08-.01-.006-.028-.011-.039-.016-.108-.039-.197-.108-.197-.248 0-.156.108-.263.284-.263.092 0 .179.025.185.028zm-1.952-1.096c0-.06-.046-.105-.096-.105-.053 0-.094.046-.094.105v.22c0 .058.04.107.094.107.05 0 .096-.049.096-.108zm.519-.291c0-.056-.044-.105-.097-.105-.05 0-.093.049-.093.105v.51c0 .06.043.108.093.108.053 0 .097-.048.097-.107zm.518-.397c0-.059-.043-.105-.096-.105-.05 0-.094.046-.094.105v1.12c0 .055.044.104.094.104.053 0 .096-.049.096-.105zm.52.397c0-.056-.044-.105-.095-.105s-.096.049-.096.105v.51c0 .06.044.108.096.108.05 0 .094-.048.094-.107zm.52.29c0-.058-.044-.104-.096-.104-.05 0-.094.046-.094.105v.22c0 .058.043.107.094.107s.096-.049.096-.108zm.519-.29c0-.056-.044-.105-.096-.105-.05 0-.094.049-.094.105v.51c0 .06.043.108.094.108s.096-.048.096-.107zm.519-.397c0-.059-.042-.105-.094-.105-.053 0-.096.046-.096.105v1.12c0 .055.043.104.096.104.052 0 .094-.049.094-.105zm.52.397c0-.056-.043-.105-.096-.105s-.094.049-.094.105v.51c0 .06.041.108.094.108s.096-.048.096-.107zm.52.29c0-.058-.044-.104-.094-.104-.053 0-.097.046-.097.105v.22c0 .058.044.107.097.107.05 0 .093-.049.093-.108z" clip-rule="evenodd"/><path fill="url(#i)" fill-rule="evenodd" d="M55.732 92v-1.278l2.545-2.555h3.816v1.277L59.549 92z" clip-rule="evenodd"/><path fill="#D3D3D3" fill-rule="evenodd" d="M59.921 90.348a1.27 1.27 0 0 1-.899.374h-3.29V92h3.29c.337 0 .662-.136.9-.375l2.17-2.18v-1.278z" clip-rule="evenodd"/><path fill="url(#j)" fill-rule="evenodd" d="M116.792 92v-1.278l-2.544-2.555h-3.816v1.277L112.976 92z" clip-rule="evenodd"/><path fill="#D3D3D3" fill-rule="evenodd" d="M112.603 90.348c.238.239.562.374.899.374h3.29V92h-3.29a1.27 1.27 0 0 1-.899-.375l-2.171-2.18v-1.278z" clip-rule="evenodd"/><path fill="#222" fill-rule="evenodd" d="M118.702 49.833H53.826a.64.64 0 0 1-.636-.638v-34.5c0-.353.284-.64.636-.64h64.876c.351 0 .636.287.636.64v34.5a.64.64 0 0 1-.636.638" clip-rule="evenodd"/><path fill="url(#k)" fill-rule="evenodd" d="M118.702 49.833H53.826a.64.64 0 0 1-.636-.638v-34.5c0-.353.284-.64.636-.64h64.876c.351 0 .636.287.636.64v34.5a.64.64 0 0 1-.636.638" clip-rule="evenodd"/><path fill="#232323" fill-rule="evenodd" d="M74.815 7.666a2.55 2.55 0 0 0-2.544-2.555 2.55 2.55 0 0 0-2.544 2.555 2.55 2.55 0 0 0 2.544 2.556 2.55 2.55 0 0 0 2.544-2.556" clip-rule="evenodd"/><path fill="#373B47" fill-rule="evenodd" d="M73.542 7.667c0-.705-.57-1.278-1.272-1.278s-1.272.573-1.272 1.278.57 1.278 1.272 1.278 1.272-.573 1.272-1.278" clip-rule="evenodd"/><path fill="#232323" fill-rule="evenodd" d="M102.799 7.666a2.55 2.55 0 0 0-2.544-2.555 2.55 2.55 0 0 0-2.544 2.555 2.55 2.55 0 0 0 2.544 2.556 2.55 2.55 0 0 0 2.544-2.556" clip-rule="evenodd"/><path fill="#373B47" fill-rule="evenodd" d="M101.529 7.667c0-.705-.57-1.278-1.273-1.278-.702 0-1.272.573-1.272 1.278s.57 1.278 1.272 1.278 1.273-.573 1.273-1.278" clip-rule="evenodd"/></g><defs><linearGradient id="b" x1="65.273" x2="65.273" y1="1.917" y2="13.416" gradientUnits="userSpaceOnUse"><stop stop-color="#EFEFEF"/><stop offset=".506" stop-color="#fff"/><stop offset="1" stop-color="#EFEFEF"/></linearGradient><linearGradient id="d" x1="93.26" x2="93.26" y1="1.917" y2="13.416" gradientUnits="userSpaceOnUse"><stop stop-color="#EFEFEF"/><stop offset=".506" stop-color="#fff"/><stop offset="1" stop-color="#EFEFEF"/></linearGradient><linearGradient id="f" x1="51.92" x2="51.92" y1="53.666" y2="88.143" gradientUnits="userSpaceOnUse"><stop stop-color="#B1B1B1"/><stop offset=".278" stop-color="#C9C9C9"/><stop offset=".514" stop-color="#D6D6D6"/><stop offset=".744" stop-color="#C9C9C9"/><stop offset=".954" stop-color="#ECECEC"/><stop offset="1" stop-color="#B1B1B1"/></linearGradient><linearGradient id="g" x1="115.523" x2="115.523" y1="53.666" y2="88.143" gradientUnits="userSpaceOnUse"><stop stop-color="#B1B1B1"/><stop offset=".278" stop-color="#C9C9C9"/><stop offset=".514" stop-color="#D6D6D6"/><stop offset=".744" stop-color="#C9C9C9"/><stop offset=".954" stop-color="#ECECEC"/><stop offset="1" stop-color="#B1B1B1"/></linearGradient><linearGradient id="h" x1="50.654" x2="50.654" y1="49.264" y2="89.433" gradientUnits="userSpaceOnUse"><stop stop-color="#CFCFCF"/><stop offset=".47" stop-color="#F1F1F1"/><stop offset="1" stop-color="#D9D9D9"/></linearGradient><linearGradient id="k" x1="20.115" x2="50.058" y1="31.945" y2="87.305" gradientUnits="userSpaceOnUse"><stop stop-color="#fff" stop-opacity=".24"/><stop offset="1" stop-opacity=".5"/></linearGradient><radialGradient id="i" cx="0" cy="0" r="1" gradientTransform="matrix(4.29057 1.91667 -3.18021 2.58587 59.725 96.045)" gradientUnits="userSpaceOnUse"><stop stop-color="#9C9C9C"/><stop offset=".528" stop-color="#E8E8E8"/><stop offset="1" stop-color="#E8E8E8"/></radialGradient><radialGradient id="j" cx="0" cy="0" r="1" gradientTransform="matrix(4.29057 1.91667 -3.18021 2.58587 114.424 96.045)" gradientUnits="userSpaceOnUse"><stop stop-color="#9C9C9C"/><stop offset=".528" stop-color="#E8E8E8"/><stop offset="1" stop-color="#E8E8E8"/></radialGradient><clipPath id="a"><path fill="#fff" d="M0 0h172v92H0z"/></clipPath></defs></svg>