<svg xmlns="http://www.w3.org/2000/svg" width="1080" height="576" fill="none" viewBox="0 0 1080 576"><g clip-path="url(#a)"><path fill="#F0F0F0" fill-rule="evenodd" d="M98.998 168.751a3.76 3.76 0 0 1 2.254-.751h877.496c.813 0 1.603.264 2.254.751L1020 198H60z" clip-rule="evenodd"/><path fill="#F1F1F1" fill-rule="evenodd" d="M378.995 354.439a.625.625 0 0 1 .597-.439h320.816c.274 0 .516.178.597.439L714 396H366z" clip-rule="evenodd"/><path fill="#AEAEAE" fill-rule="evenodd" d="M534.656 378.841h1.494v-3.308h-1.494zm13.564-2.354c-.054-.01-.54-.181-1.26-.181-.972 0-1.637.381-1.637.892 0 .492.647.883 1.637.883a4.2 4.2 0 0 0 1.26-.181v.882c-.18.04-.702.12-1.368.12-1.673 0-3.149-.651-3.149-1.704 0-.992 1.332-1.714 3.149-1.714.702 0 1.224.091 1.368.121zm-15.633 0c-.054-.01-.54-.181-1.26-.181-.971 0-1.637.381-1.637.892 0 .492.648.883 1.637.883a4.2 4.2 0 0 0 1.26-.181v.882c-.18.04-.684.12-1.35.12-1.691 0-3.167-.651-3.167-1.704 0-.992 1.332-1.714 3.167-1.714.702 0 1.224.091 1.35.121zm20.351-.169c-.882 0-1.548.401-1.548.873 0 .481.666.872 1.548.872.9 0 1.547-.391 1.547-.872 0-.472-.647-.873-1.547-.873m3.139.872c0 .943-1.314 1.714-3.149 1.714-1.818 0-3.131-.771-3.131-1.714 0-.942 1.313-1.704 3.131-1.704 1.835 0 3.149.762 3.149 1.704m-14.24-.902c-.018 0-.647-.1-1.169-.1-.612 0-.936.111-.936.271 0 .2.45.271.702.311l.396.08c.989.17 1.421.541 1.421.942 0 .832-1.295 1.113-2.447 1.113-.81 0-1.548-.091-1.638-.101v-.751c.144.02.774.12 1.422.12.756 0 1.098-.12 1.098-.311 0-.16-.306-.26-.684-.321-.072-.02-.216-.04-.306-.06-.846-.15-1.548-.421-1.548-.972 0-.611.846-1.032 2.232-1.032.72 0 1.403.1 1.457.11zm-15.343-4.301c0-.231-.36-.411-.756-.411-.414 0-.738.18-.738.411v.862c0 .231.324.421.738.421.396 0 .756-.19.756-.421zm4.078-1.14c0-.221-.342-.411-.756-.411-.396 0-.738.19-.738.411v2.004c0 .231.342.421.738.421.414 0 .756-.19.756-.421zm4.09-1.557c0-.231-.342-.411-.756-.411-.396 0-.738.18-.738.411v4.39c0 .221.342.411.738.411.414 0 .756-.19.756-.411zm4.066 1.557c0-.221-.342-.411-.738-.411-.414 0-.756.19-.756.411v2.004c0 .231.342.421.756.421.396 0 .738-.19.738-.421zm4.09 1.14c0-.23-.342-.411-.756-.411-.396 0-.738.181-.738.411v.862c0 .231.342.421.738.421.414 0 .756-.19.756-.421zm4.078-1.14c0-.221-.342-.411-.756-.411-.396 0-.738.19-.738.411v2.004c0 .231.342.421.738.421.414 0 .756-.19.756-.421zm4.09-1.557c0-.231-.324-.411-.738-.411s-.756.18-.756.411v4.39c0 .221.342.411.756.411s.738-.19.738-.411zm4.092 1.557c0-.221-.342-.411-.756-.411s-.738.19-.738.411v2.004c0 .231.324.421.738.421s.756-.19.756-.421zm4.076 1.14c0-.23-.342-.411-.738-.411-.414 0-.756.181-.756.411v.862c0 .231.342.421.756.421.396 0 .738-.19.738-.421z" clip-rule="evenodd"/><rect width="348" height="18" x="366" y="396" fill="url(#b)" rx=".626"/><rect width="348" height="18" x="366" y="396" fill="#000" fill-opacity=".04" rx=".626"/><g filter="url(#c)"><path fill="url(#d)" fill-rule="evenodd" d="M70 312c-5.53 0-10-4.47-10-10V202c0-5.53 4.47-10 10-10h940c5.53 0 10 4.47 10 10v100c0 5.53-4.47 10-10 10z" clip-rule="evenodd"/></g><path fill="#fff" fill-rule="evenodd" d="M89.66 293.555h1.494v-6.616H89.66zm13.564-4.716c-.054-.02-.54-.361-1.26-.361-.972 0-1.637.762-1.637 1.784 0 .982.647 1.764 1.637 1.764.702 0 1.206-.321 1.26-.361v1.765c-.18.08-.702.24-1.368.24-1.673 0-3.149-1.303-3.149-3.408 0-1.985 1.332-3.428 3.149-3.428.702 0 1.224.18 1.368.241zm-15.633 0c-.054-.02-.54-.361-1.26-.361-.972 0-1.637.762-1.637 1.784 0 .982.647 1.764 1.637 1.764.702 0 1.206-.321 1.26-.361v1.764c-.18.081-.684.241-1.35.241-1.691 0-3.167-1.303-3.167-3.408 0-1.985 1.332-3.428 3.167-3.428.702 0 1.224.18 1.35.24zm20.351-.333c-.882 0-1.547.802-1.547 1.744 0 .962.665 1.744 1.547 1.744.9 0 1.548-.782 1.548-1.744 0-.942-.648-1.744-1.548-1.744m3.139 1.744c0 1.884-1.314 3.428-3.149 3.428-1.818 0-3.131-1.544-3.131-3.428 0-1.885 1.313-3.408 3.131-3.408 1.835 0 3.149 1.523 3.149 3.408m-14.24-1.8c-.018 0-.648-.2-1.17-.2-.611 0-.935.22-.935.541 0 .401.45.541.702.621l.395.161c.99.34 1.422 1.082 1.422 1.884 0 1.664-1.295 2.225-2.447 2.225-.81 0-1.548-.18-1.638-.2v-1.504c.144.04.774.241 1.422.241.756 0 1.098-.241 1.098-.622 0-.32-.306-.521-.684-.641-.072-.04-.216-.08-.306-.12-.846-.301-1.548-.842-1.548-1.945 0-1.223.846-2.065 2.232-2.065.72 0 1.403.201 1.457.221zm-15.343-8.607c0-.461-.36-.822-.756-.822-.414 0-.738.361-.738.822v1.724c0 .462.324.842.738.842.396 0 .755-.38.755-.842zm4.078-2.281c0-.441-.342-.822-.756-.822-.396 0-.738.381-.738.822v4.01c0 .461.342.842.738.842.414 0 .756-.381.756-.842zm4.09-3.113c0-.461-.343-.822-.756-.822-.396 0-.738.361-.738.822v8.781c0 .441.342.822.738.822.413 0 .755-.381.755-.822zm4.066 3.115c0-.441-.342-.822-.738-.822-.414 0-.756.381-.756.822v4.01c0 .461.342.842.756.842.396 0 .738-.381.738-.842zm4.09 2.279c0-.461-.342-.822-.756-.822-.396 0-.738.361-.738.822v1.724c0 .462.342.842.738.842.414 0 .756-.38.756-.842zm4.078-2.281c0-.441-.342-.822-.756-.822-.396 0-.738.381-.738.822v4.01c0 .461.342.842.738.842.414 0 .756-.381.756-.842zm4.09-3.113c0-.461-.324-.822-.738-.822s-.756.361-.756.822v8.781c0 .441.342.822.756.822s.738-.381.738-.822zm4.091 3.113c0-.441-.341-.822-.755-.822s-.738.381-.738.822v4.01c0 .461.324.842.738.842s.755-.381.755-.842zm4.077 2.281c0-.461-.342-.822-.738-.822-.414 0-.756.361-.756.822v1.724c0 .462.342.842.756.842.396 0 .738-.38.738-.842z" clip-rule="evenodd"/><g filter="url(#e)"><path fill="url(#f)" fill-rule="evenodd" d="M608.304 283.654h-138.6c-16.404 0-29.7-13.466-29.7-30.08s13.296-30.08 29.7-30.08h138.6c16.404 0 29.7 13.466 29.7 30.08s-13.296 30.08-29.7 30.08" clip-rule="evenodd"/></g><path fill="#666" fill-rule="evenodd" d="M470 266.108c-6.89 0-12.5-5.625-12.5-12.534 0-6.908 5.61-12.533 12.5-12.533s12.5 5.625 12.5 12.533c0 6.909-5.61 12.534-12.5 12.534" clip-rule="evenodd"/><path fill="#000" fill-rule="evenodd" d="M470.004 238.533c-8.27 0-15 6.748-15 15.04s6.73 15.04 15 15.04 15-6.748 15-15.04-6.73-15.04-15-15.04m.004 5.012c5.53 0 10 4.482 10 10.027s-4.47 10.026-10 10.026-10-4.482-10-10.026c0-5.545 4.47-10.027 10-10.027" clip-rule="evenodd"/><path fill="#666" fill-rule="evenodd" d="M509.996 266.108c-6.89 0-12.5-5.625-12.5-12.534 0-6.908 5.61-12.533 12.5-12.533s12.5 5.625 12.5 12.533c0 6.909-5.61 12.534-12.5 12.534" clip-rule="evenodd"/><path fill="#000" fill-rule="evenodd" d="M510 238.533c-8.27 0-15 6.748-15 15.04s6.73 15.04 15 15.04 15-6.748 15-15.04-6.73-15.04-15-15.04m.004 5.012c5.53 0 10 4.482 10 10.027s-4.47 10.026-10 10.026-10-4.482-10-10.026c0-5.545 4.47-10.027 10-10.027" clip-rule="evenodd"/><path fill="#666" fill-rule="evenodd" d="M550.004 266.108c-6.89 0-12.5-5.625-12.5-12.534 0-6.908 5.61-12.533 12.5-12.533s12.5 5.625 12.5 12.533c0 6.909-5.61 12.534-12.5 12.534" clip-rule="evenodd"/><path fill="#000" fill-rule="evenodd" d="M549.996 238.533c-8.27 0-15 6.748-15 15.04s6.73 15.04 15 15.04 15-6.748 15-15.04-6.73-15.04-15-15.04m.004 5.012c5.53 0 10 4.482 10 10.027s-4.47 10.026-10 10.026-10-4.482-10-10.026c0-5.545 4.47-10.027 10-10.027" clip-rule="evenodd"/><path fill="#666" fill-rule="evenodd" d="M609.996 268.613c-8.27 0-15-6.748-15-15.04s6.73-15.04 15-15.04 15 6.748 15 15.04-6.73 15.04-15 15.04" clip-rule="evenodd"/><path fill="url(#g)" fill-rule="evenodd" d="M610.004 233.518c-11.03 0-20 8.993-20 20.053 0 11.059 8.97 20.053 20 20.053s20-8.994 20-20.053-8.97-20.053-20-20.053M610 243.543c5.53 0 10 4.482 10 10.027s-4.47 10.026-10 10.026-10-4.482-10-10.026c0-5.545 4.47-10.027 10-10.027" clip-rule="evenodd"/></g><defs><linearGradient id="b" x1="366" x2="714" y1="423" y2="423" gradientUnits="userSpaceOnUse"><stop stop-color="#EFEFEF"/><stop offset=".011" stop-color="#F7F7F7"/><stop offset=".03" stop-color="#ECEBEB"/><stop offset=".978" stop-color="#ECEBEB"/><stop offset=".991" stop-color="#F7F7F7"/><stop offset="1" stop-color="#EFEFEF"/></linearGradient><linearGradient id="d" x1="60" x2="60" y1="192" y2="312" gradientUnits="userSpaceOnUse"><stop stop-color="#DFDFDF"/><stop offset="1" stop-color="#7E7E7E"/></linearGradient><linearGradient id="f" x1="440.004" x2="638.004" y1="283.654" y2="283.654" gradientUnits="userSpaceOnUse"><stop stop-color="#2B2B2B"/><stop offset=".564" stop-color="#4F4F4F"/><stop offset=".676" stop-color="#535353"/><stop offset=".761" stop-color="#4A4A4A"/><stop offset="1" stop-color="#1C1C1C"/></linearGradient><linearGradient id="g" x1="590.004" x2="590.004" y1="233.518" y2="273.624" gradientUnits="userSpaceOnUse"><stop stop-color="#2B2B2B"/><stop offset=".492" stop-color="#434343"/><stop offset="1" stop-color="#1C1C1C"/></linearGradient><filter id="c" width="960" height="120" x="60" y="192" color-interpolation-filters="sRGB" filterUnits="userSpaceOnUse"><feFlood flood-opacity="0" result="BackgroundImageFix"/><feBlend in="SourceGraphic" in2="BackgroundImageFix" result="shape"/><feColorMatrix in="SourceAlpha" result="hardAlpha" values="0 0 0 0 0 0 0 0 0 0 0 0 0 0 0 0 0 0 127 0"/><feOffset dy="1"/><feComposite in2="hardAlpha" k2="-1" k3="1" operator="arithmetic"/><feColorMatrix values="0 0 0 0 1 0 0 0 0 1 0 0 0 0 1 0 0 0 0.500906 0"/><feBlend in2="shape" result="effect1_innerShadow_23746_2129"/></filter><filter id="e" width="198" height="61.16" x="440.004" y="222.494" color-interpolation-filters="sRGB" filterUnits="userSpaceOnUse"><feFlood flood-opacity="0" result="BackgroundImageFix"/><feBlend in="SourceGraphic" in2="BackgroundImageFix" result="shape"/><feColorMatrix in="SourceAlpha" result="hardAlpha" values="0 0 0 0 0 0 0 0 0 0 0 0 0 0 0 0 0 0 127 0"/><feOffset dy="-1"/><feGaussianBlur stdDeviation="2"/><feComposite in2="hardAlpha" k2="-1" k3="1" operator="arithmetic"/><feColorMatrix values="0 0 0 0 0 0 0 0 0 0 0 0 0 0 0 0 0 0 0.5 0"/><feBlend in2="shape" result="effect1_innerShadow_23746_2129"/></filter><clipPath id="a"><path fill="#fff" d="M0 0h1080v576H0z"/></clipPath></defs></svg>