<svg xmlns="http://www.w3.org/2000/svg" width="172" height="92" fill="none" viewBox="0 0 172 92"><g clip-path="url(#a)"><mask id="c" fill="#fff"><path d="M144.021 18.208a6 6 0 0 1 6 6v43.584a6 6 0 0 1-6 6H27.977a6 6 0 0 1-6-6V24.208a6 6 0 0 1 6-6zM77.019 42.295c-7.163 0-12.97 5.806-12.97 12.969s5.807 12.97 12.97 12.97H94.98c7.162 0 12.969-5.807 12.969-12.97s-5.807-12.97-12.97-12.97z"/></mask><path fill="url(#b)" d="M144.021 18.208a6 6 0 0 1 6 6v43.584a6 6 0 0 1-6 6H27.977a6 6 0 0 1-6-6V24.208a6 6 0 0 1 6-6zM77.019 42.295c-7.163 0-12.97 5.806-12.97 12.969s5.807 12.97 12.97 12.97H94.98c7.162 0 12.969-5.807 12.969-12.97s-5.807-12.97-12.97-12.97z"/><path fill="#000" fill-opacity=".4" d="m144.021 18.208.001-.5h-.001zm6 6h.5zm0 43.584h.5zm-6 6v.5h.001zm-116.044 0v.5zm-6-6h-.5zm0-43.584h-.5zm6-6v-.5zm49.042 24.087v-.5zm-12.97 12.969h-.5zm12.97 12.97v.5zm30.931-12.97h.5zm36.071-37.056v.5a5.5 5.5 0 0 1 5.5 5.5h1a6.5 6.5 0 0 0-6.499-6.5zm6 6h-.5v43.584h1V24.208zm0 43.584h-.5a5.5 5.5 0 0 1-5.5 5.5v.5l.001.5a6.5 6.5 0 0 0 6.499-6.5zm-6 6v-.5H27.977v1H144.02zm-116.044 0v-.5a5.5 5.5 0 0 1-5.5-5.5h-1a6.5 6.5 0 0 0 6.5 6.5zm-6-6h.5V24.208h-1v43.584zm0-43.584h.5a5.5 5.5 0 0 1 5.5-5.5v-1a6.5 6.5 0 0 0-6.5 6.5zm6-6v.5H144.02v-1H27.977zm49.042 24.087v-.5c-7.44 0-13.47 6.03-13.47 13.469h1c0-6.887 5.583-12.469 12.47-12.47zm-12.97 12.969h-.5c0 7.439 6.03 13.47 13.47 13.47v-1c-6.887 0-12.47-5.584-12.47-12.47zm12.97 12.97v.5H94.98v-1H77.019zm17.962 0v.5c7.438 0 13.469-6.031 13.469-13.47h-1c0 6.886-5.583 12.47-12.47 12.47zm12.969-12.97h.5c0-7.44-6.031-13.47-13.47-13.47v1c6.887 0 12.47 5.583 12.47 12.47zm-12.97-12.97v-.5H77.02v1H94.98z" mask="url(#c)"/><path fill="#323232" fill-rule="evenodd" d="M76.852 40.442h18.292v16.675H76.852z" clip-rule="evenodd"/><path stroke="#fff" stroke-opacity=".8" stroke-width=".5" d="M95.394 40.192v17.175H76.602V40.192z"/><g stroke-width="1.92" filter="url(#d)"><rect width="45.639" height="27.724" x="63.181" y="41.402" stroke="url(#e)" rx="13.862"/><rect width="45.639" height="27.724" x="63.181" y="41.402" stroke="#fff" stroke-opacity=".8" rx="13.862"/></g><g filter="url(#f)"><ellipse cx="85.999" cy="57.117" fill="#323232" rx="10.975" ry="11.117"/><path stroke="#fff" stroke-opacity=".6" stroke-width=".5" d="M85.999 45.75c6.202 0 11.224 5.092 11.225 11.366 0 6.275-5.023 11.367-11.225 11.367-6.203 0-11.226-5.092-11.226-11.367 0-6.274 5.024-11.366 11.226-11.366Z"/></g><ellipse cx="86" cy="57.117" fill="#00222C" rx="7.317" ry="7.411"/><path stroke="#fff" stroke-opacity=".16" stroke-width=".5" d="M86 49.956c3.9 0 7.067 3.203 7.067 7.16 0 3.959-3.167 7.162-7.067 7.162s-7.066-3.204-7.066-7.161c0-3.958 3.166-7.161 7.066-7.161Z"/><ellipse cx="86" cy="57.117" fill="#000" rx="3.658" ry="3.706"/><path stroke="#fff" stroke-opacity=".231" stroke-width=".5" d="M86 53.161c2.161 0 3.908 1.774 3.908 3.955S88.162 61.072 86 61.072s-3.908-1.774-3.908-3.956 1.747-3.955 3.908-3.955Z"/><ellipse cx="140.875" cy="64.528" fill="#000" fill-opacity=".08" rx="3.658" ry="3.706"/><ellipse cx="140.874" cy="64.528" fill="#000" fill-opacity=".08" rx="1.829" ry="1.853"/><path stroke="#fff" stroke-opacity=".4" stroke-width=".5" d="M140.874 62.425c1.151 0 2.079.945 2.079 2.103s-.928 2.102-2.079 2.102-2.079-.944-2.079-2.102.928-2.103 2.079-2.103Z"/><path fill="#908E8E" fill-rule="evenodd" d="M83.564 32.984h.567V30.54h-.567zm5.148-1.743c-.02-.007-.205-.133-.478-.133-.369 0-.621.282-.621.66 0 .362.245.651.62.651a.9.9 0 0 0 .479-.133v.652c-.069.03-.267.089-.52.089-.634 0-1.194-.482-1.194-1.26 0-.733.505-1.267 1.195-1.267.266 0 .464.067.519.09zm-5.93 0c-.02-.007-.204-.133-.477-.133-.369 0-.622.282-.622.66 0 .362.246.651.622.651a.9.9 0 0 0 .478-.133v.652c-.069.03-.26.089-.512.089-.642 0-1.202-.482-1.202-1.26 0-.733.505-1.267 1.202-1.267.266 0 .464.067.512.09zm7.717-.122c-.335 0-.588.296-.588.644 0 .356.253.645.588.645.34 0 .587-.29.587-.645 0-.348-.246-.645-.587-.645m1.196.645c0 .697-.498 1.267-1.195 1.267-.69 0-1.188-.57-1.188-1.267 0-.696.499-1.26 1.188-1.26.697 0 1.195.564 1.195 1.26m-5.406-.666c-.007 0-.246-.074-.444-.074-.232 0-.355.082-.355.2 0 .148.17.2.266.23l.15.06c.376.125.54.4.54.695 0 .616-.492.823-.929.823-.307 0-.587-.067-.621-.074V32.4c.055.015.293.09.54.09.286 0 .416-.09.416-.23 0-.12-.116-.193-.26-.238-.027-.015-.082-.03-.116-.044-.32-.111-.587-.311-.587-.719 0-.452.321-.763.847-.763.273 0 .532.074.553.082zm-5.82-3.18c0-.17-.137-.304-.287-.304-.157 0-.28.134-.28.304v.637c0 .17.123.312.28.312.15 0 .287-.141.287-.312zm1.547-.843c0-.163-.13-.304-.287-.304-.15 0-.28.14-.28.304v1.482c0 .17.13.31.28.31.157 0 .287-.14.287-.31zm1.55-1.15c0-.171-.13-.304-.288-.304-.15 0-.28.133-.28.303v3.246c0 .162.13.303.28.303.157 0 .287-.14.287-.303zm1.546 1.15c0-.163-.13-.304-.28-.304-.156 0-.286.14-.286.304v1.482c0 .17.13.31.286.31.15 0 .28-.14.28-.31zm1.55.843c0-.17-.13-.303-.287-.303-.15 0-.28.133-.28.303v.638c0 .17.13.31.28.31.157 0 .286-.14.286-.31zm1.547-.843c0-.163-.13-.304-.287-.304-.15 0-.28.14-.28.304v1.482c0 .17.13.31.28.31.157 0 .287-.14.287-.31zm1.55-1.15c0-.171-.123-.304-.28-.304a.295.295 0 0 0-.286.303v3.246c0 .162.13.303.286.303.157 0 .28-.14.28-.303zm1.553 1.15c0-.163-.13-.304-.286-.304-.157 0-.28.14-.28.304v1.482c0 .17.123.31.28.31s.286-.14.286-.31zm1.547.843c0-.17-.13-.304-.28-.304a.295.295 0 0 0-.286.304v.637c0 .17.13.312.286.312.15 0 .28-.141.28-.312z" clip-rule="evenodd"/></g><defs><linearGradient id="b" x1="150.021" x2="150.021" y1="73.792" y2="18.208" gradientUnits="userSpaceOnUse"><stop stop-color="#B9B9B9"/><stop offset="1" stop-color="#F2F2F2"/></linearGradient><linearGradient id="e" x1="62.221" x2="62.221" y1="40.442" y2="70.086" gradientUnits="userSpaceOnUse"><stop stop-color="#F4F4F4"/><stop offset="1" stop-color="#EBEBEB"/></linearGradient><filter id="d" width="47.559" height="29.645" x="62.221" y="40.442" color-interpolation-filters="sRGB" filterUnits="userSpaceOnUse"><feFlood flood-opacity="0" result="BackgroundImageFix"/><feBlend in="SourceGraphic" in2="BackgroundImageFix" result="shape"/><feColorMatrix in="SourceAlpha" result="hardAlpha" values="0 0 0 0 0 0 0 0 0 0 0 0 0 0 0 0 0 0 127 0"/><feOffset dy="-4"/><feComposite in2="hardAlpha" k2="-1" k3="1" operator="arithmetic"/><feColorMatrix values="0 0 0 0 0 0 0 0 0 0 0 0 0 0 0 0 0 0 0.5 0"/><feBlend in2="shape" result="effect1_innerShadow_30148_7197"/></filter><filter id="f" width="22.951" height="25.233" x="74.523" y="43.5" color-interpolation-filters="sRGB" filterUnits="userSpaceOnUse"><feFlood flood-opacity="0" result="BackgroundImageFix"/><feColorMatrix in="SourceAlpha" result="hardAlpha" values="0 0 0 0 0 0 0 0 0 0 0 0 0 0 0 0 0 0 127 0"/><feOffset dy="-2"/><feColorMatrix values="0 0 0 0 1 0 0 0 0 1 0 0 0 0 1 0 0 0 0.8 0"/><feBlend in2="BackgroundImageFix" result="effect1_dropShadow_30148_7197"/><feBlend in="SourceGraphic" in2="effect1_dropShadow_30148_7197" result="shape"/></filter><clipPath id="a"><path fill="#fff" d="M0 0h172v92H0z"/></clipPath></defs></svg>