<svg xmlns="http://www.w3.org/2000/svg" width="33" height="33" fill="none" viewBox="0 0 33 33"><path fill="#188038" d="m18.695 16.393 2.73 3.12 3.67 2.32.64-5.419-.64-5.325-3.74 2.06z"/><path fill="#1967D2" d="M2.855 21.353v4.64c0 1.061.86 1.92 1.92 1.92h4.64l.96-3.507-.96-3.052-3.183-.96z"/><path fill="#EA4335" d="m9.416 4.873-6.56 6.56 3.376.96 3.184-.96.944-3.012z"/><path fill="#4285F4" d="M9.416 11.433h-6.56v9.92h6.56z"/><path fill="#34A853" d="m29.286 7.65-4.19 3.44v10.743l4.208 3.58a.96.96 0 0 0 1.552-.757V8.393a.96.96 0 0 0-1.57-.742M18.696 16.393v4.96h-9.28v6.56h13.76c1.06 0 1.92-.859 1.92-1.92v-4.16z"/><path fill="#FBBC04" d="M23.176 4.873H9.416v6.56h9.28v4.96l6.4-5.304V6.793c0-1.06-.86-1.92-1.92-1.92"/></svg>