<svg xmlns="http://www.w3.org/2000/svg" width="33" height="33" fill="none" viewBox="0 0 33 33"><path fill="#5059C9" d="M21.991 13.212h7.068c.668 0 1.21.541 1.21 1.209v6.438a4.444 4.444 0 0 1-4.444 4.443h-.021a4.444 4.444 0 0 1-4.445-4.443v-7.016c0-.348.283-.631.632-.631M26.768 11.939a2.864 2.864 0 1 0 0-5.727 2.864 2.864 0 0 0 0 5.727"/><path fill="#7B83EB" d="M17.859 11.939a4.136 4.136 0 1 0 0-8.273 4.136 4.136 0 0 0 0 8.273M23.375 13.212H11.708a1.196 1.196 0 0 0-1.167 1.223v7.343a7.18 7.18 0 0 0 7 7.343 7.177 7.177 0 0 0 7-7.343v-7.343a1.196 1.196 0 0 0-1.166-1.223"/><path fill="#000" d="M18.176 13.212v10.29a1.17 1.17 0 0 1-1.165 1.164H11.1a7.753 7.753 0 0 1-.56-2.89v-7.342a1.194 1.194 0 0 1 1.165-1.222z" opacity=".1"/><path fill="#000" d="M17.54 13.212v10.926a1.171 1.171 0 0 1-1.165 1.165h-4.976q-.164-.313-.3-.637a6 6 0 0 1-.222-.636 7.8 7.8 0 0 1-.338-2.253v-7.344a1.194 1.194 0 0 1 1.165-1.221z" opacity=".2"/><path fill="#000" d="M17.54 13.212v9.653a1.173 1.173 0 0 1-1.165 1.165h-5.498a7.8 7.8 0 0 1-.338-2.253v-7.344a1.194 1.194 0 0 1 1.165-1.221z" opacity=".2"/><path fill="#000" d="M16.903 13.212v9.653a1.173 1.173 0 0 1-1.164 1.165h-4.862a7.8 7.8 0 0 1-.338-2.253v-7.344a1.194 1.194 0 0 1 1.165-1.221z" opacity=".2"/><path fill="#000" d="M18.176 9.921v2.005c-.108.006-.21.013-.318.013s-.21-.007-.318-.013a3.5 3.5 0 0 1-.637-.102 4.14 4.14 0 0 1-2.863-2.43 3.5 3.5 0 0 1-.204-.637h3.175a1.17 1.17 0 0 1 1.165 1.164" opacity=".1"/><path fill="#000" d="M17.541 10.558v1.368a3.5 3.5 0 0 1-.636-.102 4.14 4.14 0 0 1-2.864-2.43h2.335a1.17 1.17 0 0 1 1.165 1.164" opacity=".2"/><path fill="#000" d="M17.541 10.558v1.368a3.5 3.5 0 0 1-.636-.102 4.14 4.14 0 0 1-2.864-2.43h2.335a1.17 1.17 0 0 1 1.165 1.164" opacity=".2"/><path fill="#000" d="M16.905 10.558v1.266a4.14 4.14 0 0 1-2.864-2.43h1.7a1.17 1.17 0 0 1 1.164 1.164" opacity=".2"/><path fill="url(#a)" d="M4.07 9.393h11.668c.644 0 1.166.523 1.166 1.167v11.667c0 .644-.522 1.166-1.166 1.166H4.07a1.167 1.167 0 0 1-1.167-1.166V10.56c0-.644.523-1.167 1.167-1.167"/><path fill="#fff" d="M12.974 13.834H10.64v6.351H9.155v-6.35H6.834v-1.233h6.14z"/><defs><linearGradient id="a" x1="5.336" x2="14.472" y1="8.482" y2="24.305" gradientUnits="userSpaceOnUse"><stop stop-color="#5A62C3"/><stop offset=".5" stop-color="#4D55BD"/><stop offset="1" stop-color="#3940AB"/></linearGradient></defs></svg>