<svg xmlns="http://www.w3.org/2000/svg" width="33" height="33" fill="none" viewBox="0 0 33 33"><path fill="#0F0F0F" d="M30.71 16.393c0 7.732-6.267 14-14 14-7.731 0-14-6.268-14-14s6.269-14 14-14c7.733 0 14 6.268 14 14M17.214 12.73q-2.043.849-8.165 3.517-.994.394-1.041.773c-.054.426.48.594 1.206.822l.307.098c.714.232 1.676.504 2.176.515q.68.014 1.518-.561 5.72-3.861 5.905-3.903c.087-.02.208-.045.29.028s.074.21.065.247c-.053.226-2.147 2.173-3.23 3.18-.339.314-.578.537-.627.588q-.167.17-.33.326c-.664.64-1.162 1.12.028 1.904.572.377 1.03.688 1.486.999.498.34.995.678 1.639 1.1.163.107.32.219.472.327.58.414 1.102.785 1.745.726.374-.034.76-.386.957-1.435.464-2.48 1.375-7.852 1.586-10.066a2.5 2.5 0 0 0-.023-.55.6.6 0 0 0-.2-.38c-.167-.136-.426-.165-.542-.163-.526.01-1.334.29-5.222 1.908"/></svg>