<svg xmlns="http://www.w3.org/2000/svg" width="32" height="33" fill="none" viewBox="0 0 32 33"><path fill="#1877F2" d="M30 16.393c0-7.732-6.268-14-14-14s-14 6.268-14 14c0 6.988 5.12 12.78 11.813 13.83V20.44h-3.555v-4.047h3.555V13.31c0-3.509 2.09-5.447 5.288-5.447 1.531 0 3.133.274 3.133.274v3.445H20.47c-1.74 0-2.282 1.079-2.282 2.186v2.626h3.883l-.62 4.047h-3.262v9.783C24.88 29.173 30 23.381 30 16.393"/><path fill="#fff" d="m21.45 20.44.62-4.047h-3.883v-2.626c0-1.107.543-2.186 2.282-2.186h1.765V8.136s-1.602-.274-3.134-.274c-3.197 0-5.288 1.938-5.288 5.447v3.084h-3.554v4.047h3.555v9.783a14.2 14.2 0 0 0 4.374 0V20.44z"/></svg>