<svg xmlns="http://www.w3.org/2000/svg" width="33" height="33" fill="none" viewBox="0 0 33 33"><path fill="#0F0F0F" d="M2.418 12.827c0-4.658 4.53-8.434 10.12-8.434 5.05 0 9.234 3.082 9.996 7.11a11 11 0 0 0-.55-.014c-5.097 0-9.23 3.444-9.23 7.691 0 .717.12 1.41.34 2.067q-.276.014-.556.014c-1.155 0-2.27-.166-3.303-.463a1 1 0 0 0-.298-.044c-.194 0-.37.059-.537.155l-2.215 1.28a.4.4 0 0 1-.196.062.337.337 0 0 1-.337-.337c0-.063.019-.126.037-.187l.018-.06.455-1.7a.674.674 0 0 0-.248-.765c-2.133-1.546-3.496-3.834-3.496-6.375m6.747-1.35a1.35 1.35 0 1 0 0-2.698 1.35 1.35 0 0 0 0 2.699m5.397-1.349a1.35 1.35 0 1 0 2.699 0 1.35 1.35 0 0 0-2.699 0"/><path fill="#0F0F0F" d="M30.418 19.18c0 2.118-1.136 4.024-2.914 5.313a.56.56 0 0 0-.207.637l.395 1.468c.015.05.03.103.03.155a.28.28 0 0 1-.28.28.3.3 0 0 1-.163-.052l-1.846-1.065a.9.9 0 0 0-.448-.13.9.9 0 0 0-.248.037 10 10 0 0 1-2.753.385c-4.658 0-8.433-3.146-8.433-7.028s3.775-7.028 8.433-7.028 8.434 3.147 8.434 7.028m-12.37-2.248a1.124 1.124 0 1 0 2.25 0 1.124 1.124 0 0 0-2.25 0m5.623 0a1.125 1.125 0 1 0 2.25 0 1.125 1.125 0 0 0-2.25 0"/></svg>