<svg xmlns="http://www.w3.org/2000/svg" width="33" height="33" fill="none" viewBox="0 0 33 33"><path fill="url(#a)" fill-rule="evenodd" d="M30.73 23.288c0 .153-.005.486-.014.742-.022.629-.072 1.44-.147 1.81a6 6 0 0 1-.507 1.515 5.4 5.4 0 0 1-2.376 2.372 6 6 0 0 1-1.524.508c-.366.073-1.17.122-1.795.145-.257.009-.59.013-.742.013l-13.787-.002c-.154 0-.486-.005-.743-.014-.628-.022-1.439-.072-1.808-.147a6 6 0 0 1-1.516-.507 5.4 5.4 0 0 1-2.373-2.376 6 6 0 0 1-.507-1.524c-.074-.366-.123-1.17-.145-1.795-.009-.257-.014-.59-.014-.742l.003-13.787c0-.154.004-.486.014-.743.022-.628.072-1.44.147-1.809a6 6 0 0 1 .507-1.515A5.4 5.4 0 0 1 5.78 3.059a6 6 0 0 1 1.524-.507c.366-.074 1.17-.123 1.795-.145.257-.01.59-.014.742-.014l13.787.003c.153 0 .486.004.743.013.628.023 1.439.073 1.808.148a6 6 0 0 1 1.516.507 5.4 5.4 0 0 1 2.373 2.375c.236.484.406.996.507 1.525.074.365.122 1.17.145 1.795.009.257.013.59.013.742z" clip-rule="evenodd"/><path fill="#fff" fill-rule="evenodd" d="M24.673 9.3a10.4 10.4 0 0 0-3.391-2.156 10.9 10.9 0 0 0-4.006-.75c-5.763 0-10.453 4.445-10.456 9.91a9.5 9.5 0 0 0 1.396 4.954l-1.484 5.135 5.543-1.378a10.9 10.9 0 0 0 4.997 1.206h.004c5.763 0 10.454-4.446 10.456-9.91a9.4 9.4 0 0 0-.789-3.796 9.8 9.8 0 0 0-2.27-3.215m-7.397 15.248h-.003A9.04 9.04 0 0 1 12.85 23.4l-.318-.179-3.29.818.879-3.04-.207-.311a7.9 7.9 0 0 1-1.329-4.384c.002-4.542 3.901-8.237 8.695-8.237 1.141 0 2.271.214 3.325.629a8.7 8.7 0 0 1 2.82 1.787 8.2 8.2 0 0 1 1.882 2.674c.436 1 .66 2.071.66 3.153-.002 4.543-3.9 8.238-8.69 8.238m4.767-6.17c-.26-.123-1.545-.722-1.785-.805s-.413-.124-.587.124-.675.806-.828.97c-.152.166-.305.186-.566.063-.261-.124-1.103-.386-2.1-1.23-.777-.656-1.302-1.467-1.454-1.715-.153-.248-.016-.382.114-.505.118-.111.262-.29.392-.434s.174-.248.261-.413.044-.31-.021-.434c-.066-.124-.588-1.343-.806-1.839-.212-.483-.428-.417-.588-.425a11 11 0 0 0-.5-.008 1 1 0 0 0-.383.085 1 1 0 0 0-.314.224c-.24.248-.914.847-.914 2.066 0 1.22.936 2.396 1.066 2.562.131.165 1.843 2.666 4.463 3.739q.73.299 1.49.522c.625.188 1.195.162 1.645.098.502-.071 1.546-.6 1.764-1.178s.217-1.074.152-1.177c-.065-.104-.24-.166-.5-.29" clip-rule="evenodd"/><defs><linearGradient id="a" x1="16.732" x2="16.732" y1="30.393" y2="2.393" gradientUnits="userSpaceOnUse"><stop stop-color="#25CF43"/><stop offset="1" stop-color="#61FD7D"/></linearGradient></defs></svg>