<svg xmlns="http://www.w3.org/2000/svg" width="33" height="33" fill="none" viewBox="0 0 33 33"><path fill="url(#a)" d="M16.465 30.393c7.732 0 14-6.268 14-14s-6.268-14-14-14-14 6.268-14 14 6.268 14 14 14"/><path fill="#fff" fill-rule="evenodd" d="M8.802 16.246q6.122-2.668 8.165-3.517c3.888-1.617 4.695-1.898 5.222-1.908.116-.002.375.027.542.163a.6.6 0 0 1 .2.38c.018.108.042.356.023.55-.21 2.214-1.122 7.586-1.586 10.066-.196 1.049-.583 1.4-.957 1.435-.813.075-1.43-.537-2.218-1.053-1.232-.808-1.928-1.31-3.124-2.1-1.382-.91-.486-1.41.302-2.229.206-.214 3.788-3.472 3.857-3.768.009-.037.017-.175-.065-.247s-.203-.048-.29-.028q-.185.042-5.905 3.903-.838.575-1.518.56c-.5-.01-1.462-.282-2.177-.514-.876-.285-1.573-.436-1.512-.92q.046-.378 1.041-.773" clip-rule="evenodd"/><defs><linearGradient id="a" x1="16.465" x2="16.465" y1="2.393" y2="30.186" gradientUnits="userSpaceOnUse"><stop stop-color="#2AABEE"/><stop offset="1" stop-color="#229ED9"/></linearGradient></defs></svg>