<svg xmlns="http://www.w3.org/2000/svg" width="32" height="33" fill="none" viewBox="0 0 32 33"><path fill="#0F0F0F" d="M16 4.916c3.738 0 4.18.014 5.657.081 1.365.063 2.107.29 2.6.482a4.34 4.34 0 0 1 1.61 1.048 4.3 4.3 0 0 1 1.047 1.61c.192.493.42 1.234.482 2.6.067 1.475.082 1.918.082 5.656 0 3.739-.015 4.181-.082 5.658-.062 1.365-.29 2.106-.482 2.6a4.64 4.64 0 0 1-2.657 2.656c-.493.192-1.235.42-2.6.482-1.476.068-1.919.082-5.657.082s-4.181-.014-5.657-.082c-1.365-.062-2.107-.29-2.6-.482a4.34 4.34 0 0 1-1.61-1.047 4.34 4.34 0 0 1-1.047-1.61c-.192-.493-.42-1.234-.482-2.6-.067-1.475-.082-1.918-.082-5.657s.015-4.18.082-5.657c.062-1.365.29-2.106.482-2.6a4.34 4.34 0 0 1 1.047-1.61 4.34 4.34 0 0 1 1.61-1.046c.494-.192 1.235-.42 2.6-.483 1.476-.067 1.919-.081 5.657-.081m0-2.523c-3.802 0-4.279.016-5.772.085-1.49.068-2.508.304-3.398.65a6.9 6.9 0 0 0-2.48 1.615 6.9 6.9 0 0 0-1.615 2.48c-.346.89-.583 1.908-.65 3.398C2.016 12.114 2 12.591 2 16.393s.016 4.28.084 5.773c.068 1.49.305 2.507.651 3.398.352.934.903 1.78 1.615 2.48a6.9 6.9 0 0 0 2.48 1.615c.89.346 1.908.582 3.398.65 1.493.068 1.97.084 5.772.084s4.28-.016 5.772-.084c1.49-.068 2.508-.305 3.399-.65a7.16 7.16 0 0 0 4.094-4.095c.346-.89.583-1.908.651-3.398.068-1.494.084-1.97.084-5.773s-.016-4.279-.084-5.772c-.068-1.49-.305-2.508-.651-3.398a6.9 6.9 0 0 0-1.615-2.48 6.9 6.9 0 0 0-2.48-1.615c-.89-.346-1.908-.582-3.398-.65-1.493-.069-1.97-.085-5.772-.085m0 6.81a7.19 7.19 0 1 0 0 14.38 7.19 7.19 0 0 0 0-14.38m0 11.856a4.666 4.666 0 1 1 0-9.333 4.666 4.666 0 0 1 0 9.332m9.153-12.14a1.68 1.68 0 1 1-3.36 0 1.68 1.68 0 0 1 3.36 0"/></svg>