<svg xmlns="http://www.w3.org/2000/svg" width="33" height="33" fill="none" viewBox="0 0 33 33"><g clip-path="url(#a)"><path fill="url(#b)" d="M16.465 31.893c8.56 0 15.5-6.94 15.5-15.5s-6.94-15.5-15.5-15.5-15.5 6.94-15.5 15.5 6.94 15.5 15.5 15.5"/><path fill="#fff" fill-rule="evenodd" d="M7.981 16.23q6.778-2.953 9.04-3.894c4.304-1.79 5.198-2.101 5.781-2.112.128-.002.415.03.6.18.158.128.2.3.221.42.021.121.047.396.026.61-.233 2.452-1.242 8.4-1.756 11.144-.217 1.162-.645 1.551-1.059 1.59-.9.082-1.584-.595-2.455-1.167-1.365-.894-2.135-1.45-3.46-2.324-1.53-1.008-.538-1.562.334-2.468.229-.237 4.195-3.844 4.271-4.172.01-.04.019-.193-.072-.274-.09-.08-.224-.053-.32-.03q-.207.045-6.539 4.32-.928.638-1.68.621c-.554-.011-1.619-.312-2.41-.57-.97-.315-1.742-.482-1.675-1.018q.053-.419 1.153-.856" clip-rule="evenodd"/></g><defs><linearGradient id="b" x1="16.465" x2="16.465" y1=".893" y2="31.663" gradientUnits="userSpaceOnUse"><stop stop-color="#2AABEE"/><stop offset="1" stop-color="#229ED9"/></linearGradient><clipPath id="a"><path fill="#fff" d="M.465.393h32v32h-32z"/></clipPath></defs></svg>