<svg xmlns="http://www.w3.org/2000/svg" width="33" height="33" fill="none" viewBox="0 0 33 33"><g fill="#0F0F0F" clip-path="url(#a)"><path d="M31.549 17.09h-4.45a5.54 5.54 0 0 1-5.511 4.983H10.51a5.54 5.54 0 0 1-5.512-4.983H.548c.293 8.305 7.12 14.947 15.5 14.947 8.381 0 15.21-6.642 15.5-14.947M31.549 15.983h-4.45a5.54 5.54 0 0 0-5.511-4.982H10.51a5.54 5.54 0 0 0-5.512 4.982H.548c.293-8.304 7.12-14.946 15.5-14.946 8.381 0 15.21 6.642 15.5 14.946"/><path d="M12.725 16.537a2.215 2.215 0 1 1-4.43-.002 2.215 2.215 0 0 1 4.43.002M21.588 18.751a2.215 2.215 0 1 0 .001-4.43 2.215 2.215 0 0 0-.001 4.43"/></g><defs><clipPath id="a"><path fill="#fff" d="M.049.537h32v32h-32z"/></clipPath></defs></svg>