<svg xmlns="http://www.w3.org/2000/svg" width="61" height="41" fill="none" viewBox="0 0 61 41"><g clip-path="url(#a)"><g clip-path="url(#b)"><path fill="#000101" d="M56.123 27.454H.796l-.624-.09V14.611l.624-.09h.706l.443.263.444.262h.706l.262-.443V3.28l.09-.623h1.421l.263-.443V.795l.18-.533.09-.262.263.443.09.623.091.623v1.419l-.18.533-.091.623-.534.18h-.706l-.443.263v9.208l.09.624h1.42l.625.09.262.443h.706l.444-.263V9.143L7.7 8.7h1.42l.625.09v1.419l-.624.09h-.706l-.263.443v3.542l.443.263h.706l.444.262.443.263h.706l.263-.443V.443L11.419 0l.263.443v.705l.18.533v12.751l.625.09.262.443.624.09.624-.09.181-.533v-4.248l.09-.623.444.263.18.533.09.623.091.623.18.533.181.533.09.623.09.623.181.533.263.443.534.18h.706l.263-.442-.181-.533-.18-.533-.181-.533-.09-.623-.09-.624-.181-.533-.181-.533-.09-.623-.09-.623-.264-.443.09-.443.181-.533.263-.442.18-.533.091-.624.18-.533V3.083l-.18-.533-.09-.623-.263-.443-.18-.533L15.95.6l-.353-.353.444.09.443.263.263.442.262.443.181.533.18.533.091.623.09.624v3.542l-.18.533-.09.623-.181.533-.18.533-.091.623.18.533.181.533.18.533.091.624.09.623.181.533.18.533.263.443.263.442.624.09h2.84l.444-.262v-2.124l.353-.18.09.623.263.443.353.353.263.442.353.353.534.18.533.18.443-.262.444-.262.262-.443.263-.443.18-.533.091-.623.18-.533.091-.623.09-.623V9.315l-.18-.533v-.705l-.18-.533-.181-.533-.354-.353-.262-.442-.353-.353-.444-.262-.353-.353-.18-.533-.18-.533.09-.623.18-.533.353-.353.534.18.262.443.353.353.354-.18.18-.533.18-.533v-.706l-.18-.533-.263-.442-.353-.353-.443-.262.443.09.444.262.353.353.353.352.18.533v2.124l-.18.533-.18.533-.264.443-.533-.18-.353-.353-.534-.18-.263.442.353.353.354.353.352.352.354.353.353.352.18.533.18.533.181.533.09.624.091.623v2.837l-.18.533v.705l-.181.533.443.263.444.262.443.262h.706l.263-.442V8.954l.443-.262h1.42l.444.262v1.419l-.444-.09h-.706l-.534.18-.09.623v2.838l.18.533.625.09h.706l.263.443.624.09h.706l.09-.623V.262l.263-.09.262.443v13.464l.263.443h.706l.444-.262-.181-.533-.18-.533-.181-.533-.181-.533v-.705l.18.352.181.533.18.533.264.443.262.443.263.443.353.352.443.263.444.262.533-.18.534-.18.443-.263.263-.443.263-.443.263-.443.262-.442.18-.533.091-.624.09-.623.181-.533v-.705l.18-.533V5.56l-.18-.533V4.32l-.18-.533-.181-.533-.18-.533-.181-.533-.181-.533-.263-.442-.263-.443-.352-.353.443.09.353.353.263.443.262.443.263.442.18.533.181.533.18.533.091.624.09.623.09.623.091.623v4.248l-.18.533v.705l-.09.623-.091.623-.18.533-.181.533v.353l.624.09.443.263.443.262h2.84l.264-.443.09-.623.09-.623v-.705l.263-.09.263.442v1.419l.353.352.443.263h2.126l.444-.263.443-.262.353-.353.263-.442.263-.443.262-.443.18-.533.181-.533.09-.623.091-.623.18-.533V5.027l-.18-.533-.09-.624-.09-.623-.181-.533-.18-.533-.263-.443-.263-.442-.263-.443L49.333.5l-.18-.352.443.262.353.353.353.352.263.443.262.443.18.533.182.533.18.533.18.533v.705l.181.533V6.79l.181.533v2.123l-.18.533v1.419l-.181.533-.09.623-.09.623-.181.533-.181.533v.706l.624.09h4.967l.09-.623v-1.419l-.09-.623h-4.253l-.263-.443v-.705l.263-.443h5.673l.263-.443-.18-.533v-.705l.18-.533-.263-.443h-5.673l-.09-.623-.18-.533.443-.262h6.387l.09-.624-.18-.533v-.705l.18-.533.263-.09.09.623-.18.533.18.533.18.533.444.263.263-.443.18-.533v-.705l-.18-.533-.09-.443.443.262.18.533v2.837l-.262.443-.353.353-.18.352.09.624v1.066l.09.442-.09.624-.181.533-.443.262-.534-.18-.443.262v.705l.18.533v1.419l-.18.533-.09.623-.354.353-.533-.18h-.353l-.534.18-.443.262v9.922l-.09.623z"/><path fill="#000101" d="M9.664 6.019H7.538l-.09-.623V.443L7.71 0l.263.443.09.623.09.623v3.543l.09.623h1.421v.18zM22.076 12.398H19.95l-.09-.623V8.938l.443-.262h.706l.624-.09V6.461l-.263-.443h-1.42l-.09-.623V3.272l.09-.623h2.126l.263-.443V.796l-.09-.624.262-.09.18.533.181.533v2.124l-.18.533-.18.533-.625.09h-.706l-.624.09v.705l.09.624h.707l.533.18.263.443.18.533v2.124l-.18.533-.18.533-.625.09h-.706l-.09.623v.705l.09.623h1.42v.18zM31.83 6.019h-2.126l-.09-.623V.443L29.875 0l.263.443v4.96l.262.444h1.42v.18zM44.777 12.398h-1.42l-.625-.09V.262l.354-.18.18.533.18.533v10.627l.263.443h.706l.354.18zM58.784 4.075h-6.388l-.533-.18-.181-.533-.09-.623-.18-.533-.181-.533.09-.623.18.533.09.623.263.443h4.253l.624-.09V.442L56.994 0l.18.353-.09.623v.705l.09.623.354.353.443-.263.18-.533v-.705l-.18-.533-.18-.533.443.09.262.443.09.623.09.624v.705l-.09.623-.09.623.263.263zM1.863 4.428H.443L.18 3.985V3.28l.18-.533.624-.09h.706l.263.443v.705zM14.812 6.904l-.624-.09V3.28l.09-.623.534.18.443.263.18.533.181.533v.705l-.263-.263-.533-.18-.09.623V6.47l.09.443zM48.505 12.398h-.706l-.444-.262V2.919l.444-.262.624.09.443.262.263.443.263.443.09.623.18.533-.09.623-.18-.533-.263-.442-.444-.263-.623.09v7.085l.09.623.353.18zM37.504 11.865l-.534-.18-.443-.263-.263-.442-.18-.533-.09-.623-.181-.533V5.748l.18-.533.18-.533.181-.533.181-.533.443-.262.534-.18.443.262.353.352.18.533.182.533.18.533v.706l-.18-.353-.263-.443-.353-.352-.624.09-.444.262-.18.533-.263.443v.705l-.18.533V8.93l.18.533v.705l.18.533.181.533.353.352.263.263zM25.624 11.333l-.263-.443-.444-.263-.353-.352-.353-.353-.262-.443-.263-.443-.09-.623-.181-.533-.18-.533v-.705l.18.353.18.533.263.442.263.443.353.353.443.262.353.353.263.443.18.533v.705l-.09.262zM59.408 10.717l.18-.533.181-.533-.18-.533-.09-.623-.354-.352-.443.262-.09.623-.09.623.18.533.18.533h.534zM25.271 12.398l-.534-.18-.443-.262-.263-.443.18-.353.354.353.263.443.443.262zM15.427 14.432v-.705l-.18-.533-.181-.533-.09-.623-.263.09v2.124l.443.262.263-.09zM57.815 14.965l.181-.533.18-.533v-.705l-.18-.533-.443-.263-.353.353-.09.623v.705l.09.624.353.352zM4.433 25.773l.443-.263.263-.443.18-.533-.262-.442-.263.442-.443.263-.443-.263-.263-.442-.18-.533-.091-.624v-2.837l.18-.533.263-.443.353-.352.534.18.263.443.262-.262v-.533l-.262-.443-.353-.353H4.08l-.443.263-.263.442-.18.533-.181.533-.181.533v3.543l.18.533.181.533.18.533.354.352.443.263zM7.8 25.772l.442-.262.263-.443.18-.533.181-.533.181-.533v-2.837l-.09-.623-.09-.623-.181-.533-.18-.533-.354-.353-.443-.262-.534.18-.353.353-.263.442-.18.533-.18.533v.706l-.181.533v1.418l.09.623.09.624.18.533.181.533.181.533.353.352.443.263zM29.442 25.773l.443-.263.263-.443.18-.533-.18-.533-.263.263-.353.352-.443.09-.353-.352-.181-.533-.18-.533v-.705l-.181-.533v-.705l.18-.533v-.706l.181-.533.263-.442.353-.353.533.18.263.443.263-.262v-.533l-.263-.443-.353-.353-.624-.09-.353.353-.263.443-.262.442-.09.624-.181.533v.705l-.18.533v.705l.18.533v.705l.09.623.09.624.263.442.263.443.353.353h.534zM40.787 25.772l.444-.262.262-.443.263-.443.18-.533.091-.623v-.705l.18-.533v-.705l-.09-.623-.09-.624-.09-.623-.09-.623-.263-.443-.263-.443-.353-.352-.624-.09-.353.352-.263.443-.18.533-.18.533-.181.533v.705l-.181.533v.705l.18.533v.706l.181.533.09.623.181.533.263.443.443.262.443.09zM47.7 25.773l.353-.353.263-.443.09-.623.18-.533v-.705l-.09-.623-.09-.624-.353-.352-.353-.353-.353-.353-.18-.532v-.706l.18-.533.443-.262.263.443.353-.18v-.706l-.263-.443-.533-.18-.444.262-.262.443-.18.533-.091.623v.706l.09.623.18.533.264.443.352.352.354.353.18.533v.705l-.18.533-.263.443-.444-.263-.262-.442-.263.442v.353l.18.533.444.262.443.09zM13.3 25.592v-7.084l-.09-.624-.443.263-.18.533-.181.533v.705l-.18.533-.181.533-.09.623-.091.623-.263.443-.09-.623-.18-.533-.181-.533v-.705l-.18-.533-.181-.533-.09-.623-.091-.624h-.534v7.085l.09.623.263-.442V20.27l.18.353.182.533.09.623.09.624.18.533.181.532v.706l.263.442.263-.442.18-.533.181-.533v-.706l.18-.533.181-.532.09-.624.09.624v4.247h.535zM17.734 25.592v-7.084l-.09-.624-.443.263-.18.533-.182.533-.09.623-.09.623-.18.533-.181.533v.705l-.181.533-.18-.352-.181-.533-.09-.623-.09-.624-.181-.533-.181-.533v-.705l-.18-.533-.264-.443-.262.443v7.085l.353.18v-4.96l.18-.353.09.623.091.623.18.533.091.623.09.624.18.532.182.534.262.09.18-.533.091-.623.18-.534.181-.533v-.705L17.02 21l.18-.352v4.96h.534zM20.394 25.773l.353-.353.262-.443.09-.623.181-.533v-5.666l-.443-.262-.09.623v4.96l-.09.624-.264.443-.443.262-.262-.443-.181-.533-.18-.533v-4.96l-.264-.443-.262.442v4.961l.18.533v.706l.263.442.263.443.353.353zM25.008 25.592v-7.085l-.09-.623-.264.443v4.247l-.09.624-.262-.443-.09-.623-.181-.533-.181-.533-.09-.623-.181-.534-.18-.532-.181-.534-.18-.532-.264-.443-.262.443v7.084l.443.263.09-.623v-4.248h.181l.18.533.181.533.18.533.181.533.09.623.181.533.181.533.09.623.263.443.263-.09zM26.782 25.592v-7.084l-.09-.624-.444.263v7.085l.263.442.262-.09zM33.694 25.592v-.705l-.18-.533-.091-.623-.09-.623-.09-.623-.091-.624-.18-.533v-.705l-.181-.533v-.705l-.18-.533v-.705l-.444-.263-.263.443v.705l-.18.533-.09.624-.091.623-.09.623-.09.623-.181.533v.705L31 23.83v.706l-.18.532.09.624.443-.263.09-.623.09-.623.181-.533.624-.09.534.18.09.623.18.533v.706h.534zM35.648 25.592v-6.38l.443-.262.444-.262v-.705l-.624-.09h-1.42l-.444.262.09.623.534.18.443.263v6.38h.534zM38.127 25.592v-7.084l-.09-.624-.443.263v7.085l.262.442.263-.09zM45.573 25.592v-7.085l.18-.533h-.533v4.961h-.18l-.181-.533-.181-.533-.18-.533-.181-.533-.181-.533-.09-.623-.18-.533-.091-.623-.18-.533h-.535v7.085l.09.623.444-.262v-4.961l.18.352.181.533.181.533.18.533.181.533.18.533.181.533.09.623.181.533.181.533z"/><path fill="#000101" d="m7.718 24.797-.534-.18-.262-.444-.18-.533-.181-.533v-2.123l.09-.624.09-.623.263-.443.263-.442H7.8l.353.352.18.533.182.533v2.837l-.181.533-.18.533-.263.443-.181.18zM40.697 24.797l-.444-.263-.353-.352-.18-.533v-.706l-.09-.623-.09-.623.18-.533v-.705l.09-.623.18-.533.354-.353.443-.09.353.352.263.443.09.624.18.532v1.42l-.09.622-.09.624-.18.532-.181.534-.444.262zM32.717 22.673h-.706l-.18-.353.09-.623.18-.533v-.705l.18-.533.181.352v.706l.18.533v.705l.091.443zM1.066 41v-9.922l.09-.623H49.39l.444.262v9.922l-48.768.353z"/><path fill="#000101" d="m7.628 38.171.353-.353.18-.533v-1.418l-.263-.443-.353-.353-.09-.623.18-.533.444.09.263-.442-.353-.353-.444.09-.262.443-.18.533v.705l.18.533.262.443.263.443v.705l-.263.443-.353-.353-.262.443.262.443.444.09zM13.119 37.99v-.705l.18-.533V34.63l.18-.533v-.706l-.352-.18v1.419l-.18.533v2.123l-.181.533.353.18zM17.027 38.171l.263-.443.18-.533.09-.623v-.705l-.262-.443-.353-.353-.263-.442.18-.533.354-.18.353.18.18-.533-.353-.353h-.533l-.18.533-.181.533v.705l.09.623.353.353.262.443v.705l-.262.443-.444-.263-.353.18.181.534.443.262.263-.09zM28.02 38.17l.353-.352.09-.443-.262-.262-.263.443-.443-.263-.18-.533v-1.418l.18-.533.18-.533.263-.443.444.262.353-.18-.18-.533-.444-.262-.444.262-.353.353-.18.533-.09.623-.09.623v1.419l.18.533.18.533.444.262zM37.773 38.171l.353-.352-.443-.263v-.533l.09-.623v-.705l.263-.443.263-.443-.353-.352v-.706l-.263-.09-.09.623-.263.443.09.443v2.476l.09.624.263-.09zM42.207 38.17l.18-.532-.353-.353.18-.533v-1.418l.354-.353-.353-.353.09-.623v-.533l-.263.443v.705l-.352.353.18.533v2.124l.09.623.263-.09zM9.048 37.99v-1.418l.181-.533v-1.418l-.353.18v1.419l-.18.533v.705l.09.623zM10.64 37.99l.09-.623.09-.623v-1.418l-.18-.533-.354-.18-.443-.091-.09.623-.18.533v2.124l.09.262.09-.623.18-.533v-.705l.09-.623.354-.353.09.623v1.419l-.18.533.353.18zM11.88 39.409l.353-.353.18-.533v-.705l-.262-.443-.534-.18.18-.353.444-.262.18-.533v-.705l.091-.443-.353-.353-.534.18-.18.534-.09.623v1.419l-.09.623-.091.623v.705l.443.263.263-.09zM14.54 38.17l.262-.442-.18-.353-.354.353-.262-.443v-.705l.624-.09.262-.443v-.705l-.18-.533-.444-.263-.262.443-.18.533-.181.533v1.419l.18.533.444.262.262-.09zM18.802 38.17l.353-.352.18-.533v-2.124l-.262-.442-.444-.09-.353.352-.18.533v2.124l.262.443zM20.393 38.171l.533-.18v-.706l.09-.623.09-.623V34.62l-.352.18v2.125l-.18.533-.354.18-.18-.533.18-.533v-1.419l-.09-.623-.263.443v2.837l.263.443.263-.09zM21.814 37.99v-.704l.18-.533v-.706l.09-.623.444-.262-.09-.623-.443.09-.353.18v2.124l-.181.533.09.623.263-.09zM23.406 38.17l.353-.352-.18-.352-.354.18-.18-.533v-.705l.09-.623.18-.533.534.18.09-.623-.443-.263-.443.263-.181.533-.18.533v1.418l.18.533.263.443.262-.09zM25.18 38.17l.263-.442-.18-.353-.354.353-.263-.443v-.705l.624-.09.263-.443v-.705l-.18-.533-.444-.263-.263.443-.18.533-.18.533v1.419l.18.533.443.262.263-.09zM29.614 38.17l.353-.352.18-.533v-2.124l-.262-.442-.443-.09-.353.352-.18.533v2.124l.18.533h.534zM31.74 37.99v-.704l.18-.533v-1.419l-.18-.533-.353-.18-.353.18h-.18l-.181.533v2.124l-.18.533.352-.18v-.706l.18-.533v-.705l.181-.533.354.18v1.419l-.09.623v.533l.262-.09zM33.513 37.99v-.704l.09-.624.09-.623v-.705l-.18-.533-.443-.262-.263.262-.263-.09-.09.623v1.419l-.18.533v.705l.352-.18v-.706l.181-.533v-.705l.18-.533.354.18v1.419l-.18.533.09.623.262-.09zM34.934 38.171l.353-.352-.263-.443-.443.09-.18-.533.262-.443.624-.09.18-.533-.09-.623-.18-.533-.444-.09-.353.352-.18.533-.09.623-.09.624.09.623.18.533.353.352.263-.09zM36.535 38.171l.18-.533-.262-.09H36.1l-.09-.623v-.706l.18-.532.263-.443.443.09-.09-.623-.534-.18-.262.442-.18.533-.182.533v1.419l.181.533.443.262.263-.09zM38.834 37.99v-2.123l.18-.533v-.706l-.353.18v.706l-.18.533v1.419l.09.623.263-.09zM39.9 37.99l.18-.532.181-.533.09-.624.09-.623.181-.533-.09-.623-.262.443-.09.623-.091.623-.263.443-.09-.623v-.705l-.09-.624-.263.09v.706l.09.623.09.623v.705l.09.624.264-.09zM41.14 37.99v-.705l.181-.533v-2.124l-.18.353-.181.533v1.419l-.09.442-.09.443.352.18zM43.267 39.229l.18-.533v-.705l.18-.533.182-.533.18-.533v-.705l.18-.533.181-.533-.353.18-.18.533-.18.533v.705l-.181-.352-.181-.533v-.706l-.263-.442-.09.623.18.533v1.418l.181.533-.18.533-.09.624v.533l.262-.09z"/><path fill="#000101" d="m11.97 36.31-.263-.443.09-.623.263.09.09.443zM18.71 37.548l-.352-.353-.09-.623.18-.533.09-.623.444-.09.18.533-.18.533v.705l-.263.443zM29.523 37.548l-.353-.353-.09-.623.18-.533.091-.623.443-.09.181.533-.18.533v.705l-.263.443z"/><path fill="#FEFEFE" d="M56.394 27.544V16.916l.624-.09.353-.352.353.352.534-.18.263-.443.18-.533v-2.124l-.09-.623.09-.443.444.09.624-.09.352-.352.181-.533V9.47l-.09-.623.18-.353.353-.353.263-.442V4.862l-.263-.442-.352-.353-.444-.09-.353.18-.443-.262-.624-.09.18-.533V1.148l-.18-.533-.18-.533-.625-.09-.443.09-.624-.09H51.69l-.534.18.09.443-.18.533.09.623.09.623-.18-.352-.263-.443-.262-.443-.353-.353-.354-.352-.353-.353-.623-.09H46.73l-.624.09-.18.533v13.465h-.181l-.18-.533v-.706l-.181-.532-.534-.18-.624-.091-.624-.09v-9.93l-.09-.624-.09-.623-.181-.533-.444-.262h-.706l-.623.09-.181.533v13.464l-.444.263-.623-.09.18-.534.18-.533.181-.533.09-.623.091-.623v-.705l.18-.533V6.625l-.09-.623-.09-.623v-.705l-.18-.533-.181-.533-.18-.533-.181-.533-.181-.533-.18-.533-.263-.443-.353-.353-.353-.352-.444-.263-.624-.09h-.706l-.443.263L36.23.5l-.354.353-.262.442-.263.443-.263.443-.18.533-.18.533-.091.623-.09.623-.181.533v.706l-.09.623-.09.623v2.837l.09.624.09.623v.705l.18.533.09.623.091.623.263.443-.18.353h-.707l-.09-.623V.976l-.18-.533L33.57 0h-1.42l-.262.443-.181.533v4.247l-.263.443h-.706l-.443-.262V1.148l-.09-.623-.263-.443-.624-.09h-.706l-.444.262-.09.623-.09.623v12.752h-.534l.18-.534v-.705l.181-.533V9.643l-.18-.533v-.705l-.18-.533-.181-.533-.263-.443-.263-.443-.353-.352-.353-.353-.353-.353-.353-.352.263-.443.353.353.353.352.443.09.353-.352.18-.533.181-.533.18-.533V2.025l-.18-.533-.18-.533-.353-.352-.353-.353-.444-.262h-.706l-.624.09-.443.262-.263.443-.353.353-.18.533-.181.533-.18.533v.705l-.091.623-.09.623v2.124l.18.533v.705l.181.533.18.533.263.443.263.443.353.353.353.352.443.263.263.442.09.443-.533.18-.353-.352-.263-.443-.443-.262-.534.18-.263.443-.09.623-.09.623-.263-.262-.353-.353-.534-.18h-.706l-.624-.09v-1.419l.624-.09h.706l.353-.353.09-.623.181-.533V7.527l-.18-.533V6.29l-.353-.352-.444-.263h-.706l-.263-.443.09-.623h1.421l.534-.18.262-.443.09-.623.091-.623V1.32l-.18-.533-.09-.623-.534-.18h-3.547l-.263.442v.705l-.18.533V13.71l-.09.624-.263-.443-.181-.533-.09-.623-.09-.624-.181-.533-.181-.533-.09-.623-.09-.623.18-.533.18-.533.181-.533v-.705l.18-.533V4.124l-.09-.623-.09-.623-.18-.533-.09-.623-.263-.443-.263-.443-.263-.443-.443-.262-.534-.18h-2.126l-.534.18-.09.623-.18.533v12.751l-.444.263-.263-.443V.443L11.592 0h-1.42L9.73.262v.705l-.18.533v3.543l-.091.623h-.706l-.624-.09V.623L7.948.09 7.322 0h-.706l-.533.18-.09.623-.181.353V.451L5.55.008H.624L.09.18 0 .803v2.838l.18.533.263.442h.706l.624.09v9.21l-.262.442H.09L0 14.981v12.046l.09.623h56.042l.262-.09z"/><path fill="#FEFEFE" d="m51.87 5.494-.09-.623-.18-.533.18-.353.18.533v.706l-.09.262zM5.763 14.35h-1.42l-.263-.443V4.69l.624-.09h.706l.263-.443.18.353v9.208l-.09.624zM15.163 6.732 14.9 6.29V4.871l.353-.18.181.532.18.533-.18.533-.263.443zM48.857 12.046h-.706l-.09-.623v-6.38l.262-.443.624.09.263.443.263.443.09.623.09.623v1.772l.09.442-.09.624v.705l-.18.533-.181.533-.263.443-.18.18zM37.864 11.693l-.534-.18-.353-.353-.18-.533-.091-.623-.18-.533V7.347l.18-.533V6.11l.263-.443.262-.443.624-.09.444.263.18.533.181.533.18.533v2.837l-.18.533-.18.533-.263.443zM52.051 9.39l-.09-.624V8.06l.09-.623.09.623v.705zM9.49 14.35h-.706l-.624-.09v-3.543l.443-.262h.707l.262.443v2.837l-.09.623zM31.658 14.35h-.706l-.624-.09v-3.543l.444-.262h.706l.262.443v2.837l-.09.623zM15.336 14.35l-.443-.262v-1.42h.18l.09.624.09.623.091.443zM50.007 41v-9.922l-.09-.623H.977l-.09.623V41z"/><path fill="#045A93" d="M33.07 14.875h-.707l-.443-.263V8.946l.18-.353V9.3h.181l.624-.09.09.623.181.352V.262l.18.353v12.75l-.18.534v.705l-.09.262zM9.844 6.019l-.09-.623V1.86l.09-.623.09.623v3.543l-.09.623zM29.524 6.019l-.09-.623V1.86l.18-.352v4.247zM41.41 9.741l-.09-.623V2.033l.09-.623.09.623v7.085zM22.077 14.875H18.53l-.09-.623V2.214h.18v7.085l.18.352.263-.443.444.263.18.352v-.705l.09-.623.091.623v2.838l.263.442h1.42l.624.09v2.124l-.09.263zM7.355 14.875H6.65l-.624-.09V2.747l.181-.352v7.084l.18.353.09-.623.625.09h.18v-.705l.181.352v5.667l-.09.262zM3.103 14.875h-.707l-.443-.262v-6.38l.18.352.091.624h.706l.09.623.181.352V3.1l.18-.353v9.209l-.18.533v2.124l-.09.262zM14.982 7.085h-.706l-.262-.443V3.1l.18-.353V6.29l.09.624h.707v.18z"/><path fill="#045A93" d="m19.77 6.019-.09-.623V3.272l.18-.353v2.838zM16.938 5.666l-.09-.623V3.625l.18-.353v2.124l-.09.262zM48.857 14.875h-2.84l-.091-.623v-9.2l.18-.353v4.247l.09.624.354-.353.443.262.18-.352v-.705l.181-.353v4.247l.624.09.624-.09.444-.262.262-.443.18-.533.181-.533.181-.533V6.47l.18.353v2.123l.444.263.443.262.181.533v.705l-.18.533-.181.533-.18.533-.181.533-.181.533-.263.443-.263.443-.443.262-.353.353zM35.729 9.39l-.09-.624V6.642l.09-.623.09.623v2.124zM40.344 8.856l-.09-.623V6.109l.18.352v2.124l-.09.263zM11.084 14.875h-.706l-.624-.09V9.117l.09-.623.09.623v.705h.181l.09-.623.624.09.181.353V6.806l.09-.623.09.623v7.79l-.09.262zM29.523 14.875h-.706l-.624-.09v-7.79l.181-.353v2.124l.09.623.534-.18.263.442.18.353V8.585l.18.353v5.666l-.09.263zM17.29 14.875h-.706l-.624-.09-.18-.533-.181-.533v-.705l-.181-.533-.18-.533-.181-.533v-.706l-.181-.533.09-.442-.262-.09h-.534v2.123l-.18.533v2.124l-.263.443h-.707l-.262-.443v-6.38l.18.353v.705l.624.09.534.18.624-.09.624-.09.534.18.262.263.18.353.091.262.09.623.181.533.18.533.091.624.09.623.181.533.18.533-.09.623z"/><path fill="#045A93" d="M37.864 14.875h-.706l-.534-.18-.443-.263-.353-.353-.263-.442-.262-.443-.181-.533-.18-.533-.181-.533-.09-.623-.09-.623.18-.533.09-.624.624.09.18.534h.181l.18.352.181.533.181.533.353.353.443.262h.706l.353-.353.263-.442.18-.533.181-.533.181-.533V8.75l.18.352.625.09.262.443.181.533-.18.533-.09.623-.091.624-.18.532-.181.534-.263.442-.263.443-.353.353-.353.352-.443.263zM44.776 14.875h-2.84l-.444-.262v-4.248l.18-.533.091-.623.624.09.263-.262.09.623v2.124l.09.623h1.42l.625.09v2.124l-.09.262zM25.452 14.875h-.707l-.533-.18-.353-.353-.353-.353-.263-.443-.18-.532.18-.534.18-.533.091-.623h.353l.263.443.353.353.443.262.534-.18.262-.443V10.34l.181-.533-.263-.443.354-.18h.706l.09.623.18.353v-.705l.181.352v.705l-.18.534v.705l-.181.533-.09.623-.181.533-.263.443-.262.443-.354.352-.18.18zM4.696 25.683H3.99l-.443-.263-.18-.533-.182-.533-.18-.533-.09-.623-.09-.623V20.45l.18-.533.09-.623.18-.533.263-.443.263-.443.534-.18.443.262.353.353.18.533-.262.443-.353-.353-.534-.18-.443.262-.18.533-.181.533-.09.623-.09.623v1.419l.18.533.18.533.181.533.263.443.624-.09.353-.353.263-.09v.533l-.263.443-.263.442zM7.536 25.863l-.443-.263-.353-.352-.18-.533-.181-.533-.18-.533v-.706l-.091-.623-.09-.623.18-.533v-1.419l.18-.533.181-.533.263-.442.353-.353.534-.18.353.352.353.353.263.443.18.533v.705l.18.533v2.124l-.18.533v.705l-.18.533-.181.533-.353.352-.443.263-.181.18zM29.17 25.863l-.444-.263-.262-.443-.263-.442-.18-.533-.09-.623-.091-.624v-2.837l.18-.533.181-.533.18-.533.263-.443.444-.262.443.09.443.262.181.534-.09.623-.353-.353-.534-.18-.443.262-.18.533-.181.533-.181.533v2.124l.18.533.09.623.264.443.262.443.624-.09.353-.353h.18l.091.443-.263.442-.262.443-.534.18zM41.05 25.683h-.707l-.353-.353-.263-.443-.18-.533-.18-.533-.181-.533v-2.837l.18-.533.09-.623.181-.533.263-.443.263-.443.533-.18.444.262.352.353.181.533.18.533.181.533v3.542l-.18.533-.18.533-.181.533-.263.443-.18.18zM47.79 25.683l-.623-.09-.354-.353-.18-.533.09-.623.263.442.443.263.444-.263.18-.533.18-.533-.18-.533-.18-.533-.353-.352-.354-.353-.262-.443-.09-.623v-.705l-.09-.443.09-.623.18-.533.263-.443.533-.18.353.352.263.443-.09.623-.444-.262h-.533l-.18.533-.181.533.18.533.263.443.353.352.353.353.263.443v.705l.18.533-.18.533v.705l-.18.533-.264.443-.18.18zM13.21 25.683l-.262-.443v-4.961h-.18l-.182.533-.18.533v.705l-.18.533-.181.533-.09.623-.091.623-.353-.18-.18-.533-.091-.623-.09-.623-.18-.534-.181-.532v-.706l-.181-.533h-.18v4.961l-.091.624-.263-.443v-7.085l.353-.18.18.532.182.534v.705l.18.533.18.533.091.623.09.623.181.533.18.353.181-.533.18-.533v-.706l.181-.532.181-.534.09-.623.09-.623.181-.533.263-.443.263.443v7.085l-.09.262zM17.471 25.682l-.09-.623V20.1l-.353.18v.705l-.18.533-.181.533v.705l-.181.533-.18.533-.09.623-.354-.352-.09-.624-.18-.533-.091-.623-.09-.623-.181-.533-.18-.533-.091-.623-.09.623v4.961l-.353-.18v-7.085l.262-.443.263.443.09.623.09.623.181.533.09.623.09.624.181.533.181.533.09.623.263-.443v-.705l.18-.533.181-.533.09-.623.091-.624.18-.533.181-.533.09-.623.444.263-.18.533v6.38l-.091.622zM20.13 25.863l-.443-.262-.353-.353-.18-.533-.181-.533v-5.666l.09-.623.263.442v4.961l.09.624.18.533.354.352.533-.18.263-.443v-.705l.18-.533v-4.961l.354.18v5.666l-.181.533-.18.533-.181.533-.444.263-.18.18zM24.918 25.682l-.263-.442-.18-.533-.181-.533-.18-.533-.182-.533-.18-.533-.18-.533-.091-.624-.18-.533-.091-.623-.353-.18v4.96l-.09.624-.263-.443v-7.085l.353-.18.18.533.181.533.18.533.181.533.181.533.09.623.181.533.18.533.09.623.182.533.18-.352v-4.961l.353-.18v7.084l-.09.623zM26.51 25.683l-.262-.443v-7.085l.353-.18v7.084zM33.604 25.683l-.443-.263v-.705l-.18-.533-.091-.623h-.706l-.624.09-.09.623-.09.623-.091.624-.443.09.18-.533v-.705l.18-.533v-.706l.182-.533v-.705l.18-.533.09-.623.09-.623.091-.623.09-.624.181-.533.263-.442.263.442v.706l.18.533v.705l.18.533v.705l.181.533v.705l.181.533v.705l.18.533.09.624v.533zM35.557 25.683l-.444-.263v-6.38l-.443-.262-.443-.262.09-.623h2.126l.09.623-.443.262-.443.263v6.38zM37.864 25.683l-.262-.443v-7.085l.353-.18v7.084zM45.484 25.682l-.263-.442-.18-.533-.18-.533-.181-.533-.181-.533-.18-.533-.091-.624-.18-.533-.091-.623-.18-.533-.354-.18v4.96l-.09.624-.263-.443v-7.085l.353-.18.181.533.18.533.181.533.18.533.181.533.181.533.09.623.181.533.09.623.18.533.181-.352v-4.961l.354-.18v7.084l-.09.623z"/><path fill="#045A93" d="m7.799 24.707.353-.353.18-.533.181-.533.18-.533v-1.418l-.09-.624-.09-.623-.18-.533-.181-.533-.444-.262-.533.18-.263.443-.18.533-.181.533v2.837l.18.533.181.533.353.353zM40.968 24.707l.353-.353.18-.533.18-.533v-2.837l-.18-.533-.18-.533-.263-.443-.534-.18-.443.262-.18.533-.181.533-.18.533v2.124l.18.533.09.623.263.443.262.443.624-.09zM32.808 22.583v-.705l-.18-.533v-.705l-.181-.533-.09-.624-.263.443v.705l-.181.533v.706l-.18.533.443.262.624-.09z"/><path fill="#303F48" d="M5.057.18H.797L.442 0h4.253l.353.18zM15.163.18h-1.42L13.12.09l.624-.09h1.42zM22.077.18h-2.841L18.883 0h2.84zM48.677.18h-2.126V0h2.126zM56.657.18H51.69V0h4.967zM22.256 2.657l-.09-.624V.623h.18v1.419l-.09.623zM56.657 2.304l-.09-.623V.976l.09-.623.09.623v.705zM30.237 5.666l-.09-.623V1.51l.18-.353v4.248zM33.956 14.35l-.09-.623V1.681h.18v12.046zM56.656 2.657h-4.253l-.624-.09.624-.09h4.253zM58.964 4.78l-.18-.532h-6.388l-.353-.18h6.387l.534-.181.09.623-.09.262zM1.864 14.522H.444v-.18h.705l.624-.09v-9.2l.09-.624.091.623v9.209zM17.643 6.38l-.09-.623V5.05l.09-.623.09.623v.706zM3.99 14.17l-.09-.623V5.05l.181-.352v9.208zM60.918 7.437l-.09-.623V5.396l.18-.353v2.124l-.09.262zM41.05 9.922l-.091-.623V7.175l.18-.353V9.66zM36.444 9.39l-.09-.624V8.06l.09-.623.09.623v.705zM58.258 8.856l-.18-.533h-5.674l.353-.18h4.967l.624.09zM9.663 8.676H7.537l.353-.18h1.42zM21.543 8.676h-1.42v-.18h1.42zM31.83 8.676h-2.127l.353-.18h1.42zM41.41 14.875l-.352-.353h-.706l.353-.18.624-.09v-4.248h.18v4.248l-.09.623zM9.663 10.447h-1.42l.352-.18h.706l.353.18zM58.259 10.807h-5.673l-.354-.18h5.674l.352-.353zM30.237 14.35l-.09-.623V10.89l.18-.353v3.542l-.09.263zM14.096 14.875l-.09-.623v-2.124h.18v2.124zM3.284 14.875l-.09-.623v-1.419l.09-.623.09.623v1.419zM22.256 14.875l-.09-.623v-1.419l.09-.623.09.262v2.124l-.09.263zM44.958 13.989l-.09-.623v-.705l.262-.443-.09.443v.705l-.09.623zM56.657 14.703l-.09-.624v-.705l.09-.623.09.623v.705zM33.25 15.055h-.706l-.624-.09.624-.09.624-.09v-.706l.09-.623.09.623v.705l-.09.263zM5.945 14.522h-1.42l-.625-.09.624-.09h1.42zM9.663 14.522h-1.42l.352-.18h.706l.353.18zM31.83 14.522h-1.42l.353-.18h.706l.353.18zM56.657 15.055H51.69l-.624-.09.09-.623.181.533h4.967zM.09 27.454 0 26.83V14.785h.18V26.83zM17.47 15.055h-.705l-.624-.09.624-.09.624-.09h.18l-.09.262zM22.076 15.055h-3.547l.353-.18h2.841zM44.778 15.055h-2.841l-.353-.18h2.84zM48.505 15.055h-2.127l-.353-.18h2.127zM56.303 27.453l-.09-.623v-9.922l.18.353v9.922l-.09.262zM18.883 23.378l-.09-.623v-4.247l.09-.624.09.624v4.247zM20.836 23.378l-.09-.623v-4.247l.09-.624.09.624v4.247zM26.69 25.683l-.09-.624v-7.084l.18.352v7.085l-.09.262zM38.038 25.683l-.09-.624v-7.084l.18.352v7.085l-.09.262zM17.643 25.683l-.09-.624v-6.38l.18-.352v7.085l-.09.262zM12.856 25.682l-.09-.623v-4.247l-.09-.443.262-.263v4.961l-.09.624zM17.29 25.682l-.09-.623v-4.248l-.18-.532.353-.18v4.96l-.09.623zM22.963 25.682l-.09-.623V20.1l.353.18-.18.532v4.248l-.09.623zM43.538 25.682l-.09-.623V20.1l.352.18-.18.532v4.248l-.09.623zM3.284 22.845l-.09-.623v-1.419l.18.353v1.418l-.09.263zM8.604 22.845l-.09-.623v-1.419l.18.353v1.418l-.09.263zM42.118 22.673l-.09-.623v-.705l.18-.353v1.419zM49.834 41v-9.922l.09-.623.09.623V41zM7.536 38.261 7.093 38l-.18-.533.352-.18.353.18.18-.533v-.705l-.352-.353-.263-.443-.09-.623v-.705l.18-.533.353-.353.444.09.262.443-.353.18-.443.09-.09.624.18.533.353.353.181.533v.705l-.09.623-.18.533-.354.353zM13.038 38.08l-.263-.442.181-.533V34.98l.18-.533v-.705l.09-.623.264.442-.09.624-.091.623v1.418l-.09.624-.09.623-.09.623zM16.937 38.261l-.534-.18-.262-.443.262-.443.353.353.353-.353.09-.623-.18-.533-.353-.353-.18-.533v-.705l.09-.623.262-.443.444-.262.353.352-.09.443-.263.09h-.353l-.263.443.18.533.354.353.262.442.09.624v.705l-.18.533-.263.443-.18.18zM27.93 38.261l-.534-.18-.262-.443-.18-.533V34.98l.18-.533.18-.533.263-.443.353-.352.534.18.263.443-.263.443-.353-.353-.444.262-.18.533-.18.533v1.419l.18.533.263.443.443-.263h.18v.353l-.262.443-.18.18zM37.683 38.261l-.263-.443v-2.123l.09-.443-.262-.443.353-.353v-.705l.353-.18v.705l.263.443-.09.443-.354.352v1.419l-.18.533.443.262-.18.353-.181.18zM42.117 38.261l-.263-.443v-2.123l-.18-.534.263-.442.09-.623.18-.533.181.352-.18.533.352.353-.262.442-.09.624v.705l-.181.533.263.443v.533l-.181.18zM8.958 38.081l-.263-.443v-.705l.09-.623.09-.623v-.706l.264-.442.09.623v.705l-.18.533v1.419zM10.549 38.081l-.263-.443.18-.533v-1.418l-.262-.443-.263.443v1.418l-.18.533-.263.443.09-.443v-2.124l.181-.533.18-.352.444-.09.353.352.09.623v1.419l-.18.533-.09.623zM11.79 39.5l-.534-.18-.09-.624v-.705l.18-.533v-2.124l.181-.533.444-.262.443.262.09.443-.09.623-.18.533-.263.443-.444.262.444.263.443.262v.705l-.18.533-.263.443-.181.18zM14.449 38.261l-.534-.18-.263-.443V36.22l.181-.533.09-.624.263-.442.443.09.263.443v.705l-.09.623h-.706l-.09.623.18.533.353-.18.353.18-.263.443zM18.71 38.261 18.267 38l-.181-.533v-1.419l.09-.623.18-.533.354-.352.443.262.18.533v1.419l-.09.623-.18.533zM20.303 38.261l-.444-.262V35.16l.181-.533.18.353V36.4l-.18.533.18.533.263.09.263-.443v-2.124l.263-.443.09.624v1.418l-.18.533v.705l-.444.263-.18.18zM21.724 38.081l-.263-.443.18-.533v-2.124l.263-.442h.353l.263.442-.353.353-.18.533v.705l-.181.533v.705l-.09.263zM23.315 38.261 22.872 38l-.18-.533v-1.419l.18-.533.18-.533.263-.442.534.18.09.623-.443-.09-.263.443-.18.533v.705l.09.623h.353l.263.09-.263.443-.18.18zM25.09 38.261l-.534-.18-.263-.443V36.22l.18-.533.09-.624.264-.442.443.09.263.443v.705l-.09.623h-.707l-.09.623.18.533.354-.18.353.18-.263.443zM29.522 38.261 29.08 38l-.18-.533v-1.419l.09-.623.18-.533.353-.352.444.262.18.533v1.419l-.09.623-.18.533zM31.658 38.08l-.262-.442.18-.533v-1.418l-.262-.443-.263.443v.705l-.18.533v.705l-.264.443v-.533l.09-.623v-1.42l.091-.622.263-.263.263.09.443-.09.18.533v1.419l-.18.533v.705l-.09.263zM33.43 38.08l-.263-.442.181-.533v-1.418l-.263-.443-.262.443v.705l-.18.533v.705l-.264.443-.09-.623.18-.534v-2.123l.354-.18h.18l.444.09.262.442v1.419l-.18.533v.705l-.09.263zM34.844 38.261l-.444-.262-.18-.533-.18-.533v-.706l.18-.533.18-.533.263-.442.443-.09.181.532.18.533-.09.624-.533.18-.444.262.09.624.444.09.353.18-.263.443-.18.18zM36.443 38.261l-.533-.18-.181-.533-.09-.623v-.705l.18-.533.18-.533.181-.533h.534l.18.533-.262.09-.443.262-.18.533v1.419l.352.18.353-.18-.18.533-.09.262zM38.751 38.081l-.263-.443V36.22l.18-.533v-.706l.264-.442.09.623-.18.533v2.124zM39.81 38.08l-.262-.442v-1.419l-.18-.533v-.705l.18-.353.18.533v1.419l.353-.18v-.706l.181-.533.18-.533.181.353-.18.533v.705l-.18.533-.181.533-.09.623-.181.18zM41.05 38.08l-.18-.352-.09-.443.18-.533v-1.418l.18-.533h.181v2.124l-.18.533zM43.185 39.32l-.263-.444.18-.533.181-.533-.18-.533V35.86l-.181-.533v-.706l.353.18v.706l.18.533.09.623.091-.623.18-.533.181-.533.263-.443v.533l-.18.533-.09.624-.181.532-.181.533-.09.624-.09.623-.181.533-.09.262z"/><path fill="#303F48" d="m12.06 36.22.18-.534-.18-.533-.353.18v.706zM18.801 37.458l.18-.533.091-.624v-.533l-.18-.533-.444.263-.09.623-.09.623.18.533zM29.614 37.458l.18-.533.09-.624v-.533l-.18-.533-.443.263v.705l-.18.533.18.533.353.18z"/><path fill="#929596" d="M56.657 2.476h-4.252l-.624-.09-.18-.533-.091-.623-.18-.533-.264-.443.353-.18.624.09h4.253l.353.18-.09.624v.705l.09.623v.18zM57.543 2.657l-.263-.443-.18-.533V.976l.18-.533.263-.443.353.353.09.623v.705l-.09.623zM31.83 5.666l-.09-.623V.795l.18.353v4.248l-.09.262zM28.112 14.35l-.09-.623V.976l.18.352V14.08l-.09.263zM12.676 14.35l-.09-.623V1.68l.09-.623.09.623v12.046zM22.963 3.362l-.09-.623V1.32h.18V2.74zM5.945 14.35l-.09-.623V4.518l-.181-.533.18-.533V1.33l.181.352v12.046zM9.663 5.847h-1.42l.352-.18h.706l.263-.443V1.68l.18-.352v4.247l-.09.263zM18.358 14.35l-.09-.623V1.681h.18v12.046zM44.777 12.218h-.706l-.624-.09V1.508l.18.353v9.922l.444.263h.706v.18zM52.05 6.904l-.18-.533-.09-.623.18-.533V4.51l.443-.262h6.388l.09.623v1.418l-.263.443h-5.673l-.624-.09v-.705h-.18v.352l-.09.624zM59.852 6.732l-.263-.443-.18-.533v-.705l.18-.533.443-.262.263.443v1.418l-.263.443-.18.18zM22.43 4.609h-1.42l-.354-.18h1.42zM14.811 6.732l-.09-.623V4.69l.18.353v1.419l-.09.262zM34.317 8.676l-.09-.624V6.634h.18v1.418zM22.43 9.037l-.09-.624v-.705l.09-.623.09.623v.705zM58.077 10.627h-5.673l-.353-.353.09-.442-.09-.443.09-.623V8.06l.263.262h5.673l.09.623v1.419zM59.145 10.808l-.354-.353-.09-.623v-.705l.09-.623.534-.18.263.442v1.419l-.263.442zM27.75 12.579l-.09-.624V9.832l.18-.353v2.837zM9.663 14.35l-.09-.623V10.89l.18-.353v3.542l-.09.263zM31.83 14.35l-.09-.623V10.89l.18-.353v3.542l-.09.263zM14.811 14.35l-.09-.623v-1.419l.262-.09-.09.443v1.418l-.09.263zM22.077 12.218h-1.42l.352-.18h.706l.353.18zM56.657 14.875h-4.968l-.443-.263.18-.533-.18-.533h.353l-.18-.533.262-.09.18-.533h4.615l.18.353-.09.623v.705l.09.623zM57.724 14.875l-.444-.263-.18-.533v-.705l.18-.533.263-.443.353.353.09.623v.705l-.09.624-.18.18zM56.305 27.634H.264v-.18h56.04zM.887 41v-9.922l.09-.623.09.623V41z"/><path fill="#028BC3" d="m3.103 10.274-.09-.623-.263-.443-.624-.09v-.705l-.18-.533V2.919l-.444-.262H.09L0 2.033V.623L.263.18h4.252l.624.09v2.124l-.443.263h-1.42l-.09.623v6.38l-.09.623zM10.016 10.094l-.09-.623v-.705l-.444-.262H7.356l-.09.623-.181.352-.443-.262-.263.443h-.18V2.567l-.181-.533V.624L6.28.18h.706l.444.262v4.961l.09.623h2.126l.263-.443V1.33L9.73.796l.09-.624h.706l.624.09V5.93l-.18.533v2.837l-.181.353-.263-.443-.444.262-.09.623zM15.87 9.39l-.534-.181-.624.09-.624.09-.533-.18-.624-.09v-.706l-.181-.533V.796l.09-.624h2.127l.533.18.444.263.262.443.263.443.18.533.181.533v3.542l-.18.533-.09.623-.181.533-.263.443-.353.353.18.533-.09.262zM19.598 9.922l-.09-.623-.625-.09-.18.533-.09-.623V2.034l-.181-.533V.796l.09-.624h3.547l.09.624v1.418l-.263.443h-1.42l-.624.09-.18.533v2.124l.09.623h1.42l.443.263v2.123l-.624.09h-.706l-.624.09V9.3l-.09.623zM26.863 10.275l-.09-.624-.263-.442h-.706l-.443.09-.353-.353-.444-.262-.353-.353-.262-.443-.263-.442-.18-.533-.091-.624-.09-.623-.09-.623V3.624l.09-.623.09-.623.18-.533.181-.533.263-.443.353-.352.353-.353h.706l.534.18.353.353.353.353.262.442-.18.533-.09.624-.09.623-.354.18-.353-.352-.353-.353-.624-.09-.262.443-.181.533v.705l.09.623.263.443.353.352.443.263.353.352.263.443.263.443.18.533.09.623.181.533v.705l-.09.624zM33.07 10.275l-.09-.623-.263-.443-.443.262-.18-.352-.09-.624h-2.127l-.444.263v.705l-.09.623-.09-.623-.444-.262-.443.09V7.167l-.09-.623-.09-.623V.263l.624-.09h.706l.09.623-.09.623-.09.623v3.542l.262.443h2.126l.263-.443-.18-.533V.796l.09-.624h.706l.443.263v9.208l-.09.624zM34.671 10.275l-.09-.623v-.706l-.18-.533V5.576l.18-.533v-.705l.18-.533.181-.533.09-.623.181-.533.263-.443.263-.443L36 .787l.353-.352.444-.263h.706l.533.18.444.263.353.353.262.443.263.442.18.533.181.533.181.533.18.533v.706l.181.533V9.47h-.18l-.444-.262-.443-.263-.09-.442.09-.624-.18-.533V5.93l-.181-.533V4.69l-.263-.443-.18-.533-.354-.353-.533-.18-.624.09-.353.353-.353.352-.18.533-.181.533v.705l-.181.533V9.12l-.263.09-.624.09v.705l-.09.263zM41.583 9.922l-.09-.623v-7.79l-.18-.533.18-.533.444-.263h.706l.09.623v7.79l-.18.533-.264.09-.623.09-.09.624zM50.984 9.922l-.09-.623-.625-.09-.262-.443V6.642l-.181-.533v-.705l-.18-.533-.091-.624-.18-.533-.263-.442-.263-.443-.534-.18h-.706l-.263.442V7.34l-.09.623-.09.623v.705h-.18l-.625-.09-.262.263V5.215l-.09-.623-.091-.623V.443l.443-.263h2.127l.533.18.353.353.353.353.263.443.263.442.18.533.263.443.09.623.09.624.181.533v1.418l.181.533v1.419l-.18.533v.705l-.09.623z"/><path fill="#028BC3" d="m15.073 6.994.263-.442.18-.533.09-.624.181-.533v-.705l-.18-.533-.18-.533-.354-.352-.624-.09-.443.262v3.542l.09.623h.706l.263-.09z"/></g></g><defs><clipPath id="a"><path fill="#fff" d="M0 0h61v41H0z"/></clipPath><clipPath id="b"><path fill="#fff" d="M0 0h61v41H0z"/></clipPath></defs></svg>