<svg width="32" height="32" viewBox="0 0 32 32" xmlns="http://www.w3.org/2000/svg"><path d="M26.5 20a1.5 1.5 0 1 0 0 3 1.5 1.5 0 0 0 0-3ZM23 21.5a3.5 3.5 0 1 1 7 0 3.5 3.5 0 0 1-7 0Z"/><path d="m23.793 22.793 1.414 1.414-2.293 2.293.793.793a1 1 0 0 1 0 1.414l-1 1a1 1 0 0 1-1.414 0l-1.5-1.5a1 1 0 0 1 0-1.414l4-4ZM16 4a4.5 4.5 0 1 0 0 9 4.5 4.5 0 0 0 0-9ZM9.5 8.5a6.5 6.5 0 1 1 13 0 6.5 6.5 0 0 1-13 0Z"/><path d="M16 15c-5.596 0-10 4.313-10 9.07 0 .984.825 1.975 2.807 2.764 1.909.759 4.523 1.16 7.193 1.16a1 1 0 1 1 0 2c-2.83 0-5.716-.42-7.932-1.302C5.925 27.839 4 26.369 4 24.07 4 18.068 9.446 13 16 13c2.64 0 5.085.817 7.068 2.175a1 1 0 1 1-1.13 1.65A10.496 10.496 0 0 0 16 15Z"/></svg>