<svg width="32" height="32" viewBox="0 0 32 32" xmlns="http://www.w3.org/2000/svg"><path d="M26.5 19.75a1.75 1.75 0 1 0 0 3.5 1.75 1.75 0 0 0 0-3.5Zm-3.25 1.75a3.25 3.25 0 1 1 6.5 0 3.25 3.25 0 0 1-6.5 0Z"/><path d="m23.97 22.97 1.06 1.06-2.47 2.47.97.97a.75.75 0 0 1 0 1.06l-1 1a.75.75 0 0 1-1.06 0l-1.5-1.5a.75.75 0 0 1 0-1.06l4-4ZM16 3.75a4.75 4.75 0 1 0 0 9.5 4.75 4.75 0 0 0 0-9.5ZM9.75 8.5a6.25 6.25 0 1 1 12.5 0 6.25 6.25 0 0 1-12.5 0Z"/><path d="M16 14.75c-5.716 0-10.25 4.407-10.25 9.32 0 1.148.963 2.2 2.965 2.996 1.947.774 4.595 1.177 7.285 1.177a.75.75 0 0 1 0 1.5c-2.81 0-5.662-.417-7.84-1.283-2.123-.845-3.91-2.256-3.91-4.39 0-5.847 5.315-10.82 11.75-10.82 2.589 0 4.984.8 6.927 2.131a.75.75 0 1 1-.848 1.238A10.746 10.746 0 0 0 16 14.75Z"/></svg>