<svg xmlns="http://www.w3.org/2000/svg" width="32" height="32" viewBox="0 0 32 32"><path d="M15.75 23.5a2.75 2.75 0 1 1 0 5.5 2.75 2.75 0 0 1 0-5.5M8.75 17a2.75 2.75 0 1 1 0 5.5 2.75 2.75 0 0 1 0-5.5M15.75 17a2.75 2.75 0 1 1 0 5.5 2.75 2.75 0 0 1 0-5.5M22.75 17a2.75 2.75 0 1 1 0 5.5 2.75 2.75 0 0 1 0-5.5M8.75 10.5a2.75 2.75 0 1 1 0 5.5 2.75 2.75 0 0 1 0-5.5M15.75 10.5a2.75 2.75 0 1 1 0 5.5 2.75 2.75 0 0 1 0-5.5M22.75 10.5a2.75 2.75 0 1 1 0 5.5 2.75 2.75 0 0 1 0-5.5M8.75 4a2.75 2.75 0 1 1 0 5.5 2.75 2.75 0 0 1 0-5.5M15.75 4a2.75 2.75 0 1 1 0 5.5 2.75 2.75 0 0 1 0-5.5M22.75 4a2.75 2.75 0 1 1 0 5.5 2.75 2.75 0 0 1 0-5.5"/></svg>