<svg xmlns="http://www.w3.org/2000/svg" width="32" height="32" viewBox="0 0 32 32"><path d="M25 18.25A2.75 2.75 0 0 1 27.75 21v1.245H28c.967 0 1.75.784 1.75 1.75v4a1.75 1.75 0 0 1-1.75 1.75h-6a1.75 1.75 0 0 1-1.75-1.75v-4c0-.966.784-1.75 1.75-1.75h.25V21A2.75 2.75 0 0 1 25 18.25m-3 5.495a.25.25 0 0 0-.25.25v4c0 .138.112.25.25.25h6a.25.25 0 0 0 .25-.25v-4a.25.25 0 0 0-.25-.25h-.917a1 1 0 0 1-.083.005h-4a1 1 0 0 1-.083-.005zm3-3.995A1.25 1.25 0 0 0 23.75 21v1.245h2.5V21A1.25 1.25 0 0 0 25 19.75M16 2.75c.646 0 1.318.2 1.997.49.614.262 1.281.62 2.001 1.03a2 2 0 0 0-.925 1.199 18 18 0 0 0-1.665-.85c-.601-.256-1.056-.369-1.409-.369s-.807.113-1.408.37c-.597.254-1.283.626-2.092 1.092-1.514.874-3.423 2.059-5.766 3.255-.178 4.923.676 8.526 2.295 11.417 1.596 2.849 3.968 5.07 6.971 7.198 1.287-.912 2.457-1.842 3.501-2.83v2.016a38 38 0 0 1-3.074 2.348.75.75 0 0 1-.854 0c-3.292-2.28-6.022-4.733-7.852-8-1.834-3.275-2.725-7.298-2.47-12.652a.75.75 0 0 1 .414-.635C8.137 6.593 10.1 5.366 11.75 4.413c.816-.47 1.569-.88 2.253-1.173.68-.29 1.35-.49 1.997-.49M16 6.75c.468 0 .99.184 1.47.404.505.23 1.06.546 1.625.898l.11.071q-.028.055-.052.112a2 2 0 0 0 .079 1.7 30 30 0 0 0-.932-.612 13 13 0 0 0-1.452-.804c-.444-.203-.72-.269-.849-.269s-.405.066-.849.269c-.42.192-.915.47-1.452.804-.97.607-2.029 1.368-2.96 2.062-.098 3.287.417 5.532 1.355 7.293.896 1.682 2.211 2.985 3.905 4.358 1.695-1.373 3.011-2.676 3.907-4.358.87-1.63 1.373-3.676 1.367-6.578l1.46 1.46c-.142 2.368-.656 4.236-1.502 5.823-1.128 2.117-2.805 3.66-4.767 5.206a.75.75 0 0 1-.929 0c-1.962-1.546-3.638-3.09-4.765-5.206-1.133-2.126-1.672-4.754-1.519-8.414l.009-.084a.75.75 0 0 1 .291-.484c1.003-.752 2.225-1.644 3.355-2.349.563-.352 1.119-.669 1.623-.898.48-.22 1.003-.404 1.471-.404M26.51 14.307a21.5 21.5 0 0 1-.729 3.282 3.5 3.5 0 0 0-1.577.003c.275-.812.5-1.675.672-2.599a2 2 0 0 0 1.538-.579q.051-.052.097-.107M29 8.25a.75.75 0 0 1 0 1.5h-6.19l2.72 2.72a.75.75 0 1 1-1.06 1.06l-4-4A.75.75 0 0 1 21 8.25zM26.78 11a31 31 0 0 1-.04 1.017 2 2 0 0 0-.326-.43L25.828 11zM24.47 1.47a.75.75 0 0 1 1.06 0l4 4A.75.75 0 0 1 29 6.75h-8a.75.75 0 0 1 0-1.5h6.19l-2.72-2.72a.75.75 0 0 1 0-1.06"/></svg>