<svg xmlns="http://www.w3.org/2000/svg" width="33" height="32" fill="none" viewBox="0 0 33 32"><path fill="url(#a)" fill-rule="evenodd" d="M2.753 12.433c0 2.53 1.377 4.841 3.503 6.372q.282.187.282.562c0 .062-.031.156-.031.218-.157.625-.438 1.656-.47 1.687-.03.094-.062.156-.062.25 0 .187.156.344.344.344.063 0 .125-.032.188-.063l2.22-1.28c.157-.094.344-.157.532-.157.094 0 .219 0 .313.032 1.032.312 2.158.468 3.315.468 5.599 0 10.134-3.78 10.134-8.433S18.486 4 12.887 4C7.29 4 2.753 7.78 2.753 12.433" clip-rule="evenodd"/><path fill="url(#b)" fill-rule="evenodd" d="M22.329 25.829c.967 0 1.903-.126 2.746-.378.062-.031.156-.031.25-.031.155 0 .311.063.436.126l1.841 1.07c.063.031.094.063.156.063a.28.28 0 0 0 .28-.284c0-.063-.03-.126-.03-.22 0-.031-.25-.881-.375-1.416-.03-.063-.03-.126-.03-.189 0-.189.093-.346.249-.472 1.778-1.29 2.901-3.21 2.901-5.35 0-3.902-3.775-7.08-8.424-7.08s-8.424 3.147-8.424 7.08c0 3.903 3.775 7.08 8.424 7.08" clip-rule="evenodd"/><path fill="#168743" fill-rule="evenodd" d="M10.812 9.71c0 .729-.576 1.306-1.303 1.306A1.294 1.294 0 0 1 8.207 9.71c0-.728.575-1.305 1.302-1.305s1.303.577 1.303 1.305M17.567 9.71c0 .729-.575 1.306-1.302 1.306a1.294 1.294 0 0 1-1.302-1.306c0-.728.575-1.305 1.302-1.305s1.302.577 1.302 1.305" clip-rule="evenodd"/><path fill="#919191" fill-rule="evenodd" d="M24.079 16.563c0 .634.506 1.142 1.14 1.142s1.14-.508 1.14-1.142c0-.635-.507-1.142-1.14-1.142-.634 0-1.14.507-1.14 1.142M18.463 16.563c0 .634.506 1.142 1.14 1.142.632 0 1.139-.508 1.139-1.142 0-.635-.507-1.142-1.14-1.142s-1.14.507-1.14 1.142" clip-rule="evenodd"/><defs><linearGradient id="a" x1="29.889" x2="29.889" y1="25.352" y2="4.099" gradientUnits="userSpaceOnUse"><stop stop-color="#05CD66"/><stop offset="1" stop-color="#61F380"/><stop offset="1" stop-color="#9EEE69"/></linearGradient><linearGradient id="b" x1="29.878" x2="29.878" y1="25.212" y2="3.992" gradientUnits="userSpaceOnUse"><stop stop-color="#E4E6E6"/><stop offset="1" stop-color="#F0F0F0"/></linearGradient></defs></svg>