<svg width="32" height="32" viewBox="0 0 32 32" fill="none" xmlns="http://www.w3.org/2000/svg">
<path d="M25.3818 27.8486C27.8574 27.8486 29.127 26.5918 29.127 24.1416V8.57715C29.127 6.11426 27.8574 4.85742 25.3818 4.85742H14.5146C13.0801 4.85742 11.9248 5.1875 10.9346 6.21582L3.31738 14.0488C2.55566 14.8486 2.21289 15.5596 2.21289 16.3213C2.21289 17.0957 2.54297 17.8066 3.31738 18.6064L10.9473 26.3252C11.9375 27.3535 13.0928 27.8359 14.5273 27.8359L25.3818 27.8486ZM25.3438 26.2744H14.502C13.499 26.2744 12.8262 25.9824 12.1152 25.2588L4.53613 17.5654C4.06641 17.083 3.91406 16.7275 3.91406 16.3213C3.91406 15.9277 4.0918 15.5723 4.53613 15.0898L12.1025 7.29492C12.8008 6.58398 13.499 6.43164 14.4893 6.43164H25.3438C26.7783 6.43164 27.5527 7.19336 27.5527 8.65332V24.0527C27.5527 25.5254 26.7783 26.2744 25.3438 26.2744ZM22.2715 21.4248C22.7031 21.4248 23.0332 21.082 23.0332 20.6758C23.0332 20.4727 22.957 20.2949 22.8047 20.1426L19.0088 16.3467L22.8047 12.5508C22.957 12.3984 23.0332 12.2207 23.0332 12.0176C23.0332 11.5859 22.7031 11.2559 22.2715 11.2559C22.0811 11.2559 21.8906 11.332 21.751 11.4844L17.9424 15.2803L14.1465 11.4844C13.9941 11.332 13.8291 11.2559 13.6133 11.2559C13.207 11.2559 12.8643 11.5986 12.8643 12.0176C12.8643 12.2207 12.9404 12.3984 13.0928 12.5508L16.876 16.3467L13.0928 20.1426C12.9404 20.2949 12.8643 20.4727 12.8643 20.6758C12.8643 21.0947 13.1943 21.4248 13.6133 21.4248C13.8291 21.4248 14.0068 21.3486 14.1338 21.209L17.9424 17.4004L21.751 21.209C21.8906 21.3486 22.0684 21.4248 22.2715 21.4248Z" fill="black"/>
</svg>
