<svg width="61" height="60" viewBox="0 0 61 60" fill="none" xmlns="http://www.w3.org/2000/svg">
<path d="M26.8482 54.7002V29.7002C26.8482 27.9002 25.2482 26.4002 23.3482 26.7002C21.9482 26.9002 20.8482 28.3002 20.8482 29.8002C20.9482 37.7002 27.7482 46.6002 38.5482 46.7002C44.1482 46.8002 48.8482 42.2002 48.8482 36.6002V32.7002M40.8482 28.7002H44.8482M27.8482 20.7002H46.8482C47.9482 20.7002 48.8482 19.8002 48.8482 18.7002C48.8482 12.1002 43.4482 6.7002 36.8482 6.7002H31.8482M20.9482 11.1002C19.4482 10.2002 17.7482 9.7002 15.9482 9.7002C10.4482 9.7002 5.94824 14.2002 5.94824 19.7002C5.94824 25.2002 10.4482 29.7002 15.9482 29.7002C16.4482 29.7002 16.8482 29.4002 16.8482 28.9002C16.7482 27.9002 15.9482 25.4002 15.9482 22.7002C15.9482 13.9002 23.1482 6.7002 31.9482 6.7002M39.5482 31.8002C40.3482 31.1002 40.9482 30.0002 40.9482 28.8002C40.9482 26.6002 39.1482 24.8002 36.9482 24.8002C34.7482 24.8002 32.9482 26.6002 32.9482 28.8002C32.9482 31.0002 34.7482 32.8002 36.9482 32.8002C37.9482 32.7002 38.8482 32.4002 39.5482 31.8002ZM45.8482 31.4002C46.5482 32.2002 47.6482 32.8002 48.8482 32.8002C51.0482 32.8002 52.8482 31.0002 52.8482 28.8002C52.8482 26.6002 51.0482 24.8002 48.8482 24.8002C46.6482 24.8002 44.8482 26.6002 44.8482 28.8002C44.8482 29.8002 45.2482 30.7002 45.8482 31.4002Z" stroke="white" stroke-width="2.5" stroke-miterlimit="10" stroke-linecap="round" stroke-linejoin="round"/>
</svg>
