<svg xmlns="http://www.w3.org/2000/svg" width="33" height="33" fill="none" viewBox="0 0 33 33"><path fill="url(#a)" d="M16.772.893c-8.732 0-15.5 6.396-15.5 15.036 0 4.519 1.851 8.424 4.867 11.12a1.24 1.24 0 0 1 .417.885l.084 2.757a1.24 1.24 0 0 0 1.74 1.097l3.077-1.358c.26-.115.553-.137.828-.061 1.462.399 2.97.599 4.486.596 8.732 0 15.5-6.397 15.5-15.036 0-8.64-6.768-15.036-15.5-15.036m9.307 11.569-4.553 7.224a2.324 2.324 0 0 1-3.362.62l-3.621-2.716a.93.93 0 0 0-1.12.003l-4.891 3.712c-.653.495-1.505-.286-1.068-.979l4.553-7.224a2.32 2.32 0 0 1 2.498-1.024c.313.074.607.211.864.404L19 15.198a.93.93 0 0 0 1.12-.003l4.891-3.712c.653-.496 1.505.286 1.068.979"/><path fill="#fff" d="m21.526 19.686 4.553-7.224c.437-.693-.415-1.475-1.068-.98l-4.89 3.713a.93.93 0 0 1-1.12.003l-3.622-2.716a2.323 2.323 0 0 0-3.362.62l-4.553 7.224c-.437.693.415 1.474 1.068.98l4.89-3.713a.93.93 0 0 1 1.12-.003l3.622 2.716a2.326 2.326 0 0 0 3.362-.62"/><defs><radialGradient id="a" cx="0" cy="0" r="1" gradientTransform="translate(7.238 31.727)scale(33.7775)" gradientUnits="userSpaceOnUse"><stop stop-color="#09F"/><stop offset=".61" stop-color="#A033FF"/><stop offset=".935" stop-color="#FF5280"/><stop offset="1" stop-color="#FF7061"/></radialGradient></defs></svg>