<svg width="193" height="192" viewBox="0 0 193 192" fill="none" xmlns="http://www.w3.org/2000/svg">
<path d="M83.8579 87.52C84.9625 87.52 85.8579 86.6246 85.8579 85.52C85.8579 84.4154 84.9625 83.52 83.8579 83.52C82.7533 83.52 81.8579 84.4154 81.8579 85.52C81.8579 86.6246 82.7533 87.52 83.8579 87.52Z" fill="white"/>
<path d="M103.736 82.3999C103.736 82.3999 108.136 95.9999 109.736 100.4C111.736 106.4 107.736 108.4 103.736 108.4H99.7357M51.7357 160.4V98.3999C51.7357 93.5999 47.7357 89.9999 42.7357 90.3999C38.3357 90.7999 35.3357 94.9999 35.7357 99.3999C36.9357 116 62.9357 144.8 94.3357 144.4C110.736 144.2 123.736 130.8 123.736 114.4V70.3999C123.736 48.3999 105.736 30.3999 83.7357 30.3999C63.1357 30.3999 46.1357 46.1999 43.9357 66.1999C43.7357 68.5999 45.5357 70.5999 47.9357 70.5999H155.736" stroke="white" stroke-width="2.5" stroke-miterlimit="10" stroke-linecap="round" stroke-linejoin="round"/>
</svg>
