<svg width="32" height="32" viewBox="0 0 32 32" fill="none" xmlns="http://www.w3.org/2000/svg">
<path d="M25.5308 6.47C25.4611 6.40034 25.3785 6.34508 25.2875 6.30738C25.1965 6.26968 25.099 6.25027 25.0005 6.25027C24.902 6.25027 24.8045 6.26968 24.7135 6.30738C24.6225 6.34508 24.5398 6.40034 24.4702 6.47L7.75049 23.1888V9.0003C7.75049 8.80139 7.67147 8.61062 7.53082 8.46997C7.39017 8.32932 7.1994 8.2503 7.00049 8.2503C6.80158 8.2503 6.61081 8.32932 6.47016 8.46997C6.32951 8.61062 6.25049 8.80139 6.25049 9.0003V25.0003C6.25054 25.1992 6.32957 25.3899 6.47021 25.5306C6.61086 25.6712 6.80159 25.7503 7.00049 25.7503H23.0005C23.1994 25.7503 23.3902 25.6713 23.5308 25.5306C23.6715 25.39 23.7505 25.1992 23.7505 25.0003C23.7505 24.8014 23.6715 24.6106 23.5308 24.47C23.3902 24.3293 23.1994 24.2503 23.0005 24.2503H8.81012L25.5308 7.53057C25.6004 7.46095 25.6557 7.37828 25.6934 7.28729C25.7311 7.1963 25.7505 7.09878 25.7505 7.00029C25.7505 6.9018 25.7311 6.80427 25.6934 6.71328C25.6557 6.62229 25.6004 6.53963 25.5308 6.47Z" fill="#0F0F0F"/>
</svg>
