<svg width="32" height="32" viewBox="0 0 32 32" fill="none" xmlns="http://www.w3.org/2000/svg">
<path d="M24.9998 4.25H6.99982C5.74048 4.25143 4.53313 4.75233 3.64264 5.64282C2.75215 6.53331 2.25125 7.74066 2.24982 9V10.0151C2.24982 10.2141 2.32883 10.4048 2.46949 10.5455C2.61014 10.6861 2.8009 10.7651 2.99982 10.7651C3.19873 10.7651 3.38949 10.6861 3.53015 10.5455C3.6708 10.4048 3.74982 10.2141 3.74982 10.0151V9C3.75081 8.13835 4.09354 7.31228 4.70282 6.703C5.3121 6.09373 6.13817 5.751 6.99982 5.75H24.9998C25.8615 5.751 26.6875 6.09372 27.2968 6.703C27.9061 7.31228 28.2488 8.13835 28.2498 9V19C28.2488 19.8616 27.9061 20.6877 27.2968 21.297C26.6875 21.9063 25.8615 22.249 24.9998 22.25H6.99982C6.13817 22.249 5.3121 21.9063 4.70282 21.297C4.09354 20.6877 3.75081 19.8616 3.74982 19V18.1123C3.74982 17.9134 3.6708 17.7226 3.53015 17.582C3.38949 17.4413 3.19873 17.3623 2.99982 17.3623C2.8009 17.3623 2.61014 17.4413 2.46949 17.582C2.32883 17.7226 2.24982 17.9134 2.24982 18.1123V19C2.25125 20.2593 2.75215 21.4667 3.64264 22.3572C4.53313 23.2477 5.74048 23.7486 6.99982 23.75H11.5003L10.6014 24.9502C10.406 25.21 10.287 25.519 10.2575 25.8427C10.228 26.1664 10.2894 26.4919 10.4346 26.7826C10.5798 27.0734 10.8032 27.318 11.0797 27.4888C11.3562 27.6597 11.6748 27.7501 11.9998 27.75H19.9998C20.3248 27.7499 20.6433 27.6594 20.9196 27.4885C21.196 27.3176 21.4194 27.0732 21.5646 26.7825C21.7099 26.4918 21.7714 26.1665 21.7422 25.8429C21.713 25.5192 21.5942 25.2101 21.3992 24.9502L20.4998 23.75H24.9998C26.2592 23.7486 27.4665 23.2477 28.357 22.3572C29.2475 21.4667 29.7484 20.2593 29.7498 19V9C29.7484 7.74066 29.2475 6.53331 28.357 5.64282C27.4665 4.75233 26.2592 4.25143 24.9998 4.25ZM20.198 25.8506C20.226 25.8875 20.2432 25.9315 20.2476 25.9777C20.2519 26.0238 20.2433 26.0702 20.2227 26.1117C20.2021 26.1533 20.1703 26.1882 20.1309 26.2126C20.0915 26.2371 20.0461 26.25 19.9998 26.25H11.9998C11.9533 26.2503 11.9077 26.2375 11.8682 26.2131C11.8286 26.1887 11.7967 26.1537 11.7761 26.1121C11.7554 26.0705 11.7468 26.024 11.7513 25.9777C11.7558 25.9315 11.7732 25.8874 11.8015 25.8506L13.3748 23.75H18.6248L20.198 25.8506Z" fill="#0F0F0F"/>
<path d="M2.24982 14C2.24987 14.1989 2.3289 14.3896 2.46955 14.5303C2.61019 14.6709 2.80092 14.7499 2.99982 14.75H11.1893L8.46955 17.4697C8.39969 17.5393 8.34424 17.622 8.30637 17.713C8.2685 17.8041 8.24896 17.9017 8.24886 18.0003C8.24877 18.0989 8.26812 18.1966 8.30581 18.2877C8.3435 18.3788 8.39879 18.4616 8.46851 18.5313C8.53824 18.601 8.62103 18.6563 8.71214 18.694C8.80326 18.7317 8.90092 18.7511 8.99952 18.751C9.09813 18.7509 9.19574 18.7313 9.28679 18.6935C9.37783 18.6556 9.46051 18.6001 9.5301 18.5303L13.5301 14.5303C13.6701 14.3893 13.7486 14.1987 13.7486 14C13.7486 13.8013 13.6701 13.6107 13.5301 13.4697L9.5301 9.46973C9.46051 9.39987 9.37783 9.34442 9.28679 9.30655C9.19574 9.26868 9.09813 9.24914 8.99952 9.24904C8.90092 9.24894 8.80326 9.26829 8.71214 9.30598C8.62103 9.34367 8.53824 9.39896 8.46851 9.46869C8.39879 9.53841 8.3435 9.6212 8.30581 9.71232C8.26812 9.80343 8.24877 9.90109 8.24886 9.99969C8.24896 10.0983 8.2685 10.1959 8.30637 10.287C8.34424 10.378 8.39969 10.4607 8.46955 10.5303L11.1893 13.25H2.99982C2.80092 13.2501 2.61019 13.3291 2.46955 13.4697C2.3289 13.6104 2.24987 13.8011 2.24982 14Z" fill="#0F0F0F"/>
</svg>
