<svg width="32" height="32" viewBox="0 0 32 32" fill="none" xmlns="http://www.w3.org/2000/svg">
<path d="M15.9999 2C18.7833 1.99518 21.5048 2.8216 23.8155 4.37333C26.1263 5.92506 27.9211 8.13143 28.9699 10.7097C30.0187 13.288 30.2737 16.1207 29.7024 18.8448C29.131 21.569 27.7592 24.0604 25.7628 26H28.9999C29.2651 26 29.5195 26.1054 29.707 26.2929C29.8946 26.4804 29.9999 26.7348 29.9999 27C29.9999 27.2652 29.8946 27.5196 29.707 27.7071C29.5195 27.8946 29.2651 28 28.9999 28H22.9999C22.7347 28 22.4804 27.8946 22.2928 27.7071C22.1053 27.5196 21.9999 27.2652 21.9999 27V21C21.9999 20.7348 22.1053 20.4804 22.2928 20.2929C22.4804 20.1054 22.7347 20 22.9999 20C23.2651 20 23.5195 20.1054 23.707 20.2929C23.8946 20.4804 23.9999 20.7348 23.9999 21V24.9251C26.0819 23.0521 27.4422 20.5091 27.8446 17.7376C28.247 14.9662 27.6662 12.1414 26.2029 9.75355C24.7396 7.36575 22.4863 5.56578 19.8343 4.66617C17.1822 3.76657 14.2988 3.82414 11.6847 4.82888C9.0707 5.83362 6.89105 7.72209 5.52425 10.1664C4.15745 12.6107 3.68981 15.4565 4.20254 18.2097C4.71526 20.9628 6.17596 23.4495 8.33103 25.2379C10.4861 27.0264 13.1994 28.0036 15.9999 28C16.2651 28 16.5195 28.1054 16.707 28.2929C16.8946 28.4804 16.9999 28.7348 16.9999 29C16.9999 29.2652 16.8946 29.5196 16.707 29.7071C16.5195 29.8946 16.2651 30 15.9999 30C12.2869 30 8.72593 28.525 6.10043 25.8995C3.47492 23.274 1.99992 19.713 1.99992 16C1.99992 12.287 3.47492 8.72601 6.10043 6.1005C8.72593 3.47499 12.2869 2 15.9999 2Z" fill="#0F0F0F"/>
<path d="M15.9999 7C16.2651 7 16.5195 7.10536 16.707 7.29289C16.8946 7.48043 16.9999 7.73478 16.9999 8V16C16.9999 16.2652 16.8946 16.5196 16.707 16.7071L11.707 21.7071C11.6146 21.8019 11.5043 21.8774 11.3825 21.9292C11.2606 21.981 11.1297 22.0082 10.9973 22.009C10.865 22.0098 10.7337 21.9844 10.6113 21.9341C10.4888 21.8838 10.3775 21.8097 10.2839 21.7161C10.1903 21.6225 10.1162 21.5112 10.0659 21.3888C10.0156 21.2663 9.99019 21.1351 9.99103 21.0027C9.99187 20.8703 10.019 20.7394 10.0708 20.6176C10.1226 20.4957 10.1981 20.3854 10.2929 20.293L14.9999 15.5858V8C14.9999 7.73478 15.1053 7.48043 15.2928 7.29289C15.4803 7.10536 15.7347 7 15.9999 7Z" fill="#0F0F0F"/>
</svg>
