<svg width="32" height="32" viewBox="0 0 32 32" fill="none" xmlns="http://www.w3.org/2000/svg">
<path d="M22 22C21.9999 22.1313 22.0257 22.2614 22.076 22.3828C22.1262 22.5041 22.1998 22.6144 22.2927 22.7073C22.3856 22.8002 22.4959 22.8738 22.6172 22.924C22.7386 22.9743 22.8687 23.0001 23 23H28C28.2652 23 28.5196 22.8946 28.7071 22.7071C28.8946 22.5196 29 22.2652 29 22C29 21.7348 28.8946 21.4804 28.7071 21.2929C28.5196 21.1054 28.2652 21 28 21H23C22.8687 20.9999 22.7386 21.0257 22.6172 21.0759C22.4958 21.1262 22.3856 21.1998 22.2927 21.2927C22.1998 21.3856 22.1262 21.4958 22.0759 21.6172C22.0257 21.7386 21.9999 21.8687 22 22Z" fill="#0F0F0F"/>
<path d="M22 10C21.9999 10.1313 22.0257 10.2614 22.076 10.3828C22.1262 10.5041 22.1998 10.6144 22.2927 10.7073C22.3856 10.8002 22.4959 10.8738 22.6172 10.924C22.7386 10.9743 22.8687 11.0001 23 11H28C28.2652 11 28.5196 10.8946 28.7071 10.7071C28.8946 10.5196 29 10.2652 29 10C29 9.73478 28.8946 9.48043 28.7071 9.29289C28.5196 9.10536 28.2652 9 28 9H23C22.8687 8.99991 22.7386 9.02571 22.6172 9.07593C22.4958 9.12616 22.3856 9.19981 22.2927 9.29269C22.1998 9.38557 22.1262 9.49584 22.0759 9.61721C22.0257 9.73858 21.9999 9.86865 22 10Z" fill="#0F0F0F"/>
<path d="M13 22C12.9999 22.1313 13.0257 22.2614 13.076 22.3828C13.1262 22.5041 13.1998 22.6144 13.2927 22.7073C13.3856 22.8002 13.4959 22.8738 13.6172 22.924C13.7386 22.9743 13.8687 23.0001 14 23H18C18.2652 23 18.5196 22.8946 18.7071 22.7071C18.8946 22.5196 19 22.2652 19 22C19 21.7348 18.8946 21.4804 18.7071 21.2929C18.5196 21.1054 18.2652 21 18 21H14C13.8687 20.9999 13.7386 21.0257 13.6172 21.0759C13.4958 21.1262 13.3856 21.1998 13.2927 21.2927C13.1998 21.3856 13.1262 21.4958 13.0759 21.6172C13.0257 21.7386 12.9999 21.8687 13 22Z" fill="#0F0F0F"/>
<path d="M13 10C12.9999 10.1313 13.0257 10.2614 13.076 10.3828C13.1262 10.5041 13.1998 10.6144 13.2927 10.7073C13.3856 10.8002 13.4959 10.8738 13.6172 10.924C13.7386 10.9743 13.8687 11.0001 14 11H18C18.2652 11 18.5196 10.8946 18.7071 10.7071C18.8946 10.5196 19 10.2652 19 10C19 9.73478 18.8946 9.48043 18.7071 9.29289C18.5196 9.10536 18.2652 9 18 9H14C13.8687 8.99991 13.7386 9.02571 13.6172 9.07593C13.4958 9.12616 13.3856 9.19981 13.2927 9.29269C13.1998 9.38557 13.1262 9.49584 13.0759 9.61721C13.0257 9.73858 12.9999 9.86865 13 10Z" fill="#0F0F0F"/>
<path d="M3 22C2.99992 22.1313 3.02573 22.2614 3.07596 22.3828C3.12619 22.5041 3.19984 22.6144 3.29272 22.7073C3.38559 22.8002 3.49586 22.8738 3.61722 22.924C3.73858 22.9743 3.86866 23.0001 4 23H9C9.26522 23 9.51957 22.8946 9.70711 22.7071C9.89464 22.5196 10 22.2652 10 22C10 21.7348 9.89464 21.4804 9.70711 21.2929C9.51957 21.1054 9.26522 21 9 21H4C3.86865 20.9999 3.73858 21.0257 3.61721 21.0759C3.49584 21.1262 3.38557 21.1998 3.29269 21.2927C3.19981 21.3856 3.12616 21.4958 3.07593 21.6172C3.02571 21.7386 2.99991 21.8687 3 22Z" fill="#0F0F0F"/>
<path d="M3 10C2.99992 10.1313 3.02573 10.2614 3.07596 10.3828C3.12619 10.5041 3.19984 10.6144 3.29272 10.7073C3.38559 10.8002 3.49586 10.8738 3.61722 10.924C3.73858 10.9743 3.86866 11.0001 4 11H9C9.26522 11 9.51957 10.8946 9.70711 10.7071C9.89464 10.5196 10 10.2652 10 10C10 9.73478 9.89464 9.48043 9.70711 9.29289C9.51957 9.10536 9.26522 9 9 9H4C3.86865 8.99991 3.73858 9.02571 3.61721 9.07593C3.49584 9.12616 3.38557 9.19981 3.29269 9.29269C3.19981 9.38557 3.12616 9.49584 3.07593 9.61721C3.02571 9.73858 2.99991 9.86865 3 10Z" fill="#0F0F0F"/>
</svg>
