<svg width="32" height="32" viewBox="0 0 32 32" fill="none" xmlns="http://www.w3.org/2000/svg">
<path d="M22.25 22C22.25 22.1989 22.329 22.3897 22.4697 22.5303C22.6103 22.671 22.8011 22.75 23 22.75H28C28.1989 22.75 28.3897 22.671 28.5303 22.5303C28.671 22.3897 28.75 22.1989 28.75 22C28.75 21.8011 28.671 21.6103 28.5303 21.4697C28.3897 21.329 28.1989 21.25 28 21.25H23C22.8011 21.25 22.6103 21.329 22.4697 21.4697C22.329 21.6103 22.25 21.8011 22.25 22Z" fill="#0F0F0F"/>
<path d="M22.25 10C22.25 10.1989 22.329 10.3897 22.4697 10.5303C22.6103 10.671 22.8011 10.75 23 10.75H28C28.1989 10.75 28.3897 10.671 28.5303 10.5303C28.671 10.3897 28.75 10.1989 28.75 10C28.75 9.80109 28.671 9.61032 28.5303 9.46967C28.3897 9.32902 28.1989 9.25 28 9.25H23C22.8011 9.25 22.6103 9.32902 22.4697 9.46967C22.329 9.61032 22.25 9.80109 22.25 10Z" fill="#0F0F0F"/>
<path d="M13.25 22C13.25 22.1989 13.329 22.3897 13.4697 22.5303C13.6103 22.671 13.8011 22.75 14 22.75H18C18.1989 22.75 18.3897 22.671 18.5303 22.5303C18.671 22.3897 18.75 22.1989 18.75 22C18.75 21.8011 18.671 21.6103 18.5303 21.4697C18.3897 21.329 18.1989 21.25 18 21.25H14C13.8011 21.25 13.6103 21.329 13.4697 21.4697C13.329 21.6103 13.25 21.8011 13.25 22Z" fill="#0F0F0F"/>
<path d="M13.25 10C13.25 10.1989 13.329 10.3897 13.4697 10.5303C13.6103 10.671 13.8011 10.75 14 10.75H18C18.1989 10.75 18.3897 10.671 18.5303 10.5303C18.671 10.3897 18.75 10.1989 18.75 10C18.75 9.80109 18.671 9.61032 18.5303 9.46967C18.3897 9.32902 18.1989 9.25 18 9.25H14C13.8011 9.25 13.6103 9.32902 13.4697 9.46967C13.329 9.61032 13.25 9.80109 13.25 10Z" fill="#0F0F0F"/>
<path d="M3.25 22C3.25 22.1989 3.32902 22.3897 3.46967 22.5303C3.61032 22.671 3.80109 22.75 4 22.75H9C9.19891 22.75 9.38968 22.671 9.53033 22.5303C9.67098 22.3897 9.75 22.1989 9.75 22C9.75 21.8011 9.67098 21.6103 9.53033 21.4697C9.38968 21.329 9.19891 21.25 9 21.25H4C3.80109 21.25 3.61032 21.329 3.46967 21.4697C3.32902 21.6103 3.25 21.8011 3.25 22Z" fill="#0F0F0F"/>
<path d="M3.25 10C3.25 10.1989 3.32902 10.3897 3.46967 10.5303C3.61032 10.671 3.80109 10.75 4 10.75H9C9.19891 10.75 9.38968 10.671 9.53033 10.5303C9.67098 10.3897 9.75 10.1989 9.75 10C9.75 9.80109 9.67098 9.61032 9.53033 9.46967C9.38968 9.32902 9.19891 9.25 9 9.25H4C3.80109 9.25 3.61032 9.32902 3.46967 9.46967C3.32902 9.61032 3.25 9.80109 3.25 10Z" fill="#0F0F0F"/>
</svg>
