<svg width="32" height="32" viewBox="0 0 32 32" fill="none" xmlns="http://www.w3.org/2000/svg">
<path d="M23 2.50038H9C7.80693 2.50168 6.66309 2.97621 5.81946 3.81984C4.97583 4.66347 4.5013 5.80731 4.5 7.00038V25.0004C4.5013 26.1935 4.97582 27.3373 5.81945 28.1809C6.66309 29.0246 7.80692 29.4991 9 29.5004H23C24.1931 29.4991 25.3369 29.0246 26.1805 28.1809C27.0242 27.3373 27.4987 26.1935 27.5 25.0004V7.00038C27.4987 5.80731 27.0242 4.66347 26.1805 3.81984C25.3369 2.97621 24.1931 2.50168 23 2.50038ZM5.5 25.0004V7.00038C5.50112 6.07247 5.87023 5.18288 6.52637 4.52675C7.1825 3.87062 8.07209 3.5015 9 3.50038H10.5V28.5004H9C8.07209 28.4993 7.1825 28.1301 6.52637 27.474C5.87023 26.8179 5.50112 25.9283 5.5 25.0004ZM26.5 25.0004C26.4989 25.9283 26.1298 26.8179 25.4736 27.474C24.8175 28.1301 23.9279 28.4993 23 28.5004H11.5V3.50038H23C23.9279 3.50151 24.8175 3.87062 25.4736 4.52675C26.1298 5.18288 26.4989 6.07247 26.5 7.00038V25.0004Z" fill="#0F0F0F"/>
<path d="M18.7499 13.5C19.1641 13.5 19.4999 13.1642 19.4999 12.75C19.4999 12.3357 19.1641 12 18.7499 12C18.3357 12 17.9999 12.3357 17.9999 12.75C17.9999 13.1642 18.3357 13.5 18.7499 13.5Z" fill="#0F0F0F"/>
<path d="M21 20.5004H19.5V16.0004C19.5 15.9347 19.4871 15.8697 19.462 15.809C19.4369 15.7483 19.4001 15.6932 19.3536 15.6467C19.3072 15.6003 19.2521 15.5635 19.1914 15.5384C19.1307 15.5133 19.0657 15.5003 19 15.5004H18C17.8674 15.5004 17.7402 15.5531 17.6464 15.6468C17.5527 15.7406 17.5 15.8678 17.5 16.0004C17.5 16.133 17.5527 16.2602 17.6464 16.3539C17.7402 16.4477 17.8674 16.5004 18 16.5004H18.5V20.5004H17C16.8674 20.5004 16.7402 20.5531 16.6464 20.6468C16.5527 20.7406 16.5 20.8678 16.5 21.0004C16.5 21.133 16.5527 21.2602 16.6464 21.3539C16.7402 21.4477 16.8674 21.5004 17 21.5004H21C21.1326 21.5004 21.2598 21.4477 21.3536 21.3539C21.4473 21.2602 21.5 21.133 21.5 21.0004C21.5 20.8678 21.4473 20.7406 21.3536 20.6468C21.2598 20.5531 21.1326 20.5004 21 20.5004Z" fill="#0F0F0F"/>
</svg>
