<svg width="32" height="32" viewBox="0 0 32 32" fill="none" xmlns="http://www.w3.org/2000/svg">
<path d="M28.7074 4.7068C28.8003 4.61395 28.8739 4.50372 28.9242 4.38241C28.9744 4.2611 29.0003 4.13108 29.0003 3.99977C29.0003 3.86846 28.9744 3.73844 28.9242 3.61713C28.8739 3.49582 28.8003 3.38559 28.7074 3.29274C28.6146 3.19989 28.5043 3.12624 28.383 3.07599C28.2617 3.02574 28.1317 2.99988 28.0004 2.99988C27.8691 2.99988 27.739 3.02574 27.6177 3.07599C27.4964 3.12624 27.3862 3.19989 27.2933 3.29274L13.1997 17.3864C12.34 16.2315 11.8417 14.8479 11.7677 13.41C12.2875 12.8945 13.4638 11.7361 13.4697 11.7302C14.1285 11.0705 14.4986 10.1762 14.4986 9.24379C14.4986 8.3114 14.1285 7.41712 13.4697 6.75734L10.7154 3.99934C10.0443 3.35794 9.15178 2.99999 8.22347 2.99999C7.29516 2.99999 6.40259 3.35794 5.7315 3.99934L4.25904 5.47371C2.3133 7.42115 1.8191 14.0776 8.93928 21.6468L3.29335 27.2927C3.10583 27.4803 3.00049 27.7346 3.00049 27.9998C3.00049 28.265 3.10583 28.5193 3.29335 28.7068C3.48087 28.8943 3.73519 28.9997 4.00038 28.9997C4.26557 28.9997 4.51989 28.8943 4.70741 28.7068L28.7074 4.7068ZM5.67384 6.89039L7.14625 5.44795C7.28756 5.30623 7.45545 5.1938 7.64029 5.11708C7.82513 5.04036 8.0233 5.00087 8.22343 5.00087C8.42356 5.00087 8.62172 5.04036 8.80657 5.11708C8.99141 5.1938 9.1593 5.30623 9.30061 5.44795L12.0549 8.174C12.3373 8.45688 12.4964 8.83996 12.4975 9.23969C12.4986 9.63941 12.3416 10.0234 12.0608 10.3078C12.0608 10.3078 10.5552 11.79 10.1898 12.1559C9.04614 13.3044 10.2698 16.7757 11.7809 18.8052L10.3714 20.2147C4.16426 13.6074 4.43953 8.12629 5.67384 6.89039Z" fill="#0F0F0F"/>
<path d="M25.2128 18.5161C24.886 18.1898 24.4982 17.9312 24.0714 17.755C23.6446 17.5787 23.1873 17.4883 22.7255 17.4888C22.2638 17.4893 21.8067 17.5809 21.3803 17.7581C20.954 17.9354 20.5667 18.1949 20.2407 18.5219C20.2407 18.5219 19.0838 19.7008 18.5689 20.2204C17.8449 20.2034 17.1299 20.0555 16.4586 19.7837L14.9309 21.3115C15.4619 21.567 16.0143 21.7754 16.5817 21.9344C17.4922 22.1839 19.1239 22.4979 19.8225 21.7994C20.186 21.4355 21.6613 19.9327 21.6613 19.9327C21.9449 19.6498 22.3292 19.491 22.7297 19.491C23.1303 19.491 23.5145 19.6498 23.7981 19.9327L26.5524 22.6916C26.8383 22.9778 26.999 23.3657 26.999 23.7703C26.999 24.1748 26.8383 24.5627 26.5524 24.8489L25.08 26.286C23.9431 27.4218 19.1864 27.7496 13.2908 22.9515L11.8461 24.3962C15.9863 27.8201 19.7648 29 22.5211 29C23.9577 29.1004 25.3785 28.6498 26.4948 27.7399L27.9672 26.2655C28.6285 25.6034 28.9999 24.706 28.9999 23.7702C28.9999 22.8345 28.6285 21.937 27.9672 21.275L25.2128 18.5161Z" fill="#0F0F0F"/>
</svg>
