<svg width="32" height="32" viewBox="0 0 32 32" fill="none" xmlns="http://www.w3.org/2000/svg">
<path d="M15 26.4957H17C17.1326 26.4957 17.2598 26.443 17.3536 26.3492C17.4473 26.2555 17.5 26.1283 17.5 25.9957C17.5 25.8631 17.4473 25.7359 17.3536 25.6421C17.2598 25.5484 17.1326 25.4957 17 25.4957H15C14.8674 25.4957 14.7402 25.5484 14.6464 25.6421C14.5527 25.7359 14.5 25.8631 14.5 25.9957C14.5 26.1283 14.5527 26.2555 14.6464 26.3492C14.7402 26.443 14.8674 26.4957 15 26.4957Z" fill="#0F0F0F"/>
<path d="M26 22.4996H6.5V7.00058C6.50112 6.07267 6.87023 5.18308 7.52637 4.52695C8.1825 3.87081 9.07209 3.5017 10 3.50058H22C22.9279 3.5017 23.8175 3.87081 24.4736 4.52695C25.1298 5.18308 25.4989 6.07267 25.5 7.00058C25.5 7.13319 25.5527 7.26037 25.6464 7.35413C25.7402 7.4479 25.8674 7.50058 26 7.50058C26.1326 7.50058 26.2598 7.4479 26.3536 7.35413C26.4473 7.26037 26.5 7.13319 26.5 7.00058C26.4987 5.8075 26.0242 4.66367 25.1805 3.82003C24.3369 2.9764 23.1931 2.50188 22 2.50058H10C8.80692 2.50188 7.66309 2.9764 6.81945 3.82003C5.97582 4.66367 5.5013 5.8075 5.5 7.00058V25.0006C5.5013 26.1937 5.97583 27.3375 6.81946 28.1811C7.66309 29.0248 8.80693 29.4993 10 29.5006H22C23.1931 29.4993 24.3369 29.0248 25.1805 28.1811C26.0242 27.3375 26.4987 26.1937 26.5 25.0006V22.9996C26.5 22.9339 26.4871 22.8689 26.462 22.8082C26.4369 22.7475 26.4001 22.6924 26.3536 22.646C26.3072 22.5995 26.2521 22.5627 26.1914 22.5376C26.1307 22.5125 26.0657 22.4996 26 22.4996ZM25.5 25.0006C25.4989 25.9285 25.1298 26.8181 24.4736 27.4742C23.8175 28.1304 22.9279 28.4995 22 28.5006H10C9.07209 28.4995 8.1825 28.1304 7.52637 27.4742C6.87023 26.8181 6.50112 25.9285 6.5 25.0006V23.4996H25.5V25.0006Z" fill="#0F0F0F"/>
<path d="M29.001 14.4996H22.207L25.3535 11.3531C25.4457 11.259 25.497 11.1324 25.4963 11.0007C25.4957 10.8689 25.4431 10.7428 25.3499 10.6497C25.2568 10.5565 25.1306 10.5039 24.9989 10.5032C24.8672 10.5026 24.7405 10.5539 24.6465 10.6461L20.6465 14.6461C20.6 14.6925 20.5632 14.7476 20.5381 14.8083C20.5129 14.8689 20.5 14.934 20.5 14.9996C20.5 15.0653 20.5129 15.1303 20.5381 15.1909C20.5632 15.2516 20.6 15.3067 20.6465 15.3531L24.6465 19.3531C24.7405 19.4453 24.8672 19.4966 24.9989 19.496C25.1306 19.4953 25.2568 19.4427 25.3499 19.3496C25.4431 19.2564 25.4957 19.1303 25.4963 18.9986C25.497 18.8668 25.4457 18.7402 25.3535 18.6461L22.207 15.4996H29.001C29.1336 15.4996 29.2608 15.4469 29.3546 15.3532C29.4483 15.2594 29.501 15.1322 29.501 14.9996C29.501 14.867 29.4483 14.7398 29.3546 14.646C29.2608 14.5523 29.1336 14.4996 29.001 14.4996Z" fill="#0F0F0F"/>
</svg>
