<svg width="32" height="32" viewBox="0 0 32 32" fill="none" xmlns="http://www.w3.org/2000/svg">
<path fill-rule="evenodd" clip-rule="evenodd" d="M29.5 16C29.5 23.4558 23.4558 29.5 16 29.5C8.54416 29.5 2.5 23.4558 2.5 16C2.5 8.54416 8.54416 2.5 16 2.5C23.4558 2.5 29.5 8.54416 29.5 16ZM17 27C17 27.5523 16.5523 28 16 28C15.4477 28 15 27.5523 15 27C15 26.4477 15.4477 26 16 26C16.5523 26 17 26.4477 17 27ZM16 4C15.4477 4 15 4.44772 15 5V23C15 23.5523 15.4477 24 16 24C16.5523 24 17 23.5523 17 23V5C17 4.44772 16.5523 4 16 4Z" fill="#0F0F0F"/>
</svg>
