<svg width="32" height="32" viewBox="0 0 32 32" fill="none" xmlns="http://www.w3.org/2000/svg">
<path d="M10 2.5C9.44772 2.5 9 2.94772 9 3.5V5.5C6.23858 5.5 4 7.73858 4 10.5V24.5C4 27.2614 6.23858 29.5 9 29.5H23C25.7614 29.5 28 27.2614 28 24.5V10.5C28 7.73858 25.7614 5.5 23 5.5V3.5C23 2.94772 22.5523 2.5 22 2.5C21.4477 2.5 21 2.94772 21 3.5V5.5H11V3.5C11 2.94772 10.5523 2.5 10 2.5ZM9 7.5H23C24.6569 7.5 26 8.84315 26 10.5V24.5C26 26.1569 24.6569 27.5 23 27.5H9C7.34315 27.5 6 26.1569 6 24.5V10.5C6 8.84315 7.34315 7.5 9 7.5ZM15.5666 11.802C15.5992 11.7134 15.6582 11.6369 15.7357 11.5829C15.8132 11.5289 15.9054 11.5 15.9998 11.5C16.0943 11.5 16.1865 11.5289 16.264 11.5829C16.3415 11.6369 16.4005 11.7134 16.4331 11.802L17.6907 15.3597C17.7224 15.4454 17.7788 15.5197 17.8527 15.5734C17.9267 15.627 18.0149 15.6574 18.1062 15.6609H21.5587C21.6529 15.6647 21.7437 15.6973 21.8188 15.7542C21.894 15.8112 21.9499 15.8899 21.979 15.9795C22.0081 16.0691 22.009 16.1655 21.9817 16.2557C21.9543 16.3458 21.9 16.4255 21.826 16.484L19.127 18.7998C19.0554 18.8563 19.0021 18.9326 18.974 19.0193C18.9458 19.106 18.9439 19.1991 18.9687 19.2869L20.1376 22.9152C20.1628 23.0058 20.1597 23.1021 20.1286 23.191C20.0975 23.2798 20.04 23.3571 19.9637 23.4123C19.8874 23.4675 19.7961 23.4981 19.7019 23.4999C19.6077 23.5018 19.5152 23.4748 19.4368 23.4226L16.2572 21.2544C16.1813 21.2037 16.0921 21.1767 16.0008 21.1767C15.9095 21.1767 15.8202 21.2037 15.7443 21.2544L12.5647 23.4226C12.4864 23.4748 12.3939 23.5018 12.2997 23.4999C12.2055 23.4981 12.1141 23.4675 12.0378 23.4123C11.9615 23.3571 11.904 23.2798 11.8729 23.191C11.8418 23.1021 11.8387 23.0058 11.8639 22.9152L13.0209 19.3298C13.0493 19.2294 13.0473 19.1229 13.0151 19.0237C12.9828 18.9245 12.9219 18.8371 12.8399 18.7725L10.1756 16.484C10.1016 16.4255 10.0472 16.3458 10.0198 16.2557C9.99249 16.1655 9.99343 16.0691 10.0225 15.9795C10.0517 15.8899 10.1076 15.8112 10.1827 15.7542C10.2578 15.6973 10.3486 15.6647 10.4429 15.6609H13.923C14.0141 15.6571 14.102 15.6265 14.1757 15.5729C14.2494 15.5193 14.3056 15.4452 14.3371 15.3597L15.5666 11.802Z" fill="#0F0F0F"/>
</svg>
