<svg width="32" height="32" viewBox="0 0 32 32" fill="none" xmlns="http://www.w3.org/2000/svg">
<path d="M22.9998 12.5H21.9998V8C21.9998 6.4087 21.3676 4.88258 20.2424 3.75736C19.1172 2.63214 17.5911 2 15.9998 2C14.4085 2 12.8823 2.63214 11.7571 3.75736C10.6319 4.88258 9.99976 6.4087 9.99976 8V12.5H8.99976C8.07184 12.5011 7.18226 12.8702 6.52612 13.5264C5.86999 14.1825 5.50088 15.0721 5.49976 16V26C5.50088 26.9279 5.86999 27.8175 6.52612 28.4736C7.18226 29.1298 8.07184 29.4989 8.99976 29.5H22.9998C23.9277 29.4989 24.8173 29.1298 25.4734 28.4736C26.1295 27.8175 26.4986 26.9279 26.4998 26V16C26.4986 15.0721 26.1295 14.1825 25.4734 13.5264C24.8173 12.8702 23.9277 12.5011 22.9998 12.5ZM11.9998 8C11.9998 6.93913 12.4212 5.92172 13.1713 5.17157C13.9215 4.42143 14.9389 4 15.9998 4C17.0606 4 18.078 4.42143 18.8282 5.17157C19.5783 5.92172 19.9998 6.93913 19.9998 8V12.5H11.9998V8Z" fill="#0F0F0F"/>
</svg>
