<svg width="32" height="32" viewBox="0 0 32 32" fill="none" xmlns="http://www.w3.org/2000/svg">
<path d="M23.9994 8.59052C24.1983 8.59047 24.3891 8.51143 24.5297 8.37079C24.6703 8.23015 24.7494 8.03942 24.7494 7.84052V6.75067C24.7494 6.55176 24.6704 6.36099 24.5298 6.22034C24.3891 6.07969 24.1983 6.00067 23.9994 6.00067C23.8005 6.00067 23.6098 6.07969 23.4691 6.22034C23.3284 6.36099 23.2494 6.55176 23.2494 6.75067V7.84052C23.2495 8.03942 23.3285 8.23015 23.4692 8.37079C23.6098 8.51144 23.8005 8.59047 23.9994 8.59052Z" fill="#0F0F0F"/>
<path d="M23.9998 10.6259C24.4141 10.6259 24.7498 10.2901 24.7498 9.87586C24.7498 9.46165 24.4141 9.12586 23.9998 9.12586C23.5856 9.12586 23.2498 9.46165 23.2498 9.87586C23.2498 10.2901 23.5856 10.6259 23.9998 10.6259Z" fill="#0F0F0F"/>
<path d="M19.8344 12.9177H28.1654C28.4425 12.9176 28.7149 12.8449 28.9551 12.7066C29.1953 12.5684 29.395 12.3695 29.5343 12.1299C29.6736 11.8903 29.7476 11.6183 29.7488 11.3411C29.75 11.064 29.6785 10.7913 29.5414 10.5505L25.3871 3.05048L25.3793 3.03681C25.2395 2.79637 25.0388 2.59702 24.7974 2.45884C24.556 2.32066 24.2824 2.24853 24.0043 2.24972C23.7262 2.25091 23.4533 2.32537 23.2131 2.46561C22.9729 2.60584 22.7739 2.8069 22.6361 3.04853L18.4672 10.5358C18.3267 10.7764 18.2521 11.0498 18.2511 11.3284C18.25 11.607 18.3225 11.8809 18.4612 12.1226C18.5999 12.3642 18.7999 12.5649 19.041 12.7045C19.2821 12.8441 19.5558 12.9177 19.8344 12.9177ZM24.0111 3.74967C24.0249 3.74883 24.0386 3.75186 24.0506 3.75842C24.0627 3.76498 24.0727 3.77481 24.0795 3.78678L28.2289 11.277C28.2318 11.2819 28.1625 11.4127 28.1654 11.4176H19.8344L19.77 11.2789L24.0111 3.74967Z" fill="#0F0F0F"/>
<path d="M28.9994 16.2497C28.8005 16.2497 28.6098 16.3288 28.4692 16.4694C28.3285 16.6101 28.2495 16.8008 28.2494 16.9997V21.5554C28.3034 22.4751 27.9924 23.3789 27.3839 24.0707C26.7754 24.7624 25.9185 25.1861 24.9994 25.2497H22.5801C22.3295 24.248 21.8446 23.3201 21.1654 22.5424C20.4861 21.7647 19.6319 21.1594 18.6729 20.7763C19.356 20.2236 19.8509 19.4728 20.0897 18.6272C20.3284 17.7816 20.2992 16.8827 20.006 16.0544C19.7128 15.2261 19.1702 14.509 18.4527 14.0019C17.7352 13.4947 16.8781 13.2224 15.9994 13.2224C15.1208 13.2224 14.2637 13.4947 13.5462 14.0019C12.8287 14.509 12.2861 15.2261 11.9929 16.0544C11.6997 16.8827 11.6705 17.7816 11.9092 18.6272C12.148 19.4728 12.6429 20.2236 13.3259 20.7763C12.367 21.1594 11.5128 21.7647 10.8335 22.5424C10.1542 23.3201 9.66933 24.248 9.41874 25.2497H6.99943C6.08034 25.1861 5.22348 24.7624 4.61496 24.0707C4.00644 23.3789 3.69541 22.4751 3.74943 21.5554V10.444C3.69541 9.5243 4.00644 8.62042 4.61496 7.92871C5.22348 7.23699 6.08034 6.8133 6.99943 6.74967H15.9994C16.1983 6.74967 16.3891 6.67065 16.5298 6.53C16.6704 6.38935 16.7494 6.19858 16.7494 5.99967C16.7494 5.80076 16.6704 5.60999 16.5298 5.46934C16.3891 5.32869 16.1983 5.24967 15.9994 5.24967H6.99943C5.68217 5.31264 4.44334 5.89422 3.55339 6.86741C2.66344 7.84061 2.19467 9.12638 2.24943 10.444V21.5554C2.19467 22.873 2.66344 24.1588 3.55338 25.132C4.44333 26.1052 5.68217 26.6867 6.99943 26.7497H9.25626C9.25492 26.7192 9.24943 26.6866 9.24943 26.6569C9.24943 27.4049 9.66251 28.4401 11.6283 29.1227C13.0425 29.564 14.5182 29.7757 15.9994 29.7497C19.0697 29.7497 22.6397 28.9598 22.74 26.7497H24.9994C26.3167 26.6868 27.5555 26.1052 28.4455 25.132C29.3354 24.1588 29.8042 22.873 29.7494 21.5554V16.9997C29.7494 16.8008 29.6703 16.6101 29.5297 16.4694C29.3891 16.3288 29.1983 16.2498 28.9994 16.2497ZM13.2494 17.4997C13.2494 16.9558 13.4107 16.4241 13.7129 15.9719C14.0151 15.5196 14.4446 15.1672 14.947 14.959C15.4495 14.7509 16.0025 14.6964 16.5359 14.8025C17.0694 14.9087 17.5594 15.1706 17.944 15.5552C18.3286 15.9398 18.5905 16.4298 18.6966 16.9632C18.8027 17.4966 18.7482 18.0496 18.5401 18.5521C18.332 19.0546 17.9795 19.4841 17.5272 19.7862C17.075 20.0884 16.5433 20.2497 15.9994 20.2497C15.2703 20.249 14.5713 19.959 14.0557 19.4434C13.5401 18.9279 13.2502 18.2288 13.2494 17.4997ZM15.9994 28.2497C12.9057 28.2497 10.7494 27.4108 10.7494 26.6569C10.7979 25.311 11.3775 24.0392 12.3614 23.1195C13.3453 22.1999 14.6533 21.7074 15.9994 21.7497C17.3455 21.7074 18.6536 22.1999 19.6375 23.1195C20.6213 24.0392 21.2009 25.311 21.2494 26.6569C21.2494 27.4108 19.0932 28.2497 15.9994 28.2497Z" fill="#0F0F0F"/>
</svg>
