<svg width="32" height="32" viewBox="0 0 32 32" fill="none" xmlns="http://www.w3.org/2000/svg">
<path d="M9.00006 13.5001C9.82849 13.5001 10.5001 12.8285 10.5001 12.0001C10.5001 11.1716 9.82849 10.5001 9.00006 10.5001C8.17164 10.5001 7.50006 11.1716 7.50006 12.0001C7.50006 12.8285 8.17164 13.5001 9.00006 13.5001Z" fill="#0F0F0F"/>
<path d="M28.7866 9.723C28.5615 9.58543 28.3042 9.50934 28.0405 9.50232C27.7768 9.4953 27.5158 9.5576 27.2837 9.683L23.5015 12.087V10.0003C23.5002 8.80723 23.0256 7.66339 22.182 6.81976C21.3384 5.97613 20.1945 5.5016 19.0015 5.50031H7.00146C5.80839 5.50161 4.66455 5.97613 3.82092 6.81976C2.97729 7.66339 2.50277 8.80723 2.50146 10.0003V22.0003C2.50277 23.1934 2.97729 24.3372 3.82093 25.1808C4.66456 26.0245 5.80839 26.499 7.00146 26.5003H19.0015C20.1945 26.499 21.3384 26.0245 22.182 25.1808C23.0256 24.3372 23.5002 23.1934 23.5015 22.0003V19.9112L27.3276 22.3411C27.5559 22.4565 27.8101 22.5111 28.0656 22.4998C28.3211 22.4885 28.5694 22.4117 28.7866 22.2767C29.0049 22.1427 29.185 21.9548 29.3097 21.7311C29.4344 21.5074 29.4994 21.2554 29.4986 20.9993V10.9993C29.4995 10.7434 29.4345 10.4914 29.3098 10.2679C29.1851 10.0443 29.0049 9.85669 28.7866 9.723ZM22.5015 22.0003C22.5003 22.9282 22.1312 23.8178 21.4751 24.4739C20.819 25.1301 19.9294 25.4992 19.0015 25.5003H7.00146C6.07355 25.4992 5.18397 25.1301 4.52784 24.4739C3.8717 23.8178 3.50259 22.9282 3.50146 22.0003V10.0003C3.50259 9.07239 3.8717 8.18281 4.52783 7.52667C5.18397 6.87054 6.07355 6.50143 7.00146 6.50031H19.0015C19.9294 6.50143 20.819 6.87054 21.4751 7.52667C22.1312 8.18281 22.5003 9.07239 22.5015 10.0003V22.0003ZM28.4985 20.9993C28.4992 21.0848 28.4778 21.1689 28.4362 21.2436C28.3946 21.3182 28.3343 21.3807 28.2612 21.4251C28.1973 21.4683 28.1237 21.4952 28.0469 21.5034C27.9701 21.5116 27.8924 21.5008 27.8208 21.472L23.5015 18.7264V13.272L27.7759 10.552C27.8521 10.5142 27.9367 10.4964 28.0217 10.5004C28.1067 10.5043 28.1892 10.5299 28.2616 10.5747C28.3339 10.6195 28.3937 10.682 28.4351 10.7563C28.4766 10.8305 28.4984 10.9142 28.4985 10.9993V20.9993Z" fill="#0F0F0F"/>
<path d="M9 13.5C9.82843 13.5 10.5 12.8284 10.5 12C10.5 11.1716 9.82843 10.5 9 10.5C8.17157 10.5 7.5 11.1716 7.5 12C7.5 12.8284 8.17157 13.5 9 13.5Z" fill="#27A17A"/>
</svg>
