<svg width="32" height="32" viewBox="0 0 32 32" fill="none" xmlns="http://www.w3.org/2000/svg">
<path d="M23 3.5H7C4.5186 3.5 2.5 5.5186 2.5 8V18C2.5 20.4814 4.5186 22.5 7 22.5H15C15.2764 22.5 15.5 22.2764 15.5 22C15.5 21.7236 15.2764 21.5 15 21.5H7C5.0703 21.5 3.5 19.9297 3.5 18V8C3.5 6.0703 5.0703 4.5 7 4.5H23C24.9297 4.5 26.5 6.0703 26.5 8V16C26.5 16.2764 26.7236 16.5 27 16.5C27.2764 16.5 27.5 16.2764 27.5 16V8C27.5 5.5186 25.4814 3.5 23 3.5Z" fill="#0F0F0F"/>
<path d="M19 9.5H9C8.7236 9.5 8.5 9.7236 8.5 10C8.5 10.2764 8.7236 10.5 9 10.5H19C19.2764 10.5 19.5 10.2764 19.5 10C19.5 9.7236 19.2764 9.5 19 9.5Z" fill="#0F0F0F"/>
<path d="M8.5 14C8.5 13.7236 8.7236 13.5 9 13.5H13C13.2764 13.5 13.5 13.7236 13.5 14C13.5 14.2764 13.2764 14.5 13 14.5H9C8.7236 14.5 8.5 14.2764 8.5 14Z" fill="#0F0F0F"/>
<path d="M23.6465 18.6465C23.8418 18.4512 24.1582 18.4512 24.3535 18.6465C24.5488 18.8418 24.5488 19.1582 24.3535 19.3535L22.707 21L24.3535 22.6465C24.5488 22.8418 24.5488 23.1582 24.3535 23.3535C24.2559 23.4512 24.1279 23.5 24 23.5C23.8721 23.5 23.7441 23.4512 23.6465 23.3535L22 21.707L20.3535 23.3535C20.2559 23.4512 20.1279 23.5 20 23.5C19.8721 23.5 19.7441 23.4512 19.6465 23.3535C19.4512 23.1582 19.4512 22.8418 19.6465 22.6465L21.293 21L19.6465 19.3535C19.4512 19.1582 19.4512 18.8418 19.6465 18.6465C19.8418 18.4512 20.1582 18.4512 20.3535 18.6465L22 20.293L23.6465 18.6465Z" fill="#DB1F2E"/>
<path fill-rule="evenodd" clip-rule="evenodd" d="M25.546 13.9395L29.0606 17.4541C29.3438 17.7373 29.5 18.1143 29.5001 18.5147V23.4864C29.5001 23.8809 29.3399 24.2667 29.0616 24.545L25.545 28.0616C25.2667 28.3399 24.8809 28.5001 24.4864 28.5001H19.5137C19.1192 28.5001 18.7334 28.3399 18.4551 28.0616L14.9385 24.545C14.6602 24.2667 14.5 23.8809 14.5 23.4864V18.5137C14.5 18.1191 14.6602 17.7334 14.9385 17.4551L18.4551 13.9385C18.7334 13.6602 19.1192 13.5 19.5137 13.5H24.4854C24.8857 13.5 25.2627 13.6562 25.546 13.9395ZM28.3545 23.8379C28.4473 23.7451 28.5 23.6172 28.5 23.4863V18.5145C28.5 18.3807 28.4482 18.2557 28.3535 18.161L24.8389 14.6464C24.7442 14.5517 24.6192 14.4999 24.4854 14.4999H19.5137C19.3828 14.4999 19.2549 14.5526 19.1621 14.6454L15.6455 18.162C15.5527 18.2548 15.5 18.3827 15.5 18.5136V23.4863C15.5 23.6172 15.5527 23.7451 15.6454 23.8379L19.162 27.3545C19.2548 27.4473 19.3827 27.5 19.5136 27.5H24.4863C24.6172 27.5 24.7451 27.4473 24.8379 27.3545L28.3545 23.8379Z" fill="#DB1F2E"/>
</svg>
