<svg width="32" height="32" viewBox="0 0 32 32" fill="none" xmlns="http://www.w3.org/2000/svg">
<path d="M7.75 1.75C7.43517 1.75 7.1654 1.97515 7.10908 2.2849C6.90093 3.4297 6.75277 4.24033 6.57744 4.85094C6.40428 5.45402 6.22524 5.78208 6.00366 6.00366C5.78207 6.22524 5.45401 6.40429 4.85094 6.57744C4.24032 6.75277 3.42969 6.90093 2.2849 7.10908C1.97515 7.1654 1.75 7.43517 1.75 7.75C1.75 8.06483 1.97515 8.3346 2.2849 8.39092C3.42969 8.59907 4.24032 8.74723 4.85093 8.92256C5.45401 9.09572 5.78207 9.27476 6.00366 9.49634C6.22524 9.71793 6.40428 10.046 6.57744 10.6491C6.75277 11.2597 6.90093 12.0703 7.10908 13.2151C7.1654 13.5249 7.43517 13.75 7.75 13.75C8.06483 13.75 8.3346 13.5249 8.39092 13.2151C8.59907 12.0703 8.74723 11.2597 8.92256 10.6491C9.09572 10.046 9.27476 9.71793 9.49634 9.49634C9.71793 9.27476 10.046 9.09572 10.6491 8.92256C11.2597 8.74723 12.0703 8.59907 13.2151 8.39092C13.5249 8.3346 13.75 8.06483 13.75 7.75C13.75 7.43517 13.5249 7.1654 13.2151 7.10908C12.0703 6.90093 11.2597 6.75277 10.6491 6.57744C10.046 6.40428 9.71793 6.22524 9.49634 6.00366C9.27476 5.78207 9.09572 5.45401 8.92256 4.85093C8.74723 4.24032 8.59907 3.42969 8.39092 2.2849C8.3346 1.97515 8.06483 1.75 7.75 1.75ZM6.92491 6.92492C7.31476 6.53508 7.56094 6.05018 7.75 5.4711C7.93907 6.05018 8.18524 6.53507 8.57508 6.92492C8.96493 7.31476 9.44983 7.56094 10.0289 7.75C9.44983 7.93906 8.96493 8.18524 8.57508 8.57508C8.18524 8.96493 7.93907 9.44983 7.75 10.0289C7.56094 9.44983 7.31476 8.96493 6.92492 8.57508C6.53507 8.18524 6.05018 7.93907 5.4711 7.75C6.05018 7.56094 6.53507 7.31477 6.92491 6.92492Z" fill="url(#paint0_linear_74930_2536)"/>
<path d="M18.5 7C18.897 7 19.2372 7.28391 19.3082 7.67449C19.7219 9.95021 20.0223 11.5966 20.3805 12.8442C20.736 14.0822 21.1225 14.8269 21.6478 15.3522C22.1731 15.8775 22.9178 16.264 24.1558 16.6195C25.4034 16.9777 27.0498 17.2781 29.3255 17.6918C29.7161 17.7628 30 18.103 30 18.5C30 18.897 29.7161 19.2372 29.3255 19.3082C27.0498 19.7219 25.4034 20.0223 24.1558 20.3805C22.9178 20.736 22.1731 21.1225 21.6478 21.6478C21.1225 22.1731 20.736 22.9178 20.3805 24.1558C20.0223 25.4034 19.7219 27.0498 19.3082 29.3255C19.2372 29.7161 18.897 30 18.5 30C18.103 30 17.7628 29.7161 17.6918 29.3255C17.2781 27.0498 16.9777 25.4034 16.6195 24.1558C16.264 22.9178 15.8775 22.1731 15.3522 21.6478C14.8269 21.1225 14.0822 20.736 12.8442 20.3805C11.5966 20.0223 9.95021 19.7219 7.67449 19.3082C7.28391 19.2372 7 18.897 7 18.5C7 18.103 7.28391 17.7628 7.67449 17.6918C9.95021 17.2781 11.5966 16.9777 12.8442 16.6195C14.0822 16.2641 14.8269 15.8775 15.3522 15.3522C15.8775 14.8269 16.264 14.0822 16.6195 12.8442C16.9777 11.5966 17.2781 9.95022 17.6918 7.67449C17.7628 7.28391 18.103 7 18.5 7ZM18.5 12.1157C18.4025 12.5401 18.3031 12.9334 18.1986 13.2976C17.8096 14.6522 17.3234 15.7044 16.5139 16.5139C15.7044 17.3234 14.6522 17.8096 13.2976 18.1986C12.9334 18.3031 12.5401 18.4025 12.1157 18.5C12.5401 18.5975 12.9334 18.6969 13.2976 18.8014C14.6522 19.1904 15.7044 19.6766 16.5139 20.4861C17.3234 21.2956 17.8096 22.3478 18.1986 23.7024C18.3031 24.0666 18.4025 24.4599 18.5 24.8843C18.5975 24.4599 18.6969 24.0666 18.8014 23.7024C19.1904 22.3478 19.6766 21.2956 20.4861 20.4861C21.2956 19.6766 22.3478 19.1904 23.7024 18.8014C24.0666 18.6969 24.4599 18.5975 24.8843 18.5C24.4599 18.4025 24.0666 18.3031 23.7024 18.1986C22.3478 17.8096 21.2956 17.3234 20.4861 16.5139C19.6766 15.7044 19.1904 14.6522 18.8014 13.2976C18.6969 12.9334 18.5975 12.5401 18.5 12.1157Z" fill="url(#paint1_linear_74930_2536)"/>
<defs>
<linearGradient id="paint0_linear_74930_2536" x1="26.8051" y1="38.3088" x2="52.9237" y2="-13.3981" gradientUnits="userSpaceOnUse">
<stop stop-color="#0051AF"/>
<stop offset="0.515625" stop-color="#00BCEB"/>
<stop offset="1" stop-color="#63FFF7"/>
</linearGradient>
<linearGradient id="paint1_linear_74930_2536" x1="26.8051" y1="38.3088" x2="52.9237" y2="-13.3981" gradientUnits="userSpaceOnUse">
<stop stop-color="#0051AF"/>
<stop offset="0.515625" stop-color="#00BCEB"/>
<stop offset="1" stop-color="#63FFF7"/>
</linearGradient>
</defs>
</svg>
