<svg width="32" height="32" viewBox="0 0 32 32" fill="none" xmlns="http://www.w3.org/2000/svg">
<path d="M2.52403 28.8519C2.49491 28.9455 2.49395 29.0456 2.52128 29.1398C2.5486 29.2339 2.603 29.318 2.67771 29.3815C2.75243 29.4449 2.84415 29.485 2.94148 29.4968C3.03881 29.5086 3.13745 29.4915 3.22513 29.4476L26.2255 17.9472C26.6974 17.7113 26.5295 17 26.0019 17H6.95051C6.51274 17 6.12587 17.2847 5.99572 17.7027L2.52403 28.8519Z" fill="url(#paint0_linear_75221_3559)"/>
<path d="M5.99572 14.2973C6.12587 14.7153 6.51274 15 6.9505 15H26.0019C26.5295 15 26.6974 14.2887 26.2255 14.0528L3.22513 2.5526C3.13745 2.50875 3.03881 2.49164 2.94148 2.5034C2.84415 2.51516 2.75243 2.55527 2.67771 2.61875C2.603 2.68223 2.5486 2.76628 2.52128 2.86043C2.49395 2.95458 2.49491 3.05469 2.52403 3.1483L5.99572 14.2973Z" fill="url(#paint1_linear_75221_3559)"/>
<defs>
<linearGradient id="paint0_linear_75221_3559" x1="25.2226" y1="37.4418" x2="50.9534" y2="-10.8897" gradientUnits="userSpaceOnUse">
<stop stop-color="#0051AF"/>
<stop offset="0.515625" stop-color="#00BCEB"/>
<stop offset="1" stop-color="#63FFF7"/>
</linearGradient>
<linearGradient id="paint1_linear_75221_3559" x1="25.2226" y1="37.4418" x2="50.9534" y2="-10.8897" gradientUnits="userSpaceOnUse">
<stop stop-color="#0051AF"/>
<stop offset="0.515625" stop-color="#00BCEB"/>
<stop offset="1" stop-color="#63FFF7"/>
</linearGradient>
</defs>
</svg>
