<svg width="32" height="32" viewBox="0 0 32 32" fill="none" xmlns="http://www.w3.org/2000/svg">
<path d="M16 10C16.492 10 16.9104 10.3579 16.9873 10.8438C17.1916 12.1378 17.3704 13.0416 17.583 13.7021C17.7912 14.3491 18.0083 14.6833 18.2441 14.8994C18.4854 15.1205 18.8394 15.3046 19.4854 15.4814C20.1449 15.662 20.9904 15.8068 22.1738 16.0156L22.2617 16.0352C22.6937 16.152 23 16.5451 23 17C23 17.4549 22.6937 17.848 22.2617 17.9648L22.1738 17.9844C20.9904 18.1932 20.1449 18.338 19.4854 18.5186C18.8394 18.6954 18.4854 18.8795 18.2441 19.1006C18.0083 19.3167 17.7912 19.6509 17.583 20.2979C17.4235 20.7934 17.283 21.4256 17.1367 22.2568L16.9873 23.1562C16.9104 23.6421 16.492 24 16 24C15.508 24 15.0896 23.6421 15.0127 23.1562C14.8084 21.8622 14.6296 20.9584 14.417 20.2979C14.2088 19.6509 13.9917 19.3167 13.7559 19.1006C13.5146 18.8795 13.1606 18.6954 12.5146 18.5186C12.185 18.4283 11.8086 18.3474 11.3672 18.2627L9.82617 17.9844C9.34837 17.9 9 17.4852 9 17C9 16.5148 9.34837 16.1 9.82617 16.0156L11.3672 15.7373C11.8086 15.6526 12.185 15.5717 12.5146 15.4814C13.1606 15.3046 13.5146 15.1205 13.7559 14.8994C13.9917 14.6833 14.2088 14.3491 14.417 13.7021C14.6296 13.0416 14.8084 12.1378 15.0127 10.8438L15.0303 10.7549C15.1412 10.3148 15.5385 10 16 10ZM16 15.1318C15.7722 15.6099 15.4873 16.0247 15.1074 16.373C14.8242 16.6326 14.5106 16.8354 14.1719 17C14.5106 17.1646 14.8242 17.3674 15.1074 17.627C15.4871 17.9751 15.7723 18.3894 16 18.8672C16.2277 18.3894 16.5129 17.9751 16.8926 17.627C17.1755 17.3676 17.4887 17.1646 17.8271 17C17.4887 16.8354 17.1755 16.6324 16.8926 16.373C16.5127 16.0247 16.2278 15.6099 16 15.1318Z" fill="url(#paint0_linear_66622_107)"/>
<path d="M22 2C22.5523 2 23 2.44772 23 3V5C25.7614 5 28 7.23858 28 10V24C28 26.7614 25.7614 29 23 29H9C6.23858 29 4 26.7614 4 24V10C4 7.23858 6.23858 5 9 5V3C9 2.44772 9.44772 2 10 2C10.5523 2 11 2.44772 11 3V5H21V3C21 2.44772 21.4477 2 22 2ZM9 7C7.34315 7 6 8.34315 6 10V24C6 25.6569 7.34315 27 9 27H23C24.6569 27 26 25.6569 26 24V10C26 8.34315 24.6569 7 23 7H9Z" fill="url(#paint1_linear_66622_107)"/>
<defs>
<linearGradient id="paint0_linear_66622_107" x1="25.2857" y1="36.9412" x2="51.9303" y2="-9.94607" gradientUnits="userSpaceOnUse">
<stop stop-color="#0051AF"/>
<stop offset="0.515625" stop-color="#00BCEB"/>
<stop offset="1" stop-color="#63FFF7"/>
</linearGradient>
<linearGradient id="paint1_linear_66622_107" x1="25.2857" y1="36.9412" x2="51.9303" y2="-9.94607" gradientUnits="userSpaceOnUse">
<stop stop-color="#0051AF"/>
<stop offset="0.515625" stop-color="#00BCEB"/>
<stop offset="1" stop-color="#63FFF7"/>
</linearGradient>
</defs>
</svg>
