<svg width="32" height="32" viewBox="0 0 32 32" fill="none" xmlns="http://www.w3.org/2000/svg">
<path d="M11 28.7504C9.73949 28.7478 8.53149 28.2453 7.641 27.3532C6.75051 26.461 6.25026 25.2521 6.25 23.9916L6.251 10.9965C6.25225 10.5338 6.43652 10.0904 6.76358 9.76303C7.09063 9.4357 7.53391 9.25106 7.99662 9.24942H12.126C11.8795 8.70425 11.7509 8.11319 11.7485 7.51489C11.746 6.91659 11.8699 6.32452 12.112 5.77737C12.354 5.23022 12.7089 4.74031 13.1532 4.33967C13.5976 3.93903 14.1215 3.63667 14.6907 3.45236C15.2599 3.26805 15.8616 3.20594 16.4564 3.27008C17.0513 3.33423 17.6259 3.52318 18.1428 3.8246C18.6596 4.12602 19.107 4.53312 19.4557 5.01928C19.8045 5.50544 20.0467 6.05973 20.1665 6.6459C20.3407 7.52347 20.2384 8.43346 19.8735 9.25039H24.0005C24.4641 9.25072 24.9087 9.43497 25.2366 9.76269C25.5645 10.0904 25.7489 10.5348 25.7495 10.9984V15.5375C25.7491 15.7596 25.6901 15.9777 25.5785 16.1697C25.4669 16.3618 25.3066 16.521 25.1138 16.6313C24.9285 16.7397 24.7177 16.7966 24.503 16.7961C24.2884 16.7955 24.0778 16.7376 23.8931 16.6283C23.3188 16.3049 22.6491 16.1936 22.0011 16.314C21.3531 16.4343 20.7681 16.7785 20.3482 17.2865C19.9475 17.7882 19.735 18.4144 19.7476 19.0563C19.7602 19.6983 19.997 20.3156 20.4171 20.8012C20.8372 21.2868 21.414 21.6101 22.0474 21.715C22.6809 21.8198 23.3311 21.6997 23.8853 21.3754V21.3754C24.0729 21.2648 24.2865 21.2061 24.5042 21.2052C24.722 21.2044 24.9361 21.2614 25.1245 21.3705C25.3145 21.48 25.4724 21.6375 25.5822 21.8273C25.6921 22.017 25.7501 22.2323 25.7505 22.4516L25.7515 27.0004C25.7521 27.23 25.7073 27.4575 25.6197 27.6698C25.5321 27.882 25.4034 28.0749 25.2411 28.2373C25.0788 28.3997 24.886 28.5285 24.6738 28.6162C24.4615 28.7039 24.2341 28.7488 24.0045 28.7484H23.9976L11 28.7504ZM7.99951 10.7494C7.96675 10.7491 7.93425 10.7553 7.90393 10.7677C7.87361 10.7801 7.84606 10.7985 7.82292 10.8217C7.79977 10.8449 7.78149 10.8724 7.76913 10.9028C7.75678 10.9331 7.7506 10.9656 7.75097 10.9984L7.75 23.9916C7.74983 24.8544 8.0919 25.6821 8.70118 26.293C9.31046 26.9039 10.1372 27.2482 11 27.2504L24.0005 27.2484H24.0015C24.0343 27.2493 24.067 27.2435 24.0975 27.2314C24.128 27.2193 24.1558 27.2012 24.1792 27.1781C24.2025 27.1551 24.2209 27.1275 24.2334 27.0971C24.2458 27.0667 24.252 27.0342 24.2515 27.0013L24.2505 22.8724C23.3813 23.2667 22.4047 23.3569 21.478 23.1284C20.5514 22.8999 19.7286 22.3661 19.1424 21.6129C18.5562 20.8597 18.2406 19.9311 18.2466 18.9767C18.2525 18.0223 18.5797 17.0977 19.1753 16.3519C19.7644 15.6125 20.5831 15.0906 21.502 14.8684C22.421 14.6463 23.3877 14.7367 24.2495 15.1253V10.9984C24.2494 10.9325 24.223 10.8694 24.1764 10.8229C24.1297 10.7764 24.0664 10.7503 24.0005 10.7504H19.4595C19.239 10.7501 19.0224 10.6917 18.8316 10.5811C18.6409 10.4705 18.4825 10.3117 18.3726 10.1205C18.2631 9.93293 18.2058 9.7195 18.2065 9.50231C18.2071 9.28512 18.2658 9.07205 18.3765 8.88516C18.6202 8.46695 18.7492 7.99184 18.7504 7.50781C18.7517 7.02379 18.6252 6.548 18.3837 6.12852C18.1423 5.70903 17.7943 5.36071 17.3751 5.11873C16.9559 4.87676 16.4803 4.7497 15.9963 4.7504C15.5123 4.7511 15.037 4.87953 14.6185 5.12271C14.2 5.36589 13.8531 5.71522 13.6128 6.1354C13.3725 6.55558 13.2474 7.03173 13.2501 7.51575C13.2528 7.99976 13.3831 8.47451 13.628 8.89201C13.7376 9.07679 13.7957 9.28751 13.7964 9.50232C13.7971 9.71714 13.7403 9.92823 13.6319 10.1137C13.5219 10.3064 13.363 10.4667 13.1712 10.5783C12.9794 10.6899 12.7615 10.749 12.5396 10.7494L7.99951 10.7494Z" fill="url(#paint0_linear_74487_7)"/>
<defs>
<linearGradient id="paint0_linear_74487_7" x1="23.546" y1="36.2518" x2="50.4937" y2="-4.53943" gradientUnits="userSpaceOnUse">
<stop stop-color="#0051AF"/>
<stop offset="0.515625" stop-color="#00BCEB"/>
<stop offset="1" stop-color="#63FFF7"/>
</linearGradient>
</defs>
</svg>
