<svg width="32" height="32" viewBox="0 0 32 32" fill="none" xmlns="http://www.w3.org/2000/svg">
<path d="M8 2C7.68517 2 7.4154 2.22515 7.35908 2.5349C7.15093 3.6797 7.00277 4.49033 6.82744 5.10094C6.65428 5.70402 6.47524 6.03208 6.25366 6.25366C6.03207 6.47524 5.70401 6.65429 5.10094 6.82744C4.49032 7.00277 3.67969 7.15093 2.5349 7.35908C2.22515 7.4154 2 7.68517 2 8C2 8.31483 2.22515 8.5846 2.5349 8.64092C3.67969 8.84907 4.49032 8.99723 5.10093 9.17256C5.70401 9.34572 6.03207 9.52476 6.25366 9.74634C6.47524 9.96793 6.65428 10.296 6.82744 10.8991C7.00277 11.5097 7.15093 12.3203 7.35908 13.4651C7.4154 13.7749 7.68517 14 8 14C8.31483 14 8.5846 13.7749 8.64092 13.4651C8.84907 12.3203 8.99723 11.5097 9.17256 10.8991C9.34572 10.296 9.52476 9.96793 9.74634 9.74634C9.96793 9.52476 10.296 9.34572 10.8991 9.17256C11.5097 8.99723 12.3203 8.84907 13.4651 8.64092C13.7749 8.5846 14 8.31483 14 8C14 7.68517 13.7749 7.4154 13.4651 7.35908C12.3203 7.15093 11.5097 7.00277 10.8991 6.82744C10.296 6.65428 9.96793 6.47524 9.74634 6.25366C9.52476 6.03207 9.34572 5.70401 9.17256 5.10093C8.99723 4.49032 8.84907 3.67969 8.64092 2.5349C8.5846 2.22515 8.31483 2 8 2Z" fill="url(#paint0_linear_74930_2534)"/>
<path d="M18.5 7C18.897 7 19.2372 7.28391 19.3082 7.67449C19.7219 9.95021 20.0223 11.5966 20.3805 12.8442C20.736 14.0822 21.1225 14.8269 21.6478 15.3522C22.1731 15.8775 22.9178 16.264 24.1558 16.6195C25.4034 16.9777 27.0498 17.2781 29.3255 17.6918C29.7161 17.7628 30 18.103 30 18.5C30 18.897 29.7161 19.2372 29.3255 19.3082C27.0498 19.7219 25.4034 20.0223 24.1558 20.3805C22.9178 20.736 22.1731 21.1225 21.6478 21.6478C21.1225 22.1731 20.736 22.9178 20.3805 24.1558C20.0223 25.4034 19.7219 27.0498 19.3082 29.3255C19.2372 29.7161 18.897 30 18.5 30C18.103 30 17.7628 29.7161 17.6918 29.3255C17.2781 27.0498 16.9777 25.4034 16.6195 24.1558C16.264 22.9178 15.8775 22.1731 15.3522 21.6478C14.8269 21.1225 14.0822 20.736 12.8442 20.3805C11.5966 20.0223 9.95021 19.7219 7.67449 19.3082C7.28391 19.2372 7 18.897 7 18.5C7 18.103 7.28391 17.7628 7.67449 17.6918C9.95021 17.2781 11.5966 16.9777 12.8442 16.6195C14.0822 16.2641 14.8269 15.8775 15.3522 15.3522C15.8775 14.8269 16.264 14.0822 16.6195 12.8442C16.9777 11.5966 17.2781 9.95022 17.6918 7.67449C17.7628 7.28391 18.103 7 18.5 7Z" fill="url(#paint1_linear_74930_2534)"/>
<defs>
<linearGradient id="paint0_linear_74930_2534" x1="26.8333" y1="38.2353" x2="52.7209" y2="-13.0141" gradientUnits="userSpaceOnUse">
<stop stop-color="#0051AF"/>
<stop offset="0.515625" stop-color="#00BCEB"/>
<stop offset="1" stop-color="#63FFF7"/>
</linearGradient>
<linearGradient id="paint1_linear_74930_2534" x1="26.8333" y1="38.2353" x2="52.7209" y2="-13.0141" gradientUnits="userSpaceOnUse">
<stop stop-color="#0051AF"/>
<stop offset="0.515625" stop-color="#00BCEB"/>
<stop offset="1" stop-color="#63FFF7"/>
</linearGradient>
</defs>
</svg>
