<svg width="32" height="32" viewBox="0 0 32 32" fill="none" xmlns="http://www.w3.org/2000/svg">
<path d="M7.8501 1.84961C7.62183 1.84961 7.42622 2.01286 7.38538 2.23745C7.17103 3.41643 7.01601 4.26593 6.83138 4.90892C6.64834 5.54643 6.45111 5.92309 6.18734 6.18686C5.92357 6.45063 5.54691 6.64785 4.9094 6.8309C4.26641 7.01552 3.41691 7.17054 2.23794 7.3849C2.01335 7.42573 1.8501 7.62134 1.8501 7.84961C1.8501 8.07788 2.01335 8.27349 2.23794 8.31432C3.41691 8.52868 4.26641 8.6837 4.9094 8.86832C5.54691 9.05137 5.92357 9.24859 6.18734 9.51236C6.45111 9.77613 6.64834 10.1528 6.83138 10.7903C7.01601 11.4333 7.17103 12.2828 7.38538 13.4618C7.42622 13.6864 7.62183 13.8496 7.8501 13.8496C8.07837 13.8496 8.27398 13.6864 8.31481 13.4618C8.52917 12.2828 8.68419 11.4333 8.86881 10.7903C9.05186 10.1528 9.24908 9.77613 9.51285 9.51236C9.77662 9.24859 10.1533 9.05137 10.7908 8.86832C11.4338 8.6837 12.2833 8.52868 13.4623 8.31432C13.6868 8.27349 13.8501 8.07788 13.8501 7.84961C13.8501 7.62134 13.6868 7.42573 13.4623 7.3849C12.2833 7.17054 11.4338 7.01552 10.7908 6.83089C10.1533 6.64785 9.77662 6.45062 9.51285 6.18685C9.24908 5.92308 9.05186 5.54642 8.86881 4.90892C8.68419 4.26592 8.52917 3.41642 8.31481 2.23745C8.27398 2.01286 8.07837 1.84961 7.8501 1.84961ZM7.84824 4.75728L7.8501 4.74965L7.8522 4.75825L7.84824 4.75728ZM7.8448 4.77133L7.85008 4.77262L7.84412 4.77409L7.8448 4.77133ZM7.73936 5.16963C7.77284 5.05302 7.80528 4.93076 7.83707 4.80264L7.86162 4.79656C7.89389 4.92689 7.92682 5.05117 7.96083 5.16962C8.16313 5.87418 8.41769 6.42765 8.84487 6.85483C9.27206 7.28202 9.82553 7.53657 10.5301 7.73887C10.6627 7.77694 10.8026 7.81366 10.9501 7.84961C10.8026 7.88556 10.6627 7.92228 10.5301 7.96035C9.82553 8.16264 9.27206 8.4172 8.84487 8.84439C8.41769 9.27157 8.16313 9.82504 7.96083 10.5296C7.92276 10.6622 7.88605 10.8021 7.8501 10.9496C7.81415 10.8021 7.77743 10.6622 7.73936 10.5296C7.53706 9.82504 7.28251 9.27157 6.85532 8.84439C6.42813 8.4172 5.87466 8.16264 5.17011 7.96035C5.0535 7.92686 4.93125 7.89442 4.80313 7.86264L4.79705 7.83809C4.92738 7.80582 5.05166 7.77289 5.17011 7.73888C5.87466 7.53658 6.42813 7.28203 6.85532 6.85484C7.28251 6.42765 7.53706 5.87419 7.73936 5.16963ZM4.77181 7.84431L4.77457 7.85559L4.75014 7.84961L4.77181 7.84431Z" fill="url(#paint0_linear_74930_2538)"/>
<path d="M18.69 11.9638C18.6696 11.8753 18.5908 11.8125 18.5 11.8125C18.4092 11.8125 18.3304 11.8753 18.31 11.9638C18.2115 12.393 18.1113 12.7894 18.0061 13.1556C17.6145 14.5193 17.1319 15.5529 16.3424 16.3424C15.5529 17.1319 14.5193 17.6146 13.1556 18.0061C12.7894 18.1113 12.393 18.2115 11.9638 18.31C11.8753 18.3304 11.8125 18.4092 11.8125 18.5C11.8125 18.5908 11.8753 18.6696 11.9638 18.69C12.393 18.7885 12.7894 18.8887 13.1556 18.9939C14.5193 19.3855 15.5529 19.8681 16.3424 20.6576C17.1319 21.4471 17.6145 22.4807 18.0061 23.8444C18.1113 24.2106 18.2115 24.607 18.31 25.0362C18.3304 25.1247 18.4092 25.1875 18.5 25.1875C18.5908 25.1875 18.6696 25.1247 18.69 25.0362C18.7885 24.607 18.8887 24.2106 18.9939 23.8444C19.3855 22.4807 19.8681 21.4471 20.6576 20.6576C21.4471 19.8681 22.4807 19.3855 23.8444 18.9939C24.2106 18.8887 24.607 18.7885 25.0362 18.69C25.1247 18.6696 25.1875 18.5908 25.1875 18.5C25.1875 18.4092 25.1247 18.3304 25.0362 18.31C24.607 18.2115 24.2106 18.1113 23.8444 18.0061C22.4807 17.6145 21.4471 17.1319 20.6576 16.3424C19.8681 15.5529 19.3855 14.5193 18.9939 13.1556C18.8887 12.7894 18.7885 12.393 18.69 11.9638ZM18.5 7C18.8095 7 19.0747 7.22135 19.1301 7.52587C19.5502 9.83614 19.8574 11.5218 20.225 12.8021C20.5905 14.0749 20.9954 14.8687 21.5633 15.4367C22.1313 16.0046 22.9251 16.4095 24.1979 16.775C25.4782 17.1426 27.1639 17.4498 29.4741 17.8699C29.7786 17.9253 30 18.1905 30 18.5C30 18.8095 29.7786 19.0747 29.4741 19.1301C27.1639 19.5502 25.4782 19.8574 24.1979 20.225C22.9251 20.5905 22.1313 20.9954 21.5633 21.5633C20.9954 22.1313 20.5905 22.9251 20.225 24.1979C19.8574 25.4782 19.5502 27.1639 19.1301 29.4741C19.0747 29.7786 18.8095 30 18.5 30C18.1905 30 17.9253 29.7786 17.8699 29.4741C17.4498 27.1639 17.1426 25.4782 16.775 24.1979C16.4095 22.9251 16.0046 22.1313 15.4367 21.5633C14.8687 20.9954 14.0749 20.5905 12.8021 20.225C11.5218 19.8574 9.83614 19.5502 7.52587 19.1301C7.22135 19.0747 7 18.8095 7 18.5C7 18.1905 7.22135 17.9253 7.52587 17.8699C9.83614 17.4498 11.5218 17.1426 12.8021 16.775C14.0749 16.4095 14.8687 16.0046 15.4367 15.4367C16.0046 14.8687 16.4095 14.0749 16.775 12.8021C17.1426 11.5218 17.4498 9.83615 17.8699 7.52587C17.9253 7.22135 18.1905 7 18.5 7Z" fill="url(#paint1_linear_74930_2538)"/>
<defs>
<linearGradient id="paint0_linear_74930_2538" x1="26.8164" y1="38.2795" x2="52.8432" y2="-13.2448" gradientUnits="userSpaceOnUse">
<stop stop-color="#0051AF"/>
<stop offset="0.515625" stop-color="#00BCEB"/>
<stop offset="1" stop-color="#63FFF7"/>
</linearGradient>
<linearGradient id="paint1_linear_74930_2538" x1="26.8164" y1="38.2795" x2="52.8432" y2="-13.2448" gradientUnits="userSpaceOnUse">
<stop stop-color="#0051AF"/>
<stop offset="0.515625" stop-color="#00BCEB"/>
<stop offset="1" stop-color="#63FFF7"/>
</linearGradient>
</defs>
</svg>
