<svg width="32" height="32" viewBox="0 0 32 32" fill="none" xmlns="http://www.w3.org/2000/svg">
<path d="M21.1001 16.5082C21.3281 16.5548 21.4995 16.7568 21.4995 16.9985C21.4994 18.5037 20.7801 19.6456 19.727 20.395C18.6883 21.1338 17.3306 21.4917 16.0005 21.4955C14.6705 21.4992 13.3128 21.1494 12.2729 20.4116C11.2178 19.6628 10.4996 18.5165 10.4995 16.9985L10.5093 16.8979C10.5558 16.6701 10.758 16.4987 10.9995 16.4985H20.9995L21.1001 16.5082ZM11.5356 17.4985C11.6664 18.4083 12.1542 19.1015 12.8511 19.5961C13.6859 20.1885 14.8289 20.4989 15.9985 20.4955C17.1677 20.4921 18.3109 20.1751 19.147 19.5805C19.8441 19.0845 20.3305 18.3948 20.4624 17.4985H11.5356Z" fill="url(#paint0_linear_69600_2535)"/>
<path d="M9.42919 1.77289C9.66674 1.70937 9.91517 1.82849 10.0151 2.05316C10.6808 3.55024 11.2084 4.63123 11.7134 5.41351C12.2141 6.18931 12.6715 6.6366 13.1821 6.90277C13.6964 7.17059 14.3219 7.28459 15.2134 7.28949C16.1118 7.29435 17.2233 7.19003 18.7007 7.06098L18.7895 7.06195C18.9949 7.08067 19.1721 7.22497 19.227 7.43012C19.2817 7.63496 19.2008 7.84837 19.0327 7.96723L18.9556 8.01215C17.6114 8.63918 16.5964 9.10556 15.8208 9.55902C15.0514 10.0089 14.5667 10.4197 14.2554 10.9086C13.9463 11.3944 13.7748 12.0109 13.729 12.933C13.7201 13.1118 13.7178 13.3006 13.7183 13.5004H15.9858L22.5102 6.97601C23.096 6.39036 24.0456 6.39038 24.6313 6.97601L27.4595 9.80414L27.563 9.9184C28.0432 10.5075 28.0085 11.3761 27.4595 11.9252L25.7642 13.6196C26.771 13.9425 27.4995 14.8863 27.4995 16.0004V24.0004C27.4993 26.4855 25.4846 28.5004 22.9995 28.5004H8.99951C6.51458 28.5002 4.49974 26.4854 4.49951 24.0004V16.0004C4.49951 14.6199 5.619 13.5007 6.99951 13.5004H11.227C10.7484 12.7782 10.3081 12.3541 9.81689 12.0981C9.30269 11.8303 8.67801 11.7163 7.78661 11.7114C7.33737 11.7089 6.83404 11.7333 6.25927 11.7748L4.29833 11.9399C4.05702 11.9606 3.8348 11.8047 3.77197 11.5707C3.70944 11.3368 3.82421 11.0915 4.04345 10.9887L5.82372 10.1508C6.34218 9.89941 6.7904 9.66854 7.17822 9.44183C7.94763 8.99196 8.43219 8.58108 8.74365 8.09223C9.05284 7.60641 9.22519 6.99006 9.27099 6.06781C9.31712 5.13786 9.23306 3.93743 9.06103 2.30805L9.06005 2.2182C9.0759 2.01018 9.22157 1.82876 9.42919 1.77289ZM6.99951 14.5004C6.17129 14.5007 5.49951 15.1722 5.49951 16.0004V24.0004C5.49974 25.9331 7.06686 27.5002 8.99951 27.5004H22.9995C24.9324 27.5004 26.4993 25.9332 26.4995 24.0004V16.0004C26.4995 15.172 25.8279 14.5004 24.9995 14.5004H6.99951ZM10.27 4.91351C10.286 5.35112 10.2882 5.75116 10.27 6.11762C10.2193 7.13924 10.023 7.94624 9.5874 8.63031C9.15371 9.31105 8.51482 9.81979 7.6831 10.3061C7.4395 10.4485 7.17315 10.5901 6.8872 10.7368C7.20831 10.7207 7.51019 10.7098 7.79247 10.7114C8.75593 10.7167 9.56284 10.8376 10.2788 11.2104C10.9981 11.5851 11.5707 12.1858 12.1255 13.0454C12.218 13.1887 12.3109 13.3402 12.4038 13.5004H12.7183C12.7176 13.2847 12.7203 13.0792 12.73 12.8832C12.7807 11.862 12.9765 11.0554 13.4116 10.3715C13.8452 9.69063 14.4842 9.18209 15.3159 8.69574C15.5593 8.55345 15.8252 8.41156 16.1108 8.26508C15.7901 8.28105 15.4885 8.29103 15.2065 8.28949C14.2432 8.28413 13.4361 8.1633 12.7202 7.79047C12.0011 7.41578 11.4283 6.81488 10.8735 5.95551C10.6745 5.64717 10.475 5.30061 10.27 4.91351ZM23.9243 7.68305C23.7291 7.48793 23.4125 7.48791 23.2173 7.68305L17.3999 13.5004H24.4702L26.7524 11.2182C26.9233 11.0473 26.9452 10.7834 26.8169 10.5893L26.7524 10.5112L23.9243 7.68305Z" fill="url(#paint1_linear_69600_2535)"/>
<defs>
<linearGradient id="paint0_linear_69600_2535" x1="25.1684" y1="36.3665" x2="51.3502" y2="-10.4255" gradientUnits="userSpaceOnUse">
<stop stop-color="#0051AF"/>
<stop offset="0.515625" stop-color="#00BCEB"/>
<stop offset="1" stop-color="#63FFF7"/>
</linearGradient>
<linearGradient id="paint1_linear_69600_2535" x1="25.1684" y1="36.3665" x2="51.3502" y2="-10.4255" gradientUnits="userSpaceOnUse">
<stop stop-color="#0051AF"/>
<stop offset="0.515625" stop-color="#00BCEB"/>
<stop offset="1" stop-color="#63FFF7"/>
</linearGradient>
</defs>
</svg>
