<svg width="32" height="32" viewBox="0 0 32 32" fill="none" xmlns="http://www.w3.org/2000/svg">
<path d="M13 2.25C14.3366 2.25 15.6176 2.49458 16.7998 2.94141L17.2998 3.14453L17.3691 3.17871C17.7004 3.36531 17.843 3.77695 17.6875 4.13281C17.5319 4.48844 17.1333 4.66303 16.7715 4.54688L16.7002 4.51953L16.2695 4.34473C15.2538 3.96081 14.1523 3.75 13 3.75C7.89137 3.75 3.75 7.89137 3.75 13C3.75 18.1086 7.89137 22.25 13 22.25C16.7917 22.25 20.0523 19.9684 21.4805 16.7002C21.6462 16.3208 22.0883 16.147 22.4678 16.3125C22.8472 16.4783 23.0209 16.9204 22.8555 17.2998C22.4154 18.3071 21.8233 19.2324 21.1113 20.0508L29.5303 28.4697L29.582 28.5264C29.8223 28.8209 29.8049 29.2557 29.5303 29.5303C29.2557 29.8049 28.8209 29.8223 28.5264 29.582L28.4697 29.5303L20.0508 21.1113C18.1634 22.7534 15.6989 23.75 13 23.75C7.06294 23.75 2.25 18.9371 2.25 13C2.25 7.06294 7.06294 2.25 13 2.25Z" fill="url(#paint0_linear_69616_2805)"/>
<path d="M24 1.25C24.369 1.25 24.6836 1.51835 24.7412 1.88281C24.9456 3.17699 25.1257 4.09754 25.3447 4.77832C25.5606 5.44894 25.7961 5.8281 26.0752 6.08398C26.3584 6.34347 26.7565 6.541 27.4199 6.72266C28.0934 6.90705 28.9529 7.05402 30.1299 7.26172C30.4883 7.32496 30.75 7.63607 30.75 8C30.75 8.36393 30.4883 8.67504 30.1299 8.73828C28.9529 8.94598 28.0934 9.09295 27.4199 9.27734C26.7565 9.459 26.3584 9.65653 26.0752 9.91602C25.7961 10.1719 25.5606 10.5511 25.3447 11.2217C25.1805 11.7322 25.0378 12.3773 24.8906 13.2139L24.7412 14.1172C24.6836 14.4817 24.369 14.75 24 14.75C23.6771 14.75 23.3958 14.5446 23.292 14.249L23.2588 14.1172C23.0544 12.823 22.8743 11.9025 22.6553 11.2217C22.4394 10.5511 22.2039 10.1719 21.9248 9.91602C21.6416 9.65653 21.2435 9.459 20.5801 9.27734C19.9066 9.09295 19.0471 8.94598 17.8701 8.73828C17.5117 8.67504 17.25 8.36393 17.25 8C17.25 7.63607 17.5117 7.32496 17.8701 7.26172C19.0471 7.05402 19.9066 6.90705 20.5801 6.72266C21.2435 6.541 21.6416 6.34347 21.9248 6.08398C22.2039 5.8281 22.4394 5.44894 22.6553 4.77832C22.8743 4.09754 23.0544 3.17699 23.2588 1.88281L23.292 1.75098C23.3958 1.4554 23.6771 1.25 24 1.25ZM24 5.48047C23.749 6.17976 23.4227 6.74555 22.9385 7.18945C22.5345 7.55969 22.0595 7.8092 21.5205 8C22.0595 8.1908 22.5345 8.44031 22.9385 8.81055C23.4225 9.25427 23.749 9.81966 24 10.5186C24.251 9.81966 24.5775 9.25427 25.0615 8.81055C25.4655 8.44031 25.9405 8.1908 26.4795 8C25.9405 7.8092 25.4655 7.55969 25.0615 7.18945C24.5773 6.74555 24.251 6.17976 24 5.48047Z" fill="url(#paint1_linear_69616_2805)"/>
<defs>
<linearGradient id="paint0_linear_69616_2805" x1="27.5268" y1="38.1325" x2="53.8768" y2="-14.0322" gradientUnits="userSpaceOnUse">
<stop stop-color="#0051AF"/>
<stop offset="0.515625" stop-color="#00BCEB"/>
<stop offset="1" stop-color="#63FFF7"/>
</linearGradient>
<linearGradient id="paint1_linear_69616_2805" x1="27.5268" y1="38.1325" x2="53.8768" y2="-14.0322" gradientUnits="userSpaceOnUse">
<stop stop-color="#0051AF"/>
<stop offset="0.515625" stop-color="#00BCEB"/>
<stop offset="1" stop-color="#63FFF7"/>
</linearGradient>
</defs>
</svg>
