<svg width="32" height="32" viewBox="0 0 32 32" fill="none" xmlns="http://www.w3.org/2000/svg">
<path d="M16 10.5C15.7848 10.5 15.5975 10.637 15.5283 10.834L15.5059 10.9219C15.3014 12.2166 15.1192 13.1544 14.8936 13.8555C14.6701 14.5497 14.4162 14.972 14.0938 15.2676C13.7686 15.5657 13.3276 15.7774 12.6465 15.9639C12.3026 16.058 11.9119 16.1419 11.4609 16.2285L9.91309 16.5078C9.67419 16.55 9.5 16.7574 9.5 17C9.5 17.2426 9.67419 17.45 9.91309 17.4922L11.4609 17.7715C11.9119 17.8581 12.3026 17.942 12.6465 18.0361C13.3276 18.2226 13.7686 18.4343 14.0938 18.7324C14.4162 19.028 14.6701 19.4503 14.8936 20.1445C15.1192 20.8456 15.3014 21.7834 15.5059 23.0781L15.5283 23.166C15.5975 23.363 15.7848 23.5 16 23.5C16.246 23.5 16.4557 23.3211 16.4941 23.0781L16.6445 22.1719C16.7927 21.3292 16.9372 20.6703 17.1064 20.1445C17.3299 19.4503 17.5838 19.028 17.9062 18.7324C18.2314 18.4343 18.6724 18.2226 19.3535 18.0361C20.0412 17.8478 20.9157 17.6989 22.0869 17.4922L22.1729 17.4688C22.3664 17.3975 22.5 17.2124 22.5 17C22.5 16.7876 22.3664 16.6025 22.1729 16.5312L22.0869 16.5078C20.9157 16.3011 20.0412 16.1522 19.3535 15.9639C18.6724 15.7774 18.2314 15.5657 17.9062 15.2676C17.5838 14.972 17.3299 14.5497 17.1064 13.8555C16.9372 13.3297 16.7927 12.6708 16.6445 11.8281L16.4941 10.9219C16.4557 10.6789 16.246 10.5 16 10.5ZM16 13.6221C16.0496 13.8128 16.0999 13.993 16.1543 14.1621C16.4081 14.9507 16.7348 15.5505 17.2305 16.0049C17.7234 16.4568 18.3392 16.7232 19.0898 16.9287C19.1833 16.9543 19.2805 16.9757 19.3799 17C19.2805 17.0243 19.1833 17.0457 19.0898 17.0713C18.3392 17.2768 17.7234 17.5432 17.2305 17.9951C16.7348 18.4495 16.4081 19.0493 16.1543 19.8379C16.1 20.0067 16.0495 20.1866 16 20.377C15.9505 20.1866 15.9 20.0067 15.8457 19.8379C15.5919 19.0493 15.2652 18.4495 14.7695 17.9951C14.2766 17.5432 13.6608 17.2768 12.9102 17.0713C12.8165 17.0456 12.7189 17.0244 12.6191 17C12.7189 16.9756 12.8165 16.9544 12.9102 16.9287C13.6608 16.7232 14.2766 16.4568 14.7695 16.0049C15.2652 15.5505 15.5919 14.9507 15.8457 14.1621C15.9001 13.993 15.9504 13.8128 16 13.6221Z" fill="url(#paint0_linear_66622_109)"/>
<path d="M22 2.5C21.8675 2.5 21.7402 2.55287 21.6465 2.64648C21.5527 2.74025 21.5 2.86837 21.5 3.00098V5.49902H10.5V3.00098C10.5 2.86837 10.4473 2.74025 10.3535 2.64648C10.2598 2.55287 10.1325 2.5 10 2.5C9.86751 2.5 9.74023 2.55287 9.64648 2.64648C9.55272 2.74025 9.5 2.86837 9.5 3.00098V5.49902H9C7.80693 5.50033 6.66297 5.9757 5.81934 6.81934C4.97597 7.66283 4.50143 8.80624 4.5 9.99902V23.999C4.5013 25.192 4.97585 26.3361 5.81934 27.1797C6.66297 28.0233 7.80693 28.4977 9 28.499H23C24.1931 28.4977 25.337 28.0233 26.1807 27.1797C27.0242 26.3361 27.4987 25.192 27.5 23.999V9.99902C27.4986 8.80624 27.024 7.66283 26.1807 6.81934C25.337 5.9757 24.1931 5.50033 23 5.49902H22.5V3.00098C22.5 2.86837 22.4473 2.74025 22.3535 2.64648C22.2598 2.55287 22.1325 2.5 22 2.5ZM9 6.49902H23C23.9278 6.50015 24.8175 6.8694 25.4736 7.52539C26.1297 8.18141 26.4988 9.07128 26.5 9.99902V23.999C26.4989 24.9268 26.1296 25.8165 25.4736 26.4727C24.8175 27.1288 23.9279 27.4979 23 27.499H9C8.07209 27.4979 7.1825 27.1288 6.52637 26.4727C5.87038 25.8165 5.50112 24.9268 5.5 23.999V9.99902C5.50125 9.07128 5.87034 8.18141 6.52637 7.52539C7.18248 6.8694 8.0722 6.50015 9 6.49902Z" fill="url(#paint1_linear_66622_109)"/>
<defs>
<linearGradient id="paint0_linear_66622_109" x1="24.8988" y1="36.1458" x2="50.6182" y2="-8.89754" gradientUnits="userSpaceOnUse">
<stop stop-color="#0051AF"/>
<stop offset="0.515625" stop-color="#00BCEB"/>
<stop offset="1" stop-color="#63FFF7"/>
</linearGradient>
<linearGradient id="paint1_linear_66622_109" x1="24.8988" y1="36.1458" x2="50.6182" y2="-8.89754" gradientUnits="userSpaceOnUse">
<stop stop-color="#0051AF"/>
<stop offset="0.515625" stop-color="#00BCEB"/>
<stop offset="1" stop-color="#63FFF7"/>
</linearGradient>
</defs>
</svg>
