<svg width="32" height="32" viewBox="0 0 32 32" fill="none" xmlns="http://www.w3.org/2000/svg">
<path fill-rule="evenodd" clip-rule="evenodd" d="M25.706 7.77886C25.4798 7.71421 25.2362 7.75952 25.0484 7.90124C24.8605 8.04296 24.75 8.26466 24.75 8.5V13.7609C24.2449 13.4375 23.6443 13.25 23 13.25C21.2051 13.25 19.75 14.7051 19.75 16.5C19.75 18.2949 21.2051 19.75 23 19.75C24.7949 19.75 26.25 18.2949 26.25 16.5V9.4943L28.794 10.2211C29.1922 10.3349 29.6073 10.1043 29.7211 9.70604C29.8349 9.30777 29.6043 8.89265 29.206 8.77886L25.706 7.77886ZM24.75 16.5C24.75 15.5335 23.9665 14.75 23 14.75C22.0335 14.75 21.25 15.5335 21.25 16.5C21.25 17.4665 22.0335 18.25 23 18.25C23.9665 18.25 24.75 17.4665 24.75 16.5Z" fill="#0F0F0F"/>
<path d="M19.0024 28.2503H17.023C15.741 28.2806 14.4944 27.8282 13.5303 26.9827C12.5662 26.1372 11.9549 24.9603 11.8176 23.6854C13.1856 23.4882 14.4369 22.8053 15.3427 21.7614C16.2485 20.7175 16.7482 19.3824 16.7505 18.0003V8.00031C16.7505 6.47531 16.1447 5.01278 15.0664 3.93444C13.988 2.85611 12.5255 2.25031 11.0005 2.25031C9.4755 2.25031 8.01296 2.85611 6.93463 3.93444C5.85629 5.01278 5.25049 6.47531 5.25049 8.00031V18.0003C5.25261 19.4006 5.76527 20.7522 6.69241 21.8016C7.61955 22.8511 8.89754 23.5265 10.2869 23.7012C10.3704 24.5833 10.6288 25.44 11.0471 26.221C11.4654 27.0021 12.0352 27.692 12.7232 28.2503H3.00244C2.80353 28.2503 2.61276 28.3293 2.47211 28.47C2.33146 28.6106 2.25244 28.8014 2.25244 29.0003C2.25244 29.1992 2.33146 29.39 2.47211 29.5306C2.61276 29.6713 2.80353 29.7503 3.00244 29.7503H19.0024C19.2014 29.7503 19.3921 29.6713 19.5328 29.5306C19.6734 29.39 19.7524 29.1992 19.7524 29.0003C19.7524 28.8014 19.6734 28.6106 19.5328 28.47C19.3921 28.3293 19.2014 28.2503 19.0024 28.2503ZM6.75049 14.9883V12.7503H15.2505V14.9883H6.75049ZM11.0005 3.7503C12.1273 3.75148 13.2076 4.19962 14.0044 4.9964C14.8012 5.79317 15.2493 6.8735 15.2505 8.00031V11.2503H6.75049V8.00031C6.75167 6.8735 7.19981 5.79317 7.99659 4.9964C8.79336 4.19962 9.87368 3.75148 11.0005 3.7503Z" fill="#0F0F0F"/>
<path d="M15.25 11.25H6.75V12.75H15.25V11.25Z" fill="#27A17A"/>
<path d="M15.25 15H6.75V18C6.75 20.2091 8.54086 22 10.75 22H11.25C13.4591 22 15.25 20.2091 15.25 18V15Z" fill="#27A17A"/>
</svg>
