<svg width="32" height="32" viewBox="0 0 32 32" fill="none" xmlns="http://www.w3.org/2000/svg">
<path d="M17.4694 23.53C17.6101 23.6702 17.8007 23.7488 17.9993 23.7486C18.198 23.7484 18.3884 23.6694 18.5289 23.529C18.6693 23.3885 18.7483 23.1981 18.7485 22.9994C18.7487 22.8008 18.6701 22.6102 18.5299 22.4695L16.2748 20.2144C16.5831 19.5165 16.7447 18.7627 16.7496 17.9997V7.99973C16.7496 6.47473 16.1438 5.0122 15.0655 3.93386C13.9872 2.85553 12.5246 2.24973 10.9996 2.24973C9.47464 2.24973 8.0121 2.85553 6.93377 3.93386C5.85543 5.0122 5.24963 6.47473 5.24963 7.99973V9.18918L3.52991 7.46946C3.38918 7.32927 3.19858 7.25065 2.99995 7.25084C2.80131 7.25104 2.61086 7.33003 2.47041 7.47049C2.32995 7.61094 2.25095 7.80139 2.25076 8.00003C2.25056 8.19866 2.32918 8.38926 2.46936 8.52999L17.4694 23.53ZM6.74963 7.99973C6.74963 6.87256 7.1974 5.79155 7.99443 4.99452C8.79146 4.19749 9.87246 3.74973 10.9996 3.74973C12.1268 3.74973 13.2078 4.19749 14.0048 4.99452C14.8019 5.79155 15.2496 6.87256 15.2496 7.99973V17.9997C15.2456 18.3521 15.1962 18.7024 15.1026 19.0421L6.74963 10.6891V7.99973Z" fill="#F55868"/>
<path d="M18.9996 28.2497H17.0211C15.7391 28.2801 14.4925 27.8277 13.5282 26.9823C12.5639 26.1369 11.9525 24.9601 11.8149 23.6851C12.754 23.5459 13.6436 23.175 14.4034 22.6059L13.3394 21.5419C12.6997 21.9665 11.9567 22.2095 11.1896 22.2451C10.4226 22.2807 9.66028 22.1075 8.98394 21.7439C8.3076 21.3804 7.74258 20.8401 7.3491 20.1808C6.95563 19.5214 6.74844 18.7676 6.74963 17.9997V14.9525L5.24963 13.4526V17.9997C5.25177 19.3997 5.76419 20.7509 6.69094 21.8003C7.61768 22.8496 8.89518 23.5252 10.2842 23.7003C10.3676 24.5826 10.6261 25.4393 11.0445 26.2204C11.4629 27.0016 12.0329 27.6915 12.721 28.2497H2.99963C2.80072 28.2497 2.60996 28.3287 2.4693 28.4694C2.32865 28.61 2.24963 28.8008 2.24963 28.9997C2.24963 29.1986 2.32865 29.3894 2.4693 29.5301C2.60996 29.6707 2.80072 29.7497 2.99963 29.7497H18.9996C19.1985 29.7497 19.3893 29.6707 19.53 29.5301C19.6706 29.3894 19.7496 29.1986 19.7496 28.9997C19.7496 28.8008 19.6706 28.61 19.53 28.4694C19.3893 28.3287 19.1985 28.2497 18.9996 28.2497Z" fill="#F55868"/>
<path d="M27.9995 11.2497H27.7495V9.99973C27.7495 9.27038 27.4598 8.57091 26.9441 8.05518C26.4283 7.53946 25.7289 7.24973 24.9995 7.24973C24.2702 7.24973 23.5707 7.53946 23.055 8.05518C22.5392 8.57091 22.2495 9.27038 22.2495 9.99973V11.2497H21.9995C21.5356 11.2503 21.0908 11.4348 20.7627 11.7629C20.4346 12.091 20.2501 12.5358 20.2495 12.9997V16.9997C20.2501 17.4637 20.4346 17.9085 20.7627 18.2365C21.0908 18.5646 21.5356 18.7492 21.9995 18.7497H27.9995C28.4635 18.7492 28.9083 18.5646 29.2363 18.2365C29.5644 17.9085 29.749 17.4637 29.7495 16.9997V12.9997C29.749 12.5358 29.5644 12.091 29.2363 11.7629C28.9083 11.4348 28.4635 11.2503 27.9995 11.2497ZM23.7495 9.99973C23.7495 9.6682 23.8812 9.35026 24.1156 9.11584C24.35 8.88142 24.668 8.74973 24.9995 8.74973C25.331 8.74973 25.649 8.88142 25.8834 9.11584C26.1178 9.35026 26.2495 9.6682 26.2495 9.99973V11.2497H23.7495V9.99973ZM28.2495 16.9997C28.2494 17.066 28.223 17.1295 28.1761 17.1764C28.1293 17.2232 28.0658 17.2496 27.9995 17.2497H21.9995C21.9332 17.2496 21.8697 17.2232 21.8229 17.1764C21.776 17.1295 21.7496 17.066 21.7495 16.9997V12.9997C21.7496 12.9335 21.776 12.8699 21.8229 12.8231C21.8697 12.7762 21.9332 12.7499 21.9995 12.7497H27.9995C28.0658 12.7499 28.1293 12.7762 28.1761 12.8231C28.223 12.8699 28.2494 12.9335 28.2495 12.9997V16.9997Z" fill="white" fill-opacity="0.95"/>
</svg>
