<svg width="32" height="32" viewBox="0 0 32 32" fill="none" xmlns="http://www.w3.org/2000/svg">
<path d="M21.077 16.2518C21.4549 16.2904 21.7497 16.6098 21.7498 16.9979C21.7498 18.5937 20.9831 19.8079 19.8719 20.5985C18.7825 21.3735 17.3722 21.741 16.0018 21.7449C14.6316 21.7488 13.22 21.3893 12.1287 20.6151C11.0146 19.8244 10.2498 18.6055 10.2498 16.9979L10.2537 16.9207C10.2924 16.5429 10.6118 16.248 10.9998 16.2479H20.9998L21.077 16.2518ZM11.8377 17.7479C12.01 18.4452 12.4255 18.9875 12.9959 19.3924C13.7795 19.9484 14.8683 20.2482 15.9979 20.2449C17.1273 20.2416 18.2172 19.9347 19.0028 19.3758C19.5726 18.9702 19.9857 18.4326 20.159 17.7479H11.8377Z" fill="url(#paint0_linear_69600_2537)"/>
<path d="M9.36506 1.53107C9.72142 1.4357 10.095 1.61393 10.2449 1.95099C10.9105 3.44774 11.4302 4.5137 11.9237 5.27814C12.411 6.03317 12.84 6.4415 13.2987 6.68048C13.7624 6.922 14.3412 7.03407 15.2147 7.03888C16.0984 7.04367 17.1951 6.9419 18.6785 6.81232C19.0411 6.78068 19.3744 7.01354 19.4686 7.36505C19.551 7.67268 19.4302 7.99335 19.1776 8.17169L19.0613 8.2381C17.7115 8.86779 16.7101 9.32811 15.9471 9.77423C15.1931 10.2151 14.7485 10.6017 14.4676 11.0428C14.1898 11.4791 14.0229 12.0474 13.9783 12.9451C13.9735 13.0434 13.9733 13.1449 13.9715 13.2498H15.8826L22.3338 6.79865C23.0171 6.11552 24.125 6.1156 24.8084 6.79865L27.6365 9.62677C28.3199 10.3101 28.3198 11.4179 27.6365 12.1014L26.2059 13.5311C27.1195 13.9781 27.7498 14.9142 27.7498 15.9998V23.9998C27.7498 26.6232 25.6232 28.7498 22.9998 28.7498H8.99982C6.37656 28.7497 4.24982 26.6231 4.24982 23.9998V15.9998C4.24992 14.4812 5.48119 13.2499 6.99982 13.2498H10.744C10.3873 12.7868 10.0539 12.5025 9.70197 12.3192C9.23821 12.0776 8.65938 11.9665 7.78596 11.9617C7.344 11.9593 6.84822 11.983 6.27814 12.0242L4.32111 12.1883C3.95872 12.2198 3.62531 11.9869 3.53107 11.6356C3.43688 11.284 3.60947 10.9154 3.93928 10.7615C5.28898 10.1319 6.28956 9.67147 7.05256 9.2254C7.80651 8.78456 8.25215 8.39883 8.53303 7.95783C8.81077 7.52151 8.97771 6.9531 9.02228 6.05548C9.06737 5.14675 8.98432 3.9638 8.81232 2.33478L8.81037 2.19806C8.8342 1.88581 9.05325 1.61462 9.36506 1.53107ZM6.99982 14.7498C6.30962 14.7499 5.74992 15.3096 5.74982 15.9998V23.9998C5.74982 25.7947 7.20499 27.2497 8.99982 27.2498H22.9998C24.7947 27.2498 26.2498 25.7947 26.2498 23.9998V15.9998C26.2497 15.3095 25.6901 14.7498 24.9998 14.7498H6.99982ZM23.7479 7.85919C23.6503 7.76193 23.4919 7.76186 23.3944 7.85919L18.0037 13.2498H24.367L26.576 11.0408C26.6734 10.9432 26.6736 10.7849 26.576 10.6873L23.7479 7.85919ZM10.5203 6.12872C10.4684 7.17552 10.2659 8.03066 9.79865 8.76447C9.35188 9.46592 8.70719 9.98397 7.90412 10.4637C8.83945 10.4776 9.65672 10.604 10.3944 10.9881C11.1658 11.3899 11.7684 12.0286 12.3367 12.909C12.3825 12.9798 12.4267 13.0541 12.4725 13.1287C12.4748 13.0412 12.4761 12.9551 12.4803 12.8709C12.5322 11.8242 12.7347 10.9699 13.202 10.2361C13.6485 9.53495 14.292 9.01648 15.0946 8.53693C14.1597 8.52291 13.3426 8.39553 12.6053 8.01154C11.834 7.6097 11.2321 6.97094 10.6639 6.09064C10.618 6.01951 10.5731 5.94494 10.5272 5.86994C10.5249 5.95772 10.5245 6.04429 10.5203 6.12872Z" fill="url(#paint1_linear_69600_2537)"/>
<defs>
<linearGradient id="paint0_linear_69600_2537" x1="25.3619" y1="36.7629" x2="52.0056" y2="-10.9482" gradientUnits="userSpaceOnUse">
<stop stop-color="#0051AF"/>
<stop offset="0.515625" stop-color="#00BCEB"/>
<stop offset="1" stop-color="#63FFF7"/>
</linearGradient>
<linearGradient id="paint1_linear_69600_2537" x1="25.3619" y1="36.7629" x2="52.0056" y2="-10.9482" gradientUnits="userSpaceOnUse">
<stop stop-color="#0051AF"/>
<stop offset="0.515625" stop-color="#00BCEB"/>
<stop offset="1" stop-color="#63FFF7"/>
</linearGradient>
</defs>
</svg>
