<svg width="120" height="120" viewBox="0 0 120 120" fill="none" xmlns="http://www.w3.org/2000/svg">
<path d="M96.1085 33.2527V32.2527C96.1085 27.8527 92.5085 24.2527 88.1085 24.2527H20.1085C15.7085 24.2527 12.1085 27.8527 12.1085 32.2527V80.2527C12.1085 84.6527 15.7085 88.2527 20.1085 88.2527H81.1085M108.108 64.2527V44.2527C108.108 42.0527 106.308 40.2527 104.108 40.2527H76.1085C73.9085 40.2527 72.1085 42.0527 72.1085 44.2527V64.2527C72.1085 66.4527 73.9085 68.2527 76.1085 68.2527H84.1085M90.1085 61.2527V48.2527M83.1085 53.2527L90.1085 47.2527L97.1085 53.2527M88.1085 100.253V77.2527C88.1085 71.7527 92.6085 67.2527 98.1085 67.2527C103.608 67.2527 108.108 71.7527 108.108 77.2527V84.2527C108.108 89.2527 105.108 96.2527 97.1085 96.2527C94.9085 96.2527 93.1085 94.9527 93.1085 93.2527C93.1085 91.5527 94.9085 90.2527 97.1085 90.2527C104.108 90.2527 108.108 96.2527 108.108 100.253M103.108 81.2527V77.2527C103.108 74.4527 100.908 72.2527 98.1085 72.2527C95.3085 72.2527 93.1085 74.4527 93.1085 77.2527V81.2527C93.1085 82.3527 94.0085 83.2527 95.1085 83.2527H101.108C102.308 83.2527 103.108 82.4527 103.108 81.2527Z" stroke="white" stroke-width="2.5" stroke-miterlimit="10" stroke-linecap="round" stroke-linejoin="round"/>
</svg>
