<svg width="32" height="32" viewBox="0 0 32 32" fill="none" xmlns="http://www.w3.org/2000/svg">
<path d="M25.5837 10.1767C25.2956 9.92223 24.9564 9.73216 24.589 9.61916C24.2215 9.50617 23.8342 9.47285 23.4529 9.52143L19.2559 10.0889C19.8639 9.45149 20.2715 8.64966 20.4282 7.7828C20.5848 6.91593 20.4836 6.02216 20.137 5.21229C19.7905 4.40242 19.2139 3.71206 18.4787 3.22682C17.7435 2.74158 16.882 2.48278 16.0011 2.48253C15.1202 2.48227 14.2586 2.74057 13.5231 3.22538C12.7876 3.7102 12.2106 4.40022 11.8636 5.20989C11.5166 6.01956 11.4148 6.91327 11.571 7.78023C11.7271 8.64718 12.1343 9.44924 12.7419 10.087L8.54759 9.5224C7.84163 9.43396 7.12921 9.62662 6.56405 10.0588C5.99889 10.491 5.62631 11.1281 5.52671 11.8326C5.42712 12.537 5.60849 13.2524 6.03169 13.8243C6.4549 14.3963 7.08599 14.7789 7.7888 14.8896L12.3249 15.4238L8.71263 25.9423C8.54131 26.323 8.46851 26.7407 8.50093 27.157C8.53336 27.5732 8.66997 27.9746 8.89818 28.3242C9.13072 28.686 9.45054 28.9835 9.82819 29.1893C10.2059 29.3951 10.6292 29.5026 11.0593 29.5019C11.5358 29.5184 12.0061 29.3893 12.4073 29.1318C12.8086 28.8742 13.1219 28.5006 13.3054 28.0605L15.9995 21.0883L18.696 28.0771C18.8791 28.5148 19.1919 28.886 19.5922 29.1407C19.9925 29.3954 20.4612 29.5214 20.9353 29.5019C21.3661 29.5017 21.79 29.3931 22.1678 29.1861C22.5456 28.9791 22.8653 28.6803 23.0974 28.3173C23.3222 27.976 23.4583 27.5839 23.4933 27.1767C23.5282 26.7695 23.461 26.36 23.2976 25.9853L19.6736 15.4238L24.237 14.8886C24.7429 14.8039 25.2144 14.5776 25.5969 14.2359C25.9794 13.8942 26.2572 13.451 26.3982 12.9579C26.5391 12.4647 26.5374 11.9417 26.3932 11.4495C26.2491 10.9572 25.9684 10.5159 25.5837 10.1767Z" fill="#0F0F0F"/>
</svg>
