<svg width="32" height="32" viewBox="0 0 32 32" fill="none" xmlns="http://www.w3.org/2000/svg">
<path d="M19.084 13.0039C19.5015 13.044 19.8748 13.3798 19.875 13.8496V20.1504L19.8701 20.2422C19.825 20.6635 19.4738 20.9587 19.084 20.9961L19 21C18.5499 21 18.1252 20.6516 18.125 20.1504V13.8496C18.1252 13.3484 18.5499 13 19 13L19.084 13.0039Z" fill="#0F0F0F"/>
<path d="M16.459 14.4043C16.8766 14.4444 17.25 14.78 17.25 15.25V18.75L17.2451 18.8418C17.2002 19.2633 16.8489 19.5582 16.459 19.5957L16.375 19.5996C15.9248 19.5996 15.5 19.2514 15.5 18.75V15.25C15.5 14.7486 15.9248 14.4004 16.375 14.4004L16.459 14.4043Z" fill="#0F0F0F"/>
<path d="M21.709 14.4043C22.1266 14.4444 22.5 14.78 22.5 15.25V18.75C22.5 19.22 22.1266 19.5556 21.709 19.5957L21.625 19.5996C21.1748 19.5996 20.75 19.2514 20.75 18.75V15.25C20.75 14.7486 21.1748 14.4004 21.625 14.4004L21.709 14.4043Z" fill="#0F0F0F"/>
<path d="M13.5625 15.9746C14.1163 15.9746 14.625 16.402 14.625 17C14.625 17.598 14.1163 18.0254 13.5625 18.0254C13.0087 18.0254 12.5 17.598 12.5 17C12.5 16.402 13.0087 15.9746 13.5625 15.9746Z" fill="#0F0F0F"/>
<path d="M24.4375 15.9746C24.9913 15.9746 25.5 16.402 25.5 17C25.5 17.598 24.9913 18.0254 24.4375 18.0254C23.8837 18.0254 23.375 17.598 23.375 17C23.375 16.402 23.8837 15.9746 24.4375 15.9746Z" fill="#0F0F0F"/>
<path d="M26.4766 9.75293H26.4834C28.0163 9.82814 29.2498 11.0529 29.25 12.5693V21.5635C29.25 23.0801 28.0164 24.3047 26.4834 24.3799H26.4766L26.3389 24.3828H16.8193L13.4443 26.9854C12.6389 27.6055 11.4178 27.0666 11.417 26.0352V24.3701C9.97927 24.2519 8.82853 23.1255 8.75391 21.709L8.75293 21.7021L8.75 21.5693V12.5693C8.75017 11.0036 10.0651 9.75 11.667 9.75H26.3389L26.4766 9.75293ZM11.667 11.5352C11.06 11.5352 10.5832 12.0066 10.583 12.5693V21.5498L10.5889 21.668C10.643 22.1828 11.0984 22.5986 11.667 22.5986H12.333C12.8303 22.5986 13.2498 22.9889 13.25 23.4902V24.8574L15.9307 22.791L15.9395 22.7842L15.9482 22.7783L16.042 22.7178L16.0596 22.708C16.1943 22.6362 16.3457 22.5986 16.5 22.5986H26.3203L26.4492 22.5918C27.0005 22.5359 27.417 22.09 27.417 21.5635V12.583L27.4111 12.4648L27.3975 12.376C27.3102 11.9366 26.929 11.5884 26.4453 11.541L26.333 11.5342L11.667 11.5352Z" fill="#0F0F0F"/>
<path d="M19.6035 5.72754L19.6123 5.72852C21.0992 5.80553 22.2752 7.05138 22.2754 8.56934V9.27539H20.458V8.56934L20.4531 8.46582L20.4404 8.37793C20.3586 7.94355 20.0036 7.61087 19.5693 7.56543L19.4668 7.55957L5.5332 7.56055C4.98925 7.56062 4.54216 8.00823 4.54199 8.56934V17.5635L4.54688 17.667L4.56055 17.7617C4.65133 18.2271 5.05533 18.5732 5.5332 18.5732H6.16699C6.67183 18.5735 7.07485 18.9876 7.0752 19.4902V20.7871L7.82617 20.1777L8.27539 19.8145V22.1689L8.17285 22.252L7.25 23.001C6.44208 23.6554 5.25862 23.0654 5.25781 22.0352V20.3936C3.88081 20.2579 2.79915 19.117 2.72852 17.71L2.72754 17.7021L2.72461 17.5693V8.56934C2.7248 7.00219 3.97871 5.7247 5.5332 5.72461H19.4727L19.6035 5.72754Z" fill="#0F0F0F"/>
</svg>
