<svg width="32" height="32" viewBox="0 0 32 32" fill="none" xmlns="http://www.w3.org/2000/svg">
<path d="M27.1797 3.50488C29.0292 3.59842 30.5 5.12727 30.5 7V18H29.5V7C29.5 5.70566 28.5164 4.64082 27.2559 4.5127L27 4.5H5C3.61929 4.5 2.5 5.61929 2.5 7V21L2.5127 21.2559C2.64082 22.5164 3.70566 23.5 5 23.5H6C6.27614 23.5 6.5 23.7239 6.5 24V27.96L11.9375 23.6094L12.0078 23.5625C12.0815 23.5217 12.1648 23.5 12.25 23.5H19V24.5H12.4258L7.125 28.7412C6.51083 29.2322 5.61964 28.8522 5.51074 28.1123L5.5 27.96V24.5H5C3.12727 24.5 1.59842 23.0292 1.50488 21.1797L1.5 21V7C1.5 5.067 3.067 3.5 5 3.5H27L27.1797 3.50488Z" fill="#0F0F0F"/>
<path d="M25.9785 22.252C26.3927 22.252 26.7285 22.5877 26.7285 23.002C26.7285 23.4162 26.3927 23.752 25.9785 23.752C25.5643 23.752 25.2285 23.4162 25.2285 23.002C25.2285 22.5877 25.5643 22.252 25.9785 22.252Z" fill="#0F0F0F"/>
<path d="M25.9795 19.5C27.5334 19.5002 28.901 20.3382 29.8428 21.1143C30.3209 21.5083 30.7077 21.901 30.9746 22.1953C31.1083 22.3427 31.2123 22.467 31.2842 22.5547C31.3201 22.5985 31.3479 22.6336 31.3672 22.6582C31.3766 22.6703 31.3843 22.6796 31.3896 22.6865C31.3923 22.69 31.3949 22.6932 31.3965 22.6953L31.3984 22.6973C31.5326 22.8754 31.5335 23.1227 31.3994 23.3008L31.3984 23.3018L31.3965 23.3047C31.3949 23.3068 31.3923 23.31 31.3896 23.3135C31.3843 23.3204 31.3766 23.3297 31.3672 23.3418C31.3479 23.3664 31.3201 23.4015 31.2842 23.4453C31.2123 23.533 31.1083 23.6573 30.9746 23.8047C30.7077 24.099 30.3209 24.4917 29.8428 24.8857C28.901 25.6618 27.5334 26.4998 25.9795 26.5C24.4244 26.5 23.066 25.661 22.1338 24.8838C21.6608 24.4894 21.2796 24.0963 21.0166 23.8018C20.8848 23.6541 20.7817 23.5303 20.7109 23.4424C20.6758 23.3987 20.6488 23.3635 20.6299 23.3389C20.6204 23.3265 20.6127 23.3165 20.6074 23.3096C20.6048 23.3061 20.6021 23.3038 20.6006 23.3018L20.5986 23.2988L21 23L20.5986 22.7021L20.6006 22.6982C20.6021 22.6962 20.6048 22.6939 20.6074 22.6904C20.6127 22.6835 20.6204 22.6735 20.6299 22.6611C20.6488 22.6365 20.6758 22.6013 20.7109 22.5576C20.7817 22.4697 20.8848 22.3459 21.0166 22.1982C21.2796 21.9037 21.6608 21.5106 22.1338 21.1162C23.066 20.339 24.4244 19.5 25.9795 19.5ZM25.9795 20.5C24.7736 20.5 23.6414 21.161 22.7744 21.8838C22.3479 22.2394 22.0018 22.5964 21.7627 22.8643C21.7199 22.9122 21.6821 22.9585 21.6465 23C21.6821 23.0415 21.7199 23.0878 21.7627 23.1357C22.0018 23.4036 22.3479 23.7606 22.7744 24.1162C23.6414 24.839 24.7736 25.5 25.9795 25.5C27.1862 25.4998 28.3288 24.838 29.207 24.1143C29.639 23.7583 29.9903 23.401 30.2334 23.1328C30.2756 23.0862 30.3123 23.0405 30.3477 23C30.3123 22.9595 30.2756 22.9138 30.2334 22.8672C29.9903 22.599 29.639 22.2417 29.207 21.8857C28.3288 21.162 27.1862 20.5002 25.9795 20.5Z" fill="#0F0F0F"/>
<path d="M21 23L20.5977 23.2969C20.4674 23.1204 20.4674 22.8796 20.5977 22.7031L21 23Z" fill="#0F0F0F"/>
<path d="M16 9C16.2761 9 16.5 9.22386 16.5 9.5V18.5C16.5 18.7761 16.2761 19 16 19C15.7239 19 15.5 18.7761 15.5 18.5V9.5C15.5 9.22386 15.7239 9 16 9Z" fill="#0F0F0F"/>
<path d="M12.5 11C12.7761 11 13 11.2239 13 11.5V16.5C13 16.7761 12.7761 17 12.5 17C12.2239 17 12 16.7761 12 16.5V11.5C12 11.2239 12.2239 11 12.5 11Z" fill="#0F0F0F"/>
<path d="M19.5 11C19.7761 11 20 11.2239 20 11.5V16.5C20 16.7761 19.7761 17 19.5 17C19.2239 17 19 16.7761 19 16.5V11.5C19 11.2239 19.2239 11 19.5 11Z" fill="#0F0F0F"/>
<path d="M8.75 13.25C9.16421 13.25 9.5 13.5858 9.5 14C9.5 14.4142 9.16421 14.75 8.75 14.75C8.33579 14.75 8 14.4142 8 14C8 13.5858 8.33579 13.25 8.75 13.25Z" fill="#0F0F0F"/>
<path d="M23.25 13.25C23.6642 13.25 24 13.5858 24 14C24 14.4142 23.6642 14.75 23.25 14.75C22.8358 14.75 22.5 14.4142 22.5 14C22.5 13.5858 22.8358 13.25 23.25 13.25Z" fill="#0F0F0F"/>
</svg>
