<svg width="32" height="32" viewBox="0 0 32 32" fill="none" xmlns="http://www.w3.org/2000/svg">
<path d="M19 13.5215C19.2688 13.5215 19.495 13.7344 19.4951 14.0059V20.0146C19.4951 20.2523 19.3219 20.4448 19.0986 20.4893L19 20.499C18.7312 20.499 18.5049 20.2863 18.5049 20.0146V14.0059C18.505 13.7344 18.7312 13.5215 19 13.5215Z" fill="#0F0F0F"/>
<path d="M16.5859 14.8574C16.8542 14.8574 17.0807 15.0692 17.0811 15.3408V18.6797C17.081 18.9172 16.9078 19.1099 16.6846 19.1543L16.5859 19.1641C16.3174 19.1639 16.0909 18.9512 16.0908 18.6797V15.3408C16.0912 15.0692 16.318 14.8576 16.5859 14.8574Z" fill="#0F0F0F"/>
<path d="M21.5127 14.8672C21.7354 14.9115 21.9088 15.1033 21.9092 15.3408V18.6797C21.9091 18.9172 21.7358 19.1098 21.5127 19.1543L21.4141 19.1641C21.1452 19.1641 20.919 18.9512 20.9189 18.6797V15.3408C20.9193 15.0692 21.1458 14.8574 21.4141 14.8574L21.5127 14.8672Z" fill="#0F0F0F"/>
<path d="M14.1328 16.373C14.4348 16.4329 14.668 16.6922 14.668 17.0107C14.6678 17.3294 14.4345 17.5878 14.1328 17.6475L14 17.6611C13.6365 17.6611 13.3322 17.3748 13.332 17.0107C13.332 16.6468 13.6362 16.3594 14 16.3594L14.1328 16.373Z" fill="#0F0F0F"/>
<path d="M24.1328 16.373C24.4348 16.4329 24.668 16.6922 24.668 17.0107C24.6678 17.3294 24.4345 17.5878 24.1328 17.6475L24 17.6611C23.6365 17.6611 23.3322 17.3748 23.332 17.0107C23.332 16.6468 23.6362 16.3594 24 16.3594L24.1328 16.373Z" fill="#0F0F0F"/>
<path d="M26.7139 9.85254L26.7178 9.85352C28.0683 9.91989 29.1504 11.0021 29.1504 12.3369V21.6846C29.1501 23.0192 28.068 24.1006 26.7178 24.167L26.7139 24.168L26.5898 24.1709H16.585L12.9707 26.9707C12.4595 27.3658 11.71 27.0656 11.6172 26.4551L11.6152 26.4424L11.6094 26.3408L11.6084 26.3311V24.1709H11.4141C10.0466 24.1709 8.92239 23.1299 8.85352 21.8115L8.85254 21.8076L8.84961 21.6885V12.3369C8.84961 10.9589 10.0028 9.84961 11.4141 9.84961H26.5898L26.7139 9.85254ZM11.4141 10.8184C10.54 10.8184 9.83984 11.5025 9.83984 12.3369V21.6846L9.84766 21.8389L9.86914 21.9795C10.0113 22.6739 10.6462 23.2031 11.4141 23.2031H12.1035C12.3723 23.2032 12.5986 23.4159 12.5986 23.6875V26.0244L16.1064 23.3086L16.1152 23.3008L16.1641 23.2695L16.1758 23.2617L16.2471 23.3945L16.1768 23.2627C16.2502 23.2235 16.332 23.2031 16.4141 23.2031H26.5859L26.748 23.1953L26.8955 23.1738C27.5716 23.044 28.0875 22.4976 28.1533 21.8291L28.1602 21.6846V12.3369C28.1602 11.5545 27.5453 10.9037 26.748 10.8252L26.5859 10.8174L11.4141 10.8184Z" fill="#0F0F0F"/>
<path d="M21.6006 5.85352L21.6035 5.85449C23.0188 5.92464 24.1504 7.06735 24.1504 8.47461V9C24.1504 9.08284 24.0828 9.15039 24 9.15039H23.2754C23.1925 9.15039 23.125 9.08284 23.125 9V8.47461C23.125 7.64035 22.4754 6.94864 21.6357 6.86523L21.4658 6.85645L5.53418 6.85742C4.614 6.85758 3.875 7.58478 3.875 8.47461V18.3711L3.88281 18.5371L3.90527 18.6875C4.05574 19.427 4.72581 19.9881 5.53418 19.9883H6.25879C6.53788 19.9884 6.77147 20.2107 6.77148 20.4922V22.9834L8.02832 22.001L8.05957 21.9824C8.09237 21.9677 8.12988 21.9648 8.16504 21.9756C8.21182 21.9899 8.24856 22.0267 8.26367 22.0732C8.33511 22.2931 8.4385 22.4988 8.56934 22.6846C8.6149 22.7498 8.60167 22.8395 8.53906 22.8887L7.16602 23.9619C6.63235 24.3784 5.85221 24.0602 5.75586 23.4219L5.75391 23.4102L5.74707 23.3027L5.74609 23.292V20.9961H5.53418C4.10108 20.9959 2.92652 19.8955 2.85449 18.5059L2.85352 18.5029L2.84961 18.376V8.47461C2.84961 7.02201 4.05512 5.84978 5.53418 5.84961H21.4707L21.6006 5.85352Z" fill="#0F0F0F"/>
</svg>
