<svg width="32" height="32" viewBox="0 0 32 32" fill="none" xmlns="http://www.w3.org/2000/svg">
<path d="M27.4561 3.75488C29.5694 3.86211 31.25 5.60996 31.25 7.75V19H29.25V7.75L29.2393 7.5459C29.1438 6.60435 28.3957 5.8562 27.4541 5.76074L27.25 5.75H5.25C4.14543 5.75 3.25 6.64543 3.25 7.75V21.75L3.26074 21.9541C3.363 22.9628 4.21435 23.75 5.25 23.75H6.25C6.80228 23.75 7.25 24.1977 7.25 24.75V27.6689L11.875 23.9688L12.0156 23.875C12.1631 23.7934 12.3297 23.75 12.5 23.75H19V25.75H12.8516L7.6875 29.8818C6.70501 30.6669 5.251 29.9668 5.25 28.7109V25.75C3.10996 25.75 1.36211 24.0694 1.25488 21.9561L1.25 21.75V7.75C1.25 5.54086 3.04086 3.75 5.25 3.75H27.25L27.4561 3.75488Z" fill="#0F0F0F"/>
<path d="M25.9795 20.25C27.6198 20.2503 29.0444 21.1319 30.002 21.9209C30.4913 22.3242 30.8864 22.7265 31.1592 23.0273C31.2957 23.1779 31.4033 23.3049 31.4775 23.3955C31.5145 23.4406 31.5441 23.478 31.5645 23.5039C31.5742 23.5163 31.5822 23.5268 31.5879 23.5342C31.5907 23.5378 31.5939 23.5416 31.5957 23.5439L31.5977 23.5469L31.5986 23.5479C31.7997 23.8149 31.7997 24.1841 31.5986 24.4512L31.5977 24.4531L31.5957 24.4561C31.5939 24.4584 31.5907 24.4622 31.5879 24.4658C31.5822 24.4732 31.5742 24.4837 31.5645 24.4961C31.5441 24.522 31.5145 24.5594 31.4775 24.6045C31.4033 24.6951 31.2957 24.8221 31.1592 24.9727C30.8864 25.2735 30.4913 25.6758 30.002 26.0791C29.0444 26.8681 27.6198 27.7497 25.9795 27.75C24.3375 27.7498 22.922 26.8668 21.9736 26.0762C21.4892 25.6722 21.099 25.269 20.8301 24.9678C20.6956 24.8171 20.5896 24.6903 20.5166 24.5996C20.4802 24.5545 20.4516 24.5172 20.4316 24.4912C20.4218 24.4784 20.4129 24.4675 20.4072 24.46C20.4046 24.4566 20.4021 24.4534 20.4004 24.4512L20.3984 24.4482L20.3975 24.4463L21 24L20.3975 23.5537L20.3984 23.5518L20.4004 23.5488C20.4021 23.5466 20.4046 23.5434 20.4072 23.54C20.4129 23.5325 20.4218 23.5216 20.4316 23.5088C20.4516 23.4828 20.4802 23.4455 20.5166 23.4004C20.5896 23.3097 20.6956 23.1829 20.8301 23.0322C21.099 22.731 21.4892 22.3278 21.9736 21.9238C22.922 21.1332 24.3375 20.2502 25.9795 20.25ZM25.9785 23.252C25.5645 23.2522 25.2285 23.5879 25.2285 24.002C25.2285 24.416 25.5645 24.7517 25.9785 24.752C26.3925 24.7517 26.7285 24.416 26.7285 24.002C26.7285 23.5879 26.3925 23.2522 25.9785 23.252Z" fill="#0F0F0F"/>
<path d="M21 24L20.3975 24.4463C20.2018 24.1814 20.2018 23.8186 20.3975 23.5537L21 24Z" fill="#0F0F0F"/>
<path d="M16 9.5C16.5523 9.5 17 9.94772 17 10.5V19.5C17 20.0523 16.5523 20.5 16 20.5C15.4477 20.5 15 20.0523 15 19.5V10.5C15 9.94772 15.4477 9.5 16 9.5Z" fill="#0F0F0F"/>
<path d="M12.5 11.5C13.0523 11.5 13.5 11.9477 13.5 12.5V17.5C13.5 18.0523 13.0523 18.5 12.5 18.5C11.9477 18.5 11.5 18.0523 11.5 17.5V12.5C11.5 11.9477 11.9477 11.5 12.5 11.5Z" fill="#0F0F0F"/>
<path d="M19.5 11.5C20.0523 11.5 20.5 11.9477 20.5 12.5V17.5C20.5 18.0523 20.0523 18.5 19.5 18.5C18.9477 18.5 18.5 18.0523 18.5 17.5V12.5C18.5 11.9477 18.9477 11.5 19.5 11.5Z" fill="#0F0F0F"/>
<path d="M8.75 13.75C9.44036 13.75 10 14.3096 10 15C10 15.6904 9.44036 16.25 8.75 16.25C8.05964 16.25 7.5 15.6904 7.5 15C7.5 14.3096 8.05964 13.75 8.75 13.75Z" fill="#0F0F0F"/>
<path d="M23.25 13.75C23.9404 13.75 24.5 14.3096 24.5 15C24.5 15.6904 23.9404 16.25 23.25 16.25C22.5596 16.25 22 15.6904 22 15C22 14.3096 22.5596 13.75 23.25 13.75Z" fill="#0F0F0F"/>
</svg>
