<svg width="32" height="32" viewBox="0 0 32 32" fill="none" xmlns="http://www.w3.org/2000/svg">
<path d="M28.9995 6.00021H25.9995V3.00021C25.9995 2.735 25.8942 2.48064 25.7066 2.29311C25.5191 2.10557 25.2647 2.00021 24.9995 2.00021C24.7343 2.00021 24.4799 2.10557 24.2924 2.29311C24.1049 2.48064 23.9995 2.735 23.9995 3.00021V6.00021H20.9995C20.7343 6.00021 20.4799 6.10557 20.2924 6.29311C20.1049 6.48064 19.9995 6.735 19.9995 7.00021C19.9995 7.26543 20.1049 7.51978 20.2924 7.70732C20.4799 7.89486 20.7343 8.00021 20.9995 8.00021H23.9995V11.0002C23.9995 11.2654 24.1049 11.5198 24.2924 11.7073C24.4799 11.8949 24.7343 12.0002 24.9995 12.0002C25.2647 12.0002 25.5191 11.8949 25.7066 11.7073C25.8942 11.5198 25.9995 11.2654 25.9995 11.0002V8.00021H28.9995C29.2647 8.00021 29.5191 7.89486 29.7066 7.70732C29.8942 7.51978 29.9995 7.26543 29.9995 7.00021C29.9995 6.735 29.8942 6.48064 29.7066 6.29311C29.5191 6.10557 29.2647 6.00021 28.9995 6.00021Z" fill="#0F0F0F"/>
<path d="M26.9995 13.9651C26.8682 13.965 26.7381 13.9908 26.6167 14.041C26.4954 14.0912 26.3851 14.1649 26.2922 14.2578C26.1994 14.3507 26.1257 14.4609 26.0755 14.5823C26.0252 14.7036 25.9994 14.8337 25.9995 14.9651V26.0012C25.9995 26.2664 25.8942 26.5208 25.7066 26.7083C25.5191 26.8958 25.2647 27.0012 24.9995 27.0012C24.7343 27.0012 24.4799 26.8958 24.2924 26.7083C24.1049 26.5208 23.9995 26.2664 23.9995 26.0012V15.0002C23.9995 14.735 23.8942 14.4806 23.7066 14.2931C23.5191 14.1055 23.2647 14.0002 22.9995 14.0002C22.7343 14.0002 22.4799 14.1055 22.2924 14.2931C22.1049 14.4806 21.9995 14.735 21.9995 15.0002V26.0012C21.9995 26.7968 22.3156 27.5599 22.8782 28.1225C23.4408 28.6851 24.2039 29.0012 24.9995 29.0012C25.7952 29.0012 26.5582 28.6851 27.1208 28.1225C27.6834 27.5599 27.9995 26.7968 27.9995 26.0012V14.9651C27.9996 14.8337 27.9738 14.7036 27.9235 14.5823C27.8733 14.4609 27.7997 14.3507 27.7068 14.2578C27.6139 14.1649 27.5036 14.0912 27.3823 14.041C27.2609 13.9908 27.1309 13.965 26.9995 13.9651Z" fill="#0F0F0F"/>
<path d="M15.9985 11.0002C15.2036 11.001 14.4414 11.3171 13.8792 11.8791C13.3169 12.4412 13.0006 13.2032 12.9995 13.9982V26.0022C13.0006 26.7971 13.3169 27.5592 13.8792 28.1213C14.4414 28.6833 15.2036 28.9994 15.9985 29.0002H16.0015C16.7963 28.9993 17.5584 28.6832 18.1204 28.1211C18.6825 27.5591 18.9986 26.797 18.9995 26.0022V13.9983C18.9985 13.2029 18.6819 12.4405 18.1192 11.8784C17.5566 11.3163 16.7939 11.0004 15.9985 11.0002ZM16.9995 26.0022C16.9994 26.2669 16.8942 26.5206 16.7071 26.7077C16.5199 26.8949 16.2662 27.0001 16.0015 27.0002H15.9986C15.7339 27.0001 15.48 26.895 15.2927 26.7078C15.1054 26.5207 15 26.267 14.9996 26.0022V13.9983C14.9996 13.733 15.105 13.4787 15.2925 13.2911C15.48 13.1036 15.7344 12.9983 15.9996 12.9983C16.2648 12.9983 16.5192 13.1036 16.7067 13.2911C16.8943 13.4787 16.9996 13.733 16.9996 13.9983L16.9995 26.0022Z" fill="#0F0F0F"/>
<path d="M6.99951 6.00021C6.20413 6.00108 5.44157 6.31743 4.87915 6.87985C4.31673 7.44227 4.00038 8.20483 3.99951 9.00021V26.0002C3.99951 26.7959 4.31558 27.5589 4.87819 28.1215C5.4408 28.6841 6.20386 29.0002 6.99951 29.0002C7.79516 29.0002 8.55822 28.6841 9.12083 28.1215C9.68344 27.5589 9.99951 26.7959 9.99951 26.0002V9.00021C9.99864 8.20483 9.68229 7.44227 9.11987 6.87985C8.55745 6.31743 7.79489 6.00108 6.99951 6.00021ZM7.99951 26.0002C7.99951 26.2654 7.89416 26.5198 7.70662 26.7073C7.51908 26.8949 7.26473 27.0002 6.99951 27.0002C6.73429 27.0002 6.47994 26.8949 6.2924 26.7073C6.10487 26.5198 5.99951 26.2654 5.99951 26.0002V9.00021C5.99951 8.735 6.10487 8.48064 6.2924 8.29311C6.47994 8.10557 6.73429 8.00021 6.99951 8.00021C7.26473 8.00021 7.51908 8.10557 7.70662 8.29311C7.89416 8.48064 7.99951 8.735 7.99951 9.00021V26.0002Z" fill="#0F0F0F"/>
</svg>
