<svg width="32" height="32" viewBox="0 0 32 32" fill="none" xmlns="http://www.w3.org/2000/svg">
<path d="M2 6C2 3.79086 3.79086 2 6 2C8.20914 2 10 3.79086 10 6C10 7.86384 8.72523 9.42994 7 9.87398V29C7 29.5523 6.55228 30 6 30C5.44772 30 5 29.5523 5 29V9.87398C3.27477 9.42994 2 7.86384 2 6Z" fill="#0F0F0F"/>
<path d="M17 22.126L17 3C17 2.44772 16.5523 2 16 2C15.4477 2 15 2.44772 15 3L15 22.126C13.2748 22.5701 12 24.1362 12 26C12 28.2091 13.7909 30 16 30C18.2091 30 20 28.2091 20 26C20 24.1362 18.7252 22.5701 17 22.126Z" fill="#0F0F0F"/>
<path d="M26 2C26.5523 2 27 2.44772 27 3V12.126C28.7252 12.5701 30 14.1362 30 16C30 17.8638 28.7252 19.4299 27 19.874V29C27 29.5523 26.5523 30 26 30C25.4477 30 25 29.5523 25 29V19.874C23.2748 19.4299 22 17.8638 22 16C22 14.1362 23.2748 12.5701 25 12.126V3C25 2.44772 25.4477 2 26 2Z" fill="#0F0F0F"/>
</svg>
