<svg width="32" height="32" viewBox="0 0 32 32" fill="none" xmlns="http://www.w3.org/2000/svg">
<path d="M7.83984 27.3203C7.37012 27.3203 7.00195 26.9521 7.00195 26.5332V22.9023C5.88477 22.5596 5.05957 21.5059 5.05957 20.2617C5.05957 19.0303 5.88477 17.9766 7.00195 17.6211V7.2998C7.00195 6.83008 7.37012 6.46191 7.83984 6.46191C8.29688 6.46191 8.66504 6.83008 8.66504 7.2998V17.6211C9.78223 17.9766 10.5947 19.0303 10.5947 20.2617C10.5947 21.4932 9.78223 22.5469 8.66504 22.9023V26.5332C8.66504 26.9521 8.29688 27.3203 7.83984 27.3203ZM15.9268 27.3203C15.4697 27.3203 15.1016 26.9521 15.1016 26.4951V15.8311C13.9844 15.4756 13.1592 14.4219 13.1592 13.1777C13.1592 11.9463 13.9844 10.8926 15.1016 10.5371V7.26172C15.1016 6.83008 15.4697 6.46191 15.9268 6.46191C16.3965 6.46191 16.7646 6.83008 16.7646 7.26172V10.5371C17.8818 10.8926 18.6943 11.9463 18.6943 13.1777C18.6943 14.4092 17.8818 15.4629 16.7646 15.8184V26.4951C16.7646 26.9521 16.3965 27.3203 15.9268 27.3203ZM21.2715 20.2617C21.2715 19.0303 22.084 17.9766 23.2012 17.6211V7.2998C23.2012 6.83008 23.5693 6.46191 24.0264 6.46191C24.4961 6.46191 24.8643 6.83008 24.8643 7.2998V17.6211C25.9814 17.9639 26.8066 19.0176 26.8066 20.2617C26.8066 21.5059 25.9814 22.5596 24.8643 22.915V26.5332C24.8643 26.9521 24.4961 27.3203 24.0264 27.3203C23.5693 27.3203 23.2012 26.9521 23.2012 26.5332V22.9023C22.084 22.5469 21.2715 21.4932 21.2715 20.2617ZM14.4795 13.1777C14.4795 14.0029 15.127 14.625 15.9268 14.625C16.752 14.625 17.374 14.0029 17.374 13.1777C17.374 12.3779 16.752 11.7305 15.9268 11.7305C15.127 11.7305 14.4795 12.3779 14.4795 13.1777ZM6.37988 20.2617C6.37988 21.0869 7.02734 21.709 7.83984 21.709C8.65234 21.709 9.28711 21.0869 9.28711 20.2617C9.28711 19.4492 8.65234 18.8145 7.83984 18.8145C7.02734 18.8145 6.37988 19.4492 6.37988 20.2617ZM22.5918 20.2617C22.5918 21.0869 23.2393 21.709 24.0518 21.709C24.8643 21.709 25.499 21.0869 25.499 20.2617C25.499 19.4492 24.8643 18.8145 24.0518 18.8145C23.2393 18.8145 22.5918 19.4492 22.5918 20.2617Z" fill="black"/>
</svg>
