<svg width="32" height="32" viewBox="0 0 32 32" fill="none" xmlns="http://www.w3.org/2000/svg">
<path d="M22.126 7C22.5701 8.72523 24.1362 10 26 10C28.2091 10 30 8.20914 30 6C30 3.79086 28.2091 2 26 2C24.1362 2 22.5701 3.27477 22.126 5H3C2.44772 5 2 5.44772 2 6C2 6.55228 2.44772 7 3 7H22.126ZM26 4C27.1046 4 28 4.89543 28 6C28 7.10457 27.1046 8 26 8C24.8954 8 24 7.10457 24 6C24 4.89543 24.8954 4 26 4Z" fill="#0F0F0F"/>
<path d="M6 12C7.86384 12 9.42994 13.2748 9.87398 15H29C29.5523 15 30 15.4477 30 16C30 16.5523 29.5523 17 29 17H9.87398C9.42994 18.7252 7.86384 20 6 20C3.79086 20 2 18.2091 2 16C2 13.7909 3.79086 12 6 12ZM6 14C4.89543 14 4 14.8954 4 16C4 17.1046 4.89543 18 6 18C7.10457 18 8 17.1046 8 16C8 14.8954 7.10457 14 6 14Z" fill="#0F0F0F"/>
<path d="M19.874 25C19.4299 23.2748 17.8638 22 16 22C14.1362 22 12.5701 23.2748 12.126 25H3C2.44772 25 2 25.4477 2 26C2 26.5523 2.44772 27 3 27H12.126C12.5701 28.7252 14.1362 30 16 30C17.8638 30 19.4299 28.7252 19.874 27H29C29.5523 27 30 26.5523 30 26C30 25.4477 29.5523 25 29 25H19.874ZM14 26C14 24.8954 14.8954 24 16 24C17.1046 24 18 24.8954 18 26C18 27.1046 17.1046 28 16 28C14.8954 28 14 27.1046 14 26Z" fill="#0F0F0F"/>
</svg>
