<svg width="32" height="32" viewBox="0 0 32 32" fill="none" xmlns="http://www.w3.org/2000/svg">
<path d="M22.325 6.75C22.6725 8.46168 24.1858 9.75 26 9.75C28.0711 9.75 29.75 8.07107 29.75 6C29.75 3.92893 28.0711 2.25 26 2.25C24.1858 2.25 22.6725 3.53832 22.325 5.25H3C2.58579 5.25 2.25 5.58579 2.25 6C2.25 6.41421 2.58579 6.75 3 6.75H22.325ZM26 3.75C27.2426 3.75 28.25 4.75736 28.25 6C28.25 7.24264 27.2426 8.25 26 8.25C24.7574 8.25 23.75 7.24264 23.75 6C23.75 4.75736 24.7574 3.75 26 3.75Z" fill="#0F0F0F"/>
<path d="M6 12.25C7.81422 12.25 9.32753 13.5383 9.67499 15.25H29C29.4142 15.25 29.75 15.5858 29.75 16C29.75 16.4142 29.4142 16.75 29 16.75H9.67499C9.32753 18.4617 7.81422 19.75 6 19.75C3.92893 19.75 2.25 18.0711 2.25 16C2.25 13.9289 3.92893 12.25 6 12.25ZM6 13.75C4.75736 13.75 3.75 14.7574 3.75 16C3.75 17.2426 4.75736 18.25 6 18.25C7.24264 18.25 8.25 17.2426 8.25 16C8.25 14.7574 7.24264 13.75 6 13.75Z" fill="#0F0F0F"/>
<path d="M19.675 25.25C19.3275 23.5383 17.8142 22.25 16 22.25C14.1858 22.25 12.6725 23.5383 12.325 25.25H3C2.58579 25.25 2.25 25.5858 2.25 26C2.25 26.4142 2.58579 26.75 3 26.75H12.325C12.6725 28.4617 14.1858 29.75 16 29.75C17.8142 29.75 19.3275 28.4617 19.675 26.75H29C29.4142 26.75 29.75 26.4142 29.75 26C29.75 25.5858 29.4142 25.25 29 25.25H19.675ZM13.75 26C13.75 24.7574 14.7574 23.75 16 23.75C17.2426 23.75 18.25 24.7574 18.25 26C18.25 27.2426 17.2426 28.25 16 28.25C14.7574 28.25 13.75 27.2426 13.75 26Z" fill="#0F0F0F"/>
</svg>
