<svg width="32" height="32" viewBox="0 0 32 32" fill="none" xmlns="http://www.w3.org/2000/svg">
<path d="M22.126 7H3C2.44772 7 2 6.55228 2 6C2 5.44772 2.44772 5 3 5H22.126C22.5701 3.27477 24.1362 2 26 2C28.2091 2 30 3.79086 30 6C30 8.20914 28.2091 10 26 10C24.1362 10 22.5701 8.72523 22.126 7Z" fill="#0F0F0F"/>
<path d="M6 12C3.79086 12 2 13.7909 2 16C2 18.2091 3.79086 20 6 20C7.86384 20 9.42994 18.7252 9.87398 17H29C29.5523 17 30 16.5523 30 16C30 15.4477 29.5523 15 29 15H9.87398C9.42994 13.2748 7.86384 12 6 12Z" fill="#0F0F0F"/>
<path d="M16 22C14.1362 22 12.5701 23.2748 12.126 25H3C2.44772 25 2 25.4477 2 26C2 26.5523 2.44772 27 3 27H12.126C12.5701 28.7252 14.1362 30 16 30C17.8638 30 19.4299 28.7252 19.874 27H29C29.5523 27 30 26.5523 30 26C30 25.4477 29.5523 25 29 25H19.874C19.4299 23.2748 17.8638 22 16 22Z" fill="#0F0F0F"/>
</svg>
