<svg width="32" height="32" viewBox="0 0 32 32" fill="none" xmlns="http://www.w3.org/2000/svg">
<path d="M22.5354 6.5C22.7781 8.19615 24.2368 9.5 26 9.5C27.933 9.5 29.5 7.933 29.5 6C29.5 4.067 27.933 2.5 26 2.5C24.2368 2.5 22.7781 3.80385 22.5354 5.5H3C2.72386 5.5 2.5 5.72386 2.5 6C2.5 6.27614 2.72386 6.5 3 6.5H22.5354ZM26 3.5C27.3807 3.5 28.5 4.61929 28.5 6C28.5 7.38071 27.3807 8.5 26 8.5C24.6193 8.5 23.5 7.38071 23.5 6C23.5 4.61929 24.6193 3.5 26 3.5Z" fill="#0F0F0F"/>
<path d="M6 12.5C7.76324 12.5 9.22194 13.8039 9.46456 15.5H29C29.2761 15.5 29.5 15.7239 29.5 16C29.5 16.2761 29.2761 16.5 29 16.5H9.46456C9.22194 18.1961 7.76324 19.5 6 19.5C4.067 19.5 2.5 17.933 2.5 16C2.5 14.067 4.067 12.5 6 12.5ZM6 13.5C4.61929 13.5 3.5 14.6193 3.5 16C3.5 17.3807 4.61929 18.5 6 18.5C7.38071 18.5 8.5 17.3807 8.5 16C8.5 14.6193 7.38071 13.5 6 13.5Z" fill="#0F0F0F"/>
<path d="M19.4646 25.5C19.2219 23.8039 17.7632 22.5 16 22.5C14.2368 22.5 12.7781 23.8039 12.5354 25.5H3C2.72386 25.5 2.5 25.7239 2.5 26C2.5 26.2761 2.72386 26.5 3 26.5H12.5354C12.7781 28.1961 14.2368 29.5 16 29.5C17.7632 29.5 19.2219 28.1961 19.4646 26.5H29C29.2761 26.5 29.5 26.2761 29.5 26C29.5 25.7239 29.2761 25.5 29 25.5H19.4646ZM13.5 26C13.5 24.6193 14.6193 23.5 16 23.5C17.3807 23.5 18.5 24.6193 18.5 26C18.5 27.3807 17.3807 28.5 16 28.5C14.6193 28.5 13.5 27.3807 13.5 26Z" fill="#0F0F0F"/>
</svg>
