<svg width="35" height="32" viewBox="0 0 35 32" fill="none" xmlns="http://www.w3.org/2000/svg">
<path d="M12.3887 17.248L13.6963 8.74219C13.8105 7.99316 14.8389 7.99316 14.9277 8.74219L16.6924 24.1797L18.584 2.83887C18.6475 2.07715 19.7646 2.07715 19.8408 2.83887L21.7197 24.1797L23.4971 8.74219C23.5859 8.00586 24.627 7.99316 24.7285 8.74219L26.6455 21.3613L28.3975 13.0459C28.5371 12.373 29.4385 12.3604 29.6162 13.0332L30.6826 17.1973H34.1104C34.5039 17.1973 34.8213 17.5146 34.8213 17.9082C34.8213 18.2891 34.5039 18.5938 34.1104 18.5938H30.2256C29.9463 18.5938 29.7051 18.4668 29.6162 18.1367L29.0703 15.9785L27.166 24.916C27.0264 25.5381 26.0361 25.5381 25.9346 24.916L24.208 13.4902L22.2656 30.3623C22.1768 31.1367 21.0977 31.124 21.0342 30.3623L19.2061 9.91016L17.3906 30.3877C17.3271 31.1367 16.248 31.1367 16.1592 30.3877L14.2041 13.4902L13.4551 18.543C13.1504 18.0732 12.7949 17.6416 12.3887 17.248ZM10.0273 13.0586L10.5732 15.6357C9.875 15.2676 9.13867 15.001 8.33887 14.8486L8.7959 13.0586C8.97363 12.3984 9.8877 12.3984 10.0273 13.0586ZM6.82812 28.7627C3.375 28.7627 0.518555 25.9189 0.518555 22.4531C0.518555 19 3.375 16.1436 6.82812 16.1436C10.2939 16.1436 13.1504 19 13.1504 22.4531C13.1504 25.9062 10.2686 28.7627 6.82812 28.7627ZM6.84082 26.6045C7.23438 26.6045 7.55176 26.3252 7.55176 25.9189V23.126H10.1543C10.5352 23.126 10.8398 22.8213 10.8398 22.4404C10.8398 22.0596 10.5352 21.7676 10.1543 21.7676H7.55176V18.9746C7.55176 18.5557 7.23438 18.2891 6.84082 18.2891C6.44727 18.2891 6.12988 18.5557 6.12988 18.9746V21.7676H3.51465C3.14648 21.7676 2.8418 22.0596 2.8418 22.4404C2.8418 22.8213 3.14648 23.126 3.51465 23.126H6.12988V25.9189C6.12988 26.3252 6.44727 26.6045 6.84082 26.6045Z" fill="black"/>
</svg>
