<svg width="32" height="32" viewBox="0 0 32 32" fill="none" xmlns="http://www.w3.org/2000/svg">
<path d="M4.29289 16.293C4.68342 15.9025 5.31644 15.9025 5.70696 16.293L7.70696 18.293C8.09743 18.6835 8.09743 19.3165 7.70696 19.707C7.31644 20.0975 6.68342 20.0975 6.29289 19.707L5.99699 19.4111V24C5.99699 24.7957 6.31332 25.5585 6.8759 26.1211C7.43849 26.6836 8.20136 27 8.99699 27H22.997C23.7926 27 24.5555 26.6837 25.1181 26.1211C25.6807 25.5585 25.997 24.7956 25.997 24V21C25.997 20.4477 26.4447 20 26.997 20C27.5492 20 27.997 20.4477 27.997 21V24C27.997 25.3261 27.4698 26.5975 26.5322 27.5352C25.5945 28.4728 24.3231 29 22.997 29H8.99699C7.67093 29 6.39856 28.4729 5.46086 27.5352C4.52341 26.5975 3.99699 25.3258 3.99699 24V19.417L3.70696 19.707C3.31644 20.0975 2.68342 20.0975 2.29289 19.707C1.90237 19.3165 1.90237 18.6835 2.29289 18.293L4.29289 16.293Z" fill="#0F0F0F"/>
<path d="M17.2304 10.3545C17.4382 10.0559 17.8581 9.76677 18.3417 9.87988L18.4394 9.90723L18.8476 10.0615C18.9818 10.1164 19.1148 10.1749 19.245 10.2373C19.7623 10.4855 19.8639 11.0544 19.7822 11.4434C19.7615 11.5417 19.7499 11.6443 19.7499 11.749C19.75 12.5772 20.4217 13.2488 21.2499 13.249C21.3538 13.249 21.4557 13.2376 21.5536 13.2168C21.9188 13.1393 22.4413 13.2234 22.7099 13.6602L22.7607 13.7529L22.9374 14.1494C22.9925 14.2838 23.0433 14.4205 23.0907 14.5586C23.2707 15.083 22.9628 15.546 22.6445 15.7676C22.2541 16.0393 22 16.4897 21.9999 16.999C22 17.5082 22.2539 17.9578 22.6445 18.2295C22.9629 18.451 23.2705 18.9141 23.0907 19.4385C22.996 19.7143 22.8857 19.9837 22.7607 20.2441C22.5123 20.7609 21.9438 20.8632 21.5546 20.7812C21.4566 20.7606 21.3542 20.7491 21.2499 20.749C20.4217 20.7492 19.7501 21.4208 19.7499 22.249C19.7499 22.3534 19.7614 22.4556 19.7822 22.5537C19.8641 22.9428 19.7618 23.5114 19.245 23.7598C18.9847 23.8847 18.7152 23.9951 18.4394 24.0898C17.9149 24.2696 17.4518 23.9621 17.2304 23.6436C16.9588 23.253 16.509 22.9992 15.9999 22.999C15.4906 22.9991 15.0402 23.2533 14.7685 23.6436C14.5469 23.9619 14.0839 24.2696 13.5595 24.0898C13.2836 23.9951 13.0143 23.8848 12.7538 23.7598C12.2366 23.5113 12.1349 22.9423 12.2177 22.5527C12.2385 22.4548 12.2499 22.353 12.2499 22.249C12.2498 21.4208 11.5781 20.7493 10.7499 20.749C10.6453 20.749 10.5425 20.7606 10.4443 20.7812C10.0551 20.863 9.48649 20.7612 9.23821 20.2441C9.11311 19.9836 9.0029 19.7145 8.90813 19.4385C8.72811 18.9139 9.03575 18.451 9.35442 18.2295C9.74525 17.9579 9.99985 17.5083 9.99992 16.999C9.99985 16.4894 9.74529 16.0392 9.35442 15.7676C9.03584 15.5461 8.72825 15.0832 8.90813 14.5586L9.06145 14.1494C9.11639 14.0155 9.17582 13.8829 9.23821 13.7529L9.28801 13.6602C9.55672 13.2233 10.0802 13.1394 10.4452 13.2168C10.5434 13.2376 10.6456 13.249 10.7499 13.249C11.5781 13.2488 12.2498 12.5772 12.2499 11.749C12.2499 11.6446 12.2386 11.5426 12.2177 11.4443C12.1351 11.055 12.2363 10.4857 12.7538 10.2373C13.0143 10.1125 13.2838 10.0017 13.5595 9.90723L13.6572 9.87988C14.1409 9.7669 14.5608 10.0559 14.7685 10.3545C15.0402 10.745 15.4905 10.9989 15.9999 10.999C16.5089 10.9989 16.9588 10.7449 17.2304 10.3545ZM16.0009 14.5C14.6203 14.5 13.501 15.6194 13.5009 17C13.501 18.3806 14.6203 19.5 16.0009 19.5C17.3812 19.4996 18.5008 18.3804 18.5009 17C18.5008 15.6196 17.3812 14.5004 16.0009 14.5Z" fill="#0F0F0F"/>
<path d="M21.9999 2C22.5522 2.00004 22.9999 2.44774 22.9999 3V5C24.3249 5.0008 25.5952 5.52788 26.5322 6.46484C27.4698 7.40249 27.997 8.67391 27.997 10V14.5889L28.2929 14.293C28.6834 13.9025 29.3164 13.9025 29.707 14.293C30.0974 14.6835 30.0974 15.3165 29.707 15.707L27.707 17.707C27.3164 18.0975 26.6834 18.0975 26.2929 17.707L24.2929 15.707C23.9024 15.3165 23.9024 14.6835 24.2929 14.293C24.6834 13.9025 25.3164 13.9025 25.707 14.293L25.997 14.583V10C25.997 9.20442 25.6807 8.44153 25.1181 7.87891C24.5555 7.3163 23.7926 7.00002 22.997 7H8.99699C8.20136 7 7.43849 7.31635 6.8759 7.87891C6.31332 8.44149 5.99699 9.20431 5.99699 10V13C5.99699 13.5523 5.54924 14 4.99699 14C4.44471 14 3.99699 13.5523 3.99699 13V10C3.99699 8.67416 4.52341 7.40251 5.46086 6.46484C6.39856 5.52715 7.67093 5 8.99699 5H8.99992V3C8.99992 2.44772 9.44764 2 9.99992 2C10.5522 2.00004 10.9999 2.44774 10.9999 3V5H20.9999V3C20.9999 2.44772 21.4476 2 21.9999 2Z" fill="#0F0F0F"/>
</svg>
