<svg width="32" height="32" viewBox="0 0 32 32" fill="none" xmlns="http://www.w3.org/2000/svg">
<path d="M26.9438 4.80518C27.8227 4.80518 28.5083 5.05278 29.0004 5.54838C29.4916 6.04448 29.7377 6.73198 29.7377 7.61138V19.8194C29.7377 20.6983 29.4916 21.3858 29.0004 21.8819C28.5082 22.377 27.8227 22.6251 26.9438 22.6251H22.1821L20.8755 21.1378H26.9077C27.3393 21.1378 27.6733 21.0226 27.9087 20.7901C28.145 20.5587 28.2622 20.2266 28.2622 19.795V7.63528C28.2622 7.21148 28.145 6.87988 27.9087 6.63968C27.6733 6.39998 27.3394 6.28028 26.9077 6.28028H5.10587C4.66597 6.28028 4.32807 6.39988 4.09217 6.63968C3.85637 6.87988 3.73867 7.21148 3.73867 7.63528V19.795C3.73867 20.2266 3.85637 20.5587 4.09217 20.7901C4.32797 21.0225 4.66587 21.1378 5.10587 21.1378H11.1376L9.83047 22.6251H5.05757C4.17817 22.6251 3.49267 22.3771 3.00097 21.8819C2.50927 21.3858 2.26367 20.6983 2.26367 19.8194V7.61138C2.26367 6.73198 2.50927 6.04448 3.00097 5.54838C3.49267 5.05278 4.17817 4.80518 5.05757 4.80518H26.9438ZM23.3335 27.1944H8.67917C8.45557 27.1944 8.30957 27.1026 8.24167 26.919C8.17377 26.7344 8.20747 26.5626 8.34377 26.4034L15.5748 18.212C15.6866 18.0841 15.8307 18.0206 16.0064 18.0206C16.1821 18.0206 16.3267 18.0841 16.438 18.212L23.6694 26.4034C23.8139 26.5626 23.8491 26.7345 23.7778 26.919C23.7055 27.1026 23.5571 27.1944 23.3335 27.1944Z" fill="#0F0F0F"/>
</svg>
