<svg width="32" height="32" viewBox="0 0 32 32" fill="none" xmlns="http://www.w3.org/2000/svg">
<path d="M26.9182 4.6377C27.8791 4.6377 28.631 4.9136 29.1798 5.4648C29.7267 6.0165 30.0001 6.76799 30.0001 7.71959V19.8066C30.0001 20.7665 29.7267 21.5194 29.1798 22.0673C28.631 22.6151 27.8791 22.8886 26.9182 22.8886H22.8539L21.1508 20.958H26.883C27.258 20.958 27.5509 20.8545 27.758 20.6465C27.967 20.4385 28.0705 20.1504 28.0705 19.7832V7.7553C28.0705 7.3876 27.967 7.0981 27.758 6.8862C27.551 6.6743 27.258 6.5683 26.883 6.5683H5.1177C4.7422 6.5683 4.4502 6.6743 4.2427 6.8862C4.0347 7.0981 3.9307 7.3876 3.9307 7.7553V19.7832C3.9307 20.1504 4.0347 20.4385 4.2427 20.6465C4.4502 20.8545 4.7422 20.958 5.1177 20.958H10.8621L9.159 22.8886H5.082C4.1226 22.8886 3.3687 22.6152 2.8213 22.0673C2.2735 21.5195 2 20.7666 2 19.8066V7.7197C2 6.7681 2.2734 6.0166 2.8213 5.4649C3.3686 4.9136 4.1225 4.63779 5.082 4.63779L26.9182 4.6377ZM23.3343 27.3621H8.6795C8.3992 27.3621 8.2156 27.2478 8.1278 27.0203C8.04 26.7928 8.0839 26.5789 8.2596 26.3787L15.4908 18.1886C15.6265 18.0284 15.7984 17.9484 16.0064 17.9484C16.2134 17.9484 16.3853 18.0285 16.522 18.1886L23.7522 26.3787C23.9377 26.5789 23.9827 26.7927 23.8909 27.0203C23.7991 27.2479 23.6136 27.3621 23.3343 27.3621Z" fill="#0F0F0F"/>
</svg>
