<svg width="32" height="32" viewBox="0 0 32 32" fill="none" xmlns="http://www.w3.org/2000/svg">
<path d="M5.67871 24.7256C4.76465 24.7256 4.20605 24.2305 4.20605 23.4941C4.20605 22.2119 5.4375 21.1074 6.50391 19.9775C7.53223 18.8604 7.63379 16.5752 7.84961 14.582C8.06543 10.2402 9.33496 7.26953 12.5723 6.21582C12.9277 4.51465 14.2354 3.27051 16 3.27051C17.7646 3.27051 19.0723 4.51465 19.4404 6.21582C22.665 7.26953 23.9473 10.2402 24.1504 14.582C24.3662 16.5752 24.4678 18.8604 25.4961 19.9775C26.5625 21.1074 27.8066 22.2119 27.8066 23.4941C27.8066 24.2305 27.2354 24.7256 26.3213 24.7256H20.3164C20.2402 27.1123 18.4756 29.0547 16 29.0547C13.5244 29.0547 11.7598 27.0996 11.6836 24.7256H13.207C13.3086 26.5283 14.4385 27.6709 16 27.6709C17.5615 27.6709 18.6914 26.5283 18.793 24.7256H5.67871ZM6.07227 23.2402H25.9277V23.1006C25.7754 22.5928 24.9248 21.6914 24.1885 20.9043C23.0459 19.6602 22.8301 17.4004 22.6016 14.7344C22.3604 10.0244 20.9004 8.19629 18.6914 7.59961C18.3232 7.49805 18.1201 7.33301 18.082 6.99023C17.9932 5.68262 17.2314 4.71777 16 4.71777C14.7686 4.71777 14.0068 5.68262 13.918 6.99023C13.8799 7.33301 13.6768 7.49805 13.3086 7.59961C11.0996 8.19629 9.63965 10.0244 9.39844 14.7344C9.16992 17.4004 8.9541 19.6602 7.81152 20.9043C7.0752 21.6914 6.22461 22.5928 6.07227 23.1006V23.2402Z" fill="black"/>
</svg>
