<svg width="45" height="32" viewBox="0 0 45 32" fill="none" xmlns="http://www.w3.org/2000/svg">
<path d="M4.87625 24.4435C5.26904 23.9904 5.15534 23.4208 4.69019 22.917C2.99759 21.0641 2.05438 18.6516 2.05438 15.9911C2.05438 13.3306 3.00017 10.9182 4.69019 9.06523C5.15275 8.56148 5.26904 7.99192 4.87625 7.5388C4.47054 7.07302 3.76249 7.07555 3.27151 7.60715C1.17578 9.83478 0 12.794 0 15.9937C0 19.1934 1.17578 22.15 3.27409 24.3777C3.76507 24.9093 4.47054 24.9118 4.87883 24.446L4.87625 24.4435ZM8.40875 20.9274C8.79896 20.4768 8.63616 19.93 8.2382 19.3883C7.4888 18.4694 7.10635 17.2771 7.10635 15.9937C7.10635 14.7103 7.4888 13.518 8.2382 12.5991C8.63616 12.0573 8.80154 11.5106 8.40875 11.06C7.98496 10.6043 7.22781 10.5942 6.77817 11.1536C5.68508 12.4826 5.05197 14.1736 5.05197 15.9937C5.05197 17.8137 5.68508 19.5047 6.77817 20.8337C7.22781 21.3957 7.98496 21.3856 8.40875 20.9274ZM40.1186 24.4435C40.5269 24.9093 41.2323 24.9067 41.7104 24.3751C43.8061 22.15 44.9974 19.1908 44.9974 15.9911C44.9974 12.7915 43.8061 9.83478 41.7104 7.60715C41.2323 7.07555 40.5269 7.07302 40.1186 7.5388C39.7155 7.99192 39.8421 8.56148 40.3021 9.06523C41.9972 10.9182 42.9275 13.3306 42.9275 15.9911C42.9275 18.6516 41.9947 21.0641 40.3021 22.917C39.8421 23.4208 39.7129 23.9904 40.1186 24.4435ZM36.5887 20.9274C37.0099 21.383 37.7541 21.3931 38.2063 20.8337C39.2994 19.5047 39.9455 17.8137 39.9455 15.9937C39.9455 14.1736 39.2994 12.4826 38.2063 11.1536C37.7541 10.5917 37.0099 10.6018 36.5887 11.06C36.183 11.5106 36.3483 12.0573 36.7463 12.5991C37.506 13.518 37.8756 14.7103 37.8756 15.9937C37.8756 17.2771 37.5086 18.4694 36.7463 19.3883C36.3483 19.93 36.1804 20.4768 36.5887 20.9274ZM12.4968 24.0638H32.4902C33.6841 24.0638 34.3947 23.4588 34.3947 22.5576C34.3947 21.3223 33.1234 20.2059 32.0199 19.1174C31.1904 18.2643 30.963 16.5101 30.8726 15.0849C30.7692 10.3436 29.5004 7.07049 26.1333 5.8782C25.6552 4.27329 24.358 3 22.4923 3C20.6265 3 19.3293 4.27329 18.8512 5.8782C15.4996 7.07049 14.2153 10.3436 14.13 15.0849C14.0266 16.5126 13.8096 18.2643 12.9697 19.1174C11.8818 20.2059 10.5923 21.3223 10.5923 22.5576C10.5923 23.4562 11.3159 24.0638 12.4994 24.0638H12.4968ZM22.4923 29C24.6371 29 26.1979 27.4786 26.3633 25.7396H18.6238C18.7995 27.4786 20.35 29 22.4923 29Z" fill="#0F0F0F"/>
</svg>
