<svg width="32" height="32" viewBox="0 0 32 32" fill="none" xmlns="http://www.w3.org/2000/svg">
<path d="M29.707 28.293L26.414 25H27.0004C27.2656 25 27.52 24.8946 27.7075 24.7071C27.895 24.5196 28.0004 24.2652 28.0004 24C28.0004 23.7348 27.895 23.4804 27.7075 23.2929C27.52 23.1054 27.2656 23 27.0004 23H25.895L24.8695 13.8389C24.7015 12.3721 24.1676 10.971 23.3168 9.7644C22.466 8.5578 21.3256 7.58437 20.0004 6.93353V5.96325C20.0018 5.43777 19.8989 4.91724 19.6978 4.43178C19.4966 3.94633 19.2012 3.5056 18.8285 3.13513C18.0667 2.40742 17.0537 2.00134 16.0001 2.00134C14.9466 2.00134 13.9336 2.40742 13.1718 3.13513C12.7991 3.5056 12.5036 3.94632 12.3025 4.43178C12.1013 4.91723 11.9985 5.43777 11.9999 5.96325V6.93353C11.2152 7.32812 10.4941 7.83817 9.86062 8.44665L3.70701 2.293C3.61416 2.20015 3.50393 2.1265 3.38262 2.07625C3.2613 2.026 3.13128 2.00014 2.99997 2.00014C2.86866 2.00014 2.73863 2.026 2.61732 2.07625C2.496 2.1265 2.38577 2.20016 2.29293 2.29301C2.20008 2.38586 2.12642 2.49609 2.07617 2.6174C2.02592 2.73872 2.00006 2.86874 2.00006 3.00005C2.00006 3.26524 2.10541 3.51957 2.29293 3.70709L28.2929 29.7071C28.4804 29.8946 28.7348 30 29 30C29.2652 30 29.5195 29.8946 29.707 29.7071C29.8945 29.5196 29.9999 29.2652 29.9999 29C29.9999 28.7349 29.8945 28.4805 29.707 28.293ZM13.9999 5.98205C13.9992 5.71931 14.0506 5.45905 14.1512 5.21632C14.2518 4.97359 14.3995 4.75323 14.5858 4.568C14.9667 4.20392 15.4733 4.00074 16.0001 4.00074C16.527 4.00074 17.0336 4.20392 17.4145 4.568C17.6008 4.75324 17.7485 4.9736 17.8491 5.21633C17.9497 5.45905 18.0011 5.71932 18.0004 5.98206V6.23169C16.6848 5.92288 15.3155 5.92286 13.9999 6.23163V5.98205ZM15.9999 8.00005C17.6918 7.98725 19.329 8.59851 20.5985 9.71696C21.868 10.8354 22.6807 12.3826 22.8813 14.0626L23.8148 22.4008L11.2712 9.85723C12.5559 8.66253 14.2455 7.99892 15.9999 8.00005Z" fill="#0F0F0F"/>
<path d="M8.11794 23.0001L9.11806 14.0635C9.14126 13.8587 9.17482 13.6573 9.2156 13.4589L7.60616 11.8494C7.37027 12.492 7.21071 13.1601 7.13076 13.8399L6.10567 23.0001H4.9999C4.73468 23.0001 4.48033 23.1054 4.29279 23.293C4.10526 23.4805 3.9999 23.7348 3.9999 24.0001C3.9999 24.2653 4.10526 24.5196 4.29279 24.7072C4.48033 24.8947 4.73468 25.0001 4.9999 25.0001H10.9999C10.9976 26.3062 11.5074 27.5612 12.4198 28.4958C13.3323 29.4304 14.5748 29.97 15.8806 29.999C17.1864 30.028 18.4516 29.5439 19.4046 28.6507C20.3576 27.7575 20.9225 26.5263 20.9781 25.2213L18.7568 23.0001H8.11794ZM15.9999 28.0001C15.2046 27.9992 14.442 27.6828 13.8796 27.1204C13.3172 26.558 13.0008 25.7954 12.9999 25.0001H19.0004C18.9994 25.7955 18.683 26.5581 18.1205 27.1205C17.558 27.6829 16.7954 27.9992 15.9999 28.0001Z" fill="#0F0F0F"/>
</svg>
