<svg width="32" height="32" viewBox="0 0 32 32" fill="none" xmlns="http://www.w3.org/2000/svg">
<path d="M4 16.5H7.5V21C7.5 21.28 7.72 21.5 8 21.5H14C14.28 21.5 14.5 21.28 14.5 21V16.5H17.5V25C17.5 25.28 17.72 25.5 18 25.5H24C24.28 25.5 24.5 25.28 24.5 25V16.5H28C28.28 16.5 28.5 16.28 28.5 16C28.5 15.72 28.28 15.5 28 15.5H24.5V7C24.5 6.72 24.28 6.5 24 6.5H18C17.72 6.5 17.5 6.72 17.5 7V15.5H14.5V11C14.5 10.72 14.28 10.5 14 10.5H8C7.72 10.5 7.5 10.72 7.5 11V15.5H4C3.72 15.5 3.5 15.72 3.5 16C3.5 16.28 3.72 16.5 4 16.5ZM18.5 7.5H23.5V24.5H18.5V7.5ZM8.5 11.5H13.5V20.5H8.5V11.5Z" fill="#0F0F0F"/>
</svg>
