<svg width="32" height="32" viewBox="0 0 32 32" fill="none" xmlns="http://www.w3.org/2000/svg">
<path d="M4 2.5C3.17157 2.5 2.5 3.17157 2.5 4V8C2.5 8.82843 3.17157 9.5 4 9.5H8C8.82843 9.5 9.5 8.82843 9.5 8V4C9.5 3.17157 8.82843 2.5 8 2.5H4Z" fill="#0F0F0F"/>
<path d="M4 12.5C3.17157 12.5 2.5 13.1716 2.5 14V18C2.5 18.8284 3.17157 19.5 4 19.5H8C8.82843 19.5 9.5 18.8284 9.5 18V14C9.5 13.1716 8.82843 12.5 8 12.5H4Z" fill="#0F0F0F"/>
<path d="M4 22.5C3.17157 22.5 2.5 23.1716 2.5 24V28C2.5 28.8284 3.17157 29.5 4 29.5H8C8.82843 29.5 9.5 28.8284 9.5 28V24C9.5 23.1716 8.82843 22.5 8 22.5H4Z" fill="#0F0F0F"/>
<path d="M14 22.5C13.1716 22.5 12.5 23.1716 12.5 24V28C12.5 28.8284 13.1716 29.5 14 29.5H18C18.8284 29.5 19.5 28.8284 19.5 28V24C19.5 23.1716 18.8284 22.5 18 22.5H14Z" fill="#0F0F0F"/>
<path d="M14 12.5C13.1716 12.5 12.5 13.1716 12.5 14V18C12.5 18.8284 13.1716 19.5 14 19.5H18C18.8284 19.5 19.5 18.8284 19.5 18V14C19.5 13.1716 18.8284 12.5 18 12.5H14Z" fill="#0F0F0F"/>
<path d="M14 2.5C13.1716 2.5 12.5 3.17157 12.5 4V8C12.5 8.82843 13.1716 9.5 14 9.5H18C18.8284 9.5 19.5 8.82843 19.5 8V4C19.5 3.17157 18.8284 2.5 18 2.5H14Z" fill="#0F0F0F"/>
<path d="M24 22.5C23.1716 22.5 22.5 23.1716 22.5 24V28C22.5 28.8284 23.1716 29.5 24 29.5H28C28.8284 29.5 29.5 28.8284 29.5 28V24C29.5 23.1716 28.8284 22.5 28 22.5H24Z" fill="#0F0F0F"/>
<path d="M24 12.5C23.1716 12.5 22.5 13.1716 22.5 14V18C22.5 18.8284 23.1716 19.5 24 19.5H28C28.8284 19.5 29.5 18.8284 29.5 18V14C29.5 13.1716 28.8284 12.5 28 12.5H24Z" fill="#0F0F0F"/>
<path d="M24 2.5C23.1716 2.5 22.5 3.17157 22.5 4V8C22.5 8.82843 23.1716 9.5 24 9.5H28C28.8284 9.5 29.5 8.82843 29.5 8V4C29.5 3.17157 28.8284 2.5 28 2.5H24Z" fill="#0F0F0F"/>
</svg>
