<svg width="32" height="32" viewBox="0 0 32 32" fill="none" xmlns="http://www.w3.org/2000/svg">
<path d="M4 2C2.89543 2 2 2.89543 2 4V8C2 9.10457 2.89543 10 4 10H8C9.10457 10 10 9.10457 10 8V4C10 2.89543 9.10457 2 8 2H4ZM4 4H8V8H4V4Z" fill="#0F0F0F"/>
<path d="M2 14C2 12.8954 2.89543 12 4 12H8C9.10457 12 10 12.8954 10 14V18C10 19.1046 9.10457 20 8 20H4C2.89543 20 2 19.1046 2 18V14ZM8 14H4V18H8V14Z" fill="#0F0F0F"/>
<path d="M2 24C2 22.8954 2.89543 22 4 22H8C9.10457 22 10 22.8954 10 24V28C10 29.1046 9.10457 30 8 30H4C2.89543 30 2 29.1046 2 28V24ZM8 24H4V28H8V24Z" fill="#0F0F0F"/>
<path d="M12 24C12 22.8954 12.8954 22 14 22H18C19.1046 22 20 22.8954 20 24V28C20 29.1046 19.1046 30 18 30H14C12.8954 30 12 29.1046 12 28V24ZM18 24H14V28H18V24Z" fill="#0F0F0F"/>
<path d="M14 12C12.8954 12 12 12.8954 12 14V18C12 19.1046 12.8954 20 14 20H18C19.1046 20 20 19.1046 20 18V14C20 12.8954 19.1046 12 18 12H14ZM14 14H18V18H14V14Z" fill="#0F0F0F"/>
<path d="M12 4C12 2.89543 12.8954 2 14 2H18C19.1046 2 20 2.89543 20 4V8C20 9.10457 19.1046 10 18 10H14C12.8954 10 12 9.10457 12 8V4ZM18 4H14V8H18V4Z" fill="#0F0F0F"/>
<path d="M24 22C22.8954 22 22 22.8954 22 24V28C22 29.1046 22.8954 30 24 30H28C29.1046 30 30 29.1046 30 28V24C30 22.8954 29.1046 22 28 22H24ZM24 24H28V28H24V24Z" fill="#0F0F0F"/>
<path d="M22 14C22 12.8954 22.8954 12 24 12H28C29.1046 12 30 12.8954 30 14V18C30 19.1046 29.1046 20 28 20H24C22.8954 20 22 19.1046 22 18V14ZM28 14H24V18H28V14Z" fill="#0F0F0F"/>
<path d="M24 2C22.8954 2 22 2.89543 22 4V8C22 9.10457 22.8954 10 24 10H28C29.1046 10 30 9.10457 30 8V4C30 2.89543 29.1046 2 28 2H24ZM24 4H28V8H24V4Z" fill="#0F0F0F"/>
</svg>
