<svg width="32" height="32" viewBox="0 0 32 32" fill="none" xmlns="http://www.w3.org/2000/svg">
<path d="M4 2.25C3.0335 2.25 2.25 3.0335 2.25 4V8C2.25 8.9665 3.0335 9.75 4 9.75H8C8.9665 9.75 9.75 8.9665 9.75 8V4C9.75 3.0335 8.9665 2.25 8 2.25H4ZM3.75 4C3.75 3.86193 3.86193 3.75 4 3.75H8C8.13807 3.75 8.25 3.86193 8.25 4V8C8.25 8.13807 8.13807 8.25 8 8.25H4C3.86193 8.25 3.75 8.13807 3.75 8V4Z" fill="#0F0F0F"/>
<path d="M2.25 14C2.25 13.0335 3.0335 12.25 4 12.25H8C8.9665 12.25 9.75 13.0335 9.75 14V18C9.75 18.9665 8.9665 19.75 8 19.75H4C3.0335 19.75 2.25 18.9665 2.25 18V14ZM4 13.75C3.86193 13.75 3.75 13.8619 3.75 14V18C3.75 18.1381 3.86193 18.25 4 18.25H8C8.13807 18.25 8.25 18.1381 8.25 18V14C8.25 13.8619 8.13807 13.75 8 13.75H4Z" fill="#0F0F0F"/>
<path d="M2.25 24C2.25 23.0335 3.0335 22.25 4 22.25H8C8.9665 22.25 9.75 23.0335 9.75 24V28C9.75 28.9665 8.9665 29.75 8 29.75H4C3.0335 29.75 2.25 28.9665 2.25 28V24ZM4 23.75C3.86193 23.75 3.75 23.8619 3.75 24V28C3.75 28.1381 3.86193 28.25 4 28.25H8C8.13807 28.25 8.25 28.1381 8.25 28V24C8.25 23.8619 8.13807 23.75 8 23.75H4Z" fill="#0F0F0F"/>
<path d="M12.25 24C12.25 23.0335 13.0335 22.25 14 22.25H18C18.9665 22.25 19.75 23.0335 19.75 24V28C19.75 28.9665 18.9665 29.75 18 29.75H14C13.0335 29.75 12.25 28.9665 12.25 28V24ZM14 23.75C13.8619 23.75 13.75 23.8619 13.75 24V28C13.75 28.1381 13.8619 28.25 14 28.25H18C18.1381 28.25 18.25 28.1381 18.25 28V24C18.25 23.8619 18.1381 23.75 18 23.75H14Z" fill="#0F0F0F"/>
<path d="M14 12.25C13.0335 12.25 12.25 13.0335 12.25 14V18C12.25 18.9665 13.0335 19.75 14 19.75H18C18.9665 19.75 19.75 18.9665 19.75 18V14C19.75 13.0335 18.9665 12.25 18 12.25H14ZM13.75 14C13.75 13.8619 13.8619 13.75 14 13.75H18C18.1381 13.75 18.25 13.8619 18.25 14V18C18.25 18.1381 18.1381 18.25 18 18.25H14C13.8619 18.25 13.75 18.1381 13.75 18V14Z" fill="#0F0F0F"/>
<path d="M12.25 4C12.25 3.0335 13.0335 2.25 14 2.25H18C18.9665 2.25 19.75 3.0335 19.75 4V8C19.75 8.9665 18.9665 9.75 18 9.75H14C13.0335 9.75 12.25 8.9665 12.25 8V4ZM14 3.75C13.8619 3.75 13.75 3.86193 13.75 4V8C13.75 8.13807 13.8619 8.25 14 8.25H18C18.1381 8.25 18.25 8.13807 18.25 8V4C18.25 3.86193 18.1381 3.75 18 3.75H14Z" fill="#0F0F0F"/>
<path d="M24 22.25C23.0335 22.25 22.25 23.0335 22.25 24V28C22.25 28.9665 23.0335 29.75 24 29.75H28C28.9665 29.75 29.75 28.9665 29.75 28V24C29.75 23.0335 28.9665 22.25 28 22.25H24ZM23.75 24C23.75 23.8619 23.8619 23.75 24 23.75H28C28.1381 23.75 28.25 23.8619 28.25 24V28C28.25 28.1381 28.1381 28.25 28 28.25H24C23.8619 28.25 23.75 28.1381 23.75 28V24Z" fill="#0F0F0F"/>
<path d="M22.25 14C22.25 13.0335 23.0335 12.25 24 12.25H28C28.9665 12.25 29.75 13.0335 29.75 14V18C29.75 18.9665 28.9665 19.75 28 19.75H24C23.0335 19.75 22.25 18.9665 22.25 18V14ZM24 13.75C23.8619 13.75 23.75 13.8619 23.75 14V18C23.75 18.1381 23.8619 18.25 24 18.25H28C28.1381 18.25 28.25 18.1381 28.25 18V14C28.25 13.8619 28.1381 13.75 28 13.75H24Z" fill="#0F0F0F"/>
<path d="M24 2.25C23.0335 2.25 22.25 3.0335 22.25 4V8C22.25 8.9665 23.0335 9.75 24 9.75H28C28.9665 9.75 29.75 8.9665 29.75 8V4C29.75 3.0335 28.9665 2.25 28 2.25H24ZM23.75 4C23.75 3.86193 23.8619 3.75 24 3.75H28C28.1381 3.75 28.25 3.86193 28.25 4V8C28.25 8.13807 28.1381 8.25 28 8.25H24C23.8619 8.25 23.75 8.13807 23.75 8V4Z" fill="#0F0F0F"/>
</svg>
