<svg width="32" height="32" viewBox="0 0 32 32" fill="none" xmlns="http://www.w3.org/2000/svg">
<path d="M7.00125 6C6.073 6 5.18282 6.36874 4.52644 7.02512C3.87005 7.68151 3.50125 8.57176 3.50125 9.5V19.4998C3.50199 20.158 3.68823 20.8027 4.03872 21.3597C4.38928 21.9169 4.88987 22.364 5.48302 22.6495L5.53229 22.6731C5.7058 22.7563 5.81619 22.9316 5.81619 23.124V23.181C5.81619 23.2627 5.79615 23.3432 5.75783 23.4154C5.27454 24.3258 4.55638 25.0902 3.67773 25.6292C3.67122 25.6332 3.66463 25.637 3.65795 25.6407C3.62568 25.6585 3.59911 25.6749 3.57732 25.6894C3.62859 25.721 3.70129 25.7579 3.80076 25.7954C3.98425 25.8646 4.22669 25.9239 4.51884 25.9596C5.69795 26.1037 7.49947 25.8435 9.06142 24.6604L9.07504 24.6505C9.22129 24.5473 9.39172 24.4044 9.58725 24.2347C9.63438 24.1937 9.68307 24.1512 9.73284 24.1076L9.7356 24.1052C9.88389 23.9756 10.042 23.8373 10.1964 23.7098C10.4039 23.5385 10.6273 23.3674 10.8486 23.2385C11.0567 23.1174 11.3259 22.9953 11.614 23H25.0013C25.9295 23 26.8197 22.6313 27.4761 21.9749C28.1325 21.3185 28.5013 20.4282 28.5013 19.5V9.5C28.5013 8.57176 28.1325 7.68151 27.4761 7.02512C26.8197 6.36874 25.9295 6 25.0013 6H7.00125ZM3.81933 6.31802C4.66324 5.47411 5.80777 5 7.00125 5H25.0013C26.1947 5 27.3393 5.47411 28.1832 6.31802C29.0271 7.16192 29.5013 8.30651 29.5013 9.5V19.5C29.5013 20.6935 29.0271 21.8381 28.1832 22.682C27.3393 23.5259 26.1947 24 25.0013 24H11.5975C11.5975 24 11.5787 23.9996 11.5319 24.0158C11.4858 24.0318 11.4261 24.0594 11.3518 24.1027C11.2014 24.1903 11.0275 24.3204 10.8331 24.4809C10.6905 24.5987 10.5485 24.7228 10.4032 24.8499C10.3503 24.8961 10.2968 24.9429 10.2428 24.9898C10.05 25.1572 9.84833 25.328 9.65862 25.4626C7.86609 26.8172 5.79995 27.1236 4.39751 26.9522C4.04385 26.909 3.72096 26.8341 3.44777 26.731C3.18282 26.6311 2.92708 26.4905 2.7469 26.293C2.55277 26.0802 2.42488 25.7661 2.54733 25.4192C2.65157 25.1238 2.90221 24.9175 3.16378 24.7713C3.75897 24.4044 4.26467 23.9122 4.64687 23.3309C4.05974 22.9705 3.56136 22.4789 3.19231 21.8923C2.74156 21.1758 2.50213 20.3469 2.50125 19.5005L2.50125 9.5C2.50125 8.30651 2.97543 7.16192 3.81933 6.31802ZM14.3533 8.14639C14.5486 8.34161 14.5487 8.6582 14.3535 8.85349L12.2077 11H19.9997C20.2759 11 20.4997 11.2239 20.4997 11.5C20.4997 11.7761 20.2759 12 19.9997 12H12.2062L14.3533 14.1464C14.5486 14.3416 14.5487 14.6582 14.3535 14.8535C14.1582 15.0488 13.8417 15.0488 13.6464 14.8536L10.6464 11.8547C10.5526 11.7609 10.4999 11.6337 10.4999 11.5011C10.4998 11.3685 10.5525 11.2413 10.6462 11.1475L13.6462 8.14651C13.8415 7.95121 14.1581 7.95116 14.3533 8.14639ZM17.6463 14.1464C17.8416 13.9512 18.1581 13.9512 18.3534 14.1464L21.3534 17.1464C21.5487 17.3417 21.5487 17.6583 21.3534 17.8536L18.3534 20.8536C18.1581 21.0488 17.8416 21.0488 17.6463 20.8536C17.451 20.6583 17.451 20.3417 17.6463 20.1464L19.7928 18H11.9999C11.7237 18 11.4999 17.7761 11.4999 17.5C11.4999 17.2239 11.7237 17 11.9999 17H19.7928L17.6463 14.8536C17.451 14.6583 17.451 14.3417 17.6463 14.1464Z" fill="#0F0F0F"/>
</svg>
