<svg width="32" height="32" viewBox="0 0 32 32" fill="none" xmlns="http://www.w3.org/2000/svg">
<path d="M7.00107 6.25C6.13913 6.25 5.31253 6.5924 4.70303 7.2019C4.09352 7.81141 3.75107 8.63807 3.75107 9.5V19.4996C3.75178 20.1108 3.92472 20.7094 4.25014 21.2266C4.57566 21.744 5.0405 22.1591 5.59128 22.4242L5.64016 22.4477C5.90042 22.5724 6.06601 22.8354 6.06601 23.124V23.181C6.06601 23.3036 6.03595 23.4244 5.97846 23.5327C5.53356 24.3707 4.89787 25.0903 4.1247 25.6342C4.24704 25.6651 4.38891 25.6919 4.549 25.7114C5.67184 25.8487 7.40637 25.6003 8.91029 24.4612L8.92273 24.4519L8.93073 24.4462C9.0656 24.3511 9.22756 24.2157 9.42317 24.0459C9.46967 24.0055 9.51828 23.963 9.56833 23.9192C9.71731 23.789 9.8796 23.647 10.037 23.517C10.2478 23.343 10.4836 23.1617 10.7226 23.0225C10.942 22.8947 11.2591 22.7448 11.6157 22.75H25.0011C25.863 22.75 26.6896 22.4076 27.2991 21.7981C27.9086 21.1886 28.2511 20.3619 28.2511 19.5V9.5C28.2511 8.63807 27.9086 7.81141 27.2991 7.2019C26.6896 6.5924 25.863 6.25 25.0011 6.25H7.00107ZM3.64237 6.14124C4.53316 5.25045 5.74128 4.75 7.00107 4.75H25.0011C26.2609 4.75 27.469 5.25045 28.3598 6.14124C29.2506 7.03202 29.7511 8.24019 29.7511 9.5V19.5C29.7511 20.7598 29.2506 21.968 28.3598 22.8588C27.469 23.7496 26.2609 24.25 25.0011 24.25H11.6195C11.6072 24.2542 11.5617 24.2697 11.4774 24.3187C11.3447 24.396 11.1833 24.5159 10.9921 24.6737C10.8525 24.789 10.7145 24.9096 10.5702 25.0358C10.5168 25.0825 10.4621 25.1304 10.4066 25.1786C10.2148 25.345 10.0061 25.5222 9.80618 25.6643C7.95636 27.0609 5.82485 27.3785 4.367 27.2003C3.99796 27.1552 3.65495 27.0764 3.35934 26.9649C3.07608 26.8581 2.77948 26.6999 2.56202 26.4615C2.32362 26.2001 2.15038 25.7922 2.3114 25.336C2.44461 24.9586 2.75513 24.714 3.03677 24.5558C3.52732 24.2527 3.95356 23.8596 4.29424 23.3992C3.77034 23.0359 3.32275 22.5693 2.98052 22.0254C2.50472 21.2692 2.252 20.3941 2.25107 19.5008L2.25107 9.5C2.25107 8.24019 2.7516 7.03202 3.64237 6.14124ZM14.5299 7.96958C14.8229 8.26242 14.8229 8.73729 14.5301 9.03024L12.8109 10.75H19.9996C20.4138 10.75 20.7496 11.0858 20.7496 11.5C20.7496 11.9142 20.4138 12.25 19.9996 12.25H12.8097L14.5299 13.9696C14.8229 14.2624 14.8229 14.7373 14.5301 15.0302C14.2373 15.3232 13.7624 15.3233 13.4694 15.0304L10.4694 12.0315C10.3288 11.8908 10.2497 11.7001 10.2497 11.5012C10.2496 11.3023 10.3286 11.1115 10.4693 10.9708L13.4693 7.96976C13.7621 7.67682 14.237 7.67674 14.5299 7.96958ZM17.4693 13.9697C17.7622 13.6768 18.2371 13.6768 18.53 13.9697L21.53 16.9697C21.8229 17.2626 21.8229 17.7374 21.53 18.0303L18.53 21.0303C18.2371 21.3232 17.7622 21.3232 17.4693 21.0303C17.1765 20.7374 17.1765 20.2626 17.4693 19.9697L19.189 18.25H11.9997C11.5855 18.25 11.2497 17.9142 11.2497 17.5C11.2497 17.0858 11.5855 16.75 11.9997 16.75H19.189L17.4693 15.0303C17.1765 14.7374 17.1765 14.2626 17.4693 13.9697Z" fill="#0F0F0F"/>
</svg>
