<svg width="32" height="32" viewBox="0 0 32 32" fill="none" xmlns="http://www.w3.org/2000/svg">
<path d="M17.293 14.293C17.6835 13.9026 18.3165 13.9025 18.707 14.293L21.707 17.293C22.0974 17.6835 22.0974 18.3165 21.707 18.707L18.707 21.707C18.3165 22.0975 17.6835 22.0974 17.293 21.707C16.9024 21.3165 16.9024 20.6835 17.293 20.293L18.5859 19H12C11.4477 19 11 18.5523 11 18C11 17.4477 11.4477 17 12 17H18.5859L17.293 15.707C16.9024 15.3165 16.9024 14.6835 17.293 14.293Z" fill="#0F0F0F"/>
<path d="M13.293 8.29297C13.6834 7.90262 14.3165 7.90259 14.707 8.29297C15.0974 8.68345 15.0974 9.31652 14.707 9.70703L13.4141 11H20C20.5521 11.0002 21 11.4478 21 12C21 12.5522 20.5521 12.9998 20 13H13.4131L14.707 14.293C15.0974 14.6834 15.0974 15.3165 14.707 15.707C14.3166 16.0976 13.6836 16.0975 13.293 15.707L10.293 12.708C10.1054 12.5205 10 12.2662 10 12.001C10 11.7358 10.1055 11.4815 10.293 11.2939L13.293 8.29297Z" fill="#0F0F0F"/>
<path d="M27.4561 3.75488C29.5694 3.86211 31.25 5.60996 31.25 7.75V21.75C31.25 23.89 29.5694 25.6379 27.4561 25.7451L27.25 25.75H12.8516L7.6875 29.8818C6.70501 30.6669 5.251 29.9668 5.25 28.7109V25.75C3.10996 25.75 1.36211 24.0694 1.25488 21.9561L1.25 21.75V7.75C1.25 5.54086 3.04086 3.75 5.25 3.75H27.25L27.4561 3.75488ZM5.25 5.75C4.14543 5.75 3.25 6.64543 3.25 7.75V21.75L3.26074 21.9541C3.363 22.9628 4.21435 23.75 5.25 23.75H6.25C6.80228 23.75 7.25 24.1977 7.25 24.75V27.6689L11.875 23.9688L12.0156 23.875C12.1631 23.7934 12.3297 23.75 12.5 23.75H27.25L27.4541 23.7393C28.4628 23.637 29.25 22.7857 29.25 21.75V7.75L29.2393 7.5459C29.1438 6.60435 28.3957 5.8562 27.4541 5.76074L27.25 5.75H5.25Z" fill="#0F0F0F"/>
</svg>
