<svg width="32" height="32" viewBox="0 0 32 32" fill="none" xmlns="http://www.w3.org/2000/svg">
<path d="M18.7305 3.3877C18.6387 3.792 18.2383 4.0439 17.834 3.9541C17.2344 3.8183 16.6172 3.75 16 3.75C11.4512 3.75 7.75 7.4512 7.75 12V19C7.75 19.4141 7.4141 19.75 7 19.75C4.3809 19.75 2.25 17.6191 2.25 15C2.25 12.6005 4.0586 10.6113 6.3994 10.2939C7.208 5.7285 11.2061 2.25 16 2.25C16.7285 2.25 17.4571 2.331 18.1641 2.4912C18.5684 2.582 18.8223 2.9844 18.7305 3.3877ZM3.75 14.9999C3.75 16.5341 4.8184 17.8232 6.25 18.163L6.251 11.8466C4.8164 12.2011 3.75 13.4804 3.75 14.9999Z" fill="#0F0F0F"/>
<path d="M28.251 15C28.251 14.5859 28.5869 14.25 29.001 14.25C29.415 14.25 29.751 14.5859 29.7511 15.0001C29.7511 15.4044 29.7003 15.8038 29.5997 16.1856C29.1074 18.0712 27.5088 19.436 25.5996 19.6956C24.9519 23.3666 22.2426 26.3326 18.7139 27.358C18.5364 28.7043 17.3941 29.7501 16.0001 29.7501C14.4835 29.7501 13.2501 28.5167 13.2501 27.0001C13.2501 25.4835 14.4835 24.2501 16.0001 24.2501C17.1097 24.2501 18.062 24.9135 18.4963 25.8618C21.8284 24.8012 24.2501 21.6789 24.2501 18.0001V17.0001C24.2501 16.586 24.586 16.2501 25.0001 16.2501C25.4142 16.2501 25.7501 16.586 25.7501 17.0001V18.0001C25.7501 18.0258 25.7486 18.051 25.7471 18.0763C25.7457 18.0983 25.7444 18.1204 25.7441 18.1426C26.9009 17.8582 27.8412 16.9823 28.1485 15.8057C28.2158 15.5498 28.251 15.2715 28.251 15ZM14.75 27C14.75 27.6895 15.3105 28.25 16 28.25C16.6894 28.25 17.25 27.6895 17.25 27C17.25 26.3105 16.6895 25.75 16 25.75C15.3105 25.75 14.75 26.3105 14.75 27Z" fill="#0F0F0F"/>
<path d="M23.3891 4.24111C23.302 3.93192 23.0277 3.71252 22.7069 3.69552C22.3861 3.67851 22.0902 3.86767 21.9709 4.16592L20.3817 8.13891H17.7783C17.3641 8.13891 17.0283 8.4747 17.0283 8.88891C17.0283 9.30312 17.3641 9.63891 17.7783 9.63891H20.8894C21.1961 9.63891 21.4719 9.4522 21.5858 9.16745L22.5438 6.77245L24.1675 12.5367C24.251 12.8332 24.5074 13.0485 24.8139 13.0795C25.1203 13.1106 25.4146 12.9511 25.5559 12.6773L27.1241 9.63891H29.7783C30.1925 9.63891 30.5283 9.30312 30.5283 8.88891C30.5283 8.4747 30.1925 8.13891 29.7783 8.13891H26.6672C26.3866 8.13891 26.1294 8.29556 26.0007 8.54493L25.0955 10.2988L23.3891 4.24111Z" fill="#0F0F0F"/>
</svg>
