<svg width="32" height="32" viewBox="0 0 32 32" fill="none" xmlns="http://www.w3.org/2000/svg">
<path d="M26.0001 4.25038H24.0001C23.5361 4.25095 23.0913 4.4355 22.7632 4.76357C22.4352 5.09163 22.2506 5.53643 22.2501 6.00038V22.0004C22.2506 22.4643 22.4352 22.9091 22.7632 23.2372C23.0913 23.5653 23.5361 23.7498 24.0001 23.7504H26.0001C26.464 23.7498 26.9088 23.5653 27.2369 23.2372C27.5649 22.9091 27.7495 22.4643 27.7501 22.0004V6.00038C27.7495 5.53643 27.5649 5.09163 27.2369 4.76357C26.9088 4.4355 26.464 4.25095 26.0001 4.25038ZM26.2501 22.0004C26.2499 22.0666 26.2236 22.1302 26.1767 22.177C26.1298 22.2239 26.0663 22.2503 26.0001 22.2504H24.0001C23.9338 22.2503 23.8703 22.2239 23.8234 22.177C23.7766 22.1302 23.7502 22.0666 23.7501 22.0004V6.00038C23.7502 5.93412 23.7766 5.8706 23.8234 5.82374C23.8703 5.77689 23.9338 5.75051 24.0001 5.75038H26.0001C26.0663 5.75051 26.1298 5.77689 26.1767 5.82375C26.2236 5.8706 26.2499 5.93412 26.2501 6.00038V22.0004Z" fill="#0F0F0F"/>
<path d="M15.0001 23.7504H17.0001C17.464 23.7498 17.9088 23.5653 18.2369 23.2372C18.5649 22.9091 18.7495 22.4643 18.7501 22.0004V14.0004C18.7495 13.5364 18.5649 13.0916 18.2369 12.7636C17.9088 12.4355 17.464 12.2509 17.0001 12.2504H15.0001C14.5361 12.2509 14.0913 12.4355 13.7632 12.7636C13.4352 13.0916 13.2506 13.5364 13.2501 14.0004V22.0004C13.2506 22.4643 13.4352 22.9091 13.7632 23.2372C14.0913 23.5653 14.5361 23.7498 15.0001 23.7504ZM14.7501 14.0004C14.7502 13.9341 14.7766 13.8706 14.8234 13.8237C14.8703 13.7769 14.9338 13.7505 15.0001 13.7504H17.0001C17.0663 13.7505 17.1298 13.7769 17.1767 13.8237C17.2236 13.8706 17.2499 13.9341 17.2501 14.0004V22.0004C17.2499 22.0666 17.2236 22.1302 17.1767 22.177C17.1298 22.2239 17.0663 22.2503 17.0001 22.2504H15.0001C14.9338 22.2503 14.8703 22.2239 14.8234 22.177C14.7766 22.1302 14.7502 22.0666 14.7501 22.0004V14.0004Z" fill="#0F0F0F"/>
<path d="M6.0069 23.7504H8.0069C8.47086 23.7498 8.91565 23.5653 9.24372 23.2372C9.57179 22.9091 9.75634 22.4643 9.7569 22.0004V9.00038C9.75634 8.53643 9.57178 8.09163 9.24372 7.76357C8.91565 7.4355 8.47086 7.25095 8.0069 7.25038H6.0069C5.54294 7.25094 5.09815 7.4355 4.77008 7.76356C4.44202 8.09163 4.25746 8.53642 4.2569 9.00038V22.0004C4.25746 22.4643 4.44201 22.9091 4.77008 23.2372C5.09815 23.5653 5.54294 23.7498 6.0069 23.7504ZM5.7569 9.00038C5.75703 8.93412 5.78341 8.8706 5.83026 8.82375C5.87712 8.77689 5.94064 8.75051 6.0069 8.75038H8.0069C8.07317 8.75051 8.13668 8.77689 8.18353 8.82375C8.23039 8.8706 8.25677 8.93412 8.2569 9.00038V22.0004C8.25677 22.0666 8.23039 22.1302 8.18354 22.177C8.13668 22.2239 8.07317 22.2503 8.0069 22.2504H6.0069C5.94064 22.2503 5.87712 22.2239 5.83026 22.177C5.78341 22.1302 5.75703 22.0666 5.7569 22.0004V9.00038Z" fill="#0F0F0F"/>
<path d="M27.0001 26.2494H5.00006C4.80115 26.2494 4.61038 26.3284 4.46973 26.4691C4.32908 26.6097 4.25006 26.8005 4.25006 26.9994C4.25006 27.1983 4.32908 27.3891 4.46973 27.5297C4.61038 27.6704 4.80115 27.7494 5.00006 27.7494H27.0001C27.199 27.7494 27.3897 27.6704 27.5304 27.5297C27.671 27.3891 27.7501 27.1983 27.7501 26.9994C27.7501 26.8005 27.671 26.6097 27.5304 26.4691C27.3897 26.3284 27.199 26.2494 27.0001 26.2494Z" fill="#0F0F0F"/>
</svg>
