<svg width="32" height="32" viewBox="0 0 32 32" fill="none" xmlns="http://www.w3.org/2000/svg">
<path d="M2.87305 16.8799V15.001C2.87305 11.9795 4.53613 10.3672 7.67188 10.3672H12.001C15.6699 9.97363 20.2783 8.67871 23.6553 6.5459C23.8457 5.16211 24.8867 4.26074 26.3721 4.26074C28.0225 4.26074 29.127 5.35254 29.127 7.00293V24.8145C29.127 26.4648 28.0225 27.5693 26.3721 27.5693C24.9121 27.5693 23.8838 26.6934 23.668 25.3477C20.7734 23.5576 17.2949 22.3896 13.9053 21.8057L14.7686 26.2871C15.0732 27.8613 14.375 28.8896 13.2451 29.2451C12.1025 29.5879 10.5156 29.4355 9.56348 27.3408L6.92285 21.4883C4.26953 21.2344 2.87305 19.6348 2.87305 16.8799ZM25.293 24.8145C25.293 25.4746 25.7246 25.9062 26.3721 25.9062C27.0322 25.9062 27.4639 25.4746 27.4639 24.8145V7.00293C27.4639 6.35547 27.0322 5.91113 26.3721 5.91113C25.7246 5.91113 25.293 6.35547 25.293 7.00293V24.8145ZM12.2041 19.9014C16.2793 20.3584 20.3164 21.4502 23.6299 23.4688V8.41211C20.3799 10.3926 16.3174 11.5098 12.2041 11.9795V19.9014ZM7.67188 19.8633H10.541V12.0176H7.67188C5.48828 12.0176 4.53613 12.9189 4.53613 15.001V16.8799C4.53613 18.9619 5.48828 19.8633 7.67188 19.8633ZM11.2139 27.0615C11.5312 27.7598 12.1533 27.8994 12.6357 27.7344C13.0674 27.582 13.3848 27.1758 13.2705 26.541L12.293 21.5645C12.1787 21.5518 12.0645 21.5264 11.9502 21.5137H8.63672L11.2139 27.0615Z" fill="black"/>
</svg>
