<svg width="32" height="32" viewBox="0 0 32 32" fill="none" xmlns="http://www.w3.org/2000/svg">
<path d="M8.40039 24.5225C2.62402 18.7461 2.06543 10.2021 6.62305 5.63184C10.457 1.79785 16.9316 2.07715 21.7432 4.89551L20.7021 5.91113C16.5762 3.67676 10.9775 3.27051 7.61328 6.62207C3.5 10.748 4.3252 18.4414 9.39062 23.5322C12.5771 26.7441 17.0713 27.6836 19.0264 27.8613C19.5215 27.9248 19.75 28.293 19.7119 28.6357C19.6865 28.9658 19.3945 29.2959 18.8613 29.2451C16.7412 29.0928 11.9678 28.0898 8.40039 24.5225ZM26.999 6.36816L25.3232 4.67969L26.2881 3.71484C26.7451 3.27051 27.3418 3.25781 27.7734 3.65137L28.002 3.86719C28.4717 4.32422 28.4463 4.9209 27.9639 5.40332L26.999 6.36816ZM14.6719 18.6699L12.2471 19.749C12.0186 19.8379 11.7646 19.5967 11.8789 19.3682L13.0088 16.9814L24.4473 5.56836L26.1104 7.24414L14.6719 18.6699ZM13.2627 20.7646L14.7734 20.1172C18.2266 23.4561 23.3428 24.8145 26.4023 21.7549C28.9033 19.2412 28.4463 14.7979 25.793 10.9004L26.7959 9.88477C29.9443 14.3408 30.3887 19.7363 27.3799 22.7451C23.7236 26.4141 17.1475 24.7891 13.2627 20.7646Z" fill="black"/>
</svg>
