<svg width="32" height="32" viewBox="0 0 32 32" fill="none" xmlns="http://www.w3.org/2000/svg">
<path d="M2.10002 16H24.9C24.4367 13.7178 22.419 12 20 12H7C4.58104 12 2.56329 13.7178 2.10002 16Z" fill="#0F0F0F"/>
<path d="M25 18H2V25C2 27.7614 4.23858 30 7 30H20C22.7614 30 25 27.7614 25 25V18Z" fill="#0F0F0F"/>
<path d="M29.9 6H8.10002C8.56329 3.71776 10.581 2 13 2H25C27.419 2 29.4367 3.71776 29.9 6Z" fill="#0F0F0F"/>
<path d="M8 8H30V15C30 17.0503 28.7659 18.8124 27 19.584V17C27 13.134 23.866 10 20 10H8V8Z" fill="#0F0F0F"/>
</svg>
