<svg width="32" height="32" viewBox="0 0 32 32" fill="none" xmlns="http://www.w3.org/2000/svg">
<path d="M13.9968 7.05523C13.9709 7.28766 13.7875 7.47114 13.555 7.49696C11.1686 7.76211 9.47784 6.97069 8.59982 5.80001C7.7396 4.65304 7.6779 3.11484 8.64627 2.14646C9.61464 1.17809 11.1529 1.23979 12.2998 2.10001C13.4705 2.97803 14.2619 4.66877 13.9968 7.05523ZM9.35337 2.85357C8.82174 3.3852 8.76005 4.34698 9.39982 5.20001C9.98082 5.97467 11.1615 6.64399 13.0372 6.53744C13.1438 4.66171 12.4745 3.48102 11.6998 2.90001C10.8468 2.26024 9.885 2.32194 9.35337 2.85357Z" fill="#0F0F0F"/>
<path d="M15.4801 11.4794C15.5175 10.6874 15.6704 9.74308 16.0183 8.80166C16.5463 7.37316 17.5351 5.92332 19.2762 5.05277C19.5232 4.92928 19.8235 5.02939 19.947 5.27638C20.0705 5.52337 19.9704 5.82371 19.7234 5.9472C18.2645 6.67666 17.4201 7.89349 16.9563 9.14831C16.6495 9.97867 16.5146 10.8134 16.48 11.5055C18.5557 10.1253 21.3052 9.71106 23.5688 10.6642C26.2043 11.7738 28.0129 14.6519 27.4971 19.5523C27.079 23.5243 25.2773 26.8931 23.0273 28.8934C20.885 30.7981 18.2138 31.5369 15.9998 30.109C13.7858 31.5369 11.1147 30.7981 8.97232 28.8934C6.72235 26.8931 4.92067 23.5243 4.50257 19.5523C3.98674 14.6519 5.79537 11.7738 8.43079 10.6642C10.6801 9.71711 13.409 10.1201 15.4801 11.4794ZM15.6699 12.8757C13.7954 11.236 10.9959 10.6692 8.81885 11.5858C6.70427 12.4762 5.0129 14.848 5.49707 19.4476C5.89154 23.1951 7.58986 26.3263 9.63675 28.1461C11.6936 29.9747 13.9691 30.398 15.6998 29.1C15.8776 28.9666 16.122 28.9666 16.2998 29.1C18.0306 30.398 20.3061 29.9747 22.3629 28.1461C24.4098 26.3263 26.1081 23.1951 26.5026 19.4476C26.9867 14.848 25.2954 12.4762 23.1808 11.5858C21.0052 10.6698 18.2081 11.2352 16.3337 12.8722C16.267 12.9322 16.1837 12.9747 16.0904 12.9917C16.0739 12.9948 16.0574 12.997 16.0407 12.9983C15.9513 13.0057 15.8652 12.989 15.7891 12.9535C15.747 12.9339 15.7063 12.9076 15.6699 12.8757Z" fill="#0F0F0F"/>
</svg>
