<svg width="32" height="32" viewBox="0 0 32 32" fill="none" xmlns="http://www.w3.org/2000/svg">
<path d="M15.9873 22.7197C16.2539 22.7197 16.4951 22.6055 16.6855 22.4023L26.3086 12.2715C26.4736 12.1064 26.5752 11.9033 26.5752 11.6494C26.5752 11.1543 26.1943 10.7734 25.6992 10.7734C25.4707 10.7734 25.2295 10.8623 25.0645 11.0273L16 20.5742L6.91016 11.0273C6.75781 10.8623 6.5293 10.7734 6.28809 10.7734C5.79297 10.7734 5.41211 11.1543 5.41211 11.6494C5.41211 11.9033 5.51367 12.1064 5.67871 12.2842L15.3018 22.415C15.5049 22.6055 15.7207 22.7197 15.9873 22.7197Z" fill="black"/>
</svg>
