<svg width="32" height="32" viewBox="0 0 32 32" fill="none" xmlns="http://www.w3.org/2000/svg">
<path d="M24.53 15.47L12.53 3.47C12.4611 3.39719 12.3783 3.33893 12.2865 3.29866C12.1947 3.2584 12.0957 3.23695 11.9955 3.23558C11.8952 3.23421 11.7957 3.25295 11.7029 3.29069C11.61 3.32843 11.5256 3.3844 11.4548 3.4553C11.3839 3.5262 11.328 3.61059 11.2903 3.70348C11.2526 3.79637 11.2339 3.89588 11.2353 3.99611C11.2367 4.09635 11.2582 4.19529 11.2985 4.28707C11.3388 4.37886 11.3971 4.46163 11.47 4.5305L22.94 16L11.47 27.47C11.3971 27.5389 11.3388 27.6216 11.2985 27.7134C11.2582 27.8052 11.2367 27.9042 11.2353 28.0044C11.2339 28.1046 11.2526 28.2041 11.2903 28.297C11.328 28.3899 11.3839 28.4743 11.4548 28.5452C11.5256 28.6161 11.61 28.6721 11.7029 28.7098C11.7957 28.7476 11.8952 28.7663 11.9955 28.7649C12.0957 28.7636 12.1947 28.7421 12.2865 28.7018C12.3783 28.6616 12.4611 28.6033 12.53 28.5305L24.53 16.5305C24.6706 16.3899 24.7496 16.1991 24.7496 16.0003C24.7496 15.8014 24.6706 15.6106 24.53 15.47Z" fill="#0F0F0F"/>
</svg>
