<svg width="32" height="32" viewBox="0 0 32 32" fill="none" xmlns="http://www.w3.org/2000/svg">
<path d="M16 29.0801C22.9697 29.0801 28.7334 23.3164 28.7334 16.3467C28.7334 9.37695 22.9697 3.61328 15.9873 3.61328C9.01758 3.61328 3.2666 9.37695 3.2666 16.3467C3.2666 23.3164 9.03027 29.0801 16 29.0801ZM18.3232 22.8975C18.0312 23.1895 17.5107 23.1641 17.1934 22.8721L11.4297 17.3623C10.8457 16.791 10.8457 15.8896 11.4297 15.3311L17.1934 9.82129C17.5361 9.50391 18.0059 9.47852 18.3232 9.7959C18.6152 10.0879 18.6533 10.6084 18.3232 10.9131L12.6357 16.3467L18.3232 21.7803C18.6406 22.085 18.6279 22.5928 18.3232 22.8975Z" fill="black"/>
</svg>
