<svg width="32" height="32" viewBox="0 0 32 32" fill="none" xmlns="http://www.w3.org/2000/svg">
<path d="M28.5307 11.47C28.3901 11.3294 28.1993 11.2504 28.0005 11.2504C27.8016 11.2504 27.6108 11.3294 27.4702 11.47L16 22.94L4.53 11.47C4.38782 11.3375 4.19978 11.2654 4.00548 11.2688C3.81118 11.2723 3.62579 11.351 3.48838 11.4884C3.35096 11.6258 3.27225 11.8112 3.26882 12.0055C3.2654 12.1998 3.33752 12.3878 3.47 12.53L15.47 24.53C15.6106 24.6706 15.8014 24.7496 16.0003 24.7496C16.1992 24.7496 16.3899 24.6706 16.5306 24.53L28.5306 12.53C28.6711 12.3894 28.75 12.1988 28.75 12C28.75 11.8013 28.6711 11.6106 28.5307 11.47Z" fill="#0F0F0F"/>
</svg>
