<svg width="32" height="32" viewBox="0 0 32 32" fill="none" xmlns="http://www.w3.org/2000/svg">
<path d="M16 29.0801C22.9697 29.0801 28.7334 23.3164 28.7334 16.3467C28.7334 9.37695 22.9697 3.61328 15.9873 3.61328C9.01758 3.61328 3.2666 9.37695 3.2666 16.3467C3.2666 23.3164 9.03027 29.0801 16 29.0801ZM16 27.4424C9.85547 27.4424 4.91699 22.4912 4.91699 16.3467C4.91699 10.2021 9.85547 5.26367 15.9873 5.26367C22.1318 5.26367 27.083 10.2021 27.0957 16.3467C27.0957 22.4912 22.1445 27.4424 16 27.4424ZM18.4502 22.5928C18.7422 22.3008 18.7549 21.8057 18.4502 21.5137L13.0293 16.3467L18.4502 11.167C18.7549 10.8877 18.7295 10.3799 18.4375 10.1006C18.1455 9.80859 17.6885 9.83398 17.3711 10.126L11.8867 15.3818C11.3154 15.915 11.3281 16.7783 11.8867 17.3115L17.3711 22.5674C17.6631 22.834 18.1709 22.8594 18.4502 22.5928Z" fill="black"/>
</svg>
