<svg width="32" height="32" viewBox="0 0 32 32" fill="none" xmlns="http://www.w3.org/2000/svg">
<path d="M26.3535 12.6462L16.3541 2.6468C16.2601 2.55309 16.1328 2.50047 16 2.50047C15.8673 2.50047 15.74 2.55309 15.6459 2.6468L5.64654 12.6462C5.59879 12.6923 5.56069 12.7475 5.53449 12.8085C5.50829 12.8695 5.49449 12.9351 5.49392 13.0015C5.49334 13.0679 5.50599 13.1337 5.53113 13.1952C5.55627 13.2566 5.5934 13.3125 5.64034 13.3594C5.68729 13.4063 5.74312 13.4435 5.80456 13.4686C5.86601 13.4938 5.93185 13.5064 5.99824 13.5058C6.06463 13.5052 6.13024 13.4915 6.19124 13.4653C6.25225 13.439 6.30742 13.401 6.35354 13.3532L15.4999 4.2067V29C15.4999 29.1326 15.5526 29.2598 15.6464 29.3536C15.7402 29.4473 15.8673 29.5 15.9999 29.5C16.1325 29.5 16.2597 29.4473 16.3535 29.3536C16.4473 29.2598 16.4999 29.1326 16.4999 29V4.2067L25.6464 13.3532C25.6926 13.401 25.7477 13.439 25.8087 13.4653C25.8697 13.4915 25.9354 13.5052 26.0017 13.5058C26.0681 13.5064 26.134 13.4938 26.1954 13.4686C26.2569 13.4435 26.3127 13.4063 26.3596 13.3594C26.4066 13.3125 26.4437 13.2566 26.4689 13.1952C26.494 13.1337 26.5066 13.0679 26.5061 13.0015C26.5055 12.9351 26.4917 12.8695 26.4655 12.8085C26.4393 12.7475 26.4012 12.6923 26.3534 12.6462H26.3535Z" fill="#0F0F0F"/>
</svg>
