<svg width="32" height="32" viewBox="0 0 32 32" fill="none" xmlns="http://www.w3.org/2000/svg">
<path d="M24.3535 15.6467L12.3535 3.6467C12.3074 3.59894 12.2522 3.56085 12.1912 3.53465C12.1302 3.50844 12.0646 3.49465 11.9982 3.49407C11.9318 3.4935 11.866 3.50615 11.8045 3.53129C11.7431 3.55643 11.6872 3.59356 11.6403 3.6405C11.5933 3.68745 11.5562 3.74327 11.5311 3.80472C11.5059 3.86617 11.4933 3.93201 11.4939 3.9984C11.4944 4.06479 11.5082 4.1304 11.5344 4.1914C11.5606 4.2524 11.5987 4.30758 11.6465 4.3537L23.293 16L11.6465 27.6467C11.5987 27.6928 11.5606 27.748 11.5344 27.809C11.5082 27.87 11.4944 27.9356 11.4939 28.002C11.4933 28.0684 11.5059 28.1342 11.5311 28.1957C11.5562 28.2571 11.5933 28.313 11.6403 28.3599C11.6872 28.4068 11.7431 28.444 11.8045 28.4691C11.866 28.4943 11.9318 28.5069 11.9982 28.5063C12.0646 28.5057 12.1302 28.492 12.1912 28.4658C12.2522 28.4395 12.3074 28.4015 12.3535 28.3537L24.3535 16.3537C24.4472 16.2599 24.4999 16.1328 24.4999 16.0002C24.4999 15.8676 24.4472 15.7405 24.3535 15.6467Z" fill="#0F0F0F"/>
</svg>
