<svg width="32" height="32" viewBox="0 0 32 32" fill="none" xmlns="http://www.w3.org/2000/svg">
<path d="M21 19C20.9343 19.0001 20.8693 18.9872 20.8086 18.9621C20.748 18.9369 20.6929 18.9 20.6465 18.8535L16 14.207L11.3535 18.8535C11.2592 18.9446 11.1329 18.995 11.0018 18.9938C10.8707 18.9927 10.7453 18.9401 10.6526 18.8474C10.5599 18.7547 10.5073 18.6293 10.5062 18.4982C10.505 18.3671 10.5554 18.2408 10.6465 18.1465L15.6465 13.1465C15.7403 13.0528 15.8674 13.0001 16 13.0001C16.1326 13.0001 16.2597 13.0528 16.3535 13.1465L21.3535 18.1465C21.4234 18.2164 21.471 18.3055 21.4903 18.4025C21.5096 18.4995 21.4997 18.6 21.4618 18.6913C21.424 18.7827 21.3599 18.8608 21.2777 18.9157C21.1955 18.9706 21.0989 19 21 19Z" fill="#0F0F0F"/>
<path d="M16 29.5C13.33 29.5 10.7199 28.7082 8.49981 27.2248C6.27974 25.7414 4.54942 23.633 3.52763 21.1662C2.50585 18.6994 2.2385 15.985 2.7594 13.3663C3.28031 10.7475 4.56606 8.34207 6.45406 6.45406C8.34207 4.56606 10.7475 3.28031 13.3663 2.7594C15.985 2.2385 18.6994 2.50585 21.1662 3.52763C23.633 4.54942 25.7414 6.27974 27.2248 8.49981C28.7082 10.7199 29.5 13.33 29.5 16C29.496 19.5792 28.0724 23.0107 25.5415 25.5415C23.0107 28.0724 19.5792 29.496 16 29.5ZM16 3.50001C13.5277 3.50001 11.111 4.23312 9.05538 5.60664C6.99976 6.98015 5.39761 8.93239 4.45151 11.2165C3.50542 13.5005 3.25787 16.0139 3.74019 18.4386C4.22251 20.8634 5.41301 23.0907 7.16117 24.8388C8.90933 26.587 11.1366 27.7775 13.5614 28.2598C15.9861 28.7421 18.4995 28.4946 20.7835 27.5485C23.0676 26.6024 25.0199 25.0002 26.3934 22.9446C27.7669 20.889 28.5 18.4723 28.5 16C28.4963 12.6859 27.1781 9.50869 24.8347 7.16529C22.4913 4.8219 19.3141 3.50374 16 3.50001Z" fill="#0F0F0F"/>
</svg>
