<svg width="32" height="32" viewBox="0 0 32 32" fill="none" xmlns="http://www.w3.org/2000/svg">
<path d="M28.53 19.47L16.53 7.47C16.3894 7.3294 16.1986 7.25041 15.9998 7.25041C15.8009 7.25041 15.6102 7.3294 15.4695 7.47L3.46951 19.47C3.39787 19.5392 3.34074 19.6219 3.30143 19.7134C3.26212 19.805 3.24143 19.9034 3.24057 20.003C3.2397 20.1025 3.25868 20.2013 3.29639 20.2935C3.3341 20.3856 3.38979 20.4694 3.46021 20.5398C3.53063 20.6102 3.61437 20.6659 3.70654 20.7036C3.79871 20.7413 3.89747 20.7603 3.99706 20.7594C4.09664 20.7586 4.19506 20.7379 4.28656 20.6986C4.37806 20.6593 4.46082 20.6021 4.53001 20.5305L16 9.0608L27.47 20.5308C27.5391 20.603 27.6219 20.6606 27.7135 20.7003C27.8052 20.74 27.9038 20.761 28.0037 20.7621C28.1036 20.7632 28.2027 20.7443 28.2952 20.7065C28.3877 20.6688 28.4717 20.6129 28.5423 20.5423C28.6129 20.4716 28.6687 20.3876 28.7063 20.2951C28.744 20.2025 28.7628 20.1034 28.7617 20.0036C28.7606 19.9037 28.7395 19.805 28.6997 19.7134C28.6599 19.6218 28.6022 19.539 28.53 19.47Z" fill="#0F0F0F"/>
</svg>
