<svg width="32" height="32" viewBox="0 0 32 32" fill="none" xmlns="http://www.w3.org/2000/svg">
<path d="M26.53 12.4694L16.53 2.4694C16.389 2.32945 16.1983 2.25091 15.9997 2.25091C15.801 2.25091 15.6104 2.32945 15.4694 2.4694L5.46937 12.4694C5.3985 12.5388 5.3421 12.6215 5.30342 12.7128C5.26474 12.8041 5.24456 12.9022 5.24403 13.0014C5.2435 13.1005 5.26264 13.1988 5.30035 13.2905C5.33805 13.3822 5.39357 13.4656 5.46369 13.5357C5.53381 13.6058 5.61714 13.6613 5.70885 13.699C5.80057 13.7367 5.89885 13.7559 5.99801 13.7553C6.09717 13.7548 6.19525 13.7346 6.28656 13.6959C6.37787 13.6573 6.4606 13.6009 6.52997 13.53L15.25 4.81V29C15.25 29.1989 15.329 29.3897 15.4696 29.5303C15.6103 29.671 15.8011 29.75 16 29.75C16.1989 29.75 16.3896 29.671 16.5303 29.5303C16.671 29.3897 16.75 29.1989 16.75 29V4.81L25.47 13.53C25.5389 13.6026 25.6217 13.6607 25.7135 13.7008C25.8052 13.7409 25.9041 13.7622 26.0042 13.7635C26.1044 13.7647 26.2037 13.7459 26.2965 13.7082C26.3892 13.6705 26.4735 13.6145 26.5443 13.5437C26.6151 13.4729 26.6709 13.3886 26.7086 13.2958C26.7463 13.203 26.7651 13.1037 26.7637 13.0035C26.7624 12.9034 26.741 12.8046 26.7009 12.7128C26.6607 12.6211 26.6026 12.5383 26.53 12.4694Z" fill="#0F0F0F"/>
</svg>
