<svg width="32" height="32" viewBox="0 0 32 32" fill="none" xmlns="http://www.w3.org/2000/svg">
<path d="M16 28.2295C16.4951 28.2295 16.8506 27.874 16.8506 27.3916V9.75781L16.7744 7.04102L20.1895 10.71L24.0234 14.5186C24.1758 14.6709 24.4043 14.7471 24.6328 14.7471C25.1025 14.7471 25.458 14.3916 25.458 13.9092C25.458 13.6807 25.3818 13.4775 25.1914 13.2871L16.6348 4.74316C16.4443 4.55273 16.2285 4.45117 16 4.45117C15.7588 4.45117 15.543 4.55273 15.3525 4.74316L6.7959 13.2871C6.61816 13.4775 6.5293 13.6807 6.5293 13.9092C6.5293 14.3916 6.88477 14.7471 7.35449 14.7471C7.58301 14.7471 7.82422 14.6709 7.96387 14.5186L11.8105 10.71L15.2256 7.02832L15.1367 9.75781V27.3916C15.1367 27.874 15.4922 28.2295 16 28.2295Z" fill="black"/>
</svg>
