<svg width="32" height="32" viewBox="0 0 32 32" fill="none" xmlns="http://www.w3.org/2000/svg">
<path d="M28.3535 19.6467L16.3535 7.6467C16.2597 7.55296 16.1326 7.50031 16 7.50031C15.8674 7.50031 15.7402 7.55296 15.6465 7.6467L3.64648 19.6467C3.59872 19.6928 3.56063 19.748 3.53443 19.809C3.50822 19.87 3.49443 19.9356 3.49385 20.002C3.49328 20.0684 3.50593 20.1342 3.53107 20.1957C3.55621 20.2571 3.59334 20.313 3.64028 20.3599C3.68723 20.4068 3.74305 20.444 3.8045 20.4691C3.86595 20.4943 3.93179 20.5069 3.99818 20.5063C4.06457 20.5057 4.13018 20.492 4.19118 20.4658C4.25218 20.4395 4.30736 20.4015 4.35348 20.3537L16 8.7073L27.6465 20.3537C27.7408 20.4448 27.8671 20.4952 27.9982 20.494C28.1293 20.4929 28.2547 20.4403 28.3474 20.3476C28.4401 20.2549 28.4927 20.1295 28.4938 19.9984C28.495 19.8673 28.4446 19.741 28.3535 19.6467Z" fill="#0F0F0F"/>
</svg>
