<svg width="32" height="32" viewBox="0 0 32 32" fill="none" xmlns="http://www.w3.org/2000/svg">
<path d="M8.70738 16L20.3539 4.3537C20.4016 4.30758 20.4397 4.2524 20.4659 4.1914C20.4921 4.1304 20.5059 4.06479 20.5065 3.9984C20.5071 3.93201 20.4944 3.86617 20.4693 3.80472C20.4442 3.74327 20.407 3.68745 20.3601 3.6405C20.3131 3.59356 20.2573 3.55643 20.1959 3.53129C20.1344 3.50615 20.0686 3.4935 20.0022 3.49407C19.9358 3.49465 19.8702 3.50844 19.8092 3.53465C19.7482 3.56085 19.693 3.59894 19.6469 3.6467L7.64688 15.6467C7.55315 15.7405 7.50049 15.8676 7.50049 16.0002C7.50049 16.1328 7.55315 16.2599 7.64688 16.3537L19.6469 28.3537C19.7412 28.4448 19.8675 28.4952 19.9986 28.494C20.1297 28.4929 20.2551 28.4403 20.3478 28.3476C20.4405 28.2549 20.4931 28.1295 20.4942 27.9984C20.4954 27.8673 20.445 27.741 20.3539 27.6467L8.70738 16Z" fill="#0F0F0F"/>
</svg>
