<svg width="32" height="32" viewBox="0 0 32 32" fill="none" xmlns="http://www.w3.org/2000/svg">
<path d="M9.41449 16L20.7074 4.7073C20.8902 4.51883 20.9916 4.26601 20.9896 4.00343C20.9876 3.74086 20.8824 3.4896 20.6968 3.30392C20.5111 3.11824 20.2598 3.01304 19.9973 3.01103C19.7347 3.00902 19.4819 3.11038 19.2934 3.2932L7.29339 15.2932C7.10588 15.4807 7.00055 15.7351 7.00055 16.0002C7.00055 16.2654 7.10588 16.5198 7.29339 16.7073L19.2934 28.7073C19.3857 28.8025 19.4961 28.8783 19.618 28.9305C19.7399 28.9826 19.871 29.01 20.0036 29.011C20.1362 29.012 20.2676 28.9866 20.3903 28.9363C20.513 28.886 20.6245 28.8119 20.7183 28.7181C20.812 28.6243 20.8862 28.5128 20.9365 28.3901C20.9868 28.2674 21.0121 28.136 21.0111 28.0034C21.0101 27.8708 20.9827 27.7397 20.9306 27.6178C20.8784 27.4959 20.8026 27.3855 20.7074 27.2932L9.41449 16Z" fill="#0F0F0F"/>
</svg>
