<svg width="32" height="32" viewBox="0 0 32 32" fill="none" xmlns="http://www.w3.org/2000/svg">
<path d="M12.5 3.75C10.125 3.75 8.08631 5.18991 7.20929 7.24436C7.19897 7.27434 7.18679 7.30346 7.17291 7.33159C6.90024 8.00075 6.75 8.73283 6.75 9.5C6.75 10.267 6.89981 10.9979 7.17167 11.6659C7.18647 11.6956 7.19935 11.7264 7.21017 11.7582C7.33042 12.0395 7.47245 12.3092 7.63415 12.5653C7.85531 12.9155 7.75067 13.3787 7.40044 13.5998C7.0502 13.821 6.587 13.7164 6.36585 13.3661C6.23256 13.155 6.10987 12.9366 5.99851 12.7115C4.44169 12.4704 3.25 11.1244 3.25 9.5C3.25 7.8757 4.44159 6.52971 5.9983 6.28849C7.18259 3.89547 9.64914 2.25 12.5 2.25C15.0675 2.25 17.3227 3.58521 18.6098 5.59561C18.8332 5.94445 18.7314 6.4083 18.3826 6.63164C18.0337 6.85498 17.5699 6.75324 17.3465 6.40439C16.3235 4.80648 14.5349 3.75 12.5 3.75ZM9.75 9.5C9.75 7.98122 10.9812 6.75 12.5 6.75C14.0188 6.75 15.25 7.98122 15.25 9.5C15.25 11.0188 14.0188 12.25 12.5 12.25C10.9812 12.25 9.75 11.0188 9.75 9.5ZM12.5 5.25C10.1528 5.25 8.25 7.15279 8.25 9.5C8.25 11.035 9.06382 12.38 10.2835 13.127C9.06395 13.5301 7.90419 14.2253 6.94537 15.059C5.42867 16.3779 4.25 18.1915 4.25 20C4.25 20.6701 4.39519 21.2944 4.76629 21.8324C5.13565 22.3679 5.67843 22.7447 6.34224 23.0131C7.48149 23.4737 9.12574 23.6709 11.3119 23.7313C11.2714 24.0295 11.2505 24.3338 11.2505 24.6433C11.2505 26.2552 12.6002 27.2742 14.0671 27.8578C15.5889 28.4632 17.5653 28.7501 19.5005 28.7501C21.4358 28.7501 23.4122 28.4632 24.934 27.8578C26.4009 27.2742 27.7505 26.2552 27.7505 24.6433C27.7505 21.4744 25.5635 18.8494 22.5504 17.7739C23.8824 16.8216 24.7505 15.2622 24.7505 13.5001C24.7505 10.6006 22.4 8.25008 19.5005 8.25008C18.4818 8.25008 17.5307 8.54028 16.7257 9.04251C16.4975 6.91045 14.6926 5.25 12.5 5.25ZM16.4509 17.774C14.2426 18.5625 12.478 20.1834 11.6928 22.24C9.34724 22.191 7.83275 21.9978 6.9045 21.6225C6.42691 21.4294 6.15801 21.2083 6.00103 20.9807C5.8458 20.7557 5.75 20.4519 5.75 20C5.75 18.8085 6.57133 17.3721 7.92963 16.191C9.27386 15.0221 10.9809 14.25 12.5 14.25C13.099 14.25 13.7261 14.3475 14.3509 14.5267C14.6152 15.86 15.3844 17.0116 16.4509 17.774ZM19.5005 17.2501C17.4295 17.2501 15.7505 15.5712 15.7505 13.5001C15.7505 11.429 17.4295 9.75008 19.5005 9.75008C21.5716 9.75008 23.2505 11.429 23.2505 13.5001C23.2505 15.5712 21.5716 17.2501 19.5005 17.2501ZM12.7505 24.6433C12.7505 21.4724 15.6843 18.7501 19.5005 18.7501C23.317 18.7501 26.2505 21.4708 26.2505 24.6433C26.2505 25.2693 25.7252 25.9286 24.3796 26.464C23.0889 26.9775 21.3153 27.2501 19.5005 27.2501C17.6858 27.2501 15.9122 26.9775 14.6215 26.464C13.2759 25.9286 12.7505 25.2693 12.7505 24.6433ZM20.0493 5.26798C19.6359 5.24077 19.2788 5.55378 19.2516 5.9671C19.2244 6.38042 19.5374 6.73753 19.9507 6.76474C23.4681 6.99625 26.25 9.92354 26.25 13.5C26.25 14.639 25.9685 15.71 25.4719 16.6495C25.2783 17.0157 25.4183 17.4694 25.7845 17.663C26.1507 17.8566 26.6044 17.7167 26.798 17.3505C26.9381 17.0854 27.0642 16.8119 27.1752 16.5308C28.389 16.0598 29.25 14.8812 29.25 13.5001C29.25 12.119 28.3892 10.9406 27.1756 10.4694C26.0317 7.57448 23.2973 5.48177 20.0493 5.26798Z" fill="#0F0F0F"/>
</svg>
