<svg width="32" height="32" viewBox="0 0 32 32" fill="none" xmlns="http://www.w3.org/2000/svg">
<path d="M12.5 4C10.2312 4 8.28319 5.37379 7.44254 7.33491C7.43056 7.36862 7.41682 7.4015 7.40144 7.43344C7.14258 8.07146 7 8.76908 7 9.5C7 10.2314 7.14224 10.9272 7.39969 11.563C7.41634 11.5972 7.4311 11.6325 7.44383 11.6687C7.55795 11.9344 7.69249 12.1894 7.84554 12.4318C8.14041 12.8987 8.00089 13.5164 7.53391 13.8112C7.06694 14.1061 6.44933 13.9666 6.15446 13.4996C6.0392 13.3171 5.93156 13.1292 5.83201 12.9363C4.21852 12.6245 3 11.2046 3 9.5C3 7.79553 4.21839 6.37563 5.83175 6.06372C7.07806 3.65009 9.59633 2 12.5 2C15.1563 2 17.4892 3.38167 18.8204 5.46081C19.1182 5.92594 18.9825 6.5444 18.5174 6.84219C18.0522 7.13997 17.4338 7.00431 17.136 6.53919C16.157 5.01002 14.4461 4 12.5 4ZM10 9.5C10 8.11929 11.1193 7 12.5 7C13.8807 7 15 8.11929 15 9.5C15 10.8807 13.8807 12 12.5 12C11.1193 12 10 10.8807 10 9.5ZM12.5 5C10.0147 5 8 7.01472 8 9.5C8 11.0884 8.82298 12.4846 10.0658 13.2854C8.92674 13.5546 7.81948 14.0161 6.86644 14.6791C5.20986 15.8315 4 17.6165 4 20C4 20.7055 4.15299 21.3824 4.55907 21.9719C4.96287 22.5582 5.54998 22.9608 6.24323 23.2417C7.37618 23.7009 8.97029 23.9023 11.0323 23.9724C11.0113 24.193 11.0005 24.4168 11.0005 24.6433C11.0005 26.4195 12.4876 27.4985 13.9746 28.09C15.535 28.7108 17.5452 29.0001 19.5005 29.0001C21.4559 29.0001 23.4661 28.7108 25.0265 28.09C26.5135 27.4985 28.0005 26.4195 28.0005 24.6433C28.0005 21.4991 25.9346 18.8931 23.0518 17.7001C24.2438 16.6912 25.0005 15.184 25.0005 13.5001C25.0005 10.4625 22.5381 8.00008 19.5005 8.00008C18.5673 8.00008 17.6884 8.23252 16.9184 8.64266C16.5181 6.56742 14.6921 5 12.5 5ZM19.4983 17.0001C17.5663 16.9989 16.0005 15.4323 16.0005 13.5001C16.0005 11.5671 17.5676 10.0001 19.5005 10.0001C21.4335 10.0001 23.0005 11.5671 23.0005 13.5001C23.0005 15.4331 21.4335 17.0001 19.5005 17.0001L19.4983 17.0001ZM15.9495 17.7002C13.9305 18.536 12.3122 20.0649 11.5235 21.9858C9.27771 21.9298 7.85469 21.7368 6.99444 21.3882C6.54955 21.2079 6.32724 21.0132 6.20616 20.8374C6.08735 20.6649 6 20.415 6 20C6 18.3835 6.79014 17.1685 8.00856 16.3209C9.25281 15.4553 10.9205 15 12.5 15C13.0754 15 13.6761 15.0756 14.2739 15.2171C14.5947 16.1942 15.1818 17.0506 15.9495 17.7002ZM13.0005 24.6433C13.0005 21.638 15.793 19.0001 19.5005 19.0001C23.2083 19.0001 26.0005 21.6365 26.0005 24.6433C26.0005 25.1049 25.6126 25.7044 24.2871 26.2317C23.035 26.7299 21.2952 27.0001 19.5005 27.0001C17.7059 27.0001 15.9661 26.7299 14.714 26.2317C13.3885 25.7044 13.0005 25.1049 13.0005 24.6433ZM21.1989 5.16997C20.6577 5.0601 20.1299 5.4098 20.02 5.95105C19.9101 6.4923 20.2598 7.02013 20.8011 7.13C23.7676 7.73216 26 10.3565 26 13.5C26 14.5973 25.7289 15.6283 25.2509 16.5326C24.9928 17.0209 25.1794 17.6259 25.6676 17.884C26.1559 18.1421 26.7609 17.9556 27.019 17.4673C27.1468 17.2257 27.2632 16.9771 27.3676 16.7225C28.6206 16.19 29.5 14.9487 29.5 13.5001C29.5 12.0516 28.6209 10.8105 27.3681 10.2779C26.3065 7.68809 24.0033 5.73922 21.1989 5.16997Z" fill="#0F0F0F"/>
</svg>
