<svg width="32" height="32" viewBox="0 0 32 32" fill="none" xmlns="http://www.w3.org/2000/svg">
<path d="M29.707 2.29273C29.6142 2.19985 29.504 2.12617 29.3826 2.0759C29.2613 2.02563 29.1313 1.99976 29 1.99976C28.8687 1.99976 28.7386 2.02563 28.6173 2.0759C28.496 2.12617 28.3858 2.19985 28.293 2.29273L20 10.5832V4.99976C20 4.73454 19.8947 4.48019 19.7071 4.29265C19.5196 4.10512 19.2652 3.99976 19 3.99976C18.7348 3.99976 18.4804 4.10512 18.2929 4.29265C18.1054 4.48019 18 4.73454 18 4.99976V12.9998C17.9999 13.1311 18.0258 13.2612 18.076 13.3825C18.1262 13.5039 18.1999 13.6142 18.2927 13.707C18.3856 13.7999 18.4959 13.8736 18.6172 13.9238C18.7386 13.974 18.8687 13.9998 19 13.9998H27C27.2652 13.9998 27.5196 13.8944 27.7071 13.7069C27.8947 13.5193 28 13.265 28 12.9998C28 12.7345 27.8947 12.4802 27.7071 12.2927C27.5196 12.1051 27.2652 11.9998 27 11.9998H21.4116L29.707 3.70679C29.7999 3.61396 29.8736 3.50374 29.9238 3.38242C29.9741 3.26111 30 3.13108 30 2.99976C30 2.86844 29.9741 2.73841 29.9238 2.6171C29.8736 2.49578 29.7999 2.38556 29.707 2.29273Z" fill="#0F0F0F"/>
<path d="M9.10736 22.8427C16.1032 29.8385 22.3711 29.3779 24.172 27.577L25.2092 26.5398C25.8138 25.9338 26.1534 25.1128 26.1534 24.2569C26.1534 23.4009 25.8138 22.5799 25.2092 21.974L22.6853 19.4501C22.0812 18.8505 21.2639 18.515 20.4128 18.5172C19.5616 18.5194 18.7461 18.8591 18.1451 19.4618L16.9877 20.6192C15.5984 20.3307 14.3297 19.6265 13.35 18.6C12.324 17.6208 11.6188 16.3537 11.3274 14.9658L12.4951 13.7995C13.0862 13.1691 13.4079 12.333 13.3918 11.469C13.3756 10.605 13.023 9.78146 12.4088 9.17357L9.97608 6.74082C9.37015 6.13623 8.54914 5.79669 7.69318 5.79669C6.83721 5.79669 6.0162 6.13623 5.41027 6.74082L4.37306 7.77802C2.57211 9.57891 2.11155 15.8468 9.10736 22.8427ZM6.82445 8.155C7.05497 7.92484 7.3674 7.79557 7.69314 7.79557C8.01889 7.79557 8.33132 7.92484 8.56184 8.155L10.9946 10.5877C11.236 10.8194 11.3796 11.1346 11.3957 11.4688C11.4119 11.803 11.2995 12.1307 11.0816 12.3845L9.6991 13.7656C8.61841 14.8462 10.0257 18.1042 11.9357 20.0142C14.037 22.1155 17.1928 23.2424 18.1885 22.2467L19.5592 20.876C19.7849 20.6478 20.0918 20.5183 20.4128 20.5161C20.7337 20.514 21.0424 20.6392 21.2711 20.8643L23.795 23.3882C24.0252 23.6187 24.1544 23.9311 24.1544 24.2569C24.1544 24.5826 24.0252 24.895 23.795 25.1256L22.7578 26.1628C21.6902 27.2303 16.4829 27.3899 10.5215 21.4285C4.56016 15.4671 4.71967 10.2598 5.78724 9.1922L6.82445 8.155Z" fill="#0F0F0F"/>
</svg>
