<svg width="32" height="32" viewBox="0 0 32 32" fill="none" xmlns="http://www.w3.org/2000/svg">
<path d="M19 28H17.021C15.841 28.0292 14.6904 27.6293 13.7827 26.8747C12.8751 26.12 12.272 25.0618 12.0853 23.8962C13.4634 23.641 14.7088 22.9118 15.606 21.835C16.5031 20.7582 16.9954 19.4016 16.9976 18V8C16.9976 6.4087 16.3654 4.88258 15.2402 3.75736C14.115 2.63214 12.5889 2 10.9976 2C9.40626 2 7.88014 2.63214 6.75492 3.75736C5.6297 4.88258 4.99756 6.4087 4.99756 8V18C5.00002 19.4282 5.51151 20.8087 6.44019 21.8937C7.36886 22.9787 8.65389 23.6971 10.0646 23.9199C10.2529 25.4665 10.9579 26.9041 12.0653 28H3C2.73478 28 2.48043 28.1054 2.29289 28.2929C2.10536 28.4804 2 28.7348 2 29C2 29.2652 2.10536 29.5196 2.29289 29.7071C2.48043 29.8946 2.73478 30 3 30H19C19.2652 30 19.5196 29.8946 19.7071 29.7071C19.8946 29.5196 20 29.2652 20 29C20 28.7348 19.8946 28.4804 19.7071 28.2929C19.5196 28.1054 19.2652 28 19 28ZM6.99756 18V7.99997C6.99756 6.9391 7.41899 5.92169 8.16913 5.17154C8.91928 4.4214 9.93669 3.99997 10.9976 3.99997C12.0584 3.99997 13.0758 4.4214 13.826 5.17154C14.5761 5.92169 14.9976 6.9391 14.9976 7.99997V18C14.9976 19.0608 14.5761 20.0783 13.826 20.8284C13.0758 21.5785 12.0584 22 10.9976 22C9.93669 22 8.91928 21.5785 8.16913 20.8284C7.41899 20.0783 6.99756 19.0608 6.99756 18ZM21.1679 8.4453C20.8616 8.90483 20.9858 9.5257 21.4453 9.83205C23.8516 11.4362 23.8516 14.5638 21.4453 16.1679C20.9858 16.4743 20.8616 17.0952 21.168 17.5547C21.4743 18.0142 22.0952 18.1384 22.5547 17.8321C26.1484 15.4362 26.1484 10.5638 22.5547 8.16795C22.0952 7.8616 21.4743 7.98577 21.1679 8.4453ZM24.7355 6.85749C26.882 8.14538 28 10.5356 28 13C28 15.4644 26.882 17.8546 24.7355 19.1425C24.2619 19.4267 24.1084 20.0409 24.3925 20.5145C24.6767 20.9881 25.2909 21.1416 25.7645 20.8575C28.618 19.1454 30 16.0356 30 13C30 9.96437 28.618 6.85462 25.7645 5.14251C25.2909 4.85836 24.6767 5.01192 24.3925 5.4855C24.1084 5.95908 24.2619 6.57334 24.7355 6.85749Z" fill="#0F0F0F"/>
</svg>
