<svg width="32" height="32" viewBox="0 0 32 32" fill="none" xmlns="http://www.w3.org/2000/svg">
<path d="M24.7408 1.88303C24.6833 1.51849 24.3691 1.25 24 1.25C23.6309 1.25 23.3167 1.51849 23.2592 1.88303C23.0548 3.17743 22.8745 4.09794 22.6554 4.77875C22.4395 5.44937 22.2042 5.82762 21.925 6.0835C21.6418 6.34315 21.2441 6.54091 20.5803 6.72265C19.9534 6.89432 19.1652 7.03316 18.1098 7.21908L17.8697 7.26141C17.5113 7.32466 17.25 7.63607 17.25 8C17.25 8.36393 17.5113 8.67534 17.8697 8.73859L18.1098 8.78092C19.1652 8.96684 19.9534 9.10568 20.5803 9.27735C21.2441 9.45909 21.6418 9.65685 21.925 9.9165C22.2042 10.1724 22.4395 10.5506 22.6554 11.2212C22.8745 11.9021 23.0548 12.8226 23.2592 14.117C23.3167 14.4815 23.6309 14.75 24 14.75C24.3691 14.75 24.6833 14.4815 24.7408 14.117C24.9452 12.8226 25.1255 11.9021 25.3446 11.2212C25.5605 10.5506 25.7958 10.1724 26.075 9.9165C26.3582 9.65685 26.7559 9.45909 27.4197 9.27735C28.0466 9.10569 28.8348 8.96684 29.8902 8.78092L30.1303 8.73859C30.4887 8.67534 30.75 8.36393 30.75 8C30.75 7.63607 30.4887 7.32466 30.1303 7.26141L29.8902 7.21909C28.8348 7.03317 28.0466 6.89431 27.4197 6.72265C26.7559 6.54091 26.3582 6.34315 26.075 6.0835C25.7958 5.82762 25.5605 5.44937 25.3446 4.77875C25.1255 4.09794 24.9452 3.17743 24.7408 1.88303ZM22.9386 8.81077C22.5349 8.44074 22.0605 8.19077 21.5219 8C22.0605 7.80923 22.5349 7.55926 22.9386 7.18923C23.4223 6.74584 23.7491 6.18137 24 5.48318C24.2509 6.18137 24.5777 6.74584 25.0614 7.18923C25.4651 7.55926 25.9395 7.80923 26.4781 8C25.9395 8.19077 25.4651 8.44074 25.0614 8.81077C24.5777 9.25416 24.2509 9.81864 24 10.5168C23.7491 9.81864 23.4223 9.25416 22.9386 8.81077Z" fill="#0F0F0F"/>
<path d="M16.3963 4.946C16.5326 5.13058 16.7516 5.25045 16.9987 5.25089C17.4129 5.25163 17.7493 4.91645 17.75 4.50224C17.7504 4.25466 17.6774 4.01256 17.54 3.8066C17.4026 3.60048 17.2071 3.44 16.9786 3.34528C16.7499 3.25047 16.4982 3.22573 16.2554 3.27414C16.0157 3.32194 15.7958 3.43889 15.6222 3.61006L8.69834 10.25L5 10.2519C4.27083 10.252 3.57103 10.5417 3.05536 11.0574C2.53957 11.5731 2.25 12.2726 2.25 13.0019V19.0019C2.25 19.7312 2.53958 20.4306 3.05536 20.9464C3.57111 21.4622 4.27069 21.7519 5 21.7519H8.69853L15.6223 28.3908C15.7956 28.5618 16.0154 28.6786 16.2548 28.7265C16.4973 28.775 16.7488 28.7505 16.9774 28.656C17.206 28.5615 17.4014 28.4014 17.5389 28.1957C17.6762 27.9905 17.7499 27.7488 17.75 27.5011V11.5C17.75 11.0858 17.4142 10.75 17 10.75C16.5858 10.75 16.25 11.0858 16.25 11.5V26.9145L9.51908 20.4605C9.37944 20.3267 9.19346 20.2519 9 20.2519H5C4.66844 20.2519 4.35042 20.1202 4.11602 19.8858C3.88167 19.6514 3.75 19.3335 3.75 19.0019V13.0019C3.75 12.6703 3.88167 12.3524 4.11602 12.118C4.35042 11.8836 4.66844 11.7519 5 11.7519L9.00037 11.7499C9.19372 11.7498 9.37957 11.675 9.51912 11.5412L16.3963 4.946ZM16.6731 4.68042L16.677 4.67655Z" fill="#0F0F0F"/>
</svg>
