<svg width="32" height="32" viewBox="0 0 32 32" fill="none" xmlns="http://www.w3.org/2000/svg">
<path d="M25 5C27.7614 5 30 7.23858 30 10V22C30 24.7614 27.7614 27 25 27H7C4.23858 27 2 24.7614 2 22V10C2 7.23858 4.23858 5 7 5H25ZM16.1357 10.5391C16.0516 10.5553 15.9743 10.5962 15.9131 10.6562L12.8496 13.5938H11.1875C10.8975 13.5941 10.6191 13.709 10.4141 13.9141C10.209 14.1191 10.0941 14.3975 10.0938 14.6875V17.3125C10.0941 17.6025 10.209 17.8809 10.4141 18.0859C10.6191 18.291 10.8975 18.4059 11.1875 18.4062H12.8496L15.9092 21.3398C15.9703 21.4009 16.0481 21.443 16.1328 21.46C16.2176 21.4768 16.3058 21.4676 16.3857 21.4346C16.4657 21.4015 16.5339 21.3454 16.582 21.2734C16.6301 21.2015 16.6562 21.1168 16.6562 21.0303V10.9688C16.6563 10.8824 16.631 10.7974 16.583 10.7256C16.535 10.6537 16.4666 10.5975 16.3867 10.5645C16.3075 10.5314 16.22 10.5228 16.1357 10.5391ZM20.6123 12.9375C20.555 12.9374 20.4983 12.9489 20.4453 12.9707C20.3922 12.9926 20.3434 13.0249 20.3027 13.0654C20.2622 13.1059 20.23 13.1542 20.208 13.207C20.186 13.2599 20.174 13.3167 20.1738 13.374C20.1737 13.4313 20.1853 13.488 20.207 13.541C20.2289 13.5941 20.2612 13.6429 20.3018 13.6836C20.605 13.9865 20.845 14.3467 21.0078 14.7432C21.1706 15.1398 21.253 15.5654 21.25 15.9941C21.2467 16.8658 20.8985 17.701 20.2812 18.3164C20.1995 18.3987 20.153 18.51 20.1533 18.626C20.1537 18.742 20.2009 18.8537 20.2832 18.9355C20.3655 19.0171 20.4769 19.0629 20.5928 19.0625C20.7087 19.0621 20.8196 19.0157 20.9014 18.9336C21.6811 18.1553 22.1211 17.0997 22.125 15.998C22.1289 15.4541 22.0249 14.9143 21.8184 14.4111C21.6118 13.908 21.3069 13.4507 20.9219 13.0664C20.8815 13.0258 20.8331 12.9938 20.7803 12.9717C20.7273 12.9496 20.6697 12.9376 20.6123 12.9375ZM18.626 13.5938C18.5687 13.5936 18.5119 13.6042 18.459 13.626C18.4059 13.6478 18.3571 13.6802 18.3164 13.7207C18.2758 13.7611 18.2438 13.8095 18.2217 13.8623C18.1995 13.9153 18.1877 13.9728 18.1875 14.0303C18.1874 14.0876 18.1989 14.1442 18.2207 14.1973C18.2425 14.2504 18.274 14.2991 18.3145 14.3398C18.7579 14.7867 19.024 15.3794 19.0625 16.0078C19.0258 16.632 18.7591 17.2206 18.3145 17.6602C18.2328 17.7424 18.1872 17.8538 18.1875 17.9697C18.1878 18.0857 18.2341 18.1975 18.3164 18.2793C18.3986 18.361 18.5101 18.4065 18.626 18.4062C18.742 18.4059 18.8537 18.3596 18.9355 18.2773C19.5432 17.6741 19.9009 16.8633 19.9375 16.0078C19.9026 15.1473 19.545 14.3312 18.9355 13.7227C18.8951 13.6819 18.8469 13.6491 18.7939 13.627C18.7409 13.6048 18.6834 13.5939 18.626 13.5938Z" fill="#0F0F0F"/>
</svg>
