<svg width="32" height="32" viewBox="0 0 32 32" fill="none" xmlns="http://www.w3.org/2000/svg">
<path d="M24.9878 1.84404C24.911 1.35799 24.4921 1 24 1C23.5079 1 23.089 1.35799 23.0122 1.84404C22.8079 3.13809 22.63 4.04157 22.4174 4.70216C22.2092 5.34916 21.9919 5.68303 21.7561 5.89921C21.5148 6.12041 21.1607 6.30455 20.5143 6.48152C19.8991 6.64997 19.1224 6.78683 18.0603 6.97396L17.8262 7.01522C17.3484 7.09954 17 7.51476 17 8C17 8.48524 17.3484 8.90046 17.8262 8.98478L18.0602 9.02604C19.1224 9.21317 19.8991 9.35003 20.5143 9.51848C21.1607 9.69545 21.5148 9.87959 21.7561 10.1008C21.9919 10.317 22.2092 10.6508 22.4174 11.2978C22.63 11.9584 22.8079 12.8619 23.0122 14.156C23.089 14.642 23.5079 15 24 15C24.4921 15 24.911 14.642 24.9878 14.156C25.1921 12.8619 25.37 11.9584 25.5826 11.2978C25.7908 10.6508 26.0081 10.317 26.2439 10.1008C26.4852 9.87959 26.8393 9.69545 27.4857 9.51848C28.1009 9.35003 28.8776 9.21317 29.9398 9.02604L30.1738 8.98478C30.6516 8.90046 31 8.48524 31 8C31 7.51476 30.6516 7.09954 30.1738 7.01522L29.9397 6.97396C28.8776 6.78683 28.1009 6.64997 27.4857 6.48152C26.8393 6.30455 26.4852 6.12041 26.2439 5.89921C26.0081 5.68303 25.7908 5.34916 25.5826 4.70216C25.37 4.04157 25.1921 3.13809 24.9878 1.84404ZM23.1075 8.62648C22.8247 8.36718 22.5115 8.16455 22.1732 8C22.5115 7.83545 22.8247 7.63282 23.1075 7.37352C23.4866 7.02604 23.7724 6.61287 24 6.13621C24.2276 6.61287 24.5134 7.02604 24.8925 7.37352C25.1753 7.63282 25.4885 7.83545 25.8268 8C25.4885 8.16455 25.1753 8.36718 24.8925 8.62648C24.5134 8.97396 24.2276 9.38713 24 9.86379C23.7724 9.38713 23.4866 8.97396 23.1075 8.62648Z" fill="#0F0F0F"/>
<path d="M16.76 4.94359C17.2074 4.77276 17.4796 4.29943 17.3828 3.81407C17.2748 3.27245 16.7481 2.92095 16.2065 3.02897C15.9195 3.08622 15.656 3.22609 15.448 3.43075L8.59778 10.0001L5 10.0019C4.20458 10.002 3.44111 10.318 2.87859 10.8806C2.31589 11.4433 2 12.2064 2 13.0019V19.0019C2 19.7974 2.31589 20.5605 2.87859 21.1232C3.44123 21.6859 4.2044 22.0019 5 22.0019H8.59804L15.448 28.57C15.6558 28.7745 15.919 28.9143 16.2058 28.9717C16.4968 29.0299 16.7986 29.0004 17.0729 28.887C17.3472 28.7737 17.5817 28.5815 17.7467 28.3347C17.9115 28.0885 17.9999 27.7984 18 27.5011V12C18 11.4477 17.5523 11 17 11C16.4477 11 16 11.4477 16 12V26.3285L9.6921 20.2801C9.50592 20.1016 9.25795 20.0019 9 20.0019H5C4.73473 20.0019 4.4803 19.8965 4.2928 19.709C4.10535 19.5215 4 19.2672 4 19.0019V13.0019C4 12.7366 4.10535 12.4822 4.2928 12.2948C4.4803 12.1073 4.73473 12.0019 5 12.0019L9.0005 11.9999C9.2583 11.9998 9.50609 11.9001 9.69216 11.7216L16.76 4.94359ZM16.846 27.1399C16.8487 27.1425 16.8514 27.1451 16.854 27.1477L16.846 27.1399ZM16.8461 4.86084L16.854 4.85311C16.8514 4.85572 16.8488 4.8583 16.8461 4.86084Z" fill="#0F0F0F"/>
</svg>
