<svg width="32" height="32" viewBox="0 0 32 32" fill="none" xmlns="http://www.w3.org/2000/svg">
<path d="M16.3055 3.51909C16.4992 3.48069 16.7 3.50049 16.8824 3.576C17.0649 3.65151 17.2209 3.77935 17.3308 3.94338C17.4407 4.10748 17.4996 4.3004 17.5 4.49779L17.5 4.4989L17.5 27.4989C17.5 27.6964 17.4415 27.8897 17.3316 28.0542C17.2218 28.2186 17.0658 28.3467 16.8833 28.4224C16.7008 28.4982 16.4999 28.5181 16.306 28.4798C16.114 28.4418 15.9374 28.3483 15.7981 28.211L8.79904 21.5009H5C4.33695 21.5009 3.7011 21.2375 3.23226 20.7687C2.76343 20.2998 2.5 19.664 2.5 19.0009V13.0009C2.5 12.3378 2.76343 11.702 3.23226 11.2331C3.70104 10.7644 4.33679 10.501 4.99975 10.5009L8.79891 10.499L15.798 3.78781C15.9372 3.6506 16.1137 3.55714 16.3055 3.51909Z" fill="#0F0F0F"/>
<path d="M25 10C25.5523 10 26 10.4477 26 11C26 11.2668 26.1068 11.6581 26.3742 12.1394C26.6347 12.6084 27.0121 13.0979 27.4571 13.5429C27.9021 13.9879 28.3916 14.3653 28.8606 14.6258C29.3419 14.8932 29.7332 15 30 15C30.5523 15 31 15.4477 31 16C31 16.5523 30.5523 17 30 17C29.7332 17 29.3419 17.1068 28.8606 17.3742C28.3916 17.6347 27.9021 18.0121 27.4571 18.4571C27.0121 18.9021 26.6347 19.3916 26.3742 19.8606C26.1068 20.3419 26 20.7332 26 21C26 21.5523 25.5523 22 25 22C24.4477 22 24 21.5523 24 21C24 20.7332 23.8932 20.3419 23.6258 19.8606C23.3653 19.3916 22.9879 18.9021 22.5429 18.4571C22.0979 18.0121 21.6084 17.6347 21.1394 17.3742C20.6581 17.1068 20.2668 17 20 17C19.4477 17 19 16.5523 19 16C19 15.4477 19.4477 15 20 15C20.2668 15 20.658 14.8932 21.1394 14.6258C21.6084 14.3653 22.0979 13.9879 22.5429 13.5429C22.9879 13.0979 23.3653 12.6084 23.6258 12.1394C23.8932 11.6581 24 11.2668 24 11C24 10.4477 24.4477 10 25 10Z" fill="#0F0F0F"/>
</svg>
