<svg width="32" height="32" viewBox="0 0 32 32" fill="none" xmlns="http://www.w3.org/2000/svg">
<path d="M15 2.5C13.6193 2.5 12.5 3.61929 12.5 5V17C12.5 18.3807 13.6193 19.5 15 19.5H18.5V27C18.5 27.8284 17.8284 28.5 17 28.5H5C4.17157 28.5 3.5 27.8284 3.5 27V15C3.5 14.1716 4.17157 13.5 5 13.5H9C9.27614 13.5 9.5 13.2761 9.5 13C9.5 12.7239 9.27614 12.5 9 12.5H5C3.61929 12.5 2.5 13.6193 2.5 15V27C2.5 28.3807 3.61929 29.5 5 29.5H17C18.3807 29.5 19.5 28.3807 19.5 27V19C19.5 18.7239 19.2761 18.5 19 18.5H15C14.1716 18.5 13.5 17.8284 13.5 17V5C13.5 4.17157 14.1716 3.5 15 3.5H27C27.8284 3.5 28.5 4.17157 28.5 5V17C28.5 17.8284 27.8284 18.5 27 18.5H23C22.7239 18.5 22.5 18.7239 22.5 19C22.5 19.2761 22.7239 19.5 23 19.5H27C28.3807 19.5 29.5 18.3807 29.5 17V5C29.5 3.61929 28.3807 2.5 27 2.5H15Z" fill="#0F0F0F"/>
<path d="M18.1529 7.83827C18.6876 7.07437 19.5933 6.5 21 6.5C22.4067 6.5 23.3124 7.07437 23.8471 7.83827C24.3616 8.57328 24.5 9.43448 24.5 10V15C24.5 15.2761 24.2761 15.5 24 15.5C23.7239 15.5 23.5 15.2761 23.5 15V12.5H18.5V15C18.5 15.2761 18.2761 15.5 18 15.5C17.7239 15.5 17.5 15.2761 17.5 15V10C17.5 9.43448 17.6384 8.57328 18.1529 7.83827ZM23.5 10C23.5 9.56552 23.3884 8.92672 23.0279 8.41173C22.6876 7.92563 22.0933 7.5 21 7.5C19.9067 7.5 19.3124 7.92563 18.9721 8.41173C18.6116 8.92672 18.5 9.56552 18.5 10V11.5H23.5V10Z" fill="#0F0F0F"/>
<path d="M7 16.5C6.72386 16.5 6.5 16.7239 6.5 17C6.5 17.2761 6.72386 17.5 7 17.5H9C9.27614 17.5 9.5 17.2761 9.5 17C9.5 16.7239 9.27614 16.5 9 16.5H7Z" fill="#0F0F0F"/>
<path d="M6.5 21C6.5 20.7239 6.72386 20.5 7 20.5H11C11.2761 20.5 11.5 20.7239 11.5 21C11.5 21.2761 11.2761 21.5 11 21.5H7C6.72386 21.5 6.5 21.2761 6.5 21Z" fill="#0F0F0F"/>
<path d="M7 24.5C6.72386 24.5 6.5 24.7239 6.5 25C6.5 25.2761 6.72386 25.5 7 25.5H15C15.2761 25.5 15.5 25.2761 15.5 25C15.5 24.7239 15.2761 24.5 15 24.5H7Z" fill="#0F0F0F"/>
</svg>
