<svg width="32" height="32" viewBox="0 0 32 32" fill="none" xmlns="http://www.w3.org/2000/svg">
<path d="M27 2.25C28.5188 2.25 29.75 3.48122 29.75 5V17C29.75 18.5188 28.5188 19.75 27 19.75H25C24.3096 19.75 23.75 20.3096 23.75 21V25C23.75 26.5188 22.5188 27.75 21 27.75H19.1709C19.1282 27.8003 19.0851 27.8505 19.0381 27.8975L18.0566 28.8789C17.6243 29.3105 16.9709 29.5761 16.2393 29.6875C15.4926 29.8011 14.5982 29.7661 13.6064 29.5352C11.6186 29.0722 9.20387 27.8161 6.69433 25.3057C4.18453 22.7956 2.929 20.3804 2.46582 18.3926C2.23474 17.4008 2.19878 16.5066 2.3125 15.7598C2.42397 15.028 2.68991 14.3758 3.12207 13.9434L4.10351 12.9619C4.32907 12.7364 4.59695 12.5577 4.8916 12.4355C5.18651 12.3134 5.50304 12.25 5.82226 12.25C6.14158 12.25 6.45792 12.3133 6.75293 12.4355C7.04785 12.5577 7.31626 12.7362 7.54199 12.9619L9.37695 14.7979C9.60208 15.0228 9.78048 15.29 9.90234 15.584C10.0242 15.8781 10.0869 16.1934 10.0869 16.5117C10.0869 16.83 10.0242 17.1454 9.90234 17.4395C9.78045 17.7334 9.60207 18.0007 9.37695 18.2256C9.37564 18.2269 9.37338 18.2272 9.37207 18.2285C9.3729 18.2294 9.37304 18.2295 9.37304 18.2295L9.36132 18.2412C9.35396 18.2484 9.34289 18.2589 9.3291 18.2725C9.30136 18.2997 9.26148 18.3389 9.21289 18.3867C9.11544 18.4826 8.98273 18.6131 8.84277 18.751C8.63921 18.9515 8.42173 19.1655 8.27246 19.3135C8.27188 19.339 8.26927 19.3695 8.2705 19.4053C8.27738 19.6047 8.31711 19.8949 8.41015 20.2354C8.59683 20.9182 8.97645 21.7274 9.625 22.376C10.2734 23.0244 11.0828 23.404 11.7656 23.5908C12.1061 23.684 12.3956 23.7237 12.5947 23.7305C12.6302 23.7317 12.6603 23.7271 12.6855 23.7266C12.8348 23.5755 13.0504 23.3587 13.25 23.1562C13.3879 23.0164 13.5184 22.8834 13.6143 22.7861C13.662 22.7377 13.7013 22.6976 13.7285 22.6699L13.7754 22.623C14.2298 22.1689 14.8458 21.9132 15.4883 21.9131C16.1309 21.9131 16.7476 22.1687 17.2021 22.623L19.0381 24.458C19.4938 24.914 19.7499 25.5331 19.75 26.1777C19.75 26.2019 19.7468 26.2259 19.7461 26.25H21C21.6904 26.25 22.25 25.6904 22.25 25V21C22.25 19.4812 23.4812 18.25 25 18.25H27C27.6904 18.25 28.25 17.6904 28.25 17V5C28.25 4.30965 27.6904 3.75 27 3.75H15C14.3096 3.75 13.75 4.30964 13.75 5V17C13.75 17.6904 14.3096 18.25 15 18.25H20C20.4142 18.25 20.75 18.5858 20.75 19C20.75 19.4142 20.4142 19.75 20 19.75H15C13.4812 19.75 12.25 18.5188 12.25 17V5C12.25 3.48122 13.4812 2.25 15 2.25H27ZM5.82226 13.75C5.70007 13.75 5.57871 13.7745 5.46582 13.8213C5.35309 13.8681 5.25039 13.9362 5.16406 14.0225L4.18261 15.0039C4.05421 15.1326 3.87891 15.4411 3.79589 15.9863C3.71516 16.5169 3.73202 17.217 3.92675 18.0527C4.31541 19.7204 5.40578 21.8957 7.75488 24.2451C10.1038 26.5949 12.2795 27.6859 13.9473 28.0742C14.7829 28.2688 15.483 28.2849 16.0137 28.2041C16.5594 28.121 16.8678 27.9455 16.9961 27.8174L17.9766 26.8369C18.1513 26.6621 18.25 26.425 18.25 26.1777C18.2499 25.9307 18.1512 25.6942 17.9766 25.5195L16.1416 23.6836C15.9684 23.5106 15.7331 23.4131 15.4883 23.4131C15.2436 23.4132 15.0091 23.5107 14.8359 23.6836L14.7969 23.7227C14.7695 23.7504 14.7306 23.7912 14.6826 23.8398C14.5867 23.9372 14.4554 24.069 14.3174 24.209C14.0418 24.4885 13.7346 24.8005 13.6123 24.9238C13.4041 25.1336 13.1342 25.186 13.0273 25.2041C12.875 25.2299 12.7084 25.2351 12.5439 25.2295C12.2112 25.2182 11.8051 25.1571 11.3701 25.0381C10.5017 24.8004 9.43904 24.3122 8.56347 23.4365C7.68787 22.5607 7.20122 21.499 6.96386 20.6309C6.84492 20.1957 6.78294 19.7895 6.77148 19.457C6.76582 19.2927 6.77148 19.1264 6.79687 18.9746C6.81464 18.8684 6.86638 18.5991 7.07421 18.3906L7.79003 17.6826C7.93032 17.5444 8.06352 17.4134 8.16113 17.3174C8.20967 17.2696 8.24954 17.2305 8.27734 17.2031L8.3164 17.1641C8.40206 17.0785 8.47017 16.9771 8.5166 16.8652C8.56299 16.7533 8.58688 16.6329 8.58691 16.5117C8.58691 16.3904 8.56302 16.2702 8.5166 16.1582C8.48179 16.0742 8.43538 15.9958 8.37793 15.9258L8.3164 15.8584L6.48144 14.0225C6.39497 13.936 6.29168 13.8681 6.17871 13.8213C6.06574 13.7745 5.94452 13.75 5.82226 13.75ZM21 6.24902C22.4889 6.24902 23.486 6.86598 24.0703 7.78418C24.6191 8.64666 24.75 9.68928 24.75 10.499V14.999C24.75 15.4132 24.4142 15.749 24 15.749C23.5858 15.749 23.25 15.4132 23.25 14.999V12.749H18.75V14.999C18.75 15.4132 18.4142 15.749 18 15.749C17.5858 15.749 17.25 15.4132 17.25 14.999V10.499C17.25 9.68928 17.3809 8.64666 17.9297 7.78418C18.514 6.86598 19.5111 6.24902 21 6.24902ZM21 7.74902C19.9891 7.74902 19.486 8.13218 19.1953 8.58887C18.8692 9.10134 18.75 9.80885 18.75 10.499V11.249H23.25V10.499C23.25 9.80885 23.1308 9.10134 22.8047 8.58887C22.514 8.13218 22.0109 7.74902 21 7.74902Z" fill="black"/>
</svg>
