<svg width="32" height="32" viewBox="0 0 32 32" fill="none" xmlns="http://www.w3.org/2000/svg">
<path d="M21.0001 7.99902C21.9315 7.99902 22.3521 8.34376 22.5939 8.72363C22.8828 9.17776 23.0001 9.82886 23.0001 10.499V10.999H19.0001V10.499C19.0001 9.82888 19.1175 9.17776 19.4064 8.72363C19.6481 8.34375 20.0688 7.99906 21.0001 7.99902Z" fill="black"/>
<path fill-rule="evenodd" clip-rule="evenodd" d="M27.0001 2C28.657 2 30.0001 3.34315 30.0001 5V17C30.0001 18.6569 28.657 20 27.0001 20H24.0001V25C24.0001 26.6569 22.657 28 21.0001 28H19.2824C19.2597 28.0244 19.2386 28.0506 19.215 28.0742L18.2335 29.0557C17.7505 29.5377 17.04 29.8185 16.2775 29.9346C15.4948 30.0536 14.5677 30.0153 13.5499 29.7783C11.5088 29.3029 9.05387 28.0195 6.51771 25.4824C3.98143 22.9458 2.69748 20.4912 2.22181 18.4502C1.98465 17.4324 1.94639 16.5055 2.06556 15.7227C2.18171 14.9598 2.46271 14.2498 2.94544 13.7666L3.92689 12.7852C4.1756 12.5365 4.47112 12.3388 4.79603 12.2041C5.12115 12.0694 5.47048 12.0001 5.82239 12C6.17437 12 6.52357 12.0695 6.84876 12.2041C7.17393 12.3388 7.46999 12.5363 7.71888 12.7852L9.55384 14.6211L9.7306 14.8154C9.89703 15.0182 10.0331 15.2451 10.1339 15.4883C10.2683 15.8127 10.337 16.1606 10.337 16.5117C10.337 16.8628 10.2684 17.2108 10.1339 17.5352C9.99945 17.8595 9.8022 18.1542 9.55384 18.4023C9.55189 18.4042 9.5489 18.4054 9.547 18.4072L9.54798 18.4082L9.54505 18.4111C9.54313 18.413 9.53974 18.4155 9.53626 18.4189C9.52892 18.4262 9.5187 18.4377 9.50501 18.4512C9.47725 18.4785 9.43639 18.5177 9.38782 18.5654C9.29052 18.6611 9.15824 18.7913 9.01868 18.9287C8.84606 19.0987 8.66354 19.2785 8.52161 19.4189C8.52988 19.5962 8.56645 19.8577 8.6515 20.1689C8.82968 20.8209 9.19128 21.5885 9.80189 22.1992C10.4123 22.8097 11.1803 23.1712 11.8322 23.3496C12.142 23.4344 12.4025 23.4701 12.5792 23.4785C12.721 23.335 12.9019 23.1524 13.0714 22.9805C13.2091 22.8408 13.3398 22.7086 13.4357 22.6113C13.4835 22.5628 13.5236 22.5228 13.5509 22.4951C13.5644 22.4814 13.5749 22.4702 13.5822 22.4629C13.5856 22.4594 13.5881 22.456 13.59 22.4541L13.5929 22.4521L13.5988 22.4463C14.1 21.9453 14.7798 21.6633 15.4884 21.6631C16.1972 21.6631 16.8776 21.9453 17.379 22.4463L19.215 24.2812C19.6757 24.742 19.9483 25.3538 19.9913 26H21.0001C21.5524 26 22.0001 25.5523 22.0001 25V20H15.0001C13.3433 19.9999 12.0001 18.6568 12.0001 17V5C12.0001 3.34319 13.3433 2.00007 15.0001 2H27.0001ZM21.0001 5.99902C19.4317 5.99906 18.3521 6.65441 17.7189 7.64941C17.1329 8.57027 17.0001 9.66927 17.0001 10.499V14.999C17.0001 15.5513 17.4479 15.999 18.0001 15.999C18.5524 15.999 19.0001 15.5513 19.0001 14.999V12.999H23.0001V14.999C23.0001 15.5513 23.4479 15.999 24.0001 15.999C24.5524 15.999 25.0001 15.5513 25.0001 14.999V10.499C25.0001 9.66925 24.8674 8.57028 24.2814 7.64941C23.6481 6.65442 22.5686 5.99902 21.0001 5.99902Z" fill="black"/>
</svg>
