<svg width="32" height="32" viewBox="0 0 32 32" fill="none" xmlns="http://www.w3.org/2000/svg">
<path d="M17 8.99999C17 5.68628 19.6862 2.99999 23 2.99999C26.3137 2.99999 29 5.68628 29 8.99999C29 12.3137 26.3137 15 23 15C19.6862 15 17 12.3137 17 8.99999ZM23 4.99999C20.7908 4.99999 19 6.79085 19 8.99999C19 11.2091 20.7908 13 23 13C25.2091 13 27 11.2091 27 8.99999C27 6.79085 25.2091 4.99999 23 4.99999ZM26 8.99999C26 9.55228 25.5522 9.99999 25 9.99999L21 9.99999C20.4477 9.99999 20 9.55228 20 8.99999C20 8.44771 20.4477 7.99999 21 7.99999L25 7.99999C25.5522 7.99999 26 8.44771 26 8.99999Z" fill="#0F0F0F"/>
<path d="M28.1342 21.4131L25.3281 18.6032C25.0025 18.2781 24.6161 18.0203 24.1908 17.8446C23.7656 17.6689 23.3098 17.5787 22.8497 17.5792C22.3896 17.5797 21.9341 17.6709 21.5092 17.8476C21.0844 18.0242 20.6985 18.2829 20.3737 18.6088C20.3737 18.6088 19.1617 19.8426 18.649 20.3606C16.8011 20.2957 15.0467 19.532 13.7401 18.2237C12.4335 16.9154 11.6721 15.16 11.6097 13.312C12.1252 12.7986 13.3582 11.5851 13.3638 11.5795C14.0204 10.9221 14.3893 10.031 14.3893 9.10184C14.3893 8.17269 14.0204 7.28154 13.3638 6.62417L10.5576 3.81427C9.88909 3.17476 8.99961 2.81784 8.07446 2.81784C7.1493 2.81784 6.25982 3.17476 5.59128 3.81427L4.09073 5.31585C2.06592 7.34358 1.58784 14.4428 9.55332 22.4197C13.8333 26.7053 17.6088 28.2767 20.0236 28.8399C20.8981 29.049 21.7936 29.1576 22.6928 29.1637C24.1219 29.264 25.5343 28.807 26.6338 27.8885L28.1342 26.3874C28.7924 25.727 29.162 24.8327 29.162 23.9003C29.162 22.9679 28.7924 22.0735 28.1342 21.4131ZM26.8038 25.0544L25.3033 26.5568C24.6877 27.1731 22.9069 27.578 20.45 27.0048C18.275 26.4967 14.8495 25.0588 10.8838 21.0879C3.80319 13.9966 4.10362 7.9674 5.42126 6.64807L6.92171 5.14649C7.23211 4.84983 7.64495 4.68428 8.07432 4.68428C8.50368 4.68428 8.91651 4.84983 9.22692 5.14649L12.0331 7.95639C12.3357 8.25932 12.5062 8.66974 12.5073 9.09797C12.5083 9.5262 12.3398 9.93743 12.0386 10.2418C12.0386 10.2418 10.5049 11.7507 10.1356 12.1224C9.98312 12.3031 9.86842 12.5126 9.79834 12.7384C9.72826 12.9642 9.70423 13.2018 9.72766 13.4371C9.84774 15.7357 10.8017 17.9116 12.4107 19.5574C14.864 22.0148 18.8923 22.7858 19.8359 21.8373C20.2063 21.4665 21.7083 19.9367 21.7095 19.9356C22.013 19.6324 22.4245 19.4622 22.8535 19.4622C23.2824 19.4622 23.6939 19.6324 23.9974 19.9356L26.8036 22.7454C27.109 23.052 27.2805 23.4672 27.2806 23.9C27.2806 24.3328 27.1092 24.7477 26.8038 25.0544Z" fill="#0F0F0F"/>
</svg>
