<svg width="32" height="32" viewBox="0 0 32 32" fill="none" xmlns="http://www.w3.org/2000/svg">
<path d="M4.20711 15.5L13.3536 6.353C13.4014 6.30688 13.4395 6.2517 13.4657 6.1907C13.4919 6.1297 13.5057 6.06409 13.5063 5.9977C13.5068 5.93131 13.4942 5.86547 13.469 5.80402C13.4439 5.74257 13.4068 5.68675 13.3598 5.6398C13.3129 5.59286 13.2571 5.55573 13.1956 5.53059C13.1342 5.50545 13.0683 5.4928 13.0019 5.49337C12.9355 5.49395 12.8699 5.50774 12.8089 5.53395C12.7479 5.56015 12.6928 5.59824 12.6466 5.646L2.64664 15.646C2.5529 15.7398 2.50024 15.8669 2.50024 15.9995C2.50024 16.1321 2.5529 16.2592 2.64664 16.353L12.6466 26.353C12.7409 26.4441 12.8672 26.4945 12.9983 26.4933C13.1294 26.4922 13.2548 26.4396 13.3475 26.3469C13.4403 26.2542 13.4928 26.1288 13.494 25.9977C13.4951 25.8666 13.4447 25.7403 13.3536 25.646L4.20716 16.5H28.9999C29.2761 16.5 29.4999 16.2761 29.4999 16C29.4999 15.7239 29.2761 15.5 28.9999 15.5H4.20711Z" fill="#0F0F0F"/>
</svg>
