<svg width="32" height="32" viewBox="0 0 32 32" fill="none" xmlns="http://www.w3.org/2000/svg">
<path d="M25.3818 27.8486L14.5273 27.8359C13.0928 27.8359 11.9375 27.3535 10.9473 26.3252L3.31738 18.6064C2.54297 17.8066 2.21289 17.0957 2.21289 16.3213C2.21289 15.5596 2.55566 14.8486 3.31738 14.0488L10.9346 6.21582C11.9248 5.1875 13.0801 4.85742 14.5146 4.85742H25.3818C27.8574 4.85742 29.127 6.11426 29.127 8.57715V24.1416C29.127 26.5918 27.8574 27.8486 25.3818 27.8486ZM25.3438 26.2744C26.7783 26.2744 27.5527 25.5254 27.5527 24.0527V8.65332C27.5527 7.19336 26.7783 6.43164 25.3438 6.43164H14.4893C13.499 6.43164 12.8008 6.58398 12.1025 7.29492L4.53613 15.0898C4.0918 15.5723 3.91406 15.9277 3.91406 16.3213C3.91406 16.7275 4.06641 17.083 4.53613 17.5654L12.1152 25.2588C12.8262 25.9824 13.499 26.2744 14.502 26.2744H25.3438ZM22.2715 21.4248C22.0684 21.4248 21.8906 21.3486 21.751 21.209L17.9424 17.4004L14.1338 21.209C14.0068 21.3486 13.8291 21.4248 13.6133 21.4248C13.1943 21.4248 12.8643 21.0947 12.8643 20.6758C12.8643 20.4727 12.9404 20.2949 13.0928 20.1426L16.876 16.3467L13.0928 12.5508C12.9404 12.3984 12.8643 12.2207 12.8643 12.0176C12.8643 11.5986 13.207 11.2559 13.6133 11.2559C13.8291 11.2559 13.9941 11.332 14.1465 11.4844L17.9424 15.2803L21.751 11.4844C21.8906 11.332 22.0811 11.2559 22.2715 11.2559C22.7031 11.2559 23.0332 11.5859 23.0332 12.0176C23.0332 12.2207 22.957 12.3984 22.8047 12.5508L19.0088 16.3467L22.8047 20.1426C22.957 20.2949 23.0332 20.4727 23.0332 20.6758C23.0332 21.082 22.7031 21.4248 22.2715 21.4248Z" fill="black"/>
</svg>
