<svg width="32" height="32" viewBox="0 0 32 32" fill="none" xmlns="http://www.w3.org/2000/svg">
<path d="M29 15H5.41455L13.7074 6.7071C13.8903 6.51863 13.9917 6.26581 13.9897 6.00323C13.9877 5.74066 13.8825 5.4894 13.6968 5.30372C13.5112 5.11804 13.2599 5.01284 12.9973 5.01083C12.7348 5.00883 12.4819 5.11018 12.2934 5.293L2.29345 15.293C2.10595 15.4805 2.00061 15.7349 2.00061 16C2.00061 16.2652 2.10595 16.5196 2.29345 16.7071L12.2934 26.7071C12.4819 26.8899 12.7348 26.9913 12.9973 26.9893C13.2599 26.9873 13.5112 26.8821 13.6968 26.6964C13.8825 26.5107 13.9877 26.2594 13.9897 25.9969C13.9917 25.7343 13.8903 25.4815 13.7074 25.293L5.41455 17H29C29.2653 17 29.5196 16.8946 29.7072 16.7071C29.8947 16.5196 30 16.2652 30 16C30 15.7348 29.8947 15.4804 29.7072 15.2929C29.5196 15.1054 29.2653 15 29 15Z" fill="#0F0F0F"/>
</svg>
