<svg width="32" height="32" viewBox="0 0 32 32" fill="none" xmlns="http://www.w3.org/2000/svg">
<path d="M24.9991 8.99954H21.0001C20.7349 8.99954 20.4805 9.1049 20.293 9.29244C20.1055 9.47997 20.0001 9.73433 20.0001 9.99954C20.0001 10.2648 20.1055 10.5191 20.293 10.7066C20.4805 10.8942 20.7349 10.9995 21.0001 10.9995H22.5867L19.2931 14.2925C19.2002 14.3854 19.1266 14.4956 19.0763 14.6169C19.0261 14.7382 19.0002 14.8683 19.0002 14.9996C19.0002 15.1309 19.0261 15.2609 19.0763 15.3822C19.1266 15.5035 19.2002 15.6138 19.2931 15.7066C19.4806 15.8941 19.7349 15.9995 20.0001 15.9995C20.1314 15.9995 20.2614 15.9736 20.3828 15.9234C20.5041 15.8731 20.6143 15.7994 20.7071 15.7066L23.9997 12.4147L24.0001 13.9996C24.0001 14.2648 24.1055 14.5191 24.293 14.7067C24.4805 14.8942 24.7349 14.9996 25.0001 14.9996C25.2653 14.9996 25.5197 14.8942 25.7072 14.7067C25.8948 14.5191 26.0001 14.2648 26.0001 13.9996L25.9991 9.99957C25.9992 9.86823 25.9734 9.73815 25.9232 9.61679C25.8729 9.49543 25.7993 9.38515 25.7064 9.29228C25.6135 9.1994 25.5033 9.12574 25.3819 9.07551C25.2605 9.02528 25.1305 8.99947 24.9991 8.99954Z" fill="#0F0F0F"/>
<path d="M25.0001 4.99954H7.00009C5.67449 5.0011 4.40362 5.52838 3.46628 6.46573C2.52893 7.40307 2.00165 8.67394 2.00009 9.99954V21.9995C2.00165 23.3251 2.52894 24.596 3.46628 25.5334C4.40362 26.4707 5.67449 26.998 7.00009 26.9995H25.0001C26.3257 26.998 27.5966 26.4707 28.5339 25.5334C29.4712 24.596 29.9985 23.3251 30.0001 21.9995V9.99954C29.9985 8.67394 29.4712 7.40307 28.5339 6.46573C27.5966 5.52839 26.3257 5.0011 25.0001 4.99954ZM7.00009 24.9995C6.20471 24.9987 5.44215 24.6823 4.87973 24.1199C4.31731 23.5575 4.00096 22.7949 4.00009 21.9995V16.9995H13.0519C13.8472 17.0004 14.6098 17.3168 15.1722 17.8792C15.7346 18.4416 16.051 19.2042 16.0519 19.9995V24.9995H7.00009ZM28.0001 21.9995C27.9992 22.7949 27.6829 23.5575 27.1205 24.1199C26.558 24.6823 25.7955 24.9987 25.0001 24.9995H18.0519V19.9995C18.0503 18.6739 17.523 17.4031 16.5857 16.4657C15.6483 15.5284 14.3775 15.0011 13.0519 14.9995H4.00009V9.99954C4.00096 9.20416 4.31731 8.4416 4.87973 7.87918C5.44215 7.31676 6.20471 7.00041 7.00009 6.99954H25.0001C25.7955 7.00041 26.558 7.31676 27.1205 7.87918C27.6829 8.4416 27.9992 9.20416 28.0001 9.99954V21.9995Z" fill="#0F0F0F"/>
</svg>
