<svg width="32" height="32" viewBox="0 0 32 32" fill="none" xmlns="http://www.w3.org/2000/svg">
<path d="M4.5 4.5C4.5 4.22386 4.27614 4 4 4C3.72386 4 3.5 4.22386 3.5 4.5V27.5C3.5 27.7761 3.72386 28 4 28C4.27614 28 4.5 27.7761 4.5 27.5V4.5Z" fill="#0F0F0F"/>
<path d="M28.5 4.5C28.5 4.22386 28.2761 4 28 4C27.7239 4 27.5 4.22386 27.5 4.5V27.5C27.5 27.7761 27.7239 28 28 28C28.2761 28 28.5 27.7761 28.5 27.5V4.5Z" fill="#0F0F0F"/>
<path d="M16 14C16.2761 14 16.5 14.2239 16.5 14.5V23.5C16.5 23.7761 16.2761 24 16 24C15.7239 24 15.5 23.7761 15.5 23.5V14.5C15.5 14.2239 15.7239 14 16 14Z" fill="#0F0F0F"/>
<path d="M20.5 6.5C20.5 6.22386 20.2761 6 20 6C19.7239 6 19.5 6.22386 19.5 6.5V23.5C19.5 23.7761 19.7239 24 20 24C20.2761 24 20.5 23.7761 20.5 23.5V6.5Z" fill="#0F0F0F"/>
<path d="M24 10C24.2761 10 24.5 10.2239 24.5 10.5V23.5C24.5 23.7761 24.2761 24 24 24C23.7239 24 23.5 23.7761 23.5 23.5V10.5C23.5 10.2239 23.7239 10 24 10Z" fill="#0F0F0F"/>
<path d="M8.5 14.5C8.5 14.2239 8.27614 14 8 14C7.72386 14 7.5 14.2239 7.5 14.5V23.5C7.5 23.7761 7.72386 24 8 24C8.27614 24 8.5 23.7761 8.5 23.5V14.5Z" fill="#0F0F0F"/>
<path d="M12 7C12.2761 7 12.5 7.22386 12.5 7.5V22.5C12.5 22.7761 12.2761 23 12 23C11.7239 23 11.5 22.7761 11.5 22.5V7.5C11.5 7.22386 11.7239 7 12 7Z" fill="#0F0F0F"/>
<path d="M8 27C8.27614 27 8.5 26.7761 8.5 26.5C8.5 26.2239 8.27614 26 8 26C7.72386 26 7.5 26.2239 7.5 26.5C7.5 26.7761 7.72386 27 8 27Z" fill="#0F0F0F"/>
<path d="M12.5 26.5C12.5 26.7761 12.2761 27 12 27C11.7239 27 11.5 26.7761 11.5 26.5C11.5 26.2239 11.7239 26 12 26C12.2761 26 12.5 26.2239 12.5 26.5Z" fill="#0F0F0F"/>
<path d="M16 27C16.2761 27 16.5 26.7761 16.5 26.5C16.5 26.2239 16.2761 26 16 26C15.7239 26 15.5 26.2239 15.5 26.5C15.5 26.7761 15.7239 27 16 27Z" fill="#0F0F0F"/>
<path d="M20.5 26.5C20.5 26.7761 20.2761 27 20 27C19.7239 27 19.5 26.7761 19.5 26.5C19.5 26.2239 19.7239 26 20 26C20.2761 26 20.5 26.2239 20.5 26.5Z" fill="#0F0F0F"/>
<path d="M24 27C24.2761 27 24.5 26.7761 24.5 26.5C24.5 26.2239 24.2761 26 24 26C23.7239 26 23.5 26.2239 23.5 26.5C23.5 26.7761 23.7239 27 24 27Z" fill="#0F0F0F"/>
</svg>
