<svg width="32" height="32" viewBox="0 0 32 32" fill="none" xmlns="http://www.w3.org/2000/svg">
<path d="M15.7488 7.5649C15.9055 7.47615 16.0979 7.47857 16.2524 7.57125L21.2524 10.5713C21.3844 10.6505 21.4726 10.7861 21.4914 10.9389C21.5102 11.0917 21.4575 11.2447 21.3487 11.3536L16.7022 16L21.3487 20.6464C21.4575 20.7553 21.5102 20.9083 21.4914 21.0611C21.4726 21.2139 21.3844 21.3495 21.2524 21.4287L16.2524 24.4287C16.0979 24.5214 15.9055 24.5239 15.7488 24.4351C15.592 24.3463 15.4951 24.1801 15.4951 24V17.2071L11.3487 21.3536C11.1534 21.5488 10.8368 21.5488 10.6416 21.3536C10.4463 21.1583 10.4463 20.8417 10.6416 20.6464L15.288 16L10.6416 11.3536C10.4463 11.1583 10.4463 10.8417 10.6416 10.6464C10.8368 10.4512 11.1534 10.4512 11.3487 10.6464L15.4951 14.7929V8C15.4951 7.81986 15.592 7.65365 15.7488 7.5649ZM16.4951 17.2071V23.1169L20.1887 20.9007L16.4951 17.2071ZM16.4951 14.7929L20.1887 11.0993L16.4951 8.88309V14.7929Z" fill="#0F0F0F"/>
<path d="M4.49512 16C4.49512 8.62571 9.5688 2.5 15.9951 2.5C22.4214 2.5 27.4951 8.62571 27.4951 16C27.4951 23.3743 22.4214 29.5 15.9951 29.5C9.5688 29.5 4.49512 23.3743 4.49512 16ZM15.9951 3.5C10.2712 3.5 5.49512 9.01489 5.49512 16C5.49512 22.9851 10.2712 28.5 15.9951 28.5C21.7191 28.5 26.4951 22.9851 26.4951 16C26.4951 9.01489 21.7191 3.5 15.9951 3.5Z" fill="#0F0F0F"/>
</svg>
