<svg width="32" height="32" viewBox="0 0 32 32" fill="none" xmlns="http://www.w3.org/2000/svg">
<path d="M15.6256 7.34735C15.8607 7.21422 16.1493 7.21786 16.381 7.35688L21.381 10.3569C21.579 10.4757 21.7113 10.6791 21.7395 10.9084C21.7677 11.1376 21.6888 11.367 21.5254 11.5303L17.0558 16L21.5254 20.4697C21.6888 20.633 21.7677 20.8624 21.7395 21.0916C21.7113 21.3209 21.579 21.5243 21.381 21.6431L16.381 24.6431C16.1493 24.7821 15.8607 24.7858 15.6256 24.6527C15.3905 24.5195 15.2451 24.2702 15.2451 24V17.8107L11.5254 21.5303C11.2326 21.8232 10.7577 21.8232 10.4648 21.5303C10.1719 21.2374 10.1719 20.7626 10.4648 20.4697L14.9345 16L10.4648 11.5303C10.1719 11.2374 10.1719 10.7626 10.4648 10.4697C10.7577 10.1768 11.2326 10.1768 11.5254 10.4697L15.2451 14.1893V8C15.2451 7.7298 15.3905 7.48048 15.6256 7.34735ZM16.7451 17.8107V22.6754L19.7856 20.8511L16.7451 17.8107ZM16.7451 14.1893L19.7856 11.1489L16.7451 9.32464V14.1893Z" fill="#0F0F0F"/>
<path d="M4.24512 16C4.24512 8.52841 9.39321 2.25 15.9951 2.25C22.597 2.25 27.7451 8.52841 27.7451 16C27.7451 23.4716 22.597 29.75 15.9951 29.75C9.39321 29.75 4.24512 23.4716 4.24512 16ZM15.9951 3.75C10.4468 3.75 5.74512 9.11218 5.74512 16C5.74512 22.8878 10.4468 28.25 15.9951 28.25C21.5435 28.25 26.2451 22.8878 26.2451 16C26.2451 9.11218 21.5435 3.75 15.9951 3.75Z" fill="#0F0F0F"/>
</svg>
