<svg width="32" height="32" viewBox="0 0 32 32" fill="none" xmlns="http://www.w3.org/2000/svg">
<path d="M23.4215 22.0327L17.399 15.9995L23.4185 9.9683C23.6251 9.76179 23.7837 9.51247 23.8834 9.23793C23.983 8.96339 24.0212 8.67033 23.9952 8.37943C23.9672 8.0808 23.8731 7.79214 23.7198 7.53438C23.5664 7.27663 23.3576 7.05624 23.1085 6.8892L17.358 3.27001C17.1331 3.11308 16.8694 3.0208 16.5957 3.00321C16.322 2.98562 16.0487 3.04339 15.8056 3.17023C15.5624 3.29707 15.3587 3.48814 15.2165 3.72267C15.0743 3.9572 14.9991 4.22621 14.9991 4.50048L14.9996 13.5962L8.71445 7.3013C8.62191 7.20754 8.51176 7.13301 8.39032 7.08197C8.26889 7.03094 8.13856 7.00441 8.00683 7.00391C7.87511 7.00341 7.74458 7.02896 7.62276 7.07908C7.50095 7.12919 7.39023 7.20289 7.29699 7.29594C7.20375 7.38899 7.12983 7.49955 7.07946 7.62127C7.02909 7.74299 7.00328 7.87346 7.00351 8.00518C7.00374 8.13691 7.03 8.26729 7.08079 8.38883C7.13158 8.51038 7.20589 8.62068 7.29945 8.71341L14.5929 15.98L7.29987 23.2866C7.20631 23.3794 7.132 23.4897 7.08121 23.6112C7.03042 23.7328 7.00416 23.8631 7.00393 23.9949C7.0037 24.1266 7.02951 24.2571 7.07988 24.3788C7.13025 24.5005 7.20417 24.6111 7.29741 24.7041C7.39065 24.7972 7.50137 24.8709 7.62318 24.921C7.745 24.9711 7.87553 24.9966 8.00725 24.9961C8.13898 24.9956 8.26931 24.9691 8.39074 24.9181C8.51218 24.867 8.62233 24.7925 8.71487 24.6988L14.9995 18.4029L15 27.4995C14.9994 27.7754 15.0751 28.046 15.2187 28.2814C15.3624 28.5169 15.5684 28.708 15.814 28.8335C16.0305 28.9453 16.2706 29.0036 16.5142 29.0035C16.8032 29.0065 17.086 28.9191 17.3228 28.7535L23.1675 25.0738C23.404 24.9051 23.6008 24.687 23.7445 24.4346C23.8881 24.1822 23.975 23.9015 23.9991 23.6121C24.0233 23.3227 23.9841 23.0315 23.8844 22.7588C23.7846 22.486 23.6267 22.2383 23.4215 22.0327ZM22.0025 8.55619L16.9996 13.5679L16.9991 5.40677L22.0025 8.55619ZM17.0001 26.5952L16.9996 18.3775L22.0543 23.4126L17.0001 26.5952Z" fill="#0F0F0F"/>
</svg>
