<svg width="32" height="32" viewBox="0 0 32 32" fill="none" xmlns="http://www.w3.org/2000/svg">
<path d="M22.0002 1.99974H10.0002C8.93964 2.0008 7.92284 2.42257 7.17293 3.17248C6.42301 3.9224 6.00124 4.9392 6.00018 5.99974V27.5007C6.00033 27.7969 6.0881 28.0863 6.25246 28.3327C6.41681 28.579 6.65039 28.7712 6.92377 28.885C7.19714 28.9988 7.49809 29.0292 7.7887 28.9723C8.0793 28.9154 8.34657 28.7737 8.55682 28.5652L16.0031 21.2029L23.4416 28.5632C23.6515 28.7726 23.9188 28.9151 24.2096 28.9727C24.5005 29.0302 24.8019 29.0002 25.0757 28.8865C25.3496 28.7728 25.5835 28.5804 25.7481 28.3338C25.9126 28.0871 26.0004 27.7972 26.0002 27.5007V5.99974C25.9991 4.9392 25.5774 3.9224 24.8274 3.17248C24.0775 2.42257 23.0607 2.0008 22.0002 1.99974ZM24.0002 26.3025L17.0637 19.4392C16.783 19.1586 16.4027 19.0007 16.0059 19C15.6091 18.9992 15.2281 19.1558 14.9465 19.4353L8.00018 26.3034V5.99974C8.00087 5.46952 8.21181 4.96121 8.58673 4.58629C8.96165 4.21136 9.46996 4.00043 10.0002 3.99974H22.0002C22.5304 4.00043 23.0387 4.21136 23.4136 4.58629C23.7886 4.96121 23.9995 5.46952 24.0002 5.99974V26.3025Z" fill="#0F0F0F"/>
</svg>
