<svg width="32" height="32" viewBox="0 0 32 32" fill="none" xmlns="http://www.w3.org/2000/svg">
<path d="M24 17.5C27.0376 17.5 29.5 19.9624 29.5 23C29.5 26.0376 27.0376 28.5 24 28.5H8C4.96243 28.5 2.5 26.0376 2.5 23C2.5 19.9624 4.96243 17.5 8 17.5H24ZM8 18.5C5.51472 18.5 3.5 20.5147 3.5 23C3.5 25.4853 5.51472 27.5 8 27.5H24C26.4853 27.5 28.5 25.4853 28.5 23C28.5 20.5147 26.4853 18.5 24 18.5H8ZM23 20C24.6569 20 26 21.3431 26 23C26 24.6569 24.6569 26 23 26C21.3431 26 20 24.6569 20 23C20 21.3431 21.3431 20 23 20ZM24 3.5C27.0376 3.5 29.5 5.96243 29.5 9C29.5 12.0376 27.0376 14.5 24 14.5H8C4.96243 14.5 2.5 12.0376 2.5 9C2.5 5.96243 4.96243 3.5 8 3.5H24ZM8 4.5C5.51472 4.5 3.5 6.51472 3.5 9C3.5 11.4853 5.51472 13.5 8 13.5H24C26.4853 13.5 28.5 11.4853 28.5 9C28.5 6.51472 26.4853 4.5 24 4.5H8ZM9 6C10.6569 6 12 7.34315 12 9C12 10.6569 10.6569 12 9 12C7.34315 12 6 10.6569 6 9C6 7.34315 7.34315 6 9 6Z" fill="#0F0F0F"/>
</svg>
