<svg width="32" height="32" viewBox="0 0 32 32" fill="none" xmlns="http://www.w3.org/2000/svg">
<path d="M24 17.25C27.1756 17.25 29.75 19.8244 29.75 23C29.75 26.1756 27.1756 28.75 24 28.75H8C4.82436 28.75 2.25 26.1756 2.25 23C2.25 19.8244 4.82436 17.25 8 17.25H24ZM8 18.75C5.65279 18.75 3.75 20.6528 3.75 23C3.75 25.3472 5.65279 27.25 8 27.25H24C26.3472 27.25 28.25 25.3472 28.25 23C28.25 20.6528 26.3472 18.75 24 18.75H8ZM23 20C24.6569 20 26 21.3431 26 23C26 24.6569 24.6569 26 23 26C21.3431 26 20 24.6569 20 23C20 21.3431 21.3431 20 23 20ZM24 3.25C27.1756 3.25 29.75 5.82436 29.75 9C29.75 12.1756 27.1756 14.75 24 14.75H8C4.82436 14.75 2.25 12.1756 2.25 9C2.25 5.82436 4.82436 3.25 8 3.25H24ZM8 4.75C5.65279 4.75 3.75 6.65279 3.75 9C3.75 11.3472 5.65279 13.25 8 13.25H24C26.3472 13.25 28.25 11.3472 28.25 9C28.25 6.65279 26.3472 4.75 24 4.75H8ZM9 6C10.6569 6 12 7.34315 12 9C12 10.6569 10.6569 12 9 12C7.34315 12 6 10.6569 6 9C6 7.34315 7.34315 6 9 6Z" fill="#0F0F0F"/>
</svg>
