<svg width="32" height="32" viewBox="0 0 32 32" fill="none" xmlns="http://www.w3.org/2000/svg">
<path d="M20 15.4978C20.5523 15.4978 21 15.0501 21 14.4978C21 13.9455 20.5523 13.4978 20 13.4978C19.4477 13.4978 19 13.9455 19 14.4978C19 15.0501 19.4477 15.4978 20 15.4978Z" fill="#0F0F0F"/>
<path d="M12 15.4978C12.5523 15.4978 13 15.0501 13 14.4978C13 13.9455 12.5523 13.4978 12 13.4978C11.4477 13.4978 11 13.9455 11 14.4978C11 15.0501 11.4477 15.4978 12 15.4978Z" fill="#0F0F0F"/>
<path d="M13 20.5H19C19.1326 20.5 19.2598 20.4473 19.3536 20.3536C19.4473 20.2598 19.5 20.1326 19.5 20C19.5 19.8674 19.4473 19.7402 19.3536 19.6464C19.2598 19.5527 19.1326 19.5 19 19.5H13C12.8674 19.5 12.7402 19.5527 12.6465 19.6464C12.5527 19.7402 12.5 19.8674 12.5 20C12.5 20.1326 12.5527 20.2598 12.6465 20.3536C12.7402 20.4473 12.8674 20.5 13 20.5Z" fill="#0F0F0F"/>
<path d="M30.5 14C30.5027 13.3285 30.3122 12.6704 29.9512 12.1043C29.5902 11.5381 29.074 11.0877 28.4641 10.8068C27.8541 10.5259 27.1763 10.4264 26.5114 10.5202C25.8465 10.6139 25.2226 10.897 24.7141 11.3355C24.2056 11.7741 23.834 12.3497 23.6437 12.9936C23.4533 13.6375 23.4522 14.3226 23.6404 14.9672C23.8287 15.6117 24.1984 16.1885 24.7054 16.6288C25.2125 17.069 25.8354 17.3541 26.5 17.45V23.81C26.4988 24.7883 26.1096 25.7261 25.4179 26.4179C24.7261 27.1096 23.7883 27.4988 22.81 27.5H9.19053C8.21217 27.4989 7.27418 27.1098 6.58232 26.4181C5.89047 25.7263 5.50124 24.7884 5.50003 23.81V10.1928C5.50119 9.21479 5.89011 8.27714 6.58152 7.58543C7.27293 6.89372 8.21041 6.50439 9.18843 6.5028L16.5536 6.5308C16.6855 7.4082 17.1448 8.20308 17.8392 8.75541C18.5336 9.30775 19.4114 9.57654 20.296 9.50768C21.1806 9.43882 22.0062 9.03742 22.6068 8.38428C23.2073 7.73114 23.5381 6.87475 23.5326 5.98751C23.5271 5.10027 23.1857 4.24805 22.5771 3.60241C21.9685 2.95676 21.138 2.56563 20.2526 2.50774C19.3672 2.44986 18.4928 2.72951 17.8053 3.29042C17.1179 3.85132 16.6684 4.65183 16.5474 5.5308L9.19043 5.5028C7.94702 5.50428 6.75496 5.99888 5.87573 6.87811C4.99651 7.75733 4.50191 8.94939 4.50043 10.1928V23.81C4.50191 25.0534 4.99651 26.2455 5.87573 27.1247C6.75496 28.0039 7.94702 28.4985 9.19043 28.5H22.81C24.0534 28.4985 25.2455 28.0039 26.1247 27.1247C27.0039 26.2455 27.4985 25.0534 27.5 23.81V17.45C28.331 17.3311 29.0915 16.917 29.6424 16.2836C30.1932 15.6501 30.4977 14.8395 30.5 14ZM20 3.5C20.4945 3.5 20.9778 3.64662 21.389 3.92133C21.8001 4.19603 22.1205 4.58648 22.3097 5.04329C22.4989 5.50011 22.5485 6.00277 22.452 6.48773C22.3555 6.97268 22.1174 7.41814 21.7678 7.76777C21.4182 8.1174 20.9727 8.3555 20.4878 8.45196C20.0028 8.54843 19.5001 8.49892 19.0433 8.3097C18.5865 8.12048 18.1961 7.80005 17.9214 7.38893C17.6466 6.9778 17.5 6.49445 17.5 6C17.5008 5.3372 17.7645 4.70178 18.2331 4.23311C18.7018 3.76444 19.3372 3.50079 20 3.5ZM27 16.5C26.5056 16.5 26.0222 16.3534 25.6111 16.0787C25.2 15.804 24.8795 15.4135 24.6903 14.9567C24.5011 14.4999 24.4516 13.9972 24.5481 13.5123C24.6445 13.0273 24.8826 12.5819 25.2323 12.2322C25.5819 11.8826 26.0273 11.6445 26.5123 11.548C26.9973 11.4516 27.4999 11.5011 27.9567 11.6903C28.4136 11.8795 28.804 12.2 29.0787 12.6111C29.3534 13.0222 29.5 13.5055 29.5 14C29.4993 14.6628 29.2356 15.2982 28.7669 15.7669C28.2983 16.2356 27.6628 16.4992 27 16.5Z" fill="#0F0F0F"/>
</svg>
