<svg width="32" height="32" viewBox="0 0 32 32" fill="none" xmlns="http://www.w3.org/2000/svg">
<path d="M15.37 15H16.6788C16.9109 15.8085 17.4264 16.5063 18.1308 16.966C18.8352 17.4257 19.6815 17.6164 20.515 17.5034C21.3485 17.3903 22.1135 16.981 22.67 16.3503C23.2265 15.7196 23.5374 14.9097 23.5458 14.0686C23.5542 13.2275 23.2596 12.4115 22.7158 11.7698C22.172 11.128 21.4154 10.7035 20.5843 10.5738C19.7532 10.4441 18.9033 10.6179 18.1898 11.0634C17.4763 11.5089 16.9471 12.1963 16.6988 13H15.3548C15.1084 12.1965 14.5809 11.5085 13.869 11.0619C13.157 10.6153 12.3081 10.4399 11.4775 10.5677C10.6468 10.6955 9.88989 11.118 9.34513 11.758C8.80038 12.398 8.50418 13.2127 8.51069 14.0531C8.51721 14.8935 8.826 15.7035 9.3806 16.335C9.93521 16.9664 10.6986 17.3772 11.5311 17.4921C12.3637 17.607 13.2098 17.4185 13.9147 16.9609C14.6197 16.5033 15.136 15.8072 15.37 15ZM20.0255 12.5317C20.3222 12.5317 20.6122 12.6197 20.8588 12.7845C21.1055 12.9493 21.2978 13.1836 21.4113 13.4577C21.5248 13.7318 21.5545 14.0334 21.4967 14.3243C21.4388 14.6153 21.2959 14.8826 21.0861 15.0924C20.8764 15.3021 20.6091 15.445 20.3181 15.5029C20.0272 15.5607 19.7256 15.531 19.4515 15.4175C19.1774 15.304 18.9431 15.1117 18.7783 14.865C18.6135 14.6184 18.5255 14.3284 18.5255 14.0317C18.5259 13.6339 18.6841 13.2526 18.9654 12.9714C19.2467 12.6902 19.6277 12.532 20.0255 12.5317ZM10.5255 14.0249C10.5255 13.7282 10.6135 13.4382 10.7783 13.1915C10.9431 12.9449 11.1774 12.7526 11.4515 12.6391C11.7256 12.5255 12.0272 12.4958 12.3181 12.5537C12.6091 12.6116 12.8764 12.7545 13.0861 12.9642C13.2959 13.174 13.4388 13.4413 13.4967 13.7323C13.5545 14.0232 13.5248 14.3248 13.4113 14.5989C13.2978 14.873 13.1055 15.1073 12.8588 15.2721C12.6122 15.4369 12.3222 15.5249 12.0255 15.5249C11.6278 15.5244 11.2466 15.3662 10.9655 15.085C10.6843 14.8038 10.5259 14.4225 10.5255 14.0249Z" fill="#0F0F0F"/>
<path d="M5.99259 23.14V9.19289C5.99357 8.34515 6.33074 7.53241 6.93014 6.93293C7.52955 6.33345 8.34225 5.99618 9.18999 5.99509H20C20.2602 5.99057 20.5083 5.88401 20.6908 5.69836C20.8732 5.51271 20.9754 5.26284 20.9754 5.00254C20.9754 4.74225 20.8732 4.49237 20.6908 4.30673C20.5083 4.12108 20.2602 4.01452 20 4.00999H9.18999C7.81592 4.01166 6.49861 4.55825 5.527 5.52988C4.5554 6.5015 4.00883 7.81882 4.00719 9.19289V23.14C3.06344 23.3818 2.24038 23.9597 1.69246 24.7652C1.14455 25.5707 0.90945 26.5486 1.0313 27.5151C1.15314 28.4817 1.62355 29.3706 2.35424 30.0149C3.08493 30.6593 4.02566 31.0149 4.99989 31.0149C5.97411 31.0149 6.91484 30.6593 7.64553 30.0149C8.37622 29.3706 8.84663 28.4817 8.96848 27.5151C9.09032 26.5486 8.85523 25.5707 8.30731 24.7652C7.7594 23.9597 6.93633 23.3818 5.99259 23.14ZM4.99999 29C4.60442 29 4.21775 28.8827 3.88885 28.6629C3.55995 28.4432 3.3036 28.1308 3.15223 27.7654C3.00085 27.3999 2.96125 26.9978 3.03842 26.6098C3.11559 26.2219 3.30607 25.8655 3.58577 25.5858C3.86548 25.3061 4.22184 25.1156 4.60981 25.0384C4.99777 24.9613 5.3999 25.0009 5.76535 25.1522C6.13081 25.3036 6.44316 25.56 6.66293 25.8889C6.88269 26.2178 6.99999 26.6044 6.99999 27C6.99946 27.5303 6.78857 28.0387 6.41362 28.4136C6.03866 28.7886 5.53026 28.9995 4.99999 29Z" fill="#0F0F0F"/>
<path d="M31 4.99999C31.0028 4.25091 30.7952 3.51611 30.4008 2.87924C30.0064 2.24238 29.4411 1.72905 28.7693 1.39771C28.0975 1.06638 27.3461 0.930347 26.6008 1.00511C25.8554 1.07988 25.1461 1.36244 24.5534 1.82061C23.9608 2.27879 23.5087 2.89417 23.2487 3.59668C22.9887 4.29919 22.9312 5.06059 23.0827 5.79419C23.2342 6.5278 23.5887 7.20411 24.1057 7.74613C24.6228 8.28815 25.2816 8.67408 26.0073 8.85999V22.81C26.0062 23.6576 25.669 24.4703 25.0696 25.0696C24.4702 25.669 23.6576 26.0062 22.81 26.0073H12C11.7367 26.0073 11.4842 26.1119 11.298 26.298C11.1119 26.4842 11.0073 26.7367 11.0073 27C11.0073 27.2633 11.1119 27.5158 11.298 27.7019C11.4842 27.8881 11.7367 27.9927 12 27.9927H22.81C24.184 27.991 25.5012 27.4444 26.4728 26.4728C27.4443 25.5012 27.9909 24.184 27.9926 22.81V8.85999C28.8507 8.64081 29.6118 8.14276 30.1561 7.44408C30.7005 6.74541 30.9973 5.88569 31 4.99999ZM27 6.99999C26.6044 6.99999 26.2177 6.8827 25.8888 6.66293C25.5599 6.44317 25.3036 6.13081 25.1522 5.76536C25.0009 5.39991 24.9612 4.99778 25.0384 4.60981C25.1156 4.22185 25.3061 3.86549 25.5858 3.58578C25.8655 3.30608 26.2218 3.11559 26.6098 3.03842C26.9978 2.96125 27.3999 3.00086 27.7654 3.15223C28.1308 3.30361 28.4432 3.55996 28.6629 3.88885C28.8827 4.21775 29 4.60443 29 4.99999C28.9995 5.53026 28.7886 6.03866 28.4136 6.41362C28.0387 6.78858 27.5303 6.99946 27 6.99999Z" fill="#0F0F0F"/>
<path d="M13 19.0073C12.7367 19.0073 12.4842 19.1119 12.298 19.298C12.1119 19.4842 12.0073 19.7367 12.0073 20C12.0073 20.2633 12.1119 20.5158 12.298 20.7019C12.4842 20.8881 12.7367 20.9927 13 20.9927H19C19.2633 20.9927 19.5158 20.8881 19.7019 20.7019C19.8881 20.5158 19.9927 20.2633 19.9927 20C19.9927 19.7367 19.8881 19.4842 19.7019 19.298C19.5158 19.1119 19.2633 19.0073 19 19.0073H13Z" fill="#0F0F0F"/>
</svg>
