<svg width="32" height="32" viewBox="0 0 32 32" fill="none" xmlns="http://www.w3.org/2000/svg">
<path d="M22.8096 4.00615C24.1835 4.00768 25.501 4.55442 26.4727 5.52568C27.4443 6.4972 27.9914 7.81575 27.9932 9.18974L28.002 15.1165C28.266 15.1848 28.5237 15.2808 28.7705 15.4026C29.4418 15.734 30.0073 16.2476 30.4014 16.8841C30.6674 17.3138 30.8459 17.7893 30.9346 18.2825C30.9422 18.3244 30.9498 18.3671 30.9561 18.4095C30.961 18.443 30.9647 18.4773 30.9688 18.511C30.975 18.5623 30.9811 18.6144 30.9854 18.6663C30.9877 18.6957 30.9904 18.7257 30.9922 18.7552C30.997 18.8357 31 18.9176 31 18.9993C31 20.8683 29.7178 22.4372 27.9854 22.8763C27.967 24.2359 27.4165 25.5345 26.4502 26.4915C25.4812 27.4508 24.1731 27.9903 22.8096 27.9925H9.19043C7.8164 27.9908 6.49894 27.4435 5.52734 26.472C4.55596 25.5004 4.00853 24.1828 4.00684 22.8089V20.0003L4.0127 16.8763C2.28115 16.4366 1 14.8676 1 12.9993C1.00031 11.1311 2.28116 9.56088 4.0127 9.12138C4.03134 7.76335 4.582 6.46565 5.54688 5.50908C6.5162 4.54832 7.82564 4.0081 9.19043 4.00615H22.8096ZM20.8525 17.0833C20.6083 16.9893 20.3359 16.9942 20.0957 17.0979C19.8556 17.202 19.6651 17.3976 19.5664 17.6399C19.2687 18.3402 18.7706 18.9382 18.1357 19.3577C17.5007 19.7771 16.7552 20.0012 15.9941 20.0003C15.2332 19.9991 14.4884 19.7739 13.8545 19.3528C13.2206 18.9316 12.7236 18.3323 12.4277 17.6311C12.3266 17.3895 12.135 17.1967 11.8936 17.095C11.6522 16.9937 11.38 16.9907 11.1367 17.0872C10.8936 17.1841 10.6967 17.3733 10.5908 17.6126C10.4854 17.8519 10.4772 18.1246 10.5693 18.3694L10.5859 18.4075C11.0322 19.466 11.7797 20.3714 12.7354 21.0101L12.9189 21.1272C13.7834 21.6595 14.7717 21.9595 15.7861 21.9964L16.0039 22.0003C17.167 21.9993 18.3044 21.6518 19.2705 21.0042C20.2364 20.3564 20.989 19.4361 21.4316 18.3606C21.5216 18.1147 21.5113 17.8424 21.4033 17.6038C21.2951 17.3652 21.097 17.1777 20.8525 17.0833ZM27.7646 17.1575C27.3995 17.0064 26.9969 16.9663 26.6094 17.0433L26.4648 17.0774C26.1334 17.1695 25.8294 17.3467 25.585 17.5911L25.4844 17.6995C25.26 17.9601 25.1046 18.2757 25.0371 18.6145L25.0137 18.761C24.9718 19.1025 25.0191 19.4514 25.1514 19.7708C25.3027 20.1358 25.5592 20.4486 25.8877 20.6683C26.1753 20.8604 26.5083 20.9738 26.8516 20.9993L26.999 21.0052C27.5289 21.0047 28.0382 20.7937 28.4131 20.4192C28.7878 20.0444 28.9984 19.5352 28.999 19.0052C28.999 18.6591 28.9089 18.3195 28.7393 18.0198L28.6621 17.8938C28.4699 17.6064 28.2067 17.3739 27.8994 17.219L27.7646 17.1575ZM5.38965 11.0413C5.00198 10.9644 4.59857 11.0034 4.2334 11.1546C3.86852 11.306 3.55546 11.5634 3.33594 11.8919C3.11682 12.2203 2.99916 12.6074 2.99902 13.0022C2.99967 13.5322 3.21131 14.0415 3.58594 14.4163C3.96065 14.7909 4.46922 15.0015 4.99902 15.0022C5.34476 15.0022 5.68486 14.9128 5.98438 14.7435L6.11035 14.6653C6.39768 14.4733 6.63024 14.2097 6.78516 13.9026L6.84668 13.7679C6.99787 13.4027 7.03794 13.0003 6.96094 12.6126C6.88373 12.2248 6.69271 11.8678 6.41309 11.5882C6.13356 11.3089 5.7772 11.1185 5.38965 11.0413ZM11.999 11.9983C11.1712 11.9989 10.4992 12.6704 10.499 13.4983C10.4995 14.2743 11.09 14.9133 11.8457 14.9905L11.999 14.9983C12.7754 14.9983 13.414 14.4076 13.4912 13.6517L13.499 13.4983C13.4988 12.6701 12.8273 11.9983 11.999 11.9983ZM19.999 11.9983C19.1712 11.9989 18.4992 12.6704 18.499 13.4983C18.4995 14.2743 19.09 14.9133 19.8457 14.9905L19.999 14.9983C20.7754 14.9983 21.414 14.4076 21.4912 13.6517L21.499 13.4983C21.4988 12.6701 20.8273 11.9983 19.999 11.9983Z" fill="#0F0F0F"/>
</svg>
