<svg width="32" height="32" viewBox="0 0 32 32" fill="none" xmlns="http://www.w3.org/2000/svg">
<path d="M20 15.7479C20.6903 15.7479 21.25 15.1883 21.25 14.4979C21.25 13.8075 20.6903 13.2479 20 13.2479C19.3096 13.2479 18.75 13.8075 18.75 14.4979C18.75 15.1883 19.3096 15.7479 20 15.7479Z" fill="#0F0F0F"/>
<path d="M12 15.7479C12.6903 15.7479 13.25 15.1883 13.25 14.4979C13.25 13.8075 12.6903 13.2479 12 13.2479C11.3096 13.2479 10.75 13.8075 10.75 14.4979C10.75 15.1883 11.3096 15.7479 12 15.7479Z" fill="#0F0F0F"/>
<path d="M13 20.75H19C19.1989 20.75 19.3897 20.671 19.5303 20.5303C19.671 20.3897 19.75 20.1989 19.75 20C19.75 19.8011 19.671 19.6103 19.5303 19.4697C19.3897 19.329 19.1989 19.25 19 19.25H13C12.8011 19.25 12.6103 19.329 12.4697 19.4697C12.329 19.6103 12.25 19.8011 12.25 20C12.25 20.1989 12.329 20.3897 12.4697 20.5303C12.6103 20.671 12.8011 20.75 13 20.75Z" fill="#0F0F0F"/>
<path d="M30.75 14C30.75 13.2904 30.5487 12.5954 30.1695 11.9957C29.7902 11.396 29.2486 10.9162 28.6076 10.612C27.9665 10.3078 27.2523 10.1918 26.548 10.2773C25.8436 10.3628 25.1779 10.6465 24.6283 11.0952C24.0787 11.544 23.6676 12.1395 23.443 12.8125C23.2183 13.4856 23.1892 14.2085 23.359 14.8975C23.5288 15.5864 23.8906 16.213 24.4023 16.7045C24.9141 17.196 25.5548 17.5323 26.25 17.6742V23.81C26.2488 24.722 25.886 25.5963 25.2411 26.2412C24.5963 26.886 23.722 27.2488 22.81 27.25H9.19049C8.2785 27.2488 7.4042 26.886 6.75933 26.2412C6.11445 25.5963 5.75165 24.722 5.75049 23.81V10.1928C5.75168 9.28067 6.11461 8.40624 6.75967 7.76135C7.40474 7.11646 8.27925 6.75375 9.19139 6.7528L16.3259 6.75C16.5117 7.66053 17.0291 8.46962 17.7776 9.0204C18.5261 9.57118 19.4524 9.82442 20.377 9.73101C21.3016 9.63761 22.1586 9.20422 22.7818 8.51487C23.4051 7.82551 23.7501 6.92931 23.7501 6C23.7501 5.07069 23.4051 4.17449 22.7818 3.48514C22.1586 2.79578 21.3016 2.36239 20.377 2.26899C19.4524 2.17559 18.5261 2.42882 17.7776 2.9796C17.0291 3.53038 16.5117 4.33947 16.3259 5.25L9.19049 5.2524C7.88081 5.25402 6.62524 5.775 5.69916 6.70108C4.77308 7.62716 4.2521 8.88273 4.25049 10.1924V23.81C4.2521 25.1197 4.77308 26.3752 5.69916 27.3013C6.62524 28.2274 7.88081 28.7484 9.19049 28.75H22.81C24.1197 28.7484 25.3752 28.2274 26.3013 27.3013C27.2274 26.3752 27.7484 25.1197 27.75 23.81V17.6741C28.5964 17.5002 29.3569 17.0398 29.9034 16.3706C30.4499 15.7013 30.7489 14.864 30.75 14ZM20 3.75C20.445 3.75 20.88 3.88196 21.25 4.12919C21.62 4.37643 21.9084 4.72783 22.0787 5.13896C22.249 5.5501 22.2936 6.0025 22.2068 6.43895C22.1199 6.87541 21.9056 7.27632 21.591 7.59099C21.2763 7.90566 20.8754 8.11995 20.4389 8.20677C20.0025 8.29358 19.5501 8.24903 19.139 8.07873C18.7278 7.90843 18.3764 7.62004 18.1292 7.25003C17.8819 6.88002 17.75 6.44501 17.75 6C17.7507 5.40347 17.9879 4.83155 18.4097 4.40974C18.8315 3.98793 19.4035 3.75066 20 3.75ZM27 16.25C26.555 16.25 26.12 16.118 25.75 15.8708C25.3799 15.6236 25.0916 15.2722 24.9213 14.861C24.751 14.4499 24.7064 13.9975 24.7932 13.561C24.88 13.1246 25.0943 12.7237 25.409 12.409C25.7237 12.0943 26.1246 11.8801 26.561 11.7932C26.9975 11.7064 27.4499 11.751 27.861 11.9213C28.2722 12.0916 28.6236 12.38 28.8708 12.75C29.118 13.12 29.25 13.555 29.25 14C29.2494 14.5965 29.0121 15.1685 28.5903 15.5903C28.1685 16.0121 27.5965 16.2494 27 16.25Z" fill="#0F0F0F"/>
</svg>
