<svg width="32" height="32" viewBox="0 0 32 32" fill="none" xmlns="http://www.w3.org/2000/svg">
<path d="M15.6504 28.6497C15.8304 28.4599 16.1696 28.4599 16.3496 28.6497C16.4495 28.7396 16.4999 28.8694 16.5 28.9993C16.5 29.1293 16.4496 29.2599 16.3496 29.3499C16.2596 29.4496 16.1299 29.4993 16 29.4993C15.8701 29.4993 15.7404 29.4496 15.6504 29.3499C15.5504 29.2599 15.5 29.1293 15.5 28.9993C15.5001 28.8694 15.5505 28.7396 15.6504 28.6497ZM6.62012 24.7297C6.8001 24.6598 7.02015 24.7001 7.16016 24.8401C7.21016 24.8801 7.24051 24.9403 7.27051 25.0003C7.29045 25.0601 7.31053 25.1299 7.31055 25.1897C7.31055 25.3297 7.25016 25.4501 7.16016 25.5501C7.07017 25.6399 6.94039 25.6897 6.81055 25.6897C6.68071 25.6897 6.55093 25.6399 6.46094 25.5501C6.36094 25.4501 6.31055 25.3297 6.31055 25.1897C6.31056 25.1298 6.32074 25.0601 6.35059 25.0003C6.37059 24.9403 6.41094 24.8801 6.46094 24.8401C6.50086 24.7902 6.56023 24.7597 6.62012 24.7297ZM24.8398 24.8391C25.0299 24.6495 25.3599 24.6493 25.5498 24.8391C25.6398 24.9291 25.6895 25.0597 25.6895 25.1897C25.6894 25.3195 25.6395 25.4492 25.5498 25.5491C25.4498 25.6391 25.3195 25.6897 25.1895 25.6897C25.0595 25.6897 24.9298 25.6391 24.8398 25.5491C24.7499 25.4591 24.6895 25.3296 24.6895 25.1897C24.6895 25.1297 24.7095 25.0593 24.7295 24.9993C24.7596 24.9393 24.8398 24.8391 24.8398 24.8391ZM16 7.49928C20.6943 7.49928 24.4997 11.3051 24.5 15.9993C24.5 20.6937 20.6944 24.4993 16 24.4993C11.3056 24.4993 7.5 20.6937 7.5 15.9993C7.50026 11.3051 11.3057 7.49928 16 7.49928ZM16 8.49928C11.858 8.49928 8.50026 11.8574 8.5 15.9993C8.5 20.1414 11.8579 23.4993 16 23.4993C20.1421 23.4993 23.5 20.1414 23.5 15.9993C23.4997 11.8574 20.142 8.49928 16 8.49928ZM2.65039 15.6497C2.79041 15.5099 3.01056 15.4604 3.19043 15.5403C3.25013 15.5603 3.30972 15.6 3.34961 15.6497C3.44961 15.7397 3.5 15.8703 3.5 16.0003C3.49991 16.1301 3.44952 16.2599 3.34961 16.3499C3.25962 16.4497 3.12992 16.5003 3 16.5003C2.87008 16.5003 2.74038 16.4497 2.65039 16.3499C2.55048 16.2599 2.50009 16.1301 2.5 16.0003C2.5 15.8703 2.55039 15.7397 2.65039 15.6497ZM28.8096 15.5393C28.9296 15.4893 29.0704 15.4893 29.1904 15.5393C29.2503 15.5594 29.3104 15.5997 29.3604 15.6497C29.4502 15.7396 29.4999 15.8695 29.5 15.9993C29.5 16.1292 29.4503 16.2599 29.3604 16.3499C29.3105 16.3997 29.2503 16.4392 29.1904 16.4592C29.1304 16.4892 29.07 16.4993 29 16.4993C28.93 16.4993 28.8696 16.4892 28.8096 16.4592C28.7499 16.4392 28.6903 16.3996 28.6504 16.3499C28.6004 16.3099 28.56 16.2497 28.54 16.1897C28.5 16.1297 28.5 16.0693 28.5 15.9993C28.5001 15.8694 28.5505 15.7396 28.6504 15.6497C28.6903 15.5998 28.7497 15.5593 28.8096 15.5393ZM6.46094 6.45924C6.6409 6.26979 6.97023 6.26978 7.16016 6.45924C7.25016 6.54924 7.31055 6.67983 7.31055 6.80983C7.31049 6.93977 7.25012 7.06948 7.16016 7.15944C7.07016 7.25939 6.94051 7.30983 6.81055 7.30983C6.68059 7.30983 6.55093 7.24939 6.46094 7.15944C6.36098 7.06948 6.31059 6.93977 6.31055 6.80983C6.31055 6.67983 6.36094 6.54924 6.46094 6.45924ZM24.8398 6.44948C25.0299 6.26978 25.3599 6.26958 25.5498 6.44948C25.6398 6.54947 25.6895 6.67985 25.6895 6.80983C25.6894 6.93964 25.6396 7.06948 25.5498 7.15944C25.4498 7.25944 25.3195 7.30983 25.1895 7.30983C25.0595 7.30983 24.9298 7.25941 24.8398 7.15944C24.7499 7.06946 24.6895 6.93979 24.6895 6.80983C24.6895 6.73983 24.7095 6.6794 24.7295 6.6194C24.7594 6.55949 24.7899 6.4994 24.8398 6.44948ZM15.6504 2.64967C15.8304 2.45988 16.1696 2.45988 16.3496 2.64967C16.4495 2.7396 16.4999 2.86938 16.5 2.99928C16.5 3.12928 16.4496 3.25987 16.3496 3.34987C16.2596 3.44964 16.1299 3.49928 16 3.49928C15.8701 3.49928 15.7404 3.44964 15.6504 3.34987C15.5504 3.25987 15.5 3.12928 15.5 2.99928C15.5001 2.86938 15.5505 2.7396 15.6504 2.64967Z" fill="#0F0F0F"/>
</svg>
