<svg width="32" height="32" viewBox="0 0 32 32" fill="none" xmlns="http://www.w3.org/2000/svg">
<path d="M16 26C16.5523 26 17 26.4477 17 27V29C17 29.5523 16.5523 30 16 30C15.4477 30 15 29.5523 15 29V27C15 26.4477 15.4477 26 16 26ZM7.29297 23.293C7.68349 22.9024 8.31651 22.9024 8.70703 23.293C9.09756 23.6835 9.09756 24.3165 8.70703 24.707L7.20703 26.207C6.81651 26.5976 6.18349 26.5976 5.79297 26.207C5.40244 25.8165 5.40244 25.1835 5.79297 24.793L7.29297 23.293ZM23.293 23.293C23.6591 22.9269 24.2381 22.9043 24.6309 23.2246L24.707 23.293L26.207 24.793L26.2754 24.8691C26.5957 25.2619 26.5731 25.8409 26.207 26.207C25.8409 26.5731 25.2619 26.5957 24.8691 26.2754L24.793 26.207L23.293 24.707L23.2246 24.6309C22.9043 24.2381 22.9269 23.6591 23.293 23.293ZM16 8C20.4183 8 24 11.5817 24 16C24 20.4183 20.4183 24 16 24C11.5817 24 8 20.4183 8 16C8 11.5817 11.5817 8 16 8ZM15 10.084C12.1624 10.5601 10 13.0271 10 16C10 18.9729 12.1624 21.4388 15 21.915V10.084ZM17 21.915C19.8376 21.4388 22 18.9729 22 16C22 13.0271 19.8376 10.5601 17 10.084V21.915ZM5 15C5.55228 15 6 15.4477 6 16C6 16.5523 5.55228 17 5 17H3C2.44772 17 2 16.5523 2 16C2 15.4477 2.44772 15 3 15H5ZM29 15C29.5523 15 30 15.4477 30 16C30 16.5523 29.5523 17 29 17H27C26.4477 17 26 16.5523 26 16C26 15.4477 26.4477 15 27 15H29ZM24.793 5.79297C25.1835 5.40244 25.8165 5.40244 26.207 5.79297C26.5976 6.18349 26.5976 6.81651 26.207 7.20703L24.707 8.70703C24.3165 9.09756 23.6835 9.09756 23.293 8.70703C22.9024 8.31651 22.9024 7.68349 23.293 7.29297L24.793 5.79297ZM5.79297 5.79297C6.15908 5.42685 6.73809 5.40426 7.13086 5.72461L7.20703 5.79297L8.70703 7.29297L8.77539 7.36914C9.09574 7.76191 9.07315 8.34092 8.70703 8.70703C8.34092 9.07315 7.76191 9.09574 7.36914 8.77539L7.29297 8.70703L5.79297 7.20703L5.72461 7.13086C5.40426 6.73809 5.42685 6.15908 5.79297 5.79297ZM16 2C16.5523 2 17 2.44772 17 3V5C17 5.55228 16.5523 6 16 6C15.4477 6 15 5.55228 15 5V3C15 2.44772 15.4477 2 16 2Z" fill="#0F0F0F"/>
</svg>
