<svg width="32" height="32" viewBox="0 0 32 32" fill="none" xmlns="http://www.w3.org/2000/svg">
<path d="M15.71 28.3102C15.9 28.2302 16.11 28.2302 16.29 28.3102C16.38 28.3502 16.4603 28.4003 16.5303 28.4703C16.67 28.6102 16.7499 28.7999 16.75 28.9996C16.75 29.0995 16.7303 29.1998 16.6904 29.2897C16.6605 29.3796 16.6002 29.4599 16.5303 29.5299C16.4603 29.5999 16.38 29.66 16.29 29.6901C16.2 29.7301 16.1 29.7496 16 29.7496C15.9 29.7496 15.8 29.7301 15.71 29.6901C15.62 29.6501 15.5397 29.5999 15.4697 29.5299C15.3998 29.4599 15.3495 29.3796 15.3096 29.2897C15.2697 29.1998 15.25 29.0995 15.25 28.9996C15.2501 28.7999 15.33 28.6102 15.4697 28.4703C15.5397 28.4003 15.62 28.3502 15.71 28.3102ZM6.52051 24.4996C6.70023 24.4199 6.90993 24.4199 7.09961 24.4996C7.18952 24.5396 7.2699 24.5899 7.33984 24.6598C7.40979 24.7297 7.46001 24.8099 7.5 24.9098C7.54 24.9998 7.56055 25.1 7.56055 25.1901C7.56054 25.29 7.53999 25.3901 7.5 25.4801C7.46001 25.57 7.40982 25.6503 7.33984 25.7203C7.26991 25.7902 7.18949 25.8503 7.09961 25.8902C6.99996 25.9201 6.91019 25.94 6.81055 25.9401C6.71072 25.9401 6.61038 25.9202 6.52051 25.8902C6.43062 25.8503 6.35021 25.7902 6.28027 25.7203C6.14029 25.5903 6.06056 25.39 6.06055 25.1901C6.06055 24.99 6.14027 24.7998 6.28027 24.6598C6.35022 24.5899 6.4306 24.5396 6.52051 24.4996ZM24.9102 24.4996C25.0899 24.4198 25.2997 24.4199 25.4795 24.4996C25.5694 24.5396 25.6498 24.5899 25.7197 24.6598C25.8597 24.7998 25.9404 25 25.9404 25.1901C25.9404 25.29 25.9196 25.3901 25.8896 25.4801C25.8496 25.57 25.7897 25.6504 25.7197 25.7203C25.6498 25.7902 25.5694 25.8503 25.4795 25.8902C25.3898 25.9201 25.2901 25.94 25.1904 25.9401C25.1005 25.9401 25.0001 25.9202 24.9102 25.8902C24.8103 25.8503 24.7301 25.7902 24.6602 25.7203C24.5202 25.5903 24.4404 25.39 24.4404 25.1901C24.4404 25.09 24.46 24.9998 24.5 24.9098C24.54 24.8099 24.5902 24.7297 24.6602 24.6598C24.7301 24.5899 24.8103 24.5396 24.9102 24.4996ZM16 8.24962C20.2801 8.24962 23.7498 11.7196 23.75 15.9996C23.75 20.2798 20.2802 23.7496 16 23.7496C11.7198 23.7496 8.25 20.2798 8.25 15.9996C8.2502 11.7196 11.7199 8.24962 16 8.24962ZM16 9.74962C12.5483 9.74962 9.7502 12.548 9.75 15.9996C9.75 19.4514 12.5482 22.2496 16 22.2496C19.4518 22.2496 22.25 19.4514 22.25 15.9996C22.2498 12.548 19.4517 9.74962 16 9.74962ZM2.70996 15.3102C2.89996 15.2302 3.10004 15.2302 3.29004 15.3102C3.38 15.3502 3.4603 15.4003 3.53027 15.4703C3.60008 15.5402 3.66045 15.6198 3.69043 15.7096C3.73038 15.7995 3.74995 15.8997 3.75 15.9996C3.75 16.0995 3.7303 16.1998 3.69043 16.2897C3.66046 16.3796 3.60019 16.4599 3.53027 16.5299C3.46028 16.5999 3.38003 16.6501 3.29004 16.6901C3.19004 16.7301 3.1 16.7496 3 16.7496C2.9 16.7496 2.80996 16.7301 2.70996 16.6901C2.61997 16.66 2.53972 16.5999 2.46973 16.5299C2.39982 16.4599 2.34953 16.3796 2.30957 16.2897C2.2697 16.1998 2.25 16.0995 2.25 15.9996C2.2501 15.7999 2.33 15.6102 2.46973 15.4703C2.5397 15.4003 2.62 15.3502 2.70996 15.3102ZM28.71 15.3102C28.9 15.2302 29.11 15.2302 29.29 15.3102C29.38 15.3502 29.4603 15.4003 29.5303 15.4703C29.6001 15.5402 29.6604 15.6198 29.6904 15.7096C29.7304 15.8095 29.75 15.8998 29.75 15.9996C29.75 16.1995 29.6702 16.3899 29.5303 16.5299C29.4603 16.5999 29.38 16.66 29.29 16.6901C29.2 16.7301 29.1 16.7496 29 16.7496C28.9 16.7496 28.81 16.7301 28.71 16.6901C28.62 16.66 28.5397 16.5999 28.4697 16.5299C28.3998 16.4599 28.3495 16.3796 28.3096 16.2897C28.2697 16.1998 28.25 16.0995 28.25 15.9996C28.2501 15.7999 28.33 15.6102 28.4697 15.4703C28.5397 15.4003 28.62 15.3502 28.71 15.3102ZM6.52051 6.11974C6.70025 6.04001 6.9099 6.04001 7.09961 6.11974C7.18954 6.14972 7.26988 6.20996 7.33984 6.27989C7.40984 6.34989 7.46 6.43013 7.5 6.52013C7.53997 6.61011 7.56055 6.7102 7.56055 6.81017C7.56052 6.90012 7.53997 7.00027 7.5 7.10021C7.46001 7.19013 7.40979 7.27049 7.33984 7.34044C7.26992 7.41027 7.18947 7.45968 7.09961 7.49962C6.99988 7.53949 6.91027 7.5601 6.81055 7.56017C6.71063 7.56017 6.61045 7.53955 6.52051 7.49962C6.43065 7.45968 6.35019 7.41027 6.28027 7.34044C6.14031 7.20048 6.06059 7.0101 6.06055 6.81017C6.06055 6.61017 6.14027 6.41989 6.28027 6.27989C6.35024 6.20996 6.43058 6.14972 6.52051 6.11974ZM24.9102 6.10997C25.09 6.0401 25.2996 6.04015 25.4795 6.10997C25.5694 6.14994 25.6498 6.20996 25.7197 6.27989C25.8597 6.41989 25.9404 6.61017 25.9404 6.81017C25.9404 7.0101 25.8597 7.20048 25.7197 7.34044C25.6498 7.41027 25.5693 7.45968 25.4795 7.49962C25.3897 7.53949 25.2902 7.5601 25.1904 7.56017C25.1004 7.56017 25.0001 7.53961 24.9102 7.49962C24.8103 7.45968 24.7301 7.41027 24.6602 7.34044C24.5902 7.27049 24.54 7.19012 24.5 7.10021C24.46 7.00027 24.4405 6.9101 24.4404 6.81017C24.4404 6.7102 24.46 6.6101 24.5 6.52013C24.54 6.43013 24.5902 6.34989 24.6602 6.27989C24.7301 6.20996 24.8102 6.14994 24.9102 6.10997ZM15.71 2.31017C15.9 2.23017 16.11 2.23017 16.29 2.31017C16.38 2.35016 16.4603 2.40035 16.5303 2.47032C16.6001 2.54019 16.6604 2.61981 16.6904 2.70958C16.7304 2.80946 16.7499 2.89977 16.75 2.99962C16.75 3.19953 16.6702 3.38991 16.5303 3.52989C16.4603 3.59989 16.38 3.65005 16.29 3.69005C16.2 3.73005 16.1 3.74962 16 3.74962C15.8 3.74962 15.6097 3.66989 15.4697 3.52989C15.3298 3.38991 15.25 3.19953 15.25 2.99962C15.2501 2.89977 15.2696 2.80946 15.3096 2.70958C15.3495 2.61979 15.3999 2.5402 15.4697 2.47032C15.5397 2.40035 15.62 2.35016 15.71 2.31017Z" fill="#0F0F0F"/>
</svg>
