<svg width="32" height="32" viewBox="0 0 32 32" fill="none" xmlns="http://www.w3.org/2000/svg">
<path d="M15.29 28.29C15.66 27.9202 16.33 27.9202 16.71 28.29C16.8899 28.48 16.9999 28.7401 17 29C17 29.2599 16.8899 29.52 16.71 29.71C16.52 29.89 16.27 30 16 30C15.73 30 15.48 29.89 15.29 29.71C15.1101 29.52 15 29.2599 15 29C15.0001 28.7401 15.1101 28.48 15.29 28.29ZM24.999 24.21C25.1889 24.17 25.3892 24.1897 25.5791 24.2695C25.6991 24.3195 25.8094 24.3902 25.8994 24.4902C26.0893 24.6702 26.1894 24.9305 26.1895 25.1904C26.1893 25.4503 26.0893 25.7105 25.8994 25.9004C25.8095 25.9903 25.699 26.0702 25.5791 26.1201C25.4492 26.17 25.3193 26.1904 25.1895 26.1904C25.1295 26.1904 25.059 26.1899 24.999 26.1699C24.9293 26.1599 24.8694 26.1401 24.8096 26.1201C24.7496 26.0901 24.6896 26.0595 24.6396 26.0195C24.5797 25.9896 24.5292 25.9503 24.4893 25.9004C24.3893 25.8105 24.3195 25.7002 24.2695 25.5703C24.2196 25.4504 24.1895 25.3203 24.1895 25.1904C24.1895 24.9305 24.2994 24.6702 24.4893 24.4902C24.5293 24.4402 24.5797 24.4003 24.6396 24.3604C24.6896 24.3304 24.7496 24.2895 24.8096 24.2695C24.8694 24.2396 24.9293 24.2101 24.999 24.21ZM6.10059 24.4795C6.47056 24.1198 7.14055 24.1098 7.52051 24.4795C7.70041 24.6694 7.81042 24.9196 7.81055 25.1895C7.81055 25.4593 7.70037 25.7094 7.52051 25.8994C7.42051 25.9894 7.31043 26.0601 7.19043 26.1201C7.07048 26.1701 6.94048 26.1895 6.81055 26.1895C6.54055 26.1895 6.29059 26.0894 6.10059 25.8994C5.91073 25.7094 5.81055 25.4494 5.81055 25.1895C5.81066 24.9296 5.9107 24.6694 6.10059 24.4795ZM16 6C21.5228 6 26 10.4772 26 16C26 21.5229 21.5228 26 16 26C10.4772 26 6 21.5229 6 16C6.00004 10.4772 10.4772 6 16 6ZM16 11C15.6687 11.0001 15.3616 11.1638 15.1768 11.4316L15.1055 11.5527L11.6055 18.5527C11.3586 19.0466 11.559 19.6475 12.0527 19.8945C12.5467 20.1415 13.1475 19.9412 13.3945 19.4473L14.1182 18H17.8818L18.6055 19.4473L18.6562 19.5361C18.9275 19.9642 19.4842 20.1259 19.9473 19.8945C20.4104 19.663 20.6153 19.1204 20.4355 18.6465L20.3945 18.5527L16.8945 11.5527C16.7251 11.214 16.3787 11 16 11ZM2.29004 15.29C2.66002 14.9202 3.33998 14.9202 3.70996 15.29C3.89989 15.48 3.99993 15.7401 4 16C4 16.2599 3.89987 16.52 3.70996 16.71C3.51996 16.89 3.27 17 3 17C2.87 17 2.74012 16.9699 2.62012 16.9199C2.49012 16.8699 2.38004 16.8 2.29004 16.71C2.11012 16.52 2 16.2599 2 16C2.00008 15.7401 2.1101 15.48 2.29004 15.29ZM28.29 15.29C28.57 15.0201 29.0099 14.9302 29.3799 15.0801C29.5098 15.1301 29.62 15.2001 29.71 15.29C29.8899 15.48 30 15.74 30 16C30 16.26 29.8899 16.52 29.71 16.71C29.52 16.89 29.26 17 29 17C28.74 17 28.48 16.89 28.29 16.71C28.1101 16.52 28 16.26 28 16C28 15.74 28.1101 15.48 28.29 15.29ZM16.8818 16H15.1182L16 14.2363L16.8818 16ZM24.4893 6.09961C24.7592 5.81982 25.2092 5.73012 25.5791 5.87988C25.699 5.93983 25.8095 6.00973 25.8994 6.09961C25.9893 6.1895 26.0691 6.29989 26.1191 6.42969C26.1691 6.54969 26.1895 6.68055 26.1895 6.81055C26.1893 7.07039 26.0893 7.33062 25.8994 7.52051C25.8095 7.6104 25.699 7.68051 25.5791 7.73047C25.4492 7.78037 25.3193 7.81055 25.1895 7.81055C24.9295 7.81055 24.6693 7.70044 24.4893 7.52051C24.2994 7.33062 24.1896 7.07039 24.1895 6.81055C24.1895 6.68055 24.2195 6.54969 24.2695 6.42969C24.3195 6.29985 24.3894 6.18952 24.4893 6.09961ZM6.10059 6.09961C6.47057 5.72978 7.14053 5.72978 7.52051 6.09961C7.70045 6.28955 7.81047 6.54966 7.81055 6.80957C7.81055 7.06956 7.7005 7.32977 7.52051 7.50977C7.42051 7.60976 7.31042 7.67949 7.19043 7.72949C7.07043 7.77949 6.94055 7.80957 6.81055 7.80957C6.54055 7.80957 6.29059 7.69977 6.10059 7.50977C5.91059 7.32977 5.81055 7.06956 5.81055 6.80957C5.81061 6.54966 5.91065 6.28955 6.10059 6.09961ZM15.29 2.29004C15.66 1.92021 16.33 1.92021 16.71 2.29004C16.75 2.34003 16.8001 2.3902 16.8301 2.4502C16.87 2.50015 16.8999 2.56017 16.9199 2.62012C16.9498 2.67997 16.9803 2.73995 16.9805 2.7998C17.0004 2.86972 17 2.93011 17 3C17 3.1299 16.9798 3.25996 16.9199 3.37988C16.8699 3.49983 16.7999 3.61 16.71 3.70996C16.52 3.88996 16.26 4 16 4C15.74 4 15.48 3.88996 15.29 3.70996C15.2001 3.61 15.1301 3.49983 15.0801 3.37988C15.0202 3.25996 15 3.1299 15 3C15 2.93011 15.0195 2.86972 15.0195 2.7998C15.0296 2.73993 15.0501 2.68 15.0801 2.62012C15.1001 2.56017 15.13 2.50015 15.1699 2.4502C15.2099 2.3902 15.25 2.34004 15.29 2.29004Z" fill="#0F0F0F"/>
</svg>
