<svg width="32" height="32" viewBox="0 0 32 32" fill="none" xmlns="http://www.w3.org/2000/svg">
<path d="M16.75 2C16.75 1.58579 16.4142 1.25 16 1.25C15.5858 1.25 15.25 1.58579 15.25 2V5C15.25 5.41421 15.5858 5.75 16 5.75C16.4142 5.75 16.75 5.41421 16.75 5V2Z" fill="#0F0F0F"/>
<path d="M16.75 27C16.75 26.5858 16.4142 26.25 16 26.25C15.5858 26.25 15.25 26.5858 15.25 27V30C15.25 30.4142 15.5858 30.75 16 30.75C16.4142 30.75 16.75 30.4142 16.75 30V27Z" fill="#0F0F0F"/>
<path d="M26.25 16C26.25 15.5858 26.5858 15.25 27 15.25L30 15.25C30.4142 15.25 30.75 15.5858 30.75 16C30.75 16.4142 30.4142 16.75 30 16.75L27 16.75C26.5858 16.75 26.25 16.4142 26.25 16Z" fill="#0F0F0F"/>
<path d="M2 15.25C1.58579 15.25 1.25 15.5858 1.25 16C1.25 16.4142 1.58579 16.75 2 16.75H5C5.41421 16.75 5.75 16.4142 5.75 16C5.75 15.5858 5.41421 15.25 5 15.25H2Z" fill="#0F0F0F"/>
<path d="M8.25 16C8.25 11.7198 11.7198 8.25 16 8.25C20.2802 8.25 23.75 11.7198 23.75 16C23.75 20.2802 20.2802 23.75 16 23.75C11.7198 23.75 8.25 20.2802 8.25 16ZM15.25 9.79454C12.1518 10.1651 9.75 12.802 9.75 16C9.75 19.198 12.1518 21.8349 15.25 22.2055L15.25 9.79454ZM22.25 16C22.25 12.802 19.8482 10.1651 16.75 9.79454L16.75 22.2055C19.8482 21.8349 22.25 19.198 22.25 16Z" fill="#0F0F0F"/>
<path d="M8.78032 8.78035C8.48742 9.07324 8.01255 9.07323 7.71966 8.78033L5.57024 6.63082C5.27736 6.33792 5.27737 5.86305 5.57027 5.57016C5.86317 5.27727 6.33804 5.27729 6.63093 5.57018L8.78034 7.71969C9.07323 8.01259 9.07322 8.48746 8.78032 8.78035Z" fill="#0F0F0F"/>
<path d="M26.4301 25.3691L24.2804 23.2197C23.9875 22.9268 23.5126 22.9268 23.2197 23.2197C22.9269 23.5126 22.9269 23.9875 23.2198 24.2804L25.3694 26.4298C25.6623 26.7227 26.1372 26.7227 26.4301 26.4298C26.723 26.1369 26.723 25.662 26.4301 25.3691Z" fill="#0F0F0F"/>
<path d="M8.78045 24.2803L6.63107 26.4298C6.33818 26.7227 5.8633 26.7227 5.57041 26.4298C5.27751 26.1369 5.2775 25.662 5.57039 25.3691L7.71978 23.2197C8.01266 22.9268 8.48754 22.9268 8.78044 23.2197C9.07333 23.5126 9.07334 23.9874 8.78045 24.2803Z" fill="#0F0F0F"/>
<path d="M23.2196 7.71965C22.9267 8.01253 22.9266 8.4874 23.2195 8.78031C23.5124 9.07321 23.9873 9.07323 24.2802 8.78035L26.4298 6.63086C26.7227 6.33798 26.7228 5.8631 26.4299 5.5702C26.137 5.2773 25.6621 5.27728 25.3692 5.57016L23.2196 7.71965Z" fill="#0F0F0F"/>
</svg>
