<svg width="32" height="32" viewBox="0 0 32 32" fill="none" xmlns="http://www.w3.org/2000/svg">
<path d="M15.6504 28.6499C15.8304 28.4601 16.1696 28.4601 16.3496 28.6499C16.4495 28.7398 16.4999 28.8696 16.5 28.9995C16.5 29.1295 16.4496 29.2601 16.3496 29.3501C16.2596 29.4499 16.1299 29.4995 16 29.4995C15.8701 29.4995 15.7404 29.4499 15.6504 29.3501C15.5504 29.2601 15.5 29.1295 15.5 28.9995C15.5001 28.8696 15.5505 28.7398 15.6504 28.6499Z" fill="#0F0F0F"/>
<path d="M6.62012 24.73C6.8001 24.66 7.02015 24.7004 7.16016 24.8403C7.21016 24.8803 7.24051 24.9405 7.27051 25.0005C7.29045 25.0604 7.31053 25.1301 7.31055 25.1899C7.31055 25.3299 7.25016 25.4503 7.16016 25.5503C7.07017 25.6401 6.94039 25.6899 6.81055 25.6899C6.68071 25.6899 6.55093 25.6401 6.46094 25.5503C6.36094 25.4503 6.31055 25.3299 6.31055 25.1899C6.31056 25.1301 6.32074 25.0604 6.35059 25.0005C6.37059 24.9405 6.41094 24.8803 6.46094 24.8403C6.50086 24.7904 6.56023 24.7599 6.62012 24.73Z" fill="#0F0F0F"/>
<path d="M24.8398 24.8394C25.0299 24.6498 25.3599 24.6495 25.5498 24.8394C25.6398 24.9294 25.6895 25.0599 25.6895 25.1899C25.6894 25.3197 25.6395 25.4494 25.5498 25.5493C25.4498 25.6393 25.3195 25.6899 25.1895 25.6899C25.0595 25.6899 24.9298 25.6393 24.8398 25.5493C24.7499 25.4594 24.6895 25.3299 24.6895 25.1899C24.6895 25.1299 24.7095 25.0595 24.7295 24.9995C24.7596 24.9395 24.8398 24.8394 24.8398 24.8394Z" fill="#0F0F0F"/>
<path d="M16 11.4995C16.1892 11.4995 16.3625 11.6067 16.4473 11.7759L19.9473 18.7759L19.9834 18.8706C20.0435 19.0951 19.9396 19.3387 19.7236 19.4468C19.5077 19.5547 19.2511 19.4917 19.1074 19.3091L19.0527 19.2231L18.1914 17.4995H13.8086L12.9473 19.2231C12.8238 19.4701 12.5234 19.5703 12.2764 19.4468C12.0295 19.3232 11.9293 19.0228 12.0527 18.7759L15.5527 11.7759L15.5889 11.7153C15.6814 11.5817 15.8345 11.4995 16 11.4995ZM14.3086 16.4995H17.6914L16 13.1177L14.3086 16.4995Z" fill="#0F0F0F"/>
<path d="M16 6.49951C21.2465 6.49951 25.4997 10.753 25.5 15.9995C25.5 21.2462 21.2467 25.4995 16 25.4995C10.7533 25.4995 6.5 21.2462 6.5 15.9995C6.50026 10.753 10.7535 6.49951 16 6.49951ZM16 7.49951C11.3057 7.49951 7.50026 11.3053 7.5 15.9995C7.5 20.6939 11.3056 24.4995 16 24.4995C20.6944 24.4995 24.5 20.6939 24.5 15.9995C24.4997 11.3053 20.6943 7.49951 16 7.49951Z" fill="#0F0F0F"/>
<path d="M2.65039 15.6499C2.79041 15.5101 3.01056 15.4606 3.19043 15.5405C3.25013 15.5605 3.30972 15.6002 3.34961 15.6499C3.44961 15.7399 3.5 15.8705 3.5 16.0005C3.49991 16.1304 3.44952 16.2602 3.34961 16.3501C3.25962 16.45 3.12992 16.5005 3 16.5005C2.87008 16.5005 2.74038 16.45 2.65039 16.3501C2.55048 16.2602 2.50009 16.1304 2.5 16.0005C2.5 15.8705 2.55039 15.7399 2.65039 15.6499Z" fill="#0F0F0F"/>
<path d="M28.8096 15.5395C28.9296 15.4895 29.0704 15.4895 29.1904 15.5395C29.2503 15.5596 29.3104 15.6 29.3604 15.6499C29.4502 15.7398 29.4999 15.8697 29.5 15.9995C29.5 16.1295 29.4503 16.2601 29.3604 16.3501C29.3105 16.3999 29.2503 16.4394 29.1904 16.4595C29.1304 16.4895 29.07 16.4995 29 16.4995C28.93 16.4995 28.8696 16.4895 28.8096 16.4595C28.7499 16.4395 28.6903 16.3998 28.6504 16.3501C28.6004 16.3101 28.56 16.2499 28.54 16.1899C28.5 16.1299 28.5 16.0695 28.5 15.9995C28.5001 15.8697 28.5505 15.7398 28.6504 15.6499C28.6903 15.6001 28.7497 15.5595 28.8096 15.5395Z" fill="#0F0F0F"/>
<path d="M6.46094 6.45947C6.6409 6.27001 6.97023 6.27001 7.16016 6.45947C7.25016 6.54947 7.31055 6.68006 7.31055 6.81006C7.31049 6.94 7.25012 7.06971 7.16016 7.15967C7.07016 7.25961 6.94051 7.31006 6.81055 7.31006C6.68059 7.31006 6.55093 7.24962 6.46094 7.15967C6.36098 7.06971 6.31059 6.94 6.31055 6.81006C6.31055 6.68006 6.36094 6.54947 6.46094 6.45947Z" fill="#0F0F0F"/>
<path d="M24.8398 6.4497C25.0299 6.27001 25.3599 6.26981 25.5498 6.4497C25.6398 6.5497 25.6895 6.68008 25.6895 6.81006C25.6894 6.93987 25.6396 7.0697 25.5498 7.15967C25.4498 7.25967 25.3195 7.31006 25.1895 7.31006C25.0595 7.31006 24.9298 7.25964 24.8398 7.15967C24.7499 7.06969 24.6895 6.94002 24.6895 6.81006C24.6895 6.74006 24.7095 6.67963 24.7295 6.61963C24.7594 6.55971 24.7899 6.49963 24.8398 6.4497Z" fill="#0F0F0F"/>
<path d="M15.6504 2.6499C15.8304 2.4601 16.1696 2.4601 16.3496 2.6499C16.4495 2.73983 16.4999 2.86961 16.5 2.99951C16.5 3.12951 16.4496 3.26009 16.3496 3.35009C16.2596 3.44986 16.1299 3.49951 16 3.49951C15.8701 3.49951 15.7404 3.44986 15.6504 3.35009C15.5504 3.26009 15.5 3.12951 15.5 2.99951C15.5001 2.86961 15.5505 2.73983 15.6504 2.6499Z" fill="#0F0F0F"/>
</svg>
