<svg width="32" height="32" viewBox="0 0 32 32" fill="none" xmlns="http://www.w3.org/2000/svg">
<path d="M15.29 28.29C15.66 27.9202 16.33 27.9202 16.71 28.29C16.8899 28.48 16.9999 28.7401 17 29C17 29.2599 16.8899 29.52 16.71 29.71C16.52 29.89 16.27 30 16 30C15.73 30 15.48 29.89 15.29 29.71C15.1101 29.52 15 29.2599 15 29C15.0001 28.7401 15.1101 28.48 15.29 28.29ZM24.999 24.21C25.1889 24.17 25.3892 24.1897 25.5791 24.2695C25.6991 24.3195 25.8094 24.3902 25.8994 24.4902C26.0894 24.6702 26.1895 24.9305 26.1895 25.1904C26.1893 25.4503 26.0893 25.7105 25.8994 25.9004C25.8095 25.9903 25.699 26.0702 25.5791 26.1201C25.4492 26.17 25.3193 26.1904 25.1895 26.1904C25.1295 26.1904 25.059 26.1899 24.999 26.1699C24.9293 26.1599 24.8694 26.1401 24.8096 26.1201C24.7496 26.0901 24.6896 26.0595 24.6396 26.0195C24.5797 25.9896 24.5292 25.9503 24.4893 25.9004C24.3893 25.8105 24.3195 25.7002 24.2695 25.5703C24.2196 25.4504 24.1895 25.3203 24.1895 25.1904C24.1895 24.9305 24.2994 24.6702 24.4893 24.4902C24.5293 24.4402 24.5797 24.4003 24.6396 24.3603C24.6896 24.3303 24.7496 24.2895 24.8096 24.2695C24.8694 24.2396 24.9293 24.2101 24.999 24.21ZM6.10059 24.4795C6.47056 24.1198 7.14054 24.1098 7.52051 24.4795C7.70041 24.6694 7.81043 24.9196 7.81055 25.1894C7.81055 25.4593 7.70038 25.7094 7.52051 25.8994C7.42051 25.9894 7.31043 26.0601 7.19043 26.1201C7.07048 26.1701 6.94048 26.1894 6.81055 26.1894C6.54055 26.1894 6.29059 26.0894 6.10059 25.8994C5.91072 25.7094 5.81055 25.4494 5.81055 25.1894C5.81066 24.9296 5.91069 24.6694 6.10059 24.4795ZM16 8.24998C20.2802 8.24998 23.75 11.7198 23.75 16C23.75 20.2802 20.2802 23.75 16 23.75C11.7198 23.75 8.25 20.2802 8.25 16C8.25003 11.7198 11.7198 8.24998 16 8.24998ZM2.29004 15.29C2.66003 14.9202 3.33997 14.9202 3.70996 15.29C3.8999 15.48 3.99993 15.7401 4 16C4 16.2599 3.89988 16.52 3.70996 16.7099C3.51996 16.8899 3.27 17 3 17C2.87 17 2.74012 16.9699 2.62012 16.9199C2.49012 16.8699 2.38004 16.7999 2.29004 16.7099C2.11011 16.52 2 16.2599 2 16C2.00007 15.7401 2.1101 15.48 2.29004 15.29ZM28.29 15.29C28.57 15.0201 29.0099 14.9301 29.3799 15.0801C29.5099 15.13 29.62 15.2001 29.71 15.29C29.8899 15.48 30 15.74 30 16C30 16.26 29.8899 16.52 29.71 16.7099C29.52 16.8899 29.26 17 29 17C28.74 17 28.48 16.8899 28.29 16.7099C28.1101 16.52 28 16.26 28 16C28 15.74 28.1101 15.48 28.29 15.29ZM24.4893 6.09958C24.7592 5.81979 25.2092 5.73009 25.5791 5.87986C25.699 5.9398 25.8095 6.00971 25.8994 6.09958C25.9893 6.18948 26.0691 6.29986 26.1191 6.42966C26.1691 6.54966 26.1895 6.68052 26.1895 6.81052C26.1893 7.07037 26.0893 7.3306 25.8994 7.52048C25.8095 7.61037 25.699 7.68049 25.5791 7.73044C25.4492 7.78034 25.3193 7.81052 25.1895 7.81052C24.9295 7.81052 24.6693 7.70042 24.4893 7.52048C24.2994 7.3306 24.1896 7.07037 24.1895 6.81052C24.1895 6.68052 24.2195 6.54966 24.2695 6.42966C24.3195 6.29982 24.3894 6.1895 24.4893 6.09958ZM6.10059 6.09958C6.47057 5.72975 7.14053 5.72975 7.52051 6.09958C7.70045 6.28952 7.81047 6.54963 7.81055 6.80955C7.81055 7.06954 7.7005 7.32974 7.52051 7.50974C7.42051 7.60974 7.31042 7.67947 7.19043 7.72947C7.07043 7.77947 6.94055 7.80955 6.81055 7.80955C6.54055 7.80955 6.29059 7.69974 6.10059 7.50974C5.91059 7.32974 5.81055 7.06954 5.81055 6.80955C5.81061 6.54963 5.91065 6.28952 6.10059 6.09958ZM15.29 2.29001C15.66 1.92018 16.33 1.92018 16.71 2.29001C16.75 2.34 16.8001 2.39017 16.8301 2.45017C16.87 2.50012 16.8999 2.56014 16.9199 2.62009C16.9498 2.67994 16.9803 2.73992 16.9805 2.79977C17.0004 2.86969 17 2.93008 17 2.99997C17 3.12987 16.9798 3.25993 16.9199 3.37985C16.8699 3.4998 16.7999 3.60997 16.71 3.70993C16.52 3.88993 16.26 3.99997 16 3.99997C15.74 3.99997 15.48 3.88993 15.29 3.70993C15.2001 3.60997 15.1301 3.4998 15.0801 3.37985C15.0202 3.25993 15 3.12987 15 2.99997C15 2.93008 15.0195 2.86969 15.0195 2.79977C15.0296 2.7399 15.0501 2.67997 15.0801 2.62009C15.1001 2.56014 15.13 2.50012 15.1699 2.45017C15.2099 2.39017 15.25 2.34001 15.29 2.29001Z" fill="#0F0F0F"/>
</svg>
