<svg width="32" height="32" viewBox="0 0 32 32" fill="none" xmlns="http://www.w3.org/2000/svg">
<path d="M17 2C17 1.44772 16.5523 1 16 1C15.4477 1 15 1.44772 15 2V5C15 5.55228 15.4477 6 16 6C16.5523 6 17 5.55228 17 5V2Z" fill="#0F0F0F"/>
<path d="M17 27C17 26.4477 16.5523 26 16 26C15.4477 26 15 26.4477 15 27V30C15 30.5523 15.4477 31 16 31C16.5523 31 17 30.5523 17 30V27Z" fill="#0F0F0F"/>
<path d="M26 16C26 15.4477 26.4477 15 27 15L30 15C30.5523 15 31 15.4477 31 16C31 16.5523 30.5523 17 30 17L27 17C26.4477 17 26 16.5523 26 16Z" fill="#0F0F0F"/>
<path d="M2 15C1.44772 15 1 15.4477 1 16C1 16.5523 1.44772 17 2 17H5C5.55228 17 6 16.5523 6 16C6 15.4477 5.55228 15 5 15H2Z" fill="#0F0F0F"/>
<path d="M8 16C8 11.5817 11.5817 8 16 8C20.4183 8 24 11.5817 24 16C24 20.4183 20.4183 24 16 24C11.5817 24 8 20.4183 8 16ZM15 10.083C12.1623 10.559 10 13.027 10 16C10 18.973 12.1623 21.441 15 21.917L15 10.083ZM17 21.917C19.8377 21.441 22 18.973 22 16C22 13.027 19.8377 10.559 17 10.083V21.917Z" fill="#0F0F0F"/>
<path d="M8.95709 8.95712C8.56656 9.34764 7.93339 9.34763 7.54288 8.95709L5.39346 6.80759C5.00295 6.41706 5.00296 5.78389 5.39349 5.39337C5.78403 5.00286 6.41719 5.00287 6.80771 5.3934L8.95712 7.54291C9.34764 7.93344 9.34762 8.56661 8.95709 8.95712Z" fill="#0F0F0F"/>
<path d="M26.6068 25.1924L24.4572 23.0429C24.0666 22.6523 23.4335 22.6524 23.0429 23.0429C22.6524 23.4335 22.6525 24.0666 23.043 24.4571L25.1927 26.6066C25.5832 26.9971 26.2164 26.9971 26.6069 26.6066C26.9974 26.216 26.9974 25.5829 26.6068 25.1924Z" fill="#0F0F0F"/>
<path d="M8.95702 24.4571L6.80764 26.6065C6.41712 26.9971 5.78396 26.9971 5.39343 26.6066C5.0029 26.216 5.00289 25.5829 5.39341 25.1923L7.54279 23.0429C7.93331 22.6524 8.56647 22.6524 8.957 23.0429C9.34753 23.4334 9.34754 24.0666 8.95702 24.4571Z" fill="#0F0F0F"/>
<path d="M23.0428 7.54287C22.6523 7.93337 22.6523 8.56654 23.0428 8.95708C23.4333 9.34762 24.0664 9.34764 24.457 8.95713L26.6066 6.80764C26.9972 6.41713 26.9972 5.78397 26.6067 5.39343C26.2162 5.00289 25.583 5.00287 25.1925 5.39337L23.0428 7.54287Z" fill="#0F0F0F"/>
</svg>
