<svg width="32" height="32" viewBox="0 0 32 32" fill="none" xmlns="http://www.w3.org/2000/svg">
<path d="M16 1.5C16.2761 1.5 16.5 1.72386 16.5 2V5C16.5 5.27614 16.2761 5.5 16 5.5C15.7239 5.5 15.5 5.27614 15.5 5V2C15.5 1.72386 15.7239 1.5 16 1.5Z" fill="#0F0F0F"/>
<path d="M16 26.5C16.2761 26.5 16.5 26.7239 16.5 27V30C16.5 30.2761 16.2761 30.5 16 30.5C15.7239 30.5 15.5 30.2761 15.5 30V27C15.5 26.7239 15.7239 26.5 16 26.5Z" fill="#0F0F0F"/>
<path d="M27 15.5C26.7239 15.5 26.5 15.7239 26.5 16C26.5 16.2761 26.7239 16.5 27 16.5L30 16.5C30.2762 16.5 30.5 16.2761 30.5 16C30.5 15.7239 30.2762 15.5 30 15.5L27 15.5Z" fill="#0F0F0F"/>
<path d="M1.5 16C1.5 15.7239 1.72386 15.5 2 15.5H5C5.27614 15.5 5.5 15.7239 5.5 16C5.5 16.2761 5.27614 16.5 5 16.5H2C1.72386 16.5 1.5 16.2761 1.5 16Z" fill="#0F0F0F"/>
<path d="M16 8.5C11.8579 8.5 8.5 11.8579 8.5 16C8.5 20.1421 11.8579 23.5 16 23.5C20.1421 23.5 23.5 20.1421 23.5 16C23.5 11.8579 20.1421 8.5 16 8.5ZM9.5 16C9.5 12.4101 12.4101 9.5 16 9.5C19.5899 9.5 22.5 12.4101 22.5 16C22.5 19.5899 19.5899 22.5 16 22.5C12.4101 22.5 9.5 19.5899 9.5 16Z" fill="#0F0F0F"/>
<path d="M8.60355 8.60355C8.40828 8.7988 8.0917 8.7988 7.89644 8.60353L5.74703 6.45403C5.55177 6.25876 5.55177 5.94218 5.74704 5.74692C5.94231 5.55166 6.25889 5.55167 6.45415 5.74693L8.60356 7.89644C8.79882 8.09171 8.79881 8.40829 8.60355 8.60355Z" fill="#0F0F0F"/>
<path d="M26.2533 25.5459L24.1036 23.3964C23.9084 23.2012 23.5918 23.2012 23.3965 23.3965C23.2013 23.5917 23.2013 23.9083 23.3965 24.1036L25.5462 26.2531C25.7415 26.4483 26.0581 26.4483 26.2533 26.253C26.4486 26.0578 26.4486 25.7412 26.2533 25.5459Z" fill="#0F0F0F"/>
<path d="M8.60363 24.1035L6.45425 26.253C6.25899 26.4483 5.94241 26.4483 5.74714 26.253C5.55188 26.0577 5.55187 25.7412 5.74713 25.5459L7.89652 23.3965C8.09178 23.2012 8.40836 23.2012 8.60362 23.3964C8.79889 23.5917 8.79889 23.9083 8.60363 24.1035Z" fill="#0F0F0F"/>
<path d="M23.3965 7.89643C23.2013 8.09169 23.2013 8.40827 23.3965 8.60354C23.5918 8.79881 23.9083 8.79882 24.1036 8.60357L26.2533 6.45408C26.4485 6.25882 26.4486 5.94224 26.2533 5.74697C26.058 5.5517 25.7415 5.55169 25.5462 5.74694L23.3965 7.89643Z" fill="#0F0F0F"/>
</svg>
