<svg width="32" height="32" viewBox="0 0 32 32" fill="none" xmlns="http://www.w3.org/2000/svg">
<path d="M16 2.25C16.4142 2.25 16.75 2.58579 16.75 3V7.2832C18.6026 7.44049 20.2899 8.17451 21.6328 9.30566L24.9697 5.96973C25.2626 5.67683 25.7374 5.67683 26.0303 5.96973C26.3232 6.26262 26.3232 6.73738 26.0303 7.03027L22.6934 10.3662C23.825 11.7093 24.5585 13.397 24.7158 15.25H29C29.4142 15.25 29.75 15.5858 29.75 16C29.75 16.4142 29.4142 16.75 29 16.75H24.7158C24.5585 18.6028 23.8247 20.2898 22.6934 21.6328L26.0303 24.9697L26.082 25.0264C26.3223 25.3209 26.3049 25.7557 26.0303 26.0303C25.7557 26.3049 25.3209 26.3223 25.0264 26.082L24.9697 26.0303L21.6328 22.6934C20.2898 23.8247 18.6028 24.5585 16.75 24.7158V29C16.75 29.4142 16.4142 29.75 16 29.75C15.5858 29.75 15.25 29.4142 15.25 29V24.7158C13.397 24.5585 11.7093 23.825 10.3662 22.6934L7.03027 26.0303C6.73738 26.3232 6.26262 26.3232 5.96973 26.0303C5.67683 25.7374 5.67683 25.2626 5.96973 24.9697L9.30566 21.6328C8.17453 20.2899 7.44149 18.6025 7.28418 16.75H3C2.58579 16.75 2.25 16.4142 2.25 16C2.25 15.5858 2.58579 15.25 3 15.25H7.28418C7.44151 13.3972 8.17426 11.7092 9.30566 10.3662L5.96973 7.03027L5.91797 6.97363C5.67766 6.67905 5.69512 6.24433 5.96973 5.96973C6.24433 5.69512 6.67905 5.67766 6.97363 5.91797L7.03027 5.96973L10.3662 9.30566C11.7092 8.17424 13.3972 7.44052 15.25 7.2832V3C15.25 2.58579 15.5858 2.25 16 2.25ZM15.25 8.78809C11.5983 9.16337 8.75 12.2492 8.75 16C8.75 19.7508 11.5984 22.8356 15.25 23.2109V8.78809ZM16.75 23.2109C20.4016 22.8356 23.25 19.7508 23.25 16C23.25 12.2492 20.4017 9.16337 16.75 8.78809V23.2109Z" fill="black"/>
</svg>
