<svg width="32" height="32" viewBox="0 0 32 32" fill="none" xmlns="http://www.w3.org/2000/svg">
<path d="M16 1.25C16.4142 1.25 16.75 1.58579 16.75 2V5C16.75 5.41421 16.4142 5.75 16 5.75C15.5858 5.75 15.25 5.41421 15.25 5V2C15.25 1.58579 15.5858 1.25 16 1.25Z" fill="#0F0F0F"/>
<path d="M16 26.25C16.4142 26.25 16.75 26.5858 16.75 27V30C16.75 30.4142 16.4142 30.75 16 30.75C15.5858 30.75 15.25 30.4142 15.25 30V27C15.25 26.5858 15.5858 26.25 16 26.25Z" fill="#0F0F0F"/>
<path d="M27 15.25C26.5858 15.25 26.25 15.5858 26.25 16C26.25 16.4142 26.5858 16.75 27 16.75L30 16.75C30.4142 16.75 30.75 16.4142 30.75 16C30.75 15.5858 30.4142 15.25 30 15.25L27 15.25Z" fill="#0F0F0F"/>
<path d="M1.25 16C1.25 15.5858 1.58579 15.25 2 15.25H5C5.41421 15.25 5.75 15.5858 5.75 16C5.75 16.4142 5.41421 16.75 5 16.75H2C1.58579 16.75 1.25 16.4142 1.25 16Z" fill="#0F0F0F"/>
<path d="M16 8.25C11.7198 8.25 8.25 11.7198 8.25 16C8.25 20.2802 11.7198 23.75 16 23.75C20.2802 23.75 23.75 20.2802 23.75 16C23.75 11.7198 20.2802 8.25 16 8.25ZM9.75 16C9.75 12.5482 12.5482 9.75 16 9.75C19.4518 9.75 22.25 12.5482 22.25 16C22.25 19.4518 19.4518 22.25 16 22.25C12.5482 22.25 9.75 19.4518 9.75 16Z" fill="#0F0F0F"/>
<path d="M8.78032 8.78035C8.48742 9.07324 8.01255 9.07323 7.71966 8.78033L5.57024 6.63082C5.27736 6.33792 5.27737 5.86305 5.57027 5.57016C5.86317 5.27727 6.33804 5.27729 6.63093 5.57018L8.78034 7.71969C9.07323 8.01259 9.07322 8.48746 8.78032 8.78035Z" fill="#0F0F0F"/>
<path d="M26.4301 25.3691L24.2804 23.2197C23.9875 22.9268 23.5126 22.9268 23.2197 23.2197C22.9269 23.5126 22.9269 23.9875 23.2198 24.2804L25.3694 26.4298C25.6623 26.7227 26.1372 26.7227 26.4301 26.4298C26.723 26.1369 26.723 25.662 26.4301 25.3691Z" fill="#0F0F0F"/>
<path d="M8.78045 24.2803L6.63107 26.4298C6.33818 26.7227 5.8633 26.7227 5.57041 26.4298C5.27751 26.1369 5.2775 25.662 5.57039 25.3691L7.71978 23.2197C8.01266 22.9268 8.48754 22.9268 8.78044 23.2197C9.07333 23.5126 9.07334 23.9874 8.78045 24.2803Z" fill="#0F0F0F"/>
<path d="M23.2198 7.71965C22.9269 8.01253 22.9269 8.4874 23.2198 8.78031C23.5126 9.07321 23.9875 9.07323 24.2804 8.78035L26.4301 6.63086C26.723 6.33798 26.723 5.8631 26.4301 5.5702C26.1372 5.2773 25.6624 5.27728 25.3695 5.57016L23.2198 7.71965Z" fill="#0F0F0F"/>
</svg>
