<svg width="32" height="32" viewBox="0 0 32 32" fill="none" xmlns="http://www.w3.org/2000/svg">
<path d="M11 11.5004C10.9343 11.5004 10.8693 11.5133 10.8086 11.5384C10.7479 11.5635 10.6928 11.6004 10.6464 11.6468C10.5999 11.6933 10.5631 11.7484 10.538 11.8091C10.5129 11.8697 10.5 11.9348 10.5 12.0004V22.0005C10.5 22.1331 10.5527 22.2602 10.6464 22.354C10.7402 22.4478 10.8674 22.5005 11 22.5005C11.1326 22.5005 11.2598 22.4478 11.3536 22.354C11.4473 22.2602 11.5 22.1331 11.5 22.0005V12.0004C11.5 11.9348 11.4871 11.8697 11.462 11.8091C11.4369 11.7484 11.4001 11.6932 11.3536 11.6468C11.3072 11.6004 11.2521 11.5635 11.1914 11.5384C11.1307 11.5133 11.0657 11.5004 11 11.5004Z" fill="#0F0F0F"/>
<path d="M16 11.5004C15.9343 11.5004 15.8693 11.5133 15.8086 11.5384C15.7479 11.5635 15.6928 11.6004 15.6464 11.6468C15.5999 11.6933 15.5631 11.7484 15.538 11.8091C15.5129 11.8697 15.5 11.9348 15.5 12.0004V22.0005C15.5 22.1331 15.5527 22.2602 15.6464 22.354C15.7402 22.4478 15.8674 22.5005 16 22.5005C16.1326 22.5005 16.2598 22.4478 16.3536 22.354C16.4473 22.2602 16.5 22.1331 16.5 22.0005V12.0004C16.5 11.9348 16.4871 11.8697 16.462 11.8091C16.4369 11.7484 16.4001 11.6932 16.3536 11.6468C16.3072 11.6004 16.2521 11.5635 16.1914 11.5384C16.1307 11.5133 16.0657 11.5004 16 11.5004Z" fill="#0F0F0F"/>
<path d="M21 11.5004C20.9343 11.5004 20.8693 11.5133 20.8086 11.5384C20.7479 11.5635 20.6928 11.6004 20.6464 11.6468C20.5999 11.6933 20.5631 11.7484 20.538 11.8091C20.5129 11.8697 20.5 11.9348 20.5 12.0004V22.0005C20.5 22.1331 20.5527 22.2602 20.6464 22.354C20.7402 22.4478 20.8674 22.5005 21 22.5005C21.1326 22.5005 21.2598 22.4478 21.3536 22.354C21.4473 22.2602 21.5 22.1331 21.5 22.0005V12.0004C21.5 11.9348 21.4871 11.8697 21.462 11.8091C21.4369 11.7484 21.4001 11.6932 21.3536 11.6468C21.3072 11.6004 21.2521 11.5635 21.1914 11.5384C21.1307 11.5133 21.0657 11.5004 21 11.5004Z" fill="#0F0F0F"/>
<path d="M23 5.49947H22.5V3.00047C22.5 2.86786 22.4473 2.74068 22.3536 2.64692C22.2598 2.55315 22.1326 2.50047 22 2.50047C21.8674 2.50047 21.7402 2.55315 21.6464 2.64692C21.5527 2.74068 21.5 2.86786 21.5 3.00047V5.49947H10.5V3.00047C10.5 2.86786 10.4473 2.74068 10.3536 2.64692C10.2598 2.55315 10.1326 2.50047 10 2.50047C9.86739 2.50047 9.74022 2.55315 9.64645 2.64692C9.55268 2.74068 9.5 2.86786 9.5 3.00047V5.49947H9C7.80693 5.50078 6.66309 5.9753 5.81946 6.81893C4.97583 7.66256 4.5013 8.8064 4.5 9.99947V23.9995C4.5013 25.1925 4.97583 26.3364 5.81946 27.18C6.66309 28.0236 7.80693 28.4982 9 28.4995H23C24.1931 28.4982 25.3369 28.0236 26.1805 27.18C27.0242 26.3364 27.4987 25.1925 27.5 23.9995V9.99947C27.4987 8.8064 27.0242 7.66256 26.1805 6.81893C25.3369 5.9753 24.1931 5.50077 23 5.49947ZM26.5 23.9995C26.4989 24.9274 26.1298 25.817 25.4736 26.4731C24.8175 27.1292 23.9279 27.4983 23 27.4995H9C8.07209 27.4983 7.1825 27.1292 6.52637 26.4731C5.87023 25.817 5.50112 24.9274 5.5 23.9995V9.99947C5.50113 9.07156 5.87024 8.18197 6.52637 7.52584C7.1825 6.86971 8.07209 6.5006 9 6.49947H23C23.9279 6.50059 24.8175 6.8697 25.4736 7.52584C26.1298 8.18197 26.4989 9.07156 26.5 9.99947V23.9995Z" fill="#0F0F0F"/>
</svg>
