<svg width="32" height="32" viewBox="0 0 32 32" fill="none" xmlns="http://www.w3.org/2000/svg">
<path d="M16.4896 11.1176L15.4984 12.1118C15.0692 12.5422 14.7495 13.0692 14.5659 13.6487C14.3824 14.2281 14.3404 14.8431 14.4435 15.4421C13.8436 15.3388 13.2276 15.3806 12.6471 15.5641C12.0666 15.7475 11.5384 16.0672 11.1068 16.4965L10.1175 17.4907C9.40402 18.2061 9.00368 19.1755 9.00438 20.1859C9.00507 21.1963 9.40676 22.1651 10.1212 22.8795C10.8357 23.594 11.8045 23.9957 12.8149 23.9964C13.8253 23.9971 14.7946 23.5967 15.5101 22.8833L16.5023 21.8881C16.9313 21.4578 17.251 20.9309 17.4346 20.3516C17.6181 19.7723 17.6602 19.1574 17.5572 18.5585C17.7676 18.5966 17.9808 18.617 18.1947 18.6195C18.6954 18.6204 19.1913 18.5223 19.6541 18.3309C20.1168 18.1395 20.5371 17.8586 20.8909 17.5043L20.8919 17.5033L21.8832 16.5092C22.238 16.1552 22.5195 15.7347 22.7117 15.2719C22.9039 14.809 23.003 14.3128 23.0032 13.8116C23.0035 13.3104 22.9049 12.8141 22.7132 12.351C22.5215 11.8879 22.2403 11.4672 21.8859 11.1129C21.5314 10.7586 21.1106 10.4776 20.6475 10.286C20.1843 10.0945 19.688 9.9961 19.1868 9.99653C18.6856 9.99697 18.1894 10.0962 17.7266 10.2886C17.2638 10.4809 16.8434 10.7627 16.4896 11.1176ZM15.0872 20.4751L14.095 21.4702C13.7547 21.81 13.2933 22.0007 12.8124 22.0003C12.3315 22 11.8704 21.8086 11.5306 21.4682C11.1908 21.1279 11.0001 20.6665 11.0004 20.1856C11.0008 19.7047 11.1922 19.2436 11.5325 18.9038L12.5228 17.9096C12.7346 17.6971 12.9961 17.5408 13.2836 17.4549C13.5711 17.369 13.8755 17.3561 14.1692 17.4175L13.2933 18.2934C13.1058 18.4809 13.0004 18.7353 13.0004 19.0005C13.0004 19.2656 13.1058 19.52 13.2933 19.7075C13.4808 19.895 13.7351 20.0003 14.0003 20.0003C14.2655 20.0003 14.5198 19.895 14.7073 19.7075L15.5834 18.8314C15.6073 18.9501 15.6194 19.0708 15.6194 19.1919C15.6201 19.4303 15.5733 19.6665 15.482 19.8868C15.3906 20.1071 15.2564 20.307 15.0872 20.4751ZM20.4681 15.0962L19.4759 16.0913C19.2637 16.3025 19.0026 16.4578 18.7158 16.5436C18.429 16.6293 18.1254 16.6427 17.8322 16.5826L18.7073 15.7075C18.8002 15.6146 18.8738 15.5044 18.9241 15.3831C18.9743 15.2618 19.0002 15.1318 19.0002 15.0005C19.0002 14.8691 18.9743 14.7391 18.9241 14.6178C18.8738 14.4965 18.8002 14.3863 18.7073 14.2934C18.6145 14.2006 18.5042 14.1269 18.3829 14.0767C18.2616 14.0264 18.1316 14.0006 18.0003 14.0006C17.869 14.0006 17.739 14.0264 17.6176 14.0767C17.4963 14.1269 17.3861 14.2006 17.2933 14.2934L16.4192 15.1675C16.3596 14.8742 16.3735 14.5707 16.4597 14.284C16.546 13.9974 16.7018 13.7366 16.9134 13.5249L17.9046 12.5307C18.073 12.3624 18.273 12.2289 18.493 12.1379C18.7131 12.0468 18.9489 12 19.187 12.0001C19.4251 12.0002 19.6609 12.0472 19.8809 12.1384C20.1009 12.2296 20.3007 12.3632 20.469 12.5317C20.6374 12.7001 20.7709 12.9001 20.8619 13.1201C20.9529 13.3402 20.9998 13.576 20.9997 13.8141C20.9996 14.0523 20.9526 14.288 20.8614 14.508C20.7702 14.728 20.6365 14.9278 20.4681 15.0962Z" fill="#0F0F0F"/>
<path d="M23 4.99947V3.00047C23 2.73526 22.8946 2.4809 22.7071 2.29337C22.5196 2.10583 22.2652 2.00047 22 2.00047C21.7348 2.00047 21.4804 2.10583 21.2929 2.29337C21.1054 2.4809 21 2.73526 21 3.00047V4.99947H11V3.00047C11 2.73526 10.8946 2.4809 10.7071 2.29337C10.5196 2.10583 10.2652 2.00047 10 2.00047C9.73478 2.00047 9.48043 2.10583 9.29289 2.29337C9.10536 2.4809 9 2.73526 9 3.00047V4.99947C7.6744 5.00103 6.40353 5.52832 5.46619 6.46566C4.52884 7.40301 4.00156 8.67387 4 9.99947V23.9995C4.00156 25.3251 4.52884 26.5959 5.46619 27.5333C6.40353 28.4706 7.6744 28.9979 9 28.9995H23C24.3256 28.9979 25.5965 28.4706 26.5338 27.5333C27.4712 26.5959 27.9984 25.3251 28 23.9995V9.99947C27.9984 8.67387 27.4712 7.40301 26.5338 6.46566C25.5965 5.52832 24.3256 5.00103 23 4.99947ZM26 23.9995C25.9991 24.7949 25.6828 25.5574 25.1204 26.1198C24.5579 26.6823 23.7954 26.9986 23 26.9995H9C8.20462 26.9986 7.44206 26.6823 6.87964 26.1198C6.31722 25.5574 6.00087 24.7949 6 23.9995V9.99947C6.00087 9.20409 6.31722 8.44153 6.87964 7.87911C7.44206 7.31669 8.20462 7.00034 9 6.99947H23C23.7954 7.00034 24.5579 7.31669 25.1204 7.87911C25.6828 8.44153 25.9991 9.20409 26 9.99947V23.9995Z" fill="#0F0F0F"/>
</svg>
