<svg width="32" height="32" viewBox="0 0 32 32" fill="none" xmlns="http://www.w3.org/2000/svg">
<path d="M22.0005 11.5004H10.0005C9.86788 11.5004 9.7407 11.5531 9.64694 11.6469C9.55317 11.7407 9.50049 11.8678 9.50049 12.0004C9.50049 12.1331 9.55317 12.2602 9.64694 12.354C9.7407 12.4478 9.86788 12.5004 10.0005 12.5004H22.0005C22.1331 12.5004 22.2603 12.4478 22.354 12.354C22.4478 12.2602 22.5005 12.1331 22.5005 12.0004C22.5005 11.8678 22.4478 11.7407 22.354 11.6469C22.2603 11.5531 22.1331 11.5004 22.0005 11.5004Z" fill="#0F0F0F"/>
<path d="M21.0005 16.5004H11.0005C10.6028 16.5009 10.2215 16.6591 9.94031 16.9403C9.6591 17.2215 9.50092 17.6028 9.50049 18.0004V21.0005C9.50092 21.3981 9.6591 21.7794 9.94031 22.0606C10.2215 22.3418 10.6028 22.5 11.0005 22.5005H21.0005C21.3982 22.5 21.7795 22.3418 22.0607 22.0606C22.3419 21.7794 22.5001 21.3981 22.5005 21.0005V18.0004C22.5001 17.6028 22.3419 17.2215 22.0607 16.9403C21.7795 16.6591 21.3982 16.5009 21.0005 16.5004ZM21.5005 21.0005C21.5002 21.133 21.4475 21.26 21.3538 21.3537C21.26 21.4474 21.133 21.5002 21.0005 21.5005H11.0005C10.868 21.5002 10.7409 21.4474 10.6472 21.3537C10.5535 21.26 10.5008 21.133 10.5005 21.0005V18.0004C10.5008 17.8679 10.5535 17.7409 10.6472 17.6472C10.7409 17.5535 10.868 17.5007 11.0005 17.5004H21.0005C21.133 17.5007 21.26 17.5535 21.3538 17.6472C21.4475 17.7409 21.5002 17.8679 21.5005 18.0004V21.0005Z" fill="#0F0F0F"/>
<path d="M23.0005 5.49947H22.5005V3.00047C22.5005 2.86786 22.4478 2.74068 22.354 2.64692C22.2603 2.55315 22.1331 2.50047 22.0005 2.50047C21.8679 2.50047 21.7407 2.55315 21.6469 2.64692C21.5532 2.74068 21.5005 2.86786 21.5005 3.00047V5.49947H10.5005V3.00047C10.5005 2.86786 10.4478 2.74068 10.354 2.64692C10.2603 2.55315 10.1331 2.50047 10.0005 2.50047C9.86788 2.50047 9.7407 2.55315 9.64694 2.64692C9.55317 2.74068 9.50049 2.86786 9.50049 3.00047V5.49947H9.00049C7.80741 5.50077 6.66358 5.9753 5.81995 6.81893C4.97631 7.66256 4.50179 8.8064 4.50049 9.99947V23.9995C4.50179 25.1925 4.97631 26.3364 5.81994 27.18C6.66358 28.0236 7.80741 28.4982 9.00049 28.4995H23.0005C24.1936 28.4982 25.3374 28.0236 26.181 27.18C27.0247 26.3364 27.4992 25.1925 27.5005 23.9995V9.99947C27.4992 8.8064 27.0247 7.66256 26.181 6.81893C25.3374 5.9753 24.1936 5.50078 23.0005 5.49947ZM26.5005 23.9995C26.4994 24.9274 26.1303 25.817 25.4741 26.4731C24.818 27.1292 23.9284 27.4983 23.0005 27.4995H9.00049C8.07258 27.4983 7.18299 27.1292 6.52685 26.4731C5.87072 25.817 5.50161 24.9274 5.50049 23.9995V9.99947C5.50161 9.07156 5.87072 8.18197 6.52686 7.52584C7.18299 6.8697 8.07258 6.50059 9.00049 6.49947H23.0005C23.9284 6.5006 24.818 6.86971 25.4741 7.52584C26.1303 8.18197 26.4994 9.07156 26.5005 9.99947V23.9995Z" fill="#0F0F0F"/>
</svg>
