<svg width="32" height="32" viewBox="0 0 32 32" fill="none" xmlns="http://www.w3.org/2000/svg">
<path d="M23 5.49949V3.00049C23 2.73527 22.8946 2.48092 22.7071 2.29338C22.5196 2.10585 22.2652 2.00049 22 2.00049C21.7348 2.00049 21.4804 2.10585 21.2929 2.29338C21.1054 2.48092 21 2.73527 21 3.00049V5.49949H11V3.00049C11 2.73527 10.8946 2.48092 10.7071 2.29338C10.5196 2.10585 10.2652 2.00049 10 2.00049C9.73478 2.00049 9.48043 2.10585 9.29289 2.29338C9.10536 2.48092 9 2.73527 9 3.00049V5.49949C7.80693 5.50079 6.66309 5.97532 5.81946 6.81895C4.97583 7.66258 4.5013 8.80641 4.5 9.99949V23.9995C4.5013 25.1926 4.97583 26.3364 5.81946 27.18C6.66309 28.0237 7.80693 28.4982 9 28.4995H23C24.1931 28.4982 25.3369 28.0237 26.1805 27.18C27.0242 26.3364 27.4987 25.1926 27.5 23.9995V9.99949C27.4987 8.80641 27.0242 7.66258 26.1805 6.81895C25.3369 5.97531 24.1931 5.50079 23 5.49949Z" fill="#0F0F0F"/>
</svg>
