<svg width="32" height="32" viewBox="0 0 32 32" fill="none" xmlns="http://www.w3.org/2000/svg">
<path d="M21 18.0005H11.0005V21.0005H21V18.0005Z" fill="#0F0F0F"/>
<path d="M21.0002 22L21.0012 21L21 21.0005L21.0002 22Z" fill="#0F0F0F"/>
<path d="M23.0005 5.49949V3.00049C23.0005 2.73527 22.8951 2.48092 22.7076 2.29338C22.5201 2.10585 22.2657 2.00049 22.0005 2.00049C21.7353 2.00049 21.4809 2.10585 21.2934 2.29338C21.1058 2.48092 21.0005 2.73527 21.0005 3.00049V5.49949H11.0005V3.00049C11.0005 2.73527 10.8951 2.48092 10.7076 2.29338C10.5201 2.10585 10.2657 2.00049 10.0005 2.00049C9.73527 2.00049 9.48092 2.10585 9.29338 2.29338C9.10585 2.48092 9.00049 2.73527 9.00049 3.00049V5.49949C7.80741 5.50079 6.66358 5.97531 5.81995 6.81895C4.97631 7.66258 4.50179 8.80641 4.50049 9.99949V23.9995C4.50179 25.1926 4.97631 26.3364 5.81994 27.18C6.66358 28.0237 7.80741 28.4982 9.00049 28.4995H23.0005C24.1936 28.4982 25.3374 28.0237 26.181 27.18C27.0247 26.3364 27.4992 25.1926 27.5005 23.9995V9.99949C27.4992 8.80641 27.0247 7.66258 26.181 6.81895C25.3374 5.97532 24.1936 5.50079 23.0005 5.49949ZM23.0005 21.0005C22.9998 21.5307 22.7889 22.039 22.4139 22.4139C22.039 22.7889 21.5307 22.9998 21.0005 23.0005H11.0005C10.4703 22.9998 9.96196 22.7889 9.58703 22.4139C9.21211 22.039 9.00118 21.5307 9.00049 21.0005V18.0005C9.00118 17.4703 9.21211 16.962 9.58703 16.587C9.96196 16.2121 10.4703 16.0012 11.0005 16.0005H21.0005C21.5307 16.0012 22.039 16.2121 22.4139 16.587C22.7889 16.962 22.9998 17.4703 23.0005 18.0005V21.0005ZM22.0005 13.0005H10.0005C9.73527 13.0005 9.48092 12.8951 9.29338 12.7076C9.10585 12.5201 9.00049 12.2657 9.00049 12.0005C9.00049 11.7353 9.10585 11.4809 9.29338 11.2934C9.48092 11.1058 9.73527 11.0005 10.0005 11.0005H22.0005C22.2657 11.0005 22.5201 11.1058 22.7076 11.2934C22.8951 11.4809 23.0005 11.7353 23.0005 12.0005C23.0005 12.2657 22.8951 12.5201 22.7076 12.7076C22.5201 12.8951 22.2657 13.0005 22.0005 13.0005Z" fill="#0F0F0F"/>
</svg>
