<svg width="32" height="32" viewBox="0 0 32 32" fill="none" xmlns="http://www.w3.org/2000/svg">
<path d="M10 11.2504C9.8011 11.2505 9.61037 11.3295 9.46973 11.4702C9.32909 11.6108 9.25005 11.8016 9.25 12.0004V22.0005C9.25 22.1994 9.32902 22.3901 9.46967 22.5308C9.61032 22.6714 9.80109 22.7505 10 22.7505C10.1989 22.7505 10.3897 22.6714 10.5303 22.5308C10.671 22.3901 10.75 22.1994 10.75 22.0005V12.0004C10.7499 11.8016 10.6709 11.6108 10.5303 11.4702C10.3896 11.3295 10.1989 11.2505 10 11.2504Z" fill="#0F0F0F"/>
<path d="M14 11.2504C13.8011 11.2505 13.6104 11.3295 13.4697 11.4702C13.3291 11.6108 13.2501 11.8016 13.25 12.0004V22.0005C13.25 22.1994 13.329 22.3901 13.4697 22.5308C13.6103 22.6714 13.8011 22.7505 14 22.7505C14.1989 22.7505 14.3897 22.6714 14.5303 22.5308C14.671 22.3901 14.75 22.1994 14.75 22.0005V12.0004C14.7499 11.8016 14.6709 11.6108 14.5303 11.4702C14.3896 11.3295 14.1989 11.2505 14 11.2504Z" fill="#0F0F0F"/>
<path d="M18 11.2504C17.8011 11.2505 17.6104 11.3295 17.4697 11.4702C17.3291 11.6108 17.2501 11.8016 17.25 12.0004V22.0005C17.25 22.1994 17.329 22.3901 17.4697 22.5308C17.6103 22.6714 17.8011 22.7505 18 22.7505C18.1989 22.7505 18.3897 22.6714 18.5303 22.5308C18.671 22.3901 18.75 22.1994 18.75 22.0005V12.0004C18.7499 11.8016 18.6709 11.6108 18.5303 11.4702C18.3896 11.3295 18.1989 11.2505 18 11.2504Z" fill="#0F0F0F"/>
<path d="M22 11.2504C21.8011 11.2505 21.6104 11.3295 21.4697 11.4702C21.3291 11.6108 21.2501 11.8016 21.25 12.0004V22.0005C21.25 22.1994 21.329 22.3901 21.4697 22.5308C21.6103 22.6714 21.8011 22.7505 22 22.7505C22.1989 22.7505 22.3897 22.6714 22.5303 22.5308C22.671 22.3901 22.75 22.1994 22.75 22.0005V12.0004C22.7499 11.8016 22.6709 11.6108 22.5303 11.4702C22.3896 11.3295 22.1989 11.2505 22 11.2504Z" fill="#0F0F0F"/>
<path d="M23 5.24947H22.75V3.00047C22.75 2.80156 22.671 2.61079 22.5303 2.47014C22.3897 2.32949 22.1989 2.25047 22 2.25047C21.8011 2.25047 21.6103 2.32949 21.4697 2.47014C21.329 2.61079 21.25 2.80156 21.25 3.00047V5.24947H10.75V3.00047C10.75 2.80156 10.671 2.61079 10.5303 2.47014C10.3897 2.32949 10.1989 2.25047 10 2.25047C9.80109 2.25047 9.61032 2.32949 9.46967 2.47014C9.32902 2.61079 9.25 2.80156 9.25 3.00047V5.24947H9C7.74066 5.2509 6.53331 5.7518 5.64282 6.64229C4.75233 7.53278 4.25143 8.74013 4.25 9.99947V23.9995C4.25143 25.2588 4.75233 26.4662 5.64282 27.3566C6.53331 28.2471 7.74066 28.748 9 28.7495H23C24.2593 28.748 25.4667 28.2471 26.3572 27.3566C27.2477 26.4662 27.7486 25.2588 27.75 23.9995V9.99947C27.7486 8.74013 27.2477 7.53278 26.3572 6.64229C25.4667 5.7518 24.2593 5.2509 23 5.24947ZM26.25 23.9995C26.249 24.8611 25.9063 25.6872 25.297 26.2965C24.6877 26.9057 23.8616 27.2485 23 27.2495H9C8.13835 27.2485 7.31228 26.9057 6.703 26.2965C6.09372 25.6872 5.751 24.8611 5.75 23.9995V9.99947C5.751 9.13782 6.09373 8.31175 6.703 7.70247C7.31228 7.0932 8.13835 6.75047 9 6.74947H23C23.8616 6.75047 24.6877 7.0932 25.297 7.70247C25.9063 8.31175 26.249 9.13782 26.25 9.99947V23.9995Z" fill="#0F0F0F"/>
</svg>
