<svg width="32" height="32" viewBox="0 0 32 32" fill="none" xmlns="http://www.w3.org/2000/svg">
<path d="M20.5014 13.0004C21.1643 12.9998 21.7998 12.7362 22.2685 12.2675C22.7372 11.7988 23.0008 11.1632 23.0014 10.5004V4.49939C23.0014 3.83635 22.738 3.20046 22.2692 2.73162C21.8003 2.26278 21.1645 1.99939 20.5014 1.99939C19.8384 1.99939 19.2025 2.26278 18.7337 2.73162C18.2648 3.20046 18.0014 3.83635 18.0014 4.49939V10.5004C18.002 11.1632 18.2656 11.7988 18.7343 12.2675C19.203 12.7362 19.8386 12.9998 20.5014 13.0004Z" fill="#0F0F0F"/>
<path d="M25.7333 2.73318C26.2017 2.26469 26.8369 2.00116 27.4995 2.0004C28.1623 2.00091 28.7978 2.2643 29.2667 2.73278C29.7355 3.20127 29.9994 3.83659 30.0005 4.4994V10.5004C30.0005 11.1634 29.7371 11.7993 29.2682 12.2682C28.7994 12.737 28.1635 13.0004 27.5005 13.0004C26.8374 13.0004 26.2015 12.737 25.7327 12.2682C25.2639 11.7993 25.0005 11.1634 25.0005 10.5004V4.4994C25.0012 3.83686 25.2648 3.20167 25.7333 2.73318Z" fill="#0F0F0F"/>
<path d="M24.172 27.5769C22.3711 29.3779 16.1032 29.8385 9.10736 22.8426C2.11155 15.8468 2.57211 9.5789 4.37306 7.77802L5.41027 6.74081C6.0162 6.13623 6.83721 5.79668 7.69318 5.79668C8.54914 5.79668 9.37015 6.13622 9.97608 6.74081L12.4088 9.17356C13.023 9.78145 13.3756 10.605 13.3918 11.469C13.4079 12.333 13.0862 13.1691 12.4951 13.7995L11.3274 14.9658C11.6188 16.3537 12.324 17.6208 13.35 18.6C14.3297 19.6265 15.5984 20.3307 16.9877 20.6192L18.1451 19.4618C18.7461 18.8591 19.5616 18.5194 20.4128 18.5172C21.2639 18.515 22.0812 18.8505 22.6853 19.4501L25.2092 21.974C25.8138 22.5799 26.1534 23.4009 26.1534 24.2569C26.1534 25.1128 25.8138 25.9338 25.2092 26.5398L24.172 27.5769Z" fill="#0F0F0F"/>
</svg>
