<svg width="32" height="32" viewBox="0 0 32 32" fill="none" xmlns="http://www.w3.org/2000/svg">
<path d="M24.0001 2.5C22.9123 2.5 21.8489 2.82257 20.9445 3.42692C20.04 4.03126 19.335 4.89025 18.9188 5.89524C18.5025 6.90023 18.3936 8.0061 18.6058 9.073C18.818 10.1399 19.3418 11.1199 20.111 11.8891C20.8802 12.6583 21.8602 13.1821 22.9271 13.3943C23.994 13.6065 25.0999 13.4976 26.1049 13.0813C27.1098 12.6651 27.9688 11.9601 28.5732 11.0556C29.1775 10.1512 29.5001 9.0878 29.5001 8C29.4983 6.54187 28.9182 5.14397 27.8872 4.11291C26.8561 3.08186 25.4582 2.50181 24.0001 2.5ZM24.0001 3.5C25.1037 3.50342 26.1674 3.91315 26.9881 4.65096C27.8088 5.38877 28.3291 6.40299 28.4496 7.5H19.5506C19.6711 6.40299 20.1914 5.38877 21.0121 4.65096C21.8328 3.91315 22.8965 3.50342 24.0001 3.5ZM24.0001 12.5C22.8965 12.4966 21.8328 12.0868 21.0121 11.349C20.1914 10.6112 19.6711 9.59701 19.5506 8.5H28.4496C28.3291 9.59701 27.8088 10.6112 26.9881 11.349C26.1674 12.0868 25.1037 12.4966 24.0001 12.5Z" fill="#0F0F0F"/>
<path d="M9.45401 22.4541C16.1998 29.1999 22.1336 28.8664 23.8116 27.1884L24.8488 26.1512C25.3598 25.6391 25.6469 24.9453 25.6469 24.2218C25.6469 23.4984 25.3598 22.8045 24.8488 22.2925L22.3249 19.7686C21.8146 19.2626 21.1245 18.9796 20.4059 18.9818C19.6873 18.984 18.9989 19.2712 18.4917 19.7803L17.1817 21.0903C15.5751 20.8734 14.0934 20.1059 12.9895 18.9186C11.8029 17.8153 11.0342 16.3357 10.8136 14.7305L12.1346 13.4109C12.6335 12.8751 12.9036 12.1658 12.8875 11.434C12.8714 10.7021 12.5703 10.0054 12.0484 9.49208L9.61563 7.05933C9.10359 6.54827 8.40971 6.26125 7.68628 6.26125C6.96284 6.26125 6.26895 6.54827 5.75692 7.05933L4.71971 8.09654C3.04168 9.7745 2.70818 15.7082 9.45401 22.4541ZM6.46399 7.7664C6.7884 7.44272 7.22796 7.26093 7.68624 7.26093C8.14451 7.26093 8.58408 7.44272 8.90849 7.7664L11.3412 10.1992C11.6736 10.5262 11.8678 10.9683 11.8838 11.4342C11.8999 11.9002 11.7365 12.3546 11.4275 12.7037L10.0457 14.0841C9.33933 14.7905 10.3157 17.659 12.2824 19.6256C14.249 21.5923 17.1203 22.5659 17.828 21.8581L19.1988 20.4874C19.5183 20.1656 19.9524 19.9837 20.4058 19.9815C20.8593 19.9793 21.2951 20.157 21.6178 20.4757L24.1417 22.9996C24.4654 23.324 24.6471 23.7636 24.6471 24.2218C24.6471 24.6801 24.4653 25.1197 24.1417 25.4441L23.1045 26.4813C21.8967 27.689 16.4567 28.0426 10.1611 21.747C3.86549 15.4514 4.21904 10.0114 5.42679 8.80361L6.46399 7.7664Z" fill="#0F0F0F"/>
</svg>
