<svg width="32" height="32" viewBox="0 0 32 32" fill="none" xmlns="http://www.w3.org/2000/svg">
<path d="M7.68648 5.99613C8.47614 5.99615 9.23397 6.30944 9.79293 6.86722L12.2255 9.30082C12.7934 9.86131 13.1205 10.6212 13.1367 11.419C13.1528 12.2168 12.8564 12.9893 12.3115 13.5723L11.0605 14.8223C11.329 16.3145 12.0669 17.6822 13.166 18.7266C14.211 19.8265 15.5814 20.5636 17.0752 20.8291L18.3154 19.5889C18.8695 19.033 19.6214 18.719 20.4062 18.7168C21.191 18.7147 21.9448 19.0245 22.5019 19.5772L25.0253 22.1006C25.5832 22.6596 25.8964 23.4174 25.8964 24.2071C25.8964 24.9967 25.5832 25.7546 25.0253 26.3135L23.9882 27.3506C22.2484 29.0898 16.1477 29.4866 9.2773 22.6162C2.40685 15.7458 2.80367 9.64509 4.54293 7.90531L5.58004 6.86722C6.13901 6.30948 6.89684 5.99613 7.68648 5.99613ZM7.68648 7.49613C7.29447 7.49613 6.91805 7.65183 6.64058 7.92875L5.60347 8.96586C4.44774 10.1224 4.1684 15.3863 10.3378 21.5557C16.5072 27.725 21.7712 27.4458 22.9277 26.2901L23.9648 25.252C24.2416 24.9746 24.3974 24.599 24.3974 24.2071C24.3974 23.8151 24.2417 23.4386 23.9648 23.1612L21.4414 20.6377C21.1657 20.3659 20.7933 20.2147 20.4062 20.2168C20.019 20.219 19.6485 20.3745 19.3759 20.6495L18.0048 22.0196C17.1313 22.8931 14.0431 21.7248 12.1054 19.7871C10.168 17.8495 8.99713 14.7648 9.8691 13.8926L11.2509 12.5118C11.5144 12.2103 11.6527 11.819 11.6367 11.419C11.6205 11.0192 11.4515 10.6407 11.165 10.3614L8.7314 7.92875C8.45396 7.65186 8.07844 7.49616 7.68648 7.49613Z" fill="#0F0F0F"/>
<path d="M27.5117 3.4307C27.8261 3.16119 28.2997 3.19741 28.5693 3.51175C28.8388 3.82619 28.8026 4.29979 28.4882 4.56937L21.4882 10.5694C21.1903 10.8248 20.7457 10.8073 20.4687 10.5293L17.4687 7.51371C17.1766 7.2201 17.1771 6.74533 17.4707 6.45316C17.7642 6.16106 18.239 6.16264 18.5312 6.45609L21.04 8.9766L27.5117 3.4307Z" fill="#0F0F0F"/>
</svg>
