<svg width="32" height="32" viewBox="0 0 32 32" fill="none" xmlns="http://www.w3.org/2000/svg">
<path d="M7.69335 5.79729C8.54927 5.79729 9.37063 6.13612 9.97655 6.74065L12.4092 9.17327C13.0233 9.78115 13.3755 10.6052 13.3916 11.4692C13.4077 12.3331 13.0861 13.1689 12.4951 13.7992L11.3281 14.9662C11.6196 16.3541 12.3247 17.6209 13.3506 18.6C14.3303 19.6264 15.599 20.3311 16.9883 20.6196L18.1455 19.4623C18.7465 18.8597 19.5619 18.5192 20.4131 18.517C21.2642 18.5148 22.0814 18.8511 22.6855 19.4506L25.21 21.9741C25.8144 22.58 26.1533 23.4014 26.1533 24.2573C26.1533 25.1129 25.8142 25.9336 25.21 26.5395L24.1719 27.5776C22.3703 29.3781 16.1026 29.8383 9.10741 22.8432C2.1116 15.8474 2.57209 9.57864 4.37304 7.77776L5.41015 6.74065C6.01605 6.13609 6.83743 5.79733 7.69335 5.79729ZM7.69335 7.79534C7.36785 7.79536 7.05564 7.92486 6.82519 8.15472L5.7871 9.1928C4.71992 10.2613 4.56089 15.4685 10.5215 21.4291C16.4828 27.3905 21.6902 27.2301 22.7578 26.1625L23.7949 25.1254C24.025 24.895 24.1542 24.5829 24.1543 24.2573C24.1543 23.9315 24.0251 23.6186 23.7949 23.3881L21.2715 20.8647C21.0427 20.6396 20.734 20.5139 20.4131 20.516C20.0921 20.5182 19.7852 20.6482 19.5596 20.8764L18.1885 22.2465C17.1927 23.2422 14.0378 22.1153 11.9365 20.0141C10.0266 18.1042 8.61899 14.847 9.69921 13.766L11.082 12.3842C11.2997 12.1305 11.4126 11.8031 11.3965 11.4692C11.3803 11.1351 11.2364 10.8199 10.9951 10.5883L8.56249 8.15472C8.33198 7.9246 8.01907 7.79534 7.69335 7.79534Z" fill="#0F0F0F"/>
<path d="M27.3496 3.24163C27.7689 2.88221 28.3994 2.9307 28.7588 3.35003C29.118 3.76935 29.0696 4.39984 28.6504 4.75921L21.6504 10.7592C21.253 11.0996 20.6602 11.0763 20.291 10.7055L17.291 7.69085C16.9016 7.29943 16.9037 6.66635 17.2949 6.27679C17.6864 5.88729 18.3194 5.88834 18.709 6.27972L21.0537 8.63714L27.3496 3.24163Z" fill="#0F0F0F"/>
</svg>
