<svg width="32" height="32" viewBox="0 0 32 32" fill="none" xmlns="http://www.w3.org/2000/svg">
<path d="M14.8536 3.64645C14.9832 3.77612 15.0268 3.9593 14.9842 4.12492C14.9945 4.1649 15 4.20681 15 4.25V12C15 12.2761 14.7761 12.5 14.5 12.5C14.2239 12.5 14 12.2761 14 12V5.20711L10.8536 8.35355C10.6583 8.54882 10.3417 8.54882 10.1464 8.35355C9.95118 8.15829 9.95118 7.84171 10.1464 7.64645L14.1464 3.64645C14.3417 3.45118 14.6583 3.45118 14.8536 3.64645Z" fill="#0F0F0F"/>
<path d="M17.0158 11.8751C17.0055 11.8351 17 11.7932 17 11.75L17 4C17 3.72386 17.2239 3.5 17.5 3.5C17.7761 3.5 18 3.72386 18 4L18 10.7929L21.1464 7.64645C21.3417 7.45118 21.6583 7.45118 21.8536 7.64645C22.0488 7.84171 22.0488 8.15829 21.8536 8.35355L17.8536 12.3536C17.6583 12.5488 17.3417 12.5488 17.1464 12.3536C17.0168 12.2239 16.9732 12.0407 17.0158 11.8751Z" fill="#0F0F0F"/>
<path d="M16.0005 17.5C6.46049 17.5 2.50049 21.9316 2.50049 24.3047V25.7715C2.50118 26.4949 2.78886 27.1885 3.30041 27.7001C3.81196 28.2116 4.50556 28.4993 5.229 28.5H8.79834C9.51695 28.497 10.205 28.2091 10.7116 27.6994C11.2182 27.1897 11.5019 26.4999 11.5005 25.7813V23.9287C12.7899 22.946 14.3803 22.441 16.0005 22.5C17.6197 22.441 19.2095 22.9437 20.5005 23.9228L20.4995 25.79C20.5256 26.5216 20.8361 27.2141 21.365 27.7202C21.8939 28.2263 22.5995 28.5061 23.3315 28.5H26.7719C27.4954 28.4993 28.189 28.2116 28.7005 27.7001C29.2121 27.1885 29.4997 26.4949 29.5004 25.7715V24.3047C29.5005 21.9316 25.5405 17.5 16.0005 17.5ZM28.5005 25.7715C28.5 26.2298 28.3177 26.6691 27.9937 26.9932C27.6696 27.3172 27.2302 27.4995 26.772 27.5H23.3315C22.8653 27.5037 22.4154 27.3285 22.0746 27.0103C21.7337 26.6922 21.5279 26.2554 21.4995 25.79L21.5005 23.8369C21.5005 22.8379 18.7818 21.5 16.0005 21.5C13.2193 21.5 10.5005 22.8418 10.5005 23.8427V25.7812C10.5021 26.2347 10.3238 26.6703 10.0047 26.9925C9.68565 27.3147 9.2518 27.4972 8.79834 27.5H5.229C4.77072 27.4995 4.33137 27.3172 4.00732 26.9932C3.68327 26.6691 3.501 26.2298 3.50049 25.7715V24.3047C3.50049 22.5967 7.09717 18.5 16.0005 18.5C24.9038 18.5 28.5005 22.5966 28.5005 24.3047V25.7715Z" fill="#0F0F0F"/>
</svg>
