<svg width="32" height="32" viewBox="0 0 32 32" fill="none" xmlns="http://www.w3.org/2000/svg">
<path d="M20.3536 2.64645C20.1583 2.45118 19.8417 2.45118 19.6464 2.64645C19.4512 2.84171 19.4512 3.15829 19.6464 3.35355L23.2929 7L19.6464 10.6464C19.4512 10.8417 19.4512 11.1583 19.6464 11.3536C19.8417 11.5488 20.1583 11.5488 20.3536 11.3536L24 7.70711L27.6464 11.3536C27.8417 11.5488 28.1583 11.5488 28.3536 11.3536C28.5488 11.1583 28.5488 10.8417 28.3536 10.6464L24.7071 7L28.3536 3.35355C28.5488 3.15829 28.5488 2.84171 28.3536 2.64645C28.1583 2.45118 27.8417 2.45118 27.6464 2.64645L24 6.29289L20.3536 2.64645Z" fill="#0F0F0F"/>
<path d="M23.8118 27.1884C22.1338 28.8664 16.2 29.1999 9.45425 22.4541C2.70842 15.7082 3.04192 9.7745 4.71996 8.09653L5.75716 7.05933C6.2692 6.54827 6.96308 6.26125 7.68652 6.26125C8.40996 6.26125 9.10384 6.54827 9.61587 7.05933L12.0486 9.49208C12.5706 10.0054 12.8716 10.7021 12.8877 11.434C12.9038 12.1658 12.6337 12.8751 12.1349 13.4109L10.8139 14.7305C11.0344 16.3357 11.8031 17.8153 12.9898 18.9186C14.0937 20.1059 15.5753 20.8734 17.182 21.0903L18.492 19.7803C18.9991 19.2712 19.6875 18.984 20.4061 18.9818C21.1247 18.9796 21.8149 19.2626 22.3251 19.7686L24.849 22.2925C25.3601 22.8045 25.6471 23.4984 25.6471 24.2218C25.6471 24.9453 25.3601 25.6391 24.849 26.1512L23.8118 27.1884ZM7.68648 7.26093C7.22821 7.26093 6.78865 7.44271 6.46423 7.7664L5.42703 8.80361C4.21928 10.0114 3.86573 15.4514 10.1613 21.747C16.4569 28.0426 21.897 27.689 23.1047 26.4813L24.1419 25.4441C24.4656 25.1197 24.6474 24.6801 24.6474 24.2218C24.6474 23.7636 24.4656 23.324 24.1419 22.9996L21.618 20.4757C21.2954 20.157 20.8595 19.9793 20.4061 19.9815C19.9526 19.9837 19.5185 20.1656 19.199 20.4874L17.8283 21.8581C17.1205 22.5659 14.2493 21.5923 12.2826 19.6256C10.316 17.659 9.33957 14.7905 10.046 14.0841L11.4277 12.7037C11.7368 12.3546 11.9001 11.9002 11.884 11.4342C11.868 10.9683 11.6738 10.5262 11.3415 10.1992L8.90873 7.7664C8.58432 7.44271 8.14476 7.26093 7.68648 7.26093Z" fill="#0F0F0F"/>
</svg>
