<svg width="32" height="32" viewBox="0 0 32 32" fill="none" xmlns="http://www.w3.org/2000/svg">
<g clip-path="url(#clip0_43398_113)">
<path d="M5.03906 14.9375C4.51855 14.9375 4.125 14.582 4.125 14.0615C4.1377 13.541 4.53125 13.1855 5.03906 13.1855H7.14648L11.4502 13.3887L7.50195 9.58008L3.36328 5.42871C3.18555 5.26367 3.09668 5.02246 3.09668 4.78125C3.09668 4.23535 3.49023 3.87988 4.03613 3.87988C4.27734 3.87988 4.49316 3.95605 4.6582 4.13379L8.75879 8.27246L12.6055 12.2334L12.4023 7.94238V5.82227C12.4023 5.30176 12.7578 4.9209 13.2783 4.9209C13.7988 4.9209 14.1543 5.32715 14.1543 5.82227V13.3887C14.1543 14.3662 13.583 14.9375 12.6055 14.9375H5.03906ZM17.5439 28.1533C17.0234 28.1533 16.6553 27.7598 16.6553 27.252V19.3809C16.6553 18.4033 17.2393 17.8193 18.2168 17.8193H26.0879C26.6084 17.8193 27.002 18.1875 27.002 18.708C26.9893 19.2285 26.5957 19.584 26.0879 19.584H23.6631L19.3594 19.3682L23.3203 23.1895L27.6494 27.5186C27.8145 27.6963 27.9033 27.9248 27.9033 28.1787C27.9033 28.7246 27.5098 29.0801 26.9639 29.0801C26.7354 29.0801 26.5195 28.9912 26.3545 28.8135L22.0508 24.4844L18.2168 20.5361L18.4199 24.8271V27.252C18.4199 27.7725 18.0518 28.1533 17.5439 28.1533Z" fill="black"/>
</g>
<defs>
<clipPath id="clip0_43398_113">
<rect width="32" height="32" fill="white"/>
</clipPath>
</defs>
</svg>
