<svg width="32" height="32" viewBox="0 0 32 32" fill="none" xmlns="http://www.w3.org/2000/svg">
<path d="M12.7075 8.707L15.0005 6.414V12C15.0005 12.2652 15.1059 12.5196 15.2934 12.7071C15.4809 12.8946 15.7353 13 16.0005 13C16.2657 13 16.5201 12.8946 16.7076 12.7071C16.8952 12.5196 17.0005 12.2652 17.0005 12V6.414L19.2935 8.707C19.481 8.89452 19.7354 8.99987 20.0005 8.99987C20.2657 8.99987 20.5201 8.89452 20.7076 8.707C20.8951 8.51949 21.0004 8.26516 21.0004 7.99997C21.0004 7.73479 20.8951 7.48046 20.7076 7.29294L16.7076 3.29294C16.6147 3.20006 16.5045 3.12638 16.3832 3.07611C16.2619 3.02584 16.1319 2.99997 16.0005 2.99997C15.8692 2.99997 15.7392 3.02584 15.6179 3.07611C15.4966 3.12638 15.3863 3.20006 15.2935 3.29294L11.2935 7.29294C11.1079 7.48086 11.0043 7.73455 11.0051 7.99865C11.0059 8.26274 11.1112 8.51579 11.2979 8.70254C11.4847 8.88929 11.7377 8.99457 12.0018 8.99541C12.2659 8.99625 12.5196 8.89257 12.7075 8.707Z" fill="#0F0F0F"/>
<path d="M16.0005 17C6.10693 17 2.00049 21.7578 2.00049 24.3047V25.7715C2.00143 26.6274 2.34188 27.4481 2.94714 28.0533C3.5524 28.6586 4.37303 28.9991 5.229 29H8.79834C9.64948 28.9968 10.4646 28.6561 11.0649 28.0527C11.6652 27.4493 12.0016 26.6324 12.0005 25.7813V24.1445C13.1869 23.3661 14.5819 22.9669 16.0005 23C17.4184 22.9669 18.813 23.3642 20.0005 24.1396L19.9995 25.79C20.0273 26.6537 20.391 27.4724 21.0134 28.0719C21.6357 28.6714 22.4674 29.0044 23.3315 29H26.7719C27.6279 28.9991 28.4485 28.6586 29.0538 28.0533C29.659 27.4481 29.9995 26.6274 30.0004 25.7715V24.3047C30.0005 21.7578 25.8941 17 16.0005 17ZM28.0005 25.7715C28.0002 26.0972 27.8707 26.4096 27.6404 26.6399C27.41 26.8702 27.0977 26.9997 26.772 27H23.3315C22.997 27.0069 22.6726 26.8855 22.4249 26.6607C22.1771 26.4358 22.0249 26.1246 21.9995 25.791L22.0005 23.8369C22.0005 22.3086 18.7017 21 16.0005 21C13.0289 21 10.0005 22.4346 10.0005 23.8428V25.7812C10.0024 26.1022 9.87683 26.4107 9.65145 26.6392C9.42607 26.8677 9.11926 26.9974 8.79834 27H5.229C4.90325 26.9997 4.59093 26.8702 4.36059 26.6399C4.13026 26.4096 4.00074 26.0972 4.00049 25.7715V24.3047C4.00049 22.7949 7.56982 19 16.0005 19C24.4312 19 28.0005 22.7949 28.0005 24.3047V25.7715Z" fill="#0F0F0F"/>
</svg>
