<svg width="32" height="32" viewBox="0 0 32 32" fill="none" xmlns="http://www.w3.org/2000/svg">
<path d="M11 12C11 13.1046 10.1046 14 9 14C7.89543 14 7 13.1046 7 12C7 10.8954 7.89543 10 9 10C10.1046 10 11 10.8954 11 12Z" fill="black"/>
<path d="M28.0892 8.99906C28.4299 9.01445 28.7609 9.11736 29.0503 9.29785C29.341 9.47619 29.581 9.72637 29.7471 10.0243C29.9132 10.3222 29.9997 10.6579 29.9985 10.999V20.999C29.9987 21.34 29.9117 21.6753 29.7457 21.9731C29.5797 22.271 29.3402 22.5214 29.0502 22.7006C28.7601 22.8798 28.429 22.9818 28.0883 22.997C27.7477 23.0121 27.4088 22.9398 27.104 22.7871C27.0737 22.7724 27.0443 22.7557 27.0161 22.7373L24.0015 20.821V22C23.9999 23.3256 23.4726 24.5965 22.5353 25.5338C21.5979 26.4712 20.3271 26.9984 19.0015 27H7.00146C5.67586 26.9984 4.405 26.4712 3.46765 25.5338C2.53031 24.5965 2.00302 23.3256 2.00146 22V10C2.00302 8.6744 2.53031 7.40353 3.46765 6.46619C4.405 5.52884 5.67586 5.00156 7.00146 5H19.0015C20.3271 5.00156 21.5979 5.52884 22.5353 6.46619C23.4726 7.40353 23.9999 8.6744 24.0015 10V11.177L27.0161 9.26074C27.0448 9.2423 27.0745 9.22535 27.105 9.20996C27.4095 9.0563 27.7484 8.98366 28.0892 8.99906ZM21.1218 24.1204C21.6842 23.5579 22.0006 22.7954 22.0015 22V10C22.0006 9.20462 21.6842 8.44206 21.1218 7.87964C20.5594 7.31722 19.7968 7.00087 19.0015 7H7.00146C6.20608 7.00087 5.44352 7.31722 4.8811 7.87964C4.31868 8.44206 4.00233 9.20462 4.00146 10V22C4.00234 22.7954 4.31869 23.5579 4.88111 24.1204C5.44353 24.6828 6.20608 24.9991 7.00146 25H19.0015C19.7968 24.9991 20.5594 24.6828 21.1218 24.1204ZM24.0015 13.5461V18.4519L28.0005 20.9932L27.9985 11.0059L24.0015 13.5461Z" fill="black"/>
</svg>
