<svg width="32" height="32" viewBox="0 0 32 32" fill="none" xmlns="http://www.w3.org/2000/svg">
<path d="M28.9204 9.51139C28.655 9.34943 28.3515 9.26051 28.0407 9.25365C27.7299 9.24679 27.4227 9.32224 27.1504 9.47233L23.7524 11.6335V10.0006C23.751 8.74131 23.2501 7.53396 22.3596 6.64347C21.4691 5.75298 20.2618 5.25208 19.0024 5.25065H7.00244C5.7431 5.25208 4.53575 5.75298 3.64526 6.64347C2.75477 7.53396 2.25387 8.74131 2.25244 10.0006V22.0006C2.25387 23.26 2.75477 24.4673 3.64526 25.3578C4.53575 26.2483 5.7431 26.7492 7.00244 26.7506H19.0024C20.2618 26.7492 21.4691 26.2483 22.3596 25.3578C23.2501 24.4673 23.751 23.26 23.7524 22.0006V20.3664L27.2168 22.5651C27.4836 22.6986 27.78 22.7617 28.0781 22.7484C28.3761 22.7352 28.6658 22.6459 28.9196 22.4891C29.1734 22.3324 29.3829 22.1134 29.5283 21.8528C29.6736 21.5923 29.7499 21.299 29.75 21.0006V10.9996C29.751 10.7013 29.6752 10.4076 29.53 10.147C29.3847 9.88633 29.1748 9.66745 28.9204 9.51139ZM22.2524 22.0006C22.2514 22.8623 21.9087 23.6884 21.2994 24.2976C20.6902 24.9069 19.8641 25.2497 19.0024 25.2506H7.00244C6.14079 25.2497 5.31472 24.9069 4.70545 24.2976C4.09617 23.6884 3.75344 22.8623 3.75244 22.0006V10.0006C3.75344 9.139 4.09617 8.31293 4.70545 7.70365C5.31472 7.09438 6.14079 6.75165 7.00244 6.75065H19.0024C19.8641 6.75165 20.6902 7.09438 21.2994 7.70365C21.9087 8.31293 22.2514 9.139 22.2524 10.0006V22.0006ZM28.25 21.0006C28.2507 21.0432 28.2401 21.0853 28.2194 21.1225C28.1986 21.1597 28.1684 21.1908 28.1318 21.2126C28.0874 21.2409 27.9951 21.279 27.9551 21.2614L23.7524 18.5904V13.4104L27.8877 10.776C27.9258 10.7566 27.9682 10.7474 28.0109 10.7493C28.0536 10.7512 28.0951 10.7641 28.1314 10.7868C28.1681 10.8087 28.1984 10.8399 28.2193 10.8773C28.2401 10.9147 28.2507 10.9569 28.25 10.9997V21.0006Z" fill="#0F0F0F"/>
</svg>
