<svg width="32" height="32" viewBox="0 0 32 32" fill="none" xmlns="http://www.w3.org/2000/svg">
<path d="M28.7886 9.7243C28.5635 9.58613 28.3061 9.5096 28.0421 9.5024C27.7781 9.4952 27.5169 9.55759 27.2847 9.6833L23.5024 12.0888V10.0007C23.5011 8.8076 23.0266 7.66376 22.183 6.82013C21.3394 5.9765 20.1955 5.50197 19.0024 5.50067H7.00244C5.80937 5.50197 4.66553 5.9765 3.8219 6.82013C2.97827 7.66376 2.50374 8.8076 2.50244 10.0007V22.0007C2.50374 23.1937 2.97826 24.3376 3.8219 25.1812C4.66553 26.0248 5.80937 26.4994 7.00244 26.5007H19.0024C20.1955 26.4994 21.3394 26.0248 22.183 25.1812C23.0266 24.3376 23.5011 23.1937 23.5024 22.0007V19.9118L27.3286 22.3415C27.5375 22.4462 27.7678 22.501 28.0015 22.5017C28.3989 22.5003 28.7797 22.3416 29.0606 22.0604C29.3415 21.7791 29.4996 21.3981 29.5005 21.0007V10.9997C29.5014 10.7438 29.4364 10.4921 29.3117 10.2687C29.187 10.0453 29.0068 9.85779 28.7886 9.7243ZM13.0073 20.9997C12.0184 20.9997 11.0517 20.7064 10.2295 20.157C9.40723 19.6076 8.76636 18.8267 8.38792 17.9131C8.00949 16.9995 7.91047 15.9941 8.10339 15.0242C8.29632 14.0543 8.77253 13.1634 9.47179 12.4642C10.1711 11.7649 11.062 11.2887 12.0319 11.0958C13.0018 10.9028 14.0071 11.0019 14.9207 11.3803C15.8344 11.7587 16.6153 12.3996 17.1647 13.2218C17.7141 14.0441 18.0073 15.0108 18.0073 15.9997C18.0058 17.3253 17.4785 18.5962 16.5411 19.5335C15.6038 20.4708 14.3329 20.9981 13.0073 20.9997Z" fill="#0F0F0F"/>
<path d="M13.0073 18.9997C14.6642 18.9997 16.0073 17.6565 16.0073 15.9997C16.0073 14.3428 14.6642 12.9997 13.0073 12.9997C11.3505 12.9997 10.0073 14.3428 10.0073 15.9997C10.0073 17.6565 11.3505 18.9997 13.0073 18.9997Z" fill="#0F0F0F"/>
</svg>
