<svg width="32" height="32" viewBox="0 0 32 32" fill="none" xmlns="http://www.w3.org/2000/svg">
<path d="M28.9174 9.50944C28.6521 9.34807 28.349 9.25964 28.0386 9.25313C27.7282 9.24661 27.4216 9.32223 27.1498 9.47233L23.7513 11.6325V9.99967C23.7499 8.74033 23.249 7.53298 22.3585 6.64249C21.468 5.75201 20.2607 5.2511 19.0013 5.24967H7.00134C5.742 5.2511 4.53465 5.75201 3.64416 6.64249C2.75368 7.53298 2.25277 8.74033 2.25134 9.99967V21.9997C2.25277 23.259 2.75368 24.4664 3.64416 25.3568C4.53465 26.2473 5.742 26.7482 7.00134 26.7497H19.0013C20.2607 26.7482 21.468 26.2473 22.3585 25.3568C23.249 24.4664 23.7499 23.259 23.7513 21.9997V20.3657L27.2172 22.5651C27.4839 22.6982 27.7803 22.761 28.0781 22.7474C28.3759 22.7339 28.6654 22.6444 28.9189 22.4876C29.1725 22.3308 29.3818 22.1118 29.527 21.8514C29.6721 21.591 29.7484 21.2978 29.7484 20.9997V10.9997C29.7495 10.7008 29.6736 10.4068 29.528 10.1457C29.3825 9.88473 29.1722 9.66559 28.9174 9.50944ZM22.2514 21.9997C22.2504 22.8613 21.9076 23.6874 21.2984 24.2967C20.6891 24.906 19.863 25.2487 19.0014 25.2497H7.00136C6.13971 25.2487 5.31364 24.9059 4.70436 24.2967C4.09509 23.6874 3.75236 22.8613 3.75136 21.9997V9.99967C3.75236 9.13802 4.09509 8.31195 4.70437 7.70268C5.31364 7.0934 6.13972 6.75067 7.00136 6.74967H19.0014C19.863 6.75067 20.6891 7.0934 21.2984 7.70267C21.9076 8.31195 22.2504 9.13802 22.2514 9.99967V21.9997ZM28.2484 20.9997C28.2491 21.0424 28.2385 21.0845 28.2178 21.1219C28.1971 21.1593 28.1669 21.1905 28.1303 21.2126C28.0781 21.2465 28.0167 21.2635 27.9545 21.2614L23.7513 18.5898V13.4093L27.8881 10.776C27.9255 10.7562 27.9676 10.7466 28.01 10.7484C28.0524 10.7501 28.0935 10.763 28.1293 10.7858C28.1662 10.8078 28.1966 10.8392 28.2176 10.8767C28.2385 10.9143 28.2491 10.9567 28.2484 10.9997L28.2484 20.9997Z" fill="#0F0F0F"/>
<path d="M13.0053 11.2497C12.0658 11.2497 11.1474 11.5283 10.3663 12.0502C9.58516 12.5721 8.97634 13.314 8.61682 14.1819C8.25731 15.0499 8.16324 16.0049 8.34652 16.9264C8.5298 17.8478 8.9822 18.6941 9.6465 19.3584C10.3108 20.0227 11.1572 20.4751 12.0786 20.6584C13 20.8417 13.955 20.7476 14.823 20.3881C15.6909 20.0286 16.4328 19.4198 16.9547 18.6386C17.4767 17.8575 17.7553 16.9391 17.7553 15.9997C17.7538 14.7403 17.2529 13.533 16.3624 12.6425C15.4719 11.752 14.2646 11.2511 13.0053 11.2497ZM13.0053 19.2497C12.3625 19.2497 11.7341 19.0591 11.1996 18.7019C10.6652 18.3448 10.2486 17.8373 10.0026 17.2434C9.75666 16.6495 9.6923 15.9961 9.8177 15.3656C9.9431 14.7352 10.2526 14.1561 10.7072 13.7016C11.1617 13.2471 11.7408 12.9375 12.3712 12.8121C13.0016 12.6867 13.6551 12.7511 14.249 12.9971C14.8428 13.243 15.3504 13.6596 15.7075 14.1941C16.0646 14.7285 16.2553 15.3569 16.2553 15.9997C16.2543 16.8613 15.9115 17.6874 15.3022 18.2967C14.693 18.9059 13.8669 19.2487 13.0053 19.2497Z" fill="#0F0F0F"/>
</svg>
