<svg width="32" height="32" viewBox="0 0 32 32" fill="none" xmlns="http://www.w3.org/2000/svg">
<path d="M28.7865 9.72233C28.5613 9.58492 28.304 9.509 28.0403 9.50215C27.7765 9.49529 27.5156 9.55775 27.2836 9.68327L23.5013 12.0873V9.99967C23.5 8.8066 23.0255 7.66276 22.1819 6.81913C21.3383 5.9755 20.1944 5.50097 19.0013 5.49967H7.00134C5.80827 5.50097 4.66443 5.9755 3.8208 6.81913C2.97717 7.66276 2.50265 8.8066 2.50134 9.99967V21.9997C2.50265 23.1927 2.97717 24.3366 3.8208 25.1802C4.66443 26.0238 5.80827 26.4984 7.00134 26.4997H19.0013C20.1944 26.4984 21.3383 26.0238 22.1819 25.1802C23.0255 24.3366 23.5 23.1927 23.5013 21.9997V19.9114L27.3285 22.3415C27.5572 22.4557 27.8112 22.5096 28.0666 22.4981C28.3219 22.4865 28.5701 22.4099 28.7875 22.2754C29.0049 22.141 29.1843 21.9532 29.3087 21.7299C29.4332 21.5067 29.4985 21.2553 29.4984 20.9997V10.9997C29.4993 10.7436 29.4343 10.4916 29.3096 10.2679C29.1849 10.0442 29.0048 9.85629 28.7865 9.72233ZM22.5013 21.9997C22.5002 22.9276 22.1311 23.8172 21.475 24.4733C20.8188 25.1294 19.9293 25.4985 19.0013 25.4997H7.00134C6.07343 25.4985 5.18385 25.1294 4.52771 24.4733C3.87158 23.8172 3.50247 22.9276 3.50134 21.9997V9.99967C3.50247 9.07176 3.87158 8.18217 4.52771 7.52604C5.18385 6.86991 6.07343 6.5008 7.00134 6.49967H19.0013C19.9293 6.50079 20.8188 6.8699 21.475 7.52604C22.1311 8.18217 22.5002 9.07176 22.5013 9.99967V21.9997ZM28.4984 20.9997C28.4992 21.085 28.4777 21.169 28.4361 21.2435C28.3944 21.318 28.3342 21.3804 28.2611 21.4245C28.1971 21.4677 28.1236 21.4946 28.0468 21.503C27.9701 21.5113 27.8924 21.5008 27.8207 21.4723L23.5013 18.7267V13.2724L27.7767 10.5524C27.8529 10.5144 27.9374 10.4964 28.0224 10.5003C28.1075 10.5042 28.19 10.5298 28.2624 10.5746C28.3347 10.6195 28.3944 10.682 28.4357 10.7564C28.477 10.8308 28.4986 10.9145 28.4984 10.9996V20.9997Z" fill="#0F0F0F"/>
<path d="M13.0053 11.4997C12.1152 11.4997 11.2452 11.7636 10.5052 12.2581C9.76516 12.7525 9.18839 13.4553 8.84779 14.2776C8.5072 15.0999 8.41808 16.0047 8.59172 16.8776C8.76535 17.7505 9.19394 18.5523 9.82327 19.1817C10.4526 19.811 11.2544 20.2396 12.1273 20.4132C13.0003 20.5868 13.9051 20.4977 14.7273 20.1571C15.5496 19.8165 16.2524 19.2398 16.7469 18.4997C17.2413 17.7597 17.5053 16.8897 17.5053 15.9997C17.504 14.8066 17.0294 13.6628 16.1858 12.8191C15.3422 11.9755 14.1983 11.501 13.0053 11.4997ZM13.0053 19.4997C12.313 19.4997 11.6363 19.2944 11.0608 18.9098C10.4852 18.5252 10.0366 17.9786 9.77167 17.3391C9.50677 16.6995 9.43746 15.9958 9.5725 15.3169C9.70755 14.6379 10.0409 14.0143 10.5304 13.5248C11.0199 13.0353 11.6435 12.702 12.3224 12.5669C13.0014 12.4319 13.7051 12.5012 14.3446 12.7661C14.9842 13.031 15.5308 13.4796 15.9154 14.0552C16.3 14.6307 16.5053 15.3074 16.5053 15.9997C16.5041 16.9276 16.135 17.8172 15.4789 18.4733C14.8228 19.1294 13.9332 19.4985 13.0053 19.4997Z" fill="#0F0F0F"/>
</svg>
