<svg width="32" height="32" viewBox="0 0 32 32" fill="none" xmlns="http://www.w3.org/2000/svg">
<path d="M26.4424 7.99967H23.1993C22.9263 8.00352 22.6558 7.94725 22.4071 7.83485C22.1583 7.72244 21.9373 7.55667 21.7598 7.34928L20.92 6.37077C20.5686 5.93635 20.1233 5.58727 19.6175 5.34978C19.1118 5.11229 18.5587 4.99259 18 4.99967H14C13.4509 4.99129 12.9069 5.10658 12.4084 5.33699C11.9099 5.5674 11.4696 5.90704 11.1201 6.33073L10.209 7.38737C10.032 7.58477 9.81445 7.74166 9.57126 7.84733C9.32807 7.95299 9.06494 8.00496 8.79984 7.99967H5.59961C4.69577 7.95375 3.81038 8.26674 3.13621 8.8705C2.46203 9.47426 2.05366 10.3199 2 11.2233V23.7643C2.05188 24.6694 2.45931 25.5173 3.13354 26.1233C3.80777 26.7293 4.69416 27.0443 5.59961 26.9997H26.3994C27.3034 27.0458 28.189 26.7329 28.8634 26.1291C29.5378 25.5253 29.9463 24.6796 30 23.776V11.2233C29.9526 10.3252 29.552 9.48227 28.8855 8.87838C28.2191 8.27448 27.3408 7.95862 26.4424 7.99967ZM28 23.776C27.939 24.1453 27.7394 24.4774 27.4421 24.7048C27.1447 24.9321 26.7718 25.0376 26.3994 24.9996H5.59961C5.22573 25.0365 4.85189 24.9292 4.55454 24.6995C4.2572 24.4699 4.05883 24.1353 4 23.7643V11.2233C4.06084 10.8541 4.26018 10.5219 4.55739 10.2946C4.85461 10.0672 5.22733 9.96175 5.59961 9.99967H8.79984C9.36162 10.0077 9.91818 9.89108 10.4295 9.65822C10.9408 9.42536 11.3941 9.08205 11.7568 8.65299L12.667 7.59733C12.8298 7.40366 13.0342 7.2493 13.265 7.1458C13.4959 7.0423 13.7471 6.99235 14 6.99967H18C18.2618 6.99336 18.5215 7.04733 18.759 7.1574C18.9966 7.26746 19.2057 7.43068 19.3701 7.63444L20.209 8.61198C20.5724 9.05163 21.0295 9.40442 21.5469 9.64453C22.0643 9.88464 22.6289 10.006 23.1992 9.99967H26.4424C26.8101 9.96137 27.1783 10.0677 27.469 10.296C27.7597 10.5244 27.9502 10.857 28 11.2233L28 23.776Z" fill="#0F0F0F"/>
<path d="M16 11.9997C15.0111 11.9997 14.0444 12.2929 13.2222 12.8423C12.3999 13.3917 11.7591 14.1726 11.3806 15.0863C11.0022 15.9999 10.9032 17.0052 11.0961 17.9751C11.289 18.945 11.7652 19.8359 12.4645 20.5352C13.1638 21.2345 14.0547 21.7107 15.0246 21.9036C15.9945 22.0965 16.9998 21.9975 17.9135 21.6191C18.8271 21.2406 19.608 20.5998 20.1574 19.7775C20.7068 18.9553 21 17.9886 21 16.9997C20.9985 15.6741 20.4712 14.4032 19.5339 13.4659C18.5965 12.5285 17.3256 12.0012 16 11.9997ZM16 19.9997C15.4067 19.9997 14.8267 19.8237 14.3333 19.4941C13.84 19.1644 13.4555 18.6959 13.2284 18.1477C13.0013 17.5995 12.9419 16.9963 13.0577 16.4144C13.1734 15.8325 13.4592 15.2979 13.8787 14.8784C14.2983 14.4588 14.8328 14.1731 15.4148 14.0573C15.9967 13.9416 16.5999 14.001 17.1481 14.228C17.6963 14.4551 18.1648 14.8396 18.4944 15.333C18.8241 15.8263 19 16.4063 19 16.9997C18.9992 17.7951 18.6828 18.5576 18.1204 19.12C17.558 19.6825 16.7954 19.9988 16 19.9997Z" fill="#0F0F0F"/>
</svg>
