<svg width="32" height="32" viewBox="0 0 32 32" fill="none" xmlns="http://www.w3.org/2000/svg">
<path d="M23.9396 5.93957C24.5254 5.35378 25.4749 5.35378 26.0607 5.93957C26.6463 6.52536 26.6464 7.47492 26.0607 8.06066L18.1212 16.0001L26.0607 23.9396C26.6464 24.5254 26.6464 25.4749 26.0607 26.0607C25.4749 26.6464 24.5254 26.6463 23.9396 26.0607L16.0001 18.1212L8.06068 26.0607C7.47493 26.6464 6.52538 26.6463 5.93958 26.0607C5.3538 25.4749 5.3538 24.5254 5.93958 23.9396L13.879 16.0001L5.93958 8.06066C5.3538 7.47488 5.35381 6.52536 5.93958 5.93957C6.52537 5.35378 7.47489 5.35378 8.06068 5.93957L16.0001 13.879L23.9396 5.93957Z" fill="#0F0F0F"/>
</svg>
