<svg width="32" height="32" viewBox="0 0 32 32" fill="none" xmlns="http://www.w3.org/2000/svg">
<path d="M6.36426 24.7764C6.03418 25.1064 6.02148 25.6523 6.36426 25.9824C6.70703 26.3252 7.25293 26.3252 7.58301 25.9824L16 17.5781L24.4043 25.9824C24.7344 26.3252 25.293 26.3252 25.623 25.9824C25.9531 25.6523 25.9531 25.1064 25.623 24.7764L17.2061 16.3594L25.623 7.94238C25.9531 7.6123 25.9658 7.05371 25.623 6.72363C25.2803 6.39355 24.7344 6.39355 24.4043 6.72363L16 15.1406L7.58301 6.72363C7.25293 6.39355 6.69434 6.38086 6.36426 6.72363C6.03418 7.06641 6.03418 7.6123 6.36426 7.94238L14.7812 16.3594L6.36426 24.7764Z" fill="black"/>
</svg>
