<svg width="32" height="32" viewBox="0 0 32 32" fill="none" xmlns="http://www.w3.org/2000/svg">
<path d="M27.9995 24.2501H3.99951C3.8006 24.2501 3.60983 24.3291 3.46918 24.4698C3.32853 24.6104 3.24951 24.8012 3.24951 25.0001C3.24951 25.199 3.32853 25.3898 3.46918 25.5304C3.60983 25.6711 3.8006 25.7501 3.99951 25.7501H27.9995C28.1984 25.7501 28.3892 25.6711 28.5298 25.5304C28.6705 25.3898 28.7495 25.199 28.7495 25.0001C28.7495 24.8012 28.6705 24.6104 28.5298 24.4698C28.3892 24.3291 28.1984 24.2501 27.9995 24.2501Z" fill="#0F0F0F"/>
<path d="M4.52978 19.5304L15.9995 8.06067L27.4692 19.5304C27.5388 19.6003 27.6215 19.6557 27.7126 19.6936C27.8036 19.7314 27.9012 19.751 27.9998 19.7511C28.0984 19.7512 28.1961 19.7318 28.2872 19.6941C28.3783 19.6564 28.4611 19.6012 28.5308 19.5314C28.6005 19.4617 28.6558 19.3789 28.6935 19.2878C28.7312 19.1967 28.7506 19.099 28.7505 19.0004C28.7504 18.9018 28.7308 18.8042 28.693 18.7132C28.6551 18.6221 28.5996 18.5394 28.5298 18.4698L16.5298 6.46985C16.4602 6.40019 16.3775 6.34493 16.2865 6.30723C16.1955 6.26953 16.098 6.25012 15.9995 6.25012C15.901 6.25012 15.8035 6.26953 15.7125 6.30723C15.6215 6.34493 15.5389 6.40019 15.4692 6.46985L3.46924 18.4698C3.32906 18.6106 3.25044 18.8012 3.25063 18.9998C3.25082 19.1985 3.32982 19.3889 3.47027 19.5294C3.61073 19.6698 3.80118 19.7488 3.99981 19.749C4.19845 19.7492 4.38905 19.6706 4.52978 19.5304Z" fill="#0F0F0F"/>
</svg>
