<svg width="32" height="32" viewBox="0 0 32 32" fill="none" xmlns="http://www.w3.org/2000/svg">
<path d="M3.75 16C3.75 9.23451 9.23451 3.75 16 3.75C22.7655 3.75 28.25 9.23451 28.25 16C28.25 22.7655 22.7655 28.25 16 28.25C15.5858 28.25 15.25 28.5858 15.25 29C15.25 29.4142 15.5858 29.75 16 29.75C23.5939 29.75 29.75 23.5939 29.75 16C29.75 8.40608 23.5939 2.25 16 2.25C8.40608 2.25 2.25 8.40608 2.25 16C2.25 20.0735 4.02189 23.7331 6.83471 26.25H3C2.58579 26.25 2.25 26.5858 2.25 27C2.25 27.4142 2.58579 27.75 3 27.75H9C9.41421 27.75 9.75 27.4142 9.75 27V21C9.75 20.5858 9.41421 20.25 9 20.25C8.58579 20.25 8.25 20.5858 8.25 21V25.4874C5.50206 23.2399 3.75 19.8246 3.75 16Z" fill="#0F0F0F"/>
<path d="M16 7.25C16.4142 7.25 16.75 7.58579 16.75 8V15.6893L21.5303 20.4697C21.8232 20.7626 21.8232 21.2374 21.5303 21.5303C21.2374 21.8232 20.7626 21.8232 20.4697 21.5303L15.25 16.3107V8C15.25 7.58579 15.5858 7.25 16 7.25Z" fill="#0F0F0F"/>
</svg>
