<svg width="32" height="32" viewBox="0 0 32 32" fill="none" xmlns="http://www.w3.org/2000/svg">
<path d="M3.5 16C3.5 9.09644 9.09644 3.5 16 3.5C22.9036 3.5 28.5 9.09644 28.5 16C28.5 22.9036 22.9036 28.5 16 28.5C15.7239 28.5 15.5 28.7239 15.5 29C15.5 29.2761 15.7239 29.5 16 29.5C23.4558 29.5 29.5 23.4558 29.5 16C29.5 8.54416 23.4558 2.5 16 2.5C8.54416 2.5 2.5 8.54416 2.5 16C2.5 20.2413 4.45632 24.0257 7.51404 26.5H3C2.72386 26.5 2.5 26.7239 2.5 27C2.5 27.2761 2.72386 27.5 3 27.5H9C9.27614 27.5 9.5 27.2761 9.5 27V21C9.5 20.7239 9.27614 20.5 9 20.5C8.72386 20.5 8.5 20.7239 8.5 21V26.001C5.46296 23.7197 3.5 20.0891 3.5 16Z" fill="#0F0F0F"/>
<path d="M16 7.5C16.2761 7.5 16.5 7.72386 16.5 8V15.7929L21.3536 20.6464C21.5488 20.8417 21.5488 21.1583 21.3536 21.3536C21.1583 21.5488 20.8417 21.5488 20.6464 21.3536L15.5 16.2071V8C15.5 7.72386 15.7239 7.5 16 7.5Z" fill="#0F0F0F"/>
</svg>
