<svg width="32" height="32" viewBox="0 0 32 32" fill="none" xmlns="http://www.w3.org/2000/svg">
<path d="M3.49512 14.5947H5.25977C6.32617 9.00879 11.29 4.71777 17.1553 4.71777C23.7822 4.71777 29.2666 10.2021 29.2666 16.8418C29.2666 23.4688 23.7822 28.9531 17.1553 28.9531C13.0674 28.9531 9.47461 26.8076 7.21484 23.6719C6.87207 23.2148 6.98633 22.6562 7.40527 22.415C7.83691 22.1484 8.31934 22.2881 8.63672 22.707C10.4902 25.4111 13.6006 27.2012 17.1553 27.2012C22.9062 27.2266 27.5273 22.5801 27.5273 16.8418C27.5273 11.0908 22.9062 6.46973 17.1553 6.46973C12.1787 6.46973 8.04004 9.93555 7.02441 14.5947H8.91602C9.66504 14.5947 9.88086 15.1152 9.46191 15.7119L6.80859 19.4824C6.46582 19.9775 5.95801 19.9902 5.60254 19.4824L2.94922 15.7119C2.51758 15.1152 2.7334 14.5947 3.49512 14.5947ZM16.6982 9.89746C17.1426 9.89746 17.5107 10.2656 17.5107 10.71V17.1084L20.4688 21.0693C20.7734 21.4756 20.748 21.958 20.3545 22.2373C19.9482 22.5166 19.4658 22.4531 19.1357 22.0088L16.127 18.0605C15.9492 17.8193 15.873 17.6035 15.873 17.3496V10.71C15.873 10.2656 16.2412 9.89746 16.6982 9.89746Z" fill="black"/>
</svg>
