<svg width="32" height="32" viewBox="0 0 32 32" fill="none" xmlns="http://www.w3.org/2000/svg">
<path d="M7.5957 21.8818C7.29102 22.2373 6.74512 22.2373 6.36426 21.8311C4.28223 19.6221 3.06348 16.6641 3.06348 13.4395C3.06348 10.2021 4.28223 7.24414 6.36426 5.03516C6.74512 4.62891 7.29102 4.62891 7.5957 4.99707C7.90039 5.33984 7.81152 5.79688 7.45605 6.19043C5.67871 8.10742 4.65039 10.6338 4.65039 13.4395C4.65039 16.2451 5.67871 18.7715 7.45605 20.6758C7.81152 21.0693 7.90039 21.5264 7.5957 21.8818ZM24.3916 21.8818C24.0869 21.5264 24.1885 21.0693 24.5312 20.6758C26.3213 18.7715 27.3496 16.2451 27.3496 13.4395C27.3496 10.6338 26.3213 8.10742 24.5312 6.19043C24.1885 5.79688 24.0869 5.33984 24.3916 4.99707C24.709 4.62891 25.2549 4.62891 25.623 5.03516C27.7178 7.24414 28.9365 10.2021 28.9365 13.4395C28.9365 16.6641 27.7178 19.6221 25.623 21.8311C25.2549 22.2373 24.709 22.2373 24.3916 21.8818ZM20.7354 18.3145C20.4307 17.9717 20.5576 17.5273 20.875 17.1211C21.751 16.1562 22.1699 14.8486 22.1699 13.4395C22.1699 12.0176 21.6875 10.7734 20.875 9.75781C20.5703 9.33887 20.4307 8.89453 20.7354 8.55176C21.0654 8.18359 21.6367 8.18359 21.9922 8.61523C23.1094 9.91016 23.7568 11.6113 23.7568 13.4395C23.7568 15.2549 23.1094 16.9561 21.9922 18.251C21.6367 18.6826 21.0654 18.6826 20.7354 18.3145ZM11.252 18.3145C10.9346 18.6826 10.3506 18.6826 10.0078 18.251C8.87793 16.9561 8.23047 15.2549 8.23047 13.4395C8.23047 11.6113 8.87793 9.91016 10.0078 8.61523C10.3506 8.18359 10.9346 8.18359 11.252 8.55176C11.5566 8.89453 11.4297 9.33887 11.125 9.75781C10.3125 10.7734 9.81738 12.0176 9.81738 13.4395C9.81738 14.8486 10.249 16.1562 11.125 17.1211C11.4424 17.5273 11.5566 17.9717 11.252 18.3145ZM16 27.8486C15.5557 27.8486 15.251 27.5059 15.251 27.0107V15.3057C14.502 15.0137 13.9814 14.29 13.9814 13.4395C13.9814 12.3096 14.8701 11.4082 16 11.4082C17.1299 11.4082 18.0186 12.3096 18.0186 13.4395C18.0186 14.29 17.498 15.0137 16.749 15.3057V27.0107C16.749 27.5059 16.457 27.8486 16 27.8486Z" fill="black"/>
</svg>
