<svg width="32" height="32" viewBox="0 0 32 32" fill="none" xmlns="http://www.w3.org/2000/svg">
<path d="M22 16C25.3137 16 28 18.6863 28 22C28 25.3137 25.3137 28 22 28C18.6863 28 16 25.3137 16 22C16 18.6863 18.6863 16 22 16ZM25.707 19.293C25.3165 18.9025 24.6835 18.9025 24.293 19.293L21 22.5859L19.707 21.293C19.3165 20.9025 18.6835 20.9025 18.293 21.293C17.9024 21.6835 17.9024 22.3165 18.293 22.707L20.293 24.707C20.6835 25.0975 21.3165 25.0975 21.707 24.707L25.707 20.707C26.0975 20.3165 26.0975 19.6835 25.707 19.293Z" fill="#0F0F0F"/>
<path d="M23.2568 4.00684C25.8989 4.14053 28 6.32472 28 9V16.7109C26.5341 15.0493 24.3901 14 22 14C17.5817 14 14 17.5817 14 22C14 22.8155 14.0252 23.2588 14.252 24H7C4.23858 24 2 21.7614 2 19V9C2 6.23858 4.23858 4 7 4H23L23.2568 4.00684ZM9 14C8.44772 14 8 14.4477 8 15C8 15.5523 8.44772 16 9 16H13C13.5523 16 14 15.5523 14 15C14 14.4477 13.5523 14 13 14H9ZM9 10C8.44772 10 8 10.4477 8 11C8 11.5523 8.44772 12 9 12H19C19.5523 12 20 11.5523 20 11C20 10.4477 19.5523 10 19 10H9Z" fill="#0F0F0F"/>
</svg>
