<svg width="32" height="32" viewBox="0 0 32 32" fill="none" xmlns="http://www.w3.org/2000/svg">
<path d="M28.6523 16.0017L29.8603 12.9851C30.0297 12.5563 30.0427 12.0816 29.8969 11.6443C29.7512 11.2069 29.4561 10.8349 29.0634 10.5934L26.246 8.84637L25.37 5.737C25.2476 5.29511 24.9761 4.90913 24.6017 4.64448C24.2272 4.37982 23.7728 4.25277 23.3153 4.28485L19.9052 4.44208L17.2812 2.42352C16.9211 2.14662 16.4795 1.99672 16.0253 1.99725C15.5711 1.99778 15.1298 2.14871 14.7704 2.42645L12.0966 4.46454L8.72365 4.30927C8.26802 4.28389 7.81722 4.41351 7.44465 4.67701C7.07208 4.94052 6.79969 5.32239 6.67184 5.76044L5.78317 8.86884L2.95403 10.6364C2.56151 10.8778 2.26623 11.2494 2.11971 11.6863C1.97319 12.1232 1.98472 12.5977 2.15231 13.027L3.33981 16.0182L2.13961 19.0143C1.97021 19.443 1.95724 19.9177 2.10296 20.3551C2.24868 20.7924 2.54379 21.1645 2.93649 21.4059L5.75387 23.153L6.63087 26.2643C6.75821 26.7032 7.03089 27.0859 7.40419 27.3496C7.7775 27.6132 8.2293 27.7422 8.68555 27.7155L12.0947 27.5573L14.7197 29.5768C15.08 29.853 15.5214 30.0023 15.9753 30.0016C16.4292 30.0009 16.8701 29.8502 17.2295 29.5729L19.9033 27.5348L23.2763 27.6901C23.7317 27.7141 24.1818 27.584 24.5541 27.3207C24.9264 27.0574 25.199 26.6763 25.3281 26.239L26.2168 23.1306L29.0449 21.363C29.438 21.1221 29.7338 20.7506 29.8805 20.3135C30.0273 19.8765 30.0156 19.4017 29.8476 18.9724L28.6523 16.0017ZM26.7929 16.6989L27.9863 19.6667L25.1582 21.4343C24.7381 21.6938 24.4297 22.1004 24.2929 22.5749L23.3671 25.6921L19.996 25.5368C19.5093 25.5175 19.0309 25.6677 18.6425 25.9616L15.9384 27.9909L13.3124 25.9704C12.9534 25.6964 12.5141 25.5481 12.0624 25.5485C12.0272 25.5485 11.9931 25.5485 11.9579 25.5505L8.55557 25.7214L7.67957 22.6111C7.5445 22.1355 7.2366 21.7277 6.81629 21.4675L3.99696 19.7575L5.20496 16.7399C5.39034 16.2777 5.3907 15.7619 5.20596 15.2995L4.01364 12.3327L6.84176 10.5651C7.26184 10.3056 7.57029 9.89899 7.70703 9.4245L8.63281 6.30731L12.0039 6.46259C12.491 6.48275 12.97 6.33254 13.3584 6.03778L16.0625 4.00946L18.6875 6.02899C19.075 6.32432 19.5544 6.47307 20.041 6.44891L23.4443 6.278L24.3203 9.38835C24.4554 9.86386 24.7633 10.2717 25.1836 10.5319L28.0029 12.2419L26.7949 15.2595C26.6097 15.7213 26.609 16.2366 26.7929 16.6989Z" fill="#0F0F0F"/>
<path d="M20.3496 12.2409L14.0537 17.6364L11.7089 15.28C11.6164 15.1869 11.5063 15.1129 11.3852 15.0624C11.264 15.0118 11.134 14.9855 11.0027 14.9852C10.8714 14.9848 10.7413 15.0103 10.6199 15.0602C10.4984 15.1101 10.388 15.1835 10.2949 15.2761C10.2018 15.3687 10.1278 15.4787 10.0772 15.5999C10.0266 15.721 10.0004 15.851 10 15.9823C9.99968 16.1136 10.0252 16.2437 10.0751 16.3652C10.125 16.4866 10.1984 16.597 10.2909 16.6902L13.2909 19.7048C13.4688 19.8839 13.7079 19.989 13.9601 19.9989C14.2123 20.0089 14.4589 19.923 14.6503 19.7585L21.6503 13.7585C21.8516 13.586 21.976 13.3406 21.9964 13.0764C22.0167 12.8121 21.9312 12.5506 21.7587 12.3493C21.5862 12.1481 21.3409 12.0236 21.0766 12.0033C20.8123 11.983 20.5508 12.0684 20.3496 12.2409Z" fill="#0F0F0F"/>
</svg>
