<svg width="32" height="32" viewBox="0 0 32 32" fill="none" xmlns="http://www.w3.org/2000/svg">
<path d="M18 10.5C18.2761 10.5 18.5 10.7239 18.5 11V12.5H20C20.2761 12.5 20.5 12.7239 20.5 13C20.5 13.2761 20.2761 13.5 20 13.5H18.5V16.5H20C20.2761 16.5 20.5 16.7239 20.5 17C20.5 17.2761 20.2761 17.5 20 17.5H18.5V19C18.5 19.2761 18.2761 19.5 18 19.5C17.7239 19.5 17.5 19.2761 17.5 19V17.5H14.5V19C14.5 19.2761 14.2761 19.5 14 19.5C13.7239 19.5 13.5 19.2761 13.5 19V17.5H12C11.7239 17.5 11.5 17.2761 11.5 17C11.5 16.7239 11.7239 16.5 12 16.5H13.5V13.5H12C11.7239 13.5 11.5 13.2761 11.5 13C11.5 12.7239 11.7239 12.5 12 12.5H13.5V11C13.5 10.7239 13.7239 10.5 14 10.5C14.2761 10.5 14.5 10.7239 14.5 11V12.5H17.5V11C17.5 10.7239 17.7239 10.5 18 10.5ZM14.5 16.5H17.5V13.5H14.5V16.5Z" fill="#0F0F0F"/>
<path d="M27.1797 4.50488C29.0292 4.59842 30.5 6.12727 30.5 8V22C30.5 23.8727 29.0292 25.4016 27.1797 25.4951L27 25.5H12.4258L7.125 29.7412C6.51083 30.2322 5.61964 29.8522 5.51074 29.1123L5.5 28.96V25.5H5C3.12727 25.5 1.59842 24.0292 1.50488 22.1797L1.5 22V8C1.5 6.067 3.067 4.5 5 4.5H27L27.1797 4.50488ZM5 5.5C3.61929 5.5 2.5 6.61929 2.5 8V22L2.5127 22.2559C2.64082 23.5164 3.70566 24.5 5 24.5H6C6.27614 24.5 6.5 24.7239 6.5 25V28.96L11.9375 24.6094L12.0078 24.5625C12.0815 24.5217 12.1648 24.5 12.25 24.5H27L27.2559 24.4873C28.5164 24.3592 29.5 23.2943 29.5 22V8C29.5 6.70566 28.5164 5.64082 27.2559 5.5127L27 5.5H5Z" fill="#0F0F0F"/>
</svg>
