<svg width="32" height="32" viewBox="0 0 32 32" fill="none" xmlns="http://www.w3.org/2000/svg">
<path d="M16.0001 3.5C13.7284 3.50035 11.4997 4.11969 9.55352 5.29149C7.60734 6.46328 6.01724 8.14323 4.95407 10.1508C3.89091 12.1584 3.39488 14.4177 3.51927 16.6861C3.64367 18.9544 4.38379 21.1459 5.6601 23.0252C5.26025 24.269 4.41758 25.3226 3.2921 25.9861C3.1491 26.0769 3.0187 26.1599 2.9054 26.2429C2.76538 26.3441 2.65463 26.4805 2.58437 26.6383C2.51412 26.7961 2.48687 26.9697 2.5054 27.1414C2.52265 27.3163 2.58592 27.4835 2.68876 27.6261C2.7916 27.7686 2.93035 27.8814 3.0909 27.9529C4.00484 28.3308 4.9862 28.5186 5.9751 28.5047C7.55191 28.5103 9.09546 28.0514 10.4131 27.1853C12.1 28.0278 13.9557 28.4778 15.8412 28.5016C17.7266 28.5254 19.5931 28.1223 21.3007 27.3226C23.0084 26.5229 24.513 25.3473 25.7019 23.8838C26.8909 22.4202 27.7333 20.7067 28.1662 18.8714C28.5991 17.0361 28.6113 15.1267 28.2017 13.2861C27.7922 11.4455 26.9716 9.72139 25.8013 8.24284C24.6311 6.76429 23.1416 5.56962 21.4442 4.74828C19.7469 3.92693 17.8857 3.50019 16.0001 3.5ZM16.0001 27.5C14.122 27.5 12.2723 27.0411 10.612 26.1631C10.5301 26.1195 10.4377 26.0995 10.3451 26.1055C10.2526 26.1116 10.1635 26.1433 10.088 26.1972C9.14135 26.8643 8.04636 27.2905 6.89785 27.4391C5.74935 27.5877 4.58194 27.454 3.4967 27.0498C3.5934 26.9785 3.7042 26.9092 3.8258 26.832C5.21257 26.0038 6.23555 24.6826 6.6901 23.1326C6.71871 23.056 6.72811 22.9736 6.71748 22.8926C6.70684 22.8115 6.6765 22.7343 6.62911 22.6677C5.13408 20.567 4.38835 18.0248 4.51165 15.4493C4.63495 12.8739 5.62013 10.4146 7.309 8.46626C8.99787 6.51796 11.2925 5.1937 13.8243 4.70611C16.3562 4.21852 18.9785 4.59588 21.2702 5.77761C23.5618 6.95934 25.3899 8.87687 26.4609 11.2223C27.5318 13.5678 27.7836 16.2051 27.1757 18.7108C26.5678 21.2165 25.1355 23.4453 23.1088 25.0392C21.0821 26.6332 18.5785 27.4998 16.0001 27.5Z" fill="#0F0F0F"/>
</svg>
