<svg width="32" height="32" viewBox="0 0 32 32" fill="none" xmlns="http://www.w3.org/2000/svg">
<path d="M16.0001 27C14.204 27.0001 12.4352 26.5611 10.8477 25.7212C10.6838 25.6342 10.4989 25.5944 10.3137 25.6063C10.1285 25.6182 9.95026 25.6813 9.79885 25.7886C9.06205 26.3101 8.22639 26.6755 7.34321 26.8622C6.46004 27.049 5.54801 27.0532 4.66315 26.8746C5.84199 25.9706 6.71324 24.725 7.15805 23.3076C7.21523 23.1543 7.234 22.9893 7.21272 22.8271C7.19143 22.6648 7.13074 22.5103 7.03595 22.3769C5.8282 20.6815 5.12753 18.6776 5.01569 16.5991C4.90386 14.5205 5.38548 12.453 6.40435 10.6378L4.95075 9.1843C3.65141 11.2746 2.9749 13.6921 3.00055 16.1532C3.0262 18.6144 3.75293 21.0172 5.09555 23.08C4.72029 24.1262 3.98703 25.0059 3.02555 25.5634C2.87125 25.6606 2.73155 25.7499 2.61045 25.8393C2.39964 25.9918 2.23287 26.1973 2.12707 26.435C2.02126 26.6727 1.98017 26.9341 2.00795 27.1928C2.03569 27.4541 2.13108 27.7036 2.2847 27.9167C2.43832 28.1299 2.64487 28.2993 2.88395 28.4082C3.86394 28.8136 4.91621 29.0153 5.97665 29.0009C7.55267 29.0072 9.09957 28.5764 10.4455 27.7563C12.1829 28.5746 14.0796 28.9993 16.0001 29C18.4095 28.9988 20.7705 28.323 22.8157 27.0491L21.3622 25.5956C19.7253 26.5169 17.8784 27.0006 16.0001 27Z" fill="#0F0F0F"/>
<path d="M25.8613 24.4473C27.9959 21.9645 29.1135 18.7668 28.9903 15.4948C28.8671 12.2228 27.5122 9.11817 25.1969 6.80289C22.8816 4.48762 19.777 3.13266 16.505 3.00948C13.233 2.88629 10.0353 4.00397 7.55245 6.1386L4.70685 3.2929C4.52198 3.10676 4.2712 3.00099 4.00887 2.99852C3.74655 2.99604 3.49381 3.09706 3.30547 3.27967C3.11712 3.46228 3.00833 3.71177 3.0027 3.97405C2.99706 4.23633 3.09502 4.49026 3.27535 4.6808L27.319 28.7244C27.5095 28.9047 27.7634 29.0027 28.0257 28.9971C28.288 28.9914 28.5375 28.8826 28.7201 28.6943C28.9027 28.5059 29.0037 28.2532 29.0012 27.9909C28.9988 27.7285 28.893 27.4778 28.7069 27.2929L25.8613 24.4473ZM8.96605 7.5521C11.073 5.79406 13.7614 4.88771 16.5027 5.01121C19.244 5.13471 21.84 6.27912 23.7804 8.2195C25.7207 10.1599 26.8651 12.7559 26.9886 15.4972C27.1121 18.2385 26.2057 20.9268 24.4477 23.0338L8.96605 7.5521Z" fill="#0F0F0F"/>
</svg>
