<svg width="32" height="32" viewBox="0 0 32 32" fill="none" xmlns="http://www.w3.org/2000/svg">
<path d="M28.7622 27.807C28.6922 27.7562 28.6122 27.7055 28.5244 27.6498C27.9376 27.3052 27.4921 26.7637 27.2671 26.1215C28.2533 24.624 28.6688 22.8222 28.4378 21.0441C28.2069 19.266 27.345 17.63 26.009 16.4341C25.2768 18.9816 23.7543 21.2307 21.6611 22.8568C19.5679 24.483 17.0122 25.4021 14.3627 25.4816C15.2637 27.2025 16.7976 28.5063 18.6411 29.1185C20.4846 29.7306 22.4937 29.6032 24.2451 28.7631C25.026 29.2488 25.928 29.5047 26.8477 29.5014C27.4546 29.5095 28.0568 29.3942 28.6177 29.1625C28.7437 29.1046 28.8525 29.0149 28.9334 28.9022C29.0143 28.7896 29.0645 28.6578 29.0791 28.5199C29.0937 28.3837 29.0721 28.2461 29.0164 28.1209C28.9608 27.9957 28.8731 27.8874 28.7622 27.807Z" fill="#0F0F0F"/>
<path d="M24.5 13C24.4997 11.359 24.1148 9.74094 23.3761 8.2756C22.6374 6.81026 21.5656 5.53845 20.2466 4.5622C18.9276 3.58595 17.3981 2.93245 15.7809 2.65412C14.1637 2.37579 12.5038 2.48038 10.9343 2.9595C9.3648 3.43863 7.92946 4.27894 6.74343 5.41303C5.55739 6.54712 4.65368 7.94342 4.10479 9.48988C3.5559 11.0364 3.37712 12.6899 3.58279 14.318C3.78847 15.946 4.37286 17.5032 5.2891 18.8646C5.04208 19.5394 4.65196 20.1529 4.1455 20.6627C3.90681 20.8857 3.64537 21.083 3.3655 21.2514C3.2444 21.3275 3.1341 21.3978 3.0379 21.4682C2.9095 21.5612 2.80796 21.6866 2.74357 21.8315C2.67917 21.9764 2.65421 22.1357 2.6712 22.2934C2.6872 22.4535 2.7452 22.6065 2.83934 22.737C2.93348 22.8675 3.06041 22.9708 3.2073 23.0365C3.97986 23.3566 4.80961 23.5158 5.6458 23.5043C6.10255 23.4984 6.55765 23.4482 7.0047 23.3543C7.83922 23.1944 8.63536 22.8761 9.35 22.4164C10.9511 23.2062 12.7271 23.5749 14.5103 23.4876C16.2935 23.4003 18.025 22.8599 19.5413 21.9175C21.0575 20.975 22.3086 19.6616 23.1762 18.1013C24.0439 16.541 24.4995 14.7853 24.5 13Z" fill="#0F0F0F"/>
</svg>
