<svg width="32" height="32" viewBox="0 0 32 32" fill="none" xmlns="http://www.w3.org/2000/svg">
<path d="M16 27C14.204 27.0001 12.4351 26.5611 10.8476 25.7212C10.6837 25.6342 10.4988 25.5944 10.3136 25.6063C10.1284 25.6182 9.9502 25.6813 9.79879 25.7886C9.06199 26.3101 8.22633 26.6755 7.34315 26.8622C6.45998 27.049 5.54795 27.0532 4.66309 26.8746C5.84193 25.9706 6.71318 24.725 7.15799 23.3076C7.21517 23.1543 7.23394 22.9893 7.21265 22.8271C7.19137 22.6648 7.13068 22.5103 7.03589 22.3769C5.82814 20.6815 5.12747 18.6776 5.01563 16.5991C4.9038 14.5205 5.38542 12.453 6.40429 10.6378L4.95069 9.1843C3.65135 11.2746 2.97484 13.6921 3.00049 16.1532C3.02614 18.6144 3.75287 21.0172 5.09549 23.08C4.72023 24.1262 3.98697 25.0059 3.02549 25.5634C2.87119 25.6606 2.73149 25.7499 2.61039 25.8393C2.39958 25.9918 2.23281 26.1973 2.12701 26.435C2.0212 26.6727 1.98011 26.9341 2.00789 27.1928C2.03563 27.4541 2.13102 27.7036 2.28464 27.9167C2.43826 28.1299 2.64481 28.2993 2.88389 28.4082C3.86388 28.8136 4.91615 29.0153 5.97659 29.0009C7.55261 29.0072 9.09951 28.5764 10.4454 27.7563C12.1828 28.5746 14.0795 28.9993 16 29C18.4095 28.9988 20.7704 28.323 22.8156 27.0491L21.3621 25.5956C19.7252 26.5169 17.8784 27.0006 16 27Z" fill="#0F0F0F"/>
<path d="M25.8612 24.4473C27.9958 21.9645 29.1135 18.7668 28.9903 15.4948C28.8671 12.2228 27.5121 9.11817 25.1968 6.80289C22.8815 4.48762 19.7769 3.13266 16.5049 3.00948C13.2329 2.88629 10.0352 4.00397 7.55239 6.1386L4.70679 3.2929C4.52192 3.10676 4.27114 3.00099 4.00881 2.99852C3.74649 2.99604 3.49375 3.09706 3.3054 3.27967C3.11706 3.46228 3.00827 3.71177 3.00263 3.97405C2.997 4.23633 3.09496 4.49026 3.27529 4.6808L27.3189 28.7244C27.5094 28.9047 27.7634 29.0027 28.0256 28.9971C28.2879 28.9914 28.5374 28.8826 28.72 28.6943C28.9026 28.5059 29.0036 28.2532 29.0012 27.9909C28.9987 27.7285 28.8929 27.4778 28.7068 27.2929L25.8612 24.4473ZM8.96599 7.5521C11.073 5.79406 13.7613 4.88771 16.5026 5.01121C19.244 5.13471 21.8399 6.27912 23.7803 8.2195C25.7206 10.1599 26.865 12.7559 26.9885 15.4972C27.112 18.2385 26.2056 20.9268 24.4476 23.0338L8.96599 7.5521Z" fill="#0F0F0F"/>
</svg>
