<svg width="32" height="32" viewBox="0 0 32 32" fill="none" xmlns="http://www.w3.org/2000/svg">
<path d="M25 4C26.6569 4 28 5.34315 28 7V25C28 26.6569 26.6569 28 25 28C23.3431 28 16 28 16 28H7C5.34315 28 4 26.6569 4 25C4 25 4 8.65685 4 7C4 5.34315 5.5 4 7 4H25ZM13.5146 17.9759C13.0412 17.6918 12.4268 17.8453 12.1426 18.3187L9.80176 20.8877L8.70703 19.793C8.31653 19.4025 7.68347 19.4025 7.29297 19.793C6.90247 20.1835 6.90252 20.8165 7.29297 21.207L9.29297 23.207C9.5107 23.4248 9.81646 23.5298 10.1221 23.4922C10.4277 23.4546 10.699 23.2787 10.8574 23.0146L13.8574 19.348C14.1416 18.8744 13.9882 18.2601 13.5146 17.9759ZM17 19.5C16.4478 19.5 16.0001 19.9478 16 20.5C16 21.0523 16.4477 21.5 17 21.5H24C24.5523 21.5 25 21.0523 25 20.5C24.9999 19.9478 24.5522 19.5 24 19.5H17ZM13.5146 8.97591C13.0412 8.69181 12.4268 8.8453 12.1426 9.31869L9.80176 11.8877L8.70703 10.793C8.31653 10.4025 7.68347 10.4025 7.29297 10.793C6.90247 11.1835 6.90252 11.8165 7.29297 12.207L9.29297 14.207C9.5107 14.4248 9.81646 14.5298 10.1221 14.4922C10.4277 14.4546 10.699 14.2787 10.8574 14.0146L13.8574 10.348C14.1416 9.87443 13.9882 9.26008 13.5146 8.97591ZM17 10.5C16.4478 10.5 16.0001 10.9478 16 11.5C16 12.0523 16.4477 12.5 17 12.5H24C24.5523 12.5 25 12.0523 25 11.5C24.9999 10.9478 24.5522 10.5 24 10.5H17Z" fill="#0F0F0F"/>
</svg>
