<svg width="32" height="32" viewBox="0 0 32 32" fill="none" xmlns="http://www.w3.org/2000/svg">
<path d="M27 2C28.6569 2 30 3.34315 30 5V27C30 28.6569 28.6569 30 27 30H5C3.34315 30 2 28.6569 2 27V5C2 3.34315 3.34315 2 5 2H27ZM12.5146 17.1426C12.0412 16.8585 11.4268 17.012 11.1426 17.4854L8.80176 21.3877L7.70703 20.293C7.31653 19.9025 6.68347 19.9025 6.29297 20.293C5.90247 20.6835 5.90252 21.3165 6.29297 21.707L8.29297 23.707C8.5107 23.9248 8.81646 24.0298 9.12207 23.9922C9.42769 23.9546 9.69899 23.7787 9.85742 23.5146L12.8574 18.5146C13.1416 18.0411 12.9882 17.4267 12.5146 17.1426ZM16 20C15.4478 20 15.0001 20.4478 15 21C15 21.5523 15.4477 22 16 22H25C25.5523 22 26 21.5523 26 21C25.9999 20.4478 25.5522 20 25 20H16ZM12.5146 7.14258C12.0412 6.85848 11.4268 7.01197 11.1426 7.48535L8.80176 11.3877L7.70703 10.293C7.31653 9.90254 6.68347 9.90254 6.29297 10.293C5.90247 10.6835 5.90252 11.3165 6.29297 11.707L8.29297 13.707C8.5107 13.9248 8.81646 14.0298 9.12207 13.9922C9.42769 13.9546 9.69899 13.7787 9.85742 13.5146L12.8574 8.51465C13.1416 8.04109 12.9882 7.42675 12.5146 7.14258ZM16 10C15.4478 10 15.0001 10.4478 15 11C15 11.5523 15.4477 12 16 12H25C25.5523 12 26 11.5523 26 11C25.9999 10.4478 25.5522 10 25 10H16Z" fill="black"/>
</svg>
