<svg width="32" height="32" viewBox="0 0 32 32" fill="none" xmlns="http://www.w3.org/2000/svg">
<path d="M16.0002 2.24969C13.2808 2.24969 10.6223 3.05611 8.36116 4.56698C6.09998 6.07785 4.33761 8.22531 3.29691 10.7378C2.2562 13.2503 1.98391 16.0149 2.51445 18.6822C3.045 21.3494 4.35456 23.7994 6.27753 25.7224C8.2005 27.6454 10.6505 28.9549 13.3178 29.4855C15.985 30.016 18.7497 29.7437 21.2621 28.703C23.7746 27.6623 25.9221 25.9 27.433 23.6388C28.9438 21.3776 29.7502 18.7192 29.7502 15.9997C29.7462 12.3542 28.2963 8.85918 25.7185 6.28143C23.1408 3.70368 19.6457 2.25373 16.0002 2.24969ZM16.0002 28.2497C13.5774 28.2497 11.209 27.5312 9.19452 26.1852C7.18001 24.8391 5.6099 22.926 4.68273 20.6876C3.75555 18.4492 3.51296 15.9861 3.98563 13.6098C4.4583 11.2336 5.625 9.05083 7.33819 7.33763C9.05139 5.62444 11.2341 4.45774 13.6104 3.98507C15.9867 3.5124 18.4497 3.75499 20.6881 4.68217C22.9265 5.60934 24.8397 7.17945 26.1858 9.19396C27.5318 11.2085 28.2502 13.5769 28.2502 15.9997C28.2467 19.2475 26.9549 22.3612 24.6583 24.6578C22.3618 26.9543 19.248 28.2461 16.0002 28.2497Z" fill="#0F0F0F"/>
<path d="M20.5305 11.4694C20.4609 11.3998 20.3782 11.3445 20.2873 11.3068C20.1963 11.2691 20.0987 11.2497 20.0003 11.2497C19.9018 11.2497 19.8042 11.2691 19.7133 11.3068C19.6223 11.3445 19.5396 11.3998 19.47 11.4694L16.0002 14.9392L12.5305 11.4694C12.4609 11.3998 12.3782 11.3445 12.2872 11.3069C12.1962 11.2692 12.0987 11.2498 12.0002 11.2498C11.9018 11.2498 11.8042 11.2692 11.7133 11.3069C11.6223 11.3446 11.5396 11.3998 11.47 11.4694C11.4003 11.5391 11.3451 11.6218 11.3074 11.7127C11.2697 11.8037 11.2503 11.9012 11.2503 11.9997C11.2503 12.0982 11.2697 12.1957 11.3074 12.2867C11.3451 12.3777 11.4004 12.4604 11.47 12.53L14.9397 15.9997L11.47 19.4694C11.3293 19.6101 11.2503 19.8008 11.2503 19.9997C11.2503 20.1986 11.3293 20.3893 11.47 20.53C11.6106 20.6706 11.8014 20.7496 12.0002 20.7496C12.1991 20.7496 12.3899 20.6706 12.5305 20.53L16.0002 17.0603L19.47 20.53C19.6106 20.6706 19.8014 20.7496 20.0003 20.7496C20.1992 20.7496 20.3899 20.6706 20.5305 20.53C20.6712 20.3894 20.7502 20.1986 20.7502 19.9997C20.7502 19.8008 20.6712 19.6101 20.5305 19.4695L17.0608 15.9997L20.5305 12.53C20.6002 12.4604 20.6555 12.3777 20.6932 12.2867C20.7309 12.1957 20.7503 12.0982 20.7503 11.9997C20.7503 11.9012 20.7309 11.8037 20.6932 11.7127C20.6555 11.6217 20.6002 11.539 20.5305 11.4694Z" fill="#0F0F0F"/>
</svg>
