<svg width="32" height="32" viewBox="0 0 32 32" fill="none" xmlns="http://www.w3.org/2000/svg">
<path d="M11.4033 10.0059C12.436 9.95856 13.4498 10.304 14.2559 10.9775C14.9233 11.5833 15.3565 12.4213 15.4727 13.335H13.3223C13.2852 12.8386 13.065 12.3763 12.707 12.0459C12.349 11.7155 11.8814 11.5424 11.4033 11.5635C11.0778 11.5485 10.7542 11.6263 10.4678 11.7881C10.1814 11.9499 9.94272 12.1902 9.77734 12.4824C9.38484 13.2461 9.20253 14.1081 9.25195 14.9727C9.17474 15.9548 9.41863 16.9356 9.94336 17.7559C10.1112 17.9707 10.3246 18.1424 10.5664 18.2578C10.8082 18.3732 11.072 18.4296 11.3379 18.4219C12.5837 18.4219 13.2538 17.7027 13.3477 16.2646H15.5361C15.5031 16.8254 15.358 17.3733 15.1113 17.873C14.8647 18.3726 14.5211 18.8135 14.1025 19.168C13.2802 19.7539 12.2962 20.0443 11.3008 19.9941C10.6965 20.0271 10.0927 19.916 9.53613 19.6689C8.9796 19.4219 8.48433 19.0459 8.08887 18.5693C7.32789 17.5435 6.94587 16.2668 7.0127 14.9727C6.96307 14.2669 7.05739 13.5579 7.28906 12.8926C7.52075 12.2273 7.88486 11.6202 8.35742 11.1113C9.1953 10.3437 10.2885 9.94708 11.4033 10.0059Z" fill="#0F0F0F"/>
<path d="M20.8662 10.0059C21.8993 9.9588 22.914 10.3042 23.7207 10.9775C24.3875 11.5834 24.8188 12.4216 24.9346 13.335H22.7852C22.7485 12.8384 22.5279 12.3764 22.1699 12.0459C21.8118 11.7154 21.3444 11.542 20.8662 11.5635C20.541 11.5486 20.2177 11.6265 19.9316 11.7881C19.6455 11.9499 19.4063 12.1903 19.2412 12.4824C18.8487 13.2461 18.6674 14.1081 18.7168 14.9727C18.639 15.9548 18.882 16.9358 19.4072 17.7559C19.575 17.9707 19.7885 18.1424 20.0303 18.2578C20.272 18.3732 20.5359 18.4296 20.8018 18.4219C22.0463 18.4219 22.7164 17.7027 22.8115 16.2646H25C24.9667 16.8252 24.8217 17.3725 24.5752 17.8721C24.3285 18.3719 23.9851 18.8141 23.5664 19.1689C22.7437 19.7547 21.7593 20.0443 20.7637 19.9941C20.1594 20.0271 19.5556 19.916 18.999 19.6689C18.4425 19.4219 17.9472 19.0459 17.5518 18.5693C16.7917 17.5431 16.4099 16.2665 16.4766 14.9727C16.4267 14.2669 16.5215 13.5579 16.7529 12.8926C16.9844 12.2273 17.348 11.6202 17.8203 11.1113C18.6584 10.3441 19.7514 9.94754 20.8662 10.0059Z" fill="#0F0F0F"/>
<path d="M27.4434 4.00488C29.4246 4.10551 31 5.74378 31 7.75V21.75C31 23.7562 29.4246 25.3945 27.4434 25.4951L27.25 25.5H12.7637L7.53125 29.6865C6.76371 30.3002 5.6504 29.8256 5.51367 28.9014L5.5 28.71V25.5H5.25C3.24378 25.5 1.60551 23.9246 1.50488 21.9434L1.5 21.75V7.75C1.5 5.67893 3.17893 4 5.25 4H27.25L27.4434 4.00488ZM5.25 5.5C4.00736 5.5 3 6.50736 3 7.75V21.75L3.01172 21.9805C3.12714 23.1148 4.08517 24 5.25 24H6.25C6.66421 24 7 24.3358 7 24.75V28.1895L12.0312 24.1641L12.1367 24.0938C12.2473 24.0325 12.3722 24 12.5 24H27.25L27.4805 23.9883C28.6148 23.8729 29.5 22.9148 29.5 21.75V7.75L29.4883 7.51953C29.3806 6.46094 28.5391 5.61943 27.4805 5.51172L27.25 5.5H5.25Z" fill="#0F0F0F"/>
</svg>
