<svg width="32" height="32" viewBox="0 0 32 32" fill="none" xmlns="http://www.w3.org/2000/svg">
<path d="M25 4H7C5.6744 4.00156 4.40353 4.53266 3.46619 5.47C2.52884 6.40734 2.00156 7.6744 2 9V20C2.00315 20.7608 2.17921 21.511 2.51486 22.1938C2.85051 22.8766 3.33698 23.4742 3.9375 23.9414C3.66946 24.305 3.32854 24.6086 2.9365 24.833C2.66164 24.9512 2.42711 25.1468 2.26151 25.396C2.09591 25.6452 2.00641 25.9372 2.00391 26.2363C2.02393 26.5385 2.13158 26.8283 2.31369 27.0702C2.4958 27.3122 2.74448 27.4958 3.0293 27.5986C3.70033 27.8832 4.42471 28.02 5.1533 28C6.88848 27.9886 8.57361 27.4173 9.95799 26.3711C10.1914 26.2041 10.457 25.9746 10.7314 25.7354C11.0217 25.4607 11.3376 25.2144 11.6748 25H25C26.3256 24.9984 27.5965 24.4712 28.5338 23.5338C29.4712 22.5965 29.9984 21.3256 30 20V9C29.9984 7.6744 29.4712 6.40734 28.5338 5.47C27.5965 4.53266 26.3256 4.00156 25 4ZM10.5661 17.7582C10.808 17.8737 11.0721 17.9297 11.3381 17.9219C12.5841 17.9219 13.2539 17.2027 13.3476 15.7642H15.5359C15.5029 16.3251 15.3585 16.8728 15.1117 17.3727C14.865 17.8726 14.5213 18.3138 14.1025 18.6684C13.2801 19.2545 12.2961 19.5445 11.3006 19.4943C10.6963 19.5273 10.0927 19.4159 9.53603 19.1689C8.97936 18.9218 8.48435 18.5456 8.08884 18.0689C7.32783 17.043 6.94602 15.7669 7.01289 14.4727C6.96325 13.7668 7.05737 13.058 7.28909 12.3926C7.52081 11.7271 7.88491 11.1201 8.35758 10.6112C9.19546 9.84361 10.2883 9.44693 11.4031 9.50571C12.436 9.45836 13.4501 9.80369 14.2562 10.4773C14.9237 11.0831 15.356 11.9215 15.4722 12.8353H13.3227C13.2857 12.3387 13.0648 11.8764 12.7068 11.546C12.3487 11.2155 11.8813 11.0427 11.4031 11.0638C11.0776 11.0489 10.7542 11.1265 10.4678 11.2882C10.1814 11.45 9.94265 11.6898 9.77726 11.9821C9.38461 12.7459 9.20293 13.608 9.25237 14.4727C9.17512 15.455 9.4186 16.4356 9.94341 17.256C10.1112 17.4709 10.3243 17.6427 10.5661 17.7582ZM20.0302 17.7582C20.2721 17.8737 20.5362 17.9297 20.8022 17.9219C22.0469 17.9219 22.7167 17.2027 22.8117 15.7642H25C24.9667 16.3251 24.8222 16.8727 24.5755 17.3725C24.3288 17.8724 23.9853 18.3136 23.5666 18.6685C22.7437 19.2545 21.7594 19.5445 20.7635 19.4943C20.1591 19.5273 19.5556 19.416 18.9989 19.1689C18.4422 18.9218 17.9472 18.5456 17.5517 18.0689C16.7916 17.0426 16.4103 15.7666 16.477 14.4727C16.4271 13.7669 16.521 13.0581 16.7525 12.3927C16.984 11.7273 17.3479 11.1202 17.8204 10.6112C18.6585 9.84401 19.7512 9.44738 20.866 9.50571C21.8991 9.45858 22.9135 9.80387 23.7203 10.4773C24.3874 11.0832 24.8193 11.9216 24.935 12.8353H22.7855C22.7489 12.3385 22.5282 11.876 22.17 11.5455C21.8118 11.215 21.3442 11.0422 20.866 11.0638C20.5406 11.0489 20.2174 11.1265 19.9312 11.2883C19.6449 11.45 19.4065 11.6899 19.2413 11.9821C18.8487 12.7459 18.667 13.608 18.7164 14.4727C18.6386 15.455 18.8821 16.4359 19.4075 17.256C19.5753 17.4709 19.7884 17.6427 20.0302 17.7582Z" fill="#0F0F0F"/>
</svg>
