<svg width="32" height="32" viewBox="0 0 32 32" fill="none" xmlns="http://www.w3.org/2000/svg">
<path d="M25.0002 4H7.00024C5.80717 4.0013 4.66333 4.47583 3.8197 5.31946C2.97607 6.16309 2.50155 7.30693 2.50024 8.5V20.5C2.50411 21.2662 2.70224 22.0189 3.0761 22.6877C3.44995 23.3565 3.98732 23.9196 4.63794 24.3242C4.27444 24.9165 3.77366 25.4126 3.17794 25.7705C2.98503 25.846 2.81843 25.9762 2.69869 26.1453C2.57895 26.3143 2.51131 26.5147 2.50411 26.7217C2.50997 26.9375 2.61446 27.3457 3.24532 27.6484C3.84302 27.8972 4.48688 28.0158 5.13399 27.9961C6.76838 27.9861 8.35612 27.4502 9.66231 26.4678C9.88595 26.3096 10.1399 26.0889 10.4016 25.8594C10.7443 25.5596 11.382 25.001 11.6135 25H25.0002C26.1933 24.9987 27.3372 24.5242 28.1808 23.6805C29.0244 22.8369 29.4989 21.6931 29.5002 20.5V8.5C29.4989 7.30692 29.0244 6.16309 28.1808 5.31945C27.3372 4.47582 26.1933 4.0013 25.0002 4ZM28.5002 20.5C28.4991 21.4279 28.13 22.3175 27.4739 22.9736C26.8177 23.6298 25.9282 23.9989 25.0002 24H11.6067C10.8822 24.1573 10.2283 24.5456 9.74341 25.1064C9.50708 25.3134 9.27954 25.5147 9.07841 25.6562L9.06571 25.666C7.73139 26.6913 6.04727 27.1505 4.3772 26.9443C4.0986 26.9115 3.82863 26.8267 3.5813 26.6943C3.60376 26.6796 3.63013 26.663 3.66138 26.6455C4.53951 26.111 5.2587 25.3513 5.74438 24.4453C5.79411 24.3415 5.81823 24.2273 5.8147 24.1123C5.80188 24.0143 5.76468 23.9211 5.7065 23.8413C5.64832 23.7615 5.57102 23.6975 5.4817 23.6553C4.88961 23.367 4.39013 22.9186 4.03991 22.3609C3.68969 21.8032 3.50273 21.1585 3.50024 20.5V8.5C3.50137 7.57209 3.87048 6.6825 4.52661 6.02637C5.18275 5.37023 6.07233 5.00112 7.00024 5H25.0002C25.9282 5.00112 26.8177 5.37023 27.4739 6.02637C28.13 6.6825 28.4991 7.57209 28.5002 8.5V20.5Z" fill="#0F0F0F"/>
<path d="M9.94341 17.256C10.1112 17.4709 10.3243 17.6427 10.5661 17.7582C10.808 17.8737 11.0721 17.9297 11.3381 17.9219C12.5841 17.9219 13.2539 17.2027 13.3476 15.7642H15.5359C15.5029 16.3251 15.3585 16.8728 15.1117 17.3727C14.865 17.8726 14.5213 18.3138 14.1025 18.6684C13.2801 19.2545 12.2961 19.5445 11.3006 19.4943C10.6963 19.5273 10.0927 19.4159 9.53603 19.1689C8.97936 18.9218 8.48435 18.5456 8.08884 18.0689C7.32783 17.043 6.94602 15.7669 7.01289 14.4727C6.96325 13.7668 7.05737 13.058 7.28909 12.3926C7.52081 11.7271 7.88491 11.1201 8.35758 10.6112C9.19546 9.84361 10.2883 9.44693 11.4031 9.50571C12.436 9.45836 13.4501 9.80369 14.2562 10.4773C14.9237 11.0831 15.356 11.9215 15.4722 12.8353H13.3227C13.2857 12.3387 13.0648 11.8764 12.7068 11.546C12.3487 11.2155 11.8813 11.0427 11.4031 11.0638C11.0776 11.0489 10.7542 11.1265 10.4678 11.2882C10.1814 11.45 9.94265 11.6898 9.77726 11.9821C9.38461 12.7459 9.20293 13.608 9.25237 14.4727C9.17512 15.455 9.4186 16.4356 9.94341 17.256Z" fill="#0F0F0F"/>
<path d="M19.4075 17.256C19.5753 17.4709 19.7884 17.6427 20.0302 17.7582C20.2721 17.8737 20.5362 17.9297 20.8022 17.9219C22.0469 17.9219 22.7167 17.2027 22.8117 15.7642H25C24.9667 16.3251 24.8222 16.8727 24.5755 17.3725C24.3288 17.8724 23.9853 18.3136 23.5666 18.6685C22.7437 19.2545 21.7594 19.5445 20.7635 19.4943C20.1591 19.5273 19.5556 19.416 18.9989 19.1689C18.4422 18.9218 17.9472 18.5456 17.5517 18.0689C16.7916 17.0426 16.4103 15.7666 16.477 14.4727C16.4271 13.7669 16.521 13.0581 16.7525 12.3927C16.984 11.7273 17.3479 11.1202 17.8204 10.6112C18.6585 9.84401 19.7512 9.44738 20.866 9.50571C21.8991 9.45858 22.9135 9.80387 23.7203 10.4773C24.3874 11.0832 24.8193 11.9216 24.935 12.8353H22.7855C22.7489 12.3385 22.5282 11.876 22.17 11.5455C21.8118 11.215 21.3442 11.0422 20.866 11.0638C20.5406 11.0489 20.2174 11.1265 19.9312 11.2883C19.6449 11.45 19.4065 11.6899 19.2413 11.9821C18.8487 12.7459 18.667 13.608 18.7164 14.4727C18.6386 15.455 18.8821 16.4359 19.4075 17.256Z" fill="#0F0F0F"/>
</svg>
