<svg width="32" height="32" viewBox="0 0 32 32" fill="none" xmlns="http://www.w3.org/2000/svg">
<path d="M23 4.5H9C7.80692 4.5013 6.66308 4.97582 5.81945 5.81945C4.97582 6.66308 4.5013 7.80692 4.5 9V23C4.5013 24.1931 4.97582 25.3369 5.81945 26.1805C6.66308 27.0242 7.80692 27.4987 9 27.5H23C24.1931 27.4987 25.3369 27.0242 26.1805 26.1805C27.0242 25.3369 27.4987 24.1931 27.5 23V9C27.4987 7.80693 27.0241 6.66311 26.1805 5.81948C25.3369 4.97585 24.1931 4.50132 23 4.5ZM26.5 23C26.4989 23.9279 26.1298 24.8175 25.4736 25.4736C24.8175 26.1298 23.9279 26.4989 23 26.5H9C8.07208 26.4989 7.18249 26.1298 6.52635 25.4736C5.87022 24.8175 5.50111 23.9279 5.5 23V9C5.50111 8.07208 5.87022 7.18249 6.52635 6.52635C7.18249 5.87022 8.07208 5.50111 9 5.5H23C23.9279 5.50111 24.8175 5.87022 25.4736 6.52635C26.1298 7.18249 26.4989 8.07208 26.5 9V23Z" fill="#0F0F0F"/>
<path d="M20.4182 13.62C20.0909 12.7094 19.4914 11.9216 18.701 11.3634C17.9106 10.8052 16.9676 10.5038 16 10.5C13.52 10.5 11.543 12.4864 11.1709 15.2832C10.7483 15.3457 10.343 15.494 9.97986 15.7191C9.61675 15.9442 9.30356 16.2412 9.05956 16.5918C8.81557 16.9425 8.64595 17.3394 8.56113 17.7581C8.47632 18.1768 8.47811 18.6084 8.5664 19.0264C8.72588 19.7354 9.12418 20.3681 9.69455 20.8184C10.2649 21.2687 10.9727 21.5094 11.6994 21.5H19.3294C20.3363 21.5126 21.3132 21.1573 22.0768 20.5009C22.8404 19.8445 23.3382 18.932 23.4769 17.9346C23.5812 16.9661 23.3278 15.9928 22.7645 15.1982C22.2011 14.4035 21.3666 13.8422 20.4182 13.62ZM22.4826 17.829C22.3721 18.5817 21.9909 19.2683 21.4104 19.76C20.8298 20.2517 20.0899 20.5148 19.3293 20.5H11.6993C11.2029 20.51 10.7182 20.349 10.3263 20.0441C9.93446 19.7392 9.65932 19.3088 9.547 18.8252C9.48037 18.5151 9.48392 18.194 9.55738 17.8854C9.63083 17.5768 9.77234 17.2885 9.97156 17.0417C10.1708 16.7948 10.4226 16.5956 10.7088 16.4586C10.9949 16.3217 11.308 16.2504 11.6252 16.25H12.09L12.1242 15.7862C12.3058 13.2626 13.9 11.5 16 11.5C16.8053 11.4954 17.5897 11.7565 18.2317 12.2428C18.8736 12.7291 19.3373 13.4135 19.551 14.19L19.6389 14.4985L19.9562 14.5474C20.7189 14.6638 21.4072 15.07 21.8778 15.6813C22.3485 16.2926 22.5651 17.0619 22.4826 17.829Z" fill="#0F0F0F"/>
</svg>
