<svg width="32" height="32" viewBox="0 0 32 32" fill="none" xmlns="http://www.w3.org/2000/svg">
<path d="M27.3269 20.1358C25.8957 21.3626 24.0663 22.0254 22.1815 22H21.0052C20.74 22 20.4856 21.8947 20.2981 21.7071C20.1106 21.5196 20.0052 21.2653 20.0052 21C20.0052 20.7348 20.1106 20.4805 20.2981 20.2929C20.4856 20.1054 20.74 20 21.0052 20L22.1936 20.0001C23.5899 20.0245 24.9472 19.5389 26.011 18.6342C27.0726 17.7314 27.7691 16.4732 27.9709 15.0946C28.1197 13.6916 27.7225 12.285 26.8616 11.1669C25.9989 10.0464 24.7361 9.30195 23.3381 9.08891L22.7877 9.00296L22.5678 8.48673C22.0257 7.18168 21.1156 6.06258 19.9485 5.26587C18.7842 4.47114 17.4144 4.03147 16.0052 4.00012C14.1087 4.04289 12.3032 4.82307 10.9723 6.17529C9.63919 7.52972 8.8875 9.35102 8.87723 11.2514V12.25H7.87796C7.29971 12.2508 6.72895 12.3808 6.20736 12.6304C5.68576 12.8801 5.2265 13.243 4.8631 13.6928C4.4997 14.1426 4.24134 14.6679 4.10689 15.2303C3.97275 15.7913 3.96531 16.3752 4.08509 16.9395C4.28919 17.821 4.78952 18.6058 5.5026 19.1629C6.21674 19.7208 7.1009 20.0163 8.007 20.0001L8.01595 20L11.0052 20C11.2704 20 11.5248 20.1054 11.7123 20.2929C11.8998 20.4804 12.0052 20.7348 12.0052 21C12.0052 21.2652 11.8998 21.5196 11.7123 21.7071C11.5248 21.8946 11.2704 22 11.0052 22H8.01948C6.6552 22.0185 5.32588 21.568 4.25379 20.724C3.18079 19.8792 2.43061 18.6914 2.12889 17.3595L2.12733 17.3524C1.9555 16.5399 1.95761 15.7001 2.13346 14.8884C2.30931 14.0767 2.65495 13.3114 3.14766 12.6428C3.64037 11.9742 4.26899 11.4174 4.99222 11.0091C5.59128 10.6709 6.24401 10.4408 6.92048 10.3283C7.12719 8.13897 8.11297 6.09079 9.70596 4.56136C11.4002 2.93475 13.6527 2.01828 16.0013 2.00002L16.0145 2C17.7685 2.0329 19.4773 2.56217 20.9429 3.52631C22.3372 4.4436 23.4572 5.71888 24.1868 7.21652C25.9276 7.61536 27.4717 8.62446 28.5363 10.0654C29.6519 11.5755 30.1595 13.4496 29.9584 15.3163L29.9565 15.3323C29.6941 17.2002 28.759 18.9082 27.3269 20.1358Z" fill="#0F0F0F"/>
<path d="M12.0115 24.0371C12.275 24.0358 12.5283 24.1384 12.7165 24.3228L12.7198 24.3261L15.0052 26.6084V14.9993C15.0052 14.7341 15.1105 14.4797 15.2981 14.2922C15.4856 14.1046 15.7399 13.9993 16.0052 13.9993C16.2704 13.9993 16.5247 14.1046 16.7123 14.2922C16.8998 14.4797 17.0052 14.7341 17.0052 14.9993V26.611L19.3075 24.3161C19.4005 24.2236 19.5113 24.1498 19.6329 24.0998C19.7543 24.0499 19.8844 24.0244 20.0157 24.0248C20.1471 24.0251 20.277 24.0514 20.3982 24.1019C20.5194 24.1525 20.6294 24.2265 20.722 24.3196C20.8146 24.4127 20.888 24.5231 20.9379 24.6446C20.9878 24.7661 21.0133 24.8962 21.0129 25.0275C21.0126 25.1588 20.9863 25.2887 20.9357 25.41L20.9171 25.4546L16.712 29.7271L16.71 29.7292C16.5222 29.9155 16.2683 30.0199 16.0038 30.0195C15.7393 30.0192 15.4856 29.914 15.2984 29.7271L11.3024 25.7369C11.118 25.5487 11.0153 25.2954 11.0166 25.032C11.018 24.7685 11.1232 24.5162 11.3095 24.33C11.4958 24.1437 11.7481 24.0384 12.0115 24.0371Z" fill="#0F0F0F"/>
</svg>
