<svg width="38" height="32" viewBox="0 0 38 32" fill="none" xmlns="http://www.w3.org/2000/svg">
<path d="M14.874 30.4639C15.3438 30.6035 15.8262 30.3369 15.9658 29.8164L23.6846 3.33398C23.8242 2.82617 23.5957 2.34375 23.1133 2.2041C22.6436 2.06445 22.1611 2.33105 22.0215 2.85156L14.3027 29.334C14.1631 29.8418 14.3916 30.3115 14.874 30.4639ZM27.0107 25.8682L36.7734 17.0322C37.2178 16.6387 37.2051 16.0166 36.7734 15.6104L27.0107 6.78711C26.6045 6.41895 26.0586 6.43164 25.7285 6.7998C25.3984 7.18066 25.4492 7.71387 25.8301 8.05664L34.958 16.3213L25.8301 24.5859C25.4492 24.9414 25.3984 25.4746 25.7285 25.8428C26.0586 26.2236 26.6045 26.2236 27.0107 25.8682ZM10.9893 25.8809C11.3828 26.249 11.9287 26.2363 12.2588 25.8682C12.5889 25.4873 12.5381 24.9541 12.1572 24.5986L3.0293 16.3467L12.1572 8.08203C12.5381 7.72656 12.5889 7.19336 12.2588 6.8125C11.9287 6.44434 11.3828 6.44434 10.9893 6.7998L1.21387 15.623C0.769531 16.0293 0.782227 16.6514 1.21387 17.0576L10.9893 25.8809Z" fill="black"/>
</svg>
