<svg width="34" height="32" viewBox="0 0 34 32" fill="none" xmlns="http://www.w3.org/2000/svg">
<path d="M25.2393 18.1875L26.1279 16.0166C28.5146 16.6006 30.3893 17.4089 31.752 18.4414C33.1146 19.474 33.7959 20.6546 33.7959 21.9834C33.7959 23.016 33.3854 23.9554 32.5645 24.8018C31.752 25.6481 30.5967 26.3802 29.0986 26.998C27.6006 27.6159 25.8232 28.0898 23.7666 28.4199C21.7184 28.7585 19.4629 28.9277 17 28.9277C14.5371 28.9277 12.2816 28.7585 10.2334 28.4199C8.18522 28.0898 6.41211 27.6159 4.91406 26.998C3.41602 26.3802 2.25651 25.6481 1.43555 24.8018C0.614583 23.9554 0.204102 23.016 0.204102 21.9834C0.204102 20.6885 0.847331 19.5374 2.13379 18.5303C3.42871 17.5146 5.21875 16.7106 7.50391 16.1182L8.62109 18.2002C7.36003 18.5049 6.26823 18.8604 5.3457 19.2666C4.43164 19.6644 3.72493 20.096 3.22559 20.5615C2.72624 21.027 2.47656 21.501 2.47656 21.9834C2.47656 22.5843 2.84896 23.1641 3.59375 23.7227C4.33854 24.2812 5.37533 24.7848 6.7041 25.2334C8.03288 25.6735 9.57324 26.0205 11.3252 26.2744C13.0856 26.5283 14.9772 26.6553 17 26.6553C19.0228 26.6553 20.9102 26.5283 22.6621 26.2744C24.4225 26.0205 25.9671 25.6735 27.2959 25.2334C28.6247 24.7848 29.6615 24.2812 30.4062 23.7227C31.151 23.1641 31.5234 22.5843 31.5234 21.9834C31.5234 21.501 31.2653 21.0228 30.749 20.5488C30.2412 20.0749 29.5176 19.639 28.5781 19.2412C27.6387 18.835 26.5257 18.4837 25.2393 18.1875ZM26.4453 9.18652H28.7939V11.8779C28.7939 13.5622 28.5273 15.1068 27.9941 16.5117C27.4609 17.9167 26.6992 19.1312 25.709 20.1553C24.7272 21.1794 23.5508 21.9707 22.1797 22.5293C20.8086 23.0879 19.2809 23.3672 17.5967 23.3672H16.3906C14.7148 23.3672 13.1914 23.0879 11.8203 22.5293C10.4492 21.9707 9.26855 21.1794 8.27832 20.1553C7.29655 19.1312 6.53906 17.9209 6.00586 16.5244C5.47266 15.1195 5.20605 13.5706 5.20605 11.8779V9.18652H7.55469V11.8779C7.55469 13.6976 7.91439 15.2972 8.63379 16.6768C9.35319 18.0479 10.373 19.1143 11.6934 19.876C13.0137 20.6377 14.5794 21.0186 16.3906 21.0186H17.5967C19.4079 21.0186 20.9736 20.6377 22.2939 19.876C23.6143 19.1058 24.6341 18.0352 25.3535 16.6641C26.0814 15.2845 26.4453 13.6891 26.4453 11.8779V9.18652ZM17 14.6074C14.6556 14.6074 12.599 14.3831 10.8301 13.9346C9.0612 13.4775 7.68164 12.8428 6.69141 12.0303C5.70117 11.2178 5.20605 10.2699 5.20605 9.18652C5.20605 8.10319 5.70117 7.15527 6.69141 6.34277C7.68164 5.52181 9.05697 4.88704 10.8174 4.43848C12.5863 3.98145 14.6471 3.75293 17 3.75293C19.3444 3.75293 21.401 3.98145 23.1699 4.43848C24.9473 4.88704 26.3268 5.52181 27.3086 6.34277C28.2988 7.15527 28.7939 8.10319 28.7939 9.18652C28.7939 10.2699 28.2988 11.2178 27.3086 12.0303C26.3184 12.8428 24.9388 13.4775 23.1699 13.9346C21.401 14.3831 19.3444 14.6074 17 14.6074ZM17 12.2588C18.3457 12.2588 19.5898 12.1826 20.7324 12.0303C21.8835 11.8695 22.8864 11.6494 23.7412 11.3701C24.596 11.0824 25.2604 10.7523 25.7344 10.3799C26.2083 10.0075 26.4453 9.6097 26.4453 9.18652C26.4453 8.76335 26.2083 8.36556 25.7344 7.99316C25.2604 7.6123 24.596 7.28223 23.7412 7.00293C22.8864 6.72363 21.8877 6.50358 20.7451 6.34277C19.6025 6.18197 18.3542 6.10156 17 6.10156C15.6458 6.10156 14.3975 6.18197 13.2549 6.34277C12.1123 6.50358 11.1136 6.72363 10.2588 7.00293C9.40397 7.28223 8.73958 7.6123 8.26562 7.99316C7.79167 8.36556 7.55469 8.76335 7.55469 9.18652C7.55469 9.6097 7.79167 10.0075 8.26562 10.3799C8.73958 10.7523 9.40397 11.0824 10.2588 11.3701C11.1136 11.6494 12.1123 11.8695 13.2549 12.0303C14.3975 12.1826 15.6458 12.2588 17 12.2588ZM27.2578 17.4385V15.1406H28.3877C29.1748 15.1406 29.7842 14.9756 30.2158 14.6455C30.6559 14.307 30.876 13.8372 30.876 13.2363C30.876 12.6523 30.6559 12.1953 30.2158 11.8652C29.7842 11.5267 29.1748 11.3574 28.3877 11.3574H27.4102V9.05957H28.3877C29.8688 9.05957 31.0368 9.43197 31.8916 10.1768C32.7549 10.9215 33.1865 11.9414 33.1865 13.2363C33.1865 14.5566 32.7591 15.5892 31.9043 16.334C31.0495 17.0703 29.8773 17.4385 28.3877 17.4385H27.2578Z" fill="black"/>
</svg>
