<svg width="32" height="32" viewBox="0 0 32 32" fill="none" xmlns="http://www.w3.org/2000/svg">
<path d="M19.7939 15.9996L15.9996 7.4625L12.2054 15.9996H19.7939Z" fill="#0F0F0F"/>
<path d="M7 2C4.23858 2 2 4.23858 2 7V25C2 27.7614 4.23858 30 7 30H25C27.7614 30 30 27.7614 30 25V7C30 4.23858 27.7614 2 25 2H7ZM7.97411 23.9996C7.84279 23.9962 7.71342 23.967 7.59338 23.9137C7.35107 23.8058 7.16149 23.6061 7.06628 23.3586C6.97106 23.111 6.978 22.8358 7.08557 22.5934L15.0856 4.59385C15.1642 4.4171 15.2924 4.26695 15.4546 4.16157C15.6169 4.05619 15.8062 4.0001 15.9996 4.0001C16.1931 4.0001 16.3824 4.05619 16.5446 4.16157C16.7069 4.26695 16.835 4.4171 16.9137 4.59385L24.9137 22.5934C24.967 22.7134 24.9962 22.8428 24.9996 22.9741C25.0029 23.1054 24.9804 23.2361 24.9332 23.3587C24.8861 23.4813 24.8152 23.5934 24.7248 23.6886C24.6343 23.7838 24.5259 23.8603 24.4059 23.9137C24.2858 23.967 24.1565 23.9962 24.0252 23.9996C23.8938 24.0029 23.7632 23.9804 23.6406 23.9332C23.518 23.8861 23.4058 23.8152 23.3106 23.7247C23.2154 23.6342 23.1389 23.5259 23.0856 23.4059L20.6828 17.9996H11.3165L8.91369 23.4059C8.86036 23.5259 8.78391 23.6343 8.68869 23.7248C8.59347 23.8153 8.48135 23.8861 8.35874 23.9333C8.23613 23.9804 8.10543 24.003 7.97411 23.9996ZM6.29253 26.2925C6.48006 26.105 6.73442 25.9996 6.99963 25.9996H24.9996C25.2649 25.9996 25.5192 26.105 25.7067 26.2925C25.8943 26.48 25.9996 26.7344 25.9996 26.9996C25.9996 27.2648 25.8943 27.5192 25.7067 27.7067C25.5192 27.8943 25.2649 27.9996 24.9996 27.9996H6.99963C6.73442 27.9996 6.48006 27.8943 6.29253 27.7067C6.10499 27.5192 5.99963 27.2648 5.99963 26.9996C5.99963 26.7344 6.10499 26.48 6.29253 26.2925Z" fill="#0F0F0F"/>
</svg>
