<svg width="32" height="32" viewBox="0 0 32 32" fill="none" xmlns="http://www.w3.org/2000/svg">
<path d="M5.58675 5.98512C7.99632 3.44316 11.5279 2 16 2C20.4205 2 23.9158 3.17082 26.3255 5.16748C28.7479 7.1746 30 9.95958 30 13C30 16.4063 29.0679 18.6829 27.049 20.0089C25.1476 21.2577 22.4893 21.5 19.5 21.5C18.1653 21.5 17.2687 21.8324 16.6922 22.2718C16.1214 22.707 15.7902 23.3025 15.673 23.9824C15.4312 25.3843 16.116 27.1397 17.5812 28.1863C17.935 28.4389 18.085 28.8912 17.9523 29.3052C17.8196 29.7192 17.4347 30 17 30C12.4784 30 8.71747 28.5633 6.07958 26.0511C3.43921 23.5364 2 20.0153 2 16C2 12.0353 3.18552 8.51828 5.58675 5.98512ZM18 10C18 8.89543 17.1046 8 16 8C14.8954 8 14 8.89543 14 10C14 11.1046 14.8954 12 16 12C17.1046 12 18 11.1046 18 10ZM10 16C11.1046 16 12 15.1046 12 14C12 12.8954 11.1046 12 10 12C8.89543 12 8 12.8954 8 14C8 15.1046 8.89543 16 10 16ZM24 14C24 12.8954 23.1046 12 22 12C20.8954 12 20 12.8954 20 14C20 15.1046 20.8954 16 22 16C23.1046 16 24 15.1046 24 14Z" fill="#0F0F0F"/>
</svg>
