<svg width="32" height="32" viewBox="0 0 32 32" fill="none" xmlns="http://www.w3.org/2000/svg">
<path d="M25 26.5C25.2761 26.5 25.5 26.7239 25.5 27C25.5 27.2761 25.2761 27.5 25 27.5H7C6.72386 27.5 6.5 27.2761 6.5 27C6.5 26.7239 6.72386 26.5 7 26.5H25Z" fill="#0F0F0F"/>
<path d="M16 4.5C16.1979 4.5 16.377 4.61686 16.457 4.79785L23.957 21.7979L23.9893 21.8945C24.0385 22.1216 23.9229 22.3594 23.7021 22.457C23.4812 22.5545 23.2274 22.4795 23.0928 22.29L23.043 22.2021L20.9688 17.5H11.0312L8.95703 22.2021C8.84542 22.4545 8.55035 22.5684 8.29785 22.457C8.04551 22.3454 7.93157 22.0504 8.04297 21.7979L15.543 4.79785L15.5771 4.7334C15.6678 4.58961 15.8267 4.5 16 4.5ZM11.4727 16.5H20.5273L16 6.2373L11.4727 16.5Z" fill="#0F0F0F"/>
</svg>
