<svg width="32" height="32" viewBox="0 0 32 32" fill="none" xmlns="http://www.w3.org/2000/svg">
<path d="M25 26.25C25.4142 26.25 25.75 26.5858 25.75 27C25.75 27.4142 25.4142 27.75 25 27.75H7C6.58579 27.75 6.25 27.4142 6.25 27C6.25 26.5858 6.58579 26.25 7 26.25H25Z" fill="#0F0F0F"/>
<path d="M16 4.25C16.2971 4.25 16.5666 4.42541 16.6865 4.69727L24.1865 21.6973L24.2139 21.7686C24.3316 22.1302 24.1581 22.5297 23.8027 22.6865C23.4475 22.8432 23.0364 22.7016 22.8486 22.3711L22.8135 22.3027L20.8047 17.75H11.1953L9.18652 22.3027C9.01935 22.6817 8.57621 22.8536 8.19727 22.6865C7.81833 22.5193 7.64637 22.0762 7.81348 21.6973L15.3135 4.69727L15.3652 4.59961C15.5012 4.384 15.7401 4.25 16 4.25ZM11.8564 16.25H20.1436L16 6.8584L11.8564 16.25Z" fill="#0F0F0F"/>
</svg>
