<svg width="32" height="32" viewBox="0 0 32 32" fill="none" xmlns="http://www.w3.org/2000/svg">
<path d="M16 10C18.7614 10 21 12.2386 21 15C21 17.7614 18.7614 20 16 20C13.2386 20 11 17.7614 11 15C11 12.2386 13.2386 10 16 10ZM19.0664 12.9648C18.707 12.5457 18.0755 12.4972 17.6562 12.8564L15.1299 15.0205L14.4004 14.2871C14.0109 13.8959 13.3777 13.8949 12.9863 14.2842C12.5949 14.6737 12.593 15.3067 12.9824 15.6982L14.3672 17.0898C14.7364 17.4609 15.3291 17.4842 15.7266 17.1436L18.958 14.374C19.3766 14.0146 19.4253 13.384 19.0664 12.9648Z" fill="#0F0F0F"/>
<path d="M27.1797 4.50488C29.0292 4.59842 30.5 6.12727 30.5 8V22C30.5 23.8727 29.0292 25.4016 27.1797 25.4951L27 25.5H12.4258L7.125 29.7412C6.51083 30.2322 5.61964 29.8522 5.51074 29.1123L5.5 28.96V25.5H5C3.12727 25.5 1.59842 24.0292 1.50488 22.1797L1.5 22V8C1.5 6.067 3.067 4.5 5 4.5H27L27.1797 4.50488ZM16 8C12.134 8 9 11.134 9 15C9 18.866 12.134 22 16 22C19.866 22 23 18.866 23 15C23 11.134 19.866 8 16 8Z" fill="#0F0F0F"/>
</svg>
