<svg width="32" height="32" viewBox="0 0 32 32" fill="none" xmlns="http://www.w3.org/2000/svg">
<path d="M4.15527 24.459C2.1748 24.459 1.18457 23.4941 1.18457 21.4883V6.86328C1.18457 4.84473 2.1748 3.89258 4.15527 3.89258H27.832C29.7998 3.89258 30.8027 4.84473 30.8027 6.86328V21.4883C30.8027 23.4941 29.7998 24.459 27.832 24.459H19.834L20.2021 27.125H21.9287C22.3857 27.125 22.7539 27.4932 22.7539 27.9502C22.7539 28.4072 22.3857 28.7754 21.9287 28.7754H10.0459C9.60156 28.7754 9.2334 28.4072 9.2334 27.9502C9.2334 27.4932 9.60156 27.125 10.0459 27.125H11.7852L12.1533 24.459H4.15527ZM3.35547 19.165H28.6191C29.0381 19.165 29.2285 18.9873 29.2285 18.5684V6.88867C29.2285 5.88574 28.7715 5.4541 27.7939 5.4541H4.19336C3.21582 5.4541 2.75879 5.88574 2.75879 6.88867V18.5684C2.75879 18.9873 2.94922 19.165 3.35547 19.165ZM15.9873 23.1768C16.5586 23.1768 17.0664 22.707 17.0664 22.1104C17.0664 21.5391 16.5586 21.0439 15.9873 21.0439C15.4033 21.0439 14.9209 21.5391 14.9209 22.1104C14.9209 22.707 15.4033 23.1768 15.9873 23.1768Z" fill="black"/>
</svg>
