<svg width="32" height="32" viewBox="0 0 32 32" fill="none" xmlns="http://www.w3.org/2000/svg">
<path d="M17.8184 13.0459C18.1327 12.7766 18.6064 12.8128 18.876 13.127C19.1455 13.4414 19.1092 13.915 18.7949 14.1846L15.5645 16.9541C15.2663 17.2096 14.8209 17.1914 14.5439 16.9131L13.1602 15.5215C12.8681 15.2279 12.8685 14.7531 13.1621 14.4609C13.4556 14.169 13.9305 14.1706 14.2227 14.4639L15.1162 15.3613L17.8184 13.0459Z" fill="#0F0F0F"/>
<path d="M16 8.25C19.7279 8.25 22.75 11.2721 22.75 15C22.75 18.7279 19.7279 21.75 16 21.75C12.2721 21.75 9.25 18.7279 9.25 15C9.25 11.2721 12.2721 8.25 16 8.25ZM16 9.75C13.1005 9.75 10.75 12.1005 10.75 15C10.75 17.8995 13.1005 20.25 16 20.25C18.8995 20.25 21.25 17.8995 21.25 15C21.25 12.1005 18.8995 9.75 16 9.75Z" fill="#0F0F0F"/>
<path d="M27.4434 4.00488C29.4246 4.10551 31 5.74378 31 7.75V21.75C31 23.7562 29.4246 25.3945 27.4434 25.4951L27.25 25.5H12.7637L7.53125 29.6865C6.76371 30.3002 5.6504 29.8256 5.51367 28.9014L5.5 28.71V25.5H5.25C3.24378 25.5 1.60551 23.9246 1.50488 21.9434L1.5 21.75V7.75C1.5 5.67893 3.17893 4 5.25 4H27.25L27.4434 4.00488ZM5.25 5.5C4.00736 5.5 3 6.50736 3 7.75V21.75L3.01172 21.9805C3.12714 23.1148 4.08517 24 5.25 24H6.25C6.66421 24 7 24.3358 7 24.75V28.1895L12.0312 24.1641L12.1367 24.0938C12.2473 24.0325 12.3722 24 12.5 24H27.25L27.4805 23.9883C28.6148 23.8729 29.5 22.9148 29.5 21.75V7.75L29.4883 7.51953C29.3806 6.46094 28.5391 5.61943 27.4805 5.51172L27.25 5.5H5.25Z" fill="#0F0F0F"/>
</svg>
