<svg width="32" height="32" viewBox="0 0 32 32" fill="none" xmlns="http://www.w3.org/2000/svg">
<path d="M17.9814 13.2354C18.1911 13.0559 18.5069 13.0806 18.6865 13.29C18.866 13.4997 18.8413 13.8154 18.6318 13.9951L15.4014 16.7637C15.2027 16.934 14.9063 16.9227 14.7217 16.7373L13.3369 15.3457C13.1423 15.15 13.1432 14.8334 13.3389 14.6387C13.5346 14.4441 13.8512 14.445 14.0459 14.6406L15.1025 15.7021L17.9814 13.2354Z" fill="#0F0F0F"/>
<path d="M16 8.5C19.5899 8.5 22.5 11.4101 22.5 15C22.5 18.5899 19.5899 21.5 16 21.5C12.4101 21.5 9.5 18.5899 9.5 15C9.5 11.4101 12.4101 8.5 16 8.5ZM16 9.5C12.9624 9.5 10.5 11.9624 10.5 15C10.5 18.0376 12.9624 20.5 16 20.5C19.0376 20.5 21.5 18.0376 21.5 15C21.5 11.9624 19.0376 9.5 16 9.5Z" fill="#0F0F0F"/>
<path d="M27.1797 4.50488C29.0292 4.59842 30.5 6.12727 30.5 8V22C30.5 23.8727 29.0292 25.4016 27.1797 25.4951L27 25.5H12.4258L7.125 29.7412C6.51083 30.2322 5.61964 29.8522 5.51074 29.1123L5.5 28.96V25.5H5C3.12727 25.5 1.59842 24.0292 1.50488 22.1797L1.5 22V8C1.5 6.067 3.067 4.5 5 4.5H27L27.1797 4.50488ZM5 5.5C3.61929 5.5 2.5 6.61929 2.5 8V22L2.5127 22.2559C2.64082 23.5164 3.70566 24.5 5 24.5H6C6.27614 24.5 6.5 24.7239 6.5 25V28.96L11.9375 24.6094L12.0078 24.5625C12.0815 24.5217 12.1648 24.5 12.25 24.5H27L27.2559 24.4873C28.5164 24.3592 29.5 23.2943 29.5 22V8C29.5 6.70566 28.5164 5.64082 27.2559 5.5127L27 5.5H5Z" fill="#0F0F0F"/>
</svg>
