<svg width="32" height="32" viewBox="0 0 32 32" fill="none" xmlns="http://www.w3.org/2000/svg">
<path d="M20.2139 15.6973C20.4235 15.5179 20.7393 15.5424 20.9189 15.752C21.0982 15.9616 21.0738 16.2775 20.8643 16.457L18.71 18.3027C18.5113 18.4728 18.2148 18.4617 18.0303 18.2764L17.1074 17.3486C16.9128 17.153 16.9139 16.8364 17.1094 16.6416C17.3051 16.4469 17.6216 16.447 17.8164 16.6426L18.4121 17.2412L20.2139 15.6973Z" fill="#0F0F0F"/>
<path d="M19 12.5C21.4853 12.5 23.5 14.5147 23.5 17C23.5 19.4853 21.4853 21.5 19 21.5C16.5147 21.5 14.5 19.4853 14.5 17C14.5 14.5147 16.5147 12.5 19 12.5ZM19 13.5C17.067 13.5 15.5 15.067 15.5 17C15.5 18.933 17.067 20.5 19 20.5C20.933 20.5 22.5 18.933 22.5 17C22.5 15.067 20.933 13.5 19 13.5Z" fill="#0F0F0F"/>
<path d="M26.5938 9.80371H26.5986C28.0415 9.87455 29.2 11.0284 29.2002 12.4551V21.6221C29.2002 23.0489 28.0416 24.2036 26.5986 24.2744H26.5938L26.4629 24.2783H16.7041L13.2109 26.9775C12.5743 27.469 11.6403 27.0965 11.5234 26.3359C11.5227 26.3309 11.5219 26.3254 11.5215 26.3203L11.5127 26.1943C11.5123 26.1895 11.5117 26.1845 11.5117 26.1797V24.2764C10.0646 24.261 8.87735 23.1588 8.80371 21.7598V21.7539L8.7998 21.6279V12.4551C8.80002 10.9823 10.0343 9.8 11.542 9.7998H26.4629L26.5938 9.80371ZM26.458 11.1826H11.542C10.8037 11.1828 10.217 11.7587 10.2168 12.4551V21.6123L10.2236 21.7568C10.2927 22.3913 10.8518 22.8953 11.542 22.8955H12.2207C12.6052 22.8957 12.9287 23.1989 12.9287 23.5869V25.4316L16.0176 23.0449L16.0312 23.0352L16.1035 22.9893L16.1172 22.9805C16.2213 22.9249 16.3388 22.8955 16.458 22.8955H26.458L26.5947 22.8887L26.7188 22.8711C27.3302 22.754 27.7832 22.2344 27.7832 21.6221V12.4658L27.7764 12.3252L27.7598 12.2158C27.6524 11.6747 27.1861 11.2483 26.5996 11.1885L26.458 11.1826Z" fill="#0F0F0F"/>
<path d="M19.7148 5.80273H19.7197C21.097 5.87106 22.2002 6.98255 22.2002 8.35254V9C22.2002 9.11046 22.1105 9.2002 22 9.2002H21.0342C20.9237 9.2002 20.834 9.11046 20.834 9V8.36328L20.8271 8.22852C20.768 7.66413 20.3071 7.20809 19.7188 7.14746L19.5742 7.14062H5.41504C4.72032 7.14076 4.16602 7.68847 4.16602 8.35254V17.123L4.17285 17.2617C4.2382 17.8664 4.76577 18.3456 5.41504 18.3457H6.05957C6.43155 18.3458 6.74186 18.6408 6.74219 19.0156V20.7627L7.87695 19.8789C7.93721 19.832 8.01928 19.8239 8.08789 19.8574C8.1565 19.891 8.2002 19.9607 8.2002 20.0371V21.2432C8.2002 21.3048 8.17167 21.3635 8.12305 21.4014L7.00781 22.2705C6.39552 22.7472 5.49939 22.3842 5.3877 21.6504C5.38692 21.6453 5.38612 21.6399 5.38574 21.6348L5.37695 21.5146C5.3766 21.5098 5.37598 21.5049 5.37598 21.5V19.6846C3.99958 19.6647 2.87298 18.6066 2.80273 17.2666V17.2607L2.7998 17.1387V8.35254C2.7998 6.93811 3.97577 5.79995 5.41504 5.7998H19.5898L19.7148 5.80273Z" fill="#0F0F0F"/>
</svg>
