<svg width="32" height="32" viewBox="0 0 32 32" fill="none" xmlns="http://www.w3.org/2000/svg">
<path d="M19 13.75C20.7949 13.75 22.25 15.2051 22.25 17C22.25 18.7949 20.7949 20.25 19 20.25C17.2051 20.25 15.75 18.7949 15.75 17C15.75 15.2051 17.2051 13.75 19 13.75ZM21.1084 15.5889C20.8388 15.2744 20.3653 15.2383 20.0508 15.5078L18.4248 16.9004L17.9932 16.4668C17.701 16.1733 17.2262 16.1717 16.9326 16.4639C16.6392 16.756 16.6386 17.2308 16.9307 17.5244L17.8535 18.4521C18.1304 18.7302 18.575 18.7484 18.873 18.4932L21.0273 16.6465C21.3415 16.3769 21.3777 15.9033 21.1084 15.5889Z" fill="#0F0F0F"/>
<path d="M26.2783 9.74609H26.2842C27.6528 9.8129 28.7556 10.9065 28.7559 12.2627V21.3428C28.7557 22.699 27.6529 23.7936 26.2842 23.8604H26.2783L26.1572 23.8633H16.4307L12.9316 26.5625C12.3736 26.9921 11.5488 26.6688 11.4453 25.9941C11.4443 25.9876 11.4438 25.9803 11.4434 25.9736L11.4365 25.875C11.4361 25.8694 11.4356 25.8631 11.4355 25.8574V23.8633H11.3486C9.9634 23.863 8.81765 22.8118 8.74707 21.4727V21.4658L8.74414 21.3486V12.2627C8.74443 10.8628 9.9191 9.74341 11.3486 9.74316H26.1572L26.2783 9.74609ZM19 12.25C16.3766 12.25 14.25 14.3766 14.25 17C14.25 19.6234 16.3766 21.75 19 21.75C21.6234 21.75 23.75 19.6234 23.75 17C23.75 14.3766 21.6234 12.25 19 12.25Z" fill="#0F0F0F"/>
<path d="M19.6035 5.72754L19.6123 5.72852C21.0992 5.80553 22.2752 7.05138 22.2754 8.56934V9.27539H20.458V8.56934L20.4531 8.46582L20.4404 8.37793C20.3586 7.94355 20.0036 7.61087 19.5693 7.56543L19.4668 7.55957L5.5332 7.56055C4.98925 7.56062 4.54216 8.00823 4.54199 8.56934V17.5635L4.54688 17.667L4.56055 17.7617C4.65133 18.2271 5.05533 18.5732 5.5332 18.5732H6.16699C6.67183 18.5735 7.07485 18.9876 7.0752 19.4902V20.7871L7.82617 20.1777L8.27539 19.8145V22.1689L8.17285 22.252L7.25 23.001C6.44208 23.6554 5.25862 23.0654 5.25781 22.0352V20.3936C3.88081 20.2579 2.79915 19.117 2.72852 17.71L2.72754 17.7021L2.72461 17.5693V8.56934C2.7248 7.00219 3.97871 5.7247 5.5332 5.72461H19.4727L19.6035 5.72754Z" fill="#0F0F0F"/>
</svg>
