<svg width="32" height="32" viewBox="0 0 32 32" fill="none" xmlns="http://www.w3.org/2000/svg">
<g clip-path="url(#clip0_43398_240)">
<path d="M18.5596 29.7148V28.1533H27.4844C27.7637 28.1533 27.9668 28.0898 28.0938 27.9629C28.2292 27.8359 28.2969 27.6286 28.2969 27.3408V12.2588C28.2969 11.9626 28.2292 11.751 28.0938 11.624C27.9668 11.4971 27.7637 11.4336 27.4844 11.4336H19.4863V9.87207H27.9287C28.5381 9.87207 29.012 10.0583 29.3506 10.4307C29.6891 10.7946 29.8584 11.2982 29.8584 11.9414V27.6455C29.8584 28.2972 29.6891 28.805 29.3506 29.1689C29.012 29.5329 28.5381 29.7148 27.9287 29.7148H18.5596ZM23.2949 16.3975C23.0495 16.3975 22.9268 16.2705 22.9268 16.0166V13.8711C22.9268 13.6172 23.0495 13.4902 23.2949 13.4902H25.4785C25.7324 13.4902 25.8594 13.6172 25.8594 13.8711V16.0166C25.8594 16.2705 25.7324 16.3975 25.4785 16.3975H23.2949ZM23.2949 21.2471C23.0495 21.2471 22.9268 21.1201 22.9268 20.8662V18.7334C22.9268 18.471 23.0495 18.3398 23.2949 18.3398H25.4785C25.7324 18.3398 25.8594 18.471 25.8594 18.7334V20.8662C25.8594 21.1201 25.7324 21.2471 25.4785 21.2471H23.2949ZM23.2949 26.0967C23.0495 26.0967 22.9268 25.9697 22.9268 25.7158V23.583C22.9268 23.3291 23.0495 23.2021 23.2949 23.2021H25.4785C25.7324 23.2021 25.8594 23.3291 25.8594 23.583V25.7158C25.8594 25.9697 25.7324 26.0967 25.4785 26.0967H23.2949ZM1.12891 27.6455V5.06055C1.12891 4.40885 1.29818 3.90104 1.63672 3.53711C1.97526 3.17318 2.45345 2.99121 3.07129 2.99121H18.5596C19.1689 2.99121 19.6429 3.17318 19.9814 3.53711C20.32 3.90104 20.4893 4.40885 20.4893 5.06055V27.6455C20.4893 28.2972 20.32 28.805 19.9814 29.1689C19.6429 29.5329 19.1689 29.7148 18.5596 29.7148H3.07129C2.45345 29.7148 1.97526 29.5329 1.63672 29.1689C1.29818 28.805 1.12891 28.2972 1.12891 27.6455ZM2.69043 27.3408C2.69043 27.6286 2.75391 27.8359 2.88086 27.9629C3.00781 28.0898 3.21517 28.1533 3.50293 28.1533H18.1152C18.3945 28.1533 18.5977 28.0898 18.7246 27.9629C18.8516 27.8359 18.915 27.6286 18.915 27.3408V5.36523C18.915 5.07747 18.8516 4.87012 18.7246 4.74316C18.5977 4.61621 18.3945 4.55273 18.1152 4.55273H3.50293C3.21517 4.55273 3.00781 4.61621 2.88086 4.74316C2.75391 4.87012 2.69043 5.07747 2.69043 5.36523V27.3408ZM6.43555 28.9023V24.5098C6.43555 23.9935 6.55404 23.6169 6.79102 23.3799C7.02799 23.1344 7.39193 23.0117 7.88281 23.0117H13.7354C14.2347 23.0117 14.5986 23.1344 14.8271 23.3799C15.0641 23.6169 15.1826 23.9935 15.1826 24.5098V28.9023H13.875V24.8145C13.875 24.4928 13.71 24.332 13.3799 24.332H8.23828C7.9082 24.332 7.74316 24.4928 7.74316 24.8145V28.9023H6.43555ZM6.61328 10.3799C6.31706 10.3799 6.16895 10.2233 6.16895 9.91016V7.33301C6.16895 7.01986 6.31706 6.86328 6.61328 6.86328H9.25391C9.55859 6.86328 9.71094 7.01986 9.71094 7.33301V9.91016C9.71094 10.2233 9.55859 10.3799 9.25391 10.3799H6.61328ZM12.3516 10.3799C12.0553 10.3799 11.9072 10.2233 11.9072 9.91016V7.33301C11.9072 7.01986 12.0553 6.86328 12.3516 6.86328H14.9922C15.2969 6.86328 15.4492 7.01986 15.4492 7.33301V9.91016C15.4492 10.2233 15.2969 10.3799 14.9922 10.3799H12.3516ZM6.61328 15.623C6.31706 15.623 6.16895 15.4707 6.16895 15.166V12.5889C6.16895 12.2757 6.31706 12.1191 6.61328 12.1191H9.25391C9.55859 12.1191 9.71094 12.2757 9.71094 12.5889V15.166C9.71094 15.4707 9.55859 15.623 9.25391 15.623H6.61328ZM12.3516 15.623C12.0553 15.623 11.9072 15.4707 11.9072 15.166V12.5889C11.9072 12.2757 12.0553 12.1191 12.3516 12.1191H14.9922C15.2969 12.1191 15.4492 12.2757 15.4492 12.5889V15.166C15.4492 15.4707 15.2969 15.623 14.9922 15.623H12.3516ZM6.61328 20.8789C6.31706 20.8789 6.16895 20.7223 6.16895 20.4092V17.832C6.16895 17.5273 6.31706 17.375 6.61328 17.375H9.25391C9.55859 17.375 9.71094 17.5273 9.71094 17.832V20.4092C9.71094 20.7223 9.55859 20.8789 9.25391 20.8789H6.61328ZM12.3516 20.8789C12.0553 20.8789 11.9072 20.7223 11.9072 20.4092V17.832C11.9072 17.5273 12.0553 17.375 12.3516 17.375H14.9922C15.2969 17.375 15.4492 17.5273 15.4492 17.832V20.4092C15.4492 20.7223 15.2969 20.8789 14.9922 20.8789H12.3516Z" fill="black"/>
</g>
<defs>
<clipPath id="clip0_43398_240">
<rect width="32" height="32" fill="white"/>
</clipPath>
</defs>
</svg>
