<svg width="32" height="32" viewBox="0 0 32 32" fill="none" xmlns="http://www.w3.org/2000/svg">
<path d="M18.5167 15.7606C19.0783 15.2522 19.4727 14.5856 19.648 13.8486C19.8234 13.1116 19.7714 12.3388 19.4989 11.6319C19.2265 10.9251 18.7463 10.3173 18.1217 9.88866C17.4971 9.46001 16.7573 9.23058 15.9998 9.23058C15.2422 9.23058 14.5025 9.46001 13.8779 9.88866C13.2532 10.3173 12.7731 10.9251 12.5007 11.6319C12.2282 12.3388 12.1762 13.1116 12.3516 13.8486C12.5269 14.5856 12.9213 15.2522 13.4829 15.7606C12.5622 16.1059 11.7641 16.7155 11.1889 17.513C10.6137 18.3105 10.287 19.2601 10.2498 20.2427C10.2498 20.8731 10.6121 21.7373 12.3387 22.2769C13.5298 22.6106 14.763 22.77 15.9998 22.75C18.7791 22.75 21.7498 22.0913 21.7498 20.2427C21.7126 19.2601 21.3859 18.3104 20.8107 17.513C20.2354 16.7155 19.4373 16.1059 18.5167 15.7606ZM13.7498 13C13.7498 12.555 13.8817 12.12 14.129 11.75C14.3762 11.38 14.7276 11.0916 15.1387 10.9213C15.5499 10.751 16.0023 10.7064 16.4387 10.7932C16.8752 10.88 17.2761 11.0943 17.5908 11.409C17.9054 11.7237 18.1197 12.1246 18.2066 12.561C18.2934 12.9975 18.2488 13.4499 18.0785 13.861C17.9082 14.2722 17.6198 14.6236 17.2498 14.8708C16.8798 15.118 16.4448 15.25 15.9998 15.25C15.4033 15.2493 14.8314 15.012 14.4096 14.5902C13.9878 14.1684 13.7505 13.5965 13.7498 13ZM15.9998 21.25C13.1961 21.25 11.7498 20.5439 11.7498 20.2427C11.7498 18.3169 13.656 16.75 15.9998 16.75C18.3435 16.75 20.2498 18.3169 20.2498 20.2427C20.2498 20.544 18.8035 21.25 15.9998 21.25Z" fill="#0F0F0F"/>
<path d="M21.9998 3.25H9.99979C8.87255 3.25292 7.78316 3.65703 6.92671 4.38995C6.07027 5.12288 5.5027 6.13675 5.32566 7.25H2.99979C2.80087 7.25 2.61011 7.32902 2.46946 7.46967C2.3288 7.61032 2.24979 7.80109 2.24979 8C2.24979 8.19891 2.3288 8.38968 2.46946 8.53033C2.61011 8.67098 2.80087 8.75 2.99979 8.75H5.24979V15.25H2.99979C2.80087 15.25 2.61011 15.329 2.46946 15.4697C2.3288 15.6103 2.24979 15.8011 2.24979 16C2.24979 16.1989 2.3288 16.3897 2.46946 16.5303C2.61011 16.671 2.80087 16.75 2.99979 16.75H5.24979V23.2498L2.99979 23.2505C2.80087 23.2505 2.61011 23.3295 2.46946 23.4702C2.3288 23.6108 2.24979 23.8016 2.24979 24.0005C2.24979 24.1994 2.3288 24.3902 2.46946 24.5308C2.61011 24.6715 2.80087 24.7505 2.99979 24.7505L5.32566 24.7498C5.50275 25.863 6.07033 26.8768 6.92677 27.6097C7.78322 28.3426 8.87258 28.7466 9.99979 28.7495H21.9998C23.2591 28.7481 24.4665 28.2472 25.357 27.3567C26.2475 26.4662 26.7484 25.2589 26.7498 23.9995V8C26.7484 6.74066 26.2475 5.53331 25.357 4.64282C24.4665 3.75233 23.2591 3.25143 21.9998 3.25ZM25.2498 23.9995C25.2488 24.8612 24.9061 25.6872 24.2968 26.2965C23.6875 26.9058 22.8614 27.2485 21.9998 27.2495H9.99979C9.13814 27.2485 8.31207 26.9058 7.70279 26.2965C7.09351 25.6872 6.75078 24.8612 6.74979 23.9995V8C6.75078 7.13835 7.09351 6.31228 7.70279 5.703C8.31207 5.09373 9.13814 4.751 9.99979 4.75H21.9998C22.8614 4.751 23.6875 5.09372 24.2968 5.703C24.9061 6.31228 25.2488 7.13835 25.2498 8V23.9995Z" fill="#0F0F0F"/>
</svg>
