<svg width="32" height="32" viewBox="0 0 32 32" fill="none" xmlns="http://www.w3.org/2000/svg">
<path d="M11.9248 24.0654C9.63965 24.0654 8.62402 23.0625 8.62402 20.79V10.875H3.16504C2.70801 10.875 2.39062 10.5957 2.39062 10.1387C2.39062 9.68164 2.70801 9.40234 3.16504 9.40234H8.62402V3.99414C8.62402 3.51172 8.94141 3.16895 9.41113 3.16895C9.88086 3.16895 10.1855 3.51172 10.1855 3.99414V9.40234H20.0752C22.3604 9.40234 23.3887 10.4053 23.3887 12.6777V22.5928H28.835C29.3047 22.5928 29.6094 22.8721 29.6094 23.3291C29.6094 23.7861 29.3047 24.0654 28.835 24.0654H23.3887V29.4736C23.3887 29.9561 23.0586 30.2988 22.5889 30.2988C22.1191 30.2988 21.8145 29.9561 21.8145 29.4736V24.0654H11.9248ZM12.0518 22.5928H21.8145V12.7539C21.8145 11.4717 21.2686 10.875 19.9482 10.875H10.1855V20.7139C10.1855 21.9961 10.7314 22.5928 12.0518 22.5928Z" fill="black"/>
</svg>
