<svg width="32" height="32" viewBox="0 0 32 32" fill="none" xmlns="http://www.w3.org/2000/svg">
<path d="M22.5 19.5H19.5V16.5H22.5V19.5Z" fill="#0F0F0F"/>
<path d="M13.5 12.5H10.5V9.5H13.5V12.5Z" fill="#0F0F0F"/>
<path d="M27.1797 4.50488C29.0292 4.59842 30.5 6.12727 30.5 8V22C30.5 23.8727 29.0292 25.4016 27.1797 25.4951L27 25.5H12.4258L7.125 29.7412C6.51083 30.2322 5.61964 29.8522 5.51074 29.1123L5.5 28.96V25.5H5C3.12727 25.5 1.59842 24.0292 1.50488 22.1797L1.5 22V8C1.5 6.067 3.067 4.5 5 4.5H27L27.1797 4.50488ZM10 8C9.44772 8 9 8.44772 9 9V13L9.00488 13.1025C9.05621 13.6067 9.48232 14 10 14H11.25V18C11.25 18.4142 11.5858 18.75 12 18.75H18V20L18.0049 20.1025C18.0562 20.6067 18.4823 21 19 21H23L23.1025 20.9951C23.573 20.9472 23.9472 20.573 23.9951 20.1025L24 20V16C24 15.4823 23.6067 15.0562 23.1025 15.0049L23 15H19C18.4477 15 18 15.4477 18 16V17.25H12.75V14H14L14.1025 13.9951C14.573 13.9472 14.9472 13.573 14.9951 13.1025L15 13V9C15 8.48232 14.6067 8.05621 14.1025 8.00488L14 8H10Z" fill="#0F0F0F"/>
</svg>
