<svg width="32" height="32" viewBox="0 0 32 32" fill="none" xmlns="http://www.w3.org/2000/svg">
<path d="M14.1025 8.00488C14.6067 8.05621 15 8.48232 15 9V13L14.9951 13.1025C14.9472 13.573 14.573 13.9472 14.1025 13.9951L14 14H12.5V17.5H18V16C18 15.4477 18.4477 15 19 15H23L23.1025 15.0049C23.6067 15.0562 24 15.4823 24 16V20L23.9951 20.1025C23.9472 20.573 23.573 20.9472 23.1025 20.9951L23 21H19C18.4823 21 18.0562 20.6067 18.0049 20.1025L18 20V18.5H12C11.7239 18.5 11.5 18.2761 11.5 18V14H10C9.48232 14 9.05621 13.6067 9.00488 13.1025L9 13V9C9 8.44772 9.44772 8 10 8H14L14.1025 8.00488ZM19 20H23V16H19V20ZM10 13H14V9H10V13Z" fill="#0F0F0F"/>
<path d="M27.1797 4.50488C29.0292 4.59842 30.5 6.12727 30.5 8V22C30.5 23.8727 29.0292 25.4016 27.1797 25.4951L27 25.5H12.4258L7.125 29.7412C6.51083 30.2322 5.61964 29.8522 5.51074 29.1123L5.5 28.96V25.5H5C3.12727 25.5 1.59842 24.0292 1.50488 22.1797L1.5 22V8C1.5 6.067 3.067 4.5 5 4.5H27L27.1797 4.50488ZM5 5.5C3.61929 5.5 2.5 6.61929 2.5 8V22L2.5127 22.2559C2.64082 23.5164 3.70566 24.5 5 24.5H6C6.27614 24.5 6.5 24.7239 6.5 25V28.96L11.9375 24.6094L12.0078 24.5625C12.0815 24.5217 12.1648 24.5 12.25 24.5H27L27.2559 24.4873C28.5164 24.3592 29.5 23.2943 29.5 22V8C29.5 6.70566 28.5164 5.64082 27.2559 5.5127L27 5.5H5Z" fill="#0F0F0F"/>
</svg>
