<svg width="32" height="32" viewBox="0 0 32 32" fill="none" xmlns="http://www.w3.org/2000/svg">
<path d="M12.1025 5.00488C12.6067 5.05621 13 5.48232 13 6V14L12.9951 14.1025C12.9472 14.573 12.573 14.9472 12.1025 14.9951L12 15H9V21H19V18C19 17.4477 19.4477 17 20 17H28L28.1025 17.0049C28.6067 17.0562 29 17.4823 29 18V26L28.9951 26.1025C28.9472 26.573 28.573 26.9472 28.1025 26.9951L28 27H20C19.4823 27 19.0562 26.6067 19.0049 26.1025L19 26V23H8C7.44772 23 7 22.5523 7 22V15H4C3.48232 15 3.05621 14.6067 3.00488 14.1025L3 14V6C3 5.44772 3.44772 5 4 5H12L12.1025 5.00488ZM21 25H27V19H21V25ZM5 13H11V7H5V13Z" fill="#0F0F0F"/>
</svg>
