<svg width="32" height="32" viewBox="0 0 32 32" fill="none" xmlns="http://www.w3.org/2000/svg">
<path d="M14.1025 7.50488C14.6067 7.55621 15 7.98232 15 8.5V12.5L14.9951 12.6025C14.9472 13.073 14.573 13.4472 14.1025 13.4951L14 13.5H12.5V17H18V15.5C18 14.9477 18.4477 14.5 19 14.5H23L23.1025 14.5049C23.6067 14.5562 24 14.9823 24 15.5V19.5L23.9951 19.6025C23.9472 20.073 23.573 20.4472 23.1025 20.4951L23 20.5H19C18.4823 20.5 18.0562 20.1067 18.0049 19.6025L18 19.5V18H12C11.7239 18 11.5 17.7761 11.5 17.5V13.5H10C9.48232 13.5 9.05621 13.1067 9.00488 12.6025L9 12.5V8.5C9 7.94772 9.44772 7.5 10 7.5H14L14.1025 7.50488ZM19 19.5H23V15.5H19V19.5ZM10 12.5H14V8.5H10V12.5Z" fill="#0F0F0F"/>
<path d="M27.1797 4.00488C29.0292 4.09842 30.5 5.62727 30.5 7.5V21.5C30.5 23.3727 29.0292 24.9016 27.1797 24.9951L27 25H12.4258L7.125 29.2412C6.51083 29.7322 5.61964 29.3522 5.51074 28.6123L5.5 28.46V25H5C3.12727 25 1.59842 23.5292 1.50488 21.6797L1.5 21.5V7.5C1.5 5.567 3.067 4 5 4H27L27.1797 4.00488ZM5 5C3.61929 5 2.5 6.11929 2.5 7.5V21.5L2.5127 21.7559C2.64082 23.0164 3.70566 24 5 24H6C6.27614 24 6.5 24.2239 6.5 24.5V28.46L11.9375 24.1094L12.0078 24.0625C12.0815 24.0217 12.1648 24 12.25 24H27L27.2559 23.9873C28.5164 23.8592 29.5 22.7943 29.5 21.5V7.5C29.5 6.20566 28.5164 5.14082 27.2559 5.0127L27 5H5Z" fill="#0F0F0F"/>
</svg>
