<svg width="32" height="32" viewBox="0 0 32 32" fill="none" xmlns="http://www.w3.org/2000/svg">
<path d="M3.58543 22.2872L7.55378 22.2874C8.35734 22.2859 9.12752 21.9657 9.69536 21.3972C10.2632 20.8286 10.5824 20.058 10.5829 19.2545C10.5829 19.2545 10.5646 17.1129 10.5529 16.6673C11.2611 15.9352 12.1098 15.3536 13.0482 14.9574C13.9866 14.5612 14.9953 14.3585 16.0138 14.3615C18.0502 14.3708 20.0034 15.1701 21.4621 16.5909C21.4627 17.1153 21.4446 19.2542 21.4446 19.2581C21.4444 19.6559 21.5226 20.0498 21.6748 20.4174C21.827 20.7849 22.0501 21.1189 22.3314 21.4002C22.6127 21.6815 22.9467 21.9046 23.3142 22.0568C23.6818 22.209 24.0757 22.2872 24.4735 22.287L28.4419 22.2866C29.2426 22.2679 30.0053 21.9414 30.5717 21.3751C31.138 20.8087 31.4645 20.046 31.4833 19.2453L31.4839 17.1239C31.4839 15.5476 29.9993 13.6069 27.7027 12.1784C25.6496 10.9011 21.9552 9.37942 16.0136 9.37875C10.0719 9.37809 6.37723 10.9009 4.32453 12.1773C3.59456 12.6263 2.91816 13.1571 2.30842 13.7593C1.31398 14.6157 0.683004 15.8187 0.543799 17.1237L0.543335 19.2451C0.543236 19.6447 0.621851 20.0403 0.774692 20.4094C0.927533 20.7785 1.1516 21.1139 1.4341 21.3964C1.7166 21.6789 2.05199 21.903 2.42111 22.0558C2.79023 22.2087 3.18592 22.2873 3.58543 22.2872Z" fill="#0F0F0F"/>
</svg>
