<svg width="32" height="32" viewBox="0 0 32 32" fill="none" xmlns="http://www.w3.org/2000/svg">
<path d="M3.58985 22.5306H7.5584C8.42496 22.5296 9.25563 22.1845 9.86777 21.5711C10.4799 20.9578 10.8233 20.1264 10.8226 19.2599C10.8226 19.2599 10.807 17.3925 10.8051 16.7214C12.2009 15.3641 14.071 14.6047 16.0179 14.6046C17.9649 14.6045 19.8351 15.3636 21.2311 16.7207C21.2292 17.3919 21.213 19.2599 21.2136 19.2657C21.2134 19.6944 21.2977 20.1189 21.4617 20.515C21.6257 20.9111 21.8662 21.2711 22.1693 21.5742C22.4724 21.8773 22.8324 22.1178 23.2285 22.2818C23.6246 22.4458 24.0491 22.5301 24.4778 22.5299H28.4463C29.3092 22.5103 30.1312 22.1587 30.7415 21.5485C31.3517 20.9382 31.7032 20.1162 31.7229 19.2533L31.7235 17.132C31.7235 14.3499 27.117 9.1521 16.0177 9.15151C10.0208 9.15144 6.28366 10.6926 4.20514 11.9862C3.45149 12.4484 2.75305 12.995 2.12336 13.6156C1.08948 14.5107 0.441012 15.7704 0.313165 17.1319L0.3125 19.2532C0.312405 19.6836 0.397108 20.1098 0.561771 20.5075C0.726432 20.9051 0.967826 21.2664 1.27217 21.5708C1.5765 21.8751 1.93782 22.1165 2.33547 22.2812C2.73312 22.4458 3.15945 22.5307 3.58985 22.5306ZM1.72391 19.2533L1.72444 17.1319C1.72444 16.1963 2.73319 14.5613 4.95103 13.1843C6.87353 11.9882 10.3534 10.5629 16.0177 10.5626C26.1996 10.5633 30.3117 15.1991 30.3123 17.132L30.3117 19.2534C30.3008 19.7447 30.1007 20.2128 29.7532 20.5603C29.4058 20.9078 28.9376 21.1078 28.4463 21.1188L24.4779 21.1186C23.9876 21.1188 23.5172 20.9245 23.1698 20.5784C22.8225 20.2323 22.6266 19.7626 22.6251 19.2722C22.6251 19.2722 22.643 17.1229 22.642 16.5996C22.6208 16.3955 22.5594 16.1975 22.4614 16.0173C22.3633 15.837 22.2305 15.6779 22.0707 15.5492C20.4074 14.0529 18.255 13.2152 16.0178 13.1934C12.7311 13.1934 9.39268 15.377 9.39255 16.5985C9.39261 17.1222 9.41078 19.2663 9.41078 19.2663C9.4101 19.7576 9.21465 20.2285 8.8673 20.5758C8.51995 20.9232 8.04904 21.1186 7.5578 21.1193H3.58932C3.09468 21.1187 2.62047 20.9219 2.27075 20.5721C1.92103 20.2223 1.72437 19.748 1.72391 19.2533Z" fill="#0F0F0F"/>
</svg>
