<svg width="32" height="32" viewBox="0 0 32 32" fill="none" xmlns="http://www.w3.org/2000/svg">
<path d="M3.58127 22.7523L7.55241 22.7549C8.01253 22.7546 8.46809 22.6637 8.89304 22.4872C9.31798 22.3108 9.70398 22.0523 10.0289 21.7266C10.3539 21.4008 10.6115 21.0143 10.787 20.5889C10.9625 20.1636 11.0525 19.7078 11.0517 19.2477C11.0517 19.2477 11.0363 17.5183 11.0326 16.7895C12.3851 15.5287 14.1657 14.8281 16.0147 14.8293C17.8637 14.8305 19.6434 15.5334 20.9942 16.796C20.9927 17.5235 20.9789 19.2536 20.9789 19.2614C20.9794 20.1906 21.3488 21.0815 22.0058 21.7385C22.6628 22.3955 23.5537 22.7649 24.4829 22.7654L28.454 22.768C29.379 22.7475 30.2603 22.3709 30.9145 21.7167C31.5687 21.0626 31.9452 20.1812 31.9658 19.2563L31.965 17.1335C31.963 14.2679 27.2812 8.90994 16.0082 8.90183C9.95141 8.89784 6.17055 10.4564 4.06489 11.7657C3.29864 12.2362 2.58857 12.7926 1.94845 13.4241C0.867011 14.3637 0.19145 15.6856 0.0634766 17.1125L0.0639419 19.2349C0.065494 20.1673 0.436566 21.0611 1.09585 21.7203C1.75515 22.3796 2.64889 22.7507 3.58127 22.7523ZM1.94725 19.2367L1.94592 17.1134C1.94539 16.2423 2.91828 14.6968 5.06093 13.3648C6.95815 12.1861 10.397 10.7807 16.0091 10.7844C26.0302 10.7919 30.081 15.2676 30.0822 17.1323L30.083 19.255C30.0733 19.6843 29.8984 20.0933 29.5948 20.3969C29.2912 20.7005 28.8822 20.8753 28.453 20.885L24.4818 20.8824C24.0536 20.8822 23.6428 20.7125 23.3393 20.4105C23.0358 20.1084 22.8641 19.6985 22.8618 19.2703C22.8618 19.2703 22.8794 17.1189 22.8777 16.5949C22.8578 16.3593 22.7908 16.13 22.6806 15.9208C22.5705 15.7116 22.4195 15.5266 22.2365 15.3768C20.5263 13.8363 18.3132 12.9722 16.0116 12.9463C12.5392 12.9434 9.14564 15.2466 9.1491 16.5846C9.14944 17.1086 9.16906 19.2541 9.16906 19.2541C9.16876 19.6831 8.99821 20.0944 8.69487 20.3977C8.39153 20.7011 7.9802 20.8716 7.55121 20.8719L3.58014 20.8693C3.14732 20.8685 2.73248 20.6962 2.42641 20.3902C2.12034 20.0842 1.94817 19.6695 1.94725 19.2367Z" fill="#0F0F0F"/>
</svg>
