<svg width="32" height="32" viewBox="0 0 32 32" fill="none" xmlns="http://www.w3.org/2000/svg">
<path d="M7 7C7 4.35256 8.93212 2 11.5556 2H20.4444C23.0679 2 25 4.35256 25 7V25C25 27.6474 23.0679 30 20.4444 30H11.5556C8.93212 30 7 27.6474 7 25V7ZM14 7C14 7.55228 14.4477 8 15 8H17C17.5523 8 18 7.55228 18 7C18 6.44772 17.5523 6 17 6H15C14.4477 6 14 6.44772 14 7ZM10 14C9.44772 14 9 14.4477 9 15C9 15.5523 9.44772 16 10 16H22C22.5523 16 23 15.5523 23 15C23 14.4477 22.5523 14 22 14H10ZM18 22C18 20.8954 17.1046 20 16 20C14.8954 20 14 20.8954 14 22C14 23.1046 14.8954 24 16 24C17.1046 24 18 23.1046 18 22Z" fill="#0F0F0F"/>
</svg>
