<svg width="32" height="32" viewBox="0 0 32 32" fill="none" xmlns="http://www.w3.org/2000/svg">
<path d="M14 7C14 6.44772 14.4477 6 15 6H17C17.5523 6 18 6.44772 18 7C18 7.55228 17.5523 8 17 8H15C14.4477 8 14 7.55228 14 7Z" fill="#0F0F0F"/>
<path d="M16 19C14.3431 19 13 20.3431 13 22C13 23.6569 14.3431 25 16 25C17.6569 25 19 23.6569 19 22C19 20.3431 17.6569 19 16 19ZM15 22C15 21.4477 15.4477 21 16 21C16.5523 21 17 21.4477 17 22C17 22.5523 16.5523 23 16 23C15.4477 23 15 22.5523 15 22Z" fill="#0F0F0F"/>
<path d="M7 7C7 4.35256 8.93212 2 11.5556 2H20.4444C23.0679 2 25 4.35256 25 7V25C25 27.6474 23.0679 30 20.4444 30H11.5556C8.93212 30 7 27.6474 7 25V7ZM9 7V14H23V7C23 5.22916 21.7484 4 20.4444 4H11.5556C10.2516 4 9 5.22916 9 7ZM23 16H9V25C9 26.7708 10.2516 28 11.5556 28H20.4444C21.7484 28 23 26.7708 23 25V16Z" fill="#0F0F0F"/>
</svg>
