<svg width="32" height="32" viewBox="0 0 32 32" fill="none" xmlns="http://www.w3.org/2000/svg">
<path d="M19.4829 4.51655C16.8261 3.71077 13.9722 3.85112 11.4073 4.91369C8.84243 5.97625 6.72538 7.89528 5.41678 10.3438C4.10817 12.7924 3.68893 15.6189 4.2307 18.3417C4.77247 21.0646 6.24173 23.5154 8.38794 25.2766C10.5341 27.0377 13.2246 28.0002 16.0008 28C16.5531 28 17.0009 28.4476 17.0009 28.9999C17.0009 29.5522 16.5532 30 16.001 30C12.762 30.0002 9.62313 28.8773 7.11924 26.8227C4.61537 24.768 2.90123 21.9088 2.26915 18.732C1.63707 15.5553 2.12621 12.2577 3.65289 9.40111C5.17958 6.54451 7.64948 4.30563 10.6419 3.06597C13.6342 1.82631 16.9638 1.66256 20.0634 2.60264C23.1629 3.54272 25.8406 5.52845 27.6402 8.22148C29.4398 10.9145 30.2499 14.1482 29.9326 17.3716C29.6153 20.595 28.1902 23.6087 25.8999 25.8991L25.8992 25.8998C25.8656 25.9334 25.8318 25.9668 25.7978 26H29C29.5523 26 30 26.4477 30 27C30 27.5523 29.5523 28 29 28H23C22.4477 28 22 27.5523 22 27V21C22 20.4477 22.4477 20 23 20C23.1351 20 23.264 20.0268 23.3816 20.0754C23.7446 20.2254 24 20.5829 24 21V24.9427C24.1664 24.7946 24.3285 24.6418 24.4863 24.4843C26.4489 22.5212 27.6703 19.9383 27.9422 17.1757C28.2142 14.4127 27.5198 11.641 25.9773 9.3327C24.4348 7.02438 22.1396 5.32232 19.4829 4.51655ZM16.8945 12.0713C16.8945 11.519 16.4468 11.0713 15.8945 11.0713C15.3422 11.0713 14.8945 11.519 14.8945 12.0713V17.0713C14.8945 17.3365 14.9999 17.5909 15.1874 17.7784L17.1874 19.7784C17.578 20.1689 18.2111 20.1689 18.6016 19.7784C18.9922 19.3879 18.9922 18.7547 18.6016 18.3642L16.8945 16.6571V12.0713Z" fill="#0F0F0F"/>
</svg>
