<svg width="32" height="32" viewBox="0 0 32 32" fill="none" xmlns="http://www.w3.org/2000/svg">
<path d="M19.5554 4.27731C16.8433 3.45474 13.93 3.59802 11.3116 4.68272C8.69332 5.76742 6.53216 7.72643 5.1963 10.226C3.86043 12.7255 3.43245 15.6109 3.98551 18.3905C4.53856 21.1701 6.03843 23.672 8.22935 25.4698C10.4202 27.2676 13.1667 28.2502 16.0009 28.25C16.4151 28.25 16.7509 28.5857 16.7509 28.9999C16.7509 29.4142 16.4152 29.75 16.0009 29.75C12.8198 29.7502 9.737 28.6474 7.27783 26.6294C4.81867 24.6115 3.13513 21.8033 2.51434 18.6832C1.89356 15.5632 2.37396 12.3245 3.87338 9.51895C5.37281 6.71335 7.7986 4.51446 10.7375 3.29693C13.6765 2.07941 16.9466 1.91859 19.9908 2.84188C23.035 3.76517 25.6649 5.71544 27.4323 8.36038C29.1998 11.0053 29.9955 14.1813 29.6838 17.3471C29.3722 20.513 27.9725 23.4728 25.7231 25.7223C25.5417 25.9034 25.3547 26.0797 25.1634 26.25H29C29.4142 26.25 29.75 26.5858 29.75 27C29.75 27.4142 29.4142 27.75 29 27.75H23C22.5858 27.75 22.25 27.4142 22.25 27V21C22.25 20.5858 22.5858 20.25 23 20.25C23.4142 20.25 23.75 20.5858 23.75 21V25.4834C24.0681 25.2252 24.3728 24.9508 24.663 24.6612C26.6666 22.6571 27.9134 20.0204 28.191 17.2002C28.4687 14.3797 27.7598 11.5502 26.1852 9.1938C24.6105 6.83739 22.2676 5.09987 19.5554 4.27731ZM16.6445 12.0713C16.6445 11.6571 16.3087 11.3213 15.8945 11.3213C15.4803 11.3213 15.1445 11.6571 15.1445 12.0713V17.0713C15.1445 17.2702 15.2235 17.461 15.3642 17.6016L17.3642 19.6016C17.6571 19.8945 18.132 19.8945 18.4249 19.6016C18.7178 19.3087 18.7178 18.8339 18.4249 18.541L16.6445 16.7606V12.0713Z" fill="#0F0F0F"/>
</svg>
