<svg width="32" height="32" viewBox="0 0 32 32" fill="none" xmlns="http://www.w3.org/2000/svg">
<path d="M23.5548 2.16795C23.2479 1.96338 22.8534 1.94431 22.5282 2.11833C22.2031 2.29235 22.0001 2.63121 22.0001 3V6H7.80136C6.3448 6 4.90789 6.42517 3.81234 7.23451C2.71159 8.04768 2.00024 9.22629 2.00024 10.5468V21C2.00024 21.5523 2.44796 22 3.00024 22C3.55253 22 4.00024 21.5523 4.00024 21V10.5468C4.00024 9.98596 4.3007 9.3603 5.00072 8.84316C5.70593 8.32219 6.71125 8 7.80136 8H22.9984C22.9989 8 22.9995 8 23.0001 8H29.0001C29.4407 8 29.8295 7.71154 29.9572 7.28979C30.0849 6.86803 29.9214 6.41239 29.5548 6.16795L23.5548 2.16795Z" fill="#0F0F0F"/>
<path d="M8.44538 29.8321C8.75223 30.0366 9.14678 30.0557 9.47194 29.8817C9.79709 29.7077 10.0001 29.3688 10.0001 29V26H24.2727C25.7363 26 27.1698 25.5215 28.2522 24.6277C29.34 23.7294 29.9999 22.4654 29.9999 21.0964V11C29.9999 10.4477 29.5522 10 28.9999 10C28.4476 10 27.9999 10.4477 27.9999 11V21.0964C27.9999 21.798 27.6639 22.5198 26.9787 23.0856C26.288 23.6559 25.3166 24 24.2727 24L9.00008 24C8.99942 24 8.99862 24 8.99796 24H3.00008C2.55941 24 2.17068 24.2885 2.04299 24.7102C1.91529 25.132 2.07872 25.5876 2.44538 25.8321L8.44538 29.8321Z" fill="#0F0F0F"/>
</svg>
