<svg width="32" height="32" viewBox="0 0 32 32" fill="none" xmlns="http://www.w3.org/2000/svg">
<path d="M23.0001 6.25C23.4143 6.25 23.7501 6.58579 23.7501 7C23.7501 7.41421 23.4143 7.75 23.0001 7.75H7.80149C6.66557 7.75 5.6063 8.08506 4.8523 8.64208C4.10219 9.19622 3.75037 9.89101 3.75037 10.5468V21C3.75037 21.4142 3.41458 21.75 3.00037 21.75C2.58616 21.75 2.25037 21.4142 2.25037 21V10.5468C2.25037 9.32125 2.91036 8.21176 3.96101 7.43559C5.00778 6.6623 6.39074 6.25 7.80149 6.25H23.0001Z" fill="#0F0F0F"/>
<path d="M28.2501 11C28.2501 10.5858 28.5858 10.25 29.0001 10.25C29.4143 10.25 29.7501 10.5858 29.7501 11V21.0964C29.7501 22.382 29.1306 23.5782 28.0931 24.435C27.0597 25.2883 25.6839 25.75 24.2728 25.75H9.00006C8.58585 25.75 8.25006 25.4142 8.25006 25C8.25006 24.5858 8.58585 24.25 9.00006 24.25H24.2728C25.3691 24.25 26.3983 23.8891 27.138 23.2783C27.8735 22.671 28.2501 21.8814 28.2501 21.0964V11Z" fill="#0F0F0F"/>
<path d="M23.0001 7V3L29.0001 7H23.0001Z" fill="#0F0F0F"/>
<path d="M22.6462 2.33875C22.89 2.20823 23.1859 2.22254 23.4161 2.37596L29.4161 6.37596C29.6911 6.55929 29.8137 6.90102 29.7179 7.21734C29.6221 7.53366 29.3306 7.75 29.0001 7.75H23.0001C22.5858 7.75 22.2501 7.41421 22.2501 7V3C22.2501 2.7234 22.4023 2.46926 22.6462 2.33875ZM23.7501 4.40139V6.25H26.523L23.7501 4.40139Z" fill="#0F0F0F"/>
<path d="M9.00006 25V29L3.00006 25H9.00006Z" fill="#0F0F0F"/>
<path d="M9.35395 29.6613C9.11008 29.7918 8.81418 29.7775 8.58403 29.624L2.58403 25.624C2.30904 25.4407 2.18647 25.099 2.28224 24.7827C2.37801 24.4663 2.66956 24.25 3.00006 24.25H9.00006C9.41427 24.25 9.75006 24.5858 9.75006 25V29C9.75006 29.2766 9.59782 29.5307 9.35395 29.6613ZM8.25006 27.5986V25.75H5.47714L8.25006 27.5986Z" fill="#0F0F0F"/>
</svg>
