<svg width="32" height="32" viewBox="0 0 32 32" fill="none" xmlns="http://www.w3.org/2000/svg">
<path d="M4.32169 24.9471L15.3178 29.6156C15.7506 29.7937 16.2364 29.7932 16.6689 29.6141L27.6718 24.9486C27.9914 24.8164 28.2645 24.5923 28.4565 24.3046C28.6485 24.0169 28.7506 23.6787 28.75 23.3329L28.75 8.66636C28.7508 8.32156 28.6494 7.98425 28.4585 7.69709C28.2677 7.40992 27.9959 7.1858 27.6777 7.05306L16.6626 2.38456C16.4496 2.2963 16.2213 2.251 15.9907 2.25126C15.7578 2.2512 15.5272 2.29701 15.312 2.38606L4.3247 7.05306C4.00587 7.18549 3.73354 7.40959 3.54222 7.69696C3.35089 7.98433 3.24919 8.32203 3.25 8.66726L3.24999 23.3338C3.24916 23.6785 3.35052 24.0157 3.54127 24.3029C3.73202 24.59 4.0036 24.8142 4.32169 24.9471ZM16.0888 28.2308C16.0575 28.2436 16.0239 28.2502 15.99 28.2501C15.9589 28.2503 15.928 28.2443 15.8992 28.2326L5.95089 24.0087L15.9241 19.8522C15.9545 19.839 15.9873 19.8324 16.0204 19.8325C16.0535 19.8327 16.0862 19.8397 16.1165 19.8532L26.06 24.003L16.0888 28.2308ZM27.25 8.66636L27.25 22.8735L16.75 18.4919L16.75 4.05076L27.0962 8.43586C27.1418 8.45466 27.1808 8.48662 27.2082 8.52767C27.2356 8.56873 27.2502 8.61701 27.25 8.66636ZM4.9038 8.43686L4.9091 8.43436L15.25 4.04206L15.25 18.5083L4.74999 22.8843L4.75 8.66726C4.74984 8.61792 4.76439 8.56966 4.79178 8.52862C4.81917 8.48758 4.85817 8.45564 4.9038 8.43686Z" fill="#0F0F0F"/>
</svg>
