<svg width="32" height="32" viewBox="0 0 32 32" fill="none" xmlns="http://www.w3.org/2000/svg">
<path d="M3.70711 2.29289C3.31658 1.90237 2.68342 1.90237 2.29289 2.29289C1.90237 2.68342 1.90237 3.31658 2.29289 3.70711L28.2929 29.7071C28.6834 30.0976 29.3166 30.0976 29.7071 29.7071C30.0976 29.3166 30.0976 28.6834 29.7071 28.2929L3.70711 2.29289Z" fill="#0F0F0F"/>
<path d="M15 4.41647V10.7574L17 12.7574L17 4.42887L27 8.66667L26.9944 22.4961L26.5556 22.313L28.6732 24.4306C28.887 24.1047 29.0007 23.7232 29 23.3332L29 8.66667C29.001 8.27273 28.8852 7.88732 28.6672 7.55917C28.4493 7.23101 28.1389 6.97482 27.7754 6.82297L16.7588 2.15447C16.5155 2.0534 16.2546 2.00147 15.9912 2.00167C15.7244 2.00179 15.4603 2.05439 15.2138 2.15647L9.02694 4.7843L10.5507 6.30805L15 4.41647Z" fill="#0F0F0F"/>
<path d="M3.00001 8.66767C2.99924 8.27744 3.11297 7.89567 3.32696 7.56959L5.00001 9.24264L5.00001 22.5099L14.3645 18.6071L15.8937 20.1363L6.59531 24.0115L15.997 28.0027L21.4471 25.6897L22.971 27.2136L16.7659 29.8445C16.5209 29.9461 16.2583 29.9986 15.993 29.9987C15.7278 29.9989 15.4651 29.9468 15.22 29.8454L4.22411 25.1775C3.86069 25.0257 3.55043 24.7695 3.33254 24.4414C3.11466 24.1133 2.99894 23.728 3.00001 23.3342L3.00001 8.66767Z" fill="#0F0F0F"/>
</svg>
