<svg width="32" height="32" viewBox="0 0 32 32" fill="none" xmlns="http://www.w3.org/2000/svg">
<path d="M14 21C14.5523 21 15 21.4477 15 22C15 22.5523 14.5523 23 14 23H11C10.4477 23 10 22.5523 10 22C10 21.4477 10.4477 21 11 21H14Z" fill="#0F0F0F"/>
<path d="M19.0771 17C21.1553 17.0001 23 18.5576 23 20.667V23.333C23 25.4424 21.1553 26.9999 19.0771 27H18V28.167C17.9999 28.6212 17.8382 29.075 17.5234 29.4248C17.2053 29.7783 16.7501 30 16.25 30H8.75C8.2502 30 7.79484 29.7784 7.47656 29.4248C7.16159 29.0748 7.00008 28.6209 7 28.167V27H5.92285C3.84467 26.9999 2 25.4424 2 23.333V20.667C2 18.5576 3.84467 17.0001 5.92285 17H19.0771ZM9 28H16V27H9V28ZM5.92285 19C4.77251 19.0001 4 19.831 4 20.667V23.333C4 24.169 4.77251 24.9999 5.92285 25H19.0771C20.2275 24.9999 21 24.169 21 23.333V20.667C21 19.831 20.2275 19.0001 19.0771 19H5.92285Z" fill="#0F0F0F"/>
<path d="M19.8701 2.00879C21.7177 2.09823 23.4746 2.85518 24.7949 4.14551C25.8992 5.22484 26.6246 6.6091 26.8877 8.09961C28.6695 8.50343 30 10.096 30 12C30 14.2091 28.2091 16 26 16C25.4477 16 25 15.5523 25 15V9.35254C24.9999 7.9406 24.4262 6.58178 23.3975 5.57617C22.4321 4.63268 21.1399 4.07316 19.7744 4.00684L19.5 4C18.034 4 16.6323 4.56969 15.6025 5.57617C14.5738 6.58178 14.0001 7.9406 14 9.35254V15C14 15.5523 13.5523 16 13 16C10.7909 16 9 14.2091 9 12C9 10.0963 10.33 8.50378 12.1113 8.09961C12.3744 6.60903 13.1007 5.22488 14.2051 4.14551C15.6133 2.76928 17.5182 2 19.5 2L19.8701 2.00879ZM12 10.2695C11.4027 10.6155 11 11.2601 11 12C11 12.7398 11.4029 13.3835 12 13.7295V10.2695ZM27 13.7295C27.5971 13.3835 28 12.7398 28 12C28 11.2601 27.5973 10.6155 27 10.2695V13.7295Z" fill="#0F0F0F"/>
</svg>
