<svg width="32" height="32" viewBox="0 0 32 32" fill="none" xmlns="http://www.w3.org/2000/svg">
<path d="M11.8018 10C11.8585 9.99943 11.9141 10.0165 11.96 10.0488C12.0051 10.0807 12.038 10.1267 12.0566 10.1787L15.7246 22.4287C15.7282 22.4408 15.7323 22.4529 15.7363 22.4648C15.8868 22.9052 16.1699 23.289 16.5459 23.5635C16.9221 23.838 17.3736 23.99 17.8389 23.999C18.3042 24.008 18.7619 23.8741 19.1484 23.6143C19.5345 23.3547 19.8315 22.9823 19.999 22.5479C20.0169 22.5014 20.0312 22.4529 20.042 22.4043L20.7969 19.0049L20.7979 19L20.7998 18.9971L20.8037 18.9961H28V23C28 25.7614 25.7614 28 23 28H9C6.23858 28 4 25.7614 4 23V19H7.4502C7.88411 18.9978 8.30464 18.8537 8.64941 18.5918C8.99444 18.3297 9.24491 17.9621 9.36328 17.5449L11.5479 10.1875C11.5651 10.1334 11.5993 10.0862 11.6445 10.0527C11.6896 10.0194 11.7448 10.0006 11.8018 10Z" fill="#0F0F0F"/>
<path d="M23 4C25.7614 4 28 6.23858 28 9V16.9961H20.7881C20.3331 16.9997 19.8924 17.1574 19.5391 17.4443C19.1868 17.7305 18.9421 18.1281 18.8447 18.5713L18.1143 21.8604C18.0938 21.897 18.0675 21.9303 18.0322 21.9541C17.9868 21.9846 17.933 22.001 17.8779 22C17.8228 21.9989 17.7689 21.9806 17.7246 21.9482C17.6815 21.9167 17.649 21.8726 17.6309 21.8223L13.9629 9.57129L13.9512 9.53418L13.8867 9.36719C13.7217 8.98612 13.4545 8.65595 13.1133 8.41504C12.7232 8.13966 12.2561 7.99471 11.7793 8C11.3024 8.00534 10.8381 8.16108 10.4541 8.44531C10.0705 8.72942 9.78602 9.12751 9.6416 9.58203L9.63672 9.60059L7.44336 16.9883L7.44043 17H4V9C4 6.23858 6.23858 4 9 4H23Z" fill="#0F0F0F"/>
</svg>
