<svg width="32" height="32" viewBox="0 0 32 32" fill="none" xmlns="http://www.w3.org/2000/svg">
<path d="M23 4.00038H9C7.6744 4.00194 6.40353 4.52923 5.46619 5.46657C4.52884 6.40392 4.00156 7.67478 4 9.00038V23.0004C4.00156 24.326 4.52884 25.5969 5.46618 26.5342C6.40353 27.4715 7.6744 27.9988 9 28.0004H23C24.3313 27.9931 25.6053 27.458 26.5426 26.5126C27.48 25.5672 28.0041 24.2887 28 22.9574V8.95738C27.9928 7.63748 27.4623 6.37434 26.5249 5.44506C25.5876 4.51577 24.3199 3.99622 23 4.00038ZM9 6.00038H23C23.7897 5.99555 24.549 6.30417 25.1115 6.85853C25.6739 7.41289 25.9934 8.16771 26 8.95738V17.0004H20.7959C20.3396 17.0005 19.8972 17.1568 19.5421 17.4434C19.1871 17.73 18.941 18.1296 18.8447 18.5756L18.1133 21.8686C18.0895 21.9095 18.0553 21.9432 18.014 21.9664C17.9728 21.9896 17.9262 22.0013 17.8789 22.0004C17.8292 22.0028 17.7799 21.9902 17.7374 21.9643C17.6949 21.9384 17.6612 21.9002 17.6406 21.8549L13.9473 9.52191C13.7946 9.07608 13.5059 8.68937 13.1219 8.41625C12.7379 8.14312 12.2779 7.99735 11.8066 7.99945L11.7812 8.00045C11.2999 8.00457 10.8325 8.16194 10.4467 8.44975C10.0609 8.73756 9.77682 9.14082 9.63574 9.601L7.44531 17.0004H6V9.00038C6.00087 8.205 6.31722 7.44244 6.87964 6.88002C7.44206 6.3176 8.20462 6.00125 9 6.00038ZM23 26.0004H9C8.20462 25.9995 7.44206 25.6832 6.87964 25.1207C6.31722 24.5583 6.00087 23.7958 6 23.0004V19.0004H7.44531C7.8771 18.9971 8.29642 18.8552 8.6414 18.5955C8.98638 18.3358 9.23876 17.9721 9.36131 17.558L11.5439 10.2016C11.5574 10.1433 11.5904 10.0915 11.6375 10.0547C11.6846 10.0179 11.7429 9.99838 11.8027 9.99941H11.8066C11.8569 9.99592 11.9071 10.008 11.9502 10.034C11.9934 10.0601 12.0275 10.0988 12.0478 10.1449L15.7412 22.4779C15.8931 22.9163 16.1761 23.2974 16.5518 23.5695C16.9276 23.8417 17.3779 23.9917 17.8418 23.9994C17.8564 24.0004 17.8701 24.0004 17.8848 24.0004C18.3408 24.0008 18.7863 23.8633 19.1629 23.6061C19.5395 23.3489 19.8295 22.9839 19.9951 22.559C20.015 22.5089 20.031 22.4573 20.043 22.4047L20.7959 19.0004H26V22.9574C26.0047 23.7585 25.6916 24.5287 25.1292 25.0992C24.5667 25.6696 23.801 25.9937 23 26.0004Z" fill="#0F0F0F"/>
</svg>
