<svg width="32" height="32" viewBox="0 0 32 32" fill="none" xmlns="http://www.w3.org/2000/svg">
<path d="M15.75 24.25C16.8546 24.25 17.75 25.1454 17.75 26.25C17.75 27.3546 16.8546 28.25 15.75 28.25C14.6454 28.25 13.75 27.3546 13.75 26.25C13.75 25.1454 14.6454 24.25 15.75 24.25ZM8.75 17.75C9.85457 17.75 10.75 18.6454 10.75 19.75C10.75 20.8546 9.85457 21.75 8.75 21.75C7.64543 21.75 6.75 20.8546 6.75 19.75C6.75 18.6454 7.64543 17.75 8.75 17.75ZM15.75 17.75C16.8546 17.75 17.75 18.6454 17.75 19.75C17.75 20.8546 16.8546 21.75 15.75 21.75C14.6454 21.75 13.75 20.8546 13.75 19.75C13.75 18.6454 14.6454 17.75 15.75 17.75ZM22.75 17.75C23.8546 17.75 24.75 18.6454 24.75 19.75C24.75 20.8546 23.8546 21.75 22.75 21.75C21.6454 21.75 20.75 20.8546 20.75 19.75C20.75 18.6454 21.6454 17.75 22.75 17.75ZM8.75 11.25C9.85457 11.25 10.75 12.1454 10.75 13.25C10.75 14.3546 9.85457 15.25 8.75 15.25C7.64543 15.25 6.75 14.3546 6.75 13.25C6.75 12.1454 7.64543 11.25 8.75 11.25ZM15.75 11.25C16.8546 11.25 17.75 12.1454 17.75 13.25C17.75 14.3546 16.8546 15.25 15.75 15.25C14.6454 15.25 13.75 14.3546 13.75 13.25C13.75 12.1454 14.6454 11.25 15.75 11.25ZM22.75 11.25C23.8546 11.25 24.75 12.1454 24.75 13.25C24.75 14.3546 23.8546 15.25 22.75 15.25C21.6454 15.25 20.75 14.3546 20.75 13.25C20.75 12.1454 21.6454 11.25 22.75 11.25ZM8.75 4.75C9.85457 4.75 10.75 5.64543 10.75 6.75C10.75 7.85457 9.85457 8.75 8.75 8.75C7.64543 8.75 6.75 7.85457 6.75 6.75C6.75 5.64543 7.64543 4.75 8.75 4.75ZM15.75 4.75C16.8546 4.75 17.75 5.64543 17.75 6.75C17.75 7.85457 16.8546 8.75 15.75 8.75C14.6454 8.75 13.75 7.85457 13.75 6.75C13.75 5.64543 14.6454 4.75 15.75 4.75ZM22.75 4.75C23.8546 4.75 24.75 5.64543 24.75 6.75C24.75 7.85457 23.8546 8.75 22.75 8.75C21.6454 8.75 20.75 7.85457 20.75 6.75C20.75 5.64543 21.6454 4.75 22.75 4.75Z" stroke="#0F0F0F" stroke-width="1.5"/>
</svg>
