<svg width="32" height="32" viewBox="0 0 32 32" fill="none" xmlns="http://www.w3.org/2000/svg">
<path d="M15.75 24.5C16.7165 24.5 17.5 25.2835 17.5 26.25C17.5 27.2165 16.7165 28 15.75 28C14.7835 28 14 27.2165 14 26.25C14 25.2835 14.7835 24.5 15.75 24.5ZM8.75 18C9.7165 18 10.5 18.7835 10.5 19.75C10.5 20.7165 9.7165 21.5 8.75 21.5C7.7835 21.5 7 20.7165 7 19.75C7 18.7835 7.7835 18 8.75 18ZM15.75 18C16.7165 18 17.5 18.7835 17.5 19.75C17.5 20.7165 16.7165 21.5 15.75 21.5C14.7835 21.5 14 20.7165 14 19.75C14 18.7835 14.7835 18 15.75 18ZM22.75 18C23.7165 18 24.5 18.7835 24.5 19.75C24.5 20.7165 23.7165 21.5 22.75 21.5C21.7835 21.5 21 20.7165 21 19.75C21 18.7835 21.7835 18 22.75 18ZM8.75 11.5C9.7165 11.5 10.5 12.2835 10.5 13.25C10.5 14.2165 9.7165 15 8.75 15C7.7835 15 7 14.2165 7 13.25C7 12.2835 7.7835 11.5 8.75 11.5ZM15.75 11.5C16.7165 11.5 17.5 12.2835 17.5 13.25C17.5 14.2165 16.7165 15 15.75 15C14.7835 15 14 14.2165 14 13.25C14 12.2835 14.7835 11.5 15.75 11.5ZM22.75 11.5C23.7165 11.5 24.5 12.2835 24.5 13.25C24.5 14.2165 23.7165 15 22.75 15C21.7835 15 21 14.2165 21 13.25C21 12.2835 21.7835 11.5 22.75 11.5ZM8.75 5C9.7165 5 10.5 5.7835 10.5 6.75C10.5 7.7165 9.7165 8.5 8.75 8.5C7.7835 8.5 7 7.7165 7 6.75C7 5.7835 7.7835 5 8.75 5ZM15.75 5C16.7165 5 17.5 5.7835 17.5 6.75C17.5 7.7165 16.7165 8.5 15.75 8.5C14.7835 8.5 14 7.7165 14 6.75C14 5.7835 14.7835 5 15.75 5ZM22.75 5C23.7165 5 24.5 5.7835 24.5 6.75C24.5 7.7165 23.7165 8.5 22.75 8.5C21.7835 8.5 21 7.7165 21 6.75C21 5.7835 21.7835 5 22.75 5Z" stroke="#0F0F0F" stroke-width="2"/>
</svg>
