<svg width="32" height="32" viewBox="0 0 32 32" fill="none" xmlns="http://www.w3.org/2000/svg">
<path d="M15.75 23.5C17.2688 23.5 18.5 24.7312 18.5 26.25C18.5 27.7688 17.2688 29 15.75 29C14.2312 29 13 27.7688 13 26.25C13 24.7312 14.2312 23.5 15.75 23.5ZM15.75 24.5C14.7835 24.5 14 25.2835 14 26.25C14 27.2165 14.7835 28 15.75 28C16.7165 28 17.5 27.2165 17.5 26.25C17.5 25.2835 16.7165 24.5 15.75 24.5Z" fill="#0F0F0F"/>
<path d="M8.75 17C10.2688 17 11.5 18.2312 11.5 19.75C11.5 21.2688 10.2688 22.5 8.75 22.5C7.23122 22.5 6 21.2688 6 19.75C6 18.2312 7.23122 17 8.75 17ZM8.75 18C7.7835 18 7 18.7835 7 19.75C7 20.7165 7.7835 21.5 8.75 21.5C9.7165 21.5 10.5 20.7165 10.5 19.75C10.5 18.7835 9.7165 18 8.75 18Z" fill="#0F0F0F"/>
<path d="M15.75 17C17.2688 17 18.5 18.2312 18.5 19.75C18.5 21.2688 17.2688 22.5 15.75 22.5C14.2312 22.5 13 21.2688 13 19.75C13 18.2312 14.2312 17 15.75 17ZM15.75 18C14.7835 18 14 18.7835 14 19.75C14 20.7165 14.7835 21.5 15.75 21.5C16.7165 21.5 17.5 20.7165 17.5 19.75C17.5 18.7835 16.7165 18 15.75 18Z" fill="#0F0F0F"/>
<path d="M22.75 17C24.2688 17 25.5 18.2312 25.5 19.75C25.5 21.2688 24.2688 22.5 22.75 22.5C21.2312 22.5 20 21.2688 20 19.75C20 18.2312 21.2312 17 22.75 17ZM22.75 18C21.7835 18 21 18.7835 21 19.75C21 20.7165 21.7835 21.5 22.75 21.5C23.7165 21.5 24.5 20.7165 24.5 19.75C24.5 18.7835 23.7165 18 22.75 18Z" fill="#0F0F0F"/>
<path d="M8.75 10.5C10.2688 10.5 11.5 11.7312 11.5 13.25C11.5 14.7688 10.2688 16 8.75 16C7.23122 16 6 14.7688 6 13.25C6 11.7312 7.23122 10.5 8.75 10.5ZM8.75 11.5C7.7835 11.5 7 12.2835 7 13.25C7 14.2165 7.7835 15 8.75 15C9.7165 15 10.5 14.2165 10.5 13.25C10.5 12.2835 9.7165 11.5 8.75 11.5Z" fill="#0F0F0F"/>
<path d="M15.75 10.5C17.2688 10.5 18.5 11.7312 18.5 13.25C18.5 14.7688 17.2688 16 15.75 16C14.2312 16 13 14.7688 13 13.25C13 11.7312 14.2312 10.5 15.75 10.5ZM15.75 11.5C14.7835 11.5 14 12.2835 14 13.25C14 14.2165 14.7835 15 15.75 15C16.7165 15 17.5 14.2165 17.5 13.25C17.5 12.2835 16.7165 11.5 15.75 11.5Z" fill="#0F0F0F"/>
<path d="M22.75 10.5C24.2688 10.5 25.5 11.7312 25.5 13.25C25.5 14.7688 24.2688 16 22.75 16C21.2312 16 20 14.7688 20 13.25C20 11.7312 21.2312 10.5 22.75 10.5ZM22.75 11.5C21.7835 11.5 21 12.2835 21 13.25C21 14.2165 21.7835 15 22.75 15C23.7165 15 24.5 14.2165 24.5 13.25C24.5 12.2835 23.7165 11.5 22.75 11.5Z" fill="#0F0F0F"/>
<path d="M8.75 4C10.2688 4 11.5 5.23122 11.5 6.75C11.5 8.26878 10.2688 9.5 8.75 9.5C7.23122 9.5 6 8.26878 6 6.75C6 5.23122 7.23122 4 8.75 4ZM8.75 5C7.7835 5 7 5.7835 7 6.75C7 7.7165 7.7835 8.5 8.75 8.5C9.7165 8.5 10.5 7.7165 10.5 6.75C10.5 5.7835 9.7165 5 8.75 5Z" fill="#0F0F0F"/>
<path d="M15.75 4C17.2688 4 18.5 5.23122 18.5 6.75C18.5 8.26878 17.2688 9.5 15.75 9.5C14.2312 9.5 13 8.26878 13 6.75C13 5.23122 14.2312 4 15.75 4ZM15.75 5C14.7835 5 14 5.7835 14 6.75C14 7.7165 14.7835 8.5 15.75 8.5C16.7165 8.5 17.5 7.7165 17.5 6.75C17.5 5.7835 16.7165 5 15.75 5Z" fill="#0F0F0F"/>
<path d="M22.75 4C24.2688 4 25.5 5.23122 25.5 6.75C25.5 8.26878 24.2688 9.5 22.75 9.5C21.2312 9.5 20 8.26878 20 6.75C20 5.23122 21.2312 4 22.75 4ZM22.75 5C21.7835 5 21 5.7835 21 6.75C21 7.7165 21.7835 8.5 22.75 8.5C23.7165 8.5 24.5 7.7165 24.5 6.75C24.5 5.7835 23.7165 5 22.75 5Z" fill="#0F0F0F"/>
</svg>
