<svg width="32" height="32" viewBox="0 0 32 32" fill="none" xmlns="http://www.w3.org/2000/svg">
<path d="M15.75 24C16.9926 24 18 25.0074 18 26.25C18 27.4926 16.9926 28.5 15.75 28.5C14.5074 28.5 13.5 27.4926 13.5 26.25C13.5 25.0074 14.5074 24 15.75 24ZM8.75 17.5C9.99264 17.5 11 18.5074 11 19.75C11 20.9926 9.99264 22 8.75 22C7.50736 22 6.5 20.9926 6.5 19.75C6.5 18.5074 7.50736 17.5 8.75 17.5ZM15.75 17.5C16.9926 17.5 18 18.5074 18 19.75C18 20.9926 16.9926 22 15.75 22C14.5074 22 13.5 20.9926 13.5 19.75C13.5 18.5074 14.5074 17.5 15.75 17.5ZM22.75 17.5C23.9926 17.5 25 18.5074 25 19.75C25 20.9926 23.9926 22 22.75 22C21.5074 22 20.5 20.9926 20.5 19.75C20.5 18.5074 21.5074 17.5 22.75 17.5ZM8.75 11C9.99264 11 11 12.0074 11 13.25C11 14.4926 9.99264 15.5 8.75 15.5C7.50736 15.5 6.5 14.4926 6.5 13.25C6.5 12.0074 7.50736 11 8.75 11ZM15.75 11C16.9926 11 18 12.0074 18 13.25C18 14.4926 16.9926 15.5 15.75 15.5C14.5074 15.5 13.5 14.4926 13.5 13.25C13.5 12.0074 14.5074 11 15.75 11ZM22.75 11C23.9926 11 25 12.0074 25 13.25C25 14.4926 23.9926 15.5 22.75 15.5C21.5074 15.5 20.5 14.4926 20.5 13.25C20.5 12.0074 21.5074 11 22.75 11ZM8.75 4.5C9.99264 4.5 11 5.50736 11 6.75C11 7.99264 9.99264 9 8.75 9C7.50736 9 6.5 7.99264 6.5 6.75C6.5 5.50736 7.50736 4.5 8.75 4.5ZM15.75 4.5C16.9926 4.5 18 5.50736 18 6.75C18 7.99264 16.9926 9 15.75 9C14.5074 9 13.5 7.99264 13.5 6.75C13.5 5.50736 14.5074 4.5 15.75 4.5ZM22.75 4.5C23.9926 4.5 25 5.50736 25 6.75C25 7.99264 23.9926 9 22.75 9C21.5074 9 20.5 7.99264 20.5 6.75C20.5 5.50736 21.5074 4.5 22.75 4.5Z" stroke="#0F0F0F"/>
</svg>
