<svg width="32" height="32" viewBox="0 0 32 32" fill="none" xmlns="http://www.w3.org/2000/svg">
<path fill-rule="evenodd" clip-rule="evenodd" d="M20.4844 11.5L16 29.4355L11.5156 11.5H20.4844ZM10.4844 11.5L14.9092 29.1982L2.18945 11.5859C2.16968 11.5586 2.15436 11.5288 2.1377 11.5H10.4844ZM29.8105 11.5859L17.0908 29.1963L21.5156 11.5H29.8623C29.8456 11.5288 29.8303 11.5586 29.8105 11.5859ZM23.7998 2.40039L29.7998 10.4004C29.8236 10.4321 29.8428 10.4663 29.8623 10.5H21.7656L23.792 2.3916C23.7944 2.3947 23.7975 2.39726 23.7998 2.40039ZM10.2344 10.5H2.1377C2.15724 10.4663 2.17642 10.4321 2.2002 10.4004L8.2002 2.40039L8.20703 2.3916L10.2344 10.5ZM20.1914 10.5H11.8086L16 2.11816L20.1914 10.5ZM11.0732 9.7334L9.13965 2H14.9404L11.0732 9.7334ZM20.9258 9.7334L17.0596 2H22.8594L20.9258 9.7334Z" fill="#0F0F0F"/>
</svg>
