<svg width="32" height="32" viewBox="0 0 32 32" fill="none" xmlns="http://www.w3.org/2000/svg">
<path fill-rule="evenodd" clip-rule="evenodd" d="M23 2.5C23.1574 2.5 23.306 2.5743 23.4004 2.7002L29.4004 10.7002C29.5315 10.8753 29.5334 11.1156 29.4053 11.293L16.4053 29.293C16.3113 29.423 16.1605 29.5 16 29.5C15.8396 29.5 15.6888 29.423 15.5948 29.293L2.59475 11.293C2.46669 11.1156 2.46855 10.8753 2.59964 10.7002L8.59964 2.7002C8.69406 2.5743 8.84267 2.50001 9.00003 2.5H23ZM15.0059 26.7695L10.8145 11.5H3.97757L15.0059 26.7695ZM16.9942 26.7666L28.0215 11.5H21.1856L16.9942 26.7666ZM15.9991 26.6104L20.1475 11.5H11.8516L15.9991 26.6104ZM3.99905 10.5H10.5401L8.78714 4.11621L3.99905 10.5ZM21.46 10.5H28L23.212 4.11523L21.46 10.5ZM11.9014 10.5H20.0987L16 3.94238L11.9014 10.5ZM11.3164 9.5498L15.0987 3.5H9.65531L11.3164 9.5498ZM20.6827 9.5498L22.3438 3.5H16.9014L20.6827 9.5498Z" fill="#0F0F0F"/>
</svg>
