<svg width="32" height="32" viewBox="0 0 32 32" fill="none" xmlns="http://www.w3.org/2000/svg">
<path fill-rule="evenodd" clip-rule="evenodd" d="M23.0879 2.25488C23.2905 2.27873 23.4767 2.38455 23.6006 2.5498L29.5996 10.5498C29.7966 10.8125 29.8006 11.1733 29.6084 11.4395L16.6084 29.4395C16.4674 29.6347 16.2408 29.75 16 29.75C15.7592 29.75 15.5326 29.6347 15.3916 29.4395L2.39161 11.4395C2.19937 11.1733 2.2034 10.8125 2.4004 10.5498L8.4004 2.5498L8.45704 2.48242C8.59767 2.33486 8.79363 2.25 9.00001 2.25H23L23.0879 2.25488ZM16 25.6641L19.8203 11.75H12.1797L16 25.6641ZM14.3994 25.502L10.625 11.75H4.46778L14.3994 25.502ZM17.6006 25.5L27.5313 11.75H21.376L17.6006 25.5ZM4.49805 10.25H10.2129L8.68165 4.67285L4.49805 10.25ZM21.7871 10.25H27.501L23.3184 4.67383L21.7871 10.25ZM12.3525 10.25H19.6475L16 4.41406L12.3525 10.25ZM11.4072 8.93359L14.6475 3.75H9.98438L11.4072 8.93359ZM20.5918 8.93359L22.0156 3.75H17.3525L20.5918 8.93359Z" fill="black"/>
</svg>
