<svg width="32" height="32" viewBox="0 0 32 32" fill="none" xmlns="http://www.w3.org/2000/svg">
<path d="M16.5127 22.2246C15.4294 22.2246 14.4434 21.9622 13.5547 21.4375C12.666 20.9043 11.9551 20.1934 11.4219 19.3047C10.8971 18.4076 10.6348 17.4173 10.6348 16.334C10.6348 15.2591 10.9014 14.2816 11.4346 13.4014C11.9678 12.5127 12.6787 11.806 13.5674 11.2812C14.4645 10.7565 15.4463 10.4941 16.5127 10.4941C17.5876 10.4941 18.5651 10.7565 19.4453 11.2812C20.334 11.806 21.0449 12.5127 21.5781 13.4014C22.1113 14.2816 22.3779 15.2591 22.3779 16.334C22.3779 17.4173 22.1113 18.4033 21.5781 19.292C21.0534 20.1807 20.3467 20.8916 19.458 21.4248C18.5693 21.958 17.5876 22.2246 16.5127 22.2246ZM16.5127 21.1455C17.3929 21.1455 18.1969 20.9297 18.9248 20.498C19.6527 20.0664 20.2324 19.4867 20.6641 18.7588C21.0957 18.0225 21.3115 17.2142 21.3115 16.334C21.3115 15.4622 21.0915 14.6667 20.6514 13.9473C20.2197 13.2194 19.64 12.6396 18.9121 12.208C18.1842 11.7764 17.3844 11.5605 16.5127 11.5605C15.6325 11.5605 14.8242 11.7764 14.0879 12.208C13.36 12.6396 12.7803 13.2194 12.3486 13.9473C11.917 14.6667 11.7012 15.4622 11.7012 16.334C11.7012 17.2227 11.917 18.0309 12.3486 18.7588C12.7803 19.4867 13.36 20.0664 14.0879 20.498C14.8158 20.9297 15.624 21.1455 16.5127 21.1455ZM16.5 19.3936C15.9499 19.3936 15.4421 19.2581 14.9766 18.9873C14.5195 18.708 14.1514 18.3398 13.8721 17.8828C13.5928 17.4173 13.4531 16.9053 13.4531 16.3467C13.4531 15.7965 13.5928 15.293 13.8721 14.8359C14.1514 14.3789 14.5195 14.015 14.9766 13.7441C15.4421 13.4648 15.9499 13.3252 16.5 13.3252C17.0586 13.3252 17.5664 13.4648 18.0234 13.7441C18.4889 14.015 18.8571 14.3789 19.1279 14.8359C19.4072 15.293 19.5469 15.7965 19.5469 16.3467C19.5469 16.8968 19.4072 17.4046 19.1279 17.8701C18.8571 18.3356 18.4889 18.708 18.0234 18.9873C17.5664 19.2581 17.0586 19.3936 16.5 19.3936ZM16.5 18.2383C17.0247 18.2467 17.4691 18.0648 17.833 17.6924C18.2054 17.32 18.3916 16.8714 18.3916 16.3467C18.3916 15.8304 18.2054 15.3903 17.833 15.0264C17.4691 14.654 17.029 14.4678 16.5127 14.4678C15.988 14.4678 15.5394 14.654 15.167 15.0264C14.7946 15.3903 14.6084 15.8304 14.6084 16.3467C14.6084 16.8714 14.7904 17.32 15.1543 17.6924C15.5267 18.0563 15.9753 18.2383 16.5 18.2383ZM11.5742 18.1875L4.75684 20.0791L4.49023 19.165L11.3203 17.2861L11.5742 18.1875ZM12.2852 19.8252L6.58496 23.6973L6.03906 22.9229L11.7393 19.0381L12.2852 19.8252ZM15.5859 21.6787L13.7324 28.4072L12.8184 28.1406L14.6973 21.3359L15.5859 21.6787ZM17.4268 11.1035L19.2676 4.3877L20.1816 4.66699L18.3408 11.3701L17.4268 11.1035ZM20.6895 13.0078L26.4277 9.09766L26.9609 9.85938L21.2354 13.7695L20.6895 13.0078ZM21.4385 14.6074L28.2432 12.7158L28.5098 13.6299L21.7178 15.4834L21.4385 14.6074ZM16.5 29.0674C14.7565 29.0674 13.1146 28.7331 11.5742 28.0645C10.0423 27.4043 8.68815 26.4902 7.51172 25.3223C6.34375 24.1458 5.42546 22.7917 4.75684 21.2598C4.09668 19.7194 3.7666 18.0775 3.7666 16.334C3.7666 14.5905 4.09668 12.9528 4.75684 11.4209C5.42546 9.88053 6.34375 8.52637 7.51172 7.3584C8.67969 6.18197 10.0296 5.26367 11.5615 4.60352C13.1019 3.9349 14.7438 3.60059 16.4873 3.60059C18.2308 3.60059 19.8727 3.9349 21.4131 4.60352C22.9535 5.26367 24.3076 6.18197 25.4756 7.3584C26.6436 8.52637 27.5618 9.88053 28.2305 11.4209C28.8991 12.9528 29.2334 14.5905 29.2334 16.334C29.2334 18.0775 28.8991 19.7194 28.2305 21.2598C27.5618 22.7917 26.6436 24.1458 25.4756 25.3223C24.3076 26.4902 22.9535 27.4043 21.4131 28.0645C19.8812 28.7331 18.2435 29.0674 16.5 29.0674ZM16.5 27.4297C18.0319 27.4297 19.4665 27.1419 20.8037 26.5664C22.1494 25.9909 23.3301 25.1953 24.3457 24.1797C25.3698 23.1641 26.1654 21.9876 26.7324 20.6504C27.3079 19.3047 27.5957 17.8659 27.5957 16.334C27.5957 14.8021 27.3079 13.3675 26.7324 12.0303C26.1569 10.6846 25.3613 9.50391 24.3457 8.48828C23.3301 7.46419 22.1494 6.66862 20.8037 6.10156C19.4665 5.52604 18.0277 5.23828 16.4873 5.23828C14.9554 5.23828 13.5166 5.52604 12.1709 6.10156C10.8337 6.66862 9.65723 7.46419 8.6416 8.48828C7.63444 9.50391 6.8431 10.6846 6.26758 12.0303C5.70052 13.3675 5.41699 14.8021 5.41699 16.334C5.41699 17.8659 5.70052 19.3047 6.26758 20.6504C6.8431 21.9876 7.63867 23.1641 8.6543 24.1797C9.66992 25.1953 10.8464 25.9909 12.1836 26.5664C13.5208 27.1419 14.9596 27.4297 16.5 27.4297Z" fill="black"/>
</svg>
