<svg width="32" height="32" viewBox="0 0 32 32" fill="none" xmlns="http://www.w3.org/2000/svg">
<path d="M21 4.5H11C10.0151 4.49991 9.03975 4.69384 8.12977 5.07072C7.21978 5.44759 6.39295 6.00004 5.69649 6.69649C5.00004 7.39295 4.44759 8.21978 4.07072 9.12977C3.69384 10.0397 3.49991 11.0151 3.5 12V17.0029C3.49979 17.9309 3.86819 18.8209 4.52418 19.4773C5.18018 20.1337 6.07002 20.5026 6.998 20.5029H7L14.5 20.5596V25.0019C14.493 25.6335 14.7289 26.2437 15.1589 26.7064C15.5888 27.1691 16.1801 27.449 16.8105 27.4883C16.9013 27.4971 16.9922 27.5019 17.0805 27.5019C17.6356 27.5148 18.1769 27.3285 18.6066 26.9769C19.0363 26.6253 19.326 26.1315 19.4233 25.5849L21 17.54V4.5Z" fill="#0F0F0F"/>
<path d="M25 4.5H23V17.5H25C25.9276 17.4994 26.817 17.1308 27.4731 16.4752C28.1293 15.8196 28.4986 14.9305 28.5 14.0029V8C28.4989 7.07208 28.1298 6.18249 27.4736 5.52635C26.8175 4.87022 25.9279 4.50111 25 4.5Z" fill="#0F0F0F"/>
</svg>
