<svg width="32" height="32" viewBox="0 0 32 32" fill="none" xmlns="http://www.w3.org/2000/svg">
<path d="M25 4.25H11C9.98223 4.24992 8.97442 4.45033 8.03411 4.83977C7.0938 5.22922 6.23942 5.80008 5.51975 6.51975C4.80008 7.23942 4.22922 8.0938 3.83977 9.03411C3.45033 9.97442 3.24992 10.9822 3.25 12V17C3.25 17.9946 3.64509 18.9484 4.34835 19.6517C5.05161 20.3549 6.00544 20.75 7 20.75L14.251 20.749L14.25 24.999C14.2372 25.669 14.475 26.3196 14.9169 26.8234C15.3587 27.3272 15.9728 27.6479 16.6387 27.7227C16.768 27.7395 16.8983 27.7479 17.0287 27.748C17.6332 27.7528 18.2217 27.5535 18.6989 27.1824C19.1762 26.8113 19.5143 26.2901 19.6587 25.7031C20.5942 22.207 21.4644 18.9985 21.8042 17.748L25 17.75C25.9942 17.7488 26.9474 17.3534 27.6504 16.6504C28.3534 15.9474 28.7488 14.9942 28.75 14V8C28.7488 7.0058 28.3534 6.05264 27.6504 5.34964C26.9474 4.64663 25.9942 4.25116 25 4.25ZM18.209 25.3149C18.1319 25.6086 17.9504 25.8642 17.6986 26.034C17.4467 26.2037 17.1417 26.2759 16.8405 26.2372C16.5393 26.1984 16.2625 26.0513 16.0618 25.8234C15.8611 25.5954 15.7503 25.3022 15.75 24.9985L15.7461 20.6421C15.7663 20.467 15.7492 20.2896 15.696 20.1216C15.6428 19.9535 15.5546 19.7986 15.4373 19.6671C15.32 19.5355 15.1762 19.4303 15.0153 19.3582C14.8544 19.2862 14.6802 19.2489 14.5039 19.249L7.001 19.25C6.40426 19.25 5.83097 19.0129 5.40901 18.591C4.98705 18.169 4.75 17.5967 4.75 17V12C4.75 10.3424 5.40848 8.75269 6.58058 7.58058C7.75269 6.40848 9.3424 5.75 11 5.75H20.25V17.7448C19.857 19.192 19.0613 22.1301 18.209 25.3149ZM27.25 14C27.2493 14.5964 27.0122 15.1681 26.5906 15.5899C26.169 16.0117 25.5974 16.249 25.001 16.25L21.75 16.2475V5.75H25C25.5965 5.75074 26.1684 5.98803 26.5902 6.40983C27.012 6.83162 27.2493 7.40349 27.25 8V14Z" fill="#0F0F0F"/>
</svg>
