<svg width="32" height="32" viewBox="0 0 32 32" fill="none" xmlns="http://www.w3.org/2000/svg">
<path d="M4.3457 24.9668C2.82227 24.9668 1.88281 24.04 1.88281 22.5039V7.81543C1.88281 6.2793 2.82227 5.35254 4.3457 5.35254H27.6416C29.1777 5.35254 30.1045 6.2793 30.1045 7.81543V22.5039C30.1045 24.04 29.1777 24.9668 27.6416 24.9668H19.7197V27.4678H19.834C20.291 27.4678 20.6719 27.8359 20.6719 28.3057C20.6719 28.7627 20.291 29.1309 19.834 29.1309H12.1533C11.6963 29.1309 11.3281 28.7627 11.3281 28.3057C11.3281 27.8359 11.6963 27.4678 12.1533 27.4678H12.2676V24.9668H4.3457ZM4.38379 23.3164H27.6035C28.124 23.3164 28.4541 22.9863 28.4541 22.4658V7.85352C28.4541 7.33301 28.124 7.00293 27.6035 7.00293H4.38379C3.86328 7.00293 3.5459 7.33301 3.5459 7.85352V22.4658C3.5459 22.9863 3.86328 23.3164 4.38379 23.3164Z" fill="black"/>
</svg>
