<svg width="37" height="32" viewBox="0 0 37 32" fill="none" xmlns="http://www.w3.org/2000/svg">
<path d="M4.3584 24.9668C2.82227 24.9668 1.88281 24.04 1.88281 22.5039V7.81543C1.88281 6.2793 2.82227 5.35254 4.3584 5.35254H27.6416C29.1777 5.35254 30.1045 6.22852 30.1045 7.76465V15.3564C29.8633 15.2803 29.6094 15.2422 29.3428 15.2422C29.0254 15.2422 28.7207 15.3057 28.4541 15.3945V7.85352C28.4541 7.33301 28.124 7.00293 27.6035 7.00293H4.38379C3.86328 7.00293 3.5459 7.33301 3.5459 7.85352V22.4658C3.5459 22.9863 3.86328 23.3164 4.38379 23.3164H23.0332L22.1064 24.9668H19.7197V27.4678H19.834C20.291 27.4678 20.6719 27.8359 20.6719 28.3057C20.6719 28.7627 20.291 29.1309 19.834 29.1309H12.1533C11.6963 29.1309 11.3281 28.7627 11.3281 28.3057C11.3281 27.8359 11.6963 27.4678 12.1533 27.4678H12.2803V24.9668H4.3584ZM24.1631 29.1309C23.2109 29.1309 22.5889 28.4326 22.5889 27.5439C22.5889 27.29 22.6523 27.0234 22.792 26.7695L27.9717 17.54C28.2637 17.0068 28.8096 16.7275 29.3428 16.7275C29.876 16.7275 30.3965 17.0068 30.7012 17.54L35.8809 26.7695C36.0332 27.0234 36.1094 27.29 36.1094 27.5439C36.1094 28.4326 35.4746 29.1309 34.5098 29.1309H24.1631ZM29.3428 24.5225C29.7363 24.5225 30.0156 24.2432 30.0156 23.8623L30.1045 20.3584C30.1172 19.9014 29.8125 19.584 29.3428 19.584C28.8857 19.584 28.5684 19.9014 28.5811 20.3584L28.6699 23.8623C28.6826 24.2432 28.9619 24.5225 29.3428 24.5225ZM29.3428 27.3027C29.876 27.3027 30.3076 26.8711 30.3076 26.3252C30.3203 25.8047 29.876 25.3604 29.3428 25.3604C28.8223 25.3604 28.3779 25.8047 28.3779 26.3252C28.3779 26.8711 28.8096 27.3027 29.3428 27.3027Z" fill="black"/>
</svg>
