<svg width="32" height="32" viewBox="0 0 32 32" fill="none" xmlns="http://www.w3.org/2000/svg">
<path d="M24.9998 4H6.99982C5.67421 4.00156 4.40335 4.52884 3.466 5.46619C2.52866 6.40353 2.00138 7.6744 1.99982 9V10.0151C1.99982 10.2804 2.10517 10.5347 2.29271 10.7222C2.48025 10.9098 2.7346 11.0151 2.99982 11.0151C3.26503 11.0151 3.51939 10.9098 3.70692 10.7222C3.89446 10.5347 3.99982 10.2804 3.99982 10.0151V9C4.00068 8.20462 4.31703 7.44206 4.87946 6.87964C5.44188 6.31722 6.20443 6.00087 6.99982 6H24.9998C25.7952 6.00087 26.5578 6.31722 27.1202 6.87964C27.6826 7.44206 27.9989 8.20462 27.9998 9V19C27.9989 19.7954 27.6826 20.5579 27.1202 21.1204C26.5578 21.6828 25.7952 21.9991 24.9998 22H6.99982C6.20443 21.9991 5.44188 21.6828 4.87946 21.1204C4.31703 20.5579 4.00068 19.7954 3.99982 19V18.1123C3.99982 17.8471 3.89446 17.5927 3.70692 17.4052C3.51939 17.2177 3.26503 17.1123 2.99982 17.1123C2.7346 17.1123 2.48025 17.2177 2.29271 17.4052C2.10517 17.5927 1.99982 17.8471 1.99982 18.1123V19C2.00138 20.3256 2.52866 21.5965 3.466 22.5338C4.40335 23.4712 5.67421 23.9984 6.99982 24H11.0008L10.4012 24.7998C10.1779 25.0967 10.0419 25.45 10.0082 25.82C9.97455 26.19 10.0447 26.562 10.2107 26.8944C10.3767 27.2267 10.6321 27.5062 10.9481 27.7015C11.2641 27.8968 11.6283 28.0002 11.9998 28H19.9998C20.3712 28.0001 20.7352 27.8967 21.0511 27.7015C21.3671 27.5063 21.6223 27.2269 21.7883 26.8947C21.9543 26.5625 22.0245 26.1906 21.991 25.8207C21.9574 25.4509 21.8215 25.0977 21.5985 24.8008L20.9984 24H24.9998C26.3254 23.9984 27.5963 23.4712 28.5336 22.5338C29.471 21.5965 29.9983 20.3256 29.9998 19V9C29.9983 7.6744 29.471 6.40353 28.5336 5.46619C27.5963 4.52884 26.3254 4.00156 24.9998 4ZM19.9998 26H12.0008L13.4998 24H18.4998L19.9998 26Z" fill="#0F0F0F"/>
<path d="M1.99982 14C1.99978 14.1313 2.02563 14.2614 2.07587 14.3827C2.12611 14.5041 2.19977 14.6143 2.29263 14.7072C2.3855 14.8 2.49575 14.8737 2.61709 14.924C2.73843 14.9742 2.86849 15 2.99982 15H10.5858L8.29276 17.293C8.1994 17.3857 8.12527 17.496 8.07461 17.6174C8.02395 17.7389 7.99776 17.8691 7.99754 18.0007C7.99732 18.1323 8.02308 18.2627 8.07334 18.3843C8.1236 18.5059 8.19737 18.6164 8.29043 18.7094C8.38348 18.8025 8.49398 18.8762 8.6156 18.9265C8.73722 18.9767 8.86756 19.0025 8.99915 19.0023C9.13074 19.002 9.26099 18.9758 9.38243 18.9252C9.50388 18.8745 9.61413 18.8004 9.70686 18.707L13.7062 14.7077C13.8933 14.5197 13.9983 14.2652 13.9983 14C13.9983 13.7347 13.8933 13.4803 13.7062 13.2923L9.70686 9.293C9.6142 9.19928 9.50394 9.1248 9.3824 9.07384C9.26086 9.02289 9.13045 8.99646 8.99867 8.99608C8.86688 8.9957 8.73632 9.02138 8.61449 9.07164C8.49266 9.12189 8.38197 9.19574 8.28878 9.28892C8.19559 9.38211 8.12174 9.4928 8.07148 9.61462C8.02121 9.73645 7.99553 9.86701 7.9959 9.9988C7.99628 10.1306 8.0227 10.261 8.07365 10.3825C8.1246 10.5041 8.19907 10.6143 8.29279 10.707L10.5858 13H2.99982C2.86849 13 2.73843 13.0258 2.61709 13.0761C2.49575 13.1263 2.3855 13.2 2.29263 13.2928C2.19977 13.3857 2.12611 13.4959 2.07587 13.6173C2.02563 13.7386 1.99978 13.8687 1.99982 14Z" fill="#0F0F0F"/>
</svg>
