<svg width="32" height="32" viewBox="0 0 32 32" fill="none" xmlns="http://www.w3.org/2000/svg">
<path d="M16.25 18.5C16.6642 18.5 17 18.8358 17 19.25C17 19.6642 16.6642 20 16.25 20C15.8358 20 15.5 19.6642 15.5 19.25C15.5 18.8358 15.8358 18.5 16.25 18.5Z" fill="#0F0F0F"/>
<path d="M23 15.5C23.2761 15.5 23.5 15.7239 23.5 16C23.5 16.2761 23.2761 16.5 23 16.5H9C8.72386 16.5 8.5 16.2761 8.5 16C8.5 15.7239 8.72386 15.5 9 15.5H23Z" fill="#0F0F0F"/>
<path d="M16.25 12C16.6642 12 17 12.3358 17 12.75C17 13.1642 16.6642 13.5 16.25 13.5C15.8358 13.5 15.5 13.1642 15.5 12.75C15.5 12.3358 15.8358 12 16.25 12Z" fill="#0F0F0F"/>
</svg>
