<svg width="32" height="32" viewBox="0 0 32 32" fill="none" xmlns="http://www.w3.org/2000/svg">
<path d="M25 2C27.7614 2 30 4.23858 30 7V25C30 27.7614 27.7614 30 25 30H7C4.23858 30 2 27.7614 2 25V7C2 4.23858 4.23858 2 7 2H25ZM16.5 18.5C15.9477 18.5 15.5 18.9477 15.5 19.5C15.5 20.0523 15.9477 20.5 16.5 20.5C17.0523 20.5 17.5 20.0523 17.5 19.5C17.5 18.9477 17.0523 18.5 16.5 18.5ZM9 15C8.44772 15 8 15.4477 8 16C8 16.5523 8.44772 17 9 17H23C23.5523 17 24 16.5523 24 16C24 15.4477 23.5523 15 23 15H9ZM16.5 12C15.9477 12 15.5 12.4477 15.5 13C15.5 13.5523 15.9477 14 16.5 14C17.0523 14 17.5 13.5523 17.5 13C17.5 12.4477 17.0523 12 16.5 12Z" fill="#0F0F0F"/>
</svg>
