<svg width="32" height="32" viewBox="0 0 32 32" fill="none" xmlns="http://www.w3.org/2000/svg">
<path d="M18.4997 15.9411C18.5025 16.2172 18.281 16.4434 18.0048 16.4462L8.71244 16.5414L11.891 19.6554C12.0882 19.8487 12.0915 20.1653 11.8982 20.3625C11.705 20.5598 11.3884 20.563 11.1911 20.3698L7.15036 16.4109C6.95311 16.2177 6.94987 15.9011 7.14312 15.7039L11.1019 11.6631C11.2952 11.4659 11.6117 11.4626 11.809 11.6559C12.0063 11.8491 12.0095 12.1657 11.8162 12.3629L8.7022 15.5414L17.9946 15.4462C18.2707 15.4434 18.4969 15.665 18.4997 15.9411Z" fill="#0F0F0F"/>
<path d="M7 5.5C4.51472 5.5 2.5 7.51472 2.5 10V22C2.5 24.4853 4.51472 26.5 7 26.5H25C27.4853 26.5 29.5 24.4853 29.5 22V10C29.5 7.51472 27.4853 5.5 25 5.5H7ZM3.5 10C3.5 8.067 5.067 6.5 7 6.5H22.5V25.5H7C5.067 25.5 3.5 23.933 3.5 22V10ZM23.5 25.5V6.5H25C26.933 6.5 28.5 8.067 28.5 10V22C28.5 23.933 26.933 25.5 25 25.5H23.5Z" fill="#0F0F0F"/>
</svg>
