<svg width="32" height="32" viewBox="0 0 32 32" fill="none" xmlns="http://www.w3.org/2000/svg">
<path d="M25 5C27.7614 5 30 7.23858 30 10V22C30 24.7614 27.7614 27 25 27H7C4.23858 27 2 24.7614 2 22V10C2 7.23858 4.23858 5 7 5H25ZM21 26H23V6H21V26ZM14.707 11.293C14.3165 10.9024 13.6835 10.9024 13.293 11.293C12.9025 11.6835 12.9025 12.3165 13.293 12.707L15.5859 15H8C7.44772 15 7 15.4477 7 16C7.00004 16.5522 7.44774 17 8 17H15.5859L13.293 19.293C12.9025 19.6835 12.9025 20.3165 13.293 20.707C13.6835 21.0975 14.3165 21.0975 14.707 20.707L18.707 16.707C18.738 16.676 18.7649 16.6422 18.791 16.6084C18.8048 16.5905 18.8185 16.5726 18.8311 16.5537C18.8572 16.5146 18.8804 16.4743 18.9004 16.4326C18.9223 16.3871 18.9412 16.34 18.9561 16.291C18.9611 16.2743 18.9646 16.2572 18.9688 16.2402C18.9878 16.1631 19 16.083 19 16C19 15.9202 18.9893 15.8429 18.9717 15.7686C18.9668 15.748 18.9623 15.7273 18.9561 15.707C18.9412 15.6584 18.9222 15.6116 18.9004 15.5664C18.8812 15.5266 18.8597 15.4877 18.835 15.4502C18.7976 15.3935 18.7548 15.3408 18.707 15.293L14.707 11.293Z" fill="#0F0F0F"/>
</svg>
