<svg width="32" height="32" viewBox="0 0 32 32" fill="none" xmlns="http://www.w3.org/2000/svg">
<path d="M7.25 16C7.25 15.5858 7.58579 15.25 8 15.25H16.1893L13.4697 12.5303C13.1768 12.2374 13.1768 11.7626 13.4697 11.4697C13.7626 11.1768 14.2374 11.1768 14.5303 11.4697L18.5303 15.4697C18.6022 15.5416 18.6565 15.6245 18.6931 15.7129C18.7251 15.7901 18.7446 15.8738 18.749 15.9614C18.7497 15.9742 18.75 15.9871 18.75 16C18.75 16.1017 18.7298 16.1987 18.6931 16.2871C18.6565 16.3755 18.6022 16.4584 18.5303 16.5303L14.5303 20.5303C14.2374 20.8232 13.7626 20.8232 13.4697 20.5303C13.1768 20.2374 13.1768 19.7626 13.4697 19.4697L16.1893 16.75H8C7.58579 16.75 7.25 16.4142 7.25 16Z" fill="#0F0F0F"/>
<path d="M7 5.25C4.37665 5.25 2.25 7.37665 2.25 10V22C2.25 24.6234 4.37665 26.75 7 26.75H25C27.6234 26.75 29.75 24.6234 29.75 22V10C29.75 7.37665 27.6234 5.25 25 5.25H7ZM3.75 10C3.75 8.20507 5.20507 6.75 7 6.75H22.25V25.25H7C5.20507 25.25 3.75 23.7949 3.75 22V10ZM23.75 25.25V6.75H25C26.7949 6.75 28.25 8.20507 28.25 10V22C28.25 23.7949 26.7949 25.25 25 25.25H23.75Z" fill="#0F0F0F"/>
</svg>
