<svg width="32" height="32" viewBox="0 0 32 32" fill="none" xmlns="http://www.w3.org/2000/svg">
<path d="M16.5 10.0752C16.0811 10.0752 15.7256 9.73242 15.7256 9.31348V5.32715L15.7764 3.48633L14.6465 4.6543L12.4883 6.90137C12.3486 7.05371 12.1328 7.12988 11.9424 7.12988C11.5361 7.12988 11.2314 6.83789 11.2314 6.44434C11.2314 6.22852 11.3203 6.07617 11.4727 5.92383L15.9414 1.55664C16.1318 1.36621 16.2969 1.30273 16.5 1.30273C16.7031 1.30273 16.8682 1.36621 17.0586 1.55664L21.5273 5.92383C21.667 6.07617 21.7559 6.22852 21.7559 6.44434C21.7559 6.83789 21.4385 7.12988 21.0449 7.12988C20.8545 7.12988 20.6514 7.05371 20.5117 6.90137L18.3535 4.6543L17.2236 3.48633L17.2744 5.32715V9.31348C17.2744 9.73242 16.9189 10.0752 16.5 10.0752ZM9.1875 29.5371C6.71191 29.5371 5.44238 28.2803 5.44238 25.8301V13.0205C5.44238 10.5576 6.71191 9.31348 9.1875 9.31348H15.4717V19C15.4717 19.5459 15.9414 20.0029 16.5 20.0029C17.0459 20.0029 17.5156 19.5459 17.5156 19V9.31348H23.7998C26.2754 9.31348 27.5449 10.5703 27.5449 13.0205V25.8301C27.5449 28.2676 26.2754 29.5371 23.7998 29.5371H9.1875Z" fill="black"/>
</svg>
