<svg width="32" height="32" viewBox="0 0 32 32" fill="none" xmlns="http://www.w3.org/2000/svg">
<path d="M24.0003 28.4995H8.00034C7.86773 28.4995 7.74055 28.5522 7.64678 28.646C7.55302 28.7397 7.50034 28.8669 7.50034 28.9995C7.50034 29.1321 7.55302 29.2593 7.64678 29.3531C7.74055 29.4469 7.86773 29.4995 8.00034 29.4995H24.0003C24.1329 29.4995 24.2601 29.4469 24.3539 29.3531C24.4477 29.2593 24.5003 29.1321 24.5003 28.9995C24.5003 28.8669 24.4477 28.7397 24.3539 28.646C24.2601 28.5522 24.1329 28.4995 24.0003 28.4995Z" fill="#0F0F0F"/>
<path d="M29.3538 28.646L20.1884 19.4805C21.3461 19.4332 22.4408 18.9408 23.2442 18.1059C24.0476 17.271 24.4976 16.1582 24.5004 14.9995V6.99953C24.4991 5.80646 24.0245 4.66262 23.1809 3.81899C22.3373 2.97536 21.1935 2.50083 20.0004 2.49953H12.0004C10.8417 2.5023 9.72889 2.95233 8.89401 3.75572C8.05912 4.55912 7.56667 5.65384 7.51938 6.81153L3.35385 2.646C3.3076 2.59881 3.25245 2.56125 3.19159 2.5355C3.13074 2.50975 3.06538 2.49632 2.9993 2.49599C2.93322 2.49565 2.86773 2.50842 2.80662 2.53355C2.74551 2.55869 2.68998 2.59569 2.64326 2.64241C2.59653 2.68914 2.55953 2.74466 2.5344 2.80577C2.50927 2.86689 2.4965 2.93238 2.49683 2.99845C2.49717 3.06453 2.5106 3.12989 2.53635 3.19075C2.56209 3.2516 2.59965 3.30675 2.64685 3.353L28.6468 29.353C28.7409 29.4452 28.8676 29.4965 28.9993 29.4959C29.131 29.4952 29.2572 29.4426 29.3503 29.3494C29.4434 29.2563 29.4961 29.1302 29.4967 28.9985C29.4974 28.8667 29.446 28.7401 29.3538 28.646ZM19.2074 18.4995L8.50034 7.7925V6.9995C8.50146 6.07159 8.87057 5.182 9.5267 4.52587C10.1828 3.86973 11.0724 3.50062 12.0003 3.4995H20.0003C20.9282 3.50062 21.8178 3.86973 22.474 4.52587C23.1301 5.182 23.4992 6.07159 23.5003 6.9995V14.9995C23.4992 15.9274 23.1301 16.817 22.474 17.4731C21.8178 18.1293 20.9282 18.4984 20.0003 18.4995L19.2074 18.4995Z" fill="#0F0F0F"/>
<path d="M7.50034 9.6205V14.9995C7.50164 16.1926 7.97616 17.3364 8.81979 18.18C9.66342 19.0237 10.8073 19.4982 12.0003 19.4995H12.6746L10.639 22.6187C10.5401 22.8169 10.4935 23.0371 10.5035 23.2584C10.5136 23.4797 10.58 23.6947 10.6965 23.8831C10.813 24.0716 10.9758 24.2271 11.1692 24.335C11.3627 24.4428 11.5806 24.4995 11.8021 24.4995H22.381L21.3824 23.4995H11.8021C11.7509 23.5 11.7004 23.4871 11.6557 23.4621C11.611 23.4371 11.5736 23.4009 11.5472 23.357C11.5228 23.3224 11.5064 23.2828 11.4991 23.2411C11.4918 23.1994 11.4939 23.1565 11.5052 23.1157L13.8691 19.4995H17.3783L16.3784 18.4995H12.0003C11.0724 18.4984 10.1828 18.1293 9.5267 17.4732C8.87057 16.817 8.50146 15.9274 8.50034 14.9995V10.6206L7.50034 9.6205Z" fill="#0F0F0F"/>
</svg>
