<svg width="32" height="32" viewBox="0 0 32 32" fill="none" xmlns="http://www.w3.org/2000/svg">
<path d="M24.0003 27.9995H8.00033C7.73511 27.9995 7.48076 28.1049 7.29322 28.2924C7.10568 28.48 7.00033 28.7343 7.00033 28.9995C7.00033 29.2647 7.10568 29.5191 7.29322 29.7066C7.48076 29.8942 7.73511 29.9995 8.00033 29.9995H24.0003C24.2655 29.9995 24.5199 29.8942 24.7074 29.7066C24.895 29.5191 25.0003 29.2647 25.0003 28.9995C25.0003 28.7343 24.895 28.48 24.7074 28.2924C24.5199 28.1049 24.2655 27.9995 24.0003 27.9995Z" fill="#0F0F0F"/>
<path d="M29.7074 28.2925L21.2373 19.8224C22.3111 19.5506 23.2638 18.929 23.9452 18.0558C24.6266 17.1825 24.9978 16.1072 25.0003 14.9995V6.99953C24.9988 5.67392 24.4715 4.40306 23.5341 3.46571C22.5968 2.52837 21.3259 2.00109 20.0003 1.99953H12.0003C10.893 2.00289 9.81812 2.37405 8.94464 3.05469C8.07117 3.73534 7.44858 4.68689 7.1747 5.75985L3.70736 2.2925C3.61451 2.19965 3.50428 2.126 3.38297 2.07575C3.26166 2.0255 3.13163 1.99963 3.00033 1.99963C2.86902 1.99963 2.739 2.02549 2.61768 2.07574C2.49637 2.12599 2.38614 2.19964 2.29329 2.29249C2.20044 2.38534 2.12679 2.49557 2.07654 2.61688C2.02629 2.73819 2.00043 2.86822 2.00043 2.99952C2.00043 3.13083 2.02629 3.26085 2.07654 3.38217C2.12679 3.50348 2.20044 3.61371 2.29329 3.70656L28.2933 29.7066C28.4808 29.8941 28.7351 29.9994 29.0003 29.9994C29.2655 29.9994 29.5198 29.8941 29.7074 29.7066C29.8949 29.519 30.0002 29.2647 30.0002 28.9995C30.0002 28.7343 29.8949 28.48 29.7074 28.2925ZM9.00036 7.5855V6.99953C9.00123 6.20414 9.31757 5.44159 9.88 4.87917C10.4424 4.31674 11.205 4.0004 12.0004 3.99953H20.0004C20.7957 4.0004 21.5583 4.31674 22.1207 4.87917C22.6831 5.44159 22.9995 6.20414 23.0004 6.99953V14.9995C22.9995 15.7949 22.6831 16.5575 22.1207 17.1199C21.5583 17.6823 20.7957 17.9987 20.0004 17.9995H19.4144L9.00036 7.5855Z" fill="#0F0F0F"/>
<path d="M7.00033 11.2432V14.9995C7.00364 16.2822 7.50036 17.5145 8.38754 18.4409C9.27472 19.3674 10.4843 19.917 11.7657 19.9758L10.2493 22.2954C10.2277 22.3275 10.2084 22.3611 10.1917 22.396C10.0547 22.6704 9.99006 22.9753 10.004 23.2817C10.0179 23.588 10.1099 23.8858 10.2712 24.1466C10.4325 24.4075 10.6579 24.6228 10.9258 24.772C11.1937 24.9213 11.4954 24.9996 11.8021 24.9995H20.2005C20.3647 24.9986 20.528 24.9753 20.6859 24.9302L18.7554 22.9995H12.178L14.139 19.9995H15.7557L13.756 17.9995H12.0003C11.2049 17.9987 10.4424 17.6823 9.87997 17.1199C9.31754 16.5575 9.00119 15.7949 9.00033 14.9995V13.2434L7.00033 11.2432Z" fill="#0F0F0F"/>
</svg>
