<svg width="32" height="32" viewBox="0 0 32 32" fill="none" xmlns="http://www.w3.org/2000/svg">
<path d="M7.25 8C7.25 7.58579 7.58579 7.25 8 7.25H20C20.4142 7.25 20.75 7.58579 20.75 8V13C20.75 13.4142 20.4142 13.75 20 13.75H8C7.58579 13.75 7.25 13.4142 7.25 13V8ZM8.75 8.75V12.25H19.25V8.75H8.75Z" fill="#0F0F0F"/>
<path d="M16 15.25C13.3766 15.25 11.25 17.3766 11.25 20C11.25 22.6234 13.3766 24.75 16 24.75C18.6234 24.75 20.75 22.6234 20.75 20C20.75 17.3766 18.6234 15.25 16 15.25ZM12.75 20C12.75 18.2051 14.2051 16.75 16 16.75C17.7949 16.75 19.25 18.2051 19.25 20C19.25 21.7949 17.7949 23.25 16 23.25C14.2051 23.25 12.75 21.7949 12.75 20Z" fill="#0F0F0F"/>
<path d="M4.25 5C4.25 4.58579 4.58579 4.25 5 4.25H22C22.1989 4.25 22.3897 4.32902 22.5303 4.46967L27.5303 9.46967C27.671 9.61032 27.75 9.80109 27.75 10V27C27.75 27.4142 27.4142 27.75 27 27.75H5C4.58579 27.75 4.25 27.4142 4.25 27V5ZM5.75 5.75V26.25H26.25V10.3107L21.6893 5.75H5.75Z" fill="#0F0F0F"/>
</svg>
