<svg width="32" height="32" viewBox="0 0 32 32" fill="none" xmlns="http://www.w3.org/2000/svg">
<g clip-path="url(#clip0_44210_350)">
<path d="M2.1875 16.6592C1.91667 16.4137 1.78548 16.1302 1.79395 15.8086C1.80241 15.4785 1.93783 15.1992 2.2002 14.9707L6.2627 11.3779C6.5166 11.1579 6.77474 11.0563 7.03711 11.0732C7.30794 11.0902 7.53646 11.2002 7.72266 11.4033C7.90885 11.598 8.00195 11.8519 8.00195 12.165V14.9707H15.1494V7.74707H12.3311C12.0179 7.74707 11.764 7.65397 11.5693 7.46777C11.3747 7.28158 11.2689 7.05729 11.252 6.79492C11.235 6.52409 11.3366 6.26595 11.5566 6.02051L15.1494 1.94531C15.3864 1.67448 15.6657 1.53906 15.9873 1.53906C16.3174 1.5306 16.6009 1.66602 16.8379 1.94531L20.4307 6.02051C20.6592 6.26595 20.765 6.52409 20.748 6.79492C20.7311 7.05729 20.6211 7.28158 20.418 7.46777C20.2233 7.65397 19.9694 7.74707 19.6562 7.74707H16.8633V14.9707H23.9854V12.165C23.9854 11.8519 24.0785 11.598 24.2646 11.4033C24.4508 11.2002 24.6751 11.0902 24.9375 11.0732C25.2083 11.0563 25.4707 11.1579 25.7246 11.3779L29.7998 14.9707C30.0622 15.2161 30.1934 15.5039 30.1934 15.834C30.1934 16.1556 30.0579 16.4349 29.7871 16.6719L25.7246 20.252C25.4707 20.4805 25.2083 20.5863 24.9375 20.5693C24.6751 20.5524 24.4508 20.4466 24.2646 20.252C24.0785 20.0488 23.9854 19.7907 23.9854 19.4775V16.6846H16.8633V23.8828H19.6562C19.9694 23.8828 20.2233 23.9759 20.418 24.1621C20.6211 24.3483 20.7311 24.5768 20.748 24.8477C20.765 25.1185 20.6592 25.3766 20.4307 25.6221L16.8506 29.6846C16.6136 29.9554 16.3301 30.0908 16 30.0908C15.6784 30.0993 15.3949 29.9681 15.1494 29.6973L11.5566 25.6221C11.3366 25.3766 11.235 25.1185 11.252 24.8477C11.2689 24.5768 11.3747 24.3483 11.5693 24.1621C11.764 23.9759 12.0179 23.8828 12.3311 23.8828H15.1494V16.6846H8.00195V19.4775C8.00195 19.7907 7.90885 20.0488 7.72266 20.252C7.53646 20.4466 7.30794 20.5524 7.03711 20.5693C6.77474 20.5863 6.5166 20.4805 6.2627 20.252L2.1875 16.6592Z" fill="black"/>
</g>
<defs>
<clipPath id="clip0_44210_350">
<rect width="32" height="32" fill="white"/>
</clipPath>
</defs>
</svg>
