<svg width="32" height="32" viewBox="0 0 32 32" fill="none" xmlns="http://www.w3.org/2000/svg">
<path d="M8 14C6.34315 14 5 15.3431 5 17C5 18.6569 6.34315 20 8 20C9.65685 20 11 18.6569 11 17C11 15.3431 9.65685 14 8 14ZM7 17C7 16.4477 7.44772 16 8 16C8.55228 16 9 16.4477 9 17C9 17.5523 8.55228 18 8 18C7.44772 18 7 17.5523 7 17Z" fill="#0F0F0F"/>
<path d="M21 17C21 15.3431 22.3431 14 24 14C25.6569 14 27 15.3431 27 17C27 18.6569 25.6569 20 24 20C22.3431 20 21 18.6569 21 17ZM24 16C23.4477 16 23 16.4477 23 17C23 17.5523 23.4477 18 24 18C24.5523 18 25 17.5523 25 17C25 16.4477 24.5523 16 24 16Z" fill="#0F0F0F"/>
<path d="M10.2794 4C7.89602 4 5.84395 5.6823 5.37652 8.01942L4.74884 11.1578C2.5929 11.7133 1 13.6706 1 16V18C1 20.0503 2.2341 21.8124 4 22.584V25C4 26.6569 5.34315 28 7 28H8C9.65685 28 11 26.6569 11 25V23H21V25C21 26.6569 22.3431 28 24 28H25C26.6569 28 28 26.6569 28 25V22.584C29.7659 21.8124 31 20.0503 31 18V16C31 13.6708 29.4073 11.7135 27.2516 11.1579L26.6239 8.01942C26.1565 5.6823 24.1044 4 21.721 4H10.2794ZM26 23V25C26 25.5523 25.5523 26 25 26H24C23.4477 26 23 25.5523 23 25V23H26ZM6 25V23H9V25C9 25.5523 8.55228 26 8 26H7C6.44772 26 6 25.5523 6 25ZM25.1804 11H6.82001L7.33768 8.41165C7.61814 7.00938 8.84938 6 10.2794 6H21.721C23.151 6 24.3823 7.00938 24.6627 8.41165L25.1804 11ZM3 16C3 14.3431 4.34315 13 6 13H26C27.6569 13 29 14.3431 29 16V18C29 19.6569 27.6569 21 26 21H6C4.34315 21 3 19.6569 3 18V16Z" fill="#0F0F0F"/>
</svg>
