<svg width="32" height="32" viewBox="0 0 32 32" fill="none" xmlns="http://www.w3.org/2000/svg">
<path d="M16 4C16 4 17 4 17 4.75C17 5.5 16 5.5 16 5.5H8C6.61929 5.5 5.5 6.61929 5.5 8V24C5.5 25.3807 6.61929 26.5 8 26.5H24C25.3807 26.5 26.5 25.3807 26.5 24V16C26.5 16 26.5 15 27.25 15C28 15 28 16 28 16V24L27.9951 24.2061C27.8913 26.2512 26.2512 27.8913 24.2061 27.9951L24 28H8C5.85996 28 4.11211 26.3194 4.00488 24.2061L4 24V8C4 5.79086 5.79086 4 8 4H16Z" fill="#0F0F0F"/>
<path d="M25.5254 3.25C25.9489 3.25 26.3685 3.33303 26.7598 3.49512C27.1509 3.65717 27.5063 3.89498 27.8057 4.19434C28.41 4.7991 28.7499 5.61965 28.75 6.47461C28.75 7.32973 28.4102 8.15003 27.8057 8.75488L18.2012 18.3574C18.0774 18.4815 17.931 18.5803 17.7695 18.6475C17.608 18.7146 17.4349 18.7497 17.2598 18.75H14.583C14.2294 18.7499 13.8905 18.6093 13.6406 18.3594C13.3908 18.1095 13.2501 17.7706 13.25 17.417V14.7412C13.25 14.5661 13.2847 14.3929 13.3516 14.2314L13.4072 14.1123C13.469 13.9968 13.5478 13.8907 13.6406 13.7979L23.2451 4.19434L23.3604 4.08496C23.6342 3.83682 23.9488 3.63689 24.291 3.49512C24.6823 3.33303 25.1019 3.25001 25.5254 3.25ZM25.5254 4.75C25.2989 4.75001 25.0745 4.79418 24.8652 4.88086C24.656 4.96753 24.4658 5.09473 24.3057 5.25488L14.75 14.8105V17.25H17.1885L26.7451 7.69434L26.8594 7.56836C27.1109 7.26133 27.25 6.87497 27.25 6.47461C27.2499 6.01727 27.0684 5.57838 26.7451 5.25488C26.585 5.09477 26.3947 4.96752 26.1855 4.88086C25.9763 4.79421 25.7518 4.75 25.5254 4.75Z" fill="#0F0F0F"/>
</svg>
