<svg width="32" height="32" viewBox="0 0 32 32" fill="none" xmlns="http://www.w3.org/2000/svg">
<path d="M16 4C16 4 17 4 17 5C17 6 16 6 16 6H8C6.89543 6 6 6.89543 6 8V24C6 25.1046 6.89543 26 8 26H24C25.1046 26 26 25.1046 26 24V16C26 16 26 15 27 15C28 15 28 16 28 16V24L27.9951 24.2061C27.8913 26.2512 26.2512 27.8913 24.2061 27.9951L24 28H8C5.85996 28 4.11211 26.3194 4.00488 24.2061L4 24V8C4 5.79086 5.79086 4 8 4H16Z" fill="#0F0F0F"/>
<path d="M25.5254 3C25.9817 3 26.4339 3.08998 26.8555 3.26465C27.2769 3.43926 27.6599 3.69505 27.9824 4.01758C28.6337 4.66923 28.9999 5.55335 29 6.47461C29 7.39601 28.6338 8.27991 27.9824 8.93164L18.3779 18.5352C18.2311 18.6822 18.0566 18.7993 17.8652 18.8789C17.6734 18.9586 17.4677 18.9997 17.2598 19H14.583C14.1631 18.9999 13.7606 18.8329 13.4639 18.5361C13.1672 18.2394 13.0001 17.837 13 17.417V14.7412C13 14.5332 13.0408 14.3275 13.1201 14.1357L13.1865 13.9951C13.2599 13.8577 13.3534 13.7315 13.4639 13.6211L23.0684 4.01758L23.1924 3.90039C23.4875 3.63289 23.8265 3.41748 24.1953 3.26465C24.6169 3.08999 25.0691 3.00001 25.5254 3ZM25.5254 5C25.3317 5.00001 25.1398 5.03819 24.9609 5.1123C24.7821 5.18641 24.6193 5.29473 24.4824 5.43164L15 14.9141V17H17.085L26.5684 7.51758L26.666 7.41016C26.8811 7.14759 27 6.81701 27 6.47461C26.9999 6.08355 26.8448 5.70826 26.5684 5.43164C26.4315 5.29473 26.2687 5.1864 26.0898 5.1123C25.9109 5.03818 25.7191 5 25.5254 5Z" fill="#0F0F0F"/>
</svg>
