<svg width="32" height="32" viewBox="0 0 32 32" fill="none" xmlns="http://www.w3.org/2000/svg">
<path d="M16 4C16 4 17 4 17 5C17 6 16 6 16 6H8C6.89543 6 6 6.89543 6 8V24C6 25.1046 6.89543 26 8 26H24C25.1046 26 26 25.1046 26 24V16C26 16 26 15 27 15C28 15 28 16 28 16V24L27.9951 24.2061C27.8913 26.2512 26.2512 27.8913 24.2061 27.9951L24 28H8C5.85996 28 4.11211 26.3194 4.00488 24.2061L4 24V8C4 5.79086 5.79086 4 8 4H16Z" fill="#0F0F0F"/>
<path d="M25.5254 4C25.8504 4 26.1724 4.06408 26.4727 4.18848C26.7728 4.31283 27.0457 4.49489 27.2754 4.72461C27.7392 5.18875 27.9999 5.81844 28 6.47461C28 7.13085 27.7393 7.7604 27.2754 8.22461L17.6709 17.8281C17.6168 17.8824 17.5522 17.9257 17.4814 17.9551C17.4108 17.9844 17.3353 17.9999 17.2588 18H14.583C14.4284 17.9999 14.2802 17.9384 14.1709 17.8291C14.0616 17.7198 14.0001 17.5716 14 17.417V14.7412C14 14.6648 14.0148 14.5891 14.0439 14.5186C14.0732 14.4478 14.1168 14.3833 14.1709 14.3291L23.7754 4.72461C24.0051 4.49489 24.278 4.31284 24.5781 4.18848C24.8784 4.06409 25.2004 4.00001 25.5254 4Z" fill="#0F0F0F"/>
</svg>
