<svg width="32" height="32" viewBox="0 0 32 32" fill="none" xmlns="http://www.w3.org/2000/svg">
<path d="M25.7501 7.3677V7C25.7486 5.74067 25.2477 4.53333 24.3572 3.64285C23.4668 2.75237 22.2594 2.25146 21.0001 2.25H11.0001C9.74075 2.25143 8.5334 2.75233 7.64291 3.64282C6.75242 4.53331 6.25152 5.74066 6.25009 7V7.3685C5.16757 7.42933 4.14956 7.90285 3.40563 8.6916C2.6617 9.48034 2.24846 10.5243 2.25099 11.6085V24.7335C2.25236 26.0635 2.78129 27.3386 3.7217 28.2791C4.66211 29.2195 5.9372 29.7485 7.26719 29.75H24.734C26.0641 29.7486 27.3393 29.2197 28.2798 28.2792C29.2203 27.3387 29.7492 26.0635 29.7506 24.7334V11.6082C29.7533 10.5236 29.34 9.47932 28.5957 8.69041C27.8515 7.9015 26.833 7.42809 25.7501 7.3677ZM28.1621 10.9423L25.7501 12.8017V8.8682C26.3188 8.91736 26.8576 9.14408 27.2904 9.51629C27.7232 9.8885 28.028 10.3874 28.1617 10.9423H28.1621ZM11.0001 3.75H21.0001C21.8617 3.75101 22.6878 4.09374 23.2971 4.70301C23.9063 5.31229 24.2491 6.13836 24.2501 7V13.958L16.1553 20.198C16.1114 20.2316 16.0576 20.2497 16.0023 20.2495C15.947 20.2493 15.8934 20.2308 15.8497 20.197L7.74969 13.9338V7C7.75069 6.13829 8.09348 5.31216 8.70284 4.70287C9.3122 4.09359 10.1384 3.7509 11.0001 3.75ZM6.25009 8.8681V12.774L3.84749 10.9164C3.98499 10.3674 4.29037 9.875 4.72105 9.50782C5.15173 9.14065 5.68625 8.91702 6.25009 8.8681ZM24.734 28.25H7.26719C6.3348 28.2491 5.44087 27.8783 4.78157 27.219C4.12228 26.5597 3.75149 25.6658 3.75059 24.7334V12.7388L14.9323 21.3846C15.2385 21.6212 15.6145 21.7496 16.0014 21.7498C16.3884 21.75 16.7645 21.6219 17.0709 21.3856L28.2509 12.7674V24.7332C28.25 25.6657 27.8792 26.5597 27.2199 27.2191C26.5605 27.8784 25.6665 28.2492 24.734 28.25Z" fill="#0F0F0F"/>
</svg>
