<svg width="32" height="32" viewBox="0 0 32 32" fill="none" xmlns="http://www.w3.org/2000/svg">
<path d="M24.7331 5.25H7.26633C5.91284 5.27548 4.62468 5.83665 3.68431 6.81046C2.74394 7.78427 2.22812 9.09124 2.24993 10.4448V21.5561C2.23705 22.9185 2.76502 24.2304 3.71805 25.2041C4.67108 26.1777 5.97137 26.7337 7.33373 26.75H24.6667C26.029 26.7335 27.3292 26.1775 28.2821 25.2037C29.235 24.23 29.7628 22.918 29.7497 21.5557V10.4448C29.7715 9.09121 29.2557 7.7842 28.3153 6.81039C27.3749 5.83657 26.0867 5.27543 24.7331 5.25ZM7.26633 6.75H24.7331C25.3108 6.75512 25.878 6.90443 26.3833 7.18436C26.8886 7.4643 27.316 7.866 27.6267 8.353L16.156 17.1977C16.1123 17.2321 16.0583 17.2508 16.0027 17.2508C15.9471 17.2508 15.893 17.2321 15.8493 17.1977L4.38683 8.3351C4.69812 7.85322 5.12416 7.45614 5.62673 7.17949C6.12929 6.90284 6.69267 6.75526 7.26633 6.75ZM28.2499 21.5561C28.2634 22.5207 27.8937 23.4513 27.2221 24.1439C26.5504 24.8364 25.6315 25.2343 24.6669 25.2504H7.33373C6.369 25.2345 5.44995 24.8367 4.77812 24.1441C4.1063 23.4516 3.73654 22.5209 3.74993 21.5561V10.4448C3.7522 10.2244 3.77335 10.0045 3.81313 9.7877L14.9325 18.3852C15.239 18.6212 15.6149 18.7492 16.0017 18.7494C16.3885 18.7496 16.7645 18.6219 17.0712 18.3862L28.1892 9.8133C28.2268 10.0218 28.2471 10.233 28.2499 10.4448V21.5561Z" fill="#0F0F0F"/>
</svg>
