<svg width="32" height="32" viewBox="0 0 32 32" fill="none" xmlns="http://www.w3.org/2000/svg">
<path d="M27.3954 9.4056C25.3654 8.1346 18.6034 3.8968 16.8114 2.7366C16.5699 2.58002 16.2883 2.49671 16.0004 2.49671C15.7126 2.49671 15.4309 2.58002 15.1894 2.7366C13.3964 3.8972 6.63474 8.135 4.60444 9.406C3.95803 9.80875 3.42536 10.3701 3.05703 11.0367C2.68871 11.7034 2.49697 12.4531 2.50004 13.2147V25C2.50133 26.1931 2.97586 27.3369 3.81949 28.1805C4.66312 29.0242 5.80696 29.4987 7.00004 29.5H25C26.1931 29.4987 27.337 29.0242 28.1806 28.1805C29.0242 27.3369 29.4987 26.1931 29.5 25V13.2147C29.5032 12.453 29.3114 11.7032 28.9431 11.0365C28.5747 10.3698 28.0419 9.80836 27.3954 9.4056ZM5.13544 10.2532C7.73894 8.6232 13.982 4.7083 15.733 3.5755C15.8123 3.52319 15.9051 3.49534 16 3.4954C16.0951 3.49586 16.1881 3.52386 16.2676 3.576C18.0176 4.7083 24.2608 8.6229 26.8643 10.2532C27.3395 10.551 27.7354 10.9595 28.0182 11.4437L16.3036 20.3973C16.2164 20.4638 16.1097 20.4998 15.9999 20.4998C15.8902 20.4998 15.7835 20.4638 15.6962 20.3973L3.98054 11.4457C4.26343 10.9606 4.65985 10.5514 5.13574 10.2532H5.13544ZM28.5 25C28.4989 25.9279 28.1298 26.8175 27.4737 27.4736C26.8175 28.1298 25.928 28.4989 25 28.5H7.00004C6.07212 28.4989 5.18253 28.1298 4.52639 27.4736C3.87025 26.8175 3.50115 25.9279 3.50004 25V13.2147C3.50119 12.944 3.53344 12.6743 3.59614 12.4109L15.0889 21.1922C15.3508 21.3917 15.6709 21.4998 16.0001 21.4998C16.3293 21.4998 16.6494 21.3917 16.9112 21.1922L28.4035 12.4084C28.4665 12.6726 28.4989 12.9431 28.5 13.2147V25Z" fill="#0F0F0F"/>
</svg>
