<svg width="32" height="32" viewBox="0 0 32 32" fill="none" xmlns="http://www.w3.org/2000/svg">
<path d="M27.5282 9.1937C25.4989 7.9227 18.7382 3.6859 16.9472 2.5272C16.6654 2.34428 16.3365 2.24689 16.0005 2.2468C15.6645 2.24671 15.3356 2.34393 15.0536 2.5267C13.2616 3.6859 6.50094 7.9227 4.47264 9.1937C3.78993 9.61869 3.22731 10.2113 2.83828 10.9151C2.44925 11.6189 2.24675 12.4105 2.25004 13.2147V25C2.25147 26.2593 2.75237 27.4667 3.64286 28.3572C4.53335 29.2477 5.7407 29.7486 7.00004 29.75H25C26.2594 29.7486 27.4668 29.2477 28.3572 28.3572C29.2477 27.4667 29.7486 26.2593 29.75 25V13.2147C29.7533 12.4106 29.5509 11.6191 29.162 10.9153C28.7731 10.2115 28.2107 9.61886 27.5282 9.1937ZM5.26824 10.4652C7.87174 8.8343 14.1168 4.9193 15.8688 3.7852C15.9078 3.7595 15.9534 3.74567 16 3.7454C16.0469 3.74574 16.0928 3.75963 16.1319 3.7854C17.8828 4.9192 24.128 8.8342 26.7324 10.4654C27.106 10.7074 27.4251 11.0245 27.6693 11.3966L16.1513 20.199C16.1077 20.2323 16.0544 20.2504 15.9995 20.2504C15.9446 20.2504 15.8912 20.2323 15.8476 20.199L4.33004 11.3984C4.57447 11.0254 4.89383 10.7075 5.26824 10.4652ZM28.25 25C28.249 25.8616 27.9063 26.6877 27.297 27.297C26.6877 27.9063 25.8617 28.249 25 28.25H7.00004C6.13839 28.249 5.31233 27.9063 4.70305 27.297C4.09378 26.6877 3.75105 25.8616 3.75004 25V13.2147C3.75826 13.1007 3.77255 12.9872 3.79284 12.8747L14.9364 21.39C15.2418 21.6231 15.6153 21.7494 15.9994 21.7494C16.3836 21.7494 16.7571 21.6231 17.0624 21.39L28.2068 12.8722C28.2273 12.9854 28.2417 13.0996 28.2499 13.2143L28.25 25Z" fill="#0F0F0F"/>
</svg>
