<svg width="32" height="32" viewBox="0 0 32 32" fill="none" xmlns="http://www.w3.org/2000/svg">
<path d="M26.0001 7.1431V7C25.9985 5.6744 25.4712 4.40353 24.5339 3.46619C23.5965 2.52885 22.3257 2.00156 21.0001 2H11.0001C9.67448 2.00156 8.40361 2.52885 7.46627 3.46619C6.52893 4.40353 6.00164 5.6744 6.00008 7V7.144C4.90027 7.26397 3.88359 7.78616 3.14542 8.61022C2.40725 9.43428 1.99966 10.5021 2.00098 11.6084V24.7334C2.00246 26.1297 2.55776 27.4683 3.54503 28.4557C4.5323 29.443 5.87091 29.9984 7.26718 30H24.734C26.1303 29.9985 27.469 29.4432 28.4564 28.4558C29.4438 27.4685 29.9991 26.1297 30.0006 24.7334V11.6082C30.0021 10.5015 29.5944 9.43333 28.8559 8.60908C28.1174 7.78482 27.1003 7.26269 26.0001 7.1431ZM27.8726 10.8463L26.0001 12.29V9.144C26.4362 9.23357 26.8402 9.4389 27.1696 9.73843C27.499 10.038 27.7417 10.4206 27.8722 10.8463H27.8726ZM11.0001 4H21.0001C21.7955 4.00087 22.558 4.31722 23.1204 4.87964C23.6829 5.44206 23.9992 6.20462 24.0001 7V13.8326L16.0016 20L8.00008 13.8106V7C8.00095 6.20462 8.3173 5.44206 8.87972 4.87964C9.44214 4.31722 10.2047 4.00087 11.0001 4ZM6.00008 9.1439V12.2639L4.13628 10.8225C4.2696 10.4022 4.5126 10.0251 4.84021 9.73008C5.16783 9.43502 5.56821 9.23267 6.00008 9.1439ZM24.734 28H7.26718C6.40104 27.999 5.57066 27.6545 4.95818 27.0421C4.3457 26.4297 4.00114 25.5993 4.00008 24.7332V13.2452L14.7784 21.5819C15.1283 21.8525 15.558 21.9994 16.0003 21.9997C16.4425 22.0001 16.8725 21.8538 17.2228 21.5838L28.0001 13.2726V24.7332C27.999 25.5992 27.6546 26.4294 27.0423 27.0418C26.4301 27.6542 25.5999 27.9988 24.734 28Z" fill="#0F0F0F"/>
</svg>
