<svg width="32" height="32" viewBox="0 0 32 32" fill="none" xmlns="http://www.w3.org/2000/svg">
<path d="M7.58799 2.5C8.4453 2.50001 9.26784 2.84025 9.87412 3.44629L12.8556 6.42871C13.1545 6.7274 13.392 7.08231 13.5538 7.47266C13.7157 7.86315 13.7989 8.28238 13.7989 8.70508C13.7989 9.12767 13.7156 9.54614 13.5538 9.93653C13.392 10.327 13.1546 10.6817 12.8556 10.9805L12.5021 10.627C12.8351 10.965 12.8536 10.9834 12.8536 10.9834L12.8351 11.001C12.8231 11.0128 12.8049 11.0305 12.7823 11.0527C12.7372 11.0972 12.6728 11.1615 12.5938 11.2393C12.4355 11.3953 12.2198 11.6077 11.9923 11.832C11.5678 12.2505 11.1013 12.7104 10.881 12.9287C10.8774 12.942 10.871 12.9615 10.8663 12.9893C10.8499 13.0867 10.8411 13.2338 10.8478 13.4287C10.861 13.8163 10.9361 14.3427 11.0997 14.9414C11.4273 16.1401 12.0949 17.5774 13.2579 18.7402C14.4205 19.9026 15.8572 20.57 17.0558 20.8975C17.6542 21.061 18.1807 21.1361 18.5685 21.1494C18.7636 21.1561 18.9111 21.1463 19.0089 21.1299C19.0379 21.125 19.058 21.1189 19.0714 21.1152C19.2899 20.8959 19.7493 20.4298 20.1681 20.0049C20.3922 19.7774 20.605 19.5626 20.7608 19.4043C20.8386 19.3253 20.902 19.26 20.9464 19.2149L21.0118 19.1494C21.0133 19.1479 21.0147 19.1455 21.0147 19.1455L21.0187 19.1416C21.6224 18.5382 22.4414 18.1994 23.295 18.1992C24.1488 18.1992 24.9685 18.5381 25.5724 19.1416L28.5538 22.1231C29.16 22.7292 29.501 23.551 29.5011 24.4082C29.5011 25.2651 29.1606 26.0873 28.5548 26.6934L26.961 28.293L26.9601 28.294C26.4032 28.8506 25.508 29.2388 24.4083 29.4063C23.2985 29.5752 21.9383 29.527 20.4015 29.169C17.3247 28.4521 13.5148 26.4904 9.51279 22.4893C5.50942 18.4867 3.54769 14.6782 2.83115 11.6025C2.47327 10.0663 2.4245 8.707 2.59385 7.59766C2.76176 6.49821 3.15104 5.60258 3.7081 5.0459L5.30088 3.44727L5.30185 3.44629C5.90812 2.84026 6.7307 2.50003 7.58799 2.5ZM7.58799 3.5C6.99578 3.50003 6.42763 3.73565 6.00889 4.1543L4.41514 5.75293C4.06077 6.10706 3.73203 6.77309 3.5831 7.74805C3.43571 8.71317 3.47111 9.94363 3.80478 11.376C4.47162 14.238 6.32355 17.8868 10.2198 21.7822C14.1147 25.6762 17.7646 27.5272 20.628 28.1943C22.061 28.5282 23.2922 28.565 24.2579 28.418C25.2329 28.2695 25.8978 27.9407 26.2521 27.5869L27.8458 25.9873C28.2645 25.5686 28.5011 25.0003 28.5011 24.4082C28.501 23.8163 28.2654 23.2487 27.8468 22.8301L24.8653 19.8486C24.449 19.4326 23.8837 19.1992 23.295 19.1992C22.7079 19.1994 22.1445 19.4315 21.7286 19.8457L21.7276 19.8467C21.7276 19.8467 21.7262 19.8491 21.7247 19.8506L21.6593 19.916C21.6148 19.9612 21.5507 20.0263 21.4728 20.1055C21.3169 20.2639 21.1052 20.4795 20.881 20.707C20.4333 21.1614 19.9343 21.6674 19.7354 21.8662C19.5673 22.0343 19.3278 22.0904 19.1739 22.1162C18.9895 22.1471 18.7711 22.1566 18.5343 22.1484C18.0578 22.1321 17.4537 22.0431 16.7921 21.8623C15.4699 21.5011 13.8651 20.7612 12.5509 19.4473C11.2362 18.1327 10.4962 16.5274 10.1349 15.2051C9.95401 14.5433 9.86409 13.9392 9.84775 13.4629C9.83964 13.2261 9.84999 13.0076 9.88096 12.8232C9.90673 12.67 9.96282 12.4307 10.1319 12.2627L11.2901 11.1191C11.5177 10.8948 11.7333 10.6824 11.8917 10.5264C11.9708 10.4485 12.036 10.3843 12.0812 10.3398C12.1034 10.3179 12.121 10.3008 12.1329 10.2891L12.1515 10.2705C12.3563 10.0652 12.5189 9.82167 12.63 9.55371C12.7415 9.2847 12.7989 8.99626 12.7989 8.70508C12.7989 8.41379 12.7415 8.12459 12.63 7.85547C12.5185 7.58672 12.3553 7.34245 12.1495 7.13672L9.16709 4.1543C8.74833 3.73566 8.1802 3.50001 7.58799 3.5ZM23.0001 2.5C26.0377 2.5 28.5001 4.96244 28.5001 8C28.5001 8.82584 28.1327 9.70309 27.6485 10.5147C27.1574 11.3378 26.5101 12.1534 25.8741 12.8682C25.2364 13.5848 24.6001 14.2119 24.1241 14.6592C23.8859 14.883 23.6868 15.0625 23.547 15.1865C23.4771 15.2485 23.4219 15.2972 23.3839 15.3301C23.3651 15.3464 23.35 15.3585 23.3399 15.3672C23.3349 15.3715 23.3309 15.3756 23.3282 15.3779L23.3253 15.3799L23.3243 15.3809L23.0001 15.6553L22.6759 15.3809L22.6749 15.3799L22.672 15.3779C22.6692 15.3756 22.6653 15.3715 22.6603 15.3672C22.6501 15.3585 22.6351 15.3464 22.6163 15.3301C22.5783 15.2971 22.5231 15.2485 22.4532 15.1865C22.3134 15.0625 22.1143 14.883 21.8761 14.6592C21.4001 14.2119 20.7638 13.5848 20.1261 12.8682C19.4901 12.1534 18.8427 11.3378 18.3517 10.5147C17.8675 9.70311 17.5001 8.82583 17.5001 8C17.5001 4.96247 19.9626 2.50005 23.0001 2.5ZM23.0001 3.5C20.5149 3.50005 18.5001 5.51475 18.5001 8C18.5001 8.55476 18.7578 9.24321 19.211 10.0029C19.6574 10.751 20.2603 11.5132 20.8741 12.2031C21.4863 12.8911 22.1001 13.497 22.5616 13.9307C22.7307 14.0895 22.8804 14.2234 23.0001 14.3311C23.1198 14.2234 23.2695 14.0895 23.4386 13.9307C23.9001 13.497 24.5139 12.8911 25.1261 12.2031C25.7399 11.5132 26.3428 10.751 26.7892 10.0029C27.2424 9.2432 27.5001 8.55477 27.5001 8C27.5001 5.51472 25.4854 3.5 23.0001 3.5ZM23.0001 5.5C24.3808 5.5 25.5001 6.61929 25.5001 8C25.5001 9.38072 24.3808 10.5 23.0001 10.5C21.6194 10.5 20.5001 9.38068 20.5001 8C20.5001 6.61932 21.6194 5.50006 23.0001 5.5Z" fill="black"/>
</svg>
