<svg width="32" height="32" viewBox="0 0 32 32" fill="none" xmlns="http://www.w3.org/2000/svg">
<path d="M7.58768 2.25C8.51125 2.25001 9.39742 2.61667 10.0506 3.26953L13.033 6.25196C13.3552 6.57389 13.6105 6.95621 13.785 7.37696C13.9594 7.79779 14.0486 8.24953 14.0486 8.70509C14.0486 9.16049 13.9593 9.61154 13.785 10.0322C13.6105 10.453 13.3543 10.8352 13.032 11.1572L12.5017 10.627L13.0281 11.1611L13.0271 11.1621L13.0242 11.166C13.0211 11.1691 13.0164 11.1739 13.0105 11.1797C12.9986 11.1915 12.9803 11.2083 12.9578 11.2305C12.9126 11.275 12.8475 11.3391 12.7683 11.417C12.61 11.573 12.3952 11.7856 12.1678 12.0098C11.7754 12.3966 11.3465 12.8179 11.1101 13.0518C11.0991 13.1294 11.0917 13.2516 11.0975 13.4199C11.11 13.7853 11.1813 14.2931 11.3406 14.876C11.6598 16.0437 12.3095 17.4387 13.4344 18.5635C14.559 19.6879 15.9543 20.3373 17.1219 20.6563C17.7043 20.8154 18.2114 20.8869 18.5769 20.8994C18.7455 20.9052 18.8681 20.8958 18.9461 20.8848C19.1794 20.65 19.6024 20.2235 19.99 19.8301C20.2141 19.6027 20.426 19.3868 20.5818 19.2285C20.6595 19.1496 20.724 19.0852 20.7684 19.0401C20.7904 19.0176 20.8074 18.9993 20.8191 18.9873C20.8249 18.9814 20.8298 18.9767 20.8328 18.9736L20.8367 18.9707L20.8416 18.9649C21.4921 18.3147 22.3749 17.9494 23.2947 17.9492C24.2147 17.9492 25.0981 18.3146 25.7488 18.9649L28.7303 21.9463C29.3834 22.5993 29.7507 23.4847 29.7508 24.4082C29.7508 25.3315 29.3829 26.2162 28.7303 26.8692L28.7312 26.8701L27.1375 28.4698L27.1365 28.4707C26.5289 29.0781 25.5759 29.4812 24.4451 29.6533C23.2993 29.8277 21.9073 29.7762 20.3445 29.4121C17.2144 28.6828 13.3644 26.6939 9.33573 22.666C5.30558 18.6367 3.31563 14.7882 2.5867 11.6592C2.22273 10.0968 2.17156 8.70504 2.34647 7.55958C2.51913 6.42909 2.92335 5.47646 3.53104 4.86914L5.12382 3.27051L5.12479 3.26953C5.7779 2.61666 6.66417 2.25008 7.58768 2.25ZM7.58768 3.75C7.06183 3.75008 6.55715 3.95933 6.18534 4.33106L4.59257 5.92969L4.59159 5.93067C4.2879 6.23422 3.97402 6.84228 3.82987 7.78614C3.68803 8.71504 3.72017 9.91238 4.04764 11.3184C4.70194 14.127 6.52662 17.7366 10.3963 21.6055C14.2643 25.4726 17.8743 27.2964 20.6844 27.9512C22.0913 28.279 23.2899 28.3124 24.2195 28.1709C25.164 28.0271 25.7725 27.7135 26.076 27.4102L27.6687 25.8115L27.6697 25.8106C28.0416 25.4388 28.2508 24.9339 28.2508 24.4082C28.2507 23.8826 28.0415 23.3786 27.6697 23.0069L24.6883 20.0254C24.3188 19.6563 23.817 19.4492 23.2947 19.4492C22.7747 19.4494 22.2749 19.6542 21.906 20.0205V20.0225L21.9021 20.0254C21.8991 20.0285 21.8943 20.0332 21.8885 20.0391C21.8767 20.0511 21.8598 20.0693 21.8377 20.0918C21.7932 20.137 21.7291 20.2021 21.6512 20.2813C21.4952 20.4397 21.2827 20.6552 21.0584 20.8828C20.6111 21.3368 20.1115 21.8434 19.9119 22.043C19.6844 22.2703 19.3759 22.3364 19.2156 22.3633C19.0095 22.3978 18.7725 22.4069 18.5252 22.3985C18.0266 22.3813 17.4035 22.2885 16.7264 22.1035C15.3734 21.7339 13.7259 20.9768 12.3738 19.625C11.0212 18.2726 10.2632 16.6247 9.89335 15.2715C9.70817 14.5939 9.61553 13.9702 9.59843 13.4717C9.58995 13.2244 9.59898 12.9883 9.63358 12.7822C9.66039 12.6227 9.72637 12.3128 9.95585 12.085C10.1539 11.8885 10.6593 11.3897 11.1141 10.9414C11.3416 10.7171 11.5572 10.5047 11.7156 10.3486C11.7947 10.2707 11.8599 10.2066 11.9051 10.1621C11.9276 10.14 11.9458 10.1222 11.9578 10.1104C11.9635 10.1047 11.9684 10.1006 11.9715 10.0977L11.9744 10.0938L11.9754 10.0928C12.1566 9.91085 12.3009 9.69528 12.3992 9.45802C12.4981 9.21935 12.5486 8.96341 12.5486 8.70509C12.5486 8.44665 12.4982 8.18995 12.3992 7.95118C12.3003 7.71271 12.1551 7.49604 11.9725 7.31348L8.99003 4.33106C8.61816 3.95936 8.11356 3.75001 7.58768 3.75ZM22.9998 2.25C26.1754 2.25 28.7498 4.82437 28.7498 8.00001C28.7498 8.89357 28.3549 9.81809 27.8631 10.6426C27.3608 11.4844 26.7018 12.3133 26.0603 13.0342C25.4164 13.7579 24.7742 14.3902 24.2947 14.8408C24.0548 15.0663 23.854 15.2477 23.7127 15.3731C23.6421 15.4357 23.5854 15.485 23.5467 15.5186C23.5274 15.5352 23.5122 15.5487 23.5018 15.5576C23.4969 15.5618 23.4928 15.565 23.49 15.5674L23.4861 15.5703L23.4851 15.5713L22.9998 15.9834L22.5144 15.5723L22.5135 15.5703L22.5096 15.5674C22.5068 15.565 22.5027 15.5618 22.4978 15.5576C22.4874 15.5487 22.4721 15.5352 22.4529 15.5186C22.4142 15.485 22.3575 15.4357 22.2869 15.3731C22.1456 15.2477 21.9448 15.0663 21.7049 14.8408C21.2254 14.3902 20.5832 13.7579 19.9392 13.0342C19.2978 12.3132 18.6388 11.4844 18.1365 10.6426C17.6447 9.81812 17.2498 8.89352 17.2498 8.00001C17.2498 4.82446 19.8243 2.25016 22.9998 2.25ZM22.9998 3.75C20.6527 3.75016 18.7498 5.65289 18.7498 8.00001C18.7498 8.48692 18.9802 9.12738 19.4256 9.87403C19.8607 10.6034 20.4519 11.3533 21.0603 12.0371C21.6661 12.7179 22.2743 13.3178 22.7322 13.7481C22.8279 13.838 22.919 13.9183 22.9998 13.9922C23.0805 13.9183 23.1717 13.838 23.2674 13.7481C23.7252 13.3178 24.3335 12.7179 24.9393 12.0371C25.5477 11.3533 26.1388 10.6034 26.574 9.87403C27.0195 9.12732 27.2498 8.48695 27.2498 8.00001C27.2498 5.65279 25.347 3.75 22.9998 3.75ZM22.9998 5.5C24.3805 5.5 25.4998 6.61929 25.4998 8.00001C25.4998 9.38072 24.3805 10.5 22.9998 10.5C21.6192 10.4999 20.4998 9.38062 20.4998 8.00001C20.4998 6.61939 21.6192 5.50016 22.9998 5.5Z" fill="black"/>
</svg>
