<svg width="32" height="32" viewBox="0 0 32 32" fill="none" xmlns="http://www.w3.org/2000/svg">
<path d="M16 2.25C13.2805 2.25 10.6221 3.05642 8.36092 4.56729C6.09974 6.07816 4.33737 8.22562 3.29666 10.7381C2.25596 13.2506 1.98366 16.0153 2.51421 18.6825C3.04476 21.3497 4.35432 23.7997 6.27729 25.7227C8.20026 27.6457 10.6503 28.9553 13.3175 29.4858C15.9848 30.0163 18.7494 29.744 21.2619 28.7033C23.7744 27.6626 25.9218 25.9003 27.4327 23.6391C28.9436 21.3779 29.75 18.7195 29.75 16C29.7458 12.3546 28.2958 8.85967 25.718 6.28196C23.1403 3.70425 19.6454 2.25423 16 2.25ZM16 28.25C13.5772 28.25 11.2088 27.5315 9.19427 26.1855C7.17977 24.8395 5.60966 22.9263 4.68248 20.6879C3.75531 18.4495 3.51272 15.9864 3.98539 13.6101C4.45806 11.2339 5.62475 9.05114 7.33795 7.33794C9.05114 5.62475 11.2339 4.45805 13.6102 3.98538C15.9864 3.51271 18.4495 3.7553 20.6879 4.68248C22.9263 5.60965 24.8395 7.17976 26.1855 9.19426C27.5316 11.2088 28.25 13.5772 28.25 16C28.2464 19.2478 26.9546 22.3615 24.6581 24.6581C22.3615 26.9546 19.2478 28.2464 16 28.25ZM11.5 14.75C12.1904 14.75 12.75 14.1904 12.75 13.5C12.75 12.8096 12.1904 12.25 11.5 12.25C10.8096 12.25 10.25 12.8096 10.25 13.5C10.25 14.1904 10.8096 14.75 11.5 14.75ZM21.75 13.5C21.75 14.1904 21.1904 14.75 20.5 14.75C19.8097 14.75 19.25 14.1904 19.25 13.5C19.25 12.8096 19.8097 12.25 20.5 12.25C21.1904 12.25 21.75 12.8096 21.75 13.5ZM22.0715 18.2584C22.1429 18.2549 22.1651 18.2539 22.3605 18.3225C22.4831 18.3657 22.5951 18.4306 22.6902 18.5135C22.7853 18.5964 22.8617 18.6957 22.9148 18.8055C22.968 18.9154 22.9969 19.0338 23 19.154C23.0031 19.2741 22.9803 19.3936 22.9328 19.5057C22.3668 20.7609 21.4063 21.8343 20.1731 22.5898C18.9398 23.3454 17.4892 23.7491 16.0049 23.75C14.5206 23.7509 13.0694 23.3488 11.835 22.5947C10.6007 21.8405 9.63877 20.7683 9.07102 19.5137C9.02052 19.4018 8.99483 19.2817 8.99544 19.1606C8.99605 19.0395 9.02296 18.9196 9.07459 18.8081C9.12623 18.6966 9.20156 18.5955 9.29623 18.5108C9.39089 18.4261 9.503 18.3595 9.62605 18.3147C9.7491 18.27 9.88063 18.248 10.013 18.2502C10.1513 18.2516 10.4524 18.3245 10.8814 18.4283C11.9638 18.6903 13.8598 19.1492 16.0049 19.154C17.9063 19.1582 19.4067 18.7969 20.5048 18.5325C21.1364 18.3805 21.6349 18.2605 22 18.2605C22.0301 18.2605 22.0526 18.2594 22.0715 18.2584Z" fill="#0F0F0F"/>
</svg>
