<svg width="32" height="32" viewBox="0 0 32 32" fill="none" xmlns="http://www.w3.org/2000/svg">
<path d="M16 2.5C13.33 2.5 10.7199 3.29176 8.49981 4.77516C6.27974 6.25856 4.54942 8.36697 3.52763 10.8338C2.50585 13.3006 2.2385 16.015 2.7594 18.6337C3.28031 21.2525 4.56606 23.6579 6.45406 25.5459C8.34207 27.434 10.7475 28.7197 13.3663 29.2406C15.985 29.7615 18.6994 29.4942 21.1662 28.4724C23.633 27.4506 25.7414 25.7203 27.2248 23.5002C28.7082 21.2801 29.5 18.67 29.5 16C29.4959 12.4208 28.0723 8.98942 25.5414 6.45856C23.0106 3.9277 19.5792 2.50408 16 2.5ZM10 21C10 20.7348 10.1054 20.4804 10.2929 20.2929C10.4804 20.1054 10.7348 20 11 20H21C21.2652 20 21.5196 20.1054 21.7071 20.2929C21.8946 20.4804 22 20.7348 22 21C22 21.2652 21.8946 21.5196 21.7071 21.7071C21.5196 21.8946 21.2652 22 21 22H11C10.7348 22 10.4804 21.8946 10.2929 21.7071C10.1054 21.5196 10 21.2652 10 21ZM13 13.5C13 13.7967 12.912 14.0867 12.7472 14.3334C12.5824 14.58 12.3481 14.7723 12.074 14.8858C11.7999 14.9994 11.4983 15.0291 11.2074 14.9712C10.9164 14.9133 10.6491 14.7704 10.4393 14.5607C10.2296 14.3509 10.0867 14.0836 10.0288 13.7926C9.97095 13.5017 10.0007 13.2001 10.1142 12.926C10.2277 12.6519 10.42 12.4176 10.6667 12.2528C10.9133 12.088 11.2033 12 11.5 12C11.8978 12 12.2794 12.158 12.5607 12.4393C12.842 12.7206 13 13.1022 13 13.5ZM20.5 15C20.2033 15 19.9133 14.912 19.6667 14.7472C19.42 14.5824 19.2277 14.3481 19.1142 14.074C19.0007 13.7999 18.9709 13.4983 19.0288 13.2074C19.0867 12.9164 19.2296 12.6491 19.4393 12.4393C19.6491 12.2296 19.9164 12.0867 20.2074 12.0288C20.4983 11.9709 20.7999 12.0006 21.074 12.1142C21.3481 12.2277 21.5824 12.42 21.7472 12.6666C21.912 12.9133 22 13.2033 22 13.5C22 13.8978 21.842 14.2794 21.5607 14.5607C21.2794 14.842 20.8978 15 20.5 15Z" fill="#0F0F0F"/>
</svg>
