<svg width="32" height="32" viewBox="0 0 32 32" fill="none" xmlns="http://www.w3.org/2000/svg">
<path d="M16.001 1.49628C24.0118 1.49628 30.5058 7.98982 30.5059 16.0002C30.5058 19.536 29.2393 22.7754 27.1367 25.2922C27.3654 24.9147 27.5 24.4737 27.5 24.0002V20.9182C28.1466 19.4085 28.5058 17.7464 28.5059 16.0002C28.5058 13.9474 28.0076 12.0119 27.1309 10.3029C27.1788 10.225 27.2243 10.1448 27.2637 10.0607C27.6749 9.18245 27.5416 8.14471 26.9209 7.3996L25.2539 5.3996C24.4108 4.38812 22.9385 4.21232 21.8838 4.96503C20.1302 4.02841 18.1279 3.49628 16.001 3.49628C9.09467 3.49634 3.49614 9.09457 3.49609 16.0002C3.4962 22.9058 9.0947 28.504 16.001 28.5041C18.5034 28.5041 20.8322 27.7661 22.7871 26.5002H25C25.5797 26.5002 26.1111 26.3001 26.5352 25.9689C23.8914 28.7614 20.15 30.5041 16.001 30.5041C7.99027 30.504 1.4962 24.0105 1.49609 16.0002C1.49614 7.98986 7.99024 1.49634 16.001 1.49628Z" fill="#0F0F0F"/>
<path d="M16 6.00018C16.9971 6.00021 17.9474 6.30142 18.9141 6.75018C18.2669 7.06321 17.7762 7.64533 17.5869 8.35272C16.9849 8.11405 16.4779 8.0002 16 8.00018C15.2497 8.00018 14.427 8.28043 13.2783 8.88495C12.2043 9.45019 11.0342 10.1854 9.45605 11.0998C9.13993 16.0094 10.8478 19.2151 12.6221 21.2111C13.5489 22.2537 14.5055 22.9781 15.2266 23.4396C15.5361 23.6377 15.802 23.7841 16 23.8879C16.198 23.7841 16.4639 23.6377 16.7734 23.4396C16.9961 23.2971 17.2402 23.1281 17.5 22.9338V24.0002C17.5 24.4199 17.6043 24.815 17.7871 25.1623C17.3934 25.4112 17.06 25.5961 16.8164 25.7199C16.6883 25.785 16.5847 25.8336 16.5107 25.8674C16.4737 25.8843 16.4437 25.898 16.4219 25.9074C16.4111 25.9121 16.4024 25.9162 16.3955 25.9191C16.3923 25.9205 16.389 25.9211 16.3867 25.9221L16.3828 25.924L16 25.0002L16.3809 25.925C16.137 26.0254 15.863 26.0254 15.6191 25.925L16 25.0002L15.6182 25.924H15.6162L15.6133 25.9221C15.6109 25.9211 15.6078 25.9205 15.6045 25.9191C15.5977 25.9162 15.5889 25.9121 15.5781 25.9074C15.5563 25.898 15.5263 25.8843 15.4893 25.8674C15.4153 25.8336 15.3117 25.785 15.1836 25.7199C14.927 25.5895 14.5697 25.3929 14.1484 25.1232C13.3071 24.5848 12.201 23.7464 11.1279 22.5392C8.9628 20.1035 6.97678 16.2109 7.50391 10.4094C7.53356 10.0842 7.72044 9.79404 8.00391 9.63202C9.68673 8.67039 11.1479 7.74634 12.3467 7.11542C13.5729 6.47009 14.7504 6.00018 16 6.00018Z" fill="#0F0F0F"/>
<path d="M22.5 16.0002C23.8807 16.0002 25 17.1195 25 18.5002V19.0002L25.1025 19.0051C25.6067 19.0564 26 19.4825 26 20.0002V24.0002C25.9999 24.5524 25.5522 25.0002 25 25.0002H20C19.4478 25.0002 19.0001 24.5524 19 24.0002V20.0002C19 19.4825 19.3933 19.0564 19.8975 19.0051L20 19.0002V18.5002C20 17.1195 21.1193 16.0002 22.5 16.0002ZM21 23.0002H24V21.0002H21V23.0002ZM22.5 18.0002C22.2239 18.0002 22 18.224 22 18.5002V19.0002H23V18.5002C23 18.224 22.7761 18.0002 22.5 18.0002Z" fill="#0F0F0F"/>
<path d="M16 9.50018C16.6535 9.50018 17.1854 9.67513 17.6797 9.92499C17.7622 10.1306 17.8699 10.3236 18.001 10.4982C17.899 10.634 17.8102 10.782 17.7363 10.9396C17.5566 11.3235 17.4794 11.7378 17.5029 12.1447C17.3668 12.0573 17.2465 11.9783 17.1406 11.9142C16.6168 11.5971 16.3366 11.5002 16 11.5002C15.6634 11.5002 15.3832 11.597 14.8594 11.9142C14.4453 12.165 13.7939 12.6138 12.9561 13.1047C12.8377 15.4807 13.6748 17.1959 14.5635 18.3439C15.043 18.9634 15.5402 19.4194 15.9141 19.718C15.9431 19.7412 15.9726 19.7621 16 19.7834C16.0276 19.762 16.0577 19.7413 16.0869 19.718C16.4609 19.4194 16.9579 18.9633 17.4375 18.3439C18.1164 17.4671 18.762 16.2591 18.9775 14.6789L19.7451 15.5998C19.0974 16.2153 18.6558 17.0457 18.5342 17.9767C17.9082 18.4311 17.5 19.1675 17.5 20.0002V21.1408C17.4422 21.1891 17.3881 21.2372 17.334 21.2805C17.0982 21.4687 16.8972 21.6109 16.751 21.7082C16.6778 21.7569 16.6178 21.7947 16.5742 21.8215C16.5526 21.8348 16.535 21.8458 16.5215 21.8537C16.5148 21.8577 16.5085 21.8608 16.5039 21.8635C16.5017 21.8647 16.498 21.8674 16.498 21.8674L16.4961 21.8683L16.4951 21.8693C16.4951 21.8693 16.4866 21.8567 16 21.0002L16.4951 21.8693C16.1888 22.0433 15.8122 22.0433 15.5059 21.8693L16 21.0002C15.5133 21.8567 15.5059 21.8693 15.5059 21.8693L15.502 21.8674C15.502 21.8674 15.4974 21.8648 15.4951 21.8635C15.4906 21.8609 15.485 21.8575 15.4785 21.8537C15.4651 21.8458 15.4475 21.8348 15.4258 21.8215C15.3822 21.7947 15.3222 21.7569 15.249 21.7082C15.1029 21.6109 14.9018 21.4688 14.666 21.2805C14.1952 20.9045 13.5776 20.3386 12.9814 19.5685C11.7801 18.0166 10.6713 15.6415 11.0059 12.3976L11.0254 12.2775C11.0882 12.0023 11.2654 11.7639 11.5156 11.6252C12.5723 11.0398 13.1466 10.6131 13.8232 10.2033C14.4649 9.81469 15.123 9.50018 16 9.50018Z" fill="#0F0F0F"/>
<path d="M25 11.0002C25.5523 11.0002 26 11.4479 26 12.0002C26 12.5524 25.5523 13.0002 25 13.0002H22.1348L22.4346 13.3596C22.7881 13.7838 22.7309 14.4152 22.3066 14.7687C21.8825 15.1219 21.252 15.0647 20.8984 14.6408L19.2314 12.6408C18.9831 12.3428 18.9303 11.9277 19.0947 11.5764C19.2593 11.225 19.612 11.0002 20 11.0002H25Z" fill="#0F0F0F"/>
<path d="M24.3789 14.9689C24.2655 14.9084 24.1489 14.8534 24.0293 14.8039C24.0631 14.7039 24.0933 14.6031 24.1143 14.5002H24.4453C24.4255 14.6584 24.4027 14.8145 24.3789 14.9689Z" fill="#0F0F0F"/>
<path d="M22.6934 6.23163C23.1175 5.87842 23.748 5.93563 24.1016 6.35956L25.7686 8.35956C26.0169 8.65759 26.0697 9.07268 25.9053 9.42401C25.7407 9.77535 25.388 10.0002 25 10.0002H20C19.4477 10.0002 19 9.55243 19 9.00018C19 8.44791 19.4477 8.00018 20 8.00018H22.8652L22.5654 7.64081C22.2119 7.21655 22.2691 6.58519 22.6934 6.23163Z" fill="#0F0F0F"/>
</svg>
