<svg width="32" height="32" viewBox="0 0 32 32" fill="none" xmlns="http://www.w3.org/2000/svg">
<path d="M16.0422 3C16.7379 3 17.4457 3.21443 18.1379 3.50977C18.837 3.80812 19.5998 4.22481 20.4172 4.69629C21.8693 5.53393 23.5435 6.57258 25.59 7.64453L26.4904 8.10547L26.6066 8.17383C26.8636 8.34908 27.027 8.6363 27.0422 8.95215C27.2989 14.3412 26.4027 18.4129 24.5402 21.7383C22.6837 25.0524 19.9186 27.5324 16.6115 29.8223C16.2691 30.0588 15.815 30.0592 15.4728 29.8223C12.1657 27.5324 9.40124 25.0525 7.54509 21.7383C5.6828 18.4129 4.78639 14.3412 5.04313 8.95215L5.05876 8.81934C5.11494 8.51328 5.31219 8.24717 5.59489 8.10547C8.0588 6.87351 10.0079 5.65357 11.6672 4.69629C12.4843 4.22485 13.2475 3.80818 13.9465 3.50977C14.6385 3.21437 15.3464 3.00019 16.0422 3ZM16.0422 5C15.7383 5.0002 15.3199 5.09852 14.7316 5.34961C14.1498 5.59802 13.4741 5.96314 12.6672 6.42871C11.1897 7.28113 9.31199 8.44366 7.02067 9.62109C6.86585 14.435 7.71435 17.9479 9.2902 20.7617C10.835 23.5199 13.1238 25.6909 16.0422 27.7764C18.9607 25.6909 21.25 23.5198 22.7951 20.7617C24.3712 17.9478 25.2185 14.4351 25.0636 9.62109C22.7726 8.44373 20.8956 7.28099 19.4181 6.42871C18.6107 5.96299 17.9347 5.598 17.3527 5.34961C16.7641 5.0985 16.346 5 16.0422 5ZM16.0422 7C16.5668 7.00006 17.1312 7.20406 17.6174 7.42578C18.135 7.66193 18.7021 7.98386 19.2707 8.33887C20.1247 8.87221 21.0301 9.51031 21.8527 10.1133L22.6427 10.7002L22.7287 10.7715C22.9178 10.9494 23.0311 11.1956 23.0422 11.458C23.1966 15.1475 22.653 17.8233 21.4933 20C20.3405 22.1634 18.6298 23.7339 16.6613 25.2852C16.2983 25.5707 15.7858 25.5711 15.423 25.2852C13.4543 23.7337 11.7433 22.1637 10.591 20C9.43186 17.8233 8.88872 15.1472 9.04313 11.458L9.05485 11.3467C9.09459 11.0906 9.23307 10.8577 9.44255 10.7002C10.4462 9.94763 11.6764 9.05104 12.8146 8.33984C13.3827 7.98492 13.9496 7.66199 14.467 7.42578C14.9528 7.20406 15.5175 7.00023 16.0422 7ZM16.0422 9C15.9688 9.00037 15.7333 9.04696 15.297 9.24609C14.8906 9.4317 14.4057 9.70308 13.8742 10.0352C12.9459 10.6152 11.9331 11.3415 11.0275 12.0137C10.9476 15.2031 11.4562 17.3686 12.3566 19.0596C13.2021 20.6471 14.4339 21.8981 16.0412 23.2158C17.649 21.8978 18.8816 20.6473 19.7277 19.0596C20.6286 17.3687 21.1376 15.2037 21.0578 12.0146C20.1523 11.3425 19.1398 10.6161 18.2111 10.0361C17.679 9.7039 17.1941 9.4317 16.7873 9.24609C16.3498 9.04658 16.1149 9.0001 16.0422 9Z" fill="black"/>
</svg>
