<svg width="32" height="32" viewBox="0 0 32 32" fill="none" xmlns="http://www.w3.org/2000/svg">
<path d="M16.001 1.49609C24.0118 1.49609 30.5058 7.98964 30.5059 16C30.5059 24.0104 24.0118 30.5039 16.001 30.5039C7.99021 30.5038 1.49609 24.0104 1.49609 16C1.49614 7.98967 7.99024 1.49616 16.001 1.49609ZM16 6C14.7505 6 13.5729 6.46994 12.3467 7.11523C11.1479 7.74614 9.68671 8.67022 8.00391 9.63184C7.7204 9.79384 7.53357 10.084 7.50391 10.4092C6.97672 16.2108 8.96278 20.1033 11.1279 22.5391C12.201 23.7462 13.3071 24.5846 14.1484 25.123C14.5697 25.3927 14.927 25.5893 15.1836 25.7197C15.3117 25.7848 15.4153 25.8334 15.4893 25.8672C15.5262 25.8841 15.5563 25.8978 15.5781 25.9072C15.5888 25.9119 15.5977 25.9161 15.6045 25.9189C15.6077 25.9203 15.611 25.9209 15.6133 25.9219L15.6162 25.9238H15.6182L16 25L15.6191 25.9248C15.863 26.0251 16.137 26.0252 16.3809 25.9248L16 25L16.3818 25.9238L16.3867 25.9219C16.389 25.9209 16.3923 25.9203 16.3955 25.9189C16.4024 25.916 16.4112 25.9119 16.4219 25.9072C16.4437 25.8978 16.4738 25.8841 16.5107 25.8672C16.5848 25.8334 16.6884 25.7848 16.8164 25.7197C17.073 25.5893 17.4303 25.3927 17.8516 25.123C18.6929 24.5846 19.7991 23.7462 20.8721 22.5391C22.4824 20.7273 23.9935 18.1096 24.4453 14.5H24.1143C24.0049 15.0369 23.7212 15.5428 23.2676 15.9209C22.8915 16.2343 22.45 16.4156 21.998 16.4756C21.3941 18.5161 20.3978 20.0636 19.3779 21.2109C18.4511 22.2536 17.4946 22.9779 16.7734 23.4395C16.4639 23.6375 16.198 23.7839 16 23.8877C15.802 23.7839 15.5361 23.6375 15.2266 23.4395C14.5055 22.9779 13.5489 22.2535 12.6221 21.2109C10.8478 19.2149 9.13987 16.0093 9.45605 11.0996C11.0342 10.1852 12.2043 9.45 13.2783 8.88477C14.427 8.2803 15.2497 8 16 8C16.4778 8.00005 16.9849 8.11388 17.5869 8.35254C17.7763 7.64522 18.2669 7.06297 18.9141 6.75C17.9474 6.30126 16.997 6.00006 16 6ZM16 9.5C15.123 9.5 14.4648 9.81454 13.8232 10.2031C13.1466 10.6129 12.5723 11.0397 11.5156 11.625C11.2653 11.7637 11.0882 12.0021 11.0254 12.2773L11.0059 12.3975C10.6712 15.6414 11.78 18.0163 12.9814 19.5684C13.5776 20.3384 14.1952 20.9043 14.666 21.2803C14.9018 21.4686 15.1029 21.6107 15.249 21.708C15.3221 21.7567 15.3822 21.7946 15.4258 21.8213C15.4474 21.8346 15.4651 21.8456 15.4785 21.8535C15.485 21.8573 15.4907 21.8607 15.4951 21.8633C15.4974 21.8646 15.502 21.8672 15.502 21.8672L15.5039 21.8682L15.5049 21.8691C15.5064 21.8675 15.5294 21.8282 16 21L15.5049 21.8691C15.8112 22.0431 16.1878 22.0432 16.4941 21.8691L16.498 21.8672C16.498 21.8672 16.5018 21.8645 16.5039 21.8633C16.5085 21.8607 16.5148 21.8575 16.5215 21.8535C16.535 21.8456 16.5526 21.8346 16.5742 21.8213C16.6178 21.7946 16.6779 21.7567 16.751 21.708C16.8972 21.6107 17.0982 21.4685 17.334 21.2803C17.8049 20.9043 18.4224 20.3384 19.0186 19.5684C19.6727 18.7235 20.2963 17.6339 20.6777 16.2939C20.328 16.1435 20.0065 15.913 19.7461 15.6006L18.0791 13.6006C17.4583 12.8554 17.325 11.8178 17.7363 10.9395C17.8102 10.7818 17.8989 10.6339 18.001 10.498C17.8699 10.3234 17.7622 10.1305 17.6797 9.9248C17.1854 9.67497 16.6534 9.50003 16 9.5ZM20 11C19.612 11 19.2593 11.2249 19.0947 11.5762C18.9303 11.9275 18.9832 12.3426 19.2314 12.6406L20.8984 14.6406C21.252 15.0645 21.8825 15.1218 22.3066 14.7686C22.7308 14.415 22.7881 13.7836 22.4346 13.3594L22.1348 13H25C25.5523 13 26 12.5523 26 12C25.9999 11.4478 25.5522 11 25 11H20ZM24.1016 6.35938C23.748 5.93554 23.1175 5.87831 22.6934 6.23145C22.2691 6.58499 22.212 7.21636 22.5654 7.64062L22.8652 8H20C19.4478 8 19.0001 8.44779 19 9C19 9.55227 19.4477 10 20 10H25C25.388 10 25.7407 9.77519 25.9053 9.42383C26.0697 9.07251 26.0169 8.65738 25.7686 8.35938L24.1016 6.35938Z" fill="black"/>
</svg>
