<svg width="32" height="32" viewBox="0 0 32 32" fill="none" xmlns="http://www.w3.org/2000/svg">
<path d="M15.9992 2.50029C16.695 2.50029 17.4027 2.71469 18.0949 3.01006C18.6114 3.2305 19.163 3.51521 19.7453 3.83916C19.148 4.1869 18.7071 4.77399 18.5568 5.47002C18.0956 5.21852 17.6836 5.00945 17.3097 4.8499C16.7211 4.59875 16.3031 4.50029 15.9992 4.50029C15.6953 4.50046 15.277 4.59877 14.6886 4.8499C14.1068 5.09831 13.4312 5.4634 12.6242 5.929C11.1467 6.78143 9.26908 7.94392 6.97771 9.12138C6.82288 13.9353 7.67137 17.4482 9.24724 20.262C10.7921 23.0202 13.0808 25.1912 15.9992 27.2767C18.9177 25.1912 21.207 23.0202 22.7521 20.262C23.5382 18.8586 24.1428 17.281 24.5324 15.4554C25.2835 15.5978 26.0853 15.3921 26.6857 14.8421C26.2818 17.2757 25.5413 19.3745 24.4972 21.2386C22.6408 24.5527 19.8756 27.0327 16.5685 29.3226C16.2261 29.5592 15.7721 29.5595 15.4299 29.3226C12.1227 27.0326 9.35829 24.5529 7.50212 21.2386C5.63982 17.9132 4.74342 13.8415 5.00017 8.45244L5.01579 8.31963C5.07198 8.01352 5.26915 7.74744 5.55192 7.60576C8.0159 6.37377 9.96495 5.15387 11.6242 4.19658C12.4414 3.72511 13.2045 3.30848 13.9035 3.01006C14.5956 2.71464 15.3034 2.50045 15.9992 2.50029Z" fill="black"/>
<path d="M15.9992 6.50029C16.5239 6.50035 17.0882 6.70433 17.5744 6.92607C17.9932 7.11715 18.4444 7.36451 18.9025 7.63994C18.8207 7.76597 18.7495 7.90112 18.6906 8.04326C18.4478 8.62977 18.4415 9.27232 18.6476 9.84599C18.4857 9.73983 18.3262 9.63511 18.1681 9.53642C17.636 9.20416 17.1512 8.932 16.7443 8.74638C16.3068 8.54682 16.0719 8.50039 15.9992 8.50029C15.926 8.50059 15.6907 8.5471 15.2541 8.74638C14.8476 8.93199 14.3628 9.20333 13.8312 9.53545C12.9029 10.1155 11.8901 10.8417 10.9845 11.514C10.9046 14.7034 11.4132 16.8689 12.3136 18.5599C13.1591 20.1474 14.3909 21.3984 15.9982 22.7161C17.606 21.3981 18.8386 20.1476 19.6847 18.5599C20.4842 17.0594 20.9741 15.1855 21.0187 12.554L22.9103 14.4456C22.7018 16.4396 22.2087 18.0769 21.4504 19.5003C20.2975 21.6637 18.5868 23.2341 16.6183 24.7854C16.2553 25.0711 15.7429 25.0714 15.38 24.7854C13.4113 23.2339 11.7004 21.664 10.548 19.5003C9.38889 17.3236 8.84575 14.6475 9.00017 10.9583L9.01188 10.847C9.05163 10.5908 9.19004 10.358 9.39958 10.2005C10.4033 9.4479 11.6334 8.55134 12.7717 7.84013C13.3398 7.48518 13.9066 7.16228 14.424 6.92607C14.9099 6.70433 15.4745 6.50047 15.9992 6.50029Z" fill="black"/>
<path d="M29.0002 8.00029C29.5525 8.00029 30.0002 8.44801 30.0002 9.00029C30 9.55239 29.5523 10.0003 29.0002 10.0003H23.4142L25.7072 12.2933C26.0975 12.6838 26.0977 13.3169 25.7072 13.7073C25.3167 14.0976 24.6836 14.0976 24.2931 13.7073L20.2931 9.70732C20.0072 9.42141 19.9217 8.99107 20.0763 8.61748C20.2311 8.24388 20.5957 8.00029 21.0002 8.00029H29.0002Z" fill="black"/>
<path d="M27.0138 11.5267C27.0076 11.5182 27.0026 11.5087 26.9963 11.5003H27.0158C27.0154 11.509 27.0142 11.5179 27.0138 11.5267Z" fill="black"/>
<path d="M24.2931 1.29326C24.6837 0.902735 25.3167 0.902735 25.7072 1.29326L29.7072 5.29326C29.993 5.57926 30.0787 6.00952 29.924 6.3831C29.7691 6.75651 29.4045 7.00029 29.0002 7.00029H21.0002C20.448 7.00029 20.0004 6.55239 20.0002 6.00029C20.0002 5.44801 20.4479 5.00029 21.0002 5.00029H26.5861L24.2931 2.70732C23.9027 2.31686 23.9028 1.6838 24.2931 1.29326Z" fill="black"/>
</svg>
