<svg width="32" height="32" viewBox="0 0 32 32" fill="none" xmlns="http://www.w3.org/2000/svg">
<path d="M25.0024 18.5003C25.6653 18.5004 26.3012 18.764 26.7699 19.2328C27.2385 19.7015 27.5024 20.3374 27.5024 21.0003V22.4955H28.0024C28.8306 22.4957 29.5024 23.1672 29.5024 23.9955V27.9955C29.5021 28.8235 28.8304 29.4952 28.0024 29.4955H22.0024C21.1741 29.4955 20.5026 28.8237 20.5024 27.9955V23.9955C20.5024 23.167 21.1739 22.4955 22.0024 22.4955H22.5024V21.0003C22.5024 20.3373 22.766 19.7016 23.2348 19.2328C23.7036 18.764 24.3393 18.5003 25.0024 18.5003ZM22.0024 23.4955C21.7262 23.4955 21.5024 23.7193 21.5024 23.9955V27.9955C21.5026 28.2714 21.7264 28.4955 22.0024 28.4955H28.0024C28.2782 28.4952 28.5021 28.2713 28.5024 27.9955V23.9955C28.5024 23.7194 28.2783 23.4957 28.0024 23.4955H27.0483C27.0332 23.4968 27.0178 23.5003 27.0024 23.5003H23.0024C22.9869 23.5003 22.9715 23.4969 22.9565 23.4955H22.0024ZM25.0024 19.5003C24.6046 19.5003 24.2231 19.6585 23.9418 19.9398C23.6605 20.2211 23.5024 20.6026 23.5024 21.0003V22.4955H26.5024V21.0003C26.5024 20.6027 26.344 20.2211 26.0629 19.9398C25.7817 19.6586 25.4 19.5004 25.0024 19.5003Z" fill="#0F0F0F"/>
<path d="M16.0014 3.00034C16.5992 3.00045 17.2345 3.18572 17.9008 3.47007C18.5705 3.75593 19.3117 4.15931 20.1264 4.62925C20.1677 4.65306 20.2087 4.67832 20.2504 4.70249C19.9515 4.87598 19.7191 5.14991 19.5971 5.47788C18.8001 5.01875 18.1119 4.64767 17.5082 4.38999C16.8937 4.12776 16.4032 4.00045 16.0014 4.00034C15.5995 4.00035 15.1091 4.12773 14.4945 4.38999C13.8834 4.65085 13.186 5.02836 12.3764 5.49546C10.8257 6.39008 8.88435 7.59672 6.48966 8.81089C6.28783 13.844 7.15036 17.5376 8.8129 20.5062C10.4596 23.4461 12.9152 25.7196 16.0014 27.889C17.2814 26.9892 18.4518 26.0698 19.5024 25.0941V26.4388C18.5104 27.3 17.4349 28.1163 16.2865 28.9115C16.1156 29.0298 15.8883 29.0294 15.7172 28.9115C12.4389 26.6416 9.74402 24.2139 7.94083 20.9945C6.13462 17.7694 5.24899 13.7962 5.50235 8.4769L5.51016 8.40952C5.53845 8.2567 5.63646 8.12377 5.77774 8.05307C8.25954 6.81215 10.2343 5.57758 11.8764 4.63022C12.6912 4.16015 13.4322 3.75596 14.102 3.47007C14.7683 3.18569 15.4035 3.00035 16.0014 3.00034Z" fill="#0F0F0F"/>
<path d="M16.0014 7.00034C16.4131 7.00055 16.8954 7.16491 17.3695 7.3812C17.8594 7.60473 18.4051 7.91481 18.9643 8.26401C19.1561 8.38379 19.3504 8.50993 19.5463 8.63901C19.4211 9.14399 19.5664 9.68544 19.9418 10.0609L20.1381 10.2572C19.5691 9.85327 18.9884 9.45727 18.435 9.11167C17.8941 8.77389 17.3889 8.48962 16.9545 8.29136C16.5048 8.08619 16.1871 8.00058 16.0014 8.00034C15.8159 8.00034 15.4981 8.08605 15.0483 8.29136C14.6141 8.48956 14.1094 8.77388 13.5688 9.11167C12.5559 9.74447 11.4499 10.5434 10.4936 11.2572C10.3794 14.6387 10.8989 16.9635 11.8744 18.7953C12.8214 20.5731 14.2224 21.9308 16.0014 23.3578C17.7802 21.931 19.181 20.573 20.1283 18.7953C21.0673 17.0328 21.581 14.8136 21.517 11.6361L22.5199 12.639C22.4653 15.4193 21.9405 17.5205 21.0111 19.265C19.9086 21.334 18.2658 22.8524 16.3109 24.3929C16.1296 24.5357 15.8732 24.5355 15.6918 24.3929C13.7368 22.8522 12.0937 21.3342 10.9916 19.265C9.88631 17.1893 9.35052 14.6089 9.50235 10.9798L9.51895 10.8695C9.54785 10.763 9.6117 10.6674 9.70157 10.5999C10.7035 9.84869 11.9193 8.9633 13.0385 8.26401C13.5976 7.91469 14.1435 7.60474 14.6332 7.3812C15.1073 7.16485 15.5896 7.00034 16.0014 7.00034Z" fill="#0F0F0F"/>
<path d="M26.3471 13.6615C26.1805 15.0612 25.9076 16.3482 25.5375 17.5414C25.3616 17.5141 25.1826 17.5004 25.0024 17.5003C24.8292 17.5003 24.6569 17.5123 24.4877 17.5374C24.7985 16.5908 25.0456 15.5765 25.2211 14.4818C25.5288 14.4365 25.826 14.2977 26.0629 14.0609C26.1825 13.9412 26.2763 13.8053 26.3471 13.6615Z" fill="#0F0F0F"/>
<path d="M29.0024 8.50034C29.2783 8.50055 29.5024 8.72433 29.5024 9.00034C29.5021 9.27616 29.2782 9.50013 29.0024 9.50034H22.2094L25.3559 12.6468C25.5507 12.8421 25.5509 13.1587 25.3559 13.3539C25.1607 13.5489 24.8441 13.5487 24.6488 13.3539L20.6488 9.35386C20.5059 9.21091 20.4632 8.99572 20.5404 8.80893C20.6178 8.62213 20.8001 8.50034 21.0024 8.50034H29.0024Z" fill="#0F0F0F"/>
<path d="M26.5414 10.5003C26.5353 11.2311 26.5019 11.9346 26.4486 12.6126C26.3829 12.3666 26.2559 12.1329 26.0629 11.9398L25.519 11.3958C25.53 11.1026 25.5369 10.8039 25.5395 10.5003H26.5414Z" fill="#0F0F0F"/>
<path d="M24.6488 1.64682C24.8441 1.45163 25.1606 1.45159 25.3559 1.64682L29.3559 5.64682C29.4985 5.78982 29.5416 6.00509 29.4643 6.19175C29.3869 6.3783 29.2043 6.50018 29.0024 6.50034H21.0024C20.7263 6.50034 20.5026 6.27629 20.5024 6.00034C20.5024 5.7242 20.7262 5.50034 21.0024 5.50034H27.7953L24.6488 2.35386C24.4536 2.15862 24.4537 1.84209 24.6488 1.64682Z" fill="#0F0F0F"/>
</svg>
