<svg width="32" height="32" viewBox="0 0 32 32" fill="none" xmlns="http://www.w3.org/2000/svg">
<path d="M16 9.50018C16.8768 9.50018 17.535 9.81477 18.1768 10.2033C18.7693 10.5621 19.283 10.9338 20.1104 11.4133L20.4854 11.6252L20.5879 11.6906C20.8164 11.8564 20.9658 12.113 20.9951 12.3976C21.3297 15.6415 20.2202 18.0166 19.0186 19.5685C18.4223 20.3385 17.8049 20.9045 17.334 21.2805C17.0982 21.4687 16.8972 21.6109 16.751 21.7082C16.6778 21.7569 16.6178 21.7947 16.5742 21.8215C16.5526 21.8348 16.535 21.8458 16.5215 21.8537C16.5148 21.8577 16.5085 21.8608 16.5039 21.8635C16.5017 21.8647 16.498 21.8674 16.498 21.8674L16.4961 21.8683L16.4951 21.8693C16.4951 21.8693 16.4866 21.8567 16 21.0002L16.4951 21.8693C16.1888 22.0433 15.8122 22.0433 15.5059 21.8693L16 21.0002C15.5133 21.8567 15.5059 21.8693 15.5059 21.8693L15.502 21.8674C15.502 21.8674 15.4974 21.8648 15.4951 21.8635C15.4906 21.8609 15.485 21.8575 15.4785 21.8537C15.4651 21.8458 15.4475 21.8348 15.4258 21.8215C15.3822 21.7947 15.3222 21.7569 15.249 21.7082C15.1029 21.6109 14.9018 21.4688 14.666 21.2805C14.1952 20.9045 13.5776 20.3386 12.9814 19.5685C11.7801 18.0166 10.6713 15.6415 11.0059 12.3976L11.0254 12.2775C11.0882 12.0023 11.2654 11.7639 11.5156 11.6252C12.5723 11.0398 13.1466 10.6131 13.8232 10.2033C14.4649 9.81469 15.123 9.50018 16 9.50018ZM16 11.5002C15.6634 11.5002 15.3832 11.597 14.8594 11.9142C14.4453 12.165 13.7939 12.6138 12.9561 13.1047C12.8377 15.4807 13.6748 17.1959 14.5635 18.3439C15.043 18.9634 15.5402 19.4194 15.9141 19.718C15.9431 19.7412 15.9726 19.7621 16 19.7834C16.0276 19.762 16.0577 19.7413 16.0869 19.718C16.4609 19.4194 16.9579 18.9633 17.4375 18.3439C18.3264 17.1959 19.1622 15.4806 19.0439 13.1047C18.2065 12.614 17.5545 12.1648 17.1406 11.9142C16.6168 11.5971 16.3366 11.5002 16 11.5002Z" fill="#0F0F0F"/>
<path d="M16 6.00018C17.2496 6.00021 18.4272 6.47008 19.6533 7.11542C20.5524 7.58866 21.5992 8.22686 22.7764 8.92206L23.9961 9.63202L24.0977 9.69843C24.3237 9.86697 24.4702 10.1248 24.4961 10.4094C25.0236 16.2108 23.0372 20.1035 20.8721 22.5392C19.7991 23.7464 18.6929 24.5848 17.8516 25.1232C17.4303 25.3929 17.073 25.5895 16.8164 25.7199C16.6883 25.785 16.5847 25.8336 16.5107 25.8674C16.4737 25.8843 16.4437 25.898 16.4219 25.9074C16.4111 25.9121 16.4024 25.9162 16.3955 25.9191C16.3923 25.9205 16.389 25.9211 16.3867 25.9221L16.3828 25.924L16 25.0002L16.3809 25.925C16.137 26.0254 15.863 26.0254 15.6191 25.925L16 25.0002L15.6182 25.924H15.6162L15.6133 25.9221C15.6109 25.9211 15.6078 25.9205 15.6045 25.9191C15.5977 25.9162 15.5889 25.9121 15.5781 25.9074C15.5563 25.898 15.5263 25.8843 15.4893 25.8674C15.4153 25.8336 15.3117 25.785 15.1836 25.7199C14.927 25.5895 14.5697 25.3929 14.1484 25.1232C13.3071 24.5848 12.201 23.7464 11.1279 22.5392C8.9628 20.1035 6.97678 16.2109 7.50391 10.4094C7.53356 10.0842 7.72044 9.79404 8.00391 9.63202C9.68673 8.67039 11.1479 7.74634 12.3467 7.11542C13.5729 6.47009 14.7504 6.00018 16 6.00018ZM16 8.00018C15.2497 8.00018 14.427 8.28043 13.2783 8.88495C12.2043 9.45019 11.0342 10.1854 9.45605 11.0998C9.13993 16.0094 10.8478 19.2151 12.6221 21.2111C13.5489 22.2537 14.5055 22.9781 15.2266 23.4396C15.5361 23.6377 15.802 23.7841 16 23.8879C16.198 23.7841 16.4639 23.6377 16.7734 23.4396C17.4946 22.9781 18.4511 22.2537 19.3779 21.2111C21.1522 19.2151 22.8594 16.0094 22.543 11.0998C20.9649 10.1854 19.7956 9.45019 18.7217 8.88495C17.5729 8.28033 16.7504 8.00021 16 8.00018Z" fill="#0F0F0F"/>
<path d="M16.001 1.49628C24.0118 1.49628 30.5058 7.98982 30.5059 16.0002C30.5058 24.0105 24.0117 30.5041 16.001 30.5041C7.99027 30.504 1.4962 24.0105 1.49609 16.0002C1.49614 7.98986 7.99024 1.49634 16.001 1.49628ZM16.001 3.49628C9.09467 3.49634 3.49614 9.09457 3.49609 16.0002C3.4962 22.9058 9.0947 28.504 16.001 28.5041C22.9073 28.5041 28.5058 22.9058 28.5059 16.0002C28.5058 9.09453 22.9073 3.49628 16.001 3.49628Z" fill="#0F0F0F"/>
</svg>
