<svg width="32" height="32" viewBox="0 0 32 32" fill="none" xmlns="http://www.w3.org/2000/svg">
<path d="M16.001 1.99609C23.7357 1.99609 30.0058 8.26581 30.0059 16C30.0059 19.5698 28.6688 22.8265 26.4697 25.2998C26.4894 25.2029 26.5 25.1027 26.5 25V23.6729C28.0748 21.5219 29.0059 18.87 29.0059 16C29.0058 8.81817 23.1834 2.99609 16.001 2.99609C8.81856 2.99616 2.99614 8.81821 2.99609 16C2.99609 23.1818 8.81853 29.0038 16.001 29.0039C18.8704 29.0039 21.5221 28.0739 23.6729 26.5H25C25.1027 26.5 25.2029 26.4894 25.2998 26.4697C22.8265 28.6677 19.5702 30.0039 16.001 30.0039C8.26632 30.0038 1.99609 23.7342 1.99609 16C1.99614 8.26585 8.26635 1.99616 16.001 1.99609Z" fill="black"/>
<path d="M16 6.5C17.1247 6.50003 18.2132 6.92252 19.4199 7.55762C20.3148 8.02863 21.3366 8.65234 22.5156 9.34863L23.748 10.0654L23.8447 10.1377C23.9315 10.2203 23.987 10.3331 23.998 10.4551C24.2165 12.8581 23.9913 14.9185 23.502 16.6738C23.1916 16.5638 22.8585 16.5012 22.5107 16.5C22.9695 14.8972 23.1942 13.0102 23.0215 10.7998C21.3531 9.83938 20.0843 9.03724 18.9541 8.44238C17.7862 7.82769 16.8751 7.50003 16 7.5C15.1248 7.5 14.2132 7.82756 13.0449 8.44238C11.9144 9.03739 10.6456 9.84004 8.97656 10.8008C8.57036 16.0059 10.3623 19.4204 12.249 21.543C13.2124 22.6267 14.2059 23.3796 14.957 23.8604C15.3322 24.1005 15.6459 24.2723 15.8633 24.3828C15.9139 24.4086 15.9603 24.429 16 24.4482C16.0397 24.429 16.0861 24.4086 16.1367 24.3828C16.3541 24.2723 16.6677 24.1005 17.043 23.8604C17.468 23.5883 17.9691 23.2274 18.5 22.7705V24.0576C18.171 24.3083 17.8617 24.5232 17.582 24.7021C17.1762 24.9619 16.8334 25.1496 16.5898 25.2734C16.468 25.3354 16.3708 25.382 16.3027 25.4131C16.2688 25.4286 16.2416 25.44 16.2227 25.4482C16.2133 25.4523 16.2056 25.4557 16.2002 25.458C16.1978 25.459 16.1959 25.4603 16.1943 25.4609L16.1914 25.4619C16.0695 25.5121 15.9315 25.5121 15.8096 25.4619H15.8076L15.8057 25.4609C15.804 25.4602 15.8015 25.4591 15.7988 25.458C15.7934 25.4557 15.7857 25.4523 15.7764 25.4482C15.7575 25.4401 15.7309 25.4285 15.6973 25.4131C15.6292 25.382 15.532 25.3354 15.4102 25.2734C15.1666 25.1496 14.8239 24.962 14.418 24.7021C13.6067 24.1829 12.5376 23.3732 11.501 22.207C9.41849 19.8642 7.48858 16.1056 8.00195 10.4551L8.02734 10.3369C8.06646 10.2237 8.14559 10.1262 8.25195 10.0654C9.9681 9.08476 11.386 8.18553 12.5791 7.55762C13.786 6.92244 14.8752 6.5 16 6.5Z" fill="black"/>
<path d="M22.5 17.5C23.6046 17.5 24.5 18.3954 24.5 19.5V20.5H25C25.2761 20.5 25.5 20.7239 25.5 21V25C25.5 25.2761 25.2761 25.5 25 25.5H20C19.7239 25.5 19.5 25.2761 19.5 25V21C19.5 20.7239 19.7239 20.5 20 20.5H20.5V19.5C20.5 18.3954 21.3954 17.5 22.5 17.5ZM20.5 24.5H24.5V21.5H20.5V24.5ZM22.5 18.5C21.9477 18.5 21.5 18.9477 21.5 19.5V20.5H23.5V19.5C23.5 18.9477 23.0523 18.5 22.5 18.5Z" fill="black"/>
<path d="M16 10C16.7418 10 17.3056 10.2601 17.918 10.6309C18.4693 10.9646 19.0243 11.3616 19.8643 11.8486L20.2432 12.0625L20.3408 12.1338C20.4285 12.2153 20.4854 12.3265 20.498 12.4482C20.8171 15.5408 19.7619 17.7909 18.623 19.2617C18.056 19.9942 17.4691 20.533 17.0225 20.8896C16.7988 21.0682 16.6092 21.2018 16.4736 21.292C16.406 21.337 16.3521 21.3718 16.3135 21.3955C16.2943 21.4072 16.2787 21.4163 16.2676 21.4229C16.2621 21.4261 16.2573 21.4287 16.2539 21.4307C16.2523 21.4316 16.2511 21.433 16.25 21.4336L16.248 21.4346C16.1139 21.5108 15.9523 21.5202 15.8115 21.4629L15.7529 21.4346L15.75 21.4336C15.7489 21.433 15.7477 21.4316 15.7461 21.4307C15.7427 21.4287 15.7379 21.4261 15.7324 21.4229C15.7213 21.4163 15.7057 21.4073 15.6865 21.3955C15.648 21.3718 15.594 21.337 15.5264 21.292C15.3909 21.2018 15.2011 21.0682 14.9775 20.8896C14.531 20.533 13.9439 19.9941 13.377 19.2617C12.2385 17.7908 11.1839 15.5406 11.5029 12.4482L11.5303 12.3311C11.5708 12.2182 11.6506 12.1219 11.7578 12.0625C12.817 11.4758 13.4524 11.0122 14.082 10.6309C14.6942 10.2601 15.2581 10 16 10ZM16 11C15.5283 11 15.1538 11.1513 14.6006 11.4863C14.1052 11.7864 13.4195 12.2667 12.4775 12.8037C12.2701 15.4621 13.1859 17.3806 14.168 18.6494C14.6767 19.3066 15.2034 19.7904 15.6016 20.1084C15.7572 20.2327 15.8938 20.3299 16 20.4033C16.1062 20.3299 16.2427 20.2328 16.3984 20.1084C16.7967 19.7904 17.3232 19.3066 17.832 18.6494C18.8145 17.3805 19.7302 15.4618 19.5225 12.8027C18.5813 12.2661 17.8956 11.7862 17.4004 11.4863C16.8469 11.1512 16.4718 11 16 11Z" fill="black"/>
</svg>
