<svg width="32" height="32" viewBox="0 0 32 32" fill="none" xmlns="http://www.w3.org/2000/svg">
<path d="M22.5 18C22.7761 18 23 18.2239 23 18.5V19H22V18.5C22 18.2239 22.2239 18 22.5 18Z" fill="#0F0F0F"/>
<path d="M16.001 1.49609C24.0118 1.49609 30.5058 7.98964 30.5059 16C30.5059 19.5359 29.2393 22.7752 27.1367 25.292C26.9786 25.553 26.7747 25.7817 26.5352 25.9688C23.8914 28.7611 20.1501 30.5039 16.001 30.5039C7.99021 30.5038 1.49609 24.0104 1.49609 16C1.49614 7.98967 7.99024 1.49616 16.001 1.49609ZM16 6C14.7505 6 13.5729 6.46994 12.3467 7.11523C11.1479 7.74614 9.68671 8.67022 8.00391 9.63184C7.7204 9.79384 7.53357 10.084 7.50391 10.4092C6.97672 16.2108 8.96278 20.1033 11.1279 22.5391C12.201 23.7462 13.3071 24.5846 14.1484 25.123C14.5697 25.3927 14.927 25.5893 15.1836 25.7197C15.3117 25.7848 15.4153 25.8334 15.4893 25.8672C15.5262 25.8841 15.5563 25.8978 15.5781 25.9072C15.5888 25.9119 15.5977 25.9161 15.6045 25.9189C15.6077 25.9203 15.611 25.9209 15.6133 25.9219L15.6162 25.9238H15.6182L16 25L15.6191 25.9248C15.863 26.0251 16.137 26.0252 16.3809 25.9248L16 25L16.3818 25.9238L16.3867 25.9219C16.389 25.9209 16.3923 25.9203 16.3955 25.9189C16.4024 25.916 16.4112 25.9119 16.4219 25.9072C16.4437 25.8978 16.4738 25.8841 16.5107 25.8672C16.5848 25.8334 16.6884 25.7848 16.8164 25.7197C17.06 25.5959 17.3934 25.411 17.7871 25.1621C17.6043 24.8148 17.5 24.4197 17.5 24V22.9336C17.2402 23.1279 16.9961 23.2969 16.7734 23.4395C16.4639 23.6375 16.198 23.7839 16 23.8877C15.802 23.7839 15.5361 23.6375 15.2266 23.4395C14.5055 22.9779 13.5489 22.2535 12.6221 21.2109C10.8478 19.2149 9.13987 16.0093 9.45605 11.0996C11.0342 10.1852 12.2043 9.45 13.2783 8.88477C14.427 8.2803 15.2497 8 16 8C16.7503 8.00007 17.573 8.2802 18.7217 8.88477C19.7956 9.45 20.9649 10.1853 22.543 11.0996C22.6229 12.3395 22.5725 13.4705 22.4258 14.501C22.4505 14.5005 22.4752 14.5 22.5 14.5C23.1794 14.5 23.8188 14.6699 24.3789 14.9688C24.5897 13.6008 24.6484 12.0847 24.4961 10.4092C24.4702 10.1247 24.3237 9.86678 24.0977 9.69824L23.9961 9.63184L22.7764 8.92188C21.5992 8.2267 20.5524 7.58847 19.6533 7.11523C18.4273 6.46993 17.2495 6.00007 16 6ZM22.5 16C21.1193 16 20 17.1193 20 18.5V19C19.4477 19 19 19.4477 19 20V24C19 24.5523 19.4477 25 20 25H25C25.5523 25 26 24.5523 26 24V20C26 19.4477 25.5523 19 25 19V18.5C25 17.1193 23.8807 16 22.5 16ZM16 9.5C15.123 9.5 14.4648 9.81454 13.8232 10.2031C13.1466 10.6129 12.5723 11.0397 11.5156 11.625C11.2653 11.7637 11.0882 12.0021 11.0254 12.2773L11.0059 12.3975C10.6712 15.6414 11.78 18.0163 12.9814 19.5684C13.5776 20.3385 14.1952 20.9043 14.666 21.2803C14.9018 21.4686 15.1029 21.6107 15.249 21.708C15.3221 21.7567 15.3822 21.7946 15.4258 21.8213C15.4474 21.8346 15.4651 21.8456 15.4785 21.8535C15.485 21.8573 15.4907 21.8607 15.4951 21.8633C15.4974 21.8646 15.502 21.8672 15.502 21.8672L15.5039 21.8682L15.5049 21.8691C15.5064 21.8675 15.5294 21.8282 16 21L15.5049 21.8691C15.8112 22.0431 16.1878 22.0432 16.4941 21.8691L16.498 21.8672C16.498 21.8672 16.5018 21.8645 16.5039 21.8633C16.5085 21.8607 16.5148 21.8575 16.5215 21.8535C16.535 21.8456 16.5526 21.8346 16.5742 21.8213C16.6178 21.7946 16.6779 21.7567 16.751 21.708C16.8972 21.6107 17.0982 21.4685 17.334 21.2803C17.3881 21.237 17.4422 21.1889 17.5 21.1406V20C17.5 19.1675 17.9083 18.4319 18.5342 17.9775C18.7222 16.5359 19.678 15.3363 20.9775 14.8008C21.0673 14.0604 21.0841 13.2598 20.9951 12.3975C20.9658 12.1128 20.8164 11.8562 20.5879 11.6904L20.4854 11.625L20.1104 11.4131C19.283 10.9336 18.7693 10.5619 18.1768 10.2031C17.535 9.81461 16.8767 9.50004 16 9.5Z" fill="#0F0F0F"/>
</svg>
