<svg width="32" height="32" viewBox="0 0 32 32" fill="none" xmlns="http://www.w3.org/2000/svg">
<path d="M24.9999 18.2503C25.7293 18.2503 26.4286 18.5403 26.9443 19.056C27.4598 19.5716 27.7499 20.271 27.7499 21.0003V22.2454H27.9999C28.9664 22.2455 29.7499 23.029 29.7499 23.9954V27.9954C29.7497 28.9617 28.9662 29.7454 27.9999 29.7454H21.9999C21.0336 29.7454 20.2501 28.9617 20.2499 27.9954V23.9954C20.2499 23.0289 21.0334 22.2454 21.9999 22.2454H22.2499V21.0003C22.2499 20.271 22.5399 19.5717 23.0556 19.056C23.5713 18.5403 24.2705 18.2503 24.9999 18.2503ZM21.9999 23.7454C21.8618 23.7454 21.7499 23.8574 21.7499 23.9954V27.9954C21.7501 28.1333 21.862 28.2454 21.9999 28.2454H27.9999C28.1378 28.2454 28.2497 28.1333 28.2499 27.9954V23.9954C28.2499 23.8574 28.1379 23.7455 27.9999 23.7454H27.0829C27.0557 23.7484 27.028 23.7503 26.9999 23.7503H22.9999C22.9719 23.7503 22.9441 23.7484 22.9169 23.7454H21.9999ZM24.9999 19.7503C24.6684 19.7503 24.3506 19.8821 24.1161 20.1165C23.8817 20.351 23.7499 20.6689 23.7499 21.0003V22.2454H26.2499V21.0003C26.2499 20.6689 26.118 20.3509 25.8837 20.1165C25.6493 19.8821 25.3314 19.7503 24.9999 19.7503Z" fill="#0F0F0F"/>
<path d="M15.9989 2.75031C16.6458 2.75038 17.3176 2.9506 17.997 3.24054C18.6814 3.53269 19.4329 3.94269 20.2489 4.41339C21.8998 5.36572 23.8619 6.5929 26.3349 7.82941C26.5771 7.95072 26.7359 8.19356 26.7489 8.46417C26.9194 12.043 26.5743 15.0258 25.7812 17.5892C25.5269 17.5309 25.265 17.5003 24.9999 17.5003C24.7298 17.5003 24.4628 17.5316 24.204 17.5921C25.004 15.227 25.3906 12.4224 25.2655 8.96613C22.9231 7.77036 21.0139 6.58555 19.4999 5.71222C18.6913 5.24576 18.0048 4.87413 17.4081 4.61945C16.8064 4.36266 16.3519 4.25039 15.9989 4.25031C15.6461 4.25032 15.1921 4.36281 14.5907 4.61945C13.9941 4.87409 13.3075 5.24573 12.4989 5.71222C10.9849 6.58571 9.07546 7.77103 6.73234 8.9671C6.55429 13.8906 7.40922 17.4932 9.02824 20.3841C10.6237 23.2328 12.9961 25.4544 15.9989 27.5823C17.286 26.6703 18.4561 25.7397 19.4999 24.7513V26.7679C18.5447 27.5847 17.5168 28.361 16.4257 29.1165C16.169 29.2943 15.829 29.2941 15.5722 29.1165C12.2795 26.8366 9.54934 24.3834 7.71964 21.1165C5.8854 17.8412 4.99481 13.8184 5.24992 8.46417C5.26298 8.1934 5.42149 7.95065 5.66398 7.82941C8.1369 6.59291 10.0983 5.3657 11.7489 4.41339C12.5651 3.94252 13.3174 3.53271 14.0019 3.24054C14.6811 2.95065 15.3521 2.75032 15.9989 2.75031Z" fill="#0F0F0F"/>
<path d="M15.9989 6.75031C16.4672 6.75047 16.9904 6.93457 17.4706 7.15363C17.9744 7.38351 18.5307 7.69988 19.0946 8.05206C19.9415 8.58091 20.8414 9.21397 21.661 9.81476L22.4501 10.4007L22.5146 10.4544C22.6559 10.5878 22.7407 10.7726 22.7489 10.9691C22.9021 14.6286 22.3623 17.2569 21.2294 19.3831C20.1017 21.4996 18.4247 23.0431 16.4628 24.5892C16.1906 24.8037 15.8064 24.8035 15.5341 24.5892C13.5723 23.0431 11.8957 21.4995 10.7685 19.3831C9.6361 17.2568 9.09675 14.6286 9.24992 10.9691L9.2587 10.8851C9.2886 10.6928 9.39232 10.5187 9.54972 10.4007C10.5527 9.64864 11.7753 8.75737 12.9042 8.05206C13.4679 7.69987 14.0236 7.38349 14.5273 7.15363C15.0074 6.93453 15.5306 6.7503 15.9989 6.75031ZM15.9989 8.25031C15.87 8.2503 15.5941 8.31632 15.1503 8.51886C14.7298 8.7108 14.2346 8.98837 13.6982 9.32355C12.7279 9.92977 11.6691 10.6914 10.7372 11.3851C10.6402 14.6716 11.1547 16.9169 12.0927 18.678C12.9884 20.3597 14.304 21.6635 15.998 23.0364C17.6924 21.6632 19.0089 20.36 19.9052 18.678C20.8435 16.917 21.3585 14.6719 21.2616 11.386C20.33 10.6925 19.2705 9.92979 18.2997 9.32355C17.7633 8.98858 17.2682 8.71077 16.8476 8.51886C16.4041 8.31656 16.1282 8.25052 15.9989 8.25031Z" fill="#0F0F0F"/>
</svg>
