<svg width="32" height="32" viewBox="0 0 32 32" fill="none" xmlns="http://www.w3.org/2000/svg">
<path d="M16 29.0801C15.7715 29.0801 15.4541 28.9785 15.1621 28.8135C8.1543 24.7002 5.80566 23.2148 5.80566 18.8984V9.33887C5.80566 7.99316 6.30078 7.53613 7.45605 7.0918C9.25879 6.38086 13.207 4.9082 14.9971 4.28613C15.3271 4.17188 15.6572 4.0957 16 4.0957C16.3428 4.0957 16.6602 4.17188 17.0029 4.28613C18.793 4.89551 22.7412 6.36816 24.5312 7.0918C25.6992 7.54883 26.1943 7.99316 26.1943 9.33887V18.8984C26.1943 23.2148 23.9473 24.8779 16.8379 28.8135C16.5459 28.9658 16.2285 29.0801 16 29.0801ZM11.4805 20.9043C11.4805 21.8818 11.9121 22.3262 12.8135 22.3262H19.1865C20.0879 22.3262 20.5195 21.8818 20.5195 20.9043V15.8262C20.5195 14.9121 20.1514 14.4805 19.377 14.417V12.7666C19.377 10.5322 18.0186 9.03418 16 9.03418C13.9814 9.03418 12.6104 10.5322 12.6104 12.7666V14.417C11.8486 14.4932 11.4805 14.9248 11.4805 15.8262V20.9043ZM13.7021 14.4043V12.6777C13.7021 11.1289 14.6289 10.1006 16 10.1006C17.3711 10.1006 18.2852 11.1289 18.2852 12.6777V14.3916L13.7021 14.4043Z" fill="black"/>
</svg>
