<svg width="32" height="32" viewBox="0 0 32 32" fill="none" xmlns="http://www.w3.org/2000/svg">
<path d="M9.99976 7.4999H11.9998C12.1324 7.4999 12.2595 7.44722 12.3533 7.35345C12.4471 7.25969 12.4998 7.13251 12.4998 6.9999C12.4998 6.86729 12.4471 6.74011 12.3533 6.64635C12.2595 6.55258 12.1324 6.4999 11.9998 6.4999H9.99976C9.86715 6.4999 9.73997 6.55258 9.6462 6.64635C9.55243 6.74011 9.49976 6.86729 9.49976 6.9999C9.49976 7.13251 9.55243 7.25969 9.6462 7.35345C9.73997 7.44722 9.86715 7.4999 9.99976 7.4999Z" fill="#0F0F0F"/>
<path d="M19.9998 7.4999H21.9998C22.1324 7.4999 22.2595 7.44722 22.3533 7.35345C22.4471 7.25969 22.4998 7.13251 22.4998 6.9999C22.4998 6.86729 22.4471 6.74011 22.3533 6.64635C22.2595 6.55258 22.1324 6.4999 21.9998 6.4999H19.9998C19.8671 6.4999 19.74 6.55258 19.6462 6.64635C19.5524 6.74011 19.4998 6.86729 19.4998 6.9999C19.4998 7.13251 19.5524 7.25969 19.6462 7.35345C19.74 7.44722 19.8671 7.4999 19.9998 7.4999Z" fill="#0F0F0F"/>
<path d="M25.9998 3.4999H5.99976C5.33693 3.5006 4.70145 3.76421 4.23276 4.2329C3.76407 4.70159 3.50045 5.33707 3.49976 5.9999V28.0004C3.49976 28.133 3.55243 28.2602 3.6462 28.3539C3.73997 28.4477 3.86715 28.5004 3.99976 28.5004C4.13236 28.5004 4.25954 28.4477 4.35331 28.3539C4.44708 28.2602 4.49976 28.133 4.49976 28.0004V19.5004H27.4998V28.0004C27.4998 28.133 27.5524 28.2602 27.6462 28.3539C27.74 28.4477 27.8671 28.5004 27.9998 28.5004C28.1324 28.5004 28.2595 28.4477 28.3533 28.3539C28.4471 28.2602 28.4998 28.133 28.4998 28.0004V5.9999C28.4991 5.33707 28.2354 4.70159 27.7668 4.2329C27.2981 3.76421 26.6626 3.5006 25.9998 3.4999ZM5.99976 4.4999H25.9998C26.3974 4.50033 26.7787 4.65851 27.0599 4.93972C27.3411 5.22093 27.4993 5.60221 27.4998 5.9999V9.4999H4.49976V5.9999C4.50019 5.60221 4.65836 5.22093 4.93957 4.93972C5.22079 4.65851 5.60206 4.50033 5.99976 4.4999ZM4.49976 10.4999H15.5134V18.5004H4.49976V10.4999ZM16.5134 18.5004V10.4999H27.4998V18.5004H16.5134Z" fill="#0F0F0F"/>
</svg>
