<svg width="32" height="32" viewBox="0 0 32 32" fill="none" xmlns="http://www.w3.org/2000/svg">
<path d="M24.9996 23.2105C24.8683 23.2104 24.7382 23.2362 24.6169 23.2865C24.4955 23.3367 24.3852 23.4104 24.2924 23.5032C24.1995 23.5961 24.1258 23.7064 24.0756 23.8277C24.0254 23.9491 23.9996 24.0792 23.9996 24.2105V24.9996C23.9988 25.795 23.6824 26.5575 23.12 27.1199C22.5576 27.6824 21.795 27.9987 20.9996 27.9996H11.0001C10.2047 27.9987 9.44218 27.6824 8.87976 27.1199C8.31734 26.5575 8.00099 25.795 8.00012 24.9996V6.99957C8.00099 6.20419 8.31734 5.44163 8.87976 4.87921C9.44218 4.31679 10.2047 4.00044 11.0001 3.99957H20.9996C21.795 4.00044 22.5576 4.31679 23.12 4.87921C23.6824 5.44163 23.9988 6.20419 23.9996 6.99957V7.70465C23.9996 7.96987 24.105 8.22422 24.2925 8.41176C24.4801 8.5993 24.7344 8.70465 24.9996 8.70465C25.2648 8.70465 25.5192 8.5993 25.7067 8.41176C25.8943 8.22422 25.9996 7.96987 25.9996 7.70465V6.99957C25.9981 5.67397 25.4708 4.4031 24.5334 3.46576C23.5961 2.52842 22.3252 2.00113 20.9996 1.99957H11.0001C9.67452 2.00113 8.40365 2.52841 7.46631 3.46576C6.52896 4.4031 6.00168 5.67397 6.00012 6.99957V24.9996C6.00168 26.3252 6.52896 27.596 7.46631 28.5334C8.40365 29.4707 9.67452 29.998 11.0001 29.9996H20.9996C22.3252 29.998 23.5961 29.4707 24.5334 28.5334C25.4708 27.596 25.9981 26.3252 25.9996 24.9996V24.2105C25.9997 24.0792 25.9739 23.9491 25.9237 23.8277C25.8734 23.7064 25.7998 23.5961 25.7069 23.5032C25.614 23.4104 25.5038 23.3367 25.3824 23.2865C25.261 23.2362 25.131 23.2104 24.9996 23.2105Z" fill="#0F0F0F"/>
<path d="M29.0006 14.9996H23.4137L25.7067 12.7066C25.8942 12.5191 25.9996 12.2647 25.9996 11.9995C25.9996 11.7344 25.8942 11.48 25.7067 11.2925C25.5192 11.105 25.2649 10.9997 24.9997 10.9997C24.7345 10.9997 24.4801 11.105 24.2926 11.2925L20.2926 15.2925C20.1997 15.3853 20.1261 15.4956 20.0758 15.6169C20.0255 15.7382 19.9997 15.8682 19.9997 15.9995C19.9997 16.1309 20.0255 16.2609 20.0758 16.3822C20.1261 16.5035 20.1997 16.6137 20.2926 16.7066L24.2926 20.7066C24.4801 20.8941 24.7345 20.9994 24.9997 20.9994C25.2649 20.9994 25.5192 20.8941 25.7067 20.7066C25.8942 20.5191 25.9996 20.2647 25.9996 19.9995C25.9996 19.7344 25.8942 19.48 25.7067 19.2925L23.4137 16.9995H29.0006C29.2658 16.9995 29.5202 16.8942 29.7077 16.7066C29.8952 16.5191 30.0006 16.2647 30.0006 15.9995C30.0006 15.7343 29.8952 15.4799 29.7077 15.2924C29.5202 15.1049 29.2658 14.9996 29.0006 14.9996Z" fill="#0F0F0F"/>
</svg>
