<svg width="32" height="32" viewBox="0 0 32 32" fill="none" xmlns="http://www.w3.org/2000/svg">
<path d="M27.0001 15.2504H16.7501V11.7504H17.9933C18.4572 11.7498 18.902 11.5653 19.2301 11.2372C19.5582 10.9091 19.7427 10.4644 19.7433 10.0004V6.0004C19.7427 5.53644 19.5582 5.09165 19.2301 4.76358C18.902 4.43551 18.4572 4.25096 17.9933 4.2504H13.9933C13.5293 4.25096 13.0845 4.43552 12.7565 4.76358C12.4284 5.09165 12.2438 5.53644 12.2433 6.0004V10.0004C12.2438 10.4644 12.4284 10.9091 12.7565 11.2372C13.0845 11.5653 13.5293 11.7498 13.9933 11.7504H15.2501V15.2504H5.00012C4.80121 15.2504 4.61044 15.3294 4.46979 15.4701C4.32914 15.6107 4.25012 15.8015 4.25012 16.0004C4.25012 16.1993 4.32914 16.3901 4.46979 16.5307C4.61044 16.6714 4.80121 16.7504 5.00012 16.7504H8.25012V20.2504H6.99328C6.52933 20.251 6.08453 20.4355 5.75647 20.7636C5.4284 21.0916 5.24385 21.5364 5.24328 22.0004V26.0004C5.24385 26.4644 5.4284 26.9091 5.75647 27.2372C6.08453 27.5653 6.52933 27.7498 6.99328 27.7504H10.9933C11.4572 27.7498 11.902 27.5653 12.2301 27.2372C12.5582 26.9091 12.7427 26.4644 12.7433 26.0004V22.0004C12.7427 21.5364 12.5582 21.0916 12.2301 20.7636C11.902 20.4355 11.4572 20.251 10.9933 20.2504H9.75012V16.7504H22.2501V20.2504H20.9933C20.5293 20.251 20.0845 20.4355 19.7565 20.7636C19.4284 21.0916 19.2438 21.5364 19.2433 22.0004V26.0004C19.2438 26.4644 19.4284 26.9091 19.7565 27.2372C20.0845 27.5653 20.5293 27.7498 20.9933 27.7504H24.9933C25.4572 27.7498 25.902 27.5653 26.2301 27.2372C26.5582 26.9091 26.7427 26.4644 26.7433 26.0004V22.0004C26.7427 21.5364 26.5582 21.0916 26.2301 20.7636C25.902 20.4355 25.4572 20.251 24.9933 20.2504H23.7501V16.7504H27.0001C27.199 16.7504 27.3898 16.6714 27.5305 16.5307C27.6711 16.3901 27.7501 16.1993 27.7501 16.0004C27.7501 15.8015 27.6711 15.6107 27.5305 15.4701C27.3898 15.3294 27.199 15.2504 27.0001 15.2504ZM13.7433 10.0004V6.0004C13.7434 5.93413 13.7698 5.87062 13.8166 5.82376C13.8635 5.77691 13.927 5.75053 13.9933 5.7504H17.9933C18.0595 5.75052 18.1231 5.7769 18.1699 5.82376C18.2168 5.87062 18.2432 5.93413 18.2433 6.0004V10.0004C18.2432 10.0667 18.2168 10.1302 18.1699 10.177C18.1231 10.2239 18.0595 10.2503 17.9933 10.2504H13.9933C13.927 10.2503 13.8635 10.2239 13.8166 10.177C13.7698 10.1302 13.7434 10.0667 13.7433 10.0004ZM11.2433 22.0004V26.0004C11.2432 26.0667 11.2168 26.1302 11.1699 26.177C11.1231 26.2239 11.0595 26.2503 10.9933 26.2504H6.99328C6.92702 26.2503 6.8635 26.2239 6.81665 26.177C6.76979 26.1302 6.74341 26.0667 6.74328 26.0004V22.0004C6.74341 21.9341 6.76979 21.8706 6.81665 21.8238C6.8635 21.7769 6.92702 21.7505 6.99328 21.7504H10.9933C11.0595 21.7505 11.1231 21.7769 11.1699 21.8238C11.2168 21.8706 11.2432 21.9341 11.2433 22.0004ZM25.2433 22.0004V26.0004C25.2432 26.0667 25.2168 26.1302 25.1699 26.177C25.1231 26.2239 25.0595 26.2503 24.9933 26.2504H20.9933C20.927 26.2503 20.8635 26.2239 20.8166 26.177C20.7698 26.1302 20.7434 26.0667 20.7433 26.0004V22.0004C20.7434 21.9341 20.7698 21.8706 20.8166 21.8238C20.8635 21.7769 20.927 21.7505 20.9933 21.7504H24.9933C25.0595 21.7505 25.1231 21.7769 25.1699 21.8238C25.2168 21.8706 25.2432 21.9341 25.2433 22.0004Z" fill="#0F0F0F"/>
</svg>
