<svg width="32" height="32" viewBox="0 0 32 32" fill="none" xmlns="http://www.w3.org/2000/svg">
<path d="M27.8955 10.2275C27.8955 10.7227 27.5273 11.0781 27.0322 11.0781H9.56348L6.66895 10.9766L9.19531 13.249L13.207 17.1973C13.3467 17.3496 13.4355 17.54 13.4355 17.7939C13.4355 18.2764 13.0928 18.6318 12.585 18.6318C12.3691 18.6318 12.1279 18.5303 11.9629 18.3652L4.38379 10.8623C4.19336 10.6846 4.10449 10.4688 4.10449 10.2275C4.10449 9.98633 4.19336 9.77051 4.38379 9.59277L11.9629 2.07715C12.1279 1.91211 12.3691 1.81055 12.585 1.81055C13.0928 1.81055 13.4355 2.16602 13.4355 2.66113C13.4355 2.91504 13.3467 3.10547 13.207 3.25781L9.19531 7.20605L6.66895 9.47852L9.56348 9.37695H27.0322C27.5273 9.37695 27.8955 9.73242 27.8955 10.2275ZM27.8955 22.4023C27.8955 22.6436 27.7939 22.8594 27.6035 23.0498L20.0371 30.5527C19.8721 30.7178 19.6309 30.8193 19.415 30.8193C18.8945 30.8193 18.5645 30.4639 18.5645 29.9688C18.5645 29.7275 18.6406 29.5244 18.793 29.3721L22.8047 25.4238L25.3311 23.1641L22.4238 23.2656H4.95508C4.47266 23.2656 4.10449 22.8975 4.10449 22.4023C4.10449 21.9072 4.47266 21.5518 4.95508 21.5518H22.4238L25.3311 21.6533L22.8047 19.3936L18.793 15.4326C18.6406 15.293 18.5645 15.0898 18.5645 14.8359C18.5645 14.3535 18.8945 13.998 19.415 13.998C19.6309 13.998 19.8721 14.0996 20.0371 14.2646L27.6035 21.7676C27.7939 21.958 27.8955 22.1611 27.8955 22.4023Z" fill="black"/>
</svg>
