<svg width="32" height="32" viewBox="0 0 32 32" fill="none" xmlns="http://www.w3.org/2000/svg">
<path d="M16.5 3.5C16.5 3.22386 16.2761 3 16 3C15.7239 3 15.5 3.22386 15.5 3.5V23.5C15.5 23.7761 15.7239 24 16 24C16.2761 24 16.5 23.7761 16.5 23.5V3.5Z" fill="#0F0F0F"/>
<path d="M15.5242 27.67C15.6583 27.5599 15.8265 27.4998 16 27.4998C16.0985 27.4996 16.1961 27.519 16.2871 27.5567C16.3781 27.5944 16.4608 27.6497 16.5303 27.7194C16.653 27.8421 16.7294 28.0036 16.7464 28.1762C16.7634 28.3489 16.72 28.5222 16.6236 28.6664C16.5272 28.8107 16.3838 28.9171 16.2177 28.9675C16.0517 29.0178 15.8733 29.0091 15.713 28.9427C15.5527 28.8763 15.4204 28.7563 15.3386 28.6033C15.2568 28.4503 15.2306 28.2736 15.2644 28.1034C15.2983 27.9333 15.3901 27.7801 15.5242 27.67Z" fill="#0F0F0F"/>
</svg>
