<svg width="32" height="32" viewBox="0 0 32 32" fill="none" xmlns="http://www.w3.org/2000/svg">
<path d="M17.75 15.25C17.7505 14.949 17.6733 14.653 17.526 14.3905C17.3786 14.128 17.1661 13.908 16.9089 13.7517C16.6516 13.5953 16.3585 13.508 16.0576 13.4981C15.7568 13.4882 15.4585 13.556 15.1915 13.6951C14.9246 13.8341 14.698 14.0397 14.5337 14.2919C14.3694 14.5441 14.2729 14.8344 14.2536 15.1348C14.2343 15.4352 14.2927 15.7354 14.4234 16.0066C14.554 16.2778 14.7524 16.5107 14.9993 16.6828L14.2744 19.9001C14.1775 20.2832 14.3784 20.5 14.6879 20.5H17.3125C17.3823 20.497 17.4505 20.4783 17.512 20.4451C17.5735 20.412 17.6267 20.3653 17.6676 20.3087C17.7084 20.252 17.7359 20.1868 17.748 20.118C17.76 20.0491 17.7563 19.9785 17.737 19.9113L17.0017 16.6819C17.2326 16.5212 17.4212 16.307 17.5515 16.0577C17.6817 15.8084 17.7498 15.5313 17.75 15.25Z" fill="#0F0F0F"/>
<path d="M23.835 11.6537C23.1493 10.1423 22.0495 8.85601 20.6628 7.94397C19.2761 7.03192 17.6595 6.5314 16 6.5004C13.7792 6.51766 11.6491 7.38429 10.0471 8.92243C8.44501 10.4606 7.49242 12.5536 7.38479 14.7719C6.6282 14.8421 5.89501 15.0715 5.23337 15.4451C4.57174 15.8188 3.99663 16.3281 3.54581 16.9398C3.095 17.5515 2.77868 18.2516 2.61763 18.9942C2.45658 19.7367 2.45445 20.505 2.61136 21.2484C2.88753 22.4688 3.57465 23.5571 4.55763 24.3312C5.5406 25.1053 6.75972 25.5181 8.01077 25.5005H22.1798C23.9442 25.5248 25.6569 24.9045 26.9965 23.756C28.3362 22.6075 29.2107 21.0096 29.4561 19.2622C29.644 17.5201 29.1704 15.7711 28.1292 14.3618C27.0881 12.9526 25.5554 11.986 23.835 11.6537ZM28.462 19.1567C28.2444 20.6593 27.4864 22.0309 26.3299 23.0147C25.1734 23.9984 23.6979 24.5266 22.1798 24.5004H8.01081C6.98998 24.5187 5.99387 24.1856 5.18937 23.557C4.38487 22.9283 3.82085 22.0423 3.59181 21.0473C3.45573 20.409 3.46389 19.7484 3.61572 19.1137C3.76755 18.479 4.0592 17.8862 4.46939 17.3786C4.87957 16.871 5.39794 16.4614 5.98664 16.1797C6.57535 15.898 7.21952 15.7513 7.87214 15.7504H8.37214V15.2504C8.35838 13.2119 9.15373 11.2511 10.5837 9.79826C12.0137 8.34538 13.9616 7.519 16.0001 7.5004C17.5098 7.53182 18.9778 8.0018 20.225 8.85303C21.4723 9.70426 22.445 10.9 23.0245 12.2944L23.1339 12.5512L23.4093 12.5942C24.9346 12.8267 26.3114 13.6388 27.2527 14.8614C28.194 16.0839 28.6272 17.6226 28.462 19.1567Z" fill="#0F0F0F"/>
</svg>
