<svg width="32" height="32" viewBox="0 0 32 32" fill="none" xmlns="http://www.w3.org/2000/svg">
<path d="M27.5 21.5033L18.0079 16.0233L27.5 10.5433C27.7297 10.4107 27.8973 10.1923 27.966 9.93604C28.0347 9.67983 27.9988 9.40683 27.8662 9.1771C27.7335 8.94737 27.5151 8.77973 27.2589 8.71105C27.0027 8.64237 26.7297 8.67829 26.5 8.8109L17 14.295V3C17 2.73478 16.8946 2.48043 16.7071 2.29289C16.5195 2.10536 16.2652 2 16 2C15.7347 2 15.4804 2.10536 15.2928 2.29289C15.1053 2.48043 15 2.73478 15 3V14.2862L5.49995 8.8012C5.27022 8.66859 4.99722 8.63268 4.74101 8.70135C4.4848 8.77003 4.26636 8.93767 4.13375 9.1674C4.00114 9.39713 3.96523 9.67013 4.0339 9.92634C4.10258 10.1826 4.27022 10.401 4.49995 10.5336L14.0073 16.0229L4.49995 21.5121C4.27021 21.6447 4.10255 21.8631 4.03387 22.1194C3.96518 22.3756 4.00109 22.6486 4.1337 22.8783C4.26631 23.1081 4.48475 23.2757 4.74097 23.3444C4.9972 23.4131 5.27021 23.3772 5.49995 23.2446L15 17.76V29C15 29.2652 15.1053 29.5196 15.2928 29.7071C15.4804 29.8946 15.7347 30 16 30C16.2652 30 16.5195 29.8946 16.7071 29.7071C16.8946 29.5196 17 29.2652 17 29V17.75L26.5 23.2351C26.7297 23.3677 27.0027 23.4036 27.2589 23.3349C27.5152 23.2662 27.7336 23.0986 27.8662 22.8689C27.9988 22.6391 28.0347 22.3661 27.966 22.1099C27.8974 21.8537 27.7297 21.6359 27.5 21.5033Z" fill="#0F0F0F"/>
</svg>
