<svg width="32" height="32" viewBox="0 0 32 32" fill="none" xmlns="http://www.w3.org/2000/svg">
<path d="M16 4C9.37258 4 4 9.37258 4 16C4 22.6274 9.37258 28 16 28C16.5523 28 17 28.4477 17 29C17 29.5523 16.5523 30 16 30C8.26801 30 2 23.732 2 16C2 8.26801 8.26801 2 16 2C23.732 2 30 8.26801 30 16C30 19.918 28.3899 23.4599 25.7979 26H29C29.5523 26 30 26.4477 30 27C30 27.5523 29.5523 28 29 28H23C22.4477 28 22 27.5523 22 27V21C22 20.4477 22.4477 20 23 20C23.5523 20 24 20.4477 24 21V24.9445C26.4563 22.7461 28 19.5533 28 16C28 9.37258 22.6274 4 16 4Z" fill="#0F0F0F"/>
<path d="M16 7C16.5523 7 17 7.44772 17 8V15.5858L20.2071 18.7929C20.5976 19.1834 20.5976 19.8166 20.2071 20.2071C19.8166 20.5976 19.1834 20.5976 18.7929 20.2071L15 16.4142V8C15 7.44772 15.4477 7 16 7Z" fill="#0F0F0F"/>
</svg>
