<svg width="32" height="32" viewBox="0 0 32 32" fill="none" xmlns="http://www.w3.org/2000/svg">
<path d="M28.3511 5.32445C27.8555 5.07244 27.2994 4.96395 26.7455 5.01123C26.1916 5.05851 25.6619 5.25967 25.2163 5.59202L18.9985 10.389V8.00413C18.9986 7.45488 18.8479 6.91615 18.5628 6.44668C18.2777 5.9772 17.8692 5.595 17.3818 5.34174C16.8944 5.08848 16.3469 4.97388 15.7989 5.01044C15.2508 5.047 14.7233 5.2333 14.2739 5.54905L3.26807 13.5491C2.87538 13.8265 2.55515 14.1943 2.33437 14.6214C2.1136 15.0485 1.99875 15.5224 1.99952 16.0032C2.00028 16.484 2.11664 16.9576 2.33877 17.384C2.5609 17.8104 2.88231 18.1772 3.27588 18.4534L14.2612 26.4407C14.7109 26.7611 15.2404 26.9509 15.7912 26.9891C16.342 27.0274 16.8927 26.9126 17.3823 26.6575C17.8703 26.405 18.2792 26.023 18.5643 25.5534C18.8495 25.0838 18.9997 24.5447 18.9985 23.9953V21.6079L25.1997 26.3967C25.7206 26.7853 26.3526 26.9962 27.0024 26.9983C27.7978 26.9967 28.56 26.6798 29.122 26.117C29.684 25.5543 30 24.7916 30.0005 23.9963V8.00413C30.0022 7.44822 29.8487 6.90287 29.5573 6.42945C29.2659 5.95603 28.8482 5.57334 28.3511 5.32445ZM16.9985 23.9953C16.9986 24.1784 16.9485 24.3579 16.8535 24.5144C16.7586 24.6709 16.6225 24.7983 16.46 24.8828C16.2976 24.9672 16.1152 25.0054 15.9325 24.9932C15.7499 24.981 15.5741 24.9189 15.4243 24.8137L4.438 16.8264C4.30408 16.7355 4.19422 16.6135 4.11785 16.4708C4.04148 16.3282 4.00088 16.1691 3.99953 16.0072C3.99819 15.8454 4.03614 15.6857 4.11013 15.5417C4.18412 15.3978 4.29194 15.274 4.42433 15.1809L4.438 15.1711L15.4371 7.176C15.5994 7.06151 15.7931 7.0001 15.9918 7.00022C16.1547 7.00115 16.3151 7.04099 16.4595 7.11643C16.6232 7.19948 16.7603 7.32659 16.8556 7.48344C16.9508 7.64029 17.0004 7.82063 16.9986 8.00412L16.9985 23.9953ZM28.0005 23.9963C28.0005 24.1815 27.949 24.3629 27.8519 24.5205C27.7548 24.6781 27.6158 24.8057 27.4505 24.889C27.2852 24.9723 27.1 25.0081 26.9155 24.9924C26.7311 24.9767 26.5546 24.9101 26.4058 24.8L18.9985 19.081V12.9156L26.4224 7.18773C26.5872 7.06511 26.7872 6.999 26.9927 6.99925C27.1519 7.00024 27.3087 7.03836 27.4507 7.11058C27.6173 7.19252 27.7573 7.31989 27.8546 7.478C27.9518 7.63611 28.0024 7.8185 28.0005 8.00413L28.0005 23.9963Z" fill="#0F0F0F"/>
</svg>
