<svg width="32" height="32" viewBox="0 0 32 32" fill="none" xmlns="http://www.w3.org/2000/svg">
<path d="M28.7319 13.5491L17.7261 5.54905C17.2766 5.2333 16.7492 5.04699 16.2011 5.01044C15.6531 4.97388 15.1055 5.08848 14.6182 5.34174C14.1308 5.595 13.7223 5.9772 13.4372 6.44667C13.1521 6.91615 13.0014 7.45488 13.0015 8.00413V10.389L6.78369 5.592C6.33716 5.26148 5.80761 5.06146 5.25406 5.01424C4.70052 4.96702 4.14474 5.07445 3.64868 5.32456C3.15261 5.57467 2.73575 5.95763 2.44456 6.43076C2.15337 6.90388 1.9993 7.44858 1.99951 8.00413V23.9963C2.00004 24.7916 2.31594 25.5543 2.87795 26.1171C3.43995 26.6798 4.20219 26.9967 4.99751 26.9983C5.64737 26.9962 6.27935 26.7853 6.80024 26.3968L13.0014 21.6079V23.9954C13.0016 24.7906 13.3173 25.5532 13.8792 26.1158C14.4411 26.6785 15.2033 26.9952 15.9985 26.9964C16.622 26.9952 17.2299 26.8011 17.7387 26.4407L28.7241 18.4534C29.1176 18.1772 29.439 17.8105 29.6612 17.3841C29.8833 16.9577 29.9997 16.4841 30.0004 16.0033C30.0012 15.5225 29.8864 15.0486 29.6656 14.6214C29.4448 14.1943 29.1246 13.8265 28.7319 13.5491ZM13.0015 19.081L5.59424 24.8C5.4454 24.9101 5.26892 24.9767 5.08447 24.9924C4.90002 25.0081 4.71483 24.9723 4.54951 24.889C4.3842 24.8057 4.24526 24.6781 4.14815 24.5205C4.05104 24.3629 3.99959 24.1814 3.99951 23.9963V8.00413C3.99757 7.8185 4.04816 7.63611 4.14544 7.478C4.24273 7.31989 4.38274 7.19252 4.54932 7.11058C4.69126 7.03836 4.84808 7.00024 5.00732 6.99925C5.21277 6.999 5.4128 7.06511 5.57764 7.18773L13.0015 12.9156V19.081ZM27.5621 16.8264L16.5757 24.8137C16.4259 24.9189 16.2501 24.981 16.0675 24.9932C15.8848 25.0054 15.7024 24.9672 15.54 24.8827C15.3776 24.7983 15.2414 24.6709 15.1465 24.5144C15.0515 24.3579 15.0014 24.1784 15.0015 23.9953V8.00413C14.9997 7.82064 15.0492 7.6403 15.1445 7.48345C15.2397 7.3266 15.3769 7.19949 15.5405 7.11644C15.685 7.041 15.8453 7.00116 16.0083 7.00023C16.2069 7.00011 16.4007 7.06152 16.563 7.17601L27.562 15.1711L27.5757 15.1809C27.7081 15.274 27.8159 15.3978 27.8899 15.5417C27.9639 15.6856 28.0018 15.8454 28.0005 16.0072C27.9992 16.169 27.9586 16.3281 27.8822 16.4708C27.8058 16.6135 27.696 16.7355 27.5621 16.8264Z" fill="#0F0F0F"/>
</svg>
