<svg width="32" height="32" viewBox="0 0 32 32" fill="none" xmlns="http://www.w3.org/2000/svg">
<path d="M4.5 7C4.5 4.51472 6.51472 2.5 9 2.5H23C25.4853 2.5 27.5 4.51472 27.5 7V25C27.5 27.4853 25.4853 29.5 23 29.5H9C6.51472 29.5 4.5 27.4853 4.5 25V7ZM22.4466 18.1818H20.8671V24H24.7989V22.7273H22.4466V18.1818ZM13.414 18.1818V24H14.9594V20.6136H15.0049L16.3003 23.9545H17.2321L18.5276 20.6364H18.573V24H20.1185V18.1818H18.1526L16.8003 21.4773H16.7321L15.3799 18.1818H13.414ZM9.96012 19.875L9.00557 18.1818H7.23284L8.96012 21.0909L7.17603 24H8.97148L9.96012 22.2727H10.0056L10.9942 24H12.801L10.9942 21.0909L12.7328 18.1818H10.9715L10.0056 19.875H9.96012Z" fill="#0F0F0F"/>
</svg>
