<svg width="32" height="32" viewBox="0 0 32 32" fill="none" xmlns="http://www.w3.org/2000/svg">
<path d="M19.4453 19.7102C19.415 19.4413 19.29 19.2329 19.0703 19.0852C18.8506 18.9356 18.5741 18.8608 18.2408 18.8608C18.0021 18.8608 17.7957 18.8987 17.6214 18.9744C17.4472 19.0483 17.3118 19.1506 17.2152 19.2812C17.1205 19.41 17.0732 19.5568 17.0732 19.7216C17.0732 19.8598 17.1054 19.9792 17.1697 20.0795C17.236 20.1799 17.3222 20.2642 17.4283 20.3324C17.5362 20.3987 17.6518 20.4545 17.7749 20.5C17.898 20.5436 18.0163 20.5795 18.13 20.6079L18.6982 20.7557C18.8838 20.8011 19.0741 20.8627 19.2692 20.9403C19.4643 21.018 19.6451 21.1203 19.8118 21.2472C19.9785 21.374 20.1129 21.5312 20.2152 21.7187C20.3194 21.9062 20.3714 22.1307 20.3714 22.392C20.3714 22.7216 20.2862 23.0142 20.1158 23.2699C19.9472 23.5256 19.7019 23.7273 19.38 23.875C19.0599 24.0227 18.6726 24.0966 18.218 24.0966C17.7824 24.0966 17.4055 24.0275 17.0874 23.8892C16.7692 23.7509 16.5201 23.5549 16.3402 23.3011C16.1603 23.0454 16.0608 22.7424 16.0419 22.392H16.9226C16.9396 22.6023 17.0078 22.7775 17.1271 22.9176C17.2483 23.0559 17.4027 23.1591 17.5902 23.2273C17.7796 23.2936 17.987 23.3267 18.2124 23.3267C18.4605 23.3267 18.6811 23.2879 18.8743 23.2102C19.0694 23.1307 19.2228 23.0208 19.3345 22.8807C19.4463 22.7386 19.5021 22.5729 19.5021 22.3835C19.5021 22.2112 19.4529 22.0701 19.3544 21.9602C19.2578 21.8504 19.1262 21.7595 18.9595 21.6875C18.7947 21.6155 18.6082 21.5521 18.3999 21.4972L17.7124 21.3097C17.2465 21.1828 16.8771 20.9962 16.6044 20.75C16.3336 20.5038 16.1982 20.178 16.1982 19.7727C16.1982 19.4375 16.2891 19.1449 16.4709 18.8949C16.6527 18.6449 16.8989 18.4507 17.2095 18.3125C17.5201 18.1723 17.8705 18.1023 18.2607 18.1023C18.6546 18.1023 19.0021 18.1714 19.3033 18.3097C19.6063 18.4479 19.8449 18.6382 20.0192 18.8807C20.1934 19.1212 20.2843 19.3977 20.2919 19.7102H19.4453Z" fill="#0F0F0F"/>
<path d="M14.9943 18.1818H14.1193V22.3068C14.1193 22.5284 14.0852 22.7159 14.017 22.8693C13.9489 23.0227 13.8494 23.1392 13.7188 23.2187C13.59 23.2964 13.4328 23.3352 13.2472 23.3352C13.0767 23.3352 12.9252 23.303 12.7926 23.2386C12.6619 23.1723 12.5587 23.0805 12.483 22.9631C12.4091 22.8456 12.3722 22.7064 12.3722 22.5454H11.5C11.5 22.8731 11.5748 23.1515 11.7244 23.3807C11.8759 23.6079 12.0814 23.7812 12.3409 23.9006C12.6023 24.0199 12.8968 24.0795 13.2244 24.0795C13.5805 24.0795 13.8911 24.0104 14.1562 23.8722C14.4214 23.732 14.6269 23.5293 14.7727 23.2642C14.9205 22.999 14.9943 22.6799 14.9943 22.3068V18.1818Z" fill="#0F0F0F"/>
<path d="M4.5 7V25C4.5 27.4853 6.51472 29.5 9 29.5H23C25.4853 29.5 27.5 27.4853 27.5 25V7C27.5 4.51472 25.4853 2.5 23 2.5H9C6.51472 2.5 4.5 4.51472 4.5 7ZM9 3.5H23C24.933 3.5 26.5 5.067 26.5 7V25C26.5 26.933 24.933 28.5 23 28.5H9C7.067 28.5 5.5 26.933 5.5 25V7C5.5 5.067 7.067 3.5 9 3.5Z" fill="#0F0F0F"/>
</svg>
