<svg width="32" height="32" viewBox="0 0 32 32" fill="none" xmlns="http://www.w3.org/2000/svg">
<path d="M19.8999 6.75001C18.105 6.75001 16.6499 8.20509 16.6499 10C16.6499 11.7949 18.105 13.25 19.8999 13.25C21.6948 13.25 23.1499 11.7949 23.1499 10C23.1499 8.20509 21.6948 6.75001 19.8999 6.75001ZM18.1499 10C18.1499 9.03351 18.9334 8.25001 19.8999 8.25001C20.8664 8.25001 21.6499 9.03351 21.6499 10C21.6499 10.9665 20.8664 11.75 19.8999 11.75C18.9334 11.75 18.1499 10.9665 18.1499 10Z" fill="#0F0F0F"/>
<path d="M2.50881 0.433245C2.82183 0.161964 3.2955 0.195797 3.56678 0.508814L6.13395 3.47093C7.04527 2.70876 8.21907 2.25001 9.50001 2.25001H22.5C25.3995 2.25001 27.75 4.60052 27.75 7.50001V24.5C27.75 25.5734 27.4279 26.5715 26.8751 27.403L29.5668 30.5088C29.8381 30.8218 29.8042 31.2955 29.4912 31.5668C29.1824 31.8344 28.7172 31.8051 28.4443 31.5037L3.56677 2.79884C3.56311 2.79462 3.55942 2.79046 3.55569 2.78634L2.43324 1.49121C2.16196 1.17819 2.1958 0.704526 2.50881 0.433245ZM7.11659 4.60474L18.6197 17.8775L20.9945 16.0784C22.1826 15.1784 23.8714 15.3886 24.8025 16.5525L26.25 18.3619V7.50001C26.25 5.42894 24.5711 3.75001 22.5 3.75001H9.50001C8.59481 3.75001 7.76453 4.07073 7.11659 4.60474ZM19.6042 19.0135L25.8394 26.208C26.1019 25.6957 26.25 25.1152 26.25 24.5V20.7631L23.6312 17.4896C23.208 16.9605 22.4403 16.865 21.9003 17.2741L19.6042 19.0135Z" fill="#0F0F0F"/>
<path d="M4.43973 6.09643C4.31608 6.5432 4.25001 7.01389 4.25001 7.50001V24.5C4.25001 27.3995 6.60052 29.75 9.50001 29.75H22.5C23.2357 29.75 23.936 29.5987 24.5716 29.3255L23.5183 28.1101C23.1945 28.2013 22.8529 28.25 22.5 28.25H9.50001C8.92378 28.25 8.37791 28.12 7.89011 27.8878L17.2079 20.8289L16.2234 19.6929L13.9647 21.404L11.4446 18.8839C10.3706 17.81 8.62941 17.81 7.55547 18.8839L5.75001 20.6894V7.60829L4.43973 6.09643ZM10.3839 19.9446L12.7577 22.3184L6.65423 26.9423C6.09061 26.2861 5.75001 25.4328 5.75001 24.5V22.8107L8.61613 19.9446C9.10428 19.4564 9.89574 19.4564 10.3839 19.9446Z" fill="#0F0F0F"/>
</svg>
