<svg width="32" height="32" viewBox="0 0 32 32" fill="none" xmlns="http://www.w3.org/2000/svg">
<path d="M12.0035 14.0029L12.0006 21.999L19.9996 18L12.0035 14.0029Z" fill="#0F0F0F"/>
<path d="M23.0005 2.49976H9.00049C7.80741 2.50106 6.66358 2.97559 5.81995 3.81922C4.97632 4.66285 4.50179 5.80668 4.50049 6.99976V24.9998C4.50179 26.1928 4.97631 27.3367 5.81995 28.1803C6.66358 29.0239 7.80741 29.4985 9.00049 29.4998H23.0005C24.1936 29.4985 25.3374 29.0239 26.181 28.1803C27.0247 27.3367 27.4992 26.1928 27.5005 24.9998V6.99976C27.4992 5.80668 27.0247 4.66285 26.181 3.81921C25.3374 2.97558 24.1936 2.50106 23.0005 2.49976ZM12.902 12.2159L20.901 16.2149C21.2313 16.3816 21.5089 16.6367 21.7028 16.9518C21.8968 17.2669 21.9995 17.6296 21.9996 17.9997C21.9997 18.3697 21.8972 18.7325 21.7034 19.0477C21.5096 19.3629 21.2322 19.6182 20.902 19.7851L12.8981 23.7861C12.5933 23.9402 12.254 24.0136 11.9128 23.9992C11.5716 23.9848 11.2397 23.883 10.949 23.7037C10.6583 23.5244 10.4185 23.2736 10.2524 22.9751C10.0864 22.6766 9.99969 22.3406 10.0006 21.999V14.001C10.0007 13.6595 10.0882 13.3236 10.2549 13.0255C10.4215 12.7274 10.6618 12.4769 10.9526 12.298C11.2435 12.119 11.5754 12.0175 11.9166 12.0031C12.2579 11.9887 12.5971 12.062 12.902 12.2159Z" fill="#0F0F0F"/>
</svg>
