<svg width="32" height="32" viewBox="0 0 32 32" fill="none" xmlns="http://www.w3.org/2000/svg">
<path d="M19.1988 20C19.1837 19.8106 19.1126 19.6629 18.9857 19.5568C18.8607 19.4507 18.6704 19.3977 18.4147 19.3977C18.2518 19.3977 18.1183 19.4176 18.0141 19.4574C17.9119 19.4953 17.8361 19.5473 17.7869 19.6136C17.7376 19.6799 17.7121 19.7557 17.7102 19.8409C17.7064 19.911 17.7187 19.9744 17.7471 20.0312C17.7774 20.0862 17.8248 20.1364 17.8891 20.1818C17.9535 20.2254 18.0359 20.2651 18.1363 20.3011C18.2367 20.3371 18.356 20.3693 18.4943 20.3977L18.9715 20.5C19.2935 20.5682 19.5691 20.6581 19.7982 20.7699C20.0274 20.8816 20.2149 21.0133 20.3607 21.1648C20.5066 21.3144 20.6136 21.4829 20.6818 21.6704C20.7518 21.8579 20.7878 22.0625 20.7897 22.2841C20.7878 22.6667 20.6922 22.9905 20.5028 23.2557C20.3134 23.5208 20.0426 23.7225 19.6903 23.8608C19.3399 23.999 18.9185 24.0682 18.4261 24.0682C17.9204 24.0682 17.4791 23.9934 17.1022 23.8437C16.7272 23.6941 16.4355 23.464 16.2272 23.1534C16.0208 22.8409 15.9166 22.4413 15.9147 21.9545H17.4147C17.4242 22.1326 17.4687 22.2822 17.5482 22.4034C17.6278 22.5246 17.7395 22.6165 17.8835 22.679C18.0293 22.7415 18.2026 22.7727 18.4033 22.7727C18.5719 22.7727 18.713 22.7519 18.8266 22.7102C18.9403 22.6686 19.0265 22.6108 19.0852 22.5369C19.1439 22.4631 19.1742 22.3788 19.1761 22.2841C19.1742 22.1951 19.1448 22.1174 19.088 22.0511C19.0331 21.9829 18.9422 21.9223 18.8153 21.8693C18.6884 21.8144 18.517 21.7632 18.3011 21.7159L17.7215 21.5909C17.2064 21.4792 16.8001 21.2926 16.5028 21.0312C16.2073 20.768 16.0605 20.4091 16.0624 19.9545C16.0605 19.5852 16.159 19.2623 16.3579 18.9858C16.5587 18.7074 16.8361 18.4905 17.1903 18.3352C17.5463 18.1799 17.9545 18.1023 18.4147 18.1023C18.8844 18.1023 19.2907 18.1809 19.6335 18.3381C19.9763 18.4953 20.2405 18.7168 20.4261 19.0028C20.6136 19.2869 20.7083 19.6193 20.7102 20H19.1988Z" fill="#0F0F0F"/>
<path d="M15.3139 18.1818H13.757V22.1704C13.7551 22.3201 13.7334 22.446 13.6917 22.5483C13.65 22.6487 13.5885 22.7244 13.507 22.7756C13.4275 22.8267 13.329 22.8523 13.2116 22.8523C13.0961 22.8523 12.9976 22.8276 12.9161 22.7784C12.8366 22.7273 12.7741 22.6515 12.7286 22.5511C12.6851 22.4508 12.6605 22.3276 12.6548 22.1818H11.0752C11.0733 22.6288 11.1642 22.9924 11.348 23.2727C11.5317 23.5511 11.7779 23.7557 12.0866 23.8864C12.3953 24.0151 12.7362 24.0795 13.1093 24.0795C13.5392 24.0795 13.919 24 14.2485 23.8409C14.58 23.6799 14.8394 23.4564 15.0269 23.1704C15.2163 22.8826 15.312 22.5492 15.3139 22.1704V18.1818Z" fill="#0F0F0F"/>
<path d="M4 7C4 4.23858 6.23858 2 9 2H23C25.7614 2 28 4.23858 28 7V25C28 27.7614 25.7614 30 23 30H9C6.23858 30 4 27.7614 4 25V7ZM9 4C7.34315 4 6 5.34315 6 7V25C6 26.6569 7.34315 28 9 28H23C24.6569 28 26 26.6569 26 25V7C26 5.34315 24.6569 4 23 4H9Z" fill="#0F0F0F"/>
</svg>
