<svg width="32" height="32" viewBox="0 0 32 32" fill="none" xmlns="http://www.w3.org/2000/svg">
<path d="M22.9995 1.99951H8.99951C7.67391 2.00107 6.40304 2.52836 5.4657 3.4657C4.52836 4.40304 4.00107 5.67391 3.99951 6.99951V24.9995C4.00107 26.3251 4.52836 27.596 5.4657 28.5333C6.40304 29.4707 7.67391 29.998 8.99951 29.9995H22.9995C24.3251 29.998 25.596 29.4707 26.5333 28.5333C27.4707 27.596 27.998 26.3251 27.9995 24.9995V6.99951C27.998 5.67391 27.4707 4.40304 26.5333 3.4657C25.596 2.52836 24.3251 2.00107 22.9995 1.99951ZM25.9995 24.9995C25.9986 25.7949 25.6823 26.5575 25.1199 27.1199C24.5575 27.6823 23.7949 27.9986 22.9995 27.9995H8.99951C8.20413 27.9986 7.44157 27.6823 6.87915 27.1199C6.31673 26.5575 6.00038 25.7949 5.99951 24.9995V6.99951C6.00038 6.20413 6.31673 5.44157 6.87915 4.87915C7.44157 4.31673 8.20413 4.00038 8.99951 3.99951H22.9995C23.7949 4.00038 24.5575 4.31673 25.1199 4.87915C25.6823 5.44157 25.9986 6.20413 25.9995 6.99951V24.9995Z" fill="#0F0F0F"/>
<path d="M21.9995 14.0005H15.9995C15.7343 14.0005 15.4799 14.1058 15.2924 14.2934C15.1049 14.4809 14.9995 14.7353 14.9995 15.0005C14.9995 15.2657 15.1049 15.5201 15.2924 15.7076C15.4799 15.8951 15.7343 16.0005 15.9995 16.0005H21.9995C22.2647 16.0005 22.5191 15.8951 22.7066 15.7076C22.8942 15.5201 22.9995 15.2657 22.9995 15.0005C22.9995 14.7353 22.8942 14.4809 22.7066 14.2934C22.5191 14.1058 22.2647 14.0005 21.9995 14.0005Z" fill="#0F0F0F"/>
<path d="M11.9995 14.0005H9.99951C9.7343 14.0005 9.47994 14.1058 9.29241 14.2934C9.10487 14.4809 8.99951 14.7353 8.99951 15.0005C8.99951 15.2657 9.10487 15.5201 9.29241 15.7076C9.47994 15.8951 9.7343 16.0005 9.99951 16.0005H11.9995C12.2647 16.0005 12.5191 15.8951 12.7066 15.7076C12.8942 15.5201 12.9995 15.2657 12.9995 15.0005C12.9995 14.7353 12.8942 14.4809 12.7066 14.2934C12.5191 14.1058 12.2647 14.0005 11.9995 14.0005Z" fill="#0F0F0F"/>
<path d="M11.9995 18.0005H9.99951C9.7343 18.0005 9.47994 18.1058 9.29241 18.2934C9.10487 18.4809 8.99951 18.7353 8.99951 19.0005C8.99951 19.2657 9.10487 19.5201 9.29241 19.7076C9.47994 19.8951 9.7343 20.0005 9.99951 20.0005H11.9995C12.2647 20.0005 12.5191 19.8951 12.7066 19.7076C12.8942 19.5201 12.9995 19.2657 12.9995 19.0005C12.9995 18.7353 12.8942 18.4809 12.7066 18.2934C12.5191 18.1058 12.2647 18.0005 11.9995 18.0005Z" fill="#0F0F0F"/>
<path d="M11.9995 22.0005H9.99951C9.7343 22.0005 9.47994 22.1058 9.29241 22.2934C9.10487 22.4809 8.99951 22.7353 8.99951 23.0005C8.99951 23.2657 9.10487 23.5201 9.29241 23.7076C9.47994 23.8951 9.7343 24.0005 9.99951 24.0005H11.9995C12.2647 24.0005 12.5191 23.8951 12.7066 23.7076C12.8942 23.5201 12.9995 23.2657 12.9995 23.0005C12.9995 22.7353 12.8942 22.4809 12.7066 22.2934C12.5191 22.1058 12.2647 22.0005 11.9995 22.0005Z" fill="#0F0F0F"/>
<path d="M21.9995 18.0005H15.9995C15.7343 18.0005 15.4799 18.1058 15.2924 18.2934C15.1049 18.4809 14.9995 18.7353 14.9995 19.0005C14.9995 19.2657 15.1049 19.5201 15.2924 19.7076C15.4799 19.8951 15.7343 20.0005 15.9995 20.0005H21.9995C22.2647 20.0005 22.5191 19.8951 22.7066 19.7076C22.8942 19.5201 22.9995 19.2657 22.9995 19.0005C22.9995 18.7353 22.8942 18.4809 22.7066 18.2934C22.5191 18.1058 22.2647 18.0005 21.9995 18.0005Z" fill="#0F0F0F"/>
<path d="M21.9995 22.0005H15.9995C15.7343 22.0005 15.4799 22.1058 15.2924 22.2934C15.1049 22.4809 14.9995 22.7353 14.9995 23.0005C14.9995 23.2657 15.1049 23.5201 15.2924 23.7076C15.4799 23.8951 15.7343 24.0005 15.9995 24.0005H21.9995C22.2647 24.0005 22.5191 23.8951 22.7066 23.7076C22.8942 23.5201 22.9995 23.2657 22.9995 23.0005C22.9995 22.7353 22.8942 22.4809 22.7066 22.2934C22.5191 22.1058 22.2647 22.0005 21.9995 22.0005Z" fill="#0F0F0F"/>
</svg>
