<svg width="32" height="32" viewBox="0 0 32 32" fill="none" xmlns="http://www.w3.org/2000/svg">
<path d="M19.3221 19.8551C19.2994 19.6259 19.2019 19.4479 19.0295 19.321C18.8572 19.1941 18.6233 19.1307 18.3278 19.1307C18.127 19.1307 17.9575 19.1591 17.8193 19.2159C17.681 19.2708 17.575 19.3475 17.5011 19.446C17.4291 19.5445 17.3931 19.6562 17.3931 19.7812C17.3894 19.8854 17.4111 19.9763 17.4585 20.054C17.5077 20.1316 17.575 20.1989 17.6602 20.2557C17.7454 20.3106 17.8439 20.3589 17.9556 20.4006C18.0674 20.4403 18.1867 20.4744 18.3136 20.5028L18.8363 20.6278C19.0901 20.6847 19.3231 20.7604 19.5352 20.8551C19.7473 20.9498 19.931 21.0663 20.0863 21.2045C20.2416 21.3428 20.3619 21.5057 20.4471 21.6932C20.5342 21.8807 20.5787 22.0956 20.5806 22.3381C20.5787 22.6941 20.4878 23.0028 20.3079 23.2642C20.1299 23.5237 19.8723 23.7254 19.5352 23.8693C19.2 24.0114 18.7956 24.0824 18.3221 24.0824C17.8524 24.0824 17.4433 24.0104 17.0948 23.8665C16.7483 23.7225 16.4774 23.5095 16.2823 23.2273C16.0892 22.9432 15.9878 22.5918 15.9784 22.1733H17.1687C17.182 22.3684 17.2378 22.5312 17.3363 22.6619C17.4367 22.7907 17.5702 22.8883 17.7369 22.9545C17.9055 23.0189 18.0958 23.0511 18.3079 23.0511C18.5162 23.0511 18.6971 23.0208 18.8505 22.9602C19.0058 22.8996 19.1261 22.8153 19.2113 22.7074C19.2966 22.5994 19.3392 22.4754 19.3392 22.3352C19.3392 22.2045 19.3003 22.0947 19.2227 22.0057C19.1469 21.9167 19.0352 21.8409 18.8875 21.7784C18.7416 21.7159 18.5627 21.6591 18.3505 21.6079L17.717 21.4489C17.2265 21.3295 16.8392 21.143 16.5551 20.8892C16.271 20.6354 16.1299 20.2936 16.1318 19.8636C16.1299 19.5114 16.2236 19.2036 16.413 18.9403C16.6043 18.6771 16.8666 18.4716 17.2 18.3239C17.5333 18.1761 17.9121 18.1023 18.3363 18.1023C18.7681 18.1023 19.145 18.1761 19.467 18.3239C19.7909 18.4716 20.0428 18.6771 20.2227 18.9403C20.4026 19.2036 20.4954 19.5085 20.5011 19.8551H19.3221Z" fill="#0F0F0F"/>
<path d="M15.1488 18.1818H13.9329V22.2386C13.9329 22.4242 13.9055 22.5805 13.8505 22.7074C13.7956 22.8343 13.7151 22.9309 13.6091 22.9972C13.5049 23.0615 13.377 23.0937 13.2255 23.0937C13.0816 23.0937 12.9566 23.0653 12.8505 23.0085C12.7464 22.9498 12.664 22.8665 12.6034 22.7585C12.5447 22.6487 12.5134 22.517 12.5096 22.3636H11.2852C11.2833 22.75 11.3657 23.071 11.5323 23.3267C11.699 23.5805 11.9244 23.7699 12.2085 23.8949C12.4945 24.018 12.8127 24.0795 13.163 24.0795C13.557 24.0795 13.9026 24.0047 14.2 23.8551C14.4973 23.7055 14.7293 23.4924 14.896 23.2159C15.0645 22.9394 15.1488 22.6136 15.1488 22.2386V18.1818Z" fill="#0F0F0F"/>
<path d="M4.25 7C4.25 4.37665 6.37665 2.25 9 2.25H23C25.6234 2.25 27.75 4.37665 27.75 7V25C27.75 27.6234 25.6234 29.75 23 29.75H9C6.37665 29.75 4.25 27.6234 4.25 25V7ZM9 3.75C7.20507 3.75 5.75 5.20507 5.75 7V25C5.75 26.7949 7.20507 28.25 9 28.25H23C24.7949 28.25 26.25 26.7949 26.25 25V7C26.25 5.20507 24.7949 3.75 23 3.75H9Z" fill="#0F0F0F"/>
</svg>
