<svg width="32" height="32" viewBox="0 0 32 32" fill="none" xmlns="http://www.w3.org/2000/svg">
<path d="M22.9998 1.99953H8.99976C7.67415 2.00109 6.40329 2.52837 5.46594 3.46571C4.5286 4.40306 4.00131 5.67392 3.99976 6.99953V24.9995C4.00131 26.3251 4.5286 27.596 5.46594 28.5333C6.40329 29.4707 7.67415 29.998 8.99976 29.9995H22.9998C24.3254 29.998 25.5962 29.4707 26.5336 28.5333C27.4709 27.596 27.9982 26.3251 27.9998 24.9995V6.99953C27.9982 5.67392 27.4709 4.40306 26.5336 3.46571C25.5962 2.52837 24.3254 2.00109 22.9998 1.99953ZM25.9998 24.9995C25.9989 25.7949 25.6825 26.5575 25.1201 27.1199C24.5577 27.6823 23.7951 27.9987 22.9998 27.9995H8.99976C8.20437 27.9987 7.44182 27.6823 6.87939 27.1199C6.31697 26.5575 6.00062 25.7949 5.99976 24.9995V6.99953C6.00062 6.20414 6.31697 5.44159 6.87939 4.87917C7.44182 4.31674 8.20437 4.0004 8.99976 3.99953H22.9998C23.7951 4.0004 24.5577 4.31674 25.1201 4.87917C25.6825 5.44159 25.9989 6.20414 25.9998 6.99953V24.9995Z" fill="#0F0F0F"/>
<path d="M20.9998 21.9995H19.4778C19.4778 21.9995 20.9216 18.3862 20.9314 18.3472C21.0038 18.0757 21.0183 17.792 20.9739 17.5146C20.9295 17.2371 20.8272 16.9721 20.6736 16.7368C20.6648 16.7232 20.655 16.7105 20.6462 16.6968L16.8093 11.4117C16.7165 11.284 16.5948 11.1802 16.4542 11.1085C16.3136 11.0369 16.158 10.9996 16.0002 10.9996C15.8424 10.9996 15.6868 11.0369 15.5462 11.1085C15.4056 11.1802 15.2839 11.284 15.1911 11.4117L11.3308 16.7261C11.1741 16.9635 11.07 17.2316 11.0253 17.5126C10.9807 17.7935 10.9966 18.0807 11.072 18.355C11.0818 18.3911 12.5226 21.9995 12.5226 21.9995H10.9998C10.7345 21.9995 10.4802 22.1049 10.2926 22.2924C10.1051 22.48 9.99976 22.7343 9.99976 22.9995C9.99976 23.2647 10.1051 23.5191 10.2926 23.7066C10.4802 23.8942 10.7345 23.9995 10.9998 23.9995H20.9998C21.265 23.9995 21.5193 23.8942 21.7069 23.7066C21.8944 23.5191 21.9998 23.2647 21.9998 22.9995C21.9998 22.7343 21.8944 22.48 21.7069 22.2924C21.5193 22.1049 21.265 21.9995 20.9998 21.9995ZM14.6765 21.9995L13.0056 17.8218L14.9998 15.0777V17.0386C14.8434 17.2433 14.7559 17.4924 14.7499 17.75C14.7499 18.0815 14.8816 18.3995 15.116 18.6339C15.3505 18.8683 15.6684 19 15.9999 19C16.3314 19 16.6494 18.8683 16.8838 18.6339C17.1182 18.3995 17.2499 18.0815 17.2499 17.75C17.2439 17.4922 17.1563 17.243 16.9997 17.0381V15.0791L18.9939 17.8257L17.323 21.9995H14.6765Z" fill="#0F0F0F"/>
</svg>
