<svg width="32" height="32" viewBox="0 0 32 32" fill="none" xmlns="http://www.w3.org/2000/svg">
<path d="M22.9956 2H8.97999C8.31866 1.99763 7.66353 2.12746 7.05309 2.38187C6.44265 2.63627 5.88921 3.01013 5.42531 3.48145C4.96693 3.94073 4.60481 4.48686 4.36015 5.08785C4.1155 5.68884 3.99322 6.33261 4.0005 6.98145V24.9707C3.99242 25.6292 4.11534 26.2827 4.3621 26.8933C4.60887 27.5039 4.97455 28.0593 5.43789 28.5273C5.90124 28.9953 6.45299 29.3665 7.06107 29.6193C7.66916 29.8721 8.32144 30.0015 8.97999 30H22.9956C24.3219 29.9991 25.5936 29.4722 26.5319 28.5349C27.4702 27.5975 27.9983 26.3263 28.0005 25V7C27.9983 5.67374 27.4702 4.40249 26.5319 3.46514C25.5936 2.52778 24.3219 2.00087 22.9956 2ZM6.84718 4.8877C7.12568 4.6052 7.45779 4.38116 7.82404 4.22872C8.19029 4.07629 8.58329 3.99853 8.97999 4H22.9956C23.7917 4.00018 24.5551 4.31616 25.1185 4.87859C25.6818 5.44102 25.999 6.20396 26.0005 7V20.8469C25.7735 20.7657 25.5659 20.6383 25.3907 20.4727C25.2155 20.307 25.0767 20.1069 24.9829 19.8848L23.2036 15.4698C22.8812 14.7331 22.3504 14.1069 21.6765 13.6681C21.0027 13.2293 20.2152 12.9971 19.4111 13.0001C18.607 13.0031 17.8213 13.2412 17.1508 13.685C16.4803 14.1288 15.9541 14.7591 15.6372 15.4981L13.8814 19.8672C13.7452 20.2394 13.4865 20.5543 13.1477 20.76C12.8089 20.9657 12.4102 21.05 12.0171 20.999C11.5908 21.0157 11.1688 20.9085 10.8021 20.6905C10.4354 20.4725 10.1397 20.153 9.9507 19.7705L8.8257 16.6758C8.59379 16.0574 8.21574 15.5043 7.72379 15.0636C7.23184 14.623 6.64059 14.3079 6.0005 14.1452V6.97071C5.99576 6.58461 6.06822 6.20147 6.21362 5.84376C6.35902 5.48606 6.57442 5.16101 6.84718 4.8877ZM22.9956 28H8.97999C8.58503 28.0014 8.19377 27.9239 7.82911 27.7722C7.46444 27.6205 7.13371 27.3976 6.85625 27.1165C6.5788 26.8354 6.3602 26.5018 6.21326 26.1352C6.06632 25.7686 5.99399 25.3763 6.0005 24.9814V16.2722C6.44131 16.5079 6.7794 16.8982 6.94972 17.3682L8.07472 20.4639C8.39096 21.2298 8.93176 21.8819 9.62591 22.3345C10.3201 22.787 11.135 23.0187 11.9634 22.999C12.7585 23.05 13.5496 22.8498 14.2246 22.4265C14.8997 22.0033 15.4246 21.3785 15.7251 20.6406L17.481 16.2724C17.6454 15.8965 17.9153 15.5763 18.2579 15.3505C18.6005 15.1246 19.0012 15.0029 19.4115 15C19.8219 14.9971 20.2243 15.1132 20.57 15.3342C20.9158 15.5551 21.1901 15.8715 21.3599 16.2451L23.1392 20.6592C23.3917 21.2422 23.7856 21.7531 24.2852 22.1458C24.7847 22.5384 25.3743 22.8004 26.0005 22.9081V25C25.999 25.796 25.6818 26.559 25.1185 27.1214C24.5551 27.6838 23.7917 27.9998 22.9956 28Z" fill="#0F0F0F"/>
</svg>
