<svg width="32" height="32" viewBox="0 0 32 32" fill="none" xmlns="http://www.w3.org/2000/svg">
<path d="M21.9859 18.1818H20.7558V24H24.4802V22.9858H21.9859V18.1818Z" fill="#0F0F0F"/>
<path d="M13.4355 18.1818H14.9525L16.5548 22.0909H16.623L18.2253 18.1818H19.7423V24H18.5491V20.2131H18.5008L16.9951 23.9716H16.1826L14.677 20.1989H14.6287V24H13.4355V18.1818Z" fill="#0F0F0F"/>
<path d="M10.0434 20.1648L8.87014 18.1818H7.47525L9.26219 21.0909L7.44116 24H8.85025L10.0434 22.0142H10.0889L11.2821 24H12.6968L10.8815 21.0909L12.6571 18.1818H11.2679L10.0889 20.1648H10.0434Z" fill="#0F0F0F"/>
<path d="M9 2.25C6.37665 2.25 4.25 4.37665 4.25 7V25C4.25 27.6234 6.37665 29.75 9 29.75H23C25.6234 29.75 27.75 27.6234 27.75 25V7C27.75 4.37665 25.6234 2.25 23 2.25H9ZM5.75 7C5.75 5.20507 7.20507 3.75 9 3.75H23C24.7949 3.75 26.25 5.20507 26.25 7V25C26.25 26.7949 24.7949 28.25 23 28.25H9C7.20507 28.25 5.75 26.7949 5.75 25V7Z" fill="#0F0F0F"/>
</svg>
