<svg width="32" height="32" viewBox="0 0 32 32" fill="none" xmlns="http://www.w3.org/2000/svg">
<path d="M23 29.5H9C7.80693 29.4987 6.66309 29.0242 5.81946 28.1805C4.97583 27.3369 4.5013 26.1931 4.5 25V7C4.5013 5.80692 4.97582 4.66309 5.81945 3.81945C6.66309 2.97582 7.80692 2.5013 9 2.5H23C24.1931 2.5013 25.3369 2.97583 26.1805 3.81946C27.0242 4.66309 27.4987 5.80693 27.5 7V25C27.4987 26.1931 27.0242 27.3369 26.1805 28.1805C25.3369 29.0242 24.1931 29.4987 23 29.5ZM9 3.5C8.07209 3.50112 7.1825 3.87023 6.52637 4.52637C5.87023 5.1825 5.50112 6.07209 5.5 7V25C5.50112 25.9279 5.87023 26.8175 6.52637 27.4736C7.1825 28.1298 8.07209 28.4989 9 28.5H23C23.9279 28.4989 24.8175 28.1298 25.4736 27.4736C26.1298 26.8175 26.4989 25.9279 26.5 25V7C26.4989 6.07209 26.1298 5.1825 25.4736 4.52637C24.8175 3.87023 23.9279 3.50112 23 3.5H9Z" fill="#0F0F0F"/>
<path d="M18.3096 15.3428H19.4014V23.9824H17.8535L13.6895 16.7461V23.9824H12.5742V15.3428H14.1934L18.3096 22.5186V15.3428Z" fill="#0F0F0F"/>
</svg>
