<svg width="32" height="32" viewBox="0 0 32 32" fill="none" xmlns="http://www.w3.org/2000/svg">
<path d="M9.60156 29.6641H22.3857C24.7725 29.6641 25.9785 28.4326 25.9785 26.0332V14.8867H17.3584C15.9111 14.8867 15.2129 14.2012 15.2129 12.7412V4.03223H9.60156C7.22754 4.03223 6.00879 5.26367 6.00879 7.66309V26.0332C6.00879 28.4453 7.21484 29.6641 9.60156 29.6641ZM17.4092 13.4014H25.8262C25.7627 12.957 25.4453 12.5381 24.9502 12.043L18.0693 5.06055C17.5869 4.57812 17.1426 4.24805 16.6982 4.17188V12.6904C16.6982 13.1729 16.9395 13.4014 17.4092 13.4014ZM12.4326 25.957V21.8945C12.4326 21.1455 12.7373 20.8027 13.3594 20.7646V19.5078C13.3594 17.6924 14.4639 16.4736 16.0889 16.4736C17.7139 16.4736 18.8184 17.6924 18.8184 19.5078V20.7646C19.4404 20.8027 19.7451 21.1455 19.7451 21.8945V25.957C19.7451 26.7314 19.415 27.0869 18.7041 27.0869H13.4863C12.7754 27.0869 12.4326 26.7314 12.4326 25.957ZM14.3115 20.7646H17.8662V19.4189C17.8662 18.2129 17.1553 17.4004 16.0889 17.4004C15.0225 17.4004 14.3115 18.2129 14.3115 19.4189V20.7646Z" fill="black"/>
</svg>
