<svg width="32" height="32" viewBox="0 0 32 32" fill="none" xmlns="http://www.w3.org/2000/svg">
<path d="M10.3239 4C9.93336 4.39053 9.93336 5.02369 10.3239 5.41421L12.5967 7.68705L4.3943 15.8895C3.22273 17.061 3.22273 18.9605 4.39431 20.1321L11.8896 27.6274C13.0612 28.799 14.9607 28.799 16.1322 27.6274L25.0418 18.7179C25.4323 18.3274 25.4323 17.6942 25.0418 17.3037L11.7381 4C11.3476 3.60948 10.7144 3.60948 10.3239 4ZM21.9097 17L6.11219 17L14.0109 9.10126L21.9097 17Z" fill="#0F0F0F"/>
<path d="M24.7931 20.2929C25.1836 19.9024 25.8168 19.9024 26.2073 20.2929C26.2355 20.3211 26.2707 20.3557 26.3121 20.3962L26.3132 20.3973C26.6049 20.6835 27.1977 21.265 27.7346 21.9735C28.3265 22.7545 29.0002 23.877 29.0002 25.0968C29.0002 27.4894 27.3445 29 25.5002 29C23.6251 29 22.0002 27.3221 22.0002 25.0968C22.0002 23.9212 22.6799 22.7955 23.261 22.0162C23.8334 21.2485 24.4616 20.623 24.74 20.3458L24.7931 20.2929Z" fill="#0F0F0F"/>
</svg>
