<svg width="32" height="32" viewBox="0 0 32 32" fill="none" xmlns="http://www.w3.org/2000/svg">
<path d="M12.5967 7.68705L10.3239 5.41421C9.93336 5.02369 9.93336 4.39052 10.3239 4C10.7144 3.60947 11.3476 3.60948 11.7381 4L25.0418 17.3037C25.4323 17.6942 25.4323 18.3274 25.0418 18.7179L16.1322 27.6274C14.9607 28.799 13.0612 28.799 11.8896 27.6274L4.39431 20.1321C3.22273 18.9605 3.22273 17.061 4.3943 15.8895L12.5967 7.68705ZM6.11219 17L21.9097 17L14.0109 9.10126L6.11219 17ZM21.9312 19L6.09064 19L13.3038 26.2132C13.6943 26.6037 14.3275 26.6037 14.718 26.2132L21.9312 19Z" fill="#0F0F0F"/>
<path d="M24.7931 20.2929C25.1836 19.9024 25.8168 19.9024 26.2073 20.2929C26.2355 20.3211 26.2707 20.3557 26.3121 20.3962L26.3132 20.3973C26.6049 20.6835 27.1977 21.265 27.7346 21.9735C28.3265 22.7545 29.0002 23.877 29.0002 25.0968C29.0002 27.4894 27.3445 29 25.5002 29C23.6251 29 22.0002 27.3221 22.0002 25.0968C22.0002 23.9212 22.6799 22.7955 23.261 22.0162C23.8334 21.2485 24.4616 20.623 24.74 20.3458L24.7931 20.2929ZM24.8643 23.2117C24.3204 23.9412 24.0002 24.6138 24.0002 25.0968C24.0002 26.3689 24.8752 27 25.5002 27C26.1559 27 27.0002 26.4709 27.0002 25.0968C27.0002 24.5609 26.6738 23.885 26.1407 23.1815C25.9308 22.9046 25.7121 22.6526 25.5083 22.4327C25.3012 22.662 25.0775 22.9259 24.8643 23.2117Z" fill="#0F0F0F"/>
</svg>
