<svg width="32" height="32" viewBox="0 0 32 32" fill="none" xmlns="http://www.w3.org/2000/svg">
<path d="M16 29.0801C22.9697 29.0801 28.7334 23.3164 28.7334 16.3467C28.7334 9.37695 22.9697 3.61328 15.9873 3.61328C9.01758 3.61328 3.2666 9.37695 3.2666 16.3467C3.2666 23.3164 9.03027 29.0801 16 29.0801ZM16 27.4424C9.85547 27.4424 4.91699 22.4912 4.91699 16.3467C4.91699 10.2021 9.85547 5.26367 15.9873 5.26367C22.1318 5.26367 27.083 10.2021 27.0957 16.3467C27.0957 22.4912 22.1445 27.4424 16 27.4424ZM11.0615 23.1133C11.3535 23.1133 11.5566 22.8848 11.5566 22.6309V18.7461C11.8105 18.6445 12.3311 18.4668 13.1689 18.4668C15.4541 18.4668 16.8633 19.6094 19.1104 19.6094C20.0244 19.6094 20.4688 19.5078 20.9385 19.292C21.4336 19.0508 21.6621 18.7461 21.6621 18.251V11.9668C21.6621 11.624 21.4082 11.3955 21.0146 11.3955C20.6973 11.3955 20.1133 11.6748 19.0469 11.6748C16.8379 11.6748 15.4287 10.5195 13.1055 10.5195C12.1533 10.5195 11.7344 10.6465 11.29 10.8369C10.8076 11.0527 10.5664 11.4082 10.5664 11.8652V22.6309C10.5664 22.8848 10.7822 23.1133 11.0615 23.1133Z" fill="black"/>
</svg>
