<svg width="32" height="32" viewBox="0 0 32 32" fill="none" xmlns="http://www.w3.org/2000/svg">
<path d="M16 29.0928C22.9697 29.0928 28.7334 23.3418 28.7334 16.3594C28.7334 9.38965 22.9697 3.62598 15.9873 3.62598C9.01758 3.62598 3.2666 9.38965 3.2666 16.3594C3.2666 23.3418 9.03027 29.0928 16 29.0928ZM11.0615 23.1895C10.7822 23.1895 10.5664 22.9609 10.5664 22.707V11.8652C10.5664 11.4082 10.8076 11.0527 11.29 10.8369C11.7344 10.6465 12.1533 10.5195 13.1055 10.5195C15.4287 10.5195 16.8379 11.6748 19.0469 11.6748C20.1133 11.6748 20.6973 11.3955 21.0146 11.3955C21.4082 11.3955 21.6621 11.624 21.6621 11.9668V18.251C21.6621 18.7461 21.4336 19.0635 20.9385 19.292C20.4688 19.5078 20.0244 19.6094 19.1104 19.6094C16.8633 19.6094 15.4541 18.4668 13.1689 18.4668C12.3311 18.4668 11.8105 18.6445 11.5566 18.7461V22.707C11.5566 22.9736 11.3535 23.1895 11.0615 23.1895Z" fill="black"/>
</svg>
