<svg width="32" height="32" viewBox="0 0 32 32" fill="none" xmlns="http://www.w3.org/2000/svg">
<path d="M26.6307 15.8409L23.2216 10.9962L26.6249 6.1622C26.8387 5.86327 26.966 5.51119 26.9929 5.14463C27.0197 4.77806 26.9449 4.4112 26.7769 4.08434C26.6088 3.75747 26.3539 3.48326 26.0401 3.29181C25.7264 3.10036 25.366 2.99908 24.9984 2.99911L5.99841 3.00011C5.86708 3.00007 5.73703 3.02592 5.61569 3.07616C5.49435 3.1264 5.3841 3.20006 5.29123 3.29292C5.19836 3.38579 5.12471 3.49604 5.07446 3.61738C5.02422 3.73872 4.99838 3.86878 4.99841 4.00011V18.0001L5.00036 18.0098V28.0001C5.00036 28.2653 5.10572 28.5197 5.29326 28.7072C5.48079 28.8948 5.73515 29.0001 6.00036 29.0001C6.26558 29.0001 6.51993 28.8948 6.70747 28.7072C6.89501 28.5197 7.00036 28.2653 7.00036 28.0001V19.0001L24.9994 18.9991C25.3664 18.999 25.7263 18.898 26.0397 18.7071C26.3531 18.5161 26.608 18.2427 26.7764 17.9166C26.9448 17.5905 27.0203 17.2244 26.9946 16.8583C26.9689 16.4922 26.8431 16.1403 26.6307 15.8409ZM7.00036 17.0001V5.00011L24.994 5.004L21.1805 10.42C21.0621 10.5886 20.9985 10.7896 20.9985 10.9957C20.9985 11.2017 21.0621 11.4028 21.1805 11.5714L24.9955 16.9923L24.9994 16.9991L7.00036 17.0001Z" fill="#0F0F0F"/>
</svg>
