<svg width="32" height="32" viewBox="0 0 32 32" fill="none" xmlns="http://www.w3.org/2000/svg">
<path d="M6.56738 28.4834C6.97363 28.4834 7.30371 28.1533 7.30371 27.7344V20.3457C7.69727 20.2441 8.87793 19.7363 10.8584 19.7363C15.4668 19.7363 18.3105 22.0215 22.7539 22.0215C24.6328 22.0215 25.4199 21.8057 26.3213 21.3867C27.1211 21.0312 27.6416 20.4727 27.6416 19.5205V6.88867C27.6416 6.2793 27.1719 5.94922 26.5498 5.94922C25.9531 5.94922 24.7852 6.50781 22.6016 6.50781C18.1455 6.50781 15.3145 4.23535 10.7061 4.23535C8.82715 4.23535 8.02734 4.45117 7.12598 4.85742C6.33887 5.21289 5.81836 5.78418 5.81836 6.73633V27.7344C5.81836 28.1406 6.16113 28.4834 6.56738 28.4834ZM22.7539 20.5234C18.4629 20.5234 15.5938 18.251 10.8584 18.251C9.55078 18.251 8.34473 18.4033 7.30371 18.7588V6.73633C7.50684 6.29199 8.71289 5.7207 10.7061 5.7207C15.1494 5.7207 18.0186 7.99316 22.6016 7.99316C23.8965 7.99316 25.0264 7.85352 26.1436 7.52344V19.5078C25.9404 19.9521 24.7471 20.5234 22.7539 20.5234Z" fill="black"/>
</svg>
