<svg width="32" height="32" viewBox="0 0 32 32" fill="none" xmlns="http://www.w3.org/2000/svg">
<path d="M16 4.5C13.2632 4.5 10.9225 6.1911 9.96387 8.58426C9.65064 8.52886 9.32852 8.5 9 8.5C5.96243 8.5 3.5 10.9624 3.5 14C3.5 16.869 5.69675 19.225 8.5 19.4776V25C8.5 26.3807 9.61929 27.5 11 27.5H21C22.3807 27.5 23.5 26.3807 23.5 25V19.4776C26.3032 19.225 28.5 16.869 28.5 14C28.5 10.9624 26.0376 8.5 23 8.5C22.6715 8.5 22.3494 8.52886 22.0361 8.58426C21.0775 6.1911 18.7368 4.5 16 4.5ZM10.7614 9.31935C11.4717 7.10321 13.5493 5.5 16 5.5C18.4507 5.5 20.5283 7.10322 21.2386 9.31935C21.3199 9.57289 21.5856 9.71828 21.8429 9.65002C22.2116 9.55225 22.5993 9.5 23 9.5C25.4853 9.5 27.5 11.5147 27.5 14C27.5 16.4853 25.4853 18.5 23 18.5C21.299 18.5 19.8176 17.5564 19.0522 16.1617C18.924 15.9282 18.6354 15.8362 18.3957 15.9523C17.6722 16.3031 16.8598 16.5 16 16.5C15.1402 16.5 14.3278 16.3031 13.6043 15.9523C13.3646 15.8362 13.076 15.9282 12.9478 16.1617C12.1824 17.5564 10.701 18.5 9 18.5C6.51472 18.5 4.5 16.4853 4.5 14C4.5 11.5147 6.51472 9.5 9 9.5C9.40068 9.5 9.7884 9.55224 10.1571 9.65002C10.4144 9.71828 10.6801 9.57289 10.7614 9.31935ZM22.5 19.4776V25C22.5 25.8284 21.8284 26.5 21 26.5H11C10.1716 26.5 9.5 25.8284 9.5 25V19.4776C11.2069 19.3237 12.6884 18.39 13.5862 17.0369C14.333 17.3357 15.1478 17.5 16 17.5C16.8522 17.5 17.667 17.3357 18.4138 17.0369C19.3116 18.39 20.7931 19.3237 22.5 19.4776Z" fill="#0F0F0F"/>
</svg>
