<svg width="32" height="32" viewBox="0 0 32 32" fill="none" xmlns="http://www.w3.org/2000/svg">
<path d="M16 4.25C13.2286 4.25 10.8489 5.91973 9.80903 8.30656C9.54443 8.26926 9.2743 8.25 9 8.25C5.82436 8.25 3.25 10.8244 3.25 14C3.25 16.9214 5.42873 19.334 8.25 19.7015V25C8.25 26.5188 9.48122 27.75 11 27.75H21C22.5188 27.75 23.75 26.5188 23.75 25V19.7015C26.5713 19.334 28.75 16.9214 28.75 14C28.75 10.8244 26.1756 8.25 23 8.25C22.7257 8.25 22.4556 8.26926 22.191 8.30657C21.1511 5.91973 18.7714 4.25 16 4.25ZM10.9994 9.39566C11.6776 7.27999 13.6611 5.75 16 5.75C18.3389 5.75 20.3224 7.27999 21.0006 9.39566C21.1225 9.77597 21.521 9.99405 21.907 9.89167C22.255 9.79939 22.6211 9.75 23 9.75C25.3472 9.75 27.25 11.6528 27.25 14C27.25 16.3472 25.3472 18.25 23 18.25C21.3939 18.25 19.9947 17.3593 19.2713 16.0414C19.0791 15.6912 18.6462 15.5531 18.2867 15.7274C17.5964 16.062 16.8212 16.25 16 16.25C15.1788 16.25 14.4036 16.062 13.7133 15.7274C13.3538 15.5531 12.9209 15.6912 12.7287 16.0414C12.0053 17.3593 10.6061 18.25 9 18.25C6.65279 18.25 4.75 16.3472 4.75 14C4.75 11.6528 6.65279 9.75 9 9.75C9.37886 9.75 9.74504 9.79939 10.093 9.89167C10.479 9.99405 10.8775 9.77597 10.9994 9.39566ZM22.25 19.7015V25C22.25 25.6904 21.6904 26.25 21 26.25H11C10.3096 26.25 9.75 25.6904 9.75 25V19.7015C11.3688 19.4906 12.7755 18.6063 13.6804 17.3407C14.4044 17.6056 15.186 17.75 16 17.75C16.814 17.75 17.5956 17.6056 18.3196 17.3407C19.2245 18.6063 20.6312 19.4906 22.25 19.7015Z" fill="#0F0F0F"/>
</svg>
