<svg width="32" height="32" viewBox="0 0 32 32" fill="none" xmlns="http://www.w3.org/2000/svg">
<path d="M9.65713 8.03566C10.7729 5.6523 13.1924 4 16 4C18.8076 4 21.2271 5.6523 22.3429 8.03566C22.5589 8.01208 22.7782 8 23 8C26.3137 8 29 10.6863 29 14C29 17.3137 26.3137 20 23 20C21.0529 20 19.3235 19.0722 18.2282 17.6376C17.5275 17.8728 16.7779 18 16 18C15.2221 18 14.4725 17.8728 13.7718 17.6376C12.6765 19.0722 10.9471 20 9 20C5.68629 20 3 17.3137 3 14C3 10.6863 5.68629 8 9 8C9.22182 8 9.44109 8.01208 9.65713 8.03566Z" fill="#0F0F0F"/>
<path d="M23 21C23.3395 21 23.6734 20.9758 24 20.9291V25C24 26.6569 22.6569 28 21 28H11C9.34315 28 8 26.6569 8 25V20.9291C8.3266 20.9758 8.66048 21 9 21C11.0212 21 12.8405 20.1429 14.1167 18.7766C14.7216 18.9227 15.3526 19 16 19C16.6474 19 17.2784 18.9227 17.8833 18.7766C19.1595 20.1429 20.9788 21 23 21Z" fill="#0F0F0F"/>
</svg>
