<svg width="32" height="32" viewBox="0 0 32 32" fill="none" xmlns="http://www.w3.org/2000/svg">
<path d="M11.6979 24.8987C11.6979 25.3959 11.5007 25.8732 11.1491 26.2249C10.7974 26.5765 10.3202 26.7737 9.82289 26.7737C9.32561 26.7737 8.84835 26.5765 8.49672 26.2249C8.14512 25.8732 7.94789 25.3959 7.94789 24.8987V14.9465L8.69789 14.4895V24.8987C8.69789 25.197 8.81605 25.4836 9.02699 25.6946C9.23797 25.9056 9.52452 26.0237 9.82289 26.0237C10.1213 26.0237 10.4078 25.9056 10.6188 25.6946C10.8297 25.4836 10.9479 25.197 10.9479 24.8987V13.1184L11.6979 12.6614V24.8987Z" fill="#0F0F0F"/>
<path d="M15.236 14.6018C15.3064 14.8597 15.4527 15.0858 15.65 15.2551C15.5197 15.4424 15.4479 15.6664 15.4479 15.8977V24.9006C15.4483 25.1984 15.5665 25.484 15.777 25.6946C15.9876 25.9052 16.274 26.0234 16.5719 26.0237H16.5748C16.8726 26.0233 17.1583 25.9051 17.3688 25.6946C17.5793 25.484 17.6975 25.1984 17.6979 24.9006V15.8977C17.6979 15.64 17.6089 15.3915 17.4489 15.1926L18.0446 14.7405C18.3031 15.0688 18.4472 15.4756 18.4479 15.8977V24.9006C18.4471 25.3972 18.2492 25.8728 17.8981 26.2239C17.547 26.575 17.0713 26.7729 16.5748 26.7737H16.5719C16.0752 26.773 15.5989 26.5751 15.2477 26.2239C14.8966 25.8728 14.6987 25.3972 14.6979 24.9006V15.8977C14.6986 15.4084 14.8905 14.9387 15.2321 14.5891L15.236 14.6018Z" fill="#0F0F0F"/>
<path d="M24.4479 11.0237V24.8997C24.4479 25.1978 24.3295 25.4837 24.1188 25.6946C23.9078 25.9056 23.6213 26.0247 23.3229 26.0247C23.0245 26.0247 22.738 25.9056 22.527 25.6946C22.3163 25.4837 22.1979 25.1978 22.1979 24.8997V11.594L21.4479 12.1624V24.8997C21.4485 25.3967 21.6462 25.8735 21.9977 26.2249C22.3492 26.5761 22.8259 26.7733 23.3229 26.7737C23.8198 26.7731 24.2967 26.5752 24.6481 26.2239C24.9994 25.8725 25.1973 25.3965 25.1979 24.8997V12.0735C24.7853 11.88 24.4972 11.4827 24.4479 11.0237Z" fill="#0F0F0F"/>
<path d="M24.4479 10.7327V10.7112L24.4498 10.7092L24.4479 10.7327Z" fill="#0F0F0F"/>
<path d="M26.2504 6.59098C26.2608 6.59231 26.2711 6.59415 26.2813 6.59649C26.3115 6.60341 26.3399 6.61455 26.3658 6.6292C26.3928 6.64439 26.4178 6.66373 26.4399 6.6871C26.5021 6.7527 26.5357 6.84427 26.5247 6.94085L26.0698 10.9177C26.05 11.0914 25.8931 11.216 25.7195 11.1962C25.5458 11.1763 25.4212 11.0194 25.441 10.8458L25.8119 7.60361L16.697 14.5079C16.6132 14.5713 16.5035 14.589 16.404 14.5552C16.3045 14.5213 16.2283 14.4403 16.2007 14.339L14.8916 9.5461L6.48113 14.6698C6.33188 14.7607 6.13717 14.7134 6.04625 14.5642C5.95532 14.4149 6.0026 14.2202 6.15186 14.1293L14.9214 8.78683C15.0063 8.7351 15.1106 8.72629 15.203 8.76303C15.2954 8.79977 15.3651 8.87779 15.3913 8.9737L16.6879 13.7208L25.4102 7.11392L21.9033 6.62997C21.7301 6.60607 21.6092 6.44636 21.6331 6.27323C21.6569 6.1001 21.8167 5.97912 21.9898 6.00301L26.2504 6.59098Z" fill="#0F0F0F"/>
</svg>
