<svg width="32" height="32" viewBox="0 0 32 32" fill="none" xmlns="http://www.w3.org/2000/svg">
<path d="M9.50022 26.0001C9.50014 26.8284 8.82843 27.4999 8.00022 27.5001H6.00022C5.17184 27.5001 4.5003 26.8285 4.50022 26.0001V17.6798L5.50022 16.8048V26.0001C5.5003 26.2762 5.72413 26.5001 6.00022 26.5001H8.00022C8.27614 26.4999 8.50014 26.2761 8.50022 26.0001V14.1789L9.50022 13.3039V26.0001Z" fill="#0F0F0F"/>
<path d="M14.5002 9.03335V26.0001C14.5003 26.2762 14.7241 26.5001 15.0002 26.5001H17.0002C17.2761 26.4999 17.5001 26.2761 17.5002 26.0001V13.424L17.7229 13.7863C17.9032 14.0789 18.1785 14.3001 18.5002 14.4142V26.0001C18.5001 26.8284 17.8284 27.4999 17.0002 27.5001H15.0002C14.1718 27.5001 13.5003 26.8285 13.5002 26.0001V9.80288L14.5149 8.91519C14.5064 8.9524 14.5002 8.99163 14.5002 9.03335Z" fill="#0F0F0F"/>
<path d="M27.5002 26.0001C27.5001 26.8284 26.8284 27.4999 26.0002 27.5001H24.0002C23.1718 27.5001 22.5003 26.8285 22.5002 26.0001V11.6212L23.5002 10.6212V26.0001C23.5003 26.2762 23.7241 26.5001 24.0002 26.5001H26.0002C26.2761 26.4999 26.5001 26.2761 26.5002 26.0001V7.62124L27.5002 6.62124V26.0001Z" fill="#0F0F0F"/>
<path d="M24.5002 2.50015C24.6229 2.37755 28.9397 2.47759 29.0979 2.50894C29.1516 2.51961 29.2013 2.54117 29.2473 2.56753C29.2849 2.58909 29.3216 2.61448 29.3537 2.64663C29.4185 2.71145 29.4589 2.79056 29.4807 2.87319C29.4914 2.91389 29.5002 2.95609 29.5002 3.00015V7.50015C29.5001 7.77605 29.2761 7.99986 29.0002 8.00015C28.7241 8.00015 28.5003 7.77622 28.5002 7.50015V4.20718L19.3537 13.3537C19.2456 13.4618 19.0935 13.5149 18.9416 13.4972C18.7899 13.4793 18.6546 13.392 18.5744 13.2619L14.884 7.2648L3.32932 17.3761C3.12161 17.5579 2.80613 17.5368 2.62425 17.3292C2.44243 17.1215 2.46337 16.806 2.67112 16.6242L14.6711 6.12417L14.76 6.06167C14.8551 6.00959 14.9662 5.98948 15.0754 6.00601C15.2206 6.0282 15.349 6.11332 15.426 6.23843L19.094 12.1984L27.7932 3.50015H24.5002C24.2241 3.50015 24.0003 3.27622 24.0002 3.00015C24.0002 2.724 24.2241 2.50015 24.5002 2.50015Z" fill="#0F0F0F"/>
</svg>
