<svg width="32" height="32" viewBox="0 0 32 32" fill="none" xmlns="http://www.w3.org/2000/svg">
<path d="M12.1564 24.6561C12.1559 25.2029 11.9386 25.7275 11.5519 26.1141C11.1652 26.5008 10.6407 26.7181 10.0939 26.7186C9.54707 26.7181 9.02258 26.5008 8.6359 26.1141C8.24927 25.7275 8.03197 25.2029 8.03141 24.6561V15.3358L9.15641 14.6503V24.6561C9.15641 24.9047 9.25505 25.1434 9.43083 25.3192C9.60664 25.495 9.84527 25.5936 10.0939 25.5936C10.3426 25.5936 10.5812 25.495 10.757 25.3192C10.9328 25.1434 11.0314 24.9047 11.0314 24.6561V13.5087L12.1564 12.8231V24.6561Z" fill="#0F0F0F"/>
<path d="M15.2423 14.8026C15.3435 15.1726 15.5844 15.483 15.9064 15.6766V24.6581C15.9067 24.9061 16.0054 25.1438 16.1808 25.3192C16.3562 25.4946 16.5939 25.5933 16.842 25.5936H16.8449C17.0931 25.5934 17.3315 25.4947 17.507 25.3192C17.6824 25.1438 17.7811 24.9061 17.7814 24.6581V15.6551C17.7814 15.5812 17.771 15.5081 17.7541 15.4374L18.6857 14.7313C18.8282 15.0156 18.9064 15.3311 18.9064 15.6551V24.6581C18.9058 25.2044 18.6882 25.7278 18.3019 26.1141C17.9156 26.5004 17.3921 26.718 16.8459 26.7186H16.8429C16.2965 26.7181 15.7723 26.5005 15.3859 26.1141C14.9996 25.7278 14.782 25.2044 14.7814 24.6581V15.6551C14.7814 15.2307 14.9132 14.82 15.1525 14.4764L15.2423 14.8026Z" fill="#0F0F0F"/>
<path d="M24.5314 11.5506C24.7086 12.0284 25.1275 12.3957 25.6564 12.4891V24.6571C25.6557 25.2036 25.4384 25.7276 25.0519 26.1141C24.6655 26.5006 24.1414 26.7179 23.5949 26.7186C23.0482 26.7181 22.5226 26.5006 22.1359 26.1141C21.7495 25.7277 21.5322 25.2036 21.5314 24.6571V12.576L22.6564 11.7235V24.6571C22.6564 24.9057 22.755 25.1444 22.9308 25.3202C23.1066 25.496 23.3453 25.5946 23.5939 25.5946C23.8425 25.5946 24.0812 25.496 24.257 25.3202C24.4328 25.1444 24.5314 24.9057 24.5314 24.6571V11.5506Z" fill="#0F0F0F"/>
<path d="M26.4289 6.59228C26.4439 6.59421 26.4589 6.59685 26.4736 6.6002C26.52 6.61068 26.5635 6.62778 26.6032 6.65036C26.6431 6.67304 26.6802 6.70183 26.713 6.73652C26.8062 6.83491 26.8567 6.97224 26.8402 7.11707L26.3853 11.0939C26.3555 11.3544 26.1202 11.5414 25.8598 11.5116C25.5993 11.4818 25.4123 11.2465 25.4421 10.9861L25.7709 8.11122L16.9508 14.7922C16.8252 14.8874 16.6605 14.914 16.5113 14.8632C16.3621 14.8124 16.2478 14.6909 16.2063 14.5389L14.9526 9.94885L6.7217 14.9632C6.49782 15.0996 6.20576 15.0286 6.06937 14.8047C5.93298 14.5809 6.0039 14.2888 6.22779 14.1524L14.9974 8.80994C15.1247 8.73235 15.2811 8.71913 15.4197 8.77424C15.5583 8.82935 15.6629 8.94638 15.7022 9.09025L16.9371 13.6116L25.1684 7.37668L22.0399 6.94495C21.7802 6.90911 21.5988 6.66954 21.6346 6.40984C21.6704 6.15015 21.91 5.96868 22.1697 6.00451L26.4289 6.59228Z" fill="#0F0F0F"/>
</svg>
