<svg width="32" height="32" viewBox="0 0 32 32" fill="none" xmlns="http://www.w3.org/2000/svg">
<path d="M9.99991 26C9.99991 27.1045 9.10444 28 7.99991 28H5.99991C4.89534 28 3.99991 27.1046 3.99991 26V19.8262C4.34777 19.7033 4.67975 19.5165 4.97452 19.2588L4.9755 19.2578L5.99991 18.3604V26H7.99991V16.6104L9.99991 14.8604V26Z" fill="#0F0F0F"/>
<path d="M14.9999 12.2246V26H16.9999V15.2354C17.4562 15.6431 18.0315 15.9067 18.6513 15.9795C18.7677 15.9931 18.8841 15.999 18.9999 15.999V26C18.9999 27.1045 18.1044 28 16.9999 28H14.9999C13.8953 28 12.9999 27.1046 12.9999 26V12.2344L14.3036 11.0938L14.9999 12.2246Z" fill="#0F0F0F"/>
<path d="M26.7558 9.48535C27.0896 9.86242 27.5162 10.1549 27.9999 10.3271V26C27.9999 27.1045 27.1044 28 25.9999 28H23.9999C22.8953 28 21.9999 27.1046 21.9999 26V14.2412L23.9999 12.2412V26H25.9999V10.2412L26.7558 9.48535Z" fill="#0F0F0F"/>
<path d="M29.1718 2.01562C29.1788 2.01684 29.1862 2.01717 29.1933 2.01855L29.2909 2.04297C29.3105 2.04891 29.3295 2.0564 29.3485 2.06348C29.3582 2.06707 29.3682 2.0703 29.3778 2.07422C29.3933 2.08056 29.4086 2.08764 29.4237 2.09473C29.4684 2.11564 29.5118 2.14009 29.5536 2.16797C29.6651 2.24236 29.761 2.33829 29.8349 2.4502C29.88 2.51859 29.9148 2.59173 29.9413 2.66699C29.946 2.68035 29.9518 2.69342 29.956 2.70703C29.9622 2.7273 29.9667 2.74801 29.9716 2.76855C29.9892 2.84292 29.9999 2.92024 29.9999 3V7.5C29.9999 8.0522 29.5521 8.49986 28.9999 8.5C28.4476 8.5 27.9999 8.05228 27.9999 7.5V5.41406L19.7069 13.707C19.5154 13.8986 19.2552 14.0024 18.9872 13.999L18.9833 14L18.8837 13.9932L18.7714 13.9736C18.5138 13.9132 18.2887 13.7522 18.1483 13.5244L14.7675 8.03125L3.65811 17.7529C3.24253 18.1162 2.61059 18.0736 2.24698 17.6582C1.88363 17.2426 1.92619 16.6107 2.34171 16.2471L14.3417 5.74707L14.4276 5.67969C14.6365 5.53405 14.8948 5.47324 15.1493 5.51172C15.4401 5.55581 15.6973 5.72519 15.8515 5.97559L19.1874 11.3975L26.5858 4H24.4999C23.9476 4 23.4999 3.55228 23.4999 3C23.4999 2.44772 23.9476 2 24.4999 2H28.9999C29.0585 2.00002 29.116 2.00594 29.1718 2.01562Z" fill="#0F0F0F"/>
</svg>
