<svg width="32" height="32" viewBox="0 0 32 32" fill="none" xmlns="http://www.w3.org/2000/svg">
<path d="M28.6712 12.6653C28.6272 12.5772 28.5662 12.4985 28.4918 12.434C28.4175 12.3694 28.3311 12.3201 28.2376 12.2889C28.1442 12.2577 28.0455 12.2452 27.9472 12.2522C27.8489 12.2591 27.753 12.2854 27.6649 12.3294L16.0001 18.1614L4.33578 12.3294C4.15785 12.2404 3.95186 12.2258 3.76313 12.2887C3.57441 12.3516 3.4184 12.4869 3.32943 12.6649C3.24047 12.8428 3.22583 13.0488 3.28874 13.2375C3.35165 13.4262 3.48695 13.5822 3.66488 13.6712L15.6649 19.6712C15.7691 19.7232 15.8839 19.7503 16.0003 19.7503C16.1168 19.7503 16.2316 19.7232 16.3358 19.6712L28.3358 13.6712C28.5136 13.5822 28.6488 13.4263 28.7117 13.2377C28.7746 13.0491 28.76 12.8432 28.6712 12.6653Z" fill="#0F0F0F"/>
</svg>
