<svg width="32" height="32" viewBox="0 0 32 32" fill="none" xmlns="http://www.w3.org/2000/svg">
<path d="M14.8955 26.7061L18.4883 17.6924C18.666 17.2607 18.8691 16.7275 18.8691 16.3086C18.8691 15.9023 18.666 15.3564 18.4883 14.9375L14.8955 5.92383C14.7559 5.54297 14.4258 5.32715 14.083 5.32715C13.5371 5.32715 13.1182 5.7334 13.1182 6.2793C13.1182 6.55859 13.2705 6.92676 13.3594 7.18066L17.0029 16.3086L13.3594 25.4492C13.2705 25.7031 13.1182 26.0586 13.1182 26.3506C13.1182 26.8965 13.5371 27.3027 14.083 27.3027C14.4258 27.3027 14.7559 27.0869 14.8955 26.7061Z" fill="black"/>
</svg>
