<svg width="32" height="32" viewBox="0 0 32 32" fill="none" xmlns="http://www.w3.org/2000/svg">
<path d="M28.6711 14.6653C28.6271 14.5772 28.5661 14.4985 28.4917 14.434C28.4173 14.3694 28.3309 14.3201 28.2375 14.2889C28.1441 14.2577 28.0454 14.2452 27.9471 14.2522C27.8488 14.2591 27.7529 14.2854 27.6648 14.3294L16 20.1614L4.33566 14.3294C4.15773 14.2404 3.95174 14.2258 3.76301 14.2887C3.57429 14.3516 3.41828 14.4869 3.32931 14.6649C3.24034 14.8428 3.22571 15.0488 3.28861 15.2375C3.35152 15.4262 3.48683 15.5822 3.66476 15.6712L15.6648 21.6712C15.7689 21.7232 15.8838 21.7503 16.0002 21.7503C16.1166 21.7503 16.2315 21.7232 16.3357 21.6712L28.3357 15.6712C28.5135 15.5822 28.6487 15.4263 28.7116 15.2377C28.7745 15.0491 28.7599 14.8432 28.6711 14.6653Z" fill="#0F0F0F"/>
</svg>
