<svg width="32" height="32" viewBox="0 0 32 32" fill="none" xmlns="http://www.w3.org/2000/svg">
<path d="M28.4476 12.7766C28.3881 12.6581 28.2841 12.5681 28.1583 12.5261C28.0326 12.4842 27.8953 12.4939 27.7767 12.553L16.0001 18.4417L4.22387 12.553C4.16514 12.5236 4.1012 12.5061 4.0357 12.5015C3.9702 12.4968 3.90442 12.5051 3.84213 12.5259C3.77984 12.5467 3.72224 12.5795 3.67264 12.6225C3.62303 12.6655 3.58239 12.7179 3.55302 12.7767C3.52366 12.8354 3.50615 12.8993 3.5015 12.9648C3.49685 13.0303 3.50514 13.0961 3.52591 13.1584C3.54668 13.2207 3.57951 13.2783 3.62254 13.3279C3.66556 13.3775 3.71794 13.4181 3.77667 13.4475L15.7767 19.4475C15.8461 19.4822 15.9227 19.5003 16.0003 19.5003C16.0779 19.5003 16.1544 19.4822 16.2239 19.4475L28.2239 13.4475C28.2826 13.4181 28.335 13.3775 28.378 13.3279C28.4211 13.2783 28.4539 13.2207 28.4747 13.1584C28.4955 13.0961 28.5038 13.0303 28.4991 12.9648C28.4945 12.8993 28.4769 12.8353 28.4476 12.7766Z" fill="#0F0F0F"/>
</svg>
