<svg width="32" height="32" viewBox="0 0 32 32" fill="none" xmlns="http://www.w3.org/2000/svg">
<path d="M21.8949 15.553L15.8949 3.553C15.7763 3.31576 15.5683 3.13537 15.3167 3.05149C15.0651 2.96761 14.7904 2.98713 14.5532 3.10575C14.316 3.22437 14.1356 3.43237 14.0517 3.684C13.9678 3.93562 13.9873 4.21026 14.1059 4.4475L19.8823 16L14.1059 27.553C14.0472 27.6705 14.0122 27.7984 14.0029 27.9294C13.9936 28.0604 14.0102 28.1919 14.0517 28.3165C14.0932 28.4411 14.1589 28.5563 14.2449 28.6555C14.331 28.7547 14.4357 28.836 14.5532 28.8948C14.6707 28.9535 14.7986 28.9885 14.9296 28.9978C15.0606 29.0071 15.1921 28.9905 15.3167 28.949C15.4413 28.9075 15.5565 28.8418 15.6557 28.7558C15.7549 28.6697 15.8362 28.565 15.8949 28.4475L21.8949 16.4475C21.9643 16.3086 22.0005 16.1555 22.0005 16.0002C22.0005 15.845 21.9643 15.6919 21.8949 15.553Z" fill="#0F0F0F"/>
</svg>
