<svg width="32" height="32" viewBox="0 0 32 32" fill="none" xmlns="http://www.w3.org/2000/svg">
<path d="M13.5583 16L19.447 4.2232C19.4764 4.16447 19.4939 4.10052 19.4985 4.03502C19.5032 3.96952 19.4949 3.90374 19.4741 3.84144C19.4534 3.77914 19.4205 3.72154 19.3775 3.67193C19.3345 3.62232 19.2821 3.58167 19.2234 3.5523C19.1646 3.52293 19.1007 3.50542 19.0352 3.50076C18.9697 3.4961 18.9039 3.50439 18.8416 3.52515C18.7793 3.54592 18.7217 3.57875 18.6721 3.62177C18.6225 3.66479 18.5819 3.71717 18.5525 3.7759L12.5525 15.7759C12.5178 15.8454 12.4998 15.9219 12.4998 15.9995C12.4998 16.0772 12.5178 16.1537 12.5525 16.2232L18.5525 28.2232C18.5819 28.2819 18.6225 28.3343 18.6721 28.3773C18.7217 28.4204 18.7793 28.4532 18.8416 28.4739C18.9039 28.4947 18.9697 28.503 19.0352 28.4983C19.1007 28.4937 19.1646 28.4762 19.2234 28.4468C19.2821 28.4174 19.3345 28.3768 19.3775 28.3272C19.4205 28.2776 19.4534 28.22 19.4741 28.1577C19.4949 28.0954 19.5032 28.0296 19.4985 27.9641C19.4939 27.8986 19.4764 27.8346 19.447 27.7759L13.5583 16Z" fill="#0F0F0F"/>
</svg>
