<svg width="32" height="32" viewBox="0 0 32 32" fill="none" xmlns="http://www.w3.org/2000/svg">
<path d="M15.2357 3.5C16.3007 3.5 17.0197 4.09487 17.4574 4.7832C17.7661 5.2689 17.9616 5.83398 18.0931 6.35742L18.2054 6.8623L18.2201 6.96387C18.267 7.46853 17.9244 7.93631 17.4164 8.03613C16.8746 8.1424 16.349 7.78986 16.2425 7.24805C16.1288 6.66929 15.9761 6.17988 15.7699 5.85547C15.5897 5.5722 15.4344 5.5 15.2357 5.5C14.9184 5.50005 14.7374 5.57875 14.5629 5.75098C14.341 5.96987 14.0778 6.39726 13.7875 7.22656C13.4232 8.26708 13.0784 9.74301 12.6693 11.8047H15.2357C15.7878 11.8047 16.2354 12.2526 16.2357 12.8047C16.2357 13.357 15.788 13.8047 15.2357 13.8047H12.2865C12.1489 14.5373 12.0014 15.3276 11.8451 16.1797C11.032 20.6129 10.4709 23.5836 9.8236 25.4326C9.49888 26.36 9.11182 27.1312 8.56481 27.6709C7.97065 28.257 7.26351 28.498 6.48766 28.498C5.42266 28.498 4.70361 27.9033 4.26598 27.2148C3.95727 26.7291 3.76167 26.1641 3.63024 25.6406L3.51793 25.1357L3.50328 25.0342C3.45654 24.5297 3.79912 24.0617 4.30699 23.9619C4.8147 23.8623 5.30774 24.166 5.45543 24.6504L5.48082 24.75L5.5736 25.166C5.67417 25.5629 5.79883 25.8992 5.95348 26.1426C6.13373 26.426 6.289 26.498 6.48766 26.498C6.80503 26.498 6.9859 26.4193 7.16051 26.2471C7.38234 26.0281 7.6456 25.6015 7.9359 24.7725C8.51872 23.1078 9.05115 20.3282 9.87828 15.8184C10.0082 15.1102 10.1339 14.4396 10.2523 13.8047H8.21031C7.65828 13.8044 7.21031 13.3568 7.21031 12.8047C7.21057 12.2528 7.65844 11.805 8.21031 11.8047H10.6312C11.0818 9.502 11.4716 7.78826 11.8998 6.56543C12.2244 5.63822 12.6107 4.86682 13.1576 4.32715C13.7517 3.74094 14.4598 3.50006 15.2357 3.5Z" fill="#0F0F0F"/>
<path d="M16.4183 16.1631C16.9055 15.903 17.5107 16.0871 17.7709 16.5742C18.0307 17.0612 17.8474 17.6665 17.3607 17.9268C15.9034 18.705 14.7983 20.4809 14.7982 22.2715C14.7982 23.4398 15.1203 24.2716 15.5824 24.9297C16.0608 25.6109 16.719 26.1495 17.4691 26.6836C17.9189 27.0039 18.0238 27.6292 17.7035 28.0791C17.4031 28.5003 16.8361 28.6186 16.3959 28.3682L16.3089 28.3135L16.0072 28.0947C15.2953 27.5684 14.5412 26.927 13.9457 26.0791C13.2487 25.0867 12.7983 23.8539 12.7982 22.2715C12.7983 19.744 14.3085 17.2898 16.4183 16.1631Z" fill="#0F0F0F"/>
<path d="M23.4574 16.6338C23.6847 16.1305 24.2773 15.9065 24.7806 16.1338C25.8436 16.6139 26.7868 17.3507 27.4603 18.3945C28.1342 19.4391 28.5013 20.7339 28.5013 22.2715C28.5012 24.9891 26.9465 26.9958 24.8353 28.1084C24.3469 28.3656 23.7422 28.1778 23.4847 27.6895C23.2275 27.201 23.4145 26.5964 23.9027 26.3389C25.4818 25.5067 26.5012 24.116 26.5013 22.2715C26.5013 21.0587 26.2148 20.1531 25.7796 19.4785C25.3438 18.8031 24.7215 18.3012 23.9574 17.9561C23.4545 17.7288 23.2307 17.1368 23.4574 16.6338Z" fill="#0F0F0F"/>
<path d="M17.4925 19.7354C17.6663 19.2478 18.1802 18.9778 18.6722 19.0986L18.7699 19.1279L18.9632 19.2021C19.4178 19.3906 19.9065 19.6849 20.3285 20.0469C20.4815 20.1782 20.6363 20.3307 20.7836 20.5L21.8265 19.3867C22.204 18.9841 22.8366 18.9635 23.2396 19.3408C23.6424 19.7182 23.6635 20.3508 23.2865 20.7539L21.7103 22.4355C21.9929 22.9998 22.4195 23.4004 22.8138 23.5059C23.3471 23.6483 23.6647 24.1962 23.5228 24.7295C23.3804 25.263 22.8317 25.5808 22.2982 25.4385C21.4454 25.2108 20.7726 24.6374 20.2923 23.9492L19.1644 25.1553C18.7869 25.5582 18.1544 25.5795 17.7513 25.2021C17.3482 24.8247 17.328 24.1912 17.7054 23.7881L19.4007 21.9766C19.3205 21.8566 19.2009 21.7148 19.0267 21.5654C18.7993 21.3704 18.541 21.2104 18.3138 21.1025L18.1 21.0127L18.0052 20.9736C17.5472 20.7565 17.3192 20.2231 17.4925 19.7354Z" fill="#0F0F0F"/>
</svg>
