<svg width="32" height="32" viewBox="0 0 32 32" fill="none" xmlns="http://www.w3.org/2000/svg">
<path d="M28.4475 12.7766C28.388 12.6581 28.284 12.5681 28.1582 12.5261C28.0325 12.4842 27.8952 12.4939 27.7766 12.553L16 18.4417L4.22375 12.553C4.16502 12.5236 4.10108 12.5061 4.03558 12.5015C3.97008 12.4968 3.9043 12.5051 3.84201 12.5259C3.77971 12.5467 3.72212 12.5795 3.67251 12.6225C3.62291 12.6655 3.58227 12.7179 3.5529 12.7767C3.52354 12.8354 3.50603 12.8993 3.50138 12.9648C3.49673 13.0303 3.50502 13.0961 3.52579 13.1584C3.54656 13.2207 3.57939 13.2783 3.62242 13.3279C3.66544 13.3775 3.71782 13.4181 3.77655 13.4475L15.7766 19.4475C15.846 19.4822 15.9225 19.5003 16.0002 19.5003C16.0778 19.5003 16.1543 19.4822 16.2238 19.4475L28.2238 13.4475C28.2825 13.4181 28.3349 13.3775 28.3779 13.3279C28.421 13.2783 28.4538 13.2207 28.4746 13.1584C28.4954 13.0961 28.5036 13.0303 28.499 12.9648C28.4943 12.8993 28.4768 12.8353 28.4475 12.7766Z" fill="#0F0F0F"/>
</svg>
