<svg width="32" height="32" viewBox="0 0 32 32" fill="none" xmlns="http://www.w3.org/2000/svg">
<path d="M5.53906 27.7725H26.4609C28.873 27.7725 30.0791 26.5664 30.0791 24.1924V9.50391C30.0791 7.12988 28.873 5.91113 26.4609 5.91113H5.53906C3.12695 5.91113 1.9082 7.11719 1.9082 9.50391V24.1924C1.9082 26.5791 3.12695 27.7725 5.53906 27.7725ZM3.57129 9.59277C3.57129 8.25977 4.26953 7.57422 5.56445 7.57422H26.4229C27.6924 7.57422 28.4287 8.25977 28.4287 9.59277V9.7832H3.57129V9.59277ZM5.56445 26.1221C4.26953 26.1221 3.57129 25.4365 3.57129 24.1035V11.2559H28.4287V24.1035C28.4287 25.4365 27.6924 26.1221 26.4229 26.1221H5.56445Z" fill="black"/>
</svg>
