<svg width="32" height="32" viewBox="0 0 32 32" fill="none" xmlns="http://www.w3.org/2000/svg">
<path d="M13.8384 16L19.6704 4.335C19.7164 4.24669 19.7444 4.1501 19.7527 4.05086C19.761 3.95162 19.7494 3.85173 19.7187 3.757C19.688 3.66228 19.6387 3.57462 19.5737 3.49914C19.5088 3.42367 19.4294 3.36188 19.3403 3.3174C19.2512 3.27291 19.1542 3.24661 19.0548 3.24003C18.9555 3.23346 18.8558 3.24673 18.7616 3.27909C18.6674 3.31145 18.5806 3.36224 18.5063 3.42849C18.4319 3.49475 18.3715 3.57515 18.3286 3.665L12.3286 15.665C12.2766 15.769 12.2495 15.8837 12.2495 16C12.2495 16.1163 12.2766 16.231 12.3286 16.335L18.3286 28.335C18.4195 28.5094 18.5752 28.6411 18.7623 28.7018C18.9494 28.7625 19.1528 28.7473 19.3287 28.6594C19.5047 28.5715 19.6391 28.4181 19.703 28.2321C19.7669 28.0461 19.7552 27.8424 19.6704 27.665L13.8384 16Z" fill="#0F0F0F"/>
</svg>
