<svg width="32" height="32" viewBox="0 0 32 32" fill="none" xmlns="http://www.w3.org/2000/svg">
<path d="M5.60254 17.3242L14.6162 13.7568C15.0479 13.5791 15.5811 13.376 16 13.376C16.4189 13.376 16.9521 13.5791 17.3838 13.7568L26.3975 17.3242C26.7656 17.4766 26.9941 17.7939 26.9941 18.124C26.9941 18.6826 26.5879 19.1016 26.0293 19.1016C25.75 19.1016 25.3691 18.9492 25.1279 18.8604L16 15.2422L6.85938 18.8604C6.61816 18.9492 6.25 19.1016 5.9707 19.1016C5.41211 19.1016 5.00586 18.6826 5.00586 18.124C5.00586 17.7939 5.23438 17.4766 5.60254 17.3242Z" fill="black"/>
</svg>
