<svg width="32" height="32" viewBox="0 0 32 32" fill="none" xmlns="http://www.w3.org/2000/svg">
<path d="M29.9014 16.334C29.9014 16.5286 29.8548 16.736 29.7617 16.9561C29.6771 17.1761 29.4993 17.4131 29.2285 17.667L19.2373 27.0361C18.9919 27.2646 18.7549 27.4339 18.5264 27.5439C18.2979 27.6624 18.0524 27.7217 17.79 27.7217C17.4176 27.7217 17.113 27.599 16.876 27.3535C16.6475 27.1165 16.5332 26.8161 16.5332 26.4521V21.3867H5.94531C5.03125 21.3867 4.32454 21.1455 3.8252 20.6631C3.32585 20.1722 3.07617 19.4782 3.07617 18.5811V14.1377C3.07617 13.2406 3.32585 12.5508 3.8252 12.0684C4.32454 11.5775 5.03125 11.332 5.94531 11.332H16.5332V6.25391C16.5332 5.89844 16.6475 5.59375 16.876 5.33984C17.113 5.07747 17.4219 4.94629 17.8027 4.94629C18.0651 4.94629 18.3021 5.00553 18.5137 5.12402C18.7337 5.24251 18.9749 5.42871 19.2373 5.68262L29.2285 15.001C29.4993 15.2549 29.6771 15.4919 29.7617 15.7119C29.8548 15.932 29.9014 16.1393 29.9014 16.334ZM28.1748 16.334C28.1748 16.207 28.0944 16.0674 27.9336 15.915L18.5771 7.04102C18.5348 7.00716 18.4883 6.97754 18.4375 6.95215C18.3952 6.92676 18.3529 6.91406 18.3105 6.91406C18.1751 6.91406 18.1074 6.98177 18.1074 7.11719V12.4238C18.1074 12.6862 17.9762 12.8174 17.7139 12.8174H5.9707C5.51367 12.8174 5.16243 12.9359 4.91699 13.1729C4.68001 13.4098 4.56152 13.7568 4.56152 14.2139V18.5049C4.56152 19.4359 5.03125 19.9014 5.9707 19.9014H17.7139C17.9762 19.9014 18.1074 20.0326 18.1074 20.2949V25.4619C18.1074 25.6143 18.1709 25.6904 18.2979 25.6904C18.3825 25.6904 18.4714 25.6396 18.5645 25.5381L27.9336 16.7529C28.0267 16.6598 28.0902 16.5837 28.124 16.5244C28.1579 16.4567 28.1748 16.3932 28.1748 16.334Z" fill="black"/>
</svg>
