<svg width="32" height="32" viewBox="0 0 32 32" fill="none" xmlns="http://www.w3.org/2000/svg">
<path d="M16 4C9.37258 4 4 9.37258 4 16C4 22.6274 9.37258 28 16 28C16.5523 28 17 28.4477 17 29C17 29.5523 16.5523 30 16 30C8.26801 30 2 23.732 2 16C2 8.26801 8.26801 2 16 2C23.732 2 30 8.26801 30 16C30 19.918 28.3899 23.4599 25.7979 26H29C29.5523 26 30 26.4477 30 27C30 27.5523 29.5523 28 29 28H23C22.4477 28 22 27.5523 22 27V21C22 20.4477 22.4477 20 23 20C23.5523 20 24 20.4477 24 21V24.9445C26.4563 22.7461 28 19.5533 28 16C28 9.37258 22.6274 4 16 4Z" fill="#0F0F0F"/>
<path d="M22.208 15.476C22.208 18.765 20.856 20.195 18.75 20.195C16.644 20.195 15.292 18.765 15.292 15.476C15.292 12.096 16.618 10.705 18.75 10.705C20.882 10.705 22.208 12.096 22.208 15.476ZM17.385 15.476C17.385 18.102 17.892 18.817 18.75 18.817C19.608 18.817 20.115 18.102 20.115 15.476C20.115 12.85 19.608 12.07 18.75 12.07C17.892 12.07 17.385 12.85 17.385 15.476Z" fill="#0F0F0F"/>
<path d="M13.7501 20H11.7221V12.772L9.64207 13.838V12.005L11.7351 10.9H13.7501V20Z" fill="#0F0F0F"/>
</svg>
