<svg width="32" height="32" viewBox="0 0 32 32" fill="none" xmlns="http://www.w3.org/2000/svg">
<path d="M13.7842 9.5C14.1657 9.49581 14.5394 9.61163 14.8516 9.83203C15.1637 10.0524 15.3977 10.3662 15.5215 10.7275C15.5257 10.7398 15.5304 10.7522 15.5342 10.7646L17.6797 17.9326L17.9805 16.5791L17.9814 16.5771C18.0613 16.2131 18.2624 15.8864 18.5518 15.6514C18.8417 15.416 19.2029 15.2863 19.5762 15.2832H23.5703C24.1226 15.2832 24.5703 15.7309 24.5703 16.2832C24.5703 16.8354 24.1226 17.2832 23.5703 17.2832H19.873L19.4482 19.1953C19.4375 19.2438 19.4231 19.2915 19.4053 19.3379C19.2712 19.6857 19.0336 19.9837 18.7246 20.1914C18.4152 20.3994 18.0492 20.5072 17.6768 20.5C17.3044 20.4928 16.9428 20.3711 16.6416 20.1514C16.3405 19.9317 16.1146 19.624 15.9941 19.2715C15.99 19.2595 15.9861 19.2475 15.9824 19.2354L13.8047 11.9619L12.5771 16.0986C12.4791 16.4384 12.2737 16.7373 11.9922 16.9512C11.7091 17.1662 11.3633 17.2843 11.0068 17.2861H9.42969C8.87752 17.2861 8.42988 16.8383 8.42969 16.2861C8.42969 15.7338 8.8774 15.2861 9.42969 15.2861H10.7314L12.0684 10.7842L12.0732 10.7666C12.1888 10.4028 12.4165 10.0839 12.7236 9.85645C13.0311 9.62888 13.4026 9.50427 13.7842 9.5Z" fill="#0F0F0F"/>
<path d="M27.4561 3.75488C29.5694 3.86211 31.25 5.60996 31.25 7.75V21.75C31.25 23.89 29.5694 25.6379 27.4561 25.7451L27.25 25.75H12.8516L7.6875 29.8818C6.70501 30.6669 5.251 29.9668 5.25 28.7109V25.75C3.10996 25.75 1.36211 24.0694 1.25488 21.9561L1.25 21.75V7.75C1.25 5.54086 3.04086 3.75 5.25 3.75H27.25L27.4561 3.75488ZM5.25 5.75C4.14543 5.75 3.25 6.64543 3.25 7.75V21.75L3.26074 21.9541C3.363 22.9628 4.21435 23.75 5.25 23.75H6.25C6.80228 23.75 7.25 24.1977 7.25 24.75V27.6689L11.875 23.9688L12.0156 23.875C12.1631 23.7934 12.3297 23.75 12.5 23.75H27.25L27.4541 23.7393C28.4628 23.637 29.25 22.7857 29.25 21.75V7.75L29.2393 7.5459C29.1438 6.60435 28.3957 5.8562 27.4541 5.76074L27.25 5.75H5.25Z" fill="#0F0F0F"/>
</svg>
