<svg width="32" height="32" viewBox="0 0 32 32" fill="none" xmlns="http://www.w3.org/2000/svg">
<path d="M13.7891 10C14.0657 9.9969 14.3372 10.0814 14.5635 10.2412C14.7894 10.4009 14.9592 10.6279 15.0488 10.8896C15.0509 10.8957 15.0528 10.902 15.0547 10.9082L17.416 18.7939C17.4375 18.8522 17.4762 18.9028 17.5264 18.9395C17.5785 18.9774 17.6414 18.9988 17.7061 19C17.7707 19.0012 17.8342 18.9823 17.8877 18.9463C17.9334 18.9155 17.9699 18.8732 17.9941 18.8242L18.4697 16.6846C18.5252 16.4311 18.6648 16.2038 18.8662 16.04C19.0682 15.876 19.3209 15.7853 19.5811 15.7832H23.5703C23.8465 15.7832 24.0703 16.0071 24.0703 16.2832C24.0703 16.5593 23.8464 16.7832 23.5703 16.7832H19.5869C19.5542 16.7838 19.5224 16.7949 19.4971 16.8154C19.4713 16.8364 19.4534 16.866 19.4463 16.8984V16.9004L18.9609 19.0869C18.9555 19.1111 18.9474 19.135 18.9385 19.1582C18.8413 19.4101 18.6692 19.6259 18.4453 19.7764C18.2212 19.927 17.9563 20.0052 17.6865 20C17.4167 19.9948 17.1547 19.9063 16.9365 19.7471C16.7185 19.588 16.5551 19.3656 16.4678 19.1104C16.4657 19.1043 16.4637 19.0979 16.4619 19.0918L14.1006 11.2061C14.0785 11.1462 14.0385 11.0944 13.9863 11.0576C13.9322 11.0194 13.8673 10.9993 13.8008 11C13.7342 11.0007 13.6694 11.0222 13.6162 11.0615C13.5639 11.1003 13.5244 11.1548 13.5039 11.2168L12.0967 15.958C12.0286 16.195 11.8857 16.4036 11.6895 16.5527C11.4924 16.7024 11.2518 16.7849 11.0039 16.7861H9.42969C9.15366 16.7861 8.92988 16.5621 8.92969 16.2861C8.92969 16.01 9.15354 15.7861 9.42969 15.7861H11C11.0304 15.7858 11.0604 15.7755 11.085 15.7568C11.1097 15.7381 11.1273 15.7114 11.1357 15.6816L11.1377 15.6758L12.5469 10.9268L12.5498 10.918C12.6336 10.6542 12.7989 10.4226 13.0215 10.2578C13.244 10.0932 13.5127 10.0032 13.7891 10Z" fill="#0F0F0F"/>
<path d="M27.1797 4.50488C29.0292 4.59842 30.5 6.12727 30.5 8V22C30.5 23.8727 29.0292 25.4016 27.1797 25.4951L27 25.5H12.4258L7.125 29.7412C6.51083 30.2322 5.61964 29.8522 5.51074 29.1123L5.5 28.96V25.5H5C3.12727 25.5 1.59842 24.0292 1.50488 22.1797L1.5 22V8C1.5 6.067 3.067 4.5 5 4.5H27L27.1797 4.50488ZM5 5.5C3.61929 5.5 2.5 6.61929 2.5 8V22L2.5127 22.2559C2.64082 23.5164 3.70566 24.5 5 24.5H6C6.27614 24.5 6.5 24.7239 6.5 25V28.96L11.9375 24.6094L12.0078 24.5625C12.0815 24.5217 12.1648 24.5 12.25 24.5H27L27.2559 24.4873C28.5164 24.3592 29.5 23.2943 29.5 22V8C29.5 6.70566 28.5164 5.64082 27.2559 5.5127L27 5.5H5Z" fill="#0F0F0F"/>
</svg>
