<svg width="32" height="32" viewBox="0 0 32 32" fill="none" xmlns="http://www.w3.org/2000/svg">
<path d="M25.0002 4.99991H7.00024C5.67464 5.00147 4.40378 5.52875 3.46643 6.4661C2.52909 7.40344 2.0018 8.6743 2.00024 9.99991V22.0004C2.0018 23.326 2.52908 24.5969 3.46643 25.5342C4.40377 26.4716 5.67464 26.9988 7.00024 27.0004H25.0002C26.3258 26.9988 27.5967 26.4716 28.5341 25.5342C29.4714 24.5969 29.9987 23.326 30.0002 22.0004V9.99991C29.9987 8.6743 29.4714 7.40344 28.5341 6.4661C27.5967 5.52875 26.3258 5.00147 25.0002 4.99991ZM7.00024 6.99991H25.0002C25.7956 7.00078 26.5582 7.31713 27.1206 7.87955C27.683 8.44197 27.9994 9.20453 28.0002 9.99991V19.0004H4.00024V9.99991C4.00111 9.20453 4.31746 8.44197 4.87988 7.87955C5.4423 7.31713 6.20486 7.00078 7.00024 6.99991ZM25.0002 25.0004H7.00024C6.20486 24.9995 5.4423 24.6832 4.87988 24.1208C4.31746 23.5583 4.00111 22.7958 4.00024 22.0004V21.0004H28.0002V22.0004C27.9994 22.7958 27.683 23.5583 27.1206 24.1208C26.5582 24.6832 25.7956 24.9995 25.0002 25.0004Z" fill="#0F0F0F"/>
<path d="M15.0002 10.9999H17.0002C17.2655 10.9999 17.5198 10.8946 17.7073 10.707C17.8949 10.5195 18.0002 10.2651 18.0002 9.99991C18.0002 9.73469 17.8949 9.48034 17.7073 9.2928C17.5198 9.10527 17.2655 8.99991 17.0002 8.99991H15.0002C14.735 8.99991 14.4807 9.10527 14.2931 9.2928C14.1056 9.48034 14.0002 9.73469 14.0002 9.99991C14.0002 10.2651 14.1056 10.5195 14.2931 10.707C14.4807 10.8946 14.735 10.9999 15.0002 10.9999Z" fill="#0F0F0F"/>
</svg>
