<svg width="32" height="32" viewBox="0 0 32 32" fill="none" xmlns="http://www.w3.org/2000/svg">
<path d="M23 2.25H9C7.74066 2.25143 6.53331 2.75233 5.64282 3.64282C4.75233 4.53331 4.25143 5.74066 4.25 7V25C4.2514 26.2593 4.7523 27.4667 5.64279 28.3572C6.53329 29.2477 7.74065 29.7486 9 29.75H23C24.2593 29.7486 25.4667 29.2477 26.3572 28.3572C27.2477 27.4667 27.7486 26.2593 27.75 25V7C27.7485 5.74067 27.2476 4.53333 26.3571 3.64285C25.4667 2.75237 24.2593 2.25146 23 2.25ZM26.25 25C26.249 25.8616 25.9063 26.6877 25.297 27.297C24.6877 27.9063 23.8616 28.249 23 28.25H9C8.13836 28.249 7.31229 27.9063 6.70301 27.297C6.09374 26.6877 5.75101 25.8616 5.75 25V7C5.75101 6.13836 6.09374 5.31229 6.70301 4.70301C7.31229 4.09374 8.13836 3.75101 9 3.75H23C23.8616 3.75101 24.6877 4.09374 25.297 4.70301C25.9063 5.31229 26.249 6.13836 26.25 7V25Z" fill="#0F0F0F"/>
<path d="M11.8918 21.9994H13.8418V22.5394C13.8446 22.7502 13.8024 22.9592 13.7178 23.1524C13.6333 23.3455 13.5085 23.5184 13.3518 23.6594C12.9706 24.0072 12.4674 24.1905 11.9518 24.1694C11.6946 24.175 11.4393 24.1252 11.203 24.0234C10.9668 23.9216 10.7553 23.7702 10.5827 23.5794C10.0781 22.9618 9.82778 22.1751 9.8827 21.3794C9.84198 20.6747 10.0239 19.975 10.4027 19.3794C10.5769 19.1363 10.8089 18.9405 11.0778 18.8095C11.3467 18.6786 11.6439 18.6167 11.9427 18.6294C12.3254 18.616 12.7039 18.7132 13.0327 18.9094C13.2048 19.0189 13.3529 19.1621 13.4681 19.3305C13.5833 19.4988 13.6631 19.6888 13.7027 19.8889H14.9635C14.8742 19.2885 14.5639 18.7432 14.0935 18.3596C13.4855 17.8721 12.7222 17.62 11.9435 17.6496C11.1029 17.6161 10.282 17.9098 9.6535 18.469C9.27455 18.8481 8.9812 19.3039 8.79318 19.8059C8.60517 20.3078 8.52685 20.8442 8.5635 21.379C8.51447 22.344 8.80456 23.2958 9.3835 24.0695C9.66683 24.422 10.0288 24.7033 10.4403 24.8908C10.8518 25.0784 11.3016 25.167 11.7535 25.1495C12.1827 25.1554 12.6084 25.0719 13.0035 24.9044C13.3587 24.7547 13.6711 24.5192 13.9127 24.2189L14.0934 24.9989H14.9734V21.07H11.8934L11.8918 21.9994Z" fill="#0F0F0F"/>
<path d="M17.5949 17.7992H16.3146V24.9994H17.5949V17.7992Z" fill="#0F0F0F"/>
<path d="M19.015 24.999H20.295V22.009H23.154V21.039H20.295V18.799H23.485V17.799H19.015V24.999Z" fill="#0F0F0F"/>
</svg>
