<svg width="32" height="32" viewBox="0 0 32 32" fill="none" xmlns="http://www.w3.org/2000/svg">
<path d="M29.6599 9C29.6599 6.37665 27.5333 4.25 24.9099 4.25H6.90991C4.28656 4.25 2.15991 6.37665 2.15991 9V23C2.15991 25.6234 4.28656 27.75 6.90991 27.75H24.9099C27.5333 27.75 29.6599 25.6234 29.6599 23V9ZM11.88 16.82C11.6206 16.8068 11.3622 16.8616 11.1305 16.9792C10.8989 17.0967 10.702 17.2728 10.5594 17.49C10.2318 18.06 10.079 18.7138 10.12 19.37C10.061 20.107 10.2666 20.8409 10.7 21.44C10.845 21.613 11.0276 21.7506 11.2338 21.8425C11.44 21.9343 11.6644 21.9779 11.89 21.97C12.1107 21.9799 12.3312 21.9461 12.5389 21.8706C12.7465 21.7951 12.9372 21.6793 13.1 21.53C13.2319 21.412 13.3368 21.2669 13.4076 21.1047C13.4783 20.9425 13.5133 20.7669 13.51 20.59V20.08H11.81V18.99H14.9593V22.9998H13.8793L13.6393 22.3298C13.3755 22.6097 13.0535 22.8283 12.6959 22.97C12.3383 23.1117 11.9539 23.1731 11.57 23.1498C11.1208 23.1681 10.6735 23.0829 10.2625 22.9007C9.85154 22.7185 9.488 22.4442 9.20002 22.099C8.61076 21.3151 8.31685 20.3486 8.37002 19.3694C8.33139 18.836 8.40882 18.3005 8.59699 17.7999C8.78516 17.2992 9.0796 16.8453 9.46002 16.4694C10.1337 15.8994 10.9986 15.6065 11.88 15.65C12.6477 15.6187 13.403 15.8513 14.02 16.3092C14.5122 16.694 14.8465 17.2456 14.96 17.86H13.29C13.2245 17.5433 13.0444 17.262 12.7841 17.0701C12.5239 16.8781 12.2019 16.7891 11.88 16.82ZM17.8693 15.7992V22.9994H16.1896V15.7992H17.8693ZM19.167 15.799H23.737V17.009H20.847V18.929H23.427V20.089H20.847V22.999H19.167V15.799Z" fill="#0F0F0F"/>
</svg>
