<svg width="32" height="32" viewBox="0 0 32 32" fill="none" xmlns="http://www.w3.org/2000/svg">
<path d="M9.66504 28.7119C7.49414 28.7119 6.28809 27.5439 6.28809 25.373V17.7812H6.14844C5.10742 17.5908 4.52344 16.7529 4.52344 15.5723V12.5C4.52344 11.1035 5.36133 10.2148 6.71973 10.2148H9.36035C8.6875 9.58008 8.28125 8.7041 8.28125 7.66309C8.28125 5.40332 10.0586 3.80371 12.3311 3.80371C14.0195 3.80371 15.4033 4.74316 16 6.36816C16.584 4.74316 17.9678 3.80371 19.6562 3.80371C21.9287 3.80371 23.7061 5.40332 23.7061 7.66309C23.7061 8.7041 23.3125 9.58008 22.627 10.2148H25.2803C26.6895 10.2148 27.4639 11.1035 27.4639 12.5V15.5723C27.4639 16.7529 26.8799 17.5908 25.8389 17.7812H25.6992V25.373C25.6992 27.5439 24.4932 28.7119 22.3223 28.7119H9.66504ZM15.0479 10.2148V8.64062C15.0479 6.8252 13.9053 5.69531 12.4326 5.69531C11.125 5.69531 10.1855 6.45703 10.1855 7.75195C10.1855 9.13574 11.3281 10.2148 13.2705 10.2148H15.0479ZM16.9395 10.2148H18.7168C20.6592 10.2148 21.8145 9.13574 21.8145 7.75195C21.8145 6.45703 20.8623 5.69531 19.5547 5.69531C18.082 5.69531 16.9395 6.8252 16.9395 8.64062V10.2148ZM14.9717 16.207V11.8652H7.13867C6.5293 11.8652 6.27539 12.1191 6.27539 12.7285V15.3311C6.27539 15.9404 6.5293 16.207 7.13867 16.207H14.9717ZM17.0156 16.207H24.8613C25.4707 16.207 25.7119 15.9404 25.7119 15.3311V12.7285C25.7119 12.1191 25.4707 11.8652 24.8613 11.8652H17.0156V16.207ZM14.9717 27.0742V17.8574H8.04004V25.4492C8.04004 26.4902 8.62402 27.0742 9.66504 27.0742H14.9717ZM17.0156 27.0742H22.335C23.3633 27.0742 23.9473 26.4902 23.9473 25.4492V17.8574H17.0156V27.0742Z" fill="black"/>
</svg>
