<svg width="32" height="32" viewBox="0 0 32 32" fill="none" xmlns="http://www.w3.org/2000/svg">
<path d="M23 2.00038H9C7.6744 2.00194 6.40353 2.52922 5.46619 3.46657C4.52884 4.40391 4.00156 5.67478 4 7.00038V25.0004C4.00156 26.326 4.52884 27.5969 5.46618 28.5342C6.40353 29.4715 7.6744 29.9988 9 30.0004H23C24.3256 29.9988 25.5965 29.4715 26.5338 28.5342C27.4712 27.5969 27.9984 26.326 28 25.0004V7.00038C27.9984 5.67478 27.4712 4.40391 26.5338 3.46657C25.5965 2.52922 24.3256 2.00194 23 2.00038ZM6 25.0004V7.00038C6.00087 6.205 6.31722 5.44244 6.87964 4.88002C7.44206 4.3176 8.20462 4.00125 9 4.00038H10V28.0004H9C8.20462 27.9995 7.44206 27.6832 6.87964 27.1207C6.31722 26.5583 6.00087 25.7958 6 25.0004ZM26 25.0004C25.9991 25.7958 25.6828 26.5583 25.1204 27.1207C24.5579 27.6832 23.7954 27.9995 23 28.0004H12V4.00038H23C23.7954 4.00125 24.5579 4.3176 25.1204 4.88002C25.6828 5.44244 25.9991 6.205 26 7.00038V25.0004Z" fill="#0F0F0F"/>
<path d="M18.7499 13.25C19.4402 13.25 19.9999 12.6903 19.9999 12C19.9999 11.3096 19.4402 10.75 18.7499 10.75C18.0595 10.75 17.4999 11.3096 17.4999 12C17.4999 12.6903 18.0595 13.25 18.7499 13.25Z" fill="#0F0F0F"/>
<path d="M21 20.0004H20V16.0004C20.0001 15.869 19.9743 15.739 19.924 15.6176C19.8738 15.4963 19.8001 15.386 19.7073 15.2931C19.6144 15.2002 19.5041 15.1266 19.3828 15.0764C19.2614 15.0261 19.1313 15.0003 19 15.0004H18C17.7348 15.0004 17.4804 15.1057 17.2929 15.2933C17.1054 15.4808 17 15.7352 17 16.0004C17 16.2656 17.1054 16.52 17.2929 16.7075C17.4804 16.895 17.7348 17.0004 18 17.0004V20.0004H17C16.7348 20.0004 16.4804 20.1057 16.2929 20.2933C16.1054 20.4808 16 20.7352 16 21.0004C16 21.2656 16.1054 21.52 16.2929 21.7075C16.4804 21.895 16.7348 22.0004 17 22.0004H21C21.2652 22.0004 21.5196 21.895 21.7071 21.7075C21.8946 21.52 22 21.2656 22 21.0004C22 20.7352 21.8946 20.4808 21.7071 20.2933C21.5196 20.1057 21.2652 20.0004 21 20.0004Z" fill="#0F0F0F"/>
</svg>
