<svg width="32" height="32" viewBox="0 0 32 32" fill="none" xmlns="http://www.w3.org/2000/svg">
<path d="M22.9998 9.49977C23.1987 9.49972 23.3895 9.42068 23.5301 9.28004C23.6708 9.1394 23.7498 8.94867 23.7498 8.74977V7.44215C23.7498 7.24324 23.6708 7.05247 23.5302 6.91182C23.3895 6.77117 23.1988 6.69215 22.9998 6.69215C22.8009 6.69215 22.6102 6.77117 22.4695 6.91182C22.3289 7.05247 22.2498 7.24324 22.2498 7.44215V8.74977C22.2499 8.94867 22.3289 9.1394 22.4696 9.28004C22.6102 9.42068 22.801 9.49972 22.9998 9.49977Z" fill="#0F0F0F"/>
<path d="M22.9999 12C23.4141 12 23.7499 11.6642 23.7499 11.25C23.7499 10.8358 23.4141 10.5 22.9999 10.5C22.5857 10.5 22.2499 10.8358 22.2499 11.25C22.2499 11.6642 22.5857 12 22.9999 12Z" fill="#0F0F0F"/>
<path d="M29.5194 12.1326L24.533 3.13258L24.5243 3.11793C24.3695 2.85268 24.1477 2.63282 23.8811 2.48043C23.6145 2.32804 23.3125 2.2485 23.0055 2.24978C22.6984 2.25107 22.3971 2.33314 22.1317 2.48776C21.8664 2.64238 21.6465 2.86409 21.494 3.13063L16.4891 12.1179C16.3341 12.384 16.2521 12.6862 16.2512 12.994C16.2503 13.3019 16.3306 13.6046 16.484 13.8715C16.6374 14.1384 16.8585 14.3602 17.125 14.5144C17.3915 14.6686 17.6939 14.7498 18.0018 14.7498H27.9989C28.3054 14.7498 28.6065 14.6694 28.8721 14.5166C29.1377 14.3637 29.3585 14.1438 29.5125 13.8788C29.6664 13.6138 29.7481 13.3131 29.7493 13.0066C29.7505 12.7002 29.6712 12.3988 29.5194 12.1326ZM28.2157 13.1248C28.1944 13.1635 28.163 13.1956 28.1248 13.2176C28.0865 13.2397 28.043 13.2508 27.9989 13.2498H18.0018C17.9577 13.2508 17.9141 13.2397 17.8759 13.2176C17.8377 13.1956 17.8062 13.1635 17.785 13.1248C17.7615 13.0845 17.7497 13.0384 17.7511 12.9918C17.7525 12.9452 17.7669 12.8999 17.7928 12.8611L22.7967 3.87379C22.8186 3.83646 22.8497 3.80541 22.8871 3.78368C22.9245 3.76195 22.9669 3.75027 23.0102 3.74978C23.0534 3.74929 23.0961 3.76001 23.134 3.78088C23.1719 3.80176 23.2037 3.83208 23.2264 3.86891L28.2147 12.8738C28.238 12.9114 28.2505 12.9548 28.2506 12.9991C28.2508 13.0434 28.2387 13.0869 28.2157 13.1248Z" fill="#0F0F0F"/>
<path d="M9.27719 22.6159C16.148 29.4867 22.2489 29.0896 23.9883 27.3502L25.0255 26.313C25.5833 25.754 25.8966 24.9966 25.8966 24.2069C25.8966 23.4172 25.5833 22.6597 25.0255 22.1008L22.5016 19.5769C21.9444 19.0241 21.1907 18.7149 20.4058 18.7171C19.6209 18.7193 18.869 19.0327 18.3149 19.5886L17.0747 20.8288C15.5809 20.5633 14.2113 19.8267 13.1662 18.7268C12.0669 17.6823 11.3293 16.3144 11.0608 14.8219L12.3114 13.5727C12.8564 12.9897 13.1524 12.217 13.1363 11.419C13.1201 10.6211 12.7932 9.86091 12.2251 9.30036L9.79236 6.86761C9.23338 6.30979 8.47594 5.9965 7.68623 5.9965C6.89653 5.9965 6.13908 6.30979 5.5801 6.86761L4.5429 7.90482C2.80341 9.64424 2.40638 15.7451 9.27719 22.6159ZM6.64073 7.92824C6.91819 7.65132 7.29419 7.4958 7.6862 7.4958C8.07821 7.4958 8.4542 7.65132 8.73167 7.92824L11.1644 10.361C11.4513 10.6404 11.6201 11.0192 11.6361 11.4193C11.6522 11.8194 11.5142 12.2105 11.2507 12.512L9.86891 13.8924C8.99677 14.7645 10.1679 17.8498 12.1056 19.7875C14.0432 21.7251 17.1313 22.8935 18.0048 22.02L19.3755 20.6492C19.6481 20.3742 20.0186 20.2186 20.4058 20.2164C20.793 20.2142 21.1653 20.3656 21.4409 20.6375L23.9648 23.1614C24.2418 23.4389 24.3973 23.8149 24.3973 24.2069C24.3973 24.5989 24.2418 24.9749 23.9648 25.2524L22.9276 26.2896C21.7717 27.4455 16.5077 27.7252 10.3378 21.5553C4.1679 15.3853 4.44756 10.1214 5.60352 8.96544L6.64073 7.92824Z" fill="#0F0F0F"/>
</svg>
