<svg width="32" height="32" viewBox="0 0 32 32" fill="none" xmlns="http://www.w3.org/2000/svg">
<path d="M10.5312 20H8.77636C7.90877 18.7556 7.46156 17.2665 7.5 15.75C7.46065 14.234 7.90646 12.745 8.77246 11.5H10.54C11.3377 11.4731 12.0934 11.136 12.6462 10.5604C13.1991 9.98476 13.5054 9.21609 13.5 8.418V4.97847C13.4992 4.18877 13.1851 3.43165 12.6267 2.87326C12.0683 2.31487 11.3112 2.00081 10.5215 2H9.05468C6.59468 2 2 6.0332 2 15.75C2 25.4668 6.59472 29.5 9.05468 29.5H10.5215C11.3112 29.4992 12.0683 29.1851 12.6267 28.6267C13.1851 28.0683 13.4992 27.3112 13.5 26.5215V22.9521C13.4969 22.1672 13.1826 21.4157 12.626 20.8622C12.0695 20.3088 11.3161 19.9987 10.5312 20ZM12 26.5215C11.9996 26.9135 11.8437 27.2893 11.5665 27.5665C11.2893 27.8437 10.9135 27.9996 10.5215 28H9.05468C7.41992 28 3.5 24.4756 3.5 15.75C3.5 7.02441 7.41992 3.5 9.05468 3.5H10.5215C10.9135 3.50039 11.2893 3.65629 11.5665 3.93348C11.8437 4.21067 11.9996 4.5865 12 4.97851V8.41793C12.0052 8.81835 11.8568 9.20555 11.5852 9.49984C11.3136 9.79412 10.9396 9.9731 10.54 9.99993H8.58691C7.35351 9.99993 6 13.0097 6 15.7499C6 18.4902 7.35644 21.4999 8.59179 21.4999H10.5312C10.9184 21.4982 11.2905 21.6501 11.5658 21.9224C11.8412 22.1946 11.9973 22.5649 12 22.9521V26.5215Z" fill="#0F0F0F"/>
<path d="M21.7304 3.28974C22.5697 2.40573 23.7405 2 24.8896 2H26.3688C27.8876 2 29.1188 3.23122 29.1188 4.75V8.75C29.1188 10.2688 27.8876 11.5 26.3688 11.5H24.7946C24.4837 11.5 24.1956 11.6631 24.0356 11.9297C22.6247 14.2812 22.6247 17.2188 24.0356 19.5703C24.1956 19.8369 24.4837 20 24.7946 20H26.3688C27.8876 20 29.1188 21.2312 29.1188 22.75V26.75C29.1188 28.2688 27.8876 29.5 26.3688 29.5H24.7021C23.6952 29.5 22.6283 29.1946 21.8331 28.4226C19.7328 26.3839 18.6132 23.7036 18.0685 20.8927C17.9896 20.486 18.2554 20.0925 18.6621 20.0137C19.0687 19.9349 19.4622 20.2007 19.5411 20.6073C20.0488 23.2271 21.0664 25.588 22.8778 27.3463C23.3246 27.78 23.9781 28 24.7021 28H26.3688C27.0592 28 27.6188 27.4404 27.6188 26.75V22.75C27.6188 22.0596 27.0592 21.5 26.3688 21.5H24.7946C23.9568 21.5 23.1804 21.0604 22.7494 20.342C21.0535 17.5155 21.0535 13.9845 22.7494 11.158C23.1804 10.4396 23.9568 10 24.7946 10H26.3688C27.0592 10 27.6188 9.44036 27.6188 8.75V4.75C27.6188 4.05964 27.0592 3.5 26.3688 3.5H24.8896C24.0794 3.5 23.328 3.78561 22.8183 4.32252C20.9164 6.3257 19.9487 8.41279 19.4874 10.8874C19.4115 11.2946 19.0199 11.5632 18.6127 11.4873C18.2055 11.4114 17.9369 11.0198 18.0128 10.6126C18.5229 7.87574 19.6141 5.51892 21.7304 3.28974Z" fill="#0F0F0F"/>
<path d="M10.2197 16.2803L14.2197 20.2803C14.2893 20.3501 14.372 20.4056 14.463 20.4435C14.5541 20.4813 14.6517 20.5009 14.7503 20.501C14.8489 20.5011 14.9466 20.4817 15.0377 20.444C15.1288 20.4063 15.2116 20.3511 15.2813 20.2813C15.351 20.2116 15.4063 20.1288 15.444 20.0377C15.4817 19.9466 15.5011 19.8489 15.501 19.7503C15.5009 19.6517 15.4813 19.5541 15.4435 19.4631C15.4056 19.372 15.3501 19.2893 15.2803 19.2197L12.5605 16.5H18.75C18.9489 16.5 19.1397 16.421 19.2803 16.2803C19.421 16.1397 19.5 15.9489 19.5 15.75C19.5 15.5511 19.421 15.3603 19.2803 15.2196C19.1397 15.079 18.9489 15 18.75 15H12.5605L15.2803 12.2802C15.3501 12.2107 15.4056 12.128 15.4435 12.0369C15.4813 11.9459 15.5009 11.8483 15.501 11.7497C15.5011 11.6511 15.4817 11.5534 15.444 11.4623C15.4063 11.3712 15.351 11.2884 15.2813 11.2187C15.2116 11.1489 15.1288 11.0936 15.0377 11.056C14.9466 11.0183 14.8489 10.9989 14.7503 10.999C14.6517 10.9991 14.5541 11.0187 14.463 11.0565C14.372 11.0944 14.2893 11.1498 14.2197 11.2197L10.2197 15.2197C10.1501 15.2893 10.0948 15.372 10.0571 15.463C10.0194 15.554 9.99998 15.6515 9.99998 15.75C9.99998 15.8485 10.0194 15.946 10.0571 16.037C10.0948 16.128 10.1501 16.2107 10.2197 16.2803Z" fill="#0F0F0F"/>
</svg>
