<svg width="32" height="32" viewBox="0 0 32 32" fill="none" xmlns="http://www.w3.org/2000/svg">
<path d="M27.1869 5.813C24.1869 2.8223 19.4762 2.4077 16 4.8286C12.0385 2.0649 6.58673 3.036 3.82313 6.9975C1.39763 10.4743 1.81473 15.19 4.81293 18.187C4.81293 18.187 9.91693 23.2954 13.6547 27.0308C14.5492 27.9392 15.9978 27.9903 16.954 27.147C17.1347 26.9666 17.2837 26.757 17.3944 26.5269L18.0638 27.1959C18.4436 27.5603 18.9525 27.7591 19.4788 27.7486C20.0946 27.7496 20.686 27.5079 21.1248 27.0758C21.35 26.8514 21.5251 26.5818 21.6385 26.2848C22.7858 26.7609 24.1018 26.2167 24.5778 25.0694C24.8154 24.4967 24.8061 23.8514 24.552 23.2858C25.7031 22.8382 26.2734 21.5422 25.8258 20.3911C25.7506 20.1977 25.6489 20.0158 25.5235 19.8504L27.1868 18.187C30.598 14.7676 30.598 9.2324 27.1869 5.813ZM23.222 21.7466L18.5301 17.0542C18.2372 16.7613 17.7624 16.7613 17.4695 17.0542C17.1766 17.3471 17.1766 17.8219 17.4695 18.1148L23.0291 23.6753C23.3233 23.967 23.3253 24.4419 23.0336 24.7361C22.7419 25.0303 22.267 25.0323 21.9728 24.7406L16.5306 19.2906C16.2377 18.9975 15.7627 18.9972 15.4696 19.2901C15.1765 19.583 15.1762 20.058 15.4691 20.3511L20.0648 24.9536C20.3577 25.2553 20.3505 25.7373 20.0488 26.0302C19.8004 26.2713 19.2454 26.2563 18.9051 25.916L14.4579 21.4693C14.1657 21.1758 13.6909 21.1748 13.3974 21.467C13.1039 21.7592 13.1029 22.234 13.3951 22.5275L15.9125 25.0445C16.187 25.3406 16.1786 25.8006 15.8935 26.0865C15.5887 26.3913 15.0267 26.2903 14.7148 25.9693C9.64253 20.9009 5.87353 17.1265 5.87353 17.1265C3.04233 14.2966 3.04133 9.7074 5.87123 6.8763C8.24483 4.5017 11.9385 4.068 14.7976 5.8284L8.31053 12.316C7.88623 12.6826 7.67373 13.2373 7.74463 13.7935C7.89773 14.4666 8.37563 15.0194 9.01953 15.2681C10.6896 16.1478 12.7432 15.7871 14.0136 14.3911L16.0253 12.3776C16.0564 12.4297 24.2582 20.6616 24.2582 20.6616C24.5613 20.9437 24.5606 21.4556 24.3136 21.7026C24.0466 21.9696 23.5187 22.0161 23.222 21.7466ZM24.4852 18.7676L18.3084 12.5908C20.0044 12.716 21.6682 12.0803 22.8485 10.856C23.1407 10.5625 23.1397 10.0877 22.8462 9.7955C22.5536 9.5042 22.0806 9.5042 21.788 9.7955C20.3895 11.1925 18.2394 11.5047 16.5014 10.5631L16.4954 10.5608C16.2026 10.3952 15.8353 10.4453 15.5976 10.6832L12.9526 13.3307C11.9618 14.3215 10.7933 14.5232 9.70363 13.9332C9.51043 13.8413 9.33603 13.7141 9.18963 13.5581L15.8736 6.8737C15.9344 6.8129 16.0004 6.7609 16.0629 6.7027C18.9892 3.9732 23.5741 4.1328 26.3035 7.059C28.9668 9.9144 28.8885 14.3667 26.1264 17.1266L24.4852 18.7676Z" fill="#0F0F0F"/>
</svg>
