<svg width="32" height="32" viewBox="0 0 32 32" fill="none" xmlns="http://www.w3.org/2000/svg">
<path d="M28.7071 4.70711C29.0976 4.31658 29.0976 3.68342 28.7071 3.29289C28.3166 2.90237 27.6834 2.90237 27.2929 3.29289L20.2578 10.3279C18.9784 10.1184 17.5615 10 16.0005 10C6.10693 10 2.00049 14.7578 2.00049 17.3047V18.7715C2.00143 19.6274 2.34188 20.4481 2.94714 21.0533C3.5524 21.6586 4.37303 21.9991 5.229 22H8.58579L3.29289 27.2929C2.90237 27.6834 2.90237 28.3166 3.29289 28.7071C3.68342 29.0976 4.31658 29.0976 4.70711 28.7071L28.7071 4.70711ZM12.0005 18.5853V17.1445C12.7489 16.6535 13.5804 16.3133 14.4484 16.1374L12.0005 18.5853Z" fill="#0F0F0F"/>
<path d="M20.0005 17.1396C19.8169 17.0197 19.6284 16.9089 19.4356 16.8073L24.6567 11.5861C28.3606 13.2028 30.0005 15.6952 30.0004 17.3047V18.7715C29.9995 19.6274 29.659 20.4481 29.0538 21.0533C28.4485 21.6586 27.6279 21.9991 26.7719 22H23.3315C22.4674 22.0044 21.6357 21.6714 21.0134 21.0719C20.391 20.4724 20.0273 19.6537 19.9995 18.79L20.0005 17.1396Z" fill="#0F0F0F"/>
</svg>
