<svg width="32" height="32" viewBox="0 0 32 32" fill="none" xmlns="http://www.w3.org/2000/svg">
<path d="M29.3007 12.2537L24.3144 3.25173L24.3085 3.24201C24.1761 3.01484 23.9862 2.8265 23.758 2.69588C23.5297 2.56527 23.2711 2.49698 23.0082 2.49787C22.7452 2.49876 22.4871 2.5688 22.2597 2.70095C22.0324 2.8331 21.8438 3.02273 21.7128 3.25079L16.705 12.2439C16.5721 12.4719 16.5016 12.7309 16.5008 12.9947C16.4999 13.2586 16.5687 13.5181 16.7001 13.7469C16.8316 13.9757 17.0211 14.1658 17.2494 14.298C17.4778 14.4302 17.737 14.4998 18.0009 14.4998H27.9989C28.2618 14.4998 28.5201 14.4306 28.7479 14.2994C28.9757 14.1681 29.165 13.9792 29.2969 13.7518C29.4287 13.5243 29.4985 13.2662 29.4991 13.0032C29.4998 12.7403 29.4314 12.4818 29.3007 12.2537ZM22.25 7.44216C22.25 7.24325 22.329 7.05249 22.4696 6.91183C22.6103 6.77118 22.801 6.69216 23 6.69216C23.1989 6.69216 23.3896 6.77118 23.5303 6.91183C23.6709 7.05249 23.75 7.24325 23.75 7.44216V8.74978C23.75 8.9487 23.6709 9.13946 23.5303 9.28011C23.3896 9.42077 23.1989 9.49978 23 9.49978C22.801 9.49978 22.6103 9.42077 22.4696 9.28011C22.329 9.13946 22.25 8.9487 22.25 8.74978V7.44216ZM23 12C22.8517 12 22.7067 11.956 22.5833 11.8736C22.46 11.7912 22.3639 11.6741 22.3071 11.537C22.2503 11.4 22.2355 11.2492 22.2644 11.1037C22.2934 10.9582 22.3648 10.8246 22.4697 10.7197C22.5746 10.6148 22.7082 10.5434 22.8537 10.5144C22.9992 10.4855 23.15 10.5003 23.287 10.5571C23.4241 10.6139 23.5412 10.71 23.6236 10.8333C23.706 10.9567 23.75 11.1017 23.75 11.25C23.75 11.4489 23.671 11.6397 23.5303 11.7803C23.3897 11.921 23.1989 12 23 12Z" fill="#0F0F0F"/>
<path d="M24.172 27.577C22.3711 29.3779 16.1032 29.8385 9.10736 22.8427C2.11155 15.8469 2.57211 9.57893 4.37306 7.77805L5.41027 6.74084C6.0162 6.13626 6.83721 5.79671 7.69318 5.79671C8.54914 5.79671 9.37015 6.13625 9.97608 6.74084L12.4088 9.17359C13.023 9.78148 13.3756 10.6051 13.3918 11.469C13.4079 12.333 13.0862 13.1691 12.4951 13.7995L11.3274 14.9658C11.6188 16.3538 12.324 17.6209 13.35 18.6001C14.3297 19.6265 15.5984 20.3307 16.9877 20.6192L18.1451 19.4618C18.7461 18.8592 19.5616 18.5195 20.4128 18.5173C21.2639 18.5151 22.0812 18.8505 22.6853 19.4501L25.2092 21.974C25.8138 22.5799 26.1534 23.4009 26.1534 24.2569C26.1534 25.1129 25.8138 25.9339 25.2092 26.5398L24.172 27.577Z" fill="#0F0F0F"/>
</svg>
