<svg width="32" height="32" viewBox="0 0 32 32" fill="none" xmlns="http://www.w3.org/2000/svg">
<path d="M11.2812 20H9.42773C8.44567 18.7103 7.94112 17.12 8 15.5C7.94063 13.8807 8.44335 12.2908 9.42285 11H11.29C12.0216 10.9739 12.7142 10.6634 13.2203 10.1344C13.7264 9.60555 14.0062 8.90003 14 8.168V4.72847C13.9993 4.00504 13.7116 3.31143 13.2001 2.7999C12.6885 2.28836 11.9949 2.00068 11.2715 2H9.80468C7.43168 2 3 5.96 3 15.5C3 25.04 7.43164 29 9.80468 29H11.2715C11.9949 28.9993 12.6885 28.7116 13.2001 28.2001C13.7116 27.6885 13.9993 26.9949 14 26.2715V22.7021C13.997 21.9835 13.7091 21.2954 13.1994 20.7889C12.6897 20.2823 11.9999 19.9986 11.2812 20ZM13 26.2715C12.9995 26.7298 12.8172 27.1691 12.4932 27.4932C12.1691 27.8172 11.7298 27.9995 11.2715 28H9.80468C8.09668 28 4 24.4033 4 15.5C4 6.59668 8.09668 3 9.80468 3H11.2715C11.7298 3.00051 12.1691 3.18279 12.4932 3.50683C12.8172 3.83088 12.9995 4.27024 13 4.72851V8.16793C13.0037 8.63417 12.8285 9.08407 12.5103 9.42492C12.1922 9.76577 11.7554 9.97158 11.29 9.99993H9.33691C8.33791 9.99993 7 12.7187 7 15.4999C7 18.2812 8.34082 20.9999 9.34179 20.9999H11.2812C11.7347 20.9983 12.1703 21.1766 12.4925 21.4957C12.8147 21.8148 12.9972 22.2486 13 22.7021V26.2715Z" fill="#0F0F0F"/>
<path d="M22.0426 3.21187C22.8269 2.38571 23.9278 2 25.0204 2H26.4996C27.8803 2 28.9996 3.11929 28.9996 4.5V8.5C28.9996 9.88071 27.8803 11 26.4996 11H24.9254C24.5267 11 24.1572 11.2092 23.9521 11.5511C22.4937 13.9817 22.4937 17.0183 23.9521 19.4489C24.1572 19.7908 24.5267 20 24.9254 20H26.4996C27.8803 20 28.9996 21.1193 28.9996 22.5V26.5C28.9996 27.8807 27.8803 29 26.4996 29H24.833C23.8732 29 22.8752 28.7088 22.138 27.9933C20.0859 26.0013 18.9833 23.3742 18.4447 20.5951C18.3922 20.324 18.5693 20.0617 18.8404 20.0091C19.1115 19.9566 19.3739 20.1338 19.4264 20.4049C19.9403 23.0565 20.9749 25.4706 22.8345 27.2757C23.3394 27.7658 24.0618 28 24.833 28H26.4996C27.3281 28 27.9996 27.3284 27.9996 26.5V22.5C27.9996 21.6716 27.3281 21 26.4996 21H24.9254C24.1754 21 23.4804 20.6065 23.0946 19.9634C21.4462 17.2161 21.4462 13.7839 23.0946 11.0366C23.4804 10.3935 24.1754 10 24.9254 10H26.4996C27.3281 10 27.9996 9.32843 27.9996 8.5V4.5C27.9996 3.67157 27.3281 3 26.4996 3H25.0204C24.1537 3 23.3324 3.30563 22.7678 3.90039C20.8302 5.94124 19.8419 8.07328 19.3725 10.5916C19.3219 10.8631 19.0608 11.0421 18.7893 10.9915C18.5179 10.9409 18.3388 10.6799 18.3894 10.4084C18.8914 7.71525 19.9619 5.40338 22.0426 3.21187Z" fill="#0F0F0F"/>
<path d="M11.1465 15.8606L15.1465 19.8606C15.2405 19.9528 15.3672 20.0041 15.4989 20.0035C15.6306 20.0028 15.7568 19.9502 15.8499 19.857C15.943 19.7639 15.9957 19.6378 15.9963 19.5061C15.997 19.3743 15.9457 19.2477 15.8535 19.1536L12.707 16.007H19.5C19.6326 16.007 19.7598 15.9544 19.8536 15.8606C19.9473 15.7668 20 15.6396 20 15.507C20 15.3744 19.9473 15.2473 19.8536 15.1535C19.7598 15.0597 19.6326 15.007 19.5 15.007H12.707L15.8535 11.8606C15.9007 11.8143 15.9382 11.7592 15.964 11.6983C15.9897 11.6374 16.0032 11.5721 16.0035 11.506C16.0038 11.4399 15.9911 11.3744 15.9659 11.3133C15.9408 11.2522 15.9038 11.1967 15.8571 11.15C15.8104 11.1032 15.7548 11.0662 15.6937 11.0411C15.6326 11.016 15.5671 11.0032 15.501 11.0035C15.435 11.0039 15.3696 11.0173 15.3087 11.0431C15.2479 11.0688 15.1927 11.1064 15.1465 11.1536L11.1465 15.1536C11.1 15.2 11.0632 15.2551 11.0381 15.3157C11.0129 15.3764 11 15.4414 11 15.5071C11 15.5727 11.0129 15.6378 11.038 15.6984C11.0632 15.7591 11.1 15.8142 11.1465 15.8606Z" fill="#0F0F0F"/>
</svg>
