<svg width="32" height="32" viewBox="0 0 32 32" fill="none" xmlns="http://www.w3.org/2000/svg">
<path d="M4.1185 6.39149L4.11618 6.39257C3.36945 4.7912 4.06227 2.88769 5.66364 2.14096C7.25319 1.39974 9.14045 2.0769 9.89853 3.65312C9.90466 3.66467 9.91053 3.67643 9.91612 3.68842L11.77 7.664C12.0046 7.38576 12.302 7.15286 12.6536 6.98892C13.6218 6.53747 14.7265 6.73673 15.4747 7.40723C15.7266 7.0466 16.0739 6.74544 16.5013 6.54616C17.4694 6.09471 18.5741 6.29396 19.3224 6.96447C19.5742 6.60383 19.9216 6.30267 20.3489 6.10339C21.6265 5.50763 23.142 6.04508 23.7622 7.30331C23.7714 7.31979 23.7801 7.33675 23.7882 7.35416L28.4462 17.3433C30.4792 21.7031 28.593 26.8854 24.2332 28.9184C21.229 30.3193 18.6059 29.984 16.2977 29.1443C15.1591 28.73 14.0881 28.19 13.0985 27.6864L12.9983 27.6354C12.0321 27.1435 11.1547 26.6969 10.3053 26.3876L6.82101 25.1188C5.85979 24.7687 5.33223 24.5766 4.61045 24.3139C3.27173 23.8268 3.02436 22.4046 3.34866 21.3185C3.6867 20.1863 4.67274 19.1012 6.20516 18.8042C7.35267 18.5817 8.50066 18.7511 9.46458 19.0045C9.67661 19.0602 9.88412 19.1214 10.0841 19.1848L4.1185 6.39149ZM5.45451 5.71149C5.46286 5.7266 5.47075 5.7421 5.47815 5.75798L12.2064 20.1867C12.3346 20.4616 12.2845 20.7867 12.0796 21.0103C11.8747 21.234 11.5552 21.3122 11.2702 21.2085C11.1299 21.1574 10.9812 21.1007 10.8241 21.0408C10.3251 20.8506 9.74251 20.6285 9.08327 20.4552C8.22479 20.2296 7.32594 20.1148 6.49063 20.2767C5.54325 20.4604 4.97525 21.1136 4.78596 21.7476C4.58296 22.4275 4.835 22.7994 5.12341 22.9044C5.84713 23.1677 6.37574 23.3602 7.34175 23.7121L10.8185 24.9781C11.7563 25.3196 12.7078 25.8041 13.6444 26.2811L13.7789 26.3496C14.7752 26.8566 15.7696 27.356 16.8106 27.7347C18.8616 28.4809 21.0543 28.7457 23.5993 27.559C27.2083 25.8761 28.7697 21.5862 27.0868 17.9772L22.4491 8.03168C22.4415 8.01766 22.4342 8.00329 22.4273 7.98861C22.1736 7.44454 21.5269 7.20915 20.9829 7.46286C20.4388 7.71656 20.2034 8.36328 20.4571 8.90735C20.4623 8.91845 20.4672 8.92961 20.4717 8.94083L21.75 11.6821C21.9251 12.0575 21.7627 12.5037 21.3873 12.6788C21.0119 12.8538 20.5656 12.6914 20.3906 12.316L18.5791 8.43137C18.5761 8.42485 18.5731 8.41831 18.5703 8.41175C18.3103 7.88168 17.6727 7.65499 17.1352 7.90562C16.5925 8.1587 16.3569 8.80288 16.6076 9.34612L16.6094 9.35011L18.1621 12.6798C18.3372 13.0552 18.1748 13.5015 17.7994 13.6765C17.4239 13.8516 16.9777 13.6892 16.8027 13.3137L15.2516 9.9875L15.25 9.98404L15.247 9.9776L14.7424 8.89543L14.7361 8.88281L14.732 8.87414C14.4783 8.33007 13.8316 8.09468 13.2875 8.34838C12.7563 8.59612 12.5193 9.21859 12.7447 9.75431L14.3153 13.1226C14.4904 13.498 14.328 13.9442 13.9526 14.1193C13.5772 14.2943 13.1309 14.1319 12.9559 13.7565L11.4179 10.4582C11.4125 10.4479 11.4073 10.4374 11.4023 10.4268C11.3931 10.4071 11.3842 10.3873 11.3755 10.3675L8.55579 4.32234C8.15917 3.47179 7.14813 3.1038 6.29757 3.50042C5.46267 3.88974 5.09274 4.87105 5.45451 5.71149Z" fill="#0F0F0F"/>
</svg>
