<svg width="32" height="32" viewBox="0 0 32 32" fill="none" xmlns="http://www.w3.org/2000/svg">
<path d="M27.3639 5.6362C24.3247 2.6047 19.5691 2.1378 15.9982 4.5202C11.8669 1.7587 6.27909 2.869 3.51749 7.0003C1.13139 10.5699 1.59989 15.328 4.63629 18.3637L5.13919 18.8657C5.23389 18.9663 8.03959 21.7729 13.4786 27.2075C14.4715 28.2113 16.0763 28.2623 17.1309 27.3237C17.2498 27.205 17.3566 27.0748 17.4497 26.935L17.8877 27.3725C18.3148 27.7829 18.8873 28.007 19.4795 27.9955C20.161 27.9971 20.8158 27.7301 21.3018 27.2523C21.4935 27.0611 21.6531 26.8401 21.7745 26.598C23.095 26.9989 24.4904 26.2534 24.8913 24.933C25.0417 24.4375 25.0345 23.9076 24.8707 23.4164C26.0963 22.7866 26.5793 21.2825 25.9495 20.0569C25.9183 19.9962 25.8847 19.9369 25.8486 19.8789L27.3639 18.3636C30.8779 14.8458 30.8819 9.1502 27.3639 5.6362ZM24.0826 21.5454C23.8948 21.7334 23.5928 21.742 23.3946 21.5649L18.7071 16.8774C18.3142 16.4893 17.6811 16.4933 17.2931 16.8862C16.9084 17.2757 16.9084 17.902 17.2931 18.2915L22.8527 23.8511C23.0496 24.0452 23.0518 24.3622 22.8576 24.5591C22.6634 24.756 22.3465 24.7582 22.1496 24.564L16.7071 19.1226C16.3142 18.7346 15.6811 18.7385 15.2931 19.1314C14.9085 19.5209 14.9085 20.1472 15.2931 20.5366L19.9034 25.146C20.0843 25.3434 20.0776 25.6481 19.8883 25.8374C19.6582 26.0336 19.3126 26.0062 19.1163 25.776C19.1115 25.7704 19.1069 25.7648 19.1024 25.759L14.6383 21.2924C14.2456 20.9039 13.6123 20.9072 13.2238 21.2999C12.8384 21.6895 12.8382 22.3166 13.2233 22.7064L15.6512 25.1358C15.887 25.3716 15.9123 25.714 15.717 25.9096C15.4859 26.1407 15.1633 26.0639 14.8918 25.7924C9.83419 20.7387 6.73069 17.6342 6.57389 17.4731L6.05049 16.9497C3.31689 14.2175 3.31579 9.7865 6.04799 7.0529C8.25609 4.8437 11.6608 4.3653 14.3921 5.8804L8.13389 12.1391C7.65159 12.5614 7.41279 13.1971 7.49769 13.8325C7.66089 14.5856 8.18909 15.2077 8.90589 15.4907C10.6721 16.4221 12.8445 16.0427 14.1906 14.5679L16.0001 12.7568L24.0817 20.8384C24.2767 21.0335 24.2772 21.3497 24.0826 21.5454ZM24.4854 18.4141L18.9213 12.85C20.4741 12.8032 21.9471 12.1511 23.0255 11.0328C23.416 10.6423 23.416 10.0092 23.0255 9.6187C22.635 9.2282 22.0019 9.2282 21.6114 9.6187C20.2908 10.9323 18.2665 11.2277 16.6256 10.3462C16.5739 10.3214 16.5201 10.3013 16.4648 10.2861C16.1037 10.1491 15.6959 10.2351 15.421 10.5064L12.776 13.1539C12.0438 14.0127 10.8117 14.2445 9.81749 13.7105C9.72449 13.6648 9.63619 13.6102 9.55379 13.5474L16.0504 7.0503C16.0654 7.0353 16.0821 7.0229 16.0972 7.0081C18.8542 4.2992 23.2852 4.3381 25.9941 7.0951C28.6866 9.8354 28.6668 14.2338 25.9498 16.9497L24.4854 18.4141Z" fill="#0F0F0F"/>
</svg>
