<svg width="32" height="32" viewBox="0 0 32 32" fill="none" xmlns="http://www.w3.org/2000/svg">
<path d="M28.1343 21.4131L25.3281 18.6032C25.0026 18.2781 24.6161 18.0203 24.1908 17.8446C23.7656 17.6689 23.3099 17.5787 22.8498 17.5792C22.3896 17.5797 21.9341 17.6709 21.5093 17.8476C21.0844 18.0242 20.6985 18.2829 20.3737 18.6088C20.3737 18.6088 19.1617 19.8426 18.649 20.3606C16.8011 20.2957 15.0467 19.532 13.7401 18.2237C12.4335 16.9154 11.6721 15.16 11.6097 13.312C12.1252 12.7986 13.3583 11.5851 13.3638 11.5795C14.0205 10.9221 14.3893 10.031 14.3893 9.10184C14.3893 8.17269 14.0205 7.28154 13.3638 6.62417L10.5577 3.81427C9.88914 3.17476 8.99965 2.81784 8.0745 2.81784C7.14935 2.81784 6.25987 3.17476 5.59133 3.81427L4.09078 5.31585C2.06596 7.34358 1.58789 14.4428 9.55336 22.4197C13.8333 26.7053 17.6089 28.2767 20.0236 28.8399C20.8981 29.049 21.7937 29.1576 22.6928 29.1637C24.1219 29.264 25.5344 28.807 26.6338 27.8885L28.1343 26.3874C28.7924 25.727 29.162 24.8327 29.162 23.9003C29.162 22.9679 28.7924 22.0735 28.1343 21.4131ZM26.8038 25.0544L25.3034 26.5568C24.6877 27.1731 22.907 27.578 20.45 27.0048C18.275 26.4967 14.8496 25.0589 10.8839 21.0879C3.80324 13.9966 4.10367 7.9674 5.42131 6.64807L6.92176 5.14649C7.23216 4.84983 7.64499 4.68428 8.07436 4.68428C8.50373 4.68428 8.91656 4.84983 9.22696 5.14649L12.0331 7.95639C12.3358 8.25933 12.5063 8.66974 12.5073 9.09797C12.5083 9.5262 12.3399 9.93743 12.0387 10.2418C12.0387 10.2418 10.505 11.7507 10.1357 12.1224C9.98316 12.3031 9.86846 12.5126 9.79838 12.7384C9.7283 12.9642 9.70427 13.2018 9.72771 13.4371C9.84779 15.7357 10.8017 17.9116 12.4108 19.5574C14.8641 22.0149 18.8924 22.7858 19.836 21.8373C20.2063 21.4665 21.7084 19.9367 21.7095 19.9356C22.0131 19.6324 22.4245 19.4622 22.8535 19.4622C23.2825 19.4622 23.6939 19.6324 23.9975 19.9356L26.8036 22.7454C27.1091 23.052 27.2806 23.4672 27.2806 23.9C27.2807 24.3328 27.1092 24.748 26.8038 25.0547V25.0544Z" fill="#0F0F0F"/>
</svg>
