<svg width="32" height="32" viewBox="0 0 32 32" fill="none" xmlns="http://www.w3.org/2000/svg">
<path d="M25.0342 18.2549C25.4453 18.3008 25.7412 18.6719 25.6953 19.084C25.2549 23.0137 22.4781 26.2702 18.7139 27.3623C18.5345 28.7065 17.3926 29.75 16 29.75C14.4834 29.75 13.25 28.5166 13.25 27C13.25 25.4834 14.4834 24.25 16 24.25C17.1019 24.25 18.0478 24.9051 18.4863 25.8428C21.5703 24.8634 23.8396 22.1727 24.2051 18.916C24.251 18.5049 24.6319 18.2149 25.0342 18.2549ZM16 25.75C15.3106 25.75 14.7501 26.3106 14.75 27C14.75 27.6895 15.3105 28.25 16 28.25C16.6895 28.25 17.25 27.6895 17.25 27C17.2499 26.3106 16.6894 25.75 16 25.75ZM16 2.24999C16.3652 2.24999 16.7265 2.27046 17.082 2.30956C17.4941 2.35446 17.7909 2.72467 17.7451 3.13671C17.7002 3.54781 17.3428 3.8613 16.918 3.7998C16.6172 3.7666 16.3105 3.74999 16 3.74999C11.4513 3.74999 7.75009 7.45127 7.75 12L7.75293 19.0059C7.75383 19.205 7.67471 19.3965 7.53418 19.5371C7.39359 19.6787 7.20212 19.7578 7.00293 19.7578C4.38183 19.7578 2.25 17.626 2.25 15.0049C2.25009 12.6076 4.0587 10.6191 6.39844 10.3018C7.20422 5.73245 11.2032 2.24999 16 2.24999ZM6.25098 11.8545C4.81643 12.208 3.75008 13.4864 3.75 15.0049C3.75 16.54 4.81842 17.8291 6.25 18.1699V12C6.25 11.9512 6.24998 11.9032 6.25098 11.8545ZM24.7881 2.36327C25.1192 2.19049 25.5167 2.21684 25.8232 2.43163L29.1396 4.20702C29.5185 4.46582 29.7109 4.79984 29.7441 5.16894C29.7764 5.53814 29.6445 5.89942 29.3828 6.16112L26.3584 8.99999L29.3672 11.8223C29.6445 12.0997 29.7763 12.4599 29.7451 12.8271C29.7147 13.1942 29.5244 13.5274 29.2236 13.7402L25.751 15.6143C25.6289 15.704 25.4569 15.7549 25.2715 15.7549C25.1133 15.7549 24.9462 15.7177 24.792 15.6387C24.4581 15.4659 24.2501 15.1249 24.25 14.749V10.9785L21.5137 13.5469C21.211 13.8299 20.7363 13.8162 20.4531 13.5137C20.17 13.211 20.1846 12.7363 20.4863 12.4531L24.167 8.99999L20.4863 5.54687C20.1845 5.26368 20.17 4.78902 20.4531 4.48632C20.7363 4.18452 21.211 4.16992 21.5137 4.45312L24.25 7.02148V3.24999C24.25 2.87599 24.4561 2.53617 24.7881 2.36327ZM25.75 13.916L28.0723 12.6641L25.75 10.4853V13.916ZM25.75 7.51366L28.0742 5.33202L25.75 4.08788V7.51366Z" fill="#0F0F0F"/>
</svg>
