<svg width="32" height="32" viewBox="0 0 32 32" fill="none" xmlns="http://www.w3.org/2000/svg">
<path d="M29.5002 15.0083C29.4908 13.8856 29.0631 12.8068 28.3007 11.9826C27.5383 11.1584 26.496 10.6481 25.3774 10.5513C25.0332 8.31155 23.8992 6.26876 22.1804 4.79207C20.4615 3.31538 18.2712 2.50221 16.0051 2.49949C13.739 2.49677 11.5467 3.30468 9.82432 4.77724C8.10192 6.2498 6.96304 8.28986 6.61348 10.5288C5.45779 10.6281 4.38514 11.17 3.61952 12.0414C2.85389 12.9127 2.45449 14.0462 2.50471 15.2051C2.55493 16.3639 3.0509 17.4586 3.88904 18.2604C4.72718 19.0623 5.8427 19.5094 7.00264 19.5083C7.06841 19.5084 7.13355 19.4955 7.19432 19.4703C7.25509 19.4452 7.31029 19.4083 7.35675 19.3617C7.40321 19.3152 7.44002 19.2599 7.46506 19.1991C7.49009 19.1382 7.50286 19.0731 7.50264 19.0073L7.49971 11.9995C7.49971 9.74515 8.39524 7.58314 9.9893 5.98908C11.5834 4.39502 13.7454 3.49949 15.9997 3.49949C18.2541 3.49949 20.4161 4.39502 22.0101 5.98908C23.6042 7.58314 24.4997 9.74515 24.4997 11.9995V17.9995C24.4967 19.8433 23.8949 21.6362 22.785 23.1085C21.675 24.5807 20.1169 25.6527 18.3452 26.163C18.1382 25.5789 17.7219 25.0925 17.1768 24.7978C16.6317 24.5032 15.9966 24.4214 15.3946 24.5683C14.7927 24.7152 14.2666 25.0803 13.9185 25.5928C13.5703 26.1054 13.4248 26.7289 13.5101 27.3427C13.5954 27.9564 13.9055 28.5166 14.3803 28.9148C14.855 29.3129 15.4607 29.5207 16.0799 29.4978C16.6991 29.4749 17.2878 29.223 17.7319 28.7909C18.176 28.3587 18.4438 27.7771 18.4836 27.1588C20.2535 26.6761 21.8463 25.6922 23.0703 24.3257C24.2943 22.9591 25.0973 21.268 25.3829 19.4557C26.4992 19.3589 27.5394 18.8496 28.3007 18.0274C29.0619 17.2051 29.4895 16.1288 29.5002 15.0083ZM6.50117 18.4722C5.66732 18.3531 4.90452 17.9369 4.35306 17.3002C3.8016 16.6635 3.49857 15.8491 3.4997 15.0067C3.50083 14.1644 3.80604 13.3508 4.35921 12.7156C4.91237 12.0804 5.67628 11.6662 6.51045 11.5493L6.50117 18.4722ZM15.9997 28.4995C15.703 28.4995 15.413 28.4116 15.1664 28.2467C14.9197 28.0819 14.7274 27.8477 14.6139 27.5736C14.5004 27.2995 14.4707 26.9979 14.5285 26.7069C14.5864 26.4159 14.7293 26.1487 14.939 25.9389C15.1488 25.7291 15.4161 25.5862 15.7071 25.5284C15.998 25.4705 16.2996 25.5002 16.5737 25.6137C16.8478 25.7273 17.0821 25.9195 17.2469 26.1662C17.4117 26.4129 17.4997 26.7029 17.4997 26.9995C17.4993 27.3972 17.3411 27.7785 17.0599 28.0597C16.7787 28.3409 16.3974 28.4991 15.9997 28.4995ZM25.4808 18.4462C25.4877 18.2974 25.4998 18.15 25.4998 17.9995V11.9995C25.4998 11.8516 25.4843 11.7075 25.4775 11.5612C26.3132 11.6702 27.0806 12.0795 27.6368 12.7126C28.1929 13.3458 28.4998 14.1596 28.5002 15.0023C28.5006 15.845 28.1945 16.6591 27.6389 17.2927C27.0834 17.9264 26.3163 18.3364 25.4808 18.4462Z" fill="#0F0F0F"/>
</svg>
