<svg width="32" height="32" viewBox="0 0 32 32" fill="none" xmlns="http://www.w3.org/2000/svg">
<path d="M30.0005 15.0083C29.9929 13.8274 29.5687 12.687 28.8027 11.7882C28.0366 10.8893 26.9779 10.2897 25.8131 10.095C25.3715 7.81699 24.1513 5.76351 22.3617 4.28652C20.5721 2.80954 18.3244 2.00102 16.004 1.99954C13.6836 1.99807 11.4349 2.80374 9.64341 4.27846C7.8519 5.75317 6.62911 7.8051 6.18463 10.0825C4.94613 10.2864 3.82974 10.949 3.0575 11.9385C2.28526 12.928 1.91377 14.1719 2.0169 15.4228C2.12004 16.6737 2.69025 17.84 3.61412 18.6896C4.53799 19.5393 5.74783 20.0101 7.00299 20.0083C7.13455 20.0083 7.26481 19.9823 7.38631 19.9319C7.50781 19.8814 7.61817 19.8075 7.71106 19.7143C7.80395 19.6212 7.87755 19.5106 7.92764 19.3889C7.97774 19.2673 8.00334 19.137 8.00299 19.0054L8.00006 11.9995C8.00006 9.8778 8.84292 7.84297 10.3432 6.34268C11.8435 4.84239 13.8783 3.99954 16.0001 3.99954C18.1218 3.99954 20.1566 4.84239 21.6569 6.34268C23.1572 7.84297 24.0001 9.8778 24.0001 11.9995V17.9995C23.9972 19.6621 23.4769 21.2826 22.5114 22.6361C21.5458 23.9896 20.1829 25.009 18.6118 25.5529C18.2681 24.9401 17.7194 24.4682 17.0621 24.22C16.4048 23.9719 15.6811 23.9635 15.0182 24.1963C14.3553 24.429 13.7957 24.8881 13.4379 25.4927C13.08 26.0973 12.9468 26.8087 13.0617 27.5018C13.1766 28.195 13.5322 28.8254 14.0659 29.2822C14.5997 29.739 15.2774 29.993 15.98 29.9995C16.6825 30.006 17.3648 29.7645 17.9069 29.3176C18.449 28.8707 18.8162 28.2469 18.9438 27.5561C20.6708 27.0194 22.2206 26.0257 23.4291 24.6803C24.6376 23.3348 25.4599 21.6877 25.8088 19.9132C26.9734 19.7206 28.0326 19.1229 28.7996 18.2255C29.5665 17.3281 29.9918 16.1887 30.0005 15.0083ZM6.00005 17.8365C5.41543 17.6311 4.909 17.2493 4.55073 16.7437C4.19246 16.2382 4.00003 15.6338 4.00003 15.0142C4.00003 14.3945 4.19246 13.7902 4.55073 13.2846C4.909 12.7791 5.41543 12.3973 6.00005 12.1919V17.8365ZM16.0001 27.9995C15.8023 27.9995 15.6089 27.9409 15.4445 27.831C15.28 27.7211 15.1519 27.5649 15.0762 27.3822C15.0005 27.1995 14.9807 26.9984 15.0193 26.8044C15.0579 26.6105 15.1531 26.4323 15.2929 26.2924C15.4328 26.1526 15.611 26.0573 15.805 26.0188C15.9989 25.9802 16.2 26 16.3827 26.0757C16.5655 26.1513 16.7216 26.2795 16.8315 26.444C16.9414 26.6084 17.0001 26.8018 17.0001 26.9995C16.9998 27.2647 16.8943 27.5189 16.7069 27.7064C16.5194 27.8938 16.2652 27.9993 16.0001 27.9995ZM26.0001 17.8045V12.2034C26.5838 12.4035 27.0904 12.781 27.4491 13.2831C27.8077 13.7852 28.0006 14.3869 28.0006 15.0039C28.0006 15.621 27.8077 16.2226 27.4491 16.7248C27.0904 17.2269 26.5838 17.6044 26.0001 17.8045Z" fill="#0F0F0F"/>
</svg>
