<svg width="32" height="32" viewBox="0 0 32 32" fill="none" xmlns="http://www.w3.org/2000/svg">
<path d="M22.2501 7.44228V8.74989C22.2501 8.9488 22.3291 9.13957 22.4697 9.28022C22.6104 9.42087 22.8012 9.49989 23.0001 9.49989C23.199 9.49989 23.3898 9.42087 23.5304 9.28022C23.6711 9.13957 23.7501 8.9488 23.7501 8.74989V7.44228C23.7501 7.24337 23.6711 7.0526 23.5304 6.91195C23.3898 6.7713 23.199 6.69228 23.0001 6.69228C22.8012 6.69228 22.6104 6.7713 22.4697 6.91195C22.3291 7.0526 22.2501 7.24337 22.2501 7.44228Z" fill="#0F0F0F"/>
<path d="M23.0004 12C23.4147 12 23.7504 11.6642 23.7504 11.25C23.7504 10.8357 23.4147 10.5 23.0004 10.5C22.5862 10.5 22.2504 10.8357 22.2504 11.25C22.2504 11.6642 22.5862 12 23.0004 12Z" fill="#0F0F0F"/>
<path d="M29.7384 12.0116L24.752 3.01161L24.7403 2.99208C24.5659 2.68903 24.3144 2.43758 24.0113 2.2633C23.7082 2.08902 23.3644 1.99814 23.0147 1.99989C22.6615 1.99905 22.3134 2.0921 22.0079 2.26954C21.7025 2.44697 21.4497 2.70239 21.2754 3.00966L16.2734 11.9921C16.0964 12.2961 16.0026 12.6414 16.0016 12.9933C16.0005 13.3451 16.0923 13.691 16.2676 13.996C16.4429 14.3011 16.6955 14.5545 17 14.7307C17.3045 14.907 17.6501 14.9998 18.002 14.9999H28C28.3499 14.9998 28.6936 14.908 28.9969 14.7335C29.3002 14.559 29.5524 14.308 29.7284 14.0056C29.9043 13.7031 29.9978 13.3598 29.9995 13.0099C30.0013 12.66 29.9113 12.3158 29.7384 12.0116ZM18.0118 12.9823L23.0108 3.99599L28.0001 12.9999L18.0118 12.9823Z" fill="#0F0F0F"/>
<path d="M16.0001 3.99989C16.2976 3.99982 16.5949 4.01612 16.8907 4.04872C17.1541 4.07717 17.418 3.99996 17.6245 3.83405C17.831 3.66813 17.9633 3.42706 17.9923 3.16373C18.0212 2.90041 17.9445 2.63635 17.779 2.4295C17.6135 2.22266 17.3727 2.08993 17.1094 2.06044C16.741 2.01999 16.3707 1.99978 16.0001 1.99989C13.6814 2.00291 11.4357 2.81017 9.64573 4.28399C7.85579 5.75782 6.63256 7.80694 6.18463 10.0819C4.94613 10.2857 3.82974 10.9483 3.0575 11.9378C2.28526 12.9273 1.91377 14.1712 2.0169 15.4221C2.12004 16.6731 2.69025 17.8393 3.61412 18.689C4.53799 19.5386 5.74783 20.0094 7.00299 20.0077C7.13455 20.0076 7.26481 19.9816 7.38631 19.9312C7.50781 19.8807 7.61817 19.8068 7.71106 19.7137C7.80395 19.6205 7.87755 19.5099 7.92764 19.3883C7.97774 19.2666 8.00334 19.1363 8.00299 19.0047L8.00006 11.9998C8.0025 9.87887 8.84614 7.84545 10.3459 6.3457C11.8457 4.84594 13.8791 4.00231 16.0001 3.99989ZM6.00007 17.8358C5.41545 17.6305 4.90902 17.2487 4.55076 16.7431C4.19249 16.2375 4.00006 15.6332 4.00006 15.0136C4.00006 14.3939 4.19249 13.7896 4.55076 13.284C4.90902 12.7785 5.41545 12.3966 6.00007 12.1913V17.8358Z" fill="#0F0F0F"/>
<path d="M25.0548 18.0057C24.7914 17.9781 24.5277 18.0556 24.3211 18.2212C24.1145 18.3869 23.9816 18.6274 23.9512 18.8905C23.7853 20.3934 23.1953 21.8181 22.2502 22.9984C21.305 24.1787 20.0437 25.0658 18.6134 25.5563C18.2704 24.9428 17.7219 24.47 17.0646 24.2211C16.4073 23.9722 15.6832 23.9632 15.0199 24.1956C14.3565 24.428 13.7964 24.8869 13.4381 25.4916C13.0798 26.0963 12.9463 26.808 13.0611 27.5014C13.1759 28.1949 13.5316 28.8256 14.0656 29.2826C14.5997 29.7396 15.2778 29.9935 15.9806 29.9998C16.6835 30.006 17.366 29.7641 17.9081 29.3167C18.4501 28.8693 18.817 28.245 18.9441 27.5537C20.8077 26.9836 22.4634 25.88 23.7066 24.3793C24.9498 22.8785 25.7261 21.0464 25.9395 19.1093C25.9539 18.9787 25.9425 18.8466 25.9058 18.7205C25.8691 18.5943 25.808 18.4767 25.7258 18.3742C25.6436 18.2717 25.5421 18.1864 25.4269 18.1232C25.3118 18.06 25.1853 18.0201 25.0548 18.0057ZM16.0001 27.9999C15.8023 27.9999 15.609 27.9412 15.4445 27.8314C15.2801 27.7215 15.1519 27.5653 15.0762 27.3826C15.0005 27.1998 14.9807 26.9988 15.0193 26.8048C15.0579 26.6108 15.1531 26.4326 15.293 26.2928C15.4328 26.1529 15.611 26.0577 15.805 26.0191C15.999 25.9805 16.2 26.0003 16.3828 26.076C16.5655 26.1517 16.7217 26.2799 16.8315 26.4443C16.9414 26.6088 17.0001 26.8021 17.0001 26.9999C16.9999 27.265 16.8945 27.5193 16.707 27.7068C16.5195 27.8943 16.2652 27.9997 16.0001 27.9999Z" fill="#0F0F0F"/>
</svg>
