<svg width="32" height="32" viewBox="0 0 32 32" fill="none" xmlns="http://www.w3.org/2000/svg">
<path d="M23.9193 23.2116C24.672 22.0801 25.1705 20.7988 25.3804 19.4561C26.5019 19.3692 27.5493 18.8623 28.3133 18.0367C29.0773 17.211 29.5015 16.1275 29.5012 15.0026C29.5009 13.8777 29.0761 12.7944 28.3116 11.9692C27.5472 11.1439 26.4995 10.6376 25.3779 10.5514C25.0842 8.61867 24.1999 6.82408 22.8461 5.41367C21.4924 4.00326 19.7356 3.04608 17.8165 2.67335C15.8975 2.30063 13.9101 2.5306 12.1268 3.33175C10.3436 4.13289 8.8518 5.46599 7.85597 7.14828L4.35372 3.646C4.25964 3.55381 4.13298 3.50246 4.00126 3.50313C3.86955 3.50379 3.74341 3.55641 3.65027 3.64955C3.55713 3.74269 3.50451 3.86883 3.50385 4.00055C3.50318 4.13226 3.55452 4.25892 3.64672 4.353L27.6467 28.3531C27.7408 28.4453 27.8674 28.4966 27.9991 28.4959C28.1308 28.4953 28.257 28.4426 28.3501 28.3495C28.4433 28.2564 28.4959 28.1302 28.4966 27.9985C28.4972 27.8668 28.4459 27.7401 28.3537 27.6461L23.9193 23.2116ZM28.5012 15.0083C28.4925 15.8481 28.1829 16.6569 27.6285 17.2878C27.0742 17.9187 26.3119 18.3298 25.4802 18.4464C25.4848 18.4794 25.4779 11.5612 25.4779 11.5612C26.3111 11.6786 27.0745 12.0911 27.6293 12.7237C28.1842 13.3563 28.4935 14.1669 28.5012 15.0083ZM23.1974 22.4897L8.58748 7.87979C9.49841 6.23206 10.9314 4.93406 12.661 4.19011C14.3905 3.44615 16.3184 3.2985 18.141 3.77038C19.9637 4.24226 21.5777 5.30689 22.7289 6.79667C23.8802 8.28645 24.5033 10.1168 24.5002 11.9995V17.9995C24.4995 19.5894 24.0477 21.1463 23.1974 22.4897Z" fill="#0F0F0F"/>
<path d="M6.96474 9.08591C6.80992 9.55688 6.69263 10.0394 6.61397 10.5288C5.45828 10.6281 4.38563 11.17 3.62 12.0414C2.85438 12.9128 2.45498 14.0462 2.5052 15.2051C2.55542 16.3639 3.05139 17.4586 3.88953 18.2605C4.72767 19.0623 5.84319 19.5094 7.00313 19.5083C7.0689 19.5084 7.13404 19.4955 7.19481 19.4704C7.25558 19.4452 7.31078 19.4083 7.35724 19.3617C7.4037 19.3152 7.44051 19.2599 7.46554 19.1991C7.49058 19.1383 7.50335 19.0731 7.50313 19.0073L7.5002 11.9995C7.50296 11.2895 7.59512 10.5827 7.77449 9.89566L6.96474 9.08591ZM6.50166 18.4722C5.66781 18.3531 4.90501 17.9369 4.35355 17.3002C3.80209 16.6635 3.49906 15.8491 3.50019 15.0067C3.50132 14.1644 3.80653 13.3508 4.35969 12.7156C4.91286 12.0804 5.67677 11.6662 6.51094 11.5494C6.50362 11.6978 6.50166 18.4722 6.50166 18.4722Z" fill="#0F0F0F"/>
<path d="M18.3457 26.1629C18.1389 25.5787 17.7229 25.0927 17.1778 24.7979C16.6327 24.5032 15.9976 24.4212 15.3955 24.5679C14.7935 24.7147 14.2673 25.0797 13.919 25.5922C13.5707 26.1048 13.425 26.7284 13.5102 27.3422C13.5955 27.956 13.9055 28.5163 14.3803 28.9146C14.855 29.3128 15.4607 29.5207 16.08 29.4979C16.6993 29.475 17.288 29.2232 17.7322 28.791C18.1763 28.3589 18.4443 27.7773 18.4841 27.1588C20.0525 26.7295 21.4847 25.9054 22.6441 24.7652L21.9404 24.0615C20.9345 25.0487 19.6994 25.7707 18.3457 26.1629ZM16.0002 28.4995C15.7035 28.4995 15.4135 28.4116 15.1668 28.2467C14.9202 28.0819 14.7279 27.8477 14.6144 27.5736C14.5008 27.2995 14.4711 26.9979 14.529 26.7069C14.5869 26.4159 14.7298 26.1487 14.9395 25.9389C15.1493 25.7291 15.4166 25.5862 15.7076 25.5284C15.9985 25.4705 16.3001 25.5002 16.5742 25.6137C16.8483 25.7273 17.0826 25.9195 17.2474 26.1662C17.4122 26.4129 17.5002 26.7029 17.5002 26.9995C17.4998 27.3972 17.3416 27.7785 17.0604 28.0597C16.7792 28.3409 16.3979 28.4991 16.0002 28.4995Z" fill="#0F0F0F"/>
</svg>
