<svg width="32" height="32" viewBox="0 0 32 32" fill="none" xmlns="http://www.w3.org/2000/svg">
<path d="M28.8027 11.7882C29.5687 12.687 29.9929 13.8274 30.0005 15.0083C29.9918 16.1887 29.5665 17.3281 28.7996 18.2255C28.0326 19.1229 26.9734 19.7206 25.8088 19.9132C25.4599 21.6877 24.6376 23.3348 23.4291 24.6803C22.2206 26.0257 20.6708 27.0194 18.9438 27.5561C18.8162 28.2469 18.449 28.8707 17.9069 29.3176C17.3648 29.7645 16.6825 30.006 15.98 29.9995C15.2774 29.993 14.5997 29.739 14.0659 29.2822C13.5322 28.8254 13.1766 28.195 13.0617 27.5018C12.9468 26.8087 13.08 26.0973 13.4379 25.4927C13.7957 24.8881 14.3553 24.429 15.0182 24.1963C15.6811 23.9635 16.4048 23.9719 17.0621 24.22C17.7194 24.4682 18.2681 24.9401 18.6118 25.5529C20.1829 25.009 21.5458 23.9896 22.5114 22.6361C23.4769 21.2826 23.9972 19.6621 24.0001 17.9995V11.9995C24.0001 9.8778 23.1572 7.84297 21.6569 6.34268C20.1566 4.84239 18.1218 3.99954 16.0001 3.99954C13.8783 3.99954 11.8435 4.84239 10.3432 6.34268C8.84292 7.84297 8.00006 9.8778 8.00006 11.9995L8.00299 19.0054C8.00334 19.137 7.97774 19.2673 7.92764 19.3889C7.87755 19.5106 7.80395 19.6212 7.71106 19.7143C7.61817 19.8075 7.50781 19.8814 7.38631 19.9319C7.26481 19.9823 7.13455 20.0083 7.00299 20.0083C5.74783 20.0101 4.53799 19.5393 3.61412 18.6896C2.69025 17.84 2.12004 16.6737 2.0169 15.4228C1.91377 14.1719 2.28526 12.928 3.0575 11.9385C3.82974 10.949 4.94613 10.2864 6.18463 10.0825C6.62911 7.8051 7.8519 5.75317 9.64341 4.27846C11.4349 2.80374 13.6836 1.99807 16.004 1.99954C18.3244 2.00102 20.5721 2.80954 22.3617 4.28652C24.1513 5.76351 25.3715 7.81699 25.8131 10.095C26.9779 10.2897 28.0366 10.8893 28.8027 11.7882ZM4.55073 16.7437C4.909 17.2493 5.41543 17.6311 6.00005 17.8365V12.1919C5.41543 12.3973 4.909 12.7791 4.55073 13.2846C4.19246 13.7902 4.00003 14.3945 4.00003 15.0142C4.00003 15.6338 4.19246 16.2382 4.55073 16.7437ZM15.4445 27.831C15.6089 27.9409 15.8023 27.9995 16.0001 27.9995C16.2652 27.9993 16.5194 27.8938 16.7069 27.7064C16.8943 27.5189 16.9998 27.2647 17.0001 26.9995C17.0001 26.8018 16.9414 26.6084 16.8315 26.444C16.7216 26.2795 16.5655 26.1513 16.3827 26.0757C16.2 26 15.9989 25.9802 15.805 26.0188C15.611 26.0573 15.4328 26.1526 15.2929 26.2924C15.1531 26.4323 15.0579 26.6105 15.0193 26.8044C14.9807 26.9984 15.0005 27.1995 15.0762 27.3822C15.1519 27.5649 15.28 27.7211 15.4445 27.831ZM26.0001 12.2034V17.8045C26.5838 17.6044 27.0904 17.2269 27.4491 16.7248C27.8077 16.2226 28.0006 15.621 28.0006 15.0039C28.0006 14.3869 27.8077 13.7852 27.4491 13.2831C27.0904 12.781 26.5838 12.4035 26.0001 12.2034Z" fill="#0F0F0F"/>
<path d="M16 10C16.5523 10 17 10.4477 17 11V16.5858L19.2929 14.2929C19.6834 13.9024 20.3166 13.9024 20.7071 14.2929C21.0976 14.6834 21.0976 15.3166 20.7071 15.7071L16.7071 19.7071C16.3166 20.0976 15.6834 20.0976 15.2929 19.7071L11.2929 15.7071C10.9024 15.3166 10.9024 14.6834 11.2929 14.2929C11.6834 13.9024 12.3166 13.9024 12.7071 14.2929L15 16.5858V11C15 10.4477 15.4477 10 16 10Z" fill="#0F0F0F"/>
</svg>
