<svg width="32" height="32" viewBox="0 0 32 32" fill="none" xmlns="http://www.w3.org/2000/svg">
<path d="M28.3012 11.9826C29.0636 12.8068 29.4913 13.8856 29.5007 15.0083C29.49 16.1288 29.0624 17.2051 28.3012 18.0274C27.5399 18.8496 26.4997 19.3589 25.3834 19.4557C25.0978 21.2679 24.2948 22.9591 23.0708 24.3256C21.8468 25.6922 20.254 26.6761 18.4841 27.1588C18.4443 27.7771 18.1764 28.3587 17.7324 28.7909C17.2883 29.223 16.6996 29.4749 16.0804 29.4978C15.4612 29.5207 14.8555 29.3129 14.3808 28.9148C13.906 28.5166 13.5959 27.9564 13.5106 27.3427C13.4253 26.7289 13.5708 26.1054 13.9189 25.5928C14.2671 25.0802 14.7932 24.7152 15.3951 24.5683C15.9971 24.4214 16.6322 24.5032 17.1773 24.7978C17.7224 25.0925 18.1387 25.5789 18.3457 26.163C20.1174 25.6527 21.6755 24.5807 22.7855 23.1085C23.8954 21.6362 24.4972 19.8433 24.5002 17.9995V11.9995C24.5002 9.74515 23.6047 7.58314 22.0106 5.98908C20.4165 4.39502 18.2545 3.49949 16.0002 3.49949C13.7459 3.49949 11.5838 4.39502 9.98979 5.98908C8.39573 7.58314 7.5002 9.74515 7.5002 11.9995L7.50313 19.0073C7.50335 19.0731 7.49058 19.1382 7.46554 19.1991C7.44051 19.2599 7.4037 19.3151 7.35724 19.3617C7.31078 19.4083 7.25558 19.4452 7.19481 19.4703C7.13404 19.4955 7.0689 19.5084 7.00313 19.5083C5.84319 19.5094 4.72767 19.0623 3.88953 18.2604C3.05139 17.4586 2.55542 16.3639 2.5052 15.2051C2.45498 14.0462 2.85438 12.9127 3.62 12.0414C4.38563 11.17 5.45828 10.6281 6.61397 10.5288C6.96353 8.28986 8.10241 6.24979 9.82481 4.77724C11.5472 3.30468 13.7395 2.49677 16.0056 2.49949C18.2716 2.50221 20.462 3.31538 22.1809 4.79207C23.8997 6.26875 25.0337 8.31155 25.3779 10.5513C26.4964 10.6481 27.5388 11.1584 28.3012 11.9826ZM4.35355 17.3002C4.90501 17.9369 5.66781 18.3531 6.50166 18.4722L6.51094 11.5493C5.67677 11.6662 4.91286 12.0804 4.35969 12.7156C3.80653 13.3508 3.50132 14.1644 3.50019 15.0067C3.49906 15.8491 3.80209 16.6635 4.35355 17.3002ZM15.1668 28.2467C15.4135 28.4116 15.7035 28.4995 16.0002 28.4995C16.3979 28.4991 16.7792 28.3409 17.0604 28.0597C17.3416 27.7785 17.4998 27.3972 17.5002 26.9995C17.5002 26.7029 17.4122 26.4129 17.2474 26.1662C17.0826 25.9195 16.8483 25.7272 16.5742 25.6137C16.3001 25.5002 15.9985 25.4705 15.7076 25.5284C15.4166 25.5862 15.1493 25.7291 14.9395 25.9389C14.7298 26.1487 14.5869 26.4159 14.529 26.7069C14.4711 26.9979 14.5008 27.2995 14.6144 27.5736C14.7279 27.8477 14.9202 28.0819 15.1668 28.2467ZM25.4884 18.3137C25.4858 18.3578 25.4833 18.402 25.4813 18.4462C26.3168 18.3364 27.0839 17.9264 27.6394 17.2927C28.195 16.6591 28.5011 15.845 28.5007 15.0023C28.5003 14.1596 28.1934 13.3457 27.6373 12.7126C27.0811 12.0795 26.3137 11.6702 25.478 11.5612C25.4805 11.6141 25.484 11.6668 25.4876 11.7194C25.4939 11.8123 25.5003 11.9051 25.5003 11.9995V17.9995C25.5003 18.1052 25.4943 18.2095 25.4884 18.3137Z" fill="#0F0F0F"/>
<path d="M16 10.5C16.2761 10.5 16.5 10.7239 16.5 11V17.7929L19.6464 14.6464C19.8417 14.4512 20.1583 14.4512 20.3536 14.6464C20.5488 14.8417 20.5488 15.1583 20.3536 15.3536L16.3536 19.3536C16.1583 19.5488 15.8417 19.5488 15.6464 19.3536L11.6464 15.3536C11.4512 15.1583 11.4512 14.8417 11.6464 14.6464C11.8417 14.4512 12.1583 14.4512 12.3536 14.6464L15.5 17.7929V11C15.5 10.7239 15.7239 10.5 16 10.5Z" fill="#0F0F0F"/>
</svg>
