<svg width="32" height="32" viewBox="0 0 32 32" fill="none" xmlns="http://www.w3.org/2000/svg">
<path d="M29.5007 15.0083C29.4913 13.8856 29.0636 12.8068 28.3012 11.9826C27.5388 11.1584 26.4964 10.6481 25.3779 10.5513C25.0337 8.31155 23.8997 6.26876 22.1809 4.79207C20.462 3.31538 18.2716 2.50221 16.0056 2.49949C13.7395 2.49677 11.5472 3.30468 9.82481 4.77724C8.10241 6.2498 6.96353 8.28986 6.61397 10.5288C5.45828 10.6281 4.38563 11.17 3.62 12.0414C2.85438 12.9127 2.45498 14.0462 2.5052 15.2051C2.55542 16.3639 3.05139 17.4586 3.88953 18.2604C4.72767 19.0623 5.84319 19.5094 7.00313 19.5083C7.0689 19.5084 7.13404 19.4955 7.19481 19.4703C7.25558 19.4452 7.31078 19.4083 7.35724 19.3617C7.4037 19.3152 7.44051 19.2599 7.46554 19.1991C7.49058 19.1382 7.50335 19.0731 7.50313 19.0073L7.5002 11.9995C7.5002 9.74515 8.39573 7.58314 9.98979 5.98908C11.5838 4.39502 13.7459 3.49949 16.0002 3.49949C18.2545 3.49949 20.4165 4.39502 22.0106 5.98908C23.6047 7.58314 24.5002 9.74515 24.5002 11.9995V17.9995C24.4972 19.8433 23.8954 21.6362 22.7855 23.1085C21.6755 24.5807 20.1174 25.6527 18.3457 26.163C18.1387 25.5789 17.7224 25.0925 17.1773 24.7978C16.6322 24.5032 15.9971 24.4214 15.3951 24.5683C14.7932 24.7152 14.2671 25.0803 13.9189 25.5928C13.5708 26.1054 13.4253 26.7289 13.5106 27.3427C13.5959 27.9564 13.906 28.5166 14.3808 28.9148C14.8555 29.3129 15.4612 29.5207 16.0804 29.4978C16.6996 29.4749 17.2883 29.223 17.7324 28.7909C18.1764 28.3587 18.4443 27.7771 18.4841 27.1588C20.254 26.6761 21.8468 25.6922 23.0708 24.3257C24.2948 22.9591 25.0978 21.268 25.3834 19.4557C26.4997 19.3589 27.5399 18.8496 28.3012 18.0274C29.0624 17.2051 29.49 16.1288 29.5007 15.0083ZM6.50166 18.4722C5.66781 18.3531 4.90501 17.9369 4.35355 17.3002C3.80209 16.6635 3.49906 15.8491 3.50019 15.0067C3.50132 14.1644 3.80653 13.3508 4.35969 12.7156C4.91286 12.0804 5.67677 11.6662 6.51094 11.5493L6.50166 18.4722ZM16.0002 28.4995C15.7035 28.4995 15.4135 28.4116 15.1668 28.2467C14.9202 28.0819 14.7279 27.8477 14.6144 27.5736C14.5008 27.2995 14.4711 26.9979 14.529 26.7069C14.5869 26.4159 14.7298 26.1487 14.9395 25.9389C15.1493 25.7291 15.4166 25.5862 15.7076 25.5284C15.9985 25.4705 16.3001 25.5002 16.5742 25.6137C16.8483 25.7273 17.0826 25.9195 17.2474 26.1662C17.4122 26.4129 17.5002 26.7029 17.5002 26.9995C17.4998 27.3972 17.3416 27.7785 17.0604 28.0597C16.7792 28.3409 16.3979 28.4991 16.0002 28.4995ZM25.4813 18.4462C25.4882 18.2974 25.5003 18.15 25.5003 17.9995V11.9995C25.5003 11.8516 25.4848 11.7075 25.478 11.5612C26.3137 11.6702 27.0811 12.0795 27.6373 12.7126C28.1934 13.3458 28.5003 14.1596 28.5007 15.0023C28.5011 15.845 28.195 16.6591 27.6394 17.2927C27.0839 17.9264 26.3168 18.3364 25.4813 18.4462Z" fill="#0F0F0F"/>
</svg>
