<svg width="32" height="32" viewBox="0 0 32 32" fill="none" xmlns="http://www.w3.org/2000/svg">
<path d="M16.0004 2.5C13.3303 2.5 10.7202 3.29176 8.50017 4.77516C6.28011 6.25856 4.54978 8.36697 3.528 10.8338C2.50622 13.3006 2.23887 16.015 2.75977 18.6337C3.28067 21.2525 4.56642 23.6579 6.45443 25.5459C8.34244 27.434 10.7479 28.7197 13.3667 29.2406C15.9854 29.7615 18.6998 29.4942 21.1666 28.4724C23.6334 27.4506 25.7418 25.7203 27.2252 23.5002C28.7086 21.2801 29.5004 18.67 29.5004 16C29.4965 12.4208 28.0729 8.98927 25.542 6.45837C23.0111 3.92748 19.5796 2.50391 16.0004 2.5ZM16 22.5C15.7528 22.5 15.5111 22.4267 15.3056 22.2893C15.1 22.152 14.9398 21.9568 14.8452 21.7284C14.7506 21.4999 14.7258 21.2486 14.7741 21.0061C14.8223 20.7637 14.9413 20.5409 15.1162 20.3661C15.291 20.1913 15.5137 20.0723 15.7562 20.024C15.9987 19.9758 16.25 20.0005 16.4784 20.0951C16.7068 20.1898 16.902 20.35 17.0394 20.5555C17.1767 20.7611 17.25 21.0028 17.25 21.25C17.25 21.5815 17.1183 21.8995 16.8839 22.1339C16.6495 22.3683 16.3316 22.5 16 22.5ZM17.0004 16.8085V17.788C17.0004 18.0532 16.895 18.3076 16.7075 18.4951C16.5199 18.6826 16.2656 18.788 16.0004 18.788C15.7351 18.788 15.4808 18.6826 15.2932 18.4951C15.1057 18.3076 15.0004 18.0532 15.0004 17.788V15.9423C15.0003 15.811 15.0261 15.6809 15.0763 15.5595C15.1265 15.4382 15.2002 15.3279 15.2931 15.235C15.3859 15.1421 15.4962 15.0685 15.6176 15.0183C15.7389 14.968 15.869 14.9422 16.0004 14.9423C16.2319 14.9462 16.4619 14.9039 16.6768 14.8178C16.8917 14.7316 17.0873 14.6034 17.252 14.4407C17.4168 14.278 17.5474 14.084 17.6361 13.8701C17.7249 13.6562 17.77 13.4268 17.7689 13.1952C17.7718 12.962 17.7286 12.7305 17.6417 12.514C17.5549 12.2976 17.426 12.1004 17.2627 11.9339C17.0993 11.7674 16.9046 11.6349 16.6898 11.5439C16.4751 11.453 16.2444 11.4054 16.0112 11.4039C15.7779 11.4024 15.5467 11.4471 15.3308 11.5353C15.1148 11.6235 14.9185 11.7536 14.753 11.918C14.5876 12.0824 14.4562 12.2779 14.3666 12.4932C14.277 12.7086 14.2308 12.9395 14.2308 13.1728C14.2308 13.438 14.1255 13.6923 13.9379 13.8799C13.7504 14.0674 13.496 14.1728 13.2308 14.1728C12.9656 14.1728 12.7113 14.0674 12.5237 13.8799C12.3362 13.6923 12.2308 13.438 12.2308 13.1728C12.2312 12.4705 12.4277 11.7822 12.7983 11.1857C13.169 10.5891 13.6989 10.108 14.3283 9.79651C14.9578 9.48504 15.6618 9.35564 16.3608 9.4229C17.0599 9.49016 17.7263 9.7514 18.2848 10.1772C18.8434 10.6029 19.2718 11.1763 19.5219 11.8325C19.772 12.4888 19.8337 13.2019 19.7002 13.8914C19.5666 14.5809 19.2431 15.2193 18.7661 15.7348C18.289 16.2502 17.6775 16.6221 17.0004 16.8085Z" fill="#0F0F0F"/>
</svg>
