<svg width="32" height="32" viewBox="0 0 32 32" fill="none" xmlns="http://www.w3.org/2000/svg">
<path d="M16.0002 22.4995C10.469 22.4995 5.75806 17.3218 4.64576 15.9995C6.06349 14.3298 7.70991 12.8687 9.53626 11.6595L8.80463 10.9279C6.84153 12.2471 5.08825 13.8545 3.60376 15.6958C3.53679 15.7829 3.50049 15.8897 3.50049 15.9995C3.50049 16.1094 3.53679 16.2161 3.60376 16.3032C3.82837 16.5972 9.19263 23.4995 16.0002 23.4995C17.5249 23.4797 19.0305 23.1582 20.4302 22.5535L19.6553 21.7787C18.4911 22.2396 17.2523 22.4839 16.0002 22.4995Z" fill="#0F0F0F"/>
<path d="M28.3538 27.646L22.3202 21.6125C24.64 20.2109 26.6966 18.414 28.3967 16.3032C28.4637 16.2161 28.5 16.1094 28.5 15.9995C28.5 15.8897 28.4637 15.7829 28.3967 15.6958C28.1721 15.4019 22.8069 8.49951 16.0002 8.49951C14.1157 8.53518 12.2656 9.01152 10.5981 9.89038L4.35376 3.646C4.25968 3.55381 4.13302 3.50246 4.0013 3.50313C3.86958 3.50379 3.74345 3.55641 3.65031 3.64955C3.55717 3.74269 3.50455 3.86883 3.50388 4.00055C3.50322 4.13226 3.55456 4.25892 3.64676 4.353L9.68008 10.3864L9.67825 10.3875L10.4187 11.1279L10.4206 11.1269L20.6493 21.3556L20.6473 21.3565L21.4002 22.1094L21.4022 22.1084L27.6467 28.353C27.693 28.4002 27.7481 28.4378 27.809 28.4635C27.8698 28.4893 27.9352 28.5027 28.0013 28.503C28.0674 28.5033 28.1328 28.4906 28.194 28.4654C28.2551 28.4403 28.3106 28.4033 28.3573 28.3566C28.404 28.3099 28.441 28.2543 28.4662 28.1932C28.4913 28.1321 28.5041 28.0666 28.5037 28.0005C28.5034 27.9345 28.49 27.8691 28.4642 27.8083C28.4385 27.7474 28.401 27.6923 28.3538 27.646ZM11.3524 10.6446C12.7971 9.92158 14.385 9.53036 16.0002 9.49951C21.5315 9.49951 26.2424 14.6772 27.3557 15.9995C25.7185 17.9372 23.7664 19.5849 21.5813 20.8735L11.3524 10.6446Z" fill="#0F0F0F"/>
</svg>
