<svg width="32" height="32" viewBox="0 0 32 32" fill="none" xmlns="http://www.w3.org/2000/svg">
<path d="M16.0005 10C6.46049 10 2.50049 14.4316 2.50049 16.8047V18.2715C2.50118 18.9949 2.78886 19.6885 3.30041 20.2001C3.81196 20.7116 4.50556 20.9993 5.229 21H8.79834C9.51695 20.997 10.205 20.7091 10.7116 20.1994C11.2182 19.6897 11.5019 18.9999 11.5005 18.2812V16.4287C12.7899 15.446 14.3803 14.941 16.0005 15C17.6197 14.941 19.2095 15.4437 20.5005 16.4228L20.4995 18.29C20.5256 19.0216 20.8361 19.7141 21.365 20.2202C21.8939 20.7263 22.5995 21.0061 23.3315 21H26.7719C27.4954 20.9993 28.189 20.7116 28.7005 20.2001C29.2121 19.6885 29.4997 18.9949 29.5004 18.2715V16.8047C29.5005 14.4316 25.5405 10 16.0005 10ZM28.5005 18.2715C28.5 18.7298 28.3177 19.1691 27.9937 19.4932C27.6696 19.8172 27.2302 19.9995 26.772 20H23.3315C22.8653 20.0037 22.4154 19.8285 22.0746 19.5103C21.7337 19.1922 21.5279 18.7554 21.4995 18.29L21.5005 16.3369C21.5005 15.3379 18.7818 14 16.0005 14C13.2193 14 10.5005 15.3418 10.5005 16.3427V18.2812C10.5021 18.7347 10.3238 19.1703 10.0047 19.4925C9.68565 19.8147 9.2518 19.9972 8.79834 20H5.229C4.77072 19.9995 4.33137 19.8172 4.00732 19.4932C3.68327 19.1691 3.501 18.7298 3.50049 18.2715V16.8047C3.50049 15.0967 7.09717 11 16.0005 11C24.9038 11 28.5005 15.0966 28.5005 16.8047V18.2715Z" fill="#0F0F0F"/>
</svg>
