<svg width="32" height="32" viewBox="0 0 32 32" fill="none" xmlns="http://www.w3.org/2000/svg">
<path d="M10.8449 4.25C9.30289 4.25 7.91808 5.19392 7.35441 6.6292L3.50953 16.4194C3.33803 16.8561 3.25 17.3211 3.25 17.7902V24C3.25 26.0711 4.92893 27.75 7 27.75H25C27.0711 27.75 28.75 26.0711 28.75 24V17.7902C28.75 17.3211 28.662 16.8561 28.4905 16.4194L24.6456 6.6292C24.0819 5.19392 22.6971 4.25 21.1551 4.25H10.8449ZM8.75059 7.17752C9.0888 6.31635 9.91968 5.75 10.8449 5.75H21.1551C22.0803 5.75 22.9112 6.31635 23.2494 7.17752L26.8124 16.25H22.5C21.9492 16.25 21.4305 16.5093 21.1 16.95L18.7 20.15C18.6528 20.213 18.5787 20.25 18.5 20.25H13.5C13.4213 20.25 13.3472 20.213 13.3 20.15L10.9 16.95C10.5695 16.5093 10.0508 16.25 9.5 16.25H5.18758L8.75059 7.17752ZM4.75036 17.75H9.5C9.57869 17.75 9.65279 17.787 9.7 17.85L12.1 21.05C12.4305 21.4907 12.9492 21.75 13.5 21.75H18.5C19.0508 21.75 19.5695 21.4907 19.9 21.05L22.3 17.85C22.3472 17.787 22.4213 17.75 22.5 17.75H27.2496C27.2499 17.7634 27.25 17.7768 27.25 17.7902V24C27.25 25.2426 26.2426 26.25 25 26.25H7C5.75736 26.25 4.75 25.2426 4.75 24V17.7902C4.75 17.7768 4.75012 17.7634 4.75036 17.75Z" fill="#0F0F0F"/>
</svg>
