<svg width="32" height="32" viewBox="0 0 32 32" fill="none" xmlns="http://www.w3.org/2000/svg">
<path d="M10.8449 4C9.20009 4 7.72296 5.00685 7.12171 6.53781L3.27683 16.328C3.0939 16.7938 3 17.2898 3 17.7902V24C3 26.2091 4.79086 28 7 28H25C27.2091 28 29 26.2091 29 24V17.7902C29 17.2898 28.9061 16.7938 28.7232 16.328L24.8783 6.53781C24.277 5.00685 22.7999 4 21.1551 4H10.8449ZM8.98329 7.2689C9.28392 6.50343 10.0225 6 10.8449 6H21.1551C21.9775 6 22.7161 6.50343 23.0167 7.2689L26.4456 16H22.5C21.8705 16 21.2777 16.2964 20.9 16.8L18.5 20H13.5L11.1 16.8C10.7223 16.2964 10.1295 16 9.5 16H5.55435L8.98329 7.2689ZM5 18H9.5L11.9 21.2C12.2777 21.7036 12.8705 22 13.5 22H18.5C19.1295 22 19.7223 21.7036 20.1 21.2L22.5 18H27V24C27 25.1046 26.1046 26 25 26H7C5.89543 26 5 25.1046 5 24V18Z" fill="#0F0F0F"/>
</svg>
