<svg width="32" height="32" viewBox="0 0 32 32" fill="none" xmlns="http://www.w3.org/2000/svg">
<path d="M10.8449 4.5C9.40569 4.5 8.1132 5.38099 7.5871 6.72058L3.74223 16.5108C3.58216 16.9183 3.5 17.3523 3.5 17.7902V24C3.5 25.933 5.067 27.5 7 27.5H25C26.933 27.5 28.5 25.933 28.5 24V17.7902C28.5 17.3523 28.4178 16.9183 28.2578 16.5108L24.4129 6.72058C23.8868 5.38099 22.5943 4.5 21.1551 4.5H10.8449ZM8.5179 7.08613C8.89368 6.12928 9.81688 5.5 10.8449 5.5H21.1551C22.1831 5.5 23.1063 6.12928 23.4821 7.08613L27.1792 16.5H22.5C22.0279 16.5 21.5833 16.7223 21.3 17.1L18.9 20.3C18.8056 20.4259 18.6574 20.5 18.5 20.5H13.5C13.3426 20.5 13.1944 20.4259 13.1 20.3L10.7 17.1C10.4167 16.7223 9.97214 16.5 9.5 16.5H4.82081L8.5179 7.08613ZM4.5169 17.5H9.5C9.65738 17.5 9.80557 17.5741 9.9 17.7L12.3 20.9C12.5833 21.2777 13.0279 21.5 13.5 21.5H18.5C18.9721 21.5 19.4167 21.2777 19.7 20.9L22.1 17.7C22.1944 17.5741 22.3426 17.5 22.5 17.5H27.4831C27.4943 17.5961 27.5 17.693 27.5 17.7902V24C27.5 25.3807 26.3807 26.5 25 26.5H7C5.61929 26.5 4.5 25.3807 4.5 24V17.7902C4.5 17.693 4.50566 17.5961 4.5169 17.5Z" fill="#0F0F0F"/>
</svg>
