<svg width="32" height="32" viewBox="0 0 32 32" fill="none" xmlns="http://www.w3.org/2000/svg">
<path d="M4.16797 7.06641H27.8066C28.2383 7.06641 28.5684 6.74902 28.5684 6.33008C28.5684 5.91113 28.2383 5.58105 27.8066 5.58105H4.16797C3.73633 5.58105 3.41895 5.91113 3.41895 6.33008C3.41895 6.74902 3.73633 7.06641 4.16797 7.06641ZM4.16797 13.7314H18.8691C19.2881 13.7314 19.6182 13.4014 19.6182 12.9824C19.6182 12.5635 19.2881 12.2461 18.8691 12.2461H4.16797C3.73633 12.2461 3.41895 12.5635 3.41895 12.9824C3.41895 13.4014 3.73633 13.7314 4.16797 13.7314ZM4.16797 20.3838H27.8066C28.2383 20.3838 28.5684 20.0664 28.5684 19.6475C28.5684 19.2285 28.2383 18.8984 27.8066 18.8984H4.16797C3.73633 18.8984 3.41895 19.2285 3.41895 19.6475C3.41895 20.0664 3.73633 20.3838 4.16797 20.3838ZM4.16797 27.0488H18.8691C19.2881 27.0488 19.6182 26.7188 19.6182 26.2998C19.6182 25.8809 19.2881 25.5635 18.8691 25.5635H4.16797C3.73633 25.5635 3.41895 25.8809 3.41895 26.2998C3.41895 26.7188 3.73633 27.0488 4.16797 27.0488Z" fill="black"/>
</svg>
