<svg width="32" height="32" viewBox="0 0 32 32" fill="none" xmlns="http://www.w3.org/2000/svg">
<path d="M16 2C8.26801 2 2 8.26801 2 16C2 23.732 8.26801 30 16 30C23.732 30 30 23.732 30 16C30 8.26801 23.732 2 16 2ZM15.75 10.75C15.0596 10.75 14.5 10.1904 14.5 9.5C14.5 8.80964 15.0596 8.25 15.75 8.25C16.4404 8.25 17 8.80964 17 9.5C17 10.1904 16.4404 10.75 15.75 10.75ZM16 13.5C16.5523 13.5 17 13.9477 17 14.5V22H19C19.5523 22 20 22.4477 20 23C20 23.5523 19.5523 24 19 24H13C12.4477 24 12 23.5523 12 23C12 22.4477 12.4477 22 13 22H15V15.5H14C13.4477 15.5 13 15.0523 13 14.5C13 13.9477 13.4477 13.5 14 13.5H16Z" fill="#0F0F0F"/>
</svg>
