<svg width="32" height="32" viewBox="0 0 32 32" fill="none" xmlns="http://www.w3.org/2000/svg">
<path d="M15.75 10.75C16.4404 10.75 17 10.1904 17 9.5C17 8.80964 16.4404 8.25 15.75 8.25C15.0596 8.25 14.5 8.80964 14.5 9.5C14.5 10.1904 15.0596 10.75 15.75 10.75Z" fill="#0F0F0F"/>
<path d="M17 14.5C17 13.9477 16.5523 13.5 16 13.5H14C13.4477 13.5 13 13.9477 13 14.5C13 15.0523 13.4477 15.5 14 15.5H15V22H13C12.4477 22 12 22.4477 12 23C12 23.5523 12.4477 24 13 24H19C19.5523 24 20 23.5523 20 23C20 22.4477 19.5523 22 19 22H17V14.5Z" fill="#0F0F0F"/>
<path d="M2 16C2 8.26801 8.26801 2 16 2C23.732 2 30 8.26801 30 16C30 23.732 23.732 30 16 30C8.26801 30 2 23.732 2 16ZM16 4C9.37258 4 4 9.37258 4 16C4 22.6274 9.37258 28 16 28C22.6274 28 28 22.6274 28 16C28 9.37258 22.6274 4 16 4Z" fill="#0F0F0F"/>
</svg>
