<svg width="32" height="32" viewBox="0 0 32 32" fill="none" xmlns="http://www.w3.org/2000/svg">
<path d="M18.9024 3.08431C19.3185 3.26692 19.5591 3.70712 19.4883 4.15597L18.1708 12.5H23.5005C23.8841 12.5 24.234 12.7195 24.4009 13.0649C24.5678 13.4103 24.5224 13.8208 24.284 14.1214L12.784 28.6214C12.5016 28.9774 12.0147 29.0983 11.5986 28.9157C11.1825 28.7331 10.9419 28.2929 11.0127 27.844L12.3302 19.5H7.0005C6.61685 19.5 6.26703 19.2805 6.10011 18.9351C5.93319 18.5897 5.97861 18.1792 6.217 17.8786L17.717 3.37861C17.9994 3.02258 18.4863 2.9017 18.9024 3.08431Z" fill="#0F0F0F"/>
</svg>
