<svg width="32" height="32" viewBox="0 0 32 32" fill="none" xmlns="http://www.w3.org/2000/svg">
<path d="M18.7014 3.54215C18.9095 3.63346 19.0298 3.85356 18.9944 4.07798L17.5856 13H23.5005C23.6923 13 23.8672 13.1097 23.9507 13.2825C24.0341 13.4552 24.0114 13.6604 23.8922 13.8107L12.3922 28.3107C12.2511 28.4887 12.0076 28.5492 11.7996 28.4578C11.5915 28.3665 11.4712 28.1464 11.5066 27.922L12.9154 19H7.00049C6.80867 19 6.63376 18.8903 6.5503 18.7175C6.46684 18.5448 6.48955 18.3396 6.60874 18.1893L18.1087 3.6893C18.2499 3.51129 18.4934 3.45085 18.7014 3.54215ZM8.03521 18H13.5005C13.6467 18 13.7856 18.064 13.8806 18.1752C13.9756 18.2864 14.0172 18.4335 13.9944 18.578L12.7911 26.1985L22.4658 14H17.0005C16.8543 14 16.7154 13.936 16.6204 13.8248C16.5254 13.7136 16.4838 13.5665 16.5066 13.422L17.7098 5.80155L8.03521 18Z" fill="#0F0F0F"/>
</svg>
