<svg width="32" height="32" viewBox="0 0 32 32" fill="none" xmlns="http://www.w3.org/2000/svg">
<path d="M16 10C16.2761 10 16.5 10.2239 16.5 10.5V19.5C16.5 19.7761 16.2761 20 16 20C15.7239 20 15.5 19.7761 15.5 19.5V10.5C15.5 10.2239 15.7239 10 16 10Z" fill="#0F0F0F"/>
<path d="M12.5 12C12.7761 12 13 12.2239 13 12.5V17.5C13 17.7761 12.7761 18 12.5 18C12.2239 18 12 17.7761 12 17.5V12.5C12 12.2239 12.2239 12 12.5 12Z" fill="#0F0F0F"/>
<path d="M19.5 12C19.7761 12 20 12.2239 20 12.5V17.5C20 17.7761 19.7761 18 19.5 18C19.2239 18 19 17.7761 19 17.5V12.5C19 12.2239 19.2239 12 19.5 12Z" fill="#0F0F0F"/>
<path d="M8.75 14.25C9.16421 14.25 9.5 14.5858 9.5 15C9.5 15.4142 9.16421 15.75 8.75 15.75C8.33579 15.75 8 15.4142 8 15C8 14.5858 8.33579 14.25 8.75 14.25Z" fill="#0F0F0F"/>
<path d="M23.25 14.25C23.6642 14.25 24 14.5858 24 15C24 15.4142 23.6642 15.75 23.25 15.75C22.8358 15.75 22.5 15.4142 22.5 15C22.5 14.5858 22.8358 14.25 23.25 14.25Z" fill="#0F0F0F"/>
<path d="M27.1797 4.50488C29.0292 4.59842 30.5 6.12727 30.5 8V22C30.5 23.8727 29.0292 25.4016 27.1797 25.4951L27 25.5H12.4258L7.125 29.7412C6.51083 30.2322 5.61964 29.8522 5.51074 29.1123L5.5 28.96V25.5H5C3.12727 25.5 1.59842 24.0292 1.50488 22.1797L1.5 22V8C1.5 6.067 3.067 4.5 5 4.5H27L27.1797 4.50488ZM5 5.5C3.61929 5.5 2.5 6.61929 2.5 8V22L2.5127 22.2559C2.64082 23.5164 3.70566 24.5 5 24.5H6C6.27614 24.5 6.5 24.7239 6.5 25V28.96L11.9375 24.6094L12.0078 24.5625C12.0815 24.5217 12.1648 24.5 12.25 24.5H27L27.2559 24.4873C28.5164 24.3592 29.5 23.2943 29.5 22V8C29.5 6.70566 28.5164 5.64082 27.2559 5.5127L27 5.5H5Z" fill="#0F0F0F"/>
</svg>
