<svg width="32" height="32" viewBox="0 0 32 32" fill="none" xmlns="http://www.w3.org/2000/svg">
<path d="M27.1797 4.50488C29.0292 4.59842 30.5 6.12727 30.5 8V22C30.5 23.8727 29.0292 25.4016 27.1797 25.4951L27 25.5H12.4258L7.125 29.7412C6.51083 30.2322 5.61964 29.8522 5.51074 29.1123L5.5 28.96V25.5H5C3.12727 25.5 1.59842 24.0292 1.50488 22.1797L1.5 22V8C1.5 6.067 3.067 4.5 5 4.5H27L27.1797 4.50488ZM16 9.5C15.4477 9.5 15 9.94772 15 10.5V19.5C15 20.0523 15.4477 20.5 16 20.5C16.5523 20.5 17 20.0523 17 19.5V10.5C17 9.94772 16.5523 9.5 16 9.5ZM12.5 11.5C11.9477 11.5 11.5 11.9477 11.5 12.5V17.5C11.5 18.0523 11.9477 18.5 12.5 18.5C13.0523 18.5 13.5 18.0523 13.5 17.5V12.5C13.5 11.9477 13.0523 11.5 12.5 11.5ZM19.5 11.5C18.9477 11.5 18.5 11.9477 18.5 12.5V17.5C18.5 18.0523 18.9477 18.5 19.5 18.5C20.0523 18.5 20.5 18.0523 20.5 17.5V12.5C20.5 11.9477 20.0523 11.5 19.5 11.5ZM8.75 13.75C8.05964 13.75 7.5 14.3096 7.5 15C7.5 15.6904 8.05964 16.25 8.75 16.25C9.44036 16.25 10 15.6904 10 15C10 14.3096 9.44036 13.75 8.75 13.75ZM23.25 13.75C22.5596 13.75 22 14.3096 22 15C22 15.6904 22.5596 16.25 23.25 16.25C23.9404 16.25 24.5 15.6904 24.5 15C24.5 14.3096 23.9404 13.75 23.25 13.75Z" fill="#0F0F0F"/>
</svg>
