<svg width="32" height="32" viewBox="0 0 32 32" fill="none" xmlns="http://www.w3.org/2000/svg">
<path d="M26.0029 13.0078C26.5548 13.0082 27.0018 13.4559 27.002 14.0078L27 22.1328C28.7252 22.5769 29.9999 24.1431 30 26.0068C30 28.216 28.2091 30.0068 26 30.0068C23.7909 30.0068 22 28.216 22 26.0068C22.0001 24.143 23.2747 22.5758 25 22.1318L25.002 14.0078C25.0022 13.4556 25.4507 13.0077 26.0029 13.0078Z" fill="black"/>
<path d="M6 22C7.86384 22 9.42998 23.2748 9.87402 25L17.998 24.999C18.5502 24.999 18.9979 25.4468 18.998 25.999C18.998 26.5512 18.5503 26.9989 17.998 26.999L9.87305 27C9.42893 28.7251 7.86376 30 6 30C3.79086 30 2 28.2091 2 26C2 23.7909 3.79086 22 6 22Z" fill="black"/>
<path d="M6 2.00781C8.20906 2.00781 9.99987 3.79879 10 6.00781C10 7.87157 8.72511 9.43674 7 9.88086L7.00195 18.0068C7.00196 18.5588 6.55491 19.0064 6.00293 19.0068C5.45064 19.007 5.00209 18.5591 5.00195 18.0068L5 9.88184C3.27477 9.4378 2 7.87166 2 6.00781C2.00013 3.79879 3.79094 2.00781 6 2.00781Z" fill="black"/>
<path d="M25.998 2C28.2072 2 29.998 3.79086 29.998 6C29.998 8.20914 28.2072 10 25.998 10C24.1342 10 22.5681 8.72523 22.124 7L14 6.99902C13.4478 6.9989 13 6.5512 13 5.99902C13.0001 5.44682 13.4478 4.99902 14 4.99902L22.123 5C22.567 3.27465 24.1341 2 25.998 2Z" fill="black"/>
</svg>
