<svg width="32" height="32" viewBox="0 0 32 32" fill="none" xmlns="http://www.w3.org/2000/svg">
<path d="M5.68358 10.3203C5.89768 10.2206 6.14859 10.2267 6.35936 10.3418C6.60015 10.4733 6.74999 10.7257 6.74999 11V20C6.74999 20.4142 6.41419 20.75 5.99999 20.75C5.58577 20.75 5.24999 20.4142 5.24999 20V12.373L4.40526 12.917C4.05691 13.1406 3.59306 13.0396 3.36913 12.6914C3.14514 12.343 3.24629 11.8793 3.59471 11.6553L5.59471 10.3691L5.68358 10.3203ZM11.5 10.25C13.3146 10.25 14.7499 11.757 14.75 13.5713L14.7353 13.8818C14.5919 15.3965 13.4131 16.3418 12.4404 17.1279C11.6216 17.7897 10.8279 18.4192 10.248 19.25H14L14.0771 19.2539C14.4551 19.2925 14.75 19.6118 14.75 20C14.75 20.3882 14.4551 20.7075 14.0771 20.7461L14 20.75H8.99999C8.75248 20.75 8.52065 20.6281 8.38085 20.4238C8.24113 20.2196 8.21121 19.9592 8.30077 19.7285L8.44237 19.3945C9.18708 17.7696 10.4994 16.7672 11.4971 15.9609C12.5753 15.0895 13.1729 14.5189 13.2432 13.7314L13.25 13.5713C13.2499 12.5454 12.4467 11.75 11.5 11.75C10.5533 11.75 9.75006 12.5454 9.74999 13.5713C9.74999 13.9855 9.41419 14.3213 8.99999 14.3213C8.58577 14.3213 8.24999 13.9855 8.24999 13.5713C8.25006 11.757 9.68533 10.25 11.5 10.25ZM19 10.25C20.5442 10.25 22 11.3451 22 12.9287C21.9999 13.6577 21.6887 14.2804 21.2051 14.7432C22.1227 15.3298 22.75 16.2818 22.75 17.4287C22.7499 19.3673 20.9584 20.75 19 20.75C17.0416 20.75 15.2501 19.3673 15.25 17.4287C15.25 17.0145 15.5858 16.6787 16 16.6787C16.4142 16.6787 16.75 17.0145 16.75 17.4287C16.7501 18.3303 17.6448 19.25 19 19.25C20.3552 19.25 21.2499 18.3303 21.25 17.4287C21.25 16.5835 20.4638 15.7227 19.249 15.6182L19 15.6074L18.9228 15.6035C18.5449 15.5649 18.2501 15.2455 18.25 14.8574C18.25 14.4432 18.5858 14.1074 19 14.1074L19.1719 14.0996C20.0086 14.0282 20.4999 13.4411 20.5 12.9287C20.5 12.3821 19.941 11.75 19 11.75C18.2781 11.75 17.7478 12.1435 17.5713 12.5713L17.539 12.6406C17.3595 12.976 16.951 13.1276 16.5918 12.9795C16.209 12.8216 16.0268 12.3828 16.1846 12L16.2754 11.8037C16.7684 10.8473 17.84 10.25 19 10.25ZM23.75 19C24.1642 19 24.5 19.3358 24.5 19.75C24.5 20.1642 24.1642 20.5 23.75 20.5C23.3358 20.5 23 20.1642 23 19.75C23 19.3358 23.3358 19 23.75 19ZM25.75 19C26.1642 19 26.5 19.3358 26.5 19.75C26.5 20.1642 26.1642 20.5 25.75 20.5C25.3358 20.5 25 20.1642 25 19.75C25 19.3358 25.3358 19 25.75 19ZM27.75 19C28.1642 19 28.5 19.3358 28.5 19.75C28.5 20.1642 28.1642 20.5 27.75 20.5C27.3358 20.5 27 20.1642 27 19.75C27 19.3358 27.3358 19 27.75 19Z" fill="#0F0F0F"/>
</svg>
