<svg width="32" height="32" viewBox="0 0 32 32" fill="none" xmlns="http://www.w3.org/2000/svg">
<path d="M5.78911 10.5469C5.93179 10.4804 6.09882 10.4849 6.2393 10.5615C6.39984 10.6492 6.50005 10.8171 6.50005 11V20C6.50005 20.2761 6.27619 20.5 6.00005 20.5C5.72394 20.5 5.50005 20.2761 5.50005 20V11.915L4.27055 12.7061L4.17973 12.752C3.96294 12.8357 3.70974 12.7588 3.57915 12.5557C3.43026 12.3235 3.49757 12.0145 3.72954 11.8652L5.72954 10.5791L5.78911 10.5469ZM11.5001 10.5C13.17 10.5 14.5 11.8884 14.5001 13.5713L14.4864 13.8574C14.3548 15.2505 13.2734 16.1334 12.2833 16.9336C11.3543 17.6843 10.4116 18.4258 9.794 19.5H14.0001L14.1006 19.5098C14.3286 19.5563 14.5001 19.7583 14.5001 20C14.5001 20.2417 14.3286 20.4437 14.1006 20.4902L14.0001 20.5H9.00005C8.83502 20.5 8.68014 20.4184 8.58696 20.2822C8.49394 20.146 8.47446 19.9721 8.53423 19.8184L8.66997 19.498C9.38516 17.9374 10.6476 16.9699 11.6544 16.1562C12.7149 15.2991 13.4097 14.6654 13.4922 13.7568L13.5001 13.5713C13.5 12.414 12.5914 11.5 11.5001 11.5C10.4087 11.5 9.50012 12.414 9.50005 13.5713C9.50005 13.8474 9.27619 14.0713 9.00005 14.0713C8.72394 14.0712 8.50005 13.8474 8.50005 13.5713C8.50012 11.8884 9.83009 10.5 11.5001 10.5ZM19.0001 10.5C20.4438 10.5 21.7501 11.5179 21.7501 12.9287C21.75 13.6989 21.3591 14.3499 20.7706 14.7842C21.7868 15.3066 22.5001 16.2663 22.5001 17.4287C22.5 19.1945 20.8579 20.5 19.0001 20.5C17.1422 20.5 15.5001 19.1945 15.5001 17.4287C15.5001 17.1526 15.724 16.9288 16.0001 16.9287C16.2762 16.9287 16.5001 17.1526 16.5001 17.4287C16.5001 18.5031 17.5444 19.5 19.0001 19.5C20.4558 19.5 21.5 18.5031 21.5001 17.4287C21.5001 16.4213 20.5821 15.4815 19.2676 15.3682L19.0001 15.3574L18.8995 15.3467C18.6717 15.3001 18.5002 15.0989 18.5001 14.8574C18.5001 14.5813 18.724 14.3575 19.0001 14.3574L19.1915 14.3486C20.1274 14.268 20.75 13.6031 20.7501 12.9287C20.7501 12.2093 20.0416 11.5 19.0001 11.5C18.1922 11.5 17.5605 11.9416 17.3399 12.4766L17.2921 12.5654C17.1621 12.7582 16.9109 12.8401 16.6876 12.748C16.4323 12.6428 16.3108 12.35 16.4161 12.0947L16.4981 11.9189C16.9433 11.0558 17.9205 10.5 19.0001 10.5ZM23.5001 19C23.7762 19 24.0001 19.2239 24.0001 19.5C24.0001 19.7761 23.7762 20 23.5001 20C23.224 20 23.0001 19.7761 23.0001 19.5C23.0001 19.2239 23.224 19 23.5001 19ZM25.5001 19C25.7762 19 26.0001 19.2239 26.0001 19.5C26.0001 19.7761 25.7762 20 25.5001 20C25.224 20 25.0001 19.7761 25.0001 19.5C25.0001 19.2239 25.224 19 25.5001 19ZM27.5001 19C27.7762 19 28.0001 19.2239 28.0001 19.5C28.0001 19.7761 27.7762 20 27.5001 20C27.224 20 27.0001 19.7761 27.0001 19.5C27.0001 19.2239 27.224 19 27.5001 19Z" fill="#0F0F0F"/>
</svg>
