<svg width="32" height="32" viewBox="0 0 32 32" fill="none" xmlns="http://www.w3.org/2000/svg">
<path d="M16 2C16.4833 2 16.8974 2.34562 16.9839 2.82111C17.4876 5.59156 17.8532 7.59587 18.2893 9.11465C18.722 10.6218 19.1926 11.5284 19.8321 12.1679C20.4716 12.8074 21.3782 13.278 22.8854 13.7107C24.4041 14.1468 26.4084 14.5124 29.1789 15.0161C29.6544 15.1026 30 15.5167 30 16C30 16.4833 29.6544 16.8974 29.1789 16.9839C26.4084 17.4876 24.4041 17.8532 22.8854 18.2893C21.3782 18.722 20.4716 19.1926 19.8321 19.8321C19.1926 20.4716 18.722 21.3782 18.2893 22.8854C17.8532 24.4041 17.4876 26.4084 16.9839 29.1789C16.8974 29.6544 16.4833 30 16 30C15.5167 30 15.1026 29.6544 15.0161 29.1789C14.5124 26.4084 14.1468 24.4041 13.7107 22.8854C13.278 21.3782 12.8074 20.4716 12.1679 19.8321C11.5284 19.1926 10.6218 18.722 9.11465 18.2893C7.59587 17.8532 5.59156 17.4876 2.82111 16.9839C2.34562 16.8974 2 16.4833 2 16C2 15.5167 2.34562 15.1026 2.82111 15.0161C5.59156 14.5124 7.59587 14.1468 9.11465 13.7107C10.6218 13.278 11.5284 12.8074 12.1679 12.1679C12.8074 11.5284 13.278 10.6218 13.7107 9.11467C14.1468 7.59589 14.5124 5.59157 15.0161 2.82112C15.1026 2.34562 15.5167 2 16 2ZM16 8.22777C15.8814 8.74447 15.7603 9.22326 15.633 9.66662C15.1595 11.3157 14.5676 12.5966 13.5821 13.5821C12.5966 14.5676 11.3157 15.1595 9.6666 15.633C9.22324 15.7603 8.74446 15.8814 8.22776 16C8.74446 16.1187 9.22325 16.2397 9.6666 16.367C11.3157 16.8405 12.5966 17.4324 13.5821 18.4179C14.5676 19.4034 15.1595 20.6843 15.633 22.3334C15.7603 22.7768 15.8814 23.2555 16 23.7722C16.1186 23.2555 16.2397 22.7768 16.367 22.3334C16.8405 20.6843 17.4324 19.4034 18.4179 18.4179C19.4034 17.4324 20.6843 16.8405 22.3334 16.367C22.7768 16.2397 23.2555 16.1186 23.7722 16C23.2555 15.8814 22.7768 15.7603 22.3334 15.633C20.6843 15.1595 19.4034 14.5676 18.4179 13.5821C17.4324 12.5966 16.8405 11.3157 16.367 9.6666C16.2397 9.22325 16.1186 8.74447 16 8.22777Z" fill="#0F0F0F"/>
</svg>
