<svg width="32" height="32" viewBox="0 0 32 32" fill="none" xmlns="http://www.w3.org/2000/svg">
<path d="M25.0004 4.99973H7.00037C5.67476 5.00129 4.4039 5.52858 3.46655 6.46592C2.52921 7.40326 2.00193 8.67413 2.00037 9.99973V21.7839C2.00194 23.1667 2.55197 24.4925 3.52979 25.4703C4.5076 26.4481 5.83335 26.9982 7.21619 26.9997H24.7836C26.1666 26.9984 27.4925 26.4484 28.4705 25.4706C29.4486 24.4928 29.9987 23.1669 30.0004 21.7839V9.99973C29.9988 8.67413 29.4715 7.40326 28.5342 6.46592C27.5968 5.52857 26.326 5.00129 25.0004 4.99973ZM28.0004 21.7839C27.9993 22.6366 27.66 23.4541 27.0569 24.057C26.4539 24.6598 25.6363 24.9989 24.7836 24.9997H7.21619C6.36357 24.9988 5.54613 24.6597 4.94324 24.0569C4.34035 23.454 4.00126 22.6365 4.00037 21.7839V9.99973C4.00123 9.20435 4.31758 8.44179 4.88 7.87937C5.44243 7.31695 6.20498 7.0006 7.00037 6.99973H25.0004C25.7957 7.0006 26.5583 7.31695 27.1207 7.87937C27.6831 8.44179 27.9995 9.20435 28.0004 9.99973V21.7839Z" fill="#0F0F0F"/>
<path d="M12.0022 13.006C12.6926 13.006 13.2522 12.4464 13.2522 11.756C13.2522 11.0657 12.6926 10.506 12.0022 10.506C11.3118 10.506 10.7522 11.0657 10.7522 11.756C10.7522 12.4464 11.3118 13.006 12.0022 13.006Z" fill="#0F0F0F"/>
<path d="M8.00098 13.0103C8.69133 13.0103 9.25098 12.4506 9.25098 11.7603C9.25098 11.0699 8.69133 10.5103 8.00098 10.5103C7.31062 10.5103 6.75098 11.0699 6.75098 11.7603C6.75098 12.4506 7.31062 13.0103 8.00098 13.0103Z" fill="#0F0F0F"/>
<path d="M20.0001 13.0052C20.6904 13.0052 21.2501 12.4455 21.2501 11.7552C21.2501 11.0648 20.6904 10.5052 20.0001 10.5052C19.3097 10.5052 18.7501 11.0648 18.7501 11.7552C18.7501 12.4455 19.3097 13.0052 20.0001 13.0052Z" fill="#0F0F0F"/>
<path d="M24.0001 13.0078C24.6904 13.0078 25.2501 12.4482 25.2501 11.7578C25.2501 11.0675 24.6904 10.5078 24.0001 10.5078C23.3097 10.5078 22.7501 11.0675 22.7501 11.7578C22.7501 12.4482 23.3097 13.0078 24.0001 13.0078Z" fill="#0F0F0F"/>
<path d="M16.0004 13.0052C16.6907 13.0052 17.2504 12.4455 17.2504 11.7552C17.2504 11.0648 16.6907 10.5052 16.0004 10.5052C15.31 10.5052 14.7504 11.0648 14.7504 11.7552C14.7504 12.4455 15.31 13.0052 16.0004 13.0052Z" fill="#0F0F0F"/>
<path d="M13.9983 17.0008C14.6887 17.0008 15.2483 16.4412 15.2483 15.7508C15.2483 15.0605 14.6887 14.5008 13.9983 14.5008C13.3079 14.5008 12.7483 15.0605 12.7483 15.7508C12.7483 16.4412 13.3079 17.0008 13.9983 17.0008Z" fill="#0F0F0F"/>
<path d="M9.99708 17.0052C10.6874 17.0052 11.2471 16.4455 11.2471 15.7552C11.2471 15.0648 10.6874 14.5052 9.99708 14.5052C9.30672 14.5052 8.74708 15.0648 8.74708 15.7552C8.74708 16.4455 9.30672 17.0052 9.99708 17.0052Z" fill="#0F0F0F"/>
<path d="M21.9962 17C22.6865 17 23.2462 16.4403 23.2462 15.75C23.2462 15.0596 22.6865 14.5 21.9962 14.5C21.3058 14.5 20.7462 15.0596 20.7462 15.75C20.7462 16.4403 21.3058 17 21.9962 17Z" fill="#0F0F0F"/>
<path d="M17.9965 17C18.6868 17 19.2465 16.4403 19.2465 15.75C19.2465 15.0596 18.6868 14.5 17.9965 14.5C17.3061 14.5 16.7465 15.0596 16.7465 15.75C16.7465 16.4403 17.3061 17 17.9965 17Z" fill="#0F0F0F"/>
<path d="M20.0004 19.9997H12.0004C11.7351 19.9997 11.4808 20.1051 11.2933 20.2926C11.1057 20.4802 11.0004 20.7345 11.0004 20.9997C11.0004 21.2649 11.1057 21.5193 11.2933 21.7068C11.4808 21.8944 11.7351 21.9997 12.0004 21.9997H20.0004C20.2656 21.9997 20.5199 21.8944 20.7075 21.7068C20.895 21.5193 21.0004 21.2649 21.0004 20.9997C21.0004 20.7345 20.895 20.4802 20.7075 20.2926C20.5199 20.1051 20.2656 19.9997 20.0004 19.9997Z" fill="#0F0F0F"/>
</svg>
