<svg width="36" height="32" viewBox="0 0 36 32" fill="none" xmlns="http://www.w3.org/2000/svg">
<path d="M3.93359 26.0332C1.44531 26.0332 0.188477 24.7764 0.188477 22.3135V10.0371C0.188477 7.58691 1.44531 6.33008 3.93359 6.33008H32.0791C34.542 6.33008 35.8115 7.59961 35.8115 10.0371V22.3135C35.8115 24.7637 34.542 26.0332 32.0791 26.0332H3.93359ZM3.95898 24.459H32.041C33.4375 24.459 34.25 23.6973 34.25 22.2373V10.126C34.25 8.65332 33.4375 7.9043 32.041 7.9043H3.95898C2.53711 7.9043 1.7627 8.65332 1.7627 10.126V22.2373C1.7627 23.6973 2.53711 24.459 3.95898 24.459ZM29.7432 12.9951C29.4131 12.9951 29.2734 12.8428 29.2734 12.5254V11.6113C29.2734 11.2812 29.4131 11.1416 29.7432 11.1416H30.6572C30.9746 11.1416 31.127 11.2812 31.127 11.6113V12.5254C31.127 12.8428 30.9746 12.9951 30.6572 12.9951H29.7432ZM25.6553 12.9951C25.3379 12.9951 25.1855 12.8428 25.1855 12.5254V11.6113C25.1855 11.2812 25.3379 11.1416 25.6553 11.1416H26.5693C26.8994 11.1416 27.0391 11.2812 27.0391 11.6113V12.5254C27.0391 12.8428 26.8994 12.9951 26.5693 12.9951H25.6553ZM21.5801 12.9951C21.25 12.9951 21.0977 12.8428 21.0977 12.5254V11.6113C21.0977 11.2812 21.25 11.1416 21.5801 11.1416H22.4814C22.8115 11.1416 22.9639 11.2812 22.9639 11.6113V12.5254C22.9639 12.8428 22.8115 12.9951 22.4814 12.9951H21.5801ZM17.4922 12.9951C17.1621 12.9951 17.0225 12.8428 17.0225 12.5254V11.6113C17.0225 11.2812 17.1621 11.1416 17.4922 11.1416H18.4062C18.7236 11.1416 18.876 11.2812 18.876 11.6113V12.5254C18.876 12.8428 18.7236 12.9951 18.4062 12.9951H17.4922ZM13.4043 12.9951C13.0869 12.9951 12.9346 12.8428 12.9346 12.5254V11.6113C12.9346 11.2812 13.0869 11.1416 13.4043 11.1416H14.3184C14.6484 11.1416 14.7881 11.2812 14.7881 11.6113V12.5254C14.7881 12.8428 14.6484 12.9951 14.3184 12.9951H13.4043ZM9.3291 12.9951C8.99902 12.9951 8.84668 12.8428 8.84668 12.5254V11.6113C8.84668 11.2812 8.99902 11.1416 9.3291 11.1416H10.2305C10.5605 11.1416 10.7129 11.2812 10.7129 11.6113V12.5254C10.7129 12.8428 10.5605 12.9951 10.2305 12.9951H9.3291ZM5.24121 12.9951C4.91113 12.9951 4.77148 12.8428 4.77148 12.5254V11.6113C4.77148 11.2812 4.91113 11.1416 5.24121 11.1416H6.15527C6.47266 11.1416 6.625 11.2812 6.625 11.6113V12.5254C6.625 12.8428 6.47266 12.9951 6.15527 12.9951H5.24121ZM13.4043 17.0703C13.0869 17.0703 12.9346 16.9307 12.9346 16.6006V15.6992C12.9346 15.3691 13.0869 15.2168 13.4043 15.2168H14.3184C14.6484 15.2168 14.7881 15.3691 14.7881 15.6992V16.6006C14.7881 16.9307 14.6484 17.0703 14.3184 17.0703H13.4043ZM17.4922 17.0703C17.1621 17.0703 17.0225 16.9307 17.0225 16.6006V15.6992C17.0225 15.3691 17.1621 15.2168 17.4922 15.2168H18.4062C18.7236 15.2168 18.876 15.3691 18.876 15.6992V16.6006C18.876 16.9307 18.7236 17.0703 18.4062 17.0703H17.4922ZM21.5801 17.0703C21.25 17.0703 21.0977 16.9307 21.0977 16.6006V15.6992C21.0977 15.3691 21.25 15.2168 21.5801 15.2168H22.4814C22.8115 15.2168 22.9639 15.3691 22.9639 15.6992V16.6006C22.9639 16.9307 22.8115 17.0703 22.4814 17.0703H21.5801ZM25.6553 17.0703C25.3379 17.0703 25.1855 16.9307 25.1855 16.6006V15.6992C25.1855 15.3691 25.3379 15.2168 25.6553 15.2168H26.5693C26.8994 15.2168 27.0391 15.3691 27.0391 15.6992V16.6006C27.0391 16.9307 26.8994 17.0703 26.5693 17.0703H25.6553ZM9.3291 17.0703C8.99902 17.0703 8.84668 16.9307 8.84668 16.6006V15.6992C8.84668 15.3691 8.99902 15.2168 9.3291 15.2168H10.2305C10.5605 15.2168 10.7129 15.3691 10.7129 15.6992V16.6006C10.7129 16.9307 10.5605 17.0703 10.2305 17.0703H9.3291ZM29.7432 17.0703C29.4131 17.0703 29.2734 16.9307 29.2734 16.6006V15.6992C29.2734 15.3691 29.4131 15.2168 29.7432 15.2168H30.6572C30.9746 15.2168 31.127 15.3691 31.127 15.6992V16.6006C31.127 16.9307 30.9746 17.0703 30.6572 17.0703H29.7432ZM5.24121 17.0703C4.91113 17.0703 4.77148 16.9307 4.77148 16.6006V15.6992C4.77148 15.3691 4.91113 15.2168 5.24121 15.2168H6.15527C6.47266 15.2168 6.625 15.3691 6.625 15.6992V16.6006C6.625 16.9307 6.47266 17.0703 6.15527 17.0703H5.24121ZM9.3291 21.1582C8.99902 21.1582 8.84668 21.0186 8.84668 20.6885V19.7744C8.84668 19.457 8.99902 19.3047 9.3291 19.3047H26.5693C26.8994 19.3047 27.0391 19.457 27.0391 19.7744V20.6885C27.0391 21.0186 26.8994 21.1582 26.5693 21.1582H9.3291ZM29.7432 21.1582C29.4131 21.1582 29.2734 21.0186 29.2734 20.6885V19.7744C29.2734 19.457 29.4131 19.3047 29.7432 19.3047H30.6572C30.9746 19.3047 31.127 19.457 31.127 19.7744V20.6885C31.127 21.0186 30.9746 21.1582 30.6572 21.1582H29.7432ZM5.24121 21.1582C4.91113 21.1582 4.77148 21.0186 4.77148 20.6885V19.7744C4.77148 19.457 4.91113 19.3047 5.24121 19.3047H6.15527C6.47266 19.3047 6.625 19.457 6.625 19.7744V20.6885C6.625 21.0186 6.47266 21.1582 6.15527 21.1582H5.24121Z" fill="black"/>
</svg>
