<svg width="32" height="32" viewBox="0 0 32 32" fill="none" xmlns="http://www.w3.org/2000/svg">
<path d="M5.66643 25.7863C3.92634 23.8411 2.73699 21.4388 2.23388 18.8398C2.11943 18.2486 2.04158 17.6528 2 17.0559H8.07023C8.21963 21.0289 9.43532 25.4372 12.5206 29.9984C10.3406 29.4253 8.32658 28.3218 6.64876 26.7815C6.62405 26.7588 6.59942 26.736 6.57487 26.7131C6.25858 26.4185 5.95543 26.1092 5.66643 25.7863Z" fill="#0F0F0F"/>
<path d="M24.8418 27.2272C23.7963 28.0986 22.6285 28.8156 21.3713 29.3507C20.752 29.6143 20.1177 29.8309 19.4734 30C22.5632 25.439 23.7831 21.0303 23.9355 17.0559H30C29.8266 19.5459 29.0264 21.9534 27.6704 24.0388C27.4264 24.414 27.1662 24.776 26.8908 25.1241C26.2799 25.8953 25.593 26.6003 24.8418 27.2272Z" fill="#0F0F0F"/>
<path d="M19.5256 2.06969C21.9247 2.71177 24.1374 4.00068 25.9202 5.83264C28.3141 8.29249 29.7552 11.5487 29.9989 14.9955H23.9209C23.8336 13.3231 23.568 11.7439 23.192 10.2816C22.2774 6.7245 20.7162 3.87877 19.5256 2.06969Z" fill="#0F0F0F"/>
<path d="M12.4999 2.05928C11.326 3.83686 9.78673 6.62726 8.86163 10.1171C8.46197 11.6248 8.17822 13.2598 8.0863 14.9955H2.00006C2.1071 13.4603 2.45318 11.9442 3.0326 10.5069C4.09494 7.87152 5.89394 5.61904 8.20212 4.03428C9.52331 3.12717 10.9774 2.46215 12.4999 2.05928Z" fill="#0F0F0F"/>
<path d="M14.9973 2.02841C13.98 3.37253 11.9052 6.47535 10.7963 10.6586C10.4413 11.9975 10.1841 13.4501 10.0939 14.9955H14.9973V2.02841Z" fill="#0F0F0F"/>
<path d="M14.9973 29.9884C11.554 25.3855 10.2397 20.9762 10.0764 17.0559H14.9973V29.9884Z" fill="#0F0F0F"/>
<path d="M21.2534 10.808C21.587 12.1054 21.8276 13.5075 21.9133 14.9955H17.0024V2C18.0321 3.36068 20.1541 6.53276 21.2534 10.808Z" fill="#0F0F0F"/>
<path d="M21.9292 17.0559H17.0024V29.9806C20.4462 25.3805 21.7628 20.974 21.9292 17.0559Z" fill="#0F0F0F"/>
</svg>
