<svg width="34" height="32" viewBox="0 0 34 32" fill="none" xmlns="http://www.w3.org/2000/svg">
<path d="M0.000976562 25.1826C0.000976562 24.4971 0.546875 23.9385 1.23242 23.9385H3.86035V9.77051C3.86035 8.12012 4.78711 7.28223 6.36133 7.28223H27.6387C29.2764 7.28223 30.1523 8.12012 30.1523 9.77051V23.9385H32.7803C33.4531 23.9385 33.999 24.4971 33.999 25.1826C33.999 25.8809 33.4531 26.4268 32.7803 26.4268H1.23242C0.546875 26.4268 0.000976562 25.8809 0.000976562 25.1826ZM5.51074 23.9385H28.4893V10.2021C28.4893 9.36426 28.0703 8.94531 27.2197 8.94531H6.78027C5.94238 8.94531 5.51074 9.36426 5.51074 10.2021V23.9385Z" fill="black"/>
</svg>
