<svg width="32" height="32" viewBox="0 0 32 32" fill="none" xmlns="http://www.w3.org/2000/svg">
<path d="M29.7071 3.70711C30.0976 3.31658 30.0976 2.68342 29.7071 2.29289C29.3166 1.90237 28.6834 1.90237 28.2929 2.29289L20.2929 10.2929L20.2882 10.2976L18.5356 12.0502C18.145 12.4408 18.145 13.0739 18.5356 13.4645C18.9261 13.855 19.5593 13.855 19.9498 13.4645L22.7782 10.636L22.783 10.6313L29.7071 3.70711Z" fill="#0F0F0F"/>
<path d="M16 5C16 4.44772 15.5523 4 15 4C14.4477 4 14 4.44772 14 5V11C14 11.5523 14.4477 12 15 12C15.5523 12 16 11.5523 16 11V5Z" fill="#0F0F0F"/>
<path d="M28 17C28 17.5523 27.5523 18 27 18H21C20.4477 18 20 17.5523 20 17C20 16.4477 20.4477 16 21 16H27C27.5523 16 28 16.4477 28 17Z" fill="#0F0F0F"/>
<path d="M9 18C9.55228 18 10 17.5523 10 17C10 16.4477 9.55229 16 9 16L3 16C2.44772 16 2 16.4477 2 17C2 17.5523 2.44772 18 3 18H9Z" fill="#0F0F0F"/>
<path d="M15 22C15.5523 22 16 22.4477 16 23V29C16 29.5523 15.5523 30 15 30C14.4477 30 14 29.5523 14 29V23C14 22.4477 14.4477 22 15 22Z" fill="#0F0F0F"/>
<path d="M8.63597 9.22185C8.24544 8.83133 7.61228 8.83132 7.22176 9.22185C6.83123 9.61237 6.83123 10.2455 7.22176 10.6361L10.0502 13.4645C10.4407 13.855 11.0739 13.855 11.4644 13.4645C11.8549 13.074 11.8549 12.4408 11.4644 12.0503L8.63597 9.22185Z" fill="#0F0F0F"/>
<path d="M18.5355 20.5356C18.926 20.145 19.5592 20.145 19.9497 20.5356L22.7781 23.364C23.1686 23.7545 23.1686 24.3877 22.7781 24.7782C22.3876 25.1687 21.7544 25.1687 21.3639 24.7782L18.5355 21.9498C18.145 21.5593 18.145 20.9261 18.5355 20.5356Z" fill="#0F0F0F"/>
<path d="M11.4644 21.9498C11.855 21.5592 11.855 20.9261 11.4644 20.5355C11.0739 20.145 10.4407 20.145 10.0502 20.5355L7.22179 23.364C6.83127 23.7545 6.83127 24.3877 7.22179 24.7782C7.61231 25.1687 8.24548 25.1687 8.636 24.7782L11.4644 21.9498Z" fill="#0F0F0F"/>
<path d="M15 15C13.8954 15 13 15.8954 13 17C13 18.1046 13.8954 19 15 19C16.1046 19 17 18.1046 17 17C17 15.8954 16.1046 15 15 15Z" fill="#0F0F0F"/>
</svg>
