<svg width="32" height="32" viewBox="0 0 32 32" fill="none" xmlns="http://www.w3.org/2000/svg">
<path d="M29.5303 3.53033C29.8232 3.23744 29.8232 2.76256 29.5303 2.46967C29.2374 2.17678 28.7626 2.17678 28.4697 2.46967L20.4697 10.4697L20.4673 10.472L18.7123 12.227C18.4195 12.5199 18.4195 12.9948 18.7123 13.2877C19.0052 13.5806 19.4801 13.5806 19.773 13.2877L22.6014 10.4592L22.6036 10.4571L29.5303 3.53033Z" fill="#0F0F0F"/>
<path d="M15.75 5C15.75 4.58579 15.4142 4.25 15 4.25C14.5858 4.25 14.25 4.58579 14.25 5V11C14.25 11.4142 14.5858 11.75 15 11.75C15.4142 11.75 15.75 11.4142 15.75 11V5Z" fill="#0F0F0F"/>
<path d="M27.75 17C27.75 17.4142 27.4142 17.75 27 17.75H21C20.5858 17.75 20.25 17.4142 20.25 17C20.25 16.5858 20.5858 16.25 21 16.25H27C27.4142 16.25 27.75 16.5858 27.75 17Z" fill="#0F0F0F"/>
<path d="M9 17.75C9.41421 17.75 9.75 17.4142 9.75 17C9.75 16.5858 9.41421 16.25 9 16.25H3C2.58579 16.25 2.25 16.5858 2.25 17C2.25 17.4142 2.58579 17.75 3 17.75H9Z" fill="#0F0F0F"/>
<path d="M15 22.25C15.4142 22.25 15.75 22.5858 15.75 23V29C15.75 29.4142 15.4142 29.75 15 29.75C14.5858 29.75 14.25 29.4142 14.25 29V23C14.25 22.5858 14.5858 22.25 15 22.25Z" fill="#0F0F0F"/>
<path d="M8.45915 9.39863C8.16626 9.10573 7.69139 9.10573 7.39849 9.39863C7.1056 9.69152 7.1056 10.1664 7.39849 10.4593L10.2269 13.2877C10.5198 13.5806 10.9947 13.5806 11.2876 13.2877C11.5805 12.9948 11.5805 12.5199 11.2876 12.2271L8.45915 9.39863Z" fill="#0F0F0F"/>
<path d="M18.7122 20.7123C19.0051 20.4195 19.48 20.4195 19.7729 20.7123L22.6013 23.5408C22.8942 23.8337 22.8942 24.3085 22.6013 24.6014C22.3084 24.8943 21.8335 24.8943 21.5406 24.6014L18.7122 21.773C18.4193 21.4801 18.4193 21.0052 18.7122 20.7123Z" fill="#0F0F0F"/>
<path d="M11.2877 21.773C11.5805 21.4801 11.5805 21.0052 11.2877 20.7123C10.9948 20.4194 10.5199 20.4194 10.227 20.7123L7.39857 23.5408C7.10567 23.8337 7.10567 24.3085 7.39857 24.6014C7.69146 24.8943 8.16633 24.8943 8.45923 24.6014L11.2877 21.773Z" fill="#0F0F0F"/>
<path d="M15 15.5C14.1716 15.5 13.5 16.1716 13.5 17C13.5 17.8284 14.1716 18.5 15 18.5C15.8284 18.5 16.5 17.8284 16.5 17C16.5 16.1716 15.8284 15.5 15 15.5Z" fill="#0F0F0F"/>
</svg>
