<svg width="32" height="32" viewBox="0 0 32 32" fill="none" xmlns="http://www.w3.org/2000/svg">
<path d="M30.0607 4.06066C30.6464 3.47487 30.6464 2.52513 30.0607 1.93934C29.4749 1.35355 28.5251 1.35355 27.9393 1.93934L19.9393 9.93934L19.935 9.94371L18.182 11.6967C17.5962 12.2825 17.5962 13.2322 18.182 13.818C18.7678 14.4038 19.7176 14.4038 20.3033 13.818L23.1318 10.9896L23.1362 10.9852L30.0607 4.06066Z" fill="#0F0F0F"/>
<path d="M16.5 5C16.5 4.17157 15.8284 3.5 15 3.5C14.1716 3.5 13.5 4.17157 13.5 5V11C13.5 11.8284 14.1716 12.5 15 12.5C15.8284 12.5 16.5 11.8284 16.5 11V5Z" fill="#0F0F0F"/>
<path d="M28.5 17C28.5 17.8284 27.8284 18.5 27 18.5H21C20.1716 18.5 19.5 17.8284 19.5 17C19.5 16.1716 20.1716 15.5 21 15.5H27C27.8284 15.5 28.5 16.1716 28.5 17Z" fill="#0F0F0F"/>
<path d="M9 18.5C9.82843 18.5 10.5 17.8284 10.5 17C10.5 16.1716 9.82843 15.5 9 15.5L3 15.5C2.17157 15.5 1.5 16.1716 1.5 17C1.5 17.8284 2.17157 18.5 3 18.5H9Z" fill="#0F0F0F"/>
<path d="M15 21.5C15.8284 21.5 16.5 22.1716 16.5 23V29C16.5 29.8284 15.8284 30.5 15 30.5C14.1716 30.5 13.5 29.8284 13.5 29V23C13.5 22.1716 14.1716 21.5 15 21.5Z" fill="#0F0F0F"/>
<path d="M8.9896 8.8683C8.40381 8.28251 7.45406 8.28251 6.86828 8.86829C6.28249 9.45408 6.28249 10.4038 6.86828 10.9896L9.6967 13.818C10.2825 14.4038 11.2322 14.4038 11.818 13.818C12.4038 13.2323 12.4038 12.2825 11.818 11.6967L8.9896 8.8683Z" fill="#0F0F0F"/>
<path d="M18.182 20.182C18.7678 19.5962 19.7175 19.5962 20.3033 20.182L23.1317 23.0104C23.7175 23.5962 23.7175 24.546 23.1317 25.1318C22.546 25.7176 21.5962 25.7176 21.0104 25.1318L18.182 22.3033C17.5962 21.7176 17.5962 20.7678 18.182 20.182Z" fill="#0F0F0F"/>
<path d="M11.818 22.3033C12.4038 21.7175 12.4038 20.7678 11.818 20.182C11.2322 19.5962 10.2825 19.5962 9.69666 20.182L6.86824 23.0104C6.28245 23.5962 6.28245 24.546 6.86824 25.1317C7.45402 25.7175 8.40377 25.7175 8.98956 25.1317L11.818 22.3033Z" fill="#0F0F0F"/>
<path d="M15 14C13.3431 14 12 15.3431 12 17C12 18.6569 13.3431 20 15 20C16.6569 20 18 18.6569 18 17C18 15.3431 16.6569 14 15 14Z" fill="#0F0F0F"/>
</svg>
