<svg width="32" height="32" viewBox="0 0 32 32" fill="none" xmlns="http://www.w3.org/2000/svg">
<path d="M20.9576 9.62825C20.8177 9.7681 20.7225 9.94629 20.6839 10.1403C20.6453 10.3342 20.6651 10.5353 20.7408 10.718C20.8165 10.9008 20.9447 11.0569 21.1091 11.1668C21.2736 11.2767 21.4669 11.3353 21.6647 11.3353C21.8625 11.3353 22.0558 11.2767 22.2202 11.1668C22.3847 11.0569 22.5129 10.9008 22.5886 10.718C22.6642 10.5353 22.684 10.3342 22.6455 10.1403C22.6069 9.94629 22.5117 9.7681 22.3718 9.62825C22.1843 9.44072 21.9299 9.33538 21.6647 9.33538C21.3995 9.33538 21.1451 9.44072 20.9576 9.62825Z" fill="#0F0F0F"/>
<path d="M9.35378 22.6469C9.30737 22.6004 9.25226 22.5636 9.19161 22.5385C9.13095 22.5133 9.06594 22.5004 9.00028 22.5004C8.93463 22.5004 8.86962 22.5133 8.80896 22.5385C8.74831 22.5636 8.6932 22.6004 8.64678 22.6469L4.64678 26.6469C4.59976 26.6932 4.56236 26.7483 4.53675 26.8091C4.51114 26.8699 4.49782 26.9352 4.49756 27.0012C4.4973 27.0672 4.51011 27.1326 4.53524 27.1936C4.56037 27.2546 4.59733 27.31 4.64399 27.3567C4.69065 27.4033 4.74608 27.4403 4.80709 27.4654C4.8681 27.4905 4.93348 27.5034 4.99947 27.5031C5.06545 27.5028 5.13073 27.4895 5.19154 27.4639C5.25235 27.4383 5.30749 27.4009 5.35378 27.3539L9.35378 23.3539C9.40022 23.3075 9.43706 23.2523 9.46219 23.1917C9.48732 23.131 9.50026 23.066 9.50026 23.0004C9.50026 22.9347 9.48732 22.8697 9.46219 22.809C9.43706 22.7484 9.40022 22.6933 9.35378 22.6469Z" fill="#0F0F0F"/>
<path d="M11.6468 24.6469L9.64676 26.6469C9.59974 26.6932 9.56234 26.7483 9.53673 26.8091C9.51112 26.8699 9.4978 26.9352 9.49754 27.0012C9.49728 27.0672 9.51009 27.1326 9.53522 27.1936C9.56035 27.2546 9.59731 27.31 9.64397 27.3567C9.69063 27.4033 9.74606 27.4403 9.80707 27.4654C9.86808 27.4905 9.93346 27.5034 9.99945 27.5031C10.0654 27.5028 10.1307 27.4895 10.1915 27.4639C10.2523 27.4383 10.3075 27.4009 10.3538 27.3539L12.3538 25.3539C12.4463 25.2599 12.4979 25.1331 12.4974 25.0012C12.4969 24.8693 12.4443 24.7429 12.351 24.6496C12.2577 24.5564 12.1314 24.5037 11.9994 24.5032C11.8675 24.5027 11.7408 24.5543 11.6468 24.6469Z" fill="#0F0F0F"/>
<path d="M5.00028 22.5004C5.06595 22.5005 5.13099 22.4876 5.19165 22.4624C5.25232 22.4373 5.30742 22.4004 5.35378 22.3539L7.35378 20.3539C7.44632 20.2599 7.49795 20.1331 7.49743 20.0012C7.49692 19.8693 7.44428 19.7429 7.35101 19.6497C7.25774 19.5564 7.13138 19.5038 6.99947 19.5032C6.86756 19.5027 6.74079 19.5544 6.64678 19.6469L4.64678 21.6469C4.57687 21.7168 4.52927 21.8059 4.50998 21.9029C4.4907 21.9999 4.5006 22.1004 4.53844 22.1917C4.57627 22.2831 4.64035 22.3612 4.72256 22.4161C4.80477 22.4711 4.9014 22.5004 5.00028 22.5004Z" fill="#0F0F0F"/>
<path d="M27.0706 4.94667C26.9072 4.7814 26.7073 4.65684 26.4869 4.58305C26.2666 4.50926 26.032 4.48831 25.802 4.52187L22.93 4.92226C19.8485 5.26783 16.9526 6.56961 14.6487 8.64491C13.9639 9.34868 13.397 10.1582 12.9697 11.0423C12.6422 10.5843 12.2139 10.2075 11.7179 9.94106C11.2219 9.67459 10.6713 9.52552 10.1086 9.50531C8.55687 9.58636 7.4221 11.1088 6.41234 12.767L5.35765 14.7504C5.1693 15.0574 5.08981 15.4189 5.13197 15.7766C5.17413 16.1342 5.3355 16.4673 5.59007 16.7221L5.92407 17.0639C6.06208 17.2021 6.22605 17.3116 6.40655 17.3862C6.58706 17.4608 6.78053 17.4989 6.97583 17.4985C7.32128 17.4976 7.65647 17.381 7.92798 17.1675L11.6202 13.8987L9.64087 18.2173C9.51136 18.4967 9.47057 18.809 9.52399 19.1123C9.57742 19.4156 9.72251 19.6952 9.9397 19.9136L12.0872 22.061C12.3695 22.3425 12.752 22.5005 13.1506 22.5005C13.367 22.5006 13.5808 22.4529 13.7766 22.3608L19.0406 19.9745L15.8137 23.7192C15.5903 24.009 15.4802 24.3703 15.5041 24.7354C15.5281 25.1006 15.6843 25.4444 15.9436 25.7026L16.2766 26.0298C16.5807 26.3325 16.9921 26.5028 17.4211 26.5034C17.7055 26.5044 17.9846 26.427 18.2278 26.2798L20.2601 25.1957C21.8206 24.2455 23.4261 23.06 23.5032 21.474C23.4772 20.8884 23.3155 20.3167 23.031 19.8042C22.7464 19.2916 22.3468 18.8521 21.8635 18.5202C22.4039 18.1891 22.9046 17.7971 23.3558 17.352C25.4358 15.0559 26.7436 12.1655 27.095 9.0873L27.4954 6.21425C27.5284 5.98447 27.5072 5.75015 27.4334 5.53005C27.3597 5.30994 27.2354 5.11015 27.0706 4.94667ZM7.29032 16.3978C7.19513 16.4721 7.07623 16.5092 6.95571 16.5024C6.83519 16.4956 6.72125 16.4452 6.63504 16.3607L6.30104 16.0189C6.20216 15.9179 6.14079 15.7862 6.12711 15.6455C6.11343 15.5048 6.14827 15.3637 6.22584 15.2455L7.28053 13.2621C8.09205 11.9301 9.06959 10.5609 10.1614 10.5033C10.1848 10.5023 10.2083 10.5013 10.2327 10.5013C10.6688 10.5678 11.0859 10.7257 11.4566 10.9647C11.8274 11.2037 12.1434 11.5184 12.3841 11.8881L7.29032 16.3978ZM22.5042 21.4262C22.4505 22.5443 21.0765 23.5277 19.7649 24.3275L17.7327 25.4105C17.6152 25.4825 17.4768 25.5125 17.34 25.4957C17.2033 25.4788 17.0763 25.4161 16.9798 25.3178L16.6468 24.9906C16.5628 24.9084 16.5107 24.7991 16.5 24.6821C16.4893 24.565 16.5205 24.448 16.5882 24.3519L21.0667 19.1547C22.054 19.9721 22.5374 20.7348 22.5042 21.4262ZM26.1048 8.94863C25.7835 11.8136 24.5736 14.5062 22.6448 16.6488C21.5991 17.5971 20.3887 18.3461 19.0735 18.8588L13.3587 21.4525C13.2659 21.4965 13.1619 21.5106 13.0608 21.4929C12.9597 21.4752 12.8666 21.4267 12.7942 21.3539L10.6468 19.2064C10.5739 19.1331 10.5254 19.0391 10.508 18.9372C10.4905 18.8353 10.5049 18.7305 10.5491 18.6371L13.2288 12.7904C13.7199 11.5251 14.4395 10.3608 15.3518 9.35585C17.502 7.4313 20.2002 6.22732 23.0686 5.91249L25.9407 5.5121C25.964 5.50902 25.9875 5.50739 26.011 5.50722C26.0824 5.50736 26.1529 5.52277 26.2178 5.55242C26.2826 5.58207 26.3404 5.62527 26.3873 5.67911C26.4341 5.73295 26.4688 5.79619 26.4891 5.86457C26.5095 5.93296 26.5149 6.00491 26.5052 6.07558L26.1048 8.94863Z" fill="#0F0F0F"/>
</svg>
