<svg width="32" height="32" viewBox="0 0 32 32" fill="none" xmlns="http://www.w3.org/2000/svg">
<path d="M25 11.4967L17.499 11.441L17.5 6.9986C17.5003 6.39125 17.2795 5.80456 16.8788 5.34813C16.4781 4.8917 15.925 4.59674 15.3227 4.51835C14.7204 4.43995 14.1102 4.58349 13.606 4.92215C13.1018 5.2608 12.7382 5.77141 12.583 6.3586C11.5986 10.0432 10.6846 13.4086 10.3877 14.4992L7 14.4967C6.07208 14.4978 5.18249 14.8669 4.52635 15.5231C3.87022 16.1792 3.50111 17.0688 3.5 17.9967V23.9967C3.50111 24.9246 3.87022 25.8142 4.52635 26.4703C5.18249 27.1265 6.07208 27.4956 7 27.4967H21.001C21.9858 27.4966 22.961 27.3026 23.8709 26.9256C24.7808 26.5487 25.6075 25.9962 26.3038 25.2998C27.0001 24.6034 27.5525 23.7766 27.9293 22.8667C28.3062 21.9568 28.5001 20.9815 28.5 19.9967V14.9967C28.4989 14.0688 28.1298 13.1792 27.4736 12.5231C26.8175 11.8669 25.9279 11.4978 25 11.4967ZM4.5 23.9967V17.9967C4.50069 17.3339 4.7643 16.6984 5.23299 16.2297C5.70168 15.761 6.33717 15.4974 7 15.4967L10.5 15.4999V26.4966H7C6.33719 26.4959 5.70172 26.2323 5.23303 25.7636C4.76434 25.295 4.50071 24.6595 4.5 23.9967ZM27.5 19.9967C27.5001 20.8502 27.3321 21.6954 27.0056 22.4841C26.679 23.2727 26.2003 23.9892 25.5968 24.5928C24.9933 25.1964 24.2768 25.6752 23.4883 26.0019C22.6997 26.3285 21.8545 26.4967 21.001 26.4967H11.4999V14.22C11.8899 12.7855 12.6914 9.827 13.5499 6.6178C13.6431 6.26589 13.8611 5.95988 14.1633 5.75683C14.4654 5.55379 14.8311 5.46756 15.1922 5.51422C15.5532 5.56089 15.885 5.73727 16.1256 6.01047C16.3662 6.28367 16.4992 6.63505 16.4999 6.9991L16.5019 11.3859C16.4863 11.5258 16.5003 11.6674 16.5432 11.8015C16.586 11.9356 16.6566 12.0592 16.7504 12.1642C16.8442 12.2691 16.9591 12.3531 17.0876 12.4107C17.2161 12.4683 17.3552 12.4981 17.496 12.4982L25 12.4967C25.6628 12.4974 26.2983 12.761 26.767 13.2297C27.2357 13.6984 27.4993 14.3339 27.5 14.9967V19.9967Z" fill="#0F0F0F"/>
</svg>
