<svg width="32" height="32" viewBox="0 0 32 32" fill="none" xmlns="http://www.w3.org/2000/svg">
<path d="M5.99609 11.3447C6.42773 11.3447 6.71973 11.1035 6.71973 10.6084V6.49512C6.71973 6.0127 6.38965 5.70801 5.90723 5.70801C5.48828 5.70801 5.24707 5.84766 4.96777 6.05078L4.05371 6.68555C3.7998 6.86328 3.67285 7.00293 3.67285 7.24414C3.67285 7.54883 3.90137 7.75195 4.18066 7.75195C4.33301 7.75195 4.40918 7.72656 4.6123 7.58691L5.24707 7.12988H5.27246V10.6084C5.27246 11.1035 5.55176 11.3447 5.99609 11.3447ZM10.249 9.54199H27.7812C28.2256 9.54199 28.5684 9.19922 28.5684 8.75488C28.5684 8.31055 28.2256 7.98047 27.7812 7.98047H10.249C9.80469 7.98047 9.46191 8.31055 9.46191 8.75488C9.46191 9.19922 9.80469 9.54199 10.249 9.54199ZM4.05371 18.8984H7.22754C7.51953 18.8984 7.74805 18.6826 7.74805 18.3779C7.74805 18.0352 7.53223 17.832 7.22754 17.832H5.31055V17.7939L6.40234 16.8672C7.27832 16.1182 7.57031 15.7246 7.57031 15.0264C7.57031 14.0742 6.75781 13.4141 5.48828 13.4141C4.33301 13.4141 3.50781 14.0488 3.50781 14.8105C3.50781 15.1787 3.74902 15.3691 4.10449 15.3691C4.37109 15.3691 4.54883 15.2803 4.68848 15.001C4.85352 14.6709 5.12012 14.4932 5.51367 14.4932C5.90723 14.4932 6.19922 14.7598 6.19922 15.1279C6.19922 15.4707 6.03418 15.7246 5.38672 16.2705L3.74902 17.6797C3.5332 17.8574 3.44434 18.0605 3.44434 18.3145C3.44434 18.6572 3.68555 18.8984 4.05371 18.8984ZM10.249 17.1338H27.7812C28.2256 17.1338 28.5684 16.791 28.5684 16.3467C28.5684 15.9023 28.2256 15.5596 27.7812 15.5596H10.249C9.80469 15.5596 9.46191 15.9023 9.46191 16.3467C9.46191 16.791 9.80469 17.1338 10.249 17.1338ZM5.51367 26.7314C6.92285 26.7314 7.77344 26.084 7.77344 25.0684C7.77344 24.3955 7.3291 23.9004 6.44043 23.8242V23.7861C7.11328 23.6592 7.57031 23.2402 7.57031 22.5293C7.57031 21.6279 6.70703 21.1074 5.51367 21.1074C4.56152 21.1074 3.5459 21.5645 3.5459 22.3516C3.5459 22.6689 3.77441 22.8848 4.10449 22.8848C4.3584 22.8848 4.47266 22.7959 4.6377 22.5928C4.9043 22.2627 5.1582 22.1484 5.50098 22.1484C5.93262 22.1484 6.2373 22.3643 6.2373 22.7705C6.2373 23.1387 5.90723 23.3545 5.37402 23.3545H5.18359C4.86621 23.3545 4.66309 23.5322 4.66309 23.8623C4.66309 24.1543 4.86621 24.3447 5.18359 24.3447H5.38672C5.99609 24.3447 6.32617 24.5605 6.32617 24.9795C6.32617 25.373 5.9707 25.6396 5.51367 25.6396C5.06934 25.6396 4.73926 25.4111 4.51074 25.1318C4.37109 24.9795 4.23145 24.8779 4.02832 24.8779C3.66016 24.8779 3.41895 25.0938 3.41895 25.4365C3.41895 26.2744 4.53613 26.7314 5.51367 26.7314ZM10.249 24.7256H27.7812C28.2256 24.7256 28.5684 24.3828 28.5684 23.9385C28.5684 23.4941 28.2256 23.1514 27.7812 23.1514H10.249C9.80469 23.1514 9.46191 23.4941 9.46191 23.9385C9.46191 24.3828 9.80469 24.7256 10.249 24.7256Z" fill="black"/>
</svg>
