<svg width="32" height="32" viewBox="0 0 32 32" fill="none" xmlns="http://www.w3.org/2000/svg">
<path d="M24.6463 6.68137C23.8044 5.24891 22.6013 4.06257 21.1571 3.241C19.7129 2.41942 18.0783 1.9914 16.4168 1.99973H15.5828C13.9231 1.99911 12.2919 2.43023 10.8492 3.25074C9.40657 4.07125 8.20217 5.25292 7.35433 6.67968C6.5065 8.10644 6.04438 9.7292 6.01339 11.3886C5.98239 13.0479 6.38358 14.6868 7.17755 16.1443L7.1795 16.1492L14.2508 28.9607C14.422 29.2747 14.6745 29.5369 14.9819 29.7197C15.2893 29.9025 15.6402 29.9992 15.9979 29.9997C16.3555 30.0002 16.7067 29.9045 17.0146 29.7225C17.3225 29.5406 17.5758 29.2791 17.7479 28.9655L24.8221 16.1443C25.6238 14.6896 26.0296 13.05 25.9987 11.3893C25.9679 9.72867 25.5015 8.10522 24.6463 6.68137ZM23.0682 15.1824L16.0047 27.9988L8.93243 15.1853C8.30501 14.0324 7.98821 12.7362 8.01315 11.4239C8.0381 10.1116 8.40392 8.82829 9.07469 7.70009C9.74547 6.57189 10.6981 5.63753 11.8391 4.98879C12.9802 4.34004 14.2703 3.99919 15.5828 3.99973H16.4168C17.7291 3.99914 19.019 4.33981 20.1598 4.9883C21.3007 5.63679 22.2533 6.5708 22.9241 7.69865C23.5949 8.8265 23.9609 10.1094 23.9862 11.4214C24.0115 12.7335 23.6951 14.0295 23.0682 15.1824Z" fill="#0F0F0F"/>
<path d="M15.9998 7.99973C15.2087 7.99973 14.4353 8.23433 13.7775 8.67385C13.1197 9.11338 12.607 9.73809 12.3043 10.469C12.0015 11.1999 11.9223 12.0042 12.0767 12.7801C12.231 13.556 12.612 14.2687 13.1714 14.8282C13.7308 15.3876 14.4435 15.7685 15.2194 15.9229C15.9954 16.0772 16.7996 15.998 17.5305 15.6952C18.2614 15.3925 18.8862 14.8798 19.3257 14.222C19.7652 13.5642 19.9998 12.7909 19.9998 11.9997C19.9987 10.9392 19.577 9.92239 18.8271 9.17247C18.0772 8.42256 17.0604 8.00079 15.9998 7.99973ZM15.9998 13.9997C15.6042 13.9997 15.2176 13.8824 14.8887 13.6627C14.5598 13.4429 14.3034 13.1306 14.152 12.7651C14.0007 12.3996 13.9611 11.9975 14.0382 11.6096C14.1154 11.2216 14.3059 10.8652 14.5856 10.5855C14.8653 10.3058 15.2217 10.1153 15.6096 10.0382C15.9976 9.96099 16.3997 10.0006 16.7652 10.152C17.1306 10.3033 17.443 10.5597 17.6627 10.8886C17.8825 11.2175 17.9998 11.6042 17.9998 11.9997C17.9991 12.53 17.7882 13.0383 17.4133 13.4132C17.0383 13.7881 16.53 13.999 15.9998 13.9997Z" fill="#0F0F0F"/>
</svg>
