<svg width="32" height="32" viewBox="0 0 32 32" fill="none" xmlns="http://www.w3.org/2000/svg">
<path d="M16.0762 2.08984C17.2949 2.08984 18.082 2.91504 18.1963 4.18457C18.5391 3.81641 19.0215 3.63867 19.542 3.63867C20.8242 3.63867 21.7002 4.50195 21.7002 5.91113V16.7275C21.7002 16.791 21.7383 16.8291 21.8018 16.8291C21.8398 16.8291 21.8906 16.8037 21.916 16.7402L22.9951 14.0488C23.5283 12.7666 24.6582 12.2969 25.75 12.7031C26.9434 13.1475 27.4385 14.3535 26.9307 15.8008L24.6328 22.2754C24.3916 22.9355 24.125 23.5576 23.8203 24.1162L22.8428 23.1387C23.0459 22.7324 23.2363 22.3008 23.4014 21.8438L25.6992 15.3691C25.9531 14.6582 25.7754 14.1123 25.2041 13.8838C24.6582 13.6807 24.1504 13.9854 23.8838 14.6328L22.1953 18.5303C21.9668 19.0762 21.624 19.2666 21.2051 19.2666C20.7227 19.2666 20.3672 18.9111 20.3672 18.3652V6C20.3672 5.35254 19.9863 4.9082 19.377 4.9082C18.7676 4.9082 18.3486 5.35254 18.3486 6V14.9629C18.3486 15.3311 18.0693 15.623 17.7012 15.623C17.333 15.623 17.0664 15.3311 17.0664 14.9629V4.48926C17.0664 3.8418 16.6602 3.37207 16.0762 3.37207C15.4668 3.37207 15.0479 3.8418 15.0479 4.48926V15.3311L13.7529 14.0488V6C13.7529 5.35254 13.334 4.9082 12.7246 4.9082C12.1152 4.9082 11.7471 5.35254 11.7471 6V12.043L10.4521 10.748V9.22461C10.4521 8.57715 10.0332 8.13281 9.42383 8.13281C9.00488 8.13281 8.77637 8.41211 8.75098 8.83105V9.05957L7.63379 7.92969C7.84961 7.24414 8.44629 6.83789 9.18262 6.83789C9.72852 6.83789 10.2363 7.02832 10.5791 7.40918V5.86035C10.5791 4.50195 11.4043 3.63867 12.6357 3.63867C13.1182 3.63867 13.5752 3.81641 13.9053 4.17188C14.0322 2.95312 14.8701 2.08984 16.0762 2.08984ZM24.8232 29.0293L2.39062 6.60938C2.09863 6.33008 2.09863 5.83496 2.39062 5.54297C2.69531 5.23828 3.19043 5.25098 3.46973 5.54297L25.9023 27.9629C26.1943 28.2549 26.1943 28.7246 25.9023 29.0293C25.6104 29.334 25.1152 29.3213 24.8232 29.0293ZM15.7334 29.0547C10.668 29.0547 7.11328 25.7539 7.11328 19.876V13.1221L8.43359 14.4551V19.749C8.43359 24.916 11.3154 27.6836 15.6826 27.6836C17.4473 27.6836 18.9961 27.2139 20.2656 26.2617L21.2559 27.252C19.7705 28.4453 17.917 29.0547 15.7334 29.0547Z" fill="black"/>
</svg>
