<svg width="32" height="32" viewBox="0 0 32 32" fill="none" xmlns="http://www.w3.org/2000/svg">
<path d="M22.2931 19.2934L22 19.5866V10C21.9998 9.79823 21.9386 9.60122 21.8244 9.43487C21.7103 9.26852 21.5484 9.1406 21.3602 9.06792C21.1719 8.99525 20.9661 8.98122 20.7698 9.02767C20.5734 9.07412 20.3957 9.17889 20.26 9.3282L16 14.0239L11.74 9.3281C11.6043 9.17878 11.4266 9.07401 11.2302 9.02756C11.0338 8.98111 10.828 8.99515 10.6398 9.06784C10.4515 9.14053 10.2897 9.26846 10.1755 9.43483C10.0613 9.6012 10.0001 9.79822 10 10V20C10 20.2652 10.1054 20.5196 10.2929 20.7071C10.4804 20.8946 10.7348 21 11 21C11.2652 21 11.5196 20.8946 11.7071 20.7071C11.8946 20.5196 12 20.2652 12 20V12.5912L15.26 16.184C15.3561 16.2832 15.4711 16.362 15.5983 16.4159C15.7255 16.4698 15.8622 16.4975 16.0002 16.4975C16.1383 16.4975 16.275 16.4698 16.4022 16.4159C16.5294 16.362 16.6444 16.2832 16.7405 16.184L20 12.5912V19.5861L19.707 19.2934C19.6147 19.1982 19.5043 19.1223 19.3824 19.0702C19.2605 19.0181 19.1294 18.9907 18.9968 18.9897C18.8642 18.9887 18.7328 19.014 18.6101 19.0643C18.4874 19.1146 18.3759 19.1888 18.2821 19.2825C18.1883 19.3763 18.1142 19.4877 18.0639 19.6104C18.0136 19.7331 17.9882 19.8646 17.9892 19.9972C17.9902 20.1298 18.0176 20.2609 18.0697 20.3828C18.1219 20.5047 18.1977 20.6151 18.2929 20.7074L20.2939 22.7074C20.4814 22.8949 20.7358 23.0002 21.0009 23.0002C21.2661 23.0002 21.5205 22.8949 21.708 22.7074L23.707 20.7074C23.8898 20.5189 23.9912 20.2661 23.9892 20.0035C23.9872 19.7409 23.882 19.4897 23.6963 19.304C23.5106 19.1184 23.2593 19.0132 22.9968 19.0112C22.7342 19.0092 22.4816 19.1106 22.2931 19.2934Z" fill="#0F0F0F"/>
<path d="M23 4H9C7.6744 4.00156 6.40353 4.52885 5.46619 5.46619C4.52885 6.40353 4.00156 7.6744 4 9V23C4.00154 24.3256 4.52881 25.5965 5.46616 26.5338C6.40351 27.4712 7.67439 27.9985 9 28H23C24.3256 27.9984 25.5965 27.4712 26.5338 26.5338C27.4712 25.5965 27.9984 24.3256 28 23V9C27.9984 7.6744 27.4712 6.40353 26.5338 5.46619C25.5965 4.52885 24.3256 4.00156 23 4ZM26 23C25.9991 23.7954 25.6828 24.5579 25.1204 25.1204C24.5579 25.6828 23.7954 25.9991 23 26H9C8.20462 25.9991 7.44206 25.6828 6.87964 25.1204C6.31722 24.5579 6.00087 23.7954 6 23V9C6.00087 8.20462 6.31722 7.44206 6.87964 6.87964C7.44206 6.31722 8.20462 6.00087 9 6H23C23.7954 6.00087 24.5579 6.31722 25.1204 6.87964C25.6828 7.44206 25.9991 8.20462 26 9V23Z" fill="#0F0F0F"/>
</svg>
