<svg width="32" height="32" viewBox="0 0 32 32" fill="none" xmlns="http://www.w3.org/2000/svg">
<path d="M25 10.5C26.933 10.5 28.5 8.933 28.5 7C28.5 5.067 26.933 3.5 25 3.5C23.067 3.5 21.5 5.067 21.5 7C21.5 8.933 23.067 10.5 25 10.5Z" fill="#0F0F0F"/>
<path d="M28.5746 13.8765C28.5418 13.6802 28.4324 13.505 28.2705 13.3894C28.1085 13.2738 27.9073 13.2273 27.711 13.26C27.5147 13.2928 27.3395 13.4022 27.2239 13.5642C27.1083 13.7261 27.0618 13.9273 27.0946 14.1236C27.1979 14.7437 27.2498 15.3713 27.25 16C27.2491 17.9403 26.7466 19.8474 25.7914 21.5362C24.8361 23.225 23.4605 24.6382 21.798 25.6386C20.1355 26.639 18.2427 27.1927 16.3031 27.2458C14.3636 27.2989 12.4432 26.8498 10.7285 25.9419C10.6056 25.8765 10.467 25.8466 10.3282 25.8556C10.1893 25.8646 10.0557 25.9121 9.94236 25.9927C9.09844 26.5879 8.13145 26.9858 7.11297 27.1568C6.0945 27.3278 5.0506 27.2675 4.05856 26.9805C5.43662 26.1146 6.45446 24.7789 6.92376 23.2205C6.96684 23.1055 6.981 22.9817 6.96499 22.8599C6.94898 22.7382 6.9033 22.6222 6.83196 22.5223C5.63506 20.8393 4.92447 18.8593 4.77804 16.7992C4.63161 14.7392 5.055 12.6786 6.00181 10.8432C6.94862 9.0078 8.38233 7.46839 10.1459 6.39364C11.9094 5.31888 13.9347 4.75023 16 4.75C16.6285 4.74977 17.256 4.80188 17.876 4.9058C18.0722 4.93869 18.2735 4.89226 18.4355 4.77674C18.5976 4.66122 18.7071 4.48606 18.74 4.2898C18.7728 4.09354 18.7264 3.89225 18.6109 3.73022C18.4954 3.56819 18.3202 3.45869 18.124 3.4258C16.2958 3.11868 14.4227 3.21358 12.635 3.70389C10.8472 4.1942 9.18779 5.06816 7.77212 6.26494C6.35645 7.46173 5.21854 8.9526 4.43757 10.6338C3.6566 12.315 3.25133 14.1462 3.24996 16C3.24397 18.5104 3.98467 20.9659 5.37786 23.0542C4.98714 24.1975 4.19949 25.1628 3.15786 25.7749C3.00936 25.8687 2.87466 25.9549 2.75546 26.0415C2.58048 26.1686 2.44217 26.3397 2.35455 26.5374C2.26692 26.7351 2.23309 26.9525 2.25646 27.1675C2.27802 27.3857 2.3569 27.5943 2.4851 27.7721C2.61331 27.95 2.78628 28.0908 2.98646 28.1802C3.93359 28.5723 4.95067 28.7673 5.97566 28.7534C7.55223 28.7594 9.09767 28.3147 10.43 27.4717C12.3741 28.4144 14.5258 28.8478 16.6832 28.7313C18.8407 28.6147 20.9332 27.952 22.7644 26.8053C24.5956 25.6587 26.1055 24.0656 27.1525 22.1756C28.1994 20.2856 28.7491 18.1606 28.75 16C28.7495 15.2886 28.6909 14.5784 28.5746 13.8765Z" fill="#0F0F0F"/>
</svg>
