<svg width="32" height="32" viewBox="0 0 32 32" fill="none" xmlns="http://www.w3.org/2000/svg">
<path d="M10.6743 4.14162C13.0192 3.08833 15.6246 2.75374 18.1597 3.17971C18.7041 3.27142 19.0715 3.78753 18.98 4.33205C18.8883 4.87655 18.3722 5.24388 17.8276 5.15236C15.6825 4.79194 13.4779 5.07549 11.4937 5.96682C9.50962 6.8582 7.83351 8.31725 6.67823 10.1602C5.52295 12.0033 4.93995 14.1479 5.00245 16.3223C5.06502 18.4967 5.77045 20.6043 7.0298 22.3779C7.20824 22.6292 7.26085 22.9489 7.17238 23.2442C6.89927 24.1544 6.44831 25.0021 5.8462 25.7373C5.50327 26.156 5.11358 26.5322 4.688 26.8623C5.38712 27.0049 6.10714 27.0362 6.81984 26.9463C7.89132 26.8111 8.91346 26.4127 9.79445 25.7881L9.91359 25.7158C10.2025 25.5665 10.55 25.5663 10.8423 25.7217C12.4283 26.5654 14.1982 27.0055 15.9946 27.0039L16.2944 27C17.791 26.958 19.2649 26.6111 20.6245 25.9795C22.075 25.3056 23.3616 24.323 24.3941 23.1016C25.4265 21.8802 26.181 20.4486 26.604 18.9063C27.027 17.3638 27.1083 15.7472 26.8433 14.1699C26.7518 13.6255 27.1193 13.1094 27.6636 13.0176C28.2081 12.9261 28.7242 13.2935 28.8159 13.8379C29.1291 15.7017 29.0325 17.6119 28.5327 19.4346C28.0329 21.2572 27.1414 22.9492 25.9214 24.3926C24.7013 25.8359 23.1812 26.9967 21.4673 27.793C19.7535 28.5892 17.8863 29.0023 15.9966 29.0039C14.0719 29.0056 12.1737 28.5772 10.439 27.7549C9.41283 28.3774 8.26508 28.7789 7.06984 28.9297C5.67193 29.1059 4.25185 28.9347 2.93605 28.4307C2.91784 28.4237 2.89912 28.4163 2.88136 28.4082C2.64575 28.3016 2.44118 28.1354 2.28859 27.9268C2.13602 27.718 2.03947 27.4733 2.00929 27.2168C1.97912 26.96 2.01664 26.6994 2.11671 26.461L2.20265 26.2871C2.29953 26.1206 2.42851 25.974 2.58156 25.8555L2.72316 25.7637C3.32862 25.4408 3.86453 25.0006 4.29933 24.4697C4.6369 24.0575 4.90713 23.5958 5.10402 23.1026C3.80061 21.1006 3.07234 18.7745 3.00343 16.3799C2.92954 13.8104 3.61872 11.2767 4.9839 9.09865C6.34921 6.92057 8.32945 5.19501 10.6743 4.14162Z" fill="#0F0F0F"/>
<path d="M24.9956 3.00393C27.2047 3.00393 28.9956 4.79483 28.9956 7.00393C28.9956 9.21306 27.2048 11.0039 24.9956 11.0039C22.7867 11.0037 20.9956 9.21294 20.9956 7.00393C20.9957 4.79496 22.7867 3.00413 24.9956 3.00393Z" fill="#0F0F0F"/>
</svg>
