<svg width="32" height="32" viewBox="0 0 32 32" fill="none" xmlns="http://www.w3.org/2000/svg">
<path d="M10.7777 4.37016C13.0776 3.33716 15.6322 3.00895 18.1185 3.4268C18.5267 3.49563 18.8022 3.88184 18.7338 4.29009C18.6652 4.69832 18.2787 4.9735 17.8705 4.90532C15.6765 4.53659 13.4214 4.8268 11.392 5.73833C9.36271 6.64992 7.64878 8.14252 6.46717 10.0274C5.2855 11.9125 4.68931 14.1062 4.7533 16.3301C4.81736 18.5538 5.53869 20.7087 6.82654 22.5225C6.96028 22.711 7.00036 22.9515 6.93397 23.1729C6.67037 24.0514 6.23481 24.8695 5.65369 25.5791C5.20994 26.121 4.68635 26.5902 4.10389 26.9747C4.99388 27.2326 5.92862 27.3108 6.85194 27.1944C7.96422 27.054 9.02532 26.6407 9.93983 25.9922L10.0297 25.9375C10.2463 25.826 10.507 25.8259 10.726 25.9424C12.3481 26.8053 14.1581 27.2556 15.9955 27.254C17.6311 27.2525 19.2475 26.8953 20.7308 26.2061C22.2142 25.5169 23.5294 24.5119 24.5853 23.2627C25.6412 22.0135 26.4125 20.5492 26.8451 18.9717C27.2776 17.3943 27.3622 15.741 27.0912 14.128C27.0228 13.7196 27.298 13.3333 27.7064 13.2647C28.1147 13.1965 28.5011 13.4717 28.5697 13.8799C28.8768 15.7078 28.7824 17.5807 28.2924 19.3682C27.8022 21.1557 26.9283 22.8159 25.7318 24.2315C24.5352 25.6471 23.0436 26.7854 21.3627 27.5665C19.6819 28.3473 17.8507 28.7523 15.9974 28.754C14.0645 28.7557 12.1584 28.3155 10.4242 27.4708C9.39936 28.1153 8.24425 28.5296 7.03944 28.6817C5.68228 28.8529 4.30321 28.6866 3.02576 28.1973C3.01239 28.1922 2.99878 28.1866 2.98572 28.1807C2.78931 28.0919 2.61882 27.9532 2.49158 27.7793C2.36432 27.6053 2.28434 27.4014 2.25916 27.1875C2.23401 26.9735 2.26457 26.7564 2.34803 26.5577L2.41932 26.4131C2.50012 26.2742 2.608 26.1516 2.73572 26.0528C2.76886 26.0272 2.80425 26.0041 2.84119 25.9844C3.47573 25.646 4.03786 25.1853 4.49354 24.629C4.87578 24.1622 5.17586 23.6345 5.38514 23.0704C4.06332 21.0834 3.32213 18.7638 3.2533 16.3731C3.18078 13.8529 3.85759 11.3678 5.19666 9.23149C6.5358 7.09524 8.47781 5.40327 10.7777 4.37016Z" fill="#0F0F0F"/>
<path d="M24.9965 3.25395C27.0673 3.25416 28.7464 4.93305 28.7465 7.00395C28.7465 9.07489 27.0674 10.7537 24.9965 10.754C22.9254 10.754 21.2465 9.07502 21.2465 7.00395C21.2465 4.93292 22.9254 3.25395 24.9965 3.25395Z" fill="#0F0F0F"/>
</svg>
