<svg width="32" height="32" viewBox="0 0 32 32" fill="none" xmlns="http://www.w3.org/2000/svg">
<path d="M11.1152 9.51367C11.2134 9.53691 11.3023 9.58943 11.3701 9.66406L16 14.7676L20.6299 9.66406C20.6977 9.58943 20.7866 9.53691 20.8848 9.51367C20.9828 9.49047 21.0856 9.49794 21.1797 9.53418C21.2738 9.57052 21.355 9.6346 21.4121 9.71777C21.4691 9.80091 21.4999 9.89918 21.5 10V20.7939L22.6465 19.6465C22.7407 19.5555 22.867 19.5057 22.998 19.5068C23.1291 19.508 23.255 19.5606 23.3477 19.6533C23.4401 19.7459 23.4929 19.8711 23.4941 20.002C23.4953 20.133 23.4445 20.2592 23.3535 20.3535L21.3545 22.3535C21.2607 22.4473 21.1336 22.5 21.001 22.5C20.8684 22.5 20.7412 22.4473 20.6475 22.3535L18.6465 20.3535C18.5555 20.2592 18.5047 20.133 18.5059 20.002C18.5071 19.8711 18.5599 19.7459 18.6523 19.6533C18.745 19.5606 18.8709 19.508 19.002 19.5068C19.1329 19.5057 19.2593 19.5556 19.3535 19.6465L20.5 20.793V11.2949L16.3701 15.8477C16.3221 15.8971 16.2646 15.937 16.2012 15.9639C16.1376 15.9908 16.069 16.0049 16 16.0049C15.931 16.0049 15.8624 15.9908 15.7988 15.9639C15.7354 15.937 15.6779 15.8971 15.6299 15.8477L11.5 11.2949V20C11.5 20.1326 11.4473 20.2597 11.3535 20.3535C11.2597 20.4473 11.1326 20.5 11 20.5C10.8674 20.5 10.7403 20.4473 10.6465 20.3535C10.5527 20.2597 10.5 20.1326 10.5 20V10C10.5001 9.89918 10.5309 9.80093 10.5879 9.71777C10.645 9.63458 10.7262 9.57053 10.8203 9.53418C10.9144 9.49793 11.0171 9.49047 11.1152 9.51367Z" fill="#0F0F0F"/>
<path d="M23 4.5C24.1931 4.50132 25.337 4.97571 26.1807 5.81934C27.0243 6.66296 27.4987 7.80693 27.5 9V23C27.4987 24.1931 27.0243 25.337 26.1807 26.1807C25.337 27.0243 24.1931 27.4987 23 27.5H9C7.80692 27.4987 6.66297 27.0243 5.81934 26.1807C4.9757 25.337 4.5013 24.1931 4.5 23V9C4.5013 7.80692 4.9757 6.66297 5.81934 5.81934C6.66297 4.9757 7.80692 4.5013 9 4.5H23ZM9 5.5C8.07208 5.50111 7.1825 5.87023 6.52637 6.52637C5.87023 7.1825 5.50111 8.07208 5.5 9V23C5.50111 23.9279 5.87023 24.8175 6.52637 25.4736C7.1825 26.1298 8.07208 26.4989 9 26.5H23C23.9279 26.4989 24.8175 26.1298 25.4736 25.4736C26.1298 24.8175 26.4989 23.9279 26.5 23V9C26.4989 8.07208 26.1298 7.1825 25.4736 6.52637C24.8175 5.87023 23.9279 5.50111 23 5.5H9Z" fill="#0F0F0F"/>
</svg>
