<svg width="32" height="32" viewBox="0 0 32 32" fill="none" xmlns="http://www.w3.org/2000/svg">
<path d="M10.7295 9.2998C10.8707 9.24528 11.0256 9.23466 11.1729 9.26953C11.3202 9.30449 11.4539 9.38387 11.5557 9.49609L16 14.3955L20.4443 9.49609C20.5461 9.38386 20.6798 9.30549 20.8271 9.27051C20.9745 9.23559 21.1293 9.24529 21.2705 9.2998C21.4115 9.3543 21.5326 9.45058 21.6182 9.5752C21.7038 9.70013 21.75 9.84851 21.75 10V20.1904L22.4697 19.4697C22.6109 19.3316 22.8015 19.2548 22.999 19.2559C23.1964 19.257 23.3858 19.336 23.5254 19.4756C23.6649 19.6152 23.7431 19.8045 23.7441 20.002C23.7452 20.1994 23.6684 20.3891 23.5303 20.5303L21.5312 22.5303C21.3906 22.6709 21.1999 22.75 21.001 22.75C20.8022 22.7499 20.6113 22.6708 20.4707 22.5303L18.4697 20.5303C18.3972 20.4614 18.3389 20.3787 18.2988 20.2871C18.2587 20.1954 18.2377 20.0961 18.2363 19.9961C18.2351 19.8961 18.2534 19.7967 18.291 19.7041C18.3287 19.6113 18.3853 19.5269 18.4561 19.4561C18.5267 19.3855 18.6107 19.3297 18.7031 19.292C18.7959 19.2542 18.896 19.2351 18.9961 19.2363C19.0961 19.2376 19.1945 19.2598 19.2861 19.2998C19.3779 19.3399 19.4613 19.3971 19.5303 19.4697L20.25 20.1895V11.9424L16.5557 16.0156C16.4834 16.0898 16.3971 16.1492 16.3018 16.1895C16.2063 16.2297 16.1036 16.25 16 16.25C15.8964 16.25 15.7937 16.2297 15.6982 16.1895C15.6029 16.1492 15.5166 16.0898 15.4443 16.0156L11.75 11.9424V20C11.75 20.1989 11.6709 20.3896 11.5303 20.5303C11.3896 20.6709 11.1989 20.75 11 20.75C10.8011 20.75 10.6104 20.6709 10.4697 20.5303C10.3291 20.3896 10.25 20.1989 10.25 20V10C10.2499 9.84852 10.2962 9.70014 10.3818 9.5752C10.4674 9.45056 10.5885 9.35431 10.7295 9.2998Z" fill="#0F0F0F"/>
<path d="M23 4.25C24.2593 4.25146 25.4669 4.7521 26.3574 5.64258C27.2479 6.53306 27.7485 7.74067 27.75 9V23C27.7486 24.2593 27.2479 25.4669 26.3574 26.3574C25.4669 27.2479 24.2593 27.7486 23 27.75H9C7.74065 27.7486 6.53307 27.2479 5.64258 26.3574C4.75208 25.4669 4.2514 24.2593 4.25 23V9C4.25143 7.74066 4.75209 6.53307 5.64258 5.64258C6.53307 4.75209 7.74066 4.25143 9 4.25H23ZM9 5.75C8.13836 5.75101 7.3124 6.09385 6.70312 6.70312C6.09385 7.3124 5.75101 8.13836 5.75 9V23C5.75101 23.8616 6.09385 24.6876 6.70312 25.2969C7.3124 25.9062 8.13836 26.249 9 26.25H23C23.8616 26.249 24.6876 25.9062 25.2969 25.2969C25.9062 24.6876 26.249 23.8616 26.25 23V9C26.249 8.13836 25.9062 7.3124 25.2969 6.70312C24.6876 6.09385 23.8616 5.75101 23 5.75H9Z" fill="#0F0F0F"/>
</svg>
