<svg width="32" height="32" viewBox="0 0 32 32" fill="none" xmlns="http://www.w3.org/2000/svg">
<path d="M16.5584 2.92674C17.2467 2.69735 18.0829 2.57186 18.993 2.75389C19.9104 2.93747 20.8333 3.41947 21.7068 4.29295C22.5804 5.16661 23.0624 6.09027 23.2459 7.00779C23.3705 7.63114 23.3482 8.21904 23.2498 8.749C23.7802 8.65042 24.3692 8.62912 24.993 8.75388C25.9103 8.93747 26.8333 9.41947 27.7068 10.2929C28.5804 11.1666 29.0624 12.0903 29.2459 13.0078C29.4277 13.9177 29.3024 14.7532 29.073 15.4414C28.845 16.1255 28.5081 16.6842 28.2351 17.0664C28.0974 17.2591 27.9722 17.4125 27.8787 17.5205C27.8318 17.5746 27.7928 17.6181 27.7635 17.6494C27.7488 17.665 27.7358 17.6777 27.7264 17.6875L27.7098 17.7041L27.7088 17.706L27.7078 17.707C27.7074 17.7073 27.699 17.6992 26.9998 17L27.7078 17.707L19.4139 26L21.7068 28.2929C22.097 28.6834 22.097 29.3165 21.7068 29.707C21.3164 30.0974 20.6833 30.0972 20.2928 29.707L17.2928 26.707C16.9024 26.3165 16.9023 25.6834 17.2928 25.2929L26.3025 16.2832C26.3157 16.2691 26.3379 16.2445 26.367 16.2109C26.4257 16.1432 26.5117 16.0383 26.6082 15.9033C26.8039 15.6293 27.0297 15.2501 27.1766 14.8095C27.3221 14.3729 27.3841 13.8953 27.285 13.3994C27.1872 12.9108 26.9188 12.3331 26.2928 11.707C25.6667 11.081 25.0889 10.8126 24.6004 10.7148C24.1046 10.6157 23.6277 10.6787 23.1912 10.8242C22.7505 10.9711 22.3706 11.1968 22.0965 11.3926C21.9618 11.4888 21.8576 11.5741 21.7898 11.6328C21.7564 11.6618 21.7317 11.684 21.7176 11.6972C21.7147 11.6999 21.7119 11.7022 21.7098 11.7041L21.7088 11.706H21.7068L21.7059 11.708L21.7039 11.7109L14.7069 18.707C14.4871 18.9268 14.1901 19.0227 13.9031 18.9951C13.8396 18.989 13.7763 18.9772 13.7147 18.959C13.5602 18.9132 13.4148 18.8289 13.2928 18.707C12.9024 18.3165 12.9023 17.6834 13.2928 17.2929L20.3025 10.2832C20.3157 10.2691 20.3379 10.2444 20.367 10.2109C20.4257 10.1432 20.5118 10.0383 20.6082 9.90329C20.8039 9.62928 21.0297 9.25008 21.1766 8.80954C21.3221 8.37293 21.3841 7.89534 21.285 7.39939C21.1872 6.91084 20.9188 6.33313 20.2928 5.70701C19.6667 5.08101 19.0889 4.8126 18.6004 4.71482C18.1046 4.61572 17.6277 4.67875 17.1912 4.8242C16.7505 4.97111 16.3706 5.1968 16.0965 5.39256C15.9618 5.48877 15.8576 5.57413 15.7899 5.63279C15.7564 5.66176 15.7317 5.68402 15.7176 5.69724C15.7125 5.70198 15.7082 5.70572 15.7059 5.70798L15.7039 5.71091L5.70687 15.707C5.31643 16.0974 4.68335 16.0973 4.29281 15.707C3.90245 15.3165 3.90234 14.6834 4.29281 14.2929L14.2928 4.29295L14.6678 4.66795C14.3376 4.33761 14.2972 4.29789 14.2928 4.29295L14.3006 4.28513C14.3039 4.28188 14.3086 4.27799 14.3133 4.27342C14.323 4.26401 14.3359 4.25179 14.3514 4.23728C14.3826 4.20808 14.4255 4.16872 14.4793 4.12205C14.5873 4.02843 14.7414 3.90245 14.9344 3.76463C15.3165 3.49173 15.8745 3.15473 16.5584 2.92674ZM17.2918 7.29294C17.6823 6.90259 18.3154 6.90268 18.7059 7.29294C19.0964 7.68344 19.0963 8.31647 18.7059 8.70701L11.7088 15.7041L11.7078 15.706C11.7056 15.7084 11.7009 15.7126 11.6961 15.7177C11.6829 15.7318 11.6607 15.7565 11.6317 15.79C11.573 15.8577 11.4877 15.9619 11.3914 16.0966C11.1957 16.3707 10.97 16.7507 10.8231 17.1914C10.6776 17.6279 10.6146 18.1047 10.7137 18.6006C10.8114 19.0892 11.0798 19.6666 11.7059 20.2929C12.3321 20.9193 12.9097 21.1873 13.3983 21.2851C13.8941 21.3843 14.3709 21.3222 14.8074 21.1767C15.2482 21.0298 15.6281 20.8042 15.9022 20.6084C16.0372 20.5119 16.142 20.4259 16.2098 20.3672C16.2431 20.3382 16.267 20.3158 16.2811 20.3027C16.288 20.2962 16.293 20.2917 16.2947 20.29L23.2918 13.2929C23.6822 12.9026 24.3153 12.9027 24.7059 13.2929C25.0963 13.6834 25.0963 14.3165 24.7059 14.707L17.7059 21.707L16.9988 21C17.6727 21.6737 17.7047 21.7051 17.7059 21.707L17.7049 21.7089L17.7029 21.7099L17.6863 21.7265C17.6767 21.7359 17.6637 21.7482 17.6483 21.7627C17.6169 21.7919 17.5734 21.832 17.5193 21.8789C17.4114 21.9724 17.258 22.0976 17.0652 22.2353C16.6831 22.5083 16.1244 22.8461 15.4402 23.0742C14.752 23.3036 13.9158 23.4281 13.0057 23.2461C12.0882 23.0624 11.1654 22.5807 10.2918 21.707C9.41836 20.8333 8.93633 19.9106 8.75276 18.9931C8.57077 18.083 8.69618 17.2468 8.92561 16.5586C9.15362 15.8746 9.49058 15.3166 9.7635 14.9345C9.90135 14.7416 10.0273 14.5875 10.1209 14.4795C10.1676 14.4256 10.2069 14.3828 10.2362 14.3515C10.2506 14.336 10.2629 14.3231 10.2723 14.3134C10.2768 14.3087 10.2808 14.304 10.284 14.3008L10.2908 14.2939C10.2946 14.2972 10.3305 14.3317 10.6737 14.6748L10.2918 14.2929L17.2918 7.29294Z" fill="black"/>
</svg>
