<svg width="32" height="32" viewBox="0 0 32 32" fill="none" xmlns="http://www.w3.org/2000/svg">
<path d="M7.00012 21C6.86879 21 6.73874 21.0258 6.6174 21.076C6.49606 21.1263 6.3858 21.1999 6.29294 21.2928C6.20007 21.3857 6.12641 21.4959 6.07617 21.6173C6.02593 21.7386 6.00009 21.8687 6.00012 22V26C6.00012 26.2652 6.10548 26.5196 6.29302 26.7071C6.48055 26.8946 6.73491 27 7.00012 27C7.26534 27 7.51969 26.8946 7.70723 26.7071C7.89477 26.5196 8.00012 26.2652 8.00012 26V22C8.00016 21.8687 7.97431 21.7386 7.92407 21.6173C7.87383 21.4959 7.80017 21.3857 7.70731 21.2928C7.61444 21.2 7.50419 21.1263 7.38285 21.0761C7.26151 21.0258 7.13145 21 7.00012 21Z" fill="#0F0F0F"/>
<path d="M16 27C16.5523 27 17 26.5522 17 26C17 25.4477 16.5523 25 16 25C15.4477 25 15 25.4477 15 26C15 26.5522 15.4477 27 16 27Z" fill="#0F0F0F"/>
<path d="M25 27C25.5523 27 26 26.5522 26 26C26 25.4477 25.5523 25 25 25C24.4477 25 24 25.4477 24 26C24 26.5522 24.4477 27 25 27Z" fill="#0F0F0F"/>
</svg>
