<svg width="50" height="32" viewBox="0 0 50 32" fill="none" xmlns="http://www.w3.org/2000/svg">
<path d="M24.9873 16.3975C22.0293 16.3975 19.6807 13.8076 19.6553 10.5703C19.6426 7.42188 22.0547 4.85742 24.9873 4.85742C27.9453 4.85742 30.332 7.38379 30.332 10.5576C30.332 13.7949 27.958 16.3975 24.9873 16.3975ZM24.9873 14.9121C27.0693 14.9121 28.7578 12.9951 28.7578 10.5576C28.7578 8.19629 27.0693 6.34277 24.9873 6.34277C22.918 6.34277 21.2168 8.20898 21.2295 10.5703C21.2295 13.0078 22.9307 14.9121 24.9873 14.9121ZM10.3623 16.6768C7.79785 16.6768 5.75391 14.417 5.72852 11.5732C5.71582 8.84375 7.82324 6.57129 10.3623 6.57129C12.9395 6.57129 15.0088 8.80566 15.0088 11.5605C15.0088 14.417 12.9521 16.6768 10.3623 16.6768ZM39.6123 16.6768C37.0352 16.6768 34.9785 14.417 34.9785 11.5605C34.9785 8.80566 37.0479 6.57129 39.6123 6.57129C42.1641 6.57129 44.2715 8.84375 44.2461 11.5732C44.2334 14.417 42.1895 16.6768 39.6123 16.6768ZM10.3623 15.2041C12.127 15.2041 13.5488 13.6172 13.5488 11.5605C13.5488 9.60547 12.127 8.04395 10.3623 8.04395C8.62305 8.04395 7.20117 9.63086 7.20117 11.5732C7.20117 13.6172 8.62305 15.2041 10.3623 15.2041ZM39.6123 15.2041C41.3643 15.2041 42.7861 13.6172 42.7861 11.5732C42.7861 9.63086 41.3516 8.04395 39.6123 8.04395C37.8604 8.04395 36.4385 9.60547 36.4385 11.5605C36.4385 13.6172 37.8604 15.2041 39.6123 15.2041ZM3.15137 28.1533C1.60254 28.1533 0.84082 27.5059 0.84082 26.1855C0.84082 22.1611 4.90332 18.2129 10.3496 18.2129C12.584 18.2129 14.6533 18.8477 16.3418 20.0664C15.9102 20.3838 15.542 20.7266 15.2246 21.1074C13.8789 20.168 12.2031 19.6729 10.3496 19.6729C6.00781 19.6729 2.31348 22.7197 2.31348 26.1094C2.31348 26.5283 2.49121 26.6934 2.94824 26.6934H12.749C12.7363 27.3027 13.1299 27.8867 13.6123 28.1533H3.15137ZM46.8359 28.1533H36.375C36.8574 27.8867 37.251 27.3027 37.2383 26.6934H47.0391C47.4961 26.6934 47.6738 26.5283 47.6738 26.1094C47.6738 22.7197 43.9668 19.6729 39.6377 19.6729C37.7842 19.6729 36.1084 20.168 34.7627 21.1074C34.4453 20.7266 34.0771 20.3838 33.6455 20.0664C35.334 18.8477 37.4033 18.2129 39.6377 18.2129C45.084 18.2129 49.1465 22.1611 49.1465 26.1855C49.1465 27.5059 48.3721 28.1533 46.8359 28.1533ZM16.7861 28.1533C14.9199 28.1533 14.0439 27.5566 14.0439 26.2744C14.0439 22.9609 18.208 18.251 24.9746 18.251C31.7539 18.251 35.918 22.9609 35.918 26.2744C35.918 27.5566 35.0293 28.1533 33.1758 28.1533H16.7861ZM16.3799 26.6553H33.5693C34.1533 26.6553 34.3438 26.5156 34.3438 26.1094C34.3438 23.71 30.9414 19.7363 24.9746 19.7363C19.0078 19.7363 15.6055 23.71 15.6055 26.1094C15.6055 26.5156 15.8086 26.6553 16.3799 26.6553Z" fill="black"/>
</svg>
