<svg width="32" height="32" viewBox="0 0 32 32" fill="none" xmlns="http://www.w3.org/2000/svg">
<path d="M13.1704 1.77789C15.9829 1.21845 18.899 1.50586 21.5483 2.60308C24.1977 3.70048 26.4629 5.55963 28.0561 7.9439C29.6492 10.3282 30.4994 13.132 30.4995 15.9996C30.4995 18.1505 30.0814 19.8252 29.1118 20.9693C28.1007 22.1623 26.7407 22.4928 25.5317 22.4986L25.5327 22.4996C25.5237 22.4997 25.5143 22.4984 25.5053 22.4986C25.5035 22.4987 25.5013 22.4996 25.4995 22.4996C24.2235 22.5192 22.9885 22.0432 22.0561 21.1705C21.9423 21.0639 21.8343 20.9523 21.7319 20.8365C20.3561 22.466 18.2991 23.5025 15.9995 23.5025C11.8577 23.5023 8.49971 20.1443 8.49948 16.0025C8.49948 11.8605 11.8575 8.50273 15.9995 8.5025C17.6876 8.5025 19.2461 9.05935 20.4995 10.0005C20.4997 9.17249 21.1714 8.49983 21.9995 8.49957C22.8278 8.49957 23.4992 9.17135 23.4995 9.99957V17.6685C23.5241 18.1676 23.7412 18.6383 24.1059 18.98C24.4737 19.3242 24.9626 19.5107 25.4663 19.4996C25.4772 19.4993 25.4886 19.4996 25.4995 19.4996C26.1974 19.4996 26.5725 19.3263 26.8237 19.0298C27.1253 18.6738 27.4995 17.8483 27.4995 15.9996C27.4994 13.7253 26.8245 11.5019 25.561 9.6109C24.2974 7.71997 22.501 6.2449 20.3999 5.37457C18.2989 4.50459 15.9866 4.27674 13.7563 4.72027C11.5257 5.16404 9.47589 6.25949 7.86764 7.86773C6.25941 9.47597 5.16395 11.5258 4.72018 13.7564C4.27663 15.9867 4.50449 18.299 5.37448 20.4C6.2448 22.5011 7.71987 24.2975 9.61081 25.5611C11.5018 26.8246 13.7252 27.4995 15.9995 27.4996H16.0034C18.1961 27.5056 20.3442 26.8759 22.186 25.6861C22.8816 25.2368 23.8095 25.4362 24.2592 26.1314C24.7087 26.8272 24.5096 27.756 23.8139 28.2056C21.4858 29.7096 18.7711 30.5054 15.9995 30.4986H15.9975L15.9956 30.4996C13.1293 30.4987 10.3271 29.6486 7.94382 28.0562C5.55956 26.463 3.7004 24.1978 2.603 21.5484C1.50575 18.899 1.21836 15.9829 1.7778 13.1705C2.33736 10.3579 3.71885 7.77435 5.74655 5.74664C7.77426 3.71893 10.3578 2.33745 13.1704 1.77789ZM15.9995 11.5025C13.5144 11.5027 11.4995 13.5174 11.4995 16.0025C11.4997 18.4874 13.5145 20.5023 15.9995 20.5025C18.4846 20.5025 20.4992 18.4876 20.4995 16.0025C20.4995 13.5172 18.4848 11.5025 15.9995 11.5025Z" fill="#0F0F0F"/>
</svg>
