<svg width="32" height="32" viewBox="0 0 32 32" fill="none" xmlns="http://www.w3.org/2000/svg">
<path d="M13.3179 2.51513C15.985 1.98468 18.7499 2.25673 21.2623 3.29735C23.7745 4.33809 25.9224 6.1008 27.4332 8.36181C28.9437 10.6228 29.7505 13.2813 29.7505 16.0005C29.7505 18.0757 29.3431 19.5389 28.5406 20.4858C27.7168 21.4575 26.5983 21.7467 25.5162 21.7495L25.5171 21.7505C25.5124 21.7506 25.5072 21.7495 25.5025 21.7495L25.5005 21.7505C24.4148 21.7703 23.3632 21.3658 22.5699 20.6235C22.2345 20.3096 21.9568 19.9448 21.7437 19.5474C20.5543 21.4702 18.4276 22.7523 16.0005 22.7524C12.2727 22.7524 9.25073 19.7302 9.25053 16.0024C9.25053 12.2745 12.2726 9.25243 16.0005 9.25243C18.1215 9.25258 20.0132 10.2312 21.2505 11.7612V10.0005C21.2506 9.5863 21.5864 9.2505 22.0005 9.25048C22.4145 9.25073 22.7505 9.58644 22.7505 10.0005V17.7016C22.7838 18.3971 23.0868 19.0529 23.5953 19.5288C24.1062 20.0067 24.7844 20.2661 25.4839 20.2505C25.4893 20.2504 25.4952 20.2505 25.5005 20.2505C26.328 20.2504 26.9537 20.0382 27.397 19.5151C27.8654 18.9621 28.2505 17.9241 28.2505 16.0005C28.2505 13.5779 27.5319 11.2092 26.1861 9.19481C24.8401 7.18048 22.9262 5.6103 20.688 4.6831C18.4499 3.7561 15.9869 3.51334 13.6109 3.98583C11.2346 4.4585 9.05163 5.62516 7.33842 7.33837C5.62523 9.05157 4.45855 11.2346 3.98589 13.6108C3.51338 15.9868 3.75614 18.4498 4.68315 20.688C5.61035 22.9261 7.18053 24.8401 9.19487 26.186C11.2092 27.5318 13.578 28.2505 16.0005 28.2505H16.0025C18.34 28.2568 20.6298 27.5852 22.5933 26.3169C22.9412 26.0922 23.4057 26.1917 23.6304 26.5395C23.8547 26.8873 23.7554 27.352 23.4078 27.5767C21.201 29.0023 18.6276 29.7562 16.0005 29.7495L15.9986 29.7505C13.2801 29.7501 10.6223 28.9433 8.36186 27.4331C6.10087 25.9223 4.33815 23.7744 3.29741 21.2622C2.25677 18.7498 1.98474 15.985 2.51518 13.3179C3.04576 10.6507 4.35497 8.20073 6.27788 6.27782C8.2008 4.3549 10.6507 3.0457 13.3179 2.51513ZM16.0005 10.7524C13.101 10.7524 10.7505 13.1029 10.7505 16.0024C10.7507 18.9018 13.1012 21.2524 16.0005 21.2524C18.8997 21.2522 21.2503 18.9016 21.2505 16.0024C21.2505 13.1031 18.8998 10.7527 16.0005 10.7524Z" fill="#0F0F0F"/>
</svg>
