<svg width="32" height="32" viewBox="0 0 32 32" fill="none" xmlns="http://www.w3.org/2000/svg">
<path d="M11 2.25C7.82436 2.25 5.25 4.82436 5.25 8V18C5.25 20.9336 7.44694 23.3541 10.2853 23.706C10.4079 24.934 10.8637 26.3034 11.8786 27.4376C12.1401 27.7298 12.4348 28.0022 12.7649 28.25H3C2.58579 28.25 2.25 28.5858 2.25 29C2.25 29.4142 2.58579 29.75 3 29.75H19C19.4142 29.75 19.75 29.4142 19.75 29C19.75 28.5858 19.4142 28.25 19 28.25H18C15.4194 28.25 13.8898 27.4358 12.9964 26.4374C12.2702 25.6257 11.9095 24.6307 11.7932 23.6957C14.5935 23.3093 16.75 20.9065 16.75 18V8C16.75 4.82436 14.1756 2.25 11 2.25ZM15.25 11.25H6.75V8C6.75 5.65279 8.65279 3.75 11 3.75C13.3472 3.75 15.25 5.65279 15.25 8V11.25ZM6.75 12.75H15.25V15H6.75V12.75Z" fill="#0F0F0F"/>
<path d="M25.25 9C25.25 8.58579 24.9142 8.25 24.5 8.25C24.0858 8.25 23.75 8.58579 23.75 9V12.75H20C19.5858 12.75 19.25 13.0858 19.25 13.5C19.25 13.9142 19.5858 14.25 20 14.25H23.75V18C23.75 18.4142 24.0858 18.75 24.5 18.75C24.9142 18.75 25.25 18.4142 25.25 18V14.25H29C29.4142 14.25 29.75 13.9142 29.75 13.5C29.75 13.0858 29.4142 12.75 29 12.75H25.25V9Z" fill="#0F0F0F"/>
</svg>
