<svg width="32" height="32" viewBox="0 0 32 32" fill="none" xmlns="http://www.w3.org/2000/svg">
<path d="M24.0023 28.2497H22.0233C20.7413 28.2801 19.4946 27.8276 18.5304 26.9821C17.5663 26.1366 16.9549 24.9597 16.8175 23.6847C18.1853 23.4874 19.4365 22.8044 20.3421 21.7605C21.2478 20.7167 21.7475 19.3817 21.7499 17.9997V7.99973C21.7499 7.24463 21.6012 6.49692 21.3122 5.7993C21.0232 5.10168 20.5997 4.4678 20.0657 3.93387C19.5318 3.39993 18.8979 2.97639 18.2003 2.68742C17.5027 2.39846 16.755 2.24973 15.9999 2.24973C15.2448 2.24973 14.4971 2.39846 13.7994 2.68742C13.1018 2.97639 12.468 3.39993 11.934 3.93387C11.4001 4.4678 10.9765 5.10168 10.6876 5.7993C10.3986 6.49692 10.2499 7.24463 10.2499 7.99973V17.9997C10.2521 19.4001 10.7648 20.7517 11.692 21.8012C12.6193 22.8506 13.8973 23.526 15.2868 23.7007C15.3703 24.5829 15.6287 25.4395 16.0471 26.2206C16.4654 27.0016 17.0353 27.6915 17.7234 28.2497H8.00232C7.80341 28.2497 7.61264 28.3287 7.47199 28.4694C7.33134 28.6101 7.25232 28.8008 7.25232 28.9997C7.25232 29.1986 7.33134 29.3894 7.47199 29.5301C7.61264 29.6707 7.80341 29.7497 8.00232 29.7497H24.0023C24.2012 29.7497 24.392 29.6707 24.5326 29.5301C24.6733 29.3894 24.7523 29.1986 24.7523 28.9997C24.7523 28.8008 24.6733 28.6101 24.5326 28.4694C24.392 28.3287 24.2012 28.2497 24.0023 28.2497ZM11.7499 17.9997V7.99973C11.7499 7.44161 11.8598 6.88896 12.0734 6.37332C12.287 5.85769 12.6 5.38917 12.9947 4.99453C13.3893 4.59988 13.8578 4.28682 14.3735 4.07324C14.8891 3.85966 15.4418 3.74973 15.9999 3.74973C16.558 3.74973 17.1107 3.85966 17.6263 4.07324C18.1419 4.28682 18.6104 4.59988 19.0051 4.99453C19.3997 5.38917 19.7128 5.85769 19.9264 6.37332C20.1399 6.88896 20.2499 7.44161 20.2499 7.99973V17.9997C20.2499 18.5578 20.1399 19.1105 19.9264 19.6261C19.7128 20.1418 19.3997 20.6103 19.0051 21.0049C18.6104 21.3996 18.1419 21.7126 17.6263 21.9262C17.1107 22.1398 16.558 22.2497 15.9999 22.2497C15.4418 22.2497 14.8891 22.1398 14.3735 21.9262C13.8578 21.7126 13.3893 21.3996 12.9947 21.0049C12.6 20.6103 12.287 20.1418 12.0734 19.6261C11.8598 19.1105 11.7499 18.5578 11.7499 17.9997Z" fill="#0F0F0F"/>
</svg>
