<svg width="32" height="32" viewBox="0 0 32 32" fill="none" xmlns="http://www.w3.org/2000/svg">
<path d="M24.0024 28.2497H22.0234C20.7413 28.2801 19.4947 27.8276 18.5305 26.9821C17.5663 26.1366 16.9549 24.9597 16.8176 23.6847C18.1854 23.4874 19.4365 22.8044 20.3422 21.7605C21.2479 20.7167 21.7476 19.3817 21.7499 17.9997V7.99973C21.7499 7.24463 21.6012 6.49692 21.3122 5.7993C21.0233 5.10168 20.5997 4.4678 20.0658 3.93387C19.5319 3.39993 18.898 2.97639 18.2004 2.68742C17.5027 2.39846 16.755 2.24973 15.9999 2.24973C15.2448 2.24973 14.4971 2.39846 13.7995 2.68742C13.1019 2.97639 12.468 3.39993 11.9341 3.93387C11.4001 4.4678 10.9766 5.10168 10.6876 5.7993C10.3987 6.49692 10.2499 7.24463 10.2499 7.99973V17.9997C10.2521 19.4001 10.7649 20.7517 11.6921 21.8012C12.6193 22.8506 13.8974 23.526 15.2869 23.7007C15.3703 24.5829 15.6288 25.4395 16.0471 26.2206C16.4655 27.0016 17.0354 27.6915 17.7234 28.2497H8.00238C7.80347 28.2497 7.6127 28.3287 7.47205 28.4694C7.3314 28.6101 7.25238 28.8008 7.25238 28.9997C7.25238 29.1986 7.3314 29.3894 7.47205 29.5301C7.6127 29.6707 7.80347 29.7497 8.00238 29.7497H24.0024C24.2013 29.7497 24.3921 29.6707 24.5327 29.5301C24.6734 29.3894 24.7524 29.1986 24.7524 28.9997C24.7524 28.8008 24.6734 28.6101 24.5327 28.4694C24.3921 28.3287 24.2013 28.2497 24.0024 28.2497ZM11.7499 17.9997V7.99973C11.7499 7.44161 11.8599 6.88896 12.0735 6.37332C12.287 5.85769 12.6001 5.38917 12.9947 4.99453C13.3894 4.59988 13.8579 4.28682 14.3735 4.07324C14.8892 3.85966 15.4418 3.74973 15.9999 3.74973C16.5581 3.74973 17.1107 3.85966 17.6263 4.07324C18.142 4.28682 18.6105 4.59988 19.0051 4.99453C19.3998 5.38917 19.7128 5.85769 19.9264 6.37332C20.14 6.88896 20.2499 7.44161 20.2499 7.99973V17.9997C20.2499 18.5578 20.14 19.1105 19.9264 19.6261C19.7128 20.1418 19.3998 20.6103 19.0051 21.0049C18.6105 21.3996 18.142 21.7126 17.6263 21.9262C17.1107 22.1398 16.5581 22.2497 15.9999 22.2497C15.4418 22.2497 14.8892 22.1398 14.3735 21.9262C13.8579 21.7126 13.3894 21.3996 12.9947 21.0049C12.6001 20.6103 12.287 20.1418 12.0735 19.6261C11.8599 19.1105 11.7499 18.5578 11.7499 17.9997Z" fill="#0F0F0F"/>
</svg>
