<svg width="32" height="32" viewBox="0 0 32 32" fill="none" xmlns="http://www.w3.org/2000/svg">
<path d="M11 7C11 4.23858 13.2386 2 16 2C18.7614 2 21 4.23858 21 7C21 9.41896 19.2822 11.4367 17 11.9V17.5109L21.7468 21.2029C22.6213 20.453 23.7577 20 25 20C27.7614 20 30 22.2386 30 25C30 27.7614 27.7614 30 25 30C22.2386 30 20 27.7614 20 25C20 24.203 20.1865 23.4496 20.5181 22.781L16 19.2669L11.4818 22.781C11.8135 23.4496 12 24.203 12 25C12 27.7614 9.76142 30 7 30C4.23858 30 2 27.7614 2 25C2 22.2386 4.23858 20 7 20C8.24226 20 9.37871 20.453 10.2531 21.2029L15 17.5109V11.9C12.7178 11.4367 11 9.41896 11 7ZM16 4C14.3431 4 13 5.34315 13 7C13 8.65685 14.3431 10 16 10C17.6569 10 19 8.65685 19 7C19 5.34315 17.6569 4 16 4ZM7 22C5.34315 22 4 23.3431 4 25C4 26.6569 5.34315 28 7 28C8.65685 28 10 26.6569 10 25C10 23.3431 8.65685 22 7 22ZM25 22C23.3431 22 22 23.3431 22 25C22 26.6569 23.3431 28 25 28C26.6569 28 28 26.6569 28 25C28 23.3431 26.6569 22 25 22Z" fill="#0F0F0F"/>
</svg>
