<svg width="32" height="32" viewBox="0 0 32 32" fill="none" xmlns="http://www.w3.org/2000/svg">
<path d="M10.0001 18.2497H4.99915C4.80023 18.2497 4.60947 18.3287 4.46882 18.4694C4.32816 18.61 4.24915 18.8008 4.24915 18.9997C4.24915 19.1986 4.32816 19.3894 4.46882 19.53C4.60947 19.6707 4.80023 19.7497 4.99915 19.7497H10.0001C10.5966 19.7505 11.1685 19.9878 11.5902 20.4096C12.012 20.8314 12.2493 21.4032 12.2501 21.9997V26.9997C12.2501 27.1986 12.3292 27.3894 12.4698 27.53C12.6105 27.6707 12.8012 27.7497 13.0001 27.7497C13.1991 27.7497 13.3898 27.6707 13.5305 27.53C13.6711 27.3894 13.7501 27.1986 13.7501 26.9997V21.9997C13.7489 21.0055 13.3534 20.0524 12.6504 19.3494C11.9474 18.6465 10.9943 18.251 10.0001 18.2497Z" fill="#0F0F0F"/>
<path d="M27.0001 12.2497H22.0001C21.4037 12.2489 20.8318 12.0116 20.4101 11.5898C19.9883 11.168 19.751 10.5962 19.7501 9.99971V4.99971C19.7501 4.8008 19.6711 4.61003 19.5305 4.46938C19.3898 4.32873 19.1991 4.24971 19.0001 4.24971C18.8012 4.24971 18.6105 4.32873 18.4698 4.46938C18.3292 4.61003 18.2501 4.8008 18.2501 4.99971V9.99971C18.2514 10.9939 18.6469 11.947 19.3499 12.65C20.0529 13.353 21.006 13.7485 22.0001 13.7497H27.0001C27.1991 13.7497 27.3898 13.6707 27.5305 13.53C27.6711 13.3894 27.7501 13.1986 27.7501 12.9997C27.7501 12.8008 27.6711 12.61 27.5305 12.4694C27.3898 12.3287 27.1991 12.2497 27.0001 12.2497Z" fill="#0F0F0F"/>
</svg>
