<svg width="32" height="32" viewBox="0 0 32 32" fill="none" xmlns="http://www.w3.org/2000/svg">
<path d="M5.53906 14.9375C5.01855 14.9375 4.625 14.582 4.625 14.0615C4.6377 13.541 5.03125 13.1855 5.53906 13.1855H7.64648L11.9502 13.3887L8.00195 9.58008L3.86328 5.42871C3.68555 5.26367 3.59668 5.02246 3.59668 4.78125C3.59668 4.23535 3.99023 3.87988 4.53613 3.87988C4.77734 3.87988 4.99316 3.95605 5.1582 4.13379L9.25879 8.27246L13.1055 12.2334L12.9023 7.94238V5.82227C12.9023 5.30176 13.2578 4.9209 13.7783 4.9209C14.2988 4.9209 14.6543 5.32715 14.6543 5.82227V13.3887C14.6543 14.3662 14.083 14.9375 13.1055 14.9375H5.53906ZM18.0439 28.1533C17.5234 28.1533 17.1553 27.7598 17.1553 27.252V19.3809C17.1553 18.4033 17.7393 17.8193 18.7168 17.8193H26.5879C27.1084 17.8193 27.502 18.1875 27.502 18.708C27.4893 19.2285 27.0957 19.584 26.5879 19.584H24.1631L19.8594 19.3682L23.8203 23.1895L28.1494 27.5186C28.3145 27.6963 28.4033 27.9248 28.4033 28.1787C28.4033 28.7246 28.0098 29.0801 27.4639 29.0801C27.2354 29.0801 27.0195 28.9912 26.8545 28.8135L22.5508 24.4844L18.7168 20.5361L18.9199 24.8271V27.252C18.9199 27.7725 18.5518 28.1533 18.0439 28.1533Z" fill="black"/>
</svg>
