<svg width="32" height="32" viewBox="0 0 32 32" fill="none" xmlns="http://www.w3.org/2000/svg">
<path d="M27.1797 4.50488C29.0292 4.59842 30.5 6.12727 30.5 8V22C30.5 23.8727 29.0292 25.4016 27.1797 25.4951L27 25.5H12.4258L7.125 29.7412C6.51083 30.2322 5.61964 29.8522 5.51074 29.1123L5.5 28.96V25.5H5C3.12727 25.5 1.59842 24.0292 1.50488 22.1797L1.5 22V8C1.5 6.067 3.067 4.5 5 4.5H27L27.1797 4.50488ZM24.5645 10.876C22.7132 10.876 21.7627 11.6617 21.7627 12.8926C21.7629 14.3654 22.965 14.7921 24.1279 15.0635C25.1262 15.2961 25.873 15.4898 25.873 16.207C25.873 16.7012 25.5141 17.0117 24.5742 17.0117C23.6535 17.0117 23.1594 16.5558 23.0527 15.9453H21.5107C21.7046 17.2828 22.7616 18.1455 24.5547 18.1455C26.6288 18.1455 27.5107 17.1467 27.5107 16.0225C27.5106 14.4914 26.1538 13.949 24.8164 13.6582C23.8472 13.445 23.4014 13.2701 23.4014 12.6982C23.4014 12.2718 23.7016 11.9912 24.5254 11.9912C25.2232 11.9912 25.7368 12.2912 25.8145 12.8145H27.3359C27.1517 11.6031 26.1926 10.876 24.5645 10.876ZM4.5 11.0215V18H5.87598V13.2021L7.55273 18H8.88086L10.5186 13.1924V18H11.9922V11.0215H10.082L8.25098 16.4688L6.36035 11.0215H4.5ZM13.1504 11.0215V18H14.5273V13.2021L16.2041 18H17.5312L19.1699 13.1924V18H20.6426V11.0215H18.7334L16.9014 16.4688L15.0117 11.0215H13.1504Z" fill="#0F0F0F"/>
</svg>
