<svg width="32" height="32" viewBox="0 0 32 32" fill="none" xmlns="http://www.w3.org/2000/svg">
<path d="M27 20C28.1046 20 29 20.8954 29 22V25C29 26.1046 28.1046 27 27 27H5C3.89543 27 3 26.1046 3 25V22C3 20.8954 3.89543 20 5 20H27ZM5 25H27V22H5V25Z" fill="#0F0F0F"/>
<path d="M27 15C27.5523 15 28 15.4477 28 16C28 16.5523 27.5523 17 27 17H5C4.44772 17 4 16.5523 4 16C4 15.4477 4.44772 15 5 15H27Z" fill="#0F0F0F"/>
<path d="M27 10C27.5523 10 28 10.4477 28 11C28 11.5523 27.5523 12 27 12H5C4.44772 12 4 11.5523 4 11C4 10.4477 4.44772 10 5 10H27Z" fill="#0F0F0F"/>
<path d="M27 5C27.5523 5 28 5.44772 28 6C28 6.55228 27.5523 7 27 7H5C4.44772 7 4 6.55228 4 6C4 5.44772 4.44772 5 5 5H27Z" fill="#0F0F0F"/>
</svg>
