<svg width="32" height="32" viewBox="0 0 32 32" fill="none" xmlns="http://www.w3.org/2000/svg">
<path d="M27 25.25C27.4142 25.25 27.75 25.5858 27.75 26C27.75 26.4142 27.4142 26.75 27 26.75H5C4.58579 26.75 4.25 26.4142 4.25 26C4.25 25.5858 4.58579 25.25 5 25.25H27Z" fill="#0F0F0F"/>
<path d="M27 20.25C27.4142 20.25 27.75 20.5858 27.75 21C27.75 21.4142 27.4142 21.75 27 21.75H5C4.58579 21.75 4.25 21.4142 4.25 21C4.25 20.5858 4.58579 20.25 5 20.25H27Z" fill="#0F0F0F"/>
<path d="M27 15.25C27.4142 15.25 27.75 15.5858 27.75 16C27.75 16.4142 27.4142 16.75 27 16.75H5C4.58579 16.75 4.25 16.4142 4.25 16C4.25 15.5858 4.58579 15.25 5 15.25H27Z" fill="#0F0F0F"/>
<path d="M27 5.25C27.9665 5.25 28.75 6.0335 28.75 7V10C28.75 10.9665 27.9665 11.75 27 11.75H5C4.0335 11.75 3.25 10.9665 3.25 10V7C3.25 6.0335 4.0335 5.25 5 5.25H27ZM5 6.75C4.86193 6.75 4.75 6.86193 4.75 7V10C4.75 10.1381 4.86193 10.25 5 10.25H27C27.1381 10.25 27.25 10.1381 27.25 10V7C27.25 6.86193 27.1381 6.75 27 6.75H5Z" fill="#0F0F0F"/>
</svg>
