<svg width="32" height="32" viewBox="0 0 32 32" fill="none" xmlns="http://www.w3.org/2000/svg">
<path d="M2.25 10C2.25 7.37665 4.37665 5.25 7 5.25H25C27.6234 5.25 29.75 7.37665 29.75 10V13C29.75 13.4142 29.4142 13.75 29 13.75C28.5858 13.75 28.25 13.4142 28.25 13V10C28.25 8.20507 26.7949 6.75 25 6.75H7C5.20507 6.75 3.75 8.20507 3.75 10V22C3.75 23.7949 5.20507 25.25 7 25.25H13C13.4142 25.25 13.75 25.5858 13.75 26C13.75 26.4142 13.4142 26.75 13 26.75H7C4.37665 26.75 2.25 24.6234 2.25 22V10ZM13.0303 11.4697C13.3232 11.7626 13.3232 12.2374 13.0303 12.5303L10.3107 15.25H16C16.4142 15.25 16.75 15.5858 16.75 16C16.75 16.4142 16.4142 16.75 16 16.75H10.3107L13.0303 19.4697C13.3232 19.7626 13.3232 20.2374 13.0303 20.5303C12.7374 20.8232 12.2626 20.8232 11.9697 20.5303L7.96967 16.5303C7.67678 16.2374 7.67678 15.7626 7.96967 15.4697L11.9697 11.4697C12.2626 11.1768 12.7374 11.1768 13.0303 11.4697ZM23 14.75C24.5188 14.75 25.75 15.9812 25.75 17.5001C25.75 19.0188 24.5188 20.25 23 20.25C21.4812 20.25 20.25 19.0188 20.25 17.5001C20.25 15.9812 21.4812 14.75 23 14.75ZM25.7208 20.7651C26.6553 19.9855 27.25 18.8123 27.25 17.5001C27.25 15.1528 25.3472 13.25 23 13.25C20.6527 13.25 18.75 15.1528 18.75 17.5001C18.75 18.8123 19.3447 19.9855 20.2792 20.7651C17.9365 21.6932 16.25 23.7867 16.25 26.3146C16.25 27.7027 17.4122 28.5539 18.5978 29.0255C19.8383 29.5191 21.4398 29.75 23 29.75C24.5602 29.75 26.1617 29.5191 27.4022 29.0255C28.5878 28.5539 29.75 27.7027 29.75 26.3146C29.75 23.7867 28.0634 21.6932 25.7208 20.7651ZM23 21.75C25.9877 21.75 28.25 23.8762 28.25 26.3146C28.25 26.7168 27.9122 27.2083 26.8478 27.6318C25.8383 28.0334 24.4398 28.25 23 28.25C21.5602 28.25 20.1617 28.0334 19.1522 27.6318C18.0878 27.2083 17.75 26.7168 17.75 26.3146C17.75 23.8762 20.0123 21.75 23 21.75Z" fill="#0F0F0F"/>
</svg>
