<svg width="32" height="32" viewBox="0 0 32 32" fill="none" xmlns="http://www.w3.org/2000/svg">
<path d="M2 10C2 7.23858 4.23858 5 7 5H25C27.7614 5 30 7.23858 30 10V13C30 13.5523 29.5523 14 29 14C28.4477 14 28 13.5523 28 13V10C28 8.34315 26.6569 7 25 7H7C5.34315 7 4 8.34315 4 10V22C4 23.6569 5.34315 25 7 25H13C13.5523 25 14 25.4477 14 26C14 26.5523 13.5523 27 13 27H7C4.23858 27 2 24.7614 2 22V10ZM13.2071 11.2929C13.5976 11.6834 13.5976 12.3166 13.2071 12.7071L10.9142 15H16C16.5523 15 17 15.4477 17 16C17 16.5523 16.5523 17 16 17H10.9142L13.2071 19.2929C13.5976 19.6834 13.5976 20.3166 13.2071 20.7071C12.8166 21.0976 12.1834 21.0976 11.7929 20.7071L7.79289 16.7071C7.40237 16.3166 7.40237 15.6834 7.79289 15.2929L11.7929 11.2929C12.1834 10.9024 12.8166 10.9024 13.2071 11.2929ZM23 15C24.3807 15 25.5 16.1193 25.5 17.5001C25.5 18.8807 24.3807 20 23 20C21.6192 20 20.5 18.8808 20.5 17.5001C20.5 16.1193 21.6193 15 23 15ZM26.1754 20.6886C26.9936 19.8737 27.5 18.746 27.5 17.5001C27.5 15.0148 25.4853 13 23 13C20.5147 13 18.5 15.0148 18.5 17.5001C18.5 18.746 19.0064 19.8737 19.8246 20.6886C17.5883 21.7155 16 23.7995 16 26.3146C16 27.867 17.2996 28.7781 18.5053 29.2578C19.7844 29.7667 21.4197 30 23 30C24.5803 30 26.2156 29.7667 27.4947 29.2578C28.7004 28.7781 30 27.867 30 26.3146C30 23.7995 28.4117 21.7155 26.1754 20.6886ZM23 22C25.879 22 28 24.0419 28 26.3146C28 26.5525 27.7996 26.984 26.7553 27.3995C25.7844 27.7857 24.4197 28 23 28C21.5803 28 20.2156 27.7857 19.2447 27.3995C18.2004 26.984 18 26.5525 18 26.3146C18 24.0419 20.121 22 23 22Z" fill="#0F0F0F"/>
</svg>
