<svg width="32" height="32" viewBox="0 0 32 32" fill="none" xmlns="http://www.w3.org/2000/svg">
<path d="M25 2.49965H13C11.8069 2.50095 10.6631 2.97547 9.81946 3.8191C8.97582 4.66274 8.5013 5.80657 8.5 6.99965V12.4997H6.99707C5.804 12.5009 4.66016 12.9755 3.81653 13.8191C2.97289 14.6627 2.49837 15.8066 2.49707 16.9996V24.9997C2.49837 26.1927 2.97289 27.3366 3.81653 28.1802C4.66016 29.0238 5.804 29.4984 6.99707 29.4997H18.9971C20.1901 29.4983 21.334 29.0238 22.1776 28.1802C23.0212 27.3366 23.4958 26.1927 23.4971 24.9997V19.4997H25C26.1931 19.4983 27.3369 19.0238 28.1805 18.1802C29.0242 17.3366 29.4987 16.1927 29.5 14.9997V6.99965C29.4987 5.80658 29.0242 4.66274 28.1805 3.81911C27.3369 2.97548 26.1931 2.50095 25 2.49965ZM22.4971 24.9997C22.4959 25.9276 22.1268 26.8171 21.4707 27.4733C20.8146 28.1294 19.925 28.4985 18.9971 28.4997H6.99707C6.06916 28.4985 5.17957 28.1294 4.52344 27.4733C3.8673 26.8171 3.49819 25.9276 3.49707 24.9997V16.9996C3.49819 16.0717 3.8673 15.1821 4.52344 14.526C5.17957 13.8699 6.06916 13.5008 6.99707 13.4997H18.9971C19.925 13.5008 20.8146 13.8699 21.4707 14.526C22.1268 15.1822 22.4959 16.0717 22.4971 16.9996V24.9997ZM28.5 14.9997C28.4989 15.9276 28.1298 16.8171 27.4736 17.4733C26.8175 18.1294 25.9279 18.4985 25 18.4996H23.4971V16.9996C23.4958 15.8066 23.0212 14.6627 22.1776 13.8191C21.334 12.9755 20.1901 12.501 18.9971 12.4997H9.5V6.99965C9.50112 6.07174 9.87023 5.18215 10.5264 4.52602C11.1825 3.86988 12.0721 3.50077 13 3.49965H25C25.9279 3.50077 26.8175 3.86988 27.4736 4.52602C28.1298 5.18215 28.4989 6.07174 28.5 6.99965V14.9997Z" fill="#0F0F0F"/>
<path d="M20 6.49965H18C17.8674 6.49965 17.7402 6.55233 17.6464 6.6461C17.5527 6.73986 17.5 6.86704 17.5 6.99965C17.5 7.13226 17.5527 7.25944 17.6464 7.3532C17.7402 7.44697 17.8674 7.49965 18 7.49965H20C20.1326 7.49965 20.2598 7.44697 20.3536 7.3532C20.4473 7.25944 20.5 7.13226 20.5 6.99965C20.5 6.86704 20.4473 6.73986 20.3536 6.6461C20.2598 6.55233 20.1326 6.49965 20 6.49965Z" fill="#0F0F0F"/>
<path d="M14 16.4996H12C11.8674 16.4996 11.7402 16.5523 11.6464 16.6461C11.5527 16.7399 11.5 16.867 11.5 16.9996C11.5 17.1323 11.5527 17.2594 11.6464 17.3532C11.7402 17.447 11.8674 17.4996 12 17.4996H14C14.1326 17.4996 14.2598 17.447 14.3536 17.3532C14.4473 17.2594 14.5 17.1323 14.5 16.9996C14.5 16.867 14.4473 16.7399 14.3536 16.6461C14.2598 16.5523 14.1326 16.4996 14 16.4996Z" fill="#0F0F0F"/>
</svg>
