<svg width="32" height="32" viewBox="0 0 32 32" fill="none" xmlns="http://www.w3.org/2000/svg">
<path d="M22.9998 4.49952H8.99976C7.80668 4.50082 6.66284 4.97534 5.81921 5.81897C4.97558 6.66261 4.50106 7.80645 4.49976 8.99952V22.9995C4.50106 24.1926 4.97558 25.3364 5.81921 26.1801C6.66285 27.0237 7.80668 27.4982 8.99976 27.4995H22.9998C24.1928 27.4982 25.3367 27.0237 26.1803 26.1801C27.0239 25.3364 27.4985 24.1926 27.4998 22.9995V8.99952C27.4985 7.80645 27.0239 6.66261 26.1803 5.81898C25.3367 4.97535 24.1928 4.50082 22.9998 4.49952ZM8.99976 5.49952H22.9998C23.9277 5.50064 24.8173 5.86975 25.4734 6.52589C26.1295 7.18202 26.4986 8.07161 26.4998 8.99952V9.49952H5.49976V8.99952C5.50088 8.07161 5.86999 7.18202 6.52612 6.52589C7.18226 5.86975 8.07184 5.50064 8.99976 5.49952ZM22.9998 26.4995H8.99976C8.07184 26.4984 7.18226 26.1293 6.52612 25.4732C5.86999 24.817 5.50088 23.9274 5.49976 22.9995V10.4995H26.4998V22.9995C26.4986 23.9274 26.1295 24.817 25.4734 25.4732C24.8173 26.1293 23.9277 26.4984 22.9998 26.4995Z" fill="#0F0F0F"/>
<path d="M20.6755 17.1665L13.6765 13.6626C13.4478 13.5471 13.1933 13.4921 12.9373 13.5028C12.6813 13.5135 12.4323 13.5896 12.2141 13.7239C11.9958 13.8581 11.8156 14.046 11.6906 14.2696C11.5655 14.4933 11.4998 14.7452 11.4998 15.0015V21.9995C11.499 22.2559 11.564 22.5082 11.6886 22.7322C11.8133 22.9562 11.9934 23.1445 12.2117 23.279C12.4299 23.4135 12.6791 23.4896 12.9352 23.5002C13.1914 23.5108 13.446 23.4554 13.6746 23.3394L20.6746 19.8442C20.9223 19.7192 21.1306 19.5279 21.2761 19.2916C21.4216 19.0553 21.4987 18.7832 21.4988 18.5057C21.4989 18.2282 21.422 17.956 21.2767 17.7196C21.1313 17.4832 20.9232 17.2917 20.6755 17.1665ZM20.2263 18.9507L13.2253 22.4458C13.1491 22.4843 13.0643 22.5026 12.9789 22.499C12.8936 22.4954 12.8107 22.47 12.7379 22.4252C12.6652 22.3805 12.6051 22.3179 12.5634 22.2434C12.5217 22.1689 12.4998 22.0849 12.4997 21.9995V15.0015C12.499 14.9159 12.5205 14.8316 12.5623 14.7569C12.6041 14.6823 12.6647 14.6198 12.738 14.5757C12.8171 14.5272 12.9079 14.5012 13.0007 14.5005C13.0796 14.5008 13.1572 14.5199 13.2273 14.5562L20.2263 18.0601C20.3083 18.102 20.3771 18.1658 20.4252 18.2444C20.4733 18.3229 20.4987 18.4133 20.4987 18.5054C20.4987 18.5975 20.4733 18.6878 20.4252 18.7664C20.3771 18.845 20.3083 18.9088 20.2263 18.9507Z" fill="#0F0F0F"/>
</svg>
