<svg width="32" height="32" viewBox="0 0 32 32" fill="none" xmlns="http://www.w3.org/2000/svg">
<path d="M17.2934 23.7068C17.4809 23.8943 17.7352 23.9996 18.0004 23.9996C18.2656 23.9996 18.5199 23.8943 18.7075 23.7068C18.895 23.5192 19.0003 23.2649 19.0003 22.9997C19.0003 22.7345 18.895 22.4802 18.7075 22.2927L16.5857 20.171C16.8594 19.4798 17.0001 18.7431 17.0004 17.9997V7.99973C17.0004 6.40843 16.3683 4.88231 15.2431 3.75709C14.1178 2.63187 12.5917 1.99973 11.0004 1.99973C9.40913 1.99973 7.883 2.63187 6.75779 3.75709C5.63257 4.88231 5.00043 6.40843 5.00043 7.99973V8.58567L3.70743 7.29267C3.51991 7.10516 3.26558 6.99982 3.00039 6.99983C2.7352 6.99983 2.48088 7.10518 2.29337 7.2927C2.10586 7.48022 2.00052 7.73455 2.00052 7.99974C2.00053 8.26493 2.10588 8.51925 2.2934 8.70676L17.2934 23.7068ZM7.0004 7.99976C7.0004 6.9389 7.42182 5.92148 8.17197 5.17134C8.92212 4.42119 9.93953 3.99976 11.0004 3.99976C12.0613 3.99976 13.0787 4.42119 13.8288 5.17134C14.579 5.92148 15.0004 6.9389 15.0004 7.99976V17.9998C14.9968 18.1797 14.9805 18.3593 14.9516 18.5369L7.00043 10.5857L7.0004 7.99976Z" fill="#0F0F0F"/>
<path d="M19.0004 27.9997H17.0209C15.841 28.0289 14.6905 27.6291 13.783 26.8745C12.8754 26.12 12.2724 25.0618 12.0857 23.8963C12.7455 23.7731 13.3798 23.5394 13.9617 23.2049L12.469 21.7121C11.8632 21.9557 11.2068 22.0467 10.5576 21.977C9.9084 21.9073 9.28628 21.679 8.74606 21.3123C8.20583 20.9455 7.76406 20.4516 7.45966 19.874C7.15525 19.2963 6.99755 18.6527 7.00044 17.9997V16.2431L5.00044 14.243V17.9997C5.00291 19.4275 5.51409 20.8076 6.44225 21.8924C7.37041 22.9773 8.6548 23.6959 10.0649 23.9193C10.2533 25.466 10.9582 26.9037 12.0657 27.9997H3.00043C2.73521 27.9997 2.48086 28.1051 2.29332 28.2926C2.10578 28.4802 2.00043 28.7345 2.00043 28.9997C2.00043 29.2649 2.10578 29.5193 2.29332 29.7068C2.48086 29.8944 2.73521 29.9997 3.00043 29.9997H19.0004C19.2656 29.9997 19.52 29.8944 19.7075 29.7068C19.8951 29.5193 20.0004 29.2649 20.0004 28.9997C20.0004 28.7345 19.8951 28.4802 19.7075 28.2926C19.52 28.1051 19.2656 27.9997 19.0004 27.9997Z" fill="#0F0F0F"/>
<path d="M29.0004 12.9997H23.4145L25.7075 10.7067C25.8003 10.6139 25.874 10.5037 25.9242 10.3823C25.9745 10.261 26.0003 10.131 26.0003 9.9997C26.0003 9.86839 25.9745 9.73837 25.9242 9.61706C25.874 9.49574 25.8003 9.38552 25.7075 9.29267C25.6146 9.19983 25.5044 9.12618 25.3831 9.07593C25.2618 9.02568 25.1317 8.99982 25.0004 8.99983C24.8691 8.99983 24.7391 9.02569 24.6178 9.07595C24.4965 9.1262 24.3862 9.19985 24.2934 9.2927L20.2934 13.2927C20.2005 13.3855 20.1268 13.4958 20.0766 13.6171C20.0263 13.7384 20.0004 13.8684 20.0004 13.9997C20.0004 14.1311 20.0263 14.2611 20.0766 14.3824C20.1268 14.5037 20.2005 14.6139 20.2934 14.7068L24.2934 18.7068C24.3862 18.7996 24.4965 18.8733 24.6178 18.9235C24.7391 18.9738 24.8691 18.9996 25.0004 18.9996C25.1317 18.9996 25.2618 18.9738 25.3831 18.9235C25.5044 18.8733 25.6146 18.7996 25.7075 18.7068C25.8003 18.6139 25.874 18.5037 25.9242 18.3824C25.9745 18.2611 26.0003 18.131 26.0003 17.9997C26.0003 17.8684 25.9745 17.7384 25.9242 17.6171C25.874 17.4958 25.8003 17.3856 25.7075 17.2927L23.4145 14.9997H29.0004C29.2656 14.9997 29.52 14.8943 29.7075 14.7068C29.895 14.5193 30.0004 14.2649 30.0004 13.9997C30.0004 13.7345 29.895 13.4801 29.7075 13.2926C29.52 13.1051 29.2656 12.9997 29.0004 12.9997Z" fill="#0F0F0F"/>
</svg>
