<svg width="32" height="32" viewBox="0 0 32 32" fill="none" xmlns="http://www.w3.org/2000/svg">
<path d="M5.29289 21.293C5.57889 21.0071 6.00909 20.9214 6.38274 21.0762C6.75626 21.2311 6.99992 21.5957 6.99992 22V24H14.9999C15.5522 24.0001 15.9999 24.4478 15.9999 25C15.9999 25.5523 15.5522 26 14.9999 26H6.99992V28C6.99991 28.4044 6.75626 28.769 6.38274 28.9239C6.0091 29.0786 5.57889 28.993 5.29289 28.7071L2.29289 25.7071C1.90237 25.3165 1.90237 24.6835 2.29289 24.293L5.29289 21.293Z" fill="#0F0F0F"/>
<path d="M25.6171 15.0762C25.9908 14.9214 26.421 15.007 26.707 15.293L29.707 18.293C30.0975 18.6835 30.0975 19.3166 29.707 19.7071L26.707 22.7071C26.421 22.9931 25.9908 23.0786 25.6171 22.9239C25.2435 22.7691 24.9999 22.4044 24.9999 22V20H16.9999C16.4477 20 15.9999 19.5523 15.9999 19C15.9999 18.4478 16.4476 18 16.9999 18H24.9999V16C24.9999 15.5956 25.2435 15.231 25.6171 15.0762Z" fill="#0F0F0F"/>
<path d="M5.29289 9.29301C5.57889 9.00706 6.00909 8.92144 6.38274 9.07621C6.75626 9.23106 6.99992 9.59568 6.99992 10V12H14.9999C15.5522 12.0001 15.9999 12.4478 15.9999 13C15.9999 13.5523 15.5522 14 14.9999 14H6.99992V16C6.99991 16.4044 6.75626 16.769 6.38274 16.9239C6.0091 17.0786 5.57889 16.993 5.29289 16.7071L2.29289 13.7071C1.90237 13.3165 1.90237 12.6835 2.29289 12.293L5.29289 9.29301Z" fill="#0F0F0F"/>
<path d="M25.6171 3.07621C25.9908 2.92143 26.421 3.00701 26.707 3.29301L29.707 6.29301C30.0975 6.68353 30.0975 7.31655 29.707 7.70707L26.707 10.7071C26.421 10.9931 25.9908 11.0786 25.6171 10.9239C25.2435 10.7691 24.9999 10.4044 24.9999 10V8.00004H16.9999C16.4477 8.00004 15.9999 7.55231 15.9999 7.00004C15.9999 6.44776 16.4476 6.00004 16.9999 6.00004H24.9999V4.00004C24.9999 3.59563 25.2435 3.23103 25.6171 3.07621Z" fill="#0F0F0F"/>
</svg>
