<svg width="32" height="32" viewBox="0 0 32 32" fill="none" xmlns="http://www.w3.org/2000/svg">
<path d="M18.5583 18.5003H13.4417C14.02 17.9329 14.3832 17.1823 14.4692 16.3767C14.5552 15.5712 14.3586 14.7608 13.9131 14.0841C13.4676 13.4075 12.8008 12.9067 12.0268 12.6673C11.2529 12.428 10.4198 12.465 9.67008 12.772C8.92038 13.0791 8.30065 13.6371 7.9169 14.3505C7.53315 15.064 7.40922 15.8887 7.56632 16.6834C7.72341 17.4782 8.15177 18.1937 8.77811 18.7075C9.40445 19.2213 10.1899 19.5016 11 19.5003H21C21.8151 19.5034 22.606 19.2229 23.237 18.7069C23.8681 18.1909 24.3001 17.4716 24.459 16.6721C24.6179 15.8726 24.4939 15.0427 24.1082 14.3246C23.7224 13.6065 23.099 13.0449 22.3447 12.736C21.5904 12.427 20.7521 12.39 19.9735 12.6313C19.1948 12.8725 18.5243 13.377 18.0768 14.0583C17.6293 14.7396 17.4326 15.5553 17.5204 16.3657C17.6083 17.1761 17.9752 17.9307 18.5583 18.5003ZM8.5 16.0003C8.5 15.5058 8.64662 15.0225 8.92133 14.6114C9.19603 14.2003 9.58648 13.8798 10.0433 13.6906C10.5001 13.5014 11.0028 13.4519 11.4877 13.5483C11.9727 13.6448 12.4181 13.8829 12.7678 14.2325C13.1174 14.5822 13.3555 15.0276 13.452 15.5126C13.5484 15.9975 13.4989 16.5002 13.3097 16.957C13.1205 17.4138 12.8 17.8043 12.3889 18.079C11.9778 18.3537 11.4945 18.5003 11 18.5003C10.3371 18.4997 9.70162 18.2361 9.23291 17.7674C8.7642 17.2987 8.50061 16.6632 8.5 16.0003ZM21 13.5003C21.4945 13.5003 21.9778 13.6469 22.3889 13.9216C22.8 14.1963 23.1205 14.5868 23.3097 15.0436C23.4989 15.5004 23.5484 16.0031 23.452 16.488C23.3555 16.973 23.1174 17.4184 22.7678 17.7681C22.4181 18.1177 21.9727 18.3558 21.4877 18.4523C21.0028 18.5487 20.5001 18.4992 20.0433 18.31C19.5865 18.1208 19.196 17.8003 18.9213 17.3892C18.6466 16.9781 18.5 16.4948 18.5 16.0003C18.5006 15.3374 18.7642 14.7019 19.2329 14.2332C19.7016 13.7645 20.3371 13.5009 21 13.5003Z" fill="#0F0F0F"/>
<path d="M29 13.5003C28.9343 13.5003 28.8693 13.5132 28.8086 13.5383C28.7479 13.5634 28.6928 13.6002 28.6464 13.6467C28.5999 13.6931 28.5631 13.7482 28.538 13.8089C28.5129 13.8696 28.5 13.9346 28.5 14.0003V22.0003C28.5 22.8558 27.0225 24.5003 25 24.5003H7C6.07209 24.4992 5.1825 24.1301 4.52637 23.4739C3.87023 22.8178 3.50112 21.9282 3.5 21.0003V11.0003C3.50112 10.0724 3.87023 9.1828 4.52637 8.52667C5.1825 7.87053 6.07209 7.50142 7 7.5003H16C16.1326 7.5003 16.2598 7.44762 16.3536 7.35385C16.4473 7.26009 16.5 7.13291 16.5 7.0003C16.5 6.86769 16.4473 6.74051 16.3536 6.64675C16.2598 6.55298 16.1326 6.5003 16 6.5003H7C5.80692 6.5016 4.66309 6.97612 3.81945 7.81976C2.97582 8.66339 2.5013 9.80722 2.5 11.0003V21.0003C2.5013 22.1934 2.97583 23.3372 3.81946 24.1808C4.66309 25.0245 5.80693 25.499 7 25.5003H25C27.4238 25.5003 29.5 23.5755 29.5 22.0003V14.0003C29.5 13.9346 29.4871 13.8696 29.462 13.8089C29.4369 13.7482 29.4001 13.6931 29.3536 13.6467C29.3072 13.6002 29.2521 13.5634 29.1914 13.5383C29.1307 13.5132 29.0657 13.5003 29 13.5003Z" fill="#0F0F0F"/>
<path d="M21 7.5003H24.5V11.0003C24.5 11.1329 24.5527 11.2601 24.6464 11.3539C24.7402 11.4476 24.8674 11.5003 25 11.5003C25.1326 11.5003 25.2598 11.4476 25.3536 11.3539C25.4473 11.2601 25.5 11.1329 25.5 11.0003V7.5003H29C29.1326 7.5003 29.2598 7.44762 29.3536 7.35385C29.4473 7.26009 29.5 7.13291 29.5 7.0003C29.5 6.86769 29.4473 6.74051 29.3536 6.64675C29.2598 6.55298 29.1326 6.5003 29 6.5003H25.5V3.0003C25.5 2.86769 25.4473 2.74051 25.3536 2.64675C25.2598 2.55298 25.1326 2.5003 25 2.5003C24.8674 2.5003 24.7402 2.55298 24.6464 2.64675C24.5527 2.74051 24.5 2.86769 24.5 3.0003V6.5003H21C20.8674 6.5003 20.7402 6.55298 20.6464 6.64675C20.5527 6.74051 20.5 6.86769 20.5 7.0003C20.5 7.13291 20.5527 7.26009 20.6464 7.35385C20.7402 7.44762 20.8674 7.5003 21 7.5003Z" fill="#0F0F0F"/>
</svg>
