<svg width="32" height="32" viewBox="0 0 32 32" fill="none" xmlns="http://www.w3.org/2000/svg">
<path d="M16 21.5C16.8284 21.5 17.5 22.1716 17.5 23V23.5H29C29.0518 23.5 29.1029 23.5027 29.1533 23.5078C29.9097 23.5846 30.5 24.2233 30.5 25V29C30.5 29.8284 29.8284 30.5 29 30.5C28.1716 30.5 27.5 29.8284 27.5 29V26.5H17.5V29C17.5 29.8284 16.8284 30.5 16 30.5C15.1716 30.5 14.5 29.8284 14.5 29V26.5H4.5V29C4.5 29.8284 3.82843 30.5 3 30.5C2.17157 30.5 1.5 29.8284 1.5 29V25C1.5 24.1716 2.17157 23.5 3 23.5H14.5V23C14.5 22.1716 15.1716 21.5 16 21.5Z" fill="#0F0F0F"/>
<path d="M16 2.5C18.4853 2.5 20.5 4.51472 20.5 7C20.5 8.60232 19.6615 10.0074 18.4004 10.8047C19.4788 11.0858 20.4515 11.5506 21.252 12.1582C22.6137 13.192 23.5 14.657 23.5 16.3145C23.4999 16.9449 23.1861 17.4638 22.7285 17.8652C22.2777 18.2606 21.6626 18.5668 20.9736 18.8018C19.5924 19.2728 17.7837 19.5 16 19.5C14.2163 19.5 12.4076 19.2728 11.0264 18.8018C10.3374 18.5668 9.7223 18.2606 9.27148 17.8652C8.81386 17.4638 8.50012 16.9449 8.5 16.3145C8.5 14.657 9.38631 13.192 10.748 12.1582C11.5483 11.5507 12.5206 11.0859 13.5986 10.8047C12.3379 10.0073 11.5 8.60203 11.5 7C11.5 4.51472 13.5147 2.5 16 2.5Z" fill="#0F0F0F"/>
</svg>
