<svg width="32" height="32" viewBox="0 0 32 32" fill="none" xmlns="http://www.w3.org/2000/svg">
<path d="M13.9806 18.2503C14.4768 17.6049 14.7471 16.8144 14.75 16.0003C14.75 15.2586 14.5301 14.5336 14.118 13.9169C13.706 13.3002 13.1203 12.8196 12.4351 12.5358C11.7498 12.2519 10.9958 12.1777 10.2684 12.3224C9.54098 12.4671 8.8728 12.8242 8.34835 13.3487C7.8239 13.8731 7.46675 14.5413 7.32205 15.2687C7.17736 15.9961 7.25162 16.7501 7.53545 17.4354C7.81928 18.1206 8.29993 18.7063 8.91661 19.1183C9.5333 19.5304 10.2583 19.7503 11 19.7503H21C21.7417 19.7503 22.4667 19.5304 23.0834 19.1183C23.7001 18.7063 24.1807 18.1206 24.4646 17.4354C24.7484 16.7501 24.8226 15.9961 24.6779 15.2687C24.5333 14.5413 24.1761 13.8731 23.6517 13.3487C23.1272 12.8242 22.459 12.4671 21.7316 12.3224C21.0042 12.1777 20.2502 12.2519 19.5649 12.5358C18.8797 12.8196 18.294 13.3002 17.882 13.9169C17.4699 14.5336 17.25 15.2586 17.25 16.0003C17.2529 16.8144 17.5232 17.6049 18.0193 18.2503H13.9806ZM8.75 16.0003C8.75 15.5553 8.88196 15.1203 9.12919 14.7503C9.37643 14.3803 9.72783 14.0919 10.139 13.9216C10.5501 13.7513 11.0025 13.7067 11.439 13.7935C11.8754 13.8804 12.2763 14.0946 12.591 14.4093C12.9057 14.724 13.12 15.1249 13.2068 15.5613C13.2936 15.9978 13.249 16.4502 13.0787 16.8613C12.9084 17.2725 12.62 17.6239 12.25 17.8711C11.88 18.1183 11.445 18.2503 11 18.2503C10.4035 18.2495 9.83169 18.0122 9.40991 17.5904C8.98813 17.1686 8.75081 16.5968 8.75 16.0003ZM18.75 16.0003C18.75 15.5553 18.882 15.1203 19.1292 14.7503C19.3764 14.3803 19.7278 14.0919 20.139 13.9216C20.5501 13.7513 21.0025 13.7067 21.439 13.7935C21.8754 13.8804 22.2763 14.0946 22.591 14.4093C22.9057 14.724 23.12 15.1249 23.2068 15.5613C23.2936 15.9978 23.249 16.4502 23.0787 16.8613C22.9084 17.2725 22.62 17.6239 22.25 17.8711C21.88 18.1183 21.445 18.2503 21 18.2503C20.4035 18.2495 19.8317 18.0122 19.4099 17.5904C18.9881 17.1686 18.7508 16.5968 18.75 16.0003Z" fill="#0F0F0F"/>
<path d="M29 13.2503C28.8011 13.2503 28.6104 13.3294 28.4697 13.47C28.3291 13.6107 28.25 13.8014 28.25 14.0003V22.0003C28.25 22.7503 26.8447 24.2503 25 24.2503H7C6.13835 24.2493 5.31228 23.9066 4.703 23.2973C4.09372 22.688 3.751 21.8619 3.75 21.0003V11.0003C3.75099 10.1387 4.09372 9.31258 4.703 8.7033C5.31228 8.09402 6.13835 7.75129 7 7.7503H16C16.1989 7.7503 16.3897 7.67128 16.5303 7.53063C16.671 7.38998 16.75 7.19921 16.75 7.0003C16.75 6.80139 16.671 6.61062 16.5303 6.46997C16.3897 6.32932 16.1989 6.2503 16 6.2503H7C5.74066 6.25173 4.53331 6.75263 3.64282 7.64312C2.75233 8.53361 2.25143 9.74096 2.25 11.0003V21.0003C2.25143 22.2596 2.75233 23.467 3.64282 24.3575C4.53331 25.248 5.74066 25.7489 7 25.7503H25C27.5586 25.7503 29.75 23.6888 29.75 22.0003V14.0003C29.75 13.8014 29.6709 13.6107 29.5303 13.47C29.3896 13.3294 29.1989 13.2504 29 13.2503Z" fill="#0F0F0F"/>
<path d="M21 7.7503H24.25V11.0003C24.25 11.1992 24.329 11.39 24.4697 11.5306C24.6103 11.6713 24.8011 11.7503 25 11.7503C25.1989 11.7503 25.3897 11.6713 25.5303 11.5306C25.671 11.39 25.75 11.1992 25.75 11.0003V7.7503H29C29.1989 7.7503 29.3897 7.67128 29.5303 7.53063C29.671 7.38998 29.75 7.19921 29.75 7.0003C29.75 6.80139 29.671 6.61062 29.5303 6.46997C29.3897 6.32932 29.1989 6.2503 29 6.2503H25.75V3.0003C25.75 2.80139 25.671 2.61062 25.5303 2.46997C25.3897 2.32932 25.1989 2.2503 25 2.2503C24.8011 2.2503 24.6103 2.32932 24.4697 2.46997C24.329 2.61062 24.25 2.80139 24.25 3.0003V6.2503H21C20.8011 6.2503 20.6103 6.32932 20.4697 6.46997C20.329 6.61062 20.25 6.80139 20.25 7.0003C20.25 7.19921 20.329 7.38998 20.4697 7.53063C20.6103 7.67128 20.8011 7.7503 21 7.7503Z" fill="#0F0F0F"/>
</svg>
