<svg width="32" height="32" viewBox="0 0 32 32" fill="none" xmlns="http://www.w3.org/2000/svg">
<path d="M17.5562 18.0003H14.4438C14.804 17.3951 14.996 16.7046 15 16.0003C15 15.2092 14.7654 14.4358 14.3259 13.778C13.8864 13.1202 13.2616 12.6075 12.5307 12.3048C11.7998 12.002 10.9956 11.9228 10.2196 12.0772C9.44372 12.2315 8.73098 12.6125 8.17157 13.1719C7.61216 13.7313 7.2312 14.444 7.07686 15.2199C6.92252 15.9959 7.00173 16.8001 7.30448 17.531C7.60723 18.2619 8.11992 18.8867 8.77772 19.3262C9.43552 19.7657 10.2089 20.0003 11 20.0003H21C21.7911 20.0003 22.5645 19.7657 23.2223 19.3262C23.8801 18.8867 24.3928 18.2619 24.6955 17.531C24.9983 16.8001 25.0775 15.9959 24.9231 15.2199C24.7688 14.444 24.3878 13.7313 23.8284 13.1719C23.269 12.6125 22.5563 12.2315 21.7804 12.0772C21.0044 11.9228 20.2002 12.002 19.4693 12.3048C18.7384 12.6075 18.1136 13.1202 17.6741 13.778C17.2346 14.4358 17 15.2092 17 16.0003C17.004 16.7046 17.196 17.3951 17.5562 18.0003ZM9 16.0003C9 15.6047 9.1173 15.2181 9.33706 14.8892C9.55682 14.5603 9.86918 14.3039 10.2346 14.1525C10.6001 14.0012 11.0022 13.9616 11.3902 14.0387C11.7781 14.1159 12.1345 14.3064 12.4142 14.5861C12.6939 14.8658 12.8844 15.2222 12.9616 15.6101C13.0387 15.9981 12.9991 16.4002 12.8478 16.7657C12.6964 17.1311 12.44 17.4435 12.1111 17.6632C11.7822 17.883 11.3956 18.0003 11 18.0003C10.4698 17.9996 9.96147 17.7887 9.58655 17.4138C9.21162 17.0388 9.00069 16.5305 9 16.0003ZM21 14.0003C21.3956 14.0003 21.7822 14.1176 22.1111 14.3374C22.44 14.5571 22.6964 14.8695 22.8478 15.2349C22.9991 15.6004 23.0387 16.0025 22.9616 16.3905C22.8844 16.7784 22.6939 17.1348 22.4142 17.4145C22.1345 17.6942 21.7781 17.8847 21.3902 17.9619C21.0022 18.039 20.6001 17.9994 20.2346 17.8481C19.8692 17.6967 19.5568 17.4403 19.3371 17.1114C19.1173 16.7825 19 16.3959 19 16.0003C19.0007 15.4701 19.2116 14.9618 19.5865 14.5869C19.9615 14.2119 20.4698 14.001 21 14.0003Z" fill="#0F0F0F"/>
<path d="M29 13.0003C28.8687 13.0002 28.7386 13.026 28.6172 13.0763C28.4959 13.1265 28.3856 13.2002 28.2927 13.293C28.1999 13.3859 28.1262 13.4962 28.076 13.6175C28.0257 13.7389 27.9999 13.869 28 14.0003V22.0003C28 22.597 26.7334 24.0003 25 24.0003H7C6.20462 23.9994 5.44206 23.6831 4.87964 23.1207C4.31722 22.5582 4.00087 21.7957 4 21.0003V11.0003C4.00087 10.2049 4.31722 9.44236 4.87964 8.87994C5.44206 8.31752 6.20462 8.00117 7 8.00031H16C16.2652 8.00031 16.5196 7.89495 16.7071 7.70741C16.8946 7.51988 17 7.26552 17 7.00031C17 6.73509 16.8946 6.48073 16.7071 6.2932C16.5196 6.10566 16.2652 6.00031 16 6.00031H7C5.6744 6.00186 4.40353 6.52915 3.46618 7.46649C2.52884 8.40384 2.00156 9.6747 2 11.0003V21.0003C2.00156 22.3259 2.52884 23.5968 3.46619 24.5341C4.40353 25.4715 5.6744 25.9987 7 26.0003H25C27.6924 26.0003 30 23.8011 30 22.0003V14.0003C30.0001 13.869 29.9743 13.7389 29.924 13.6175C29.8738 13.4962 29.8001 13.3859 29.7073 13.293C29.6144 13.2002 29.5041 13.1265 29.3828 13.0763C29.2614 13.026 29.1313 13.0002 29 13.0003Z" fill="#0F0F0F"/>
<path d="M21 8.00031H24V11.0003C24 11.2655 24.1054 11.5199 24.2929 11.7074C24.4804 11.8949 24.7348 12.0003 25 12.0003C25.2652 12.0003 25.5196 11.8949 25.7071 11.7074C25.8946 11.5199 26 11.2655 26 11.0003V8.00031H29C29.2652 8.00031 29.5196 7.89495 29.7071 7.70741C29.8946 7.51988 30 7.26552 30 7.00031C30 6.73509 29.8946 6.48073 29.7071 6.2932C29.5196 6.10566 29.2652 6.00031 29 6.00031H26V3.00031C26 2.73509 25.8946 2.48073 25.7071 2.2932C25.5196 2.10566 25.2652 2.00031 25 2.00031C24.7348 2.00031 24.4804 2.10566 24.2929 2.2932C24.1054 2.48073 24 2.73509 24 3.00031V6.00031H21C20.7348 6.00031 20.4804 6.10566 20.2929 6.2932C20.1054 6.48073 20 6.73509 20 7.00031C20 7.26552 20.1054 7.51988 20.2929 7.70741C20.4804 7.89495 20.7348 8.00031 21 8.00031Z" fill="#0F0F0F"/>
</svg>
