<svg width="32" height="32" viewBox="0 0 32 32" fill="none" xmlns="http://www.w3.org/2000/svg">
<path d="M14.25 3.69639C14.25 3.31177 13.9142 2.99997 13.5 2.99997C13.0858 2.99997 12.75 3.31177 12.75 3.69639V28.3035C12.75 28.6882 13.0858 29 13.5 29C13.9142 29 14.25 28.6882 14.25 28.3035V3.69639Z" fill="#0F0F0F"/>
<path d="M9.25 7.75007C9.25 7.33586 8.91421 7.00007 8.5 7.00007C8.08579 7.00007 7.75 7.33586 7.75 7.75007V24.0002C7.75 24.4145 8.08579 24.7502 8.5 24.7502C8.91421 24.7502 9.25 24.4145 9.25 24.0002V7.75007Z" fill="#0F0F0F"/>
<path d="M3.5 13C3.91421 13 4.25 13.3358 4.25 13.75V18.25C4.25 18.6643 3.91421 19 3.5 19C3.08579 19 2.75 18.6643 2.75 18.25V13.75C2.75 13.3358 3.08579 13 3.5 13Z" fill="#0F0F0F"/>
<path d="M19.25 9.74976C19.25 9.33554 18.9142 8.99976 18.5 8.99976C18.0858 8.99976 17.75 9.33554 17.75 9.74976V22.25C17.75 22.6642 18.0858 23 18.5 23C18.9142 23 19.25 22.6642 19.25 22.25V9.74976Z" fill="#0F0F0F"/>
<path d="M23.5 10.9999C23.9142 10.9999 24.25 11.3357 24.25 11.7499V19.9998C24.25 20.414 23.9142 20.7498 23.5 20.7498C23.0858 20.7498 22.75 20.414 22.75 19.9998V11.7499C22.75 11.3357 23.0858 10.9999 23.5 10.9999Z" fill="#0F0F0F"/>
<path d="M29.25 13.7501C29.25 13.3359 28.9142 13.0001 28.5 13.0001C28.0858 13.0001 27.75 13.3359 27.75 13.7501V18.2501C27.75 18.6643 28.0858 19.0001 28.5 19.0001C28.9142 19.0001 29.25 18.6643 29.25 18.2501V13.7501Z" fill="#0F0F0F"/>
</svg>
