<svg width="32" height="32" viewBox="0 0 32 32" fill="none" xmlns="http://www.w3.org/2000/svg">
<path d="M1.05762 18.5938C0.664062 18.5938 0.34668 18.2891 0.34668 17.9082C0.34668 17.5146 0.664062 17.1973 1.05762 17.1973H4.56152L5.62793 13.0586C5.79297 12.3984 6.70703 12.3984 6.84668 13.0586L8.59863 21.3613L10.5156 8.74219C10.6299 7.99316 11.6582 7.99316 11.7471 8.74219L13.5244 24.1797L15.416 2.83887C15.4795 2.07715 16.5967 2.07715 16.6602 2.83887L18.5518 24.1797L20.3164 8.74219C20.4053 8.00586 21.4463 7.99316 21.5605 8.74219L23.4775 21.3613L25.2168 13.0459C25.3691 12.373 26.2705 12.3604 26.4355 13.0332L27.502 17.1973H30.9297C31.3359 17.1973 31.6406 17.5146 31.6406 17.9082C31.6406 18.2891 31.3359 18.5938 30.9297 18.5938H27.0449C26.7783 18.5938 26.5244 18.4668 26.4482 18.1367L25.9023 15.9658L23.998 24.916C23.8584 25.5381 22.8682 25.5381 22.7666 24.916L21.04 13.4902L19.0977 30.3623C18.9961 31.1367 17.9297 31.124 17.8535 30.3623L16.0381 9.91016L14.21 30.3877C14.1465 31.1367 13.0674 31.1367 12.9785 30.3877L11.0361 13.4902L9.30957 24.8906C9.2207 25.5381 8.21777 25.5254 8.07812 24.8906L6.16113 15.8896L5.62793 18.1367C5.56445 18.4287 5.29785 18.5938 5.03125 18.5938H1.05762Z" fill="black"/>
</svg>
