<svg width="32" height="32" viewBox="0 0 32 32" fill="none" xmlns="http://www.w3.org/2000/svg">
<path d="M18.5342 19.1113L12.333 19.1143L13.4658 12.8779L19.667 12.875L18.5342 19.1113Z" fill="#0F0F0F"/>
<path d="M25 2C27.7614 2 30 4.23858 30 7V25C30 27.7614 27.7614 30 25 30H7C4.23858 30 2 27.7614 2 25V7C2 4.23858 4.23858 2 7 2H25ZM21.9648 5.91602C21.8351 5.89233 21.7003 5.89371 21.5693 5.92188C21.4392 5.95 21.3147 6.00411 21.2051 6.08008C21.0958 6.15584 21.0019 6.25287 20.9297 6.36523C20.8578 6.47714 20.8088 6.60223 20.7852 6.73242L20.0361 10.8486L13.835 10.8516L14.5186 7.09668L14.5225 7.07324L14.5332 6.9502L14.5352 6.9248V6.89941C14.5343 6.83774 14.5282 6.77061 14.5137 6.70215L14.4873 6.60449C14.4564 6.50866 14.4121 6.41858 14.3564 6.33789C14.3001 6.2562 14.2314 6.18336 14.1533 6.12109L14.0723 6.0625C13.9892 6.00879 13.898 5.96719 13.8018 5.93945L13.7041 5.91602C13.5746 5.89237 13.4394 5.89437 13.3076 5.92285C13.1761 5.95137 13.0523 6.00528 12.9443 6.08008C12.8351 6.15584 12.7412 6.25286 12.6689 6.36523C12.597 6.47723 12.548 6.60228 12.5244 6.73242L11.7744 10.8545L7.73926 10.8574C7.50431 10.8574 7.27715 10.9391 7.09668 11.0869L7.02246 11.1543C6.83164 11.3453 6.7268 11.6038 6.72656 11.8701C6.72656 12.1362 6.83097 12.3953 7.02246 12.5869L7.09668 12.6543C7.27715 12.8021 7.50431 12.8838 7.73926 12.8838L11.4053 12.8809L10.2725 19.1172L6.91309 19.1191C6.67814 19.1191 6.45098 19.2008 6.27051 19.3486L6.19629 19.416C6.00476 19.6077 5.90039 19.8667 5.90039 20.1328C5.90058 20.3993 6.00567 20.6577 6.19629 20.8486L6.27051 20.916C6.45098 21.0638 6.67814 21.1455 6.91309 21.1455L9.9043 21.1426L9.21973 24.9053C9.17201 25.1693 9.23134 25.4425 9.38379 25.6631C9.53702 25.8847 9.7715 26.0356 10.0342 26.084L10.0791 26.0918H10.125C10.1556 26.0946 10.1858 26.0994 10.2158 26.0996H10.2197C10.4553 26.099 10.686 26.0164 10.8682 25.8643C11.0496 25.7124 11.1722 25.5 11.2148 25.2686L11.9639 21.1406L18.165 21.1377L17.4814 24.9062C17.4337 25.1703 17.493 25.4425 17.6455 25.6631L17.7061 25.7432C17.8563 25.92 18.0639 26.0414 18.2949 26.084L18.3398 26.0918H18.3848C18.4157 26.0946 18.4462 26.0994 18.4766 26.0996H18.4805C18.7162 26.0991 18.9458 26.0163 19.1279 25.8643L19.1934 25.8047C19.3393 25.6592 19.4382 25.4712 19.4756 25.2686L20.2256 21.1348L25.0869 21.1338C25.3554 21.1338 25.6136 21.027 25.8037 20.8369L25.8711 20.7617C26.0195 20.58 26.0996 20.3529 26.0996 20.1201L26.0947 20.0205C26.0752 19.8227 25.9977 19.6345 25.8711 19.4795L25.8037 19.4043C25.6613 19.2619 25.4801 19.1659 25.2852 19.127L25.2607 19.1221L25.2354 19.1191L25.1348 19.1094L25.1113 19.1074L20.5947 19.1084L21.7275 12.8721L25.0869 12.8711C25.3542 12.8711 25.6122 12.7652 25.8027 12.5752C25.9929 12.3851 26.0996 12.1268 26.0996 11.8584C26.0996 11.6228 26.0175 11.3966 25.8701 11.2168L25.8027 11.1426C25.6616 11.0015 25.4816 10.9045 25.2852 10.8652L25.2607 10.8604L25.2354 10.8574L25.1348 10.8477L25.1113 10.8457H22.0967L22.7793 7.09668L22.7832 7.07324L22.7939 6.9502L22.7959 6.9248V6.89941C22.7951 6.83776 22.7889 6.77064 22.7744 6.70215L22.748 6.60449C22.7172 6.50865 22.6718 6.41857 22.6162 6.33789C22.56 6.25645 22.492 6.1833 22.4141 6.12109L22.333 6.0625C22.2223 5.99095 22.0974 5.94022 21.9648 5.91602Z" fill="#0F0F0F"/>
</svg>
