<svg width="32" height="32" viewBox="0 0 32 32" fill="none" xmlns="http://www.w3.org/2000/svg">
<path d="M21.9199 6.16211C21.871 6.15318 21.8212 6.14873 21.7715 6.14941L21.6221 6.16699C21.524 6.18819 21.4302 6.22892 21.3477 6.28613C21.2654 6.34323 21.1949 6.41647 21.1406 6.50098C21.0865 6.58528 21.049 6.6791 21.0312 6.77734L20.2451 11.0986L13.5352 11.1016L14.2725 7.05176L14.2744 7.04004L14.2754 7.02832L14.2842 6.92773L14.2852 6.91504V6.90234C14.2845 6.85493 14.2793 6.80539 14.2686 6.75488C14.2474 6.65554 14.2065 6.562 14.1504 6.48047C14.1221 6.43939 14.0894 6.401 14.0537 6.36621L13.9365 6.27246C13.8947 6.24541 13.8501 6.22261 13.8037 6.2041L13.6592 6.16211C13.5612 6.14422 13.4593 6.14562 13.3604 6.16699C13.2617 6.18839 13.1686 6.22955 13.0869 6.28613C13.0046 6.34323 12.9342 6.41646 12.8799 6.50098C12.8257 6.58532 12.7883 6.67913 12.7705 6.77734L11.9834 11.1045L7.73926 11.1074C7.58759 11.1074 7.44003 11.1524 7.31543 11.2354L7.19922 11.3311C7.05581 11.4746 6.97674 11.6691 6.97656 11.8701C6.97656 12.0712 7.05541 12.2662 7.19922 12.4102L7.31543 12.5059C7.44003 12.5888 7.58759 12.6338 7.73926 12.6338L11.7051 12.6309L10.4814 19.3672L6.91309 19.3691C6.76142 19.3691 6.61386 19.4141 6.48926 19.4971L6.37305 19.5928C6.22922 19.7367 6.15039 19.9318 6.15039 20.1328C6.15053 20.334 6.22976 20.5284 6.37305 20.6719L6.48926 20.7676C6.61386 20.8506 6.76142 20.8955 6.91309 20.8955L10.2041 20.8926L9.46582 24.9502C9.42987 25.1491 9.474 25.3553 9.58887 25.5215C9.70418 25.6882 9.88184 25.8014 10.0801 25.8379L10.1025 25.8418L10.127 25.8408C10.1573 25.8443 10.1879 25.8494 10.2178 25.8496H10.2197C10.3972 25.8491 10.5701 25.7861 10.707 25.6719C10.8437 25.5575 10.9366 25.3983 10.9688 25.2236L11.7549 20.8906L18.4648 20.8877L17.7275 24.9502C17.6915 25.1492 17.7366 25.3552 17.8516 25.5215C17.9664 25.6871 18.1421 25.8013 18.3408 25.8379L18.3633 25.8418L18.3877 25.8408C18.4181 25.8443 18.4486 25.8494 18.4785 25.8496H18.4805C18.658 25.8491 18.8308 25.7861 18.9678 25.6719C19.1045 25.5575 19.1973 25.3982 19.2295 25.2236L20.0166 20.8848L25.0869 20.8838C25.2892 20.8838 25.4838 20.8033 25.627 20.6602L25.6777 20.6035C25.7892 20.467 25.8496 20.296 25.8496 20.1201L25.835 19.9707C25.8156 19.8733 25.7777 19.7802 25.7227 19.6973L25.627 19.5811C25.5197 19.4738 25.3831 19.4014 25.2363 19.3721L25.2246 19.3691L25.2119 19.3682L25.1113 19.3584L25.0986 19.3574L20.2949 19.3584L21.5186 12.6221L25.0869 12.6211C25.2885 12.6211 25.4826 12.5414 25.626 12.3984L25.7217 12.2822C25.8047 12.1576 25.8496 12.0101 25.8496 11.8584C25.8496 11.7064 25.8037 11.5597 25.7207 11.4355L25.626 11.3193C25.5193 11.2127 25.3838 11.1398 25.2363 11.1104L25.2246 11.1074L25.2119 11.1064L25.1113 11.0967L25.0986 11.0957H21.7969L22.5332 7.05176L22.5352 7.04004L22.5361 7.02832L22.5449 6.92773L22.5459 6.91504V6.90234C22.5452 6.85494 22.54 6.80541 22.5293 6.75488C22.5081 6.65553 22.4673 6.562 22.4111 6.48047C22.3828 6.43941 22.3502 6.40101 22.3145 6.36621L22.1973 6.27246C22.1136 6.21835 22.0194 6.18027 21.9199 6.16211ZM13.2568 12.6279L19.9668 12.625L18.7432 19.3613L12.0332 19.3643L13.2568 12.6279Z" fill="#0F0F0F"/>
<path d="M25 2.25H7C5.74074 2.25138 4.53304 2.75211 3.64258 3.64258C2.7522 4.53302 2.25138 5.74079 2.25 7V25L2.25586 25.2354C2.31523 26.4089 2.80773 27.5226 3.64258 28.3574C4.53302 29.2478 5.74079 29.7486 7 29.75H25C26.2592 29.7486 27.467 29.2478 28.3574 28.3574C29.2478 27.467 29.7486 26.2592 29.75 25V7L29.7441 6.76465C29.6848 5.59104 29.1922 4.47746 28.3574 3.64258C27.467 2.75211 26.2593 2.25137 25 2.25ZM7 3.75H25L25.1611 3.75391C25.964 3.79473 26.7257 4.13196 27.2969 4.70312C27.9061 5.31237 28.2489 6.13847 28.25 7V25L28.2461 25.1611C28.2052 25.964 27.868 26.7258 27.2969 27.2969C26.6876 27.9061 25.8615 28.2489 25 28.25H7C6.13847 28.2489 5.31237 27.9061 4.70312 27.2969C4.09394 26.6877 3.75119 25.8615 3.75 25V7L3.75391 6.83887C3.79474 6.03601 4.13202 5.27429 4.70312 4.70312C5.31238 4.09387 6.1384 3.75113 7 3.75Z" fill="#0F0F0F"/>
</svg>
