<svg width="32" height="32" viewBox="0 0 32 32" fill="none" xmlns="http://www.w3.org/2000/svg">
<path d="M18.0001 26.4995C17.9985 26.6316 17.9454 26.7579 17.8519 26.8513C17.7585 26.9448 17.6322 26.9979 17.5001 26.9995H14.5001C14.368 26.9979 14.2417 26.9448 14.1483 26.8513C14.0549 26.7579 14.0017 26.6316 14.0001 26.4995L14.0009 18.2322L12.0011 16.2325L12.0001 26.4995C12.0007 27.1623 12.2643 27.7979 12.733 28.2666C13.2017 28.7353 13.8372 28.9989 14.5001 28.9995H17.5001C18.1629 28.9989 18.7985 28.7353 19.2672 28.2666C19.7359 27.7979 19.9995 27.1623 20.0001 26.4995V24.2312L18.0001 22.2313L18.0001 26.4995Z" fill="#0F0F0F"/>
<path d="M29.7072 28.2925L20.0002 18.5855V16.4761C20.6336 15.9158 21.1397 15.2264 21.4847 14.4543C21.8297 13.6822 22.0054 12.8452 22.0002 11.9995C21.9949 11.1572 21.8144 10.3252 21.4703 9.55641C21.1261 8.78759 20.6258 8.09877 20.0012 7.53371L20.0002 5.49953C19.9995 4.83668 19.736 4.20115 19.2672 3.73244C18.7985 3.26373 18.163 3.00014 17.5002 2.99953H14.5002C13.8373 3.00014 13.2018 3.26373 12.7331 3.73244C12.2644 4.20115 12.0008 4.83668 12.0002 5.49953L12.0012 7.52589C11.4542 8.01474 11.0023 8.60044 10.6682 9.25349L3.70715 2.29249C3.52252 2.10679 3.27222 2.00121 3.01036 1.99858C2.7485 1.99595 2.49613 2.09648 2.30781 2.27844C2.11948 2.4604 2.01033 2.70916 2.00396 2.97096C1.99758 3.23275 2.09449 3.48653 2.27374 3.67744C2.28198 3.68623 2.28448 3.69795 2.29309 3.70656L28.2931 29.7066C28.3859 29.7994 28.4962 29.8731 28.6175 29.9233C28.7388 29.9736 28.8688 29.9994 29.0001 29.9994C29.1314 29.9994 29.2615 29.9736 29.3828 29.9233C29.5041 29.8731 29.6143 29.7994 29.7072 29.7066C29.8 29.6137 29.8737 29.5035 29.9239 29.3822C29.9742 29.2609 30 29.1308 30 28.9995C30 28.8682 29.9742 28.7382 29.9239 28.6169C29.8737 28.4956 29.8 28.3853 29.7072 28.2925ZM12.2076 10.793C12.451 9.99859 12.9384 9.30102 13.6007 8.79935C13.7247 8.70609 13.8253 8.58529 13.8946 8.4465C13.9639 8.3077 14.0001 8.15469 14.0001 7.99955V5.49955C14.0017 5.36743 14.0549 5.24117 14.1483 5.14774C14.2417 5.05432 14.368 5.00113 14.5001 4.99955H17.5001C17.6322 5.00113 17.7585 5.05432 17.8519 5.14774C17.9454 5.24117 17.9985 5.36743 18.0001 5.49955L18.0011 8.00055C18.0011 8.15416 18.0365 8.30571 18.1046 8.4434C18.1727 8.5811 18.2716 8.70125 18.3937 8.7945C18.8883 9.17072 19.2902 9.65516 19.5687 10.2107C19.8471 10.7663 19.9947 11.3782 20.0001 11.9996C20.0046 12.6209 19.8623 13.2344 19.5849 13.7904C19.3074 14.3463 18.9026 14.8288 18.4035 15.1988C18.2783 15.2919 18.1767 15.413 18.1067 15.5524C18.0367 15.6917 18.0002 15.8456 18.0001 16.0015V16.5855L12.2076 10.793Z" fill="#0F0F0F"/>
<path d="M16.0001 13.25C16.6904 13.25 17.2501 12.6904 17.2501 12C17.2501 11.3097 16.6904 10.75 16.0001 10.75C15.3097 10.75 14.7501 11.3097 14.7501 12C14.7501 12.6904 15.3097 13.25 16.0001 13.25Z" fill="#0F0F0F"/>
</svg>
