<svg width="32" height="32" viewBox="0 0 32 32" fill="none" xmlns="http://www.w3.org/2000/svg">
<path d="M27.0605 11C28.9533 11.0003 30.3729 12.7319 30.002 14.5879L27.8018 25.5879C27.5213 26.99 26.2902 27.9998 24.8604 28H7.93945C6.04674 27.9997 4.62714 26.2681 4.99805 24.4121L7.19824 13.4121C7.4787 12.01 8.70979 11.0002 10.1396 11H27.0605Z" fill="#0F0F0F"/>
<path d="M10.6318 4C11.3583 3.99943 12.0763 4.15718 12.7354 4.46289C13.3946 4.76871 13.9794 5.21526 14.4482 5.77051L15.1953 6.64844C15.2889 6.75854 15.405 6.84754 15.5361 6.9082C15.6675 6.9689 15.8114 7.00009 15.9561 7H23C24.1778 7.00291 25.3167 7.42182 26.2158 8.18262C26.5043 8.42676 26.7616 8.70165 26.9854 9H9.31641C7.40797 9.0003 5.76539 10.3488 5.39355 12.2207L2.8125 25.2207C2.78517 25.3584 2.76579 25.4956 2.75293 25.6318C2.26652 24.8475 2.0011 23.9378 2 23V9C2.00156 7.6744 2.52848 6.40316 3.46582 5.46582C4.40316 4.52848 5.6744 4.00156 7 4H10.6318Z" fill="#0F0F0F"/>
</svg>
