<svg width="32" height="32" viewBox="0 0 32 32" fill="none" xmlns="http://www.w3.org/2000/svg">
<path d="M29 2.00041H21C20.7347 2.00041 20.4804 2.10577 20.2928 2.29331C20.1053 2.48084 20 2.7352 20 3.00041C20 3.26563 20.1053 3.51998 20.2928 3.70752C20.4804 3.89505 20.7347 4.00041 21 4.00041H26.5834L18.2929 12.2934C18.2001 12.3863 18.1264 12.4965 18.0762 12.6178C18.0259 12.7391 18.0001 12.8691 18.0001 13.0004C18.0001 13.1318 18.0259 13.2618 18.0762 13.3831C18.1264 13.5044 18.2001 13.6146 18.293 13.7075C18.3858 13.8003 18.496 13.874 18.6173 13.9242C18.7387 13.9745 18.8687 14.0003 19 14.0003C19.1313 14.0003 19.2613 13.9745 19.3826 13.9242C19.5039 13.8739 19.6142 13.8003 19.707 13.7074L28 5.41203V11.0004C28 11.2656 28.1054 11.52 28.2929 11.7075C28.4804 11.8951 28.7348 12.0004 29 12.0004C29.2652 12.0004 29.5196 11.8951 29.7071 11.7075C29.8947 11.52 30 11.2656 30 11.0004V3.00041C30 2.86908 29.9742 2.73902 29.924 2.61767C29.8737 2.49633 29.8 2.38607 29.7072 2.29321C29.6143 2.20034 29.504 2.12668 29.3827 2.07645C29.2613 2.02621 29.1313 2.00037 29 2.00041Z" fill="#0F0F0F"/>
<path d="M24.172 27.577C22.3711 29.3779 16.1032 29.8385 9.10736 22.8427C2.11155 15.8469 2.57211 9.57892 4.37306 7.77804L5.41027 6.74083C6.0162 6.13624 6.83721 5.7967 7.69318 5.7967C8.54914 5.7967 9.37015 6.13624 9.97608 6.74083L12.4088 9.17358C13.023 9.78147 13.3756 10.605 13.3918 11.469C13.4079 12.333 13.0862 13.1691 12.4951 13.7995L11.3274 14.9658C11.6188 16.3538 12.324 17.6209 13.35 18.6001C14.3297 19.6265 15.5984 20.3307 16.9877 20.6192L18.1451 19.4618C18.7461 18.8591 19.5616 18.5195 20.4128 18.5173C21.2639 18.5151 22.0812 18.8505 22.6853 19.4501L25.2092 21.974C25.8138 22.5799 26.1534 23.4009 26.1534 24.2569C26.1534 25.1128 25.8138 25.9339 25.2092 26.5398L24.172 27.577Z" fill="#0F0F0F"/>
</svg>
