<svg width="32" height="32" viewBox="0 0 32 32" fill="none" xmlns="http://www.w3.org/2000/svg">
<path d="M3.41364 16L14.7066 4.707C14.8895 4.51851 14.9908 4.26569 14.9888 4.00311C14.9868 3.74054 14.8816 3.48929 14.6959 3.30362C14.5102 3.11795 14.259 3.01277 13.9964 3.01078C13.7338 3.00879 13.481 3.11016 13.2925 3.293L1.29254 15.293C1.10507 15.4805 0.999756 15.7348 0.999756 16C0.999756 16.2652 1.10507 16.5195 1.29254 16.707L13.2925 28.707C13.3849 28.8022 13.4952 28.878 13.6171 28.9302C13.739 28.9823 13.8701 29.0097 14.0027 29.0107C14.1353 29.0117 14.2668 28.9864 14.3895 28.9361C14.5122 28.8858 14.6237 28.8116 14.7174 28.7179C14.8112 28.6241 14.8854 28.5127 14.9357 28.39C14.9859 28.2673 15.0113 28.1358 15.0103 28.0032C15.0093 27.8706 14.9819 27.7395 14.9298 27.6176C14.8777 27.4957 14.8018 27.3853 14.7066 27.293L3.41364 16Z" fill="#0F0F0F"/>
<path d="M15.4136 16L26.7066 4.707C26.8018 4.61467 26.8777 4.50433 26.9298 4.38241C26.9819 4.26048 27.0093 4.12941 27.0103 3.99681C27.0113 3.86421 26.9859 3.73274 26.9357 3.61004C26.8854 3.48734 26.8112 3.37587 26.7174 3.28211C26.6237 3.18835 26.5122 3.11418 26.3895 3.0639C26.2668 3.01363 26.1353 2.98826 26.0027 2.98927C25.8701 2.99028 25.739 3.01766 25.6171 3.0698C25.4952 3.12195 25.3849 3.19781 25.2925 3.293L13.2925 15.293C13.1051 15.4805 12.9998 15.7348 12.9998 16C12.9998 16.2652 13.1051 16.5195 13.2925 16.707L25.2925 28.707C25.3849 28.8022 25.4952 28.878 25.6171 28.9302C25.739 28.9823 25.8701 29.0097 26.0027 29.0107C26.1353 29.0117 26.2668 28.9864 26.3895 28.9361C26.5122 28.8858 26.6237 28.8116 26.7174 28.7179C26.8112 28.6241 26.8854 28.5126 26.9357 28.39C26.9859 28.2673 27.0113 28.1358 27.0103 28.0032C27.0093 27.8706 26.9819 27.7395 26.9298 27.6176C26.8777 27.4957 26.8018 27.3853 26.7066 27.293L15.4136 16Z" fill="#0F0F0F"/>
</svg>
