<svg width="32" height="32" viewBox="0 0 32 32" fill="none" xmlns="http://www.w3.org/2000/svg">
<path d="M14.7939 26.6426C14.959 26.8076 15.1748 26.9092 15.416 26.9092C15.9111 26.9092 16.292 26.5283 16.292 26.0332C16.292 25.792 16.2031 25.5635 16.0508 25.4111L6.50391 16.3213L16.0508 7.25684C16.2031 7.0918 16.292 6.85059 16.292 6.62207C16.292 6.12695 15.9111 5.74609 15.416 5.74609C15.1748 5.74609 14.9717 5.84766 14.7939 6.0127L4.66309 15.6357C4.47266 15.8262 4.3457 16.0674 4.3457 16.334C4.3457 16.6006 4.45996 16.8164 4.66309 17.0195L14.7939 26.6426ZM26.1309 26.6426C26.3086 26.8076 26.5117 26.9092 26.7656 26.9092C27.2607 26.9092 27.6416 26.5283 27.6416 26.0332C27.6416 25.792 27.54 25.5635 27.3877 25.4111L17.8408 16.3213L27.3877 7.25684C27.54 7.0918 27.6416 6.85059 27.6416 6.62207C27.6416 6.12695 27.2607 5.74609 26.7656 5.74609C26.5117 5.74609 26.3086 5.84766 26.1436 6.0127L16.0127 15.6357C15.8096 15.8262 15.6826 16.0674 15.6826 16.334C15.6826 16.6006 15.8096 16.8164 16 17.0195L26.1309 26.6426Z" fill="black"/>
</svg>
