<svg width="32" height="32" viewBox="0 0 32 32" fill="none" xmlns="http://www.w3.org/2000/svg">
<path d="M30.53 15.47L18.53 3.47C18.461 3.39735 18.3783 3.33924 18.2865 3.29909C18.1948 3.25895 18.096 3.23758 17.9958 3.23624C17.8957 3.23491 17.7963 3.25364 17.7035 3.29133C17.6108 3.32902 17.5265 3.38491 17.4557 3.4557C17.3848 3.52648 17.3289 3.61074 17.2912 3.70349C17.2534 3.79624 17.2346 3.89561 17.2359 3.99574C17.2372 4.09586 17.2585 4.19472 17.2986 4.28648C17.3387 4.37824 17.3967 4.46104 17.4694 4.53L28.9391 16L17.4691 27.47C17.3972 27.5391 17.3398 27.6219 17.3003 27.7135C17.2608 27.8051 17.2399 27.9037 17.239 28.0034C17.238 28.1032 17.257 28.2021 17.2947 28.2944C17.3325 28.3867 17.3883 28.4706 17.4588 28.5411C17.5294 28.6116 17.6133 28.6673 17.7057 28.705C17.798 28.7427 17.897 28.7616 17.9967 28.7605C18.0965 28.7595 18.195 28.7386 18.2866 28.699C18.3781 28.6594 18.4609 28.6019 18.53 28.53L30.53 16.53C30.6704 16.3894 30.7493 16.1987 30.7493 16C30.7493 15.8012 30.6704 15.6106 30.53 15.47Z" fill="#0F0F0F"/>
<path d="M18.53 15.47L6.52995 3.47C6.38818 3.33535 6.19942 3.26139 6.00391 3.26388C5.8084 3.26637 5.62159 3.34512 5.48329 3.48334C5.34499 3.62156 5.26614 3.80833 5.26354 4.00384C5.26093 4.19935 5.33478 4.38815 5.46935 4.53L16.9391 16L5.46935 27.47C5.39675 27.539 5.33868 27.6218 5.29859 27.7135C5.25849 27.8053 5.23718 27.9041 5.2359 28.0043C5.23462 28.1044 5.25341 28.2038 5.29115 28.2965C5.3289 28.3893 5.38483 28.4735 5.45566 28.5443C5.52649 28.6151 5.61077 28.671 5.70354 28.7087C5.79632 28.7464 5.8957 28.7651 5.99582 28.7638C6.09595 28.7624 6.1948 28.7411 6.28653 28.7009C6.37827 28.6608 6.46104 28.6026 6.52995 28.53L18.53 16.53C18.6704 16.3894 18.7493 16.1987 18.7493 16C18.7493 15.8012 18.6704 15.6106 18.53 15.47Z" fill="#0F0F0F"/>
</svg>
