<svg width="32" height="32" viewBox="0 0 32 32" fill="none" xmlns="http://www.w3.org/2000/svg">
<path d="M30.7068 15.2931L18.7068 3.2931C18.5183 3.11027 18.2655 3.0089 18.003 3.01089C17.7404 3.01287 17.4891 3.11806 17.3034 3.30372C17.1178 3.48939 17.0126 3.74064 17.0106 4.00322C17.0085 4.26579 17.1099 4.51862 17.2927 4.7071L28.5857 16L17.2927 27.293C17.1975 27.3853 17.1217 27.4957 17.0695 27.6176C17.0174 27.7395 16.99 27.8706 16.989 28.0032C16.988 28.1358 17.0134 28.2673 17.0637 28.39C17.114 28.5127 17.1882 28.6241 17.2819 28.7179C17.3757 28.8116 17.4872 28.8858 17.6099 28.9361C17.7326 28.9864 17.8641 29.0117 17.9967 29.0107C18.1293 29.0097 18.2603 28.9823 18.3822 28.9302C18.5042 28.8781 18.6145 28.8022 18.7068 28.707L30.7068 16.707C30.8943 16.5195 30.9996 16.2652 30.9996 16.0001C30.9996 15.7349 30.8943 15.4806 30.7068 15.2931Z" fill="#0F0F0F"/>
<path d="M18.7068 15.2931L6.70682 3.2931C6.51835 3.11027 6.26553 3.0089 6.00295 3.01089C5.74038 3.01287 5.48912 3.11806 5.30344 3.30372C5.11776 3.48939 5.01256 3.74064 5.01055 4.00322C5.00854 4.26579 5.1099 4.51862 5.29272 4.7071L16.5857 16L5.29272 27.2931C5.19754 27.3854 5.12168 27.4958 5.06955 27.6177C5.01741 27.7396 4.99005 27.8707 4.98904 28.0033C4.98804 28.1359 5.01342 28.2674 5.0637 28.3901C5.11398 28.5128 5.18817 28.6242 5.28193 28.718C5.3757 28.8117 5.48718 28.8859 5.60988 28.9362C5.73258 28.9865 5.86406 29.0118 5.99665 29.0108C6.12925 29.0098 6.26032 28.9824 6.38224 28.9303C6.50416 28.8782 6.61449 28.8023 6.70682 28.7071L18.7068 16.7071C18.8943 16.5196 18.9996 16.2653 18.9996 16.0001C18.9996 15.7349 18.8943 15.4806 18.7068 15.2931Z" fill="#0F0F0F"/>
</svg>
