<svg width="32" height="32" viewBox="0 0 32 32" fill="none" xmlns="http://www.w3.org/2000/svg">
<path d="M11.0011 16.9991C10.3117 17.0001 9.6301 17.1447 8.99972 17.4238C8.23855 17.0887 7.40582 16.9487 6.57693 17.0166C5.74804 17.0845 4.94917 17.3581 4.25267 17.8126C3.55617 18.267 2.98403 18.8881 2.58807 19.6194C2.1921 20.3508 1.98482 21.1694 1.98499 22.001C1.98515 22.8327 2.19276 23.6512 2.58902 24.3824C2.98528 25.1136 3.55766 25.7344 4.25435 26.1886C4.95103 26.6428 5.75 26.9161 6.57892 26.9836C7.40784 27.0512 8.24052 26.9109 9.00155 26.5755C9.68247 26.8732 10.4212 27.0153 11.164 26.9915C11.9068 26.9677 12.6349 26.7785 13.2953 26.4377C13.9557 26.0969 14.5318 25.6131 14.9817 25.0215C15.4315 24.43 15.7437 23.7455 15.8956 23.0181C16.0475 22.2906 16.0353 21.5384 15.8597 20.8163C15.6842 20.0941 15.3498 19.4202 14.881 18.8436C14.4121 18.267 13.8205 17.8023 13.1494 17.4832C12.4782 17.1641 11.7443 16.9988 11.0011 16.9991ZM10.0001 22.0001C9.99899 22.4194 9.90943 22.8337 9.73731 23.2161C9.56519 23.5984 9.31437 23.9401 9.00122 24.2189C8.68693 23.941 8.43525 23.5994 8.26284 23.2168C8.09043 22.8343 8.00122 22.4195 8.00111 21.9999C8.001 21.5803 8.08999 21.1655 8.2622 20.7828C8.43441 20.4002 8.68591 20.0585 9.00005 19.7803C9.31353 20.0592 9.56464 20.401 9.73697 20.7835C9.90931 21.166 9.99896 21.5806 10.0001 22.0001ZM4.00012 22.0001C4.00099 21.2048 4.31734 20.4422 4.87976 19.8798C5.44218 19.3174 6.20474 19.001 7.00012 19.0001L7.02386 19.0025C6.36054 19.861 6.00083 20.9154 6.00109 22.0003C6.00136 23.0852 6.36159 24.1394 7.02533 24.9976C7.01672 24.9976 7.00878 25.0001 7.00012 25.0001C6.20474 24.9993 5.44219 24.6829 4.87978 24.1205C4.31736 23.5581 4.00099 22.7955 4.00012 22.0001ZM11.0011 24.9991L10.9774 24.9968C11.6407 24.1382 12.0004 23.0839 12.0001 21.999C11.9999 20.9141 11.6396 19.8599 10.9759 19.0018C10.9845 19.0017 10.9925 18.9992 11.0011 18.9992C11.7968 18.9992 12.5598 19.3153 13.1224 19.8779C13.6851 20.4405 14.0011 21.2035 14.0011 21.9992C14.0011 22.7948 13.6851 23.5579 13.1224 24.1205C12.5598 24.6831 11.7968 24.9991 11.0011 24.9991Z" fill="#0F0F0F"/>
<path d="M29.0509 9.298C28.7612 9.11834 28.4302 9.01601 28.0896 9.00079C27.749 8.98557 27.4102 9.05798 27.1056 9.21109C27.075 9.22626 27.0454 9.24322 27.0168 9.26187L23.9982 11.181V10.004C23.9966 8.67839 23.4694 7.40753 22.532 6.47018C21.5947 5.53284 20.3238 5.00555 18.9982 5.004H6.99819C5.67259 5.00556 4.40173 5.53284 3.46438 6.47019C2.52704 7.40753 1.99975 8.67839 1.99819 10.004L2.00019 15.0001C2.00016 15.1314 2.026 15.2615 2.07625 15.3828C2.12649 15.5042 2.20015 15.6144 2.29301 15.7073C2.38588 15.8001 2.49613 15.8738 2.61747 15.924C2.73881 15.9743 2.86886 16.0001 3.00019 16.0001C3.26533 16 3.52004 15.8945 3.70747 15.707C3.8949 15.5195 4.00019 15.2652 4.00019 15.0001L3.99819 10.004C3.99906 9.20861 4.31541 8.44606 4.87783 7.88364C5.44025 7.32121 6.20281 7.00487 6.99819 7.004H18.9982C19.7936 7.00487 20.5561 7.32121 21.1186 7.88364C21.681 8.44606 21.9973 9.20861 21.9982 10.004V22.004C21.9975 22.7988 21.6818 23.5609 21.1202 24.1232C20.5586 24.6856 19.7969 25.0023 19.0021 25.004L18.0041 25.0001H18.0002C17.735 24.9996 17.4804 25.1044 17.2925 25.2916C17.1046 25.4788 16.9988 25.7329 16.9983 25.9981C16.9977 26.2633 17.1026 26.5179 17.2898 26.7058C17.4769 26.8937 17.7311 26.9996 17.9963 27.0001L18.9983 27.004C20.3239 27.0024 21.5948 26.4752 22.5321 25.5378C23.4694 24.6005 23.9967 23.3296 23.9983 22.004V20.8193L27.0168 22.7384C27.0457 22.7571 27.0757 22.774 27.1066 22.7892C27.4115 22.9415 27.7503 23.0134 28.0908 22.998C28.4312 22.9826 28.7622 22.8804 29.0521 22.7012C29.342 22.522 29.5812 22.2716 29.7472 21.9739C29.9131 21.6761 30.0002 21.341 30.0002 21.0001V11.0001C30.0015 10.6588 29.9149 10.3228 29.7486 10.0247C29.5824 9.72651 29.3421 9.47625 29.0509 9.298ZM27.9992 20.9933L23.9982 18.45V13.5502L28.0002 11.006L27.9992 20.9933Z" fill="#0F0F0F"/>
</svg>
