<svg width="32" height="32" viewBox="0 0 32 32" fill="none" xmlns="http://www.w3.org/2000/svg">
<path d="M13 5.70801V5.25C13.4142 5.25 13.75 5.58579 13.75 6C13.75 6.41421 13.4142 6.74902 13 6.74902L13.001 6.75H13.0029C12.9985 6.75012 12.989 6.75018 12.9746 6.75098C12.9454 6.7526 12.8964 6.75687 12.8311 6.76465C12.7001 6.78024 12.5036 6.81229 12.2637 6.87891C11.7839 7.01217 11.1343 7.28137 10.4805 7.82617C9.19723 8.89554 7.75 11.1552 7.75 16C7.75 20.8448 9.19723 23.1045 10.4805 24.1738C11.1343 24.7186 11.7839 24.9878 12.2637 25.1211C12.5036 25.1877 12.7001 25.2198 12.8311 25.2354C12.8964 25.2431 12.9454 25.2474 12.9746 25.249C12.989 25.2498 12.9985 25.2499 13.0029 25.25H13C13.4142 25.25 13.75 25.5858 13.75 26C13.75 26.4142 13.4142 26.75 13 26.75V26C13 26.7138 13.0006 26.7483 13 26.75H12.9854C12.9792 26.7499 12.9717 26.7493 12.9629 26.749C12.9446 26.7485 12.92 26.7477 12.8906 26.7461C12.832 26.7428 12.7517 26.7373 12.6533 26.7256C12.4563 26.7021 12.1837 26.6559 11.8613 26.5664C11.2162 26.3871 10.3655 26.0311 9.51953 25.3262C7.80284 23.8955 6.25 21.155 6.25 16C6.25 10.845 7.80284 8.10452 9.51953 6.67383C10.3655 5.96888 11.2162 5.61286 11.8613 5.43359C12.1837 5.34405 12.4563 5.29788 12.6533 5.27441C12.7517 5.2627 12.832 5.25717 12.8906 5.25391C12.92 5.25228 12.9446 5.25147 12.9629 5.25098C12.9717 5.25074 12.9792 5.25008 12.9854 5.25H13C13.0005 5.2514 12.9999 5.27607 13 5.70801Z" fill="#0F0F0F"/>
<path d="M19.0146 5.25C19.0208 5.25008 19.0283 5.25074 19.0371 5.25098C19.0554 5.25147 19.08 5.25228 19.1094 5.25391C19.168 5.25717 19.2483 5.2627 19.3467 5.27441C19.5437 5.29788 19.8163 5.34406 20.1387 5.43359C20.7838 5.61285 21.6345 5.96889 22.4805 6.67383C24.1972 8.10451 25.75 10.845 25.75 16C25.75 21.155 24.1972 23.8955 22.4805 25.3262C21.6345 26.0311 20.7838 26.3871 20.1387 26.5664C19.8163 26.6559 19.5437 26.7021 19.3467 26.7256C19.2483 26.7373 19.168 26.7428 19.1094 26.7461C19.08 26.7477 19.0554 26.7485 19.0371 26.749C19.0283 26.7493 19.0208 26.7499 19.0146 26.75H19.001C19.0004 26.7484 19 26.7142 19 26L19.001 26.75C18.5868 26.75 18.25 26.4142 18.25 26C18.25 25.5858 18.5858 25.25 19 25.25H18.9971C19.0015 25.2499 19.011 25.2498 19.0254 25.249C19.0546 25.2474 19.1036 25.2431 19.1689 25.2354C19.2999 25.2198 19.4964 25.1877 19.7363 25.1211C20.2161 24.9878 20.8657 24.7186 21.5195 24.1738C22.8028 23.1045 24.25 20.8448 24.25 16C24.25 11.1552 22.8028 8.89553 21.5195 7.82617C20.8657 7.28137 20.2161 7.01217 19.7363 6.87891C19.4964 6.81229 19.2999 6.78024 19.1689 6.76465C19.1036 6.75687 19.0546 6.7526 19.0254 6.75098C19.011 6.75018 19.0015 6.75012 18.9971 6.75H18.999L19 6.74902C18.5858 6.74902 18.25 6.41421 18.25 6C18.25 5.58579 18.5858 5.25 19 5.25V5.70801C19.0001 5.27584 18.9995 5.25137 19 5.25H19.0146Z" fill="#0F0F0F"/>
</svg>
