<svg width="32" height="32" viewBox="0 0 32 32" fill="none" xmlns="http://www.w3.org/2000/svg">
<path d="M13 5.80566V5.5C13.2761 5.5 13.5 5.72386 13.5 6C13.5 6.27614 13.2761 6.49902 13 6.49902L13.001 6.5H12.9961C12.9893 6.50018 12.9769 6.50101 12.96 6.50195C12.9259 6.50385 12.8722 6.50725 12.8018 6.51562C12.6597 6.53254 12.4501 6.5672 12.1963 6.6377C11.689 6.77861 11.0061 7.06234 10.3203 7.63379C8.96482 8.76337 7.5 11.1035 7.5 16C7.5 20.8965 8.96482 23.2366 10.3203 24.3662C11.0061 24.9377 11.689 25.2214 12.1963 25.3623C12.4501 25.4328 12.6597 25.4675 12.8018 25.4844C12.8722 25.4927 12.9259 25.4961 12.96 25.498C12.9769 25.499 12.9893 25.4998 12.9961 25.5H13C13.2761 25.5 13.5 25.7239 13.5 26C13.5 26.2761 13.2761 26.5 13 26.5V26C13 26.5 13.0005 26.5 13 26.5H12.9697C12.9538 26.4996 12.932 26.4986 12.9053 26.4971C12.8515 26.4941 12.7757 26.4876 12.6826 26.4766C12.4966 26.4544 12.2371 26.4109 11.9287 26.3252C11.3111 26.1536 10.4937 25.8122 9.67969 25.1338C8.03528 23.7633 6.5 21.1032 6.5 16C6.5 10.8968 8.03528 8.23671 9.67969 6.86621C10.4937 6.18783 11.3111 5.84638 11.9287 5.6748C12.2371 5.58913 12.4966 5.54561 12.6826 5.52344C12.7757 5.51235 12.8515 5.50592 12.9053 5.50293C12.932 5.50145 12.9538 5.50043 12.9697 5.5H13C13.0004 5.5 12.9999 5.5 13 5.80566ZM19.0303 5.5C19.0462 5.50043 19.068 5.50145 19.0947 5.50293C19.1485 5.50592 19.2243 5.51235 19.3174 5.52344C19.5034 5.54561 19.7629 5.58913 20.0713 5.6748C20.6889 5.84637 21.5063 6.18784 22.3203 6.86621C23.9647 8.23671 25.5 10.8968 25.5 16C25.5 21.1032 23.9647 23.7633 22.3203 25.1338C21.5063 25.8122 20.6889 26.1536 20.0713 26.3252C19.7629 26.4109 19.5034 26.4544 19.3174 26.4766C19.2243 26.4876 19.1485 26.4941 19.0947 26.4971C19.068 26.4985 19.0462 26.4996 19.0303 26.5H19.001C19.0005 26.5 19 26.5 19 26L19.001 26.5C18.7248 26.5 18.5 26.2761 18.5 26C18.5 25.7239 18.7239 25.5 19 25.5H19.0039C19.0107 25.4998 19.0231 25.499 19.04 25.498C19.0741 25.4961 19.1278 25.4927 19.1982 25.4844C19.3403 25.4675 19.5499 25.4328 19.8037 25.3623C20.311 25.2214 20.9939 24.9377 21.6797 24.3662C23.0352 23.2366 24.5 20.8966 24.5 16C24.5 11.1035 23.0352 8.76336 21.6797 7.63379C20.9939 7.06234 20.311 6.77861 19.8037 6.6377C19.5499 6.5672 19.3403 6.53253 19.1982 6.51562C19.1278 6.50725 19.0741 6.50385 19.04 6.50195C19.0231 6.50101 19.0107 6.50018 19.0039 6.5H18.999L19 6.49902C18.7239 6.49902 18.5 6.27614 18.5 6C18.5 5.72386 18.7239 5.5 19 5.5V5.80566C19.0001 5.5 18.9996 5.5 19 5.5H19.0303Z" fill="#0F0F0F"/>
</svg>
