<svg width="32" height="32" viewBox="0 0 32 32" fill="none" xmlns="http://www.w3.org/2000/svg">
<path d="M13.417 9.5C14.4056 9.50016 15.333 10.2088 15.333 11.2275V17.7725C15.333 18.7912 14.4056 19.4998 13.417 19.5C12.4282 19.5 11.5 18.7914 11.5 17.7725V11.2275C11.5 10.2086 12.4282 9.5 13.417 9.5ZM13.417 10.5C12.841 10.5 12.5 10.8908 12.5 11.2275V17.7725C12.5 18.1092 12.841 18.5 13.417 18.5C13.9928 18.4999 14.333 18.1091 14.333 17.7725V11.2275C14.333 10.8909 13.9928 10.5001 13.417 10.5Z" fill="#0F0F0F"/>
<path d="M19.084 9.5C20.0725 9.50031 21 10.2089 21 11.2275V17.7725C21 18.7911 20.0725 19.4997 19.084 19.5C18.0952 19.5 17.167 18.7914 17.167 17.7725V11.2275C17.167 10.2086 18.0952 9.5 19.084 9.5ZM19.084 10.5C18.5079 10.5 18.167 10.8908 18.167 11.2275V17.7725C18.167 18.1092 18.5079 18.5 19.084 18.5C19.6596 18.4997 20 18.109 20 17.7725V11.2275C20 10.891 19.6596 10.5003 19.084 10.5Z" fill="#0F0F0F"/>
<path d="M27.1797 4.50488C29.0292 4.59842 30.5 6.12727 30.5 8V22C30.5 23.8727 29.0292 25.4016 27.1797 25.4951L27 25.5H12.4258L7.125 29.7412C6.51083 30.2322 5.61964 29.8522 5.51074 29.1123L5.5 28.96V25.5H5C3.12727 25.5 1.59842 24.0292 1.50488 22.1797L1.5 22V8C1.5 6.067 3.067 4.5 5 4.5H27L27.1797 4.50488ZM5 5.5C3.61929 5.5 2.5 6.61929 2.5 8V22L2.5127 22.2559C2.64082 23.5164 3.70566 24.5 5 24.5H6C6.27614 24.5 6.5 24.7239 6.5 25V28.96L11.9375 24.6094L12.0078 24.5625C12.0815 24.5217 12.1648 24.5 12.25 24.5H27L27.2559 24.4873C28.5164 24.3592 29.5 23.2943 29.5 22V8C29.5 6.70566 28.5164 5.64082 27.2559 5.5127L27 5.5H5Z" fill="#0F0F0F"/>
</svg>
