<svg width="32" height="32" viewBox="0 0 32 32" fill="none" xmlns="http://www.w3.org/2000/svg">
<path d="M16.0498 1.9502C19.6397 1.9502 22.5498 4.86034 22.5498 8.4502C22.5497 10.5373 21.5662 12.3947 20.0371 13.584C24.6286 15.0721 28 19.0252 28 23.7881C28 26.2209 26.1293 27.7891 23.9375 28.7021C21.7114 29.6294 18.8229 30.0449 16.0107 30.0459C13.3797 30.097 10.7607 29.6671 8.2832 28.7773L8.26758 28.7715L8.25098 28.7646C6.63095 28.1182 5.55478 27.3057 4.88574 26.4062C4.21023 25.4979 4 24.568 4 23.7881C4.0002 19.0002 7.40618 15.0304 12.0332 13.5605C10.5211 12.3704 9.54987 10.5237 9.5498 8.4502C9.5498 4.86041 12.46 1.95029 16.0498 1.9502ZM15.998 14.9502C10.379 14.9503 6.00025 19.0179 6 23.7881C6 24.1956 6.10443 24.6929 6.49121 25.2129C6.88321 25.7398 7.61418 26.3552 8.97656 26.9014C11.2227 27.7057 13.596 28.0932 15.9805 28.0459H16.001C18.6602 28.0459 21.2669 27.6488 23.1689 26.8564C25.1081 26.0487 26 24.9879 26 23.7881C26 19.0184 21.62 14.9502 15.998 14.9502ZM26.293 2.29297C26.6834 1.90251 27.3165 1.90265 27.707 2.29297L27.708 2.29395L27.71 2.29492L27.7129 2.29883C27.7152 2.30112 27.7185 2.3044 27.7217 2.30762C27.7282 2.3143 27.7371 2.32354 27.7471 2.33398C27.7675 2.3554 27.795 2.38517 27.8281 2.42188C27.895 2.49591 27.9867 2.60057 28.0938 2.73438C28.3077 3.00183 28.5881 3.38886 28.8682 3.87891C29.4259 4.85498 30 6.27621 30 8C30 9.72376 29.4259 11.145 28.8682 12.1211C28.5881 12.6111 28.3077 12.9982 28.0938 13.2656C27.9867 13.3994 27.895 13.5041 27.8281 13.5781C27.795 13.6148 27.7674 13.6446 27.7471 13.666C27.7371 13.6764 27.7282 13.6857 27.7217 13.6924C27.7186 13.6956 27.7151 13.6989 27.7129 13.7012L27.71 13.7051L27.708 13.7061C27.7041 13.7026 27.6543 13.6543 27 13L27.707 13.707C27.3165 14.0973 26.6834 14.0975 26.293 13.707C25.9038 13.3175 25.9028 12.6866 26.29 12.2959L26.292 12.293C26.292 12.293 26.2958 12.2893 26.2979 12.2871C26.3066 12.2779 26.3228 12.2615 26.3438 12.2383C26.3862 12.1913 26.4511 12.1158 26.5312 12.0156C26.6922 11.8144 26.9119 11.5137 27.1318 11.1289C27.5741 10.355 28 9.2762 28 8C28 6.72377 27.5741 5.64503 27.1318 4.87109C26.9119 4.48628 26.6922 4.18562 26.5312 3.98438C26.4511 3.88414 26.3862 3.80869 26.3438 3.76172C26.3227 3.73848 26.3066 3.7221 26.2979 3.71289C26.2955 3.71036 26.293 3.70605 26.293 3.70605C25.9032 3.31558 25.903 2.68329 26.293 2.29297ZM16.0498 3.9502C13.5646 3.95029 11.5498 5.96497 11.5498 8.4502C11.5499 10.9353 13.5647 12.9501 16.0498 12.9502C18.535 12.9502 20.5497 10.9354 20.5498 8.4502C20.5498 5.96491 18.5351 3.9502 16.0498 3.9502ZM23.9453 4.16797C24.4048 3.86165 25.0256 3.98592 25.332 4.44531L25.333 4.44629L25.335 4.44922C25.3361 4.45093 25.3373 4.45361 25.3389 4.45605C25.3421 4.46091 25.3467 4.46703 25.3516 4.47461C25.3617 4.49028 25.375 4.51243 25.3916 4.53906C25.4249 4.59259 25.4708 4.66795 25.5244 4.76172C25.6312 4.94868 25.7728 5.21332 25.9141 5.53125C26.1889 6.14973 26.5 7.04844 26.5 8C26.5 8.95154 26.1889 9.85028 25.9141 10.4688C25.7728 10.7866 25.6312 11.0513 25.5244 11.2383C25.4708 11.332 25.4249 11.4074 25.3916 11.4609C25.3751 11.4875 25.3617 11.5097 25.3516 11.5254C25.3467 11.5329 25.342 11.5391 25.3389 11.5439C25.3373 11.5464 25.3361 11.5491 25.335 11.5508L25.333 11.5527L25.332 11.5547C25.0256 12.014 24.4048 12.1383 23.9453 11.832C23.4867 11.5261 23.3624 10.9065 23.667 10.4473C23.667 10.4473 23.6688 10.4438 23.6709 10.4404C23.6754 10.4335 23.6838 10.4212 23.6943 10.4043C23.7157 10.37 23.7481 10.3161 23.7881 10.2461C23.8687 10.105 23.9773 9.90068 24.0859 9.65625C24.3111 9.14974 24.5 8.54843 24.5 8C24.5 7.45156 24.3111 6.85028 24.0859 6.34375C23.9773 6.09928 23.8687 5.89503 23.7881 5.75391C23.7481 5.68389 23.7157 5.63002 23.6943 5.5957C23.6838 5.57876 23.6754 5.56654 23.6709 5.55957L23.6152 5.4668C23.3784 5.01899 23.5149 4.45521 23.9453 4.16797Z" fill="#0F0F0F"/>
</svg>
