<svg width="32" height="32" viewBox="0 0 32 32" fill="none" xmlns="http://www.w3.org/2000/svg">
<path d="M16.0127 16.5117C13.0547 16.5117 10.6934 13.9219 10.6807 10.6846C10.668 7.53613 13.0801 4.97168 16.0127 4.97168C18.958 4.97168 21.3447 7.51074 21.3447 10.6719C21.3447 13.9092 18.9707 16.5117 16.0127 16.5117ZM16.0127 15.0264C18.0947 15.0264 19.7705 13.1094 19.7705 10.6719C19.7705 8.31055 18.082 6.46973 16.0127 6.46973C13.9434 6.46973 12.2295 8.33594 12.2549 10.6846C12.2549 13.1348 13.9434 15.0264 16.0127 15.0264ZM7.79883 28.1533C5.94531 28.1533 5.05664 27.5566 5.05664 26.2744C5.05664 22.9609 9.2207 18.251 16 18.251C22.7666 18.251 26.9307 22.9609 26.9307 26.2744C26.9307 27.5566 26.0547 28.1533 24.1885 28.1533H7.79883ZM7.40527 26.6553H24.5947C25.166 26.6553 25.3691 26.5156 25.3691 26.1094C25.3691 23.71 21.9668 19.7363 16 19.7363C10.0205 19.7363 6.63086 23.71 6.63086 26.1094C6.63086 26.5156 6.82129 26.6553 7.40527 26.6553Z" fill="black"/>
</svg>
