<svg width="32" height="32" viewBox="0 0 32 32" fill="none" xmlns="http://www.w3.org/2000/svg">
<path d="M8.39636 7.51583C8.39628 6.42495 8.72487 5.35855 9.34057 4.45148C9.95628 3.54441 10.8315 2.83742 11.8554 2.41992C12.8794 2.00242 14.0061 1.89316 15.0932 2.10596C16.1802 2.31876 17.1787 2.84406 17.9625 3.61543C18.7462 4.3868 19.2799 5.36959 19.4961 6.43951C19.7123 7.50944 19.6013 8.61844 19.1771 9.62626C18.7529 10.6341 18.0346 11.4955 17.113 12.1015C16.1914 12.7075 15.108 13.0309 13.9996 13.0308C12.5141 13.0291 11.0898 12.4475 10.0394 11.4136C8.98896 10.3797 8.39807 8.97799 8.39636 7.51583Z" fill="#0F0F0F"/>
<path d="M18.0761 21.3827C18.0258 21.2614 18 21.1313 18 21C18 20.8687 18.0258 20.7386 18.0761 20.6173C18.1263 20.4959 18.2 20.3857 18.2928 20.2928C18.3857 20.2 18.4959 20.1263 18.6173 20.0761C18.7386 20.0258 18.8687 20 19 20H29C29.2652 20 29.5196 20.1054 29.7071 20.2929C29.8946 20.4804 30 20.7348 30 21C30 21.2652 29.8946 21.5196 29.7071 21.7071C29.5196 21.8946 29.2652 22 29 22H19C18.8687 22 18.7386 21.9742 18.6173 21.924C18.4959 21.8737 18.3857 21.8 18.2928 21.7072C18.2 21.6143 18.1263 21.5041 18.0761 21.3827Z" fill="#0F0F0F"/>
<path d="M19 24H29C29.2652 24 29.5196 24.1054 29.7071 24.2929C29.8946 24.4804 30 24.7348 30 25C30 25.2652 29.8946 25.5196 29.7071 25.7071C29.5196 25.8946 29.2652 26 29 26H19C18.7348 26 18.4804 25.8946 18.2929 25.7071C18.1054 25.5196 18 25.2652 18 25C18 24.7348 18.1054 24.4804 18.2929 24.2929C18.4804 24.1054 18.7348 24 19 24Z" fill="#0F0F0F"/>
<path d="M29 28H19C18.7348 28 18.4804 28.1054 18.2929 28.2929C18.1054 28.4804 18 28.7348 18 29C18 29.2652 18.1054 29.5196 18.2929 29.7071C18.4804 29.8946 18.7348 30 19 30H29C29.2652 30 29.5196 29.8946 29.7071 29.7071C29.8946 29.5196 30 29.2652 30 29C30 28.7348 29.8946 28.4804 29.7071 28.2929C29.5196 28.1054 29.2652 28 29 28Z" fill="#0F0F0F"/>
<path d="M15.0004 29C7.8215 29 3 27.1454 3 25.4115C3 19.671 8.38317 15 14.9996 15C18.2767 15 21.2514 16.1459 23.4194 18H19.4286C17.535 18 16 19.4845 16 21.3158C16 21.9974 16.2127 22.631 16.5774 23.1579C16.2127 23.6848 16 24.3184 16 25C16 25.6816 16.2127 26.3152 16.5774 26.8421C16.2127 27.369 16 28.0026 16 28.6842C16 28.7864 16.0048 28.8876 16.0142 28.9875C15.6818 28.9958 15.3438 29 15.0004 29Z" fill="#0F0F0F"/>
</svg>
