<svg width="32" height="32" viewBox="0 0 32 32" fill="none" xmlns="http://www.w3.org/2000/svg">
<path d="M16 12.2502C14.2104 12.2522 12.4947 12.964 11.2293 14.2295C9.96383 15.4949 9.25202 17.2106 9.24998 19.0002V23.0002C9.24998 24.7903 9.96111 26.5072 11.2269 27.773C12.4928 29.0388 14.2096 29.7499 15.9997 29.7499C17.7899 29.7499 19.5067 29.0388 20.7725 27.773C22.0384 26.5072 22.7495 24.7903 22.7495 23.0002V19.0002C22.7476 17.2106 22.0359 15.4949 20.7705 14.2295C19.5052 12.9641 17.7895 12.2522 16 12.2502ZM21.1737 18.2502H16.7505V13.8261C17.8661 13.9883 18.8994 14.5066 19.6965 15.3038C20.4936 16.1011 21.0117 17.1345 21.1737 18.2502ZM15.25 13.8261V18.2502H10.8258C10.9879 17.1344 11.5061 16.1009 12.3034 15.3036C13.1006 14.5064 14.1342 13.9881 15.25 13.8261ZM16 28.2502C14.6081 28.2486 13.2737 27.6949 12.2894 26.7107C11.3052 25.7265 10.7516 24.3921 10.75 23.0002V19.7502H21.2495V23.0002C21.248 24.392 20.6945 25.7264 19.7103 26.7107C18.7262 27.6949 17.3918 28.2486 16 28.2502Z" fill="#0F0F0F"/>
<path d="M25.5298 6.46991C24.2739 5.15804 22.7931 4.08179 21.1577 3.29217C19.5195 2.60311 17.7597 2.24931 15.9825 2.25166C14.2052 2.254 12.4465 2.61245 10.81 3.30584C9.19514 4.10816 7.72765 5.17795 6.46971 6.46991C6.39985 6.5395 6.3444 6.62218 6.30653 6.71322C6.26866 6.80427 6.24912 6.90188 6.24902 7.00049C6.24893 7.09909 6.26828 7.19675 6.30597 7.28787C6.34366 7.37898 6.39895 7.46177 6.46867 7.5315C6.5384 7.60122 6.62119 7.65651 6.7123 7.6942C6.80342 7.73189 6.90108 7.75124 6.99968 7.75114C7.09829 7.75104 7.1959 7.7315 7.28695 7.69363C7.37799 7.65576 7.46067 7.60031 7.53026 7.53045C8.66273 6.36974 9.97931 5.40423 11.4267 4.673C12.8713 4.06983 14.421 3.75835 15.9865 3.75651C17.5519 3.75466 19.1023 4.06249 20.5483 4.66226C22.0151 5.37807 23.3428 6.34927 24.4692 7.53042C24.5388 7.60028 24.6215 7.65573 24.7125 7.6936C24.8036 7.73147 24.9012 7.75101 24.9998 7.75111C25.0984 7.75121 25.1961 7.73186 25.2872 7.69417C25.3783 7.65648 25.4611 7.60119 25.5308 7.53147C25.6005 7.46174 25.6558 7.37895 25.6935 7.28784C25.7312 7.19672 25.7505 7.09906 25.7505 7.00046C25.7504 6.90185 25.7308 6.80424 25.6929 6.71319C25.6551 6.62215 25.5996 6.5395 25.5298 6.46991Z" fill="#0F0F0F"/>
<path d="M20.185 8.09588C18.8543 7.53447 17.4243 7.24661 15.98 7.24947C14.5357 7.25232 13.1068 7.54582 11.7783 8.11248C10.5475 8.70115 9.42802 9.49877 8.46971 10.4699C8.39985 10.5395 8.3444 10.6222 8.30653 10.7132C8.26866 10.8043 8.24912 10.9019 8.24902 11.0005C8.24893 11.0991 8.26828 11.1967 8.30597 11.2879C8.34366 11.379 8.39895 11.4618 8.46867 11.5315C8.5384 11.6012 8.62119 11.6565 8.7123 11.6942C8.80342 11.7319 8.90108 11.7512 8.99968 11.7511C9.09829 11.751 9.1959 11.7315 9.28695 11.6936C9.37799 11.6558 9.46067 11.6003 9.53026 11.5305C10.362 10.6864 11.3327 9.99172 12.3999 9.47674C14.6897 8.52455 17.2634 8.51788 19.5581 9.45819C20.6387 9.97936 21.623 10.68 22.4692 11.5305C22.61 11.6706 22.8005 11.7493 22.9992 11.7491C23.1978 11.7489 23.3883 11.6699 23.5287 11.5294C23.6692 11.389 23.7482 11.1985 23.7484 10.9999C23.7486 10.8012 23.6699 10.6106 23.5298 10.4699C22.5581 9.49392 21.427 8.69103 20.185 8.09588Z" fill="#0F0F0F"/>
</svg>
