<svg width="32" height="32" viewBox="0 0 32 32" fill="none" xmlns="http://www.w3.org/2000/svg">
<path d="M16.0004 12.0002C14.1445 12.0024 12.3653 12.7405 11.053 14.0528C9.74074 15.3651 9.00254 17.1443 9.00038 19.0002V23.0002C9.00038 24.8566 9.73785 26.6371 11.0506 27.9498C12.3633 29.2625 14.1437 29.9999 16.0001 29.9999C17.8566 29.9999 19.637 29.2625 20.9497 27.9498C22.2624 26.6371 22.9999 24.8566 22.9999 23.0002V19.0002C22.9978 17.1444 22.2598 15.3652 20.9475 14.0529C19.6353 12.7406 17.8562 12.0024 16.0004 12.0002ZM20.8988 18.0002H17.0009V14.1013C17.9604 14.2994 18.841 14.7741 19.5337 15.467C20.2264 16.1599 20.701 17.0406 20.8988 18.0002ZM15.0004 14.1013V18.0002H11.1015C11.2993 17.0404 11.774 16.1597 12.4669 15.4667C13.1599 14.7738 14.0406 14.2991 15.0004 14.1013ZM16.0004 28.0002C14.6748 27.9986 13.4039 27.4713 12.4666 26.534C11.5292 25.5967 11.0019 24.3258 11.0004 23.0002V20.0002H20.9999V23.0002C20.9984 24.3257 20.4712 25.5965 19.5339 26.5339C18.5967 27.4712 17.3259 27.9985 16.0004 28.0002Z" fill="#0F0F0F"/>
<path d="M25.7069 6.29316C24.4283 4.95855 22.9207 3.86408 21.2558 3.06171C19.5851 2.35791 17.79 1.99697 15.9772 2.00033C14.1643 2.00368 12.3706 2.37126 10.7025 3.08124C9.06212 3.89546 7.57135 4.98143 6.29335 6.29316C6.2005 6.38601 6.12685 6.49623 6.0766 6.61755C6.02635 6.73886 6.00049 6.86888 6.00049 7.00019C6.00049 7.1315 6.02635 7.26152 6.0766 7.38283C6.12685 7.50415 6.2005 7.61437 6.29335 7.70722C6.3862 7.80007 6.49643 7.87372 6.61774 7.92397C6.73906 7.97422 6.86908 8.00008 7.00039 8.00008C7.13169 8.00008 7.26172 7.97422 7.38303 7.92397C7.50434 7.87372 7.61457 7.80007 7.70742 7.70722C8.81681 6.56904 10.1064 5.62174 11.5243 4.90351C12.9368 4.31467 14.4516 4.01028 15.9818 4.00776C17.5121 4.00525 19.0279 4.30466 20.4423 4.88886C21.883 5.5923 23.1868 6.54665 24.2929 7.70722C24.3856 7.80058 24.4959 7.87472 24.6173 7.92538C24.7388 7.97604 24.869 8.00223 25.0006 8.00245C25.1322 8.00268 25.2625 7.97692 25.3842 7.92666C25.5058 7.87641 25.6163 7.80264 25.7093 7.70959C25.8024 7.61654 25.8761 7.50604 25.9264 7.38442C25.9766 7.26281 26.0024 7.13247 26.0022 7.00088C26.002 6.86929 25.9758 6.73903 25.9251 6.61759C25.8744 6.49614 25.8003 6.38589 25.7069 6.29316Z" fill="#0F0F0F"/>
<path d="M20.2821 7.86542C18.9187 7.28974 17.4532 6.99502 15.9732 6.99888C14.4932 7.00274 13.0292 7.3051 11.6688 7.88789C10.4147 8.49146 9.27293 9.30493 8.29284 10.2932C8.10708 10.4812 8.00329 10.735 8.00413 10.9993C8.00497 11.2636 8.11037 11.5169 8.29732 11.7037C8.48427 11.8905 8.73755 11.9957 9.00185 11.9964C9.26614 11.9971 9.51996 11.8931 9.70784 11.7072C10.5166 10.8858 11.4603 10.2093 12.4978 9.70722C14.7211 8.78705 17.2171 8.77793 19.4471 9.68183C20.5032 10.1915 21.4653 10.8763 22.2928 11.7072C22.4803 11.8947 22.7346 12.0001 22.9998 12.0001C23.265 12.0001 23.5193 11.8947 23.7068 11.7072C23.8943 11.5197 23.9997 11.2654 23.9997 11.0002C23.9997 10.735 23.8943 10.4807 23.7068 10.2932C22.7123 9.29421 21.554 8.47307 20.2821 7.86542Z" fill="#0F0F0F"/>
</svg>
