<svg width="32" height="32" viewBox="0 0 32 32" fill="none" xmlns="http://www.w3.org/2000/svg">
<path d="M10.1855 26.4395C9.18262 26.4395 8.6875 25.957 8.6875 24.9414V7.73926C8.6875 6.72363 9.18262 6.22852 10.1855 6.22852H13.0039C14.0068 6.22852 14.502 6.68555 14.502 7.73926V24.9414C14.502 25.957 14.0068 26.4395 13.0039 26.4395H10.1855ZM18.9961 26.4395C17.9932 26.4395 17.498 25.957 17.498 24.9414V7.73926C17.498 6.72363 17.9932 6.22852 18.9961 6.22852H21.8145C22.8174 6.22852 23.3125 6.68555 23.3125 7.73926V24.9414C23.3125 25.957 22.8174 26.4395 21.8145 26.4395H18.9961Z" fill="black"/>
</svg>
