<svg width="32" height="32" viewBox="0 0 32 32" fill="none" xmlns="http://www.w3.org/2000/svg">
<path d="M19.5 7.5C19.5 5.01472 21.5147 3 24 3C26.4853 3 28.5 5.01472 28.5 7.5C28.5 9.98528 26.4853 12 24 12C23.8092 12 23.6211 11.9881 23.4366 11.9651L21.7991 18.749C23.0889 19.2649 24 20.526 24 22C24 23.933 22.433 25.5 20.5 25.5C18.567 25.5 17 23.933 17 22C17 21.1477 17.3046 20.3666 17.8109 19.7596L14.4567 16.0326C13.6285 16.6408 12.6062 17 11.5 17C11.0854 17 10.6825 16.9495 10.2972 16.8544L8.93518 20.6682C8.8423 20.9282 8.5562 21.0637 8.29614 20.9709C8.03609 20.878 7.90056 20.5919 7.99344 20.3318L9.3555 16.5181C7.66714 15.7152 6.5 13.9939 6.5 12C6.5 9.23858 8.73858 7 11.5 7C14.2614 7 16.5 9.23858 16.5 12C16.5 13.2951 16.0076 14.4753 15.1997 15.3634L18.5541 19.0904C19.1105 18.7175 19.7799 18.5 20.5 18.5C20.6102 18.5 20.7192 18.5051 20.8268 18.5151L22.4643 11.7312C20.7352 11.1034 19.5 9.44596 19.5 7.5ZM24 4C22.067 4 20.5 5.567 20.5 7.5C20.5 9.433 22.067 11 24 11C25.933 11 27.5 9.433 27.5 7.5C27.5 5.567 25.933 4 24 4ZM11.5 8C9.29086 8 7.5 9.79086 7.5 12C7.5 14.2091 9.29086 16 11.5 16C13.7091 16 15.5 14.2091 15.5 12C15.5 9.79086 13.7091 8 11.5 8ZM18 22C18 23.3807 19.1193 24.5 20.5 24.5C21.8807 24.5 23 23.3807 23 22C23 20.6193 21.8807 19.5 20.5 19.5C19.1193 19.5 18 20.6193 18 22Z" fill="#0F0F0F"/>
<path d="M3.5 26C3.5 24.3431 4.84315 23 6.5 23C8.15685 23 9.5 24.3431 9.5 26C9.5 27.6569 8.15685 29 6.5 29C4.84315 29 3.5 27.6569 3.5 26ZM6.5 24C5.39543 24 4.5 24.8954 4.5 26C4.5 27.1046 5.39543 28 6.5 28C7.60457 28 8.5 27.1046 8.5 26C8.5 24.8954 7.60457 24 6.5 24Z" fill="#0F0F0F"/>
</svg>
