<svg width="32" height="32" viewBox="0 0 32 32" fill="none" xmlns="http://www.w3.org/2000/svg">
<path d="M19.25 7.5C19.25 4.87665 21.3766 2.75 24 2.75C26.6234 2.75 28.75 4.87665 28.75 7.5C28.75 10.1234 26.6234 12.25 24 12.25C23.875 12.25 23.751 12.2452 23.6284 12.2357L22.0914 18.6034C23.3668 19.202 24.25 20.4979 24.25 22C24.25 24.0711 22.5711 25.75 20.5 25.75C18.4289 25.75 16.75 24.0711 16.75 22C16.75 21.165 17.0229 20.3937 17.4844 19.7705L14.419 16.3644C13.5843 16.9237 12.5802 17.25 11.5 17.25C11.1434 17.25 10.795 17.2144 10.4583 17.1467L9.17062 20.7523C9.03131 21.1423 8.60215 21.3456 8.21206 21.2063C7.82198 21.067 7.61869 20.6378 7.75801 20.2477L9.04571 16.6422C7.38282 15.7612 6.25 14.0129 6.25 12C6.25 9.1005 8.6005 6.75 11.5 6.75C14.3995 6.75 16.75 9.1005 16.75 12C16.75 13.2784 16.2931 14.4501 15.5336 15.3606L18.5992 18.7668C19.1565 18.4384 19.8063 18.25 20.5 18.25C20.5445 18.25 20.5889 18.2508 20.633 18.2523L22.1701 11.8847C20.4551 11.1681 19.25 9.47481 19.25 7.5ZM24 4.25C22.2051 4.25 20.75 5.70507 20.75 7.5C20.75 9.29493 22.2051 10.75 24 10.75C25.7949 10.75 27.25 9.29493 27.25 7.5C27.25 5.70507 25.7949 4.25 24 4.25ZM11.5 8.25C9.42893 8.25 7.75 9.92893 7.75 12C7.75 14.0711 9.42893 15.75 11.5 15.75C13.5711 15.75 15.25 14.0711 15.25 12C15.25 9.92893 13.5711 8.25 11.5 8.25ZM18.25 22C18.25 23.2426 19.2574 24.25 20.5 24.25C21.7426 24.25 22.75 23.2426 22.75 22C22.75 20.7574 21.7426 19.75 20.5 19.75C19.2574 19.75 18.25 20.7574 18.25 22Z" fill="#0F0F0F"/>
<path d="M3.25 26C3.25 24.2051 4.70507 22.75 6.5 22.75C8.29493 22.75 9.75 24.2051 9.75 26C9.75 27.7949 8.29493 29.25 6.5 29.25C4.70507 29.25 3.25 27.7949 3.25 26ZM6.5 24.25C5.5335 24.25 4.75 25.0335 4.75 26C4.75 26.9665 5.5335 27.75 6.5 27.75C7.4665 27.75 8.25 26.9665 8.25 26C8.25 25.0335 7.4665 24.25 6.5 24.25Z" fill="#0F0F0F"/>
</svg>
