<svg width="32" height="32" viewBox="0 0 32 32" fill="none" xmlns="http://www.w3.org/2000/svg">
<path fill-rule="evenodd" clip-rule="evenodd" d="M11.5088 2C14.2703 2 16.5088 4.23858 16.5088 7C16.5088 7.03982 16.5088 7.07954 16.5078 7.11914C17.491 6.41527 18.6958 6.00098 19.9971 6.00098C23.3106 6.00112 25.9971 8.68734 25.9971 12.001C25.9971 13.9223 25.0934 15.6324 23.6885 16.7305C23.956 16.985 24.0719 17.3788 23.9541 17.7549C23.7889 18.2818 23.2281 18.5751 22.7012 18.4102C21.8581 18.1458 20.9472 18.001 19.9951 18.001C15.4588 18.001 11.9953 21.2328 11.9951 24.9697C11.9951 25.4027 12.2034 25.8367 12.7578 26.2783C13.3274 26.7321 14.1934 27.1306 15.2959 27.4297C17.4941 28.026 20.3569 28.1561 22.8594 27.7998C23.406 27.7222 23.9124 28.1028 23.9902 28.6494C24.068 29.1961 23.6873 29.7024 23.1406 29.7803C20.4072 30.1695 17.2676 30.0363 14.7725 29.3594C13.5282 29.0218 12.3749 28.5304 11.5117 27.8428C10.6333 27.143 9.99512 26.1829 9.99512 24.9697C9.99514 24.3949 10.0541 23.835 10.167 23.2939C8.406 23.1876 6.68237 22.867 5.28613 22.3115C3.61183 21.6452 2.00016 20.4544 2 18.5293C2 14.8508 4.54485 11.8203 8.0293 10.5908C7.09164 9.68199 6.50879 8.40897 6.50879 7C6.50879 4.23866 8.74748 2.00013 11.5088 2ZM11.5 12.001C7.24062 12.001 4 15.0343 4 18.5293C4.00016 19.1402 4.51364 19.8512 6.02637 20.4531C7.31294 20.965 9.03883 21.2651 10.8506 21.3232C11.9041 19.1981 13.8488 17.5336 16.2217 16.665C14.9544 15.6378 14.1136 14.1039 14.0078 12.3721C13.2294 12.1323 12.3868 12.001 11.5 12.001ZM19.9971 8.00098C17.788 8.00098 15.9971 9.79182 15.9971 12.001C15.9971 14.2101 17.788 16.001 19.9971 16.001C22.2061 16.0008 23.9971 14.21 23.9971 12.001C23.9971 9.79191 22.2061 8.00112 19.9971 8.00098ZM11.5088 4C9.85205 4.00013 8.50879 5.34323 8.50879 7C8.50879 8.65678 9.85205 9.99987 11.5088 10C13.1657 10 14.5088 8.65686 14.5088 7C14.5088 5.34315 13.1657 4 11.5088 4Z" fill="#0F0F0F"/>
<path d="M26.999 21.7617C27.6895 21.7617 28.249 22.3399 28.249 23.0527C28.2488 23.7654 27.6894 24.3428 26.999 24.3428C26.3087 24.3428 25.7493 23.7654 25.749 23.0527C25.749 22.3399 26.3085 21.7617 26.999 21.7617Z" fill="#0F0F0F"/>
<path fill-rule="evenodd" clip-rule="evenodd" d="M27.5371 18C27.9535 18.0001 28.3549 18.161 28.6621 18.4512C28.9694 18.7414 29.1603 19.1401 29.1973 19.5684L29.2256 19.8975L29.2725 19.9307L29.668 19.8486C30.0683 19.7662 30.4848 19.8386 30.8369 20.0518C31.1888 20.2648 31.4522 20.6043 31.5781 21.0049L31.918 22.085C32.0466 22.4938 32.0229 22.9377 31.8506 23.3291C31.6781 23.7206 31.3695 24.0316 30.9863 24.2002L30.6924 24.3291L30.6768 24.3857L30.874 24.749C31.0717 25.1136 31.1342 25.5406 31.0498 25.9492C30.9654 26.3577 30.7394 26.7202 30.415 26.9697L29.5254 27.6543C29.1886 27.9134 28.7692 28.0315 28.3516 27.9854C27.9342 27.9391 27.5493 27.732 27.2734 27.4053L27.0449 27.1357H27.0039L26.749 27.4287C26.4736 27.7455 26.0936 27.9454 25.6836 27.9902C25.2735 28.035 24.8619 27.9212 24.5283 27.6709L23.6387 27.0039C23.3017 26.7511 23.0687 26.3773 22.9854 25.9561C22.902 25.5348 22.9745 25.0965 23.1885 24.7275L23.3525 24.4443L23.333 24.3877L22.9668 24.2129C22.5972 24.0363 22.3029 23.7261 22.1396 23.3408C21.9764 22.9556 21.9559 22.5221 22.0811 22.1221L22.4189 21.042C22.547 20.6325 22.8192 20.2877 23.1816 20.0752C23.5443 19.8626 23.9715 19.798 24.3779 19.8945L24.6895 19.9678L24.7344 19.9326L24.7812 19.5186C24.8293 19.1001 25.025 18.7144 25.3301 18.4346C25.6351 18.1549 26.0286 18.0001 26.4365 18H27.5371ZM26.3066 20.8564L25.0811 21.8262L24.0049 21.5723L23.667 22.6514L24.6709 23.1309L25.1855 24.6338L24.6182 25.6113L25.5078 26.2793L26.2598 25.4141L27.8037 25.415L28.5293 26.2744L29.4189 25.5898L28.8779 24.5928L29.3174 23.0635L30.333 22.6172L29.9932 21.5371L28.9072 21.7598L27.6348 20.8564L27.5371 19.7207H26.4365L26.3066 20.8564Z" fill="#0F0F0F"/>
</svg>
