<svg width="32" height="32" viewBox="0 0 32 32" fill="none" xmlns="http://www.w3.org/2000/svg">
<g clip-path="url(#clip0_71239_196)">
<path fill-rule="evenodd" clip-rule="evenodd" d="M11.5088 2.5C13.9941 2.5 16.0088 4.51472 16.0088 7C16.0088 7.52737 15.9186 8.03367 15.752 8.50391C16.7608 7.28083 18.2878 6.50098 19.9971 6.50098C23.0345 6.50112 25.4971 8.96348 25.4971 12.001C25.4971 14.0846 24.3381 15.8978 22.6299 16.8311C23.3699 17.021 24.0738 17.2891 24.7285 17.625C24.9739 17.7511 25.0712 18.0523 24.9453 18.2979C24.8192 18.5436 24.5172 18.6407 24.2715 18.5146C23.0175 17.8714 21.5573 17.501 19.9951 17.501C15.2415 17.501 11.4953 20.9014 11.4951 24.9697C11.4951 25.6572 11.8752 26.2749 12.6436 26.8174C13.4175 27.3638 14.5341 27.7926 15.8545 28.0801C18.4927 28.6544 21.7932 28.6348 24.3848 28.0234C24.6533 27.9601 24.9227 28.126 24.9863 28.3945C25.0498 28.6631 24.8837 28.9324 24.6152 28.9961C21.8754 29.6426 18.4229 29.6621 15.6416 29.0566C14.2523 28.7542 12.9925 28.2877 12.0674 27.6348C11.1367 26.9778 10.4951 26.091 10.4951 24.9697C10.4951 24.2258 10.602 23.5064 10.8018 22.8223C8.86985 22.7604 6.96282 22.44 5.47168 21.8467C3.83764 21.1965 2.50016 20.1259 2.5 18.5293C2.5 14.8013 5.31939 11.7289 9.08789 10.7939C7.83784 9.99448 7.00879 8.59393 7.00879 7C7.00879 4.5148 9.02362 2.50013 11.5088 2.5ZM11.5 11.501C7.02331 11.501 3.5 14.7028 3.5 18.5293C3.50016 19.4687 4.28779 20.2999 5.84082 20.918C7.27645 21.4892 9.19677 21.7994 11.166 21.8311C12.2496 19.4079 14.5502 17.5541 17.3643 16.8311C15.6582 15.8992 14.5003 14.0899 14.4971 12.0098C13.5751 11.6824 12.5643 11.501 11.5 11.501ZM19.9971 7.50098C17.5118 7.50098 15.4971 9.51568 15.4971 12.001C15.4971 14.4862 17.5118 16.501 19.9971 16.501C22.4822 16.5008 24.4971 14.4861 24.4971 12.001C24.4971 9.51577 22.4822 7.50112 19.9971 7.50098ZM11.5088 3.5C9.57591 3.50013 8.00879 5.06708 8.00879 7C8.00879 8.93292 9.57591 10.4999 11.5088 10.5C13.4418 10.5 15.0088 8.933 15.0088 7C15.0088 5.067 13.4418 3.5 11.5088 3.5Z" fill="#0F0F0F"/>
<path d="M26.999 22.0234C27.5514 22.0235 27.999 22.4895 27.999 23.0635C27.9988 23.6373 27.5512 24.1024 26.999 24.1025C26.4467 24.1025 25.9992 23.6374 25.999 23.0635C25.999 22.4894 26.4466 22.0234 26.999 22.0234Z" fill="#0F0F0F"/>
<path fill-rule="evenodd" clip-rule="evenodd" d="M27.6436 18C27.8935 18 28.1349 18.0971 28.3193 18.2725C28.5037 18.4478 28.6185 18.6886 28.6406 18.9473L28.7158 19.8311L29.5078 20.3975L30.3975 20.2139C30.6375 20.1642 30.8865 20.2074 31.0977 20.3359C31.3089 20.4647 31.4675 20.67 31.543 20.9121L31.9512 22.2158C32.0284 22.4628 32.0137 22.7314 31.9102 22.9678C31.8066 23.2041 31.6215 23.3914 31.3916 23.4932L30.6064 23.8418L30.333 24.7988L30.7764 25.6211C30.8948 25.8412 30.9315 26.0991 30.8809 26.3457C30.8302 26.5922 30.6954 26.8113 30.501 26.9619L29.4326 27.7891C29.2306 27.9453 28.9789 28.0161 28.7285 27.9883C28.4781 27.9603 28.2466 27.8359 28.0811 27.6387L27.5098 26.9561L26.5586 26.9551L25.9541 27.6543C25.7889 27.8457 25.5615 27.967 25.3154 27.9941C25.0694 28.0212 24.8222 27.9528 24.6221 27.8018L23.5537 26.9951C23.3517 26.8425 23.2121 26.6166 23.1621 26.3623C23.1121 26.1079 23.1558 25.8429 23.2842 25.6201L23.7227 24.8584L23.4023 23.917L22.5801 23.5215C22.3584 23.4148 22.1819 23.2277 22.084 22.9951C21.986 22.7624 21.9737 22.5005 22.0488 22.2588L22.4541 20.9551C22.5308 20.7076 22.6945 20.4995 22.9121 20.3711C23.1296 20.2428 23.3852 20.2035 23.6289 20.2617L24.4619 20.46L25.2246 19.8525L25.3311 18.917C25.3599 18.6644 25.4772 18.4317 25.6602 18.2627C25.8432 18.0937 26.0794 18 26.3242 18H27.6436ZM26.168 20.4111L24.6973 21.583L23.4053 21.2754L23 22.5781L24.2051 23.1572L24.8232 24.9736L24.1416 26.1543L25.21 26.9609L26.1123 25.915L27.9648 25.917L28.8359 26.9551L29.9033 26.1289L29.2539 24.9238L29.7812 23.0771L31 22.5371L30.5918 21.2334L29.2881 21.502L27.7617 20.4111L27.6436 19.0391H26.3242L26.168 20.4111Z" fill="#0F0F0F"/>
</g>
<defs>
<clipPath id="clip0_71239_196">
<rect width="32" height="32" fill="white"/>
</clipPath>
</defs>
</svg>
