<svg width="32" height="32" viewBox="0 0 32 32" fill="none" xmlns="http://www.w3.org/2000/svg">
<path d="M16 29.0801C9.03027 29.0801 3.2666 23.3164 3.2666 16.3467C3.2666 9.37695 9.01758 3.61328 15.9873 3.61328C22.9697 3.61328 28.7334 9.37695 28.7334 16.3467C28.7334 23.3164 22.9697 29.0801 16 29.0801ZM16 27.4424C22.1445 27.4424 27.0957 22.4912 27.0957 16.3467C27.083 10.2021 22.1318 5.26367 15.9873 5.26367C9.85547 5.26367 4.91699 10.2021 4.91699 16.3467C4.91699 22.4912 9.85547 27.4424 16 27.4424ZM16 15.7119C14.1338 15.6992 12.6357 14.1377 12.6357 12.0303C12.6357 10.0625 14.1338 8.4248 16 8.4248C17.8662 8.4248 19.3643 10.0625 19.3643 12.0303C19.3643 14.1377 17.8662 15.7246 16 15.7119ZM9.86816 22.9355C9.43652 22.9355 9.2334 22.6562 9.2334 22.25C9.2334 20.79 11.3916 16.9434 16 16.9434C20.6084 16.9434 22.7666 20.79 22.7666 22.25C22.7666 22.6562 22.5635 22.9355 22.1318 22.9355H9.86816Z" fill="black"/>
</svg>
