<svg width="36" height="32" viewBox="0 0 36 32" fill="none" xmlns="http://www.w3.org/2000/svg">
<path d="M24.6016 16.3975C21.6436 16.3975 19.2949 13.8076 19.2695 10.5703C19.2568 7.42188 21.6689 4.85742 24.6016 4.85742C27.5596 4.85742 29.9463 7.38379 29.9463 10.5576C29.9463 13.7949 27.5723 16.3975 24.6016 16.3975ZM24.6016 14.9121C26.6836 14.9121 28.3721 12.9951 28.3721 10.5576C28.3721 8.19629 26.6836 6.34277 24.6016 6.34277C22.5322 6.34277 20.8311 8.20898 20.8438 10.5703C20.8438 13.0078 22.5449 14.9121 24.6016 14.9121ZM9.97656 16.6768C7.41211 16.6768 5.36816 14.417 5.34277 11.5732C5.33008 8.84375 7.4375 6.57129 9.97656 6.57129C12.5537 6.57129 14.623 8.80566 14.623 11.5605C14.623 14.417 12.5664 16.6768 9.97656 16.6768ZM9.97656 15.2041C11.7412 15.2041 13.1631 13.6172 13.1631 11.5605C13.1631 9.60547 11.7412 8.04395 9.97656 8.04395C8.2373 8.04395 6.81543 9.63086 6.81543 11.5732C6.81543 13.6172 8.2373 15.2041 9.97656 15.2041ZM2.76562 28.1533C1.2168 28.1533 0.455078 27.5059 0.455078 26.1855C0.455078 22.1611 4.51758 18.2129 9.96387 18.2129C12.1982 18.2129 14.2676 18.8477 15.9561 20.0664C15.5244 20.3838 15.1562 20.7266 14.8389 21.1074C13.4932 20.168 11.8174 19.6729 9.96387 19.6729C5.62207 19.6729 1.92773 22.7197 1.92773 26.1094C1.92773 26.5283 2.10547 26.6934 2.5625 26.6934H12.3633C12.3506 27.3027 12.7441 27.8867 13.2266 28.1533H2.76562ZM16.4004 28.1533C14.5342 28.1533 13.6582 27.5566 13.6582 26.2744C13.6582 22.9609 17.8223 18.251 24.5889 18.251C31.3682 18.251 35.5322 22.9609 35.5322 26.2744C35.5322 27.5566 34.6436 28.1533 32.79 28.1533H16.4004ZM15.9941 26.6553H33.1836C33.7676 26.6553 33.958 26.5156 33.958 26.1094C33.958 23.71 30.5557 19.7363 24.5889 19.7363C18.6221 19.7363 15.2197 23.71 15.2197 26.1094C15.2197 26.5156 15.4229 26.6553 15.9941 26.6553Z" fill="black"/>
</svg>
