<svg width="36" height="32" viewBox="0 0 36 32" fill="none" xmlns="http://www.w3.org/2000/svg">
<path d="M24.627 16.2451C21.8848 16.2451 19.6123 13.8203 19.6123 10.6846C19.5869 7.65039 21.9102 5.25098 24.627 5.25098C27.3438 5.25098 29.6416 7.625 29.6416 10.6719C29.6416 13.8203 27.3691 16.2451 24.627 16.2451ZM10.0146 16.5244C7.62793 16.5244 5.63477 14.417 5.63477 11.7002C5.62207 9.04688 7.64062 6.96484 10.0146 6.96484C12.376 6.96484 14.3818 9.02148 14.3818 11.6748C14.3818 14.417 12.4014 16.5244 10.0146 16.5244ZM2.79102 27.874C1.36914 27.874 0.74707 27.3154 0.74707 26.1729C0.74707 22.6309 4.30176 18.4668 9.98926 18.4668C12.4775 18.4668 14.3564 19.2285 15.7656 20.2695C12.998 22.5039 11.627 26.3506 12.9727 27.874H2.79102ZM16.4131 27.874C14.6865 27.874 13.9883 27.3789 13.9883 26.2744C13.9883 23.0117 18.0635 18.5176 24.6143 18.5176C31.165 18.5176 35.2402 23.0117 35.2402 26.2744C35.2402 27.3789 34.5293 27.874 32.8027 27.874H16.4131Z" fill="black"/>
</svg>
