<svg width="32" height="32" viewBox="0 0 32 32" fill="none" xmlns="http://www.w3.org/2000/svg">
<path d="M19.998 16.501C21.764 16.501 23.4185 16.9341 24.8369 17.6855C24.5624 18.001 24.3867 18.3974 24.3379 18.8223L24.2803 19.3193L24.2266 19.3613L23.8525 19.2734C23.365 19.1577 22.853 19.2343 22.418 19.4892C21.9828 19.7443 21.6565 20.1596 21.5029 20.6514L21.0967 21.9463C20.9464 22.4264 20.9721 22.9469 21.168 23.4092C21.3639 23.8714 21.7166 24.2441 22.1602 24.456L22.5996 24.666L22.623 24.7334L22.4258 25.0732C22.1692 25.5158 22.0827 26.0415 22.1826 26.5469C22.2826 27.0525 22.5624 27.5013 22.9668 27.8047L24.0342 28.6055C24.2706 28.7828 24.5402 28.9004 24.8223 28.958C23.3518 29.3229 21.6739 29.5 20.001 29.5C17.831 29.543 15.6704 29.1896 13.627 28.458C11.0425 27.4297 10.499 25.9951 10.499 24.9726C10.4992 20.302 14.7611 16.5012 19.998 16.501Z" fill="#0F0F0F"/>
<path d="M26.999 21.7617C27.6895 21.7617 28.249 22.3399 28.249 23.0527C28.2488 23.7654 27.6894 24.3427 26.999 24.3428C26.3087 24.3428 25.7493 23.7654 25.749 23.0527C25.749 22.3398 26.3085 21.7617 26.999 21.7617Z" fill="#0F0F0F"/>
<path fill-rule="evenodd" clip-rule="evenodd" d="M27.5371 18C27.9535 18.0001 28.3549 18.161 28.6621 18.4512C28.9694 18.7414 29.1603 19.1401 29.1973 19.5683L29.2256 19.8974L29.2725 19.9306L29.668 19.8486C30.0683 19.7662 30.4848 19.8386 30.8369 20.0517C31.1888 20.2648 31.4522 20.6042 31.5781 21.0049L31.918 22.0849C32.0466 22.4938 32.0229 22.9377 31.8506 23.3291C31.6781 23.7205 31.3695 24.0316 30.9863 24.2002L30.6924 24.3291L30.6768 24.3857L30.874 24.749C31.0717 25.1136 31.1342 25.5406 31.0498 25.9492C30.9654 26.3577 30.7394 26.7201 30.415 26.9697L29.5254 27.6543C29.1886 27.9134 28.7692 28.0315 28.3516 27.9853C27.9342 27.9391 27.5493 27.732 27.2734 27.4053L27.0449 27.1357H27.0039L26.749 27.4287C26.4736 27.7455 26.0937 27.9453 25.6836 27.9902C25.2735 28.035 24.8619 27.9211 24.5283 27.6709L23.6387 27.0039C23.3017 26.7511 23.0687 26.3773 22.9854 25.956C22.902 25.5347 22.9745 25.0965 23.1885 24.7275L23.3525 24.4443L23.333 24.3877L22.9668 24.2129C22.5972 24.0363 22.3029 23.726 22.1396 23.3408C21.9764 22.9556 21.9559 22.5221 22.0811 22.1221L22.4189 21.043C22.5469 20.6332 22.819 20.2878 23.1816 20.0752C23.5443 19.8626 23.9715 19.798 24.3779 19.8945L24.6895 19.9678L24.7344 19.9326L24.7812 19.5185C24.8293 19.1001 25.025 18.7144 25.3301 18.4346C25.6351 18.1549 26.0286 18.0001 26.4365 18H27.5371ZM26.3066 20.8564L25.0811 21.8262L24.0049 21.5723L23.667 22.6514L24.6709 23.1308L25.1855 24.6338L24.6182 25.6113L25.5078 26.2793L26.2598 25.414L27.8037 25.415L28.5293 26.2744L29.4189 25.5898L28.8779 24.5928L29.3174 23.0635L30.333 22.6172L29.9932 21.5371L28.9072 21.7598L27.6348 20.8564L27.5371 19.7207H26.4365L26.3066 20.8564Z" fill="#0F0F0F"/>
<path d="M10.4297 2.62498C11.1134 2.45642 11.8274 2.45048 12.5137 2.60838C13.1999 2.76632 13.8396 3.08371 14.3809 3.53416C14.9221 3.98464 15.3499 4.55598 15.6299 5.20213C14.925 5.83978 14.3692 6.62523 14.002 7.50194C13.6348 8.3786 13.4648 9.32579 13.5049 10.2754C13.545 11.2249 13.7947 12.1536 14.2344 12.9961C14.6741 13.8387 15.2938 14.5744 16.0498 15.1504C14.3095 15.6931 12.7329 16.6639 11.4648 17.9736C10.1968 19.2833 9.27825 20.8906 8.79199 22.6474C7.65724 22.5156 6.54215 22.2475 5.47168 21.8486C3.0158 20.8712 2.50009 19.5048 2.5 18.5303C2.5 14.8403 5.30869 11.7325 9.11719 10.7969C8.52059 10.4226 8.01992 9.91268 7.65625 9.30955C7.29266 8.70648 7.07598 8.02644 7.02344 7.3242C6.97089 6.62192 7.08368 5.91708 7.35352 5.26659C7.62337 4.61605 8.04289 4.03798 8.57715 3.57909C9.11135 3.1203 9.74599 2.79357 10.4297 2.62498Z" fill="#0F0F0F"/>
<path d="M18.2783 5.84276C19.1005 5.50225 20.0051 5.41328 20.8779 5.5869C21.7508 5.76054 22.5523 6.18904 23.1816 6.81834C23.8109 7.44765 24.2394 8.24919 24.4131 9.12205C24.5867 9.99487 24.4977 10.8995 24.1572 11.7217C23.8167 12.5439 23.24 13.2467 22.5 13.7412C21.76 14.2357 20.89 14.5 20 14.5C18.807 14.4986 17.6629 14.0243 16.8193 13.1806C15.9757 12.337 15.5014 11.193 15.5 9.99998C15.5 9.10997 15.7643 8.24 16.2588 7.49998C16.7533 6.76004 17.4561 6.18333 18.2783 5.84276Z" fill="#0F0F0F"/>
</svg>
