<svg width="32" height="32" viewBox="0 0 32 32" fill="none" xmlns="http://www.w3.org/2000/svg">
<path d="M17 25.4997H15C14.8674 25.4997 14.7402 25.5523 14.6464 25.6461C14.5527 25.7399 14.5 25.867 14.5 25.9997C14.5 26.1323 14.5527 26.2594 14.6464 26.3532C14.7402 26.447 14.8674 26.4997 15 26.4997H17C17.1326 26.4997 17.2598 26.447 17.3536 26.3532C17.4473 26.2594 17.5 26.1323 17.5 25.9997C17.5 25.867 17.4473 25.7399 17.3536 25.6461C17.2598 25.5523 17.1326 25.4997 17 25.4997Z" fill="#0F0F0F"/>
<path d="M21 2.49965H11C9.80692 2.50095 8.66309 2.97547 7.81945 3.8191C6.97582 4.66274 6.5013 5.80657 6.5 6.99965V24.9997C6.5013 26.1927 6.97582 27.3366 7.81945 28.1802C8.66309 29.0238 9.80692 29.4984 11 29.4997H21C22.1931 29.4983 23.3369 29.0238 24.1805 28.1802C25.0242 27.3366 25.4987 26.1927 25.5 24.9997V6.99965C25.4987 5.80658 25.0242 4.66274 24.1805 3.81911C23.3369 2.97548 22.1931 2.50095 21 2.49965ZM11 3.49965H21C21.9279 3.50077 22.8175 3.86988 23.4736 4.52602C24.1298 5.18215 24.4989 6.07174 24.5 6.99965V22.4997H7.5V6.99965C7.50112 6.07174 7.87023 5.18215 8.52637 4.52602C9.1825 3.86988 10.0721 3.50077 11 3.49965ZM21 28.4997H11C10.0721 28.4985 9.1825 28.1294 8.52637 27.4733C7.87023 26.8171 7.50112 25.9276 7.5 24.9997V23.4997H24.5V24.9997C24.4989 25.9276 24.1298 26.8171 23.4736 27.4733C22.8175 28.1294 21.9279 28.4985 21 28.4997Z" fill="#0F0F0F"/>
</svg>
