<svg width="32" height="32" viewBox="0 0 32 32" fill="none" xmlns="http://www.w3.org/2000/svg">
<path d="M11.5693 29.3975C9.52539 29.3975 8.26855 28.1787 8.26855 26.1982V6.46973C8.26855 4.48926 9.52539 3.25781 11.5693 3.25781H20.4307C22.4746 3.25781 23.7314 4.48926 23.7314 6.46973V26.1982C23.7314 28.1787 22.4746 29.3975 20.4307 29.3975H11.5693ZM11.7471 27.8359H20.2529C21.5225 27.8359 22.1699 27.2139 22.1699 25.9697V6.68555C22.1699 5.4541 21.5225 4.83203 20.2529 4.83203H11.7471C10.4775 4.83203 9.84277 5.4541 9.84277 6.68555V25.9697C9.84277 27.2139 10.4775 27.8359 11.7471 27.8359ZM14.5273 7.16797C14.083 7.16797 13.7656 6.83789 13.7656 6.40625C13.7656 5.97461 14.083 5.64453 14.5273 5.64453H17.4854C17.917 5.64453 18.2471 5.97461 18.2471 6.40625C18.2471 6.83789 17.917 7.16797 17.4854 7.16797H14.5273ZM13.3721 26.9346C13.0801 26.9346 12.877 26.7314 12.877 26.4395C12.877 26.1348 13.0801 25.9316 13.3721 25.9316H18.6406C18.9199 25.9316 19.1357 26.1348 19.1357 26.4395C19.1357 26.7314 18.9199 26.9346 18.6406 26.9346H13.3721Z" fill="black"/>
</svg>
