<svg width="32" height="32" viewBox="0 0 32 32" fill="none" xmlns="http://www.w3.org/2000/svg">
<path d="M4.06007 15.9999L10.5298 9.53016C10.5994 9.46052 10.6547 9.37785 10.6924 9.28687C10.73 9.19588 10.7494 9.09836 10.7494 8.99988C10.7494 8.9014 10.73 8.80389 10.6924 8.7129C10.6547 8.62192 10.5994 8.53925 10.5298 8.46961C10.4602 8.39997 10.3775 8.34473 10.2865 8.30705C10.1955 8.26936 10.098 8.24996 9.99952 8.24996C9.90104 8.24996 9.80353 8.26936 9.71254 8.30705C9.62156 8.34473 9.53889 8.39997 9.46925 8.46961L2.46925 15.4696C2.32865 15.6102 2.24958 15.8008 2.24939 15.9997C2.2492 16.1985 2.32791 16.3893 2.46825 16.5302L9.45556 23.5302C9.5252 23.5999 9.60789 23.6553 9.69892 23.6931C9.78996 23.7309 9.88755 23.7504 9.98612 23.7505C10.0847 23.7506 10.1823 23.7313 10.2734 23.6936C10.3645 23.656 10.4473 23.6008 10.5171 23.5311C10.5868 23.4615 10.6422 23.3788 10.68 23.2878C10.7178 23.1967 10.7373 23.0991 10.7374 23.0006C10.7375 22.902 10.7182 22.8044 10.6805 22.7133C10.6429 22.6222 10.5877 22.5394 10.5181 22.4696L4.06007 15.9999Z" fill="#0F0F0F"/>
<path d="M18.9995 15.2499H11.8101L17.5298 9.53016C17.5994 9.46052 17.6547 9.37785 17.6924 9.28687C17.73 9.19588 17.7494 9.09836 17.7494 8.99988C17.7494 8.9014 17.73 8.80389 17.6924 8.7129C17.6547 8.62192 17.5994 8.53925 17.5298 8.46961C17.4602 8.39997 17.3775 8.34473 17.2865 8.30705C17.1955 8.26936 17.098 8.24996 16.9995 8.24996C16.901 8.24996 16.8035 8.26936 16.7125 8.30705C16.6216 8.34473 16.5389 8.39997 16.4692 8.46961L9.46925 15.4696C9.39959 15.5392 9.34433 15.6219 9.30663 15.7129C9.26893 15.8039 9.24952 15.9014 9.24952 15.9999C9.24952 16.0984 9.26893 16.1959 9.30663 16.2869C9.34433 16.3779 9.39959 16.4605 9.46925 16.5302L16.4692 23.5302C16.6099 23.6708 16.8006 23.7498 16.9995 23.7498C17.1984 23.7498 17.3892 23.6708 17.5298 23.5302C17.6704 23.3895 17.7494 23.1988 17.7494 22.9999C17.7494 22.801 17.6704 22.6102 17.5298 22.4696L11.8101 16.7499H18.9995C21.4519 16.7526 23.8031 17.728 25.5372 19.4622C27.2714 21.1963 28.2468 23.5475 28.2495 25.9999C28.2495 26.1988 28.3285 26.3896 28.4692 26.5302C28.6098 26.6709 28.8006 26.7499 28.9995 26.7499C29.1984 26.7499 29.3892 26.6709 29.5298 26.5302C29.6705 26.3896 29.7495 26.1988 29.7495 25.9999C29.7463 23.1498 28.6127 20.4173 26.5974 18.402C24.5821 16.3867 21.8496 15.2531 18.9995 15.2499Z" fill="#0F0F0F"/>
</svg>
