<svg width="32" height="32" viewBox="0 0 32 32" fill="none" xmlns="http://www.w3.org/2000/svg">
<path d="M22.2932 20.2934L16.0002 26.5864L9.70717 20.2934C9.51965 20.1059 9.26532 20.0005 9.00014 20.0005C8.73495 20.0005 8.48062 20.1059 8.2931 20.2934C8.10559 20.4809 8.00024 20.7352 8.00024 21.0004C8.00025 21.2656 8.10559 21.5199 8.29311 21.7074L15.2931 28.7074C15.3859 28.8003 15.4962 28.874 15.6175 28.9243C15.7388 28.9745 15.8688 29.0004 16.0001 29.0004C16.1315 29.0004 16.2615 28.9745 16.3828 28.9243C16.5041 28.874 16.6143 28.8003 16.7072 28.7074L23.7072 21.7074C23.8947 21.5199 24 21.2656 24 21.0004C24 20.7352 23.8947 20.4809 23.7072 20.2934C23.5197 20.1059 23.2653 20.0005 23.0001 20.0005C22.735 20.0005 22.4807 20.1059 22.2932 20.2934Z" fill="#0F0F0F"/>
<path d="M9.70723 11.7074L16.0002 5.41445L22.2932 11.7074C22.4807 11.895 22.7351 12.0003 23.0003 12.0003C23.2655 12.0003 23.5198 11.895 23.7073 11.7074C23.8948 11.5199 24.0002 11.2656 24.0002 11.0004C24.0002 10.7352 23.8948 10.4809 23.7073 10.2934L16.7073 3.29338C16.6145 3.2005 16.5042 3.12682 16.3829 3.07655C16.2616 3.02629 16.1316 3.00041 16.0003 3.00041C15.8689 3.00041 15.7389 3.02629 15.6176 3.07655C15.4963 3.12682 15.3861 3.2005 15.2932 3.29338L8.29323 10.2934C8.10571 10.4809 8.00037 10.7352 8.00036 11.0004C8.00036 11.2656 8.10571 11.5199 8.29322 11.7074C8.48074 11.895 8.73507 12.0003 9.00026 12.0003C9.26544 12.0003 9.51971 11.895 9.70723 11.7074Z" fill="#0F0F0F"/>
</svg>
