<svg width="32" height="32" viewBox="0 0 32 32" fill="none" xmlns="http://www.w3.org/2000/svg">
<path d="M22.6466 20.6469L16.0001 27.2934L9.3536 20.6469C9.30735 20.5997 9.2522 20.5621 9.19135 20.5364C9.13049 20.5106 9.06514 20.4972 8.99906 20.4969C8.93298 20.4966 8.86749 20.5093 8.80638 20.5345C8.74526 20.5596 8.68974 20.5966 8.64301 20.6433C8.59629 20.69 8.55929 20.7456 8.53416 20.8067C8.50902 20.8678 8.49625 20.9333 8.49659 20.9994C8.49692 21.0654 8.51035 21.1308 8.5361 21.1916C8.56185 21.2525 8.59941 21.3077 8.6466 21.3539L15.6466 28.3539C15.693 28.4003 15.7481 28.4372 15.8088 28.4623C15.8694 28.4874 15.9344 28.5004 16.0001 28.5004C16.0658 28.5004 16.1308 28.4874 16.1914 28.4623C16.2521 28.4372 16.3072 28.4003 16.3536 28.3539L23.3536 21.3539C23.4008 21.3077 23.4384 21.2525 23.4641 21.1916C23.4899 21.1308 23.5033 21.0654 23.5036 20.9994C23.504 20.9333 23.4912 20.8678 23.4661 20.8067C23.4409 20.7456 23.4039 20.69 23.3572 20.6433C23.3105 20.5966 23.2549 20.5596 23.1938 20.5345C23.1327 20.5093 23.0672 20.4966 23.0011 20.4969C22.9351 20.4972 22.8697 20.5106 22.8089 20.5364C22.748 20.5621 22.6928 20.5997 22.6466 20.6469Z" fill="#0F0F0F"/>
<path d="M9.3536 11.3539L16.0001 4.70745L22.6466 11.3539C22.6928 11.4011 22.748 11.4387 22.8088 11.4644C22.8697 11.4902 22.935 11.5036 23.0011 11.5039C23.0672 11.5043 23.1327 11.4915 23.1938 11.4664C23.2549 11.4412 23.3104 11.4042 23.3572 11.3575C23.4039 11.3108 23.4409 11.2553 23.466 11.1942C23.4912 11.133 23.5039 11.0676 23.5036 11.0015C23.5033 10.9354 23.4898 10.87 23.4641 10.8092C23.4383 10.7483 23.4008 10.6932 23.3536 10.6469L16.3536 3.64693C16.3072 3.6005 16.252 3.56366 16.1914 3.53853C16.1307 3.5134 16.0657 3.50046 16.0001 3.50046C15.9344 3.50046 15.8694 3.5134 15.8088 3.53853C15.7481 3.56366 15.693 3.6005 15.6466 3.64693L8.64657 10.6469C8.55438 10.741 8.50303 10.8677 8.5037 10.9994C8.50437 11.1311 8.55699 11.2572 8.65013 11.3504C8.74327 11.4435 8.8694 11.4961 9.00112 11.4968C9.13284 11.4975 9.25953 11.4461 9.3536 11.3539Z" fill="#0F0F0F"/>
</svg>
