<svg width="32" height="32" viewBox="0 0 32 32" fill="none" xmlns="http://www.w3.org/2000/svg">
<path d="M16.4951 15.5469L26.5371 9.80859C24.4424 6.40625 20.7354 4.08301 16.4951 3.91797V15.5469ZM16 28.75C19.0977 28.75 21.9414 27.582 24.125 25.6904L15.4414 17.1338C15.2129 16.918 15.1494 16.7148 15.1494 16.3721V3.94336C8.72559 4.375 3.59668 9.77051 3.59668 16.3213C3.59668 23.1514 9.18262 28.75 16 28.75ZM25.1025 24.7256C27.1465 22.5166 28.4033 19.5586 28.4033 16.3213C28.4033 14.417 27.959 12.6016 27.1973 10.9893L17.0791 16.7783L25.1025 24.7256Z" fill="black"/>
</svg>
