<svg width="32" height="32" viewBox="0 0 32 32" fill="none" xmlns="http://www.w3.org/2000/svg">
<path d="M29.0004 20.0002H19.0004C18.7352 20.0002 18.4808 20.1055 18.2933 20.2931C18.1057 20.4806 18.0004 20.735 18.0004 21.0002C18.0004 21.2654 18.1057 21.5197 18.2933 21.7073C18.4808 21.8948 18.7352 22.0002 19.0004 22.0002H29.0004C29.2656 22.0002 29.52 21.8948 29.7075 21.7073C29.895 21.5197 30.0004 21.2654 30.0004 21.0002C30.0004 20.735 29.895 20.4806 29.7075 20.2931C29.52 20.1055 29.2656 20.0002 29.0004 20.0002Z" fill="#0F0F0F"/>
<path d="M29.0004 24.0002H19.0004C18.7352 24.0002 18.4808 24.1055 18.2933 24.2931C18.1057 24.4806 18.0004 24.735 18.0004 25.0002C18.0004 25.2654 18.1057 25.5197 18.2933 25.7073C18.4808 25.8948 18.7352 26.0002 19.0004 26.0002H29.0004C29.2656 26.0002 29.52 25.8948 29.7075 25.7073C29.895 25.5197 30.0004 25.2654 30.0004 25.0002C30.0004 24.735 29.895 24.4806 29.7075 24.2931C29.52 24.1055 29.2656 24.0002 29.0004 24.0002Z" fill="#0F0F0F"/>
<path d="M29.0004 28.0002H19.0004C18.7352 28.0002 18.4808 28.1055 18.2933 28.2931C18.1057 28.4806 18.0004 28.735 18.0004 29.0002C18.0004 29.2654 18.1057 29.5197 18.2933 29.7073C18.4808 29.8948 18.7352 30.0002 19.0004 30.0002H29.0004C29.2656 30.0002 29.52 29.8948 29.7075 29.7073C29.895 29.5197 30.0004 29.2654 30.0004 29.0002C30.0004 28.735 29.895 28.4806 29.7075 28.2931C29.52 28.1055 29.2656 28.0002 29.0004 28.0002Z" fill="#0F0F0F"/>
<path d="M5.01307 12.9953L8.34317 9.51482C8.89325 8.93977 9.64889 8.60626 10.4445 8.58741C11.24 8.56855 12.0106 8.86588 12.5873 9.41423C12.7757 9.6001 12.9988 9.74698 13.244 9.84647C13.4892 9.94595 13.7517 9.99609 14.0163 9.994C14.2809 9.99192 14.5425 9.93765 14.7861 9.83431C15.0297 9.73097 15.2505 9.58058 15.4359 9.39177L19.681 4.88199C20.2439 4.32073 21.0063 4.00539 21.8012 4.00501C22.5961 4.00464 23.3588 4.31926 23.9222 4.87999L27.1224 8.1007C27.6811 8.65912 27.9969 9.41538 28.0013 10.2053C28.0057 10.9951 27.6983 11.7549 27.1459 12.3194L22.9291 16.2648C22.8332 16.3545 22.7559 16.4623 22.7016 16.582C22.6473 16.7016 22.6171 16.8308 22.6128 16.9621C22.6084 17.0934 22.63 17.2243 22.6762 17.3472C22.7224 17.4702 22.7924 17.5829 22.8822 17.6788C22.972 17.7747 23.0798 17.8521 23.1994 17.9063C23.3191 17.9606 23.4482 17.9908 23.5795 17.9951C23.7108 17.9995 23.8417 17.9779 23.9647 17.9317C24.0877 17.8855 24.2004 17.8155 24.2963 17.7257L28.5365 13.757C29.4741 12.8199 30.001 11.5488 30.0014 10.2232C30.0018 8.89766 29.4755 7.62623 28.5385 6.68863L25.3383 3.46799C24.3948 2.53034 23.1176 2.00585 21.7874 2.00988C20.4573 2.01391 19.1832 2.54613 18.2455 3.48948L14.0004 7.99919C13.5274 7.5415 12.9689 7.18147 12.3567 6.93966C11.7445 6.69784 11.0907 6.57898 10.4326 6.58987C9.77455 6.60075 9.12504 6.74116 8.52122 7.00308C7.91739 7.265 7.37107 7.6433 6.91346 8.11638L3.58246 11.5978C3.20905 11.9733 2.99945 12.4814 2.99945 13.0109C2.99945 13.5405 3.20905 14.0485 3.58246 14.424L9.86151 20.7196L2.29335 28.2931C2.2005 28.386 2.12685 28.4962 2.0766 28.6175C2.02635 28.7388 2.00049 28.8689 2.00049 29.0002C2.00049 29.1315 2.02635 29.2615 2.0766 29.3828C2.12685 29.5041 2.2005 29.6144 2.29335 29.7072C2.3862 29.8 2.49643 29.8737 2.61774 29.9239C2.73905 29.9742 2.86907 30.0001 3.00038 30.0001C3.13169 30.0001 3.26171 29.9742 3.38302 29.9239C3.50433 29.8737 3.61456 29.8 3.70741 29.7072L11.2737 22.1356L14.2943 25.1642C14.3869 25.2579 14.497 25.3324 14.6185 25.3834C14.7399 25.4344 14.8702 25.4609 15.0019 25.4614C15.1336 25.4619 15.2641 25.4364 15.3859 25.3863C15.5077 25.3362 15.6185 25.2625 15.7117 25.1695C15.805 25.0765 15.8789 24.966 15.9294 24.8443C15.9798 24.7227 16.0057 24.5922 16.0056 24.4605C16.0054 24.3288 15.9793 24.1984 15.9286 24.0769C15.8779 23.9553 15.8038 23.8449 15.7103 23.7521L5.01307 12.9953Z" fill="#0F0F0F"/>
</svg>
