<svg width="32" height="32" viewBox="0 0 32 32" fill="none" xmlns="http://www.w3.org/2000/svg">
<path d="M4.24414 23.8242C1.83203 23.8242 0.613281 22.6309 0.613281 20.2441V8.12012C0.613281 5.7334 1.83203 4.52734 4.24414 4.52734H21.751C24.1504 4.52734 25.3691 5.74609 25.3691 8.12012V14.1758H27.7559C30.1553 14.1758 31.3867 15.3818 31.3867 17.7559V25.6016C31.3867 27.9629 30.1553 29.1816 27.7559 29.1816H15.8477C13.4482 29.1816 12.2295 27.9756 12.2295 25.6016V23.8242H4.24414ZM4.26953 22.1738H12.2295V17.7559C12.2295 15.3818 13.4482 14.1758 15.8477 14.1758H23.7188V8.20898C23.7188 6.87598 22.9824 6.19043 21.7129 6.19043H4.26953C2.97461 6.19043 2.27637 6.87598 2.27637 8.20898V20.1553C2.27637 21.4883 2.97461 22.1738 4.26953 22.1738ZM5.01855 13.1729L4.33301 8.91992C4.30762 8.72949 4.37109 8.53906 4.48535 8.41211C4.625 8.28516 4.81543 8.22168 5.00586 8.24707L9.25879 8.94531C9.61426 8.9834 9.98242 9.41504 9.55078 9.84668L8.20508 11.2051L10.2871 13.2744C10.541 13.5283 10.541 13.9473 10.2871 14.2012C10.0332 14.4551 9.61426 14.4551 9.36035 14.2012L7.29102 12.1318L5.93262 13.4648C5.50098 13.9092 5.06934 13.5283 5.01855 13.1729Z" fill="black"/>
</svg>
