<svg width="32" height="32" viewBox="0 0 32 32" fill="none" xmlns="http://www.w3.org/2000/svg">
<path d="M4.24414 23.8242C1.83203 23.8242 0.613281 22.6309 0.613281 20.2441V8.12012C0.613281 5.7334 1.83203 4.52734 4.24414 4.52734H21.751C24.1504 4.52734 25.3691 5.74609 25.3691 8.12012V14.1758H27.7559C30.1553 14.1758 31.3867 15.3818 31.3867 17.7559V25.6016C31.3867 27.9629 30.1553 29.1816 27.7559 29.1816H15.8477C13.4482 29.1816 12.2295 27.9756 12.2295 25.6016V23.8242H4.24414ZM4.26953 22.1738H12.2295V17.7559C12.2295 15.3818 13.4482 14.1758 15.8477 14.1758H23.7188V8.20898C23.7188 6.87598 22.9824 6.19043 21.7129 6.19043H4.26953C2.97461 6.19043 2.27637 6.87598 2.27637 8.20898V20.1553C2.27637 21.4883 2.97461 22.1738 4.26953 22.1738ZM9.7793 9.46582L10.4775 13.7188C10.5029 13.9092 10.4395 14.0996 10.3125 14.2393C10.1855 14.3535 9.99512 14.417 9.80469 14.3916L5.55176 13.7061C5.19629 13.6553 4.81543 13.2236 5.25977 12.792L6.59277 11.4336L4.52344 9.36426C4.26953 9.11035 4.26953 8.69141 4.52344 8.4375C4.77734 8.18359 5.19629 8.18359 5.4502 8.4375L7.51953 10.5195L8.87793 9.17383C9.30957 8.74219 9.74121 9.11035 9.7793 9.46582Z" fill="black"/>
</svg>
