<svg width="32" height="32" viewBox="0 0 32 32" fill="none" xmlns="http://www.w3.org/2000/svg">
<path d="M26.9896 16.0002C26.9896 18.5698 26.0909 21.0584 24.4493 23.0352L29.7071 28.2929C29.8907 28.4812 29.9927 28.7343 29.9911 28.9973C29.9894 29.2603 29.8842 29.5121 29.6982 29.6981C29.5122 29.8841 29.2604 29.9893 28.9974 29.991C28.7344 29.9926 28.4813 29.8906 28.293 29.707L23.0368 24.4509C21.0618 26.098 18.5716 27 16 27C13.4283 27 10.9381 26.098 8.9631 24.4509L3.7071 29.707C3.61468 29.8018 3.50436 29.8773 3.38254 29.9291C3.26071 29.9809 3.12981 30.0081 2.99743 30.0089C2.86504 30.0097 2.73381 29.9843 2.61133 29.934C2.48886 29.8837 2.37759 29.8096 2.28398 29.716C2.19037 29.6224 2.11628 29.5111 2.066 29.3887C2.01573 29.2662 1.99027 29.135 1.99111 29.0026C1.99195 28.8702 2.01907 28.7393 2.07089 28.6175C2.12271 28.4956 2.19821 28.3853 2.293 28.2929L7.5505 23.0354C5.90863 21.0585 5.00987 18.5697 5.00987 16C5.00987 13.4302 5.90863 10.9414 7.5505 8.9645L2.293 3.707C2.10939 3.51867 2.00736 3.26559 2.00903 3.00257C2.0107 2.73956 2.11592 2.48779 2.3019 2.3018C2.48789 2.11582 2.73966 2.0106 3.00267 2.00893C3.26569 2.00726 3.51877 2.10929 3.7071 2.2929L8.9631 7.5492C10.9381 5.90216 13.4283 5.00009 16 5.00009C18.5716 5.00009 21.0618 5.90216 23.0368 7.5492L28.293 2.2929C28.3854 2.19811 28.4957 2.12261 28.6176 2.07079C28.7394 2.01897 28.8703 1.99185 29.0027 1.99101C29.1351 1.99017 29.2663 2.01563 29.3888 2.0659C29.5112 2.11618 29.6225 2.19027 29.7161 2.28388C29.8097 2.3775 29.8838 2.48876 29.9341 2.61124C29.9844 2.73371 30.0098 2.86494 30.009 2.99733C30.0082 3.12971 29.981 3.26061 29.9292 3.38244C29.8774 3.50426 29.8019 3.61458 29.7071 3.707L24.4493 8.9652C26.0909 10.942 26.9896 13.4306 26.9896 16.0002Z" fill="#0F0F0F"/>
</svg>
