<svg width="32" height="32" viewBox="0 0 32 32" fill="none" xmlns="http://www.w3.org/2000/svg">
<path d="M16 29.0801C9.03027 29.0801 3.2666 23.3164 3.2666 16.3467C3.2666 9.37695 9.01758 3.61328 15.9873 3.61328C22.9697 3.61328 28.7334 9.37695 28.7334 16.3467C28.7334 23.3164 22.9697 29.0801 16 29.0801ZM15.9746 22.6689C16.5205 22.6689 16.8506 22.2881 16.8506 21.7295V17.1973H21.5225C22.0684 17.1973 22.4746 16.8926 22.4746 16.3594C22.4746 15.8135 22.0938 15.4834 21.5225 15.4834H16.8506V10.7988C16.8506 10.2275 16.5205 9.85938 15.9746 9.85938C15.4414 9.85938 15.1367 10.2529 15.1367 10.7988V15.4834H10.4775C9.89355 15.4834 9.5127 15.8135 9.5127 16.3594C9.5127 16.8926 9.91895 17.1973 10.4775 17.1973H15.1367V21.7295C15.1367 22.2754 15.4414 22.6689 15.9746 22.6689Z" fill="black"/>
</svg>
