<svg width="32" height="32" viewBox="0 0 32 32" fill="none" xmlns="http://www.w3.org/2000/svg">
<path d="M25.645 9.39569L18.647 4.36151C17.879 3.80079 16.9528 3.49845 16.0018 3.49809C15.0509 3.49773 14.1245 3.79937 13.356 4.35951L6.35401 9.39764C5.78062 9.81583 5.31395 10.3634 4.9919 10.9958C4.66984 11.6282 4.50148 12.3276 4.50049 13.0373V24.0002C4.50179 25.1933 4.97631 26.3371 5.81995 27.1807C6.66358 28.0244 7.80741 28.4989 9.00049 28.5002H23.0005C24.1936 28.4989 25.3374 28.0244 26.181 27.1807C27.0247 26.3371 27.4992 25.1933 27.5005 24.0002V13.0373C27.4994 12.3271 27.3307 11.6273 27.0083 10.9945C26.6859 10.3618 26.2189 9.81402 25.645 9.39569ZM26.5005 24.0002C26.4994 24.9281 26.1303 25.8177 25.4741 26.4738C24.818 27.1299 23.9284 27.4991 23.0005 27.5002H9.00049C8.07258 27.4991 7.18299 27.1299 6.52686 26.4738C5.87072 25.8177 5.50161 24.9281 5.50049 24.0002V13.0373C5.50119 12.4858 5.6319 11.9422 5.882 11.4507C6.1321 10.9591 6.49455 10.5334 6.93995 10.2082L13.9419 5.1701C14.5401 4.73379 15.2615 4.49885 16.0018 4.4992C16.7422 4.49955 17.4633 4.73517 18.0611 5.17205L25.0591 10.2062C25.5049 10.5316 25.8678 10.9576 26.1182 11.4494C26.3687 11.9413 26.4996 12.4853 26.5005 13.0373V24.0002Z" fill="#0F0F0F"/>
<path d="M17.9692 15.8906C18.588 15.4696 19.0555 14.8614 19.3032 14.1552C19.5509 13.449 19.5657 12.682 19.3455 11.9668C19.1253 11.2516 18.6816 10.6257 18.0795 10.1812C17.4775 9.73665 16.7489 9.49677 16.0005 9.49677C15.2521 9.49677 14.5234 9.73665 13.9214 10.1812C13.3194 10.6257 12.8757 11.2516 12.6555 11.9668C12.4352 12.682 12.4501 13.449 12.6977 14.1552C12.9454 14.8614 13.413 15.4696 14.0317 15.8906C13.0273 16.2642 12.1559 16.9269 11.5275 17.795C10.8991 18.6631 10.5417 19.6978 10.5005 20.7687C10.5005 21.4054 10.8266 22.2941 12.3784 22.9113C13.5395 23.3284 14.767 23.53 16.0005 23.506C18.7378 23.506 21.5005 22.6594 21.5005 20.7687C21.4592 19.6978 21.1018 18.6631 20.4734 17.795C19.845 16.9269 18.9737 16.2642 17.9692 15.8906ZM13.5005 13.0002C13.5005 12.5057 13.6471 12.0224 13.9218 11.6113C14.1965 11.2001 14.587 10.8797 15.0438 10.6905C15.5006 10.5013 16.0033 10.4518 16.4882 10.5482C16.9732 10.6447 17.4186 10.8828 17.7682 11.2324C18.1179 11.582 18.356 12.0275 18.4524 12.5125C18.5489 12.9974 18.4994 13.5001 18.3102 13.9569C18.121 14.4137 17.8005 14.8041 17.3894 15.0789C16.9783 15.3536 16.4949 15.5002 16.0005 15.5002C15.3376 15.4996 14.7021 15.236 14.2334 14.7673C13.7647 14.2986 13.5011 13.663 13.5005 13.0002ZM16.0005 22.506C13.477 22.506 11.5005 21.7433 11.5005 20.7687C11.5636 19.6179 12.0653 18.5351 12.9022 17.7428C13.7392 16.9504 14.848 16.5089 16.0005 16.5089C17.153 16.5089 18.2617 16.9504 19.0987 17.7428C19.9357 18.5351 20.4373 19.6179 20.5005 20.7687C20.5005 21.7433 18.5239 22.506 16.0005 22.506Z" fill="#0F0F0F"/>
</svg>
