<svg width="32" height="32" viewBox="0 0 32 32" fill="none" xmlns="http://www.w3.org/2000/svg">
<path d="M24.9995 3.00018C24.2043 3.001 23.4418 3.31719 22.8794 3.87941C22.317 4.44162 22.0006 5.20396 21.9995 5.99918V26.0012C22.0006 26.7964 22.317 27.5587 22.8794 28.121C23.4418 28.6832 24.2043 28.9994 24.9995 29.0002C25.7946 28.9992 26.5578 28.6829 27.12 28.1207C27.6822 27.5585 27.9985 26.7963 27.9995 26.0012V5.9992C27.9984 5.20397 27.682 4.44163 27.1196 3.87941C26.5572 3.31719 25.7947 3.001 24.9995 3.00018Z" fill="#0F0F0F"/>
<path d="M15.9976 11.0002C15.2027 11.001 14.4406 11.3171 13.8786 11.8792C13.3165 12.4412 13.0004 13.2033 12.9995 13.9982V26.0021C13.0004 26.797 13.3165 27.559 13.8786 28.1211C14.4406 28.6831 15.2027 28.9993 15.9976 29.0001H16.0015C16.7963 28.9992 17.5584 28.6831 18.1204 28.1211C18.6825 27.559 18.9986 26.7969 18.9995 26.0021V13.9982C18.9984 13.2028 18.6817 12.4402 18.1188 11.8781C17.556 11.316 16.793 11.0002 15.9976 11.0002Z" fill="#0F0F0F"/>
<path d="M6.99951 6.00018C6.20413 6.00105 5.44157 6.3174 4.87915 6.87982C4.31673 7.44224 4.00038 8.2048 3.99951 9.00018V26.0002C3.99951 26.7958 4.31558 27.5589 4.87819 28.1215C5.4408 28.6841 6.20386 29.0002 6.99951 29.0002C7.79516 29.0002 8.55822 28.6841 9.12083 28.1215C9.68344 27.5589 9.99951 26.7958 9.99951 26.0002V9.00018C9.99864 8.2048 9.68229 7.44224 9.11987 6.87982C8.55745 6.3174 7.79489 6.00105 6.99951 6.00018Z" fill="#0F0F0F"/>
</svg>
