<svg width="32" height="32" viewBox="0 0 32 32" fill="none" xmlns="http://www.w3.org/2000/svg">
<path d="M26 2.24983H16C15.0058 2.25108 14.0527 2.64657 13.3497 3.34956C12.6467 4.05255 12.2513 5.00565 12.25 5.99983V12.2498H6C5.00582 12.2511 4.05272 12.6466 3.34973 13.3496C2.64674 14.0526 2.25125 15.0057 2.25 15.9998V25.9998C2.25125 26.994 2.64674 27.9471 3.34973 28.6501C4.05272 29.3531 5.00582 29.7486 6 29.7498H16C16.9942 29.7486 17.9473 29.3531 18.6503 28.6501C19.3533 27.9471 19.7487 26.994 19.75 25.9998V19.7498H26C26.9942 19.7486 27.9473 19.3531 28.6503 18.6501C29.3533 17.9471 29.7487 16.994 29.75 15.9998V5.99983C29.7487 5.00565 29.3533 4.05255 28.6503 3.34956C27.9473 2.64657 26.9942 2.25108 26 2.24983ZM18.25 25.9998C18.2492 26.5963 18.0119 27.1681 17.5901 27.5899C17.1683 28.0117 16.5965 28.249 16 28.2498H6C5.40351 28.249 4.83169 28.0117 4.40991 27.5899C3.98813 27.1681 3.75082 26.5963 3.75 25.9998V17.7498H18.25V25.9998ZM18.25 16.2498H3.75V15.9998C3.75082 15.4033 3.98813 14.8315 4.40991 14.4097C4.83169 13.988 5.40351 13.7506 6 13.7498H16C16.5965 13.7506 17.1683 13.988 17.5901 14.4097C18.0119 14.8315 18.2492 15.4033 18.25 15.9998V16.2498ZM28.25 15.9998C28.2492 16.5963 28.0119 17.1681 27.5901 17.5899C27.1683 18.0117 26.5965 18.249 26 18.2498H19.75V15.9998C19.7487 15.0057 19.3533 14.0526 18.6503 13.3496C17.9473 12.6466 16.9942 12.2511 16 12.2498H13.75V7.74983H28.25V15.9998ZM28.25 6.24983H13.75V5.99983C13.7508 5.40334 13.9881 4.83152 14.4099 4.40974C14.8317 3.98796 15.4035 3.75065 16 3.74983H26C26.5965 3.75065 27.1683 3.98796 27.5901 4.40974C28.0119 4.83152 28.2492 5.40334 28.25 5.99983V6.24983Z" fill="#0F0F0F"/>
</svg>
