<svg width="32" height="32" viewBox="0 0 32 32" fill="none" xmlns="http://www.w3.org/2000/svg">
<path d="M22.9609 4H9.03909C7.70313 4.00159 6.42234 4.533 5.47768 5.47767C4.53302 6.42234 4.00161 7.70313 4.00003 9.03909V12C4.00003 12.2652 4.10539 12.5196 4.29292 12.7071C4.48046 12.8946 4.73481 13 5.00003 13C5.26525 13 5.5196 12.8946 5.70714 12.7071C5.89467 12.5196 6.00003 12.2652 6.00003 12V9.03909C6.00092 8.23335 6.32139 7.46087 6.89113 6.89112C7.46087 6.32138 8.23335 6.0009 9.03909 6H22.9609C23.7667 6.00089 24.5392 6.32136 25.1089 6.89111C25.6787 7.46086 25.9991 8.23334 26 9.03909V22.961C25.9991 23.7667 25.6786 24.5392 25.1089 25.1089C24.5391 25.6786 23.7667 25.9991 22.9609 26H20C19.7348 26 19.4805 26.1054 19.2929 26.2929C19.1054 26.4804 19 26.7348 19 27C19 27.2652 19.1054 27.5196 19.2929 27.7071C19.4805 27.8946 19.7348 28 20 28H22.9609C24.2969 27.9984 25.5777 27.467 26.5223 26.5224C27.467 25.5777 27.9984 24.297 28 22.961V9.03909C27.9985 7.70312 27.467 6.42233 26.5224 5.47766C25.5777 4.53299 24.2969 4.00158 22.9609 4Z" fill="#0F0F0F"/>
<path d="M13.7071 18.293C13.6142 18.2001 13.504 18.1264 13.3827 18.0762C13.2614 18.0259 13.1313 18 13 18C12.8687 18 12.7387 18.0259 12.6174 18.0762C12.4961 18.1264 12.3858 18.2001 12.293 18.293L6 24.5863V19C6 18.7348 5.89464 18.4804 5.70711 18.2929C5.51957 18.1054 5.26522 18 5 18C4.73478 18 4.48043 18.1054 4.29289 18.2929C4.10536 18.4804 4 18.7348 4 19V26.998C4.0001 27.2632 4.10548 27.5175 4.293 27.705C4.48051 27.8925 4.73481 27.9979 5 27.998L13 28C13.2652 28 13.5196 27.8946 13.7071 27.7071C13.8946 27.5196 14 27.2652 14 27C14 26.7348 13.8946 26.4804 13.7071 26.2929C13.5196 26.1054 13.2652 26 13 26L7.416 25.9984L13.707 19.707C13.7999 19.6142 13.8736 19.504 13.9238 19.3827C13.9741 19.2614 14 19.1313 14 19C14 18.8687 13.9741 18.7387 13.9239 18.6174C13.8736 18.4961 13.7999 18.3858 13.7071 18.293Z" fill="#0F0F0F"/>
</svg>
