<svg width="32" height="32" viewBox="0 0 32 32" fill="none" xmlns="http://www.w3.org/2000/svg">
<path d="M22.9609 4.5H9.03906C7.83563 4.50133 6.68187 4.97998 5.83092 5.83094C4.97997 6.6819 4.50132 7.83566 4.5 9.03909V12C4.5 12.1326 4.55268 12.2598 4.64645 12.3536C4.74021 12.4473 4.86739 12.5 5 12.5C5.13261 12.5 5.25979 12.4473 5.35355 12.3536C5.44732 12.2598 5.5 12.1326 5.5 12V9.03909C5.50106 8.1008 5.87427 7.20124 6.53774 6.53776C7.20121 5.87428 8.10077 5.50107 9.03906 5.5H22.9609C23.8992 5.50114 24.7987 5.87438 25.4622 6.53784C26.1256 7.2013 26.4989 8.10082 26.5 9.03909V22.961C26.4988 23.8993 26.1256 24.7987 25.4621 25.4622C24.7987 26.1256 23.8992 26.4989 22.9609 26.5H20C19.8674 26.5 19.7402 26.5527 19.6464 26.6464C19.5527 26.7402 19.5 26.8674 19.5 27C19.5 27.1326 19.5527 27.2598 19.6464 27.3536C19.7402 27.4473 19.8674 27.5 20 27.5H22.9609C24.1643 27.4987 25.3181 27.02 26.169 26.1691C27.02 25.3182 27.4986 24.1644 27.5 22.961V9.03909C27.4987 7.83565 27.02 6.68189 26.1691 5.83093C25.3181 4.97997 24.1643 4.50132 22.9609 4.5Z" fill="#0F0F0F"/>
<path d="M13.3535 18.6465C13.3071 18.6001 13.252 18.5632 13.1913 18.5381C13.1307 18.513 13.0657 18.5 13 18.5C12.9344 18.5 12.8693 18.513 12.8087 18.5381C12.748 18.5632 12.6929 18.6001 12.6465 18.6465L5.5 25.7934V19C5.5 18.8674 5.44732 18.7402 5.35355 18.6464C5.25979 18.5527 5.13261 18.5 5 18.5C4.86739 18.5 4.74021 18.5527 4.64645 18.6464C4.55268 18.7402 4.5 18.8674 4.5 19V26.998C4.49996 27.0637 4.51287 27.1287 4.53798 27.1894C4.5631 27.2501 4.59992 27.3052 4.64636 27.3516C4.6928 27.3981 4.74793 27.4349 4.80861 27.46C4.86929 27.4851 4.93433 27.498 5 27.498L13 27.5C13.1326 27.5 13.2598 27.4473 13.3536 27.3536C13.4473 27.2598 13.5 27.1326 13.5 27C13.5 26.8674 13.4473 26.7402 13.3536 26.6464C13.2598 26.5527 13.1326 26.5 13 26.5L6.20923 26.4982L13.3535 19.3535C13.3999 19.3071 13.4368 19.252 13.4619 19.1913C13.4871 19.1307 13.5 19.0657 13.5 19C13.5 18.9344 13.4871 18.8693 13.4619 18.8087C13.4368 18.748 13.3999 18.6929 13.3535 18.6465Z" fill="#0F0F0F"/>
</svg>
