<svg width="32" height="32" viewBox="0 0 32 32" fill="none" xmlns="http://www.w3.org/2000/svg">
<path d="M16 10.25C16.4142 10.25 16.75 10.5858 16.75 11V18C16.75 18.4142 16.4142 18.75 16 18.75C15.5858 18.75 15.25 18.4142 15.25 18V11C15.25 10.5858 15.5858 10.25 16 10.25Z" fill="#0F0F0F"/>
<path d="M16 23C16.5523 23 17 22.5523 17 22C17 21.4477 16.5523 21 16 21C15.4477 21 15 21.4477 15 22C15 22.5523 15.4477 23 16 23Z" fill="#0F0F0F"/>
<path d="M12.2426 2.25C11.2481 2.25 10.2943 2.64509 9.59099 3.34835L3.34835 9.59099C2.64509 10.2943 2.25 11.2481 2.25 12.2426V19.7574C2.25 20.7519 2.64509 21.7057 3.34835 22.409L9.59099 28.6517C10.2943 29.3549 11.2481 29.75 12.2426 29.75H19.7574C20.7519 29.75 21.7057 29.3549 22.409 28.6516L28.6517 22.409C29.3549 21.7057 29.75 20.7519 29.75 19.7574V12.2426C29.75 11.2481 29.3549 10.2943 28.6516 9.59099L22.409 3.34835C21.7057 2.64509 20.7519 2.25 19.7574 2.25H12.2426ZM10.6517 4.40901C11.0736 3.98705 11.6459 3.75 12.2426 3.75H19.7574C20.3541 3.75 20.9264 3.98705 21.3483 4.40901L27.591 10.6517C28.0129 11.0736 28.25 11.6459 28.25 12.2426V19.7574C28.25 20.3541 28.0129 20.9264 27.591 21.3483L21.3484 27.591C20.9264 28.0129 20.3541 28.25 19.7574 28.25H12.2426C11.6459 28.25 11.0736 28.0129 10.6517 27.591L4.40901 21.3484C3.98705 20.9264 3.75 20.3541 3.75 19.7574V12.2426C3.75 11.6459 3.98705 11.0736 4.40901 10.6517L10.6517 4.40901Z" fill="#0F0F0F"/>
</svg>
