<svg width="32" height="32" viewBox="0 0 32 32" fill="none" xmlns="http://www.w3.org/2000/svg">
<path d="M16 16.1436C15.543 16.1436 15.2129 15.8135 15.2129 15.3311V3.65137C15.2129 3.16895 15.543 2.82617 16 2.82617C16.4697 2.82617 16.7871 3.16895 16.7871 3.65137V15.3311C16.7871 15.8135 16.4697 16.1436 16 16.1436ZM16 28.7627C9.20801 28.7627 3.58398 23.1387 3.58398 16.3467C3.58398 12.5889 5.29785 9.19922 7.97656 6.91406C8.80176 6.19043 9.94434 7.3457 9.03027 8.1582C6.71973 10.1006 5.24707 13.0459 5.24707 16.3467C5.24707 22.3008 10.0459 27.0996 16 27.0996C21.9541 27.0996 26.7529 22.3008 26.7529 16.3467C26.7529 13.0459 25.293 10.0879 22.9697 8.1582C22.0557 7.3457 23.1982 6.19043 24.0234 6.91406C26.7148 9.18652 28.416 12.5889 28.416 16.3467C28.416 23.1387 22.792 28.7627 16 28.7627Z" fill="black"/>
</svg>
