<svg width="32" height="32" viewBox="0 0 32 32" fill="none" xmlns="http://www.w3.org/2000/svg">
<path d="M3.83789 15.458C2.1748 15.458 0.816406 14.1123 0.816406 12.4365C0.816406 10.7861 2.1748 9.42773 3.83789 9.42773C5.50098 9.42773 6.84668 10.7861 6.84668 12.4365C6.84668 12.8682 6.75781 13.2871 6.59277 13.6553L9.63965 15.5215C10.0459 15.7754 10.3125 15.7246 10.5664 15.3945L14.4512 10.2021C13.5752 9.68164 12.9785 8.7168 12.9785 7.6123C12.9785 5.94922 14.3369 4.60352 16 4.60352C17.6631 4.60352 19.0088 5.96191 19.0088 7.6123C19.0088 8.7168 18.4375 9.66895 17.5615 10.2021L21.3955 15.3057C21.6621 15.6738 21.9414 15.7627 22.4111 15.4707L25.3945 13.6299C25.2295 13.2617 25.1406 12.8682 25.1406 12.4365C25.1406 10.7861 26.499 9.42773 28.1621 9.42773C29.8252 9.42773 31.1836 10.7861 31.1836 12.4365C31.1836 14.1123 29.8125 15.458 28.1621 15.458C28.124 15.458 28.0859 15.458 28.0479 15.458L25.7119 24.9541C25.2549 26.8076 24.29 27.7217 22.3604 27.7217H9.65234C7.70996 27.7217 6.74512 26.8076 6.28809 24.9541L3.96484 15.458C3.91406 15.458 3.87598 15.458 3.83789 15.458ZM16 8.93262C16.7363 8.93262 17.3076 8.33594 17.3076 7.6123C17.3076 6.90137 16.7109 6.30469 16 6.30469C15.2764 6.30469 14.6797 6.88867 14.6797 7.6123C14.6797 8.33594 15.2764 8.93262 16 8.93262ZM8.99219 17.0703L5.53906 14.9375L7.22754 21.8691H24.7725L26.4736 14.9375L26.4482 14.9248L22.8809 17.1211C22.1953 17.54 20.9893 17.5146 20.2656 16.5371L16.0127 10.875L11.7725 16.5117C11.0107 17.54 9.7793 17.5527 8.99219 17.0703ZM3.83789 13.7568C4.57422 13.7568 5.14551 13.1602 5.14551 12.4365C5.14551 11.7256 4.54883 11.1289 3.83789 11.1289C3.11426 11.1289 2.51758 11.7129 2.51758 12.4365C2.51758 13.1602 3.11426 13.7568 3.83789 13.7568ZM28.1621 13.7568C28.873 13.7568 29.4824 13.1602 29.4824 12.4365C29.4824 11.7129 28.873 11.1289 28.1621 11.1289C27.4512 11.1289 26.8545 11.7256 26.8545 12.4365C26.8545 13.1602 27.4258 13.7568 28.1621 13.7568ZM9.63965 26.0713H22.373C23.3125 26.0713 23.8584 25.6396 24.0742 24.7637L24.3662 23.5195H7.63379L7.93848 24.7637C8.1543 25.6396 8.7002 26.0713 9.63965 26.0713Z" fill="black"/>
</svg>
