<svg width="32" height="32" viewBox="0 0 32 32" fill="none" xmlns="http://www.w3.org/2000/svg">
<path fill-rule="evenodd" clip-rule="evenodd" d="M12 6.5C12 4.29086 13.7909 2.5 16 2.5C18.2091 2.5 20 4.29086 20 6.5C20 8.23812 18.8914 9.71732 17.3427 10.2691L20.6613 15.6298L24.3843 13.8256C23.8342 13.2073 23.5 12.3927 23.5 11.5C23.5 9.567 25.067 8 27 8C28.933 8 30.5 9.567 30.5 11.5C30.5 13.433 28.933 15 27 15C26.9497 15 26.8997 14.9989 26.8499 14.9968L24.7922 25.1798L24.789 25.1968L24.7844 25.2184L23.9802 29.1981C23.886 29.6646 23.476 30 23 30H9.00003C8.5241 30 8.11411 29.6646 8.01984 29.1981L7.21566 25.2184C7.21282 25.2056 7.21021 25.1928 7.20786 25.1798L5.15017 14.9968C5.10037 14.9989 5.05031 15 5 15C3.067 15 1.5 13.433 1.5 11.5C1.5 9.567 3.067 8 5 8C6.933 8 8.5 9.567 8.5 11.5C8.5 12.3927 8.16581 13.2073 7.6157 13.8256L11.3388 15.6298L14.6574 10.2691C13.1086 9.71735 12 8.23814 12 6.5ZM16 4.5C14.8954 4.5 14 5.39543 14 6.5C14 7.60457 14.8954 8.5 16 8.5C17.1046 8.5 18 7.60457 18 6.5C18 5.39543 17.1046 4.5 16 4.5ZM3.5 11.5C3.5 10.6716 4.17157 10 5 10C5.82843 10 6.5 10.6716 6.5 11.5C6.5 12.3284 5.82843 13 5 13C4.17157 13 3.5 12.3284 3.5 11.5ZM9.81817 28L9.41403 26H22.586L22.1819 28H9.81817ZM7.37993 15.9338L9.00988 24H22.9902L24.6201 15.9338L20.7219 17.823C20.2607 18.0465 19.7052 17.8852 19.4355 17.4494L16 11.8999L12.5646 17.4494C12.2948 17.8852 11.7394 18.0465 11.2782 17.823L7.37993 15.9338ZM25.5 11.5C25.5 10.6716 26.1716 10 27 10C27.8284 10 28.5 10.6716 28.5 11.5C28.5 12.3284 27.8284 13 27 13C26.1716 13 25.5 12.3284 25.5 11.5Z" fill="#0F0F0F"/>
</svg>
