<svg width="32" height="32" viewBox="0 0 32 32" fill="none" xmlns="http://www.w3.org/2000/svg">
<path d="M25 5C27.7614 5 30 7.23858 30 10V22C30 24.7614 27.7614 27 25 27H7C4.23858 27 2 24.7614 2 22V10C2 7.23858 4.23858 5 7 5H25ZM11 10C10.4477 10 10 10.4477 10 11V21.0078C10.0002 21.5599 10.4478 22.0078 11 22.0078H21.0078L21.1104 22.0029C21.6144 21.9516 22.0076 21.5253 22.0078 21.0078C22.0078 20.4901 21.6145 20.064 21.1104 20.0127L21.0078 20.0078H12V11C12 10.4477 11.5523 10 11 10ZM21.4189 13.8701C20.9947 13.5166 20.3633 13.5738 20.0098 13.998L18.4355 15.8857L16.4814 13.9316C16.2829 13.7331 16.01 13.627 15.7295 13.6396C15.4838 13.6508 15.2517 13.752 15.0771 13.9219L15.0059 13.998L12.7314 16.7275C12.3779 17.1518 12.4351 17.7831 12.8594 18.1367C13.2571 18.4682 13.8371 18.4386 14.1992 18.084L14.2686 18.0078L15.8418 16.1201L17.7969 18.0752C17.9954 18.2737 18.2683 18.3798 18.5488 18.3672C18.8295 18.3545 19.0926 18.2237 19.2725 18.0078L21.5469 15.2793C21.9004 14.855 21.8432 14.2237 21.4189 13.8701Z" fill="#0F0F0F"/>
</svg>
