<svg width="32" height="32" viewBox="0 0 32 32" fill="none" xmlns="http://www.w3.org/2000/svg">
<path d="M10.5 9.75C10.9142 9.75 11.25 10.0858 11.25 10.5V19.7578H20.5078L20.585 19.7617C20.9629 19.8004 21.2578 20.1197 21.2578 20.5078C21.2576 20.8958 20.9628 21.2153 20.585 21.2539L20.5078 21.2578H10.5C10.0859 21.2578 9.75017 20.9219 9.75 20.5078V10.5C9.75 10.0858 10.0858 9.75 10.5 9.75Z" fill="#0F0F0F"/>
<path d="M15.2402 13.3896C15.4507 13.3801 15.6557 13.4594 15.8047 13.6084L17.9531 15.7568L19.7021 13.6582C19.9673 13.3401 20.4406 13.2974 20.7588 13.5625C21.0769 13.8277 21.1196 14.301 20.8545 14.6191L18.5801 17.3486C18.4452 17.5103 18.2484 17.6076 18.0381 17.6172C17.8276 17.6267 17.6226 17.5474 17.4736 17.3984L15.3242 15.249L13.5762 17.3486C13.311 17.6666 12.8377 17.7094 12.5195 17.4443C12.2015 17.1791 12.1587 16.7059 12.4238 16.3877L14.6982 13.6582L14.752 13.6006C14.8828 13.4735 15.0563 13.3981 15.2402 13.3896Z" fill="#0F0F0F"/>
<path d="M24.75 5C27.3734 5 29.5 7.12665 29.5 9.75V21.75C29.5 24.3734 27.3734 26.5 24.75 26.5H6.75C4.12665 26.5 2 24.3734 2 21.75V9.75C2 7.12665 4.12665 5 6.75 5H24.75ZM6.75 6.5C4.95507 6.5 3.5 7.95507 3.5 9.75V21.75C3.5 23.5449 4.95507 25 6.75 25H24.75C26.5449 25 28 23.5449 28 21.75V9.75C28 7.95507 26.5449 6.5 24.75 6.5H6.75Z" fill="#0F0F0F"/>
</svg>
