<svg width="32" height="32" viewBox="0 0 32 32" fill="none" xmlns="http://www.w3.org/2000/svg">
<path d="M24.5 5.5C26.9853 5.5 29 7.51472 29 10V22C29 24.4853 26.9853 26.5 24.5 26.5H6.5C4.01472 26.5 2 24.4853 2 22V10C2 7.51472 4.01472 5.5 6.5 5.5H24.5ZM6.5 6.5C4.567 6.5 3 8.067 3 10V22C3 23.933 4.567 25.5 6.5 25.5H24.5C26.433 25.5 28 23.933 28 22V10C28 8.067 26.433 6.5 24.5 6.5H6.5Z" fill="#0F0F0F"/>
<path d="M10.5 10C10.7761 10 11 10.2239 11 10.5V20.0078H20.5078L20.6084 20.0176C20.8363 20.0641 21.0078 20.2661 21.0078 20.5078C21.0077 20.7494 20.8363 20.9515 20.6084 20.998L20.5078 21.0078H10.5C10.224 21.0078 10.0002 20.7838 10 20.5078V10.5C10 10.2239 10.2239 10 10.5 10Z" fill="#0F0F0F"/>
<path d="M15.252 13.6396C15.3922 13.6333 15.5286 13.6859 15.6279 13.7852L17.9697 16.127L19.8945 13.8184C20.0714 13.6064 20.3866 13.5782 20.5986 13.7549C20.8106 13.9317 20.8388 14.2469 20.6621 14.459L18.3877 17.1885C18.2978 17.2962 18.1666 17.3608 18.0264 17.3672C17.8861 17.3735 17.7497 17.3209 17.6504 17.2217L15.3076 14.8789L13.3838 17.1885C13.207 17.4003 12.8917 17.4286 12.6797 17.252C12.4678 17.0751 12.4395 16.7599 12.6162 16.5479L14.8906 13.8184L14.9648 13.7461C15.0463 13.6818 15.1466 13.6444 15.252 13.6396Z" fill="#0F0F0F"/>
</svg>
