<svg width="32" height="32" viewBox="0 0 32 32" fill="none" xmlns="http://www.w3.org/2000/svg">
<g clip-path="url(#clip0_67716_2560)">
<path d="M11.25 8.25C11.5261 8.25 11.75 8.47386 11.75 8.75V17.25H20.25L20.3506 17.2598C20.5786 17.3063 20.75 17.5083 20.75 17.75C20.75 17.9917 20.5786 18.1937 20.3506 18.2402L20.25 18.25H11.25C10.9739 18.25 10.75 18.0261 10.75 17.75V8.75C10.75 8.47386 10.9739 8.25 11.25 8.25Z" fill="#0F0F0F"/>
<path d="M15.29 11.251C15.4303 11.2447 15.5667 11.2972 15.666 11.3965L17.7539 13.4844L19.4658 11.4297C19.6426 11.2176 19.9578 11.1895 20.1699 11.3662C20.382 11.543 20.4111 11.8582 20.2344 12.0703L18.1719 14.5449C18.082 14.6527 17.9507 14.7181 17.8105 14.7246C17.6702 14.731 17.5329 14.6775 17.4336 14.5781L15.3457 12.4902L13.6338 14.5449L13.25 14.2246L12.8662 13.9053L14.9287 11.4297L15.0029 11.3574C15.0844 11.2932 15.1847 11.2558 15.29 11.251Z" fill="#0F0F0F"/>
<path d="M13.6338 14.5449C13.457 14.757 13.1418 14.7861 12.9297 14.6094C12.7176 14.4326 12.6895 14.1174 12.8662 13.9053L13.6338 14.5449Z" fill="#0F0F0F"/>
<path d="M24.75 5C27.3734 5 29.5 7.12665 29.5 9.75V22.334H29.4629C29.175 24.6817 27.1756 26.5 24.75 26.5H6.75C4.12665 26.5 2 24.3734 2 21.75V9.75C2 7.12665 4.12665 5 6.75 5H24.75ZM23.5 22.334V25H24.75C26.3455 25 27.6711 23.8501 27.9463 22.334H23.5ZM16.5 25H22V22.334H16.5V25ZM9.5 25H15V22.334H9.5V25ZM3.55371 22.334C3.82891 23.8501 5.15452 25 6.75 25H8V22.334H3.55371ZM6.75 6.5C4.95507 6.5 3.5 7.95507 3.5 9.75V20.834H28V9.75C28 7.95507 26.5449 6.5 24.75 6.5H6.75Z" fill="#0F0F0F"/>
</g>
<defs>
<clipPath id="clip0_67716_2560">
<rect width="32" height="32" fill="white"/>
</clipPath>
</defs>
</svg>
