<svg width="32" height="32" viewBox="0 0 32 32" fill="none" xmlns="http://www.w3.org/2000/svg">
<path d="M24.5789 25.6206C24.7031 25.7048 24.8499 25.7498 25 25.7498C25.1918 25.7498 25.3763 25.6764 25.5156 25.5447C26.8351 24.3272 27.8914 22.8526 28.6196 21.2116C29.3478 19.5706 29.7325 17.7979 29.75 16.0027C29.7427 14.2048 29.3625 12.4281 28.6335 10.7847C27.9045 9.14123 26.8425 7.6669 25.5146 6.45483C25.4431 6.38724 25.3589 6.33442 25.2669 6.29936C25.175 6.2643 25.077 6.24771 24.9786 6.25052C24.8802 6.25333 24.7833 6.27549 24.6935 6.31574C24.6037 6.35599 24.5227 6.41354 24.4551 6.4851C24.3875 6.55666 24.3347 6.64083 24.2996 6.73281C24.2646 6.82478 24.248 6.92276 24.2508 7.02115C24.2536 7.11954 24.2757 7.21642 24.316 7.30624C24.3562 7.39607 24.4138 7.47708 24.4853 7.54467C25.6628 8.61668 26.6053 9.92116 27.2533 11.3758C27.9012 12.8304 28.2406 14.4035 28.25 15.9958C28.2326 17.5881 27.8896 19.16 27.242 20.6148C26.5944 22.0695 25.6559 23.3763 24.4844 24.4548C24.3753 24.558 24.2997 24.6915 24.2673 24.8382C24.235 24.9848 24.2474 25.1377 24.3029 25.2772C24.3585 25.4167 24.4546 25.5363 24.5789 25.6206Z" fill="#0F0F0F"/>
<path d="M6.48438 25.5447C6.62371 25.6764 6.80823 25.7498 7 25.7498C7.15014 25.7498 7.29685 25.7048 7.42113 25.6206C7.54541 25.5363 7.64155 25.4167 7.69709 25.2772C7.75264 25.1377 7.76504 24.9848 7.73269 24.8381C7.70033 24.6915 7.62472 24.558 7.51563 24.4548C6.34419 23.3765 5.4058 22.0698 4.7582 20.6152C4.1106 19.1607 3.7675 17.5889 3.75 15.9968C3.75928 14.4043 4.09861 12.831 4.74657 11.3762C5.39454 9.92146 6.33706 8.61683 7.51465 7.54468C7.58621 7.47709 7.64376 7.39608 7.68401 7.30625C7.72426 7.21643 7.74642 7.11955 7.74923 7.02116C7.75204 6.92277 7.73544 6.82479 7.70039 6.73282C7.66533 6.64084 7.6125 6.55667 7.54492 6.48511C7.47733 6.41355 7.39632 6.356 7.30649 6.31575C7.21667 6.2755 7.11979 6.25334 7.0214 6.25053C6.92301 6.24772 6.82503 6.26431 6.73306 6.29937C6.64108 6.33443 6.55691 6.38725 6.48535 6.45484C5.15741 7.66704 4.09538 9.14154 3.36637 10.7851C2.63736 12.4287 2.25723 14.2057 2.25 16.0037C2.26759 17.7988 2.65233 19.5712 3.38054 21.2121C4.10875 22.8529 5.16503 24.3273 6.48438 25.5447Z" fill="#0F0F0F"/>
<path d="M10 21.2498C9.80823 21.2498 9.62371 21.1764 9.48438 21.0447C8.78763 20.4012 8.22995 19.6219 7.84569 18.7548C7.46142 17.8877 7.2587 16.9511 7.25 16.0027C7.25342 15.0525 7.45378 14.1134 7.83844 13.2446C8.2231 12.3757 8.7837 11.5961 9.48486 10.9548C9.55642 10.8872 9.6406 10.8343 9.7326 10.7992C9.8246 10.7641 9.92262 10.7474 10.0211 10.7502C10.1195 10.7529 10.2164 10.7751 10.3063 10.8153C10.3962 10.8555 10.4773 10.913 10.5449 10.9846C10.6126 11.0562 10.6655 11.1404 10.7006 11.2324C10.7357 11.3244 10.7523 11.4224 10.7496 11.5208C10.7468 11.6192 10.7247 11.7162 10.6845 11.8061C10.6442 11.8959 10.5867 11.977 10.5151 12.0447C9.96378 12.5457 9.52226 13.1556 9.21845 13.8358C8.91464 14.516 8.75513 15.2518 8.75 15.9968C8.75873 16.7421 8.91987 17.4777 9.22352 18.1584C9.52717 18.8391 9.96689 19.4504 10.5156 19.9548C10.6247 20.058 10.7003 20.1915 10.7327 20.3381C10.765 20.4848 10.7526 20.6377 10.6971 20.7772C10.6415 20.9167 10.5454 21.0363 10.4211 21.1205C10.2969 21.2048 10.1501 21.2498 10 21.2498Z" fill="#0F0F0F"/>
<path d="M21.5789 21.1206C21.7031 21.2048 21.8499 21.2498 22 21.2498C22.1918 21.2498 22.3763 21.1765 22.5156 21.0447C23.2124 20.4012 23.7701 19.6219 24.1543 18.7548C24.5386 17.8877 24.7413 16.9511 24.75 16.0027C24.7466 15.0525 24.5462 14.1134 24.1616 13.2446C23.7769 12.3757 23.2163 11.5961 22.5151 10.9548C22.3706 10.8182 22.1777 10.7446 21.9789 10.7502C21.8805 10.753 21.7836 10.7751 21.6937 10.8153C21.6038 10.8555 21.5227 10.9131 21.4551 10.9846C21.3185 11.1292 21.2448 11.322 21.2504 11.5208C21.2532 11.6193 21.2753 11.7162 21.3155 11.8061C21.3558 11.896 21.4133 11.977 21.4849 12.0447C22.0362 12.5457 22.4777 13.1556 22.7816 13.8358C23.0854 14.516 23.2449 15.2519 23.25 15.9968C23.2413 16.7421 23.0801 17.4777 22.7765 18.1584C22.4728 18.8391 22.0331 19.4504 21.4844 19.9548C21.3753 20.058 21.2997 20.1915 21.2673 20.3382C21.235 20.4848 21.2474 20.6377 21.3029 20.7772C21.3585 20.9167 21.4546 21.0363 21.5789 21.1206Z" fill="#0F0F0F"/>
<path d="M16.5305 18.5303C16.3899 18.6709 16.1991 18.7499 16.0002 18.75C15.8013 18.7499 15.6106 18.6709 15.47 18.5303C15.3293 18.3896 15.2503 18.1989 15.2502 18V11C15.2502 10.8011 15.3293 10.6103 15.4699 10.4697C15.6106 10.329 15.8013 10.25 16.0002 10.25C16.1992 10.25 16.3899 10.329 16.5306 10.4697C16.6712 10.6103 16.7502 10.8011 16.7502 11V18C16.7502 18.1989 16.6712 18.3896 16.5305 18.5303Z" fill="#0F0F0F"/>
<path d="M17 21.75C17 22.3023 16.5523 22.75 16 22.75C15.4477 22.75 15 22.3023 15 21.75C15 21.1977 15.4477 20.75 16 20.75C16.5523 20.75 17 21.1977 17 21.75Z" fill="#0F0F0F"/>
</svg>
