<svg width="32" height="32" viewBox="0 0 32 32" fill="none" xmlns="http://www.w3.org/2000/svg">
<path d="M4.97667 11.4747C4.34215 12.8977 4.00958 14.4368 3.99996 15.9949C4.01725 17.5533 4.35328 19.0917 4.98737 20.5153C5.62145 21.939 6.54018 23.2179 7.687 24.2732C7.78312 24.3633 7.8605 24.4714 7.9147 24.5914C7.96891 24.7115 7.99887 24.841 8.00286 24.9727C8.00685 25.1043 7.98479 25.2354 7.93796 25.3585C7.89112 25.4816 7.82043 25.5943 7.72994 25.69C7.63945 25.7857 7.53095 25.8625 7.41067 25.9162C7.29039 25.9698 7.16069 25.9992 7.02903 26.0026C6.89737 26.0059 6.76633 25.9833 6.64346 25.9359C6.52058 25.8885 6.40828 25.8173 6.313 25.7263C4.96875 24.486 3.89263 22.9836 3.15088 21.3116C2.40914 19.6397 2.01747 17.8336 2 16.0046C2.0071 14.1723 2.39409 12.3614 3.13653 10.6863C3.87897 9.01112 4.96073 7.50812 6.31348 6.27223C6.5067 6.09166 6.76357 5.99496 7.0279 6.00327C7.29223 6.01158 7.54251 6.12423 7.72401 6.31658C7.90551 6.50893 8.00345 6.76532 7.99642 7.02969C7.98938 7.29406 7.87795 7.54488 7.68648 7.72731C6.53389 8.7757 5.6112 10.0517 4.97667 11.4747Z" fill="#0F0F0F"/>
<path d="M24.9721 6.00327C25.2364 5.99496 25.4933 6.09166 25.6865 6.27223C27.0392 7.50812 28.121 9.01111 28.8635 10.6863C29.6059 12.3614 29.9929 14.1723 30 16.0046C29.9825 17.8336 29.5909 19.6397 28.8491 21.3116C28.1074 22.9836 27.0312 24.486 25.687 25.7263C25.5917 25.8173 25.4794 25.8885 25.3565 25.9359C25.2337 25.9833 25.1026 26.0059 24.971 26.0026C24.8393 25.9992 24.7096 25.9698 24.5893 25.9162C24.469 25.8625 24.3605 25.7857 24.2701 25.69C24.1796 25.5943 24.1089 25.4816 24.062 25.3585C24.0152 25.2354 23.9932 25.1043 23.9971 24.9727C24.0011 24.841 24.0311 24.7115 24.0853 24.5914C24.1395 24.4714 24.2169 24.3633 24.313 24.2732C25.4598 23.2179 26.3785 21.939 27.0126 20.5153C27.6467 19.0917 27.9827 17.5533 28 15.9949C27.9904 14.4368 27.6578 12.8977 27.0233 11.4747C26.3888 10.0517 25.4661 8.7757 24.3135 7.72731C24.122 7.54488 24.0106 7.29406 24.0035 7.02969C23.9965 6.76532 24.0945 6.50893 24.2759 6.31658C24.4574 6.12423 24.7077 6.01158 24.9721 6.00327Z" fill="#0F0F0F"/>
<path d="M10.727 10.8132C10.5448 10.6206 10.2936 10.5081 10.0285 10.5006C9.76344 10.4931 9.50624 10.5912 9.31344 10.7732C8.58709 11.4379 8.00647 12.246 7.60827 13.1464C7.21007 14.0469 7.00294 15.0201 6.99996 16.0047C7.00866 16.9868 7.21837 17.9568 7.61617 18.8548C8.01396 19.7529 8.59142 20.56 9.31296 21.2264C9.40824 21.3173 9.52054 21.3885 9.64342 21.4359C9.76629 21.4833 9.89733 21.506 10.029 21.5026C10.1606 21.4992 10.2903 21.4699 10.4106 21.4162C10.5309 21.3626 10.6394 21.2857 10.7299 21.19C10.8204 21.0943 10.8911 20.9817 10.9379 20.8586C10.9848 20.7355 11.0068 20.6043 11.0028 20.4727C10.9988 20.3411 10.9689 20.2115 10.9147 20.0915C10.8605 19.9714 10.7831 19.8633 10.687 19.7732C10.1629 19.2918 9.74292 18.7083 9.4528 18.0585C9.16268 17.4087 9.00857 16.7065 8.99996 15.9949C9.00554 15.2843 9.15828 14.5826 9.44855 13.934C9.73882 13.2854 10.1603 12.704 10.6865 12.2264C10.782 12.1363 10.8588 12.0282 10.9125 11.9084C10.9662 11.7886 10.9958 11.6594 10.9995 11.5282C11.0033 11.397 10.9812 11.2663 10.9344 11.1436C10.8877 11.0209 10.8172 10.9087 10.727 10.8132Z" fill="#0F0F0F"/>
<path d="M22.356 10.5636C22.4789 10.611 22.5912 10.6822 22.6865 10.7732C23.4128 11.4379 23.9935 12.2459 24.3917 13.1464C24.7899 14.0468 24.997 15.0201 25 16.0046C24.9913 16.9868 24.7816 17.9568 24.3838 18.8548C23.986 19.7529 23.4085 20.5599 22.687 21.2263C22.5917 21.3173 22.4794 21.3885 22.3565 21.4359C22.2337 21.4833 22.1026 21.5059 21.971 21.5026C21.8393 21.4992 21.7096 21.4698 21.5893 21.4162C21.469 21.3625 21.3605 21.2857 21.2701 21.19C21.1796 21.0943 21.1089 20.9816 21.062 20.8585C21.0152 20.7354 20.9932 20.6043 20.9971 20.4727C21.0011 20.341 21.0311 20.2115 21.0853 20.0914C21.1395 19.9714 21.2169 19.8633 21.313 19.7732C21.837 19.2918 22.257 18.7082 22.5472 18.0585C22.8373 17.4087 22.9914 16.7064 23 15.9949C22.9944 15.2843 22.8417 14.5826 22.5514 13.934C22.2611 13.2854 21.8396 12.7039 21.3135 12.2263C21.2173 12.1364 21.1398 12.0283 21.0854 11.9083C21.0311 11.7883 21.0011 11.6588 20.997 11.5271C20.9929 11.3954 21.0149 11.2643 21.0616 11.1411C21.1084 11.018 21.1791 10.9053 21.2695 10.8096C21.36 10.7139 21.4685 10.6369 21.5888 10.5833C21.7091 10.5296 21.8388 10.5002 21.9704 10.4968C22.1021 10.4935 22.2332 10.5161 22.356 10.5636Z" fill="#0F0F0F"/>
<path d="M16.383 18.924C16.2617 18.9743 16.1316 19.0001 16.0002 19C15.8689 19.0001 15.7388 18.9743 15.6175 18.924C15.4961 18.8738 15.3858 18.8002 15.293 18.7073C15.2001 18.6144 15.1264 18.5041 15.0762 18.3828C15.026 18.2614 15.0002 18.1313 15.0002 18V11C15.0002 10.7348 15.1056 10.4804 15.2931 10.2929C15.4807 10.1054 15.735 10 16.0002 10C16.2655 10 16.5198 10.1054 16.7073 10.2929C16.8949 10.4804 17.0002 10.7348 17.0002 11V18C17.0003 18.1313 16.9745 18.2614 16.9243 18.3828C16.874 18.5041 16.8004 18.6144 16.7075 18.7073C16.6146 18.8002 16.5044 18.8738 16.383 18.924Z" fill="#0F0F0F"/>
<path d="M17.25 21.75C17.25 22.4403 16.6904 23 16 23C15.3096 23 14.75 22.4403 14.75 21.75C14.75 21.0596 15.3096 20.5 16 20.5C16.6904 20.5 17.25 21.0596 17.25 21.75Z" fill="#0F0F0F"/>
</svg>
