<svg width="32" height="32" viewBox="0 0 32 32" fill="none" xmlns="http://www.w3.org/2000/svg">
<path d="M15.9995 1.9996C13.2306 1.9996 10.5238 2.82069 8.22153 4.35903C5.91925 5.89737 4.12483 8.08387 3.0652 10.642C2.00558 13.2002 1.72833 16.0151 2.26852 18.7309C2.80872 21.4466 4.14209 23.9412 6.10002 25.8991C8.05796 27.857 10.5525 29.1904 13.2683 29.7306C15.984 30.2708 18.7989 29.9935 21.3571 28.9339C23.9153 27.8743 26.1018 26.0799 27.6401 23.7776C29.1784 21.4753 29.9995 18.7685 29.9995 15.9996C29.9954 12.2878 28.519 8.72931 25.8944 6.1047C23.2698 3.4801 19.7113 2.00376 15.9995 1.9996ZM15.9995 27.9996C13.6261 27.9996 11.3061 27.2958 9.33267 25.9772C7.35929 24.6587 5.82122 22.7845 4.91296 20.5918C4.00471 18.3991 3.76707 15.9863 4.23009 13.6585C4.69312 11.3307 5.83601 9.19255 7.51424 7.51432C9.19247 5.83609 11.3307 4.6932 13.6584 4.23018C15.9862 3.76716 18.399 4.0048 20.5917 4.91305C22.7844 5.8213 24.6586 7.35937 25.9772 9.33276C27.2957 11.3062 27.9995 13.6262 27.9995 15.9996C27.996 19.1811 26.7306 22.2314 24.481 24.481C22.2313 26.7307 19.181 27.9961 15.9995 27.9996Z" fill="#0F0F0F"/>
<path d="M15.1694 9.17343C14.4867 9.86099 14.0773 10.7734 14.0177 11.7406C13.9581 12.7077 14.2523 13.6635 14.8454 14.4297L12.0962 17.3111L9.29149 20.1236C9.19874 20.2166 9.12521 20.3269 9.07511 20.4483C9.02501 20.5697 8.99932 20.6997 8.99951 20.8311C8.99969 20.9624 9.02574 21.0924 9.07618 21.2136C9.12662 21.3349 9.20045 21.445 9.29346 21.5377L11.1772 23.4156C11.5527 23.7893 12.061 23.999 12.5907 23.9986C13.1205 23.9982 13.6285 23.7879 14.0034 23.4136L15.4136 22.0035C15.5995 21.8176 15.747 21.597 15.8475 21.3541C15.948 21.1112 15.9997 20.8509 15.9995 20.588C15.9993 20.3252 15.9473 20.0649 15.8464 19.8222C15.7455 19.5794 15.5978 19.359 15.4116 19.1734L14.2187 17.9842L16.4232 15.6738C16.9206 15.8887 17.4567 15.9995 17.9985 15.9996H18.0014C18.6591 15.9992 19.3066 15.8366 19.8865 15.5262C20.4664 15.2158 20.9607 14.7672 21.3258 14.2201C21.6909 13.673 21.9154 13.0443 21.9795 12.3898C22.0436 11.7352 21.9453 11.0749 21.6933 10.4674C21.4412 9.85986 21.0433 9.32388 20.5346 8.90691C20.0259 8.48994 19.4223 8.20485 18.7772 8.07689C18.132 7.94893 17.4653 7.98204 16.836 8.17331C16.2067 8.36457 15.6343 8.70811 15.1694 9.17343ZM12.5894 21.9996L11.4136 20.8277L12.8218 19.4156L13.9995 20.5895L12.5894 21.9996ZM19.4136 13.4137C19.2286 13.6001 19.0084 13.7478 18.7658 13.8484C18.5232 13.949 18.2631 14.0004 18.0005 13.9996H17.9985C17.67 13.9993 17.3466 13.918 17.057 13.7629C16.7674 13.6079 16.5205 13.3838 16.3381 13.1106C16.1557 12.8374 16.0434 12.5235 16.0112 12.1966C15.979 11.8697 16.0278 11.5398 16.1534 11.2363C16.279 10.9328 16.4775 10.6648 16.7313 10.4563C16.9851 10.2477 17.2864 10.1049 17.6085 10.0404C17.9306 9.976 18.2636 9.99195 18.5781 10.0869C18.8926 10.1818 19.1789 10.3527 19.4116 10.5846L19.4126 10.5856C19.5985 10.7711 19.7461 10.9915 19.8468 11.2341C19.9475 11.4767 19.9994 11.7368 19.9995 11.9995C19.9996 12.2621 19.9479 12.5223 19.8473 12.7649C19.7468 13.0076 19.5994 13.228 19.4136 13.4137Z" fill="#0F0F0F"/>
</svg>
