<svg width="32" height="32" viewBox="0 0 32 32" fill="none" xmlns="http://www.w3.org/2000/svg">
<path d="M21.1026 16.0029C21.6067 16.0543 22 16.4804 22 16.998C22 18.6841 21.1867 19.9709 20.0176 20.8027C18.8776 21.6138 17.4136 21.991 16.003 21.9951C14.5925 21.9992 13.1261 21.6301 11.9834 20.8193C10.8104 19.9869 10 18.695 10 16.998L10.0049 16.8955C10.0562 16.3914 10.4824 15.9981 11 15.998H21L21.1026 16.0029ZM12.1787 17.998C12.3696 18.4864 12.705 18.8787 13.1416 19.1885C13.8739 19.7079 14.9078 19.9983 15.9971 19.9951C17.0862 19.9919 18.1225 19.6956 18.8575 19.1728C19.2924 18.8634 19.6252 18.4755 19.8164 17.998H12.1787Z" fill="#0F0F0F"/>
<path d="M9.29984 1.29003C9.77502 1.1627 10.2717 1.40019 10.4717 1.8496L10.9453 2.89061C11.3931 3.85178 11.7725 4.5817 12.1338 5.14159C12.608 5.87625 13.0073 6.24809 13.4141 6.45995C13.8274 6.67516 14.3604 6.78437 15.2159 6.78905C16.0851 6.7938 17.1672 6.69362 18.6573 6.56347L18.7471 6.55956C19.1945 6.56064 19.5921 6.8606 19.71 7.29979C19.8277 7.73912 19.634 8.19808 19.2471 8.42284L19.167 8.46483C17.8114 9.0972 16.8238 9.55145 16.0733 9.99022C15.335 10.4219 14.9281 10.7828 14.6778 11.1758C14.4314 11.5626 14.2719 12.0847 14.2285 12.958C14.2279 12.9719 14.2282 12.9859 14.2276 13H15.7793L22.1573 6.62206C22.9383 5.84125 24.2044 5.84122 24.9854 6.62206L27.8135 9.45018L27.9502 9.60253C28.591 10.388 28.5456 11.546 27.8135 12.2783L26.6162 13.4746C27.4479 14.0079 28 14.9387 28 16V24C28 26.7614 25.7615 29 23 29H9.00003C6.23862 29 4.00003 26.7614 4.00003 24V16C4.00004 14.3432 5.34319 13 7.00003 13H10.1983C9.98936 12.7903 9.78843 12.6455 9.58597 12.54C9.17264 12.3248 8.63961 12.2166 7.78421 12.2119C7.3496 12.2095 6.86122 12.2326 6.29593 12.2734L4.3428 12.4375C3.85954 12.4796 3.41574 12.1687 3.29007 11.7002C3.1645 11.2315 3.39337 10.7403 3.83304 10.5351L5.60648 9.70018C6.11634 9.45299 6.55068 9.22906 6.92581 9.00976C7.66438 8.57793 8.07194 8.21729 8.3223 7.82421C8.56866 7.43734 8.72819 6.91533 8.77152 6.04198C8.81548 5.15447 8.73643 3.98882 8.56448 2.36034L8.55862 2.26952C8.552 1.81598 8.85435 1.40954 9.29984 1.29003ZM7.00003 15C6.44776 15 6.00004 15.4477 6.00003 16V24C6.00003 25.6568 7.34319 27 9.00003 27H23C24.6569 27 26 25.6568 26 24V16C26 15.4477 25.5523 15 25 15H7.00003ZM18.6075 13H24.2637L26.3994 10.8642L23.5713 8.03612L18.6075 13ZM10.7305 6.62987C10.642 7.49074 10.4298 8.23615 10.0088 8.89745C9.66402 9.4389 9.21101 9.87237 8.67679 10.2568C9.33161 10.3227 9.94051 10.4711 10.5098 10.7676C11.2047 11.1296 11.7617 11.6683 12.2686 12.3691C12.3571 11.5087 12.5704 10.7636 12.9912 10.1025C13.3358 9.56145 13.7885 9.12839 14.3223 8.74413C13.6679 8.67827 13.0592 8.5296 12.4903 8.23339C11.7949 7.87116 11.2376 7.33126 10.7305 6.62987Z" fill="#0F0F0F"/>
</svg>
