<svg width="32" height="32" viewBox="0 0 32 32" fill="none" xmlns="http://www.w3.org/2000/svg">
<path d="M21.1002 16.5082C21.3282 16.5548 21.4996 16.7568 21.4996 16.9985C21.4995 18.5037 20.7802 19.6456 19.7272 20.395C18.6885 21.1338 17.3307 21.4917 16.0006 21.4956C14.6707 21.4992 13.3129 21.1494 12.2731 20.4116C11.2179 19.6628 10.4998 18.5165 10.4996 16.9985L10.5094 16.8979C10.5559 16.6701 10.7581 16.4987 10.9996 16.4985H20.9996L21.1002 16.5082ZM11.5358 17.4985C11.6665 18.4083 12.1544 19.1016 12.8512 19.5961C13.686 20.1885 14.8291 20.4989 15.9987 20.4956C17.1678 20.4921 18.311 20.1751 19.1471 19.5805C19.8442 19.0845 20.3306 18.3948 20.4625 17.4985H11.5358Z" fill="#0F0F0F"/>
<path d="M9.42932 1.7729C9.66686 1.70937 9.9153 1.82849 10.0153 2.05317C10.6809 3.55025 11.2086 4.63124 11.7135 5.41352C12.2143 6.18932 12.6716 6.63661 13.1822 6.90278C13.6965 7.1706 14.322 7.28459 15.2135 7.2895C16.1119 7.29436 17.2234 7.19003 18.7008 7.06098L18.7897 7.06196C18.995 7.08068 19.1722 7.22498 19.2272 7.43012C19.2818 7.63497 19.2009 7.84837 19.0328 7.96723L18.9557 8.01215C17.6115 8.63918 16.5965 9.10557 15.8209 9.55903C15.0515 10.0089 14.5669 10.4197 14.2555 10.9086C13.9464 11.3945 13.7749 12.0109 13.7291 12.9331C13.7203 13.1118 13.7179 13.3006 13.7184 13.5004H15.986L22.5104 6.97602C23.0961 6.39037 24.0457 6.39038 24.6315 6.97602L27.4596 9.80415L27.5631 9.9184C28.0433 10.5075 28.0086 11.3762 27.4596 11.9252L25.7643 13.6196C26.7711 13.9425 27.4996 14.8863 27.4996 16.0004V24.0004C27.4994 26.4855 25.4848 28.5004 22.9996 28.5004H8.99963C6.5147 28.5002 4.49986 26.4854 4.49963 24.0004V16.0004C4.49963 14.6199 5.61913 13.5007 6.99963 13.5004H11.2272C10.7486 12.7782 10.3082 12.3541 9.81701 12.0981C9.30281 11.8303 8.67813 11.7163 7.78674 11.7114C7.33749 11.7089 6.83416 11.7333 6.25939 11.7748L4.29846 11.9399C4.05714 11.9606 3.83492 11.8047 3.77209 11.5707C3.70956 11.3368 3.82433 11.0915 4.04357 10.9887L5.82385 10.1508C6.3423 9.89942 6.79052 9.66855 7.17834 9.44184C7.94775 8.99197 8.43231 8.58109 8.74377 8.09223C9.05296 7.60641 9.22531 6.99007 9.27111 6.06782C9.31724 5.13786 9.23319 3.93744 9.06115 2.30805L9.06017 2.21821C9.07602 2.01018 9.22169 1.82876 9.42932 1.7729ZM6.99963 14.5004C6.17141 14.5007 5.49963 15.1722 5.49963 16.0004V24.0004C5.49986 25.9331 7.06699 27.5002 8.99963 27.5004H22.9996C24.9325 27.5004 26.4994 25.9332 26.4996 24.0004V16.0004C26.4996 15.172 25.8281 14.5004 24.9996 14.5004H6.99963ZM10.2701 4.91352C10.2862 5.35112 10.2883 5.75117 10.2701 6.11762C10.2194 7.13925 10.0231 7.94625 9.58752 8.63032C9.15383 9.31106 8.51495 9.8198 7.68322 10.3061C7.43962 10.4485 7.17327 10.5902 6.88732 10.7368C7.20843 10.7207 7.51031 10.7098 7.7926 10.7114C8.75605 10.7167 9.56296 10.8376 10.2789 11.2104C10.9982 11.5851 11.5708 12.1858 12.1256 13.0454C12.2181 13.1887 12.311 13.3402 12.4039 13.5004H12.7184C12.7177 13.2847 12.7204 13.0792 12.7301 12.8832C12.7808 11.862 12.9766 11.0554 13.4117 10.3715C13.8453 9.69063 14.4843 9.1821 15.316 8.69575C15.5594 8.55346 15.8253 8.41157 16.111 8.26508C15.7903 8.28106 15.4886 8.29104 15.2067 8.2895C14.2433 8.28414 13.4362 8.16331 12.7203 7.79047C12.0012 7.41579 11.4284 6.81489 10.8737 5.95551C10.6746 5.64718 10.4751 5.30062 10.2701 4.91352ZM23.9244 7.68305C23.7292 7.48794 23.4126 7.48792 23.2174 7.68305L17.4 13.5004H24.4703L26.7526 11.2182C26.9234 11.0473 26.9453 10.7834 26.817 10.5893L26.7526 10.5112L23.9244 7.68305Z" fill="#0F0F0F"/>
</svg>
