<svg width="32" height="32" viewBox="0 0 32 32" fill="none" xmlns="http://www.w3.org/2000/svg">
<path d="M3.8252 14.6201C4.04102 14.8486 4.3584 14.8359 4.57422 14.6074C7.55762 11.459 11.5439 9.75781 16 9.75781C20.4688 9.75781 24.4805 11.4336 27.4512 14.6201C27.6543 14.8232 27.959 14.8232 28.1748 14.6074L29.7617 13.0078C29.9648 12.8047 29.9648 12.5508 29.7998 12.3477C26.9434 8.85645 21.5479 6.30469 16 6.30469C10.4521 6.30469 5.04395 8.84375 2.2002 12.3477C2.03516 12.5508 2.04785 12.8047 2.23828 13.0078L3.8252 14.6201ZM8.90332 19.7236C9.13184 19.9521 9.42383 19.9268 9.65234 19.6729C11.1504 18.0352 13.5752 16.8799 16 16.8926C18.4375 16.8799 20.8623 18.0605 22.3604 19.6982C22.5889 19.9395 22.8682 19.9395 23.0967 19.7109L24.8994 17.9209C25.0898 17.7432 25.1025 17.4893 24.9502 17.2988C23.1221 15.0518 19.707 13.4395 16 13.4395C12.293 13.4395 8.87793 15.0518 7.0498 17.2988C6.89746 17.4893 6.91016 17.7305 7.10059 17.9209L8.90332 19.7236ZM16 26.3887C16.2412 26.3887 16.4443 26.2617 16.9014 25.8301L19.834 22.999C20.0117 22.834 20.0371 22.6055 19.8848 22.4023C19.1357 21.4248 17.6377 20.5742 16 20.5742C14.3369 20.5742 12.8135 21.4502 12.0771 22.4531C11.9502 22.6309 11.9883 22.834 12.166 22.999L15.0986 25.8301C15.5557 26.2617 15.7588 26.3887 16 26.3887Z" fill="black"/>
</svg>
