<svg width="32" height="32" viewBox="0 0 32 32" fill="none" xmlns="http://www.w3.org/2000/svg">
<path d="M3.00001 20.0004C2.73479 20.0004 2.48044 20.1058 2.2929 20.2933C2.10536 20.4808 2.00001 20.7352 2.00001 21.0004C2.00001 21.2656 2.10536 21.52 2.2929 21.7075C2.48044 21.895 2.73479 22.0004 3.00001 22.0004C4.06055 22.0015 5.07735 22.4232 5.82726 23.1731C6.57718 23.9231 6.99895 24.9399 7.00001 26.0004C7.00001 26.2656 7.10536 26.52 7.2929 26.7075C7.48044 26.895 7.73479 27.0004 8.00001 27.0004C8.26522 27.0004 8.51958 26.895 8.70711 26.7075C8.89465 26.52 9.00001 26.2656 9.00001 26.0004C8.99827 24.4096 8.36557 22.8845 7.24073 21.7597C6.11588 20.6348 4.59077 20.0021 3.00001 20.0004Z" fill="#0F0F0F"/>
<path d="M3.49989 27C4.32831 27 4.99989 26.3284 4.99989 25.5C4.99989 24.6715 4.32831 24 3.49989 24C2.67146 24 1.99989 24.6715 1.99989 25.5C1.99989 26.3284 2.67146 27 3.49989 27Z" fill="#0F0F0F"/>
<path d="M3.00001 16.0004C2.73479 16.0004 2.48044 16.1058 2.2929 16.2933C2.10536 16.4808 2.00001 16.7352 2.00001 17.0004C2.00001 17.2656 2.10536 17.52 2.2929 17.7075C2.48044 17.895 2.73479 18.0004 3.00001 18.0004C5.12099 18.0028 7.15442 18.8465 8.65418 20.3462C10.1539 21.846 10.9976 23.8794 11 26.0004C11 26.2656 11.1054 26.52 11.2929 26.7075C11.4804 26.895 11.7348 27.0004 12 27.0004C12.2652 27.0004 12.5196 26.895 12.7071 26.7075C12.8946 26.52 13 26.2656 13 26.0004C12.9969 23.3492 11.9423 20.8075 10.0676 18.9328C8.19294 17.0581 5.65122 16.0035 3.00001 16.0004Z" fill="#0F0F0F"/>
<path d="M29.0518 9.29825C28.7625 9.11753 28.4314 9.0145 28.0906 8.9991C27.7499 8.98371 27.4109 9.05647 27.1064 9.21036C27.0753 9.22575 27.045 9.2427 27.0156 9.26114L23.998 11.1803V10.0043C23.9965 8.67873 23.4692 7.40786 22.5319 6.47052C21.5945 5.53317 20.3237 5.00589 18.998 5.00433H6.99805C5.67229 5.00595 4.4013 5.53338 3.46394 6.47093C2.52658 7.40848 1.99939 8.67957 1.99805 10.0053L2.00005 13.0014C2.00027 13.2665 2.10573 13.5206 2.29325 13.7079C2.48076 13.8953 2.73499 14.0005 3.00005 14.0004H3.00105C3.26626 14.0002 3.5205 13.8945 3.70785 13.7068C3.89519 13.5191 4.0003 13.2646 4.00005 12.9994L3.99805 10.0043C3.99891 9.20894 4.31526 8.44638 4.87769 7.88396C5.44011 7.32154 6.20266 7.00519 6.99805 7.00432H18.998C19.7934 7.00519 20.556 7.32154 21.1184 7.88396C21.6808 8.44638 21.9972 9.20894 21.998 10.0043V22.0043C21.9972 22.7996 21.681 23.562 21.1188 24.1244C20.5566 24.6868 19.7943 25.0032 18.999 25.0043L16.001 25.0004C15.8697 25.0003 15.7386 25.0261 15.6173 25.0763C15.4959 25.1265 15.3856 25.2001 15.2927 25.293C15.1051 25.4804 14.9996 25.7347 14.9995 25.9999C14.9994 26.2651 15.1046 26.5195 15.292 26.7072C15.4795 26.8948 15.7338 27.0003 15.999 27.0004L18.998 27.0043C20.3236 27.0028 21.5945 26.4755 22.5318 25.5381C23.4692 24.6008 23.9964 23.3299 23.998 22.0043V20.8196L27.0166 22.7387C27.0455 22.7573 27.0755 22.7743 27.1064 22.7895C27.4113 22.9418 27.7501 23.0137 28.0906 22.9983C28.4311 22.9829 28.762 22.8808 29.0519 22.7015C29.3418 22.5223 29.5811 22.2719 29.747 21.9742C29.913 21.6764 30 21.3412 30 21.0004V10.9994C30.0012 10.6583 29.9146 10.3226 29.7486 10.0247C29.5825 9.72678 29.3425 9.4766 29.0518 9.29825ZM27.999 20.9936L23.998 18.4503V13.5509L28 11.0053L27.999 20.9936Z" fill="#0F0F0F"/>
</svg>
