<svg width="32" height="32" viewBox="0 0 32 32" fill="none" xmlns="http://www.w3.org/2000/svg">
<path d="M28.9645 6.89399C28.4812 6.14568 27.7216 5.61878 26.8514 5.42818C25.9812 5.23758 25.0709 5.39873 24.319 5.87649L17.841 10.0134L11.4928 5.90089C11.0805 5.66906 10.5992 5.59102 10.1347 5.68067C9.67025 5.77032 9.25263 6.02183 8.95616 6.39047C8.6597 6.75911 8.50362 7.22097 8.5157 7.69387C8.52777 8.16678 8.70722 8.62007 9.02211 8.97309L12.4275 13.4704L9.52701 15.3226C8.39583 14.4845 7.10497 13.8869 5.73401 13.5668C4.94349 13.4123 4.12376 13.5482 3.42541 13.9496C2.44301 14.5805 2.37751 15.2796 2.62361 15.6928L5.38541 20.1928L6.52001 22.145C6.68962 22.4362 6.91633 22.6902 7.18653 22.8916C7.45673 23.093 7.76484 23.2378 8.09237 23.3171C8.4199 23.3965 8.76009 23.4089 9.09253 23.3536C9.42496 23.2982 9.74278 23.1762 10.0269 22.995L16.5659 18.8183L17.0269 24.9618C17.0945 25.431 17.3306 25.8595 17.6911 26.1674C18.0516 26.4753 18.5118 26.6414 18.9858 26.6347H19.0005C19.4743 26.6439 19.9352 26.4807 20.2977 26.1755C20.6602 25.8703 20.8995 25.4439 20.9712 24.9755L22.4612 15.0555L27.9427 11.5555C28.3164 11.317 28.6392 11.007 28.8929 10.6435C29.1465 10.2799 29.326 9.86991 29.4208 9.4369C29.5157 9.00388 29.5243 8.5564 29.4459 8.12009C29.3675 7.68378 29.2041 7.26693 28.9645 6.89399Z" fill="#0F0F0F"/>
</svg>
