<svg width="32" height="32" viewBox="0 0 32 32" fill="none" xmlns="http://www.w3.org/2000/svg">
<path d="M29.4439 6.0107C29.2833 5.8933 29.0826 5.84443 28.886 5.87482C28.6894 5.90521 28.5128 6.01238 28.3951 6.17281L26.3595 8.95553C26.1388 7.6037 25.6323 6.31447 24.8739 5.17383C24.1155 4.0332 23.1227 3.06738 21.9615 2.34078C21.7869 2.24655 21.5821 2.22534 21.3918 2.2818C21.2016 2.33826 21.0415 2.46778 20.9466 2.64202C20.8516 2.81626 20.8296 3.02102 20.8853 3.21146C20.941 3.40191 21.0699 3.56253 21.2438 3.65816C22.281 4.32394 23.1543 5.21559 23.7983 6.26643C24.4424 7.31727 24.8405 8.50011 24.9631 9.72652L21.3453 7.85445C21.2578 7.80851 21.162 7.78032 21.0636 7.77151C20.9651 7.7627 20.8659 7.77344 20.7716 7.80311C20.6773 7.83278 20.5898 7.8808 20.5142 7.94441C20.4385 8.00801 20.3762 8.08595 20.3307 8.17373C20.2853 8.26152 20.2577 8.35742 20.2494 8.45592C20.2412 8.55443 20.2525 8.65359 20.2827 8.7477C20.3129 8.84182 20.3614 8.92903 20.4255 9.00433C20.4895 9.07963 20.5678 9.14152 20.6559 9.18645L25.4479 11.6659C25.6068 11.7482 25.7899 11.771 25.9641 11.7301C26.1383 11.6893 26.2922 11.5876 26.3981 11.4433L29.6061 7.0595C29.7234 6.89883 29.7722 6.6982 29.7418 6.50159C29.7114 6.30498 29.6043 6.12845 29.4439 6.0107Z" fill="#0F0F0F"/>
<path d="M9.27743 22.6159C16.1482 29.4867 22.2491 29.0896 23.9886 27.3502L25.0257 26.313C25.5836 25.754 25.8969 24.9966 25.8969 24.2069C25.8969 23.4172 25.5836 22.6597 25.0258 22.1008L22.5019 19.5769C21.9447 19.0241 21.1909 18.7149 20.4061 18.7171C19.6212 18.7193 18.8692 19.0327 18.3151 19.5886L17.0749 20.8288C15.5811 20.5633 14.2116 19.8267 13.1665 18.7268C12.0671 17.6823 11.3296 16.3144 11.0611 14.8219L12.3116 13.5727C12.8567 12.9897 13.1526 12.217 13.1365 11.419C13.1204 10.6211 12.7935 9.86091 12.2254 9.30037L9.79261 6.86762C9.23363 6.30979 8.47618 5.9965 7.68648 5.9965C6.89678 5.9965 6.13933 6.30979 5.58035 6.86762L4.54314 7.90482C2.80365 9.64424 2.40663 15.7451 9.27743 22.6159ZM6.64097 7.92824C6.91844 7.65133 7.29444 7.49581 7.68644 7.49581C8.07845 7.49581 8.45444 7.65133 8.73191 7.92824L11.1647 10.361C11.4515 10.6404 11.6203 11.0192 11.6364 11.4193C11.6524 11.8194 11.5145 12.2105 11.2509 12.512L9.86915 13.8924C8.99701 14.7645 10.1682 17.8498 12.1058 19.7875C14.0434 21.7251 17.1315 22.8935 18.005 22.02L19.3757 20.6492C19.6483 20.3742 20.0188 20.2186 20.406 20.2164C20.7932 20.2142 21.1655 20.3656 21.4412 20.6375L23.9651 23.1614C24.242 23.4389 24.3975 23.8149 24.3975 24.2069C24.3975 24.5989 24.242 24.9749 23.9651 25.2524L22.9279 26.2896C21.7719 27.4455 16.508 27.7252 10.3381 21.5553C4.16814 15.3853 4.44781 10.1214 5.60377 8.96545L6.64097 7.92824Z" fill="#0F0F0F"/>
</svg>
