<svg width="32" height="32" viewBox="0 0 32 32" fill="none" xmlns="http://www.w3.org/2000/svg">
<path d="M21 12C22.1046 12 23 12.8954 23 14V23C23 24.1046 22.1046 25 21 25H11C9.89543 25 9 24.1046 9 23V14C9 12.8954 9.89543 12 11 12H21ZM11 23H17V14H11V23ZM19 23H21V14H19V23Z" fill="#0F0F0F"/>
<path d="M17 8C17.5523 8 18 8.44772 18 9C18 9.55228 17.5523 10 17 10H10C9.44772 10 9 9.55228 9 9C9 8.44772 9.44772 8 10 8H17Z" fill="#0F0F0F"/>
<path d="M23 2C25.7614 2 28 4.23858 28 7V25C28 27.7614 25.7614 30 23 30H9C6.23858 30 4 27.7614 4 25V7C4 4.23858 6.23858 2 9 2H23ZM9 4C7.34315 4 6 5.34315 6 7V25C6 26.6569 7.34315 28 9 28H23C24.6569 28 26 26.6569 26 25V7C26 5.34315 24.6569 4 23 4H9Z" fill="#0F0F0F"/>
</svg>
