<svg width="32" height="32" viewBox="0 0 32 32" fill="none" xmlns="http://www.w3.org/2000/svg">
<path d="M17 14V23H11V14H17Z" fill="#0F0F0F"/>
<path d="M21 14V23H19V14H21Z" fill="#0F0F0F"/>
<path d="M23 2.5C25.4853 2.5 27.5 4.51472 27.5 7V25C27.5 27.4853 25.4853 29.5 23 29.5H9C6.51472 29.5 4.5 27.4853 4.5 25V7C4.5 4.51472 6.51472 2.5 9 2.5H23ZM11 12C9.89543 12 9 12.8954 9 14V23C9 24.1046 9.89543 25 11 25H21C22.1046 25 23 24.1046 23 23V14C23 12.8954 22.1046 12 21 12H11ZM10 8C9.44772 8 9 8.44772 9 9C9 9.55228 9.44772 10 10 10H17C17.5523 10 18 9.55228 18 9C18 8.44772 17.5523 8 17 8H10Z" fill="#0F0F0F"/>
</svg>
