<svg width="32" height="32" viewBox="0 0 32 32" fill="none" xmlns="http://www.w3.org/2000/svg">
<path d="M16.006 23C16.6963 23 17.256 22.4404 17.256 21.75C17.256 21.0596 16.6963 20.5 16.006 20.5C15.3156 20.5 14.756 21.0596 14.756 21.75C14.756 22.4404 15.3156 23 16.006 23Z" fill="#0F0F0F"/>
<path d="M16.0005 10.0002C14.9399 10.0012 13.9231 10.423 13.1732 11.1729C12.4233 11.9228 12.0015 12.9396 12.0005 14.0002C12.0005 14.2654 12.1058 14.5198 12.2934 14.7073C12.4809 14.8948 12.7353 15.0002 13.0005 15.0002C13.2657 15.0002 13.5201 14.8948 13.7076 14.7073C13.8951 14.5198 14.0005 14.2654 14.0005 14.0002C14.0005 13.6046 14.1178 13.2179 14.3375 12.889C14.5573 12.5601 14.8697 12.3038 15.2351 12.1524C15.6006 12.001 16.0027 11.9614 16.3907 12.0386C16.7786 12.1158 17.135 12.3063 17.4147 12.586C17.6944 12.8657 17.8849 13.222 17.9621 13.61C18.0392 13.998 17.9996 14.4001 17.8482 14.7656C17.6969 15.131 17.4405 15.4434 17.1116 15.6631C16.7827 15.8829 16.396 16.0002 16.0005 16.0002C15.8691 16.0001 15.7391 16.0259 15.6177 16.0762C15.4964 16.1264 15.3861 16.2 15.2932 16.2929C15.2003 16.3858 15.1267 16.4961 15.0765 16.6174C15.0262 16.7388 15.0004 16.8688 15.0005 17.0002V18.0002C15.0005 18.2654 15.1058 18.5198 15.2934 18.7073C15.4809 18.8948 15.7353 19.0002 16.0005 19.0002C16.2657 19.0002 16.5201 18.8948 16.7076 18.7073C16.8951 18.5198 17.0005 18.2654 17.0005 18.0002V17.8732C17.9432 17.6298 18.7647 17.051 19.3111 16.2452C19.8576 15.4394 20.0913 14.462 19.9687 13.4962C19.846 12.5303 19.3753 11.6424 18.6448 10.9988C17.9142 10.3552 16.9741 10.0002 16.0005 10.0002Z" fill="#0F0F0F"/>
<path d="M23.0005 4.00018H9.00049C7.67488 4.00174 6.40402 4.52903 5.46668 5.46637C4.52933 6.40372 4.00205 7.67458 4.00049 9.00018V23.0002C4.00205 24.3258 4.52933 25.5967 5.46668 26.534C6.40402 27.4713 7.67488 27.9986 9.00049 28.0002H23.0005C24.3261 27.9986 25.597 27.4713 26.5343 26.534C27.4716 25.5967 27.9989 24.3258 28.0005 23.0002V9.00018C27.9989 7.67458 27.4716 6.40371 26.5343 5.46637C25.597 4.52902 24.3261 4.00174 23.0005 4.00018ZM26.0005 23.0002C25.9996 23.7956 25.6833 24.5581 25.1208 25.1205C24.5584 25.683 23.7959 25.9993 23.0005 26.0002H9.00049C8.20511 25.9993 7.44255 25.683 6.88013 25.1205C6.31771 24.5581 6.00136 23.7956 6.00049 23.0002V9.00018C6.00136 8.2048 6.31771 7.44224 6.88013 6.87982C7.44255 6.3174 8.20511 6.00105 9.00049 6.00018H23.0005C23.7959 6.00105 24.5584 6.3174 25.1208 6.87982C25.6833 7.44224 25.9996 8.2048 26.0005 9.00018V23.0002Z" fill="#0F0F0F"/>
</svg>
