<svg width="32" height="32" viewBox="0 0 32 32" fill="none" xmlns="http://www.w3.org/2000/svg">
<path d="M1.25 4C1.25 2.48122 2.48122 1.25 4 1.25H9C9.41421 1.25 9.75 1.58579 9.75 2C9.75 2.41421 9.41421 2.75 9 2.75H4C3.30964 2.75 2.75 3.30964 2.75 4V9C2.75 9.41421 2.41421 9.75 2 9.75C1.58579 9.75 1.25 9.41421 1.25 9V4Z" fill="#0F0F0F"/>
<path d="M9.75 8.75C9.19772 8.75 8.75 9.19772 8.75 9.75V10.25C8.75 10.8023 9.19772 11.25 9.75 11.25H10.25C10.8023 11.25 11.25 10.8023 11.25 10.25V9.75C11.25 9.19772 10.8023 8.75 10.25 8.75H9.75Z" fill="#0F0F0F"/>
<path d="M5.25 8C5.25 6.48122 6.48122 5.25 8 5.25H12C13.5188 5.25 14.75 6.48122 14.75 8V12C14.75 13.5188 13.5188 14.75 12 14.75H8C6.48122 14.75 5.25 13.5188 5.25 12V8ZM8 6.75C7.30964 6.75 6.75 7.30964 6.75 8V12C6.75 12.6904 7.30964 13.25 8 13.25H12C12.6904 13.25 13.25 12.6904 13.25 12V8C13.25 7.30964 12.6904 6.75 12 6.75H8Z" fill="#0F0F0F"/>
<path d="M28 30.75C29.5188 30.75 30.75 29.5188 30.75 28V23C30.75 22.5858 30.4142 22.25 30 22.25C29.5858 22.25 29.25 22.5858 29.25 23V28C29.25 28.6904 28.6904 29.25 28 29.25H23C22.5858 29.25 22.25 29.5858 22.25 30C22.25 30.4142 22.5858 30.75 23 30.75H28Z" fill="#0F0F0F"/>
<path d="M28 1.25C29.5188 1.25 30.75 2.48122 30.75 4V9C30.75 9.41421 30.4142 9.75 30 9.75C29.5858 9.75 29.25 9.41421 29.25 9V4C29.25 3.30964 28.6904 2.75 28 2.75L23 2.75C22.5858 2.75 22.25 2.41421 22.25 2C22.25 1.58579 22.5858 1.25 23 1.25H28Z" fill="#0F0F0F"/>
<path d="M1.25 28C1.25 29.5188 2.48122 30.75 4 30.75L9 30.75C9.41421 30.75 9.75 30.4142 9.75 30C9.75 29.5858 9.41421 29.25 9 29.25L4 29.25C3.30964 29.25 2.75 28.6904 2.75 28L2.75 23C2.75 22.5858 2.41421 22.25 2 22.25C1.58579 22.25 1.25 22.5858 1.25 23V28Z" fill="#0F0F0F"/>
<path d="M21.75 8.75C21.1977 8.75 20.75 9.19772 20.75 9.75V10.25C20.75 10.8023 21.1977 11.25 21.75 11.25H22.25C22.8023 11.25 23.25 10.8023 23.25 10.25V9.75C23.25 9.19772 22.8023 8.75 22.25 8.75H21.75Z" fill="#0F0F0F"/>
<path d="M17.25 8C17.25 6.48122 18.4812 5.25 20 5.25H24C25.5188 5.25 26.75 6.48122 26.75 8V12C26.75 13.5188 25.5188 14.75 24 14.75H20C18.4812 14.75 17.25 13.5188 17.25 12V8ZM20 6.75C19.3096 6.75 18.75 7.30964 18.75 8V12C18.75 12.6904 19.3096 13.25 20 13.25H24C24.6904 13.25 25.25 12.6904 25.25 12V8C25.25 7.30964 24.6904 6.75 24 6.75H20Z" fill="#0F0F0F"/>
<path d="M9.75 20.75C9.19772 20.75 8.75 21.1977 8.75 21.75V22.25C8.75 22.8023 9.19772 23.25 9.75 23.25H10.25C10.8023 23.25 11.25 22.8023 11.25 22.25V21.75C11.25 21.1977 10.8023 20.75 10.25 20.75H9.75Z" fill="#0F0F0F"/>
<path d="M8 17.25C6.48122 17.25 5.25 18.4812 5.25 20V24C5.25 25.5188 6.48122 26.75 8 26.75H12C13.5188 26.75 14.75 25.5188 14.75 24V20C14.75 18.4812 13.5188 17.25 12 17.25H8ZM6.75 20C6.75 19.3096 7.30964 18.75 8 18.75H12C12.6904 18.75 13.25 19.3096 13.25 20V24C13.25 24.6904 12.6904 25.25 12 25.25H8C7.30964 25.25 6.75 24.6904 6.75 24V20Z" fill="#0F0F0F"/>
<path d="M21.75 20.75C21.1977 20.75 20.75 21.1977 20.75 21.75V22.25C20.75 22.8023 21.1977 23.25 21.75 23.25H22.25C22.8023 23.25 23.25 22.8023 23.25 22.25V21.75C23.25 21.1977 22.8023 20.75 22.25 20.75H21.75Z" fill="#0F0F0F"/>
<path d="M25.25 17.25C24.6977 17.25 24.25 17.6977 24.25 18.25V18.75C24.25 19.3023 24.6977 19.75 25.25 19.75H25.75C26.3023 19.75 26.75 19.3023 26.75 18.75V18.25C26.75 17.6977 26.3023 17.25 25.75 17.25H25.25Z" fill="#0F0F0F"/>
<path d="M25.25 24.25C24.6977 24.25 24.25 24.6977 24.25 25.25V25.75C24.25 26.3023 24.6977 26.75 25.25 26.75H25.75C26.3023 26.75 26.75 26.3023 26.75 25.75V25.25C26.75 24.6977 26.3023 24.25 25.75 24.25H25.25Z" fill="#0F0F0F"/>
<path d="M18.25 17.25C17.6977 17.25 17.25 17.6977 17.25 18.25V18.75C17.25 19.3023 17.6977 19.75 18.25 19.75H18.75C19.3023 19.75 19.75 19.3023 19.75 18.75V18.25C19.75 17.6977 19.3023 17.25 18.75 17.25H18.25Z" fill="#0F0F0F"/>
<path d="M18.25 24.25C17.6977 24.25 17.25 24.6977 17.25 25.25V25.75C17.25 26.3023 17.6977 26.75 18.25 26.75H18.75C19.3023 26.75 19.75 26.3023 19.75 25.75V25.25C19.75 24.6977 19.3023 24.25 18.75 24.25H18.25Z" fill="#0F0F0F"/>
</svg>
