<svg width="32" height="32" viewBox="0 0 32 32" fill="none" xmlns="http://www.w3.org/2000/svg">
<path d="M1 4C1 2.34315 2.34315 1 4 1H9C9.55228 1 10 1.44772 10 2C10 2.55229 9.55228 3 9 3H4C3.44772 3 3 3.44772 3 4V9C3 9.55229 2.55228 10 2 10C1.44772 10 1 9.55229 1 9V4Z" fill="#0F0F0F"/>
<path d="M9.75 8.5C9.05964 8.5 8.5 9.05964 8.5 9.75V10.25C8.5 10.9404 9.05964 11.5 9.75 11.5H10.25C10.9404 11.5 11.5 10.9404 11.5 10.25V9.75C11.5 9.05964 10.9404 8.5 10.25 8.5H9.75Z" fill="#0F0F0F"/>
<path d="M5 8C5 6.34315 6.34315 5 8 5H12C13.6569 5 15 6.34315 15 8V12C15 13.6569 13.6569 15 12 15H8C6.34315 15 5 13.6569 5 12V8ZM8 7C7.44772 7 7 7.44772 7 8V12C7 12.5523 7.44772 13 8 13H12C12.5523 13 13 12.5523 13 12V8C13 7.44772 12.5523 7 12 7H8Z" fill="#0F0F0F"/>
<path d="M28 31C29.6569 31 31 29.6569 31 28V23C31 22.4477 30.5523 22 30 22C29.4477 22 29 22.4477 29 23V28C29 28.5523 28.5523 29 28 29H23C22.4477 29 22 29.4477 22 30C22 30.5523 22.4477 31 23 31H28Z" fill="#0F0F0F"/>
<path d="M28 1C29.6569 1 31 2.34315 31 4V9C31 9.55229 30.5523 10 30 10C29.4477 10 29 9.55229 29 9V4C29 3.44772 28.5523 3 28 3L23 3C22.4477 3 22 2.55228 22 2C22 1.44772 22.4477 1 23 1H28Z" fill="#0F0F0F"/>
<path d="M1 28C1 29.6569 2.34315 31 4 31L9 31C9.55228 31 10 30.5523 10 30C10 29.4477 9.55228 29 9 29L4 29C3.44772 29 3 28.5523 3 28L3 23C3 22.4477 2.55229 22 2 22C1.44772 22 1 22.4477 1 23V28Z" fill="#0F0F0F"/>
<path d="M21.75 8.5C21.0596 8.5 20.5 9.05964 20.5 9.75V10.25C20.5 10.9404 21.0596 11.5 21.75 11.5H22.25C22.9404 11.5 23.5 10.9404 23.5 10.25V9.75C23.5 9.05964 22.9404 8.5 22.25 8.5H21.75Z" fill="#0F0F0F"/>
<path d="M17 8C17 6.34315 18.3431 5 20 5H24C25.6569 5 27 6.34315 27 8V12C27 13.6569 25.6569 15 24 15H20C18.3431 15 17 13.6569 17 12V8ZM20 7C19.4477 7 19 7.44772 19 8V12C19 12.5523 19.4477 13 20 13H24C24.5523 13 25 12.5523 25 12V8C25 7.44772 24.5523 7 24 7H20Z" fill="#0F0F0F"/>
<path d="M9.75 20.5C9.05964 20.5 8.5 21.0596 8.5 21.75V22.25C8.5 22.9404 9.05964 23.5 9.75 23.5H10.25C10.9404 23.5 11.5 22.9404 11.5 22.25V21.75C11.5 21.0596 10.9404 20.5 10.25 20.5H9.75Z" fill="#0F0F0F"/>
<path d="M8 17C6.34315 17 5 18.3431 5 20V24C5 25.6569 6.34315 27 8 27H12C13.6569 27 15 25.6569 15 24V20C15 18.3431 13.6569 17 12 17H8ZM7 20C7 19.4477 7.44772 19 8 19H12C12.5523 19 13 19.4477 13 20V24C13 24.5523 12.5523 25 12 25H8C7.44772 25 7 24.5523 7 24V20Z" fill="#0F0F0F"/>
<path d="M21.75 20.5C21.0596 20.5 20.5 21.0596 20.5 21.75V22.25C20.5 22.9404 21.0596 23.5 21.75 23.5H22.25C22.9404 23.5 23.5 22.9404 23.5 22.25V21.75C23.5 21.0596 22.9404 20.5 22.25 20.5H21.75Z" fill="#0F0F0F"/>
<path d="M25.25 17C24.5596 17 24 17.5596 24 18.25V18.75C24 19.4404 24.5596 20 25.25 20H25.75C26.4404 20 27 19.4404 27 18.75V18.25C27 17.5596 26.4404 17 25.75 17H25.25Z" fill="#0F0F0F"/>
<path d="M25.25 24C24.5596 24 24 24.5596 24 25.25V25.75C24 26.4404 24.5596 27 25.25 27H25.75C26.4404 27 27 26.4404 27 25.75V25.25C27 24.5596 26.4404 24 25.75 24H25.25Z" fill="#0F0F0F"/>
<path d="M18.25 17C17.5596 17 17 17.5596 17 18.25V18.75C17 19.4404 17.5596 20 18.25 20H18.75C19.4404 20 20 19.4404 20 18.75V18.25C20 17.5596 19.4404 17 18.75 17H18.25Z" fill="#0F0F0F"/>
<path d="M18.25 24C17.5596 24 17 24.5596 17 25.25V25.75C17 26.4404 17.5596 27 18.25 27H18.75C19.4404 27 20 26.4404 20 25.75V25.25C20 24.5596 19.4404 24 18.75 24H18.25Z" fill="#0F0F0F"/>
</svg>
