<svg width="32" height="32" viewBox="0 0 32 32" fill="none" xmlns="http://www.w3.org/2000/svg">
<path d="M8.25 7.25C7.69772 7.25 7.25 7.69772 7.25 8.25V9.75C7.25 10.3023 7.69772 10.75 8.25 10.75H9.75C10.3023 10.75 10.75 10.3023 10.75 9.75V8.25C10.75 7.69772 10.3023 7.25 9.75 7.25H8.25Z" fill="#0F0F0F"/>
<path d="M3.25 6C3.25 4.48122 4.48122 3.25 6 3.25H12C13.5188 3.25 14.75 4.48122 14.75 6V12C14.75 13.5188 13.5188 14.75 12 14.75H6C4.48122 14.75 3.25 13.5188 3.25 12V6ZM6 4.75C5.30964 4.75 4.75 5.30964 4.75 6V12C4.75 12.6904 5.30964 13.25 6 13.25H12C12.6904 13.25 13.25 12.6904 13.25 12V6C13.25 5.30964 12.6904 4.75 12 4.75H6Z" fill="#0F0F0F"/>
<path d="M22.25 7.25C21.6977 7.25 21.25 7.69772 21.25 8.25V9.75C21.25 10.3023 21.6977 10.75 22.25 10.75H23.75C24.3023 10.75 24.75 10.3023 24.75 9.75V8.25C24.75 7.69772 24.3023 7.25 23.75 7.25H22.25Z" fill="#0F0F0F"/>
<path d="M17.25 6C17.25 4.48122 18.4812 3.25 20 3.25H26C27.5188 3.25 28.75 4.48122 28.75 6V12C28.75 13.5188 27.5188 14.75 26 14.75H20C18.4812 14.75 17.25 13.5188 17.25 12V6ZM20 4.75C19.3096 4.75 18.75 5.30964 18.75 6V12C18.75 12.6904 19.3096 13.25 20 13.25H26C26.6904 13.25 27.25 12.6904 27.25 12V6C27.25 5.30964 26.6904 4.75 26 4.75H20Z" fill="#0F0F0F"/>
<path d="M8.25 21.25C7.69772 21.25 7.25 21.6977 7.25 22.25V23.75C7.25 24.3023 7.69772 24.75 8.25 24.75H9.75C10.3023 24.75 10.75 24.3023 10.75 23.75V22.25C10.75 21.6977 10.3023 21.25 9.75 21.25H8.25Z" fill="#0F0F0F"/>
<path d="M6 17.25C4.48122 17.25 3.25 18.4812 3.25 20V26C3.25 27.5188 4.48122 28.75 6 28.75H12C13.5188 28.75 14.75 27.5188 14.75 26V20C14.75 18.4812 13.5188 17.25 12 17.25H6ZM4.75 20C4.75 19.3096 5.30964 18.75 6 18.75H12C12.6904 18.75 13.25 19.3096 13.25 20V26C13.25 26.6904 12.6904 27.25 12 27.25H6C5.30964 27.25 4.75 26.6904 4.75 26V20Z" fill="#0F0F0F"/>
<path d="M18.25 17.25C17.6977 17.25 17.25 17.6977 17.25 18.25V19.75C17.25 20.3023 17.6977 20.75 18.25 20.75H19.75C20.3023 20.75 20.75 20.3023 20.75 19.75V18.25C20.75 17.6977 20.3023 17.25 19.75 17.25H18.25Z" fill="#0F0F0F"/>
<path d="M18.25 25.25C17.6977 25.25 17.25 25.6977 17.25 26.25V27.75C17.25 28.3023 17.6977 28.75 18.25 28.75H19.75C20.3023 28.75 20.75 28.3023 20.75 27.75V26.25C20.75 25.6977 20.3023 25.25 19.75 25.25H18.25Z" fill="#0F0F0F"/>
<path d="M22.25 21.25C21.6977 21.25 21.25 21.6977 21.25 22.25V23.75C21.25 24.3023 21.6977 24.75 22.25 24.75H23.75C24.3023 24.75 24.75 24.3023 24.75 23.75V22.25C24.75 21.6977 24.3023 21.25 23.75 21.25H22.25Z" fill="#0F0F0F"/>
<path d="M26.25 25.25C25.6977 25.25 25.25 25.6977 25.25 26.25V27.75C25.25 28.3023 25.6977 28.75 26.25 28.75H27.75C28.3023 28.75 28.75 28.3023 28.75 27.75V26.25C28.75 25.6977 28.3023 25.25 27.75 25.25H26.25Z" fill="#0F0F0F"/>
<path d="M26.25 17.25C25.6977 17.25 25.25 17.6977 25.25 18.25V19.75C25.25 20.3023 25.6977 20.75 26.25 20.75H27.75C28.3023 20.75 28.75 20.3023 28.75 19.75V18.25C28.75 17.6977 28.3023 17.25 27.75 17.25H26.25Z" fill="#0F0F0F"/>
</svg>
