<svg width="32" height="32" viewBox="0 0 32 32" fill="none" xmlns="http://www.w3.org/2000/svg">
<path d="M26.7158 9.75293H26.7227C28.1233 9.82174 29.25 10.9457 29.25 12.3369V21.6846L29.2373 21.9424C29.1081 23.2121 28.0355 24.2031 26.7227 24.2676H26.7158L26.5918 24.2705H16.6201L13.0322 27.0498C12.4626 27.4904 11.6232 27.1581 11.5186 26.4697C11.5175 26.463 11.5171 26.456 11.5166 26.4492L11.5098 26.3477C11.5094 26.3421 11.5088 26.3366 11.5088 26.3311V24.2705H11.4141C9.99601 24.2705 8.82471 23.1904 8.75293 21.8164V21.8096L8.75 21.6904V12.3369C8.75 10.9006 9.95061 9.75 11.4141 9.75H26.5918L26.7158 9.75293ZM20.9355 18.3008C19.3496 18.3008 18.1211 19.4231 18.1211 20.7412L18.1328 20.8486C18.1873 21.0977 18.4349 21.3358 18.9209 21.5273C19.4572 21.7387 20.1895 21.8496 20.9355 21.8496C21.6816 21.8496 22.4139 21.7387 22.9502 21.5273C23.5057 21.3084 23.7498 21.0286 23.75 20.7412L23.7354 20.4961C23.6037 19.3675 22.574 18.433 21.2285 18.3135L20.9355 18.3008ZM18.3916 13.5605C17.6768 13.5607 17.1152 14.1146 17.1152 14.7754L17.123 14.9121C17.1603 15.2274 17.3249 15.5077 17.5703 15.7041C17.6412 15.7608 17.6753 15.8519 17.6602 15.9414C17.6449 16.0308 17.5826 16.1046 17.4971 16.1348C17.2189 16.233 16.9611 16.3826 16.7393 16.5771C16.2917 16.97 16.0268 17.5157 15.999 18.0918C15.9995 18.5075 16.3029 18.7949 16.7588 18.9824C16.9359 19.0552 17.1359 19.1122 17.3477 19.1562C17.7254 18.4654 18.3396 17.9121 19.0771 17.5635C18.5979 17.1046 18.2988 16.4677 18.2988 15.7617C18.299 14.993 18.6533 14.3066 19.209 13.8428C18.9881 13.6673 18.7037 13.5605 18.3916 13.5605ZM20.9355 14.374C20.1201 14.3741 19.4769 15.0052 19.4766 15.7617C19.4766 16.5186 20.12 17.1503 20.9355 17.1504L21.0859 17.1436C21.8285 17.0714 22.3936 16.4715 22.3936 15.7617C22.3932 15.0523 21.8284 14.4529 21.0859 14.3809L20.9355 14.374ZM16.2891 12.3496C15.6776 12.3496 15.1995 12.8227 15.1992 13.3838L15.2051 13.4941C15.2335 13.7486 15.3597 13.9777 15.5498 14.1445C15.6154 14.2022 15.6462 14.29 15.6309 14.376C15.6155 14.4621 15.5562 14.534 15.4746 14.5654C15.257 14.6493 15.055 14.7699 14.8799 14.9238C14.4985 15.2591 14.2735 15.7235 14.25 16.2139C14.2505 16.5665 14.4965 16.8114 14.874 16.9717C14.9251 16.9934 14.9792 17.0126 15.0352 17.0312C15.2264 16.5349 15.5385 16.085 15.9512 15.7227C15.998 15.6816 16.0458 15.641 16.0947 15.6025C15.9944 15.345 15.9366 15.0668 15.9365 14.7754C15.9365 13.9062 16.4231 13.1526 17.1396 12.7422C16.9727 12.543 16.7311 12.4011 16.4512 12.3613L16.2891 12.3496Z" fill="#0F0F0F"/>
<path d="M19.6035 5.72754L19.6123 5.72852C21.0992 5.80553 22.2752 7.05138 22.2754 8.56934V9.27539H20.458V8.56934L20.4531 8.46582L20.4404 8.37793C20.3586 7.94355 20.0036 7.61087 19.5693 7.56543L19.4668 7.55957L5.5332 7.56055C4.98925 7.56062 4.54216 8.00823 4.54199 8.56934V17.5635L4.54688 17.667L4.56055 17.7617C4.65133 18.2271 5.05533 18.5732 5.5332 18.5732H6.16699C6.67183 18.5735 7.07485 18.9876 7.0752 19.4902V20.7871L7.82617 20.1777L8.27539 19.8145V22.1689L8.17285 22.252L7.25 23.001C6.44208 23.6554 5.25862 23.0654 5.25781 22.0352V20.3936C3.88081 20.2579 2.79915 19.117 2.72852 17.71L2.72754 17.7021L2.72461 17.5693V8.56934C2.7248 7.00219 3.97871 5.7247 5.5332 5.72461H19.4727L19.6035 5.72754Z" fill="#0F0F0F"/>
</svg>
