<svg width="32" height="33" viewBox="0 0 32 33" fill="none" xmlns="http://www.w3.org/2000/svg">
<path d="M4.96803 7.58844C4.17924 6.87126 3.68457 5.8401 3.68457 4.69415C3.68457 2.52769 5.45257 0.771523 7.63342 0.771523C9.81427 0.771523 11.5823 2.52769 11.5823 4.69415C11.5823 4.82437 11.5759 4.95312 11.5634 5.08008C12.2298 4.69272 13.0055 4.4707 13.8334 4.4707C16.3194 4.4707 18.3347 6.47264 18.3347 8.9422C18.3347 8.97046 18.3345 8.99866 18.3339 9.02679C19.2084 8.49954 20.2348 8.19595 21.3325 8.19595C24.5289 8.19595 27.1202 10.77 27.1202 13.9453C27.1202 15.9276 26.1102 17.6755 24.5736 18.7091C28.3577 19.9264 31.1183 23.2172 31.1183 27.1661C31.1183 29.0262 29.5968 30.2473 27.83 30.969C26.0176 31.7092 23.6544 32.0629 21.3331 32.0629C19.0117 32.0629 16.6485 31.7092 14.8361 30.969C13.0693 30.2473 11.5479 29.0262 11.5479 27.1661C11.5479 25.7973 11.8795 24.5077 12.4705 23.356C11.1626 23.2325 9.83866 22.9708 8.74018 22.5032C7.29579 21.8884 6.04102 20.8145 6.04102 19.0724C6.04102 19.061 6.04128 19.0495 6.04181 19.0381C6.0726 18.3747 6.19195 17.7245 6.39259 17.1029C5.259 16.9988 4.11716 16.7717 3.17349 16.3566C1.94577 15.8167 0.884766 14.8668 0.884766 13.3355C0.884766 13.3241 0.885027 13.3127 0.885551 13.3014C0.964395 11.5909 1.722 9.98106 2.99264 8.82402C3.57651 8.29235 4.24686 7.87617 4.96803 7.58844ZM5.18457 4.69415C5.18457 5.98907 6.20315 7.04767 7.48786 7.12248C7.54136 7.12321 7.59492 7.12461 7.64852 7.12666C8.99404 7.11859 10.0823 6.03261 10.0823 4.69415C10.0823 3.35068 8.98589 2.26159 7.63342 2.26159C6.28095 2.26159 5.18457 3.35068 5.18457 4.69415ZM13.3886 21.9292C14.5524 20.4531 16.1932 19.3203 18.0918 18.7093C16.555 17.6758 15.5449 15.9277 15.5449 13.9453C15.5449 13.8458 15.5475 13.7469 15.5525 13.6486C14.9866 13.5061 14.4058 13.4271 13.8209 13.4137C13.7487 13.4135 13.6769 13.4116 13.6055 13.4081C12.0848 13.3935 10.612 13.9522 9.48676 14.9755C8.31785 16.0386 7.61883 17.5168 7.54108 19.0887C7.54833 19.9465 8.12884 20.6219 9.33095 21.1336C10.4414 21.6062 11.9143 21.8524 13.3886 21.9292ZM7.03632 15.6569C7.41733 14.9997 7.90033 14.3981 8.47388 13.8765C9.20094 13.2153 10.0441 12.7093 10.9516 12.3774C9.96186 11.5572 9.33203 10.3228 9.33203 8.9422C9.33203 8.9111 9.33236 8.88008 9.33299 8.84913C8.77667 8.70467 8.20435 8.6265 7.6281 8.61677C7.56466 8.61668 7.50156 8.61511 7.43885 8.61209C6.17108 8.6017 4.94383 9.06865 4.00623 9.92243C3.03242 10.8092 2.45001 12.0413 2.38484 13.3515C2.39152 14.0329 2.8244 14.5735 3.78077 14.9942C4.65346 15.378 5.82285 15.5863 7.03632 15.6569ZM13.8459 11.9236C15.4977 11.9169 16.8347 10.5847 16.8347 8.9422C16.8347 7.29558 15.491 5.96077 13.8334 5.96077C12.1758 5.96077 10.832 7.2956 10.832 8.9422C10.832 10.5296 12.0809 11.8272 13.6558 11.9185C13.7191 11.9194 13.7825 11.9211 13.8459 11.9236ZM21.3325 9.68602C18.9645 9.68602 17.0449 11.593 17.0449 13.9453C17.0449 16.2976 18.9645 18.2044 21.3325 18.2044C23.7005 18.2044 25.6202 16.2976 25.6202 13.9453C25.6202 11.593 23.7005 9.68602 21.3325 9.68602ZM13.0479 27.1661C13.0479 28.0739 13.7852 28.9286 15.4066 29.5909C16.9824 30.2345 19.1368 30.5728 21.3331 30.5728C23.5293 30.5728 25.6837 30.2345 27.2595 29.5909C28.8809 28.9286 29.6183 28.0739 29.6183 27.1661C29.6183 23.0996 25.9727 19.6945 21.3331 19.6945C16.6934 19.6945 13.0479 23.0996 13.0479 27.1661Z" fill="#0F0F0F"/>
</svg>
