<svg width="32" height="32" viewBox="0 0 32 32" fill="none" xmlns="http://www.w3.org/2000/svg">
<path d="M12.3535 7.01074C12.6606 7.04379 12.955 7.1545 13.2109 7.33301C13.4669 7.51152 13.6766 7.75217 13.8213 8.03418C13.9659 8.31624 14.0417 8.63094 14.041 8.9502C14.041 8.96509 14.0365 8.9793 14.0361 8.99414C14.3282 8.84031 14.6517 8.75898 14.9795 8.75684C15.5287 8.75831 16.0564 8.97834 16.4521 9.37207C16.848 9.76598 17.0812 10.3036 17.1035 10.8711C17.7032 10.5274 18.4072 10.4321 19.0723 10.6045C19.737 10.7769 20.3136 11.2037 20.6855 11.7988C21.0576 12.3943 21.1977 13.1139 21.0762 13.8115C20.9547 14.5092 20.5808 15.1327 20.0312 15.5566C20.8577 15.8379 21.58 16.3774 22.0986 17.0996C22.6171 17.8217 22.9073 18.6918 22.9287 19.5908C22.9287 21.2537 20.65 21.998 18.3916 21.998C17.3724 22.0185 16.3579 21.8409 15.4023 21.4736C14.1224 20.9293 13.8535 20.1489 13.8535 19.5908C13.8543 18.9916 13.9843 18.4 14.2344 17.8594C12.3942 17.657 11.3489 16.9117 11.3486 15.7588C11.3499 15.4674 11.39 15.1768 11.4668 14.8965C9.89438 14.7202 9.00026 14.0621 9 13.041C9.0117 12.4522 9.18958 11.8793 9.51172 11.3936C9.83388 10.9078 10.2864 10.5301 10.8135 10.3066C10.5976 10.0784 10.4392 9.79856 10.3525 9.49219C10.2659 9.18591 10.2536 8.86224 10.3164 8.5498C10.3793 8.23741 10.5153 7.94533 10.7129 7.7002C10.9106 7.45499 11.1641 7.26377 11.4502 7.14355C11.7362 7.02334 12.0464 6.9777 12.3535 7.01074ZM18.3906 16.1416C16.3595 16.1418 14.7072 17.6887 14.707 19.5908C14.707 20.4457 16.3255 21.1162 18.3916 21.1162C20.4572 21.1161 22.0752 20.446 22.0752 19.5908C22.075 17.6886 20.4219 16.1416 18.3906 16.1416ZM14.9785 13.168C14.2789 13.1336 13.5943 13.3861 13.0742 13.8711C12.554 14.3564 12.2397 15.0354 12.2012 15.7588C12.2014 16.5829 13.4818 16.9468 14.748 17.0205C15.2728 16.3516 15.9659 15.8447 16.751 15.5566C16.4173 15.2969 16.1461 14.9612 15.959 14.5752C15.7719 14.189 15.6733 13.763 15.6719 13.3311C15.6719 13.3069 15.678 13.2846 15.6787 13.2607C15.4487 13.2074 15.2141 13.1762 14.9785 13.168ZM18.3906 11.4023C17.8962 11.4031 17.4219 11.6063 17.0723 11.9678C16.7227 12.3293 16.526 12.8199 16.5254 13.3311C16.5255 13.7123 16.635 14.0853 16.8398 14.4023C17.0448 14.7193 17.3361 14.9663 17.6768 15.1123C18.0176 15.2583 18.393 15.2961 18.7549 15.2217C19.1167 15.1472 19.4491 14.964 19.71 14.6943C19.9708 14.4246 20.1487 14.0811 20.2207 13.707C20.2927 13.333 20.2554 12.9451 20.1143 12.5928C19.9731 12.2404 19.7345 11.9385 19.4277 11.7266C19.121 11.5146 18.7596 11.4023 18.3906 11.4023ZM12.1592 10.8965C11.579 10.8672 11.011 11.0759 10.5791 11.4775C10.1472 11.8793 9.8855 12.4413 9.85254 13.041C9.8528 13.6833 10.8309 13.9744 11.8252 14.0449C12.2288 13.3792 12.8277 12.8637 13.5342 12.5742C13.3211 12.3718 13.1501 12.1267 13.0322 11.8535C12.9143 11.5802 12.852 11.2846 12.8486 10.9854C12.6223 10.9323 12.3912 10.9029 12.1592 10.8965ZM14.9795 9.63867C14.6402 9.6392 14.3141 9.77829 14.0742 10.0264C13.8344 10.2744 13.6996 10.6112 13.6992 10.9619C13.6992 11.2236 13.7745 11.4796 13.915 11.6973C14.0557 11.9149 14.2563 12.0844 14.4902 12.1846C14.7241 12.2847 14.9813 12.3118 15.2295 12.2607C15.4778 12.2096 15.7057 12.0826 15.8848 11.8975C16.0637 11.7123 16.186 11.4765 16.2354 11.2197C16.2846 10.963 16.2591 10.6968 16.1621 10.4551C16.0651 10.2133 15.901 10.0067 15.6904 9.86133C15.48 9.71606 15.2326 9.63864 14.9795 9.63867ZM12.1592 7.88672C11.8864 7.887 11.6245 7.99882 11.4316 8.19824C11.2388 8.39766 11.1302 8.66817 11.1299 8.9502C11.1299 9.16053 11.1907 9.36612 11.3037 9.54102C11.4167 9.71575 11.5769 9.8521 11.7646 9.93262C11.9526 10.0131 12.1598 10.0342 12.3594 9.99316C12.559 9.95213 12.7428 9.85091 12.8867 9.70215C13.0305 9.55342 13.1283 9.36345 13.168 9.15723C13.2076 8.951 13.1872 8.73722 13.1094 8.54297C13.0315 8.34861 12.8997 8.18231 12.7305 8.06543C12.5614 7.94864 12.3625 7.88679 12.1592 7.88672Z" fill="#0F0F0F"/>
<path d="M27.4434 4.00488C29.4246 4.10551 31 5.74378 31 7.75V21.75C31 23.7562 29.4246 25.3945 27.4434 25.4951L27.25 25.5H12.7637L7.53125 29.6865C6.76371 30.3002 5.6504 29.8256 5.51367 28.9014L5.5 28.71V25.5H5.25C3.24378 25.5 1.60551 23.9246 1.50488 21.9434L1.5 21.75V7.75C1.5 5.67893 3.17893 4 5.25 4H27.25L27.4434 4.00488ZM5.25 5.5C4.00736 5.5 3 6.50736 3 7.75V21.75L3.01172 21.9805C3.12714 23.1148 4.08517 24 5.25 24H6.25C6.66421 24 7 24.3358 7 24.75V28.1895L12.0312 24.1641L12.1367 24.0938C12.2473 24.0325 12.3722 24 12.5 24H27.25L27.4805 23.9883C28.6148 23.8729 29.5 22.9148 29.5 21.75V7.75L29.4883 7.51953C29.3806 6.46094 28.5391 5.61943 27.4805 5.51172L27.25 5.5H5.25Z" fill="#0F0F0F"/>
</svg>
