<svg width="32" height="32" viewBox="0 0 32 32" fill="none" xmlns="http://www.w3.org/2000/svg">
<path d="M12.1875 7.88086C12.5036 7.75566 12.8471 7.71896 13.1816 7.77539C13.516 7.83185 13.8289 7.97957 14.0889 8.20117C14.3489 8.42286 14.5464 8.71126 14.6621 9.03613C14.7247 9.21186 14.7614 9.39501 14.7734 9.58008C14.9887 9.49251 15.2176 9.44119 15.4512 9.42871C15.8416 9.40787 16.2301 9.49632 16.5742 9.68555C16.9183 9.87475 17.2049 10.1569 17.4043 10.5C17.5575 10.7635 17.6535 11.0562 17.6904 11.3584C17.8821 11.2683 18.083 11.1992 18.291 11.1572C18.6453 11.0857 19.0099 11.0879 19.3633 11.1641C19.7167 11.2402 20.0514 11.3883 20.3477 11.5996C20.6439 11.811 20.896 12.0811 21.0889 12.3936C21.2817 12.706 21.4116 13.0554 21.4717 13.4199C21.5317 13.7843 21.5201 14.1577 21.4385 14.5176C21.3568 14.8774 21.2061 15.217 20.9951 15.5166C20.8792 15.6812 20.745 15.8306 20.5977 15.9648C21.2832 16.2398 21.8895 16.6956 22.3496 17.293C22.9094 18.02 23.2249 18.9143 23.25 19.8408V19.8477L23.2422 20.0107C23.1693 20.8092 22.5638 21.3616 21.79 21.708C20.9619 22.0787 19.8786 22.2467 18.8164 22.2471L18.8174 22.248C17.8315 22.2683 16.8508 22.0975 15.9268 21.7432L15.9189 21.7393C15.3109 21.4809 14.9205 21.1616 14.6836 20.8213C14.446 20.4799 14.3741 20.1347 14.374 19.8477C14.3754 19.3096 14.4846 18.7778 14.6914 18.2861C13.9311 18.1879 13.302 17.9894 12.8408 17.6855C12.2995 17.3287 11.9883 16.8243 11.9883 16.1992C11.9883 15.9532 12.0166 15.7086 12.0713 15.4697C11.4221 15.3837 10.8819 15.2078 10.4844 14.9365C10.0175 14.6179 9.75014 14.168 9.75 13.6133V13.6064L9.76465 13.374C9.81886 12.8357 10.0133 12.3203 10.3301 11.8838C10.6143 11.4922 10.9869 11.1798 11.4131 10.9707C11.2826 10.8109 11.177 10.6305 11.1016 10.4355C10.9772 10.1141 10.9379 9.76381 10.9873 9.42188C11.0368 9.08007 11.1734 8.7571 11.3838 8.48633C11.5943 8.21546 11.8715 8.00606 12.1875 7.88086ZM18.8115 16.6738C16.9245 16.674 15.4162 18.112 15.416 19.8467C15.416 20.0212 15.4929 20.1894 15.6611 20.3525C15.8324 20.5187 16.0897 20.6695 16.417 20.7969C17.0711 21.0514 17.9505 21.1885 18.8125 21.1885C19.6743 21.1884 20.553 21.0513 21.207 20.7969C21.5344 20.6695 21.7916 20.5187 21.9629 20.3525C22.1311 20.1894 22.208 20.0213 22.208 19.8467C22.2078 18.1119 20.6987 16.6738 18.8115 16.6738ZM15.5498 13.8438C14.9156 13.8141 14.2939 14.0445 13.8213 14.4873C13.3502 14.9288 13.0644 15.5456 13.0293 16.2051C13.032 16.4998 13.2471 16.7533 13.707 16.9541C14.1323 17.1398 14.7028 17.2461 15.29 17.2852C15.7581 16.7058 16.3558 16.2558 17.0312 15.9727C16.8031 15.7675 16.6083 15.5248 16.458 15.252C16.2322 14.8419 16.1119 14.3797 16.1074 13.9092C15.9246 13.8722 15.7391 13.85 15.5527 13.8438H15.5498ZM18.8115 12.1631C18.3736 12.1638 17.9519 12.3437 17.6396 12.666C17.327 12.9889 17.15 13.4287 17.1494 13.8887L17.1533 14.0166C17.1747 14.3144 17.2708 14.602 17.4316 14.8506C17.6153 15.1344 17.8759 15.3538 18.1787 15.4834C18.4815 15.6129 18.8139 15.647 19.1348 15.5811C19.4558 15.5151 19.7523 15.3521 19.9854 15.1113C20.2183 14.8706 20.3777 14.5626 20.4424 14.2266C20.5071 13.8904 20.4735 13.5418 20.3467 13.2256C20.2198 12.9095 20.0057 12.6407 19.7324 12.4521C19.4592 12.2636 19.1386 12.1631 18.8115 12.1631ZM12.668 11.6816C12.2164 11.7061 11.7833 11.8911 11.4434 12.209C11.0564 12.571 10.8215 13.0773 10.792 13.6191C10.7952 13.8843 11.0082 14.0908 11.4277 14.2441C11.7756 14.3713 12.1875 14.428 12.4971 14.4541C12.8646 13.8759 13.3816 13.4168 13.9912 13.1328C13.8566 12.9844 13.7409 12.8182 13.6504 12.6367C13.5124 12.36 13.4359 12.0564 13.4199 11.7471C13.2379 11.7089 13.053 11.687 12.8672 11.6816H12.668ZM15.5615 10.4854C15.2712 10.4858 14.991 10.6047 14.7832 10.8193C14.5752 11.0343 14.4574 11.3275 14.457 11.6348L14.4688 11.8047C14.493 11.9731 14.5527 12.1344 14.6445 12.2764C14.767 12.4656 14.9405 12.6122 15.1416 12.6982C15.3425 12.7841 15.5636 12.8064 15.7764 12.7627C15.9891 12.7189 16.1858 12.6104 16.3408 12.4502C16.4959 12.2899 16.6023 12.0848 16.6455 11.8604C16.6887 11.6358 16.6667 11.4025 16.582 11.1914C16.4974 10.9807 16.3543 10.802 16.1729 10.6768C16.0366 10.5828 15.8825 10.5215 15.7227 10.4971L15.5615 10.4854ZM13.042 8.83496C12.8758 8.8008 12.703 8.81766 12.5459 8.88477C12.3886 8.95203 12.2524 9.06731 12.1562 9.21582C12.0602 9.36433 12.0088 9.53969 12.0088 9.71973C12.0091 9.96138 12.1016 10.1918 12.2646 10.3604C12.4276 10.5286 12.6472 10.6217 12.874 10.6221C13.0432 10.6221 13.2095 10.5705 13.3516 10.4727C13.4939 10.3745 13.6063 10.2332 13.6729 10.0674C13.7393 9.90161 13.7566 9.71846 13.7227 9.54199C13.6886 9.36562 13.605 9.2047 13.4834 9.0791C13.3619 8.95361 13.2082 8.86921 13.042 8.83496Z" fill="#0F0F0F"/>
<path d="M27.1797 4.50488C29.0292 4.59842 30.5 6.12727 30.5 8V22C30.5 23.8727 29.0292 25.4016 27.1797 25.4951L27 25.5H12.4258L7.125 29.7412C6.51083 30.2322 5.61964 29.8522 5.51074 29.1123L5.5 28.96V25.5H5C3.12727 25.5 1.59842 24.0292 1.50488 22.1797L1.5 22V8C1.5 6.067 3.067 4.5 5 4.5H27L27.1797 4.50488ZM5 5.5C3.61929 5.5 2.5 6.61929 2.5 8V22L2.5127 22.2559C2.64082 23.5164 3.70566 24.5 5 24.5H6C6.27614 24.5 6.5 24.7239 6.5 25V28.96L11.9375 24.6094L12.0078 24.5625C12.0815 24.5217 12.1648 24.5 12.25 24.5H27L27.2559 24.4873C28.5164 24.3592 29.5 23.2943 29.5 22V8C29.5 6.70566 28.5164 5.64082 27.2559 5.5127L27 5.5H5Z" fill="#0F0F0F"/>
</svg>
