<svg width="32" height="32" viewBox="0 0 32 32" fill="none" xmlns="http://www.w3.org/2000/svg">
<path d="M15.2947 3.79276C15.4821 3.6053 15.7363 3.5 16.0013 3.5C16.2663 3.5 16.5205 3.6053 16.7079 3.79276C16.8953 3.98023 17.0007 4.23452 17.0007 4.49971V12.9981C17.0007 13.2742 17.2245 13.4981 17.5007 13.4981C17.7768 13.4981 18.0007 13.2742 18.0007 12.9981V5.49952C18.0007 5.23433 18.106 4.98003 18.2934 4.79257C18.4808 4.60511 18.735 4.49981 19 4.49981C19.2651 4.49981 19.5193 4.60511 19.7067 4.79257C19.8941 4.98003 19.9994 5.23433 19.9994 5.49952V16.5365C18.9916 16.6519 18.0464 17.1046 17.3223 17.8289C16.4798 18.6716 16.0049 19.8133 16.0011 21.0049C16.0002 21.2811 16.2233 21.5056 16.4995 21.5065C16.7756 21.5074 17.0002 21.2843 17.0011 21.0082C17.0041 20.0805 17.3738 19.1918 18.0295 18.536C18.6852 17.8801 19.5737 17.5103 20.501 17.5073C20.7765 17.5064 20.9994 17.2828 20.9994 17.0073V14.5678C20.9994 13.6839 21.1265 12.9638 21.3703 12.4469C21.6068 11.9457 21.9422 11.6511 22.392 11.5425L22.3952 11.5417C22.6436 11.48 22.7566 11.5163 22.7941 11.5323C22.8365 11.5504 22.8545 11.57 22.9027 11.6223L22.9082 11.6282L22.9088 11.6293C22.9175 11.6425 22.9912 11.7546 22.996 12.0079C22.9995 12.1882 23.0001 13.4324 22.9997 14.6427C22.9996 15.2454 22.9992 15.8364 22.9988 16.2768L22.9982 17.0073V21.4964C22.9982 23.3529 22.2606 25.138 20.9487 26.4502C19.6365 27.7627 17.8569 28.5 16.0013 28.5C14.1456 28.5 12.3659 27.7627 11.0538 26.4502C9.74156 25.1377 9.0022 23.3526 9.0022 21.4964L9.00221 19.9967L9.00201 19.9825L9.002 19.9813L9.00176 19.9549L9.00139 19.8755L9.00078 19.5953C9.00044 19.3581 9.00023 19.0247 9.00011 18.6183C8.99988 17.8057 9.00004 16.7022 9.00035 15.4946L9.00116 12.8657C9.00171 11.2276 9.00223 9.63514 9.00223 8.49894C9.00223 8.23561 9.10841 7.98078 9.29716 7.79199C9.48458 7.60453 9.73877 7.49923 10.0038 7.49923C10.2688 7.49923 10.523 7.60453 10.7104 7.79199C10.8979 7.97946 11.0032 8.23375 11.0032 8.49894V14.9977C11.0032 15.2738 11.227 15.4977 11.5032 15.4977C11.7793 15.4977 12.0032 15.2738 12.0032 14.9977V5.49952C12.0032 5.23433 12.1085 4.98003 12.2959 4.79257C12.4833 4.60511 12.7375 4.49981 13.0025 4.49981C13.2676 4.49981 13.5218 4.60511 13.7092 4.79257C13.8966 4.98003 14.0019 5.23433 14.0019 5.49952V12.9981C14.0019 13.2742 14.2258 13.4981 14.5019 13.4981C14.7781 13.4981 15.0019 13.2742 15.0019 12.9981V4.49971C15.0019 4.23452 15.1072 3.98023 15.2947 3.79276Z" fill="#0F0F0F"/>
</svg>
