<svg width="32" height="32" viewBox="0 0 32 32" fill="none" xmlns="http://www.w3.org/2000/svg">
<path d="M26 5.24965H6C5.00582 5.2509 4.05272 5.64639 3.34973 6.34938C2.64674 7.05237 2.25125 8.00547 2.25 8.99965V18.9996C2.25125 19.9938 2.64674 20.9469 3.34973 21.6499C4.05272 22.3529 5.00582 22.7484 6 22.7496H6.25V25.9996C6.25 26.1986 6.32902 26.3893 6.46967 26.53C6.61032 26.6706 6.80109 26.7496 7 26.7496C7.19891 26.7496 7.38968 26.6706 7.53033 26.53C7.67098 26.3893 7.75 26.1986 7.75 25.9996V22.7496H12.25V25.9996C12.25 26.1986 12.329 26.3893 12.4697 26.53C12.6103 26.6706 12.8011 26.7496 13 26.7496C13.1989 26.7496 13.3897 26.6706 13.5303 26.53C13.671 26.3893 13.75 26.1986 13.75 25.9996V22.7496H18.25V25.9996C18.25 26.1986 18.329 26.3893 18.4697 26.53C18.6103 26.6706 18.8011 26.7496 19 26.7496C19.1989 26.7496 19.3897 26.6706 19.5303 26.53C19.671 26.3893 19.75 26.1986 19.75 25.9996V22.7496H24.25V25.9996C24.25 26.1986 24.329 26.3893 24.4697 26.53C24.6103 26.6706 24.8011 26.7496 25 26.7496C25.1989 26.7496 25.3897 26.6706 25.5303 26.53C25.671 26.3893 25.75 26.1986 25.75 25.9996V22.7496H26C26.9942 22.7484 27.9473 22.3529 28.6503 21.6499C29.3533 20.9469 29.7487 19.9938 29.75 18.9996V8.99965C29.7487 8.00547 29.3533 7.05237 28.6503 6.34938C27.9473 5.64639 26.9942 5.2509 26 5.24965ZM28.25 18.9996C28.2492 19.5961 28.0119 20.168 27.5901 20.5897C27.1683 21.0115 26.5965 21.2488 26 21.2496H6C5.40351 21.2488 4.83169 21.0115 4.40991 20.5897C3.98813 20.168 3.75082 19.5961 3.75 18.9996V8.99965C3.75082 8.40316 3.98813 7.83134 4.40991 7.40956C4.83169 6.98778 5.40351 6.75047 6 6.74965H26C26.5965 6.75047 27.1683 6.98778 27.5901 7.40956C28.0119 7.83134 28.2492 8.40316 28.25 8.99965V18.9996Z" fill="#0F0F0F"/>
</svg>
