<svg width="32" height="32" viewBox="0 0 32 32" fill="none" xmlns="http://www.w3.org/2000/svg">
<path d="M29.8423 13.891C29.801 13.6303 29.6582 13.3965 29.4452 13.2406C29.2322 13.0847 28.9662 13.0194 28.7052 13.0588C28.4442 13.0983 28.2094 13.2393 28.052 13.4511C27.8946 13.663 27.8273 13.9285 27.8648 14.1898C28.2494 16.7264 27.81 19.3194 26.6112 21.5877C25.4124 23.8559 23.5175 25.6797 21.205 26.7909C18.8926 27.9021 16.2847 28.242 13.7646 27.7607C11.2446 27.2793 8.94554 26.0022 7.2054 24.117C5.46526 22.2318 4.37588 19.838 4.09745 17.2876C3.81901 14.7372 4.36621 12.1647 5.65859 9.94846C6.95097 7.73219 8.92033 5.98904 11.2771 4.97531C13.6339 3.96158 16.2538 3.73077 18.7515 4.3168C19.0097 4.3774 19.2815 4.33294 19.5069 4.1932C19.7323 4.05345 19.893 3.82988 19.9536 3.57165C20.0143 3.31342 19.9698 3.0417 19.83 2.81625C19.6903 2.5908 19.4667 2.4301 19.2085 2.3695C16.3786 1.7029 13.4114 1.93373 10.7186 3.02996C8.02583 4.12619 5.74107 6.03344 4.18141 8.48705C2.62174 10.9407 1.86452 13.8189 2.01482 16.7224C2.16513 19.6258 3.21551 22.4105 5.0202 24.69C6.82488 26.9694 9.29437 28.6305 12.0859 29.4429C14.8775 30.2552 17.8527 30.1784 20.5987 29.2231C23.3446 28.2679 25.7251 26.4815 27.4098 24.112C29.0945 21.7425 29.9998 18.9074 30.0001 16C30.0001 15.294 29.9474 14.5891 29.8423 13.891Z" fill="#0F0F0F"/>
<path d="M11.5001 15C12.3285 15 13.0001 14.3284 13.0001 13.5C13.0001 12.6716 12.3285 12 11.5001 12C10.6717 12 10.0001 12.6716 10.0001 13.5C10.0001 14.3284 10.6717 15 11.5001 15Z" fill="#0F0F0F"/>
<path d="M20.5001 15C21.3285 15 22.0001 14.3284 22.0001 13.5C22.0001 12.6716 21.3285 12 20.5001 12C19.6717 12 19.0001 12.6716 19.0001 13.5C19.0001 14.3284 19.6717 15 20.5001 15Z" fill="#0F0F0F"/>
<path d="M20.9995 8H23.9995V11C23.9995 11.2652 24.1049 11.5196 24.2924 11.7071C24.4799 11.8946 24.7343 12 24.9995 12C25.2647 12 25.5191 11.8946 25.7066 11.7071C25.8941 11.5196 25.9995 11.2652 25.9995 11V8H28.9995C29.2647 8 29.5191 7.89464 29.7066 7.70711C29.8941 7.51957 29.9995 7.26522 29.9995 7C29.9995 6.73478 29.8941 6.48043 29.7066 6.29289C29.5191 6.10536 29.2647 6 28.9995 6H25.9995V3C25.9995 2.73478 25.8941 2.48043 25.7066 2.29289C25.5191 2.10536 25.2647 2 24.9995 2C24.7343 2 24.4799 2.10536 24.2924 2.29289C24.1049 2.48043 23.9995 2.73478 23.9995 3V6H20.9995C20.7343 6 20.4799 6.10536 20.2924 6.29289C20.1049 6.48043 19.9995 6.73478 19.9995 7C19.9995 7.26522 20.1049 7.51957 20.2924 7.70711C20.4799 7.89464 20.7343 8 20.9995 8Z" fill="#0F0F0F"/>
<path d="M9.0708 19.37C9.63852 20.7415 10.6005 21.9136 11.8348 22.738C13.0691 23.5624 14.5203 24.0019 16.0046 24.001C17.489 24 18.9396 23.5586 20.1729 22.7327C21.4062 21.9067 22.3666 20.7334 22.9326 19.3612C22.983 19.2381 23.0084 19.1062 23.0072 18.9732C23.006 18.8402 22.9783 18.7087 22.9257 18.5866C22.8731 18.4644 22.7967 18.354 22.7008 18.2617C22.605 18.1694 22.4918 18.0972 22.3677 18.0493C22.2436 18.0013 22.1112 17.9786 21.9782 17.9825C21.8453 17.9864 21.7144 18.0167 21.5933 18.0718C21.4723 18.1268 21.3634 18.2055 21.2731 18.3031C21.1828 18.4008 21.1128 18.5155 21.0674 18.6405C20.6463 19.6375 19.9405 20.4881 19.0383 21.0858C18.1361 21.6835 17.0776 22.0019 15.9954 22.0009C14.9131 22 13.8552 21.6798 12.9541 21.0805C12.0529 20.4812 11.3486 19.6294 10.9292 18.6317C10.8824 18.5074 10.8112 18.3937 10.72 18.2972C10.6287 18.2007 10.5191 18.1234 10.3977 18.0697C10.2762 18.016 10.1452 17.987 10.0124 17.9845C9.87963 17.982 9.74766 18.006 9.62423 18.055C9.5008 18.104 9.38837 18.1772 9.29351 18.2701C9.19865 18.3631 9.12326 18.474 9.07174 18.5964C9.02022 18.7188 8.9936 18.8503 8.99344 18.9831C8.99328 19.1159 9.01958 19.2475 9.0708 19.37Z" fill="#0F0F0F"/>
</svg>
