<svg width="32" height="32" viewBox="0 0 32 32" fill="none" xmlns="http://www.w3.org/2000/svg">
<path d="M29.595 13.9281C29.5803 13.8307 29.5465 13.7372 29.4956 13.6528C29.4447 13.5685 29.3777 13.495 29.2984 13.4365C29.2191 13.3781 29.1291 13.3358 29.0334 13.3122C28.9378 13.2885 28.8384 13.284 28.741 13.2987C28.6436 13.3134 28.5501 13.3472 28.4658 13.3981C28.3814 13.449 28.3079 13.516 28.2495 13.5953C28.191 13.6746 28.1488 13.7647 28.1251 13.8603C28.1015 13.9559 28.0969 14.0553 28.1116 14.1527C28.5036 16.7417 28.0546 19.3881 26.8307 21.7029C25.6068 24.0177 23.6725 25.8788 21.3123 27.0126C18.952 28.1463 16.2902 28.4929 13.7183 28.0014C11.1464 27.5099 8.79998 26.2062 7.02407 24.2821C5.24817 22.3579 4.13644 19.9147 3.85233 17.3117C3.56823 14.7087 4.12672 12.0832 5.44572 9.8212C6.76472 7.55921 8.77463 5.78006 11.18 4.74531C13.5853 3.71057 16.2592 3.47481 18.8084 4.0727C18.9051 4.09743 19.0057 4.10263 19.1043 4.088C19.203 4.07337 19.2978 4.03921 19.3831 3.98751C19.4684 3.93582 19.5425 3.86762 19.6011 3.78692C19.6598 3.70623 19.7017 3.61465 19.7245 3.51754C19.7473 3.42044 19.7505 3.31976 19.7339 3.2214C19.7173 3.12304 19.6813 3.02898 19.6279 2.94473C19.5745 2.86047 19.5049 2.7877 19.423 2.73069C19.3412 2.67368 19.2488 2.63357 19.1512 2.6127C16.3719 1.958 13.4577 2.18468 10.8131 3.2613C8.16843 4.33792 5.92449 6.21106 4.39268 8.6208C2.86086 11.0305 2.11714 13.8573 2.26472 16.7089C2.41231 19.5605 3.44387 22.2954 5.21627 24.5341C6.98866 26.7729 9.41398 28.4043 12.1556 29.2022C14.8973 30 17.8193 29.9247 20.5162 28.9866C23.2131 28.0484 25.5511 26.2941 27.2057 23.967C28.8603 21.6399 29.7496 18.8554 29.7499 16C29.75 15.3065 29.6983 14.6139 29.595 13.9281Z" fill="#0F0F0F"/>
<path d="M11.4999 14.75C12.1903 14.75 12.7499 14.1904 12.7499 13.5C12.7499 12.8096 12.1903 12.25 11.4999 12.25C10.8096 12.25 10.2499 12.8096 10.2499 13.5C10.2499 14.1904 10.8096 14.75 11.4999 14.75Z" fill="#0F0F0F"/>
<path d="M20.4999 14.75C21.1903 14.75 21.7499 14.1904 21.7499 13.5C21.7499 12.8096 21.1903 12.25 20.4999 12.25C19.8096 12.25 19.2499 12.8096 19.2499 13.5C19.2499 14.1904 19.8096 14.75 20.4999 14.75Z" fill="#0F0F0F"/>
<path d="M20.9993 7.75H24.2493V11C24.2493 11.1989 24.3284 11.3897 24.469 11.5303C24.6097 11.671 24.8004 11.75 24.9993 11.75C25.1983 11.75 25.389 11.671 25.5297 11.5303C25.6703 11.3897 25.7493 11.1989 25.7493 11V7.75H28.9993C29.1983 7.75 29.389 7.67098 29.5297 7.53033C29.6703 7.38968 29.7493 7.19891 29.7493 7C29.7493 6.80109 29.6703 6.61032 29.5297 6.46967C29.389 6.32902 29.1983 6.25 28.9993 6.25H25.7493V3C25.7493 2.80109 25.6703 2.61032 25.5297 2.46967C25.389 2.32902 25.1983 2.25 24.9993 2.25C24.8004 2.25 24.6097 2.32902 24.469 2.46967C24.3284 2.61032 24.2493 2.80109 24.2493 3V6.25H20.9993C20.8004 6.25 20.6097 6.32902 20.469 6.46967C20.3284 6.61032 20.2493 6.80109 20.2493 7C20.2493 7.19891 20.3284 7.38968 20.469 7.53033C20.6097 7.67098 20.8004 7.75 20.9993 7.75Z" fill="#0F0F0F"/>
<path d="M9.72304 18.3031C9.53828 18.3766 9.39025 18.5204 9.31149 18.703C9.23274 18.8855 9.2297 19.0919 9.30304 19.2767C9.85225 20.6014 10.782 21.7335 11.9747 22.5298C13.1673 23.3261 14.5694 23.7508 16.0034 23.7501C17.4375 23.7495 18.8392 23.3236 20.0311 22.5263C21.2231 21.729 22.1519 20.5961 22.6999 19.2709C22.7717 19.0853 22.7667 18.8787 22.6862 18.6967C22.6056 18.5147 22.456 18.3722 22.2704 18.3005C22.0847 18.2287 21.8782 18.2337 21.6962 18.3142C21.5142 18.3948 21.3717 18.5443 21.2999 18.73C20.8609 19.7739 20.1234 20.6649 19.1799 21.2912C18.2364 21.9176 17.1289 22.2513 15.9965 22.2507C14.864 22.2501 13.757 21.9151 12.8142 21.2877C11.8714 20.6603 11.1348 19.7685 10.6969 18.7241C10.6234 18.5393 10.4796 18.3912 10.297 18.3123C10.1145 18.2333 9.90804 18.23 9.72304 18.3031Z" fill="#0F0F0F"/>
</svg>
