<svg width="32" height="32" viewBox="0 0 32 32" fill="none" xmlns="http://www.w3.org/2000/svg">
<path d="M29.8422 13.891C29.8008 13.6303 29.6581 13.3965 29.4451 13.2406C29.2321 13.0848 28.9661 13.0194 28.7051 13.0588C28.4441 13.0983 28.2093 13.2393 28.0519 13.4512C27.8944 13.663 27.8271 13.9285 27.8647 14.1898C28.2493 16.7264 27.8099 19.3194 26.6111 21.5877C25.4123 23.8559 23.5174 25.6797 21.2049 26.7909C18.8925 27.9021 16.2845 28.242 13.7645 27.7607C11.2445 27.2794 8.94542 26.0022 7.20528 24.117C5.46513 22.2318 4.37576 19.838 4.09733 17.2876C3.81889 14.7372 4.36609 12.1647 5.65847 9.94847C6.95084 7.73219 8.92021 5.98905 11.277 4.97532C13.6338 3.96159 16.2536 3.73078 18.7514 4.31681C19.0096 4.37741 19.2813 4.33295 19.5068 4.19321C19.7322 4.05346 19.8929 3.82989 19.9535 3.57166C20.0141 3.31343 19.9697 3.0417 19.8299 2.81626C19.6902 2.59081 19.4666 2.43011 19.2084 2.36951C16.3785 1.7029 13.4112 1.93373 10.7185 3.02996C8.0257 4.12619 5.74095 6.03345 4.18128 8.48706C2.62162 10.9407 1.8644 13.8189 2.0147 16.7224C2.16501 19.6259 3.21539 22.4105 5.02008 24.69C6.82476 26.9694 9.29425 28.6305 12.0858 29.4429C14.8774 30.2552 17.8526 30.1784 20.5985 29.2231C23.3445 28.2679 25.725 26.4815 27.4097 24.112C29.0943 21.7425 29.9997 18.9074 30 16C30 15.2941 29.9473 14.5891 29.8422 13.891Z" fill="#0F0F0F"/>
<path d="M11.5 15C12.3284 15 13 14.3284 13 13.5C13 12.6716 12.3284 12 11.5 12C10.6716 12 9.99998 12.6716 9.99998 13.5C9.99998 14.3284 10.6716 15 11.5 15Z" fill="#0F0F0F"/>
<path d="M20.5 15C21.3284 15 22 14.3284 22 13.5C22 12.6716 21.3284 12 20.5 12C19.6716 12 19 12.6716 19 13.5C19 14.3284 19.6716 15 20.5 15Z" fill="#0F0F0F"/>
<path d="M20.9994 8.00001H23.9994V11C23.9994 11.2652 24.1047 11.5196 24.2923 11.7071C24.4798 11.8946 24.7342 12 24.9994 12C25.2646 12 25.5189 11.8946 25.7065 11.7071C25.894 11.5196 25.9994 11.2652 25.9994 11V8.00001H28.9994C29.2646 8.00001 29.5189 7.89465 29.7065 7.70711C29.894 7.51958 29.9994 7.26522 29.9994 7.00001C29.9994 6.73479 29.894 6.48044 29.7065 6.2929C29.5189 6.10536 29.2646 6.00001 28.9994 6.00001H25.9994V3.00001C25.9994 2.73479 25.894 2.48044 25.7065 2.2929C25.5189 2.10536 25.2646 2.00001 24.9994 2.00001C24.7342 2.00001 24.4798 2.10536 24.2923 2.2929C24.1047 2.48044 23.9994 2.73479 23.9994 3.00001V6.00001H20.9994C20.7342 6.00001 20.4798 6.10536 20.2923 6.2929C20.1047 6.48044 19.9994 6.73479 19.9994 7.00001C19.9994 7.26522 20.1047 7.51958 20.2923 7.70711C20.4798 7.89465 20.7342 8.00001 20.9994 8.00001Z" fill="#0F0F0F"/>
<path d="M9.07068 19.37C9.6384 20.7415 10.6003 21.9136 11.8347 22.738C13.069 23.5624 14.5202 24.0019 16.0045 24.001C17.4888 24 18.9395 23.5586 20.1728 22.7327C21.4061 21.9067 22.3665 20.7334 22.9325 19.3612C22.9829 19.2381 23.0083 19.1062 23.0071 18.9732C23.0059 18.8402 22.9782 18.7088 22.9256 18.5866C22.873 18.4644 22.7965 18.354 22.7007 18.2617C22.6049 18.1694 22.4916 18.0972 22.3676 18.0493C22.2435 18.0014 22.1111 17.9786 21.9781 17.9825C21.8452 17.9864 21.7143 18.0167 21.5932 18.0718C21.4721 18.1268 21.3633 18.2055 21.2729 18.3031C21.1826 18.4008 21.1127 18.5155 21.0673 18.6405C20.6462 19.6375 19.9404 20.4881 19.0382 21.0858C18.136 21.6836 17.0775 22.0019 15.9953 22.0009C14.913 22 13.8551 21.6798 12.9539 21.0805C12.0528 20.4812 11.3484 19.6294 10.9291 18.6317C10.8822 18.5074 10.8111 18.3937 10.7199 18.2972C10.6286 18.2007 10.519 18.1234 10.3975 18.0697C10.2761 18.016 10.1451 17.987 10.0123 17.9845C9.87951 17.982 9.74754 18.006 9.62411 18.055C9.50068 18.104 9.38825 18.1772 9.29339 18.2701C9.19853 18.3631 9.12314 18.474 9.07162 18.5964C9.0201 18.7189 8.99348 18.8503 8.99332 18.9831C8.99316 19.1159 9.01945 19.2475 9.07068 19.37Z" fill="#0F0F0F"/>
</svg>
