<svg width="32" height="32" viewBox="0 0 32 32" fill="none" xmlns="http://www.w3.org/2000/svg">
<path d="M19.0005 16C19.0005 17.6569 17.6573 19 16.0005 19C14.3436 19 13.0005 17.6569 13.0005 16C13.0005 14.3431 14.3436 13 16.0005 13C17.6573 13 19.0005 14.3431 19.0005 16Z" fill="#0F0F0F"/>
<path d="M8.5003 4.77516C10.7204 3.29176 13.3304 2.5 16.0005 2.5C19.5797 2.50391 23.0112 3.92748 25.5421 6.45837C28.073 8.98927 29.4966 12.4208 29.5005 16C29.5005 18.67 28.7087 21.2801 27.2253 23.5002C25.7419 25.7203 23.6335 27.4506 21.1667 28.4724C18.6999 29.4942 15.9855 29.7615 13.3668 29.2406C10.748 28.7197 8.34256 27.4339 6.45455 25.5459C4.56654 23.6579 3.28079 21.2525 2.75989 18.6337C2.23899 16.015 2.50634 13.3006 3.52812 10.8338C4.5499 8.36697 6.28023 6.25856 8.5003 4.77516ZM13.2226 20.1573C14.0449 20.7068 15.0116 21 16.0005 21C17.3261 20.9984 18.597 20.4712 19.5343 19.5338C20.4717 18.5965 20.9989 17.3256 21.0005 16C21.0005 15.0111 20.7073 14.0444 20.1578 13.2221C19.6084 12.3999 18.8275 11.759 17.9139 11.3806C17.0003 11.0022 15.9949 10.9031 15.025 11.0961C14.0551 11.289 13.1642 11.7652 12.465 12.4645C11.7657 13.1637 11.2895 14.0546 11.0966 15.0245C10.9036 15.9945 11.0027 16.9998 11.3811 17.9134C11.7595 18.827 12.4004 19.6079 13.2226 20.1573Z" fill="#0F0F0F"/>
</svg>
