<svg width="32" height="32" viewBox="0 0 32 32" fill="none" xmlns="http://www.w3.org/2000/svg">
<path d="M13.5004 19.7416C14.2404 20.2361 15.1105 20.5 16.0005 20.5C17.1936 20.4987 18.3374 20.0242 19.181 19.1805C20.0247 18.3369 20.4992 17.1931 20.5005 16C20.5005 15.11 20.2366 14.24 19.7421 13.4999C19.2476 12.7599 18.5448 12.1831 17.7226 11.8425C16.9003 11.5019 15.9955 11.4128 15.1226 11.5865C14.2497 11.7601 13.4478 12.1887 12.8185 12.818C12.1892 13.4474 11.7606 14.2492 11.587 15.1221C11.4133 15.995 11.5024 16.8998 11.843 17.7221C12.1836 18.5443 12.7604 19.2472 13.5004 19.7416Z" fill="#0F0F0F"/>
<path d="M8.5003 27.2248C10.7204 28.7082 13.3304 29.5 16.0005 29.5C19.5797 29.4961 23.0112 28.0725 25.5421 25.5416C28.073 23.0107 29.4966 19.5792 29.5005 16C29.5005 13.33 28.7087 10.7199 27.2253 8.49981C25.7419 6.27974 23.6335 4.54942 21.1667 3.52763C18.6999 2.50585 15.9855 2.2385 13.3668 2.7594C10.748 3.28031 8.34256 4.56606 6.45455 6.45406C4.56654 8.34207 3.28079 10.7475 2.75989 13.3663C2.23899 15.985 2.50634 18.6994 3.52812 21.1662C4.5499 23.633 6.28023 25.7414 8.5003 27.2248ZM9.05587 5.60664C11.1115 4.23312 13.5282 3.50001 16.0005 3.50001C19.3146 3.50373 22.4918 4.82189 24.8352 7.16529C27.1786 9.50868 28.4968 12.6859 28.5005 16C28.5005 18.4723 27.7674 20.889 26.3939 22.9446C25.0203 25.0002 23.0681 26.6024 20.784 27.5485C18.5 28.4946 15.9866 28.7421 13.5619 28.2598C11.1371 27.7775 8.90982 26.587 7.16166 24.8388C5.4135 23.0907 4.22299 20.8634 3.74068 18.4386C3.25836 16.0139 3.5059 13.5005 4.452 11.2165C5.3981 8.93239 7.00025 6.98015 9.05587 5.60664Z" fill="#0F0F0F"/>
</svg>
