<svg width="32" height="32" viewBox="0 0 32 32" fill="none" xmlns="http://www.w3.org/2000/svg">
<path d="M13.3615 12.0505C14.1427 11.5286 15.061 11.25 16.0005 11.25C17.2598 11.2514 18.4672 11.7523 19.3577 12.6428C20.2482 13.5333 20.7491 14.7407 20.7505 16C20.7505 16.9395 20.4719 17.8578 19.95 18.639C19.428 19.4201 18.6862 20.0289 17.8182 20.3884C16.9503 20.7479 15.9952 20.842 15.0738 20.6587C14.1524 20.4754 13.306 20.0231 12.6417 19.3588C11.9774 18.6945 11.525 17.8481 11.3418 16.9267C11.1585 16.0053 11.2525 15.0502 11.6121 14.1823C11.9716 13.3143 12.5804 12.5725 13.3615 12.0505Z" fill="#0F0F0F"/>
<path d="M8.3614 4.56729C10.6226 3.05642 13.281 2.25 16.0005 2.25C19.646 2.25404 23.141 3.70399 25.7188 6.28174C28.2965 8.85949 29.7465 12.3545 29.7505 16C29.7505 18.7195 28.9441 21.3779 27.4332 23.6391C25.9223 25.9003 23.7749 27.6626 21.2624 28.7033C18.7499 29.744 15.9852 30.0163 13.318 29.4858C10.6508 28.9552 8.20075 27.6457 6.27778 25.7227C4.3548 23.7997 3.04524 21.3497 2.5147 18.6825C1.98415 16.0153 2.25645 13.2506 3.29715 10.7381C4.33786 8.22562 6.10023 6.07816 8.3614 4.56729ZM9.19476 26.1855C11.2093 27.5315 13.5777 28.25 16.0005 28.25C19.2483 28.2464 22.362 26.9546 24.6586 24.6581C26.9551 22.3615 28.2469 19.2478 28.2505 16C28.2505 13.5772 27.532 11.2088 26.186 9.19426C24.84 7.17976 22.9268 5.60965 20.6884 4.68248C18.45 3.7553 15.9869 3.51271 13.6106 3.98538C11.2344 4.45805 9.05163 5.62475 7.33844 7.33794C5.62524 9.05114 4.45854 11.2339 3.98587 13.6101C3.51321 15.9864 3.7558 18.4495 4.68297 20.6879C5.61014 22.9263 7.18026 24.8395 9.19476 26.1855Z" fill="#0F0F0F"/>
</svg>
