<svg width="32" height="32" viewBox="0 0 32 32" fill="none" xmlns="http://www.w3.org/2000/svg">
<path d="M13.2226 11.8427C14.0449 11.2932 15.0116 11 16.0005 11C17.3261 11.0016 18.597 11.5288 19.5343 12.4662C20.4716 13.4035 20.9989 14.6744 21.0005 16C21.0005 16.9889 20.7072 17.9556 20.1578 18.7779C19.6084 19.6001 18.8275 20.241 17.9139 20.6194C17.0003 20.9978 15.9949 21.0969 15.025 20.9039C14.0551 20.711 13.1642 20.2348 12.465 19.5355C11.7657 18.8363 11.2895 17.9454 11.0966 16.9755C10.9036 16.0055 11.0027 15.0002 11.3811 14.0866C11.7595 13.173 12.4004 12.3921 13.2226 11.8427Z" fill="#0F0F0F"/>
<path d="M8.22251 4.35943C10.5248 2.82109 13.2316 2 16.0005 2C19.7122 2.00416 23.2708 3.48049 25.8954 6.1051C28.52 8.72971 29.9963 12.2882 30.0005 16C30.0005 18.7689 29.1794 21.4757 27.6411 23.778C26.1027 26.0803 23.9162 27.8747 21.3581 28.9343C18.7999 29.9939 15.985 30.2712 13.2692 29.731C10.5535 29.1908 8.05893 27.8574 6.101 25.8995C4.14306 23.9416 2.80969 21.447 2.2695 18.7313C1.72931 16.0155 2.00655 13.2006 3.06618 10.6424C4.12581 8.08427 5.92022 5.89777 8.22251 4.35943ZM9.33365 25.9776C11.307 27.2962 13.6271 28 16.0005 28C19.182 27.9965 22.2323 26.7311 24.4819 24.4814C26.7316 22.2318 27.997 19.1815 28.0005 16C28.0005 13.6266 27.2967 11.3065 25.9781 9.33316C24.6596 7.35977 22.7854 5.8217 20.5927 4.91345C18.4 4.00519 15.9872 3.76755 13.6594 4.23058C11.3316 4.6936 9.19344 5.83649 7.51521 7.51472C5.83698 9.19295 4.69409 11.3311 4.23107 13.6589C3.76805 15.9867 4.00569 18.3995 4.91394 20.5922C5.82219 22.7849 7.36026 24.6591 9.33365 25.9776Z" fill="#0F0F0F"/>
</svg>
