<svg width="32" height="32" viewBox="0 0 32 32" fill="none" xmlns="http://www.w3.org/2000/svg">
<path d="M16.0005 3.50018C13.9699 3.50398 11.9674 3.97375 10.147 4.87334C8.32658 5.77292 6.73694 7.0783 5.50047 8.68896V4.00018C5.50047 3.86757 5.44779 3.74039 5.35402 3.64663C5.26025 3.55286 5.13308 3.50018 5.00047 3.50018C4.86786 3.50018 4.74068 3.55286 4.64692 3.64663C4.55315 3.74039 4.50047 3.86757 4.50047 4.00018V10.0002C4.50043 10.0659 4.51334 10.1309 4.53845 10.1916C4.56357 10.2522 4.6004 10.3074 4.64683 10.3538C4.69327 10.4003 4.7484 10.4371 4.80908 10.4622C4.86976 10.4873 4.9348 10.5002 5.00047 10.5002H11.0005C11.1331 10.5002 11.2603 10.4475 11.354 10.3537C11.4478 10.26 11.5005 10.1328 11.5005 10.0002C11.5005 9.86757 11.4478 9.74039 11.354 9.64663C11.2603 9.55286 11.1331 9.50018 11.0005 9.50018H6.13609C7.27104 7.94949 8.75588 6.6885 10.4699 5.8197C12.184 4.95089 14.0788 4.49881 16.0005 4.50018C19.0494 4.50373 21.9724 5.71647 24.1283 7.87237C26.2842 10.0283 27.4969 12.9513 27.5005 16.0002C27.4983 16.643 27.445 17.2847 27.3413 17.9191C27.3307 17.9839 27.3329 18.0501 27.348 18.114C27.363 18.1779 27.3905 18.2382 27.4289 18.2915C27.4672 18.3447 27.5157 18.3899 27.5716 18.4244C27.6275 18.4588 27.6896 18.482 27.7544 18.4924C27.7811 18.4971 27.8083 18.4994 27.8354 18.4992C27.954 18.499 28.0686 18.4567 28.1587 18.3797C28.2489 18.3028 28.3088 18.1963 28.3276 18.0793C28.4404 17.3919 28.4982 16.6967 28.5005 16.0002C28.4967 12.6861 27.1786 9.50886 24.8352 7.16546C22.4918 4.82206 19.3145 3.50391 16.0005 3.50018Z" fill="#0F0F0F"/>
<path d="M27.0005 21.5002H21.0005C20.8679 21.5002 20.7407 21.5529 20.6469 21.6466C20.5531 21.7404 20.5005 21.8676 20.5005 22.0002C20.5005 22.1328 20.5531 22.26 20.6469 22.3537C20.7407 22.4475 20.8679 22.5002 21.0005 22.5002H25.8532C24.7374 24.0679 23.2581 25.3418 21.5421 26.2126C19.8261 27.0834 17.9246 27.5252 16.0005 27.5002C12.9516 27.4966 10.0286 26.2839 7.87268 24.128C5.71678 21.9721 4.50404 19.0491 4.50049 16.0002C4.50432 15.3566 4.55885 14.7143 4.66358 14.0793C4.68482 13.9485 4.65322 13.8146 4.57576 13.7071C4.49829 13.5996 4.38128 13.5273 4.25049 13.506C4.11969 13.4848 3.98582 13.5164 3.87831 13.5939C3.77081 13.6713 3.69849 13.7883 3.67725 13.9191C3.56309 14.607 3.50398 15.3029 3.50049 16.0002C3.50421 19.3142 4.82237 22.4915 7.16577 24.8349C9.50917 27.1783 12.6864 28.4965 16.0005 28.5002C18.0366 28.5198 20.0486 28.0589 21.873 27.1547C23.6975 26.2506 25.2829 24.9288 26.5005 23.2968V28.0002C26.5005 28.1328 26.5532 28.26 26.6469 28.3537C26.7407 28.4475 26.8679 28.5002 27.0005 28.5002C27.1331 28.5002 27.2603 28.4475 27.354 28.3537C27.4478 28.26 27.5005 28.1328 27.5005 28.0002V22.0002C27.5005 21.9345 27.4876 21.8695 27.4625 21.8088C27.4374 21.7481 27.4006 21.693 27.3541 21.6465C27.3077 21.6001 27.2525 21.5633 27.1919 21.5382C27.1312 21.513 27.0661 21.5001 27.0005 21.5002Z" fill="#0F0F0F"/>
</svg>
