<svg width="32" height="32" viewBox="0 0 32 32" fill="none" xmlns="http://www.w3.org/2000/svg">
<path d="M30.5615 15.2549H28.6826C28.124 8.78027 22.6016 3.61328 16 3.61328C12.1025 3.61328 8.59863 5.40332 6.25 8.22168C5.89453 8.62793 5.94531 9.13574 6.32617 9.40234C6.70703 9.68164 7.16406 9.59277 7.48145 9.2373C9.5127 6.8125 12.5723 5.26367 16 5.26367C21.7637 5.26367 26.4736 9.63086 27.0195 15.2549H24.874C24.1504 15.2549 23.9346 15.7627 24.3535 16.3467L27.1211 20.3076C27.4639 20.8027 27.9717 20.8027 28.3145 20.3076L31.082 16.3594C31.5137 15.7627 31.2979 15.2549 30.5615 15.2549ZM1.43848 17.4385H3.30469C3.87598 23.9131 9.38574 29.0801 16 29.0801C19.8975 29.0801 23.4141 27.2773 25.75 24.4717C26.1055 24.0654 26.0547 23.5449 25.6738 23.2656C25.293 22.999 24.8359 23.0879 24.5186 23.4561C22.5 25.8936 19.4404 27.4424 16 27.4424C10.2236 27.4424 5.51367 23.0625 4.96777 17.4385H7.11328C7.84961 17.4385 8.05273 16.9307 7.64648 16.3467L4.87891 12.3857C4.52344 11.9033 4.02832 11.8906 3.67285 12.3857L0.905273 16.334C0.486328 16.9307 0.689453 17.4385 1.43848 17.4385Z" fill="black"/>
</svg>
