<svg width="32" height="32" viewBox="0 0 32 32" fill="none" xmlns="http://www.w3.org/2000/svg">
<path d="M3.75 16C3.75 9.23451 9.23451 3.75 16 3.75C22.7655 3.75 28.25 9.23451 28.25 16C28.25 19.8246 26.4979 23.2399 23.75 25.4874V21C23.75 20.5858 23.4142 20.25 23 20.25C22.5858 20.25 22.25 20.5858 22.25 21V27C22.25 27.4142 22.5858 27.75 23 27.75H29C29.4142 27.75 29.75 27.4142 29.75 27C29.75 26.5858 29.4142 26.25 29 26.25H25.1653C27.9781 23.7331 29.75 20.0735 29.75 16C29.75 8.40608 23.5939 2.25 16 2.25C8.40608 2.25 2.25 8.40608 2.25 16C2.25 23.5939 8.40608 29.75 16 29.75C16.4142 29.75 16.75 29.4142 16.75 29C16.75 28.5858 16.4142 28.25 16 28.25C9.23451 28.25 3.75 22.7655 3.75 16Z" fill="#0F0F0F"/>
</svg>
