<svg width="32" height="32" viewBox="0 0 32 32" fill="none" xmlns="http://www.w3.org/2000/svg">
<path d="M4 16C4 9.37258 9.37258 4 16 4C22.6274 4 28 9.37258 28 16C28 19.5533 26.4563 22.7461 24 24.9445V21C24 20.4477 23.5523 20 23 20C22.4477 20 22 20.4477 22 21V27C22 27.5523 22.4477 28 23 28H29C29.5523 28 30 27.5523 30 27C30 26.4477 29.5523 26 29 26H25.7979C28.3899 23.4599 30 19.918 30 16C30 8.26801 23.732 2 16 2C8.26801 2 2 8.26801 2 16C2 23.732 8.26801 30 16 30C16.5523 30 17 29.5523 17 29C17 28.4477 16.5523 28 16 28C9.37258 28 4 22.6274 4 16Z" fill="#0F0F0F"/>
</svg>
