<svg width="32" height="32" viewBox="0 0 32 32" fill="none" xmlns="http://www.w3.org/2000/svg">
<path d="M15.8145 14.333C15.3701 14.333 15.04 13.9902 15.04 13.5459C15.04 13.3428 15.1162 13.1523 15.2686 12.9873L19.6738 8.58203C18.7598 8.35352 17.668 8.23926 16.5 8.23926C11.2061 8.23926 7.00391 12.4287 7.00391 17.71C7.00391 23.0166 11.2061 27.2314 16.5 27.2314C21.7812 27.2314 25.9961 23.0166 25.9961 17.71C25.9961 17.2402 26.2881 16.8975 26.7451 16.8975C27.2275 16.8975 27.5576 17.2402 27.5576 17.71C27.5576 23.8799 22.6572 28.793 16.5 28.793C10.3428 28.793 5.42969 23.8799 5.42969 17.71C5.42969 11.5654 10.3428 6.67773 16.5 6.67773C17.4648 6.67773 18.4297 6.7793 19.293 6.96973L15.2686 2.94531C15.1162 2.78027 15.04 2.58984 15.04 2.37402C15.04 1.92969 15.3574 1.57422 15.8018 1.57422C16.0684 1.57422 16.2461 1.66309 16.3857 1.81543L21.7812 7.33789C21.9844 7.54102 22.0859 7.75684 22.0859 7.98535C22.0859 8.20117 22.0098 8.4043 21.7812 8.63281L16.373 14.1045C16.2334 14.2568 16.0557 14.333 15.8145 14.333Z" fill="black"/>
</svg>
