<svg width="32" height="32" viewBox="0 0 32 32" fill="none" xmlns="http://www.w3.org/2000/svg">
<path d="M28.999 28.5112C29.2749 28.5114 29.499 28.7352 29.499 29.0112C29.4989 29.2871 29.2749 29.5109 28.999 29.5112H18.999C18.7229 29.5112 18.4991 29.2872 18.499 29.0112C18.499 28.735 18.7229 28.5112 18.999 28.5112H28.999Z" fill="#0F0F0F"/>
<path d="M14.3076 4.519C14.5014 4.48164 14.702 4.50237 14.8838 4.57857C15.0654 4.65481 15.2218 4.78312 15.3311 4.94771C15.4398 5.11181 15.4973 5.30472 15.4971 5.50142V10.5014H20.623C22.5628 10.4491 24.4641 11.048 26.0244 12.2016C27.5847 13.3553 28.7149 14.9977 29.2334 16.8676C29.3069 17.1336 29.1507 17.4091 28.8848 17.4829C28.6189 17.5565 28.3436 17.4009 28.2695 17.1352C27.8107 15.4805 26.8113 14.0263 25.4307 13.0053C24.0498 11.9843 22.3661 11.4551 20.6494 11.5014H14.9971C14.7213 11.5012 14.4973 11.2772 14.4971 11.0014V5.50044L14.4912 5.5063L3.49902 15.9975L14.4912 26.4897L14.4971 26.4956V20.9946C14.4971 20.7186 14.7211 20.4948 14.9971 20.4946C15.2732 20.4946 15.4971 20.7184 15.4971 20.9946V26.4936L15.4873 26.6401C15.466 26.7852 15.4128 26.925 15.3311 27.0483C15.2218 27.2128 15.0654 27.3413 14.8838 27.4174C14.7021 27.4935 14.5012 27.5143 14.3076 27.477C14.1165 27.4401 13.9403 27.3478 13.8008 27.2124L2.80078 16.7133L2.79297 16.7045C2.60561 16.5171 2.50012 16.2625 2.5 15.9975C2.5001 15.7327 2.60566 15.478 2.79297 15.2905L2.80078 15.2827L13.8008 4.78267C13.9404 4.64703 14.1164 4.55599 14.3076 4.519Z" fill="#0F0F0F"/>
<path d="M28.999 24.5112C29.2749 24.5114 29.499 24.7352 29.499 25.0112C29.4989 25.2871 29.2749 25.5109 28.999 25.5112H18.999C18.7229 25.5112 18.4991 25.2872 18.499 25.0112C18.499 24.735 18.7229 24.5112 18.999 24.5112H28.999Z" fill="#0F0F0F"/>
<path d="M28.999 20.5112C29.2749 20.5114 29.499 20.7352 29.499 21.0112C29.4989 21.2871 29.2749 21.5109 28.999 21.5112H18.999C18.7229 21.5112 18.4991 21.2872 18.499 21.0112C18.499 20.735 18.7229 20.5112 18.999 20.5112H28.999Z" fill="#0F0F0F"/>
</svg>
