<svg width="32" height="32" viewBox="0 0 32 32" fill="none" xmlns="http://www.w3.org/2000/svg">
<path d="M20.64 10.5H15.5L15.498 5.5C15.498 5.30353 15.4401 5.11143 15.3316 4.94764C15.2231 4.78386 15.0687 4.65565 14.8878 4.57901C14.7069 4.50236 14.5075 4.48067 14.3143 4.51665C14.1212 4.55262 13.9429 4.64467 13.8017 4.7813L2.79153 15.2937C2.60437 15.4833 2.50013 15.7395 2.50173 16.0059C2.50332 16.2723 2.61061 16.5272 2.80003 16.7146L13.798 27.2126C13.9385 27.351 14.1167 27.4449 14.3103 27.4823C14.504 27.5197 14.7043 27.499 14.8862 27.4228C15.0681 27.3467 15.2235 27.2184 15.3327 27.0542C15.4419 26.89 15.5001 26.6972 15.5 26.5L15.501 21.5H20.5859C27.2012 21.5 28.4668 25.9385 28.5176 26.128C28.5477 26.2461 28.6203 26.349 28.7216 26.4168C28.823 26.4846 28.9458 26.5125 29.0664 26.4952C29.1865 26.4792 29.2967 26.4202 29.3765 26.3292C29.4564 26.2381 29.5004 26.1211 29.5005 26V18.989C29.4879 17.8463 29.2474 16.7175 28.793 15.6689C28.3386 14.6203 27.6795 13.673 26.8543 12.8824C26.0291 12.0918 25.0544 11.4738 23.9873 11.0647C22.9203 10.6557 21.7823 10.4637 20.64 10.5ZM28.5 23.9854C27.3686 22.4363 25.06 20.5 20.5854 20.5H15.0005C14.8679 20.5 14.7407 20.5527 14.647 20.6464C14.5532 20.7402 14.5005 20.8674 14.5005 21L14.4946 26.4952L3.49173 16.0076L14.4985 5.5L14.5005 11C14.5005 11.1326 14.5532 11.2598 14.647 11.3536C14.7407 11.4473 14.8679 11.5 15.0005 11.5H20.6405C21.651 11.4653 22.6582 11.6326 23.6032 11.992C24.5482 12.3515 25.412 12.8959 26.144 13.5933C26.8759 14.2908 27.4614 15.1273 27.866 16.0538C28.2707 16.9804 28.4864 17.9783 28.5005 18.9893L28.5 23.9854Z" fill="#0F0F0F"/>
</svg>
