<svg width="32" height="32" viewBox="0 0 32 32" fill="none" xmlns="http://www.w3.org/2000/svg">
<path d="M28.999 28.2607C29.4129 28.2609 29.7488 28.5968 29.749 29.0107C29.749 29.4247 29.413 29.7604 28.999 29.7607H18.999C18.5848 29.7607 18.249 29.4249 18.249 29.0107C18.2492 28.5966 18.5849 28.2607 18.999 28.2607H28.999Z" fill="#0F0F0F"/>
<path d="M14.4434 4.25089C14.6267 4.24297 14.81 4.27612 14.9805 4.34757C15.1507 4.41896 15.3029 4.52673 15.4258 4.663L15.5391 4.80851L15.6289 4.96964C15.7065 5.13531 15.7472 5.31657 15.7471 5.50089V10.2509H20.6162C22.6119 10.1971 24.5686 10.8131 26.1738 11.9999C27.7789 13.1868 28.9402 14.877 29.4736 16.8007C29.5842 17.1997 29.351 17.6127 28.9521 17.7235C28.553 17.8342 28.139 17.6002 28.0283 17.2011C27.5843 15.6001 26.6172 14.1937 25.2812 13.206C23.9453 12.2183 22.3171 11.7061 20.6562 11.7509H14.9971C14.583 11.7507 14.2471 11.415 14.2471 11.0009V6.0839L3.86133 15.997L14.2471 25.9101V20.9941C14.2471 20.58 14.5831 20.2443 14.9971 20.2441C15.4113 20.2441 15.747 20.5799 15.7471 20.9941V26.4921C15.7475 26.7385 15.6753 26.9799 15.5391 27.1855C15.4025 27.3913 15.2075 27.5521 14.9805 27.6474C14.7533 27.7426 14.5029 27.7692 14.2607 27.7226C14.0224 27.6766 13.8032 27.5611 13.6289 27.3925L2.62891 16.8935C2.62469 16.8894 2.62033 16.8849 2.61621 16.8808C2.38188 16.6463 2.25 16.3284 2.25 15.997C2.25012 15.6658 2.38188 15.3476 2.61621 15.1132C2.62023 15.1092 2.6248 15.1054 2.62891 15.1015L13.6201 4.61026C13.7957 4.43735 14.0187 4.31905 14.2607 4.27237L14.4434 4.25089Z" fill="#0F0F0F"/>
<path d="M28.999 24.2607C29.4129 24.2609 29.7488 24.5968 29.749 25.0107C29.749 25.4247 29.413 25.7604 28.999 25.7607H18.999C18.5848 25.7607 18.249 25.4249 18.249 25.0107C18.2492 24.5966 18.5849 24.2607 18.999 24.2607H28.999Z" fill="#0F0F0F"/>
<path d="M28.999 20.2607C29.4129 20.2609 29.7488 20.5968 29.749 21.0107C29.749 21.4247 29.413 21.7604 28.999 21.7607H18.999C18.5848 21.7607 18.249 21.4249 18.249 21.0107C18.2492 20.5966 18.5849 20.2607 18.999 20.2607H28.999Z" fill="#0F0F0F"/>
</svg>
