<svg width="32" height="32" viewBox="0 0 32 32" fill="none" xmlns="http://www.w3.org/2000/svg">
<path d="M26.4644 8.26275C26.7573 7.96986 27.2321 7.96986 27.525 8.26275C27.8179 8.55565 27.8179 9.03052 27.525 9.32341L9.33355 27.5149C9.04066 27.8078 8.56579 27.8078 8.27289 27.5149C7.98 27.222 7.98 26.7471 8.27289 26.4542L26.4644 8.26275Z" fill="#0F0F0F"/>
<path d="M26.4663 14.2608C26.7592 13.9679 27.2341 13.9679 27.527 14.2608C27.8199 14.5537 27.8199 15.0286 27.527 15.3215L15.3197 27.5287C15.0268 27.8216 14.5519 27.8216 14.2591 27.5287C13.9662 27.2358 13.9662 26.761 14.2591 26.4681L26.4663 14.2608Z" fill="#0F0F0F"/>
<path d="M27.5282 20.2745C27.2353 19.9816 26.7605 19.9816 26.4676 20.2745L20.2743 26.4677C19.9814 26.7606 19.9814 27.2355 20.2743 27.5284C20.5672 27.8213 21.0421 27.8213 21.335 27.5284L27.5282 21.3351C27.8211 21.0422 27.8211 20.5674 27.5282 20.2745Z" fill="#0F0F0F"/>
</svg>
