<svg width="32" height="32" viewBox="0 0 32 32" fill="none" xmlns="http://www.w3.org/2000/svg">
<path d="M26.6105 8.11722C26.8058 7.92196 27.1224 7.92196 27.3176 8.11723C27.5129 8.31249 27.5129 8.62907 27.3176 8.82433L8.82914 27.3128C8.63388 27.5081 8.31729 27.5081 8.12203 27.3128C7.92677 27.1176 7.92677 26.801 8.12203 26.6057L26.6105 8.11722Z" fill="#0F0F0F"/>
<path d="M26.6431 14.084C26.8384 13.8888 27.155 13.8888 27.3502 14.084C27.5455 14.2793 27.5455 14.5959 27.3502 14.7911L14.7894 27.352C14.5941 27.5472 14.2776 27.5472 14.0823 27.352C13.887 27.1567 13.887 26.8401 14.0823 26.6449L26.6431 14.084Z" fill="#0F0F0F"/>
<path d="M27.3513 20.0976C27.1561 19.9024 26.8397 19.9024 26.6445 20.0976L20.0974 26.6446C19.9022 26.8398 19.9022 27.1563 20.0974 27.3515C20.2926 27.5467 20.6091 27.5467 20.8043 27.3515L27.3513 20.8044C27.5465 20.6092 27.5465 20.2927 27.3513 20.0976Z" fill="#0F0F0F"/>
</svg>
