<svg width="32" height="32" viewBox="0 0 32 32" fill="none" xmlns="http://www.w3.org/2000/svg">
<path d="M25.0002 3.49974H15.0002C14.0723 3.50086 13.1827 3.86997 12.5266 4.52611C11.8705 5.18224 11.5014 6.07183 11.5002 6.99974V11.4997H7.00024C6.07233 11.5009 5.18274 11.87 4.52661 12.5261C3.87048 13.1822 3.50137 14.0718 3.50024 14.9997V24.9997C3.50137 25.9277 3.87048 26.8172 4.52661 27.4734C5.18274 28.1295 6.07233 28.4986 7.00024 28.4997H25.0002C25.9282 28.4986 26.8177 28.1295 27.4739 27.4734C28.13 26.8172 28.4991 25.9277 28.5002 24.9997V6.99974C28.4991 6.07183 28.13 5.18224 27.4739 4.52611C26.8177 3.86997 25.9282 3.50086 25.0002 3.49974ZM15.0002 4.49974H25.0002C25.6631 4.50035 26.2986 4.76394 26.7673 5.23265C27.236 5.70136 27.4996 6.33689 27.5002 6.99974V7.49974H12.5002V6.99974C12.5009 6.33689 12.7644 5.70136 13.2332 5.23265C13.7019 4.76394 14.3374 4.50035 15.0002 4.49974ZM12.5002 8.49974H27.5002V23.491H16.5002V14.9997C16.4991 14.0718 16.13 13.1822 15.4739 12.5261C14.8177 11.87 13.9282 11.5009 13.0002 11.4997H12.5002V8.49974ZM7.00024 27.4997C6.33739 27.4991 5.70186 27.2355 5.23315 26.7668C4.76444 26.2981 4.50086 25.6626 4.50024 24.9997V24.491H15.5002V24.9998C15.4996 25.6626 15.236 26.2982 14.7673 26.7669C14.2986 27.2356 13.6631 27.4992 13.0002 27.4998L7.00024 27.4997ZM13.0002 12.4997C13.6631 12.5004 14.2986 12.7639 14.7673 13.2327C15.236 13.7014 15.4996 14.3369 15.5002 14.9997V23.491H4.50024V14.9997C4.50086 14.3369 4.76444 13.7014 5.23315 13.2326C5.70186 12.7639 6.33739 12.5004 7.00024 12.4997H13.0002ZM25.0002 27.4997H15.442C15.7766 27.175 16.0427 26.7864 16.2245 26.357C16.4063 25.9276 16.5 25.4661 16.5002 24.9997V24.491H27.5002V24.9998C27.4996 25.6626 27.236 26.2981 26.7673 26.7668C26.2986 27.2355 25.6631 27.4991 25.0002 27.4997Z" fill="#0F0F0F"/>
</svg>
