<svg width="32" height="32" viewBox="0 0 32 32" fill="none" xmlns="http://www.w3.org/2000/svg">
<path d="M25.0002 3.24974H15.0002C14.0061 3.25099 13.053 3.64648 12.35 4.34947C11.647 5.05246 11.2515 6.00556 11.2502 6.99974V11.2497H7.00024C6.00607 11.251 5.05297 11.6465 4.34998 12.3495C3.64699 13.0525 3.2515 14.0056 3.25024 14.9997V24.9997C3.2515 25.9939 3.64699 26.947 4.34998 27.65C5.05297 28.353 6.00607 28.7485 7.00024 28.7497H25.0002C25.9944 28.7485 26.9475 28.353 27.6505 27.65C28.3535 26.947 28.749 25.9939 28.7502 24.9997V6.99974C28.749 6.00556 28.3535 5.05246 27.6505 4.34947C26.9475 3.64648 25.9944 3.25099 25.0002 3.24974ZM15.2502 24.9997C15.2494 25.5962 15.0121 26.168 14.5903 26.5898C14.1686 27.0116 13.5967 27.2489 13.0002 27.2497H7.00024C6.40376 27.2489 5.83194 27.0116 5.41016 26.5898C4.98838 26.168 4.75106 25.5962 4.75024 24.9997V24.741H15.2502V24.9997ZM15.2502 23.2409H4.75024V14.9997C4.75106 14.4033 4.98837 13.8314 5.41015 13.4097C5.83193 12.9879 6.40376 12.7506 7.00024 12.7497H13.0002C13.5967 12.7506 14.1686 12.9879 14.5903 13.4097C15.0121 13.8314 15.2494 14.4033 15.2502 14.9997V23.2409ZM27.2502 24.9997C27.2494 25.5962 27.0121 26.168 26.5903 26.5898C26.1686 27.0116 25.5967 27.2489 25.0002 27.2497H15.9809C16.477 26.6043 16.7474 25.8138 16.7502 24.9997V24.741H27.2502V24.9997ZM27.2502 23.2409H16.7502V14.9997C16.749 14.0056 16.3535 13.0525 15.6505 12.3495C14.9475 11.6465 13.9944 11.251 13.0002 11.2497H12.7502V8.74974H27.2502V23.2409ZM27.2502 7.24974H12.7502V6.99974C12.7511 6.40325 12.9884 5.83143 13.4102 5.40965C13.8319 4.98787 14.4038 4.75056 15.0002 4.74974H25.0002C25.5967 4.75056 26.1686 4.98787 26.5903 5.40965C27.0121 5.83143 27.2494 6.40325 27.2502 6.99974V7.24974Z" fill="#0F0F0F"/>
</svg>
