<svg width="32" height="32" viewBox="0 0 32 32" fill="none" xmlns="http://www.w3.org/2000/svg">
<path d="M25.0002 2.99974H15.0002C13.9397 3.0008 12.9229 3.42257 12.173 4.17248C11.4231 4.9224 11.0013 5.9392 11.0002 6.99974V10.9997H7.00024C5.9397 11.0008 4.9229 11.4226 4.17299 12.1725C3.42307 12.9224 3.0013 13.9392 3.00024 14.9997V24.9997C3.0013 26.0603 3.42307 27.0771 4.17299 27.827C4.9229 28.5769 5.9397 28.9987 7.00024 28.9997H25.0002C26.0608 28.9987 27.0776 28.5769 27.8275 27.827C28.5774 27.0771 28.9992 26.0603 29.0002 24.9997V6.99974C28.9992 5.9392 28.5774 4.9224 27.8275 4.17248C27.0776 3.42257 26.0608 3.0008 25.0002 2.99974ZM15.0002 24.9997C14.9996 25.53 14.7886 26.0383 14.4137 26.4132C14.0388 26.7881 13.5305 26.9991 13.0002 26.9997H7.00024C6.47002 26.9991 5.96171 26.7881 5.58679 26.4132C5.21187 26.0383 5.00093 25.53 5.00024 24.9997V24.991H15.0002V24.9997ZM15.0002 22.9909H5.00024V14.9997C5.00093 14.4695 5.21187 13.9612 5.58679 13.5863C5.96171 13.2114 6.47002 13.0004 7.00024 12.9997H13.0002C13.5305 13.0004 14.0388 13.2114 14.4137 13.5863C14.7886 13.9612 14.9996 14.4695 15.0002 14.9997V22.9909ZM27.0002 24.9997C26.9996 25.53 26.7886 26.0383 26.4137 26.4132C26.0388 26.7881 25.5305 26.9991 25.0002 26.9997H16.4441C16.8043 26.3945 16.9963 25.704 17.0003 24.9997V24.991H27.0003L27.0002 24.9997ZM27.0002 22.9909H17.0002V14.9997C16.9992 13.9392 16.5774 12.9224 15.8275 12.1725C15.0776 11.4226 14.0608 11.0008 13.0002 10.9997V8.99974H27.0002V22.9909ZM13.0002 6.99974C13.0009 6.46952 13.2119 5.96121 13.5868 5.58629C13.9617 5.21136 14.47 5.00043 15.0002 4.99974H25.0002C25.5305 5.00043 26.0388 5.21136 26.4137 5.58629C26.7886 5.96121 26.9996 6.46952 27.0002 6.99974H13.0002Z" fill="#0F0F0F"/>
</svg>
