<svg width="32" height="32" viewBox="0 0 32 32" fill="none" xmlns="http://www.w3.org/2000/svg">
<path d="M11.7803 10.6982C11.7707 9.54396 13.0138 8.81166 14.0186 9.37988L20.8008 13.2188C21.8056 13.7875 21.8181 15.2314 20.8232 15.8174L14.1074 19.7715C13.1746 20.3206 12.0122 19.7304 11.8623 18.7031L11.8467 18.4922L11.7803 10.6982ZM13.3467 18.4795L20.0625 14.5254L13.2803 10.6855L13.3467 18.4795Z" fill="#0F0F0F"/>
<path d="M27.4434 4.00488C29.4246 4.10551 31 5.74378 31 7.75V21.75C31 23.7562 29.4246 25.3945 27.4434 25.4951L27.25 25.5H12.7637L7.53125 29.6865C6.76371 30.3002 5.6504 29.8256 5.51367 28.9014L5.5 28.71V25.5H5.25C3.24378 25.5 1.60551 23.9246 1.50488 21.9434L1.5 21.75V7.75C1.5 5.67893 3.17893 4 5.25 4H27.25L27.4434 4.00488ZM5.25 5.5C4.00736 5.5 3 6.50736 3 7.75V21.75L3.01172 21.9805C3.12714 23.1148 4.08517 24 5.25 24H6.25C6.66421 24 7 24.3358 7 24.75V28.1895L12.0312 24.1641L12.1367 24.0938C12.2473 24.0325 12.3722 24 12.5 24H27.25L27.4805 23.9883C28.6148 23.8729 29.5 22.9148 29.5 21.75V7.75L29.4883 7.51953C29.3806 6.46094 28.5391 5.61943 27.4805 5.51172L27.25 5.5H5.25Z" fill="#0F0F0F"/>
</svg>
