<svg width="32" height="32" viewBox="0 0 32 32" fill="none" xmlns="http://www.w3.org/2000/svg">
<path d="M20.5305 2.46967C20.8234 2.76256 20.8234 3.23744 20.5305 3.53033L17.8108 6.25002L22.3658 6.25002C23.2499 6.24991 24.7287 6.24973 26.163 6.95129C27.6605 7.68374 29.0097 9.12498 29.7248 11.8068C29.8316 12.207 29.5936 12.618 29.1934 12.7247C28.7932 12.8314 28.3822 12.5935 28.2755 12.1933C27.6573 9.87506 26.562 8.8163 25.5039 8.29874C24.4003 7.75893 23.2311 7.75002 22.3335 7.75002H17.8108L20.5305 10.4697C20.8234 10.7626 20.8234 11.2374 20.5305 11.5303C20.2376 11.8232 19.7627 11.8232 19.4698 11.5303L15.4698 7.53032C15.3292 7.38967 15.2502 7.1989 15.2502 6.99999C15.2502 6.80108 15.3292 6.61031 15.4698 6.46966L19.4698 2.46967C19.7627 2.17678 20.2376 2.17678 20.5305 2.46967Z" fill="#0F0F0F"/>
<path d="M9.27743 22.6159C16.1482 29.4867 22.2491 29.0896 23.9886 27.3502L25.0257 26.313C25.5836 25.754 25.8969 24.9966 25.8969 24.2069C25.8969 23.4172 25.5836 22.6597 25.0258 22.1008L22.5019 19.5769C21.9447 19.0241 21.1909 18.7149 20.4061 18.7171C19.6212 18.7193 18.8692 19.0327 18.3151 19.5886L17.0749 20.8288C15.5811 20.5633 14.2116 19.8267 13.1665 18.7268C12.0671 17.6823 11.3296 16.3144 11.0611 14.8219L12.3116 13.5727C12.8567 12.9897 13.1526 12.217 13.1365 11.419C13.1204 10.6211 12.7935 9.86091 12.2254 9.30036L9.79261 6.86761C9.23363 6.30979 8.47618 5.9965 7.68648 5.9965C6.89678 5.9965 6.13933 6.30979 5.58035 6.86761L4.54314 7.90482C2.80365 9.64424 2.40663 15.7451 9.27743 22.6159ZM6.64097 7.92824C6.91844 7.65132 7.29444 7.4958 7.68644 7.4958C8.07845 7.4958 8.45444 7.65132 8.73191 7.92824L11.1647 10.361C11.4515 10.6404 11.6203 11.0192 11.6364 11.4193C11.6524 11.8194 11.5145 12.2105 11.2509 12.512L9.86915 13.8924C8.99701 14.7645 10.1682 17.8498 12.1058 19.7875C14.0434 21.7251 17.1315 22.8935 18.005 22.02L19.3757 20.6492C19.6483 20.3742 20.0188 20.2186 20.406 20.2164C20.7932 20.2142 21.1655 20.3656 21.4412 20.6375L23.9651 23.1614C24.242 23.4389 24.3975 23.8149 24.3975 24.2069C24.3975 24.5989 24.242 24.9749 23.9651 25.2524L22.9279 26.2896C21.7719 27.4455 16.508 27.7252 10.3381 21.5553C4.16814 15.3853 4.44781 10.1214 5.60377 8.96544L6.64097 7.92824Z" fill="#0F0F0F"/>
</svg>
