<svg width="32" height="32" viewBox="0 0 32 32" fill="none" xmlns="http://www.w3.org/2000/svg">
<path d="M18.208 15H5.41406L13.7071 6.707C13.8907 6.51867 13.9927 6.26559 13.991 6.00257C13.9894 5.73956 13.8841 5.48779 13.6982 5.3018C13.5122 5.11582 13.2604 5.0106 12.9974 5.00893C12.7344 5.00726 12.4813 5.10929 12.293 5.2929L2.29296 15.2929C2.10546 15.4804 2.00012 15.7348 2.00012 16C2.00012 16.2651 2.10546 16.5195 2.29296 16.707L12.293 26.707C12.4813 26.8906 12.7344 26.9926 12.9974 26.991C13.2604 26.9893 13.5122 26.8841 13.6982 26.6981C13.8841 26.5121 13.9894 26.2603 13.991 25.9973C13.9927 25.7343 13.8907 25.4812 13.7071 25.2929L5.41406 17H18.208C20.5941 17.0026 22.8817 17.9517 24.569 19.639C26.2563 21.3262 27.2053 23.6139 27.208 26C27.208 26.2652 27.3133 26.5196 27.5009 26.7071C27.6884 26.8946 27.9427 27 28.208 27C28.4732 27 28.7275 26.8946 28.9151 26.7071C29.1026 26.5196 29.208 26.2652 29.208 26C29.2047 23.0836 28.0447 20.2876 25.9825 18.2255C23.9203 16.1633 21.1243 15.0033 18.208 15Z" fill="#0F0F0F"/>
</svg>
