<svg width="32" height="32" viewBox="0 0 32 32" fill="none" xmlns="http://www.w3.org/2000/svg">
<path d="M16 2C13.2165 1.9951 10.495 2.82146 8.18423 4.37316C5.87342 5.92487 4.07858 8.13123 3.02972 10.7095C1.98087 13.2878 1.72578 16.1205 2.29714 18.8447C2.8685 21.5689 4.24028 24.0604 6.2367 26H3C2.73478 26 2.48043 26.1054 2.29289 26.2929C2.10536 26.4804 2 26.7348 2 27C2 27.2652 2.10536 27.5196 2.29289 27.7071C2.48043 27.8946 2.73478 28 3 28H9C9.26522 28 9.51957 27.8946 9.70711 27.7071C9.89464 27.5196 10 27.2652 10 27V21C10 20.7348 9.89464 20.4804 9.70711 20.2929C9.51957 20.1054 9.26522 20 9 20C8.73478 20 8.48043 20.1054 8.29289 20.2929C8.10536 20.4804 8 20.7348 8 21V24.9251C6.13112 23.2458 4.83713 21.0217 4.30086 18.5671C3.76459 16.1125 4.01314 13.5514 5.01141 11.2457C6.00967 8.93997 7.70718 7.00622 9.8641 5.71762C12.021 4.42902 14.5283 3.85072 17.0317 4.06442C19.5352 4.27813 21.9081 5.27303 23.8154 6.90857C25.7227 8.54412 27.0679 10.7376 27.6609 13.1791C28.254 15.6207 28.0648 18.1868 27.1203 20.5151C26.1757 22.8433 24.5235 24.8159 22.397 26.1541C22.1727 26.2958 22.0139 26.5208 21.9555 26.7795C21.897 27.0383 21.9438 27.3097 22.0855 27.534C22.2272 27.7583 22.4522 27.9171 22.7109 27.9755C22.9697 28.034 23.2411 27.9872 23.4654 27.8455C26.033 26.2266 28.005 23.8172 29.0843 20.9802C30.1636 18.1432 30.2917 15.0323 29.4494 12.1161C28.607 9.19997 26.8399 6.63652 24.4141 4.81195C21.9884 2.98737 19.0354 2.0005 16 2Z" fill="#0F0F0F"/>
<path d="M11.7221 20H13.7501V10.9H11.7351L9.64208 12.005V13.838L11.7221 12.772V20Z" fill="#0F0F0F"/>
<path d="M18.75 20.195C20.856 20.195 22.208 18.765 22.208 15.476C22.208 12.096 20.882 10.705 18.75 10.705C16.618 10.705 15.292 12.096 15.292 15.476C15.292 18.765 16.644 20.195 18.75 20.195ZM18.75 18.817C17.892 18.817 17.385 18.102 17.385 15.476C17.385 12.85 17.892 12.07 18.75 12.07C19.608 12.07 20.115 12.85 20.115 15.476C20.115 18.102 19.608 18.817 18.75 18.817Z" fill="#0F0F0F"/>
</svg>
