<svg width="32" height="32" viewBox="0 0 32 32" fill="none" xmlns="http://www.w3.org/2000/svg">
<path d="M3.5 16C3.5 9.09644 9.09644 3.5 16 3.5C22.9036 3.5 28.5 9.09644 28.5 16C28.5 22.9036 22.9036 28.5 16 28.5C15.7239 28.5 15.5 28.7239 15.5 29C15.5 29.2761 15.7239 29.5 16 29.5C23.4558 29.5 29.5 23.4558 29.5 16C29.5 8.54416 23.4558 2.5 16 2.5C8.54416 2.5 2.5 8.54416 2.5 16C2.5 20.2413 4.45632 24.0257 7.51404 26.5H3C2.72386 26.5 2.5 26.7239 2.5 27C2.5 27.2761 2.72386 27.5 3 27.5H9C9.27614 27.5 9.5 27.2761 9.5 27V21C9.5 20.7239 9.27614 20.5 9 20.5C8.72386 20.5 8.5 20.7239 8.5 21V26.001C5.46296 23.7197 3.5 20.0891 3.5 16Z" fill="#0F0F0F"/>
<path d="M18.75 20.195C20.557 20.195 21.935 18.726 21.935 15.437C21.935 12.096 20.544 10.705 18.75 10.705C16.956 10.705 15.565 12.096 15.565 15.437C15.565 18.726 16.943 20.195 18.75 20.195ZM18.75 19.376C17.333 19.376 16.553 18.128 16.553 15.437C16.553 12.759 17.333 11.524 18.75 11.524C20.167 11.524 20.947 12.759 20.947 15.437C20.947 18.128 20.167 19.376 18.75 19.376Z" fill="#0F0F0F"/>
<path d="M13.2431 20V10.9H12.2941L10.2141 12.044V13.045L12.2811 11.914V20H13.2431Z" fill="#0F0F0F"/>
</svg>
