<svg width="32" height="32" viewBox="0 0 32 32" fill="none" xmlns="http://www.w3.org/2000/svg">
<path d="M4 16C4 9.37258 9.37258 4 16 4C22.6274 4 28 9.37258 28 16C28 22.6274 22.6274 28 16 28C15.4477 28 15 28.4477 15 29C15 29.5523 15.4477 30 16 30C23.732 30 30 23.732 30 16C30 8.26801 23.732 2 16 2C8.26801 2 2 8.26801 2 16C2 19.918 3.61008 23.4599 6.20214 26H3C2.44772 26 2 26.4477 2 27C2 27.5523 2.44772 28 3 28H9C9.55228 28 10 27.5523 10 27V21C10 20.4477 9.55228 20 9 20C8.44772 20 8 20.4477 8 21V24.9445C5.54367 22.7461 4 19.5533 4 16Z" fill="#0F0F0F"/>
<path d="M18.75 20.195C20.856 20.195 22.208 18.765 22.208 15.476C22.208 12.096 20.882 10.705 18.75 10.705C16.618 10.705 15.292 12.096 15.292 15.476C15.292 18.765 16.644 20.195 18.75 20.195ZM18.75 18.817C17.892 18.817 17.385 18.102 17.385 15.476C17.385 12.85 17.892 12.07 18.75 12.07C19.608 12.07 20.115 12.85 20.115 15.476C20.115 18.102 19.608 18.817 18.75 18.817Z" fill="#0F0F0F"/>
<path d="M11.7221 20H13.7501V10.9H11.7351L9.64208 12.005V13.838L11.7221 12.772V20Z" fill="#0F0F0F"/>
</svg>
