<svg width="32" height="32" viewBox="0 0 32 32" fill="none" xmlns="http://www.w3.org/2000/svg">
<path d="M16 2.25C13.2136 2.24713 10.4922 3.09174 8.19709 4.67173C5.90195 6.25172 4.1416 8.49236 3.14971 11.0962C2.15782 13.7001 1.98129 16.5441 2.64356 19.2506C3.30583 21.9572 4.77557 24.3983 6.8577 26.25H3C2.80108 26.25 2.61032 26.329 2.46967 26.4697C2.32901 26.6103 2.25 26.8011 2.25 27C2.25 27.1989 2.32901 27.3897 2.46967 27.5303C2.61032 27.671 2.80108 27.75 3 27.75H9C9.19891 27.75 9.38967 27.671 9.53033 27.5303C9.67098 27.3897 9.75 27.1989 9.75 27V21C9.75 20.8011 9.67098 20.6103 9.53033 20.4697C9.38967 20.329 9.19891 20.25 9 20.25C8.80108 20.25 8.61032 20.329 8.46967 20.4697C8.32901 20.6103 8.25 20.8011 8.25 21V25.4727C6.24785 23.8312 4.81779 21.5971 4.16539 19.0916C3.513 16.5861 3.67188 13.9383 4.6192 11.5288C5.56652 9.11925 7.25348 7.07219 9.43755 5.68188C11.6216 4.29156 14.1903 3.62961 16.7743 3.79119C19.3583 3.95276 21.8245 4.92954 23.8184 6.5811C25.8122 8.23266 27.231 10.4739 27.8708 12.9827C28.5106 15.4914 28.3384 18.1384 27.379 20.5431C26.4196 22.9478 24.7223 24.9864 22.5313 26.3657C22.3631 26.4719 22.2439 26.6406 22.2001 26.8346C22.1562 27.0287 22.1912 27.2322 22.2974 27.4004C22.4036 27.5686 22.5723 27.6878 22.7663 27.7316C22.9603 27.7755 23.1639 27.7405 23.3321 27.6343C25.8541 26.0444 27.791 23.678 28.8512 20.8916C29.9113 18.1051 30.0372 15.0497 29.2099 12.1855C28.3826 9.32127 26.6469 6.8035 24.2643 5.0115C21.8817 3.2195 18.9813 2.25033 16 2.25Z" fill="#0F0F0F"/>
<path d="M13.3601 20V10.9H12.1381L10.0841 11.966V13.253L12.1251 12.2V20H13.3601Z" fill="#0F0F0F"/>
<path d="M18.75 20.195C20.596 20.195 22 18.687 22 15.424C22 12.07 20.583 10.705 18.75 10.705C16.917 10.705 15.5 12.07 15.5 15.424C15.5 18.687 16.904 20.195 18.75 20.195ZM18.75 19.155C17.424 19.155 16.774 17.972 16.774 15.424C16.774 12.889 17.424 11.745 18.75 11.745C20.076 11.745 20.726 12.889 20.726 15.424C20.726 17.972 20.076 19.155 18.75 19.155Z" fill="#0F0F0F"/>
</svg>
