<svg width="32" height="32" viewBox="0 0 32 32" fill="none" xmlns="http://www.w3.org/2000/svg">
<path d="M10.5871 3.43218C11.3579 2.64137 12.6208 2.62876 13.4074 3.40386L28.5754 18.3492C29.3622 19.1244 29.3753 20.3939 28.6047 21.1851L21.4143 28.5669C20.6436 29.3581 19.3808 29.3714 18.594 28.5962L3.42501 13.6509C2.6382 12.8757 2.62497 11.6052 3.39572 10.814L10.5871 3.43218ZM19.6408 18.5484L21.0588 19.9586L24.8664 16.1294L23.4485 14.7193L19.6408 18.5484ZM15.8342 14.7193L17.2522 16.1294L21.0598 12.3003L19.6418 10.8902L15.8342 14.7193ZM12.0276 10.8902L13.4455 12.3003L17.2531 8.47125L15.8352 7.06109L12.0276 10.8902Z" fill="#0F0F0F"/>
</svg>
