<svg width="32" height="32" viewBox="0 0 32 32" fill="none" xmlns="http://www.w3.org/2000/svg">
<path d="M15.9998 2.25031C13.2803 2.25031 10.6218 3.05673 8.36067 4.5676C6.0995 6.07847 4.33712 8.22593 3.29642 10.7384C2.25571 13.2509 1.98342 16.0156 2.51396 18.6828C3.04451 21.35 4.35407 23.8001 6.27704 25.723C8.20002 27.646 10.65 28.9556 13.3173 29.4861C15.9845 30.0167 18.7492 29.7444 21.2617 28.7037C23.7741 27.6629 25.9216 25.9006 27.4325 23.6394C28.9433 21.3782 29.7498 18.7198 29.7498 16.0003C29.7457 12.3548 28.2958 8.8598 25.718 6.28205C23.1403 3.70429 19.6453 2.25434 15.9998 2.25031ZM15.9998 28.2503C13.5769 28.2503 11.2085 27.5319 9.19403 26.1858C7.17952 24.8398 5.60941 22.9266 4.68224 20.6882C3.75506 18.4498 3.51247 15.9867 3.98514 13.6105C4.45781 11.2342 5.62451 9.05144 7.3377 7.33825C9.0509 5.62506 11.2336 4.45836 13.6099 3.98569C15.9862 3.51302 18.4492 3.75561 20.6876 4.68278C22.926 5.60996 24.8392 7.18007 26.1853 9.19457C27.5313 11.2091 28.2498 13.5775 28.2498 16.0003C28.2462 19.2481 26.9544 22.3619 24.6578 24.6584C22.3613 26.9549 19.2476 28.2467 15.9998 28.2503Z" fill="#0F0F0F"/>
<path d="M21.9998 9.25031C21.8009 9.25036 21.6101 9.32939 21.4695 9.47003C21.3288 9.61068 21.2498 9.80141 21.2498 10.0003V11.7645C21.1007 11.5768 20.9417 11.3973 20.7732 11.2269C19.7531 10.2085 18.4336 9.54366 17.0081 9.32995C15.5826 9.11624 14.1261 9.36485 12.8522 10.0393C11.5783 10.7138 10.554 11.7787 9.92951 13.0779C9.30502 14.377 9.11317 15.842 9.38211 17.2582C9.65104 18.6743 10.3666 19.967 11.4239 20.9468C12.4811 21.9265 13.8245 22.5418 15.257 22.7023C16.6894 22.8628 18.1357 22.5602 19.3836 21.8388C20.6315 21.1174 21.6155 20.0151 22.1912 18.6937L22.3621 18.2913C22.4398 18.1082 22.4416 17.9017 22.367 17.7173C22.2925 17.5329 22.1478 17.3856 21.9646 17.3079C21.7815 17.2302 21.575 17.2284 21.3906 17.303C21.2062 17.3775 21.0589 17.5223 20.9812 17.7054L20.8132 18.1009C20.3645 19.1295 19.598 19.9873 18.6261 20.5485C17.6543 21.1097 16.5282 21.3448 15.413 21.2193C14.2978 21.0938 13.2521 20.6143 12.4293 19.8511C11.6065 19.0879 11.0499 18.0812 10.841 16.9786C10.6321 15.876 10.7819 14.7354 11.2685 13.7242C11.7552 12.7129 12.553 11.8842 13.545 11.3594C14.537 10.8347 15.6711 10.6416 16.7808 10.8084C17.8906 10.9753 18.9178 11.4932 19.7117 12.2864C19.9543 12.5312 20.1725 12.7991 20.363 13.0862C20.4089 13.1494 20.4645 13.2048 20.5279 13.2503H17.9998C17.8008 13.2503 17.6101 13.3293 17.4694 13.47C17.3288 13.6106 17.2498 13.8014 17.2498 14.0003C17.2498 14.1992 17.3288 14.39 17.4694 14.5306C17.6101 14.6713 17.8008 14.7503 17.9998 14.7503H21.9998C22.1987 14.7503 22.3894 14.6712 22.53 14.5306C22.6707 14.3899 22.7497 14.1992 22.7498 14.0003V10.0003C22.7497 9.80141 22.6707 9.61068 22.53 9.47003C22.3894 9.32939 22.1987 9.25036 21.9998 9.25031Z" fill="#0F0F0F"/>
</svg>
