<svg width="32" height="32" viewBox="0 0 32 32" fill="none" xmlns="http://www.w3.org/2000/svg">
<path d="M26.4697 21.4696L21 26.9393L17.5303 23.4696C17.3896 23.3289 17.1989 23.2499 17 23.2499C16.8011 23.2499 16.6104 23.3289 16.4697 23.4696C16.3291 23.6102 16.2501 23.8009 16.2501 23.9998C16.2501 24.1987 16.3291 24.3895 16.4697 24.5301L20.4697 28.5301C20.5394 28.5998 20.622 28.655 20.713 28.6927C20.804 28.7304 20.9015 28.7498 21 28.7498C21.0985 28.7498 21.196 28.7304 21.287 28.6927C21.378 28.655 21.4607 28.5998 21.5303 28.5301L27.5303 22.5301C27.5999 22.4605 27.6552 22.3778 27.6928 22.2868C27.7305 22.1958 27.7499 22.0983 27.7499 21.9998C27.7499 21.9013 27.7305 21.8038 27.6928 21.7128C27.6552 21.6219 27.5999 21.5392 27.5303 21.4696C27.4606 21.3999 27.378 21.3447 27.287 21.307C27.196 21.2693 27.0985 21.2499 27 21.2499C26.9015 21.2499 26.804 21.2693 26.713 21.307C26.622 21.3447 26.5394 21.3999 26.4697 21.4696Z" fill="#0F0F0F"/>
<path d="M23 5.24983H22.75V3.0008C22.75 2.80189 22.671 2.61112 22.5303 2.47047C22.3897 2.32982 22.1989 2.2508 22 2.2508C21.8011 2.2508 21.6103 2.32982 21.4697 2.47047C21.329 2.61112 21.25 2.80189 21.25 3.0008V5.2498H10.75V3.0008C10.75 2.80189 10.671 2.61112 10.5303 2.47047C10.3897 2.32982 10.1989 2.2508 10 2.2508C9.80109 2.2508 9.61032 2.32982 9.46967 2.47047C9.32902 2.61112 9.25 2.80189 9.25 3.0008V5.2498H9C7.74066 5.25123 6.53331 5.75213 5.64282 6.64262C4.75233 7.53311 4.25143 8.74046 4.25 9.9998V23.9998C4.25143 25.2591 4.75233 26.4665 5.64282 27.357C6.53331 28.2475 7.74066 28.7484 9 28.7498H14C14.1989 28.7498 14.3897 28.6708 14.5303 28.5301C14.671 28.3895 14.75 28.1987 14.75 27.9998C14.75 27.8009 14.671 27.6101 14.5303 27.4695C14.3897 27.3288 14.1989 27.2498 14 27.2498H9C8.13835 27.2488 7.31228 26.9061 6.70301 26.2968C6.09373 25.6875 5.751 24.8614 5.75 23.9998V12.7518H26.25V16.9998C26.25 17.1987 26.329 17.3895 26.4697 17.5301C26.6103 17.6708 26.8011 17.7498 27 17.7498C27.1989 17.7498 27.3897 17.6708 27.5303 17.5301C27.671 17.3895 27.75 17.1987 27.75 16.9998V9.9998C27.7486 8.74047 27.2477 7.53312 26.3572 6.64264C25.4667 5.75216 24.2593 5.25126 23 5.24983ZM5.75 11.2518V9.99983C5.751 9.13818 6.09373 8.31211 6.70301 7.70284C7.31228 7.09356 8.13835 6.75083 9 6.74983H23C23.8616 6.75083 24.6877 7.09356 25.297 7.70283C25.9063 8.31211 26.249 9.13818 26.25 9.99983V11.2518H5.75Z" fill="#0F0F0F"/>
</svg>
