<svg width="32" height="32" viewBox="0 0 32 32" fill="none" xmlns="http://www.w3.org/2000/svg">
<path d="M26.293 21.2928L21 26.5858L17.707 23.2928C17.5195 23.1053 17.2651 22.9999 16.9999 22.9999C16.7348 22.9999 16.4804 23.1053 16.2929 23.2928C16.1054 23.4803 16 23.7346 16 23.9998C16 24.265 16.1054 24.5193 16.2929 24.7069L20.2929 28.7069C20.3857 28.7997 20.496 28.8734 20.6173 28.9237C20.7386 28.974 20.8686 28.9998 20.9999 28.9998C21.1313 28.9998 21.2613 28.974 21.3826 28.9237C21.5039 28.8734 21.6141 28.7997 21.707 28.7069L27.707 22.7069C27.8945 22.5193 27.9998 22.265 27.9998 21.9998C27.9998 21.7346 27.8945 21.4803 27.707 21.2928C27.5194 21.1053 27.2651 20.9999 26.9999 20.9999C26.7347 20.9999 26.4805 21.1053 26.293 21.2928Z" fill="#0F0F0F"/>
<path d="M23 4.99982V3.00079C23 2.73558 22.8946 2.48122 22.7071 2.29369C22.5196 2.10615 22.2652 2.00079 22 2.00079C21.7348 2.00079 21.4804 2.10615 21.2929 2.29369C21.1054 2.48122 21 2.73558 21 3.00079V4.99979H11V3.00079C11 2.73558 10.8946 2.48122 10.7071 2.29369C10.5196 2.10615 10.2652 2.00079 10 2.00079C9.73478 2.00079 9.48043 2.10615 9.29289 2.29369C9.10536 2.48122 9 2.73558 9 3.00079V4.99979C7.6744 5.00135 6.40353 5.52864 5.46619 6.46598C4.52884 7.40333 4.00156 8.67419 4 9.99979V23.9998C4.00156 25.3254 4.52884 26.5963 5.46619 27.5336C6.40353 28.4709 7.6744 28.9982 9 28.9998H14C14.2652 28.9998 14.5196 28.8944 14.7071 28.7069C14.8946 28.5194 15 28.265 15 27.9998C15 27.7346 14.8946 27.4802 14.7071 27.2927C14.5196 27.1052 14.2652 26.9998 14 26.9998H9C8.20462 26.9989 7.44206 26.6826 6.87964 26.1202C6.31722 25.5577 6.00087 24.7952 6 23.9998V13.0018H26V16.9998C26 17.265 26.1054 17.5194 26.2929 17.7069C26.4804 17.8944 26.7348 17.9998 27 17.9998C27.2652 17.9998 27.5196 17.8944 27.7071 17.7069C27.8946 17.5194 28 17.265 28 16.9998V9.99979C27.9984 8.67419 27.4711 7.40334 26.5338 6.466C25.5965 5.52866 24.3256 5.00138 23 4.99982ZM6 11.0018V9.99982C6.00087 9.20444 6.31722 8.44188 6.87964 7.87946C7.44206 7.31704 8.20462 7.00069 9 6.99982H23C23.7954 7.00069 24.5579 7.31704 25.1204 7.87946C25.6828 8.44188 25.9991 9.20444 26 9.99982V11.0018H6Z" fill="#0F0F0F"/>
</svg>
