<svg width="32" height="32" viewBox="0 0 32 32" fill="none" xmlns="http://www.w3.org/2000/svg">
<path d="M29.0002 16.2496C28.8013 16.2497 28.6105 16.3287 28.4699 16.4694C28.3292 16.61 28.2502 16.8007 28.2502 16.9996V21.5553C28.3042 22.475 27.9932 23.3789 27.3846 24.0706C26.7761 24.7623 25.9192 25.186 25.0002 25.2496H7.00016C6.08107 25.186 5.22421 24.7623 4.61569 24.0706C4.00717 23.3789 3.69614 22.475 3.75016 21.5553V10.444C3.69614 9.5243 4.00717 8.62042 4.61569 7.92871C5.22421 7.23699 6.08107 6.8133 7.00016 6.74966H19.0031C19.202 6.74966 19.3927 6.67064 19.5334 6.52999C19.674 6.38934 19.7531 6.19857 19.7531 5.99966C19.7531 5.80075 19.674 5.60998 19.5334 5.46933C19.3927 5.32868 19.202 5.24966 19.0031 5.24966H7.00016C5.68291 5.31263 4.44407 5.89421 3.55412 6.86741C2.66417 7.84061 2.1954 9.12638 2.25016 10.444V21.5553C2.1954 22.8729 2.66417 24.1587 3.55412 25.1319C4.44407 26.1051 5.68291 26.6867 7.00016 26.7496H25.0002C26.3174 26.6867 27.5563 26.1051 28.4462 25.1319C29.3362 24.1587 29.8049 22.8729 29.7502 21.5553V16.9996C29.7501 16.8007 29.6711 16.61 29.5304 16.4694C29.3898 16.3287 29.1991 16.2497 29.0002 16.2496Z" fill="#0F0F0F"/>
<path d="M21.0002 10.7496H24.2502V13.9996C24.2502 14.1985 24.3292 14.3893 24.4698 14.53C24.6105 14.6706 24.8012 14.7496 25.0002 14.7496C25.1991 14.7496 25.3898 14.6706 25.5305 14.53C25.6711 14.3893 25.7502 14.1985 25.7502 13.9996V10.7496H29.0002C29.1991 10.7496 29.3898 10.6706 29.5305 10.53C29.6711 10.3893 29.7502 10.1985 29.7502 9.99963C29.7502 9.80072 29.6711 9.60995 29.5305 9.4693C29.3898 9.32865 29.1991 9.24963 29.0002 9.24963H25.7502V5.99963C25.7502 5.80072 25.6711 5.60995 25.5305 5.4693C25.3898 5.32865 25.1991 5.24963 25.0002 5.24963C24.8012 5.24963 24.6105 5.32865 24.4698 5.4693C24.3292 5.60995 24.2502 5.80072 24.2502 5.99963V9.24963H21.0002C20.8012 9.24963 20.6105 9.32865 20.4698 9.4693C20.3292 9.60995 20.2502 9.80072 20.2502 9.99963C20.2502 10.1985 20.3292 10.3893 20.4698 10.53C20.6105 10.6706 20.8012 10.7496 21.0002 10.7496Z" fill="#0F0F0F"/>
</svg>
