<svg width="32" height="32" viewBox="0 0 32 32" fill="none" xmlns="http://www.w3.org/2000/svg">
<path d="M27.0005 5.5V6.5C27.5307 6.50069 28.039 6.71162 28.414 7.08655C28.7889 7.46147 28.9998 7.96978 29.0005 8.5V12.5C28.9998 13.0302 28.7889 13.5385 28.414 13.9135C28.039 14.2884 27.5307 14.4993 27.0005 14.5H21.0005C20.4703 14.4993 19.962 14.2884 19.587 13.9135C19.2121 13.5385 19.0012 13.0302 19.0005 12.5V8.5C19.0012 7.96978 19.2121 7.46147 19.587 7.08655C19.962 6.71162 20.4703 6.50069 21.0005 6.5V5.5C21.0005 4.70435 21.3166 3.94129 21.8792 3.37868C22.4418 2.81607 23.2049 2.5 24.0005 2.5C24.7962 2.5 25.5592 2.81607 26.1218 3.37868C26.6844 3.94129 27.0005 4.70435 27.0005 5.5ZM23.2934 4.79289C23.1059 4.98043 23.0005 5.23478 23.0005 5.5V6.5H25.0005V5.5C25.0005 5.23478 24.8951 4.98043 24.7076 4.79289C24.5201 4.60536 24.2657 4.5 24.0005 4.5C23.7353 4.5 23.4809 4.60536 23.2934 4.79289Z" fill="#0F0F0F"/>
<path d="M24.172 27.577C22.3711 29.3779 16.1032 29.8385 9.10736 22.8427C2.11155 15.8469 2.57211 9.57892 4.37306 7.77803L5.41027 6.74083C6.0162 6.13624 6.83721 5.7967 7.69318 5.7967C8.54914 5.7967 9.37015 6.13624 9.97608 6.74083L12.4088 9.17358C13.023 9.78147 13.3756 10.605 13.3918 11.469C13.4079 12.333 13.0862 13.1691 12.4951 13.7995L11.3274 14.9658C11.6188 16.3538 12.324 17.6209 13.35 18.6C14.3297 19.6265 15.5984 20.3307 16.9877 20.6192L18.1451 19.4618C18.7461 18.8591 19.5616 18.5195 20.4128 18.5173C21.2639 18.5151 22.0812 18.8505 22.6853 19.4501L25.2092 21.974C25.8138 22.5799 26.1534 23.4009 26.1534 24.2569C26.1534 25.1128 25.8138 25.9339 25.2092 26.5398L24.172 27.577Z" fill="#0F0F0F"/>
</svg>
