<svg width="32" height="32" viewBox="0 0 32 32" fill="none" xmlns="http://www.w3.org/2000/svg">
<path d="M16 29.0928C9.03027 29.0928 3.2666 23.3418 3.2666 16.3594C3.2666 9.38965 9.01758 3.62598 15.9873 3.62598C22.9697 3.62598 28.7334 9.38965 28.7334 16.3594C28.7334 23.3418 22.9697 29.0928 16 29.0928ZM11.1631 21.374C11.1631 22.3516 11.5947 22.7959 12.5088 22.7959H19.4912C20.4053 22.7959 20.8369 22.3516 20.8369 21.374V15.9912C20.8369 15.0771 20.4688 14.6328 19.6943 14.5693V12.9316C19.6943 10.3672 18.1074 8.79297 16 8.79297C13.8926 8.79297 12.3057 10.3672 12.3057 12.9316V14.582C11.5312 14.6455 11.1631 15.0771 11.1631 15.9912V21.374ZM13.3975 14.5566V12.8301C13.3975 11.0527 14.4385 9.85938 16 9.85938C17.5615 9.85938 18.6025 11.0527 18.6025 12.8301V14.5566H13.3975Z" fill="black"/>
</svg>
