<svg width="32" height="32" viewBox="0 0 32 32" fill="none" xmlns="http://www.w3.org/2000/svg">
<path d="M16.0002 2.24988C13.2808 2.24988 10.6223 3.05631 8.36116 4.56717C6.09998 6.07804 4.33761 8.2255 3.29691 10.738C2.2562 13.2505 1.98391 16.0151 2.51445 18.6824C3.045 21.3496 4.35456 23.7996 6.27753 25.7226C8.2005 27.6456 10.6505 28.9551 13.3178 29.4857C15.985 30.0162 18.7497 29.7439 21.2621 28.7032C23.7746 27.6625 25.9221 25.9001 27.433 23.639C28.9438 21.3778 29.7502 18.7194 29.7502 15.9999C29.7462 12.3544 28.2963 8.85937 25.7185 6.28162C23.1408 3.70387 19.6457 2.25392 16.0002 2.24988ZM16.0002 28.2499C13.5774 28.2499 11.209 27.5314 9.19452 26.1854C7.18001 24.8393 5.6099 22.9261 4.68273 20.6878C3.75555 18.4494 3.51296 15.9863 3.98563 13.61C4.4583 11.2338 5.625 9.05102 7.33819 7.33782C9.05139 5.62463 11.2341 4.45793 13.6104 3.98526C15.9867 3.51259 18.4497 3.75518 20.6881 4.68236C22.9265 5.60953 24.8397 7.17964 26.1858 9.19415C27.5318 11.2086 28.2502 13.5771 28.2502 15.9999C28.2466 19.2477 26.9549 22.3614 24.6583 24.658C22.3618 26.9545 19.248 28.2463 16.0002 28.2499Z" fill="#0F0F0F"/>
<path d="M18.846 14.0966H18.6731V12.9237C18.6739 12.5723 18.6053 12.2241 18.4713 11.8992C18.3374 11.5743 18.1407 11.279 17.8924 11.0302C17.6442 10.7815 17.3494 10.5841 17.0248 10.4493C16.7002 10.3146 16.3522 10.2453 16.0008 10.2452C15.6493 10.2451 15.3013 10.3144 14.9767 10.449C14.652 10.5836 14.3571 10.7808 14.1088 11.0295C13.8605 11.2782 13.6637 11.5735 13.5296 11.8983C13.3955 12.2232 13.3268 12.5713 13.3274 12.9227V14.0965H13.1536C12.6896 14.0971 12.2448 14.2817 11.9168 14.6097C11.5887 14.9378 11.4041 15.3826 11.4036 15.8465V19.9999C11.4041 20.4638 11.5887 20.9086 11.9168 21.2367C12.2448 21.5647 12.6896 21.7493 13.1536 21.7499H18.846C19.3099 21.7493 19.7547 21.5647 20.0828 21.2367C20.4109 20.9086 20.5954 20.4638 20.596 19.9999V15.8466C20.5954 15.3826 20.4109 14.9378 20.0828 14.6097C19.7547 14.2817 19.3099 14.0971 18.846 14.0966ZM14.8274 12.9227C14.827 12.7684 14.8571 12.6156 14.9159 12.4729C14.9747 12.3302 15.0611 12.2006 15.1701 12.0914C15.2791 11.9821 15.4086 11.8955 15.5511 11.8364C15.6936 11.7773 15.8464 11.7469 16.0008 11.747C16.1551 11.7471 16.3078 11.7776 16.4503 11.8368C16.5928 11.896 16.7222 11.9827 16.8311 12.0921C16.9401 12.2014 17.0263 12.3311 17.085 12.4738C17.1437 12.6165 17.1736 12.7694 17.1731 12.9237V14.0966H14.8274V12.9227ZM19.096 19.9999C19.0958 20.0661 19.0695 20.1297 19.0226 20.1765C18.9757 20.2234 18.9122 20.2498 18.846 20.2499H13.1536C13.0873 20.2498 13.0238 20.2234 12.9769 20.1765C12.9301 20.1297 12.9037 20.0661 12.9036 19.9999V15.8466C12.9037 15.7803 12.9301 15.7168 12.9769 15.6699C13.0238 15.6231 13.0873 15.5967 13.1536 15.5966H18.846C18.9122 15.5967 18.9757 15.6231 19.0226 15.6699C19.0695 15.7168 19.0958 15.7803 19.096 15.8466V19.9999Z" fill="#0F0F0F"/>
</svg>
