<svg width="32" height="32" viewBox="0 0 32 32" fill="none" xmlns="http://www.w3.org/2000/svg">
<path d="M16 24.6622C17.4709 25.513 19.1786 26 21 26C26.5228 26 31 21.5228 31 16C31 10.4772 26.5228 6 21 6C19.1786 6 17.4709 6.48697 16 7.33782C14.5291 6.48697 12.8214 6 11 6C5.47715 6 1 10.4772 1 16C1 17.3996 1.28752 18.732 1.80672 19.9414C2.06579 20.7152 2.47141 21.3913 2.98161 21.9764C4.80491 24.4187 7.71779 26 11 26C12.8214 26 14.5291 25.513 16 24.6622ZM17.7984 8.66636C18.7788 8.23777 19.8616 8 21 8C25.4183 8 29 11.5817 29 16C29 20.4183 25.4183 24 21 24C19.8616 24 18.7788 23.7622 17.7984 23.3336C19.7676 21.5073 21 18.8976 21 16C21 13.1024 19.7676 10.4927 17.7984 8.66636ZM16 9.75463C17.8289 11.2208 19 13.4736 19 16C19 18.5264 17.8289 20.7792 16 22.2454C14.1711 20.7792 13 18.5264 13 16C13 13.4736 14.1711 11.2208 16 9.75463Z" fill="#0F0F0F"/>
</svg>
