<svg width="32" height="32" viewBox="0 0 32 32" fill="none" xmlns="http://www.w3.org/2000/svg">
<path d="M11 6C5.47715 6 1 10.4772 1 16C1 21.5228 5.47715 26 11 26C11.1442 26 11.2878 25.9969 11.4305 25.9909C12.2499 25.9561 13.0442 25.8226 13.8015 25.602C10.886 23.4128 9 19.9266 9 16C9 12.0734 10.886 8.58722 13.8015 6.398C12.9192 6.14094 11.9867 6.00218 11.0228 6.00003C11.0152 6.00001 11.0076 6 11 6Z" fill="#0F0F0F"/>
<path d="M15.9998 7.33792C13.0109 9.06699 11 12.2987 11 16C11 19.7013 13.0109 22.933 15.9998 24.6621C18.9887 22.933 21 19.7013 21 16C21 12.2987 18.9887 9.06699 15.9998 7.33792Z" fill="#0F0F0F"/>
<path d="M18.1985 6.398C21.114 8.58722 23 12.0734 23 16C23 19.9266 21.114 23.4128 18.1985 25.602C18.9766 25.8287 19.7936 25.9634 20.6368 25.9935C20.7574 25.9978 20.8784 26 21 26C26.5228 26 31 21.5228 31 16C31 10.4772 26.5228 6 21 6C20.9874 6 20.9749 6.00002 20.9623 6.00007C20.0037 6.00361 19.0763 6.14227 18.1985 6.398Z" fill="#0F0F0F"/>
</svg>
