<svg width="32" height="32" viewBox="0 0 32 32" fill="none" xmlns="http://www.w3.org/2000/svg">
<path d="M5.75 9C5.75 7.20507 7.20507 5.75 9 5.75H10C10.4142 5.75 10.75 5.41421 10.75 5C10.75 4.58579 10.4142 4.25 10 4.25H9C6.37665 4.25 4.25 6.37665 4.25 9V10C4.25 10.4142 4.58579 10.75 5 10.75C5.41421 10.75 5.75 10.4142 5.75 10V9Z" fill="#0F0F0F"/>
<path d="M22 4.25C21.5858 4.25 21.25 4.58579 21.25 5C21.25 5.41421 21.5858 5.75 22 5.75H23C24.7949 5.75 26.25 7.20507 26.25 9V10C26.25 10.4142 26.5858 10.75 27 10.75C27.4142 10.75 27.75 10.4142 27.75 10V9C27.75 6.37665 25.6234 4.25 23 4.25H22Z" fill="#0F0F0F"/>
<path d="M5.75 22C5.75 21.5858 5.41421 21.25 5 21.25C4.58579 21.25 4.25 21.5858 4.25 22V23C4.25 25.6234 6.37665 27.75 9 27.75H10C10.4142 27.75 10.75 27.4142 10.75 27C10.75 26.5858 10.4142 26.25 10 26.25H9C7.20507 26.25 5.75 24.7949 5.75 23V22Z" fill="#0F0F0F"/>
<path d="M27.75 22C27.75 21.5858 27.4142 21.25 27 21.25C26.5858 21.25 26.25 21.5858 26.25 22V23C26.25 24.7949 24.7949 26.25 23 26.25H22C21.5858 26.25 21.25 26.5858 21.25 27C21.25 27.4142 21.5858 27.75 22 27.75H23C25.6234 27.75 27.75 25.6234 27.75 23V22Z" fill="#0F0F0F"/>
<path d="M9.96969 9.96966C10.1833 9.75601 10.5043 9.69143 10.784 9.80583L21.784 14.3058C22.0621 14.4196 22.2454 14.6883 22.2499 14.9888C22.2544 15.2892 22.0792 15.5633 21.8046 15.6854L18.3025 17.2418L21.5303 20.4697C21.8232 20.7626 21.8232 21.2374 21.5303 21.5303C21.2374 21.8232 20.7626 21.8232 20.4697 21.5303L17.2419 18.3025L15.6854 21.8046C15.5634 22.0792 15.2892 22.2544 14.9888 22.2499C14.6884 22.2454 14.4196 22.0621 14.3059 21.784L9.80586 10.784C9.69146 10.5043 9.75604 10.1833 9.96969 9.96966ZM19.5891 15.0286L11.8714 11.8713L15.0286 19.589L16.3074 16.7117C16.344 16.6237 16.3981 16.5413 16.4697 16.4697C16.5411 16.3983 16.6233 16.3442 16.7111 16.3077L19.5891 15.0286Z" fill="#0F0F0F"/>
</svg>
