<svg width="32" height="32" viewBox="0 0 32 32" fill="none" xmlns="http://www.w3.org/2000/svg">
<path d="M5.5 9C5.5 7.067 7.067 5.5 9 5.5H10C10.2761 5.5 10.5 5.27614 10.5 5C10.5 4.72386 10.2761 4.5 10 4.5H9C6.51472 4.5 4.5 6.51472 4.5 9V10C4.5 10.2761 4.72386 10.5 5 10.5C5.27614 10.5 5.5 10.2761 5.5 10V9Z" fill="#0F0F0F"/>
<path d="M22 4.5C21.7239 4.5 21.5 4.72386 21.5 5C21.5 5.27614 21.7239 5.5 22 5.5H23C24.933 5.5 26.5 7.067 26.5 9V10C26.5 10.2761 26.7239 10.5 27 10.5C27.2761 10.5 27.5 10.2761 27.5 10V9C27.5 6.51472 25.4853 4.5 23 4.5H22Z" fill="#0F0F0F"/>
<path d="M5.5 22C5.5 21.7239 5.27614 21.5 5 21.5C4.72386 21.5 4.5 21.7239 4.5 22V23C4.5 25.4853 6.51472 27.5 9 27.5H10C10.2761 27.5 10.5 27.2761 10.5 27C10.5 26.7239 10.2761 26.5 10 26.5H9C7.067 26.5 5.5 24.933 5.5 23V22Z" fill="#0F0F0F"/>
<path d="M27.5 22C27.5 21.7239 27.2761 21.5 27 21.5C26.7239 21.5 26.5 21.7239 26.5 22V23C26.5 24.933 24.933 26.5 23 26.5H22C21.7239 26.5 21.5 26.7239 21.5 27C21.5 27.2761 21.7239 27.5 22 27.5H23C25.4853 27.5 27.5 25.4853 27.5 23V22Z" fill="#0F0F0F"/>
<path d="M10.1465 10.1465C10.2889 10.004 10.5029 9.96097 10.6893 10.0372L21.6893 14.5372C21.8747 14.6131 21.997 14.7923 22 14.9925C22.003 15.1928 21.8861 15.3756 21.7031 15.4569L17.8684 17.1612L21.3536 20.6464C21.5488 20.8417 21.5488 21.1583 21.3536 21.3536C21.1583 21.5488 20.8417 21.5488 20.6464 21.3536L17.1612 17.8684L15.4569 21.7031C15.3756 21.8861 15.1928 22.003 14.9925 22C14.7923 21.997 14.6131 21.8747 14.5372 21.6893L10.0372 10.6893C9.96097 10.5029 10.004 10.2889 10.1465 10.1465ZM20.226 15.0191L11.4142 11.4142L15.0191 20.226L16.5381 16.8082C16.5625 16.7494 16.5986 16.6943 16.6464 16.6464C16.6943 16.5986 16.7494 16.5625 16.8082 16.5381L20.226 15.0191Z" fill="#0F0F0F"/>
</svg>
