<svg width="32" height="32" viewBox="0 0 32 32" fill="none" xmlns="http://www.w3.org/2000/svg">
<path d="M6 9C6 7.34315 7.34315 6 9 6H10C10.5523 6 11 5.55228 11 5C11 4.44772 10.5523 4 10 4H9C6.23858 4 4 6.23858 4 9V10C4 10.5523 4.44772 11 5 11C5.55228 11 6 10.5523 6 10V9Z" fill="#0F0F0F"/>
<path d="M22 4C21.4477 4 21 4.44772 21 5C21 5.55228 21.4477 6 22 6H23C24.6569 6 26 7.34315 26 9V10C26 10.5523 26.4477 11 27 11C27.5523 11 28 10.5523 28 10V9C28 6.23858 25.7614 4 23 4H22Z" fill="#0F0F0F"/>
<path d="M6 22C6 21.4477 5.55228 21 5 21C4.44772 21 4 21.4477 4 22V23C4 25.7614 6.23858 28 9 28H10C10.5523 28 11 27.5523 11 27C11 26.4477 10.5523 26 10 26H9C7.34315 26 6 24.6569 6 23V22Z" fill="#0F0F0F"/>
<path d="M28 22C28 21.4477 27.5523 21 27 21C26.4477 21 26 21.4477 26 22V23C26 24.6569 24.6569 26 23 26H22C21.4477 26 21 26.4477 21 27C21 27.5523 21.4477 28 22 28H23C25.7614 28 28 25.7614 28 23V22Z" fill="#0F0F0F"/>
<path d="M9.79292 9.79289C10.0778 9.50802 10.5058 9.42191 10.8787 9.57445L21.8787 14.0745C22.2495 14.2261 22.4939 14.5845 22.4999 14.985C22.5059 15.3856 22.2723 15.7511 21.9062 15.9138L18.7367 17.3225L21.7071 20.2929C22.0976 20.6834 22.0976 21.3166 21.7071 21.7071C21.3166 22.0976 20.6834 22.0976 20.2929 21.7071L17.3225 18.7367L15.9138 21.9061C15.7511 22.2722 15.3856 22.5059 14.9851 22.4999C14.5845 22.4939 14.2262 22.2494 14.0745 21.8786L9.57448 10.8786C9.42194 10.5058 9.50805 10.0778 9.79292 9.79289ZM18.9521 15.0381L12.3285 12.3284L15.0381 18.9521L16.0765 16.6158C16.1252 16.4984 16.1974 16.3884 16.2929 16.2929C16.3882 16.1976 16.498 16.1255 16.6152 16.0767L18.9521 15.0381Z" fill="#0F0F0F"/>
</svg>
