<svg width="32" height="32" viewBox="0 0 32 32" fill="none" xmlns="http://www.w3.org/2000/svg">
<path d="M15.9873 6.46973C14.8447 6.46973 13.7402 6.64746 12.7119 7.00293L12.0391 5.39062C13.2705 4.95898 14.6162 4.71777 15.9873 4.71777C17.3584 4.71777 18.6787 4.95898 19.9102 5.39062L19.2627 7.00293C18.2217 6.66016 17.1299 6.46973 15.9873 6.46973ZM25.2549 12.1826C24.2646 10.1768 22.627 8.55176 20.6338 7.56152L21.2939 5.96191C23.6934 7.15527 25.6611 9.12305 26.8545 11.5352L25.2549 12.1826ZM11.3281 7.56152C9.33496 8.56445 7.70996 10.1895 6.71973 12.1953L5.12012 11.5352C6.30078 9.12305 8.26855 7.16797 10.668 5.9873L11.3281 7.56152ZM26.3594 16.8418C26.3594 15.6992 26.1816 14.5947 25.8389 13.5664L27.4385 12.9062C27.8574 14.1377 28.0986 15.4707 28.0986 16.8418C28.0986 18.2129 27.8574 19.5459 27.4385 20.7773L25.8389 20.1172C26.1689 19.0889 26.3594 17.9844 26.3594 16.8418ZM5.62793 16.8418C5.62793 17.9844 5.81836 19.0889 6.14844 20.1045L4.54883 20.7646C4.11719 19.5332 3.87598 18.2129 3.87598 16.8418C3.87598 15.4707 4.11719 14.1377 4.53613 12.9062L6.14844 13.5791C5.81836 14.5947 5.62793 15.6992 5.62793 16.8418ZM20.6338 26.1094C22.6396 25.1191 24.2646 23.4941 25.2676 21.4883L26.8418 22.1484C25.6738 24.5479 23.6934 26.5156 21.2939 27.709L20.6338 26.1094ZM6.71973 21.4883C7.70996 23.4814 9.33496 25.1064 11.3281 26.1094L10.6807 27.6963C8.26855 26.5156 6.31348 24.5479 5.13281 22.1484L6.71973 21.4883ZM15.9873 27.2012C17.1299 27.2012 18.2217 27.0234 19.25 26.6934L19.9229 28.293C18.6787 28.7119 17.3584 28.9531 15.9873 28.9531C14.6162 28.9531 13.2832 28.7119 12.0518 28.2803L12.7119 26.6807C13.7402 27.0234 14.8447 27.2012 15.9873 27.2012Z" fill="black"/>
</svg>
