<svg width="32" height="32" viewBox="0 0 32 32" fill="none" xmlns="http://www.w3.org/2000/svg">
<path d="M2 16C2 8.26801 8.26801 2 16 2C23.732 2 30 8.26801 30 16C30 23.732 23.732 30 16 30C8.26801 30 2 23.732 2 16ZM22.2924 20.7071C22.6829 21.0976 23.3161 21.0976 23.7066 20.7071L27.7066 16.7071C28.0971 16.3166 28.0971 15.6834 27.7066 15.2929L23.7066 11.2929C23.3161 10.9024 22.6829 10.9024 22.2924 11.2929C21.9019 11.6834 21.9019 12.3166 22.2924 12.7071L24.5843 14.999L15.9995 14.999C15.4472 14.999 14.9995 15.4467 14.9995 15.999C14.9995 16.5513 15.4472 16.999 15.9995 16.999L24.5863 16.999L22.2924 19.2929C21.9019 19.6834 21.9019 20.3166 22.2924 20.7071Z" fill="#0F0F0F"/>
</svg>
