<svg width="32" height="32" viewBox="0 0 32 32" fill="none" xmlns="http://www.w3.org/2000/svg">
<path d="M12.2812 20H10.6436C9.86608 18.8133 9.4673 17.4184 9.50002 16C9.46689 14.5823 9.86386 13.1877 10.6387 12H12.2901C13.1537 11.9722 13.9725 11.6084 14.572 10.9861C15.1715 10.3638 15.5045 9.53211 15.5001 8.668V5.22847C15.4991 4.3725 15.1586 3.55187 14.5534 2.94662C13.9481 2.34137 13.1274 2.00093 12.2715 2H10.8047C8.25781 2 3.5 6.10644 3.5 16C3.5 25.8936 8.25781 30 10.8047 30H12.2715C13.1274 29.9991 13.9481 29.6586 14.5533 29.0533C15.1586 28.4481 15.4991 27.6274 15.5 26.7715V23.2021C15.4967 22.351 15.1561 21.5359 14.5526 20.9356C13.9492 20.3353 13.1324 19.9988 12.2812 20ZM13.5 26.7715C13.4997 27.0972 13.3702 27.4096 13.1399 27.6399C12.9096 27.8702 12.5972 27.9997 12.2715 28H10.8047C9.29492 28 5.5 24.4307 5.5 16C5.5 7.56934 9.29492 4 10.8047 4H12.2715C12.5972 4.00025 12.9096 4.12977 13.1399 4.3601C13.3702 4.59044 13.4997 4.90277 13.5 5.22851V8.66793C13.5069 9.00257 13.3853 9.32715 13.1603 9.5749C12.9352 9.82265 12.6238 9.97476 12.29 9.99993H10.3369C8.80859 9.99993 7.5 13.2988 7.5 15.9999C7.5 18.9716 8.93457 21.9999 10.3418 21.9999H12.2812C12.6022 21.9981 12.9107 22.1236 13.1392 22.349C13.3677 22.5744 13.4974 22.8812 13.5 23.2021V26.7715Z" fill="#0F0F0F"/>
<path d="M30.207 21.2929L26.207 17.2929C26.0195 17.1053 25.7652 17 25.5 17C25.2348 17 24.9805 17.1053 24.793 17.2929C24.6054 17.4804 24.5001 17.7347 24.5001 17.9999C24.5001 18.2651 24.6055 18.5194 24.793 18.7069L27.0859 20.9999H19.5C19.2348 20.9999 18.9804 21.1053 18.7929 21.2928C18.6054 21.4804 18.5 21.7347 18.5 21.9999C18.5 22.2651 18.6054 22.5195 18.7929 22.707C18.9804 22.8946 19.2348 22.9999 19.5 22.9999H27.0859L24.7929 25.2929C24.6996 25.3857 24.6254 25.4959 24.5748 25.6174C24.5241 25.7388 24.4979 25.8691 24.4977 26.0007C24.4975 26.1323 24.5233 26.2626 24.5735 26.3842C24.6238 26.5058 24.6975 26.6163 24.7906 26.7094C24.8837 26.8024 24.9942 26.8762 25.1158 26.9264C25.2374 26.9767 25.3677 27.0024 25.4993 27.0022C25.6309 27.002 25.7612 26.9758 25.8826 26.9251C26.0041 26.8744 26.1143 26.8003 26.207 26.7069L30.207 22.7069C30.2999 22.6141 30.3736 22.5039 30.4239 22.3826C30.4741 22.2612 30.5 22.1312 30.5 21.9999C30.5 21.8686 30.4741 21.7385 30.4239 21.6172C30.3736 21.4959 30.2999 21.3857 30.207 21.2929Z" fill="#0F0F0F"/>
</svg>
