<svg width="32" height="32" viewBox="0 0 32 32" fill="none" xmlns="http://www.w3.org/2000/svg">
<path d="M19.4113 27.505C17.0156 28.2153 14.4579 28.16 12.0952 27.3469C9.73244 26.5338 7.68251 25.0034 6.2313 22.9692C4.78008 20.9351 4 18.4987 4 16C4 13.5012 4.78008 11.0648 6.2313 9.03069C7.68251 6.99654 9.73244 5.46615 12.0952 4.65306C14.4579 3.83997 17.0156 3.78477 19.4113 4.49509C21.8069 5.2054 23.921 6.64578 25.4587 8.61535C25.7986 9.05068 26.427 9.12806 26.8623 8.78819C27.2977 8.44832 27.375 7.81991 27.0352 7.38458C25.2412 5.08674 22.7748 3.40629 19.9798 2.5776C17.1849 1.7489 14.2009 1.81329 11.4444 2.76191C8.68782 3.71052 6.29624 5.49599 4.60317 7.86914C2.91011 10.2423 2 13.0847 2 16C2 18.9152 2.91011 21.7576 4.60317 24.1308C6.29623 26.5039 8.68782 28.2894 11.4444 29.238C14.2009 30.1866 17.1849 30.2512 19.9798 29.4225C22.7748 28.5938 25.2412 26.9132 27.0352 24.6154C27.375 24.18 27.2977 23.5516 26.8623 23.2117C26.427 22.8719 25.7986 22.9493 25.4587 23.3846C23.921 25.3542 21.8069 26.7947 19.4113 27.505Z" fill="#0F0F0F"/>
<path d="M24.292 20.7071C23.9015 20.3166 23.9015 19.6834 24.292 19.2929L26.5857 16.9992L15.9996 17C15.4473 17 14.9996 16.5524 14.9995 16.0001C14.9995 15.4478 15.4471 15 15.9994 15L26.5841 14.9992L24.292 12.7071C23.9015 12.3166 23.9015 11.6834 24.292 11.2929C24.6826 10.9024 25.3157 10.9024 25.7063 11.2929L29.7063 15.2929C30.0968 15.6834 30.0968 16.3166 29.7063 16.7071L25.7063 20.7071C25.3157 21.0976 24.6826 21.0976 24.292 20.7071Z" fill="#0F0F0F"/>
</svg>
