<svg width="32" height="32" viewBox="0 0 32 32" fill="none" xmlns="http://www.w3.org/2000/svg">
<path d="M14.7812 29.5371C13.9053 29.5371 13.2451 29.0293 13.042 28.166L12.5088 25.8809L12.0137 25.7031L10.0205 26.9346C9.28418 27.4043 8.44629 27.3027 7.82422 26.6807L6.13574 24.9922C5.51367 24.3701 5.39941 23.5322 5.86914 22.7959L7.11328 20.8154L6.93555 20.333L4.66309 19.7998C3.8125 19.5967 3.2793 18.9365 3.2793 18.0605V15.6738C3.2793 14.8105 3.7998 14.1504 4.66309 13.9473L6.92285 13.3887L7.11328 12.9062L5.86914 10.9258C5.38672 10.1768 5.50098 9.35156 6.12305 8.7041L7.81152 7.02832C8.4209 6.40625 9.25879 6.30469 10.0078 6.77441L11.9883 7.99316L12.5088 7.80273L13.042 5.51758C13.2451 4.6543 13.9053 4.14648 14.7812 4.14648H17.2061C18.082 4.14648 18.7295 4.6543 18.9453 5.51758L19.4658 7.80273L19.9863 7.99316L21.9668 6.77441C22.7158 6.30469 23.5537 6.40625 24.1631 7.02832L25.8516 8.7041C26.4736 9.35156 26.5879 10.1768 26.1182 10.9258L24.874 12.9062L25.0645 13.3887L27.3242 13.9473C28.1875 14.1504 28.708 14.8105 28.708 15.6738V18.0605C28.708 18.9365 28.1748 19.5967 27.3242 19.7998L25.0391 20.333L24.8613 20.8154L26.1055 22.7959C26.5752 23.5322 26.4736 24.3701 25.8389 24.9922L24.1631 26.6807C23.541 27.3027 22.7031 27.4043 21.9541 26.9346L19.9609 25.7031L19.4658 25.8809L18.9453 28.166C18.7295 29.0293 18.082 29.5371 17.2061 29.5371H14.7812ZM14.9463 27.9375H17.0283C17.2949 27.9375 17.4219 27.8232 17.4727 27.582L18.1709 24.6367C18.8691 24.459 19.5039 24.1924 19.999 23.9004L22.5762 25.5C22.7666 25.627 22.957 25.6016 23.1475 25.4238L24.5947 23.9766C24.7725 23.7988 24.7852 23.6211 24.6455 23.418L23.0586 20.8408C23.3252 20.3584 23.6172 19.7109 23.7949 19.0254L26.7402 18.3271C26.9814 18.2891 27.0957 18.1494 27.0957 17.8955V15.8389C27.0957 15.5723 26.9814 15.4453 26.7402 15.3945L23.8076 14.6963C23.6172 13.9727 23.2998 13.3125 23.084 12.8555L24.6582 10.3037C24.7979 10.0752 24.7852 9.89746 24.6074 9.71973L23.1602 8.29785C22.9697 8.10742 22.8047 8.08203 22.5762 8.22168L20.0117 9.7959C19.5039 9.5293 18.8818 9.2373 18.1709 9.05957L17.4727 6.10156C17.4219 5.86035 17.2949 5.74609 17.0283 5.74609H14.9463C14.6924 5.74609 14.5654 5.87305 14.5146 6.10156L13.8164 9.04688C13.1436 9.2373 12.458 9.5166 11.9502 9.7832L9.39844 8.22168C9.18262 8.08203 9.00488 8.10742 8.81445 8.29785L7.36719 9.71973C7.18945 9.89746 7.17676 10.0752 7.31641 10.3037L8.90332 12.8555C8.6875 13.3125 8.35742 13.9727 8.17969 14.6963L5.23438 15.3945C4.99316 15.4453 4.8916 15.5723 4.8916 15.8389V17.8955C4.8916 18.1494 5.00586 18.2891 5.23438 18.3271L8.19238 19.0254C8.37012 19.7109 8.66211 20.3584 8.91602 20.8408L7.3291 23.418C7.20215 23.6211 7.21484 23.7988 7.39258 23.9766L8.82715 25.4238C9.01758 25.6016 9.20801 25.627 9.39844 25.5L11.9756 23.9004C12.4707 24.1924 13.1309 24.459 13.8164 24.6367L14.5146 27.582C14.5654 27.8232 14.6924 27.9375 14.9463 27.9375ZM16 21.4248C13.4863 21.4248 11.4043 19.3555 11.4043 16.8418C11.4043 14.3408 13.4863 12.2715 16 12.2715C18.5137 12.2715 20.5703 14.3408 20.5703 16.8418C20.5703 19.3682 18.5137 21.4248 16 21.4248ZM16 19.8252C17.5996 19.8252 18.958 18.4668 18.958 16.8418C18.958 15.2295 17.5996 13.8838 16 13.8838C14.375 13.8838 13.0166 15.2295 13.0166 16.8418C13.0166 18.4795 14.3623 19.8252 16 19.8252Z" fill="black"/>
</svg>
