<svg width="32" height="32" viewBox="0 0 32 32" fill="none" xmlns="http://www.w3.org/2000/svg">
<path d="M15.9995 10.0004C14.8128 10.0004 13.6528 10.3523 12.6661 11.0116C11.6794 11.6709 10.9104 12.6079 10.4562 13.7043C10.0021 14.8006 9.88329 16.007 10.1148 17.1709C10.3463 18.3348 10.9178 19.4039 11.7569 20.243C12.596 21.0821 13.6651 21.6536 14.829 21.8851C15.9929 22.1166 17.1993 21.9978 18.2956 21.5437C19.392 21.0895 20.329 20.3205 20.9883 19.3338C21.6476 18.3471 21.9995 17.1871 21.9995 16.0004C21.9978 14.4096 21.3651 12.8845 20.2402 11.7597C19.1154 10.6348 17.5903 10.0021 15.9995 10.0004ZM15.9995 20.0004C15.2084 20.0004 14.435 19.7658 13.7772 19.3263C13.1194 18.8867 12.6067 18.262 12.304 17.5311C12.0012 16.8002 11.922 15.9959 12.0764 15.22C12.2307 14.4441 12.6117 13.7314 13.1711 13.172C13.7305 12.6125 14.4432 12.2316 15.2192 12.0772C15.9951 11.9229 16.7993 12.0021 17.5302 12.3049C18.2612 12.6076 18.8859 13.1203 19.3254 13.7781C19.7649 14.4359 19.9995 15.2093 19.9995 16.0004C19.9985 17.0609 19.5767 18.0777 18.8268 18.8277C18.0769 19.5776 17.0601 19.9993 15.9995 20.0004Z" fill="#0F0F0F"/>
<path d="M27.9995 13.0004H25.6714L25.0044 11.3676L26.6655 9.73671C26.8531 9.55285 27.0026 9.33383 27.1054 9.09218C27.2083 8.85052 27.2626 8.59096 27.2651 8.32833C27.2677 8.0657 27.2185 7.80513 27.1203 7.56153C27.0221 7.31793 26.8769 7.09606 26.6929 6.90859L25.2915 5.47988C24.9192 5.10274 24.4128 4.88826 23.8829 4.88332C23.353 4.87838 22.8426 5.08337 22.4634 5.45351L20.7974 7.08925L18.9995 6.33534V4.00034C18.9988 3.47012 18.7879 2.96181 18.413 2.58689C18.038 2.21197 17.5297 2.00103 16.9995 2.00034H14.9995C14.4693 2.00103 13.961 2.21197 13.5861 2.58689C13.2111 2.96181 13.0002 3.47012 12.9995 4.00034V6.33144L11.2847 7.04238L9.63623 5.39394C9.26084 5.01921 8.7521 4.80873 8.22168 4.80873C7.69126 4.80873 7.18252 5.01921 6.80713 5.39394L5.39306 6.808C5.01834 7.1832 4.80786 7.69179 4.80786 8.22207C4.80786 8.75234 5.01834 9.26094 5.39306 9.63613L7.04248 11.2846L6.33154 13.0004H3.99951C3.46929 13.0011 2.96098 13.212 2.58606 13.5869C2.21113 13.9619 2.0002 14.4702 1.99951 15.0004V17.0004C2.0002 17.5306 2.21113 18.0389 2.58606 18.4138C2.96098 18.7888 3.46929 18.9997 3.99951 19.0004H6.33151L7.04245 20.7152L5.39306 22.3637C5.01833 22.7391 4.80786 23.2478 4.80786 23.7782C4.80786 24.3086 5.01833 24.8174 5.39306 25.1928L6.80713 26.6068C7.18275 26.9811 7.69141 27.1913 8.22168 27.1913C8.75196 27.1913 9.26061 26.9811 9.63623 26.6068L11.2847 24.9574L12.9995 25.6684V28.0004C13.0002 28.5306 13.2111 29.0389 13.5861 29.4138C13.961 29.7887 14.4693 29.9997 14.9995 30.0004H16.9995C17.5297 29.9997 18.038 29.7887 18.413 29.4138C18.7879 29.0389 18.9988 28.5306 18.9995 28.0004L19.0005 25.6684L20.7154 24.9574L22.3638 26.6068C22.7392 26.9811 23.2477 27.1913 23.7779 27.1913C24.308 27.1913 24.8165 26.9811 25.1919 26.6068L26.6079 25.1918C26.9817 24.816 27.1914 24.3074 27.191 23.7774C27.1906 23.2473 26.9803 22.739 26.6059 22.3637L24.9575 20.7153L25.6684 19.0004H27.9995C28.5297 18.9997 29.038 18.7888 29.413 18.4139C29.7879 18.039 29.9988 17.5306 29.9995 17.0004V15.0004C29.9988 14.4702 29.7879 13.9619 29.413 13.5869C29.0381 13.212 28.5297 13.0011 27.9995 13.0004ZM27.9995 17.0004H25.6685C25.2727 16.9994 24.8856 17.1162 24.5566 17.3361C24.2275 17.5559 23.9714 17.8688 23.8208 18.2348L23.1089 19.9506C22.9575 20.316 22.918 20.7181 22.9954 21.1059C23.0727 21.4938 23.2635 21.85 23.5435 22.1293L25.1929 23.7787L23.7779 25.1928L22.1295 23.5434C21.8498 23.2635 21.4935 23.0729 21.1054 22.9957C20.7174 22.9185 20.3152 22.9582 19.9498 23.1098L18.2359 23.8198C17.8696 23.9703 17.5564 24.2265 17.3362 24.5558C17.116 24.885 16.9988 25.2723 16.9996 25.6684V28.0004H14.9996V25.6684C15.0006 25.2727 14.8837 24.8856 14.6639 24.5565C14.4441 24.2274 14.1312 23.9713 13.7652 23.8207L12.0494 23.1088C11.684 22.9573 11.2819 22.9177 10.894 22.995C10.5061 23.0724 10.1499 23.2633 9.87068 23.5434L8.22119 25.1928L6.80713 23.7778L8.45654 22.1293C8.73665 21.8499 8.92742 21.4935 9.00461 21.1054C9.08181 20.7173 9.04197 20.315 8.89013 19.9496L8.18013 18.2358C8.02946 17.8696 7.77319 17.5566 7.44396 17.3365C7.11474 17.1165 6.72747 16.9995 6.3315 17.0004H3.99951V15.0004H6.33151C6.72737 15.0013 7.11452 14.8843 7.44359 14.6642C7.77266 14.4442 8.02875 14.1312 8.1792 13.765L8.89013 12.0492C9.04234 11.684 9.08238 11.2818 9.00516 10.8938C8.92795 10.5058 8.73696 10.1496 8.45654 9.8705L6.80713 8.22206L8.22216 6.808L9.8706 8.45644C10.1502 8.73643 10.5065 8.9271 10.8946 9.00429C11.2826 9.08147 11.6849 9.0417 12.0503 8.89L13.7642 8.18C14.1303 8.02934 14.4434 7.77307 14.6634 7.44386C14.8834 7.11465 15.0004 6.7274 14.9995 6.33144V4.00038H16.9995V6.33538C16.999 6.72948 17.1153 7.1149 17.3336 7.44302C17.5518 7.77114 17.8624 8.02728 18.2261 8.17913L20.022 8.93304C20.3853 9.08594 20.7856 9.12802 21.1728 9.054C21.5599 8.97999 21.9165 8.79317 22.1978 8.51704L23.8648 6.8813L25.2651 8.309L23.604 9.93984C23.3196 10.2173 23.1247 10.5735 23.0443 10.9626C22.9639 11.3517 23.0017 11.756 23.1528 12.1234L23.8208 13.7582C23.9705 14.126 24.2266 14.4407 24.5563 14.6621C24.886 14.8834 25.2743 15.0012 25.6714 15.0004H27.9995V17.0004Z" fill="#0F0F0F"/>
</svg>
