<svg width="32" height="32" viewBox="0 0 32 32" fill="none" xmlns="http://www.w3.org/2000/svg">
<path d="M15.9995 10.5004C14.9117 10.5004 13.8483 10.8229 12.9439 11.4273C12.0394 12.0316 11.3345 12.8906 10.9182 13.8956C10.5019 14.9006 10.393 16.0065 10.6052 17.0734C10.8174 18.1403 11.3412 19.1203 12.1104 19.8895C12.8796 20.6587 13.8596 21.1825 14.9265 21.3947C15.9934 21.6069 17.0993 21.498 18.1043 21.0817C19.1093 20.6654 19.9682 19.9605 20.5726 19.056C21.1769 18.1515 21.4995 17.0882 21.4995 16.0004C21.4977 14.5422 20.9177 13.1444 19.8866 12.1133C18.8555 11.0822 17.4576 10.5022 15.9995 10.5004ZM15.9995 20.5004C15.1095 20.5004 14.2395 20.2365 13.4994 19.742C12.7594 19.2475 12.1826 18.5447 11.8421 17.7225C11.5015 16.9002 11.4123 15.9954 11.586 15.1225C11.7596 14.2496 12.1882 13.4477 12.8175 12.8184C13.4469 12.1891 14.2487 11.7605 15.1216 11.5868C15.9945 11.4132 16.8993 11.5023 17.7216 11.8429C18.5439 12.1835 19.2467 12.7603 19.7411 13.5003C20.2356 14.2403 20.4995 15.1104 20.4995 16.0004C20.4982 17.1935 20.0237 18.3373 19.1801 19.1809C18.3364 20.0246 17.1926 20.4991 15.9995 20.5004Z" fill="#0F0F0F"/>
<path d="M27.9995 13.5004H25.6714C25.5719 13.5006 25.4747 13.4711 25.3922 13.4156C25.3097 13.36 25.2457 13.2811 25.2085 13.1889L24.5415 11.557C24.5036 11.465 24.4941 11.3637 24.5143 11.2662C24.5345 11.1687 24.5834 11.0796 24.6548 11.0101L26.3149 9.38027C26.5991 9.1017 26.7611 8.72164 26.7651 8.32368C26.7691 7.92573 26.6149 7.54247 26.3364 7.2582L24.9351 5.83046C24.6561 5.5467 24.2759 5.38526 23.8781 5.3816C23.4802 5.37794 23.0971 5.53235 22.813 5.81093L21.147 7.44667C21.0767 7.51577 20.9875 7.56248 20.8907 7.58091C20.7939 7.59933 20.6938 7.58864 20.603 7.55019L18.8071 6.79628C18.7161 6.75834 18.6383 6.69434 18.5836 6.61233C18.5289 6.53031 18.4996 6.43394 18.4995 6.33534V4.00034C18.4991 3.60265 18.3409 3.22137 18.0597 2.94016C17.7785 2.65895 17.3972 2.50077 16.9995 2.50034H14.9995C14.6018 2.50077 14.2205 2.65895 13.9393 2.94016C13.6581 3.22137 13.4999 3.60265 13.4995 4.00034V6.33144C13.4998 6.43039 13.4706 6.52718 13.4156 6.60945C13.3607 6.69173 13.2824 6.75575 13.1909 6.79335L11.477 7.50429C11.3855 7.54203 11.2848 7.55187 11.1877 7.53258C11.0906 7.5133 11.0013 7.46574 10.9311 7.39589L9.28271 5.74745C9.00129 5.46607 8.61963 5.308 8.22168 5.308C7.82372 5.308 7.44206 5.46607 7.16064 5.74745L5.74658 7.16152C5.46565 7.44297 5.30786 7.8244 5.30786 8.22206C5.30786 8.61973 5.46565 9.00116 5.74658 9.28261L7.39599 10.931C7.46599 11.0009 7.51366 11.09 7.53296 11.187C7.55226 11.2841 7.54232 11.3846 7.50439 11.476L6.79345 13.1918C6.75574 13.2832 6.69169 13.3614 6.60944 13.4164C6.52719 13.4713 6.43046 13.5005 6.33154 13.5004H3.99951C3.60182 13.5008 3.22054 13.659 2.93933 13.9402C2.65812 14.2214 2.49995 14.6027 2.49951 15.0004V17.0004C2.49995 17.3981 2.65812 17.7793 2.93933 18.0606C3.22054 18.3418 3.60182 18.4999 3.99951 18.5004H6.33151C6.43046 18.5001 6.52725 18.5293 6.60952 18.5842C6.6918 18.6392 6.75582 18.7175 6.79342 18.809L7.50436 20.5228C7.54233 20.6143 7.5523 20.7151 7.53301 20.8122C7.51371 20.9094 7.46602 20.9987 7.39596 21.0687L5.74658 22.7172C5.46564 22.9988 5.30786 23.3804 5.30786 23.7782C5.30786 24.176 5.46564 24.5576 5.74658 24.8393L7.16064 26.2533C7.44206 26.5347 7.82372 26.6928 8.22168 26.6928C8.61963 26.6928 9.00129 26.5347 9.28271 26.2533L10.9312 24.6039C11.0014 24.5345 11.0905 24.4873 11.1874 24.468C11.2842 24.4487 11.3846 24.4583 11.4761 24.4955L13.1919 25.2064C13.2832 25.2443 13.3612 25.3084 13.416 25.3906C13.4707 25.4729 13.4998 25.5695 13.4995 25.6684V28.0004C13.4999 28.398 13.6581 28.7793 13.9393 29.0605C14.2205 29.3417 14.6018 29.4999 14.9995 29.5004H16.9995C17.3972 29.4999 17.7785 29.3417 18.0597 29.0605C18.3409 28.7793 18.4991 28.398 18.4995 28.0004V25.6684C18.4993 25.5693 18.5287 25.4725 18.5838 25.3902C18.639 25.3079 18.7174 25.2439 18.8091 25.2064L20.5239 24.4955C20.6153 24.458 20.7158 24.4482 20.8127 24.4675C20.9097 24.4868 20.9987 24.5342 21.0688 24.6039L22.7173 26.2533C22.9987 26.5342 23.3801 26.692 23.7778 26.692C24.1755 26.692 24.5569 26.5342 24.8384 26.2533L26.2534 24.8393C26.534 24.5574 26.6914 24.1757 26.6912 23.778C26.691 23.3803 26.5332 22.9988 26.2524 22.7172L24.6039 21.0687C24.5339 20.9989 24.4863 20.9098 24.467 20.8127C24.4477 20.7157 24.4576 20.6152 24.4955 20.5238L25.2065 18.808C25.2443 18.7167 25.3084 18.6387 25.3906 18.5839C25.4729 18.5292 25.5696 18.5001 25.6684 18.5004H27.9995C28.3972 18.4999 28.7785 18.3418 29.0597 18.0606C29.3409 17.7793 29.4991 17.3981 29.4995 17.0004V15.0004C29.4991 14.6027 29.3409 14.2214 29.0597 13.9402C28.7785 13.659 28.3972 13.5008 27.9995 13.5004ZM28.4995 17.0004C28.4992 17.1329 28.4465 17.2599 28.3528 17.3536C28.2591 17.4474 28.132 17.5001 27.9995 17.5004H25.6685C25.3716 17.4995 25.0812 17.5871 24.8344 17.752C24.5876 17.9169 24.3955 18.1516 24.2827 18.4262L23.5718 20.142C23.458 20.4159 23.4281 20.7174 23.486 21.0083C23.5439 21.2992 23.687 21.5664 23.897 21.7758L25.5454 23.4242C25.6391 23.5181 25.6918 23.6453 25.692 23.778C25.6922 23.9107 25.6399 24.0381 25.5464 24.1322L24.1314 25.5463C24.085 25.5927 24.0299 25.6296 23.9692 25.6547C23.9086 25.6798 23.8436 25.6928 23.7779 25.6928C23.7123 25.6928 23.6472 25.6798 23.5866 25.6547C23.5259 25.6296 23.4708 25.5927 23.4244 25.5463L21.7759 23.8969C21.5666 23.6863 21.2993 23.543 21.0081 23.4851C20.7169 23.4271 20.4151 23.4573 20.1411 23.5717L18.4273 24.2826C18.1524 24.3953 17.9174 24.5872 17.7522 24.8341C17.5869 25.0809 17.499 25.3713 17.4995 25.6684V28.0004C17.4993 28.1329 17.4465 28.2599 17.3528 28.3536C17.2591 28.4473 17.1321 28.5001 16.9995 28.5004H14.9995C14.867 28.5001 14.74 28.4473 14.6463 28.3536C14.5526 28.2599 14.4998 28.1329 14.4995 28.0004V25.6684C14.5004 25.3715 14.4129 25.0811 14.248 24.8343C14.0831 24.5875 13.8483 24.3954 13.5738 24.2826L11.8579 23.5717C11.584 23.4581 11.2825 23.4283 10.9916 23.4862C10.7008 23.5441 10.4337 23.687 10.2241 23.8969L8.57568 25.5463C8.48175 25.6401 8.35443 25.6928 8.22168 25.6928C8.08894 25.6928 7.96162 25.6401 7.86768 25.5463L6.45361 24.1322C6.35982 24.0383 6.30713 23.911 6.30713 23.7782C6.30713 23.6455 6.35982 23.5182 6.45361 23.4242L8.10302 21.7758C8.3131 21.5662 8.45616 21.2989 8.51406 21.0078C8.57196 20.7168 8.54208 20.4151 8.42822 20.141L7.71728 18.4272C7.6047 18.1523 7.41271 17.9174 7.16585 17.7523C6.919 17.5872 6.62851 17.4995 6.33154 17.5004H3.99951C3.86698 17.5001 3.73996 17.4474 3.64625 17.3537C3.55254 17.2599 3.49978 17.1329 3.49951 17.0004V15.0004C3.49978 14.8679 3.55254 14.7408 3.64625 14.6471C3.73996 14.5534 3.86698 14.5007 3.99951 14.5004H6.33151C6.62841 14.501 6.91875 14.4131 7.16554 14.2481C7.41233 14.083 7.60439 13.8482 7.71725 13.5736L8.42819 11.8588C8.5422 11.5848 8.57215 11.283 8.51425 10.9919C8.45634 10.7009 8.31319 10.4336 8.10299 10.224L6.45361 8.57558C6.40718 8.52916 6.37034 8.47406 6.34521 8.4134C6.32008 8.35275 6.30714 8.28773 6.30714 8.22208C6.30714 8.15643 6.32008 8.09141 6.34521 8.03076C6.37034 7.9701 6.40718 7.915 6.45361 7.86858L7.86767 6.45448C7.96161 6.36068 8.08893 6.308 8.22167 6.308C8.35442 6.308 8.48174 6.36068 8.57567 6.45448L10.2241 8.10292C10.4336 8.31316 10.7009 8.45634 10.992 8.51424C11.2831 8.57215 11.5849 8.54217 11.8589 8.42812L13.5727 7.71718C13.8475 7.6046 14.0825 7.41261 14.2476 7.16575C14.4127 6.9189 14.5004 6.62841 14.4995 6.33144V4.00038C14.4998 3.86785 14.5525 3.74083 14.6462 3.64712C14.74 3.55341 14.867 3.50064 14.9995 3.50038H16.9995C17.132 3.50064 17.2591 3.55341 17.3528 3.64712C17.4465 3.74083 17.4992 3.86785 17.4995 4.00038V6.33538C17.4992 6.63093 17.5865 6.91995 17.7502 7.16603C17.9139 7.4121 18.1467 7.60423 18.4194 7.7182L20.2153 8.4721C20.4878 8.58665 20.788 8.61819 21.0783 8.56277C21.3686 8.50735 21.6361 8.36743 21.8472 8.16058L21.8482 8.15958L23.5132 6.52482C23.608 6.43192 23.7358 6.38047 23.8686 6.38175C24.0013 6.38303 24.1281 6.43694 24.2212 6.53165L25.6225 7.95939C25.6684 8.00632 25.7047 8.06184 25.7291 8.12277C25.7536 8.1837 25.7658 8.24886 25.7651 8.31451C25.7643 8.38016 25.7507 8.44503 25.7249 8.50541C25.6991 8.56578 25.6616 8.62049 25.6147 8.66639L23.9546 10.2963C23.741 10.5044 23.5946 10.7717 23.5342 11.0637C23.4738 11.3557 23.5022 11.6592 23.6157 11.9349L24.2827 13.5678C24.395 13.8438 24.5871 14.0801 24.8345 14.2462C25.082 14.4124 25.3733 14.5009 25.6714 14.5004H27.9995C28.132 14.5006 28.2591 14.5534 28.3528 14.6471C28.4465 14.7408 28.4992 14.8678 28.4995 15.0004V17.0004Z" fill="#0F0F0F"/>
</svg>
