<svg width="32" height="32" viewBox="0 0 32 32" fill="none" xmlns="http://www.w3.org/2000/svg">
<path d="M22.8509 20.5135C23.5297 20.179 24.276 20.0037 25.0328 20.0011C26.0217 20.0011 26.9885 20.2943 27.8107 20.8437C28.6329 21.3931 29.2738 22.174 29.6522 23.0877C30.0307 24.0013 30.1297 25.0066 29.9368 25.9765C29.7438 26.9464 29.2676 27.8373 28.5684 28.5366C27.8691 29.2359 26.9782 29.7121 26.0083 29.905C25.0384 30.0979 24.0331 29.9989 23.1194 29.6205C22.2058 29.242 21.4249 28.6012 20.8755 27.7789C20.3261 26.9567 20.0328 25.99 20.0328 25.0011C20.0387 24.5678 20.1016 24.1372 20.2199 23.7204L10.9101 19.1167C10.2638 19.9275 9.38139 20.5174 8.38505 20.8046C7.38871 21.0918 6.32773 21.0621 5.34899 20.7197C4.37025 20.3773 3.52217 19.7391 2.92216 18.8934C2.32215 18.0477 1.99989 17.0364 2 15.9995C2.00011 14.9626 2.32259 13.9514 2.92278 13.1059C3.52297 12.2603 4.37119 11.6223 5.35 11.2801C6.32882 10.9379 7.38981 10.9085 8.38609 11.1959C9.38236 11.4833 10.2646 12.0733 10.9108 12.8843L20.2234 8.2951C20.1023 7.87385 20.0379 7.43835 20.0319 7.0001C20.0251 5.8253 20.4346 4.68608 21.1878 3.78443C21.9409 2.88278 22.989 2.27698 24.1462 2.07445C25.3035 1.87191 26.495 2.08573 27.5096 2.67799C28.5242 3.27025 29.2963 4.20268 29.689 5.30993C30.0816 6.41718 30.0695 7.62772 29.6547 8.72687C29.2399 9.82602 28.4492 10.7428 27.423 11.3145C26.3967 11.8863 25.2011 12.0762 24.0481 11.8505C22.8952 11.6248 21.8595 10.998 21.1246 10.0815L11.8273 14.6631C12.1002 15.5341 12.1 16.4677 11.8268 17.3385L21.1155 21.9318C21.5785 21.3332 22.1721 20.8481 22.8509 20.5135Z" fill="#0F0F0F"/>
</svg>
