<svg width="32" height="32" viewBox="0 0 32 32" fill="none" xmlns="http://www.w3.org/2000/svg">
<path d="M3 4C3 3.44772 3.44772 3 4 3H7C7.48524 3 7.90046 3.34836 7.98478 3.82621L8.45663 6.5H28C28.3014 6.5 28.5867 6.63591 28.7765 6.86992C28.9664 7.10394 29.0406 7.41111 28.9785 7.70601L26.9785 17.206C26.8811 17.6688 26.4729 18 26 18H10.486L10.839 20L25 20C25.5523 20 26 20.4477 26 21C26 21.5523 25.5523 22 25 22L10.0171 22C9.7709 22.0045 9.53816 21.9176 9.35756 21.7664C9.24516 21.6722 9.15295 21.5532 9.09025 21.4157C9.05316 21.3347 9.02658 21.2479 9.01225 21.157L6.16102 5H4C3.44772 5 3 4.55228 3 4ZM10.1331 16H25.1886L26.7676 8.5H8.80957L10.1331 16Z" fill="#0F0F0F"/>
<path d="M7 26C7 24.3431 8.34315 23 10 23C11.6569 23 13 24.3431 13 26C13 27.6569 11.6569 29 10 29C8.34315 29 7 27.6569 7 26ZM10 25C9.44772 25 9 25.4477 9 26C9 26.5523 9.44772 27 10 27C10.5523 27 11 26.5523 11 26C11 25.4477 10.5523 25 10 25Z" fill="#0F0F0F"/>
<path d="M25 23C23.3431 23 22 24.3431 22 26C22 27.6569 23.3431 29 25 29C26.6569 29 28 27.6569 28 26C28 24.3431 26.6569 23 25 23ZM24 26C24 25.4477 24.4477 25 25 25C25.5523 25 26 25.4477 26 26C26 26.5523 25.5523 27 25 27C24.4477 27 24 26.5523 24 26Z" fill="#0F0F0F"/>
</svg>
