<svg width="32" height="32" viewBox="0 0 32 32" fill="none" xmlns="http://www.w3.org/2000/svg">
<path d="M16.0003 2.00011C13.8717 1.9945 11.7701 2.47687 9.85691 3.41016C7.94377 4.34346 6.27 5.70284 4.96417 7.3839C4.88307 7.48738 4.82317 7.60582 4.78788 7.73247C4.75259 7.85911 4.7426 7.99147 4.7585 8.12197C4.7744 8.25248 4.81587 8.37857 4.88053 8.49304C4.94519 8.60751 5.03178 8.70811 5.13535 8.78909C5.23891 8.87007 5.35743 8.92984 5.48411 8.96499C5.61079 9.00013 5.74316 9.00997 5.87365 8.99392C6.00414 8.97788 6.13018 8.93627 6.24458 8.87148C6.35897 8.80669 6.45948 8.71999 6.54034 8.61633C8.07791 6.64655 10.192 5.2059 12.5877 4.4954C14.9834 3.78491 17.5412 3.84001 19.904 4.65303C22.2669 5.46606 24.317 6.99643 25.7683 9.03061C27.2196 11.0648 27.9997 13.5013 27.9997 16.0001C27.9997 18.4989 27.2196 20.9354 25.7683 22.9696C24.317 25.0038 22.2669 26.5342 19.904 27.3472C17.5412 28.1602 14.9834 28.2153 12.5877 27.5048C10.192 26.7943 8.07791 25.3537 6.54034 23.3839C6.45948 23.2802 6.35897 23.1935 6.24458 23.1287C6.13018 23.064 6.00414 23.0224 5.87365 23.0063C5.74316 22.9903 5.61079 23.0001 5.48411 23.0352C5.35743 23.0704 5.23891 23.1302 5.13535 23.2111C5.03178 23.2921 4.94519 23.3927 4.88053 23.5072C4.81587 23.6217 4.7744 23.7478 4.7585 23.8783C4.7426 24.0088 4.75259 24.1411 4.78788 24.2678C4.82317 24.3944 4.88307 24.5129 4.96417 24.6163C6.42569 26.4884 8.33941 27.9578 10.5253 28.8865C12.7112 29.8151 15.0974 30.1725 17.4594 29.9249C19.8215 29.6773 22.0817 28.8329 24.0275 27.4711C25.9733 26.1093 27.5406 24.2749 28.5822 22.1405C29.6237 20.0061 30.1052 17.6418 29.9812 15.2701C29.8573 12.8983 29.1321 10.5971 27.8738 8.58287C26.6155 6.56863 24.8654 4.90759 22.7883 3.75602C20.7112 2.60445 18.3753 2.0002 16.0003 2.00011Z" fill="#0F0F0F"/>
<path d="M5.0003 17.0002L13.5848 17.0009L11.2933 19.2931C11.2004 19.3859 11.1268 19.4962 11.0765 19.6175C11.0263 19.7388 11.0004 19.8688 11.0004 20.0001C11.0004 20.1314 11.0263 20.2614 11.0765 20.3828C11.1268 20.5041 11.2004 20.6143 11.2933 20.7071C11.3861 20.8 11.4963 20.8736 11.6177 20.9239C11.739 20.9741 11.869 21 12.0003 21C12.1316 21 12.2616 20.9741 12.3829 20.9239C12.5043 20.8736 12.6145 20.8 12.7073 20.7071L16.7063 16.7072C16.7992 16.6143 16.8729 16.5041 16.9232 16.3828C16.9734 16.2615 16.9993 16.1314 16.9993 16.0001C16.9993 15.8688 16.9734 15.7388 16.9232 15.6174C16.8729 15.4961 16.7992 15.3859 16.7063 15.2931L12.7073 11.2931C12.6145 11.2002 12.5043 11.1266 12.3829 11.0763C12.2616 11.0261 12.1316 11.0002 12.0003 11.0002C11.869 11.0002 11.739 11.0261 11.6177 11.0763C11.4963 11.1266 11.3861 11.2002 11.2933 11.2931C11.2004 11.3859 11.1268 11.4962 11.0765 11.6175C11.0263 11.7388 11.0004 11.8688 11.0004 12.0001C11.0004 12.1314 11.0263 12.2614 11.0765 12.3828C11.1268 12.5041 11.2004 12.6143 11.2933 12.7071L13.5864 15.0009L5.0003 15.0002V12.0001C5.0003 11.7349 4.89494 11.4805 4.70741 11.293C4.51987 11.1055 4.26552 11.0001 4.0003 11.0001C3.73508 11.0001 3.48073 11.1055 3.29319 11.293C3.10566 11.4805 3.0003 11.7349 3.0003 12.0001V20.0001C3.0003 20.2653 3.10566 20.5197 3.29319 20.7072C3.48073 20.8948 3.73508 21.0001 4.0003 21.0001C4.26552 21.0001 4.51987 20.8948 4.70741 20.7072C4.89494 20.5197 5.0003 20.2653 5.0003 20.0001V17.0002Z" fill="#0F0F0F"/>
</svg>
