<svg width="32" height="32" viewBox="0 0 32 32" fill="none" xmlns="http://www.w3.org/2000/svg">
<path d="M6.99969 21.0001C7.19744 21.0001 7.39074 20.9414 7.55515 20.8315C7.71956 20.7216 7.8477 20.5655 7.92337 20.3828C7.99904 20.2001 8.01884 19.999 7.98027 19.8051C7.94171 19.6111 7.8465 19.433 7.70669 19.2931L5.41455 17.0009L15.9997 17.0001C16.2649 17.0001 16.5193 16.8948 16.7068 16.7072C16.8943 16.5197 16.9997 16.2653 16.9997 16.0001C16.9997 15.7349 16.8943 15.4805 16.7068 15.293C16.5193 15.1055 16.2649 15.0001 15.9997 15.0001L5.413 15.0009L7.70676 12.7072C7.79961 12.6143 7.87326 12.5041 7.92351 12.3828C7.97376 12.2615 7.99962 12.1314 7.99962 12.0001C7.99962 11.8688 7.97376 11.7388 7.92351 11.6175C7.87326 11.4962 7.79961 11.3859 7.70676 11.2931C7.61392 11.2002 7.50369 11.1266 7.38238 11.0763C7.26106 11.0261 7.13104 11.0002 6.99973 11.0002C6.86842 11.0002 6.7384 11.0261 6.61709 11.0763C6.49578 11.1266 6.38555 11.2002 6.2927 11.2931L2.2927 15.2931C2.19982 15.3859 2.12614 15.4961 2.07587 15.6175C2.02561 15.7388 1.99973 15.8688 1.99973 16.0001C1.99973 16.1314 2.02561 16.2615 2.07587 16.3828C2.12614 16.5041 2.19982 16.6143 2.2927 16.7072L6.2927 20.7072C6.38543 20.8002 6.49563 20.8739 6.61696 20.9242C6.73829 20.9745 6.86836 21.0003 6.99969 21.0001Z" fill="#0F0F0F"/>
<path d="M15.9997 2.00011C13.8712 1.9943 11.7696 2.47658 9.8566 3.4099C7.94359 4.34321 6.27003 5.70271 4.96454 7.3839C4.80146 7.59295 4.72804 7.85817 4.7604 8.12132C4.79275 8.38447 4.92824 8.62401 5.1371 8.78732C5.34596 8.95063 5.61111 9.02435 5.87429 8.99229C6.13747 8.96023 6.37716 8.82501 6.54071 8.61633C8.07828 6.64655 10.1924 5.2059 12.5881 4.4954C14.9838 3.78491 17.5415 3.84002 19.9044 4.65304C22.2673 5.46606 24.3174 6.99643 25.7687 9.03061C27.22 11.0648 28.0001 13.5013 28.0001 16.0001C28.0001 18.499 27.22 20.9354 25.7687 22.9696C24.3174 25.0038 22.2673 26.5342 19.9044 27.3472C17.5415 28.1602 14.9838 28.2153 12.5881 27.5048C10.1924 26.7943 8.07828 25.3537 6.54071 23.3839C6.45984 23.2802 6.35934 23.1935 6.24495 23.1287C6.13055 23.064 6.00451 23.0224 5.87402 23.0063C5.74353 22.9903 5.61116 23.0001 5.48448 23.0352C5.3578 23.0704 5.23928 23.1302 5.13572 23.2111C5.03215 23.2921 4.94556 23.3927 4.8809 23.5072C4.81624 23.6217 4.77477 23.7478 4.75887 23.8783C4.74297 24.0088 4.75296 24.1411 4.78825 24.2678C4.82354 24.3944 4.88344 24.5129 4.96454 24.6163C6.42611 26.4882 8.33984 27.9576 10.5257 28.8861C12.7116 29.8146 15.0977 30.1719 17.4597 29.9242C19.8216 29.6765 22.0817 28.832 24.0274 27.4702C25.9731 26.1084 27.5404 24.274 28.5818 22.1396C29.6232 20.0052 30.1046 17.641 29.9806 15.2693C29.8566 12.8977 29.1313 10.5965 27.873 8.58238C26.6146 6.56823 24.8646 4.9073 22.7875 3.75581C20.7105 2.60433 18.3746 2.00015 15.9997 2.00011Z" fill="#0F0F0F"/>
</svg>
