<svg width="32" height="32" viewBox="0 0 32 32" fill="none" xmlns="http://www.w3.org/2000/svg">
<path d="M27.8087 2.53774C27.8693 2.51263 27.9344 2.49972 28 2.49976C28.0657 2.49972 28.1308 2.51263 28.1914 2.53774C28.2521 2.56286 28.3073 2.59969 28.3537 2.64613C28.4001 2.69257 28.437 2.74771 28.4621 2.80839C28.4872 2.86907 28.5001 2.93411 28.5 2.99979V5.99979C28.5001 6.06546 28.4872 6.13049 28.4621 6.19117C28.437 6.25185 28.4001 6.30699 28.3537 6.35342C28.3072 6.39986 28.2521 6.43669 28.1914 6.4618C28.1308 6.48692 28.0657 6.49982 28 6.49979H25C24.8674 6.49979 24.7403 6.44711 24.6465 6.35334C24.5527 6.25957 24.5 6.13239 24.5 5.99979C24.5 5.86718 24.5527 5.74 24.6465 5.64623C24.7403 5.55246 24.8674 5.49979 25 5.49979H26.7385C26.5764 5.25494 26.3902 5.02692 26.1827 4.81913C25.5022 4.13843 24.6216 3.69369 23.6699 3.55015C22.7182 3.4066 21.7455 3.5718 20.8946 4.02151C20.0437 4.47123 19.3592 5.18179 18.9417 6.04896C18.5242 6.91614 18.3955 7.8943 18.5746 8.83995C18.7537 9.7856 19.2311 10.649 19.9368 11.3035C20.6425 11.9579 21.5393 12.369 22.4958 12.4765C23.4522 12.5839 24.4179 12.382 25.2512 11.9004C26.0845 11.4189 26.7416 10.6829 27.126 9.80057C27.1521 9.74005 27.1898 9.68529 27.2371 9.63941C27.2844 9.59354 27.3403 9.55747 27.4016 9.53327C27.4628 9.50907 27.5283 9.49722 27.5942 9.4984C27.66 9.49959 27.725 9.51378 27.7854 9.54016C27.8457 9.56655 27.9003 9.60461 27.9459 9.65215C27.9915 9.69969 28.0273 9.75578 28.0511 9.81719C28.075 9.8786 28.0864 9.94412 28.0849 10.01C28.0833 10.0758 28.0688 10.1407 28.042 10.201C27.5718 11.2766 26.7695 12.1734 25.7525 12.7599C24.7355 13.3464 23.5575 13.5917 22.3909 13.46C21.2244 13.3282 20.1307 12.8263 19.2702 12.0278C18.4097 11.2292 17.8275 10.1761 17.6091 9.02264C17.3906 7.86919 17.5474 6.6761 18.0563 5.61821C18.5653 4.56032 19.3997 3.69325 20.4373 3.14408C21.4749 2.5949 22.6611 2.39249 23.822 2.56652C24.983 2.74054 26.0578 3.28183 26.8887 4.11109C27.1146 4.34203 27.3192 4.59288 27.5 4.8606V2.99976C27.5 2.93408 27.5129 2.86905 27.538 2.80837C27.5631 2.74769 27.6 2.69256 27.6464 2.64612C27.6928 2.59968 27.748 2.56286 27.8087 2.53774Z" fill="#0F0F0F"/>
<path d="M9.45401 22.4541C16.1998 29.1999 22.1336 28.8664 23.8116 27.1884L24.8488 26.1512C25.3598 25.6391 25.6469 24.9453 25.6469 24.2218C25.6469 23.4984 25.3598 22.8045 24.8488 22.2925L22.3249 19.7686C21.8146 19.2626 21.1245 18.9796 20.4059 18.9818C19.6873 18.984 18.9989 19.2712 18.4917 19.7803L17.1817 21.0903C15.5751 20.8734 14.0934 20.1059 12.9895 18.9186C11.8029 17.8153 11.0342 16.3357 10.8136 14.7305L12.1346 13.4109C12.6335 12.8751 12.9036 12.1658 12.8875 11.434C12.8714 10.7021 12.5703 10.0054 12.0484 9.49208L9.61563 7.05933C9.10359 6.54827 8.40971 6.26125 7.68628 6.26125C6.96284 6.26125 6.26895 6.54827 5.75692 7.05933L4.71971 8.09654C3.04168 9.7745 2.70818 15.7082 9.45401 22.4541ZM6.46399 7.7664C6.7884 7.44272 7.22796 7.26093 7.68624 7.26093C8.14451 7.26093 8.58408 7.44272 8.90849 7.7664L11.3412 10.1992C11.6736 10.5262 11.8678 10.9683 11.8838 11.4342C11.8999 11.9002 11.7365 12.3546 11.4275 12.7037L10.0457 14.0841C9.33933 14.7905 10.3157 17.659 12.2824 19.6256C14.249 21.5923 17.1203 22.5659 17.828 21.8581L19.1988 20.4874C19.5183 20.1656 19.9524 19.9837 20.4058 19.9815C20.8593 19.9793 21.2951 20.157 21.6178 20.4757L24.1417 22.9996C24.4654 23.324 24.6471 23.7636 24.6471 24.2218C24.6471 24.6801 24.4653 25.1197 24.1417 25.4441L23.1045 26.4813C21.8967 27.689 16.4567 28.0426 10.1611 21.747C3.86549 15.4514 4.21904 10.0114 5.42679 8.80361L6.46399 7.7664Z" fill="#0F0F0F"/>
</svg>
