<svg width="32" height="32" viewBox="0 0 32 32" fill="none" xmlns="http://www.w3.org/2000/svg">
<path d="M27.6174 2.07572C27.7388 2.0255 27.8688 1.99968 28.0002 1.99976C28.1315 1.99967 28.2616 2.02549 28.383 2.07571C28.5043 2.12594 28.6146 2.19959 28.7075 2.29247C28.8004 2.38534 28.874 2.49561 28.9242 2.61697C28.9745 2.73834 29.0003 2.86841 29.0002 2.99976V5.99976C29.0003 6.1311 28.9745 6.26117 28.9243 6.38253C28.874 6.50389 28.8004 6.61416 28.7075 6.70703C28.6146 6.79991 28.5044 6.87356 28.383 6.92379C28.2616 6.97402 28.1316 6.99983 28.0002 6.99976H25.0002C24.735 6.99976 24.4806 6.8944 24.2931 6.70686C24.1056 6.51933 24.0002 6.26497 24.0002 5.99976C24.0002 5.73454 24.1056 5.48019 24.2931 5.29265C24.4806 5.10511 24.735 4.99976 25.0002 4.99976H25.6141C24.8443 4.35481 23.8641 4.01585 22.8603 4.04755C21.8566 4.07925 20.8996 4.4794 20.1721 5.17164C19.756 5.58772 19.4368 6.09046 19.2373 6.64403C19.0377 7.19761 18.9627 7.78838 19.0177 8.37426C19.0726 8.96013 19.2561 9.52667 19.5551 10.0335C19.8541 10.5403 20.2612 10.975 20.7474 11.3064C21.2336 11.6379 21.7869 11.858 22.3679 11.9512C22.9489 12.0443 23.5434 12.0081 24.1088 11.8452C24.6742 11.6822 25.1968 11.3966 25.6392 11.0086C26.0815 10.6206 26.4329 10.1397 26.6682 9.60039C26.7203 9.47936 26.7958 9.36983 26.8903 9.27808C26.9849 9.18634 27.0967 9.11419 27.2192 9.06579C27.3418 9.01739 27.4727 8.99369 27.6044 8.99606C27.7361 8.99843 27.8661 9.02681 27.9868 9.07958C28.1076 9.13236 28.2167 9.20847 28.3079 9.30355C28.3991 9.39864 28.4706 9.51081 28.5183 9.63363C28.566 9.75645 28.589 9.88749 28.5859 10.0192C28.5828 10.1509 28.5536 10.2807 28.5002 10.4012C27.9938 11.5604 27.1333 12.5295 26.042 13.1694C24.9507 13.8093 23.6848 14.087 22.4259 13.9628C21.1669 13.8386 19.9797 13.3189 19.0345 12.4781C18.0893 11.6374 17.4347 10.5188 17.1646 9.28295C16.8945 8.04709 17.0228 6.75743 17.5311 5.599C18.0394 4.44058 18.9015 3.47292 19.9938 2.83486C21.0862 2.19681 22.3526 1.92114 23.6113 2.04742C24.87 2.1737 26.0564 2.69543 27.0002 3.53776V2.99976C27.0001 2.86841 27.0259 2.73834 27.0761 2.61698C27.1264 2.49562 27.2 2.38536 27.2929 2.29248C27.3858 2.19961 27.496 2.12595 27.6174 2.07572Z" fill="#0F0F0F"/>
<path d="M24.172 27.577C22.3711 29.3779 16.1032 29.8385 9.10736 22.8427C2.11155 15.8469 2.57211 9.57892 4.37306 7.77804L5.41027 6.74083C6.0162 6.13624 6.83721 5.7967 7.69318 5.7967C8.54914 5.7967 9.37015 6.13624 9.97608 6.74083L12.4088 9.17358C13.023 9.78147 13.3756 10.605 13.3918 11.469C13.4079 12.333 13.0862 13.1691 12.4951 13.7995L11.3274 14.9658C11.6188 16.3538 12.324 17.6209 13.35 18.6C14.3297 19.6265 15.5984 20.3307 16.9877 20.6192L18.1451 19.4618C18.7461 18.8591 19.5616 18.5195 20.4128 18.5173C21.2639 18.5151 22.0812 18.8505 22.6853 19.4501L25.2092 21.974C25.8138 22.5799 26.1534 23.4009 26.1534 24.2569C26.1534 25.1128 25.8138 25.9339 25.2092 26.5398L24.172 27.577Z" fill="#0F0F0F"/>
</svg>
