<svg width="32" height="32" viewBox="0 0 32 32" fill="none" xmlns="http://www.w3.org/2000/svg">
<path d="M13.5571 5.03004L13.5522 5.03493L2.56006 15.5271L13.5522 26.0193L13.5571 26.0242V20.5252C13.5571 20.249 13.781 20.0252 14.0571 20.0252H17.5601C17.8362 20.0252 18.0601 20.249 18.0601 20.5252C18.06 20.8012 17.8361 21.0252 17.5601 21.0252H14.5571V26.0261C14.5567 26.2227 14.4984 26.4151 14.3892 26.5789C14.2799 26.7427 14.1242 26.8701 13.9429 26.9461C13.7614 27.022 13.5617 27.0426 13.3687 27.0056C13.1775 26.969 13.0016 26.8773 12.8618 26.742L1.86182 16.2429L1.854 16.2351C1.76106 16.1424 1.68674 16.0317 1.63623 15.9099C1.58598 15.7887 1.56008 15.6586 1.56006 15.5271C1.56006 15.3955 1.58586 15.2647 1.63623 15.1433C1.68674 15.0217 1.76114 14.9117 1.854 14.8191L1.86182 14.8113L12.8618 4.31129C13.0018 4.17575 13.1782 4.08423 13.3696 4.04762C13.5627 4.01079 13.7624 4.03203 13.9438 4.10817C14.1254 4.18443 14.2811 4.31235 14.3901 4.47633C14.4991 4.64027 14.5571 4.83312 14.5571 5.03004V10.0418C17.5854 10.176 19.4655 11.5215 20.5884 12.8884C21.1745 13.6019 21.5491 14.314 21.7778 14.8484C21.8924 15.1161 21.9714 15.3406 22.022 15.5007C22.0472 15.5807 22.0653 15.6448 22.0776 15.6902C22.0838 15.7128 22.089 15.7308 22.0923 15.7439C22.0939 15.7505 22.0952 15.7565 22.0962 15.7605L22.0972 15.7654V15.7673L22.0981 15.7683C22.1603 16.0373 21.9922 16.3057 21.7231 16.3679C21.4877 16.4223 21.2525 16.3011 21.1558 16.0896L21.1235 15.9939C21.1235 15.9939 21.1224 15.9905 21.1216 15.9871C21.1198 15.98 21.1172 15.9681 21.1128 15.9519C21.1039 15.919 21.0888 15.8677 21.0679 15.8015C21.0261 15.6691 20.9589 15.4757 20.8589 15.242C20.6582 14.7731 20.3286 14.1474 19.8159 13.5232C18.8016 12.2884 17.0498 11.0301 14.0571 11.03C13.781 11.03 13.5572 10.8062 13.5571 10.53V5.03004Z" fill="#0F0F0F"/>
<path d="M25.5415 24.927C25.436 24.927 25.3452 24.8919 25.269 24.8215C25.1929 24.7512 25.1445 24.6604 25.124 24.5491C25.0508 24.0598 24.9746 23.638 24.8955 23.2835C24.8193 22.929 24.7256 22.6287 24.6143 22.3826C24.5059 22.1365 24.3682 21.9314 24.2012 21.7673C24.0371 21.6004 23.832 21.4641 23.5859 21.3587C23.3428 21.2532 23.0483 21.1638 22.7026 21.0906C22.3569 21.0173 21.9468 20.9485 21.4722 20.884C21.3579 20.8723 21.2642 20.8269 21.1909 20.7478C21.1177 20.6687 21.0811 20.575 21.0811 20.4666C21.0811 20.3582 21.1177 20.2644 21.1909 20.1853C21.2642 20.1062 21.3594 20.0593 21.4766 20.0447C22.0449 19.9832 22.5225 19.9099 22.9092 19.825C23.2988 19.7371 23.6196 19.617 23.8716 19.4646C24.1265 19.3123 24.3315 19.1087 24.4868 18.8538C24.6421 18.596 24.7666 18.2664 24.8604 17.865C24.957 17.4636 25.0449 16.97 25.124 16.384C25.1416 16.2727 25.1885 16.1819 25.2646 16.1116C25.3438 16.0413 25.436 16.0061 25.5415 16.0061C25.647 16.0061 25.7378 16.0413 25.814 16.1116C25.8901 16.179 25.9385 16.2698 25.959 16.384C26.0439 16.97 26.1348 17.4622 26.2314 17.8606C26.3281 18.259 26.4526 18.5872 26.605 18.845C26.7603 19.0999 26.9639 19.3035 27.2158 19.4558C27.4678 19.6052 27.7886 19.7239 28.1782 19.8118C28.5679 19.8997 29.0454 19.9773 29.6108 20.0447C29.7222 20.0593 29.8145 20.1062 29.8877 20.1853C29.9639 20.2644 30.002 20.3582 30.002 20.4666C30.002 20.575 29.9639 20.6687 29.8877 20.7478C29.8145 20.8269 29.7222 20.8723 29.6108 20.884C29.0425 20.9485 28.562 21.0247 28.1694 21.1126C27.7798 21.1975 27.459 21.3162 27.207 21.4685C26.9551 21.6209 26.7515 21.8259 26.5962 22.0838C26.4409 22.3386 26.3149 22.6668 26.2183 23.0681C26.1245 23.4666 26.0381 23.9588 25.959 24.5447C25.9414 24.659 25.8931 24.7512 25.814 24.8215C25.7378 24.8919 25.647 24.927 25.5415 24.927Z" fill="#0F0F0F"/>
<path d="M19.8647 29.0019C19.8062 29.0019 19.7557 28.9824 19.7134 28.9433C19.6711 28.9043 19.6442 28.8538 19.6328 28.792C19.5921 28.5202 19.5498 28.2858 19.5059 28.0888C19.4635 27.8919 19.4115 27.7251 19.3496 27.5884C19.2894 27.4516 19.2129 27.3377 19.1201 27.2466C19.029 27.1538 18.915 27.0781 18.7783 27.0195C18.6432 26.9609 18.4797 26.9113 18.2876 26.8706C18.0955 26.8299 17.8677 26.7916 17.604 26.7558C17.5405 26.7493 17.4884 26.7241 17.4478 26.6802C17.4071 26.6362 17.3867 26.5841 17.3867 26.5239C17.3867 26.4637 17.4071 26.4116 17.4478 26.3677C17.4884 26.3237 17.5413 26.2977 17.6064 26.2895C17.9222 26.2554 18.1875 26.2147 18.4023 26.1675C18.6188 26.1186 18.797 26.0519 18.937 25.9673C19.0786 25.8826 19.1925 25.7695 19.2788 25.6279C19.3651 25.4847 19.4342 25.3016 19.4863 25.0786C19.54 24.8556 19.5889 24.5814 19.6328 24.2558C19.6426 24.194 19.6686 24.1435 19.7109 24.1045C19.7549 24.0654 19.8062 24.0459 19.8647 24.0459C19.9233 24.0459 19.9738 24.0654 20.0161 24.1045C20.0584 24.1419 20.0853 24.1924 20.0967 24.2558C20.1439 24.5814 20.1943 24.8548 20.248 25.0762C20.3018 25.2975 20.3709 25.4798 20.4556 25.623C20.5418 25.7646 20.6549 25.8777 20.7949 25.9624C20.9349 26.0454 21.1131 26.1113 21.3296 26.1601C21.5461 26.209 21.8114 26.2521 22.1255 26.2895C22.1873 26.2977 22.2386 26.3237 22.2793 26.3677C22.3216 26.4116 22.3428 26.4637 22.3428 26.5239C22.3428 26.5841 22.3216 26.6362 22.2793 26.6802C22.2386 26.7241 22.1873 26.7493 22.1255 26.7558C21.8097 26.7916 21.5428 26.834 21.3247 26.8828C21.1082 26.93 20.93 26.9959 20.79 27.0805C20.6501 27.1652 20.5369 27.2791 20.4507 27.4223C20.3644 27.5639 20.2944 27.7462 20.2407 27.9692C20.1886 28.1906 20.1406 28.464 20.0967 28.7895C20.0869 28.853 20.0601 28.9043 20.0161 28.9433C19.9738 28.9824 19.9233 29.0019 19.8647 29.0019Z" fill="#0F0F0F"/>
</svg>
