<svg width="32" height="32" viewBox="0 0 32 32" fill="none" xmlns="http://www.w3.org/2000/svg">
<path d="M13.3843 3.53994C13.6033 3.51454 13.8254 3.53801 14.0347 3.6083L14.1382 3.64736L14.2378 3.69326C14.4671 3.81005 14.663 3.98476 14.8062 4.20009C14.9695 4.44597 15.0571 4.73479 15.0571 5.03017V9.57314C17.9659 9.82799 19.8329 11.1808 20.9751 12.5712C21.5976 13.3291 21.9951 14.0843 22.2378 14.6513C22.3596 14.9358 22.4437 15.1766 22.4985 15.3505C22.5259 15.4372 22.5461 15.5078 22.5601 15.5595C22.5671 15.5853 22.5726 15.6069 22.5767 15.6229C22.5787 15.631 22.5802 15.638 22.5815 15.6435C22.5822 15.646 22.583 15.6483 22.5835 15.6503L22.5845 15.6532C22.5845 15.6532 22.5849 15.6555 21.6108 15.8808L22.5845 15.6561C22.7087 16.194 22.3742 16.7307 21.8364 16.8554C21.2983 16.9798 20.7607 16.6444 20.6362 16.1063C20.635 16.1015 20.6332 16.0925 20.6304 16.0819C20.6232 16.0553 20.61 16.0112 20.5913 15.952C20.5538 15.8333 20.4918 15.6554 20.3989 15.4384C20.2122 15.0022 19.9053 14.4203 19.4292 13.8407C18.4995 12.7089 16.8845 11.5302 14.0571 11.5302C13.5049 11.5302 13.0572 11.0824 13.0571 10.5302V6.19814L3.28467 15.5272L13.0571 24.8554V20.5253C13.0571 19.973 13.5048 19.5253 14.0571 19.5253H17.5601C18.1123 19.5253 18.5601 19.973 18.5601 20.5253C18.56 21.0775 18.1123 21.5253 17.5601 21.5253H15.0571V26.0272C15.0565 26.3221 14.969 26.6106 14.8052 26.8563C14.6413 27.1021 14.4082 27.2932 14.1362 27.4071C13.8639 27.5212 13.5645 27.5524 13.2749 27.497C12.9891 27.4422 12.7255 27.3054 12.5161 27.1034L1.51611 16.6044C1.5109 16.5994 1.50559 16.5939 1.50049 16.5888C1.36139 16.4499 1.25007 16.2849 1.17432 16.1024C1.11767 15.9659 1.08141 15.8215 1.06689 15.6747L1.06006 15.5272L1.06689 15.3798C1.0814 15.2329 1.11763 15.0886 1.17432 14.952L1.23779 14.8183C1.30753 14.6882 1.39604 14.5689 1.50049 14.4647L1.51611 14.4501L12.5161 3.95009C12.7256 3.74804 12.9888 3.6113 13.2749 3.55654L13.3843 3.53994Z" fill="#0F0F0F"/>
<path d="M25.5415 24.9271C25.436 24.9271 25.3452 24.892 25.269 24.8217C25.1929 24.7514 25.1445 24.6605 25.124 24.5492C25.0508 24.06 24.9746 23.6381 24.8955 23.2836C24.8193 22.9291 24.7256 22.6288 24.6143 22.3827C24.5059 22.1366 24.3682 21.9315 24.2012 21.7675C24.0371 21.6005 23.832 21.4643 23.5859 21.3588C23.3428 21.2533 23.0483 21.164 22.7026 21.0907C22.3569 21.0175 21.9468 20.9486 21.4722 20.8842C21.3579 20.8725 21.2642 20.827 21.1909 20.7479C21.1177 20.6688 21.0811 20.5751 21.0811 20.4667C21.0811 20.3583 21.1177 20.2645 21.1909 20.1854C21.2642 20.1063 21.3594 20.0595 21.4766 20.0448C22.0449 19.9833 22.5225 19.9101 22.9092 19.8251C23.2988 19.7372 23.6196 19.6171 23.8716 19.4647C24.1265 19.3124 24.3315 19.1088 24.4868 18.8539C24.6421 18.5961 24.7666 18.2665 24.8604 17.8651C24.957 17.4638 25.0449 16.9701 25.124 16.3842C25.1416 16.2728 25.1885 16.182 25.2646 16.1117C25.3438 16.0414 25.436 16.0062 25.5415 16.0062C25.647 16.0062 25.7378 16.0414 25.814 16.1117C25.8901 16.1791 25.9385 16.2699 25.959 16.3842C26.0439 16.9701 26.1348 17.4623 26.2314 17.8607C26.3281 18.2592 26.4526 18.5873 26.605 18.8451C26.7603 19.1 26.9639 19.3036 27.2158 19.456C27.4678 19.6054 27.7886 19.724 28.1782 19.8119C28.5679 19.8998 29.0454 19.9774 29.6108 20.0448C29.7222 20.0595 29.8145 20.1063 29.8877 20.1854C29.9639 20.2645 30.002 20.3583 30.002 20.4667C30.002 20.5751 29.9639 20.6688 29.8877 20.7479C29.8145 20.827 29.7222 20.8725 29.6108 20.8842C29.0425 20.9486 28.562 21.0248 28.1694 21.1127C27.7798 21.1977 27.459 21.3163 27.207 21.4686C26.9551 21.621 26.7515 21.8261 26.5962 22.0839C26.4409 22.3388 26.3149 22.6669 26.2183 23.0683C26.1245 23.4667 26.0381 23.9589 25.959 24.5448C25.9414 24.6591 25.8931 24.7514 25.814 24.8217C25.7378 24.892 25.647 24.9271 25.5415 24.9271Z" fill="#0F0F0F"/>
<path d="M19.872 29.0021C19.8134 29.0021 19.7629 28.9826 19.7206 28.9435C19.6783 28.9044 19.6514 28.854 19.64 28.7921C19.5993 28.5203 19.557 28.2859 19.5131 28.089C19.4708 27.8921 19.4187 27.7252 19.3568 27.5885C19.2966 27.4518 19.2201 27.3379 19.1273 27.2467C19.0362 27.154 18.9223 27.0783 18.7855 27.0197C18.6505 26.9611 18.4869 26.9114 18.2948 26.8707C18.1028 26.8301 17.8749 26.7918 17.6112 26.756C17.5478 26.7495 17.4957 26.7243 17.455 26.6803C17.4143 26.6364 17.3939 26.5843 17.3939 26.5241C17.3939 26.4638 17.4143 26.4118 17.455 26.3678C17.4957 26.3239 17.5486 26.2978 17.6137 26.2897C17.9294 26.2555 18.1947 26.2148 18.4096 26.1676C18.626 26.1188 18.8043 26.0521 18.9442 25.9674C19.0858 25.8828 19.1998 25.7697 19.286 25.6281C19.3723 25.4848 19.4415 25.3017 19.4936 25.0788C19.5473 24.8558 19.5961 24.5815 19.64 24.256C19.6498 24.1942 19.6758 24.1437 19.7182 24.1046C19.7621 24.0656 19.8134 24.046 19.872 24.046C19.9306 24.046 19.981 24.0656 20.0233 24.1046C20.0657 24.1421 20.0925 24.1925 20.1039 24.256C20.1511 24.5815 20.2016 24.855 20.2553 25.0763C20.309 25.2977 20.3782 25.48 20.4628 25.6232C20.5491 25.7648 20.6622 25.8779 20.8021 25.9625C20.9421 26.0456 21.1203 26.1115 21.3368 26.1603C21.5533 26.2091 21.8186 26.2523 22.1327 26.2897C22.1946 26.2978 22.2458 26.3239 22.2865 26.3678C22.3288 26.4118 22.35 26.4638 22.35 26.5241C22.35 26.5843 22.3288 26.6364 22.2865 26.6803C22.2458 26.7243 22.1946 26.7495 22.1327 26.756C21.817 26.7918 21.55 26.8341 21.3319 26.883C21.1155 26.9302 20.9372 26.9961 20.7973 27.0807C20.6573 27.1653 20.5442 27.2793 20.4579 27.4225C20.3716 27.5641 20.3017 27.7464 20.2479 27.9694C20.1959 28.1907 20.1479 28.4642 20.1039 28.7897C20.0941 28.8532 20.0673 28.9044 20.0233 28.9435C19.981 28.9826 19.9306 29.0021 19.872 29.0021Z" fill="#0F0F0F"/>
</svg>
