<svg width="32" height="32" viewBox="0 0 32 32" fill="none" xmlns="http://www.w3.org/2000/svg">
<path d="M13.5044 3.7811C13.6263 3.77595 13.7484 3.78893 13.8667 3.81918L14.0415 3.87778L14.2046 3.96078C14.3092 4.02411 14.404 4.10239 14.4858 4.1932L14.5981 4.33774L14.688 4.49789C14.766 4.66363 14.8071 4.84539 14.8071 5.03012V9.80453C17.7744 10.0007 19.6486 11.35 20.7817 12.7293C21.3862 13.4651 21.7726 14.1991 22.0083 14.7498C22.1265 15.0259 22.2076 15.2586 22.2603 15.4256C22.2866 15.509 22.3057 15.5763 22.3188 15.6248C22.3254 15.6491 22.3308 15.6688 22.3345 15.6834C22.3363 15.6907 22.3382 15.6972 22.3394 15.702C22.3399 15.7042 22.3403 15.7079 22.3403 15.7079L22.3413 15.7098C22.3413 15.7098 22.3413 15.7117 21.6274 15.8768L22.3413 15.7118C22.4346 16.1153 22.1833 16.5188 21.7798 16.6122C21.3762 16.7055 20.9737 16.4532 20.8804 16.0497V16.0526C20.8804 16.0526 20.88 16.0503 20.8794 16.0477C20.878 16.042 20.8756 16.0312 20.8716 16.0164C20.8635 15.9867 20.8493 15.9393 20.8296 15.8768C20.7899 15.7512 20.7259 15.5652 20.6294 15.3397C20.4357 14.8871 20.117 14.2834 19.6226 13.6815C18.6505 12.4982 16.967 11.2802 14.0571 11.2801C13.6429 11.2801 13.3072 10.9443 13.3071 10.5301V5.6141L2.92236 15.5272L13.3071 25.4393V20.5252C13.3071 20.111 13.6429 19.7752 14.0571 19.7752H17.5601C17.9743 19.7752 18.3101 20.111 18.3101 20.5252C18.31 20.9394 17.9742 21.2752 17.5601 21.2752H14.8071V26.0262C14.8066 26.2719 14.7337 26.5128 14.5972 26.7176C14.4606 26.9224 14.2662 27.0817 14.0396 27.1766C13.8127 27.2716 13.5631 27.298 13.3218 27.2518C13.0833 27.2061 12.8636 27.0914 12.689 26.9227L1.68896 16.4237C1.68501 16.4199 1.68112 16.4158 1.67725 16.412C1.56117 16.2961 1.46891 16.1579 1.40576 16.0057C1.35865 15.8921 1.32802 15.7724 1.31592 15.6502L1.31006 15.5272L1.31592 15.4041C1.32801 15.2818 1.35854 15.1615 1.40576 15.0477C1.46888 14.8957 1.56131 14.7581 1.67725 14.6424L1.68896 14.6307L12.689 4.1307C12.8637 3.96186 13.0839 3.84824 13.3228 3.80258L13.5044 3.7811Z" fill="#0F0F0F"/>
<path d="M25.5415 24.9271C25.436 24.9271 25.3452 24.8919 25.269 24.8216C25.1929 24.7513 25.1445 24.6605 25.124 24.5492C25.0508 24.0599 24.9746 23.638 24.8955 23.2835C24.8193 22.929 24.7256 22.6288 24.6143 22.3827C24.5059 22.1366 24.3682 21.9315 24.2012 21.7674C24.0371 21.6004 23.832 21.4642 23.5859 21.3587C23.3428 21.2533 23.0483 21.1639 22.7026 21.0907C22.3569 21.0174 21.9468 20.9486 21.4722 20.8841C21.3579 20.8724 21.2642 20.827 21.1909 20.7479C21.1177 20.6688 21.0811 20.575 21.0811 20.4666C21.0811 20.3582 21.1177 20.2645 21.1909 20.1854C21.2642 20.1063 21.3594 20.0594 21.4766 20.0448C22.0449 19.9832 22.5225 19.91 22.9092 19.825C23.2988 19.7372 23.6196 19.617 23.8716 19.4647C24.1265 19.3123 24.3315 19.1087 24.4868 18.8538C24.6421 18.596 24.7666 18.2664 24.8604 17.8651C24.957 17.4637 25.0449 16.9701 25.124 16.3841C25.1416 16.2728 25.1885 16.182 25.2646 16.1117C25.3438 16.0413 25.436 16.0062 25.5415 16.0062C25.647 16.0062 25.7378 16.0413 25.814 16.1117C25.8901 16.179 25.9385 16.2699 25.959 16.3841C26.0439 16.9701 26.1348 17.4622 26.2314 17.8607C26.3281 18.2591 26.4526 18.5872 26.605 18.8451C26.7603 19.0999 26.9639 19.3036 27.2158 19.4559C27.4678 19.6053 27.7886 19.724 28.1782 19.8119C28.5679 19.8997 29.0454 19.9774 29.6108 20.0448C29.7222 20.0594 29.8145 20.1063 29.8877 20.1854C29.9639 20.2645 30.002 20.3582 30.002 20.4666C30.002 20.575 29.9639 20.6688 29.8877 20.7479C29.8145 20.827 29.7222 20.8724 29.6108 20.8841C29.0425 20.9486 28.562 21.0247 28.1694 21.1126C27.7798 21.1976 27.459 21.3163 27.207 21.4686C26.9551 21.6209 26.7515 21.826 26.5962 22.0838C26.4409 22.3387 26.3149 22.6668 26.2183 23.0682C26.1245 23.4666 26.0381 23.9588 25.959 24.5448C25.9414 24.659 25.8931 24.7513 25.814 24.8216C25.7378 24.8919 25.647 24.9271 25.5415 24.9271Z" fill="#0F0F0F"/>
<path d="M19.8647 29.002C19.8062 29.002 19.7557 28.9825 19.7134 28.9434C19.6711 28.9044 19.6442 28.8539 19.6328 28.792C19.5921 28.5202 19.5498 28.2859 19.5059 28.0889C19.4635 27.892 19.4115 27.7252 19.3496 27.5884C19.2894 27.4517 19.2129 27.3378 19.1201 27.2466C19.029 27.1539 18.915 27.0782 18.7783 27.0196C18.6432 26.961 18.4797 26.9113 18.2876 26.8707C18.0955 26.83 17.8677 26.7917 17.604 26.7559C17.5405 26.7494 17.4884 26.7242 17.4478 26.6802C17.4071 26.6363 17.3867 26.5842 17.3867 26.524C17.3867 26.4638 17.4071 26.4117 17.4478 26.3677C17.4884 26.3238 17.5413 26.2977 17.6064 26.2896C17.9222 26.2554 18.1875 26.2147 18.4023 26.1675C18.6188 26.1187 18.797 26.052 18.937 25.9673C19.0786 25.8827 19.1925 25.7696 19.2788 25.628C19.3651 25.4848 19.4342 25.3016 19.4863 25.0787C19.54 24.8557 19.5889 24.5814 19.6328 24.2559C19.6426 24.1941 19.6686 24.1436 19.7109 24.1045C19.7549 24.0655 19.8062 24.046 19.8647 24.046C19.9233 24.046 19.9738 24.0655 20.0161 24.1045C20.0584 24.142 20.0853 24.1924 20.0967 24.2559C20.1439 24.5814 20.1943 24.8549 20.248 25.0762C20.3018 25.2976 20.3709 25.4799 20.4556 25.6231C20.5418 25.7647 20.6549 25.8778 20.7949 25.9625C20.9349 26.0455 21.1131 26.1114 21.3296 26.1602C21.5461 26.209 21.8114 26.2522 22.1255 26.2896C22.1873 26.2977 22.2386 26.3238 22.2793 26.3677C22.3216 26.4117 22.3428 26.4638 22.3428 26.524C22.3428 26.5842 22.3216 26.6363 22.2793 26.6802C22.2386 26.7242 22.1873 26.7494 22.1255 26.7559C21.8097 26.7917 21.5428 26.834 21.3247 26.8829C21.1082 26.9301 20.93 26.996 20.79 27.0806C20.6501 27.1653 20.5369 27.2792 20.4507 27.4224C20.3644 27.564 20.2944 27.7463 20.2407 27.9693C20.1886 28.1906 20.1406 28.4641 20.0967 28.7896C20.0869 28.8531 20.0601 28.9044 20.0161 28.9434C19.9738 28.9825 19.9233 29.002 19.8647 29.002Z" fill="#0F0F0F"/>
</svg>
