<svg width="32" height="32" viewBox="0 0 32 32" fill="none" xmlns="http://www.w3.org/2000/svg">
<path d="M14.6791 4.95387C17.6158 7.98409 19.2579 12.0382 19.2579 16.2579C19.2579 20.4777 17.6158 24.5318 14.6791 27.562C14.2948 27.9586 14.3047 28.5917 14.7013 28.976C15.0979 29.3604 15.731 29.3505 16.1153 28.9539C19.4136 25.5505 21.2579 20.9973 21.2579 16.2579C21.2579 11.5186 19.4136 6.96533 16.1153 3.562C15.731 3.1654 15.0979 3.15548 14.7013 3.53983C14.3047 3.92418 14.2948 4.55727 14.6791 4.95387Z" fill="#0F0F0F"/>
<path d="M13.2579 16.2584C13.2579 13.5543 12.2053 10.9565 10.3231 9.01505C9.93862 8.61853 9.94841 7.98544 10.3449 7.60101C10.7415 7.21657 11.3745 7.22637 11.759 7.62289C14.003 9.93746 15.2579 13.0346 15.2579 16.2584C15.2579 19.4822 14.003 22.5794 11.759 24.894C11.3745 25.2905 10.7415 25.3003 10.3449 24.9158C9.94841 24.5314 9.93862 23.8983 10.3231 23.5018C12.2053 21.5604 13.2579 18.9625 13.2579 16.2584Z" fill="#0F0F0F"/>
<path d="M7.25891 16.2599C7.25891 15.1384 6.82212 14.0611 6.04114 13.2563C5.65653 12.86 5.66604 12.2269 6.06238 11.8423C6.45873 11.4577 7.09183 11.4672 7.47644 11.8635C8.61957 13.0415 9.25891 14.6184 9.25891 16.2599C9.25891 17.9013 8.61958 19.4784 7.47644 20.6564C7.09182 21.0527 6.45873 21.0622 6.06238 20.6776C5.66604 20.293 5.65653 19.6599 6.04114 19.2636C6.82211 18.4588 7.25891 17.3814 7.25891 16.2599Z" fill="#0F0F0F"/>
<path d="M26.0001 19C26.5524 19 27.0001 19.4477 27.0001 20V22H29.0001C29.5524 22 30.0001 22.4477 30.0001 23C30.0001 23.5523 29.5524 24 29.0001 24H27.0001V26C27.0001 26.5523 26.5524 27 26.0001 27C25.4478 27 25.0001 26.5523 25.0001 26V24H23.0001C22.4478 24 22.0001 23.5523 22.0001 23C22.0001 22.4477 22.4478 22 23.0001 22H25.0001V20C25.0001 19.4477 25.4478 19 26.0001 19Z" fill="#0F0F0F"/>
</svg>
