<svg width="32" height="32" viewBox="0 0 32 32" fill="none" xmlns="http://www.w3.org/2000/svg">
<path d="M17.75 2C19.4191 2 20.8974 2.81834 21.8057 4.0752C22.0023 4.34805 21.7457 4.68786 21.4131 4.63672C20.799 4.54231 20.1751 4.49559 19.5469 4.5C16.7081 4.51996 13.9703 5.56829 11.8545 7.45312C9.73786 9.33875 8.39045 11.9319 8.07812 14.7432C7.82495 17.0224 8.26664 19.3098 9.3252 21.3184C9.15721 21.4995 8.95782 21.6529 8.73438 21.7705C8.61204 21.8349 8.4948 21.9095 8.38477 21.9932C7.98989 22.2934 7.67713 22.6927 7.48047 23.1533C7.28373 23.6143 7.21111 24.1196 7.27051 24.6191C7.32992 25.1186 7.51891 25.5914 7.81641 25.9922C8.11409 26.393 8.50935 26.7071 8.95996 26.9072C9.00307 26.9264 9.0467 26.9443 9.09082 26.9609C10.3555 27.4387 11.7188 27.6007 13.0605 27.4336C13.9029 27.3286 14.7225 27.0956 15.4893 26.7451C17.3742 27.4563 19.4162 27.6703 21.4131 27.3633C21.7458 27.3121 22.0024 27.6519 21.8057 27.9248C20.8974 29.1817 19.4191 30 17.75 30H9.75C6.98858 30 4.75 27.7614 4.75 25V7C4.75 4.23858 6.98858 2 9.75 2H17.75ZM24.9707 20C25.523 20 25.9707 20.4477 25.9707 21V23.9971H29C29.5523 23.9971 30 24.4448 30 24.9971C29.9999 25.5493 29.5522 25.9971 29 25.9971H25.9707V29C25.9707 29.5523 25.523 30 24.9707 30C24.4184 30 23.9707 29.5523 23.9707 29V25.9971H21C20.4478 25.9971 20.0001 25.5493 20 24.9971C20 24.4448 20.4477 23.9971 21 23.9971H23.9707V21C23.9707 20.4477 24.4184 20 24.9707 20ZM19.5645 7C21.8 6.98432 23.9639 7.77954 25.6445 9.23438C27.325 10.6892 28.4053 12.7025 28.6807 14.8916C28.9303 16.8774 28.5012 18.8831 27.4719 20.5941C27.4216 20.6777 27.3696 20.7606 27.3161 20.8426C27.2109 21.0038 26.9758 20.9254 26.9523 20.7344C26.9465 20.6875 26.9391 20.6407 26.9295 20.5941C26.7419 19.6841 25.9362 19 24.9707 19C23.8661 19 22.9707 19.8954 22.9707 21V22.6971C22.9707 22.8628 22.8364 22.9971 22.6707 22.9971H21C20.0103 22.9971 19.1892 23.716 19.0291 24.6601C19.0003 24.8302 18.8558 24.9671 18.6842 24.9495C17.5303 24.8312 16.4004 24.497 15.3584 23.9521C14.5863 24.4921 13.6909 24.836 12.752 24.9531C11.8127 25.0701 10.8587 24.956 9.97461 24.6221C9.91468 24.5955 9.86208 24.5543 9.82324 24.502C9.78453 24.4498 9.76062 24.3885 9.75293 24.3242C9.74527 24.2598 9.75476 24.1945 9.78027 24.1348C9.80578 24.075 9.8464 24.023 9.89844 23.9834C10.4474 23.6946 10.9328 23.3011 11.3271 22.8262C11.7214 22.3512 12.0164 21.8029 12.1953 21.2148C10.9001 19.417 10.319 17.2122 10.5625 15.0195C10.8061 12.8265 11.8582 10.7977 13.5176 9.31934C15.177 7.84122 17.3289 7.01571 19.5645 7Z" fill="#0F0F0F"/>
</svg>
