<svg width="32" height="32" viewBox="0 0 32 32" fill="none" xmlns="http://www.w3.org/2000/svg">
<path d="M20.5996 9.5C22.5154 9.50004 24 11.1059 24 13C24 14.8941 22.5154 16.5 20.5996 16.5H11.4141L13.707 18.793C14.0975 19.1835 14.0975 19.8165 13.707 20.207C13.3165 20.5975 12.6835 20.5975 12.293 20.207L8.29297 16.207C7.90244 15.8165 7.90244 15.1835 8.29297 14.793L12.293 10.793C12.6835 10.4025 13.3165 10.4025 13.707 10.793C14.0975 11.1835 14.0975 11.8165 13.707 12.207L11.4141 14.5H20.5996C21.3347 14.5 22 13.8673 22 13C22 12.1327 21.3347 11.5 20.5996 11.5H19C18.4477 11.5 18 11.0523 18 10.5C18 9.94772 18.4477 9.5 19 9.5H20.5996Z" fill="#0F0F0F"/>
<path d="M27.4561 3.75488C29.5694 3.86211 31.25 5.60996 31.25 7.75V21.75C31.25 23.89 29.5694 25.6379 27.4561 25.7451L27.25 25.75H12.8516L7.6875 29.8818C6.70501 30.6669 5.251 29.9668 5.25 28.7109V25.75C3.10996 25.75 1.36211 24.0694 1.25488 21.9561L1.25 21.75V7.75C1.25 5.54086 3.04086 3.75 5.25 3.75H27.25L27.4561 3.75488ZM5.25 5.75C4.14543 5.75 3.25 6.64543 3.25 7.75V21.75L3.26074 21.9541C3.363 22.9628 4.21435 23.75 5.25 23.75H6.25C6.80228 23.75 7.25 24.1977 7.25 24.75V27.6689L11.875 23.9688L12.0156 23.875C12.1631 23.7934 12.3297 23.75 12.5 23.75H27.25L27.4541 23.7393C28.4628 23.637 29.25 22.7857 29.25 21.75V7.75L29.2393 7.5459C29.1438 6.60435 28.3957 5.8562 27.4541 5.76074L27.25 5.75H5.25Z" fill="#0F0F0F"/>
</svg>
