<svg width="32" height="32" viewBox="0 0 32 32" fill="none" xmlns="http://www.w3.org/2000/svg">
<path d="M4.75 7C4.75 4.23858 6.98858 2 9.75 2H17.75C18.6591 2 19.5143 2.24351 20.2507 2.66952C20.5393 2.83647 20.8095 3.03131 21.0576 3.25026C21.4716 3.61573 21.511 4.24766 21.1456 4.66173C20.7801 5.0758 20.1482 5.1152 19.7341 4.74974C19.5848 4.61793 19.4224 4.50086 19.2493 4.40073C18.809 4.14607 18.2981 4 17.75 4H9.75C8.09315 4 6.75 5.34315 6.75 7V25C6.75 26.6569 8.09315 28 9.75 28H17.75C18.5115 28 19.2046 27.7176 19.7341 27.2503C20.1482 26.8848 20.7801 26.9242 21.1456 27.3383C21.511 27.7523 21.4716 28.3843 21.0576 28.7497C20.1767 29.5272 19.0174 30 17.75 30H9.75C6.98858 30 4.75 27.7614 4.75 25V7Z" fill="#0F0F0F"/>
<path d="M18.7998 7.9771C18.9171 8.51677 18.5747 9.04938 18.035 9.16671C16.8306 9.42856 15.7086 9.99189 14.7834 10.8107C13.482 11.9625 12.6612 13.5392 12.4711 15.2393C12.281 16.9392 12.734 18.6504 13.7479 20.0484C13.9321 20.3025 13.9865 20.6283 13.8945 20.9284C13.6951 21.5795 13.3665 22.1844 12.9287 22.7083C12.8458 22.8075 12.7593 22.9035 12.6695 22.9959C12.8837 23.0021 13.0989 22.992 13.313 22.9655C13.9786 22.8831 14.6124 22.6446 15.161 22.272C15.3306 22.1429 15.5415 22.0678 15.7666 22.0678H15.7686C15.9474 22.0678 16.1178 22.1153 16.2656 22.2C17.81 22.9912 19.598 23.2049 21.294 22.7986C23.0036 22.3889 24.4953 21.3791 25.4891 19.9667C25.9762 19.2744 26.3273 18.5088 26.5334 17.7085C26.6711 17.1736 27.2163 16.8517 27.7511 16.9894C28.286 17.1272 28.6079 17.6724 28.4702 18.2072C28.2041 19.2406 27.7513 20.2273 27.1248 21.1176C25.847 22.9336 23.9367 24.2219 21.76 24.7435C19.7732 25.2196 17.6863 25.0278 15.8302 24.2072C15.131 24.5983 14.3593 24.8512 13.5587 24.9503C12.5583 25.0742 11.542 24.9542 10.5993 24.6004C10.5817 24.5938 10.5642 24.5867 10.547 24.5791C10.3377 24.4868 10.1537 24.3417 10.0148 24.1559C9.87591 23.97 9.78725 23.7503 9.75941 23.5178C9.73156 23.2852 9.76583 23.0501 9.85793 22.8357C9.94994 22.6216 10.096 22.4368 10.2798 22.2979C10.3238 22.2647 10.3705 22.2351 10.4193 22.2096C10.7951 22.0132 11.1261 21.7465 11.394 21.4259C11.5636 21.2229 11.7058 21.0008 11.818 20.7651C10.7326 19.0565 10.2581 17.0326 10.4834 15.017C10.7293 12.8185 11.7899 10.7893 13.4579 9.31299C14.6432 8.264 16.0766 7.54578 17.6101 7.21237C18.1498 7.09504 18.6824 7.43742 18.7998 7.9771Z" fill="#0F0F0F"/>
<path d="M28.5 11.25C28.5 13.4591 26.7091 15.25 24.5 15.25C22.2909 15.25 20.5 13.4591 20.5 11.25C20.5 9.04086 22.2909 7.25 24.5 7.25C26.7091 7.25 28.5 9.04086 28.5 11.25Z" fill="#0F0F0F"/>
</svg>
