<svg width="32" height="32" viewBox="0 0 32 32" fill="none" xmlns="http://www.w3.org/2000/svg">
<path d="M4.70328 7.2019C5.31278 6.5924 6.13937 6.25 7.00132 6.25H25.0013C25.8633 6.25 26.6899 6.5924 27.2994 7.2019C27.9089 7.81141 28.2513 8.63807 28.2513 9.5V19.5C28.2513 20.3619 27.9089 21.1886 27.2994 21.7981C26.6899 22.4076 25.8633 22.75 25.0013 22.75H11.616C11.2593 22.7448 10.9423 22.8947 10.7228 23.0225C10.4838 23.1617 10.2481 23.343 10.0373 23.517C9.87985 23.647 9.71803 23.7885 9.56905 23.9188C9.51899 23.9626 9.46991 24.0055 9.42341 24.0459C9.2278 24.2157 9.06584 24.3511 8.93097 24.4462C8.92408 24.4511 8.91726 24.4561 8.91053 24.4612C7.40661 25.6003 5.67208 25.8487 4.54924 25.7114C4.38915 25.6919 4.24728 25.6651 4.12494 25.6342C4.89811 25.0903 5.53381 24.3707 5.97871 23.5327C6.0362 23.4244 6.06626 23.3036 6.06626 23.181V23.124C6.06626 22.8354 5.90066 22.5724 5.6404 22.4477L5.59152 22.4242C5.04074 22.1591 4.57591 21.744 4.25038 21.2266C3.92496 20.7094 3.75202 20.1108 3.75132 19.4996V9.5C3.75132 8.63807 4.09377 7.81141 4.70328 7.2019ZM7.00132 4.75C5.74153 4.75 4.53341 5.25045 3.64262 6.14124C2.75184 7.03202 2.25132 8.24019 2.25132 9.5V19.5C2.25224 20.3933 2.50496 21.2692 2.98077 22.0254C3.323 22.5693 3.77058 23.0359 4.29449 23.3992C3.9538 23.8596 3.52756 24.2527 3.03701 24.5558C2.75537 24.714 2.44486 24.9586 2.31164 25.336C2.15062 25.7922 2.32387 26.2001 2.56226 26.4615C2.77972 26.6999 3.07633 26.8581 3.35959 26.9649C3.6552 27.0764 3.99821 27.1552 4.36724 27.2003C5.82509 27.3785 7.95661 27.0609 9.80642 25.6643C10.0063 25.5222 10.2151 25.345 10.4068 25.1786C10.4623 25.1304 10.5165 25.083 10.5699 25.0363C10.7141 24.9102 10.8527 24.789 10.9923 24.6737C11.1835 24.5159 11.345 24.396 11.4777 24.3187C11.5619 24.2697 11.6068 24.2544 11.6191 24.2502L25.0013 24.25C26.2611 24.25 27.4692 23.7496 28.36 22.8588C29.2508 21.968 29.7513 20.7598 29.7513 19.5V9.5C29.7513 8.24019 29.2508 7.03202 28.36 6.14124C27.4692 5.25045 26.2611 4.75 25.0013 4.75H7.00132ZM18.9999 9.75C18.5857 9.75 18.2499 10.0858 18.2499 10.5C18.2499 10.9142 18.5857 11.25 18.9999 11.25H20.5999C21.4826 11.25 22.2499 12.0044 22.2499 13C22.2499 13.9956 21.4826 14.75 20.5999 14.75H10.8106L13.5303 12.0303C13.8231 11.7374 13.8231 11.2626 13.5303 10.9697C13.2374 10.6768 12.7625 10.6768 12.4696 10.9697L8.46959 14.9697C8.1767 15.2626 8.1767 15.7374 8.46959 16.0303L12.4696 20.0303C12.7625 20.3232 13.2374 20.3232 13.5303 20.0303C13.8231 19.7374 13.8231 19.2626 13.5303 18.9697L10.8106 16.25H20.5999C22.3682 16.25 23.7499 14.7658 23.7499 13C23.7499 11.2342 22.3682 9.75 20.5999 9.75H18.9999Z" fill="#0F0F0F"/>
</svg>
