<svg width="32" height="32" viewBox="0 0 32 32" fill="none" xmlns="http://www.w3.org/2000/svg">
<path d="M4.52668 7.02512C5.18306 6.36874 6.07325 6 7.0015 6H25.0015C25.9298 6 26.8199 6.36874 27.4763 7.02512C28.1327 7.68151 28.5015 8.57176 28.5015 9.5V19.5C28.5015 20.4282 28.1327 21.3185 27.4763 21.9749C26.8199 22.6313 25.9298 23 25.0015 23H11.6143C11.3261 22.9953 11.0569 23.1174 10.8488 23.2385C10.6275 23.3674 10.4042 23.5385 10.1966 23.7098C10.0422 23.8373 9.88451 23.9752 9.7362 24.1049L9.73308 24.1076C9.68332 24.1512 9.63463 24.1937 9.58749 24.2347C9.39196 24.4044 9.22153 24.5473 9.07529 24.6505L9.06166 24.6604C7.49972 25.8435 5.69819 26.1037 4.51909 25.9596C4.22693 25.9239 3.9845 25.8646 3.80101 25.7954C3.70154 25.7579 3.62883 25.721 3.57756 25.6894C3.59936 25.6749 3.62593 25.6585 3.6582 25.6407C3.66488 25.637 3.67147 25.6332 3.67797 25.6292C4.55662 25.0902 5.27479 24.3258 5.75807 23.4154C5.7964 23.3432 5.81644 23.2627 5.81644 23.181V23.124C5.81644 22.9316 5.70604 22.7563 5.53254 22.6731L5.48326 22.6495C4.89012 22.364 4.38953 21.9169 4.03896 21.3597C3.68847 20.8027 3.50223 20.158 3.5015 19.4998V9.5C3.5015 8.57176 3.87029 7.68151 4.52668 7.02512ZM7.0015 5C5.80802 5 4.66348 5.47411 3.81958 6.31802C2.97567 7.16192 2.5015 8.30651 2.5015 9.5V19.5C2.50237 20.3463 2.7418 21.1758 3.19255 21.8923C3.56161 22.4789 4.05998 22.9705 4.64712 23.3309C4.26491 23.9122 3.75921 24.4044 3.16403 24.7713C2.90246 24.9175 2.65181 25.1238 2.54757 25.4192C2.42512 25.7661 2.55302 26.0802 2.74715 26.293C2.92732 26.4905 3.18306 26.6311 3.44801 26.731C3.7212 26.8341 4.0441 26.909 4.39776 26.9522C5.8002 27.1236 7.86633 26.8172 9.65887 25.4626C9.84858 25.328 10.0503 25.1572 10.2431 24.9898C10.2971 24.9429 10.3504 24.8962 10.4034 24.85C10.5487 24.7229 10.6907 24.5987 10.8333 24.4809C11.0278 24.3204 11.2016 24.1903 11.352 24.1027C11.4263 24.0594 11.4861 24.0318 11.5322 24.0158C11.579 23.9996 11.5988 23.9999 11.5977 23.9999L11.6094 24H25.0015C26.195 24 27.3395 23.5259 28.1834 22.682C29.0273 21.8381 29.5015 20.6935 29.5015 19.5V9.5C29.5015 8.30651 29.0273 7.16192 28.1834 6.31802C27.3395 5.47411 26.195 5 25.0015 5H7.0015ZM19.0001 10C18.724 10 18.5001 10.2239 18.5001 10.5C18.5001 10.7761 18.724 11 19.0001 11H20.6001C21.6304 11 22.5001 11.876 22.5001 13C22.5001 14.124 21.6304 15 20.6001 15H10.2072L13.3537 11.8536C13.5489 11.6583 13.5489 11.3417 13.3537 11.1464C13.1584 10.9512 12.8418 10.9512 12.6465 11.1464L8.64655 15.1464C8.45129 15.3417 8.45129 15.6583 8.64655 15.8536L12.6465 19.8536C12.8418 20.0488 13.1584 20.0488 13.3537 19.8536C13.5489 19.6583 13.5489 19.3417 13.3537 19.1464L10.2072 16H20.6001C22.2208 16 23.5001 14.6374 23.5001 13C23.5001 11.3626 22.2208 10 20.6001 10H19.0001Z" fill="#0F0F0F"/>
</svg>
