<svg width="32" height="32" viewBox="0 0 32 32" fill="none" xmlns="http://www.w3.org/2000/svg">
<path d="M16.0254 2C18.4456 2.00004 20.3364 2.67905 21.3164 4.53223C21.5746 5.02047 21.3877 5.62564 20.8994 5.88379C20.4112 6.14183 19.806 5.95589 19.5479 5.46777C19.0708 4.56549 18.113 4.00003 16.0254 4H11C9.36558 4 8.43506 4.35399 7.89453 4.89453C7.35399 5.4351 7 6.36552 7 8V24C7 25.6345 7.35399 26.5649 7.89453 27.1055C8.43506 27.646 9.36558 28 11 28H16.0254C17.7803 28 18.7237 27.5933 19.25 26.9756C19.6081 26.5551 20.2397 26.5043 20.6602 26.8623C21.0806 27.2204 21.1315 27.852 20.7734 28.2725C19.6931 29.541 18.0304 30 16.0254 30H11C9.13449 30 7.56485 29.6039 6.48047 28.5195C5.3961 27.4351 5 25.8655 5 24V8C5 6.13448 5.3961 4.5649 6.48047 3.48047C7.56485 2.39608 9.13449 2 11 2H16.0254ZM24.793 20.793C25.1835 20.4024 25.8165 20.4024 26.207 20.793L29.707 24.293C29.7548 24.3408 29.7976 24.3935 29.835 24.4502C29.8597 24.4877 29.8812 24.5266 29.9004 24.5664C29.9222 24.6116 29.9412 24.6584 29.9561 24.707C29.9623 24.7273 29.9668 24.748 29.9717 24.7686C29.9893 24.8429 30 24.9202 30 25C30 25.0563 29.9933 25.1112 29.9844 25.165C29.9772 25.2078 29.9688 25.2503 29.9561 25.292C29.9412 25.3407 29.9222 25.3874 29.9004 25.4326C29.8936 25.4468 29.8864 25.4607 29.8789 25.4746C29.851 25.5262 29.8184 25.5745 29.7822 25.6201C29.7586 25.6498 29.7345 25.6796 29.707 25.707L26.207 29.207C25.8165 29.5976 25.1835 29.5976 24.793 29.207C24.4024 28.8165 24.4024 28.1835 24.793 27.793L26.5859 26H21C20.4477 26 20 25.5523 20 25C20 24.4477 20.4477 24 21 24H26.5859L24.793 22.207C24.4024 21.8165 24.4024 21.1835 24.793 20.793ZM19.7744 7C22.014 6.98441 24.1844 7.77627 25.873 9.22852C27.5621 10.6812 28.652 12.695 28.9297 14.8896C29.1238 16.424 28.9117 17.9698 28.3291 19.3818C28.1184 19.892 27.5338 20.1351 27.0234 19.9248C26.5129 19.7141 26.2698 19.1287 26.4805 18.6182C26.932 17.5236 27.0965 16.3274 26.9463 15.1406C26.7315 13.4433 25.8876 11.8779 24.5693 10.7441C23.2506 9.60999 21.549 8.9877 19.7881 9C18.0272 9.01232 16.3352 9.65826 15.0332 10.8105C13.7318 11.9624 12.9108 13.5392 12.7207 15.2393C12.5306 16.9392 12.9841 18.6508 13.998 20.0488C14.1822 20.3028 14.2364 20.6287 14.1445 20.9287C13.9451 21.5798 13.6165 22.1851 13.1787 22.709C13.096 22.808 13.0077 22.9018 12.918 22.9941C13.1327 23.0004 13.3488 22.9924 13.5635 22.9658C14.2438 22.8815 14.8914 22.6341 15.4482 22.2471C15.6113 22.134 15.8071 22.0684 16.0166 22.0684H16.0186C16.1873 22.0684 16.3484 22.1106 16.4902 22.1865C17.0408 22.4714 17.6224 22.6836 18.2207 22.8193C18.7593 22.9415 19.0977 23.477 18.9756 24.0156C18.8534 24.5539 18.3177 24.8914 17.7793 24.7695C17.1975 24.6376 16.6272 24.4485 16.0771 24.2051C15.3783 24.5957 14.6087 24.8512 13.8086 24.9502C12.8083 25.074 11.7922 24.9542 10.8496 24.6006C10.832 24.594 10.8141 24.5867 10.7969 24.5791C10.5876 24.4868 10.4035 24.342 10.2646 24.1562C10.1257 23.9704 10.0376 23.7501 10.0098 23.5176C9.98199 23.2851 10.0163 23.0501 10.1084 22.8359L10.1865 22.6807C10.275 22.5319 10.3925 22.402 10.5303 22.2979C10.574 22.2648 10.6204 22.2354 10.6689 22.21C11.0447 22.0136 11.3757 21.7464 11.6436 21.4258C11.8139 21.2219 11.9559 20.9986 12.0684 20.7617C10.984 19.0537 10.5082 17.0321 10.7334 15.0176C10.9792 12.8191 12.04 10.7898 13.708 9.31348C15.3756 7.8376 17.5347 7.01564 19.7744 7Z" fill="#0F0F0F"/>
</svg>
