<svg width="32" height="32" viewBox="0 0 32 32" fill="none" xmlns="http://www.w3.org/2000/svg">
<path d="M16.0137 2.5C18.3508 2.50003 20.0081 3.15102 20.8623 4.7666C20.9913 5.0107 20.8984 5.31333 20.6543 5.44238C20.4102 5.57136 20.1076 5.47748 19.9785 5.2334C19.3757 4.09352 18.1843 3.50003 16.0137 3.5H10.9883C9.29609 3.5 8.20579 3.86451 7.5293 4.54102C6.8528 5.21755 6.48828 6.30776 6.48828 8V24C6.48828 25.6922 6.8528 26.7824 7.5293 27.459C8.20579 28.1355 9.29609 28.5 10.9883 28.5H16.0137C17.8312 28.5 18.9544 28.0803 19.6191 27.2998C19.7982 27.0896 20.114 27.0641 20.3242 27.2432C20.5344 27.4222 20.5599 27.738 20.3809 27.9482C19.439 29.0541 17.9562 29.5 16.0137 29.5H10.9883C9.18054 29.5 7.77068 29.1144 6.82227 28.166C5.87386 27.2176 5.48828 25.8078 5.48828 24V8C5.48828 6.19224 5.87386 4.78245 6.82227 3.83398C7.77068 2.88556 9.18054 2.5 10.9883 2.5H16.0137ZM24.9707 20.5C25.2468 20.5 25.4707 20.7239 25.4707 21V24.4971H29C29.2761 24.4971 29.5 24.7209 29.5 24.9971C29.4999 25.2732 29.2761 25.4971 29 25.4971H25.4707V29C25.4707 29.2761 25.2468 29.5 24.9707 29.5C24.6946 29.5 24.4707 29.2761 24.4707 29V25.4971H21C20.7239 25.4971 20.5001 25.2732 20.5 24.9971C20.5 24.7209 20.7239 24.4971 21 24.4971H24.4707V21C24.4707 20.7239 24.6946 20.5 24.9707 20.5ZM19.7773 7.5C21.8974 7.48519 23.9507 8.23467 25.5469 9.60742C27.1433 10.9804 28.1715 12.8818 28.4336 14.9521C28.6168 16.3996 28.4161 17.8577 27.8662 19.1904C27.7609 19.4457 27.4691 19.5672 27.2139 19.4619C26.9587 19.3566 26.8372 19.0648 26.9424 18.8096C27.4268 17.6356 27.6026 16.3519 27.4414 15.0781C27.2109 13.2565 26.3064 11.5787 24.8955 10.3652C23.4844 9.15165 21.6656 8.48698 19.7852 8.5C17.9045 8.51313 16.0955 9.20333 14.7021 10.4365C13.3091 11.6694 12.4287 13.359 12.2246 15.1836C12.0206 17.0081 12.5064 18.8438 13.5928 20.3418C13.6849 20.4688 13.712 20.6322 13.666 20.7822C13.4862 21.3691 13.1902 21.9147 12.7949 22.3877C12.4938 22.748 12.1394 23.06 11.7451 23.3154C12.3535 23.4883 12.9925 23.54 13.624 23.4619C14.2896 23.3795 14.9279 23.1574 15.4951 22.8125L15.7334 22.6572C15.8147 22.6011 15.9123 22.5684 16.0166 22.5684H16.0186C16.102 22.5684 16.1816 22.5888 16.252 22.626C16.8432 22.9328 17.4679 23.161 18.1104 23.3066C18.3795 23.3677 18.5482 23.6351 18.4873 23.9043C18.4263 24.1735 18.1588 24.3431 17.8896 24.2822C17.258 24.139 16.641 23.9244 16.0508 23.6426C15.3529 24.0744 14.5671 24.3526 13.7471 24.4541C12.8269 24.568 11.8921 24.4579 11.0254 24.1328C11.0167 24.1295 11.0076 24.1258 10.999 24.1221C10.8676 24.0641 10.7519 23.9726 10.665 23.8564C10.5784 23.7405 10.5232 23.6036 10.5059 23.459C10.4885 23.3141 10.5099 23.1669 10.5674 23.0332C10.6248 22.8997 10.716 22.7842 10.8311 22.6973L10.9014 22.6533C11.3347 22.4268 11.7171 22.1183 12.0273 21.7471C12.287 21.4363 12.4906 21.0855 12.6328 20.7109C11.5082 19.054 11.0085 17.0595 11.2305 15.0732C11.4624 12.9994 12.4627 11.0827 14.0391 9.6875C15.6152 8.29259 17.6575 7.51489 19.7773 7.5Z" fill="#0F0F0F"/>
</svg>
