<svg width="32" height="32" viewBox="0 0 32 32" fill="none" xmlns="http://www.w3.org/2000/svg">
<path d="M10.7069 4.29297L16.7069 10.293C16.8944 10.4805 16.9998 10.7348 16.9998 11C16.9998 11.2652 16.8945 11.5195 16.707 11.7071C16.5195 11.8946 16.2651 11.9999 16 11.9999C15.7348 11.9999 15.4804 11.8946 15.2929 11.7071L10.9999 7.41406V27C10.9999 27.2652 10.8946 27.5196 10.707 27.7071C10.5195 27.8946 10.2651 28 9.99992 28C9.73471 28 9.48035 27.8946 9.29282 27.7071C9.10528 27.5196 8.99992 27.2652 8.99992 27V7.41403L4.70692 11.707C4.61407 11.7999 4.50385 11.8735 4.38253 11.9238C4.26122 11.974 4.1312 11.9999 3.99989 11.9999C3.7347 11.9999 3.48038 11.8945 3.29286 11.707C3.20001 11.6142 3.12636 11.504 3.07611 11.3826C3.02586 11.2613 3 11.1313 3 11C3 10.8687 3.02586 10.7387 3.07611 10.6174C3.12636 10.496 3.20001 10.3858 3.29286 10.293L9.29286 4.29297C9.38569 4.20009 9.49591 4.12641 9.61723 4.07614C9.73854 4.02587 9.86857 4 9.99989 4C10.1312 4 10.2612 4.02587 10.3826 4.07614C10.5039 4.12641 10.6141 4.20009 10.7069 4.29297ZM14.9998 14C14.4475 14 13.9998 14.4477 13.9998 15C13.9998 15.5523 14.4475 16 14.9998 16H17.9998C18.552 16 18.9998 15.5523 18.9998 15C18.9998 14.4477 18.552 14 17.9998 14H14.9998ZM13.9998 19C13.9998 18.4477 14.4475 18 14.9998 18H20.9998C21.552 18 21.9998 18.4477 21.9998 19C21.9998 19.5523 21.552 20 20.9998 20H14.9998C14.4475 20 13.9998 19.5523 13.9998 19ZM14.9998 22C14.4475 22 13.9998 22.4477 13.9998 23C13.9998 23.5523 14.4475 24 14.9998 24H24.9998C25.552 24 25.9998 23.5523 25.9998 23C25.9998 22.4477 25.552 22 24.9998 22H14.9998ZM13.9998 27C13.9998 26.4477 14.4475 26 14.9998 26H27.9998C28.552 26 28.9998 26.4477 28.9998 27C28.9998 27.5523 28.552 28 27.9998 28H14.9998C14.4475 28 13.9998 27.5523 13.9998 27Z" fill="#0F0F0F"/>
</svg>
