<svg width="32" height="32" viewBox="0 0 32 32" fill="none" xmlns="http://www.w3.org/2000/svg">
<path d="M18.4678 27.7344C17.9346 27.7344 17.5029 27.5059 17.0205 27.0488L11.2568 21.5771C11.1553 21.4883 11.0283 21.4375 10.8633 21.4375H6.92773C5.37891 21.4375 4.43945 20.498 4.43945 18.873V13.8838C4.43945 12.2588 5.37891 11.3193 6.92773 11.3193H10.8633C11.0283 11.3193 11.1553 11.2686 11.2568 11.1797L17.0205 5.68262C17.541 5.1875 17.9219 4.94629 18.4551 4.94629C19.2168 4.94629 19.7119 5.54297 19.7119 6.2666V26.4648C19.7119 27.1885 19.2168 27.7344 18.4678 27.7344ZM25.7168 21.7803C25.3105 21.4883 25.2344 21.0186 25.5264 20.6123C26.3135 19.5459 26.8467 17.9844 26.8467 16.334C26.8467 14.6963 26.3262 13.1475 25.5518 12.0811C25.2344 11.6621 25.3105 11.1797 25.7168 10.8877C26.0596 10.6465 26.5166 10.7227 26.7959 11.1035C27.7861 12.4238 28.4082 14.3154 28.4082 16.334C28.4082 18.3398 27.7861 20.2568 26.7959 21.5645C26.5166 21.9453 26.0469 22.0215 25.7168 21.7803Z" fill="black"/>
</svg>
