<svg width="32" height="32" viewBox="0 0 32 32" fill="none" xmlns="http://www.w3.org/2000/svg">
<path d="M22.4492 20.498V6.2666C22.4492 5.54297 21.9414 4.94629 21.1797 4.94629C20.6465 4.94629 20.2783 5.2002 19.7451 5.68262L13.4482 11.3447L14.54 12.4492L20.4053 7.0918C20.4941 7.02832 20.5703 6.96484 20.6719 6.96484C20.7988 6.96484 20.875 7.04102 20.875 7.16797V18.9238L22.4492 20.498ZM26.1562 28.6357C26.4609 28.9404 26.9434 28.9404 27.2354 28.6357C27.5273 28.3311 27.5273 27.8613 27.2354 27.5693L6.11035 6.45703C5.81836 6.16504 5.33594 6.15234 5.03125 6.45703C4.73926 6.73633 4.73926 7.23145 5.03125 7.52344L26.1562 28.6357ZM9.32227 21.4375H13.2324C13.3975 21.4375 13.5117 21.4883 13.626 21.5898L19.7451 27.0488C20.2402 27.4932 20.6592 27.7344 21.1924 27.7344C21.624 27.7344 22.0049 27.5186 22.2334 27.125L20.9639 25.9316L14.4766 20.2568C14.1846 20.0029 13.9941 19.9521 13.626 19.9521H9.38574C8.81445 19.9521 8.57324 19.7109 8.57324 19.1396V13.5029L7.39258 12.1064C7.11328 12.6016 6.99902 13.1602 6.99902 13.8203V19.0254C6.99902 20.6631 7.76074 21.4375 9.32227 21.4375Z" fill="black"/>
</svg>
