<svg width="32" height="32" viewBox="0 0 32 32" fill="none" xmlns="http://www.w3.org/2000/svg">
<path d="M6 14.6V17.4C6 17.7314 6.26863 18 6.6 18H9.58579C9.851 18 10.1054 18.1054 10.2929 18.2929L14 22V10L10.2929 13.7071C10.1054 13.8946 9.851 14 9.58579 14H6.6C6.26863 14 6 14.2686 6 14.6Z" fill="#0F0F0F"/>
<path d="M16.979 3.34618C16.7533 3.25113 16.5044 3.22508 16.2639 3.27131C16.0233 3.31754 15.8019 3.43398 15.6274 3.60594L8.69873 10.2495H5C4.27088 10.2502 3.57184 10.5402 3.05628 11.0558C2.54071 11.5713 2.25074 12.2704 2.25 12.9995V18.9995C2.25074 19.7286 2.54071 20.4277 3.05628 20.9432C3.57184 21.4588 4.27088 21.7488 5 21.7495H8.69873L15.6157 28.3823C15.7905 28.5572 16.0133 28.6763 16.2558 28.7246C16.4983 28.7729 16.7497 28.7481 16.9782 28.6535C17.2066 28.5589 17.4019 28.3987 17.5393 28.1931C17.6767 27.9875 17.75 27.7458 17.75 27.4985V4.50047C17.7504 4.25331 17.6773 4.0116 17.5401 3.80607C17.4028 3.60053 17.2075 3.44046 16.979 3.34618ZM16.25 26.9126L9.519 20.4585C9.37938 20.3246 9.19346 20.2497 9 20.2495H5C4.66857 20.2492 4.35081 20.1174 4.11646 19.883C3.8821 19.6487 3.75031 19.3309 3.75 18.9995V12.9995C3.75031 12.6681 3.8821 12.3503 4.11646 12.1159C4.35081 11.8816 4.66857 11.7498 5 11.7495H9C9.19346 11.7493 9.37938 11.6744 9.519 11.5405L16.25 5.08638V26.9126Z" fill="#0F0F0F"/>
<path d="M21.4546 10.9849C21.3181 11.1294 21.2447 11.3222 21.2504 11.5209C21.256 11.7196 21.3404 11.9079 21.4849 12.0444C22.0362 12.5454 22.4777 13.1553 22.7816 13.8355C23.0854 14.5158 23.2449 15.2516 23.25 15.9966C23.2416 16.7419 23.0806 17.4775 22.777 18.1582C22.4734 18.8389 22.0337 19.4503 21.4849 19.9546C21.4133 20.0222 21.3558 20.1033 21.3155 20.1932C21.2753 20.2831 21.2532 20.38 21.2504 20.4784C21.2477 20.5769 21.2643 20.6749 21.2994 20.7669C21.3345 20.8589 21.3874 20.9431 21.4551 21.0146C21.5227 21.0862 21.6038 21.1437 21.6937 21.184C21.7836 21.2242 21.8805 21.2463 21.9789 21.2491C22.0774 21.2518 22.1754 21.2352 22.2674 21.2001C22.3594 21.165 22.4436 21.1121 22.5151 21.0444C23.2122 20.4011 23.7701 19.6219 24.1545 18.7547C24.5388 17.8876 24.7415 16.9509 24.75 16.0024C24.7466 15.0522 24.5462 14.1131 24.1616 13.2443C23.7769 12.3755 23.2163 11.5958 22.5151 10.9546C22.4436 10.8867 22.3594 10.8336 22.2673 10.7984C22.1753 10.7631 22.0771 10.7464 21.9786 10.7492C21.88 10.7521 21.783 10.7743 21.6931 10.8148C21.6031 10.8552 21.5221 10.913 21.4546 10.9849Z" fill="#0F0F0F"/>
<path d="M26.6008 9.29818C26.6929 9.33351 26.7771 9.38666 26.8486 9.45458C27.7588 10.2862 28.4866 11.2976 28.986 12.4248C29.4854 13.552 29.7455 14.7706 29.75 16.0034C29.7386 17.234 29.4752 18.4493 28.9763 19.5742C28.4773 20.6991 27.7532 21.71 26.8486 22.5444C26.7771 22.6124 26.6929 22.6655 26.6008 22.7008C26.5088 22.7362 26.4106 22.753 26.312 22.7503C26.2134 22.7477 26.1163 22.7256 26.0263 22.6854C25.9363 22.6451 25.855 22.5875 25.7873 22.5159C25.7195 22.4442 25.6666 22.3599 25.6315 22.2677C25.5964 22.1755 25.5798 22.0774 25.5827 21.9788C25.5855 21.8802 25.6078 21.7832 25.6483 21.6932C25.6887 21.6033 25.7465 21.5222 25.8184 21.4546C26.5748 20.7588 27.1808 19.9155 27.599 18.9767C28.0172 18.0378 28.2387 17.0233 28.25 15.9956C28.2435 14.9682 28.0241 13.9534 27.6055 13.0151C27.187 12.0769 26.5785 11.2356 25.8184 10.5444C25.7465 10.4768 25.6887 10.3958 25.6483 10.3058C25.6078 10.2159 25.5855 10.1188 25.5827 10.0202C25.5798 9.92165 25.5964 9.82347 25.6315 9.73131C25.6666 9.63914 25.7195 9.55482 25.7873 9.48315C25.855 9.41148 25.9363 9.35388 26.0263 9.31365C26.1163 9.27341 26.2134 9.25134 26.312 9.24868C26.4106 9.24603 26.5088 9.26285 26.6008 9.29818Z" fill="#0F0F0F"/>
</svg>
