<svg width="37" height="32" viewBox="0 0 37 32" fill="none" xmlns="http://www.w3.org/2000/svg">
<path d="M31.7031 28.623C31.3223 28.3564 31.2588 27.8867 31.5381 27.4805C33.7344 24.4971 34.9658 20.5488 34.9658 16.334C34.9658 12.1191 33.6074 8.29785 31.5508 5.2002C31.2715 4.78125 31.335 4.29883 31.7031 4.03223C32.0713 3.77832 32.541 3.87988 32.8203 4.28613C35.1309 7.59961 36.5146 11.7891 36.5146 16.334C36.5146 20.8789 35.1562 25.0684 32.8203 28.3818C32.541 28.7754 32.0586 28.877 31.7031 28.623ZM2.59277 21.4375C1.03125 21.4375 0.269531 20.6631 0.269531 19.0254V13.7314C0.269531 12.0938 1.03125 11.3193 2.59277 11.3193H6.49023C6.65527 11.3193 6.78223 11.2686 6.88379 11.1797L13.0029 5.68262C13.5488 5.2002 13.917 4.94629 14.4375 4.94629C15.1992 4.94629 15.707 5.54297 15.707 6.2666V26.4648C15.707 27.1885 15.1992 27.7344 14.4629 27.7344C13.9297 27.7344 13.498 27.4932 13.0029 27.0488L6.88379 21.5771C6.78223 21.4883 6.65527 21.4375 6.49023 21.4375H2.59277ZM2.64355 19.9521H6.8457C7.21387 19.9521 7.48047 20.0156 7.78516 20.2949L13.6758 25.5889C13.7773 25.6777 13.8662 25.7158 13.9424 25.7158C14.0693 25.7158 14.1328 25.627 14.1328 25.5V7.16797C14.1328 7.04102 14.0566 6.96484 13.9424 6.96484C13.8281 6.96484 13.752 7.02832 13.6758 7.0918L7.78516 12.4619C7.46777 12.7539 7.21387 12.8047 6.8457 12.8047H2.64355C2.07227 12.8047 1.83105 13.0459 1.83105 13.6172V19.1396C1.83105 19.7109 2.07227 19.9521 2.64355 19.9521ZM26.6377 25.1826C26.2695 24.9287 26.2061 24.459 26.4854 24.0527C27.9834 21.9834 28.8467 19.2666 28.8467 16.334C28.8467 13.4014 27.9072 10.748 26.498 8.62793C26.2188 8.20898 26.2695 7.73926 26.6377 7.48535C27.0186 7.23145 27.4756 7.32031 27.7549 7.70117C29.4814 9.99902 30.4209 13.0586 30.4209 16.334C30.4209 19.6094 29.4561 22.6436 27.7549 24.9541C27.4756 25.335 27.0186 25.4365 26.6377 25.1826ZM21.623 21.7803C21.2168 21.4883 21.1406 21.0186 21.4326 20.6123C22.2197 19.5459 22.7529 17.9844 22.7529 16.334C22.7529 14.6963 22.2324 13.1475 21.458 12.0811C21.1406 11.6621 21.2168 11.1797 21.623 10.8877C21.9658 10.6465 22.4229 10.7227 22.7021 11.1035C23.6924 12.4238 24.3145 14.3154 24.3145 16.334C24.3145 18.3398 23.6924 20.2568 22.7021 21.5645C22.4229 21.9453 21.9531 22.0215 21.623 21.7803Z" fill="black"/>
</svg>
