<svg width="32" height="32" viewBox="0 0 32 32" fill="none" xmlns="http://www.w3.org/2000/svg">
<path d="M15 5.5C15.2761 5.5 15.5 5.72386 15.5 6C15.5 6.27614 15.2761 6.5 15 6.5H7C5.067 6.5 3.5 8.067 3.5 10V22C3.5 23.933 5.067 25.5 7 25.5H25C26.933 25.5 28.5 23.933 28.5 22V13.5C28.5 13.2239 28.7239 13 29 13C29.2761 13 29.5 13.2239 29.5 13.5V22C29.5 24.4853 27.4853 26.5 25 26.5H7C4.51472 26.5 2.5 24.4853 2.5 22V10C2.5 7.51472 4.51472 5.5 7 5.5H15Z" fill="#0F0F0F"/>
<path d="M16 11C16.2761 11 16.5 11.2239 16.5 11.5V20.5C16.5 20.7761 16.2761 21 16 21C15.7239 21 15.5 20.7761 15.5 20.5V11.5C15.5 11.2239 15.7239 11 16 11Z" fill="#0F0F0F"/>
<path d="M11 13.5C11.2761 13.5 11.5 13.7239 11.5 14V18C11.5 18.2761 11.2761 18.5 11 18.5C10.7239 18.5 10.5 18.2761 10.5 18V14C10.5 13.7239 10.7239 13.5 11 13.5Z" fill="#0F0F0F"/>
<path d="M21 13.5C21.2761 13.5 21.5 13.7239 21.5 14V18C21.5 18.2761 21.2761 18.5 21 18.5C20.7239 18.5 20.5 18.2761 20.5 18V14C20.5 13.7239 20.7239 13.5 21 13.5Z" fill="#0F0F0F"/>
<path fill-rule="evenodd" clip-rule="evenodd" d="M25 0.5C25.246 0.5 25.4557 0.6789 25.4941 0.921875C25.6986 2.21663 25.8808 3.15444 26.1064 3.85547C26.3299 4.54967 26.5838 4.972 26.9062 5.26758C27.2314 5.56566 27.6724 5.77737 28.3535 5.96387C29.0412 6.15217 29.9157 6.30112 31.0869 6.50781C31.3258 6.55 31.5 6.7574 31.5 7C31.5 7.2426 31.3258 7.45 31.0869 7.49219C29.9157 7.69888 29.0412 7.84783 28.3535 8.03613C27.6724 8.22262 27.2314 8.43434 26.9062 8.73242C26.5838 9.028 26.3299 9.45033 26.1064 10.1445C25.8808 10.8456 25.6986 11.7834 25.4941 13.0781C25.4557 13.3211 25.246 13.5 25 13.5C24.754 13.5 24.5443 13.3211 24.5059 13.0781C24.3014 11.7834 24.1192 10.8456 23.8936 10.1445C23.6701 9.45033 23.4162 9.028 23.0938 8.73242C22.7686 8.43434 22.3276 8.22262 21.6465 8.03613C20.9588 7.84783 20.0843 7.69888 18.9131 7.49219C18.6742 7.45 18.5 7.2426 18.5 7C18.5 6.7574 18.6742 6.55 18.9131 6.50781C20.0843 6.30112 20.9588 6.15217 21.6465 5.96387C22.3276 5.77737 22.7686 5.56566 23.0938 5.26758C23.4162 4.972 23.6701 4.54967 23.8936 3.85547C24.1192 3.15444 24.3014 2.21663 24.5059 0.921875L24.5283 0.833984C24.5975 0.636985 24.7848 0.5 25 0.5ZM25 3.62207C24.9504 3.81278 24.9001 3.993 24.8457 4.16211C24.5919 4.9507 24.2652 5.55052 23.7695 6.00488C23.2766 6.45675 22.6608 6.72317 21.9102 6.92871C21.8165 6.95436 21.7189 6.97562 21.6191 7C21.7189 7.02438 21.8165 7.04564 21.9102 7.07129C22.6608 7.27683 23.2766 7.54325 23.7695 7.99512C24.2652 8.44948 24.5919 9.0493 24.8457 9.83789C24.9 10.0067 24.9505 10.1866 25 10.377C25.0495 10.1866 25.1 10.0067 25.1543 9.83789C25.4081 9.0493 25.7348 8.44948 26.2305 7.99512C26.7234 7.54325 27.3392 7.27683 28.0898 7.07129C28.1833 7.04572 28.2805 7.02431 28.3799 7C28.2805 6.97569 28.1833 6.95428 28.0898 6.92871C27.3392 6.72317 26.7234 6.45675 26.2305 6.00488C25.7348 5.55052 25.4081 4.9507 25.1543 4.16211C25.0999 3.993 25.0496 3.81278 25 3.62207Z" fill="#0F0F0F"/>
</svg>
