<svg width="32" height="32" viewBox="0 0 32 32" fill="none" xmlns="http://www.w3.org/2000/svg">
<path d="M22.3052 29.5C19.9321 29.5 15.5005 25.54 15.5005 16C15.5005 6.45996 19.9321 2.5 22.3051 2.50005H23.772C24.4954 2.50074 25.189 2.78843 25.7006 3.29998C26.2121 3.81153 26.4998 4.50513 26.5005 5.22857L26.5005 8.669C26.5066 9.40102 26.2268 10.1065 25.7207 10.6354C25.2146 11.1644 24.5221 11.4749 23.7905 11.501L21.9233 11.5C20.9442 12.791 20.4415 14.3808 20.5004 16C20.4415 17.6201 20.9464 19.2106 21.9292 20.5H23.7817C24.5004 20.4986 25.1902 20.7823 25.6999 21.2889C26.2096 21.7955 26.4975 22.4835 26.5005 23.2021V26.7715C26.4998 27.4949 26.2121 28.1885 25.7006 28.7001C25.189 29.2116 24.4954 29.4993 23.772 29.5H22.3052ZM24.9937 4.00684C24.6696 3.68279 24.2302 3.50051 23.772 3.5L22.3051 3.5C20.5971 3.5 16.5004 7.09668 16.5004 16C16.5004 24.9033 20.5971 28.5 22.3051 28.5H23.772C24.2302 28.4995 24.6696 28.3172 24.9936 27.9932C25.3177 27.6691 25.5 27.2298 25.5005 26.7715V23.2021C25.4977 22.7487 25.3152 22.3148 24.993 21.9957C24.6708 21.6767 24.2352 21.4984 23.7817 21.4999H21.8432C20.8422 21.4999 19.5004 18.7812 19.5004 15.9999C19.5004 13.2187 20.8384 10.4999 21.8374 10.4999L23.7905 10.5009C24.2559 10.4726 24.6927 10.2668 25.0108 9.92594C25.3289 9.58509 25.5042 9.13519 25.5005 8.66895L25.5005 5.22852C25.5 4.77024 25.3177 4.33088 24.9937 4.00684Z" fill="#0F0F0F"/>
<path d="M3 11C2.72386 11 2.5 11.2239 2.5 11.5C2.5 11.7761 2.72386 12 3 12H12.5C12.7761 12 13 11.7761 13 11.5C13 11.2239 12.7761 11 12.5 11H3Z" fill="#0F0F0F"/>
<path d="M6.5 16C6.5 15.7239 6.72386 15.5 7 15.5L12.5 15.5C12.7761 15.5 13 15.7239 13 16C13 16.2761 12.7761 16.5 12.5 16.5L7 16.5C6.72386 16.5 6.5 16.2761 6.5 16Z" fill="#0F0F0F"/>
<path d="M11 20C10.7239 20 10.5 20.2239 10.5 20.5C10.5 20.7761 10.7239 21 11 21H12.5C12.7761 21 13 20.7761 13 20.5C13 20.2239 12.7761 20 12.5 20H11Z" fill="#0F0F0F"/>
</svg>
