<svg width="32" height="32" viewBox="0 0 32 32" fill="none" xmlns="http://www.w3.org/2000/svg">
<path d="M3.75 7C3.75 5.20507 5.20507 3.75 7 3.75H25C26.7949 3.75 28.25 5.20507 28.25 7V18C28.25 18.4142 28.5858 18.75 29 18.75C29.4142 18.75 29.75 18.4142 29.75 18V7C29.75 4.37665 27.6234 2.25 25 2.25H7C4.37665 2.25 2.25 4.37665 2.25 7V25C2.25 27.6234 4.37665 29.75 7 29.75H15C15.4142 29.75 15.75 29.4142 15.75 29C15.75 28.5858 15.4142 28.25 15 28.25H7C5.20507 28.25 3.75 26.7949 3.75 25V7ZM16.1111 6.25C16.4075 6.25 16.6761 6.42455 16.7965 6.6954L23.9076 22.6954C24.0758 23.0739 23.9053 23.5171 23.5268 23.6854C23.1483 23.8536 22.7051 23.6831 22.5369 23.3046L20.3644 18.4167H11.8578L9.68536 23.3046C9.51713 23.6831 9.07391 23.8536 8.6954 23.6854C8.31688 23.5171 8.14641 23.0739 8.31464 22.6954L15.4258 6.6954C15.5461 6.42455 15.8147 6.25 16.1111 6.25ZM16.1111 8.84666L12.5244 16.9167H19.6978L16.1111 8.84666ZM29.5694 22.0119C29.839 22.3264 29.8026 22.7999 29.4881 23.0694L22.5584 29.0092C22.2212 29.2982 21.7183 29.2789 21.4042 28.9648L18.4697 26.0303C18.1768 25.7374 18.1768 25.2626 18.4697 24.9697C18.7626 24.6768 19.2374 24.6768 19.5303 24.9697L22.0392 27.4786L28.5119 21.9306C28.8264 21.661 29.2999 21.6974 29.5694 22.0119Z" fill="#0F0F0F"/>
</svg>
