<svg width="32" height="32" viewBox="0 0 32 32" fill="none" xmlns="http://www.w3.org/2000/svg">
<path d="M7 4C5.34315 4 4 5.34315 4 7V25C4 26.6569 5.34315 28 7 28H15C15.5523 28 16 28.4477 16 29C16 29.5523 15.5523 30 15 30H7C4.23858 30 2 27.7614 2 25V7C2 4.23858 4.23858 2 7 2H25C27.7614 2 30 4.23858 30 7V18C30 18.5523 29.5523 19 29 19C28.4477 19 28 18.5523 28 18V7C28 5.34315 26.6569 4 25 4H7Z" fill="#0F0F0F"/>
<path d="M16.1111 6C16.5063 6 16.8644 6.23273 17.0249 6.59386L24.136 22.5939C24.3603 23.0985 24.133 23.6895 23.6284 23.9138C23.1237 24.1381 22.5327 23.9108 22.3084 23.4061L20.202 18.6667H12.0202L9.91381 23.4061C9.68951 23.9108 9.09855 24.1381 8.59386 23.9138C8.08918 23.6895 7.86188 23.0985 8.08619 22.5939L15.1973 6.59386C15.3578 6.23273 15.7159 6 16.1111 6ZM19.3131 16.6667L16.1111 9.46221L12.9091 16.6667H19.3131Z" fill="#0F0F0F"/>
<path d="M29.6508 23.2593C30.0701 22.8998 30.1187 22.2685 29.7593 21.8492C29.3998 21.4299 28.7685 21.3813 28.3492 21.7407L22.0523 27.1381L19.7071 24.7929C19.3166 24.4024 18.6834 24.4024 18.2929 24.7929C17.9024 25.1834 17.9024 25.8166 18.2929 26.2071L21.2274 29.1416C21.6339 29.5481 22.2847 29.5731 22.7211 29.199L29.6508 23.2593Z" fill="#0F0F0F"/>
</svg>
