<svg width="32" height="32" viewBox="0 0 32 32" fill="none" xmlns="http://www.w3.org/2000/svg">
<path d="M28.9986 6H25.9986V3C25.9986 2.73478 25.8933 2.48043 25.7058 2.29289C25.5182 2.10536 25.2639 2 24.9986 2C24.7334 2 24.4791 2.10536 24.2915 2.29289C24.104 2.48043 23.9986 2.73478 23.9986 3V6H20.9986C20.7334 6 20.4791 6.10536 20.2915 6.29289C20.104 6.48043 19.9986 6.73478 19.9986 7C19.9986 7.26522 20.104 7.51957 20.2915 7.70711C20.4791 7.89464 20.7334 8 20.9986 8H23.9986V11C23.9986 11.2652 24.104 11.5196 24.2915 11.7071C24.4791 11.8946 24.7334 12 24.9986 12C25.2639 12 25.5182 11.8946 25.7058 11.7071C25.8933 11.5196 25.9986 11.2652 25.9986 11V8H28.9986C29.2639 8 29.5182 7.89464 29.7058 7.70711C29.8933 7.51957 29.9986 7.26522 29.9986 7C29.9986 6.73478 29.8933 6.48043 29.7058 6.29289C29.5182 6.10536 29.2639 6 28.9986 6Z" fill="#0F0F0F"/>
<path d="M27.88 14.0247C27.7491 14.0353 27.6215 14.0716 27.5046 14.1315C27.3876 14.1914 27.2837 14.2738 27.1986 14.3739C27.1135 14.474 27.049 14.5899 27.0087 14.715C26.9685 14.8401 26.9533 14.9718 26.9639 15.1028C26.988 15.3987 27 15.6978 27 16C26.9995 17.8971 26.5085 19.7618 25.5747 21.4131C24.6409 23.0644 23.296 24.4462 21.6706 25.4244C20.0451 26.4026 18.1944 26.9439 16.2981 26.9958C14.4017 27.0478 12.5242 26.6085 10.8476 25.7207C10.6838 25.6336 10.4988 25.5938 10.3136 25.6058C10.1284 25.6177 9.95014 25.6811 9.79885 25.7886C9.06225 26.3105 8.2266 26.6762 7.34335 26.8629C6.46011 27.0497 5.54798 27.0537 4.66315 26.8746C5.84244 25.9706 6.71383 24.7246 7.15825 23.3067C7.2154 23.1535 7.23416 22.9886 7.21287 22.8265C7.19159 22.6644 7.13091 22.51 7.03615 22.3767C5.86576 20.7312 5.17088 18.7952 5.02765 16.781C4.88441 14.7668 5.29835 12.752 6.2241 10.9574C7.14986 9.16281 8.55171 7.65764 10.2761 6.60683C12.0004 5.55602 13.9807 5.00011 16 5C16.3087 5 16.6152 5.0127 16.917 5.0376C17.0482 5.04991 17.1804 5.03592 17.306 4.99645C17.4317 4.95697 17.5482 4.89281 17.6487 4.80773C17.7492 4.72265 17.8317 4.61835 17.8913 4.50096C17.951 4.38357 17.9866 4.25544 17.9961 4.1241C18.0071 3.99323 17.9922 3.86148 17.9522 3.73638C17.9123 3.61128 17.8481 3.49527 17.7633 3.39498C17.6785 3.29469 17.5748 3.21209 17.4581 3.15188C17.3414 3.09168 17.2139 3.05505 17.083 3.0441C16.7262 3.0147 16.3652 3 16 3C13.6604 3.00011 11.3641 3.63157 9.35338 4.82778C7.34265 6.02399 5.69197 7.74063 4.57541 9.79667C3.45885 11.8527 2.9178 14.1719 3.00931 16.5098C3.10082 18.8477 3.8215 21.1175 5.09535 23.08C4.72073 24.1265 3.98731 25.0064 3.02535 25.5634C2.87195 25.6606 2.73135 25.75 2.60935 25.8403C2.39864 25.9929 2.23208 26.1985 2.12659 26.4364C2.0211 26.6742 1.98044 26.9357 2.00875 27.1943C2.03655 27.4552 2.13187 27.7044 2.28531 27.9173C2.43874 28.1301 2.645 28.2993 2.88375 28.4082C3.864 28.814 4.91661 29.016 5.97745 29.0019C7.55355 29.0078 9.10043 28.5766 10.4462 27.7563C12.4279 28.6917 14.6138 29.1111 16.801 28.9756C18.9881 28.84 21.1055 28.154 22.9565 26.9811C24.8076 25.8082 26.3322 24.1866 27.3887 22.2668C28.4453 20.347 28.9996 18.1913 29 16C29 15.6431 28.986 15.2898 28.958 14.94C28.9365 14.6757 28.8108 14.4307 28.6086 14.2591C28.4064 14.0875 28.1444 14.0031 27.88 14.0247Z" fill="#0F0F0F"/>
</svg>
