<svg width="32" height="32" viewBox="0 0 32 32" fill="none" xmlns="http://www.w3.org/2000/svg">
<path d="M16.5 29.0801C9.53027 29.0801 3.7666 23.3164 3.7666 16.3467C3.7666 9.37695 9.51758 3.61328 16.4873 3.61328C23.4697 3.61328 29.2334 9.37695 29.2334 16.3467C29.2334 23.3164 23.4697 29.0801 16.5 29.0801ZM16.5 27.4424C22.6445 27.4424 27.5957 22.4912 27.5957 16.3467C27.583 10.2021 22.6318 5.26367 16.4873 5.26367C10.3555 5.26367 5.41699 10.2021 5.41699 16.3467C5.41699 22.4912 10.3555 27.4424 16.5 27.4424ZM12.0059 19.7109V12.9951C12.0059 12.2842 12.4502 11.8525 13.1611 11.8525H19.8389C20.5625 11.8525 20.9941 12.2842 20.9941 12.9951V19.7109C20.9941 20.4092 20.5625 20.8408 19.8389 20.8408H13.1611C12.4502 20.8408 12.0059 20.4092 12.0059 19.7109Z" fill="black"/>
</svg>
