<svg width="32" height="32" viewBox="0 0 32 32" fill="none" xmlns="http://www.w3.org/2000/svg">
<path d="M28.862 11.9085C27.5736 12.9392 25.9621 13.4809 24.3127 13.4381C22.6633 13.3952 21.0821 12.7704 19.849 11.6741C18.6158 10.5779 17.81 9.08092 17.5741 7.44789C17.3382 5.81486 17.6874 4.15102 18.5599 2.75062C15.6548 2.18868 12.6456 2.59642 9.99478 3.91117C7.34398 5.22591 5.19835 7.37489 3.88773 10.0277C2.57711 12.6806 2.17405 15.6905 2.74051 18.5947C3.30698 21.4989 4.8116 24.1367 7.02309 26.1025C9.23458 28.0684 12.0305 29.2535 14.9811 29.4757C17.9317 29.6979 20.8736 28.9449 23.3546 27.3324C25.8355 25.7199 27.7182 23.3373 28.7133 20.5506C29.7083 17.764 29.7606 14.7277 28.862 11.9085ZM15.7499 9.5C15.9971 9.5 16.2388 9.57331 16.4443 9.71066C16.6499 9.84802 16.8101 10.0432 16.9047 10.2716C16.9993 10.5001 17.0241 10.7514 16.9758 10.9939C16.9276 11.2363 16.8086 11.4591 16.6337 11.6339C16.4589 11.8087 16.2362 11.9278 15.9937 11.976C15.7513 12.0242 15.4999 11.9995 15.2715 11.9049C15.0431 11.8102 14.8479 11.65 14.7105 11.4445C14.5732 11.2389 14.4999 10.9972 14.4999 10.75C14.4999 10.4185 14.6316 10.1005 14.866 9.86612C15.1004 9.6317 15.4183 9.5 15.7499 9.5ZM17.9999 21.9999H13.9999C13.7346 21.9999 13.4803 21.8946 13.2928 21.707C13.1052 21.5195 12.9999 21.2652 12.9999 20.9999C12.9999 20.7347 13.1052 20.4804 13.2928 20.2928C13.4803 20.1053 13.7346 19.9999 13.9999 19.9999H14.9999V16C14.7346 16 14.4803 15.8946 14.2928 15.7071C14.1052 15.5196 13.9999 15.2652 13.9999 15C13.9999 14.7348 14.1052 14.4804 14.2928 14.2929C14.4803 14.1054 14.7346 14 14.9999 14H15.9999C16.1312 13.9999 16.2613 14.0257 16.3826 14.076C16.504 14.1262 16.6143 14.1999 16.7071 14.2927C16.8 14.3856 16.8737 14.4959 16.9239 14.6172C16.9741 14.7386 16.9999 14.8687 16.9999 15V20H17.9999C18.2651 20 18.5194 20.1054 18.707 20.2929C18.8945 20.4804 18.9999 20.7348 18.9999 21C18.9999 21.2652 18.8945 21.5196 18.707 21.7071C18.5194 21.8946 18.2651 21.9999 17.9999 21.9999Z" fill="#0F0F0F"/>
<path d="M21.4307 10H26.8802C27.5119 10.0118 28.1261 9.79169 28.6065 9.38134C29.087 8.97098 29.4005 8.39881 29.4877 7.773C29.5567 7.13375 29.3763 6.49252 28.984 5.98306C28.5918 5.47359 28.018 5.13521 27.3824 5.0385C27.1499 4.45715 26.7543 3.95541 26.2432 3.59373C25.7321 3.23205 25.1273 3.02586 24.5018 3C23.6607 3.02939 22.8641 3.38512 22.2809 3.9918C21.6976 4.59848 21.3735 5.40843 21.3772 6.25C21.0977 6.25038 20.8217 6.31315 20.5695 6.43375C20.3173 6.55435 20.0952 6.72974 19.9194 6.9471C19.7436 7.16447 19.6185 7.41835 19.5533 7.6902C19.4881 7.96206 19.4844 8.24504 19.5425 8.5185C19.6403 8.94416 19.8811 9.32341 20.2247 9.59301C20.5683 9.86261 20.994 10.0063 21.4307 10Z" fill="#0F0F0F"/>
</svg>
