<svg width="32" height="32" viewBox="0 0 32 32" fill="none" xmlns="http://www.w3.org/2000/svg">
<path d="M16.5 29.0674C9.53027 29.0674 3.7666 23.3037 3.7666 16.334C3.7666 9.35156 9.51758 3.60059 16.4873 3.60059C23.4697 3.60059 29.2334 9.35156 29.2334 16.334C29.2334 23.3037 23.4697 29.0674 16.5 29.0674ZM16.5 27.417C22.6445 27.417 27.5957 22.4658 27.5957 16.334C27.5957 10.1895 22.6318 5.23828 16.4873 5.23828C10.3555 5.23828 5.41699 10.1895 5.41699 16.334C5.41699 22.4658 10.3555 27.417 16.5 27.417ZM23.2158 15.877C23.2158 14.2393 22.6318 12.7285 21.54 11.5859C21.2861 11.2939 21.248 10.9385 21.4639 10.6973C21.7051 10.418 22.1113 10.418 22.3779 10.7227C23.6982 12.1064 24.4219 13.9346 24.4219 15.877C24.4219 17.832 23.6982 19.6475 22.3779 21.0439C22.1113 21.3232 21.7051 21.3486 21.4639 21.0693C21.248 20.8154 21.2734 20.4854 21.54 20.1807C22.6318 19.0254 23.2158 17.5273 23.2158 15.877ZM8.56543 15.877C8.56543 13.9346 9.28906 12.1064 10.6094 10.7227C10.876 10.418 11.2822 10.418 11.5234 10.6973C11.7393 10.9385 11.7012 11.2939 11.4473 11.5859C10.3555 12.7285 9.77148 14.2393 9.77148 15.877C9.77148 17.5273 10.3555 19.0254 11.4473 20.1807C11.7139 20.4854 11.7393 20.8154 11.5107 21.0693C11.2822 21.3486 10.876 21.3232 10.6094 21.0439C9.28906 19.6475 8.56543 17.832 8.56543 15.877ZM11.6885 15.877C11.6885 14.7725 12.082 13.7061 12.793 12.8809C13.0342 12.5762 13.4658 12.5508 13.7324 12.8555C13.9355 13.084 13.8975 13.4141 13.6562 13.7188C13.1484 14.3662 12.8818 15.0898 12.8818 15.877C12.8818 16.7402 13.1484 17.4639 13.6436 18.0225C13.9102 18.3525 13.9482 18.6699 13.7324 18.9238C13.4785 19.1904 13.0342 19.1904 12.793 18.8857C12.082 18.0479 11.6885 16.9814 11.6885 15.877ZM20.1055 15.877C20.1055 15.0898 19.8389 14.3662 19.3311 13.7188C19.0898 13.4141 19.0518 13.084 19.2549 12.8555C19.5215 12.5508 19.9531 12.5762 20.1943 12.8809C20.9053 13.7061 21.2988 14.7725 21.2988 15.877C21.2988 16.9814 20.9053 18.0479 20.1943 18.8857C19.9531 19.1904 19.5088 19.1904 19.2549 18.9238C19.0391 18.6699 19.0771 18.3525 19.3438 18.0225C19.8389 17.4639 20.1055 16.7402 20.1055 15.877ZM15.1543 15.877C15.1543 15.1279 15.7383 14.5439 16.4873 14.5439C17.249 14.5439 17.833 15.1279 17.833 15.877C17.833 16.4102 17.5283 16.8672 17.0713 17.0703V24.1162C17.0713 24.4844 16.8428 24.7383 16.4873 24.7383C16.1572 24.7383 15.916 24.4717 15.916 24.1162V17.0703C15.459 16.8672 15.1543 16.4229 15.1543 15.877Z" fill="black"/>
</svg>
