<svg width="32" height="32" viewBox="0 0 32 32" fill="none" xmlns="http://www.w3.org/2000/svg">
<path d="M16.75 4C17.1642 4 17.5 4.33579 17.5 4.75C17.5 5.16421 17.1642 5.5 16.75 5.5H5.25C4.00736 5.5 3 6.50736 3 7.75V21.75L3.01172 21.9805C3.12714 23.1148 4.08517 24 5.25 24H6.25C6.66421 24 7 24.3358 7 24.75V28.1895L12.0312 24.1641L12.1367 24.0938C12.2473 24.0325 12.3722 24 12.5 24H27.25L27.4805 23.9883C28.6148 23.8729 29.5 22.9148 29.5 21.75V14.75C29.5 14.3358 29.8358 14 30.25 14C30.6642 14 31 14.3358 31 14.75V21.75C31 23.7562 29.4246 25.3945 27.4434 25.4951L27.25 25.5H12.7637L7.53125 29.6865C6.76371 30.3002 5.6504 29.8256 5.51367 28.9014L5.5 28.71V25.5H5.25C3.24378 25.5 1.60551 23.9246 1.50488 21.9434L1.5 21.75V7.75C1.5 5.67893 3.17893 4 5.25 4H16.75Z" fill="#0F0F0F"/>
<path d="M25.499 1.25C25.7228 1.25 25.9417 1.31882 26.126 1.44727C26.3099 1.57551 26.4508 1.75721 26.5283 1.96777L26.5312 1.97656L27.3779 4.37109H29.6982C29.9219 4.3802 30.138 4.45755 30.3164 4.59277C30.495 4.72816 30.6272 4.91528 30.6963 5.12793C30.7654 5.34087 30.768 5.56992 30.7031 5.78418C30.6401 5.99202 30.5166 6.17689 30.3486 6.31445L28.5254 7.87793L29.3203 10.3457L29.3252 10.3604C29.3851 10.5758 29.3775 10.8046 29.3037 11.0156C29.2298 11.2268 29.0932 11.4109 28.9121 11.542C28.7308 11.6733 28.5133 11.7456 28.29 11.75C28.0671 11.7543 27.8475 11.6905 27.6611 11.5664L27.6543 11.5615L25.5 10.0928L23.3389 11.5664C23.1525 11.6905 22.9329 11.7543 22.71 11.75C22.4867 11.7456 22.2692 11.6733 22.0879 11.542C21.9069 11.4109 21.7702 11.2268 21.6963 11.0156C21.6225 10.8046 21.6149 10.5758 21.6748 10.3604L21.6797 10.3457L22.4746 7.88086L20.6514 6.31445C20.4835 6.1769 20.3599 5.99198 20.2969 5.78418C20.232 5.56993 20.2346 5.34086 20.3037 5.12793C20.3728 4.91528 20.505 4.72816 20.6836 4.59277C20.862 4.45756 21.0781 4.38021 21.3018 4.37109H23.6396L24.4678 1.97461L24.4707 1.96777C24.5482 1.75733 24.6883 1.5755 24.8721 1.44727C25.0563 1.31884 25.2753 1.25007 25.499 1.25ZM24.9609 5.13965L24.252 4.89453L24.9561 5.1543C24.881 5.35759 24.7471 5.53397 24.5723 5.66113C24.3973 5.78835 24.1887 5.86122 23.9727 5.87012L23.957 5.87109H22.4375L23.6094 6.87793C23.7795 7.01683 23.9066 7.20179 23.9746 7.41113C24.0446 7.62683 24.0491 7.85896 23.9873 8.07715L23.9834 8.08984L23.4775 9.65625L24.8916 8.69238C25.0719 8.57206 25.2834 8.50782 25.5 8.50781C25.7165 8.50781 25.9281 8.57205 26.1084 8.69238L26.1152 8.69629L27.5225 9.65625L27.0078 8.05664L27.0039 8.04395C26.9451 7.83541 26.9496 7.61329 27.0166 7.40723C27.0816 7.20747 27.2024 7.03098 27.3643 6.89844L28.5625 5.87109H27.0645L27.0508 5.87012C26.8345 5.86186 26.6242 5.7897 26.4482 5.66211C26.2727 5.53477 26.1386 5.35778 26.0635 5.1543L26.0605 5.14453L25.5039 3.57031L24.9609 5.13965Z" fill="#0F0F0F"/>
</svg>
