<svg width="32" height="32" viewBox="0 0 32 32" fill="none" xmlns="http://www.w3.org/2000/svg">
<path d="M19.1768 4.57324L19.1143 4.74219C18.9662 5.19852 18.9616 5.68924 19.1006 6.14746L19.1582 6.3125C19.3006 6.68051 19.5342 7.00521 19.835 7.25879L19.834 7.25977L21.0293 8.28711L20.4912 9.95801L20.4707 10.0264C20.3427 10.4874 20.3587 10.977 20.5166 11.4287L20.5176 11.4297C20.6769 11.8845 20.9721 12.2753 21.3564 12.5537L21.5039 12.6523C21.8572 12.8695 22.2645 12.9917 22.6855 13L22.8643 12.9961C23.2793 12.9726 23.6826 12.8394 24.0312 12.6074C24.036 12.6043 24.0412 12.6008 24.0459 12.5977L25.5 11.6055L26.9502 12.5947L26.9688 12.6074C26.9762 12.6123 26.9847 12.6163 26.9922 12.6211C27.0027 12.6277 27.0128 12.6352 27.0234 12.6416L27.0283 12.6436C27.4139 12.8839 27.8603 13.0088 28.3145 13L28.4941 12.9893C28.9104 12.949 29.3075 12.7977 29.6445 12.5537L29.7842 12.4443C30.1004 12.1768 30.3439 11.8269 30.4834 11.4287C30.4867 11.4192 30.5 11.4211 30.5 11.4312V22C30.5 23.8727 29.0292 25.4016 27.1797 25.4951L27 25.5H12.4258L7.125 29.7412C6.51083 30.2322 5.61964 29.8522 5.51074 29.1123L5.5 28.96V25.5H5C3.12727 25.5 1.59842 24.0292 1.50488 22.1797L1.5 22V8C1.5 6.067 3.067 4.5 5 4.5H19.1295C19.1672 4.5 19.1911 4.53839 19.1768 4.57324Z" fill="#0F0F0F"/>
<path d="M25.499 1.5C25.6718 1.5 25.8412 1.5532 25.9834 1.65234C26.1252 1.7513 26.2331 1.89133 26.293 2.05371L26.2959 2.05957L27.2012 4.62109H29.6885C29.861 4.62817 30.0274 4.6877 30.165 4.79199C30.3029 4.8965 30.4056 5.04084 30.459 5.20508C30.5124 5.36951 30.514 5.54649 30.4639 5.71191C30.4149 5.87325 30.3183 6.01668 30.1875 6.12305L28.2373 7.79688L29.0811 10.418L29.084 10.4277C29.1302 10.594 29.1244 10.7707 29.0674 10.9336C29.0103 11.0965 28.9044 11.2377 28.7646 11.3389C28.6247 11.4401 28.4575 11.4966 28.2852 11.5C28.1131 11.5033 27.9436 11.4541 27.7998 11.3584L27.7949 11.3555L25.5 9.79004L23.2002 11.3584C23.0564 11.4541 22.8869 11.5034 22.7148 11.5C22.5426 11.4966 22.3753 11.4402 22.2354 11.3389C22.0956 11.2377 21.9897 11.0965 21.9326 10.9336C21.8756 10.7707 21.8698 10.594 21.916 10.4277L21.9189 10.418L22.7637 7.79883L20.8115 6.12207C20.6811 6.01576 20.585 5.87298 20.5361 5.71191C20.486 5.54649 20.4876 5.36949 20.541 5.20508C20.5944 5.04085 20.6971 4.89651 20.835 4.79199C20.9726 4.6877 21.139 4.62818 21.3115 4.62109H23.8184L24.7051 2.05371C24.7649 1.8912 24.8736 1.75134 25.0156 1.65234C25.1577 1.55329 25.3264 1.50007 25.499 1.5Z" fill="#0F0F0F"/>
</svg>
