<svg width="32" height="32" viewBox="0 0 32 32" fill="none" xmlns="http://www.w3.org/2000/svg">
<path d="M16 15.5C16.2761 15.5 16.5 15.7239 16.5 16V22.793L18.3535 24.6465C18.5488 24.8417 18.5488 25.1583 18.3535 25.3535L16.3535 27.3535C16.1583 27.5488 15.8417 27.5488 15.6465 27.3535L13.6465 25.3535C13.4512 25.1583 13.4512 24.8417 13.6465 24.6465L15.5 22.793V16C15.5 15.7239 15.7239 15.5 16 15.5ZM14.707 25L16 26.293L17.293 25L16 23.707L14.707 25Z" fill="#0F0F0F"/>
<path d="M12 15.5C12.2761 15.5 12.5 15.7239 12.5 16V22C12.5 22.2761 12.2761 22.5 12 22.5H9.20703L7.35352 24.3535C7.15826 24.5488 6.84175 24.5488 6.64648 24.3535L4.64648 22.3535C4.45122 22.1583 4.45122 21.8417 4.64648 21.6465L6.64648 19.6465L6.72461 19.582C6.91869 19.4539 7.18266 19.4756 7.35352 19.6465L9.20703 21.5H11.5V16C11.5 15.7239 11.7239 15.5 12 15.5ZM5.70703 22L7 23.293L8.29297 22L7 20.707L5.70703 22Z" fill="#0F0F0F"/>
<path d="M20 15.5C20.2761 15.5 20.5 15.7239 20.5 16V21.5H22.793L24.6465 19.6465L24.7246 19.582C24.9187 19.4539 25.1827 19.4756 25.3535 19.6465L27.3535 21.6465C27.5488 21.8417 27.5488 22.1583 27.3535 22.3535L25.3535 24.3535C25.1583 24.5488 24.8417 24.5488 24.6465 24.3535L22.793 22.5H20C19.7239 22.5 19.5 22.2761 19.5 22V16C19.5 15.7239 19.7239 15.5 20 15.5ZM23.707 22L25 23.293L26.293 22L25 20.707L23.707 22Z" fill="#0F0F0F"/>
<path d="M10 8C10.5523 8 11 8.44772 11 9C11 9.55228 10.5523 10 10 10C9.44772 10 9 9.55228 9 9C9 8.44772 9.44772 8 10 8Z" fill="#0F0F0F"/>
<path d="M14 8C14.5523 8 15 8.44772 15 9C15 9.55228 14.5523 10 14 10C13.4477 10 13 9.55228 13 9C13 8.44772 13.4477 8 14 8Z" fill="#0F0F0F"/>
<path d="M18 8C18.5523 8 19 8.44772 19 9C19 9.55228 18.5523 10 18 10C17.4477 10 17 9.55228 17 9C17 8.44772 17.4477 8 18 8Z" fill="#0F0F0F"/>
<path d="M22 8C22.5523 8 23 8.44772 23 9C23 9.55228 22.5523 10 22 10C21.4477 10 21 9.55228 21 9C21 8.44772 21.4477 8 22 8Z" fill="#0F0F0F"/>
<path d="M25 4.5C26.3807 4.5 27.5 5.61929 27.5 7V11C27.5 12.3807 26.3807 13.5 25 13.5H7C5.61929 13.5 4.5 12.3807 4.5 11V7C4.5 5.61929 5.61929 4.5 7 4.5H25ZM7 5.5C6.17157 5.5 5.5 6.17157 5.5 7V11C5.5 11.8284 6.17157 12.5 7 12.5H25C25.8284 12.5 26.5 11.8284 26.5 11V7C26.5 6.17157 25.8284 5.5 25 5.5H7Z" fill="#0F0F0F"/>
</svg>
