<svg width="32" height="32" viewBox="0 0 32 32" fill="none" xmlns="http://www.w3.org/2000/svg">
<path d="M16 9.00879C15.5049 9.00879 15.0986 8.58984 15.0986 8.10742V4.73047C15.0986 4.24805 15.5049 3.8291 16 3.8291C16.4824 3.8291 16.9014 4.24805 16.9014 4.73047V8.10742C16.9014 8.58984 16.4824 9.00879 16 9.00879ZM10.4014 11.2178C10.0586 11.5605 9.47461 11.5605 9.13184 11.2178L6.77051 8.83105C6.42773 8.48828 6.42773 7.9043 6.77051 7.56152C7.12598 7.21875 7.70996 7.21875 8.04004 7.57422L10.4014 9.94824C10.7568 10.291 10.7568 10.875 10.4014 11.2178ZM21.4717 11.3066C21.1289 10.9639 21.1289 10.3926 21.4717 10.0371L23.8584 7.65039C24.2139 7.30762 24.7852 7.30762 25.1279 7.65039C25.4834 8.00586 25.4834 8.58984 25.1279 8.93262L22.7539 11.3066C22.4111 11.6621 21.8271 11.6621 21.4717 11.3066ZM15.0225 24.8145L15.0732 15.2295C15.0732 14.8105 15.5176 14.6455 15.7969 14.9375L22.3604 21.793C22.6523 22.1104 22.4365 22.5166 22.0303 22.542L19.3643 22.5928L21.5605 27.6963C21.6621 27.8994 21.5732 28.1406 21.3828 28.2295L20.2783 28.6611C20.0752 28.75 19.8467 28.6484 19.7578 28.4326L17.6504 23.2402L15.7969 25.1191C15.5176 25.3857 15.0225 25.2461 15.0225 24.8145ZM8.21777 16.791C8.21777 17.2734 7.81152 17.6924 7.31641 17.6924H3.93945C3.45703 17.6924 3.03809 17.2734 3.03809 16.791C3.03809 16.3086 3.45703 15.8896 3.93945 15.8896H7.31641C7.81152 15.8896 8.21777 16.3086 8.21777 16.791ZM23.7822 16.791C23.7822 16.3086 24.2012 15.8896 24.6836 15.8896H28.0479C28.543 15.8896 28.9492 16.3086 28.9492 16.791C28.9492 17.2734 28.543 17.6924 28.0479 17.6924H24.6836C24.2012 17.6924 23.7822 17.2734 23.7822 16.791ZM10.5029 22.2881C10.8457 22.6309 10.8457 23.2148 10.5029 23.5576L8.12891 25.9316C7.77344 26.2744 7.18945 26.2617 6.84668 25.9189C6.50391 25.5635 6.50391 24.9922 6.85938 24.6494L9.2334 22.2881C9.57617 21.9326 10.1729 21.9326 10.5029 22.2881Z" fill="black"/>
</svg>
