<svg width="32" height="32" viewBox="0 0 32 32" fill="none" xmlns="http://www.w3.org/2000/svg">
<path d="M22.5002 13C23.1924 13 23.8691 12.7947 24.4447 12.4101C25.0203 12.0256 25.4689 11.4789 25.7338 10.8394C25.9987 10.1999 26.068 9.49612 25.933 8.81718C25.7979 8.13825 25.4646 7.51461 24.9751 7.02513C24.4856 6.53564 23.862 6.2023 23.183 6.06725C22.5041 5.9322 21.8004 6.00151 21.1608 6.26642C20.5213 6.53133 19.9747 6.97993 19.5901 7.5555C19.2055 8.13108 19.0002 8.80777 19.0002 9.5C19.0013 10.4279 19.3705 11.3175 20.0266 11.9736C20.6827 12.6298 21.5723 12.9989 22.5002 13ZM22.5002 8C22.7969 8 23.0869 8.08797 23.3336 8.25279C23.5802 8.41762 23.7725 8.65189 23.886 8.92597C23.9996 9.20006 24.0293 9.50166 23.9714 9.79264C23.9135 10.0836 23.7707 10.3509 23.5609 10.5607C23.3511 10.7704 23.0838 10.9133 22.7929 10.9712C22.5019 11.0291 22.2003 10.9994 21.9262 10.8858C21.6521 10.7723 21.4178 10.58 21.253 10.3334C21.0882 10.0867 21.0002 9.79667 21.0002 9.5C21.0007 9.10231 21.1588 8.72103 21.44 8.43982C21.7212 8.15861 22.1025 8.00043 22.5002 8Z" fill="#0F0F0F"/>
<path d="M28.0002 2H16.6867C16.424 1.99929 16.1637 2.05071 15.921 2.15129C15.6783 2.25186 15.4579 2.3996 15.2727 2.58593L3.17212 14.6866C2.8006 15.0579 2.50589 15.4988 2.30481 15.984C2.10374 16.4693 2.00024 16.9894 2.00024 17.5147C2.00024 18.0399 2.10374 18.5601 2.30481 19.0453C2.50589 19.5306 2.8006 19.9715 3.17212 20.3428L11.6575 28.8281C12.0288 29.1997 12.4697 29.4944 12.9549 29.6955C13.4402 29.8965 13.9603 30 14.4856 30C15.0109 30 15.531 29.8965 16.0162 29.6955C16.5015 29.4944 16.9424 29.1997 17.3137 28.8281L29.4143 16.7276C29.6006 16.5423 29.7483 16.322 29.8489 16.0792C29.9495 15.8365 30.0009 15.5762 30.0002 15.3135V4C29.9995 3.46978 29.7886 2.96147 29.4137 2.58655C29.0387 2.21162 28.5304 2.00069 28.0002 2ZM28.0002 15.3135L15.8996 27.4141C15.5188 27.7779 15.0123 27.981 14.4856 27.981C13.9588 27.981 13.4524 27.7779 13.0715 27.4141L4.58612 18.9287C4.40036 18.7431 4.253 18.5226 4.15246 18.28C4.05192 18.0374 4.00018 17.7773 4.00018 17.5147C4.00018 17.252 4.05192 16.992 4.15246 16.7493C4.253 16.5067 4.40036 16.2863 4.58612 16.1006L16.6867 4H28.0002V15.3135Z" fill="#0F0F0F"/>
</svg>
