<svg width="32" height="32" viewBox="0 0 32 32" fill="none" xmlns="http://www.w3.org/2000/svg">
<path d="M25.0005 4.99985H7.00049C5.67488 5.00141 4.40402 5.52869 3.46668 6.46604C2.52933 7.40338 2.00205 8.67424 2.00049 9.99985V21.9998C2.00205 23.3255 2.52933 24.5963 3.46668 25.5337C4.40402 26.471 5.67488 26.9983 7.00049 26.9998H25.0005C26.3261 26.9983 27.597 26.471 28.5343 25.5337C29.4716 24.5963 29.9989 23.3255 30.0005 21.9998V9.99985C29.9989 8.67424 29.4716 7.40338 28.5343 6.46603C27.597 5.52869 26.3261 5.0014 25.0005 4.99985ZM7.00049 6.99985H25.0005C25.7959 7.00072 26.5584 7.31707 27.1208 7.87949C27.6833 8.44191 27.9996 9.20446 28.0005 9.99985V10.0164H4.00049V9.99985C4.00136 9.20446 4.31771 8.44191 4.88013 7.87949C5.44255 7.31707 6.20511 7.00072 7.00049 6.99985ZM4.00049 19.0164V12.0164H11.0005V19.0164H4.00049ZM13.0005 12.0164H20.0005V19.0164H13.0005V12.0164ZM22.0005 12.0164H28.0005V19.0164H22.0005V12.0164ZM25.0005 24.9998H7.00049C6.20511 24.999 5.44255 24.6826 4.88013 24.1202C4.31771 23.5578 4.00136 22.7952 4.00049 21.9998V21.0164H28.0005V21.9998C27.9996 22.7952 27.6833 23.5578 27.1208 24.1202C26.5584 24.6826 25.7959 24.999 25.0005 24.9998Z" fill="#0F0F0F"/>
</svg>
