<svg width="32" height="32" viewBox="0 0 32 32" fill="none" xmlns="http://www.w3.org/2000/svg">
<path d="M23.9997 8.59052C24.1986 8.59046 24.3893 8.51143 24.53 8.37079C24.6706 8.23015 24.7497 8.03941 24.7497 7.84052V6.75067C24.7497 6.55175 24.6707 6.36099 24.53 6.22034C24.3894 6.07968 24.1986 6.00067 23.9997 6.00067C23.8008 6.00067 23.61 6.07968 23.4694 6.22034C23.3287 6.36099 23.2497 6.55175 23.2497 6.75067V7.84052C23.2498 8.03941 23.3288 8.23015 23.4694 8.37079C23.6101 8.51143 23.8008 8.59047 23.9997 8.59052Z" fill="#0F0F0F"/>
<path d="M24.0001 10.6259C24.4143 10.6259 24.7501 10.2901 24.7501 9.87586C24.7501 9.46164 24.4143 9.12586 24.0001 9.12586C23.5859 9.12586 23.2501 9.46164 23.2501 9.87586C23.2501 10.2901 23.5859 10.6259 24.0001 10.6259Z" fill="#0F0F0F"/>
<path d="M19.8347 13.1677H28.1657C28.4863 13.1676 28.8013 13.0834 29.0793 12.9235C29.3572 12.7637 29.5884 12.5338 29.7498 12.2567C29.9111 11.9796 29.997 11.6651 29.9989 11.3445C30.0008 11.0238 29.9185 10.7083 29.7604 10.4294L25.6061 2.92938L25.5954 2.91083C25.4333 2.63223 25.2006 2.40131 24.9208 2.24134C24.641 2.08138 24.324 1.99804 24.0017 1.99972C23.6794 2.0014 23.3632 2.08806 23.0851 2.25093C22.807 2.41381 22.5768 2.64716 22.4176 2.92743L18.2516 10.4098C18.0889 10.6884 18.0025 11.0049 18.0012 11.3276C18 11.6502 18.0839 11.9674 18.2445 12.2472C18.4051 12.527 18.6367 12.7594 18.9159 12.921C19.1951 13.0827 19.5121 13.1677 19.8347 13.1677ZM24.0104 4.17743L27.8834 11.1677H20.1179L24.0104 4.17743Z" fill="#0F0F0F"/>
<path d="M20.9997 26.6569C20.9997 27.113 19.2351 27.9997 15.9997 27.9997C12.7644 27.9997 10.9997 27.113 10.9997 26.6569C11.0482 25.3773 11.6014 24.169 12.5384 23.2962C13.4754 22.4235 14.7199 21.9573 15.9997 21.9997C16.2807 22.0038 16.5608 22.0302 16.8376 22.0786L11.5693 16.8104C11.4395 17.5173 11.4897 18.2456 11.7155 18.928C11.9413 19.6103 12.3353 20.2249 12.8611 20.7148C11.9836 21.1266 11.2049 21.7224 10.578 22.4618C9.95113 23.2012 9.49075 24.0668 9.22815 24.9999L6.99971 24.9997C6.14701 24.9359 5.35384 24.5385 4.79223 23.8937C4.23062 23.2489 3.94586 22.4087 3.99971 21.5554V10.444C4.00361 10.0896 4.05635 9.73744 4.15645 9.39746L2.60621 7.84723C2.20487 8.65389 1.9972 9.54304 1.99971 10.444V21.5554C1.94495 22.9393 2.44005 24.2886 3.37688 25.3087C4.31371 26.3288 5.61614 26.9367 6.99971 26.9997H9.02699C9.14637 27.7805 9.71834 28.7248 11.5466 29.3591C12.9872 29.8093 14.4906 30.0256 15.9997 29.9997C18.6297 29.9997 21.6064 29.4138 22.6238 27.8648L20.949 26.1901C20.9745 26.3446 20.9914 26.5005 20.9997 26.6569Z" fill="#0F0F0F"/>
<path d="M28.9997 15.9997C28.8684 15.9996 28.7383 16.0254 28.6169 16.0757C28.4956 16.1259 28.3853 16.1995 28.2924 16.2924C28.1996 16.3853 28.1259 16.4956 28.0757 16.6169C28.0254 16.7383 27.9996 16.8684 27.9997 16.9997V21.5554C28.0388 22.3426 27.7954 23.1179 27.3134 23.7416C26.8314 24.3652 26.1424 24.7961 25.3707 24.9567L19.9738 19.5598C20.3141 18.9261 20.4946 18.2189 20.4997 17.4997C20.4984 16.3066 20.0239 15.1628 19.1802 14.3192C18.3366 13.4755 17.1928 13.001 15.9997 12.9997C15.2777 12.9994 14.5667 13.1764 13.9292 13.5151L7.41376 6.9997H15.9998C16.265 6.9997 16.5193 6.89434 16.7069 6.7068C16.8944 6.51927 16.9998 6.26491 16.9998 5.9997C16.9998 5.73448 16.8944 5.48013 16.7069 5.29259C16.5193 5.10505 16.265 4.9997 15.9998 4.9997H6.99976C6.53753 5.0057 6.07888 5.08178 5.63947 5.22534L3.70674 3.29267C3.51922 3.10515 3.2649 2.99981 2.99971 2.99981C2.73452 2.99981 2.48019 3.10515 2.29268 3.29267C2.10516 3.48018 1.99982 3.73451 1.99982 3.9997C1.99982 4.26488 2.10516 4.51921 2.29268 4.70673L27.2927 29.7067C27.3855 29.7996 27.4958 29.8732 27.6171 29.9235C27.7384 29.9737 27.8684 29.9996 27.9997 29.9996C28.131 29.9996 28.261 29.9737 28.3824 29.9235C28.5037 29.8732 28.6139 29.7996 28.7067 29.7067C28.7996 29.6139 28.8732 29.5037 28.9235 29.3823C28.9737 29.261 28.9996 29.131 28.9996 28.9997C28.9996 28.8684 28.9737 28.7384 28.9235 28.6171C28.8732 28.4957 28.7996 28.3855 28.7067 28.2927L26.971 26.557C27.8964 26.0941 28.6719 25.3788 29.2079 24.4937C29.7438 23.6086 30.0184 22.5899 29.9997 21.5554V16.9997C29.9998 16.8684 29.974 16.7383 29.9237 16.6169C29.8735 16.4956 29.7999 16.3853 29.707 16.2924C29.6141 16.1995 29.5038 16.1259 29.3825 16.0757C29.2611 16.0254 29.1311 15.9996 28.9997 15.9997ZM15.9997 14.9997C16.6626 15.0003 17.2981 15.2639 17.7668 15.7326C18.2355 16.2013 18.4991 16.8368 18.4997 17.4997C18.4947 17.6735 18.4711 17.8463 18.4291 18.015L15.4844 15.0703C15.6531 15.0283 15.8259 15.0047 15.9997 14.9997Z" fill="#0F0F0F"/>
</svg>
