<svg width="32" height="32" viewBox="0 0 32 32" fill="none" xmlns="http://www.w3.org/2000/svg">
<path d="M21.0771 20.8034L20.5 19.85V6.69277C20.4193 5.55437 19.9102 4.48886 19.0751 3.71092C18.2401 2.93299 17.1413 2.50044 16 2.50044C14.8587 2.50044 13.7599 2.93299 12.9249 3.71092C12.0898 4.48886 11.5807 5.55437 11.5 6.69277V19.8842L11.1104 20.6723C10.3963 21.8299 10.0916 23.1938 10.2451 24.5453L10.2637 24.6751C10.4332 26.0059 11.0813 27.2295 12.087 28.1174C13.0926 29.0053 14.387 29.4969 15.7285 29.5003H16.251C17.6841 29.4991 19.0626 28.9508 20.1051 27.9675C21.1476 26.9841 21.7755 25.6399 21.8604 24.2093C21.8923 23.026 21.6228 21.8539 21.0771 20.8034ZM16.251 28.5004H15.7285C14.6282 28.4955 13.5674 28.0904 12.7439 27.3606C11.9205 26.6308 11.3909 25.6263 11.2539 24.5346L11.2354 24.4047C11.1175 23.2598 11.3856 22.1083 11.9971 21.1332L12.4483 20.223C12.4825 20.1542 12.5002 20.0783 12.5 20.0014V6.69277C12.5751 5.81768 12.9773 5.00305 13.6264 4.41135C14.2755 3.81965 15.1237 3.49437 16.002 3.50038C16.8827 3.48431 17.7361 3.80625 18.3867 4.40003C19.0373 4.9938 19.4357 5.81428 19.5 6.69277V20.0033C19.5003 20.1032 19.5302 20.2007 19.586 20.2836L20.2105 21.2986C20.662 22.1802 20.8861 23.1606 20.8623 24.1508C20.7926 25.3269 20.2765 26.432 19.4195 27.2404C18.5624 28.0488 17.4291 28.4994 16.251 28.5004Z" fill="#0F0F0F"/>
<path d="M16.5153 22.0958L16.5 9.99941C16.4997 9.86699 16.4469 9.74009 16.3531 9.64654C16.2594 9.553 16.1324 9.50045 16 9.50041C15.8674 9.50076 15.7394 9.55373 15.6458 9.64766C15.5523 9.7416 15.4998 9.86883 15.5 10.0014L15.5152 22.0878C15.1812 22.2031 14.8986 22.4328 14.7174 22.7362C14.5363 23.0397 14.4682 23.3974 14.5252 23.7461C14.5823 24.0949 14.7608 24.4123 15.0292 24.6422C15.2976 24.8721 15.6386 24.9998 15.992 25.0026C16.3454 25.0055 16.6884 24.8833 16.9604 24.6577C17.2325 24.4321 17.416 24.1176 17.4787 23.7698C17.5413 23.422 17.4789 23.0632 17.3027 22.7569C17.1264 22.4506 16.8475 22.2164 16.5153 22.0958Z" fill="#0F0F0F"/>
</svg>
