<svg width="32" height="32" viewBox="0 0 32 32" fill="none" xmlns="http://www.w3.org/2000/svg">
<path d="M4.16797 7.06641C3.73633 7.06641 3.41895 6.74902 3.41895 6.33008C3.41895 5.91113 3.73633 5.58105 4.16797 5.58105H27.8066C28.2383 5.58105 28.5684 5.91113 28.5684 6.33008C28.5684 6.74902 28.2383 7.06641 27.8066 7.06641H4.16797ZM4.16797 13.7314C3.73633 13.7314 3.41895 13.4014 3.41895 12.9824C3.41895 12.5635 3.73633 12.2461 4.16797 12.2461H18.8691C19.2881 12.2461 19.6182 12.5635 19.6182 12.9824C19.6182 13.4014 19.2881 13.7314 18.8691 13.7314H4.16797ZM4.16797 20.3838C3.73633 20.3838 3.41895 20.0664 3.41895 19.6475C3.41895 19.2285 3.73633 18.8984 4.16797 18.8984H27.8066C28.2383 18.8984 28.5684 19.2285 28.5684 19.6475C28.5684 20.0664 28.2383 20.3838 27.8066 20.3838H4.16797ZM4.16797 27.0488C3.73633 27.0488 3.41895 26.7188 3.41895 26.2998C3.41895 25.8809 3.73633 25.5635 4.16797 25.5635H18.8691C19.2881 25.5635 19.6182 25.8809 19.6182 26.2998C19.6182 26.7188 19.2881 27.0488 18.8691 27.0488H4.16797Z" fill="black"/>
</svg>
