<svg width="32" height="32" viewBox="0 0 32 32" fill="none" xmlns="http://www.w3.org/2000/svg">
<path d="M25 13H7C6.80109 13 6.61032 13.079 6.46967 13.2197C6.32902 13.3603 6.25 13.5511 6.25 13.75C6.25 13.9489 6.32902 14.1397 6.46967 14.2803C6.61032 14.421 6.80109 14.5 7 14.5H25C25.1989 14.5 25.3897 14.421 25.5303 14.2803C25.671 14.1397 25.75 13.9489 25.75 13.75C25.75 13.5511 25.671 13.3603 25.5303 13.2197C25.3897 13.079 25.1989 13 25 13Z" fill="#0F0F0F"/>
<path d="M16 18H7.03174C6.83283 18 6.64206 18.079 6.50141 18.2197C6.36076 18.3603 6.28174 18.5511 6.28174 18.75C6.28174 18.9489 6.36076 19.1397 6.50141 19.2803C6.64206 19.421 6.83283 19.5 7.03174 19.5H16C16.1989 19.5 16.3897 19.421 16.5303 19.2803C16.671 19.1397 16.75 18.9489 16.75 18.75C16.75 18.5511 16.671 18.3603 16.5303 18.2197C16.3897 18.079 16.1989 18 16 18Z" fill="#0F0F0F"/>
</svg>
