<svg width="32" height="32" viewBox="0 0 32 32" fill="none" xmlns="http://www.w3.org/2000/svg">
<path d="M25 13H7C6.86739 13 6.74021 13.0527 6.64645 13.1464C6.55268 13.2402 6.5 13.3674 6.5 13.5C6.5 13.6326 6.55268 13.7598 6.64645 13.8536C6.74021 13.9473 6.86739 14 7 14H25C25.1326 14 25.2598 13.9473 25.3536 13.8536C25.4473 13.7598 25.5 13.6326 25.5 13.5C25.5 13.3674 25.4473 13.2402 25.3536 13.1464C25.2598 13.0527 25.1326 13 25 13Z" fill="#0F0F0F"/>
<path d="M16 18H7.03174C6.89913 18 6.77195 18.0527 6.67819 18.1464C6.58442 18.2402 6.53174 18.3674 6.53174 18.5C6.53174 18.6326 6.58442 18.7598 6.67819 18.8536C6.77195 18.9473 6.89913 19 7.03174 19H16C16.1326 19 16.2598 18.9473 16.3536 18.8536C16.4473 18.7598 16.5 18.6326 16.5 18.5C16.5 18.3674 16.4473 18.2402 16.3536 18.1464C16.2598 18.0527 16.1326 18 16 18Z" fill="#0F0F0F"/>
</svg>
