<svg width="32" height="32" viewBox="0 0 32 32" fill="none" xmlns="http://www.w3.org/2000/svg">
<path d="M4.87891 24.04C3.8252 23.4307 3.31738 22.8213 3.31738 21.3105V10.8369C3.31738 9.7959 3.73633 9.13574 4.59961 8.64062L14.083 3.30859C15.3525 2.58496 16.6475 2.58496 17.917 3.30859L27.4004 8.64062C28.251 9.13574 28.6826 9.7959 28.6826 10.8369V21.3105C28.6826 22.8213 28.1748 23.4307 27.1211 24.04L16.9648 29.7148C16.3047 30.083 15.6826 30.083 15.0225 29.7148L4.87891 24.04ZM16 15.623L26.3848 9.84668L17.1934 4.66699C16.3809 4.19727 15.6191 4.20996 14.8066 4.66699L5.60254 9.84668L16 15.623ZM5.83105 22.7959L15.2256 28.0264V16.9941L4.84082 11.1797V21.2471C4.84082 21.958 5.04395 22.3516 5.83105 22.7959ZM26.1689 22.7959C26.9561 22.3516 27.1592 21.958 27.1592 21.2471V11.1797L16.7744 16.9941V28.0264L26.1689 22.7959Z" fill="black"/>
</svg>
