<svg width="32" height="32" viewBox="0 0 32 32" fill="none" xmlns="http://www.w3.org/2000/svg">
<path d="M16 2C23.732 2 30 8.26801 30 16C30 17.4356 29.7822 18.8201 29.3809 20.124C29.0092 19.3008 28.4846 18.562 27.8408 17.9453C27.9444 17.3122 28 16.6626 28 16C28 13.4605 27.2083 11.1073 25.8623 9.16797C24.455 9.69436 22.9786 10.121 21.4619 10.4297C21.8135 12.173 21.977 14.02 21.9961 16.0723C21.2903 16.1736 20.6184 16.3793 19.9971 16.6748C19.9975 16.6101 20 16.5453 20 16.4805C20 14.5161 19.8193 12.6038 19.457 10.7646C18.2914 10.9168 17.1107 11 15.9268 11C14.7135 11 13.5991 10.933 12.542 10.8018C12.1795 12.6414 12 14.5546 12 16.5195C12 18.122 12.1455 19.6902 12.4229 21.2119C13.5152 21.0705 14.6679 21 15.9268 21C16.0479 21 16.169 21.0012 16.29 21.0029C16.1019 21.6359 16 22.306 16 23C15.9756 23 15.9512 23 15.9268 23C14.8081 23 13.7975 23.0349 12.8477 23.1182C13.2852 24.7907 13.8826 26.3979 14.627 27.9209C15.0776 27.9722 15.5356 28 16 28C16.457 28 16.9079 27.9736 17.3516 27.9238C17.4311 27.7619 17.5078 27.5984 17.584 27.4346C18.2647 28.2649 19.1334 28.9337 20.124 29.3809C18.8201 29.7822 17.4356 30 16 30C8.26801 30 2 23.732 2 16C2 8.26801 8.26801 2 16 2ZM10.8496 23.3857C9.69658 23.6006 8.58814 23.9218 7.41895 24.3848C8.73372 25.7301 10.3616 26.7657 12.1855 27.377C11.6446 26.0923 11.1959 24.7594 10.8496 23.3857ZM6.2207 9.04785C4.8236 11.0096 4 13.4082 4 16C4 18.5916 4.82388 20.9896 6.2207 22.9512C7.65283 22.3396 9.02351 21.8791 10.4541 21.5586C10.1569 19.9236 10 18.2396 10 16.5195C10 14.2991 10.1629 12.3199 10.5391 10.459C9.07767 10.1378 7.6812 9.67154 6.2207 9.04785ZM16 4C15.637 4 15.2777 4.01628 14.9229 4.04785C14.1011 5.57623 13.46 7.19796 12.9902 8.89355C13.8985 8.96799 14.8639 9 15.9268 9C17.0053 8.99999 18.0256 8.95203 19.0088 8.85352C18.5431 7.17329 17.9089 5.56598 17.0977 4.0498C16.7362 4.01702 16.37 4 16 4ZM12.6904 4.46484C10.6619 5.04577 8.85392 6.14607 7.41895 7.61426C8.63431 8.09557 9.78399 8.4229 10.9863 8.6377C11.4008 7.21841 11.9606 5.84784 12.6904 4.46484ZM19.333 4.47168C20.0463 5.82996 20.5958 7.17678 21.0049 8.57031C22.2121 8.34473 23.3807 8.02248 24.5547 7.58789C23.1295 6.13866 21.3397 5.05082 19.333 4.47168Z" fill="#0F0F0F"/>
<path d="M23 17C26.3137 17 29 19.6863 29 23C29 26.3137 26.3137 29 23 29C19.6863 29 17 26.3137 17 23C17 19.6863 19.6863 17 23 17ZM23 20C22.4477 20 22 20.4477 22 21V23.25C22 23.5947 22.1776 23.9149 22.4697 24.0977L24.4697 25.3477C24.9379 25.6403 25.5549 25.4983 25.8477 25.0303C26.1403 24.5621 25.9983 23.9451 25.5303 23.6523L24 22.6953V21C24 20.4477 23.5523 20 23 20Z" fill="#0F0F0F"/>
</svg>
