<svg width="32" height="32" viewBox="0 0 32 32" fill="none" xmlns="http://www.w3.org/2000/svg">
<path d="M10 2.25C10.4142 2.25 10.75 2.58579 10.75 3V5.25H21.25V3C21.25 2.58579 21.5858 2.25 22 2.25C22.4142 2.25 22.75 2.58579 22.75 3V5.25H23C25.6234 5.25 27.75 7.37665 27.75 10V24C27.75 26.6234 25.6234 28.75 23 28.75H9C6.37665 28.75 4.25 26.6234 4.25 24V10C4.25 7.37665 6.37665 5.25 9 5.25H9.25V3C9.25 2.58579 9.58579 2.25 10 2.25ZM9 6.75C7.20507 6.75 5.75 8.20507 5.75 10V24C5.75 25.7949 7.20507 27.25 9 27.25H23C24.7949 27.25 26.25 25.7949 26.25 24V10C26.25 8.20507 24.7949 6.75 23 6.75H9ZM16 11.75C13.1005 11.75 10.75 14.1005 10.75 17C10.75 19.8995 13.1005 22.25 16 22.25C18.8995 22.25 21.25 19.8995 21.25 17C21.25 14.1005 18.8995 11.75 16 11.75ZM9.25 17C9.25 13.2721 12.2721 10.25 16 10.25C19.7279 10.25 22.75 13.2721 22.75 17C22.75 20.7279 19.7279 23.75 16 23.75C12.2721 23.75 9.25 20.7279 9.25 17ZM13.5 16.25C13.0858 16.25 12.75 16.5858 12.75 17C12.75 17.4142 13.0858 17.75 13.5 17.75H18.5C18.9142 17.75 19.25 17.4142 19.25 17C19.25 16.5858 18.9142 16.25 18.5 16.25H13.5Z" fill="#0F0F0F"/>
</svg>
