<svg width="32" height="32" viewBox="0 0 32 32" fill="none" xmlns="http://www.w3.org/2000/svg">
<path d="M16 2C23.732 2 30 8.26801 30 16C30 17.4349 29.7819 18.8188 29.3809 20.1221C29.0956 19.4907 28.7199 18.9095 28.2695 18.3945C28.4203 17.6196 28.5 16.8191 28.5 16C28.5 13.3676 27.6845 10.9266 26.2949 8.91211C24.677 9.61415 22.979 10.1523 21.2188 10.5059C21.6669 12.2682 21.9292 14.1133 21.9863 16.0742C21.4676 16.1495 20.9675 16.2814 20.4922 16.4639C20.4608 14.5 20.2161 12.5889 19.7764 10.7529C18.6209 10.9157 17.4416 11 16.2441 11C14.8433 11 13.4682 10.8826 12.126 10.6611C11.7157 12.5048 11.499 14.4219 11.499 16.3896C11.499 18.0905 11.6619 19.753 11.9707 21.3633C13.3619 21.1247 14.7893 21 16.2441 21C16.2598 21 16.2754 21 16.291 21C16.1475 21.482 16.0549 21.9855 16.0186 22.5049C14.7527 22.5168 13.5098 22.628 12.2959 22.8311C12.7884 24.7835 13.501 26.6479 14.4033 28.3984C14.9262 28.4651 15.459 28.5 16 28.5C16.6339 28.5 17.2567 28.4524 17.8652 28.3613C17.9306 28.227 17.9916 28.0906 18.0547 27.9551C18.6477 28.5469 19.3476 29.0303 20.1211 29.3799C19.7106 29.5062 19.2928 29.6165 18.8672 29.7051C18.8617 29.7156 18.8571 29.7268 18.8516 29.7373L18.8125 29.7168C17.9039 29.9021 16.9634 30 16 30C8.26801 30 2 23.732 2 16C2 8.26801 8.26801 2 16 2ZM10.8223 23.124C9.43161 23.4482 8.08456 23.8941 6.79199 24.4512C8.32574 26.1214 10.3071 27.3731 12.5469 28.0156C11.8269 26.4574 11.2456 24.8219 10.8223 23.124ZM5.82227 8.74707C4.3619 10.7927 3.5 13.295 3.5 16C3.5 18.7047 4.36218 21.2065 5.82227 23.252C7.31593 22.5754 8.88042 22.0398 10.501 21.6611C10.1726 19.9541 9.99904 18.1919 9.99902 16.3896C9.99902 14.2624 10.2363 12.2721 10.6865 10.3789C8.99986 9.9982 7.37281 9.44944 5.82227 8.74707ZM16 3.5C15.6108 3.5 15.2258 3.51793 14.8457 3.55273C13.8537 5.31877 13.0602 7.2114 12.4951 9.2002C13.718 9.39406 14.9696 9.49705 16.2441 9.49707C17.307 9.49707 18.3542 9.42565 19.3818 9.29004C18.7668 7.25325 17.9082 5.32288 16.8447 3.52832C16.5656 3.50969 16.2839 3.5 16 3.5ZM18.4316 3.73633C19.4151 5.45305 20.2144 7.21323 20.8047 9.05859C22.3731 8.75387 23.8893 8.29402 25.3398 7.69629C23.563 5.69916 21.1575 4.27374 18.4316 3.73633ZM13.251 3.80371C10.7227 4.37113 8.48461 5.70484 6.79199 7.54785C8.16334 8.13887 9.59611 8.60352 11.0771 8.93164C11.6154 7.15364 12.3484 5.45713 13.251 3.80371Z" fill="#0F0F0F"/>
<path d="M23 20.25C23.4142 20.25 23.75 20.5858 23.75 21V22.834L25.3975 23.8643C25.7486 24.0838 25.8553 24.5462 25.6357 24.8975C25.4162 25.2486 24.9538 25.3553 24.6025 25.1357L22.6025 23.8857C22.3833 23.7487 22.25 23.5086 22.25 23.25V21C22.25 20.5858 22.5858 20.25 23 20.25Z" fill="#0F0F0F"/>
<path d="M23 17C26.3137 17 29 19.6863 29 23C29 26.3137 26.3137 29 23 29C19.6863 29 17 26.3137 17 23C17 19.6863 19.6863 17 23 17ZM23 18.5C20.5147 18.5 18.5 20.5147 18.5 23C18.5 25.4853 20.5147 27.5 23 27.5C25.4853 27.5 27.5 25.4853 27.5 23C27.5 20.5147 25.4853 18.5 23 18.5Z" fill="#0F0F0F"/>
</svg>
