<svg width="32" height="32" viewBox="0 0 32 32" fill="none" xmlns="http://www.w3.org/2000/svg">
<path d="M10.3555 4.23988C10.6903 2.83437 12.6239 2.66867 13.1934 3.99672L16.7783 12.361C17.4765 12.1275 18.2233 11.9996 19 11.9996C19.2413 11.9996 19.4798 12.011 19.7148 12.0348L20.5078 9.56117C20.7068 8.94019 21.2844 8.5182 21.9365 8.5182H24C24.5522 8.5182 24.9998 8.96607 25 9.5182C25 10.0705 24.5523 10.5182 24 10.5182H22.3008L21.6572 12.5241C24.205 13.5706 25.9999 16.0747 26 18.9996C26 20.5719 25.4806 22.0225 24.6055 23.1911L28.707 27.2926C29.0975 27.6831 29.0974 28.3161 28.707 28.7067C28.3165 29.0972 27.6835 29.0972 27.293 28.7067L23.1914 24.6051C22.0228 25.4804 20.5724 25.9996 19 25.9996C15.134 25.9996 12 22.8656 12 18.9996C12.0001 16.626 13.1822 14.529 14.9893 13.2633L11.9521 6.17543L9.52832 16.3649L9.49316 16.4899C9.29175 17.099 8.72049 17.5182 8.06934 17.5182H3C2.44773 17.5182 2.00002 17.0705 2 16.5182C2.00018 15.9661 2.44783 15.5182 3 15.5182H7.6748L10.3555 4.23988Z" fill="#0F0F0F"/>
</svg>
