<svg width="32" height="32" viewBox="0 0 32 32" fill="none" xmlns="http://www.w3.org/2000/svg">
<path d="M13.5 2.5C19.5751 2.5 24.5 7.42487 24.5 13.5C24.5 15.9966 23.6662 18.2974 22.2646 20.1436L30.0605 27.9395C30.6463 28.5252 30.6463 29.4748 30.0605 30.0605C29.4748 30.6463 28.5252 30.6463 27.9395 30.0605L20.1436 22.2646C18.2974 23.6662 15.9966 24.5 13.5 24.5C7.42487 24.5 2.5 19.5751 2.5 13.5C2.5 7.42487 7.42487 2.5 13.5 2.5ZM17.3799 8.31836C17.0229 7.17697 15.4419 7.15291 15.0244 8.22852L14.9883 8.33691L12.1855 17.7949L11.7822 15.5771C11.6741 14.9832 11.1564 14.5511 10.5527 14.5508H6.28613C5.87204 14.5508 5.53633 14.8867 5.53613 15.3008C5.53619 15.7149 5.87196 16.0508 6.28613 16.0508H10.3438L10.8975 19.0957C11.1331 20.3902 12.951 20.4888 13.3252 19.2275L16.1934 9.54883L17.9502 15.1738C18.1133 15.6956 18.5969 16.0508 19.1436 16.0508H20.8574C21.2715 16.0506 21.6074 15.7149 21.6074 15.3008C21.6072 14.8868 21.2714 14.5509 20.8574 14.5508H19.3271L17.3799 8.31836Z" fill="#0F0F0F"/>
</svg>
