<svg width="32" height="32" viewBox="0 0 32 32" fill="none" xmlns="http://www.w3.org/2000/svg">
<path d="M3.70711 2.29289C3.31658 1.90237 2.68342 1.90237 2.29289 2.29289C1.90237 2.68342 1.90237 3.31658 2.29289 3.70711L28.2929 29.7071C28.6834 30.0976 29.3166 30.0976 29.7071 29.7071C30.0976 29.3166 30.0976 28.6834 29.7071 28.2929L28.8386 27.4244L22.3253 12.8231C22.1645 12.4626 21.8067 12.2305 21.412 12.2305C21.0173 12.2305 20.6596 12.4626 20.4988 12.8231L18.5673 17.1531L14.8517 13.4374C15.6384 11.7791 16.1358 9.96702 16.2621 8H18.5001C19.0523 8 19.5001 7.55228 19.5001 7C19.5001 6.44772 19.0523 6 18.5001 6H12.0587V4C12.0587 3.44772 11.6109 3 11.0587 3C10.5064 3 10.0587 3.44772 10.0587 4V6H7.41421L3.70711 2.29289ZM9.41421 8H14.2569C14.1532 9.38566 13.8349 10.6922 13.3332 11.919L9.41421 8ZM20.0817 18.6675L21.412 15.6852L23.9889 21.4619H22.8761L20.0817 18.6675ZM24.8761 23.4619H24.8811L24.8851 23.4708L24.8761 23.4619Z" fill="#0F0F0F"/>
<path d="M6.10985 11.1455C6.25489 10.9976 6.43457 10.9043 6.62333 10.8659L14.8342 19.0768C14.7881 19.2198 14.7089 19.3545 14.5966 19.469C14.2098 19.8633 13.5767 19.8694 13.1824 19.4827L11.6649 17.9944C10.0253 19.7113 8.05037 21.1812 5.90827 22.4067C5.4289 22.681 4.81796 22.5147 4.5437 22.0354C4.26944 21.556 4.43572 20.945 4.9151 20.6708C6.94713 19.5082 8.76043 18.1488 10.2383 16.5952L6.12358 12.5596C5.72929 12.1729 5.72314 11.5398 6.10985 11.1455Z" fill="#0F0F0F"/>
<path d="M13.9105 27.5923L16.8223 21.0649L19.2193 23.4619H17.943L15.737 28.4071C15.5121 28.9115 14.9208 29.1379 14.4164 28.913C13.912 28.688 13.6855 28.0967 13.9105 27.5923Z" fill="#0F0F0F"/>
</svg>
