<svg width="32" height="32" viewBox="0 0 32 32" fill="none" xmlns="http://www.w3.org/2000/svg">
<path d="M4.74823 3.16796C4.28871 2.47866 3.3574 2.2924 2.66811 2.75193C1.97882 3.21146 1.79256 4.14276 2.25208 4.83206L11.2521 18.3321C11.5135 18.7242 11.944 18.9707 12.4145 18.9976C12.885 19.0245 13.3408 18.8287 13.6452 18.4689L17.7124 13.6623L23.9802 25.5015L20.941 24.5663C20.1492 24.3227 19.3099 24.7671 19.0662 25.5589C18.8226 26.3507 19.267 27.19 20.0588 27.4337L26.5588 29.4337C26.7316 29.4869 26.9069 29.5073 27.0778 29.4984C27.2895 29.4875 27.5023 29.4314 27.702 29.3257C28.0655 29.1333 28.3173 28.8127 28.4314 28.449L30.4229 22.4743C30.6849 21.6884 30.2602 20.839 29.4743 20.577C28.6883 20.315 27.8389 20.7398 27.5769 21.5257L26.6855 24.1998L19.3258 10.2982C19.0928 9.85802 18.6565 9.56222 18.1614 9.50869C17.6662 9.45517 17.1768 9.6509 16.8551 10.0311L12.6426 15.0095L4.74823 3.16796Z" fill="#0F0F0F"/>
</svg>
