<svg width="32" height="32" viewBox="0 0 32 32" fill="none" xmlns="http://www.w3.org/2000/svg">
<path d="M27.0458 3.00081C26.9337 2.99564 26.8189 3.00938 26.7057 3.04422L20.2057 5.04422C19.6778 5.20664 19.3816 5.76622 19.544 6.29409C19.7064 6.82195 20.266 7.1182 20.7939 6.95578L24.9868 5.66564L17.8082 19.2251L13.2635 13.8541C13.0605 13.6142 12.7567 13.4837 12.443 13.5016C12.1293 13.5196 11.8423 13.6839 11.6681 13.9453L2.66806 27.4453C2.3617 27.9048 2.48588 28.5257 2.94541 28.8321C3.40493 29.1384 4.0258 29.0142 4.33216 28.5547L12.5951 16.1603L17.2367 21.6459C17.4512 21.8994 17.7775 22.0299 18.1076 21.9942C18.4377 21.9585 18.7285 21.7613 18.8839 21.4679L26.7902 6.53367L28.0511 10.3162C28.2257 10.8402 28.7921 11.1233 29.316 10.9487C29.8399 10.774 30.1231 10.2077 29.9485 9.68377L27.9564 3.70759C27.8814 3.4623 27.7126 3.24571 27.468 3.11621C27.3329 3.04471 27.1889 3.00725 27.0458 3.00081Z" fill="#0F0F0F"/>
</svg>
