<svg width="32" height="32" viewBox="0 0 32 32" fill="none" xmlns="http://www.w3.org/2000/svg">
<path d="M16 18.0479C15.5684 18.0479 15.1748 17.9082 14.667 17.6162L4.53613 11.7383C3.71094 11.2559 3.35547 10.875 3.35547 10.2783C3.35547 9.68164 3.71094 9.28809 4.53613 8.80566L14.667 2.94043C15.1748 2.64844 15.5684 2.49609 16 2.49609C16.4316 2.49609 16.8252 2.64844 17.333 2.94043L27.4639 8.80566C28.2891 9.28809 28.6445 9.68164 28.6445 10.2783C28.6445 10.875 28.2891 11.2559 27.4639 11.7383L17.333 17.6162C16.8252 17.9082 16.4316 18.0479 16 18.0479ZM16 16.3594C16.165 16.3594 16.3047 16.3086 16.4951 16.1943L26.4863 10.4688C26.5752 10.4307 26.6387 10.3672 26.6387 10.2783C26.6387 10.1768 26.5752 10.126 26.4863 10.0752L16.4951 4.34961C16.3047 4.24805 16.165 4.18457 16 4.18457C15.835 4.18457 15.6953 4.24805 15.5049 4.34961L5.51367 10.0752C5.4248 10.126 5.36133 10.1768 5.36133 10.2783C5.36133 10.3672 5.4248 10.4307 5.51367 10.4688L15.5049 16.1943C15.6953 16.3086 15.835 16.3594 16 16.3594ZM16 24.3828C15.6064 24.3828 15.2764 24.1924 14.8193 23.9258L3.92676 17.54C3.52051 17.3115 3.33008 16.9561 3.33008 16.6387C3.33008 16.2324 3.60938 15.9023 3.85059 15.7754L15.5557 22.5166C15.7207 22.6182 15.8604 22.6816 16 22.6816C16.1396 22.6816 16.2793 22.6182 16.4443 22.5166L28.1494 15.7754C28.3906 15.9023 28.6699 16.2324 28.6699 16.6387C28.6699 16.9561 28.4922 17.2988 28.0732 17.54L17.1807 23.9258C16.7236 24.1924 16.3936 24.3828 16 24.3828ZM16 30.3623C15.6064 30.3623 15.2764 30.1846 14.8193 29.918L3.92676 23.5322C3.52051 23.291 3.33008 22.9355 3.33008 22.6182C3.33008 22.2119 3.60938 21.8945 3.85059 21.7676L15.5557 28.5088C15.7207 28.5977 15.8604 28.6738 16 28.6738C16.1396 28.6738 16.2793 28.5977 16.4443 28.5088L28.1494 21.7676C28.3906 21.8945 28.6699 22.2119 28.6699 22.6182C28.6699 22.9355 28.4795 23.291 28.0732 23.5322L17.1807 29.918C16.7236 30.1846 16.3936 30.3623 16 30.3623Z" fill="black"/>
</svg>
