<svg width="32" height="32" viewBox="0 0 32 32" fill="none" xmlns="http://www.w3.org/2000/svg">
<path d="M27.6768 17.3247C27.9246 17.2024 28.133 17.0129 28.2786 16.778C28.4241 16.543 28.5008 16.272 28.5 15.9956C28.4992 15.7193 28.4209 15.4487 28.274 15.2146C28.1271 14.9805 27.9174 14.7923 27.6689 14.6714L24.0237 12.9418L27.6758 11.1421C27.9241 11.0196 28.1339 10.8297 28.2794 10.5942C28.425 10.3587 28.5014 10.0871 28.5 9.8102C28.4986 9.53334 28.4194 9.26247 28.2714 9.02847C28.1234 8.79448 27.9126 8.6068 27.6631 8.48684L17.5469 3.86086C17.0676 3.62557 16.541 3.50266 16.0072 3.50147C15.4733 3.50028 14.9461 3.62085 14.4658 3.854L4.32373 8.49368C4.07651 8.61551 3.86832 8.80411 3.72274 9.03814C3.57716 9.27217 3.50001 9.54228 3.50001 9.81789C3.50001 10.0935 3.57716 10.3636 3.72274 10.5977C3.86832 10.8317 4.07651 11.0203 4.32373 11.1421L7.97613 12.9419L4.32373 14.6753C4.0759 14.7976 3.86733 14.9869 3.72172 15.2218C3.57611 15.4567 3.4993 15.7277 3.50001 16.0041C3.50072 16.2805 3.57893 16.5511 3.72574 16.7852C3.87256 17.0194 4.0821 17.2076 4.33056 17.3286L7.59808 18.8793L4.32422 20.4927C4.07691 20.6144 3.86863 20.803 3.72296 21.037C3.57729 21.271 3.50005 21.5411 3.5 21.8168C3.49995 22.0924 3.57708 22.3626 3.72267 22.5966C3.86825 22.8307 4.07647 23.0193 4.32373 23.1411L14.4839 28.147C14.9558 28.3783 15.4744 28.4986 16 28.4986C16.5256 28.4986 17.0442 28.3783 17.5161 28.147L27.6758 23.1411H27.6768C27.924 23.0192 28.1321 22.8305 28.2776 22.5964C28.4231 22.3624 28.5001 22.0922 28.5 21.8166C28.4999 21.541 28.4227 21.2709 28.277 21.0369C28.1313 20.803 27.9231 20.6144 27.6758 20.4927L24.4023 18.8795L27.6699 17.3286L27.6768 17.3247ZM4.76611 10.2456C4.6856 10.2071 4.61778 10.1464 4.57063 10.0706C4.52349 9.99482 4.49898 9.90714 4.5 9.8179C4.49833 9.73106 4.52117 9.64552 4.56591 9.57107C4.61064 9.49662 4.67545 9.43629 4.7529 9.397L14.895 4.75735C15.2376 4.58902 15.6144 4.5018 15.9961 4.50247C16.3851 4.50247 16.7689 4.59202 17.1177 4.76419L27.2344 9.39019C27.3141 9.42964 27.3813 9.49059 27.4282 9.56617C27.4751 9.64176 27.5 9.72895 27.5 9.81793C27.5 9.9069 27.4751 9.99409 27.4282 10.0697C27.3813 10.1453 27.3141 10.2062 27.2344 10.2457L17.1045 15.2368C16.7604 15.4046 16.3826 15.4917 15.9998 15.4917C15.6169 15.4917 15.2391 15.4046 14.895 15.2368L4.76611 10.2456ZM27.2344 21.3892C27.3141 21.4286 27.3813 21.4896 27.4282 21.5652C27.4751 21.6408 27.5 21.728 27.5 21.8169C27.5 21.9059 27.4751 21.9931 27.4282 22.0687C27.3813 22.1443 27.3141 22.2052 27.2344 22.2447L17.0737 27.2505C16.7392 27.4134 16.3721 27.4981 16 27.4981C15.6279 27.4981 15.2608 27.4134 14.9263 27.2505L4.76611 22.2447C4.68625 22.2053 4.61899 22.1444 4.57196 22.0688C4.52493 21.9932 4.5 21.9059 4.5 21.8169C4.5 21.7279 4.52493 21.6406 4.57196 21.565C4.61899 21.4895 4.68625 21.4285 4.76611 21.3892L8.75006 19.4259L14.4839 22.147C14.9547 22.3776 15.4719 22.4979 15.9962 22.4986C16.5204 22.4992 17.0379 22.3803 17.5093 22.1509L23.2506 19.4261L27.2344 21.3892ZM27.2364 16.4263L17.0738 21.2505C16.7382 21.4142 16.3696 21.499 15.9962 21.4983C15.6228 21.4976 15.2545 21.4115 14.9195 21.2466L4.76611 16.4282C4.68682 16.3891 4.61995 16.3288 4.57296 16.2539C4.52598 16.179 4.50072 16.0925 4.50001 16.0041C4.4993 15.9157 4.52317 15.8288 4.56895 15.7532C4.61473 15.6775 4.68063 15.6161 4.75928 15.5757L9.1206 13.5059L14.4526 16.1333C14.9343 16.3691 15.4634 16.4917 15.9997 16.4917C16.536 16.4917 17.0652 16.3691 17.5468 16.1333L22.8794 13.5056L27.2344 15.5718C27.3139 15.6112 27.381 15.6719 27.4279 15.7473C27.4748 15.8227 27.4998 15.9096 27.5 15.9984C27.5002 16.0872 27.4757 16.1743 27.4291 16.2499C27.3825 16.3255 27.3158 16.3866 27.2364 16.4263Z" fill="#0F0F0F"/>
</svg>
