<svg width="32" height="32" viewBox="0 0 32 32" fill="none" xmlns="http://www.w3.org/2000/svg">
<path d="M2 16C2 8.26801 8.26801 2 16 2C23.732 2 30 8.26801 30 16C30 23.732 23.732 30 16 30C8.26801 30 2 23.732 2 16ZM9.20711 7.79289C8.81658 7.40237 8.18342 7.40237 7.79289 7.79289C7.40237 8.18342 7.40237 8.81658 7.79289 9.20711L12.2929 13.7071C12.6834 14.0976 13.3166 14.0976 13.7071 13.7071C14.0976 13.3166 14.0976 12.6834 13.7071 12.2929L9.20711 7.79289ZM19.7071 18.2929C19.3166 17.9024 18.6834 17.9024 18.2929 18.2929C17.9024 18.6834 17.9024 19.3166 18.2929 19.7071L22.7929 24.2071C23.1834 24.5976 23.8166 24.5976 24.2071 24.2071C24.5976 23.8166 24.5976 23.1834 24.2071 22.7929L19.7071 18.2929Z" fill="#0F0F0F"/>
</svg>
