<svg width="32" height="32" viewBox="0 0 32 32" fill="none" xmlns="http://www.w3.org/2000/svg">
<path d="M16 3.75C9.23451 3.75 3.75 9.23451 3.75 16C3.75 22.7655 9.23451 28.25 16 28.25C22.7655 28.25 28.25 22.7655 28.25 16C28.25 9.23451 22.7655 3.75 16 3.75ZM2.25 16C2.25 8.40608 8.40608 2.25 16 2.25C23.5939 2.25 29.75 8.40608 29.75 16C29.75 23.5939 23.5939 29.75 16 29.75C8.40608 29.75 2.25 23.5939 2.25 16Z" fill="#0F0F0F"/>
<path d="M6.46967 6.46967C6.76256 6.17678 7.23744 6.17678 7.53033 6.46967L13.5303 12.4697C13.8232 12.7626 13.8232 13.2374 13.5303 13.5303C13.2374 13.8232 12.7626 13.8232 12.4697 13.5303L6.46967 7.53033C6.17678 7.23744 6.17678 6.76256 6.46967 6.46967ZM18.4697 18.4697C18.7626 18.1768 19.2374 18.1768 19.5303 18.4697L25.5303 24.4697C25.8232 24.7626 25.8232 25.2374 25.5303 25.5303C25.2374 25.8232 24.7626 25.8232 24.4697 25.5303L18.4697 19.5303C18.1768 19.2374 18.1768 18.7626 18.4697 18.4697Z" fill="#0F0F0F"/>
</svg>
