<svg width="32" height="32" viewBox="0 0 32 32" fill="none" xmlns="http://www.w3.org/2000/svg">
<path d="M22.9996 12.2503H11.7516V8.45442C11.7516 5.7386 13.5299 3.76106 15.9996 3.74935C16.9152 3.74956 17.8109 4.01674 18.577 4.51818C19.3431 5.01961 19.9464 5.73355 20.313 6.57259C20.3932 6.75431 20.5421 6.89684 20.7272 6.96894C20.9123 7.04103 21.1184 7.03681 21.3004 6.9572C21.4824 6.87759 21.6253 6.72908 21.698 6.54422C21.7707 6.35937 21.7671 6.15324 21.688 5.97103C21.2045 4.86117 20.4063 3.91731 19.3923 3.25607C18.3782 2.59482 17.1926 2.24517 15.982 2.25032H15.9742C12.6577 2.26399 10.2515 4.87337 10.2515 8.45442V12.2503H8.99951C8.00533 12.2516 7.05223 12.6471 6.34924 13.3501C5.64625 14.053 5.25076 15.0061 5.24951 16.0003V26.0003C5.25076 26.9945 5.64625 27.9476 6.34924 28.6506C7.05223 29.3536 8.00533 29.7491 8.99951 29.7503H22.9995C23.9937 29.7491 24.9468 29.3536 25.6498 28.6506C26.3528 27.9476 26.7483 26.9945 26.7495 26.0003V16.0003C26.7483 15.0061 26.3528 14.0531 25.6498 13.3501C24.9468 12.6471 23.9937 12.2516 22.9996 12.2503ZM25.2496 26.0003C25.2487 26.5968 25.0114 27.1686 24.5896 27.5904C24.1679 28.0122 23.596 28.2495 22.9996 28.2503H8.99955C8.40307 28.2495 7.83124 28.0122 7.40946 27.5904C6.98768 27.1686 6.75037 26.5968 6.74955 26.0003V16.0003C6.75037 15.4038 6.98768 14.832 7.40946 14.4102C7.83124 13.9885 8.40307 13.7511 8.99955 13.7503H22.9996C23.596 13.7511 24.1679 13.9885 24.5896 14.4102C25.0114 14.832 25.2487 15.4038 25.2496 16.0003V26.0003Z" fill="#0F0F0F"/>
</svg>
