<svg width="32" height="32" viewBox="0 0 32 32" fill="none" xmlns="http://www.w3.org/2000/svg">
<path d="M22.9996 12.0003H12.0016V8.45441C12.0016 5.88312 13.6754 4.01008 15.9771 4.00031C15.9898 4.00031 16.0045 4.00031 16.0201 3.99932C16.8838 4.00361 17.7275 4.25856 18.4491 4.73321C19.1706 5.20785 19.7387 5.88178 20.0846 6.67313C20.192 6.91462 20.3906 7.10378 20.637 7.19927C20.8835 7.29476 21.1577 7.28882 21.3997 7.18275C21.6418 7.07669 21.8321 6.87911 21.9289 6.6332C22.0258 6.3873 22.0213 6.11305 21.9166 5.8704C21.413 4.71654 20.5828 3.73526 19.5282 3.04756C18.4737 2.35987 17.241 1.99581 15.982 2.00028H15.9732C12.5689 2.01493 10.0015 4.78934 10.0015 8.45438V12.0003H8.99951C7.93897 12.0013 6.92217 12.4231 6.17225 13.173C5.42234 13.9229 5.00057 14.9397 4.99951 16.0003V26.0003C5.00057 27.0608 5.42234 28.0776 6.17225 28.8275C6.92217 29.5775 7.93897 29.9992 8.99951 30.0003H22.9995C24.0601 29.9992 25.0769 29.5775 25.8268 28.8275C26.5767 28.0776 26.9985 27.0608 26.9995 26.0003V16.0003C26.9984 14.9398 26.5767 13.923 25.8268 13.1731C25.0769 12.4232 24.0601 12.0014 22.9996 12.0003Z" fill="#0F0F0F"/>
</svg>
