<svg width="32" height="32" viewBox="0 0 32 32" fill="none" xmlns="http://www.w3.org/2000/svg">
<path d="M16 2.5C19.3137 2.5 22 5.18629 22 8.5C22 10.8331 20.6674 12.8533 18.7227 13.8457C20.0052 14.1716 21.2012 14.7106 22.2695 15.3945C22.5021 15.5434 22.5698 15.8534 22.4209 16.0859C22.272 16.3182 21.9629 16.386 21.7305 16.2373C20.0738 15.1768 18.1052 14.5 16 14.5C13.1107 14.5 10.4777 15.7757 8.5625 17.5625C6.63691 19.3592 5.5 21.6108 5.5 23.5C5.5 24.4282 5.77321 25.1798 6.25781 25.7979C6.74831 26.4233 7.47641 26.9374 8.41992 27.3438C10.3167 28.1605 12.9851 28.5 16 28.5C17.2092 28.5 18.3677 28.4456 19.4453 28.3262C19.7195 28.296 19.9665 28.4935 19.9971 28.7676C20.0275 29.042 19.8291 29.2899 19.5547 29.3203C18.4335 29.4445 17.2379 29.5 16 29.5C12.94 29.5 10.1088 29.1602 8.02441 28.2627C6.97732 27.8118 6.09347 27.2092 5.4707 26.415C4.84237 25.6137 4.5 24.6425 4.5 23.5C4.5 21.2472 5.82543 18.7488 7.88086 16.8311C9.33758 15.472 11.1932 14.3755 13.2773 13.8457C11.3326 12.8533 10 10.8331 10 8.5C10 5.18629 12.6863 2.5 16 2.5ZM16 3.5C13.2386 3.5 11 5.73858 11 8.5C11 11.2614 13.2386 13.5 16 13.5C18.7614 13.5 21 11.2614 21 8.5C21 5.73858 18.7614 3.5 16 3.5Z" fill="black"/>
<path d="M24.5 17.5C25.416 17.5 26.1586 17.9627 26.8311 18.3906C27.5307 18.8359 28.2131 19.2876 29.1211 19.5146C29.3437 19.5703 29.5 19.7706 29.5 20C29.5 22.5446 29.1193 24.5088 28.3184 26.0439C27.5112 27.5909 26.2997 28.6592 24.7236 29.4473C24.5829 29.5175 24.417 29.5176 24.2764 29.4473C22.7001 28.6592 21.4888 27.5909 20.6816 26.0439C19.8807 24.5088 19.5 22.5446 19.5 20C19.5 19.7706 19.6563 19.5703 19.8789 19.5146C20.7868 19.2876 21.4692 18.8359 22.1689 18.3906C22.8415 17.9627 23.5842 17.5001 24.5 17.5ZM24.5 18.5C23.9161 18.5001 23.4085 18.7874 22.7061 19.2344C22.112 19.6124 21.4072 20.0807 20.5029 20.374C20.5389 22.6381 20.9053 24.3102 21.5684 25.5811C22.2243 26.8383 23.1907 27.7399 24.5 28.4365C25.8093 27.7399 26.7756 26.8384 27.4316 25.5811C28.0947 24.3102 28.4601 22.6381 28.4961 20.374C27.5922 20.0806 26.8877 19.6122 26.2939 19.2344C25.5916 18.7874 25.0839 18.5 24.5 18.5Z" fill="black"/>
</svg>
