<svg width="32" height="32" viewBox="0 0 32 32" fill="none" xmlns="http://www.w3.org/2000/svg">
<path d="M25 5.25C27.6234 5.25 29.75 7.37665 29.75 10V22C29.75 24.6234 27.6234 26.75 25 26.75H7C4.37665 26.75 2.25 24.6234 2.25 22V10C2.25 7.37665 4.37665 5.25 7 5.25H25ZM3.75 22C3.75 23.7949 5.20507 25.25 7 25.25H10.25V19.75H3.75V22ZM11.75 25.25H20.25V19.75H11.75V25.25ZM21.75 25.25H25C26.7949 25.25 28.25 23.7949 28.25 22V19.75H21.75V25.25ZM3.75 18.25H10.25V13.75H3.75V18.25ZM11.75 18.25H20.25V13.75H11.75V18.25ZM21.75 18.25H28.25V13.75H21.75V18.25ZM7 6.75C5.20507 6.75 3.75 8.20507 3.75 10V12.25H10.25V6.75H7ZM11.75 12.25H20.25V6.75H11.75V12.25ZM21.75 12.25H28.25V10C28.25 8.20507 26.7949 6.75 25 6.75H21.75V12.25Z" fill="#0F0F0F"/>
</svg>
