<svg width="32" height="32" viewBox="0 0 32 32" fill="none" xmlns="http://www.w3.org/2000/svg">
<path d="M25 4.99957H7C5.6744 5.00113 4.40353 5.52841 3.46618 6.46576C2.52884 7.4031 2.00156 8.67397 2 9.99957V21.9996C2.00156 23.3252 2.52884 24.596 3.46619 25.5334C4.40353 26.4707 5.6744 26.998 7 26.9996H25C26.3256 26.998 27.5965 26.4707 28.5338 25.5334C29.4712 24.596 29.9984 23.3252 30 21.9996V9.99957C29.9984 8.67397 29.4712 7.4031 28.5338 6.46576C27.5965 5.52842 26.3256 5.00113 25 4.99957ZM21 13.9996H27.9971L28 13.999V17.9996H21V13.9996ZM28 9.99957V12.0002L27.9971 11.9996H21V6.99957H25C25.7954 7.00044 26.5579 7.31679 27.1204 7.87921C27.6828 8.44163 27.9991 9.20419 28 9.99957ZM4 9.99957C4.00087 9.20419 4.31722 8.44163 4.87964 7.87921C5.44206 7.31679 6.20462 7.00044 7 6.99957H19V17.9996H4V9.99957ZM19 19.9996V24.9996H13V19.9996H19ZM4 21.9996V19.9996H11V24.9996H7C6.20462 24.9987 5.44206 24.6824 4.87964 24.1199C4.31722 23.5575 4.00087 22.795 4 21.9996ZM28 21.9996C27.9991 22.795 27.6828 23.5575 27.1204 24.1199C26.5579 24.6824 25.7954 24.9987 25 24.9996H21V19.9996H28V21.9996Z" fill="#0F0F0F"/>
</svg>
