<svg width="32" height="32" viewBox="0 0 32 32" fill="none" xmlns="http://www.w3.org/2000/svg">
<path d="M15.8145 9.26953C15.9611 9.24046 16.112 9.24432 16.2559 9.28027L16.3975 9.32715L16.5303 9.39355C16.6148 9.44424 16.6915 9.50717 16.7578 9.58008L16.8496 9.69727L16.9238 9.82715C16.9873 9.9611 17.0202 10.1085 17.0205 10.2578V22.2021C17.0205 22.4015 16.9615 22.5966 16.8506 22.7627C16.7397 22.9286 16.5825 23.0583 16.3984 23.1348C16.2142 23.2112 16.0111 23.231 15.8154 23.1924C15.6241 23.1545 15.4484 23.0614 15.3086 22.9258L15.2979 22.917L11.8145 19.5781H10.0391C9.56474 19.5781 9.10985 19.3891 8.77441 19.0537C8.43898 18.7183 8.25 18.2635 8.25 17.7891V14.6738C8.25 14.1994 8.43898 13.7446 8.77441 13.4092C9.1097 13.074 9.56402 12.8859 10.0381 12.8857L11.8135 12.8838L15.3086 9.53418C15.4481 9.39888 15.6235 9.30744 15.8145 9.26953ZM12.6348 14.1758C12.4953 14.3094 12.3094 14.3837 12.1162 14.3838L10.0391 14.3857C9.9626 14.3857 9.88907 14.4158 9.83496 14.4697C9.78082 14.5239 9.75 14.5974 9.75 14.6738V17.7891C9.75 17.8655 9.78082 17.939 9.83496 17.9932C9.88908 18.0472 9.96255 18.0781 10.0391 18.0781H12.1162L12.2588 18.0918C12.3992 18.119 12.53 18.1858 12.6348 18.2861L15.5205 21.0518V11.4092L12.6348 14.1758Z" fill="#0F0F0F"/>
<path d="M20.5596 12.6113C20.8199 12.3237 21.2534 12.284 21.5596 12.5088L21.6191 12.5576L21.8066 12.7363C22.2332 13.1642 22.5783 13.6673 22.8242 14.2207C23.1052 14.853 23.2509 15.5376 23.251 16.2295C23.251 16.9215 23.1052 17.6069 22.8242 18.2393C22.5432 18.8715 22.1326 19.4386 21.6191 19.9023C21.3117 20.1799 20.8372 20.155 20.5596 19.8477C20.2822 19.5403 20.3062 19.0667 20.6133 18.7891C20.971 18.4659 21.2573 18.0704 21.4531 17.6299C21.6489 17.1892 21.751 16.7116 21.751 16.2295C21.7509 15.7474 21.6489 15.2706 21.4531 14.8301C21.2818 14.4445 21.0413 14.094 20.7441 13.7959L20.6133 13.6709L20.5596 13.6162C20.3047 13.3342 20.2993 12.8995 20.5596 12.6113Z" fill="#0F0F0F"/>
<path d="M18.3115 13.3906C18.5717 13.1026 19.0052 13.0633 19.3115 13.2881L19.3711 13.3369L19.5186 13.4775C19.8548 13.8146 20.1265 14.2114 20.3203 14.6475C20.5418 15.1458 20.6562 15.6851 20.6562 16.2305C20.6562 16.7758 20.5418 17.3152 20.3203 17.8135C20.0988 18.3117 19.7758 18.7586 19.3711 19.124C19.0636 19.4014 18.589 19.3767 18.3115 19.0693C18.0342 18.7619 18.058 18.2873 18.3652 18.0098C18.6143 17.7849 18.8139 17.5107 18.9502 17.2041C19.0864 16.8976 19.1562 16.5659 19.1562 16.2305C19.1562 15.895 19.0865 15.5625 18.9502 15.2559C18.848 15.0261 18.7103 14.8143 18.543 14.6279L18.3652 14.4502L18.3115 14.3955C18.0568 14.1136 18.0515 13.6788 18.3115 13.3906Z" fill="#0F0F0F"/>
<path d="M25 5.25C27.6234 5.25 29.75 7.37665 29.75 10V22C29.75 24.6234 27.6234 26.75 25 26.75H7C4.37665 26.75 2.25 24.6234 2.25 22V10C2.25 7.37665 4.37665 5.25 7 5.25H25ZM7 6.75C5.20507 6.75 3.75 8.20507 3.75 10V22C3.75 23.7949 5.20507 25.25 7 25.25H25C26.7949 25.25 28.25 23.7949 28.25 22V10C28.25 8.20507 26.7949 6.75 25 6.75H7Z" fill="#0F0F0F"/>
</svg>
