<svg width="32" height="32" viewBox="0 0 32 32" fill="none" xmlns="http://www.w3.org/2000/svg">
<path d="M25 4.99958H7C5.6744 5.00114 4.40353 5.52842 3.46618 6.46577C2.52884 7.40311 2.00156 8.67398 2 9.99958V21.9996C2.00156 23.3252 2.52884 24.596 3.46619 25.5334C4.40353 26.4707 5.6744 26.998 7 26.9996H25C26.3256 26.998 27.5965 26.4707 28.5338 25.5334C29.4712 24.596 29.9984 23.3252 30 21.9996V9.99958C29.9984 8.67398 29.4712 7.40311 28.5338 6.46577C27.5965 5.52842 26.3256 5.00114 25 4.99958ZM9.45459 24.9996C9.79873 23.5377 10.6392 22.2404 11.8328 21.3288C13.0263 20.4173 14.4991 19.9478 16 20.0006C17.5009 19.9478 18.9737 20.4173 20.1672 21.3288C21.3608 22.2404 22.2013 23.5377 22.5454 24.9996H9.45459ZM13 15.0006C13 14.4072 13.1759 13.8272 13.5056 13.3339C13.8352 12.8405 14.3038 12.456 14.8519 12.2289C15.4001 12.0019 16.0033 11.9425 16.5853 12.0582C17.1672 12.174 17.7018 12.4597 18.1213 12.8793C18.5409 13.2988 18.8266 13.8334 18.9424 14.4153C19.0581 14.9973 18.9987 15.6005 18.7716 16.1486C18.5446 16.6968 18.1601 17.1653 17.6667 17.495C17.1734 17.8246 16.5933 18.0006 16 18.0006C15.2046 17.9997 14.442 17.6834 13.8796 17.1209C13.3172 16.5585 13.0009 15.796 13 15.0006ZM28 21.9996C27.9991 22.795 27.6828 23.5575 27.1204 24.1199C26.5579 24.6824 25.7954 24.9987 25 24.9996H24.5704C24.3487 23.5772 23.7529 22.2394 22.8441 21.123C21.9353 20.0066 20.7461 19.1519 19.3983 18.6462C20.1356 17.963 20.6499 17.0735 20.8741 16.0937C21.0982 15.1139 21.0219 14.0893 20.655 13.1535C20.2881 12.2177 19.6477 11.4142 18.8173 10.8479C17.9869 10.2815 17.0051 9.97856 16 9.97856C14.9949 9.97856 14.0131 10.2815 13.1827 10.8479C12.3523 11.4142 11.7119 12.2177 11.345 13.1535C10.9781 14.0893 10.9018 15.1139 11.1259 16.0937C11.3501 17.0735 11.8644 17.963 12.6017 18.6462C11.2539 19.1519 10.0647 20.0066 9.15592 21.123C8.24711 22.2394 7.65132 23.5772 7.42956 24.9996H7C6.20462 24.9987 5.44206 24.6824 4.87964 24.1199C4.31722 23.5575 4.00087 22.795 4 21.9996V9.99958C4.00087 9.2042 4.31722 8.44164 4.87964 7.87922C5.44206 7.3168 6.20462 7.00045 7 6.99958H25C25.7954 7.00045 26.5579 7.3168 27.1204 7.87922C27.6828 8.44164 27.9991 9.2042 28 9.99958V21.9996Z" fill="#0F0F0F"/>
</svg>
