<svg width="32" height="32" viewBox="0 0 32 32" fill="none" xmlns="http://www.w3.org/2000/svg">
<path d="M28.7255 4.27459C28.229 3.7793 27.5563 3.50115 26.8549 3.50115C26.1536 3.50115 25.4809 3.7793 24.9843 4.27459L4.27534 24.9846C3.77935 25.4807 3.50076 26.1535 3.50085 26.8551C3.50094 27.5566 3.77971 28.2293 4.27582 28.7253C4.77194 29.2213 5.44476 29.4999 6.14628 29.4998C6.84781 29.4997 7.52056 29.2209 8.01655 28.7248L28.7255 8.01583C29.2208 7.51928 29.499 6.84656 29.499 6.14521C29.499 5.44387 29.2208 4.77115 28.7255 4.27459ZM27.3115 6.60174L6.60255 27.3107C6.48144 27.4311 6.31757 27.4985 6.14683 27.4983C5.97609 27.4981 5.8124 27.4302 5.6916 27.3096C5.5708 27.1889 5.50275 27.0253 5.50235 26.8545C5.50195 26.6838 5.56923 26.5198 5.68946 26.3986L26.3985 5.68861C26.5196 5.56795 26.6837 5.50028 26.8547 5.50046C27.0257 5.50064 27.1897 5.56865 27.3106 5.68957C27.4315 5.81049 27.4995 5.97444 27.4997 6.14544C27.4999 6.31644 27.4322 6.48057 27.3115 6.60174Z" fill="#0F0F0F"/>
<path d="M7.50098 8.50018H10.501V11.5002C10.501 11.7654 10.6063 12.0198 10.7939 12.2073C10.9814 12.3948 11.2358 12.5002 11.501 12.5002C11.7662 12.5002 12.0205 12.3948 12.2081 12.2073C12.3956 12.0198 12.501 11.7654 12.501 11.5002V8.50018H15.501C15.7662 8.50018 16.0205 8.39483 16.2081 8.20729C16.3956 8.01975 16.501 7.7654 16.501 7.50018C16.501 7.23497 16.3956 6.98061 16.2081 6.79308C16.0205 6.60554 15.7662 6.50018 15.501 6.50018H12.501V3.50018C12.501 3.23497 12.3956 2.98061 12.2081 2.79308C12.0205 2.60554 11.7662 2.50018 11.501 2.50018C11.2358 2.50018 10.9814 2.60554 10.7939 2.79308C10.6063 2.98061 10.501 3.23497 10.501 3.50018V6.50018H7.50098C7.23576 6.50018 6.98141 6.60554 6.79387 6.79308C6.60633 6.98061 6.50098 7.23497 6.50098 7.50018C6.50098 7.7654 6.60633 8.01975 6.79387 8.20729C6.98141 8.39483 7.23576 8.50018 7.50098 8.50018Z" fill="#0F0F0F"/>
<path d="M26.501 23.5002H24.501V21.5002C24.501 21.235 24.3956 20.9806 24.2081 20.7931C24.0205 20.6055 23.7662 20.5002 23.501 20.5002C23.2358 20.5002 22.9814 20.6055 22.7939 20.7931C22.6063 20.9806 22.501 21.235 22.501 21.5002V23.5002H20.501C20.2358 23.5002 19.9814 23.6055 19.7939 23.7931C19.6063 23.9806 19.501 24.235 19.501 24.5002C19.501 24.7654 19.6063 25.0198 19.7939 25.2073C19.9814 25.3948 20.2358 25.5002 20.501 25.5002H22.501V27.5002C22.501 27.7654 22.6063 28.0198 22.7939 28.2073C22.9814 28.3948 23.2358 28.5002 23.501 28.5002C23.7662 28.5002 24.0205 28.3948 24.2081 28.2073C24.3956 28.0198 24.501 27.7654 24.501 27.5002V25.5002H26.501C26.7662 25.5002 27.0205 25.3948 27.2081 25.2073C27.3956 25.0198 27.501 24.7654 27.501 24.5002C27.501 24.235 27.3956 23.9806 27.2081 23.7931C27.0205 23.6055 26.7662 23.5002 26.501 23.5002Z" fill="#0F0F0F"/>
<path d="M4.50098 18.5002C4.50098 18.7654 4.60633 19.0198 4.79387 19.2073C4.98141 19.3948 5.23576 19.5002 5.50098 19.5002C5.76619 19.5002 6.02055 19.3948 6.20808 19.2073C6.39562 19.0198 6.50098 18.7654 6.50098 18.5002V17.5002H7.50098C7.76619 17.5002 8.02055 17.3948 8.20808 17.2073C8.39562 17.0198 8.50098 16.7654 8.50098 16.5002C8.50098 16.235 8.39562 15.9806 8.20808 15.7931C8.02055 15.6055 7.76619 15.5002 7.50098 15.5002H6.50098V14.5002C6.50098 14.235 6.39562 13.9806 6.20808 13.7931C6.02055 13.6055 5.76619 13.5002 5.50098 13.5002C5.23576 13.5002 4.98141 13.6055 4.79387 13.7931C4.60633 13.9806 4.50098 14.235 4.50098 14.5002V15.5002H3.50098C3.23576 15.5002 2.98141 15.6055 2.79387 15.7931C2.60633 15.9806 2.50098 16.235 2.50098 16.5002C2.50098 16.7654 2.60633 17.0198 2.79387 17.2073C2.98141 17.3948 3.23576 17.5002 3.50098 17.5002H4.50098V18.5002Z" fill="#0F0F0F"/>
</svg>
