<svg width="32" height="32" viewBox="0 0 32 32" fill="none" xmlns="http://www.w3.org/2000/svg">
<path d="M9.34375 16.2959C9.34388 17.0363 9.94222 17.6562 10.7031 17.6562H14.042L14.0078 17.7402C13.4967 19.1858 12.1174 20.2188 10.5 20.2188C8.44626 20.2188 6.78137 18.5537 6.78125 16.5C6.78134 14.8826 7.81507 13.5042 9.26074 12.9932C9.2893 12.9831 9.31651 12.9701 9.34375 12.958V16.2959Z" fill="#0F0F0F"/>
<path d="M19 27H7C4.23858 27 2 24.7614 2 22V10C2 7.23858 4.23858 5 7 5H19V27ZM10.7471 10.0674C10.144 10.0446 9.65413 10.4076 9.44824 10.9004C9.16645 10.7394 8.81927 10.6959 8.48926 10.8125C6.14872 11.64 4.46884 13.8723 4.46875 16.5C4.46887 19.8309 7.16911 22.5312 10.5 22.5312C13.1278 22.5312 15.36 20.8513 16.1875 18.5107C16.3042 18.1807 16.2607 17.8336 16.0996 17.5518C16.5941 17.3454 16.9553 16.8533 16.9326 16.2529C16.8093 12.9989 14.2728 10.3643 11.0605 10.0869L10.7471 10.0674Z" fill="#0F0F0F"/>
<path d="M30 22C30 24.7614 27.7614 27 25 27H21V20H30V22Z" fill="#0F0F0F"/>
<path d="M30 18H21V14H30V18Z" fill="#0F0F0F"/>
<path d="M25 5C27.7614 5 30 7.23858 30 10V12H21V5H25Z" fill="#0F0F0F"/>
</svg>
