<svg width="32" height="32" viewBox="0 0 32 32" fill="none" xmlns="http://www.w3.org/2000/svg">
<path d="M11.2266 10.0977C14.3083 10.2143 16.7853 12.6908 16.9023 15.7725C16.9233 16.3262 16.5784 16.7752 16.1152 16.9502C16.2773 17.2077 16.3249 17.5336 16.2158 17.8428C15.457 19.9896 13.41 21.5312 11 21.5312C7.94533 21.5312 5.46901 19.0546 5.46875 16C5.46895 13.5902 7.00958 11.542 9.15625 10.7832L9.25781 10.7529C9.53558 10.6855 9.81938 10.7396 10.0488 10.8838C10.2236 10.4227 10.6706 10.0767 11.2266 10.0977ZM9.84375 12.7275C8.49535 13.2041 7.53145 14.4914 7.53125 16C7.53151 17.9155 9.08442 19.4688 11 19.4688C12.5087 19.4688 13.7947 18.5046 14.2715 17.1562L14.3115 17.0586C14.3159 17.0494 14.3216 17.0403 14.3262 17.0312H11.1875C10.5053 17.0312 9.96875 16.4745 9.96875 15.8105V12.6719C9.92861 12.6923 9.88738 12.7121 9.84375 12.7275ZM12.0312 14.9688H14.7031C14.3437 13.6752 13.3248 12.6553 12.0312 12.2959V14.9688Z" fill="#0F0F0F"/>
<path d="M25 5C27.7614 5 30 7.23858 30 10V22C30 24.7614 27.7614 27 25 27H7C4.23858 27 2 24.7614 2 22V10C2 7.23858 4.23858 5 7 5H25ZM7 7C5.34315 7 4 8.34315 4 10V22C4 23.6569 5.34315 25 7 25H19V7H7ZM21 25H25C26.6569 25 28 23.6569 28 22V20H21V25ZM21 18H28V14H21V18ZM21 12H28V10C28 8.34315 26.6569 7 25 7H21V12Z" fill="#0F0F0F"/>
</svg>
