<svg width="32" height="32" viewBox="0 0 32 32" fill="none" xmlns="http://www.w3.org/2000/svg">
<path d="M11.8581 16.97H14.0151L12.9421 13.466L11.8581 16.97Z" fill="#0F0F0F"/>
<path d="M28.7886 9.72429C28.5635 9.58613 28.3061 9.50962 28.0421 9.50242C27.7781 9.49522 27.5169 9.5576 27.2847 9.68329L23.5024 12.0888V10.0007C23.5011 8.80758 23.0266 7.66375 22.183 6.82011C21.3394 5.97648 20.1955 5.50196 19.0024 5.50066H7.00244C5.80937 5.50196 4.66553 5.97648 3.8219 6.82011C2.97827 7.66375 2.50374 8.80758 2.50244 10.0007V22.0007C2.50374 23.1937 2.97826 24.3376 3.8219 25.1812C4.66553 26.0248 5.80937 26.4994 7.00244 26.5007H19.0024C20.1955 26.4994 21.3394 26.0248 22.183 25.1812C23.0266 24.3376 23.5011 23.1937 23.5024 22.0007V19.9118L27.3286 22.3415C27.5375 22.4462 27.7678 22.501 28.0015 22.5016C28.3989 22.5002 28.7797 22.3416 29.0606 22.0603C29.3415 21.7791 29.4996 21.3981 29.5005 21.0006V10.9996C29.5014 10.7438 29.4364 10.492 29.3117 10.2686C29.187 10.0453 29.0068 9.85777 28.7886 9.72429ZM14.9735 20.1081L14.3912 18.2248H11.4694L10.888 20.1081H8.99341L11.9152 11.8918H14.0494L16.9934 20.1081H14.9735Z" fill="#0F0F0F"/>
</svg>
