<svg width="32" height="32" viewBox="0 0 32 32" fill="none" xmlns="http://www.w3.org/2000/svg">
<path d="M15.9502 9.00195C16.0733 8.99599 16.1968 9.00724 16.3164 9.03711L16.4932 9.0957L16.6582 9.17871C16.7641 9.24213 16.8603 9.32076 16.9434 9.41211L17.0576 9.55859L17.1494 9.71973C17.2287 9.88696 17.2701 10.0704 17.2705 10.2568V22.2021L17.2568 22.3877C17.2296 22.5706 17.1623 22.7461 17.0586 22.9014C16.9203 23.1084 16.7238 23.2699 16.4941 23.3652C16.2642 23.4606 16.0108 23.4858 15.7666 23.4375C15.5285 23.3904 15.3109 23.274 15.1367 23.1055L15.1357 23.1074L11.7139 19.8281H10.0391C9.49843 19.8281 8.97998 19.6127 8.59766 19.2305C8.21534 18.8482 8 18.3298 8 17.7891V14.6738C8 14.1331 8.21534 13.6147 8.59766 13.2324C8.97983 12.8504 9.49772 12.6359 10.0381 12.6357L11.7129 12.6338L15.1357 9.35352L15.1367 9.35547C15.3107 9.18722 15.5288 9.07155 15.7666 9.02441L15.9502 9.00195ZM12.8076 14.3564C12.6216 14.5346 12.3738 14.6337 12.1162 14.6338L10.0391 14.6357C10.0289 14.6357 10.0189 14.6394 10.0117 14.6465C10.0045 14.6537 10 14.6637 10 14.6738V17.7891C10 17.7992 10.0045 17.8091 10.0117 17.8164C10.019 17.8236 10.0288 17.8281 10.0391 17.8281H12.1162L12.2119 17.832C12.4346 17.8535 12.6447 17.9495 12.8076 18.1055L15.2705 20.4658V11.9951L12.8076 14.3564Z" fill="#0F0F0F"/>
<path d="M20.374 12.4443C20.7211 12.0604 21.2986 12.0077 21.707 12.3076L21.7861 12.3721L21.9834 12.5596C22.4316 13.0091 22.7943 13.5377 23.0527 14.1191C23.3479 14.7834 23.5009 15.5026 23.501 16.2295C23.501 16.9565 23.3479 17.6765 23.0527 18.3408C22.7575 19.005 22.3255 19.6007 21.7861 20.0879C21.3763 20.4577 20.7441 20.4253 20.374 20.0156C20.0039 19.6057 20.0364 18.9737 20.4463 18.6035C20.7781 18.3037 21.044 17.937 21.2256 17.5283C21.4071 17.1197 21.501 16.6766 21.501 16.2295C21.5009 15.7826 21.407 15.3401 21.2256 14.9316C21.0666 14.5739 20.8431 14.2482 20.5674 13.9717L20.4463 13.8564L20.374 13.7842C20.0339 13.4083 20.0271 12.8287 20.374 12.4443Z" fill="#0F0F0F"/>
<path d="M18.126 13.2236C18.496 12.8138 19.1281 12.7815 19.5381 13.1514C19.9689 13.5403 20.3131 14.0156 20.5488 14.5459C20.7845 15.0762 20.9062 15.6501 20.9062 16.2305C20.9062 16.8108 20.7845 17.3848 20.5488 17.915C20.3131 18.4452 19.9688 18.9207 19.5381 19.3096C19.1282 19.6792 18.496 19.6469 18.126 19.2373C17.7791 18.853 17.786 18.2724 18.126 17.8965L18.3574 17.665C18.5073 17.4981 18.6302 17.3083 18.7217 17.1025C18.8437 16.828 18.9062 16.5309 18.9062 16.2305C18.9062 15.93 18.8437 15.6321 18.7217 15.3574C18.6302 15.1517 18.5073 14.9618 18.3574 14.7949L18.126 14.5635C17.7861 14.1876 17.7792 13.6079 18.126 13.2236Z" fill="#0F0F0F"/>
<path d="M25 5C27.7614 5 30 7.23858 30 10V22C30 24.7614 27.7614 27 25 27H7C4.23858 27 2 24.7614 2 22V10C2 7.23858 4.23858 5 7 5H25ZM7 7C5.34315 7 4 8.34315 4 10V22C4 23.6569 5.34315 25 7 25H25C26.6569 25 28 23.6569 28 22V10C28 8.34315 26.6569 7 25 7H7Z" fill="#0F0F0F"/>
</svg>
