<svg width="32" height="32" viewBox="0 0 32 32" fill="none" xmlns="http://www.w3.org/2000/svg">
<path d="M25 5.24958H7C5.74066 5.25101 4.53331 5.75191 3.64282 6.6424C2.75233 7.53289 2.25143 8.74024 2.25 9.99958V21.9996C2.25143 23.2589 2.75233 24.4663 3.64282 25.3568C4.53331 26.2472 5.74066 26.7482 7 26.7496H25C26.2593 26.7482 27.4667 26.2472 28.3572 25.3568C29.2477 24.4663 29.7486 23.2589 29.75 21.9996V9.99958C29.7486 8.74024 29.2477 7.53289 28.3572 6.6424C27.4667 5.75191 26.2593 5.25101 25 5.24958ZM9.15906 25.2496C9.44711 23.6634 10.2974 22.2342 11.5539 21.2241C12.8104 20.2141 14.389 19.6909 16 19.7506C17.611 19.6909 19.1896 20.2141 20.4461 21.2241C21.7026 22.2342 22.5529 23.6634 22.8409 25.2496H9.15906ZM12.75 15.0006C12.75 14.3578 12.9406 13.7294 13.2977 13.195C13.6548 12.6605 14.1624 12.244 14.7563 11.998C15.3501 11.752 16.0036 11.6876 16.634 11.813C17.2645 11.9384 17.8436 12.248 18.2981 12.7025C18.7526 13.157 19.0622 13.7361 19.1876 14.3665C19.313 14.997 19.2486 15.6504 19.0026 16.2443C18.7566 16.8382 18.3401 17.3457 17.8056 17.7029C17.2711 18.06 16.6428 18.2506 16 18.2506C15.1383 18.2496 14.3123 17.9068 13.703 17.2976C13.0937 16.6883 12.751 15.8622 12.75 15.0006ZM28.25 21.9996C28.249 22.8612 27.9063 23.6873 27.297 24.2966C26.6877 24.9059 25.8616 25.2486 25 25.2496H24.3543C24.1607 23.7567 23.5441 22.3503 22.5774 21.1963C21.6107 20.0423 20.3342 19.1888 18.8983 18.7365C19.6841 18.1314 20.2607 17.2955 20.5474 16.346C20.8341 15.3965 20.8163 14.3812 20.4967 13.4423C20.1771 12.5034 19.5716 11.6881 18.7652 11.1108C17.9587 10.5334 16.9918 10.223 16 10.223C15.0082 10.223 14.0413 10.5334 13.2349 11.1108C12.4285 11.6881 11.823 12.5034 11.5034 13.4423C11.1837 14.3812 11.166 15.3965 11.4527 16.346C11.7393 17.2955 12.316 18.1314 13.1017 18.7365C11.6659 19.1888 10.3893 20.0423 9.42264 21.1963C8.45594 22.3503 7.8394 23.7567 7.64574 25.2496H7C6.13835 25.2486 5.31228 24.9059 4.70301 24.2966C4.09373 23.6873 3.751 22.8612 3.75 21.9996V9.99958C3.751 9.13793 4.09372 8.31186 4.703 7.70258C5.31228 7.0933 6.13835 6.75058 7 6.74958H25C25.8616 6.75058 26.6877 7.0933 27.297 7.70258C27.9063 8.31186 28.249 9.13793 28.25 9.99958V21.9996Z" fill="#0F0F0F"/>
</svg>
