<svg width="32" height="32" viewBox="0 0 32 32" fill="none" xmlns="http://www.w3.org/2000/svg">
<path d="M25 5.49958H7C5.80692 5.50088 4.66309 5.9754 3.81945 6.81904C2.97582 7.66267 2.5013 8.80651 2.5 9.99958V21.9996C2.5013 23.1927 2.97583 24.3365 3.81946 25.1801C4.66309 26.0238 5.80693 26.4983 7 26.4996H25C26.1931 26.4983 27.3369 26.0237 28.1805 25.1801C29.0242 24.3365 29.4987 23.1927 29.5 21.9996V9.99958C29.4987 8.80651 29.0242 7.66267 28.1805 6.81904C27.3369 5.97541 26.1931 5.50088 25 5.49958ZM8.88232 25.4996C9.10815 23.7927 9.96304 22.2315 11.2796 21.1219C12.5961 20.0123 14.2795 19.4341 16 19.5006C17.7205 19.4341 19.4039 20.0123 20.7204 21.1219C22.0369 22.2315 22.8918 23.7927 23.1177 25.4996H8.88232ZM12.5 15.0006C12.5 14.3083 12.7053 13.6317 13.0899 13.0561C13.4744 12.4805 14.0211 12.0319 14.6606 11.767C15.3001 11.5021 16.0039 11.4328 16.6828 11.5678C17.3617 11.7029 17.9854 12.0362 18.4749 12.5257C18.9644 13.0152 19.2977 13.6388 19.4327 14.3178C19.5678 14.9967 19.4985 15.7004 19.2336 16.34C18.9687 16.9795 18.5201 17.5261 17.9445 17.9107C17.3689 18.2953 16.6922 18.5006 16 18.5006C15.0721 18.4995 14.1825 18.1303 13.5264 17.4742C12.8702 16.8181 12.5011 15.9285 12.5 15.0006ZM28.5 21.9996C28.4989 22.9275 28.1298 23.8171 27.4736 24.4732C26.8175 25.1293 25.9279 25.4985 25 25.4996H24.118C23.9614 23.9276 23.3231 22.4424 22.2903 21.247C21.2575 20.0517 19.8807 19.2045 18.3481 18.8213C19.1848 18.3096 19.8314 17.5384 20.1895 16.6252C20.5475 15.7121 20.5974 14.707 20.3316 13.7628C20.0657 12.8187 19.4987 11.9873 18.7168 11.3952C17.9348 10.803 16.9809 10.4825 16 10.4825C15.0192 10.4825 14.0652 10.803 13.2833 11.3952C12.5014 11.9873 11.9343 12.8187 11.6685 13.7628C11.4026 14.707 11.4525 15.7121 11.8106 16.6252C12.1686 17.5384 12.8152 18.3096 13.6519 18.8213C12.1194 19.2045 10.7425 20.0517 9.70975 21.247C8.67697 22.4424 8.03863 23.9276 7.88204 25.4996H7.00004C6.07213 25.4985 5.18254 25.1293 4.52641 24.4732C3.87027 23.8171 3.50116 22.9275 3.50004 21.9996V9.99958C3.50116 9.07167 3.87027 8.18208 4.52641 7.52595C5.18254 6.86981 6.07213 6.5007 7.00004 6.49958H25C25.928 6.5007 26.8175 6.86981 27.4737 7.52595C28.1298 8.18208 28.4989 9.07167 28.5 9.99958L28.5 21.9996Z" fill="#0F0F0F"/>
</svg>
