<svg width="32" height="32" viewBox="0 0 32 32" fill="none" xmlns="http://www.w3.org/2000/svg">
<path d="M4.25 10.75C5.2165 10.75 6 9.9665 6 9C6 8.0335 5.2165 7.25 4.25 7.25C3.2835 7.25 2.5 8.0335 2.5 9C2.5 9.9665 3.2835 10.75 4.25 10.75Z" fill="#0F0F0F"/>
<path d="M10 7.5C9.17157 7.5 8.5 8.17157 8.5 9C8.5 9.82843 9.17157 10.5 10 10.5H28C28.8284 10.5 29.5 9.82843 29.5 9C29.5 8.17157 28.8284 7.5 28 7.5H10Z" fill="#0F0F0F"/>
<path d="M10 14.5C9.17157 14.5 8.5 15.1716 8.5 16C8.5 16.8284 9.17157 17.5 10 17.5H28C28.8284 17.5 29.5 16.8284 29.5 16C29.5 15.1716 28.8284 14.5 28 14.5H10Z" fill="#0F0F0F"/>
<path d="M8.5 23C8.5 22.1716 9.17157 21.5 10 21.5H28C28.8284 21.5 29.5 22.1716 29.5 23C29.5 23.8284 28.8284 24.5 28 24.5H10C9.17157 24.5 8.5 23.8284 8.5 23Z" fill="#0F0F0F"/>
<path d="M4.25 24.75C5.2165 24.75 6 23.9665 6 23C6 22.0335 5.2165 21.25 4.25 21.25C3.2835 21.25 2.5 22.0335 2.5 23C2.5 23.9665 3.2835 24.75 4.25 24.75Z" fill="#0F0F0F"/>
<path d="M6 16C6 16.9665 5.2165 17.75 4.25 17.75C3.2835 17.75 2.5 16.9665 2.5 16C2.5 15.0335 3.2835 14.25 4.25 14.25C5.2165 14.25 6 15.0335 6 16Z" fill="#0F0F0F"/>
</svg>
