<svg width="32" height="32" viewBox="0 0 32 32" fill="none" xmlns="http://www.w3.org/2000/svg">
<path d="M21.3821 6H10.6179C5.30729 6 1 10.4784 1 16C1 21.5216 5.30729 26 10.6179 26H21.3821C26.6927 26 31 21.5216 31 16C31 10.4784 26.6927 6 21.3821 6ZM10.5532 22.0095C8.78926 22.0095 7.43801 21.3337 6.72867 20.069C6.55606 19.7521 6.47514 19.4689 6.47514 19.1632C6.47514 18.6669 6.7907 18.3724 7.2573 18.3724C7.6322 18.3724 7.86685 18.5407 8.0071 18.9305C8.39279 19.9428 9.27475 20.4812 10.564 20.4812C12.0447 20.4812 13.0588 19.668 13.0588 18.4874C13.0588 17.189 12.0851 16.4627 10.4318 16.4627H9.6011C9.17495 16.4627 8.89176 16.1767 8.89176 15.756C8.89176 15.3354 9.17495 15.0381 9.6011 15.0381H10.4129C11.7426 15.0381 12.6542 14.2782 12.6542 13.1172C12.6542 11.9563 11.8235 11.2832 10.4723 11.2832C9.33678 11.2832 8.54383 11.8329 8.16893 12.834C8.03677 13.2658 7.84528 13.4145 7.43801 13.4145C7.03075 13.4145 6.72867 13.12 6.72867 12.6769C6.72867 12.318 6.80958 12.0236 6.97141 11.6955C7.57017 10.5036 8.88906 9.79697 10.5208 9.79697C12.7217 9.79697 14.3049 11.0953 14.3049 12.8873C14.3049 14.3539 13.3717 15.4083 11.8613 15.6607V15.6915C13.6683 15.8177 14.793 16.8721 14.793 18.507C14.793 20.5205 13.0183 22.0095 10.5532 22.0095ZM20.2817 21.7992H17.0667C16.5704 21.7992 16.2441 21.4627 16.2441 20.9243V10.8822C16.2441 10.3438 16.5677 10.0073 17.0667 10.0073H20.2817C23.4373 10.0073 25.5276 12.3489 25.5276 15.871C25.5276 19.3932 23.4373 21.7992 20.2817 21.7992Z" fill="#0F0F0F"/>
<path d="M20.1684 11.5468H17.8947V20.2372H20.1684C22.3692 20.2372 23.8311 18.4958 23.8311 15.8822C23.8311 13.2686 22.3692 11.5468 20.1684 11.5468Z" fill="#0F0F0F"/>
</svg>
