<svg width="32" height="32" viewBox="0 0 32 32" fill="none" xmlns="http://www.w3.org/2000/svg">
<path d="M19.25 15.2676H25.3184C26.7529 15.2676 27.4893 14.5693 27.4893 13.0713V7.06641C27.4893 5.55566 26.7529 4.85742 25.3184 4.85742H19.25C17.8154 4.85742 17.0791 5.55566 17.0791 7.06641V13.0713C17.0791 14.5693 17.8154 15.2676 19.25 15.2676ZM6.65625 15.2676H12.7373C14.1719 15.2676 14.8955 14.5693 14.8955 13.0713V7.06641C14.8955 5.55566 14.1719 4.85742 12.7373 4.85742H6.65625C5.23438 4.85742 4.49805 5.55566 4.49805 7.06641V13.0713C4.49805 14.5693 5.23438 15.2676 6.65625 15.2676ZM6.65625 27.8486H12.7373C14.1719 27.8486 14.8955 27.1504 14.8955 25.6523V19.6475C14.8955 18.1494 14.1719 17.4512 12.7373 17.4512H6.65625C5.23438 17.4512 4.49805 18.1494 4.49805 19.6475V25.6523C4.49805 27.1504 5.23438 27.8486 6.65625 27.8486ZM19.25 27.8486H25.3184C26.7529 27.8486 27.4893 27.1504 27.4893 25.6523V19.6475C27.4893 18.1494 26.7529 17.4512 25.3184 17.4512H19.25C17.8154 17.4512 17.0791 18.1494 17.0791 19.6475V25.6523C17.0791 27.1504 17.8154 27.8486 19.25 27.8486Z" fill="black"/>
</svg>
