<svg width="32" height="32" viewBox="0 0 32 32" fill="none" xmlns="http://www.w3.org/2000/svg">
<path d="M7.72266 25.7539C4.99316 25.7539 2.88574 24.6875 1.89551 22.7959C1.66699 22.377 1.55273 21.9834 1.55273 21.5645C1.55273 20.9043 1.99707 20.498 2.65723 20.498C3.19043 20.498 3.49512 20.7266 3.72363 21.2598C4.25684 22.8086 5.7168 23.6973 7.73535 23.6973C10.0713 23.6973 11.6836 22.4277 11.6836 20.6123C11.6836 18.6572 10.1348 17.54 7.53223 17.54H6.22461C5.61523 17.54 5.22168 17.1592 5.22168 16.5879C5.22168 16.0166 5.61523 15.6357 6.22461 15.6357H7.50684C9.62695 15.6357 11.0615 14.4805 11.0615 12.7158C11.0615 11.0146 9.71582 9.91016 7.6084 9.91016C5.80566 9.91016 4.51074 10.7861 3.97754 12.3223C3.78711 12.9062 3.52051 13.1221 2.94922 13.1221C2.35254 13.1221 1.93359 12.7285 1.93359 12.1191C1.93359 11.6621 2.03516 11.2559 2.25098 10.8242C3.10156 9.00879 5.13281 7.9043 7.67188 7.9043C11.0107 7.9043 13.3975 9.7832 13.3975 12.4111C13.3975 14.5439 11.9629 16.0801 9.67773 16.4736V16.5117C12.4199 16.7021 14.1338 18.2637 14.1338 20.6631C14.1338 23.6084 11.4678 25.7539 7.72266 25.7539ZM17.6504 25.4492C16.9268 25.4492 16.4697 24.9922 16.4697 24.2559V9.40234C16.4697 8.66602 16.9268 8.20898 17.6504 8.20898H22.4111C27.2734 8.20898 30.4473 11.6367 30.4473 16.791C30.4473 21.9834 27.2734 25.4492 22.4111 25.4492H17.6504ZM18.8311 23.3545H22.2334C25.75 23.3545 28.0352 20.7266 28.0352 16.8037C28.0352 12.8936 25.75 10.2783 22.2334 10.2783H18.8311V23.3545Z" fill="black"/>
</svg>
