<svg width="32" height="32" viewBox="0 0 32 32" fill="none" xmlns="http://www.w3.org/2000/svg">
<path d="M28.0001 15.2497H10.0001C9.80119 15.2497 9.61042 15.3288 9.46977 15.4694C9.32912 15.6101 9.2501 15.8008 9.2501 15.9997C9.2501 16.1987 9.32912 16.3894 9.46977 16.5301C9.61042 16.6707 9.80119 16.7497 10.0001 16.7497H28.0001C28.199 16.7497 28.3898 16.6707 28.5304 16.5301C28.6711 16.3894 28.7501 16.1987 28.7501 15.9997C28.7501 15.8008 28.6711 15.6101 28.5304 15.4694C28.3898 15.3288 28.199 15.2497 28.0001 15.2497Z" fill="#0F0F0F"/>
<path d="M10.0001 9.74974H28.0001C28.199 9.74974 28.3898 9.67072 28.5304 9.53007C28.6711 9.38942 28.7501 9.19865 28.7501 8.99974C28.7501 8.80083 28.6711 8.61006 28.5304 8.46941C28.3898 8.32876 28.199 8.24974 28.0001 8.24974H10.0001C9.80119 8.24974 9.61042 8.32876 9.46977 8.46941C9.32912 8.61006 9.2501 8.80083 9.2501 8.99974C9.2501 9.19865 9.32912 9.38942 9.46977 9.53007C9.61042 9.67072 9.80119 9.74974 10.0001 9.74974Z" fill="#0F0F0F"/>
<path d="M28.0001 22.2497H10.0001C9.80119 22.2497 9.61042 22.3288 9.46977 22.4694C9.32912 22.6101 9.2501 22.8008 9.2501 22.9997C9.2501 23.1987 9.32912 23.3894 9.46977 23.5301C9.61042 23.6707 9.80119 23.7497 10.0001 23.7497H28.0001C28.199 23.7497 28.3898 23.6707 28.5304 23.5301C28.6711 23.3894 28.7501 23.1987 28.7501 22.9997C28.7501 22.8008 28.6711 22.6101 28.5304 22.4694C28.3898 22.3288 28.199 22.2497 28.0001 22.2497Z" fill="#0F0F0F"/>
<path d="M4.25 15C4.05222 15 3.85888 15.0586 3.69443 15.1685C3.52998 15.2784 3.40181 15.4346 3.32612 15.6173C3.25043 15.8 3.23063 16.0011 3.26922 16.1951C3.3078 16.3891 3.40304 16.5673 3.54289 16.7071C3.68275 16.847 3.86093 16.9422 4.05491 16.9808C4.24889 17.0194 4.44996 16.9996 4.63268 16.9239C4.81541 16.8482 4.97159 16.72 5.08147 16.5556C5.19135 16.3911 5.25 16.1978 5.25 16C5.25 15.7348 5.14464 15.4804 4.95711 15.2929C4.76957 15.1054 4.51522 15 4.25 15Z" fill="#0F0F0F"/>
<path d="M4.25 22C4.05222 22 3.85888 22.0586 3.69443 22.1685C3.52998 22.2784 3.40181 22.4346 3.32612 22.6173C3.25043 22.8 3.23063 23.0011 3.26922 23.1951C3.3078 23.3891 3.40304 23.5673 3.54289 23.7071C3.68275 23.847 3.86093 23.9422 4.05491 23.9808C4.24889 24.0194 4.44996 23.9996 4.63268 23.9239C4.81541 23.8482 4.97159 23.72 5.08147 23.5556C5.19135 23.3911 5.25 23.1978 5.25 23C5.25 22.7348 5.14464 22.4804 4.95711 22.2929C4.76957 22.1054 4.51522 22 4.25 22Z" fill="#0F0F0F"/>
<path d="M4.25 8C4.05222 8 3.85888 8.05865 3.69443 8.16853C3.52998 8.27841 3.40181 8.43459 3.32612 8.61732C3.25043 8.80004 3.23063 9.00111 3.26922 9.19509C3.3078 9.38907 3.40304 9.56725 3.54289 9.70711C3.68275 9.84696 3.86093 9.9422 4.05491 9.98079C4.24889 10.0194 4.44996 9.99957 4.63268 9.92388C4.81541 9.84819 4.97159 9.72002 5.08147 9.55557C5.19135 9.39112 5.25 9.19778 5.25 9C5.25 8.73478 5.14464 8.48043 4.95711 8.29289C4.76957 8.10536 4.51522 8 4.25 8Z" fill="#0F0F0F"/>
</svg>
