<svg width="32" height="32" viewBox="0 0 32 32" fill="none" xmlns="http://www.w3.org/2000/svg">
<path d="M12 3.49974H6C5.33715 3.50035 4.70162 3.76394 4.23291 4.23265C3.7642 4.70136 3.50061 5.33689 3.5 5.99974V11.9997C3.50061 12.6626 3.7642 13.2981 4.23291 13.7668C4.70162 14.2355 5.33715 14.4991 6 14.4997H12C12.6629 14.4991 13.2984 14.2355 13.7671 13.7668C14.2358 13.2981 14.4994 12.6626 14.5 11.9997V5.99974C14.4994 5.33689 14.2358 4.70136 13.7671 4.23265C13.2984 3.76394 12.6629 3.50035 12 3.49974ZM13.5 11.9997C13.4996 12.3974 13.3414 12.7787 13.0602 13.0599C12.779 13.3411 12.3977 13.4993 12 13.4997H6C5.60231 13.4993 5.22103 13.3411 4.93982 13.0599C4.65861 12.7787 4.50043 12.3974 4.5 11.9997V5.99974C4.50043 5.60205 4.65861 5.22077 4.93982 4.93956C5.22103 4.65835 5.60231 4.50017 6 4.49974H12C12.3977 4.50017 12.779 4.65835 13.0602 4.93956C13.3414 5.22077 13.4996 5.60205 13.5 5.99974V11.9997Z" fill="#0F0F0F"/>
<path d="M26 3.49974H20C19.3371 3.50035 18.7016 3.76394 18.2329 4.23265C17.7642 4.70136 17.5006 5.33689 17.5 5.99974V11.9997C17.5006 12.6626 17.7642 13.2981 18.2329 13.7668C18.7016 14.2355 19.3371 14.4991 20 14.4997H26C26.6629 14.4991 27.2984 14.2355 27.7671 13.7668C28.2358 13.2981 28.4994 12.6626 28.5 11.9997V5.99974C28.4994 5.33689 28.2358 4.70136 27.7671 4.23265C27.2984 3.76394 26.6629 3.50035 26 3.49974ZM27.5 11.9997C27.4996 12.3974 27.3414 12.7787 27.0602 13.0599C26.779 13.3411 26.3977 13.4993 26 13.4997H20C19.6023 13.4993 19.221 13.3411 18.9398 13.0599C18.6586 12.7787 18.5004 12.3974 18.5 11.9997V5.99974C18.5004 5.60205 18.6586 5.22077 18.9398 4.93956C19.221 4.65835 19.6023 4.50017 20 4.49974H26C26.3977 4.50017 26.779 4.65835 27.0602 4.93956C27.3414 5.22077 27.4996 5.60205 27.5 5.99974V11.9997Z" fill="#0F0F0F"/>
<path d="M26 17.4997H20C19.3371 17.5004 18.7016 17.7639 18.2329 18.2326C17.7642 18.7014 17.5006 19.3369 17.5 19.9997V25.9997C17.5006 26.6626 17.7642 27.2981 18.2329 27.7668C18.7016 28.2355 19.3371 28.4991 20 28.4997H26C26.6629 28.4991 27.2984 28.2355 27.7671 27.7668C28.2358 27.2981 28.4994 26.6626 28.5 25.9997V19.9997C28.4994 19.3369 28.2358 18.7014 27.7671 18.2327C27.2984 17.7639 26.6629 17.5004 26 17.4997ZM27.5 25.9997C27.4996 26.3974 27.3414 26.7787 27.0602 27.0599C26.779 27.3411 26.3977 27.4993 26 27.4997H20C19.6023 27.4993 19.221 27.3411 18.9398 27.0599C18.6586 26.7787 18.5004 26.3974 18.5 25.9997V19.9997C18.5004 19.602 18.6586 19.2208 18.9398 18.9396C19.221 18.6583 19.6023 18.5002 20 18.4997H26C26.3977 18.5002 26.779 18.6583 27.0602 18.9396C27.3414 19.2208 27.4996 19.602 27.5 19.9997V25.9997Z" fill="#0F0F0F"/>
<path d="M12 17.4997H6C5.33715 17.5004 4.70162 17.7639 4.23291 18.2326C3.7642 18.7014 3.50061 19.3369 3.5 19.9997V25.9997C3.50061 26.6626 3.7642 27.2981 4.23291 27.7668C4.70162 28.2355 5.33715 28.4991 6 28.4997H12C12.6629 28.4991 13.2984 28.2355 13.7671 27.7668C14.2358 27.2981 14.4994 26.6626 14.5 25.9997V19.9997C14.4994 19.3369 14.2358 18.7014 13.7671 18.2327C13.2984 17.7639 12.6629 17.5004 12 17.4997ZM13.5 25.9997C13.4996 26.3974 13.3414 26.7787 13.0602 27.0599C12.779 27.3411 12.3977 27.4993 12 27.4997H6C5.60231 27.4993 5.22103 27.3411 4.93982 27.0599C4.65861 26.7787 4.50043 26.3974 4.5 25.9997V19.9997C4.50043 19.602 4.65861 19.2208 4.93982 18.9396C5.22103 18.6583 5.60231 18.5002 6 18.4997H12C12.3977 18.5002 12.779 18.6583 13.0602 18.9396C13.3414 19.2208 13.4996 19.602 13.5 19.9997V25.9997Z" fill="#0F0F0F"/>
</svg>
