<svg width="32" height="32" viewBox="0 0 32 32" fill="none" xmlns="http://www.w3.org/2000/svg">
<path fill-rule="evenodd" clip-rule="evenodd" d="M10.4852 10.4788C11.3363 10.2521 12.6856 10.1267 13.8888 10.0626C14.4765 10.0313 15.0063 10.0156 15.3892 10.0078C15.5805 10.0039 15.7345 10.0019 15.8401 10.001C15.8929 10.0005 15.9336 10.0002 15.9607 10.0001L15.9911 10L15.9999 10L16.009 10L16.0394 10.0001C16.0665 10.0002 16.1072 10.0005 16.16 10.001C16.2656 10.0019 16.4196 10.0039 16.6108 10.0078C16.9937 10.0156 17.5236 10.0313 18.1113 10.0626C19.3144 10.1267 20.6636 10.2521 21.5148 10.4788C22.0484 10.621 22.5963 10.3036 22.7384 9.76988C22.8806 9.2362 22.5632 8.68834 22.0295 8.5462C20.9563 8.26039 19.4195 8.12951 18.2177 8.06548C17.6029 8.03273 17.0505 8.01639 16.6518 8.00822C16.4523 8.00413 16.2906 8.00207 16.1783 8.00104C16.1222 8.00053 16.0783 8.00027 16.0481 8.00013L16.0133 8.00002L16.0002 8L15.9868 8.00002L15.952 8.00013C15.9218 8.00027 15.8779 8.00053 15.8218 8.00104C15.7095 8.00207 15.5478 8.00413 15.3483 8.00822C14.9496 8.01639 14.3972 8.03273 13.7824 8.06548C12.5805 8.12951 11.0436 8.26038 9.97043 8.5462C9.16681 8.76024 7.87017 9.17192 6.63072 9.88791C5.40172 10.5979 4.11688 11.6724 3.52026 13.2604C2.26814 16.593 3.5342 19.6611 4.571 21.3169C5.13686 22.2207 6.29382 23.4781 8.08775 23.8763C9.93159 24.2856 12.166 23.728 14.7248 21.5473C15.3865 20.9834 15.7583 20.8653 16 20.8653C16.2417 20.8653 16.6135 20.9834 17.2751 21.5473C20.0229 23.8891 22.393 24.353 24.2904 23.7771C24.8189 23.6167 25.1173 23.0582 24.9569 22.5298C24.7965 22.0013 24.238 21.7029 23.7095 21.8633C22.662 22.1812 20.9817 22.0785 18.5724 20.0252C17.7932 19.3611 16.9616 18.8653 16 18.8653C15.0383 18.8653 14.2067 19.3611 13.4275 20.0252C11.1759 21.944 9.56289 22.1551 8.52117 21.9238C7.42952 21.6815 6.66284 20.8891 6.26613 20.2556C5.37778 18.8368 4.45743 16.4525 5.39248 13.9638C5.75855 12.9894 6.59654 12.2174 7.63113 11.6197C8.65527 11.0281 9.763 10.6712 10.4852 10.4788ZM23.7069 11.2927C24.0975 11.6831 24.0977 12.3163 23.7073 12.7069L23.4133 13.001H28C28.5522 13.001 29 13.4487 29 14.001C29 14.5533 28.5522 15.001 28 15.001H23.415L23.7069 15.2927C24.0975 15.6831 24.0977 16.3163 23.7073 16.7069C23.3168 17.0975 22.6837 17.0977 22.293 16.7073L20.293 14.7083C20.1055 14.5208 20 14.2665 20 14.0013C19.9999 13.7361 20.1052 13.4817 20.2927 13.2941L22.2927 11.2931C22.6831 10.9025 23.3163 10.9023 23.7069 11.2927ZM27.7074 16.2932C27.3171 15.9025 26.6839 15.9022 26.2932 16.2925C25.9025 16.6829 25.9022 17.316 26.2925 17.7068L26.5855 18H22C21.4477 18 21 18.4477 21 19C21 19.5523 21.4477 20 22 20H26.5855L26.2925 20.2932C25.9022 20.684 25.9025 21.3171 26.2932 21.7075C26.6839 22.0978 27.3171 22.0975 27.7074 21.7068L29.6692 19.7431C29.8723 19.56 30 19.2949 30 19C30 18.7051 29.8723 18.44 29.6692 18.2569L27.7074 16.2932Z" fill="#0F0F0F"/>
</svg>
