<svg width="32" height="32" viewBox="0 0 32 32" fill="none" xmlns="http://www.w3.org/2000/svg">
<path d="M13.8888 11.0626C12.6856 11.1267 11.3363 11.2521 10.4852 11.4788C9.763 11.6712 8.65527 12.0281 7.63113 12.6197C6.59654 13.2174 5.75855 13.9894 5.39248 14.9638C4.45743 17.4525 5.37777 19.8368 6.26613 21.2556C6.66284 21.8891 7.42952 22.6815 8.52117 22.9238C9.56289 23.1551 11.1759 22.944 13.4275 21.0252C14.2067 20.3611 15.0383 19.8653 16 19.8653C16.9616 19.8653 17.7932 20.3611 18.5724 21.0252C20.2664 22.4688 21.5985 22.9413 22.5785 22.9947C23.5455 23.0474 24.2996 22.6994 24.8677 22.2358C25.2955 21.8866 25.9255 21.9503 26.2747 22.3782C26.6239 22.8061 26.5601 23.436 26.1323 23.7852C25.2576 24.4991 24.0279 25.0767 22.4696 24.9917C20.9243 24.9075 19.1897 24.179 17.2751 22.5473C16.6135 21.9834 16.2417 21.8653 16 21.8653C15.7583 21.8653 15.3865 21.9834 14.7248 22.5473C12.166 24.728 9.93159 25.2856 8.08775 24.8763C6.29382 24.4781 5.13686 23.2207 4.571 22.3169C3.5342 20.6611 2.26814 17.593 3.52026 14.2604C4.11688 12.6724 5.40172 11.5979 6.63072 10.8879C7.87017 10.1719 9.16681 9.76024 9.97043 9.5462C11.0436 9.26038 12.5805 9.12951 13.7824 9.06548C14.3972 9.03273 14.9496 9.01639 15.3483 9.00822C15.5478 9.00413 15.7095 9.00207 15.8218 9.00104C15.8779 9.00053 15.9218 9.00027 15.952 9.00013L15.9868 9.00002L15.9999 9L16.0133 9.00002L16.0481 9.00013C16.0783 9.00027 16.1222 9.00053 16.1783 9.00104C16.2906 9.00207 16.4523 9.00413 16.6518 9.00822C17.0505 9.01639 17.6029 9.03273 18.2177 9.06548C19.4195 9.12951 20.9563 9.26039 22.0295 9.5462C22.6327 9.70687 23.5039 9.97642 24.4182 10.3974C24.9198 10.6283 25.1393 11.2223 24.9083 11.7239C24.6773 12.2256 24.0834 12.445 23.5817 12.2141C22.804 11.856 22.0491 11.6212 21.5148 11.4788C20.6636 11.2521 19.3144 11.1267 18.1113 11.0626C17.5236 11.0313 16.9937 11.0156 16.6108 11.0078C16.4196 11.0039 16.2656 11.0019 16.16 11.001C16.1072 11.0005 16.0665 11.0002 16.0394 11.0001L16.009 11L16.0002 11L15.9911 11L15.9607 11.0001C15.9336 11.0002 15.8929 11.0005 15.8401 11.001C15.7345 11.0019 15.5805 11.0039 15.3892 11.0078C15.0063 11.0156 14.4765 11.0313 13.8888 11.0626ZM25.2921 13.2927C24.9015 13.683 24.9012 14.3162 25.2916 14.7069L26.5849 16.001H20C19.4477 16.001 19 16.4487 19 17.001C19 17.5533 19.4477 18.001 20 18.001H26.5838L25.2919 19.2929C24.9014 19.6834 24.9013 20.3166 25.2919 20.7071C25.6824 21.0976 26.3156 21.0976 26.7061 20.7071L29.7051 17.7082C30.0955 17.3177 30.0957 16.6847 29.7053 16.2942L26.7063 13.2931C26.3159 12.9025 25.6828 12.9023 25.2921 13.2927Z" fill="black"/>
</svg>
