<svg width="32" height="32" viewBox="0 0 32 32" fill="none" xmlns="http://www.w3.org/2000/svg">
<path fill-rule="evenodd" clip-rule="evenodd" d="M16.0012 8L16.0143 8.00002L16.0491 8.00013C16.0793 8.00027 16.1231 8.00053 16.1793 8.00104C16.2916 8.00207 16.4532 8.00413 16.6528 8.00822C17.0515 8.01639 17.6039 8.03273 18.2186 8.06548C19.4205 8.12951 20.9573 8.26039 22.0305 8.5462C22.8341 8.76024 24.1307 9.17192 25.3702 9.88791C26.5992 10.5979 27.884 11.6724 28.4806 13.2603C29.7328 16.593 28.4667 19.6611 27.4299 21.3169C26.864 22.2207 25.7071 23.4781 23.9131 23.8763C22.0693 24.2856 19.8349 23.728 17.2761 21.5473C16.6144 20.9834 16.2427 20.8653 16.0009 20.8653C15.7592 20.8653 15.3874 20.9834 14.7258 21.5473C12.167 23.728 9.93257 24.2856 8.08872 23.8763C6.29479 23.4781 5.13784 22.2207 4.57197 21.3169C3.53517 19.6611 2.26912 16.593 3.52124 13.2603C4.11786 11.6724 5.4027 10.5979 6.6317 9.88791C7.87115 9.17192 9.16778 8.76024 9.97141 8.5462C11.0446 8.26038 12.5815 8.12951 13.7833 8.06548C14.3981 8.03273 14.9505 8.01639 15.3492 8.00822C15.5488 8.00413 15.7104 8.00207 15.8227 8.00104C15.8789 8.00053 15.9228 8.00027 15.953 8.00013L15.9878 8.00002L16.0012 8ZM22.2922 12.2927C21.9015 12.683 21.9013 13.3162 22.2917 13.7069L23.5849 15.001H19C18.4477 15.001 18 15.4487 18 16.001C18 16.5533 18.4477 17.001 19 17.001H23.5839L22.2919 18.2929C21.9014 18.6834 21.9014 19.3166 22.2919 19.7071C22.6824 20.0976 23.3156 20.0976 23.7061 19.7071L26.7051 16.7082C27.0956 16.3177 27.0957 15.6847 26.7054 15.2942L23.7064 12.2931C23.316 11.9025 22.6828 11.9023 22.2922 12.2927Z" fill="#0F0F0F"/>
</svg>
