<svg width="32" height="32" viewBox="0 0 32 32" fill="none" xmlns="http://www.w3.org/2000/svg">
<path d="M1.28711 18.0605C0.794922 18.0605 0.390625 17.6475 0.390625 17.1377C0.390625 16.6279 0.794922 16.2148 1.28711 16.2148H3.36133C3.34375 16.4609 3.32617 16.707 3.32617 16.9707C3.32617 17.3398 3.35254 17.709 3.39648 18.0605H8.45898L9.47852 17.999L8.32715 19.0713C7.41309 19.9502 8.67871 21.084 9.44336 20.3018L11.7549 17.9375C12.0098 17.6738 12.124 17.4189 12.124 17.1377C12.124 16.8564 12.0098 16.5928 11.7549 16.3379L9.44336 13.9648C8.66992 13.1826 7.39551 14.2988 8.32715 15.1953L9.47852 16.2764L8.45898 16.2148H3.36133C3.79199 10.3613 9.35547 9.78125 16 9.78125C22.9258 9.78125 28.6738 10.4053 28.6738 16.9707C28.6738 20.917 26.2393 23.8525 22.9082 23.8525C19.4365 23.8525 17.8281 20.9873 16 20.9873C14.1719 20.9873 12.5635 23.8525 9.0918 23.8525C6.07715 23.8525 3.80078 21.4443 3.39648 18.0605H1.28711Z" fill="black"/>
</svg>
