<svg width="32" height="32" viewBox="0 0 32 32" fill="none" xmlns="http://www.w3.org/2000/svg">
<path d="M10.5 6H10.75C11.214 6.00056 11.6588 6.18512 11.9868 6.51318C12.3149 6.84125 12.4994 7.28604 12.5 7.75V11.75C12.4994 12.214 12.3149 12.6588 11.9868 12.9868C11.6588 13.3149 11.214 13.4994 10.75 13.5H4.75C4.28605 13.4994 3.84125 13.3149 3.51319 12.9868C3.18512 12.6587 3.00056 12.214 3 11.75V7.75C3.00056 7.28604 3.18512 6.84125 3.51319 6.51319C3.84125 6.18512 4.28605 6.00056 4.75 6H5V4.75C5 4.02065 5.28973 3.32118 5.80546 2.80546C6.32118 2.28973 7.02065 2 7.75 2C8.47935 2 9.17882 2.28973 9.69454 2.80546C10.2103 3.32118 10.5 4.02065 10.5 4.75V6ZM6.86612 3.86612C6.6317 4.10054 6.5 4.41848 6.5 4.75V6H9V4.75C9 4.41848 8.86831 4.10054 8.63388 3.86612C8.39946 3.6317 8.08152 3.5 7.75 3.5C7.41848 3.5 7.10054 3.6317 6.86612 3.86612ZM10.9266 11.9266C10.9735 11.8798 10.9999 11.8163 11 11.75V7.75C10.9999 7.68373 10.9735 7.62022 10.9266 7.57336C10.8798 7.52651 10.8163 7.50013 10.75 7.5H4.75C4.68373 7.50013 4.62022 7.52651 4.57337 7.57337C4.52651 7.62022 4.50013 7.68374 4.5 7.75V11.75C4.50013 11.8163 4.52651 11.8798 4.57336 11.9266C4.62022 11.9735 4.68373 11.9999 4.75 12H10.75C10.8163 11.9999 10.8798 11.9735 10.9266 11.9266Z" fill="#0F0F0F"/>
<path d="M16.5 2.25C24.3701 2.25 30.75 8.62994 30.75 16.5C30.75 24.3701 24.3701 30.75 16.5 30.75C8.62994 30.75 2.25 24.3701 2.25 16.5C2.25 16.0858 2.58579 15.75 3 15.75C3.41421 15.75 3.75 16.0858 3.75 16.5C3.75 19.0418 4.49379 21.4099 5.77558 23.3985C7.48916 22.6798 9.28997 22.1282 11.1575 21.764C10.8896 20.2159 10.75 18.6241 10.75 17C10.75 16.5858 11.0858 16.25 11.5 16.25C11.9142 16.25 12.25 16.5858 12.25 17C12.25 18.5404 12.3826 20.0496 12.637 21.5168C13.8996 21.3409 15.1893 21.25 16.5 21.25C17.7798 21.25 19.0396 21.3367 20.2737 21.5045C20.5267 20.0412 20.6586 18.5361 20.6586 17C20.6586 15.7789 20.5753 14.5774 20.414 13.4008C18.9763 13.6306 17.502 13.75 16 13.75C15.5351 13.75 15.0728 13.7386 14.6133 13.7159C14.1996 13.6956 13.8807 13.3437 13.9011 12.93C13.9215 12.5162 14.2734 12.1974 14.6871 12.2177C15.122 12.2392 15.5597 12.25 16 12.25C17.4185 12.25 18.8106 12.1375 20.1678 11.9211C19.5949 8.99856 18.5372 6.25035 17.0818 3.76304C16.889 3.75438 16.695 3.75 16.5 3.75C15.3556 3.75 14.2475 3.90059 13.1939 4.18262C12.7938 4.28973 12.3826 4.05219 12.2755 3.65207C12.1684 3.25194 12.4059 2.84074 12.8061 2.73363C13.985 2.41804 15.2234 2.25 16.5 2.25ZM18.9203 3.97942C20.1822 6.35011 21.1102 8.92549 21.6417 11.6424C23.6173 11.2098 25.5092 10.5547 27.2903 9.70487C25.4436 6.77845 22.4392 4.65562 18.9203 3.97942ZM28.0158 11.0205C26.087 11.9485 24.0344 12.66 21.8899 13.1235C22.067 14.3904 22.1586 15.6846 22.1586 17C22.1586 18.6182 22.02 20.2042 21.7541 21.7469C23.6531 22.1109 25.4838 22.6685 27.2244 23.3985C28.5062 21.4099 29.25 19.0418 29.25 16.5C29.25 14.5385 28.8071 12.6805 28.0158 11.0205ZM26.3102 24.6443C24.7612 24.0198 23.1387 23.5387 21.4592 23.2176C21.0052 25.2005 20.3388 27.1026 19.4852 28.8986C22.2023 28.2468 24.5809 26.725 26.3102 24.6443ZM17.753 29.1892L17.6825 29.1523C18.692 27.223 19.4687 25.1525 19.9751 22.9779C18.8382 22.8276 17.6783 22.75 16.5 22.75C15.2911 22.75 14.1015 22.8317 12.9363 22.9898C13.4428 25.1601 14.2184 27.2265 15.2261 29.1523C15.2324 29.1644 15.2384 29.1766 15.244 29.1889C15.6572 29.2293 16.0762 29.25 16.5 29.25C16.9228 29.25 17.3408 29.2294 17.753 29.1892ZM13.4114 28.8734C12.5659 27.0899 11.905 25.202 11.4533 23.2345C9.8049 23.5555 8.2119 24.0306 6.68977 24.6443C8.39709 26.6986 10.7374 28.208 13.4114 28.8734Z" fill="#0F0F0F"/>
</svg>
