<svg width="32" height="32" viewBox="0 0 32 32" fill="none" xmlns="http://www.w3.org/2000/svg">
<path d="M16 2.49954C13.33 2.49954 10.7199 3.2913 8.49981 4.7747C6.27974 6.2581 4.54942 8.36651 3.52763 10.8333C2.50585 13.3001 2.2385 16.0145 2.7594 18.6333C3.28031 21.252 4.56606 23.6575 6.45406 25.5455C8.34207 27.4335 10.7475 28.7192 13.3663 29.2401C15.985 29.761 18.6994 29.4937 21.1662 28.4719C23.633 27.4501 25.7414 25.7198 27.2248 23.4997C28.7082 21.2797 29.5 18.6696 29.5 15.9995C29.4961 12.4203 28.0725 8.98881 25.5416 6.45791C23.0107 3.92702 19.5792 2.50345 16 2.49954ZM16 28.4995C13.5277 28.4995 11.111 27.7664 9.05538 26.3929C6.99976 25.0194 5.39761 23.0672 4.45151 20.7831C3.50542 18.499 3.25787 15.9857 3.74019 13.5609C4.22251 11.1361 5.41301 8.90886 7.16117 7.16071C8.90933 5.41255 11.1366 4.22204 13.5614 3.73972C15.9861 3.25741 18.4995 3.50495 20.7836 4.45105C23.0676 5.39714 25.0199 6.9993 26.3934 9.05491C27.7669 11.1105 28.5 13.5273 28.5 15.9995C28.4963 19.3136 27.1781 22.4909 24.8347 24.8343C22.4913 27.1777 19.3141 28.4958 16 28.4995Z" fill="#0F0F0F"/>
<path d="M15.9999 17.5C16.8283 17.5 17.4999 16.8284 17.4999 16C17.4999 15.1715 16.8283 14.5 15.9999 14.5C15.1715 14.5 14.4999 15.1715 14.4999 16C14.4999 16.8284 15.1715 17.5 15.9999 17.5Z" fill="#0F0F0F"/>
</svg>
