<svg width="32" height="32" viewBox="0 0 32 32" fill="none" xmlns="http://www.w3.org/2000/svg">
<path d="M15.4277 3.78516C8.80032 3.78516 3.42773 9.15774 3.42773 15.7852C3.42773 21.9665 8.1023 27.0574 14.1086 27.7136C14.6576 27.7735 15.0541 28.2672 14.9941 28.8162C14.9341 29.3653 14.4404 29.7617 13.8914 29.7017C6.88176 28.936 1.42773 22.9982 1.42773 15.7852C1.42773 8.05317 7.69575 1.78516 15.4277 1.78516C21.7433 1.78516 27.0798 5.96632 28.8249 11.7093C28.9854 12.2377 28.6872 12.7962 28.1588 12.9568C27.6304 13.1174 27.0718 12.8192 26.9113 12.2907C25.415 7.36677 20.8383 3.78516 15.4277 3.78516ZM20.9998 17.1934C20.9998 15.982 21.9818 15 23.1932 15C24.4046 15 25.3866 15.982 25.3866 17.1934C25.3866 18.4048 24.4046 19.3869 23.1932 19.3869C21.9818 19.3869 20.9998 18.4048 20.9998 17.1934ZM23.1932 13C20.8772 13 18.9998 14.8775 18.9998 17.1934C18.9998 18.4927 19.5906 19.654 20.5184 20.4232C17.9099 21.3445 15.9998 23.6782 15.9998 26.5094C15.9998 27.2606 16.3497 27.8715 16.8271 28.3245C17.2893 28.763 17.8948 29.0817 18.5286 29.3155C19.7996 29.7845 21.426 30 22.9998 30C24.5735 30 26.2 29.7845 27.4709 29.3155C28.1047 29.0817 28.7102 28.763 29.1724 28.3245C29.6498 27.8715 29.9998 27.2606 29.9998 26.5094C29.9998 23.7744 28.2171 21.5035 25.7444 20.5219C26.7429 19.7553 27.3866 18.5496 27.3866 17.1934C27.3866 14.8775 25.5092 13 23.1932 13ZM17.9998 26.5094C17.9998 24.0977 20.1561 22 22.9998 22C25.8434 22 27.9998 24.0977 27.9998 26.5094C27.9998 26.5884 27.9747 26.7039 27.7958 26.8736C27.6018 27.0577 27.2698 27.2579 26.7786 27.4392C25.7996 27.8004 24.426 28 22.9998 28C21.5735 28 20.2 27.8004 19.2209 27.4392C18.7297 27.2579 18.3977 27.0577 18.2037 26.8736C18.0248 26.7039 17.9998 26.5884 17.9998 26.5094ZM14.4275 7.78516C14.4275 7.23287 14.8752 6.78516 15.4275 6.78516C15.9798 6.78516 16.4275 7.23287 16.4275 7.78516V15.7852C16.4275 16.0504 16.3221 16.3047 16.1346 16.4923L11.1346 21.4923C10.7441 21.8828 10.1109 21.8828 9.72038 21.4923C9.32986 21.1017 9.32986 20.4686 9.72038 20.078L14.4275 15.3709V7.78516Z" fill="#0F0F0F"/>
</svg>
