<svg width="32" height="32" viewBox="0 0 32 32" fill="none" xmlns="http://www.w3.org/2000/svg">
<path d="M15.4502 1.7998C23.1821 1.7998 29.4501 8.06791 29.4502 15.7998C29.4502 18.0148 28.9344 20.1089 28.0186 21.9707C27.3732 21.356 26.5993 20.8614 25.7422 20.5215C26.7415 19.755 27.3867 18.5501 27.3867 17.1934C27.3866 14.8776 25.5094 13 23.1934 13C20.8775 13.0001 19.0001 14.8775 19 17.1934C19 18.4934 19.5919 19.6547 20.5205 20.4238C17.9071 21.3461 16 23.6841 16 26.5098V26.5117C16.0007 27.2486 16.3385 27.8616 16.8271 28.3252C17.2887 28.7628 17.8943 29.0814 18.5283 29.3154L18.7705 29.4004L18.7744 29.4014C17.7088 29.6609 16.5957 29.7998 15.4502 29.7998C7.71821 29.7998 1.4502 23.5318 1.4502 15.7998C1.4503 8.06791 7.71828 1.7998 15.4502 1.7998ZM15.4277 6.78516C14.8754 6.78516 14.4277 7.23287 14.4277 7.78516V15.3711L9.7207 20.0781C9.33018 20.4687 9.33018 21.1017 9.7207 21.4922C10.1112 21.8827 10.7442 21.8827 11.1348 21.4922L16.1348 16.4922C16.3223 16.3047 16.4277 16.0504 16.4277 15.7852V7.78516C16.4277 7.23287 15.98 6.78516 15.4277 6.78516Z" fill="#0F0F0F"/>
<path d="M23 22C23.0955 22 23.1903 22.0022 23.2842 22.0068C23.3247 22.0089 23.365 22.0128 23.4053 22.0156C23.4566 22.0193 23.5078 22.0233 23.5586 22.0283C23.5988 22.0323 23.6388 22.0372 23.6787 22.042C23.7397 22.0494 23.8002 22.0571 23.8604 22.0664C23.8868 22.0705 23.9132 22.0746 23.9395 22.0791C24.012 22.0914 24.084 22.105 24.1553 22.1201C24.1716 22.1236 24.1878 22.1273 24.2041 22.1309C24.479 22.1917 24.7439 22.2725 24.9971 22.3721C25.0101 22.3772 25.0231 22.3825 25.0361 22.3877C25.1095 22.4172 25.1816 22.4489 25.2529 22.4814C25.263 22.4861 25.2732 22.4905 25.2832 22.4951C25.3503 22.5263 25.4163 22.559 25.4814 22.5928C25.5001 22.6024 25.5186 22.6122 25.5371 22.6221C27.0314 23.4196 28 24.8938 28 26.5098C27.9999 26.5888 27.9745 26.7046 27.7959 26.874C27.6019 27.058 27.2701 27.2583 26.7793 27.4395C25.8003 27.8007 24.4262 28 23 28C22.3475 28 21.7062 27.9558 21.1084 27.876C21.0872 27.8732 21.066 27.8711 21.0449 27.8682C20.9489 27.8548 20.8543 27.8395 20.7607 27.8242C20.699 27.8142 20.6377 27.8039 20.5771 27.793C20.4992 27.7789 20.4225 27.7635 20.3467 27.748C20.2854 27.7356 20.2248 27.7233 20.165 27.71C20.093 27.6938 20.0219 27.6776 19.9521 27.6602C19.8693 27.6395 19.7884 27.6171 19.709 27.5947C19.6656 27.5825 19.6224 27.5714 19.5801 27.5586C19.4553 27.5209 19.3352 27.4817 19.2207 27.4395C18.7299 27.2583 18.3981 27.058 18.2041 26.874C18.0255 26.7046 18.0001 26.5888 18 26.5098C18 24.098 20.1563 22 23 22Z" fill="#0F0F0F"/>
<path d="M23.1934 15C24.4047 15 25.3867 15.982 25.3867 17.1934C25.3867 18.4048 24.4048 19.3867 23.1934 19.3867C21.982 19.3867 21 18.4047 21 17.1934C21 15.982 21.982 15 23.1934 15Z" fill="#0F0F0F"/>
</svg>
