<svg width="32" height="32" viewBox="0 0 32 32" fill="none" xmlns="http://www.w3.org/2000/svg">
<path d="M29.1621 23.7501L18.165 4.75008C17.9456 4.37011 17.63 4.05456 17.25 3.83515C16.87 3.61573 16.439 3.50017 16.0002 3.50007C15.5615 3.49997 15.1304 3.61533 14.7503 3.83457C14.3702 4.05381 14.0545 4.36921 13.8349 4.74908L2.83591 23.7501C2.61653 24.1301 2.50102 24.5611 2.50098 24.9998C2.50093 25.4386 2.61636 25.8696 2.83566 26.2496C3.05497 26.6297 3.37042 26.9453 3.75033 27.1648C4.13024 27.3843 4.56123 27.4999 4.99998 27.5001H26.9971C27.4359 27.5001 27.867 27.3845 28.247 27.1651C28.6271 26.9457 28.9427 26.6301 29.1621 26.2501C29.3815 25.87 29.497 25.4389 29.497 25.0001C29.497 24.5612 29.3815 24.1301 29.1621 23.7501ZM28.2959 25.7501C28.1655 25.9792 27.9765 26.1694 27.7482 26.3013C27.5199 26.4331 27.2606 26.5017 26.997 26.5001H4.99996C4.73687 26.4998 4.47846 26.4304 4.25066 26.2988C4.02287 26.1671 3.83369 25.9779 3.70211 25.7501C3.57054 25.5222 3.50118 25.2638 3.50101 25.0007C3.50084 24.7376 3.56985 24.4791 3.70113 24.2511L14.7001 5.25108C14.832 5.02303 15.0215 4.83267 15.2496 4.70103C15.4778 4.56938 15.7365 4.50008 15.9999 4.50008C16.2633 4.50008 16.5221 4.56938 16.7503 4.70103C16.9784 4.83267 17.1679 5.02203 17.2997 5.25008L28.2968 24.2501C28.4298 24.4777 28.4998 24.7366 28.4996 25.0002C28.4994 25.2638 28.4291 25.5226 28.2959 25.7501Z" fill="#0F0F0F"/>
<path d="M16.0001 23.5C16.4143 23.5 16.7501 23.1642 16.7501 22.75C16.7501 22.3357 16.4143 22 16.0001 22C15.5859 22 15.2501 22.3357 15.2501 22.75C15.2501 23.1642 15.5859 23.5 16.0001 23.5Z" fill="#0F0F0F"/>
<path d="M16 19.5001C16.0656 19.5001 16.1307 19.4872 16.1913 19.4621C16.252 19.437 16.3072 19.4002 16.3536 19.3537C16.4 19.3073 16.4369 19.2521 16.462 19.1915C16.4871 19.1308 16.5 19.0658 16.5 19.0001V12.0001C16.5 11.8675 16.4473 11.7403 16.3535 11.6465C16.2597 11.5528 16.1326 11.5001 16 11.5001C15.8674 11.5001 15.7402 11.5528 15.6464 11.6465C15.5526 11.7403 15.5 11.8675 15.5 12.0001V19.0001C15.4999 19.0658 15.5128 19.1308 15.5379 19.1915C15.5631 19.2521 15.5999 19.3073 15.6463 19.3537C15.6928 19.4002 15.7479 19.437 15.8086 19.4621C15.8693 19.4872 15.9343 19.5001 16 19.5001Z" fill="#0F0F0F"/>
</svg>
