<svg width="32" height="32" viewBox="0 0 32 32" fill="none" xmlns="http://www.w3.org/2000/svg">
<path d="M6.16113 28.2295C4.15527 28.2295 2.86035 26.7314 2.86035 24.916C2.86035 24.3828 3 23.8242 3.29199 23.3164L13.1689 6.02539C13.7783 4.93359 14.8955 4.3623 16 4.3623C17.1172 4.3623 18.209 4.93359 18.8311 6.02539L28.6953 23.291C29 23.8115 29.1396 24.3828 29.1396 24.916C29.1396 26.7314 27.8447 28.2295 25.8516 28.2295H6.16113ZM6.17383 26.6807H25.8262C26.8418 26.6807 27.5527 25.8428 27.5527 24.916C27.5527 24.6494 27.4766 24.332 27.3242 24.0527L17.4854 6.76172C17.1553 6.19043 16.584 5.92383 16 5.92383C15.416 5.92383 14.832 6.19043 14.5146 6.76172L4.65039 24.04C4.49805 24.3574 4.45996 24.6621 4.45996 24.916C4.45996 25.8428 5.14551 26.6807 6.17383 26.6807ZM16 19.7744C15.5049 19.7744 15.2256 19.4697 15.2129 18.9492L15.0732 12.1572C15.0605 11.624 15.4414 11.2432 16 11.2432C16.5332 11.2432 16.9395 11.6367 16.9268 12.1572L16.7744 18.9492C16.7744 19.4824 16.4824 19.7744 16 19.7744ZM16 23.71C15.3652 23.71 14.8193 23.1895 14.8193 22.5674C14.8193 21.9326 15.3525 21.4121 16 21.4121C16.6475 21.4121 17.1807 21.9199 17.1807 22.5674C17.1807 23.1895 16.6348 23.71 16 23.71Z" fill="black"/>
</svg>
