<svg width="32" height="32" viewBox="0 0 32 32" fill="none" xmlns="http://www.w3.org/2000/svg">
<path d="M25.0005 6.50024H7.00049C5.80741 6.50154 4.66358 6.97607 3.81995 7.8197C2.97631 8.66333 2.50179 9.80717 2.50049 11.0002V15.0002C2.50179 16.1933 2.97632 17.3371 3.81995 18.1808C4.66358 19.0244 5.80741 19.4989 7.00049 19.5002H9.50049V24.0002C9.50092 24.3979 9.6591 24.7792 9.94031 25.0604C10.2215 25.3416 10.6028 25.4998 11.0005 25.5002H21.0005C21.3982 25.4998 21.7795 25.3416 22.0607 25.0604C22.3419 24.7792 22.5001 24.3979 22.5005 24.0002V19.5002H25.0005C26.1936 19.4989 27.3374 19.0244 28.181 18.1808C29.0247 17.3372 29.4992 16.1933 29.5005 15.0002V11.0002C29.4992 9.80717 29.0247 8.66333 28.181 7.81969C27.3374 6.97606 26.1936 6.50154 25.0005 6.50024ZM21.5005 24.0002C21.5002 24.1328 21.4475 24.2598 21.3538 24.3535C21.26 24.4472 21.133 24.5 21.0005 24.5002H11.0005C10.868 24.5 10.7409 24.4472 10.6472 24.3535C10.5535 24.2598 10.5008 24.1328 10.5005 24.0002V19.5002H21.5005V24.0002ZM28.5005 15.0002C28.4994 15.9282 28.1303 16.8177 27.4741 17.4739C26.818 18.13 25.9284 18.4991 25.0005 18.5002H7.00049C6.07258 18.4991 5.18299 18.13 4.52686 17.4739C3.87072 16.8177 3.50161 15.9282 3.50049 15.0002V11.0002C3.50161 10.0723 3.87072 9.18274 4.52685 8.52661C5.18299 7.87047 6.07258 7.50136 7.00049 7.50024H25.0005C25.9284 7.50136 26.818 7.87047 27.4741 8.52661C28.1303 9.18274 28.4994 10.0723 28.5005 11.0002V15.0002Z" fill="#0F0F0F"/>
<path d="M17.0005 12.5002H15.0005C14.8679 12.5002 14.7407 12.5529 14.6469 12.6467C14.5532 12.7405 14.5005 12.8676 14.5005 13.0002C14.5005 13.1328 14.5532 13.26 14.6469 13.3538C14.7407 13.4476 14.8679 13.5002 15.0005 13.5002H17.0005C17.1331 13.5002 17.2603 13.4476 17.354 13.3538C17.4478 13.26 17.5005 13.1328 17.5005 13.0002C17.5005 12.8676 17.4478 12.7405 17.354 12.6467C17.2603 12.5529 17.1331 12.5002 17.0005 12.5002Z" fill="#0F0F0F"/>
</svg>
