<svg width="32" height="32" viewBox="0 0 32 32" fill="none" xmlns="http://www.w3.org/2000/svg">
<path d="M21 23C21 22.4477 21.4477 22 22 22H30C30.5523 22 31 22.4477 31 23C31 23.5523 30.5523 24 30 24H22C21.4477 24 21 23.5523 21 23Z" fill="#0F0F0F"/>
<path d="M19.4479 14.621C20.4041 13.7103 21 12.4247 21 11C21 8.23858 18.7614 6 16 6C13.2386 6 11 8.23858 11 11C11 12.4261 11.597 13.7127 12.5548 14.6236C12.088 14.7993 11.6396 15.0095 11.2141 15.251C10.8919 14.9942 10.5359 14.772 10.1535 14.5892C10.4985 14.0785 10.7 13.4628 10.7 12.8C10.7 11.0327 9.26731 9.6 7.5 9.6C5.73269 9.6 4.3 11.0327 4.3 12.8C4.3 13.4644 4.50251 14.0816 4.84917 14.5931C3.18853 15.3848 2 16.9092 2 18.8C2 19.5497 2.46286 20.0681 2.90677 20.3781C3.34972 20.6873 3.91012 20.8952 4.47276 21.0386C5.23644 21.2333 6.1322 21.3408 7.03612 21.368C7.01223 21.6087 7 21.8529 7 22.1C7 23.2239 7.74856 24.0135 8.56569 24.5192C9.39304 25.0312 10.485 25.3859 11.6489 25.6221C13.9895 26.0971 16.9141 26.1503 19.3767 25.7911C19.9232 25.7113 20.3016 25.2037 20.2218 24.6572C20.1421 24.1107 19.6344 23.7323 19.0879 23.812C16.835 24.1407 14.1435 24.0876 12.0467 23.6621C10.992 23.4481 10.1601 23.1539 9.61816 22.8186C9.06604 22.4769 9 22.2206 9 22.1C9 18.8607 12.0372 16 16 16C17.9134 16 19.6406 16.68 20.8987 17.7591C21.3179 18.1186 21.9492 18.0702 22.3088 17.651C22.5825 17.3319 22.6198 16.8897 22.437 16.5382C23.0046 16.2055 23.7122 16 24.5 16C26.4501 16 27.8072 17.2148 27.9797 18.4961C28.0534 19.0434 28.5569 19.4274 29.1042 19.3536C29.6516 19.2799 30.0355 18.7765 29.9618 18.2291C29.7397 16.5799 28.6128 15.2698 27.0994 14.5667C27.4774 14.0413 27.7 13.3967 27.7 12.7C27.7 10.9327 26.2673 9.5 24.5 9.5C22.7327 9.5 21.3 10.9327 21.3 12.7C21.3 13.3957 21.522 14.0395 21.899 14.5645C21.4976 14.7514 21.1247 14.9813 20.7884 15.249C20.3636 15.0072 19.9154 14.7968 19.4479 14.621ZM16 8C17.6569 8 19 9.34315 19 11C19 12.6569 17.6569 14 16 14C14.3431 14 13 12.6569 13 11C13 9.34315 14.3431 8 16 8ZM7.52249 19.375C6.59057 19.3766 5.6754 19.2812 4.96681 19.1006C4.51439 18.9853 4.21491 18.8521 4.05172 18.7382C4.03111 18.7238 4.0149 18.7115 4.00231 18.7012C4.06588 17.337 5.43893 16 7.5 16C8.26155 16 8.94752 16.1919 9.50465 16.5047C8.63916 17.3147 7.95541 18.288 7.52249 19.375ZM24.5 11.5C25.1627 11.5 25.7 12.0373 25.7 12.7C25.7 13.3627 25.1627 13.9 24.5 13.9C23.8373 13.9 23.3 13.3627 23.3 12.7C23.3 12.0373 23.8373 11.5 24.5 11.5ZM6.3 12.8C6.3 12.1373 6.83726 11.6 7.5 11.6C8.16274 11.6 8.7 12.1373 8.7 12.8C8.7 13.4627 8.16274 14 7.5 14C6.83726 14 6.3 13.4627 6.3 12.8Z" fill="#0F0F0F"/>
</svg>
