<svg width="32" height="33" viewBox="0 0 32 33" fill="none" xmlns="http://www.w3.org/2000/svg">
<path d="M26.1138 14.6234C27.4466 14.0836 28.0072 12.3723 27.4093 10.99L27.3594 10.8584C27.1183 10.2957 26.8351 9.75424 26.5124 9.23918C26.3583 8.96981 26.1833 8.71442 25.9893 8.47565C24.2827 6.26406 22.2773 5.86913 21.0566 5.86913C20.2085 5.86228 19.3687 6.04659 18.5933 6.40979C17.8179 6.77299 17.1247 7.30673 16.5599 7.97541C16.8556 8.37189 17.1181 8.79473 17.3446 9.23918C18.1792 10.8321 18.7024 13.0173 19.1383 14.8735C19.1722 14.753 19.2068 14.6277 19.2421 14.4996C19.4541 13.732 19.6936 12.8649 19.9604 12.3459C20.4711 11.3586 20.8199 11.3586 21.0566 11.3586C21.7666 11.3586 22.3396 12.4644 22.6136 13.1095C22.6136 13.1095 23.5977 15.6633 26.1138 14.6234Z" fill="#0F0F0F"/>
<path d="M4.27785 9.09408C2.93258 9.1994 1.82397 10.6738 2.02327 12.1877C2.08556 12.7406 2.22257 13.5963 2.39696 14.5309C2.4717 14.9522 2.55889 15.3998 2.64609 15.8342C2.86353 16.8842 3.1338 17.9213 3.45574 18.9409C3.80145 20.0721 4.22184 21.1762 4.71382 22.2452C6.59471 26.1154 9.13579 26.9316 10.9419 26.9316C11.7902 26.9393 12.6302 26.7554 13.4057 26.3921C14.1812 26.0289 14.8743 25.4947 15.4386 24.8254C15.1235 24.4 14.8443 23.9463 14.6041 23.4694C13.8069 21.9161 13.2962 20.1257 12.8602 18.2564C12.6603 19.0013 12.3934 19.7242 12.063 20.4153C11.5398 21.4421 11.1786 21.4421 10.9419 21.4421C10.4312 21.4421 9.89562 20.8629 9.34754 19.744C9.06513 19.1318 8.81561 18.5033 8.60017 17.8615C8.45069 17.4007 8.30122 16.9268 8.17666 16.4661L8.14773 16.3592C8.01987 15.8872 7.82057 15.1515 7.72823 14.6757C7.50656 13.6159 7.24911 11.9794 7.16813 11.4647C7.15357 11.3722 7.14469 11.3157 7.14279 11.3057C7.03068 10.7133 6.3705 8.90978 4.27785 9.09408Z" fill="#0F0F0F"/>
<path d="M27.5088 9.06815H27.4465C27.7063 9.52657 27.9392 10.0014 28.144 10.4899L28.2063 10.6215C28.5817 11.507 28.6103 12.5134 28.2859 13.4211C27.9615 14.3288 27.3105 15.0639 26.4749 15.466C26.0241 15.6791 25.5363 15.7911 25.0424 15.7951C24.7052 15.7886 24.3702 15.7355 24.0459 15.6371C23.6972 17.0194 23.1491 18.7175 22.6508 19.7443C22.1526 20.7712 21.5672 21.4425 21.044 21.4425C20.8198 21.4425 20.4585 21.4425 19.9354 20.4157C19.605 19.7246 19.3381 19.0017 19.1382 18.2568C18.9763 17.6776 18.8268 17.0588 18.6773 16.4138C18.615 16.1769 18.5652 15.9398 18.5154 15.7029C18.042 13.623 17.5064 11.4377 16.5847 9.68687C16.4082 9.35001 16.2127 9.0247 15.9992 8.71272C15.8247 8.45681 15.6376 8.21074 15.4387 7.97552C14.8725 7.30517 14.1773 6.77044 13.3996 6.40718C12.6219 6.04392 11.7797 5.86051 10.9295 5.86925C9.72128 5.86925 7.71582 6.26417 6.00932 8.47576C6.5475 8.73167 7.01516 9.12821 7.36821 9.628C7.72125 10.1278 7.94805 10.7143 8.02723 11.3324C8.11442 11.9906 8.32618 13.2675 8.5753 14.4787C8.60022 14.6103 8.62513 14.7419 8.6625 14.8867C8.80788 14.4873 8.95326 14.1356 9.10451 13.7698C9.14764 13.6654 9.19126 13.5599 9.23548 13.4518L9.38496 13.1096C9.659 12.4645 10.232 11.3587 10.9295 11.3587C11.1787 11.3587 11.5274 11.3587 12.0381 12.346C12.3822 13.052 12.6577 13.793 12.8602 14.5576C13.0222 15.15 13.1841 15.7819 13.3211 16.4138C13.371 16.5981 13.4083 16.7824 13.4457 16.9667C13.9439 19.1651 14.4671 21.2846 15.364 23.0354C15.5496 23.4075 15.762 23.764 15.9992 24.1017C16.1737 24.3535 16.3608 24.5951 16.5597 24.8257C18.042 26.5239 19.7485 26.932 21.044 26.932C22.8501 26.932 25.4037 26.1158 27.2846 22.2456C28.2437 20.2578 29.0534 17.3221 29.3523 15.8346C29.6513 14.347 29.8755 13.0043 29.9751 12.1881C30.0224 11.83 30.0021 11.4656 29.9155 11.1158C29.8288 10.7661 29.6775 10.4379 29.4702 10.1503C29.2629 9.8627 29.0038 9.62132 28.7077 9.4401C28.4117 9.25888 28.0847 9.14142 27.7454 9.09448L27.5088 9.06815Z" fill="#0F0F0F"/>
</svg>
