<svg width="32" height="32" viewBox="0 0 32 32" fill="none" xmlns="http://www.w3.org/2000/svg">
<g clip-path="url(#clip0_70043_31)">
<path d="M20.5225 17.5195C21.6347 17.0176 22.8754 16.8658 24.0791 17.0879L24.3184 17.1367C25.5084 17.4068 26.5896 18.0345 27.4161 18.9375L27.5782 19.1211C28.3645 20.0539 28.849 21.2063 28.9639 22.4248C29.0864 23.7247 28.7817 25.0297 28.0957 26.1406C27.4097 27.2516 26.3793 28.1083 25.1622 28.5811C24.0213 29.0241 22.7742 29.1074 21.5879 28.8223L21.3506 28.7598C20.1733 28.4253 19.128 27.7397 18.3536 26.7969L18.2022 26.6045L18.1504 26.5176C18.0505 26.3078 18.1073 26.0499 18.2999 25.9043C18.4927 25.7587 18.7572 25.774 18.9317 25.9277L19.001 26.002L19.127 26.1621C19.7723 26.9477 20.643 27.5192 21.6241 27.7978L21.8213 27.8496C22.81 28.0874 23.8499 28.0187 24.8008 27.6494C25.815 27.2555 26.6725 26.5409 27.2442 25.6152C27.8158 24.6895 28.0698 23.6027 27.9678 22.5195C27.8721 21.504 27.4689 20.5431 26.8135 19.7656L26.6788 19.6123C25.99 18.8598 25.0885 18.3373 24.0967 18.1123L23.8975 18.0713C22.8276 17.8739 21.7227 18.0311 20.75 18.5186L20.6553 18.5547C20.4307 18.6153 20.1865 18.5119 20.0782 18.2959C19.9544 18.049 20.0549 17.7488 20.3018 17.625L20.5225 17.5195Z" fill="#0F0F0F"/>
<path d="M25 23C25 24.1046 24.1046 25 23 25C21.8955 25 21 24.1046 21 23C21 21.8954 21.8955 21 23 21C24.1046 21 25 21.8954 25 23Z" fill="#0F0F0F"/>
<path d="M24.5 23C24.5 22.1716 23.8285 21.5 23 21.5C22.1716 21.5 21.5 22.1716 21.5 23C21.5 23.8284 22.1716 24.5 23 24.5C23.8285 24.5 24.5 23.8284 24.5 23ZM25.5 23C25.5 24.3807 24.3808 25.5 23 25.5C21.6193 25.5 20.5 24.3807 20.5 23C20.5 21.6193 21.6193 20.5 23 20.5C24.3808 20.5 25.5 21.6193 25.5 23Z" fill="#0F0F0F"/>
<path d="M7.91216 16.9971C8.18351 16.9467 8.44453 17.1252 8.49516 17.3965C8.5456 17.668 8.36622 17.929 8.09477 17.9795C7.09225 18.1658 6.17118 18.6569 5.45415 19.3848L5.31352 19.5332C4.62432 20.2922 4.18301 21.2451 4.04594 22.2627L4.02251 22.4668C3.91993 23.561 4.17412 24.6591 4.74614 25.5937L4.85649 25.7666C5.42578 26.6173 6.2393 27.274 7.1895 27.6465L7.38091 27.7168C8.34222 28.0488 9.38277 28.0773 10.3633 27.7969C11.4093 27.4976 12.3308 26.8622 12.9874 25.9863L13.1075 25.8193C13.6874 24.9761 14 23.9727 14 22.9424H15C15 24.1749 14.6266 25.3765 13.9317 26.3867L13.7881 26.5859C13.0014 27.6357 11.8956 28.3992 10.6387 28.7588C9.46038 29.0959 8.20971 29.061 7.05473 28.6621L6.82524 28.5771C5.6838 28.1298 4.70753 27.3423 4.02544 26.3232L3.8936 26.1162C3.20851 24.9968 2.90377 23.6828 3.02641 22.374L3.05473 22.1289C3.21875 20.9117 3.74728 19.7711 4.57329 18.8613L4.74223 18.6826C5.60199 17.81 6.70744 17.2209 7.91216 16.9971Z" fill="#0F0F0F"/>
<path d="M21.811 10.6262C21.7354 10.8917 21.4593 11.046 21.1939 10.9706C20.9283 10.895 20.7743 10.6182 20.8499 10.3527C21.1291 9.37198 21.099 8.32858 20.7662 7.36258L20.6958 7.1706C20.3227 6.21568 19.6657 5.39652 18.8153 4.82101L18.6429 4.70922C17.7086 4.13053 16.6122 3.86964 15.5206 3.96608L15.3167 3.988C14.3016 4.11938 13.3514 4.55575 12.5951 5.24101L12.447 5.38115C11.7219 6.09436 11.2335 7.01357 11.0484 8.01651C10.851 9.08637 11.0101 10.1944 11.5024 11.172L11.5985 11.3539C12.0957 12.2485 12.8552 12.9749 13.7779 13.4333C14.0252 13.5561 14.1261 13.8562 14.0033 14.1035C13.8804 14.3508 13.5803 14.4517 13.333 14.3288C12.2292 13.7805 11.3193 12.9115 10.7237 11.8396L10.6091 11.6224C10.019 10.4508 9.82721 9.12084 10.0644 7.83518C10.2868 6.62992 10.8744 5.52537 11.7455 4.66846L11.9237 4.50073C12.8322 3.67752 13.9718 3.15355 15.1879 2.99608L15.432 2.97012C16.7393 2.85459 18.0516 3.16628 19.1692 3.85842L19.3761 3.99283C20.3933 4.68128 21.1796 5.66208 21.6269 6.80659L21.7118 7.0374C22.1107 8.1956 22.1465 9.44772 21.811 10.6262Z" fill="#0F0F0F"/>
<path d="M11 23C11 24.1046 10.1046 25 9.00005 25C7.89548 25 7.00005 24.1046 7.00005 23C7.00005 21.8954 7.89548 21 9.00005 21C10.1046 21 11 21.8954 11 23Z" fill="#0F0F0F"/>
<path d="M10.5 23C10.5 22.1716 9.82847 21.5 9.00005 21.5C8.17162 21.5 7.50005 22.1716 7.50005 23C7.50005 23.8284 8.17162 24.5 9.00005 24.5C9.82847 24.5 10.5 23.8284 10.5 23ZM11.5 23C11.5 24.3807 10.3808 25.5 9.00005 25.5C7.61933 25.5 6.50005 24.3807 6.50005 23C6.50005 21.6193 7.61933 20.5 9.00005 20.5C10.3808 20.5 11.5 21.6193 11.5 23Z" fill="#0F0F0F"/>
<path d="M18 9.02612C18 10.1307 17.1046 11.0261 16 11.0261C14.8955 11.0261 14 10.1307 14 9.02612C14 7.92155 14.8955 7.02612 16 7.02612C17.1046 7.02612 18 7.92155 18 9.02612Z" fill="#0F0F0F"/>
<path d="M17.5 9.02612C17.5 8.19769 16.8285 7.52612 16 7.52612C15.1716 7.52612 14.5 8.19769 14.5 9.02612C14.5 9.85455 15.1716 10.5261 16 10.5261C16.8285 10.5261 17.5 9.85455 17.5 9.02612ZM18.5 9.02612C18.5 10.4068 17.3808 11.5261 16 11.5261C14.6193 11.5261 13.5 10.4068 13.5 9.02612C13.5 7.64541 14.6193 6.52612 16 6.52612C17.3808 6.52612 18.5 7.64541 18.5 9.02612Z" fill="#0F0F0F"/>
<path d="M14.004 14.113L9.44731 23.238L8.55278 22.7908L13.1094 13.6658L14.004 14.113Z" fill="#0F0F0F"/>
<path d="M15.5528 9.22021L20.1172 18.3599L20.5645 18.1372L21.0118 17.9136L16.4473 8.77295L15.5528 9.22021Z" fill="#0F0F0F"/>
<path d="M23.004 22.5002V23.5002L14.4922 23.5002C14.2161 23.5002 13.9922 23.2764 13.9922 23.0002C13.9922 22.7241 14.2161 22.5002 14.4922 22.5002L23.004 22.5002Z" fill="#0F0F0F"/>
</g>
<defs>
<clipPath id="clip0_70043_31">
<rect width="32" height="32" fill="white"/>
</clipPath>
</defs>
</svg>
