<svg width="32" height="32" viewBox="0 0 32 32" fill="none" xmlns="http://www.w3.org/2000/svg">
<path d="M8.02272 16.7574C8.42991 16.6818 8.82109 16.9507 8.89675 17.3579C8.97206 17.7648 8.70388 18.1561 8.29714 18.232C7.37124 18.404 6.51951 18.8571 5.85671 19.5298L5.72683 19.6675C5.08962 20.3692 4.68078 21.2504 4.55397 22.1919L4.53249 22.3814C4.43772 23.3935 4.67353 24.4087 5.20241 25.273L5.30397 25.4331C5.83043 26.2197 6.58332 26.8264 7.4612 27.1704L7.63698 27.2359C8.52514 27.5426 9.487 27.5692 10.3928 27.3101L10.5725 27.2544C11.4644 26.9592 12.2486 26.3955 12.8176 25.6363L12.928 25.482C13.4419 24.7348 13.7261 23.8512 13.7493 22.94C13.7476 22.9193 13.7464 22.8985 13.7464 22.8775C13.7464 22.4633 14.0821 22.1275 14.4964 22.1275H20.2073C20.5325 20.9995 21.5704 20.1743 22.803 20.1743C24.2958 20.1744 25.5061 21.3846 25.5061 22.8775C25.5059 24.3701 24.2957 25.5806 22.803 25.5806C21.5707 25.5806 20.5327 24.755 20.2073 23.6275H15.2005C15.0734 24.5963 14.7201 25.5245 14.1643 26.3325L14.0178 26.5357C13.2657 27.5392 12.2277 28.2864 11.0442 28.6782L10.805 28.7515C9.60245 29.0955 8.32632 29.0599 7.14772 28.6529L6.91335 28.5669C5.74866 28.1104 4.75346 27.3064 4.05788 26.2671L3.92214 26.0562C3.2237 24.9148 2.91431 23.5749 3.03933 22.2407L3.06765 21.9917C3.23482 20.7505 3.77377 19.5867 4.61647 18.6587L4.78835 18.4771C5.6653 17.587 6.7933 16.9858 8.02272 16.7574Z" fill="#0F0F0F"/>
<path d="M15.969 6.52786C17.4617 6.52799 18.672 7.73831 18.6721 9.23098C18.6721 10.0126 18.3373 10.714 17.8069 11.2075L20.7473 17.0972C21.7553 16.7395 22.8441 16.6505 23.9046 16.8462L24.1487 16.897C25.3625 17.1726 26.4658 17.8119 27.3089 18.7329L27.4739 18.9204C28.2761 19.8722 28.7708 21.0484 28.888 22.2915L28.9065 22.5396C28.9684 23.6998 28.6979 24.8541 28.1282 25.8667L28.0022 26.0816C27.3024 27.2148 26.2515 28.0886 25.01 28.5708C23.846 29.0229 22.5729 29.108 21.3626 28.8169L21.1214 28.7534C19.9202 28.4123 18.8538 27.7124 18.0637 26.7505L17.9094 26.5552L17.8665 26.4907C17.6695 26.1659 17.7463 25.7384 18.0559 25.5044C18.3656 25.2705 18.7983 25.3131 19.0569 25.5913L19.1067 25.6509L19.2229 25.7984C19.8194 26.5246 20.6246 27.0535 21.5315 27.3111L21.7132 27.3579C22.6269 27.5777 23.5882 27.5147 24.4671 27.1734C25.4043 26.8093 26.1975 26.149 26.7258 25.2935L26.8216 25.1314C27.2516 24.367 27.4551 23.4954 27.4085 22.6197L27.3948 22.4322C27.3063 21.4935 26.9322 20.6058 26.3264 19.8872L26.2024 19.7456C25.566 19.0503 24.733 18.5669 23.8167 18.3589L23.6321 18.3218C22.6432 18.1394 21.6218 18.2843 20.7229 18.7349C20.3527 18.9204 19.9018 18.77 19.7161 18.3999C19.7026 18.3731 19.6909 18.3455 19.6809 18.3179L16.469 11.8853C16.3068 11.9157 16.14 11.9341 15.969 11.9341C14.4762 11.9341 13.2659 10.7238 13.2659 9.23098C13.266 7.73823 14.4762 6.52786 15.969 6.52786Z" fill="#0F0F0F"/>
<path d="M15.3919 3.0552C16.7247 2.93752 18.0623 3.25699 19.2014 3.96243L19.4124 4.09817C20.4495 4.80008 21.2521 5.80079 21.7083 6.96829L21.7942 7.20364C22.201 8.38483 22.2381 9.66228 21.8958 10.8648C21.7823 11.2631 21.3673 11.4937 20.969 11.3804C20.5709 11.2669 20.3393 10.8528 20.4524 10.4546C20.7103 9.54893 20.6838 8.58476 20.3762 7.69192L20.3108 7.51419C19.9659 6.63128 19.3583 5.87281 18.5716 5.34036L18.4114 5.23684C17.5471 4.70171 16.5329 4.46117 15.5237 4.55032L15.3352 4.57083C14.3966 4.69233 13.5183 5.09593 12.8196 5.72903L12.6829 5.85794C12.013 6.51684 11.5609 7.36599 11.3899 8.29251L11.3606 8.47806C11.2282 9.40824 11.384 10.362 11.8108 11.2095L11.8997 11.3765C12.3594 12.2037 13.0616 12.8762 13.9153 13.3003C14.2863 13.4846 14.4375 13.9352 14.2532 14.3062C14.252 14.3087 14.2496 14.3106 14.2483 14.313L14.2522 14.315L10.9661 20.8941C11.4999 21.3878 11.8361 22.0921 11.8362 22.8765C11.8362 24.3692 10.6258 25.5795 9.13308 25.5796C7.64024 25.5796 6.42999 24.3693 6.42995 22.8765C6.43021 21.3839 7.64037 20.1734 9.13308 20.1734C9.30127 20.1734 9.46557 20.1908 9.62526 20.2202L12.5969 14.2691C11.7643 13.721 11.0739 12.9792 10.5882 12.105L10.471 11.8833C9.90697 10.7633 9.69964 9.50126 9.87526 8.26712L9.91628 8.02005C10.1433 6.79018 10.7422 5.66294 11.6311 4.7886L11.8128 4.6177C12.7398 3.77766 13.9025 3.24404 15.1428 3.08352L15.3919 3.0552Z" fill="#0F0F0F"/>
</svg>
