<svg width="32" height="32" viewBox="0 0 32 32" fill="none" xmlns="http://www.w3.org/2000/svg">
<path d="M20 5C16.134 5 13 8.13401 13 12C13 12.5523 12.5523 13 12 13C11.4477 13 11 12.5523 11 12C11 7.02944 15.0294 3 20 3C24.9706 3 29 7.02944 29 12C29 14.5908 27.7899 16.0784 26.7315 17.2137C26.6466 17.3047 26.5647 17.3921 26.4856 17.4764L26.4848 17.4773L26.4837 17.4785C25.5285 18.4971 25 19.0606 25 20V23C25 24.7272 24.4199 26.2443 23.3321 27.3321C22.2443 28.4199 20.7273 29 19 29C17.2579 29 15.8882 28.4115 14.8842 27.4848C13.8973 26.5738 13.3156 25.3855 13.0299 24.2425C12.8959 23.7067 13.2217 23.1638 13.7575 23.0299C14.2933 22.8959 14.8362 23.2217 14.9701 23.7575C15.1844 24.6145 15.6027 25.4262 16.2408 26.0152C16.8618 26.5885 17.7421 27 19 27C20.2728 27 21.2557 26.5801 21.9179 25.9179C22.5801 25.2557 23 24.2728 23 23V20C23 18.2204 24.1119 17.0598 24.9824 16.1512C25.0816 16.0477 25.1776 15.9475 25.2685 15.85C26.2102 14.8399 27 13.8275 27 12C27 8.13401 23.866 5 20 5ZM9.00426 15.2579C8.59441 14.8877 7.96206 14.9199 7.59188 15.3297C7.2217 15.7396 7.25386 16.3719 7.66372 16.7421C8.39918 17.4064 8.98709 18.2176 9.38949 19.1232C9.7919 20.0289 9.99983 21.009 9.99983 22C9.99983 22.991 9.7919 23.9711 9.38949 24.8768C8.98709 25.7824 8.39918 26.5936 7.66372 27.2579C7.25386 27.6281 7.2217 28.2604 7.59188 28.6703C7.96206 29.0801 8.59441 29.1123 9.00426 28.7421C9.94736 27.8903 10.7012 26.8501 11.2172 25.6888C11.7332 24.5275 11.9998 23.2708 11.9998 22C11.9998 20.7292 11.7332 19.4725 11.2172 18.3112C10.7012 17.1499 9.94736 16.1097 9.00426 15.2579ZM4.67018 16.7578C4.26027 16.3877 3.62793 16.4199 3.2578 16.8298C2.88768 17.2397 2.91993 17.8721 3.32984 18.2422C3.85556 18.7169 4.27582 19.2966 4.56347 19.9439C4.85113 20.5912 4.99976 21.2917 4.99976 22C4.99976 22.7083 4.85113 23.4088 4.56347 24.0561C4.27582 24.7034 3.85556 25.2831 3.32984 25.7578C2.91993 26.1279 2.88768 26.7603 3.2578 27.1702C3.62793 27.5801 4.26027 27.6123 4.67018 27.2422C5.40358 26.58 5.98986 25.7712 6.39113 24.8683C6.79241 23.9653 6.99976 22.9881 6.99976 22C6.99976 21.0119 6.79241 20.0347 6.39113 19.1317C5.98986 18.2288 5.40358 17.42 4.67018 16.7578ZM16 12.5C16 10.567 17.567 9 19.5 9L18.1095 16.0012C18.0732 16.0004 18.0367 16 18 16C17.4003 16 16.9497 15.7247 16.6022 15.1587C16.2302 14.5529 16 13.6287 16 12.5ZM18.1114 16.0013L19.5 9C21.433 9 23 10.567 23 12.5C23 13.0523 23.4477 13.5 24 13.5C24.5523 13.5 25 13.0523 25 12.5C25 9.46243 22.5376 7 19.5 7C16.4624 7 14 9.46243 14 12.5C14 13.8565 14.2698 15.1824 14.8978 16.2052C15.5052 17.1944 16.4565 17.8972 17.7146 17.9896L16.968 21.749C16.8305 21.2182 16.2904 20.8966 15.7575 21.0299C15.2217 21.1638 14.8959 21.7067 15.0299 22.2425L16 22C15.0299 22.2425 15.0297 22.2421 15.0299 22.2425L15.0303 22.2444L15.0309 22.2465L15.0321 22.2512L15.0351 22.2629L15.044 22.2951C15.0511 22.3202 15.0608 22.3529 15.0734 22.3919C15.0984 22.4698 15.1352 22.5745 15.1863 22.6971C15.2874 22.9397 15.4504 23.2672 15.7 23.6C16.2115 24.282 17.1072 25 18.5 25C19.9091 25 20.8337 24.2625 21.3575 23.3895C21.85 22.5687 22 21.6275 22 21C22 19.64 21.7317 18.3997 21.0587 17.4743C20.3704 16.5279 19.3447 16.0294 18.1114 16.0013ZM17.7169 17.9898C17.7162 17.9897 17.7154 17.9897 17.7146 17.9896L18.1095 16.0012C18.1101 16.0012 18.1107 16.0013 18.1114 16.0013L17.7169 17.9898ZM16.97 21.7558L17.7169 17.9898C17.8096 17.9966 17.904 18 18 18C18.7171 18 19.1502 18.2505 19.4413 18.6507C19.7683 19.1003 20 19.86 20 21C20 21.3725 19.9 21.9313 19.6425 22.3605C19.4163 22.7375 19.0909 23 18.5 23C17.8929 23 17.5385 22.718 17.3 22.4C17.1746 22.2328 17.0876 22.0603 17.0325 21.9279C17.0054 21.863 16.9875 21.8114 16.9774 21.7799C16.974 21.7694 16.9716 21.7613 16.97 21.7558ZM16.968 21.749C16.9684 21.7503 16.9692 21.7532 16.97 21.7558L16.9693 21.7542L16.968 21.749Z" fill="#0F0F0F"/>
</svg>
