<svg width="32" height="32" viewBox="0 0 32 32" fill="none" xmlns="http://www.w3.org/2000/svg">
<path d="M6.71154 2.30769C7.09389 2.14838 7.53299 2.32919 7.69231 2.71154L12.6923 14.7115C12.7888 14.943 12.7631 15.2074 12.624 15.416C12.4849 15.6247 12.2508 15.75 12 15.75H7.75V19C7.75 19.4142 7.41421 19.75 7 19.75H3.79063C3.86959 20.4784 4.0697 21.2418 4.44312 21.8641C4.92067 22.66 5.68793 23.25 7 23.25C7.41421 23.25 7.75 23.5858 7.75 24V29C7.75 29.4142 7.41421 29.75 7 29.75C6.58579 29.75 6.25 29.4142 6.25 29V24.6989C4.77908 24.4912 3.77887 23.6725 3.15688 22.6359C2.462 21.4777 2.25 20.0775 2.25 19C2.25 18.5858 2.58579 18.25 3 18.25H6.25V15C6.25 14.5858 6.58579 14.25 7 14.25H10.875L6.30769 3.28846C6.14838 2.90611 6.32919 2.46701 6.71154 2.30769Z" fill="#0F0F0F"/>
<path d="M22 6.75C18.6436 6.75 15.75 9.97256 15.75 14C15.75 14.4142 15.4142 14.75 15 14.75C14.5858 14.75 14.25 14.4142 14.25 14C14.25 9.34868 17.6244 5.25 22 5.25C26.3756 5.25 29.75 9.34868 29.75 14C29.75 16.3763 28.916 17.8967 28.1274 19.1007C28.0106 19.2791 27.8996 19.4438 27.7947 19.5996C27.5371 19.9821 27.3155 20.3111 27.1307 20.658C26.8859 21.1179 26.75 21.5366 26.75 22C26.75 24.9619 24.4736 26.75 22 26.75C19.5091 26.75 17.25 24.8125 17.25 22C17.25 21.5858 17.5858 21.25 18 21.25C18.4142 21.25 18.75 21.5858 18.75 22C18.75 23.9214 20.2735 25.25 22 25.25C23.7439 25.25 25.25 24.0381 25.25 22C25.25 21.2134 25.4891 20.5495 25.8068 19.953C26.0307 19.5324 26.3175 19.1067 26.5919 18.6994C26.6881 18.5566 26.7827 18.4161 26.8726 18.2788C27.584 17.1927 28.25 15.963 28.25 14C28.25 9.97256 25.3564 6.75 22 6.75Z" fill="#0F0F0F"/>
<path d="M18.8208 13.3443C19.1337 11.9061 20.4452 10.75 22 10.75C23.7854 10.75 25.25 12.2744 25.25 14C25.25 14.4142 25.5858 14.75 26 14.75C26.4142 14.75 26.75 14.4142 26.75 14C26.75 11.4651 24.6329 9.25 22 9.25C19.3671 9.25 17.25 11.4651 17.25 14C17.25 14.4142 17.5858 14.75 18 14.75C19.0481 14.75 19.75 15.4835 19.75 16.5C19.75 17.5165 19.0481 18.25 18 18.25C17.5858 18.25 17.25 18.5858 17.25 19C17.25 19.4142 17.5858 19.75 18 19.75C19.8974 19.75 21.25 18.3239 21.25 16.5C21.25 14.952 20.2756 13.6905 18.8208 13.3443Z" fill="#0F0F0F"/>
<path d="M12.4697 17.4697C12.7626 17.1768 13.2374 17.1768 13.5303 17.4697C14.6615 18.6009 15.75 20.7881 15.75 23C15.75 25.2119 14.6615 27.3991 13.5303 28.5303C13.2374 28.8232 12.7626 28.8232 12.4697 28.5303C12.1768 28.2374 12.1768 27.7626 12.4697 27.4697C13.3385 26.6009 14.25 24.7881 14.25 23C14.25 21.2119 13.3385 19.3991 12.4697 18.5303C12.1768 18.2374 12.1768 17.7626 12.4697 17.4697Z" fill="#0F0F0F"/>
<path d="M9.37596 19.584C9.60573 19.2393 10.0714 19.1462 10.416 19.376L10 20C10.416 19.376 10.4157 19.3758 10.416 19.376L10.4172 19.3768L10.4186 19.3777L10.4216 19.3797L10.4295 19.3851L10.4515 19.4005C10.4689 19.4129 10.4916 19.4295 10.519 19.4503C10.5736 19.4919 10.6469 19.5508 10.7326 19.6269C10.9035 19.7788 11.127 20.0027 11.35 20.3C11.7977 20.8969 12.25 21.8009 12.25 23C12.25 24.1991 11.7977 25.1031 11.35 25.7C11.127 25.9973 10.9035 26.2212 10.7326 26.3731C10.6469 26.4492 10.5736 26.5081 10.519 26.5497C10.4916 26.5705 10.4689 26.5871 10.4515 26.5995L10.4295 26.6149L10.4216 26.6203L10.4186 26.6223L10.4172 26.6232C10.4169 26.6234 10.416 26.624 10 26L10.416 26.624C10.0714 26.8538 9.60573 26.7607 9.37596 26.416C9.14716 26.0728 9.23855 25.6096 9.57964 25.3789C9.58015 25.3785 9.58101 25.3779 9.5822 25.3771C9.58678 25.3738 9.59625 25.367 9.60992 25.3566C9.63732 25.3357 9.68118 25.3008 9.7361 25.2519C9.84653 25.1538 9.99798 25.0027 10.15 24.8C10.4523 24.3969 10.75 23.8009 10.75 23C10.75 22.1991 10.4523 21.6031 10.15 21.2C9.99798 20.9973 9.84653 20.8462 9.7361 20.7481C9.68118 20.6992 9.63732 20.6643 9.60992 20.6434C9.59625 20.633 9.58678 20.6262 9.5822 20.6229C9.58102 20.6221 9.58016 20.6215 9.57965 20.6211M9.37596 19.584C9.14716 19.9272 9.23856 20.3904 9.57965 20.6211L9.37596 19.584Z" fill="#0F0F0F"/>
</svg>
