<svg width="32" height="32" viewBox="0 0 32 32" fill="none" xmlns="http://www.w3.org/2000/svg">
<path d="M6.61538 2.07692C7.12519 1.86451 7.71066 2.10558 7.92308 2.61539L12.9231 14.6154C13.0517 14.924 13.0175 15.2765 12.8321 15.5547C12.6466 15.8329 12.3344 16 12 16H8V19C8 19.5523 7.55228 20 7 20H4.07515C4.16827 20.6129 4.35303 21.2281 4.65749 21.7355C5.09422 22.4634 5.78391 23 7 23C7.55228 23 8 23.4477 8 24V29C8 29.5523 7.55228 30 7 30C6.44772 30 6 29.5523 6 29V24.9114C4.56515 24.6457 3.56935 23.8092 2.94251 22.7645C2.216 21.5536 2 20.1033 2 19C2 18.4477 2.44772 18 3 18H6V15C6 14.4477 6.44772 14 7 14H10.5L6.07692 3.38462C5.86451 2.87482 6.10558 2.28934 6.61538 2.07692Z" fill="#0F0F0F"/>
<path d="M22 7C18.8134 7 16 10.0765 16 14C16 14.5523 15.5523 15 15 15C14.4477 15 14 14.5523 14 14C14 9.2447 17.4546 5 22 5C26.5454 5 30 9.2447 30 14C30 16.4452 29.138 18.0141 28.3365 19.2377C28.2147 19.4237 28.101 19.5925 27.9948 19.7501C27.7409 20.1271 27.5298 20.4406 27.3514 20.7756C27.1187 21.2126 27 21.5905 27 22C27 25.1159 24.5952 27 22 27C19.3817 27 17 24.961 17 22C17 21.4477 17.4477 21 18 21C18.5523 21 19 21.4477 19 22C19 23.7729 20.4009 25 22 25C23.6223 25 25 23.8841 25 22C25 21.1595 25.2563 20.4548 25.5861 19.8355C25.8167 19.4024 26.1148 18.9599 26.3911 18.5498C26.4855 18.4097 26.5778 18.2727 26.6635 18.1419C27.362 17.0753 28 15.8942 28 14C28 10.0765 25.1866 7 22 7Z" fill="#0F0F0F"/>
<path d="M22 11C20.6507 11 19.4955 11.9492 19.1246 13.1689C20.5551 13.6197 21.5 14.925 21.5 16.5C21.5 18.4584 20.0389 20 18 20C17.4477 20 17 19.5523 17 19C17 18.4477 17.4477 18 18 18C18.9066 18 19.5 17.3819 19.5 16.5C19.5 15.6181 18.9066 15 18 15C17.4477 15 17 14.5523 17 14C17 11.3303 19.2259 9 22 9C24.7741 9 27 11.3303 27 14C27 14.5523 26.5523 15 26 15C25.4477 15 25 14.5523 25 14C25 12.4092 23.6441 11 22 11Z" fill="#0F0F0F"/>
<path d="M12.2929 17.2929C12.6834 16.9024 13.3166 16.9024 13.7071 17.2929C14.882 18.4678 16 20.7174 16 23C16 25.2826 14.882 27.5322 13.7071 28.7071C13.3166 29.0976 12.6834 29.0976 12.2929 28.7071C11.9024 28.3166 11.9024 27.6834 12.2929 27.2929C13.118 26.4678 14 24.7174 14 23C14 21.2826 13.118 19.5322 12.2929 18.7071C11.9024 18.3166 11.9024 17.6834 12.2929 17.2929Z" fill="#0F0F0F"/>
<path d="M10.2803 19.2197C9.98744 18.9268 9.51256 18.9268 9.21967 19.2197C8.92678 19.5126 8.92678 19.9874 9.21967 20.2803C9.83849 20.8991 10.5 22.2119 10.5 23.5C10.5 24.7881 9.83849 26.1009 9.21967 26.7197C8.92678 27.0126 8.92678 27.4874 9.21967 27.7803C9.51256 28.0732 9.98744 28.0732 10.2803 27.7803C11.1615 26.8991 12 25.2119 12 23.5C12 21.7881 11.1615 20.1009 10.2803 19.2197Z" fill="#0F0F0F"/>
</svg>
