<svg width="32" height="32" viewBox="0 0 32 32" fill="none" xmlns="http://www.w3.org/2000/svg">
<path d="M26 27H6C5.73478 27 5.48043 27.1054 5.29289 27.2929C5.10536 27.4804 5 27.7348 5 28C5 28.2652 5.10536 28.5196 5.29289 28.7071C5.48043 28.8946 5.73478 29 6 29H26C26.2652 29 26.5196 28.8946 26.7071 28.7071C26.8946 28.5196 27 28.2652 27 28C27 27.7348 26.8946 27.4804 26.7071 27.2929C26.5196 27.1054 26.2652 27 26 27Z" fill="#0F0F0F"/>
<path d="M7.0025 24.9966L10.5874 25C11.1172 24.9986 11.6251 24.788 12.0005 24.4141L25.6805 10.7341C26.5311 9.88349 27.0089 8.72984 27.0089 7.52694C27.0088 6.32403 26.531 5.17041 25.6803 4.31985C24.8297 3.46928 23.6761 2.99146 22.4732 2.99149C21.2703 2.99151 20.1167 3.46939 19.2661 4.32L5.5855 18.0005C5.39937 18.1861 5.25185 18.4068 5.15144 18.6497C5.05104 18.8927 4.99973 19.1531 5.0005 19.416L5.0044 22.9976C5.0053 23.5273 5.21607 24.0351 5.59057 24.4098C5.96506 24.7845 6.47276 24.9955 7.0025 24.9966ZM20.68 5.7339C21.1555 5.25835 21.8005 4.99119 22.473 4.99119C22.806 4.99119 23.1358 5.05678 23.4434 5.18421C23.7511 5.31165 24.0306 5.49843 24.2661 5.7339C24.5016 5.96936 24.6883 6.2489 24.8158 6.55655C24.9432 6.86421 25.0088 7.19394 25.0088 7.52695C25.0088 7.85995 24.9432 8.18969 24.8158 8.49734C24.6883 8.80499 24.5016 9.08453 24.2661 9.31999L23.4961 10.09C21.6364 9.90982 19.8747 9.17155 18.4421 7.9721L20.68 5.7339ZM17.0243 9.39C18.3884 10.5646 20.0112 11.3995 21.76 11.8265L10.5865 23L7.0044 22.9971L7.0005 19.4141L17.0243 9.39Z" fill="#0F0F0F"/>
</svg>
