<svg width="32" height="32" viewBox="0 0 32 32" fill="none" xmlns="http://www.w3.org/2000/svg">
<path d="M28.9749 3.06066C27.608 1.69382 25.392 1.69382 24.0251 3.06066L14.4792 12.6066C14.2916 12.7941 14.1863 13.0485 14.1863 13.3137L14.1863 16.3492C14.1863 17.1777 14.8579 17.8492 15.6863 17.8492H18.7218C18.987 17.8492 19.2414 17.7439 19.4289 17.5563L28.9749 8.0104C30.3417 6.64357 30.3417 4.42749 28.9749 3.06066ZM25.4393 4.47487C26.0251 3.88908 26.9749 3.88908 27.5607 4.47487C28.1464 5.06066 28.1464 6.0104 27.5607 6.59619L18.3076 15.8492H16.1863V13.7279L25.4393 4.47487Z" fill="#0F0F0F"/>
<path d="M4 11C4 9.34314 5.34315 8 7 8H15C15.5523 8 16 7.55228 16 7C16 6.44771 15.5523 6 15 6H7C4.23858 6 2 8.23857 2 11V23C2 25.7614 4.23858 28 7 28H25C27.7614 28 30 25.7614 30 23V13.5C30 12.9477 29.5523 12.5 29 12.5C28.4477 12.5 28 12.9477 28 13.5V23C28 24.6569 26.6569 26 25 26H7C5.34315 26 4 24.6569 4 23V11Z" fill="#0F0F0F"/>
</svg>
