<svg width="32" height="32" viewBox="0 0 32 32" fill="none" xmlns="http://www.w3.org/2000/svg">
<path d="M28.6213 3.41421C27.4497 2.24264 25.5503 2.24264 24.3787 3.41421L14.8327 12.9602C14.739 13.0539 14.6863 13.1811 14.6863 13.3137V16.3492C14.6863 16.9015 15.134 17.3492 15.6863 17.3492H18.7218C18.8544 17.3492 18.9816 17.2966 19.0754 17.2028L28.6213 7.65685C29.7929 6.48528 29.7929 4.58578 28.6213 3.41421ZM25.0858 4.12132C25.8668 3.34027 27.1332 3.34027 27.9142 4.12132C28.6953 4.90236 28.6953 6.16869 27.9142 6.94974L18.5147 16.3492H15.6863V13.5208L25.0858 4.12132Z" fill="#0F0F0F"/>
<path d="M3.5 11C3.5 9.067 5.067 7.5 7 7.5H15C15.2761 7.5 15.5 7.27614 15.5 7C15.5 6.72385 15.2761 6.5 15 6.5H7C4.51472 6.5 2.5 8.51472 2.5 11V23C2.5 25.4853 4.51472 27.5 7 27.5H25C27.4853 27.5 29.5 25.4853 29.5 23V13.5C29.5 13.2239 29.2761 13 29 13C28.7239 13 28.5 13.2239 28.5 13.5V23C28.5 24.933 26.933 26.5 25 26.5H7C5.067 26.5 3.5 24.933 3.5 23V11Z" fill="#0F0F0F"/>
</svg>
