<svg width="32" height="32" viewBox="0 0 32 32" fill="none" xmlns="http://www.w3.org/2000/svg">
<path d="M2.5 6.5C2.5 5.11929 3.61929 4 5 4H11C12.3807 4 13.5 5.11929 13.5 6.5V12.5C13.5 13.8807 12.3807 15 11 15H5C3.61929 15 2.5 13.8807 2.5 12.5V6.5ZM5 5C4.17157 5 3.5 5.67157 3.5 6.5V12.5C3.5 13.3284 4.17157 14 5 14H11C11.8284 14 12.5 13.3284 12.5 12.5V6.5C12.5 5.67157 11.8284 5 11 5H5Z" fill="#0F0F0F"/>
<path d="M2.5 21C2.5 19.6193 3.61929 18.5 5 18.5H11C12.3807 18.5 13.5 19.6193 13.5 21V27C13.5 28.3807 12.3807 29.5 11 29.5H5C3.61929 29.5 2.5 28.3807 2.5 27V21ZM5 19.5C4.17157 19.5 3.5 20.1716 3.5 21V27C3.5 27.8284 4.17157 28.5 5 28.5H11C11.8284 28.5 12.5 27.8284 12.5 27V21C12.5 20.1716 11.8284 19.5 11 19.5H5Z" fill="#0F0F0F"/>
<path d="M17.5 21C17.5 19.6193 18.6193 18.5 20 18.5H26C27.3807 18.5 28.5 19.6193 28.5 21V27C28.5 28.3807 27.3807 29.5 26 29.5H20C18.6193 29.5 17.5 28.3807 17.5 27V21ZM20 19.5C19.1716 19.5 18.5 20.1716 18.5 21V27C18.5 27.8284 19.1716 28.5 20 28.5H26C26.8284 28.5 27.5 27.8284 27.5 27V21C27.5 20.1716 26.8284 19.5 26 19.5H20Z" fill="#0F0F0F"/>
<path d="M16.5607 11.5178C15.5843 10.5415 15.5843 8.95854 16.5607 7.98223L20.8033 3.73959C21.7796 2.76328 23.3625 2.76328 24.3388 3.73959L28.5815 7.98223C29.5578 8.95854 29.5578 10.5415 28.5815 11.5178L24.3388 15.7604C23.3625 16.7367 21.7796 16.7367 20.8033 15.7604L16.5607 11.5178ZM17.2678 8.68934C16.682 9.27513 16.682 10.2249 17.2678 10.8107L21.5104 15.0533C22.0962 15.6391 23.0459 15.6391 23.6317 15.0533L27.8744 10.8107C28.4602 10.2249 28.4602 9.27513 27.8744 8.68934L23.6317 4.4467C23.0459 3.86091 22.0962 3.86091 21.5104 4.4467L17.2678 8.68934Z" fill="#0F0F0F"/>
</svg>
