<svg width="32" height="32" viewBox="0 0 32 32" fill="none" xmlns="http://www.w3.org/2000/svg">
<path d="M15.1212 23.6312C14.9464 23.806 14.8274 24.0288 14.7791 24.2713C14.7309 24.5137 14.7557 24.7651 14.8503 24.9935C14.9449 25.2219 15.1051 25.4171 15.3107 25.5545C15.5162 25.6918 15.7579 25.7651 16.0051 25.7651C16.2524 25.7651 16.494 25.6918 16.6996 25.5545C16.9052 25.4171 17.0654 25.2219 17.16 24.9935C17.2546 24.7651 17.2793 24.5137 17.2311 24.2713C17.1829 24.0288 17.0638 23.806 16.889 23.6312C16.6546 23.3968 16.3366 23.2651 16.0051 23.2651C15.6736 23.2651 15.3557 23.3968 15.1212 23.6312Z" fill="#0F0F0F"/>
</svg>
