<svg width="32" height="32" viewBox="0 0 32 32" fill="none" xmlns="http://www.w3.org/2000/svg">
<path d="M15.1211 23.6312C14.9463 23.806 14.8272 24.0288 14.779 24.2712C14.7308 24.5137 14.7555 24.7651 14.8501 24.9935C14.9448 25.2219 15.105 25.4171 15.3105 25.5545C15.5161 25.6918 15.7578 25.7651 16.005 25.7651C16.2522 25.7651 16.4939 25.6918 16.6995 25.5545C16.905 25.4171 17.0652 25.2219 17.1598 24.9935C17.2545 24.7651 17.2792 24.5137 17.231 24.2712C17.1827 24.0288 17.0637 23.806 16.8889 23.6312C16.6545 23.3968 16.3365 23.2651 16.005 23.2651C15.6735 23.2651 15.3555 23.3968 15.1211 23.6312Z" fill="#0F0F0F"/>
<path d="M11.7774 19.9576C11.706 20.0262 11.6488 20.1083 11.6092 20.1991C11.5697 20.29 11.5485 20.3877 11.547 20.4868C11.5454 20.5859 11.5635 20.6843 11.6002 20.7763C11.6369 20.8683 11.6914 20.9522 11.7607 21.023C11.83 21.0938 11.9126 21.1502 12.0038 21.1889C12.095 21.2277 12.193 21.2479 12.2921 21.2485C12.3911 21.2492 12.4893 21.2302 12.581 21.1926C12.6727 21.1551 12.7561 21.0998 12.8263 21.0298C13.6778 20.2067 14.8158 19.7466 16.0001 19.7466C17.1844 19.7466 18.3224 20.2067 19.1739 21.0298C19.3165 21.1667 19.5074 21.2417 19.705 21.2385C19.9027 21.2354 20.0911 21.1543 20.2293 21.013C20.3675 20.8717 20.4443 20.6816 20.4431 20.484C20.4419 20.2863 20.3627 20.0972 20.2227 19.9576C19.09 18.862 17.5759 18.2496 16.0001 18.2496C14.4243 18.2496 12.9101 18.862 11.7774 19.9576Z" fill="#0F0F0F"/>
</svg>
