<svg width="32" height="32" viewBox="0 0 32 32" fill="none" xmlns="http://www.w3.org/2000/svg">
<path d="M6.70692 21.2929C6.51941 21.1054 6.26508 21.0001 5.99989 21.0001C5.7347 21.0001 5.48038 21.1054 5.29286 21.2929C5.10534 21.4805 5 21.7348 5 22C5 22.2652 5.10535 22.5195 5.29286 22.707L9.29286 26.707C9.48038 26.8945 9.73471 26.9999 9.9999 26.9999C10.2651 26.9999 10.5194 26.8945 10.7069 26.707C10.8944 26.5195 10.9998 26.2652 10.9998 26C10.9998 25.7348 10.8944 25.4805 10.7069 25.2929L6.70692 21.2929Z" fill="#0F0F0F"/>
<path d="M16.7069 23.2929L8.70693 15.2929C8.51941 15.1054 8.26508 15.0001 7.99989 15.0001C7.7347 15.0001 7.48038 15.1054 7.29286 15.2929C7.10534 15.4805 7 15.7348 7 16C7 16.2652 7.10535 16.5195 7.29286 16.707L15.2929 24.707C15.3857 24.7998 15.4959 24.8735 15.6173 24.9237C15.7386 24.974 15.8686 24.9999 15.9999 24.9999C16.1312 24.9999 16.2612 24.974 16.3825 24.9237C16.5038 24.8735 16.6141 24.7998 16.7069 24.707C16.7998 24.6142 16.8734 24.5039 16.9237 24.3826C16.9739 24.2613 16.9998 24.1313 16.9998 24C16.9998 23.8687 16.9739 23.7386 16.9237 23.6173C16.8734 23.496 16.7998 23.3858 16.7069 23.2929Z" fill="#0F0F0F"/>
</svg>
