<svg width="32" height="32" viewBox="0 0 32 32" fill="none" xmlns="http://www.w3.org/2000/svg">
<path d="M6.5302 21.4697C6.38956 21.3291 6.19881 21.25 5.99992 21.25C5.80103 21.25 5.61028 21.3291 5.46965 21.4697C5.32901 21.6103 5.25 21.8011 5.25 22C5.25 22.1989 5.32901 22.3896 5.46965 22.5302L9.46965 26.5302C9.61028 26.6709 9.80103 26.7499 9.99992 26.7499C10.1988 26.7499 10.3896 26.6709 10.5302 26.5302C10.6708 26.3896 10.7498 26.1989 10.7498 26C10.7498 25.8011 10.6708 25.6103 10.5302 25.4697L6.5302 21.4697Z" fill="#0F0F0F"/>
<path d="M16.5302 23.4697L8.5302 15.4697C8.38956 15.3291 8.19881 15.25 7.99992 15.25C7.80103 15.25 7.61028 15.3291 7.46965 15.4697C7.32901 15.6103 7.25 15.8011 7.25 16C7.25 16.1989 7.32901 16.3896 7.46965 16.5302L15.4696 24.5302C15.5393 24.5999 15.622 24.6551 15.7129 24.6928C15.8039 24.7305 15.9014 24.7499 15.9999 24.7499C16.0984 24.7499 16.1959 24.7305 16.2869 24.6928C16.3779 24.6551 16.4606 24.5999 16.5302 24.5302C16.5998 24.4606 16.6551 24.3779 16.6928 24.287C16.7304 24.196 16.7498 24.0984 16.7498 24C16.7498 23.9015 16.7304 23.804 16.6928 23.713C16.6551 23.622 16.5998 23.5393 16.5302 23.4697Z" fill="#0F0F0F"/>
</svg>
