<svg width="32" height="32" viewBox="0 0 32 32" fill="none" xmlns="http://www.w3.org/2000/svg">
<path d="M25.6461 21.6461C25.7402 21.5539 25.8668 21.5026 25.9986 21.5032C26.1303 21.5039 26.2564 21.5565 26.3496 21.6497C26.4427 21.7428 26.4953 21.8689 26.496 22.0007C26.4967 22.1324 26.4453 22.259 26.3531 22.3531L22.3531 26.3531C22.3069 26.4003 22.2517 26.4379 22.1909 26.4636C22.13 26.4894 22.0646 26.5028 21.9986 26.5031C21.9325 26.5035 21.867 26.4907 21.8059 26.4656C21.7448 26.4404 21.6893 26.4034 21.6425 26.3567C21.5958 26.31 21.5588 26.2545 21.5337 26.1933C21.5085 26.1322 21.4958 26.0667 21.4961 26.0007C21.4964 25.9346 21.5099 25.8692 21.5356 25.8084C21.5614 25.7475 21.5989 25.6924 21.6461 25.6461L25.6461 21.6461Z" fill="#0F0F0F"/>
<path d="M15.6461 23.6461L23.6461 15.6461C23.6924 15.5989 23.7475 15.5614 23.8084 15.5356C23.8692 15.5099 23.9346 15.4964 24.0007 15.4961C24.0667 15.4958 24.1322 15.5085 24.1933 15.5337C24.2545 15.5588 24.31 15.5958 24.3567 15.6425C24.4034 15.6893 24.4404 15.7448 24.4656 15.8059C24.4907 15.867 24.5035 15.9325 24.5031 15.9986C24.5028 16.0646 24.4894 16.13 24.4636 16.1909C24.4379 16.2517 24.4003 16.3069 24.3531 16.3531L16.3531 24.3531C16.3069 24.4003 16.2517 24.4379 16.1909 24.4636C16.13 24.4894 16.0646 24.5028 15.9986 24.5031C15.9325 24.5035 15.867 24.4907 15.8059 24.4656C15.7448 24.4404 15.6893 24.4034 15.6425 24.3567C15.5958 24.31 15.5588 24.2545 15.5337 24.1933C15.5085 24.1322 15.4958 24.0667 15.4961 24.0007C15.4964 23.9346 15.5099 23.8692 15.5356 23.8084C15.5614 23.7475 15.5989 23.6924 15.6461 23.6461Z" fill="#0F0F0F"/>
</svg>
