<svg width="32" height="32" viewBox="0 0 32 32" fill="none" xmlns="http://www.w3.org/2000/svg">
<path d="M26 8.0003H21V6.0003C20.9995 5.47033 20.789 4.96216 20.4144 4.58724C20.0398 4.21231 19.5319 4.00123 19.0019 4.0003L13.0019 3.99346H12.998C12.7354 3.99344 12.4754 4.04517 12.2328 4.14568C11.9902 4.2462 11.7697 4.39353 11.5841 4.57926C11.3985 4.765 11.2512 4.98549 11.1508 5.22815C11.0504 5.4708 10.9988 5.73086 10.999 5.99346V8.0003H6C4.93946 8.00136 3.92266 8.42313 3.17274 9.17304C2.42283 9.92296 2.00106 10.9398 2 12.0003V24.0003C2.00106 25.0608 2.42283 26.0776 3.17274 26.8276C3.92266 27.5775 4.93946 27.9992 6 28.0003H26C27.0605 27.9992 28.0773 27.5775 28.8273 26.8276C29.5772 26.0776 29.9989 25.0608 30 24.0003V12.0003C29.9989 10.9398 29.5772 9.92295 28.8272 9.17303C28.0773 8.42311 27.0605 8.00135 26 8.0003ZM12.999 5.99346L19 6.0003V8.0003H12.999V5.99346ZM5.99996 10.0003H26C26.5302 10.001 27.0385 10.2119 27.4134 10.5868C27.7883 10.9618 27.9993 11.4701 28 12.0003V18.0003H3.99996V12.0003C4.00065 11.4701 4.21158 10.9618 4.58651 10.5868C4.96143 10.2119 5.46974 10.001 5.99996 10.0003ZM26 26.0003H5.99996C5.46974 25.9996 4.96143 25.7887 4.58651 25.4138C4.21159 25.0388 4.00065 24.5305 3.99996 24.0003V20.0003H8.99996V21.0003C8.99996 21.2655 9.10532 21.5199 9.29285 21.7074C9.48039 21.8949 9.73474 22.0003 9.99996 22.0003C10.2652 22.0003 10.5195 21.8949 10.7071 21.7074C10.8946 21.5199 11 21.2655 11 21.0003V20.0003H21V21.0003C21 21.2655 21.1053 21.5199 21.2929 21.7074C21.4804 21.8949 21.7347 22.0003 22 22.0003C22.2652 22.0003 22.5195 21.8949 22.7071 21.7074C22.8946 21.5199 23 21.2655 23 21.0003V20.0003H28V24.0003C27.9993 24.5305 27.7883 25.0388 27.4134 25.4138C27.0385 25.7887 26.5302 25.9996 26 26.0003Z" fill="#0F0F0F"/>
</svg>
