<svg width="32" height="32" viewBox="0 0 32 32" fill="none" xmlns="http://www.w3.org/2000/svg">
<path d="M12.75 3.5C7.64137 3.5 3.5 7.64137 3.5 12.75C3.5 17.8586 7.64137 22 12.75 22C17.8586 22 22 17.8586 22 12.75C22 7.64137 17.8586 3.5 12.75 3.5ZM2 12.75C2 6.81294 6.81294 2 12.75 2C18.6871 2 23.5 6.81294 23.5 12.75C23.5 15.4486 22.5056 17.915 20.8633 19.8027L29.2803 28.2197C29.5732 28.5126 29.5732 28.9874 29.2803 29.2803C28.9874 29.5732 28.5126 29.5732 28.2197 29.2803L19.8027 20.8633C17.915 22.5056 15.4486 23.5 12.75 23.5C6.81294 23.5 2 18.6871 2 12.75ZM12.75 8C13.1642 8 13.5 8.33579 13.5 8.75V12H16.75C17.1642 12 17.5 12.3358 17.5 12.75C17.5 13.1642 17.1642 13.5 16.75 13.5H13.5V16.75C13.5 17.1642 13.1642 17.5 12.75 17.5C12.3358 17.5 12 17.1642 12 16.75V13.5H8.75C8.33579 13.5 8 13.1642 8 12.75C8 12.3358 8.33579 12 8.75 12H12V8.75C12 8.33579 12.3358 8 12.75 8Z" fill="#0F0F0F"/>
</svg>
