<svg width="32" height="32" viewBox="0 0 32 32" fill="none" xmlns="http://www.w3.org/2000/svg">
<path d="M23.3667 3H8.63333C5.52213 3 3 5.52213 3 8.63333V23.3667C3 26.4779 5.52213 29 8.63333 29H23.3667C26.4779 29 29 26.4779 29 23.3667V8.63333C29 5.52213 26.4779 3 23.3667 3Z" fill="url(#paint0_linear_23562_6693)"/>
<path d="M16.1105 7.66052C10.8455 7.66052 6.57718 11.1532 6.57718 15.4605C6.57718 18.1992 8.31051 20.6064 10.9105 21.9974C11.0056 22.0443 11.0801 22.1245 11.1201 22.2227C11.16 22.3209 11.1625 22.4304 11.1272 22.5304C10.8696 23.1526 10.4553 23.6975 9.92468 24.112C9.88734 24.1423 9.86115 24.1842 9.85024 24.2311C9.83934 24.2779 9.84434 24.3271 9.86445 24.3708C9.88456 24.4145 9.91864 24.4503 9.96132 24.4724C10.004 24.4946 10.0529 24.502 10.1002 24.4934C11.2336 24.2986 12.3096 23.8546 13.2505 23.1934C13.3447 23.1231 13.4525 23.0731 13.567 23.0467C13.6815 23.0202 13.8002 23.0178 13.9157 23.0395C14.6402 23.1816 15.3766 23.2542 16.1148 23.2562C21.3798 23.2562 25.6482 19.7635 25.6482 15.4562C25.6482 11.1489 21.3755 7.66052 16.1105 7.66052Z" fill="#FEFEFE"/>
<defs>
<linearGradient id="paint0_linear_23562_6693" x1="16" y1="3" x2="16" y2="29" gradientUnits="userSpaceOnUse">
<stop stop-color="#5CF777"/>
<stop offset="1" stop-color="#0DBC29"/>
</linearGradient>
</defs>
</svg>
