<svg width="192" height="192" viewBox="0 0 192 192" fill="none" xmlns="http://www.w3.org/2000/svg">
<path d="M103.965 168.2L99.9652 160.2H93.9652L89.9652 156.2C89.9652 156.2 91.9652 154.6 92.6652 152C92.8652 151.4 93.5652 151.1 94.1652 151.5C94.7652 151.9 95.6652 152.2 96.8652 152.2C99.5652 152.2 101.965 150.5 102.665 147.9C103.765 143.9 100.765 140.2 96.8652 140.2C93.6652 140.2 91.6652 142.2 91.0652 144.5C90.8652 145.2 90.1652 145.5 89.5652 145.1C88.7652 144.6 87.8652 144.2 86.8652 144.2C85.2652 144.2 83.7652 144.9 82.6652 145.9C82.3652 146.2 81.8652 146.3 81.5652 146.1C79.3652 144.9 76.2652 144.2 72.8652 144.2C66.2652 144.2 60.8652 146.9 60.8652 150.2C60.8652 152.2 62.8652 153.2 62.8652 153.2M72.9652 168.2L76.9652 160.2H81.9652C83.6652 160.2 84.9652 158.9 84.9652 157.2C84.9652 155.5 83.6652 154.2 81.9652 154.2H70.9652L64.9652 164.2L56.9652 168.2M102.965 146.2H108.965M101.165 142L105.365 137.8M96.9652 140.2L80.9652 124.2M92.9652 127.2C92.9652 116.2 84.9652 108.2 64.9652 108.2C64.9652 128.2 72.9652 136.2 83.9652 136.2M88.9652 61.2H128.965M99.9652 54.2C105.965 48.2 114.965 44.2 124.965 44.2C134.965 44.2 144.965 49.2 156.965 61.2C144.965 73.2 134.965 78.2 121.965 78.2C103.965 78.2 109.465 57.7 129.965 78.2L150.965 99.2M133.765 105.2H175.865M108.965 120L117.465 117.2L121.665 121.4H127.365C127.365 121.4 127.065 118.8 128.365 116.5C128.665 115.9 128.365 115.2 127.665 115.1C126.965 114.9 126.065 114.5 125.165 113.7C123.265 111.8 122.765 108.9 124.165 106.6C126.265 103 130.965 102.5 133.665 105.3C135.965 107.6 135.965 110.4 134.665 112.5C134.265 113.1 134.665 113.9 135.365 114C136.265 114.2 137.265 114.6 137.865 115.3C139.065 116.5 139.565 118 139.665 119.5C139.665 119.9 139.965 120.3 140.365 120.4C142.765 121.1 145.365 122.8 147.865 125.2C152.565 129.9 154.465 135.6 152.065 137.9C150.665 139.3 148.565 138.6 148.565 138.6M130.865 141.9L133.665 133.4L130.165 129.9C128.965 128.7 128.965 126.8 130.165 125.7C131.365 124.5 133.265 124.5 134.365 125.7L142.065 133.4L139.265 144.7L142.065 153.2M125.165 105.2L120.965 100.9M129.465 103.4V97.4M155.865 105.2L165.865 94.2M162.965 111.2L183.965 132.2M7.86523 48.2L27.8652 28.2C31.8652 24.2 35.5652 23 37.0652 22.5M97.9652 46.2L79.9652 28.2C75.9652 24.2 72.2652 23 70.7652 22.5M63.9652 75.9999L72.4652 73.2L76.6652 77.3999H82.3652C82.3652 77.3999 82.0652 74.7999 83.3652 72.4999C83.6652 71.8999 83.3652 71.1999 82.6652 71.0999C81.9652 70.8999 81.0652 70.5 80.1652 69.7C78.2652 67.8 77.7652 64.8999 79.1652 62.5999C81.2652 58.9999 85.9652 58.4999 88.6652 61.2999C90.9652 63.5999 90.9652 66.3999 89.6652 68.4999C89.2652 69.0999 89.6652 69.8999 90.3652 69.9999C91.2652 70.1999 92.2652 70.5999 92.8652 71.2999C94.0652 72.4999 94.5652 73.9999 94.6652 75.4999C94.6652 75.8999 94.9652 76.2999 95.3652 76.3999C97.7652 77.0999 100.365 78.8 102.865 81.2C107.565 85.9 109.465 91.5999 107.065 93.8999C105.665 95.2999 103.565 94.5999 103.565 94.5999M85.8652 97.8999L88.6652 89.3999L85.1652 85.8999C83.9652 84.6999 83.9652 82.8 85.1652 81.7C86.3652 80.5 88.2652 80.5 89.3652 81.7L97.0652 89.3999L94.2652 100.7L97.0652 109.2M80.1652 61.2L75.9652 56.9M84.4652 59.4V53.4M77.9652 28.2C77.9652 32.6182 67.2201 36.2 53.9652 36.2C40.7104 36.2 29.9652 32.6182 29.9652 28.2C29.9652 23.7817 40.7104 20.2 53.9652 20.2C67.2201 20.2 77.9652 23.7817 77.9652 28.2Z" stroke="url(#paint0_linear_3323_249)" stroke-width="2.5" stroke-miterlimit="10" stroke-linecap="round" stroke-linejoin="round"/>
<defs>
<linearGradient id="paint0_linear_3323_249" x1="95.9152" y1="20.2" x2="95.9152" y2="168.2" gradientUnits="userSpaceOnUse">
<stop stop-color="#FFBE4F"/>
<stop offset="1" stop-color="#93C437"/>
</linearGradient>
</defs>
</svg>
