<svg width="120" height="120" viewBox="0 0 120 120" fill="none" xmlns="http://www.w3.org/2000/svg">
<path d="M16.2 106.2H72.2M16.2 106.2H11.2C10.6 106.2 10.2 106.6 10.2 107.2C10.2 110 12.4 112.2 15.2 112.2H86.2C95 112.2 102.2 105 102.2 96.1999C102.2 76.1999 82.2 74.1999 82.2 60.1999C82.2 46.1999 105.2 44.1999 109.2 36.1999C112.2 30.0999 107.9 24.1999 102.2 24.1999M16.2 106.2V76.1999C16.2 71.7999 19.8 68.1999 24.2 68.1999H64.2C68.6 68.1999 72.2 71.7999 72.2 76.1999V106.2M72.2 106.2H78.2M102.2 33.1999V24.6999C102.2 16.0999 95.6 8.69987 87 8.29987C77.8 7.89987 70.2 15.1999 70.2 24.2999V39.1999C70.2 39.7999 69.6999 40.2999 69.0999 40.1999C65.1999 39.5999 62.2 36.2999 62.2 32.2999C62.2 30.2999 63 28.3999 64.2 26.9999" stroke="url(#paint0_linear_3240_1925)" stroke-width="2.5" stroke-miterlimit="10" stroke-linecap="round" stroke-linejoin="round"/>
<defs>
<linearGradient id="paint0_linear_3240_1925" x1="60.1917" y1="8.28418" x2="60.1917" y2="112.2" gradientUnits="userSpaceOnUse">
<stop stop-color="#279BE8"/>
<stop offset="1" stop-color="#875AE0"/>
</linearGradient>
</defs>
</svg>
