<svg width="192" height="192" viewBox="0 0 192 192" fill="none" xmlns="http://www.w3.org/2000/svg">
<path d="M32.366 175.4V43.3999M32.366 43.3999L44.366 39.3998C80.366 27.3998 112.366 29.3999 112.366 51.3999C112.366 73.3999 112.366 95.3998 112.366 95.3998M32.366 43.3999C17.366 48.3999 12.366 31.3999 18.366 27.3999C24.366 23.3999 32.366 30.3999 32.366 43.3999ZM119.366 58.7999C131.966 59.4999 149.666 57.5999 168.366 51.3999V135.4C132.366 147.4 100.366 143.4 100.366 135.4C100.366 129.4 112.366 129.4 112.366 123.4C112.366 115.8 83.766 111.8 50.166 121.6C46.766 122.6 44.366 125.7 44.366 129.3V175.4" stroke="url(#paint0_linear_3240_1817)" stroke-width="2.5" stroke-miterlimit="10" stroke-linecap="round" stroke-linejoin="round"/>
<defs>
<linearGradient id="paint0_linear_3240_1817" x1="92.1284" y1="26.2769" x2="92.1284" y2="175.4" gradientUnits="userSpaceOnUse">
<stop stop-color="#3CC29A"/>
<stop offset="1" stop-color="#93C437"/>
</linearGradient>
</defs>
</svg>
