<svg width="120" height="120" viewBox="0 0 120 120" fill="none" xmlns="http://www.w3.org/2000/svg">
<path d="M83.8463 61.6854L74.7487 52.5878L83.8463 43.4934M75.6813 52.5751H101.931C103.228 52.5751 104.472 52.0598 105.389 51.1425C106.307 50.2252 106.822 48.9812 106.822 47.6839V29.3028C106.818 27.9386 106.274 26.6314 105.309 25.6668C104.344 24.7021 103.037 24.1583 101.673 24.154H34.7583C33.3923 24.1557 32.0827 24.6984 31.1159 25.6633C30.1492 26.6283 29.604 27.9369 29.5997 29.3028V41.1688L36.9984 41.2047C37.6407 41.2077 38.2762 41.3372 38.8685 41.5858C39.4608 41.8343 39.9983 42.1971 40.4504 42.6534C40.9024 43.1098 41.2602 43.6506 41.5032 44.2452C41.7463 44.8398 41.8698 45.4764 41.8668 46.1187L41.6483 90.9776C41.6453 91.6199 41.5159 92.2553 41.2673 92.8476C41.0187 93.4399 40.6559 93.9774 40.1996 94.4295C39.7433 94.8816 39.2024 95.2393 38.6078 95.4824C38.0132 95.7254 37.3766 95.849 36.7343 95.846L18.0434 95.7547C16.7467 95.7477 15.5059 95.2262 14.5936 94.3048C13.6813 93.3833 13.1722 92.1373 13.1783 90.8406L13.3967 45.9818C13.3997 45.3395 13.5292 44.704 13.7778 44.1117C14.0264 43.5195 14.3892 42.9819 14.8455 42.5299C15.3018 42.0778 15.8427 41.72 16.4372 41.477C17.0318 41.234 17.6685 41.1104 18.3108 41.1134L23.5639 41.1395M41.8016 81.4756H101.676C103.041 81.4747 104.35 80.9319 105.315 79.9664C106.28 79.0009 106.822 77.6918 106.822 76.3268V59.5141M27.2454 85.9918C27.2454 88.5563 25.1665 90.6352 22.602 90.6352C20.0376 90.6352 17.9586 88.5563 17.9586 85.9918C17.9586 83.4274 20.0376 81.3484 22.602 81.3484C25.1665 81.3484 27.2454 83.4274 27.2454 85.9918Z" stroke="url(#paint0_linear_4_1083)" stroke-width="2.5" stroke-linecap="round" stroke-linejoin="round"/>
<defs>
<linearGradient id="paint0_linear_4_1083" x1="60.0001" y1="24.154" x2="60.0001" y2="95.846" gradientUnits="userSpaceOnUse">
<stop stop-color="#279BE8"/>
<stop offset="1" stop-color="#875AE0"/>
</linearGradient>
</defs>
</svg>
