<svg width="60" height="60" viewBox="0 0 60 60" fill="none" xmlns="http://www.w3.org/2000/svg">
<path d="M26.3482 54.7V29.7C26.3482 27.9 24.7482 26.4 22.8482 26.7C21.4482 26.9 20.3482 28.2999 20.3482 29.7999C20.4482 37.6999 27.2482 46.6 38.0482 46.7C43.6482 46.8 48.3482 42.2 48.3482 36.6V32.7M40.3482 28.7H44.3482M27.3482 20.7H46.3482C47.4482 20.7 48.3482 19.8 48.3482 18.7C48.3482 12.1 42.9482 6.69995 36.3482 6.69995H31.3482M20.4482 11.1C18.9482 10.2 17.2482 9.69995 15.4482 9.69995C9.94824 9.69995 5.44824 14.2 5.44824 19.7C5.44824 25.2 9.94824 29.7 15.4482 29.7C15.9482 29.7 16.3482 29.4 16.3482 28.9C16.2482 27.9 15.4482 25.4 15.4482 22.7C15.4482 13.9 22.6482 6.69995 31.4482 6.69995M39.0482 31.7999C39.8482 31.0999 40.4482 29.9999 40.4482 28.7999C40.4482 26.5999 38.6482 24.7999 36.4482 24.7999C34.2482 24.7999 32.4482 26.5999 32.4482 28.7999C32.4482 30.9999 34.2482 32.7999 36.4482 32.7999C37.4482 32.6999 38.3482 32.3999 39.0482 31.7999ZM45.3482 31.4C46.0482 32.2 47.1482 32.7999 48.3482 32.7999C50.5482 32.7999 52.3482 30.9999 52.3482 28.7999C52.3482 26.5999 50.5482 24.7999 48.3482 24.7999C46.1482 24.7999 44.3482 26.5999 44.3482 28.7999C44.3482 29.7999 44.7482 30.7 45.3482 31.4Z" stroke="url(#paint0_linear_3380_2462)" stroke-width="2.5" stroke-miterlimit="10" stroke-linecap="round" stroke-linejoin="round"/>
<defs>
<linearGradient id="paint0_linear_3380_2462" x1="28.8982" y1="6.69995" x2="28.8982" y2="54.7" gradientUnits="userSpaceOnUse">
<stop stop-color="#279BE8"/>
<stop offset="1" stop-color="#875AE0"/>
</linearGradient>
</defs>
</svg>
