<svg width="192" height="192" viewBox="0 0 192 192" fill="none" xmlns="http://www.w3.org/2000/svg">
<path d="M105.758 90.7199C106.862 90.7199 107.758 89.8245 107.758 88.7199C107.758 87.6154 106.862 86.7199 105.758 86.7199C104.653 86.7199 103.758 87.6154 103.758 88.7199C103.758 89.8245 104.653 90.7199 105.758 90.7199Z" fill="url(#paint0_linear_256_97)"/>
<path d="M126.801 85.2C126.801 85.2 131.201 98.8 132.801 103.2C134.801 109.2 130.801 111.2 126.801 111.2H122.801M60.8008 83.2C74.8008 83.2 82.8008 75.2 90.8008 67.2C98.8008 59.2 106.801 51.2 120.801 51.2C135.201 51.2 146.801 62.8 146.801 77.2V117.2C146.801 133.6 133.801 147 117.401 147.2C85.8008 147.6 59.8008 118.4 59.0008 102.2C58.8008 98 62.0008 93.8 66.2008 93.4C71.0008 93 75.0008 96.6 75.0008 101.4V163.4M112.801 39.2C98.8008 39.2 90.8008 47.2 82.8008 55.2C74.8008 63.2 66.8008 71.2 52.8008 71.2M104.801 27.2C90.8008 27.2 82.8008 35.2 74.8008 43.2C66.8008 51.2 58.8008 59.2 44.8008 59.2" stroke="url(#paint1_linear_256_97)" stroke-width="2.5" stroke-miterlimit="10" stroke-linecap="round" stroke-linejoin="round"/>
<defs>
<linearGradient id="paint0_linear_256_97" x1="105.758" y1="86.7199" x2="105.758" y2="90.7199" gradientUnits="userSpaceOnUse">
<stop stop-color="#FFBE4F"/>
<stop offset="1" stop-color="#93C437"/>
</linearGradient>
<linearGradient id="paint1_linear_256_97" x1="95.8008" y1="27.2" x2="95.8008" y2="163.4" gradientUnits="userSpaceOnUse">
<stop stop-color="#FFBE4F"/>
<stop offset="1" stop-color="#93C437"/>
</linearGradient>
</defs>
</svg>
