<svg width="120" height="120" viewBox="0 0 120 120" fill="none" xmlns="http://www.w3.org/2000/svg">
<path d="M45.4502 67.2C45.4502 66.5096 44.8906 65.95 44.2002 65.95C43.5098 65.95 42.9502 66.5096 42.9502 67.2H44.2002H45.4502ZM51.2002 52.95C50.5098 52.95 49.9502 53.5096 49.9502 54.2C49.9502 54.8903 50.5098 55.45 51.2002 55.45V54.2V52.95ZM35.4502 96.2C35.4502 95.5096 34.8906 94.95 34.2002 94.95C33.5098 94.95 32.9502 95.5096 32.9502 96.2H34.2002H35.4502ZM24.2002 73.45C24.8906 73.45 25.4502 72.8903 25.4502 72.1999C25.4502 71.5096 24.8906 70.9499 24.2002 70.9499V72.1999V73.45ZM42.9502 28.2C42.9502 28.8903 43.5098 29.45 44.2002 29.45C44.8906 29.45 45.4502 28.8903 45.4502 28.2H44.2002H42.9502ZM39.2002 102.95C38.5098 102.95 37.9502 103.51 37.9502 104.2C37.9502 104.89 38.5098 105.45 39.2002 105.45V104.2V102.95ZM44.2002 67.2H42.9502V88.2H44.2002H45.4502V67.2H44.2002ZM44.2002 88.2H42.9502C42.9502 91.9096 39.9098 94.95 36.2002 94.95V96.2V97.45C41.2906 97.45 45.4502 93.2903 45.4502 88.2H44.2002ZM36.2002 96.2V94.95H32.2002V96.2V97.45H36.2002V96.2ZM32.2002 96.2V94.95C28.4906 94.95 25.4502 91.9096 25.4502 88.2H24.2002H22.9502C22.9502 93.2903 27.1098 97.45 32.2002 97.45V96.2ZM24.2002 88.2H25.4502V40.2H24.2002H22.9502V88.2H24.2002ZM24.2002 40.2H25.4502C25.4502 36.4903 28.4906 33.45 32.2002 33.45V32.2V30.95C27.1098 30.95 22.9502 35.1096 22.9502 40.2H24.2002ZM32.2002 32.2V33.45H36.2002V32.2V30.95H32.2002V32.2ZM36.2002 32.2V33.45C39.9098 33.45 42.9502 36.4903 42.9502 40.2H44.2002H45.4502C45.4502 35.1096 41.2906 30.95 36.2002 30.95V32.2ZM44.2002 40.2H42.9502V58.2H44.2002H45.4502V40.2H44.2002ZM44.2002 58.2H42.9502C42.9502 59.9903 44.4098 61.45 46.2002 61.45V60.2V58.95C45.7906 58.95 45.4502 58.6096 45.4502 58.2H44.2002ZM46.2002 60.2V61.45H62.2002V60.2V58.95H46.2002V60.2ZM62.2002 60.2V61.45C63.9906 61.45 65.4502 59.9903 65.4502 58.2H64.2002H62.9502C62.9502 58.6096 62.6098 58.95 62.2002 58.95V60.2ZM64.2002 58.2H65.4502V56.2H64.2002H62.9502V58.2H64.2002ZM64.2002 56.2H65.4502C65.4502 54.4096 63.9906 52.95 62.2002 52.95V54.2V55.45C62.6098 55.45 62.9502 55.7903 62.9502 56.2H64.2002ZM62.2002 54.2V52.95H51.2002V54.2V55.45H62.2002V54.2ZM70.2002 92.2H68.9502C68.9502 92.6142 68.6144 92.95 68.2002 92.95V94.2V95.45C69.9951 95.45 71.4502 93.9949 71.4502 92.2H70.2002ZM68.2002 94.2V92.95C67.786 92.95 67.4502 92.6142 67.4502 92.2H66.2002H64.9502C64.9502 93.9949 66.4053 95.45 68.2002 95.45V94.2ZM66.2002 92.2H67.4502C67.4502 91.7857 67.786 91.45 68.2002 91.45V90.2V88.95C66.4053 88.95 64.9502 90.405 64.9502 92.2H66.2002ZM68.2002 90.2V91.45C68.6144 91.45 68.9502 91.7857 68.9502 92.2H70.2002H71.4502C71.4502 90.405 69.9951 88.95 68.2002 88.95V90.2ZM80.2002 92.2H78.9502C78.9502 92.6142 78.6144 92.95 78.2002 92.95V94.2V95.45C79.9951 95.45 81.4502 93.9949 81.4502 92.2H80.2002ZM78.2002 94.2V92.95C77.786 92.95 77.4502 92.6142 77.4502 92.2H76.2002H74.9502C74.9502 93.9949 76.4053 95.45 78.2002 95.45V94.2ZM76.2002 92.2H77.4502C77.4502 91.7857 77.786 91.45 78.2002 91.45V90.2V88.95C76.4053 88.95 74.9502 90.405 74.9502 92.2H76.2002ZM78.2002 90.2V91.45C78.6144 91.45 78.9502 91.7857 78.9502 92.2H80.2002H81.4502C81.4502 90.405 79.9951 88.95 78.2002 88.95V90.2ZM90.2002 92.2H88.9502C88.9502 92.6142 88.6144 92.95 88.2002 92.95V94.2V95.45C89.9951 95.45 91.4502 93.9949 91.4502 92.2H90.2002ZM88.2002 94.2V92.95C87.786 92.95 87.4502 92.6142 87.4502 92.2H86.2002H84.9502C84.9502 93.9949 86.4053 95.45 88.2002 95.45V94.2ZM86.2002 92.2H87.4502C87.4502 91.7857 87.786 91.45 88.2002 91.45V90.2V88.95C86.4053 88.95 84.9502 90.405 84.9502 92.2H86.2002ZM88.2002 90.2V91.45C88.6144 91.45 88.9502 91.7857 88.9502 92.2H90.2002H91.4502C91.4502 90.405 89.9951 88.95 88.2002 88.95V90.2ZM70.2002 82.2H68.9502C68.9502 82.6142 68.6144 82.95 68.2002 82.95V84.2V85.45C69.9951 85.45 71.4502 83.9949 71.4502 82.2H70.2002ZM68.2002 84.2V82.95C67.786 82.95 67.4502 82.6142 67.4502 82.2H66.2002H64.9502C64.9502 83.9949 66.4053 85.45 68.2002 85.45V84.2ZM66.2002 82.2H67.4502C67.4502 81.7857 67.786 81.45 68.2002 81.45V80.2V78.95C66.4053 78.95 64.9502 80.405 64.9502 82.2H66.2002ZM68.2002 80.2V81.45C68.6144 81.45 68.9502 81.7857 68.9502 82.2H70.2002H71.4502C71.4502 80.405 69.9951 78.95 68.2002 78.95V80.2ZM80.2002 82.2H78.9502C78.9502 82.6142 78.6144 82.95 78.2002 82.95V84.2V85.45C79.9951 85.45 81.4502 83.9949 81.4502 82.2H80.2002ZM78.2002 84.2V82.95C77.786 82.95 77.4502 82.6142 77.4502 82.2H76.2002H74.9502C74.9502 83.9949 76.4053 85.45 78.2002 85.45V84.2ZM76.2002 82.2H77.4502C77.4502 81.7857 77.786 81.45 78.2002 81.45V80.2V78.95C76.4053 78.95 74.9502 80.405 74.9502 82.2H76.2002ZM78.2002 80.2V81.45C78.6144 81.45 78.9502 81.7857 78.9502 82.2H80.2002H81.4502C81.4502 80.405 79.9951 78.95 78.2002 78.95V80.2ZM90.2002 82.2H88.9502C88.9502 82.6142 88.6144 82.95 88.2002 82.95V84.2V85.45C89.9951 85.45 91.4502 83.9949 91.4502 82.2H90.2002ZM88.2002 84.2V82.95C87.786 82.95 87.4502 82.6142 87.4502 82.2H86.2002H84.9502C84.9502 83.9949 86.4053 85.45 88.2002 85.45V84.2ZM86.2002 82.2H87.4502C87.4502 81.7857 87.786 81.45 88.2002 81.45V80.2V78.95C86.4053 78.95 84.9502 80.405 84.9502 82.2H86.2002ZM88.2002 80.2V81.45C88.6144 81.45 88.9502 81.7857 88.9502 82.2H90.2002H91.4502C91.4502 80.405 89.9951 78.95 88.2002 78.95V80.2ZM70.2002 72.1999H68.9502C68.9502 72.6142 68.6144 72.95 68.2002 72.95V74.2V75.45C69.9951 75.45 71.4502 73.9949 71.4502 72.1999H70.2002ZM68.2002 74.2V72.95C67.786 72.95 67.4502 72.6142 67.4502 72.1999H66.2002H64.9502C64.9502 73.9949 66.4053 75.45 68.2002 75.45V74.2ZM66.2002 72.1999H67.4502C67.4502 71.7857 67.786 71.45 68.2002 71.45V70.2V68.95C66.4053 68.95 64.9502 70.405 64.9502 72.1999H66.2002ZM68.2002 70.2V71.45C68.6144 71.45 68.9502 71.7857 68.9502 72.1999H70.2002H71.4502C71.4502 70.405 69.9951 68.95 68.2002 68.95V70.2ZM80.2002 72.1999H78.9502C78.9502 72.6142 78.6144 72.95 78.2002 72.95V74.2V75.45C79.9951 75.45 81.4502 73.9949 81.4502 72.1999H80.2002ZM78.2002 74.2V72.95C77.786 72.95 77.4502 72.6142 77.4502 72.1999H76.2002H74.9502C74.9502 73.9949 76.4053 75.45 78.2002 75.45V74.2ZM76.2002 72.1999H77.4502C77.4502 71.7857 77.786 71.45 78.2002 71.45V70.2V68.95C76.4053 68.95 74.9502 70.405 74.9502 72.1999H76.2002ZM78.2002 70.2V71.45C78.6144 71.45 78.9502 71.7857 78.9502 72.1999H80.2002H81.4502C81.4502 70.405 79.9951 68.95 78.2002 68.95V70.2ZM90.2002 72.1999H88.9502C88.9502 72.6142 88.6144 72.95 88.2002 72.95V74.2V75.45C89.9951 75.45 91.4502 73.9949 91.4502 72.1999H90.2002ZM88.2002 74.2V72.95C87.786 72.95 87.4502 72.6142 87.4502 72.1999H86.2002H84.9502C84.9502 73.9949 86.4053 75.45 88.2002 75.45V74.2ZM86.2002 72.1999H87.4502C87.4502 71.7857 87.786 71.45 88.2002 71.45V70.2V68.95C86.4053 68.95 84.9502 70.405 84.9502 72.1999H86.2002ZM88.2002 70.2V71.45C88.6144 71.45 88.9502 71.7857 88.9502 72.1999H90.2002H91.4502C91.4502 70.405 89.9951 68.95 88.2002 68.95V70.2ZM34.2002 96.2H32.9502V100.2H34.2002H35.4502V96.2H34.2002ZM34.2002 100.2H32.9502C32.9502 106.11 28.1098 110.95 22.2002 110.95V112.2V113.45C29.4906 113.45 35.4502 107.49 35.4502 100.2H34.2002ZM22.2002 112.2V110.95H20.2002V112.2V113.45H22.2002V112.2ZM20.2002 112.2V110.95C14.2906 110.95 9.4502 106.11 9.4502 100.2H8.2002H6.9502C6.9502 107.49 12.9098 113.45 20.2002 113.45V112.2ZM8.2002 100.2H9.4502V84.2H8.2002H6.9502V100.2H8.2002ZM8.2002 84.2H9.4502C9.4502 78.2903 14.2906 73.45 20.2002 73.45V72.1999V70.9499C12.9098 70.9499 6.9502 76.9096 6.9502 84.2H8.2002ZM20.2002 72.1999V73.45H24.2002V72.1999V70.9499H20.2002V72.1999ZM44.2002 28.2H45.4502V16.2H44.2002H42.9502V28.2H44.2002ZM44.2002 16.2H45.4502C45.4502 12.4903 48.4906 9.44995 52.2002 9.44995V8.19995V6.94995C47.1098 6.94995 42.9502 11.1096 42.9502 16.2H44.2002ZM52.2002 8.19995V9.44995H104.2V8.19995V6.94995H52.2002V8.19995ZM104.2 8.19995V9.44995C107.91 9.44995 110.95 12.4903 110.95 16.2H112.2H113.45C113.45 11.1096 109.291 6.94995 104.2 6.94995V8.19995ZM112.2 16.2H110.95V46.2H112.2H113.45V16.2H112.2ZM112.2 46.2H110.95C110.95 49.9096 107.91 52.95 104.2 52.95V54.2V55.45C109.291 55.45 113.45 51.2903 113.45 46.2H112.2ZM104.2 54.2V52.95H94.2002V54.2V55.45H104.2V54.2ZM94.2002 54.2V52.95C92.4098 52.95 90.9502 54.4096 90.9502 56.2H92.2002H93.4502C93.4502 55.7903 93.7906 55.45 94.2002 55.45V54.2ZM92.2002 56.2H90.9502V58.2H92.2002H93.4502V56.2H92.2002ZM92.2002 58.2H90.9502C90.9502 59.9903 92.4098 61.45 94.2002 61.45V60.2V58.95C93.7906 58.95 93.4502 58.6096 93.4502 58.2H92.2002ZM94.2002 60.2V61.45H104.2V60.2V58.95H94.2002V60.2ZM104.2 60.2V61.45C107.91 61.45 110.95 64.4903 110.95 68.2H112.2H113.45C113.45 63.1096 109.291 58.95 104.2 58.95V60.2ZM112.2 68.2H110.95V96.2H112.2H113.45V68.2H112.2ZM112.2 96.2H110.95C110.95 99.9096 107.91 102.95 104.2 102.95V104.2V105.45C109.291 105.45 113.45 101.29 113.45 96.2H112.2ZM104.2 104.2V102.95H39.2002V104.2V105.45H104.2V104.2Z" fill="url(#paint0_linear_4_478)"/>
<path d="M78.2002 20.2C79.3048 20.2 80.2002 19.3045 80.2002 18.2C80.2002 17.0954 79.3048 16.2 78.2002 16.2C77.0956 16.2 76.2002 17.0954 76.2002 18.2C76.2002 19.3045 77.0956 20.2 78.2002 20.2Z" fill="url(#paint1_linear_4_478)"/>
<defs>
<linearGradient id="paint0_linear_4_478" x1="60.2002" y1="8.19995" x2="60.2002" y2="112.2" gradientUnits="userSpaceOnUse">
<stop stop-color="#93C437"/>
<stop offset="1" stop-color="#279BE8"/>
</linearGradient>
<linearGradient id="paint1_linear_4_478" x1="78.2002" y1="16.2" x2="78.2002" y2="20.2" gradientUnits="userSpaceOnUse">
<stop stop-color="#93C437"/>
<stop offset="1" stop-color="#279BE8"/>
</linearGradient>
</defs>
</svg>
