<svg width="320" height="320" viewBox="0 0 320 320" fill="none" xmlns="http://www.w3.org/2000/svg">
<path d="M245.644 90.7002C245.644 90.7002 243.444 97.5002 242.644 99.7002C241.644 102.7 243.644 103.7 245.644 103.7H247.644M277.644 89.7002C271.644 89.7002 267.644 85.7002 263.644 81.7002C259.644 77.7002 255.644 73.7002 248.644 73.7002C241.444 73.7002 235.644 79.5002 235.644 86.7002V106.7C235.644 115 242.344 121.7 250.644 121.7C266.644 121.7 279.644 106.7 279.644 98.7002C279.644 96.5002 277.844 94.7002 275.644 94.7002C273.444 94.7002 271.644 96.5002 271.644 98.7002V120.7C271.644 125.1 275.244 128.7 279.644 128.7M231.644 78.7002C231.644 69.9002 238.844 62.7002 247.644 62.7002C252.644 62.7002 257.644 62.7002 257.644 62.7002C273.144 62.7002 285.644 75.2002 285.644 90.7002V95.7002C285.644 101.7 289.644 103.7 291.644 105.7C293.644 107.7 297.644 110.7 297.644 116.7C297.644 122.7 293.644 126.7 293.644 126.7M290.744 174.1C298.444 170.1 303.744 162.1 303.744 152.8C303.744 139.5 293.044 128.8 279.744 128.8M81.6439 55.7002C81.6439 55.7002 79.4439 62.5002 78.6439 64.7002C77.6439 67.7002 79.6439 68.7002 81.6439 68.7002H83.6439M84.6439 40.7002C91.6439 40.7002 95.6439 44.7002 99.6439 48.7002C103.644 52.7002 107.644 56.7002 114.644 56.7002M88.6439 34.7002C95.6439 34.7002 99.6439 38.7002 103.644 42.7002C107.644 46.7002 111.644 50.7002 118.644 50.7002M92.6439 28.7002C99.6439 28.7002 103.644 32.7002 107.644 36.7002C111.644 40.7002 115.644 44.7002 122.644 44.7002M66.6439 188.7C63.2439 188.7 60.5439 185.9 60.6439 182.5C60.7439 179.2 63.6439 176.7 66.8439 176.7M85.6439 160.7H75.8439C74.3439 160.7 73.3439 162.3 74.0439 163.6L76.9439 169.4C77.3439 170.2 77.1439 171.1 76.5439 171.7L73.8439 174.4C73.0439 175.2 72.5439 176.4 72.6439 177.6C73.6439 187.2 81.7439 194.7 91.5439 194.7H103.544M206.644 168.7H254.844C281.144 168.7 303.144 189.6 303.644 215.9C304.044 242.8 282.444 264.7 255.644 264.7H249.644C248.544 264.7 247.644 263.8 247.644 262.7V244.7C247.644 243.6 246.744 242.7 245.644 242.7H233.644C232.544 242.7 231.644 243.6 231.644 244.7V262.7C231.644 263.8 230.744 264.7 229.644 264.7H191.644C190.544 264.7 189.644 263.8 189.644 262.7V252.7C189.644 251.6 190.544 250.7 191.644 250.7H211.644C218.244 250.7 223.644 245.3 223.644 238.7V196.7C223.644 190.1 218.244 184.7 211.644 184.7H147.644C141.044 184.7 135.644 190.1 135.644 196.7V238.7C135.644 245.3 141.044 250.7 147.644 250.7H167.644C168.744 250.7 169.644 251.6 169.644 252.7V262.7C169.644 263.8 168.744 264.7 167.644 264.7H127.644M127.644 264.7L110.244 230C106.144 221.9 97.844 216.7 88.7439 216.7H81.0439C78.0439 216.7 75.5439 214.2 75.5439 211.2C75.5439 208.2 78.0439 205.7 81.0439 205.7H86.6439C91.6439 205.7 95.5439 201.5 95.5439 196.5V188.7C95.5439 187.6 96.4439 186.7 97.5439 186.7H99.5439C101.544 186.7 104.544 185.7 102.544 179.7L99.5439 170.7C95.4439 158.5 87.5439 152.7 75.5439 152.7C62.2439 152.7 51.5439 163.4 51.5439 176.7C51.5439 186.7 55.5439 188.7 55.5439 200.7C55.5439 209.5 48.3439 216.7 39.5439 216.7C30.7439 216.7 23.5439 209.5 23.5439 200.7V144.7C23.5439 118.2 45.0439 96.7002 71.5439 96.7002H89.5439C91.7439 96.7002 93.5439 94.9002 93.5439 92.7002C93.5439 90.5002 91.7439 88.7002 89.5439 88.7002H86.5439C78.2439 88.7002 71.5439 82.0002 71.5439 73.7002V53.7002C71.5439 46.5002 77.3439 40.7002 84.5439 40.7002M127.644 264.7C131.344 272.1 126.644 277.7 121.644 277.7C118.844 277.7 116.644 275.5 116.644 272.7C116.644 268.7 120.644 264.7 127.644 264.7ZM181.644 168.7H191.644M181.644 168.7C184.944 168.7 187.644 166 187.644 162.7V154.7C187.644 151.4 184.944 148.7 181.644 148.7H175.644C173.444 148.7 171.644 150.5 171.644 152.7V164.7C171.644 166.9 173.444 168.7 175.644 168.7H181.644ZM251.644 128.7C227.644 128.7 223.644 156.7 199.644 156.7M199.644 156.7V132.7C199.644 130.5 197.844 128.7 195.644 128.7H181.644C179.444 128.7 177.644 130.5 177.644 132.7V148.7M199.644 156.7V164.7C199.644 166.9 197.844 168.7 195.644 168.7H190.644M141.644 128.7L125.644 80.7002C122.644 72.7002 113.644 72.7002 113.644 72.7002H107.644C104.344 72.7002 101.644 75.4002 101.644 78.7002V82.7002C101.644 88.2002 106.144 92.7002 111.644 92.7002C113.444 92.7002 114.944 93.9002 115.344 95.6002L117.644 104.7L127.044 142.5C128.544 148.5 133.944 152.7 140.144 152.7C147.544 152.7 153.644 146.7 153.644 139.2V110.7C153.644 103 147.344 96.7002 139.644 96.7002M119.644 73.7002V65.7002C119.644 63.5002 117.844 61.7002 115.644 61.7002H109.644C107.444 61.7002 105.644 63.5002 105.644 65.7002V72.7002M234.644 242.7V236.7M239.644 242.7V231.7M244.644 242.7L247.644 236.7M111.644 194.7C111.644 196.909 109.853 198.7 107.644 198.7C105.435 198.7 103.644 196.909 103.644 194.7C103.644 192.491 105.435 190.7 107.644 190.7C109.853 190.7 111.644 192.491 111.644 194.7ZM165.244 86.5002C154.544 75.9002 154.444 59.8002 161.944 49.4002C173.644 33.2002 197.044 32.6002 209.644 47.5002C221.044 61.0002 218.244 81.2002 203.744 91.4002C197.044 96.1002 191.644 95.6002 188.644 98.6002C186.944 100.3 186.244 102.7 186.744 104.9C187.044 106.5 185.444 107.8 184.044 107.2C182.644 106.6 181.444 105.7 180.244 104.2C175.944 99.3002 175.344 92.0002 179.344 86.8002C181.644 83.9002 183.844 83.8002 185.144 85.1002C186.344 86.3002 186.444 88.1002 184.444 90.0002C180.844 93.6002 172.344 93.6002 165.244 86.5002Z" stroke="url(#paint0_linear_3240_3167)" stroke-width="2.5" stroke-miterlimit="10" stroke-linecap="round" stroke-linejoin="round"/>
<path d="M255.645 94.7002C256.749 94.7002 257.645 93.8048 257.645 92.7002C257.645 91.5956 256.749 90.7002 255.645 90.7002C254.54 90.7002 253.645 91.5956 253.645 92.7002C253.645 93.8048 254.54 94.7002 255.645 94.7002Z" fill="#4985E6"/>
<path d="M91.6445 59.7002C92.7491 59.7002 93.6445 58.8048 93.6445 57.7002C93.6445 56.5956 92.7491 55.7002 91.6445 55.7002C90.54 55.7002 89.6445 56.5956 89.6445 57.7002C89.6445 58.8048 90.54 59.7002 91.6445 59.7002Z" fill="#4985E6"/>
<path d="M90.6445 175.7C91.7491 175.7 92.6445 174.805 92.6445 173.7C92.6445 172.596 91.7491 171.7 90.6445 171.7C89.54 171.7 88.6445 172.596 88.6445 173.7C88.6445 174.805 89.54 175.7 90.6445 175.7Z" fill="#4985E6"/>
<path d="M177.645 68.6001C178.749 68.6001 179.645 67.7047 179.645 66.6001C179.645 65.4955 178.749 64.6001 177.645 64.6001C176.54 64.6001 175.645 65.4955 175.645 66.6001C175.645 67.7047 176.54 68.6001 177.645 68.6001Z" fill="#4985E6"/>
<path d="M185.645 68.6001C186.749 68.6001 187.645 67.7047 187.645 66.6001C187.645 65.4955 186.749 64.6001 185.645 64.6001C184.54 64.6001 183.645 65.4955 183.645 66.6001C183.645 67.7047 184.54 68.6001 185.645 68.6001Z" fill="#4985E6"/>
<path d="M193.645 68.6001C194.749 68.6001 195.645 67.7047 195.645 66.6001C195.645 65.4955 194.749 64.6001 193.645 64.6001C192.54 64.6001 191.645 65.4955 191.645 66.6001C191.645 67.7047 192.54 68.6001 193.645 68.6001Z" fill="#4985E6"/>
<defs>
<linearGradient id="paint0_linear_3240_3167" x1="163.644" y1="28.7002" x2="163.644" y2="277.7" gradientUnits="userSpaceOnUse">
<stop stop-color="#279BE8"/>
<stop offset="1" stop-color="#875AE0"/>
</linearGradient>
</defs>
</svg>
