<svg width="120" height="120" viewBox="0 0 120 120" fill="none" xmlns="http://www.w3.org/2000/svg">
<path d="M93.4085 53.361V64.9924M111.502 66.0498L99.5179 43.492C96.8156 38.5574 89.7663 38.5574 87.1816 43.492L70.8506 73.4516C68.2659 78.1511 71.6731 83.9081 77.0775 83.9081H95.4643M95.4643 83.9081H111.032C113.617 83.9081 115.731 81.7933 115.731 79.2086C115.731 76.6238 113.617 74.509 111.032 74.509C102.02 74.509 97.616 79.2627 95.4643 83.9081ZM95.4643 83.9081C93.4085 88.3467 93.4085 92.6865 93.4085 92.6865V92.8C93.4085 97.2183 89.8267 100.8 85.4085 100.8H12.7998C8.38153 100.8 4.7998 97.2183 4.7998 92.8V33.8C4.7998 29.3818 8.38153 25.8 12.7998 25.8H91.1998M40.7999 63.4001V72.5809C40.7999 73.9442 42.2565 74.8127 43.4558 74.1644L60.1415 65.1451C61.3855 64.4727 61.4039 62.6942 60.174 61.9962L43.4883 52.5259C42.2884 51.8449 40.7999 52.7116 40.7999 54.0914V56.8" stroke="url(#paint0_linear_3240_1216)" stroke-width="2.5" stroke-linecap="round" stroke-linejoin="round"/>
<path d="M93.5 71C94.3284 71 95 70.3284 95 69.5C95 68.6716 94.3284 68 93.5 68C92.6716 68 92 68.6716 92 69.5C92 70.3284 92.6716 71 93.5 71Z" fill="#F89637"/>
<defs>
<linearGradient id="paint0_linear_3240_1216" x1="60.2656" y1="25.8" x2="60.2656" y2="100.8" gradientUnits="userSpaceOnUse">
<stop stop-color="#FFBE4F"/>
<stop offset="1" stop-color="#EC6400"/>
</linearGradient>
</defs>
</svg>
