<svg width="192" height="192" viewBox="0 0 192 192" fill="none" xmlns="http://www.w3.org/2000/svg">
<path d="M45.5481 95C45.5481 95.6904 46.1077 96.25 46.7981 96.25C47.4884 96.25 48.0481 95.6904 48.0481 95H45.5481ZM97.298 94.75C96.6076 94.75 96.048 95.3096 96.048 96C96.048 96.6904 96.6076 97.25 97.298 97.25V94.75ZM100.798 55L99.548 55L99.548 55.0032L100.798 55ZM69.5481 55C69.5481 55.6904 70.1077 56.25 70.7981 56.25C71.4884 56.25 72.0481 55.6904 72.0481 55H69.5481ZM149.048 96C149.048 95.3096 148.488 94.75 147.798 94.75C147.108 94.75 146.548 95.3096 146.548 96H149.048ZM142.744 146.952L141.861 146.068L141.861 146.068L142.744 146.952ZM57.8521 146.952L56.9687 147.837L56.9687 147.837L57.8521 146.952ZM102.048 104C102.048 103.31 101.488 102.75 100.798 102.75C100.108 102.75 99.548 103.31 99.548 104H102.048ZM38.3135 84.4491C38.8376 83.9998 38.8983 83.2107 38.4491 82.6865C37.9998 82.1624 37.2106 82.1017 36.6865 82.5509L38.3135 84.4491ZM31 103.062L29.7579 103.202L31 103.062ZM68.1875 128.438L68.0936 127.191L68.1875 128.438ZM91.75 98.75L92.9594 98.4342L91.75 98.75ZM65.9999 81.1875L65.7753 79.9578L65.7753 79.9578L65.9999 81.1875ZM102.048 70C102.048 69.3096 101.488 68.75 100.798 68.75C100.108 68.75 99.548 69.3096 99.548 70H102.048ZM99.548 88C99.548 88.6904 100.108 89.25 100.798 89.25C101.488 89.25 102.048 88.6904 102.048 88H99.548ZM99.8748 74.1875L98.6806 73.8182L99.8748 74.1875ZM100.764 68.5L99.5142 68.4635C99.5138 68.4757 99.5136 68.4878 99.5136 68.5H100.764ZM54.0481 134.023C54.0481 133.332 53.4884 132.773 52.7981 132.773C52.1077 132.773 51.5481 133.332 51.5481 134.023H54.0481ZM115.3 68.75C114.609 68.75 114.05 69.3096 114.05 70C114.05 70.6904 114.609 71.25 115.3 71.25V68.75ZM99.5498 55C99.5498 55.6904 100.109 56.25 100.8 56.25C101.49 56.25 102.05 55.6904 102.05 55H99.5498ZM48.0481 95V71H45.5481V95H48.0481ZM47.7981 71.25H152.798V68.75H47.7981V71.25ZM152.548 71V95H155.048V71H152.548ZM152.548 95C152.548 94.8619 152.66 94.75 152.798 94.75V97.25C154.041 97.25 155.048 96.2426 155.048 95H152.548ZM152.798 71.25C152.66 71.25 152.548 71.1381 152.548 71H155.048C155.048 69.7574 154.041 68.75 152.798 68.75V71.25ZM48.0481 71C48.0481 71.1381 47.9362 71.25 47.7981 71.25V68.75C46.5554 68.75 45.5481 69.7574 45.5481 71H48.0481ZM102.048 55C102.048 46.0254 94.7727 38.75 85.7981 38.75V41.25C93.392 41.25 99.548 47.4061 99.548 55H102.048ZM85.7981 38.75C76.8235 38.75 69.5481 46.0254 69.5481 55H72.0481C72.0481 47.4061 78.2042 41.25 85.7981 41.25V38.75ZM152.798 94.75H97.298V97.25H152.798V94.75ZM146.548 96V134.765H149.048V96H146.548ZM146.548 134.765C146.548 139.004 144.862 143.07 141.861 146.068L143.627 147.837C147.098 144.37 149.048 139.668 149.048 134.765H146.548ZM141.861 146.068C138.859 149.066 134.788 150.75 130.543 150.75V153.25C135.45 153.25 140.157 151.303 143.627 147.837L141.861 146.068ZM130.543 150.75H100.798V153.25H130.543V150.75ZM100.798 150.75H70.0536V153.25H100.798V150.75ZM70.0536 150.75C65.8081 150.75 61.7369 149.066 58.7354 146.068L56.9687 147.837C60.4393 151.303 65.1461 153.25 70.0536 153.25V150.75ZM58.7354 146.068C55.734 143.07 54.0481 139.004 54.0481 134.765H51.5481C51.5481 139.668 53.4981 144.37 56.9687 147.837L58.7354 146.068ZM36.6865 82.5509C31.0231 87.4053 28.9329 95.8774 29.7579 103.202L32.2422 102.923C31.4764 96.1226 33.4769 88.5947 38.3135 84.4491L36.6865 82.5509ZM29.7579 103.202C30.6856 111.44 34.7691 118.512 41.4408 123.296C48.1021 128.073 57.2611 130.514 68.2814 129.684L68.0936 127.191C57.5371 127.986 48.9914 125.634 42.8977 121.264C36.8143 116.902 33.0925 110.473 32.2422 102.923L29.7579 103.202ZM68.2814 129.684C77.2348 129.01 84.4523 125.217 88.9169 119.531C93.3883 113.836 95.0219 106.334 92.9594 98.4342L90.5405 99.0658C92.4143 106.243 90.9186 112.933 86.9506 117.987C82.9759 123.049 76.444 126.562 68.0936 127.191L68.2814 129.684ZM92.9594 98.4342C92.2534 95.73 91.5372 94.4378 90.8887 93.3443L88.7384 94.6196C89.2975 95.5622 89.9066 96.6379 90.5405 99.0658L92.9594 98.4342ZM90.8887 93.3443C88.5377 89.3803 84.7038 85.6175 80.2768 83.0529C75.8544 80.4911 70.7147 79.0557 65.7753 79.9578L66.2245 82.4172C70.4033 81.6539 74.936 82.8483 79.0236 85.2162C83.1067 87.5814 86.6205 91.0485 88.7384 94.6196L90.8887 93.3443ZM65.7753 79.9578C57.4249 81.483 51.4991 88.9229 52.8328 96.2246L55.2921 95.7754C54.2604 90.127 58.9171 83.7518 66.2245 82.4172L65.7753 79.9578ZM52.8328 96.2246C53.4763 99.7481 55.2724 102.841 58.1341 105.044C60.9917 107.243 64.8371 108.5 69.5 108.5V106C65.288 106 62.0059 104.869 59.6591 103.063C57.3164 101.259 55.8312 98.727 55.2921 95.7754L52.8328 96.2246ZM69.5 108.5C73.247 108.5 76.7564 107.631 80.2653 105.432C83.7469 103.25 87.1708 99.7939 90.8281 94.7121L88.799 93.2517C85.2463 98.188 82.0447 101.366 78.9376 103.314C75.8578 105.244 72.8155 106 69.5 106V108.5ZM99.548 70V88H102.048V70H99.548ZM90.8281 94.7121C93.3684 91.1824 98.4369 83.0694 101.069 74.5568L98.6806 73.8182C96.1591 81.9729 91.2565 89.8371 88.799 93.2517L90.8281 94.7121ZM99.548 55.0032C99.5516 56.4002 99.5746 66.3949 99.5142 68.4635L102.013 68.5365C102.075 66.416 102.051 56.3601 102.048 54.9968L99.548 55.0032ZM99.5136 68.5C99.5136 69.868 99.1363 72.3446 98.6806 73.8182L101.069 74.5568C101.595 72.8573 102.014 70.132 102.014 68.5H99.5136ZM54.0481 134.765V134.023H51.5481V134.765H54.0481ZM128.55 55C128.55 62.6342 122.578 68.75 115.3 68.75V71.25C124.038 71.25 131.05 63.9343 131.05 55H128.55ZM102.05 55C102.05 47.3658 108.022 41.25 115.3 41.25V38.75C106.562 38.75 99.5498 46.0657 99.5498 55H102.05ZM115.3 41.25C122.578 41.25 128.55 47.3658 128.55 55H131.05C131.05 46.0657 124.038 38.75 115.3 38.75V41.25ZM99.548 104V152H102.048V104H99.548Z" fill="url(#paint0_linear_5505_112)"/>
<defs>
<linearGradient id="paint0_linear_5505_112" x1="92.316" y1="40" x2="92.316" y2="152" gradientUnits="userSpaceOnUse">
<stop stop-color="#FFBE4F"/>
<stop offset="1" stop-color="#93C437"/>
</linearGradient>
</defs>
</svg>
