<svg xmlns="http://www.w3.org/2000/svg" width="1080" height="576" fill="none" viewBox="0 0 1080 576"><g fill-rule="evenodd" clip-path="url(#a)" clip-rule="evenodd"><path fill="url(#b)" d="M513.035 48h47.925V36h-47.925z"/><path fill="url(#c)" d="M560.96 35.998c0 2.208-10.727 4-23.962 4-13.236 0-23.963-1.792-23.963-4s10.727-4 23.963-4c13.235 0 23.962 1.792 23.962 4"/><path fill="url(#d)" d="M552.977 16c0-8.832-7.156-16-15.975-16s-15.975 7.168-15.975 16v8h31.95z"/><path fill="url(#e)" d="m393 567 8.289-38.474a.67.67 0 0 1 .652-.526h263.01c.273 0 .518.166.619.419L681 567z"/><path fill="#2F2F2F" d="M393 575.333c0 .369.298.667.667.667h286.666a.667.667 0 0 0 .667-.667V567H393z"/><path fill="url(#f)" d="M504 546h66V354h-66z"/><path fill="#E0E0E0" d="M752.069 354H321.931c-8.794 0-15.931-7.215-15.931-16.105V64.105C306 55.215 313.137 48 321.931 48h430.138C760.863 48 768 55.215 768 64.105v273.79c0 8.89-7.137 16.105-15.931 16.105"/><path fill="#222" d="M751.945 306H322.056c-2.239 0-4.056-1.792-4.056-4V70c0-2.208 1.817-4 4.056-4h429.889c2.238 0 4.055 1.792 4.055 4v232c0 2.208-1.817 4-4.055 4"/><path fill="#222" d="M751.945 306H322.056c-2.239 0-4.056-1.792-4.056-4V70c0-2.208 1.817-4 4.056-4h429.889c2.238 0 4.055 1.792 4.055 4v232c0 2.208-1.817 4-4.055 4"/><path fill="url(#g)" d="M751.945 306H322.056c-2.239 0-4.056-1.792-4.056-4V70c0-2.208 1.817-4 4.056-4h429.889c2.238 0 4.055 1.792 4.055 4v232c0 2.208-1.817 4-4.055 4"/><path fill="#908E8E" d="M530.625 335.392h1.193v-5.278h-1.193zm10.837-3.761c-.043-.016-.431-.288-1.006-.288-.776 0-1.308.608-1.308 1.424 0 .783.518 1.407 1.308 1.407.561 0 .963-.256 1.006-.288v1.408c-.143.064-.56.192-1.092.192-1.337 0-2.515-1.04-2.515-2.719 0-1.584 1.063-2.736 2.515-2.736.561 0 .977.144 1.092.192zm-12.48 0c-.043-.016-.431-.288-1.006-.288-.776 0-1.308.608-1.308 1.424 0 .783.518 1.407 1.308 1.407.561 0 .963-.256 1.006-.288v1.408c-.143.064-.546.192-1.078.192-1.351 0-2.529-1.04-2.529-2.719 0-1.584 1.063-2.736 2.529-2.736.561 0 .978.144 1.078.192zm16.239-.265c-.705 0-1.236.64-1.236 1.392 0 .768.531 1.391 1.236 1.391.718 0 1.236-.623 1.236-1.391 0-.752-.518-1.392-1.236-1.392m2.526 1.391c0 1.503-1.049 2.735-2.515 2.735-1.452 0-2.501-1.232-2.501-2.735 0-1.504 1.049-2.719 2.501-2.719 1.466 0 2.515 1.215 2.515 2.719m-11.385-1.438c-.014 0-.517-.16-.934-.16-.489 0-.748.176-.748.431 0 .32.36.432.561.496l.316.128c.791.272 1.136.864 1.136 1.504 0 1.327-1.035 1.775-1.955 1.775-.647 0-1.236-.144-1.308-.16v-1.199c.115.032.618.192 1.135.192.604 0 .877-.192.877-.496 0-.256-.244-.416-.546-.512-.057-.032-.172-.064-.244-.096-.676-.24-1.236-.672-1.236-1.552 0-.975.675-1.647 1.782-1.647.575 0 1.121.16 1.164.176zm-12.255-6.865c0-.368-.287-.656-.604-.656-.33 0-.589.288-.589.656v1.375c0 .368.259.672.589.672.317 0 .604-.304.604-.672zm3.257-1.82c0-.352-.273-.656-.604-.656-.316 0-.589.304-.589.656v3.199c0 .368.273.672.589.672.331 0 .604-.304.604-.672zm3.259-2.484c0-.368-.273-.656-.604-.656-.316 0-.589.288-.589.656v7.006c0 .352.273.656.589.656.331 0 .604-.304.604-.656zm3.258 2.484c0-.352-.273-.656-.589-.656-.331 0-.604.304-.604.656v3.199c0 .368.273.672.604.672.316 0 .589-.304.589-.672zm3.269 1.82c0-.368-.273-.656-.603-.656-.317 0-.59.288-.59.656v1.375c0 .368.273.672.59.672.33 0 .603-.304.603-.672zm3.258-1.82c0-.352-.273-.656-.603-.656-.317 0-.59.304-.59.656v3.199c0 .368.273.672.59.672.33 0 .603-.304.603-.672zm3.257-2.484c0-.368-.259-.656-.589-.656-.331 0-.604.288-.604.656v7.006c0 .352.273.656.604.656s.589-.304.589-.656zm3.27 2.484c0-.352-.273-.656-.604-.656s-.589.304-.589.656v3.199c0 .368.258.672.589.672s.604-.304.604-.672zm3.26 1.82c0-.368-.273-.656-.59-.656-.33 0-.603.288-.603.656v1.375c0 .368.273.672.603.672.317 0 .59-.304.59-.672z"/><path fill="#232323" d="M552.977 23.998c0-8.832-7.156-16-15.975-16s-15.975 7.168-15.975 16 7.157 16 15.975 16c8.819 0 15.975-7.168 15.975-16"/><path fill="#373B47" d="M544.983 24c0-4.416-3.579-8-7.988-8s-7.987 3.584-7.987 8 3.578 8 7.987 8 7.988-3.584 7.988-8"/></g><defs><linearGradient id="b" x1="513.035" x2="560.96" y1="54" y2="54" gradientUnits="userSpaceOnUse"><stop stop-color="#DFDFDF"/><stop offset="1" stop-color="#6F6F6F"/></linearGradient><linearGradient id="c" x1="525.016" x2="525.642" y1="33.318" y2="38.993" gradientUnits="userSpaceOnUse"><stop stop-color="#F6F6F6"/><stop offset="1" stop-color="#969696"/></linearGradient><linearGradient id="d" x1="521.027" x2="552.977" y1="12.657" y2="12.657" gradientUnits="userSpaceOnUse"><stop stop-color="#B4B4B4"/><stop offset=".264" stop-color="#F5F5F5"/><stop offset=".664" stop-color="#CCC"/><stop offset="1" stop-color="gray"/></linearGradient><linearGradient id="f" x1="504.002" x2="504.002" y1="354" y2="545.987" gradientUnits="userSpaceOnUse"><stop stop-color="#CFCFCF"/><stop offset=".278" stop-color="#D9D9D9"/><stop offset=".514" stop-color="#DFDFDF"/><stop offset=".753" stop-color="#D6D6D6"/><stop offset="1" stop-color="silver"/></linearGradient><linearGradient id="g" x1="99" x2="301.28" y1="186" y2="555.161" gradientUnits="userSpaceOnUse"><stop stop-color="#fff" stop-opacity=".24"/><stop offset="1" stop-opacity=".5"/></linearGradient><radialGradient id="e" cx="0" cy="0" r="1" gradientTransform="rotate(5.732 -5787.312 6035.107)scale(195.253 40.5582)" gradientUnits="userSpaceOnUse"><stop stop-color="#9C9C9C"/><stop offset=".528" stop-color="#E8E8E8"/><stop offset="1" stop-color="#E8E8E8"/></radialGradient><clipPath id="a"><path fill="#fff" d="M0 0h1080v576H0z"/></clipPath></defs></svg>