<svg xmlns="http://www.w3.org/2000/svg" width="1080" height="576" fill="none" viewBox="0 0 1080 576"><g clip-path="url(#a)"><path fill="url(#b)" d="M283.768 552h-44.981c-6.789 0-12.287-6.667-12.287-14.882V425.5h86.006l-16.642 114.207c-1.032 7.114-6.137 12.293-12.096 12.293"/><g filter="url(#c)"><path fill="#000" d="M283.768 552h-44.981c-6.789 0-12.287-6.667-12.287-14.882V425.5h86.006l-16.642 114.207c-1.032 7.114-6.137 12.293-12.096 12.293"/></g><path fill="url(#d)" d="M799.736 552h44.981c6.789 0 12.287-6.667 12.287-14.882V425.5h-86.006l16.642 114.207c1.032 7.114 6.137 12.293 12.096 12.293"/><g filter="url(#e)"><path fill="#000" d="M799.736 552h44.981c6.789 0 12.287-6.667 12.287-14.882V425.5h-86.006l16.642 114.207c1.032 7.114 6.137 12.293 12.096 12.293"/></g><path fill="#C5C5C5" d="M210 444h660v85c0 9.389-7.387 17-16.5 17h-627c-9.113 0-16.5-7.611-16.5-17z"/><g filter="url(#f)"><path fill="#000" d="M210 444h660v85c0 9.389-7.387 17-16.5 17h-627c-9.113 0-16.5-7.611-16.5-17z"/></g><path fill="url(#g)" d="M210 444h660v88.384c0 7.52-6.156 13.616-13.75 13.616h-632.5c-7.594 0-13.75-6.096-13.75-13.616z"/><path fill="url(#h)" d="M210 444h660v88.384c0 7.52-6.156 13.616-13.75 13.616h-632.5c-7.594 0-13.75-6.096-13.75-13.616z"/><path fill="url(#i)" fill-rule="evenodd" d="M870 444v89.622c0 3.418-1.361 6.512-3.562 8.753-2.201 2.24-5.241 3.625-8.599 3.625H222.161c-3.358 0-6.399-1.385-8.599-3.625a12.45 12.45 0 0 1-3.562-8.753V444z" clip-rule="evenodd"/><path fill="url(#j)" fill-rule="evenodd" d="M866.4 533.622V447.6H213.6v86.022a8.85 8.85 0 0 0 2.53 6.23c1.558 1.586 3.687 2.548 6.031 2.548h635.678c2.344 0 4.473-.962 6.031-2.548a8.85 8.85 0 0 0 2.53-6.23M870 444H210v89.622c0 3.418 1.361 6.512 3.562 8.753 2.2 2.24 5.241 3.625 8.599 3.625h635.678c3.358 0 6.398-1.385 8.599-3.625a12.45 12.45 0 0 0 3.562-8.753z" clip-rule="evenodd"/><path fill="#999" fill-opacity=".48" fill-rule="evenodd" d="M867 533.622V447H213v86.622a9.45 9.45 0 0 0 2.702 6.65c1.665 1.695 3.946 2.728 6.459 2.728h635.678c2.513 0 4.794-1.033 6.459-2.728a9.45 9.45 0 0 0 2.702-6.65M870 444H210v89.622c0 3.418 1.361 6.512 3.562 8.753 2.2 2.24 5.241 3.625 8.599 3.625h635.678c3.358 0 6.398-1.385 8.599-3.625a12.45 12.45 0 0 0 3.562-8.753z" clip-rule="evenodd"/><path fill="#151B1E" fill-opacity=".12" fill-rule="evenodd" d="M867.6 533.622V446.4H212.4v87.222c0 2.77 1.101 5.266 2.874 7.071 1.772 1.804 4.205 2.907 6.887 2.907h635.678c2.682 0 5.115-1.103 6.887-2.907a10.05 10.05 0 0 0 2.874-7.071M870 444H210v89.622c0 3.418 1.361 6.512 3.562 8.753 2.2 2.24 5.241 3.625 8.599 3.625h635.678c3.358 0 6.398-1.385 8.599-3.625a12.45 12.45 0 0 0 3.562-8.753z" clip-rule="evenodd"/><path fill="#1A1A1A" d="M870 447.5H210V42.021C210 32.074 217.991 24 227.838 24h624.324C862.009 24 870 32.074 870 42.021z"/><g filter="url(#k)"><path fill="#000" d="M870 447.5H210V42.021C210 32.074 217.991 24 227.838 24h624.324C862.009 24 870 32.074 870 42.021z"/></g><path stroke="#474747" stroke-width=".3" d="M855.22 430.749c0 4.056-3.28 7.334-7.322 7.334s-7.322-3.278-7.322-7.334 3.28-7.333 7.322-7.333 7.322 3.278 7.322 7.333ZM789.326 438.083h29.287c4.042 0 7.322-3.278 7.322-7.334s-3.28-7.333-7.322-7.333h-29.287c-4.042 0-7.322 3.278-7.322 7.333 0 4.056 3.28 7.334 7.322 7.334Z" clip-rule="evenodd"/><path fill="#232323" d="M540 48.75a8.25 8.25 0 1 0 0-16.5 8.25 8.25 0 0 0 0 16.5"/><path fill="#555B6C" d="M540.004 46a5.5 5.5 0 1 0 0-11 5.5 5.5 0 0 0 0 11"/><path fill="#fff" fill-rule="evenodd" d="M549.59 502.374c1.714 0 2.941 1.253 2.941 2.804s-1.227 2.82-2.941 2.82c-1.698 0-2.925-1.27-2.925-2.82 0-1.551 1.227-2.804 2.925-2.804m-11.727-.015c.673 0 1.311.165 1.362.181v1.155c-.017 0-.605-.165-1.093-.165-.571 0-.874.181-.874.445 0 .33.421.446.656.512l.37.132c.924.28 1.327.89 1.327 1.55 0 1.369-1.21 1.831-2.285 1.831-.757 0-1.446-.148-1.53-.165v-1.237c.135.033.723.198 1.328.198.706 0 1.025-.198 1.025-.511 0-.264-.286-.429-.639-.528-.067-.033-.201-.066-.285-.099-.79-.248-1.446-.693-1.446-1.6 0-1.006.79-1.699 2.084-1.699m6.049.008c.656 0 1.143.148 1.278.198v1.451c-.051-.016-.505-.296-1.177-.296-.907 0-1.529.626-1.529 1.468 0 .808.605 1.451 1.529 1.451.656 0 1.126-.264 1.177-.297v1.452c-.168.066-.656.198-1.278.198-1.563 0-2.941-1.072-2.941-2.804 0-1.633 1.244-2.821 2.941-2.821m-14.582 0c.656 0 1.143.148 1.261.198v1.451c-.05-.016-.504-.296-1.177-.296-.907 0-1.529.626-1.529 1.468 0 .808.605 1.451 1.529 1.451.656 0 1.127-.264 1.177-.297v1.452c-.168.066-.639.198-1.261.198-1.579 0-2.958-1.072-2.958-2.804 0-1.633 1.244-2.821 2.958-2.821m4.579.086v5.443h-1.395v-5.443zm15.681 1.29c-.824 0-1.446.659-1.446 1.435 0 .791.622 1.435 1.446 1.435.84 0 1.445-.644 1.445-1.435 0-.776-.605-1.435-1.445-1.435M531.813 491.5c.386 0 .706.297.706.676v7.225c0 .363-.32.676-.706.676a.696.696 0 0 1-.689-.676v-7.225c0-.379.319-.676.689-.676m15.266 0c.386 0 .689.297.689.676v7.225a.686.686 0 0 1-.689.676c-.387 0-.706-.313-.706-.676v-7.225c0-.379.319-.676.706-.676m-19.081 2.562c.386 0 .706.313.706.676v3.299c0 .379-.32.693-.706.693a.7.7 0 0 1-.689-.693v-3.299c0-.363.319-.676.689-.676m7.64 0c.37 0 .689.313.689.676v3.299a.7.7 0 0 1-.689.693.705.705 0 0 1-.706-.693v-3.299c0-.363.32-.676.706-.676m7.607 0c.387 0 .706.313.706.676v3.299a.704.704 0 0 1-.706.693.7.7 0 0 1-.689-.693v-3.299c0-.363.319-.676.689-.676m7.641 0c.386 0 .706.313.706.676v3.299c0 .379-.32.693-.706.693a.69.69 0 0 1-.689-.693v-3.299c0-.363.302-.676.689-.676m-26.697 1.877c.37 0 .706.297.706.676v1.419c0 .379-.336.692-.706.692a.69.69 0 0 1-.689-.692v-1.419c0-.379.303-.676.689-.676m15.248 0c.386 0 .705.297.705.676v1.419a.703.703 0 0 1-.705.692.7.7 0 0 1-.69-.692v-1.419c0-.379.32-.676.69-.676m15.274 0c.37 0 .689.297.689.676v1.419a.7.7 0 0 1-.689.692.703.703 0 0 1-.706-.692v-1.419c0-.379.319-.676.706-.676" clip-rule="evenodd"/><path stroke="#fff" stroke-opacity=".6" stroke-width=".3" d="M540 439.25a8.25 8.25 0 1 0 0-16.5 8.25 8.25 0 0 0 0 16.5Z"/><path fill="#222" d="M854.171 414.5H225.837c-2.668 0-4.833-2.225-4.833-4.965V61.965c0-2.74 2.165-4.965 4.833-4.965h628.334c2.668 0 4.833 2.224 4.833 4.965v347.57c0 2.74-2.165 4.965-4.833 4.965"/><path fill="url(#l)" d="M854.171 414.5H225.837c-2.668 0-4.833-2.225-4.833-4.965V61.965c0-2.74 2.165-4.965 4.833-4.965h628.334c2.668 0 4.833 2.224 4.833 4.965v347.57c0 2.74-2.165 4.965-4.833 4.965"/></g><defs><linearGradient id="b" x1="269.503" x2="269.503" y1="488.75" y2="551.04" gradientUnits="userSpaceOnUse"><stop stop-color="#CACACA"/><stop offset="1" stop-color="#989898"/></linearGradient><linearGradient id="d" x1="814.001" x2="814.001" y1="488.75" y2="551.04" gradientUnits="userSpaceOnUse"><stop stop-color="#CACACA"/><stop offset="1" stop-color="#989898"/></linearGradient><linearGradient id="g" x1="210" x2="870" y1="502.912" y2="502.912" gradientUnits="userSpaceOnUse"><stop stop-color="#E4E4E4"/><stop offset="1" stop-color="#A8A8A8"/></linearGradient><linearGradient id="h" x1="540" x2="540" y1="526.908" y2="546" gradientUnits="userSpaceOnUse"><stop stop-opacity="0"/><stop offset="1" stop-opacity=".08"/></linearGradient><linearGradient id="i" x1="540" x2="540" y1="471.665" y2="546" gradientUnits="userSpaceOnUse"><stop stop-opacity="0"/><stop offset="1" stop-opacity=".08"/></linearGradient><linearGradient id="j" x1="540" x2="540" y1="444" y2="546" gradientUnits="userSpaceOnUse"><stop stop-color="#E9E9E8"/><stop offset="1" stop-color="#E0E2E5"/></linearGradient><linearGradient id="l" x1="221.004" x2="754.418" y1="179.625" y2="478.521" gradientUnits="userSpaceOnUse"><stop stop-color="#fff" stop-opacity=".24"/><stop offset="1" stop-opacity=".5"/></linearGradient><filter id="c" width="86.006" height="126.5" x="226.5" y="425.5" color-interpolation-filters="sRGB" filterUnits="userSpaceOnUse"><feFlood flood-opacity="0" result="BackgroundImageFix"/><feBlend in="SourceGraphic" in2="BackgroundImageFix" result="shape"/><feColorMatrix in="SourceAlpha" result="hardAlpha" values="0 0 0 0 0 0 0 0 0 0 0 0 0 0 0 0 0 0 127 0"/><feOffset/><feGaussianBlur stdDeviation="2"/><feComposite in2="hardAlpha" k2="-1" k3="1" operator="arithmetic"/><feColorMatrix values="0 0 0 0 0 0 0 0 0 0 0 0 0 0 0 0 0 0 0.08 0"/><feBlend in2="shape" result="effect1_innerShadow_23745_11700"/></filter><filter id="e" width="86.006" height="126.5" x="770.998" y="425.5" color-interpolation-filters="sRGB" filterUnits="userSpaceOnUse"><feFlood flood-opacity="0" result="BackgroundImageFix"/><feBlend in="SourceGraphic" in2="BackgroundImageFix" result="shape"/><feColorMatrix in="SourceAlpha" result="hardAlpha" values="0 0 0 0 0 0 0 0 0 0 0 0 0 0 0 0 0 0 127 0"/><feOffset/><feGaussianBlur stdDeviation="2"/><feComposite in2="hardAlpha" k2="-1" k3="1" operator="arithmetic"/><feColorMatrix values="0 0 0 0 0 0 0 0 0 0 0 0 0 0 0 0 0 0 0.08 0"/><feBlend in2="shape" result="effect1_innerShadow_23745_11700"/></filter><filter id="f" width="660" height="102" x="210" y="444" color-interpolation-filters="sRGB" filterUnits="userSpaceOnUse"><feFlood flood-opacity="0" result="BackgroundImageFix"/><feBlend in="SourceGraphic" in2="BackgroundImageFix" result="shape"/><feColorMatrix in="SourceAlpha" result="hardAlpha" values="0 0 0 0 0 0 0 0 0 0 0 0 0 0 0 0 0 0 127 0"/><feOffset/><feGaussianBlur stdDeviation="2"/><feComposite in2="hardAlpha" k2="-1" k3="1" operator="arithmetic"/><feColorMatrix values="0 0 0 0 0 0 0 0 0 0 0 0 0 0 0 0 0 0 0.08 0"/><feBlend in2="shape" result="effect1_innerShadow_23745_11700"/><feColorMatrix in="SourceAlpha" result="hardAlpha" values="0 0 0 0 0 0 0 0 0 0 0 0 0 0 0 0 0 0 127 0"/><feOffset/><feGaussianBlur stdDeviation="2"/><feComposite in2="hardAlpha" k2="-1" k3="1" operator="arithmetic"/><feColorMatrix values="0 0 0 0 0 0 0 0 0 0 0 0 0 0 0 0 0 0 0.04 0"/><feBlend in2="effect1_innerShadow_23745_11700" result="effect2_innerShadow_23745_11700"/><feColorMatrix in="SourceAlpha" result="hardAlpha" values="0 0 0 0 0 0 0 0 0 0 0 0 0 0 0 0 0 0 127 0"/><feOffset/><feGaussianBlur stdDeviation="2"/><feComposite in2="hardAlpha" k2="-1" k3="1" operator="arithmetic"/><feColorMatrix values="0 0 0 0 0 0 0 0 0 0 0 0 0 0 0 0 0 0 0.08 0"/><feBlend in2="effect2_innerShadow_23745_11700" result="effect3_innerShadow_23745_11700"/><feColorMatrix in="SourceAlpha" result="hardAlpha" values="0 0 0 0 0 0 0 0 0 0 0 0 0 0 0 0 0 0 127 0"/><feOffset/><feGaussianBlur stdDeviation="2"/><feComposite in2="hardAlpha" k2="-1" k3="1" operator="arithmetic"/><feColorMatrix values="0 0 0 0 0 0 0 0 0 0 0 0 0 0 0 0 0 0 0.04 0"/><feBlend in2="effect3_innerShadow_23745_11700" result="effect4_innerShadow_23745_11700"/></filter><filter id="k" width="660" height="423.5" x="210" y="24" color-interpolation-filters="sRGB" filterUnits="userSpaceOnUse"><feFlood flood-opacity="0" result="BackgroundImageFix"/><feBlend in="SourceGraphic" in2="BackgroundImageFix" result="shape"/><feColorMatrix in="SourceAlpha" result="hardAlpha" values="0 0 0 0 0 0 0 0 0 0 0 0 0 0 0 0 0 0 127 0"/><feOffset/><feGaussianBlur stdDeviation="2"/><feComposite in2="hardAlpha" k2="-1" k3="1" operator="arithmetic"/><feColorMatrix values="0 0 0 0 1 0 0 0 0 1 0 0 0 0 1 0 0 0 0.6 0"/><feBlend in2="shape" result="effect1_innerShadow_23745_11700"/></filter><clipPath id="a"><path fill="#fff" d="M0 0h1080v576H0z"/></clipPath></defs></svg>