<svg xmlns="http://www.w3.org/2000/svg" width="172" height="92" fill="none" viewBox="0 0 172 92"><g clip-path="url(#a)"><path fill="#000" fill-rule="evenodd" d="M12.387 74.046a1 1 0 0 1 1-1h145.226a1 1 0 0 1 1 1v3.635c0 .57-.449 1.025-1.018 1-7.15-.302-50.212-2.085-72.595-2.085-22.384 0-65.445 1.783-72.596 2.086-.568.024-1.017-.432-1.017-1z" clip-rule="evenodd"/><path fill="#E0E0E0" fill-rule="evenodd" d="M9.555 17.433c0-2.23 1.797-4.03 4.028-4.002 12.611.166 51.725.656 72.416.656 20.692 0 59.805-.49 72.416-.656 2.231-.029 4.029 1.771 4.029 4.002v55.665c0 2.274-1.866 4.092-4.138 4.002-12.721-.5-51.642-1.963-72.307-1.963S26.413 76.6 13.692 77.1c-2.272.09-4.137-1.728-4.137-4.002z" clip-rule="evenodd"/><g filter="url(#b)"><path fill="url(#c)" fill-rule="evenodd" d="M9.555 17.433c0-2.23 1.797-4.03 4.028-4.002 12.611.166 51.725.656 72.416.656 20.692 0 59.805-.49 72.416-.656 2.231-.029 4.029 1.771 4.029 4.002v55.665c0 2.274-1.866 4.092-4.138 4.002-12.721-.5-51.642-1.963-72.307-1.963S26.413 76.6 13.692 77.1c-2.272.09-4.137-1.728-4.137-4.002z" clip-rule="evenodd"/></g><mask id="d" width="154" height="65" x="9" y="13" maskUnits="userSpaceOnUse" style="mask-type:luminance"><path fill="#fff" fill-rule="evenodd" d="M9.555 17.433c0-2.23 1.798-4.031 4.028-4.001 12.612.166 51.725.66 72.416.66s59.804-.494 72.416-.66c2.231-.03 4.029 1.77 4.029 4.001v56.141c0 2.275-1.867 4.093-4.139 4.003-12.723-.505-51.641-1.978-72.306-1.978s-59.583 1.473-72.305 1.978c-2.273.09-4.14-1.728-4.14-4.003z" clip-rule="evenodd"/></mask><g mask="url(#d)"><path fill="url(#e)" d="M9.555 47.491h50.963v31.235H9.555z"/><g filter="url(#f)"><path fill="url(#g)" d="M60.52 47.491h50.963v31.235H60.52z"/></g><path fill="url(#h)" d="M111.48 47.491h50.963v31.235H111.48z"/><g filter="url(#i)"><path fill="#000" fill-rule="evenodd" d="M9.555 28.065a4 4 0 0 1 4-4h144.889a4 4 0 0 1 4 4v23.02a3.997 3.997 0 0 1-4.172 4.002c-9.779-.43-34.32-1.462-47.066-1.577-8.354-.076-16.852.002-25.207.002-8.445 0-16.747-.077-25.192 0-12.679.116-37.287 1.147-47.082 1.576a3.996 3.996 0 0 1-4.17-4.002z" clip-rule="evenodd"/></g><path fill="#222" d="M59.809 50.78a1 1 0 0 1-.971.998l-46.84 1.362a1 1 0 0 1-1.03-1V24.066h48.84zm100.83 1.36a1 1 0 0 1-1.03 1l-46.839-1.362a1 1 0 0 1-.971-.999V24.065h48.84zm-50.256-1.39a1 1 0 0 1-1 1h-46.84a1 1 0 0 1-1-1V24.065h48.84z"/><path fill="url(#j)" d="M59.809 50.78a1 1 0 0 1-.971.998l-46.84 1.362a1 1 0 0 1-1.03-1V24.066h48.84zm100.83 1.36a1 1 0 0 1-1.03 1l-46.839-1.362a1 1 0 0 1-.971-.999V24.065h48.84zm-50.256-1.39a1 1 0 0 1-1 1h-46.84a1 1 0 0 1-1-1V24.065h48.84z"/></g><path fill="#EEE" fill-rule="evenodd" d="M10.97 17.88a2.98 2.98 0 0 1 3.023-3.002c11.254.168 51.158.743 72.006.743 20.849 0 60.753-.575 72.007-.743a2.98 2.98 0 0 1 3.022 3.001v3.36s-50.556.472-75.028.472-75.03-.472-75.03-.472z" clip-rule="evenodd"/><rect width="3.331" height="1.21" x="82.918" y="22.395" fill="#000" stroke="#BABABA" stroke-width=".5" rx=".605"/></g><defs><linearGradient id="c" x1="74.002" x2="74.002" y1="64.997" y2="74.999" gradientUnits="userSpaceOnUse"><stop stop-opacity=".01"/><stop offset="1" stop-opacity=".04"/></linearGradient><linearGradient id="e" x1="57.434" x2="7.665" y1="47.491" y2="57.317" gradientUnits="userSpaceOnUse"><stop stop-opacity=".01"/><stop offset="1" stop-opacity=".01"/></linearGradient><linearGradient id="g" x1="111.482" x2="60.52" y1="47.491" y2="47.491" gradientUnits="userSpaceOnUse"><stop stop-opacity=".02"/><stop offset=".491" stop-opacity=".01"/><stop offset="1" stop-opacity=".02"/></linearGradient><linearGradient id="h" x1="109.568" x2="160.061" y1="78.725" y2="84.909" gradientUnits="userSpaceOnUse"><stop stop-opacity=".01"/><stop offset="1" stop-opacity=".01"/></linearGradient><linearGradient id="j" x1="-83.57" x2="-81.539" y1="5.723" y2="64.536" gradientUnits="userSpaceOnUse"><stop stop-color="#fff" stop-opacity=".24"/><stop offset="1" stop-opacity=".5"/></linearGradient><filter id="b" width="152.889" height="63.672" x="9.555" y="13.431" color-interpolation-filters="sRGB" filterUnits="userSpaceOnUse"><feFlood flood-opacity="0" result="BackgroundImageFix"/><feBlend in="SourceGraphic" in2="BackgroundImageFix" result="shape"/><feColorMatrix in="SourceAlpha" result="hardAlpha" values="0 0 0 0 0 0 0 0 0 0 0 0 0 0 0 0 0 0 127 0"/><feOffset dy="-.25"/><feComposite in2="hardAlpha" k2="-1" k3="1" operator="arithmetic"/><feColorMatrix values="0 0 0 0 0 0 0 0 0 0 0 0 0 0 0 0 0 0 0.04 0"/><feBlend in2="shape" result="effect1_innerShadow_30148_7106"/><feColorMatrix in="SourceAlpha" result="hardAlpha" values="0 0 0 0 0 0 0 0 0 0 0 0 0 0 0 0 0 0 127 0"/><feOffset dx="-.25"/><feComposite in2="hardAlpha" k2="-1" k3="1" operator="arithmetic"/><feColorMatrix values="0 0 0 0 0 0 0 0 0 0 0 0 0 0 0 0 0 0 0.04 0"/><feBlend in2="effect1_innerShadow_30148_7106" result="effect2_innerShadow_30148_7106"/><feColorMatrix in="SourceAlpha" result="hardAlpha" values="0 0 0 0 0 0 0 0 0 0 0 0 0 0 0 0 0 0 127 0"/><feOffset dx=".25"/><feComposite in2="hardAlpha" k2="-1" k3="1" operator="arithmetic"/><feColorMatrix values="0 0 0 0 0 0 0 0 0 0 0 0 0 0 0 0 0 0 0.04 0"/><feBlend in2="effect2_innerShadow_30148_7106" result="effect3_innerShadow_30148_7106"/><feColorMatrix in="SourceAlpha" result="hardAlpha" values="0 0 0 0 0 0 0 0 0 0 0 0 0 0 0 0 0 0 127 0"/><feOffset dy=".25"/><feComposite in2="hardAlpha" k2="-1" k3="1" operator="arithmetic"/><feColorMatrix values="0 0 0 0 1 0 0 0 0 1 0 0 0 0 1 0 0 0 0.24 0"/><feBlend in2="effect3_innerShadow_30148_7106" result="effect4_innerShadow_30148_7106"/></filter><filter id="f" width="50.963" height="31.234" x="60.52" y="47.491" color-interpolation-filters="sRGB" filterUnits="userSpaceOnUse"><feFlood flood-opacity="0" result="BackgroundImageFix"/><feBlend in="SourceGraphic" in2="BackgroundImageFix" result="shape"/><feColorMatrix in="SourceAlpha" result="hardAlpha" values="0 0 0 0 0 0 0 0 0 0 0 0 0 0 0 0 0 0 127 0"/><feOffset dx="-.5"/><feComposite in2="hardAlpha" k2="-1" k3="1" operator="arithmetic"/><feColorMatrix values="0 0 0 0 1 0 0 0 0 1 0 0 0 0 1 0 0 0 0.08 0"/><feBlend in2="shape" result="effect1_innerShadow_30148_7106"/><feColorMatrix in="SourceAlpha" result="hardAlpha" values="0 0 0 0 0 0 0 0 0 0 0 0 0 0 0 0 0 0 127 0"/><feOffset dx=".5"/><feComposite in2="hardAlpha" k2="-1" k3="1" operator="arithmetic"/><feColorMatrix values="0 0 0 0 1 0 0 0 0 1 0 0 0 0 1 0 0 0 0.08 0"/><feBlend in2="effect1_innerShadow_30148_7106" result="effect2_innerShadow_30148_7106"/></filter><filter id="i" width="152.889" height="31.277" x="9.555" y="23.815" color-interpolation-filters="sRGB" filterUnits="userSpaceOnUse"><feFlood flood-opacity="0" result="BackgroundImageFix"/><feColorMatrix in="SourceAlpha" result="hardAlpha" values="0 0 0 0 0 0 0 0 0 0 0 0 0 0 0 0 0 0 127 0"/><feOffset dy="-.25"/><feColorMatrix values="0 0 0 0 0 0 0 0 0 0 0 0 0 0 0 0 0 0 0.08 0"/><feBlend in2="BackgroundImageFix" result="effect1_dropShadow_30148_7106"/><feBlend in="SourceGraphic" in2="effect1_dropShadow_30148_7106" result="shape"/></filter><clipPath id="a"><path fill="#fff" d="M0 0h172v92H0z"/></clipPath></defs></svg>