<svg xmlns="http://www.w3.org/2000/svg" width="1080" height="576" fill="none" viewBox="0 0 1080 576"><g clip-path="url(#a)"><path fill="url(#b)" d="M300 30h720v420H300z"/><path fill="url(#c)" fill-rule="evenodd" d="M998.508 51.539 1020 30v420l-21.492-21.538z" clip-rule="evenodd" opacity=".2"/><path fill="url(#d)" fill-rule="evenodd" d="M321.492 51.539 300 30v420l21.492-21.538z" clip-rule="evenodd" opacity=".6"/><path stroke="#000" stroke-opacity=".24" stroke-width=".527" d="M300.264 30.264h719.473v419.473H300.264z"/><path stroke="url(#e)" stroke-width=".527" d="M300.264 30.264h719.473v419.473H300.264z"/><path fill="#222" d="M321.492 51.539h677.015v376.923H321.492z"/><path fill="url(#f)" d="M321.492 51.539h677.015v376.923H321.492z"/><path stroke="#fff" stroke-opacity=".24" stroke-width=".557" d="M321.492 51.539h677.015v376.923H321.492z"/><path fill="url(#g)" d="M300 30h720v420H300z"/><g filter="url(#h)"><ellipse cx="292.119" cy="544.428" fill="#B9BABF" rx="238.119" ry=".981"/></g><g filter="url(#i)"><rect width="385.863" height="267.562" x="98.4" y="270" fill="url(#j)" rx="2.483"/></g><g filter="url(#k)"><rect width="381.934" height="263.639" x="100.369" y="271.961" fill="#000" rx="2.191"/></g><rect width="381.392" height="263.097" x="100.64" y="272.232" stroke="#000" stroke-width=".542" rx="1.92"/><g filter="url(#l)"><path fill="url(#m)" d="m101.553 520.695 379.57 8.511a3.65 3.65 0 0 1-3.651 3.651H291.335v-.002H105.204a3.65 3.65 0 0 1-3.651-3.651z"/></g><path fill="#070B0C" stroke="#141416" stroke-width=".542" d="M291.327 279.294a1.3 1.3 0 0 1 1.302 1.299 1.301 1.301 0 0 1-2.603 0 1.3 1.3 0 0 1 1.301-1.299Z"/><ellipse cx="291.319" cy="280.981" fill="#232428" rx=".392" ry=".39"/><g opacity=".6"><rect width="381.934" height="263.639" x="98.4" y="270" fill="#222" rx="2.191"/><rect width="381.934" height="263.639" x="98.4" y="270" fill="url(#n)" rx="2.191"/></g><rect width="362.68" height="226.76" x="109.793" y="288.047" fill="#222" rx=".073"/><rect width="362.68" height="226.76" x="109.793" y="288.047" fill="url(#o)" rx=".073"/><mask id="p" width="364" height="227" x="109" y="288" maskUnits="userSpaceOnUse" style="mask-type:luminance"><rect width="362.68" height="226.76" x="109.793" y="288.047" fill="#fff" rx=".073"/><rect width="362.68" height="226.76" x="109.793" y="288.047" stroke="#fff" rx=".073"/></mask><path fill="url(#q)" d="M528.666 537.17s-14.17 9.023-99.578 8.827c-64.056-.147-109.515-.073-128.241-.027l-9.514.027c-.153-.001-52.472-.196-137.755 0C68.17 546.193 54 537.17 54 537.17z"/><path fill="#E4E5E9" stroke="#D7D8DB" stroke-width=".542" d="M365.408 541.362c.801 0 1.519.065 2.03.167.232.047.41.1.531.151a3 3 0 0 1-.531.151c-.511.102-1.229.167-2.03.167s-1.52-.065-2.031-.167a3 3 0 0 1-.53-.151 3 3 0 0 1 .53-.151c.511-.102 1.23-.167 2.031-.167Z"/><ellipse cx="365.404" cy="541.771" fill="#C5C7CD" rx=".587" ry=".289"/><path fill="#E4E5E9" stroke="#D7D8DB" stroke-width=".542" d="M217.658 541.362c.801 0 1.519.065 2.03.167.232.047.41.1.531.151a3 3 0 0 1-.531.151c-.511.102-1.229.167-2.03.167s-1.52-.065-2.031-.167a3 3 0 0 1-.53-.151 3 3 0 0 1 .53-.151c.511-.102 1.23-.167 2.031-.167Z"/><ellipse cx="217.654" cy="541.771" fill="#C5C7CD" rx=".587" ry=".289"/><path fill="url(#r)" fill-rule="evenodd" d="M54 528.612c0-.04.033-.073.073-.073h198.514l1.179.392h75.682l1.572-.392h197.574c.04 0 .073.033.073.073v8.558H54z" clip-rule="evenodd"/><g filter="url(#s)"><path fill="url(#t)" fill-rule="evenodd" d="M324.719 534.424h-66.007c-3.343 0-6.077-2.602-6.278-5.885l1.571.392h75.42l1.572-.392c-.201 3.284-2.934 5.885-6.278 5.885" clip-rule="evenodd"/></g><path fill="#fff" fill-opacity=".24" d="M655.531 206.793h-1.062v-10.305h-3.781v-.968h8.625v.968h-3.782zm10.328 0h-1.062l-4.219-11.273h1.125l3.57 9.875h.102l3.57-9.875h1.125z"/></g><defs><linearGradient id="b" x1="300" x2="983.21" y1="229.27" y2="229.27" gradientUnits="userSpaceOnUse"><stop stop-color="#9A9EA1"/><stop offset="1" stop-color="#D3D3D3"/></linearGradient><linearGradient id="c" x1="998.508" x2="998.508" y1="30" y2="450" gradientUnits="userSpaceOnUse"><stop stop-color="#666"/><stop offset=".294" stop-color="#A0A0A2"/><stop offset="1" stop-color="#696969"/></linearGradient><linearGradient id="d" x1="310.746" x2="310.746" y1="30" y2="450" gradientUnits="userSpaceOnUse"><stop stop-color="#AAABAD"/><stop offset=".157" stop-color="#DCDCDC"/><stop offset="1" stop-color="#AAABAD"/></linearGradient><linearGradient id="e" x1="-60" x2="305.596" y1="240" y2="866.736" gradientUnits="userSpaceOnUse"><stop stop-color="#fff" stop-opacity=".4"/><stop offset=".542" stop-color="#fff" stop-opacity=".01"/><stop offset="1" stop-color="#fff" stop-opacity=".4"/></linearGradient><linearGradient id="f" x1="-17.015" x2="303.374" y1="240.001" y2="815.472" gradientUnits="userSpaceOnUse"><stop stop-color="#fff" stop-opacity=".16"/><stop offset="1" stop-opacity=".5"/></linearGradient><linearGradient id="g" x1="-60" x2="305.596" y1="240" y2="866.736" gradientUnits="userSpaceOnUse"><stop stop-color="#fff" stop-opacity=".08"/><stop offset="1" stop-color="#fff" stop-opacity=".01"/></linearGradient><linearGradient id="j" x1="105.444" x2="105.444" y1="270" y2="527.794" gradientUnits="userSpaceOnUse"><stop stop-color="#4B4D4C"/><stop offset="1" stop-color="#636466"/></linearGradient><linearGradient id="m" x1="168.471" x2="168.471" y1="524.984" y2="532.857" gradientUnits="userSpaceOnUse"><stop stop-color="#1D1D1D"/><stop offset="1" stop-color="#0D0D0D"/></linearGradient><linearGradient id="n" x1="-92.567" x2="153.943" y1="401.819" y2="758.938" gradientUnits="userSpaceOnUse"><stop stop-color="#fff" stop-opacity=".24"/><stop offset="1" stop-opacity=".5"/></linearGradient><linearGradient id="o" x1="-71.547" x2="132.316" y1="401.427" y2="727.485" gradientUnits="userSpaceOnUse"><stop stop-color="#fff" stop-opacity=".24"/><stop offset="1" stop-opacity=".5"/></linearGradient><linearGradient id="q" x1="528.666" x2="528.666" y1="546" y2="537.17" gradientUnits="userSpaceOnUse"><stop stop-color="#F6F6F6"/><stop offset=".147" stop-color="#F8F8F9"/><stop offset=".445" stop-color="#E7E7E8"/><stop offset=".826" stop-color="#C6C7CD"/><stop offset="1" stop-color="#B8B9BD"/></linearGradient><linearGradient id="r" x1="54" x2="528.667" y1="537.17" y2="537.17" gradientUnits="userSpaceOnUse"><stop stop-color="#27282C"/><stop offset=".008" stop-color="#ABACB0"/><stop offset=".025" stop-color="#3E3F43"/><stop offset=".132" stop-color="#88898D"/><stop offset=".506" stop-color="#A2A3A7"/><stop offset=".876" stop-color="#88898D"/><stop offset=".975" stop-color="#3E3F43"/><stop offset=".992" stop-color="#ABACB0"/><stop offset="1" stop-color="#27282C"/></linearGradient><linearGradient id="t" x1="252.434" x2="330.997" y1="534.424" y2="534.424" gradientUnits="userSpaceOnUse"><stop stop-color="#4E5457"/><stop offset=".151" stop-color="#83888B"/><stop offset=".506" stop-color="#9D9FA4"/><stop offset=".85" stop-color="#83888B"/><stop offset="1" stop-color="#4E5457"/></linearGradient><filter id="h" width="478.144" height="3.866" x="53.047" y="542.495" color-interpolation-filters="sRGB" filterUnits="userSpaceOnUse"><feFlood flood-opacity="0" result="BackgroundImageFix"/><feBlend in="SourceGraphic" in2="BackgroundImageFix" result="shape"/><feGaussianBlur result="effect1_foregroundBlur_23746_2135" stdDeviation=".476"/></filter><filter id="i" width="385.863" height="267.562" x="98.4" y="270" color-interpolation-filters="sRGB" filterUnits="userSpaceOnUse"><feFlood flood-opacity="0" result="BackgroundImageFix"/><feBlend in="SourceGraphic" in2="BackgroundImageFix" result="shape"/><feColorMatrix in="SourceAlpha" result="hardAlpha" values="0 0 0 0 0 0 0 0 0 0 0 0 0 0 0 0 0 0 127 0"/><feOffset/><feGaussianBlur stdDeviation=".5"/><feComposite in2="hardAlpha" k2="-1" k3="1" operator="arithmetic"/><feColorMatrix values="0 0 0 0 0.257004 0 0 0 0 0.261685 0 0 0 0 0.271046 0 0 0 1 0"/><feBlend in2="shape" result="effect1_innerShadow_23746_2135"/></filter><filter id="k" width="381.934" height="263.639" x="100.369" y="271.961" color-interpolation-filters="sRGB" filterUnits="userSpaceOnUse"><feFlood flood-opacity="0" result="BackgroundImageFix"/><feBlend in="SourceGraphic" in2="BackgroundImageFix" result="shape"/><feColorMatrix in="SourceAlpha" result="hardAlpha" values="0 0 0 0 0 0 0 0 0 0 0 0 0 0 0 0 0 0 127 0"/><feOffset/><feGaussianBlur stdDeviation=".5"/><feComposite in2="hardAlpha" k2="-1" k3="1" operator="arithmetic"/><feColorMatrix values="0 0 0 0 0.708679 0 0 0 0 0.708679 0 0 0 0 0.708679 0 0 0 1 0"/><feBlend in2="shape" result="effect1_innerShadow_23746_2135"/></filter><filter id="l" width="379.57" height="12.162" x="101.553" y="520.695" color-interpolation-filters="sRGB" filterUnits="userSpaceOnUse"><feFlood flood-opacity="0" result="BackgroundImageFix"/><feBlend in="SourceGraphic" in2="BackgroundImageFix" result="shape"/><feColorMatrix in="SourceAlpha" result="hardAlpha" values="0 0 0 0 0 0 0 0 0 0 0 0 0 0 0 0 0 0 127 0"/><feOffset/><feGaussianBlur stdDeviation=".5"/><feComposite in2="hardAlpha" k2="-1" k3="1" operator="arithmetic"/><feColorMatrix values="0 0 0 0 1 0 0 0 0 1 0 0 0 0 1 0 0 0 0.03 0"/><feBlend in2="shape" result="effect1_innerShadow_23746_2135"/></filter><filter id="s" width="80.563" height="7.885" x="251.434" y="527.539" color-interpolation-filters="sRGB" filterUnits="userSpaceOnUse"><feFlood flood-opacity="0" result="BackgroundImageFix"/><feColorMatrix in="SourceAlpha" result="hardAlpha" values="0 0 0 0 0 0 0 0 0 0 0 0 0 0 0 0 0 0 127 0"/><feOffset/><feGaussianBlur stdDeviation=".5"/><feColorMatrix values="0 0 0 0 1 0 0 0 0 1 0 0 0 0 1 0 0 0 0.242584 0"/><feBlend in2="BackgroundImageFix" result="effect1_dropShadow_23746_2135"/><feBlend in="SourceGraphic" in2="effect1_dropShadow_23746_2135" result="shape"/><feColorMatrix in="SourceAlpha" result="hardAlpha" values="0 0 0 0 0 0 0 0 0 0 0 0 0 0 0 0 0 0 127 0"/><feOffset/><feGaussianBlur stdDeviation=".5"/><feComposite in2="hardAlpha" k2="-1" k3="1" operator="arithmetic"/><feColorMatrix values="0 0 0 0 0 0 0 0 0 0 0 0 0 0 0 0 0 0 0.434471 0"/><feBlend in2="shape" result="effect2_innerShadow_23746_2135"/></filter><clipPath id="a"><path fill="#fff" d="M0 0h1080v576H0z"/></clipPath></defs></svg>