<svg xmlns="http://www.w3.org/2000/svg" width="1080" height="576" fill="none" viewBox="0 0 1080 576"><g clip-path="url(#a)"><mask id="c" fill="#fff"><path d="M936 114a6 6 0 0 1 6 6v336a6 6 0 0 1-6 6H144a6 6 0 0 1-6-6V120a6 6 0 0 1 6-6zM417.535 264.801c-8.483 0-15.359 6.877-15.359 15.36v131.68c0 8.483 6.876 15.36 15.359 15.36h244.938c8.483 0 15.36-6.877 15.36-15.36v-131.68c0-8.483-6.877-15.36-15.36-15.36z"/></mask><path fill="url(#b)" d="M936 114a6 6 0 0 1 6 6v336a6 6 0 0 1-6 6H144a6 6 0 0 1-6-6V120a6 6 0 0 1 6-6zM417.535 264.801c-8.483 0-15.359 6.877-15.359 15.36v131.68c0 8.483 6.876 15.36 15.359 15.36h244.938c8.483 0 15.36-6.877 15.36-15.36v-131.68c0-8.483-6.877-15.36-15.36-15.36z"/><path fill="#000" fill-opacity=".4" d="M936 114v-.5zm6 6h.5zm-6 342v.5zM138 120h-.5zm279.535 144.801v-.5zm0 162.4v.5zM936 114v.5a5.5 5.5 0 0 1 5.5 5.5h1a6.5 6.5 0 0 0-6.5-6.5zm6 6h-.5v336h1V120zm0 336h-.5a5.5 5.5 0 0 1-5.5 5.5v1a6.5 6.5 0 0 0 6.5-6.5zm-6 6v-.5H144v1h792zm-792 0v-.5a5.5 5.5 0 0 1-5.5-5.5h-1a6.5 6.5 0 0 0 6.5 6.5zm-6-6h.5V120h-1v336zm0-336h.5a5.5 5.5 0 0 1 5.5-5.5v-1a6.5 6.5 0 0 0-6.5 6.5zm6-6v.5h792v-1H144zm273.535 150.801v-.5c-8.759 0-15.859 7.101-15.859 15.86h1c0-8.207 6.652-14.86 14.859-14.86zm-15.359 15.36h-.5v131.68h1v-131.68zm0 131.68h-.5c0 8.759 7.1 15.86 15.859 15.86v-1c-8.207 0-14.859-6.653-14.859-14.86zm15.359 15.36v.5h244.938v-1H417.535zm244.938 0v.5c8.759 0 15.86-7.101 15.86-15.86h-1c0 8.207-6.653 14.86-14.86 14.86zm15.36-15.36h.5v-131.68h-1v131.68zm0-131.68h.5c0-8.759-7.101-15.86-15.86-15.86v1c8.207 0 14.86 6.653 14.86 14.86zm-15.36-15.36v-.5H417.535v1h244.938z" mask="url(#c)"/><path fill="#323232" fill-rule="evenodd" d="M482.566 253.201h114.858v104.4H482.566z" clip-rule="evenodd"/><path stroke="#fff" stroke-opacity=".8" stroke-width=".5" d="M597.674 252.951v104.901H482.316V252.951z"/><g stroke-width="1.92" filter="url(#d)"><rect width="296.709" height="183.68" x="391.651" y="254.161" stroke="url(#e)" rx="14.4"/><rect width="296.709" height="183.68" x="391.651" y="254.161" stroke="#fff" stroke-opacity=".8" rx="14.4"/></g><g filter="url(#f)"><ellipse cx="539.996" cy="357.6" fill="#323232" rx="68.914" ry="69.6"/><path stroke="#fff" stroke-opacity=".6" stroke-width=".5" d="M539.996 287.75c38.201 0 69.164 31.275 69.164 69.85s-30.963 69.85-69.164 69.85-69.164-31.276-69.164-69.85c0-38.575 30.964-69.85 69.164-69.85Z"/></g><ellipse cx="540.005" cy="357.601" fill="#00222C" rx="45.943" ry="46.4"/><path stroke="#fff" stroke-opacity=".16" stroke-width=".5" d="M540.005 311.451c25.233 0 45.693 20.66 45.693 46.151 0 25.49-20.46 46.149-45.693 46.149s-45.692-20.659-45.693-46.149 20.46-46.151 45.693-46.151Z"/><ellipse cx="540.003" cy="357.6" fill="#000" rx="22.971" ry="23.2"/><path stroke="#fff" stroke-opacity=".231" stroke-width=".5" d="M540.003 334.15c12.827.001 23.221 10.502 23.221 23.451s-10.394 23.45-23.221 23.45-23.222-10.502-23.222-23.45c0-12.949 10.395-23.451 23.222-23.451Z"/><ellipse cx="884.569" cy="404.001" fill="#000" fill-opacity=".08" rx="22.971" ry="23.2"/><ellipse cx="884.568" cy="404.002" fill="#000" fill-opacity=".08" rx="11.486" ry="11.6"/><path stroke="#fff" stroke-opacity=".4" stroke-width=".5" d="M884.567 392.152c6.484 0 11.737 5.308 11.737 11.85s-5.253 11.851-11.737 11.851c-6.483-.001-11.735-5.309-11.735-11.851s5.252-11.849 11.735-11.85Z"/><path fill="#908E8E" fill-rule="evenodd" d="M524.705 206.508h3.558V191.2h-3.558zm32.321-10.909c-.128-.047-1.286-.835-3-.835-2.315 0-3.901 1.762-3.901 4.128 0 2.273 1.543 4.082 3.901 4.082 1.671 0 2.872-.742 3-.835v4.082c-.429.185-1.672.557-3.258.557-3.986 0-7.501-3.016-7.501-7.886 0-4.592 3.172-7.932 7.501-7.932 1.672 0 2.915.417 3.258.557zm-37.228 0c-.129-.047-1.286-.835-3.001-.835-2.314 0-3.9 1.762-3.9 4.128 0 2.273 1.543 4.082 3.9 4.082 1.672 0 2.872-.742 3.001-.835v4.082c-.429.185-1.629.557-3.215.557-4.029 0-7.544-3.016-7.544-7.886 0-4.592 3.172-7.932 7.544-7.932 1.672 0 2.915.417 3.215.557zm48.449-.772c-2.1 0-3.686 1.856-3.686 4.036 0 2.226 1.586 4.035 3.686 4.035 2.143 0 3.686-1.809 3.686-4.035 0-2.18-1.543-4.036-3.686-4.036m7.511 4.038c0 4.36-3.129 7.932-7.501 7.932-4.329 0-7.458-3.572-7.458-7.932s3.129-7.886 7.458-7.886c4.372 0 7.501 3.525 7.501 7.886m-33.945-4.171c-.043 0-1.543-.464-2.786-.464-1.458 0-2.229.51-2.229 1.253 0 .927 1.071 1.252 1.671 1.438l.943.371c2.358.788 3.387 2.504 3.387 4.36 0 3.85-3.087 5.149-5.83 5.149-1.929 0-3.686-.418-3.901-.464v-3.479c.343.093 1.844.557 3.387.557 1.8 0 2.614-.557 2.614-1.438 0-.743-.728-1.206-1.628-1.485-.172-.093-.515-.185-.729-.278-2.015-.696-3.686-1.948-3.686-4.5 0-2.829 2.014-4.777 5.315-4.777 1.714 0 3.343.464 3.472.51zm-36.542-19.91c0-1.067-.858-1.902-1.801-1.902-.986 0-1.757.835-1.757 1.902v3.989c0 1.067.771 1.948 1.757 1.948.943 0 1.801-.881 1.801-1.948zm9.714-5.278c0-1.021-.814-1.902-1.8-1.902-.943 0-1.757.881-1.757 1.902v9.277c0 1.067.814 1.948 1.757 1.948.986 0 1.8-.881 1.8-1.948zm9.727-7.204c0-1.067-.815-1.902-1.801-1.902-.943 0-1.757.835-1.757 1.902v20.317c0 1.021.814 1.902 1.757 1.902.986 0 1.801-.881 1.801-1.902zm9.715 7.204c0-1.021-.814-1.902-1.757-1.902-.986 0-1.8.881-1.8 1.902v9.277c0 1.067.814 1.948 1.8 1.948.943 0 1.757-.881 1.757-1.948zm9.727 5.28c0-1.067-.815-1.902-1.8-1.902-.944 0-1.758.835-1.758 1.902v3.989c0 1.067.814 1.948 1.758 1.948.985 0 1.8-.881 1.8-1.948zm9.715-5.28c0-1.021-.815-1.902-1.801-1.902-.943 0-1.757.881-1.757 1.902v9.277c0 1.067.814 1.948 1.757 1.948.986 0 1.801-.881 1.801-1.948zm9.736-7.204c0-1.067-.771-1.902-1.757-1.902s-1.8.835-1.8 1.902v20.317c0 1.021.814 1.902 1.8 1.902s1.757-.881 1.757-1.902zm9.752 7.204c0-1.021-.814-1.902-1.8-1.902s-1.758.881-1.758 1.902v9.277c0 1.067.772 1.948 1.758 1.948s1.8-.881 1.8-1.948zm9.713 5.278c0-1.067-.815-1.902-1.758-1.902-.986 0-1.8.835-1.8 1.902v3.989c0 1.067.814 1.948 1.8 1.948.943 0 1.758-.881 1.758-1.948z" clip-rule="evenodd"/></g><defs><linearGradient id="b" x1="942" x2="942" y1="462" y2="114" gradientUnits="userSpaceOnUse"><stop stop-color="#B9B9B9"/><stop offset="1" stop-color="#F2F2F2"/></linearGradient><linearGradient id="e" x1="390.691" x2="390.691" y1="253.201" y2="438.801" gradientUnits="userSpaceOnUse"><stop stop-color="#F4F4F4"/><stop offset="1" stop-color="#EBEBEB"/></linearGradient><filter id="d" width="298.629" height="185.6" x="390.691" y="253.201" color-interpolation-filters="sRGB" filterUnits="userSpaceOnUse"><feFlood flood-opacity="0" result="BackgroundImageFix"/><feBlend in="SourceGraphic" in2="BackgroundImageFix" result="shape"/><feColorMatrix in="SourceAlpha" result="hardAlpha" values="0 0 0 0 0 0 0 0 0 0 0 0 0 0 0 0 0 0 127 0"/><feOffset dy="-4"/><feComposite in2="hardAlpha" k2="-1" k3="1" operator="arithmetic"/><feColorMatrix values="0 0 0 0 0 0 0 0 0 0 0 0 0 0 0 0 0 0 0.5 0"/><feBlend in2="shape" result="effect1_innerShadow_23745_11698"/></filter><filter id="f" width="138.828" height="142.199" x="470.582" y="285.5" color-interpolation-filters="sRGB" filterUnits="userSpaceOnUse"><feFlood flood-opacity="0" result="BackgroundImageFix"/><feColorMatrix in="SourceAlpha" result="hardAlpha" values="0 0 0 0 0 0 0 0 0 0 0 0 0 0 0 0 0 0 127 0"/><feOffset dy="-2"/><feColorMatrix values="0 0 0 0 1 0 0 0 0 1 0 0 0 0 1 0 0 0 0.8 0"/><feBlend in2="BackgroundImageFix" result="effect1_dropShadow_23745_11698"/><feBlend in="SourceGraphic" in2="effect1_dropShadow_23745_11698" result="shape"/></filter><clipPath id="a"><path fill="#fff" d="M0 0h1080v576H0z"/></clipPath></defs></svg>