<svg xmlns="http://www.w3.org/2000/svg" width="1080" height="576" fill="none" viewBox="0 0 1080 576"><g clip-path="url(#a)"><mask id="c" fill="#fff"><path fill-rule="evenodd" d="M589.931 20a4.003 4.003 0 0 0-3.993 4v48c0 2.208 1.797 4 3.993 4h63.9a4.003 4.003 0 0 0 3.994-4V24c0-2.208-1.797-4-3.994-4zm63.896 64h-63.9c-6.606 0-11.982-5.384-11.982-12V24c0-6.616 5.376-12 11.982-12h63.9c6.605 0 11.981 5.384 11.981 12v48c0 6.616-5.376 12-11.981 12" clip-rule="evenodd"/></mask><path fill="url(#b)" fill-rule="evenodd" d="M589.931 20a4.003 4.003 0 0 0-3.993 4v48c0 2.208 1.797 4 3.993 4h63.9a4.003 4.003 0 0 0 3.994-4V24c0-2.208-1.797-4-3.994-4zm63.896 64h-63.9c-6.606 0-11.982-5.384-11.982-12V24c0-6.616 5.376-12 11.982-12h63.9c6.605 0 11.981 5.384 11.981 12v48c0 6.616-5.376 12-11.981 12" clip-rule="evenodd"/><path fill="#EAEAEA" d="M589.931 20v-.5a4.503 4.503 0 0 0-4.493 4.5h1c0-1.932 1.573-3.5 3.493-3.5zm-3.993 4h-.5v48h1V24zm0 48h-.5c0 2.484 2.02 4.5 4.493 4.5v-1a3.503 3.503 0 0 1-3.493-3.5zm3.993 4v.5h63.9v-1h-63.9zm63.9 0v.5a4.504 4.504 0 0 0 4.494-4.5h-1c0 1.932-1.573 3.5-3.494 3.5zm3.994-4h.5V24h-1v48zm0-48h.5c0-2.484-2.021-4.5-4.494-4.5v1a3.503 3.503 0 0 1 3.494 3.5zm-3.994-4v-.5h-63.9v1h63.9zm-.004 64v-.5h-63.9v1h63.9zm-63.9 0v-.5c-6.329 0-11.482-5.16-11.482-11.5h-1c0 6.891 5.599 12.5 12.482 12.5zm-11.982-12h.5V24h-1v48zm0-48h.5c0-6.34 5.153-11.5 11.482-11.5v-1c-6.883 0-12.482 5.609-12.482 12.5zm11.982-12v.5h63.9v-1h-63.9zm63.9 0v.5c6.328 0 11.481 5.16 11.481 11.5h1c0-6.891-5.599-12.5-12.481-12.5zm11.981 12h-.5v48h1V24zm0 48h-.5c0 6.34-5.153 11.5-11.481 11.5v1c6.882 0 12.481-5.609 12.481-12.5z" mask="url(#c)"/><path fill="#E9E9E9" fill-rule="evenodd" d="M467.116 50a2.004 2.004 0 0 1-1.941-1.512L457.571 18h-8.866l-7.604 30.488c-.264 1.064-1.35 1.696-2.428 1.456a2.013 2.013 0 0 1-1.446-2.432L445.59 14h15.096l8.363 33.512a2.013 2.013 0 0 1-1.446 2.432q-.249.058-.487.056" clip-rule="evenodd"/><mask id="e" fill="#fff"><path fill-rule="evenodd" d="M421.193 20a4.003 4.003 0 0 0-3.994 4v48c0 2.208 1.797 4 3.994 4h63.9a4.003 4.003 0 0 0 3.994-4V24c0-2.208-1.797-4-3.994-4zm63.895 64h-63.9c-6.605 0-11.981-5.384-11.981-12V24c0-6.616 5.376-12 11.981-12h63.9c6.606 0 11.982 5.384 11.982 12v48c0 6.616-5.376 12-11.982 12" clip-rule="evenodd"/></mask><path fill="url(#d)" fill-rule="evenodd" d="M421.193 20a4.003 4.003 0 0 0-3.994 4v48c0 2.208 1.797 4 3.994 4h63.9a4.003 4.003 0 0 0 3.994-4V24c0-2.208-1.797-4-3.994-4zm63.895 64h-63.9c-6.605 0-11.981-5.384-11.981-12V24c0-6.616 5.376-12 11.981-12h63.9c6.606 0 11.982 5.384 11.982 12v48c0 6.616-5.376 12-11.982 12" clip-rule="evenodd"/><path fill="#EAEAEA" d="M421.193 20v-.5a4.504 4.504 0 0 0-4.494 4.5h1c0-1.932 1.574-3.5 3.494-3.5zm-3.994 4h-.5v48h1V24zm0 48h-.5c0 2.484 2.021 4.5 4.494 4.5v-1a3.504 3.504 0 0 1-3.494-3.5zm3.994 4v.5h63.9v-1h-63.9zm63.9 0v.5a4.504 4.504 0 0 0 4.494-4.5h-1c0 1.932-1.574 3.5-3.494 3.5zm3.994-4h.5V24h-1v48zm0-48h.5c0-2.484-2.021-4.5-4.494-4.5v1a3.504 3.504 0 0 1 3.494 3.5zm-3.994-4v-.5h-63.9v1h63.9zm-.005 64v-.5h-63.9v1h63.9zm-63.9 0v-.5c-6.329 0-11.481-5.16-11.481-11.5h-1c0 6.891 5.599 12.5 12.481 12.5zm-11.981-12h.5V24h-1v48zm0-48h.5c0-6.34 5.152-11.5 11.481-11.5v-1c-6.882 0-12.481 5.609-12.481 12.5zm11.981-12v.5h63.9v-1h-63.9zm63.9 0v.5c6.329 0 11.482 5.16 11.482 11.5h1c0-6.891-5.599-12.5-12.482-12.5zm11.982 12h-.5v48h1V24zm0 48h-.5c0 6.34-5.153 11.5-11.482 11.5v1c6.883 0 12.482-5.609 12.482-12.5z" mask="url(#e)"/><path fill="#E9E9E9" fill-rule="evenodd" d="M635.854 50a2.005 2.005 0 0 1-1.941-1.512L626.309 18h-8.866l-7.604 30.488c-.264 1.064-1.35 1.696-2.428 1.456a2.013 2.013 0 0 1-1.446-2.432L614.328 14h15.096l8.363 33.512a2.013 2.013 0 0 1-1.445 2.432c-.168.04-.328.056-.488.056" clip-rule="evenodd"/><path fill="url(#f)" fill-rule="evenodd" d="M129.647 344v184c0 8.832 7.157 16 15.975 16v8h-23.963l-7.987-8V336z" clip-rule="evenodd"/><path fill="url(#g)" fill-rule="evenodd" d="M944.37 344v184c0 8.832-7.157 16-15.975 16v8h23.962l7.988-8V336z" clip-rule="evenodd"/><path fill="url(#h)" fill-rule="evenodd" d="M952.355 308.438v219.559c0 8.84-7.157 16-15.975 16H137.63c-8.819 0-15.975-7.16-15.975-16V308.438c-9.505 5.543-15.975 15.751-15.975 27.559v192c0 17.672 14.305 32 31.95 32h798.75c17.644 0 31.95-14.328 31.95-32v-192c0-11.808-6.47-22.016-15.975-27.559" clip-rule="evenodd"/><path fill="url(#i)" fill-rule="evenodd" d="M137.625 576v-8l15.975-16h23.963v8l-15.975 16z" clip-rule="evenodd"/><path fill="#D3D3D3" fill-rule="evenodd" d="M163.928 565.656a8 8 0 0 1-5.647 2.344h-20.656v8h20.656a8 8 0 0 0 5.647-2.344L177.563 560v-8z" clip-rule="evenodd"/><path fill="url(#j)" fill-rule="evenodd" d="M936.375 576v-8L920.4 552h-23.962v8l15.975 16z" clip-rule="evenodd"/><path fill="#D3D3D3" fill-rule="evenodd" d="M910.072 565.656a8 8 0 0 0 5.647 2.344h20.656v8h-20.656a8 8 0 0 1-5.647-2.344L896.438 560v-8z" clip-rule="evenodd"/><path fill="#E0E0E0" fill-rule="evenodd" d="M661.805 71.998c0 4.416-3.571 8-7.988 8h-63.9c-4.417 0-7.987-3.584-7.987-8v-48c0-4.416 3.57-8 7.987-8h63.9c4.417 0 7.988 3.584 7.988 8zm-168.727 0c0 4.416-3.57 8-7.987 8h-63.9c-4.417 0-7.988-3.584-7.988-8v-48c0-4.416 3.571-8 7.988-8h63.9c4.417 0 7.987 3.584 7.987 8zM952.355 0h-830.7c-8.819 0-15.975 7.168-15.975 16v312c0 8.832 7.156 16 15.975 16h830.7c8.818 0 15.975-7.168 15.975-16V16c0-8.832-7.157-16-15.975-16" clip-rule="evenodd"/><path fill="#222" d="M525.028 88a4 4 0 0 1 3.994 4v224c0 2.208-1.789 4-3.994 4H117.666a4 4 0 0 1-3.994-4V92c0-2.208 1.789-4 3.994-4zm431.321 0a4 4 0 0 1 3.993 4v224c0 2.208-1.789 4-3.993 4H548.986a4 4 0 0 1-3.994-4V92c0-2.208 1.79-4 3.994-4z"/><path fill="url(#k)" d="M525.028 88a4 4 0 0 1 3.994 4v224c0 2.208-1.789 4-3.994 4H117.666a4 4 0 0 1-3.994-4V92c0-2.208 1.789-4 3.994-4zm431.321 0a4 4 0 0 1 3.993 4v224c0 2.208-1.789 4-3.993 4H548.986a4 4 0 0 1-3.994-4V92c0-2.208 1.79-4 3.994-4z"/><path fill="#232323" fill-rule="evenodd" d="M469.106 48c0-8.832-7.157-16-15.975-16s-15.975 7.168-15.975 16 7.157 16 15.975 16 15.975-7.168 15.975-16" clip-rule="evenodd"/><path fill="#373B47" fill-rule="evenodd" d="M461.123 48c0-4.416-3.57-8-7.987-8s-7.988 3.584-7.988 8 3.571 8 7.988 8 7.987-3.584 7.987-8" clip-rule="evenodd"/><path fill="#232323" fill-rule="evenodd" d="M637.845 48c0-8.832-7.157-16-15.975-16-8.819 0-15.975 7.168-15.975 16s7.156 16 15.975 16 15.975-7.168 15.975-16" clip-rule="evenodd"/><path fill="#373B47" fill-rule="evenodd" d="M629.862 48c0-4.416-3.571-8-7.988-8s-7.987 3.584-7.987 8 3.57 8 7.987 8 7.988-3.584 7.988-8" clip-rule="evenodd"/><path fill="#908E8E" fill-rule="evenodd" d="M533.719 335.951h.663v-2.64h-.663zM539.739 334.07c-.024-.008-.239-.144-.551-.144-.439 0-.735.304-.735.712 0 .392.28.704.735.704.304 0 .527-.128.551-.144v.704a1.8 1.8 0 0 1-.599.096c-.758 0-1.413-.512-1.413-1.36 0-.792.591-1.368 1.413-1.368.312 0 .536.072.599.096zM532.802 334.07c-.032-.008-.24-.144-.559-.144-.44 0-.727.304-.727.712 0 .392.279.704.727.704.311 0 .527-.128.559-.144v.704a1.9 1.9 0 0 1-.607.096c-.743 0-1.406-.512-1.406-1.36 0-.792.591-1.368 1.406-1.368.311 0 .543.072.607.096zM541.824 333.939a.69.69 0 0 0-.687.696c0 .384.295.696.687.696a.68.68 0 0 0 .687-.696.684.684 0 0 0-.687-.696m1.397.696c0 .752-.583 1.368-1.398 1.368-.814 0-1.389-.616-1.389-1.368s.575-1.36 1.389-1.36 1.398.608 1.398 1.36M536.895 333.914c-.008 0-.279-.08-.511-.08-.28 0-.415.088-.415.216 0 .168.191.216.303.248l.176.064c.439.136.631.432.631.752 0 .664-.575.888-1.087.888a4 4 0 0 1-.718-.072v-.608c.064.016.343.096.631.096.327 0 .487-.096.487-.248 0-.128-.136-.208-.304-.256-.04-.016-.096-.032-.143-.048-.368-.12-.679-.336-.679-.776 0-.488.367-.824.99-.824.32 0 .623.08.639.088zM530.081 330.48a.335.335 0 0 0-.328-.328.336.336 0 0 0-.335.328v.696c0 .176.152.328.335.328a.335.335 0 0 0 .328-.328zM531.901 329.572a.335.335 0 0 0-.327-.328.335.335 0 0 0-.328.328v1.608c0 .176.152.328.328.328a.335.335 0 0 0 .327-.328zM533.712 328.328a.336.336 0 0 0-.336-.328.33.33 0 0 0-.327.328v3.504a.33.33 0 0 0 .327.328.336.336 0 0 0 .336-.328zM535.518 329.572a.334.334 0 0 0-.327-.328.336.336 0 0 0-.336.328v1.608c0 .176.152.328.336.328a.334.334 0 0 0 .327-.328zM537.343 330.48a.34.34 0 0 0-.336-.328.34.34 0 0 0-.335.328v.696c0 .176.16.328.335.328a.34.34 0 0 0 .336-.328zM539.151 329.57a.336.336 0 0 0-.335-.328.335.335 0 0 0-.328.328v1.608c0 .176.152.328.328.328a.336.336 0 0 0 .335-.328zM540.96 328.328a.33.33 0 0 0-.328-.328.33.33 0 0 0-.327.328v3.504c0 .184.151.328.327.328a.33.33 0 0 0 .328-.328zM542.772 329.572a.336.336 0 0 0-.335-.328.335.335 0 0 0-.328.328v1.608c0 .176.152.328.328.328a.336.336 0 0 0 .335-.328zM544.589 330.48a.335.335 0 0 0-.328-.328.336.336 0 0 0-.335.328v.696c0 .176.152.328.335.328a.335.335 0 0 0 .328-.328z" clip-rule="evenodd"/></g><defs><linearGradient id="b" x1="577.945" x2="577.945" y1="12" y2="84" gradientUnits="userSpaceOnUse"><stop stop-color="#EFEFEF"/><stop offset=".506" stop-color="#fff"/><stop offset="1" stop-color="#EFEFEF"/></linearGradient><linearGradient id="d" x1="409.207" x2="409.207" y1="12" y2="84" gradientUnits="userSpaceOnUse"><stop stop-color="#EFEFEF"/><stop offset=".506" stop-color="#fff"/><stop offset="1" stop-color="#EFEFEF"/></linearGradient><linearGradient id="f" x1="113.683" x2="113.683" y1="336" y2="551.854" gradientUnits="userSpaceOnUse"><stop stop-color="#B1B1B1"/><stop offset=".278" stop-color="#C9C9C9"/><stop offset=".514" stop-color="#D6D6D6"/><stop offset=".744" stop-color="#C9C9C9"/><stop offset=".954" stop-color="#ECECEC"/><stop offset="1" stop-color="#B1B1B1"/></linearGradient><linearGradient id="g" x1="928.405" x2="928.405" y1="336" y2="551.854" gradientUnits="userSpaceOnUse"><stop stop-color="#B1B1B1"/><stop offset=".278" stop-color="#C9C9C9"/><stop offset=".514" stop-color="#D6D6D6"/><stop offset=".744" stop-color="#C9C9C9"/><stop offset=".954" stop-color="#ECECEC"/><stop offset="1" stop-color="#B1B1B1"/></linearGradient><linearGradient id="h" x1="105.797" x2="105.797" y1="308.438" y2="559.929" gradientUnits="userSpaceOnUse"><stop stop-color="#CFCFCF"/><stop offset=".47" stop-color="#F1F1F1"/><stop offset="1" stop-color="#D9D9D9"/></linearGradient><linearGradient id="k" x1="-421.126" x2="-398.287" y1="-58.365" y2="410.379" gradientUnits="userSpaceOnUse"><stop stop-color="#fff" stop-opacity=".24"/><stop offset="1" stop-opacity=".5"/></linearGradient><radialGradient id="i" cx="0" cy="0" r="1" gradientTransform="matrix(26.9408 12 -19.9688 16.1898 162.696 601.324)" gradientUnits="userSpaceOnUse"><stop stop-color="#9C9C9C"/><stop offset=".528" stop-color="#E8E8E8"/><stop offset="1" stop-color="#E8E8E8"/></radialGradient><radialGradient id="j" cx="0" cy="0" r="1" gradientTransform="matrix(26.9408 12 -19.9688 16.1898 921.508 601.324)" gradientUnits="userSpaceOnUse"><stop stop-color="#9C9C9C"/><stop offset=".528" stop-color="#E8E8E8"/><stop offset="1" stop-color="#E8E8E8"/></radialGradient><clipPath id="a"><path fill="#fff" d="M0 0h1080v576H0z"/></clipPath></defs></svg>