<svg xmlns="http://www.w3.org/2000/svg" width="172" height="92" fill="none" viewBox="0 0 172 92"><path fill="#1A1A1A" d="M66.035 12.458a5.11 5.11 0 0 1 5.111-5.11h29.709a5.11 5.11 0 0 1 5.111 5.11v70.278a5.11 5.11 0 0 1-5.111 5.111H71.146a5.11 5.11 0 0 1-5.11-5.11z"/><path fill="#222" d="M66.834 12.938a4.79 4.79 0 0 1 4.792-4.792h28.75a4.79 4.79 0 0 1 4.791 4.792v69.32a4.79 4.79 0 0 1-4.791 4.79h-28.75a4.79 4.79 0 0 1-4.792-4.79z"/><path fill="url(#a)" d="M66.834 12.938a4.79 4.79 0 0 1 4.792-4.792h28.75a4.79 4.79 0 0 1 4.791 4.792v69.32a4.79 4.79 0 0 1-4.791 4.79h-28.75a4.79 4.79 0 0 1-4.792-4.79z"/><path fill="#1A1A1A" d="M79.611 11.34c0-.705.572-1.277 1.278-1.277h10.222a1.278 1.278 0 1 1 0 2.556H80.89a1.28 1.28 0 0 1-1.278-1.279"/><defs><linearGradient id="a" x1="47.667" x2="109.694" y1="47.597" y2="77.732" gradientUnits="userSpaceOnUse"><stop stop-color="#fff" stop-opacity=".24"/><stop offset="1" stop-opacity=".5"/></linearGradient></defs></svg>