<svg xmlns="http://www.w3.org/2000/svg" width="172" height="92" fill="none" viewBox="0 0 172 92"><g clip-path="url(#a)"><path fill="url(#b)" d="M45.193 88.167h-7.164c-1.081 0-1.957-1.065-1.957-2.377V67.962H49.77l-2.65 18.241c-.165 1.137-.978 1.964-1.927 1.964"/><g filter="url(#c)"><path fill="#000" d="M45.193 88.167h-7.164c-1.081 0-1.957-1.065-1.957-2.377V67.962H49.77l-2.65 18.241c-.165 1.137-.978 1.964-1.927 1.964"/></g><path fill="url(#d)" d="M127.366 88.167h7.164c1.081 0 1.956-1.065 1.956-2.377V67.962h-13.697l2.65 18.241c.165 1.137.978 1.964 1.927 1.964"/><g filter="url(#e)"><path fill="#000" d="M127.366 88.167h7.164c1.081 0 1.956-1.065 1.956-2.377V67.962h-13.697l2.65 18.241c.165 1.137.978 1.964 1.927 1.964"/></g><path fill="#C5C5C5" d="M33.445 70.917h105.111v13.576c0 1.5-1.176 2.716-2.627 2.716H36.073c-1.451 0-2.628-1.216-2.628-2.716z"/><g filter="url(#f)"><path fill="#000" d="M33.445 70.917h105.111v13.576c0 1.5-1.176 2.716-2.627 2.716H36.073c-1.451 0-2.628-1.216-2.628-2.716z"/></g><path fill="url(#g)" d="M33.445 70.917h105.111v14.117c0 1.201-.98 2.175-2.189 2.175H35.635c-1.21 0-2.19-.974-2.19-2.175z"/><path fill="url(#h)" d="M33.445 70.917h105.111v14.117c0 1.201-.98 2.175-2.189 2.175H35.635c-1.21 0-2.19-.974-2.19-2.175z"/><path fill="url(#i)" fill-rule="evenodd" d="M138.556 70.917v14.315a2 2 0 0 1-.567 1.398c-.35.357-.834.579-1.369.579H35.382a1.9 1.9 0 0 1-1.37-.58 2 2 0 0 1-.567-1.397V70.917z" clip-rule="evenodd"/><path fill="url(#j)" fill-rule="evenodd" d="M137.983 85.232v-13.74H34.019v13.74c0 .39.154.741.403.995.248.253.587.407.96.407H136.62c.373 0 .712-.154.96-.407.249-.254.403-.605.403-.995m.573-14.315H33.446v14.315c0 .546.216 1.04.567 1.398.35.357.834.579 1.369.579H136.62c.535 0 1.019-.222 1.369-.58a2 2 0 0 0 .567-1.397z" clip-rule="evenodd"/><path fill="#999" fill-opacity=".48" fill-rule="evenodd" d="M138.079 85.232V71.396H33.923v13.836c0 .416.165.79.43 1.062.266.27.629.436 1.029.436H136.62c.4 0 .763-.165 1.028-.436a1.5 1.5 0 0 0 .431-1.062m.477-14.315H33.446v14.315c0 .546.216 1.04.567 1.398.35.357.834.579 1.369.579H136.62c.535 0 1.019-.222 1.369-.58a2 2 0 0 0 .567-1.397z" clip-rule="evenodd"/><path fill="#151B1E" fill-opacity=".12" fill-rule="evenodd" d="M138.174 85.232V71.3H33.828v13.932c0 .442.175.84.457 1.129.283.288.67.464 1.097.464H136.62c.427 0 .814-.176 1.097-.464.282-.288.457-.687.457-1.13m.382-14.315H33.446v14.315c0 .546.216 1.04.567 1.398.35.357.834.579 1.369.579H136.62c.535 0 1.019-.222 1.369-.58a2 2 0 0 0 .567-1.397z" clip-rule="evenodd"/><path fill="#1A1A1A" d="M138.556 71.476H33.446V6.712c0-1.589 1.272-2.878 2.84-2.878h99.43c1.568 0 2.84 1.289 2.84 2.878z"/><g filter="url(#k)"><path fill="#000" d="M138.556 71.476H33.446V6.712c0-1.589 1.272-2.878 2.84-2.878h99.43c1.568 0 2.84 1.289 2.84 2.878z"/></g><path stroke="#474747" stroke-width=".3" d="M136.203 68.8c0 .648-.522 1.172-1.166 1.172a1.17 1.17 0 0 1-1.166-1.172c0-.647.522-1.171 1.166-1.171s1.166.523 1.166 1.171ZM125.709 69.972h4.664c.644 0 1.166-.524 1.166-1.172s-.522-1.171-1.166-1.171h-4.664c-.644 0-1.166.523-1.166 1.171s.522 1.172 1.166 1.172Z" clip-rule="evenodd"/><path fill="#232323" d="M86.001 7.787c.726 0 1.314-.59 1.314-1.318s-.588-1.318-1.314-1.318c-.725 0-1.314.59-1.314 1.318s.589 1.318 1.314 1.318"/><path fill="#555B6C" d="M86.003 7.347a.877.877 0 0 0 .876-.878.877.877 0 0 0-.876-.879.877.877 0 0 0-.876.879c0 .485.392.878.876.878"/><path fill="#fff" fill-rule="evenodd" d="M87.528 80.24c.273 0 .468.2.468.448s-.195.45-.468.45a.449.449 0 1 1 0-.898m-1.867-.002a1 1 0 0 1 .216.029v.184c-.002 0-.096-.026-.174-.026-.09 0-.139.029-.139.071 0 .053.067.071.105.082l.059.02c.147.046.21.143.21.248 0 .22-.192.293-.363.293-.12 0-.23-.024-.244-.026v-.198c.022.005.115.031.212.031.112 0 .163-.031.163-.081 0-.042-.045-.069-.102-.084-.01-.006-.032-.011-.045-.016-.126-.04-.23-.11-.23-.256 0-.16.125-.271.332-.271m.963.001c.104 0 .182.024.203.032v.232c-.008-.003-.08-.048-.187-.048-.145 0-.244.1-.244.235 0 .129.097.231.244.231.104 0 .18-.042.187-.047v.232a.6.6 0 0 1-.203.032c-.249 0-.468-.172-.468-.448 0-.261.197-.45.468-.45m-2.322 0c.104 0 .182.024.2.032v.232c-.008-.003-.08-.048-.187-.048-.145 0-.244.1-.244.235 0 .129.097.231.244.231.104 0 .18-.042.187-.047v.232a.6.6 0 0 1-.2.032c-.252 0-.472-.172-.472-.448 0-.261.199-.45.472-.45m.729.014v.87h-.222v-.87zm2.497.206a.23.23 0 0 0-.23.23c0 .126.099.228.23.228.134 0 .23-.103.23-.229a.227.227 0 0 0-.23-.23m-2.831-1.956a.11.11 0 0 1 .112.108v1.154a.111.111 0 0 1-.222 0v-1.154c0-.06.051-.108.11-.108m2.431 0c.062 0 .11.048.11.108v1.154a.11.11 0 0 1-.11.108.11.11 0 0 1-.112-.108v-1.154c0-.06.05-.108.112-.108m-3.039.41c.062 0 .113.05.113.108v.526c0 .061-.051.111-.113.111a.11.11 0 0 1-.11-.11v-.527c0-.058.051-.108.11-.108m1.217 0c.059 0 .11.05.11.108v.526c0 .061-.051.111-.11.111a.11.11 0 0 1-.112-.11v-.527c0-.058.05-.108.112-.108m1.212 0c.061 0 .112.05.112.108v.526c0 .061-.05.111-.112.111a.11.11 0 0 1-.11-.11v-.527c0-.058.05-.108.11-.108m1.216 0c.062 0 .113.05.113.108v.526c0 .061-.051.111-.112.111a.11.11 0 0 1-.11-.11v-.527a.11.11 0 0 1 .11-.108m-4.251.3c.059 0 .112.047.112.107v.227c0 .06-.053.11-.112.11a.11.11 0 0 1-.11-.11v-.227c0-.06.048-.108.11-.108m2.428 0a.11.11 0 0 1 .112.107v.227c0 .06-.05.11-.112.11a.11.11 0 0 1-.11-.11v-.227c0-.06.051-.108.11-.108m2.433 0a.11.11 0 0 1 .11.107v.227c0 .06-.051.11-.11.11a.11.11 0 0 1-.113-.11v-.227c0-.06.051-.108.113-.108" clip-rule="evenodd"/><path stroke="#fff" stroke-opacity=".6" stroke-width=".3" d="M86.001 70.158c.726 0 1.314-.59 1.314-1.317 0-.728-.588-1.318-1.314-1.318-.725 0-1.314.59-1.314 1.318 0 .727.589 1.317 1.314 1.317Z"/><path fill="#222" d="M136.035 66.205H35.967a.78.78 0 0 1-.77-.793V9.898c0-.438.345-.794.77-.794h100.068c.425 0 .77.356.77.794v55.514a.78.78 0 0 1-.77.793"/><path fill="url(#l)" d="M136.035 66.205H35.967a.78.78 0 0 1-.77-.793V9.898c0-.438.345-.794.77-.794h100.068c.425 0 .77.356.77.794v55.514a.78.78 0 0 1-.77.793"/></g><defs><linearGradient id="b" x1="42.921" x2="42.921" y1="78.064" y2="88.013" gradientUnits="userSpaceOnUse"><stop stop-color="#CACACA"/><stop offset="1" stop-color="#989898"/></linearGradient><linearGradient id="d" x1="129.638" x2="129.638" y1="78.064" y2="88.013" gradientUnits="userSpaceOnUse"><stop stop-color="#CACACA"/><stop offset="1" stop-color="#989898"/></linearGradient><linearGradient id="g" x1="33.445" x2="138.556" y1="80.327" y2="80.327" gradientUnits="userSpaceOnUse"><stop stop-color="#E4E4E4"/><stop offset="1" stop-color="#A8A8A8"/></linearGradient><linearGradient id="h" x1="86.001" x2="86.001" y1="84.159" y2="87.209" gradientUnits="userSpaceOnUse"><stop stop-opacity="0"/><stop offset="1" stop-opacity=".08"/></linearGradient><linearGradient id="i" x1="86.001" x2="86.001" y1="75.336" y2="87.209" gradientUnits="userSpaceOnUse"><stop stop-opacity="0"/><stop offset="1" stop-opacity=".08"/></linearGradient><linearGradient id="j" x1="86.001" x2="86.001" y1="70.917" y2="87.209" gradientUnits="userSpaceOnUse"><stop stop-color="#E9E9E8"/><stop offset="1" stop-color="#E0E2E5"/></linearGradient><linearGradient id="l" x1="35.197" x2="120.266" y1="28.69" y2="76.22" gradientUnits="userSpaceOnUse"><stop stop-color="#fff" stop-opacity=".24"/><stop offset="1" stop-opacity=".5"/></linearGradient><filter id="c" width="13.697" height="20.205" x="36.072" y="67.962" color-interpolation-filters="sRGB" filterUnits="userSpaceOnUse"><feFlood flood-opacity="0" result="BackgroundImageFix"/><feBlend in="SourceGraphic" in2="BackgroundImageFix" result="shape"/><feColorMatrix in="SourceAlpha" result="hardAlpha" values="0 0 0 0 0 0 0 0 0 0 0 0 0 0 0 0 0 0 127 0"/><feOffset/><feGaussianBlur stdDeviation="2"/><feComposite in2="hardAlpha" k2="-1" k3="1" operator="arithmetic"/><feColorMatrix values="0 0 0 0 0 0 0 0 0 0 0 0 0 0 0 0 0 0 0.08 0"/><feBlend in2="shape" result="effect1_innerShadow_30148_6917"/></filter><filter id="e" width="13.697" height="20.205" x="122.789" y="67.962" color-interpolation-filters="sRGB" filterUnits="userSpaceOnUse"><feFlood flood-opacity="0" result="BackgroundImageFix"/><feBlend in="SourceGraphic" in2="BackgroundImageFix" result="shape"/><feColorMatrix in="SourceAlpha" result="hardAlpha" values="0 0 0 0 0 0 0 0 0 0 0 0 0 0 0 0 0 0 127 0"/><feOffset/><feGaussianBlur stdDeviation="2"/><feComposite in2="hardAlpha" k2="-1" k3="1" operator="arithmetic"/><feColorMatrix values="0 0 0 0 0 0 0 0 0 0 0 0 0 0 0 0 0 0 0.08 0"/><feBlend in2="shape" result="effect1_innerShadow_30148_6917"/></filter><filter id="f" width="105.111" height="16.291" x="33.445" y="70.917" color-interpolation-filters="sRGB" filterUnits="userSpaceOnUse"><feFlood flood-opacity="0" result="BackgroundImageFix"/><feBlend in="SourceGraphic" in2="BackgroundImageFix" result="shape"/><feColorMatrix in="SourceAlpha" result="hardAlpha" values="0 0 0 0 0 0 0 0 0 0 0 0 0 0 0 0 0 0 127 0"/><feOffset/><feGaussianBlur stdDeviation="2"/><feComposite in2="hardAlpha" k2="-1" k3="1" operator="arithmetic"/><feColorMatrix values="0 0 0 0 0 0 0 0 0 0 0 0 0 0 0 0 0 0 0.08 0"/><feBlend in2="shape" result="effect1_innerShadow_30148_6917"/><feColorMatrix in="SourceAlpha" result="hardAlpha" values="0 0 0 0 0 0 0 0 0 0 0 0 0 0 0 0 0 0 127 0"/><feOffset/><feGaussianBlur stdDeviation="2"/><feComposite in2="hardAlpha" k2="-1" k3="1" operator="arithmetic"/><feColorMatrix values="0 0 0 0 0 0 0 0 0 0 0 0 0 0 0 0 0 0 0.04 0"/><feBlend in2="effect1_innerShadow_30148_6917" result="effect2_innerShadow_30148_6917"/><feColorMatrix in="SourceAlpha" result="hardAlpha" values="0 0 0 0 0 0 0 0 0 0 0 0 0 0 0 0 0 0 127 0"/><feOffset/><feGaussianBlur stdDeviation="2"/><feComposite in2="hardAlpha" k2="-1" k3="1" operator="arithmetic"/><feColorMatrix values="0 0 0 0 0 0 0 0 0 0 0 0 0 0 0 0 0 0 0.08 0"/><feBlend in2="effect2_innerShadow_30148_6917" result="effect3_innerShadow_30148_6917"/><feColorMatrix in="SourceAlpha" result="hardAlpha" values="0 0 0 0 0 0 0 0 0 0 0 0 0 0 0 0 0 0 127 0"/><feOffset/><feGaussianBlur stdDeviation="2"/><feComposite in2="hardAlpha" k2="-1" k3="1" operator="arithmetic"/><feColorMatrix values="0 0 0 0 0 0 0 0 0 0 0 0 0 0 0 0 0 0 0.04 0"/><feBlend in2="effect3_innerShadow_30148_6917" result="effect4_innerShadow_30148_6917"/></filter><filter id="k" width="105.111" height="67.643" x="33.445" y="3.833" color-interpolation-filters="sRGB" filterUnits="userSpaceOnUse"><feFlood flood-opacity="0" result="BackgroundImageFix"/><feBlend in="SourceGraphic" in2="BackgroundImageFix" result="shape"/><feColorMatrix in="SourceAlpha" result="hardAlpha" values="0 0 0 0 0 0 0 0 0 0 0 0 0 0 0 0 0 0 127 0"/><feOffset/><feGaussianBlur stdDeviation="2"/><feComposite in2="hardAlpha" k2="-1" k3="1" operator="arithmetic"/><feColorMatrix values="0 0 0 0 1 0 0 0 0 1 0 0 0 0 1 0 0 0 0.6 0"/><feBlend in2="shape" result="effect1_innerShadow_30148_6917"/></filter><clipPath id="a"><path fill="#fff" d="M0 0h172v92H0z"/></clipPath></defs></svg>