<svg xmlns="http://www.w3.org/2000/svg" width="1080" height="576" fill="none" viewBox="0 0 1080 576"><g clip-path="url(#a)"><g filter="url(#b)"><path fill="#E0E0E0" fill-rule="evenodd" d="M787.2 576H291.975c-8.818 0-15.975-6.856-15.975-15.304V400h527.175v160.696c0 8.448-7.157 15.304-15.975 15.304" clip-rule="evenodd"/></g><path fill="#908E8E" fill-rule="evenodd" d="M531.328 559.9h1.193v-5.279h-1.193zm10.838-3.763c-.043-.016-.431-.288-1.006-.288-.776 0-1.308.608-1.308 1.423 0 .784.518 1.408 1.308 1.408.561 0 .963-.256 1.006-.288v1.408c-.143.064-.56.191-1.092.191-1.337 0-2.515-1.039-2.515-2.719 0-1.583 1.063-2.735 2.515-2.735.56 0 .977.144 1.092.192zm-12.48 0c-.043-.016-.431-.288-1.006-.288-.776 0-1.308.608-1.308 1.423 0 .784.517 1.408 1.308 1.408.56 0 .963-.256 1.006-.288v1.408a2.9 2.9 0 0 1-1.078.191c-1.351 0-2.53-1.039-2.53-2.719 0-1.583 1.064-2.735 2.53-2.735.56 0 .977.144 1.078.192zm16.238-.266c-.705 0-1.236.64-1.236 1.392 0 .767.531 1.391 1.236 1.391.718 0 1.236-.624 1.236-1.391 0-.752-.518-1.392-1.236-1.392m2.526 1.391c0 1.504-1.049 2.735-2.515 2.735-1.452 0-2.501-1.231-2.501-2.735s1.049-2.719 2.501-2.719c1.466 0 2.515 1.216 2.515 2.719m-11.384-1.437c-.015 0-.518-.16-.935-.16-.488 0-.747.176-.747.432 0 .32.359.432.561.496l.316.128c.79.272 1.135.863 1.135 1.503 0 1.328-1.035 1.776-1.955 1.776-.646 0-1.236-.144-1.307-.16v-1.2c.114.032.618.192 1.135.192.604 0 .877-.192.877-.496 0-.256-.245-.416-.546-.512-.058-.032-.173-.064-.245-.096-.675-.24-1.236-.671-1.236-1.551 0-.976.676-1.648 1.782-1.648.575 0 1.122.16 1.165.176zm-12.256-6.865c0-.367-.287-.655-.604-.655-.33 0-.589.288-.589.655v1.376c0 .368.259.672.589.672.317 0 .604-.304.604-.672zm3.258-1.82c0-.352-.273-.656-.604-.656-.316 0-.589.304-.589.656v3.199c0 .368.273.672.589.672.331 0 .604-.304.604-.672zm3.258-2.484c0-.368-.273-.656-.604-.656-.316 0-.589.288-.589.656v7.006c0 .352.273.656.589.656.331 0 .604-.304.604-.656zm3.258 2.484c0-.352-.273-.656-.59-.656-.33 0-.603.304-.603.656v3.199c0 .368.273.672.603.672.317 0 .59-.304.59-.672zm3.269 1.82c0-.367-.273-.655-.604-.655-.316 0-.589.288-.589.655v1.376c0 .368.273.672.589.672.331 0 .604-.304.604-.672zm3.258-1.82c0-.352-.273-.656-.604-.656-.316 0-.589.304-.589.656v3.199c0 .368.273.672.589.672.331 0 .604-.304.604-.672zm3.258-2.484c0-.368-.259-.656-.59-.656s-.603.288-.603.656v7.006c0 .352.273.656.603.656.331 0 .59-.304.59-.656zm3.269 2.484c0-.352-.273-.656-.603-.656-.331 0-.59.304-.59.656v3.199c0 .368.259.672.59.672s.603-.304.603-.672zm3.26 1.82c0-.367-.273-.655-.589-.655-.331 0-.604.288-.604.655v1.376c0 .368.273.672.604.672.316 0 .589-.304.589-.672z" clip-rule="evenodd"/><path fill="#1A1A1A" fill-rule="evenodd" d="M803.175 400H276V64c0-8.832 7.157-16 15.975-16H787.2c8.818 0 15.975 7.168 15.975 16z" clip-rule="evenodd"/><path fill="url(#c)" fill-rule="evenodd" d="M571.533 32c0-17.672-14.306-32-31.95-32-17.645 0-31.95 14.328-31.95 32s14.305 32 31.95 32c17.644 0 31.95-14.328 31.95-32" clip-rule="evenodd"/><path fill="#222" fill-rule="evenodd" d="M775.221 351.998H303.959a4 4 0 0 1-3.994-4v-256c0-2.208 1.789-4 3.994-4h471.262a4 4 0 0 1 3.994 4v256c0 2.208-1.789 4-3.994 4" clip-rule="evenodd"/><path fill="url(#d)" fill-rule="evenodd" d="M775.221 351.998H303.959a4 4 0 0 1-3.994-4v-256c0-2.208 1.789-4 3.994-4h471.262a4 4 0 0 1 3.994 4v256c0 2.208-1.789 4-3.994 4" clip-rule="evenodd"/><path fill="#232323" fill-rule="evenodd" d="M563.55 32c0-13.256-10.727-24-23.963-24-13.235 0-23.962 10.744-23.962 24s10.727 24 23.962 24c13.236 0 23.963-10.744 23.963-24" clip-rule="evenodd"/><path fill="#494E5C" fill-rule="evenodd" d="M549.577 40h-19.969a6 6 0 0 1-5.991-6v-4c0-3.312 2.684-6 5.991-6h19.969c3.306 0 5.99 2.688 5.99 6v4c0 3.312-2.684 6-5.99 6" clip-rule="evenodd"/><path stroke="#474747" stroke-width=".667" d="M787.198 376c0 4.424-3.579 8-7.988 8s-7.987-3.576-7.987-8 3.578-8 7.987-8 7.988 3.576 7.988 8Z" clip-rule="evenodd"/><path fill="#fff" fill-opacity=".6" fill-rule="evenodd" d="M787.198 552c0 4.424-3.579 8-7.988 8s-7.987-3.576-7.987-8 3.578-8 7.987-8 7.988 3.576 7.988 8" clip-rule="evenodd"/><path stroke="#474747" stroke-width=".667" d="M715.308 384h31.95c4.409 0 7.987-3.576 7.987-8s-3.578-8-7.987-8h-31.95c-4.409 0-7.988 3.576-7.988 8s3.579 8 7.988 8Z" clip-rule="evenodd"/></g><defs><linearGradient id="c" x1="509.963" x2="509.963" y1="2.316" y2="61.649" gradientUnits="userSpaceOnUse"><stop stop-color="#424242"/><stop offset="1" stop-color="#656565"/></linearGradient><linearGradient id="d" x1="60.34" x2="283.482" y1="219.998" y2="625.078" gradientUnits="userSpaceOnUse"><stop stop-color="#fff" stop-opacity=".24"/><stop offset="1" stop-opacity=".5"/></linearGradient><clipPath id="a"><path fill="#fff" d="M0 0h1080v576H0z"/></clipPath><filter id="b" width="527.176" height="176" x="276" y="400" color-interpolation-filters="sRGB" filterUnits="userSpaceOnUse"><feFlood flood-opacity="0" result="BackgroundImageFix"/><feBlend in="SourceGraphic" in2="BackgroundImageFix" result="shape"/><feColorMatrix in="SourceAlpha" result="hardAlpha" values="0 0 0 0 0 0 0 0 0 0 0 0 0 0 0 0 0 0 127 0"/><feOffset dx="1"/><feComposite in2="hardAlpha" k2="-1" k3="1" operator="arithmetic"/><feColorMatrix values="0 0 0 0 0 0 0 0 0 0 0 0 0 0 0 0 0 0 0.08 0"/><feBlend in2="shape" result="effect1_innerShadow_23745_11667"/><feColorMatrix in="SourceAlpha" result="hardAlpha" values="0 0 0 0 0 0 0 0 0 0 0 0 0 0 0 0 0 0 127 0"/><feOffset dx="-1"/><feComposite in2="hardAlpha" k2="-1" k3="1" operator="arithmetic"/><feColorMatrix values="0 0 0 0 0 0 0 0 0 0 0 0 0 0 0 0 0 0 0.04 0"/><feBlend in2="effect1_innerShadow_23745_11667" result="effect2_innerShadow_23745_11667"/></filter></defs></svg>