<svg xmlns="http://www.w3.org/2000/svg" width="1080" height="576" fill="none" viewBox="0 0 1080 576"><g clip-path="url(#a)"><path fill="#000" fill-rule="evenodd" d="M77.777 458.334a1 1 0 0 1 1-1h922.443c.55 0 1 .448 1 1v33.511c0 .569-.43 1.026-.99 1.002-19.258-.825-312.724-13.291-461.23-13.291S98.028 492.022 78.774 492.847c-.569.024-.997-.433-.997-1.002z" clip-rule="evenodd"/><path fill="#E0E0E0" fill-rule="evenodd" d="M60 87.811c0-2.23 1.759-4.031 3.989-4 37.494.505 329.9 4.39 476.011 4.39s438.517-3.885 476.01-4.39c2.23-.031 3.99 1.77 3.99 4v391.776c0 2.274-1.81 4.094-4.08 4.002-37.867-1.534-329.687-13.167-475.92-13.167s-438.053 11.633-475.918 13.167c-2.272.092-4.082-1.728-4.082-4.002z" clip-rule="evenodd"/><g filter="url(#b)"><path fill="url(#c)" fill-rule="evenodd" d="M60 87.811c0-2.23 1.759-4.031 3.989-4 37.494.505 329.9 4.39 476.011 4.39s438.517-3.885 476.01-4.39c2.23-.031 3.99 1.77 3.99 4v391.776c0 2.274-1.81 4.094-4.08 4.002-37.867-1.534-329.687-13.167-475.92-13.167s-438.053 11.633-475.918 13.167c-2.272.092-4.082-1.728-4.082-4.002z" clip-rule="evenodd"/></g><mask id="d" width="960" height="404" x="60" y="83" maskUnits="userSpaceOnUse" style="mask-type:luminance"><path fill="#fff" fill-rule="evenodd" d="M60 87.81c0-2.23 1.759-4.032 3.99-4.001 37.495.51 329.899 4.423 476.01 4.423s438.515-3.913 476.01-4.423c2.23-.03 3.99 1.77 3.99 4v394.769c0 2.275-1.81 4.095-4.08 4.002-37.873-1.546-329.688-13.265-475.92-13.265S101.952 485.034 64.083 486.58c-2.273.093-4.083-1.727-4.083-4.002z" clip-rule="evenodd"/></mask><g mask="url(#d)"><path fill="url(#e)" d="M60 297.334h320V492.89H60z"/><g filter="url(#f)"><path fill="url(#g)" d="M380.004 297.334h320V492.89h-320z"/></g><path fill="url(#h)" d="M699.996 297.334h320V492.89h-320z"/><g filter="url(#i)"><path fill="#000" fill-rule="evenodd" d="M60 154.668a4 4 0 0 1 4-4h952a4 4 0 0 1 4 4v187.206c0 2.281-1.77 4.107-4.04 4.004-30.396-1.375-224.378-10.021-317.684-10.86-52.458-.472-105.818.015-158.276.015-53.028 0-105.154-.482-158.181 0-92.795.844-287.341 9.475-317.777 10.846-2.278.103-4.042-1.723-4.042-4.004z" clip-rule="evenodd"/></g><path fill="#222" d="M375.55 323.029a1 1 0 0 1-.972 1L69.912 332.86a1 1 0 0 1-1.03-1V150.668H375.55zm633.12 8.831c0 .564-.47 1.017-1.03 1l-304.669-8.831a1 1 0 0 1-.971-1V150.668h306.67zm-315.564-8.859a1 1 0 0 1-1 1H387.439a1 1 0 0 1-1-1V150.668h306.667z"/><path fill="url(#j)" d="M375.55 323.029a1 1 0 0 1-.972 1L69.912 332.86a1 1 0 0 1-1.03-1V150.668H375.55zm633.12 8.831c0 .564-.47 1.017-1.03 1l-304.669-8.831a1 1 0 0 1-.971-1V150.668h306.67zm-315.564-8.859a1 1 0 0 1-1 1H387.439a1 1 0 0 1-1-1V150.668h306.667z"/></g><path fill="#EEE" fill-rule="evenodd" d="M68.883 95.91c0-1.676 1.23-3.028 2.905-3.003 32.167.493 323.394 4.895 468.206 4.895S976.033 93.4 1008.2 92.907c1.68-.025 2.91 1.327 2.91 3.002v37.064s-317.454 2.959-471.116 2.959-471.111-2.959-471.111-2.959z" clip-rule="evenodd"/><rect width="18.278" height="4.944" x="521.973" y="141.527" fill="#000" stroke="#BABABA" stroke-width=".5" rx="1.25"/></g><defs><linearGradient id="c" x1="464.668" x2="464.668" y1="406.938" y2="469.56" gradientUnits="userSpaceOnUse"><stop stop-opacity=".01"/><stop offset="1" stop-opacity=".04"/></linearGradient><linearGradient id="e" x1="360.639" x2="48.203" y1="297.334" y2="359.199" gradientUnits="userSpaceOnUse"><stop stop-opacity=".01"/><stop offset="1" stop-opacity=".01"/></linearGradient><linearGradient id="g" x1="700.004" x2="380.004" y1="297.334" y2="297.334" gradientUnits="userSpaceOnUse"><stop stop-opacity=".02"/><stop offset=".491" stop-opacity=".01"/><stop offset="1" stop-opacity=".02"/></linearGradient><linearGradient id="h" x1="687.986" x2="1005.01" y1="492.89" y2="531.829" gradientUnits="userSpaceOnUse"><stop stop-opacity=".01"/><stop offset="1" stop-opacity=".01"/></linearGradient><linearGradient id="j" x1="-524.731" x2="-512.026" y1="35.726" y2="404.273" gradientUnits="userSpaceOnUse"><stop stop-color="#fff" stop-opacity=".24"/><stop offset="1" stop-opacity=".5"/></linearGradient><filter id="b" width="960" height="399.781" x="60" y="83.811" color-interpolation-filters="sRGB" filterUnits="userSpaceOnUse"><feFlood flood-opacity="0" result="BackgroundImageFix"/><feBlend in="SourceGraphic" in2="BackgroundImageFix" result="shape"/><feColorMatrix in="SourceAlpha" result="hardAlpha" values="0 0 0 0 0 0 0 0 0 0 0 0 0 0 0 0 0 0 127 0"/><feOffset dy="-.25"/><feComposite in2="hardAlpha" k2="-1" k3="1" operator="arithmetic"/><feColorMatrix values="0 0 0 0 0 0 0 0 0 0 0 0 0 0 0 0 0 0 0.04 0"/><feBlend in2="shape" result="effect1_innerShadow_23745_11707"/><feColorMatrix in="SourceAlpha" result="hardAlpha" values="0 0 0 0 0 0 0 0 0 0 0 0 0 0 0 0 0 0 127 0"/><feOffset dx="-.25"/><feComposite in2="hardAlpha" k2="-1" k3="1" operator="arithmetic"/><feColorMatrix values="0 0 0 0 0 0 0 0 0 0 0 0 0 0 0 0 0 0 0.04 0"/><feBlend in2="effect1_innerShadow_23745_11707" result="effect2_innerShadow_23745_11707"/><feColorMatrix in="SourceAlpha" result="hardAlpha" values="0 0 0 0 0 0 0 0 0 0 0 0 0 0 0 0 0 0 127 0"/><feOffset dx=".25"/><feComposite in2="hardAlpha" k2="-1" k3="1" operator="arithmetic"/><feColorMatrix values="0 0 0 0 0 0 0 0 0 0 0 0 0 0 0 0 0 0 0.04 0"/><feBlend in2="effect2_innerShadow_23745_11707" result="effect3_innerShadow_23745_11707"/><feColorMatrix in="SourceAlpha" result="hardAlpha" values="0 0 0 0 0 0 0 0 0 0 0 0 0 0 0 0 0 0 127 0"/><feOffset dy=".25"/><feComposite in2="hardAlpha" k2="-1" k3="1" operator="arithmetic"/><feColorMatrix values="0 0 0 0 1 0 0 0 0 1 0 0 0 0 1 0 0 0 0.24 0"/><feBlend in2="effect3_innerShadow_23745_11707" result="effect4_innerShadow_23745_11707"/></filter><filter id="f" width="320" height="195.555" x="380.004" y="297.334" color-interpolation-filters="sRGB" filterUnits="userSpaceOnUse"><feFlood flood-opacity="0" result="BackgroundImageFix"/><feBlend in="SourceGraphic" in2="BackgroundImageFix" result="shape"/><feColorMatrix in="SourceAlpha" result="hardAlpha" values="0 0 0 0 0 0 0 0 0 0 0 0 0 0 0 0 0 0 127 0"/><feOffset dx="-.5"/><feComposite in2="hardAlpha" k2="-1" k3="1" operator="arithmetic"/><feColorMatrix values="0 0 0 0 1 0 0 0 0 1 0 0 0 0 1 0 0 0 0.08 0"/><feBlend in2="shape" result="effect1_innerShadow_23745_11707"/><feColorMatrix in="SourceAlpha" result="hardAlpha" values="0 0 0 0 0 0 0 0 0 0 0 0 0 0 0 0 0 0 127 0"/><feOffset dx=".5"/><feComposite in2="hardAlpha" k2="-1" k3="1" operator="arithmetic"/><feColorMatrix values="0 0 0 0 1 0 0 0 0 1 0 0 0 0 1 0 0 0 0.08 0"/><feBlend in2="effect1_innerShadow_23745_11707" result="effect2_innerShadow_23745_11707"/></filter><filter id="i" width="960" height="195.465" x="60" y="150.418" color-interpolation-filters="sRGB" filterUnits="userSpaceOnUse"><feFlood flood-opacity="0" result="BackgroundImageFix"/><feColorMatrix in="SourceAlpha" result="hardAlpha" values="0 0 0 0 0 0 0 0 0 0 0 0 0 0 0 0 0 0 127 0"/><feOffset dy="-.25"/><feColorMatrix values="0 0 0 0 0 0 0 0 0 0 0 0 0 0 0 0 0 0 0.08 0"/><feBlend in2="BackgroundImageFix" result="effect1_dropShadow_23745_11707"/><feBlend in="SourceGraphic" in2="effect1_dropShadow_23745_11707" result="shape"/></filter><clipPath id="a"><path fill="#fff" d="M0 0h1080v576H0z"/></clipPath></defs></svg>