<svg xmlns="http://www.w3.org/2000/svg" width="172" height="92" fill="none" viewBox="0 0 172 92"><g clip-path="url(#a)"><path fill="#F1F1F1" fill-rule="evenodd" d="M14.932 33.756c.234-.7.89-1.172 1.628-1.172h138.878c.738 0 1.394.472 1.628 1.172l5.378 16.078H9.554z" clip-rule="evenodd"/><path fill="#AEAEAE" fill-rule="evenodd" d="M83.663 43.878h.653v-1.452h-.653zm5.928-1.035c-.023-.004-.235-.079-.55-.079-.424 0-.715.167-.715.392 0 .215.283.387.715.387.307 0 .527-.07.55-.08v.388a3 3 0 0 1-.597.053c-.731 0-1.376-.286-1.376-.748 0-.436.582-.753 1.376-.753.306 0 .534.04.597.053zm-6.827 0c-.024-.004-.236-.079-.55-.079-.425 0-.715.167-.715.392 0 .215.282.387.715.387.306 0 .526-.07.55-.08v.388a3 3 0 0 1-.59.053c-.738 0-1.383-.286-1.383-.748 0-.436.582-.753 1.383-.753.307 0 .535.04.59.053zm8.886-.073c-.386 0-.676.176-.676.383 0 .211.29.383.676.383.393 0 .676-.172.676-.383 0-.207-.283-.383-.676-.383m1.375.383c0 .413-.574.752-1.376.752-.794 0-1.367-.339-1.367-.752 0-.414.573-.748 1.367-.748.802 0 1.376.334 1.376.748m-6.223-.396c-.008 0-.283-.044-.511-.044-.267 0-.409.049-.409.12 0 .087.197.118.306.136l.174.035c.432.075.62.237.62.413 0 .365-.566.489-1.069.489-.353 0-.676-.04-.715-.044v-.33c.063.009.338.053.621.053.33 0 .48-.053.48-.137 0-.07-.134-.114-.3-.14-.03-.01-.093-.018-.133-.027-.37-.066-.676-.185-.676-.427 0-.268.37-.453.975-.453.314 0 .613.044.637.048zM80.1 40.87c0-.102-.157-.18-.33-.18-.181 0-.323.078-.323.18v.378c0 .101.142.185.322.185.173 0 .33-.084.33-.185zm1.78-.5c0-.097-.15-.18-.33-.18-.173 0-.322.083-.322.18v.88c0 .1.15.184.322.184.18 0 .33-.083.33-.184zm1.784-.684c0-.101-.149-.18-.33-.18-.173 0-.322.079-.322.18v1.927c0 .097.15.18.322.18.181 0 .33-.083.33-.18zm1.783.684c0-.097-.15-.18-.323-.18-.18 0-.33.083-.33.18v.88c0 .1.15.184.33.184.173 0 .323-.083.323-.184zm1.784.5c0-.101-.15-.18-.33-.18-.173 0-.322.079-.322.18v.378c0 .102.149.185.322.185.18 0 .33-.083.33-.185zm1.78-.5c0-.097-.149-.18-.33-.18-.173 0-.322.083-.322.18v.88c0 .1.15.184.322.184.181 0 .33-.083.33-.184zm1.787-.684c0-.101-.142-.18-.323-.18-.18 0-.33.079-.33.18v1.927c0 .097.15.18.33.18s.323-.083.323-.18zm1.787.683c0-.096-.149-.18-.33-.18-.18 0-.322.084-.322.18v.88c0 .102.141.185.322.185s.33-.084.33-.185zm1.78.501c0-.101-.148-.18-.321-.18-.181 0-.33.079-.33.18v.378c0 .102.149.185.33.185.172 0 .322-.083.322-.185z" clip-rule="evenodd"/><rect width="152.889" height="10.542" x="9.555" y="48.875" fill="url(#b)" rx="1.717"/><rect width="152.889" height="10.542" x="9.555" y="48.875" fill="#000" fill-opacity=".04" rx="1.717"/></g><defs><linearGradient id="b" x1="9.555" x2="162.444" y1="64.688" y2="64.688" gradientUnits="userSpaceOnUse"><stop stop-color="#EFEFEF"/><stop offset=".011" stop-color="#F7F7F7"/><stop offset=".03" stop-color="#ECEBEB"/><stop offset=".978" stop-color="#ECEBEB"/><stop offset=".991" stop-color="#F7F7F7"/><stop offset="1" stop-color="#EFEFEF"/></linearGradient><clipPath id="a"><path fill="#fff" d="M0 0h172v92H0z"/></clipPath></defs></svg>