<svg xmlns="http://www.w3.org/2000/svg" width="172" height="92" fill="none" viewBox="0 0 172 92"><g clip-path="url(#a)"><g filter="url(#b)"><path fill="url(#c)" fill-rule="evenodd" d="M160.259 57.5H11.739a2.19 2.19 0 0 1-2.184-2.204V37.662c0-1.218.976-2.204 2.184-2.204h148.52c1.208 0 2.185.986 2.185 2.204v17.634a2.193 2.193 0 0 1-2.185 2.204" clip-rule="evenodd"/></g><path fill="#fff" fill-rule="evenodd" d="M13.845 54.832h.327V53.37h-.327zm2.965-1.042c-.012-.004-.118-.08-.275-.08-.212 0-.358.169-.358.395 0 .217.142.39.358.39.153 0 .263-.072.275-.08v.39a.8.8 0 0 1-.299.052c-.365 0-.687-.288-.687-.752 0-.439.29-.758.687-.758.154 0 .268.04.3.053zm-3.414 0c-.012-.004-.118-.08-.275-.08-.212 0-.357.169-.357.395 0 .217.141.39.357.39.153 0 .263-.072.275-.08v.39a.8.8 0 0 1-.294.052c-.37 0-.692-.288-.692-.752 0-.439.29-.758.692-.758.153 0 .267.04.294.053zm4.444-.073c-.193 0-.338.177-.338.385 0 .213.145.386.338.386.196 0 .337-.173.337-.386 0-.208-.141-.385-.337-.385m.688.385c0 .416-.287.757-.688.757-.397 0-.684-.34-.684-.757 0-.416.287-.753.684-.753.401 0 .688.337.688.753m-3.112-.398c-.004 0-.141-.044-.255-.044-.134 0-.205.048-.205.12 0 .088.099.119.154.136l.086.036c.216.075.31.239.31.416 0 .368-.282.492-.534.492-.177 0-.338-.04-.357-.045v-.332c.03.009.168.053.31.053.165 0 .24-.053.24-.137 0-.07-.067-.115-.15-.142-.015-.008-.047-.017-.067-.026-.184-.067-.338-.186-.338-.43 0-.27.185-.456.488-.456.157 0 .306.044.318.049zm-3.351-1.9c0-.102-.08-.182-.166-.182-.09 0-.16.08-.16.181v.381c0 .102.07.186.16.186.087 0 .166-.084.166-.186zm.89-.504c0-.098-.075-.182-.165-.182-.087 0-.161.084-.161.182v.885c0 .102.074.186.16.186.091 0 .166-.084.166-.186zm.892-.688c0-.102-.075-.182-.165-.182-.087 0-.161.08-.161.182v1.94c0 .097.074.18.16.18.091 0 .166-.083.166-.18zm.89.688c0-.098-.075-.182-.161-.182-.09 0-.165.084-.165.182v.885c0 .102.075.186.165.186.086 0 .161-.084.161-.186zm.892.503c0-.101-.074-.181-.165-.181-.086 0-.161.08-.161.181v.381c0 .102.075.186.161.186.09 0 .165-.084.165-.186zm.892-.503c0-.098-.074-.182-.165-.182-.086 0-.16.084-.16.182v.885c0 .102.074.186.16.186.09 0 .165-.084.165-.186zm.892-.688c0-.102-.07-.182-.161-.182-.09 0-.165.08-.165.182v1.94c0 .097.075.18.165.18s.161-.083.161-.18zm.894.688c0-.098-.074-.182-.165-.182-.09 0-.16.084-.16.182v.885c0 .102.07.186.16.186s.165-.084.165-.186zm.89.503c0-.101-.074-.181-.16-.181-.091 0-.166.08-.166.181v.381c0 .102.075.186.165.186.087 0 .162-.084.162-.186z" clip-rule="evenodd"/><path fill="#666" fill-rule="evenodd" d="M86 49.833A3.83 3.83 0 0 1 82.178 46 3.83 3.83 0 0 1 86 42.167 3.83 3.83 0 0 1 89.822 46 3.83 3.83 0 0 1 86 49.833" clip-rule="evenodd"/><g filter="url(#d)"><path fill="url(#e)" fill-rule="evenodd" d="M86 40.49c-3.03 0-5.494 2.47-5.494 5.51S82.97 51.51 86 51.51c3.031 0 5.495-2.47 5.495-5.51S89.03 40.49 86 40.49m0 3.306c1.215 0 2.197.985 2.197 2.204a2.199 2.199 0 1 1-4.395 0c0-1.219.982-2.204 2.198-2.204" clip-rule="evenodd"/></g><ellipse cx="86.001" cy="46" fill="#000" fill-opacity=".4" stroke="#fff" stroke-opacity=".08" rx="2.548" ry="2.556"/><ellipse cx="86.001" cy="46" stroke="#fff" stroke-opacity=".4" rx="5.733" ry="5.75"/></g><defs><linearGradient id="c" x1="9.555" x2="9.555" y1="35.458" y2="57.5" gradientUnits="userSpaceOnUse"><stop stop-color="#DFDFDF"/><stop offset="1" stop-color="#7E7E7E"/></linearGradient><linearGradient id="e" x1="80.506" x2="91.495" y1="51.51" y2="51.51" gradientUnits="userSpaceOnUse"><stop stop-color="#2B2B2B"/><stop offset=".564" stop-color="#4F4F4F"/><stop offset=".676" stop-color="#535353"/><stop offset=".761" stop-color="#4A4A4A"/><stop offset="1" stop-color="#1C1C1C"/></linearGradient><filter id="b" width="152.889" height="22.042" x="9.555" y="35.458" color-interpolation-filters="sRGB" filterUnits="userSpaceOnUse"><feFlood flood-opacity="0" result="BackgroundImageFix"/><feBlend in="SourceGraphic" in2="BackgroundImageFix" result="shape"/><feColorMatrix in="SourceAlpha" result="hardAlpha" values="0 0 0 0 0 0 0 0 0 0 0 0 0 0 0 0 0 0 127 0"/><feOffset dy="-1"/><feComposite in2="hardAlpha" k2="-1" k3="1" operator="arithmetic"/><feColorMatrix values="0 0 0 0 0 0 0 0 0 0 0 0 0 0 0 0 0 0 0.24 0"/><feBlend in2="shape" result="effect1_innerShadow_30148_3164"/><feColorMatrix in="SourceAlpha" result="hardAlpha" values="0 0 0 0 0 0 0 0 0 0 0 0 0 0 0 0 0 0 127 0"/><feOffset dy="1"/><feComposite in2="hardAlpha" k2="-1" k3="1" operator="arithmetic"/><feColorMatrix values="0 0 0 0 1 0 0 0 0 1 0 0 0 0 1 0 0 0 0.500906 0"/><feBlend in2="effect1_innerShadow_30148_3164" result="effect2_innerShadow_30148_3164"/><feColorMatrix in="SourceAlpha" result="hardAlpha" values="0 0 0 0 0 0 0 0 0 0 0 0 0 0 0 0 0 0 127 0"/><feOffset dy="1"/><feComposite in2="hardAlpha" k2="-1" k3="1" operator="arithmetic"/><feColorMatrix values="0 0 0 0 0 0 0 0 0 0 0 0 0 0 0 0 0 0 0.08 0"/><feBlend in2="effect2_innerShadow_30148_3164" result="effect3_innerShadow_30148_3164"/></filter><filter id="d" width="10.988" height="14.021" x="80.506" y="37.489" color-interpolation-filters="sRGB" filterUnits="userSpaceOnUse"><feFlood flood-opacity="0" result="BackgroundImageFix"/><feBlend in="SourceGraphic" in2="BackgroundImageFix" result="shape"/><feColorMatrix in="SourceAlpha" result="hardAlpha" values="0 0 0 0 0 0 0 0 0 0 0 0 0 0 0 0 0 0 127 0"/><feOffset dy="-3"/><feGaussianBlur stdDeviation="2.5"/><feComposite in2="hardAlpha" k2="-1" k3="1" operator="arithmetic"/><feColorMatrix values="0 0 0 0 0 0 0 0 0 0 0 0 0 0 0 0 0 0 0.5 0"/><feBlend in2="shape" result="effect1_innerShadow_30148_3164"/></filter><clipPath id="a"><path fill="#fff" d="M0 0h172v92H0z"/></clipPath></defs></svg>