<svg xmlns="http://www.w3.org/2000/svg" width="172" height="92" fill="none" viewBox="0 0 172 92"><g clip-path="url(#a)"><g clip-path="url(#b)"><path fill="url(#c)" d="M28.666 5.75h114.667v67.083H28.666z"/><path fill="url(#d)" fill-rule="evenodd" d="m140.467 8.625 2.866-2.875v67.083l-2.866-2.875z" clip-rule="evenodd" opacity=".2"/><path fill="url(#e)" fill-rule="evenodd" d="M31.533 8.625 28.666 5.75v67.083l2.867-2.875z" clip-rule="evenodd" opacity=".6"/><path stroke="#000" stroke-opacity=".24" stroke-width=".5" d="M28.916 6h114.167v66.583H28.916z"/><path stroke="url(#f)" stroke-width=".5" d="M28.916 6h114.167v66.583H28.916z"/><path fill="#222" d="M31.533 8.625h108.933v61.333H31.533z"/><path fill="url(#g)" d="M31.533 8.625h108.933v61.333H31.533z"/><path stroke="#fff" stroke-opacity=".24" stroke-width=".5" d="M31.533 8.625h108.933v61.333H31.533z"/><path fill="url(#h)" d="M28.666 5.75h114.667v67.083H28.666z"/><path fill="#fff" fill-opacity=".24" d="M82.4 44.625h-.93v-9.017h-3.308v-.847h7.546v.847H82.4zm9.037 0h-.93l-3.691-9.864h.984l3.124 8.64h.09l3.123-8.64h.985z"/></g><g filter="url(#i)"><path fill="url(#j)" fill-rule="evenodd" d="M64.97 89.947S64.97 92 53.99 92s-10.981-2.053-10.981-2.053V44.768s-.687-.684 10.98-.684 10.982.684 10.982.684z" clip-rule="evenodd"/></g><g filter="url(#k)"><path fill="url(#l)" fill-rule="evenodd" d="M64.963 89.292s0 2.023-10.982 2.023S43 89.292 43 89.292V44.768h21.963z" clip-rule="evenodd"/></g><path fill="url(#m)" fill-rule="evenodd" d="M64.963 88.727s0 1.904-10.982 1.904S43 88.727 43 88.727V76.94s2.059 1.37 10.981 1.37 10.982-1.37 10.982-1.37z" clip-rule="evenodd"/><path fill="#000" d="M54.47 90.16c.115.021.201.117.202.23 0 .132-.112.238-.251.239h-.671c-.139 0-.252-.105-.252-.236s.113-.238.252-.238h.67zm-1.554-.01c.139 0 .25.109.249.24a.246.246 0 0 1-.252.234h-.003q-.344-.004-.672-.01c-.139-.003-.25-.112-.246-.243.003-.13.107-.218.256-.232q.327.006.668.01m3.006-.021c.164.01.255.098.259.23.004.13-.106.24-.244.245q-.328.009-.672.015h-.005a.246.246 0 0 1-.252-.232c-.003-.131.108-.24.247-.243q.341-.005.667-.015m-4.508-.012a.243.243 0 0 1 .242.245.245.245 0 0 1-.25.23h-.008a50 50 0 0 1-.674-.026c-.139-.007-.246-.118-.24-.249.008-.13.13-.22.264-.225q.324.015.666.025m6.007-.053c.124-.023.257.093.266.224a.24.24 0 0 1-.237.25q-.326.019-.672.035h-.012a.247.247 0 0 1-.251-.225.244.244 0 0 1 .239-.25q.343-.014.667-.034m-7.508-.013c.139.007.245.12.236.25a.245.245 0 0 1-.25.223h-.016a42 42 0 0 1-.672-.043c-.138-.01-.242-.124-.233-.254a.246.246 0 0 1 .271-.22q.32.024.664.044m9-.096a.246.246 0 0 1 .276.214.24.24 0 0 1-.227.259 39 39 0 0 1-.693.056.247.247 0 0 1-.25-.218.243.243 0 0 1 .231-.256q.344-.025.663-.055m-10.494-.012c.139.013.24.127.228.258a.25.25 0 0 1-.252.216l-.023-.002q-.351-.03-.672-.064c-.138-.016-.236-.133-.22-.263s.136-.218.278-.21q.316.035.66.065m11.981-.157c.139-.02.265.07.285.2a.24.24 0 0 1-.212.27 34 34 0 0 1-.701.087.25.25 0 0 1-.25-.208c-.017-.13.081-.249.22-.265q.345-.04.658-.084m-14.123-.1q.308.049.656.095a.24.24 0 0 1 .214.268.25.25 0 0 1-.249.204q-.017 0-.036-.002-.356-.047-.668-.097a.24.24 0 0 1-.206-.273c.022-.13.151-.213.29-.195m15.59-.15c.135-.027.269.054.298.18a.237.237 0 0 1-.192.283q-.31.064-.665.126l-.046.004a.25.25 0 0 1-.247-.195.24.24 0 0 1 .202-.277q.345-.059.65-.122m-17.043-.138q.286.072.642.143a.237.237 0 0 1 .193.281.25.25 0 0 1-.245.189.3.3 0 0 1-.053-.005q-.368-.075-.663-.147a.237.237 0 0 1-.18-.29c.036-.126.174-.2.306-.17m18.464-.231c.132-.042.276.023.32.147a.235.235 0 0 1-.156.301q-.288.095-.654.193a.3.3 0 0 1-.068.007.25.25 0 0 1-.242-.172.237.237 0 0 1 .175-.293q.35-.093.625-.183m-9.66.09c.14.001.252.108.252.24 0 .13-.113.235-.251.235h-.001l-.65-.004c-.14-.002-.25-.11-.248-.24 0-.13.113-.235.25-.235h.004zm1.454-.007a.24.24 0 0 1 .256.233.245.245 0 0 1-.248.242l-.65.006h-.002c-.138 0-.25-.105-.252-.236 0-.13.113-.238.252-.238zm-2.905-.01a.245.245 0 0 1 .246.242c-.004.13-.116.232-.252.232h-.006l-.65-.016c-.138-.004-.248-.114-.243-.245.004-.13.13-.22.258-.23zm4.355-.03c.128.01.257.096.263.227.006.13-.102.241-.241.248q-.318.013-.65.022h-.008a.246.246 0 0 1-.252-.23c-.003-.132.106-.24.245-.245q.33-.009.643-.022m-6.45-.047q.313.016.644.03c.138.007.246.117.24.247a.245.245 0 0 1-.251.228h-.012l-.65-.031a.244.244 0 0 1-.237-.251c.008-.131.122-.25.266-.223m7.898-.03c.137-.012.259.09.269.22a.243.243 0 0 1-.233.253 53 53 0 0 1-.664.041.246.246 0 0 1-.251-.223c-.01-.131.097-.244.236-.251q.33-.02.642-.04m-14.843-.116a.257.257 0 0 1 .343-.083c.078.042.253.13.568.239.13.045.197.182.15.305a.25.25 0 0 1-.237.156.3.3 0 0 1-.086-.015 4 4 0 0 1-.651-.277.23.23 0 0 1-.087-.325m6.14.096c.139.01.243.124.233.254a.246.246 0 0 1-.25.22h-.019a46 46 0 0 1-.65-.05.24.24 0 0 1-.228-.258.243.243 0 0 1 .273-.215q.31.026.641.05m10.145-.106c.141-.008.263.08.278.21a.24.24 0 0 1-.222.263 42 42 0 0 1-.672.064.25.25 0 0 1-.251-.215.24.24 0 0 1 .227-.259q.332-.03.64-.063m-12.224-.09q.304.038.638.072c.138.015.237.132.222.262a.246.246 0 0 1-.25.212l-.028-.001a40 40 0 0 1-.647-.074.24.24 0 0 1-.217-.267.25.25 0 0 1 .282-.204m13.654-.096c.138-.017.268.067.29.196.024.13-.07.25-.207.273q-.306.048-.646.094-.017.002-.035.002a.25.25 0 0 1-.25-.204c-.019-.13.078-.25.216-.268q.33-.044.633-.093m3.68-.231a.264.264 0 0 1 .355 0c.097.092.1.24.004.333-.03.028-.195.178-.635.382a.3.3 0 0 1-.11.024.26.26 0 0 1-.227-.133.233.233 0 0 1 .115-.318c.358-.166.492-.283.498-.288m-18.759.114q.292.053.63.105a.24.24 0 0 1 .21.272.25.25 0 0 1-.289.196q-.345-.052-.645-.107a.24.24 0 0 1-.2-.278.25.25 0 0 1 .294-.188m16.489-.151a.25.25 0 0 1 .303.174.237.237 0 0 1-.184.287q-.298.068-.64.135a.25.25 0 0 1-.298-.185c-.029-.127.06-.253.196-.28q.333-.065.623-.131m-17.876-.17q.262.078.61.16c.135.032.217.16.184.287a.25.25 0 0 1-.245.18.3.3 0 0 1-.06-.006 13 13 0 0 1-.638-.166.236.236 0 0 1-.166-.297.253.253 0 0 1 .315-.157m10.036-.022c.138 0 .25.105.252.236a.245.245 0 0 1-.251.239h-.671c-.139 0-.252-.105-.252-.236s.113-.238.252-.238h.669m-2.173-.016q.326.007.667.01c.139.002.25.11.249.24s-.115.235-.252.235h-.002q-.345-.003-.673-.01a.244.244 0 0 1-.246-.243c.003-.13.107-.251.257-.232m3.673-.01c.164-.018.255.1.259.23.003.131-.106.24-.244.245q-.328.009-.672.016h-.005c-.137 0-.25-.103-.252-.232a.246.246 0 0 1 .247-.243zm7.696-.18c.128-.046.276.011.327.132a.234.234 0 0 1-.14.309q-.27.102-.63.209a.3.3 0 0 1-.074.01.25.25 0 0 1-.24-.166.234.234 0 0 1 .164-.296 9 9 0 0 0 .593-.199m-12.204.168a.244.244 0 0 1 .242.246.245.245 0 0 1-.25.229h-.01q-.346-.01-.672-.026c-.14-.007-.246-.118-.24-.249.007-.13.13-.224.264-.225q.323.015.666.025m6.007-.051c.124-.028.257.091.266.222a.24.24 0 0 1-.237.25l-.672.035h-.012a.246.246 0 0 1-.251-.225c-.007-.131.1-.242.239-.25q.343-.014.667-.032m-7.506-.015c.139.007.244.12.236.25a.246.246 0 0 1-.25.224l-.688-.042a.245.245 0 0 1-.233-.256c.012-.131.136-.223.271-.218q.32.022.664.042m9-.096c.142-.01.262.083.275.214a.24.24 0 0 1-.225.259 40 40 0 0 1-.694.056.246.246 0 0 1-.25-.218.243.243 0 0 1 .231-.256q.344-.025.663-.055m-10.496-.012c.139.013.24.128.228.26a.25.25 0 0 1-.275.213q-.351-.03-.672-.064a.24.24 0 0 1-.22-.265c.015-.13.136-.22.278-.209q.316.035.66.065m-5.361-.123a.26.26 0 0 1 .355-.03c.003.001.071.048.235.123.126.057.179.2.119.317a.25.25 0 0 1-.228.135.3.3 0 0 1-.108-.023 1.7 1.7 0 0 1-.34-.189.23.23 0 0 1-.033-.333m17.34-.035c.14-.02.265.071.286.201s-.076.25-.213.269a34 34 0 0 1-.7.088.25.25 0 0 1-.25-.21.24.24 0 0 1 .218-.264q.345-.04.66-.084m-14.12-.1q.306.049.655.095a.24.24 0 0 1 .214.269.247.247 0 0 1-.284.202q-.356-.046-.669-.097a.24.24 0 0 1-.206-.274c.024-.129.15-.214.29-.194m15.586-.15a.255.255 0 0 1 .301.18.24.24 0 0 1-.191.284q-.312.065-.666.126l-.046.004a.25.25 0 0 1-.247-.195.24.24 0 0 1 .202-.276q.345-.06.647-.123m2.668-.048a.264.264 0 0 1 .355 0c.097.092.1.24.004.332-.016.016-.107.1-.32.223a.27.27 0 0 1-.13.034.26.26 0 0 1-.216-.115.23.23 0 0 1 .085-.326c.153-.087.217-.144.222-.148m-19.708-.088q.286.071.642.142a.237.237 0 0 1 .193.281.25.25 0 0 1-.245.189.3.3 0 0 1-.053-.005q-.368-.075-.663-.148a.237.237 0 0 1-.18-.29.254.254 0 0 1 .306-.17m18.466-.233a.257.257 0 0 1 .32.147.235.235 0 0 1-.156.302q-.288.094-.654.192a.3.3 0 0 1-.068.008.25.25 0 0 1-.242-.173.236.236 0 0 1 .175-.292q.35-.093.625-.184m-9.661.093c.139 0 .25.106.25.237a.246.246 0 0 1-.25.237h-.001l-.65-.004a.245.245 0 0 1-.248-.242c.001-.13.113-.234.25-.234h.004zm1.453-.008c.142.02.253.103.256.233a.245.245 0 0 1-.248.242l-.65.007h-.002c-.138 0-.25-.105-.252-.236 0-.13.113-.239.252-.24zm-2.905-.01a.245.245 0 0 1 .246.242c-.004.13-.116.232-.252.232h-.006l-.65-.017c-.138-.004-.248-.114-.243-.245.004-.13.13-.219.258-.23zm4.355-.029c.128.006.257.095.263.226s-.103.242-.241.249q-.318.013-.65.022h-.008a.247.247 0 0 1-.252-.23.245.245 0 0 1 .245-.246q.33-.008.643-.021m-5.806-.019c.138.007.246.117.24.248a.245.245 0 0 1-.251.228h-.012l-.65-.032a.243.243 0 0 1-.237-.25.24.24 0 0 1 .266-.224q.313.016.644.03m7.254-.061c.137-.013.259.09.269.22s-.095.245-.233.253a50 50 0 0 1-.664.042.246.246 0 0 1-.251-.223c-.01-.131.097-.243.236-.251q.33-.02.642-.041m-14.844-.117a.26.26 0 0 1 .344-.082c.078.043.255.13.569.239.13.046.197.182.15.306a.25.25 0 0 1-.237.155.3.3 0 0 1-.087-.015 4 4 0 0 1-.65-.277.23.23 0 0 1-.09-.326m6.141.098c.139.01.243.124.233.254a.246.246 0 0 1-.269.22 47 47 0 0 1-.65-.049.24.24 0 0 1-.228-.258c.012-.13.131-.227.273-.216q.31.026.641.05m10.145-.106c.141-.006.263.08.278.21a.24.24 0 0 1-.222.263 41 41 0 0 1-.672.064.25.25 0 0 1-.251-.215.24.24 0 0 1 .227-.259q.332-.03.64-.063m-12.224-.089q.304.038.638.072c.138.016.237.132.222.262a.246.246 0 0 1-.25.212l-.028-.002a41 41 0 0 1-.647-.073.24.24 0 0 1-.217-.267c.018-.13.142-.22.282-.204m13.653-.097c.138-.016.267.067.29.196.023.13-.07.252-.207.274a29 29 0 0 1-.682.096.25.25 0 0 1-.25-.205.24.24 0 0 1 .216-.268q.332-.044.633-.093m3.68-.231a.264.264 0 0 1 .355 0c.097.093.1.239.005.332-.03.028-.195.18-.635.384a.3.3 0 0 1-.11.023.25.25 0 0 1-.227-.133.23.23 0 0 1 .115-.317c.359-.166.491-.284.497-.29m-18.758.114q.292.053.63.105a.24.24 0 0 1 .21.272.25.25 0 0 1-.289.196q-.345-.052-.645-.107a.24.24 0 0 1-.2-.278.25.25 0 0 1 .294-.188m16.489-.151a.25.25 0 0 1 .303.174.237.237 0 0 1-.184.287 19 19 0 0 1-.64.136.3.3 0 0 1-.053.004.25.25 0 0 1-.246-.19c-.028-.127.06-.253.197-.28q.333-.065.623-.131m-18.19-.011a.25.25 0 0 1 .314-.157q.261.076.61.158c.135.032.217.16.184.288a.25.25 0 0 1-.245.18.3.3 0 0 1-.06-.006 13 13 0 0 1-.638-.167.234.234 0 0 1-.166-.296m10.35-.182c.138 0 .251.106.252.237 0 .13-.112.237-.251.238l-.442.002h-.229c-.139 0-.252-.107-.252-.237 0-.131.113-.239.252-.239h.669m-1.506-.005c.139.002.25.109.249.24-.001.13-.114.235-.252.235h-.002q-.345-.004-.673-.01a.244.244 0 0 1-.246-.243c.003-.13.108-.231.257-.232q.326.007.667.01m3.006-.02c.163-.008.255.1.259.23s-.106.24-.244.245l-.672.015h-.005c-.137 0-.25-.103-.252-.232-.003-.131.108-.24.247-.242zm7.698-.182a.26.26 0 0 1 .326.134.233.233 0 0 1-.14.308 10 10 0 0 1-.628.209.3.3 0 0 1-.076.011.25.25 0 0 1-.24-.165.235.235 0 0 1 .164-.298q.34-.103.594-.199m-12.206.17a.243.243 0 0 1 .242.245.245.245 0 0 1-.25.23h-.01q-.346-.01-.672-.026c-.139-.006-.246-.118-.24-.248s.13-.23.264-.226q.323.015.666.025m6.007-.052a.25.25 0 0 1 .266.222.24.24 0 0 1-.237.251q-.326.02-.672.034h-.012a.246.246 0 0 1-.251-.224.245.245 0 0 1 .239-.25q.343-.014.667-.033m-7.506-.014c.139.008.244.12.236.25a.246.246 0 0 1-.266.224 44 44 0 0 1-.672-.043c-.138-.01-.243-.125-.233-.255.012-.132.136-.226.271-.218q.32.022.664.042m8.998-.097c.142-.011.263.083.276.214.014.13-.088.247-.226.259q-.324.031-.673.056h-.02a.247.247 0 0 1-.25-.218c-.011-.13.092-.244.231-.255q.344-.026.662-.056m-10.494-.011c.139.012.24.127.228.258a.247.247 0 0 1-.275.214q-.351-.03-.672-.064a.24.24 0 0 1-.22-.265c.015-.13.137-.217.278-.209q.316.034.66.066m-5.361-.123a.26.26 0 0 1 .354-.03c.002 0 .071.048.236.123a.23.23 0 0 1 .119.317.25.25 0 0 1-.228.134.3.3 0 0 1-.107-.023 1.7 1.7 0 0 1-.341-.188.23.23 0 0 1-.033-.333m17.34-.035a.25.25 0 0 1 .286.202c.02.13-.076.249-.213.268a34 34 0 0 1-.7.088.25.25 0 0 1-.25-.208.24.24 0 0 1 .218-.265q.345-.041.66-.085m-14.12-.1q.306.05.655.096a.24.24 0 0 1 .214.268.25.25 0 0 1-.25.204q-.015 0-.034-.002-.356-.046-.669-.097a.24.24 0 0 1-.206-.274c.023-.129.15-.214.29-.194m15.588-.15c.136-.026.27.054.299.182a.237.237 0 0 1-.192.282q-.31.065-.665.126l-.046.004a.25.25 0 0 1-.247-.195.24.24 0 0 1 .202-.277q.345-.06.65-.122m2.666-.048a.264.264 0 0 1 .355.002c.097.092.1.24.004.331a1.6 1.6 0 0 1-.32.222.3.3 0 0 1-.13.034.26.26 0 0 1-.216-.115.23.23 0 0 1 .086-.326c.153-.087.217-.144.221-.148m-19.708-.088q.286.071.642.142a.237.237 0 0 1 .193.281.25.25 0 0 1-.245.189.3.3 0 0 1-.053-.005q-.368-.075-.663-.148c-.134-.033-.214-.161-.18-.289a.255.255 0 0 1 .306-.17m18.464-.232c.132-.042.276.023.32.147a.235.235 0 0 1-.156.301q-.288.095-.654.192a.3.3 0 0 1-.068.009.25.25 0 0 1-.242-.173.236.236 0 0 1 .175-.293q.35-.093.625-.183m-9.66.092c.14 0 .252.107.252.238s-.113.236-.251.236h-.001l-.65-.004a.245.245 0 0 1-.248-.24c0-.13.113-.235.25-.235h.004zm1.454-.009c.142-.016.253.102.256.233a.245.245 0 0 1-.248.242l-.65.007h-.002c-.138 0-.25-.106-.252-.237 0-.13.113-.237.252-.238zm-2.905-.01c.138.004.249.113.246.243a.246.246 0 0 1-.252.233h-.006l-.65-.017c-.138-.004-.248-.114-.243-.245.004-.13.13-.22.26-.23zm4.355-.03c.128.005.256.096.263.227.006.13-.102.241-.241.248q-.318.013-.65.022h-.008c-.135 0-.247-.102-.252-.23a.244.244 0 0 1 .245-.245q.33-.009.643-.022m-5.806-.016c.138.006.246.117.24.248a.245.245 0 0 1-.251.227h-.012q-.333-.014-.65-.032a.243.243 0 0 1-.237-.25.24.24 0 0 1 .266-.224q.313.017.644.03m7.254-.061c.137-.015.259.09.269.22s-.095.245-.233.254q-.315.022-.65.04h-.014a.246.246 0 0 1-.251-.223c-.009-.13.097-.242.236-.25q.33-.019.642-.041m-14.843-.117a.26.26 0 0 1 .344-.083c.077.043.252.131.567.24.13.045.198.182.15.305a.25.25 0 0 1-.237.156.3.3 0 0 1-.086-.015 4 4 0 0 1-.65-.278.23.23 0 0 1-.088-.325m6.14.097c.139.01.243.125.233.255a.246.246 0 0 1-.269.219 39 39 0 0 1-.65-.049.24.24 0 0 1-.228-.258c.012-.13.137-.227.273-.215q.31.025.641.048m10.145-.105c.141-.009.263.08.278.21a.24.24 0 0 1-.222.263 43 43 0 0 1-.672.064.25.25 0 0 1-.251-.215.24.24 0 0 1 .227-.259q.332-.03.64-.063m-12.224-.09q.304.037.638.071c.137.016.238.133.223.263a.25.25 0 0 1-.25.211l-.029-.001a39 39 0 0 1-.648-.073.24.24 0 0 1-.216-.267c.018-.13.141-.22.282-.205m13.654-.097c.138-.017.268.067.29.196.024.13-.07.252-.207.274q-.306.048-.646.093-.017.002-.035.002a.25.25 0 0 1-.25-.204.24.24 0 0 1 .216-.268q.33-.044.633-.093m3.68-.231a.264.264 0 0 1 .355.002c.097.091.1.239.004.331-.03.029-.195.179-.635.383a.3.3 0 0 1-.11.023.25.25 0 0 1-.227-.133.23.23 0 0 1 .115-.317c.364-.169.496-.287.498-.289m-18.757.114q.293.054.63.106c.138.02.231.142.21.271a.25.25 0 0 1-.29.197q-.345-.052-.644-.108a.24.24 0 0 1-.2-.277.25.25 0 0 1 .294-.189m16.487-.152c.134-.028.27.046.303.174a.237.237 0 0 1-.184.287q-.298.068-.64.136a.3.3 0 0 1-.053.004.25.25 0 0 1-.246-.189c-.028-.128.06-.254.197-.28q.333-.066.623-.132m-17.876-.168q.262.076.61.16c.135.03.217.16.184.286a.25.25 0 0 1-.245.18.3.3 0 0 1-.06-.006 12 12 0 0 1-.637-.166.236.236 0 0 1-.167-.297.254.254 0 0 1 .315-.157m10.085-.018c.114.022.2.118.2.232.001.13-.11.237-.25.238l-.441.001h-.23c-.139 0-.252-.106-.252-.237s.113-.238.252-.238h.67zm-1.555-.01c.139 0 .25.109.249.24a.246.246 0 0 1-.252.234h-.003l-.672-.01c-.139-.003-.25-.112-.246-.243.003-.13.107-.211.256-.232q.327.007.668.01m3.006-.02c.164 0 .255.1.259.23.003.13-.106.24-.244.244l-.672.016h-.005c-.137 0-.25-.103-.252-.232a.246.246 0 0 1 .247-.243zm7.698-.182a.26.26 0 0 1 .326.133.234.234 0 0 1-.14.308q-.27.102-.63.209a.25.25 0 0 1-.315-.154.235.235 0 0 1 .165-.298q.34-.102.594-.198m-12.206.17a.243.243 0 0 1 .242.245.246.246 0 0 1-.25.23h-.01l-.672-.025a.245.245 0 0 1-.24-.25c.007-.131.13-.212.264-.225q.323.014.666.024m6.007-.052c.124-.018.256.091.266.222a.243.243 0 0 1-.237.251q-.326.019-.672.034h-.012a.246.246 0 0 1-.251-.225.244.244 0 0 1 .238-.25q.344-.014.668-.032m-7.506-.015c.138.007.244.12.236.25a.247.247 0 0 1-.266.224 43 43 0 0 1-.672-.043c-.139-.01-.243-.124-.233-.254.011-.131.135-.23.27-.22q.322.024.665.043m8.998-.096c.142-.012.262.083.276.214.013.13-.09.246-.227.259q-.325.03-.672.056h-.02a.247.247 0 0 1-.25-.218.24.24 0 0 1 .23-.255q.344-.026.663-.056m-10.494-.011c.139.012.24.127.228.258a.247.247 0 0 1-.275.214q-.351-.03-.672-.064a.24.24 0 0 1-.22-.264c.015-.13.136-.22.278-.21q.316.034.66.066m-5.36-.126c.09-.1.248-.113.354-.029 0 0 .068.049.235.124a.23.23 0 0 1 .119.317.25.25 0 0 1-.228.135.3.3 0 0 1-.107-.023 1.7 1.7 0 0 1-.342-.19.23.23 0 0 1-.03-.334m17.341-.032a.25.25 0 0 1 .285.2.24.24 0 0 1-.212.27 34 34 0 0 1-.701.087.246.246 0 0 1-.25-.208c-.017-.13.082-.249.22-.265q.345-.04.658-.084m-14.123-.1q.308.049.656.095a.24.24 0 0 1 .214.268.25.25 0 0 1-.284.202q-.356-.046-.669-.096a.24.24 0 0 1-.206-.274.25.25 0 0 1 .29-.195m15.59-.15a.25.25 0 0 1 .297.181.24.24 0 0 1-.191.283q-.31.065-.665.126l-.046.003a.25.25 0 0 1-.247-.194.24.24 0 0 1 .202-.278q.345-.058.65-.12m2.665-.048a.264.264 0 0 1 .355 0c.097.092.1.24.004.333-.016.016-.108.1-.32.221a.27.27 0 0 1-.13.034.26.26 0 0 1-.216-.114.23.23 0 0 1 .085-.327c.155-.088.22-.145.222-.147m-19.708-.088q.285.07.642.141a.24.24 0 0 1 .193.281.25.25 0 0 1-.298.184q-.367-.075-.663-.146a.237.237 0 0 1-.18-.29c.035-.128.174-.201.306-.17m18.464-.233c.132-.042.276.024.32.148a.236.236 0 0 1-.155.301q-.288.094-.655.192a.3.3 0 0 1-.068.009.25.25 0 0 1-.242-.174.235.235 0 0 1 .175-.292 12 12 0 0 0 .625-.184m-9.66.091c.14 0 .252.107.252.238s-.113.237-.251.238h-.001l-.65-.006a.244.244 0 0 1-.248-.24c0-.13.113-.235.25-.235h.004zm1.454-.008c.142.012.253.103.256.234.002.13-.11.239-.248.24l-.65.008h-.002c-.138 0-.25-.105-.252-.236 0-.13.113-.238.252-.239zm-2.905-.009c.139.004.25.113.246.244a.246.246 0 0 1-.252.231h-.006l-.65-.017c-.138-.004-.248-.114-.243-.245.004-.13.13-.22.26-.23zm4.355-.03c.128.002.256.095.263.226.006.13-.102.241-.241.248q-.318.013-.65.022h-.008c-.135 0-.247-.102-.252-.23-.003-.131.106-.24.245-.244q.33-.01.643-.023m-6.45-.048q.312.017.644.03a.244.244 0 0 1 .24.249.246.246 0 0 1-.251.226h-.012l-.65-.031c-.138-.008-.245-.12-.237-.25a.237.237 0 0 1 .266-.224m7.898-.03a.243.243 0 0 1 .269.22.24.24 0 0 1-.232.254q-.315.02-.65.04h-.014c-.133 0-.244-.097-.252-.223a.243.243 0 0 1 .236-.251q.33-.018.643-.04m-14.843-.117a.26.26 0 0 1 .344-.083c.077.043.252.132.567.24.13.046.197.181.15.305a.26.26 0 0 1-.323.142 4 4 0 0 1-.65-.279.23.23 0 0 1-.088-.325m6.14.098c.138.01.243.124.233.254a.246.246 0 0 1-.25.22h-.019a38 38 0 0 1-.65-.05.24.24 0 0 1-.228-.258.245.245 0 0 1 .273-.215q.31.026.641.05m10.145-.107c.141-.006.262.08.278.21a.24.24 0 0 1-.222.263 31 31 0 0 1-.672.064.246.246 0 0 1-.251-.215c-.013-.13.09-.246.227-.258q.331-.03.64-.064m-12.225-.089q.305.038.639.072a.24.24 0 0 1 .222.262.25.25 0 0 1-.25.212l-.028-.002a41 41 0 0 1-.647-.073.24.24 0 0 1-.217-.267.246.246 0 0 1 .281-.204m13.655-.097c.138-.016.267.067.29.195a.24.24 0 0 1-.207.274 26 26 0 0 1-.681.096.25.25 0 0 1-.25-.204.24.24 0 0 1 .215-.269q.332-.045.633-.092m3.68-.231a.264.264 0 0 1 .355.002c.097.091.1.239.004.331-.03.029-.195.179-.635.383a.3.3 0 0 1-.11.024.26.26 0 0 1-.227-.133.233.233 0 0 1 .115-.318c.365-.169.497-.288.498-.289m-18.759.114q.292.053.63.105a.24.24 0 0 1 .21.272.25.25 0 0 1-.289.197q-.345-.052-.645-.108a.24.24 0 0 1-.2-.278.25.25 0 0 1 .294-.188m16.489-.151a.25.25 0 0 1 .303.174.237.237 0 0 1-.184.287q-.298.069-.64.136a.25.25 0 0 1-.298-.185c-.029-.128.06-.253.196-.28q.333-.065.623-.132m-17.876-.169q.262.076.61.16c.135.03.217.16.184.286a.25.25 0 0 1-.245.18.3.3 0 0 1-.06-.005 13 13 0 0 1-.637-.167.235.235 0 0 1-.167-.297.253.253 0 0 1 .315-.157m10.087-.018c.114.022.2.118.2.232.002.13-.11.238-.25.238l-.442.002h-.229c-.139 0-.252-.106-.252-.237s.113-.238.252-.238l.67-.001zm-1.557-.01c.139 0 .25.109.249.24a.246.246 0 0 1-.252.234h-.003q-.344-.004-.672-.01c-.138-.003-.249-.11-.246-.242a.234.234 0 0 1 .256-.233q.327.007.668.01m3.006-.02c.164.008.255.099.259.23a.245.245 0 0 1-.244.245q-.328.008-.672.015h-.005c-.137 0-.25-.103-.252-.232-.003-.131.108-.24.247-.242q.341-.007.667-.017m7.696-.181a.26.26 0 0 1 .327.132.234.234 0 0 1-.14.309 9 9 0 0 1-.63.209.252.252 0 0 1-.315-.155.234.234 0 0 1 .165-.297q.34-.102.593-.199m-12.204.17a.243.243 0 0 1 .242.245.246.246 0 0 1-.25.229h-.01l-.672-.025c-.139-.007-.246-.119-.24-.25.007-.13.13-.217.264-.225q.323.015.666.025m6.007-.053c.123-.02.256.091.266.222a.243.243 0 0 1-.237.251l-.672.034h-.012a.246.246 0 0 1-.251-.225.244.244 0 0 1 .238-.25q.344-.014.668-.032m-7.506-.014c.138.007.244.12.236.251a.25.25 0 0 1-.266.223 42 42 0 0 1-.672-.043c-.139-.01-.243-.125-.233-.255a.25.25 0 0 1 .27-.219q.322.024.665.043m9-.096c.142-.01.261.082.275.213a.24.24 0 0 1-.226.259 40 40 0 0 1-.692.058.247.247 0 0 1-.25-.22.24.24 0 0 1 .23-.255q.344-.025.663-.055m-10.496-.012c.139.012.24.127.228.258a.247.247 0 0 1-.275.214q-.351-.03-.672-.064a.24.24 0 0 1-.22-.264c.015-.13.136-.218.278-.209q.316.034.66.065m-5.361-.124a.26.26 0 0 1 .354-.03s.068.048.236.124a.23.23 0 0 1 .119.318.25.25 0 0 1-.228.133.3.3 0 0 1-.108-.023 1.8 1.8 0 0 1-.34-.187.23.23 0 0 1-.033-.335m17.34-.035a.25.25 0 0 1 .285.203.24.24 0 0 1-.211.267 34 34 0 0 1-.702.088.25.25 0 0 1-.25-.208c-.017-.13.081-.249.22-.265q.345-.041.658-.085m-14.12-.1q.306.05.655.097a.24.24 0 0 1 .214.267.25.25 0 0 1-.284.202q-.356-.046-.669-.096c-.137-.022-.23-.144-.206-.274.023-.129.15-.214.29-.195m15.586-.15c.134-.029.27.053.3.181a.24.24 0 0 1-.19.283q-.311.065-.666.126l-.046.004a.25.25 0 0 1-.247-.194.24.24 0 0 1 .202-.278q.345-.059.647-.122m2.668-.046a.264.264 0 0 1 .355 0c.097.091.1.24.004.331-.016.016-.107.101-.32.223a.258.258 0 0 1-.346-.081.23.23 0 0 1 .085-.326c.153-.087.217-.143.222-.147m-19.708-.09q.285.072.642.142a.24.24 0 0 1 .193.282.25.25 0 0 1-.246.188.3.3 0 0 1-.052-.005 17 17 0 0 1-.663-.146.237.237 0 0 1-.18-.29.254.254 0 0 1 .306-.17m18.464-.232c.132-.04.276.023.32.147a.235.235 0 0 1-.155.301q-.288.095-.655.192a.3.3 0 0 1-.068.009.25.25 0 0 1-.242-.173.236.236 0 0 1 .175-.293q.35-.093.625-.183m-9.738.091c.139 0 .252.108.25.24 0 .13-.113.235-.251.235h-.001l-.488-.003a.246.246 0 0 1-.248-.242c.001-.13.113-.234.25-.234h.003zm1.457-.006c.136 0 .248.104.25.234a.245.245 0 0 1-.246.24l-.49.007a.245.245 0 0 1-.252-.237c-.001-.131.112-.238.25-.239l.483-.005zm-3.395-.025.485.013c.139.003.25.112.246.243a.246.246 0 0 1-.252.231h-.006l-.487-.013a.244.244 0 0 1-.245-.244c.004-.13.125-.249.26-.23m4.841-.014a.24.24 0 0 1 .262.228c.006.13-.103.242-.241.248l-.489.016h-.007c-.135 0-.247-.102-.251-.23-.005-.131.104-.24.243-.245zm-5.809-.022c.14.007.247.118.24.249a.246.246 0 0 1-.25.226h-.013l-.485-.023c-.139-.007-.246-.118-.24-.25a.247.247 0 0 1 .264-.225zm7.258-.052c.135-.022.26.09.269.22.01.131-.096.244-.233.253l-.487.03-.016.002a.245.245 0 0 1-.25-.223.24.24 0 0 1 .234-.252zm-14.766-.123a.26.26 0 0 1 .344-.083c.078.042.254.131.569.24.13.045.197.182.15.305a.25.25 0 0 1-.237.155.3.3 0 0 1-.087-.014 4 4 0 0 1-.65-.278.23.23 0 0 1-.09-.325m6.061.093c.138.01.242.123.232.254a.246.246 0 0 1-.27.22l-.487-.038a.24.24 0 0 1-.229-.258c.012-.13.137-.228.273-.216zm10.147-.093c.134-.01.262.08.277.21a.24.24 0 0 1-.223.263l-.485.046-.025.001a.25.25 0 0 1-.25-.213.24.24 0 0 1 .224-.26zm-12.067-.089.48.055a.24.24 0 0 1 .22.262.25.25 0 0 1-.248.211h-.03l-.485-.057a.24.24 0 0 1-.218-.265.25.25 0 0 1 .281-.206m13.5-.094c.134-.018.265.067.288.197a.24.24 0 0 1-.209.272l-.484.07q-.018.002-.036.002a.25.25 0 0 1-.25-.203.24.24 0 0 1 .214-.27q.248-.032.476-.068m3.754-.243a.264.264 0 0 1 .355.001c.097.092.1.239.005.332-.03.028-.196.18-.636.383a.3.3 0 0 1-.11.024.26.26 0 0 1-.226-.133.23.23 0 0 1 .115-.318c.362-.168.494-.286.497-.289m-18.68.128q.225.04.472.08a.24.24 0 0 1 .208.272.25.25 0 0 1-.289.196q-.255-.04-.484-.081a.24.24 0 0 1-.2-.278.247.247 0 0 1 .294-.189m16.337-.148a.25.25 0 0 1 .303.174.24.24 0 0 1-.185.288q-.227.051-.48.102a.3.3 0 0 1-.053.005.25.25 0 0 1-.246-.187.24.24 0 0 1 .193-.283q.246-.05.468-.1m-17.726-.163q.204.057.456.119c.135.032.216.16.182.288a.25.25 0 0 1-.244.178.3.3 0 0 1-.062-.006 10 10 0 0 1-.479-.126.235.235 0 0 1-.167-.296.25.25 0 0 1 .314-.157m9.743-.044c.139 0 .252.106.252.237 0 .13-.113.237-.252.237h-.342a.245.245 0 0 1-.25-.237c0-.131.112-.237.25-.238zm-1.364-.007c.139.001.25.109.249.24a.246.246 0 0 1-.252.234h-.003l-.344-.005a.246.246 0 0 1-.247-.242.245.245 0 0 1 .251-.232h.005zm2.728-.012c.145.025.255.101.258.232s-.107.24-.246.243l-.342.007h-.006a.245.245 0 0 1-.25-.231.245.245 0 0 1 .245-.243zm-4.092-.02a.245.245 0 0 1 .244.246.245.245 0 0 1-.252.229h-.008l-.344-.01c-.139-.006-.247-.118-.241-.249.005-.13.129-.235.262-.227zm12.074-.144c.128-.045.274.014.324.137a.233.233 0 0 1-.145.306q-.21.076-.47.156a.3.3 0 0 1-.077.012.25.25 0 0 1-.24-.164.235.235 0 0 1 .162-.299q.247-.076.446-.148m-6.621.117a.25.25 0 0 1 .263.225.24.24 0 0 1-.237.249l-.343.015h-.012a.245.245 0 0 1-.25-.226.244.244 0 0 1 .239-.248zm-6.814-.028c.139.007.246.119.239.25a.247.247 0 0 1-.266.223l-.344-.02a.24.24 0 0 1-.234-.251.25.25 0 0 1 .266-.222zm8.17-.055a.245.245 0 0 1 .272.218c.011.13-.092.244-.23.256l-.344.024-.018.001a.247.247 0 0 1-.251-.22c-.01-.13.094-.244.232-.254zm-9.867-.064.34.028c.139.01.241.126.23.257a.247.247 0 0 1-.272.217l-.342-.029c-.138-.012-.24-.127-.228-.258a.25.25 0 0 1 .272-.215m11.22-.062a.25.25 0 0 1 .28.208.24.24 0 0 1-.22.263l-.34.038-.03.002a.25.25 0 0 1-.249-.211.243.243 0 0 1 .222-.264zm-16.58-.061a.26.26 0 0 1 .353-.03c.008.005.059.039.167.091a.23.23 0 0 1 .11.319.26.26 0 0 1-.225.13.3.3 0 0 1-.114-.027 1.4 1.4 0 0 1-.258-.15.227.227 0 0 1-.033-.333m4.013-.02.336.04a.24.24 0 0 1 .219.264.247.247 0 0 1-.28.207l-.343-.042a.24.24 0 0 1-.215-.268.244.244 0 0 1 .283-.202m13.907-.103a.25.25 0 0 1 .291.194.24.24 0 0 1-.205.274l-.34.053-.04.003a.25.25 0 0 1-.248-.2.24.24 0 0 1 .209-.272zm-15.242-.104.332.059a.24.24 0 0 1 .204.276.25.25 0 0 1-.293.19l-.338-.06a.24.24 0 0 1-.2-.278c.027-.129.16-.211.295-.187m18.795-.106a.263.263 0 0 1 .355.001.225.225 0 0 1 .002.332 1.4 1.4 0 0 1-.242.174.26.26 0 0 1-.347-.07.23.23 0 0 1 .074-.327c.1-.062.148-.101.158-.11m-2.23-.05c.135-.028.272.048.304.175a.24.24 0 0 1-.184.287q-.162.037-.337.075a.3.3 0 0 1-.056.006.25.25 0 0 1-.246-.185c-.03-.128.055-.255.19-.284zm-17.868-.144q.148.043.32.087a.237.237 0 0 1 .178.292.25.25 0 0 1-.242.174.3.3 0 0 1-.067-.007q-.18-.047-.336-.092a.235.235 0 0 1-.167-.297.25.25 0 0 1 .314-.157m9.6-.036c.14 0 .247.108.247.241a.24.24 0 0 1-.248.235c-.14 0-.255-.108-.255-.235 0-.133.114-.24.255-.24m-1.094-.005c.14 0 .254.108.248.24 0 .133-.115.235-.255.235a.247.247 0 0 1-.248-.241.246.246 0 0 1 .255-.234m2.178 0c.141-.007.255.1.262.234 0 .126-.108.234-.248.24h-.007a.257.257 0 0 1-.255-.234c0-.132.114-.24.248-.24m-3.266-.02a.25.25 0 0 1 .242.248.246.246 0 0 1-.255.227.25.25 0 0 1-.248-.247.25.25 0 0 1 .261-.227m4.359-.013c.134 0 .255.102.262.234 0 .128-.108.24-.242.24h-.013c-.134 0-.248-.1-.248-.226-.007-.133.1-.241.24-.248m-5.45-.024c.14.007.248.12.241.247a.247.247 0 0 1-.26.227c-.142-.006-.25-.114-.243-.247a.25.25 0 0 1 .262-.227m6.537-.019a.25.25 0 0 1 .268.22.25.25 0 0 1-.24.255h-.014c-.128 0-.242-.103-.248-.223a.24.24 0 0 1 .234-.252m6.28-.11a.254.254 0 0 1 .324.136.234.234 0 0 1-.144.307 10 10 0 0 1-.33.113.3.3 0 0 1-.081.013.25.25 0 0 1-.239-.161.234.234 0 0 1 .158-.3q.168-.056.311-.107m-13.904.071a.24.24 0 0 1 .234.253c-.007.127-.12.222-.248.222h-.02a.24.24 0 0 1-.235-.253.254.254 0 0 1 .269-.222m8.71-.037c.14-.007.262.088.275.22a.246.246 0 0 1-.235.255c-.134.011-.26-.09-.268-.215a.23.23 0 0 1 .228-.254zm-9.797-.04c.14.008.24.127.227.254-.006.126-.12.221-.248.221h-.02v-.005c-.14-.013-.241-.128-.228-.254.007-.133.135-.228.269-.215m10.877-.056a.25.25 0 0 1 .281.21.244.244 0 0 1-.222.259c-.013 0-.02.006-.033.006a.25.25 0 0 1-.248-.215.24.24 0 0 1 .222-.26m-11.955-.05c.14.019.234.132.22.265-.013.12-.127.209-.254.209h-.027c-.134-.018-.235-.139-.221-.266.02-.132.148-.221.282-.209m-4.446-.032a.26.26 0 0 1 .35-.03q.007.007.1.058a.23.23 0 0 1 .097.324.25.25 0 0 1-.22.12.3.3 0 0 1-.121-.03c-.128-.067-.178-.108-.178-.108a.23.23 0 0 1-.028-.334m17.48-.056a.247.247 0 0 1 .283.202c.02.126-.074.247-.208.272v-.007a.1.1 0 0 1-.04.007.25.25 0 0 1-.248-.203c-.02-.127.074-.247.214-.266zm-14.108-.052a.24.24 0 0 1 .207.272.25.25 0 0 1-.248.197h-.04a.244.244 0 0 1-.209-.273.245.245 0 0 1 .29-.196m15.168-.126a.26.26 0 0 1 .302.19c.027.126-.06.253-.2.278h-.048a.25.25 0 0 1-.248-.183c-.027-.133.06-.254.194-.285m-16.228-.064c.134.032.221.153.188.285a.25.25 0 0 1-.242.184q-.032.002-.053-.007a.233.233 0 0 1-.195-.278c.034-.133.161-.209.302-.184m19.158-.035a.26.26 0 0 1 .35.002c.097.09.1.238.008.332a1 1 0 0 1-.164.126.263.263 0 0 1-.351-.058.23.23 0 0 1 .06-.33 1 1 0 0 0 .097-.072m-1.885-.136c.134-.031.276.04.316.166a.24.24 0 0 1-.175.29q-.039.012-.067.013a.26.26 0 0 1-.248-.177.24.24 0 0 1 .174-.292m-8.73.007c.114 0 .201.082.201.19 0 .107-.087.19-.201.19s-.201-.083-.201-.19c0-.108.087-.19.201-.19m-9.897.063a.246.246 0 0 1 .315-.152c.134.038.208.171.168.297a.25.25 0 0 1-.316.153.236.236 0 0 1-.168-.298m8.891-.07c.114 0 .201.09.201.197 0 .1-.094.183-.2.183a.197.197 0 0 1-.202-.19c0-.108.094-.19.201-.19m2.005 0c.114 0 .208.082.208.19 0 .101-.087.19-.201.19s-.201-.082-.201-.183c0-.108.087-.197.194-.197m1.006-.018a.193.193 0 0 1 .208.183.2.2 0 0 1-.194.197h-.007c-.107 0-.201-.083-.202-.184-.006-.107.081-.196.195-.196m-4.01-.001c.113.006.2.089.194.196 0 .101-.094.183-.2.184h-.008a.194.194 0 0 1-.194-.19.203.203 0 0 1 .207-.19m-1-.031c.107.007.195.095.189.196 0 .107-.094.183-.202.184h-.006a.204.204 0 0 1-.195-.197.2.2 0 0 1 .214-.183m6.01-.007c.114-.006.207.077.214.178 0 .108-.08.196-.195.203h-.007c-.107 0-.2-.083-.2-.184-.007-.101.074-.19.188-.197m-7.015-.038c.114.006.202.095.189.196 0 .101-.094.183-.202.184h-.006c-.114-.013-.196-.101-.189-.203a.193.193 0 0 1 .208-.177m8.013-.019c.114-.006.208.07.215.178a.194.194 0 0 1-.188.202h-.013c-.101 0-.195-.076-.202-.177a.19.19 0 0 1 .188-.203m-9.005-.05a.194.194 0 0 1 .18.203c-.006.1-.093.176-.2.176h-.013a.195.195 0 0 1-.189-.202c.007-.107.108-.183.222-.178m10.005-.025c.107-.012.208.063.222.164a.196.196 0 0 1-.181.209h-.02c-.108 0-.195-.069-.202-.17-.013-.102.067-.197.18-.203m4.741-.127a.254.254 0 0 1 .328.133c.054.12-.006.26-.14.31a.4.4 0 0 1-.094.013.26.26 0 0 1-.234-.145.24.24 0 0 1 .14-.311m-15.745.063c.107.013.194.108.18.21a.204.204 0 0 1-.22.17c-.114-.012-.195-.107-.182-.209a.2.2 0 0 1 .222-.17m11.996-.044c.107-.013.208.056.222.164.02.1-.061.197-.175.209-.007.006-.013.006-.026.006a.2.2 0 0 1-.195-.17c-.013-.102.06-.197.174-.21m-12.988-.07a.19.19 0 0 1 .175.216.2.2 0 0 1-.202.165c-.006 0-.02-.007-.027-.007a.19.19 0 0 1-.174-.216c.02-.1.12-.17.228-.158m-3.769-.126a.26.26 0 0 1 .276.05.22.22 0 0 1 .073.165c0 .063-.027.12-.073.171a.27.27 0 0 1-.276.05.2.2 0 0 1-.08-.05.241.241 0 0 1-.074-.17c0-.032.007-.065.02-.09a.16.16 0 0 1 .054-.076c.02-.024.054-.038.08-.05m17.743.056c.108-.019.214.05.228.158a.184.184 0 0 1-.16.216q-.023.008-.034.006c-.1 0-.181-.07-.202-.158-.02-.108.054-.203.168-.222m-14.955-.082c.108.018.182.12.161.221a.204.204 0 0 1-.2.159.1.1 0 0 1-.034-.006c-.114-.02-.181-.115-.161-.223a.2.2 0 0 1 .234-.151m15.934-.095c.107-.019.214.045.234.147.027.1-.04.202-.154.227-.013 0-.027.006-.04.006a.2.2 0 0 1-.194-.151c-.027-.102.04-.204.154-.229m-16.905-.095a.185.185 0 0 1 .147.228.204.204 0 0 1-.194.146c-.02 0-.034-.006-.047-.006a.196.196 0 0 1-.154-.235.2.2 0 0 1 .248-.133m19.64-.1a.26.26 0 0 1 .195 0 .3.3 0 0 1 .08.05.22.22 0 0 1 .074.164.25.25 0 0 1-.073.17.27.27 0 0 1-.182.07.2.2 0 0 1-.094-.019.3.3 0 0 1-.08-.05.3.3 0 0 1-.053-.076.3.3 0 0 1-.021-.095q0-.049.02-.088a.16.16 0 0 1 .054-.076c.02-.025.053-.038.08-.05m-1.776-.032a.2.2 0 0 1 .248.126.186.186 0 0 1-.134.234v.007c-.02 0-.04.007-.06.007a.21.21 0 0 1-.195-.14.19.19 0 0 1 .14-.234m-8.806-.07c.087 0 .168.07.168.158 0 .089-.074.159-.168.159-.093 0-.166-.07-.167-.159 0-.089.074-.158.167-.159m-1.367-.008c.094 0 .167.07.167.159s-.08.158-.167.158c-.094-.007-.168-.075-.168-.164 0-.088.08-.159.168-.153m-8.89.051a.204.204 0 0 1 .254-.107c.107.032.16.147.12.241a.195.195 0 0 1-.254.114c-.108-.038-.16-.146-.12-.248m11.62-.056c.093 0 .173.07.173.152a.166.166 0 0 1-.167.164c-.093 0-.168-.069-.168-.158-.006-.083.068-.158.162-.158m-4.091-.032c.093.007.16.082.16.164 0 .09-.08.159-.167.159h-.007c-.094-.007-.161-.076-.161-.165 0-.088.08-.158.175-.158m5.459-.012a.166.166 0 0 1 .173.151c0 .09-.067.165-.16.165-.094.006-.174-.064-.174-.151-.007-.083.067-.159.16-.165m-6.82-.045c.093.006.16.076.154.165a.166.166 0 0 1-.168.152h-.007c-.094-.006-.167-.083-.16-.172.006-.081.087-.152.18-.145m8.173-.03c.094-.008.174.056.18.144a.16.16 0 0 1-.153.172h-.006c-.094 0-.168-.064-.175-.146-.007-.088.067-.164.154-.17m5.648-.102c.1-.044.221 0 .261.101.047.095-.007.202-.107.246-.02.014-.047.014-.074.014a.2.2 0 0 1-.188-.115c-.047-.094.007-.208.108-.246m-15.182.037c.094.007.161.083.154.172-.006.081-.08.144-.168.144h-.013c-.094-.012-.16-.088-.154-.175.007-.083.087-.147.181-.141m10.89-.057c.094-.012.182.051.188.14.013.083-.054.164-.147.17q-.01.009-.02.007a.163.163 0 0 1-.162-.145c-.013-.083.054-.165.14-.172m-12.245-.082c.093.013.16.089.147.177a.17.17 0 0 1-.168.14h-.02a.17.17 0 0 1-.148-.178.17.17 0 0 1 .189-.139m13.591-.095c.094-.013.181.044.195.127a.17.17 0 0 1-.134.189v-.006q-.018.007-.026.006c-.08 0-.155-.057-.168-.133a.16.16 0 0 1 .133-.183m-14.933-.1c.094.012.155.094.135.184-.014.075-.088.126-.168.126h-.027a.163.163 0 0 1-.134-.184.164.164 0 0 1 .194-.126m18.683-.128c.074-.076.201-.075.282-.006.08.076.08.196.007.272a.22.22 0 0 1-.148.057c-.047 0-.1-.019-.14-.05-.074-.076-.081-.197 0-.273m-2.414-.019c.087-.02.181.032.202.114.02.089-.034.17-.127.196h-.035a.17.17 0 0 1-.167-.12.16.16 0 0 1 .127-.19m-17.583-.14c.087.02.14.109.114.197a.164.164 0 0 1-.16.114c-.014 0-.035-.006-.048-.006-.087-.026-.14-.115-.114-.197.027-.088.114-.133.208-.107m18.878-.214a.16.16 0 0 1 .207.095.15.15 0 0 1-.153.209c-.067 0-.134-.038-.154-.102a.157.157 0 0 1 .1-.209zm-20.13-.272c.02.006.04.019.053.03a.15.15 0 0 1 .047.115.15.15 0 0 1-.047.114.2.2 0 0 1-.121.044.18.18 0 0 1-.114-.044.16.16 0 0 1-.054-.114q.002-.066.054-.114a.18.18 0 0 1 .181-.031m21.275-.286a.18.18 0 0 1 .235 0 .15.15 0 0 1 .047.115.15.15 0 0 1-.047.114.2.2 0 0 1-.121.044.18.18 0 0 1-.114-.044.17.17 0 0 1-.054-.114q.001-.066.054-.115" opacity=".6"/><path fill="#C5C5C5" fill-rule="evenodd" d="M52.791 76.754h.188v-.79h-.188zm1.706-.564c-.007-.002-.068-.043-.158-.043-.122 0-.206.091-.206.213 0 .118.081.211.206.211a.3.3 0 0 0 .158-.043v.21a.5.5 0 0 1-.172.03.39.39 0 0 1-.395-.407c0-.238.167-.41.395-.41.088 0 .154.022.172.029zm-1.963 0c-.007-.002-.068-.043-.158-.043-.123 0-.206.091-.206.213 0 .118.081.211.206.211a.3.3 0 0 0 .158-.043v.21a.5.5 0 0 1-.17.03.39.39 0 0 1-.398-.407c0-.238.168-.41.398-.41a.5.5 0 0 1 .17.029zm2.555-.04c-.11 0-.194.096-.194.209 0 .115.083.208.194.208.113 0 .194-.093.194-.208 0-.113-.081-.208-.194-.208m.395.208c0 .225-.165.41-.396.41-.228 0-.393-.185-.393-.41s.165-.407.393-.407c.23 0 .396.182.396.407m-1.789-.215c-.002 0-.081-.024-.147-.024-.077 0-.117.026-.117.065 0 .048.056.064.088.074l.05.02c.124.04.178.129.178.224 0 .2-.163.266-.307.266-.102 0-.195-.021-.206-.024v-.18c.018.005.097.03.179.03.095 0 .137-.03.137-.075 0-.038-.038-.062-.085-.077l-.039-.014c-.106-.036-.194-.1-.194-.232 0-.146.106-.247.28-.247.09 0 .176.024.183.026zm-1.927-1.028a.1.1 0 0 0-.095-.098c-.052 0-.093.043-.093.098v.206c0 .055.04.1.093.1.05 0 .095-.045.095-.1zm.511-.273a.1.1 0 0 0-.095-.098c-.05 0-.093.046-.093.098v.48c0 .055.043.1.093.1.052 0 .095-.046.095-.1zm.513-.372a.096.096 0 0 0-.095-.098.096.096 0 0 0-.092.098v1.05c0 .052.043.097.092.097a.1.1 0 0 0 .095-.098zm.514.372c0-.052-.043-.098-.093-.098a.1.1 0 0 0-.095.098v.48c0 .055.043.1.095.1.05 0 .093-.046.093-.1zm.513.272a.096.096 0 0 0-.095-.098.096.096 0 0 0-.093.098v.206c0 .055.043.101.093.101.052 0 .095-.046.095-.1zm.511-.272a.1.1 0 0 0-.095-.098c-.05 0-.093.046-.093.098v.48c0 .055.043.1.093.1.052 0 .095-.046.095-.1zm.513-.372c0-.055-.04-.098-.092-.098a.096.096 0 0 0-.095.098v1.05c0 .052.043.097.095.097s.092-.045.092-.098zm.514.372a.1.1 0 0 0-.095-.098c-.052 0-.093.046-.093.098v.48c0 .055.04.1.093.1.052 0 .095-.046.095-.1zm.513.272a.096.096 0 0 0-.093-.098.096.096 0 0 0-.095.098v.206c0 .055.043.101.095.101.05 0 .093-.046.093-.1z" clip-rule="evenodd"/><path fill="url(#n)" fill-rule="evenodd" d="M56.39 64.961a2.4 2.4 0 0 1-2.402 2.396 2.4 2.4 0 0 1-2.402-2.396 2.4 2.4 0 0 1 2.402-2.396 2.4 2.4 0 0 1 2.402 2.396" clip-rule="evenodd"/></g><defs><linearGradient id="c" x1="28.666" x2="137.474" y1="37.578" y2="37.578" gradientUnits="userSpaceOnUse"><stop stop-color="#9A9EA1"/><stop offset="1" stop-color="#D3D3D3"/></linearGradient><linearGradient id="d" x1="140.467" x2="140.467" y1="5.75" y2="72.833" gradientUnits="userSpaceOnUse"><stop stop-color="#666"/><stop offset=".294" stop-color="#A0A0A2"/><stop offset="1" stop-color="#696969"/></linearGradient><linearGradient id="e" x1="30.1" x2="30.1" y1="5.75" y2="72.833" gradientUnits="userSpaceOnUse"><stop stop-color="#AAABAD"/><stop offset=".157" stop-color="#DCDCDC"/><stop offset="1" stop-color="#AAABAD"/></linearGradient><linearGradient id="f" x1="-28.667" x2="29.81" y1="39.292" y2="139.248" gradientUnits="userSpaceOnUse"><stop stop-color="#fff" stop-opacity=".4"/><stop offset=".542" stop-color="#fff" stop-opacity=".01"/><stop offset="1" stop-color="#fff" stop-opacity=".4"/></linearGradient><linearGradient id="g" x1="-22.933" x2="29.508" y1="39.292" y2="132.432" gradientUnits="userSpaceOnUse"><stop stop-color="#fff" stop-opacity=".16"/><stop offset="1" stop-opacity=".5"/></linearGradient><linearGradient id="h" x1="-28.667" x2="29.81" y1="39.292" y2="139.248" gradientUnits="userSpaceOnUse"><stop stop-color="#fff" stop-opacity=".08"/><stop offset="1" stop-color="#fff" stop-opacity=".01"/></linearGradient><linearGradient id="j" x1="43" x2="43" y1="44.084" y2="92" gradientUnits="userSpaceOnUse"><stop stop-color="#F5F5F5"/><stop offset="1" stop-color="#D5D5D5"/></linearGradient><linearGradient id="l" x1="43.389" x2="64.963" y1="90.903" y2="90.903" gradientUnits="userSpaceOnUse"><stop stop-color="#F5F5F5"/><stop offset=".196" stop-color="#F5F5F5"/><stop offset=".774" stop-color="#E6E6E6"/><stop offset="1" stop-color="#C8C8C8"/></linearGradient><linearGradient id="m" x1="46.881" x2="46.881" y1="81.779" y2="90.631" gradientUnits="userSpaceOnUse"><stop stop-color="#fff" stop-opacity=".2"/><stop offset="1" stop-color="#707070" stop-opacity=".08"/></linearGradient><linearGradient id="n" x1="56.734" x2="52.828" y1="64.164" y2="61.743" gradientUnits="userSpaceOnUse"><stop stop-color="#F5F5F5"/><stop offset="1" stop-color="#DADADA"/></linearGradient><clipPath id="a"><path fill="#fff" d="M0 0h172v92H0z"/></clipPath><clipPath id="b"><path fill="#fff" d="M28.666 5.75h114.667v67.083H28.666z"/></clipPath><filter id="i" width="22.979" height="47.916" x="43" y="44.084" color-interpolation-filters="sRGB" filterUnits="userSpaceOnUse"><feFlood flood-opacity="0" result="BackgroundImageFix"/><feBlend in="SourceGraphic" in2="BackgroundImageFix" result="shape"/><feColorMatrix in="SourceAlpha" result="hardAlpha" values="0 0 0 0 0 0 0 0 0 0 0 0 0 0 0 0 0 0 127 0"/><feOffset dx="1"/><feGaussianBlur stdDeviation=".5"/><feComposite in2="hardAlpha" k2="-1" k3="1" operator="arithmetic"/><feColorMatrix values="0 0 0 0 0 0 0 0 0 0 0 0 0 0 0 0 0 0 0.04 0"/><feBlend in2="shape" result="effect1_innerShadow_30148_3270"/></filter><filter id="k" width="22.963" height="47.548" x="42.5" y="44.268" color-interpolation-filters="sRGB" filterUnits="userSpaceOnUse"><feFlood flood-opacity="0" result="BackgroundImageFix"/><feColorMatrix in="SourceAlpha" result="hardAlpha" values="0 0 0 0 0 0 0 0 0 0 0 0 0 0 0 0 0 0 127 0"/><feOffset/><feGaussianBlur stdDeviation=".25"/><feColorMatrix values="0 0 0 0 0 0 0 0 0 0 0 0 0 0 0 0 0 0 0.24 0"/><feBlend in2="BackgroundImageFix" result="effect1_dropShadow_30148_3270"/><feBlend in="SourceGraphic" in2="effect1_dropShadow_30148_3270" result="shape"/></filter></defs></svg>