<svg xmlns="http://www.w3.org/2000/svg" width="1080" height="576" fill="none" viewBox="0 0 1080 576"><g clip-path="url(#a)"><path fill="url(#b)" fill-rule="evenodd" d="M988.785 365.844H91.215c-17.24 0-31.215-13.975-31.215-31.215v-93.414C60 223.975 73.975 210 91.215 210h897.57c17.235 0 31.215 13.975 31.215 31.215v93.414c0 17.24-13.98 31.215-31.215 31.215" clip-rule="evenodd"/><path fill="url(#c)" fill-rule="evenodd" d="M988.827 359.609H91.174c-13.774 0-24.94-11.166-24.94-24.94v-93.497c0-13.774 11.166-24.94 24.94-24.94h897.653c13.773 0 24.943 11.166 24.943 24.94v93.497c0 13.774-11.17 24.94-24.943 24.94" clip-rule="evenodd"/><path fill="url(#d)" fill-rule="evenodd" d="M499.488 287.926c0 22.352 18.169 40.519 40.52 40.519 22.35 0 40.519-18.167 40.519-40.519 0-22.353-18.169-40.52-40.519-40.52-22.351 0-40.52 18.167-40.52 40.52" clip-rule="evenodd"/><path fill="#3A3E49" fill-rule="evenodd" d="M555.585 287.922c0 8.595-6.991 15.585-15.585 15.585-8.593 0-15.584-6.99-15.584-15.585 0-8.594 6.991-15.584 15.584-15.584s15.585 6.99 15.585 15.584" clip-rule="evenodd"/><path fill="#fff" fill-rule="evenodd" d="M538.177 277.29c1.211 1.212.22 4.175-2.211 6.606s-5.393 3.422-6.605 2.21-.22-4.174 2.21-6.605 5.394-3.422 6.606-2.211" clip-rule="evenodd" opacity=".5"/><path stroke="#000" stroke-miterlimit="10" stroke-width=".52" d="M539.998 272.338c8.619 0 15.585 6.966 15.585 15.584s-6.966 15.585-15.585 15.585-15.584-6.967-15.584-15.585 6.966-15.584 15.584-15.584Z" clip-rule="evenodd"/><path fill="#000" d="M540.008 251.77c19.936 0 36.156 16.22 36.156 36.156s-16.22 36.156-36.156 36.156-36.156-16.22-36.156-36.156 16.22-36.156 36.156-36.156m0-4.364c-22.351 0-40.52 18.167-40.52 40.52 0 22.352 18.169 40.519 40.52 40.519 22.35 0 40.519-18.167 40.519-40.519 0-22.353-18.169-40.52-40.519-40.52" opacity=".2"/><path fill="url(#e)" d="M540 247.403c22.351 0 40.52 18.167 40.52 40.519 0 22.353-18.169 40.52-40.52 40.52-22.35 0-40.519-18.167-40.519-40.52 0-22.352 18.169-40.519 40.519-40.519m0-4.364c-24.748 0-44.883 20.135-44.883 44.883s20.135 44.883 44.883 44.883 44.883-20.134 44.883-44.883c0-24.748-20.134-44.883-44.883-44.883" opacity=".5"/><path fill="#fff" d="M142.691 290.352h-2.734v10.831h2.734zM164.733 293.453c-.112-.057-.993-.578-2.3-.578-1.767 0-2.993 1.23-2.993 2.889 0 1.61 1.174 2.892 2.993 2.892 1.286 0 2.18-.51 2.3-.575v2.908c-.344.096-1.277.386-2.491.386-3.074 0-5.773-2.12-5.773-5.61 0-3.235 2.442-5.607 5.773-5.607 1.281 0 2.232.312 2.491.389zM136.206 293.453c-.11-.057-.99-.578-2.297-.578-1.77 0-2.995 1.23-2.995 2.889 0 1.61 1.174 2.892 2.995 2.892 1.286 0 2.179-.51 2.297-.575v2.908c-.34.096-1.272.386-2.493.386-3.072 0-5.768-2.12-5.768-5.61 0-3.235 2.442-5.607 5.768-5.607 1.286 0 2.236.312 2.493.389zM179.057 295.765c0 3.099-2.393 5.61-5.725 5.61s-5.721-2.511-5.721-5.61c0-3.094 2.39-5.607 5.721-5.607s5.725 2.513 5.725 5.607m-5.724-2.849c-1.622 0-2.826 1.276-2.826 2.849 0 1.576 1.204 2.851 2.826 2.851 1.62 0 2.827-1.275 2.827-2.851 0-1.573-1.207-2.849-2.827-2.849M153.057 292.813c-.041-.012-1.192-.33-2.137-.33-1.096 0-1.691.367-1.691.887 0 .66.803.89 1.253 1.032l.754.24c1.774.564 2.582 1.779 2.582 3.099 0 2.721-2.393 3.635-4.485 3.635-1.454 0-2.815-.268-2.949-.296v-2.493c.241.062 1.386.403 2.581.403 1.36 0 1.985-.398 1.985-1.011 0-.549-.541-.866-1.219-1.079-.166-.055-.414-.133-.583-.188-1.523-.482-2.793-1.376-2.793-3.17 0-2.026 1.517-3.386 4.037-3.386 1.331 0 2.583.323 2.664.345zM125.049 278.713a1.358 1.358 0 0 0-2.717 0v2.846a1.36 1.36 0 0 0 2.717 0zM132.501 274.978a1.356 1.356 0 0 0-2.714 0v6.575a1.358 1.358 0 0 0 2.714 0zM139.952 269.872c0-.747-.609-1.352-1.357-1.352-.747 0-1.357.605-1.357 1.352v14.383a1.358 1.358 0 0 0 2.714 0zM147.408 274.978a1.357 1.357 0 0 0-2.715 0v6.575a1.358 1.358 0 0 0 2.715 0zM154.853 278.713a1.353 1.353 0 1 0-2.708 0v2.846a1.354 1.354 0 1 0 2.708 0zM162.315 274.978a1.353 1.353 0 1 0-2.706 0v6.575a1.354 1.354 0 1 0 2.706 0zM169.768 269.872a1.352 1.352 0 1 0-2.706 0v14.383a1.354 1.354 0 1 0 2.706 0zM177.226 274.978c0-.747-.605-1.353-1.369-1.353-.748 0-1.353.606-1.353 1.353v6.575c0 .751.605 1.357 1.353 1.357.764 0 1.369-.606 1.369-1.357zM184.667 278.713a1.355 1.355 0 0 0-2.71 0v2.846a1.356 1.356 0 1 0 2.71 0z"/><path fill="#666" d="M539.994 265.581a2.127 2.127 0 0 1-2.127-2.127v-4.581a2.128 2.128 0 0 1 4.254 0v4.581a2.127 2.127 0 0 1-2.127 2.127"/></g><defs><linearGradient id="b" x1="540" x2="540" y1="210" y2="365.844" gradientUnits="userSpaceOnUse"><stop offset="0" stop-color="#EEEDED"/><stop offset="1" stop-color="#C6C6C5"/></linearGradient><linearGradient id="c" x1="540.001" x2="540.001" y1="216.232" y2="359.609" gradientUnits="userSpaceOnUse"><stop offset="0" stop-color="#D8D8D7"/><stop offset="1" stop-color="#898889"/></linearGradient><linearGradient id="d" x1="540.008" x2="540.008" y1="328.445" y2="247.406" gradientUnits="userSpaceOnUse"><stop stop-color="#2B2B2B"/><stop offset=".42" stop-color="#535353"/><stop offset=".58" stop-color="#535353"/><stop offset="1" stop-color="#1C1C1C"/></linearGradient><linearGradient id="e" x1="495.117" x2="584.883" y1="287.922" y2="287.922" gradientUnits="userSpaceOnUse"><stop offset="0" stop-color="#fff"/><stop offset=".695" stop-color="#191919"/><stop offset="1" stop-color="#898889"/></linearGradient><clipPath id="a"><path fill="#fff" d="M0 0h1080v576H0z"/></clipPath></defs></svg>