<svg xmlns="http://www.w3.org/2000/svg" width="1080" height="576" fill="none" viewBox="0 0 1080 576"><g clip-path="url(#a)"><g filter="url(#b)"><path fill="url(#c)" fill-rule="evenodd" d="M1006.29 360H73.714C66.13 360 60 353.831 60 346.2V235.8c0-7.631 6.13-13.8 13.714-13.8h932.576c7.58 0 13.71 6.169 13.71 13.8v110.4c0 7.631-6.13 13.8-13.71 13.8" clip-rule="evenodd"/></g><path fill="#fff" fill-rule="evenodd" d="M86.941 343.294h2.049v-9.149H86.94zm18.617-6.521c-.074-.028-.741-.5-1.728-.5-1.333 0-2.246 1.054-2.246 2.468 0 1.359.889 2.44 2.246 2.44.963 0 1.654-.444 1.728-.499v2.44c-.247.11-.963.332-1.876.332-2.295 0-4.319-1.802-4.319-4.713 0-2.745 1.826-4.741 4.319-4.741.962 0 1.678.25 1.876.333zm-21.436 0c-.074-.028-.74-.5-1.728-.5-1.332 0-2.245 1.054-2.245 2.468 0 1.359.888 2.44 2.245 2.44.963 0 1.654-.444 1.728-.499v2.44c-.247.11-.938.332-1.85.332-2.32 0-4.344-1.802-4.344-4.713 0-2.745 1.826-4.741 4.343-4.741.963 0 1.678.25 1.851.333zm27.899-.459c-1.21 0-2.123 1.109-2.123 2.412 0 1.331.913 2.412 2.123 2.412 1.234 0 2.122-1.081 2.122-2.412 0-1.303-.888-2.412-2.122-2.412m4.322 2.411c0 2.606-1.801 4.741-4.319 4.741-2.492 0-4.294-2.135-4.294-4.741s1.802-4.713 4.294-4.713c2.518 0 4.319 2.107 4.319 4.713m-19.538-2.493c-.025 0-.888-.277-1.604-.277-.839 0-1.283.305-1.283.748 0 .555.617.749.962.86l.543.222c1.358.471 1.95 1.497 1.95 2.606 0 2.301-1.777 3.077-3.357 3.077-1.11 0-2.122-.249-2.245-.277v-2.079c.197.055 1.06.332 1.95.332 1.036 0 1.505-.332 1.505-.859 0-.444-.42-.721-.938-.887-.099-.056-.296-.111-.42-.167-1.16-.416-2.122-1.164-2.122-2.689 0-1.691 1.16-2.856 3.06-2.856.987 0 1.925.278 2 .305zM75.76 324.334c0-.638-.493-1.137-1.036-1.137-.568 0-1.012.499-1.012 1.137v2.384c0 .638.444 1.165 1.012 1.165.543 0 1.036-.527 1.036-1.165zm5.59-3.154c0-.61-.469-1.137-1.036-1.137-.543 0-1.012.527-1.012 1.137v5.545c0 .637.469 1.164 1.012 1.164.567 0 1.036-.527 1.036-1.164zm5.602-4.307c0-.638-.47-1.137-1.037-1.137-.543 0-1.012.499-1.012 1.137v12.144c0 .61.47 1.136 1.012 1.136.568 0 1.037-.526 1.037-1.136zm5.59 4.307c0-.61-.47-1.137-1.012-1.137-.568 0-1.037.527-1.037 1.137v5.545c0 .637.47 1.164 1.037 1.164.543 0 1.011-.527 1.011-1.164zm5.601 3.154c0-.638-.469-1.137-1.036-1.137-.543 0-1.012.499-1.012 1.137v2.384c0 .638.469 1.165 1.012 1.165.567 0 1.036-.527 1.036-1.165zm5.602-3.154c0-.61-.469-1.137-1.037-1.137-.543 0-1.012.527-1.012 1.137v5.545c0 .637.469 1.164 1.012 1.164.568 0 1.037-.527 1.037-1.164zm5.599-4.307c0-.638-.444-1.137-1.012-1.137-.567 0-1.036.499-1.036 1.137v12.144c0 .61.469 1.136 1.036 1.136s1.012-.526 1.012-1.136zm5.615 4.307c0-.61-.468-1.137-1.036-1.137s-1.012.527-1.012 1.137v5.545c0 .637.444 1.164 1.012 1.164s1.036-.527 1.036-1.164zm5.59 3.154c0-.638-.469-1.137-1.012-1.137-.567 0-1.036.499-1.036 1.137v2.384c0 .638.469 1.165 1.036 1.165.543 0 1.012-.527 1.012-1.165z" clip-rule="evenodd"/><path fill="#666" fill-rule="evenodd" d="M540 312c-13.234 0-24-10.766-24-24s10.766-24 24-24 24 10.766 24 24-10.766 24-24 24" clip-rule="evenodd"/><g filter="url(#d)"><path fill="url(#e)" fill-rule="evenodd" d="M540 253.5c-19.03 0-34.5 15.47-34.5 34.5s15.47 34.5 34.5 34.5 34.5-15.47 34.5-34.5-15.47-34.5-34.5-34.5m-.005 20.701c7.632 0 13.8 6.169 13.8 13.8s-6.168 13.8-13.8 13.8c-7.631 0-13.8-6.168-13.8-13.8 0-7.631 6.169-13.8 13.8-13.8" clip-rule="evenodd"/></g><circle cx="540.004" cy="288" r="16" fill="#000" fill-opacity=".4" stroke="#fff" stroke-opacity=".08"/><circle cx="540" cy="288" r="36" stroke="#fff" stroke-opacity=".4"/></g><defs><linearGradient id="c" x1="60" x2="60" y1="222" y2="360" gradientUnits="userSpaceOnUse"><stop stop-color="#DFDFDF"/><stop offset="1" stop-color="#7E7E7E"/></linearGradient><linearGradient id="e" x1="505.5" x2="574.5" y1="322.5" y2="322.5" gradientUnits="userSpaceOnUse"><stop stop-color="#2B2B2B"/><stop offset=".564" stop-color="#4F4F4F"/><stop offset=".676" stop-color="#535353"/><stop offset=".761" stop-color="#4A4A4A"/><stop offset="1" stop-color="#1C1C1C"/></linearGradient><filter id="b" width="960" height="138" x="60" y="222" color-interpolation-filters="sRGB" filterUnits="userSpaceOnUse"><feFlood flood-opacity="0" result="BackgroundImageFix"/><feBlend in="SourceGraphic" in2="BackgroundImageFix" result="shape"/><feColorMatrix in="SourceAlpha" result="hardAlpha" values="0 0 0 0 0 0 0 0 0 0 0 0 0 0 0 0 0 0 127 0"/><feOffset dy="-1"/><feComposite in2="hardAlpha" k2="-1" k3="1" operator="arithmetic"/><feColorMatrix values="0 0 0 0 0 0 0 0 0 0 0 0 0 0 0 0 0 0 0.24 0"/><feBlend in2="shape" result="effect1_innerShadow_23746_2125"/><feColorMatrix in="SourceAlpha" result="hardAlpha" values="0 0 0 0 0 0 0 0 0 0 0 0 0 0 0 0 0 0 127 0"/><feOffset dy="1"/><feComposite in2="hardAlpha" k2="-1" k3="1" operator="arithmetic"/><feColorMatrix values="0 0 0 0 1 0 0 0 0 1 0 0 0 0 1 0 0 0 0.500906 0"/><feBlend in2="effect1_innerShadow_23746_2125" result="effect2_innerShadow_23746_2125"/><feColorMatrix in="SourceAlpha" result="hardAlpha" values="0 0 0 0 0 0 0 0 0 0 0 0 0 0 0 0 0 0 127 0"/><feOffset dy="1"/><feComposite in2="hardAlpha" k2="-1" k3="1" operator="arithmetic"/><feColorMatrix values="0 0 0 0 0 0 0 0 0 0 0 0 0 0 0 0 0 0 0.08 0"/><feBlend in2="effect2_innerShadow_23746_2125" result="effect3_innerShadow_23746_2125"/></filter><filter id="d" width="69" height="72" x="505.5" y="250.5" color-interpolation-filters="sRGB" filterUnits="userSpaceOnUse"><feFlood flood-opacity="0" result="BackgroundImageFix"/><feBlend in="SourceGraphic" in2="BackgroundImageFix" result="shape"/><feColorMatrix in="SourceAlpha" result="hardAlpha" values="0 0 0 0 0 0 0 0 0 0 0 0 0 0 0 0 0 0 127 0"/><feOffset dy="-3"/><feGaussianBlur stdDeviation="2.5"/><feComposite in2="hardAlpha" k2="-1" k3="1" operator="arithmetic"/><feColorMatrix values="0 0 0 0 0 0 0 0 0 0 0 0 0 0 0 0 0 0 0.5 0"/><feBlend in2="shape" result="effect1_innerShadow_23746_2125"/></filter><clipPath id="a"><path fill="#fff" d="M0 0h1080v576H0z"/></clipPath></defs></svg>