<svg width="180" height="96" viewBox="0 0 180 96" fill="none" xmlns="http://www.w3.org/2000/svg">
<g clip-path="url(#clip0_23746_2125)">
<g filter="url(#filter0_iii_23746_2125)">
<path fill-rule="evenodd" clip-rule="evenodd" d="M167.714 60H12.2857C11.0217 60 10 58.9719 10 57.7V39.3C10 38.0281 11.0217 37 12.2857 37H167.714C168.978 37 170 38.0281 170 39.3V57.7C170 58.9719 168.978 60 167.714 60Z" fill="url(#paint0_linear_23746_2125)"/>
</g>
<path fill-rule="evenodd" clip-rule="evenodd" d="M14.4902 57.2157H14.8316V55.6908H14.4902V57.2157ZM17.593 56.1288C17.5807 56.1242 17.4696 56.0456 17.3051 56.0456C17.083 56.0456 16.9308 56.2212 16.9308 56.4569C16.9308 56.6833 17.0789 56.8635 17.3051 56.8635C17.4655 56.8635 17.5807 56.7896 17.593 56.7803V57.187C17.5519 57.2055 17.4326 57.2424 17.2804 57.2424C16.8979 57.2424 16.5607 56.9421 16.5607 56.4569C16.5607 55.9994 16.865 55.6667 17.2804 55.6667C17.4408 55.6667 17.5601 55.7083 17.593 55.7222V56.1288ZM14.0204 56.1288C14.0081 56.1242 13.897 56.0456 13.7325 56.0456C13.5104 56.0456 13.3582 56.2212 13.3582 56.4569C13.3582 56.6833 13.5063 56.8635 13.7325 56.8635C13.8929 56.8635 14.0081 56.7896 14.0204 56.7803V57.187C13.9793 57.2055 13.8641 57.2424 13.712 57.2424C13.3253 57.2424 12.9881 56.9421 12.9881 56.4569C12.9881 55.9994 13.2924 55.6667 13.712 55.6667C13.8724 55.6667 13.9916 55.7083 14.0204 55.7222V56.1288ZM18.6701 56.0521C18.4686 56.0521 18.3164 56.237 18.3164 56.4542C18.3164 56.676 18.4686 56.8562 18.6701 56.8562C18.8758 56.8562 19.0239 56.676 19.0239 56.4542C19.0239 56.237 18.8758 56.0521 18.6701 56.0521ZM19.3905 56.4541C19.3905 56.8885 19.0903 57.2443 18.6708 57.2443C18.2553 57.2443 17.9551 56.8885 17.9551 56.4541C17.9551 56.0198 18.2553 55.6686 18.6708 55.6686C19.0903 55.6686 19.3905 56.0198 19.3905 56.4541ZM16.1342 56.0387C16.1301 56.0387 15.9861 55.9925 15.8668 55.9925C15.727 55.9925 15.653 56.0434 15.653 56.1173C15.653 56.2097 15.7558 56.242 15.8134 56.2605L15.9039 56.2975C16.1301 56.3761 16.2288 56.547 16.2288 56.7319C16.2288 57.1154 15.9327 57.2448 15.6694 57.2448C15.4843 57.2448 15.3157 57.2032 15.2951 57.1986V56.852C15.328 56.8612 15.472 56.9074 15.6201 56.9074C15.7928 56.9074 15.871 56.852 15.871 56.7642C15.871 56.6903 15.801 56.6441 15.7147 56.6163C15.6982 56.6071 15.6653 56.5979 15.6447 56.5886C15.4514 56.5193 15.291 56.3945 15.291 56.1404C15.291 55.8585 15.4843 55.6644 15.801 55.6644C15.9656 55.6644 16.1219 55.7107 16.1342 55.7153V56.0387ZM12.6265 54.0555C12.6265 53.9492 12.5443 53.866 12.4538 53.866C12.3592 53.866 12.2852 53.9492 12.2852 54.0555V54.4529C12.2852 54.5592 12.3592 54.647 12.4538 54.647C12.5443 54.647 12.6265 54.5592 12.6265 54.4529V54.0555ZM13.5582 53.5297C13.5582 53.428 13.48 53.3402 13.3854 53.3402C13.295 53.3402 13.2168 53.428 13.2168 53.5297V54.4538C13.2168 54.5601 13.295 54.6479 13.3854 54.6479C13.48 54.6479 13.5582 54.5601 13.5582 54.4538V53.5297ZM14.4918 52.812C14.4918 52.7057 14.4136 52.6226 14.319 52.6226C14.2285 52.6226 14.1504 52.7057 14.1504 52.812V54.836C14.1504 54.9376 14.2285 55.0254 14.319 55.0254C14.4136 55.0254 14.4918 54.9376 14.4918 54.836V52.812ZM15.4234 53.5297C15.4234 53.428 15.3453 53.3402 15.2548 53.3402C15.1602 53.3402 15.082 53.428 15.082 53.5297V54.4538C15.082 54.5601 15.1602 54.6479 15.2548 54.6479C15.3453 54.6479 15.4234 54.5601 15.4234 54.4538V53.5297ZM16.357 54.0556C16.357 53.9493 16.2789 53.8661 16.1843 53.8661C16.0938 53.8661 16.0156 53.9493 16.0156 54.0556V54.4529C16.0156 54.5592 16.0938 54.647 16.1843 54.647C16.2789 54.647 16.357 54.5592 16.357 54.4529V54.0556ZM17.2906 53.5297C17.2906 53.428 17.2125 53.3402 17.1179 53.3402C17.0274 53.3402 16.9492 53.428 16.9492 53.5297V54.4538C16.9492 54.5601 17.0274 54.6479 17.1179 54.6479C17.2125 54.6479 17.2906 54.5601 17.2906 54.4538V53.5297ZM18.224 52.812C18.224 52.7057 18.1499 52.6226 18.0553 52.6226C17.9607 52.6226 17.8826 52.7057 17.8826 52.812V54.8359C17.8826 54.9376 17.9607 55.0254 18.0553 55.0254C18.1499 55.0254 18.224 54.9376 18.224 54.8359V52.812ZM19.1597 53.5297C19.1597 53.428 19.0815 53.3402 18.9869 53.3402C18.8923 53.3402 18.8183 53.428 18.8183 53.5297V54.4538C18.8183 54.5601 18.8923 54.6479 18.9869 54.6479C19.0815 54.6479 19.1597 54.5601 19.1597 54.4538V53.5297ZM20.0914 54.0556C20.0914 53.9493 20.0132 53.8661 19.9228 53.8661C19.8282 53.8661 19.75 53.9493 19.75 54.0556V54.4529C19.75 54.5592 19.8282 54.647 19.9228 54.647C20.0132 54.647 20.0914 54.5592 20.0914 54.4529V54.0556Z" fill="white"/>
<path fill-rule="evenodd" clip-rule="evenodd" d="M90 52C87.7943 52 86 50.2057 86 48C86 45.7943 87.7943 44 90 44C92.2057 44 94 45.7943 94 48C94 50.2057 92.2057 52 90 52Z" fill="#666666"/>
<g filter="url(#filter1_i_23746_2125)">
<path fill-rule="evenodd" clip-rule="evenodd" d="M90 42.25C86.8283 42.25 84.25 44.8283 84.25 48C84.25 51.1717 86.8283 53.75 90 53.75C93.1717 53.75 95.75 51.1717 95.75 48C95.75 44.8283 93.1717 42.25 90 42.25ZM89.9992 45.7001C91.2711 45.7001 92.2992 46.7282 92.2992 48.0001C92.2992 49.272 91.2711 50.3001 89.9992 50.3001C88.7273 50.3001 87.6992 49.272 87.6992 48.0001C87.6992 46.7282 88.7273 45.7001 89.9992 45.7001Z" fill="url(#paint1_linear_23746_2125)"/>
</g>
<circle cx="90.0006" cy="48.0002" r="2.66667" fill="black" fill-opacity="0.4" stroke="white" stroke-opacity="0.08"/>
<circle cx="90" cy="48" r="6" stroke="white" stroke-opacity="0.4"/>
</g>
<defs>
<filter id="filter0_iii_23746_2125" x="10" y="37" width="160" height="23" filterUnits="userSpaceOnUse" color-interpolation-filters="sRGB">
<feFlood flood-opacity="0" result="BackgroundImageFix"/>
<feBlend mode="normal" in="SourceGraphic" in2="BackgroundImageFix" result="shape"/>
<feColorMatrix in="SourceAlpha" type="matrix" values="0 0 0 0 0 0 0 0 0 0 0 0 0 0 0 0 0 0 127 0" result="hardAlpha"/>
<feOffset dy="-1"/>
<feComposite in2="hardAlpha" operator="arithmetic" k2="-1" k3="1"/>
<feColorMatrix type="matrix" values="0 0 0 0 0 0 0 0 0 0 0 0 0 0 0 0 0 0 0.24 0"/>
<feBlend mode="normal" in2="shape" result="effect1_innerShadow_23746_2125"/>
<feColorMatrix in="SourceAlpha" type="matrix" values="0 0 0 0 0 0 0 0 0 0 0 0 0 0 0 0 0 0 127 0" result="hardAlpha"/>
<feOffset dy="1"/>
<feComposite in2="hardAlpha" operator="arithmetic" k2="-1" k3="1"/>
<feColorMatrix type="matrix" values="0 0 0 0 1 0 0 0 0 1 0 0 0 0 1 0 0 0 0.500906 0"/>
<feBlend mode="normal" in2="effect1_innerShadow_23746_2125" result="effect2_innerShadow_23746_2125"/>
<feColorMatrix in="SourceAlpha" type="matrix" values="0 0 0 0 0 0 0 0 0 0 0 0 0 0 0 0 0 0 127 0" result="hardAlpha"/>
<feOffset dy="1"/>
<feComposite in2="hardAlpha" operator="arithmetic" k2="-1" k3="1"/>
<feColorMatrix type="matrix" values="0 0 0 0 0 0 0 0 0 0 0 0 0 0 0 0 0 0 0.08 0"/>
<feBlend mode="normal" in2="effect2_innerShadow_23746_2125" result="effect3_innerShadow_23746_2125"/>
</filter>
<filter id="filter1_i_23746_2125" x="84.25" y="39.25" width="11.5" height="14.5" filterUnits="userSpaceOnUse" color-interpolation-filters="sRGB">
<feFlood flood-opacity="0" result="BackgroundImageFix"/>
<feBlend mode="normal" in="SourceGraphic" in2="BackgroundImageFix" result="shape"/>
<feColorMatrix in="SourceAlpha" type="matrix" values="0 0 0 0 0 0 0 0 0 0 0 0 0 0 0 0 0 0 127 0" result="hardAlpha"/>
<feOffset dy="-3"/>
<feGaussianBlur stdDeviation="2.5"/>
<feComposite in2="hardAlpha" operator="arithmetic" k2="-1" k3="1"/>
<feColorMatrix type="matrix" values="0 0 0 0 0 0 0 0 0 0 0 0 0 0 0 0 0 0 0.5 0"/>
<feBlend mode="normal" in2="shape" result="effect1_innerShadow_23746_2125"/>
</filter>
<linearGradient id="paint0_linear_23746_2125" x1="10" y1="37" x2="10" y2="60" gradientUnits="userSpaceOnUse">
<stop stop-color="#DFDFDF"/>
<stop offset="1" stop-color="#7E7E7E"/>
</linearGradient>
<linearGradient id="paint1_linear_23746_2125" x1="84.25" y1="53.75" x2="95.75" y2="53.75" gradientUnits="userSpaceOnUse">
<stop stop-color="#2B2B2B"/>
<stop offset="0.563674" stop-color="#4F4F4F"/>
<stop offset="0.675635" stop-color="#535353"/>
<stop offset="0.761335" stop-color="#4A4A4A"/>
<stop offset="1" stop-color="#1C1C1C"/>
</linearGradient>
<clipPath id="clip0_23746_2125">
<rect width="180" height="96" fill="white"/>
</clipPath>
</defs>
</svg>
