<svg width="1080" height="576" viewBox="0 0 1080 576" fill="none" xmlns="http://www.w3.org/2000/svg">
<g clip-path="url(#clip0_23746_2134)">
<g clip-path="url(#clip1_23746_2134)">
<rect x="180" y="36" width="720" height="420" fill="url(#paint0_linear_23746_2134)"/>
<path opacity="0.2" fill-rule="evenodd" clip-rule="evenodd" d="M882 54L900 36V456L882 438V54Z" fill="url(#paint1_linear_23746_2134)"/>
<path opacity="0.6" fill-rule="evenodd" clip-rule="evenodd" d="M198 54L180 36V456L198 438V54Z" fill="url(#paint2_linear_23746_2134)"/>
<rect x="180.25" y="36.25" width="719.5" height="419.5" stroke="black" stroke-opacity="0.24" stroke-width="0.5"/>
<rect x="180.25" y="36.25" width="719.5" height="419.5" stroke="url(#paint3_linear_23746_2134)" stroke-width="0.5"/>
<rect x="198" y="54" width="684" height="384" fill="#222222"/>
<rect x="198" y="54" width="684" height="384" fill="url(#paint4_linear_23746_2134)"/>
<rect x="198" y="54" width="684" height="384" stroke="white" stroke-opacity="0.24" stroke-width="0.5"/>
<rect x="180" y="36" width="720" height="420" fill="url(#paint5_linear_23746_2134)"/>
<path d="M539.553 211H538.623V201.983H535.314V201.136H542.861V201.983H539.553V211ZM548.59 211H547.66L543.969 201.136H544.953L548.077 209.776H548.166L551.29 201.136H552.274L548.59 211Z" fill="white" fill-opacity="0.24"/>
</g>
<g filter="url(#filter0_i_23746_2134)">
<path fill-rule="evenodd" clip-rule="evenodd" d="M407.952 563.143C407.952 563.143 407.952 576 339 576C270.048 576 270.048 563.143 270.048 563.143V280.286C270.048 280.286 265.738 276 339 276C412.262 276 407.952 280.286 407.952 280.286V563.143Z" fill="url(#paint6_linear_23746_2134)"/>
</g>
<g filter="url(#filter1_d_23746_2134)">
<path fill-rule="evenodd" clip-rule="evenodd" d="M407.904 559.045C407.904 559.045 407.904 571.714 338.952 571.714C270 571.714 270 559.045 270 559.045V280.285H407.904V559.045Z" fill="url(#paint7_linear_23746_2134)"/>
</g>
<path fill-rule="evenodd" clip-rule="evenodd" d="M407.904 555.504C407.904 555.504 407.904 567.427 338.952 567.427C270 567.427 270 555.504 270 555.504V481.713C270 481.713 282.929 490.284 338.952 490.284C394.976 490.284 407.904 481.713 407.904 481.713V555.504Z" fill="url(#paint8_linear_23746_2134)"/>
<path opacity="0.6" d="M341.708 564.444C342.579 564.444 343.282 565.106 343.286 565.923C343.29 566.743 342.588 567.413 341.712 567.417L338.941 567.426H337.497C336.625 567.426 335.918 566.759 335.918 565.938C335.918 565.118 336.626 564.452 337.497 564.452L341.703 564.444H341.708ZM328.069 564.346C329.438 564.373 330.832 564.397 332.264 564.413C333.135 564.421 333.834 565.094 333.825 565.915C333.813 566.731 333.109 567.386 332.246 567.386H332.226C330.786 567.37 329.379 567.346 328.007 567.318C327.135 567.302 326.44 566.624 326.461 565.804C326.478 564.987 327.131 564.433 328.069 564.346ZM351.138 564.284C352.169 564.351 352.738 564.902 352.764 565.722C352.789 566.543 352.102 567.229 351.23 567.257C349.858 567.296 348.452 567.332 347.012 567.356H346.978C346.123 567.356 345.419 566.71 345.398 565.901C345.382 565.081 346.077 564.4 346.948 564.384C348.376 564.36 349.774 564.324 351.138 564.284ZM318.649 564.053C320.005 564.116 321.399 564.163 322.83 564.211C323.702 564.239 324.384 564.928 324.354 565.749C324.325 566.553 323.622 567.183 322.775 567.183H322.726C321.273 567.136 319.862 567.089 318.498 567.025C317.627 566.982 316.952 566.284 316.994 565.464C317.04 564.647 317.811 564.084 318.649 564.053ZM360.545 563.884C361.324 563.737 362.162 564.459 362.217 565.279C362.267 566.1 361.606 566.801 360.734 566.848C359.366 566.928 357.96 566.995 356.512 567.066H356.432C355.598 567.066 354.899 566.444 354.856 565.651C354.814 564.831 355.489 564.133 356.36 564.094C357.796 564.03 359.189 563.963 360.545 563.884ZM309.236 563.529C310.579 563.624 311.969 563.711 313.409 563.794C314.281 563.841 314.942 564.544 314.892 565.364C314.841 566.157 314.146 566.763 313.316 566.763C313.283 566.763 313.253 566.764 313.22 566.76C311.763 566.68 310.356 566.589 308.996 566.494C308.129 566.43 307.476 565.713 307.539 564.896C307.611 564.076 308.386 563.43 309.236 563.529ZM369.918 563.197C370.811 563.114 371.56 563.713 371.645 564.533C371.729 565.35 371.093 566.079 370.226 566.154C368.866 566.277 367.464 566.401 366.007 566.508C365.965 566.512 365.922 566.512 365.88 566.512C365.063 566.511 364.373 565.92 364.306 565.139C364.238 564.323 364.887 563.609 365.754 563.542C367.194 563.435 368.579 563.32 369.918 563.197ZM299.872 562.715C301.194 562.861 302.579 562.996 304.023 563.123C304.895 563.198 305.531 563.92 305.451 564.74C305.375 565.513 304.685 566.088 303.881 566.088C303.83 566.088 303.78 566.084 303.733 566.08C302.264 565.953 300.857 565.818 299.514 565.676C298.646 565.58 298.024 564.843 298.125 564.026C298.222 563.21 298.984 562.663 299.872 562.715ZM379.255 562.136C380.126 562.009 380.923 562.58 381.045 563.392C381.171 564.201 380.573 564.958 379.71 565.077C378.375 565.259 376.973 565.442 375.508 565.612C375.445 565.62 375.377 565.624 375.31 565.624C374.526 565.624 373.844 565.073 373.747 564.32C373.638 563.508 374.253 562.762 375.12 562.663C376.56 562.492 377.941 562.318 379.255 562.136ZM290.576 561.513C291.865 561.716 293.234 561.913 294.69 562.107C295.553 562.218 296.155 562.972 296.037 563.784C295.923 564.525 295.25 565.064 294.476 565.064C294.404 565.064 294.328 565.061 294.252 565.049C292.761 564.854 291.363 564.652 290.054 564.446C289.195 564.311 288.615 563.543 288.762 562.73C288.901 561.922 289.709 561.395 290.576 561.513ZM388.459 560.571C389.314 560.405 390.152 560.908 390.337 561.705C390.522 562.509 389.982 563.298 389.128 563.472C387.827 563.742 386.437 564.004 384.951 564.262C384.854 564.277 384.762 564.285 384.665 564.285C383.916 564.285 383.255 563.782 383.111 563.064C382.956 562.256 383.528 561.479 384.383 561.332C385.831 561.086 387.192 560.829 388.459 560.571ZM279.531 560.781C279.754 559.988 280.622 559.524 281.456 559.715C282.656 560.012 283.991 560.313 285.481 560.606C286.336 560.777 286.879 561.566 286.698 562.367C286.542 563.068 285.885 563.548 285.157 563.548C285.048 563.548 284.938 563.536 284.829 563.516C283.284 563.207 281.902 562.898 280.664 562.597C279.818 562.386 279.312 561.578 279.531 560.781ZM397.392 558.261C398.221 557.999 399.117 558.408 399.399 559.18C399.681 559.961 399.244 560.805 398.419 561.071C397.211 561.464 395.846 561.868 394.313 562.272C394.17 562.308 394.027 562.323 393.888 562.323C393.197 562.323 392.562 561.895 392.368 561.237C392.132 560.448 392.625 559.628 393.463 559.406C394.932 559.018 396.238 558.637 397.392 558.261ZM336.74 558.833C337.612 558.837 338.315 559.503 338.315 560.323C338.311 561.144 337.604 561.806 336.736 561.806H336.732L332.647 561.774C331.776 561.762 331.077 561.089 331.09 560.268C331.098 559.456 331.806 558.802 332.669 558.802H332.689L336.74 558.833ZM345.863 558.781C346.756 558.73 347.451 559.423 347.468 560.244C347.48 561.064 346.785 561.742 345.914 561.754L341.83 561.798H341.821C340.954 561.798 340.247 561.14 340.242 560.319C340.238 559.499 340.941 558.828 341.812 558.824L345.863 558.781ZM327.618 558.717C328.49 558.736 329.18 559.419 329.163 560.239C329.142 561.048 328.439 561.689 327.584 561.689H327.547L323.467 561.587C322.595 561.559 321.908 560.873 321.937 560.053C321.967 559.232 322.759 558.681 323.563 558.614L327.618 558.717ZM354.971 558.531C355.771 558.591 356.578 559.131 356.616 559.951C356.654 560.771 355.977 561.465 355.105 561.505C353.779 561.56 352.414 561.604 351.02 561.643H350.975C350.124 561.643 349.421 561.005 349.395 560.2C349.37 559.38 350.056 558.694 350.928 558.67C352.309 558.63 353.657 558.587 354.971 558.531ZM312.8 559.632C312.85 558.811 313.566 558.062 314.467 558.236C315.776 558.307 317.124 558.367 318.509 558.427C319.38 558.466 320.059 559.156 320.017 559.976C319.983 560.777 319.284 561.399 318.441 561.399H318.37C316.972 561.34 315.612 561.272 314.29 561.201C313.418 561.153 312.753 560.456 312.8 559.632ZM364.058 558.046C364.921 557.974 365.683 558.604 365.746 559.421C365.809 560.241 365.153 560.955 364.285 561.011C362.963 561.102 361.607 561.185 360.205 561.264C360.176 561.268 360.142 561.268 360.112 561.268C359.283 561.268 358.584 560.658 358.538 559.869C358.483 559.049 359.148 558.347 360.02 558.3C361.405 558.22 362.752 558.137 364.058 558.046ZM270.855 557.318C271.298 556.609 272.266 556.371 273.016 556.799C273.5 557.064 274.599 557.619 276.578 558.301C277.399 558.582 277.817 559.439 277.518 560.208C277.282 560.814 276.679 561.186 276.035 561.186C275.854 561.186 275.673 561.159 275.492 561.096C273.387 560.366 272.106 559.744 271.403 559.355C270.654 558.935 270.41 558.024 270.855 557.318ZM305.384 557.615C306.681 557.722 308.024 557.83 309.413 557.925C310.285 557.988 310.937 558.698 310.874 559.514C310.811 560.299 310.12 560.893 309.304 560.893C309.262 560.893 309.223 560.893 309.186 560.889C307.775 560.794 306.419 560.687 305.105 560.58C304.238 560.505 303.598 559.783 303.674 558.967C303.746 558.146 304.495 557.52 305.384 557.615ZM373.111 557.263C374 557.212 374.761 557.763 374.858 558.575C374.955 559.388 374.332 560.129 373.469 560.221C372.159 560.359 370.799 560.49 369.393 560.617C369.342 560.621 369.292 560.625 369.241 560.625C368.437 560.625 367.751 560.046 367.671 559.277C367.591 558.461 368.227 557.735 369.094 557.66C370.483 557.533 371.823 557.402 373.111 557.263ZM296.36 556.699C297.632 556.858 298.967 557.008 300.365 557.151C301.232 557.246 301.855 557.975 301.759 558.792C301.67 559.557 300.988 560.116 300.192 560.116C300.138 560.116 300.075 560.112 300.016 560.108C298.597 559.958 297.241 559.807 295.948 559.648C295.081 559.541 294.474 558.792 294.588 557.979C294.702 557.167 295.476 556.592 296.36 556.699ZM382.096 556.097C382.959 555.991 383.771 556.514 383.914 557.318C384.061 558.131 383.476 558.895 382.617 559.034C381.333 559.232 379.977 559.431 378.559 559.617C378.483 559.629 378.412 559.633 378.336 559.633C377.561 559.633 376.887 559.094 376.773 558.352C376.651 557.54 377.254 556.787 378.121 556.676C379.51 556.489 380.837 556.3 382.096 556.097ZM405.201 554.647C405.82 554.089 406.813 554.077 407.424 554.66C408.034 555.231 408.051 556.154 407.449 556.732C407.268 556.911 406.228 557.85 403.466 559.127C403.243 559.226 403.007 559.277 402.771 559.277C402.19 559.277 401.626 558.972 401.353 558.445C400.969 557.708 401.294 556.82 402.077 556.455C404.367 555.397 405.193 554.655 405.201 554.647ZM285.567 556.54C285.732 555.735 286.561 555.197 287.416 555.363C288.641 555.585 289.955 555.806 291.37 556.02C292.233 556.151 292.819 556.913 292.68 557.725C292.553 558.455 291.883 558.973 291.121 558.973C291.037 558.973 290.953 558.966 290.869 558.954C289.421 558.732 288.073 558.51 286.818 558.28C285.959 558.126 285.403 557.349 285.567 556.54ZM390.944 554.417C391.791 554.219 392.645 554.707 392.852 555.508C393.058 556.304 392.54 557.108 391.693 557.303C390.447 557.588 389.108 557.878 387.668 558.155C387.559 558.175 387.454 558.187 387.349 558.187C386.616 558.187 385.954 557.703 385.803 556.998C385.626 556.197 386.178 555.412 387.032 555.246C388.43 554.972 389.732 554.694 390.944 554.417ZM276.727 554.345C276.979 553.564 277.864 553.108 278.697 553.362C279.8 553.679 281.072 554.015 282.533 554.356C283.379 554.554 283.893 555.363 283.683 556.156C283.506 556.834 282.862 557.286 282.154 557.286C282.028 557.286 281.897 557.27 281.77 557.242C280.246 556.885 278.92 556.537 277.77 556.204C276.937 555.962 276.47 555.129 276.727 554.345ZM341.719 553.218C342.586 553.218 343.294 553.88 343.298 554.696C343.302 555.517 342.599 556.186 341.724 556.19L338.948 556.198H337.509C336.637 556.198 335.93 555.532 335.93 554.712C335.93 553.891 336.637 553.225 337.509 553.225L341.711 553.218H341.719ZM328.073 553.114C329.437 553.142 330.835 553.166 332.263 553.181C333.134 553.189 333.833 553.863 333.825 554.683C333.817 555.5 333.109 556.154 332.246 556.154H332.229C330.789 556.138 329.379 556.114 328.006 556.087C327.135 556.071 326.444 555.393 326.461 554.573C326.478 553.753 327.13 552.995 328.073 553.114ZM351.138 553.055C352.165 552.94 352.738 553.673 352.764 554.493C352.789 555.314 352.102 555.999 351.23 556.027C349.858 556.063 348.452 556.099 347.008 556.127H346.978C346.119 556.127 345.415 555.48 345.398 554.672C345.382 553.851 346.077 553.169 346.948 553.153C348.376 553.125 349.774 553.09 351.138 553.055ZM399.464 551.921C400.268 551.635 401.19 551.997 401.515 552.754C401.835 553.515 401.439 554.383 400.631 554.684C399.498 555.109 398.193 555.548 396.686 555.992C396.526 556.04 396.366 556.063 396.21 556.063C395.541 556.063 394.917 555.655 394.702 555.021C394.441 554.24 394.905 553.404 395.738 553.162C397.165 552.738 398.399 552.321 399.464 551.921ZM318.649 552.823C320.001 552.886 321.394 552.934 322.83 552.981C323.702 553.009 324.384 553.699 324.354 554.519C324.325 555.324 323.622 555.955 322.775 555.955H322.721C321.272 555.907 319.862 555.859 318.493 555.796C317.622 555.752 316.952 555.055 316.994 554.234C317.036 553.418 317.807 552.827 318.649 552.823ZM360.545 552.654C361.324 552.484 362.162 553.228 362.217 554.049C362.267 554.869 361.606 555.575 360.734 555.619C359.366 555.698 357.96 555.769 356.512 555.837H356.432C355.598 555.837 354.899 555.218 354.856 554.426C354.814 553.605 355.489 552.908 356.36 552.864C357.796 552.805 359.189 552.733 360.545 552.654ZM309.248 552.3C310.591 552.395 311.981 552.482 313.421 552.565C314.292 552.613 314.954 553.314 314.903 554.135C314.853 554.927 314.158 555.534 313.328 555.534C313.294 555.534 313.265 555.534 313.231 555.53C311.775 555.451 310.368 555.36 309.008 555.264C308.14 555.201 307.488 554.483 307.551 553.667C307.622 552.846 308.398 552.268 309.248 552.3ZM369.93 551.966C370.818 551.902 371.576 552.481 371.656 553.302C371.744 554.118 371.108 554.847 370.241 554.923C368.881 555.046 367.475 555.168 366.019 555.275C365.976 555.279 365.934 555.279 365.892 555.279C365.079 555.279 364.385 554.693 364.317 553.908C364.25 553.092 364.898 552.378 365.77 552.31C367.205 552.203 368.595 552.089 369.93 551.966ZM299.872 551.483C301.194 551.63 302.579 551.765 304.023 551.891C304.895 551.967 305.531 552.688 305.451 553.509C305.375 554.277 304.685 554.856 303.881 554.856C303.83 554.856 303.784 554.852 303.733 554.848C302.264 554.722 300.857 554.587 299.514 554.444C298.647 554.349 298.024 553.612 298.125 552.792C298.222 551.979 298.984 551.416 299.872 551.483ZM270.363 551.118C270.923 550.484 271.913 550.393 272.591 550.924H272.586C272.59 550.924 273.016 551.225 274.072 551.705C274.86 552.062 275.188 552.949 274.81 553.69C274.54 554.221 273.976 554.531 273.387 554.531C273.159 554.531 272.923 554.484 272.704 554.385C271.277 553.738 270.675 553.294 270.569 553.207C269.9 552.684 269.808 551.748 270.363 551.118ZM379.246 550.903C380.118 550.777 380.909 551.347 381.035 552.164C381.161 552.972 380.563 553.726 379.7 553.845C378.365 554.027 376.963 554.209 375.498 554.38C375.431 554.388 375.368 554.391 375.301 554.391C374.513 554.391 373.835 553.84 373.734 553.087C373.629 552.274 374.243 551.53 375.106 551.43C376.551 551.26 377.928 551.085 379.246 550.903ZM288.761 551.496C288.908 550.687 289.708 550.156 290.579 550.279C291.863 550.485 293.232 550.679 294.693 550.873C295.556 550.984 296.158 551.737 296.036 552.55C295.927 553.295 295.249 553.831 294.475 553.831C294.403 553.831 294.331 553.826 294.255 553.814C292.765 553.624 291.367 553.418 290.058 553.212C289.194 553.077 288.618 552.308 288.761 551.496ZM388.45 549.339C389.296 549.164 390.143 549.667 390.337 550.468C390.522 551.268 389.987 552.062 389.137 552.24C387.831 552.51 386.437 552.775 384.951 553.029C384.854 553.045 384.758 553.053 384.665 553.053C383.916 553.053 383.255 552.549 383.111 551.832C382.956 551.023 383.524 550.25 384.383 550.103C385.831 549.854 387.187 549.6 388.45 549.339ZM405.202 549.036C405.821 548.469 406.815 548.465 407.426 549.04C408.036 549.615 408.053 550.538 407.451 551.117C407.354 551.216 406.782 551.744 405.438 552.509C405.186 552.651 404.904 552.722 404.626 552.722C404.091 552.722 403.568 552.465 403.27 552.005C402.819 551.299 403.06 550.388 403.805 549.96C404.792 549.403 405.19 549.044 405.202 549.036ZM279.531 549.546C279.754 548.753 280.622 548.277 281.456 548.479C282.656 548.777 283.991 549.078 285.481 549.371C286.336 549.541 286.879 550.331 286.698 551.132C286.542 551.833 285.885 552.312 285.157 552.312C285.048 552.312 284.938 552.301 284.829 552.281C283.284 551.972 281.902 551.662 280.664 551.361C279.818 551.151 279.312 550.342 279.531 549.546ZM397.403 547.027C398.228 546.766 399.129 547.174 399.411 547.947C399.693 548.724 399.256 549.568 398.431 549.838C397.222 550.226 395.858 550.635 394.325 551.035C394.182 551.071 394.038 551.091 393.899 551.091C393.209 551.091 392.574 550.662 392.38 550.005C392.144 549.212 392.637 548.391 393.475 548.173C394.944 547.784 396.25 547.4 397.403 547.027ZM336.74 547.604C337.612 547.608 338.315 548.274 338.315 549.095C338.311 549.915 337.604 550.577 336.736 550.577H336.732L332.647 550.546C331.776 550.534 331.077 549.859 331.09 549.039C331.098 548.226 331.806 547.572 332.669 547.572H332.689L336.74 547.604ZM345.863 547.557C346.756 547.68 347.451 548.2 347.468 549.02C347.48 549.841 346.786 550.519 345.914 550.531L341.83 550.574H341.821C340.954 550.574 340.246 549.916 340.242 549.096C340.238 548.275 340.941 547.605 341.812 547.601L345.863 547.557ZM327.618 547.49C328.49 547.51 329.18 548.192 329.163 549.013C329.142 549.821 328.439 550.463 327.584 550.463H327.547L323.467 550.36C322.595 550.332 321.908 549.646 321.937 548.826C321.967 548.005 322.759 547.45 323.563 547.387L327.618 547.49ZM354.971 547.311C355.771 547.351 356.578 547.91 356.616 548.73C356.654 549.551 355.977 550.244 355.105 550.284C353.779 550.339 352.414 550.383 351.02 550.423H350.975C350.124 550.423 349.421 549.784 349.395 548.979C349.371 548.159 350.056 547.474 350.928 547.45C352.309 547.41 353.657 547.367 354.971 547.311ZM314.467 547.008C315.776 547.079 317.124 547.139 318.509 547.198C319.38 547.238 320.058 547.928 320.017 548.748C319.983 549.549 319.284 550.172 318.441 550.172H318.37C316.972 550.112 315.612 550.045 314.29 549.973C313.418 549.926 312.753 549.228 312.8 548.403C312.85 547.583 313.566 546.924 314.467 547.008ZM364.058 546.814C364.921 546.731 365.683 547.373 365.746 548.189C365.809 549.01 365.153 549.724 364.285 549.779C362.963 549.87 361.607 549.954 360.205 550.033C360.176 550.037 360.142 550.037 360.112 550.037C359.283 550.037 358.584 549.426 358.538 548.638C358.483 547.817 359.148 547.116 360.02 547.068C361.405 546.989 362.752 546.905 364.058 546.814ZM270.852 546.081C271.298 545.379 272.266 545.138 273.016 545.561C273.5 545.831 274.607 546.386 276.582 547.064C277.399 547.35 277.82 548.202 277.521 548.974C277.286 549.577 276.679 549.95 276.039 549.95C275.858 549.95 275.673 549.922 275.496 549.858C273.395 549.133 272.11 548.515 271.407 548.119C270.658 547.703 270.409 546.79 270.852 546.081ZM305.384 546.388C306.681 546.496 308.024 546.603 309.413 546.698C310.285 546.762 310.937 547.471 310.874 548.288C310.811 549.073 310.12 549.667 309.304 549.667C309.262 549.667 309.223 549.667 309.186 549.663C307.775 549.568 306.419 549.461 305.105 549.354C304.238 549.279 303.598 548.557 303.674 547.741C303.745 546.92 304.495 546.317 305.384 546.388ZM373.111 546.031C373.999 545.992 374.761 546.526 374.858 547.343C374.955 548.155 374.332 548.897 373.469 548.988C372.159 549.127 370.799 549.258 369.393 549.385C369.342 549.389 369.292 549.392 369.241 549.392C368.437 549.392 367.751 548.814 367.671 548.045C367.591 547.228 368.227 546.503 369.094 546.428C370.483 546.301 371.823 546.17 373.111 546.031ZM296.36 545.471C297.632 545.629 298.967 545.78 300.365 545.923C301.232 546.018 301.855 546.747 301.759 547.563C301.67 548.328 300.988 548.887 300.192 548.888C300.138 548.888 300.075 548.884 300.016 548.88C298.597 548.729 297.241 548.578 295.948 548.42C295.081 548.313 294.474 547.563 294.588 546.751C294.702 545.938 295.476 545.372 296.36 545.471ZM382.084 544.869C382.951 544.766 383.76 545.286 383.903 546.091C384.05 546.903 383.465 547.668 382.606 547.806C381.322 548.005 379.966 548.203 378.547 548.389C378.471 548.401 378.4 548.405 378.324 548.405C377.549 548.405 376.875 547.866 376.762 547.125C376.64 546.312 377.242 545.559 378.109 545.448C379.499 545.262 380.825 545.071 382.084 544.869ZM405.197 543.419C405.812 542.852 406.81 542.848 407.421 543.423C408.031 543.997 408.052 544.917 407.45 545.5C407.268 545.675 406.228 546.621 403.463 547.897C403.24 547.996 403.004 548.049 402.772 548.049C402.187 548.049 401.627 547.743 401.353 547.216C400.971 546.478 401.29 545.591 402.073 545.226C404.345 544.177 405.175 543.439 405.197 543.419ZM285.567 545.309C285.732 544.505 286.544 543.965 287.416 544.132C288.641 544.35 289.955 544.576 291.37 544.79C292.233 544.921 292.818 545.682 292.68 546.49C292.553 547.223 291.883 547.743 291.121 547.743C291.037 547.743 290.953 547.735 290.869 547.723C289.421 547.501 288.073 547.28 286.818 547.05C285.96 546.895 285.403 546.118 285.567 545.309ZM390.944 543.182C391.791 542.984 392.645 543.472 392.852 544.272C393.058 545.069 392.54 545.874 391.693 546.068C390.447 546.354 389.108 546.642 387.668 546.92C387.559 546.94 387.454 546.952 387.349 546.952C386.616 546.952 385.954 546.468 385.803 545.763C385.626 544.962 386.178 544.177 387.032 544.011C388.43 543.737 389.732 543.46 390.944 543.182ZM276.727 543.118C276.979 542.333 277.864 541.877 278.697 542.135C279.8 542.452 281.068 542.789 282.533 543.126C283.379 543.324 283.893 544.133 283.683 544.93C283.506 545.603 282.861 546.059 282.154 546.059C282.028 546.059 281.897 546.043 281.77 546.015C280.246 545.659 278.92 545.305 277.77 544.972C276.937 544.735 276.47 543.903 276.727 543.118ZM341.719 541.982C342.586 541.982 343.294 542.644 343.298 543.461C343.302 544.281 342.599 544.951 341.724 544.955L338.953 544.963H337.509C336.637 544.963 335.93 544.297 335.93 543.476C335.93 542.656 336.637 541.99 337.509 541.99L341.711 541.982H341.719ZM328.073 541.881C329.437 541.908 330.835 541.932 332.263 541.948C333.134 541.956 333.834 542.63 333.825 543.451C333.817 544.267 333.109 544.922 332.246 544.922H332.229C330.789 544.906 329.379 544.882 328.006 544.854C327.134 544.838 326.444 544.16 326.461 543.34C326.478 542.523 327.134 541.889 328.073 541.881ZM351.138 541.82C352.165 541.769 352.738 542.443 352.764 543.26C352.789 544.08 352.102 544.766 351.23 544.794C349.858 544.829 348.452 544.865 347.008 544.892H346.978C346.119 544.892 345.416 544.247 345.398 543.438C345.382 542.618 346.077 541.936 346.948 541.92C348.376 541.892 349.774 541.856 351.138 541.82ZM399.474 540.688C400.278 540.403 401.2 540.763 401.524 541.52C401.844 542.281 401.448 543.15 400.64 543.451C399.511 543.875 398.206 544.311 396.699 544.759C396.539 544.806 396.379 544.83 396.219 544.83C395.549 544.83 394.926 544.426 394.716 543.792C394.451 543.011 394.914 542.174 395.743 541.929C397.17 541.5 398.404 541.089 399.474 540.688ZM318.649 541.589C320.001 541.652 321.394 541.699 322.83 541.747C323.702 541.775 324.384 542.464 324.354 543.285C324.325 544.09 323.622 544.72 322.775 544.72H322.721C321.272 544.672 319.861 544.625 318.493 544.561C317.622 544.518 316.952 543.82 316.994 543C317.036 542.183 317.811 541.569 318.649 541.589ZM360.545 541.418C361.324 541.335 362.162 541.989 362.217 542.813C362.267 543.634 361.606 544.339 360.734 544.383C359.366 544.462 357.96 544.534 356.512 544.601H356.432C355.598 544.601 354.899 543.983 354.856 543.19C354.814 542.37 355.489 541.671 356.36 541.628C357.796 541.568 359.189 541.497 360.545 541.418ZM309.248 541.067C310.591 541.162 311.981 541.25 313.421 541.333C314.292 541.38 314.954 542.083 314.903 542.903C314.853 543.696 314.158 544.303 313.328 544.303C313.294 544.303 313.265 544.303 313.231 544.299C311.775 544.219 310.368 544.128 309.008 544.033C308.141 543.97 307.488 543.252 307.551 542.435C307.622 541.611 308.397 541.02 309.248 541.067ZM369.918 540.731C370.811 540.66 371.565 541.247 371.645 542.067C371.733 542.884 371.097 543.613 370.229 543.688C368.87 543.811 367.463 543.934 366.007 544.041C365.965 544.045 365.922 544.045 365.88 544.045C365.067 544.045 364.373 543.458 364.306 542.674C364.238 541.857 364.886 541.144 365.758 541.076C367.194 540.969 368.583 540.854 369.918 540.731ZM299.872 540.248C301.194 540.395 302.579 540.529 304.023 540.656C304.895 540.731 305.531 541.453 305.451 542.273C305.375 543.042 304.685 543.621 303.881 543.621C303.83 543.621 303.784 543.617 303.733 543.613C302.264 543.486 300.857 543.352 299.514 543.209C298.647 543.114 298.024 542.377 298.125 541.556C298.222 540.744 298.984 540.196 299.872 540.248ZM270.363 539.889C270.919 539.255 271.912 539.164 272.586 539.695C272.586 539.695 273.016 539.996 274.068 540.472C274.856 540.824 275.188 541.713 274.813 542.454C274.54 542.989 273.976 543.298 273.387 543.298C273.159 543.298 272.927 543.25 272.708 543.151C271.277 542.509 270.675 542.062 270.569 541.978C269.9 541.455 269.808 540.52 270.363 539.889ZM379.246 539.673C380.117 539.554 380.909 540.116 381.035 540.932C381.161 541.741 380.563 542.494 379.7 542.613C378.365 542.795 376.963 542.978 375.498 543.148C375.431 543.156 375.368 543.16 375.301 543.16C374.513 543.16 373.835 542.609 373.734 541.856C373.629 541.044 374.243 540.298 375.106 540.199C376.551 540.029 377.928 539.855 379.246 539.673ZM290.579 539.05C291.863 539.256 293.232 539.45 294.693 539.644C295.556 539.755 296.158 540.509 296.036 541.321C295.927 542.066 295.249 542.601 294.475 542.601C294.403 542.601 294.331 542.598 294.255 542.586C292.765 542.396 291.367 542.189 290.058 541.983C289.194 541.848 288.618 541.079 288.761 540.266C288.904 539.458 289.708 538.927 290.579 539.05ZM388.459 538.106C389.314 537.94 390.152 538.443 390.337 539.244C390.522 540.049 389.983 540.838 389.128 541.013C387.827 541.278 386.437 541.543 384.951 541.797C384.854 541.813 384.758 541.821 384.665 541.821C383.916 541.821 383.254 541.317 383.111 540.599C382.956 539.791 383.524 539.019 384.383 538.872C385.831 538.622 387.192 538.368 388.459 538.106ZM405.201 537.804C405.82 537.245 406.814 537.233 407.425 537.815C408.035 538.386 408.052 539.31 407.45 539.888C407.349 539.992 406.78 540.514 405.437 541.275C405.181 541.418 404.899 541.49 404.625 541.49C404.086 541.49 403.563 541.232 403.269 540.768C402.818 540.063 403.062 539.151 403.808 538.726C404.79 538.17 405.188 537.816 405.201 537.804ZM279.531 538.316C279.755 537.524 280.622 537.049 281.456 537.251C282.656 537.548 283.991 537.849 285.481 538.142C286.336 538.313 286.879 539.102 286.698 539.902C286.542 540.604 285.886 541.084 285.157 541.084C285.048 541.084 284.938 541.071 284.829 541.052C283.284 540.742 281.902 540.434 280.664 540.133C279.818 539.922 279.312 539.113 279.531 538.316ZM397.392 535.799C398.221 535.537 399.117 535.945 399.399 536.718C399.681 537.491 399.244 538.34 398.419 538.609C397.21 538.998 395.846 539.406 394.313 539.806C394.17 539.842 394.027 539.861 393.888 539.861C393.197 539.861 392.562 539.433 392.368 538.775C392.132 537.982 392.625 537.162 393.463 536.944C394.932 536.556 396.238 536.171 397.392 535.799ZM336.74 536.375C337.612 536.379 338.315 537.045 338.315 537.866C338.311 538.686 337.603 539.348 336.736 539.348H336.732L332.647 539.316C331.776 539.304 331.082 538.631 331.09 537.81C331.098 536.998 331.806 536.344 332.669 536.344H332.689L336.74 536.375ZM345.863 536.317C346.756 536.214 347.451 536.96 347.468 537.78C347.48 538.601 346.786 539.278 345.914 539.29L341.83 539.334H341.821C340.954 539.334 340.246 538.676 340.242 537.855C340.238 537.035 340.941 536.365 341.812 536.361L345.863 536.317ZM327.622 536.261C328.494 536.28 329.184 536.963 329.163 537.783C329.142 538.592 328.439 539.234 327.584 539.234H327.546L323.471 539.131C322.599 539.103 321.912 538.417 321.937 537.597C321.967 536.776 322.759 536.221 323.567 536.158L327.622 536.261ZM354.971 536.069C355.77 536.101 356.574 536.668 356.616 537.488C356.654 538.309 355.977 539.003 355.105 539.043C353.779 539.098 352.414 539.142 351.02 539.181H350.975C350.124 539.181 349.421 538.543 349.395 537.738C349.37 536.918 350.056 536.232 350.928 536.208C352.309 536.168 353.657 536.125 354.971 536.069ZM314.467 535.777C315.776 535.849 317.124 535.908 318.509 535.968C319.38 536.007 320.059 536.697 320.017 537.517C319.983 538.318 319.283 538.94 318.441 538.94H318.37C316.972 538.881 315.612 538.813 314.29 538.742C313.419 538.694 312.754 537.997 312.8 537.177C312.85 536.356 313.566 535.682 314.467 535.777ZM364.058 535.588C364.921 535.493 365.683 536.146 365.746 536.963C365.809 537.783 365.153 538.497 364.285 538.553C362.963 538.644 361.607 538.727 360.205 538.806C360.176 538.81 360.142 538.81 360.112 538.81C359.283 538.81 358.585 538.2 358.538 537.411C358.483 536.591 359.148 535.888 360.02 535.841C361.405 535.761 362.752 535.679 364.058 535.588ZM270.854 534.852C271.297 534.143 272.266 533.913 273.02 534.333C273.5 534.602 274.599 535.153 276.577 535.835C277.398 536.116 277.819 536.973 277.52 537.742C277.285 538.348 276.678 538.72 276.034 538.721C275.853 538.721 275.672 538.693 275.495 538.63C273.386 537.904 272.105 537.278 271.406 536.889C270.657 536.469 270.408 535.558 270.854 534.852ZM305.388 535.156C306.68 535.267 308.023 535.371 309.417 535.466C310.284 535.529 310.941 536.243 310.874 537.059C310.815 537.84 310.12 538.434 309.304 538.434C309.266 538.434 309.223 538.434 309.186 538.43C307.779 538.335 306.419 538.232 305.105 538.121C304.238 538.05 303.598 537.324 303.674 536.508C303.75 535.687 304.533 535.081 305.388 535.156ZM373.111 534.804C374 534.748 374.762 535.304 374.858 536.116C374.955 536.929 374.332 537.669 373.469 537.761C372.159 537.899 370.799 538.03 369.393 538.157C369.342 538.161 369.292 538.165 369.241 538.165C368.437 538.165 367.751 537.586 367.671 536.817C367.591 536.001 368.227 535.275 369.094 535.2C370.483 535.073 371.823 534.942 373.111 534.804ZM296.357 534.235C297.629 534.394 298.964 534.545 300.366 534.687C301.229 534.783 301.857 535.512 301.76 536.329C301.671 537.094 300.985 537.652 300.193 537.652C300.134 537.652 300.075 537.648 300.017 537.644C298.593 537.494 297.237 537.343 295.944 537.184C295.081 537.077 294.471 536.328 294.589 535.515C294.699 534.703 295.473 534.136 296.357 534.235ZM382.096 533.636C382.959 533.525 383.771 534.053 383.914 534.857C384.061 535.67 383.476 536.434 382.617 536.573C381.333 536.771 379.977 536.97 378.559 537.156C378.483 537.168 378.412 537.172 378.336 537.172C377.561 537.172 376.887 536.633 376.773 535.891C376.651 535.079 377.254 534.326 378.121 534.215C379.51 534.028 380.837 533.838 382.096 533.636ZM405.201 532.185C405.82 531.627 406.813 531.615 407.424 532.197C408.034 532.768 408.051 533.692 407.449 534.27C407.268 534.449 406.228 535.389 403.466 536.665C403.243 536.764 403.007 536.815 402.771 536.815C402.19 536.815 401.626 536.51 401.353 535.983C400.969 535.246 401.294 534.358 402.077 533.993C404.367 532.935 405.193 532.193 405.201 532.185ZM285.579 534.079C285.743 533.274 286.569 532.732 287.428 532.902C288.653 533.12 289.966 533.345 291.381 533.559C292.244 533.69 292.829 534.452 292.69 535.261C292.564 535.994 291.895 536.513 291.133 536.513C291.049 536.513 290.964 536.505 290.88 536.493C289.432 536.271 288.085 536.049 286.83 535.819C285.971 535.665 285.415 534.888 285.579 534.079ZM390.944 531.948C391.791 531.774 392.645 532.237 392.852 533.038C393.058 533.835 392.54 534.64 391.693 534.834C390.447 535.119 389.108 535.408 387.668 535.685C387.559 535.705 387.454 535.718 387.349 535.718C386.616 535.718 385.954 535.234 385.803 534.528C385.626 533.727 386.178 532.943 387.032 532.776C388.43 532.503 389.732 532.226 390.944 531.948ZM276.727 531.879C276.984 531.098 277.864 530.647 278.697 530.896C279.8 531.213 281.072 531.551 282.533 531.891C283.379 532.09 283.893 532.898 283.683 533.69C283.506 534.368 282.862 534.82 282.154 534.82C282.028 534.82 281.901 534.805 281.77 534.777C280.247 534.424 278.921 534.071 277.775 533.738C276.937 533.496 276.47 532.664 276.727 531.879ZM341.708 530.754C342.579 530.754 343.282 531.416 343.286 532.232C343.29 533.053 342.588 533.722 341.712 533.726L338.941 533.734H337.497C336.625 533.734 335.918 533.068 335.918 532.248C335.918 531.427 336.625 530.762 337.497 530.762L341.703 530.754H341.708ZM328.069 530.65C329.438 530.678 330.832 530.702 332.264 530.718C333.135 530.726 333.833 531.399 333.825 532.22C333.813 533.036 333.109 533.69 332.246 533.69H332.226C330.786 533.674 329.379 533.651 328.007 533.623C327.135 533.607 326.44 532.93 326.461 532.109C326.478 531.289 327.13 530.781 328.069 530.65ZM351.138 530.591C352.165 530.595 352.738 531.214 352.764 532.03C352.789 532.851 352.102 533.537 351.23 533.564C349.858 533.604 348.452 533.635 347.008 533.663H346.978C346.119 533.663 345.415 533.016 345.398 532.208C345.382 531.388 346.077 530.706 346.948 530.69C348.376 530.663 349.774 530.63 351.138 530.591ZM399.472 529.457C400.276 529.164 401.198 529.528 401.522 530.289C401.842 531.05 401.446 531.914 400.638 532.22C399.509 532.644 398.204 533.083 396.692 533.527C396.532 533.575 396.376 533.598 396.221 533.598C395.547 533.598 394.924 533.19 394.714 532.556C394.453 531.776 394.916 530.939 395.745 530.697C397.172 530.273 398.406 529.857 399.472 529.457ZM318.649 530.361C320.001 530.421 321.394 530.472 322.83 530.519C323.702 530.543 324.384 531.233 324.354 532.054C324.325 532.858 323.622 533.493 322.775 533.493H322.721C321.272 533.445 319.862 533.393 318.493 533.334C317.622 533.29 316.952 532.593 316.994 531.772C317.036 530.952 317.811 530.44 318.649 530.361ZM360.545 530.194C361.324 530.083 362.158 530.764 362.217 531.585C362.267 532.405 361.606 533.111 360.734 533.159C359.366 533.234 357.96 533.305 356.512 533.373H356.432C355.594 533.373 354.899 532.755 354.856 531.962C354.814 531.141 355.484 530.444 356.355 530.4C357.795 530.341 359.189 530.269 360.545 530.194ZM309.244 529.834C310.591 529.933 311.981 530.02 313.421 530.103C314.288 530.147 314.954 530.852 314.903 531.673C314.849 532.461 314.154 533.072 313.329 533.072C313.295 533.072 313.261 533.072 313.231 533.068C311.775 532.985 310.369 532.898 309.009 532.799C308.137 532.739 307.484 532.021 307.552 531.205C307.619 530.385 308.398 529.774 309.244 529.834ZM369.918 529.504C370.811 529.424 371.56 530.019 371.645 530.84C371.729 531.656 371.093 532.381 370.226 532.461C368.866 532.584 367.464 532.702 366.007 532.813C365.965 532.817 365.922 532.817 365.88 532.817C365.063 532.817 364.373 532.227 364.306 531.446C364.238 530.63 364.887 529.912 365.754 529.848C367.194 529.737 368.579 529.627 369.918 529.504ZM299.872 529.021C301.194 529.168 302.579 529.303 304.023 529.43C304.895 529.505 305.531 530.226 305.451 531.047C305.375 531.82 304.685 532.394 303.881 532.394C303.83 532.394 303.78 532.39 303.733 532.387C302.264 532.26 300.857 532.125 299.514 531.982C298.646 531.887 298.024 531.149 298.125 530.333C298.222 529.517 298.984 528.954 299.872 529.021ZM270.37 528.646C270.93 528.02 271.924 527.933 272.594 528.464C272.601 528.469 273.028 528.773 274.067 529.241C274.855 529.594 275.187 530.482 274.812 531.223C274.543 531.758 273.974 532.067 273.385 532.067C273.157 532.067 272.926 532.02 272.707 531.921C271.275 531.279 270.669 530.826 270.563 530.739C269.894 530.212 269.81 529.276 270.37 528.646ZM379.255 528.443C380.126 528.324 380.919 528.887 381.045 529.7C381.171 530.512 380.573 531.266 379.71 531.385C378.375 531.567 376.973 531.749 375.508 531.92C375.44 531.928 375.377 531.931 375.31 531.931C374.527 531.931 373.844 531.381 373.747 530.628C373.638 529.815 374.253 529.07 375.116 528.971C376.56 528.8 377.937 528.626 379.255 528.443ZM288.762 529.037C288.905 528.233 289.709 527.686 290.58 527.816C291.864 528.022 293.234 528.221 294.69 528.415C295.553 528.526 296.155 529.279 296.037 530.092C295.928 530.833 295.25 531.372 294.476 531.372C294.404 531.372 294.328 531.368 294.257 531.356C292.766 531.162 291.368 530.956 290.059 530.754C289.195 530.615 288.614 529.85 288.762 529.037ZM388.459 526.879C389.309 526.708 390.148 527.216 390.333 528.013C390.522 528.817 389.978 529.61 389.128 529.784C387.827 530.05 386.437 530.312 384.951 530.569C384.854 530.585 384.758 530.593 384.665 530.593C383.916 530.593 383.25 530.089 383.111 529.372C382.956 528.563 383.524 527.79 384.383 527.639C385.831 527.394 387.187 527.14 388.459 526.879ZM405.202 526.574C405.821 526.003 406.815 526.007 407.426 526.578C408.036 527.153 408.053 528.076 407.451 528.655C407.354 528.754 406.782 529.282 405.438 530.047C405.186 530.189 404.904 530.261 404.626 530.261C404.091 530.261 403.568 530.003 403.27 529.543C402.819 528.837 403.06 527.926 403.805 527.498C404.79 526.942 405.189 526.583 405.202 526.574ZM279.531 527.088C279.75 526.291 280.622 525.827 281.456 526.021C282.652 526.315 283.991 526.616 285.481 526.913C286.332 527.083 286.879 527.872 286.698 528.673C286.542 529.374 285.886 529.854 285.153 529.854C285.048 529.854 284.938 529.843 284.824 529.823C283.283 529.514 281.898 529.204 280.664 528.903C279.818 528.693 279.313 527.884 279.531 527.088ZM397.392 524.569C398.221 524.308 399.121 524.716 399.399 525.489C399.681 526.266 399.244 527.11 398.423 527.38C397.21 527.768 395.85 528.177 394.313 528.577C394.175 528.613 394.031 528.633 393.888 528.633C393.197 528.633 392.562 528.204 392.368 527.547C392.132 526.754 392.625 525.933 393.463 525.715C394.932 525.326 396.238 524.942 397.392 524.569ZM336.74 525.14C337.612 525.144 338.315 525.81 338.315 526.631C338.311 527.451 337.604 528.113 336.736 528.113H336.732L332.647 528.081C331.776 528.069 331.081 527.395 331.09 526.575C331.098 525.762 331.806 525.108 332.669 525.108H332.689L336.74 525.14ZM345.863 525.088C346.756 525.159 347.451 525.733 347.468 526.55C347.48 527.37 346.786 528.048 345.914 528.06L341.83 528.103H341.821C340.954 528.103 340.246 527.445 340.242 526.625C340.238 525.805 340.941 525.135 341.812 525.131L345.863 525.088ZM327.622 525.03C328.494 525.05 329.184 525.732 329.163 526.553C329.142 527.361 328.439 528.003 327.584 528.003H327.546L323.471 527.9C322.599 527.872 321.912 527.186 321.937 526.366C321.967 525.545 322.759 524.99 323.567 524.927L327.622 525.03ZM354.971 524.839C355.771 524.859 356.574 525.437 356.616 526.258C356.654 527.078 355.977 527.772 355.105 527.811C353.779 527.867 352.414 527.91 351.02 527.95H350.975C350.124 527.95 349.421 527.312 349.395 526.508C349.37 525.687 350.056 525.001 350.928 524.977C352.309 524.938 353.657 524.894 354.971 524.839ZM314.467 524.544C315.776 524.615 317.12 524.675 318.51 524.734C319.381 524.774 320.054 525.467 320.017 526.288C319.979 527.085 319.28 527.707 318.442 527.707H318.37C316.968 527.647 315.612 527.58 314.29 527.509C313.419 527.461 312.749 526.764 312.8 525.943C312.846 525.123 313.562 524.437 314.467 524.544ZM364.062 524.353C364.925 524.25 365.687 524.913 365.75 525.729C365.813 526.55 365.156 527.259 364.289 527.318C362.967 527.409 361.607 527.493 360.209 527.572H360.116C359.287 527.572 358.588 526.965 358.537 526.177C358.487 525.356 359.152 524.651 360.023 524.603C361.409 524.528 362.752 524.441 364.062 524.353ZM270.854 523.621C271.301 522.919 272.266 522.677 273.02 523.101C273.5 523.371 274.598 523.927 276.581 524.604C277.398 524.89 277.819 525.742 277.52 526.514C277.285 527.117 276.678 527.49 276.038 527.49C275.857 527.49 275.672 527.463 275.495 527.399C273.386 526.674 272.109 526.051 271.406 525.659C270.657 525.243 270.408 524.326 270.854 523.621ZM305.388 523.926C306.68 524.037 308.023 524.14 309.417 524.235C310.284 524.299 310.941 525.012 310.874 525.829C310.815 526.61 310.12 527.204 309.304 527.204C309.266 527.204 309.223 527.204 309.186 527.2C307.779 527.105 306.419 527.002 305.105 526.891C304.238 526.82 303.598 526.094 303.674 525.277C303.75 524.457 304.499 523.846 305.388 523.926ZM373.111 523.568C374 523.533 374.757 524.064 374.858 524.881C374.955 525.697 374.332 526.434 373.469 526.525C372.159 526.668 370.799 526.799 369.389 526.922C369.342 526.926 369.287 526.93 369.241 526.93C368.433 526.929 367.747 526.355 367.671 525.582C367.591 524.766 368.227 524.044 369.094 523.965C370.483 523.842 371.819 523.711 373.111 523.568ZM296.356 523.008C297.632 523.166 298.963 523.317 300.365 523.46C301.232 523.551 301.855 524.284 301.759 525.1C301.67 525.861 300.984 526.425 300.192 526.425C300.133 526.425 300.074 526.421 300.016 526.417C298.597 526.266 297.241 526.115 295.948 525.957C295.081 525.85 294.474 525.101 294.588 524.288C294.697 523.475 295.476 522.893 296.356 523.008ZM382.096 522.401C382.959 522.298 383.767 522.817 383.91 523.622C384.058 524.434 383.476 525.204 382.617 525.339C381.329 525.541 379.978 525.734 378.555 525.921C378.483 525.933 378.407 525.937 378.336 525.937C377.561 525.937 376.883 525.397 376.773 524.656C376.652 523.844 377.253 523.09 378.116 522.979C379.51 522.793 380.832 522.603 382.096 522.401ZM405.201 520.957C405.82 520.394 406.813 520.39 407.424 520.969C408.034 521.539 408.051 522.463 407.449 523.042C407.268 523.221 406.227 524.16 403.466 525.436C403.243 525.535 403.007 525.587 402.771 525.587C402.19 525.587 401.626 525.281 401.353 524.754C400.97 524.016 401.294 523.129 402.077 522.764C404.365 521.707 405.191 520.966 405.201 520.957ZM285.567 522.847C285.732 522.046 286.557 521.503 287.416 521.67C288.641 521.892 289.955 522.114 291.37 522.328C292.233 522.459 292.819 523.224 292.68 524.032C292.553 524.761 291.883 525.281 291.121 525.281C291.037 525.281 290.953 525.272 290.869 525.261C289.421 525.043 288.073 524.817 286.818 524.587C285.959 524.432 285.403 523.655 285.567 522.847ZM390.944 520.722C391.79 520.517 392.645 521.012 392.852 521.812C393.058 522.609 392.54 523.418 391.693 523.608C390.447 523.898 389.108 524.183 387.668 524.461C387.559 524.481 387.454 524.492 387.349 524.492C386.616 524.492 385.954 524.009 385.803 523.304C385.626 522.503 386.178 521.717 387.032 521.551C388.43 521.277 389.732 521 390.944 520.722ZM276.727 520.649C276.984 519.869 277.864 519.413 278.697 519.667C279.8 519.984 281.072 520.321 282.533 520.662C283.379 520.86 283.893 521.668 283.683 522.461C283.506 523.139 282.862 523.591 282.154 523.591C282.028 523.591 281.901 523.575 281.77 523.552C280.251 523.195 278.921 522.842 277.775 522.509C276.937 522.267 276.47 521.434 276.727 520.649ZM341.719 519.524C342.59 519.524 343.293 520.186 343.298 521.003C343.302 521.823 342.599 522.494 341.724 522.498L338.953 522.506H337.509C336.637 522.506 335.93 521.839 335.93 521.018C335.93 520.198 336.637 519.532 337.509 519.532L341.715 519.524H341.719ZM328.069 519.421C329.438 519.448 330.832 519.472 332.264 519.488C333.135 519.496 333.834 520.17 333.825 520.99C333.812 521.807 333.109 522.461 332.246 522.461H332.226C330.786 522.445 329.379 522.421 328.007 522.393C327.135 522.378 326.44 521.699 326.461 520.879C326.478 520.058 327.131 519.346 328.069 519.421ZM351.138 519.362C352.165 519.418 352.738 519.98 352.764 520.801C352.789 521.621 352.102 522.307 351.23 522.335C349.858 522.374 348.452 522.407 347.008 522.434H346.978C346.119 522.434 345.415 521.788 345.398 520.979C345.382 520.159 346.077 519.477 346.948 519.461C348.376 519.433 349.774 519.402 351.138 519.362ZM399.464 518.227C400.268 517.934 401.19 518.299 401.515 519.06C401.834 519.821 401.439 520.689 400.631 520.99C399.498 521.414 398.193 521.855 396.686 522.299C396.526 522.346 396.366 522.37 396.21 522.37C395.54 522.37 394.917 521.961 394.702 521.327C394.441 520.546 394.905 519.71 395.738 519.469C397.165 519.044 398.399 518.628 399.464 518.227ZM318.649 519.13C320.001 519.189 321.394 519.241 322.83 519.289C323.702 519.313 324.384 520.003 324.354 520.823C324.325 521.628 323.622 522.262 322.775 522.262H322.721C321.272 522.214 319.861 522.163 318.493 522.103C317.622 522.06 316.952 521.361 316.994 520.541C317.036 519.721 317.807 519.181 318.649 519.13ZM360.545 518.963C361.32 518.832 362.158 519.533 362.217 520.353C362.267 521.174 361.606 521.88 360.734 521.928C359.366 522.003 357.96 522.074 356.512 522.141H356.432C355.594 522.141 354.899 521.523 354.856 520.73C354.814 519.91 355.484 519.213 356.355 519.169C357.795 519.109 359.189 519.038 360.545 518.963ZM309.244 518.605C310.591 518.704 311.981 518.792 313.421 518.875C314.288 518.918 314.954 519.624 314.903 520.444C314.849 521.233 314.154 521.843 313.329 521.844C313.295 521.844 313.261 521.844 313.231 521.84C311.775 521.756 310.369 521.669 309.009 521.57C308.137 521.511 307.484 520.793 307.552 519.976C307.619 519.156 308.398 518.53 309.244 518.605ZM369.93 518.274C370.818 518.215 371.572 518.79 371.656 519.61C371.74 520.427 371.105 521.156 370.237 521.231C368.877 521.354 367.475 521.477 366.019 521.584C365.976 521.588 365.934 521.588 365.892 521.588C365.075 521.588 364.385 520.997 364.317 520.217C364.25 519.4 364.898 518.686 365.766 518.619C367.206 518.512 368.591 518.397 369.93 518.274ZM299.872 517.791C301.194 517.937 302.579 518.072 304.023 518.199C304.895 518.274 305.531 518.996 305.451 519.816C305.375 520.589 304.685 521.164 303.881 521.164C303.83 521.164 303.78 521.16 303.733 521.156C302.264 521.029 300.857 520.894 299.514 520.752C298.646 520.656 298.024 519.919 298.125 519.102C298.222 518.286 298.984 517.735 299.872 517.791ZM270.363 517.427C270.919 516.788 271.912 516.701 272.586 517.232C272.586 517.232 273.016 517.533 274.072 518.013C274.86 518.369 275.188 519.258 274.81 519.999C274.54 520.53 273.976 520.84 273.387 520.84C273.159 520.84 272.923 520.791 272.704 520.692C271.277 520.046 270.675 519.599 270.569 519.515C269.9 518.992 269.808 518.057 270.363 517.427ZM379.242 517.21C380.114 517.091 380.91 517.658 381.032 518.471C381.159 519.279 380.56 520.032 379.701 520.151C378.362 520.334 376.96 520.516 375.495 520.686C375.432 520.694 375.364 520.698 375.301 520.698C374.514 520.698 373.831 520.147 373.734 519.394C373.625 518.582 374.24 517.836 375.107 517.737C376.547 517.567 377.928 517.392 379.242 517.21ZM290.58 516.585C291.864 516.791 293.234 516.989 294.69 517.183C295.553 517.295 296.155 518.048 296.037 518.86C295.927 519.601 295.25 520.14 294.476 520.14C294.404 520.14 294.328 520.137 294.257 520.125C292.766 519.931 291.368 519.724 290.059 519.522C289.195 519.384 288.614 518.618 288.762 517.805C288.905 516.997 289.709 516.466 290.58 516.585ZM388.45 515.643C389.292 515.461 390.144 515.973 390.333 516.773C390.522 517.574 389.983 518.37 389.133 518.549C387.832 518.818 386.438 519.08 384.951 519.338C384.854 519.354 384.758 519.361 384.665 519.361C383.916 519.361 383.25 518.858 383.111 518.14C382.956 517.332 383.524 516.559 384.383 516.408C385.831 516.162 387.183 515.909 388.45 515.643ZM405.202 515.346C405.821 514.779 406.815 514.775 407.426 515.349C408.036 515.924 408.053 516.848 407.451 517.427C407.354 517.526 406.781 518.053 405.438 518.817C405.186 518.96 404.904 519.032 404.626 519.032C404.091 519.032 403.568 518.774 403.27 518.314C402.819 517.609 403.059 516.696 403.805 516.268C404.786 515.715 405.185 515.357 405.202 515.346ZM279.531 515.854C279.75 515.062 280.622 514.586 281.456 514.788C282.652 515.085 283.991 515.387 285.481 515.68C286.332 515.851 286.879 516.64 286.698 517.44C286.542 518.142 285.886 518.622 285.153 518.622C285.048 518.622 284.938 518.609 284.824 518.59C283.283 518.28 281.898 517.971 280.664 517.67C279.818 517.46 279.312 516.651 279.531 515.854ZM397.392 513.335C398.221 513.077 399.122 513.482 399.399 514.255C399.681 515.032 399.244 515.876 398.423 516.145C397.21 516.534 395.85 516.942 394.313 517.343C394.175 517.378 394.031 517.398 393.888 517.398C393.197 517.398 392.562 516.969 392.368 516.311C392.133 515.519 392.625 514.698 393.463 514.48C394.932 514.092 396.238 513.707 397.392 513.335ZM336.241 513.907C337.113 513.911 337.821 514.578 337.816 515.402C337.812 516.219 337.104 516.881 336.237 516.881H336.228L333.168 516.856C332.292 516.844 331.597 516.171 331.605 515.35C331.614 514.538 332.321 513.884 333.185 513.884H333.201L336.241 513.907ZM345.39 513.869C346.249 513.869 346.952 514.519 346.969 515.332C346.981 516.152 346.286 516.826 345.415 516.842L342.341 516.874H342.337C341.465 516.874 340.762 516.212 340.758 515.395C340.754 514.571 341.461 513.904 342.333 513.9L345.36 513.869H345.39ZM324.074 513.708L327.119 513.787C327.991 513.807 328.681 514.489 328.66 515.309C328.639 516.118 327.936 516.76 327.081 516.76H327.043L323.986 516.68C323.115 516.661 322.428 515.975 322.453 515.154C322.474 514.334 323.228 513.593 324.074 513.708ZM354.472 513.628C355.343 513.541 356.075 514.234 356.113 515.051C356.151 515.871 355.474 516.565 354.603 516.6L351.537 516.704H351.49C350.64 516.704 349.936 516.069 349.911 515.264C349.882 514.444 350.568 513.758 351.439 513.73L354.472 513.628ZM314.958 513.342L318.002 513.485C318.874 513.529 319.548 514.222 319.506 515.043C319.468 515.839 318.768 516.458 317.931 516.458H317.854L314.802 516.315C313.93 516.271 313.261 515.573 313.303 514.753C313.349 513.932 314.095 513.294 314.958 513.342ZM363.57 513.16C364.417 513.025 365.196 513.723 365.255 514.54C365.318 515.36 364.661 516.065 363.794 516.125L360.741 516.315C360.703 516.319 360.674 516.319 360.636 516.319C359.811 516.319 359.116 515.717 359.065 514.925C359.011 514.108 359.667 513.402 360.539 513.35L363.57 513.16ZM270.852 512.391C271.298 511.686 272.266 511.448 273.016 511.872C273.5 512.137 274.608 512.692 276.582 513.374C277.403 513.655 277.82 514.512 277.521 515.281C277.286 515.887 276.683 516.256 276.039 516.256C275.858 516.256 275.673 516.232 275.496 516.169C273.395 515.439 272.11 514.821 271.407 514.429C270.658 514.008 270.41 513.101 270.852 512.391ZM305.888 512.736L308.911 512.971C309.778 513.03 310.431 513.744 310.363 514.564C310.304 515.341 309.61 515.939 308.793 515.939C308.751 515.939 308.713 515.939 308.671 515.935L305.614 515.701C304.743 515.63 304.102 514.908 304.178 514.088C304.254 513.271 305.037 512.661 305.888 512.736ZM372.625 512.389C373.471 512.326 374.271 512.892 374.364 513.709C374.457 514.521 373.834 515.255 372.967 515.347L369.918 515.639C369.863 515.643 369.808 515.647 369.758 515.647C368.958 515.647 368.267 515.072 368.187 514.307C368.103 513.491 368.735 512.762 369.603 512.682L372.625 512.389ZM296.855 511.834L299.866 512.175C300.733 512.266 301.357 513.008 301.256 513.82C301.163 514.577 300.481 515.139 299.689 515.139C299.63 515.139 299.571 515.136 299.508 515.132L296.46 514.783C295.593 514.68 294.981 513.934 295.091 513.122C295.2 512.306 295.997 511.727 296.855 511.834ZM381.619 511.249C382.465 511.134 383.291 511.665 383.43 512.477C383.569 513.286 382.983 514.05 382.12 514.181C381.148 514.328 380.133 514.475 379.08 514.618C379.004 514.63 378.928 514.634 378.853 514.634C378.078 514.634 377.404 514.102 377.29 513.361C377.164 512.549 377.762 511.795 378.625 511.677C379.661 511.534 380.659 511.396 381.619 511.249ZM405.197 509.725C405.812 509.159 406.81 509.155 407.421 509.729C408.031 510.304 408.052 511.224 407.45 511.806C407.269 511.981 406.229 512.929 403.463 514.205C403.24 514.304 403.004 514.355 402.772 514.355C402.187 514.355 401.627 514.05 401.353 513.523C400.97 512.786 401.29 511.898 402.073 511.533C404.35 510.481 405.179 509.742 405.197 509.725ZM286.06 511.709C286.22 510.9 287.037 510.353 287.904 510.527C288.843 510.694 289.828 510.861 290.868 511.019C291.731 511.15 292.313 511.919 292.174 512.727C292.043 513.453 291.374 513.972 290.616 513.972C290.532 513.972 290.443 513.964 290.359 513.952C289.29 513.785 288.274 513.62 287.314 513.445C286.456 513.291 285.895 512.513 286.06 511.709ZM390.481 509.595C391.311 509.369 392.182 509.889 392.389 510.689C392.59 511.49 392.068 512.294 391.222 512.484C390.27 512.698 389.268 512.913 388.207 513.127C388.098 513.147 387.984 513.158 387.875 513.158C387.147 513.158 386.494 512.683 386.334 511.989C386.149 511.184 386.691 510.392 387.542 510.222C388.574 510.007 389.555 509.805 390.481 509.595ZM277.205 509.559C277.458 508.775 278.338 508.314 279.176 508.572C280.03 508.814 280.986 509.064 282.043 509.317C282.889 509.519 283.399 510.328 283.185 511.125C283.004 511.795 282.359 512.243 281.656 512.243C281.526 512.243 281.395 512.227 281.265 512.199C280.157 511.933 279.155 511.672 278.258 511.41C277.424 511.176 276.953 510.344 277.205 509.559ZM340.359 508.298C341.231 508.298 341.938 508.964 341.938 509.784C341.938 510.605 341.231 511.27 340.359 511.27H338.212C337.34 511.27 336.633 510.604 336.633 509.784C336.633 508.964 337.34 508.298 338.212 508.298H340.359ZM331.79 508.254C332.662 508.262 333.361 508.935 333.353 509.756C333.34 510.572 332.637 511.226 331.773 511.226H331.752L329.597 511.195C328.725 511.179 328.03 510.501 328.043 509.68C328.06 508.872 328.763 508.222 329.622 508.222H329.651L331.79 508.254ZM348.923 508.183C349.828 508.342 350.519 508.818 350.54 509.638C350.561 510.459 349.87 511.141 348.999 511.157L346.847 511.204H346.813C345.959 511.204 345.256 510.562 345.234 509.754C345.218 508.933 345.908 508.251 346.779 508.231L348.923 508.183ZM321.097 507.988L323.231 508.059C324.103 508.087 324.785 508.777 324.756 509.597C324.726 510.402 324.027 511.033 323.177 511.033H323.126L320.967 510.962C320.095 510.926 319.417 510.231 319.455 509.411C319.489 508.591 320.263 507.937 321.097 507.988ZM399.037 507.153C399.845 506.872 400.764 507.245 401.075 508.01C401.391 508.775 400.983 509.639 400.17 509.932C399.29 510.25 398.305 510.574 397.21 510.907C397.05 510.959 396.886 510.982 396.726 510.982C396.056 510.982 395.442 510.582 395.223 509.952C394.953 509.175 395.408 508.335 396.237 508.081C397.273 507.764 398.203 507.454 399.037 507.153ZM357.464 507.889C358.243 507.794 359.076 508.471 359.123 509.292C359.169 510.112 358.5 510.811 357.628 510.854L355.477 510.953H355.4C354.563 510.953 353.864 510.331 353.826 509.534C353.788 508.717 354.458 508.02 355.329 507.98L357.464 507.889ZM312.555 507.591L314.686 507.713C315.557 507.756 316.226 508.459 316.176 509.279C316.129 510.068 315.431 510.682 314.602 510.682C314.568 510.682 314.538 510.682 314.509 510.679L312.353 510.555C311.481 510.508 310.82 509.798 310.879 508.977C310.934 508.161 311.73 507.519 312.555 507.591ZM365.982 507.369C366.883 507.298 367.612 507.916 367.684 508.732C367.755 509.549 367.111 510.262 366.243 510.334L364.088 510.489C364.05 510.493 364.008 510.493 363.97 510.493C363.153 510.493 362.458 509.898 362.395 509.113C362.331 508.297 362.988 507.587 363.855 507.523L365.982 507.369ZM304.023 506.965L306.158 507.143C307.03 507.211 307.674 507.932 307.599 508.749C307.527 509.526 306.841 510.112 306.028 510.112C305.982 510.112 305.94 510.112 305.894 510.108L303.746 509.93C302.879 509.854 302.239 509.137 302.314 508.316C302.39 507.496 303.194 506.866 304.023 506.965ZM374.482 506.58C375.346 506.477 376.137 507.068 376.238 507.881C376.339 508.697 375.721 509.438 374.853 509.529L372.714 509.767C372.651 509.771 372.592 509.775 372.533 509.775C371.742 509.775 371.059 509.212 370.967 508.455C370.87 507.638 371.493 506.902 372.36 506.806L374.482 506.58ZM270.366 506.192C270.922 505.562 271.92 505.471 272.59 506.002C272.64 506.038 272.956 506.248 273.638 506.577C274.412 506.95 274.716 507.85 274.32 508.575C274.038 509.09 273.487 509.387 272.914 509.388C272.67 509.388 272.421 509.332 272.193 509.221C271.149 508.717 270.686 508.38 270.572 508.285C269.899 507.762 269.806 506.826 270.366 506.192ZM293.792 507.334C293.91 506.517 294.714 505.911 295.568 506.065L297.678 506.319C298.545 506.418 299.16 507.164 299.051 507.976C298.954 508.729 298.271 509.28 297.488 509.28C297.421 509.28 297.358 509.276 297.291 509.268L295.139 509.007C294.276 508.895 293.674 508.146 293.792 507.334ZM382.892 505.432C383.742 505.286 384.567 505.837 384.719 506.641C384.866 507.45 384.29 508.219 383.431 508.358L381.292 508.69C381.208 508.702 381.123 508.711 381.043 508.711C380.277 508.711 379.607 508.187 379.485 507.458C379.346 506.649 379.932 505.884 380.795 505.758L382.892 505.432ZM285.333 505.948C285.501 505.143 286.331 504.624 287.186 504.774L289.274 505.143C290.133 505.29 290.701 506.059 290.55 506.872C290.411 507.589 289.745 508.093 288.996 508.093C288.904 508.093 288.811 508.084 288.714 508.068L286.584 507.696C285.729 507.538 285.169 506.757 285.333 505.948ZM405.202 504.109C405.821 503.538 406.815 503.542 407.426 504.121C408.036 504.696 408.049 505.619 407.442 506.198C407.366 506.278 406.924 506.682 405.923 507.292C405.658 507.454 405.362 507.53 405.067 507.53C404.55 507.53 404.044 507.292 403.741 506.852C403.27 506.167 403.476 505.243 404.209 504.799C404.843 504.411 405.138 504.165 405.202 504.109ZM391.197 503.807C392.048 503.625 392.902 504.101 393.108 504.893C393.315 505.69 392.796 506.495 391.95 506.693C391.272 506.848 390.57 507.006 389.833 507.165C389.715 507.189 389.597 507.2 389.483 507.2C388.759 507.2 388.111 506.732 387.942 506.043C387.749 505.242 388.283 504.445 389.134 504.263L391.197 503.807ZM277.029 503.886C277.282 503.105 278.154 502.649 279 502.898C279.619 503.077 280.292 503.255 281.017 503.441C281.859 503.659 282.356 504.476 282.129 505.268C281.935 505.93 281.299 506.363 280.604 506.363C280.47 506.363 280.326 506.347 280.191 506.315C279.434 506.117 278.731 505.926 278.078 505.74C277.245 505.506 276.777 504.674 277.029 503.886ZM339.276 502.676C340.16 502.676 340.834 503.35 340.834 504.182C340.834 504.975 340.16 505.648 339.276 505.648C338.392 505.648 337.676 504.975 337.676 504.182C337.676 503.35 338.392 502.676 339.276 502.676ZM332.408 502.639C333.292 502.64 334.008 503.314 333.966 504.146C333.966 504.979 333.25 505.613 332.366 505.613C331.524 505.613 330.808 504.935 330.808 504.102C330.85 503.27 331.524 502.639 332.408 502.639ZM346.09 502.639C346.974 502.596 347.689 503.27 347.731 504.102C347.731 504.895 347.058 505.569 346.174 505.613H346.132C345.29 505.613 344.573 504.935 344.531 504.146C344.531 503.314 345.248 502.639 346.09 502.639ZM325.583 502.519C326.425 502.559 327.099 503.233 327.099 504.065C327.056 504.858 326.341 505.532 325.499 505.492C324.615 505.452 323.941 504.775 323.941 503.942C323.984 503.153 324.699 502.48 325.583 502.519ZM352.951 502.435C353.793 502.435 354.552 503.074 354.594 503.902C354.594 504.699 353.919 505.408 353.077 505.408H352.993C352.151 505.408 351.436 504.774 351.436 503.985C351.393 503.153 352.067 502.479 352.951 502.435ZM318.729 502.279C319.614 502.323 320.287 503.032 320.245 503.829C320.203 504.661 319.445 505.295 318.603 505.252C317.719 505.212 317.045 504.538 317.087 503.706C317.129 502.874 317.887 502.239 318.729 502.279ZM359.776 502.164C360.66 502.12 361.377 502.714 361.461 503.547C361.503 504.379 360.829 505.093 359.944 505.137H359.86C359.06 505.136 358.345 504.498 358.303 503.745C358.261 502.913 358.892 502.2 359.776 502.164ZM399.203 501.479C400.024 501.174 400.929 501.559 401.245 502.328C401.557 503.097 401.152 503.957 400.34 504.251C399.7 504.481 399.01 504.722 398.265 504.96C398.096 505.015 397.923 505.039 397.755 505.039C397.098 505.039 396.483 504.646 396.26 504.028C395.978 503.251 396.424 502.407 397.245 502.145C397.952 501.919 398.605 501.693 399.203 501.479ZM311.904 501.921C312.788 501.96 313.42 502.673 313.378 503.506C313.336 504.302 312.62 504.893 311.82 504.893H311.694C310.81 504.854 310.179 504.145 310.221 503.312C310.305 502.516 311.02 501.881 311.904 501.921ZM366.595 501.686C367.479 501.647 368.237 502.238 368.321 503.07C368.363 503.867 367.732 504.62 366.848 504.66C366.006 504.735 365.206 504.1 365.164 503.311C365.08 502.479 365.711 501.762 366.595 501.726V501.686ZM305.079 501.445C305.963 501.489 306.595 502.238 306.511 503.031C306.468 503.823 305.753 504.418 304.953 504.418H304.826V504.379C303.942 504.299 303.31 503.586 303.395 502.793C303.437 501.96 304.237 501.366 305.079 501.445ZM373.374 501.091C374.258 500.972 375.016 501.566 375.143 502.398C375.227 503.191 374.595 503.944 373.753 504.023C373.669 504.023 373.627 504.063 373.543 504.063C372.785 504.063 372.069 503.473 371.984 502.716C371.9 501.923 372.49 501.174 373.374 501.091ZM298.308 500.773C299.192 500.892 299.781 501.605 299.697 502.437C299.613 503.19 298.897 503.746 298.098 503.746H297.929C297.087 503.631 296.455 502.874 296.539 502.081C296.665 501.248 297.466 500.694 298.308 500.773ZM270.395 500.574C270.955 499.956 271.927 499.86 272.593 500.384C272.622 500.407 272.825 500.539 273.225 500.753C273.986 501.153 274.256 502.057 273.831 502.774C273.545 503.262 273.005 503.535 272.449 503.535C272.188 503.535 271.928 503.471 271.684 503.345C270.879 502.924 270.571 502.667 270.571 502.667C269.919 502.132 269.835 501.188 270.395 500.574ZM380.162 500.219C381.004 500.1 381.804 500.655 381.931 501.487C382.057 502.28 381.467 503.033 380.625 503.191V503.151C380.541 503.191 380.456 503.191 380.372 503.191C379.614 503.191 378.941 502.676 378.814 501.923C378.688 501.126 379.278 500.377 380.162 500.258V500.219ZM289.751 501.126C289.877 500.294 290.72 499.742 291.562 499.9C292.404 500.019 292.993 500.769 292.867 501.601C292.741 502.319 292.067 502.834 291.31 502.834H291.057C290.215 502.715 289.625 501.922 289.751 501.126ZM386.811 499.109C387.695 498.951 388.495 499.466 388.705 500.299C388.873 501.091 388.326 501.884 387.442 502.043H387.147C386.39 502.043 385.758 501.566 385.59 500.892C385.422 500.06 385.969 499.307 386.811 499.109ZM283.017 499.862C283.227 499.03 284.027 498.553 284.911 498.712C285.753 498.91 286.3 499.663 286.09 500.496C285.921 501.17 285.29 501.645 284.574 501.645C284.448 501.645 284.321 501.646 284.237 501.602C283.353 501.444 282.848 500.655 283.017 499.862ZM405.207 498.492C405.817 497.933 406.795 497.933 407.405 498.504C408.016 499.071 408.036 499.994 407.451 500.581C407.451 500.581 407.161 500.878 406.424 501.37C406.146 501.552 405.83 501.639 405.515 501.639C405.018 501.639 404.533 501.422 404.222 501.013C403.721 500.344 403.889 499.412 404.601 498.936C404.971 498.695 405.161 498.536 405.207 498.492ZM393.372 497.643C394.214 497.445 395.098 497.881 395.351 498.678C395.561 499.466 395.056 500.3 394.256 500.498C394.088 500.537 393.961 500.577 393.835 500.577C393.119 500.577 392.488 500.14 392.277 499.467C392.067 498.678 392.53 497.881 393.372 497.643ZM338.553 497.682C339.268 497.683 339.815 498.198 339.815 498.872C339.815 499.545 339.268 500.06 338.553 500.06C337.837 500.06 337.289 499.546 337.289 498.872C337.289 498.198 337.837 497.682 338.553 497.682ZM276.408 498.078C276.661 497.285 277.546 496.845 278.388 497.127C279.23 497.365 279.693 498.197 279.44 498.986C279.23 499.624 278.598 500.02 277.925 500.02C277.756 500.02 277.587 499.977 277.461 499.941C276.619 499.703 276.156 498.871 276.408 498.078ZM332.235 497.638C332.951 497.638 333.499 498.197 333.499 498.871C333.499 499.505 332.909 500.02 332.235 500.02C331.52 500.02 330.973 499.461 330.973 498.827C330.973 498.153 331.562 497.639 332.235 497.638ZM344.827 497.638C345.543 497.639 346.132 498.153 346.132 498.827C346.132 499.461 345.585 500.02 344.869 500.02C344.153 500.02 343.605 499.505 343.605 498.871C343.605 498.197 344.153 497.638 344.827 497.638ZM351.145 497.524C351.861 497.485 352.409 498 352.451 498.674C352.451 499.348 351.903 499.863 351.229 499.902H351.187C350.514 499.902 349.925 499.387 349.925 498.753C349.883 498.079 350.43 497.524 351.145 497.524ZM325.961 497.522C326.677 497.562 327.225 498.077 327.183 498.751C327.183 499.385 326.593 499.9 325.919 499.9H325.877C325.203 499.9 324.657 499.346 324.656 498.712C324.698 498.038 325.245 497.522 325.961 497.522ZM319.687 497.321C320.36 497.365 320.908 497.92 320.866 498.555C320.866 499.228 320.276 499.704 319.603 499.704H319.561C318.887 499.664 318.34 499.109 318.34 498.471C318.382 497.801 318.971 497.286 319.687 497.321ZM357.42 497.283C358.136 497.247 358.725 497.763 358.768 498.397C358.768 499.071 358.262 499.622 357.547 499.666H357.504C356.83 499.666 356.241 499.146 356.241 498.516C356.199 497.882 356.704 497.323 357.42 497.283ZM313.378 497.046C314.094 497.085 314.642 497.64 314.558 498.274C314.558 498.908 313.968 499.424 313.294 499.424H313.252C312.536 499.344 312.031 498.79 312.073 498.156C312.115 497.482 312.704 497.006 313.378 497.046ZM363.689 496.925C364.405 496.889 364.994 497.365 365.036 498.039C365.078 498.673 364.573 499.264 363.857 499.304H363.773C363.142 499.304 362.552 498.827 362.51 498.197C362.468 497.523 362.974 496.964 363.689 496.925ZM307.145 496.609C307.819 496.649 308.325 497.247 308.283 497.882C308.241 498.516 307.693 498.987 307.02 498.987H306.936C306.22 498.947 305.715 498.357 305.757 497.722C305.799 497.049 306.43 496.574 307.145 496.609ZM369.971 496.452C370.644 496.377 371.275 496.849 371.359 497.483C371.401 498.157 370.896 498.751 370.223 498.791H370.097C369.423 498.791 368.875 498.359 368.833 497.721C368.749 497.086 369.255 496.492 369.971 496.452ZM399.738 495.659C400.538 495.342 401.464 495.702 401.801 496.491C402.138 497.244 401.759 498.116 400.917 498.433C400.749 498.473 400.538 498.516 400.327 498.516C399.696 498.516 399.106 498.156 398.853 497.601C398.559 496.848 398.938 495.976 399.738 495.659ZM300.871 496.056C301.545 496.136 302.092 496.731 302.008 497.365C301.923 497.999 301.292 498.519 300.618 498.435C299.902 498.356 299.397 497.761 299.481 497.127C299.566 496.453 300.197 495.977 300.871 496.056ZM376.198 495.776C376.872 495.701 377.504 496.133 377.588 496.806C377.714 497.441 377.208 498.04 376.492 498.115C376.45 498.154 376.408 498.154 376.324 498.154C375.735 498.154 375.188 497.682 375.103 497.084C375.02 496.45 375.483 495.855 376.198 495.776ZM294.645 495.342C295.36 495.425 295.823 496.015 295.739 496.693C295.655 497.284 295.108 497.724 294.477 497.724C294.434 497.724 294.35 497.684 294.308 497.684C293.592 497.601 293.129 497.007 293.213 496.333C293.339 495.703 293.971 495.266 294.645 495.342ZM270.98 494.554C271.57 494.312 272.243 494.431 272.706 494.867C273.001 495.144 273.17 495.501 273.17 495.897C273.17 496.294 273.001 496.65 272.706 496.968C272.411 497.245 271.99 497.404 271.569 497.404C271.359 497.404 271.149 497.368 270.98 497.285C270.77 497.21 270.601 497.087 270.475 496.968C270.306 496.809 270.222 496.65 270.138 496.492C270.054 496.294 270.012 496.095 270.012 495.897C270.012 495.703 270.054 495.501 270.138 495.343C270.222 495.144 270.306 494.986 270.475 494.867C270.601 494.712 270.812 494.629 270.98 494.554ZM382.39 494.903C383.063 494.784 383.737 495.221 383.821 495.894C383.948 496.532 383.484 497.163 382.811 497.242C382.726 497.282 382.642 497.282 382.6 497.282C381.968 497.282 381.463 496.846 381.337 496.291C381.211 495.617 381.674 495.022 382.39 494.903ZM287.015 495.34C287.141 494.709 287.772 494.27 288.488 494.392C289.162 494.507 289.625 495.142 289.499 495.776C289.373 496.375 288.825 496.766 288.235 496.766C288.151 496.766 288.109 496.767 288.025 496.731C287.31 496.608 286.888 496.014 287.015 495.34ZM388.532 493.796C389.206 493.677 389.88 494.078 390.006 494.712C390.174 495.342 389.754 495.976 389.038 496.135C388.954 496.135 388.869 496.174 388.785 496.174C388.196 496.174 387.691 495.777 387.564 495.226C387.396 494.592 387.817 493.954 388.532 493.796ZM280.828 494.034C280.997 493.404 281.712 493.004 282.386 493.202C283.059 493.321 283.481 493.995 283.312 494.629C283.144 495.184 282.639 495.545 282.092 495.545C281.966 495.545 281.881 495.501 281.797 495.501C281.081 495.342 280.702 494.712 280.828 494.034ZM405.711 492.569C406.09 492.411 406.554 492.411 406.933 492.569C407.101 492.644 407.269 492.728 407.437 492.883C407.732 493.16 407.9 493.517 407.9 493.913C407.9 494.309 407.732 494.666 407.437 494.983C407.143 495.261 406.722 495.42 406.301 495.42C406.09 495.42 405.921 495.384 405.711 495.301C405.543 495.225 405.332 495.102 405.206 494.983C405.038 494.825 404.953 494.666 404.869 494.508C404.785 494.309 404.743 494.111 404.743 493.913C404.743 493.719 404.785 493.517 404.869 493.358C404.953 493.16 405.038 493.002 405.206 492.883C405.332 492.728 405.543 492.644 405.711 492.569ZM394.557 492.368C395.23 492.17 395.904 492.527 396.114 493.161C396.325 493.799 395.904 494.469 395.272 494.628V494.668C395.146 494.668 395.02 494.711 394.894 494.711C394.346 494.711 393.841 494.35 393.673 493.835C393.504 493.201 393.883 492.527 394.557 492.368ZM339.268 491.934C339.815 491.934 340.32 492.366 340.32 492.925C340.32 493.48 339.857 493.916 339.268 493.916C338.678 493.916 338.215 493.48 338.215 492.925C338.215 492.366 338.678 491.934 339.268 491.934ZM330.678 491.89C331.267 491.891 331.73 492.326 331.73 492.881C331.73 493.439 331.225 493.872 330.678 493.872C330.088 493.832 329.625 493.4 329.625 492.842C329.625 492.291 330.13 491.851 330.678 491.89ZM274.853 492.209C275.106 491.618 275.822 491.301 276.453 491.535C277.127 491.737 277.463 492.45 277.211 493.041C277.042 493.516 276.58 493.838 276.032 493.838C275.906 493.838 275.738 493.798 275.611 493.759C274.938 493.517 274.601 492.847 274.853 492.209ZM347.817 491.851C348.407 491.851 348.912 492.288 348.912 492.804C348.912 493.358 348.449 493.834 347.859 493.834C347.27 493.834 346.808 493.401 346.808 492.843C346.766 492.327 347.228 491.852 347.817 491.851ZM322.13 491.653C322.719 491.693 323.141 492.169 323.141 492.684C323.14 493.243 322.635 493.676 322.088 493.676H322.046C321.456 493.636 321.035 493.199 321.035 492.644C321.035 492.093 321.541 491.653 322.13 491.653ZM356.408 491.576C356.956 491.532 357.461 491.973 357.503 492.524C357.503 493.083 357.081 493.558 356.492 493.558C355.903 493.598 355.398 493.158 355.397 492.607C355.355 492.092 355.819 491.616 356.408 491.576ZM313.584 491.298C314.173 491.337 314.595 491.773 314.553 492.328C314.511 492.879 314.047 493.279 313.5 493.279H313.458C312.869 493.239 312.405 492.764 312.447 492.205C312.49 491.694 312.995 491.258 313.584 491.298ZM364.909 491.102C365.498 491.059 366.004 491.459 366.046 492.01C366.088 492.569 365.667 493.04 365.077 493.084H365.035C364.446 493.084 363.983 492.684 363.94 492.173C363.898 491.618 364.362 491.142 364.909 491.102ZM400.368 490.466C401 490.188 401.757 490.466 402.01 491.104C402.304 491.695 401.968 492.369 401.336 492.646C401.21 492.729 401.041 492.729 400.873 492.729C400.368 492.729 399.905 492.487 399.694 492.012C399.4 491.421 399.737 490.703 400.368 490.466ZM305.042 490.703C305.631 490.747 306.052 491.218 306.01 491.777C305.968 492.289 305.504 492.685 304.957 492.685H304.873C304.284 492.606 303.863 492.13 303.905 491.579C303.948 491.06 304.453 490.663 305.042 490.703ZM373.422 490.347C374.011 490.268 374.559 490.665 374.602 491.22C374.686 491.739 374.264 492.25 373.675 492.29C373.633 492.329 373.591 492.33 373.549 492.33C373.044 492.33 372.58 491.933 372.538 491.422C372.454 490.903 372.875 490.387 373.422 490.347ZM296.529 489.833C297.119 489.912 297.54 490.388 297.456 490.943C297.372 491.458 296.909 491.815 296.403 491.815H296.277C295.688 491.736 295.308 491.22 295.351 490.705C295.435 490.15 295.982 489.754 296.529 489.833ZM381.878 489.235C382.467 489.156 383.014 489.513 383.099 490.028C383.183 490.587 382.804 491.103 382.257 491.218V491.178C382.173 491.217 382.13 491.218 382.088 491.218C381.583 491.217 381.119 490.86 381.035 490.385C380.951 489.83 381.331 489.318 381.878 489.235ZM286.888 489.396C287.014 488.841 287.562 488.484 288.109 488.607C288.698 488.683 289.077 489.198 288.951 489.757C288.867 490.228 288.404 490.546 287.898 490.546H287.729C287.14 490.431 286.804 489.911 286.888 489.396ZM405.423 487.81C405.886 487.335 406.685 487.335 407.19 487.771C407.696 488.247 407.696 489 407.233 489.475C406.981 489.713 406.643 489.832 406.307 489.832C406.012 489.832 405.675 489.713 405.423 489.515C404.96 489.04 404.918 488.286 405.423 487.81ZM390.264 487.692C390.811 487.569 391.4 487.891 391.526 488.402C391.652 488.961 391.316 489.476 390.727 489.635H390.516C390.011 489.634 389.59 489.317 389.464 488.882C389.338 488.366 389.674 487.811 390.264 487.692ZM278.552 487.492C278.72 486.937 279.268 486.66 279.857 486.822C280.404 486.937 280.741 487.492 280.573 488.047C280.447 488.483 280.026 488.764 279.562 488.764C279.478 488.764 279.352 488.721 279.268 488.721C278.72 488.562 278.383 488.007 278.552 487.492ZM398.393 485.476C398.94 485.274 399.53 485.551 399.698 486.066C399.909 486.582 399.656 487.137 399.108 487.335C398.982 487.374 398.856 487.375 398.729 487.375C398.308 487.375 397.887 487.136 397.761 486.74C397.551 486.225 397.803 485.635 398.393 485.432V485.476ZM270.853 483.962C271.105 483.728 271.568 483.605 271.989 483.767C272.116 483.807 272.242 483.886 272.326 483.962C272.537 484.164 272.621 484.401 272.621 484.679C272.621 484.952 272.537 485.194 272.326 485.392C272.116 485.551 271.863 485.67 271.568 485.67C271.316 485.67 271.021 485.551 270.853 485.392C270.642 485.194 270.516 484.952 270.516 484.679C270.516 484.401 270.642 484.164 270.853 483.962ZM405.583 481.98C405.962 481.624 406.678 481.624 407.057 481.98C407.267 482.182 407.352 482.421 407.352 482.698C407.352 482.972 407.267 483.214 407.057 483.412C406.846 483.57 406.593 483.689 406.299 483.689C406.046 483.689 405.751 483.57 405.583 483.412C405.372 483.214 405.246 482.936 405.246 482.698C405.246 482.421 405.372 482.182 405.583 481.98Z" fill="black"/>
<path fill-rule="evenodd" clip-rule="evenodd" d="M331.476 480.547H332.654V475.598H331.476V480.547ZM342.187 477.02C342.144 477.005 341.761 476.75 341.194 476.75C340.427 476.75 339.902 477.319 339.902 478.084C339.902 478.819 340.413 479.404 341.194 479.404C341.747 479.404 342.144 479.164 342.187 479.134V480.453C342.045 480.513 341.634 480.633 341.109 480.633C339.789 480.633 338.625 479.659 338.625 478.084C338.625 476.6 339.675 475.52 341.109 475.52C341.662 475.52 342.074 475.655 342.187 475.7V477.02ZM329.859 477.02C329.816 477.005 329.433 476.75 328.865 476.75C328.099 476.75 327.574 477.319 327.574 478.084C327.574 478.819 328.085 479.404 328.865 479.404C329.419 479.404 329.816 479.164 329.859 479.134V480.453C329.717 480.513 329.32 480.633 328.794 480.633C327.461 480.633 326.297 479.659 326.297 478.084C326.297 476.6 327.347 475.52 328.794 475.52C329.348 475.52 329.759 475.655 329.859 475.7V477.02ZM345.904 476.77C345.208 476.77 344.683 477.37 344.683 478.075C344.683 478.795 345.208 479.38 345.904 479.38C346.613 479.38 347.124 478.795 347.124 478.075C347.124 477.37 346.613 476.77 345.904 476.77M348.383 478.076C348.383 479.485 347.347 480.64 345.9 480.64C344.466 480.64 343.43 479.485 343.43 478.076C343.43 476.666 344.466 475.526 345.9 475.526C347.347 475.526 348.383 476.666 348.383 478.076M337.151 476.728C337.137 476.728 336.64 476.578 336.229 476.578C335.746 476.578 335.491 476.743 335.491 476.983C335.491 477.283 335.845 477.388 336.044 477.448L336.356 477.568C337.137 477.823 337.477 478.378 337.477 478.978C337.477 480.222 336.456 480.642 335.547 480.642C334.909 480.642 334.327 480.507 334.256 480.492V479.367C334.37 479.397 334.866 479.547 335.377 479.547C335.973 479.547 336.243 479.367 336.243 479.083C336.243 478.843 336.002 478.693 335.704 478.603C335.647 478.573 335.533 478.543 335.462 478.513C334.795 478.288 334.242 477.883 334.242 477.058C334.242 476.143 334.909 475.514 336.002 475.514C336.569 475.514 337.108 475.664 337.151 475.679V476.728ZM325.049 470.292C325.049 469.947 324.765 469.677 324.453 469.677C324.127 469.677 323.871 469.947 323.871 470.292V471.581C323.871 471.926 324.127 472.211 324.453 472.211C324.765 472.211 325.049 471.926 325.049 471.581V470.292ZM328.259 468.586C328.259 468.256 327.99 467.971 327.663 467.971C327.351 467.971 327.082 468.256 327.082 468.586V471.585C327.082 471.93 327.351 472.214 327.663 472.214C327.99 472.214 328.259 471.93 328.259 471.585V468.586ZM331.482 466.255C331.482 465.911 331.213 465.641 330.886 465.641C330.574 465.641 330.305 465.911 330.305 466.255V472.823C330.305 473.153 330.574 473.438 330.886 473.438C331.213 473.438 331.482 473.153 331.482 472.823V466.255ZM334.705 468.586C334.705 468.256 334.435 467.971 334.123 467.971C333.796 467.971 333.527 468.256 333.527 468.586V471.585C333.527 471.93 333.796 472.214 334.123 472.214C334.435 472.214 334.705 471.93 334.705 471.585V468.586ZM337.928 470.289C337.928 469.945 337.658 469.675 337.332 469.675C337.02 469.675 336.75 469.945 336.75 470.289V471.579C336.75 471.924 337.02 472.209 337.332 472.209C337.658 472.209 337.928 471.924 337.928 471.579V470.289ZM341.138 468.586C341.138 468.256 340.869 467.971 340.542 467.971C340.23 467.971 339.96 468.256 339.96 468.586V471.585C339.96 471.93 340.23 472.214 340.542 472.214C340.869 472.214 341.138 471.93 341.138 471.585V468.586ZM344.361 466.255C344.361 465.911 344.106 465.641 343.78 465.641C343.453 465.641 343.184 465.911 343.184 466.255V472.823C343.184 473.153 343.453 473.438 343.78 473.438C344.106 473.438 344.361 473.153 344.361 472.823V466.255ZM347.584 468.586C347.584 468.256 347.315 467.971 346.988 467.971C346.662 467.971 346.407 468.256 346.407 468.586V471.585C346.407 471.93 346.662 472.214 346.988 472.214C347.315 472.214 347.584 471.93 347.584 471.585V468.586ZM350.805 470.289C350.805 469.945 350.536 469.675 350.224 469.675C349.897 469.675 349.628 469.945 349.628 470.289V471.579C349.628 471.924 349.897 472.209 350.224 472.209C350.536 472.209 350.805 471.924 350.805 471.579V470.289Z" fill="#C5C5C5"/>
<path fill-rule="evenodd" clip-rule="evenodd" d="M354.083 406.713C354.083 414.997 347.33 421.713 338.999 421.713C330.669 421.713 323.916 414.997 323.916 406.713C323.916 398.429 330.669 391.713 338.999 391.713C347.33 391.713 354.083 398.429 354.083 406.713" fill="url(#paint9_linear_23746_2134)"/>
</g>
<defs>
<filter id="filter0_i_23746_2134" x="270" y="276" width="139" height="300" filterUnits="userSpaceOnUse" color-interpolation-filters="sRGB">
<feFlood flood-opacity="0" result="BackgroundImageFix"/>
<feBlend mode="normal" in="SourceGraphic" in2="BackgroundImageFix" result="shape"/>
<feColorMatrix in="SourceAlpha" type="matrix" values="0 0 0 0 0 0 0 0 0 0 0 0 0 0 0 0 0 0 127 0" result="hardAlpha"/>
<feOffset dx="1"/>
<feGaussianBlur stdDeviation="0.5"/>
<feComposite in2="hardAlpha" operator="arithmetic" k2="-1" k3="1"/>
<feColorMatrix type="matrix" values="0 0 0 0 0 0 0 0 0 0 0 0 0 0 0 0 0 0 0.04 0"/>
<feBlend mode="normal" in2="shape" result="effect1_innerShadow_23746_2134"/>
</filter>
<filter id="filter1_d_23746_2134" x="269.5" y="279.785" width="138.904" height="292.428" filterUnits="userSpaceOnUse" color-interpolation-filters="sRGB">
<feFlood flood-opacity="0" result="BackgroundImageFix"/>
<feColorMatrix in="SourceAlpha" type="matrix" values="0 0 0 0 0 0 0 0 0 0 0 0 0 0 0 0 0 0 127 0" result="hardAlpha"/>
<feOffset/>
<feGaussianBlur stdDeviation="0.25"/>
<feColorMatrix type="matrix" values="0 0 0 0 0 0 0 0 0 0 0 0 0 0 0 0 0 0 0.24 0"/>
<feBlend mode="normal" in2="BackgroundImageFix" result="effect1_dropShadow_23746_2134"/>
<feBlend mode="normal" in="SourceGraphic" in2="effect1_dropShadow_23746_2134" result="shape"/>
</filter>
<linearGradient id="paint0_linear_23746_2134" x1="180" y1="235.27" x2="863.21" y2="235.27" gradientUnits="userSpaceOnUse">
<stop stop-color="#9A9EA1"/>
<stop offset="1" stop-color="#D3D3D3"/>
</linearGradient>
<linearGradient id="paint1_linear_23746_2134" x1="882" y1="36" x2="882" y2="456" gradientUnits="userSpaceOnUse">
<stop stop-color="#666666"/>
<stop offset="0.29389" stop-color="#A0A0A2"/>
<stop offset="1" stop-color="#696969"/>
</linearGradient>
<linearGradient id="paint2_linear_23746_2134" x1="189" y1="36" x2="189" y2="456" gradientUnits="userSpaceOnUse">
<stop stop-color="#AAABAD"/>
<stop offset="0.157115" stop-color="#DCDCDC"/>
<stop offset="1" stop-color="#AAABAD"/>
</linearGradient>
<linearGradient id="paint3_linear_23746_2134" x1="-180" y1="246" x2="185.596" y2="872.736" gradientUnits="userSpaceOnUse">
<stop stop-color="white" stop-opacity="0.4"/>
<stop offset="0.542051" stop-color="white" stop-opacity="0.01"/>
<stop offset="1" stop-color="white" stop-opacity="0.4"/>
</linearGradient>
<linearGradient id="paint4_linear_23746_2134" x1="-144" y1="246" x2="183.833" y2="829.953" gradientUnits="userSpaceOnUse">
<stop stop-color="white" stop-opacity="0.16"/>
<stop offset="1" stop-opacity="0.5"/>
</linearGradient>
<linearGradient id="paint5_linear_23746_2134" x1="-180" y1="246" x2="185.596" y2="872.736" gradientUnits="userSpaceOnUse">
<stop stop-color="white" stop-opacity="0.08"/>
<stop offset="1" stop-color="white" stop-opacity="0.01"/>
</linearGradient>
<linearGradient id="paint6_linear_23746_2134" x1="270" y1="276" x2="270" y2="576" gradientUnits="userSpaceOnUse">
<stop stop-color="#F5F5F5"/>
<stop offset="1" stop-color="#D5D5D5"/>
</linearGradient>
<linearGradient id="paint7_linear_23746_2134" x1="272.444" y1="569.131" x2="407.904" y2="569.131" gradientUnits="userSpaceOnUse">
<stop stop-color="#F5F5F5"/>
<stop offset="0.195538" stop-color="#F5F5F5"/>
<stop offset="0.774341" stop-color="#E6E6E6"/>
<stop offset="1" stop-color="#C8C8C8"/>
</linearGradient>
<linearGradient id="paint8_linear_23746_2134" x1="294.369" y1="512.006" x2="294.369" y2="567.427" gradientUnits="userSpaceOnUse">
<stop stop-color="white" stop-opacity="0.2"/>
<stop offset="1" stop-color="#707070" stop-opacity="0.08"/>
</linearGradient>
<linearGradient id="paint9_linear_23746_2134" x1="356.241" y1="401.724" x2="331.755" y2="386.501" gradientUnits="userSpaceOnUse">
<stop stop-color="#F5F5F5"/>
<stop offset="1" stop-color="#DADADA"/>
</linearGradient>
<clipPath id="clip0_23746_2134">
<rect width="1080" height="576" fill="white"/>
</clipPath>
<clipPath id="clip1_23746_2134">
<rect width="720" height="420" fill="white" transform="translate(180 36)"/>
</clipPath>
</defs>
</svg>
