<svg width="1080" height="576" viewBox="0 0 1080 576" fill="none" xmlns="http://www.w3.org/2000/svg">
<g clip-path="url(#clip0_23746_2129)">
<path fill-rule="evenodd" clip-rule="evenodd" d="M98.9984 168.751C99.6486 168.264 100.439 168 101.252 168H978.748C979.561 168 980.351 168.264 981.002 168.751L1020 198H60L98.9984 168.751Z" fill="#F0F0F0"/>
<path fill-rule="evenodd" clip-rule="evenodd" d="M378.995 354.439C379.076 354.178 379.318 354 379.592 354H700.408C700.682 354 700.924 354.178 701.005 354.439L714 396H366L378.995 354.439Z" fill="#F1F1F1"/>
<path fill-rule="evenodd" clip-rule="evenodd" d="M534.656 378.842H536.149V375.534H534.656V378.842ZM548.219 376.486C548.165 376.476 547.68 376.305 546.96 376.305C545.988 376.305 545.322 376.686 545.322 377.197C545.322 377.689 545.97 378.08 546.96 378.08C547.662 378.08 548.165 377.919 548.219 377.899V378.781C548.039 378.821 547.518 378.901 546.852 378.901C545.178 378.901 543.703 378.25 543.703 377.197C543.703 376.205 545.034 375.483 546.852 375.483C547.554 375.483 548.075 375.574 548.219 375.604V376.486ZM532.587 376.486C532.533 376.476 532.047 376.305 531.327 376.305C530.356 376.305 529.69 376.686 529.69 377.197C529.69 377.689 530.338 378.08 531.327 378.08C532.029 378.08 532.533 377.919 532.587 377.899V378.781C532.407 378.821 531.903 378.901 531.237 378.901C529.546 378.901 528.07 378.25 528.07 377.197C528.07 376.205 529.402 375.483 531.237 375.483C531.939 375.483 532.461 375.574 532.587 375.604V376.486ZM552.938 376.318C552.056 376.318 551.39 376.719 551.39 377.191C551.39 377.672 552.056 378.063 552.938 378.063C553.838 378.063 554.485 377.672 554.485 377.191C554.485 376.719 553.838 376.318 552.938 376.318ZM556.077 377.19C556.077 378.132 554.763 378.904 552.928 378.904C551.11 378.904 549.797 378.132 549.797 377.19C549.797 376.247 551.11 375.486 552.928 375.486C554.763 375.486 556.077 376.247 556.077 377.19ZM541.838 376.289C541.82 376.289 541.19 376.189 540.668 376.189C540.056 376.189 539.732 376.299 539.732 376.459C539.732 376.66 540.182 376.73 540.434 376.77L540.83 376.85C541.82 377.021 542.252 377.392 542.252 377.793C542.252 378.625 540.956 378.905 539.804 378.905C538.995 378.905 538.257 378.815 538.167 378.805V378.053C538.311 378.073 538.941 378.173 539.588 378.173C540.344 378.173 540.686 378.053 540.686 377.863C540.686 377.702 540.38 377.602 540.002 377.542C539.93 377.522 539.786 377.502 539.696 377.482C538.851 377.331 538.149 377.061 538.149 376.51C538.149 375.898 538.995 375.477 540.38 375.477C541.1 375.477 541.784 375.577 541.838 375.587V376.289ZM526.494 371.987C526.494 371.756 526.134 371.576 525.738 371.576C525.324 371.576 525 371.756 525 371.987V372.849C525 373.08 525.324 373.27 525.738 373.27C526.134 373.27 526.494 373.08 526.494 372.849V371.987ZM530.571 370.846C530.571 370.626 530.229 370.435 529.815 370.435C529.419 370.435 529.077 370.626 529.077 370.846V372.851C529.077 373.081 529.419 373.272 529.815 373.272C530.229 373.272 530.571 373.081 530.571 372.851V370.846ZM534.661 369.29C534.661 369.059 534.319 368.879 533.905 368.879C533.509 368.879 533.168 369.059 533.168 369.29V373.68C533.168 373.901 533.509 374.091 533.905 374.091C534.319 374.091 534.661 373.901 534.661 373.68V369.29ZM538.728 370.846C538.728 370.626 538.386 370.435 537.99 370.435C537.576 370.435 537.234 370.626 537.234 370.846V372.851C537.234 373.081 537.576 373.272 537.99 373.272C538.386 373.272 538.728 373.081 538.728 372.851V370.846ZM542.818 371.987C542.818 371.756 542.476 371.576 542.062 371.576C541.666 371.576 541.324 371.756 541.324 371.987V372.849C541.324 373.08 541.666 373.27 542.062 373.27C542.476 373.27 542.818 373.08 542.818 372.849V371.987ZM546.895 370.846C546.895 370.626 546.554 370.435 546.14 370.435C545.744 370.435 545.402 370.626 545.402 370.846V372.851C545.402 373.081 545.744 373.272 546.14 373.272C546.554 373.272 546.895 373.081 546.895 372.851V370.846ZM550.986 369.29C550.986 369.059 550.662 368.879 550.248 368.879C549.834 368.879 549.492 369.059 549.492 369.29V373.68C549.492 373.901 549.834 374.091 550.248 374.091C550.662 374.091 550.986 373.901 550.986 373.68V369.29ZM555.077 370.846C555.077 370.626 554.735 370.435 554.321 370.435C553.907 370.435 553.583 370.626 553.583 370.846V372.851C553.583 373.081 553.907 373.272 554.321 373.272C554.735 373.272 555.077 373.081 555.077 372.851V370.846ZM559.154 371.987C559.154 371.756 558.812 371.576 558.416 371.576C558.002 371.576 557.661 371.756 557.661 371.987V372.849C557.661 373.08 558.002 373.27 558.416 373.27C558.812 373.27 559.154 373.08 559.154 372.849V371.987Z" fill="#AEAEAE"/>
<rect x="366" y="396" width="348" height="18" rx="0.625978" fill="url(#paint0_linear_23746_2129)"/>
<rect x="366" y="396" width="348" height="18" rx="0.625978" fill="black" fill-opacity="0.04"/>
<g filter="url(#filter0_i_23746_2129)">
<path fill-rule="evenodd" clip-rule="evenodd" d="M70 312C64.47 312 60 307.53 60 302V202C60 196.47 64.47 192 70 192H1010C1015.53 192 1020 196.47 1020 202V302C1020 307.53 1015.53 312 1010 312H70Z" fill="url(#paint1_linear_23746_2129)"/>
</g>
<path fill-rule="evenodd" clip-rule="evenodd" d="M89.6596 293.555H91.1531V286.939H89.6596V293.555ZM103.223 288.839C103.169 288.819 102.683 288.478 101.964 288.478C100.992 288.478 100.326 289.24 100.326 290.262C100.326 291.244 100.974 292.026 101.964 292.026C102.665 292.026 103.169 291.705 103.223 291.665V293.429C103.043 293.51 102.522 293.67 101.856 293.67C100.182 293.67 98.7067 292.367 98.7067 290.262C98.7067 288.277 100.038 286.834 101.856 286.834C102.558 286.834 103.079 287.014 103.223 287.074V288.839ZM87.5907 288.839C87.5368 288.819 87.0509 288.478 86.3311 288.478C85.3594 288.478 84.6936 289.24 84.6936 290.262C84.6936 291.244 85.3414 292.026 86.3311 292.026C87.0329 292.026 87.5368 291.705 87.5907 291.665V293.429C87.4108 293.51 86.907 293.67 86.2412 293.67C84.5497 293.67 83.0741 292.367 83.0741 290.262C83.0741 288.277 84.4057 286.834 86.2412 286.834C86.9429 286.834 87.4648 287.014 87.5907 287.074V288.839ZM107.942 288.506C107.06 288.506 106.394 289.308 106.394 290.25C106.394 291.212 107.06 291.994 107.942 291.994C108.842 291.994 109.489 291.212 109.489 290.25C109.489 289.308 108.842 288.506 107.942 288.506ZM111.081 290.25C111.081 292.135 109.767 293.678 107.932 293.678C106.114 293.678 104.801 292.135 104.801 290.25C104.801 288.366 106.114 286.842 107.932 286.842C109.767 286.842 111.081 288.366 111.081 290.25ZM96.8416 288.449C96.8236 288.449 96.1938 288.249 95.6719 288.249C95.0601 288.249 94.7362 288.469 94.7362 288.79C94.7362 289.191 95.1861 289.331 95.438 289.412L95.8339 289.572C96.8236 289.913 97.2555 290.654 97.2555 291.456C97.2555 293.12 95.9599 293.682 94.8082 293.682C93.9984 293.682 93.2607 293.501 93.1707 293.481V291.978C93.3146 292.018 93.9445 292.218 94.5923 292.218C95.348 292.218 95.6899 291.978 95.6899 291.597C95.6899 291.276 95.384 291.075 95.0061 290.955C94.9342 290.915 94.7902 290.875 94.7002 290.835C93.8545 290.534 93.1527 289.993 93.1527 288.89C93.1527 287.667 93.9984 286.825 95.384 286.825C96.1038 286.825 96.7876 287.026 96.8416 287.046V288.449ZM81.4975 279.843C81.4975 279.382 81.1376 279.021 80.7417 279.021C80.3278 279.021 80.0039 279.382 80.0039 279.843V281.567C80.0039 282.028 80.3278 282.409 80.7417 282.409C81.1376 282.409 81.4975 282.028 81.4975 281.567V279.843ZM85.5749 277.561C85.5749 277.12 85.233 276.739 84.8191 276.739C84.4232 276.739 84.0813 277.12 84.0813 277.561V281.571C84.0813 282.032 84.4232 282.413 84.8191 282.413C85.233 282.413 85.5749 282.032 85.5749 281.571V277.561ZM89.665 274.449C89.665 273.988 89.3231 273.627 88.9092 273.627C88.5133 273.627 88.1714 273.988 88.1714 274.449V283.23C88.1714 283.671 88.5133 284.052 88.9092 284.052C89.3231 284.052 89.665 283.671 89.665 283.23V274.449ZM93.7318 277.563C93.7318 277.122 93.3899 276.742 92.9941 276.742C92.5802 276.742 92.2383 277.122 92.2383 277.563V281.573C92.2383 282.034 92.5802 282.415 92.9941 282.415C93.3899 282.415 93.7318 282.034 93.7318 281.573V277.563ZM97.8219 279.843C97.8219 279.382 97.48 279.021 97.0661 279.021C96.6703 279.021 96.3284 279.382 96.3284 279.843V281.567C96.3284 282.028 96.6703 282.409 97.0661 282.409C97.48 282.409 97.8219 282.028 97.8219 281.567V279.843ZM101.899 277.561C101.899 277.12 101.557 276.739 101.144 276.739C100.748 276.739 100.406 277.12 100.406 277.561V281.571C100.406 282.032 100.748 282.413 101.144 282.413C101.557 282.413 101.899 282.032 101.899 281.571V277.561ZM105.99 274.449C105.99 273.988 105.666 273.627 105.252 273.627C104.838 273.627 104.496 273.988 104.496 274.449V283.23C104.496 283.671 104.838 284.052 105.252 284.052C105.666 284.052 105.99 283.671 105.99 283.23V274.449ZM110.081 277.561C110.081 277.12 109.739 276.739 109.325 276.739C108.911 276.739 108.587 277.12 108.587 277.561V281.571C108.587 282.032 108.911 282.413 109.325 282.413C109.739 282.413 110.081 282.032 110.081 281.571V277.561ZM114.158 279.843C114.158 279.382 113.816 279.021 113.42 279.021C113.006 279.021 112.664 279.382 112.664 279.843V281.567C112.664 282.028 113.006 282.409 113.42 282.409C113.816 282.409 114.158 282.028 114.158 281.567V279.843Z" fill="white"/>
<g filter="url(#filter1_i_23746_2129)">
<path fill-rule="evenodd" clip-rule="evenodd" d="M608.304 283.654H469.704C453.3 283.654 440.004 270.188 440.004 253.574C440.004 236.96 453.3 223.494 469.704 223.494H608.304C624.708 223.494 638.004 236.96 638.004 253.574C638.004 270.188 624.708 283.654 608.304 283.654Z" fill="url(#paint2_linear_23746_2129)"/>
</g>
<path fill-rule="evenodd" clip-rule="evenodd" d="M470 266.108C463.11 266.108 457.5 260.483 457.5 253.574C457.5 246.666 463.11 241.041 470 241.041C476.89 241.041 482.5 246.666 482.5 253.574C482.5 260.483 476.89 266.108 470 266.108Z" fill="#666666"/>
<path fill-rule="evenodd" clip-rule="evenodd" d="M470.004 238.533C461.734 238.533 455.004 245.281 455.004 253.573C455.004 261.865 461.734 268.613 470.004 268.613C478.274 268.613 485.004 261.865 485.004 253.573C485.004 245.281 478.274 238.533 470.004 238.533ZM470.007 243.546C475.537 243.546 480.007 248.028 480.007 253.572C480.007 259.117 475.537 263.599 470.007 263.599C464.477 263.599 460.007 259.117 460.007 253.572C460.007 248.028 464.477 243.546 470.007 243.546Z" fill="black"/>
<path fill-rule="evenodd" clip-rule="evenodd" d="M509.996 266.108C503.106 266.108 497.496 260.483 497.496 253.574C497.496 246.666 503.106 241.041 509.996 241.041C516.886 241.041 522.496 246.666 522.496 253.574C522.496 260.483 516.886 266.108 509.996 266.108Z" fill="#666666"/>
<path fill-rule="evenodd" clip-rule="evenodd" d="M510 238.533C501.73 238.533 495 245.281 495 253.573C495 261.865 501.73 268.613 510 268.613C518.27 268.613 525 261.865 525 253.573C525 245.281 518.27 238.533 510 238.533ZM510.003 243.546C515.533 243.546 520.003 248.028 520.003 253.572C520.003 259.117 515.533 263.599 510.003 263.599C504.473 263.599 500.003 259.117 500.003 253.572C500.003 248.028 504.473 243.546 510.003 243.546Z" fill="black"/>
<path fill-rule="evenodd" clip-rule="evenodd" d="M550.004 266.108C543.114 266.108 537.504 260.483 537.504 253.574C537.504 246.666 543.114 241.041 550.004 241.041C556.894 241.041 562.504 246.666 562.504 253.574C562.504 260.483 556.894 266.108 550.004 266.108Z" fill="#666666"/>
<path fill-rule="evenodd" clip-rule="evenodd" d="M549.996 238.533C541.726 238.533 534.996 245.281 534.996 253.573C534.996 261.865 541.726 268.613 549.996 268.613C558.266 268.613 564.996 261.865 564.996 253.573C564.996 245.281 558.266 238.533 549.996 238.533ZM550 243.546C555.53 243.546 560 248.028 560 253.572C560 259.117 555.53 263.599 550 263.599C544.47 263.599 540 259.117 540 253.572C540 248.028 544.47 243.546 550 243.546Z" fill="black"/>
<path fill-rule="evenodd" clip-rule="evenodd" d="M609.996 268.613C601.726 268.613 594.996 261.865 594.996 253.573C594.996 245.281 601.726 238.533 609.996 238.533C618.266 238.533 624.996 245.281 624.996 253.573C624.996 261.865 618.266 268.613 609.996 268.613Z" fill="#666666"/>
<path fill-rule="evenodd" clip-rule="evenodd" d="M610.004 233.518C598.974 233.518 590.004 242.511 590.004 253.571C590.004 264.63 598.974 273.624 610.004 273.624C621.034 273.624 630.004 264.63 630.004 253.571C630.004 242.511 621.034 233.518 610.004 233.518ZM610 243.542C615.53 243.542 620 248.024 620 253.569C620 259.114 615.53 263.596 610 263.596C604.47 263.596 600 259.114 600 253.569C600 248.024 604.47 243.542 610 243.542Z" fill="url(#paint3_linear_23746_2129)"/>
</g>
<defs>
<filter id="filter0_i_23746_2129" x="60" y="192" width="960" height="120" filterUnits="userSpaceOnUse" color-interpolation-filters="sRGB">
<feFlood flood-opacity="0" result="BackgroundImageFix"/>
<feBlend mode="normal" in="SourceGraphic" in2="BackgroundImageFix" result="shape"/>
<feColorMatrix in="SourceAlpha" type="matrix" values="0 0 0 0 0 0 0 0 0 0 0 0 0 0 0 0 0 0 127 0" result="hardAlpha"/>
<feOffset dy="1"/>
<feComposite in2="hardAlpha" operator="arithmetic" k2="-1" k3="1"/>
<feColorMatrix type="matrix" values="0 0 0 0 1 0 0 0 0 1 0 0 0 0 1 0 0 0 0.500906 0"/>
<feBlend mode="normal" in2="shape" result="effect1_innerShadow_23746_2129"/>
</filter>
<filter id="filter1_i_23746_2129" x="440.004" y="222.494" width="198" height="61.1602" filterUnits="userSpaceOnUse" color-interpolation-filters="sRGB">
<feFlood flood-opacity="0" result="BackgroundImageFix"/>
<feBlend mode="normal" in="SourceGraphic" in2="BackgroundImageFix" result="shape"/>
<feColorMatrix in="SourceAlpha" type="matrix" values="0 0 0 0 0 0 0 0 0 0 0 0 0 0 0 0 0 0 127 0" result="hardAlpha"/>
<feOffset dy="-1"/>
<feGaussianBlur stdDeviation="2"/>
<feComposite in2="hardAlpha" operator="arithmetic" k2="-1" k3="1"/>
<feColorMatrix type="matrix" values="0 0 0 0 0 0 0 0 0 0 0 0 0 0 0 0 0 0 0.5 0"/>
<feBlend mode="normal" in2="shape" result="effect1_innerShadow_23746_2129"/>
</filter>
<linearGradient id="paint0_linear_23746_2129" x1="366" y1="423" x2="714" y2="423" gradientUnits="userSpaceOnUse">
<stop stop-color="#EFEFEF"/>
<stop offset="0.0109096" stop-color="#F7F7F7"/>
<stop offset="0.0304408" stop-color="#ECEBEB"/>
<stop offset="0.977518" stop-color="#ECEBEB"/>
<stop offset="0.990534" stop-color="#F7F7F7"/>
<stop offset="1" stop-color="#EFEFEF"/>
</linearGradient>
<linearGradient id="paint1_linear_23746_2129" x1="60" y1="192" x2="60" y2="312" gradientUnits="userSpaceOnUse">
<stop stop-color="#DFDFDF"/>
<stop offset="1" stop-color="#7E7E7E"/>
</linearGradient>
<linearGradient id="paint2_linear_23746_2129" x1="440.004" y1="283.654" x2="638.004" y2="283.654" gradientUnits="userSpaceOnUse">
<stop stop-color="#2B2B2B"/>
<stop offset="0.563674" stop-color="#4F4F4F"/>
<stop offset="0.675635" stop-color="#535353"/>
<stop offset="0.761335" stop-color="#4A4A4A"/>
<stop offset="1" stop-color="#1C1C1C"/>
</linearGradient>
<linearGradient id="paint3_linear_23746_2129" x1="590.004" y1="233.518" x2="590.004" y2="273.624" gradientUnits="userSpaceOnUse">
<stop stop-color="#2B2B2B"/>
<stop offset="0.491849" stop-color="#434343"/>
<stop offset="1" stop-color="#1C1C1C"/>
</linearGradient>
<clipPath id="clip0_23746_2129">
<rect width="1080" height="576" fill="white"/>
</clipPath>
</defs>
</svg>
