<svg width="1080" height="576" viewBox="0 0 1080 576" fill="none" xmlns="http://www.w3.org/2000/svg">
<g clip-path="url(#clip0_23746_2133)">
<g clip-path="url(#clip1_23746_2133)">
<rect x="180" y="48" width="720" height="420" fill="url(#paint0_linear_23746_2133)"/>
<path opacity="0.2" fill-rule="evenodd" clip-rule="evenodd" d="M882 66L900 48V468L882 450V66Z" fill="url(#paint1_linear_23746_2133)"/>
<path opacity="0.6" fill-rule="evenodd" clip-rule="evenodd" d="M198 66L180 48V468L198 450V66Z" fill="url(#paint2_linear_23746_2133)"/>
<rect x="180.25" y="48.25" width="719.5" height="419.5" stroke="black" stroke-opacity="0.24" stroke-width="0.5"/>
<rect x="180.25" y="48.25" width="719.5" height="419.5" stroke="url(#paint3_linear_23746_2133)" stroke-width="0.5"/>
<rect x="198" y="66" width="684" height="384" fill="#222222"/>
<rect x="198" y="66" width="684" height="384" fill="url(#paint4_linear_23746_2133)"/>
<rect x="198" y="66" width="684" height="384" stroke="white" stroke-opacity="0.24" stroke-width="0.5"/>
<rect x="180" y="48" width="720" height="420" fill="url(#paint5_linear_23746_2133)"/>
<path d="M539.553 223H538.623V213.983H535.314V213.136H542.861V213.983H539.553V223ZM548.59 223H547.66L543.969 213.136H544.953L548.077 221.776H548.166L551.29 213.136H552.274L548.59 223Z" fill="white" fill-opacity="0.24"/>
</g>
<g filter="url(#filter0_ii_23746_2133)">
<rect x="317.32" y="276" width="33.4672" height="100.05" rx="0.416667" fill="url(#paint6_linear_23746_2133)"/>
</g>
<path fill-rule="evenodd" clip-rule="evenodd" d="M413.871 433.905C389.875 391.705 362.88 363.545 333.282 363.545C303.684 363.545 276.689 391.705 252.693 433.905C228.697 476.101 217.042 513.091 231.839 538.633C246.635 564.175 270.531 573 333.282 573C396.033 573 419.924 564.175 434.721 538.633C449.522 513.091 437.867 476.101 413.871 433.905Z" fill="url(#paint7_linear_23746_2133)"/>
<path fill-rule="evenodd" clip-rule="evenodd" d="M409.351 480.268C409.351 521.71 375.636 555.306 334.049 555.306C292.462 555.306 258.748 521.71 258.748 480.268C258.748 438.827 292.462 405.23 334.049 405.23C375.636 405.23 409.351 438.827 409.351 480.268Z" fill="url(#paint8_radial_23746_2133)"/>
<path fill-rule="evenodd" clip-rule="evenodd" d="M322.676 496.757H324.962V487.13H322.676V496.757ZM343.453 489.898C343.37 489.869 342.626 489.373 341.524 489.373C340.036 489.373 339.017 490.481 339.017 491.969C339.017 493.399 340.009 494.536 341.524 494.536C342.599 494.536 343.37 494.069 343.453 494.011V496.578C343.177 496.695 342.378 496.928 341.359 496.928C338.797 496.928 336.537 495.032 336.537 491.969C336.537 489.081 338.576 486.981 341.359 486.981C342.433 486.981 343.232 487.243 343.453 487.331V489.898ZM319.525 489.898C319.442 489.869 318.699 489.373 317.597 489.373C316.109 489.373 315.089 490.481 315.089 491.969C315.089 493.399 316.081 494.536 317.597 494.536C318.671 494.536 319.442 494.069 319.525 494.011V496.578C319.25 496.695 318.478 496.928 317.459 496.928C314.869 496.928 312.61 495.032 312.61 491.969C312.61 489.081 314.649 486.981 317.459 486.981C318.533 486.981 319.332 487.243 319.525 487.331V489.898ZM350.662 489.414C349.312 489.414 348.293 490.581 348.293 491.952C348.293 493.352 349.312 494.49 350.662 494.49C352.04 494.49 353.032 493.352 353.032 491.952C353.032 490.581 352.04 489.414 350.662 489.414ZM355.483 491.948C355.483 494.691 353.471 496.937 350.661 496.937C347.878 496.937 345.867 494.691 345.867 491.948C345.867 489.206 347.878 486.989 350.661 486.989C353.471 486.989 355.483 489.206 355.483 491.948ZM333.679 489.327C333.652 489.327 332.688 489.035 331.889 489.035C330.952 489.035 330.456 489.356 330.456 489.823C330.456 490.406 331.145 490.61 331.53 490.727L332.137 490.96C333.652 491.456 334.313 492.536 334.313 493.703C334.313 496.124 332.329 496.941 330.566 496.941C329.326 496.941 328.197 496.678 328.059 496.649V494.461C328.279 494.519 329.244 494.811 330.235 494.811C331.393 494.811 331.916 494.461 331.916 493.907C331.916 493.44 331.448 493.148 330.869 492.973C330.759 492.915 330.539 492.857 330.401 492.798C329.106 492.361 328.031 491.573 328.031 489.968C328.031 488.189 329.326 486.964 331.448 486.964C332.55 486.964 333.597 487.255 333.679 487.285V489.327ZM310.185 476.804C310.185 476.133 309.634 475.608 309.028 475.608C308.394 475.608 307.898 476.133 307.898 476.804V479.313C307.898 479.984 308.394 480.538 309.028 480.538C309.634 480.538 310.185 479.984 310.185 479.313V476.804ZM316.431 473.483C316.431 472.841 315.908 472.287 315.274 472.287C314.668 472.287 314.144 472.841 314.144 473.483V479.318C314.144 479.989 314.668 480.543 315.274 480.543C315.908 480.543 316.431 479.989 316.431 479.318V473.483ZM322.678 468.958C322.678 468.287 322.155 467.762 321.521 467.762C320.915 467.762 320.391 468.287 320.391 468.958V481.735C320.391 482.377 320.915 482.931 321.521 482.931C322.155 482.931 322.678 482.377 322.678 481.735V468.958ZM328.925 473.483C328.925 472.841 328.401 472.287 327.795 472.287C327.162 472.287 326.638 472.841 326.638 473.483V479.318C326.638 479.989 327.162 480.543 327.795 480.543C328.401 480.543 328.925 479.989 328.925 479.318V473.483ZM335.181 476.804C335.181 476.133 334.658 475.608 334.024 475.608C333.418 475.608 332.895 476.133 332.895 476.804V479.313C332.895 479.984 333.418 480.538 334.024 480.538C334.658 480.538 335.181 479.984 335.181 479.313V476.804ZM341.427 473.483C341.427 472.841 340.904 472.287 340.27 472.287C339.664 472.287 339.14 472.841 339.14 473.483V479.318C339.14 479.989 339.664 480.543 340.27 480.543C340.904 480.543 341.427 479.989 341.427 479.318V473.483ZM347.674 468.958C347.674 468.287 347.178 467.762 346.544 467.762C345.911 467.762 345.387 468.287 345.387 468.958V481.735C345.387 482.377 345.911 482.931 346.544 482.931C347.178 482.931 347.674 482.377 347.674 481.735V468.958ZM353.943 473.483C353.943 472.841 353.42 472.287 352.786 472.287C352.152 472.287 351.656 472.841 351.656 473.483V479.318C351.656 479.989 352.152 480.543 352.786 480.543C353.42 480.543 353.943 479.989 353.943 479.318V473.483ZM360.19 476.804C360.19 476.133 359.667 475.608 359.06 475.608C358.427 475.608 357.903 476.133 357.903 476.804V479.313C357.903 479.984 358.427 480.538 359.06 480.538C359.667 480.538 360.19 479.984 360.19 479.313V476.804Z" fill="#908E8E"/>
</g>
<defs>
<filter id="filter0_ii_23746_2133" x="317.32" y="276" width="33.4668" height="100.051" filterUnits="userSpaceOnUse" color-interpolation-filters="sRGB">
<feFlood flood-opacity="0" result="BackgroundImageFix"/>
<feBlend mode="normal" in="SourceGraphic" in2="BackgroundImageFix" result="shape"/>
<feColorMatrix in="SourceAlpha" type="matrix" values="0 0 0 0 0 0 0 0 0 0 0 0 0 0 0 0 0 0 127 0" result="hardAlpha"/>
<feOffset/>
<feGaussianBlur stdDeviation="0.5"/>
<feComposite in2="hardAlpha" operator="arithmetic" k2="-1" k3="1"/>
<feColorMatrix type="matrix" values="0 0 0 0 0 0 0 0 0 0 0 0 0 0 0 0 0 0 0.24 0"/>
<feBlend mode="normal" in2="shape" result="effect1_innerShadow_23746_2133"/>
<feColorMatrix in="SourceAlpha" type="matrix" values="0 0 0 0 0 0 0 0 0 0 0 0 0 0 0 0 0 0 127 0" result="hardAlpha"/>
<feOffset/>
<feGaussianBlur stdDeviation="0.5"/>
<feComposite in2="hardAlpha" operator="arithmetic" k2="-1" k3="1"/>
<feColorMatrix type="matrix" values="0 0 0 0 1 0 0 0 0 1 0 0 0 0 1 0 0 0 0.32 0"/>
<feBlend mode="normal" in2="effect1_innerShadow_23746_2133" result="effect2_innerShadow_23746_2133"/>
</filter>
<linearGradient id="paint0_linear_23746_2133" x1="180" y1="247.27" x2="863.21" y2="247.27" gradientUnits="userSpaceOnUse">
<stop stop-color="#9A9EA1"/>
<stop offset="1" stop-color="#D3D3D3"/>
</linearGradient>
<linearGradient id="paint1_linear_23746_2133" x1="882" y1="48" x2="882" y2="468" gradientUnits="userSpaceOnUse">
<stop stop-color="#666666"/>
<stop offset="0.29389" stop-color="#A0A0A2"/>
<stop offset="1" stop-color="#696969"/>
</linearGradient>
<linearGradient id="paint2_linear_23746_2133" x1="189" y1="48" x2="189" y2="468" gradientUnits="userSpaceOnUse">
<stop stop-color="#AAABAD"/>
<stop offset="0.157115" stop-color="#DCDCDC"/>
<stop offset="1" stop-color="#AAABAD"/>
</linearGradient>
<linearGradient id="paint3_linear_23746_2133" x1="-180" y1="258" x2="185.596" y2="884.736" gradientUnits="userSpaceOnUse">
<stop stop-color="white" stop-opacity="0.4"/>
<stop offset="0.542051" stop-color="white" stop-opacity="0.01"/>
<stop offset="1" stop-color="white" stop-opacity="0.4"/>
</linearGradient>
<linearGradient id="paint4_linear_23746_2133" x1="-144" y1="258" x2="183.834" y2="841.953" gradientUnits="userSpaceOnUse">
<stop stop-color="white" stop-opacity="0.16"/>
<stop offset="1" stop-opacity="0.5"/>
</linearGradient>
<linearGradient id="paint5_linear_23746_2133" x1="-180" y1="258" x2="185.596" y2="884.736" gradientUnits="userSpaceOnUse">
<stop stop-color="white" stop-opacity="0.08"/>
<stop offset="1" stop-color="white" stop-opacity="0.01"/>
</linearGradient>
<linearGradient id="paint6_linear_23746_2133" x1="319.18" y1="276" x2="319.18" y2="364.932" gradientUnits="userSpaceOnUse">
<stop stop-color="#979797"/>
<stop offset="0.51138" stop-color="#959595"/>
<stop offset="0.991194" stop-color="#666666"/>
</linearGradient>
<linearGradient id="paint7_linear_23746_2133" x1="149.928" y1="413.932" x2="286.373" y2="645.949" gradientUnits="userSpaceOnUse">
<stop stop-color="#FBFBFB"/>
<stop offset="1" stop-color="#CACACA"/>
</linearGradient>
<radialGradient id="paint8_radial_23746_2133" cx="0" cy="0" r="1" gradientUnits="userSpaceOnUse" gradientTransform="translate(331.652 478.874) rotate(-149.451) scale(75.6367 75.509)">
<stop stop-color="#EEEEEE"/>
<stop offset="1" stop-color="#E1E1E1"/>
</radialGradient>
<clipPath id="clip0_23746_2133">
<rect width="1080" height="576" fill="white"/>
</clipPath>
<clipPath id="clip1_23746_2133">
<rect width="720" height="420" fill="white" transform="translate(180 48)"/>
</clipPath>
</defs>
</svg>
