<svg width="1080" height="576" viewBox="0 0 1080 576" fill="none" xmlns="http://www.w3.org/2000/svg">
<g clip-path="url(#clip0_23745_11699)">
<path fill-rule="evenodd" clip-rule="evenodd" d="M118.373 210.297C118.561 210.107 118.817 210 119.085 210H960.915C961.183 210 961.439 210.107 961.627 210.297L1020 269.4H60L118.373 210.297Z" fill="url(#paint0_radial_23745_11699)"/>
<path fill-rule="evenodd" clip-rule="evenodd" d="M532.02 242.332H534.085V238.769H532.02V242.332ZM550.78 239.792C550.705 239.781 550.033 239.598 549.038 239.598C547.695 239.598 546.774 240.008 546.774 240.559C546.774 241.088 547.67 241.509 549.038 241.509C550.009 241.509 550.705 241.336 550.78 241.314V242.264C550.531 242.308 549.809 242.394 548.889 242.394C546.575 242.394 544.535 241.692 544.535 240.559C544.535 239.49 546.376 238.712 548.889 238.712C549.859 238.712 550.581 238.809 550.78 238.842V239.792ZM529.17 239.792C529.096 239.781 528.424 239.598 527.429 239.598C526.085 239.598 525.165 240.008 525.165 240.559C525.165 241.088 526.06 241.509 527.429 241.509C528.399 241.509 529.096 241.336 529.17 241.314V242.264C528.922 242.308 528.225 242.394 527.304 242.394C524.966 242.394 522.925 241.692 522.925 240.559C522.925 239.49 524.767 238.712 527.304 238.712C528.275 238.712 528.996 238.809 529.17 238.842V239.792ZM557.293 239.613C556.074 239.613 555.154 240.045 555.154 240.552C555.154 241.07 556.074 241.491 557.293 241.491C558.537 241.491 559.433 241.07 559.433 240.552C559.433 240.045 558.537 239.613 557.293 239.613M561.644 240.552C561.644 241.567 559.828 242.398 557.29 242.398C554.777 242.398 552.961 241.567 552.961 240.552C552.961 239.537 554.777 238.717 557.29 238.717C559.828 238.717 561.644 239.537 561.644 240.552M541.948 239.583C541.923 239.583 541.052 239.475 540.331 239.475C539.485 239.475 539.037 239.593 539.037 239.766C539.037 239.982 539.659 240.058 540.007 240.101L540.554 240.187C541.923 240.371 542.52 240.77 542.52 241.202C542.52 242.098 540.729 242.401 539.136 242.401C538.017 242.401 536.997 242.303 536.872 242.293V241.483C537.071 241.504 537.942 241.612 538.838 241.612C539.883 241.612 540.355 241.483 540.355 241.278C540.355 241.105 539.932 240.997 539.41 240.932C539.31 240.911 539.111 240.889 538.987 240.867C537.818 240.705 536.847 240.414 536.847 239.82C536.847 239.162 538.017 238.708 539.932 238.708C540.928 238.708 541.873 238.816 541.948 238.827V239.583ZM520.737 234.948C520.737 234.7 520.239 234.505 519.692 234.505C519.12 234.505 518.672 234.7 518.672 234.948V235.877C518.672 236.125 519.12 236.33 519.692 236.33C520.239 236.33 520.737 236.125 520.737 235.877V234.948ZM526.375 233.719C526.375 233.481 525.903 233.276 525.33 233.276C524.783 233.276 524.31 233.481 524.31 233.719V235.878C524.31 236.126 524.783 236.332 525.33 236.332C525.903 236.332 526.375 236.126 526.375 235.878V233.719ZM532.022 232.042C532.022 231.794 531.549 231.6 530.977 231.6C530.43 231.6 529.957 231.794 529.957 232.042V236.771C529.957 237.009 530.43 237.214 530.977 237.214C531.549 237.214 532.022 237.009 532.022 236.771V232.042ZM537.658 233.719C537.658 233.481 537.186 233.276 536.638 233.276C536.066 233.276 535.593 233.481 535.593 233.719V235.878C535.593 236.126 536.066 236.332 536.638 236.332C537.186 236.332 537.658 236.126 537.658 235.878V233.719ZM543.308 234.948C543.308 234.7 542.836 234.505 542.263 234.505C541.716 234.505 541.243 234.7 541.243 234.948V235.877C541.243 236.125 541.716 236.33 542.263 236.33C542.836 236.33 543.308 236.125 543.308 235.877V234.948ZM548.943 233.719C548.943 233.481 548.471 233.276 547.899 233.276C547.351 233.276 546.878 233.481 546.878 233.719V235.878C546.878 236.126 547.351 236.332 547.899 236.332C548.471 236.332 548.943 236.126 548.943 235.878V233.719ZM554.592 232.042C554.592 231.794 554.145 231.6 553.572 231.6C553 231.6 552.527 231.794 552.527 232.042V236.771C552.527 237.009 553 237.214 553.572 237.214C554.145 237.214 554.592 237.009 554.592 236.771V232.042ZM560.253 233.719C560.253 233.481 559.78 233.276 559.208 233.276C558.636 233.276 558.188 233.481 558.188 233.719V235.878C558.188 236.126 558.636 236.332 559.208 236.332C559.78 236.332 560.253 236.126 560.253 235.878V233.719ZM565.889 234.948C565.889 234.7 565.416 234.505 564.869 234.505C564.297 234.505 563.824 234.7 563.824 234.948V235.877C563.824 236.125 564.297 236.33 564.869 236.33C565.416 236.33 565.889 236.125 565.889 235.877V234.948Z" fill="#3F3F3F"/>
<rect x="60" y="264" width="960" height="108" rx="1" fill="url(#paint1_linear_23745_11699)"/>
<g filter="url(#filter0_d_23745_11699)">
<path fill-rule="evenodd" clip-rule="evenodd" d="M129.037 318.45C129.222 318.169 129.536 318 129.872 318H950.128C950.464 318 950.778 318.169 950.963 318.45L970.979 348.85C971.417 349.515 970.94 350.4 970.144 350.4H109.856C109.06 350.4 108.583 349.515 109.021 348.85L129.037 318.45Z" fill="#0F100F"/>
</g>
<path fill-rule="evenodd" clip-rule="evenodd" d="M135.006 329.099C135.194 328.908 135.451 328.801 135.718 328.801H944.282C944.549 328.801 944.806 328.908 944.994 329.099L966 350.401H114L135.006 329.099Z" fill="url(#paint2_linear_23745_11699)"/>
<path fill-rule="evenodd" clip-rule="evenodd" d="M532.231 307.03H534.33V298.123H532.231V307.03ZM551.305 300.683C551.229 300.656 550.546 300.197 549.534 300.197C548.169 300.197 547.233 301.223 547.233 302.6C547.233 303.922 548.143 304.975 549.534 304.975C550.521 304.975 551.229 304.543 551.305 304.489V306.864C551.052 306.972 550.318 307.188 549.383 307.188C547.031 307.188 544.957 305.434 544.957 302.6C544.957 299.927 546.828 297.984 549.383 297.984C550.369 297.984 551.102 298.227 551.305 298.308V300.683ZM529.344 300.683C529.268 300.656 528.585 300.197 527.574 300.197C526.208 300.197 525.272 301.223 525.272 302.6C525.272 303.922 526.183 304.975 527.574 304.975C528.56 304.975 529.268 304.543 529.344 304.489V306.864C529.091 306.972 528.383 307.188 527.447 307.188C525.07 307.188 522.996 305.434 522.996 302.6C522.996 299.927 524.868 297.984 527.447 297.984C528.433 297.984 529.167 298.227 529.344 298.308V300.683ZM557.925 300.234C556.686 300.234 555.75 301.314 555.75 302.582C555.75 303.878 556.686 304.931 557.925 304.931C559.19 304.931 560.1 303.878 560.1 302.582C560.1 301.314 559.19 300.234 557.925 300.234M562.349 302.583C562.349 305.12 560.503 307.199 557.923 307.199C555.369 307.199 553.523 305.12 553.523 302.583C553.523 300.046 555.369 297.995 557.923 297.995C560.503 297.995 562.349 300.046 562.349 302.583M542.337 300.156C542.311 300.156 541.426 299.886 540.693 299.886C539.833 299.886 539.378 300.183 539.378 300.614C539.378 301.154 540.01 301.343 540.364 301.451L540.92 301.667C542.311 302.126 542.918 303.125 542.918 304.204C542.918 306.445 541.097 307.2 539.479 307.2C538.341 307.2 537.304 306.958 537.177 306.931V304.906C537.38 304.96 538.265 305.23 539.175 305.23C540.237 305.23 540.718 304.906 540.718 304.393C540.718 303.961 540.288 303.691 539.757 303.53C539.656 303.476 539.453 303.422 539.327 303.368C538.138 302.963 537.152 302.234 537.152 300.749C537.152 299.103 538.341 297.969 540.288 297.969C541.3 297.969 542.261 298.239 542.337 298.266V300.156ZM520.771 288.57C520.771 287.949 520.265 287.464 519.709 287.464C519.127 287.464 518.672 287.949 518.672 288.57V290.892C518.672 291.512 519.127 292.025 519.709 292.025C520.265 292.025 520.771 291.512 520.771 290.892V288.57ZM526.501 285.498C526.501 284.904 526.021 284.391 525.439 284.391C524.883 284.391 524.402 284.904 524.402 285.498V290.896C524.402 291.517 524.883 292.03 525.439 292.03C526.021 292.03 526.501 291.517 526.501 290.896V285.498ZM532.243 281.308C532.243 280.687 531.762 280.201 531.181 280.201C530.624 280.201 530.144 280.687 530.144 281.308V293.13C530.144 293.724 530.624 294.237 531.181 294.237C531.762 294.237 532.243 293.724 532.243 293.13V281.308ZM537.973 285.498C537.973 284.904 537.492 284.391 536.936 284.391C536.354 284.391 535.874 284.904 535.874 285.498V290.896C535.874 291.517 536.354 292.03 536.936 292.03C537.492 292.03 537.973 291.517 537.973 290.896V285.498ZM543.717 288.57C543.717 287.949 543.236 287.464 542.655 287.464C542.098 287.464 541.618 287.949 541.618 288.57V290.892C541.618 291.512 542.098 292.025 542.655 292.025C543.236 292.025 543.717 291.512 543.717 290.892V288.57ZM549.447 285.498C549.447 284.904 548.966 284.391 548.385 284.391C547.828 284.391 547.348 284.904 547.348 285.498V290.896C547.348 291.517 547.828 292.03 548.385 292.03C548.966 292.03 549.447 291.517 549.447 290.896V285.498ZM555.187 281.308C555.187 280.687 554.732 280.201 554.151 280.201C553.569 280.201 553.088 280.687 553.088 281.308V293.13C553.088 293.724 553.569 294.237 554.151 294.237C554.732 294.237 555.187 293.724 555.187 293.13V281.308ZM560.943 285.498C560.943 284.904 560.462 284.391 559.881 284.391C559.299 284.391 558.844 284.904 558.844 285.498V290.896C558.844 291.517 559.299 292.03 559.881 292.03C560.462 292.03 560.943 291.517 560.943 290.896V285.498ZM566.673 288.57C566.673 287.949 566.193 287.464 565.636 287.464C565.054 287.464 564.574 287.949 564.574 288.57V290.892C564.574 291.512 565.054 292.025 565.636 292.025C566.193 292.025 566.673 291.512 566.673 290.892V288.57Z" fill="white"/>
</g>
<defs>
<filter id="filter0_d_23745_11699" x="108.854" y="317.5" width="862.293" height="32.9004" filterUnits="userSpaceOnUse" color-interpolation-filters="sRGB">
<feFlood flood-opacity="0" result="BackgroundImageFix"/>
<feColorMatrix in="SourceAlpha" type="matrix" values="0 0 0 0 0 0 0 0 0 0 0 0 0 0 0 0 0 0 127 0" result="hardAlpha"/>
<feOffset dy="-0.5"/>
<feColorMatrix type="matrix" values="0 0 0 0 1 0 0 0 0 1 0 0 0 0 1 0 0 0 0.5 0"/>
<feBlend mode="normal" in2="BackgroundImageFix" result="effect1_dropShadow_23745_11699"/>
<feBlend mode="normal" in="SourceGraphic" in2="effect1_dropShadow_23745_11699" result="shape"/>
</filter>
<radialGradient id="paint0_radial_23745_11699" cx="0" cy="0" r="1" gradientUnits="userSpaceOnUse" gradientTransform="translate(540 239.7) rotate(180) scale(414.323 7.53967)">
<stop stop-color="#5B5B5C"/>
<stop offset="1" stop-color="#505050"/>
</radialGradient>
<linearGradient id="paint1_linear_23745_11699" x1="60" y1="264" x2="60" y2="372" gradientUnits="userSpaceOnUse">
<stop stop-color="#D8D8DB"/>
<stop offset="1" stop-color="#D2D3D7"/>
</linearGradient>
<linearGradient id="paint2_linear_23745_11699" x1="966" y1="350.401" x2="966" y2="328.801" gradientUnits="userSpaceOnUse">
<stop stop-color="#EAEAEC"/>
<stop offset="1" stop-color="#929292"/>
</linearGradient>
<clipPath id="clip0_23745_11699">
<rect width="1080" height="576" fill="white"/>
</clipPath>
</defs>
</svg>
