<svg width="1400" height="747" viewBox="0 0 1400 747" fill="none" xmlns="http://www.w3.org/2000/svg">
<g clip-path="url(#clip0_23745_11706)">
<path fill-rule="evenodd" clip-rule="evenodd" d="M606.366 64.8438C605.207 64.8438 604.151 64.0553 603.85 62.8829L593.993 23.3438H582.5L572.643 62.8829C572.291 64.2628 570.893 65.0824 569.495 64.7711C568.118 64.4184 567.269 63.0074 567.611 61.6171L578.462 18.1562H598.031L608.882 61.6171C609.224 63.0074 608.375 64.4184 606.998 64.7711C606.781 64.823 606.574 64.8438 606.366 64.8438" fill="#E9E9E9"/>
<mask id="path-2-inside-1_23745_11706" fill="white">
<path fill-rule="evenodd" clip-rule="evenodd" d="M546.827 25.9381C543.969 25.9381 541.65 28.2621 541.65 31.1256V93.3756C541.65 96.2391 543.969 98.5631 546.827 98.5631H629.66C632.518 98.5631 634.837 96.2391 634.837 93.3756V31.1256C634.837 28.2621 632.518 25.9381 629.66 25.9381H546.827ZM629.654 108.938H546.82C538.257 108.938 531.289 101.955 531.289 93.375V31.125C531.289 22.5449 538.257 15.5625 546.82 15.5625H629.654C638.217 15.5625 645.185 22.5449 645.185 31.125V93.375C645.185 101.955 638.217 108.938 629.654 108.938V108.938Z"/>
</mask>
<path fill-rule="evenodd" clip-rule="evenodd" d="M546.827 25.9381C543.969 25.9381 541.65 28.2621 541.65 31.1256V93.3756C541.65 96.2391 543.969 98.5631 546.827 98.5631H629.66C632.518 98.5631 634.837 96.2391 634.837 93.3756V31.1256C634.837 28.2621 632.518 25.9381 629.66 25.9381H546.827ZM629.654 108.938H546.82C538.257 108.938 531.289 101.955 531.289 93.375V31.125C531.289 22.5449 538.257 15.5625 546.82 15.5625H629.654C638.217 15.5625 645.185 22.5449 645.185 31.125V93.375C645.185 101.955 638.217 108.938 629.654 108.938V108.938Z" fill="url(#paint0_linear_23745_11706)"/>
<path d="M546.827 25.9381V25.4381C543.692 25.4381 541.15 27.9869 541.15 31.1256H541.65H542.15C542.15 28.5373 544.246 26.4381 546.827 26.4381V25.9381ZM541.65 31.1256H541.15V93.3756H541.65H542.15V31.1256H541.65ZM541.65 93.3756H541.15C541.15 96.5143 543.692 99.0631 546.827 99.0631V98.5631V98.0631C544.246 98.0631 542.15 95.9639 542.15 93.3756H541.65ZM546.827 98.5631V99.0631H629.66V98.5631V98.0631H546.827V98.5631ZM629.66 98.5631V99.0631C632.795 99.0631 635.337 96.5143 635.337 93.3756H634.837H634.337C634.337 95.9639 632.241 98.0631 629.66 98.0631V98.5631ZM634.837 93.3756H635.337V31.1256H634.837H634.337V93.3756H634.837ZM634.837 31.1256H635.337C635.337 27.9869 632.795 25.4381 629.66 25.4381V25.9381V26.4381C632.241 26.4381 634.337 28.5373 634.337 31.1256H634.837ZM629.66 25.9381V25.4381H546.827V25.9381V26.4381H629.66V25.9381ZM629.654 108.938V108.438H546.82V108.938V109.438H629.654V108.938ZM546.82 108.938V108.438C538.535 108.438 531.789 101.68 531.789 93.375H531.289H530.789C530.789 102.23 537.98 109.438 546.82 109.438V108.938ZM531.289 93.375H531.789V31.125H531.289H530.789V93.375H531.289ZM531.289 31.125H531.789C531.789 22.8201 538.535 16.0625 546.82 16.0625V15.5625V15.0625C537.98 15.0625 530.789 22.2697 530.789 31.125H531.289ZM546.82 15.5625V16.0625H629.654V15.5625V15.0625H546.82V15.5625ZM629.654 15.5625V16.0625C637.939 16.0625 644.685 22.8201 644.685 31.125H645.185H645.685C645.685 22.2697 638.494 15.0625 629.654 15.0625V15.5625ZM645.185 31.125H644.685V93.375H645.185H645.685V31.125H645.185ZM645.185 93.375H644.685C644.685 101.68 637.939 108.438 629.654 108.438V108.938V109.438C638.494 109.438 645.685 102.23 645.685 93.375H645.185Z" fill="#EAEAEA" mask="url(#path-2-inside-1_23745_11706)"/>
<path fill-rule="evenodd" clip-rule="evenodd" d="M834.155 64.8438C832.996 64.8438 831.94 64.0553 831.639 62.8829L821.782 23.3438H810.289L800.432 62.8829C800.08 64.2628 798.682 65.0824 797.284 64.7711C795.907 64.4184 795.058 63.0074 795.4 61.6171L806.251 18.1562H825.82L836.672 61.6171C837.013 63.0074 836.164 64.4184 834.787 64.7711C834.57 64.823 834.363 64.8438 834.155 64.8438" fill="#E9E9E9"/>
<mask id="path-5-inside-2_23745_11706" fill="white">
<path fill-rule="evenodd" clip-rule="evenodd" d="M774.631 25.9381C771.774 25.9381 769.454 28.2621 769.454 31.1256V93.3756C769.454 96.2391 771.774 98.5631 774.631 98.5631H857.465C860.322 98.5631 862.642 96.2391 862.642 93.3756V31.1256C862.642 28.2621 860.322 25.9381 857.465 25.9381H774.631ZM857.458 108.938H774.625C766.062 108.938 759.094 101.955 759.094 93.375V31.125C759.094 22.5449 766.062 15.5625 774.625 15.5625H857.458C866.021 15.5625 872.99 22.5449 872.99 31.125V93.375C872.99 101.955 866.021 108.938 857.458 108.938V108.938Z"/>
</mask>
<path fill-rule="evenodd" clip-rule="evenodd" d="M774.631 25.9381C771.774 25.9381 769.454 28.2621 769.454 31.1256V93.3756C769.454 96.2391 771.774 98.5631 774.631 98.5631H857.465C860.322 98.5631 862.642 96.2391 862.642 93.3756V31.1256C862.642 28.2621 860.322 25.9381 857.465 25.9381H774.631ZM857.458 108.938H774.625C766.062 108.938 759.094 101.955 759.094 93.375V31.125C759.094 22.5449 766.062 15.5625 774.625 15.5625H857.458C866.021 15.5625 872.99 22.5449 872.99 31.125V93.375C872.99 101.955 866.021 108.938 857.458 108.938V108.938Z" fill="url(#paint1_linear_23745_11706)"/>
<path d="M774.631 25.9381V25.4381C771.497 25.4381 768.954 27.9869 768.954 31.1256H769.454H769.954C769.954 28.5373 772.051 26.4381 774.631 26.4381V25.9381ZM769.454 31.1256H768.954V93.3756H769.454H769.954V31.1256H769.454ZM769.454 93.3756H768.954C768.954 96.5143 771.497 99.0631 774.631 99.0631V98.5631V98.0631C772.051 98.0631 769.954 95.9639 769.954 93.3756H769.454ZM774.631 98.5631V99.0631H857.465V98.5631V98.0631H774.631V98.5631ZM857.465 98.5631V99.0631C860.6 99.0631 863.142 96.5143 863.142 93.3756H862.642H862.142C862.142 95.9639 860.045 98.0631 857.465 98.0631V98.5631ZM862.642 93.3756H863.142V31.1256H862.642H862.142V93.3756H862.642ZM862.642 31.1256H863.142C863.142 27.9869 860.6 25.4381 857.465 25.4381V25.9381V26.4381C860.045 26.4381 862.142 28.5373 862.142 31.1256H862.642ZM857.465 25.9381V25.4381H774.631V25.9381V26.4381H857.465V25.9381ZM857.458 108.938V108.438H774.625V108.938V109.438H857.458V108.938ZM774.625 108.938V108.438C766.339 108.438 759.594 101.68 759.594 93.375H759.094H758.594C758.594 102.23 765.785 109.438 774.625 109.438V108.938ZM759.094 93.375H759.594V31.125H759.094H758.594V93.375H759.094ZM759.094 31.125H759.594C759.594 22.8201 766.339 16.0625 774.625 16.0625V15.5625V15.0625C765.785 15.0625 758.594 22.2697 758.594 31.125H759.094ZM774.625 15.5625V16.0625H857.458V15.5625V15.0625H774.625V15.5625ZM857.458 15.5625V16.0625C865.744 16.0625 872.49 22.8201 872.49 31.125H872.99H873.49C873.49 22.2697 866.298 15.0625 857.458 15.0625V15.5625ZM872.99 31.125H872.49V93.375H872.99H873.49V31.125H872.99ZM872.99 93.375H872.49C872.49 101.68 865.744 108.438 857.458 108.438V108.938V109.438C866.298 109.438 873.49 102.23 873.49 93.375H872.99Z" fill="#EAEAEA" mask="url(#path-5-inside-2_23745_11706)"/>
<path fill-rule="evenodd" clip-rule="evenodd" d="M443.292 446.125V684.75C443.292 696.204 452.57 705.5 464.001 705.5V715.875H432.938L422.584 705.5V435.75L443.292 446.125Z" fill="url(#paint2_linear_23745_11706)"/>
<path fill-rule="evenodd" clip-rule="evenodd" d="M960.999 446.125V684.75C960.999 696.204 951.722 705.5 940.291 705.5V715.875H971.354L981.708 705.5V435.75L960.999 446.125Z" fill="url(#paint3_linear_23745_11706)"/>
<path fill-rule="evenodd" clip-rule="evenodd" d="M971.348 400.004V684.746C971.348 696.21 962.07 705.496 950.639 705.496H453.639C442.208 705.496 432.931 696.21 432.931 684.746V400.004C420.61 407.194 412.223 420.432 412.223 435.746V684.746C412.223 707.664 430.767 726.246 453.639 726.246H950.639C973.512 726.246 992.056 707.664 992.056 684.746V435.746C992.056 420.432 983.669 407.194 971.348 400.004" fill="url(#paint4_linear_23745_11706)"/>
<path fill-rule="evenodd" clip-rule="evenodd" d="M867.8 93.3735C867.8 99.1005 863.161 103.748 857.446 103.748H774.613C768.897 103.748 764.258 99.1005 764.258 93.3735V31.1235C764.258 25.3965 768.897 20.7485 774.613 20.7485H857.446C863.161 20.7485 867.8 25.3965 867.8 31.1235V93.3735ZM640.012 93.3735C640.012 99.1005 635.373 103.748 629.657 103.748H546.824C541.109 103.748 536.47 99.1005 536.47 93.3735V31.1235C536.47 25.3965 541.109 20.7485 546.824 20.7485H629.657C635.373 20.7485 640.012 25.3965 640.012 31.1235V93.3735ZM971.348 0H432.931C421.5 0 412.223 9.296 412.223 20.75V425.375C412.223 436.829 421.5 446.125 432.931 446.125H971.348C982.779 446.125 992.056 436.829 992.056 425.375V20.75C992.056 9.296 982.779 0 971.348 0V0Z" fill="#E0E0E0"/>
<path fill-rule="evenodd" clip-rule="evenodd" d="M691.433 435.62H692.979V428.775H691.433V435.62ZM705.482 430.74C705.426 430.719 704.923 430.366 704.177 430.366C703.171 430.366 702.482 431.155 702.482 432.213C702.482 433.229 703.153 434.038 704.177 434.038C704.904 434.038 705.426 433.706 705.482 433.665V435.49C705.295 435.573 704.755 435.739 704.066 435.739C702.333 435.739 700.805 434.391 700.805 432.213C700.805 430.159 702.184 428.665 704.066 428.665C704.792 428.665 705.333 428.852 705.482 428.914V430.74ZM689.304 430.74C689.248 430.719 688.745 430.366 688 430.366C686.993 430.366 686.304 431.155 686.304 432.213C686.304 433.229 686.975 434.038 688 434.038C688.726 434.038 689.248 433.706 689.304 433.665V435.49C689.117 435.573 688.596 435.739 687.906 435.739C686.155 435.739 684.627 434.391 684.627 432.213C684.627 430.159 686.006 428.665 687.906 428.665C688.633 428.665 689.173 428.852 689.304 428.914V430.74ZM710.354 430.397C709.441 430.397 708.751 431.226 708.751 432.201C708.751 433.197 709.441 434.006 710.354 434.006C711.285 434.006 711.956 433.197 711.956 432.201C711.956 431.226 711.285 430.397 710.354 430.397M713.628 432.2C713.628 434.15 712.268 435.747 710.368 435.747C708.486 435.747 707.126 434.15 707.126 432.2C707.126 430.25 708.486 428.674 710.368 428.674C712.268 428.674 713.628 430.25 713.628 432.2M698.87 430.335C698.851 430.335 698.199 430.127 697.659 430.127C697.026 430.127 696.69 430.356 696.69 430.687C696.69 431.102 697.156 431.248 697.417 431.331L697.827 431.496C698.851 431.849 699.299 432.617 699.299 433.446C699.299 435.168 697.957 435.749 696.765 435.749C695.926 435.749 695.162 435.562 695.069 435.541V433.986C695.218 434.027 695.87 434.235 696.541 434.235C697.324 434.235 697.678 433.986 697.678 433.592C697.678 433.26 697.361 433.052 696.97 432.928C696.895 432.886 696.746 432.845 696.653 432.803C695.777 432.492 695.051 431.932 695.051 430.791C695.051 429.526 695.926 428.655 697.361 428.655C698.106 428.655 698.814 428.862 698.87 428.883V430.335ZM682.984 421.432C682.984 420.955 682.611 420.582 682.201 420.582C681.773 420.582 681.438 420.955 681.438 421.432V423.216C681.438 423.693 681.773 424.087 682.201 424.087C682.611 424.087 682.984 423.693 682.984 423.216V421.432ZM687.206 419.072C687.206 418.616 686.852 418.221 686.423 418.221C686.013 418.221 685.659 418.616 685.659 419.072V423.221C685.659 423.698 686.013 424.092 686.423 424.092C686.852 424.092 687.206 423.698 687.206 423.221V419.072ZM691.43 415.85C691.43 415.373 691.076 415 690.648 415C690.238 415 689.884 415.373 689.884 415.85V424.936C689.884 425.393 690.238 425.787 690.648 425.787C691.076 425.787 691.43 425.393 691.43 424.936V415.85ZM695.654 419.072C695.654 418.616 695.3 418.222 694.89 418.222C694.461 418.222 694.107 418.616 694.107 419.072V423.221C694.107 423.698 694.461 424.092 694.89 424.092C695.3 424.092 695.654 423.698 695.654 423.221V419.072ZM699.892 421.432C699.892 420.955 699.538 420.582 699.109 420.582C698.699 420.582 698.345 420.955 698.345 421.432V423.216C698.345 423.693 698.699 424.087 699.109 424.087C699.538 424.087 699.892 423.693 699.892 423.216V421.432ZM704.115 419.072C704.115 418.616 703.761 418.222 703.333 418.222C702.923 418.222 702.569 418.616 702.569 419.072V423.221C702.569 423.698 702.923 424.092 703.333 424.092C703.761 424.092 704.115 423.698 704.115 423.221V419.072ZM708.337 415.85C708.337 415.373 708.002 415 707.573 415C707.145 415 706.791 415.373 706.791 415.85V424.936C706.791 425.393 707.145 425.787 707.573 425.787C708.002 425.787 708.337 425.393 708.337 424.936V415.85ZM712.575 419.072C712.575 418.616 712.221 418.222 711.793 418.222C711.364 418.222 711.029 418.616 711.029 419.072V423.221C711.029 423.698 711.364 424.092 711.793 424.092C712.221 424.092 712.575 423.698 712.575 423.221V419.072ZM716.801 421.432C716.801 420.955 716.447 420.582 716.037 420.582C715.609 420.582 715.255 420.955 715.255 421.432V423.216C715.255 423.693 715.609 424.087 716.037 424.087C716.447 424.087 716.801 423.693 716.801 423.216V421.432Z" fill="#908E8E"/>
<path fill-rule="evenodd" clip-rule="evenodd" d="M453.633 747V736.625L474.341 715.875H505.404V726.25L484.695 747H453.633Z" fill="url(#paint5_radial_23745_11706)"/>
<path fill-rule="evenodd" clip-rule="evenodd" d="M487.729 733.585C485.793 735.525 483.153 736.625 480.409 736.625H453.633V747H480.409C483.153 747 485.793 745.9 487.729 743.96L505.404 726.25V715.875L487.729 733.585Z" fill="#D3D3D3"/>
<path fill-rule="evenodd" clip-rule="evenodd" d="M950.636 747V736.625L929.928 715.875H898.865V726.25L919.574 747H950.636Z" fill="url(#paint6_radial_23745_11706)"/>
<path fill-rule="evenodd" clip-rule="evenodd" d="M916.54 733.585C918.476 735.525 921.116 736.625 923.86 736.625H950.636V747H923.86C921.116 747 918.476 745.9 916.54 743.96L898.865 726.25V715.875L916.54 733.585Z" fill="#D3D3D3"/>
<path fill-rule="evenodd" clip-rule="evenodd" d="M966.167 404.625H438.105C435.247 404.625 432.928 402.301 432.928 399.438V119.313C432.928 116.449 435.247 114.125 438.105 114.125H966.167C969.025 114.125 971.344 116.449 971.344 119.313V399.438C971.344 402.301 969.025 404.625 966.167 404.625" fill="#222222"/>
<path fill-rule="evenodd" clip-rule="evenodd" d="M966.167 404.625H438.105C435.247 404.625 432.928 402.301 432.928 399.438V119.313C432.928 116.449 435.247 114.125 438.105 114.125H966.167C969.025 114.125 971.344 116.449 971.344 119.313V399.438C971.344 402.301 969.025 404.625 966.167 404.625" fill="url(#paint7_linear_23745_11706)"/>
<path fill-rule="evenodd" clip-rule="evenodd" d="M608.952 62.25C608.952 50.796 599.674 41.5 588.243 41.5C576.812 41.5 567.535 50.796 567.535 62.25C567.535 73.704 576.812 83 588.243 83C599.674 83 608.952 73.704 608.952 62.25" fill="#232323"/>
<path fill-rule="evenodd" clip-rule="evenodd" d="M598.605 62.25C598.605 56.523 593.966 51.875 588.251 51.875C582.535 51.875 577.896 56.523 577.896 62.25C577.896 67.977 582.535 72.625 588.251 72.625C593.966 72.625 598.605 67.977 598.605 62.25" fill="#373B47"/>
<path fill-rule="evenodd" clip-rule="evenodd" d="M836.741 62.25C836.741 50.796 827.464 41.5 816.033 41.5C804.602 41.5 795.324 50.796 795.324 62.25C795.324 73.704 804.602 83 816.033 83C827.464 83 836.741 73.704 836.741 62.25" fill="#232323"/>
<path fill-rule="evenodd" clip-rule="evenodd" d="M826.392 62.25C826.392 56.523 821.753 51.875 816.038 51.875C810.322 51.875 805.684 56.523 805.684 62.25C805.684 67.977 810.322 72.625 816.038 72.625C821.753 72.625 826.392 67.977 826.392 62.25" fill="#373B47"/>
</g>
<defs>
<linearGradient id="paint0_linear_23745_11706" x1="531.289" y1="15.5625" x2="531.289" y2="108.938" gradientUnits="userSpaceOnUse">
<stop stop-color="#EFEFEF"/>
<stop offset="0.506076" stop-color="white"/>
<stop offset="1" stop-color="#EFEFEF"/>
</linearGradient>
<linearGradient id="paint1_linear_23745_11706" x1="759.094" y1="15.5625" x2="759.094" y2="108.938" gradientUnits="userSpaceOnUse">
<stop stop-color="#EFEFEF"/>
<stop offset="0.506076" stop-color="white"/>
<stop offset="1" stop-color="#EFEFEF"/>
</linearGradient>
<linearGradient id="paint2_linear_23745_11706" x1="422.598" y1="435.75" x2="422.598" y2="715.685" gradientUnits="userSpaceOnUse">
<stop stop-color="#B1B1B1"/>
<stop offset="0.278382" stop-color="#C9C9C9"/>
<stop offset="0.514141" stop-color="#D6D6D6"/>
<stop offset="0.743587" stop-color="#C9C9C9"/>
<stop offset="0.953577" stop-color="#ECECEC"/>
<stop offset="0.999932" stop-color="#B1B1B1"/>
</linearGradient>
<linearGradient id="paint3_linear_23745_11706" x1="940.305" y1="435.75" x2="940.305" y2="715.685" gradientUnits="userSpaceOnUse">
<stop stop-color="#B1B1B1"/>
<stop offset="0.278382" stop-color="#C9C9C9"/>
<stop offset="0.514141" stop-color="#D6D6D6"/>
<stop offset="0.743587" stop-color="#C9C9C9"/>
<stop offset="0.953577" stop-color="#ECECEC"/>
<stop offset="0.999932" stop-color="#B1B1B1"/>
</linearGradient>
<linearGradient id="paint4_linear_23745_11706" x1="412.301" y1="400.004" x2="412.301" y2="726.157" gradientUnits="userSpaceOnUse">
<stop stop-color="#CFCFCF"/>
<stop offset="0.470308" stop-color="#F1F1F1"/>
<stop offset="0.999932" stop-color="#D9D9D9"/>
</linearGradient>
<radialGradient id="paint5_radial_23745_11706" cx="0" cy="0" r="1" gradientUnits="userSpaceOnUse" gradientTransform="translate(486.132 779.843) rotate(24.0187) scale(38.2338 29.7144)">
<stop stop-color="#9C9C9C"/>
<stop offset="0.528236" stop-color="#E8E8E8"/>
<stop offset="1" stop-color="#E8E8E8"/>
</radialGradient>
<radialGradient id="paint6_radial_23745_11706" cx="0" cy="0" r="1" gradientUnits="userSpaceOnUse" gradientTransform="translate(931.365 779.843) rotate(24.0187) scale(38.2338 29.7144)">
<stop stop-color="#9C9C9C"/>
<stop offset="0.528236" stop-color="#E8E8E8"/>
<stop offset="1" stop-color="#E8E8E8"/>
</radialGradient>
<linearGradient id="paint7_linear_23745_11706" x1="163.719" y1="259.375" x2="406.515" y2="709.376" gradientUnits="userSpaceOnUse">
<stop stop-color="white" stop-opacity="0.24"/>
<stop offset="1" stop-opacity="0.5"/>
</linearGradient>
<clipPath id="clip0_23745_11706">
<rect width="1400" height="747" fill="white"/>
</clipPath>
</defs>
</svg>
