<svg width="1400" height="747" viewBox="0 0 1400 747" fill="none" xmlns="http://www.w3.org/2000/svg">
<g clip-path="url(#clip0_23746_2135)">
<rect x="388.889" y="38.9062" width="933.333" height="544.688" fill="url(#paint0_linear_23746_2135)"/>
<path opacity="0.2" fill-rule="evenodd" clip-rule="evenodd" d="M1294.36 66.8389L1322.22 38.9062V583.594L1294.36 555.661V66.8389Z" fill="url(#paint1_linear_23746_2135)"/>
<path opacity="0.6" fill-rule="evenodd" clip-rule="evenodd" d="M416.75 66.8389L388.889 38.9062V583.594L416.75 555.661V66.8389Z" fill="url(#paint2_linear_23746_2135)"/>
<rect x="389.152" y="39.1698" width="932.806" height="544.16" stroke="black" stroke-opacity="0.24" stroke-width="0.527027"/>
<rect x="389.152" y="39.1698" width="932.806" height="544.16" stroke="url(#paint3_linear_23746_2135)" stroke-width="0.527027"/>
<rect x="416.75" y="66.8398" width="877.612" height="488.822" fill="#222222"/>
<rect x="416.75" y="66.8398" width="877.612" height="488.822" fill="url(#paint4_linear_23746_2135)"/>
<rect x="416.75" y="66.8398" width="877.612" height="488.822" stroke="white" stroke-opacity="0.24" stroke-width="0.557143"/>
<rect x="388.889" y="38.9062" width="933.333" height="544.688" fill="url(#paint5_linear_23746_2135)"/>
<g filter="url(#filter0_f_23746_2135)">
<ellipse cx="378.673" cy="706.055" rx="308.673" ry="1.27197" fill="#B9BABF"/>
</g>
<g filter="url(#filter1_i_23746_2135)">
<rect x="127.557" y="350.156" width="500.193" height="346.994" rx="2.48315" fill="url(#paint6_linear_23746_2135)"/>
</g>
<g filter="url(#filter2_i_23746_2135)">
<rect x="130.109" y="352.699" width="495.099" height="341.906" rx="2.19101" fill="black"/>
</g>
<rect x="130.38" y="352.97" width="494.558" height="341.365" rx="1.92018" stroke="black" stroke-width="0.541667"/>
<g filter="url(#filter3_i_23746_2135)">
<path d="M623.679 675.277V687.397C623.678 689.414 622.043 691.049 620.026 691.049H135.295C133.278 691.049 131.643 689.414 131.643 687.397V675.278H377.657V675.277H623.679Z" fill="url(#paint7_linear_23746_2135)"/>
</g>
<path d="M377.646 362.128C378.622 362.128 379.413 362.918 379.413 363.893C379.413 364.867 378.622 365.657 377.646 365.657C376.671 365.657 375.88 364.867 375.88 363.893C375.88 362.919 376.671 362.128 377.646 362.128Z" fill="#070B0C" stroke="#141416" stroke-width="0.541667"/>
<ellipse cx="377.637" cy="364.398" rx="0.50768" ry="0.50515" fill="#232428"/>
<g opacity="0.6">
<rect x="127.557" y="350.156" width="495.099" height="341.906" rx="2.19101" fill="#222222"/>
<rect x="127.557" y="350.156" width="495.099" height="341.906" rx="2.19101" fill="url(#paint8_linear_23746_2135)"/>
</g>
<rect x="142.324" y="373.561" width="470.141" height="294.08" rx="0.0730337" fill="#222222"/>
<rect x="142.324" y="373.561" width="470.141" height="294.08" rx="0.0730337" fill="url(#paint9_linear_23746_2135)"/>
<mask id="mask0_23746_2135" style="mask-type:luminance" maskUnits="userSpaceOnUse" x="142" y="373" width="471" height="295">
<rect x="142.324" y="373.561" width="470.141" height="294.08" rx="0.0730337" fill="white"/>
<rect x="142.324" y="373.561" width="470.141" height="294.08" rx="0.0730337" stroke="white"/>
</mask>
<g mask="url(#mask0_23746_2135)">
</g>
<path d="M685.309 696.643C685.309 696.643 666.94 708.344 556.226 708.09C473.19 707.899 414.261 707.995 389.986 708.055L377.654 708.09C377.595 708.09 309.748 707.836 199.082 708.09C88.3674 708.344 70 696.643 70 696.643H685.309Z" fill="url(#paint10_linear_23746_2135)"/>
<path d="M473.678 701.999C474.72 701.999 475.657 702.084 476.326 702.218C476.663 702.285 476.918 702.362 477.082 702.439C477.123 702.459 477.155 702.476 477.179 702.491C477.155 702.507 477.123 702.525 477.082 702.544C476.918 702.622 476.663 702.698 476.326 702.766C475.657 702.899 474.72 702.984 473.678 702.984C472.635 702.984 471.698 702.899 471.029 702.766C470.693 702.698 470.438 702.622 470.273 702.544C470.232 702.524 470.2 702.507 470.176 702.491C470.2 702.476 470.232 702.459 470.273 702.439C470.438 702.362 470.693 702.285 471.029 702.218C471.698 702.084 472.635 701.999 473.678 701.999Z" fill="#E4E5E9" stroke="#D7D8DB" stroke-width="0.541667"/>
<ellipse cx="473.672" cy="702.609" rx="0.761521" ry="0.374653" fill="#C5C7CD"/>
<path d="M282.148 701.999C283.191 701.999 284.128 702.084 284.797 702.218C285.134 702.285 285.389 702.362 285.553 702.439C285.593 702.459 285.625 702.476 285.649 702.491C285.625 702.507 285.594 702.525 285.553 702.544C285.389 702.622 285.134 702.698 284.797 702.766C284.128 702.899 283.191 702.984 282.148 702.984C281.106 702.984 280.169 702.899 279.5 702.766C279.163 702.698 278.908 702.622 278.744 702.544C278.703 702.524 278.671 702.507 278.646 702.491C278.671 702.476 278.703 702.459 278.744 702.439C278.908 702.362 279.163 702.285 279.5 702.218C280.169 702.084 281.106 701.999 282.148 701.999Z" fill="#E4E5E9" stroke="#D7D8DB" stroke-width="0.541667"/>
<ellipse cx="282.142" cy="702.609" rx="0.761521" ry="0.374653" fill="#C5C7CD"/>
<path fill-rule="evenodd" clip-rule="evenodd" d="M70 685.522C70 685.482 70.0327 685.449 70.073 685.449H327.428L328.956 685.958H427.062L429.1 685.449H685.236C685.276 685.449 685.309 685.482 685.309 685.522V696.643H70V685.522Z" fill="url(#paint11_linear_23746_2135)"/>
<g filter="url(#filter4_di_23746_2135)">
<path fill-rule="evenodd" clip-rule="evenodd" d="M420.932 693.081H335.367C331.034 693.081 327.49 689.706 327.229 685.449L329.266 685.958H427.032L429.07 685.449C428.809 689.708 425.267 693.081 420.932 693.081Z" fill="url(#paint12_linear_23746_2135)"/>
</g>
<path d="M851.184 263.732H850.122V253.428H846.34V252.459H854.965V253.428H851.184V263.732ZM861.512 263.732H860.45L856.231 252.459H857.356L860.926 262.334H861.028L864.598 252.459H865.723L861.512 263.732Z" fill="white" fill-opacity="0.24"/>
</g>
<defs>
<filter id="filter0_f_23746_2135" x="69.0473" y="703.83" width="619.251" height="4.44847" filterUnits="userSpaceOnUse" color-interpolation-filters="sRGB">
<feFlood flood-opacity="0" result="BackgroundImageFix"/>
<feBlend mode="normal" in="SourceGraphic" in2="BackgroundImageFix" result="shape"/>
<feGaussianBlur stdDeviation="0.476374" result="effect1_foregroundBlur_23746_2135"/>
</filter>
<filter id="filter1_i_23746_2135" x="127.557" y="350.156" width="500.193" height="346.994" filterUnits="userSpaceOnUse" color-interpolation-filters="sRGB">
<feFlood flood-opacity="0" result="BackgroundImageFix"/>
<feBlend mode="normal" in="SourceGraphic" in2="BackgroundImageFix" result="shape"/>
<feColorMatrix in="SourceAlpha" type="matrix" values="0 0 0 0 0 0 0 0 0 0 0 0 0 0 0 0 0 0 127 0" result="hardAlpha"/>
<feOffset/>
<feGaussianBlur stdDeviation="0.5"/>
<feComposite in2="hardAlpha" operator="arithmetic" k2="-1" k3="1"/>
<feColorMatrix type="matrix" values="0 0 0 0 0.257004 0 0 0 0 0.261685 0 0 0 0 0.271046 0 0 0 1 0"/>
<feBlend mode="normal" in2="shape" result="effect1_innerShadow_23746_2135"/>
</filter>
<filter id="filter2_i_23746_2135" x="130.109" y="352.699" width="495.1" height="341.906" filterUnits="userSpaceOnUse" color-interpolation-filters="sRGB">
<feFlood flood-opacity="0" result="BackgroundImageFix"/>
<feBlend mode="normal" in="SourceGraphic" in2="BackgroundImageFix" result="shape"/>
<feColorMatrix in="SourceAlpha" type="matrix" values="0 0 0 0 0 0 0 0 0 0 0 0 0 0 0 0 0 0 127 0" result="hardAlpha"/>
<feOffset/>
<feGaussianBlur stdDeviation="0.5"/>
<feComposite in2="hardAlpha" operator="arithmetic" k2="-1" k3="1"/>
<feColorMatrix type="matrix" values="0 0 0 0 0.708679 0 0 0 0 0.708679 0 0 0 0 0.708679 0 0 0 1 0"/>
<feBlend mode="normal" in2="shape" result="effect1_innerShadow_23746_2135"/>
</filter>
<filter id="filter3_i_23746_2135" x="131.643" y="675.277" width="492.037" height="15.7715" filterUnits="userSpaceOnUse" color-interpolation-filters="sRGB">
<feFlood flood-opacity="0" result="BackgroundImageFix"/>
<feBlend mode="normal" in="SourceGraphic" in2="BackgroundImageFix" result="shape"/>
<feColorMatrix in="SourceAlpha" type="matrix" values="0 0 0 0 0 0 0 0 0 0 0 0 0 0 0 0 0 0 127 0" result="hardAlpha"/>
<feOffset/>
<feGaussianBlur stdDeviation="0.5"/>
<feComposite in2="hardAlpha" operator="arithmetic" k2="-1" k3="1"/>
<feColorMatrix type="matrix" values="0 0 0 0 1 0 0 0 0 1 0 0 0 0 1 0 0 0 0.03 0"/>
<feBlend mode="normal" in2="shape" result="effect1_innerShadow_23746_2135"/>
</filter>
<filter id="filter4_di_23746_2135" x="326.229" y="684.449" width="103.842" height="9.63086" filterUnits="userSpaceOnUse" color-interpolation-filters="sRGB">
<feFlood flood-opacity="0" result="BackgroundImageFix"/>
<feColorMatrix in="SourceAlpha" type="matrix" values="0 0 0 0 0 0 0 0 0 0 0 0 0 0 0 0 0 0 127 0" result="hardAlpha"/>
<feOffset/>
<feGaussianBlur stdDeviation="0.5"/>
<feColorMatrix type="matrix" values="0 0 0 0 1 0 0 0 0 1 0 0 0 0 1 0 0 0 0.242584 0"/>
<feBlend mode="normal" in2="BackgroundImageFix" result="effect1_dropShadow_23746_2135"/>
<feBlend mode="normal" in="SourceGraphic" in2="effect1_dropShadow_23746_2135" result="shape"/>
<feColorMatrix in="SourceAlpha" type="matrix" values="0 0 0 0 0 0 0 0 0 0 0 0 0 0 0 0 0 0 127 0" result="hardAlpha"/>
<feOffset/>
<feGaussianBlur stdDeviation="0.5"/>
<feComposite in2="hardAlpha" operator="arithmetic" k2="-1" k3="1"/>
<feColorMatrix type="matrix" values="0 0 0 0 0 0 0 0 0 0 0 0 0 0 0 0 0 0 0.434471 0"/>
<feBlend mode="normal" in2="shape" result="effect2_innerShadow_23746_2135"/>
</filter>
<linearGradient id="paint0_linear_23746_2135" x1="388.889" y1="297.334" x2="1274.53" y2="297.334" gradientUnits="userSpaceOnUse">
<stop stop-color="#9A9EA1"/>
<stop offset="1" stop-color="#D3D3D3"/>
</linearGradient>
<linearGradient id="paint1_linear_23746_2135" x1="1294.36" y1="38.9062" x2="1294.36" y2="583.594" gradientUnits="userSpaceOnUse">
<stop stop-color="#666666"/>
<stop offset="0.29389" stop-color="#A0A0A2"/>
<stop offset="1" stop-color="#696969"/>
</linearGradient>
<linearGradient id="paint2_linear_23746_2135" x1="402.82" y1="38.9062" x2="402.82" y2="583.594" gradientUnits="userSpaceOnUse">
<stop stop-color="#AAABAD"/>
<stop offset="0.157115" stop-color="#DCDCDC"/>
<stop offset="1" stop-color="#AAABAD"/>
</linearGradient>
<linearGradient id="paint3_linear_23746_2135" x1="-77.778" y1="311.25" x2="396.458" y2="1123.86" gradientUnits="userSpaceOnUse">
<stop stop-color="white" stop-opacity="0.4"/>
<stop offset="0.542051" stop-color="white" stop-opacity="0.01"/>
<stop offset="1" stop-color="white" stop-opacity="0.4"/>
</linearGradient>
<linearGradient id="paint4_linear_23746_2135" x1="-22.056" y1="311.251" x2="393.547" y2="1057.41" gradientUnits="userSpaceOnUse">
<stop stop-color="white" stop-opacity="0.16"/>
<stop offset="1" stop-opacity="0.5"/>
</linearGradient>
<linearGradient id="paint5_linear_23746_2135" x1="-77.778" y1="311.25" x2="396.458" y2="1123.86" gradientUnits="userSpaceOnUse">
<stop stop-color="white" stop-opacity="0.08"/>
<stop offset="1" stop-color="white" stop-opacity="0.01"/>
</linearGradient>
<linearGradient id="paint6_linear_23746_2135" x1="136.687" y1="350.156" x2="136.687" y2="684.482" gradientUnits="userSpaceOnUse">
<stop stop-color="#4B4D4C"/>
<stop offset="1" stop-color="#636466"/>
</linearGradient>
<linearGradient id="paint7_linear_23746_2135" x1="218.389" y1="680.838" x2="218.389" y2="691.049" gradientUnits="userSpaceOnUse">
<stop stop-color="#1D1D1D"/>
<stop offset="1" stop-color="#0D0D0D"/>
</linearGradient>
<linearGradient id="paint8_linear_23746_2135" x1="-119.993" y1="521.109" x2="199.749" y2="984.114" gradientUnits="userSpaceOnUse">
<stop stop-color="white" stop-opacity="0.24"/>
<stop offset="1" stop-opacity="0.5"/>
</linearGradient>
<linearGradient id="paint9_linear_23746_2135" x1="-92.7461" y1="520.601" x2="171.691" y2="943.351" gradientUnits="userSpaceOnUse">
<stop stop-color="white" stop-opacity="0.24"/>
<stop offset="1" stop-opacity="0.5"/>
</linearGradient>
<linearGradient id="paint10_linear_23746_2135" x1="685.309" y1="708.094" x2="685.309" y2="696.643" gradientUnits="userSpaceOnUse">
<stop stop-color="#F6F6F6"/>
<stop offset="0.146616" stop-color="#F8F8F9"/>
<stop offset="0.444686" stop-color="#E7E7E8"/>
<stop offset="0.825674" stop-color="#C6C7CD"/>
<stop offset="1" stop-color="#B8B9BD"/>
</linearGradient>
<linearGradient id="paint11_linear_23746_2135" x1="70" y1="696.643" x2="685.309" y2="696.643" gradientUnits="userSpaceOnUse">
<stop stop-color="#27282C"/>
<stop offset="0.00827815" stop-color="#ABACB0"/>
<stop offset="0.0252192" stop-color="#3E3F43"/>
<stop offset="0.132007" stop-color="#88898D"/>
<stop offset="0.505746" stop-color="#A2A3A7"/>
<stop offset="0.876216" stop-color="#88898D"/>
<stop offset="0.974884" stop-color="#3E3F43"/>
<stop offset="0.991722" stop-color="#ABACB0"/>
<stop offset="1" stop-color="#27282C"/>
</linearGradient>
<linearGradient id="paint12_linear_23746_2135" x1="327.229" y1="693.081" x2="429.07" y2="693.081" gradientUnits="userSpaceOnUse">
<stop stop-color="#4E5457"/>
<stop offset="0.15112" stop-color="#83888B"/>
<stop offset="0.505746" stop-color="#9D9FA4"/>
<stop offset="0.849955" stop-color="#83888B"/>
<stop offset="1" stop-color="#4E5457"/>
</linearGradient>
<clipPath id="clip0_23746_2135">
<rect width="1400" height="747" fill="white"/>
</clipPath>
</defs>
</svg>
