<svg width="1080" height="576" viewBox="0 0 1080 576" fill="none" xmlns="http://www.w3.org/2000/svg">
<g clip-path="url(#clip0_23746_2130)">
<path fill-rule="evenodd" clip-rule="evenodd" d="M137.718 396.529C137.891 396.204 138.231 396 138.6 396H941.4C941.769 396 942.109 396.204 942.282 396.529L990 486H90L137.718 396.529Z" fill="url(#paint0_radial_23746_2130)"/>
<mask id="mask0_23746_2130" style="mask-type:luminance" maskUnits="userSpaceOnUse" x="90" y="396" width="901" height="90">
<path fill-rule="evenodd" clip-rule="evenodd" d="M90.002 396H990.001V486H90.002V396Z" fill="white"/>
</mask>
<g mask="url(#mask0_23746_2130)">
<path fill-rule="evenodd" clip-rule="evenodd" d="M141.6 396H938.4C940.614 396 942.648 397.218 943.692 399.174L990 486H90L136.308 399.174C137.352 397.218 139.38 396 141.6 396Z" fill="url(#paint1_radial_23746_2130)"/>
</g>
<path fill-rule="evenodd" clip-rule="evenodd" d="M518.344 442.835H521.492V437.246H518.344V442.835ZM546.954 438.851C546.84 438.834 545.816 438.546 544.299 438.546C542.25 438.546 540.847 439.19 540.847 440.053C540.847 440.883 542.212 441.544 544.299 441.544C545.778 441.544 546.84 441.273 546.954 441.239V442.729C546.575 442.797 545.475 442.932 544.071 442.932C540.543 442.932 537.433 441.832 537.433 440.053C537.433 438.377 540.24 437.157 544.071 437.157C545.551 437.157 546.651 437.31 546.954 437.36V438.851ZM514.002 438.851C513.888 438.834 512.864 438.546 511.346 438.546C509.298 438.546 507.894 439.19 507.894 440.053C507.894 440.883 509.26 441.544 511.346 441.544C512.826 441.544 513.888 441.273 514.002 441.239V442.729C513.622 442.797 512.56 442.932 511.157 442.932C507.591 442.932 504.48 441.832 504.48 440.053C504.48 438.377 507.287 437.157 511.157 437.157C512.636 437.157 513.736 437.31 514.002 437.36V438.851ZM556.891 438.57C555.032 438.57 553.628 439.248 553.628 440.043C553.628 440.856 555.032 441.517 556.891 441.517C558.788 441.517 560.153 440.856 560.153 440.043C560.153 439.248 558.788 438.57 556.891 438.57ZM563.528 440.043C563.528 441.635 560.759 442.939 556.89 442.939C553.059 442.939 550.289 441.635 550.289 440.043C550.289 438.451 553.059 437.164 556.89 437.164C560.759 437.164 563.528 438.451 563.528 440.043ZM533.492 438.521C533.454 438.521 532.126 438.351 531.026 438.351C529.736 438.351 529.053 438.538 529.053 438.809C529.053 439.147 530.002 439.266 530.533 439.334L531.367 439.469C533.454 439.757 534.364 440.384 534.364 441.061C534.364 442.467 531.633 442.941 529.205 442.941C527.498 442.941 525.943 442.789 525.753 442.772V441.501C526.056 441.535 527.384 441.705 528.75 441.705C530.343 441.705 531.064 441.501 531.064 441.18C531.064 440.909 530.419 440.739 529.622 440.638C529.471 440.604 529.167 440.57 528.977 440.536C527.195 440.282 525.715 439.825 525.715 438.893C525.715 437.86 527.498 437.149 530.419 437.149C531.936 437.149 533.378 437.318 533.492 437.335V438.521ZM501.149 431.251C501.149 430.862 500.39 430.557 499.555 430.557C498.683 430.557 498 430.862 498 431.251V432.708C498 433.097 498.683 433.419 499.555 433.419C500.39 433.419 501.149 433.097 501.149 432.708V431.251ZM509.751 429.326C509.751 428.953 509.03 428.632 508.157 428.632C507.323 428.632 506.602 428.953 506.602 429.326V432.713C506.602 433.103 507.323 433.425 508.157 433.425C509.03 433.425 509.751 433.103 509.751 432.713V429.326ZM518.352 426.694C518.352 426.305 517.631 426 516.758 426C515.924 426 515.203 426.305 515.203 426.694V434.112C515.203 434.485 515.924 434.807 516.758 434.807C517.631 434.807 518.352 434.485 518.352 434.112V426.694ZM526.954 429.326C526.954 428.953 526.233 428.632 525.398 428.632C524.526 428.632 523.805 428.953 523.805 429.326V432.713C523.805 433.103 524.526 433.425 525.398 433.425C526.233 433.425 526.954 433.103 526.954 432.713V429.326ZM535.566 431.251C535.566 430.862 534.845 430.557 533.973 430.557C533.138 430.557 532.418 430.862 532.418 431.251V432.708C532.418 433.097 533.138 433.419 533.973 433.419C534.845 433.419 535.566 433.097 535.566 432.708V431.251ZM544.157 429.326C544.157 428.953 543.436 428.632 542.563 428.632C541.729 428.632 541.008 428.953 541.008 429.326V432.713C541.008 433.103 541.729 433.425 542.563 433.425C543.436 433.425 544.157 433.103 544.157 432.713V429.326ZM552.769 426.694C552.769 426.305 552.086 426 551.214 426C550.341 426 549.621 426.305 549.621 426.694V434.112C549.621 434.485 550.341 434.807 551.214 434.807C552.086 434.807 552.769 434.485 552.769 434.112V426.694ZM561.406 429.326C561.406 428.953 560.685 428.632 559.813 428.632C558.94 428.632 558.257 428.953 558.257 429.326V432.713C558.257 433.103 558.94 433.425 559.813 433.425C560.685 433.425 561.406 433.103 561.406 432.713V429.326ZM569.996 431.251C569.996 430.862 569.276 430.557 568.441 430.557C567.569 430.557 566.848 430.862 566.848 431.251V432.708C566.848 433.097 567.569 433.419 568.441 433.419C569.276 433.419 569.996 433.097 569.996 432.708V431.251Z" fill="#C8C8C8"/>
<rect x="90" y="480" width="900" height="96" rx="1" fill="url(#paint2_linear_23746_2130)"/>
<mask id="mask1_23746_2130" style="mask-type:luminance" maskUnits="userSpaceOnUse" x="234" y="246" width="612" height="96">
<path fill-rule="evenodd" clip-rule="evenodd" d="M234 246H846V342H234V246Z" fill="white"/>
</mask>
<g mask="url(#mask1_23746_2130)">
<g filter="url(#filter0_i_23746_2130)">
<path fill-rule="evenodd" clip-rule="evenodd" d="M273.643 246H806.254L841.101 271.56C844.805 274.278 846.635 278.862 845.81 283.374L839.607 317.37C836.999 331.626 824.533 342 809.982 342H270.03C255.473 342 243.007 331.626 240.399 317.37L234.196 283.362C233.371 278.856 235.195 274.278 238.893 271.56L273.643 246Z" fill="#555555"/>
</g>
</g>
<mask id="mask2_23746_2130" style="mask-type:luminance" maskUnits="userSpaceOnUse" x="243" y="246" width="594" height="78">
<path fill-rule="evenodd" clip-rule="evenodd" d="M243 246H837V324H243V246Z" fill="white"/>
</mask>
<g mask="url(#mask2_23746_2130)">
<g filter="url(#filter1_di_23746_2130)">
<path fill-rule="evenodd" clip-rule="evenodd" d="M277.355 246H802.645L832.706 271.176C836.222 274.122 837.75 278.844 836.646 283.308L832.175 301.278C828.85 314.628 816.912 324 803.218 324H276.782C263.082 324 251.144 314.628 247.825 301.278L243.354 283.308C242.244 278.844 243.778 274.122 247.294 271.176L277.355 246Z" fill="url(#paint3_linear_23746_2130)"/>
</g>
</g>
<path fill-rule="evenodd" clip-rule="evenodd" d="M531.609 313.079H533.096V306.745H531.609V313.079ZM545.118 308.565C545.064 308.546 544.58 308.22 543.864 308.22C542.897 308.22 542.234 308.949 542.234 309.928C542.234 310.869 542.879 311.617 543.864 311.617C544.563 311.617 545.064 311.31 545.118 311.272V312.961C544.939 313.038 544.419 313.191 543.756 313.191C542.09 313.191 540.622 311.944 540.622 309.928C540.622 308.028 541.947 306.646 543.756 306.646C544.455 306.646 544.975 306.819 545.118 306.876V308.565ZM529.555 308.563C529.501 308.544 529.017 308.218 528.301 308.218C527.334 308.218 526.671 308.947 526.671 309.926C526.671 310.867 527.316 311.615 528.301 311.615C529 311.615 529.501 311.308 529.555 311.27V312.959C529.376 313.036 528.874 313.189 528.211 313.189C526.528 313.189 525.059 311.941 525.059 309.926C525.059 308.026 526.384 306.644 528.211 306.644C528.91 306.644 529.43 306.817 529.555 306.874V308.563ZM549.802 308.246C548.925 308.246 548.262 309.014 548.262 309.916C548.262 310.838 548.925 311.586 549.802 311.586C550.698 311.586 551.343 310.838 551.343 309.916C551.343 309.014 550.698 308.246 549.802 308.246ZM552.942 309.915C552.942 311.72 551.634 313.198 549.807 313.198C547.998 313.198 546.69 311.72 546.69 309.915C546.69 308.111 547.998 306.652 549.807 306.652C551.634 306.652 552.942 308.111 552.942 309.915ZM538.762 308.19C538.744 308.19 538.117 307.998 537.598 307.998C536.989 307.998 536.666 308.209 536.666 308.516C536.666 308.9 537.114 309.035 537.365 309.111L537.759 309.265C538.744 309.591 539.174 310.302 539.174 311.069C539.174 312.662 537.884 313.2 536.738 313.2C535.932 313.2 535.197 313.027 535.108 313.008V311.568C535.251 311.607 535.878 311.799 536.523 311.799C537.275 311.799 537.616 311.568 537.616 311.204C537.616 310.897 537.311 310.705 536.935 310.589C536.863 310.551 536.72 310.513 536.63 310.474C535.788 310.186 535.09 309.668 535.09 308.612C535.09 307.442 535.932 306.635 537.311 306.635C538.028 306.635 538.708 306.827 538.762 306.847V308.19ZM523.487 299.951C523.487 299.51 523.129 299.164 522.734 299.164C522.322 299.164 522 299.51 522 299.951V301.602C522 302.043 522.322 302.408 522.734 302.408C523.129 302.408 523.487 302.043 523.487 301.602V299.951ZM527.541 297.769C527.541 297.346 527.201 296.982 526.789 296.982C526.395 296.982 526.054 297.346 526.054 297.769V301.608C526.054 302.049 526.395 302.414 526.789 302.414C527.201 302.414 527.541 302.049 527.541 301.608V297.769ZM531.608 294.787C531.608 294.345 531.268 294 530.856 294C530.461 294 530.121 294.345 530.121 294.787V303.194C530.121 303.616 530.461 303.981 530.856 303.981C531.268 303.981 531.608 303.616 531.608 303.194V294.787ZM535.675 297.769C535.675 297.346 535.334 296.982 534.94 296.982C534.528 296.982 534.188 297.346 534.188 297.769V301.608C534.188 302.049 534.528 302.414 534.94 302.414C535.334 302.414 535.675 302.049 535.675 301.608V297.769ZM539.741 299.951C539.741 299.51 539.4 299.164 538.988 299.164C538.594 299.164 538.254 299.51 538.254 299.951V301.602C538.254 302.043 538.594 302.408 538.988 302.408C539.4 302.408 539.741 302.043 539.741 301.602V299.951ZM543.796 297.769C543.796 297.346 543.456 296.982 543.044 296.982C542.649 296.982 542.309 297.346 542.309 297.769V301.608C542.309 302.049 542.649 302.414 543.044 302.414C543.456 302.414 543.796 302.049 543.796 301.608V297.769ZM547.862 294.787C547.862 294.345 547.539 294 547.127 294C546.715 294 546.375 294.345 546.375 294.787V303.194C546.375 303.616 546.715 303.981 547.127 303.981C547.539 303.981 547.862 303.616 547.862 303.194V294.787ZM551.941 297.769C551.941 297.346 551.601 296.982 551.189 296.982C550.777 296.982 550.454 297.346 550.454 297.769V301.608C550.454 302.049 550.777 302.414 551.189 302.414C551.601 302.414 551.941 302.049 551.941 301.608V297.769ZM555.994 299.951C555.994 299.51 555.654 299.164 555.26 299.164C554.848 299.164 554.508 299.51 554.508 299.951V301.602C554.508 302.043 554.848 302.408 555.26 302.408C555.654 302.408 555.994 302.043 555.994 301.602V299.951Z" fill="#908E8E"/>
<g filter="url(#filter2_i_23746_2130)">
<path d="M585.307 262.369C585.129 263.315 584.303 264 583.341 264H496.66C495.698 264 494.872 263.315 494.694 262.369L477 168H483L500.643 244.45C500.852 245.358 501.661 246 502.592 246H577.409C578.34 246 579.149 245.358 579.358 244.45L597 168H603L585.307 262.369Z" fill="#1C1B1B"/>
</g>
<g filter="url(#filter3_i_23746_2130)">
<circle cx="540" cy="108" r="108" fill="#3B3A3A"/>
</g>
<g filter="url(#filter4_i_23746_2130)">
<circle cx="540" cy="108" r="78" fill="#172029"/>
</g>
<g filter="url(#filter5_i_23746_2130)">
<circle cx="540" cy="108" r="48" fill="#232122"/>
</g>
<g filter="url(#filter6_d_23746_2130)">
<circle cx="540" cy="108" r="24" fill="#10151C"/>
</g>
<g filter="url(#filter7_d_23746_2130)">
<circle cx="540" cy="108" r="6" fill="black" fill-opacity="0.01"/>
</g>
</g>
<defs>
<filter id="filter0_i_23746_2130" x="234" y="245.5" width="612.006" height="96.5" filterUnits="userSpaceOnUse" color-interpolation-filters="sRGB">
<feFlood flood-opacity="0" result="BackgroundImageFix"/>
<feBlend mode="normal" in="SourceGraphic" in2="BackgroundImageFix" result="shape"/>
<feColorMatrix in="SourceAlpha" type="matrix" values="0 0 0 0 0 0 0 0 0 0 0 0 0 0 0 0 0 0 127 0" result="hardAlpha"/>
<feOffset dy="-0.5"/>
<feGaussianBlur stdDeviation="1"/>
<feComposite in2="hardAlpha" operator="arithmetic" k2="-1" k3="1"/>
<feColorMatrix type="matrix" values="0 0 0 0 0 0 0 0 0 0 0 0 0 0 0 0 0 0 0.8 0"/>
<feBlend mode="normal" in2="shape" result="effect1_innerShadow_23746_2130"/>
</filter>
<filter id="filter1_di_23746_2130" x="242.498" y="246" width="595.002" height="79" filterUnits="userSpaceOnUse" color-interpolation-filters="sRGB">
<feFlood flood-opacity="0" result="BackgroundImageFix"/>
<feColorMatrix in="SourceAlpha" type="matrix" values="0 0 0 0 0 0 0 0 0 0 0 0 0 0 0 0 0 0 127 0" result="hardAlpha"/>
<feOffset dy="0.5"/>
<feGaussianBlur stdDeviation="0.25"/>
<feColorMatrix type="matrix" values="0 0 0 0 0 0 0 0 0 0 0 0 0 0 0 0 0 0 0.6 0"/>
<feBlend mode="normal" in2="BackgroundImageFix" result="effect1_dropShadow_23746_2130"/>
<feBlend mode="normal" in="SourceGraphic" in2="effect1_dropShadow_23746_2130" result="shape"/>
<feColorMatrix in="SourceAlpha" type="matrix" values="0 0 0 0 0 0 0 0 0 0 0 0 0 0 0 0 0 0 127 0" result="hardAlpha"/>
<feOffset dy="-0.5"/>
<feComposite in2="hardAlpha" operator="arithmetic" k2="-1" k3="1"/>
<feColorMatrix type="matrix" values="0 0 0 0 1 0 0 0 0 1 0 0 0 0 1 0 0 0 0.24 0"/>
<feBlend mode="normal" in2="shape" result="effect2_innerShadow_23746_2130"/>
</filter>
<filter id="filter2_i_23746_2130" x="477" y="168" width="126" height="97" filterUnits="userSpaceOnUse" color-interpolation-filters="sRGB">
<feFlood flood-opacity="0" result="BackgroundImageFix"/>
<feBlend mode="normal" in="SourceGraphic" in2="BackgroundImageFix" result="shape"/>
<feColorMatrix in="SourceAlpha" type="matrix" values="0 0 0 0 0 0 0 0 0 0 0 0 0 0 0 0 0 0 127 0" result="hardAlpha"/>
<feOffset dy="1"/>
<feGaussianBlur stdDeviation="0.5"/>
<feComposite in2="hardAlpha" operator="arithmetic" k2="-1" k3="1"/>
<feColorMatrix type="matrix" values="0 0 0 0 1 0 0 0 0 1 0 0 0 0 1 0 0 0 0.5 0"/>
<feBlend mode="normal" in2="shape" result="effect1_innerShadow_23746_2130"/>
</filter>
<filter id="filter3_i_23746_2130" x="432" y="0" width="216" height="216" filterUnits="userSpaceOnUse" color-interpolation-filters="sRGB">
<feFlood flood-opacity="0" result="BackgroundImageFix"/>
<feBlend mode="normal" in="SourceGraphic" in2="BackgroundImageFix" result="shape"/>
<feColorMatrix in="SourceAlpha" type="matrix" values="0 0 0 0 0 0 0 0 0 0 0 0 0 0 0 0 0 0 127 0" result="hardAlpha"/>
<feMorphology radius="1" operator="erode" in="SourceAlpha" result="effect1_innerShadow_23746_2130"/>
<feOffset/>
<feGaussianBlur stdDeviation="0.5"/>
<feComposite in2="hardAlpha" operator="arithmetic" k2="-1" k3="1"/>
<feColorMatrix type="matrix" values="0 0 0 0 0 0 0 0 0 0 0 0 0 0 0 0 0 0 0.4 0"/>
<feBlend mode="normal" in2="shape" result="effect1_innerShadow_23746_2130"/>
</filter>
<filter id="filter4_i_23746_2130" x="462" y="30" width="156" height="156" filterUnits="userSpaceOnUse" color-interpolation-filters="sRGB">
<feFlood flood-opacity="0" result="BackgroundImageFix"/>
<feBlend mode="normal" in="SourceGraphic" in2="BackgroundImageFix" result="shape"/>
<feColorMatrix in="SourceAlpha" type="matrix" values="0 0 0 0 0 0 0 0 0 0 0 0 0 0 0 0 0 0 127 0" result="hardAlpha"/>
<feMorphology radius="2" operator="erode" in="SourceAlpha" result="effect1_innerShadow_23746_2130"/>
<feOffset/>
<feGaussianBlur stdDeviation="1"/>
<feComposite in2="hardAlpha" operator="arithmetic" k2="-1" k3="1"/>
<feColorMatrix type="matrix" values="0 0 0 0 0 0 0 0 0 0 0 0 0 0 0 0 0 0 0.6 0"/>
<feBlend mode="normal" in2="shape" result="effect1_innerShadow_23746_2130"/>
</filter>
<filter id="filter5_i_23746_2130" x="492" y="60" width="96" height="96" filterUnits="userSpaceOnUse" color-interpolation-filters="sRGB">
<feFlood flood-opacity="0" result="BackgroundImageFix"/>
<feBlend mode="normal" in="SourceGraphic" in2="BackgroundImageFix" result="shape"/>
<feColorMatrix in="SourceAlpha" type="matrix" values="0 0 0 0 0 0 0 0 0 0 0 0 0 0 0 0 0 0 127 0" result="hardAlpha"/>
<feMorphology radius="2" operator="erode" in="SourceAlpha" result="effect1_innerShadow_23746_2130"/>
<feOffset/>
<feGaussianBlur stdDeviation="1"/>
<feComposite in2="hardAlpha" operator="arithmetic" k2="-1" k3="1"/>
<feColorMatrix type="matrix" values="0 0 0 0 0 0 0 0 0 0 0 0 0 0 0 0 0 0 0.6 0"/>
<feBlend mode="normal" in2="shape" result="effect1_innerShadow_23746_2130"/>
</filter>
<filter id="filter6_d_23746_2130" x="515" y="83" width="50" height="50" filterUnits="userSpaceOnUse" color-interpolation-filters="sRGB">
<feFlood flood-opacity="0" result="BackgroundImageFix"/>
<feColorMatrix in="SourceAlpha" type="matrix" values="0 0 0 0 0 0 0 0 0 0 0 0 0 0 0 0 0 0 127 0" result="hardAlpha"/>
<feMorphology radius="0.5" operator="dilate" in="SourceAlpha" result="effect1_dropShadow_23746_2130"/>
<feOffset/>
<feGaussianBlur stdDeviation="0.25"/>
<feColorMatrix type="matrix" values="0 0 0 0 1 0 0 0 0 1 0 0 0 0 1 0 0 0 0.08 0"/>
<feBlend mode="normal" in2="BackgroundImageFix" result="effect1_dropShadow_23746_2130"/>
<feBlend mode="normal" in="SourceGraphic" in2="effect1_dropShadow_23746_2130" result="shape"/>
</filter>
<filter id="filter7_d_23746_2130" x="533.75" y="101.75" width="12.5" height="12.5" filterUnits="userSpaceOnUse" color-interpolation-filters="sRGB">
<feFlood flood-opacity="0" result="BackgroundImageFix"/>
<feColorMatrix in="SourceAlpha" type="matrix" values="0 0 0 0 0 0 0 0 0 0 0 0 0 0 0 0 0 0 127 0" result="hardAlpha"/>
<feOffset/>
<feGaussianBlur stdDeviation="0.125"/>
<feColorMatrix type="matrix" values="0 0 0 0 0.0922915 0 0 0 0 0.16284 0 0 0 0 0.150571 0 0 0 1 0"/>
<feBlend mode="normal" in2="BackgroundImageFix" result="effect1_dropShadow_23746_2130"/>
<feBlend mode="normal" in="SourceGraphic" in2="effect1_dropShadow_23746_2130" result="shape"/>
</filter>
<radialGradient id="paint0_radial_23746_2130" cx="0" cy="0" r="1" gradientUnits="userSpaceOnUse" gradientTransform="translate(540 441) rotate(180) scale(424.805 2.45487)">
<stop stop-color="#F5F6F7"/>
<stop offset="1" stop-color="#EFEFEF"/>
</radialGradient>
<radialGradient id="paint1_radial_23746_2130" cx="0" cy="0" r="1" gradientUnits="userSpaceOnUse" gradientTransform="translate(540 441) rotate(180) scale(424.805 2.45487)">
<stop stop-color="#F5F6F7"/>
<stop offset="1" stop-color="#EFEFEF"/>
</radialGradient>
<linearGradient id="paint2_linear_23746_2130" x1="90" y1="578.233" x2="990" y2="578.233" gradientUnits="userSpaceOnUse">
<stop stop-color="#E9EAEB"/>
<stop offset="0.0133333" stop-color="#D3D4D5"/>
<stop offset="0.501491" stop-color="#DADBDC"/>
<stop offset="0.96778" stop-color="#D8D8D9"/>
<stop offset="0.983952" stop-color="#E2E2E2"/>
<stop offset="1" stop-color="#F7F7F7"/>
</linearGradient>
<linearGradient id="paint3_linear_23746_2130" x1="242.998" y1="246" x2="242.998" y2="324" gradientUnits="userSpaceOnUse">
<stop stop-color="#DBDCDD"/>
<stop offset="0.316" stop-color="#E0E0E1"/>
<stop offset="0.409456" stop-color="#F7F7F7"/>
<stop offset="0.523867" stop-color="#D7D9DB"/>
<stop offset="1" stop-color="#CFD1D3"/>
</linearGradient>
<clipPath id="clip0_23746_2130">
<rect width="1080" height="576" fill="white"/>
</clipPath>
</defs>
</svg>
