<svg width="1400" height="747" viewBox="0 0 1400 747" fill="none" xmlns="http://www.w3.org/2000/svg">
<g clip-path="url(#clip0_23746_2131)">
<path fill-rule="evenodd" clip-rule="evenodd" d="M428.267 425.371V684.746C428.267 696.2 437.544 705.496 448.975 705.496V715.871H417.913L407.559 705.496V414.996L428.267 425.371Z" fill="url(#paint0_linear_23746_2131)"/>
<path fill-rule="evenodd" clip-rule="evenodd" d="M971.935 425.371V684.746C971.935 696.2 962.658 705.496 951.227 705.496V715.871H982.289L992.643 705.496V414.996L971.935 425.371Z" fill="url(#paint1_linear_23746_2131)"/>
<path fill-rule="evenodd" clip-rule="evenodd" d="M981.666 682.955C981.666 694.356 971.959 703.591 959.999 703.591H439.999C428.039 703.591 418.333 694.356 418.333 682.955V358.508C405.441 365.658 396.666 378.824 396.666 394.053V682.955C396.666 705.747 416.069 724.227 439.999 724.227H959.999C983.93 724.227 1003.33 705.747 1003.33 682.955V394.053C1003.33 378.824 994.558 365.658 981.666 358.508V682.955Z" fill="url(#paint2_linear_23746_2131)"/>
<path fill-rule="evenodd" clip-rule="evenodd" d="M981.666 0H418.333C406.373 0 396.666 9.07981 396.666 20.2674V415.483C396.666 426.67 406.373 435.75 418.333 435.75H981.666C993.626 435.75 1003.33 426.67 1003.33 415.483V20.2674C1003.33 9.07981 993.626 0 981.666 0V0Z" fill="#E0E0E0"/>
<rect x="685.75" y="20.752" width="51.7708" height="20.75" rx="1.77778" fill="url(#paint3_linear_23746_2131)"/>
<rect x="688.986" y="24.2109" width="22.6497" height="13.8333" rx="1.77778" fill="#232323"/>
<ellipse cx="695.456" cy="31.1263" rx="3.23568" ry="3.45833" fill="#494E5C"/>
<rect x="718.107" y="24.2109" width="12.9427" height="13.8333" rx="1.77778" fill="#232323"/>
<ellipse cx="724.183" cy="31.1263" rx="3.23568" ry="3.45833" fill="#494E5C"/>
<path fill-rule="evenodd" clip-rule="evenodd" d="M695.745 414.87H697.292V408.024H695.745V414.87ZM709.794 409.992C709.738 409.971 709.235 409.618 708.49 409.618C707.484 409.618 706.794 410.407 706.794 411.465C706.794 412.481 707.465 413.29 708.49 413.29C709.217 413.29 709.738 412.958 709.794 412.917V414.742C709.608 414.825 709.068 414.991 708.378 414.991C706.645 414.991 705.118 413.643 705.118 411.465C705.118 409.411 706.496 407.917 708.378 407.917C709.105 407.917 709.645 408.104 709.794 408.166V409.992ZM693.616 409.992C693.56 409.971 693.057 409.618 692.312 409.618C691.306 409.618 690.617 410.407 690.617 411.465C690.617 412.481 691.287 413.29 692.312 413.29C693.039 413.29 693.56 412.958 693.616 412.917V414.742C693.43 414.825 692.908 414.991 692.219 414.991C690.467 414.991 688.94 413.643 688.94 411.465C688.94 409.411 690.318 407.917 692.219 407.917C692.945 407.917 693.486 408.104 693.616 408.166V409.992ZM714.666 409.649C713.753 409.649 713.064 410.478 713.064 411.453C713.064 412.449 713.753 413.258 714.666 413.258C715.598 413.258 716.268 412.449 716.268 411.453C716.268 410.478 715.598 409.649 714.666 409.649M717.941 411.452C717.941 413.402 716.58 414.999 714.68 414.999C712.798 414.999 711.438 413.402 711.438 411.452C711.438 409.502 712.798 407.926 714.68 407.926C716.58 407.926 717.941 409.502 717.941 411.452M703.183 409.587C703.164 409.587 702.512 409.379 701.972 409.379C701.338 409.379 701.003 409.607 701.003 409.939C701.003 410.354 701.468 410.499 701.729 410.582L702.139 410.748C703.164 411.101 703.611 411.869 703.611 412.698C703.611 414.42 702.27 415.001 701.077 415.001C700.239 415.001 699.475 414.814 699.382 414.793V413.238C699.531 413.279 700.183 413.487 700.854 413.487C701.636 413.487 701.99 413.238 701.99 412.844C701.99 412.512 701.673 412.304 701.282 412.18C701.208 412.138 701.059 412.097 700.965 412.055C700.09 411.744 699.363 411.184 699.363 410.043C699.363 408.778 700.239 407.907 701.673 407.907C702.419 407.907 703.127 408.114 703.183 408.135V409.587ZM687.296 400.684C687.296 400.207 686.924 399.834 686.514 399.834C686.085 399.834 685.75 400.207 685.75 400.684V402.468C685.75 402.945 686.085 403.339 686.514 403.339C686.924 403.339 687.296 402.945 687.296 402.468V400.684ZM691.518 398.324C691.518 397.868 691.164 397.473 690.736 397.473C690.326 397.473 689.972 397.868 689.972 398.324V402.473C689.972 402.95 690.326 403.344 690.736 403.344C691.164 403.344 691.518 402.95 691.518 402.473V398.324ZM695.743 395.102C695.743 394.625 695.389 394.252 694.96 394.252C694.55 394.252 694.196 394.625 694.196 395.102V404.188C694.196 404.645 694.55 405.039 694.96 405.039C695.389 405.039 695.743 404.645 695.743 404.188V395.102ZM699.966 398.324C699.966 397.868 699.612 397.473 699.202 397.473C698.774 397.473 698.42 397.868 698.42 398.324V402.473C698.42 402.95 698.774 403.344 699.202 403.344C699.612 403.344 699.966 402.95 699.966 402.473V398.324ZM704.204 400.684C704.204 400.207 703.85 399.834 703.422 399.834C703.012 399.834 702.658 400.207 702.658 400.684V402.468C702.658 402.945 703.012 403.339 703.422 403.339C703.85 403.339 704.204 402.945 704.204 402.468V400.684ZM708.428 398.324C708.428 397.868 708.074 397.473 707.645 397.473C707.235 397.473 706.881 397.868 706.881 398.324V402.473C706.881 402.95 707.235 403.344 707.645 403.344C708.074 403.344 708.428 402.95 708.428 402.473V398.324ZM712.65 395.102C712.65 394.625 712.314 394.252 711.886 394.252C711.457 394.252 711.103 394.625 711.103 395.102V404.188C711.103 404.645 711.457 405.039 711.886 405.039C712.314 405.039 712.65 404.645 712.65 404.188V395.102ZM716.888 398.324C716.888 397.868 716.534 397.473 716.105 397.473C715.677 397.473 715.341 397.868 715.341 398.324V402.473C715.341 402.95 715.677 403.344 716.105 403.344C716.534 403.344 716.888 402.95 716.888 402.473V398.324ZM721.114 400.684C721.114 400.207 720.76 399.834 720.35 399.834C719.921 399.834 719.567 400.207 719.567 400.684V402.468C719.567 402.945 719.921 403.339 720.35 403.339C720.76 403.339 721.114 402.945 721.114 402.468V400.684Z" fill="#908E8E"/>
<path fill-rule="evenodd" clip-rule="evenodd" d="M990.809 373.5H422.126C419.049 373.5 416.551 371.01 416.551 367.942V67.808C416.551 64.74 419.049 62.25 422.126 62.25H990.809C993.886 62.25 996.384 64.74 996.384 67.808V367.942C996.384 371.01 993.886 373.5 990.809 373.5" fill="#222222"/>
<path fill-rule="evenodd" clip-rule="evenodd" d="M990.809 373.5H422.126C419.049 373.5 416.551 371.01 416.551 367.942V67.808C416.551 64.74 419.049 62.25 422.126 62.25H990.809C993.886 62.25 996.384 64.74 996.384 67.808V367.942C996.384 371.01 993.886 373.5 990.809 373.5" fill="url(#paint4_linear_23746_2131)"/>
<path fill-rule="evenodd" clip-rule="evenodd" d="M451.109 747V736.625L471.818 715.875H502.88V726.25L482.172 747H451.109Z" fill="url(#paint5_radial_23746_2131)"/>
<path fill-rule="evenodd" clip-rule="evenodd" d="M485.206 733.585C483.269 735.525 480.629 736.625 477.885 736.625H451.109V747H477.885C480.629 747 483.269 745.9 485.206 743.96L502.88 726.25V715.875L485.206 733.585Z" fill="#D3D3D3"/>
<path fill-rule="evenodd" clip-rule="evenodd" d="M948.859 747V736.625L928.15 715.875H897.088V726.25L917.796 747H948.859Z" fill="url(#paint6_radial_23746_2131)"/>
<path fill-rule="evenodd" clip-rule="evenodd" d="M914.762 733.585C916.699 735.525 919.339 736.625 922.083 736.625H948.859V747H922.083C919.339 747 916.699 745.9 914.762 743.96L897.088 726.25V715.875L914.762 733.585Z" fill="#D3D3D3"/>
</g>
<defs>
<linearGradient id="paint0_linear_23746_2131" x1="407.573" y1="414.996" x2="407.573" y2="715.667" gradientUnits="userSpaceOnUse">
<stop stop-color="#B1B1B1"/>
<stop offset="0.278382" stop-color="#C9C9C9"/>
<stop offset="0.514141" stop-color="#D6D6D6"/>
<stop offset="0.743587" stop-color="#C9C9C9"/>
<stop offset="0.953577" stop-color="#ECECEC"/>
<stop offset="0.999932" stop-color="#B1B1B1"/>
</linearGradient>
<linearGradient id="paint1_linear_23746_2131" x1="951.241" y1="414.996" x2="951.241" y2="715.667" gradientUnits="userSpaceOnUse">
<stop stop-color="#B1B1B1"/>
<stop offset="0.278382" stop-color="#C9C9C9"/>
<stop offset="0.514141" stop-color="#D6D6D6"/>
<stop offset="0.743587" stop-color="#C9C9C9"/>
<stop offset="0.953577" stop-color="#ECECEC"/>
<stop offset="0.999932" stop-color="#B1B1B1"/>
</linearGradient>
<linearGradient id="paint2_linear_23746_2131" x1="396.748" y1="358.508" x2="396.748" y2="724.127" gradientUnits="userSpaceOnUse">
<stop stop-color="#CFCFCF"/>
<stop offset="0.470308" stop-color="#F1F1F1"/>
<stop offset="0.999932" stop-color="#D9D9D9"/>
</linearGradient>
<linearGradient id="paint3_linear_23746_2131" x1="687.638" y1="21.5029" x2="687.638" y2="40.7397" gradientUnits="userSpaceOnUse">
<stop stop-color="#333333"/>
<stop offset="1" stop-color="#3E3E3E"/>
</linearGradient>
<linearGradient id="paint4_linear_23746_2131" x1="126.634" y1="217.875" x2="386.04" y2="701.128" gradientUnits="userSpaceOnUse">
<stop stop-color="white" stop-opacity="0.24"/>
<stop offset="1" stop-opacity="0.5"/>
</linearGradient>
<radialGradient id="paint5_radial_23746_2131" cx="0" cy="0" r="1" gradientUnits="userSpaceOnUse" gradientTransform="translate(483.609 779.843) rotate(24.0187) scale(38.2338 29.7144)">
<stop stop-color="#9C9C9C"/>
<stop offset="0.528236" stop-color="#E8E8E8"/>
<stop offset="1" stop-color="#E8E8E8"/>
</radialGradient>
<radialGradient id="paint6_radial_23746_2131" cx="0" cy="0" r="1" gradientUnits="userSpaceOnUse" gradientTransform="translate(929.587 779.843) rotate(24.0187) scale(38.2338 29.7144)">
<stop stop-color="#9C9C9C"/>
<stop offset="0.528236" stop-color="#E8E8E8"/>
<stop offset="1" stop-color="#E8E8E8"/>
</radialGradient>
<clipPath id="clip0_23746_2131">
<rect width="1400" height="747" fill="white"/>
</clipPath>
</defs>
</svg>
