<svg width="180" height="96" viewBox="0 0 180 96" fill="none" xmlns="http://www.w3.org/2000/svg">
<g clip-path="url(#clip0_23745_11701)">
<path fill-rule="evenodd" clip-rule="evenodd" d="M85.5059 8H93.4934V6H85.5059V8Z" fill="url(#paint0_linear_23745_11701)"/>
<path fill-rule="evenodd" clip-rule="evenodd" d="M93.4934 5.99967C93.4934 6.36767 91.7055 6.66634 89.4996 6.66634C87.2937 6.66634 85.5059 6.36767 85.5059 5.99967C85.5059 5.63167 87.2937 5.33301 89.4996 5.33301C91.7055 5.33301 93.4934 5.63167 93.4934 5.99967Z" fill="url(#paint1_linear_23745_11701)"/>
<path fill-rule="evenodd" clip-rule="evenodd" d="M92.1629 2.66667C92.1629 1.19467 90.9701 0 89.5004 0C88.0307 0 86.8379 1.19467 86.8379 2.66667V4H92.1629V2.66667Z" fill="url(#paint2_linear_23745_11701)"/>
<path fill-rule="evenodd" clip-rule="evenodd" d="M65.5 94.5L66.787 88.5263C66.8532 88.2192 67.1246 88 67.4387 88H110.449C110.722 88 110.967 88.166 111.068 88.4191L113.5 94.5H65.5Z" fill="url(#paint3_radial_23745_11701)"/>
<path fill-rule="evenodd" clip-rule="evenodd" d="M65.5 95.3333C65.5 95.7015 65.7985 96 66.1667 96H112.833C113.202 96 113.5 95.7015 113.5 95.3333V94.5H65.5V95.3333Z" fill="#2F2F2F"/>
<path fill-rule="evenodd" clip-rule="evenodd" d="M84 91H95V59H84V91Z" fill="url(#paint4_linear_23745_11701)"/>
<path fill-rule="evenodd" clip-rule="evenodd" d="M125.345 59H53.6552C52.1895 59 51 57.7975 51 56.3158V10.6842C51 9.20253 52.1895 8 53.6552 8H125.345C126.81 8 128 9.20253 128 10.6842V56.3158C128 57.7975 126.81 59 125.345 59Z" fill="#E0E0E0"/>
<path fill-rule="evenodd" clip-rule="evenodd" d="M125.324 51H53.6759C53.3028 51 53 50.7013 53 50.3333V11.6667C53 11.2987 53.3028 11 53.6759 11H125.324C125.697 11 126 11.2987 126 11.6667V50.3333C126 50.7013 125.697 51 125.324 51Z" fill="#222222"/>
<path fill-rule="evenodd" clip-rule="evenodd" d="M125.324 51H53.6759C53.3028 51 53 50.7013 53 50.3333V11.6667C53 11.2987 53.3028 11 53.6759 11H125.324C125.697 11 126 11.2987 126 11.6667V50.3333C126 50.7013 125.697 51 125.324 51Z" fill="#222222"/>
<path fill-rule="evenodd" clip-rule="evenodd" d="M125.324 51H53.6759C53.3028 51 53 50.7013 53 50.3333V11.6667C53 11.2987 53.3028 11 53.6759 11H125.324C125.697 11 126 11.2987 126 11.6667V50.3333C126 50.7013 125.697 51 125.324 51Z" fill="url(#paint5_linear_23745_11701)"/>
<path fill-rule="evenodd" clip-rule="evenodd" d="M88.4375 55.8988H88.6363V55.019H88.4375V55.8988ZM90.2438 55.2719C90.2366 55.2692 90.1719 55.2239 90.0761 55.2239C89.9467 55.2239 89.8581 55.3252 89.8581 55.4612C89.8581 55.5918 89.9443 55.6958 90.0761 55.6958C90.1695 55.6958 90.2366 55.6531 90.2438 55.6478V55.8824C90.2198 55.893 90.1504 55.9144 90.0617 55.9144C89.8389 55.9144 89.6425 55.7411 89.6425 55.4612C89.6425 55.1972 89.8198 55.0053 90.0617 55.0053C90.1551 55.0053 90.2246 55.0293 90.2438 55.0373V55.2719ZM88.1638 55.272C88.1566 55.2693 88.0919 55.224 87.9961 55.224C87.8667 55.224 87.7781 55.3253 87.7781 55.4612C87.7781 55.5919 87.8643 55.6958 87.9961 55.6958C88.0895 55.6958 88.1566 55.6532 88.1638 55.6478V55.8824C88.1398 55.8931 88.0727 55.9144 87.9841 55.9144C87.7589 55.9144 87.5625 55.7412 87.5625 55.4612C87.5625 55.1973 87.7398 55.0054 87.9841 55.0054C88.0775 55.0054 88.147 55.0294 88.1638 55.0374V55.272ZM90.8701 55.2275C90.7527 55.2275 90.6641 55.3342 90.6641 55.4595C90.6641 55.5874 90.7527 55.6914 90.8701 55.6914C90.9899 55.6914 91.0761 55.5874 91.0761 55.4595C91.0761 55.3342 90.9899 55.2275 90.8701 55.2275ZM91.2911 55.4595C91.2911 55.7101 91.1162 55.9154 90.8719 55.9154C90.63 55.9154 90.4551 55.7101 90.4551 55.4595C90.4551 55.209 90.63 55.0063 90.8719 55.0063C91.1162 55.0063 91.2911 55.209 91.2911 55.4595ZM89.3936 55.2199C89.3912 55.2199 89.3074 55.1932 89.2379 55.1932C89.1564 55.1932 89.1133 55.2226 89.1133 55.2652C89.1133 55.3185 89.1732 55.3372 89.2068 55.3479L89.2595 55.3692C89.3912 55.4145 89.4487 55.5131 89.4487 55.6198C89.4487 55.841 89.2762 55.9157 89.1229 55.9157C89.0151 55.9157 88.9169 55.8917 88.9049 55.889V55.6891C88.9241 55.6944 89.0079 55.7211 89.0942 55.7211C89.1948 55.7211 89.2403 55.6891 89.2403 55.6384C89.2403 55.5958 89.1996 55.5691 89.1493 55.5531C89.1397 55.5478 89.1205 55.5425 89.1085 55.5371C88.9959 55.4971 88.9025 55.4252 88.9025 55.2785C88.9025 55.1159 89.0151 55.004 89.1996 55.004C89.2954 55.004 89.3864 55.0306 89.3936 55.0333V55.2199ZM87.3512 54.0757C87.3512 54.0144 87.3033 53.9664 87.2506 53.9664C87.1955 53.9664 87.1523 54.0144 87.1523 54.0757V54.305C87.1523 54.3663 87.1955 54.4169 87.2506 54.4169C87.3033 54.4169 87.3512 54.3663 87.3512 54.305V54.0757ZM87.894 53.7723C87.894 53.7137 87.8485 53.663 87.7934 53.663C87.7407 53.663 87.6952 53.7137 87.6952 53.7723V54.3055C87.6952 54.3668 87.7407 54.4175 87.7934 54.4175C87.8485 54.4175 87.894 54.3668 87.894 54.3055V53.7723ZM88.4371 53.3583C88.4371 53.297 88.3916 53.249 88.3365 53.249C88.2838 53.249 88.2383 53.297 88.2383 53.3583V54.526C88.2383 54.5846 88.2838 54.6353 88.3365 54.6353C88.3916 54.6353 88.4371 54.5846 88.4371 54.526V53.3583ZM88.9801 53.7724C88.9801 53.7137 88.9346 53.6631 88.8819 53.6631C88.8268 53.6631 88.7812 53.7137 88.7812 53.7724V54.3056C88.7812 54.3669 88.8268 54.4175 88.8819 54.4175C88.9346 54.4175 88.9801 54.3669 88.9801 54.3056V53.7724ZM89.525 54.0756C89.525 54.0143 89.4795 53.9663 89.4244 53.9663C89.3717 53.9663 89.3262 54.0143 89.3262 54.0756V54.3049C89.3262 54.3662 89.3717 54.4168 89.4244 54.4168C89.4795 54.4168 89.525 54.3662 89.525 54.3049V54.0756ZM90.068 53.7724C90.068 53.7137 90.0225 53.6631 89.9674 53.6631C89.9147 53.6631 89.8691 53.7137 89.8691 53.7724V54.3056C89.8691 54.3669 89.9147 54.4175 89.9674 54.4175C90.0225 54.4175 90.068 54.3669 90.068 54.3056V53.7724ZM90.6109 53.3583C90.6109 53.297 90.5678 53.249 90.5127 53.249C90.4576 53.249 90.4121 53.297 90.4121 53.3583V54.526C90.4121 54.5846 90.4576 54.6353 90.5127 54.6353C90.5678 54.6353 90.6109 54.5846 90.6109 54.526V53.3583ZM91.1559 53.7724C91.1559 53.7137 91.1103 53.6631 91.0552 53.6631C91.0002 53.6631 90.957 53.7137 90.957 53.7724V54.3056C90.957 54.3669 91.0002 54.4175 91.0552 54.4175C91.1103 54.4175 91.1559 54.3669 91.1559 54.3056V53.7724ZM91.6991 54.0757C91.6991 54.0144 91.6535 53.9664 91.6008 53.9664C91.5457 53.9664 91.5002 54.0144 91.5002 54.0757V54.305C91.5002 54.3663 91.5457 54.4169 91.6008 54.4169C91.6535 54.4169 91.6991 54.3663 91.6991 54.305V54.0757Z" fill="#908E8E"/>
<path fill-rule="evenodd" clip-rule="evenodd" d="M92.1629 3.99967C92.1629 2.52767 90.9701 1.33301 89.5004 1.33301C88.0307 1.33301 86.8379 2.52767 86.8379 3.99967C86.8379 5.47167 88.0307 6.66634 89.5004 6.66634C90.9701 6.66634 92.1629 5.47167 92.1629 3.99967Z" fill="#232323"/>
<path fill-rule="evenodd" clip-rule="evenodd" d="M90.8305 4.00033C90.8305 3.26433 90.2341 2.66699 89.4992 2.66699C88.7644 2.66699 88.168 3.26433 88.168 4.00033C88.168 4.73633 88.7644 5.33366 89.4992 5.33366C90.2341 5.33366 90.8305 4.73633 90.8305 4.00033Z" fill="#373B47"/>
</g>
<defs>
<linearGradient id="paint0_linear_23745_11701" x1="85.5059" y1="9" x2="93.4934" y2="9" gradientUnits="userSpaceOnUse">
<stop stop-color="#DFDFDF"/>
<stop offset="1" stop-color="#6F6F6F"/>
</linearGradient>
<linearGradient id="paint1_linear_23745_11701" x1="87.5027" y1="5.55306" x2="87.607" y2="6.49878" gradientUnits="userSpaceOnUse">
<stop stop-color="#F6F6F6"/>
<stop offset="1" stop-color="#969696"/>
</linearGradient>
<linearGradient id="paint2_linear_23745_11701" x1="86.8379" y1="2.10947" x2="92.1629" y2="2.10947" gradientUnits="userSpaceOnUse">
<stop stop-color="#B4B4B4"/>
<stop offset="0.264038" stop-color="#F5F5F5"/>
<stop offset="0.664246" stop-color="#CCCCCC"/>
<stop offset="1" stop-color="#808080"/>
</linearGradient>
<radialGradient id="paint3_radial_23745_11701" cx="0" cy="0" r="1" gradientUnits="userSpaceOnUse" gradientTransform="translate(95.6322 101.359) rotate(5.73169) scale(32.5423 6.75969)">
<stop stop-color="#9C9C9C"/>
<stop offset="0.528236" stop-color="#E8E8E8"/>
<stop offset="1" stop-color="#E8E8E8"/>
</radialGradient>
<linearGradient id="paint4_linear_23745_11701" x1="84.0004" y1="59" x2="84.0004" y2="90.9978" gradientUnits="userSpaceOnUse">
<stop stop-color="#CFCFCF"/>
<stop offset="0.278382" stop-color="#D9D9D9"/>
<stop offset="0.514141" stop-color="#DFDFDF"/>
<stop offset="0.753319" stop-color="#D6D6D6"/>
<stop offset="0.999932" stop-color="#C0C0C0"/>
</linearGradient>
<linearGradient id="paint5_linear_23745_11701" x1="16.5" y1="31" x2="50.2134" y2="92.5269" gradientUnits="userSpaceOnUse">
<stop stop-color="white" stop-opacity="0.24"/>
<stop offset="1" stop-opacity="0.5"/>
</linearGradient>
<clipPath id="clip0_23745_11701">
<rect width="180" height="96" fill="white"/>
</clipPath>
</defs>
</svg>
