<svg width="1080" height="576" viewBox="0 0 1080 576" fill="none" xmlns="http://www.w3.org/2000/svg">
<g clip-path="url(#clip0_23746_2124)">
<path fill-rule="evenodd" clip-rule="evenodd" d="M95.8336 205.171C96.0683 204.471 96.7236 204 97.4615 204H982.538C983.276 204 983.932 204.471 984.166 205.171L1020 312H60L95.8336 205.171Z" fill="#F1F1F1"/>
<path fill-rule="evenodd" clip-rule="evenodd" d="M525.328 274.714H529.425V265.623H525.328V274.714ZM562.55 268.236C562.402 268.209 561.07 267.741 559.095 267.741C556.43 267.741 554.604 268.787 554.604 270.192C554.604 271.542 556.381 272.617 559.095 272.617C561.02 272.617 562.402 272.176 562.55 272.121V274.545C562.057 274.655 560.625 274.875 558.799 274.875C554.209 274.875 550.162 273.085 550.162 270.192C550.162 267.465 553.814 265.482 558.799 265.482C560.724 265.482 562.155 265.73 562.55 265.812V268.236ZM519.681 268.236C519.533 268.209 518.201 267.741 516.227 267.741C513.561 267.741 511.735 268.787 511.735 270.192C511.735 271.542 513.512 272.617 516.227 272.617C518.151 272.617 519.533 272.176 519.681 272.121V274.545C519.188 274.655 517.806 274.875 515.98 274.875C511.34 274.875 507.293 273.085 507.293 270.192C507.293 267.465 510.945 265.482 515.98 265.482C517.905 265.482 519.336 265.73 519.681 265.812V268.236ZM575.475 267.778C573.056 267.778 571.23 268.88 571.23 270.175C571.23 271.497 573.056 272.571 575.475 272.571C577.943 272.571 579.72 271.497 579.72 270.175C579.72 268.88 577.943 267.778 575.475 267.778M584.109 270.173C584.109 272.763 580.506 274.884 575.472 274.884C570.487 274.884 566.884 272.763 566.884 270.173C566.884 267.584 570.487 265.49 575.472 265.49C580.506 265.49 584.109 267.584 584.109 270.173M545.033 267.698C544.984 267.698 543.256 267.423 541.825 267.423C540.147 267.423 539.259 267.726 539.259 268.167C539.259 268.718 540.493 268.91 541.184 269.021L542.269 269.241C544.984 269.709 546.169 270.729 546.169 271.83C546.169 274.117 542.615 274.888 539.456 274.888C537.235 274.888 535.211 274.64 534.965 274.613V272.547C535.359 272.602 537.087 272.877 538.864 272.877C540.937 272.877 541.875 272.547 541.875 272.023C541.875 271.582 541.035 271.307 539.999 271.142C539.802 271.087 539.407 271.032 539.16 270.976C536.84 270.563 534.915 269.819 534.915 268.304C534.915 266.624 537.235 265.467 541.035 265.467C543.01 265.467 544.885 265.742 545.033 265.77V267.698ZM502.952 255.874C502.952 255.24 501.965 254.744 500.879 254.744C499.744 254.744 498.855 255.24 498.855 255.874V258.243C498.855 258.876 499.744 259.4 500.879 259.4C501.965 259.4 502.952 258.876 502.952 258.243V255.874ZM514.132 252.742C514.132 252.136 513.194 251.613 512.059 251.613C510.973 251.613 510.035 252.136 510.035 252.742V258.252C510.035 258.885 510.973 259.409 512.059 259.409C513.194 259.409 514.132 258.885 514.132 258.252V252.742ZM525.335 248.461C525.335 247.828 524.397 247.332 523.262 247.332C522.176 247.332 521.238 247.828 521.238 248.461V260.527C521.238 261.133 522.176 261.657 523.262 261.657C524.397 261.657 525.335 261.133 525.335 260.527V248.461ZM536.527 252.742C536.527 252.136 535.589 251.613 534.503 251.613C533.368 251.613 532.43 252.136 532.43 252.742V258.252C532.43 258.885 533.368 259.409 534.503 259.409C535.589 259.409 536.527 258.885 536.527 258.252V252.742ZM547.73 255.876C547.73 255.242 546.792 254.746 545.657 254.746C544.571 254.746 543.633 255.242 543.633 255.876V258.245C543.633 258.878 544.571 259.402 545.657 259.402C546.792 259.402 547.73 258.878 547.73 258.245V255.876ZM558.91 252.742C558.91 252.136 557.972 251.613 556.837 251.613C555.751 251.613 554.813 252.136 554.813 252.742V258.252C554.813 258.885 555.751 259.409 556.837 259.409C557.972 259.409 558.91 258.885 558.91 258.252V252.742ZM570.124 248.461C570.124 247.828 569.236 247.332 568.1 247.332C566.965 247.332 566.027 247.828 566.027 248.461V260.527C566.027 261.133 566.965 261.657 568.1 261.657C569.236 261.657 570.124 261.133 570.124 260.527V248.461ZM581.35 252.74C581.35 252.134 580.412 251.611 579.277 251.611C578.142 251.611 577.254 252.134 577.254 252.74V258.25C577.254 258.883 578.142 259.407 579.277 259.407C580.412 259.407 581.35 258.883 581.35 258.25V252.74ZM592.531 255.876C592.531 255.242 591.593 254.746 590.507 254.746C589.372 254.746 588.434 255.242 588.434 255.876V258.245C588.434 258.878 589.372 259.402 590.507 259.402C591.593 259.402 592.531 258.878 592.531 258.245V255.876Z" fill="#AEAEAE"/>
<rect x="60" y="306" width="960" height="66" rx="1.71697" fill="url(#paint0_linear_23746_2124)"/>
<rect x="60" y="306" width="960" height="66" rx="1.71697" fill="black" fill-opacity="0.04"/>
</g>
<defs>
<linearGradient id="paint0_linear_23746_2124" x1="60" y1="405" x2="1020" y2="405" gradientUnits="userSpaceOnUse">
<stop stop-color="#EFEFEF"/>
<stop offset="0.0109096" stop-color="#F7F7F7"/>
<stop offset="0.0304408" stop-color="#ECEBEB"/>
<stop offset="0.977518" stop-color="#ECEBEB"/>
<stop offset="0.990534" stop-color="#F7F7F7"/>
<stop offset="1" stop-color="#EFEFEF"/>
</linearGradient>
<clipPath id="clip0_23746_2124">
<rect width="1080" height="576" fill="white"/>
</clipPath>
</defs>
</svg>
