<svg width="180" height="96" viewBox="0 0 180 96" fill="none" xmlns="http://www.w3.org/2000/svg">
<g clip-path="url(#clip0_23746_2132)">
<path fill-rule="evenodd" clip-rule="evenodd" d="M19.0569 56.2286V87.7715C19.0569 89.2855 20.2838 90.5143 21.7955 90.5143V91.8857H17.6876L16.3184 90.5143V54.8572L19.0569 56.2286Z" fill="url(#paint0_linear_23746_2132)"/>
<path fill-rule="evenodd" clip-rule="evenodd" d="M159.866 56.2286V87.7715C159.866 89.2855 158.639 90.5143 157.127 90.5143V91.8857H161.235L162.604 90.5143V54.8572L159.866 56.2286Z" fill="url(#paint1_linear_23746_2132)"/>
<path fill-rule="evenodd" clip-rule="evenodd" d="M162.222 87.3713C162.222 88.8706 160.978 90.085 159.444 90.085H20.5556C19.0222 90.085 17.7778 88.8706 17.7778 87.3713V50.1321C16.125 51.0724 15 52.8038 15 54.8065V87.3713C15 90.3686 17.4875 92.7987 20.5556 92.7987H159.444C162.512 92.7987 165 90.3686 165 87.3713V54.8065C165 52.8038 163.875 51.0724 162.222 50.1321V87.3713Z" fill="url(#paint2_linear_23746_2132)"/>
<path fill-rule="evenodd" clip-rule="evenodd" d="M20.4277 96V94.6286L23.1663 91.8857H27.2742V93.2572L24.5356 96H20.4277Z" fill="url(#paint3_radial_23746_2132)"/>
<path fill-rule="evenodd" clip-rule="evenodd" d="M24.9368 94.2268C24.6807 94.4832 24.3316 94.6286 23.9687 94.6286H20.4277V96H23.9687C24.3316 96 24.6807 95.8547 24.9368 95.5982L27.2742 93.2572V91.8857L24.9368 94.2268Z" fill="#D3D3D3"/>
<path fill-rule="evenodd" clip-rule="evenodd" d="M157.356 96V94.6286L154.618 91.8857H150.51V93.2572L153.248 96H157.356Z" fill="url(#paint4_radial_23746_2132)"/>
<path fill-rule="evenodd" clip-rule="evenodd" d="M152.847 94.2268C153.103 94.4832 153.452 94.6286 153.815 94.6286H157.356V96H153.815C153.452 96 153.103 95.8547 152.847 95.5982L150.51 93.2572V91.8857L152.847 94.2268Z" fill="#D3D3D3"/>
<path fill-rule="evenodd" clip-rule="evenodd" d="M17.7778 0C16.2444 0 15 1.2288 15 2.74286V53.4857C15 54.9998 16.2444 56.2286 17.7778 56.2286H162.222C163.756 56.2286 165 54.9998 165 53.4857V2.74286C165 1.2288 163.756 0 162.222 0H17.7778Z" fill="#E0E0E0"/>
<path fill-rule="evenodd" clip-rule="evenodd" d="M89.3477 55.0817H89.4789V54.5013H89.3477V55.0817ZM90.5393 54.6681C90.5346 54.6663 90.4919 54.6364 90.4287 54.6364C90.3433 54.6364 90.2848 54.7033 90.2848 54.793C90.2848 54.8792 90.3417 54.9478 90.4287 54.9478C90.4903 54.9478 90.5346 54.9196 90.5393 54.9161V55.0709C90.5235 55.0779 90.4777 55.092 90.4192 55.092C90.2722 55.092 90.1426 54.9777 90.1426 54.793C90.1426 54.6188 90.2595 54.4922 90.4192 54.4922C90.4808 54.4922 90.5267 54.508 90.5393 54.5133V54.6681ZM89.1663 54.6681C89.1615 54.6663 89.1188 54.6364 89.0556 54.6364C88.9703 54.6364 88.9118 54.7033 88.9118 54.793C88.9118 54.8792 88.9687 54.9478 89.0556 54.9478C89.1173 54.9478 89.1615 54.9196 89.1663 54.9161V55.0709C89.1505 55.0779 89.1062 55.092 89.0477 55.092C88.8991 55.092 88.7695 54.9777 88.7695 54.793C88.7695 54.6188 88.8865 54.4922 89.0477 54.4922C89.1094 54.4922 89.1552 54.508 89.1663 54.5133V54.6681ZM90.9543 54.6389C90.8768 54.6389 90.8184 54.7093 90.8184 54.7919C90.8184 54.8764 90.8768 54.945 90.9543 54.945C91.0333 54.945 91.0902 54.8764 91.0902 54.7919C91.0902 54.7093 91.0333 54.6389 90.9543 54.6389ZM91.2294 54.7917C91.2294 54.957 91.114 55.0925 90.9528 55.0925C90.7931 55.0925 90.6777 54.957 90.6777 54.7917C90.6777 54.6264 90.7931 54.4927 90.9528 54.4927C91.114 54.4927 91.2294 54.6264 91.2294 54.7917ZM89.9783 54.6337C89.9767 54.6337 89.9214 54.6161 89.8756 54.6161C89.8218 54.6161 89.7934 54.6354 89.7934 54.6636C89.7934 54.6988 89.8329 54.7111 89.855 54.7181L89.8898 54.7322C89.9767 54.7621 90.0147 54.8272 90.0147 54.8975C90.0147 55.0435 89.9009 55.0928 89.7997 55.0928C89.7286 55.0928 89.6638 55.077 89.6559 55.0752V54.9433C89.6685 54.9468 89.7238 54.9644 89.7807 54.9644C89.8471 54.9644 89.8772 54.9433 89.8772 54.9098C89.8772 54.8817 89.8503 54.8641 89.8171 54.8536C89.8108 54.85 89.7981 54.8465 89.7902 54.843C89.7159 54.8166 89.6543 54.7691 89.6543 54.6724C89.6543 54.5651 89.7286 54.4912 89.8503 54.4912C89.9135 54.4912 89.9736 54.5088 89.9783 54.5106V54.6337ZM88.6312 53.8788C88.6312 53.8383 88.5996 53.8067 88.5648 53.8067C88.5285 53.8067 88.5 53.8383 88.5 53.8788V54.0301C88.5 54.0705 88.5285 54.1039 88.5648 54.1039C88.5996 54.1039 88.6312 54.0705 88.6312 54.0301V53.8788ZM88.9886 53.6786C88.9886 53.6399 88.9586 53.6064 88.9222 53.6064C88.8875 53.6064 88.8574 53.6399 88.8574 53.6786V54.0304C88.8574 54.0708 88.8875 54.1042 88.9222 54.1042C88.9586 54.1042 88.9886 54.0708 88.9886 54.0304V53.6786ZM89.3481 53.4054C89.3481 53.3649 89.3181 53.3333 89.2818 53.3333C89.247 53.3333 89.2169 53.3649 89.2169 53.4054V54.1758C89.2169 54.2145 89.247 54.2479 89.2818 54.2479C89.3181 54.2479 89.3481 54.2145 89.3481 54.1758V53.4054ZM89.7054 53.6786C89.7054 53.6399 89.6754 53.6064 89.6406 53.6064C89.6043 53.6064 89.5742 53.6399 89.5742 53.6786V54.0304C89.5742 54.0708 89.6043 54.1042 89.6406 54.1042C89.6754 54.1042 89.7054 54.0708 89.7054 54.0304V53.6786ZM90.0648 53.8788C90.0648 53.8383 90.0348 53.8066 89.9984 53.8066C89.9636 53.8066 89.9336 53.8383 89.9336 53.8788V54.03C89.9336 54.0705 89.9636 54.1039 89.9984 54.1039C90.0348 54.1039 90.0648 54.0705 90.0648 54.03V53.8788ZM90.4242 53.6786C90.4242 53.6399 90.3941 53.6064 90.3578 53.6064C90.323 53.6064 90.293 53.6399 90.293 53.6786V54.0304C90.293 54.0708 90.323 54.1042 90.3578 54.1042C90.3941 54.1042 90.4242 54.0708 90.4242 54.0304V53.6786ZM90.7816 53.4054C90.7816 53.3649 90.7531 53.3333 90.7168 53.3333C90.6804 53.3333 90.6504 53.3649 90.6504 53.4054V54.1758C90.6504 54.2145 90.6804 54.2479 90.7168 54.2479C90.7531 54.2479 90.7816 54.2145 90.7816 54.1758V53.4054ZM91.141 53.6786C91.141 53.6399 91.1109 53.6064 91.0746 53.6064C91.0382 53.6064 91.0098 53.6399 91.0098 53.6786V54.0304C91.0098 54.0708 91.0382 54.1042 91.0746 54.1042C91.1109 54.1042 91.141 54.0708 91.141 54.0304V53.6786ZM91.5003 53.8788C91.5003 53.8383 91.4703 53.8066 91.4355 53.8066C91.3992 53.8066 91.3691 53.8383 91.3691 53.8788V54.03C91.3691 54.0705 91.3992 54.1039 91.4355 54.1039C91.4703 54.1039 91.5003 54.0705 91.5003 54.03V53.8788Z" fill="#908E8E"/>
<path fill-rule="evenodd" clip-rule="evenodd" d="M17.6923 52H88.3077C88.6898 52 89 51.691 89 51.3103V12.6897C89 12.309 88.6898 12 88.3077 12H17.6923C17.3102 12 17 12.309 17 12.6897V51.3103C17 51.691 17.3102 52 17.6923 52ZM91.6923 52H162.308C162.69 52 163 51.691 163 51.3103V12.6897C163 12.309 162.69 12 162.308 12H91.6923C91.3102 12 91 12.309 91 12.6897V51.3103C91 51.691 91.3102 52 91.6923 52Z" fill="#222222"/>
<path fill-rule="evenodd" clip-rule="evenodd" d="M17.6923 52H88.3077C88.6898 52 89 51.691 89 51.3103V12.6897C89 12.309 88.6898 12 88.3077 12H17.6923C17.3102 12 17 12.309 17 12.6897V51.3103C17 51.691 17.3102 52 17.6923 52ZM91.6923 52H162.308C162.69 52 163 51.691 163 51.3103V12.6897C163 12.309 162.69 12 162.308 12H91.6923C91.3102 12 91 12.309 91 12.6897V51.3103C91 51.691 91.3102 52 91.6923 52Z" fill="url(#paint5_linear_23746_2132)"/>
<rect x="85" y="4" width="10" height="4" rx="2" fill="url(#paint6_linear_23746_2132)"/>
<rect x="85.75" y="4.75" width="5" height="2.5" rx="1.25" fill="#232323"/>
<circle cx="87" cy="6" r="0.75" fill="#494E5C"/>
<rect x="91.75" y="4.75" width="2.5" height="2.5" rx="1.25" fill="#232323"/>
<circle cx="93" cy="6" r="0.75" fill="#494E5C"/>
</g>
<defs>
<linearGradient id="paint0_linear_23746_2132" x1="16.3202" y1="54.8572" x2="16.3202" y2="91.8607" gradientUnits="userSpaceOnUse">
<stop stop-color="#B1B1B1"/>
<stop offset="0.278382" stop-color="#C9C9C9"/>
<stop offset="0.514141" stop-color="#D6D6D6"/>
<stop offset="0.743587" stop-color="#C9C9C9"/>
<stop offset="0.953577" stop-color="#ECECEC"/>
<stop offset="0.999932" stop-color="#B1B1B1"/>
</linearGradient>
<linearGradient id="paint1_linear_23746_2132" x1="157.129" y1="54.8572" x2="157.129" y2="91.8607" gradientUnits="userSpaceOnUse">
<stop stop-color="#B1B1B1"/>
<stop offset="0.278382" stop-color="#C9C9C9"/>
<stop offset="0.514141" stop-color="#D6D6D6"/>
<stop offset="0.743587" stop-color="#C9C9C9"/>
<stop offset="0.953577" stop-color="#ECECEC"/>
<stop offset="0.999932" stop-color="#B1B1B1"/>
</linearGradient>
<linearGradient id="paint2_linear_23746_2132" x1="15.0203" y1="50.1321" x2="15.0203" y2="92.7872" gradientUnits="userSpaceOnUse">
<stop stop-color="#CFCFCF"/>
<stop offset="0.470308" stop-color="#F1F1F1"/>
<stop offset="0.999932" stop-color="#D9D9D9"/>
</linearGradient>
<radialGradient id="paint3_radial_23746_2132" cx="0" cy="0" r="1" gradientUnits="userSpaceOnUse" gradientTransform="translate(24.7256 100.341) rotate(24.0092) scale(5.05586 3.92811)">
<stop stop-color="#9C9C9C"/>
<stop offset="0.528236" stop-color="#E8E8E8"/>
<stop offset="1" stop-color="#E8E8E8"/>
</radialGradient>
<radialGradient id="paint4_radial_23746_2132" cx="0" cy="0" r="1" gradientUnits="userSpaceOnUse" gradientTransform="translate(154.808 100.341) rotate(24.0092) scale(5.05586 3.92811)">
<stop stop-color="#9C9C9C"/>
<stop offset="0.528236" stop-color="#E8E8E8"/>
<stop offset="1" stop-color="#E8E8E8"/>
</radialGradient>
<linearGradient id="paint5_linear_23746_2132" x1="-75.2208" y1="-12.7483" x2="-71.3283" y2="67.61" gradientUnits="userSpaceOnUse">
<stop stop-color="white" stop-opacity="0.24"/>
<stop offset="1" stop-opacity="0.5"/>
</linearGradient>
<linearGradient id="paint6_linear_23746_2132" x1="85.3646" y1="4.14477" x2="85.3646" y2="7.85305" gradientUnits="userSpaceOnUse">
<stop stop-color="#333333"/>
<stop offset="1" stop-color="#3E3E3E"/>
</linearGradient>
<clipPath id="clip0_23746_2132">
<rect width="180" height="96" fill="white"/>
</clipPath>
</defs>
</svg>
