<svg width="180" height="96" viewBox="0 0 180 96" fill="none" xmlns="http://www.w3.org/2000/svg">
<g clip-path="url(#clip0_23745_11707)">
<path fill-rule="evenodd" clip-rule="evenodd" d="M12.9629 77.2222C12.9629 76.6699 13.4106 76.2222 13.9629 76.2222H166.037C166.589 76.2222 167.037 76.6699 167.037 77.2222V81.1039C167.037 81.6732 166.593 82.129 166.024 82.1049C158.701 81.7955 113.48 79.9258 89.9999 79.9258C66.5203 79.9258 21.2992 81.7955 13.9758 82.1049C13.4071 82.129 12.9629 81.6732 12.9629 81.1039V77.2222Z" fill="black"/>
<path fill-rule="evenodd" clip-rule="evenodd" d="M10 18.0146C10 15.784 11.8011 13.9839 14.0315 14.0131C27.0288 14.1834 68.2446 14.7001 90 14.7001C111.755 14.7001 152.971 14.1834 165.968 14.0131C168.199 13.9839 170 15.784 170 18.0146V76.4577C170 78.7315 168.134 80.5497 165.862 80.4604C152.753 79.945 111.731 78.4037 90 78.4037C68.2689 78.4037 27.2473 79.945 14.1383 80.4604C11.8663 80.5497 10 78.7315 10 76.4577V18.0146Z" fill="#E0E0E0"/>
<g filter="url(#filter0_iiii_23745_11707)">
<path fill-rule="evenodd" clip-rule="evenodd" d="M10 18.0146C10 15.784 11.8011 13.9839 14.0315 14.0131C27.0288 14.1834 68.2446 14.7001 90 14.7001C111.755 14.7001 152.971 14.1834 165.968 14.0131C168.199 13.9839 170 15.784 170 18.0146V76.4577C170 78.7315 168.134 80.5497 165.862 80.4604C152.753 79.945 111.731 78.4037 90 78.4037C68.2689 78.4037 27.2473 79.945 14.1383 80.4604C11.8663 80.5497 10 78.7315 10 76.4577V18.0146Z" fill="url(#paint0_linear_23745_11707)"/>
</g>
<mask id="mask0_23745_11707" style="mask-type:luminance" maskUnits="userSpaceOnUse" x="10" y="14" width="160" height="67">
<path fill-rule="evenodd" clip-rule="evenodd" d="M10 18.0147C10 15.784 11.8013 13.9837 14.0319 14.0132C27.0297 14.1848 68.2448 14.7053 90 14.7053C111.755 14.7053 152.97 14.1848 165.968 14.0132C168.199 13.9837 170 15.784 170 18.0147V76.9551C170 79.2293 168.133 81.0478 165.86 80.9578C152.75 80.4385 111.73 78.8858 90 78.8858C68.2696 78.8858 27.2498 80.4385 14.1395 80.9578C11.867 81.0478 10 79.2293 10 76.9551V18.0147Z" fill="white"/>
</mask>
<g mask="url(#mask0_23745_11707)">
<rect x="10" y="49.5557" width="53.3333" height="32.5926" fill="url(#paint1_linear_23745_11707)"/>
<g filter="url(#filter1_ii_23745_11707)">
<rect x="63.334" y="49.5557" width="53.3333" height="32.5926" fill="url(#paint2_linear_23745_11707)"/>
</g>
<rect x="116.666" y="49.5557" width="53.3333" height="32.5926" fill="url(#paint3_linear_23745_11707)"/>
<g filter="url(#filter2_d_23745_11707)">
<path fill-rule="evenodd" clip-rule="evenodd" d="M10 29.1109C10 26.9017 11.7909 25.1109 14 25.1109H166C168.209 25.1109 170 26.9017 170 29.1109V53.4884C170 55.7696 168.113 57.5905 165.834 57.4904C155.737 57.0471 129.805 55.9566 116.379 55.8358C107.636 55.7572 98.743 55.8384 90 55.8384C81.162 55.8384 72.4744 55.758 63.6364 55.8384C50.2807 55.9598 24.2785 57.0492 14.165 57.4913C11.8862 57.5909 10 55.7702 10 53.4893V29.1109Z" fill="black"/>
</g>
<path fill-rule="evenodd" clip-rule="evenodd" d="M11.4805 25.1113H62.5916V53.0288C62.5916 53.5698 62.1613 54.0127 61.6206 54.0284L12.5094 55.4519C11.946 55.4682 11.4805 55.0159 11.4805 54.4523V25.1113ZM64.4064 25.1114H115.518V53.0003C115.518 53.5525 115.07 54.0003 114.518 54.0003H65.4064C64.8541 54.0003 64.4064 53.5525 64.4064 53.0003V25.1114ZM168.111 25.1113H117V53.0288C117 53.5698 117.43 54.0127 117.971 54.0284L167.082 55.4519C167.646 55.4682 168.111 55.0159 168.111 54.4523V25.1113Z" fill="#222222"/>
<path fill-rule="evenodd" clip-rule="evenodd" d="M11.4805 25.1113H62.5916V53.0288C62.5916 53.5698 62.1613 54.0127 61.6206 54.0284L12.5094 55.4519C11.946 55.4682 11.4805 55.0159 11.4805 54.4523V25.1113ZM64.4064 25.1114H115.518V53.0003C115.518 53.5525 115.07 54.0003 114.518 54.0003H65.4064C64.8541 54.0003 64.4064 53.5525 64.4064 53.0003V25.1114ZM168.111 25.1113H117V53.0288C117 53.5698 117.43 54.0127 117.971 54.0284L167.082 55.4519C167.646 55.4682 168.111 55.0159 168.111 54.4523V25.1113Z" fill="url(#paint4_linear_23745_11707)"/>
</g>
<path fill-rule="evenodd" clip-rule="evenodd" d="M11.4805 18.5241C11.4805 16.849 12.8225 15.4978 14.4974 15.5228C26.0729 15.6958 68.0901 16.3003 89.999 16.3003C111.908 16.3003 153.925 15.6958 165.501 15.5228C167.175 15.4978 168.518 16.849 168.518 18.5241V22.1621C168.518 22.1621 115.609 22.6554 89.999 22.6554C64.3887 22.6554 11.4805 22.1621 11.4805 22.1621V18.5241Z" fill="#EEEEEE"/>
<rect x="86.7871" y="23.3794" width="3.46296" height="1.24074" rx="0.62037" fill="black" stroke="#BABABA" stroke-width="0.5"/>
</g>
<defs>
<filter id="filter0_iiii_23745_11707" x="10" y="14.0127" width="160" height="66.4507" filterUnits="userSpaceOnUse" color-interpolation-filters="sRGB">
<feFlood flood-opacity="0" result="BackgroundImageFix"/>
<feBlend mode="normal" in="SourceGraphic" in2="BackgroundImageFix" result="shape"/>
<feColorMatrix in="SourceAlpha" type="matrix" values="0 0 0 0 0 0 0 0 0 0 0 0 0 0 0 0 0 0 127 0" result="hardAlpha"/>
<feOffset dy="-0.25"/>
<feComposite in2="hardAlpha" operator="arithmetic" k2="-1" k3="1"/>
<feColorMatrix type="matrix" values="0 0 0 0 0 0 0 0 0 0 0 0 0 0 0 0 0 0 0.04 0"/>
<feBlend mode="normal" in2="shape" result="effect1_innerShadow_23745_11707"/>
<feColorMatrix in="SourceAlpha" type="matrix" values="0 0 0 0 0 0 0 0 0 0 0 0 0 0 0 0 0 0 127 0" result="hardAlpha"/>
<feOffset dx="-0.25"/>
<feComposite in2="hardAlpha" operator="arithmetic" k2="-1" k3="1"/>
<feColorMatrix type="matrix" values="0 0 0 0 0 0 0 0 0 0 0 0 0 0 0 0 0 0 0.04 0"/>
<feBlend mode="normal" in2="effect1_innerShadow_23745_11707" result="effect2_innerShadow_23745_11707"/>
<feColorMatrix in="SourceAlpha" type="matrix" values="0 0 0 0 0 0 0 0 0 0 0 0 0 0 0 0 0 0 127 0" result="hardAlpha"/>
<feOffset dx="0.25"/>
<feComposite in2="hardAlpha" operator="arithmetic" k2="-1" k3="1"/>
<feColorMatrix type="matrix" values="0 0 0 0 0 0 0 0 0 0 0 0 0 0 0 0 0 0 0.04 0"/>
<feBlend mode="normal" in2="effect2_innerShadow_23745_11707" result="effect3_innerShadow_23745_11707"/>
<feColorMatrix in="SourceAlpha" type="matrix" values="0 0 0 0 0 0 0 0 0 0 0 0 0 0 0 0 0 0 127 0" result="hardAlpha"/>
<feOffset dy="0.25"/>
<feComposite in2="hardAlpha" operator="arithmetic" k2="-1" k3="1"/>
<feColorMatrix type="matrix" values="0 0 0 0 1 0 0 0 0 1 0 0 0 0 1 0 0 0 0.24 0"/>
<feBlend mode="normal" in2="effect3_innerShadow_23745_11707" result="effect4_innerShadow_23745_11707"/>
</filter>
<filter id="filter1_ii_23745_11707" x="63.334" y="49.5557" width="53.334" height="32.5928" filterUnits="userSpaceOnUse" color-interpolation-filters="sRGB">
<feFlood flood-opacity="0" result="BackgroundImageFix"/>
<feBlend mode="normal" in="SourceGraphic" in2="BackgroundImageFix" result="shape"/>
<feColorMatrix in="SourceAlpha" type="matrix" values="0 0 0 0 0 0 0 0 0 0 0 0 0 0 0 0 0 0 127 0" result="hardAlpha"/>
<feOffset dx="-0.5"/>
<feComposite in2="hardAlpha" operator="arithmetic" k2="-1" k3="1"/>
<feColorMatrix type="matrix" values="0 0 0 0 1 0 0 0 0 1 0 0 0 0 1 0 0 0 0.08 0"/>
<feBlend mode="normal" in2="shape" result="effect1_innerShadow_23745_11707"/>
<feColorMatrix in="SourceAlpha" type="matrix" values="0 0 0 0 0 0 0 0 0 0 0 0 0 0 0 0 0 0 127 0" result="hardAlpha"/>
<feOffset dx="0.5"/>
<feComposite in2="hardAlpha" operator="arithmetic" k2="-1" k3="1"/>
<feColorMatrix type="matrix" values="0 0 0 0 1 0 0 0 0 1 0 0 0 0 1 0 0 0 0.08 0"/>
<feBlend mode="normal" in2="effect1_innerShadow_23745_11707" result="effect2_innerShadow_23745_11707"/>
</filter>
<filter id="filter2_d_23745_11707" x="10" y="24.8608" width="160" height="32.6343" filterUnits="userSpaceOnUse" color-interpolation-filters="sRGB">
<feFlood flood-opacity="0" result="BackgroundImageFix"/>
<feColorMatrix in="SourceAlpha" type="matrix" values="0 0 0 0 0 0 0 0 0 0 0 0 0 0 0 0 0 0 127 0" result="hardAlpha"/>
<feOffset dy="-0.25"/>
<feColorMatrix type="matrix" values="0 0 0 0 0 0 0 0 0 0 0 0 0 0 0 0 0 0 0.08 0"/>
<feBlend mode="normal" in2="BackgroundImageFix" result="effect1_dropShadow_23745_11707"/>
<feBlend mode="normal" in="SourceGraphic" in2="effect1_dropShadow_23745_11707" result="shape"/>
</filter>
<linearGradient id="paint0_linear_23745_11707" x1="77.4447" y1="67.8231" x2="77.4447" y2="78.26" gradientUnits="userSpaceOnUse">
<stop stop-opacity="0.01"/>
<stop offset="1" stop-opacity="0.04"/>
</linearGradient>
<linearGradient id="paint1_linear_23745_11707" x1="60.1065" y1="49.5557" x2="8.03391" y2="59.8665" gradientUnits="userSpaceOnUse">
<stop stop-opacity="0.01"/>
<stop offset="1" stop-opacity="0.01"/>
</linearGradient>
<linearGradient id="paint2_linear_23745_11707" x1="116.667" y1="49.5557" x2="63.334" y2="49.5557" gradientUnits="userSpaceOnUse">
<stop stop-opacity="0.02"/>
<stop offset="0.490709" stop-opacity="0.01"/>
<stop offset="1" stop-opacity="0.02"/>
</linearGradient>
<linearGradient id="paint3_linear_23745_11707" x1="114.664" y1="82.1483" x2="167.501" y2="88.6381" gradientUnits="userSpaceOnUse">
<stop stop-opacity="0.01"/>
<stop offset="1" stop-opacity="0.01"/>
</linearGradient>
<linearGradient id="paint4_linear_23745_11707" x1="-87.4552" y1="5.96974" x2="-85.3411" y2="67.3448" gradientUnits="userSpaceOnUse">
<stop stop-color="white" stop-opacity="0.24"/>
<stop offset="1" stop-opacity="0.5"/>
</linearGradient>
<clipPath id="clip0_23745_11707">
<rect width="180" height="96" fill="white"/>
</clipPath>
</defs>
</svg>
