<svg width="1080" height="576" viewBox="0 0 1080 576" fill="none" xmlns="http://www.w3.org/2000/svg">
<g clip-path="url(#clip0_23745_11698)">
<mask id="path-1-inside-1_23745_11698" fill="white">
<path d="M936 114C939.313 114 942 116.687 942 120V456C942 459.314 939.314 462 936 462H144C140.686 462 138 459.314 138 456V120C138 116.686 140.686 114 144 114H936ZM417.535 264.801C409.052 264.801 402.176 271.678 402.176 280.161V411.841C402.176 420.324 409.052 427.201 417.535 427.201H662.473C670.956 427.201 677.833 420.324 677.833 411.841V280.161C677.833 271.678 670.956 264.801 662.473 264.801H417.535Z"/>
</mask>
<path d="M936 114C939.313 114 942 116.687 942 120V456C942 459.314 939.314 462 936 462H144C140.686 462 138 459.314 138 456V120C138 116.686 140.686 114 144 114H936ZM417.535 264.801C409.052 264.801 402.176 271.678 402.176 280.161V411.841C402.176 420.324 409.052 427.201 417.535 427.201H662.473C670.956 427.201 677.833 420.324 677.833 411.841V280.161C677.833 271.678 670.956 264.801 662.473 264.801H417.535Z" fill="url(#paint0_linear_23745_11698)"/>
<path d="M936 114L936 113.5H936V114ZM942 120H942.5V120L942 120ZM936 462V462.5H936L936 462ZM138 120L137.5 120V120H138ZM417.535 264.801V264.301V264.801ZM417.535 427.201V427.701V427.201ZM936 114L936 114.5C939.037 114.5 941.5 116.963 941.5 120L942 120L942.5 120C942.5 116.41 939.59 113.5 936 113.5L936 114ZM942 120H941.5V456H942H942.5V120H942ZM942 456H941.5C941.5 459.037 939.037 461.5 936 461.5L936 462L936 462.5C939.59 462.5 942.5 459.59 942.5 456H942ZM936 462V461.5H144V462V462.5H936V462ZM144 462V461.5C140.962 461.5 138.5 459.038 138.5 456H138H137.5C137.5 459.59 140.41 462.5 144 462.5V462ZM138 456H138.5V120H138H137.5V456H138ZM138 120L138.5 120C138.5 116.963 140.963 114.5 144 114.5V114V113.5C140.41 113.5 137.5 116.41 137.5 120L138 120ZM144 114V114.5H936V114V113.5H144V114ZM417.535 264.801V264.301C408.776 264.301 401.676 271.402 401.676 280.161H402.176H402.676C402.676 271.954 409.328 265.301 417.535 265.301V264.801ZM402.176 280.161H401.676V411.841H402.176H402.676V280.161H402.176ZM402.176 411.841H401.676C401.676 420.6 408.776 427.701 417.535 427.701V427.201V426.701C409.328 426.701 402.676 420.048 402.676 411.841H402.176ZM417.535 427.201V427.701H662.473V427.201V426.701H417.535V427.201ZM662.473 427.201V427.701C671.232 427.701 678.333 420.6 678.333 411.841H677.833H677.333C677.333 420.048 670.68 426.701 662.473 426.701V427.201ZM677.833 411.841H678.333V280.161H677.833H677.333V411.841H677.833ZM677.833 280.161H678.333C678.333 271.402 671.232 264.301 662.473 264.301V264.801V265.301C670.68 265.301 677.333 271.954 677.333 280.161H677.833ZM662.473 264.801V264.301H417.535V264.801V265.301H662.473V264.801Z" fill="black" fill-opacity="0.4" mask="url(#path-1-inside-1_23745_11698)"/>
<path fill-rule="evenodd" clip-rule="evenodd" d="M482.566 253.201H597.424V357.601H482.566V253.201Z" fill="#323232"/>
<path d="M597.674 252.951V357.852H482.316V252.951H597.674Z" stroke="white" stroke-opacity="0.8" stroke-width="0.5"/>
<g filter="url(#filter0_i_23745_11698)">
<rect x="391.651" y="254.161" width="296.709" height="183.68" rx="14.4" stroke="url(#paint1_linear_23745_11698)" stroke-width="1.92"/>
<rect x="391.651" y="254.161" width="296.709" height="183.68" rx="14.4" stroke="white" stroke-opacity="0.8" stroke-width="1.92"/>
</g>
<g filter="url(#filter1_d_23745_11698)">
<ellipse cx="539.996" cy="357.6" rx="68.9143" ry="69.6" fill="#323232"/>
<path d="M539.996 287.75C578.197 287.75 609.16 319.025 609.16 357.6C609.16 396.174 578.197 427.45 539.996 427.45C501.795 427.45 470.832 396.174 470.832 357.6C470.832 319.025 501.796 287.75 539.996 287.75Z" stroke="white" stroke-opacity="0.6" stroke-width="0.5"/>
</g>
<ellipse cx="540.005" cy="357.601" rx="45.9429" ry="46.4" fill="#00222C"/>
<path d="M540.005 311.451C565.238 311.451 585.698 332.111 585.698 357.602C585.698 383.092 565.238 403.751 540.005 403.751C514.772 403.751 494.313 383.092 494.312 357.602C494.312 332.111 514.772 311.451 540.005 311.451Z" stroke="white" stroke-opacity="0.16" stroke-width="0.5"/>
<ellipse cx="540.003" cy="357.6" rx="22.9714" ry="23.2" fill="black"/>
<path d="M540.003 334.15C552.83 334.151 563.224 344.652 563.224 357.601C563.224 370.549 552.83 381.051 540.003 381.051C527.176 381.051 516.781 370.549 516.781 357.601C516.781 344.652 527.176 334.15 540.003 334.15Z" stroke="white" stroke-opacity="0.230525" stroke-width="0.5"/>
<ellipse cx="884.569" cy="404.001" rx="22.9714" ry="23.2" fill="black" fill-opacity="0.08"/>
<ellipse cx="884.568" cy="404.002" rx="11.4857" ry="11.6" fill="black" fill-opacity="0.08"/>
<path d="M884.567 392.152C891.051 392.152 896.304 397.46 896.304 404.002C896.304 410.544 891.051 415.853 884.567 415.853C878.084 415.852 872.832 410.544 872.832 404.002C872.832 397.46 878.084 392.153 884.567 392.152Z" stroke="white" stroke-opacity="0.4" stroke-width="0.5"/>
<path fill-rule="evenodd" clip-rule="evenodd" d="M524.705 206.508H528.263V191.2H524.705V206.508ZM557.026 195.599C556.898 195.552 555.74 194.764 554.026 194.764C551.711 194.764 550.125 196.526 550.125 198.892C550.125 201.165 551.668 202.974 554.026 202.974C555.697 202.974 556.898 202.232 557.026 202.139V206.221C556.597 206.406 555.354 206.778 553.768 206.778C549.782 206.778 546.267 203.762 546.267 198.892C546.267 194.3 549.439 190.96 553.768 190.96C555.44 190.96 556.683 191.377 557.026 191.517V195.599ZM519.798 195.599C519.669 195.552 518.512 194.764 516.797 194.764C514.483 194.764 512.897 196.526 512.897 198.892C512.897 201.165 514.44 202.974 516.797 202.974C518.469 202.974 519.669 202.232 519.798 202.139V206.221C519.369 206.406 518.169 206.778 516.583 206.778C512.554 206.778 509.039 203.762 509.039 198.892C509.039 194.3 512.211 190.96 516.583 190.96C518.255 190.96 519.498 191.377 519.798 191.517V195.599ZM568.247 194.827C566.147 194.827 564.561 196.683 564.561 198.863C564.561 201.089 566.147 202.898 568.247 202.898C570.39 202.898 571.933 201.089 571.933 198.863C571.933 196.683 570.39 194.827 568.247 194.827ZM575.758 198.865C575.758 203.225 572.629 206.797 568.257 206.797C563.928 206.797 560.799 203.225 560.799 198.865C560.799 194.504 563.928 190.979 568.257 190.979C572.629 190.979 575.758 194.504 575.758 198.865ZM541.813 194.694C541.77 194.694 540.27 194.23 539.027 194.23C537.569 194.23 536.798 194.74 536.798 195.483C536.798 196.41 537.869 196.735 538.469 196.921L539.412 197.292C541.77 198.08 542.799 199.796 542.799 201.652C542.799 205.502 539.712 206.801 536.969 206.801C535.04 206.801 533.283 206.383 533.068 206.337V202.858C533.411 202.951 534.912 203.415 536.455 203.415C538.255 203.415 539.069 202.858 539.069 201.977C539.069 201.234 538.341 200.771 537.441 200.492C537.269 200.399 536.926 200.307 536.712 200.214C534.697 199.518 533.026 198.266 533.026 195.714C533.026 192.885 535.04 190.937 538.341 190.937C540.055 190.937 541.684 191.401 541.813 191.447V194.694ZM505.271 174.784C505.271 173.717 504.413 172.882 503.47 172.882C502.484 172.882 501.713 173.717 501.713 174.784V178.773C501.713 179.84 502.484 180.721 503.47 180.721C504.413 180.721 505.271 179.84 505.271 178.773V174.784ZM514.985 169.506C514.985 168.485 514.171 167.604 513.185 167.604C512.242 167.604 511.428 168.485 511.428 169.506V178.783C511.428 179.85 512.242 180.731 513.185 180.731C514.171 180.731 514.985 179.85 514.985 178.783V169.506ZM524.712 162.302C524.712 161.235 523.897 160.4 522.911 160.4C521.968 160.4 521.154 161.235 521.154 162.302V182.619C521.154 183.64 521.968 184.521 522.911 184.521C523.897 184.521 524.712 183.64 524.712 182.619V162.302ZM534.427 169.506C534.427 168.485 533.613 167.604 532.67 167.604C531.684 167.604 530.87 168.485 530.87 169.506V178.783C530.87 179.85 531.684 180.731 532.67 180.731C533.613 180.731 534.427 179.85 534.427 178.783V169.506ZM544.154 174.786C544.154 173.719 543.339 172.884 542.354 172.884C541.41 172.884 540.596 173.719 540.596 174.786V178.775C540.596 179.842 541.41 180.723 542.354 180.723C543.339 180.723 544.154 179.842 544.154 178.775V174.786ZM553.869 169.506C553.869 168.485 553.054 167.604 552.068 167.604C551.125 167.604 550.311 168.485 550.311 169.506V178.783C550.311 179.85 551.125 180.731 552.068 180.731C553.054 180.731 553.869 179.85 553.869 178.783V169.506ZM563.605 162.302C563.605 161.235 562.834 160.4 561.848 160.4C560.862 160.4 560.048 161.235 560.048 162.302V182.619C560.048 183.64 560.862 184.521 561.848 184.521C562.834 184.521 563.605 183.64 563.605 182.619V162.302ZM573.357 169.506C573.357 168.485 572.543 167.604 571.557 167.604C570.571 167.604 569.799 168.485 569.799 169.506V178.783C569.799 179.85 570.571 180.731 571.557 180.731C572.543 180.731 573.357 179.85 573.357 178.783V169.506ZM583.07 174.784C583.07 173.717 582.255 172.882 581.312 172.882C580.326 172.882 579.512 173.717 579.512 174.784V178.773C579.512 179.84 580.326 180.721 581.312 180.721C582.255 180.721 583.07 179.84 583.07 178.773V174.784Z" fill="#908E8E"/>
</g>
<defs>
<filter id="filter0_i_23745_11698" x="390.691" y="253.201" width="298.629" height="185.6" filterUnits="userSpaceOnUse" color-interpolation-filters="sRGB">
<feFlood flood-opacity="0" result="BackgroundImageFix"/>
<feBlend mode="normal" in="SourceGraphic" in2="BackgroundImageFix" result="shape"/>
<feColorMatrix in="SourceAlpha" type="matrix" values="0 0 0 0 0 0 0 0 0 0 0 0 0 0 0 0 0 0 127 0" result="hardAlpha"/>
<feOffset dy="-4"/>
<feComposite in2="hardAlpha" operator="arithmetic" k2="-1" k3="1"/>
<feColorMatrix type="matrix" values="0 0 0 0 0 0 0 0 0 0 0 0 0 0 0 0 0 0 0.5 0"/>
<feBlend mode="normal" in2="shape" result="effect1_innerShadow_23745_11698"/>
</filter>
<filter id="filter1_d_23745_11698" x="470.582" y="285.5" width="138.828" height="142.199" filterUnits="userSpaceOnUse" color-interpolation-filters="sRGB">
<feFlood flood-opacity="0" result="BackgroundImageFix"/>
<feColorMatrix in="SourceAlpha" type="matrix" values="0 0 0 0 0 0 0 0 0 0 0 0 0 0 0 0 0 0 127 0" result="hardAlpha"/>
<feOffset dy="-2"/>
<feColorMatrix type="matrix" values="0 0 0 0 1 0 0 0 0 1 0 0 0 0 1 0 0 0 0.8 0"/>
<feBlend mode="normal" in2="BackgroundImageFix" result="effect1_dropShadow_23745_11698"/>
<feBlend mode="normal" in="SourceGraphic" in2="effect1_dropShadow_23745_11698" result="shape"/>
</filter>
<linearGradient id="paint0_linear_23745_11698" x1="942" y1="462" x2="942" y2="114" gradientUnits="userSpaceOnUse">
<stop stop-color="#B9B9B9"/>
<stop offset="1" stop-color="#F2F2F2"/>
</linearGradient>
<linearGradient id="paint1_linear_23745_11698" x1="390.691" y1="253.201" x2="390.691" y2="438.801" gradientUnits="userSpaceOnUse">
<stop stop-color="#F4F4F4"/>
<stop offset="1" stop-color="#EBEBEB"/>
</linearGradient>
<clipPath id="clip0_23745_11698">
<rect width="1080" height="576" fill="white"/>
</clipPath>
</defs>
</svg>
