<svg width="1400" height="747" viewBox="0 0 1400 747" fill="none" xmlns="http://www.w3.org/2000/svg">
<g clip-path="url(#clip0_23745_11667)">
<g filter="url(#filter0_ii_23745_11667)">
<path fill-rule="evenodd" clip-rule="evenodd" d="M1020.44 747H378.486C367.055 747 357.777 738.108 357.777 727.152V518.75H1041.15V727.152C1041.15 738.108 1031.87 747 1020.44 747" fill="#E0E0E0"/>
</g>
<path fill-rule="evenodd" clip-rule="evenodd" d="M688.759 726.12H690.306V719.275H688.759V726.12ZM702.808 721.24C702.752 721.219 702.249 720.866 701.504 720.866C700.498 720.866 699.808 721.655 699.808 722.713C699.808 723.729 700.479 724.538 701.504 724.538C702.23 724.538 702.752 724.206 702.808 724.165V725.99C702.622 726.073 702.081 726.239 701.392 726.239C699.659 726.239 698.131 724.891 698.131 722.713C698.131 720.659 699.51 719.165 701.392 719.165C702.118 719.165 702.659 719.352 702.808 719.414V721.24ZM686.63 721.24C686.574 721.219 686.071 720.866 685.326 720.866C684.32 720.866 683.63 721.655 683.63 722.713C683.63 723.729 684.301 724.538 685.326 724.538C686.052 724.538 686.574 724.206 686.63 724.165V725.99C686.444 726.073 685.922 726.239 685.233 726.239C683.481 726.239 681.953 724.891 681.953 722.713C681.953 720.659 683.332 719.165 685.233 719.165C685.959 719.165 686.499 719.352 686.63 719.414V721.24ZM707.68 720.897C706.767 720.897 706.077 721.726 706.077 722.701C706.077 723.697 706.767 724.506 707.68 724.506C708.611 724.506 709.282 723.697 709.282 722.701C709.282 721.726 708.611 720.897 707.68 720.897M710.954 722.7C710.954 724.65 709.594 726.247 707.694 726.247C705.812 726.247 704.452 724.65 704.452 722.7C704.452 720.75 705.812 719.174 707.694 719.174C709.594 719.174 710.954 720.75 710.954 722.7M696.196 720.835C696.178 720.835 695.526 720.627 694.985 720.627C694.352 720.627 694.016 720.856 694.016 721.187C694.016 721.602 694.482 721.748 694.743 721.831L695.153 721.996C696.178 722.349 696.625 723.117 696.625 723.946C696.625 725.668 695.283 726.249 694.091 726.249C693.252 726.249 692.489 726.062 692.395 726.042V724.486C692.544 724.527 693.197 724.735 693.867 724.735C694.65 724.735 695.004 724.486 695.004 724.092C695.004 723.76 694.687 723.552 694.296 723.428C694.221 723.386 694.072 723.345 693.979 723.303C693.103 722.992 692.377 722.432 692.377 721.291C692.377 720.026 693.252 719.155 694.687 719.155C695.432 719.155 696.14 719.362 696.196 719.383V720.835ZM680.31 711.932C680.31 711.455 679.937 711.082 679.528 711.082C679.099 711.082 678.764 711.455 678.764 711.932V713.716C678.764 714.193 679.099 714.587 679.528 714.587C679.937 714.587 680.31 714.193 680.31 713.716V711.932ZM684.532 709.572C684.532 709.116 684.178 708.722 683.75 708.722C683.34 708.722 682.986 709.116 682.986 709.572V713.721C682.986 714.198 683.34 714.592 683.75 714.592C684.178 714.592 684.532 714.198 684.532 713.721V709.572ZM688.757 706.35C688.757 705.873 688.403 705.5 687.974 705.5C687.564 705.5 687.21 705.873 687.21 706.35V715.436C687.21 715.893 687.564 716.287 687.974 716.287C688.403 716.287 688.757 715.893 688.757 715.436V706.35ZM692.98 709.572C692.98 709.116 692.626 708.722 692.216 708.722C691.787 708.722 691.433 709.116 691.433 709.572V713.721C691.433 714.198 691.787 714.592 692.216 714.592C692.626 714.592 692.98 714.198 692.98 713.721V709.572ZM697.218 711.932C697.218 711.455 696.864 711.082 696.436 711.082C696.026 711.082 695.672 711.455 695.672 711.932V713.716C695.672 714.193 696.026 714.587 696.436 714.587C696.864 714.587 697.218 714.193 697.218 713.716V711.932ZM701.441 709.572C701.441 709.116 701.087 708.722 700.659 708.722C700.249 708.722 699.895 709.116 699.895 709.572V713.721C699.895 714.198 700.249 714.592 700.659 714.592C701.087 714.592 701.441 714.198 701.441 713.721V709.572ZM705.663 706.35C705.663 705.873 705.328 705.5 704.899 705.5C704.471 705.5 704.117 705.873 704.117 706.35V715.436C704.117 715.893 704.471 716.287 704.899 716.287C705.328 716.287 705.663 715.893 705.663 715.436V706.35ZM709.902 709.572C709.902 709.116 709.548 708.722 709.119 708.722C708.69 708.722 708.355 709.116 708.355 709.572V713.721C708.355 714.198 708.69 714.592 709.119 714.592C709.548 714.592 709.902 714.198 709.902 713.721V709.572ZM714.128 711.932C714.128 711.455 713.773 711.082 713.364 711.082C712.935 711.082 712.581 711.455 712.581 711.932V713.716C712.581 714.193 712.935 714.587 713.364 714.587C713.773 714.587 714.128 714.193 714.128 713.716V711.932Z" fill="#908E8E"/>
<path fill-rule="evenodd" clip-rule="evenodd" d="M1041.15 518.75H357.777V83C357.777 71.546 367.055 62.25 378.486 62.25H1020.44C1031.87 62.25 1041.15 71.546 1041.15 83V518.75Z" fill="#1A1A1A"/>
<path fill-rule="evenodd" clip-rule="evenodd" d="M740.874 41.5C740.874 18.5816 722.33 0 699.458 0C676.585 0 658.041 18.5816 658.041 41.5C658.041 64.4184 676.585 83 699.458 83C722.33 83 740.874 64.4184 740.874 41.5" fill="url(#paint0_linear_23745_11667)"/>
<path fill-rule="evenodd" clip-rule="evenodd" d="M1004.91 456.5H394.019C391.161 456.5 388.842 454.176 388.842 451.312V119.313C388.842 116.449 391.161 114.125 394.019 114.125H1004.91C1007.77 114.125 1010.09 116.449 1010.09 119.313V451.312C1010.09 454.176 1007.77 456.5 1004.91 456.5" fill="#222222"/>
<path fill-rule="evenodd" clip-rule="evenodd" d="M1004.91 456.5H394.019C391.161 456.5 388.842 454.176 388.842 451.312V119.313C388.842 116.449 391.161 114.125 394.019 114.125H1004.91C1007.77 114.125 1010.09 116.449 1010.09 119.313V451.312C1010.09 454.176 1007.77 456.5 1004.91 456.5" fill="url(#paint1_linear_23745_11667)"/>
<path fill-rule="evenodd" clip-rule="evenodd" d="M730.527 41.5C730.527 24.3086 716.622 10.375 699.465 10.375C682.308 10.375 668.402 24.3086 668.402 41.5C668.402 58.6914 682.308 72.625 699.465 72.625C716.622 72.625 730.527 58.6914 730.527 41.5" fill="#232323"/>
<path fill-rule="evenodd" clip-rule="evenodd" d="M712.415 51.875H686.529C682.243 51.875 678.764 48.389 678.764 44.0937V38.9062C678.764 34.611 682.243 31.125 686.529 31.125H712.415C716.701 31.125 720.18 34.611 720.18 38.9062V44.0937C720.18 48.389 716.701 51.875 712.415 51.875" fill="#494E5C"/>
<path fill-rule="evenodd" clip-rule="evenodd" d="M1020.44 487.625C1020.44 493.362 1015.8 498 1010.09 498C1004.37 498 999.732 493.362 999.732 487.625C999.732 481.888 1004.37 477.25 1010.09 477.25C1015.8 477.25 1020.44 481.888 1020.44 487.625Z" stroke="#474747" stroke-width="0.666667"/>
<path fill-rule="evenodd" clip-rule="evenodd" d="M1020.44 715.875C1020.44 721.612 1015.8 726.25 1010.09 726.25C1004.37 726.25 999.732 721.612 999.732 715.875C999.732 710.138 1004.37 705.5 1010.09 705.5C1015.8 705.5 1020.44 710.138 1020.44 715.875Z" fill="white" fill-opacity="0.6"/>
<path fill-rule="evenodd" clip-rule="evenodd" d="M927.251 498H968.667C974.383 498 979.021 493.362 979.021 487.625C979.021 481.888 974.383 477.25 968.667 477.25H927.251C921.535 477.25 916.896 481.888 916.896 487.625C916.896 493.362 921.535 498 927.251 498Z" stroke="#474747" stroke-width="0.666667"/>
</g>
<defs>
<filter id="filter0_ii_23745_11667" x="357.777" y="518.75" width="683.375" height="228.25" filterUnits="userSpaceOnUse" color-interpolation-filters="sRGB">
<feFlood flood-opacity="0" result="BackgroundImageFix"/>
<feBlend mode="normal" in="SourceGraphic" in2="BackgroundImageFix" result="shape"/>
<feColorMatrix in="SourceAlpha" type="matrix" values="0 0 0 0 0 0 0 0 0 0 0 0 0 0 0 0 0 0 127 0" result="hardAlpha"/>
<feOffset dx="1"/>
<feComposite in2="hardAlpha" operator="arithmetic" k2="-1" k3="1"/>
<feColorMatrix type="matrix" values="0 0 0 0 0 0 0 0 0 0 0 0 0 0 0 0 0 0 0.08 0"/>
<feBlend mode="normal" in2="shape" result="effect1_innerShadow_23745_11667"/>
<feColorMatrix in="SourceAlpha" type="matrix" values="0 0 0 0 0 0 0 0 0 0 0 0 0 0 0 0 0 0 127 0" result="hardAlpha"/>
<feOffset dx="-1"/>
<feComposite in2="hardAlpha" operator="arithmetic" k2="-1" k3="1"/>
<feColorMatrix type="matrix" values="0 0 0 0 0 0 0 0 0 0 0 0 0 0 0 0 0 0 0.04 0"/>
<feBlend mode="normal" in2="effect1_innerShadow_23745_11667" result="effect2_innerShadow_23745_11667"/>
</filter>
<linearGradient id="paint0_linear_23745_11667" x1="661.061" y1="3.00393" x2="661.061" y2="79.9508" gradientUnits="userSpaceOnUse">
<stop stop-color="#424242"/>
<stop offset="1" stop-color="#656565"/>
</linearGradient>
<linearGradient id="paint1_linear_23745_11667" x1="78.2168" y1="285.312" x2="367.674" y2="810.541" gradientUnits="userSpaceOnUse">
<stop stop-color="white" stop-opacity="0.24"/>
<stop offset="1" stop-opacity="0.5"/>
</linearGradient>
<clipPath id="clip0_23745_11667">
<rect width="1400" height="747" fill="white"/>
</clipPath>
</defs>
</svg>
