<svg width="1080" height="576" viewBox="0 0 1080 576" fill="none" xmlns="http://www.w3.org/2000/svg">
<g clip-path="url(#clip0_23746_2125)">
<g filter="url(#filter0_iii_23746_2125)">
<path fill-rule="evenodd" clip-rule="evenodd" d="M1006.29 360H73.7143C66.1303 360 60 353.831 60 346.2V235.8C60 228.169 66.1303 222 73.7143 222H1006.29C1013.87 222 1020 228.169 1020 235.8V346.2C1020 353.831 1013.87 360 1006.29 360" fill="url(#paint0_linear_23746_2125)"/>
</g>
<path fill-rule="evenodd" clip-rule="evenodd" d="M86.9409 343.295H88.9892V334.145H86.9409V343.295ZM105.558 336.773C105.484 336.746 104.818 336.274 103.831 336.274C102.498 336.274 101.585 337.328 101.585 338.742C101.585 340.1 102.474 341.182 103.831 341.182C104.793 341.182 105.484 340.738 105.558 340.683V343.122C105.312 343.233 104.596 343.455 103.683 343.455C101.388 343.455 99.3641 341.653 99.3641 338.742C99.3641 335.997 101.19 334.001 103.683 334.001C104.645 334.001 105.361 334.25 105.558 334.334V336.773ZM84.1229 336.773C84.0489 336.746 83.3825 336.274 82.3954 336.274C81.0628 336.274 80.1497 337.328 80.1497 338.742C80.1497 340.1 81.0381 341.182 82.3954 341.182C83.3579 341.182 84.0489 340.738 84.1229 340.683V343.122C83.8761 343.233 83.1851 343.455 82.272 343.455C79.9523 343.455 77.9286 341.653 77.9286 338.742C77.9286 335.997 79.7548 334.001 82.272 334.001C83.2345 334.001 83.9501 334.25 84.1229 334.334V336.773ZM112.021 336.314C110.811 336.314 109.898 337.423 109.898 338.726C109.898 340.057 110.811 341.138 112.021 341.138C113.255 341.138 114.143 340.057 114.143 338.726C114.143 337.423 113.255 336.314 112.021 336.314M116.344 338.726C116.344 341.332 114.542 343.467 112.025 343.467C109.532 343.467 107.731 341.332 107.731 338.726C107.731 336.12 109.532 334.013 112.025 334.013C114.542 334.013 116.344 336.12 116.344 338.726M96.8051 336.233C96.7805 336.233 95.9167 335.956 95.2011 335.956C94.362 335.956 93.9178 336.261 93.9178 336.704C93.9178 337.259 94.5347 337.453 94.8802 337.564L95.4232 337.786C96.7805 338.257 97.3727 339.283 97.3727 340.392C97.3727 342.693 95.5959 343.469 94.0165 343.469C92.906 343.469 91.8942 343.22 91.7708 343.192V341.113C91.9682 341.168 92.8319 341.445 93.7204 341.445C94.7568 341.445 95.2257 341.113 95.2257 340.586C95.2257 340.142 94.8062 339.865 94.288 339.699C94.1892 339.643 93.9918 339.588 93.8684 339.532C92.7085 339.116 91.7461 338.368 91.7461 336.843C91.7461 335.152 92.906 333.987 94.8062 333.987C95.7933 333.987 96.7311 334.265 96.8051 334.292V336.233ZM75.7592 324.334C75.7592 323.696 75.2657 323.197 74.7227 323.197C74.1551 323.197 73.7109 323.696 73.7109 324.334V326.718C73.7109 327.356 74.1551 327.882 74.7227 327.882C75.2657 327.882 75.7592 327.356 75.7592 326.718V324.334ZM81.3491 321.179C81.3491 320.569 80.8802 320.042 80.3126 320.042C79.7697 320.042 79.3008 320.569 79.3008 321.179V326.724C79.3008 327.362 79.7697 327.889 80.3126 327.889C80.8802 327.889 81.3491 327.362 81.3491 326.724V321.179ZM86.9505 316.873C86.9505 316.235 86.4816 315.736 85.914 315.736C85.3711 315.736 84.9022 316.235 84.9022 316.873V329.017C84.9022 329.627 85.3711 330.153 85.914 330.153C86.4816 330.153 86.9505 329.627 86.9505 329.017V316.873ZM92.5404 321.179C92.5404 320.569 92.0715 320.042 91.5286 320.042C90.961 320.042 90.4921 320.569 90.4921 321.179V326.724C90.4921 327.362 90.961 327.889 91.5286 327.889C92.0715 327.889 92.5404 327.362 92.5404 326.724V321.179ZM98.1418 324.335C98.1418 323.697 97.6729 323.198 97.1053 323.198C96.5624 323.198 96.0935 323.697 96.0935 324.335V326.719C96.0935 327.357 96.5624 327.884 97.1053 327.884C97.6729 327.884 98.1418 327.357 98.1418 326.719V324.335ZM103.743 321.179C103.743 320.569 103.274 320.042 102.707 320.042C102.164 320.042 101.695 320.569 101.695 321.179V326.724C101.695 327.362 102.164 327.889 102.707 327.889C103.274 327.889 103.743 327.362 103.743 326.724V321.179ZM109.344 316.873C109.344 316.235 108.899 315.736 108.332 315.736C107.764 315.736 107.295 316.235 107.295 316.873V329.017C107.295 329.627 107.764 330.153 108.332 330.153C108.899 330.153 109.344 329.627 109.344 329.017V316.873ZM114.958 321.179C114.958 320.569 114.489 320.042 113.921 320.042C113.354 320.042 112.909 320.569 112.909 321.179V326.724C112.909 327.362 113.354 327.889 113.921 327.889C114.489 327.889 114.958 327.362 114.958 326.724V321.179ZM120.549 324.335C120.549 323.697 120.08 323.198 119.537 323.198C118.969 323.198 118.5 323.697 118.5 324.335V326.719C118.5 327.357 118.969 327.884 119.537 327.884C120.08 327.884 120.549 327.357 120.549 326.719V324.335Z" fill="white"/>
<path fill-rule="evenodd" clip-rule="evenodd" d="M540 312C526.766 312 516 301.234 516 288C516 274.766 526.766 264 540 264C553.234 264 564 274.766 564 288C564 301.234 553.234 312 540 312" fill="#666666"/>
<g filter="url(#filter1_i_23746_2125)">
<path fill-rule="evenodd" clip-rule="evenodd" d="M540 253.5C520.97 253.5 505.5 268.97 505.5 288C505.5 307.03 520.97 322.5 540 322.5C559.03 322.5 574.5 307.03 574.5 288C574.5 268.97 559.03 253.5 540 253.5M539.995 274.2C547.626 274.2 553.795 280.369 553.795 288C553.795 295.632 547.626 301.8 539.995 301.8C532.364 301.8 526.195 295.632 526.195 288C526.195 280.369 532.364 274.2 539.995 274.2" fill="url(#paint1_linear_23746_2125)"/>
</g>
<circle cx="540.004" cy="288" r="16" fill="black" fill-opacity="0.4" stroke="white" stroke-opacity="0.08"/>
<ellipse cx="540" cy="288" rx="36" ry="36" stroke="white" stroke-opacity="0.4"/>
</g>
<defs>
<filter id="filter0_iii_23746_2125" x="60" y="222" width="960" height="138" filterUnits="userSpaceOnUse" color-interpolation-filters="sRGB">
<feFlood flood-opacity="0" result="BackgroundImageFix"/>
<feBlend mode="normal" in="SourceGraphic" in2="BackgroundImageFix" result="shape"/>
<feColorMatrix in="SourceAlpha" type="matrix" values="0 0 0 0 0 0 0 0 0 0 0 0 0 0 0 0 0 0 127 0" result="hardAlpha"/>
<feOffset dy="-1"/>
<feComposite in2="hardAlpha" operator="arithmetic" k2="-1" k3="1"/>
<feColorMatrix type="matrix" values="0 0 0 0 0 0 0 0 0 0 0 0 0 0 0 0 0 0 0.24 0"/>
<feBlend mode="normal" in2="shape" result="effect1_innerShadow_23746_2125"/>
<feColorMatrix in="SourceAlpha" type="matrix" values="0 0 0 0 0 0 0 0 0 0 0 0 0 0 0 0 0 0 127 0" result="hardAlpha"/>
<feOffset dy="1"/>
<feComposite in2="hardAlpha" operator="arithmetic" k2="-1" k3="1"/>
<feColorMatrix type="matrix" values="0 0 0 0 1 0 0 0 0 1 0 0 0 0 1 0 0 0 0.500906 0"/>
<feBlend mode="normal" in2="effect1_innerShadow_23746_2125" result="effect2_innerShadow_23746_2125"/>
<feColorMatrix in="SourceAlpha" type="matrix" values="0 0 0 0 0 0 0 0 0 0 0 0 0 0 0 0 0 0 127 0" result="hardAlpha"/>
<feOffset dy="1"/>
<feComposite in2="hardAlpha" operator="arithmetic" k2="-1" k3="1"/>
<feColorMatrix type="matrix" values="0 0 0 0 0 0 0 0 0 0 0 0 0 0 0 0 0 0 0.08 0"/>
<feBlend mode="normal" in2="effect2_innerShadow_23746_2125" result="effect3_innerShadow_23746_2125"/>
</filter>
<filter id="filter1_i_23746_2125" x="505.5" y="250.5" width="69" height="72" filterUnits="userSpaceOnUse" color-interpolation-filters="sRGB">
<feFlood flood-opacity="0" result="BackgroundImageFix"/>
<feBlend mode="normal" in="SourceGraphic" in2="BackgroundImageFix" result="shape"/>
<feColorMatrix in="SourceAlpha" type="matrix" values="0 0 0 0 0 0 0 0 0 0 0 0 0 0 0 0 0 0 127 0" result="hardAlpha"/>
<feOffset dy="-3"/>
<feGaussianBlur stdDeviation="2.5"/>
<feComposite in2="hardAlpha" operator="arithmetic" k2="-1" k3="1"/>
<feColorMatrix type="matrix" values="0 0 0 0 0 0 0 0 0 0 0 0 0 0 0 0 0 0 0.5 0"/>
<feBlend mode="normal" in2="shape" result="effect1_innerShadow_23746_2125"/>
</filter>
<linearGradient id="paint0_linear_23746_2125" x1="60" y1="222" x2="60" y2="360" gradientUnits="userSpaceOnUse">
<stop stop-color="#DFDFDF"/>
<stop offset="1" stop-color="#7E7E7E"/>
</linearGradient>
<linearGradient id="paint1_linear_23746_2125" x1="505.5" y1="322.5" x2="574.5" y2="322.5" gradientUnits="userSpaceOnUse">
<stop stop-color="#2B2B2B"/>
<stop offset="0.563674" stop-color="#4F4F4F"/>
<stop offset="0.675635" stop-color="#535353"/>
<stop offset="0.761335" stop-color="#4A4A4A"/>
<stop offset="1" stop-color="#1C1C1C"/>
</linearGradient>
<clipPath id="clip0_23746_2125">
<rect width="1080" height="576" fill="white"/>
</clipPath>
</defs>
</svg>
