<svg width="1400" height="747" viewBox="0 0 1400 747" fill="none" xmlns="http://www.w3.org/2000/svg">
<g clip-path="url(#clip0_23745_11698)">
<mask id="path-1-inside-1_23745_11698" fill="white">
<path d="M1215.11 147.844C1218.42 147.844 1221.11 150.53 1221.11 153.844V593.156C1221.11 596.47 1218.42 599.156 1215.11 599.156H184.889C181.575 599.156 178.889 596.47 178.889 593.156V153.844C178.889 150.53 181.575 147.844 184.889 147.844H1215.11ZM536.698 343.413C528.215 343.413 521.339 350.29 521.339 358.773V538.666C521.339 547.149 528.215 554.025 536.698 554.025H863.312C871.795 554.025 878.672 547.149 878.672 538.666V358.773C878.672 350.291 871.795 343.413 863.312 343.413H536.698Z"/>
</mask>
<path d="M1215.11 147.844C1218.42 147.844 1221.11 150.53 1221.11 153.844V593.156C1221.11 596.47 1218.42 599.156 1215.11 599.156H184.889C181.575 599.156 178.889 596.47 178.889 593.156V153.844C178.889 150.53 181.575 147.844 184.889 147.844H1215.11ZM536.698 343.413C528.215 343.413 521.339 350.29 521.339 358.773V538.666C521.339 547.149 528.215 554.025 536.698 554.025H863.312C871.795 554.025 878.672 547.149 878.672 538.666V358.773C878.672 350.291 871.795 343.413 863.312 343.413H536.698Z" fill="url(#paint0_linear_23745_11698)"/>
<path d="M1221.11 153.844L1221.61 153.844L1221.61 153.844L1221.11 153.844ZM178.889 153.844L178.389 153.844V153.844H178.889ZM536.698 343.413L536.698 342.913L536.698 342.913L536.698 343.413ZM521.339 538.666L520.839 538.666L520.839 538.666L521.339 538.666ZM536.698 554.025L536.698 554.525H536.698V554.025ZM863.312 554.025L863.312 554.525L863.313 554.525L863.312 554.025ZM878.672 538.666L879.172 538.666V538.666H878.672ZM863.312 343.413L863.313 342.913H863.312V343.413ZM1215.11 147.844V148.344C1218.15 148.344 1220.61 150.806 1220.61 153.844L1221.11 153.844L1221.61 153.844C1221.61 150.254 1218.7 147.344 1215.11 147.344V147.844ZM1221.11 153.844H1220.61V593.156H1221.11H1221.61V153.844H1221.11ZM1221.11 593.156H1220.61C1220.61 596.194 1218.15 598.656 1215.11 598.656V599.156V599.656C1218.7 599.656 1221.61 596.746 1221.61 593.156H1221.11ZM1215.11 599.156V598.656H184.889V599.156V599.656H1215.11V599.156ZM184.889 599.156V598.656C181.851 598.656 179.389 596.194 179.389 593.156H178.889H178.389C178.389 596.746 181.299 599.656 184.889 599.656V599.156ZM178.889 593.156H179.389V153.844H178.889H178.389V593.156H178.889ZM178.889 153.844L179.389 153.844C179.389 150.806 181.851 148.344 184.889 148.344V147.844V147.344C181.299 147.344 178.389 150.254 178.389 153.844L178.889 153.844ZM184.889 147.844V148.344H1215.11V147.844V147.344H184.889V147.844ZM536.698 343.413L536.698 342.913C527.939 342.913 520.839 350.014 520.839 358.773H521.339H521.839C521.839 350.567 528.492 343.913 536.698 343.913L536.698 343.413ZM521.339 358.773H520.839V538.666H521.339H521.839V358.773H521.339ZM521.339 538.666L520.839 538.666C520.839 547.425 527.939 554.525 536.698 554.525L536.698 554.025L536.698 553.525C528.492 553.525 521.839 546.873 521.839 538.666L521.339 538.666ZM536.698 554.025V554.525H863.312V554.025V553.525H536.698V554.025ZM863.312 554.025L863.313 554.525C872.071 554.525 879.172 547.425 879.172 538.666L878.672 538.666L878.172 538.666C878.172 546.873 871.519 553.525 863.312 553.525L863.312 554.025ZM878.672 538.666H879.172V358.773H878.672H878.172V538.666H878.672ZM878.672 358.773H879.172C879.172 350.014 872.072 342.913 863.313 342.913L863.312 343.413L863.312 343.913C871.519 343.913 878.172 350.567 878.172 358.773H878.672ZM863.312 343.413V342.913H536.698V343.413V343.913H863.312V343.413Z" fill="black" fill-opacity="0.4" mask="url(#path-1-inside-1_23745_11698)"/>
<path fill-rule="evenodd" clip-rule="evenodd" d="M625.549 328.371H774.438V463.765H625.549V328.371Z" fill="#323232"/>
<path d="M774.688 328.121V464.015H625.299V328.121H774.688Z" stroke="white" stroke-opacity="0.8" stroke-width="0.5"/>
<g filter="url(#filter0_i_23745_11698)">
<rect x="507.411" y="329.331" width="385.191" height="238.78" rx="14.4" stroke="url(#paint1_linear_23745_11698)" stroke-width="1.92"/>
<rect x="507.411" y="329.331" width="385.191" height="238.78" rx="14.4" stroke="white" stroke-opacity="0.8" stroke-width="1.92"/>
</g>
<g filter="url(#filter1_d_23745_11698)">
<ellipse cx="699.993" cy="463.763" rx="89.3333" ry="90.2625" fill="#323232"/>
<path d="M699.993 373.25C749.471 373.25 789.577 413.776 789.577 463.763C789.577 513.749 749.471 554.275 699.993 554.275C650.515 554.275 610.41 513.749 610.41 463.763C610.41 413.777 650.515 373.25 699.993 373.25Z" stroke="white" stroke-opacity="0.6" stroke-width="0.5"/>
</g>
<ellipse cx="700.007" cy="463.765" rx="59.5556" ry="60.175" fill="#00222C"/>
<path d="M700.007 403.84C732.758 403.84 759.312 430.667 759.312 463.765C759.312 496.863 732.758 523.689 700.007 523.689C667.256 523.689 640.701 496.863 640.701 463.765C640.701 430.667 667.256 403.84 700.007 403.84Z" stroke="white" stroke-opacity="0.16" stroke-width="0.5"/>
<ellipse cx="700.002" cy="463.763" rx="29.7778" ry="30.0875" fill="black"/>
<path d="M700.002 433.426C716.588 433.426 730.03 447.011 730.03 463.764C730.03 480.516 716.588 494.101 700.002 494.101C683.416 494.1 669.975 480.516 669.975 463.764C669.975 447.011 683.416 433.426 700.002 433.426Z" stroke="white" stroke-opacity="0.230525" stroke-width="0.5"/>
<ellipse cx="1146.66" cy="523.939" rx="29.7778" ry="30.0875" fill="black" fill-opacity="0.08"/>
<ellipse cx="1146.66" cy="523.938" rx="14.8889" ry="15.0437" fill="black" fill-opacity="0.08"/>
<path d="M1146.66 508.645C1155.03 508.645 1161.8 515.494 1161.8 523.938C1161.8 532.382 1155.03 539.232 1146.66 539.232C1138.3 539.232 1131.52 532.382 1131.52 523.938C1131.52 515.494 1138.3 508.645 1146.66 508.645Z" stroke="white" stroke-opacity="0.4" stroke-width="0.5"/>
<path fill-rule="evenodd" clip-rule="evenodd" d="M680.174 267.815H684.786V247.963H680.174V267.815ZM722.071 253.667C721.905 253.607 720.405 252.584 718.182 252.584C715.181 252.584 713.125 254.87 713.125 257.938C713.125 260.886 715.126 263.232 718.182 263.232C720.349 263.232 721.905 262.27 722.071 262.149V267.443C721.516 267.684 719.904 268.165 717.849 268.165C712.681 268.165 708.125 264.255 708.125 257.938C708.125 251.983 712.236 247.651 717.849 247.651C720.016 247.651 721.627 248.193 722.071 248.373V253.667ZM673.813 253.667C673.646 253.607 672.146 252.584 669.923 252.584C666.922 252.584 664.867 254.87 664.867 257.938C664.867 260.886 666.867 263.232 669.923 263.232C672.09 263.232 673.646 262.27 673.813 262.149V267.443C673.257 267.684 671.701 268.165 669.645 268.165C664.422 268.165 659.866 264.255 659.866 257.938C659.866 251.983 663.977 247.651 669.645 247.651C671.812 247.651 673.424 248.193 673.813 248.373V253.667ZM736.617 252.667C733.894 252.667 731.838 255.073 731.838 257.901C731.838 260.788 733.894 263.134 736.617 263.134C739.395 263.134 741.396 260.788 741.396 257.901C741.396 255.073 739.395 252.667 736.617 252.667M746.354 257.903C746.354 263.557 742.298 268.19 736.63 268.19C731.018 268.19 726.962 263.557 726.962 257.903C726.962 252.248 731.018 247.676 736.63 247.676C742.298 247.676 746.354 252.248 746.354 257.903M702.35 252.494C702.295 252.494 700.35 251.892 698.739 251.892C696.849 251.892 695.849 252.554 695.849 253.517C695.849 254.72 697.238 255.141 698.016 255.382L699.239 255.863C702.295 256.885 703.628 259.111 703.628 261.518C703.628 266.511 699.628 268.195 696.072 268.195C693.571 268.195 691.293 267.654 691.015 267.593V263.082C691.46 263.202 693.404 263.804 695.405 263.804C697.739 263.804 698.794 263.082 698.794 261.939C698.794 260.976 697.85 260.375 696.683 260.014C696.461 259.893 696.016 259.773 695.738 259.653C693.127 258.75 690.96 257.126 690.96 253.817C690.96 250.148 693.571 247.621 697.85 247.621C700.072 247.621 702.184 248.223 702.35 248.283V252.494ZM654.981 226.673C654.981 225.289 653.87 224.206 652.647 224.206C651.369 224.206 650.369 225.289 650.369 226.673V231.846C650.369 233.23 651.369 234.373 652.647 234.373C653.87 234.373 654.981 233.23 654.981 231.846V226.673ZM667.574 219.828C667.574 218.504 666.518 217.361 665.24 217.361C664.018 217.361 662.962 218.504 662.962 219.828V231.859C662.962 233.243 664.018 234.386 665.24 234.386C666.518 234.386 667.574 233.243 667.574 231.859V219.828ZM680.182 210.486C680.182 209.102 679.127 208.02 677.849 208.02C676.626 208.02 675.57 209.102 675.57 210.486V236.835C675.57 238.158 676.626 239.301 677.849 239.301C679.127 239.301 680.182 238.158 680.182 236.835V210.486ZM692.777 219.828C692.777 218.504 691.721 217.361 690.499 217.361C689.221 217.361 688.165 218.504 688.165 219.828V231.859C688.165 233.243 689.221 234.386 690.499 234.386C691.721 234.386 692.777 233.243 692.777 231.859V219.828ZM705.385 226.676C705.385 225.292 704.329 224.209 703.051 224.209C701.829 224.209 700.773 225.292 700.773 226.676V231.849C700.773 233.233 701.829 234.376 703.051 234.376C704.329 234.376 705.385 233.233 705.385 231.849V226.676ZM717.978 219.828C717.978 218.504 716.923 217.361 715.645 217.361C714.422 217.361 713.366 218.504 713.366 219.828V231.859C713.366 233.243 714.422 234.386 715.645 234.386C716.923 234.386 717.978 233.243 717.978 231.859V219.828ZM730.6 210.486C730.6 209.102 729.6 208.02 728.322 208.02C727.044 208.02 725.988 209.102 725.988 210.486V236.835C725.988 238.158 727.044 239.301 728.322 239.301C729.6 239.301 730.6 238.158 730.6 236.835V210.486ZM743.241 219.828C743.241 218.504 742.185 217.361 740.907 217.361C739.629 217.361 738.629 218.504 738.629 219.828V231.859C738.629 233.243 739.629 234.386 740.907 234.386C742.185 234.386 743.241 233.243 743.241 231.859V219.828ZM755.832 226.673C755.832 225.289 754.776 224.206 753.553 224.206C752.275 224.206 751.22 225.289 751.22 226.673V231.846C751.22 233.23 752.275 234.373 753.553 234.373C754.776 234.373 755.832 233.23 755.832 231.846V226.673Z" fill="#908E8E"/>
</g>
<defs>
<filter id="filter0_i_23745_11698" x="506.451" y="328.371" width="387.111" height="240.699" filterUnits="userSpaceOnUse" color-interpolation-filters="sRGB">
<feFlood flood-opacity="0" result="BackgroundImageFix"/>
<feBlend mode="normal" in="SourceGraphic" in2="BackgroundImageFix" result="shape"/>
<feColorMatrix in="SourceAlpha" type="matrix" values="0 0 0 0 0 0 0 0 0 0 0 0 0 0 0 0 0 0 127 0" result="hardAlpha"/>
<feOffset dy="-4"/>
<feComposite in2="hardAlpha" operator="arithmetic" k2="-1" k3="1"/>
<feColorMatrix type="matrix" values="0 0 0 0 0 0 0 0 0 0 0 0 0 0 0 0 0 0 0.5 0"/>
<feBlend mode="normal" in2="shape" result="effect1_innerShadow_23745_11698"/>
</filter>
<filter id="filter1_d_23745_11698" x="610.16" y="371" width="179.666" height="183.523" filterUnits="userSpaceOnUse" color-interpolation-filters="sRGB">
<feFlood flood-opacity="0" result="BackgroundImageFix"/>
<feColorMatrix in="SourceAlpha" type="matrix" values="0 0 0 0 0 0 0 0 0 0 0 0 0 0 0 0 0 0 127 0" result="hardAlpha"/>
<feOffset dy="-2"/>
<feColorMatrix type="matrix" values="0 0 0 0 1 0 0 0 0 1 0 0 0 0 1 0 0 0 0.8 0"/>
<feBlend mode="normal" in2="BackgroundImageFix" result="effect1_dropShadow_23745_11698"/>
<feBlend mode="normal" in="SourceGraphic" in2="effect1_dropShadow_23745_11698" result="shape"/>
</filter>
<linearGradient id="paint0_linear_23745_11698" x1="1221.11" y1="599.156" x2="1221.11" y2="147.844" gradientUnits="userSpaceOnUse">
<stop stop-color="#B9B9B9"/>
<stop offset="1" stop-color="#F2F2F2"/>
</linearGradient>
<linearGradient id="paint1_linear_23745_11698" x1="506.451" y1="328.371" x2="506.451" y2="569.071" gradientUnits="userSpaceOnUse">
<stop stop-color="#F4F4F4"/>
<stop offset="1" stop-color="#EBEBEB"/>
</linearGradient>
<clipPath id="clip0_23745_11698">
<rect width="1400" height="747" fill="white"/>
</clipPath>
</defs>
</svg>
