<svg width="1080" height="576" viewBox="0 0 1080 576" fill="none" xmlns="http://www.w3.org/2000/svg">
<g clip-path="url(#clip0_23745_11701)">
<path fill-rule="evenodd" clip-rule="evenodd" d="M513.035 48H560.96V36H513.035V48Z" fill="url(#paint0_linear_23745_11701)"/>
<path fill-rule="evenodd" clip-rule="evenodd" d="M560.96 35.998C560.96 38.206 550.233 39.998 536.998 39.998C523.762 39.998 513.035 38.206 513.035 35.998C513.035 33.79 523.762 31.998 536.998 31.998C550.233 31.998 560.96 33.79 560.96 35.998Z" fill="url(#paint1_linear_23745_11701)"/>
<path fill-rule="evenodd" clip-rule="evenodd" d="M552.977 16C552.977 7.168 545.821 0 537.002 0C528.184 0 521.027 7.168 521.027 16V24H552.977V16Z" fill="url(#paint2_linear_23745_11701)"/>
<path fill-rule="evenodd" clip-rule="evenodd" d="M393 567L401.289 528.526C401.355 528.219 401.627 528 401.941 528H664.951C665.224 528 665.469 528.166 665.57 528.419L681 567H393Z" fill="url(#paint3_radial_23745_11701)"/>
<path fill-rule="evenodd" clip-rule="evenodd" d="M393 575.333C393 575.702 393.298 576 393.667 576H680.333C680.701 576 681 575.702 681 575.333V567H393V575.333Z" fill="#2F2F2F"/>
<path fill-rule="evenodd" clip-rule="evenodd" d="M504 546H570V354H504V546Z" fill="url(#paint4_linear_23745_11701)"/>
<path fill-rule="evenodd" clip-rule="evenodd" d="M752.069 354H321.931C313.137 354 306 346.785 306 337.895V64.1053C306 55.2152 313.137 48 321.931 48H752.069C760.863 48 768 55.2152 768 64.1053V337.895C768 346.785 760.863 354 752.069 354Z" fill="#E0E0E0"/>
<path fill-rule="evenodd" clip-rule="evenodd" d="M751.945 306H322.056C319.817 306 318 304.208 318 302V70C318 67.792 319.817 66 322.056 66H751.945C754.183 66 756 67.792 756 70V302C756 304.208 754.183 306 751.945 306Z" fill="#222222"/>
<path fill-rule="evenodd" clip-rule="evenodd" d="M751.945 306H322.056C319.817 306 318 304.208 318 302V70C318 67.792 319.817 66 322.056 66H751.945C754.183 66 756 67.792 756 70V302C756 304.208 754.183 306 751.945 306Z" fill="#222222"/>
<path fill-rule="evenodd" clip-rule="evenodd" d="M751.945 306H322.056C319.817 306 318 304.208 318 302V70C318 67.792 319.817 66 322.056 66H751.945C754.183 66 756 67.792 756 70V302C756 304.208 754.183 306 751.945 306Z" fill="url(#paint5_linear_23745_11701)"/>
<path fill-rule="evenodd" clip-rule="evenodd" d="M530.625 335.392H531.818V330.114H530.625V335.392ZM541.462 331.631C541.419 331.615 541.031 331.343 540.456 331.343C539.68 331.343 539.148 331.951 539.148 332.767C539.148 333.55 539.666 334.174 540.456 334.174C541.017 334.174 541.419 333.918 541.462 333.886V335.294C541.319 335.358 540.902 335.486 540.37 335.486C539.033 335.486 537.855 334.446 537.855 332.767C537.855 331.183 538.918 330.031 540.37 330.031C540.931 330.031 541.347 330.175 541.462 330.223V331.631ZM528.982 331.631C528.939 331.615 528.551 331.343 527.976 331.343C527.2 331.343 526.668 331.951 526.668 332.767C526.668 333.55 527.186 334.174 527.976 334.174C528.537 334.174 528.939 333.918 528.982 333.886V335.294C528.839 335.358 528.436 335.486 527.904 335.486C526.553 335.486 525.375 334.446 525.375 332.767C525.375 331.183 526.438 330.031 527.904 330.031C528.465 330.031 528.882 330.175 528.982 330.223V331.631ZM545.221 331.366C544.516 331.366 543.985 332.006 543.985 332.758C543.985 333.526 544.516 334.149 545.221 334.149C545.939 334.149 546.457 333.526 546.457 332.758C546.457 332.006 545.939 331.366 545.221 331.366ZM547.747 332.757C547.747 334.26 546.698 335.492 545.232 335.492C543.78 335.492 542.731 334.26 542.731 332.757C542.731 331.253 543.78 330.038 545.232 330.038C546.698 330.038 547.747 331.253 547.747 332.757ZM536.362 331.319C536.348 331.319 535.845 331.159 535.428 331.159C534.939 331.159 534.68 331.335 534.68 331.59C534.68 331.91 535.04 332.022 535.241 332.086L535.557 332.214C536.348 332.486 536.693 333.078 536.693 333.718C536.693 335.045 535.658 335.493 534.738 335.493C534.091 335.493 533.502 335.349 533.43 335.333V334.134C533.545 334.166 534.048 334.326 534.565 334.326C535.169 334.326 535.442 334.134 535.442 333.83C535.442 333.574 535.198 333.414 534.896 333.318C534.839 333.286 534.724 333.254 534.652 333.222C533.976 332.982 533.416 332.55 533.416 331.67C533.416 330.695 534.091 330.023 535.198 330.023C535.773 330.023 536.319 330.183 536.362 330.199V331.319ZM524.107 324.454C524.107 324.086 523.82 323.798 523.503 323.798C523.173 323.798 522.914 324.086 522.914 324.454V325.829C522.914 326.197 523.173 326.501 523.503 326.501C523.82 326.501 524.107 326.197 524.107 325.829V324.454ZM527.364 322.634C527.364 322.282 527.091 321.978 526.76 321.978C526.444 321.978 526.171 322.282 526.171 322.634V325.833C526.171 326.201 526.444 326.505 526.76 326.505C527.091 326.505 527.364 326.201 527.364 325.833V322.634ZM530.623 320.15C530.623 319.782 530.35 319.494 530.019 319.494C529.703 319.494 529.43 319.782 529.43 320.15V327.156C529.43 327.508 529.703 327.812 530.019 327.812C530.35 327.812 530.623 327.508 530.623 327.156V320.15ZM533.881 322.634C533.881 322.282 533.608 321.978 533.292 321.978C532.961 321.978 532.688 322.282 532.688 322.634V325.833C532.688 326.201 532.961 326.505 533.292 326.505C533.608 326.505 533.881 326.201 533.881 325.833V322.634ZM537.15 324.454C537.15 324.086 536.877 323.798 536.547 323.798C536.23 323.798 535.957 324.086 535.957 324.454V325.829C535.957 326.197 536.23 326.501 536.547 326.501C536.877 326.501 537.15 326.197 537.15 325.829V324.454ZM540.408 322.634C540.408 322.282 540.135 321.978 539.805 321.978C539.488 321.978 539.215 322.282 539.215 322.634V325.833C539.215 326.201 539.488 326.505 539.805 326.505C540.135 326.505 540.408 326.201 540.408 325.833V322.634ZM543.665 320.15C543.665 319.782 543.406 319.494 543.076 319.494C542.745 319.494 542.472 319.782 542.472 320.15V327.156C542.472 327.508 542.745 327.812 543.076 327.812C543.406 327.812 543.665 327.508 543.665 327.156V320.15ZM546.935 322.634C546.935 322.282 546.662 321.978 546.331 321.978C546 321.978 545.742 322.282 545.742 322.634V325.833C545.742 326.201 546 326.505 546.331 326.505C546.662 326.505 546.935 326.201 546.935 325.833V322.634ZM550.195 324.454C550.195 324.086 549.922 323.798 549.605 323.798C549.275 323.798 549.002 324.086 549.002 324.454V325.829C549.002 326.197 549.275 326.501 549.605 326.501C549.922 326.501 550.195 326.197 550.195 325.829V324.454Z" fill="#908E8E"/>
<path fill-rule="evenodd" clip-rule="evenodd" d="M552.977 23.998C552.977 15.166 545.821 7.99805 537.002 7.99805C528.184 7.99805 521.027 15.166 521.027 23.998C521.027 32.83 528.184 39.998 537.002 39.998C545.821 39.998 552.977 32.83 552.977 23.998Z" fill="#232323"/>
<path fill-rule="evenodd" clip-rule="evenodd" d="M544.983 24C544.983 19.584 541.404 16 536.995 16C532.586 16 529.008 19.584 529.008 24C529.008 28.416 532.586 32 536.995 32C541.404 32 544.983 28.416 544.983 24Z" fill="#373B47"/>
</g>
<defs>
<linearGradient id="paint0_linear_23745_11701" x1="513.035" y1="54" x2="560.96" y2="54" gradientUnits="userSpaceOnUse">
<stop stop-color="#DFDFDF"/>
<stop offset="1" stop-color="#6F6F6F"/>
</linearGradient>
<linearGradient id="paint1_linear_23745_11701" x1="525.016" y1="33.3184" x2="525.642" y2="38.9927" gradientUnits="userSpaceOnUse">
<stop stop-color="#F6F6F6"/>
<stop offset="1" stop-color="#969696"/>
</linearGradient>
<linearGradient id="paint2_linear_23745_11701" x1="521.027" y1="12.6568" x2="552.977" y2="12.6568" gradientUnits="userSpaceOnUse">
<stop stop-color="#B4B4B4"/>
<stop offset="0.264038" stop-color="#F5F5F5"/>
<stop offset="0.664246" stop-color="#CCCCCC"/>
<stop offset="1" stop-color="#808080"/>
</linearGradient>
<radialGradient id="paint3_radial_23745_11701" cx="0" cy="0" r="1" gradientUnits="userSpaceOnUse" gradientTransform="translate(573.793 608.152) rotate(5.73169) scale(195.253 40.5582)">
<stop stop-color="#9C9C9C"/>
<stop offset="0.528236" stop-color="#E8E8E8"/>
<stop offset="1" stop-color="#E8E8E8"/>
</radialGradient>
<linearGradient id="paint4_linear_23745_11701" x1="504.002" y1="354" x2="504.002" y2="545.987" gradientUnits="userSpaceOnUse">
<stop stop-color="#CFCFCF"/>
<stop offset="0.278382" stop-color="#D9D9D9"/>
<stop offset="0.514141" stop-color="#DFDFDF"/>
<stop offset="0.753319" stop-color="#D6D6D6"/>
<stop offset="0.999932" stop-color="#C0C0C0"/>
</linearGradient>
<linearGradient id="paint5_linear_23745_11701" x1="99" y1="186" x2="301.28" y2="555.161" gradientUnits="userSpaceOnUse">
<stop stop-color="white" stop-opacity="0.24"/>
<stop offset="1" stop-opacity="0.5"/>
</linearGradient>
<clipPath id="clip0_23745_11701">
<rect width="1080" height="576" fill="white"/>
</clipPath>
</defs>
</svg>
