<svg width="180" height="96" viewBox="0 0 180 96" fill="none" xmlns="http://www.w3.org/2000/svg">
<g clip-path="url(#clip0_23745_11666)">
<path fill-rule="evenodd" clip-rule="evenodd" d="M53.3454 96.0002H43.6486C42.1853 96.0002 41 94.8055 41 93.3335V73.3335H59.5405L55.9529 93.7975C55.7305 95.0722 54.6299 96.0002 53.3454 96.0002Z" fill="url(#paint0_linear_23745_11666)"/>
<path fill-rule="evenodd" clip-rule="evenodd" d="M126.654 96.0002H136.351C137.814 96.0002 139 94.8055 139 93.3335V73.3335H120.459L124.047 93.7975C124.269 95.0722 125.37 96.0002 126.654 96.0002Z" fill="url(#paint1_linear_23745_11666)"/>
<path fill-rule="evenodd" clip-rule="evenodd" d="M139 66.6667H41V6.66667C41 5.19467 42.1866 4 43.6486 4H136.351C137.813 4 139 5.19467 139 6.66667V66.6667Z" fill="#1A1A1A"/>
<path fill-rule="evenodd" clip-rule="evenodd" d="M136.351 87.9998H43.6486C42.1866 87.9998 41 86.8052 41 85.3332V66.6665H139V85.3332C139 86.8052 137.813 87.9998 136.351 87.9998Z" fill="#E0E0E0"/>
<path fill-rule="evenodd" clip-rule="evenodd" d="M89.9531 82.6498H90.1509V81.77H89.9531V82.6498ZM91.7505 82.0229C91.7433 82.0203 91.679 81.9749 91.5837 81.9749C91.455 81.9749 91.3668 82.0763 91.3668 82.2122C91.3668 82.3428 91.4526 82.4468 91.5837 82.4468C91.6766 82.4468 91.7433 82.4042 91.7505 82.3988V82.6334C91.7267 82.6441 91.6576 82.6654 91.5694 82.6654C91.3478 82.6654 91.1523 82.4921 91.1523 82.2122C91.1523 81.9483 91.3287 81.7563 91.5694 81.7563C91.6623 81.7563 91.7314 81.7803 91.7505 81.7883V82.0229ZM89.6821 82.0229C89.675 82.0203 89.6106 81.9749 89.5153 81.9749C89.3866 81.9749 89.2985 82.0763 89.2985 82.2122C89.2985 82.3428 89.3843 82.4468 89.5153 82.4468C89.6083 82.4468 89.675 82.4042 89.6821 82.3988V82.6334C89.6583 82.6441 89.5916 82.6654 89.5034 82.6654C89.2794 82.6654 89.084 82.4921 89.084 82.2122C89.084 81.9483 89.2603 81.7563 89.5034 81.7563C89.5963 81.7563 89.6655 81.7803 89.6821 81.7883V82.0229ZM92.375 81.9785C92.2583 81.9785 92.1701 82.0852 92.1701 82.2104C92.1701 82.3384 92.2583 82.4424 92.375 82.4424C92.4942 82.4424 92.58 82.3384 92.58 82.2104C92.58 82.0852 92.4942 81.9785 92.375 81.9785ZM92.7926 82.2105C92.7926 82.4611 92.6187 82.6664 92.3756 82.6664C92.1349 82.6664 91.9609 82.4611 91.9609 82.2105C91.9609 81.9599 92.1349 81.7573 92.3756 81.7573C92.6187 81.7573 92.7926 81.9599 92.7926 82.2105ZM90.9045 81.9708C90.9022 81.9708 90.8188 81.9442 90.7496 81.9442C90.6686 81.9442 90.6257 81.9735 90.6257 82.0161C90.6257 82.0695 90.6853 82.0881 90.7187 82.0988L90.7711 82.1201C90.9022 82.1654 90.9594 82.2641 90.9594 82.3707C90.9594 82.592 90.7878 82.6666 90.6353 82.6666C90.528 82.6666 90.4303 82.6426 90.4184 82.64V82.44C90.4375 82.4453 90.5209 82.472 90.6067 82.472C90.7067 82.472 90.752 82.44 90.752 82.3894C90.752 82.3467 90.7115 82.32 90.6615 82.3041C90.6519 82.2987 90.6329 82.2934 90.621 82.2881C90.509 82.2481 90.416 82.1761 90.416 82.0295C90.416 81.8668 90.528 81.7549 90.7115 81.7549C90.8068 81.7549 90.8974 81.7815 90.9045 81.7842V81.9708ZM88.8736 80.8267C88.8736 80.7654 88.8259 80.7174 88.7735 80.7174C88.7187 80.7174 88.6758 80.7654 88.6758 80.8267V81.0559C88.6758 81.1173 88.7187 81.1679 88.7735 81.1679C88.8259 81.1679 88.8736 81.1173 88.8736 81.0559V80.8267ZM89.4126 80.5234C89.4126 80.4647 89.3674 80.4141 89.3125 80.4141C89.2601 80.4141 89.2148 80.4647 89.2148 80.5234V81.0565C89.2148 81.1179 89.2601 81.1685 89.3125 81.1685C89.3674 81.1685 89.4126 81.1179 89.4126 81.0565V80.5234ZM89.9537 80.1093C89.9537 80.048 89.9084 80 89.8536 80C89.8011 80 89.7559 80.048 89.7559 80.1093V81.277C89.7559 81.3356 89.8011 81.3863 89.8536 81.3863C89.9084 81.3863 89.9537 81.3356 89.9537 81.277V80.1093ZM90.4946 80.5234C90.4946 80.4647 90.4493 80.4141 90.3969 80.4141C90.342 80.4141 90.2968 80.4647 90.2968 80.5234V81.0565C90.2968 81.1179 90.342 81.1685 90.3969 81.1685C90.4493 81.1685 90.4946 81.1179 90.4946 81.0565V80.5234ZM91.0355 80.8266C91.0355 80.7653 90.9902 80.7173 90.9354 80.7173C90.883 80.7173 90.8377 80.7653 90.8377 80.8266V81.0559C90.8377 81.1172 90.883 81.1678 90.9354 81.1678C90.9902 81.1678 91.0355 81.1172 91.0355 81.0559V80.8266ZM91.5747 80.5234C91.5747 80.4647 91.5295 80.4141 91.4747 80.4141C91.4222 80.4141 91.377 80.4647 91.377 80.5234V81.0565C91.377 81.1179 91.4222 81.1685 91.4747 81.1685C91.5295 81.1685 91.5747 81.1179 91.5747 81.0565V80.5234ZM92.1158 80.1093C92.1158 80.048 92.0729 80 92.0181 80C91.9632 80 91.918 80.048 91.918 80.1093V81.277C91.918 81.3356 91.9632 81.3863 92.0181 81.3863C92.0729 81.3863 92.1158 81.3356 92.1158 81.277V80.1093ZM92.6588 80.5234C92.6588 80.4647 92.6136 80.4141 92.5588 80.4141C92.5039 80.4141 92.461 80.4647 92.461 80.5234V81.0565C92.461 81.1179 92.5039 81.1685 92.5588 81.1685C92.6136 81.1685 92.6588 81.1179 92.6588 81.0565V80.5234ZM93.1997 80.8266C93.1997 80.7653 93.1545 80.7173 93.102 80.7173C93.0472 80.7173 93.002 80.7653 93.002 80.8266V81.0559C93.002 81.1172 93.0472 81.1678 93.102 81.1678C93.1545 81.1678 93.1997 81.1172 93.1997 81.0559V80.8266Z" fill="#908E8E"/>
<path fill-rule="evenodd" clip-rule="evenodd" d="M133.703 81.3333C133.703 82.0707 133.11 82.6667 132.379 82.6667C131.648 82.6667 131.055 82.0707 131.055 81.3333C131.055 80.596 131.648 80 132.379 80C133.11 80 133.703 80.596 133.703 81.3333Z" fill="white" fill-opacity="0.6"/>
<path fill-rule="evenodd" clip-rule="evenodd" d="M93.9733 4C93.9733 1.79067 92.1947 0 90.0003 0C87.8059 0 86.0273 1.79067 86.0273 4C86.0273 6.20933 87.8059 8 90.0003 8C92.1947 8 93.9733 6.20933 93.9733 4Z" fill="url(#paint2_linear_23745_11666)"/>
<path fill-rule="evenodd" clip-rule="evenodd" d="M92.6489 4.00016C92.6489 2.52816 91.4623 1.3335 90.0002 1.3335C88.5382 1.3335 87.3516 2.52816 87.3516 4.00016C87.3516 5.47216 88.5382 6.66683 90.0002 6.66683C91.4623 6.66683 92.6489 5.47216 92.6489 4.00016Z" fill="#232323"/>
<path fill-rule="evenodd" clip-rule="evenodd" d="M133.04 60H46.959C46.5935 60 46.2969 59.7013 46.2969 59.3333V12.6667C46.2969 12.2987 46.5935 12 46.959 12H133.04C133.406 12 133.702 12.2987 133.702 12.6667V59.3333C133.702 59.7013 133.406 60 133.04 60Z" fill="#222222"/>
<path fill-rule="evenodd" clip-rule="evenodd" d="M133.04 60H46.959C46.5935 60 46.2969 59.7013 46.2969 59.3333V12.6667C46.2969 12.2987 46.5935 12 46.959 12H133.04C133.406 12 133.702 12.2987 133.702 12.6667V59.3333C133.702 59.7013 133.406 60 133.04 60Z" fill="url(#paint3_linear_23745_11666)"/>
<path fill-rule="evenodd" clip-rule="evenodd" d="M91.3244 3.99984C91.3244 3.2625 90.7311 2.6665 90.0001 2.6665C89.2691 2.6665 88.6758 3.2625 88.6758 3.99984C88.6758 4.73717 89.2691 5.33317 90.0001 5.33317C90.7311 5.33317 91.3244 4.73717 91.3244 3.99984Z" fill="#494E5C"/>
</g>
<defs>
<linearGradient id="paint0_linear_23745_11666" x1="45.7055" y1="84.6668" x2="45.7055" y2="95.8282" gradientUnits="userSpaceOnUse">
<stop stop-color="#CFCFCF"/>
<stop offset="1" stop-color="#E6E6E6"/>
</linearGradient>
<linearGradient id="paint1_linear_23745_11666" x1="125.164" y1="84.6668" x2="125.164" y2="95.8282" gradientUnits="userSpaceOnUse">
<stop stop-color="#CFCFCF"/>
<stop offset="1" stop-color="#E6E6E6"/>
</linearGradient>
<linearGradient id="paint2_linear_23745_11666" x1="86.3171" y1="0.289536" x2="86.3171" y2="7.70611" gradientUnits="userSpaceOnUse">
<stop stop-color="#424242"/>
<stop offset="1" stop-color="#656565"/>
</linearGradient>
<linearGradient id="paint3_linear_23745_11666" x1="2.59417" y1="36" x2="43.0986" y2="109.756" gradientUnits="userSpaceOnUse">
<stop stop-color="white" stop-opacity="0.24"/>
<stop offset="1" stop-opacity="0.5"/>
</linearGradient>
<clipPath id="clip0_23745_11666">
<rect width="180" height="96" fill="white"/>
</clipPath>
</defs>
</svg>
