<svg width="180" height="96" viewBox="0 0 180 96" fill="none" xmlns="http://www.w3.org/2000/svg">
<g clip-path="url(#clip0_23745_11700)">
<path d="M47.2946 92.0001H39.7978C38.6664 92.0001 37.75 90.8889 37.75 89.5197V70.9167H52.0844L49.3107 89.9513C49.1387 91.1369 48.2878 92.0001 47.2946 92.0001Z" fill="url(#paint0_linear_23745_11700)"/>
<g filter="url(#filter0_i_23745_11700)">
<path d="M47.2946 92.0001H39.7978C38.6664 92.0001 37.75 90.8889 37.75 89.5197V70.9167H52.0844L49.3107 89.9513C49.1387 91.1369 48.2878 92.0001 47.2946 92.0001Z" fill="black"/>
</g>
<path d="M133.289 91.9998H140.786C141.918 91.9998 142.834 90.8886 142.834 89.5194V70.9165H128.5L131.273 89.951C131.445 91.1367 132.296 91.9998 133.289 91.9998Z" fill="url(#paint1_linear_23745_11700)"/>
<g filter="url(#filter1_i_23745_11700)">
<path d="M133.289 91.9998H140.786C141.918 91.9998 142.834 90.8886 142.834 89.5194V70.9165H128.5L131.273 89.951C131.445 91.1367 132.296 91.9998 133.289 91.9998Z" fill="black"/>
</g>
<path d="M35 74H145V88.1667C145 89.7315 143.769 91 142.25 91H37.75C36.2312 91 35 89.7315 35 88.1667V74Z" fill="#C5C5C5"/>
<g filter="url(#filter2_iiii_23745_11700)">
<path d="M35 74H145V88.1667C145 89.7315 143.769 91 142.25 91H37.75C36.2312 91 35 89.7315 35 88.1667V74Z" fill="black"/>
</g>
<path d="M35 74H145V88.7307C145 89.984 143.974 91 142.708 91H37.2917C36.026 91 35 89.984 35 88.7307V74Z" fill="url(#paint2_linear_23745_11700)"/>
<path d="M35 74H145V88.7307C145 89.984 143.974 91 142.708 91H37.2917C36.026 91 35 89.984 35 88.7307V74Z" fill="url(#paint3_linear_23745_11700)"/>
<path fill-rule="evenodd" clip-rule="evenodd" d="M145 74V88.937C145 89.5067 144.773 90.0224 144.406 90.3958C144.04 90.7691 143.533 91 142.973 91H37.0268C36.4671 91 35.9604 90.7691 35.5936 90.3958C35.2269 90.0224 35 89.5067 35 88.937V74H145Z" fill="url(#paint4_linear_23745_11700)"/>
<path fill-rule="evenodd" clip-rule="evenodd" d="M144.4 88.937V74.6H35.6V88.937C35.6 89.3446 35.7617 89.7107 36.0216 89.9753C36.2814 90.2397 36.6362 90.4 37.0268 90.4H142.973C143.364 90.4 143.719 90.2397 143.978 89.9753C144.238 89.7107 144.4 89.3446 144.4 88.937ZM145 74H35V88.937C35 89.5067 35.2269 90.0224 35.5936 90.3958C35.9604 90.7691 36.4671 91 37.0268 91H142.973C143.533 91 144.04 90.7691 144.406 90.3958C144.773 90.0224 145 89.5067 145 88.937V74Z" fill="url(#paint5_linear_23745_11700)"/>
<path fill-rule="evenodd" clip-rule="evenodd" d="M144.5 88.937V74.5H35.5V88.937C35.5 89.3716 35.6726 89.7626 35.9503 90.0453C36.2279 90.3279 36.608 90.5 37.0268 90.5H142.973C143.392 90.5 143.772 90.3279 144.05 90.0453C144.327 89.7626 144.5 89.3716 144.5 88.937ZM145 74H35V88.937C35 89.5067 35.2269 90.0224 35.5936 90.3958C35.9604 90.7691 36.4671 91 37.0268 91H142.973C143.533 91 144.04 90.7691 144.406 90.3958C144.773 90.0224 145 89.5067 145 88.937V74Z" fill="#999999" fill-opacity="0.48"/>
<path fill-rule="evenodd" clip-rule="evenodd" d="M144.6 88.937V74.4H35.4V88.937C35.4 89.3986 35.5834 89.8146 35.879 90.1154C36.1744 90.4161 36.5798 90.6 37.0268 90.6H142.973C143.42 90.6 143.826 90.4161 144.121 90.1154C144.417 89.8146 144.6 89.3986 144.6 88.937ZM145 74H35V88.937C35 89.5067 35.2269 90.0224 35.5936 90.3958C35.9604 90.7691 36.4671 91 37.0268 91H142.973C143.533 91 144.04 90.7691 144.406 90.3958C144.773 90.0224 145 89.5067 145 88.937V74Z" fill="#151B1E" fill-opacity="0.12"/>
<path d="M145 74.5833H35V7.00355C35 5.34559 36.3319 4 37.973 4H142.027C143.668 4 145 5.34559 145 7.00355V74.5833Z" fill="#1A1A1A"/>
<g filter="url(#filter3_i_23745_11700)">
<path d="M145 74.5833H35V7.00355C35 5.34559 36.3319 4 37.973 4H142.027C143.668 4 145 5.34559 145 7.00355V74.5833Z" fill="black"/>
</g>
<path fill-rule="evenodd" clip-rule="evenodd" d="M142.536 71.7916C142.536 72.4674 141.99 73.0138 141.316 73.0138C140.642 73.0138 140.096 72.4674 140.096 71.7916C140.096 71.1157 140.642 70.5693 141.316 70.5693C141.99 70.5693 142.536 71.1157 142.536 71.7916Z" stroke="#474747" stroke-width="0.3"/>
<path fill-rule="evenodd" clip-rule="evenodd" d="M131.554 73.0138H136.436C137.109 73.0138 137.656 72.4674 137.656 71.7916C137.656 71.1157 137.109 70.5693 136.436 70.5693H131.554C130.881 70.5693 130.334 71.1157 130.334 71.7916C130.334 72.4674 130.881 73.0138 131.554 73.0138Z" stroke="#474747" stroke-width="0.3"/>
<path d="M90 8.125C90.7594 8.125 91.375 7.50939 91.375 6.75C91.375 5.99061 90.7594 5.375 90 5.375C89.2406 5.375 88.625 5.99061 88.625 6.75C88.625 7.50939 89.2406 8.125 90 8.125Z" fill="#232323"/>
<path d="M90.0006 7.66683C90.5069 7.66683 90.9173 7.25642 90.9173 6.75016C90.9173 6.2439 90.5069 5.8335 90.0006 5.8335C89.4944 5.8335 89.084 6.2439 89.084 6.75016C89.084 7.25642 89.4944 7.66683 90.0006 7.66683Z" fill="#555B6C"/>
<path fill-rule="evenodd" clip-rule="evenodd" d="M91.5983 83.729C91.884 83.729 92.0885 83.9379 92.0885 84.1964C92.0885 84.4548 91.884 84.6665 91.5983 84.6665C91.3154 84.6665 91.1109 84.4548 91.1109 84.1964C91.1109 83.9379 91.3154 83.729 91.5983 83.729ZM89.6439 83.7265C89.7559 83.7265 89.8624 83.754 89.8708 83.7568V83.9492C89.868 83.9492 89.77 83.9217 89.6887 83.9217C89.5935 83.9217 89.5431 83.952 89.5431 83.9959C89.5431 84.0509 89.6131 84.0702 89.6523 84.0812L89.7139 84.1032C89.868 84.1499 89.9352 84.2516 89.9352 84.3616C89.9352 84.5898 89.7335 84.6667 89.5543 84.6667C89.4282 84.6667 89.3134 84.642 89.2994 84.6393V84.4331C89.3218 84.4386 89.4198 84.4661 89.5206 84.4661C89.6383 84.4661 89.6915 84.4331 89.6915 84.3808C89.6915 84.3368 89.6439 84.3094 89.5851 84.2929C89.5739 84.2874 89.5515 84.2819 89.5375 84.2764C89.4058 84.2351 89.2966 84.1609 89.2966 84.0097C89.2966 83.842 89.4282 83.7265 89.6439 83.7265ZM90.6521 83.7279C90.7613 83.7279 90.8425 83.7526 90.8649 83.7609V84.0028C90.8565 84.0001 90.7809 83.9533 90.6689 83.9533C90.5176 83.9533 90.414 84.0578 90.414 84.198C90.414 84.3327 90.5148 84.4399 90.6689 84.4399C90.7781 84.4399 90.8565 84.396 90.8649 84.3905V84.6324C90.8369 84.6434 90.7557 84.6654 90.6521 84.6654C90.3915 84.6654 90.1618 84.4867 90.1618 84.198C90.1618 83.9258 90.3691 83.7279 90.6521 83.7279ZM88.2217 83.7279C88.331 83.7279 88.4122 83.7526 88.4318 83.7609V84.0028C88.4234 84.0001 88.3478 83.9533 88.2357 83.9533C88.0845 83.9533 87.9808 84.0578 87.9808 84.198C87.9808 84.3327 88.0817 84.4399 88.2357 84.4399C88.345 84.4399 88.4234 84.396 88.4318 84.3905V84.6324C88.4038 84.6434 88.3254 84.6654 88.2217 84.6654C87.9584 84.6654 87.7287 84.4867 87.7287 84.198C87.7287 83.9258 87.936 83.7279 88.2217 83.7279ZM88.9848 83.7422V84.6494H88.7523V83.7422H88.9848ZM91.5983 83.9572C91.461 83.9572 91.3574 84.0672 91.3574 84.1964C91.3574 84.3283 91.461 84.4355 91.5983 84.4355C91.7384 84.4355 91.8392 84.3283 91.8392 84.1964C91.8392 84.0672 91.7384 83.9572 91.5983 83.9572ZM88.6355 81.9167C88.6999 81.9167 88.7531 81.9662 88.7531 82.0295V83.2336C88.7531 83.2941 88.6999 83.3463 88.6355 83.3463C88.5738 83.3463 88.5206 83.2941 88.5206 83.2336V82.0295C88.5206 81.9662 88.5738 81.9167 88.6355 81.9167ZM91.1798 81.9167C91.2442 81.9167 91.2946 81.9662 91.2946 82.0295V83.2336C91.2946 83.2941 91.2442 83.3463 91.1798 83.3463C91.1154 83.3463 91.0621 83.2941 91.0621 83.2336V82.0295C91.0621 81.9662 91.1154 81.9167 91.1798 81.9167ZM87.9996 82.3437C88.064 82.3437 88.1173 82.3959 88.1173 82.4564V83.0062C88.1173 83.0695 88.064 83.1217 87.9996 83.1217C87.938 83.1217 87.8848 83.0695 87.8848 83.0062V82.4564C87.8848 82.3959 87.938 82.3437 87.9996 82.3437ZM89.273 82.3437C89.3346 82.3437 89.3879 82.3959 89.3879 82.4564V83.0062C89.3879 83.0695 89.3346 83.1217 89.273 83.1217C89.2086 83.1217 89.1554 83.0695 89.1554 83.0062V82.4564C89.1554 82.3959 89.2086 82.3437 89.273 82.3437ZM90.5408 82.3437C90.6053 82.3437 90.6585 82.3959 90.6585 82.4564V83.0062C90.6585 83.0695 90.6053 83.1217 90.5408 83.1217C90.4792 83.1217 90.426 83.0695 90.426 83.0062V82.4564C90.426 82.3959 90.4792 82.3437 90.5408 82.3437ZM91.8143 82.3437C91.8787 82.3437 91.9319 82.3959 91.9319 82.4564V83.0062C91.9319 83.0695 91.8787 83.1217 91.8143 83.1217C91.7498 83.1217 91.6994 83.0695 91.6994 83.0062V82.4564C91.6994 82.3959 91.7498 82.3437 91.8143 82.3437ZM87.3648 82.6566C87.4265 82.6566 87.4825 82.706 87.4825 82.7693V83.0057C87.4825 83.0689 87.4265 83.1212 87.3648 83.1212C87.3004 83.1212 87.25 83.0689 87.25 83.0057V82.7693C87.25 82.706 87.3004 82.6566 87.3648 82.6566ZM89.9061 82.6566C89.9705 82.6566 90.0237 82.706 90.0237 82.7693V83.0057C90.0237 83.0689 89.9705 83.1212 89.9061 83.1212C89.8445 83.1212 89.7912 83.0689 89.7912 83.0057V82.7693C89.7912 82.706 89.8445 82.6566 89.9061 82.6566ZM92.4518 82.6566C92.5134 82.6566 92.5667 82.706 92.5667 82.7693V83.0057C92.5667 83.0689 92.5134 83.1212 92.4518 83.1212C92.3874 83.1212 92.3342 83.0689 92.3342 83.0057V82.7693C92.3342 82.706 92.3874 82.6566 92.4518 82.6566Z" fill="white"/>
<path d="M90 73.2083C90.7594 73.2083 91.375 72.5926 91.375 71.8333C91.375 71.0739 90.7594 70.4583 90 70.4583C89.2406 70.4583 88.625 71.0739 88.625 71.8333C88.625 72.5926 89.2406 73.2083 90 73.2083Z" stroke="white" stroke-opacity="0.6" stroke-width="0.3"/>
<path d="M142.362 69.0833H37.6395C37.1949 69.0833 36.834 68.7126 36.834 68.2558V10.3275C36.834 9.87074 37.1949 9.5 37.6395 9.5H142.362C142.806 9.5 143.167 9.87074 143.167 10.3275V68.2558C143.167 68.7126 142.806 69.0833 142.362 69.0833Z" fill="#222222"/>
<path d="M142.362 69.0833H37.6395C37.1949 69.0833 36.834 68.7126 36.834 68.2558V10.3275C36.834 9.87074 37.1949 9.5 37.6395 9.5H142.362C142.806 9.5 143.167 9.87074 143.167 10.3275V68.2558C143.167 68.7126 142.806 69.0833 142.362 69.0833Z" fill="url(#paint6_linear_23745_11700)"/>
</g>
<defs>
<filter id="filter0_i_23745_11700" x="37.75" y="70.9167" width="14.334" height="21.0833" filterUnits="userSpaceOnUse" color-interpolation-filters="sRGB">
<feFlood flood-opacity="0" result="BackgroundImageFix"/>
<feBlend mode="normal" in="SourceGraphic" in2="BackgroundImageFix" result="shape"/>
<feColorMatrix in="SourceAlpha" type="matrix" values="0 0 0 0 0 0 0 0 0 0 0 0 0 0 0 0 0 0 127 0" result="hardAlpha"/>
<feOffset/>
<feGaussianBlur stdDeviation="2"/>
<feComposite in2="hardAlpha" operator="arithmetic" k2="-1" k3="1"/>
<feColorMatrix type="matrix" values="0 0 0 0 0 0 0 0 0 0 0 0 0 0 0 0 0 0 0.08 0"/>
<feBlend mode="normal" in2="shape" result="effect1_innerShadow_23745_11700"/>
</filter>
<filter id="filter1_i_23745_11700" x="128.5" y="70.9165" width="14.334" height="21.0833" filterUnits="userSpaceOnUse" color-interpolation-filters="sRGB">
<feFlood flood-opacity="0" result="BackgroundImageFix"/>
<feBlend mode="normal" in="SourceGraphic" in2="BackgroundImageFix" result="shape"/>
<feColorMatrix in="SourceAlpha" type="matrix" values="0 0 0 0 0 0 0 0 0 0 0 0 0 0 0 0 0 0 127 0" result="hardAlpha"/>
<feOffset/>
<feGaussianBlur stdDeviation="2"/>
<feComposite in2="hardAlpha" operator="arithmetic" k2="-1" k3="1"/>
<feColorMatrix type="matrix" values="0 0 0 0 0 0 0 0 0 0 0 0 0 0 0 0 0 0 0.08 0"/>
<feBlend mode="normal" in2="shape" result="effect1_innerShadow_23745_11700"/>
</filter>
<filter id="filter2_iiii_23745_11700" x="35" y="74" width="110" height="17" filterUnits="userSpaceOnUse" color-interpolation-filters="sRGB">
<feFlood flood-opacity="0" result="BackgroundImageFix"/>
<feBlend mode="normal" in="SourceGraphic" in2="BackgroundImageFix" result="shape"/>
<feColorMatrix in="SourceAlpha" type="matrix" values="0 0 0 0 0 0 0 0 0 0 0 0 0 0 0 0 0 0 127 0" result="hardAlpha"/>
<feOffset/>
<feGaussianBlur stdDeviation="2"/>
<feComposite in2="hardAlpha" operator="arithmetic" k2="-1" k3="1"/>
<feColorMatrix type="matrix" values="0 0 0 0 0 0 0 0 0 0 0 0 0 0 0 0 0 0 0.08 0"/>
<feBlend mode="normal" in2="shape" result="effect1_innerShadow_23745_11700"/>
<feColorMatrix in="SourceAlpha" type="matrix" values="0 0 0 0 0 0 0 0 0 0 0 0 0 0 0 0 0 0 127 0" result="hardAlpha"/>
<feOffset/>
<feGaussianBlur stdDeviation="2"/>
<feComposite in2="hardAlpha" operator="arithmetic" k2="-1" k3="1"/>
<feColorMatrix type="matrix" values="0 0 0 0 0 0 0 0 0 0 0 0 0 0 0 0 0 0 0.04 0"/>
<feBlend mode="normal" in2="effect1_innerShadow_23745_11700" result="effect2_innerShadow_23745_11700"/>
<feColorMatrix in="SourceAlpha" type="matrix" values="0 0 0 0 0 0 0 0 0 0 0 0 0 0 0 0 0 0 127 0" result="hardAlpha"/>
<feOffset/>
<feGaussianBlur stdDeviation="2"/>
<feComposite in2="hardAlpha" operator="arithmetic" k2="-1" k3="1"/>
<feColorMatrix type="matrix" values="0 0 0 0 0 0 0 0 0 0 0 0 0 0 0 0 0 0 0.08 0"/>
<feBlend mode="normal" in2="effect2_innerShadow_23745_11700" result="effect3_innerShadow_23745_11700"/>
<feColorMatrix in="SourceAlpha" type="matrix" values="0 0 0 0 0 0 0 0 0 0 0 0 0 0 0 0 0 0 127 0" result="hardAlpha"/>
<feOffset/>
<feGaussianBlur stdDeviation="2"/>
<feComposite in2="hardAlpha" operator="arithmetic" k2="-1" k3="1"/>
<feColorMatrix type="matrix" values="0 0 0 0 0 0 0 0 0 0 0 0 0 0 0 0 0 0 0.04 0"/>
<feBlend mode="normal" in2="effect3_innerShadow_23745_11700" result="effect4_innerShadow_23745_11700"/>
</filter>
<filter id="filter3_i_23745_11700" x="35" y="4" width="110" height="70.5833" filterUnits="userSpaceOnUse" color-interpolation-filters="sRGB">
<feFlood flood-opacity="0" result="BackgroundImageFix"/>
<feBlend mode="normal" in="SourceGraphic" in2="BackgroundImageFix" result="shape"/>
<feColorMatrix in="SourceAlpha" type="matrix" values="0 0 0 0 0 0 0 0 0 0 0 0 0 0 0 0 0 0 127 0" result="hardAlpha"/>
<feOffset/>
<feGaussianBlur stdDeviation="2"/>
<feComposite in2="hardAlpha" operator="arithmetic" k2="-1" k3="1"/>
<feColorMatrix type="matrix" values="0 0 0 0 1 0 0 0 0 1 0 0 0 0 1 0 0 0 0.6 0"/>
<feBlend mode="normal" in2="shape" result="effect1_innerShadow_23745_11700"/>
</filter>
<linearGradient id="paint0_linear_23745_11700" x1="44.9172" y1="81.4584" x2="44.9172" y2="91.8401" gradientUnits="userSpaceOnUse">
<stop stop-color="#CACACA"/>
<stop offset="1" stop-color="#989898"/>
</linearGradient>
<linearGradient id="paint1_linear_23745_11700" x1="135.667" y1="81.4582" x2="135.667" y2="91.8399" gradientUnits="userSpaceOnUse">
<stop stop-color="#CACACA"/>
<stop offset="1" stop-color="#989898"/>
</linearGradient>
<linearGradient id="paint2_linear_23745_11700" x1="35" y1="83.8187" x2="145" y2="83.8187" gradientUnits="userSpaceOnUse">
<stop stop-color="#E4E4E4"/>
<stop offset="1" stop-color="#A8A8A8"/>
</linearGradient>
<linearGradient id="paint3_linear_23745_11700" x1="90" y1="87.818" x2="90" y2="91" gradientUnits="userSpaceOnUse">
<stop stop-opacity="0"/>
<stop offset="1" stop-opacity="0.08"/>
</linearGradient>
<linearGradient id="paint4_linear_23745_11700" x1="90" y1="78.6108" x2="90" y2="91" gradientUnits="userSpaceOnUse">
<stop stop-opacity="0"/>
<stop offset="1" stop-opacity="0.08"/>
</linearGradient>
<linearGradient id="paint5_linear_23745_11700" x1="90" y1="74" x2="90" y2="91" gradientUnits="userSpaceOnUse">
<stop stop-color="#E9E9E8"/>
<stop offset="1" stop-color="#E0E2E5"/>
</linearGradient>
<linearGradient id="paint6_linear_23745_11700" x1="36.834" y1="29.9375" x2="125.736" y2="79.7535" gradientUnits="userSpaceOnUse">
<stop stop-color="white" stop-opacity="0.24"/>
<stop offset="1" stop-opacity="0.5"/>
</linearGradient>
<clipPath id="clip0_23745_11700">
<rect width="180" height="96" fill="white"/>
</clipPath>
</defs>
</svg>
