<svg width="1080" height="576" viewBox="0 0 1080 576" fill="none" xmlns="http://www.w3.org/2000/svg">
<g clip-path="url(#clip0_23746_2128)">
<path fill-rule="evenodd" clip-rule="evenodd" d="M683.996 569.98H675.996V574.496C675.996 575.327 676.892 576.001 677.996 576.001H681.996C683.1 576.001 683.996 575.327 683.996 574.496V569.98Z" fill="#222222"/>
<path fill-rule="evenodd" clip-rule="evenodd" d="M404 569.98H396V574.496C396 575.327 396.896 576.001 398 576.001H402C403.104 576.001 404 575.327 404 574.496V569.98Z" fill="#222222"/>
<path fill-rule="evenodd" clip-rule="evenodd" d="M659.996 513.785H651.996V518.301C651.996 519.132 652.892 519.806 653.996 519.806H657.996C659.1 519.806 659.996 519.132 659.996 518.301V513.785Z" fill="#222222"/>
<path fill-rule="evenodd" clip-rule="evenodd" d="M428 513.785H420V518.301C420 519.132 420.896 519.806 422 519.806H426C427.104 519.806 428 519.132 428 518.301V513.785Z" fill="#222222"/>
<path fill-rule="evenodd" clip-rule="evenodd" d="M396 569.979H404V561.951H396V569.979Z" fill="#D5D5D5"/>
<g filter="url(#filter0_d_23746_2128)">
<path d="M523.068 525.986L660.001 503.107V504.891L538.99 529.301L677.029 556.786V558.874L528.492 533.812V533.515L397.612 560.182H383.861L397.612 558.017L515.578 529.36L411.998 500.938L523.068 525.986Z" fill="black" fill-opacity="0.01"/>
</g>
<path fill-rule="evenodd" clip-rule="evenodd" d="M532 521.812L420 505.756V513.784L532 537.867V521.812Z" fill="#D4D4D4"/>
<path fill-rule="evenodd" clip-rule="evenodd" d="M675.996 569.977H683.996V561.949H675.996V569.977Z" fill="#D6D6D6"/>
<g filter="url(#filter1_i_23746_2128)">
<path fill-rule="evenodd" clip-rule="evenodd" d="M660.004 505.758L548.004 521.814V537.869L660.004 513.786V505.758Z" fill="#FDFDFD"/>
</g>
<rect x="531.996" y="289.002" width="24" height="240.836" fill="url(#paint0_linear_23746_2128)"/>
<path fill-rule="evenodd" clip-rule="evenodd" d="M540.004 521.812L404.004 562.241V570.269L540.004 538.158V521.812Z" fill="url(#paint1_linear_23746_2128)"/>
<path fill-rule="evenodd" clip-rule="evenodd" d="M539.996 521.812L675.996 562.241V570.269L539.996 538.158V521.812Z" fill="url(#paint2_linear_23746_2128)"/>
<path fill-rule="evenodd" clip-rule="evenodd" d="M396 561.952L532 521.812H540L404 561.952H396Z" fill="url(#paint3_linear_23746_2128)"/>
<path fill-rule="evenodd" clip-rule="evenodd" d="M684 561.952L548 521.812H540L676 561.952H684Z" fill="url(#paint4_linear_23746_2128)"/>
<path fill-rule="evenodd" clip-rule="evenodd" d="M748 289.003H332C327.584 289.003 324 285.415 324 280.976V8.02787C324 3.58846 327.584 0 332 0H748C752.416 0 756 3.58846 756 8.02787V280.976C756 285.415 752.416 289.003 748 289.003Z" fill="#E0E0E0"/>
<path fill-rule="evenodd" clip-rule="evenodd" d="M535.852 280.924H536.449V278.276H535.852V280.924ZM541.279 279.036C541.258 279.028 541.063 278.892 540.776 278.892C540.387 278.892 540.121 279.197 540.121 279.606C540.121 279.999 540.38 280.312 540.776 280.312C541.056 280.312 541.258 280.184 541.279 280.168V280.874C541.207 280.906 540.999 280.971 540.732 280.971C540.063 280.971 539.473 280.449 539.473 279.606C539.473 278.812 540.005 278.234 540.732 278.234C541.013 278.234 541.222 278.306 541.279 278.33V279.036ZM535.034 279.036C535.012 279.028 534.818 278.892 534.53 278.892C534.141 278.892 533.875 279.197 533.875 279.606C533.875 279.999 534.134 280.312 534.53 280.312C534.81 280.312 535.012 280.184 535.034 280.168V280.874C534.962 280.906 534.76 280.971 534.494 280.971C533.817 280.971 533.227 280.449 533.227 279.606C533.227 278.812 533.76 278.234 534.494 278.234C534.774 278.234 534.983 278.306 535.034 278.33V279.036ZM543.174 278.902C542.821 278.902 542.555 279.223 542.555 279.601C542.555 279.986 542.821 280.299 543.174 280.299C543.533 280.299 543.793 279.986 543.793 279.601C543.793 279.223 543.533 278.902 543.174 278.902ZM544.434 279.602C544.434 280.357 543.908 280.975 543.174 280.975C542.447 280.975 541.922 280.357 541.922 279.602C541.922 278.848 542.447 278.238 543.174 278.238C543.908 278.238 544.434 278.848 544.434 279.602ZM538.733 278.88C538.726 278.88 538.474 278.799 538.266 278.799C538.021 278.799 537.891 278.888 537.891 279.016C537.891 279.177 538.071 279.233 538.172 279.265L538.33 279.329C538.726 279.466 538.899 279.762 538.899 280.083C538.899 280.75 538.381 280.974 537.92 280.974C537.596 280.974 537.301 280.902 537.265 280.894V280.292C537.323 280.308 537.575 280.388 537.834 280.388C538.136 280.388 538.273 280.292 538.273 280.14C538.273 280.011 538.15 279.931 537.999 279.883C537.971 279.867 537.913 279.851 537.877 279.835C537.539 279.714 537.258 279.498 537.258 279.056C537.258 278.567 537.596 278.23 538.15 278.23C538.438 278.23 538.712 278.31 538.733 278.318V278.88ZM532.594 275.436C532.594 275.251 532.45 275.107 532.291 275.107C532.126 275.107 531.996 275.251 531.996 275.436V276.126C531.996 276.31 532.126 276.463 532.291 276.463C532.45 276.463 532.594 276.31 532.594 276.126V275.436ZM534.222 274.518C534.222 274.342 534.085 274.189 533.92 274.189C533.761 274.189 533.625 274.342 533.625 274.518V276.123C533.625 276.308 533.761 276.461 533.92 276.461C534.085 276.461 534.222 276.308 534.222 276.123V274.518ZM535.851 273.276C535.851 273.092 535.715 272.947 535.549 272.947C535.391 272.947 535.254 273.092 535.254 273.276V276.791C535.254 276.968 535.391 277.121 535.549 277.121C535.715 277.121 535.851 276.968 535.851 276.791V273.276ZM537.491 274.518C537.491 274.342 537.355 274.189 537.196 274.189C537.031 274.189 536.894 274.342 536.894 274.518V276.123C536.894 276.308 537.031 276.461 537.196 276.461C537.355 276.461 537.491 276.308 537.491 276.123V274.518ZM539.121 275.436C539.121 275.251 538.984 275.107 538.819 275.107C538.66 275.107 538.524 275.251 538.524 275.436V276.126C538.524 276.31 538.66 276.463 538.819 276.463C538.984 276.463 539.121 276.31 539.121 276.126V275.436ZM540.749 274.518C540.749 274.342 540.613 274.189 540.447 274.189C540.289 274.189 540.152 274.342 540.152 274.518V276.123C540.152 276.308 540.289 276.461 540.447 276.461C540.613 276.461 540.749 276.308 540.749 276.123V274.518ZM542.389 273.276C542.389 273.092 542.26 272.947 542.094 272.947C541.929 272.947 541.792 273.092 541.792 273.276V276.791C541.792 276.968 541.929 277.121 542.094 277.121C542.26 277.121 542.389 276.968 542.389 276.791V273.276ZM544.031 274.518C544.031 274.342 543.894 274.189 543.728 274.189C543.563 274.189 543.433 274.342 543.433 274.518V276.123C543.433 276.308 543.563 276.461 543.728 276.461C543.894 276.461 544.031 276.308 544.031 276.123V274.518ZM545.66 275.436C545.66 275.251 545.523 275.107 545.365 275.107C545.199 275.107 545.063 275.251 545.063 275.436V276.126C545.063 276.31 545.199 276.463 545.365 276.463C545.523 276.463 545.66 276.31 545.66 276.126V275.436Z" fill="#908E8E"/>
<path fill-rule="evenodd" clip-rule="evenodd" d="M743.019 267H336.981C334.783 267 333 265.176 333 262.929V43.0714C333 40.824 334.783 39 336.981 39H743.019C745.217 39 747 40.824 747 43.0714V262.929C747 265.176 745.217 267 743.019 267Z" fill="#222222"/>
<path fill-rule="evenodd" clip-rule="evenodd" d="M743.019 267H336.981C334.783 267 333 265.176 333 262.929V43.0714C333 40.824 334.783 39 336.981 39H743.019C745.217 39 747 40.824 747 43.0714V262.929C747 265.176 745.217 267 743.019 267Z" fill="url(#paint5_linear_23746_2128)"/>
<path fill-rule="evenodd" clip-rule="evenodd" d="M547.5 22.5C547.5 18.3525 544.14 15 540 15C535.86 15 532.5 18.3525 532.5 22.5C532.5 26.6475 535.86 30 540 30C544.14 30 547.5 26.6475 547.5 22.5Z" fill="#232323"/>
<path fill-rule="evenodd" clip-rule="evenodd" d="M544.5 22.5C544.5 20.016 542.484 18 540 18C537.516 18 535.5 20.016 535.5 22.5C535.5 24.984 537.516 27 540 27C542.484 27 544.5 24.984 544.5 22.5Z" fill="#555B6C"/>
</g>
<defs>
<filter id="filter0_d_23746_2128" x="382.861" y="500.938" width="295.168" height="63.2441" filterUnits="userSpaceOnUse" color-interpolation-filters="sRGB">
<feFlood flood-opacity="0" result="BackgroundImageFix"/>
<feColorMatrix in="SourceAlpha" type="matrix" values="0 0 0 0 0 0 0 0 0 0 0 0 0 0 0 0 0 0 127 0" result="hardAlpha"/>
<feOffset dy="3"/>
<feGaussianBlur stdDeviation="0.5"/>
<feColorMatrix type="matrix" values="0 0 0 0 0 0 0 0 0 0 0 0 0 0 0 0 0 0 0.4 0"/>
<feBlend mode="normal" in2="BackgroundImageFix" result="effect1_dropShadow_23746_2128"/>
<feBlend mode="normal" in="SourceGraphic" in2="effect1_dropShadow_23746_2128" result="shape"/>
</filter>
<filter id="filter1_i_23746_2128" x="548.004" y="505.758" width="112" height="32.1113" filterUnits="userSpaceOnUse" color-interpolation-filters="sRGB">
<feFlood flood-opacity="0" result="BackgroundImageFix"/>
<feBlend mode="normal" in="SourceGraphic" in2="BackgroundImageFix" result="shape"/>
<feColorMatrix in="SourceAlpha" type="matrix" values="0 0 0 0 0 0 0 0 0 0 0 0 0 0 0 0 0 0 127 0" result="hardAlpha"/>
<feOffset/>
<feGaussianBlur stdDeviation="0.5"/>
<feComposite in2="hardAlpha" operator="arithmetic" k2="-1" k3="1"/>
<feColorMatrix type="matrix" values="0 0 0 0 0 0 0 0 0 0 0 0 0 0 0 0 0 0 0.08 0"/>
<feBlend mode="normal" in2="shape" result="effect1_innerShadow_23746_2128"/>
</filter>
<linearGradient id="paint0_linear_23746_2128" x1="532.681" y1="526.401" x2="555.996" y2="526.401" gradientUnits="userSpaceOnUse">
<stop stop-color="#C6C6C6"/>
<stop offset="0.259574" stop-color="#EAEAEA"/>
<stop offset="0.288679" stop-color="white"/>
<stop offset="0.332889" stop-color="#E9E9E9"/>
<stop offset="0.596324" stop-color="#B9B9B9"/>
<stop offset="0.823451" stop-color="white"/>
<stop offset="1" stop-color="white"/>
</linearGradient>
<linearGradient id="paint1_linear_23746_2128" x1="484.11" y1="506.107" x2="448.504" y2="588.789" gradientUnits="userSpaceOnUse">
<stop stop-color="#DCDBDB"/>
<stop offset="0.165395" stop-color="#F4F4F4"/>
<stop offset="1" stop-color="white"/>
</linearGradient>
<linearGradient id="paint2_linear_23746_2128" x1="598.342" y1="507.631" x2="633.245" y2="588.679" gradientUnits="userSpaceOnUse">
<stop stop-color="#C2C1C1"/>
<stop offset="0.165395" stop-color="#D6D6D6"/>
<stop offset="1" stop-color="#DFDFDF"/>
</linearGradient>
<linearGradient id="paint3_linear_23746_2128" x1="480.429" y1="508.672" x2="455.702" y2="582.066" gradientUnits="userSpaceOnUse">
<stop stop-color="#C2C2C2"/>
<stop offset="0.165395" stop-color="#E6E6E6"/>
<stop offset="1" stop-color="#EFEFEF"/>
</linearGradient>
<linearGradient id="paint4_linear_23746_2128" x1="743.571" y1="548.811" x2="728.764" y2="484.61" gradientUnits="userSpaceOnUse">
<stop stop-color="#EFEFEF"/>
<stop offset="0.881842" stop-color="#E6E6E6"/>
<stop offset="1" stop-color="#C2C2C2"/>
</linearGradient>
<linearGradient id="paint5_linear_23746_2128" x1="126" y1="153" x2="318.688" y2="502.882" gradientUnits="userSpaceOnUse">
<stop stop-color="white" stop-opacity="0.24"/>
<stop offset="1" stop-opacity="0.5"/>
</linearGradient>
<clipPath id="clip0_23746_2128">
<rect width="1080" height="576" fill="white"/>
</clipPath>
</defs>
</svg>
