<svg width="1400" height="747" viewBox="0 0 1400 747" fill="none" xmlns="http://www.w3.org/2000/svg">
<g clip-path="url(#clip0_23745_11702)">
<path fill-rule="evenodd" clip-rule="evenodd" d="M718.148 64.8477C716.986 64.8477 715.918 64.0592 715.628 62.8868L705.755 23.3477H694.244L684.372 62.8868C684.029 64.2667 682.619 65.0863 681.219 64.775C679.84 64.4223 679 63.0113 679.342 61.621L690.2 18.1602H709.8L720.658 61.621C721 63.0113 720.16 64.4223 718.781 64.775C718.563 64.8269 718.355 64.8477 718.148 64.8477" fill="#E9E9E9"/>
<mask id="path-2-inside-1_23745_11702" fill="white">
<path fill-rule="evenodd" clip-rule="evenodd" d="M658.52 25.9381C655.668 25.9381 653.335 28.2621 653.335 31.1256V93.3756C653.335 96.2391 655.668 98.5631 658.52 98.5631H741.483C744.335 98.5631 746.668 96.2391 746.668 93.3756V31.1256C746.668 28.2621 744.335 25.9381 741.483 25.9381H658.52ZM741.478 108.938H658.515C649.938 108.938 642.959 101.955 642.959 93.375V31.125C642.959 22.5449 649.938 15.5625 658.515 15.5625H741.478C750.054 15.5625 757.033 22.5449 757.033 31.125V93.375C757.033 101.955 750.054 108.938 741.478 108.938V108.938Z"/>
</mask>
<path fill-rule="evenodd" clip-rule="evenodd" d="M658.52 25.9381C655.668 25.9381 653.335 28.2621 653.335 31.1256V93.3756C653.335 96.2391 655.668 98.5631 658.52 98.5631H741.483C744.335 98.5631 746.668 96.2391 746.668 93.3756V31.1256C746.668 28.2621 744.335 25.9381 741.483 25.9381H658.52ZM741.478 108.938H658.515C649.938 108.938 642.959 101.955 642.959 93.375V31.125C642.959 22.5449 649.938 15.5625 658.515 15.5625H741.478C750.054 15.5625 757.033 22.5449 757.033 31.125V93.375C757.033 101.955 750.054 108.938 741.478 108.938V108.938Z" fill="url(#paint0_linear_23745_11702)"/>
<path d="M658.52 25.9381V25.4381C655.392 25.4381 652.835 27.9855 652.835 31.1256H653.335H653.835C653.835 28.5387 655.944 26.4381 658.52 26.4381V25.9381ZM653.335 31.1256H652.835V93.3756H653.335H653.835V31.1256H653.335ZM653.335 93.3756H652.835C652.835 96.5157 655.392 99.0631 658.52 99.0631V98.5631V98.0631C655.944 98.0631 653.835 95.9625 653.835 93.3756H653.335ZM658.52 98.5631V99.0631H741.483V98.5631V98.0631H658.52V98.5631ZM741.483 98.5631V99.0631C744.61 99.0631 747.168 96.5157 747.168 93.3756H746.668H746.168C746.168 95.9625 744.059 98.0631 741.483 98.0631V98.5631ZM746.668 93.3756H747.168V31.1256H746.668H746.168V93.3756H746.668ZM746.668 31.1256H747.168C747.168 27.9855 744.61 25.4381 741.483 25.4381V25.9381V26.4381C744.059 26.4381 746.168 28.5387 746.168 31.1256H746.668ZM741.483 25.9381V25.4381H658.52V25.9381V26.4381H741.483V25.9381ZM741.478 108.938V108.438H658.515V108.938V109.438H741.478V108.938ZM658.515 108.938V108.438C650.215 108.438 643.459 101.679 643.459 93.375H642.959H642.459C642.459 102.231 649.662 109.438 658.515 109.438V108.938ZM642.959 93.375H643.459V31.125H642.959H642.459V93.375H642.959ZM642.959 31.125H643.459C643.459 22.8208 650.215 16.0625 658.515 16.0625V15.5625V15.0625C649.662 15.0625 642.459 22.2689 642.459 31.125H642.959ZM658.515 15.5625V16.0625H741.478V15.5625V15.0625H658.515V15.5625ZM741.478 15.5625V16.0625C749.777 16.0625 756.533 22.8208 756.533 31.125H757.033H757.533C757.533 22.2689 750.33 15.0625 741.478 15.0625V15.5625ZM757.033 31.125H756.533V93.375H757.033H757.533V31.125H757.033ZM757.033 93.375H756.533C756.533 101.679 749.777 108.438 741.478 108.438V108.938V109.438C750.33 109.438 757.533 102.231 757.533 93.375H757.033Z" fill="#EAEAEA" mask="url(#path-2-inside-1_23745_11702)"/>
<path fill-rule="evenodd" clip-rule="evenodd" d="M171.116 446.125V684.75C171.116 696.204 180.408 705.5 191.856 705.5V715.875H160.745L150.375 705.5V435.75L171.116 446.125Z" fill="url(#paint1_linear_23745_11702)"/>
<path fill-rule="evenodd" clip-rule="evenodd" d="M1228.9 446.125V684.75C1228.9 696.204 1219.6 705.5 1208.15 705.5V715.875H1239.27L1249.64 705.5V435.75L1228.9 446.125Z" fill="url(#paint2_linear_23745_11702)"/>
<path fill-rule="evenodd" clip-rule="evenodd" d="M1239.26 400.004V684.746C1239.26 696.21 1229.97 705.496 1218.52 705.496H181.481C170.033 705.496 160.741 696.21 160.741 684.746V400.004C148.4 407.194 140 420.432 140 435.746V684.746C140 707.664 158.573 726.246 181.481 726.246H1218.52C1241.43 726.246 1260 707.664 1260 684.746V435.746C1260 420.432 1251.6 407.194 1239.26 400.004" fill="url(#paint3_linear_23745_11702)"/>
<path fill-rule="evenodd" clip-rule="evenodd" d="M181.486 747V736.625L202.227 715.875H233.338V726.25L212.597 747H181.486Z" fill="url(#paint4_radial_23745_11702)"/>
<path fill-rule="evenodd" clip-rule="evenodd" d="M215.636 733.585C213.697 735.525 211.052 736.625 208.304 736.625H181.486V747H208.304C211.052 747 213.697 745.9 215.636 743.96L233.338 726.25V715.875L215.636 733.585Z" fill="#D3D3D3"/>
<path fill-rule="evenodd" clip-rule="evenodd" d="M1218.52 747V736.625L1197.78 715.875H1166.67V726.25L1187.41 747H1218.52Z" fill="url(#paint5_radial_23745_11702)"/>
<path fill-rule="evenodd" clip-rule="evenodd" d="M1184.37 733.585C1186.31 735.525 1188.95 736.625 1191.7 736.625H1218.52V747H1191.7C1188.95 747 1186.31 745.9 1184.37 743.96L1166.67 726.25V715.875L1184.37 733.585Z" fill="#D3D3D3"/>
<path fill-rule="evenodd" clip-rule="evenodd" d="M751.857 93.3735C751.857 99.1005 747.222 103.748 741.487 103.748H658.524C652.789 103.748 648.154 99.1005 648.154 93.3735V31.1235C648.154 25.3965 652.789 20.7485 658.524 20.7485H741.487C747.222 20.7485 751.857 25.3965 751.857 31.1235V93.3735ZM1239.26 0H160.741C149.292 0 140 9.40409 140 20.9913V430.321C140 441.908 149.292 451.313 160.741 451.313H1239.26C1250.71 451.313 1260 441.908 1260 430.321V20.9913C1260 9.40409 1250.71 0 1239.26 0V0Z" fill="#E0E0E0"/>
<path d="M684.449 114.125C687.311 114.125 689.635 116.449 689.635 119.312V409.812C689.635 412.676 687.311 415 684.449 415H155.561C152.698 415 150.375 412.676 150.375 409.812V119.312C150.375 116.449 152.698 114.125 155.561 114.125H684.449ZM1244.45 114.125C1247.31 114.125 1249.63 116.449 1249.63 119.312V409.812C1249.63 412.676 1247.31 415 1244.45 415H715.561C712.698 415 710.376 412.676 710.376 409.812V119.312C710.376 116.449 712.699 114.125 715.561 114.125H1244.45Z" fill="#222222"/>
<path d="M684.449 114.125C687.311 114.125 689.635 116.449 689.635 119.312V409.812C689.635 412.676 687.311 415 684.449 415H155.561C152.698 415 150.375 412.676 150.375 409.812V119.312C150.375 116.449 152.698 114.125 155.561 114.125H684.449ZM1244.45 114.125C1247.31 114.125 1249.63 116.449 1249.63 119.312V409.812C1249.63 412.676 1247.31 415 1244.45 415H715.561C712.698 415 710.376 412.676 710.376 409.812V119.312C710.376 116.449 712.699 114.125 715.561 114.125H1244.45Z" fill="url(#paint6_linear_23745_11702)"/>
<path fill-rule="evenodd" clip-rule="evenodd" d="M720.745 62.2539C720.745 50.7999 711.453 41.5039 700.004 41.5039C688.556 41.5039 679.264 50.7999 679.264 62.2539C679.264 73.7079 688.556 83.0039 700.004 83.0039C711.453 83.0039 720.745 73.7079 720.745 62.2539" fill="#232323"/>
<path fill-rule="evenodd" clip-rule="evenodd" d="M710.366 62.2461C710.366 56.5191 705.73 51.8711 699.995 51.8711C694.261 51.8711 689.625 56.5191 689.625 62.2461C689.625 67.9731 694.261 72.6211 699.995 72.6211C705.73 72.6211 710.366 67.9731 710.366 62.2461" fill="#373B47"/>
<path fill-rule="evenodd" clip-rule="evenodd" d="M695.732 435.685H696.593V432.262H695.732V435.685Z" fill="#908E8E"/>
<path fill-rule="evenodd" clip-rule="evenodd" d="M703.541 433.248C703.51 433.238 703.23 433.062 702.826 433.062C702.255 433.062 701.871 433.456 701.871 433.985C701.871 434.493 702.234 434.898 702.826 434.898C703.22 434.898 703.51 434.732 703.541 434.711V435.624C703.427 435.666 703.147 435.749 702.763 435.749C701.778 435.749 700.928 435.085 700.928 433.985C700.928 432.958 701.695 432.211 702.763 432.211C703.168 432.211 703.458 432.304 703.541 432.335V433.248Z" fill="#908E8E"/>
<path fill-rule="evenodd" clip-rule="evenodd" d="M694.547 433.248C694.505 433.238 694.236 433.062 693.821 433.062C693.251 433.062 692.877 433.456 692.877 433.985C692.877 434.493 693.24 434.898 693.821 434.898C694.225 434.898 694.505 434.732 694.547 434.711V435.624C694.433 435.666 694.142 435.749 693.759 435.749C692.794 435.749 691.934 435.085 691.934 433.985C691.934 432.958 692.701 432.211 693.759 432.211C694.163 432.211 694.464 432.304 694.547 432.335V433.248Z" fill="#908E8E"/>
<path fill-rule="evenodd" clip-rule="evenodd" d="M706.254 433.072C705.745 433.072 705.362 433.487 705.362 433.975C705.362 434.473 705.745 434.878 706.254 434.878C706.772 434.878 707.145 434.473 707.145 433.975C707.145 433.487 706.772 433.072 706.254 433.072M708.07 433.975C708.07 434.95 707.313 435.749 706.256 435.749C705.198 435.749 704.451 434.95 704.451 433.975C704.451 432.999 705.198 432.211 706.256 432.211C707.313 432.211 708.07 432.999 708.07 433.975" fill="#908E8E"/>
<path fill-rule="evenodd" clip-rule="evenodd" d="M699.852 433.044C699.842 433.044 699.489 432.94 699.188 432.94C698.825 432.94 698.649 433.054 698.649 433.22C698.649 433.438 698.898 433.5 699.043 433.542L699.271 433.624C699.842 433.801 700.09 434.185 700.09 434.6C700.09 435.461 699.344 435.751 698.68 435.751C698.224 435.751 697.788 435.668 697.747 435.658V434.869C697.83 434.89 698.193 434.994 698.566 434.994C698.991 434.994 699.199 434.87 699.199 434.672C699.199 434.506 699.022 434.403 698.804 434.34C698.753 434.32 698.68 434.299 698.618 434.278C698.141 434.123 697.736 433.842 697.736 433.272C697.736 432.639 698.213 432.203 699.022 432.203C699.437 432.203 699.831 432.307 699.852 432.317V433.044Z" fill="#908E8E"/>
<path fill-rule="evenodd" clip-rule="evenodd" d="M691.017 428.593C691.017 428.365 690.82 428.168 690.592 428.168C690.353 428.168 690.156 428.365 690.156 428.593V429.496C690.156 429.724 690.353 429.921 690.592 429.921C690.82 429.921 691.017 429.724 691.017 429.496V428.593Z" fill="#908E8E"/>
<path fill-rule="evenodd" clip-rule="evenodd" d="M693.36 427.41C693.36 427.182 693.163 426.984 692.935 426.984C692.707 426.984 692.51 427.182 692.51 427.41V429.495C692.51 429.723 692.707 429.921 692.935 429.921C693.163 429.921 693.36 429.723 693.36 429.495V427.41Z" fill="#908E8E"/>
<path fill-rule="evenodd" clip-rule="evenodd" d="M695.728 425.796C695.728 425.558 695.521 425.371 695.292 425.371C695.064 425.371 694.867 425.558 694.867 425.796V430.341C694.867 430.579 695.064 430.766 695.292 430.766C695.521 430.766 695.728 430.579 695.728 430.341V425.796Z" fill="#908E8E"/>
<path fill-rule="evenodd" clip-rule="evenodd" d="M698.081 427.41C698.081 427.182 697.884 426.984 697.656 426.984C697.418 426.984 697.221 427.182 697.221 427.41V429.495C697.221 429.723 697.418 429.921 697.656 429.921C697.884 429.921 698.081 429.723 698.081 429.495V427.41Z" fill="#908E8E"/>
<path fill-rule="evenodd" clip-rule="evenodd" d="M700.432 428.593C700.432 428.365 700.224 428.168 699.996 428.168C699.768 428.168 699.561 428.365 699.561 428.593V429.496C699.561 429.724 699.768 429.921 699.996 429.921C700.224 429.921 700.432 429.724 700.432 429.496V428.593Z" fill="#908E8E"/>
<path fill-rule="evenodd" clip-rule="evenodd" d="M702.79 427.41C702.79 427.182 702.593 426.984 702.355 426.984C702.127 426.984 701.93 427.182 701.93 427.41V429.495C701.93 429.723 702.127 429.921 702.355 429.921C702.593 429.921 702.79 429.723 702.79 429.495V427.41Z" fill="#908E8E"/>
<path fill-rule="evenodd" clip-rule="evenodd" d="M705.134 425.796C705.134 425.558 704.937 425.371 704.708 425.371C704.48 425.371 704.283 425.558 704.283 425.796V430.341C704.283 430.579 704.48 430.766 704.708 430.766C704.937 430.766 705.134 430.579 705.134 430.341V425.796Z" fill="#908E8E"/>
<path fill-rule="evenodd" clip-rule="evenodd" d="M707.499 427.41C707.499 427.182 707.302 426.984 707.064 426.984C706.836 426.984 706.639 427.182 706.639 427.41V429.495C706.639 429.723 706.836 429.921 707.064 429.921C707.302 429.921 707.499 429.723 707.499 429.495V427.41Z" fill="#908E8E"/>
<path fill-rule="evenodd" clip-rule="evenodd" d="M709.839 428.593C709.839 428.365 709.642 428.168 709.414 428.168C709.176 428.168 708.979 428.365 708.979 428.593V429.496C708.979 429.724 709.176 429.921 709.414 429.921C709.642 429.921 709.839 429.724 709.839 429.496V428.593Z" fill="#908E8E"/>
</g>
<defs>
<linearGradient id="paint0_linear_23745_11702" x1="642.959" y1="15.5625" x2="642.959" y2="108.938" gradientUnits="userSpaceOnUse">
<stop stop-color="#EFEFEF"/>
<stop offset="0.506076" stop-color="white"/>
<stop offset="1" stop-color="#EFEFEF"/>
</linearGradient>
<linearGradient id="paint1_linear_23745_11702" x1="150.389" y1="435.75" x2="150.389" y2="715.685" gradientUnits="userSpaceOnUse">
<stop stop-color="#B1B1B1"/>
<stop offset="0.278382" stop-color="#C9C9C9"/>
<stop offset="0.514141" stop-color="#D6D6D6"/>
<stop offset="0.743587" stop-color="#C9C9C9"/>
<stop offset="0.953577" stop-color="#ECECEC"/>
<stop offset="0.999932" stop-color="#B1B1B1"/>
</linearGradient>
<linearGradient id="paint2_linear_23745_11702" x1="1208.17" y1="435.75" x2="1208.17" y2="715.685" gradientUnits="userSpaceOnUse">
<stop stop-color="#B1B1B1"/>
<stop offset="0.278382" stop-color="#C9C9C9"/>
<stop offset="0.514141" stop-color="#D6D6D6"/>
<stop offset="0.743587" stop-color="#C9C9C9"/>
<stop offset="0.953577" stop-color="#ECECEC"/>
<stop offset="0.999932" stop-color="#B1B1B1"/>
</linearGradient>
<linearGradient id="paint3_linear_23745_11702" x1="140.152" y1="400.004" x2="140.152" y2="726.157" gradientUnits="userSpaceOnUse">
<stop stop-color="#CFCFCF"/>
<stop offset="0.470308" stop-color="#F1F1F1"/>
<stop offset="0.999932" stop-color="#D9D9D9"/>
</linearGradient>
<radialGradient id="paint4_radial_23745_11702" cx="0" cy="0" r="1" gradientUnits="userSpaceOnUse" gradientTransform="translate(214.037 779.843) rotate(23.9854) scale(38.2838 29.7221)">
<stop stop-color="#9C9C9C"/>
<stop offset="0.528236" stop-color="#E8E8E8"/>
<stop offset="1" stop-color="#E8E8E8"/>
</radialGradient>
<radialGradient id="paint5_radial_23745_11702" cx="0" cy="0" r="1" gradientUnits="userSpaceOnUse" gradientTransform="translate(1199.22 779.843) rotate(23.9854) scale(38.2838 29.7221)">
<stop stop-color="#9C9C9C"/>
<stop offset="0.528236" stop-color="#E8E8E8"/>
<stop offset="1" stop-color="#E8E8E8"/>
</radialGradient>
<linearGradient id="paint6_linear_23745_11702" x1="-543.972" y1="-75.6918" x2="-514.385" y2="532.214" gradientUnits="userSpaceOnUse">
<stop stop-color="white" stop-opacity="0.24"/>
<stop offset="1" stop-opacity="0.5"/>
</linearGradient>
<clipPath id="clip0_23745_11702">
<rect width="1400" height="747" fill="white"/>
</clipPath>
</defs>
</svg>
