<svg width="180" height="96" viewBox="0 0 180 96" fill="none" xmlns="http://www.w3.org/2000/svg">
<g clip-path="url(#clip0_23745_11702)">
<path fill-rule="evenodd" clip-rule="evenodd" d="M92.3331 8.3335C92.1838 8.3335 92.0465 8.23216 92.0091 8.0815L90.7398 3.00016H89.2598L87.9905 8.0815C87.9465 8.25883 87.7651 8.36416 87.5851 8.32416C87.4078 8.27883 87.2998 8.0975 87.3438 7.91883L88.7398 2.3335H91.2598L92.6558 7.91883C92.6998 8.0975 92.5918 8.27883 92.4145 8.32416C92.3865 8.33083 92.3598 8.3335 92.3331 8.3335Z" fill="#E9E9E9"/>
<mask id="path-2-inside-1_23745_11702" fill="white">
<path fill-rule="evenodd" clip-rule="evenodd" d="M84.6667 3.3335C84.3 3.3335 84 3.63216 84 4.00016V12.0002C84 12.3682 84.3 12.6668 84.6667 12.6668H95.3333C95.7 12.6668 96 12.3682 96 12.0002V4.00016C96 3.63216 95.7 3.3335 95.3333 3.3335H84.6667ZM95.3327 14H84.666C83.5633 14 82.666 13.1027 82.666 12V4C82.666 2.89733 83.5633 2 84.666 2H95.3327C96.4353 2 97.3327 2.89733 97.3327 4V12C97.3327 13.1027 96.4353 14 95.3327 14Z"/>
</mask>
<path fill-rule="evenodd" clip-rule="evenodd" d="M84.6667 3.3335C84.3 3.3335 84 3.63216 84 4.00016V12.0002C84 12.3682 84.3 12.6668 84.6667 12.6668H95.3333C95.7 12.6668 96 12.3682 96 12.0002V4.00016C96 3.63216 95.7 3.3335 95.3333 3.3335H84.6667ZM95.3327 14H84.666C83.5633 14 82.666 13.1027 82.666 12V4C82.666 2.89733 83.5633 2 84.666 2H95.3327C96.4353 2 97.3327 2.89733 97.3327 4V12C97.3327 13.1027 96.4353 14 95.3327 14Z" fill="url(#paint0_linear_23745_11702)"/>
<path d="M84.6667 2.8335C84.0245 2.8335 83.5 3.35537 83.5 4.00016H84.5C84.5 3.90896 84.5755 3.8335 84.6667 3.8335V2.8335ZM83.5 4.00016V12.0002H84.5V4.00016H83.5ZM83.5 12.0002C83.5 12.645 84.0245 13.1668 84.6667 13.1668V12.1668C84.5755 12.1668 84.5 12.0914 84.5 12.0002H83.5ZM84.6667 13.1668H95.3333V12.1668H84.6667V13.1668ZM95.3333 13.1668C95.9755 13.1668 96.5 12.645 96.5 12.0002H95.5C95.5 12.0914 95.4245 12.1668 95.3333 12.1668V13.1668ZM96.5 12.0002V4.00016H95.5V12.0002H96.5ZM96.5 4.00016C96.5 3.35537 95.9755 2.8335 95.3333 2.8335V3.8335C95.4245 3.8335 95.5 3.90895 95.5 4.00016H96.5ZM95.3333 2.8335H84.6667V3.8335H95.3333V2.8335ZM95.3327 13.5H84.666V14.5H95.3327V13.5ZM84.666 13.5C83.8395 13.5 83.166 12.8265 83.166 12H82.166C82.166 13.3788 83.2872 14.5 84.666 14.5V13.5ZM83.166 12V4H82.166V12H83.166ZM83.166 4C83.166 3.17348 83.8395 2.5 84.666 2.5V1.5C83.2872 1.5 82.166 2.62119 82.166 4H83.166ZM84.666 2.5H95.3327V1.5H84.666V2.5ZM95.3327 2.5C96.1592 2.5 96.8327 3.17348 96.8327 4H97.8327C97.8327 2.62119 96.7115 1.5 95.3327 1.5V2.5ZM96.8327 4V12H97.8327V4H96.8327ZM96.8327 12C96.8327 12.8265 96.1592 13.5 95.3327 13.5V14.5C96.7115 14.5 97.8327 13.3788 97.8327 12H96.8327Z" fill="#EAEAEA" mask="url(#path-2-inside-1_23745_11702)"/>
<path fill-rule="evenodd" clip-rule="evenodd" d="M22.0007 57.3333V88C22.0007 89.472 23.1953 90.6667 24.6673 90.6667V92H20.6673L19.334 90.6667V56L22.0007 57.3333Z" fill="url(#paint1_linear_23745_11702)"/>
<path fill-rule="evenodd" clip-rule="evenodd" d="M158.001 57.3333V88C158.001 89.472 156.806 90.6667 155.334 90.6667V92H159.334L160.667 90.6667V56L158.001 57.3333Z" fill="url(#paint2_linear_23745_11702)"/>
<path fill-rule="evenodd" clip-rule="evenodd" d="M159.333 51.4062V87.9996C159.333 89.4729 158.139 90.6662 156.667 90.6662H23.3333C21.8613 90.6662 20.6667 89.4729 20.6667 87.9996V51.4062C19.08 52.3303 18 54.0316 18 55.9996V87.9996C18 90.9449 20.388 93.3329 23.3333 93.3329H156.667C159.612 93.3329 162 90.9449 162 87.9996V55.9996C162 54.0316 160.92 52.3303 159.333 51.4062Z" fill="url(#paint3_linear_23745_11702)"/>
<path fill-rule="evenodd" clip-rule="evenodd" d="M23.334 96V94.6667L26.0007 92H30.0007V93.3333L27.334 96H23.334Z" fill="url(#paint4_radial_23745_11702)"/>
<path fill-rule="evenodd" clip-rule="evenodd" d="M27.7247 94.276C27.4753 94.5253 27.1353 94.6667 26.782 94.6667H23.334V96H26.782C27.1353 96 27.4753 95.8587 27.7247 95.6093L30.0007 93.3333V92L27.7247 94.276Z" fill="#D3D3D3"/>
<path fill-rule="evenodd" clip-rule="evenodd" d="M156.667 96V94.6667L154 92H150V93.3333L152.667 96H156.667Z" fill="url(#paint5_radial_23745_11702)"/>
<path fill-rule="evenodd" clip-rule="evenodd" d="M152.276 94.276C152.525 94.5253 152.865 94.6667 153.219 94.6667H156.667V96H153.219C152.865 96 152.525 95.8587 152.276 95.6093L150 93.3333V92L152.276 94.276Z" fill="#D3D3D3"/>
<path fill-rule="evenodd" clip-rule="evenodd" d="M96.6673 11.9998C96.6673 12.7358 96.0713 13.3332 95.334 13.3332H84.6673C83.93 13.3332 83.334 12.7358 83.334 11.9998V3.99984C83.334 3.26384 83.93 2.6665 84.6673 2.6665H95.334C96.0713 2.6665 96.6673 3.26384 96.6673 3.99984V11.9998ZM159.333 0H20.6667C19.1947 0 18 1.20856 18 2.69767V55.3023C18 56.7914 19.1947 58 20.6667 58H159.333C160.805 58 162 56.7914 162 55.3023V2.69767C162 1.20856 160.805 0 159.333 0Z" fill="#E0E0E0"/>
<path fill-rule="evenodd" clip-rule="evenodd" d="M20.0007 53.3332H88.0006C88.3687 53.3332 88.6673 53.0345 88.6673 52.6665V15.3332C88.6673 14.9652 88.3687 14.6665 88.0006 14.6665H20.0007C19.6327 14.6665 19.334 14.9652 19.334 15.3332V52.6665C19.334 53.0345 19.6327 53.3332 20.0007 53.3332ZM92.0007 53.3332H160.001C160.369 53.3332 160.667 53.0345 160.667 52.6665V15.3332C160.667 14.9652 160.369 14.6665 160.001 14.6665H92.0007C91.6327 14.6665 91.334 14.9652 91.334 15.3332V52.6665C91.334 53.0345 91.6327 53.3332 92.0007 53.3332Z" fill="#222222"/>
<path fill-rule="evenodd" clip-rule="evenodd" d="M20.0007 53.3332H88.0006C88.3687 53.3332 88.6673 53.0345 88.6673 52.6665V15.3332C88.6673 14.9652 88.3687 14.6665 88.0006 14.6665H20.0007C19.6327 14.6665 19.334 14.9652 19.334 15.3332V52.6665C19.334 53.0345 19.6327 53.3332 20.0007 53.3332ZM92.0007 53.3332H160.001C160.369 53.3332 160.667 53.0345 160.667 52.6665V15.3332C160.667 14.9652 160.369 14.6665 160.001 14.6665H92.0007C91.6327 14.6665 91.334 14.9652 91.334 15.3332V52.6665C91.334 53.0345 91.6327 53.3332 92.0007 53.3332Z" fill="url(#paint6_linear_23745_11702)"/>
<path fill-rule="evenodd" clip-rule="evenodd" d="M92.6673 8.00016C92.6673 6.52816 91.4727 5.3335 90.0007 5.3335C88.5287 5.3335 87.334 6.52816 87.334 8.00016C87.334 9.47216 88.5287 10.6668 90.0007 10.6668C91.4727 10.6668 92.6673 9.47216 92.6673 8.00016Z" fill="#232323"/>
<path fill-rule="evenodd" clip-rule="evenodd" d="M91.3327 7.99984C91.3327 7.26384 90.7367 6.6665 89.9993 6.6665C89.262 6.6665 88.666 7.26384 88.666 7.99984C88.666 8.73584 89.262 9.33317 89.9993 9.33317C90.7367 9.33317 91.3327 8.73584 91.3327 7.99984Z" fill="#373B47"/>
<path fill-rule="evenodd" clip-rule="evenodd" d="M89.4512 55.9918H89.5618V55.5518H89.4512V55.9918Z" fill="#908E8E"/>
<path fill-rule="evenodd" clip-rule="evenodd" d="M90.4551 55.6783C90.4511 55.6769 90.4151 55.6543 90.3631 55.6543C90.2898 55.6543 90.2405 55.7049 90.2405 55.7729C90.2405 55.8383 90.2871 55.8903 90.3631 55.8903C90.4138 55.8903 90.4511 55.8689 90.4551 55.8663V55.9836C90.4405 55.9889 90.4045 55.9996 90.3551 55.9996C90.2285 55.9996 90.1191 55.9143 90.1191 55.7729C90.1191 55.6409 90.2178 55.5449 90.3551 55.5449C90.4071 55.5449 90.4445 55.5569 90.4551 55.5609V55.6783Z" fill="#908E8E"/>
<path fill-rule="evenodd" clip-rule="evenodd" d="M89.2989 55.6783C89.2936 55.6769 89.2589 55.6543 89.2056 55.6543C89.1322 55.6543 89.0842 55.7049 89.0842 55.7729C89.0842 55.8383 89.1309 55.8903 89.2056 55.8903C89.2576 55.8903 89.2936 55.8689 89.2989 55.8663V55.9836C89.2842 55.9889 89.2469 55.9996 89.1976 55.9996C89.0736 55.9996 88.9629 55.9143 88.9629 55.7729C88.9629 55.6409 89.0616 55.5449 89.1976 55.5449C89.2496 55.5449 89.2882 55.5569 89.2989 55.5609V55.6783Z" fill="#908E8E"/>
<path fill-rule="evenodd" clip-rule="evenodd" d="M90.8041 55.6561C90.7387 55.6561 90.6894 55.7094 90.6894 55.7721C90.6894 55.8361 90.7387 55.8881 90.8041 55.8881C90.8707 55.8881 90.9187 55.8361 90.9187 55.7721C90.9187 55.7094 90.8707 55.6561 90.8041 55.6561ZM91.0376 55.7721C91.0376 55.8974 90.9403 56.0001 90.8043 56.0001C90.6683 56.0001 90.5723 55.8974 90.5723 55.7721C90.5723 55.6467 90.6683 55.5454 90.8043 55.5454C90.9403 55.5454 91.0376 55.6467 91.0376 55.7721Z" fill="#908E8E"/>
<path fill-rule="evenodd" clip-rule="evenodd" d="M89.981 55.6524C89.9797 55.6524 89.9343 55.6391 89.8957 55.6391C89.849 55.6391 89.8263 55.6538 89.8263 55.6751C89.8263 55.7031 89.8583 55.7111 89.877 55.7164L89.9063 55.7271C89.9797 55.7498 90.0117 55.7991 90.0117 55.8524C90.0117 55.9631 89.9157 56.0004 89.8303 56.0004C89.7717 56.0004 89.7157 55.9898 89.7103 55.9884V55.8871C89.721 55.8898 89.7677 55.9031 89.8157 55.9031C89.8703 55.9031 89.897 55.8871 89.897 55.8618C89.897 55.8404 89.8743 55.8271 89.8463 55.8191C89.8397 55.8164 89.8303 55.8138 89.8223 55.8111C89.761 55.7911 89.709 55.7551 89.709 55.6818C89.709 55.6004 89.7703 55.5444 89.8743 55.5444C89.9277 55.5444 89.9783 55.5578 89.981 55.5591V55.6524Z" fill="#908E8E"/>
<path fill-rule="evenodd" clip-rule="evenodd" d="M88.845 55.0801C88.845 55.0507 88.8197 55.0254 88.7904 55.0254C88.7597 55.0254 88.7344 55.0507 88.7344 55.0801V55.1961C88.7344 55.2254 88.7597 55.2507 88.7904 55.2507C88.8197 55.2507 88.845 55.2254 88.845 55.1961V55.0801Z" fill="#908E8E"/>
<path fill-rule="evenodd" clip-rule="evenodd" d="M89.1464 54.9282C89.1464 54.8989 89.1211 54.8735 89.0918 54.8735C89.0624 54.8735 89.0371 54.8989 89.0371 54.9282V55.1962C89.0371 55.2255 89.0624 55.2509 89.0918 55.2509C89.1211 55.2509 89.1464 55.2255 89.1464 55.1962V54.9282Z" fill="#908E8E"/>
<path fill-rule="evenodd" clip-rule="evenodd" d="M89.4505 54.7212C89.4505 54.6905 89.4238 54.6665 89.3945 54.6665C89.3652 54.6665 89.3398 54.6905 89.3398 54.7212V55.3052C89.3398 55.3358 89.3652 55.3598 89.3945 55.3598C89.4238 55.3598 89.4505 55.3358 89.4505 55.3052V54.7212Z" fill="#908E8E"/>
<path fill-rule="evenodd" clip-rule="evenodd" d="M89.7532 54.9282C89.7532 54.8989 89.7279 54.8735 89.6986 54.8735C89.6679 54.8735 89.6426 54.8989 89.6426 54.9282V55.1962C89.6426 55.2255 89.6679 55.2509 89.6986 55.2509C89.7279 55.2509 89.7532 55.2255 89.7532 55.1962V54.9282Z" fill="#908E8E"/>
<path fill-rule="evenodd" clip-rule="evenodd" d="M90.0554 55.0801C90.0554 55.0507 90.0287 55.0254 89.9994 55.0254C89.97 55.0254 89.9434 55.0507 89.9434 55.0801V55.1961C89.9434 55.2254 89.97 55.2507 89.9994 55.2507C90.0287 55.2507 90.0554 55.2254 90.0554 55.1961V55.0801Z" fill="#908E8E"/>
<path fill-rule="evenodd" clip-rule="evenodd" d="M90.3587 54.9282C90.3587 54.8989 90.3334 54.8735 90.3027 54.8735C90.2734 54.8735 90.248 54.8989 90.248 54.9282V55.1962C90.248 55.2255 90.2734 55.2509 90.3027 55.2509C90.3334 55.2509 90.3587 55.2255 90.3587 55.1962V54.9282Z" fill="#908E8E"/>
<path fill-rule="evenodd" clip-rule="evenodd" d="M90.6601 54.7212C90.6601 54.6905 90.6348 54.6665 90.6054 54.6665C90.5761 54.6665 90.5508 54.6905 90.5508 54.7212V55.3052C90.5508 55.3358 90.5761 55.3598 90.6054 55.3598C90.6348 55.3598 90.6601 55.3358 90.6601 55.3052V54.7212Z" fill="#908E8E"/>
<path fill-rule="evenodd" clip-rule="evenodd" d="M90.9642 54.9282C90.9642 54.8989 90.9388 54.8735 90.9082 54.8735C90.8788 54.8735 90.8535 54.8989 90.8535 54.9282V55.1962C90.8535 55.2255 90.8788 55.2509 90.9082 55.2509C90.9388 55.2509 90.9642 55.2255 90.9642 55.1962V54.9282Z" fill="#908E8E"/>
<path fill-rule="evenodd" clip-rule="evenodd" d="M91.265 55.0801C91.265 55.0507 91.2396 55.0254 91.2103 55.0254C91.1796 55.0254 91.1543 55.0507 91.1543 55.0801V55.1961C91.1543 55.2254 91.1796 55.2507 91.2103 55.2507C91.2396 55.2507 91.265 55.2254 91.265 55.1961V55.0801Z" fill="#908E8E"/>
</g>
<defs>
<linearGradient id="paint0_linear_23745_11702" x1="82.666" y1="2" x2="82.666" y2="14" gradientUnits="userSpaceOnUse">
<stop stop-color="#EFEFEF"/>
<stop offset="0.506076" stop-color="white"/>
<stop offset="1" stop-color="#EFEFEF"/>
</linearGradient>
<linearGradient id="paint1_linear_23745_11702" x1="19.3358" y1="56" x2="19.3358" y2="91.9756" gradientUnits="userSpaceOnUse">
<stop stop-color="#B1B1B1"/>
<stop offset="0.278382" stop-color="#C9C9C9"/>
<stop offset="0.514141" stop-color="#D6D6D6"/>
<stop offset="0.743587" stop-color="#C9C9C9"/>
<stop offset="0.953577" stop-color="#ECECEC"/>
<stop offset="0.999932" stop-color="#B1B1B1"/>
</linearGradient>
<linearGradient id="paint2_linear_23745_11702" x1="155.336" y1="56" x2="155.336" y2="91.9756" gradientUnits="userSpaceOnUse">
<stop stop-color="#B1B1B1"/>
<stop offset="0.278382" stop-color="#C9C9C9"/>
<stop offset="0.514141" stop-color="#D6D6D6"/>
<stop offset="0.743587" stop-color="#C9C9C9"/>
<stop offset="0.953577" stop-color="#ECECEC"/>
<stop offset="0.999932" stop-color="#B1B1B1"/>
</linearGradient>
<linearGradient id="paint3_linear_23745_11702" x1="18.0195" y1="51.4062" x2="18.0195" y2="93.3216" gradientUnits="userSpaceOnUse">
<stop stop-color="#CFCFCF"/>
<stop offset="0.470308" stop-color="#F1F1F1"/>
<stop offset="0.999932" stop-color="#D9D9D9"/>
</linearGradient>
<radialGradient id="paint4_radial_23745_11702" cx="0" cy="0" r="1" gradientUnits="userSpaceOnUse" gradientTransform="translate(27.519 100.221) rotate(23.9759) scale(4.92183 3.81999)">
<stop stop-color="#9C9C9C"/>
<stop offset="0.528236" stop-color="#E8E8E8"/>
<stop offset="1" stop-color="#E8E8E8"/>
</radialGradient>
<radialGradient id="paint5_radial_23745_11702" cx="0" cy="0" r="1" gradientUnits="userSpaceOnUse" gradientTransform="translate(154.185 100.221) rotate(23.9759) scale(4.92183 3.81999)">
<stop stop-color="#9C9C9C"/>
<stop offset="0.528236" stop-color="#E8E8E8"/>
<stop offset="1" stop-color="#E8E8E8"/>
</radialGradient>
<linearGradient id="paint6_linear_23745_11702" x1="-69.9391" y1="-9.72762" x2="-66.1385" y2="68.397" gradientUnits="userSpaceOnUse">
<stop stop-color="white" stop-opacity="0.24"/>
<stop offset="1" stop-opacity="0.5"/>
</linearGradient>
<clipPath id="clip0_23745_11702">
<rect width="180" height="96" fill="white"/>
</clipPath>
</defs>
</svg>
