<svg width="1400" height="747" viewBox="0 0 1400 747" fill="none" xmlns="http://www.w3.org/2000/svg">
<g clip-path="url(#clip0_23745_11699)">
<path fill-rule="evenodd" clip-rule="evenodd" d="M153.533 272.641C153.721 272.451 153.977 272.344 154.245 272.344H1245.75C1246.02 272.344 1246.28 272.451 1246.47 272.641L1322.22 349.378H77.7773L153.533 272.641Z" fill="url(#paint0_radial_23745_11699)"/>
<path fill-rule="evenodd" clip-rule="evenodd" d="M689.655 314.274H692.332V309.654H689.655V314.274ZM713.973 310.98C713.876 310.966 713.005 310.728 711.715 310.728C709.974 310.728 708.78 311.26 708.78 311.974C708.78 312.66 709.941 313.206 711.715 313.206C712.973 313.206 713.876 312.982 713.973 312.954V314.186C713.65 314.242 712.715 314.354 711.522 314.354C708.522 314.354 705.878 313.444 705.878 311.974C705.878 310.588 708.264 309.58 711.522 309.58C712.78 309.58 713.715 309.706 713.973 309.748V310.98ZM685.961 310.98C685.864 310.966 684.993 310.728 683.703 310.728C681.961 310.728 680.768 311.26 680.768 311.974C680.768 312.66 681.929 313.206 683.703 313.206C684.961 313.206 685.864 312.982 685.961 312.954V314.186C685.638 314.242 684.735 314.354 683.542 314.354C680.51 314.354 677.865 313.444 677.865 311.974C677.865 310.588 680.252 309.58 683.542 309.58C684.8 309.58 685.735 309.706 685.961 309.748V310.98ZM722.416 310.747C720.836 310.747 719.643 311.308 719.643 311.966C719.643 312.638 720.836 313.184 722.416 313.184C724.029 313.184 725.19 312.638 725.19 311.966C725.19 311.308 724.029 310.747 722.416 310.747M728.056 311.966C728.056 313.282 725.702 314.36 722.412 314.36C719.155 314.36 716.8 313.282 716.8 311.966C716.8 310.649 719.155 309.585 722.412 309.585C725.702 309.585 728.056 310.649 728.056 311.966M702.524 310.708C702.492 310.708 701.363 310.568 700.428 310.568C699.331 310.568 698.75 310.722 698.75 310.946C698.75 311.227 699.557 311.325 700.008 311.381L700.718 311.493C702.492 311.731 703.266 312.249 703.266 312.809C703.266 313.971 700.944 314.363 698.879 314.363C697.428 314.363 696.106 314.237 695.945 314.223V313.173C696.203 313.201 697.331 313.341 698.492 313.341C699.847 313.341 700.46 313.173 700.46 312.907C700.46 312.683 699.912 312.543 699.234 312.459C699.105 312.431 698.847 312.403 698.686 312.375C697.17 312.165 695.912 311.787 695.912 311.016C695.912 310.162 697.428 309.574 699.912 309.574C701.202 309.574 702.427 309.714 702.524 309.728V310.708ZM675.028 304.698C675.028 304.376 674.383 304.124 673.674 304.124C672.932 304.124 672.352 304.376 672.352 304.698V305.902C672.352 306.224 672.932 306.49 673.674 306.49C674.383 306.49 675.028 306.224 675.028 305.902V304.698ZM682.337 303.104C682.337 302.796 681.725 302.53 680.983 302.53C680.273 302.53 679.661 302.796 679.661 303.104V305.904C679.661 306.226 680.273 306.492 680.983 306.492C681.725 306.492 682.337 306.226 682.337 305.904V303.104ZM689.657 300.93C689.657 300.608 689.045 300.355 688.303 300.355C687.593 300.355 686.98 300.608 686.98 300.93V307.062C686.98 307.371 687.593 307.637 688.303 307.637C689.045 307.637 689.657 307.371 689.657 307.062V300.93ZM696.964 303.104C696.964 302.796 696.351 302.53 695.641 302.53C694.9 302.53 694.287 302.796 694.287 303.104V305.904C694.287 306.226 694.9 306.492 695.641 306.492C696.351 306.492 696.964 306.226 696.964 305.904V303.104ZM704.288 304.698C704.288 304.376 703.675 304.124 702.933 304.124C702.224 304.124 701.611 304.376 701.611 304.698V305.902C701.611 306.224 702.224 306.49 702.933 306.49C703.675 306.49 704.288 306.224 704.288 305.902V304.698ZM711.593 303.104C711.593 302.796 710.98 302.53 710.238 302.53C709.528 302.53 708.916 302.796 708.916 303.104V305.904C708.916 306.226 709.528 306.492 710.238 306.492C710.98 306.492 711.593 306.226 711.593 305.904V303.104ZM718.915 300.93C718.915 300.608 718.335 300.355 717.593 300.355C716.851 300.355 716.238 300.608 716.238 300.93V307.062C716.238 307.371 716.851 307.637 717.593 307.637C718.335 307.637 718.915 307.371 718.915 307.062V300.93ZM726.253 303.104C726.253 302.796 725.64 302.53 724.898 302.53C724.157 302.53 723.576 302.796 723.576 303.104V305.904C723.576 306.226 724.157 306.492 724.898 306.492C725.64 306.492 726.253 306.226 726.253 305.904V303.104ZM733.559 304.698C733.559 304.376 732.946 304.124 732.237 304.124C731.495 304.124 730.882 304.376 730.882 304.698V305.902C730.882 306.224 731.495 306.49 732.237 306.49C732.946 306.49 733.559 306.224 733.559 305.902V304.698Z" fill="#3F3F3F"/>
<rect x="77.7773" y="342.375" width="1244.44" height="140.063" rx="1" fill="url(#paint1_linear_23745_11699)"/>
<g filter="url(#filter0_d_23745_11699)">
<path fill-rule="evenodd" clip-rule="evenodd" d="M167.358 412.856C167.543 412.575 167.857 412.406 168.193 412.406H1231.81C1232.14 412.406 1232.46 412.575 1232.64 412.856L1258.98 452.875C1259.42 453.54 1258.94 454.425 1258.14 454.425H141.855C141.059 454.425 140.582 453.54 141.02 452.875L167.358 412.856Z" fill="#0F100F"/>
</g>
<path fill-rule="evenodd" clip-rule="evenodd" d="M175.095 426.712C175.283 426.521 175.539 426.414 175.807 426.414H1224.19C1224.46 426.414 1224.72 426.521 1224.9 426.712L1252.22 454.427H147.777L175.095 426.712Z" fill="url(#paint2_linear_23745_11699)"/>
<path fill-rule="evenodd" clip-rule="evenodd" d="M689.928 398.181H692.649V386.629H689.928V398.181ZM714.653 389.949C714.555 389.914 713.67 389.319 712.358 389.319C710.588 389.319 709.375 390.649 709.375 392.435C709.375 394.15 710.555 395.515 712.358 395.515C713.637 395.515 714.555 394.955 714.653 394.885V397.965C714.325 398.106 713.375 398.386 712.162 398.386C709.113 398.386 706.425 396.11 706.425 392.435C706.425 388.969 708.851 386.449 712.162 386.449C713.44 386.449 714.391 386.764 714.653 386.869V389.949ZM686.186 389.949C686.087 389.914 685.202 389.319 683.891 389.319C682.12 389.319 680.908 390.649 680.908 392.435C680.908 394.15 682.088 395.515 683.891 395.515C685.169 395.515 686.087 394.955 686.186 394.885V397.965C685.858 398.106 684.94 398.386 683.727 398.386C680.645 398.386 677.957 396.11 677.957 392.435C677.957 388.969 680.383 386.449 683.727 386.449C685.005 386.449 685.956 386.764 686.186 386.869V389.949ZM723.236 389.367C721.629 389.367 720.416 390.767 720.416 392.412C720.416 394.092 721.629 395.458 723.236 395.458C724.875 395.458 726.055 394.092 726.055 392.412C726.055 390.767 724.875 389.367 723.236 389.367M728.97 392.413C728.97 395.704 726.577 398.399 723.233 398.399C719.922 398.399 717.529 395.704 717.529 392.413C717.529 389.123 719.922 386.462 723.233 386.462C726.577 386.462 728.97 389.123 728.97 392.413M703.028 389.265C702.995 389.265 701.848 388.915 700.897 388.915C699.782 388.915 699.192 389.3 699.192 389.86C699.192 390.56 700.012 390.805 700.471 390.945L701.192 391.225C702.995 391.82 703.782 393.116 703.782 394.516C703.782 397.421 701.422 398.401 699.323 398.401C697.848 398.401 696.504 398.086 696.34 398.051V395.426C696.602 395.496 697.75 395.846 698.93 395.846C700.307 395.846 700.93 395.426 700.93 394.761C700.93 394.201 700.373 393.851 699.684 393.641C699.553 393.571 699.291 393.501 699.127 393.431C697.586 392.906 696.307 391.96 696.307 390.035C696.307 387.9 697.848 386.43 700.373 386.43C701.684 386.43 702.93 386.78 703.028 386.815V389.265ZM675.073 374.24C675.073 373.435 674.417 372.805 673.696 372.805C672.942 372.805 672.352 373.435 672.352 374.24V377.251C672.352 378.056 672.942 378.721 673.696 378.721C674.417 378.721 675.073 378.056 675.073 377.251V374.24ZM682.501 370.256C682.501 369.486 681.878 368.821 681.124 368.821C680.402 368.821 679.78 369.486 679.78 370.256V377.257C679.78 378.062 680.402 378.727 681.124 378.727C681.878 378.727 682.501 378.062 682.501 377.257V370.256ZM689.943 364.822C689.943 364.017 689.321 363.387 688.567 363.387C687.845 363.387 687.222 364.017 687.222 364.822V380.154C687.222 380.924 687.845 381.589 688.567 381.589C689.321 381.589 689.943 380.924 689.943 380.154V364.822ZM697.371 370.256C697.371 369.486 696.749 368.821 696.027 368.821C695.273 368.821 694.65 369.486 694.65 370.256V377.257C694.65 378.062 695.273 378.727 696.027 378.727C696.749 378.727 697.371 378.062 697.371 377.257V370.256ZM704.817 374.24C704.817 373.435 704.194 372.805 703.44 372.805C702.719 372.805 702.096 373.435 702.096 374.24V377.251C702.096 378.056 702.719 378.721 703.44 378.721C704.194 378.721 704.817 378.056 704.817 377.251V374.24ZM712.245 370.256C712.245 369.486 711.622 368.821 710.868 368.821C710.147 368.821 709.524 369.486 709.524 370.256V377.257C709.524 378.062 710.147 378.727 710.868 378.727C711.622 378.727 712.245 378.062 712.245 377.257V370.256ZM719.687 364.822C719.687 364.017 719.097 363.387 718.343 363.387C717.589 363.387 716.966 364.017 716.966 364.822V380.154C716.966 380.924 717.589 381.589 718.343 381.589C719.097 381.589 719.687 380.924 719.687 380.154V364.822ZM727.147 370.256C727.147 369.486 726.524 368.821 725.77 368.821C725.016 368.821 724.426 369.486 724.426 370.256V377.257C724.426 378.062 725.016 378.727 725.77 378.727C726.524 378.727 727.147 378.062 727.147 377.257V370.256ZM734.575 374.24C734.575 373.435 733.952 372.805 733.231 372.805C732.477 372.805 731.854 373.435 731.854 374.24V377.251C731.854 378.056 732.477 378.721 733.231 378.721C733.952 378.721 734.575 378.056 734.575 377.251V374.24Z" fill="white"/>
</g>
<defs>
<filter id="filter0_d_23745_11699" x="140.854" y="411.906" width="1118.29" height="42.5195" filterUnits="userSpaceOnUse" color-interpolation-filters="sRGB">
<feFlood flood-opacity="0" result="BackgroundImageFix"/>
<feColorMatrix in="SourceAlpha" type="matrix" values="0 0 0 0 0 0 0 0 0 0 0 0 0 0 0 0 0 0 127 0" result="hardAlpha"/>
<feOffset dy="-0.5"/>
<feColorMatrix type="matrix" values="0 0 0 0 1 0 0 0 0 1 0 0 0 0 1 0 0 0 0.5 0"/>
<feBlend mode="normal" in2="BackgroundImageFix" result="effect1_dropShadow_23745_11699"/>
<feBlend mode="normal" in="SourceGraphic" in2="effect1_dropShadow_23745_11699" result="shape"/>
</filter>
<radialGradient id="paint0_radial_23745_11699" cx="0" cy="0" r="1" gradientUnits="userSpaceOnUse" gradientTransform="translate(700 310.861) rotate(180) scale(537.085 9.77801)">
<stop stop-color="#5B5B5C"/>
<stop offset="1" stop-color="#505050"/>
</radialGradient>
<linearGradient id="paint1_linear_23745_11699" x1="77.7773" y1="342.375" x2="77.7773" y2="482.438" gradientUnits="userSpaceOnUse">
<stop stop-color="#D8D8DB"/>
<stop offset="1" stop-color="#D2D3D7"/>
</linearGradient>
<linearGradient id="paint2_linear_23745_11699" x1="1252.22" y1="454.427" x2="1252.22" y2="426.414" gradientUnits="userSpaceOnUse">
<stop stop-color="#EAEAEC"/>
<stop offset="1" stop-color="#929292"/>
</linearGradient>
<clipPath id="clip0_23745_11699">
<rect width="1400" height="747" fill="white"/>
</clipPath>
</defs>
</svg>
