<svg width="180" height="96" viewBox="0 0 180 96" fill="none" xmlns="http://www.w3.org/2000/svg">
<g clip-path="url(#clip0_23745_11706)">
<path fill-rule="evenodd" clip-rule="evenodd" d="M77.9613 8.3335C77.8122 8.3335 77.6765 8.23216 77.6378 8.0815L76.3705 3.00016H74.8928L73.6255 8.0815C73.5802 8.25883 73.4005 8.36416 73.2208 8.32416C73.0437 8.27883 72.9345 8.0975 72.9785 7.91883L74.3736 2.3335H76.8897L78.2848 7.91883C78.3288 8.0975 78.2196 8.27883 78.0425 8.32416C78.0146 8.33083 77.988 8.3335 77.9613 8.3335Z" fill="#E9E9E9"/>
<mask id="path-2-inside-1_23745_11706" fill="white">
<path fill-rule="evenodd" clip-rule="evenodd" d="M70.3062 3.33337C69.9388 3.33337 69.6406 3.63204 69.6406 4.00004V12C69.6406 12.368 69.9388 12.6667 70.3062 12.6667H80.9563C81.3237 12.6667 81.6219 12.368 81.6219 12V4.00004C81.6219 3.63204 81.3237 3.33337 80.9563 3.33337H70.3062ZM80.9555 14H70.3055C69.2045 14 68.3086 13.1027 68.3086 12V4C68.3086 2.89733 69.2045 2 70.3055 2H80.9555C82.0564 2 82.9523 2.89733 82.9523 4V12C82.9523 13.1027 82.0564 14 80.9555 14Z"/>
</mask>
<path fill-rule="evenodd" clip-rule="evenodd" d="M70.3062 3.33337C69.9388 3.33337 69.6406 3.63204 69.6406 4.00004V12C69.6406 12.368 69.9388 12.6667 70.3062 12.6667H80.9563C81.3237 12.6667 81.6219 12.368 81.6219 12V4.00004C81.6219 3.63204 81.3237 3.33337 80.9563 3.33337H70.3062ZM80.9555 14H70.3055C69.2045 14 68.3086 13.1027 68.3086 12V4C68.3086 2.89733 69.2045 2 70.3055 2H80.9555C82.0564 2 82.9523 2.89733 82.9523 4V12C82.9523 13.1027 82.0564 14 80.9555 14Z" fill="url(#paint0_linear_23745_11706)"/>
<path d="M70.3062 2.83337C69.6619 2.83337 69.1406 3.35664 69.1406 4.00004H70.1406C70.1406 3.90745 70.2157 3.83337 70.3062 3.83337V2.83337ZM69.1406 4.00004V12H70.1406V4.00004H69.1406ZM69.1406 12C69.1406 12.6434 69.6619 13.1667 70.3062 13.1667V12.1667C70.2157 12.1667 70.1406 12.0926 70.1406 12H69.1406ZM70.3062 13.1667H80.9563V12.1667H70.3062V13.1667ZM80.9563 13.1667C81.6006 13.1667 82.1219 12.6434 82.1219 12H81.1219C81.1219 12.0926 81.0468 12.1667 80.9563 12.1667V13.1667ZM82.1219 12V4.00004H81.1219V12H82.1219ZM82.1219 4.00004C82.1219 3.35664 81.6006 2.83337 80.9563 2.83337V3.83337C81.0468 3.83337 81.1219 3.90745 81.1219 4.00004H82.1219ZM80.9563 2.83337H70.3062V3.83337H80.9563V2.83337ZM80.9555 13.5H70.3055V14.5H80.9555V13.5ZM70.3055 13.5C69.4814 13.5 68.8086 12.8273 68.8086 12H67.8086C67.8086 13.3781 68.9276 14.5 70.3055 14.5V13.5ZM68.8086 12V4H67.8086V12H68.8086ZM68.8086 4C68.8086 3.17274 69.4814 2.5 70.3055 2.5V1.5C68.9276 1.5 67.8086 2.62193 67.8086 4H68.8086ZM70.3055 2.5H80.9555V1.5H70.3055V2.5ZM80.9555 2.5C81.7795 2.5 82.4523 3.17274 82.4523 4H83.4523C83.4523 2.62193 82.3333 1.5 80.9555 1.5V2.5ZM82.4523 4V12H83.4523V4H82.4523ZM82.4523 12C82.4523 12.8273 81.7795 13.5 80.9555 13.5V14.5C82.3333 14.5 83.4523 13.3781 83.4523 12H82.4523Z" fill="#EAEAEA" mask="url(#path-2-inside-1_23745_11706)"/>
<path fill-rule="evenodd" clip-rule="evenodd" d="M107.248 8.3335C107.099 8.3335 106.964 8.23216 106.925 8.0815L105.658 3.00016H104.18L102.913 8.0815C102.867 8.25883 102.688 8.36416 102.508 8.32416C102.331 8.27883 102.222 8.0975 102.266 7.91883L103.661 2.3335H106.177L107.572 7.91883C107.616 8.0975 107.507 8.27883 107.33 8.32416C107.302 8.33083 107.275 8.3335 107.248 8.3335Z" fill="#E9E9E9"/>
<mask id="path-5-inside-2_23745_11706" fill="white">
<path fill-rule="evenodd" clip-rule="evenodd" d="M99.5953 3.33337C99.2279 3.33337 98.9297 3.63204 98.9297 4.00004V12C98.9297 12.368 99.2279 12.6667 99.5953 12.6667H110.245C110.613 12.6667 110.911 12.368 110.911 12V4.00004C110.911 3.63204 110.613 3.33337 110.245 3.33337H99.5953ZM110.245 14H99.5945C98.4936 14 97.5977 13.1027 97.5977 12V4C97.5977 2.89733 98.4936 2 99.5945 2H110.245C111.345 2 112.241 2.89733 112.241 4V12C112.241 13.1027 111.345 14 110.245 14Z"/>
</mask>
<path fill-rule="evenodd" clip-rule="evenodd" d="M99.5953 3.33337C99.2279 3.33337 98.9297 3.63204 98.9297 4.00004V12C98.9297 12.368 99.2279 12.6667 99.5953 12.6667H110.245C110.613 12.6667 110.911 12.368 110.911 12V4.00004C110.911 3.63204 110.613 3.33337 110.245 3.33337H99.5953ZM110.245 14H99.5945C98.4936 14 97.5977 13.1027 97.5977 12V4C97.5977 2.89733 98.4936 2 99.5945 2H110.245C111.345 2 112.241 2.89733 112.241 4V12C112.241 13.1027 111.345 14 110.245 14Z" fill="url(#paint1_linear_23745_11706)"/>
<path d="M99.5953 2.83337C98.951 2.83337 98.4297 3.35664 98.4297 4.00004H99.4297C99.4297 3.90745 99.5048 3.83337 99.5953 3.83337V2.83337ZM98.4297 4.00004V12H99.4297V4.00004H98.4297ZM98.4297 12C98.4297 12.6434 98.951 13.1667 99.5953 13.1667V12.1667C99.5048 12.1667 99.4297 12.0926 99.4297 12H98.4297ZM99.5953 13.1667H110.245V12.1667H99.5953V13.1667ZM110.245 13.1667C110.89 13.1667 111.411 12.6434 111.411 12H110.411C110.411 12.0926 110.336 12.1667 110.245 12.1667V13.1667ZM111.411 12V4.00004H110.411V12H111.411ZM111.411 4.00004C111.411 3.35664 110.89 2.83337 110.245 2.83337V3.83337C110.336 3.83337 110.411 3.90745 110.411 4.00004H111.411ZM110.245 2.83337H99.5953V3.83337H110.245V2.83337ZM110.245 13.5H99.5945V14.5H110.245V13.5ZM99.5945 13.5C98.7705 13.5 98.0977 12.8273 98.0977 12H97.0977C97.0977 13.3781 98.2167 14.5 99.5945 14.5V13.5ZM98.0977 12V4H97.0977V12H98.0977ZM98.0977 4C98.0977 3.17274 98.7705 2.5 99.5945 2.5V1.5C98.2167 1.5 97.0977 2.62193 97.0977 4H98.0977ZM99.5945 2.5H110.245V1.5H99.5945V2.5ZM110.245 2.5C111.069 2.5 111.741 3.17274 111.741 4H112.741C112.741 2.62193 111.622 1.5 110.245 1.5V2.5ZM111.741 4V12H112.741V4H111.741ZM111.741 12C111.741 12.8273 111.069 13.5 110.245 13.5V14.5C111.622 14.5 112.741 13.3781 112.741 12H111.741Z" fill="#EAEAEA" mask="url(#path-5-inside-2_23745_11706)"/>
<path fill-rule="evenodd" clip-rule="evenodd" d="M56.9945 57.3333V88C56.9945 89.472 58.1873 90.6667 59.657 90.6667V92H55.6633L54.332 90.6667V56L56.9945 57.3333Z" fill="url(#paint2_linear_23745_11706)"/>
<path fill-rule="evenodd" clip-rule="evenodd" d="M123.557 57.3333V88C123.557 89.472 122.364 90.6667 120.895 90.6667V92H124.888L126.22 90.6667V56L123.557 57.3333Z" fill="url(#paint3_linear_23745_11706)"/>
<path fill-rule="evenodd" clip-rule="evenodd" d="M124.887 51.4062V87.9996C124.887 89.4729 123.695 90.6662 122.225 90.6662H58.325C56.8553 90.6662 55.6625 89.4729 55.6625 87.9996V51.4062C54.0783 52.3303 53 54.0316 53 55.9996V87.9996C53 90.9449 55.3843 93.3329 58.325 93.3329H122.225C125.166 93.3329 127.55 90.9449 127.55 87.9996V55.9996C127.55 54.0316 126.472 52.3303 124.887 51.4062Z" fill="url(#paint4_linear_23745_11706)"/>
<path fill-rule="evenodd" clip-rule="evenodd" d="M111.574 12C111.574 12.736 110.978 13.3333 110.243 13.3333H99.593C98.8581 13.3333 98.2617 12.736 98.2617 12V3.99996C98.2617 3.26396 98.8581 2.66663 99.593 2.66663H110.243C110.978 2.66663 111.574 3.26396 111.574 3.99996V12ZM82.2871 12C82.2871 12.736 81.6907 13.3333 80.9559 13.3333H70.3059C69.571 13.3333 68.9746 12.736 68.9746 12V3.99996C68.9746 3.26396 69.571 2.66663 70.3059 2.66663H80.9559C81.6907 2.66663 82.2871 3.26396 82.2871 3.99996V12ZM124.887 0H55.6625C54.1928 0 53 1.19467 53 2.66667V54.6667C53 56.1387 54.1928 57.3333 55.6625 57.3333H124.887C126.357 57.3333 127.55 56.1387 127.55 54.6667V2.66667C127.55 1.19467 126.357 0 124.887 0Z" fill="#E0E0E0"/>
<path fill-rule="evenodd" clip-rule="evenodd" d="M88.8984 55.9834H89.0973V55.1036H88.8984V55.9834ZM90.7047 55.3564C90.6975 55.3537 90.6328 55.3084 90.537 55.3084C90.4077 55.3084 90.319 55.4097 90.319 55.5456C90.319 55.6763 90.4053 55.7802 90.537 55.7802C90.6305 55.7802 90.6975 55.7376 90.7047 55.7322V55.9668C90.6808 55.9775 90.6113 55.9988 90.5227 55.9988C90.2999 55.9988 90.1034 55.8255 90.1034 55.5456C90.1034 55.2817 90.2807 55.0898 90.5227 55.0898C90.6161 55.0898 90.6856 55.1138 90.7047 55.1218V55.3564ZM88.6247 55.3563C88.6175 55.3536 88.5528 55.3083 88.457 55.3083C88.3277 55.3083 88.239 55.4096 88.239 55.5456C88.239 55.6762 88.3253 55.7802 88.457 55.7802C88.5505 55.7802 88.6175 55.7375 88.6247 55.7322V55.9668C88.6008 55.9775 88.5337 55.9988 88.4451 55.9988C88.2199 55.9988 88.0234 55.8255 88.0234 55.5456C88.0234 55.2817 88.2007 55.0897 88.4451 55.0897C88.5385 55.0897 88.6079 55.1137 88.6247 55.1217V55.3563ZM91.331 55.3121C91.2136 55.3121 91.125 55.4188 91.125 55.5441C91.125 55.672 91.2136 55.776 91.331 55.776C91.4508 55.776 91.537 55.672 91.537 55.5441C91.537 55.4188 91.4508 55.3121 91.331 55.3121ZM91.7521 55.544C91.7521 55.7946 91.5772 55.9999 91.3328 55.9999C91.0909 55.9999 90.916 55.7946 90.916 55.544C90.916 55.2934 91.0909 55.0908 91.3328 55.0908C91.5772 55.0908 91.7521 55.2934 91.7521 55.544ZM89.8545 55.3044C89.8521 55.3044 89.7683 55.2777 89.6988 55.2777C89.6174 55.2777 89.5743 55.307 89.5743 55.3497C89.5743 55.403 89.6342 55.4217 89.6677 55.4323L89.7204 55.4537C89.8521 55.499 89.9096 55.5976 89.9096 55.7043C89.9096 55.9255 89.7372 56.0002 89.5838 56.0002C89.476 56.0002 89.3778 55.9762 89.3659 55.9735V55.7736C89.385 55.7789 89.4689 55.8056 89.5551 55.8056C89.6557 55.8056 89.7012 55.7736 89.7012 55.7229C89.7012 55.6803 89.6605 55.6536 89.6102 55.6376C89.6006 55.6323 89.5814 55.6269 89.5695 55.6216C89.4569 55.5816 89.3635 55.5096 89.3635 55.363C89.3635 55.2004 89.476 55.0884 89.6605 55.0884C89.7563 55.0884 89.8474 55.1151 89.8545 55.1178V55.3044ZM87.8121 54.1602C87.8121 54.0989 87.7642 54.0509 87.7115 54.0509C87.6564 54.0509 87.6133 54.0989 87.6133 54.1602V54.3894C87.6133 54.4508 87.6564 54.5014 87.7115 54.5014C87.7642 54.5014 87.8121 54.4508 87.8121 54.3894V54.1602ZM88.3549 53.8568C88.3549 53.7982 88.3094 53.7475 88.2543 53.7475C88.2016 53.7475 88.1561 53.7982 88.1561 53.8568V54.39C88.1561 54.4513 88.2016 54.5019 88.2543 54.5019C88.3094 54.5019 88.3549 54.4513 88.3549 54.39V53.8568ZM88.898 53.4428C88.898 53.3815 88.8525 53.3335 88.7974 53.3335C88.7447 53.3335 88.6992 53.3815 88.6992 53.4428V54.6104C88.6992 54.6691 88.7447 54.7197 88.7974 54.7197C88.8525 54.7197 88.898 54.6691 88.898 54.6104V53.4428ZM89.441 53.8569C89.441 53.7982 89.3955 53.7476 89.3428 53.7476C89.2877 53.7476 89.2422 53.7982 89.2422 53.8569V54.39C89.2422 54.4513 89.2877 54.502 89.3428 54.502C89.3955 54.502 89.441 54.4513 89.441 54.39V53.8569ZM89.9859 54.1602C89.9859 54.0989 89.9404 54.0509 89.8853 54.0509C89.8326 54.0509 89.7871 54.0989 89.7871 54.1602V54.3895C89.7871 54.4508 89.8326 54.5014 89.8853 54.5014C89.9404 54.5014 89.9859 54.4508 89.9859 54.3895V54.1602ZM90.5289 53.8569C90.5289 53.7982 90.4834 53.7476 90.4283 53.7476C90.3756 53.7476 90.3301 53.7982 90.3301 53.8569V54.39C90.3301 54.4513 90.3756 54.502 90.4283 54.502C90.4834 54.502 90.5289 54.4513 90.5289 54.39V53.8569ZM91.0719 53.4428C91.0719 53.3815 91.0288 53.3335 90.9737 53.3335C90.9186 53.3335 90.873 53.3815 90.873 53.4428V54.6104C90.873 54.6691 90.9186 54.7197 90.9737 54.7197C91.0288 54.7197 91.0719 54.6691 91.0719 54.6104V53.4428ZM91.6168 53.8569C91.6168 53.7982 91.5713 53.7476 91.5162 53.7476C91.4611 53.7476 91.418 53.7982 91.418 53.8569V54.39C91.418 54.4513 91.4611 54.502 91.5162 54.502C91.5713 54.502 91.6168 54.4513 91.6168 54.39V53.8569ZM92.16 54.1602C92.16 54.0989 92.1145 54.0509 92.0618 54.0509C92.0067 54.0509 91.9612 54.0989 91.9612 54.1602V54.3894C91.9612 54.4508 92.0067 54.5014 92.0618 54.5014C92.1145 54.5014 92.16 54.4508 92.16 54.3894V54.1602Z" fill="#908E8E"/>
<path fill-rule="evenodd" clip-rule="evenodd" d="M58.3242 96V94.6667L60.9867 92H64.9805V93.3333L62.318 96H58.3242Z" fill="url(#paint5_radial_23745_11706)"/>
<path fill-rule="evenodd" clip-rule="evenodd" d="M62.708 94.276C62.4591 94.5253 62.1196 94.6667 61.7668 94.6667H58.3242V96H61.7668C62.1196 96 62.4591 95.8587 62.708 95.6093L64.9805 93.3333V92L62.708 94.276Z" fill="#D3D3D3"/>
<path fill-rule="evenodd" clip-rule="evenodd" d="M122.225 96V94.6667L119.562 92H115.568V93.3333L118.231 96H122.225Z" fill="url(#paint6_radial_23745_11706)"/>
<path fill-rule="evenodd" clip-rule="evenodd" d="M117.841 94.276C118.09 94.5253 118.429 94.6667 118.782 94.6667H122.225V96H118.782C118.429 96 118.09 95.8587 117.841 95.6093L115.568 93.3333V92L117.841 94.276Z" fill="#D3D3D3"/>
<path fill-rule="evenodd" clip-rule="evenodd" d="M124.221 51.9998H56.3277C55.9603 51.9998 55.6621 51.7012 55.6621 51.3332V15.3332C55.6621 14.9652 55.9603 14.6665 56.3277 14.6665H124.221C124.589 14.6665 124.887 14.9652 124.887 15.3332V51.3332C124.887 51.7012 124.589 51.9998 124.221 51.9998Z" fill="#222222"/>
<path fill-rule="evenodd" clip-rule="evenodd" d="M124.221 51.9998H56.3277C55.9603 51.9998 55.6621 51.7012 55.6621 51.3332V15.3332C55.6621 14.9652 55.9603 14.6665 56.3277 14.6665H124.221C124.589 14.6665 124.887 14.9652 124.887 15.3332V51.3332C124.887 51.7012 124.589 51.9998 124.221 51.9998Z" fill="url(#paint7_linear_23745_11706)"/>
<path fill-rule="evenodd" clip-rule="evenodd" d="M78.2937 8.00016C78.2937 6.52816 77.1009 5.3335 75.6312 5.3335C74.1615 5.3335 72.9688 6.52816 72.9688 8.00016C72.9688 9.47216 74.1615 10.6668 75.6312 10.6668C77.1009 10.6668 78.2937 9.47216 78.2937 8.00016Z" fill="#232323"/>
<path fill-rule="evenodd" clip-rule="evenodd" d="M76.9633 7.99984C76.9633 7.26384 76.3669 6.6665 75.632 6.6665C74.8972 6.6665 74.3008 7.26384 74.3008 7.99984C74.3008 8.73584 74.8972 9.33317 75.632 9.33317C76.3669 9.33317 76.9633 8.73584 76.9633 7.99984Z" fill="#373B47"/>
<path fill-rule="evenodd" clip-rule="evenodd" d="M107.581 8.00016C107.581 6.52816 106.388 5.3335 104.918 5.3335C103.449 5.3335 102.256 6.52816 102.256 8.00016C102.256 9.47216 103.449 10.6668 104.918 10.6668C106.388 10.6668 107.581 9.47216 107.581 8.00016Z" fill="#232323"/>
<path fill-rule="evenodd" clip-rule="evenodd" d="M106.25 7.99984C106.25 7.26384 105.654 6.6665 104.919 6.6665C104.184 6.6665 103.588 7.26384 103.588 7.99984C103.588 8.73584 104.184 9.33317 104.919 9.33317C105.654 9.33317 106.25 8.73584 106.25 7.99984Z" fill="#373B47"/>
</g>
<defs>
<linearGradient id="paint0_linear_23745_11706" x1="68.3086" y1="2" x2="68.3086" y2="14" gradientUnits="userSpaceOnUse">
<stop stop-color="#EFEFEF"/>
<stop offset="0.506076" stop-color="white"/>
<stop offset="1" stop-color="#EFEFEF"/>
</linearGradient>
<linearGradient id="paint1_linear_23745_11706" x1="97.5977" y1="2" x2="97.5977" y2="14" gradientUnits="userSpaceOnUse">
<stop stop-color="#EFEFEF"/>
<stop offset="0.506076" stop-color="white"/>
<stop offset="1" stop-color="#EFEFEF"/>
</linearGradient>
<linearGradient id="paint2_linear_23745_11706" x1="54.3338" y1="56" x2="54.3338" y2="91.9756" gradientUnits="userSpaceOnUse">
<stop stop-color="#B1B1B1"/>
<stop offset="0.278382" stop-color="#C9C9C9"/>
<stop offset="0.514141" stop-color="#D6D6D6"/>
<stop offset="0.743587" stop-color="#C9C9C9"/>
<stop offset="0.953577" stop-color="#ECECEC"/>
<stop offset="0.999932" stop-color="#B1B1B1"/>
</linearGradient>
<linearGradient id="paint3_linear_23745_11706" x1="120.896" y1="56" x2="120.896" y2="91.9756" gradientUnits="userSpaceOnUse">
<stop stop-color="#B1B1B1"/>
<stop offset="0.278382" stop-color="#C9C9C9"/>
<stop offset="0.514141" stop-color="#D6D6D6"/>
<stop offset="0.743587" stop-color="#C9C9C9"/>
<stop offset="0.953577" stop-color="#ECECEC"/>
<stop offset="0.999932" stop-color="#B1B1B1"/>
</linearGradient>
<linearGradient id="paint4_linear_23745_11706" x1="53.0101" y1="51.4062" x2="53.0101" y2="93.3216" gradientUnits="userSpaceOnUse">
<stop stop-color="#CFCFCF"/>
<stop offset="0.470308" stop-color="#F1F1F1"/>
<stop offset="0.999932" stop-color="#D9D9D9"/>
</linearGradient>
<radialGradient id="paint5_radial_23745_11706" cx="0" cy="0" r="1" gradientUnits="userSpaceOnUse" gradientTransform="translate(62.5027 100.221) rotate(24.0092) scale(4.91541 3.819)">
<stop stop-color="#9C9C9C"/>
<stop offset="0.528236" stop-color="#E8E8E8"/>
<stop offset="1" stop-color="#E8E8E8"/>
</radialGradient>
<radialGradient id="paint6_radial_23745_11706" cx="0" cy="0" r="1" gradientUnits="userSpaceOnUse" gradientTransform="translate(119.747 100.221) rotate(24.0092) scale(4.91541 3.819)">
<stop stop-color="#9C9C9C"/>
<stop offset="0.528236" stop-color="#E8E8E8"/>
<stop offset="1" stop-color="#E8E8E8"/>
</radialGradient>
<linearGradient id="paint7_linear_23745_11706" x1="21.0496" y1="33.3332" x2="52.2446" y2="91.1762" gradientUnits="userSpaceOnUse">
<stop stop-color="white" stop-opacity="0.24"/>
<stop offset="1" stop-opacity="0.5"/>
</linearGradient>
<clipPath id="clip0_23745_11706">
<rect width="180" height="96" fill="white"/>
</clipPath>
</defs>
</svg>
