<svg width="1400" height="747" viewBox="0 0 1400 747" fill="none" xmlns="http://www.w3.org/2000/svg">
<g clip-path="url(#clip0_23745_11666)">
<path fill-rule="evenodd" clip-rule="evenodd" d="M414.908 747H339.489C328.107 747 318.889 737.704 318.889 726.25V570.625H463.093L435.189 729.86C433.459 739.779 424.899 747 414.908 747" fill="url(#paint0_linear_23745_11666)"/>
<path fill-rule="evenodd" clip-rule="evenodd" d="M985.089 747H1060.51C1071.89 747 1081.11 737.704 1081.11 726.25V570.625H936.904L964.808 729.86C966.538 739.779 975.098 747 985.089 747" fill="url(#paint1_linear_23745_11666)"/>
<path fill-rule="evenodd" clip-rule="evenodd" d="M1081.11 518.75H318.889V51.875C318.889 40.421 328.118 31.125 339.489 31.125H1060.51C1071.88 31.125 1081.11 40.421 1081.11 51.875V518.75Z" fill="#1A1A1A"/>
<path fill-rule="evenodd" clip-rule="evenodd" d="M1060.51 684.75H339.489C328.118 684.75 318.889 675.454 318.889 664V518.75H1081.11V664C1081.11 675.454 1071.88 684.75 1060.51 684.75" fill="#E0E0E0"/>
<path fill-rule="evenodd" clip-rule="evenodd" d="M699.635 643.118H701.173V636.272H699.635V643.118ZM713.614 638.24C713.558 638.219 713.058 637.866 712.316 637.866C711.315 637.866 710.63 638.655 710.63 639.713C710.63 640.729 711.297 641.538 712.316 641.538C713.039 641.538 713.558 641.206 713.614 641.165V642.99C713.428 643.073 712.891 643.239 712.205 643.239C710.481 643.239 708.962 641.891 708.962 639.713C708.962 637.659 710.333 636.165 712.205 636.165C712.928 636.165 713.466 636.352 713.614 636.414V638.24ZM697.526 638.24C697.47 638.219 696.97 637.866 696.229 637.866C695.228 637.866 694.542 638.655 694.542 639.713C694.542 640.729 695.209 641.538 696.229 641.538C696.952 641.538 697.47 641.206 697.526 641.165V642.99C697.341 643.073 696.822 643.239 696.136 643.239C694.394 643.239 692.874 641.891 692.874 639.713C692.874 637.659 694.245 636.165 696.136 636.165C696.859 636.165 697.396 636.352 697.526 636.414V638.24ZM718.472 637.897C717.563 637.897 716.878 638.726 716.878 639.701C716.878 640.697 717.563 641.506 718.472 641.506C719.398 641.506 720.066 640.697 720.066 639.701C720.066 638.726 719.398 637.897 718.472 637.897M721.719 639.7C721.719 641.65 720.366 643.247 718.476 643.247C716.604 643.247 715.251 641.65 715.251 639.7C715.251 637.75 716.604 636.174 718.476 636.174C720.366 636.174 721.719 637.75 721.719 639.7M707.034 637.835C707.016 637.835 706.367 637.627 705.829 637.627C705.199 637.627 704.865 637.856 704.865 638.187C704.865 638.602 705.329 638.748 705.588 638.831L705.996 638.996C707.016 639.349 707.46 640.117 707.46 640.946C707.46 642.668 706.126 643.249 704.94 643.249C704.106 643.249 703.346 643.062 703.253 643.041V641.486C703.401 641.527 704.05 641.735 704.717 641.735C705.496 641.735 705.848 641.486 705.848 641.092C705.848 640.76 705.533 640.552 705.143 640.428C705.069 640.386 704.921 640.345 704.828 640.303C703.957 639.992 703.234 639.432 703.234 638.291C703.234 637.026 704.106 636.155 705.533 636.155C706.274 636.155 706.978 636.362 707.034 636.383V637.835ZM691.238 628.932C691.238 628.455 690.867 628.082 690.459 628.082C690.033 628.082 689.699 628.455 689.699 628.932V630.716C689.699 631.193 690.033 631.587 690.459 631.587C690.867 631.587 691.238 631.193 691.238 630.716V628.932ZM695.431 626.572C695.431 626.116 695.079 625.722 694.652 625.722C694.245 625.722 693.892 626.116 693.892 626.572V630.721C693.892 631.198 694.245 631.592 694.652 631.592C695.079 631.592 695.431 631.198 695.431 630.721V626.572ZM699.638 623.35C699.638 622.873 699.285 622.5 698.859 622.5C698.451 622.5 698.099 622.873 698.099 623.35V632.436C698.099 632.893 698.451 633.287 698.859 633.287C699.285 633.287 699.638 632.893 699.638 632.436V623.35ZM703.846 626.572C703.846 626.116 703.494 625.722 703.086 625.722C702.66 625.722 702.307 626.116 702.307 626.572V630.721C702.307 631.198 702.66 631.592 703.086 631.592C703.494 631.592 703.846 631.198 703.846 630.721V626.572ZM708.053 628.932C708.053 628.455 707.7 628.082 707.274 628.082C706.866 628.082 706.514 628.455 706.514 628.932V630.716C706.514 631.193 706.866 631.587 707.274 631.587C707.7 631.587 708.053 631.193 708.053 630.716V628.932ZM712.247 626.572C712.247 626.116 711.895 625.722 711.469 625.722C711.061 625.722 710.709 626.116 710.709 626.572V630.721C710.709 631.198 711.061 631.592 711.469 631.592C711.895 631.592 712.247 631.198 712.247 630.721V626.572ZM716.454 623.35C716.454 622.873 716.12 622.5 715.694 622.5C715.268 622.5 714.916 622.873 714.916 623.35V632.436C714.916 632.893 715.268 633.287 715.694 633.287C716.12 633.287 716.454 632.893 716.454 632.436V623.35ZM720.679 626.572C720.679 626.116 720.326 625.722 719.9 625.722C719.474 625.722 719.14 626.116 719.14 626.572V630.721C719.14 631.198 719.474 631.592 719.9 631.592C720.326 631.592 720.679 631.198 720.679 630.721V626.572ZM724.885 628.932C724.885 628.455 724.533 628.082 724.126 628.082C723.699 628.082 723.347 628.455 723.347 628.932V630.716C723.347 631.193 723.699 631.587 724.126 631.587C724.533 631.587 724.885 631.193 724.885 630.716V628.932Z" fill="#908E8E"/>
<path fill-rule="evenodd" clip-rule="evenodd" d="M1039.92 632.875C1039.92 638.612 1035.3 643.25 1029.61 643.25C1023.93 643.25 1019.31 638.612 1019.31 632.875C1019.31 627.138 1023.93 622.5 1029.61 622.5C1035.3 622.5 1039.92 627.138 1039.92 632.875Z" fill="white" fill-opacity="0.6"/>
<path fill-rule="evenodd" clip-rule="evenodd" d="M730.903 31.125C730.903 13.9336 717.07 0 700.002 0C682.935 0 669.102 13.9336 669.102 31.125C669.102 48.3164 682.935 62.25 700.002 62.25C717.07 62.25 730.903 48.3164 730.903 31.125" fill="url(#paint2_linear_23745_11666)"/>
<path fill-rule="evenodd" clip-rule="evenodd" d="M720.602 31.125C720.602 19.671 711.373 10.375 700.001 10.375C688.629 10.375 679.4 19.671 679.4 31.125C679.4 42.579 688.629 51.875 700.001 51.875C711.373 51.875 720.602 42.579 720.602 31.125" fill="#232323"/>
<path fill-rule="evenodd" clip-rule="evenodd" d="M1034.76 466.875H365.236C362.393 466.875 360.086 464.551 360.086 461.687V98.5625C360.086 95.699 362.393 93.375 365.236 93.375H1034.76C1037.6 93.375 1039.91 95.699 1039.91 98.5625V461.687C1039.91 464.551 1037.6 466.875 1034.76 466.875" fill="#222222"/>
<path fill-rule="evenodd" clip-rule="evenodd" d="M1034.76 466.875H365.236C362.393 466.875 360.086 464.551 360.086 461.687V98.5625C360.086 95.699 362.393 93.375 365.236 93.375H1034.76C1037.6 93.375 1039.91 95.699 1039.91 98.5625V461.687C1039.91 464.551 1037.6 466.875 1034.76 466.875" fill="url(#paint3_linear_23745_11666)"/>
<path fill-rule="evenodd" clip-rule="evenodd" d="M710.3 31.125C710.3 25.3876 705.685 20.75 700 20.75C694.314 20.75 689.699 25.3876 689.699 31.125C689.699 36.8624 694.314 41.5 700 41.5C705.685 41.5 710.3 36.8624 710.3 31.125" fill="#494E5C"/>
</g>
<defs>
<linearGradient id="paint0_linear_23745_11666" x1="355.487" y1="658.812" x2="355.487" y2="745.662" gradientUnits="userSpaceOnUse">
<stop stop-color="#CFCFCF"/>
<stop offset="1" stop-color="#E6E6E6"/>
</linearGradient>
<linearGradient id="paint1_linear_23745_11666" x1="973.502" y1="658.812" x2="973.502" y2="745.662" gradientUnits="userSpaceOnUse">
<stop stop-color="#CFCFCF"/>
<stop offset="1" stop-color="#E6E6E6"/>
</linearGradient>
<linearGradient id="paint2_linear_23745_11666" x1="671.355" y1="2.25295" x2="671.355" y2="59.9631" gradientUnits="userSpaceOnUse">
<stop stop-color="#424242"/>
<stop offset="1" stop-color="#656565"/>
</linearGradient>
<linearGradient id="paint3_linear_23745_11666" x1="20.176" y1="280.125" x2="335.427" y2="853.923" gradientUnits="userSpaceOnUse">
<stop stop-color="white" stop-opacity="0.24"/>
<stop offset="1" stop-opacity="0.5"/>
</linearGradient>
<clipPath id="clip0_23745_11666">
<rect width="1400" height="747" fill="white"/>
</clipPath>
</defs>
</svg>
