<svg width="32" height="33" viewBox="0 0 32 33" fill="none" xmlns="http://www.w3.org/2000/svg">
<path d="M5.4375 5.65384H26.5625C27.908 5.65384 29 6.73064 29 8.05384V23.2538C29 24.577 27.908 25.6538 26.5625 25.6538H11.4208L6.77162 29.4666C6.62212 29.5898 6.4385 29.6538 6.25 29.6538C6.133 29.6538 6.016 29.6282 5.90712 29.5786C5.62112 29.4474 5.4375 29.1642 5.4375 28.8538V25.6538C4.09363 25.6538 3 24.577 3 23.2538V8.05384C3 6.73064 4.09363 5.65384 5.4375 5.65384ZM8.605 12.0388C6.886 12.0388 6.004 12.7678 6.004 13.9108C6.004 15.2788 7.12 15.6748 8.2 15.9268C9.127 16.1428 9.82 16.3228 9.82 16.9888C9.82 17.4478 9.487 17.7358 8.614 17.7358C7.759 17.7358 7.3 17.3128 7.201 16.7458H5.77C5.95 17.9878 6.931 18.7888 8.596 18.7888C10.522 18.7888 11.341 17.8618 11.341 16.8178C11.341 15.3958 10.081 14.8918 8.839 14.6218C7.939 14.4238 7.525 14.2618 7.525 13.7308C7.525 13.3348 7.804 13.0738 8.569 13.0738C9.217 13.0738 9.694 13.3528 9.766 13.8388H11.179C11.008 12.7138 10.117 12.0388 8.605 12.0388ZM17.6935 14.1898V18.6538H19.0615V12.1738H17.2885L15.5875 17.2318L13.8325 12.1738H12.1045V18.6538H13.3825V14.1988L14.9395 18.6538H16.1725L17.6935 14.1898ZM22.7027 12.0388C20.9837 12.0388 20.1017 12.7678 20.1017 13.9108C20.1017 15.2788 21.2177 15.6748 22.2977 15.9268C23.2247 16.1428 23.9177 16.3228 23.9177 16.9888C23.9177 17.4478 23.5847 17.7358 22.7117 17.7358C21.8567 17.7358 21.3977 17.3128 21.2987 16.7458H19.8677C20.0477 17.9878 21.0287 18.7888 22.6937 18.7888C24.6197 18.7888 25.4387 17.8618 25.4387 16.8178C25.4387 15.3958 24.1787 14.8918 22.9367 14.6218C22.0367 14.4238 21.6227 14.2618 21.6227 13.7308C21.6227 13.3348 21.9017 13.0738 22.6667 13.0738C23.3147 13.0738 23.7917 13.3528 23.8637 13.8388H25.2767C25.1057 12.7138 24.2147 12.0388 22.7027 12.0388Z" fill="#0F0F0F"/>
</svg>
