<svg width="32" height="32" viewBox="0 0 32 32" fill="none" xmlns="http://www.w3.org/2000/svg">
<path d="M8.00017 18.7H18.4335V16.7H8.00017V18.7ZM8.00017 14.3667H24.0002V12.3667H8.00017V14.3667ZM8.00017 10.0334H24.0002V8.03335H8.00017V10.0334ZM2.66684 29.3334V4.66669C2.66684 4.15558 2.86684 3.69446 3.26684 3.28335C3.66684 2.87224 4.13351 2.66669 4.66684 2.66669H27.3335C27.8446 2.66669 28.3057 2.87224 28.7168 3.28335C29.128 3.69446 29.3335 4.15558 29.3335 4.66669V22C29.3335 22.5111 29.128 22.9722 28.7168 23.3834C28.3057 23.7945 27.8446 24 27.3335 24H8.00017L2.66684 29.3334Z" fill="#3B78E7"/>
</svg>
