<svg width="32" height="33" viewBox="0 0 32 33" fill="none" xmlns="http://www.w3.org/2000/svg">
<path d="M16 3.15384C8.80745 3.15384 3 9.01845 3 16.1538C3 23.2892 8.80745 29.1538 16 29.1538C23.1926 29.1538 29 23.2892 29 16.1538C29 9.01845 23.1924 3.15384 16 3.15384ZM13.9613 28.9903V26.413C13.958 25.9637 13.8222 25.5254 13.5711 25.1529C13.3199 24.7804 12.9644 24.4902 12.5492 24.3188C10.9459 23.6381 9.57799 22.5014 8.61543 21.0497C7.65287 19.5981 7.13812 17.8956 7.13514 16.1538C7.13514 11.2882 11.0954 7.289 15.9999 7.289C20.9045 7.289 24.8647 11.2882 24.8647 16.1538C24.8647 21.8948 20.4238 27.3233 13.9613 28.9903Z" fill="#0F0F0F"/>
</svg>
