<svg width="32" height="32" viewBox="0 0 32 32" fill="none" xmlns="http://www.w3.org/2000/svg">
<path d="M16.0002 29C23.1799 29 29.0002 23.1797 29.0002 16C29.0002 8.8203 23.1799 3 16.0002 3C8.82047 3 3.00018 8.8203 3.00018 16C3.00018 23.1797 8.82047 29 16.0002 29Z" fill="#1B9DF0"/>
<path d="M13.621 22.8576C19.3865 22.8576 22.539 18.0801 22.539 13.9396C22.539 13.8031 22.539 13.6666 22.5325 13.5366C23.1435 13.0946 23.6765 12.5421 24.099 11.9116C23.54 12.1586 22.9355 12.3276 22.2985 12.4056C22.9485 12.0156 23.4425 11.4046 23.6765 10.6701C23.072 11.0276 22.4025 11.2876 21.6875 11.4306C21.1155 10.8196 20.303 10.4426 19.3995 10.4426C17.6705 10.4426 16.2665 11.8466 16.2665 13.5756C16.2665 13.8226 16.2925 14.0631 16.351 14.2906C13.7445 14.1606 11.437 12.9126 9.89 11.0146C9.6235 11.4761 9.4675 12.0156 9.4675 12.5876C9.4675 13.6731 10.02 14.6351 10.865 15.1941C10.3515 15.1811 9.8705 15.0381 9.448 14.8041C9.448 14.8171 9.448 14.8301 9.448 14.8431C9.448 16.3641 10.527 17.6251 11.9635 17.9176C11.7035 17.9891 11.424 18.0281 11.138 18.0281C10.9365 18.0281 10.7415 18.0086 10.5465 17.9696C10.943 19.2176 12.1 20.1211 13.4715 20.1471C12.399 20.9856 11.047 21.4861 9.578 21.4861C9.3245 21.4861 9.0775 21.4731 8.8305 21.4406C10.202 22.3376 11.853 22.8576 13.621 22.8576Z" fill="white"/>
</svg>
