<svg width="320" height="320" viewBox="0 0 320 320" fill="none" xmlns="http://www.w3.org/2000/svg">
<path d="M158.645 248.2H165.745C166.845 248.2 167.645 247.4 167.745 246.3C168.745 228.8 183.945 215 201.945 216.3C217.745 217.4 230.545 230.2 231.645 246C232.945 264.7 218.145 280.3 199.745 280.3C184.445 280.3 171.745 269.3 168.745 255.3M238.645 248.2H277.645C287.545 248.2 295.645 240.1 295.645 230.2V66.2002C295.645 56.3002 287.545 48.2002 277.645 48.2002H41.6445C31.7445 48.2002 23.6445 56.3002 23.6445 66.2002V230.2C23.6445 240.1 31.7445 248.2 41.6445 248.2H85.7445C86.8445 248.2 87.6445 247.4 87.7445 246.3C88.7445 228.8 103.945 215 121.945 216.3C137.745 217.4 150.545 230.2 151.645 246C152.945 264.7 138.145 280.3 119.745 280.3C104.445 280.3 91.7445 269.3 88.7445 255.3M136.645 187.2C139.645 197 148.845 204.2 159.645 204.2C172.045 204.2 182.245 194.8 183.545 182.7C183.645 181.4 184.945 180.7 186.145 181.1L207.645 188.3C219.645 192.3 235.645 197.3 235.645 213.3M179.645 122.2L183.645 134.2C185.645 140.2 183.645 142.2 179.645 142.2H173.645C169.145 142.2 165.345 145.2 164.045 149.3C163.545 151 161.945 152.2 160.245 152.2C155.545 152.2 151.645 148.4 151.645 143.6V124.2C151.645 117.6 146.245 112.2 139.645 112.2H133.745C132.545 112.2 131.645 111.2 131.745 110.1C132.845 93.1002 147.245 79.8002 164.545 80.3002C181.945 80.8002 195.645 95.5002 195.645 113V148.2C195.645 161.3 184.945 172.3 171.845 172.4C147.945 172.5 127.945 146.9 127.645 128.8C127.545 125.6 129.845 122.7 133.045 122.4C136.645 122 139.645 124.8 139.645 128.4C139.645 128.4 139.645 156.4 139.645 168.4C139.645 180.4 135.645 180.4 123.645 184.4C111.645 188.4 123.645 184.4 111.645 188.4C99.6445 192.4 83.6445 197.4 83.6445 213.4M23.6445 144.3L66.6445 101.3C76.0445 91.9002 91.2445 91.9002 100.545 101.3L120.545 121.3M203.645 140.2L222.645 121.2C232.045 111.8 247.245 111.8 256.545 121.2L295.545 160.2M208.645 244.2L216.045 239.2C216.745 238.8 217.645 239.2 217.645 240V256.1C217.645 256.9 216.645 257.4 216.045 256.9L208.645 251.2V244.2ZM208.645 244.2V256.2C208.645 258.4 206.845 260.2 204.645 260.2H192.645M185.645 259.2C185.645 259.2 184.645 258.2 184.645 256.2V240.2C184.645 238 186.445 236.2 188.645 236.2H204.645C206.645 236.2 207.645 237.2 207.645 237.2M213.645 231.2L180.645 264.2M129.645 266.2H109.645M112.645 253.2V237.2C112.645 233.3 115.745 230.2 119.645 230.2C123.545 230.2 126.645 233.3 126.645 237.2V239.2M126.645 246.2V251.2C126.645 255.1 123.545 258.2 119.645 258.2M119.645 258.2C118.145 258.2 116.745 258 115.645 257.2M119.645 258.2V259.2C119.645 263.1 122.745 266.2 126.645 266.2M135.645 230.2L102.645 263.2M279.645 80.2002C279.645 89.0368 272.481 96.2002 263.645 96.2002C254.808 96.2002 247.645 89.0368 247.645 80.2002C247.645 71.3636 254.808 64.2002 263.645 64.2002C272.481 64.2002 279.645 71.3636 279.645 80.2002Z" stroke="url(#paint0_linear_3240_3368)" stroke-width="2.5" stroke-miterlimit="10" stroke-linecap="round" stroke-linejoin="round"/>
<path d="M167.645 128.2C168.749 128.2 169.645 127.305 169.645 126.2C169.645 125.096 168.749 124.2 167.645 124.2C166.54 124.2 165.645 125.096 165.645 126.2C165.645 127.305 166.54 128.2 167.645 128.2Z" fill="url(#paint1_linear_3240_3368)"/>
<defs>
<linearGradient id="paint0_linear_3240_3368" x1="159.645" y1="48.2002" x2="159.645" y2="280.3" gradientUnits="userSpaceOnUse">
<stop stop-color="#F55868"/>
<stop offset="1" stop-color="#875AE0"/>
</linearGradient>
<linearGradient id="paint1_linear_3240_3368" x1="167.645" y1="124.2" x2="167.645" y2="128.2" gradientUnits="userSpaceOnUse">
<stop stop-color="#F55868"/>
<stop offset="1" stop-color="#875AE0"/>
</linearGradient>
</defs>
</svg>
