<svg width="120" height="120" viewBox="0 0 120 120" fill="none" xmlns="http://www.w3.org/2000/svg">
<path d="M67.1653 96.2H92.1653C94.3653 96.2 96.1653 94.4 96.1653 92.2V48.2L110.065 27.3C110.965 26 109.965 24.2 108.365 24.2H78.3653C77.0653 24.2 75.7653 24.9 75.0653 26L61.5653 46.2C60.6653 47.5 60.2653 49.1 60.2653 50.6V92.2C60.2653 94.4 58.4653 96.2 56.2653 96.2H28.2653C26.0653 96.2 24.2653 94.4 24.2653 92.2V48.2M56.1653 42.2L45.3653 26C44.6653 24.9 43.3653 24.2 42.0653 24.2H11.9653C10.3653 24.2 9.36531 26 10.2653 27.4L24.1653 48.2999M68.1653 48.2H89.1653M31.1653 48.2H53.1653" stroke="url(#paint0_linear_3323_471)" stroke-width="2.5" stroke-miterlimit="10" stroke-linecap="round" stroke-linejoin="round"/>
<defs>
<linearGradient id="paint0_linear_3323_471" x1="60.1653" y1="24.2" x2="60.1653" y2="96.2" gradientUnits="userSpaceOnUse">
<stop stop-color="#F0677E"/>
<stop offset="1" stop-color="#DB1F2E"/>
</linearGradient>
</defs>
</svg>
