<svg width="120" height="120" viewBox="0 0 120 120" fill="none" xmlns="http://www.w3.org/2000/svg">
<path d="M68.6445 91.2C64.6445 99.2 54.6445 102.2 49.6445 97.2C44.6445 92.2 46.3445 83.4 51.6445 77.2C51.6445 77.2 44.6445 80.1999 37.6445 80.1999C23.6445 80.1999 11.6445 72.2 11.6445 58.2C11.6445 50.2 17.6445 44.2 27.6445 44.2C55.6445 44.2 53.6445 87.2 81.6445 87.2C91.5445 87.2 99.6445 81.2 99.6445 73.7C99.6445 66.2 91.5445 60.2 81.6445 60.2C67.6445 60.2 66.6445 70.2 71.6445 70.2C77.6445 70.2 87.6445 60.2 87.6445 40.2C87.6445 26.9 79.5445 16.2 69.6445 16.2C59.7445 16.2 51.6445 26.9 51.6445 40.2C51.6445 47.2 53.6445 52.2 53.6445 52.2" stroke="url(#paint0_linear_3240_4564)" stroke-width="2.5" stroke-miterlimit="10" stroke-linecap="round" stroke-linejoin="round"/>
<defs>
<linearGradient id="paint0_linear_3240_4564" x1="55.6445" y1="16.2" x2="55.6445" y2="99.6444" gradientUnits="userSpaceOnUse">
<stop stop-color="#F55868"/>
<stop offset="1" stop-color="#875AE0"/>
</linearGradient>
</defs>
</svg>
