<svg width="192" height="192" viewBox="0 0 192 192" fill="none" xmlns="http://www.w3.org/2000/svg">
<path d="M158.266 58.4998L167.266 49.4998C168.966 47.7998 171.566 47.7998 173.266 49.4998C174.966 51.1998 174.966 53.7998 173.266 55.4998L166.266 62.4998L174.266 70.4998C176.466 72.6998 176.466 76.2998 174.266 78.4998C172.066 80.6998 168.466 80.6998 166.266 78.4998L158.266 70.4998L150.266 76.0998C149.266 76.7998 149.166 78.2998 149.966 79.1998L150.266 79.4998C151.366 80.5998 151.366 82.3998 150.266 83.4998C149.166 84.5998 147.366 84.5998 146.266 83.4998L139.266 76.4998C138.166 75.3998 138.166 73.5998 139.266 72.4998C140.366 71.3998 142.166 71.3998 143.266 72.4998L143.566 72.7998C144.466 73.6998 145.866 73.5998 146.666 72.4998L152.266 64.4998L144.266 56.4998C142.066 54.2998 142.066 50.6998 144.266 48.4998C146.466 46.2998 150.066 46.2998 152.266 48.4998L155.966 52.1998M59.8662 174.3C59.8662 161 49.1662 150.3 35.8662 150.3C35.8662 137 25.1662 126.3 11.8662 126.3M179.866 130.3C179.866 121.5 172.666 114.3 163.866 114.3C163.866 105.5 156.666 98.2998 147.866 98.2998M115.866 66.2998C115.866 57.4998 108.666 50.2998 99.8662 50.2998C99.8662 41.4998 92.6662 34.2998 83.8662 34.2998M136.466 85.7998L97.9662 124.3C89.9662 132.3 93.9662 141.3 100.966 141.3C109.966 141.3 111.966 126.3 96.9662 126.3C87.9662 126.3 74.9662 119.3 64.9662 109.3C57.7662 102.1 52.7662 93.4998 49.5662 84.4998C47.7662 79.2998 49.0662 73.5998 52.9662 69.6998L60.3662 62.2998C67.4662 55.1998 67.4662 43.5998 60.3662 36.4998L47.3662 23.4998C40.2662 16.3998 28.6662 16.3998 21.5662 23.4998L17.3662 27.6998C13.9662 31.0998 12.0662 35.7998 11.9662 40.6998C11.7662 71.9998 23.5662 103.2 47.3662 126.9C70.2662 149.8 100.166 161.6 130.166 162.3C135.066 162.4 139.766 160.4 143.266 156.9L149.066 151.1C156.166 144 156.166 132.4 149.066 125.3L134.966 111.2" stroke="url(#paint0_linear_3323_415)" stroke-width="2.5" stroke-miterlimit="10" stroke-linecap="round" stroke-linejoin="round"/>
<defs>
<linearGradient id="paint0_linear_3323_415" x1="95.8662" y1="18.1748" x2="95.8662" y2="174.3" gradientUnits="userSpaceOnUse">
<stop stop-color="#F0677E"/>
<stop offset="1" stop-color="#DB1F2E"/>
</linearGradient>
</defs>
</svg>
