<svg width="120" height="120" viewBox="0 0 120 120" fill="none" xmlns="http://www.w3.org/2000/svg">
<path d="M88.1999 90.7C92.3999 94.9 92.3999 101.6 88.1999 105.8L84.7999 109.2C82.7999 111.2 79.9999 112.4 77.1999 112.3C59.6999 111.9 42.2999 105 28.8999 91.6C14.9999 77.8 8.19992 59.6 8.29992 41.4C8.29992 38.6 9.39992 35.8 11.3999 33.8L13.8999 31.3C18.0999 27.1 24.7999 27.1 28.9999 31.3L36.4999 38.8C40.6999 43 40.6999 49.7 36.4999 53.9L32.1999 58.2C29.8999 60.5 29.1999 63.7999 30.1999 66.7999C32.0999 71.9999 35.0999 77 39.2999 81.2C42.9999 84.9 47.2999 87.7 51.8999 89.6C54.9999 90.9 58.5999 90.2 60.8999 87.8L65.5999 83.0999C69.7999 78.8999 77.2999 79.2 80.2999 82.2C83.2999 85.2 80.2999 90.2 74.2999 90.2C56.2999 90.2 50.1999 70.2 72.1999 48.2L96.1999 24.2M96.1999 24.2H72.1999M96.1999 24.2V48.2" stroke="url(#paint0_linear_3240_1951)" stroke-width="2.5" stroke-miterlimit="10" stroke-linecap="round" stroke-linejoin="round"/>
<defs>
<linearGradient id="paint0_linear_3240_1951" x1="52.2494" y1="24.2" x2="52.2494" y2="112.306" gradientUnits="userSpaceOnUse">
<stop stop-color="#93C437"/>
<stop offset="1" stop-color="#279BE8"/>
</linearGradient>
</defs>
</svg>
