<svg width="120" height="120" viewBox="0 0 120 120" fill="none" xmlns="http://www.w3.org/2000/svg">
<path d="M52.9445 103.1V84.7C52.9445 84 52.1445 83.5 51.5445 83.8L28.9445 95.1M52.9445 103.1C52.9445 106.966 56.0785 110.1 59.9445 110.1C63.8105 110.1 66.9445 106.966 66.9445 103.1M52.9445 103.1C52.9445 99.234 56.0785 96.1 59.9445 96.1C63.8105 96.1 66.9445 99.234 66.9445 103.1M28.9445 95.1C26.4445 96.5 22.9445 94.7 20.9445 91.1C18.9445 87.5 19.4445 83.5 21.9445 82.1C24.4445 80.7 27.9445 82.5 29.9445 86.1C31.9445 89.7 31.4445 93.7 28.9445 95.1ZM90.9445 95.1L68.3445 83.8C67.6445 83.5 66.9445 84 66.9445 84.7V103.1M90.9445 95.1C93.4445 96.5 96.9445 94.7 98.9445 91.1C100.845 87.5 100.445 83.5 97.9445 82.1C95.4445 80.7 91.9445 82.5 89.9445 86.1C87.9445 89.7 88.4445 93.7 90.9445 95.1ZM75.9445 57.1C75.9445 52.8 73.8445 49.5 72.6445 48C72.2445 47.5 71.5445 47.5 71.1445 47.9L65.9445 53.1L60.6445 42.4C60.2445 41.8 59.4445 41.7 58.9445 42.2C56.7445 44.7 51.9445 51.3 51.9445 59.1C51.9445 67.9 59.1445 75.1 67.9445 75.1C81.2445 75.1 91.9445 64.4 91.9445 51.1C91.9445 39.4 85.5445 29.8 82.0445 25.5C81.1445 24.3 79.2445 24.6 78.6445 25.9C76.4445 31 71.8445 40.4 71.8445 35C71.8445 23.5 63.6445 14.1 58.9445 9.69996C57.7445 8.59996 55.7445 9.29996 55.5445 10.9C52.9445 32.1 29.7445 42.1 29.7445 61C29.7445 77 50.7445 83 50.7445 75C50.7445 71 45.7445 70 35.7445 75L21.7445 82" stroke="url(#paint0_linear_3380_2417)" stroke-width="2.5" stroke-miterlimit="10" stroke-linecap="round" stroke-linejoin="round"/>
<defs>
<linearGradient id="paint0_linear_3380_2417" x1="59.9233" y1="9.16663" x2="59.9233" y2="110.1" gradientUnits="userSpaceOnUse">
<stop stop-color="#279BE8"/>
<stop offset="1" stop-color="#875AE0"/>
</linearGradient>
</defs>
</svg>
