<svg width="120" height="120" viewBox="0 0 120 120" fill="none" xmlns="http://www.w3.org/2000/svg">
<path d="M52.9445 103.1V84.7001C52.9445 84.0001 52.1445 83.5001 51.5445 83.8001L28.9445 95.1001M52.9445 103.1C52.9445 106.966 56.0785 110.1 59.9445 110.1C63.8105 110.1 66.9445 106.966 66.9445 103.1M52.9445 103.1C52.9445 99.2341 56.0785 96.1001 59.9445 96.1001C63.8105 96.1001 66.9445 99.2341 66.9445 103.1M28.9445 95.1001C26.4445 96.5001 22.9445 94.7001 20.9445 91.1001C18.9445 87.5001 19.4445 83.5001 21.9445 82.1001C24.4445 80.7001 27.9445 82.5001 29.9445 86.1001C31.9445 89.7001 31.4445 93.7001 28.9445 95.1001ZM90.9445 95.1001L68.3445 83.8001C67.6445 83.5001 66.9445 84.0001 66.9445 84.7001V103.1M90.9445 95.1001C93.4445 96.5001 96.9445 94.7001 98.9445 91.1001C100.845 87.5001 100.445 83.5001 97.9445 82.1001C95.4445 80.7001 91.9445 82.5001 89.9445 86.1001C87.9445 89.7001 88.4445 93.7001 90.9445 95.1001ZM75.9445 57.1001C75.9445 52.8001 73.8445 49.5001 72.6445 48.0001C72.2445 47.5001 71.5445 47.5001 71.1445 47.9001L65.9445 53.1001L60.6445 42.4001C60.2445 41.8001 59.4445 41.7001 58.9445 42.2001C56.7445 44.7001 51.9445 51.3001 51.9445 59.1001C51.9445 67.9001 59.1445 75.1001 67.9445 75.1001C81.2445 75.1001 91.9445 64.4001 91.9445 51.1001C91.9445 39.4001 85.5445 29.8001 82.0445 25.5001C81.1445 24.3001 79.2445 24.6001 78.6445 25.9001C76.4445 31.0001 71.8445 40.4001 71.8445 35.0001C71.8445 23.5001 63.6445 14.1001 58.9445 9.70008C57.7445 8.60008 55.7445 9.30008 55.5445 10.9001C52.9445 32.1001 29.7445 42.1001 29.7445 61.0001C29.7445 77.0001 50.7445 83.0001 50.7445 75.0001C50.7445 71.0001 45.7445 70.0001 35.7445 75.0001L21.7445 82.0001" stroke="url(#paint0_linear_3240_4708)" stroke-width="2.5" stroke-miterlimit="10" stroke-linecap="round" stroke-linejoin="round"/>
<defs>
<linearGradient id="paint0_linear_3240_4708" x1="59.9233" y1="9.16675" x2="59.9233" y2="110.1" gradientUnits="userSpaceOnUse">
<stop stop-color="#93C437"/>
<stop offset="1" stop-color="#279BE8"/>
</linearGradient>
</defs>
</svg>
