<svg width="192" height="192" viewBox="0 0 192 192" fill="none" xmlns="http://www.w3.org/2000/svg">
<path d="M170.666 89.6C178.766 99.6 183.966 112.5 183.966 126.4C183.966 158.4 157.966 184.4 125.966 184.4C93.9662 184.4 67.9662 158.4 67.9662 126.4C67.9662 112.5 73.0662 99.6 81.2662 89.6M117.866 76.4C117.866 61.4 131.866 59.4 131.866 45.4C131.866 39.4 127.866 33.4 123.866 27.4L111.866 9.19996C110.966 7.89996 109.066 7.99996 108.366 9.39996L103.866 18.3H94.8662L85.3662 8.79996C84.2662 7.69996 82.3662 8.19996 82.0662 9.69996L69.8662 55.4C62.3662 79.3 56.2662 90 45.8662 101.4C32.7662 115.7 18.8662 128.4 17.8662 144.4C16.4662 167.4 31.8662 184.4 55.8662 184.4C65.8662 184.4 73.8662 179.4 73.8662 172.4C73.8662 165.4 67.8662 160.4 59.8662 160.4C39.8662 160.4 36.8662 184.4 3.86621 184.4M123.866 150.4C123.866 150.4 126.866 152.4 131.866 152.4C131.866 148.4 127.866 146.4 127.866 146.4C127.866 146.4 131.866 144.4 131.866 140.4C121.866 140.4 121.866 151.4 111.866 151.4C106.866 151.4 103.866 148.4 103.866 146.4C103.866 144.4 106.866 141.4 111.866 141.4C115.866 141.4 117.866 143.4 117.866 143.4M91.8662 130.4C91.8662 130.4 88.8662 132.4 83.8662 132.4C83.8662 128.4 87.8662 126.4 87.8662 126.4C87.8662 126.4 83.8662 124.4 83.8662 120.4C93.8662 120.4 93.8662 131.4 103.866 131.4C108.866 131.4 111.866 128.4 111.866 126.4C111.866 124.4 108.866 121.4 103.866 121.4C99.8662 121.4 97.8662 123.4 97.8662 123.4M147.866 118.4C147.866 118.4 144.866 120.4 139.866 120.4C139.866 116.4 143.866 114.4 143.866 114.4C143.866 114.4 139.866 112.4 139.866 108.4C149.866 108.4 149.866 119.4 159.866 119.4C164.866 119.4 167.866 116.4 167.866 114.4C167.866 112.4 164.866 109.4 159.866 109.4C155.866 109.4 153.866 111.4 153.866 111.4M101.866 170.4C101.866 170.4 106.866 166.4 111.866 166.4C117.866 166.4 119.866 172.4 127.866 172.4C136.866 172.4 138.866 162.4 146.866 162.4C152.866 162.4 156.866 166.4 156.866 166.4M170.866 90.4C170.866 94.266 150.719 97.4 125.866 97.4C101.013 97.4 80.8662 94.266 80.8662 90.4C80.8662 86.534 101.013 83.4 125.866 83.4C150.719 83.4 170.866 86.534 170.866 90.4Z" stroke="#0F0F0F" stroke-width="2.5" stroke-miterlimit="10" stroke-linecap="round" stroke-linejoin="round"/>
<path d="M113.866 40.3999C114.971 40.3999 115.866 39.5045 115.866 38.3999C115.866 37.2953 114.971 36.3999 113.866 36.3999C112.762 36.3999 111.866 37.2953 111.866 38.3999C111.866 39.5045 112.762 40.3999 113.866 40.3999Z" fill="#0F0F0F"/>
<path d="M95.8662 40.3999C96.9708 40.3999 97.8662 39.5045 97.8662 38.3999C97.8662 37.2953 96.9708 36.3999 95.8662 36.3999C94.7616 36.3999 93.8662 37.2953 93.8662 38.3999C93.8662 39.5045 94.7616 40.3999 95.8662 40.3999Z" fill="#0F0F0F"/>
</svg>
