<svg width="320" height="320" viewBox="0 0 320 320" fill="none" xmlns="http://www.w3.org/2000/svg">
<path d="M232.2 193.7V165.7C232.2 159.1 226.8 153.7 220.2 153.7H100.2C93.6002 153.7 88.2002 159.1 88.2002 165.7V238.7M232.2 193.7H176.2M232.2 193.7C263.1 193.7 288.2 175.8 288.2 153.7C288.2 131.6 263.1 113.7 232.2 113.7C218.9 113.7 208.2 119.1 208.2 125.7C208.2 132.3 218.9 137.7 232.2 137.7C263.1 137.7 288.2 119.8 288.2 97.7002C288.2 75.6002 263.1 57.7002 232.2 57.7002C160.2 57.7002 120.2 113.7 32.2002 113.7M239.2 245.7H246.2C247.3 245.7 248.2 246.6 248.2 247.7C248.2 253.2 243.7 257.7 238.2 257.7H82.2002C76.7002 257.7 72.2002 253.2 72.2002 247.7C72.2002 246.6 73.1002 245.7 74.2002 245.7H230.2C231.3 245.7 232.2 244.8 232.2 243.7V200.7M168.3 201.7H160.3V185.7H168.3C172.7 185.7 176.3 189.3 176.3 193.7C176.2 198.2 172.7 201.7 168.3 201.7ZM160.2 201.7H146.2C145.1 201.7 144.2 200.8 144.2 199.7V187.7C144.2 186.6 145.1 185.7 146.2 185.7H160.2V201.7Z" stroke="url(#paint0_linear_3240_2685)" stroke-width="2.5" stroke-miterlimit="10" stroke-linecap="round" stroke-linejoin="round"/>
<defs>
<linearGradient id="paint0_linear_3240_2685" x1="160.2" y1="57.7002" x2="160.2" y2="257.7" gradientUnits="userSpaceOnUse">
<stop stop-color="#F0677E"/>
<stop offset="1" stop-color="#DB1F2E"/>
</linearGradient>
</defs>
</svg>
