<svg width="320" height="320" viewBox="0 0 320 320" fill="none" xmlns="http://www.w3.org/2000/svg">
<path d="M163.2 120.2V115.6M163.2 120.2L159.2 118.9M163.2 120.2L160.8 123.6M163.2 120.2L165.7 123.6M163.2 120.2L167.2 118.9M177.2 120.2V115.6M177.2 120.2L173.2 118.9M177.2 120.2L174.8 123.6M177.2 120.2L179.7 123.6M177.2 120.2L181.2 118.9M191.2 120.2V115.6M191.2 120.2L187.2 118.9M191.2 120.2L188.8 123.6M191.2 120.2L193.7 123.6M191.2 120.2L195.2 118.9M205.2 120.2V115.6M205.2 120.2L201.2 118.9M205.2 120.2L202.8 123.6M205.2 120.2L207.7 123.6M205.2 120.2L209.2 118.9M212.2 151.7H130.2C128 151.7 126.2 149.9 126.2 147.7V91.7002C126.2 89.5002 128 87.7002 130.2 87.7002H242.2C244.4 87.7002 246.2 89.5002 246.2 91.7002V147.7C246.2 149.9 244.4 151.7 242.2 151.7H234.2M207.2 175.7H46.2002C41.8002 175.7 38.2002 172.1 38.2002 167.7M234.3 163.7H252.3C253.4 163.7 254.3 164.6 254.3 165.7V167.7C254.3 172.1 250.7 175.7 246.3 175.7H234.3M254.2 156.7V83.7002C254.2 79.3002 250.6 75.7002 246.2 75.7002H46.2002C41.8002 75.7002 38.2002 79.3002 38.2002 83.7002V155.7C38.2002 160.1 41.8002 163.7 46.2002 163.7H207.2M282.2 243.8V226.6C282.2 217.5 277 209.2 268.9 205.1L236.4 188.8C235.1 188.1 234.2 186.7 234.2 185.2V129.7C234.2 124.2 229.7 119.7 224.2 119.7C218.7 119.7 214.2 124.2 214.2 129.7V144.7M206.2 243.7L169 206.5C167.4 204.9 167.4 202.4 169 200.8C176.3 193.5 188.1 193.5 195.3 200.8L214.1 219.6V153.6C214.1 152.5 213.2 151.6 212.1 151.6M102.2 119.7C102.2 130.746 93.2459 139.7 82.2002 139.7C71.1545 139.7 62.2002 130.746 62.2002 119.7C62.2002 108.655 71.1545 99.7002 82.2002 99.7002C93.2459 99.7002 102.2 108.655 102.2 119.7ZM214.2 219.7C222.2 227.7 227.2 235.7 222.2 237.7C215.2 240.7 214.2 225.7 214.2 219.7Z" stroke="url(#paint0_linear_3240_2519)" stroke-width="2.5" stroke-miterlimit="10" stroke-linecap="round" stroke-linejoin="round"/>
<defs>
<linearGradient id="paint0_linear_3240_2519" x1="160.2" y1="75.7002" x2="160.2" y2="243.8" gradientUnits="userSpaceOnUse">
<stop stop-color="#3CC29A"/>
<stop offset="1" stop-color="#93C437"/>
</linearGradient>
</defs>
</svg>
