<svg width="320" height="320" viewBox="0 0 320 320" fill="none" xmlns="http://www.w3.org/2000/svg">
<path d="M119.2 151.7H221.2M220.2 239.7H44.2002C39.8002 239.7 36.2002 236.1 36.2002 231.7V159.7C36.2002 155.3 39.8002 151.7 44.2002 151.7H48.2002V123.7C48.2002 117.1 53.6002 111.7 60.2002 111.7H100.2C106.8 111.7 112.2 117.1 112.2 123.7V215.7C112.2 222.3 106.8 227.7 100.2 227.7H60.2002C53.6002 227.7 48.2002 222.3 48.2002 215.7V158.7M36.2002 243.7C36.2002 248.1 39.8002 251.7 44.2002 251.7H224.2M221.2 227.7H128.2C126 227.7 124.2 225.9 124.2 223.7V167.7C124.2 165.5 126 163.7 128.2 163.7H240.2C242.4 163.7 244.2 165.5 244.2 167.7V204.7M165 144.7C167.6 133 176.7 123.7 188.3 120.7V59.7C188.3 55.3 191.9 51.7 196.3 51.7C200.7 51.7 204.3 55.3 204.3 59.7V120.7C218.1 124.3 228.3 136.8 228.3 151.7H244.3C248.7 151.7 252.3 155.3 252.3 159.7V203.7M259.2 204.7C274.6 208 286.3 223 283.9 240.2C281.8 255.2 269.1 266.9 253.9 267.6C235.5 268.6 220.2 253.9 220.2 235.6C220.2 217.9 234.5 203.6 252.2 203.6M236.2 236.7L244.2 248.7L268.2 224.7" stroke="#0F0F0F" stroke-width="2.5" stroke-miterlimit="10" stroke-linecap="round" stroke-linejoin="round"/>
</svg>
