<svg width="120" height="120" viewBox="0 0 120 120" fill="none" xmlns="http://www.w3.org/2000/svg">
<path d="M29.8662 59.45H21.8662C20.7662 59.45 19.8662 58.55 19.8662 57.45V19.45C19.8662 15.05 23.4662 11.45 27.8662 11.45H95.8662C100.266 11.45 103.866 15.05 103.866 19.45V44.45M29.8662 59.45C29.8662 61.6591 31.6571 63.45 33.8662 63.45C36.0753 63.45 37.8662 61.6591 37.8662 59.45M29.8662 59.45C29.8662 57.2408 31.6571 55.45 33.8662 55.45C36.0753 55.45 37.8662 57.2408 37.8662 59.45M12.8662 59.45H7.86621C5.66621 59.45 3.86621 61.25 3.86621 63.45V105.45C3.86621 106.55 4.76621 107.45 5.86621 107.45H10.6662C11.4662 107.45 12.1662 107.05 12.4662 106.35L14.8662 101.45H52.8662L55.2662 106.35C55.5662 107.05 56.2662 107.45 57.0662 107.45H61.8662C62.9662 107.45 63.8662 106.55 63.8662 105.45V63.45C63.8662 61.25 62.0662 59.45 59.8662 59.45H37.8662M91.8662 74.4499V87.45C91.8662 89.65 93.6662 91.45 95.8662 91.45H111.866C114.066 91.45 115.866 89.65 115.866 87.45V55.45C115.866 53.25 114.066 51.45 111.866 51.45H95.8662C93.6662 51.45 91.8662 53.25 91.8662 55.45V65.45C91.8662 66.55 90.9662 67.45 89.8662 67.45H73.8662C72.7662 67.45 71.8662 68.35 71.8662 69.45V81.45C71.8662 82.55 72.7662 83.45 73.8662 83.45H83.8662M3.96621 95.45H63.8662" stroke="url(#paint0_linear_3240_1365)" stroke-width="2.5" stroke-linecap="round" stroke-linejoin="round"/>
<defs>
<linearGradient id="paint0_linear_3240_1365" x1="59.8662" y1="11.45" x2="59.8662" y2="107.45" gradientUnits="userSpaceOnUse">
<stop stop-color="#279BE8"/>
<stop offset="1" stop-color="#875AE0"/>
</linearGradient>
</defs>
</svg>
