<svg width="192" height="192" viewBox="0 0 192 192" fill="none" xmlns="http://www.w3.org/2000/svg">
<path d="M139.144 69.0611L151.81 56.3944M139.144 123.95L151.81 136.617M43.0882 116.561C33.5882 117.617 21.766 109.7 18.8104 100.728L6.14378 100.728M151.81 96.5055L170.81 96.5055M88.4771 111.283C86.1549 108.961 86.1549 105.161 88.4771 102.839C90.7993 100.517 94.5993 100.517 96.9216 102.839L105.366 111.283C107.741 113.658 107.688 117.406 105.366 119.728C103.044 122.05 99.2438 122.05 96.9216 119.728L88.4771 111.283ZM88.4771 111.283L77.9216 100.728C75.5993 98.4055 71.7993 98.4055 69.4771 100.728C67.1549 103.05 67.1549 106.85 69.4771 109.172L80.0327 119.728C82.3549 122.05 86.1549 122.05 88.4771 119.728C90.7993 117.406 90.8521 113.658 88.4771 111.283ZM27.2549 66.95L48.366 66.95C61.0327 66.95 67.366 66.95 71.5882 69.0611L100.035 83.2583C100.669 83.575 101.038 84.3666 100.774 85.0527C98.7688 91.0694 91.8549 93.9722 86.1549 91.1222L73.6993 84.8944C69.4771 82.7833 66.8382 80.1444 66.8382 78.0333C66.8382 75.2889 72.0632 74.3916 72.4327 78.4555C72.591 79.775 72.0105 81.0944 71.1132 82.0972C55.3327 99.3555 39.2882 95.2389 33.5882 93.3389C32.0049 92.8111 29.8938 93.8666 29.8938 95.9777L29.7882 101.361C29.7882 104.528 31.4771 104.95 34.6438 104.95L42.0327 104.95M132.81 75.3944C131.755 75.3944 130.699 75.3944 127.533 77.5055L113.969 86.6361C112.491 87.5861 110.749 88.1666 109.008 88.1139L106.474 88.1139M132.81 117.617C131.755 117.617 130.699 117.617 127.533 115.506L113.969 106.481C112.491 105.531 110.749 104.95 109.008 105.003H99.0855M73.6993 113.394L63.1438 102.839C60.8216 100.517 57.0216 100.517 54.6993 102.839C52.3771 105.161 52.3771 108.961 54.6993 111.283L65.2549 121.839C67.5771 124.161 71.3771 124.161 73.6993 121.839C76.0216 119.517 76.0743 115.769 73.6993 113.394ZM58.9743 115.558L52.641 109.225C50.3188 106.903 46.5188 106.903 44.1966 109.225C41.8743 111.547 41.8743 115.347 44.1966 117.669L50.5299 124.003C52.8521 126.325 56.6521 126.325 58.9743 124.003C61.2438 121.628 61.2966 117.881 58.9743 115.558ZM140.982 96.5206C140.982 108.186 137.307 117.643 132.772 117.643C128.238 117.643 124.562 108.186 124.562 96.5206C124.562 84.8549 128.238 75.3979 132.772 75.3979C137.307 75.3979 140.982 84.8549 140.982 96.5206Z" stroke="#0F0F0F" stroke-width="2.5" stroke-miterlimit="10" stroke-linecap="round" stroke-linejoin="round"/>
</svg>
