<svg width="320" height="320" viewBox="0 0 320 320" fill="none" xmlns="http://www.w3.org/2000/svg">
<path d="M77.2273 166.8L57.2273 180.1C51.1273 184.2 48.1273 192.5 48.2273 198.5C48.2273 201.3 49.6273 204 51.8273 205.8C52.1273 206 52.3273 206.2 52.6273 206.4L160.327 278.1M267.227 208.1V216.1L270.727 218.4C271.927 219.2 271.927 220.9 270.727 221.7L177.227 284C165.227 292 165.227 268 177.227 260L270.727 197.7C271.927 196.9 271.927 195.2 270.727 194.4L243.227 176.1V168.1M160.327 222.1L76.7273 166.4C76.4273 166.2 76.2273 166 75.9273 165.8C73.7273 164 72.3273 161.3 72.3273 158.5C72.2273 152.5 75.2273 144.2 81.3273 140.1M243.227 184.1L177.227 228.1C165.227 236.1 165.227 212.1 177.227 204.1L246.727 157.8C247.927 157 247.927 155.3 246.727 154.5L195.227 120.2M195.227 120.1C153.227 92.1001 143.227 140.1 169.227 140.1C169.827 140.1 170.327 140.1 170.927 140C188.727 138.2 200.827 108.5 201.227 85.3001C201.427 72.0001 191.127 60.3001 177.827 60.1001C171.427 60.0001 165.527 62.3001 161.127 66.3001C158.927 68.3001 155.627 68.3001 153.427 66.3001C149.027 62.3001 143.127 59.9001 136.727 60.1001C124.027 60.4001 113.427 71.7001 113.327 84.4001C113.227 95.5001 116.027 105.4 119.927 113.4C120.127 113.8 120.027 114.4 119.627 114.7L81.3273 140.2M157.227 67.1001C157.227 46.1001 177.227 29.7001 198.227 28.2001C199.727 28.1001 200.727 29.6001 200.227 30.9001C191.227 52.3001 167.327 55.0001 167.327 55.0001" stroke="url(#paint0_linear_3377_445)" stroke-width="2.5" stroke-miterlimit="10" stroke-linecap="round" stroke-linejoin="round"/>
<defs>
<linearGradient id="paint0_linear_3377_445" x1="159.926" y1="28.1953" x2="159.926" y2="285.61" gradientUnits="userSpaceOnUse">
<stop stop-color="#93C437"/>
<stop offset="1" stop-color="#279BE8"/>
</linearGradient>
</defs>
</svg>
