<svg width="192" height="192" viewBox="0 0 192 192" fill="none" xmlns="http://www.w3.org/2000/svg">
<path d="M116.645 123.2C116.645 123.2 114.445 130 113.645 132.2C112.645 135.2 114.645 136.2 116.645 136.2H118.645M149.645 124.2C142.645 124.2 138.645 120.2 134.645 116.2C130.645 112.2 126.645 108.2 119.645 108.2C112.445 108.2 106.645 114 106.645 121.2V141.2C106.645 149.5 113.345 156.2 121.645 156.2C137.645 156.2 150.645 141.2 150.645 133.2C150.645 131 148.845 129.2 146.645 129.2C144.445 129.2 142.645 131 142.645 133.2V164.2H150.645C158.645 164.2 170.645 165.2 180.645 185.2M123.645 102.2C130.645 102.2 134.645 106.2 138.645 110.2C142.645 114.2 146.645 118.2 153.645 118.2M127.645 96.2C134.645 96.2 138.645 100.2 142.645 104.2C146.645 108.2 150.645 112.2 157.645 112.2M58.6445 105.2C58.6445 116.8 49.2445 126.2 37.6445 126.2C34.3445 126.2 31.6445 128.9 31.6445 132.2C31.6445 135.5 34.3445 138.2 37.6445 138.2V146.2C37.6445 151.7 33.1445 156.2 27.6445 156.2C27.6445 164.5 20.9445 171.2 12.6445 171.2M150.645 153.2C167.645 138.2 178.545 116.8 178.645 91.6C178.845 47 144.845 10.4 100.345 7.40003C51.4445 4.20003 10.6445 43 10.6445 91.2C10.6445 102.8 13.0445 113.9 17.2445 123.9C18.0445 125.8 20.1445 126.7 22.0445 126.1C23.5445 125.6 24.5445 124.4 24.7445 122.8C25.9445 111.4 35.4445 102.3 47.1445 102.1C58.3445 101.9 66.5445 107.9 70.6445 120.1L73.6445 129.1C75.6445 135.1 72.6445 136.1 70.6445 136.1H68.6445C67.5445 136.1 66.6445 137 66.6445 138.1V145.9C66.6445 150.9 62.6445 155.1 57.7445 155.1C49.1445 155.1 42.1445 162 42.1445 170.6C42.1445 179.2 48.6445 185.1 57.6445 185.1C75.6445 185.1 80.6445 164.1 110.645 164.1H115.145C117.045 164.1 118.545 165.4 119.045 167.2C120.445 172.3 125.045 176.1 130.645 176.1C137.245 176.1 142.645 170.7 142.645 164.1M62.6445 43.2H94.6445H126.645M78.6445 26.2V36.2M110.645 26.2V36.2M118.645 31.2H70.6445C66.2445 31.2 62.6445 34.8 62.6445 39.2V75.2C62.6445 79.6 66.2445 83.2 70.6445 83.2H118.645C123.045 83.2 126.645 79.6 126.645 75.2V39.2C126.645 34.8 123.145 31.2 118.645 31.2Z" stroke="url(#paint0_linear_3240_3954)" stroke-width="2.5" stroke-miterlimit="10" stroke-linecap="round" stroke-linejoin="round"/>
<path d="M61.6445 125.2C62.7491 125.2 63.6445 124.305 63.6445 123.2C63.6445 122.096 62.7491 121.2 61.6445 121.2C60.54 121.2 59.6445 122.096 59.6445 123.2C59.6445 124.305 60.54 125.2 61.6445 125.2Z" fill="#E2384A"/>
<path d="M126.645 127.2C127.749 127.2 128.645 126.305 128.645 125.2C128.645 124.096 127.749 123.2 126.645 123.2C125.54 123.2 124.645 124.096 124.645 125.2C124.645 126.305 125.54 127.2 126.645 127.2Z" fill="#E2384A"/>
<defs>
<linearGradient id="paint0_linear_3240_3954" x1="95.6445" y1="7.21533" x2="95.6445" y2="185.2" gradientUnits="userSpaceOnUse">
<stop stop-color="#F0677E"/>
<stop offset="1" stop-color="#DB1F2E"/>
</linearGradient>
</defs>
</svg>
