<svg width="192" height="192" viewBox="0 0 192 192" fill="none" xmlns="http://www.w3.org/2000/svg">
<path d="M107.006 164.2H105.756C105.756 164.89 106.316 165.45 107.006 165.45V164.2ZM82.1952 123.585C82.4077 122.928 82.0475 122.223 81.3906 122.011C80.7338 121.798 80.0291 122.158 79.8165 122.815L82.1952 123.585ZM78.0059 132.2L76.8311 131.773C76.8273 131.783 76.8236 131.794 76.82 131.805L78.0059 132.2ZM83.0059 137.45C83.6962 137.45 84.2559 136.89 84.2559 136.2C84.2559 135.51 83.6962 134.95 83.0059 134.95V137.45ZM114.006 125.45C114.696 125.45 115.256 124.89 115.256 124.2C115.256 123.51 114.696 122.95 114.006 122.95V125.45ZM88.0059 100.95C87.3155 100.95 86.7559 101.51 86.7559 102.2C86.7559 102.89 87.3155 103.45 88.0059 103.45V100.95ZM118.006 119.45C118.696 119.45 119.256 118.89 119.256 118.2C119.256 117.51 118.696 116.95 118.006 116.95V119.45ZM92.0059 94.95C91.3155 94.95 90.7559 95.5097 90.7559 96.2C90.7559 96.8904 91.3155 97.45 92.0059 97.45V94.95ZM122.006 113.45C122.696 113.45 123.256 112.89 123.256 112.2C123.256 111.51 122.696 110.95 122.006 110.95V113.45ZM143.888 185.759C144.197 186.376 144.947 186.627 145.565 186.318C146.182 186.009 146.433 185.258 146.124 184.641L143.888 185.759ZM36.6028 183.85C35.9124 183.85 35.3528 184.41 35.3528 185.1C35.3528 185.79 35.9124 186.35 36.6028 186.35V183.85ZM83.4059 167.2L84.6113 166.869L84.6103 166.865L83.4059 167.2ZM108.256 164.1C108.256 163.41 107.696 162.85 107.006 162.85C106.316 162.85 105.756 163.41 105.756 164.1H108.256ZM61.5583 41.95C60.868 41.95 60.3083 42.5097 60.3083 43.2C60.3083 43.8904 60.868 44.45 61.5583 44.45V41.95ZM125.558 44.45C126.249 44.45 126.808 43.8904 126.808 43.2C126.808 42.5097 126.249 41.95 125.558 41.95V44.45ZM78.8083 26.2C78.8083 25.5097 78.2487 24.95 77.5583 24.95C76.868 24.95 76.3083 25.5097 76.3083 26.2H78.8083ZM76.3083 36.2C76.3083 36.8904 76.868 37.45 77.5583 37.45C78.2487 37.45 78.8083 36.8904 78.8083 36.2H76.3083ZM110.808 26.2C110.808 25.5097 110.249 24.95 109.558 24.95C108.868 24.95 108.308 25.5097 108.308 26.2H110.808ZM108.308 36.2C108.308 36.8904 108.868 37.45 109.558 37.45C110.249 37.45 110.808 36.8904 110.808 36.2H108.308ZM148.213 154.42C147.683 154.862 147.612 155.65 148.054 156.18C148.496 156.711 149.285 156.782 149.815 156.34L148.213 154.42ZM40.7128 156.34C41.2429 156.782 42.0311 156.711 42.4734 156.18C42.9156 155.65 42.8443 154.862 42.3141 154.42L40.7128 156.34ZM97.6156 68.8031C98.1037 69.2912 98.8952 69.2912 99.3833 68.8031C99.8715 68.3149 99.8715 67.5235 99.3833 67.0353L97.6156 68.8031ZM93.4994 62.9192H92.2494C92.2494 63.2507 92.3811 63.5687 92.6156 63.8031L93.4994 62.9192ZM94.7494 54.9192C94.7494 54.2288 94.1898 53.6692 93.4994 53.6692C92.8091 53.6692 92.2494 54.2288 92.2494 54.9192H94.7494ZM84.0059 106.95C76.1155 106.95 69.7559 113.31 69.7559 121.2H72.2559C72.2559 114.69 77.4962 109.45 84.0059 109.45V106.95ZM69.7559 121.2V141.2H72.2559V121.2H69.7559ZM69.7559 141.2C69.7559 150.19 77.0155 157.45 86.0059 157.45V154.95C78.3962 154.95 72.2559 148.81 72.2559 141.2H69.7559ZM86.0059 157.45C94.3961 157.45 101.932 153.524 107.344 148.627C110.056 146.174 112.266 143.449 113.806 140.796C115.333 138.165 116.256 135.505 116.256 133.2H113.756C113.756 134.895 113.054 137.111 111.643 139.541C110.245 141.951 108.206 144.477 105.667 146.773C100.58 151.376 93.6156 154.95 86.0059 154.95V157.45ZM116.256 133.2C116.256 130.31 113.896 127.95 111.006 127.95V130.45C112.516 130.45 113.756 131.69 113.756 133.2H116.256ZM111.006 127.95C108.116 127.95 105.756 130.31 105.756 133.2H108.256C108.256 131.69 109.496 130.45 111.006 130.45V127.95ZM105.756 133.2V164.2H108.256V133.2H105.756ZM81.0059 123.2C79.8165 122.815 79.8165 122.815 79.8165 122.815C79.8165 122.815 79.8165 122.815 79.8165 122.816C79.8164 122.816 79.8163 122.816 79.8162 122.816C79.8159 122.817 79.8155 122.818 79.815 122.82C79.8139 122.823 79.8124 122.828 79.8103 122.835C79.8061 122.847 79.7999 122.867 79.7918 122.892C79.7755 122.942 79.7516 123.016 79.7208 123.111C79.6592 123.301 79.5702 123.574 79.461 123.91C79.2425 124.581 78.943 125.498 78.6185 126.484C77.9668 128.465 77.2232 130.695 76.8311 131.773L79.1806 132.627C79.5885 131.505 80.3449 129.235 80.9932 127.266C81.3187 126.277 81.6192 125.357 81.8382 124.684C81.9477 124.347 82.0369 124.073 82.0987 123.882C82.1297 123.787 82.1537 123.713 82.1701 123.662C82.1783 123.637 82.1845 123.618 82.1888 123.605C82.1909 123.598 82.1925 123.593 82.1935 123.59C82.1941 123.588 82.1945 123.587 82.1947 123.586C82.1949 123.586 82.195 123.585 82.195 123.585C82.1951 123.585 82.1951 123.585 82.1951 123.585C82.1951 123.585 82.1952 123.585 81.0059 123.2ZM76.82 131.805C76.224 133.593 76.4319 135.144 77.497 136.209C78.4603 137.172 79.858 137.45 81.0059 137.45V134.95C80.1537 134.95 79.5514 134.728 79.2647 134.441C79.0798 134.256 78.7877 133.807 79.1917 132.595L76.82 131.805ZM81.0059 137.45H83.0059V134.95H81.0059V137.45ZM84.0059 109.45C90.4313 109.45 94.0951 113.057 98.122 117.084L99.8897 115.316C95.9166 111.343 91.5804 106.95 84.0059 106.95V109.45ZM98.122 117.084C102.095 121.057 106.431 125.45 114.006 125.45V122.95C107.58 122.95 103.917 119.343 99.8897 115.316L98.122 117.084ZM88.0059 103.45C94.4313 103.45 98.0951 107.057 102.122 111.084L103.89 109.316C99.9166 105.343 95.5804 100.95 88.0059 100.95V103.45ZM102.122 111.084C106.095 115.057 110.431 119.45 118.006 119.45V116.95C111.58 116.95 107.917 113.343 103.89 109.316L102.122 111.084ZM92.0059 97.45C98.4313 97.45 102.095 101.057 106.122 105.084L107.89 103.316C103.917 99.343 99.5804 94.95 92.0059 94.95V97.45ZM106.122 105.084C110.095 109.057 114.431 113.45 122.006 113.45V110.95C115.58 110.95 111.917 107.343 107.89 103.316L106.122 105.084ZM146.124 184.641C141.036 174.465 135.37 168.992 129.836 166.093C124.311 163.199 119.062 162.95 115.006 162.95V165.45C118.95 165.45 123.7 165.701 128.676 168.307C133.641 170.908 138.976 175.935 143.888 185.759L146.124 184.641ZM115.006 162.95H107.006V165.45H115.006V162.95ZM36.6028 186.35C46.2644 186.35 50.4211 180.583 54.808 175.408C57.0219 172.797 59.2989 170.309 62.3925 168.453C65.4616 166.612 69.4104 165.35 75.0059 165.35V162.85C69.0016 162.85 64.6002 164.213 61.1063 166.309C57.6369 168.391 55.1381 171.153 52.9011 173.792C48.3863 179.117 44.9412 183.85 36.6028 183.85V186.35ZM75.0059 165.35H79.5059V162.85H75.0059V165.35ZM79.5059 165.35C80.7752 165.35 81.8324 166.206 82.2015 167.535L84.6103 166.865C83.9793 164.594 82.0365 162.85 79.5059 162.85V165.35ZM82.2004 167.531C83.7419 173.146 88.815 177.35 95.0059 177.35V174.85C89.9967 174.85 85.8698 171.454 84.6113 166.869L82.2004 167.531ZM95.0059 177.35C102.296 177.35 108.256 171.39 108.256 164.1H105.756C105.756 170.01 100.915 174.85 95.0059 174.85V177.35ZM117.558 29.95H69.5583V32.45H117.558V29.95ZM69.5583 29.95C64.468 29.95 60.3083 34.1097 60.3083 39.2H62.8083C62.8083 35.4904 65.8487 32.45 69.5583 32.45V29.95ZM60.3083 39.2V75.2H62.8083V39.2H60.3083ZM60.3083 75.2C60.3083 80.2904 64.468 84.45 69.5583 84.45V81.95C65.8487 81.95 62.8083 78.9096 62.8083 75.2H60.3083ZM69.5583 84.45H117.558V81.95H69.5583V84.45ZM117.558 84.45C122.649 84.45 126.808 80.2904 126.808 75.2H124.308C124.308 78.9096 121.268 81.95 117.558 81.95V84.45ZM126.808 75.2V39.2H124.308V75.2H126.808ZM126.808 39.2C126.808 34.1199 122.759 29.95 117.558 29.95V32.45C121.358 32.45 124.308 35.4801 124.308 39.2H126.808ZM76.3083 26.2V36.2H78.8083V26.2H76.3083ZM108.308 26.2V36.2H110.808V26.2H108.308ZM12.5488 90.8711C12.5488 45.1889 49.5816 8.15613 95.2638 8.15613V5.65613C48.2009 5.65613 10.0488 43.8082 10.0488 90.8711H12.5488ZM95.2638 8.15613C140.946 8.15613 177.979 45.1889 177.979 90.8711H180.479C180.479 43.8082 142.327 5.65613 95.2638 5.65613V8.15613ZM177.979 90.8711C177.979 116.41 166.406 139.245 148.213 154.42L149.815 156.34C168.552 140.71 180.479 117.183 180.479 90.8711H177.979ZM42.3141 154.42C24.1218 139.245 12.5488 116.41 12.5488 90.8711H10.0488C10.0488 117.183 21.9754 140.71 40.7128 156.34L42.3141 154.42ZM105.249 62.9192C105.249 69.4085 99.9888 74.6692 93.4994 74.6692V77.1692C101.369 77.1692 107.749 70.7893 107.749 62.9192H105.249ZM93.4994 74.6692C87.0101 74.6692 81.7494 69.4085 81.7494 62.9192H79.2494C79.2494 70.7893 85.6294 77.1692 93.4994 77.1692V74.6692ZM81.7494 62.9192C81.7494 56.4299 87.0101 51.1692 93.4994 51.1692V48.6692C85.6294 48.6692 79.2494 55.0491 79.2494 62.9192H81.7494ZM93.4994 51.1692C99.9888 51.1692 105.249 56.4299 105.249 62.9192H107.749C107.749 55.0491 101.369 48.6692 93.4994 48.6692V51.1692ZM99.3833 67.0353L94.3833 62.0353L92.6156 63.8031L97.6156 68.8031L99.3833 67.0353ZM94.7494 62.9192V54.9192H92.2494V62.9192H94.7494ZM61.5583 44.45H125.558V41.95H61.5583V44.45Z" fill="url(#paint0_linear_3380_1893)"/>
<path d="M91.0767 126.123C92.1813 126.123 93.0767 125.228 93.0767 124.123C93.0767 123.019 92.1813 122.123 91.0767 122.123C89.9721 122.123 89.0767 123.019 89.0767 124.123C89.0767 125.228 89.9721 126.123 91.0767 126.123Z" fill="url(#paint1_linear_3380_1893)"/>
<defs>
<linearGradient id="paint0_linear_3380_1893" x1="95.2638" y1="6.90613" x2="95.2638" y2="185.2" gradientUnits="userSpaceOnUse">
<stop stop-color="#93C437"/>
<stop offset="1" stop-color="#279BE8"/>
</linearGradient>
<linearGradient id="paint1_linear_3380_1893" x1="91.0767" y1="122.123" x2="91.0767" y2="126.123" gradientUnits="userSpaceOnUse">
<stop stop-color="#93C437"/>
<stop offset="1" stop-color="#279BE8"/>
</linearGradient>
</defs>
</svg>
