<svg width="192" height="192" viewBox="0 0 192 192" fill="none" xmlns="http://www.w3.org/2000/svg">
<path d="M107.006 164.2H105.756C105.756 164.89 106.316 165.45 107.006 165.45V164.2ZM82.1952 123.585C82.4077 122.928 82.0475 122.223 81.3906 122.011C80.7338 121.798 80.0291 122.159 79.8165 122.815L82.1952 123.585ZM78.0059 132.2L76.8311 131.773C76.8273 131.784 76.8236 131.794 76.82 131.805L78.0059 132.2ZM83.0059 137.45C83.6962 137.45 84.2559 136.89 84.2559 136.2C84.2559 135.51 83.6962 134.95 83.0059 134.95V137.45ZM114.006 125.45C114.696 125.45 115.256 124.89 115.256 124.2C115.256 123.51 114.696 122.95 114.006 122.95V125.45ZM88.0059 100.95C87.3155 100.95 86.7559 101.51 86.7559 102.2C86.7559 102.89 87.3155 103.45 88.0059 103.45V100.95ZM118.006 119.45C118.696 119.45 119.256 118.89 119.256 118.2C119.256 117.51 118.696 116.95 118.006 116.95V119.45ZM92.0059 94.9501C91.3155 94.9501 90.7559 95.5098 90.7559 96.2001C90.7559 96.8905 91.3155 97.4501 92.0059 97.4501V94.9501ZM122.006 113.45C122.696 113.45 123.256 112.89 123.256 112.2C123.256 111.51 122.696 110.95 122.006 110.95V113.45ZM143.888 185.759C144.197 186.377 144.947 186.627 145.565 186.318C146.182 186.009 146.433 185.259 146.124 184.641L143.888 185.759ZM36.6028 183.85C35.9124 183.85 35.3528 184.41 35.3528 185.1C35.3528 185.79 35.9124 186.35 36.6028 186.35V183.85ZM83.4059 167.2L84.6113 166.869L84.6103 166.866L83.4059 167.2ZM108.256 164.1C108.256 163.41 107.696 162.85 107.006 162.85C106.316 162.85 105.756 163.41 105.756 164.1H108.256ZM61.5583 41.9501C60.868 41.9501 60.3083 42.5098 60.3083 43.2001C60.3083 43.8905 60.868 44.4501 61.5583 44.4501V41.9501ZM125.558 44.4501C126.249 44.4501 126.808 43.8905 126.808 43.2001C126.808 42.5098 126.249 41.9501 125.558 41.9501V44.4501ZM78.8083 26.2001C78.8083 25.5098 78.2487 24.9501 77.5583 24.9501C76.868 24.9501 76.3083 25.5098 76.3083 26.2001H78.8083ZM76.3083 36.2001C76.3083 36.8905 76.868 37.4501 77.5583 37.4501C78.2487 37.4501 78.8083 36.8905 78.8083 36.2001H76.3083ZM110.808 26.2001C110.808 25.5098 110.249 24.9501 109.558 24.9501C108.868 24.9501 108.308 25.5098 108.308 26.2001H110.808ZM108.308 36.2001C108.308 36.8905 108.868 37.4501 109.558 37.4501C110.249 37.4501 110.808 36.8905 110.808 36.2001H108.308ZM124.308 51.1637C124.308 51.8541 124.868 52.4137 125.558 52.4137C126.249 52.4137 126.808 51.8541 126.808 51.1637H124.308ZM126.808 71.6396C126.808 70.9493 126.249 70.3896 125.558 70.3896C124.868 70.3896 124.308 70.9493 124.308 71.6396H126.808ZM148.213 154.42C147.683 154.862 147.612 155.65 148.054 156.181C148.496 156.711 149.285 156.782 149.815 156.34L148.213 154.42ZM40.7128 156.34C41.2429 156.782 42.0311 156.711 42.4734 156.181C42.9156 155.65 42.8443 154.862 42.3141 154.42L40.7128 156.34ZM86.243 66.696C86.5114 67.332 87.2445 67.6301 87.8806 67.3618C88.5167 67.0935 88.8148 66.3603 88.5464 65.7242L86.243 66.696ZM85.6361 72.897C86.2802 72.6486 86.6009 71.925 86.3524 71.2809C86.1039 70.6368 85.3803 70.3161 84.7362 70.5646L85.6361 72.897ZM99.9355 65.7242C99.6671 66.3603 99.9652 67.0935 100.601 67.3618C101.237 67.6301 101.971 67.332 102.239 66.696L99.9355 65.7242ZM103.746 70.5646C103.102 70.3161 102.378 70.6368 102.13 71.2809C101.881 71.925 102.202 72.6486 102.846 72.897L103.746 70.5646ZM135.807 56.4838C135.807 55.7935 135.248 55.2338 134.557 55.2338C133.867 55.2338 133.307 55.7935 133.307 56.4838H135.807ZM133.307 63.4838C133.307 64.1742 133.867 64.7338 134.557 64.7338C135.248 64.7338 135.807 64.1742 135.807 63.4838H133.307ZM84.0059 106.95C76.1155 106.95 69.7559 113.31 69.7559 121.2H72.2559C72.2559 114.69 77.4962 109.45 84.0059 109.45V106.95ZM69.7559 121.2V141.2H72.2559V121.2H69.7559ZM69.7559 141.2C69.7559 150.19 77.0155 157.45 86.0059 157.45V154.95C78.3962 154.95 72.2559 148.81 72.2559 141.2H69.7559ZM86.0059 157.45C94.3961 157.45 101.932 153.524 107.344 148.627C110.056 146.174 112.266 143.449 113.806 140.796C115.333 138.165 116.256 135.505 116.256 133.2H113.756C113.756 134.895 113.054 137.111 111.643 139.542C110.245 141.951 108.206 144.477 105.667 146.773C100.58 151.376 93.6156 154.95 86.0059 154.95V157.45ZM116.256 133.2C116.256 130.31 113.896 127.95 111.006 127.95V130.45C112.516 130.45 113.756 131.69 113.756 133.2H116.256ZM111.006 127.95C108.116 127.95 105.756 130.31 105.756 133.2H108.256C108.256 131.69 109.496 130.45 111.006 130.45V127.95ZM105.756 133.2V164.2H108.256V133.2H105.756ZM81.0059 123.2C79.8165 122.815 79.8165 122.815 79.8165 122.815C79.8165 122.815 79.8165 122.816 79.8165 122.816C79.8164 122.816 79.8163 122.816 79.8162 122.817C79.8159 122.817 79.8155 122.819 79.815 122.82C79.8139 122.823 79.8124 122.828 79.8103 122.835C79.8061 122.848 79.7999 122.867 79.7918 122.892C79.7755 122.942 79.7516 123.016 79.7208 123.111C79.6592 123.301 79.5702 123.575 79.461 123.91C79.2425 124.581 78.943 125.498 78.6185 126.484C77.9668 128.465 77.2232 130.695 76.8311 131.773L79.1806 132.627C79.5885 131.505 80.3449 129.236 80.9932 127.266C81.3187 126.277 81.6192 125.357 81.8382 124.684C81.9477 124.348 82.0369 124.073 82.0987 123.882C82.1297 123.787 82.1537 123.713 82.1701 123.662C82.1783 123.637 82.1845 123.618 82.1888 123.605C82.1909 123.598 82.1925 123.593 82.1935 123.59C82.1941 123.588 82.1945 123.587 82.1947 123.586C82.1949 123.586 82.195 123.585 82.195 123.585C82.1951 123.585 82.1951 123.585 82.1951 123.585C82.1951 123.585 82.1952 123.585 81.0059 123.2ZM76.82 131.805C76.224 133.593 76.4319 135.144 77.497 136.209C78.4603 137.172 79.858 137.45 81.0059 137.45V134.95C80.1537 134.95 79.5514 134.728 79.2647 134.441C79.0798 134.256 78.7877 133.807 79.1917 132.595L76.82 131.805ZM81.0059 137.45H83.0059V134.95H81.0059V137.45ZM84.0059 109.45C90.4313 109.45 94.0951 113.057 98.122 117.084L99.8897 115.316C95.9166 111.343 91.5804 106.95 84.0059 106.95V109.45ZM98.122 117.084C102.095 121.057 106.431 125.45 114.006 125.45V122.95C107.58 122.95 103.917 119.343 99.8897 115.316L98.122 117.084ZM88.0059 103.45C94.4313 103.45 98.0951 107.057 102.122 111.084L103.89 109.316C99.9166 105.343 95.5804 100.95 88.0059 100.95V103.45ZM102.122 111.084C106.095 115.057 110.431 119.45 118.006 119.45V116.95C111.58 116.95 107.917 113.343 103.89 109.316L102.122 111.084ZM92.0059 97.4501C98.4313 97.4501 102.095 101.057 106.122 105.084L107.89 103.316C103.917 99.3431 99.5804 94.9501 92.0059 94.9501V97.4501ZM106.122 105.084C110.095 109.057 114.431 113.45 122.006 113.45V110.95C115.58 110.95 111.917 107.343 107.89 103.316L106.122 105.084ZM146.124 184.641C141.036 174.465 135.37 168.992 129.836 166.093C124.311 163.199 119.062 162.95 115.006 162.95V165.45C118.95 165.45 123.7 165.701 128.676 168.307C133.641 170.908 138.976 175.935 143.888 185.759L146.124 184.641ZM115.006 162.95H107.006V165.45H115.006V162.95ZM36.6028 186.35C46.2644 186.35 50.4211 180.583 54.808 175.408C57.0219 172.797 59.2989 170.309 62.3925 168.453C65.4616 166.612 69.4104 165.35 75.0059 165.35V162.85C69.0016 162.85 64.6002 164.213 61.1063 166.31C57.6369 168.391 55.1381 171.153 52.9011 173.792C48.3863 179.117 44.9412 183.85 36.6028 183.85V186.35ZM75.0059 165.35H79.5059V162.85H75.0059V165.35ZM79.5059 165.35C80.7752 165.35 81.8324 166.206 82.2015 167.535L84.6103 166.866C83.9793 164.594 82.0365 162.85 79.5059 162.85V165.35ZM82.2004 167.531C83.7419 173.146 88.815 177.35 95.0059 177.35V174.85C89.9967 174.85 85.8698 171.454 84.6113 166.869L82.2004 167.531ZM95.0059 177.35C102.296 177.35 108.256 171.391 108.256 164.1H105.756C105.756 170.01 100.915 174.85 95.0059 174.85V177.35ZM117.558 29.9501H69.5583V32.4501H117.558V29.9501ZM69.5583 29.9501C64.468 29.9501 60.3083 34.1098 60.3083 39.2001H62.8083C62.8083 35.4905 65.8487 32.4501 69.5583 32.4501V29.9501ZM60.3083 39.2001V75.2001H62.8083V39.2001H60.3083ZM60.3083 75.2001C60.3083 80.2905 64.468 84.4501 69.5583 84.4501V81.9501C65.8487 81.9501 62.8083 78.9098 62.8083 75.2001H60.3083ZM69.5583 84.4501H117.558V81.9501H69.5583V84.4501ZM117.558 84.4501C122.649 84.4501 126.808 80.2905 126.808 75.2001H124.308C124.308 78.9098 121.268 81.9501 117.558 81.9501V84.4501ZM126.808 39.2001C126.808 34.12 122.759 29.9501 117.558 29.9501V32.4501C121.358 32.4501 124.308 35.4803 124.308 39.2001H126.808ZM76.3083 26.2001V36.2001H78.8083V26.2001H76.3083ZM108.308 26.2001V36.2001H110.808V26.2001H108.308ZM126.808 51.1637V39.2001H124.308V51.1637H126.808ZM126.808 75.2001V71.6396H124.308V75.2001H126.808ZM12.5488 90.8712C12.5488 45.189 49.5816 8.15625 95.2638 8.15625V5.65625C48.2009 5.65625 10.0488 43.8083 10.0488 90.8712H12.5488ZM95.2638 8.15625C140.946 8.15625 177.979 45.189 177.979 90.8712H180.479C180.479 43.8083 142.327 5.65625 95.2638 5.65625V8.15625ZM177.979 90.8712C177.979 116.41 166.406 139.245 148.213 154.42L149.815 156.34C168.552 140.71 180.479 117.183 180.479 90.8712H177.979ZM42.3141 154.42C24.1218 139.245 12.5488 116.41 12.5488 90.8712H10.0488C10.0488 117.183 21.9754 140.71 40.7128 156.34L42.3141 154.42ZM72.1798 68.8447C72.1798 65.5137 75.2829 62.5647 79.4298 62.5647V60.0647C74.1967 60.0647 69.6798 63.8558 69.6798 68.8447H72.1798ZM79.4298 62.5647C82.6267 62.5647 85.2523 64.3475 86.243 66.696L88.5464 65.7242C87.1242 62.353 83.5228 60.0647 79.4298 60.0647V62.5647ZM84.7362 70.5646C82.5873 71.3936 79.257 71.6219 76.4548 71.167C75.0585 70.9403 73.9053 70.5609 73.1373 70.0872C72.3702 69.6139 72.1798 69.1836 72.1798 68.8447H69.6798C69.6798 70.3956 70.6704 71.5028 71.8248 72.2149C72.9785 72.9266 74.4875 73.3803 76.0542 73.6347C79.1778 74.1418 82.9756 73.9234 85.6361 72.897L84.7362 70.5646ZM82.1898 57.3147C82.1898 58.8335 80.9586 60.0647 79.4398 60.0647V62.5647C82.3393 62.5647 84.6898 60.2142 84.6898 57.3147H82.1898ZM79.4398 60.0647C77.921 60.0647 76.6898 58.8335 76.6898 57.3147H74.1898C74.1898 60.2142 76.5403 62.5647 79.4398 62.5647V60.0647ZM76.6898 57.3147C76.6898 55.7959 77.921 54.5647 79.4398 54.5647V52.0647C76.5403 52.0647 74.1898 54.4152 74.1898 57.3147H76.6898ZM79.4398 54.5647C80.9586 54.5647 82.1898 55.7959 82.1898 57.3147H84.6898C84.6898 54.4152 82.3393 52.0647 79.4398 52.0647V54.5647ZM118.802 68.8447C118.802 63.8558 114.285 60.0647 109.052 60.0647V62.5647C113.199 62.5647 116.302 65.5137 116.302 68.8447H118.802ZM109.052 60.0647C104.959 60.0647 101.358 62.353 99.9355 65.7242L102.239 66.696C103.23 64.3475 105.855 62.5647 109.052 62.5647V60.0647ZM102.846 72.897C105.506 73.9234 109.304 74.1418 112.428 73.6347C113.994 73.3803 115.503 72.9266 116.657 72.2149C117.812 71.5028 118.802 70.3956 118.802 68.8447H116.302C116.302 69.1836 116.112 69.6139 115.345 70.0872C114.577 70.5609 113.423 70.9403 112.027 71.167C109.225 71.6219 105.895 71.3936 103.746 70.5646L102.846 72.897ZM103.792 57.3147C103.792 60.2142 106.143 62.5647 109.042 62.5647V60.0647C107.523 60.0647 106.292 58.8335 106.292 57.3147H103.792ZM109.042 62.5647C111.942 62.5647 114.292 60.2142 114.292 57.3147H111.792C111.792 58.8335 110.561 60.0647 109.042 60.0647V62.5647ZM114.292 57.3147C114.292 54.4152 111.942 52.0647 109.042 52.0647V54.5647C110.561 54.5647 111.792 55.7959 111.792 57.3147H114.292ZM109.042 52.0647C106.143 52.0647 103.792 54.4152 103.792 57.3147H106.292C106.292 55.7959 107.523 54.5647 109.042 54.5647V52.0647ZM97.9617 58.7941C97.9617 60.8652 96.2827 62.5441 94.2117 62.5441V65.0441C97.6635 65.0441 100.462 62.2459 100.462 58.7941H97.9617ZM94.2117 62.5441C92.1406 62.5441 90.4617 60.8652 90.4617 58.7941H87.9617C87.9617 62.2459 90.7599 65.0441 94.2117 65.0441V62.5441ZM90.4617 58.7941C90.4617 56.7231 92.1406 55.0441 94.2117 55.0441V52.5441C90.7599 52.5441 87.9617 55.3424 87.9617 58.7941H90.4617ZM94.2117 55.0441C96.2827 55.0441 97.9617 56.7231 97.9617 58.7941H100.462C100.462 55.3424 97.6635 52.5441 94.2117 52.5441V55.0441ZM101.962 71.7641C101.962 72.2849 101.524 72.9921 99.9372 73.6233C98.4423 74.2179 96.3613 74.5416 94.2117 74.5416C92.062 74.5416 89.9811 74.2179 88.4862 73.6233C86.8995 72.9921 86.4617 72.2849 86.4617 71.7641H83.9617C83.9617 73.9283 85.7738 75.2349 87.5622 75.9462C89.4423 76.6941 91.8613 77.0416 94.2117 77.0416C96.562 77.0416 98.9811 76.6941 100.861 75.9462C102.65 75.2349 104.462 73.9283 104.462 71.7641H101.962ZM86.4617 71.7641C86.4617 68.1846 89.7643 65.0141 94.2117 65.0141V62.5141C88.659 62.5141 83.9617 66.5437 83.9617 71.7641H86.4617ZM94.2117 65.0141C98.659 65.0141 101.962 68.1846 101.962 71.7641H104.462C104.462 66.5437 99.7643 62.5141 94.2117 62.5141V65.0141ZM146.307 61.4838C146.307 67.9732 141.047 73.2338 134.557 73.2338V75.7338C142.427 75.7338 148.807 69.3539 148.807 61.4838H146.307ZM134.557 73.2338C128.068 73.2338 122.807 67.9732 122.807 61.4838H120.307C120.307 69.3539 126.687 75.7338 134.557 75.7338V73.2338ZM122.807 61.4838C122.807 54.9945 128.068 49.7338 134.557 49.7338V47.2338C126.687 47.2338 120.307 53.6138 120.307 61.4838H122.807ZM134.557 49.7338C141.047 49.7338 146.307 54.9945 146.307 61.4838H148.807C148.807 53.6138 142.427 47.2338 134.557 47.2338V49.7338ZM133.307 56.4838V63.4838H135.807V56.4838H133.307ZM61.5583 44.4501H125.558V41.9501H61.5583V44.4501Z" fill="url(#paint0_linear_3240_3764)"/>
<path d="M91.0762 126.123C92.1808 126.123 93.0762 125.228 93.0762 124.123C93.0762 123.019 92.1808 122.123 91.0762 122.123C89.9716 122.123 89.0762 123.019 89.0762 124.123C89.0762 125.228 89.9716 126.123 91.0762 126.123Z" fill="url(#paint1_linear_3240_3764)"/>
<path d="M134.557 68.7581C135.399 68.7581 136.081 68.0757 136.081 67.234C136.081 66.3923 135.399 65.71 134.557 65.71C133.716 65.71 133.033 66.3923 133.033 67.234C133.033 68.0757 133.716 68.7581 134.557 68.7581Z" fill="url(#paint2_linear_3240_3764)"/>
<defs>
<linearGradient id="paint0_linear_3240_3764" x1="95.2638" y1="6.90625" x2="95.2638" y2="185.2" gradientUnits="userSpaceOnUse">
<stop stop-color="#FFBE4F"/>
<stop offset="1" stop-color="#93C437"/>
</linearGradient>
<linearGradient id="paint1_linear_3240_3764" x1="91.0762" y1="122.123" x2="91.0762" y2="126.123" gradientUnits="userSpaceOnUse">
<stop stop-color="#FFBE4F"/>
<stop offset="1" stop-color="#93C437"/>
</linearGradient>
<linearGradient id="paint2_linear_3240_3764" x1="134.557" y1="65.71" x2="134.557" y2="68.7581" gradientUnits="userSpaceOnUse">
<stop stop-color="#FFBE4F"/>
<stop offset="1" stop-color="#93C437"/>
</linearGradient>
</defs>
</svg>
