<svg width="192" height="192" viewBox="0 0 192 192" fill="none" xmlns="http://www.w3.org/2000/svg">
<path d="M23.8654 37.2002V36.2002C23.8654 31.8002 27.4654 28.2002 31.8654 28.2002H127.865C132.265 28.2002 135.865 31.8002 135.865 36.2002V48.2002C135.865 61.2002 127.865 64.2002 123.865 60.2002C119.865 56.2002 121.865 50.2002 130.865 47.2002L144.265 42.7002C148.465 41.3002 152.965 43.6002 154.365 47.8002L181.265 128.6C182.665 132.8 180.365 137.3 176.165 138.7L83.3654 169.6C79.1654 171 74.6654 168.7 73.2654 164.5L67.7654 148.1M57.8654 54.2002H75.8654M135.865 66.2002V132.2C135.865 136.6 132.265 140.2 127.865 140.2H31.8654C27.4654 140.2 23.8654 136.6 23.8654 132.2V65.2002C23.8654 64.7002 23.4654 64.3002 22.9654 64.2002C17.7654 63.7002 13.6654 59.3002 13.8654 53.9002C14.0654 48.8002 18.1654 44.5002 23.3654 44.2002C26.6654 44.0002 29.5654 45.4002 31.5654 47.7002L39.0654 46.8002C40.7654 41.7002 44.0654 38.2002 47.9654 38.2002C53.4654 38.2002 57.9654 45.4002 57.9654 54.2002C57.9654 63.0002 53.4654 70.2002 47.9654 70.2002C44.0654 70.2002 40.6654 66.3002 38.9654 61.2002L31.9654 60.2002M43.8654 93.3002L47.3654 89.8002C50.4654 86.7002 55.8654 88.9002 55.8654 93.3002C55.8654 97.7002 61.2654 99.9002 64.3654 96.8002L71.3654 89.8002C74.4654 86.7002 79.8654 88.9002 79.8654 93.3002C79.8654 97.7002 85.2654 99.9002 88.3654 96.8002L95.3654 89.8002C98.4654 86.7002 103.865 88.9002 103.865 93.3002C103.865 97.7002 109.265 99.9002 112.365 96.8002L115.865 93.3002M43.8654 115.3L47.3654 111.8C50.4654 108.7 55.8654 110.9 55.8654 115.3C55.8654 119.7 61.2654 121.9 64.3654 118.8L71.3654 111.8C74.4654 108.7 79.8654 110.9 79.8654 115.3C79.8654 119.7 85.2654 121.9 88.3654 118.8L95.3654 111.8C98.4654 108.7 103.865 110.9 103.865 115.3C103.865 119.7 109.265 121.9 112.365 118.8L115.865 115.3" stroke="url(#paint0_linear_3323_201)" stroke-width="2.5" stroke-miterlimit="10" stroke-linecap="round" stroke-linejoin="round"/>
<defs>
<linearGradient id="paint0_linear_3323_201" x1="97.7671" y1="28.2002" x2="97.7671" y2="170.011" gradientUnits="userSpaceOnUse">
<stop stop-color="#279BE8"/>
<stop offset="1" stop-color="#875AE0"/>
</linearGradient>
</defs>
</svg>
