<svg width="120" height="120" viewBox="0 0 120 120" fill="none" xmlns="http://www.w3.org/2000/svg">
<path d="M86.6433 58C86.6433 58 88.1433 62.625 89.1433 65.5C90.3933 69.25 87.8933 70.5 85.3933 70.5H82.8933M53.0183 103V64.25C53.0183 61.375 50.5183 59 47.5183 59.25C44.8933 59.5 42.8933 62.125 43.0183 64.75C43.5183 74.875 59.7683 93.125 79.6433 93C89.8933 92.875 98.0183 84.5 98.0183 74.25V64.25M80.3933 56.75C80.3933 60.8921 77.0355 64.25 72.8933 64.25C68.7512 64.25 65.3933 60.8921 65.3933 56.75C65.3933 52.6079 68.7512 49.25 72.8933 49.25C77.0355 49.25 80.3933 52.6079 80.3933 56.75ZM80.3933 56.75H86.6433M86.6433 56.75C86.6433 60.8921 90.0012 64.25 94.1433 64.25C98.2855 64.25 101.643 60.8921 101.643 56.75C101.643 52.6079 98.2855 49.25 94.1433 49.25C90.0012 49.25 86.6433 52.6079 86.6433 56.75ZM57.8933 43H95.3933C96.7683 43 97.8933 41.875 97.8933 40.5C97.8933 28.125 87.7683 18 75.3933 18H62.8933M43.0183 24.75C40.1433 23.375 36.7683 22.75 33.2683 23.25C25.3933 24.125 19.0183 30.5 18.1433 38.375C17.0183 47.25 22.6433 55 30.5183 57.375C32.3933 57.875 34.0183 56.25 33.6433 54.375C33.1433 52.375 33.0183 50.25 33.0183 48C33.0183 31.375 46.3933 18 63.0183 18" stroke="url(#paint0_linear_3240_4510)" stroke-width="2.5" stroke-miterlimit="10" stroke-linecap="round" stroke-linejoin="round"/>
<defs>
<linearGradient id="paint0_linear_3240_4510" x1="59.8217" y1="18" x2="59.8217" y2="103" gradientUnits="userSpaceOnUse">
<stop stop-color="#FFBE4F"/>
<stop offset="1" stop-color="#EC6400"/>
</linearGradient>
</defs>
</svg>
