<svg width="120" height="120" viewBox="0 0 120 120" fill="none" xmlns="http://www.w3.org/2000/svg">
<path d="M74.5 51.5C74.5 51.5 77.25 60 78.25 62.75C79.5 66.5 77 67.75 74.5 67.75H72M87 46.5C87 31.25 74.75 19 59.5 19C44.25 19 32 31.25 32 46.5V100.25M87.125 46.5V70.25C87.125 81.25 78.125 90.25 67.125 90.25C56.125 90.25 47.125 81.25 47.125 70.25V51.5C47.125 46 51.625 41.5 57.125 41.5H78.375" stroke="url(#paint0_linear_3380_2548)" stroke-width="2.5" stroke-miterlimit="10" stroke-linecap="round" stroke-linejoin="round"/>
<path d="M61.8486 56.2C62.9532 56.2 63.8486 55.3045 63.8486 54.2C63.8486 53.0954 62.9532 52.2 61.8486 52.2C60.7441 52.2 59.8486 53.0954 59.8486 54.2C59.8486 55.3045 60.7441 56.2 61.8486 56.2Z" fill="url(#paint1_linear_3380_2548)"/>
<defs>
<linearGradient id="paint0_linear_3380_2548" x1="59.5625" y1="19" x2="59.5625" y2="100.25" gradientUnits="userSpaceOnUse">
<stop stop-color="#279BE8"/>
<stop offset="1" stop-color="#875AE0"/>
</linearGradient>
<linearGradient id="paint1_linear_3380_2548" x1="61.8486" y1="52.2" x2="61.8486" y2="56.2" gradientUnits="userSpaceOnUse">
<stop stop-color="#279BE8"/>
<stop offset="1" stop-color="#875AE0"/>
</linearGradient>
</defs>
</svg>
