<svg width="320" height="320" viewBox="0 0 320 320" fill="none" xmlns="http://www.w3.org/2000/svg">
<path d="M65.2272 94.3002V72.8002C65.2272 61.9002 72.5272 52.5002 82.9272 49.6002C99.8272 45.0002 127.627 39.2002 161.227 39.2002C194.827 39.2002 222.727 45.0002 239.527 49.6002C250.027 52.5002 257.227 62.0002 257.227 72.8002L257.227 188.9C257.227 210.3 246.527 230.3 228.727 242.2L163.427 285.7C162.127 286.6 160.327 286.6 159.027 285.7L93.7271 242.2C74.2271 229.2 63.3271 206.8 65.5271 183.1C66.1271 177.1 71.5271 172.2 77.5271 172.2H79.2271C81.4271 172.2 83.2271 170.4 83.2271 168.2V142.2C83.2271 139.8 81.227 138 78.827 138.2C76.727 138.4 75.1271 140.5 75.2271 142.6C75.7271 150.8 88.727 165.4 104.527 165.2C112.727 165.1 119.227 158.4 119.227 150.2V130.2C119.227 123 113.427 117.2 106.227 117.2H102.327C95.127 117.2 89.327 123 89.327 130.2M161.227 199.2C140.227 199.2 134.227 172.2 110.227 172.2M109.227 134.2C109.227 134.2 111.427 141 112.227 143.2C113.227 146.2 111.227 147.2 109.227 147.2H107.227M68.2271 144.5C62.6271 138.7 59.2271 130.9 59.2271 122.3C59.2271 104.6 73.5271 90.3002 91.2271 90.3002C108.927 90.3002 123.227 104.6 123.227 122.3M88.827 207.2H201.227M176.327 116.1C176.327 113.3 177.627 111.4 179.227 111.3C181.027 111.2 182.727 113.3 182.227 117C181.427 123.5 175.727 127.8 169.227 128.3C167.327 128.4 165.927 128.2 164.427 127.7C162.927 127.1 162.727 125.1 164.127 124.2C166.027 122.9 167.227 120.8 167.227 118.4C167.227 114.2 163.027 110.7 161.627 102.7C158.627 85.3002 170.927 69.0002 188.527 67.5002C208.027 65.8002 224.027 82.7002 220.727 102.4C218.627 115.1 207.127 126.4 192.127 126.4C182.327 126.2 176.327 121.1 176.327 116.1ZM217.227 156.2H169.227C164.827 156.2 161.227 159.8 161.227 164.2V207.2H217.227C221.627 207.2 225.227 203.6 225.227 199.2V164.2C225.227 159.8 221.727 156.2 217.227 156.2Z" stroke="url(#paint0_linear_3240_685)" stroke-width="2.5" stroke-miterlimit="10" stroke-linecap="round" stroke-linejoin="round"/>
<path d="M199.327 99.2002C200.432 99.2002 201.327 98.3048 201.327 97.2002C201.327 96.0956 200.432 95.2002 199.327 95.2002C198.222 95.2002 197.327 96.0956 197.327 97.2002C197.327 98.3048 198.222 99.2002 199.327 99.2002Z" fill="#EB5469"/>
<path d="M191.327 99.2002C192.432 99.2002 193.327 98.3048 193.327 97.2002C193.327 96.0956 192.432 95.2002 191.327 95.2002C190.222 95.2002 189.327 96.0956 189.327 97.2002C189.327 98.3048 190.222 99.2002 191.327 99.2002Z" fill="#EB5469"/>
<path d="M183.327 99.2002C184.432 99.2002 185.327 98.3048 185.327 97.2002C185.327 96.0956 184.432 95.2002 183.327 95.2002C182.222 95.2002 181.327 96.0956 181.327 97.2002C181.327 98.3048 182.222 99.2002 183.327 99.2002Z" fill="#EB5469"/>
<path d="M99.2271 138.2C100.332 138.2 101.227 137.305 101.227 136.2C101.227 135.096 100.332 134.2 99.2271 134.2C98.1225 134.2 97.2271 135.096 97.2271 136.2C97.2271 137.305 98.1225 138.2 99.2271 138.2Z" fill="#EB5469"/>
<defs>
<linearGradient id="paint0_linear_3240_685" x1="158.227" y1="39.2002" x2="158.227" y2="286.375" gradientUnits="userSpaceOnUse">
<stop stop-color="#F0677E"/>
<stop offset="1" stop-color="#DB1F2E"/>
</linearGradient>
</defs>
</svg>
