<svg width="60" height="60" viewBox="0 0 60 60" fill="none" xmlns="http://www.w3.org/2000/svg">
<path d="M30.8486 25.2001C30.8486 25.2001 31.8486 28.2001 32.8486 31.2001C33.8486 34.2001 31.8486 34.2001 30.8486 34.2001H29.8486M16.8486 54.2001V29.2001C16.8486 27.4001 15.2486 25.9001 13.3486 26.2001C11.9486 26.4001 10.8486 27.9001 10.8486 29.3001C10.9486 37.3001 17.8486 46.1001 28.6486 46.2001C34.2486 46.3001 38.9486 41.7001 38.9486 36.1001V20.6001C38.9486 13.6001 33.5486 7.60013 26.5486 7.20013C19.8486 7.00013 14.2486 11.6001 13.1486 17.9001C12.9486 19.1001 13.8486 20.3001 15.1486 20.3001H47.9486" stroke="url(#paint0_linear_3240_4866)" stroke-width="2.5" stroke-miterlimit="10" stroke-linecap="round" stroke-linejoin="round"/>
<defs>
<linearGradient id="paint0_linear_3240_4866" x1="29.3986" y1="7.19385" x2="29.3986" y2="54.2001" gradientUnits="userSpaceOnUse">
<stop stop-color="#F0677E"/>
<stop offset="1" stop-color="#DB1F2E"/>
</linearGradient>
</defs>
</svg>
