<svg width="120" height="120" viewBox="0 0 120 120" fill="none" xmlns="http://www.w3.org/2000/svg">
<path d="M61.8486 54.2C62.9532 54.2 63.8486 53.3045 63.8486 52.2C63.8486 51.0954 62.9532 50.2 61.8486 50.2C60.7441 50.2 59.8486 51.0954 59.8486 52.2C59.8486 53.3045 60.7441 54.2 61.8486 54.2Z" fill="url(#paint0_linear_3240_4438)"/>
<path d="M74.3806 50.1409C74.3806 50.1409 77.1306 58.6409 78.1306 61.3909C79.3806 65.1409 76.8806 66.3909 74.3806 66.3909H69.3806C65.2556 66.3909 61.8806 69.7659 61.8806 73.8909C61.8806 75.2659 60.7556 76.3909 59.3806 76.3909C55.2556 76.3909 51.8806 73.0159 51.8806 68.8909V56.3909C51.8806 50.8909 47.3806 46.3909 41.8806 46.3909H39.3806C38.0056 46.3909 36.8806 45.2659 36.8806 43.8909C36.8806 29.8909 48.6306 18.5159 62.8806 19.0159C76.3806 19.5159 87.0056 31.0159 87.0056 44.6409V72.7659C87.0056 83.0159 78.8806 91.3909 68.6306 91.5159C48.7556 91.6409 32.5056 73.3909 32.0056 63.2659C31.8806 60.6409 33.8806 58.0159 36.5056 57.7659C39.5056 57.5159 42.0056 59.7659 42.0056 62.7659V101.516" stroke="url(#paint1_linear_3240_4438)" stroke-width="2.5" stroke-miterlimit="10" stroke-linecap="round" stroke-linejoin="round"/>
<defs>
<linearGradient id="paint0_linear_3240_4438" x1="61.8486" y1="50.2" x2="61.8486" y2="54.2" gradientUnits="userSpaceOnUse">
<stop stop-color="#93C437"/>
<stop offset="1" stop-color="#279BE8"/>
</linearGradient>
<linearGradient id="paint1_linear_3240_4438" x1="59.5028" y1="19" x2="59.5028" y2="101.516" gradientUnits="userSpaceOnUse">
<stop stop-color="#93C437"/>
<stop offset="1" stop-color="#279BE8"/>
</linearGradient>
</defs>
</svg>
