<svg width="192" height="192" viewBox="0 0 192 192" fill="none" xmlns="http://www.w3.org/2000/svg">
<path d="M118.559 89.9199C119.663 89.9199 120.559 89.0245 120.559 87.9199C120.559 86.8154 119.663 85.9199 118.559 85.9199C117.454 85.9199 116.559 86.8154 116.559 87.9199C116.559 89.0245 117.454 89.9199 118.559 89.9199Z" fill="url(#paint0_linear_3240_4206)"/>
<path d="M140.4 84.7998C140.4 84.7998 144.8 98.3998 146.4 102.8C148.4 108.8 144.4 110.8 140.4 110.8H136.4M134.4 50.7998C120.4 50.7998 112.4 58.7998 104.4 66.7998C96.4004 74.7998 88.4004 82.7998 76.4004 82.7998M88.6004 163V101C88.6004 96.3998 84.6004 92.5998 79.8004 92.9998C75.6004 93.3998 72.4004 97.5998 72.6004 101.8C73.4004 118 99.4004 147.2 131.2 147C147.6 146.8 160.6 133.4 160.6 117V76.9998C160.6 62.5998 149 50.9998 134.6 50.9998M168.4 60.7998C168.4 43.1998 154 28.7998 136.4 28.7998C126.4 28.7998 100.4 28.7998 100.4 28.7998M22.4004 131C31.2004 131 38.4004 123.8 38.4004 115V90.9998C38.4004 77.7998 49.2004 66.9998 62.4004 66.9998C62.4004 45.9998 79.4004 28.9998 100.4 28.9998" stroke="url(#paint1_linear_3240_4206)" stroke-width="2.5" stroke-miterlimit="10" stroke-linecap="round" stroke-linejoin="round"/>
<defs>
<linearGradient id="paint0_linear_3240_4206" x1="118.559" y1="85.9199" x2="118.559" y2="89.9199" gradientUnits="userSpaceOnUse">
<stop stop-color="#F0677E"/>
<stop offset="1" stop-color="#DB1F2E"/>
</linearGradient>
<linearGradient id="paint1_linear_3240_4206" x1="95.4004" y1="28.7998" x2="95.4004" y2="163" gradientUnits="userSpaceOnUse">
<stop stop-color="#F0677E"/>
<stop offset="1" stop-color="#DB1F2E"/>
</linearGradient>
</defs>
</svg>
