<svg width="192" height="192" viewBox="0 0 192 192" fill="none" xmlns="http://www.w3.org/2000/svg">
<path d="M73.1 77.2002L91.1 95.4004C95 99.3004 103.3 97.4004 111.1 91.4004M73.1 77.2002L62.1 66.2002C57.6 61.8002 55.5 56.0002 55.5 50.2002M73.1 77.2002C76 80.1002 81.3 79.8002 87 77.1002M93.1 73.2002C94.6 72.1002 96 70.9002 97.4 69.5002C98.8 68.1002 100 66.7002 101.1 65.2002M105 59.1002C107.7 53.4002 108 48.1002 105.1 45.2002M105.1 45.2002L94.1 34.2002C85.3 25.4002 70.9 25.4002 62.1 34.2002M105.1 45.2002L123.1 63.4004C127.4 67.7004 124.6 77.9004 117 86.4004C116.6 86.9004 116.7 87.7004 117.3 88.0004C122 90.4004 139.1 100.7 139.1 121.4C139.1 133.6 131.9 143.4 123.1 143.4C114.3 143.4 107.1 133.6 107.1 121.4C107.1 99.4004 135.1 74.4004 167.1 103.4M62 34.2002C60 36.2002 59 39.2002 59 41.2002C59 44.0002 60.8 46.2002 63 46.2002C65.2 46.2002 67 44.0002 67 41.2002C67 27.2002 56.6 16.2002 44 16.2002C33 16.2002 24 30.5002 24 48.2002C24 86.2002 64 98.2002 64 136.2C64 153.9 55 168.2 44 168.2C30 168.2 24 152.2 24 152.2" stroke="url(#paint0_linear_3240_1759)" stroke-width="2.5" stroke-miterlimit="10" stroke-linecap="round" stroke-linejoin="round"/>
<defs>
<linearGradient id="paint0_linear_3240_1759" x1="95.55" y1="16.2002" x2="95.55" y2="168.2" gradientUnits="userSpaceOnUse">
<stop stop-color="#F0677E"/>
<stop offset="1" stop-color="#DB1F2E"/>
</linearGradient>
</defs>
</svg>
