<svg width="320" height="320" viewBox="0 0 320 320" fill="none" xmlns="http://www.w3.org/2000/svg">
<g clip-path="url(#clip0_4_113)">
<path d="M50.973 166.75H49.973C49.6415 166.75 49.3235 166.882 49.0891 167.116C48.8547 167.351 48.723 167.669 48.723 168C48.723 168.332 48.8547 168.65 49.0891 168.884C49.3235 169.118 49.6415 169.25 49.973 169.25H50.973C51.5292 169.276 52.0847 169.186 52.6047 168.987C53.1248 168.788 53.5982 168.484 53.9954 168.094C54.8291 167.194 54.6864 166.029 54.1585 164.605L52.1585 158.605C52.0545 158.29 51.8298 158.029 51.5337 157.88C51.2376 157.731 50.8945 157.706 50.5798 157.81C50.265 157.914 50.0045 158.139 49.8555 158.435C49.7065 158.731 49.6812 159.074 49.7852 159.389L49.7874 159.396L51.7874 165.396C52.099 166.33 52.0819 166.417 51.9428 166.587C51.8037 166.756 51.3609 166.75 50.973 166.75Z" fill="white"/>
<path d="M124.945 162.788H123.945C123.613 162.788 123.295 162.919 123.061 163.154C122.826 163.388 122.695 163.706 122.695 164.038C122.695 164.369 122.826 164.687 123.061 164.922C123.295 165.156 123.613 165.288 123.945 165.288H124.945C125.501 165.313 126.056 165.224 126.577 165.025C127.097 164.826 127.57 164.522 127.967 164.132C128.801 163.232 128.658 162.067 128.13 160.642L126.13 154.642C126.079 154.486 125.998 154.342 125.89 154.217C125.783 154.092 125.653 153.99 125.506 153.916C125.359 153.842 125.199 153.798 125.035 153.786C124.871 153.773 124.707 153.794 124.551 153.845C124.395 153.897 124.25 153.979 124.126 154.086C124.002 154.193 123.9 154.324 123.826 154.471C123.752 154.618 123.708 154.778 123.696 154.942C123.685 155.106 123.705 155.27 123.757 155.426L123.759 155.433L125.759 161.433C126.071 162.368 126.054 162.455 125.915 162.624C125.776 162.794 125.333 162.788 124.945 162.788Z" fill="white"/>
<path d="M50.973 138.75H42.973C39.6626 138.755 36.4738 139.998 34.033 142.234C31.5922 144.47 30.0759 147.538 29.7821 150.836C27.5559 151.126 25.5112 152.216 24.0286 153.902C22.546 155.588 21.7266 157.755 21.723 160V169C21.7217 169.994 21.3262 170.947 20.6233 171.65C19.9203 172.353 18.9672 172.749 17.973 172.75C17.6415 172.75 17.3235 172.882 17.0891 173.116C16.8547 173.351 16.723 173.669 16.723 174C16.723 174.332 16.8547 174.65 17.0891 174.884C17.3235 175.118 17.6415 175.25 17.973 175.25C19.63 175.248 21.2187 174.589 22.3904 173.418C23.5621 172.246 24.2211 170.657 24.223 169V160C24.2251 158.211 24.9369 156.495 26.2024 155.229C27.4678 153.964 29.1834 153.252 30.973 153.25C31.1371 153.25 31.2997 153.218 31.4513 153.155C31.603 153.092 31.7408 153 31.8568 152.884C31.9729 152.768 32.065 152.63 32.1278 152.479C32.1906 152.327 32.223 152.164 32.223 152C32.2262 149.15 33.3598 146.418 35.3751 144.402C37.3904 142.387 40.1229 141.253 42.973 141.25H50.973C56.7552 141.25 57.7152 144.156 57.765 144.322C57.8499 144.641 58.0574 144.913 58.3422 145.08C58.627 145.246 58.9661 145.294 59.2855 145.211C59.605 145.129 59.8789 144.923 60.0475 144.64C60.2162 144.356 60.2659 144.017 60.1859 143.697C60.1351 143.495 58.8587 138.75 50.973 138.75Z" fill="white"/>
<path d="M112.033 143.177C110.355 145.094 108.906 146.75 105.973 146.75C105.641 146.75 105.324 146.882 105.089 147.116C104.855 147.351 104.723 147.669 104.723 148C104.723 148.332 104.855 148.65 105.089 148.884C105.324 149.118 105.641 149.25 105.973 149.25C110.04 149.25 112.098 146.899 113.913 144.823C115.591 142.906 117.04 141.25 119.973 141.25C120.305 141.25 120.622 141.118 120.857 140.884C121.091 140.65 121.223 140.332 121.223 140C121.223 139.669 121.091 139.351 120.857 139.116C120.622 138.882 120.305 138.75 119.973 138.75C115.906 138.75 113.848 141.102 112.033 143.177Z" fill="white"/>
<path d="M193.973 133.25C198.131 133.247 202.172 134.627 205.459 137.173C208.746 139.718 211.094 143.285 212.131 147.312C212.172 147.471 212.244 147.621 212.342 147.752C212.441 147.884 212.564 147.994 212.706 148.078C212.847 148.162 213.004 148.217 213.166 148.24C213.329 148.263 213.495 148.254 213.654 148.213C213.813 148.172 213.963 148.1 214.094 148.001C214.226 147.903 214.336 147.779 214.42 147.637C214.503 147.496 214.558 147.339 214.581 147.176C214.604 147.013 214.594 146.848 214.553 146.689C213.781 143.701 212.368 140.917 210.412 138.53C208.456 136.144 206.004 134.212 203.225 132.869C200.447 131.526 197.41 130.804 194.325 130.753C191.239 130.703 188.18 131.324 185.359 132.576C182.538 133.827 180.024 135.677 177.99 137.998C175.957 140.319 174.453 143.055 173.584 146.016C172.714 148.977 172.5 152.091 172.956 155.143C173.412 158.195 174.527 161.111 176.224 163.689C176.407 163.965 176.692 164.157 177.016 164.223C177.34 164.289 177.678 164.223 177.954 164.041C178.23 163.859 178.423 163.574 178.49 163.25C178.556 162.926 178.492 162.588 178.31 162.312C176.45 159.484 175.389 156.206 175.241 152.825C175.093 149.444 175.862 146.086 177.468 143.106C179.074 140.127 181.456 137.638 184.362 135.903C187.267 134.167 190.589 133.251 193.973 133.25Z" fill="white"/>
<path d="M312.126 157.219C311.443 147.799 307.391 138.939 300.713 132.26C294.034 125.581 285.175 121.53 275.754 120.846C270.372 120.444 264.965 121.166 259.876 122.966C254.788 124.766 250.129 127.605 246.197 131.302C240.75 136.4 236.864 142.94 234.989 150.161C232.808 141.742 227.893 134.286 221.015 128.962C214.138 123.639 205.688 120.75 196.991 120.749C188.294 120.748 179.843 123.635 172.964 128.957C166.086 134.278 161.169 141.734 158.986 150.152C156.803 141.734 151.887 134.28 145.01 128.958C138.132 123.636 129.683 120.749 120.987 120.749C112.291 120.748 103.841 123.635 96.9631 128.956C90.0854 134.278 85.169 141.732 82.9857 150.149C81.5078 144.445 78.765 139.147 74.9606 134.648C71.1563 130.148 66.3879 126.563 61.0091 124.157C55.6302 121.752 49.7789 120.588 43.8889 120.752C37.999 120.915 32.2214 122.403 26.9847 125.104C21.7479 127.805 17.1863 131.65 13.638 136.354C10.0897 141.058 7.64577 146.5 6.48737 152.278C5.32897 158.055 5.48583 164.019 6.94633 169.727C8.40683 175.436 11.1335 180.742 14.9242 185.253C16.6331 187.341 18.9573 188.837 21.5659 189.527C24.1745 190.218 26.9343 190.067 29.4525 189.098C31.7985 188.265 33.8605 186.784 35.3994 184.827C36.9383 182.87 37.8913 180.517 38.1478 178.04C41.282 180.106 44.9476 181.221 48.7015 181.248C50.1959 181.267 51.6793 180.991 53.067 180.436C54.4548 179.881 55.7196 179.058 56.7894 178.015C57.8592 176.971 58.713 175.727 59.3019 174.354C59.8909 172.98 60.2036 171.504 60.2221 170.009C60.2227 169.964 60.223 169.919 60.223 169.873V156C60.2203 153.548 59.2448 151.197 57.5107 149.462C55.7766 147.728 53.4254 146.753 50.973 146.75C46.9056 146.75 44.848 149.102 43.0326 151.177C41.3548 153.094 39.9056 154.75 36.973 154.75C36.6415 154.75 36.3235 154.882 36.0891 155.116C35.8547 155.351 35.723 155.669 35.723 156C35.723 156.332 35.8547 156.65 36.0891 156.884C36.3235 157.118 36.6415 157.25 36.973 157.25C41.0404 157.25 43.098 154.899 44.9134 152.823C46.5912 150.906 48.0404 149.25 50.973 149.25C52.7625 149.252 54.4782 149.964 55.7436 151.23C57.009 152.495 57.7209 154.211 57.723 156V169.873C57.7263 171.049 57.4944 172.213 57.0409 173.298C56.5874 174.382 55.9215 175.365 55.0824 176.189C54.2531 177.024 53.2625 177.682 52.1709 178.122C51.0792 178.562 49.9094 178.775 48.7328 178.748C44.9067 178.647 41.2174 177.304 38.222 174.921L38.223 163C38.2227 162.38 38.0868 161.767 37.8248 161.205C37.5628 160.643 37.181 160.145 36.7062 159.746C36.2314 159.347 35.6751 159.057 35.0762 158.896C34.4774 158.734 33.8506 158.706 33.2396 158.813C32.2522 159.021 31.3653 159.56 30.7258 160.34C30.0864 161.121 29.7326 162.097 29.723 163.106C29.85 167.688 31.7023 172.053 34.9095 175.327C35.1732 175.604 35.4441 175.871 35.722 176.128V176.609C35.749 178.833 35.0752 181.009 33.7962 182.829C32.5172 184.649 30.6979 186.021 28.596 186.749C26.5581 187.531 24.3258 187.652 22.2155 187.094C20.1051 186.537 18.2235 185.33 16.8373 183.644C11.4548 177.239 8.41857 169.19 8.23047 160.826C8.04236 152.462 10.7136 144.284 15.8027 137.644C20.8918 131.003 28.0942 126.298 36.2196 124.306C44.345 122.313 52.907 123.153 60.4906 126.686C68.0742 130.218 74.2256 136.233 77.9281 143.735C81.6306 151.237 82.6626 159.778 80.8535 167.946C79.0445 176.114 74.5027 183.421 67.9787 188.658C61.4547 193.895 53.3391 196.75 44.973 196.75C44.6415 196.75 44.3235 196.882 44.0891 197.116C43.8547 197.351 43.723 197.669 43.723 198C43.723 198.332 43.8547 198.65 44.0891 198.884C44.3235 199.118 44.6415 199.25 44.973 199.25C53.6714 199.239 62.1207 196.344 68.998 191.018C75.8753 185.692 80.7924 178.236 82.9796 169.817C84.3708 175.231 86.9059 180.284 90.4144 184.635C92.0042 186.611 94.1679 188.046 96.6073 188.74C99.0466 189.435 101.641 189.356 104.034 188.514C106.427 187.672 108.499 186.109 109.965 184.039C111.432 181.97 112.22 179.496 112.222 176.96V174.089C115.34 176.124 118.978 177.221 122.701 177.248C125.72 177.286 128.629 176.122 130.789 174.015C132.95 171.907 134.185 169.028 134.222 166.009C134.223 165.964 134.223 165.919 134.223 165.873V152C134.22 149.548 133.245 147.197 131.511 145.462C129.777 143.728 127.425 142.753 124.973 142.75C120.906 142.75 118.848 145.102 117.033 147.177C115.355 149.094 113.906 150.75 110.973 150.75C110.641 150.75 110.324 150.882 110.089 151.116C109.855 151.351 109.723 151.669 109.723 152C109.723 152.332 109.855 152.65 110.089 152.884C110.324 153.118 110.641 153.25 110.973 153.25C115.04 153.25 117.098 150.899 118.913 148.823C120.591 146.906 122.04 145.25 124.973 145.25C126.763 145.252 128.478 145.964 129.744 147.229C131.009 148.495 131.721 150.211 131.723 152V165.873C131.726 167.049 131.494 168.213 131.041 169.298C130.587 170.382 129.921 171.365 129.082 172.189C128.253 173.023 127.262 173.681 126.171 174.121C125.079 174.561 123.909 174.774 122.733 174.748C118.907 174.647 115.217 173.304 112.222 170.921L112.223 159C112.223 158.38 112.087 157.767 111.825 157.205C111.563 156.643 111.181 156.145 110.706 155.746C110.231 155.347 109.675 155.057 109.076 154.896C108.477 154.734 107.851 154.706 107.24 154.813C106.252 155.021 105.365 155.56 104.726 156.34C104.086 157.121 103.733 158.097 103.723 159.106C103.85 163.688 105.702 168.053 108.91 171.327C109.173 171.604 109.444 171.871 109.722 172.128V176.96C109.72 178.979 109.092 180.948 107.924 182.595C106.756 184.243 105.106 185.487 103.201 186.157C101.296 186.826 99.2305 186.889 97.2886 186.335C95.3468 185.781 93.6247 184.638 92.3597 183.065C87.1291 176.576 84.259 168.503 84.2204 160.169C84.1817 151.835 86.9768 143.735 92.147 137.199C97.3172 130.663 104.556 126.077 112.674 124.196C120.793 122.314 129.311 123.248 136.829 126.844C144.347 130.44 150.42 136.485 154.051 143.986C157.682 151.488 158.656 160 156.813 168.128C154.969 176.256 150.418 183.515 143.906 188.716C137.393 193.917 129.307 196.75 120.973 196.75C120.641 196.75 120.323 196.882 120.089 197.116C119.855 197.351 119.723 197.669 119.723 198C119.723 198.332 119.855 198.65 120.089 198.884C120.323 199.118 120.641 199.25 120.973 199.25C129.67 199.239 138.118 196.345 144.995 191.02C151.872 185.696 156.789 178.241 158.978 169.824C160.437 175.497 163.152 180.77 166.923 185.253C168.632 187.341 170.956 188.837 173.565 189.528C176.174 190.218 178.933 190.067 181.452 189.098C183.798 188.265 185.86 186.784 187.399 184.827C188.938 182.87 189.891 180.517 190.148 178.04C193.282 180.106 196.948 181.221 200.702 181.248C202.196 181.267 203.679 180.991 205.067 180.436C206.454 179.882 207.719 179.059 208.788 178.016C209.858 176.972 210.712 175.728 211.301 174.355C211.89 172.982 212.203 171.506 212.221 170.012C212.222 169.966 212.222 169.919 212.222 169.873V156C212.219 153.548 211.244 151.197 209.51 149.462C207.776 147.728 205.424 146.753 202.972 146.75H200.973C198.521 146.753 196.169 147.728 194.435 149.462C192.701 151.197 191.726 153.548 191.723 156C191.723 156.332 191.855 156.65 192.089 156.884C192.324 157.118 192.642 157.25 192.973 157.25C193.305 157.25 193.623 157.118 193.857 156.884C194.091 156.65 194.223 156.332 194.223 156C194.225 154.211 194.937 152.495 196.202 151.23C197.468 149.964 199.184 149.252 200.973 149.25H202.972C204.762 149.252 206.477 149.964 207.743 151.23C209.008 152.495 209.72 154.211 209.722 156V169.873C209.721 172.226 208.787 174.483 207.123 176.147C205.459 177.812 203.203 178.747 200.85 178.749C200.811 178.749 200.772 178.749 200.733 178.748C196.907 178.647 193.217 177.304 190.222 174.921V163C190.222 162.38 190.086 161.767 189.824 161.205C189.562 160.643 189.18 160.145 188.705 159.746C188.23 159.347 187.674 159.057 187.075 158.896C186.476 158.734 185.85 158.706 185.239 158.813C184.251 159.021 183.365 159.56 182.725 160.34C182.086 161.121 181.732 162.097 181.723 163.106C181.85 167.688 183.702 172.053 186.91 175.327C187.173 175.604 187.444 175.871 187.722 176.128V176.609C187.749 178.833 187.075 181.009 185.796 182.829C184.517 184.65 182.697 186.021 180.595 186.749C178.557 187.531 176.325 187.651 174.215 187.094C172.105 186.537 170.223 185.33 168.837 183.644C163.455 177.239 160.419 169.19 160.23 160.826C160.042 152.462 162.714 144.284 167.803 137.644C172.892 131.003 180.094 126.298 188.22 124.306C196.345 122.313 204.907 123.153 212.491 126.686C220.074 130.218 226.226 136.233 229.928 143.735C233.631 151.237 234.663 159.778 232.854 167.946C231.044 176.114 226.503 183.421 219.979 188.658C213.455 193.895 205.339 196.75 196.973 196.75C196.641 196.75 196.324 196.882 196.089 197.116C195.855 197.351 195.723 197.669 195.723 198C195.723 198.332 195.855 198.65 196.089 198.884C196.324 199.118 196.641 199.25 196.973 199.25C205.671 199.239 214.119 196.345 220.996 191.019C227.873 185.694 232.79 178.24 234.978 169.822C236.378 175.244 238.921 180.305 242.438 184.663C244.031 186.633 246.196 188.062 248.634 188.751C251.072 189.44 253.664 189.356 256.053 188.512C258.442 187.667 260.51 186.103 261.973 184.034C263.436 181.965 264.222 179.494 264.222 176.96V174.09C267.34 176.124 270.977 177.22 274.701 177.248C276.206 177.265 277.7 176.984 279.097 176.421C280.493 175.858 281.765 175.024 282.837 173.968C283.913 172.913 284.766 171.653 285.348 170.263C285.929 168.872 286.226 167.38 286.222 165.873L286.223 151.25H293.973C294.305 151.25 294.622 151.118 294.857 150.884C295.091 150.65 295.223 150.332 295.223 150C295.223 149.669 295.091 149.351 294.857 149.116C294.622 148.882 294.305 148.75 293.973 148.75H286.128C285.324 141.87 279.483 136.088 272.66 135.766C269.217 135.616 265.836 136.711 263.135 138.851C260.435 140.992 258.596 144.033 257.956 147.419C257.872 147.888 257.892 148.37 258.014 148.83C258.136 149.29 258.358 149.718 258.664 150.084C258.969 150.449 259.351 150.743 259.783 150.944C260.215 151.146 260.685 151.25 261.161 151.25H283.723L283.722 165.873C283.725 167.049 283.494 168.213 283.04 169.298C282.587 170.382 281.921 171.365 281.081 172.189C280.254 173.026 279.264 173.686 278.172 174.126C277.08 174.566 275.909 174.778 274.732 174.748C270.906 174.647 267.217 173.304 264.222 170.921V159C264.222 158.38 264.086 157.767 263.824 157.205C263.562 156.643 263.18 156.145 262.705 155.746C262.23 155.347 261.674 155.057 261.075 154.896C260.476 154.734 259.85 154.706 259.239 154.813C258.251 155.021 257.365 155.56 256.725 156.34C256.086 157.121 255.732 158.097 255.723 159.106C255.85 163.687 257.702 168.052 260.908 171.327C261.173 171.604 261.444 171.871 261.722 172.129V176.96C261.722 178.977 261.096 180.944 259.931 182.591C258.767 184.238 257.12 185.483 255.219 186.155C253.317 186.828 251.254 186.894 249.313 186.345C247.372 185.796 245.649 184.659 244.381 183.091C239.143 176.606 236.266 168.534 236.22 160.198C236.175 151.862 238.964 143.759 244.131 137.217C249.298 130.676 256.535 126.085 264.654 124.199C272.774 122.312 281.293 123.242 288.815 126.835C296.336 130.428 302.413 136.472 306.047 143.973C309.682 151.475 310.658 159.99 308.816 168.119C306.974 176.249 302.423 183.511 295.91 188.713C289.397 193.916 281.309 196.75 272.973 196.75C272.641 196.75 272.324 196.882 272.089 197.116C271.855 197.351 271.723 197.669 271.723 198C271.723 198.332 271.855 198.65 272.089 198.884C272.324 199.118 272.641 199.25 272.973 199.25C278.355 199.242 283.678 198.13 288.614 195.985C293.55 193.839 297.994 190.705 301.672 186.775C305.368 182.842 308.205 178.184 310.005 173.096C311.805 168.008 312.527 162.601 312.126 157.219ZM32.223 163.088C32.2424 162.674 32.3912 162.277 32.6484 161.952C32.9056 161.627 33.2582 161.391 33.6566 161.278C33.7614 161.259 33.8676 161.25 33.974 161.25C34.3868 161.248 34.7867 161.395 35.101 161.662C35.2959 161.826 35.4527 162.031 35.5601 162.262C35.6676 162.493 35.7232 162.745 35.723 163L35.722 172.493C33.4883 169.866 32.2497 166.537 32.223 163.088ZM106.223 159.088C106.242 158.674 106.391 158.277 106.648 157.952C106.906 157.627 107.258 157.391 107.657 157.278C107.761 157.259 107.868 157.25 107.974 157.25C108.387 157.248 108.787 157.395 109.101 157.662C109.296 157.826 109.453 158.031 109.56 158.262C109.668 158.493 109.723 158.745 109.723 159L109.722 168.494C107.488 165.867 106.249 162.537 106.223 159.088ZM184.223 163.088C184.242 162.674 184.391 162.277 184.648 161.952C184.905 161.627 185.257 161.391 185.656 161.278C185.76 161.259 185.867 161.25 185.973 161.25C186.386 161.248 186.786 161.395 187.1 161.662C187.295 161.826 187.452 162.031 187.559 162.262C187.667 162.493 187.722 162.745 187.722 163V172.493C185.488 169.866 184.249 166.537 184.223 163.088ZM261.161 148.75C261.05 148.751 260.939 148.726 260.838 148.678C260.737 148.631 260.648 148.561 260.577 148.475C260.507 148.392 260.456 148.295 260.428 148.19C260.4 148.086 260.396 147.976 260.415 147.869C260.922 145.169 262.355 142.73 264.468 140.974C266.581 139.218 269.24 138.255 271.988 138.25C272.171 138.25 272.357 138.255 272.542 138.264C278.075 138.525 282.826 143.168 283.61 148.75H261.161ZM258.223 159.088C258.242 158.674 258.391 158.277 258.648 157.952C258.905 157.627 259.257 157.391 259.656 157.278C259.76 157.259 259.867 157.25 259.973 157.25C260.386 157.248 260.786 157.395 261.1 157.662C261.295 157.826 261.452 158.031 261.559 158.262C261.667 158.493 261.722 158.745 261.722 159V168.493C259.488 165.866 258.249 162.537 258.223 159.088Z" fill="white"/>
<path d="M202.96 166.75H201.96C201.628 166.75 201.31 166.882 201.076 167.116C200.841 167.351 200.71 167.669 200.71 168C200.71 168.332 200.841 168.65 201.076 168.884C201.31 169.118 201.628 169.25 201.96 169.25H202.96C203.516 169.276 204.071 169.186 204.591 168.987C205.111 168.788 205.585 168.484 205.982 168.094C206.816 167.194 206.673 166.029 206.145 164.605L204.145 158.605C204.094 158.449 204.012 158.305 203.905 158.18C203.798 158.056 203.667 157.954 203.52 157.88C203.374 157.807 203.214 157.762 203.05 157.75C202.887 157.738 202.722 157.759 202.566 157.81C202.411 157.862 202.266 157.943 202.142 158.05C202.018 158.158 201.916 158.288 201.842 158.435C201.768 158.581 201.724 158.741 201.712 158.905C201.7 159.069 201.72 159.233 201.772 159.389L203.774 165.396C204.086 166.33 204.069 166.417 203.93 166.587C203.79 166.756 203.348 166.75 202.96 166.75Z" fill="white"/>
<path d="M276.981 162.788H275.981C275.65 162.788 275.332 162.919 275.097 163.154C274.863 163.388 274.731 163.706 274.731 164.038C274.731 164.369 274.863 164.687 275.097 164.922C275.332 165.156 275.65 165.288 275.981 165.288H276.981C277.537 165.313 278.093 165.224 278.613 165.025C279.133 164.826 279.606 164.522 280.004 164.132C280.837 163.232 280.695 162.067 280.167 160.642L278.167 154.642C278.116 154.486 278.034 154.342 277.927 154.217C277.82 154.092 277.689 153.99 277.542 153.916C277.396 153.842 277.236 153.798 277.072 153.786C276.908 153.773 276.743 153.794 276.587 153.845C276.431 153.897 276.287 153.979 276.162 154.086C276.038 154.193 275.936 154.324 275.862 154.471C275.789 154.618 275.745 154.778 275.733 154.942C275.721 155.106 275.742 155.27 275.793 155.426L275.796 155.433L277.796 161.433C278.107 162.368 278.09 162.455 277.951 162.624C277.812 162.794 277.369 162.788 276.981 162.788Z" fill="white"/>
</g>
<defs>
<clipPath id="clip0_4_113">
<rect width="320" height="320" fill="white"/>
</clipPath>
</defs>
</svg>
