<svg width="320" height="320" viewBox="0 0 320 320" fill="none" xmlns="http://www.w3.org/2000/svg">
<path d="M51.0003 166.75H50.0003C49.6688 166.75 49.3509 166.882 49.1164 167.116C48.882 167.351 48.7503 167.669 48.7503 168C48.7503 168.332 48.882 168.65 49.1164 168.884C49.3509 169.118 49.6688 169.25 50.0003 169.25H51.0003C51.5565 169.276 52.112 169.186 52.6321 168.987C53.1521 168.788 53.6255 168.484 54.0228 168.094C54.8564 167.194 54.7137 166.029 54.1859 164.605L52.1859 158.605C52.0819 158.29 51.8571 158.029 51.5611 157.88C51.265 157.731 50.9218 157.706 50.6071 157.81C50.2924 157.914 50.0318 158.139 49.8828 158.435C49.7338 158.731 49.7085 159.074 49.8125 159.389L49.8148 159.396L51.8148 165.396C52.1263 166.33 52.1092 166.417 51.9702 166.587C51.8311 166.756 51.3882 166.75 51.0003 166.75Z" fill="url(#paint0_linear_3240_707)"/>
<path d="M124.972 162.788H123.972C123.641 162.788 123.323 162.919 123.088 163.154C122.854 163.388 122.722 163.706 122.722 164.038C122.722 164.369 122.854 164.687 123.088 164.922C123.323 165.156 123.641 165.288 123.972 165.288H124.972C125.528 165.313 126.084 165.224 126.604 165.025C127.124 164.826 127.597 164.522 127.995 164.132C128.828 163.232 128.686 162.067 128.158 160.642L126.158 154.642C126.106 154.486 126.025 154.342 125.918 154.217C125.811 154.092 125.68 153.99 125.533 153.916C125.386 153.842 125.227 153.798 125.063 153.786C124.899 153.773 124.734 153.794 124.578 153.845C124.422 153.897 124.278 153.979 124.153 154.086C124.029 154.193 123.927 154.324 123.853 154.471C123.78 154.618 123.736 154.778 123.724 154.942C123.712 155.106 123.732 155.27 123.784 155.426L123.787 155.433L125.787 161.433C126.098 162.368 126.081 162.455 125.942 162.624C125.803 162.794 125.36 162.788 124.972 162.788Z" fill="url(#paint1_linear_3240_707)"/>
<path d="M51.0003 138.75H43.0003C39.69 138.755 36.5011 139.998 34.0603 142.234C31.6195 144.47 30.1033 147.538 29.8094 150.836C27.5832 151.126 25.5385 152.216 24.056 153.902C22.5734 155.588 21.754 157.755 21.7503 160V169C21.7491 169.994 21.3536 170.947 20.6506 171.65C19.9476 172.353 18.9945 172.749 18.0003 172.75C17.6688 172.75 17.3509 172.882 17.1164 173.116C16.882 173.351 16.7503 173.669 16.7503 174C16.7503 174.332 16.882 174.65 17.1164 174.884C17.3509 175.118 17.6688 175.25 18.0003 175.25C19.6574 175.248 21.246 174.589 22.4177 173.418C23.5894 172.246 24.2485 170.657 24.2503 169V160C24.2524 158.211 24.9643 156.495 26.2297 155.229C27.4951 153.964 29.2108 153.252 31.0003 153.25C31.1645 153.25 31.327 153.218 31.4787 153.155C31.6303 153.092 31.7681 153 31.8842 152.884C32.0002 152.768 32.0923 152.63 32.1551 152.479C32.218 152.327 32.2503 152.164 32.2503 152C32.2535 149.15 33.3871 146.418 35.4024 144.402C37.4178 142.387 40.1502 141.253 43.0003 141.25H51.0003C56.7826 141.25 57.7425 144.156 57.7923 144.322C57.8772 144.641 58.0847 144.913 58.3695 145.08C58.6544 145.246 58.9935 145.294 59.3129 145.211C59.6323 145.129 59.9062 144.923 60.0749 144.64C60.2435 144.356 60.2932 144.017 60.2132 143.697C60.1624 143.495 58.8861 138.75 51.0003 138.75Z" fill="url(#paint2_linear_3240_707)"/>
<path d="M112.06 143.177C110.382 145.094 108.933 146.75 106 146.75C105.669 146.75 105.351 146.882 105.116 147.116C104.882 147.351 104.75 147.669 104.75 148C104.75 148.332 104.882 148.65 105.116 148.884C105.351 149.118 105.669 149.25 106 149.25C110.068 149.25 112.125 146.899 113.941 144.823C115.618 142.906 117.068 141.25 120 141.25C120.332 141.25 120.65 141.118 120.884 140.884C121.119 140.65 121.25 140.332 121.25 140C121.25 139.669 121.119 139.351 120.884 139.116C120.65 138.882 120.332 138.75 120 138.75C115.933 138.75 113.875 141.102 112.06 143.177Z" fill="url(#paint3_linear_3240_707)"/>
<path d="M194 133.25C198.158 133.247 202.199 134.627 205.486 137.173C208.774 139.718 211.121 143.285 212.159 147.312C212.199 147.471 212.271 147.621 212.369 147.752C212.468 147.884 212.592 147.994 212.733 148.078C212.875 148.162 213.031 148.217 213.194 148.24C213.357 148.263 213.522 148.254 213.681 148.213C213.841 148.172 213.99 148.1 214.122 148.001C214.253 147.903 214.364 147.779 214.447 147.637C214.531 147.496 214.585 147.339 214.608 147.176C214.631 147.013 214.622 146.848 214.58 146.689C213.809 143.701 212.396 140.917 210.44 138.53C208.483 136.144 206.031 134.212 203.253 132.869C200.475 131.526 197.437 130.804 194.352 130.753C191.266 130.703 188.207 131.324 185.386 132.576C182.566 133.827 180.051 135.677 178.018 137.998C175.984 140.319 174.48 143.055 173.611 146.016C172.742 148.977 172.528 152.091 172.984 155.143C173.44 158.195 174.555 161.111 176.251 163.689C176.434 163.965 176.719 164.157 177.043 164.223C177.368 164.289 177.705 164.223 177.981 164.041C178.258 163.859 178.45 163.574 178.517 163.25C178.584 162.926 178.519 162.588 178.337 162.312C176.477 159.484 175.417 156.206 175.268 152.825C175.12 149.444 175.89 146.086 177.495 143.106C179.101 140.127 181.483 137.638 184.389 135.903C187.295 134.167 190.616 133.251 194 133.25Z" fill="url(#paint4_linear_3240_707)"/>
<path d="M312.154 157.219C311.47 147.799 307.419 138.939 300.74 132.26C294.061 125.581 285.202 121.53 275.782 120.846C270.399 120.444 264.992 121.166 259.904 122.966C254.815 124.766 250.157 127.605 246.224 131.302C240.778 136.4 236.891 142.94 235.016 150.161C232.835 141.742 227.92 134.286 221.043 128.962C214.165 123.639 205.715 120.75 197.018 120.749C188.321 120.748 179.87 123.635 172.992 128.957C166.113 134.278 161.196 141.734 159.013 150.152C156.83 141.734 151.914 134.28 145.037 128.958C138.16 123.636 129.71 120.749 121.014 120.749C112.318 120.748 103.868 123.635 96.9905 128.956C90.1127 134.278 85.1964 141.732 83.013 150.149C81.5352 144.445 78.7924 139.147 74.988 134.648C71.1836 130.148 66.4152 126.563 61.0364 124.157C55.6576 121.752 49.8063 120.588 43.9163 120.752C38.0263 120.915 32.2488 122.403 27.012 125.104C21.7753 127.805 17.2137 131.65 13.6654 136.354C10.1171 141.058 7.67311 146.5 6.51471 152.278C5.35632 158.055 5.51318 164.019 6.97367 169.727C8.43417 175.436 11.1608 180.742 14.9515 185.253C16.6604 187.341 18.9847 188.837 21.5932 189.527C24.2018 190.218 26.9617 190.067 29.4798 189.098C31.8259 188.265 33.8878 186.784 35.4267 184.827C36.9657 182.87 37.9186 180.517 38.1751 178.04C41.3093 180.106 44.9749 181.221 48.7288 181.248C50.2232 181.267 51.7067 180.991 53.0944 180.436C54.4821 179.881 55.747 179.058 56.8168 178.015C57.8866 176.971 58.7403 175.727 59.3293 174.354C59.9183 172.98 60.2309 171.504 60.2495 170.009C60.25 169.964 60.2503 169.919 60.2503 169.873V156C60.2476 153.548 59.2722 151.197 57.5381 149.462C55.8039 147.728 53.4527 146.753 51.0003 146.75C46.9329 146.75 44.8753 149.102 43.0599 151.177C41.3822 153.094 39.9329 154.75 37.0003 154.75C36.6688 154.75 36.3509 154.882 36.1164 155.116C35.882 155.351 35.7503 155.669 35.7503 156C35.7503 156.332 35.882 156.65 36.1164 156.884C36.3509 157.118 36.6688 157.25 37.0003 157.25C41.0677 157.25 43.1253 154.899 44.9408 152.823C46.6185 150.906 48.0678 149.25 51.0003 149.25C52.7899 149.252 54.5056 149.964 55.771 151.23C57.0364 152.495 57.7482 154.211 57.7503 156V169.873C57.7537 171.049 57.5218 172.213 57.0683 173.298C56.6148 174.382 55.9489 175.365 55.1097 176.189C54.2804 177.024 53.2898 177.681 52.1982 178.122C51.1066 178.562 49.9368 178.775 48.7601 178.748C44.934 178.647 41.2447 177.304 38.2494 174.921L38.2504 163C38.2501 162.38 38.1142 161.767 37.8521 161.205C37.5901 160.643 37.2083 160.145 36.7335 159.746C36.2587 159.347 35.7024 159.057 35.1036 158.896C34.5048 158.734 33.8779 158.706 33.267 158.813C32.2795 159.021 31.3927 159.56 30.7532 160.34C30.1137 161.121 29.7599 162.097 29.7504 163.106C29.8773 167.688 31.7297 172.053 34.9369 175.327C35.2006 175.604 35.4714 175.871 35.7494 176.128V176.609C35.7763 178.833 35.1026 181.009 33.8236 182.829C32.5446 184.649 30.7253 186.021 28.6234 186.749C26.5854 187.531 24.3532 187.652 22.2428 187.094C20.1324 186.537 18.2509 185.33 16.8646 183.644C11.4821 177.239 8.44592 169.19 8.25781 160.826C8.06971 152.462 10.7409 144.284 15.8301 137.644C20.9192 131.003 28.1216 126.298 36.2469 124.306C44.3723 122.313 52.9343 123.153 60.5179 126.686C68.1016 130.218 74.2529 136.233 77.9554 143.735C81.6579 151.237 82.6899 159.778 80.8809 167.946C79.0718 176.114 74.53 183.421 68.006 188.658C61.4821 193.895 53.3664 196.75 45.0003 196.75C44.6688 196.75 44.3509 196.882 44.1165 197.116C43.882 197.351 43.7503 197.669 43.7503 198C43.7503 198.332 43.882 198.65 44.1165 198.884C44.3509 199.118 44.6688 199.25 45.0003 199.25C53.6988 199.239 62.148 196.344 69.0253 191.018C75.9026 185.692 80.8197 178.236 83.0069 169.817C84.3981 175.231 86.9333 180.284 90.4417 184.635C92.0315 186.611 94.1953 188.046 96.6346 188.74C99.074 189.435 101.669 189.356 104.061 188.514C106.454 187.672 108.526 186.109 109.993 184.039C111.459 181.97 112.248 179.496 112.249 176.96V174.089C115.368 176.124 119.005 177.221 122.729 177.248C125.747 177.286 128.656 176.122 130.817 174.015C132.977 171.907 134.212 169.028 134.249 166.009C134.25 165.964 134.25 165.919 134.25 165.873V152C134.248 149.548 133.272 147.197 131.538 145.462C129.804 143.728 127.453 142.753 125 142.75C120.933 142.75 118.875 145.102 117.06 147.177C115.382 149.094 113.933 150.75 111 150.75C110.669 150.75 110.351 150.882 110.116 151.116C109.882 151.351 109.75 151.669 109.75 152C109.75 152.332 109.882 152.65 110.116 152.884C110.351 153.118 110.669 153.25 111 153.25C115.068 153.25 117.125 150.899 118.941 148.823C120.618 146.906 122.068 145.25 125 145.25C126.79 145.252 128.506 145.964 129.771 147.229C131.036 148.495 131.748 150.211 131.75 152V165.873C131.754 167.049 131.522 168.213 131.068 169.298C130.615 170.382 129.949 171.365 129.11 172.189C128.28 173.023 127.29 173.681 126.198 174.121C125.106 174.561 123.937 174.774 122.76 174.748C118.934 174.647 115.245 173.304 112.249 170.921L112.25 159C112.25 158.38 112.114 157.767 111.852 157.205C111.59 156.643 111.208 156.145 110.733 155.746C110.259 155.347 109.702 155.057 109.104 154.896C108.505 154.734 107.878 154.706 107.267 154.813C106.279 155.021 105.393 155.56 104.753 156.34C104.114 157.121 103.76 158.097 103.75 159.106C103.877 163.688 105.73 168.053 108.937 171.327C109.201 171.604 109.471 171.871 109.749 172.128V176.96C109.748 178.979 109.12 180.948 107.952 182.595C106.784 184.243 105.133 185.487 103.229 186.157C101.324 186.826 99.2578 186.889 97.316 186.335C95.3742 185.781 93.652 184.638 92.387 183.065C87.1564 176.576 84.2863 168.503 84.2477 160.169C84.2091 151.835 87.0042 143.735 92.1744 137.199C97.3446 130.663 104.583 126.077 112.702 124.196C120.821 122.314 129.338 123.248 136.856 126.844C144.375 130.44 150.448 136.485 154.079 143.986C157.71 151.488 158.683 160 156.84 168.128C154.996 176.256 150.445 183.515 143.933 188.716C137.421 193.917 129.334 196.75 121 196.75C120.669 196.75 120.351 196.882 120.116 197.116C119.882 197.351 119.75 197.669 119.75 198C119.75 198.332 119.882 198.65 120.116 198.884C120.351 199.118 120.669 199.25 121 199.25C129.697 199.239 138.146 196.345 145.022 191.02C151.899 185.696 156.817 178.241 159.005 169.824C160.464 175.497 163.18 180.77 166.951 185.253C168.659 187.341 170.984 188.837 173.592 189.528C176.201 190.218 178.961 190.067 181.479 189.098C183.825 188.265 185.887 186.784 187.426 184.827C188.966 182.87 189.919 180.517 190.175 178.04C193.309 180.106 196.975 181.221 200.729 181.248C202.223 181.267 203.706 180.991 205.094 180.436C206.481 179.882 207.746 179.059 208.816 178.016C209.886 176.972 210.739 175.728 211.328 174.355C211.917 172.982 212.23 171.506 212.249 170.012C212.249 169.966 212.249 169.919 212.249 169.873V156C212.247 153.548 211.271 151.197 209.537 149.462C207.803 147.728 205.452 146.753 202.999 146.75H201C198.548 146.753 196.197 147.728 194.463 149.462C192.729 151.197 191.753 153.548 191.75 156C191.75 156.332 191.882 156.65 192.117 156.884C192.351 157.118 192.669 157.25 193 157.25C193.332 157.25 193.65 157.118 193.884 156.884C194.119 156.65 194.25 156.332 194.25 156C194.253 154.211 194.964 152.495 196.23 151.23C197.495 149.964 199.211 149.252 201 149.25H202.999C204.789 149.252 206.505 149.964 207.77 151.23C209.035 152.495 209.747 154.211 209.749 156V169.873C209.749 172.226 208.814 174.483 207.15 176.147C205.487 177.812 203.231 178.747 200.877 178.749C200.838 178.749 200.799 178.749 200.76 178.748C196.934 178.647 193.245 177.304 190.249 174.921V163C190.249 162.38 190.113 161.767 189.851 161.205C189.589 160.643 189.207 160.145 188.733 159.746C188.258 159.347 187.701 159.057 187.103 158.896C186.504 158.734 185.877 158.706 185.266 158.813C184.279 159.021 183.392 159.56 182.753 160.34C182.113 161.121 181.76 162.097 181.75 163.106C181.877 167.688 183.73 172.053 186.937 175.327C187.201 175.604 187.471 175.871 187.749 176.128V176.609C187.776 178.833 187.102 181.009 185.823 182.829C184.544 184.65 182.724 186.021 180.622 186.749C178.585 187.531 176.352 187.651 174.242 187.094C172.132 186.537 170.251 185.33 168.865 183.644C163.482 177.239 160.446 169.19 160.258 160.826C160.07 152.462 162.741 144.284 167.83 137.644C172.919 131.003 180.122 126.298 188.247 124.306C196.372 122.313 204.934 123.153 212.518 126.686C220.102 130.218 226.253 136.233 229.955 143.735C233.658 151.237 234.69 159.778 232.881 167.946C231.072 176.114 226.53 183.421 220.006 188.658C213.482 193.895 205.366 196.75 197 196.75C196.669 196.75 196.351 196.882 196.116 197.116C195.882 197.351 195.75 197.669 195.75 198C195.75 198.332 195.882 198.65 196.116 198.884C196.351 199.118 196.669 199.25 197 199.25C205.698 199.239 214.146 196.345 221.023 191.019C227.9 185.694 232.818 178.24 235.006 169.822C236.405 175.244 238.949 180.305 242.465 184.663C244.058 186.633 246.223 188.062 248.661 188.751C251.099 189.44 253.691 189.356 256.08 188.512C258.469 187.667 260.537 186.103 262 184.034C263.463 181.965 264.249 179.494 264.249 176.96V174.09C267.368 176.124 271.005 177.22 274.728 177.248C276.233 177.265 277.728 176.984 279.124 176.421C280.521 175.858 281.792 175.024 282.865 173.968C283.94 172.913 284.794 171.653 285.375 170.263C285.956 168.872 286.254 167.38 286.249 165.873L286.25 151.25H294C294.332 151.25 294.65 151.118 294.884 150.884C295.119 150.65 295.25 150.332 295.25 150C295.25 149.669 295.119 149.351 294.884 149.116C294.65 148.882 294.332 148.75 294 148.75H286.156C285.351 141.87 279.51 136.088 272.687 135.766C269.244 135.616 265.863 136.711 263.163 138.851C260.462 140.992 258.624 144.033 257.984 147.419C257.899 147.888 257.919 148.37 258.041 148.83C258.163 149.29 258.385 149.718 258.691 150.084C258.997 150.449 259.379 150.743 259.81 150.944C260.242 151.146 260.712 151.25 261.189 151.25H283.75L283.749 165.873C283.753 167.049 283.521 168.213 283.067 169.298C282.614 170.382 281.948 171.365 281.109 172.189C280.281 173.026 279.291 173.686 278.199 174.126C277.107 174.566 275.936 174.778 274.759 174.748C270.933 174.647 267.244 173.304 264.249 170.921V159C264.249 158.38 264.113 157.767 263.851 157.205C263.589 156.643 263.207 156.145 262.732 155.746C262.258 155.347 261.701 155.057 261.103 154.896C260.504 154.734 259.877 154.706 259.266 154.813C258.279 155.021 257.392 155.56 256.753 156.34C256.113 157.121 255.76 158.097 255.75 159.106C255.877 163.687 257.729 168.052 260.936 171.327C261.201 171.604 261.472 171.871 261.749 172.129V176.96C261.749 178.977 261.123 180.944 259.959 182.591C258.794 184.238 257.148 185.483 255.246 186.155C253.344 186.828 251.281 186.894 249.34 186.345C247.4 185.796 245.676 184.659 244.408 183.091C239.171 176.606 236.293 168.534 236.247 160.198C236.202 151.862 238.992 143.759 244.158 137.217C249.325 130.676 256.562 126.085 264.681 124.199C272.801 122.312 281.321 123.242 288.842 126.835C296.364 130.428 302.44 136.472 306.075 143.973C309.709 151.475 310.685 159.99 308.843 168.119C307.001 176.249 302.45 183.511 295.937 188.713C289.424 193.916 281.336 196.75 273 196.75C272.669 196.75 272.351 196.882 272.116 197.116C271.882 197.351 271.75 197.669 271.75 198C271.75 198.332 271.882 198.65 272.116 198.884C272.351 199.118 272.669 199.25 273 199.25C278.382 199.242 283.706 198.13 288.642 195.985C293.578 193.839 298.022 190.705 301.7 186.775C305.395 182.842 308.233 178.184 310.033 173.096C311.832 168.008 312.555 162.601 312.154 157.219ZM32.2503 163.088C32.2698 162.674 32.4186 162.277 32.6758 161.952C32.933 161.627 33.2856 161.391 33.6839 161.278C33.7887 161.259 33.8949 161.25 34.0013 161.25C34.4142 161.248 34.814 161.395 35.1283 161.662C35.3233 161.826 35.48 162.031 35.5875 162.262C35.6949 162.493 35.7505 162.745 35.7504 163L35.7494 172.493C33.5157 169.866 32.2771 166.537 32.2503 163.088ZM106.25 159.088C106.27 158.674 106.419 158.277 106.676 157.952C106.933 157.627 107.286 157.391 107.684 157.278C107.789 157.259 107.895 157.25 108.001 157.25C108.414 157.248 108.814 157.395 109.128 157.662C109.323 157.826 109.48 158.031 109.587 158.262C109.695 158.493 109.751 158.745 109.75 159L109.749 168.494C107.515 165.867 106.277 162.537 106.25 159.088ZM184.25 163.088C184.27 162.674 184.418 162.277 184.675 161.952C184.932 161.627 185.285 161.391 185.683 161.278C185.788 161.259 185.894 161.25 186 161.25C186.413 161.248 186.813 161.395 187.127 161.662C187.322 161.826 187.479 162.031 187.586 162.262C187.694 162.493 187.75 162.745 187.749 163V172.493C185.515 169.866 184.277 166.537 184.25 163.088ZM261.189 148.75C261.077 148.751 260.967 148.726 260.866 148.678C260.765 148.631 260.676 148.561 260.605 148.475C260.534 148.392 260.483 148.295 260.455 148.19C260.427 148.086 260.423 147.976 260.443 147.869C260.949 145.169 262.383 142.73 264.495 140.974C266.608 139.218 269.268 138.255 272.015 138.25C272.199 138.25 272.384 138.255 272.57 138.264C278.103 138.525 282.853 143.168 283.637 148.75H261.189ZM258.25 159.088C258.27 158.674 258.418 158.277 258.675 157.952C258.932 157.627 259.285 157.391 259.683 157.278C259.788 157.259 259.894 157.25 260 157.25C260.413 157.248 260.813 157.395 261.127 157.662C261.322 157.826 261.479 158.031 261.586 158.262C261.694 158.493 261.75 158.745 261.749 159V168.493C259.515 165.866 258.277 162.537 258.25 159.088Z" fill="url(#paint5_linear_3240_707)"/>
<path d="M202.987 166.75H201.987C201.655 166.75 201.338 166.882 201.103 167.116C200.869 167.351 200.737 167.669 200.737 168C200.737 168.332 200.869 168.65 201.103 168.884C201.338 169.118 201.655 169.25 201.987 169.25H202.987C203.543 169.276 204.099 169.186 204.619 168.987C205.139 168.788 205.612 168.484 206.009 168.094C206.843 167.194 206.7 166.029 206.173 164.605L204.173 158.605C204.121 158.449 204.039 158.305 203.932 158.18C203.825 158.056 203.694 157.954 203.548 157.88C203.401 157.807 203.241 157.762 203.078 157.75C202.914 157.738 202.75 157.759 202.594 157.81C202.438 157.862 202.294 157.943 202.17 158.05C202.045 158.158 201.943 158.288 201.87 158.435C201.796 158.581 201.752 158.741 201.739 158.905C201.727 159.069 201.748 159.233 201.799 159.389L203.801 165.396C204.113 166.33 204.096 166.417 203.957 166.587C203.818 166.756 203.375 166.75 202.987 166.75Z" fill="url(#paint6_linear_3240_707)"/>
<path d="M277.009 162.788H276.009C275.677 162.788 275.359 162.919 275.125 163.154C274.89 163.388 274.759 163.706 274.759 164.038C274.759 164.369 274.89 164.687 275.125 164.922C275.359 165.156 275.677 165.288 276.009 165.288H277.009C277.565 165.313 278.12 165.224 278.64 165.025C279.16 164.826 279.634 164.522 280.031 164.132C280.865 163.232 280.722 162.067 280.194 160.642L278.194 154.642C278.143 154.486 278.061 154.342 277.954 154.217C277.847 154.092 277.716 153.99 277.57 153.916C277.423 153.842 277.263 153.798 277.099 153.786C276.935 153.773 276.771 153.794 276.615 153.845C276.459 153.897 276.314 153.979 276.19 154.086C276.065 154.193 275.963 154.324 275.89 154.471C275.816 154.618 275.772 154.778 275.76 154.942C275.748 155.106 275.769 155.27 275.821 155.426L275.823 155.433L277.823 161.433C278.135 162.368 278.117 162.455 277.978 162.624C277.839 162.794 277.396 162.788 277.009 162.788Z" fill="url(#paint7_linear_3240_707)"/>
<defs>
<linearGradient id="paint0_linear_3240_707" x1="159.005" y1="120.736" x2="159.005" y2="199.25" gradientUnits="userSpaceOnUse">
<stop stop-color="#F55868"/>
<stop offset="1" stop-color="#875AE0"/>
</linearGradient>
<linearGradient id="paint1_linear_3240_707" x1="159.005" y1="120.736" x2="159.005" y2="199.25" gradientUnits="userSpaceOnUse">
<stop stop-color="#F55868"/>
<stop offset="1" stop-color="#875AE0"/>
</linearGradient>
<linearGradient id="paint2_linear_3240_707" x1="159.005" y1="120.736" x2="159.005" y2="199.25" gradientUnits="userSpaceOnUse">
<stop stop-color="#F55868"/>
<stop offset="1" stop-color="#875AE0"/>
</linearGradient>
<linearGradient id="paint3_linear_3240_707" x1="159.005" y1="120.736" x2="159.005" y2="199.25" gradientUnits="userSpaceOnUse">
<stop stop-color="#F55868"/>
<stop offset="1" stop-color="#875AE0"/>
</linearGradient>
<linearGradient id="paint4_linear_3240_707" x1="159.005" y1="120.736" x2="159.005" y2="199.25" gradientUnits="userSpaceOnUse">
<stop stop-color="#F55868"/>
<stop offset="1" stop-color="#875AE0"/>
</linearGradient>
<linearGradient id="paint5_linear_3240_707" x1="159.005" y1="120.736" x2="159.005" y2="199.25" gradientUnits="userSpaceOnUse">
<stop stop-color="#F55868"/>
<stop offset="1" stop-color="#875AE0"/>
</linearGradient>
<linearGradient id="paint6_linear_3240_707" x1="159.005" y1="120.736" x2="159.005" y2="199.25" gradientUnits="userSpaceOnUse">
<stop stop-color="#F55868"/>
<stop offset="1" stop-color="#875AE0"/>
</linearGradient>
<linearGradient id="paint7_linear_3240_707" x1="159.005" y1="120.736" x2="159.005" y2="199.25" gradientUnits="userSpaceOnUse">
<stop stop-color="#F55868"/>
<stop offset="1" stop-color="#875AE0"/>
</linearGradient>
</defs>
</svg>
