<svg width="320" height="320" viewBox="0 0 320 320" fill="none" xmlns="http://www.w3.org/2000/svg">
<path d="M47.6443 183.5V230.199C47.6443 240.099 55.6443 248.199 64.6443 248.199L286.644 248.099C295.644 248.099 303.644 239.999 303.644 230.099V74.0991C303.644 64.1991 295.544 56.0991 285.644 56.0991H65.6443C55.7443 56.0991 47.6443 64.1991 47.6443 74.0991L47.9912 83C24.2117 83 5 102.424 5 126.467C5 151.325 25.5552 171.293 50.2751 169.935C70.6959 168.984 87.758 153.091 90.5793 132.716C93.3585 112.578 82.0645 94.6602 65.6443 87.2259M225 153C225 180.614 202.614 203 175 203C147.386 203 125 180.614 125 153C125 125.386 147.386 103 175 103M58.739 121.17L68.6807 114.378C69.6211 113.835 70.8303 114.378 70.8303 115.465V137.334C70.8303 138.421 69.4868 139.1 68.6807 138.421L58.739 130.678V121.17ZM53.3651 142.903H31.8695C28.9138 142.903 26.4956 140.458 26.4956 137.47V115.736C26.4956 112.748 28.9138 110.303 31.8695 110.303H53.3651C56.3207 110.303 58.739 112.748 58.739 115.736V137.47C58.739 140.594 56.4551 142.903 53.3651 142.903ZM180.143 93H179C176.791 93 175 94.7909 175 97V149C175 151.209 176.791 153 179 153H231C233.209 153 235 151.209 235 149V147.857C235 117.56 210.44 93 180.143 93Z" stroke="url(#paint0_linear_3240_2379)" stroke-width="2.5" stroke-miterlimit="10" stroke-linecap="round" stroke-linejoin="round"/>
<defs>
<linearGradient id="paint0_linear_3240_2379" x1="154.322" y1="56.0991" x2="154.322" y2="248.199" gradientUnits="userSpaceOnUse">
<stop stop-color="#3CC29A"/>
<stop offset="1" stop-color="#93C437"/>
</linearGradient>
</defs>
</svg>
