<svg width="32" height="32" viewBox="0 0 32 32" fill="none" xmlns="http://www.w3.org/2000/svg">
<path d="M9.586 27.9999H5C4.73478 27.9999 4.48044 27.8946 4.29291 27.707C4.10537 27.5195 4 27.2651 4 26.9999V22.4149C4.00006 22.1497 4.10545 21.8954 4.293 21.7079L20.757 5.24292C21.1509 4.84888 21.6186 4.53626 22.1334 4.323C22.6481 4.10974 23.1998 4 23.757 4C24.3142 4 24.8659 4.10974 25.3806 4.323C25.8954 4.53626 26.3631 4.84888 26.757 5.24292V5.24292C27.151 5.63684 27.4636 6.10452 27.6769 6.61926C27.8901 7.13401 27.9999 7.68574 27.9999 8.24292C27.9999 8.8001 27.8901 9.35183 27.6769 9.86658C27.4636 10.3813 27.151 10.849 26.757 11.2429L10.293 27.7079C10.1053 27.8951 9.85105 28.0001 9.586 27.9999V27.9999Z" stroke="#0F0F0F" stroke-linecap="round" stroke-linejoin="round"/>
<path d="M8 24L24 8" stroke="#3A3A3A" stroke-width="2" stroke-linecap="round" stroke-linejoin="round"/>
</svg>
