<svg width="32" height="32" viewBox="0 0 32 32" fill="none" xmlns="http://www.w3.org/2000/svg">
<path d="M29.0503 9.29816C28.7609 9.11766 28.4299 9.01476 28.0892 8.99936C27.7484 8.98397 27.4095 9.0566 27.105 9.21027C27.0745 9.22565 27.0448 9.2426 27.0161 9.26104L24.0015 11.1773V10.0003C23.9999 8.6747 23.4726 7.40384 22.5353 6.46649C21.5979 5.52915 20.3271 5.00186 19.0015 5.00031H7.00146C5.67586 5.00186 4.405 5.52915 3.46765 6.46649C2.53031 7.40384 2.00302 8.6747 2.00146 10.0003V22.0003C2.00302 23.3259 2.53031 24.5968 3.46765 25.5341C4.405 26.4715 5.67586 26.9987 7.00146 27.0003H19.0015C20.3271 26.9987 21.5979 26.4715 22.5353 25.5341C23.4726 24.5968 23.9999 23.3259 24.0015 22.0003V20.8213L27.0161 22.7376C27.0443 22.756 27.0737 22.7727 27.104 22.7874C27.4088 22.9401 27.7477 23.0124 28.0883 22.9973C28.429 22.9821 28.7601 22.8801 29.0502 22.7009C29.3402 22.5217 29.5797 22.2713 29.7457 21.9735C29.9117 21.6756 29.9987 21.3403 29.9985 20.9993V10.9993C29.9997 10.6582 29.9132 10.3225 29.7471 10.0246C29.581 9.72667 29.341 9.4765 29.0503 9.29816ZM22.0015 22.0003C22.0006 22.7957 21.6842 23.5582 21.1218 24.1207C20.5594 24.6831 19.7968 24.9994 19.0015 25.0003H7.00146C6.20608 24.9994 5.44353 24.6831 4.88111 24.1207C4.31869 23.5582 4.00234 22.7957 4.00146 22.0003V10.0003C4.00233 9.20492 4.31868 8.44236 4.8811 7.87994C5.44352 7.31752 6.20608 7.00117 7.00146 7.00031H19.0015C19.7968 7.00117 20.5594 7.31752 21.1218 7.87994C21.6842 8.44236 22.0006 9.20492 22.0015 10.0003V22.0003ZM24.0015 18.4522V13.5464L27.9985 11.0062L28.0005 20.9935L24.0015 18.4522Z" fill="#0F0F0F"/>
<path d="M9 14.0001C10.1046 14.0001 11 13.1046 11 12.0001C11 10.8955 10.1046 10.0001 9 10.0001C7.89543 10.0001 7 10.8955 7 12.0001C7 13.1046 7.89543 14.0001 9 14.0001Z" fill="#27A17A"/>
</svg>
