<svg width="32" height="32" viewBox="0 0 32 32" fill="none" xmlns="http://www.w3.org/2000/svg">
<path d="M28.9185 9.511C28.6533 9.34904 28.3501 9.26013 28.0394 9.25328C27.7288 9.24643 27.4219 9.32189 27.1499 9.472L23.7515 11.6321V10.0003C23.75 8.74096 23.2491 7.53361 22.3586 6.64312C21.4682 5.75263 20.2608 5.25173 19.0015 5.2503H7.00146C5.74213 5.25173 4.53477 5.75263 3.64429 6.64312C2.7538 7.53361 2.25289 8.74096 2.25146 10.0003V22.0003C2.25289 23.2596 2.7538 24.467 3.64429 25.3575C4.53477 26.248 5.74213 26.7489 7.00146 26.7503H19.0015C20.2608 26.7489 21.4682 26.248 22.3586 25.3575C23.2491 24.467 23.75 23.2596 23.7515 22.0003V20.3655L27.2163 22.5648C27.4831 22.6983 27.7796 22.7614 28.0777 22.7481C28.3757 22.7348 28.6654 22.6454 28.9192 22.4885C29.1729 22.3316 29.3824 22.1124 29.5275 21.8518C29.6727 21.5911 29.7488 21.2977 29.7485 20.9993V10.9993C29.7496 10.7009 29.6738 10.4071 29.5284 10.1465C29.383 9.8858 29.173 9.66695 28.9185 9.511ZM22.2515 22.0003C22.2505 22.8619 21.9077 23.688 21.2985 24.2973C20.6892 24.9066 19.8631 25.2493 19.0015 25.2503H7.00146C6.13982 25.2493 5.31375 24.9066 4.70447 24.2973C4.09519 23.688 3.75246 22.8619 3.75146 22.0003V10.0003C3.75246 9.13865 4.09519 8.31258 4.70447 7.7033C5.31374 7.09403 6.13982 6.7513 7.00146 6.7503H19.0015C19.8631 6.75129 20.6892 7.09402 21.2985 7.7033C21.9077 8.31258 22.2505 9.13865 22.2515 10.0003V22.0003ZM28.2485 20.9993C28.2492 21.0423 28.2386 21.0847 28.2177 21.1222C28.1968 21.1598 28.1663 21.1911 28.1294 21.2132C28.0864 21.2395 27.9946 21.2796 27.9546 21.261L23.7515 18.5894V13.409L27.8872 10.7757C27.9253 10.7566 27.9676 10.7475 28.0102 10.7494C28.0528 10.7513 28.0942 10.764 28.1304 10.7865C28.1667 10.8089 28.1965 10.8402 28.2172 10.8775C28.2379 10.9148 28.2487 10.9567 28.2485 10.9993V20.9993Z" fill="#0F0F0F"/>
<path d="M9 13.7501C9.9665 13.7501 10.75 12.9666 10.75 12.0001C10.75 11.0336 9.9665 10.2501 9 10.2501C8.0335 10.2501 7.25 11.0336 7.25 12.0001C7.25 12.9666 8.0335 13.7501 9 13.7501Z" fill="#27A17A"/>
</svg>
