<svg width="32" height="32" viewBox="0 0 32 32" fill="none" xmlns="http://www.w3.org/2000/svg">
<path d="M23 3H7C4.24 3 2 5.24 2 8V18C2 20.76 4.24 23 7 23H15C15.55 23 16 22.55 16 22C16 21.45 15.55 21 15 21H7C5.35 21 4 19.65 4 18V8C4 6.35 5.35 5 7 5H23C24.65 5 26 6.35 26 8V16C26 16.55 26.45 17 27 17C27.55 17 28 16.55 28 16V8C28 5.24 25.76 3 23 3Z" fill="black"/>
<path d="M19 9H9C8.45 9 8 9.45 8 10C8 10.55 8.45 11 9 11H19C19.55 11 20 10.55 20 10C20 9.45 19.55 9 19 9Z" fill="black"/>
<path d="M8 14C8 13.45 8.45 13 9 13H13C13.55 13 14 13.45 14 14C14 14.55 13.55 15 13 15H9C8.45 15 8 14.55 8 14Z" fill="black"/>
<path d="M21 21.5801L24.29 18.2901H24.31C24.7 17.9001 25.33 17.9001 25.72 18.2901C26.11 18.6801 26.11 19.3101 25.72 19.7001L21.72 23.7001C21.52 23.8901 21.27 23.9901 21.01 23.9901C20.75 23.9901 20.5 23.9001 20.3 23.7001L18.3 21.7001C17.91 21.3101 17.91 20.6801 18.3 20.2901C18.69 19.9001 19.32 19.9001 19.71 20.2901L21 21.5801Z" fill="#0353A8"/>
<path fill-rule="evenodd" clip-rule="evenodd" d="M14 21C14 16.59 17.59 13 22 13C26.41 13 30 16.59 30 21C30 25.41 26.41 29 22 29C17.59 29 14 25.41 14 21ZM16 21C16 24.31 18.69 27 22 27C25.31 27 28 24.31 28 21C28 17.69 25.31 15 22 15C18.69 15 16 17.69 16 21Z" fill="#0353A8"/>
</svg>
