<svg width="32" height="32" viewBox="0 0 32 32" fill="none" xmlns="http://www.w3.org/2000/svg">
<path d="M17.9993 23.7486C17.8007 23.7488 17.6101 23.6702 17.4694 23.53L2.46936 8.52999C2.32918 8.38926 2.25056 8.19866 2.25076 8.00003C2.25095 7.80139 2.32995 7.61094 2.47041 7.47049C2.61086 7.33003 2.80131 7.25104 2.99995 7.25084C3.19858 7.25065 3.38918 7.32927 3.52991 7.46946L5.24963 9.18918V7.99973C5.24963 6.47473 5.85543 5.0122 6.93377 3.93386C8.0121 2.85553 9.47464 2.24973 10.9996 2.24973C12.5246 2.24973 13.9872 2.85553 15.0655 3.93386C16.1438 5.0122 16.7496 6.47473 16.7496 7.99973V17.9997C16.7447 18.7627 16.5831 19.5165 16.2748 20.2144L18.5299 22.4695C18.6701 22.6102 18.7487 22.8008 18.7485 22.9994C18.7483 23.1981 18.6693 23.3885 18.5289 23.529C18.3884 23.6694 18.198 23.7484 17.9993 23.7486ZM7.99443 4.99452C7.1974 5.79155 6.74963 6.87256 6.74963 7.99973V10.6891L15.1026 19.0421C15.1962 18.7024 15.2456 18.3521 15.2496 17.9997V7.99973C15.2496 6.87256 14.8019 5.79155 14.0048 4.99452C13.2078 4.19749 12.1268 3.74973 10.9996 3.74973C9.87246 3.74973 8.79146 4.19749 7.99443 4.99452Z" fill="#DB1F2E"/>
<path d="M17.0211 28.2497H18.9996C19.1985 28.2497 19.3893 28.3287 19.53 28.4694C19.6706 28.61 19.7496 28.8008 19.7496 28.9997C19.7496 29.1986 19.6706 29.3894 19.53 29.5301C19.3893 29.6707 19.1985 29.7497 18.9996 29.7497H2.99963C2.80072 29.7497 2.60996 29.6707 2.4693 29.5301C2.32865 29.3894 2.24963 29.1986 2.24963 28.9997C2.24963 28.8008 2.32865 28.61 2.4693 28.4694C2.60996 28.3287 2.80072 28.2497 2.99963 28.2497H12.721C12.0329 27.6915 11.4629 27.0016 11.0445 26.2204C10.6261 25.4393 10.3676 24.5826 10.2842 23.7003C8.89518 23.5252 7.61768 22.8496 6.69094 21.8003C5.76419 20.7509 5.25177 19.3997 5.24963 17.9997V13.4526L6.74963 14.9525V17.9997C6.74844 18.7676 6.95563 19.5214 7.3491 20.1808C7.74258 20.8401 8.3076 21.3804 8.98394 21.7439C9.66028 22.1075 10.4226 22.2807 11.1896 22.2451C11.9567 22.2095 12.6997 21.9665 13.3394 21.5419L14.4034 22.6059C13.6436 23.175 12.754 23.5459 11.8149 23.6851C11.9525 24.9601 12.5639 26.1369 13.5282 26.9823C14.4925 27.8277 15.7391 28.2801 17.0211 28.2497Z" fill="#DB1F2E"/>
<path d="M24.5 8.25C24.9142 8.25 25.25 8.58578 25.25 9V12.75H29C29.4142 12.75 29.75 13.0858 29.75 13.5C29.75 13.9142 29.4142 14.25 29 14.25H25.25V18C25.25 18.4142 24.9142 18.75 24.5 18.75C24.0858 18.75 23.75 18.4142 23.75 18V14.25H20C19.5858 14.25 19.25 13.9142 19.25 13.5C19.25 13.0858 19.5858 12.75 20 12.75H23.75V9C23.75 8.58578 24.0858 8.25 24.5 8.25Z" fill="#DB1F2E"/>
</svg>
