<svg width="32" height="32" viewBox="0 0 32 32" fill="none" xmlns="http://www.w3.org/2000/svg">
<path d="M17.9995 23.9996C17.7343 23.9996 17.48 23.8943 17.2925 23.7068L2.29248 8.70679C2.10496 8.51927 1.99961 8.26495 1.99961 7.99976C1.9996 7.73457 2.10494 7.48025 2.29245 7.29273C2.47996 7.10521 2.73429 6.99986 2.99948 6.99985C3.26466 6.99984 3.51899 7.10518 3.70651 7.2927L4.99951 8.5857V7.99976C4.99951 6.40846 5.63165 4.88233 6.75687 3.75712C7.88209 2.6319 9.40821 1.99976 10.9995 1.99976C12.5908 1.99976 14.1169 2.6319 15.2422 3.75712C16.3674 4.88233 16.9995 6.40846 16.9995 7.99976V17.9998C16.9992 18.7432 16.8585 19.4798 16.5848 20.171L18.7065 22.2927C18.8941 22.4802 18.9994 22.7346 18.9994 22.9998C18.9994 23.2649 18.8941 23.5193 18.7065 23.7068C18.519 23.8943 18.2647 23.9996 17.9995 23.9996ZM8.17108 5.17133C7.42094 5.92147 6.99951 6.93889 6.99951 7.99976V10.5857L14.9508 18.5369C14.9797 18.3592 14.996 18.1797 14.9995 17.9998V7.99976C14.9995 6.93889 14.5781 5.92147 13.8279 5.17133C13.0778 4.42118 12.0604 3.99976 10.9995 3.99976C9.93865 3.99976 8.92123 4.42118 8.17108 5.17133Z" fill="#DB1F2E"/>
<path d="M17.021 27.9998H18.9995C19.2647 27.9998 19.5191 28.1051 19.7066 28.2926C19.8942 28.4802 19.9995 28.7345 19.9995 28.9998C19.9995 29.265 19.8942 29.5193 19.7066 29.7069C19.5191 29.8944 19.2647 29.9998 18.9995 29.9998H2.99951C2.7343 29.9998 2.47994 29.8944 2.2924 29.7069C2.10487 29.5193 1.99951 29.265 1.99951 28.9998C1.99951 28.7345 2.10487 28.4802 2.2924 28.2926C2.47994 28.1051 2.7343 27.9998 2.99951 27.9998H12.0649C10.9574 26.9038 10.2523 25.466 10.064 23.9193C8.65388 23.6959 7.36949 22.9773 6.44133 21.8925C5.51316 20.8076 5.00198 19.4275 4.99951 17.9998V14.2405L6.99951 16.2405V17.9998C6.99669 18.6529 7.15453 19.2967 7.45914 19.8745C7.76374 20.4522 8.20576 20.9462 8.74625 21.3129C9.28675 21.6796 9.90913 21.9077 10.5586 21.9772C11.208 22.0467 11.8646 21.9554 12.4704 21.7114L13.963 23.204C13.3805 23.539 12.7455 23.7731 12.0849 23.8964C12.2718 25.0619 12.875 26.12 13.7827 26.8746C14.6904 27.6292 15.841 28.0289 17.021 27.9998Z" fill="#DB1F2E"/>
<path d="M26.4999 6C27.0522 6 27.4999 6.44772 27.4999 7V8.5H28.9999C29.5522 8.5 29.9999 8.94772 29.9999 9.5C29.9999 10.0523 29.5522 10.5 28.9999 10.5H27.4999V12C27.4999 12.5523 27.0522 13 26.4999 13C25.9476 13 25.4999 12.5523 25.4999 12V10.5H23.9999C23.4476 10.5 22.9999 10.0523 22.9999 9.5C22.9999 8.94772 23.4476 8.5 23.9999 8.5H25.4999V7C25.4999 6.44772 25.9476 6 26.4999 6Z" fill="#DB1F2E"/>
<path d="M22.4999 13.5C23.0522 13.5 23.4999 13.9477 23.4999 14.5V16H24.9999C25.5522 16 25.9999 16.4477 25.9999 17C25.9999 17.5523 25.5522 18 24.9999 18H23.4999V19.5C23.4999 20.0523 23.0522 20.5 22.4999 20.5C21.9476 20.5 21.4999 20.0523 21.4999 19.5V18H19.9999C19.4476 18 18.9999 17.5523 18.9999 17C18.9999 16.4477 19.4476 16 19.9999 16H21.4999V14.5C21.4999 13.9477 21.9476 13.5 22.4999 13.5Z" fill="#DB1F2E"/>
</svg>
