<svg width="32" height="32" viewBox="0 0 32 32" fill="none" xmlns="http://www.w3.org/2000/svg">
<path fill-rule="evenodd" clip-rule="evenodd" d="M25.6374 8.01924C25.4865 7.97614 25.3242 8.00635 25.1989 8.10083C25.0736 8.19531 25 8.34311 25 8.5V14.2639C24.4692 13.7889 23.7684 13.5 23 13.5C21.3431 13.5 20 14.8432 20 16.5C20 18.1569 21.3431 19.5 23 19.5C24.6569 19.5 26 18.1569 26 16.5V9.16287L28.8626 9.98077C29.1282 10.0566 29.4049 9.90288 29.4808 9.63736C29.5566 9.37185 29.4029 9.0951 29.1374 9.01924L25.6374 8.01924ZM25 16.5C25 15.3954 24.1046 14.5 23 14.5C21.8954 14.5 21 15.3954 21 16.5C21 17.6046 21.8954 18.5 23 18.5C24.1046 18.5 25 17.6046 25 16.5Z" fill="#0F0F0F"/>
<path d="M19.0024 28.5003H17.023C15.6374 28.5326 14.2931 28.027 13.2722 27.0897C12.2513 26.1523 11.6331 24.8559 11.5474 23.4726C12.9038 23.3352 14.1612 22.6997 15.0761 21.6888C15.9911 20.678 16.4986 19.3637 16.5005 18.0003V8.00031C16.5005 6.54162 15.921 5.14267 14.8896 4.11122C13.8581 3.07977 12.4592 2.50031 11.0005 2.50031C9.5418 2.50031 8.14285 3.07977 7.1114 4.11122C6.07995 5.14267 5.50049 6.54162 5.50049 8.00031V18.0003C5.50263 19.3759 6.01962 20.7008 6.94968 21.7143C7.87975 22.7277 9.15551 23.3563 10.5258 23.4763C10.5897 24.4906 10.8939 25.4751 11.4132 26.3486C11.9326 27.2221 12.6522 27.9597 13.5127 28.5003H3.00244C2.86983 28.5003 2.74266 28.553 2.64889 28.6468C2.55512 28.7405 2.50244 28.8677 2.50244 29.0003C2.50244 29.1329 2.55512 29.2601 2.64889 29.3539C2.74266 29.4476 2.86983 29.5003 3.00244 29.5003H19.0024C19.135 29.5003 19.2622 29.4476 19.356 29.3539C19.4498 29.2601 19.5024 29.1329 19.5024 29.0003C19.5024 28.8677 19.4498 28.7405 19.356 28.6468C19.2622 28.553 19.135 28.5003 19.0024 28.5003ZM6.50049 14.9883V12.5003H15.5005V14.9883H6.50049ZM11.0005 3.50031C12.1936 3.50161 13.3374 3.97613 14.181 4.81976C15.0247 5.66339 15.4992 6.80723 15.5005 8.00031V11.5003H6.50049V8.00031C6.50179 6.80723 6.97631 5.66339 7.81995 4.81976C8.66358 3.97613 9.80742 3.5016 11.0005 3.50031Z" fill="#0F0F0F"/>
<path d="M15.5 11.5H6.5V12.5H15.5V11.5Z" fill="#27A17A"/>
<path d="M15.5 15H6.5V18C6.5 20.2091 8.29086 22 10.5 22H11.5C13.7091 22 15.5 20.2091 15.5 18V15Z" fill="#27A17A"/>
</svg>
