<svg width="32" height="32" viewBox="0 0 32 32" fill="none" xmlns="http://www.w3.org/2000/svg">
<path d="M17.9993 23.7486C17.8007 23.7488 17.6101 23.6702 17.4694 23.53L2.46936 8.53003C2.32918 8.38929 2.25056 8.19869 2.25076 8.00006C2.25095 7.80142 2.32995 7.61098 2.47041 7.47052C2.61086 7.33006 2.80131 7.25107 2.99995 7.25087C3.19858 7.25068 3.38918 7.3293 3.52991 7.46949L5.24963 9.18921V7.99976C5.24963 6.47476 5.85543 5.01223 6.93377 3.93389C8.0121 2.85556 9.47464 2.24976 10.9996 2.24976C12.5246 2.24976 13.9872 2.85556 15.0655 3.93389C16.1438 5.01223 16.7496 6.47476 16.7496 7.99976V17.9998C16.7447 18.7627 16.5831 19.5165 16.2748 20.2144L18.5299 22.4695C18.6701 22.6102 18.7487 22.8008 18.7485 22.9995C18.7483 23.1981 18.6693 23.3885 18.5289 23.529C18.3884 23.6694 18.198 23.7484 17.9993 23.7486ZM7.99443 4.99455C7.1974 5.79158 6.74963 6.87259 6.74963 7.99976V10.6892L15.1026 19.0422C15.1962 18.7025 15.2456 18.3521 15.2496 17.9998V7.99976C15.2496 6.87259 14.8019 5.79158 14.0048 4.99455C13.2078 4.19752 12.1268 3.74976 10.9996 3.74976C9.87246 3.74976 8.79146 4.19752 7.99443 4.99455Z" fill="#DB1F2E"/>
<path d="M17.0211 28.2498H18.9996C19.1985 28.2498 19.3893 28.3288 19.53 28.4694C19.6706 28.6101 19.7496 28.8008 19.7496 28.9998C19.7496 29.1987 19.6706 29.3894 19.53 29.5301C19.3893 29.6707 19.1985 29.7498 18.9996 29.7498H2.99963C2.80072 29.7498 2.60996 29.6707 2.4693 29.5301C2.32865 29.3894 2.24963 29.1987 2.24963 28.9998C2.24963 28.8008 2.32865 28.6101 2.4693 28.4694C2.60996 28.3288 2.80072 28.2498 2.99963 28.2498H12.721C12.0329 27.6915 11.4629 27.0016 11.0445 26.2205C10.6261 25.4393 10.3676 24.5826 10.2842 23.7004C8.89518 23.5252 7.61768 22.8497 6.69094 21.8003C5.76419 20.751 5.25177 19.3998 5.24963 17.9998V13.4526L6.74963 14.9525V17.9998C6.74844 18.7676 6.95563 19.5214 7.3491 20.1808C7.74258 20.8402 8.3076 21.3804 8.98394 21.744C9.66028 22.1075 10.4226 22.2807 11.1896 22.2451C11.9567 22.2096 12.6997 21.9665 13.3394 21.5419L14.4034 22.6059C13.6436 23.1751 12.754 23.546 11.8149 23.6851C11.9525 24.9601 12.5639 26.1369 13.5282 26.9823C14.4925 27.8277 15.7391 28.2801 17.0211 28.2498Z" fill="#DB1F2E"/>
<path d="M26.5 6.25C26.9142 6.25 27.25 6.58579 27.25 7V8.75H29C29.4142 8.75 29.75 9.08579 29.75 9.5C29.75 9.91421 29.4142 10.25 29 10.25H27.25V12C27.25 12.4142 26.9142 12.75 26.5 12.75C26.0858 12.75 25.75 12.4142 25.75 12V10.25H24C23.5858 10.25 23.25 9.91421 23.25 9.5C23.25 9.08579 23.5858 8.75 24 8.75H25.75V7C25.75 6.58579 26.0858 6.25 26.5 6.25Z" fill="#DB1F2E"/>
<path d="M22.5 13.75C22.9142 13.75 23.25 14.0858 23.25 14.5V16.25H25C25.4142 16.25 25.75 16.5858 25.75 17C25.75 17.4142 25.4142 17.75 25 17.75H23.25V19.5C23.25 19.9142 22.9142 20.25 22.5 20.25C22.0858 20.25 21.75 19.9142 21.75 19.5V17.75H20C19.5858 17.75 19.25 17.4142 19.25 17C19.25 16.5858 19.5858 16.25 20 16.25H21.75V14.5C21.75 14.0858 22.0858 13.75 22.5 13.75Z" fill="#DB1F2E"/>
</svg>
