<svg width="32" height="32" viewBox="0 0 32 32" fill="none" xmlns="http://www.w3.org/2000/svg">
<path d="M4.82152 13.1887C4.7978 13.1641 4.77922 13.1351 4.76689 13.1032C4.75456 13.0714 4.74873 13.0374 4.74973 13.0033C4.75073 12.9692 4.75855 12.9356 4.77272 12.9045C4.78689 12.8735 4.80714 12.8456 4.83226 12.8225L8.16626 9.33808C8.78061 8.71761 9.6108 8.35832 10.4837 8.33516C10.906 8.31547 11.3276 8.38573 11.7207 8.54129C12.1139 8.69685 12.4694 8.93416 12.7639 9.23749C12.9283 9.40022 13.1232 9.52889 13.3374 9.61611C13.5516 9.70333 13.7809 9.74739 14.0122 9.74576C14.2435 9.74413 14.4722 9.69684 14.6851 9.6066C14.8981 9.51636 15.0911 9.38496 15.2532 9.21992L19.5042 4.70527C20.114 4.09712 20.9399 3.75543 21.8011 3.75506C22.6623 3.75468 23.4886 4.09565 24.0989 4.70327L27.299 7.92401C27.9056 8.53031 28.2478 9.35184 28.2511 10.2095C28.2544 11.0671 27.9185 11.8912 27.3166 12.5021L23.0998 16.4475C22.9545 16.5834 22.8692 16.7716 22.8626 16.9704C22.856 17.1693 22.9287 17.3627 23.0646 17.508C23.2006 17.6533 23.3887 17.7386 23.5876 17.7452C23.7865 17.7518 23.9799 17.6791 24.1252 17.5432L28.3596 13.5803C29.2502 12.6901 29.7508 11.4825 29.7512 10.2233C29.7516 8.96399 29.2517 7.75615 28.3616 6.86541L25.1614 3.64471C24.7183 3.20348 24.1926 2.85388 23.6143 2.6159C23.036 2.37792 22.4165 2.25622 21.7912 2.25777C21.1659 2.25931 20.547 2.38406 19.9699 2.62488C19.3928 2.86571 18.8689 3.2179 18.428 3.66131L14.178 8.17498C14.1308 8.22159 14.0672 8.24781 14.0009 8.24799C13.9346 8.24818 13.8709 8.22232 13.8235 8.17598C12.9159 7.29893 11.6972 6.81817 10.4353 6.83941C9.17338 6.86065 7.97154 7.38215 7.09402 8.28925L3.75902 11.7746C3.43251 12.1032 3.24925 12.5477 3.24925 13.0109C3.24925 13.4742 3.43251 13.9186 3.75902 14.2473L10.2145 20.7199L2.46995 28.4699C2.40009 28.5395 2.34464 28.6222 2.30677 28.7132C2.26891 28.8043 2.24936 28.9019 2.24927 29.0005C2.24917 29.0991 2.26852 29.1968 2.30621 29.2879C2.3439 29.379 2.39919 29.4618 2.46892 29.5315C2.53864 29.6012 2.62143 29.6565 2.71255 29.6942C2.80367 29.7319 2.90132 29.7513 2.99993 29.7512C3.09853 29.7511 3.19615 29.7315 3.28719 29.6936C3.37823 29.6558 3.46091 29.6003 3.5305 29.5305L11.2737 21.7818L14.4709 24.9875C14.5404 25.0573 14.623 25.1128 14.7139 25.1507C14.8049 25.1886 14.9024 25.2083 15.0009 25.2085C15.0994 25.2087 15.197 25.1895 15.2881 25.152C15.3792 25.1144 15.462 25.0593 15.5318 24.9898C15.6016 24.9203 15.657 24.8377 15.6949 24.7467C15.7327 24.6557 15.7523 24.5582 15.7525 24.4597C15.7526 24.3612 15.7333 24.2636 15.6958 24.1725C15.6582 24.0814 15.603 23.9987 15.5334 23.9289L4.82152 13.1887Z" fill="#0F0F0F"/>
<path d="M21 27C23.2091 27 25 25.2091 25 23C25 20.7909 23.2091 19 21 19C18.7909 19 17 20.7909 17 23C17 25.2091 18.7909 27 21 27Z" fill="#0353A8"/>
</svg>
