<svg width="32" height="32" viewBox="0 0 32 32" fill="none" xmlns="http://www.w3.org/2000/svg">
<path d="M16.0005 29.5002C13.3304 29.5002 10.7204 28.7085 8.5003 27.2251C6.28023 25.7417 4.5499 23.6332 3.52812 21.1664C2.50634 18.6996 2.23899 15.9852 2.75989 13.3665C3.28079 10.7478 4.56654 8.34229 6.45455 6.45428C8.34256 4.56627 10.748 3.28052 13.3668 2.75962C15.9855 2.23872 18.6999 2.50606 21.1667 3.52785C23.6335 4.54963 25.7419 6.27996 27.2253 8.50002C28.7087 10.7201 29.5005 13.3302 29.5005 16.0002C29.4966 19.5794 28.073 23.011 25.5421 25.5418C23.0112 28.0727 19.5797 29.4963 16.0005 29.5002ZM16.0005 3.50022C13.5282 3.50022 11.1115 4.23333 9.05587 5.60685C7.00025 6.98037 5.3981 8.9326 4.452 11.2167C3.5059 13.5008 3.25836 16.0141 3.74068 18.4388C4.22299 20.8636 5.4135 23.0909 7.16166 24.8391C8.90982 26.5872 11.1371 27.7777 13.5619 28.26C15.9866 28.7424 18.5 28.4948 20.784 27.5487C23.0681 26.6026 25.0203 25.0005 26.3939 22.9448C27.7674 20.8892 28.5005 18.4725 28.5005 16.0002C28.4968 12.6862 27.1786 9.5089 24.8352 7.1655C22.4918 4.8221 19.3146 3.50395 16.0005 3.50022Z" fill="#0F0F0F"/>
<path d="M16.0005 29.5002C13.3304 29.5002 10.7204 28.7085 8.5003 27.2251C6.28023 25.7417 4.5499 23.6332 3.52812 21.1664C2.50634 18.6996 2.23899 15.9852 2.75989 13.3665C3.28079 10.7478 4.56654 8.34229 6.45455 6.45428C8.34256 4.56627 10.748 3.28052 13.3668 2.75962C15.9855 2.23872 18.6999 2.50606 21.1667 3.52785C23.6335 4.54963 25.7419 6.27996 27.2253 8.50002C28.7087 10.7201 29.5005 13.3302 29.5005 16.0002C29.4966 19.5794 28.073 23.011 25.5421 25.5418C23.0112 28.0727 19.5797 29.4963 16.0005 29.5002ZM16.0005 3.50022C13.5282 3.50022 11.1115 4.23333 9.05587 5.60685C7.00025 6.98037 5.3981 8.9326 4.452 11.2167C3.5059 13.5008 3.25836 16.0141 3.74068 18.4388C4.22299 20.8636 5.4135 23.0909 7.16166 24.8391C8.90982 26.5872 11.1371 27.7777 13.5619 28.26C15.9866 28.7424 18.5 28.4948 20.784 27.5487C23.0681 26.6026 25.0203 25.0005 26.3939 22.9448C27.7674 20.8892 28.5005 18.4725 28.5005 16.0002C28.4968 12.6862 27.1786 9.5089 24.8352 7.1655C22.4918 4.8221 19.3146 3.50395 16.0005 3.50022Z" fill="#0F0F0F"/>
<path d="M16.0005 20.5002C15.1105 20.5002 14.2404 20.2363 13.5004 19.7418C12.7604 19.2474 12.1836 18.5446 11.843 17.7223C11.5024 16.9 11.4133 15.9952 11.587 15.1223C11.7606 14.2494 12.1892 13.4476 12.8185 12.8182C13.4478 12.1889 14.2497 11.7603 15.1226 11.5867C15.9955 11.413 16.9003 11.5022 17.7226 11.8428C18.5448 12.1834 19.2476 12.7601 19.7421 13.5001C20.2366 14.2402 20.5005 15.1102 20.5005 16.0002C20.4992 17.1933 20.0247 18.3371 19.181 19.1808C18.3374 20.0244 17.1936 20.4989 16.0005 20.5002Z" fill="#C94403"/>
</svg>
