<svg width="32" height="32" viewBox="0 0 32 32" fill="none" xmlns="http://www.w3.org/2000/svg">
<path d="M6 2V15L9 11H16L6 2Z" fill="white"/>
<path d="M10 28V30H12V29H24V30H26V28H25V16H26V14H24V15H12V14H10V16H11V28H10Z" fill="white"/>
<path d="M5.25 0.315979L17.9545 11.75H9.375L5.25 17.25V0.315979ZM6.75 3.68402V12.75L8.625 10.25H14.0455L6.75 3.68402Z" fill="black"/>
<path d="M15 18.25H21C21.4142 18.25 21.75 18.5858 21.75 19C21.75 19.4142 21.4142 19.75 21 19.75H18.75V25C18.75 25.4142 18.4142 25.75 18 25.75C17.5858 25.75 17.25 25.4142 17.25 25V19.75H15C14.5858 19.75 14.25 19.4142 14.25 19C14.25 18.5858 14.5858 18.25 15 18.25Z" fill="black"/>
<path d="M12.75 13.25H9.25V16.75H10.25V27.25H9.25V30.75H12.75V29.75H23.25V30.75H26.75V27.25H25.75V16.75H26.75V13.25H23.25V14.25H12.75V13.25ZM23.25 27.25V28.25H12.75V27.25H11.75V16.75H12.75V15.75H23.25V16.75H24.25V27.25H23.25ZM24.75 29.25V28.75H25.25V29.25H24.75ZM25.25 15.25H24.75V14.75H25.25V15.25ZM10.75 28.75H11.25V29.25H10.75V28.75ZM11.25 14.75V15.25H10.75V14.75H11.25Z" fill="black"/>
</svg>
