<svg width="32" height="32" viewBox="0 0 32 32" fill="none" xmlns="http://www.w3.org/2000/svg">
<path d="M6 2V15L9 11H16L6 2Z" fill="white"/>
<path d="M10 28V30H12V29H24V30H26V28H25V16H26V14H24V15H12V14H10V16H11V28H10Z" fill="white"/>
<path d="M5.5 0.877319L17.303 11.5H9.25L5.5 16.5V0.877319ZM6.5 3.12268V13.5L8.75 10.5H14.697L6.5 3.12268Z" fill="black"/>
<path d="M15 18.5H21C21.2761 18.5 21.5 18.7239 21.5 19C21.5 19.2761 21.2761 19.5 21 19.5H18.5V25C18.5 25.2761 18.2761 25.5 18 25.5C17.7239 25.5 17.5 25.2761 17.5 25V19.5H15C14.7239 19.5 14.5 19.2761 14.5 19C14.5 18.7239 14.7239 18.5 15 18.5Z" fill="black"/>
<path d="M12.5 13.5H9.5V16.5H10.5V27.5H9.5V30.5H12.5V29.5H23.5V30.5H26.5V27.5H25.5V16.5H26.5V13.5H23.5V14.5H12.5V13.5ZM24.5 29.5V28.5H25.5V29.5H24.5ZM23.5 27.5V28.5H12.5V27.5H11.5V16.5H12.5V15.5H23.5V16.5H24.5V27.5H23.5ZM25.5 15.5H24.5V14.5H25.5V15.5ZM11.5 28.5V29.5H10.5V28.5H11.5ZM11.5 14.5V15.5H10.5V14.5H11.5Z" fill="black"/>
</svg>
