<svg width="32" height="32" viewBox="0 0 32 32" fill="none" xmlns="http://www.w3.org/2000/svg">
<path d="M22.8194 19.0022H14.9107V20.791H22.8194C23.6002 20.791 24.2298 21.4335 24.2298 22.2146H16.8501C14.6966 22.2146 12.9587 23.9531 12.9587 26.1073C12.9587 28.2615 14.6966 30 16.8501 30H26.0181V22.2146C26.0181 20.4509 24.5824 19.0148 22.8194 19.0148V19.0022ZM16.8501 28.1859C15.6915 28.1859 14.747 27.2411 14.747 26.0821C14.747 24.9231 15.6915 23.9783 16.8501 23.9783H24.2298V28.1859H16.8501Z" fill="black"/>
<path d="M28.0457 8.91138C30.2296 8.91138 32 7.14036 32 4.95569C32 2.77102 30.2296 1 28.0457 1C25.8617 1 24.0913 2.77102 24.0913 4.95569C24.0913 7.14036 25.8617 8.91138 28.0457 8.91138Z" fill="#DB271C"/>
<path d="M2.19126 29.5591C3.40146 29.5591 4.38253 28.5777 4.38253 27.3671C4.38253 26.1565 3.40146 25.1751 2.19126 25.1751C0.981062 25.1751 0 26.1565 0 27.3671C0 28.5777 0.981062 29.5591 2.19126 29.5591Z" fill="#DB271C"/>
<path d="M22.5171 5.76192H24.1669C24.1165 5.49737 24.0787 5.23282 24.0787 4.95567C24.0787 4.85488 24.0787 4.7541 24.0787 4.65332H22.3912C10.9941 4.66592 1.72531 13.6985 1.72531 24.8601C1.72531 24.9861 1.72531 25.1121 1.72531 25.238C1.87643 25.2002 2.04015 25.1876 2.19127 25.1876C2.45573 25.1876 2.72019 25.238 2.95947 25.3262C2.95947 25.175 2.95947 25.0239 2.95947 24.8601C2.95947 14.3158 11.7119 5.77452 22.5171 5.77452V5.76192Z" fill="url(#paint0_linear_58217_29)"/>
<defs>
<linearGradient id="paint0_linear_58217_29" x1="12.9461" y1="25.3136" x2="12.9461" y2="4.66592" gradientUnits="userSpaceOnUse">
<stop offset="0.03" stop-color="white"/>
<stop offset="0.9" stop-color="#D9221C"/>
</linearGradient>
</defs>
</svg>
