<svg width="33" height="32" viewBox="0 0 33 32" fill="none" xmlns="http://www.w3.org/2000/svg">
<path d="M24.2532 18C28.3954 18 31.7532 14.6421 31.7532 10.5C31.7532 6.35786 28.3954 3 24.2532 3C20.1111 3 16.7532 6.35787 16.7532 10.5C16.7532 14.6421 20.1111 18 24.2532 18Z" fill="url(#paint0_linear_49553_235)"/>
<path fill-rule="evenodd" clip-rule="evenodd" d="M16.7532 8.42268C12.5651 8.42268 9.1699 11.8169 9.1699 16.0038C9.1699 20.1908 12.5651 23.585 16.7532 23.585C20.9414 23.585 24.3366 20.1908 24.3366 16.0038C24.3366 11.8169 20.9414 8.42268 16.7532 8.42268ZM3.75323 16.0038C3.75323 8.82619 9.57353 3.00757 16.7532 3.00757C23.9329 3.00757 29.7532 8.82619 29.7532 16.0038C29.7532 23.1815 23.9329 29.0001 16.7532 29.0001C9.57353 29.0001 3.75323 23.1815 3.75323 16.0038Z" fill="url(#paint1_linear_49553_235)"/>
<path fill-rule="evenodd" clip-rule="evenodd" d="M29.7464 15.6051C28.3773 17.0738 26.4256 17.9922 24.2593 17.9922C24.1967 17.9922 24.1343 17.9914 24.0721 17.9899C24.2448 17.3546 24.337 16.686 24.337 15.996C24.337 11.9073 21.1002 8.57456 17.0491 8.42043C17.6448 6.3436 19.1135 4.63587 21.0326 3.71985C25.9924 5.44753 29.5837 10.096 29.7464 15.6051Z" fill="url(#paint2_linear_49553_235)"/>
<path d="M24.2493 18C28.3915 18 31.7493 14.6421 31.7493 10.5C31.7493 6.35786 28.3915 3 24.2493 3C20.1072 3 16.7493 6.35787 16.7493 10.5C16.7493 14.6421 20.1072 18 24.2493 18Z" fill="url(#paint3_radial_49553_235)"/>
<defs>
<linearGradient id="paint0_linear_49553_235" x1="17.0507" y1="3" x2="29.3322" y2="15.2815" gradientUnits="userSpaceOnUse">
<stop stop-color="#0087EA"/>
<stop offset="1" stop-color="#63FFF7"/>
</linearGradient>
<linearGradient id="paint1_linear_49553_235" x1="29.7532" y1="3.00757" x2="3.76071" y2="29.0076" gradientUnits="userSpaceOnUse">
<stop stop-color="#0051AF"/>
<stop offset="0.666238" stop-color="#0087EA"/>
<stop offset="1" stop-color="#00BCEB"/>
</linearGradient>
<linearGradient id="paint2_linear_49553_235" x1="21.6986" y1="7.99" x2="28.6515" y2="16.0317" gradientUnits="userSpaceOnUse">
<stop stop-color="#74BF4B" stop-opacity="0"/>
<stop offset="1" stop-color="#74BF4B"/>
</linearGradient>
<radialGradient id="paint3_radial_49553_235" cx="0" cy="0" r="1" gradientUnits="userSpaceOnUse" gradientTransform="translate(31.7493 18) rotate(-135) scale(21.2132 21.2042)">
<stop stop-color="#00BCEB" stop-opacity="0"/>
<stop offset="0.666962" stop-color="#00BCEB" stop-opacity="0"/>
<stop offset="1" stop-color="#00BCEB"/>
</radialGradient>
</defs>
</svg>
