<svg width="32" height="32" viewBox="0 0 32 32" fill="none" xmlns="http://www.w3.org/2000/svg">
<path d="M17.8398 16L20.5694 19.1201L24.2398 21.4401L24.8797 16.0208L24.2398 10.6959L20.4989 12.7567L17.8398 16Z" fill="#188038"/>
<path d="M1.99983 20.9601V25.6002C1.99983 26.6609 2.85901 27.5202 3.91987 27.5202H8.55996L9.51994 24.013L8.55996 20.9602L5.37589 20.0002L1.99983 20.9601Z" fill="#1967D2"/>
<path d="M8.55996 4.47998L1.99983 11.04L5.37589 12L8.55996 11.04L9.50393 8.02719L8.55996 4.47998Z" fill="#EA4335"/>
<path d="M8.55996 11.0399H1.99983V20.9599H8.55988V11.0399H8.55996Z" fill="#4285F4"/>
<path d="M28.4304 7.25731L24.24 10.6958V21.4398L28.448 25.0191C29.0783 25.5119 30 25.0623 30 24.2623V7.99976C30 7.18853 29.0576 6.74368 28.4304 7.25731Z" fill="#34A853"/>
<path d="M17.8399 15.9998V20.9599H8.55984V27.5199H22.32C23.3808 27.5199 24.24 26.6607 24.24 25.5999V21.4398L17.8399 15.9998Z" fill="#34A853"/>
<path d="M22.3199 4.47986H8.55984V11.0399H17.8399V16L24.24 10.6959V6.39989C24.24 5.33903 23.3808 4.47986 22.3199 4.47986Z" fill="#FBBC04"/>
</svg>
