<svg width="33" height="32" viewBox="0 0 33 32" fill="none" xmlns="http://www.w3.org/2000/svg">
<path d="M24.4412 2H9.06567C5.57951 2 2.75342 4.82609 2.75342 8.31225V23.6877C2.75342 27.1739 5.57951 30 9.06567 30H24.4412C27.9273 30 30.7534 27.1739 30.7534 23.6877V8.31225C30.7534 4.82609 27.9273 2 24.4412 2Z" fill="#06C755"/>
<path d="M26.0862 14.6805C26.0862 10.5033 21.8984 7.10476 16.7508 7.10476C11.6032 7.10476 7.41542 10.5033 7.41542 14.6805C7.41542 18.4255 10.7404 21.5624 15.2222 22.1548C15.5267 22.2204 15.9405 22.3551 16.0447 22.615C16.1392 22.8513 16.1068 23.2214 16.0753 23.4594C16.0753 23.4594 15.9659 24.1183 15.9423 24.2583C15.9012 24.4945 15.7542 25.1814 16.7508 24.7623C17.7474 24.3431 22.1268 21.5965 24.085 19.3416C25.4378 17.8585 26.0862 16.35 26.0862 14.6805Z" fill="white"/>
<path d="M22.9799 17.0929H20.3549C20.3085 17.0929 20.264 17.0744 20.2312 17.0416C20.1984 17.0088 20.1799 16.9643 20.1799 16.9179V12.8448C20.1799 12.7983 20.1984 12.7538 20.2312 12.721C20.264 12.6882 20.3085 12.6698 20.3549 12.6698H22.9799C23.0263 12.6698 23.0708 12.6882 23.1037 12.721C23.1365 12.7538 23.1549 12.7983 23.1549 12.8448V13.5071C23.1549 13.5535 23.1365 13.598 23.1037 13.6309C23.0708 13.6637 23.0263 13.6821 22.9799 13.6821H21.1975V14.369H22.9799C23.0263 14.369 23.0708 14.3874 23.1037 14.4203C23.1365 14.4531 23.1549 14.4976 23.1549 14.544V15.2125C23.1549 15.2589 23.1365 15.3034 23.1037 15.3362C23.0708 15.3691 23.0263 15.3875 22.9799 15.3875H21.1975V16.0752H22.9799C23.0263 16.0752 23.0708 16.0937 23.1037 16.1265C23.1365 16.1593 23.1549 16.2038 23.1549 16.2502V16.9117C23.1557 16.9352 23.1518 16.9587 23.1434 16.9806C23.135 17.0025 23.1222 17.0226 23.1059 17.0395C23.0895 17.0564 23.07 17.0698 23.0483 17.079C23.0267 17.0882 23.0034 17.0929 22.9799 17.0929Z" fill="#06C755"/>
<path d="M13.2788 17.0929C13.3252 17.0929 13.3697 17.0744 13.4025 17.0416C13.4354 17.0088 13.4538 16.9643 13.4538 16.9179V16.2564C13.4538 16.21 13.4354 16.1654 13.4025 16.1326C13.3697 16.0998 13.3252 16.0814 13.2788 16.0814H11.4964V12.8439C11.4964 12.7975 11.478 12.7529 11.4452 12.7201C11.4123 12.6873 11.3678 12.6689 11.3214 12.6689H10.6564C10.61 12.6689 10.5655 12.6873 10.5327 12.7201C10.4999 12.7529 10.4814 12.7975 10.4814 12.8439V16.9152C10.4814 16.9617 10.4999 17.0062 10.5327 17.039C10.5655 17.0718 10.61 17.0902 10.6564 17.0902H13.2814L13.2788 17.0929Z" fill="#06C755"/>
<path d="M14.8573 12.6619H14.1958C14.0972 12.6619 14.0173 12.7418 14.0173 12.8404V16.9144C14.0173 17.013 14.0972 17.0929 14.1958 17.0929H14.8573C14.9559 17.0929 15.0358 17.013 15.0358 16.9144V12.8404C15.0358 12.7418 14.9559 12.6619 14.8573 12.6619Z" fill="#06C755"/>
<path d="M19.3644 12.6619H18.7029C18.6565 12.6619 18.612 12.6803 18.5792 12.7131C18.5464 12.7459 18.5279 12.7905 18.5279 12.8369V15.2571L16.6642 12.7397C16.6599 12.7331 16.6549 12.7269 16.6493 12.7214L16.6388 12.7109L16.6292 12.703H16.6239L16.6143 12.696H16.609L16.5994 12.6907H15.8583C15.8119 12.6907 15.7674 12.7092 15.7346 12.742C15.7017 12.7748 15.6833 12.8193 15.6833 12.8657V16.9397C15.6833 16.9862 15.7017 17.0307 15.7346 17.0635C15.7674 17.0963 15.8119 17.1147 15.8583 17.1147H16.5207C16.5671 17.1147 16.6116 17.0963 16.6444 17.0635C16.6772 17.0307 16.6957 16.9862 16.6957 16.9397V14.4959L18.562 17.0159C18.5743 17.0337 18.5897 17.0491 18.6075 17.0614L18.618 17.0684H18.6233L18.632 17.0727H18.6592C18.6746 17.0766 18.6905 17.0786 18.7064 17.0789H19.3644C19.4108 17.0789 19.4553 17.0604 19.4882 17.0276C19.521 16.9948 19.5394 16.9503 19.5394 16.9039V12.8404C19.5399 12.8171 19.5357 12.794 19.5271 12.7723C19.5185 12.7507 19.5057 12.731 19.4894 12.7144C19.4731 12.6977 19.4537 12.6845 19.4322 12.6755C19.4107 12.6665 19.3877 12.6619 19.3644 12.6619Z" fill="#06C755"/>
</svg>
