<svg width="33" height="32" viewBox="0 0 33 32" fill="none" xmlns="http://www.w3.org/2000/svg">
<path d="M8.35343 18.835H19.3084V16.735H8.35343V18.835ZM8.35343 14.285H25.1534V12.185H8.35343V14.285ZM8.35343 9.73501H25.1534V7.63501H8.35343V9.73501ZM2.75342 30V4.1C2.75342 3.56334 2.96342 3.07917 3.38342 2.6475C3.80342 2.21583 4.29342 2 4.85342 2H28.6535C29.1901 2 29.6743 2.21583 30.106 2.6475C30.5376 3.07917 30.7535 3.56334 30.7535 4.1V22.3C30.7535 22.8367 30.5376 23.3209 30.106 23.7525C29.6743 24.1842 29.1901 24.4 28.6535 24.4H8.35343L2.75342 30Z" fill="#3B78E7"/>
</svg>
