<svg width="32" height="32" viewBox="0 0 32 32" fill="none" xmlns="http://www.w3.org/2000/svg">
<path d="M24.712 6.15043C24.136 5.61597 21.65 4.02056 16.4626 3.99745C16.4626 3.99745 10.3204 3.58526 7.33859 6.34372C5.67859 8.01728 5.1195 10.506 5.05738 13.5434C4.99526 16.5809 4.67848 22.3818 10.1176 23.9251C10.1176 23.9251 10.0966 28.2324 10.0937 28.6109C10.0937 28.8757 10.1349 29.0567 10.283 29.0941C10.3899 29.1206 10.5492 29.0643 10.6853 28.9261C11.5546 28.034 14.339 24.6033 14.339 24.6033C18.0753 24.8525 21.0473 24.0991 21.3669 23.9924C22.119 23.7461 26.1935 23.3869 26.885 17.6969C27.6021 11.8287 26.6258 7.824 24.712 6.15043Z" fill="white"/>
<path d="M26.0654 4.73107C25.3841 4.08904 22.631 2.04783 16.4987 2.0201C16.4987 2.0201 9.26709 1.57471 5.7418 4.87729C3.77942 6.88195 3.0891 9.81519 3.01628 13.4518C2.94346 17.0884 2.84925 23.9037 9.28148 25.7516H9.28765L9.28354 28.5714C9.28354 28.5714 9.2424 29.713 9.97839 29.9458C10.8687 30.2282 11.3911 29.3605 12.2411 28.4252C12.7076 27.9117 13.3519 27.1575 13.8373 26.581C18.2364 26.9592 21.6198 26.0949 22.004 25.9672C22.8922 25.673 27.9183 25.015 28.7358 18.2006C29.5795 11.1766 28.3276 6.73363 26.0654 4.73107ZM26.8108 17.6968C26.1209 23.3869 22.0443 23.7444 21.2927 23.9907C20.9731 24.0957 18.0015 24.8508 14.2648 24.6016C14.2648 24.6016 11.4804 28.0323 10.6107 28.9244C10.475 29.0639 10.3153 29.1202 10.2088 29.0924C10.059 29.055 10.0179 28.8739 10.0195 28.6092C10.022 28.2311 10.0434 23.9234 10.0434 23.9234C4.60222 22.3805 4.91941 16.58 4.98112 13.5426C5.04283 10.5051 5.60151 8.01684 7.2611 6.34328C10.2429 3.58483 16.3855 3.99702 16.3855 3.99702C21.5729 4.02013 24.0586 5.61554 24.6349 6.15C26.5488 7.82356 27.5238 11.8283 26.8108 17.6952V17.6968Z" fill="#7360F2"/>
<path d="M19.0233 13.6469C18.9344 13.6469 18.8489 13.612 18.7845 13.5494C18.7201 13.4869 18.6817 13.4014 18.6773 13.3108C18.6184 12.1086 18.0639 11.52 16.9321 11.4578C16.8419 11.4505 16.7581 11.4074 16.6986 11.3379C16.639 11.2684 16.6084 11.1778 16.6133 11.0856C16.6182 10.9933 16.6582 10.9067 16.7247 10.8441C16.7913 10.7815 16.8791 10.748 16.9696 10.7506C18.4629 10.8347 19.2931 11.7057 19.3697 13.2755C19.3719 13.3219 19.3652 13.3684 19.3499 13.4122C19.3346 13.456 19.311 13.4963 19.2804 13.5308C19.2499 13.5653 19.213 13.5933 19.1718 13.6132C19.1306 13.6331 19.086 13.6446 19.0405 13.6469H19.0233Z" fill="#7360F2"/>
<path d="M20.8024 14.2569H20.7942C20.7023 14.2547 20.615 14.2153 20.5515 14.1473C20.488 14.0794 20.4535 13.9885 20.4556 13.8947C20.4824 12.6841 20.1438 11.7039 19.4206 10.898C18.6973 10.0921 17.712 9.65509 16.3984 9.55677C16.3065 9.54992 16.2211 9.50607 16.1609 9.43488C16.1007 9.36368 16.0706 9.27097 16.0773 9.17714C16.084 9.08331 16.127 8.99605 16.1967 8.93455C16.2664 8.87305 16.3571 8.84234 16.449 8.8492C17.9272 8.9597 19.0988 9.48786 19.9319 10.4186C20.765 11.3492 21.1793 12.5266 21.1488 13.9094C21.147 14.002 21.1097 14.0903 21.045 14.1552C20.9803 14.2202 20.8932 14.2567 20.8024 14.2569Z" fill="#7360F2"/>
<path d="M22.624 14.9834C22.5325 14.9832 22.4447 14.9462 22.3798 14.8804C22.3148 14.8145 22.278 14.7251 22.2772 14.6317C22.2612 12.4665 21.6507 10.8127 20.4107 9.57653C19.1855 8.35803 17.6379 7.7328 15.81 7.71936C15.7645 7.71919 15.7194 7.70987 15.6774 7.69191C15.6354 7.67396 15.5972 7.64773 15.5651 7.61472C15.5003 7.54806 15.4641 7.45783 15.4644 7.36389C15.4648 7.26995 15.5016 7.17999 15.5669 7.1138C15.6322 7.04761 15.7205 7.01061 15.8125 7.01094H15.8154C17.8279 7.02607 19.5369 7.71852 20.8949 9.0698C22.2529 10.4211 22.9531 12.2942 22.9712 14.6275C22.9719 14.7213 22.936 14.8116 22.8716 14.8785C22.8071 14.9454 22.7192 14.9834 22.6273 14.9842L22.624 14.9834Z" fill="#7360F2"/>
<path d="M17.0193 18.0372C17.0193 18.0372 17.5068 18.0793 17.7693 17.749L18.281 17.0914C18.5279 16.7654 19.1236 16.5574 19.707 16.8893C20.1441 17.144 20.5685 17.4208 20.9786 17.7187C21.3657 18.0095 22.1585 18.6851 22.161 18.6851C22.5386 19.0108 22.6258 19.4889 22.3687 19.9932C22.3687 19.9961 22.3667 20.0011 22.3667 20.0037C22.0835 20.5051 21.7239 20.9572 21.3015 21.3432C21.2966 21.3457 21.2966 21.3482 21.2921 21.3507C20.9251 21.6639 20.5646 21.8419 20.2105 21.8848C20.1584 21.8941 20.1054 21.8975 20.0525 21.8949C19.8964 21.8964 19.7411 21.872 19.5926 21.8226L19.5811 21.8054C19.0356 21.6482 18.1247 21.2549 16.6079 20.4003C15.7301 19.9116 14.8945 19.3478 14.1099 18.715C13.7166 18.398 13.3415 18.0582 12.9863 17.6973L12.8728 17.5813C12.86 17.5687 12.8477 17.5557 12.8349 17.5427C12.4816 17.18 12.1489 16.7968 11.8385 16.3952C11.219 15.5939 10.667 14.7406 10.1884 13.8443C9.35161 12.2947 8.96654 11.3653 8.81268 10.8073L8.79581 10.7955C8.74758 10.6438 8.72382 10.4852 8.72546 10.3257C8.72258 10.2718 8.72576 10.2176 8.73493 10.1644C8.77908 9.80333 8.95365 9.43483 9.25864 9.05892C9.26111 9.05429 9.26357 9.05429 9.26604 9.04925C9.64383 8.61786 10.0866 8.25078 10.5776 7.96184C10.5801 7.96184 10.585 7.95931 10.5879 7.95931C11.0815 7.6967 11.5497 7.78578 11.8681 8.1694C11.8706 8.17192 12.5309 8.9816 12.8144 9.37699C13.1061 9.79621 13.3772 10.2301 13.6265 10.677C13.9515 11.2724 13.7478 11.8821 13.4286 12.1333L12.7847 12.656C12.4597 12.9241 12.5025 13.422 12.5025 13.422C12.5025 13.422 13.4561 17.1082 17.0193 18.0372Z" fill="#7360F2"/>
</svg>
