<svg width="33" height="32" viewBox="0 0 33 32" fill="none" xmlns="http://www.w3.org/2000/svg">
<path fill-rule="evenodd" clip-rule="evenodd" d="M2.75342 12.433C2.75342 14.9629 4.1296 17.2742 6.25643 18.8046C6.44409 18.9295 6.53792 19.1169 6.53792 19.3668C6.53792 19.4293 6.50665 19.523 6.50665 19.5854C6.35026 20.2101 6.06877 21.2408 6.03749 21.272C6.00622 21.3657 5.97494 21.4282 5.97494 21.5219C5.97494 21.7093 6.13132 21.8655 6.31899 21.8655C6.38154 21.8655 6.44409 21.8342 6.50665 21.803L8.72731 20.5224C8.88369 20.4287 9.07135 20.3663 9.25902 20.3663C9.35285 20.3663 9.47795 20.3663 9.57179 20.3975C10.6039 20.7098 11.7299 20.866 12.8871 20.866C18.4857 20.866 23.0209 17.0868 23.0209 12.433C23.0209 7.77923 18.4857 4 12.8871 4C7.28857 4 2.75342 7.77923 2.75342 12.433Z" fill="url(#paint0_linear_32294_24347)"/>
<path fill-rule="evenodd" clip-rule="evenodd" d="M22.329 25.8289C23.2962 25.8289 24.2323 25.703 25.0747 25.4513C25.1371 25.4198 25.2307 25.4198 25.3243 25.4198C25.4804 25.4198 25.6364 25.4827 25.7612 25.5457L27.6021 26.6156C27.6645 26.6471 27.6957 26.6785 27.7581 26.6785C27.9141 26.6785 28.0389 26.5527 28.0389 26.3953C28.0389 26.3324 28.0077 26.2694 28.0077 26.175C28.0077 26.1436 27.7581 25.2939 27.6333 24.759C27.6021 24.696 27.6021 24.6331 27.6021 24.5702C27.6021 24.3814 27.6957 24.224 27.8517 24.0982C29.6302 22.808 30.7534 20.8884 30.7534 18.7486C30.7534 14.8465 26.978 11.6683 22.329 11.6683C17.68 11.6683 13.9046 14.8151 13.9046 18.7486C13.9046 22.6506 17.68 25.8289 22.329 25.8289Z" fill="url(#paint1_linear_32294_24347)"/>
<path fill-rule="evenodd" clip-rule="evenodd" d="M10.8116 9.71039C10.8116 10.4389 10.2361 11.0156 9.50923 11.0156C8.78235 11.0156 8.20691 10.4389 8.20691 9.71039C8.20691 8.98188 8.78235 8.40515 9.50923 8.40515C10.2361 8.40515 10.8116 8.98188 10.8116 9.71039Z" fill="#168743"/>
<path fill-rule="evenodd" clip-rule="evenodd" d="M17.5674 9.71039C17.5674 10.4389 16.9919 11.0156 16.265 11.0156C15.5382 11.0156 14.9627 10.4389 14.9627 9.71039C14.9627 8.98188 15.5382 8.40515 16.265 8.40515C16.9919 8.40515 17.5674 8.98188 17.5674 9.71039Z" fill="#168743"/>
<path fill-rule="evenodd" clip-rule="evenodd" d="M24.079 16.5629C24.079 17.1974 24.5855 17.705 25.2185 17.705C25.8516 17.705 26.3581 17.1974 26.3581 16.5629C26.3581 15.9284 25.8516 15.4208 25.2185 15.4208C24.5855 15.4208 24.079 15.9284 24.079 16.5629Z" fill="#919191"/>
<path fill-rule="evenodd" clip-rule="evenodd" d="M18.4627 16.5629C18.4627 17.1974 18.9692 17.705 19.6023 17.705C20.2353 17.705 20.7418 17.1974 20.7418 16.5629C20.7418 15.9284 20.2353 15.4208 19.6023 15.4208C18.9692 15.4208 18.4627 15.9284 18.4627 16.5629Z" fill="#919191"/>
<defs>
<linearGradient id="paint0_linear_32294_24347" x1="29.8889" y1="25.3519" x2="29.8889" y2="4.099" gradientUnits="userSpaceOnUse">
<stop stop-color="#05CD66"/>
<stop offset="1" stop-color="#61F380"/>
<stop offset="1" stop-color="#9EEE69"/>
</linearGradient>
<linearGradient id="paint1_linear_32294_24347" x1="29.8783" y1="25.2124" x2="29.8783" y2="3.99182" gradientUnits="userSpaceOnUse">
<stop stop-color="#E4E6E6"/>
<stop offset="1" stop-color="#F0F0F0"/>
</linearGradient>
</defs>
</svg>
