<svg width="33" height="32" viewBox="0 0 33 32" fill="none" xmlns="http://www.w3.org/2000/svg">
<path d="M16.7534 30C24.4854 30 30.7534 23.732 30.7534 16C30.7534 8.26801 24.4854 2 16.7534 2C9.02143 2 2.75342 8.26801 2.75342 16C2.75342 23.732 9.02143 30 16.7534 30Z" fill="url(#paint0_linear_32252_24337)"/>
<path fill-rule="evenodd" clip-rule="evenodd" d="M9.09062 15.8522C13.1719 14.074 15.8934 12.9018 17.2551 12.3354C21.1431 10.7183 21.9509 10.4374 22.4775 10.4281C22.5933 10.426 22.8523 10.4547 23.02 10.5908C23.1616 10.7058 23.2006 10.861 23.2193 10.97C23.2379 11.0789 23.2611 11.3272 23.2427 11.5211C23.032 13.7348 22.1203 19.107 21.6565 21.5864C21.4603 22.6355 21.0739 22.9873 20.6998 23.0217C19.8868 23.0965 19.2694 22.4844 18.482 21.9683C17.2498 21.1606 16.5537 20.6578 15.3576 19.8696C13.9754 18.9587 14.8714 18.4581 15.6592 17.6399C15.8653 17.4258 19.4474 14.1676 19.5168 13.872C19.5254 13.835 19.5335 13.6972 19.4516 13.6245C19.3698 13.5517 19.249 13.5766 19.1618 13.5964C19.0382 13.6244 17.0698 14.9255 13.2565 17.4996C12.6978 17.8832 12.1917 18.0702 11.7382 18.0604C11.2384 18.0496 10.2768 17.7777 9.56201 17.5454C8.68526 17.2604 7.98843 17.1097 8.04911 16.6257C8.08071 16.3736 8.42788 16.1157 9.09062 15.8522Z" fill="white"/>
<defs>
<linearGradient id="paint0_linear_32252_24337" x1="16.7534" y1="2" x2="16.7534" y2="29.7923" gradientUnits="userSpaceOnUse">
<stop stop-color="#2AABEE"/>
<stop offset="1" stop-color="#229ED9"/>
</linearGradient>
</defs>
</svg>
