<svg width="32" height="32" viewBox="0 0 32 32" fill="none" xmlns="http://www.w3.org/2000/svg">
<path d="M4.62512 4H27.3748C28.8238 4 29.9998 5.15962 29.9998 6.58458V22.9536C29.9998 24.3786 28.8238 25.5382 27.3748 25.5382H11.0685L6.06185 29.6442C5.90085 29.7769 5.70311 29.8458 5.50011 29.8458C5.37411 29.8458 5.24811 29.8183 5.13086 29.7649C4.82287 29.6236 4.62512 29.3186 4.62512 28.9843V25.5382C3.17789 25.5382 2.00015 24.3786 2.00015 22.9536V6.58458C2.00015 5.15962 3.17789 4 4.62512 4ZM8.03623 10.8761C6.18502 10.8761 5.23519 11.6611 5.23519 12.892C5.23519 14.3653 6.43702 14.7917 7.60008 15.0631C8.59838 15.2957 9.34468 15.4896 9.34468 16.2068C9.34468 16.7011 8.98607 17.0112 8.04592 17.0112C7.12517 17.0112 6.63086 16.5557 6.52425 15.9451H4.98319C5.17704 17.2826 6.23349 18.1452 8.02654 18.1452C10.1007 18.1452 10.9827 17.1469 10.9827 16.0226C10.9827 14.4913 9.62575 13.9485 8.28823 13.6577C7.31901 13.4445 6.87317 13.27 6.87317 12.6982C6.87317 12.2717 7.17363 11.9907 7.99746 11.9907C8.6953 11.9907 9.20899 12.2911 9.28652 12.8145H10.8082C10.624 11.603 9.66452 10.8761 8.03623 10.8761ZM17.8237 13.1925V17.9998H19.2969V11.0215H17.3875L15.5557 16.4685L13.6657 11.0215H11.8048V17.9998H13.1811V13.2022L14.8579 17.9998H16.1857L17.8237 13.1925ZM23.2181 10.8761C21.3669 10.8761 20.4171 11.6611 20.4171 12.892C20.4171 14.3653 21.6189 14.7917 22.782 15.0631C23.7803 15.2957 24.5266 15.4896 24.5266 16.2068C24.5266 16.7011 24.168 17.0112 23.2278 17.0112C22.3071 17.0112 21.8128 16.5557 21.7062 15.9451H20.1651C20.3589 17.2826 21.4154 18.1452 23.2084 18.1452C25.2826 18.1452 26.1646 17.1469 26.1646 16.0226C26.1646 14.4913 24.8077 13.9485 23.4701 13.6577C22.5009 13.4445 22.0551 13.27 22.0551 12.6982C22.0551 12.2717 22.3555 11.9907 23.1794 11.9907C23.8772 11.9907 24.3909 12.2911 24.4684 12.8145H25.9901C25.806 11.603 24.8464 10.8761 23.2181 10.8761Z" fill="#16A693"/>
</svg>
