<svg width="32" height="32" viewBox="0 0 32 32" fill="none" xmlns="http://www.w3.org/2000/svg">
<path d="M7.60001 18.835H18.555V16.735H7.60001V18.835ZM7.60001 14.285H24.4V12.185H7.60001V14.285ZM7.60001 9.73501H24.4V7.63501H7.60001V9.73501ZM2 30V4.1C2 3.56334 2.21 3.07917 2.63 2.6475C3.05 2.21583 3.54 2 4.1 2H27.9C28.4367 2 28.9209 2.21583 29.3525 2.6475C29.7842 3.07917 30 3.56334 30 4.1V22.3C30 22.8367 29.7842 23.3209 29.3525 23.7525C28.9209 24.1842 28.4367 24.4 27.9 24.4H7.60001L2 30Z" fill="#0F0F0F"/>
</svg>
