<svg width="32" height="32" viewBox="0 0 32 32" fill="none" xmlns="http://www.w3.org/2000/svg">
<path d="M30.0044 16.5H25.986C25.7349 19.0267 23.6018 21 21.0075 21H11.0013C8.40697 21 6.27385 19.0267 6.02284 16.5H2.00439C2.26784 24.0004 8.43504 30 16.0044 30C23.5738 30 29.7409 24.0004 30.0044 16.5Z" fill="#0F0F0F"/>
<path d="M30.0044 15.5H25.986C25.7349 12.9733 23.6018 11 21.0075 11H11.0013C8.40697 11 6.27385 12.9733 6.02284 15.5H2.00439C2.26784 7.99959 8.43504 2 16.0044 2C23.5738 2 29.7409 7.99959 30.0044 15.5Z" fill="#0F0F0F"/>
<path d="M13.0025 16C13.0025 17.1046 12.1065 18 11.0012 18C9.89598 18 8.99998 17.1046 8.99998 16C8.99998 14.8954 9.89598 14 11.0012 14C12.1065 14 13.0025 14.8954 13.0025 16Z" fill="#0F0F0F"/>
<path d="M21.0075 18C22.1128 18 23.0088 17.1046 23.0088 16C23.0088 14.8954 22.1128 14 21.0075 14C19.9022 14 19.0062 14.8954 19.0062 16C19.0062 17.1046 19.9022 18 21.0075 18Z" fill="#0F0F0F"/>
</svg>
