<svg width="208" height="32" viewBox="0 0 208 32" fill="none" xmlns="http://www.w3.org/2000/svg">
<g clip-path="url(#clip0_58217_55)">
<mask id="mask0_58217_55" style="mask-type:luminance" maskUnits="userSpaceOnUse" x="0" y="0" width="32" height="32">
<path d="M32 0H0V32H32V0Z" fill="white"/>
</mask>
<g mask="url(#mask0_58217_55)">
<path d="M32 0H0V32H32V0Z" fill="#FFD200"/>
<path d="M8.6443 8.21234L24.1246 15.9101L8.6257 23.7866L18.5946 15.9338L8.6443 8.21234Z" fill="#050504"/>
</g>
<path d="M45.763 19.221L43.0377 10.6478H40.9632L44.6127 21.7203H46.8878L50.5537 10.6478H48.501L45.763 19.221Z" fill="#050504"/>
<path d="M76.1406 19.8682H71.1184V17.1538H75.7852V15.2944H71.1184V12.4999H76.1406V10.6478H69.1733V21.7203H76.1406V19.8682Z" fill="#050504"/>
<path d="M64.4665 21.3886C64.9917 21.035 65.4553 20.5977 65.8392 20.0943C66.0359 19.7777 66.133 19.4094 66.1181 19.0369V13.373C66.1368 12.9982 66.0338 12.6273 65.8246 12.3158C65.6003 11.9985 64.8985 11.2038 64.4883 10.9667C64.1462 10.76 63.7543 10.6498 63.3545 10.6478H58.2849V21.7222H63.3545C63.7471 21.7049 64.1293 21.5903 64.4665 21.3886ZM60.2299 19.8682V12.4999H63.1704C63.2274 12.4959 63.2847 12.5015 63.3399 12.5162C63.6728 12.7216 63.953 13.0019 64.1584 13.3347C64.1679 13.3648 64.1728 13.3962 64.173 13.4278V19.0005C64.173 19.2155 63.617 19.7023 63.3545 19.8481C63.3147 19.8594 63.2736 19.8643 63.2323 19.8627L60.2299 19.8682Z" fill="#050504"/>
<path d="M54.876 10.6478H52.931V21.7277H54.876V10.6478Z" fill="#050504"/>
<path d="M127.553 10.6478V18.0945L123.749 10.6478H121.658V21.7203H123.601V14.3683L127.437 21.7203H129.497V10.6478H127.553Z" fill="#050504"/>
<path d="M108.039 21.7223L105.838 17.2086C106.011 17.1455 106.172 17.0563 106.318 16.9442C106.688 16.6567 107.024 16.3283 107.32 15.9654C107.543 15.6295 107.659 15.2344 107.654 14.8315V13.2035C107.656 12.8023 107.54 12.4092 107.32 12.0734C107.026 11.6969 106.69 11.3555 106.318 11.0561C105.93 10.7927 105.474 10.6499 105.005 10.6459H99.799V21.7223H101.742V17.3599H103.871L105.931 21.735L108.039 21.7223ZM105.709 14.8169C105.707 14.844 105.699 14.8702 105.685 14.8935C105.539 15.1468 105.169 15.5023 105.005 15.5023H101.742V12.4999H105.098C105.281 12.5163 105.578 12.8864 105.685 13.0942C105.702 13.1334 105.71 13.1756 105.709 13.2182V14.8169Z" fill="#050504"/>
<path d="M117.086 10.9048C116.738 10.6959 116.343 10.5809 115.937 10.5712H113.116C112.71 10.5796 112.314 10.6947 111.967 10.9048C111.581 11.1272 110.839 11.9219 110.616 12.2392C110.413 12.5536 110.311 12.9224 110.323 13.2964V19.0988C110.312 19.4699 110.415 19.8354 110.616 20.1471C110.839 20.4643 111.581 21.2664 111.967 21.4815C112.313 21.6932 112.71 21.8101 113.116 21.8205H115.931C116.337 21.8089 116.734 21.692 117.08 21.4815C117.467 21.2664 118.192 20.4643 118.431 20.1471C118.633 19.8353 118.736 19.47 118.727 19.0988V13.2964C118.735 12.9215 118.63 12.5528 118.424 12.2392C118.192 11.9219 117.467 11.1272 117.086 10.9048ZM116.794 19.0752C116.793 19.1023 116.785 19.1287 116.77 19.1517C116.553 19.4656 116.279 19.7354 115.961 19.9466C115.931 19.9561 115.899 19.961 115.869 19.9611H113.192C113.16 19.9625 113.129 19.9575 113.099 19.9466C112.777 19.7379 112.5 19.4677 112.282 19.1517C112.272 19.1277 112.266 19.1016 112.266 19.0752V13.3493C112.266 13.3176 112.272 13.2863 112.282 13.2563C112.5 12.9364 112.777 12.6616 113.099 12.4469C113.116 12.4251 113.192 12.4251 113.192 12.4251H115.863C115.895 12.424 115.927 12.4315 115.955 12.4469C116.273 12.6641 116.547 12.9386 116.765 13.2563C116.789 13.28 116.789 13.3493 116.789 13.3493L116.794 19.0752Z" fill="#050504"/>
<path d="M97.1666 10.6478H89.2186V12.4999H92.221V21.7295H94.1642V12.4999H97.1666V10.6478Z" fill="#050504"/>
<path d="M87.1294 20.1471C87.3264 19.8335 87.4277 19.4692 87.4211 19.0988V13.2964C87.4292 12.9231 87.3278 12.5555 87.1294 12.2392C86.8888 11.9219 86.1632 11.1272 85.7695 10.9048C85.4268 10.6988 85.0371 10.5841 84.6374 10.5712H81.8119C81.4057 10.5789 81.0088 10.694 80.6616 10.9048C80.2696 11.1272 79.5277 11.9219 79.3126 12.2392C79.107 12.5528 79.0015 12.9215 79.01 13.2964V19.0988C79.003 19.4708 79.1085 19.8361 79.3126 20.1471C79.5277 20.4643 80.2696 21.2664 80.6616 21.4815C81.0084 21.694 81.4053 21.8111 81.8119 21.8205H84.6374C85.0406 21.8073 85.4336 21.6905 85.7786 21.4815C86.1632 21.2664 86.8888 20.4588 87.1294 20.1471ZM85.476 19.0752C85.4753 19.1013 85.4704 19.1272 85.4614 19.1517C85.2399 19.4668 84.9603 19.7365 84.6374 19.9466C84.6073 19.956 84.576 19.9609 84.5445 19.9611H81.8812C81.8501 19.9618 81.8192 19.9569 81.79 19.9466C81.4691 19.738 81.1926 19.4679 80.9769 19.1517C80.9623 19.1289 80.9548 19.1023 80.9551 19.0752V13.3493C80.9556 13.3171 80.9631 13.2853 80.9769 13.2563C81.1928 12.9363 81.4689 12.6613 81.79 12.4469C81.8119 12.4251 81.8812 12.4251 81.8812 12.4251H84.5518C84.5841 12.424 84.6163 12.4315 84.6447 12.4469C84.9651 12.6634 85.2421 12.9379 85.4614 13.2563C85.4718 13.2863 85.4767 13.3177 85.476 13.3493V19.0752Z" fill="#050504"/>
<path d="M156.777 21.6216H157.893V16.6362H162.858V15.5669H157.893V11.6563H163.127V10.5798H156.777V21.6216Z" fill="#050504"/>
<path d="M147.513 21.6216H148.626V16.6362H153.587V15.5669H148.626V11.6563H153.864V10.5798H147.513V21.6216Z" fill="#050504"/>
<path d="M141.639 10.5798H139.955L136.266 21.5834V21.6216H137.432L138.279 19.0707H143.327L144.142 21.5998V21.6216H145.334L141.647 10.5961L141.639 10.5798ZM140.893 11.6799L142.978 17.996H138.618L140.686 11.6799H140.893Z" fill="#050504"/>
<path d="M206.774 16.2588L201.769 14.868C201.607 14.809 201.466 14.7 201.368 14.5567C201.27 14.4133 201.221 14.2428 201.225 14.0693V12.9255C201.229 12.8465 201.253 12.7698 201.294 12.7022C201.582 12.265 201.969 11.9017 202.424 11.642C202.493 11.6073 202.57 11.5917 202.647 11.5966H205.23C205.307 11.5921 205.384 11.6104 205.451 11.6492C205.904 11.9407 206.283 12.3328 206.56 12.7948C206.608 12.8678 206.649 12.9449 206.683 13.0254L206.697 13.0489L207.787 12.7258H207.818L207.802 12.7022C207.683 12.4481 207.543 12.205 207.381 11.976C207.165 11.6928 206.654 11.0682 206.234 10.8159C205.949 10.6415 205.623 10.541 205.288 10.5236H202.563C202.229 10.539 201.903 10.6396 201.617 10.8159C201.134 11.1829 200.705 11.6176 200.345 12.1068C200.184 12.3808 200.106 12.6965 200.122 13.0144V14.1437C200.122 14.9806 200.591 15.7032 201.275 15.8957L206.295 17.27C206.657 17.3625 206.865 17.762 206.865 18.1015V19.2797C206.863 19.3573 206.845 19.4335 206.81 19.503C206.513 19.9456 206.122 20.3175 205.666 20.5924C205.601 20.6253 205.529 20.6408 205.457 20.6377H202.551C202.466 20.6417 202.383 20.6262 202.305 20.5924C201.858 20.2906 201.481 19.8977 201.198 19.4394C201.145 19.3778 201.103 19.3079 201.074 19.2325V19.2089L200.005 19.5103H199.974L199.99 19.5412C200.102 19.7918 200.239 20.0308 200.398 20.2546C200.606 20.5397 201.125 21.1533 201.535 21.4166C201.829 21.5934 202.161 21.6957 202.504 21.7143H205.55C205.885 21.6982 206.21 21.5956 206.494 21.4166C206.979 21.0592 207.408 20.6309 207.766 20.1457C207.933 19.8733 208.014 19.557 207.998 19.238V17.9943C207.967 17.1647 207.475 16.4584 206.774 16.2588Z" fill="#050504"/>
<path d="M190.751 21.6216H197.102V20.5395H191.866V16.6362H196.827V15.5669H191.866V11.6563H197.102V10.5798H190.751V21.6216Z" fill="#050504"/>
<path d="M186.27 16.413C186.617 16.1279 186.933 15.8058 187.209 15.4527C187.399 15.1683 187.497 14.8336 187.493 14.4922V12.8765C187.496 12.533 187.398 12.1963 187.209 11.9088C186.93 11.5509 186.616 11.2224 186.27 10.9285C185.951 10.6957 185.567 10.5687 185.171 10.5654H180.2V21.6217H181.315V16.7653H184.022L186.721 21.6072V21.6217H187.992L185.255 16.7653C185.623 16.7598 185.978 16.6363 186.27 16.413ZM181.319 11.6546H185.155C185.258 11.644 185.362 11.6629 185.455 11.7091C185.817 11.9379 186.12 12.249 186.339 12.6169C186.374 12.7158 186.386 12.8213 186.376 12.9255V14.4614C186.385 14.5629 186.371 14.665 186.337 14.7609C186.115 15.1168 185.813 15.4149 185.453 15.6306C185.361 15.6801 185.257 15.7039 185.153 15.6995H181.319V11.6546Z" fill="#050504"/>
<path d="M176.906 10.5798H175.791V21.6216H176.906V10.5798Z" fill="#050504"/>
<path d="M169.917 10.5798H168.233L164.542 21.5834V21.6216H165.71L166.557 19.0707H171.608L172.431 21.5998V21.6216H173.623L169.925 10.5961L169.917 10.5798ZM169.17 11.6799L171.256 17.996H166.896L168.963 11.6799H169.17Z" fill="#050504"/>
</g>
<defs>
<clipPath id="clip0_58217_55">
<rect width="208" height="32" fill="white"/>
</clipPath>
</defs>
</svg>
