<svg width="120" height="120" viewBox="0 0 120 120" fill="none" xmlns="http://www.w3.org/2000/svg">
<path d="M67.1653 94.95C66.475 94.95 65.9153 95.5097 65.9153 96.2C65.9153 96.8904 66.475 97.45 67.1653 97.45V94.95ZM96.1653 48.2L95.1245 47.5078C94.9881 47.7129 94.9153 47.9537 94.9153 48.2H96.1653ZM110.065 27.3L109.038 26.5885C109.033 26.5949 109.029 26.6013 109.024 26.6078L110.065 27.3ZM75.0653 26L76.1046 26.6946C76.1098 26.6868 76.1149 26.679 76.1199 26.6711L75.0653 26ZM61.5653 46.2L62.5931 46.9115C62.5969 46.9059 62.6008 46.9003 62.6046 46.8946L61.5653 46.2ZM25.5153 48.2C25.5153 47.5097 24.9557 46.95 24.2653 46.95C23.575 46.95 23.0153 47.5097 23.0153 48.2H25.5153ZM55.1252 42.8934C55.5082 43.4678 56.2843 43.623 56.8587 43.2401C57.4331 42.8571 57.5883 42.081 57.2054 41.5066L55.1252 42.8934ZM45.3653 26L44.3107 26.6711C44.3155 26.6786 44.3203 26.686 44.3252 26.6934L45.3653 26ZM10.2653 27.4L9.21384 28.076C9.21734 28.0814 9.22089 28.0868 9.22448 28.0922L10.2653 27.4ZM23.1245 48.9922C23.5068 49.5671 24.2827 49.7231 24.8575 49.3408C25.4324 48.9585 25.5884 48.1826 25.2061 47.6078L23.1245 48.9922ZM68.1653 46.95C67.475 46.95 66.9153 47.5097 66.9153 48.2C66.9153 48.8904 67.475 49.45 68.1653 49.45V46.95ZM89.1653 49.45C89.8557 49.45 90.4153 48.8904 90.4153 48.2C90.4153 47.5097 89.8557 46.95 89.1653 46.95V49.45ZM31.1653 46.95C30.475 46.95 29.9153 47.5097 29.9153 48.2C29.9153 48.8904 30.475 49.45 31.1653 49.45V46.95ZM53.1653 49.45C53.8557 49.45 54.4153 48.8904 54.4153 48.2C54.4153 47.5097 53.8557 46.95 53.1653 46.95V49.45ZM67.1653 97.45H92.1653V94.95H67.1653V97.45ZM92.1653 97.45C95.0557 97.45 97.4153 95.0904 97.4153 92.2H94.9153C94.9153 93.7097 93.675 94.95 92.1653 94.95V97.45ZM97.4153 92.2V48.2H94.9153V92.2H97.4153ZM97.2061 48.8922L111.106 27.9922L109.024 26.6078L95.1245 47.5078L97.2061 48.8922ZM111.093 28.0115C112.61 25.8208 110.898 22.95 108.365 22.95V25.45C108.668 25.45 108.92 25.6146 109.058 25.8658C109.194 26.1133 109.186 26.3738 109.038 26.5885L111.093 28.0115ZM108.365 22.95H78.3653V25.45H108.365V22.95ZM78.3653 22.95C76.646 22.95 74.9445 23.8616 74.0107 25.3289L76.1199 26.6711C76.5862 25.9384 77.4846 25.45 78.3653 25.45V22.95ZM74.026 25.3054L60.526 45.5054L62.6046 46.8946L76.1046 26.6946L74.026 25.3054ZM60.5376 45.4885C59.4675 47.0342 59.0153 48.8943 59.0153 50.6H61.5153C61.5153 49.3057 61.8632 47.9658 62.5931 46.9115L60.5376 45.4885ZM59.0153 50.6V92.2H61.5153V50.6H59.0153ZM59.0153 92.2C59.0153 93.7097 57.775 94.95 56.2653 94.95V97.45C59.1557 97.45 61.5153 95.0904 61.5153 92.2H59.0153ZM56.2653 94.95H28.2653V97.45H56.2653V94.95ZM28.2653 94.95C26.7557 94.95 25.5153 93.7097 25.5153 92.2H23.0153C23.0153 95.0904 25.375 97.45 28.2653 97.45V94.95ZM25.5153 92.2V48.2H23.0153V92.2H25.5153ZM57.2054 41.5066L46.4054 25.3066L44.3252 26.6934L55.1252 42.8934L57.2054 41.5066ZM46.4199 25.3289C45.4862 23.8616 43.7846 22.95 42.0653 22.95V25.45C42.946 25.45 43.8445 25.9384 44.3107 26.6711L46.4199 25.3289ZM42.0653 22.95H11.9653V25.45H42.0653V22.95ZM11.9653 22.95C9.36039 22.95 7.78771 25.8575 9.21384 28.076L11.3168 26.7241C10.9429 26.1425 11.3702 25.45 11.9653 25.45V22.95ZM9.22448 28.0922L23.1245 48.9922L25.2061 47.6078L11.3061 26.7078L9.22448 28.0922ZM68.1653 49.45H89.1653V46.95H68.1653V49.45ZM31.1653 49.45H53.1653V46.95H31.1653V49.45Z" fill="url(#paint0_linear_4_1740)"/>
<defs>
<linearGradient id="paint0_linear_4_1740" x1="60.1653" y1="24.2" x2="60.1653" y2="96.2" gradientUnits="userSpaceOnUse">
<stop stop-color="#FFBE4F"/>
<stop offset="1" stop-color="#93C437"/>
</linearGradient>
</defs>
</svg>
