<svg width="120" height="120" viewBox="0 0 120 120" fill="none" xmlns="http://www.w3.org/2000/svg">
<path d="M47.87 47.0761L47.0985 47.8378C46.6713 48.2602 46.3321 48.7631 46.1006 49.3175C45.8691 49.8718 45.7499 50.4666 45.7499 51.0673C45.7286 54.1246 46.3226 57.155 47.4964 59.978C48.6703 62.8011 50.4001 65.3591 52.5829 67.4999C56.8408 71.7143 62.556 74.1306 68.5457 74.2489C68.5789 74.2489 68.6112 74.2499 68.6444 74.2499C69.8423 74.2425 70.9894 73.7656 71.8397 72.9218L72.9022 71.8701C73.329 71.4496 73.668 70.9485 73.8993 70.3958C74.1307 69.8431 74.2498 69.25 74.2498 68.6508C74.2498 68.0517 74.1307 67.4585 73.8993 66.9058C73.668 66.3532 73.329 65.852 72.9022 65.4316L70.5457 63.1005C69.6821 62.2523 68.52 61.777 67.3094 61.777C66.0989 61.777 64.9367 62.2523 64.0731 63.1005L62.6014 64.5566C62.4088 64.7437 62.1658 64.8705 61.9021 64.9217C61.6385 64.9729 61.3657 64.9461 61.117 64.8447C59.7961 64.3112 58.5944 63.5205 57.5819 62.5185C56.4453 61.4008 55.5766 60.0403 55.0409 58.539C54.9585 58.305 54.9443 58.0525 55 57.8108C55.0556 57.569 55.1789 57.3481 55.3553 57.1738L56.6981 55.8466C57.1249 55.426 57.4639 54.9247 57.6952 54.3718C57.9266 53.819 58.0457 53.2257 58.0457 52.6264C58.0457 52.0271 57.9266 51.4338 57.6952 50.881C57.4639 50.3282 57.1249 49.8268 56.6981 49.4062L54.3407 47.0771C53.4775 46.2288 52.3158 45.7533 51.1055 45.7531C49.8953 45.7529 48.7334 46.228 47.87 47.0761ZM54.9403 51.1845C55.132 51.3726 55.2843 51.5971 55.3882 51.8447C55.4922 52.0924 55.5457 52.3583 55.5457 52.6269C55.5457 52.8955 55.4922 53.1614 55.3882 53.4091C55.2843 53.6567 55.132 53.8812 54.9403 54.0693L53.5975 55.3964C53.0837 55.906 52.7254 56.5511 52.5642 57.2565C52.4031 57.962 52.4458 58.6987 52.6873 59.3808C53.3481 61.2351 54.4205 62.9155 55.8241 64.2958C57.0713 65.5312 58.5523 66.5056 60.1805 67.162C60.8818 67.447 61.6512 67.5205 62.3938 67.3733C63.1364 67.2262 63.8196 66.8648 64.3592 66.3339L65.8309 64.8779C66.2253 64.4902 66.7563 64.2729 67.3094 64.2729C67.8625 64.2729 68.3934 64.4902 68.7879 64.8779L71.1443 67.2089C71.3361 67.3969 71.4883 67.6213 71.5923 67.8688C71.6963 68.1164 71.7498 68.3823 71.7498 68.6508C71.7498 68.9193 71.6963 69.1851 71.5923 69.4327C71.4883 69.6803 71.3361 69.9047 71.1443 70.0927L70.0828 71.1435C69.893 71.3438 69.6628 71.5014 69.4073 71.6058C69.1519 71.7102 68.8772 71.759 68.6014 71.749C63.2507 71.6443 58.1449 69.4867 54.3407 65.7226C52.3953 63.815 50.8535 61.5355 49.8071 59.0198C48.7608 56.5041 48.2312 53.8036 48.2499 51.079C48.2494 50.8071 48.3028 50.5378 48.4069 50.2865C48.511 50.0353 48.6637 49.8071 48.8563 49.6152L49.6258 48.8554L49.6268 48.8544C50.0212 48.467 50.552 48.2499 51.1049 48.2499C51.6577 48.2499 52.1885 48.467 52.5829 48.8544L54.9403 51.1845Z" fill="black"/>
<path d="M65.5506 5.02533C64.6964 4.94267 63.8343 5.03949 63.0196 5.30958C62.205 5.57966 61.4558 6.01706 60.8202 6.59369C60.169 7.18381 59.6484 7.90359 59.2918 8.70682C58.9353 9.51004 58.7507 10.379 58.7499 11.2578C58.7476 12.8074 59.3226 14.3023 60.3627 15.451C61.4029 16.5996 62.8336 17.3197 64.3759 17.4706C73.9661 18.4143 82.9513 22.5879 89.8586 29.3073C96.766 36.0268 101.186 44.8935 102.393 54.454C102.465 54.9951 102.42 55.5451 102.262 56.0674C102.104 56.5898 101.837 57.0724 101.477 57.4833C101.13 57.8838 100.699 58.2043 100.216 58.4229C99.7328 58.6415 99.208 58.7531 98.6776 58.7499C97.7532 58.7462 96.8626 58.4025 96.1755 57.7841C95.4884 57.1658 95.0528 56.3162 94.952 55.3974C93.9375 47.9554 90.5873 41.0274 85.3839 35.6111C80.1804 30.1948 73.3923 26.5697 65.9969 25.2578C65.1122 25.1076 64.2053 25.1526 63.3398 25.3896C62.4743 25.6266 61.671 26.0499 60.9862 26.6298C60.074 27.3948 59.399 28.4042 59.0404 29.5394C58.6818 30.6746 58.6545 31.8886 58.9617 33.0388C59.2689 34.1889 59.8978 35.2276 60.7746 36.0329C61.6515 36.8382 62.7398 37.3766 63.912 37.5849C68.951 38.4659 73.5462 41.0189 76.9562 44.832C80.3662 48.6451 82.392 53.4959 82.7067 58.6016C83.0215 63.7073 81.6068 68.7702 78.691 72.9733C75.7751 77.1763 71.5283 80.2744 66.6356 81.7676C66.4786 81.8154 66.3326 81.8937 66.2059 81.9979C66.0792 82.1022 65.9742 82.2304 65.8971 82.3752C65.8199 82.5201 65.772 82.6786 65.7561 82.842C65.7403 83.0053 65.7567 83.1702 65.8045 83.3271C65.8524 83.4841 65.9307 83.6301 66.0349 83.7568C66.1392 83.8836 66.2674 83.9885 66.4122 84.0657C66.557 84.1428 66.7156 84.1907 66.879 84.2066C67.0423 84.2225 67.2071 84.206 67.3641 84.1582C72.7947 82.5013 77.5086 79.0628 80.7451 74.3978C83.9815 69.7327 85.5515 64.1132 85.2019 58.4462C84.8523 52.7793 82.6033 47.3954 78.818 43.1636C75.0327 38.9317 69.9318 36.0988 64.3387 35.1221C63.4716 34.9714 62.6857 34.5187 62.1203 33.8441C61.555 33.1695 61.2466 32.3166 61.2499 31.4365C61.2495 30.8847 61.37 30.3396 61.6028 29.8394C61.8356 29.3392 62.1752 28.896 62.5975 28.541C63.0034 28.1946 63.4806 27.9417 63.9952 27.8003C64.5097 27.6588 65.0491 27.6323 65.5751 27.7226C72.4453 28.9411 78.7514 32.3086 83.5853 37.3403C88.4192 42.372 91.5314 48.8081 92.4735 55.7216C92.6636 57.2378 93.3971 58.6336 94.5379 59.6502C95.6788 60.6668 97.1496 61.2352 98.6776 61.2499C99.563 61.25 100.438 61.0611 101.245 60.696C102.052 60.3309 102.771 59.798 103.355 59.1328C103.949 58.455 104.391 57.6585 104.653 56.7963C104.914 55.9341 104.989 55.0261 104.872 54.1328C103.594 44.0122 98.9153 34.6262 91.6033 27.5132C84.2913 20.4003 74.7797 15.9826 64.6278 14.9843C63.7023 14.8941 62.8436 14.4624 62.2191 13.7734C61.5946 13.0845 61.2491 12.1876 61.2499 11.2578C61.2504 10.7282 61.3616 10.2047 61.5764 9.72069C61.7911 9.23669 62.1047 8.80292 62.4969 8.44721C62.8708 8.10032 63.3147 7.83751 63.7986 7.67648C64.2826 7.51544 64.7954 7.45991 65.3026 7.51361C78.3265 8.78379 90.408 14.8676 99.1833 24.5749C107.959 34.2821 112.796 46.9143 112.75 59.9999C112.75 60.3315 112.882 60.6494 113.116 60.8838C113.35 61.1182 113.668 61.2499 114 61.2499C114.331 61.2499 114.649 61.1182 114.884 60.8838C115.118 60.6494 115.25 60.3315 115.25 59.9999C115.298 46.2937 110.23 33.0625 101.039 22.8951C91.8469 12.7277 79.1923 6.35556 65.5506 5.02533Z" fill="black"/>
<path d="M21.3221 61.2499C22.2465 61.2536 23.1371 61.5974 23.8242 62.2157C24.5114 62.8341 24.9469 63.6836 25.0477 64.6025C26.0622 72.0445 29.4124 78.9725 34.6158 84.3888C39.8193 89.8051 46.6074 93.4302 54.0028 94.7421C54.8875 94.8928 55.7945 94.848 56.6601 94.611C57.5257 94.374 58.329 93.9504 59.0135 93.3701C59.9257 92.605 60.6007 91.5957 60.9593 90.4605C61.3179 89.3253 61.3452 88.1113 61.038 86.9611C60.7308 85.8109 60.1019 84.7723 59.2251 83.967C58.3482 83.1617 57.2599 82.6233 56.0877 82.4149C51.0487 81.534 46.4535 78.981 43.0435 75.1679C39.6335 71.3548 37.6077 66.504 37.293 61.3983C36.9782 56.2925 38.3929 51.2297 41.3087 47.0266C44.2246 42.8236 48.4715 39.7255 53.3641 38.2323C53.6811 38.1357 53.9468 37.9171 54.1026 37.6247C54.2585 37.3322 54.2918 36.9898 54.1952 36.6728C54.0986 36.3557 53.88 36.0901 53.5875 35.9342C53.295 35.7784 52.9526 35.7451 52.6356 35.8417C47.205 37.4986 42.4911 40.9371 39.2546 45.6021C36.0182 50.2672 34.4482 55.8867 34.7978 61.5536C35.1474 67.2206 37.3964 72.6045 41.1817 76.8363C44.967 81.0682 50.0679 83.9011 55.661 84.8778C56.5281 85.0285 57.314 85.4812 57.8794 86.1558C58.4447 86.8304 58.7531 87.6833 58.7499 88.5634C58.7502 89.1152 58.6297 89.6603 58.3969 90.1605C58.1641 90.6607 57.8246 91.1039 57.4022 91.4589C56.9958 91.8046 56.5186 92.057 56.0042 92.1983C55.4898 92.3397 54.9506 92.3667 54.4247 92.2773C47.5545 91.0588 41.2483 87.6912 36.4144 82.6596C31.5805 77.6279 28.4684 71.1918 27.5262 64.2783C27.3361 62.7621 26.6026 61.3663 25.4618 60.3497C24.3209 59.3331 22.8501 58.7647 21.3221 58.7499C20.4367 58.7499 19.5615 58.9388 18.7548 59.3039C17.9482 59.669 17.2287 60.2019 16.6444 60.8671C16.0507 61.5449 15.6084 62.3414 15.3469 63.2036C15.0853 64.0658 15.0106 64.9738 15.1278 65.8671C16.4059 75.9877 21.0844 85.3737 28.3964 92.4866C35.7084 99.5996 45.22 104.017 55.3719 105.016C56.2974 105.106 57.1561 105.538 57.7806 106.226C58.4051 106.915 58.7506 107.812 58.7499 108.742C58.7493 109.272 58.6381 109.795 58.4233 110.279C58.2086 110.763 57.895 111.197 57.5028 111.553C57.1284 111.899 56.6845 112.161 56.2006 112.322C55.7168 112.483 55.2043 112.539 54.6971 112.486C41.6732 111.216 29.5917 105.132 20.8165 95.425C12.0412 85.7177 7.20348 73.0856 7.24985 59.9999C7.24985 59.6684 7.11815 59.3505 6.88373 59.1161C6.64931 58.8816 6.33137 58.7499 5.99985 58.7499C5.66833 58.7499 5.35039 58.8816 5.11597 59.1161C4.88155 59.3505 4.74985 59.6684 4.74985 59.9999C4.70178 73.7062 9.76933 86.9373 18.9611 97.1048C28.1528 107.272 40.8074 113.644 54.4491 114.975C54.6493 114.994 54.8495 115.004 55.0497 115.004C56.5767 115.002 58.0485 114.432 59.1795 113.406C59.8307 112.816 60.3513 112.096 60.7079 111.293C61.0644 110.49 61.249 109.621 61.2499 108.742C61.2521 107.193 60.6771 105.698 59.637 104.549C58.5968 103.4 57.1661 102.68 55.6239 102.529C46.0336 101.586 37.0485 97.412 30.1411 90.6926C23.2337 83.9731 18.814 75.1064 17.6063 65.5458C17.535 65.0048 17.5799 64.4548 17.7378 63.9325C17.8958 63.4101 18.1632 62.9274 18.5223 62.5165C18.8701 62.1161 19.3004 61.7956 19.7837 61.577C20.2669 61.3584 20.7917 61.2468 21.3221 61.2499Z" fill="black"/>
</svg>
