<svg width="120" height="120" viewBox="0 0 120 120" fill="none" xmlns="http://www.w3.org/2000/svg">
<path d="M79.4944 104.4C79.4944 105.09 80.054 105.65 80.7444 105.65C81.4347 105.65 81.9944 105.09 81.9944 104.4H79.4944ZM88.7444 34.1L89.7845 33.4066L89.78 33.4L88.7444 34.1ZM76.6444 16.2L77.68 15.4999L77.6721 15.4885L76.6444 16.2ZM73.1444 16.4L74.2599 16.964L74.2624 16.959L73.1444 16.4ZM68.6444 25.3V26.55C69.1158 26.55 69.5472 26.2847 69.7599 25.864L68.6444 25.3ZM59.6444 25.3L58.7605 26.1839C58.9949 26.4183 59.3129 26.55 59.6444 26.55V25.3ZM50.1444 15.8L49.2605 16.6839L50.1444 15.8ZM46.8444 16.7L48.0554 17.0096C48.0609 16.9882 48.0658 16.9667 48.0701 16.9451L46.8444 16.7ZM37.7444 52.3L36.5333 51.9904L36.5317 51.9968L37.7444 52.3ZM21.8153 83.4638C21.3534 83.9769 21.395 84.7673 21.9082 85.2291C22.4213 85.6909 23.2117 85.6493 23.6735 85.1362L21.8153 83.4638ZM81.9944 104.4V85.4H79.4944V104.4H81.9944ZM81.9944 85.4C81.9944 78.4125 85.6772 73.9823 89.6898 69.3427C93.6437 64.771 97.9944 59.9327 97.9944 52.4H95.4944C95.4944 58.8673 91.845 63.029 87.7989 67.7073C83.8116 72.3177 79.4944 77.3875 79.4944 85.4H81.9944ZM97.9944 52.4C97.9944 49.1313 96.9078 45.8589 95.3678 42.702C93.8265 39.5423 91.7823 36.4034 89.7844 33.4066L87.7043 34.7934C89.7065 37.7966 91.6622 40.8077 93.1209 43.798C94.581 46.7911 95.4944 49.6687 95.4944 52.4H97.9944ZM89.78 33.4L77.68 15.5L75.6088 16.9L87.7088 34.8L89.78 33.4ZM77.6721 15.4885C76.2602 13.4491 73.1737 13.5462 72.0264 15.841L74.2624 16.959C74.515 16.4538 75.2285 16.3509 75.6166 16.9115L77.6721 15.4885ZM72.0289 15.836L67.5289 24.736L69.7599 25.864L74.2599 16.964L72.0289 15.836ZM68.6444 24.05H59.6444V26.55H68.6444V24.05ZM60.5283 24.4161L51.0283 14.9161L49.2605 16.6839L58.7605 26.1839L60.5283 24.4161ZM51.0283 14.9161C49.3004 13.1882 46.1358 13.8694 45.6187 16.4548L48.0701 16.9451C48.1171 16.7103 48.2772 16.5472 48.5194 16.482C48.7682 16.415 49.0484 16.4718 49.2605 16.6839L51.0283 14.9161ZM45.6333 16.3904L36.5333 51.9904L38.9554 52.6096L48.0554 17.0096L45.6333 16.3904ZM36.5317 51.9968C33.5404 63.9621 30.5985 73.7047 21.8153 83.4638L23.6735 85.1362C32.8903 74.8953 35.9484 64.6379 38.9571 52.6032L36.5317 51.9968Z" fill="url(#paint0_linear_4_2948)"/>
<path d="M78.6445 46.4001C79.7491 46.4001 80.6445 45.5047 80.6445 44.4001C80.6445 43.2956 79.7491 42.4001 78.6445 42.4001C77.54 42.4001 76.6445 43.2956 76.6445 44.4001C76.6445 45.5047 77.54 46.4001 78.6445 46.4001Z" fill="#D7598A"/>
<path d="M60.6445 46.4001C61.7491 46.4001 62.6445 45.5047 62.6445 44.4001C62.6445 43.2956 61.7491 42.4001 60.6445 42.4001C59.54 42.4001 58.6445 43.2956 58.6445 44.4001C58.6445 45.5047 59.54 46.4001 60.6445 46.4001Z" fill="#D7598A"/>
<defs>
<linearGradient id="paint0_linear_4_2948" x1="59.7444" y1="15.2057" x2="59.7444" y2="104.4" gradientUnits="userSpaceOnUse">
<stop stop-color="#F55868"/>
<stop offset="1" stop-color="#875AE0"/>
</linearGradient>
</defs>
</svg>
