<svg width="120" height="120" viewBox="0 0 120 120" fill="none" xmlns="http://www.w3.org/2000/svg">
<path d="M108.5 60.1C105.547 56.9562 101.505 55.0601 97.1998 54.8C96.9552 47.3754 94.2277 40.2472 89.4534 34.5559C84.6792 28.8645 78.1341 24.9388 70.8651 23.4066C63.5961 21.8745 56.0233 22.8245 49.3581 26.1047C42.6928 29.3849 37.3202 34.8057 34.0998 41.5C34.033 41.6443 33.9955 41.8004 33.9896 41.9593C33.9836 42.1182 34.0093 42.2766 34.0651 42.4255C34.121 42.5744 34.2058 42.7106 34.3148 42.8264C34.4237 42.9422 34.5546 43.0352 34.6998 43.1C35.0057 43.2392 35.3537 43.2544 35.6707 43.1425C35.9876 43.0307 36.2489 42.8004 36.3998 42.5C38.8852 37.2951 42.8 32.9047 47.6871 29.8414C52.5743 26.7781 58.232 25.1683 63.9998 25.2C71.9474 25.2198 79.5798 28.311 85.3012 33.8274C91.0226 39.3438 94.3901 46.8584 94.6998 54.8C87.1998 55.1 83.0998 58.6 81.7998 61.8C81.2629 62.9741 81.0996 64.2847 81.3322 65.5546C81.5647 66.8245 82.1817 67.9923 83.0998 68.9C84.2896 70.1034 85.9076 70.7865 87.5998 70.8C88.4986 70.782 89.3839 70.5777 90.1998 70.2C93.3998 68.9 96.8998 64.8 97.1998 57.3C100.801 57.6224 104.169 59.2179 106.7 61.8C108.072 63.2501 109.134 64.9644 109.822 66.8384C110.509 68.7123 110.808 70.7068 110.7 72.7C110.493 76.5639 108.791 80.1957 105.954 82.8272C103.117 85.4587 99.3683 86.8835 95.4998 86.8H28.4998C18.1998 86.8 9.59976 78.6 9.29976 68.7C9.17585 66.1814 9.57379 63.6644 10.4686 61.3068C11.3635 58.9493 12.7359 56.8021 14.4998 55C16.7748 52.5921 19.6547 50.8393 22.8386 49.9246C26.0225 49.0099 29.3936 48.9668 32.5998 49.8C32.7574 49.8447 32.9226 49.8566 33.0851 49.8351C33.2476 49.8135 33.4039 49.7588 33.5445 49.6745C33.685 49.5902 33.8068 49.4779 33.9023 49.3447C33.9978 49.2115 34.065 49.0602 34.0998 48.9C34.1424 48.5849 34.0764 48.2648 33.9129 47.9921C33.7493 47.7195 33.4978 47.5107 33.1998 47.4C31.4939 47.0086 29.7499 46.8074 27.9998 46.8C25.139 46.7695 22.3022 47.3239 19.6634 48.4291C17.0246 49.5343 14.6394 51.167 12.6542 53.2271C10.6691 55.2871 9.12578 57.7311 8.11904 60.409C7.11231 63.087 6.66336 65.9424 6.79976 68.8C7.19976 80.1 16.8998 89.2 28.4998 89.2H95.4998C99.998 89.285 104.354 87.6243 107.654 84.5666C110.955 81.5088 112.942 77.2916 113.2 72.8C113.347 70.4723 113.004 68.1396 112.195 65.9522C111.385 63.7649 110.127 61.7713 108.5 60.1V60.1ZM89.2998 67.9C88.572 68.2476 87.7544 68.361 86.9595 68.2246C86.1646 68.0882 85.4316 67.7088 84.8613 67.1385C84.291 66.5682 83.9115 65.8352 83.7752 65.0403C83.6388 64.2454 83.7522 63.4278 84.0998 62.7C85.0998 60.4 88.3998 57.6 94.6998 57.3C94.3998 63.6 91.5998 66.9 89.2998 67.9Z" fill="url(#paint0_linear_4_891)"/>
<defs>
<linearGradient id="paint0_linear_4_891" x1="60.0044" y1="22.6928" x2="60.0044" y2="89.2031" gradientUnits="userSpaceOnUse">
<stop stop-color="#3CC29A"/>
<stop offset="1" stop-color="#93C437"/>
</linearGradient>
</defs>
</svg>
