<svg width="321" height="320" viewBox="0 0 321 320" fill="none" xmlns="http://www.w3.org/2000/svg">
<path d="M131.256 94.7196C131.256 94.7196 129.056 101.52 128.256 103.72C127.256 106.72 129.256 107.72 131.256 107.72H133.256M163.256 93.7196C157.256 93.7196 153.256 89.7196 149.256 85.7196C145.256 81.7196 141.256 77.7196 134.256 77.7196C127.056 77.7196 121.256 83.5196 121.256 90.7196V110.72C121.256 118.92 128.056 125.62 136.256 125.72C152.056 125.92 164.756 111.32 165.256 103.12C165.356 101.02 163.756 98.9196 161.656 98.7196C159.256 98.5196 157.256 100.32 157.256 102.72V124.72C157.256 129.12 160.856 132.72 165.256 132.72H168.356C174.756 132.72 180.856 135.12 185.456 139.52L197.856 151.42C198.656 152.12 199.856 152.12 200.656 151.42L225.256 127.72C225.256 118.52 233.956 113.52 238.156 111.62C239.356 111.02 240.856 111.32 241.856 112.32C243.156 113.62 243.156 115.82 241.656 117.12L236.256 121.82C239.156 126.72 238.256 135.42 231.756 139.52C231.456 139.72 231.256 140.02 231.256 140.32V147.72C231.256 148.82 232.156 149.72 233.256 149.72H274.256M117.256 82.7196C117.256 73.9196 124.456 66.7196 133.256 66.7196C138.256 66.7196 150.256 66.7196 150.256 66.7196C161.256 66.7196 170.256 75.7196 170.256 86.7196V93.7196M175.256 271.72H135.256C134.156 271.72 133.256 270.82 133.256 269.72V259.72C133.256 258.62 134.156 257.72 135.256 257.72H155.256C161.856 257.72 167.256 252.32 167.256 245.72V203.72C167.256 197.12 161.856 191.72 155.256 191.72H91.2559C84.6559 191.72 79.2559 197.12 79.2559 203.72V245.72C79.2559 252.32 84.6559 257.72 91.2559 257.72H111.256C112.356 257.72 113.256 258.62 113.256 259.72V269.72C113.256 270.82 112.356 271.72 111.256 271.72H78.2559C51.7559 271.72 30.2559 250.22 30.2559 223.72C30.2559 197.22 51.7559 175.72 78.2559 175.72H196.256M175.256 271.72L192.656 237.02C196.756 228.92 205.056 223.72 214.156 223.72H221.856C224.856 223.72 227.356 221.22 227.356 218.22C227.356 215.22 224.856 212.72 221.856 212.72H216.256C211.256 212.72 207.356 208.52 207.356 203.52V195.72C207.356 194.62 206.456 193.72 205.356 193.72H203.356C201.356 193.72 198.356 192.72 200.356 186.72L203.356 177.72C207.456 165.52 215.356 159.72 227.356 159.72C240.656 159.72 251.356 170.42 251.356 183.72C251.356 193.72 247.356 196.72 247.356 208.72M175.256 271.72C171.556 279.12 176.256 284.72 181.256 284.72C184.056 284.72 186.256 282.52 186.256 279.72C186.256 275.72 182.256 271.72 175.256 271.72ZM52.2559 175.72H38.2559C33.8559 175.72 30.2559 172.12 30.2559 167.72V134.72C30.2559 130.32 33.8559 126.72 38.2559 126.72H82.2559C86.6559 126.72 90.2559 130.32 90.2559 134.72V160.72C100.256 160.72 108.256 132.72 132.256 132.72H136.256M231.256 107.72V85.7196C231.256 84.6196 232.156 83.7196 233.256 83.7196H265.456C265.956 83.7196 266.456 83.9196 266.856 84.3196L277.656 95.1196C278.056 95.5196 278.256 96.0196 278.256 96.5196V115.72M265.256 84.7196V96.7196H277.256M236.356 195.72C239.756 195.72 242.456 192.92 242.356 189.52C242.256 186.22 239.356 183.72 236.156 183.72H233.456C232.156 183.72 230.856 183.22 229.956 182.22L228.456 180.72C226.656 178.92 226.156 176.12 227.356 173.82L228.956 170.62C229.656 169.32 228.656 167.72 227.156 167.72H217.356M247.256 208.72C247.256 217.02 253.956 223.72 262.256 223.72C274.256 223.72 290.256 207.72 290.256 179.72C290.256 162.52 282.956 145.32 268.356 129.82C267.256 128.62 267.256 126.72 268.456 125.62C269.556 124.52 271.256 124.42 272.456 125.32L278.356 129.72V115.72C284.956 115.72 290.356 121.12 290.356 127.72V135.72M86.2559 83.7196C86.2559 80.9196 84.9559 79.7196 83.2559 79.7196C81.3559 79.7196 79.8559 81.3196 80.3559 85.0196C81.1559 91.5196 86.7559 96.2196 93.2559 96.7196C95.1559 96.8196 96.5559 96.6196 98.0559 96.1196C99.5559 95.5196 99.7559 93.5196 98.3559 92.6196C96.4559 91.3196 95.2559 89.2196 95.2559 86.8196C95.2559 82.6196 99.4559 79.1196 100.856 71.1196C103.856 53.7196 91.5559 37.4196 73.9559 35.9196C54.4559 34.2196 38.4559 51.1196 41.6559 70.8196C43.7559 83.5196 55.2559 94.8196 70.2559 94.8196C80.2559 94.7196 86.2559 88.7196 86.2559 83.7196Z" stroke="white" stroke-width="2.5" stroke-miterlimit="10" stroke-linecap="round" stroke-linejoin="round"/>
<path d="M141.256 98.7195C142.36 98.7195 143.256 97.8241 143.256 96.7195C143.256 95.6149 142.36 94.7195 141.256 94.7195C140.151 94.7195 139.256 95.6149 139.256 96.7195C139.256 97.8241 140.151 98.7195 141.256 98.7195Z" fill="white"/>
<path d="M212.256 182.719C213.36 182.719 214.256 181.824 214.256 180.719C214.256 179.615 213.36 178.719 212.256 178.719C211.151 178.719 210.256 179.615 210.256 180.719C210.256 181.824 211.151 182.719 212.256 182.719Z" fill="white"/>
<path d="M63.2559 67.7195C64.3604 67.7195 65.2559 66.8241 65.2559 65.7195C65.2559 64.6149 64.3604 63.7195 63.2559 63.7195C62.1513 63.7195 61.2559 64.6149 61.2559 65.7195C61.2559 66.8241 62.1513 67.7195 63.2559 67.7195Z" fill="white"/>
<path d="M71.2559 67.7195C72.3604 67.7195 73.2559 66.8241 73.2559 65.7195C73.2559 64.6149 72.3604 63.7195 71.2559 63.7195C70.1513 63.7195 69.2559 64.6149 69.2559 65.7195C69.2559 66.8241 70.1513 67.7195 71.2559 67.7195Z" fill="white"/>
<path d="M79.2559 67.7195C80.3604 67.7195 81.2559 66.8241 81.2559 65.7195C81.2559 64.6149 80.3604 63.7195 79.2559 63.7195C78.1513 63.7195 77.2559 64.6149 77.2559 65.7195C77.2559 66.8241 78.1513 67.7195 79.2559 67.7195Z" fill="white"/>
</svg>
