<svg width="120" height="120" viewBox="0 0 120 120" fill="none" xmlns="http://www.w3.org/2000/svg">
<path d="M93.1949 35.3427C93.1949 36.0331 93.7545 36.5927 94.4449 36.5927C95.1352 36.5927 95.6949 36.0331 95.6949 35.3427H93.1949ZM95.6949 72.0126C95.6949 71.3223 95.1352 70.7626 94.4449 70.7626C93.7545 70.7626 93.1949 71.3223 93.1949 72.0126H95.6949ZM20.3583 34.2281L21.6083 34.229V34.2281H20.3583ZM53.0163 85.2604C53.7067 85.2604 54.2663 84.7007 54.2663 84.0104C54.2663 83.32 53.7067 82.7604 53.0163 82.7604V85.2604ZM35.0449 82.7604C34.3545 82.7604 33.7949 83.32 33.7949 84.0104C33.7949 84.7007 34.3545 85.2604 35.0449 85.2604V82.7604ZM85.4449 84.0104L85.4446 85.2604H85.4449V84.0104ZM58.3499 86.0061L59.5999 86.0081V86.0061H58.3499ZM60.3499 84.0061V85.2561V84.0061ZM63.1146 84.0061L63.1148 82.7561H63.1146V84.0061ZM94.2358 41.3688V42.6188V41.3688ZM78.4658 73.2688L78.6713 72.0358C78.6662 72.035 78.661 72.0342 78.6559 72.0334L78.4658 73.2688ZM74.5149 60.8823C74.9642 60.3582 74.9035 59.569 74.3793 59.1198C73.8552 58.6705 73.066 58.7312 72.6168 59.2553L74.5149 60.8823ZM109.965 73.2688L109.775 72.0334C109.77 72.0342 109.765 72.035 109.76 72.0358L109.965 73.2688ZM115.814 59.2553C115.365 58.7312 114.576 58.6705 114.052 59.1198C113.528 59.569 113.467 60.3582 113.916 60.8823L115.814 59.2553ZM44.2201 96.4929C43.5297 96.4929 42.9701 97.0526 42.9701 97.7429C42.9701 98.4333 43.5297 98.9929 44.2201 98.9929V96.4929ZM72.4427 98.9929C73.1331 98.9929 73.6927 98.4333 73.6927 97.7429C73.6927 97.0526 73.1331 96.4929 72.4427 96.4929V98.9929ZM57.0814 97.4747C57.0803 98.165 57.639 98.7256 58.3294 98.7267C59.0197 98.7278 59.5803 98.1691 59.5814 97.4787L57.0814 97.4747ZM15.3404 43.7057C16.0308 43.7057 16.5904 43.1461 16.5904 42.4557C16.5904 41.7654 16.0308 41.2057 15.3404 41.2057V43.7057ZM29.4816 42.4557V41.2057L29.4779 41.2058L29.4816 42.4557ZM22.3539 42.4771V43.7271L22.3576 43.7271L22.3539 42.4771ZM20.3539 40.4771L19.1039 40.4762V40.4771H20.3539ZM16.3004 89.3857C16.3004 91.0799 14.927 92.4532 13.2329 92.4532V94.9532C16.3077 94.9532 18.8004 92.4606 18.8004 89.3857H16.3004ZM13.2329 92.4532C11.5388 92.4532 10.1654 91.0799 10.1654 89.3857H7.66541C7.66541 92.4606 10.1581 94.9532 13.2329 94.9532V92.4532ZM10.1654 89.3857C10.1654 87.6916 11.5388 86.3182 13.2329 86.3182V83.8182C10.1581 83.8182 7.66541 86.3109 7.66541 89.3857H10.1654ZM13.2329 86.3182C14.927 86.3182 16.3004 87.6916 16.3004 89.3857H18.8004C18.8004 86.3109 16.3077 83.8182 13.2329 83.8182V86.3182ZM29.3583 26.4781H85.4448V23.9781H29.3583V26.4781ZM93.1949 34.2281V35.3427H95.6949V34.2281H93.1949ZM93.1949 72.0126V75.0104H95.6949V72.0126H93.1949ZM53.0163 82.7604H35.0449V85.2604H53.0163V82.7604ZM93.1949 75.0104C93.1949 79.2906 89.7251 82.7604 85.4449 82.7604V85.2604C91.1058 85.2604 95.6949 80.6713 95.6949 75.0104H93.1949ZM85.4448 26.4781C89.7251 26.4781 93.1949 29.9479 93.1949 34.2281H95.6949C95.6949 28.5672 91.1058 23.9781 85.4448 23.9781V26.4781ZM29.3583 23.9781C23.6974 23.9781 19.1083 28.5672 19.1083 34.2281H21.6083C21.6083 29.9479 25.0781 26.4781 29.3583 26.4781V23.9781ZM59.5999 86.0061C59.5999 85.5965 59.9403 85.2561 60.3499 85.2561V82.7561C58.5596 82.7561 57.0999 84.2157 57.0999 86.0061H59.5999ZM60.3499 85.2561H63.1146V82.7561H60.3499V85.2561ZM94.2358 40.1188C89.336 40.1188 85.3198 41.9825 82.5421 45.1291C79.7791 48.259 78.3158 52.5705 78.3158 57.3688H80.8158C80.8158 53.0671 82.1254 49.3787 84.4163 46.7836C86.6925 44.2051 90.0113 42.6188 94.2358 42.6188V40.1188ZM78.3158 57.3688V72.2688H80.8158V57.3688H78.3158ZM78.3158 72.2688C78.3158 72.2226 78.3344 72.1677 78.3859 72.1194C78.4134 72.0936 78.454 72.0666 78.5083 72.0491C78.565 72.0309 78.6228 72.0278 78.6713 72.0358L78.2603 74.5018C79.7474 74.7497 80.8158 73.5088 80.8158 72.2688H78.3158ZM78.6559 72.0334C75.3333 71.5222 72.8158 68.7197 72.8158 65.3688H70.3158C70.3158 70.018 73.7983 73.8155 78.2757 74.5043L78.6559 72.0334ZM72.8158 65.3688C72.8158 63.696 73.4895 62.0786 74.5149 60.8823L72.6168 59.2553C71.2422 60.859 70.3158 63.0416 70.3158 65.3688H72.8158ZM94.2358 42.6188C98.4369 42.6188 101.746 44.2038 104.018 46.7827C106.305 49.3783 107.615 53.0673 107.615 57.3688H110.115C110.115 52.5704 108.651 48.2594 105.894 45.1299C103.122 41.9838 99.1158 40.1188 94.2358 40.1188V42.6188ZM107.615 57.3688V72.2688H110.115V57.3688H107.615ZM107.615 72.2688C107.615 73.5088 108.684 74.7497 110.171 74.5018L109.76 72.0358C109.808 72.0278 109.866 72.0309 109.923 72.0491C109.977 72.0666 110.018 72.0936 110.045 72.1194C110.097 72.1677 110.115 72.2226 110.115 72.2688H107.615ZM110.155 74.5043C114.633 73.8155 118.115 70.018 118.115 65.3688H115.615C115.615 68.7197 113.098 71.5222 109.775 72.0334L110.155 74.5043ZM118.115 65.3688C118.115 63.0416 117.189 60.859 115.814 59.2553L113.916 60.8823C114.942 62.0786 115.615 63.696 115.615 65.3688H118.115ZM44.2201 98.9929H72.4427V96.4929H44.2201V98.9929ZM33.2316 47.4557V94.0572H35.7316V47.4557H33.2316ZM29.4816 97.8072H8.5282V100.307H29.4816V97.8072ZM4.7782 94.0572V47.4557H2.2782V94.0572H4.7782ZM8.5282 43.7057H15.3404V41.2057H8.5282V43.7057ZM8.5282 97.8072C6.45713 97.8072 4.7782 96.1282 4.7782 94.0572H2.2782C2.2782 97.509 5.07642 100.307 8.5282 100.307V97.8072ZM33.2316 94.0572C33.2316 96.1282 31.5527 97.8072 29.4816 97.8072V100.307C32.9334 100.307 35.7316 97.5089 35.7316 94.0572H33.2316ZM35.7316 47.4557C35.7316 44.004 32.9334 41.2057 29.4816 41.2057V43.7057C31.5527 43.7057 33.2316 45.3847 33.2316 47.4557H35.7316ZM4.7782 47.4557C4.7782 45.3847 6.45713 43.7057 8.5282 43.7057V41.2057C5.07642 41.2057 2.2782 44.004 2.2782 47.4557H4.7782ZM22.3539 41.2271C21.9442 41.2271 21.6039 40.8868 21.6039 40.4771H19.1039C19.1039 42.2675 20.5635 43.7271 22.3539 43.7271V41.2271ZM85.4451 82.7604L63.1148 82.7561L63.1144 85.2561L85.4446 85.2604L85.4451 82.7604ZM57.0999 86.0041L57.0814 97.4747L59.5814 97.4787L59.5999 86.0081L57.0999 86.0041ZM21.6039 40.478L21.6083 34.229L19.1083 34.2272L19.1039 40.4762L21.6039 40.478ZM29.4779 41.2058L22.3501 41.2271L22.3576 43.7271L29.4854 43.7057L29.4779 41.2058Z" fill="url(#paint0_linear_4_1242)"/>
<defs>
<linearGradient id="paint0_linear_4_1242" x1="60.1968" y1="25.2281" x2="60.1968" y2="99.0572" gradientUnits="userSpaceOnUse">
<stop stop-color="#FFBE4F"/>
<stop offset="1" stop-color="#F26B1D"/>
</linearGradient>
</defs>
</svg>
