<svg width="192" height="192" viewBox="0 0 192 192" fill="none" xmlns="http://www.w3.org/2000/svg">
<path d="M31.1161 175.4C31.1161 176.09 31.6757 176.65 32.3661 176.65C33.0564 176.65 33.6161 176.09 33.6161 175.4H31.1161ZM119.435 57.5519C118.746 57.5136 118.156 58.0413 118.118 58.7306C118.08 59.4199 118.607 60.0098 119.297 60.048L119.435 57.5519ZM168.366 51.4H169.616C169.616 50.9985 169.423 50.6215 169.098 50.3865C168.772 50.1515 168.354 50.0871 167.973 50.2135L168.366 51.4ZM168.366 135.4L168.761 136.586C169.272 136.416 169.616 135.938 169.616 135.4H168.366ZM50.1661 121.6L49.8161 120.4L49.8134 120.401L50.1661 121.6ZM43.1161 175.4C43.1161 176.09 43.6757 176.65 44.3661 176.65C45.0564 176.65 45.6161 176.09 45.6161 175.4H43.1161ZM111.116 95.4C111.116 96.0903 111.676 96.65 112.366 96.65C113.056 96.65 113.616 96.0903 113.616 95.4H111.116ZM44.3661 39.4L43.9708 38.2141L44.3661 39.4ZM33.6161 175.4V43.4H31.1161V175.4H33.6161ZM119.297 60.048C132.064 60.7573 149.921 58.8325 168.759 52.5865L167.973 50.2135C149.412 56.3675 131.868 58.2426 119.435 57.5519L119.297 60.048ZM167.971 134.214C150.105 140.169 133.256 142.145 120.916 141.651C114.735 141.404 109.754 140.54 106.361 139.29C104.66 138.663 103.431 137.966 102.648 137.26C101.875 136.564 101.616 135.94 101.616 135.4H99.1161C99.1161 136.86 99.8567 138.111 100.975 139.118C102.082 140.115 103.634 140.949 105.496 141.635C109.228 143.01 114.497 143.896 120.816 144.149C133.476 144.655 150.627 142.631 168.761 136.586L167.971 134.214ZM101.616 135.4C101.616 134.394 102.091 133.59 103.041 132.798C104.033 131.972 105.39 131.286 106.925 130.518C108.39 129.786 110.033 128.972 111.291 127.923C112.591 126.84 113.616 125.394 113.616 123.4H111.116C111.116 124.406 110.641 125.21 109.691 126.002C108.699 126.828 107.342 127.514 105.807 128.282C104.342 129.014 102.699 129.828 101.441 130.877C100.141 131.96 99.1161 133.406 99.1161 135.4H101.616ZM113.616 123.4C113.616 122.019 112.957 120.82 111.939 119.839C110.934 118.869 109.526 118.054 107.839 117.375C104.461 116.015 99.6896 115.094 93.9458 114.728C82.4363 113.992 66.7407 115.464 49.8161 120.4L50.5161 122.8C67.1914 117.936 82.5959 116.508 93.7864 117.222C99.3926 117.581 103.871 118.472 106.906 119.694C108.425 120.306 109.514 120.973 110.204 121.638C110.882 122.292 111.116 122.88 111.116 123.4H113.616ZM49.8134 120.401C45.8955 121.553 43.1161 125.131 43.1161 129.3H45.6161C45.6161 126.269 47.6367 123.647 50.5188 122.799L49.8134 120.401ZM43.1161 129.3V175.4H45.6161V129.3H43.1161ZM112.366 95.4C113.616 95.4 113.616 95.3999 113.616 95.3997C113.616 95.3996 113.616 95.3993 113.616 95.399C113.616 95.3986 113.616 95.3982 113.616 95.3977C113.616 95.3972 113.616 95.3966 113.616 95.396C113.616 95.3953 113.616 95.3945 113.616 95.3937C113.616 95.3929 113.616 95.3919 113.616 95.3909C113.616 95.3899 113.616 95.3889 113.616 95.3877C113.616 95.3865 113.616 95.3853 113.616 95.3839C113.616 95.3826 113.616 95.3812 113.616 95.3797C113.616 95.3782 113.616 95.3766 113.616 95.375C113.616 95.3733 113.616 95.3716 113.616 95.3697C113.616 95.3679 113.616 95.366 113.616 95.364C113.616 95.362 113.616 95.3599 113.616 95.3578C113.616 95.3556 113.616 95.3534 113.616 95.3511C113.616 95.3488 113.616 95.3464 113.616 95.3439C113.616 95.3414 113.616 95.3388 113.616 95.3362C113.616 95.3335 113.616 95.3308 113.616 95.328C113.616 95.3252 113.616 95.3223 113.616 95.3194C113.616 95.3164 113.616 95.3133 113.616 95.3102C113.616 95.3071 113.616 95.3039 113.616 95.3006C113.616 95.2973 113.616 95.2939 113.616 95.2905C113.616 95.287 113.616 95.2835 113.616 95.2799C113.616 95.2762 113.616 95.2726 113.616 95.2688C113.616 95.265 113.616 95.2612 113.616 95.2572C113.616 95.2533 113.616 95.2493 113.616 95.2452C113.616 95.2411 113.616 95.2369 113.616 95.2327C113.616 95.2284 113.616 95.2241 113.616 95.2197C113.616 95.2152 113.616 95.2108 113.616 95.2062C113.616 95.2016 113.616 95.197 113.616 95.1922C113.616 95.1875 113.616 95.1827 113.616 95.1778C113.616 95.1729 113.616 95.1679 113.616 95.1629C113.616 95.1579 113.616 95.1527 113.616 95.1475C113.616 95.1423 113.616 95.137 113.616 95.1317C113.616 95.1263 113.616 95.1209 113.616 95.1154C113.616 95.1098 113.616 95.1043 113.616 95.0986C113.616 95.0929 113.616 95.0872 113.616 95.0813C113.616 95.0755 113.616 95.0696 113.616 95.0636C113.616 95.0576 113.616 95.0516 113.616 95.0454C113.616 95.0393 113.616 95.0331 113.616 95.0267C113.616 95.0205 113.616 95.0141 113.616 95.0076C113.616 95.0012 113.616 94.9947 113.616 94.988C113.616 94.9814 113.616 94.9748 113.616 94.968C113.616 94.9612 113.616 94.9544 113.616 94.9475C113.616 94.9406 113.616 94.9336 113.616 94.9265C113.616 94.9194 113.616 94.9123 113.616 94.9051C113.616 94.8979 113.616 94.8906 113.616 94.8832C113.616 94.8758 113.616 94.8684 113.616 94.8608C113.616 94.8533 113.616 94.8457 113.616 94.838C113.616 94.8303 113.616 94.8226 113.616 94.8148C113.616 94.8069 113.616 94.799 113.616 94.791C113.616 94.7831 113.616 94.775 113.616 94.7669C113.616 94.7587 113.616 94.7505 113.616 94.7422C113.616 94.7339 113.616 94.7256 113.616 94.7172C113.616 94.7087 113.616 94.7002 113.616 94.6916C113.616 94.683 113.616 94.6744 113.616 94.6656C113.616 94.6569 113.616 94.6481 113.616 94.6392C113.616 94.6303 113.616 94.6214 113.616 94.6123C113.616 94.6033 113.616 94.5942 113.616 94.585C113.616 94.5758 113.616 94.5666 113.616 94.5572C113.616 94.5479 113.616 94.5385 113.616 94.529C113.616 94.5195 113.616 94.51 113.616 94.5003C113.616 94.4907 113.616 94.481 113.616 94.4712C113.616 94.4615 113.616 94.4516 113.616 94.4417C113.616 94.4318 113.616 94.4218 113.616 94.4117C113.616 94.4016 113.616 94.3915 113.616 94.3813C113.616 94.371 113.616 94.3607 113.616 94.3504C113.616 94.34 113.616 94.3296 113.616 94.3191C113.616 94.3086 113.616 94.298 113.616 94.2873C113.616 94.2767 113.616 94.2659 113.616 94.2551C113.616 94.2443 113.616 94.2335 113.616 94.2225C113.616 94.2116 113.616 94.2006 113.616 94.1895C113.616 94.1784 113.616 94.1672 113.616 94.156C113.616 94.1447 113.616 94.1334 113.616 94.1221C113.616 94.1107 113.616 94.0992 113.616 94.0877C113.616 94.0762 113.616 94.0646 113.616 94.0529C113.616 94.0413 113.616 94.0295 113.616 94.0177C113.616 94.0059 113.616 93.994 113.616 93.9821C113.616 93.9701 113.616 93.9581 113.616 93.946C113.616 93.9339 113.616 93.9217 113.616 93.9095C113.616 93.8973 113.616 93.8849 113.616 93.8726C113.616 93.8602 113.616 93.8477 113.616 93.8352C113.616 93.8227 113.616 93.8101 113.616 93.7974C113.616 93.7848 113.616 93.772 113.616 93.7593C113.616 93.7465 113.616 93.7336 113.616 93.7206C113.616 93.7077 113.616 93.6947 113.616 93.6816C113.616 93.6685 113.616 93.6554 113.616 93.6421C113.616 93.6289 113.616 93.6156 113.616 93.6023C113.616 93.5889 113.616 93.5755 113.616 93.562C113.616 93.5485 113.616 93.5349 113.616 93.5213C113.616 93.5076 113.616 93.4939 113.616 93.4801C113.616 93.4663 113.616 93.4525 113.616 93.4386C113.616 93.4247 113.616 93.4107 113.616 93.3966C113.616 93.3826 113.616 93.3684 113.616 93.3543C113.616 93.3401 113.616 93.3258 113.616 93.3115C113.616 93.2971 113.616 93.2827 113.616 93.2683C113.616 93.2538 113.616 93.2393 113.616 93.2247C113.616 93.2101 113.616 93.1954 113.616 93.1807C113.616 93.1659 113.616 93.1511 113.616 93.1362C113.616 93.1214 113.616 93.1064 113.616 93.0914C113.616 93.0764 113.616 93.0613 113.616 93.0462C113.616 93.031 113.616 93.0158 113.616 93.0005C113.616 92.9853 113.616 92.9699 113.616 92.9545C113.616 92.9391 113.616 92.9236 113.616 92.9081C113.616 92.8925 113.616 92.8769 113.616 92.8612C113.616 92.8455 113.616 92.8298 113.616 92.814C113.616 92.7981 113.616 92.7823 113.616 92.7663C113.616 92.7504 113.616 92.7343 113.616 92.7183C113.616 92.7022 113.616 92.686 113.616 92.6698C113.616 92.6536 113.616 92.6373 113.616 92.621C113.616 92.6046 113.616 92.5882 113.616 92.5717C113.616 92.5552 113.616 92.5387 113.616 92.5221C113.616 92.5055 113.616 92.4888 113.616 92.4721C113.616 92.4553 113.616 92.4385 113.616 92.4216C113.616 92.4048 113.616 92.3878 113.616 92.3708C113.616 92.3538 113.616 92.3367 113.616 92.3196C113.616 92.3025 113.616 92.2853 113.616 92.268C113.616 92.2507 113.616 92.2334 113.616 92.216C113.616 92.1986 113.616 92.1812 113.616 92.1636C113.616 92.1461 113.616 92.1285 113.616 92.1109C113.616 92.0932 113.616 92.0755 113.616 92.0577C113.616 92.0399 113.616 92.0221 113.616 92.0042C113.616 91.9863 113.616 91.9683 113.616 91.9503C113.616 91.9322 113.616 91.9141 113.616 91.896C113.616 91.8778 113.616 91.8596 113.616 91.8413C113.616 91.823 113.616 91.8046 113.616 91.7862C113.616 91.7678 113.616 91.7493 113.616 91.7308C113.616 91.7122 113.616 91.6936 113.616 91.6749C113.616 91.6563 113.616 91.6375 113.616 91.6187C113.616 91.5999 113.616 91.5811 113.616 91.5621C113.616 91.5432 113.616 91.5242 113.616 91.5052C113.616 91.4861 113.616 91.467 113.616 91.4478C113.616 91.4287 113.616 91.4094 113.616 91.3901C113.616 91.3708 113.616 91.3515 113.616 91.332C113.616 91.3126 113.616 91.2931 113.616 91.2736C113.616 91.254 113.616 91.2344 113.616 91.2148C113.616 91.1951 113.616 91.1753 113.616 91.1555C113.616 91.1357 113.616 91.1159 113.616 91.096C113.616 91.0761 113.616 91.0561 113.616 91.036C113.616 91.016 113.616 90.9959 113.616 90.9757C113.616 90.9556 113.616 90.9353 113.616 90.9151C113.616 90.8948 113.616 90.8744 113.616 90.854C113.616 90.8336 113.616 90.8131 113.616 90.7926C113.616 90.7721 113.616 90.7515 113.616 90.7308C113.616 90.7102 113.616 90.6895 113.616 90.6687C113.616 90.6479 113.616 90.6271 113.616 90.6062C113.616 90.5853 113.616 90.5644 113.616 90.5434C113.616 90.5223 113.616 90.5013 113.616 90.4801C113.616 90.459 113.616 90.4378 113.616 90.4166C113.616 90.3953 113.616 90.374 113.616 90.3526C113.616 90.3313 113.616 90.3098 113.616 90.2884C113.616 90.2669 113.616 90.2453 113.616 90.2237C113.616 90.2021 113.616 90.1804 113.616 90.1587C113.616 90.137 113.616 90.1152 113.616 90.0934C113.616 90.0715 113.616 90.0496 113.616 90.0276C113.616 90.0057 113.616 89.9837 113.616 89.9616C113.616 89.9395 113.616 89.9174 113.616 89.8952C113.616 89.873 113.616 89.8507 113.616 89.8284C113.616 89.8061 113.616 89.7837 113.616 89.7613C113.616 89.7389 113.616 89.7164 113.616 89.6939C113.616 89.6713 113.616 89.6487 113.616 89.626C113.616 89.6034 113.616 89.5807 113.616 89.5579C113.616 89.5351 113.616 89.5123 113.616 89.4894C113.616 89.4665 113.616 89.4436 113.616 89.4206C113.616 89.3976 113.616 89.3745 113.616 89.3514C113.616 89.3283 113.616 89.3051 113.616 89.2818C113.616 89.2586 113.616 89.2353 113.616 89.212C113.616 89.1886 113.616 89.1652 113.616 89.1418C113.616 89.1183 113.616 89.0948 113.616 89.0712C113.616 89.0477 113.616 89.024 113.616 89.0003C113.616 88.9767 113.616 88.9529 113.616 88.9291C113.616 88.9053 113.616 88.8815 113.616 88.8576C113.616 88.8337 113.616 88.8097 113.616 88.7857C113.616 88.7617 113.616 88.7376 113.616 88.7134C113.616 88.6893 113.616 88.6651 113.616 88.6409C113.616 88.6166 113.616 88.5923 113.616 88.568C113.616 88.5436 113.616 88.5192 113.616 88.4948C113.616 88.4703 113.616 88.4458 113.616 88.4212C113.616 88.3966 113.616 88.372 113.616 88.3473C113.616 88.3226 113.616 88.2979 113.616 88.2731C113.616 88.2483 113.616 88.2235 113.616 88.1986C113.616 88.1737 113.616 88.1487 113.616 88.1237C113.616 88.0987 113.616 88.0736 113.616 88.0485C113.616 88.0234 113.616 87.9982 113.616 87.973C113.616 87.9478 113.616 87.9225 113.616 87.8971C113.616 87.8718 113.616 87.8464 113.616 87.821C113.616 87.7955 113.616 87.77 113.616 87.7445C113.616 87.7189 113.616 87.6933 113.616 87.6677C113.616 87.642 113.616 87.6163 113.616 87.5906C113.616 87.5648 113.616 87.539 113.616 87.5131C113.616 87.4872 113.616 87.4613 113.616 87.4354C113.616 87.4094 113.616 87.3834 113.616 87.3573C113.616 87.3312 113.616 87.3051 113.616 87.2789C113.616 87.2527 113.616 87.2265 113.616 87.2002C113.616 87.1739 113.616 87.1475 113.616 87.1211C113.616 87.0948 113.616 87.0683 113.616 87.0418C113.616 87.0153 113.616 86.9888 113.616 86.9622C113.616 86.9356 113.616 86.9089 113.616 86.8822C113.616 86.8555 113.616 86.8287 113.616 86.8019C113.616 86.7751 113.616 86.7483 113.616 86.7214C113.616 86.6944 113.616 86.6675 113.616 86.6405C113.616 86.6135 113.616 86.5864 113.616 86.5593C113.616 86.5322 113.616 86.505 113.616 86.4778C113.616 86.4506 113.616 86.4233 113.616 86.396C113.616 86.3687 113.616 86.3413 113.616 86.3139C113.616 86.2865 113.616 86.259 113.616 86.2315C113.616 86.2039 113.616 86.1764 113.616 86.1488C113.616 86.1211 113.616 86.0935 113.616 86.0657C113.616 86.038 113.616 86.0103 113.616 85.9824C113.616 85.9546 113.616 85.9267 113.616 85.8988C113.616 85.8709 113.616 85.8429 113.616 85.8149C113.616 85.7869 113.616 85.7588 113.616 85.7307C113.616 85.7026 113.616 85.6744 113.616 85.6462C113.616 85.618 113.616 85.5897 113.616 85.5614C113.616 85.5331 113.616 85.5047 113.616 85.4763C113.616 85.4479 113.616 85.4194 113.616 85.3909C113.616 85.3624 113.616 85.3339 113.616 85.3053C113.616 85.2766 113.616 85.248 113.616 85.2193C113.616 85.1906 113.616 85.1618 113.616 85.133C113.616 85.1042 113.616 85.0754 113.616 85.0465C113.616 85.0176 113.616 84.9886 113.616 84.9596C113.616 84.9307 113.616 84.9016 113.616 84.8725C113.616 84.8434 113.616 84.8143 113.616 84.7851C113.616 84.7559 113.616 84.7267 113.616 84.6974C113.616 84.6681 113.616 84.6388 113.616 84.6094C113.616 84.5801 113.616 84.5507 113.616 84.5212C113.616 84.4917 113.616 84.4622 113.616 84.4326C113.616 84.4031 113.616 84.3735 113.616 84.3438C113.616 84.3142 113.616 84.2845 113.616 84.2547C113.616 84.225 113.616 84.1952 113.616 84.1653C113.616 84.1355 113.616 84.1056 113.616 84.0757C113.616 84.0457 113.616 84.0158 113.616 83.9857C113.616 83.9557 113.616 83.9256 113.616 83.8955C113.616 83.8654 113.616 83.8352 113.616 83.805C113.616 83.7748 113.616 83.7446 113.616 83.7143C113.616 83.6839 113.616 83.6536 113.616 83.6232C113.616 83.5928 113.616 83.5624 113.616 83.5319C113.616 83.5014 113.616 83.4709 113.616 83.4403C113.616 83.4097 113.616 83.3791 113.616 83.3485C113.616 83.3178 113.616 83.2871 113.616 83.2563C113.616 83.2256 113.616 83.1948 113.616 83.1639C113.616 83.1331 113.616 83.1022 113.616 83.0713C113.616 83.0404 113.616 83.0094 113.616 82.9784C113.616 82.9473 113.616 82.9163 113.616 82.8852C113.616 82.8541 113.616 82.8229 113.616 82.7917C113.616 82.7605 113.616 82.7293 113.616 82.698C113.616 82.6667 113.616 82.6354 113.616 82.604C113.616 82.5726 113.616 82.5412 113.616 82.5098C113.616 82.4783 113.616 82.4468 113.616 82.4153C113.616 82.3837 113.616 82.3521 113.616 82.3205C113.616 82.2889 113.616 82.2572 113.616 82.2255C113.616 82.1938 113.616 82.162 113.616 82.1302C113.616 82.0984 113.616 82.0666 113.616 82.0347C113.616 82.0028 113.616 81.9708 113.616 81.9389C113.616 81.9069 113.616 81.8749 113.616 81.8428C113.616 81.8108 113.616 81.7787 113.616 81.7465C113.616 81.7144 113.616 81.6822 113.616 81.65C113.616 81.6177 113.616 81.5855 113.616 81.5532C113.616 81.5209 113.616 81.4885 113.616 81.4561C113.616 81.4237 113.616 81.3913 113.616 81.3588C113.616 81.3263 113.616 81.2938 113.616 81.2612C113.616 81.2287 113.616 81.1961 113.616 81.1634C113.616 81.1308 113.616 81.0981 113.616 81.0654C113.616 81.0327 113.616 80.9999 113.616 80.9671C113.616 80.9343 113.616 80.9015 113.616 80.8686C113.616 80.8357 113.616 80.8027 113.616 80.7698C113.616 80.7368 113.616 80.7038 113.616 80.6707C113.616 80.6377 113.616 80.6046 113.616 80.5715C113.616 80.5384 113.616 80.5052 113.616 80.472C113.616 80.4388 113.616 80.4055 113.616 80.3722C113.616 80.3389 113.616 80.3056 113.616 80.2722C113.616 80.2389 113.616 80.2055 113.616 80.172C113.616 80.1386 113.616 80.1051 113.616 80.0715C113.616 80.038 113.616 80.0044 113.616 79.9708C113.616 79.9372 113.616 79.9036 113.616 79.8699C113.616 79.8362 113.616 79.8025 113.616 79.7687C113.616 79.735 113.616 79.7012 113.616 79.6673C113.616 79.6335 113.616 79.5996 113.616 79.5657C113.616 79.5318 113.616 79.4978 113.616 79.4638C113.616 79.4298 113.616 79.3958 113.616 79.3617C113.616 79.3277 113.616 79.2936 113.616 79.2594C113.616 79.2253 113.616 79.1911 113.616 79.1569C113.616 79.1226 113.616 79.0884 113.616 79.0541C113.616 79.0198 113.616 78.9855 113.616 78.9511C113.616 78.9167 113.616 78.8823 113.616 78.8478C113.616 78.8134 113.616 78.7789 113.616 78.7444C113.616 78.7099 113.616 78.6753 113.616 78.6407C113.616 78.6061 113.616 78.5715 113.616 78.5368C113.616 78.5021 113.616 78.4674 113.616 78.4327C113.616 78.3979 113.616 78.3632 113.616 78.3283C113.616 78.2935 113.616 78.2587 113.616 78.2238C113.616 78.1889 113.616 78.154 113.616 78.119C113.616 78.084 113.616 78.049 113.616 78.014C113.616 77.979 113.616 77.9439 113.616 77.9088C113.616 77.8737 113.616 77.8385 113.616 77.8034C113.616 77.7682 113.616 77.733 113.616 77.6977C113.616 77.6625 113.616 77.6272 113.616 77.5919C113.616 77.5565 113.616 77.5212 113.616 77.4858C113.616 77.4504 113.616 77.415 113.616 77.3795C113.616 77.344 113.616 77.3085 113.616 77.273C113.616 77.2375 113.616 77.2019 113.616 77.1663C113.616 77.1307 113.616 77.0951 113.616 77.0594C113.616 77.0237 113.616 76.988 113.616 76.9523C113.616 76.9165 113.616 76.8808 113.616 76.845C113.616 76.8092 113.616 76.7733 113.616 76.7374C113.616 76.7016 113.616 76.6656 113.616 76.6297C113.616 76.5938 113.616 76.5578 113.616 76.5218C113.616 76.4858 113.616 76.4497 113.616 76.4136C113.616 76.3775 113.616 76.3414 113.616 76.3053C113.616 76.2691 113.616 76.233 113.616 76.1967C113.616 76.1605 113.616 76.1243 113.616 76.088C113.616 76.0517 113.616 76.0154 113.616 75.9791C113.616 75.9427 113.616 75.9063 113.616 75.8699C113.616 75.8335 113.616 75.7971 113.616 75.7606C113.616 75.7241 113.616 75.6876 113.616 75.6511C113.616 75.6145 113.616 75.5779 113.616 75.5413C113.616 75.5047 113.616 75.4681 113.616 75.4314C113.616 75.3947 113.616 75.358 113.616 75.3213C113.616 75.2846 113.616 75.2478 113.616 75.211C113.616 75.1742 113.616 75.1374 113.616 75.1005C113.616 75.0636 113.616 75.0267 113.616 74.9898C113.616 74.9529 113.616 74.9159 113.616 74.8789C113.616 74.842 113.616 74.8049 113.616 74.7679C113.616 74.7308 113.616 74.6937 113.616 74.6566C113.616 74.6195 113.616 74.5824 113.616 74.5452C113.616 74.508 113.616 74.4708 113.616 74.4336C113.616 74.3963 113.616 74.3591 113.616 74.3218C113.616 74.2845 113.616 74.2472 113.616 74.2098C113.616 74.1724 113.616 74.135 113.616 74.0976C113.616 74.0602 113.616 74.0228 113.616 73.9853C113.616 73.9478 113.616 73.9103 113.616 73.8727C113.616 73.8352 113.616 73.7976 113.616 73.76C113.616 73.7224 113.616 73.6848 113.616 73.6472C113.616 73.6095 113.616 73.5718 113.616 73.5341C113.616 73.4964 113.616 73.4586 113.616 73.4209C113.616 73.3831 113.616 73.3453 113.616 73.3074C113.616 73.2696 113.616 73.2317 113.616 73.1939C113.616 73.156 113.616 73.118 113.616 73.0801C113.616 73.0421 113.616 73.0042 113.616 72.9662C113.616 72.9282 113.616 72.8901 113.616 72.8521C113.616 72.814 113.616 72.7759 113.616 72.7378C113.616 72.6997 113.616 72.6615 113.616 72.6233C113.616 72.5852 113.616 72.547 113.616 72.5087C113.616 72.4705 113.616 72.4322 113.616 72.394C113.616 72.3557 113.616 72.3174 113.616 72.279C113.616 72.2407 113.616 72.2023 113.616 72.1639C113.616 72.1255 113.616 72.0871 113.616 72.0486C113.616 72.0102 113.616 71.9717 113.616 71.9332C113.616 71.8947 113.616 71.8561 113.616 71.8176C113.616 71.779 113.616 71.7404 113.616 71.7018C113.616 71.6632 113.616 71.6246 113.616 71.5859C113.616 71.5472 113.616 71.5085 113.616 71.4698C113.616 71.4311 113.616 71.3924 113.616 71.3536C113.616 71.3148 113.616 71.276 113.616 71.2372C113.616 71.1984 113.616 71.1595 113.616 71.1206C113.616 71.0818 113.616 71.0429 113.616 71.0039C113.616 70.965 113.616 70.926 113.616 70.8871C113.616 70.8481 113.616 70.8091 113.616 70.7701C113.616 70.731 113.616 70.692 113.616 70.6529C113.616 70.6138 113.616 70.5747 113.616 70.5356C113.616 70.4964 113.616 70.4573 113.616 70.4181C113.616 70.3789 113.616 70.3397 113.616 70.3005C113.616 70.2612 113.616 70.222 113.616 70.1827C113.616 70.1434 113.616 70.1041 113.616 70.0648C113.616 70.0255 113.616 69.9861 113.616 69.9467C113.616 69.9073 113.616 69.8679 113.616 69.8285C113.616 69.7891 113.616 69.7496 113.616 69.7102C113.616 69.6707 113.616 69.6312 113.616 69.5917C113.616 69.5521 113.616 69.5126 113.616 69.473C113.616 69.4335 113.616 69.3939 113.616 69.3543C113.616 69.3146 113.616 69.275 113.616 69.2353C113.616 69.1957 113.616 69.156 113.616 69.1163C113.616 69.0766 113.616 69.0368 113.616 68.9971C113.616 68.9573 113.616 68.9175 113.616 68.8777C113.616 68.8379 113.616 68.7981 113.616 68.7583C113.616 68.7184 113.616 68.6785 113.616 68.6387C113.616 68.5988 113.616 68.5588 113.616 68.5189C113.616 68.479 113.616 68.439 113.616 68.399C113.616 68.359 113.616 68.319 113.616 68.279C113.616 68.239 113.616 68.1989 113.616 68.1589C113.616 68.1188 113.616 68.0787 113.616 68.0386C113.616 67.9985 113.616 67.9584 113.616 67.9182C113.616 67.878 113.616 67.8379 113.616 67.7977C113.616 67.7575 113.616 67.7173 113.616 67.677C113.616 67.6368 113.616 67.5965 113.616 67.5562C113.616 67.5159 113.616 67.4756 113.616 67.4353C113.616 67.395 113.616 67.3546 113.616 67.3143C113.616 67.2739 113.616 67.2335 113.616 67.1931C113.616 67.1527 113.616 67.1123 113.616 67.0718C113.616 67.0314 113.616 66.9909 113.616 66.9504C113.616 66.9099 113.616 66.8694 113.616 66.8289C113.616 66.7884 113.616 66.7478 113.616 66.7072C113.616 66.6667 113.616 66.6261 113.616 66.5855C113.616 66.5449 113.616 66.5042 113.616 66.4636C113.616 66.423 113.616 66.3823 113.616 66.3416C113.616 66.3009 113.616 66.2602 113.616 66.2195C113.616 66.1788 113.616 66.138 113.616 66.0972C113.616 66.0565 113.616 66.0157 113.616 65.9749C113.616 65.9341 113.616 65.8933 113.616 65.8524C113.616 65.8116 113.616 65.7707 113.616 65.7299C113.616 65.689 113.616 65.6481 113.616 65.6072C113.616 65.5663 113.616 65.5253 113.616 65.4844C113.616 65.4434 113.616 65.4025 113.616 65.3615C113.616 65.3205 113.616 65.2795 113.616 65.2385C113.616 65.1975 113.616 65.1564 113.616 65.1154C113.616 65.0743 113.616 65.0332 113.616 64.9921C113.616 64.951 113.616 64.9099 113.616 64.8688C113.616 64.8277 113.616 64.7865 113.616 64.7454C113.616 64.7042 113.616 64.663 113.616 64.6218C113.616 64.5806 113.616 64.5394 113.616 64.4982C113.616 64.457 113.616 64.4157 113.616 64.3745C113.616 64.3332 113.616 64.2919 113.616 64.2506C113.616 64.2093 113.616 64.168 113.616 64.1267C113.616 64.0854 113.616 64.044 113.616 64.0026C113.616 63.9613 113.616 63.9199 113.616 63.8785C113.616 63.8371 113.616 63.7957 113.616 63.7543C113.616 63.7129 113.616 63.6714 113.616 63.63C113.616 63.5885 113.616 63.547 113.616 63.5055C113.616 63.464 113.616 63.4225 113.616 63.381C113.616 63.3395 113.616 63.298 113.616 63.2564C113.616 63.2149 113.616 63.1733 113.616 63.1317C113.616 63.0901 113.616 63.0485 113.616 63.0069C113.616 62.9653 113.616 62.9237 113.616 62.882C113.616 62.8404 113.616 62.7987 113.616 62.7571C113.616 62.7154 113.616 62.6737 113.616 62.632C113.616 62.5903 113.616 62.5486 113.616 62.5069C113.616 62.4652 113.616 62.4234 113.616 62.3817C113.616 62.3399 113.616 62.2981 113.616 62.2563C113.616 62.2146 113.616 62.1728 113.616 62.1309C113.616 62.0891 113.616 62.0473 113.616 62.0055C113.616 61.9636 113.616 61.9218 113.616 61.8799C113.616 61.838 113.616 61.7962 113.616 61.7543C113.616 61.7124 113.616 61.6705 113.616 61.6285C113.616 61.5866 113.616 61.5447 113.616 61.5028C113.616 61.4608 113.616 61.4188 113.616 61.3769C113.616 61.3349 113.616 61.2929 113.616 61.2509C113.616 61.2089 113.616 61.1669 113.616 61.1249C113.616 61.0829 113.616 61.0408 113.616 60.9988C113.616 60.9567 113.616 60.9147 113.616 60.8726C113.616 60.8305 113.616 60.7885 113.616 60.7464C113.616 60.7043 113.616 60.6622 113.616 60.62C113.616 60.5779 113.616 60.5358 113.616 60.4936C113.616 60.4515 113.616 60.4094 113.616 60.3672C113.616 60.325 113.616 60.2828 113.616 60.2407C113.616 60.1985 113.616 60.1563 113.616 60.1141C113.616 60.0718 113.616 60.0296 113.616 59.9874C113.616 59.9452 113.616 59.9029 113.616 59.8607C113.616 59.8184 113.616 59.7761 113.616 59.7339C113.616 59.6916 113.616 59.6493 113.616 59.607C113.616 59.5647 113.616 59.5224 113.616 59.4801C113.616 59.4378 113.616 59.3954 113.616 59.3531C113.616 59.3108 113.616 59.2684 113.616 59.226C113.616 59.1837 113.616 59.1413 113.616 59.0989C113.616 59.0566 113.616 59.0142 113.616 58.9718C113.616 58.9294 113.616 58.887 113.616 58.8446C113.616 58.8021 113.616 58.7597 113.616 58.7173C113.616 58.6748 113.616 58.6324 113.616 58.5899C113.616 58.5475 113.616 58.505 113.616 58.4625C113.616 58.4201 113.616 58.3776 113.616 58.3351C113.616 58.2926 113.616 58.2501 113.616 58.2076C113.616 58.1651 113.616 58.1226 113.616 58.08C113.616 58.0375 113.616 57.995 113.616 57.9524C113.616 57.9099 113.616 57.8674 113.616 57.8248C113.616 57.7822 113.616 57.7397 113.616 57.6971C113.616 57.6545 113.616 57.6119 113.616 57.5693C113.616 57.5268 113.616 57.4842 113.616 57.4415C113.616 57.3989 113.616 57.3563 113.616 57.3137C113.616 57.2711 113.616 57.2285 113.616 57.1858C113.616 57.1432 113.616 57.1005 113.616 57.0579C113.616 57.0152 113.616 56.9726 113.616 56.9299C113.616 56.8872 113.616 56.8446 113.616 56.8019C113.616 56.7592 113.616 56.7165 113.616 56.6738C113.616 56.6311 113.616 56.5884 113.616 56.5457C113.616 56.503 113.616 56.4603 113.616 56.4176C113.616 56.3749 113.616 56.3321 113.616 56.2894C113.616 56.2467 113.616 56.2039 113.616 56.1612C113.616 56.1185 113.616 56.0757 113.616 56.0329C113.616 55.9902 113.616 55.9474 113.616 55.9047C113.616 55.8619 113.616 55.8191 113.616 55.7763C113.616 55.7336 113.616 55.6908 113.616 55.648C113.616 55.6052 113.616 55.5624 113.616 55.5196C113.616 55.4768 113.616 55.434 113.616 55.3912C113.616 55.3484 113.616 55.3056 113.616 55.2627C113.616 55.2199 113.616 55.1771 113.616 55.1343C113.616 55.0914 113.616 55.0486 113.616 55.0057C113.616 54.9629 113.616 54.9201 113.616 54.8772C113.616 54.8344 113.616 54.7915 113.616 54.7487C113.616 54.7058 113.616 54.6629 113.616 54.6201C113.616 54.5772 113.616 54.5343 113.616 54.4915C113.616 54.4486 113.616 54.4057 113.616 54.3628C113.616 54.3199 113.616 54.2771 113.616 54.2342C113.616 54.1913 113.616 54.1484 113.616 54.1055C113.616 54.0626 113.616 54.0197 113.616 53.9768C113.616 53.9339 113.616 53.891 113.616 53.8481C113.616 53.8052 113.616 53.7622 113.616 53.7193C113.616 53.6764 113.616 53.6335 113.616 53.5906C113.616 53.5477 113.616 53.5047 113.616 53.4618C113.616 53.4189 113.616 53.3759 113.616 53.333C113.616 53.2901 113.616 53.2471 113.616 53.2042C113.616 53.1613 113.616 53.1183 113.616 53.0754C113.616 53.0325 113.616 52.9895 113.616 52.9466C113.616 52.9036 113.616 52.8607 113.616 52.8177C113.616 52.7748 113.616 52.7318 113.616 52.6889C113.616 52.6459 113.616 52.603 113.616 52.56C113.616 52.5171 113.616 52.4741 113.616 52.4311C113.616 52.3882 113.616 52.3452 113.616 52.3023C113.616 52.2593 113.616 52.2163 113.616 52.1734C113.616 52.1304 113.616 52.0874 113.616 52.0445C113.616 52.0015 113.616 51.9586 113.616 51.9156C113.616 51.8726 113.616 51.8297 113.616 51.7867C113.616 51.7437 113.616 51.7008 113.616 51.6578C113.616 51.6148 113.616 51.5718 113.616 51.5289C113.616 51.4859 113.616 51.4429 113.616 51.4H111.116C111.116 51.4429 111.116 51.4859 111.116 51.5289C111.116 51.5718 111.116 51.6148 111.116 51.6578C111.116 51.7008 111.116 51.7437 111.116 51.7867C111.116 51.8297 111.116 51.8726 111.116 51.9156C111.116 51.9586 111.116 52.0015 111.116 52.0445C111.116 52.0874 111.116 52.1304 111.116 52.1734C111.116 52.2163 111.116 52.2593 111.116 52.3023C111.116 52.3452 111.116 52.3882 111.116 52.4311C111.116 52.4741 111.116 52.5171 111.116 52.56C111.116 52.603 111.116 52.6459 111.116 52.6889C111.116 52.7318 111.116 52.7748 111.116 52.8177C111.116 52.8607 111.116 52.9036 111.116 52.9466C111.116 52.9895 111.116 53.0325 111.116 53.0754C111.116 53.1183 111.116 53.1613 111.116 53.2042C111.116 53.2471 111.116 53.2901 111.116 53.333C111.116 53.3759 111.116 53.4189 111.116 53.4618C111.116 53.5047 111.116 53.5477 111.116 53.5906C111.116 53.6335 111.116 53.6764 111.116 53.7193C111.116 53.7622 111.116 53.8052 111.116 53.8481C111.116 53.891 111.116 53.9339 111.116 53.9768C111.116 54.0197 111.116 54.0626 111.116 54.1055C111.116 54.1484 111.116 54.1913 111.116 54.2342C111.116 54.2771 111.116 54.3199 111.116 54.3628C111.116 54.4057 111.116 54.4486 111.116 54.4915C111.116 54.5343 111.116 54.5772 111.116 54.6201C111.116 54.6629 111.116 54.7058 111.116 54.7487C111.116 54.7915 111.116 54.8344 111.116 54.8772C111.116 54.9201 111.116 54.9629 111.116 55.0057C111.116 55.0486 111.116 55.0914 111.116 55.1343C111.116 55.1771 111.116 55.2199 111.116 55.2627C111.116 55.3056 111.116 55.3484 111.116 55.3912C111.116 55.434 111.116 55.4768 111.116 55.5196C111.116 55.5624 111.116 55.6052 111.116 55.648C111.116 55.6908 111.116 55.7336 111.116 55.7763C111.116 55.8191 111.116 55.8619 111.116 55.9047C111.116 55.9474 111.116 55.9902 111.116 56.0329C111.116 56.0757 111.116 56.1185 111.116 56.1612C111.116 56.2039 111.116 56.2467 111.116 56.2894C111.116 56.3321 111.116 56.3749 111.116 56.4176C111.116 56.4603 111.116 56.503 111.116 56.5457C111.116 56.5884 111.116 56.6311 111.116 56.6738C111.116 56.7165 111.116 56.7592 111.116 56.8019C111.116 56.8446 111.116 56.8872 111.116 56.9299C111.116 56.9726 111.116 57.0152 111.116 57.0579C111.116 57.1005 111.116 57.1432 111.116 57.1858C111.116 57.2285 111.116 57.2711 111.116 57.3137C111.116 57.3563 111.116 57.3989 111.116 57.4415C111.116 57.4842 111.116 57.5268 111.116 57.5693C111.116 57.6119 111.116 57.6545 111.116 57.6971C111.116 57.7397 111.116 57.7822 111.116 57.8248C111.116 57.8674 111.116 57.9099 111.116 57.9524C111.116 57.995 111.116 58.0375 111.116 58.08C111.116 58.1226 111.116 58.1651 111.116 58.2076C111.116 58.2501 111.116 58.2926 111.116 58.3351C111.116 58.3776 111.116 58.4201 111.116 58.4625C111.116 58.505 111.116 58.5475 111.116 58.5899C111.116 58.6324 111.116 58.6748 111.116 58.7173C111.116 58.7597 111.116 58.8021 111.116 58.8446C111.116 58.887 111.116 58.9294 111.116 58.9718C111.116 59.0142 111.116 59.0566 111.116 59.0989C111.116 59.1413 111.116 59.1837 111.116 59.226C111.116 59.2684 111.116 59.3108 111.116 59.3531C111.116 59.3954 111.116 59.4378 111.116 59.4801C111.116 59.5224 111.116 59.5647 111.116 59.607C111.116 59.6493 111.116 59.6916 111.116 59.7339C111.116 59.7761 111.116 59.8184 111.116 59.8607C111.116 59.9029 111.116 59.9452 111.116 59.9874C111.116 60.0296 111.116 60.0718 111.116 60.1141C111.116 60.1563 111.116 60.1985 111.116 60.2407C111.116 60.2828 111.116 60.325 111.116 60.3672C111.116 60.4094 111.116 60.4515 111.116 60.4936C111.116 60.5358 111.116 60.5779 111.116 60.62C111.116 60.6622 111.116 60.7043 111.116 60.7464C111.116 60.7885 111.116 60.8305 111.116 60.8726C111.116 60.9147 111.116 60.9567 111.116 60.9988C111.116 61.0408 111.116 61.0829 111.116 61.1249C111.116 61.1669 111.116 61.2089 111.116 61.2509C111.116 61.2929 111.116 61.3349 111.116 61.3769C111.116 61.4188 111.116 61.4608 111.116 61.5028C111.116 61.5447 111.116 61.5866 111.116 61.6285C111.116 61.6705 111.116 61.7124 111.116 61.7543C111.116 61.7962 111.116 61.838 111.116 61.8799C111.116 61.9218 111.116 61.9636 111.116 62.0055C111.116 62.0473 111.116 62.0891 111.116 62.1309C111.116 62.1728 111.116 62.2146 111.116 62.2563C111.116 62.2981 111.116 62.3399 111.116 62.3817C111.116 62.4234 111.116 62.4652 111.116 62.5069C111.116 62.5486 111.116 62.5903 111.116 62.632C111.116 62.6737 111.116 62.7154 111.116 62.7571C111.116 62.7987 111.116 62.8404 111.116 62.882C111.116 62.9237 111.116 62.9653 111.116 63.0069C111.116 63.0485 111.116 63.0901 111.116 63.1317C111.116 63.1733 111.116 63.2149 111.116 63.2564C111.116 63.298 111.116 63.3395 111.116 63.381C111.116 63.4225 111.116 63.464 111.116 63.5055C111.116 63.547 111.116 63.5885 111.116 63.63C111.116 63.6714 111.116 63.7129 111.116 63.7543C111.116 63.7957 111.116 63.8371 111.116 63.8785C111.116 63.9199 111.116 63.9613 111.116 64.0026C111.116 64.044 111.116 64.0854 111.116 64.1267C111.116 64.168 111.116 64.2093 111.116 64.2506C111.116 64.2919 111.116 64.3332 111.116 64.3745C111.116 64.4157 111.116 64.457 111.116 64.4982C111.116 64.5394 111.116 64.5806 111.116 64.6218C111.116 64.663 111.116 64.7042 111.116 64.7454C111.116 64.7865 111.116 64.8277 111.116 64.8688C111.116 64.9099 111.116 64.951 111.116 64.9921C111.116 65.0332 111.116 65.0743 111.116 65.1154C111.116 65.1564 111.116 65.1975 111.116 65.2385C111.116 65.2795 111.116 65.3205 111.116 65.3615C111.116 65.4025 111.116 65.4434 111.116 65.4844C111.116 65.5253 111.116 65.5663 111.116 65.6072C111.116 65.6481 111.116 65.689 111.116 65.7299C111.116 65.7707 111.116 65.8116 111.116 65.8524C111.116 65.8933 111.116 65.9341 111.116 65.9749C111.116 66.0157 111.116 66.0565 111.116 66.0972C111.116 66.138 111.116 66.1788 111.116 66.2195C111.116 66.2602 111.116 66.3009 111.116 66.3416C111.116 66.3823 111.116 66.423 111.116 66.4636C111.116 66.5042 111.116 66.5449 111.116 66.5855C111.116 66.6261 111.116 66.6667 111.116 66.7072C111.116 66.7478 111.116 66.7884 111.116 66.8289C111.116 66.8694 111.116 66.9099 111.116 66.9504C111.116 66.9909 111.116 67.0314 111.116 67.0718C111.116 67.1123 111.116 67.1527 111.116 67.1931C111.116 67.2335 111.116 67.2739 111.116 67.3143C111.116 67.3546 111.116 67.395 111.116 67.4353C111.116 67.4756 111.116 67.5159 111.116 67.5562C111.116 67.5965 111.116 67.6368 111.116 67.677C111.116 67.7173 111.116 67.7575 111.116 67.7977C111.116 67.8379 111.116 67.878 111.116 67.9182C111.116 67.9584 111.116 67.9985 111.116 68.0386C111.116 68.0787 111.116 68.1188 111.116 68.1589C111.116 68.1989 111.116 68.239 111.116 68.279C111.116 68.319 111.116 68.359 111.116 68.399C111.116 68.439 111.116 68.479 111.116 68.5189C111.116 68.5588 111.116 68.5988 111.116 68.6387C111.116 68.6785 111.116 68.7184 111.116 68.7583C111.116 68.7981 111.116 68.8379 111.116 68.8777C111.116 68.9175 111.116 68.9573 111.116 68.9971C111.116 69.0368 111.116 69.0766 111.116 69.1163C111.116 69.156 111.116 69.1957 111.116 69.2353C111.116 69.275 111.116 69.3146 111.116 69.3543C111.116 69.3939 111.116 69.4335 111.116 69.473C111.116 69.5126 111.116 69.5521 111.116 69.5917C111.116 69.6312 111.116 69.6707 111.116 69.7102C111.116 69.7496 111.116 69.7891 111.116 69.8285C111.116 69.8679 111.116 69.9073 111.116 69.9467C111.116 69.9861 111.116 70.0255 111.116 70.0648C111.116 70.1041 111.116 70.1434 111.116 70.1827C111.116 70.222 111.116 70.2612 111.116 70.3005C111.116 70.3397 111.116 70.3789 111.116 70.4181C111.116 70.4573 111.116 70.4964 111.116 70.5356C111.116 70.5747 111.116 70.6138 111.116 70.6529C111.116 70.692 111.116 70.731 111.116 70.7701C111.116 70.8091 111.116 70.8481 111.116 70.8871C111.116 70.926 111.116 70.965 111.116 71.0039C111.116 71.0429 111.116 71.0818 111.116 71.1206C111.116 71.1595 111.116 71.1984 111.116 71.2372C111.116 71.276 111.116 71.3148 111.116 71.3536C111.116 71.3924 111.116 71.4311 111.116 71.4698C111.116 71.5085 111.116 71.5472 111.116 71.5859C111.116 71.6246 111.116 71.6632 111.116 71.7018C111.116 71.7404 111.116 71.779 111.116 71.8176C111.116 71.8561 111.116 71.8947 111.116 71.9332C111.116 71.9717 111.116 72.0102 111.116 72.0486C111.116 72.0871 111.116 72.1255 111.116 72.1639C111.116 72.2023 111.116 72.2407 111.116 72.279C111.116 72.3174 111.116 72.3557 111.116 72.394C111.116 72.4322 111.116 72.4705 111.116 72.5087C111.116 72.547 111.116 72.5852 111.116 72.6233C111.116 72.6615 111.116 72.6997 111.116 72.7378C111.116 72.7759 111.116 72.814 111.116 72.8521C111.116 72.8901 111.116 72.9282 111.116 72.9662C111.116 73.0042 111.116 73.0421 111.116 73.0801C111.116 73.118 111.116 73.156 111.116 73.1939C111.116 73.2317 111.116 73.2696 111.116 73.3074C111.116 73.3453 111.116 73.3831 111.116 73.4209C111.116 73.4586 111.116 73.4964 111.116 73.5341C111.116 73.5718 111.116 73.6095 111.116 73.6472C111.116 73.6848 111.116 73.7224 111.116 73.76C111.116 73.7976 111.116 73.8352 111.116 73.8727C111.116 73.9103 111.116 73.9478 111.116 73.9853C111.116 74.0228 111.116 74.0602 111.116 74.0976C111.116 74.135 111.116 74.1724 111.116 74.2098C111.116 74.2472 111.116 74.2845 111.116 74.3218C111.116 74.3591 111.116 74.3963 111.116 74.4336C111.116 74.4708 111.116 74.508 111.116 74.5452C111.116 74.5824 111.116 74.6195 111.116 74.6566C111.116 74.6937 111.116 74.7308 111.116 74.7679C111.116 74.8049 111.116 74.842 111.116 74.8789C111.116 74.9159 111.116 74.9529 111.116 74.9898C111.116 75.0267 111.116 75.0636 111.116 75.1005C111.116 75.1374 111.116 75.1742 111.116 75.211C111.116 75.2478 111.116 75.2846 111.116 75.3213C111.116 75.358 111.116 75.3947 111.116 75.4314C111.116 75.4681 111.116 75.5047 111.116 75.5413C111.116 75.5779 111.116 75.6145 111.116 75.6511C111.116 75.6876 111.116 75.7241 111.116 75.7606C111.116 75.7971 111.116 75.8335 111.116 75.8699C111.116 75.9063 111.116 75.9427 111.116 75.9791C111.116 76.0154 111.116 76.0517 111.116 76.088C111.116 76.1243 111.116 76.1605 111.116 76.1967C111.116 76.233 111.116 76.2691 111.116 76.3053C111.116 76.3414 111.116 76.3775 111.116 76.4136C111.116 76.4497 111.116 76.4858 111.116 76.5218C111.116 76.5578 111.116 76.5938 111.116 76.6297C111.116 76.6656 111.116 76.7016 111.116 76.7374C111.116 76.7733 111.116 76.8092 111.116 76.845C111.116 76.8808 111.116 76.9165 111.116 76.9523C111.116 76.988 111.116 77.0237 111.116 77.0594C111.116 77.0951 111.116 77.1307 111.116 77.1663C111.116 77.2019 111.116 77.2375 111.116 77.273C111.116 77.3085 111.116 77.344 111.116 77.3795C111.116 77.415 111.116 77.4504 111.116 77.4858C111.116 77.5212 111.116 77.5565 111.116 77.5919C111.116 77.6272 111.116 77.6625 111.116 77.6977C111.116 77.733 111.116 77.7682 111.116 77.8034C111.116 77.8385 111.116 77.8737 111.116 77.9088C111.116 77.9439 111.116 77.979 111.116 78.014C111.116 78.049 111.116 78.084 111.116 78.119C111.116 78.154 111.116 78.1889 111.116 78.2238C111.116 78.2587 111.116 78.2935 111.116 78.3283C111.116 78.3632 111.116 78.3979 111.116 78.4327C111.116 78.4674 111.116 78.5021 111.116 78.5368C111.116 78.5715 111.116 78.6061 111.116 78.6407C111.116 78.6753 111.116 78.7099 111.116 78.7444C111.116 78.7789 111.116 78.8134 111.116 78.8478C111.116 78.8823 111.116 78.9167 111.116 78.9511C111.116 78.9855 111.116 79.0198 111.116 79.0541C111.116 79.0884 111.116 79.1226 111.116 79.1569C111.116 79.1911 111.116 79.2253 111.116 79.2594C111.116 79.2936 111.116 79.3277 111.116 79.3617C111.116 79.3958 111.116 79.4298 111.116 79.4638C111.116 79.4978 111.116 79.5318 111.116 79.5657C111.116 79.5996 111.116 79.6335 111.116 79.6673C111.116 79.7012 111.116 79.735 111.116 79.7687C111.116 79.8025 111.116 79.8362 111.116 79.8699C111.116 79.9036 111.116 79.9372 111.116 79.9708C111.116 80.0044 111.116 80.038 111.116 80.0715C111.116 80.1051 111.116 80.1386 111.116 80.172C111.116 80.2055 111.116 80.2389 111.116 80.2722C111.116 80.3056 111.116 80.3389 111.116 80.3722C111.116 80.4055 111.116 80.4388 111.116 80.472C111.116 80.5052 111.116 80.5384 111.116 80.5715C111.116 80.6046 111.116 80.6377 111.116 80.6707C111.116 80.7038 111.116 80.7368 111.116 80.7698C111.116 80.8027 111.116 80.8357 111.116 80.8686C111.116 80.9015 111.116 80.9343 111.116 80.9671C111.116 80.9999 111.116 81.0327 111.116 81.0654C111.116 81.0981 111.116 81.1308 111.116 81.1634C111.116 81.1961 111.116 81.2287 111.116 81.2612C111.116 81.2938 111.116 81.3263 111.116 81.3588C111.116 81.3913 111.116 81.4237 111.116 81.4561C111.116 81.4885 111.116 81.5209 111.116 81.5532C111.116 81.5855 111.116 81.6177 111.116 81.65C111.116 81.6822 111.116 81.7144 111.116 81.7465C111.116 81.7787 111.116 81.8108 111.116 81.8428C111.116 81.8749 111.116 81.9069 111.116 81.9389C111.116 81.9708 111.116 82.0028 111.116 82.0347C111.116 82.0666 111.116 82.0984 111.116 82.1302C111.116 82.162 111.116 82.1938 111.116 82.2255C111.116 82.2572 111.116 82.2889 111.116 82.3205C111.116 82.3521 111.116 82.3837 111.116 82.4153C111.116 82.4468 111.116 82.4783 111.116 82.5098C111.116 82.5412 111.116 82.5726 111.116 82.604C111.116 82.6354 111.116 82.6667 111.116 82.698C111.116 82.7293 111.116 82.7605 111.116 82.7917C111.116 82.8229 111.116 82.8541 111.116 82.8852C111.116 82.9163 111.116 82.9473 111.116 82.9784C111.116 83.0094 111.116 83.0404 111.116 83.0713C111.116 83.1022 111.116 83.1331 111.116 83.1639C111.116 83.1948 111.116 83.2256 111.116 83.2563C111.116 83.2871 111.116 83.3178 111.116 83.3485C111.116 83.3791 111.116 83.4097 111.116 83.4403C111.116 83.4709 111.116 83.5014 111.116 83.5319C111.116 83.5624 111.116 83.5928 111.116 83.6232C111.116 83.6536 111.116 83.6839 111.116 83.7143C111.116 83.7446 111.116 83.7748 111.116 83.805C111.116 83.8352 111.116 83.8654 111.116 83.8955C111.116 83.9256 111.116 83.9557 111.116 83.9857C111.116 84.0158 111.116 84.0457 111.116 84.0757C111.116 84.1056 111.116 84.1355 111.116 84.1653C111.116 84.1952 111.116 84.225 111.116 84.2547C111.116 84.2845 111.116 84.3142 111.116 84.3438C111.116 84.3735 111.116 84.4031 111.116 84.4326C111.116 84.4622 111.116 84.4917 111.116 84.5212C111.116 84.5507 111.116 84.5801 111.116 84.6094C111.116 84.6388 111.116 84.6681 111.116 84.6974C111.116 84.7267 111.116 84.7559 111.116 84.7851C111.116 84.8143 111.116 84.8434 111.116 84.8725C111.116 84.9016 111.116 84.9307 111.116 84.9596C111.116 84.9886 111.116 85.0176 111.116 85.0465C111.116 85.0754 111.116 85.1042 111.116 85.133C111.116 85.1618 111.116 85.1906 111.116 85.2193C111.116 85.248 111.116 85.2766 111.116 85.3053C111.116 85.3339 111.116 85.3624 111.116 85.3909C111.116 85.4194 111.116 85.4479 111.116 85.4763C111.116 85.5047 111.116 85.5331 111.116 85.5614C111.116 85.5897 111.116 85.618 111.116 85.6462C111.116 85.6744 111.116 85.7026 111.116 85.7307C111.116 85.7588 111.116 85.7869 111.116 85.8149C111.116 85.8429 111.116 85.8709 111.116 85.8988C111.116 85.9267 111.116 85.9546 111.116 85.9824C111.116 86.0103 111.116 86.038 111.116 86.0657C111.116 86.0935 111.116 86.1211 111.116 86.1488C111.116 86.1764 111.116 86.2039 111.116 86.2315C111.116 86.259 111.116 86.2865 111.116 86.3139C111.116 86.3413 111.116 86.3687 111.116 86.396C111.116 86.4233 111.116 86.4506 111.116 86.4778C111.116 86.505 111.116 86.5322 111.116 86.5593C111.116 86.5864 111.116 86.6135 111.116 86.6405C111.116 86.6675 111.116 86.6944 111.116 86.7214C111.116 86.7483 111.116 86.7751 111.116 86.8019C111.116 86.8287 111.116 86.8555 111.116 86.8822C111.116 86.9089 111.116 86.9356 111.116 86.9622C111.116 86.9888 111.116 87.0153 111.116 87.0418C111.116 87.0683 111.116 87.0948 111.116 87.1211C111.116 87.1475 111.116 87.1739 111.116 87.2002C111.116 87.2265 111.116 87.2527 111.116 87.2789C111.116 87.3051 111.116 87.3312 111.116 87.3573C111.116 87.3834 111.116 87.4094 111.116 87.4354C111.116 87.4613 111.116 87.4872 111.116 87.5131C111.116 87.539 111.116 87.5648 111.116 87.5906C111.116 87.6163 111.116 87.642 111.116 87.6677C111.116 87.6933 111.116 87.7189 111.116 87.7445C111.116 87.77 111.116 87.7955 111.116 87.821C111.116 87.8464 111.116 87.8718 111.116 87.8971C111.116 87.9225 111.116 87.9478 111.116 87.973C111.116 87.9982 111.116 88.0234 111.116 88.0485C111.116 88.0736 111.116 88.0987 111.116 88.1237C111.116 88.1487 111.116 88.1737 111.116 88.1986C111.116 88.2235 111.116 88.2483 111.116 88.2731C111.116 88.2979 111.116 88.3226 111.116 88.3473C111.116 88.372 111.116 88.3966 111.116 88.4212C111.116 88.4458 111.116 88.4703 111.116 88.4948C111.116 88.5192 111.116 88.5436 111.116 88.568C111.116 88.5923 111.116 88.6166 111.116 88.6409C111.116 88.6651 111.116 88.6893 111.116 88.7134C111.116 88.7376 111.116 88.7617 111.116 88.7857C111.116 88.8097 111.116 88.8337 111.116 88.8576C111.116 88.8815 111.116 88.9053 111.116 88.9291C111.116 88.9529 111.116 88.9767 111.116 89.0003C111.116 89.024 111.116 89.0477 111.116 89.0712C111.116 89.0948 111.116 89.1183 111.116 89.1418C111.116 89.1652 111.116 89.1886 111.116 89.212C111.116 89.2353 111.116 89.2586 111.116 89.2818C111.116 89.3051 111.116 89.3283 111.116 89.3514C111.116 89.3745 111.116 89.3976 111.116 89.4206C111.116 89.4436 111.116 89.4665 111.116 89.4894C111.116 89.5123 111.116 89.5351 111.116 89.5579C111.116 89.5807 111.116 89.6034 111.116 89.626C111.116 89.6487 111.116 89.6713 111.116 89.6939C111.116 89.7164 111.116 89.7389 111.116 89.7613C111.116 89.7837 111.116 89.8061 111.116 89.8284C111.116 89.8507 111.116 89.873 111.116 89.8952C111.116 89.9174 111.116 89.9395 111.116 89.9616C111.116 89.9837 111.116 90.0057 111.116 90.0276C111.116 90.0496 111.116 90.0715 111.116 90.0934C111.116 90.1152 111.116 90.137 111.116 90.1587C111.116 90.1804 111.116 90.2021 111.116 90.2237C111.116 90.2453 111.116 90.2669 111.116 90.2884C111.116 90.3098 111.116 90.3313 111.116 90.3526C111.116 90.374 111.116 90.3953 111.116 90.4166C111.116 90.4378 111.116 90.459 111.116 90.4801C111.116 90.5013 111.116 90.5223 111.116 90.5434C111.116 90.5644 111.116 90.5853 111.116 90.6062C111.116 90.6271 111.116 90.6479 111.116 90.6687C111.116 90.6895 111.116 90.7102 111.116 90.7308C111.116 90.7515 111.116 90.7721 111.116 90.7926C111.116 90.8131 111.116 90.8336 111.116 90.854C111.116 90.8744 111.116 90.8948 111.116 90.9151C111.116 90.9353 111.116 90.9556 111.116 90.9757C111.116 90.9959 111.116 91.016 111.116 91.036C111.116 91.0561 111.116 91.0761 111.116 91.096C111.116 91.1159 111.116 91.1357 111.116 91.1555C111.116 91.1753 111.116 91.1951 111.116 91.2148C111.116 91.2344 111.116 91.254 111.116 91.2736C111.116 91.2931 111.116 91.3126 111.116 91.332C111.116 91.3515 111.116 91.3708 111.116 91.3901C111.116 91.4094 111.116 91.4287 111.116 91.4478C111.116 91.467 111.116 91.4861 111.116 91.5052C111.116 91.5242 111.116 91.5432 111.116 91.5621C111.116 91.5811 111.116 91.5999 111.116 91.6187C111.116 91.6375 111.116 91.6563 111.116 91.6749C111.116 91.6936 111.116 91.7122 111.116 91.7308C111.116 91.7493 111.116 91.7678 111.116 91.7862C111.116 91.8046 111.116 91.823 111.116 91.8413C111.116 91.8596 111.116 91.8778 111.116 91.896C111.116 91.9141 111.116 91.9322 111.116 91.9503C111.116 91.9683 111.116 91.9863 111.116 92.0042C111.116 92.0221 111.116 92.0399 111.116 92.0577C111.116 92.0755 111.116 92.0932 111.116 92.1109C111.116 92.1285 111.116 92.1461 111.116 92.1636C111.116 92.1812 111.116 92.1986 111.116 92.216C111.116 92.2334 111.116 92.2507 111.116 92.268C111.116 92.2853 111.116 92.3025 111.116 92.3196C111.116 92.3367 111.116 92.3538 111.116 92.3708C111.116 92.3878 111.116 92.4048 111.116 92.4216C111.116 92.4385 111.116 92.4553 111.116 92.4721C111.116 92.4888 111.116 92.5055 111.116 92.5221C111.116 92.5387 111.116 92.5552 111.116 92.5717C111.116 92.5882 111.116 92.6046 111.116 92.621C111.116 92.6373 111.116 92.6536 111.116 92.6698C111.116 92.686 111.116 92.7022 111.116 92.7183C111.116 92.7343 111.116 92.7504 111.116 92.7663C111.116 92.7823 111.116 92.7981 111.116 92.814C111.116 92.8298 111.116 92.8455 111.116 92.8612C111.116 92.8769 111.116 92.8925 111.116 92.9081C111.116 92.9236 111.116 92.9391 111.116 92.9545C111.116 92.9699 111.116 92.9853 111.116 93.0005C111.116 93.0158 111.116 93.031 111.116 93.0462C111.116 93.0613 111.116 93.0764 111.116 93.0914C111.116 93.1064 111.116 93.1214 111.116 93.1362C111.116 93.1511 111.116 93.1659 111.116 93.1807C111.116 93.1954 111.116 93.2101 111.116 93.2247C111.116 93.2393 111.116 93.2538 111.116 93.2683C111.116 93.2827 111.116 93.2971 111.116 93.3115C111.116 93.3258 111.116 93.3401 111.116 93.3543C111.116 93.3684 111.116 93.3826 111.116 93.3966C111.116 93.4107 111.116 93.4247 111.116 93.4386C111.116 93.4525 111.116 93.4663 111.116 93.4801C111.116 93.4939 111.116 93.5076 111.116 93.5213C111.116 93.5349 111.116 93.5485 111.116 93.562C111.116 93.5755 111.116 93.5889 111.116 93.6023C111.116 93.6156 111.116 93.6289 111.116 93.6421C111.116 93.6554 111.116 93.6685 111.116 93.6816C111.116 93.6947 111.116 93.7077 111.116 93.7206C111.116 93.7336 111.116 93.7465 111.116 93.7593C111.116 93.772 111.116 93.7848 111.116 93.7974C111.116 93.8101 111.116 93.8227 111.116 93.8352C111.116 93.8477 111.116 93.8602 111.116 93.8726C111.116 93.8849 111.116 93.8973 111.116 93.9095C111.116 93.9217 111.116 93.9339 111.116 93.946C111.116 93.9581 111.116 93.9701 111.116 93.9821C111.116 93.994 111.116 94.0059 111.116 94.0177C111.116 94.0295 111.116 94.0413 111.116 94.0529C111.116 94.0646 111.116 94.0762 111.116 94.0877C111.116 94.0992 111.116 94.1107 111.116 94.1221C111.116 94.1334 111.116 94.1447 111.116 94.156C111.116 94.1672 111.116 94.1784 111.116 94.1895C111.116 94.2006 111.116 94.2116 111.116 94.2225C111.116 94.2335 111.116 94.2443 111.116 94.2551C111.116 94.2659 111.116 94.2767 111.116 94.2873C111.116 94.298 111.116 94.3086 111.116 94.3191C111.116 94.3296 111.116 94.34 111.116 94.3504C111.116 94.3607 111.116 94.371 111.116 94.3813C111.116 94.3915 111.116 94.4016 111.116 94.4117C111.116 94.4218 111.116 94.4318 111.116 94.4417C111.116 94.4516 111.116 94.4615 111.116 94.4712C111.116 94.481 111.116 94.4907 111.116 94.5003C111.116 94.51 111.116 94.5195 111.116 94.529C111.116 94.5385 111.116 94.5479 111.116 94.5572C111.116 94.5666 111.116 94.5758 111.116 94.585C111.116 94.5942 111.116 94.6033 111.116 94.6123C111.116 94.6214 111.116 94.6303 111.116 94.6392C111.116 94.6481 111.116 94.6569 111.116 94.6656C111.116 94.6744 111.116 94.683 111.116 94.6916C111.116 94.7002 111.116 94.7087 111.116 94.7172C111.116 94.7256 111.116 94.7339 111.116 94.7422C111.116 94.7505 111.116 94.7587 111.116 94.7669C111.116 94.775 111.116 94.7831 111.116 94.791C111.116 94.799 111.116 94.8069 111.116 94.8148C111.116 94.8226 111.116 94.8303 111.116 94.838C111.116 94.8457 111.116 94.8533 111.116 94.8608C111.116 94.8684 111.116 94.8758 111.116 94.8832C111.116 94.8906 111.116 94.8979 111.116 94.9051C111.116 94.9123 111.116 94.9194 111.116 94.9265C111.116 94.9336 111.116 94.9406 111.116 94.9475C111.116 94.9544 111.116 94.9612 111.116 94.968C111.116 94.9748 111.116 94.9814 111.116 94.988C111.116 94.9947 111.116 95.0012 111.116 95.0076C111.116 95.0141 111.116 95.0205 111.116 95.0267C111.116 95.0331 111.116 95.0393 111.116 95.0454C111.116 95.0516 111.116 95.0576 111.116 95.0636C111.116 95.0696 111.116 95.0755 111.116 95.0813C111.116 95.0872 111.116 95.0929 111.116 95.0986C111.116 95.1043 111.116 95.1098 111.116 95.1154C111.116 95.1209 111.116 95.1263 111.116 95.1317C111.116 95.137 111.116 95.1423 111.116 95.1475C111.116 95.1527 111.116 95.1579 111.116 95.1629C111.116 95.1679 111.116 95.1729 111.116 95.1778C111.116 95.1827 111.116 95.1875 111.116 95.1922C111.116 95.197 111.116 95.2016 111.116 95.2062C111.116 95.2108 111.116 95.2152 111.116 95.2197C111.116 95.2241 111.116 95.2284 111.116 95.2327C111.116 95.2369 111.116 95.2411 111.116 95.2452C111.116 95.2493 111.116 95.2533 111.116 95.2572C111.116 95.2612 111.116 95.265 111.116 95.2688C111.116 95.2726 111.116 95.2762 111.116 95.2799C111.116 95.2835 111.116 95.287 111.116 95.2905C111.116 95.2939 111.116 95.2973 111.116 95.3006C111.116 95.3039 111.116 95.3071 111.116 95.3102C111.116 95.3133 111.116 95.3164 111.116 95.3194C111.116 95.3223 111.116 95.3252 111.116 95.328C111.116 95.3308 111.116 95.3335 111.116 95.3362C111.116 95.3388 111.116 95.3414 111.116 95.3439C111.116 95.3464 111.116 95.3488 111.116 95.3511C111.116 95.3534 111.116 95.3556 111.116 95.3578C111.116 95.3599 111.116 95.362 111.116 95.364C111.116 95.366 111.116 95.3679 111.116 95.3697C111.116 95.3716 111.116 95.3733 111.116 95.375C111.116 95.3766 111.116 95.3782 111.116 95.3797C111.116 95.3812 111.116 95.3826 111.116 95.3839C111.116 95.3853 111.116 95.3865 111.116 95.3877C111.116 95.3889 111.116 95.3899 111.116 95.3909C111.116 95.3919 111.116 95.3929 111.116 95.3937C111.116 95.3945 111.116 95.3953 111.116 95.396C111.116 95.3966 111.116 95.3972 111.116 95.3977C111.116 95.3982 111.116 95.3986 111.116 95.399C111.116 95.3993 111.116 95.3996 111.116 95.3997C111.116 95.3999 111.116 95.4 112.366 95.4ZM113.616 51.4C113.616 45.5589 111.475 40.957 107.623 37.6124C103.813 34.3039 98.4265 32.3062 92.0394 31.412C79.2712 29.6245 62.0618 32.1838 43.9708 38.2141L44.7614 40.5858C62.6704 34.6161 79.461 32.1754 91.6928 33.8879C97.8056 34.7437 102.669 36.621 105.984 39.5C109.258 42.3429 111.116 46.2411 111.116 51.4H113.616ZM43.9708 38.2141L31.9708 42.2141L32.7614 44.5858L44.7614 40.5858L43.9708 38.2141ZM31.9708 42.2141C28.4502 43.3877 25.627 43.2383 23.4545 42.4048C21.2733 41.568 19.6387 39.9999 18.5744 38.1513C17.5042 36.2925 17.037 34.1938 17.1601 32.375C17.2842 30.5414 17.9853 29.1562 19.0595 28.44L17.6727 26.3599C15.7469 27.6438 14.823 29.8836 14.6658 32.2062C14.5076 34.5436 15.103 37.1325 16.4078 39.3987C17.7184 41.6751 19.7714 43.6695 22.559 44.7389C25.3552 45.8117 28.782 45.9123 32.7614 44.5858L31.9708 42.2141ZM19.0595 28.44C20.2951 27.6163 21.5903 27.3775 22.8559 27.6132C24.1411 27.8526 25.4792 28.5993 26.7128 29.889C29.1861 32.4747 31.1161 37.1339 31.1161 43.4H33.6161C33.6161 36.6661 31.5461 31.3252 28.5194 28.1609C27.003 26.5756 25.2161 25.5098 23.3137 25.1555C21.3919 24.7975 19.4371 25.1837 17.6727 26.3599L19.0595 28.44ZM167.116 51.4V135.4H169.616V51.4H167.116Z" fill="url(#paint0_linear_4_1193)"/>
<defs>
<linearGradient id="paint0_linear_4_1193" x1="92.1285" y1="26.277" x2="92.1285" y2="175.4" gradientUnits="userSpaceOnUse">
<stop stop-color="#3CC29A"/>
<stop offset="1" stop-color="#93C437"/>
</linearGradient>
</defs>
</svg>
