<svg width="120" height="120" viewBox="0 0 120 120" fill="none" xmlns="http://www.w3.org/2000/svg">
<path d="M80.9403 81.1093C76.5399 76.7763 69.3046 77.1689 64.4706 82.0053L59.7675 86.7084C58.7795 87.6939 57.5218 88.3649 56.153 88.6367C54.7843 88.9085 53.3657 88.769 52.0761 88.2358C51.9241 88.1733 51.7614 88.1415 51.5971 88.142C51.4328 88.1425 51.2703 88.1754 51.1187 88.2388C50.9672 88.3022 50.8296 88.3948 50.7139 88.5114C50.5982 88.628 50.5066 88.7663 50.4443 88.9183C50.3821 89.0703 50.3504 89.2331 50.3511 89.3974C50.3519 89.5617 50.3849 89.7242 50.4485 89.8757C50.5121 90.0271 50.6049 90.1646 50.7216 90.2802C50.8383 90.3957 50.9767 90.4872 51.1288 90.5492C52.8742 91.2701 54.794 91.4579 56.646 91.0889C58.498 90.72 60.1992 89.8107 61.5351 88.476L66.2382 83.7729C70.0888 79.9209 75.7753 79.5337 79.1513 82.854L87.0604 91.3032C88.8231 93.0659 89.8134 95.4566 89.8134 97.9494C89.8134 100.442 88.8231 102.833 87.0604 104.596L83.6649 107.992C82.7904 108.881 81.7447 109.584 80.5911 110.057C79.4375 110.531 78.1999 110.765 76.953 110.747C58.7987 110.341 41.5301 102.821 28.8669 89.8064C16.2037 76.7916 9.15921 59.3235 9.2509 41.1649C9.24778 39.9208 9.4899 38.6882 9.96344 37.5378C10.437 36.3873 11.1326 35.3414 12.0106 34.4599L14.4676 32.0029C16.2317 30.2427 18.6221 29.2541 21.1141 29.2541C23.6062 29.2541 25.9965 30.2427 27.7606 32.0029L35.2909 39.5331C37.0507 41.2974 38.0389 43.6875 38.0389 46.1794C38.0389 48.6712 37.0507 51.0614 35.2909 52.8256L31.0009 57.1156C29.7301 58.3944 28.845 60.0051 28.4469 61.7634C28.0488 63.5217 28.1538 65.3566 28.7499 67.058C28.8046 67.2128 28.8892 67.3553 28.999 67.4774C29.1088 67.5994 29.2415 67.6987 29.3896 67.7695C29.6888 67.9124 30.0325 67.9307 30.3451 67.8202C30.4999 67.7655 30.6424 67.6809 30.7645 67.5711C30.8866 67.4613 30.9858 67.3286 31.0566 67.1805C31.1274 67.0323 31.1683 66.8717 31.177 66.7078C31.1857 66.5438 31.162 66.3798 31.1073 66.225C30.6672 64.9687 30.5895 63.6138 30.8833 62.3155C31.177 61.0171 31.8304 59.8277 32.7685 58.8832L37.0585 54.5932C39.2863 52.3598 40.5375 49.334 40.5375 46.1794C40.5375 43.0248 39.2863 39.999 37.0585 37.7656L29.5282 30.2353C27.2949 28.007 24.2689 26.7555 21.1141 26.7555C17.9593 26.7555 14.9333 28.007 12.7001 30.2353L10.2431 32.6923C9.13356 33.804 8.25407 35.1236 7.65486 36.5755C7.05565 38.0273 6.74847 39.5831 6.7509 41.1537C6.65658 59.9675 13.9555 78.0656 27.0756 91.55C40.1957 105.034 58.0871 112.826 76.8964 113.247C76.9794 113.249 77.0624 113.25 77.1454 113.25C80.26 113.225 83.2386 111.971 85.4325 109.76L88.828 106.363C91.0547 104.137 92.308 101.119 92.3134 97.9701C92.3187 94.8214 91.0755 91.7991 88.8563 89.5654L80.9403 81.1093Z" fill="url(#paint0_linear_4_605)"/>
<path d="M107.446 54.6606C105.706 49.3154 99.8905 45.1249 92.6318 43.9848C88.8418 43.4419 84.9839 43.6085 81.2547 44.476C81.2645 37.0883 85.5047 26.6454 104.558 17.1181C104.705 17.0447 104.836 16.9432 104.944 16.8192C105.051 16.6952 105.134 16.5513 105.186 16.3956C105.237 16.2399 105.258 16.0755 105.247 15.9118C105.235 15.748 105.191 15.5882 105.118 15.4413C105.045 15.2945 104.943 15.1635 104.819 15.056C104.695 14.9484 104.551 14.8662 104.396 14.8143C104.081 14.7093 103.738 14.7336 103.441 14.8818C82.7206 25.2421 78.5341 36.9589 78.7636 45.1108C69.5601 47.7806 57.4037 54.901 44.2499 72.2088V56.9999C44.2499 56.6684 44.1182 56.3505 43.8838 56.116C43.6494 55.8816 43.3314 55.7499 42.9999 55.7499C42.6684 55.7499 42.3504 55.8816 42.116 56.116C41.8816 56.3505 41.7499 56.6684 41.7499 56.9999V75.9999C41.7499 76.1641 41.7822 76.3266 41.845 76.4783C41.9078 76.63 41.9999 76.7678 42.116 76.8838C42.2321 76.9999 42.3699 77.092 42.5215 77.1548C42.6732 77.2176 42.8357 77.2499 42.9999 77.2499H61.9999C62.3314 77.2499 62.6494 77.1182 62.8838 76.8838C63.1182 76.6494 63.2499 76.3314 63.2499 75.9999C63.2499 75.6684 63.1182 75.3505 62.8838 75.116C62.6494 74.8816 62.3314 74.7499 61.9999 74.7499H45.4637C58.3383 57.4547 70.1157 50.3296 78.9814 47.6386C79.6386 51.735 81.3248 55.5975 83.882 58.8645C86.4392 62.1315 89.7838 64.696 93.6024 66.3178C98.1142 68.0619 102.227 67.5405 104.884 64.8837C106.242 63.6018 107.205 61.958 107.659 60.1466C108.113 58.3351 108.039 56.4315 107.446 54.6606ZM103.116 63.1161C101.19 65.0409 98.0497 65.3573 94.5038 63.9858C91.0654 62.4871 88.0622 60.1426 85.7739 57.1707C83.4857 54.1987 81.9868 50.696 81.4169 46.9887C84.9592 46.1243 88.6339 45.943 92.2441 46.4545C98.5829 47.4501 103.617 50.975 105.069 55.4345C105.522 56.7666 105.578 58.2014 105.231 59.5648C104.885 60.9283 104.15 62.1619 103.116 63.1161Z" fill="url(#paint1_linear_4_605)"/>
<defs>
<linearGradient id="paint0_linear_4_605" x1="57.3512" y1="14.75" x2="57.3512" y2="113.25" gradientUnits="userSpaceOnUse">
<stop stop-color="#FFBE4F"/>
<stop offset="1" stop-color="#93C437"/>
</linearGradient>
<linearGradient id="paint1_linear_4_605" x1="57.3512" y1="14.75" x2="57.3512" y2="113.25" gradientUnits="userSpaceOnUse">
<stop stop-color="#FFBE4F"/>
<stop offset="1" stop-color="#93C437"/>
</linearGradient>
</defs>
</svg>
