<svg width="321" height="320" viewBox="0 0 321 320" fill="none" xmlns="http://www.w3.org/2000/svg">
<path d="M77.9468 167.841C78.5216 167.459 78.6778 166.683 78.2955 166.108C77.9132 165.533 77.1373 165.377 76.5624 165.759L77.9468 167.841ZM57.2546 180.1L56.5624 179.059L56.5573 179.063L57.2546 180.1ZM268.505 208.1C268.505 207.41 267.945 206.85 267.255 206.85C266.564 206.85 266.005 207.41 266.005 208.1H268.505ZM267.255 216.1H266.005C266.005 216.521 266.216 216.913 266.568 217.145L267.255 216.1ZM270.755 218.4L271.448 217.36L271.441 217.355L270.755 218.4ZM270.755 221.7L271.448 222.74L271.448 222.74L270.755 221.7ZM177.255 284L176.561 282.96L176.561 282.96L177.255 284ZM177.255 260L176.561 258.96L176.561 258.96L177.255 260ZM270.755 197.7L271.448 198.74L271.448 198.74L270.755 197.7ZM270.755 194.4L271.448 193.36L271.447 193.359L270.755 194.4ZM243.255 176.1H242.005C242.005 176.518 242.214 176.909 242.562 177.141L243.255 176.1ZM244.505 168.1C244.505 167.41 243.945 166.85 243.255 166.85C242.564 166.85 242.005 167.41 242.005 168.1H244.505ZM159.662 279.141C160.237 279.523 161.013 279.367 161.395 278.793C161.778 278.218 161.622 277.442 161.047 277.059L159.662 279.141ZM52.6546 206.4L51.9612 207.44L51.9619 207.441L52.6546 206.4ZM51.8546 205.8L51.0631 206.767C51.0946 206.793 51.1274 206.817 51.1612 206.84L51.8546 205.8ZM48.2546 198.5H49.5046C49.5046 198.493 49.5046 198.486 49.5044 198.479L48.2546 198.5ZM159.662 223.14C160.236 223.523 161.012 223.368 161.395 222.793C161.778 222.219 161.622 221.443 161.048 221.06L159.662 223.14ZM76.7546 166.4L76.0612 167.44L76.0615 167.44L76.7546 166.4ZM75.9546 165.8L75.1631 166.767C75.1946 166.793 75.2274 166.817 75.2612 166.84L75.9546 165.8ZM72.3546 158.5H73.6046C73.6046 158.493 73.6046 158.486 73.6044 158.479L72.3546 158.5ZM82.0519 141.137C82.6249 140.752 82.7772 139.976 82.3921 139.403C82.007 138.83 81.2303 138.677 80.6573 139.063L82.0519 141.137ZM177.255 204.1L176.562 203.06L176.561 203.06L177.255 204.1ZM243.948 185.14C244.522 184.757 244.678 183.981 244.295 183.407C243.912 182.832 243.136 182.677 242.561 183.06L243.948 185.14ZM246.755 157.8L247.448 158.84L247.448 158.84L246.755 157.8ZM246.755 154.5L247.448 153.46L247.448 153.46L246.755 154.5ZM195.948 119.16C195.373 118.777 194.597 118.932 194.214 119.507C193.832 120.082 193.987 120.858 194.562 121.24L195.948 119.16ZM194.561 121.14C195.136 121.523 195.912 121.368 196.295 120.793C196.678 120.219 196.522 119.443 195.948 119.06L194.561 121.14ZM170.955 140L170.829 138.756C170.802 138.759 170.776 138.763 170.749 138.767L170.955 140ZM201.255 85.3L202.504 85.3215L202.504 85.3188L201.255 85.3ZM177.855 60.1L177.835 61.3498L177.836 61.3498L177.855 60.1ZM136.755 60.1L136.784 61.3497L136.794 61.3494L136.755 60.1ZM113.355 84.4L114.605 84.4113L114.605 84.4098L113.355 84.4ZM119.955 113.4L118.831 113.948L118.837 113.959L119.955 113.4ZM119.655 114.7L120.347 115.74C120.367 115.728 120.386 115.714 120.405 115.7L119.655 114.7ZM80.6619 139.16C80.0872 139.542 79.9315 140.318 80.3141 140.893C80.6967 141.467 81.4727 141.623 82.0474 141.24L80.6619 139.16ZM156.005 67.1C156.005 67.7904 156.564 68.35 157.255 68.35C157.945 68.35 158.505 67.7904 158.505 67.1H156.005ZM198.255 28.2L198.171 26.9527L198.166 26.9532L198.255 28.2ZM200.255 30.9L201.407 31.3846C201.412 31.3727 201.417 31.3607 201.421 31.3487L200.255 30.9ZM167.214 53.7579C166.528 53.8354 166.035 54.4543 166.113 55.1403C166.19 55.8263 166.809 56.3196 167.495 56.2421L167.214 53.7579ZM76.5624 165.759L56.5624 179.059L57.9468 181.141L77.9468 167.841L76.5624 165.759ZM266.005 208.1V216.1H268.505V208.1H266.005ZM266.568 217.145L270.068 219.445L271.441 217.355L267.941 215.055L266.568 217.145ZM270.061 219.44C270.519 219.745 270.519 220.355 270.061 220.66L271.448 222.74C273.39 221.445 273.39 218.655 271.448 217.36L270.061 219.44ZM270.061 220.66L176.561 282.96L177.948 285.04L271.448 222.74L270.061 220.66ZM176.561 282.96C175.169 283.888 174.059 284.278 173.213 284.348C172.403 284.416 171.793 284.197 171.305 283.79C170.242 282.904 169.505 280.888 169.505 278C169.505 272.3 172.383 264.75 177.948 261.04L176.561 258.96C170.126 263.25 167.005 271.7 167.005 278C167.005 281.112 167.767 284.096 169.704 285.71C170.716 286.553 171.981 286.959 173.421 286.839C174.826 286.722 176.34 286.112 177.948 285.04L176.561 282.96ZM177.948 261.04L271.448 198.74L270.061 196.66L176.561 258.96L177.948 261.04ZM271.448 198.74C273.39 197.445 273.39 194.655 271.448 193.36L270.061 195.44C270.519 195.745 270.519 196.355 270.061 196.66L271.448 198.74ZM271.447 193.359L243.947 175.059L242.562 177.141L270.062 195.441L271.447 193.359ZM244.505 176.1V168.1H242.005V176.1H244.505ZM161.047 277.059L53.3473 205.359L51.9619 207.441L159.662 279.141L161.047 277.059ZM53.348 205.36C53.2492 205.294 53.1637 205.227 53.0355 205.124C52.9137 205.027 52.7492 204.894 52.548 204.76L51.1612 206.84C51.26 206.906 51.3455 206.973 51.4738 207.076C51.5955 207.173 51.76 207.306 51.9612 207.44L53.348 205.36ZM52.6462 204.833C50.7055 203.245 49.5046 200.887 49.5046 198.5H47.0046C47.0046 201.713 48.6037 204.755 51.0631 206.767L52.6462 204.833ZM49.5044 198.479C49.4095 192.785 52.291 184.942 57.9519 181.137L56.5573 179.063C50.0182 183.458 46.8997 192.215 47.0048 198.521L49.5044 198.479ZM161.048 221.06L77.4477 165.36L76.0615 167.44L159.662 223.14L161.048 221.06ZM77.448 165.36C77.3492 165.294 77.2637 165.227 77.1355 165.124C77.0137 165.027 76.8492 164.894 76.648 164.76L75.2612 166.84C75.36 166.906 75.4455 166.973 75.5738 167.076C75.6955 167.173 75.86 167.306 76.0612 167.44L77.448 165.36ZM76.7462 164.833C74.8055 163.245 73.6046 160.887 73.6046 158.5H71.1046C71.1046 161.713 72.7037 164.755 75.1631 166.767L76.7462 164.833ZM73.6044 158.479C73.5095 152.785 76.391 144.942 82.0519 141.137L80.6573 139.063C74.1182 143.458 70.9997 152.215 71.1048 158.521L73.6044 158.479ZM176.561 203.06C170.126 207.35 167.005 215.8 167.005 222.1C167.005 225.212 167.767 228.196 169.704 229.81C170.716 230.653 171.981 231.059 173.421 230.939C174.826 230.822 176.34 230.212 177.948 229.14L176.561 227.06C175.169 227.988 174.059 228.378 173.213 228.448C172.403 228.516 171.793 228.297 171.305 227.89C170.242 227.004 169.505 224.988 169.505 222.1C169.505 216.4 172.383 208.85 177.948 205.14L176.561 203.06ZM177.948 229.14L243.948 185.14L242.561 183.06L176.561 227.06L177.948 229.14ZM177.948 205.14L247.448 158.84L246.062 156.76L176.562 203.06L177.948 205.14ZM247.448 158.84C249.39 157.545 249.39 154.755 247.448 153.46L246.061 155.54C246.519 155.845 246.519 156.455 246.061 156.76L247.448 158.84ZM247.448 153.46L195.948 119.16L194.562 121.24L246.062 155.54L247.448 153.46ZM195.948 119.06C185.31 111.968 176.527 109.571 169.708 110.167C162.848 110.767 158.098 114.39 155.65 119.015C153.223 123.599 153.068 129.154 155.328 133.603C157.619 138.116 162.319 141.35 169.255 141.35V138.85C163.19 138.85 159.391 136.084 157.557 132.472C155.691 128.796 155.786 124.101 157.859 120.185C159.911 116.31 163.911 113.183 169.926 112.658C175.982 112.129 184.2 114.232 194.561 121.14L195.948 119.06ZM169.255 141.35C169.847 141.35 170.445 141.352 171.16 141.233L170.749 138.767C170.265 138.848 169.862 138.85 169.255 138.85V141.35ZM171.08 141.244C180.647 140.276 188.397 131.884 193.747 121.236C199.134 110.512 202.301 97.1019 202.504 85.3215L200.005 85.2784C199.808 96.6981 196.725 109.738 191.513 120.114C186.262 130.566 179.062 137.924 170.829 138.756L171.08 141.244ZM202.504 85.3188C202.714 71.4009 191.934 59.0616 177.873 58.8501L177.836 61.3498C190.375 61.5384 200.195 72.5991 200.005 85.2812L202.504 85.3188ZM177.874 58.8501C171.159 58.7452 164.951 61.1597 160.314 65.3751L161.995 67.2249C166.159 63.4403 171.75 61.2548 177.835 61.3498L177.874 58.8501ZM160.314 65.3751C158.591 66.9416 156.019 66.9416 154.295 65.3751L152.614 67.2249C155.291 69.6584 159.319 69.6584 161.995 67.2249L160.314 65.3751ZM154.295 65.3751C149.669 61.1695 143.458 58.6399 136.716 58.8506L136.794 61.3494C142.851 61.1601 148.44 63.4305 152.614 67.2249L154.295 65.3751ZM136.725 58.8503C123.315 59.1671 112.21 71.0505 112.105 84.3902L114.605 84.4098C114.7 72.3495 124.794 61.6329 136.784 61.3496L136.725 58.8503ZM112.105 84.3887C112.003 95.7069 114.858 105.797 118.831 113.948L121.078 112.852C117.252 105.003 114.507 95.2931 114.605 84.4113L112.105 84.3887ZM118.837 113.959C118.813 113.912 118.807 113.877 118.805 113.862C118.804 113.847 118.805 113.837 118.806 113.83C118.808 113.824 118.822 113.762 118.905 113.7L120.405 115.7C121.33 115.006 121.519 113.733 121.073 112.841L118.837 113.959ZM118.962 113.66L80.6619 139.16L82.0474 141.24L120.347 115.74L118.962 113.66ZM158.505 67.1C158.505 46.9395 177.797 30.9144 198.344 29.4468L198.166 26.9532C176.712 28.4856 156.005 45.2605 156.005 67.1H158.505ZM198.338 29.4472C198.881 29.411 199.277 29.9603 199.088 30.4513L201.421 31.3487C202.232 29.2397 200.628 26.789 198.171 26.9528L198.338 29.4472ZM199.102 30.4154C194.759 40.7439 186.817 46.5792 179.896 49.8445C176.437 51.4766 173.25 52.4578 170.93 53.0301C169.771 53.316 168.832 53.4992 168.187 53.6103C167.865 53.6659 167.616 53.7034 167.451 53.7267C167.368 53.7384 167.306 53.7465 167.266 53.7515C167.247 53.754 167.232 53.7558 167.223 53.7568C167.219 53.7573 167.216 53.7577 167.215 53.7579C167.214 53.758 167.213 53.758 167.213 53.758C167.213 53.758 167.214 53.758 167.214 53.758C167.214 53.7579 167.214 53.7579 167.355 55C167.495 56.2421 167.496 56.242 167.496 56.2419C167.497 56.2419 167.497 56.2418 167.498 56.2417C167.499 56.2416 167.501 56.2414 167.503 56.2411C167.508 56.2406 167.513 56.24 167.521 56.2391C167.535 56.2374 167.555 56.2349 167.581 56.2317C167.632 56.2252 167.705 56.2155 167.8 56.2022C167.989 56.1755 168.263 56.1341 168.611 56.074C169.309 55.9539 170.307 55.7589 171.529 55.4574C173.972 54.8547 177.322 53.8234 180.963 52.1055C188.242 48.6708 196.751 42.4561 201.407 31.3846L199.102 30.4154Z" fill="url(#paint0_linear_4_193)"/>
<defs>
<linearGradient id="paint0_linear_4_193" x1="159.953" y1="28.1953" x2="159.953" y2="285.61" gradientUnits="userSpaceOnUse">
<stop stop-color="#F0677E"/>
<stop offset="1" stop-color="#DB1F2E"/>
</linearGradient>
</defs>
</svg>
