<svg width="120" height="120" viewBox="0 0 120 120" fill="none" xmlns="http://www.w3.org/2000/svg">
<path d="M65.0377 52.8152C64.8252 52.1584 64.1205 51.7982 63.4636 52.0107C62.8068 52.2232 62.4466 52.9279 62.6591 53.5848L65.0377 52.8152ZM66.8484 62.2L68.0343 61.8047C68.0307 61.794 68.027 61.7834 68.0232 61.7728L66.8484 62.2ZM61.8484 64.95C61.1581 64.95 60.5984 65.5096 60.5984 66.2C60.5984 66.8904 61.1581 67.45 61.8484 67.45V64.95ZM36.5984 92.2C36.5984 92.8904 37.1581 93.45 37.8484 93.45C38.5388 93.45 39.0984 92.8904 39.0984 92.2H36.5984ZM33.3484 57.2L33.2487 55.9539L33.2353 55.9551L33.3484 57.2ZM29.8484 61.7L31.0952 61.6099C31.0946 61.6022 31.094 61.5945 31.0933 61.5868L29.8484 61.7ZM59.1484 84.2L59.1332 82.9501L59.1325 82.9501L59.1484 84.2ZM53.8484 27.2V28.45V27.2ZM33.9484 45.1L32.7059 44.9633C32.7047 44.9743 32.7037 44.9852 32.7027 44.9962L33.9484 45.1ZM89.8484 48.55C90.5388 48.55 91.0984 47.9904 91.0984 47.3C91.0984 46.6096 90.5388 46.05 89.8484 46.05V48.55ZM63.8484 53.2C62.6591 53.5848 62.6591 53.5848 62.6591 53.5849C62.6592 53.5849 62.6592 53.585 62.6592 53.5851C62.6593 53.5853 62.6594 53.5856 62.6595 53.5861C62.6598 53.5869 62.6602 53.5882 62.6608 53.5898C62.6618 53.5931 62.6634 53.5981 62.6655 53.6046C62.6697 53.6176 62.676 53.6369 62.6842 53.6621C62.7005 53.7126 62.7246 53.7869 62.7555 53.8822C62.8174 54.0728 62.9066 54.3475 63.0161 54.6839C63.2351 55.3566 63.5355 56.2767 63.8611 57.2658C64.5093 59.2355 65.2658 61.5054 65.6737 62.6272L68.0232 61.7728C67.6311 60.6946 66.8875 58.4645 66.2358 56.4842C65.9113 55.4983 65.6117 54.5809 65.3933 53.9099C65.284 53.5744 65.1951 53.3006 65.1335 53.1107C65.1027 53.0158 65.0787 52.9418 65.0625 52.8917C65.0544 52.8666 65.0482 52.8474 65.044 52.8346C65.0419 52.8281 65.0403 52.8233 65.0393 52.82C65.0388 52.8184 65.0384 52.8172 65.0381 52.8164C65.038 52.816 65.0379 52.8157 65.0378 52.8155C65.0378 52.8154 65.0378 52.8153 65.0378 52.8153C65.0377 52.8152 65.0377 52.8152 63.8484 53.2ZM65.6626 62.5953C66.0666 63.8073 65.7745 64.2562 65.5895 64.4411C65.3029 64.7277 64.7006 64.95 63.8484 64.95V67.45C64.9963 67.45 66.3939 67.1722 67.3573 66.2089C68.4224 65.1438 68.6303 63.5927 68.0343 61.8047L65.6626 62.5953ZM63.8484 64.95H61.8484V67.45H63.8484V64.95ZM39.0984 92.2V61.2H36.5984V92.2H39.0984ZM39.0984 61.2C39.0984 58.0291 36.4343 55.6991 33.2487 55.954L33.4481 58.446C35.2626 58.3009 36.5984 59.5709 36.5984 61.2H39.0984ZM33.2353 55.9551C30.2414 56.2273 28.3512 59.0371 28.6036 61.8132L31.0933 61.5868C30.9457 59.9629 32.0555 58.5727 33.4616 58.4449L33.2353 55.9551ZM28.6017 61.7901C28.7712 64.1359 29.7983 66.788 31.4075 69.4008C33.0268 72.0299 35.2829 74.6968 38.0142 77.0795C43.4658 81.8351 50.9274 85.5548 59.1643 85.4499L59.1325 82.9501C51.6694 83.0452 44.781 79.6649 39.6576 75.1955C37.1015 72.9657 35.0138 70.4888 33.5362 68.0898C32.0486 65.6745 31.2256 63.4141 31.0952 61.6099L28.6017 61.7901ZM59.1637 85.4499C68.061 85.3414 75.0984 78.0714 75.0984 69.2H72.5984C72.5984 76.7286 66.6358 82.8586 59.1332 82.9501L59.1637 85.4499ZM75.0984 69.2V47.2H72.5984V69.2H75.0984ZM75.0984 47.2C75.0984 35.5096 65.5388 25.95 53.8484 25.95V28.45C64.1581 28.45 72.5984 36.8904 72.5984 47.2H75.0984ZM53.8484 25.95C42.8957 25.95 33.8739 34.345 32.7059 44.9633L35.1909 45.2367C36.2229 35.855 44.2011 28.45 53.8484 28.45V25.95ZM32.7027 44.9962C32.5436 46.9063 33.9986 48.55 35.9484 48.55V46.05C35.4983 46.05 35.1533 45.6937 35.1941 45.2038L32.7027 44.9962ZM35.9484 48.55H89.8484V46.05H35.9484V48.55Z" fill="url(#paint0_linear_4_2851)"/>
<path d="M53.8486 57.2C54.9532 57.2 55.8486 56.3046 55.8486 55.2C55.8486 54.0954 54.9532 53.2 53.8486 53.2C52.7441 53.2 51.8486 54.0954 51.8486 55.2C51.8486 56.3046 52.7441 57.2 53.8486 57.2Z" fill="url(#paint1_linear_4_2851)"/>
<defs>
<linearGradient id="paint0_linear_4_2851" x1="59.8395" y1="27.2" x2="59.8395" y2="92.2" gradientUnits="userSpaceOnUse">
<stop stop-color="#93C437"/>
<stop offset="1" stop-color="#279BE8"/>
</linearGradient>
<linearGradient id="paint1_linear_4_2851" x1="53.8486" y1="53.2" x2="53.8486" y2="57.2" gradientUnits="userSpaceOnUse">
<stop stop-color="#93C437"/>
<stop offset="1" stop-color="#279BE8"/>
</linearGradient>
</defs>
</svg>
