<svg width="120" height="120" viewBox="0 0 120 120" fill="none" xmlns="http://www.w3.org/2000/svg">
<path d="M63.8484 53.2C63.8484 53.2 66.0484 60 66.8484 62.2C67.8484 65.2 65.8484 66.2 63.8484 66.2H61.8484M37.8484 92.2V61.2C37.8484 58.8 35.8484 57 33.3484 57.2C31.1484 57.4 29.6484 59.5 29.8484 61.7C30.4484 70 43.4484 84.4 59.1484 84.2C67.3484 84.1 73.8484 77.4 73.8484 69.2V47.2C73.8484 36.2 64.8484 27.2 53.8484 27.2C43.5484 27.2 35.0484 35.1 33.9484 45.1C33.8484 46.3 34.7484 47.3 35.9484 47.3H89.8484" stroke="white" stroke-width="2.5" stroke-miterlimit="10" stroke-linecap="round" stroke-linejoin="round"/>
<path d="M53.8486 57.2C54.9532 57.2 55.8486 56.3046 55.8486 55.2C55.8486 54.0954 54.9532 53.2 53.8486 53.2C52.7441 53.2 51.8486 54.0954 51.8486 55.2C51.8486 56.3046 52.7441 57.2 53.8486 57.2Z" fill="white"/>
</svg>
