<svg width="121" height="120" viewBox="0 0 121 120" fill="none" xmlns="http://www.w3.org/2000/svg">
<path d="M77.3893 54.8152C77.1768 54.1584 76.472 53.7982 75.8152 54.0107C75.1583 54.2232 74.7981 54.9279 75.0106 55.5848L77.3893 54.8152ZM79.2 64.2L80.3858 63.8047C80.3822 63.794 80.3785 63.7834 80.3747 63.7728L79.2 64.2ZM74.2 66.95C73.5096 66.95 72.95 67.5096 72.95 68.2C72.95 68.8904 73.5096 69.45 74.2 69.45V66.95ZM43.2 52.95C42.5096 52.95 41.95 53.5096 41.95 54.2C41.95 54.8904 42.5096 55.45 43.2 55.45V52.95ZM69.2 33.45C69.8903 33.45 70.45 32.8904 70.45 32.2C70.45 31.5096 69.8903 30.95 69.2 30.95V33.45ZM39.2 46.95C38.5096 46.95 37.95 47.5096 37.95 48.2C37.95 48.8904 38.5096 49.45 39.2 49.45V46.95ZM65.2 27.45C65.8903 27.45 66.45 26.8904 66.45 26.2C66.45 25.5096 65.8903 24.95 65.2 24.95V27.45ZM35.2 40.95C34.5096 40.95 33.95 41.5096 33.95 42.2C33.95 42.8904 34.5096 43.45 35.2 43.45V40.95ZM71.5 86.2L71.4847 84.9501L71.4841 84.9501L71.5 86.2ZM42.3 63.7L41.0514 63.7595L41.0515 63.7617L42.3 63.7ZM45.9 59.3L45.7961 58.0543C45.7912 58.0547 45.7863 58.0552 45.7814 58.0556L45.9 59.3ZM49.05 94.3C49.05 94.9904 49.6096 95.55 50.3 95.55C50.9903 95.55 51.5499 94.9904 51.5499 94.3H49.05ZM76.2 55.2C75.0106 55.5848 75.0107 55.5848 75.0107 55.5849C75.0107 55.5849 75.0107 55.585 75.0108 55.5851C75.0108 55.5853 75.0109 55.5856 75.0111 55.5861C75.0113 55.5869 75.0117 55.5882 75.0123 55.5898C75.0134 55.5931 75.0149 55.5981 75.0171 55.6046C75.0213 55.6176 75.0275 55.6369 75.0357 55.6621C75.0521 55.7126 75.0761 55.7869 75.1071 55.8822C75.1689 56.0728 75.2581 56.3475 75.3676 56.6839C75.5866 57.3566 75.8871 58.2767 76.2126 59.2658C76.8609 61.2355 77.6173 63.5054 78.0252 64.6272L80.3747 63.7728C79.9826 62.6946 79.2391 60.4645 78.5873 58.4842C78.2628 57.4983 77.9633 56.5809 77.7448 55.9099C77.6356 55.5744 77.5466 55.3006 77.485 55.1107C77.4542 55.0158 77.4303 54.9418 77.414 54.8917C77.4059 54.8666 77.3997 54.8474 77.3955 54.8346C77.3934 54.8281 77.3919 54.8233 77.3908 54.82C77.3903 54.8184 77.3899 54.8172 77.3896 54.8164C77.3895 54.816 77.3894 54.8157 77.3893 54.8155C77.3893 54.8154 77.3893 54.8153 77.3893 54.8153C77.3893 54.8152 77.3893 54.8152 76.2 55.2ZM78.0141 64.5953C78.4181 65.8073 78.126 66.2562 77.9411 66.4411C77.6544 66.7277 77.0521 66.95 76.2 66.95V69.45C77.3478 69.45 78.7455 69.1722 79.7088 68.2089C80.7739 67.1438 80.9818 65.5927 80.3858 63.8047L78.0141 64.5953ZM76.2 66.95H74.2V69.45H76.2V66.95ZM73.2 36.95C65.6254 36.95 61.2892 41.343 57.3161 45.3161L59.0838 47.0839C63.1107 43.057 66.7745 39.45 73.2 39.45V36.95ZM57.3161 45.3161C53.2892 49.343 49.6254 52.95 43.2 52.95V55.45C50.7745 55.45 55.1107 51.057 59.0838 47.0839L57.3161 45.3161ZM69.2 30.95C61.6254 30.95 57.2892 35.343 53.3161 39.3161L55.0838 41.0839C59.1107 37.057 62.7745 33.45 69.2 33.45V30.95ZM53.3161 39.3161C49.2892 43.343 45.6254 46.95 39.2 46.95V49.45C46.7745 49.45 51.1107 45.057 55.0838 41.0839L53.3161 39.3161ZM65.2 24.95C57.6254 24.95 53.2892 29.343 49.3161 33.3161L51.0838 35.0839C55.1107 31.057 58.7745 27.45 65.2 27.45V24.95ZM49.3161 33.3161C45.2892 37.343 41.6254 40.95 35.2 40.95V43.45C42.7745 43.45 47.1107 39.057 51.0838 35.0839L49.3161 33.3161ZM73.2 39.45C79.7096 39.45 84.95 44.6904 84.95 51.2H87.45C87.45 43.3096 81.0903 36.95 73.2 36.95V39.45ZM84.95 51.2V71.2H87.45V51.2H84.95ZM84.95 71.2C84.95 78.7286 78.9874 84.8586 71.4847 84.9501L71.5152 87.4499C80.4125 87.3414 87.45 80.0714 87.45 71.2H84.95ZM71.4841 84.9501C63.9739 85.0452 57.0617 81.6174 51.9503 77.1237C49.4002 74.8818 47.3284 72.3997 45.8776 70.0118C44.4154 67.6054 43.6344 65.3791 43.5484 63.6383L41.0515 63.7617C41.1655 66.0709 42.1595 68.7071 43.7411 71.31C45.334 73.9316 47.5747 76.6057 50.2996 79.0013C55.7383 83.7826 63.226 87.5548 71.5158 87.4499L71.4841 84.9501ZM43.5485 63.6405C43.4759 62.1147 44.6712 60.6727 46.0185 60.5444L45.7814 58.0556C42.9287 58.3273 40.924 61.0853 41.0514 63.7595L43.5485 63.6405ZM46.0038 60.5457C47.6936 60.4049 49.05 61.6499 49.05 63.3H51.5499C51.5499 60.1501 48.9063 57.7951 45.7961 58.0543L46.0038 60.5457ZM49.05 63.3V94.3H51.5499V63.3H49.05Z" fill="url(#paint0_linear_4_2422)"/>
<path d="M66.2002 59.2C67.3048 59.2 68.2002 58.3045 68.2002 57.2C68.2002 56.0954 67.3048 55.2 66.2002 55.2C65.0956 55.2 64.2002 56.0954 64.2002 57.2C64.2002 58.3045 65.0956 59.2 66.2002 59.2Z" fill="url(#paint1_linear_4_2422)"/>
<defs>
<linearGradient id="paint0_linear_4_2422" x1="60.7" y1="26.2" x2="60.7" y2="94.3" gradientUnits="userSpaceOnUse">
<stop stop-color="#279BE8"/>
<stop offset="1" stop-color="#875AE0"/>
</linearGradient>
<linearGradient id="paint1_linear_4_2422" x1="66.2002" y1="55.2" x2="66.2002" y2="59.2" gradientUnits="userSpaceOnUse">
<stop stop-color="#279BE8"/>
<stop offset="1" stop-color="#875AE0"/>
</linearGradient>
</defs>
</svg>
