<svg width="121" height="120" viewBox="0 0 121 120" fill="none" xmlns="http://www.w3.org/2000/svg">
<path d="M78.2484 62.2C78.2484 62.2 80.4484 69 81.2484 71.2C82.2484 74.2 80.2484 75.2 78.2484 75.2H76.2484M37.3484 72.5C31.7484 66.7 28.3484 58.9 28.3484 50.3C28.3484 32.6 42.6484 18.3 60.3484 18.3C78.0484 18.3 92.3484 32.6 92.3484 50.3M58.3484 58.2C58.3484 51 64.1484 45.2 71.3484 45.2H75.2484C82.4484 45.2 88.2484 51 88.2484 58.2V78.2C88.2484 86.4 81.7484 93.1 73.5484 93.2C57.7484 93.4 44.7484 78.8 44.2484 70.6C44.1484 68.5 45.7484 66.4 47.8484 66.2C50.2484 66 52.2484 67.8 52.2484 70.2V101.2" stroke="black" stroke-width="2.5" stroke-miterlimit="10" stroke-linecap="round" stroke-linejoin="round"/>
<path d="M68.249 66.2C69.3536 66.2 70.249 65.3045 70.249 64.2C70.249 63.0954 69.3536 62.2 68.249 62.2C67.1445 62.2 66.249 63.0954 66.249 64.2C66.249 65.3045 67.1445 66.2 68.249 66.2Z" fill="black"/>
</svg>
