<svg width="120" height="120" viewBox="0 0 120 120" fill="none" xmlns="http://www.w3.org/2000/svg">
<path d="M82.8484 54.7C82.8484 54.7 85.0484 61.5 85.8484 63.7C86.8484 66.7 84.8484 67.7 82.8484 67.7H80.8484M79.8484 37.7C72.8484 37.7 68.8484 41.7 64.8484 45.7C60.8484 49.7 56.8484 53.7 50.8484 53.7M56.9484 93.8V62.8C56.9484 60.5 54.9484 58.6 52.5484 58.8C50.4484 59 48.8484 61.1 48.9484 63.2C49.3484 71.3 62.3484 85.9 78.2484 85.8C86.4484 85.7 92.9485 79 92.9485 70.8V50.8C92.9485 43.6 87.1484 37.8 79.9484 37.8M96.8484 42.7C96.8484 33.9 89.6484 26.7 80.8484 26.7C75.8484 26.7 62.8484 26.7 62.8484 26.7M23.8484 77.8C28.2484 77.8 31.8484 74.2 31.8484 69.8V57.8C31.8484 51.2 37.2484 45.8 43.8484 45.8C43.8484 35.3 52.3484 26.8 62.8484 26.8" stroke="white" stroke-width="2.5" stroke-miterlimit="10" stroke-linecap="round" stroke-linejoin="round"/>
<path d="M72.8486 58.7C73.9532 58.7 74.8486 57.8046 74.8486 56.7C74.8486 55.5954 73.9532 54.7 72.8486 54.7C71.7441 54.7 70.8486 55.5954 70.8486 56.7C70.8486 57.8046 71.7441 58.7 72.8486 58.7Z" fill="white"/>
</svg>
