<svg width="60" height="60" viewBox="0 0 60 60" fill="none" xmlns="http://www.w3.org/2000/svg">
<path d="M33.3484 44L33.3704 42.7501L33.36 42.7501L33.3484 44ZM18.1484 24L17.9535 22.7653C17.9367 22.7679 17.92 22.7709 17.9033 22.7743L18.1484 24ZM20.3984 52C20.3984 52.6904 20.9581 53.25 21.6484 53.25C22.3388 53.25 22.8984 52.6904 22.8984 52H20.3984ZM21.6484 18.75C20.9581 18.75 20.3984 19.3096 20.3984 20C20.3984 20.6904 20.9581 21.25 21.6484 21.25V18.75ZM36.8343 22.6047C36.616 21.9498 35.9081 21.5958 35.2532 21.8141C34.5982 22.0325 34.2443 22.7404 34.4626 23.3953L36.8343 22.6047ZM34.6484 30.75C33.9581 30.75 33.3984 31.3096 33.3984 32C33.3984 32.6904 33.9581 33.25 34.6484 33.25V30.75ZM30.6484 9.25C31.3388 9.25 31.8984 8.69036 31.8984 8C31.8984 7.30964 31.3388 6.75 30.6484 6.75V9.25ZM16.6484 14.75C15.9581 14.75 15.3984 15.3096 15.3984 16C15.3984 16.6904 15.9581 17.25 16.6484 17.25V14.75ZM42.3984 20V33.9H44.8984V20H42.3984ZM42.3984 33.9C42.3984 38.8059 38.3668 42.8378 33.3704 42.7502L33.3265 45.2498C39.7301 45.3622 44.8984 40.1941 44.8984 33.9H42.3984ZM33.36 42.7501C23.2904 42.6568 16.8984 34.3596 16.8984 27.1H14.3984C14.3984 35.6404 21.8065 45.1432 33.3369 45.2499L33.36 42.7501ZM16.8984 27.1C16.8984 26.1638 17.5087 25.4027 18.3936 25.2257L17.9033 22.7743C15.7881 23.1973 14.3984 25.0362 14.3984 27.1H16.8984ZM18.3434 25.2347C19.4727 25.0564 20.3984 25.8559 20.3984 27H22.8984C22.8984 24.3441 20.6242 22.3436 17.9535 22.7653L18.3434 25.2347ZM20.3984 27V52H22.8984V27H20.3984ZM44.8984 20C44.8984 14.9096 40.7388 10.75 35.6484 10.75V13.25C39.3581 13.25 42.3984 16.2904 42.3984 20H44.8984ZM35.6484 10.75C31.5308 10.75 29.4445 13.1919 27.7077 15.1769C25.9445 17.1919 24.5308 18.75 21.6484 18.75V21.25C25.766 21.25 27.8524 18.8081 29.5892 16.8231C31.3524 14.8081 32.766 13.25 35.6484 13.25V10.75ZM35.6484 23C34.4626 23.3953 34.4626 23.3953 34.4626 23.3953C34.4626 23.3953 34.4626 23.3954 34.4626 23.3954C34.4627 23.3955 34.4627 23.3957 34.4628 23.3958C34.4629 23.3962 34.4631 23.3968 34.4633 23.3975C34.4638 23.3989 34.4645 23.4011 34.4655 23.404C34.4674 23.4097 34.4703 23.4184 34.4741 23.4297C34.4816 23.4524 34.4929 23.4861 34.5075 23.5301C34.5368 23.6179 34.5798 23.7468 34.6345 23.9109C34.7438 24.239 34.9001 24.7078 35.0876 25.2703C35.4626 26.3953 35.9626 27.8953 36.4626 29.3953L38.8343 28.6047C38.3343 27.1047 37.8343 25.6047 37.4593 24.4797C37.2718 23.9172 37.1155 23.4485 37.0062 23.1203C36.9515 22.9563 36.9085 22.8274 36.8792 22.7395C36.8646 22.6955 36.8533 22.6618 36.8458 22.6391C36.842 22.6278 36.8391 22.6192 36.8372 22.6134C36.8362 22.6105 36.8355 22.6084 36.835 22.6069C36.8348 22.6062 36.8346 22.6056 36.8345 22.6053C36.8344 22.6051 36.8344 22.605 36.8343 22.6049C36.8343 22.6048 36.8343 22.6048 36.8343 22.6048C36.8343 22.6047 36.8343 22.6047 35.6484 23ZM36.4626 29.3953C36.6791 30.0447 36.6849 30.3964 36.6619 30.5512C36.6517 30.6202 36.6373 30.6406 36.6406 30.6351C36.6444 30.6286 36.6502 30.6237 36.6484 30.625C36.6313 30.6378 36.549 30.6853 36.338 30.717C36.1311 30.748 35.9086 30.75 35.6484 30.75V33.25C35.8883 33.25 36.2907 33.252 36.7089 33.1893C37.1229 33.1272 37.6655 32.9872 38.1484 32.625C38.6713 32.2328 39.026 31.6532 39.1349 30.9176C39.237 30.2286 39.1178 29.4553 38.8343 28.6047L36.4626 29.3953ZM35.6484 30.75H34.6484V33.25H35.6484V30.75ZM30.6484 6.75C26.5308 6.75 24.4445 9.19195 22.7077 11.1769C20.9445 13.1919 19.5308 14.75 16.6484 14.75V17.25C20.766 17.25 22.8524 14.8081 24.5892 12.8231C26.3524 10.8081 27.766 9.25 30.6484 9.25V6.75Z" fill="url(#paint0_linear_4_2397)"/>
<defs>
<linearGradient id="paint0_linear_4_2397" x1="29.6484" y1="8" x2="29.6484" y2="52" gradientUnits="userSpaceOnUse">
<stop stop-color="#279BE8"/>
<stop offset="1" stop-color="#875AE0"/>
</linearGradient>
</defs>
</svg>
