<svg width="120" height="120" viewBox="0 0 120 120" fill="none" xmlns="http://www.w3.org/2000/svg">
<path d="M44 54.75H35C34.3096 54.75 33.75 55.3096 33.75 56C33.75 56.6904 34.3096 57.25 35 57.25H44C46.8945 57.25 49.25 54.8945 49.25 52V44C49.25 41.1055 46.8945 38.75 44 38.75H35C34.3096 38.75 33.75 39.3096 33.75 40C33.75 40.6904 34.3096 41.25 35 41.25H44C45.5166 41.25 46.75 42.4834 46.75 44V52C46.75 53.5166 45.5166 54.75 44 54.75Z" fill="url(#paint0_linear_4_440)"/>
<path d="M22.25 64C22.25 63.3096 21.6904 62.75 21 62.75H12C9.10547 62.75 6.75 65.1055 6.75 68V76C6.75 78.8945 9.10547 81.25 12 81.25H21C21.6904 81.25 22.25 80.6904 22.25 80C22.25 79.3096 21.6904 78.75 21 78.75H12C10.4834 78.75 9.25 77.5166 9.25 76V68C9.25 66.4834 10.4834 65.25 12 65.25H21C21.6904 65.25 22.25 64.6904 22.25 64Z" fill="url(#paint1_linear_4_440)"/>
<path d="M76 57.25H85C85.6904 57.25 86.25 56.6904 86.25 56C86.25 55.3096 85.6904 54.75 85 54.75H76C74.4834 54.75 73.25 53.5166 73.25 52V44C73.25 42.4834 74.4834 41.25 76 41.25H85C85.6904 41.25 86.25 40.6904 86.25 40C86.25 39.3096 85.6904 38.75 85 38.75H76C73.1055 38.75 70.75 41.1055 70.75 44V52C70.75 54.8945 73.1055 57.25 76 57.25Z" fill="url(#paint2_linear_4_440)"/>
<path d="M108 62.75H99C98.3096 62.75 97.75 63.3096 97.75 64C97.75 64.6904 98.3096 65.25 99 65.25H108C109.517 65.25 110.75 66.4834 110.75 68V76C110.75 77.5166 109.517 78.75 108 78.75H99C98.3096 78.75 97.75 79.3096 97.75 80C97.75 80.6904 98.3096 81.25 99 81.25H108C110.895 81.25 113.25 78.8945 113.25 76V68C113.25 65.1055 110.895 62.75 108 62.75Z" fill="url(#paint3_linear_4_440)"/>
<path d="M108 30.75H99C98.3096 30.75 97.75 31.3096 97.75 32C97.75 32.6904 98.3096 33.25 99 33.25H108C110.895 33.25 113.25 30.8945 113.25 28V20C113.25 17.1055 110.895 14.75 108 14.75H76C73.1055 14.75 70.75 17.1055 70.75 20V28C70.75 30.8945 73.1055 33.25 76 33.25H90C90.4131 33.25 90.75 33.5869 90.75 34V38C90.75 39.792 92.208 41.25 94 41.25H108C109.517 41.25 110.75 42.4834 110.75 44V52C110.75 53.5166 109.517 54.75 108 54.75H94C92.208 54.75 90.75 56.208 90.75 58V62C90.75 62.4131 90.4131 62.75 90 62.75H76C73.1055 62.75 70.75 65.1055 70.75 68V76C70.75 78.8945 73.1055 81.25 76 81.25H89.9434C90.2256 81.25 90.4082 81.3984 90.4922 81.4873C90.5752 81.5742 90.7119 81.7617 90.6982 82.0391C89.7324 100.731 77.2998 102.75 72 102.75C68.4355 102.75 64.6631 101.35 61.8262 98.9551C64.0205 96.2959 65.25 93.1016 65.25 90C65.25 85.5283 63.2275 82.75 59.9707 82.75C56.3672 82.75 54.7539 86.2402 54.7539 89.7002C54.7539 92.9121 56.0215 96.2207 58.2793 98.9561C55.4307 101.349 51.6084 102.75 48 102.75C42.7002 102.75 30.2676 100.731 29.3018 82.0381C29.2881 81.7617 29.4248 81.5742 29.5078 81.4873C29.5918 81.3984 29.7744 81.25 30.0566 81.25H44C46.8945 81.25 49.25 78.8945 49.25 76V68C49.25 65.1055 46.8945 62.75 44 62.75H30C29.5869 62.75 29.25 62.4131 29.25 62V58C29.25 56.208 27.792 54.75 26 54.75H12C10.4834 54.75 9.25 53.5166 9.25 52V44C9.25 42.4834 10.4834 41.25 12 41.25H26C27.792 41.25 29.25 39.792 29.25 38V34C29.25 33.5869 29.5869 33.25 30 33.25H44C46.8945 33.25 49.25 30.8945 49.25 28V20C49.25 17.1055 46.8945 14.75 44 14.75H12C9.10547 14.75 6.75 17.1055 6.75 20V28C6.75 30.8945 9.10547 33.25 12 33.25H21C21.6904 33.25 22.25 32.6904 22.25 32C22.25 31.3096 21.6904 30.75 21 30.75H12C10.4834 30.75 9.25 29.5166 9.25 28V20C9.25 18.4834 10.4834 17.25 12 17.25H44C45.5166 17.25 46.75 18.4834 46.75 20V28C46.75 29.5166 45.5166 30.75 44 30.75H30C28.208 30.75 26.75 32.208 26.75 34V38C26.75 38.4131 26.4131 38.75 26 38.75H12C9.10547 38.75 6.75 41.1055 6.75 44V52C6.75 54.8945 9.10547 57.25 12 57.25H26C26.4131 57.25 26.75 57.5869 26.75 58V62C26.75 63.792 28.208 65.25 30 65.25H44C45.5166 65.25 46.75 66.4834 46.75 68V76C46.75 77.5166 45.5166 78.75 44 78.75H30.0566C29.168 78.75 28.3066 79.1201 27.6943 79.7656C27.083 80.4092 26.7598 81.2852 26.8057 82.168C27.5518 96.6211 35.4756 105.25 48 105.25C52.9111 105.25 57.0557 103.463 60.0498 100.797C63.0361 103.467 67.1426 105.25 72 105.25C84.5244 105.25 92.4482 96.6211 93.1943 82.1689C93.2402 81.2852 92.917 80.4092 92.3057 79.7656C91.6934 79.1201 90.832 78.75 89.9434 78.75H76C74.4834 78.75 73.25 77.5166 73.25 76V68C73.25 66.4834 74.4834 65.25 76 65.25H90C91.792 65.25 93.25 63.792 93.25 62V58C93.25 57.5869 93.5869 57.25 94 57.25H108C110.895 57.25 113.25 54.8945 113.25 52V44C113.25 41.1055 110.895 38.75 108 38.75H94C93.5869 38.75 93.25 38.4131 93.25 38V34C93.25 32.208 91.792 30.75 90 30.75H76C74.4834 30.75 73.25 29.5166 73.25 28V20C73.25 18.4834 74.4834 17.25 76 17.25H108C109.517 17.25 110.75 18.4834 110.75 20V28C110.75 29.5166 109.517 30.75 108 30.75ZM57.2539 89.7002C57.2539 89.5186 57.2852 85.25 59.9707 85.25C62.4795 85.25 62.75 88.5723 62.75 90C62.75 92.7451 61.7119 95.1865 60.0557 97.1787C58.3359 95.1152 57.2539 92.5703 57.2539 89.7002Z" fill="url(#paint4_linear_4_440)"/>
<path d="M20 70.75H15C14.3096 70.75 13.75 71.3096 13.75 72C13.75 72.6904 14.3096 73.25 15 73.25H20C20.6904 73.25 21.25 72.6904 21.25 72C21.25 71.3096 20.6904 70.75 20 70.75Z" fill="url(#paint5_linear_4_440)"/>
<path d="M15 46.75C14.3096 46.75 13.75 47.3096 13.75 48C13.75 48.6904 14.3096 49.25 15 49.25H20C20.6904 49.25 21.25 48.6904 21.25 48C21.25 47.3096 20.6904 46.75 20 46.75H15Z" fill="url(#paint6_linear_4_440)"/>
<path d="M15 22.75C14.3096 22.75 13.75 23.3096 13.75 24C13.75 24.6904 14.3096 25.25 15 25.25H20C20.6904 25.25 21.25 24.6904 21.25 24C21.25 23.3096 20.6904 22.75 20 22.75H15Z" fill="url(#paint7_linear_4_440)"/>
<path d="M79 70.75C78.3096 70.75 77.75 71.3096 77.75 72C77.75 72.6904 78.3096 73.25 79 73.25H84C84.6904 73.25 85.25 72.6904 85.25 72C85.25 71.3096 84.6904 70.75 84 70.75H79Z" fill="url(#paint8_linear_4_440)"/>
<path d="M84 46.75H79C78.3096 46.75 77.75 47.3096 77.75 48C77.75 48.6904 78.3096 49.25 79 49.25H84C84.6904 49.25 85.25 48.6904 85.25 48C85.25 47.3096 84.6904 46.75 84 46.75Z" fill="url(#paint9_linear_4_440)"/>
<path d="M79 22.75C78.3096 22.75 77.75 23.3096 77.75 24C77.75 24.6904 78.3096 25.25 79 25.25H84C84.6904 25.25 85.25 24.6904 85.25 24C85.25 23.3096 84.6904 22.75 84 22.75H79Z" fill="url(#paint10_linear_4_440)"/>
<defs>
<linearGradient id="paint0_linear_4_440" x1="60" y1="14.75" x2="60" y2="105.25" gradientUnits="userSpaceOnUse">
<stop stop-color="#93C437"/>
<stop offset="1" stop-color="#279BE8"/>
</linearGradient>
<linearGradient id="paint1_linear_4_440" x1="60" y1="14.75" x2="60" y2="105.25" gradientUnits="userSpaceOnUse">
<stop stop-color="#93C437"/>
<stop offset="1" stop-color="#279BE8"/>
</linearGradient>
<linearGradient id="paint2_linear_4_440" x1="60" y1="14.75" x2="60" y2="105.25" gradientUnits="userSpaceOnUse">
<stop stop-color="#93C437"/>
<stop offset="1" stop-color="#279BE8"/>
</linearGradient>
<linearGradient id="paint3_linear_4_440" x1="60" y1="14.75" x2="60" y2="105.25" gradientUnits="userSpaceOnUse">
<stop stop-color="#93C437"/>
<stop offset="1" stop-color="#279BE8"/>
</linearGradient>
<linearGradient id="paint4_linear_4_440" x1="60" y1="14.75" x2="60" y2="105.25" gradientUnits="userSpaceOnUse">
<stop stop-color="#93C437"/>
<stop offset="1" stop-color="#279BE8"/>
</linearGradient>
<linearGradient id="paint5_linear_4_440" x1="60" y1="14.75" x2="60" y2="105.25" gradientUnits="userSpaceOnUse">
<stop stop-color="#93C437"/>
<stop offset="1" stop-color="#279BE8"/>
</linearGradient>
<linearGradient id="paint6_linear_4_440" x1="60" y1="14.75" x2="60" y2="105.25" gradientUnits="userSpaceOnUse">
<stop stop-color="#93C437"/>
<stop offset="1" stop-color="#279BE8"/>
</linearGradient>
<linearGradient id="paint7_linear_4_440" x1="60" y1="14.75" x2="60" y2="105.25" gradientUnits="userSpaceOnUse">
<stop stop-color="#93C437"/>
<stop offset="1" stop-color="#279BE8"/>
</linearGradient>
<linearGradient id="paint8_linear_4_440" x1="60" y1="14.75" x2="60" y2="105.25" gradientUnits="userSpaceOnUse">
<stop stop-color="#93C437"/>
<stop offset="1" stop-color="#279BE8"/>
</linearGradient>
<linearGradient id="paint9_linear_4_440" x1="60" y1="14.75" x2="60" y2="105.25" gradientUnits="userSpaceOnUse">
<stop stop-color="#93C437"/>
<stop offset="1" stop-color="#279BE8"/>
</linearGradient>
<linearGradient id="paint10_linear_4_440" x1="60" y1="14.75" x2="60" y2="105.25" gradientUnits="userSpaceOnUse">
<stop stop-color="#93C437"/>
<stop offset="1" stop-color="#279BE8"/>
</linearGradient>
</defs>
</svg>
