<svg width="320" height="320" viewBox="0 0 320 320" fill="none" xmlns="http://www.w3.org/2000/svg">
<path d="M54.9064 79.9777C54.2314 79.8331 53.5669 80.263 53.4223 80.9381C53.2776 81.6131 53.7076 82.2776 54.3826 82.4222L54.9064 79.9777ZM79.3445 116.7L80.5825 116.873L80.5825 116.873L79.3445 116.7ZM49.3445 144.1L49.287 142.851L49.2767 142.852L49.3445 144.1ZM47.6445 80.1V81.35C48.3349 81.35 48.8945 80.7903 48.8945 80.1H47.6445ZM48.8945 151.1C48.8945 150.41 48.3349 149.85 47.6445 149.85C46.9542 149.85 46.3945 150.41 46.3945 151.1H48.8945ZM41.3492 107.886C42.0042 108.104 42.7121 107.75 42.9304 107.095C43.1487 106.44 42.7947 105.732 42.1398 105.514L41.3492 107.886ZM38.7445 119.45C39.4349 119.45 39.9945 118.89 39.9945 118.2C39.9945 117.51 39.4349 116.95 38.7445 116.95V119.45ZM56.6445 116.95C55.9542 116.95 55.3945 117.51 55.3945 118.2C55.3945 118.89 55.9542 119.45 56.6445 119.45V116.95ZM53.2492 105.514C52.5943 105.732 52.2404 106.44 52.4587 107.095C52.677 107.75 53.3849 108.104 54.0398 107.886L53.2492 105.514ZM124.895 96.2C124.895 95.5096 124.335 94.95 123.645 94.95C122.954 94.95 122.395 95.5096 122.395 96.2H124.895ZM122.395 112.2C122.395 112.89 122.954 113.45 123.645 113.45C124.335 113.45 124.895 112.89 124.895 112.2H122.395ZM131.645 105.45C132.335 105.45 132.895 104.89 132.895 104.2C132.895 103.51 132.335 102.95 131.645 102.95V105.45ZM115.645 102.95C114.954 102.95 114.395 103.51 114.395 104.2C114.395 104.89 114.954 105.45 115.645 105.45V102.95ZM171.645 90.95C170.954 90.95 170.395 91.5096 170.395 92.2C170.395 92.8903 170.954 93.45 171.645 93.45V90.95ZM203.645 93.45C204.335 93.45 204.895 92.8903 204.895 92.2C204.895 91.5096 204.335 90.95 203.645 90.95V93.45ZM171.645 98.95C170.954 98.95 170.395 99.5096 170.395 100.2C170.395 100.89 170.954 101.45 171.645 101.45V98.95ZM187.645 101.45C188.335 101.45 188.895 100.89 188.895 100.2C188.895 99.5096 188.335 98.95 187.645 98.95V101.45ZM235.645 90.95C234.954 90.95 234.395 91.5096 234.395 92.2C234.395 92.8903 234.954 93.45 235.645 93.45V90.95ZM267.645 93.45C268.335 93.45 268.895 92.8903 268.895 92.2C268.895 91.5096 268.335 90.95 267.645 90.95V93.45ZM235.645 98.95C234.954 98.95 234.395 99.5096 234.395 100.2C234.395 100.89 234.954 101.45 235.645 101.45V98.95ZM251.645 101.45C252.335 101.45 252.895 100.89 252.895 100.2C252.895 99.5096 252.335 98.95 251.645 98.95V101.45ZM171.645 146.95C170.954 146.95 170.395 147.51 170.395 148.2C170.395 148.89 170.954 149.45 171.645 149.45V146.95ZM203.645 149.45C204.335 149.45 204.895 148.89 204.895 148.2C204.895 147.51 204.335 146.95 203.645 146.95V149.45ZM171.645 154.95C170.954 154.95 170.395 155.51 170.395 156.2C170.395 156.89 170.954 157.45 171.645 157.45V154.95ZM187.645 157.45C188.335 157.45 188.895 156.89 188.895 156.2C188.895 155.51 188.335 154.95 187.645 154.95V157.45ZM235.645 146.95C234.954 146.95 234.395 147.51 234.395 148.2C234.395 148.89 234.954 149.45 235.645 149.45V146.95ZM267.645 149.45C268.335 149.45 268.895 148.89 268.895 148.2C268.895 147.51 268.335 146.95 267.645 146.95V149.45ZM235.645 154.95C234.954 154.95 234.395 155.51 234.395 156.2C234.395 156.89 234.954 157.45 235.645 157.45V154.95ZM251.645 157.45C252.335 157.45 252.895 156.89 252.895 156.2C252.895 155.51 252.335 154.95 251.645 154.95V157.45ZM171.645 202.95C170.954 202.95 170.395 203.51 170.395 204.2C170.395 204.89 170.954 205.45 171.645 205.45V202.95ZM203.645 205.45C204.335 205.45 204.895 204.89 204.895 204.2C204.895 203.51 204.335 202.95 203.645 202.95V205.45ZM171.645 210.95C170.954 210.95 170.395 211.51 170.395 212.2C170.395 212.89 170.954 213.45 171.645 213.45V210.95ZM187.645 213.45C188.335 213.45 188.895 212.89 188.895 212.2C188.895 211.51 188.335 210.95 187.645 210.95V213.45ZM107.645 146.95C106.954 146.95 106.395 147.51 106.395 148.2C106.395 148.89 106.954 149.45 107.645 149.45V146.95ZM139.645 149.45C140.335 149.45 140.895 148.89 140.895 148.2C140.895 147.51 140.335 146.95 139.645 146.95V149.45ZM107.645 154.95C106.954 154.95 106.395 155.51 106.395 156.2C106.395 156.89 106.954 157.45 107.645 157.45V154.95ZM123.645 157.45C124.335 157.45 124.895 156.89 124.895 156.2C124.895 155.51 124.335 154.95 123.645 154.95V157.45ZM107.645 202.95C106.954 202.95 106.395 203.51 106.395 204.2C106.395 204.89 106.954 205.45 107.645 205.45V202.95ZM139.645 205.45C140.335 205.45 140.895 204.89 140.895 204.2C140.895 203.51 140.335 202.95 139.645 202.95V205.45ZM107.645 210.95C106.954 210.95 106.395 211.51 106.395 212.2C106.395 212.89 106.954 213.45 107.645 213.45V210.95ZM123.645 213.45C124.335 213.45 124.895 212.89 124.895 212.2C124.895 211.51 124.335 210.95 123.645 210.95V213.45ZM54.3826 82.4222C69.1733 85.5917 80.4116 100.008 78.1065 116.527L80.5825 116.873C83.0775 98.9924 70.9157 83.4083 54.9064 79.9777L54.3826 82.4222ZM78.1066 116.527C76.0892 130.936 63.8805 142.179 49.287 142.851L49.402 145.349C65.2085 144.621 78.3998 132.464 80.5825 116.873L78.1066 116.527ZM49.2767 142.852C31.6002 143.812 16.8945 129.691 16.8945 112.1H14.3945C14.3945 131.109 30.2889 146.387 49.4124 145.348L49.2767 142.852ZM16.8945 112.1C16.8945 95.0903 30.6349 81.35 47.6445 81.35V78.85C29.2542 78.85 14.3945 93.7096 14.3945 112.1H16.8945ZM48.8945 80.1V74.1H46.3945V80.1H48.8945ZM48.8945 74.1C48.8945 64.8903 56.4349 57.35 65.6445 57.35V54.85C55.0542 54.85 46.3945 63.5096 46.3945 74.1H48.8945ZM65.6445 57.35H285.645V54.85H65.6445V57.35ZM285.645 57.35C294.854 57.35 302.395 64.8903 302.395 74.1H304.895C304.895 63.5096 296.235 54.85 285.645 54.85V57.35ZM302.395 74.1V246.1H304.895V74.1H302.395ZM302.395 246.1C302.395 255.31 294.854 262.85 285.645 262.85V265.35C296.235 265.35 304.895 256.69 304.895 246.1H302.395ZM285.645 262.85H65.6445V265.35H285.645V262.85ZM65.6445 262.85C56.4349 262.85 48.8945 255.31 48.8945 246.1H46.3945C46.3945 256.69 55.0542 265.35 65.6445 265.35V262.85ZM48.8945 246.1V151.1H46.3945V246.1H48.8945ZM42.1398 105.514C41.1329 105.178 39.999 104.95 38.7445 104.95V107.45C39.6901 107.45 40.5561 107.621 41.3492 107.886L42.1398 105.514ZM38.7445 104.95C33.1919 104.95 28.4945 108.98 28.4945 114.2H30.9945C30.9945 110.62 34.2972 107.45 38.7445 107.45V104.95ZM28.4945 114.2C28.4945 116.556 30.4798 117.843 32.3241 118.502C34.2604 119.194 36.6684 119.45 38.7445 119.45V116.95C36.8206 116.95 34.7287 116.706 33.165 116.148C31.5093 115.556 30.9945 114.844 30.9945 114.2H28.4945ZM56.6445 119.45C58.7206 119.45 61.1287 119.194 63.065 118.502C64.9093 117.843 66.8945 116.556 66.8945 114.2H64.3945C64.3945 114.844 63.8798 115.556 62.2241 116.148C60.6604 116.706 58.5684 116.95 56.6445 116.95V119.45ZM66.8945 114.2C66.8945 108.98 62.1972 104.95 56.6445 104.95V107.45C61.0919 107.45 64.3945 110.62 64.3945 114.2H66.8945ZM56.6445 104.95C55.3901 104.95 54.2561 105.178 53.2492 105.514L54.0398 107.886C54.8329 107.621 55.699 107.45 56.6445 107.45V104.95ZM52.3945 108.2C52.3945 110.823 50.2679 112.95 47.6445 112.95V115.45C51.6486 115.45 54.8945 112.204 54.8945 108.2H52.3945ZM47.6445 112.95C45.0212 112.95 42.8945 110.823 42.8945 108.2H40.3945C40.3945 112.204 43.6405 115.45 47.6445 115.45V112.95ZM42.8945 108.2C42.8945 105.577 45.0212 103.45 47.6445 103.45V100.95C43.6405 100.95 40.3945 104.196 40.3945 108.2H42.8945ZM47.6445 103.45C50.2679 103.45 52.3945 105.577 52.3945 108.2H54.8945C54.8945 104.196 51.6486 100.95 47.6445 100.95V103.45ZM60.3945 101.2C60.3945 103.271 58.7156 104.95 56.6445 104.95V107.45C60.0963 107.45 62.8945 104.652 62.8945 101.2H60.3945ZM56.6445 104.95C54.5735 104.95 52.8945 103.271 52.8945 101.2H50.3945C50.3945 104.652 53.1928 107.45 56.6445 107.45V104.95ZM52.8945 101.2C52.8945 99.1289 54.5735 97.45 56.6445 97.45V94.95C53.1928 94.95 50.3945 97.7482 50.3945 101.2H52.8945ZM56.6445 97.45C58.7156 97.45 60.3945 99.1289 60.3945 101.2H62.8945C62.8945 97.7482 60.0963 94.95 56.6445 94.95V97.45ZM42.3945 101.2C42.3945 103.271 40.7156 104.95 38.6445 104.95V107.45C42.0963 107.45 44.8945 104.652 44.8945 101.2H42.3945ZM38.6445 104.95C36.5735 104.95 34.8945 103.271 34.8945 101.2H32.3945C32.3945 104.652 35.1928 107.45 38.6445 107.45V104.95ZM34.8945 101.2C34.8945 99.1289 36.5735 97.45 38.6445 97.45V94.95C35.1928 94.95 32.3945 97.7482 32.3945 101.2H34.8945ZM38.6445 97.45C40.7156 97.45 42.3945 99.1289 42.3945 101.2H44.8945C44.8945 97.7482 42.0963 94.95 38.6445 94.95V97.45ZM35.3945 124.2C35.3945 125.402 36.0022 126.395 36.7986 127.153C37.5903 127.906 38.6484 128.509 39.7936 128.981C42.0881 129.926 45.0026 130.45 47.6445 130.45V127.95C45.2865 127.95 42.7009 127.474 40.7455 126.669C39.7657 126.266 39.0113 125.807 38.5217 125.341C38.0369 124.88 37.8945 124.498 37.8945 124.2H35.3945ZM47.6445 130.45C50.2864 130.45 53.2009 129.926 55.4955 128.981C56.6407 128.509 57.6988 127.906 58.4904 127.153C59.2869 126.395 59.8945 125.402 59.8945 124.2H57.3945C57.3945 124.498 57.2522 124.88 56.7674 125.341C56.2778 125.807 55.5234 126.266 54.5436 126.669C52.5881 127.474 50.0026 127.95 47.6445 127.95V130.45ZM59.8945 124.2C59.8945 117.904 54.324 112.95 47.6445 112.95V115.45C53.1651 115.45 57.3945 119.496 57.3945 124.2H59.8945ZM47.6445 112.95C40.9651 112.95 35.3945 117.904 35.3945 124.2H37.8945C37.8945 119.496 42.124 115.45 47.6445 115.45V112.95ZM143.645 126.95H103.645V129.45H143.645V126.95ZM103.645 126.95C99.9349 126.95 96.8945 123.91 96.8945 120.2H94.3945C94.3945 125.29 98.5542 129.45 103.645 129.45V126.95ZM96.8945 120.2V88.2H94.3945V120.2H96.8945ZM96.8945 88.2C96.8945 84.4903 99.9349 81.45 103.645 81.45V78.95C98.5542 78.95 94.3945 83.1096 94.3945 88.2H96.8945ZM103.645 81.45H143.645V78.95H103.645V81.45ZM143.645 81.45C147.354 81.45 150.395 84.4903 150.395 88.2H152.895C152.895 83.1096 148.735 78.95 143.645 78.95V81.45ZM150.395 88.2V120.2H152.895V88.2H150.395ZM150.395 120.2C150.395 124.01 147.454 126.95 143.645 126.95V129.45C148.835 129.45 152.895 125.39 152.895 120.2H150.395ZM207.645 126.95H167.645V129.45H207.645V126.95ZM167.645 126.95C163.935 126.95 160.895 123.91 160.895 120.2H158.395C158.395 125.29 162.554 129.45 167.645 129.45V126.95ZM160.895 120.2V88.2H158.395V120.2H160.895ZM160.895 88.2C160.895 84.4903 163.935 81.45 167.645 81.45V78.95C162.554 78.95 158.395 83.1096 158.395 88.2H160.895ZM167.645 81.45H207.645V78.95H167.645V81.45ZM207.645 81.45C211.354 81.45 214.395 84.4903 214.395 88.2H216.895C216.895 83.1096 212.735 78.95 207.645 78.95V81.45ZM214.395 88.2V120.2H216.895V88.2H214.395ZM214.395 120.2C214.395 124.01 211.454 126.95 207.645 126.95V129.45C212.835 129.45 216.895 125.39 216.895 120.2H214.395ZM271.645 126.95H231.645V129.45H271.645V126.95ZM231.645 126.95C227.935 126.95 224.895 123.91 224.895 120.2H222.395C222.395 125.29 226.554 129.45 231.645 129.45V126.95ZM224.895 120.2V88.2H222.395V120.2H224.895ZM224.895 88.2C224.895 84.4903 227.935 81.45 231.645 81.45V78.95C226.554 78.95 222.395 83.1096 222.395 88.2H224.895ZM231.645 81.45H271.645V78.95H231.645V81.45ZM271.645 81.45C275.354 81.45 278.395 84.4903 278.395 88.2H280.895C280.895 83.1096 276.735 78.95 271.645 78.95V81.45ZM278.395 88.2V120.2H280.895V88.2H278.395ZM278.395 120.2C278.395 124.01 275.454 126.95 271.645 126.95V129.45C276.835 129.45 280.895 125.39 280.895 120.2H278.395ZM143.645 182.95H103.645V185.45H143.645V182.95ZM103.645 182.95C99.9349 182.95 96.8945 179.91 96.8945 176.2H94.3945C94.3945 181.29 98.5542 185.45 103.645 185.45V182.95ZM96.8945 176.2V144.2H94.3945V176.2H96.8945ZM96.8945 144.2C96.8945 140.49 99.9349 137.45 103.645 137.45V134.95C98.5542 134.95 94.3945 139.11 94.3945 144.2H96.8945ZM103.645 137.45H143.645V134.95H103.645V137.45ZM143.645 137.45C147.354 137.45 150.395 140.49 150.395 144.2H152.895C152.895 139.11 148.735 134.95 143.645 134.95V137.45ZM150.395 144.2V176.2H152.895V144.2H150.395ZM150.395 176.2C150.395 180.01 147.454 182.95 143.645 182.95V185.45C148.835 185.45 152.895 181.39 152.895 176.2H150.395ZM207.645 182.95H167.645V185.45H207.645V182.95ZM167.645 182.95C163.935 182.95 160.895 179.91 160.895 176.2H158.395C158.395 181.29 162.554 185.45 167.645 185.45V182.95ZM160.895 176.2V144.2H158.395V176.2H160.895ZM160.895 144.2C160.895 140.49 163.935 137.45 167.645 137.45V134.95C162.554 134.95 158.395 139.11 158.395 144.2H160.895ZM167.645 137.45H207.645V134.95H167.645V137.45ZM207.645 137.45C211.354 137.45 214.395 140.49 214.395 144.2H216.895C216.895 139.11 212.735 134.95 207.645 134.95V137.45ZM214.395 144.2V176.2H216.895V144.2H214.395ZM214.395 176.2C214.395 180.01 211.454 182.95 207.645 182.95V185.45C212.835 185.45 216.895 181.39 216.895 176.2H214.395ZM271.645 182.95H231.645V185.45H271.645V182.95ZM231.645 182.95C227.935 182.95 224.895 179.91 224.895 176.2H222.395C222.395 181.29 226.554 185.45 231.645 185.45V182.95ZM224.895 176.2V144.2H222.395V176.2H224.895ZM224.895 144.2C224.895 140.49 227.935 137.45 231.645 137.45V134.95C226.554 134.95 222.395 139.11 222.395 144.2H224.895ZM231.645 137.45H271.645V134.95H231.645V137.45ZM271.645 137.45C275.354 137.45 278.395 140.49 278.395 144.2H280.895C280.895 139.11 276.735 134.95 271.645 134.95V137.45ZM278.395 144.2V176.2H280.895V144.2H278.395ZM278.395 176.2C278.395 180.01 275.454 182.95 271.645 182.95V185.45C276.835 185.45 280.895 181.39 280.895 176.2H278.395ZM143.645 238.95H103.645V241.45H143.645V238.95ZM103.645 238.95C99.9349 238.95 96.8945 235.91 96.8945 232.2H94.3945C94.3945 237.29 98.5542 241.45 103.645 241.45V238.95ZM96.8945 232.2V200.2H94.3945V232.2H96.8945ZM96.8945 200.2C96.8945 196.49 99.9349 193.45 103.645 193.45V190.95C98.5542 190.95 94.3945 195.11 94.3945 200.2H96.8945ZM103.645 193.45H143.645V190.95H103.645V193.45ZM143.645 193.45C147.354 193.45 150.395 196.49 150.395 200.2H152.895C152.895 195.11 148.735 190.95 143.645 190.95V193.45ZM150.395 200.2V232.2H152.895V200.2H150.395ZM150.395 232.2C150.395 236.01 147.454 238.95 143.645 238.95V241.45C148.835 241.45 152.895 237.39 152.895 232.2H150.395ZM207.645 238.95H167.645V241.45H207.645V238.95ZM167.645 238.95C163.935 238.95 160.895 235.91 160.895 232.2H158.395C158.395 237.29 162.554 241.45 167.645 241.45V238.95ZM160.895 232.2V200.2H158.395V232.2H160.895ZM160.895 200.2C160.895 196.49 163.935 193.45 167.645 193.45V190.95C162.554 190.95 158.395 195.11 158.395 200.2H160.895ZM167.645 193.45H207.645V190.95H167.645V193.45ZM207.645 193.45C211.354 193.45 214.395 196.49 214.395 200.2H216.895C216.895 195.11 212.735 190.95 207.645 190.95V193.45ZM214.395 200.2V232.2H216.895V200.2H214.395ZM214.395 232.2C214.395 236.01 211.454 238.95 207.645 238.95V241.45C212.835 241.45 216.895 237.39 216.895 232.2H214.395ZM122.395 96.2V112.2H124.895V96.2H122.395ZM131.645 102.95H115.645V105.45H131.645V102.95ZM171.645 93.45H203.645V90.95H171.645V93.45ZM171.645 101.45H187.645V98.95H171.645V101.45ZM235.645 93.45H267.645V90.95H235.645V93.45ZM235.645 101.45H251.645V98.95H235.645V101.45ZM171.645 149.45H203.645V146.95H171.645V149.45ZM171.645 157.45H187.645V154.95H171.645V157.45ZM235.645 149.45H267.645V146.95H235.645V149.45ZM235.645 157.45H251.645V154.95H235.645V157.45ZM171.645 205.45H203.645V202.95H171.645V205.45ZM171.645 213.45H187.645V210.95H171.645V213.45ZM107.645 149.45H139.645V146.95H107.645V149.45ZM107.645 157.45H123.645V154.95H107.645V157.45ZM107.645 205.45H139.645V202.95H107.645V205.45ZM107.645 213.45H123.645V210.95H107.645V213.45Z" fill="url(#paint0_linear_4_1820)"/>
<defs>
<linearGradient id="paint0_linear_4_1820" x1="159.645" y1="56.1" x2="159.645" y2="264.1" gradientUnits="userSpaceOnUse">
<stop stop-color="#F55868"/>
<stop offset="1" stop-color="#875AE0"/>
</linearGradient>
</defs>
</svg>
