<svg width="380" height="24" viewBox="0 0 380 24" fill="none" xmlns="http://www.w3.org/2000/svg">
<path d="M20.8948 6.21973H24.0324L19.4706 20.0087H15.8713L12.4618 9.60331L9.05232 20.0087H5.50906L0.947266 6.21973H4.15821L7.39506 16.6985L10.7916 6.21973H14.2011L17.6537 16.7546L20.8948 6.21973Z" fill="white"/>
<path d="M37.489 14.2212H27.3124C27.4063 14.9322 27.673 15.6094 28.0892 16.1935C28.4579 16.7045 28.9573 17.107 29.535 17.3587C30.1234 17.6129 30.7586 17.7408 31.3995 17.7342C32.1099 17.7315 32.8142 17.6029 33.4797 17.3544C34.1696 17.1021 34.8139 16.7392 35.3873 16.2798L36.8848 18.4377C36.1211 19.1036 35.2319 19.6098 34.2695 19.9266C33.281 20.2369 32.2499 20.3898 31.2139 20.3798C29.9379 20.4049 28.6776 20.0954 27.5584 19.4821C26.4998 18.8889 25.6328 18.0054 25.0596 16.9358C24.4429 15.7634 24.1341 14.4536 24.1619 13.1293C24.1354 11.8174 24.4318 10.5191 25.025 9.34863C25.5762 8.28405 26.417 7.39688 27.4505 6.78937C28.5348 6.16532 29.7689 5.84898 31.0197 5.87442C32.2 5.84176 33.3648 6.15007 34.3744 6.76242C35.384 7.37478 36.1957 8.26521 36.7122 9.32705C37.2824 10.5013 37.5664 11.7939 37.5408 13.0991C37.5451 13.3882 37.5279 13.7637 37.489 14.2212ZM34.468 11.9338C34.3752 10.9888 33.9697 10.1018 33.3157 9.41337C33.0021 9.11952 32.6327 8.89169 32.2294 8.74342C31.8261 8.59514 31.3971 8.52943 30.9679 8.55021C30.5161 8.52953 30.0647 8.59987 29.6407 8.75704C29.2166 8.91422 28.8284 9.15502 28.4992 9.46516C27.8474 10.1435 27.4313 11.0136 27.3124 11.9467L34.468 11.9338Z" fill="white"/>
<path d="M50.3635 6.79789C51.4133 7.41887 52.2742 8.31407 52.8537 9.38736C53.4733 10.5313 53.7884 11.8154 53.7686 13.1162C53.7884 14.4157 53.4733 15.6983 52.8537 16.8407C52.274 17.919 51.41 18.8177 50.3554 19.4393C49.3008 20.061 48.0961 20.3817 46.872 20.3667C46.013 20.3847 45.1612 20.2061 44.3818 19.8445C43.6675 19.5001 43.0426 18.9949 42.5562 18.3685V20.0085H39.5352V0.350098H42.5562V7.85957C43.0447 7.23746 43.6692 6.7355 44.3818 6.3922C45.1602 6.02706 46.0124 5.84685 46.872 5.86568C48.0993 5.85066 49.307 6.17313 50.3635 6.79789ZM48.7148 16.9443C49.3415 16.5591 49.8458 16.0038 50.1693 15.3432C50.5013 14.6469 50.6735 13.8854 50.6735 13.114C50.6735 12.3427 50.5013 11.5812 50.1693 10.8849C49.8445 10.2252 49.3404 9.6703 48.7148 9.28378C48.0499 8.90338 47.2971 8.70327 46.5311 8.70327C45.765 8.70327 45.0122 8.90338 44.3473 9.28378C43.7201 9.66465 43.2118 10.2133 42.8799 10.8677C42.5209 11.5667 42.3401 12.3435 42.3534 13.1292C42.3397 13.9135 42.5206 14.689 42.8799 15.3863C43.2118 16.0407 43.7201 16.5893 44.3473 16.9702C45.0122 17.3506 45.765 17.5507 46.5311 17.5507C47.2971 17.5507 48.0499 17.3506 48.7148 16.9702V16.9443Z" fill="white"/>
<path d="M68.6745 14.2212H58.5022C58.5961 14.9322 58.8628 15.6094 59.279 16.1935C59.6477 16.7046 60.1471 17.1071 60.7248 17.3588C61.3132 17.6129 61.9483 17.7408 62.5892 17.7342C63.2995 17.7309 64.0037 17.6023 64.6694 17.3545C65.3594 17.1022 66.0037 16.7392 66.577 16.2798L68.0703 18.4377C67.3088 19.1044 66.4208 19.6108 65.4592 19.9267C64.4692 20.2367 63.4367 20.3896 62.3993 20.3798C61.1235 20.4036 59.8635 20.0942 58.7438 19.4821C57.6874 18.8875 56.8221 18.0043 56.2493 16.9358C55.6314 15.7638 55.321 14.454 55.3473 13.1293C55.321 11.8174 55.6174 10.5192 56.2105 9.34866C56.7617 8.28408 57.6025 7.39691 58.6359 6.7894C59.7265 6.15625 60.9702 5.83524 62.231 5.86151C63.411 5.83045 64.5751 6.13943 65.5844 6.75161C66.5937 7.36378 67.4057 8.25331 67.9235 9.31414C68.4937 10.4884 68.7777 11.781 68.7521 13.0861C68.7349 13.3882 68.7047 13.7637 68.6745 14.2212ZM65.6534 11.9338C65.5538 10.9949 65.1473 10.115 64.4968 9.43066C64.1854 9.1352 63.818 8.90507 63.4163 8.75386C63.0145 8.60265 62.5866 8.53342 62.1576 8.55024C61.7058 8.52907 61.2543 8.59917 60.8302 8.75638C60.406 8.91358 60.0179 9.15465 59.689 9.46519C59.0356 10.1424 58.6192 11.0131 58.5022 11.9468L65.6534 11.9338Z" fill="white"/>
<path d="M83.0246 20.0087H79.326L75.8302 15.2138L72.3776 20.0087H68.8516L74.0305 12.9696L68.9336 6.21973H72.6365L76.0028 10.8247L79.3691 6.21973H82.9469L77.8284 12.9437L83.0246 20.0087Z" fill="white"/>
<path d="M100.812 17.0255C100.683 17.4902 100.48 17.9309 100.211 18.3308C99.9485 18.7277 99.6181 19.0753 99.2349 19.3577C98.8267 19.6538 98.3737 19.8829 97.8931 20.0364C97.3464 20.2086 96.776 20.2937 96.2028 20.2888C95.5112 20.2974 94.8237 20.1824 94.1726 19.9494C93.5712 19.7342 93.0261 19.3862 92.5782 18.9313C92.105 18.4355 91.7479 17.8411 91.5326 17.1909C91.2668 16.4247 91.1399 15.6172 91.1579 14.8065C91.1414 14.0045 91.2683 13.2059 91.5326 12.4483C91.751 11.8163 92.1015 11.2379 92.5607 10.7514C92.993 10.292 93.5272 9.94029 94.1204 9.7246C94.7522 9.48671 95.423 9.36867 96.0982 9.37652C96.7656 9.36727 97.4294 9.47628 98.0587 9.69849C98.6463 9.91389 99.1705 10.2729 99.5835 10.7427C100.036 11.2733 100.371 11.893 100.568 12.5614C100.828 13.4245 100.948 14.3233 100.925 15.2242H93.0835C93.0681 16.1909 93.4271 17.1261 94.0855 17.8348C94.672 18.3776 95.447 18.671 96.2464 18.6528C96.8218 18.675 97.3884 18.5067 97.8583 18.1742C98.2773 17.8925 98.5853 17.4742 98.7296 16.9907L100.812 17.0255ZM96.1418 10.9342C95.4273 10.9167 94.7318 11.1648 94.1901 11.6303C93.6081 12.1979 93.2468 12.9535 93.1706 13.7623H98.991C98.9911 12.9652 98.6783 12.1997 98.1197 11.6303C97.5712 11.1595 96.8644 10.9138 96.1418 10.9429V10.9342Z" fill="white"/>
<path d="M107.338 5.76459C108.313 5.75066 109.284 5.89466 110.213 6.19099C111.042 6.44863 111.8 6.89553 112.426 7.49628C113.064 8.11508 113.553 8.87098 113.855 9.70658C114.21 10.7242 114.381 11.7967 114.36 12.8741C114.376 13.9165 114.196 14.9526 113.829 15.9285C113.516 16.7695 113.018 17.5294 112.371 18.1516C111.724 18.7738 110.944 19.2424 110.091 19.5224C109.167 19.8437 108.194 20.0027 107.216 19.9923H102.729V5.76459H107.338ZM104.724 7.36575V18.3302H107.399C108.066 18.372 108.735 18.2709 109.36 18.0338C109.985 17.7967 110.552 17.429 111.023 16.9553C111.953 15.8131 112.411 14.3596 112.304 12.8915C112.317 12.066 112.2 11.2437 111.956 10.4549C111.757 9.80869 111.418 9.21432 110.962 8.71456C110.535 8.24944 110.003 7.89166 109.411 7.67032C108.75 7.44163 108.055 7.32973 107.355 7.33965L104.724 7.36575Z" fill="white"/>
<path d="M115.902 7.99235V5.76465H118.054V7.99235H115.902ZM116.024 19.9923V9.71534H117.924V19.9923H116.024Z" fill="white"/>
<path d="M126.114 17.2426C126.124 16.9748 126.051 16.7103 125.905 16.4856C125.747 16.278 125.545 16.1085 125.312 15.9896C125.011 15.8445 124.696 15.7308 124.371 15.6502C123.997 15.5458 123.587 15.45 123.126 15.3456C122.174 15.2004 121.275 14.8172 120.512 14.2318C120.253 13.9989 120.049 13.7123 119.913 13.392C119.778 13.0718 119.714 12.7257 119.727 12.3782C119.719 11.9693 119.807 11.5641 119.984 11.1953C120.161 10.8265 120.422 10.5044 120.747 10.255C121.629 9.73357 122.636 9.4585 123.661 9.4585C124.687 9.4585 125.693 9.73357 126.576 10.255C126.941 10.5128 127.25 10.8413 127.485 11.2211C127.72 11.6008 127.876 12.024 127.944 12.4653H126.001C125.912 12.0149 125.649 11.6177 125.269 11.3601C124.785 11.1113 124.249 10.9815 123.705 10.9815C123.161 10.9815 122.625 11.1113 122.141 11.3601C121.996 11.4558 121.876 11.5847 121.791 11.7361C121.706 11.8875 121.659 12.0569 121.653 12.2303C121.648 12.4091 121.68 12.5871 121.749 12.7524C121.828 12.9169 121.952 13.0556 122.106 13.1527C122.33 13.2996 122.573 13.4139 122.829 13.4921C123.227 13.6199 123.631 13.7245 124.04 13.8054C124.594 13.9249 125.14 14.073 125.678 14.2492C126.126 14.3941 126.549 14.6053 126.933 14.8757C127.265 15.1172 127.539 15.4293 127.735 15.7894C128.038 16.4032 128.118 17.1037 127.959 17.7697C127.799 18.4356 127.412 19.0249 126.863 19.4355C126.462 19.7434 126.007 19.9737 125.522 20.1143C124.929 20.2794 124.316 20.3586 123.701 20.3492C122.594 20.4043 121.499 20.0989 120.581 19.479C120.203 19.2036 119.889 18.8491 119.662 18.4404C119.435 18.0316 119.3 17.5784 119.266 17.1121H121.209C121.234 17.3799 121.319 17.6387 121.456 17.8702C121.593 18.1018 121.779 18.3005 122.002 18.4522C122.531 18.7512 123.137 18.8903 123.744 18.8525C124.359 18.895 124.971 18.7362 125.487 18.4C125.68 18.2754 125.839 18.1041 125.949 17.9017C126.059 17.6994 126.116 17.4727 126.114 17.2426Z" fill="white"/>
<path d="M138.391 16.6858C138.331 17.1815 138.174 17.6605 137.929 18.0955C137.687 18.5294 137.368 18.9157 136.988 19.2355C136.588 19.5771 136.127 19.8399 135.629 20.0099C134.437 20.4041 133.145 20.3796 131.969 19.9403C131.381 19.719 130.851 19.368 130.418 18.9135C129.967 18.4296 129.614 17.8619 129.381 17.2427C129.122 16.502 128.995 15.7214 129.007 14.9367C128.995 14.1541 129.112 13.3749 129.355 12.6307C129.556 11.9857 129.895 11.3919 130.349 10.8903C130.772 10.4215 131.292 10.0504 131.873 9.80255C132.503 9.54524 133.179 9.41795 133.86 9.42837C134.918 9.3942 135.959 9.69915 136.831 10.2986C137.232 10.5865 137.57 10.9536 137.823 11.3772C138.077 11.8008 138.24 12.2719 138.304 12.7612H136.212C136.113 12.2458 135.828 11.7845 135.411 11.4646C134.967 11.1558 134.435 11 133.895 11.0208C133.501 11.0145 133.11 11.0974 132.752 11.2631C132.395 11.4289 132.079 11.6733 131.83 11.978C131.225 12.8602 130.942 13.9232 131.028 14.9889C131.018 15.5455 131.095 16.1003 131.255 16.6336C131.381 17.05 131.588 17.4375 131.865 17.7735C132.116 18.0702 132.432 18.3054 132.788 18.461C133.144 18.6101 133.526 18.687 133.912 18.6873C134.487 18.7057 135.051 18.5243 135.507 18.1738C135.953 17.7975 136.24 17.2655 136.308 16.6858H138.391Z" fill="white"/>
<path d="M139.385 14.8498C139.365 14.0275 139.504 13.209 139.794 12.4393C140.031 11.7874 140.406 11.1939 140.892 10.6989C141.35 10.2527 141.9 9.91121 142.504 9.69821C143.134 9.47879 143.797 9.36986 144.464 9.37624C145.14 9.37065 145.812 9.47952 146.451 9.69821C147.055 9.91121 147.605 10.2527 148.063 10.6989C148.541 11.1954 148.907 11.789 149.135 12.4393C149.418 13.2107 149.554 14.0283 149.535 14.8498C149.551 15.6561 149.418 16.4584 149.143 17.2167C148.922 17.868 148.559 18.4623 148.08 18.9571C147.625 19.4132 147.075 19.7638 146.468 19.9839C145.82 20.2177 145.136 20.3355 144.447 20.332C143.767 20.3348 143.091 20.2169 142.452 19.9839C141.844 19.7625 141.293 19.4088 140.84 18.9484C140.37 18.459 140.005 17.8785 139.768 17.2428C139.496 16.4748 139.367 15.664 139.385 14.8498ZM141.363 14.8498C141.353 15.4184 141.433 15.985 141.598 16.5293C141.733 16.9769 141.955 17.3937 142.251 17.7562C142.519 18.0775 142.86 18.3309 143.245 18.4959C143.638 18.6653 144.062 18.7512 144.491 18.7482C144.911 18.7607 145.328 18.6779 145.711 18.5061C146.095 18.3343 146.434 18.0779 146.704 17.7562C147.334 16.9232 147.643 15.8916 147.575 14.8498C147.587 14.2747 147.504 13.7015 147.331 13.1529C147.195 12.7072 146.976 12.291 146.686 11.9259C146.419 11.6094 146.082 11.3591 145.702 11.195C145.315 11.0362 144.9 10.9563 144.482 10.96C144.063 10.9609 143.649 11.0437 143.262 11.2037C142.877 11.3719 142.537 11.6283 142.269 11.952C141.973 12.3078 141.75 12.719 141.615 13.1616C141.443 13.7076 141.358 14.2773 141.363 14.8498Z" fill="white"/>
<path d="M159.303 9.71582L155.687 19.9928H153.116L149.535 9.71582H151.609L154.458 18.4178L157.325 9.71582H159.303Z" fill="white"/>
<path d="M168.956 17.0249C168.834 17.4904 168.634 17.9319 168.364 18.3302C168.101 18.7271 167.771 19.0747 167.388 19.357C166.98 19.6532 166.527 19.8823 166.046 20.0358C165.483 20.2132 164.894 20.2984 164.303 20.2881C163.615 20.2961 162.93 20.1812 162.282 19.9488C161.702 19.7256 161.179 19.378 160.749 18.9306C160.272 18.4373 159.915 17.8421 159.703 17.1902C159.434 16.4246 159.304 15.6172 159.32 14.8059C159.306 14.0033 159.435 13.2047 159.703 12.4477C159.932 11.8297 160.288 11.2664 160.749 10.7943C161.181 10.3349 161.715 9.98317 162.308 9.76748C162.923 9.53294 163.576 9.41205 164.234 9.4107C164.901 9.40145 165.565 9.51046 166.194 9.73267C166.782 9.94807 167.306 10.3071 167.719 10.7769C168.171 11.3075 168.507 11.9271 168.704 12.5956C168.959 13.4596 169.079 14.3578 169.061 15.2584H161.219C161.204 16.2251 161.563 17.1603 162.221 17.869C162.807 18.4118 163.583 18.7052 164.382 18.687C164.957 18.7091 165.524 18.5409 165.994 18.2084C166.413 17.9267 166.721 17.5084 166.865 17.0249H168.956ZM164.295 10.9335C163.58 10.9161 162.885 11.1641 162.343 11.6297C161.761 12.1973 161.4 12.9528 161.324 13.7617H167.144C167.148 12.9638 166.834 12.197 166.273 11.6297C165.726 11.1565 165.018 10.9106 164.295 10.9422V10.9335Z" fill="white"/>
<path d="M170.761 19.9925V9.71546H172.32L172.582 11.2383C172.779 10.7048 173.136 10.2445 173.603 9.91939C174.07 9.59425 174.626 9.41983 175.196 9.41959C175.418 9.41756 175.639 9.43503 175.858 9.4718C176.05 9.4718 176.198 9.53272 176.32 9.55882V11.4559C176.13 11.4022 175.938 11.3586 175.745 11.3253C175.537 11.29 175.328 11.2725 175.117 11.2731C174.794 11.2745 174.474 11.3395 174.176 11.4646C173.868 11.5986 173.598 11.8081 173.392 12.0737C173.143 12.4065 172.963 12.785 172.861 13.1875C172.718 13.7238 172.65 14.2774 172.66 14.8322V19.9925H170.761Z" fill="white"/>
<path d="M182.218 20.1321C182.017 20.6977 181.826 21.2024 181.634 21.6636C181.461 22.0811 181.232 22.4733 180.954 22.8297C180.719 23.1367 180.422 23.3915 180.083 23.578C179.706 23.7607 179.291 23.8503 178.872 23.8391C178.683 23.8537 178.494 23.8537 178.305 23.8391C178.14 23.8391 177.922 23.7695 177.643 23.6999V22.1248C177.964 22.2127 178.295 22.2595 178.628 22.264C178.83 22.2692 179.031 22.2244 179.212 22.1335C179.391 22.0383 179.541 21.8971 179.647 21.7245C179.795 21.5057 179.921 21.2724 180.022 21.0284C180.153 20.7412 180.283 20.4018 180.431 19.9928H179.822L176.04 9.71582H178.096L181.006 18.4178L183.917 9.71582H185.816L182.218 20.1321Z" fill="white"/>
<path d="M200.751 16.1376C200.756 15.8401 200.702 15.5446 200.594 15.2674C200.452 14.9706 200.228 14.7202 199.949 14.5451C199.523 14.2686 199.063 14.0464 198.581 13.8838C197.998 13.6662 197.222 13.4226 196.264 13.1615C195.55 12.9778 194.853 12.7332 194.181 12.4306C193.693 12.2145 193.242 11.9206 192.848 11.5604C192.529 11.2577 192.285 10.8854 192.134 10.4726C191.989 10.0468 191.918 9.5995 191.925 9.14991C191.916 8.63662 192.033 8.12902 192.264 7.67058C192.502 7.21158 192.842 6.8128 193.258 6.50452C193.737 6.15211 194.277 5.89238 194.852 5.73875C195.561 5.54046 196.295 5.44664 197.03 5.46028C197.745 5.45373 198.457 5.54151 199.148 5.72134C199.765 5.88392 200.353 6.14233 200.89 6.48711C201.355 6.80217 201.755 7.20404 202.067 7.67058C202.385 8.1617 202.591 8.71757 202.668 9.29785H200.594C200.551 8.96423 200.433 8.64464 200.249 8.3629C200.065 8.08116 199.819 7.84451 199.531 7.67058C198.766 7.25317 197.9 7.05727 197.03 7.10495C196.561 7.09436 196.093 7.14408 195.636 7.25289C195.295 7.32672 194.97 7.46239 194.678 7.65318C194.442 7.8077 194.25 8.02053 194.12 8.27102C194.007 8.50439 193.948 8.76008 193.946 9.01938C193.942 9.27204 193.986 9.52317 194.077 9.75905C194.19 10.0071 194.371 10.2182 194.599 10.3682C194.949 10.6054 195.326 10.7983 195.723 10.9425C196.366 11.1839 197.02 11.393 197.684 11.5691C198.528 11.7937 199.352 12.0847 200.15 12.4393C200.712 12.6889 201.235 13.0203 201.701 13.4226C202.092 13.7427 202.392 14.1598 202.572 14.6321C202.744 15.103 202.827 15.6017 202.816 16.1028C202.815 16.6543 202.69 17.1986 202.45 17.6952C202.171 18.1992 201.788 18.6382 201.326 18.9831C200.81 19.4044 200.219 19.7234 199.583 19.9229C198.82 20.1631 198.023 20.2805 197.222 20.271C196.496 20.2755 195.774 20.1729 195.079 19.9664C194.455 19.7708 193.867 19.4771 193.336 19.0963C192.831 18.733 192.402 18.2748 192.073 17.7474C191.741 17.2189 191.527 16.6254 191.445 16.0071H193.519C193.566 16.3847 193.69 16.7489 193.881 17.0778C194.073 17.4068 194.329 17.6937 194.634 17.9215C195.38 18.4342 196.275 18.6852 197.179 18.635C197.706 18.6472 198.231 18.5798 198.738 18.4349C199.143 18.3264 199.524 18.1435 199.862 17.8954C200.141 17.6838 200.37 17.4134 200.533 17.1035C200.681 16.8032 200.756 16.4722 200.751 16.1376Z" fill="white"/>
<path d="M213.515 17.0255C213.386 17.4902 213.183 17.9309 212.914 18.3308C212.652 18.7277 212.321 19.0753 211.938 19.3577C211.53 19.6538 211.077 19.8829 210.596 20.0364C210.05 20.2086 209.479 20.2937 208.906 20.2888C208.214 20.2974 207.527 20.1824 206.876 19.9494C206.274 19.7342 205.729 19.3862 205.281 18.9313C204.808 18.4355 204.451 17.8411 204.236 17.1909C203.97 16.4247 203.843 15.6172 203.861 14.8065C203.845 14.0045 203.971 13.2059 204.236 12.4483C204.454 11.8163 204.805 11.2379 205.264 10.7514C205.698 10.2937 206.231 9.9423 206.824 9.7246C207.455 9.48671 208.126 9.36867 208.801 9.37652C209.469 9.36727 210.133 9.47628 210.762 9.69849C211.349 9.91389 211.874 10.2729 212.287 10.7427C212.739 11.2733 213.074 11.893 213.271 12.5614C213.531 13.4245 213.651 14.3233 213.628 15.2242H205.787C205.771 16.1909 206.13 17.1261 206.789 17.8348C207.375 18.3776 208.15 18.671 208.949 18.6528C209.525 18.675 210.092 18.5067 210.561 18.1742C210.98 17.8925 211.288 17.4742 211.433 16.9907L213.515 17.0255ZM208.845 10.9342C208.13 10.9167 207.435 11.1648 206.893 11.6303C206.311 12.1979 205.95 12.9535 205.874 13.7623H211.694C211.694 12.9652 211.381 12.1997 210.823 11.6303C210.274 11.1595 209.568 10.9138 208.845 10.9429V10.9342Z" fill="white"/>
<path d="M214.918 12.5788C214.959 12.1241 215.098 11.6836 215.325 11.2872C215.552 10.8909 215.862 10.5479 216.233 10.2815C217.14 9.65893 218.228 9.35301 219.327 9.41132C219.935 9.40177 220.541 9.48992 221.122 9.67238C221.607 9.82017 222.055 10.0693 222.437 10.4033C222.785 10.7152 223.061 11.098 223.248 11.5259C223.423 11.9895 223.503 12.4838 223.483 12.9791V19.9929H221.923L221.74 18.5832C221.377 19.0775 220.914 19.4897 220.381 19.7928C219.744 20.1428 219.025 20.3142 218.299 20.2888C217.784 20.2952 217.272 20.2188 216.782 20.0625C216.375 19.9242 215.997 19.7118 215.667 19.436C215.368 19.1819 215.129 18.8636 214.97 18.5049C214.81 18.1373 214.729 17.7398 214.735 17.3388C214.715 16.924 214.785 16.5098 214.942 16.125C215.098 15.7402 215.337 15.3942 215.641 15.1111C216.504 14.4453 217.536 14.0352 218.621 13.9276L221.627 13.4142V12.8921C221.644 12.618 221.598 12.3437 221.492 12.0902C221.387 11.8367 221.224 11.6109 221.017 11.4302C220.509 11.1014 219.92 10.9206 219.315 10.9083C218.71 10.896 218.113 11.0526 217.593 11.3606C217.223 11.6616 216.988 12.0965 216.939 12.5701L214.918 12.5788ZM218.734 18.6702C219.094 18.6709 219.452 18.6061 219.788 18.4788C220.129 18.3646 220.445 18.1875 220.721 17.9566C220.985 17.7377 221.206 17.4722 221.374 17.1735C221.539 16.8755 221.624 16.5394 221.618 16.1989V14.8936L219.074 15.3461C218.685 15.4053 218.303 15.5014 217.933 15.6332C217.675 15.7256 217.434 15.8578 217.218 16.0248C217.055 16.161 216.927 16.334 216.843 16.5295C216.771 16.7275 216.736 16.9368 216.739 17.1474C216.725 17.3649 216.764 17.5826 216.854 17.7814C216.943 17.9801 217.08 18.1539 217.253 18.2873C217.688 18.583 218.209 18.724 218.734 18.6876V18.6702Z" fill="white"/>
<path d="M225.601 19.9925V9.71551H227.16L227.422 11.2384C227.618 10.7042 227.974 10.2432 228.442 9.91788C228.909 9.59257 229.466 9.41864 230.036 9.41964C230.26 9.41728 230.485 9.43476 230.706 9.47186L231.168 9.55888V11.4559C230.979 11.4023 230.787 11.3587 230.593 11.3254C230.383 11.2896 230.17 11.2722 229.957 11.2732C229.637 11.2755 229.32 11.3405 229.025 11.4646C228.715 11.5964 228.445 11.8063 228.241 12.0737C227.992 12.4065 227.811 12.785 227.709 13.1876C227.562 13.723 227.494 14.2772 227.509 14.8323V19.9925H225.601Z" fill="white"/>
<path d="M240.63 16.686C240.57 17.1817 240.413 17.6607 240.168 18.0957C239.926 18.5296 239.608 18.9159 239.227 19.2357C238.827 19.5773 238.366 19.8401 237.868 20.0101C237.307 20.199 236.718 20.2931 236.125 20.2886C235.468 20.2908 234.815 20.1728 234.2 19.9405C233.616 19.717 233.089 19.3662 232.658 18.9137C232.206 18.4312 231.857 17.863 231.629 17.2429C231.37 16.5022 231.243 15.7216 231.255 14.9369C231.243 14.1543 231.36 13.3751 231.603 12.6309C231.805 11.988 232.141 11.3949 232.588 10.8905C233.015 10.4228 233.538 10.0519 234.121 9.80274C234.749 9.54634 235.421 9.41907 236.099 9.42855C237.16 9.39313 238.204 9.6981 239.079 10.2987C239.48 10.5866 239.818 10.9538 240.071 11.3774C240.325 11.801 240.488 12.2721 240.552 12.7614H238.46C238.361 12.2459 238.076 11.7847 237.659 11.4648C237.215 11.156 236.683 11.0002 236.143 11.021C235.749 11.0147 235.358 11.0975 235 11.2633C234.643 11.4291 234.327 11.6735 234.078 11.9782C233.469 12.8586 233.186 13.923 233.276 14.9891C233.262 15.546 233.339 16.1014 233.503 16.6338C233.629 17.0502 233.836 17.4376 234.113 17.7737C234.364 18.0704 234.68 18.3056 235.036 18.4612C235.392 18.6103 235.774 18.6872 236.16 18.6874C236.735 18.7059 237.299 18.5245 237.755 18.174C238.201 17.7977 238.488 17.2657 238.556 16.686H240.63Z" fill="white"/>
<path d="M242.216 19.9923V5.76465H244.115V10.8814C244.47 10.4159 244.93 10.0404 245.457 9.78495C245.977 9.54027 246.546 9.41537 247.121 9.41947C247.61 9.39359 248.099 9.4683 248.558 9.63895C249.016 9.8096 249.435 10.0725 249.787 10.4115C250.133 10.8034 250.396 11.2598 250.564 11.7541C250.731 12.2485 250.799 12.7712 250.763 13.2918V19.9923H248.864V13.3092C248.893 12.9959 248.858 12.68 248.76 12.3808C248.663 12.0815 248.505 11.8053 248.298 11.5689C248.077 11.3716 247.819 11.2206 247.54 11.1249C247.26 11.0292 246.963 10.9908 246.668 11.0119C246.326 11.0095 245.986 11.0715 245.666 11.1947C245.361 11.3079 245.085 11.486 244.856 11.7168C244.617 11.966 244.433 12.2624 244.316 12.587C244.179 12.9515 244.111 13.3379 244.115 13.7269V19.9923H242.216Z" fill="white"/>
<path d="M257.786 12.5788C257.828 12.1241 257.967 11.6836 258.194 11.2872C258.421 10.8909 258.731 10.5479 259.102 10.2815C260.009 9.65893 261.096 9.35301 262.195 9.41132C262.804 9.40177 263.41 9.48992 263.99 9.67238C264.476 9.82017 264.924 10.0693 265.306 10.4033C265.659 10.7105 265.936 11.0946 266.116 11.5259C266.305 11.9838 266.4 12.4751 266.395 12.9704V19.9842H264.827L264.591 18.5745C264.231 19.0706 263.767 19.4832 263.232 19.7841C262.596 20.1341 261.876 20.3055 261.15 20.2801C260.635 20.2865 260.124 20.2101 259.634 20.0538C259.226 19.9155 258.848 19.7031 258.518 19.4273C258.221 19.1712 257.983 18.8534 257.821 18.4962C257.661 18.1286 257.581 17.7311 257.586 17.3301C257.567 16.9146 257.639 16.5 257.797 16.1152C257.955 15.7304 258.195 15.3847 258.501 15.1024C259.364 14.4382 260.396 14.0283 261.481 13.9189L264.496 13.4055V12.8921C264.512 12.6173 264.464 12.3426 264.357 12.089C264.25 11.8355 264.085 11.6101 263.877 11.4302C263.369 11.1014 262.78 10.9206 262.175 10.9083C261.57 10.896 260.973 11.0526 260.453 11.3606C260.083 11.6616 259.848 12.0965 259.799 12.5701L257.786 12.5788ZM261.603 18.6702C261.966 18.6701 262.326 18.6052 262.666 18.4788C263.003 18.3626 263.316 18.1856 263.589 17.9566C263.853 17.7377 264.075 17.4722 264.243 17.1735C264.411 16.8761 264.498 16.5402 264.496 16.1989V14.8936L261.943 15.3461C261.554 15.4053 261.172 15.5014 260.801 15.6332C260.544 15.7256 260.303 15.8578 260.087 16.0248C259.926 16.1634 259.798 16.3357 259.712 16.5295C259.64 16.7275 259.605 16.9368 259.607 17.1474C259.593 17.3649 259.633 17.5826 259.722 17.7814C259.812 17.9801 259.949 18.1539 260.122 18.2873C260.556 18.583 261.078 18.724 261.603 18.6876V18.6702Z" fill="white"/>
<path d="M268.469 19.9928V9.71576H270.028L270.246 11.0211C270.599 10.5207 271.068 10.1129 271.612 9.8326C272.157 9.55228 272.761 9.4077 273.374 9.41119C273.862 9.38548 274.349 9.46029 274.806 9.63096C275.264 9.80164 275.681 10.0645 276.032 10.4032C276.38 10.7934 276.647 11.2493 276.816 11.7439C276.985 12.2386 277.053 12.7621 277.016 13.2836V19.9841H275.117V13.3097C275.146 12.9964 275.111 12.6804 275.013 12.3812C274.916 12.082 274.758 11.8057 274.55 11.5693C274.33 11.372 274.072 11.221 273.792 11.1253C273.513 11.0297 273.216 10.9912 272.921 11.0124C272.584 11.0106 272.25 11.0726 271.937 11.1951C271.634 11.3084 271.358 11.4832 271.126 11.7085C270.891 11.9421 270.704 12.2202 270.577 12.5265C270.433 12.8738 270.362 13.247 270.368 13.6229V19.9667L268.469 19.9928Z" fill="white"/>
<path d="M286.81 19.9923L286.47 18.5478C286.112 19.059 285.645 19.4841 285.102 19.7922C284.474 20.1393 283.764 20.3106 283.046 20.2882C282.43 20.2914 281.821 20.1731 281.251 19.9401C280.697 19.7125 280.202 19.3612 279.805 18.9133C279.373 18.4223 279.046 17.8476 278.846 17.2251C278.6 16.4787 278.482 15.6961 278.498 14.9104C278.481 14.0933 278.598 13.2789 278.846 12.5C279.04 11.859 279.366 11.2659 279.805 10.7596C280.206 10.3044 280.711 9.95226 281.277 9.73274C281.878 9.49396 282.521 9.37568 283.168 9.38466C283.858 9.35884 284.544 9.5149 285.154 9.83716C285.669 10.1239 286.117 10.5152 286.47 10.9858V5.76465H288.37V19.9923H286.81ZM280.476 14.9539C280.467 15.5019 280.543 16.0479 280.702 16.5725C280.834 16.9952 281.047 17.3883 281.329 17.7298C281.585 18.0316 281.907 18.2699 282.27 18.426C282.647 18.5892 283.054 18.6722 283.464 18.6697C283.915 18.6762 284.362 18.5811 284.771 18.3912C285.148 18.2094 285.481 17.9482 285.747 17.6254C286.031 17.2831 286.242 16.8862 286.366 16.4594C286.502 15.9752 286.57 15.4743 286.566 14.9713C286.624 13.9279 286.316 12.897 285.695 12.0562C285.422 11.7226 285.075 11.457 284.682 11.2803C284.289 11.1036 283.86 11.0206 283.429 11.038C283.022 11.0319 282.619 11.1171 282.25 11.2873C281.881 11.4575 281.554 11.7084 281.295 12.0214C280.689 12.8744 280.4 13.9111 280.476 14.9539Z" fill="white"/>
<path d="M304.298 13.5877H298.007V18.2868H304.873V20.0272H295.985V5.76465H304.873V7.50504H298.007V11.9691H304.298V13.5877Z" fill="white"/>
<path d="M311.485 14.5193L315.519 19.9928H313.227L310.439 16.016L307.703 19.9928H305.473L309.306 14.6585L305.708 9.71582H307.999L310.457 13.1966L312.792 9.71582H314.97L311.485 14.5193Z" fill="white"/>
<path d="M321.114 20.0882C320.657 20.2157 320.185 20.283 319.711 20.2884C319.33 20.3163 318.948 20.2606 318.591 20.1253C318.235 19.99 317.912 19.7784 317.646 19.5052C317.166 18.9278 316.921 18.192 316.957 17.4428V11.3515H315.433V9.7155H316.957L317.079 7.24414H318.822V9.7155H321.07V11.3341H318.857V17.4776C318.857 18.2434 319.223 18.6263 319.946 18.6263C320.111 18.635 320.277 18.635 320.443 18.6263L321.114 18.4958V20.0882Z" fill="white"/>
<path d="M322.298 19.9925V9.71546H323.857L324.119 11.2383C324.316 10.7048 324.673 10.2445 325.14 9.91939C325.607 9.59425 326.163 9.41983 326.733 9.41959C326.955 9.41756 327.176 9.43503 327.395 9.4718C327.587 9.4718 327.735 9.53272 327.857 9.55882V11.4559C327.668 11.4022 327.476 11.3586 327.282 11.3253C327.072 11.2896 326.859 11.2721 326.646 11.2731C326.325 11.2754 326.009 11.3404 325.713 11.4646C325.405 11.5986 325.135 11.8081 324.929 12.0737C324.68 12.4065 324.5 12.785 324.398 13.1875C324.251 13.723 324.183 14.2771 324.197 14.8322V19.9925H322.298Z" fill="white"/>
<path d="M328.354 12.5788C328.396 12.1241 328.535 11.6836 328.762 11.2872C328.989 10.8909 329.299 10.5479 329.67 10.2815C330.577 9.65893 331.664 9.35301 332.763 9.41132C333.369 9.40103 333.972 9.4892 334.549 9.67238C335.036 9.81739 335.485 10.0669 335.865 10.4033C336.218 10.7124 336.498 11.0958 336.684 11.5259C336.87 11.9844 336.962 12.4757 336.954 12.9704V19.9842H335.394L335.159 18.5745C334.796 19.0688 334.333 19.481 333.8 19.7841C333.163 20.1341 332.444 20.3055 331.718 20.2801C331.203 20.2865 330.691 20.2101 330.201 20.0538C329.793 19.9184 329.414 19.7057 329.086 19.4273C328.787 19.1732 328.548 18.8549 328.389 18.4962C328.229 18.1286 328.148 17.7311 328.154 17.3301C328.131 16.9181 328.197 16.506 328.347 16.1217C328.497 15.7373 328.729 15.3897 329.025 15.1024C329.892 14.4384 330.927 14.0286 332.014 13.9189L335.02 13.4055V12.8921C335.037 12.618 334.991 12.3437 334.885 12.0902C334.78 11.8367 334.617 11.6109 334.41 11.4302C333.902 11.1014 333.313 10.9206 332.708 10.9083C332.103 10.896 331.506 11.0526 330.986 11.3606C330.616 11.6616 330.381 12.0965 330.332 12.5701L328.354 12.5788ZM332.171 18.6702C332.894 18.6598 333.593 18.4087 334.157 17.9566C334.421 17.7377 334.643 17.4722 334.811 17.1735C334.976 16.8755 335.06 16.5394 335.055 16.1989V14.8936L332.502 15.3461C332.116 15.4054 331.737 15.5015 331.369 15.6332C331.112 15.7256 330.871 15.8578 330.655 16.0248C330.491 16.161 330.363 16.334 330.28 16.5295C330.208 16.7275 330.172 16.9368 330.175 17.1474C330.157 17.3619 330.191 17.5777 330.274 17.7763C330.358 17.9748 330.488 18.1502 330.655 18.2873C331.099 18.5906 331.634 18.732 332.171 18.6876V18.6702Z" fill="white"/>
<path d="M347.819 16.6862C347.755 17.181 347.599 17.6593 347.357 18.0959C347.113 18.5279 346.794 18.9137 346.416 19.2359C346.014 19.5793 345.55 19.8423 345.048 20.0104C343.856 20.4046 342.565 20.38 341.389 19.9408C340.805 19.7172 340.278 19.3664 339.847 18.9139C339.395 18.4315 339.046 17.8633 338.818 17.2432C338.555 16.5035 338.428 15.7221 338.444 14.9371C338.433 14.1553 338.548 13.3768 338.784 12.6311C338.992 11.9891 339.33 11.3968 339.777 10.8907C340.203 10.4209 340.726 10.0497 341.31 9.80298C342.117 9.48769 342.988 9.36902 343.85 9.45679C344.712 9.54457 345.541 9.83625 346.268 10.3077C346.668 10.5971 347.005 10.9646 347.258 11.3879C347.511 11.8113 347.675 12.2816 347.741 12.7703H345.641C345.541 12.2549 345.256 11.7937 344.839 11.4738C344.396 11.1649 343.863 11.0091 343.323 11.03C342.929 11.0236 342.538 11.1065 342.181 11.2722C341.823 11.438 341.508 11.6824 341.258 11.9872C340.653 12.8694 340.37 13.9323 340.456 14.998C340.447 15.5546 340.523 16.1094 340.683 16.6427C340.812 17.0597 341.022 17.4472 341.302 17.7827C341.536 18.0754 341.834 18.3106 342.173 18.4701C342.532 18.6201 342.917 18.6971 343.306 18.6964C343.88 18.712 344.443 18.5308 344.9 18.183C345.344 17.8058 345.628 17.2736 345.693 16.6949L347.819 16.6862Z" fill="white"/>
<path d="M353.988 20.0882C353.531 20.2157 353.059 20.283 352.585 20.2884C352.206 20.315 351.825 20.2587 351.47 20.1234C351.115 19.9882 350.794 19.7772 350.529 19.5052C350.046 18.929 349.797 18.1932 349.832 17.4428V11.3515H348.315V9.7155H349.823L349.945 7.24414H351.687V9.7155H353.909V11.3341H351.687V17.4776C351.687 18.2434 352.053 18.6263 352.777 18.6263C352.942 18.6354 353.108 18.6354 353.273 18.6263L353.944 18.4958L353.988 20.0882Z" fill="white"/>
<path d="M355.051 7.99235V5.76465H357.185V7.99235H355.051ZM355.164 19.9923V9.71534H357.063V19.9923H355.164Z" fill="white"/>
<path d="M358.657 14.8496C358.641 14.0275 358.78 13.2099 359.066 12.4391C359.303 11.7872 359.678 11.1937 360.164 10.6987C360.623 10.2524 361.173 9.91099 361.776 9.69799C362.417 9.48774 363.089 9.39057 363.763 9.41083C364.436 9.40589 365.104 9.51475 365.741 9.7328C366.344 9.94579 366.894 10.2872 367.353 10.7335C367.831 11.23 368.196 11.8236 368.424 12.4739C368.708 13.2453 368.844 14.0629 368.825 14.8844C368.839 15.6898 368.709 16.4913 368.442 17.2513C368.214 17.9016 367.848 18.4952 367.37 18.9917C366.915 19.4478 366.364 19.7984 365.758 20.0185C364.46 20.4827 363.04 20.4827 361.741 20.0185C361.134 19.7971 360.583 19.4434 360.129 18.983C359.649 18.485 359.278 17.8922 359.04 17.2426C358.769 16.4746 358.639 15.6638 358.657 14.8496ZM360.635 14.8496C360.625 15.4182 360.705 15.9848 360.87 16.529C361.009 16.9753 361.231 17.3915 361.524 17.756C361.792 18.0773 362.132 18.3307 362.517 18.4957C362.91 18.665 363.334 18.751 363.763 18.748C364.183 18.7605 364.6 18.6777 364.983 18.5059C365.367 18.334 365.706 18.0777 365.976 17.756C366.606 16.923 366.915 15.8914 366.847 14.8496C366.857 14.2752 366.778 13.7027 366.612 13.1527C366.469 12.708 366.248 12.2924 365.958 11.9257C365.691 11.6091 365.354 11.3589 364.974 11.1947C364.59 11.036 364.178 10.9561 363.763 10.9598C363.341 10.9598 362.924 11.0426 362.534 11.2034C362.149 11.3717 361.809 11.6281 361.541 11.9518C361.248 12.31 361.027 12.7205 360.887 13.1614C360.715 13.7074 360.63 14.2771 360.635 14.8496Z" fill="white"/>
<path d="M370.386 19.9925V9.71548H371.954L372.172 11.0208C372.529 10.5157 373.004 10.1062 373.557 9.82861C374.096 9.55266 374.694 9.41227 375.3 9.41961C375.787 9.39494 376.274 9.47024 376.731 9.64085C377.189 9.81147 377.606 10.0738 377.957 10.4116C378.304 10.8025 378.569 11.2587 378.737 11.7533C378.904 12.248 378.971 12.7711 378.933 13.292V19.9925H377.034V13.3094C377.065 12.9967 377.031 12.681 376.935 12.3817C376.839 12.0824 376.683 11.8058 376.476 11.569C376.254 11.3723 375.994 11.2217 375.713 11.1261C375.432 11.0305 375.134 10.9917 374.838 11.0121C374.504 11.0102 374.173 11.0722 373.862 11.1948C373.557 11.3039 373.281 11.4793 373.052 11.7082C372.811 11.9391 372.621 12.2177 372.494 12.5262C372.35 12.8735 372.279 13.2467 372.285 13.6227V19.9664L370.386 19.9925Z" fill="white"/>
</svg>
