<svg width="378" height="24" viewBox="0 0 378 24" fill="none" xmlns="http://www.w3.org/2000/svg">
<path d="M19.9476 6.21973H23.0852L18.5234 20.0087H14.924L11.5145 9.60331L8.10505 20.0087H4.56179L0 6.21973H3.21095L6.44779 16.6985L9.84432 6.21973H13.2538L16.7064 16.7546L19.9476 6.21973Z" fill="black"/>
<path d="M36.5418 14.2212H26.3651C26.4591 14.9322 26.7258 15.6094 27.142 16.1935C27.5107 16.7045 28.0101 17.107 28.5878 17.3587C29.1762 17.6129 29.8113 17.7408 30.4522 17.7342C31.1626 17.7315 31.8669 17.6029 32.5324 17.3544C33.2224 17.1021 33.8667 16.7392 34.44 16.2798L35.9376 18.4377C35.1739 19.1036 34.2846 19.6098 33.3222 19.9266C32.3337 20.2369 31.3026 20.3898 30.2666 20.3798C28.9906 20.4049 27.7303 20.0954 26.6111 19.4821C25.5525 18.8889 24.6855 18.0054 24.1123 16.9358C23.4957 15.7634 23.1868 14.4536 23.2146 13.1293C23.1882 11.8174 23.4846 10.5191 24.0778 9.34863C24.629 8.28405 25.4698 7.39688 26.5032 6.78937C27.5876 6.16532 28.8216 5.84898 30.0724 5.87442C31.2528 5.84176 32.4175 6.15007 33.4271 6.76242C34.4367 7.37478 35.2484 8.26521 35.7649 9.32705C36.3352 10.5013 36.6191 11.7939 36.5936 13.0991C36.5979 13.3882 36.5806 13.7637 36.5418 14.2212ZM33.5207 11.9338C33.428 10.9888 33.0224 10.1018 32.3684 9.41337C32.0549 9.11952 31.6855 8.89169 31.2821 8.74342C30.8788 8.59514 30.4498 8.52943 30.0206 8.55021C29.5688 8.52953 29.1175 8.59987 28.6934 8.75704C28.2693 8.91422 27.8812 9.15502 27.552 9.46516C26.9002 10.1435 26.484 11.0136 26.3651 11.9467L33.5207 11.9338Z" fill="black"/>
<path d="M49.4162 6.79789C50.466 7.41887 51.3269 8.31407 51.9064 9.38736C52.5261 10.5313 52.8411 11.8154 52.8214 13.1162C52.8412 14.4157 52.5261 15.6983 51.9064 16.8407C51.3268 17.919 50.4627 18.8177 49.4081 19.4393C48.3536 20.061 47.1488 20.3817 45.9247 20.3667C45.0657 20.3847 44.2139 20.2061 43.4345 19.8445C42.7202 19.5001 42.0954 18.9949 41.6089 18.3685V20.0085H38.5879V0.350098H41.6089V7.85957C42.0974 7.23746 42.7219 6.7355 43.4345 6.3922C44.2129 6.02706 45.0652 5.84685 45.9247 5.86568C47.152 5.85066 48.3598 6.17313 49.4162 6.79789ZM47.7676 16.9443C48.3942 16.5591 48.8986 16.0038 49.222 15.3432C49.554 14.6469 49.7263 13.8854 49.7263 13.114C49.7263 12.3427 49.554 11.5812 49.222 10.8849C48.8972 10.2252 48.3932 9.6703 47.7676 9.28378C47.1026 8.90338 46.3499 8.70327 45.5838 8.70327C44.8177 8.70327 44.0649 8.90338 43.4 9.28378C42.7728 9.66465 42.2645 10.2133 41.9326 10.8677C41.5737 11.5667 41.3928 12.3435 41.4061 13.1292C41.3924 13.9135 41.5733 14.689 41.9326 15.3863C42.2645 16.0407 42.7728 16.5893 43.4 16.9702C44.0649 17.3506 44.8177 17.5507 45.5838 17.5507C46.3499 17.5507 47.1026 17.3506 47.7676 16.9702V16.9443Z" fill="black"/>
<path d="M67.7272 14.2212H57.5549C57.6488 14.9322 57.9155 15.6094 58.3317 16.1935C58.7004 16.7046 59.1998 17.1071 59.7775 17.3588C60.3659 17.6129 61.001 17.7408 61.6419 17.7342C62.3523 17.7309 63.0565 17.6023 63.7221 17.3545C64.4121 17.1022 65.0564 16.7392 65.6297 16.2798L67.123 18.4377C66.3615 19.1044 65.4735 19.6108 64.5119 19.9267C63.5219 20.2367 62.4894 20.3896 61.452 20.3798C60.1762 20.4036 58.9163 20.0942 57.7966 19.4821C56.7401 18.8875 55.8749 18.0043 55.302 16.9358C54.6841 15.7638 54.3737 14.454 54.4 13.1293C54.3738 11.8174 54.6702 10.5192 55.2632 9.34866C55.8144 8.28408 56.6552 7.39691 57.6887 6.7894C58.7792 6.15625 60.023 5.83524 61.2837 5.86151C62.4638 5.83045 63.6279 6.13943 64.6372 6.75161C65.6465 7.36378 66.4585 8.25331 66.9763 9.31414C67.5465 10.4884 67.8304 11.781 67.8049 13.0861C67.7876 13.3882 67.7574 13.7637 67.7272 14.2212ZM64.7061 11.9338C64.6066 10.9949 64.2 10.115 63.5495 9.43066C63.2381 9.1352 62.8707 8.90507 62.469 8.75386C62.0672 8.60265 61.6393 8.53342 61.2104 8.55024C60.7585 8.52907 60.307 8.59917 59.8829 8.75638C59.4587 8.91358 59.0706 9.15465 58.7417 9.46519C58.0884 10.1424 57.672 11.0131 57.5549 11.9468L64.7061 11.9338Z" fill="black"/>
<path d="M82.0773 20.0087H78.3787L74.8829 15.2138L71.4303 20.0087H67.9043L73.0832 12.9696L67.9863 6.21973H71.6892L75.0556 10.8247L78.4219 6.21973H81.9997L76.8811 12.9437L82.0773 20.0087Z" fill="black"/>
<path d="M90 6.2002H91.9595V20.0082H90V6.2002Z" fill="black"/>
<path d="M96.0951 20.0084H94.2607V10.0359H95.7783L95.9867 11.3033C96.7288 10.2694 97.7378 9.75244 99.0135 9.75244C100.189 9.75244 101.09 10.1193 101.715 10.8447C102.265 11.4951 102.541 12.3873 102.541 13.513V20.0167H100.698V13.5296C100.698 12.0621 99.9891 11.32 98.5716 11.32C97.8295 11.32 97.2208 11.5785 96.7539 12.0871C96.3203 12.5457 96.0951 13.1377 96.0951 13.8548V20.0084Z" fill="black"/>
<path d="M109.102 18.5323V20.1082C108.627 20.2332 108.177 20.2999 107.743 20.2999C106.826 20.2999 106.134 20.0081 105.675 19.4328C105.275 18.9575 105.083 18.3238 105.083 17.5317V11.6116H103.607V10.0357H105.083L105.2 7.63428H106.926V10.0357H109.077V11.6116H106.926V17.5734C106.926 18.3155 107.276 18.6823 107.977 18.6823C108.302 18.6823 108.677 18.6323 109.102 18.5323Z" fill="black"/>
<path d="M117.041 17.1317H119.034C118.75 18.1406 118.2 18.9328 117.366 19.5081C116.582 20.0334 115.648 20.2919 114.564 20.2919C112.989 20.2919 111.763 19.7916 110.879 18.7993C110.07 17.8655 109.67 16.6064 109.67 15.0222C109.67 13.2211 110.179 11.8537 111.204 10.9198C112.046 10.136 113.139 9.75244 114.464 9.75244C116.024 9.75244 117.199 10.2611 117.991 11.27C118.759 12.2456 119.142 13.6297 119.142 15.4307H111.546C111.621 16.6064 111.98 17.4819 112.622 18.0572C113.147 18.5158 113.814 18.7493 114.614 18.7493C115.24 18.7493 115.782 18.5742 116.249 18.2324C116.641 17.9322 116.899 17.5653 117.041 17.1317ZM114.506 11.2283C113.689 11.2283 113.03 11.4868 112.53 11.9954C112.055 12.4707 111.754 13.1294 111.629 13.9715H117.266C117.199 13.0127 116.882 12.2956 116.307 11.8203C115.848 11.4201 115.248 11.2283 114.506 11.2283Z" fill="black"/>
<path d="M122.72 20.0084H120.877V10.036H122.394L122.645 11.5118C123.203 10.3361 124.054 9.74414 125.179 9.74414C125.546 9.74414 125.913 9.78583 126.272 9.87755V11.7203C125.838 11.6036 125.446 11.5452 125.104 11.5452C124.354 11.5535 123.77 11.8537 123.353 12.454C122.928 13.0544 122.72 13.9049 122.72 15.0055V20.0084Z" fill="black"/>
<path d="M128.798 12.8126H126.839C126.939 11.812 127.414 11.0449 128.256 10.4946C129.007 9.99429 129.966 9.74414 131.116 9.74414C132.484 9.74414 133.534 10.1027 134.26 10.8198C134.877 11.4368 135.177 12.2289 135.177 13.1961V20.0084H133.659L133.426 18.6493C132.642 19.7499 131.533 20.3003 130.091 20.3003C128.948 20.3003 128.064 19.9917 127.422 19.3831C126.897 18.8744 126.639 18.224 126.639 17.4486C126.639 16.4647 126.981 15.7059 127.656 15.1639C128.256 14.6887 129.173 14.3468 130.416 14.13L133.334 13.6297V13.1211C133.334 12.4707 133.109 11.9788 132.667 11.6452C132.275 11.3534 131.733 11.2033 131.041 11.2033C129.682 11.2033 128.94 11.7453 128.798 12.8126ZM130.541 18.741C131.325 18.741 132 18.4825 132.575 17.9739C133.084 17.4986 133.343 16.9566 133.343 16.3396V15.0555L130.866 15.4975C129.957 15.6476 129.34 15.8894 129.007 16.2062C128.74 16.4647 128.606 16.8066 128.606 17.2401C128.606 17.7238 128.773 18.099 129.107 18.3491C129.44 18.5993 129.916 18.741 130.541 18.741Z" fill="black"/>
<path d="M143.79 16.8061H145.799C145.649 17.8817 145.14 18.7405 144.282 19.3992C143.498 19.9996 142.547 20.2998 141.422 20.2998C139.954 20.2998 138.778 19.7911 137.911 18.7822C137.102 17.8483 136.702 16.6226 136.702 15.0968C136.702 13.3291 137.186 11.9616 138.161 10.9944C138.995 10.1606 140.071 9.74365 141.405 9.74365C142.631 9.74365 143.639 10.0688 144.432 10.7192C145.132 11.2946 145.566 12.045 145.716 12.9789H143.698C143.573 12.4536 143.314 12.0366 142.922 11.7448C142.531 11.4446 142.039 11.3029 141.455 11.3029C140.546 11.3029 139.854 11.6614 139.362 12.3785C138.903 13.0456 138.67 13.9711 138.67 15.1551C138.67 16.3975 138.978 17.3314 139.587 17.9734C140.071 18.482 140.696 18.7405 141.463 18.7405C142.13 18.7405 142.672 18.5487 143.098 18.1652C143.473 17.8317 143.706 17.3814 143.79 16.8061Z" fill="black"/>
<path d="M151.886 18.5323V20.1082C151.411 20.2332 150.961 20.2999 150.527 20.2999C149.61 20.2999 148.918 20.0081 148.459 19.4328C148.059 18.9575 147.867 18.3238 147.867 17.5317V11.6116H146.392V10.0357H147.867L147.984 7.63428H149.71V10.0357H151.861V11.6116H149.702V17.5734C149.702 18.3155 150.052 18.6823 150.752 18.6823C151.086 18.6823 151.461 18.6323 151.886 18.5323Z" fill="black"/>
</svg>
