<svg width="378" height="24" viewBox="0 0 378 24" fill="none" xmlns="http://www.w3.org/2000/svg">
<path d="M19.9476 6.21973H23.0852L18.5234 20.0087H14.924L11.5145 9.60331L8.10505 20.0087H4.56179L0 6.21973H3.21095L6.44779 16.6985L9.84432 6.21973H13.2538L16.7064 16.7546L19.9476 6.21973Z" fill="white"/>
<path d="M36.5418 14.2212H26.3651C26.4591 14.9322 26.7258 15.6094 27.142 16.1935C27.5107 16.7045 28.0101 17.107 28.5878 17.3587C29.1762 17.6129 29.8113 17.7408 30.4522 17.7342C31.1626 17.7315 31.8669 17.6029 32.5324 17.3544C33.2224 17.1021 33.8667 16.7392 34.44 16.2798L35.9376 18.4377C35.1739 19.1036 34.2846 19.6098 33.3222 19.9266C32.3337 20.2369 31.3026 20.3898 30.2666 20.3798C28.9906 20.4049 27.7303 20.0954 26.6111 19.4821C25.5525 18.8889 24.6855 18.0054 24.1123 16.9358C23.4957 15.7634 23.1868 14.4536 23.2146 13.1293C23.1882 11.8174 23.4846 10.5191 24.0778 9.34863C24.629 8.28405 25.4698 7.39688 26.5032 6.78937C27.5876 6.16532 28.8216 5.84898 30.0724 5.87442C31.2528 5.84176 32.4175 6.15007 33.4271 6.76242C34.4367 7.37478 35.2484 8.26521 35.7649 9.32705C36.3352 10.5013 36.6191 11.7939 36.5936 13.0991C36.5979 13.3882 36.5806 13.7637 36.5418 14.2212ZM33.5207 11.9338C33.428 10.9888 33.0224 10.1018 32.3684 9.41337C32.0549 9.11952 31.6855 8.89169 31.2821 8.74342C30.8788 8.59514 30.4498 8.52943 30.0206 8.55021C29.5688 8.52953 29.1175 8.59987 28.6934 8.75704C28.2693 8.91422 27.8812 9.15502 27.552 9.46516C26.9002 10.1435 26.484 11.0136 26.3651 11.9467L33.5207 11.9338Z" fill="white"/>
<path d="M49.4162 6.79789C50.466 7.41887 51.3269 8.31407 51.9064 9.38736C52.5261 10.5313 52.8411 11.8154 52.8214 13.1162C52.8412 14.4157 52.5261 15.6983 51.9064 16.8407C51.3268 17.919 50.4627 18.8177 49.4081 19.4393C48.3536 20.061 47.1488 20.3817 45.9247 20.3667C45.0657 20.3847 44.2139 20.2061 43.4345 19.8445C42.7202 19.5001 42.0954 18.9949 41.6089 18.3685V20.0085H38.5879V0.350098H41.6089V7.85957C42.0974 7.23746 42.7219 6.7355 43.4345 6.3922C44.2129 6.02706 45.0652 5.84685 45.9247 5.86568C47.152 5.85066 48.3598 6.17313 49.4162 6.79789ZM47.7676 16.9443C48.3942 16.5591 48.8986 16.0038 49.222 15.3432C49.554 14.6469 49.7263 13.8854 49.7263 13.114C49.7263 12.3427 49.554 11.5812 49.222 10.8849C48.8972 10.2252 48.3932 9.6703 47.7676 9.28378C47.1026 8.90338 46.3499 8.70327 45.5838 8.70327C44.8177 8.70327 44.0649 8.90338 43.4 9.28378C42.7728 9.66465 42.2645 10.2133 41.9326 10.8677C41.5737 11.5667 41.3928 12.3435 41.4061 13.1292C41.3924 13.9135 41.5733 14.689 41.9326 15.3863C42.2645 16.0407 42.7728 16.5893 43.4 16.9702C44.0649 17.3506 44.8177 17.5507 45.5838 17.5507C46.3499 17.5507 47.1026 17.3506 47.7676 16.9702V16.9443Z" fill="white"/>
<path d="M67.7272 14.2212H57.5549C57.6488 14.9322 57.9155 15.6094 58.3317 16.1935C58.7004 16.7046 59.1998 17.1071 59.7775 17.3588C60.3659 17.6129 61.001 17.7408 61.6419 17.7342C62.3523 17.7309 63.0565 17.6023 63.7221 17.3545C64.4121 17.1022 65.0564 16.7392 65.6297 16.2798L67.123 18.4377C66.3615 19.1044 65.4735 19.6108 64.5119 19.9267C63.5219 20.2367 62.4894 20.3896 61.452 20.3798C60.1762 20.4036 58.9163 20.0942 57.7966 19.4821C56.7401 18.8875 55.8749 18.0043 55.302 16.9358C54.6841 15.7638 54.3737 14.454 54.4 13.1293C54.3738 11.8174 54.6702 10.5192 55.2632 9.34866C55.8144 8.28408 56.6552 7.39691 57.6887 6.7894C58.7792 6.15625 60.023 5.83524 61.2837 5.86151C62.4638 5.83045 63.6279 6.13943 64.6372 6.75161C65.6465 7.36378 66.4585 8.25331 66.9763 9.31414C67.5465 10.4884 67.8304 11.781 67.8049 13.0861C67.7876 13.3882 67.7574 13.7637 67.7272 14.2212ZM64.7061 11.9338C64.6066 10.9949 64.2 10.115 63.5495 9.43066C63.2381 9.1352 62.8707 8.90507 62.469 8.75386C62.0672 8.60265 61.6393 8.53342 61.2104 8.55024C60.7585 8.52907 60.307 8.59917 59.8829 8.75638C59.4587 8.91358 59.0706 9.15465 58.7417 9.46519C58.0884 10.1424 57.672 11.0131 57.5549 11.9468L64.7061 11.9338Z" fill="white"/>
<path d="M82.0773 20.0087H78.3787L74.8829 15.2138L71.4303 20.0087H67.9043L73.0832 12.9696L67.9863 6.21973H71.6892L75.0556 10.8247L78.4219 6.21973H81.9997L76.8811 12.9437L82.0773 20.0087Z" fill="white"/>
<path d="M96.3619 18.6613C97.3876 18.677 98.3837 18.3174 99.1629 17.6501C99.5172 17.3395 99.806 16.9614 100.012 16.5378C100.227 16.1064 100.348 15.6341 100.366 15.1524H102.389C102.348 15.8276 102.173 16.4878 101.873 17.0939C101.576 17.7176 101.157 18.2749 100.639 18.7321C100.091 19.2247 99.457 19.612 98.7685 19.8747C98.0021 20.1745 97.1847 20.3222 96.3619 20.3096C95.4686 20.3224 94.5818 20.1574 93.7529 19.8242C92.9801 19.5262 92.2876 19.0518 91.7305 18.4388C91.1485 17.7876 90.7139 17.0184 90.4564 16.1838C90.1418 15.2039 89.9882 14.1794 90.0014 13.1502C89.9831 12.0985 90.1474 11.0516 90.4868 10.0559C90.767 9.21826 91.222 8.44965 91.8215 7.80095C92.3881 7.20144 93.0781 6.7322 93.844 6.42571C94.6759 6.10435 95.561 5.9431 96.4529 5.95044C97.2346 5.94372 98.0114 6.07377 98.7483 6.3347C99.4061 6.56335 100.019 6.9056 100.558 7.34591C101.063 7.76103 101.479 8.27342 101.782 8.8526C102.074 9.41211 102.253 10.0238 102.308 10.6525H100.285C100.241 10.2144 100.11 9.78946 99.8997 9.40236C99.6896 9.01527 99.4048 8.67373 99.0618 8.39756C98.3244 7.81997 97.4095 7.51618 96.4731 7.53804C95.8494 7.5289 95.2303 7.64584 94.6529 7.88185C94.1081 8.10299 93.6231 8.44943 93.2372 8.89305C92.8142 9.40342 92.501 9.9955 92.317 10.6323C92.0812 11.4261 91.9687 12.2515 91.9833 13.0794C91.9725 13.8832 92.0816 14.6841 92.3069 15.4558C92.4871 16.085 92.7895 16.6726 93.1968 17.1849C93.5718 17.6688 94.062 18.0512 94.6226 18.2973C95.1702 18.5399 95.7629 18.6639 96.3619 18.6613Z" fill="white"/>
<path d="M103.309 15.0313C103.299 14.2335 103.44 13.4411 103.724 12.6954C103.938 12.0796 104.283 11.5173 104.735 11.0471C105.172 10.5988 105.704 10.2534 106.292 10.0359C106.906 9.82224 107.553 9.71619 108.203 9.72243C108.857 9.71703 109.507 9.82304 110.125 10.0359C110.713 10.2509 111.246 10.5966 111.682 11.0471C112.131 11.5191 112.476 12.0808 112.693 12.6954C112.961 13.4443 113.092 14.2358 113.077 15.0313C113.089 15.8125 112.962 16.5896 112.703 17.3267C112.485 17.941 112.141 18.5026 111.692 18.975C111.255 19.4238 110.723 19.7693 110.135 19.9862C109.506 20.2129 108.841 20.3259 108.173 20.3199C107.514 20.3251 106.86 20.2121 106.241 19.9862C105.651 19.7685 105.116 19.4232 104.674 18.975C104.223 18.5039 103.879 17.9419 103.663 17.3267C103.404 16.5901 103.284 15.8117 103.309 15.0313ZM105.22 15.0313C105.213 15.586 105.291 16.1386 105.453 16.6694C105.586 17.1013 105.803 17.5032 106.09 17.8525C106.345 18.1641 106.671 18.4103 107.04 18.5705C107.424 18.7339 107.837 18.8165 108.254 18.8132C108.66 18.8249 109.064 18.7446 109.436 18.5782C109.807 18.4119 110.136 18.1638 110.398 17.8525C111.007 17.0437 111.301 16.0411 111.227 15.0313C111.235 14.4731 111.156 13.9171 110.994 13.383C110.864 12.9515 110.651 12.5496 110.367 12.1999C110.113 11.8874 109.787 11.6411 109.417 11.4819C109.041 11.3295 108.639 11.2538 108.234 11.2595C107.824 11.2584 107.419 11.3374 107.04 11.492C106.673 11.6555 106.348 11.9011 106.09 12.21C105.803 12.5594 105.586 12.9612 105.453 13.3931C105.29 13.9236 105.211 14.4764 105.22 15.0313Z" fill="white"/>
<path d="M114.675 20.0163V10.0458H116.192L116.404 11.3098C116.751 10.821 117.213 10.4251 117.749 10.1571C118.273 9.89371 118.851 9.75854 119.438 9.76268C119.909 9.73769 120.381 9.80908 120.825 9.97251C121.268 10.1359 121.673 10.388 122.016 10.7132C122.351 11.0948 122.607 11.5385 122.77 12.0191C122.933 12.4998 123 13.0078 122.967 13.5143V20.0163H121.126V13.5345C121.15 13.2341 121.114 12.9319 121.021 12.6454C120.927 12.359 120.777 12.0941 120.58 11.866C120.142 11.4853 119.572 11.2928 118.993 11.3301C118.668 11.3304 118.346 11.3886 118.042 11.502C117.749 11.617 117.48 11.7888 117.253 12.0076C117.025 12.2331 116.843 12.501 116.717 12.7963C116.579 13.1364 116.51 13.5009 116.515 13.8682V20.0163H114.675Z" fill="white"/>
<path d="M129.428 20.1181C128.983 20.2386 128.524 20.3031 128.063 20.3102C127.691 20.3417 127.316 20.29 126.966 20.1589C126.616 20.0277 126.3 19.8203 126.04 19.5518C125.572 18.9856 125.333 18.2635 125.373 17.5294V11.5835H123.947V10.0465H125.424L125.535 7.6499H127.264V10.0465H129.408V11.5835H127.264V17.5496C127.264 18.2878 127.608 18.6619 128.275 18.6619C128.433 18.6723 128.592 18.6723 128.75 18.6619C128.972 18.6311 129.191 18.5872 129.408 18.5305L129.428 20.1181Z" fill="white"/>
<path d="M130.853 20.0164V10.046H132.369L132.612 11.5223C132.806 11.0055 133.152 10.5601 133.606 10.2456C134.06 9.93122 134.598 9.76277 135.15 9.76282C135.362 9.74573 135.575 9.74573 135.787 9.76282L136.242 9.85383V11.6942C136.059 11.6431 135.874 11.6026 135.686 11.5729C135.481 11.5572 135.275 11.5572 135.069 11.5729C134.757 11.5707 134.447 11.6326 134.159 11.7549C133.858 11.8836 133.597 12.0894 133.401 12.3515C133.156 12.6687 132.98 13.0339 132.885 13.4234C132.745 13.9441 132.681 14.4821 132.693 15.0211V20.0266L130.853 20.0164Z" fill="white"/>
<path d="M136.52 15.0313C136.504 14.2348 136.637 13.4424 136.914 12.6954C137.132 12.0811 137.476 11.5195 137.925 11.0471C138.369 10.6007 138.903 10.2557 139.493 10.0359C140.733 9.61823 142.075 9.61823 143.315 10.0359C143.907 10.2508 144.443 10.5965 144.883 11.0471C145.336 11.5162 145.681 12.0788 145.894 12.6954C146.167 13.4431 146.297 14.2355 146.278 15.0313C146.295 15.8129 146.168 16.5909 145.904 17.3267C145.687 17.9413 145.342 18.503 144.893 18.975C144.452 19.424 143.916 19.7694 143.325 19.9862C142.066 20.4311 140.692 20.4311 139.432 19.9862C138.845 19.7684 138.313 19.423 137.875 18.975C137.428 18.501 137.084 17.9399 136.864 17.3267C136.608 16.5895 136.491 15.8111 136.52 15.0313ZM138.441 15.0313C138.428 15.5864 138.507 16.1399 138.674 16.6694C138.808 17.099 139.021 17.5001 139.301 17.8525C139.574 18.1712 139.921 18.4177 140.312 18.5705C140.695 18.7339 141.108 18.8165 141.525 18.8132C141.92 18.8143 142.31 18.7289 142.668 18.563C143.027 18.397 143.344 18.1545 143.598 17.8525C144.203 17.0417 144.498 16.0406 144.427 15.0313C144.436 14.4731 144.357 13.9171 144.195 13.383C144.066 12.9492 143.849 12.5465 143.558 12.1999C143.306 11.8853 142.979 11.6386 142.607 11.482C142.235 11.3308 141.836 11.2552 141.434 11.2595C141.025 11.2584 140.62 11.3374 140.241 11.4921C139.852 11.6487 139.506 11.8946 139.23 12.21C138.95 12.5625 138.737 12.9636 138.603 13.3931C138.453 13.9256 138.392 14.479 138.421 15.0313H138.441Z" fill="white"/>
<path d="M149.279 20.0163H147.438V6.21338H149.279V20.0163Z" fill="white"/>
<path d="M167.348 6.21338V20.0163H165.326V13.8682H158.581V20.0163H156.619V6.21338H158.581V12.2098H165.407V6.21338H167.348Z" fill="white"/>
<path d="M171.292 10.0459V16.639C171.266 16.9342 171.301 17.2317 171.397 17.5121C171.493 17.7926 171.647 18.0498 171.848 18.267C172.267 18.6303 172.812 18.8154 173.365 18.7827C173.74 18.7926 174.113 18.7201 174.457 18.5704C174.749 18.4355 175.008 18.2388 175.216 17.994C175.42 17.7497 175.574 17.468 175.671 17.1648C175.776 16.8381 175.827 16.4966 175.822 16.1536V10.0863H177.663V20.0568H176.146L175.934 18.9142C175.6 19.3779 175.155 19.75 174.639 19.9962C174.108 20.2342 173.532 20.3549 172.951 20.3501C172.469 20.3536 171.99 20.2749 171.535 20.1175C171.121 19.973 170.745 19.7381 170.433 19.4299C170.112 19.0948 169.867 18.6948 169.715 18.2569C169.531 17.7202 169.442 17.1556 169.452 16.5884V10.0459H171.292Z" fill="white"/>
<path d="M179.776 20.0163V6.21338H181.586V11.4312C181.933 10.9327 182.39 10.5209 182.921 10.2279C183.543 9.89957 184.241 9.73924 184.944 9.76271C185.557 9.75345 186.167 9.87048 186.733 10.1065C187.269 10.3339 187.746 10.6796 188.129 11.1177C188.531 11.5992 188.834 12.1561 189.019 12.7559C189.24 13.4728 189.346 14.2203 189.332 14.9704C189.346 15.7486 189.233 16.5239 188.999 17.2659C188.805 17.8817 188.485 18.4501 188.058 18.9343C187.659 19.3725 187.169 19.7177 186.622 19.9455C186.048 20.1829 185.433 20.3032 184.812 20.2995C184.133 20.3207 183.46 20.1638 182.861 19.8444C182.353 19.5495 181.918 19.1453 181.586 18.6613L181.303 19.9759L179.776 20.0163ZM187.431 14.9603C187.438 14.4196 187.363 13.8809 187.209 13.3626C187.08 12.9541 186.87 12.5758 186.592 12.2503C186.333 11.9509 186.002 11.7214 185.631 11.5829C185.268 11.4391 184.88 11.367 184.489 11.3705C184.089 11.3708 183.694 11.4498 183.326 11.6031C182.964 11.7543 182.64 11.982 182.375 12.2705C182.077 12.5927 181.853 12.9757 181.718 13.3929C181.548 13.8978 181.466 14.4278 181.475 14.9603C181.416 15.9685 181.709 16.966 182.304 17.7816C182.565 18.1076 182.899 18.3686 183.278 18.544C183.657 18.7195 184.071 18.8046 184.489 18.7928C184.886 18.8077 185.281 18.7327 185.646 18.5734C186.01 18.414 186.333 18.1745 186.592 17.8726C187.22 17.0223 187.518 15.9732 187.431 14.9199V14.9603Z" fill="white"/>
</svg>
