<svg width="239" height="68" viewBox="0 0 239 68" fill="none" xmlns="http://www.w3.org/2000/svg">
<path d="M19.3528 55.9981C8.37681 55.9981 4.67326 42.1926 3.79787 39.4988C1.71042 32.6971 1.10438 26.5688 1.03704 25.9628C0.633021 22.2588 3.59586 19.6998 6.89539 19.6998C9.38687 19.6998 12.215 21.1813 12.6191 24.7506C12.6864 25.3567 13.1578 30.5421 14.9759 36.199C16.794 42.1253 18.8141 44.3476 20.2282 44.3476C22.5176 44.3476 23.9317 38.4887 25.1438 32.8992C26.0192 28.7912 27.0292 24.6832 28.982 20.9793C32.2142 14.5817 37.2645 13.1001 41.7088 13.1001C51.338 13.1001 56.1863 24.2792 56.1863 27.1749C56.1863 32.0237 52.2134 33.2359 50.5299 33.2359C46.759 33.2359 45.547 30.7442 44.4696 28.5218C43.5269 26.5688 42.5168 24.8853 41.2374 24.8853C40.8334 24.8853 40.4293 25.0873 40.0253 25.4913C36.7931 28.7912 35.7157 45.8965 29.3187 52.4288C25.6825 55.9981 21.7769 55.9981 19.3528 55.9981Z" fill="url(#paint0_linear_13250_6163)"/>
<path d="M19.3528 55.9981C8.37681 55.9981 4.67326 42.1926 3.79787 39.4988C1.71042 32.6971 1.10438 26.5688 1.03704 25.9628C0.633021 22.2588 3.59586 19.6998 6.89539 19.6998C9.38687 19.6998 12.215 21.1813 12.6191 24.7506C12.6864 25.3567 13.1578 30.5421 14.9759 36.199C16.794 42.1253 18.8141 44.3476 20.2282 44.3476C22.5176 44.3476 23.9317 38.4887 25.1438 32.8992C26.0192 28.7912 27.0292 24.6832 28.982 20.9793C32.2142 14.5817 37.2645 13.1001 41.7088 13.1001C51.338 13.1001 56.1863 24.2792 56.1863 27.1749C56.1863 32.0237 52.2134 33.2359 50.5299 33.2359C46.759 33.2359 45.547 30.7442 44.4696 28.5218C43.5269 26.5688 42.5168 24.8853 41.2374 24.8853C40.8334 24.8853 40.4293 25.0873 40.0253 25.4913C36.7931 28.7912 35.7157 45.8965 29.3187 52.4288C25.6825 55.9981 21.7769 55.9981 19.3528 55.9981Z" fill="url(#paint1_radial_13250_6163)"/>
<path d="M19.3528 55.9981C8.37681 55.9981 4.67326 42.1926 3.79787 39.4988C1.71042 32.6971 1.10438 26.5688 1.03704 25.9628C0.633021 22.2588 3.59586 19.6998 6.89539 19.6998C9.38687 19.6998 12.215 21.1813 12.6191 24.7506C12.6864 25.3567 13.1578 30.5421 14.9759 36.199C16.794 42.1253 18.8141 44.3476 20.2282 44.3476C22.5176 44.3476 23.9317 38.4887 25.1438 32.8992C26.0192 28.7912 27.0292 24.6832 28.982 20.9793C32.2142 14.5817 37.2645 13.1001 41.7088 13.1001C51.338 13.1001 56.1863 24.2792 56.1863 27.1749C56.1863 32.0237 52.2134 33.2359 50.5299 33.2359C46.759 33.2359 45.547 30.7442 44.4696 28.5218C43.5269 26.5688 42.5168 24.8853 41.2374 24.8853C40.8334 24.8853 40.4293 25.0873 40.0253 25.4913C36.7931 28.7912 35.7157 45.8965 29.3187 52.4288C25.6825 55.9981 21.7769 55.9981 19.3528 55.9981Z" fill="url(#paint2_radial_13250_6163)"/>
<path d="M19.3528 55.9981C8.37681 55.9981 4.67326 42.1926 3.79787 39.4988C1.71042 32.6971 1.10438 26.5688 1.03704 25.9628C0.633021 22.2588 3.59586 19.6998 6.89539 19.6998C9.38687 19.6998 12.215 21.1813 12.6191 24.7506C12.6864 25.3567 13.1578 30.5421 14.9759 36.199C16.794 42.1253 18.8141 44.3476 20.2282 44.3476C22.5176 44.3476 23.9317 38.4887 25.1438 32.8992C26.0192 28.7912 27.0292 24.6832 28.982 20.9793C32.2142 14.5817 37.2645 13.1001 41.7088 13.1001C51.338 13.1001 56.1863 24.2792 56.1863 27.1749C56.1863 32.0237 52.2134 33.2359 50.5299 33.2359C46.759 33.2359 45.547 30.7442 44.4696 28.5218C43.5269 26.5688 42.5168 24.8853 41.2374 24.8853C40.8334 24.8853 40.4293 25.0873 40.0253 25.4913C36.7931 28.7912 35.7157 45.8965 29.3187 52.4288C25.6825 55.9981 21.7769 55.9981 19.3528 55.9981Z" fill="url(#paint3_radial_13250_6163)"/>
<path d="M19.3528 55.9981C8.37681 55.9981 4.67326 42.1926 3.79787 39.4988C1.71042 32.6971 1.10438 26.5688 1.03704 25.9628C0.633021 22.2588 3.59586 19.6998 6.89539 19.6998C9.38687 19.6998 12.215 21.1813 12.6191 24.7506C12.6864 25.3567 13.1578 30.5421 14.9759 36.199C16.794 42.1253 18.8141 44.3476 20.2282 44.3476C22.5176 44.3476 23.9317 38.4887 25.1438 32.8992C26.0192 28.7912 27.0292 24.6832 28.982 20.9793C32.2142 14.5817 37.2645 13.1001 41.7088 13.1001C51.338 13.1001 56.1863 24.2792 56.1863 27.1749C56.1863 32.0237 52.2134 33.2359 50.5299 33.2359C46.759 33.2359 45.547 30.7442 44.4696 28.5218C43.5269 26.5688 42.5168 24.8853 41.2374 24.8853C40.8334 24.8853 40.4293 25.0873 40.0253 25.4913C36.7931 28.7912 35.7157 45.8965 29.3187 52.4288C25.6825 55.9981 21.7769 55.9981 19.3528 55.9981Z" fill="url(#paint4_radial_13250_6163)"/>
<path d="M19.3528 55.9981C8.37681 55.9981 4.67326 42.1926 3.79787 39.4988C1.71042 32.6971 1.10438 26.5688 1.03704 25.9628C0.633021 22.2588 3.59586 19.6998 6.89539 19.6998C9.38687 19.6998 12.215 21.1813 12.6191 24.7506C12.6864 25.3567 13.1578 30.5421 14.9759 36.199C16.794 42.1253 18.8141 44.3476 20.2282 44.3476C22.5176 44.3476 23.9317 38.4887 25.1438 32.8992C26.0192 28.7912 27.0292 24.6832 28.982 20.9793C32.2142 14.5817 37.2645 13.1001 41.7088 13.1001C51.338 13.1001 56.1863 24.2792 56.1863 27.1749C56.1863 32.0237 52.2134 33.2359 50.5299 33.2359C46.759 33.2359 45.547 30.7442 44.4696 28.5218C43.5269 26.5688 42.5168 24.8853 41.2374 24.8853C40.8334 24.8853 40.4293 25.0873 40.0253 25.4913C36.7931 28.7912 35.7157 45.8965 29.3187 52.4288C25.6825 55.9981 21.7769 55.9981 19.3528 55.9981Z" fill="url(#paint5_radial_13250_6163)"/>
<path d="M19.3528 55.9981C8.37681 55.9981 4.67326 42.1926 3.79787 39.4988C1.71042 32.6971 1.10438 26.5688 1.03704 25.9628C0.633021 22.2588 3.59586 19.6998 6.89539 19.6998C9.38687 19.6998 12.215 21.1813 12.6191 24.7506C12.6864 25.3567 13.1578 30.5421 14.9759 36.199C16.794 42.1253 18.8141 44.3476 20.2282 44.3476C22.5176 44.3476 23.9317 38.4887 25.1438 32.8992C26.0192 28.7912 27.0292 24.6832 28.982 20.9793C32.2142 14.5817 37.2645 13.1001 41.7088 13.1001C51.338 13.1001 56.1863 24.2792 56.1863 27.1749C56.1863 32.0237 52.2134 33.2359 50.5299 33.2359C46.759 33.2359 45.547 30.7442 44.4696 28.5218C43.5269 26.5688 42.5168 24.8853 41.2374 24.8853C40.8334 24.8853 40.4293 25.0873 40.0253 25.4913C36.7931 28.7912 35.7157 45.8965 29.3187 52.4288C25.6825 55.9981 21.7769 55.9981 19.3528 55.9981Z" fill="url(#paint6_radial_13250_6163)"/>
<path d="M19.3528 55.9981C8.37681 55.9981 4.67326 42.1926 3.79787 39.4988C1.71042 32.6971 1.10438 26.5688 1.03704 25.9628C0.633021 22.2588 3.59586 19.6998 6.89539 19.6998C9.38687 19.6998 12.215 21.1813 12.6191 24.7506C12.6864 25.3567 13.1578 30.5421 14.9759 36.199C16.794 42.1253 18.8141 44.3476 20.2282 44.3476C22.5176 44.3476 23.9317 38.4887 25.1438 32.8992C26.0192 28.7912 27.0292 24.6832 28.982 20.9793C32.2142 14.5817 37.2645 13.1001 41.7088 13.1001C51.338 13.1001 56.1863 24.2792 56.1863 27.1749C56.1863 32.0237 52.2134 33.2359 50.5299 33.2359C46.759 33.2359 45.547 30.7442 44.4696 28.5218C43.5269 26.5688 42.5168 24.8853 41.2374 24.8853C40.8334 24.8853 40.4293 25.0873 40.0253 25.4913C36.7931 28.7912 35.7157 45.8965 29.3187 52.4288C25.6825 55.9981 21.7769 55.9981 19.3528 55.9981Z" fill="url(#paint7_radial_13250_6163)"/>
<path d="M19.3528 55.9981C8.37681 55.9981 4.67326 42.1926 3.79787 39.4988C1.71042 32.6971 1.10438 26.5688 1.03704 25.9628C0.633021 22.2588 3.59586 19.6998 6.89539 19.6998C9.38687 19.6998 12.215 21.1813 12.6191 24.7506C12.6864 25.3567 13.1578 30.5421 14.9759 36.199C16.794 42.1253 18.8141 44.3476 20.2282 44.3476C22.5176 44.3476 23.9317 38.4887 25.1438 32.8992C26.0192 28.7912 27.0292 24.6832 28.982 20.9793C32.2142 14.5817 37.2645 13.1001 41.7088 13.1001C51.338 13.1001 56.1863 24.2792 56.1863 27.1749C56.1863 32.0237 52.2134 33.2359 50.5299 33.2359C46.759 33.2359 45.547 30.7442 44.4696 28.5218C43.5269 26.5688 42.5168 24.8853 41.2374 24.8853C40.8334 24.8853 40.4293 25.0873 40.0253 25.4913C36.7931 28.7912 35.7157 45.8965 29.3187 52.4288C25.6825 55.9981 21.7769 55.9981 19.3528 55.9981Z" fill="url(#paint8_radial_13250_6163)"/>
<path d="M41.7088 13.1001C37.3318 13.1001 32.2142 14.5817 28.8474 20.9793C26.8946 24.6832 25.9519 28.7912 25.0091 32.8992C24.7398 34.246 24.4031 35.5929 24.0664 36.9398V55.5267C25.7498 55.0553 27.5006 54.1798 29.2514 52.4289C35.7158 45.8965 36.7931 28.7912 39.958 25.4913C40.2947 25.0873 40.6987 24.8853 41.1701 24.8853C42.4495 24.8853 43.4595 26.5015 44.4023 28.5218C45.4797 30.7442 46.7591 33.2359 50.4626 33.2359C52.146 33.2359 56.1189 32.0237 56.1189 27.1749C56.1189 24.2792 51.338 13.1001 41.7088 13.1001Z" fill="url(#paint9_radial_13250_6163)"/>
<path d="M19.3528 55.9981C8.37681 55.9981 4.67326 42.1926 3.79787 39.4988C1.71042 32.6971 1.10438 26.5688 1.03704 25.9628C0.633021 22.2588 3.59586 19.6998 6.89539 19.6998C9.38687 19.6998 12.215 21.1813 12.6191 24.7506C12.6864 25.3567 13.1578 30.5421 14.9759 36.199C16.794 42.1253 18.8141 44.3476 20.2282 44.3476C22.5176 44.3476 23.9317 38.4887 25.1438 32.8992C26.0192 28.7912 27.0292 24.6832 28.982 20.9793C32.2142 14.5817 37.2645 13.1001 41.7088 13.1001C51.338 13.1001 56.1863 24.2792 56.1863 27.1749C56.1863 32.0237 52.2134 33.2359 50.5299 33.2359C46.759 33.2359 45.547 30.7442 44.4696 28.5218C43.5269 26.5688 42.5168 24.8853 41.2374 24.8853C40.8334 24.8853 40.4293 25.0873 40.0253 25.4913C36.7931 28.7912 35.7157 45.8965 29.3187 52.4288C25.6825 55.9981 21.7769 55.9981 19.3528 55.9981Z" fill="url(#paint10_radial_13250_6163)"/>
<path d="M19.3528 55.9981C8.37681 55.9981 4.67326 42.1926 3.79787 39.4988C1.71042 32.6971 1.10438 26.5688 1.03704 25.9628C0.633021 22.2588 3.59586 19.6998 6.89539 19.6998C9.38687 19.6998 12.215 21.1813 12.6191 24.7506C12.6864 25.3567 13.1578 30.5421 14.9759 36.199C16.794 42.1253 18.8141 44.3476 20.2282 44.3476C22.5176 44.3476 23.9317 38.4887 25.1438 32.8992C26.0192 28.7912 27.0292 24.6832 28.982 20.9793C32.2142 14.5817 37.2645 13.1001 41.7088 13.1001C51.338 13.1001 56.1863 24.2792 56.1863 27.1749C56.1863 32.0237 52.2134 33.2359 50.5299 33.2359C46.759 33.2359 45.547 30.7442 44.4696 28.5218C43.5269 26.5688 42.5168 24.8853 41.2374 24.8853C40.8334 24.8853 40.4293 25.0873 40.0253 25.4913C36.7931 28.7912 35.7157 45.8965 29.3187 52.4288C25.6825 55.9981 21.7769 55.9981 19.3528 55.9981Z" fill="url(#paint11_radial_13250_6163)"/>
<path d="M19.3528 55.9981C8.37681 55.9981 4.67326 42.1926 3.79787 39.4988C1.71042 32.6971 1.10438 26.5688 1.03704 25.9628C0.633021 22.2588 3.59586 19.6998 6.89539 19.6998C9.38687 19.6998 12.215 21.1813 12.6191 24.7506C12.6864 25.3567 13.1578 30.5421 14.9759 36.199C16.794 42.1253 18.8141 44.3476 20.2282 44.3476C22.5176 44.3476 23.9317 38.4887 25.1438 32.8992C26.0192 28.7912 27.0292 24.6832 28.982 20.9793C32.2142 14.5817 37.2645 13.1001 41.7088 13.1001C51.338 13.1001 56.1863 24.2792 56.1863 27.1749C56.1863 32.0237 52.2134 33.2359 50.5299 33.2359C46.759 33.2359 45.547 30.7442 44.4696 28.5218C43.5269 26.5688 42.5168 24.8853 41.2374 24.8853C40.8334 24.8853 40.4293 25.0873 40.0253 25.4913C36.7931 28.7912 35.7157 45.8965 29.3187 52.4288C25.6825 55.9981 21.7769 55.9981 19.3528 55.9981Z" fill="url(#paint12_radial_13250_6163)"/>
<path d="M19.3528 55.9981C8.37681 55.9981 4.67326 42.1926 3.79787 39.4988C1.71042 32.6971 1.10438 26.5688 1.03704 25.9628C0.633021 22.2588 3.59586 19.6998 6.89539 19.6998C9.38687 19.6998 12.215 21.1813 12.6191 24.7506C12.6864 25.3567 13.1578 30.5421 14.9759 36.199C16.794 42.1253 18.8141 44.3476 20.2282 44.3476C22.5176 44.3476 23.9317 38.4887 25.1438 32.8992C26.0192 28.7912 27.0292 24.6832 28.982 20.9793C32.2142 14.5817 37.2645 13.1001 41.7088 13.1001C51.338 13.1001 56.1863 24.2792 56.1863 27.1749C56.1863 32.0237 52.2134 33.2359 50.5299 33.2359C46.759 33.2359 45.547 30.7442 44.4696 28.5218C43.5269 26.5688 42.5168 24.8853 41.2374 24.8853C40.8334 24.8853 40.4293 25.0873 40.0253 25.4913C36.7931 28.7912 35.7157 45.8965 29.3187 52.4288C25.6825 55.9981 21.7769 55.9981 19.3528 55.9981Z" fill="url(#paint13_radial_13250_6163)"/>
<path d="M19.3528 55.9981C8.37681 55.9981 4.67326 42.1926 3.79787 39.4988C1.71042 32.6971 1.10438 26.5688 1.03704 25.9628C0.633021 22.2588 3.59586 19.6998 6.89539 19.6998C9.38687 19.6998 12.215 21.1813 12.6191 24.7506C12.6864 25.3567 13.1578 30.5421 14.9759 36.199C16.794 42.1253 18.8141 44.3476 20.2282 44.3476C22.5176 44.3476 23.9317 38.4887 25.1438 32.8992C26.0192 28.7912 27.0292 24.6832 28.982 20.9793C32.2142 14.5817 37.2645 13.1001 41.7088 13.1001C51.338 13.1001 56.1863 24.2792 56.1863 27.1749C56.1863 32.0237 52.2134 33.2359 50.5299 33.2359C46.759 33.2359 45.547 30.7442 44.4696 28.5218C43.5269 26.5688 42.5168 24.8853 41.2374 24.8853C40.8334 24.8853 40.4293 25.0873 40.0253 25.4913C36.7931 28.7912 35.7157 45.8965 29.3187 52.4288C25.6825 55.9981 21.7769 55.9981 19.3528 55.9981Z" fill="url(#paint14_radial_13250_6163)"/>
<path d="M54.3663 19.6998C53.9623 19.6998 53.491 19.7671 53.0869 19.8345C55.1071 22.7976 56.1171 25.8281 56.1171 27.1749C56.1171 32.0237 52.1442 33.2359 50.4608 33.2359C49.114 33.2359 48.104 32.8992 47.2959 32.4278V32.4951C47.0266 33.4379 46.8919 34.5154 46.5552 35.5256C45.9492 37.4785 45.0738 39.7009 44.1311 41.4518C43.121 43.3374 42.1783 44.4149 41.0336 44.3476C39.6868 44.2803 38.6768 42.5967 37.33 37.8153C36.926 36.2663 36.522 34.5828 36.118 32.8992C35.1752 28.7912 34.0978 24.6159 32.2124 20.9793C29.1149 14.9857 23.7952 13.1001 19.553 13.1001C15.6474 13.1001 12.6846 14.9857 10.3951 17.3428C9.78908 18.0162 9.04837 18.8917 8.375 19.9018C10.3951 20.3732 12.2806 21.9221 12.6172 24.7506C12.6846 25.2893 13.0886 29.6667 14.5027 34.7174C14.9067 33.4379 15.5127 31.5523 16.8595 28.5892C17.5329 27.1749 18.1389 26.2995 18.6776 25.7607C19.149 25.222 19.6203 25.0199 20.0243 25.0199C20.4957 25.0199 21.9771 25.424 23.4585 30.5421C25.2093 36.8051 26.5561 46.9067 31.6737 52.2942C33.9632 54.6512 37.128 56.2001 41.5049 56.2001C45.3432 56.2001 48.5753 54.5165 50.8648 52.1595C54.6357 48.2535 56.7232 41.8559 57.4639 39.4988C59.5513 32.7645 60.1573 26.6362 60.2247 25.9628C60.6287 22.2588 57.4639 19.6998 54.3663 19.6998Z" fill="#4A4A4A"/>
<path d="M54.3663 19.6998C53.9623 19.6998 53.491 19.7671 53.0869 19.8345C55.1071 22.7976 56.1171 25.8281 56.1171 27.1749C56.1171 32.0237 52.1442 33.2359 50.4608 33.2359C49.114 33.2359 48.104 32.8992 47.2959 32.4278V32.4951C47.0266 33.4379 46.8919 34.5154 46.5552 35.5256C45.9492 37.4785 45.0738 39.7009 44.1311 41.4518C43.121 43.3374 42.1783 44.4149 41.0336 44.3476C39.6868 44.2803 38.6768 42.5967 37.33 37.8153C36.926 36.2663 36.522 34.5828 36.118 32.8992C35.1752 28.7912 34.0978 24.6159 32.2124 20.9793C29.1149 14.9857 23.7952 13.1001 19.553 13.1001C15.6474 13.1001 12.6846 14.9857 10.3951 17.3428C9.78908 18.0162 9.04837 18.8917 8.375 19.9018C10.3951 20.3732 12.2806 21.9221 12.6172 24.7506C12.6846 25.2893 13.0886 29.6667 14.5027 34.7174C14.9067 33.4379 15.5127 31.5523 16.8595 28.5892C17.5329 27.1749 18.1389 26.2995 18.6776 25.7607C19.149 25.222 19.6203 25.0199 20.0243 25.0199C20.4957 25.0199 21.9771 25.424 23.4585 30.5421C25.2093 36.8051 26.5561 46.9067 31.6737 52.2942C33.9632 54.6512 37.128 56.2001 41.5049 56.2001C45.3432 56.2001 48.5753 54.5165 50.8648 52.1595C54.6357 48.2535 56.7232 41.8559 57.4639 39.4988C59.5513 32.7645 60.1573 26.6362 60.2247 25.9628C60.6287 22.2588 57.4639 19.6998 54.3663 19.6998Z" fill="url(#paint15_linear_13250_6163)"/>
<path d="M54.3663 19.6998C53.9623 19.6998 53.491 19.7671 53.0869 19.8345C55.1071 22.7976 56.1171 25.8281 56.1171 27.1749C56.1171 32.0237 52.1442 33.2359 50.4608 33.2359C49.114 33.2359 48.104 32.8992 47.2959 32.4278V32.4951C47.0266 33.4379 46.8919 34.5154 46.5552 35.5256C45.9492 37.4785 45.0738 39.7009 44.1311 41.4518C43.121 43.3374 42.1783 44.4149 41.0336 44.3476C39.6868 44.2803 38.6768 42.5967 37.33 37.8153C36.926 36.2663 36.522 34.5828 36.118 32.8992C35.1752 28.7912 34.0978 24.6159 32.2124 20.9793C29.1149 14.9857 23.7952 13.1001 19.553 13.1001C15.6474 13.1001 12.6846 14.9857 10.3951 17.3428C9.78908 18.0162 9.04837 18.8917 8.375 19.9018C10.3951 20.3732 12.2806 21.9221 12.6172 24.7506C12.6846 25.2893 13.0886 29.6667 14.5027 34.7174C14.9067 33.4379 15.5127 31.5523 16.8595 28.5892C17.5329 27.1749 18.1389 26.2995 18.6776 25.7607C19.149 25.222 19.6203 25.0199 20.0243 25.0199C20.4957 25.0199 21.9771 25.424 23.4585 30.5421C25.2093 36.8051 26.5561 46.9067 31.6737 52.2942C33.9632 54.6512 37.128 56.2001 41.5049 56.2001C45.3432 56.2001 48.5753 54.5165 50.8648 52.1595C54.6357 48.2535 56.7232 41.8559 57.4639 39.4988C59.5513 32.7645 60.1573 26.6362 60.2247 25.9628C60.6287 22.2588 57.4639 19.6998 54.3663 19.6998Z" fill="url(#paint16_radial_13250_6163)"/>
<path d="M54.3663 19.6998C53.9623 19.6998 53.491 19.7671 53.0869 19.8345C55.1071 22.7976 56.1171 25.8281 56.1171 27.1749C56.1171 32.0237 52.1442 33.2359 50.4608 33.2359C49.114 33.2359 48.104 32.8992 47.2959 32.4278V32.4951C47.0266 33.4379 46.8919 34.5154 46.5552 35.5256C45.9492 37.4785 45.0738 39.7009 44.1311 41.4518C43.121 43.3374 42.1783 44.4149 41.0336 44.3476C39.6868 44.2803 38.6768 42.5967 37.33 37.8153C36.926 36.2663 36.522 34.5828 36.118 32.8992C35.1752 28.7912 34.0978 24.6159 32.2124 20.9793C29.1149 14.9857 23.7952 13.1001 19.553 13.1001C15.6474 13.1001 12.6846 14.9857 10.3951 17.3428C9.78908 18.0162 9.04837 18.8917 8.375 19.9018C10.3951 20.3732 12.2806 21.9221 12.6172 24.7506C12.6846 25.2893 13.0886 29.6667 14.5027 34.7174C14.9067 33.4379 15.5127 31.5523 16.8595 28.5892C17.5329 27.1749 18.1389 26.2995 18.6776 25.7607C19.149 25.222 19.6203 25.0199 20.0243 25.0199C20.4957 25.0199 21.9771 25.424 23.4585 30.5421C25.2093 36.8051 26.5561 46.9067 31.6737 52.2942C33.9632 54.6512 37.128 56.2001 41.5049 56.2001C45.3432 56.2001 48.5753 54.5165 50.8648 52.1595C54.6357 48.2535 56.7232 41.8559 57.4639 39.4988C59.5513 32.7645 60.1573 26.6362 60.2247 25.9628C60.6287 22.2588 57.4639 19.6998 54.3663 19.6998Z" fill="url(#paint17_linear_13250_6163)"/>
<path d="M54.3663 19.6998C53.9623 19.6998 53.491 19.7671 53.0869 19.8345C55.1071 22.7976 56.1171 25.8281 56.1171 27.1749C56.1171 32.0237 52.1442 33.2359 50.4608 33.2359C49.114 33.2359 48.104 32.8992 47.2959 32.4278V32.4951C47.0266 33.4379 46.8919 34.5154 46.5552 35.5256C45.9492 37.4785 45.0738 39.7009 44.1311 41.4518C43.121 43.3374 42.1783 44.4149 41.0336 44.3476C39.6868 44.2803 38.6768 42.5967 37.33 37.8153C36.926 36.2663 36.522 34.5828 36.118 32.8992C35.1752 28.7912 34.0978 24.6159 32.2124 20.9793C29.1149 14.9857 23.7952 13.1001 19.553 13.1001C15.6474 13.1001 12.6846 14.9857 10.3951 17.3428C9.78908 18.0162 9.04837 18.8917 8.375 19.9018C10.3951 20.3732 12.2806 21.9221 12.6172 24.7506C12.6846 25.2893 13.0886 29.6667 14.5027 34.7174C14.9067 33.4379 15.5127 31.5523 16.8595 28.5892C17.5329 27.1749 18.1389 26.2995 18.6776 25.7607C19.149 25.222 19.6203 25.0199 20.0243 25.0199C20.4957 25.0199 21.9771 25.424 23.4585 30.5421C25.2093 36.8051 26.5561 46.9067 31.6737 52.2942C33.9632 54.6512 37.128 56.2001 41.5049 56.2001C45.3432 56.2001 48.5753 54.5165 50.8648 52.1595C54.6357 48.2535 56.7232 41.8559 57.4639 39.4988C59.5513 32.7645 60.1573 26.6362 60.2247 25.9628C60.6287 22.2588 57.4639 19.6998 54.3663 19.6998Z" fill="url(#paint18_linear_13250_6163)"/>
<path d="M54.3663 19.6998C53.9623 19.6998 53.491 19.7671 53.0869 19.8345C55.1071 22.7976 56.1171 25.8281 56.1171 27.1749C56.1171 32.0237 52.1442 33.2359 50.4608 33.2359C49.114 33.2359 48.104 32.8992 47.2959 32.4278V32.4951C47.0266 33.4379 46.8919 34.5154 46.5552 35.5256C45.9492 37.4785 45.0738 39.7009 44.1311 41.4518C43.121 43.3374 42.1783 44.4149 41.0336 44.3476C39.6868 44.2803 38.6768 42.5967 37.33 37.8153C36.926 36.2663 36.522 34.5828 36.118 32.8992C35.1752 28.7912 34.0978 24.6159 32.2124 20.9793C29.1149 14.9857 23.7952 13.1001 19.553 13.1001C15.6474 13.1001 12.6846 14.9857 10.3951 17.3428C9.78908 18.0162 9.04837 18.8917 8.375 19.9018C10.3951 20.3732 12.2806 21.9221 12.6172 24.7506C12.6846 25.2893 13.0886 29.6667 14.5027 34.7174C14.9067 33.4379 15.5127 31.5523 16.8595 28.5892C17.5329 27.1749 18.1389 26.2995 18.6776 25.7607C19.149 25.222 19.6203 25.0199 20.0243 25.0199C20.4957 25.0199 21.9771 25.424 23.4585 30.5421C25.2093 36.8051 26.5561 46.9067 31.6737 52.2942C33.9632 54.6512 37.128 56.2001 41.5049 56.2001C45.3432 56.2001 48.5753 54.5165 50.8648 52.1595C54.6357 48.2535 56.7232 41.8559 57.4639 39.4988C59.5513 32.7645 60.1573 26.6362 60.2247 25.9628C60.6287 22.2588 57.4639 19.6998 54.3663 19.6998Z" fill="url(#paint19_radial_13250_6163)"/>
<path d="M54.3663 19.6998C53.9623 19.6998 53.491 19.7671 53.0869 19.8345C55.1071 22.7976 56.1171 25.8281 56.1171 27.1749C56.1171 32.0237 52.1442 33.2359 50.4608 33.2359C49.114 33.2359 48.104 32.8992 47.2959 32.4278V32.4951C47.0266 33.4379 46.8919 34.5154 46.5552 35.5256C45.9492 37.4785 45.0738 39.7009 44.1311 41.4518C43.121 43.3374 42.1783 44.4149 41.0336 44.3476C39.6868 44.2803 38.6768 42.5967 37.33 37.8153C36.926 36.2663 36.522 34.5828 36.118 32.8992C35.1752 28.7912 34.0978 24.6159 32.2124 20.9793C29.1149 14.9857 23.7952 13.1001 19.553 13.1001C15.6474 13.1001 12.6846 14.9857 10.3951 17.3428C9.78908 18.0162 9.04837 18.8917 8.375 19.9018C10.3951 20.3732 12.2806 21.9221 12.6172 24.7506C12.6846 25.2893 13.0886 29.6667 14.5027 34.7174C14.9067 33.4379 15.5127 31.5523 16.8595 28.5892C17.5329 27.1749 18.1389 26.2995 18.6776 25.7607C19.149 25.222 19.6203 25.0199 20.0243 25.0199C20.4957 25.0199 21.9771 25.424 23.4585 30.5421C25.2093 36.8051 26.5561 46.9067 31.6737 52.2942C33.9632 54.6512 37.128 56.2001 41.5049 56.2001C45.3432 56.2001 48.5753 54.5165 50.8648 52.1595C54.6357 48.2535 56.7232 41.8559 57.4639 39.4988C59.5513 32.7645 60.1573 26.6362 60.2247 25.9628C60.6287 22.2588 57.4639 19.6998 54.3663 19.6998Z" fill="url(#paint20_radial_13250_6163)"/>
<path d="M54.3663 19.6998C53.9623 19.6998 53.491 19.7671 53.0869 19.8345C55.1071 22.7976 56.1171 25.8281 56.1171 27.1749C56.1171 32.0237 52.1442 33.2359 50.4608 33.2359C49.114 33.2359 48.104 32.8992 47.2959 32.4278V32.4951C47.0266 33.4379 46.8919 34.5154 46.5552 35.5256C45.9492 37.4785 45.0738 39.7009 44.1311 41.4518C43.121 43.3374 42.1783 44.4149 41.0336 44.3476C39.6868 44.2803 38.6768 42.5967 37.33 37.8153C36.926 36.2663 36.522 34.5828 36.118 32.8992C35.1752 28.7912 34.0978 24.6159 32.2124 20.9793C29.1149 14.9857 23.7952 13.1001 19.553 13.1001C15.6474 13.1001 12.6846 14.9857 10.3951 17.3428C9.78908 18.0162 9.04837 18.8917 8.375 19.9018C10.3951 20.3732 12.2806 21.9221 12.6172 24.7506C12.6846 25.2893 13.0886 29.6667 14.5027 34.7174C14.9067 33.4379 15.5127 31.5523 16.8595 28.5892C17.5329 27.1749 18.1389 26.2995 18.6776 25.7607C19.149 25.222 19.6203 25.0199 20.0243 25.0199C20.4957 25.0199 21.9771 25.424 23.4585 30.5421C25.2093 36.8051 26.5561 46.9067 31.6737 52.2942C33.9632 54.6512 37.128 56.2001 41.5049 56.2001C45.3432 56.2001 48.5753 54.5165 50.8648 52.1595C54.6357 48.2535 56.7232 41.8559 57.4639 39.4988C59.5513 32.7645 60.1573 26.6362 60.2247 25.9628C60.6287 22.2588 57.4639 19.6998 54.3663 19.6998Z" fill="url(#paint21_radial_13250_6163)"/>
<path d="M54.3663 19.6998C53.9623 19.6998 53.491 19.7671 53.0869 19.8345C55.1071 22.7976 56.1171 25.8281 56.1171 27.1749C56.1171 32.0237 52.1442 33.2359 50.4608 33.2359C49.114 33.2359 48.104 32.8992 47.2959 32.4278V32.4951C47.0266 33.4379 46.8919 34.5154 46.5552 35.5256C45.9492 37.4785 45.0738 39.7009 44.1311 41.4518C43.121 43.3374 42.1783 44.4149 41.0336 44.3476C39.6868 44.2803 38.6768 42.5967 37.33 37.8153C36.926 36.2663 36.522 34.5828 36.118 32.8992C35.1752 28.7912 34.0978 24.6159 32.2124 20.9793C29.1149 14.9857 23.7952 13.1001 19.553 13.1001C15.6474 13.1001 12.6846 14.9857 10.3951 17.3428C9.78908 18.0162 9.04837 18.8917 8.375 19.9018C10.3951 20.3732 12.2806 21.9221 12.6172 24.7506C12.6846 25.2893 13.0886 29.6667 14.5027 34.7174C14.9067 33.4379 15.5127 31.5523 16.8595 28.5892C17.5329 27.1749 18.1389 26.2995 18.6776 25.7607C19.149 25.222 19.6203 25.0199 20.0243 25.0199C20.4957 25.0199 21.9771 25.424 23.4585 30.5421C25.2093 36.8051 26.5561 46.9067 31.6737 52.2942C33.9632 54.6512 37.128 56.2001 41.5049 56.2001C45.3432 56.2001 48.5753 54.5165 50.8648 52.1595C54.6357 48.2535 56.7232 41.8559 57.4639 39.4988C59.5513 32.7645 60.1573 26.6362 60.2247 25.9628C60.6287 22.2588 57.4639 19.6998 54.3663 19.6998Z" fill="url(#paint22_radial_13250_6163)"/>
<path d="M54.3663 19.6998C53.9623 19.6998 53.491 19.7671 53.0869 19.8345C55.1071 22.7976 56.1171 25.8281 56.1171 27.1749C56.1171 32.0237 52.1442 33.2359 50.4608 33.2359C49.114 33.2359 48.104 32.8992 47.2959 32.4278V32.4951C47.0266 33.4379 46.8919 34.5154 46.5552 35.5256C45.9492 37.4785 45.0738 39.7009 44.1311 41.4518C43.121 43.3374 42.1783 44.4149 41.0336 44.3476C39.6868 44.2803 38.6768 42.5967 37.33 37.8153C36.926 36.2663 36.522 34.5828 36.118 32.8992C35.1752 28.7912 34.0978 24.6159 32.2124 20.9793C29.1149 14.9857 23.7952 13.1001 19.553 13.1001C15.6474 13.1001 12.6846 14.9857 10.3951 17.3428C9.78908 18.0162 9.04837 18.8917 8.375 19.9018C10.3951 20.3732 12.2806 21.9221 12.6172 24.7506C12.6846 25.2893 13.0886 29.6667 14.5027 34.7174C14.9067 33.4379 15.5127 31.5523 16.8595 28.5892C17.5329 27.1749 18.1389 26.2995 18.6776 25.7607C19.149 25.222 19.6203 25.0199 20.0243 25.0199C20.4957 25.0199 21.9771 25.424 23.4585 30.5421C25.2093 36.8051 26.5561 46.9067 31.6737 52.2942C33.9632 54.6512 37.128 56.2001 41.5049 56.2001C45.3432 56.2001 48.5753 54.5165 50.8648 52.1595C54.6357 48.2535 56.7232 41.8559 57.4639 39.4988C59.5513 32.7645 60.1573 26.6362 60.2247 25.9628C60.6287 22.2588 57.4639 19.6998 54.3663 19.6998Z" fill="url(#paint23_radial_13250_6163)"/>
<path d="M54.3663 19.6998C53.9623 19.6998 53.491 19.7671 53.0869 19.8345C55.1071 22.7976 56.1171 25.8281 56.1171 27.1749C56.1171 32.0237 52.1442 33.2359 50.4608 33.2359C49.114 33.2359 48.104 32.8992 47.2959 32.4278V32.4951C47.0266 33.4379 46.8919 34.5154 46.5552 35.5256C45.9492 37.4785 45.0738 39.7009 44.1311 41.4518C43.121 43.3374 42.1783 44.4149 41.0336 44.3476C39.6868 44.2803 38.6768 42.5967 37.33 37.8153C36.926 36.2663 36.522 34.5828 36.118 32.8992C35.1752 28.7912 34.0978 24.6159 32.2124 20.9793C29.1149 14.9857 23.7952 13.1001 19.553 13.1001C15.6474 13.1001 12.6846 14.9857 10.3951 17.3428C9.78908 18.0162 9.04837 18.8917 8.375 19.9018C10.3951 20.3732 12.2806 21.9221 12.6172 24.7506C12.6846 25.2893 13.0886 29.6667 14.5027 34.7174C14.9067 33.4379 15.5127 31.5523 16.8595 28.5892C17.5329 27.1749 18.1389 26.2995 18.6776 25.7607C19.149 25.222 19.6203 25.0199 20.0243 25.0199C20.4957 25.0199 21.9771 25.424 23.4585 30.5421C25.2093 36.8051 26.5561 46.9067 31.6737 52.2942C33.9632 54.6512 37.128 56.2001 41.5049 56.2001C45.3432 56.2001 48.5753 54.5165 50.8648 52.1595C54.6357 48.2535 56.7232 41.8559 57.4639 39.4988C59.5513 32.7645 60.1573 26.6362 60.2247 25.9628C60.6287 22.2588 57.4639 19.6998 54.3663 19.6998Z" fill="url(#paint24_linear_13250_6163)"/>
<path d="M54.3663 19.6998C53.9623 19.6998 53.491 19.7671 53.0869 19.8345C55.1071 22.7976 56.1171 25.8281 56.1171 27.1749C56.1171 32.0237 52.1442 33.2359 50.4608 33.2359C49.114 33.2359 48.104 32.8992 47.2959 32.4278V32.4951C47.0266 33.4379 46.8919 34.5154 46.5552 35.5256C45.9492 37.4785 45.0738 39.7009 44.1311 41.4518C43.121 43.3374 42.1783 44.4149 41.0336 44.3476C39.6868 44.2803 38.6768 42.5967 37.33 37.8153C36.926 36.2663 36.522 34.5828 36.118 32.8992C35.1752 28.7912 34.0978 24.6159 32.2124 20.9793C29.1149 14.9857 23.7952 13.1001 19.553 13.1001C15.6474 13.1001 12.6846 14.9857 10.3951 17.3428C9.78908 18.0162 9.04837 18.8917 8.375 19.9018C10.3951 20.3732 12.2806 21.9221 12.6172 24.7506C12.6846 25.2893 13.0886 29.6667 14.5027 34.7174C14.9067 33.4379 15.5127 31.5523 16.8595 28.5892C17.5329 27.1749 18.1389 26.2995 18.6776 25.7607C19.149 25.222 19.6203 25.0199 20.0243 25.0199C20.4957 25.0199 21.9771 25.424 23.4585 30.5421C25.2093 36.8051 26.5561 46.9067 31.6737 52.2942C33.9632 54.6512 37.128 56.2001 41.5049 56.2001C45.3432 56.2001 48.5753 54.5165 50.8648 52.1595C54.6357 48.2535 56.7232 41.8559 57.4639 39.4988C59.5513 32.7645 60.1573 26.6362 60.2247 25.9628C60.6287 22.2588 57.4639 19.6998 54.3663 19.6998Z" fill="url(#paint25_radial_13250_6163)"/>
<path d="M54.3663 19.6998C53.9623 19.6998 53.491 19.7671 53.0869 19.8345C55.1071 22.7976 56.1171 25.8281 56.1171 27.1749C56.1171 32.0237 52.1442 33.2359 50.4608 33.2359C49.114 33.2359 48.104 32.8992 47.2959 32.4278V32.4951C47.0266 33.4379 46.8919 34.5154 46.5552 35.5256C45.9492 37.4785 45.0738 39.7009 44.1311 41.4518C43.121 43.3374 42.1783 44.4149 41.0336 44.3476C39.6868 44.2803 38.6768 42.5967 37.33 37.8153C36.926 36.2663 36.522 34.5828 36.118 32.8992C35.1752 28.7912 34.0978 24.6159 32.2124 20.9793C29.1149 14.9857 23.7952 13.1001 19.553 13.1001C15.6474 13.1001 12.6846 14.9857 10.3951 17.3428C9.78908 18.0162 9.04837 18.8917 8.375 19.9018C10.3951 20.3732 12.2806 21.9221 12.6172 24.7506C12.6846 25.2893 13.0886 29.6667 14.5027 34.7174C14.9067 33.4379 15.5127 31.5523 16.8595 28.5892C17.5329 27.1749 18.1389 26.2995 18.6776 25.7607C19.149 25.222 19.6203 25.0199 20.0243 25.0199C20.4957 25.0199 21.9771 25.424 23.4585 30.5421C25.2093 36.8051 26.5561 46.9067 31.6737 52.2942C33.9632 54.6512 37.128 56.2001 41.5049 56.2001C45.3432 56.2001 48.5753 54.5165 50.8648 52.1595C54.6357 48.2535 56.7232 41.8559 57.4639 39.4988C59.5513 32.7645 60.1573 26.6362 60.2247 25.9628C60.6287 22.2588 57.4639 19.6998 54.3663 19.6998Z" fill="url(#paint26_radial_13250_6163)"/>
<path d="M54.3663 19.6998C53.9623 19.6998 53.491 19.7671 53.0869 19.8345C55.1071 22.7976 56.1171 25.8281 56.1171 27.1749C56.1171 32.0237 52.1442 33.2359 50.4608 33.2359C49.114 33.2359 48.104 32.8992 47.2959 32.4278V32.4951C47.0266 33.4379 46.8919 34.5154 46.5552 35.5256C45.9492 37.4785 45.0738 39.7009 44.1311 41.4518C43.121 43.3374 42.1783 44.4149 41.0336 44.3476C39.6868 44.2803 38.6768 42.5967 37.33 37.8153C36.926 36.2663 36.522 34.5828 36.118 32.8992C35.1752 28.7912 34.0978 24.6159 32.2124 20.9793C29.1149 14.9857 23.7952 13.1001 19.553 13.1001C15.6474 13.1001 12.6846 14.9857 10.3951 17.3428C9.78908 18.0162 9.04837 18.8917 8.375 19.9018C10.3951 20.3732 12.2806 21.9221 12.6172 24.7506C12.6846 25.2893 13.0886 29.6667 14.5027 34.7174C14.9067 33.4379 15.5127 31.5523 16.8595 28.5892C17.5329 27.1749 18.1389 26.2995 18.6776 25.7607C19.149 25.222 19.6203 25.0199 20.0243 25.0199C20.4957 25.0199 21.9771 25.424 23.4585 30.5421C25.2093 36.8051 26.5561 46.9067 31.6737 52.2942C33.9632 54.6512 37.128 56.2001 41.5049 56.2001C45.3432 56.2001 48.5753 54.5165 50.8648 52.1595C54.6357 48.2535 56.7232 41.8559 57.4639 39.4988C59.5513 32.7645 60.1573 26.6362 60.2247 25.9628C60.6287 22.2588 57.4639 19.6998 54.3663 19.6998Z" fill="url(#paint27_linear_13250_6163)"/>
<path d="M113.895 24.7444H120.17L111.047 52.1H103.848L97.0291 31.457L90.2101 52.1H83.1236L74 24.7444H80.4219L86.8956 45.533L93.6886 24.7444H100.508L107.413 45.6443L113.895 24.7444Z" fill="black"/>
<path d="M147.084 40.6185H126.73C126.918 42.0292 127.452 43.3726 128.284 44.5314C129.021 45.5453 130.02 46.3438 131.176 46.8431C132.352 47.3473 133.623 47.6011 134.904 47.588C136.325 47.5827 137.734 47.3276 139.065 46.8346C140.445 46.3341 141.733 45.614 142.88 44.7026L145.875 48.9836C144.348 50.3047 142.569 51.309 140.644 51.9375C138.667 52.5531 136.605 52.8565 134.533 52.8365C131.981 52.8864 129.461 52.2724 127.222 51.0556C125.105 49.8787 123.371 48.126 122.225 46.0041C120.991 43.6782 120.374 41.0798 120.429 38.4524C120.376 35.8497 120.969 33.274 122.156 30.952C123.258 28.84 124.94 27.08 127.006 25.8747C129.175 24.6367 131.643 24.0091 134.145 24.0596C136.506 23.9948 138.835 24.6065 140.854 25.8213C142.873 27.0361 144.497 28.8026 145.53 30.9092C146.67 33.2388 147.238 35.8032 147.187 38.3924C147.196 38.9661 147.161 39.711 147.084 40.6185ZM141.041 36.0807C140.856 34.2059 140.045 32.4462 138.737 31.0805C138.11 30.4975 137.371 30.0455 136.564 29.7513C135.758 29.4572 134.9 29.3268 134.041 29.368C133.138 29.327 132.235 29.4666 131.387 29.7784C130.539 30.0902 129.762 30.5679 129.104 31.1832C127.8 32.5289 126.968 34.2551 126.73 36.1064L141.041 36.0807Z" fill="black"/>
<path d="M172.831 25.8918C174.931 27.1237 176.653 28.8997 177.812 31.029C179.051 33.2984 179.681 35.8458 179.642 38.4266C179.681 41.0045 179.051 43.5492 177.812 45.8156C176.653 47.9546 174.924 49.7377 172.815 50.9709C170.706 52.2042 168.297 52.8405 165.848 52.8107C164.13 52.8465 162.427 52.4921 160.868 51.7747C159.439 51.0914 158.19 50.0891 157.217 48.8465V52.1001H151.175V13.1001H157.217V27.998C158.194 26.7638 159.443 25.768 160.868 25.0869C162.425 24.3625 164.129 24.005 165.848 24.0424C168.303 24.0126 170.719 24.6523 172.831 25.8918ZM169.534 46.0211C170.787 45.2568 171.796 44.1552 172.443 42.8446C173.107 41.4634 173.452 39.9525 173.452 38.4223C173.452 36.8921 173.107 35.3812 172.443 34C171.793 32.6911 170.785 31.5903 169.534 30.8235C168.204 30.0688 166.699 29.6718 165.167 29.6718C163.634 29.6718 162.129 30.0688 160.799 30.8235C159.545 31.5791 158.528 32.6674 157.864 33.9657C157.146 35.3525 156.785 36.8936 156.811 38.4522C156.784 40.0083 157.146 41.5468 157.864 42.9302C158.528 44.2285 159.545 45.3168 160.799 46.0724C162.129 46.8271 163.634 47.2241 165.167 47.2241C166.699 47.2241 168.204 46.8271 169.534 46.0724V46.0211Z" fill="black"/>
<path d="M209.455 40.6184H189.111C189.299 42.029 189.832 43.3725 190.664 44.5312C191.402 45.5451 192.401 46.3436 193.556 46.843C194.733 47.3472 196.003 47.6009 197.285 47.5879C198.706 47.5813 200.114 47.3262 201.445 46.8344C202.825 46.3339 204.114 45.6138 205.26 44.7025L208.247 48.9835C206.724 50.3062 204.948 51.3108 203.025 51.9374C201.045 52.5524 198.98 52.8558 196.905 52.8364C194.353 52.8835 191.833 52.2697 189.594 51.0555C187.481 49.8758 185.751 48.1236 184.605 46.0039C183.369 43.6787 182.748 41.0803 182.801 38.4522C182.749 35.8496 183.341 33.274 184.527 30.9519C185.63 28.8399 187.311 27.0798 189.378 25.8746C191.559 24.6185 194.047 23.9817 196.568 24.0338C198.929 23.9722 201.257 24.5851 203.275 25.7996C205.294 27.0141 206.918 28.7788 207.953 30.8834C209.094 33.213 209.662 35.7774 209.611 38.3666C209.576 38.9659 209.516 39.7108 209.455 40.6184ZM203.413 36.0805C203.214 34.2178 202.401 32.4723 201.1 31.1146C200.477 30.5284 199.742 30.0718 198.939 29.7719C198.135 29.4719 197.28 29.3345 196.422 29.3679C195.518 29.3259 194.615 29.465 193.767 29.7768C192.918 30.0887 192.142 30.567 191.484 31.1831C190.178 32.5266 189.345 34.2539 189.111 36.1062L203.413 36.0805Z" fill="black"/>
<path d="M238.156 52.1H230.758L223.767 42.5876L216.862 52.1H209.81L220.167 38.1354L209.974 24.7444H217.379L224.112 33.8801L230.845 24.7444H238L227.763 38.084L238.156 52.1Z" fill="black"/>
<defs>
<linearGradient id="paint0_linear_13250_6163" x1="50.245" y1="26.0246" x2="11.4897" y2="38.7439" gradientUnits="userSpaceOnUse">
<stop stop-color="#7B7B7B"/>
<stop offset="1" stop-color="#464646"/>
</linearGradient>
<radialGradient id="paint1_radial_13250_6163" cx="0" cy="0" r="1" gradientUnits="userSpaceOnUse" gradientTransform="translate(23.5251 35.9857) rotate(-120.879) scale(25.3787 21.3126)">
<stop/>
<stop offset="0.4079" stop-opacity="0.75"/>
<stop offset="0.8745" stop-opacity="0"/>
</radialGradient>
<radialGradient id="paint2_radial_13250_6163" cx="0" cy="0" r="1" gradientUnits="userSpaceOnUse" gradientTransform="translate(40.2088 31.2766) rotate(-126.754) scale(20.6987 13.603)">
<stop stop-color="#0D0D0D"/>
<stop offset="0.4595" stop-color="#090909"/>
<stop offset="1" stop-opacity="0"/>
</radialGradient>
<radialGradient id="paint3_radial_13250_6163" cx="0" cy="0" r="1" gradientUnits="userSpaceOnUse" gradientTransform="translate(26.8933 39.0274) rotate(-118.874) scale(20.4572 14.1825)">
<stop/>
<stop offset="0.4079" stop-opacity="0.79"/>
<stop offset="0.8745" stop-opacity="0"/>
</radialGradient>
<radialGradient id="paint4_radial_13250_6163" cx="0" cy="0" r="1" gradientUnits="userSpaceOnUse" gradientTransform="translate(37.2046 31.7327) rotate(85.0944) scale(16.1195 9.14939)">
<stop/>
<stop offset="0.2326" stop-opacity="0.75"/>
<stop offset="0.5989" stop-opacity="0.3008"/>
<stop offset="0.8745" stop-opacity="0"/>
</radialGradient>
<radialGradient id="paint5_radial_13250_6163" cx="0" cy="0" r="1" gradientUnits="userSpaceOnUse" gradientTransform="translate(37.903 5.67801) rotate(57.058) scale(18.9528 9.94371)">
<stop stop-color="#2B2B2B"/>
<stop offset="0.4079" stop-color="#323232"/>
<stop offset="1" stop-color="#323232" stop-opacity="0.07"/>
</radialGradient>
<radialGradient id="paint6_radial_13250_6163" cx="0" cy="0" r="1" gradientUnits="userSpaceOnUse" gradientTransform="translate(-1.72506 20.5079) rotate(42.8002) scale(12.3895 17.1237)">
<stop stop-color="white"/>
<stop offset="1" stop-color="#4A4A4A" stop-opacity="0"/>
</radialGradient>
<radialGradient id="paint7_radial_13250_6163" cx="0" cy="0" r="1" gradientUnits="userSpaceOnUse" gradientTransform="translate(-8.45878 32.9665) rotate(-8.84265) scale(15.3331 21.1939)">
<stop stop-color="white"/>
<stop offset="1" stop-color="#4A4A4A" stop-opacity="0"/>
</radialGradient>
<radialGradient id="paint8_radial_13250_6163" cx="0" cy="0" r="1" gradientUnits="userSpaceOnUse" gradientTransform="translate(-4.75523 47.7821) rotate(-32.0079) scale(15.8819 21.9514)">
<stop stop-color="white"/>
<stop offset="1" stop-color="#4A4A4A" stop-opacity="0"/>
</radialGradient>
<radialGradient id="paint9_radial_13250_6163" cx="0" cy="0" r="1" gradientUnits="userSpaceOnUse" gradientTransform="translate(12.1305 -2.98219) rotate(47.9907) scale(50.2103 50.1351)">
<stop stop-color="#464646"/>
<stop offset="0.7454" stop-color="#444444" stop-opacity="0"/>
</radialGradient>
<radialGradient id="paint10_radial_13250_6163" cx="0" cy="0" r="1" gradientUnits="userSpaceOnUse" gradientTransform="translate(51.5898 25.4562) rotate(-129.571) scale(17.1137 11.9829)">
<stop stop-color="#717171"/>
<stop offset="1" stop-color="#444444" stop-opacity="0"/>
</radialGradient>
<radialGradient id="paint11_radial_13250_6163" cx="0" cy="0" r="1" gradientUnits="userSpaceOnUse" gradientTransform="translate(48.8924 36.1037) rotate(-77.871) scale(4.27009 5.97163)">
<stop stop-color="#0F0F0F"/>
<stop offset="1" stop-opacity="0"/>
</radialGradient>
<radialGradient id="paint12_radial_13250_6163" cx="0" cy="0" r="1" gradientUnits="userSpaceOnUse" gradientTransform="translate(54.5016 23.5384) rotate(-151.54) scale(11.5512 8.11575)">
<stop stop-color="#7C7C7C"/>
<stop offset="0.8133" stop-color="#727272" stop-opacity="0"/>
</radialGradient>
<radialGradient id="paint13_radial_13250_6163" cx="0" cy="0" r="1" gradientUnits="userSpaceOnUse" gradientTransform="translate(56.185 20.1712) rotate(-169.765) scale(12.03 8.45256)">
<stop stop-color="#C4C4C4"/>
<stop offset="0.8133" stop-color="#727272" stop-opacity="0"/>
</radialGradient>
<radialGradient id="paint14_radial_13250_6163" cx="0" cy="0" r="1" gradientUnits="userSpaceOnUse" gradientTransform="translate(-7.72009 9.46741) rotate(49.6296) scale(24.7556 24.6967)">
<stop stop-color="#4C4C4C"/>
<stop offset="1" stop-color="#494949" stop-opacity="0"/>
</radialGradient>
<linearGradient id="paint15_linear_13250_6163" x1="58.5413" y1="33.6399" x2="4.67145" y2="33.6399" gradientUnits="userSpaceOnUse">
<stop stop-color="#3E3E3E" stop-opacity="0"/>
<stop offset="0.460592" stop-color="#3E3E3E"/>
<stop offset="1" stop-color="#3E3E3E" stop-opacity="0"/>
</linearGradient>
<radialGradient id="paint16_radial_13250_6163" cx="0" cy="0" r="1" gradientUnits="userSpaceOnUse" gradientTransform="translate(49.5759 32.4671) rotate(37.4356) scale(12.6028 17.5142)">
<stop stop-color="#010101"/>
<stop offset="0.9661" stop-color="#010101" stop-opacity="0"/>
</radialGradient>
<linearGradient id="paint17_linear_13250_6163" x1="73.0188" y1="27.579" x2="49.1127" y2="43.066" gradientUnits="userSpaceOnUse">
<stop stop-color="white" stop-opacity="0.3"/>
<stop offset="0.9661" stop-color="white" stop-opacity="0"/>
</linearGradient>
<linearGradient id="paint18_linear_13250_6163" x1="56.5211" y1="56.2001" x2="43.7266" y2="49.8034" gradientUnits="userSpaceOnUse">
<stop stop-color="white" stop-opacity="0.3"/>
<stop offset="0.9661" stop-color="white" stop-opacity="0"/>
</linearGradient>
<radialGradient id="paint19_radial_13250_6163" cx="0" cy="0" r="1" gradientUnits="userSpaceOnUse" gradientTransform="translate(46.429 33.914) rotate(8.47981) scale(14.8739 22.1858)">
<stop stop-color="#010101"/>
<stop offset="0.5925" stop-color="#010101" stop-opacity="0"/>
</radialGradient>
<radialGradient id="paint20_radial_13250_6163" cx="0" cy="0" r="1" gradientUnits="userSpaceOnUse" gradientTransform="translate(47.6362 35.7543) rotate(24.647) scale(12.7041 22.6264)">
<stop stop-color="#010101"/>
<stop offset="0.7568" stop-color="#010101" stop-opacity="0"/>
</radialGradient>
<radialGradient id="paint21_radial_13250_6163" cx="0" cy="0" r="1" gradientUnits="userSpaceOnUse" gradientTransform="translate(20.159 32.6298) rotate(95.9055) scale(9.81696 4.22503)">
<stop stop-color="#010101"/>
<stop offset="0.8846" stop-color="#010101" stop-opacity="0"/>
</radialGradient>
<radialGradient id="paint22_radial_13250_6163" cx="0" cy="0" r="1" gradientUnits="userSpaceOnUse" gradientTransform="translate(5.34482 35.3235) rotate(-7.59536) scale(25.475 25.9695)">
<stop stop-color="#010101" stop-opacity="0.5"/>
<stop offset="0.8846" stop-color="#010101" stop-opacity="0"/>
</radialGradient>
<radialGradient id="paint23_radial_13250_6163" cx="0" cy="0" r="1" gradientUnits="userSpaceOnUse" gradientTransform="translate(8.375 31.2829) rotate(-3.40678) scale(28.3317 55.3521)">
<stop stop-color="#010101" stop-opacity="0.5"/>
<stop offset="0.822914" stop-color="#010101" stop-opacity="0"/>
</radialGradient>
<linearGradient id="paint24_linear_13250_6163" x1="23.1892" y1="61.5876" x2="36.9945" y2="49.467" gradientUnits="userSpaceOnUse">
<stop stop-color="#010101"/>
<stop offset="1" stop-color="#010101" stop-opacity="0"/>
</linearGradient>
<radialGradient id="paint25_radial_13250_6163" cx="0" cy="0" r="1" gradientUnits="userSpaceOnUse" gradientTransform="translate(15.8322 28.8018) rotate(-159.54) scale(11.2463 19.2459)">
<stop stop-color="#010101"/>
<stop offset="0.709" stop-color="#010101" stop-opacity="0"/>
</radialGradient>
<radialGradient id="paint26_radial_13250_6163" cx="0" cy="0" r="1" gradientUnits="userSpaceOnUse" gradientTransform="translate(28.2395 20.5079) rotate(57.8502) scale(13.9196 9.3936)">
<stop stop-color="white" stop-opacity="0.15"/>
<stop offset="1" stop-color="white" stop-opacity="0"/>
</radialGradient>
<linearGradient id="paint27_linear_13250_6163" x1="18.8123" y1="10.4063" x2="19.4858" y2="16.804" gradientUnits="userSpaceOnUse">
<stop stop-opacity="0.5"/>
<stop offset="1" stop-opacity="0"/>
</linearGradient>
</defs>
</svg>
