<svg width="378" height="24" viewBox="0 0 378 24" fill="none" xmlns="http://www.w3.org/2000/svg">
<path d="M19.9476 6.21973H23.0852L18.5234 20.0087H14.924L11.5145 9.60331L8.10505 20.0087H4.56179L0 6.21973H3.21095L6.44779 16.6985L9.84432 6.21973H13.2538L16.7064 16.7546L19.9476 6.21973Z" fill="black"/>
<path d="M36.5418 14.2212H26.3651C26.4591 14.9322 26.7258 15.6094 27.142 16.1935C27.5107 16.7045 28.0101 17.107 28.5878 17.3587C29.1762 17.6129 29.8113 17.7408 30.4522 17.7342C31.1626 17.7315 31.8669 17.6029 32.5324 17.3544C33.2224 17.1021 33.8667 16.7392 34.44 16.2798L35.9376 18.4377C35.1739 19.1036 34.2846 19.6098 33.3222 19.9266C32.3337 20.2369 31.3026 20.3898 30.2666 20.3798C28.9906 20.4049 27.7303 20.0954 26.6111 19.4821C25.5525 18.8889 24.6855 18.0054 24.1123 16.9358C23.4957 15.7634 23.1868 14.4536 23.2146 13.1293C23.1882 11.8174 23.4846 10.5191 24.0778 9.34863C24.629 8.28405 25.4698 7.39688 26.5032 6.78937C27.5876 6.16532 28.8216 5.84898 30.0724 5.87442C31.2528 5.84176 32.4175 6.15007 33.4271 6.76242C34.4367 7.37478 35.2484 8.26521 35.7649 9.32705C36.3352 10.5013 36.6191 11.7939 36.5936 13.0991C36.5979 13.3882 36.5806 13.7637 36.5418 14.2212ZM33.5207 11.9338C33.428 10.9888 33.0224 10.1018 32.3684 9.41337C32.0549 9.11952 31.6855 8.89169 31.2821 8.74342C30.8788 8.59514 30.4498 8.52943 30.0206 8.55021C29.5688 8.52953 29.1175 8.59987 28.6934 8.75704C28.2693 8.91422 27.8812 9.15502 27.552 9.46516C26.9002 10.1435 26.484 11.0136 26.3651 11.9467L33.5207 11.9338Z" fill="black"/>
<path d="M49.4162 6.79789C50.466 7.41887 51.3269 8.31407 51.9064 9.38736C52.5261 10.5313 52.8411 11.8154 52.8214 13.1162C52.8412 14.4157 52.5261 15.6983 51.9064 16.8407C51.3268 17.919 50.4627 18.8177 49.4081 19.4393C48.3536 20.061 47.1488 20.3817 45.9247 20.3667C45.0657 20.3847 44.2139 20.2061 43.4345 19.8445C42.7202 19.5001 42.0954 18.9949 41.6089 18.3685V20.0085H38.5879V0.350098H41.6089V7.85957C42.0974 7.23746 42.7219 6.7355 43.4345 6.3922C44.2129 6.02706 45.0652 5.84685 45.9247 5.86568C47.152 5.85066 48.3598 6.17313 49.4162 6.79789ZM47.7676 16.9443C48.3942 16.5591 48.8986 16.0038 49.222 15.3432C49.554 14.6469 49.7263 13.8854 49.7263 13.114C49.7263 12.3427 49.554 11.5812 49.222 10.8849C48.8972 10.2252 48.3932 9.6703 47.7676 9.28378C47.1026 8.90338 46.3499 8.70327 45.5838 8.70327C44.8177 8.70327 44.0649 8.90338 43.4 9.28378C42.7728 9.66465 42.2645 10.2133 41.9326 10.8677C41.5737 11.5667 41.3928 12.3435 41.4061 13.1292C41.3924 13.9135 41.5733 14.689 41.9326 15.3863C42.2645 16.0407 42.7728 16.5893 43.4 16.9702C44.0649 17.3506 44.8177 17.5507 45.5838 17.5507C46.3499 17.5507 47.1026 17.3506 47.7676 16.9702V16.9443Z" fill="black"/>
<path d="M67.7272 14.2212H57.5549C57.6488 14.9322 57.9155 15.6094 58.3317 16.1935C58.7004 16.7046 59.1998 17.1071 59.7775 17.3588C60.3659 17.6129 61.001 17.7408 61.6419 17.7342C62.3523 17.7309 63.0565 17.6023 63.7221 17.3545C64.4121 17.1022 65.0564 16.7392 65.6297 16.2798L67.123 18.4377C66.3615 19.1044 65.4735 19.6108 64.5119 19.9267C63.5219 20.2367 62.4894 20.3896 61.452 20.3798C60.1762 20.4036 58.9163 20.0942 57.7966 19.4821C56.7401 18.8875 55.8749 18.0043 55.302 16.9358C54.6841 15.7638 54.3737 14.454 54.4 13.1293C54.3738 11.8174 54.6702 10.5192 55.2632 9.34866C55.8144 8.28408 56.6552 7.39691 57.6887 6.7894C58.7792 6.15625 60.023 5.83524 61.2837 5.86151C62.4638 5.83045 63.6279 6.13943 64.6372 6.75161C65.6465 7.36378 66.4585 8.25331 66.9763 9.31414C67.5465 10.4884 67.8304 11.781 67.8049 13.0861C67.7876 13.3882 67.7574 13.7637 67.7272 14.2212ZM64.7061 11.9338C64.6066 10.9949 64.2 10.115 63.5495 9.43066C63.2381 9.1352 62.8707 8.90507 62.469 8.75386C62.0672 8.60265 61.6393 8.53342 61.2104 8.55024C60.7585 8.52907 60.307 8.59917 59.8829 8.75638C59.4587 8.91358 59.0706 9.15465 58.7417 9.46519C58.0884 10.1424 57.672 11.0131 57.5549 11.9468L64.7061 11.9338Z" fill="black"/>
<path d="M82.0773 20.0087H78.3787L74.8829 15.2138L71.4303 20.0087H67.9043L73.0832 12.9696L67.9863 6.21973H71.6892L75.0556 10.8247L78.4219 6.21973H81.9997L76.8811 12.9437L82.0773 20.0087Z" fill="black"/>
<path d="M94.963 6.25C98.1439 6.25 99.7677 7.6323 99.7677 9.90561C99.7677 11.2046 98.8101 12.4121 97.5444 12.7368C98.96 12.9866 100.184 14.3273 100.184 16.1426C100.184 18.5742 98.3854 20.0314 94.9213 20.0314H90V6.25H94.963ZM91.9569 7.7239V12.0707H95.2294C96.9115 12.0707 97.7942 11.188 97.7942 9.90561C97.7942 8.54829 96.8199 7.7239 95.1129 7.7239H91.9569ZM91.9569 13.5612V18.4409H95.2128C97.203 18.4409 98.1606 17.6165 98.1606 16.1426C98.1606 14.4606 97.1863 13.5612 95.2877 13.5612H91.9569Z" fill="black"/>
<path d="M106.263 9.78906C108.986 9.78906 111.168 11.4711 111.168 15.0518C111.168 18.5409 109.061 20.3146 106.246 20.3146C103.474 20.3146 101.342 18.4992 101.342 15.0518C101.342 11.4795 103.557 9.78906 106.263 9.78906ZM106.28 18.8323C108.045 18.8323 109.244 17.5333 109.244 15.0601C109.244 12.5287 107.962 11.2879 106.255 11.2879C104.548 11.2879 103.249 12.5703 103.249 15.0601C103.257 17.525 104.556 18.8323 106.28 18.8323Z" fill="black"/>
<path d="M117.229 20.1312C116.73 20.2644 116.33 20.3227 115.872 20.3227C114.107 20.3227 113.207 19.2152 113.207 17.5664V11.6458H111.733V10.0803H113.207L113.324 7.69043H115.048V10.0803H117.196V11.6541H115.048V17.608C115.048 18.3575 115.414 18.7156 116.097 18.7156C116.422 18.7156 116.671 18.6989 117.229 18.5657V20.1312Z" fill="black"/>
<path d="M128.805 6.25C131.986 6.25 133.61 7.6323 133.61 9.90561C133.61 11.2046 132.652 12.4121 131.386 12.7368C132.802 12.9866 134.026 14.3273 134.026 16.1426C134.026 18.5742 132.227 20.0314 128.763 20.0314H123.842V6.25H128.805ZM125.799 7.7239V12.0707H129.071C130.753 12.0707 131.636 11.188 131.636 9.90561C131.636 8.54829 130.662 7.7239 128.955 7.7239H125.799ZM125.799 13.5612V18.4409H129.055C131.045 18.4409 132.002 17.6165 132.002 16.1426C132.002 14.4606 131.028 13.5612 129.13 13.5612H125.799Z" fill="black"/>
<path d="M137.498 10.0801V16.6086C137.498 18.0825 138.281 18.757 139.564 18.757C141.229 18.757 142.012 17.5162 142.012 16.1506V10.0801H143.852V20.0393H142.337L142.128 18.8902C141.421 19.8478 140.346 20.3225 139.139 20.3225C137.09 20.3225 135.658 19.115 135.658 16.5669V10.0801H137.498Z" fill="black"/>
<path d="M145.941 8.41505V6.25H148.007V8.41505H145.941ZM146.058 20.0397V10.0805H147.898V20.0397H146.058Z" fill="black"/>
<path d="M151.937 20.0397H150.097V6.25H151.937V20.0397Z" fill="black"/>
<path d="M161.605 20.0397L161.28 18.6408C160.605 19.615 159.514 20.3229 157.966 20.3229C155.459 20.3229 153.561 18.4826 153.561 15.1184C153.561 11.5544 155.417 9.79736 158.082 9.79736C159.598 9.79736 160.63 10.4469 161.28 11.3462V6.25H163.12V20.0397H161.605ZM158.374 18.7574C160.272 18.7574 161.38 17.2668 161.38 15.1767C161.38 12.7452 160.214 11.3629 158.374 11.3629C156.633 11.3629 155.484 12.5536 155.484 15.1517C155.476 17.5499 156.708 18.7574 158.374 18.7574Z" fill="black"/>
<path d="M174.096 17.1674C173.596 18.9827 172.031 20.3233 169.633 20.3233C166.801 20.3233 164.753 18.558 164.753 15.0606C164.753 11.5965 166.785 9.79785 169.541 9.79785C172.297 9.79785 174.213 11.4466 174.213 15.4686H166.627C166.776 17.7669 168.025 18.7828 169.691 18.7828C170.898 18.7828 171.814 18.0917 172.106 17.1757H174.096V17.1674ZM166.701 14.0031H172.331C172.197 12.1461 171.107 11.2634 169.574 11.2634C168.1 11.2634 166.993 12.1711 166.701 14.0031Z" fill="black"/>
<path d="M175.936 20.0398V10.0805H177.451L177.701 11.5544C178.259 10.4053 179.117 9.78906 180.232 9.78906C180.715 9.78906 181.098 9.86401 181.323 9.9223V11.7626C180.957 11.6627 180.599 11.5877 180.157 11.5877C178.892 11.5877 177.784 12.5287 177.784 15.0352V20.0314H175.936V20.0398Z" fill="black"/>
</svg>
