<svg width="378" height="24" viewBox="0 0 378 24" fill="none" xmlns="http://www.w3.org/2000/svg">
<path d="M19.9476 6.21973H23.0852L18.5234 20.0087H14.924L11.5145 9.60331L8.10505 20.0087H4.56179L0 6.21973H3.21095L6.44779 16.6985L9.84432 6.21973H13.2538L16.7064 16.7546L19.9476 6.21973Z" fill="white"/>
<path d="M36.5418 14.2212H26.3651C26.4591 14.9322 26.7258 15.6094 27.142 16.1935C27.5107 16.7045 28.0101 17.107 28.5878 17.3587C29.1762 17.6129 29.8113 17.7408 30.4522 17.7342C31.1626 17.7315 31.8669 17.6029 32.5324 17.3544C33.2224 17.1021 33.8667 16.7392 34.44 16.2798L35.9376 18.4377C35.1739 19.1036 34.2846 19.6098 33.3222 19.9266C32.3337 20.2369 31.3026 20.3898 30.2666 20.3798C28.9906 20.4049 27.7303 20.0954 26.6111 19.4821C25.5525 18.8889 24.6855 18.0054 24.1123 16.9358C23.4957 15.7634 23.1868 14.4536 23.2146 13.1293C23.1882 11.8174 23.4846 10.5191 24.0778 9.34863C24.629 8.28405 25.4698 7.39688 26.5032 6.78937C27.5876 6.16532 28.8216 5.84898 30.0724 5.87442C31.2528 5.84176 32.4175 6.15007 33.4271 6.76242C34.4367 7.37478 35.2484 8.26521 35.7649 9.32705C36.3352 10.5013 36.6191 11.7939 36.5936 13.0991C36.5979 13.3882 36.5806 13.7637 36.5418 14.2212ZM33.5207 11.9338C33.428 10.9888 33.0224 10.1018 32.3684 9.41337C32.0549 9.11952 31.6855 8.89169 31.2821 8.74342C30.8788 8.59514 30.4498 8.52943 30.0206 8.55021C29.5688 8.52953 29.1175 8.59987 28.6934 8.75704C28.2693 8.91422 27.8812 9.15502 27.552 9.46516C26.9002 10.1435 26.484 11.0136 26.3651 11.9467L33.5207 11.9338Z" fill="white"/>
<path d="M49.4162 6.79789C50.466 7.41887 51.3269 8.31407 51.9064 9.38736C52.5261 10.5313 52.8411 11.8154 52.8214 13.1162C52.8412 14.4157 52.5261 15.6983 51.9064 16.8407C51.3268 17.919 50.4627 18.8177 49.4081 19.4393C48.3536 20.061 47.1488 20.3817 45.9247 20.3667C45.0657 20.3847 44.2139 20.2061 43.4345 19.8445C42.7202 19.5001 42.0954 18.9949 41.6089 18.3685V20.0085H38.5879V0.350098H41.6089V7.85957C42.0974 7.23746 42.7219 6.7355 43.4345 6.3922C44.2129 6.02706 45.0652 5.84685 45.9247 5.86568C47.152 5.85066 48.3598 6.17313 49.4162 6.79789ZM47.7676 16.9443C48.3942 16.5591 48.8986 16.0038 49.222 15.3432C49.554 14.6469 49.7263 13.8854 49.7263 13.114C49.7263 12.3427 49.554 11.5812 49.222 10.8849C48.8972 10.2252 48.3932 9.6703 47.7676 9.28378C47.1026 8.90338 46.3499 8.70327 45.5838 8.70327C44.8177 8.70327 44.0649 8.90338 43.4 9.28378C42.7728 9.66465 42.2645 10.2133 41.9326 10.8677C41.5737 11.5667 41.3928 12.3435 41.4061 13.1292C41.3924 13.9135 41.5733 14.689 41.9326 15.3863C42.2645 16.0407 42.7728 16.5893 43.4 16.9702C44.0649 17.3506 44.8177 17.5507 45.5838 17.5507C46.3499 17.5507 47.1026 17.3506 47.7676 16.9702V16.9443Z" fill="white"/>
<path d="M67.7272 14.2212H57.5549C57.6488 14.9322 57.9155 15.6094 58.3317 16.1935C58.7004 16.7046 59.1998 17.1071 59.7775 17.3588C60.3659 17.6129 61.001 17.7408 61.6419 17.7342C62.3523 17.7309 63.0565 17.6023 63.7221 17.3545C64.4121 17.1022 65.0564 16.7392 65.6297 16.2798L67.123 18.4377C66.3615 19.1044 65.4735 19.6108 64.5119 19.9267C63.5219 20.2367 62.4894 20.3896 61.452 20.3798C60.1762 20.4036 58.9163 20.0942 57.7966 19.4821C56.7401 18.8875 55.8749 18.0043 55.302 16.9358C54.6841 15.7638 54.3737 14.454 54.4 13.1293C54.3738 11.8174 54.6702 10.5192 55.2632 9.34866C55.8144 8.28408 56.6552 7.39691 57.6887 6.7894C58.7792 6.15625 60.023 5.83524 61.2837 5.86151C62.4638 5.83045 63.6279 6.13943 64.6372 6.75161C65.6465 7.36378 66.4585 8.25331 66.9763 9.31414C67.5465 10.4884 67.8304 11.781 67.8049 13.0861C67.7876 13.3882 67.7574 13.7637 67.7272 14.2212ZM64.7061 11.9338C64.6066 10.9949 64.2 10.115 63.5495 9.43066C63.2381 9.1352 62.8707 8.90507 62.469 8.75386C62.0672 8.60265 61.6393 8.53342 61.2104 8.55024C60.7585 8.52907 60.307 8.59917 59.8829 8.75638C59.4587 8.91358 59.0706 9.15465 58.7417 9.46519C58.0884 10.1424 57.672 11.0131 57.5549 11.9468L64.7061 11.9338Z" fill="white"/>
<path d="M82.0773 20.0087H78.3787L74.8829 15.2138L71.4303 20.0087H67.9043L73.0832 12.9696L67.9863 6.21973H71.6892L75.0556 10.8247L78.4219 6.21973H81.9997L76.8811 12.9437L82.0773 20.0087Z" fill="white"/>
<path d="M98.0342 13.8067H91.9545V18.3561H98.5914V20.0028H90V6.22998H98.5831V7.87673H91.9545V12.2015H98.0342V13.8067Z" fill="white"/>
<path d="M108.704 10.0562L105.202 20.0032H102.716L99.2559 10.0562H101.269L104.021 18.5062L106.791 10.0562H108.704Z" fill="white"/>
<path d="M118.136 17.1334C117.637 18.9465 116.074 20.2856 113.678 20.2856C110.851 20.2856 108.805 18.5224 108.805 15.0293C108.805 11.5694 110.834 9.77295 113.587 9.77295C116.34 9.77295 118.253 11.4197 118.253 15.4368H110.676C110.826 17.7323 112.073 18.7469 113.737 18.7469C114.943 18.7469 115.857 18.0566 116.149 17.1418H118.136V17.1334ZM110.751 13.973H116.373C116.24 12.1183 115.151 11.2367 113.62 11.2367C112.148 11.2367 111.042 12.1433 110.751 13.973Z" fill="white"/>
<path d="M119.975 20.0028V10.0557H121.488L121.696 11.3199C122.42 10.3052 123.534 9.77295 124.715 9.77295C126.878 9.77295 128.233 11.0953 128.233 13.5239V20.0111H126.395V13.5322C126.395 12.0435 125.63 11.3365 124.274 11.3365C122.952 11.3365 121.804 12.293 121.804 13.8649V20.0028H119.975Z" fill="white"/>
<path d="M134.778 20.094C134.279 20.227 133.88 20.2852 133.423 20.2852C131.659 20.2852 130.761 19.1791 130.761 17.5323V11.619H129.289V10.0554H130.761L130.878 7.66846H132.599V10.0554H134.745V11.6273H132.599V17.5739C132.599 18.3224 132.965 18.6801 133.647 18.6801C133.972 18.6801 134.221 18.6634 134.778 18.5304V20.094Z" fill="white"/>
<path d="M138.953 15.47C136.616 14.9544 135.684 14.0728 135.684 12.6007C135.684 10.8957 137.04 9.77295 139.552 9.77295C141.772 9.77295 143.303 10.8625 143.627 12.6839H141.756C141.531 11.7607 140.783 11.2201 139.519 11.2201C138.138 11.2201 137.531 11.7357 137.531 12.4261C137.531 13.1912 137.93 13.5322 139.843 13.9564C142.155 14.472 143.685 15.1207 143.685 17.1667C143.685 18.9798 142.172 20.2856 139.535 20.2856C137.048 20.2856 135.427 19.063 135.252 17.1501H137.123C137.331 18.3394 138.155 18.8301 139.552 18.8301C141.041 18.8301 141.831 18.1647 141.831 17.2998C141.839 16.1354 140.724 15.8693 138.953 15.47Z" fill="white"/>
</svg>
