<svg width="378" height="24" viewBox="0 0 378 24" fill="none" xmlns="http://www.w3.org/2000/svg">
<path d="M19.9476 6.21973H23.0852L18.5234 20.0087H14.924L11.5145 9.60331L8.10505 20.0087H4.56179L0 6.21973H3.21095L6.44779 16.6985L9.84432 6.21973H13.2538L16.7064 16.7546L19.9476 6.21973Z" fill="white"/>
<path d="M36.5418 14.2212H26.3651C26.4591 14.9322 26.7258 15.6094 27.142 16.1935C27.5107 16.7045 28.0101 17.107 28.5878 17.3587C29.1762 17.6129 29.8113 17.7408 30.4522 17.7342C31.1626 17.7315 31.8669 17.6029 32.5324 17.3544C33.2224 17.1021 33.8667 16.7392 34.44 16.2798L35.9376 18.4377C35.1739 19.1036 34.2846 19.6098 33.3222 19.9266C32.3337 20.2369 31.3026 20.3898 30.2666 20.3798C28.9906 20.4049 27.7303 20.0954 26.6111 19.4821C25.5525 18.8889 24.6855 18.0054 24.1123 16.9358C23.4957 15.7634 23.1868 14.4536 23.2146 13.1293C23.1882 11.8174 23.4846 10.5191 24.0778 9.34863C24.629 8.28405 25.4698 7.39688 26.5032 6.78937C27.5876 6.16532 28.8216 5.84898 30.0724 5.87442C31.2528 5.84176 32.4175 6.15007 33.4271 6.76242C34.4367 7.37478 35.2484 8.26521 35.7649 9.32705C36.3352 10.5013 36.6191 11.7939 36.5936 13.0991C36.5979 13.3882 36.5806 13.7637 36.5418 14.2212ZM33.5207 11.9338C33.428 10.9888 33.0224 10.1018 32.3684 9.41337C32.0549 9.11952 31.6855 8.89169 31.2821 8.74342C30.8788 8.59514 30.4498 8.52943 30.0206 8.55021C29.5688 8.52953 29.1175 8.59987 28.6934 8.75704C28.2693 8.91422 27.8812 9.15503 27.552 9.46516C26.9002 10.1435 26.484 11.0136 26.3651 11.9467L33.5207 11.9338Z" fill="white"/>
<path d="M49.4162 6.79789C50.466 7.41887 51.3269 8.31407 51.9064 9.38736C52.5261 10.5313 52.8411 11.8154 52.8214 13.1162C52.8412 14.4157 52.5261 15.6983 51.9064 16.8407C51.3268 17.919 50.4627 18.8177 49.4081 19.4393C48.3536 20.061 47.1488 20.3817 45.9247 20.3667C45.0657 20.3847 44.2139 20.2061 43.4345 19.8445C42.7202 19.5001 42.0954 18.9949 41.6089 18.3685V20.0085H38.5879V0.350098H41.6089V7.85957C42.0974 7.23746 42.7219 6.7355 43.4345 6.3922C44.2129 6.02706 45.0652 5.84685 45.9247 5.86568C47.152 5.85066 48.3598 6.17313 49.4162 6.79789ZM47.7676 16.9443C48.3942 16.5591 48.8986 16.0038 49.222 15.3432C49.554 14.6469 49.7263 13.8854 49.7263 13.114C49.7263 12.3427 49.554 11.5812 49.222 10.8849C48.8972 10.2252 48.3932 9.67029 47.7676 9.28378C47.1026 8.90338 46.3499 8.70327 45.5838 8.70327C44.8177 8.70327 44.0649 8.90338 43.4 9.28378C42.7728 9.66465 42.2645 10.2133 41.9326 10.8677C41.5737 11.5667 41.3928 12.3435 41.4061 13.1292C41.3924 13.9135 41.5733 14.689 41.9326 15.3863C42.2645 16.0407 42.7728 16.5893 43.4 16.9702C44.0649 17.3506 44.8177 17.5507 45.5838 17.5507C46.3499 17.5507 47.1026 17.3506 47.7676 16.9702V16.9443Z" fill="white"/>
<path d="M67.7272 14.2212H57.5549C57.6488 14.9322 57.9155 15.6094 58.3317 16.1935C58.7004 16.7046 59.1998 17.1071 59.7775 17.3588C60.3659 17.6129 61.001 17.7408 61.6419 17.7342C62.3523 17.7309 63.0565 17.6023 63.7221 17.3545C64.4121 17.1022 65.0564 16.7392 65.6297 16.2798L67.123 18.4377C66.3615 19.1044 65.4735 19.6108 64.5119 19.9267C63.5219 20.2367 62.4894 20.3896 61.452 20.3798C60.1762 20.4036 58.9163 20.0942 57.7966 19.4821C56.7401 18.8875 55.8749 18.0043 55.302 16.9358C54.6841 15.7638 54.3737 14.454 54.4 13.1293C54.3738 11.8174 54.6702 10.5192 55.2632 9.34866C55.8144 8.28408 56.6552 7.39691 57.6887 6.7894C58.7792 6.15625 60.023 5.83524 61.2837 5.86151C62.4638 5.83045 63.6279 6.13943 64.6372 6.75161C65.6465 7.36378 66.4585 8.25331 66.9763 9.31414C67.5465 10.4884 67.8304 11.781 67.8049 13.0861C67.7876 13.3882 67.7574 13.7637 67.7272 14.2212ZM64.7061 11.9338C64.6066 10.9949 64.2 10.115 63.5495 9.43066C63.2381 9.1352 62.8707 8.90507 62.469 8.75386C62.0672 8.60265 61.6393 8.53342 61.2104 8.55024C60.7585 8.52907 60.307 8.59917 59.8829 8.75638C59.4587 8.91358 59.0706 9.15465 58.7417 9.46519C58.0884 10.1424 57.672 11.0131 57.5549 11.9468L64.7061 11.9338Z" fill="white"/>
<path d="M82.0773 20.0087H78.3787L74.8829 15.2138L71.4303 20.0087H67.9043L73.0832 12.9696L67.9863 6.21973H71.6892L75.0556 10.8247L78.4219 6.21973H81.9997L76.8811 12.9437L82.0773 20.0087Z" fill="white"/>
<path d="M101.305 20.0137L99.9452 16.5374H93.4259L92.0152 20.0137H90L95.6225 6.25977H97.8191L103.502 20.0137H101.305ZM94.0204 14.9756H99.3104L96.6906 8.22461L94.0204 14.9756Z" fill="white"/>
<path d="M106.281 10.0791L106.563 11.3789C106.938 10.9066 107.409 10.5186 107.944 10.2403C108.568 9.9277 109.261 9.77534 109.959 9.79694C110.57 9.78771 111.178 9.90432 111.742 10.1395C112.278 10.3623 112.754 10.7074 113.133 11.1471C113.534 11.6269 113.835 12.1818 114.019 12.7795C114.241 13.4936 114.347 14.2386 114.332 14.9862C114.345 15.7615 114.233 16.5339 113.999 17.2734C113.807 17.8871 113.488 18.4535 113.062 18.936C112.662 19.3697 112.175 19.7132 111.631 19.9436C111.06 20.1801 110.446 20.3 109.828 20.2963C109.156 20.3169 108.489 20.1642 107.893 19.8529C107.39 19.5822 106.958 19.1953 106.634 18.7244V23.4501H104.8V10.0791H106.281ZM112.397 14.9358C112.404 14.3969 112.329 13.8602 112.176 13.3437C112.045 12.9346 111.836 12.5548 111.561 12.2253C111.311 11.9384 110.997 11.7141 110.644 11.5703C110.282 11.4271 109.895 11.3552 109.505 11.3587C109.108 11.359 108.714 11.4378 108.347 11.5905C107.987 11.7411 107.663 11.968 107.399 12.2555C107.103 12.5766 106.879 12.9582 106.745 13.374C106.576 13.877 106.494 14.4052 106.503 14.9358C106.443 15.9404 106.735 16.9343 107.329 17.747C107.589 18.0719 107.921 18.3319 108.299 18.5068C108.676 18.6816 109.089 18.7665 109.505 18.7546C109.901 18.7695 110.295 18.6948 110.658 18.536C111.021 18.3772 111.343 18.1385 111.601 17.8377C112.203 16.9958 112.485 15.967 112.397 14.9358Z" fill="white"/>
<path d="M117.44 10.0789L117.722 11.3787C118.1 10.9087 118.569 10.5211 119.103 10.2401C119.728 9.92868 120.42 9.77639 121.118 9.79672C121.733 9.78755 122.343 9.90413 122.911 10.1393C123.443 10.365 123.915 10.7098 124.292 11.1469C124.693 11.6267 124.994 12.1816 125.179 12.7793C125.404 13.4928 125.513 14.2378 125.501 14.9859C125.511 15.7619 125.395 16.5343 125.158 17.2732C124.966 17.8869 124.647 18.4533 124.221 18.9358C123.824 19.3724 123.336 19.7164 122.791 19.9434C122.219 20.1799 121.606 20.2998 120.987 20.2961C120.315 20.3167 119.648 20.164 119.052 19.8527C118.551 19.5792 118.12 19.1929 117.793 18.7242V23.4499H115.929V10.0789H117.44ZM123.556 14.9356C123.568 14.3964 123.493 13.8589 123.335 13.3435C123.208 12.9327 122.999 12.5521 122.72 12.2251C122.47 11.9382 122.156 11.7139 121.803 11.5701C121.07 11.2705 120.249 11.2705 119.516 11.5701C119.135 11.7138 118.79 11.9411 118.508 12.2351C118.216 12.5591 117.993 12.9398 117.853 13.3536C117.693 13.8584 117.615 14.3858 117.622 14.9154C117.558 15.9189 117.847 16.913 118.438 17.7267C118.699 18.0497 119.032 18.3086 119.409 18.4832C119.786 18.6579 120.198 18.7438 120.614 18.7343C121.01 18.7499 121.404 18.6755 121.767 18.5167C122.13 18.3578 122.453 18.1187 122.71 17.8173C123.329 16.9896 123.63 15.9666 123.556 14.9356Z" fill="white"/>
<path d="M144.56 6.25977V20.0137H142.545V13.8874H135.814V20.0137H133.92V6.25977H135.865V12.2349H142.595V6.25977H144.56Z" fill="white"/>
<path d="M148.223 10.0601V16.6297C148.198 16.923 148.233 17.2183 148.326 17.4974C148.42 17.7765 148.57 18.0333 148.767 18.252C149.188 18.6156 149.734 18.8001 150.289 18.7659C150.664 18.7778 151.036 18.7018 151.377 18.5442C151.666 18.4114 151.923 18.2191 152.133 17.9799C152.332 17.734 152.486 17.4541 152.586 17.1537C152.69 16.8282 152.741 16.4879 152.737 16.1461V10.1004H154.571V20.0354H153.06L152.888 18.8565C152.554 19.3212 152.107 19.6924 151.588 19.9347C151.059 20.1719 150.485 20.2922 149.906 20.2874C149.429 20.2907 148.955 20.2123 148.505 20.0556C148.091 19.9141 147.716 19.6797 147.407 19.3704C147.084 19.0392 146.84 18.6398 146.691 18.2016C146.508 17.6668 146.42 17.1042 146.429 16.539V10.0601H148.223Z" fill="white"/>
<path d="M156.429 20.0137V6.25977H158.273V11.4591C158.609 10.9579 159.062 10.5464 159.593 10.26C160.213 9.93287 160.907 9.77311 161.608 9.79649C162.219 9.78841 162.826 9.90498 163.391 10.1391C163.924 10.3622 164.397 10.7074 164.772 11.1467C165.176 11.6258 165.481 12.1807 165.669 12.779C165.89 13.4931 165.996 14.2382 165.981 14.9857C165.994 15.7611 165.882 16.5335 165.648 17.273C165.456 17.8867 165.137 18.4531 164.711 18.9356C164.311 19.3693 163.824 19.7128 163.28 19.9432C162.706 20.1807 162.089 20.3007 161.467 20.2958C160.793 20.3181 160.126 20.1616 159.532 19.8424C159.012 19.5572 158.567 19.1533 158.232 18.6635L157.94 19.9835L156.429 20.0137ZM164.056 14.9756C164.068 14.4365 163.993 13.899 163.835 13.3836C163.712 12.9734 163.506 12.5927 163.23 12.2652C162.978 11.9804 162.664 11.7565 162.313 11.6102C161.951 11.4669 161.564 11.3951 161.175 11.3986C160.777 11.3989 160.383 11.4776 160.016 11.6304C159.653 11.7806 159.326 12.0074 159.059 12.2954C158.769 12.6201 158.55 13.0008 158.414 13.4138C158.245 13.9169 158.163 14.4451 158.172 14.9756C158.107 15.9808 158.4 16.9765 158.998 17.7869C159.258 18.1117 159.59 18.3718 159.968 18.5466C160.346 18.7215 160.759 18.8063 161.175 18.7945C161.57 18.8094 161.965 18.7346 162.327 18.5759C162.69 18.4171 163.013 18.1784 163.27 17.8776C163.877 17.0231 164.156 15.9786 164.056 14.9353V14.9756Z" fill="white"/>
</svg>
