<svg width="287" height="41" viewBox="0 0 287 41" fill="none" xmlns="http://www.w3.org/2000/svg">
<g clip-path="url(#clip0_24153_662)">
<path d="M149.444 25.2998H146.909V15.3311C146.909 14.5146 146.959 13.5156 147.06 12.334H147.017C146.859 13.0072 146.719 13.4906 146.598 13.7842L142 25.2998H140.238L135.63 13.8701C135.501 13.5335 135.365 13.0215 135.222 12.334H135.179C135.236 12.9499 135.265 13.9561 135.265 15.3525V25.2998H132.901V9.89551H136.5L140.55 20.1543C140.858 20.9421 141.058 21.5293 141.151 21.916H141.205C141.47 21.1068 141.685 20.5052 141.85 20.1113L145.975 9.89551H149.444V25.2998Z" fill="black"/>
<path d="M153.725 11.9902C153.316 11.9902 152.965 11.8577 152.672 11.5928C152.385 11.3278 152.242 10.9912 152.242 10.583C152.242 10.1748 152.385 9.83464 152.672 9.5625C152.965 9.29036 153.316 9.1543 153.725 9.1543C154.147 9.1543 154.505 9.29036 154.799 9.5625C155.092 9.83464 155.239 10.1748 155.239 10.583C155.239 10.9697 155.092 11.3027 154.799 11.582C154.505 11.8542 154.147 11.9902 153.725 11.9902ZM154.96 25.2998H152.468V14.2998H154.96V25.2998Z" fill="black"/>
<path d="M165.6 24.7949C164.719 25.3034 163.677 25.5576 162.474 25.5576C160.841 25.5576 159.523 25.0492 158.521 24.0322C157.518 23.0081 157.017 21.6833 157.017 20.0576C157.017 18.2458 157.554 16.792 158.628 15.6963C159.709 14.5934 161.152 14.042 162.957 14.042C163.96 14.042 164.844 14.2174 165.61 14.5684V16.8887C164.844 16.3158 164.028 16.0293 163.161 16.0293C162.108 16.0293 161.245 16.3874 160.572 17.1035C159.899 17.8125 159.562 18.7435 159.562 19.8965C159.562 21.0352 159.878 21.9339 160.508 22.5928C161.145 23.2516 161.997 23.5811 163.064 23.5811C163.96 23.5811 164.805 23.2624 165.6 22.625V24.7949Z" fill="black"/>
<path d="M173.962 16.6738C173.661 16.4375 173.228 16.3193 172.662 16.3193C171.924 16.3193 171.309 16.6523 170.814 17.3184C170.32 17.9844 170.073 18.8903 170.073 20.0361V25.2998H167.581V14.2998H170.073V16.5664H170.116C170.36 15.793 170.732 15.1914 171.233 14.7617C171.742 14.3249 172.308 14.1064 172.931 14.1064C173.382 14.1064 173.726 14.1745 173.962 14.3105V16.6738Z" fill="black"/>
<path d="M179.907 25.5576C178.21 25.5576 176.853 25.0456 175.836 24.0215C174.826 22.9902 174.321 21.626 174.321 19.9287C174.321 18.0811 174.848 16.638 175.9 15.5996C176.96 14.5612 178.385 14.042 180.176 14.042C181.895 14.042 183.234 14.5469 184.193 15.5566C185.153 16.5664 185.633 17.9665 185.633 19.7568C185.633 21.5114 185.114 22.9186 184.075 23.9785C183.044 25.0312 181.655 25.5576 179.907 25.5576ZM180.025 16.0293C179.051 16.0293 178.282 16.3695 177.716 17.0498C177.15 17.7301 176.867 18.6683 176.867 19.8643C176.867 21.0173 177.154 21.9268 177.727 22.5928C178.299 23.2516 179.066 23.5811 180.025 23.5811C181.007 23.5811 181.758 23.2552 182.281 22.6035C182.811 21.9518 183.076 21.0244 183.076 19.8213C183.076 18.611 182.811 17.6764 182.281 17.0176C181.758 16.3587 181.007 16.0293 180.025 16.0293Z" fill="black"/>
<path d="M186.991 24.9561V22.6465C187.922 23.3555 188.95 23.71 190.074 23.71C191.578 23.71 192.33 23.266 192.33 22.3779C192.33 22.1273 192.266 21.916 192.137 21.7441C192.008 21.5651 191.832 21.4076 191.61 21.2715C191.396 21.1354 191.138 21.0137 190.837 20.9062C190.543 20.7988 190.214 20.6771 189.849 20.541C189.397 20.362 188.989 20.1722 188.624 19.9717C188.266 19.7712 187.965 19.5456 187.722 19.2949C187.485 19.0371 187.306 18.7471 187.185 18.4248C187.063 18.1025 187.002 17.7266 187.002 17.2969C187.002 16.7669 187.127 16.3014 187.378 15.9004C187.629 15.4922 187.965 15.152 188.388 14.8799C188.81 14.6006 189.29 14.3929 189.827 14.2568C190.364 14.1136 190.919 14.042 191.492 14.042C192.509 14.042 193.419 14.196 194.221 14.5039V16.6846C193.447 16.1546 192.559 15.8896 191.557 15.8896C191.242 15.8896 190.955 15.9219 190.697 15.9863C190.447 16.0508 190.232 16.1403 190.053 16.2549C189.874 16.3695 189.734 16.5091 189.634 16.6738C189.534 16.8314 189.483 17.0068 189.483 17.2002C189.483 17.4365 189.534 17.637 189.634 17.8018C189.734 17.9665 189.881 18.1133 190.074 18.2422C190.275 18.3639 190.511 18.4785 190.783 18.5859C191.062 18.6862 191.381 18.7972 191.739 18.9189C192.212 19.1123 192.634 19.3092 193.007 19.5098C193.386 19.7103 193.709 19.9395 193.974 20.1973C194.239 20.4479 194.443 20.7415 194.586 21.0781C194.729 21.4076 194.801 21.8014 194.801 22.2598C194.801 22.8184 194.672 23.3053 194.414 23.7207C194.156 24.1361 193.812 24.4798 193.383 24.752C192.953 25.0241 192.455 25.2246 191.89 25.3535C191.331 25.4896 190.74 25.5576 190.117 25.5576C188.914 25.5576 187.872 25.3571 186.991 24.9561Z" fill="black"/>
<path d="M201.552 25.5576C199.854 25.5576 198.497 25.0456 197.48 24.0215C196.471 22.9902 195.966 21.626 195.966 19.9287C195.966 18.0811 196.492 16.638 197.545 15.5996C198.605 14.5612 200.03 14.042 201.82 14.042C203.539 14.042 204.878 14.5469 205.838 15.5566C206.798 16.5664 207.277 17.9665 207.277 19.7568C207.277 21.5114 206.758 22.9186 205.72 23.9785C204.688 25.0312 203.299 25.5576 201.552 25.5576ZM201.67 16.0293C200.696 16.0293 199.926 16.3695 199.36 17.0498C198.795 17.7301 198.512 18.6683 198.512 19.8643C198.512 21.0173 198.798 21.9268 199.371 22.5928C199.944 23.2516 200.71 23.5811 201.67 23.5811C202.651 23.5811 203.403 23.2552 203.926 22.6035C204.456 21.9518 204.721 21.0244 204.721 19.8213C204.721 18.611 204.456 17.6764 203.926 17.0176C203.403 16.3587 202.651 16.0293 201.67 16.0293Z" fill="black"/>
<path d="M215.543 11.0449C215.206 10.8516 214.823 10.7549 214.394 10.7549C213.183 10.7549 212.578 11.4388 212.578 12.8066V14.2998H215.135V16.2549H212.589V25.2998H210.097V16.2549H208.217V14.2998H210.097V12.5166C210.097 11.3564 210.476 10.4434 211.235 9.77734C211.994 9.10417 212.943 8.76758 214.082 8.76758C214.698 8.76758 215.185 8.83561 215.543 8.97168V11.0449Z" fill="black"/>
<path d="M221.708 25.1816C221.221 25.4251 220.58 25.5469 219.785 25.5469C217.651 25.5469 216.584 24.5228 216.584 22.4746V16.2549H214.747V14.2998H216.584V11.7539L219.076 11.0449V14.2998H221.708V16.2549H219.076V21.7549C219.076 22.4066 219.194 22.8721 219.431 23.1514C219.667 23.4307 220.061 23.5703 220.612 23.5703C221.035 23.5703 221.4 23.4486 221.708 23.2051V25.1816Z" fill="black"/>
<path d="M239.077 12.0654H234.651V25.2998H232.095V12.0654H227.68V9.89551H239.077V12.0654Z" fill="black"/>
<path d="M247.719 20.4766H240.221C240.249 21.4935 240.561 22.2777 241.155 22.8291C241.757 23.3805 242.58 23.6562 243.626 23.6562C244.8 23.6562 245.878 23.3053 246.859 22.6035V24.6123C245.857 25.2425 244.532 25.5576 242.885 25.5576C241.266 25.5576 239.995 25.0599 239.071 24.0645C238.155 23.0618 237.696 21.6546 237.696 19.8428C237.696 18.1312 238.201 16.7383 239.211 15.6641C240.228 14.5827 241.488 14.042 242.992 14.042C244.496 14.042 245.66 14.5254 246.483 15.4922C247.307 16.459 247.719 17.8018 247.719 19.5205V20.4766ZM245.312 18.7148C245.305 17.8197 245.094 17.125 244.679 16.6309C244.263 16.1296 243.69 15.8789 242.96 15.8789C242.244 15.8789 241.635 16.1403 241.134 16.6631C240.64 17.1859 240.335 17.8698 240.221 18.7148H245.312Z" fill="black"/>
<path d="M258.036 25.2998H255.619V23.5811H255.576C254.817 24.8988 253.703 25.5576 252.235 25.5576C251.154 25.5576 250.305 25.264 249.689 24.6768C249.081 24.0895 248.776 23.3125 248.776 22.3457C248.776 20.2689 249.972 19.0586 252.364 18.7148L255.63 18.2529C255.63 16.6846 254.885 15.9004 253.396 15.9004C252.085 15.9004 250.903 16.3516 249.851 17.2539V15.0732C251.011 14.3857 252.35 14.042 253.868 14.042C256.647 14.042 258.036 15.4098 258.036 18.1455V25.2998ZM255.63 19.8965L253.32 20.2188C252.604 20.3118 252.063 20.4873 251.698 20.7451C251.34 20.9958 251.161 21.4398 251.161 22.0771C251.161 22.5426 251.326 22.9258 251.655 23.2266C251.992 23.5202 252.439 23.667 252.998 23.667C253.757 23.667 254.384 23.402 254.878 22.8721C255.379 22.335 255.63 21.6618 255.63 20.8525V19.8965Z" fill="black"/>
<path d="M277.033 25.2998H274.541V19.3057C274.541 18.1527 274.376 17.3184 274.047 16.8027C273.725 16.2871 273.177 16.0293 272.403 16.0293C271.752 16.0293 271.197 16.3551 270.738 17.0068C270.287 17.6585 270.062 18.4391 270.062 19.3486V25.2998H267.559V19.1016C267.559 17.0534 266.835 16.0293 265.389 16.0293C264.715 16.0293 264.16 16.3372 263.724 16.9531C263.294 17.569 263.079 18.3675 263.079 19.3486V25.2998H260.587V14.2998H263.079V16.04H263.122C263.917 14.708 265.074 14.042 266.592 14.042C267.351 14.042 268.013 14.2533 268.579 14.6758C269.152 15.0911 269.542 15.639 269.75 16.3193C270.566 14.8011 271.784 14.042 273.402 14.042C275.823 14.042 277.033 15.5352 277.033 18.5215V25.2998Z" fill="black"/>
<path d="M278.886 24.9561V22.6465C279.817 23.3555 280.844 23.71 281.969 23.71C283.473 23.71 284.225 23.266 284.225 22.3779C284.225 22.1273 284.16 21.916 284.031 21.7441C283.902 21.5651 283.727 21.4076 283.505 21.2715C283.29 21.1354 283.032 21.0137 282.731 20.9062C282.438 20.7988 282.108 20.6771 281.743 20.541C281.292 20.362 280.884 20.1722 280.519 19.9717C280.16 19.7712 279.86 19.5456 279.616 19.2949C279.38 19.0371 279.201 18.7471 279.079 18.4248C278.957 18.1025 278.896 17.7266 278.896 17.2969C278.896 16.7669 279.022 16.3014 279.272 15.9004C279.523 15.4922 279.86 15.152 280.282 14.8799C280.705 14.6006 281.185 14.3929 281.722 14.2568C282.259 14.1136 282.814 14.042 283.387 14.042C284.404 14.042 285.313 14.196 286.115 14.5039V16.6846C285.342 16.1546 284.454 15.8896 283.451 15.8896C283.136 15.8896 282.85 15.9219 282.592 15.9863C282.341 16.0508 282.126 16.1403 281.947 16.2549C281.768 16.3695 281.629 16.5091 281.528 16.6738C281.428 16.8314 281.378 17.0068 281.378 17.2002C281.378 17.4365 281.428 17.637 281.528 17.8018C281.629 17.9665 281.775 18.1133 281.969 18.2422C282.169 18.3639 282.406 18.4785 282.678 18.5859C282.957 18.6862 283.276 18.7972 283.634 18.9189C284.106 19.1123 284.529 19.3092 284.901 19.5098C285.281 19.7103 285.603 19.9395 285.868 20.1973C286.133 20.4479 286.337 20.7415 286.48 21.0781C286.624 21.4076 286.695 21.8014 286.695 22.2598C286.695 22.8184 286.566 23.3053 286.309 23.7207C286.051 24.1361 285.707 24.4798 285.277 24.752C284.848 25.0241 284.35 25.2246 283.784 25.3535C283.226 25.4896 282.635 25.5576 282.012 25.5576C280.809 25.5576 279.767 25.3571 278.886 24.9561Z" fill="black"/>
<path d="M114.12 0.299805L114.09 32.4198" stroke="black" stroke-width="3" stroke-miterlimit="10"/>
<path d="M79.9772 33.2002H78.6592V38.4502H79.9772V33.2002Z" fill="black"/>
<path d="M90.6585 34.7046C90.3176 34.5189 89.9353 34.4227 89.547 34.4249C88.6889 34.4249 88.0943 35.0209 88.0943 35.8249C88.0943 36.6055 88.664 37.2264 89.547 37.2264C89.935 37.2278 90.317 37.1322 90.6585 36.9481V38.3569C90.2675 38.4774 89.861 38.5401 89.4518 38.5429C87.9625 38.5429 86.6562 37.5178 86.6562 35.8249C86.6562 34.258 87.8395 33.1084 89.4518 33.1084C89.8612 33.1094 90.2681 33.1727 90.6585 33.2958V34.7046Z" fill="black"/>
<path d="M76.8328 34.7046C76.4915 34.5188 76.1085 34.4226 75.7199 34.4249C74.8617 34.4249 74.2686 35.0209 74.2686 35.8249C74.2686 36.6055 74.8368 37.2264 75.7199 37.2264C76.1083 37.2273 76.4906 37.1316 76.8328 36.9481V38.3569C76.4413 38.4774 76.0343 38.5401 75.6247 38.5429C74.1354 38.5429 72.8291 37.5178 72.8291 35.8249C72.8291 34.258 74.0124 33.1084 75.6247 33.1084C76.0346 33.1094 76.442 33.1725 76.8328 33.2958V34.7046Z" fill="black"/>
<path d="M94.8259 34.444C94.6446 34.4423 94.4649 34.4771 94.2974 34.546C94.1297 34.615 93.9775 34.7169 93.85 34.8457C93.7224 34.9744 93.6218 35.1273 93.5543 35.2955C93.4867 35.4636 93.4536 35.6438 93.4566 35.8249C93.4531 36.0064 93.4861 36.1866 93.5534 36.355C93.6208 36.5234 93.7213 36.6768 93.849 36.8056C93.9767 36.9345 94.129 37.0366 94.2968 37.1056C94.4646 37.1745 94.6444 37.2091 94.8259 37.2073C95.0073 37.209 95.1873 37.1742 95.355 37.1051C95.5228 37.036 95.6751 36.9341 95.8028 36.8052C95.9306 36.6765 96.0313 36.5233 96.0989 36.3549C96.1666 36.1865 96.1998 36.0064 96.1966 35.8249C96.1995 35.6436 96.1661 35.4636 96.0985 35.2954C96.0308 35.1271 95.9301 34.9742 95.8024 34.8455C95.6745 34.7168 95.5224 34.615 95.3547 34.546C95.187 34.4771 95.0072 34.4423 94.8259 34.444ZM97.5995 35.8249C97.5995 37.3274 96.4412 38.5429 94.8259 38.5429C93.2106 38.5429 92.0537 37.3274 92.0537 35.8249C92.0537 34.3224 93.2121 33.1084 94.8259 33.1084C96.4397 33.1084 97.5995 34.3253 97.5995 35.8249Z" fill="black"/>
<path d="M85.001 34.3942C84.6632 34.3013 84.3158 34.2479 83.9657 34.2345C83.4356 34.2345 83.1471 34.4117 83.1471 34.6636C83.1471 34.9843 83.5366 35.1029 83.7533 35.1645L84.1194 35.2801C84.9791 35.554 85.3701 36.1427 85.3701 36.7827C85.3701 38.1006 84.2117 38.54 83.1969 38.54C82.7171 38.5343 82.2387 38.4852 81.7676 38.3935V37.1854C82.1745 37.3033 82.5948 37.3687 83.0182 37.3801C83.6772 37.3801 83.9803 37.1883 83.9803 36.8896C83.9803 36.6245 83.7182 36.4707 83.3946 36.3668L83.1119 36.276C82.3797 36.0431 81.7588 35.6096 81.7588 34.7398C81.7588 33.7586 82.491 33.0996 83.7153 33.0996C84.1503 33.1056 84.5832 33.1617 85.0054 33.2666L85.001 34.3942Z" fill="black"/>
<path d="M63.5755 38.4326H63V33.1943H63.6985V35.1728C63.8382 34.9681 64.028 34.8026 64.2496 34.6919C64.4713 34.5812 64.7176 34.5289 64.9653 34.5401C65.2078 34.5286 65.4494 34.5759 65.6697 34.6779C65.8899 34.7799 66.0823 34.9336 66.2305 35.1259C66.4971 35.4755 66.6303 35.9387 66.6303 36.5157C66.6303 37.1991 66.4487 37.7228 66.0855 38.087C65.9318 38.2392 65.7486 38.3584 65.5471 38.4371C65.3456 38.5159 65.1302 38.5528 64.914 38.5454C64.6737 38.5577 64.4344 38.508 64.219 38.401C64.0036 38.2941 63.8192 38.1334 63.6839 37.9347L63.5755 38.4326ZM65.9025 36.4966C65.9025 36.0211 65.7839 35.6648 65.5466 35.4276C65.45 35.3298 65.3342 35.2532 65.2063 35.2028C65.0785 35.1523 64.9414 35.1291 64.8042 35.1347C64.6431 35.1281 64.4829 35.1595 64.3363 35.2264C64.1898 35.2933 64.0611 35.3939 63.9607 35.5199C63.7529 35.8012 63.6493 36.1459 63.6678 36.4952C63.6678 36.9799 63.7864 37.3519 64.0251 37.6081C64.1229 37.7187 64.244 37.806 64.3798 37.864C64.5155 37.922 64.6624 37.9492 64.81 37.9435C64.9711 37.9526 65.1318 37.9205 65.277 37.8503C65.4223 37.7801 65.5474 37.674 65.6404 37.5422C65.817 37.2962 65.9054 36.9477 65.9054 36.4966H65.9025Z" fill="black"/>
<path d="M70.3725 34.6494L69.0545 38.4833C68.8788 38.9929 68.7114 39.34 68.5522 39.5245C68.4625 39.6304 68.3501 39.7147 68.2233 39.7713C68.0967 39.8278 67.9587 39.855 67.82 39.8511C67.6677 39.8473 67.5163 39.8256 67.369 39.7866V39.2155C67.488 39.2471 67.6105 39.2643 67.7336 39.2668C67.8 39.27 67.8661 39.2575 67.9268 39.2303C67.9873 39.2031 68.0406 39.1619 68.0822 39.1101C68.2157 38.8982 68.321 38.6697 68.3955 38.4306H68.17L66.7803 34.6465H67.5286L68.5991 37.8682L69.6681 34.6465L70.3725 34.6494Z" fill="black"/>
<path d="M23.7425 8.43555H27.477L22.0473 24.8478H17.7632L13.7051 12.4628L9.64699 24.8478H5.42964L0 8.43555H3.82181L7.67444 20.9078L11.7171 8.43555H15.7752L19.8847 20.9746L23.7425 8.43555Z" fill="black"/>
<path d="M43.4935 17.9589H31.3809C31.4926 18.8052 31.8101 19.6113 32.3055 20.3065C32.7443 20.9148 33.3387 21.3938 34.0263 21.6934C34.7266 21.9959 35.4826 22.1482 36.2454 22.1403C37.091 22.1371 37.9293 21.9841 38.7214 21.6883C39.5426 21.388 40.3095 20.956 40.9919 20.4092L42.7744 22.9776C41.8654 23.7702 40.807 24.3728 39.6614 24.7498C38.4849 25.1191 37.2576 25.3012 36.0246 25.2892C34.5058 25.3191 33.0058 24.9508 31.6737 24.2207C30.4136 23.5146 29.3817 22.4631 28.6994 21.19C27.9655 19.7946 27.5979 18.2356 27.631 16.6593C27.5995 15.0978 27.9523 13.5525 28.6583 12.1594C29.3144 10.8923 30.3151 9.83637 31.5452 9.11329C32.8358 8.37053 34.3046 7.994 35.7934 8.02428C37.1983 7.98541 38.5846 8.35237 39.7863 9.08122C40.988 9.81007 41.9541 10.8699 42.5689 12.1338C43.2476 13.5314 43.5856 15.0699 43.5552 16.6234C43.5603 16.9675 43.5398 17.4144 43.4935 17.9589ZM39.8977 15.2364C39.7873 14.1116 39.3047 13.0559 38.5262 12.2365C38.153 11.8867 37.7133 11.6156 37.2333 11.4391C36.7532 11.2626 36.2426 11.1844 35.7318 11.2091C35.194 11.1845 34.6568 11.2682 34.1521 11.4553C33.6473 11.6424 33.1853 11.929 32.7935 12.2981C32.0177 13.1055 31.5224 14.1411 31.3809 15.2518L39.8977 15.2364Z" fill="black"/>
<path d="M58.817 9.12366C60.0666 9.86278 61.0913 10.9283 61.781 12.2058C62.5185 13.5673 62.8935 15.0957 62.87 16.644C62.8936 18.1907 62.5185 19.7174 61.781 21.0771C61.0911 22.3604 60.0627 23.4302 58.8074 24.1701C57.5522 24.91 56.1183 25.2917 54.6613 25.2739C53.6389 25.2953 52.6251 25.0827 51.6974 24.6523C50.8472 24.2423 50.1034 23.641 49.5245 22.8955V24.8475H45.9287V1.44922H49.5245V10.3873C50.1059 9.64686 50.8492 9.0494 51.6974 8.6408C52.6238 8.20619 53.6383 7.9917 54.6613 8.0141C56.1221 7.99623 57.5596 8.38005 58.817 9.12366ZM56.8548 21.2004C57.6006 20.7419 58.2009 20.081 58.5859 19.2946C58.981 18.4659 59.1861 17.5595 59.1861 16.6414C59.1861 15.7234 58.981 14.8169 58.5859 13.9883C58.1993 13.203 57.5994 12.5425 56.8548 12.0825C56.0633 11.6297 55.1673 11.3915 54.2555 11.3915C53.3437 11.3915 52.4477 11.6297 51.6563 12.0825C50.9098 12.5358 50.3048 13.1888 49.9098 13.9677C49.4825 14.7997 49.2672 15.7243 49.2831 16.6594C49.2668 17.593 49.4821 18.516 49.9098 19.346C50.3048 20.1249 50.9098 20.7779 51.6563 21.2312C52.4477 21.684 53.3437 21.9221 54.2555 21.9221C55.1673 21.9221 56.0633 21.684 56.8548 21.2312V21.2004Z" fill="black"/>
<path d="M80.6125 17.9594H68.505C68.6168 18.8057 68.9342 19.6118 69.4296 20.307C69.8685 20.9153 70.4628 21.3943 71.1505 21.6939C71.8508 21.9964 72.6068 22.1487 73.3696 22.1408C74.2151 22.1369 75.0532 21.9838 75.8455 21.6888C76.6668 21.3885 77.4336 20.9565 78.116 20.4097L79.8934 22.9781C78.987 23.7717 77.9301 24.3744 76.7856 24.7503C75.6072 25.1193 74.3783 25.3013 73.1436 25.2897C71.625 25.318 70.1254 24.9497 68.7927 24.2212C67.5352 23.5135 66.5054 22.4622 65.8236 21.1905C65.0881 19.7955 64.7187 18.2366 64.75 16.6598C64.7187 15.0983 65.0715 13.5531 65.7773 12.1599C66.4334 10.8928 67.4341 9.83687 68.6642 9.11379C69.9623 8.36019 71.4426 7.97811 72.9432 8.00937C74.3478 7.97241 75.7333 8.34018 76.9346 9.06881C78.136 9.79744 79.1024 10.8562 79.7187 12.1188C80.3974 13.5165 80.7354 15.055 80.705 16.6084C80.6844 16.968 80.6485 17.4149 80.6125 17.9594ZM77.0167 15.2369C76.8982 14.1193 76.4143 13.0721 75.6401 12.2575C75.2694 11.9059 74.8321 11.632 74.354 11.452C73.8758 11.272 73.3664 11.1896 72.8559 11.2096C72.3181 11.1844 71.7807 11.2679 71.2759 11.455C70.771 11.6421 70.3091 11.929 69.9176 12.2986C69.14 13.1047 68.6444 14.141 68.505 15.2523L77.0167 15.2369Z" fill="black"/>
<path d="M97.6926 24.8478H93.2904L89.1295 19.1407L85.02 24.8478H80.8232L86.9875 16.4696L80.9208 8.43555H85.3283L89.335 13.9166L93.3417 8.43555H97.6002L91.5079 16.4387L97.6926 24.8478Z" fill="black"/>
</g>
<defs>
<clipPath id="clip0_24153_662">
<rect width="287" height="40" fill="white" transform="translate(0 0.299805)"/>
</clipPath>
</defs>
</svg>
