<svg width="378" height="24" viewBox="0 0 378 24" fill="none" xmlns="http://www.w3.org/2000/svg">
<path d="M19.9476 6.21973H23.0852L18.5234 20.0087H14.924L11.5145 9.60331L8.10505 20.0087H4.56179L0 6.21973H3.21095L6.44779 16.6985L9.84432 6.21973H13.2538L16.7064 16.7546L19.9476 6.21973Z" fill="black"/>
<path d="M36.5418 14.2212H26.3651C26.4591 14.9322 26.7258 15.6094 27.142 16.1935C27.5107 16.7045 28.0101 17.107 28.5878 17.3587C29.1762 17.6129 29.8113 17.7408 30.4522 17.7342C31.1626 17.7315 31.8669 17.6029 32.5324 17.3544C33.2224 17.1021 33.8667 16.7392 34.44 16.2798L35.9376 18.4377C35.1739 19.1036 34.2846 19.6098 33.3222 19.9266C32.3337 20.2369 31.3026 20.3898 30.2666 20.3798C28.9906 20.4049 27.7303 20.0954 26.6111 19.4821C25.5525 18.8889 24.6855 18.0054 24.1123 16.9358C23.4957 15.7634 23.1868 14.4536 23.2146 13.1293C23.1882 11.8174 23.4846 10.5191 24.0778 9.34863C24.629 8.28405 25.4698 7.39688 26.5032 6.78937C27.5876 6.16532 28.8216 5.84898 30.0724 5.87442C31.2528 5.84176 32.4175 6.15007 33.4271 6.76242C34.4367 7.37478 35.2484 8.26521 35.7649 9.32705C36.3352 10.5013 36.6191 11.7939 36.5936 13.0991C36.5979 13.3882 36.5806 13.7637 36.5418 14.2212ZM33.5207 11.9338C33.428 10.9888 33.0224 10.1018 32.3684 9.41337C32.0549 9.11952 31.6855 8.89169 31.2821 8.74342C30.8788 8.59514 30.4498 8.52943 30.0206 8.55021C29.5688 8.52953 29.1175 8.59987 28.6934 8.75704C28.2693 8.91422 27.8812 9.15502 27.552 9.46516C26.9002 10.1435 26.484 11.0136 26.3651 11.9467L33.5207 11.9338Z" fill="black"/>
<path d="M49.4162 6.79789C50.466 7.41887 51.3269 8.31407 51.9064 9.38736C52.5261 10.5313 52.8411 11.8154 52.8214 13.1162C52.8412 14.4157 52.5261 15.6983 51.9064 16.8407C51.3268 17.919 50.4627 18.8177 49.4081 19.4393C48.3536 20.061 47.1488 20.3817 45.9247 20.3667C45.0657 20.3847 44.2139 20.2061 43.4345 19.8445C42.7202 19.5001 42.0954 18.9949 41.6089 18.3685V20.0085H38.5879V0.350098H41.6089V7.85957C42.0974 7.23746 42.7219 6.7355 43.4345 6.3922C44.2129 6.02706 45.0652 5.84685 45.9247 5.86568C47.152 5.85066 48.3598 6.17313 49.4162 6.79789ZM47.7676 16.9443C48.3942 16.5591 48.8986 16.0038 49.222 15.3432C49.554 14.6469 49.7263 13.8854 49.7263 13.114C49.7263 12.3427 49.554 11.5812 49.222 10.8849C48.8972 10.2252 48.3932 9.6703 47.7676 9.28378C47.1026 8.90338 46.3499 8.70327 45.5838 8.70327C44.8177 8.70327 44.0649 8.90338 43.4 9.28378C42.7728 9.66465 42.2645 10.2133 41.9326 10.8677C41.5737 11.5667 41.3928 12.3435 41.4061 13.1292C41.3924 13.9135 41.5733 14.689 41.9326 15.3863C42.2645 16.0407 42.7728 16.5893 43.4 16.9702C44.0649 17.3506 44.8177 17.5507 45.5838 17.5507C46.3499 17.5507 47.1026 17.3506 47.7676 16.9702V16.9443Z" fill="black"/>
<path d="M67.7272 14.2212H57.5549C57.6488 14.9322 57.9155 15.6094 58.3317 16.1935C58.7004 16.7046 59.1998 17.1071 59.7775 17.3588C60.3659 17.6129 61.001 17.7408 61.6419 17.7342C62.3523 17.7309 63.0565 17.6023 63.7221 17.3545C64.4121 17.1022 65.0564 16.7392 65.6297 16.2798L67.123 18.4377C66.3615 19.1044 65.4735 19.6108 64.5119 19.9267C63.5219 20.2367 62.4894 20.3896 61.452 20.3798C60.1762 20.4036 58.9163 20.0942 57.7966 19.4821C56.7401 18.8875 55.8749 18.0043 55.302 16.9358C54.6841 15.7638 54.3737 14.454 54.4 13.1293C54.3738 11.8174 54.6702 10.5192 55.2632 9.34866C55.8144 8.28408 56.6552 7.39691 57.6887 6.7894C58.7792 6.15625 60.023 5.83524 61.2837 5.86151C62.4638 5.83045 63.6279 6.13943 64.6372 6.75161C65.6465 7.36378 66.4585 8.25331 66.9763 9.31414C67.5465 10.4884 67.8304 11.781 67.8049 13.0861C67.7876 13.3882 67.7574 13.7637 67.7272 14.2212ZM64.7061 11.9338C64.6066 10.9949 64.2 10.115 63.5495 9.43066C63.2381 9.1352 62.8707 8.90507 62.469 8.75386C62.0672 8.60265 61.6393 8.53342 61.2104 8.55024C60.7585 8.52907 60.307 8.59917 59.8829 8.75638C59.4587 8.91358 59.0706 9.15465 58.7417 9.46519C58.0884 10.1424 57.672 11.0131 57.5549 11.9468L64.7061 11.9338Z" fill="black"/>
<path d="M82.0773 20.0087H78.3787L74.8829 15.2138L71.4303 20.0087H67.9043L73.0832 12.9696L67.9863 6.21973H71.6892L75.0556 10.8247L78.4219 6.21973H81.9997L76.8811 12.9437L82.0773 20.0087Z" fill="black"/>
<path d="M103.92 20.0429H101.691L100.294 16.4515H93.5314L92.1086 20.0429H90L95.8371 5.84863H98.1086L103.92 20.0429ZM96.9429 7.86292L94.1829 14.8229H99.6429L96.9429 7.86292Z" fill="black"/>
<path d="M114.052 20.0429H112.492L112.158 18.6029C111.369 19.7601 110.229 20.3343 108.746 20.3343C107.315 20.3343 106.183 19.8115 105.352 18.7743C104.589 17.8143 104.212 16.5458 104.212 14.9686C104.212 13.0658 104.7 11.6343 105.669 10.6743C106.483 9.88578 107.546 9.49149 108.866 9.49149C110.289 9.49149 111.386 10.0229 112.158 11.0858V5.84863H114.052V20.0429ZM106.183 15.0201C106.183 16.2972 106.5 17.2572 107.126 17.9172C107.649 18.4572 108.326 18.7229 109.158 18.7229C110.186 18.7229 110.975 18.3372 111.54 17.5572C112.012 16.8886 112.252 16.0486 112.252 15.0372C112.252 13.7086 111.935 12.6972 111.309 12.0029C110.769 11.4115 110.058 11.1115 109.158 11.1115C108.155 11.1115 107.4 11.4715 106.895 12.1915C106.423 12.8515 106.183 13.7943 106.183 15.0201Z" fill="black"/>
<path d="M115.723 14.9169C115.723 13.0398 116.28 11.6169 117.403 10.6569C118.294 9.8855 119.426 9.49121 120.797 9.49121C122.383 9.49121 123.634 9.99693 124.543 11.0084C125.408 11.9512 125.846 13.2541 125.846 14.9084C125.846 16.7598 125.297 18.1741 124.208 19.1512C123.317 19.9398 122.168 20.3341 120.78 20.3341C119.186 20.3341 117.934 19.8112 117.017 18.7569C116.151 17.8055 115.723 16.5198 115.723 14.9169ZM117.694 14.9169C117.694 16.2284 118.028 17.2398 118.697 17.9341C119.246 18.5084 119.948 18.7998 120.806 18.7998C121.808 18.7998 122.571 18.4226 123.111 17.6769C123.608 16.9912 123.857 16.0741 123.857 14.9169C123.857 13.5798 123.531 12.5684 122.871 11.8826C122.331 11.3169 121.637 11.0341 120.78 11.0341C119.794 11.0341 119.023 11.4112 118.474 12.1569C117.96 12.8426 117.694 13.7598 117.694 14.9169Z" fill="black"/>
<path d="M127.518 9.79121H129.078L129.369 11.1284C130.209 10.0398 131.366 9.49121 132.84 9.49121C134.315 9.49121 135.455 10.0141 136.269 11.0684C136.989 12.0112 137.358 13.2712 137.358 14.8312C137.358 16.6826 136.86 18.1055 135.875 19.0912C135.043 19.9226 133.989 20.3341 132.703 20.3341C131.246 20.3341 130.149 19.7941 129.412 18.7141V23.5826H127.518V9.79121ZM135.386 14.7969C135.386 13.5112 135.06 12.5426 134.418 11.8998C133.903 11.3769 133.235 11.1112 132.403 11.1112C131.443 11.1112 130.68 11.4626 130.115 12.1569C129.575 12.8255 129.309 13.7084 129.309 14.7969C129.309 16.1084 129.635 17.1198 130.278 17.8141C130.818 18.4226 131.529 18.7226 132.403 18.7226C133.389 18.7226 134.135 18.3626 134.649 17.6341C135.138 16.9655 135.386 16.0226 135.386 14.7969Z" fill="black"/>
<path d="M143.606 18.5261V20.1461C143.117 20.2747 142.654 20.3432 142.208 20.3432C141.266 20.3432 140.554 20.0518 140.083 19.4518C139.671 18.9632 139.474 18.3118 139.474 17.4975V11.4118H137.957V9.79181H139.474L139.594 7.32324H141.368V9.79181H143.58V11.4118H141.368V17.5404C141.368 18.3032 141.728 18.6804 142.448 18.6804C142.783 18.6804 143.168 18.629 143.606 18.5261Z" fill="black"/>
<path d="M146.897 8.0772H144.771V5.84863H146.897V8.0772ZM146.777 20.0429H144.883V9.79149H146.777V20.0429Z" fill="black"/>
<path d="M148.448 14.9169C148.448 13.0398 149.005 11.6169 150.128 10.6569C151.02 9.8855 152.151 9.49121 153.523 9.49121C155.117 9.49121 156.36 9.99693 157.268 11.0084C158.134 11.9512 158.571 13.2541 158.571 14.9084C158.571 16.7598 158.023 18.1741 156.934 19.1512C156.043 19.9398 154.894 20.3341 153.505 20.3341C151.911 20.3341 150.66 19.8112 149.743 18.7569C148.877 17.8055 148.448 16.5198 148.448 14.9169ZM150.42 14.9169C150.42 16.2284 150.754 17.2398 151.423 17.9341C151.971 18.5084 152.674 18.7998 153.531 18.7998C154.534 18.7998 155.297 18.4226 155.837 17.6769C156.334 16.9912 156.583 16.0741 156.583 14.9169C156.583 13.5798 156.257 12.5684 155.597 11.8826C155.057 11.3169 154.363 11.0341 153.505 11.0341C152.52 11.0341 151.748 11.4112 151.2 12.1569C150.685 12.8426 150.42 13.7598 150.42 14.9169Z" fill="black"/>
<path d="M162.137 20.0429H160.243V9.79143H161.803L162.017 11.0943C162.78 10.0314 163.817 9.5 165.129 9.5C166.337 9.5 167.263 9.87714 167.906 10.6229C168.472 11.2914 168.755 12.2086 168.755 13.3657V20.0514H166.86V13.3829C166.86 11.8743 166.132 11.12 164.675 11.12C163.912 11.12 163.286 11.3857 162.806 11.9086C162.36 12.38 162.137 12.9886 162.137 13.7257V20.0429Z" fill="black"/>
<path d="M184.663 20.0429H182.769L178.389 8.92578V20.0429H176.435V5.84863H179.237L183.755 17.6772L188.015 5.84863H190.655V20.0429H188.76V9.02006L184.663 20.0429Z" fill="black"/>
<path d="M200.34 17.0857H202.388C202.097 18.1229 201.531 18.9371 200.674 19.5286C199.868 20.0686 198.917 20.3343 197.794 20.3343C196.174 20.3343 194.914 19.82 194.006 18.8C193.174 17.84 192.763 16.5457 192.763 14.9171C192.763 13.0657 193.286 11.66 194.34 10.7C195.206 9.90286 196.328 9.5 197.691 9.5C199.294 9.5 200.503 10.0229 201.317 11.06C202.106 12.0629 202.5 13.4857 202.5 15.3371H194.691C194.768 16.5457 195.137 17.4457 195.797 18.0371C196.337 18.5086 197.023 18.7486 197.846 18.7486C198.488 18.7486 199.046 18.5686 199.526 18.2171C199.928 17.9086 200.194 17.5314 200.34 17.0857ZM197.734 11.0171C196.894 11.0171 196.217 11.2829 195.703 11.8057C195.214 12.2943 194.906 12.9714 194.777 13.8371H200.571C200.503 12.8514 200.177 12.1143 199.586 11.6257C199.114 11.2143 198.497 11.0171 197.734 11.0171Z" fill="black"/>
<path d="M209.186 18.5261V20.1461C208.697 20.2747 208.234 20.3432 207.789 20.3432C206.846 20.3432 206.134 20.0518 205.663 19.4518C205.251 18.9632 205.054 18.3118 205.054 17.4975V11.4118H203.537V9.79181H205.054L205.174 7.32324H206.949V9.79181H209.16V11.4118H206.949V17.5404C206.949 18.3032 207.309 18.6804 208.029 18.6804C208.371 18.6804 208.757 18.629 209.186 18.5261Z" fill="black"/>
<path d="M212.7 20.0429H210.806V5.84863H212.7V10.9572C213.446 9.98863 214.449 9.50006 215.7 9.50006C216.909 9.50006 217.834 9.8772 218.477 10.6229C219.043 11.2915 219.326 12.2086 219.326 13.3658V20.0515H217.431V13.3829C217.431 11.8743 216.703 11.1201 215.246 11.1201C214.466 11.1201 213.84 11.3858 213.351 11.9258C212.914 12.4143 212.7 13.0401 212.7 13.8029V20.0429Z" fill="black"/>
<path d="M221.237 14.9169C221.237 13.0398 221.794 11.6169 222.917 10.6569C223.809 9.8855 224.94 9.49121 226.312 9.49121C227.906 9.49121 229.149 9.99693 230.057 11.0084C230.923 11.9512 231.36 13.2541 231.36 14.9084C231.36 16.7598 230.812 18.1741 229.723 19.1512C228.832 19.9398 227.683 20.3341 226.294 20.3341C224.7 20.3341 223.449 19.8112 222.532 18.7569C221.666 17.8055 221.237 16.5198 221.237 14.9169ZM223.209 14.9169C223.209 16.2284 223.543 17.2398 224.212 17.9341C224.76 18.5084 225.463 18.7998 226.32 18.7998C227.323 18.7998 228.086 18.4226 228.626 17.6769C229.123 16.9912 229.372 16.0741 229.372 14.9169C229.372 13.5798 229.046 12.5684 228.386 11.8826C227.846 11.3169 227.152 11.0341 226.294 11.0341C225.309 11.0341 224.537 11.4112 223.989 12.1569C223.466 12.8426 223.209 13.7598 223.209 14.9169Z" fill="black"/>
<path d="M242.451 20.0429H240.891L240.557 18.6029C239.768 19.7601 238.628 20.3343 237.146 20.3343C235.714 20.3343 234.583 19.8115 233.751 18.7743C232.988 17.8143 232.611 16.5458 232.611 14.9686C232.611 13.0658 233.1 11.6343 234.068 10.6743C234.883 9.88578 235.946 9.49149 237.266 9.49149C238.688 9.49149 239.786 10.0229 240.557 11.0858V5.84863H242.451V20.0429ZM234.583 15.0201C234.583 16.2972 234.9 17.2572 235.526 17.9172C236.048 18.4572 236.726 18.7229 237.557 18.7229C238.586 18.7229 239.374 18.3372 239.94 17.5572C240.411 16.8886 240.651 16.0486 240.651 15.0372C240.651 13.7086 240.334 12.6972 239.708 12.0029C239.168 11.4115 238.457 11.1115 237.557 11.1115C236.554 11.1115 235.8 11.4715 235.286 12.1915C234.814 12.8515 234.583 13.7943 234.583 15.0201Z" fill="black"/>
<path d="M244.303 14.9169C244.303 13.0398 244.86 11.6169 245.983 10.6569C246.874 9.8855 248.006 9.49121 249.377 9.49121C250.963 9.49121 252.214 9.99693 253.123 11.0084C253.988 11.9512 254.426 13.2541 254.426 14.9084C254.426 16.7598 253.877 18.1741 252.788 19.1512C251.897 19.9398 250.748 20.3341 249.36 20.3341C247.766 20.3341 246.514 19.8112 245.597 18.7569C244.731 17.8055 244.303 16.5198 244.303 14.9169ZM246.274 14.9169C246.274 16.2284 246.608 17.2398 247.277 17.9341C247.826 18.5084 248.528 18.7998 249.386 18.7998C250.388 18.7998 251.151 18.4226 251.691 17.6769C252.188 16.9912 252.437 16.0741 252.437 14.9169C252.437 13.5798 252.111 12.5684 251.451 11.8826C250.911 11.3169 250.217 11.0341 249.36 11.0341C248.374 11.0341 247.603 11.4112 247.054 12.1569C246.531 12.8426 246.274 13.7598 246.274 14.9169Z" fill="black"/>
<path d="M258.163 5.84863V20.0429H256.269V5.84863H258.163Z" fill="black"/>
<path d="M260.015 14.9169C260.015 13.0398 260.572 11.6169 261.695 10.6569C262.586 9.8855 263.718 9.49121 265.089 9.49121C266.683 9.49121 267.926 9.99693 268.835 11.0084C269.7 11.9512 270.138 13.2541 270.138 14.9084C270.138 16.7598 269.589 18.1741 268.5 19.1512C267.609 19.9398 266.46 20.3341 265.072 20.3341C263.478 20.3341 262.226 19.8112 261.309 18.7569C260.443 17.8055 260.015 16.5198 260.015 14.9169ZM261.986 14.9169C261.986 16.2284 262.32 17.2398 262.989 17.9341C263.538 18.5084 264.24 18.7998 265.097 18.7998C266.1 18.7998 266.863 18.4226 267.403 17.6769C267.9 16.9912 268.149 16.0741 268.149 14.9169C268.149 13.5798 267.823 12.5684 267.163 11.8826C266.623 11.3169 265.929 11.0341 265.072 11.0341C264.086 11.0341 263.315 11.4112 262.766 12.1569C262.243 12.8426 261.986 13.7598 261.986 14.9169Z" fill="black"/>
<path d="M271.86 20.7374H273.892C273.986 21.2602 274.252 21.6716 274.689 21.9631C275.126 22.2545 275.709 22.4002 276.437 22.4002C277.449 22.4002 278.203 22.1345 278.709 21.6116C279.129 21.1659 279.343 20.5402 279.343 19.7431V18.4231C278.58 19.3145 277.44 19.7602 275.932 19.7602C274.569 19.7602 273.455 19.2716 272.597 18.2859C271.792 17.3688 271.397 16.1688 271.397 14.6945C271.397 12.9888 271.886 11.6688 272.855 10.7345C273.686 9.92022 274.749 9.50879 276.052 9.50879C277.526 9.50879 278.632 10.0574 279.386 11.1631L279.677 9.80022H281.237V19.8374C281.237 21.1231 280.775 22.1345 279.84 22.8716C279 23.5574 277.886 23.9002 276.506 23.9002C275.075 23.9002 273.952 23.5745 273.137 22.9316C272.435 22.3831 272.015 21.6545 271.86 20.7374ZM273.36 14.7202C273.36 15.8345 273.686 16.7088 274.346 17.3431C274.886 17.8659 275.546 18.1316 276.335 18.1316C277.372 18.1316 278.169 17.7888 278.717 17.1031C279.189 16.5288 279.429 15.7488 279.429 14.7802C279.429 13.5288 279.103 12.5774 278.46 11.9259C277.92 11.3859 277.209 11.1202 276.335 11.1202C275.357 11.1202 274.612 11.4545 274.089 12.1231C273.6 12.7488 273.36 13.6145 273.36 14.7202Z" fill="black"/>
<path d="M292.225 9.7915L288.66 20.1801C288.188 21.5601 287.734 22.5029 287.297 23.0001C286.783 23.5915 286.123 23.8829 285.308 23.8829C284.965 23.8829 284.563 23.8229 284.083 23.7029V22.1686C284.451 22.2629 284.777 22.3058 285.068 22.3058C285.471 22.3058 285.788 22.1601 286.011 21.8858C286.234 21.6029 286.517 20.9858 286.86 20.0429H286.251L282.488 9.7915H284.537L287.434 18.5086L290.331 9.7915H292.225Z" fill="black"/>
</svg>
