<svg width="378" height="24" viewBox="0 0 378 24" fill="none" xmlns="http://www.w3.org/2000/svg">
<path d="M19.9476 6.21973H23.0852L18.5234 20.0087H14.924L11.5145 9.60331L8.10505 20.0087H4.56179L0 6.21973H3.21095L6.44779 16.6985L9.84432 6.21973H13.2538L16.7064 16.7546L19.9476 6.21973Z" fill="black"/>
<path d="M36.5418 14.2212H26.3651C26.4591 14.9322 26.7258 15.6094 27.142 16.1935C27.5107 16.7045 28.0101 17.107 28.5878 17.3587C29.1762 17.6129 29.8113 17.7408 30.4522 17.7342C31.1626 17.7315 31.8669 17.6029 32.5324 17.3544C33.2224 17.1021 33.8667 16.7392 34.44 16.2798L35.9376 18.4377C35.1739 19.1036 34.2846 19.6098 33.3222 19.9266C32.3337 20.2369 31.3026 20.3898 30.2666 20.3798C28.9906 20.4049 27.7303 20.0954 26.6111 19.4821C25.5525 18.8889 24.6855 18.0054 24.1123 16.9358C23.4957 15.7634 23.1868 14.4536 23.2146 13.1293C23.1882 11.8174 23.4846 10.5191 24.0778 9.34863C24.629 8.28405 25.4698 7.39688 26.5032 6.78937C27.5876 6.16532 28.8216 5.84898 30.0724 5.87442C31.2528 5.84176 32.4175 6.15007 33.4271 6.76242C34.4367 7.37478 35.2484 8.26521 35.7649 9.32705C36.3352 10.5013 36.6191 11.7939 36.5936 13.0991C36.5979 13.3882 36.5806 13.7637 36.5418 14.2212ZM33.5207 11.9338C33.428 10.9888 33.0224 10.1018 32.3684 9.41337C32.0549 9.11952 31.6855 8.89169 31.2821 8.74342C30.8788 8.59514 30.4498 8.52943 30.0206 8.55021C29.5688 8.52953 29.1175 8.59987 28.6934 8.75704C28.2693 8.91422 27.8812 9.15502 27.552 9.46516C26.9002 10.1435 26.484 11.0136 26.3651 11.9467L33.5207 11.9338Z" fill="black"/>
<path d="M49.4162 6.79789C50.466 7.41887 51.3269 8.31407 51.9064 9.38736C52.5261 10.5313 52.8411 11.8154 52.8214 13.1162C52.8412 14.4157 52.5261 15.6983 51.9064 16.8407C51.3268 17.919 50.4627 18.8177 49.4081 19.4393C48.3536 20.061 47.1488 20.3817 45.9247 20.3667C45.0657 20.3847 44.2139 20.2061 43.4345 19.8445C42.7202 19.5001 42.0954 18.9949 41.6089 18.3685V20.0085H38.5879V0.350098H41.6089V7.85957C42.0974 7.23746 42.7219 6.7355 43.4345 6.3922C44.2129 6.02706 45.0652 5.84685 45.9247 5.86568C47.152 5.85066 48.3598 6.17313 49.4162 6.79789ZM47.7676 16.9443C48.3942 16.5591 48.8986 16.0038 49.222 15.3432C49.554 14.6469 49.7263 13.8854 49.7263 13.114C49.7263 12.3427 49.554 11.5812 49.222 10.8849C48.8972 10.2252 48.3932 9.6703 47.7676 9.28378C47.1026 8.90338 46.3499 8.70327 45.5838 8.70327C44.8177 8.70327 44.0649 8.90338 43.4 9.28378C42.7728 9.66465 42.2645 10.2133 41.9326 10.8677C41.5737 11.5667 41.3928 12.3435 41.4061 13.1292C41.3924 13.9135 41.5733 14.689 41.9326 15.3863C42.2645 16.0407 42.7728 16.5893 43.4 16.9702C44.0649 17.3506 44.8177 17.5507 45.5838 17.5507C46.3499 17.5507 47.1026 17.3506 47.7676 16.9702V16.9443Z" fill="black"/>
<path d="M67.7272 14.2212H57.5549C57.6488 14.9322 57.9155 15.6094 58.3317 16.1935C58.7004 16.7046 59.1998 17.1071 59.7775 17.3588C60.3659 17.6129 61.001 17.7408 61.6419 17.7342C62.3523 17.7309 63.0565 17.6023 63.7221 17.3545C64.4121 17.1022 65.0564 16.7392 65.6297 16.2798L67.123 18.4377C66.3615 19.1044 65.4735 19.6108 64.5119 19.9267C63.5219 20.2367 62.4894 20.3896 61.452 20.3798C60.1762 20.4036 58.9163 20.0942 57.7966 19.4821C56.7401 18.8875 55.8749 18.0043 55.302 16.9358C54.6841 15.7638 54.3737 14.454 54.4 13.1293C54.3738 11.8174 54.6702 10.5192 55.2632 9.34866C55.8144 8.28408 56.6552 7.39691 57.6887 6.7894C58.7792 6.15625 60.023 5.83524 61.2837 5.86151C62.4638 5.83045 63.6279 6.13943 64.6372 6.75161C65.6465 7.36378 66.4585 8.25331 66.9763 9.31414C67.5465 10.4884 67.8304 11.781 67.8049 13.0861C67.7876 13.3882 67.7574 13.7637 67.7272 14.2212ZM64.7061 11.9338C64.6066 10.9949 64.2 10.115 63.5495 9.43066C63.2381 9.1352 62.8707 8.90507 62.469 8.75386C62.0672 8.60265 61.6393 8.53342 61.2104 8.55024C60.7585 8.52907 60.307 8.59917 59.8829 8.75638C59.4587 8.91358 59.0706 9.15465 58.7417 9.46519C58.0884 10.1424 57.672 11.0131 57.5549 11.9468L64.7061 11.9338Z" fill="black"/>
<path d="M82.0773 20.0087H78.3787L74.8829 15.2138L71.4303 20.0087H67.9043L73.0832 12.9696L67.9863 6.21973H71.6892L75.0556 10.8247L78.4219 6.21973H81.9997L76.8811 12.9437L82.0773 20.0087Z" fill="black"/>
<path d="M267.966 17.3499C267.966 16.7985 267.678 16.385 267.101 16.1094C266.763 15.959 266.105 15.771 265.128 15.5455C263.925 15.2823 263.066 14.9002 262.553 14.3989C262.127 13.9729 261.914 13.4153 261.914 12.7261C261.914 11.8114 262.283 11.1097 263.022 10.621C263.687 10.1699 264.583 9.94434 265.71 9.94434C266.876 9.94434 267.822 10.2325 268.548 10.8089C269.175 11.3102 269.563 11.9743 269.714 12.8013H267.872C267.659 11.849 266.932 11.3728 265.691 11.3728C265.002 11.3728 264.489 11.4981 264.15 11.7487C263.875 11.9618 263.737 12.2312 263.737 12.557C263.737 12.9579 263.887 13.2587 264.188 13.4591C264.501 13.6596 265.109 13.8601 266.011 14.0606C267.389 14.3613 268.348 14.731 268.887 15.1696C269.488 15.6583 269.789 16.3412 269.789 17.2183C269.789 18.1957 269.388 18.9663 268.586 19.5302C267.859 20.0314 266.901 20.282 265.71 20.282C264.407 20.282 263.373 19.9688 262.609 19.3422C261.945 18.7909 261.575 18.0766 261.5 17.1995H263.342C263.542 18.3022 264.338 18.8535 265.729 18.8535C266.481 18.8535 267.064 18.6906 267.477 18.3649C267.803 18.1017 267.966 17.7634 267.966 17.3499Z" fill="black"/>
<path d="M251.817 10.2261H253.622V16.6354C253.622 18.0389 254.298 18.7406 255.652 18.7406C256.479 18.7406 257.112 18.4461 257.55 17.8572C257.888 17.4061 258.058 16.8485 258.058 16.1843V10.2261H259.862V19.9999H258.377L258.17 18.8721C257.481 19.8119 256.504 20.2818 255.238 20.2818C254.123 20.2818 253.265 19.9372 252.663 19.2481C252.099 18.609 251.817 17.7256 251.817 16.5978V10.2261Z" fill="black"/>
<path d="M250.465 18.5525V20.0937C250.001 20.219 249.556 20.2817 249.13 20.2817C248.228 20.2817 247.551 19.9998 247.1 19.4359C246.712 18.9722 246.518 18.352 246.518 17.5751V11.7672H245.07V10.2259H246.518L246.63 7.87646H248.322V10.2259H250.427V11.7672H248.322V17.6127C248.322 18.3395 248.667 18.7028 249.356 18.7028C249.682 18.7028 250.051 18.6527 250.465 18.5525Z" fill="black"/>
<path d="M237.561 12.9517H235.644C235.744 11.9743 236.208 11.2162 237.035 10.6774C237.774 10.1887 238.708 9.94434 239.835 9.94434C241.176 9.94434 242.204 10.2952 242.918 10.9969C243.519 11.5984 243.82 12.3753 243.82 13.3276V20.0001H242.335L242.11 18.6656C241.345 19.7432 240.255 20.282 238.839 20.282C237.724 20.282 236.853 19.9813 236.227 19.3798C235.713 18.8786 235.456 18.2458 235.456 17.4814C235.456 16.5166 235.788 15.771 236.452 15.2447C237.041 14.7811 237.943 14.4428 239.159 14.2298L242.016 13.7411V13.2524C242.016 12.6133 241.797 12.1309 241.358 11.8051C240.969 11.5169 240.437 11.3728 239.76 11.3728C238.432 11.3728 237.699 11.8991 237.561 12.9517ZM239.272 18.7596C240.036 18.7596 240.7 18.509 241.264 18.0077C241.765 17.5441 242.016 17.0116 242.016 16.4101V15.1508L239.591 15.5831C238.701 15.7334 238.094 15.9653 237.768 16.2785C237.505 16.5291 237.373 16.8675 237.373 17.2935C237.373 17.7697 237.536 18.133 237.862 18.3836C238.188 18.6343 238.658 18.7596 239.272 18.7596Z" fill="black"/>
<path d="M234.573 18.5525V20.0937C234.109 20.219 233.665 20.2817 233.239 20.2817C232.336 20.2817 231.66 19.9998 231.209 19.4359C230.82 18.9722 230.626 18.352 230.626 17.5751V11.7672H229.179V10.2259H230.626L230.739 7.87646H232.43V10.2259H234.536V11.7672H232.43V17.6127C232.43 18.3395 232.775 18.7028 233.464 18.7028C233.79 18.7028 234.16 18.6527 234.573 18.5525Z" fill="black"/>
<path d="M226.378 16.3348C226.378 15.8837 226.278 15.5266 226.077 15.2634C225.852 14.9502 225.438 14.662 224.837 14.3988C224.235 14.1357 223.327 13.8349 222.112 13.4966C220.483 13.0455 219.361 12.4879 218.747 11.8238C218.246 11.285 217.995 10.5645 217.995 9.66228C217.995 8.57212 218.471 7.70752 219.424 7.06846C220.301 6.47953 221.441 6.18506 222.845 6.18506C224.411 6.18506 225.683 6.55471 226.66 7.29401C227.537 7.9456 228.051 8.79767 228.201 9.85024H226.228C226.115 9.136 225.739 8.60345 225.1 8.2526C224.536 7.9268 223.784 7.76391 222.845 7.76391C221.792 7.76391 221.015 7.96439 220.514 8.36537C220.113 8.67863 219.912 9.08588 219.912 9.5871C219.912 9.91289 219.963 10.1823 220.063 10.3953C220.176 10.5958 220.364 10.7775 220.627 10.9404C221.115 11.2662 222.061 11.6233 223.465 12.0118C225.42 12.5631 226.742 13.1896 227.431 13.8913C228.007 14.4677 228.295 15.2572 228.295 16.2596C228.295 17.45 227.775 18.4337 226.735 19.2105C225.758 19.9248 224.517 20.2819 223.014 20.2819C221.447 20.2819 220.151 19.8621 219.123 19.0226C218.233 18.2958 217.701 17.356 217.525 16.2032H219.499C219.624 17.0302 220.019 17.663 220.683 18.1016C221.285 18.5026 222.049 18.7031 222.976 18.7031C224.129 18.7031 225.012 18.4399 225.626 17.9136C226.128 17.4876 226.378 16.9613 226.378 16.3348Z" fill="black"/>
<path d="M209.067 17.1807H211.022C210.746 18.1706 210.201 18.9475 209.387 19.5114C208.622 20.0251 207.708 20.282 206.643 20.282C205.101 20.282 203.898 19.7933 203.034 18.8159C202.244 17.9012 201.85 16.667 201.85 15.1132C201.85 13.3464 202.351 12.0056 203.353 11.0909C204.18 10.3265 205.245 9.94434 206.549 9.94434C208.077 9.94434 209.23 10.4393 210.007 11.4292C210.759 12.3815 211.135 13.7411 211.135 15.5079H203.692C203.767 16.6607 204.118 17.519 204.744 18.0829C205.258 18.534 205.909 18.7596 206.699 18.7596C207.313 18.7596 207.845 18.5904 208.297 18.2521C208.672 17.9639 208.929 17.6068 209.067 17.1807ZM206.586 11.3916C205.784 11.3916 205.139 11.6422 204.65 12.1434C204.187 12.6071 203.892 13.2524 203.767 14.0794H209.293C209.23 13.1396 208.917 12.4379 208.353 11.9743C207.902 11.5858 207.313 11.3916 206.586 11.3916Z" fill="black"/>
<path d="M198.377 16.8612H200.351C200.2 17.9138 199.705 18.7596 198.866 19.3986C198.101 19.9876 197.168 20.282 196.065 20.282C194.624 20.282 193.478 19.7871 192.626 18.7972C191.836 17.8824 191.441 16.6795 191.441 15.1884C191.441 13.4591 191.918 12.1184 192.87 11.1661C193.684 10.3516 194.743 9.94434 196.046 9.94434C197.249 9.94434 198.239 10.2639 199.016 10.9029C199.705 11.4668 200.125 12.2061 200.275 13.1208H198.283C198.158 12.5945 197.901 12.1873 197.512 11.8991C197.137 11.6109 196.66 11.4668 196.084 11.4668C195.194 11.4668 194.511 11.8177 194.035 12.5194C193.584 13.1709 193.359 14.0794 193.359 15.2447C193.359 16.4602 193.659 17.3812 194.261 18.0077C194.737 18.509 195.351 18.7596 196.103 18.7596C196.754 18.7596 197.287 18.5716 197.7 18.1957C198.064 17.8699 198.289 17.4251 198.377 16.8612Z" fill="black"/>
<path d="M189.481 8.59072H187.451V6.4668H189.481V8.59072ZM189.368 19.9998H187.564V10.226H189.368V19.9998Z" fill="black"/>
<path d="M184.187 10.2261H186.066L182.627 19.9999H180.183L176.781 10.2261H178.755L181.461 18.5338L184.187 10.2261Z" fill="black"/>
<path d="M173.013 20.0001H171.209V10.2263H172.694L172.938 11.6735C173.49 10.5207 174.317 9.94434 175.419 9.94434C175.783 9.94434 176.14 9.98819 176.491 10.0759V11.8803C176.065 11.7675 175.682 11.7111 175.344 11.7111C174.617 11.7111 174.047 12.0056 173.634 12.5945C173.22 13.1835 173.013 14.0168 173.013 15.0944V20.0001Z" fill="black"/>
<path d="M166.978 17.1807H168.933C168.657 18.1706 168.112 18.9475 167.298 19.5114C166.533 20.0251 165.619 20.282 164.554 20.282C163.012 20.282 161.809 19.7933 160.945 18.8159C160.155 17.9012 159.761 16.667 159.761 15.1132C159.761 13.3464 160.262 12.0056 161.264 11.0909C162.091 10.3265 163.157 9.94434 164.46 9.94434C165.988 9.94434 167.141 10.4393 167.918 11.4292C168.67 12.3815 169.046 13.7411 169.046 15.5079H161.603C161.678 16.6607 162.029 17.519 162.655 18.0829C163.169 18.534 163.821 18.7596 164.61 18.7596C165.224 18.7596 165.757 18.5904 166.208 18.2521C166.584 17.9639 166.84 17.6068 166.978 17.1807ZM164.497 11.3916C163.695 11.3916 163.05 11.6422 162.561 12.1434C162.098 12.6071 161.803 13.2524 161.678 14.0794H167.204C167.141 13.1396 166.828 12.4379 166.264 11.9743C165.813 11.5858 165.224 11.3916 164.497 11.3916Z" fill="black"/>
<path d="M156.24 16.3348C156.24 15.8837 156.139 15.5266 155.939 15.2634C155.713 14.9502 155.3 14.662 154.698 14.3988C154.097 14.1357 153.188 13.8349 151.973 13.4966C150.344 13.0455 149.222 12.4879 148.608 11.8238C148.107 11.285 147.857 10.5645 147.857 9.66228C147.857 8.57212 148.333 7.70752 149.285 7.06846C150.162 6.47953 151.303 6.18506 152.706 6.18506C154.272 6.18506 155.544 6.55471 156.521 7.29401C157.399 7.9456 157.912 8.79767 158.063 9.85024H156.089C155.976 9.136 155.6 8.60345 154.961 8.2526C154.398 7.9268 153.646 7.76391 152.706 7.76391C151.653 7.76391 150.876 7.96439 150.375 8.36537C149.974 8.67863 149.774 9.08588 149.774 9.5871C149.774 9.91289 149.824 10.1823 149.924 10.3953C150.037 10.5958 150.225 10.7775 150.488 10.9404C150.977 11.2662 151.923 11.6233 153.326 12.0118C155.281 12.5631 156.603 13.1896 157.292 13.8913C157.869 14.4677 158.157 15.2572 158.157 16.2596C158.157 17.45 157.637 18.4337 156.597 19.2105C155.619 19.9248 154.379 20.2819 152.875 20.2819C151.309 20.2819 150.012 19.8621 148.984 19.0226C148.095 18.2958 147.562 17.356 147.387 16.2032H149.36C149.486 17.0302 149.88 17.663 150.544 18.1016C151.146 18.5026 151.91 18.7031 152.837 18.7031C153.99 18.7031 154.874 18.4399 155.488 17.9136C155.989 17.4876 156.24 16.9613 156.24 16.3348Z" fill="black"/>
<path d="M141.022 6.4668V19.9998H139.218V6.4668H141.022Z" fill="black"/>
<path d="M130.925 12.9517H129.008C129.109 11.9743 129.572 11.2162 130.399 10.6774C131.138 10.1887 132.072 9.94434 133.2 9.94434C134.541 9.94434 135.568 10.2952 136.282 10.9969C136.884 11.5984 137.184 12.3753 137.184 13.3276V20.0001H135.7L135.474 18.6656C134.71 19.7432 133.62 20.282 132.204 20.282C131.088 20.282 130.217 19.9813 129.591 19.3798C129.077 18.8786 128.82 18.2458 128.82 17.4814C128.82 16.5166 129.152 15.771 129.816 15.2447C130.405 14.7811 131.308 14.4428 132.523 14.2298L135.38 13.7411V13.2524C135.38 12.6133 135.161 12.1309 134.722 11.8051C134.334 11.5169 133.801 11.3728 133.125 11.3728C131.796 11.3728 131.063 11.8991 130.925 12.9517ZM132.636 18.7596C133.4 18.7596 134.064 18.509 134.628 18.0077C135.129 17.5441 135.38 17.0116 135.38 16.4101V15.1508L132.955 15.5831C132.066 15.7334 131.458 15.9653 131.132 16.2785C130.869 16.5291 130.737 16.8675 130.737 17.2935C130.737 17.7697 130.9 18.133 131.226 18.3836C131.552 18.6343 132.022 18.7596 132.636 18.7596Z" fill="black"/>
<path d="M119.915 19.9998H118.43V6.4668H120.234V11.5793C120.998 10.4891 122.089 9.94402 123.505 9.94402C124.908 9.94402 125.998 10.4452 126.775 11.4477C127.464 12.3499 127.809 13.5465 127.809 15.0377C127.809 16.8045 127.339 18.1578 126.399 19.0976C125.61 19.887 124.601 20.2817 123.373 20.2817C121.982 20.2817 120.923 19.7554 120.196 18.7029L119.915 19.9998ZM125.929 15.0001C125.929 13.7721 125.622 12.8511 125.008 12.2371C124.52 11.7359 123.88 11.4853 123.091 11.4853C122.176 11.4853 121.45 11.8173 120.911 12.4815C120.397 13.1205 120.14 13.9601 120.14 15.0001C120.14 16.2531 120.447 17.2117 121.061 17.8758C121.575 18.4522 122.251 18.7404 123.091 18.7404C124.031 18.7404 124.745 18.3959 125.234 17.7067C125.697 17.0676 125.929 16.1654 125.929 15.0001Z" fill="black"/>
<path d="M107.225 15.1132C107.225 13.3213 107.757 11.968 108.822 11.0533C109.674 10.314 110.752 9.94434 112.055 9.94434C113.571 9.94434 114.762 10.4268 115.626 11.3916C116.453 12.2938 116.867 13.5343 116.867 15.1132C116.867 16.88 116.347 18.227 115.307 19.1543C114.455 19.9061 113.365 20.282 112.036 20.282C110.52 20.282 109.323 19.7808 108.446 18.7784C107.632 17.8636 107.225 16.6419 107.225 15.1132ZM109.104 15.1132C109.104 16.3662 109.424 17.3248 110.063 17.9889C110.589 18.5403 111.259 18.8159 112.074 18.8159C113.026 18.8159 113.759 18.4588 114.273 17.7446C114.749 17.093 114.987 16.2159 114.987 15.1132C114.987 13.8351 114.674 12.8702 114.047 12.2186C113.534 11.6798 112.87 11.4104 112.055 11.4104C111.115 11.4104 110.382 11.7675 109.856 12.4818C109.355 13.1334 109.104 14.0105 109.104 15.1132Z" fill="black"/>
<path d="M105.651 6.4668V19.9998H103.847V6.4668H105.651Z" fill="black"/>
<path d="M101.823 12.726V20H100.413L100.15 18.3835C99.6986 19.0226 99.0784 19.505 98.2889 19.8308C97.5998 20.1315 96.8354 20.2819 95.9959 20.2819C94.1288 20.2819 92.6377 19.5927 91.5225 18.2144C90.5075 16.9363 90 15.2697 90 13.2147C90 10.8339 90.6829 9.00443 92.0487 7.72631C93.1514 6.69881 94.5361 6.18506 96.2026 6.18506C97.819 6.18506 99.1598 6.64869 100.225 7.57595C101.127 8.35284 101.653 9.30516 101.804 10.4329H99.9242C99.7488 9.54324 99.2914 8.86659 98.5521 8.40296C97.913 7.98945 97.1299 7.7827 96.2026 7.7827C94.8618 7.7827 93.8093 8.29019 93.0449 9.30516C92.3181 10.27 91.9548 11.5732 91.9548 13.2147C91.9548 15.0692 92.4435 16.4977 93.4208 17.5001C94.1852 18.3021 95.1187 18.7031 96.2214 18.7031C97.3742 18.7031 98.3265 18.3459 99.0784 17.6317C99.755 17.0052 100.093 16.2345 100.093 15.3198V14.2672H96.1274V12.726H101.823Z" fill="black"/>
</svg>
