<svg width="378" height="24" viewBox="0 0 378 24" fill="none" xmlns="http://www.w3.org/2000/svg">
<path d="M19.9476 6.21973H23.0852L18.5234 20.0087H14.924L11.5145 9.60331L8.10505 20.0087H4.56179L0 6.21973H3.21095L6.44779 16.6985L9.84432 6.21973H13.2538L16.7064 16.7546L19.9476 6.21973Z" fill="black"/>
<path d="M36.5418 14.2212H26.3651C26.4591 14.9322 26.7258 15.6094 27.142 16.1935C27.5107 16.7045 28.0101 17.107 28.5878 17.3587C29.1762 17.6129 29.8113 17.7408 30.4522 17.7342C31.1626 17.7315 31.8669 17.6029 32.5324 17.3544C33.2224 17.1021 33.8667 16.7392 34.44 16.2798L35.9376 18.4377C35.1739 19.1036 34.2846 19.6098 33.3222 19.9266C32.3337 20.2369 31.3026 20.3898 30.2666 20.3798C28.9906 20.4049 27.7303 20.0954 26.6111 19.4821C25.5525 18.8889 24.6855 18.0054 24.1123 16.9358C23.4957 15.7634 23.1868 14.4536 23.2146 13.1293C23.1882 11.8174 23.4846 10.5191 24.0778 9.34863C24.629 8.28405 25.4698 7.39688 26.5032 6.78937C27.5876 6.16532 28.8216 5.84898 30.0724 5.87442C31.2528 5.84176 32.4175 6.15007 33.4271 6.76242C34.4367 7.37478 35.2484 8.26521 35.7649 9.32705C36.3352 10.5013 36.6191 11.7939 36.5936 13.0991C36.5979 13.3882 36.5806 13.7637 36.5418 14.2212ZM33.5207 11.9338C33.428 10.9888 33.0224 10.1018 32.3684 9.41337C32.0549 9.11952 31.6855 8.89169 31.2821 8.74342C30.8788 8.59514 30.4498 8.52943 30.0206 8.55021C29.5688 8.52953 29.1175 8.59987 28.6934 8.75704C28.2693 8.91422 27.8812 9.15502 27.552 9.46516C26.9002 10.1435 26.484 11.0136 26.3651 11.9467L33.5207 11.9338Z" fill="black"/>
<path d="M49.4162 6.79789C50.466 7.41887 51.3269 8.31407 51.9064 9.38736C52.5261 10.5313 52.8411 11.8154 52.8214 13.1162C52.8412 14.4157 52.5261 15.6983 51.9064 16.8407C51.3268 17.919 50.4627 18.8177 49.4081 19.4393C48.3536 20.061 47.1488 20.3817 45.9247 20.3667C45.0657 20.3847 44.2139 20.2061 43.4345 19.8445C42.7202 19.5001 42.0954 18.9949 41.6089 18.3685V20.0085H38.5879V0.350098H41.6089V7.85957C42.0974 7.23746 42.7219 6.7355 43.4345 6.3922C44.2129 6.02706 45.0652 5.84685 45.9247 5.86568C47.152 5.85066 48.3598 6.17313 49.4162 6.79789ZM47.7676 16.9443C48.3942 16.5591 48.8986 16.0038 49.222 15.3432C49.554 14.6469 49.7263 13.8854 49.7263 13.114C49.7263 12.3427 49.554 11.5812 49.222 10.8849C48.8972 10.2252 48.3932 9.6703 47.7676 9.28378C47.1026 8.90338 46.3499 8.70327 45.5838 8.70327C44.8177 8.70327 44.0649 8.90338 43.4 9.28378C42.7728 9.66465 42.2645 10.2133 41.9326 10.8677C41.5737 11.5667 41.3928 12.3435 41.4061 13.1292C41.3924 13.9135 41.5733 14.689 41.9326 15.3863C42.2645 16.0407 42.7728 16.5893 43.4 16.9702C44.0649 17.3506 44.8177 17.5507 45.5838 17.5507C46.3499 17.5507 47.1026 17.3506 47.7676 16.9702V16.9443Z" fill="black"/>
<path d="M67.7272 14.2212H57.5549C57.6488 14.9322 57.9155 15.6094 58.3317 16.1935C58.7004 16.7046 59.1998 17.1071 59.7775 17.3588C60.3659 17.6129 61.001 17.7408 61.6419 17.7342C62.3523 17.7309 63.0565 17.6023 63.7221 17.3545C64.4121 17.1022 65.0564 16.7392 65.6297 16.2798L67.123 18.4377C66.3615 19.1044 65.4735 19.6108 64.5119 19.9267C63.5219 20.2367 62.4894 20.3896 61.452 20.3798C60.1762 20.4036 58.9163 20.0942 57.7966 19.4821C56.7401 18.8875 55.8749 18.0043 55.302 16.9358C54.6841 15.7638 54.3737 14.454 54.4 13.1293C54.3738 11.8174 54.6702 10.5192 55.2632 9.34866C55.8144 8.28408 56.6552 7.39691 57.6887 6.7894C58.7792 6.15625 60.023 5.83524 61.2837 5.86151C62.4638 5.83045 63.6279 6.13943 64.6372 6.75161C65.6465 7.36378 66.4585 8.25331 66.9763 9.31414C67.5465 10.4884 67.8304 11.781 67.8049 13.0861C67.7876 13.3882 67.7574 13.7637 67.7272 14.2212ZM64.7061 11.9338C64.6066 10.9949 64.2 10.115 63.5495 9.43066C63.2381 9.1352 62.8707 8.90507 62.469 8.75386C62.0672 8.60265 61.6393 8.53342 61.2104 8.55024C60.7585 8.52907 60.307 8.59917 59.8829 8.75638C59.4587 8.91358 59.0706 9.15465 58.7417 9.46519C58.0884 10.1424 57.672 11.0131 57.5549 11.9468L64.7061 11.9338Z" fill="black"/>
<path d="M82.0773 20.0087H78.3787L74.8829 15.2138L71.4303 20.0087H67.9043L73.0832 12.9696L67.9863 6.21973H71.6892L75.0556 10.8247L78.4219 6.21973H81.9997L76.8811 12.9437L82.0773 20.0087Z" fill="black"/>
<path d="M95.77 7.90012C95.47 7.83012 95.2 7.77012 94.96 7.73012C94.7302 7.71631 94.4998 7.71631 94.27 7.73012C94.1302 7.72203 93.9901 7.74172 93.858 7.78806C93.7258 7.83441 93.6041 7.90648 93.5 8.00012C93.4085 8.09758 93.3374 8.21239 93.2911 8.33778C93.2447 8.46316 93.2239 8.59657 93.23 8.73012V10.2301H95.35V11.7001H93.23V20.0001H91.41V11.7001H90V10.1801H91.46V8.80012C91.4369 8.43186 91.4928 8.0629 91.6238 7.71798C91.7549 7.37305 91.9582 7.06011 92.22 6.80012C92.4887 6.55254 92.8038 6.36058 93.1471 6.2353C93.4903 6.11001 93.855 6.05387 94.22 6.07012C94.5083 6.06522 94.7963 6.08867 95.08 6.14012C95.33 6.14012 95.58 6.24012 95.83 6.30012L95.77 7.90012Z" fill="black"/>
<path d="M95.87 15.1101C95.851 14.3231 95.9799 13.5396 96.25 12.8001C96.4797 12.1857 96.8416 11.6293 97.31 11.1701C97.7429 10.7268 98.2689 10.3852 98.85 10.1701C99.4575 9.95883 100.097 9.85395 100.74 9.86012C101.386 9.85479 102.029 9.95962 102.64 10.1701C103.222 10.3827 103.749 10.7246 104.18 11.1701C104.625 11.6369 104.965 12.1923 105.18 12.8001C105.445 13.5408 105.574 14.3235 105.56 15.1101C105.572 15.8827 105.446 16.6512 105.19 17.3801C104.975 17.9876 104.634 18.543 104.19 19.0101C103.755 19.4507 103.229 19.7918 102.65 20.0101C102.028 20.2344 101.371 20.3461 100.71 20.3401C100.059 20.3453 99.4118 20.2336 98.8 20.0101C98.2179 19.7911 97.6894 19.4502 97.25 19.0101C96.8022 18.5459 96.461 17.9896 96.25 17.3801C95.9841 16.6534 95.8553 15.8838 95.87 15.1101ZM97.76 15.1101C97.7572 15.6493 97.8382 16.1857 98 16.7001C98.1278 17.1321 98.3421 17.5336 98.63 17.8801C98.8823 18.1883 99.2046 18.4317 99.57 18.5901C99.9493 18.7517 100.358 18.8334 100.77 18.8301C101.172 18.8417 101.572 18.7623 101.939 18.5978C102.306 18.4333 102.631 18.1879 102.89 17.8801C103.493 17.0803 103.784 16.0888 103.71 15.0901C103.718 14.5382 103.64 13.9883 103.48 13.4601C103.349 13.0314 103.139 12.631 102.86 12.2801C102.603 11.9798 102.281 11.7407 101.92 11.5801C101.549 11.4294 101.151 11.3546 100.75 11.3601C100.345 11.3541 99.9431 11.4324 99.57 11.5901C99.2065 11.7518 98.8849 11.9947 98.63 12.3001C98.3439 12.6516 98.1298 13.0559 98 13.4901C97.8354 14.0142 97.7544 14.5609 97.76 15.1101Z" fill="black"/>
<path d="M107.11 20.0401V10.1801H108.61L108.86 11.6401C109.049 11.129 109.39 10.688 109.837 10.3768C110.284 10.0656 110.816 9.89923 111.36 9.90008C111.573 9.88357 111.787 9.88357 112 9.90008L112.44 9.99008V11.8101C112.26 11.7585 112.076 11.7184 111.89 11.6901C111.691 11.6695 111.49 11.6695 111.29 11.6901C110.981 11.6879 110.675 11.7492 110.39 11.8701C110.093 11.9974 109.834 12.2009 109.64 12.4601C109.399 12.7755 109.222 13.1358 109.12 13.5201C108.986 14.0358 108.923 14.5673 108.93 15.1001V20.0501L107.11 20.0401Z" fill="black"/>
<path d="M123 6.39038C123.928 6.37844 124.853 6.51344 125.74 6.79038C126.535 7.04502 127.263 7.47569 127.87 8.05038C128.475 8.64679 128.94 9.37114 129.23 10.1704C129.568 11.1337 129.734 12.1493 129.72 13.1704C129.737 14.1705 129.564 15.1649 129.21 16.1004C128.905 16.9101 128.424 17.6413 127.8 18.2404C127.175 18.8223 126.436 19.2683 125.63 19.5504C124.742 19.8549 123.808 20.0037 122.87 19.9904H118.56V6.39038H123ZM120.5 7.92038V18.4504H123C123.64 18.49 124.282 18.3928 124.882 18.1652C125.482 17.9376 126.026 17.5848 126.48 17.1304C127.366 16.0283 127.802 14.6311 127.7 13.2204C127.714 12.4245 127.603 11.6313 127.37 10.8704C127.176 10.2583 126.852 9.6954 126.42 9.22038C126.009 8.77433 125.498 8.43169 124.93 8.22038C124.289 7.98831 123.611 7.87644 122.93 7.89038L120.5 7.92038Z" fill="black"/>
<path d="M140 17.2C139.881 17.6441 139.692 18.0661 139.44 18.45C139.183 18.8325 138.865 19.1703 138.5 19.45C138.104 19.7294 137.669 19.9485 137.21 20.1C136.686 20.265 136.139 20.346 135.59 20.34C134.909 20.3518 134.232 20.2435 133.59 20.02C133.011 19.806 132.488 19.4642 132.06 19.02C131.614 18.554 131.273 17.9983 131.06 17.39C130.806 16.6537 130.684 15.8785 130.7 15.1C130.685 14.3313 130.807 13.5661 131.06 12.84C131.274 12.2291 131.615 11.6704 132.06 11.2C132.474 10.7581 132.984 10.4162 133.55 10.2C134.773 9.77319 136.106 9.77319 137.33 10.2C137.891 10.4085 138.392 10.7519 138.79 11.2C139.238 11.7094 139.578 12.3048 139.79 12.95C140.03 13.7815 140.145 14.6444 140.13 15.51H132.62C132.615 16.4417 132.974 17.3385 133.62 18.01C134.181 18.5304 134.924 18.8104 135.69 18.79C136.241 18.8061 136.783 18.6487 137.24 18.34C137.607 18.0496 137.873 17.6506 138 17.2H140ZM135.53 11.36C134.844 11.3396 134.176 11.5789 133.66 12.03C133.102 12.5589 132.748 13.2667 132.66 14.03H138.24C138.233 13.2789 137.931 12.5605 137.4 12.03C136.871 11.5728 136.188 11.3334 135.49 11.36H135.53Z" fill="black"/>
<path d="M149.54 10.1802L146.07 20.0402H143.61L140.17 10.1802H142.17L144.9 18.5602L147.65 10.1802H149.54Z" fill="black"/>
<path d="M158.8 17.2001C158.674 17.6431 158.482 18.0645 158.23 18.4501C157.977 18.8351 157.659 19.1734 157.29 19.4501C156.897 19.7335 156.462 19.9529 156 20.1001C155.476 20.266 154.929 20.347 154.38 20.3401C153.72 20.347 153.063 20.2387 152.44 20.0201C151.861 19.8062 151.338 19.4643 150.91 19.0201C150.465 18.5538 150.124 17.9982 149.91 17.3901C149.657 16.6538 149.535 15.8787 149.55 15.1001C149.536 14.3314 149.657 13.5662 149.91 12.8401C150.125 12.2293 150.465 11.6705 150.91 11.2001C151.33 10.7599 151.842 10.4183 152.41 10.2001C153.018 9.97485 153.662 9.863 154.31 9.87012C154.947 9.86153 155.58 9.96651 156.18 10.1801C156.743 10.386 157.245 10.7299 157.64 11.1801C158.079 11.6882 158.403 12.2851 158.59 12.9301C158.835 13.7607 158.95 14.6243 158.93 15.4901H151.4C151.405 16.42 151.762 17.3136 152.4 17.9901C152.968 18.5067 153.713 18.7859 154.48 18.7701C155.028 18.7869 155.567 18.6293 156.02 18.3201C156.422 18.0452 156.721 17.6441 156.87 17.1801L158.8 17.2001ZM154.32 11.3601C153.638 11.3413 152.974 11.5805 152.46 12.0301C151.899 12.5565 151.545 13.2657 151.46 14.0301H157.03C157.024 13.279 156.722 12.5606 156.19 12.0301C155.672 11.5824 155.005 11.3436 154.32 11.3601Z" fill="black"/>
<path d="M162.35 20.0401H160.53V6.39014H162.35V20.0401Z" fill="black"/>
<path d="M163.86 15.1101C163.844 14.3225 163.976 13.5388 164.25 12.8001C164.479 12.1857 164.841 11.6293 165.31 11.1701C165.743 10.7268 166.269 10.3852 166.85 10.1701C167.457 9.95883 168.097 9.85395 168.74 9.86012C169.386 9.85479 170.029 9.95962 170.64 10.1701C171.222 10.3827 171.749 10.7246 172.18 11.1701C172.624 11.6369 172.965 12.1923 173.18 12.8001C173.442 13.5415 173.567 14.3241 173.55 15.1101C173.566 15.883 173.441 16.6525 173.18 17.3801C172.969 17.9896 172.627 18.5459 172.18 19.0101C171.741 19.4509 171.212 19.792 170.63 20.0101C170.011 20.2353 169.358 20.3471 168.7 20.3401C168.045 20.3446 167.395 20.2329 166.78 20.0101C166.201 19.791 165.675 19.45 165.24 19.0101C164.796 18.543 164.455 17.9876 164.24 17.3801C163.979 16.6521 163.85 15.8834 163.86 15.1101ZM165.76 15.1101C165.757 15.6493 165.838 16.1857 166 16.7001C166.128 17.1298 166.339 17.5306 166.62 17.8801C166.878 18.1866 167.203 18.4295 167.57 18.5901C167.949 18.7517 168.357 18.8334 168.77 18.8301C169.172 18.8417 169.571 18.7623 169.938 18.5978C170.306 18.4333 170.631 18.1879 170.89 17.8801C171.492 17.0803 171.784 16.0888 171.71 15.0901C171.718 14.5382 171.64 13.9883 171.48 13.4601C171.35 13.0291 171.136 12.628 170.85 12.2801C170.598 11.9779 170.28 11.7383 169.92 11.5801C169.548 11.4294 169.15 11.3546 168.75 11.3601C168.345 11.3541 167.943 11.4324 167.57 11.5901C167.205 11.7543 166.881 11.9967 166.62 12.3001C166.343 12.6487 166.133 13.0453 166 13.4701C165.833 14.0006 165.752 14.5542 165.76 15.1101Z" fill="black"/>
<path d="M176.61 10.1802L176.89 11.4702C177.264 11.0037 177.73 10.6191 178.26 10.3402C178.878 10.0263 179.566 9.87488 180.26 9.90018C180.87 9.89108 181.476 10.0068 182.04 10.2402C182.567 10.4642 183.036 10.8063 183.41 11.2402C183.811 11.7138 184.111 12.2654 184.29 12.8602C184.513 13.5683 184.621 14.3077 184.61 15.0502C184.625 15.8206 184.51 16.5882 184.27 17.3202C184.078 17.9269 183.765 18.4883 183.35 18.9702C182.952 19.4047 182.464 19.7462 181.92 19.9702C181.353 20.2059 180.744 20.325 180.13 20.3202C179.463 20.3407 178.801 20.1891 178.21 19.8802C177.714 19.6061 177.286 19.2232 176.96 18.7602V23.4502H175.14V10.1802H176.61ZM182.68 15.0002C182.691 14.4651 182.617 13.9317 182.46 13.4202C182.334 13.0147 182.13 12.6377 181.86 12.3102C181.607 12.0253 181.292 11.8028 180.94 11.6602C180.212 11.3629 179.397 11.3629 178.67 11.6602C178.309 11.8092 177.985 12.0344 177.72 12.3202C177.429 12.6417 177.208 13.0195 177.07 13.4302C176.911 13.9312 176.833 14.4545 176.84 14.9802C176.777 15.9761 177.063 16.9627 177.65 17.7702C177.91 18.0922 178.242 18.3499 178.618 18.5233C178.994 18.6967 179.405 18.7812 179.82 18.7702C180.211 18.7856 180.601 18.7117 180.96 18.554C181.318 18.3964 181.636 18.1591 181.89 17.8602C182.486 17.0319 182.767 16.0173 182.68 15.0002Z" fill="black"/>
<path d="M194.78 17.2001C194.662 17.6462 194.469 18.069 194.21 18.4501C193.959 18.8372 193.64 19.1759 193.27 19.4501C192.877 19.7335 192.441 19.9529 191.98 20.1001C191.456 20.2667 190.909 20.3477 190.36 20.3401C189.699 20.3462 189.043 20.238 188.42 20.0201C187.841 19.8062 187.318 19.4643 186.89 19.0201C186.444 18.5541 186.103 17.9984 185.89 17.3901C185.636 16.6539 185.514 15.8787 185.53 15.1001C185.515 14.3314 185.637 13.5662 185.89 12.8401C186.104 12.2291 186.444 11.6701 186.89 11.2001C187.309 10.7599 187.822 10.4183 188.39 10.2001C188.997 9.97486 189.641 9.86301 190.29 9.87013C190.93 9.86142 191.566 9.96638 192.17 10.1801C192.73 10.3912 193.23 10.7342 193.63 11.1801C194.062 11.6914 194.382 12.2875 194.57 12.9301C194.819 13.7601 194.937 14.6238 194.92 15.4901H187.4C187.404 16.4201 187.762 17.3136 188.4 17.9901C188.968 18.5067 189.712 18.7859 190.48 18.7701C191.028 18.7883 191.567 18.6306 192.02 18.3201C192.422 18.0453 192.721 17.6441 192.87 17.1801L194.78 17.2001ZM190.3 11.3601C189.617 11.3413 188.953 11.5805 188.44 12.0301C187.879 12.5565 187.524 13.2657 187.44 14.0301H193C192.985 13.2787 192.681 12.562 192.15 12.0301C191.636 11.5871 190.978 11.3486 190.3 11.3601Z" fill="black"/>
<path d="M196.51 20.0404V10.1804H198L198.24 11.6404C198.431 11.1293 198.774 10.6888 199.223 10.3778C199.671 10.0669 200.204 9.90032 200.75 9.90037C200.959 9.88347 201.17 9.88347 201.38 9.90037L201.83 9.99037V11.8104C201.649 11.7598 201.465 11.7198 201.28 11.6904C201.077 11.6696 200.873 11.6696 200.67 11.6904C200.361 11.6882 200.054 11.7494 199.77 11.8704C199.472 11.9977 199.214 12.2012 199.02 12.4604C198.777 12.7741 198.604 13.1352 198.51 13.5204C198.371 14.0352 198.307 14.5673 198.32 15.1004V20.0504L196.51 20.0404Z" fill="black"/>
<path d="M208.46 17.3701C208.469 17.1153 208.399 16.8641 208.26 16.6501C208.115 16.4459 207.919 16.2838 207.69 16.1801C207.402 16.0373 207.101 15.9234 206.79 15.8401L205.59 15.5501C204.685 15.4105 203.829 15.0461 203.1 14.4901C202.853 14.264 202.658 13.9868 202.528 13.6777C202.399 13.3686 202.338 13.035 202.35 12.7001C202.348 12.3116 202.437 11.928 202.611 11.5805C202.785 11.233 203.038 10.9313 203.35 10.7001C204.196 10.2024 205.159 9.93994 206.14 9.93994C207.122 9.93994 208.085 10.2024 208.93 10.7001C209.281 10.9462 209.578 11.2611 209.803 11.6255C210.028 11.99 210.177 12.3964 210.24 12.8201H208.38C208.34 12.6058 208.257 12.4016 208.137 12.2196C208.017 12.0376 207.862 11.8814 207.68 11.7601C207.231 11.4824 206.708 11.3497 206.18 11.3801C205.658 11.3396 205.135 11.4581 204.68 11.7201C204.536 11.8102 204.418 11.9355 204.335 12.0842C204.253 12.2329 204.21 12.4002 204.21 12.5701C204.207 12.7411 204.237 12.9111 204.3 13.0701C204.377 13.2313 204.498 13.3668 204.65 13.4601C204.862 13.6053 205.095 13.7166 205.34 13.7901C205.721 13.9121 206.108 14.0123 206.5 14.0901C207.07 14.2201 207.59 14.3601 208.07 14.5201C208.499 14.6514 208.905 14.8506 209.27 15.1101C209.594 15.3419 209.858 15.6468 210.04 16.0001C210.241 16.396 210.337 16.8366 210.32 17.2801C210.328 17.7099 210.231 18.1351 210.04 18.5201C209.853 18.9096 209.579 19.2515 209.24 19.5201C208.852 19.8079 208.415 20.0246 207.95 20.1601C207.381 20.3201 206.792 20.3976 206.2 20.3901C205.134 20.4455 204.079 20.1466 203.2 19.5401C202.838 19.2783 202.537 18.9403 202.32 18.5499C202.102 18.1594 201.973 17.726 201.94 17.2801H203.8C203.827 17.5359 203.908 17.7829 204.039 18.0039C204.171 18.225 204.348 18.4148 204.56 18.5601C205.061 18.8461 205.634 18.9815 206.21 18.9501C206.807 18.991 207.4 18.8365 207.9 18.5101C208.083 18.3832 208.23 18.212 208.328 18.0125C208.426 17.8131 208.471 17.592 208.46 17.3701Z" fill="black"/>
</svg>
