<svg width="378" height="24" viewBox="0 0 378 24" fill="none" xmlns="http://www.w3.org/2000/svg">
<path d="M19.9476 6.21973H23.0852L18.5234 20.0087H14.924L11.5145 9.60331L8.10505 20.0087H4.56179L0 6.21973H3.21095L6.44779 16.6985L9.84432 6.21973H13.2538L16.7064 16.7546L19.9476 6.21973Z" fill="white"/>
<path d="M36.5418 14.2212H26.3651C26.4591 14.9322 26.7258 15.6094 27.142 16.1935C27.5107 16.7045 28.0101 17.107 28.5878 17.3587C29.1762 17.6129 29.8113 17.7408 30.4522 17.7342C31.1626 17.7315 31.8669 17.6029 32.5324 17.3544C33.2224 17.1021 33.8667 16.7392 34.44 16.2798L35.9376 18.4377C35.1739 19.1036 34.2846 19.6098 33.3222 19.9266C32.3337 20.2369 31.3026 20.3898 30.2666 20.3798C28.9906 20.4049 27.7303 20.0954 26.6111 19.4821C25.5525 18.8889 24.6855 18.0054 24.1123 16.9358C23.4957 15.7634 23.1868 14.4536 23.2146 13.1293C23.1882 11.8174 23.4846 10.5191 24.0778 9.34863C24.629 8.28405 25.4698 7.39688 26.5032 6.78937C27.5876 6.16532 28.8216 5.84898 30.0724 5.87442C31.2528 5.84176 32.4175 6.15007 33.4271 6.76242C34.4367 7.37478 35.2484 8.26521 35.7649 9.32705C36.3352 10.5013 36.6191 11.7939 36.5936 13.0991C36.5979 13.3882 36.5806 13.7637 36.5418 14.2212ZM33.5207 11.9338C33.428 10.9888 33.0224 10.1018 32.3684 9.41337C32.0549 9.11952 31.6855 8.89169 31.2821 8.74342C30.8788 8.59514 30.4498 8.52943 30.0206 8.55021C29.5688 8.52953 29.1175 8.59987 28.6934 8.75704C28.2693 8.91422 27.8812 9.15502 27.552 9.46516C26.9002 10.1435 26.484 11.0136 26.3651 11.9467L33.5207 11.9338Z" fill="white"/>
<path d="M49.4162 6.79789C50.466 7.41887 51.3269 8.31407 51.9064 9.38736C52.5261 10.5313 52.8411 11.8154 52.8214 13.1162C52.8412 14.4157 52.5261 15.6983 51.9064 16.8407C51.3268 17.919 50.4627 18.8177 49.4081 19.4393C48.3536 20.061 47.1488 20.3817 45.9247 20.3667C45.0657 20.3847 44.2139 20.2061 43.4345 19.8445C42.7202 19.5001 42.0954 18.9949 41.6089 18.3685V20.0085H38.5879V0.350098H41.6089V7.85957C42.0974 7.23746 42.7219 6.7355 43.4345 6.3922C44.2129 6.02706 45.0652 5.84685 45.9247 5.86568C47.152 5.85066 48.3598 6.17313 49.4162 6.79789ZM47.7676 16.9443C48.3942 16.5591 48.8986 16.0038 49.222 15.3432C49.554 14.6469 49.7263 13.8854 49.7263 13.114C49.7263 12.3427 49.554 11.5812 49.222 10.8849C48.8972 10.2252 48.3932 9.6703 47.7676 9.28378C47.1026 8.90338 46.3499 8.70327 45.5838 8.70327C44.8177 8.70327 44.0649 8.90338 43.4 9.28378C42.7728 9.66465 42.2645 10.2133 41.9326 10.8677C41.5737 11.5667 41.3928 12.3435 41.4061 13.1292C41.3924 13.9135 41.5733 14.689 41.9326 15.3863C42.2645 16.0407 42.7728 16.5893 43.4 16.9702C44.0649 17.3506 44.8177 17.5507 45.5838 17.5507C46.3499 17.5507 47.1026 17.3506 47.7676 16.9702V16.9443Z" fill="white"/>
<path d="M67.7272 14.2212H57.5549C57.6488 14.9322 57.9155 15.6094 58.3317 16.1935C58.7004 16.7046 59.1998 17.1071 59.7775 17.3588C60.3659 17.6129 61.001 17.7408 61.6419 17.7342C62.3523 17.7309 63.0565 17.6023 63.7221 17.3545C64.4121 17.1022 65.0564 16.7392 65.6297 16.2798L67.123 18.4377C66.3615 19.1044 65.4735 19.6108 64.5119 19.9267C63.5219 20.2367 62.4894 20.3896 61.452 20.3798C60.1762 20.4036 58.9163 20.0942 57.7966 19.4821C56.7401 18.8875 55.8749 18.0043 55.302 16.9358C54.6841 15.7638 54.3737 14.454 54.4 13.1293C54.3738 11.8174 54.6702 10.5192 55.2632 9.34866C55.8144 8.28408 56.6552 7.39691 57.6887 6.7894C58.7792 6.15625 60.023 5.83524 61.2837 5.86151C62.4638 5.83045 63.6279 6.13943 64.6372 6.75161C65.6465 7.36378 66.4585 8.25331 66.9763 9.31414C67.5465 10.4884 67.8304 11.781 67.8049 13.0861C67.7876 13.3882 67.7574 13.7637 67.7272 14.2212ZM64.7061 11.9338C64.6066 10.9949 64.2 10.115 63.5495 9.43066C63.2381 9.1352 62.8707 8.90507 62.469 8.75386C62.0672 8.60265 61.6393 8.53342 61.2104 8.55024C60.7585 8.52907 60.307 8.59917 59.8829 8.75638C59.4587 8.91358 59.0706 9.15465 58.7417 9.46519C58.0884 10.1424 57.672 11.0131 57.5549 11.9468L64.7061 11.9338Z" fill="white"/>
<path d="M82.0773 20.0087H78.3787L74.8829 15.2138L71.4303 20.0087H67.9043L73.0832 12.9696L67.9863 6.21973H71.6892L75.0556 10.8247L78.4219 6.21973H81.9997L76.8811 12.9437L82.0773 20.0087Z" fill="white"/>
<path d="M101.348 20.0271L99.9834 16.5412H93.4276L92.0466 20.0271H90L95.6656 6.25H97.8619L103.503 20.0271H101.348ZM94.0599 14.9522H99.3594L96.7305 8.20508L94.0599 14.9522Z" fill="white"/>
<path d="M107.296 15.4928C104.959 14.977 104.027 14.0951 104.027 12.6226C104.027 10.9171 105.383 9.79395 107.895 9.79395C110.117 9.79395 111.647 10.8838 111.972 12.7058H110.1C109.884 11.7823 109.135 11.2415 107.87 11.2415C106.489 11.2415 105.882 11.7573 105.882 12.4479C105.882 13.2133 106.281 13.5543 108.195 13.9786C110.508 14.4945 112.038 15.1434 112.038 17.19C112.038 19.0036 110.524 20.3098 107.887 20.3098C105.4 20.3098 103.777 19.0868 103.603 17.1733H105.474C105.682 18.363 106.506 18.8539 107.904 18.8539C109.393 18.8539 110.183 18.1883 110.183 17.3231C110.183 16.1583 109.077 15.8921 107.296 15.4928Z" fill="white"/>
<path d="M116.464 15.4928C114.127 14.977 113.195 14.0951 113.195 12.6226C113.195 10.9171 114.551 9.79395 117.063 9.79395C119.285 9.79395 120.815 10.8838 121.14 12.7058H119.268C119.043 11.7823 118.303 11.2415 117.038 11.2415C115.657 11.2415 115.05 11.7573 115.05 12.4479C115.05 13.2133 115.449 13.5543 117.363 13.9786C119.676 14.4945 121.206 15.1434 121.206 17.19C121.206 19.0036 119.692 20.3098 117.055 20.3098C114.568 20.3098 112.945 19.0868 112.771 17.1733H114.642C114.85 18.363 115.674 18.8539 117.072 18.8539C118.561 18.8539 119.351 18.1883 119.351 17.3231C119.351 16.1583 118.245 15.8921 116.464 15.4928Z" fill="white"/>
<path d="M122.721 8.41306V6.25H124.784V8.41306H122.721ZM122.837 20.0271V10.077H124.676V20.0271H122.837Z" fill="white"/>
<path d="M129.801 15.4928C127.463 14.977 126.532 14.0951 126.532 12.6226C126.532 10.9171 127.888 9.79395 130.392 9.79395C132.613 9.79395 134.144 10.8838 134.468 12.7058H132.597C132.38 11.7823 131.64 11.2415 130.375 11.2415C128.994 11.2415 128.387 11.7573 128.387 12.4479C128.387 13.2133 128.786 13.5543 130.7 13.9786C133.013 14.4945 134.543 15.1434 134.543 17.19C134.543 19.0036 133.029 20.3098 130.392 20.3098C127.904 20.3098 126.282 19.0868 126.107 17.1733H127.979C128.187 18.363 129.011 18.8539 130.409 18.8539C131.898 18.8539 132.688 18.1883 132.688 17.3231C132.688 16.1583 131.582 15.8921 129.801 15.4928Z" fill="white"/>
<path d="M140.608 20.1188C140.109 20.2519 139.71 20.3101 139.252 20.3101C137.488 20.3101 136.59 19.2036 136.59 17.5564V11.6412H135.117V10.0771H136.59L136.706 7.68945H138.428V10.0771H140.575V11.6495H138.428V17.598C138.428 18.3467 138.794 18.7044 139.477 18.7044C139.801 18.7044 140.051 18.6878 140.608 18.5547V20.1188Z" fill="white"/>
</svg>
