<svg width="378" height="24" viewBox="0 0 378 24" fill="none" xmlns="http://www.w3.org/2000/svg">
<path d="M19.9476 6.21973H23.0852L18.5234 20.0087H14.924L11.5145 9.60331L8.10505 20.0087H4.56179L0 6.21973H3.21095L6.44779 16.6985L9.84432 6.21973H13.2538L16.7064 16.7546L19.9476 6.21973Z" fill="black"/>
<path d="M36.5418 14.2212H26.3651C26.4591 14.9322 26.7258 15.6094 27.142 16.1935C27.5107 16.7045 28.0101 17.107 28.5878 17.3587C29.1762 17.6129 29.8113 17.7408 30.4522 17.7342C31.1626 17.7315 31.8669 17.6029 32.5324 17.3544C33.2224 17.1021 33.8667 16.7392 34.44 16.2798L35.9376 18.4377C35.1739 19.1036 34.2846 19.6098 33.3222 19.9266C32.3337 20.2369 31.3026 20.3898 30.2666 20.3798C28.9906 20.4049 27.7303 20.0954 26.6111 19.4821C25.5525 18.8889 24.6855 18.0054 24.1123 16.9358C23.4957 15.7634 23.1868 14.4536 23.2146 13.1293C23.1882 11.8174 23.4846 10.5191 24.0778 9.34863C24.629 8.28405 25.4698 7.39688 26.5032 6.78937C27.5876 6.16532 28.8216 5.84898 30.0724 5.87442C31.2528 5.84176 32.4175 6.15007 33.4271 6.76242C34.4367 7.37478 35.2484 8.26521 35.7649 9.32705C36.3352 10.5013 36.6191 11.7939 36.5936 13.0991C36.5979 13.3882 36.5806 13.7637 36.5418 14.2212ZM33.5207 11.9338C33.428 10.9888 33.0224 10.1018 32.3684 9.41337C32.0549 9.11952 31.6855 8.89169 31.2821 8.74342C30.8788 8.59514 30.4498 8.52943 30.0206 8.55021C29.5688 8.52953 29.1175 8.59987 28.6934 8.75704C28.2693 8.91422 27.8812 9.15502 27.552 9.46516C26.9002 10.1435 26.484 11.0136 26.3651 11.9467L33.5207 11.9338Z" fill="black"/>
<path d="M49.4162 6.79789C50.466 7.41887 51.3269 8.31407 51.9064 9.38736C52.5261 10.5313 52.8411 11.8154 52.8214 13.1162C52.8412 14.4157 52.5261 15.6983 51.9064 16.8407C51.3268 17.919 50.4627 18.8177 49.4081 19.4393C48.3536 20.061 47.1488 20.3817 45.9247 20.3667C45.0657 20.3847 44.2139 20.2061 43.4345 19.8445C42.7202 19.5001 42.0954 18.9949 41.6089 18.3685V20.0085H38.5879V0.350098H41.6089V7.85957C42.0974 7.23746 42.7219 6.7355 43.4345 6.3922C44.2129 6.02706 45.0652 5.84685 45.9247 5.86568C47.152 5.85066 48.3598 6.17313 49.4162 6.79789ZM47.7676 16.9443C48.3942 16.5591 48.8986 16.0038 49.222 15.3432C49.554 14.6469 49.7263 13.8854 49.7263 13.114C49.7263 12.3427 49.554 11.5812 49.222 10.8849C48.8972 10.2252 48.3932 9.6703 47.7676 9.28378C47.1026 8.90338 46.3499 8.70327 45.5838 8.70327C44.8177 8.70327 44.0649 8.90338 43.4 9.28378C42.7728 9.66465 42.2645 10.2133 41.9326 10.8677C41.5737 11.5667 41.3928 12.3435 41.4061 13.1292C41.3924 13.9135 41.5733 14.689 41.9326 15.3863C42.2645 16.0407 42.7728 16.5893 43.4 16.9702C44.0649 17.3506 44.8177 17.5507 45.5838 17.5507C46.3499 17.5507 47.1026 17.3506 47.7676 16.9702V16.9443Z" fill="black"/>
<path d="M67.7272 14.2212H57.5549C57.6488 14.9322 57.9155 15.6094 58.3317 16.1935C58.7004 16.7046 59.1998 17.1071 59.7775 17.3588C60.3659 17.6129 61.001 17.7408 61.6419 17.7342C62.3523 17.7309 63.0565 17.6023 63.7221 17.3545C64.4121 17.1022 65.0564 16.7392 65.6297 16.2798L67.123 18.4377C66.3615 19.1044 65.4735 19.6108 64.5119 19.9267C63.5219 20.2367 62.4894 20.3896 61.452 20.3798C60.1762 20.4036 58.9163 20.0942 57.7966 19.4821C56.7401 18.8875 55.8749 18.0043 55.302 16.9358C54.6841 15.7638 54.3737 14.454 54.4 13.1293C54.3738 11.8174 54.6702 10.5192 55.2632 9.34866C55.8144 8.28408 56.6552 7.39691 57.6887 6.7894C58.7792 6.15625 60.023 5.83524 61.2837 5.86151C62.4638 5.83045 63.6279 6.13943 64.6372 6.75161C65.6465 7.36378 66.4585 8.25331 66.9763 9.31414C67.5465 10.4884 67.8304 11.781 67.8049 13.0861C67.7876 13.3882 67.7574 13.7637 67.7272 14.2212ZM64.7061 11.9338C64.6066 10.9949 64.2 10.115 63.5495 9.43066C63.2381 9.1352 62.8707 8.90507 62.469 8.75386C62.0672 8.60265 61.6393 8.53342 61.2104 8.55024C60.7585 8.52907 60.307 8.59917 59.8829 8.75638C59.4587 8.91358 59.0706 9.15465 58.7417 9.46519C58.0884 10.1424 57.672 11.0131 57.5549 11.9468L64.7061 11.9338Z" fill="black"/>
<path d="M82.0773 20.0087H78.3787L74.8829 15.2138L71.4303 20.0087H67.9043L73.0832 12.9696L67.9863 6.21973H71.6892L75.0556 10.8247L78.4219 6.21973H81.9997L76.8811 12.9437L82.0773 20.0087Z" fill="black"/>
<path d="M100.357 15.158H102.33C102.18 17.8388 99.8239 20.3114 96.3189 20.3114C92.4726 20.3114 90 17.7222 90 13.1266C90 8.4811 92.6808 5.9502 96.4688 5.9502C99.7823 5.9502 102.113 8.13144 102.305 10.6623H100.332C100.082 8.78914 98.5918 7.58196 96.4605 7.58196C93.8213 7.58196 91.9814 9.39689 91.9814 13.135C91.9814 16.6982 93.7631 18.6713 96.3439 18.6713C98.6001 18.663 100.24 17.1478 100.357 15.158Z" fill="black"/>
<path d="M103.579 12.844C103.77 11.0041 105.36 9.78027 107.85 9.78027C110.455 9.78027 111.904 11.1789 111.904 13.227V20.0205H110.389L110.156 18.6634C109.506 19.5792 108.432 20.3118 106.826 20.3118C104.644 20.3118 103.379 19.088 103.379 17.4562C103.379 15.6413 104.47 14.6007 107.15 14.1428L110.064 13.6432V13.1437C110.064 11.9199 109.24 11.2289 107.766 11.2289C106.351 11.2289 105.66 11.845 105.527 12.8357H103.579V12.844ZM110.064 16.3656V15.0835L107.592 15.5248C105.81 15.8328 105.335 16.3823 105.335 17.2648C105.335 18.2222 106.026 18.755 107.267 18.755C108.666 18.755 110.064 17.7227 110.064 16.3656Z" fill="black"/>
<path d="M114.026 20.0288V10.0717H115.542L115.733 11.2372C116.457 10.1882 117.548 9.78027 118.664 9.78027C119.987 9.78027 121.036 10.3131 121.594 11.3538C122.36 10.1466 123.625 9.78027 124.833 9.78027C126.864 9.78027 128.204 10.9874 128.204 13.3602V20.0204H126.365V13.5017C126.365 11.9865 125.715 11.3538 124.433 11.3538C122.959 11.3538 122.044 12.5942 122.044 13.9596V20.0288H120.204V13.5017C120.204 11.9698 119.538 11.3538 118.272 11.3538C116.932 11.3538 115.883 12.486 115.883 13.9013V20.0288H114.026Z" fill="black"/>
<path d="M131.803 10.0633L132.086 11.3621C132.794 10.4463 133.926 9.78027 135.458 9.78027C138.081 9.78027 139.846 11.6535 139.846 14.967C139.846 18.4137 137.947 20.3118 135.325 20.3118C133.81 20.3118 132.761 19.6625 132.128 18.7383V23.4671H130.288V10.0633H131.803ZM135.034 11.3454C133.385 11.3454 132.028 12.5526 132.028 14.9253C132.028 17.3397 133.235 18.7383 135.034 18.7383C136.757 18.7383 137.922 17.5478 137.922 14.9253C137.931 12.4777 136.682 11.3454 135.034 11.3454Z" fill="black"/>
<path d="M141.085 12.844C141.276 11.0041 142.866 9.78027 145.355 9.78027C147.961 9.78027 149.41 11.1789 149.41 13.227V20.0205H147.895L147.662 18.6634C147.012 19.5792 145.938 20.3118 144.331 20.3118C142.15 20.3118 140.885 19.088 140.885 17.4562C140.885 15.6413 141.975 14.6007 144.656 14.1428L147.57 13.6432V13.1437C147.57 11.9199 146.746 11.2289 145.272 11.2289C143.857 11.2289 143.166 11.845 143.033 12.8357H141.085V12.844ZM147.578 16.3656V15.0835L145.106 15.5248C143.324 15.8328 142.85 16.3823 142.85 17.2648C142.85 18.2222 143.541 18.755 144.781 18.755C146.18 18.755 147.578 17.7227 147.578 16.3656Z" fill="black"/>
<path d="M151.407 8.39701V6.23242H153.472V8.39701H151.407ZM151.524 20.0192V10.0621H153.364V20.0192H151.524Z" fill="black"/>
<path d="M157.418 20.6948C157.593 21.6938 158.434 22.3016 159.891 22.3016C161.747 22.3016 162.705 21.3608 162.705 19.7207V18.4386C162.039 19.2212 160.923 19.7374 159.391 19.7374C157.06 19.7374 154.987 17.9974 154.987 14.8171C154.987 11.6951 156.802 9.78027 159.508 9.78027C161.056 9.78027 162.114 10.4463 162.747 11.3871L163.03 10.0633H164.545V19.804C164.545 22.0602 162.896 23.7502 159.949 23.7502C157.285 23.7502 155.778 22.543 155.454 20.6865H157.418V20.6948ZM159.791 18.1639C161.689 18.1639 162.796 16.9234 162.796 14.9087C162.796 12.5693 161.573 11.3454 159.791 11.3454C158.109 11.3454 156.902 12.4777 156.902 14.8504C156.902 16.9567 158.201 18.1639 159.791 18.1639Z" fill="black"/>
<path d="M166.742 20.0204V10.0633H168.257L168.466 11.3288C169.19 10.3131 170.305 9.78027 171.488 9.78027C173.652 9.78027 175.009 11.104 175.009 13.535V20.0288H173.169V13.5517C173.169 12.0614 172.403 11.3538 171.046 11.3538C169.723 11.3538 168.574 12.3112 168.574 13.8847V20.0288H166.742V20.0204Z" fill="black"/>
</svg>
