<svg width="32" height="32" viewBox="0 0 32 32" fill="none" xmlns="http://www.w3.org/2000/svg">
<path d="M16.75 11.25H5.25V12.75H16.75V11.25Z" fill="#27A17A"/>
<path d="M16 15H6V18C6 20.7614 8.23858 23 11 23C13.7614 23 16 20.7614 16 18V15Z" fill="#27A17A"/>
<path d="M5.25 8C5.25 4.82436 7.82436 2.25 11 2.25C14.1756 2.25 16.75 4.82436 16.75 8V18C16.75 20.9065 14.5935 23.3093 11.7932 23.6957C11.9095 24.6307 12.2702 25.6257 12.9964 26.4374C13.8898 27.4358 15.4194 28.25 18 28.25H19C19.4142 28.25 19.75 28.5858 19.75 29C19.75 29.4142 19.4142 29.75 19 29.75H3C2.58579 29.75 2.25 29.4142 2.25 29C2.25 28.5858 2.58579 28.25 3 28.25H12.7649C12.4348 28.0022 12.1401 27.7298 11.8786 27.4376C10.8637 26.3034 10.4079 24.934 10.2853 23.706C7.44694 23.3541 5.25 20.9336 5.25 18V8ZM11 22.25C13.3472 22.25 15.25 20.3472 15.25 18V8C15.25 5.65279 13.3472 3.75 11 3.75C8.65279 3.75 6.75 5.65279 6.75 8V18C6.75 20.3472 8.65279 22.25 11 22.25Z" fill="#0F0F0F"/>
<path d="M22.5 13.75C22.9142 13.75 23.25 14.0858 23.25 14.5V16.25H25C25.4142 16.25 25.75 16.5858 25.75 17C25.75 17.4142 25.4142 17.75 25 17.75H23.25V19.5C23.25 19.9142 22.9142 20.25 22.5 20.25C22.0858 20.25 21.75 19.9142 21.75 19.5V17.75H20C19.5858 17.75 19.25 17.4142 19.25 17C19.25 16.5858 19.5858 16.25 20 16.25H21.75V14.5C21.75 14.0858 22.0858 13.75 22.5 13.75Z" fill="#0F0F0F"/>
<path d="M27.25 7C27.25 6.58579 26.9142 6.25 26.5 6.25C26.0858 6.25 25.75 6.58579 25.75 7V8.75H24C23.5858 8.75 23.25 9.08579 23.25 9.5C23.25 9.91421 23.5858 10.25 24 10.25H25.75V12C25.75 12.4142 26.0858 12.75 26.5 12.75C26.9142 12.75 27.25 12.4142 27.25 12V10.25H29C29.4142 10.25 29.75 9.91421 29.75 9.5C29.75 9.08579 29.4142 8.75 29 8.75H27.25V7Z" fill="#0F0F0F"/>
</svg>
