<svg width="32" height="32" viewBox="0 0 32 32" fill="none" xmlns="http://www.w3.org/2000/svg">
<path d="M17 11H5V13H17V11Z" fill="#27A17A"/>
<path d="M16 15H6V18C6 20.7614 8.23858 23 11 23C13.7614 23 16 20.7614 16 18V15Z" fill="#27A17A"/>
<path d="M5 8C5 4.68629 7.68629 2 11 2C14.3137 2 17 4.68629 17 8V18C17 20.9463 14.8764 23.3965 12.0764 23.9037C12.2161 24.725 12.5575 25.5719 13.1827 26.2707C14.0197 27.2061 15.4759 28 18 28H19C19.5523 28 20 28.4477 20 29C20 29.5523 19.5523 30 19 30H3C2.44772 30 2 29.5523 2 29C2 28.4477 2.44772 28 3 28H12.0788C11.9431 27.8727 11.8143 27.7407 11.6923 27.6043C10.6893 26.4834 10.2131 25.1457 10.0588 23.9266C7.19219 23.475 5 20.9935 5 18V8ZM11 22C13.2091 22 15 20.2091 15 18V8C15 5.79086 13.2091 4 11 4C8.79086 4 7 5.79086 7 8V18C7 20.2091 8.79086 22 11 22Z" fill="#0F0F0F"/>
<path d="M24.5 8C25.0523 8 25.5 8.44772 25.5 9V12.5H29C29.5523 12.5 30 12.9477 30 13.5C30 14.0523 29.5523 14.5 29 14.5H25.5V18C25.5 18.5523 25.0523 19 24.5 19C23.9477 19 23.5 18.5523 23.5 18V14.5H20C19.4477 14.5 19 14.0523 19 13.5C19 12.9477 19.4477 12.5 20 12.5H23.5V9C23.5 8.44772 23.9477 8 24.5 8Z" fill="#0F0F0F"/>
</svg>
