<svg width="32" height="32" viewBox="0 0 32 32" fill="none" xmlns="http://www.w3.org/2000/svg">
<path d="M24.0023 28.2503H22.0228C20.7409 28.2806 19.4943 27.8282 18.5302 26.9827C17.5661 26.1372 16.9548 24.9603 16.8175 23.6854C18.1855 23.4882 19.4368 22.8053 20.3426 21.7614C21.2483 20.7175 21.7481 19.3824 21.7504 18.0003V8.00031C21.7504 6.47531 21.1446 5.01278 20.0662 3.93444C18.9879 2.85611 17.5254 2.25031 16.0004 2.25031C14.4754 2.25031 13.0128 2.85611 11.9345 3.93444C10.8562 5.01278 10.2504 6.47531 10.2504 8.00031V18.0003C10.2525 19.4006 10.7651 20.7522 11.6923 21.8016C12.6194 22.8511 13.8974 23.5265 15.2868 23.7012C15.3702 24.5833 15.6286 25.44 16.047 26.221C16.4653 27.0021 17.0351 27.692 17.7231 28.2503H8.00232C7.80341 28.2503 7.61264 28.3293 7.47199 28.47C7.33134 28.6106 7.25232 28.8014 7.25232 29.0003C7.25232 29.1992 7.33134 29.39 7.47199 29.5306C7.61264 29.6713 7.80341 29.7503 8.00232 29.7503H24.0023C24.2012 29.7503 24.392 29.6713 24.5326 29.5306C24.6733 29.39 24.7523 29.1992 24.7523 29.0003C24.7523 28.8014 24.6733 28.6106 24.5326 28.47C24.392 28.3293 24.2012 28.2503 24.0023 28.2503ZM11.7504 14.9883V12.7503H20.2504V14.9883H11.7504ZM16.0004 3.7503C17.1272 3.75148 18.2075 4.19962 19.0043 4.9964C19.801 5.79317 20.2492 6.8735 20.2504 8.00031V11.2503H11.7504V8.00031C11.7515 6.8735 12.1997 5.79317 12.9965 4.9964C13.7932 4.19962 14.8736 3.75148 16.0004 3.7503Z" fill="#0F0F0F"/>
<path d="M11.75 15H20.25V18C20.25 20.2091 18.4591 22 16.25 22H15.75C13.5409 22 11.75 20.2091 11.75 18V15Z" fill="#27A17A"/>
<rect x="11.75" y="11.25" width="8.5" height="1.5" fill="#27A17A"/>
</svg>
