<svg width="32" height="32" viewBox="0 0 32 32" fill="none" xmlns="http://www.w3.org/2000/svg">
<path d="M24.0023 28.0003H22.0228C20.8428 28.0295 19.6923 27.6297 18.7847 26.875C17.8772 26.1203 17.2741 25.0621 17.0876 23.8965C18.4658 23.6414 19.7114 22.9123 20.6086 21.8355C21.5058 20.7587 21.9982 19.4019 22.0004 18.0003V8.00031C22.0004 6.40901 21.3682 4.88288 20.243 3.75766C19.1178 2.63245 17.5917 2.00031 16.0004 2.00031C14.4091 2.00031 12.8829 2.63245 11.7577 3.75766C10.6325 4.88288 10.0004 6.40901 10.0004 8.00031V18.0003C10.0029 19.4284 10.5143 20.8088 11.4429 21.8938C12.3715 22.9788 13.6564 23.6973 15.0669 23.9202C15.2553 25.4668 15.9603 26.9044 17.0676 28.0003H8.00232C7.7371 28.0003 7.48275 28.1057 7.29521 28.2932C7.10768 28.4807 7.00232 28.7351 7.00232 29.0003C7.00232 29.2655 7.10768 29.5199 7.29521 29.7074C7.48275 29.8949 7.7371 30.0003 8.00232 30.0003H24.0023C24.2675 30.0003 24.5219 29.8949 24.7094 29.7074C24.897 29.5199 25.0023 29.2655 25.0023 29.0003C25.0023 28.7351 24.897 28.4807 24.7094 28.2932C24.5219 28.1057 24.2675 28.0003 24.0023 28.0003ZM12.0004 14.9883V13.0003H20.0004V14.9883H12.0004ZM16.0004 4.00031C17.0609 4.00136 18.0777 4.42313 18.8276 5.17305C19.5775 5.92296 19.9993 6.93976 20.0004 8.00031V11.0003H12.0004V8.00031C12.0014 6.93976 12.4232 5.92296 13.1731 5.17305C13.923 4.42313 14.9398 4.00136 16.0004 4.00031Z" fill="#0F0F0F"/>
<path d="M12 15H20V18C20 20.2091 18.2091 22 16 22C13.7909 22 12 20.2091 12 18V15Z" fill="#27A17A"/>
<rect x="12" y="11" width="8" height="2" fill="#27A17A"/>
</svg>
