<svg width="32" height="32" viewBox="0 0 32 32" fill="none" xmlns="http://www.w3.org/2000/svg">
<path d="M16.0004 29.5002C13.3303 29.5002 10.7202 28.7085 8.50017 27.2251C6.28011 25.7417 4.54978 23.6332 3.528 21.1664C2.50622 18.6996 2.23887 15.9852 2.75977 13.3665C3.28067 10.7478 4.56642 8.34229 6.45443 6.45428C8.34244 4.56627 10.7479 3.28052 13.3667 2.75962C15.9854 2.23872 18.6998 2.50606 21.1666 3.52785C23.6334 4.54963 25.7418 6.27996 27.2252 8.50002C28.7086 10.7201 29.5004 13.3302 29.5004 16.0002C29.4965 19.5794 28.0729 23.011 25.542 25.5418C23.0111 28.0727 19.5796 29.4963 16.0004 29.5002ZM16.0004 3.50022C13.5281 3.50022 11.1114 4.23333 9.05574 5.60685C7.00013 6.98037 5.39797 8.9326 4.45188 11.2167C3.50578 13.5008 3.25824 16.0141 3.74056 18.4388C4.22287 20.8636 5.41338 23.0909 7.16154 24.8391C8.90969 26.5872 11.137 27.7777 13.5617 28.26C15.9865 28.7424 18.4998 28.4948 20.7839 27.5487C23.068 26.6026 25.0202 25.0005 26.3937 22.9448C27.7673 20.8892 28.5004 18.4725 28.5004 16.0002C28.4966 12.6862 27.1785 9.5089 24.8351 7.1655C22.4917 4.8221 19.3144 3.50395 16.0004 3.50022Z" fill="#0F0F0F"/>
<path d="M16.0004 29.5002C13.3303 29.5002 10.7202 28.7085 8.50017 27.2251C6.28011 25.7417 4.54978 23.6332 3.528 21.1664C2.50622 18.6996 2.23887 15.9852 2.75977 13.3665C3.28067 10.7478 4.56642 8.34229 6.45443 6.45428C8.34244 4.56627 10.7479 3.28052 13.3667 2.75962C15.9854 2.23872 18.6998 2.50606 21.1666 3.52785C23.6334 4.54963 25.7418 6.27996 27.2252 8.50002C28.7086 10.7201 29.5004 13.3302 29.5004 16.0002C29.4965 19.5794 28.0729 23.011 25.542 25.5418C23.0111 28.0727 19.5796 29.4963 16.0004 29.5002ZM16.0004 3.50022C13.5281 3.50022 11.1114 4.23333 9.05574 5.60685C7.00013 6.98037 5.39797 8.9326 4.45188 11.2167C3.50578 13.5008 3.25824 16.0141 3.74056 18.4388C4.22287 20.8636 5.41338 23.0909 7.16154 24.8391C8.90969 26.5872 11.137 27.7777 13.5617 28.26C15.9865 28.7424 18.4998 28.4948 20.7839 27.5487C23.068 26.6026 25.0202 25.0005 26.3937 22.9448C27.7673 20.8892 28.5004 18.4725 28.5004 16.0002C28.4966 12.6862 27.1785 9.5089 24.8351 7.1655C22.4917 4.8221 19.3144 3.50395 16.0004 3.50022Z" fill="#0F0F0F"/>
<path d="M16.0005 20.5002C15.1105 20.5002 14.2404 20.2363 13.5004 19.7418C12.7604 19.2474 12.1836 18.5446 11.843 17.7223C11.5024 16.9 11.4133 15.9952 11.587 15.1223C11.7606 14.2494 12.1892 13.4476 12.8185 12.8182C13.4478 12.1889 14.2497 11.7603 15.1226 11.5867C15.9955 11.413 16.9003 11.5022 17.7226 11.8428C18.5448 12.1834 19.2476 12.7601 19.7421 13.5001C20.2366 14.2402 20.5005 15.1102 20.5005 16.0002C20.4992 17.1933 20.0247 18.3371 19.181 19.1808C18.3374 20.0244 17.1936 20.4989 16.0005 20.5002Z" fill="#C94403"/>
</svg>
