<svg width="32" height="32" viewBox="0 0 32 32" fill="none" xmlns="http://www.w3.org/2000/svg">
<path d="M16.0004 2.50024C13.3303 2.50024 10.7202 3.29201 8.50017 4.7754C6.28011 6.2588 4.54978 8.36722 3.528 10.834C2.50622 13.3008 2.23887 16.0152 2.75977 18.634C3.28067 21.2527 4.56642 23.6582 6.45443 25.5462C8.34244 27.4342 10.7479 28.7199 13.3667 29.2408C15.9854 29.7617 18.6998 29.4944 21.1666 28.4726C23.6334 27.4508 25.7418 25.7205 27.2252 23.5004C28.7086 21.2804 29.5004 18.6703 29.5004 16.0002C29.4965 12.421 28.0729 8.98951 25.542 6.45862C23.0111 3.92772 19.5796 2.50415 16.0004 2.50024ZM16.0004 21.0002C15.0115 21.0002 14.0448 20.707 13.2225 20.1576C12.4003 19.6082 11.7594 18.8273 11.381 17.9137C11.0025 17 10.9035 15.9947 11.0964 15.0248C11.2894 14.0549 11.7656 13.164 12.4648 12.4647C13.1641 11.7654 14.055 11.2892 15.0249 11.0963C15.9948 10.9034 17.0002 11.0024 17.9138 11.3808C18.8274 11.7593 19.6083 12.4001 20.1577 13.2224C20.7071 14.0446 21.0004 15.0113 21.0004 16.0002C20.9988 17.3258 20.4715 18.5967 19.5342 19.5341C18.5968 20.4714 17.326 20.9987 16.0004 21.0002Z" fill="#0F0F0F"/>
<path d="M16.0005 19.0002C17.6573 19.0002 19.0005 17.6571 19.0005 16.0002C19.0005 14.3434 17.6573 13.0002 16.0005 13.0002C14.3436 13.0002 13.0005 14.3434 13.0005 16.0002C13.0005 17.6571 14.3436 19.0002 16.0005 19.0002Z" fill="#DB1F2E"/>
</svg>
