<svg width="32" height="33" viewBox="0 0 32 33" fill="none" xmlns="http://www.w3.org/2000/svg">
<path d="M22.8197 19.3322H14.911V21.1211H22.8197C23.6005 21.1211 24.2301 21.7636 24.2301 22.5446H16.8504C14.6969 22.5446 12.959 24.2831 12.959 26.4373C12.959 28.5916 14.6969 30.33 16.8504 30.33H26.0184V22.5446C26.0184 20.781 24.5828 19.3448 22.8197 19.3448V19.3322ZM16.8504 28.516C15.6918 28.516 14.7473 27.5711 14.7473 26.4121C14.7473 25.2532 15.6918 24.3083 16.8504 24.3083H24.2301V28.516H16.8504Z" fill="black"/>
<path d="M28.0461 9.2414C30.2301 9.2414 32.0005 7.47038 32.0005 5.28571C32.0005 3.10104 30.2301 1.33002 28.0461 1.33002C25.8622 1.33002 24.0918 3.10104 24.0918 5.28571C24.0918 7.47038 25.8622 9.2414 28.0461 9.2414Z" fill="#DB271C"/>
<path d="M2.19126 29.8891C3.40146 29.8891 4.38253 28.9077 4.38253 27.6971C4.38253 26.4865 3.40146 25.5051 2.19126 25.5051C0.981062 25.5051 0 26.4865 0 27.6971C0 28.9077 0.981062 29.8891 2.19126 29.8891Z" fill="#DB271C"/>
<path d="M22.5164 6.09194H24.1662C24.1158 5.82739 24.078 5.56283 24.078 5.28568C24.078 5.1849 24.078 5.08412 24.078 4.98334H22.3905C10.9934 4.99594 1.72461 14.0285 1.72461 25.1901C1.72461 25.3161 1.72461 25.4421 1.72461 25.5681C1.87573 25.5303 2.03945 25.5177 2.19057 25.5177C2.45503 25.5177 2.71949 25.5681 2.95877 25.6562C2.95877 25.5051 2.95877 25.3539 2.95877 25.1901C2.95877 14.6458 11.7112 6.10454 22.5164 6.10454V6.09194Z" fill="url(#paint0_linear_27131_1624)"/>
<defs>
<linearGradient id="paint0_linear_27131_1624" x1="12.9454" y1="25.6436" x2="12.9454" y2="4.99593" gradientUnits="userSpaceOnUse">
<stop offset="0.03" stop-color="white"/>
<stop offset="0.9" stop-color="#D9221C"/>
</linearGradient>
</defs>
</svg>
