<svg width="32" height="32" viewBox="0 0 32 32" fill="none" xmlns="http://www.w3.org/2000/svg">
<path d="M22.8197 19.0022H14.911V20.7911H22.8197C23.6005 20.7911 24.2301 21.4336 24.2301 22.2146H16.8504C14.6969 22.2146 12.959 23.9531 12.959 26.1073C12.959 28.2615 14.6969 30 16.8504 30H26.0184V22.2146C26.0184 20.4509 24.5828 19.0148 22.8197 19.0148V19.0022ZM16.8504 28.186C15.6918 28.186 14.7473 27.2411 14.7473 26.0821C14.7473 24.9231 15.6918 23.9783 16.8504 23.9783H24.2301V28.186H16.8504Z" fill="black"/>
<path d="M28.0461 8.91138C30.2301 8.91138 32.0005 7.14036 32.0005 4.95569C32.0005 2.77102 30.2301 1 28.0461 1C25.8622 1 24.0918 2.77102 24.0918 4.95569C24.0918 7.14036 25.8622 8.91138 28.0461 8.91138Z" fill="#DB271C"/>
<path d="M2.19126 29.5591C3.40146 29.5591 4.38253 28.5777 4.38253 27.3671C4.38253 26.1564 3.40146 25.175 2.19126 25.175C0.981062 25.175 0 26.1564 0 27.3671C0 28.5777 0.981062 29.5591 2.19126 29.5591Z" fill="#DB271C"/>
<path d="M22.5164 5.76192H24.1662C24.1158 5.49737 24.078 5.23282 24.078 4.95567C24.078 4.85488 24.078 4.7541 24.078 4.65332H22.3905C10.9934 4.66592 1.72461 13.6985 1.72461 24.8601C1.72461 24.9861 1.72461 25.1121 1.72461 25.238C1.87573 25.2002 2.03945 25.1876 2.19057 25.1876C2.45503 25.1876 2.71949 25.238 2.95877 25.3262C2.95877 25.175 2.95877 25.0239 2.95877 24.8601C2.95877 14.3158 11.7112 5.77452 22.5164 5.77452V5.76192Z" fill="url(#paint0_linear_27131_1624)"/>
<defs>
<linearGradient id="paint0_linear_27131_1624" x1="12.9454" y1="25.3136" x2="12.9454" y2="4.66592" gradientUnits="userSpaceOnUse">
<stop offset="0.03" stop-color="white"/>
<stop offset="0.9" stop-color="#D9221C"/>
</linearGradient>
</defs>
</svg>
