<svg width="81" height="32" viewBox="0 0 81 32" fill="none" xmlns="http://www.w3.org/2000/svg">
<g clip-path="url(#clip0_31822_1481)">
<path d="M43.6384 0C43.7567 0.000158084 43.8749 0.119972 43.8749 0.239553V2.03444C43.8747 2.15395 43.7567 2.27325 43.6384 2.27341H42.2171C41.6251 2.33323 41.1514 2.45291 40.8554 2.75193C40.4409 3.05108 40.2633 3.64961 40.2633 4.48723H43.0463C43.1646 4.48739 43.2828 4.6072 43.2828 4.72678V6.70105C43.2827 6.82059 43.1646 6.93986 43.0463 6.94001H40.2633V16.6927C40.204 18.0687 39.7302 19.2053 38.9605 19.9232C38.2501 20.5813 37.362 20.9401 36.2371 21C36.1187 21 36.0001 20.8807 36 20.761V18.7868C36 18.727 36.0592 18.6069 36.1775 18.6068C36.651 18.547 37.0063 18.4276 37.2432 18.1885C37.6577 17.8295 37.8353 17.2908 37.8353 16.4532V4.54683C37.8353 3.05119 38.3091 1.85456 39.138 1.07682C39.9078 0.358861 40.9147 0 42.1581 0H43.6384Z" fill="#4392F5"/>
<path fill-rule="evenodd" clip-rule="evenodd" d="M50.7442 0C50.8626 7.90943e-05 50.9217 0.119933 50.9217 0.239553V5.56405C51.9875 4.7265 53.3493 4.24773 54.8294 4.24768H54.889C58.4415 4.24774 61.165 7.05989 61.1651 10.6496C61.1651 14.2393 58.3823 17.0514 54.889 17.0515C53.4087 17.0515 52.0465 16.5727 50.9807 15.7351V16.5128C50.9807 16.6324 50.8626 16.7522 50.7442 16.7523H48.7904C48.672 16.7523 48.5533 16.6324 48.5533 16.5128V0.239553C48.5533 0.119893 48.672 0 48.7904 0H50.7442ZM54.8294 6.70105C52.698 6.70117 50.9808 8.43601 50.9807 10.6496C50.9807 12.8632 52.6387 14.5986 54.8294 14.5987V14.5385C55.5399 14.5385 56.1917 14.2995 56.7838 14.0004C57.9088 13.3423 58.6781 12.0856 58.6781 10.59C58.6781 9.09423 57.9085 7.83769 56.7243 7.17957C56.1914 6.88045 55.5399 6.70105 54.8294 6.70105Z" fill="#4392F5"/>
<path fill-rule="evenodd" clip-rule="evenodd" d="M67.8829 4.36804C69.5889 4.37563 71.118 5.09206 72.237 6.34172C73.2435 7.47843 73.8357 9.03403 73.8358 10.7092V11.6668C73.8357 11.7864 73.7171 11.9058 73.5987 11.9058H64.2435C64.7172 13.5211 66.5527 14.598 67.9737 14.5981C69.3947 14.5981 70.5794 14.0002 71.1123 12.9832L71.3488 12.5642C71.408 12.5044 71.5265 12.4444 71.6449 12.5041L73.3622 13.5213C73.4214 13.5811 73.4803 13.7008 73.4212 13.8204L73.1847 14.1798C72.1781 15.9148 71.5855 16.9317 67.9737 16.9317C64.362 16.9316 61.6976 14.2991 61.6976 10.6496C61.6976 7.01068 64.2876 4.38344 67.8829 4.36804ZM67.9147 6.70105C66.0792 6.70105 64.658 7.77775 64.2435 9.45298H71.2898C70.9346 8.0769 69.9279 6.70105 67.9147 6.70105Z" fill="#4392F5"/>
<path d="M46.7764 4.60701C46.8948 4.60708 47.0129 4.72694 47.0129 4.84656V16.573C47.0129 16.6926 46.8948 16.8124 46.7764 16.8125H44.8226C44.7042 16.8125 44.5856 16.6926 44.5855 16.573V4.78638C44.5856 4.66674 44.7042 4.54741 44.8226 4.54741L46.7764 4.60701Z" fill="#4392F5"/>
<path d="M77.2109 4.60701C77.3293 4.60708 77.4474 4.72694 77.4474 4.84656V5.56405C78.2171 4.90592 79.1647 4.60701 80.3489 4.60701V4.6666H80.7635C80.8819 4.66668 81 4.78653 81 4.90615V6.82082C80.9999 6.9404 80.8818 7.05971 80.7635 7.05979H80.3489C77.6844 7.05979 77.4474 9.51304 77.4474 10.2908V16.573C77.4474 16.6926 77.3293 16.8124 77.2109 16.8125H75.257C75.1386 16.8125 75.02 16.6926 75.02 16.573V4.84656C75.02 4.7269 75.1386 4.60701 75.257 4.60701H77.2109Z" fill="#4392F5"/>
<path d="M67.8829 4.36804C67.8738 4.368 67.8648 4.36745 67.8557 4.36745H67.9147C67.9041 4.36745 67.8935 4.36799 67.8829 4.36804Z" fill="#4392F5"/>
<path d="M45.8287 0C46.48 0 47.0724 0.538351 47.0725 1.25619C47.0725 1.97415 46.5392 2.51297 45.8287 2.51297C45.1183 2.51285 44.5855 1.97407 44.5855 1.25619C44.5856 0.538428 45.1184 0.000116372 45.8287 0Z" fill="#4392F5"/>
<path fill-rule="evenodd" clip-rule="evenodd" d="M19.7722 26.8443C20.1879 26.2517 20.9007 25.8964 21.7913 25.8964C23.3945 25.8964 24.7011 27.2002 24.7011 28.978L24.697 29.0787C24.6188 30.721 23.3444 32 21.7913 32C20.1881 32 20.1879 31.6443 19.7722 30.9925V31.8223H18.5255V23.7037H19.7722V26.8443ZM21.6133 27.0816C20.5445 27.0816 19.7723 27.8518 19.7722 28.9184C19.7722 29.9851 20.5445 30.7558 21.6133 30.7558C22.6821 30.7557 23.4538 29.985 23.4538 28.9184C23.4537 27.8518 22.682 27.0817 21.6133 27.0816Z" fill="#012639"/>
<path d="M32.3611 27.6146C32.3611 25.5407 33.311 25.8368 34.4985 25.8368C35.6859 25.8368 36.2202 26.2518 36.6359 27.022L35.5672 27.6146C35.3297 27.1406 34.9734 26.963 34.4985 26.963C34.0235 26.963 33.667 27.1407 33.667 27.5556C33.6671 28.6221 36.8144 27.9704 36.8145 30.1036L36.7547 30.2222C36.7547 31.4074 35.7454 32 34.4985 32C33.2516 32 32.4797 31.4667 32.1234 30.6372L33.192 29.985C33.3702 30.5183 33.8453 30.8148 34.4985 30.8148C35.1516 30.8148 35.508 30.6367 35.508 30.1626C35.5074 29.1556 32.3611 29.6885 32.3611 27.6146Z" fill="#012639"/>
<path fill-rule="evenodd" clip-rule="evenodd" d="M49.8782 25.8374C51.7188 25.8374 52.7873 27.2593 52.7874 28.9184V29.452H48.156C48.3342 30.3408 49.1064 30.8148 49.9971 30.8148V30.8744C50.7095 30.8744 51.2441 30.5779 51.4816 30.1632L52.4905 30.7558C51.9561 31.526 51.0655 32 49.9374 32C48.0373 31.9999 46.7905 30.6961 46.7905 28.9184C46.7905 27.1407 48.0376 25.8374 49.8782 25.8374ZM49.8782 27.0226C49.1063 27.0226 48.2751 27.5556 48.0969 28.4444H51.5407C51.3626 27.4371 50.6501 27.0226 49.8782 27.0226Z" fill="#012639"/>
<path d="M53.5598 27.6146C53.5599 25.5407 54.5097 25.8368 55.6972 25.8368C56.8846 25.8368 57.4189 26.2518 57.8346 27.022L56.7659 27.6146C56.5284 27.1406 56.1721 26.963 55.6972 26.963C55.2222 26.963 54.8657 27.1407 54.8657 27.5556C54.8658 28.6221 58.0131 27.9704 58.0132 30.1036L57.9534 30.2222C57.9534 31.4074 56.9441 32 55.6972 32C54.4503 32 53.6784 31.4667 53.3221 30.6372L54.3907 29.985C54.5689 30.5183 55.044 30.8148 55.6972 30.8148C56.3503 30.8148 56.7067 30.6367 56.7067 30.1626C56.7061 29.1556 53.5598 29.6885 53.5598 27.6146Z" fill="#012639"/>
<path d="M58.5466 27.6146C58.5467 25.5407 59.4965 25.8368 60.684 25.8368C61.8715 25.8368 62.4058 26.2518 62.8214 27.022L61.7527 27.6146C61.5152 27.1406 61.159 26.963 60.684 26.963C60.209 26.963 59.8525 27.1407 59.8525 27.5556C59.8526 28.6221 63 27.9704 63 30.1036L62.9403 30.2222C62.9402 31.4074 61.9309 32 60.684 32C59.4372 32 58.6652 31.4667 58.3089 30.6372L59.3776 29.985C59.5557 30.5183 60.0309 30.8148 60.684 30.8148C61.3372 30.8148 61.6936 30.6367 61.6936 30.1626C61.693 29.1556 58.5466 29.6885 58.5466 27.6146Z" fill="#012639"/>
<path d="M27.0171 29.452C27.0171 30.3407 27.5517 30.8148 28.3235 30.8148C29.0954 30.8148 29.8079 30.3407 29.808 29.1557V26.015H31.0552V31.8223H29.808V31.0521C29.4517 31.6445 28.7984 31.941 28.0266 31.941C26.7204 31.9409 25.7705 31.0519 25.7704 29.5706V26.015H27.0171V29.452Z" fill="#012639"/>
<path d="M39.0121 31.8223H37.7649V26.015H39.0121V31.8223Z" fill="#012639"/>
<path d="M43.5235 25.8964C44.8298 25.8964 45.7803 26.7853 45.7803 28.2668V31.8223H44.533V28.3854C44.533 27.4965 43.9985 27.0226 43.2266 27.0226C42.4548 27.0227 41.7422 27.4966 41.7422 28.6817V31.8223H40.4954V26.015H41.7422V26.7853C42.0984 26.1928 42.7517 25.8965 43.5235 25.8964Z" fill="#012639"/>
<path d="M38.4184 23.526C38.8933 23.5262 39.2493 23.8819 39.2493 24.3559C39.2492 24.8298 38.8932 25.1851 38.4184 25.1852C37.9434 25.1852 37.587 24.8299 37.5868 24.3559C37.5868 23.9411 37.9433 23.526 38.4184 23.526Z" fill="#012639"/>
<path fill-rule="evenodd" clip-rule="evenodd" d="M6.29385 4.20775C7.7782 4.20775 9.08467 4.68148 10.1534 5.511V4.74074C10.1535 4.62224 10.2724 4.50405 10.3912 4.50405H12.3505C12.4693 4.50405 12.5882 4.62224 12.5883 4.74074V16.2963C12.5883 16.4148 12.4693 16.5336 12.3505 16.5336H10.3912C10.2724 16.5336 10.1534 16.4148 10.1534 16.2963V15.526C9.08487 16.3556 9.7376 16.8299 6.29385 16.8299C2.85003 16.8297 0.178131 14.222 0 10.8443V10.1927C0.178131 6.81501 2.85003 4.20787 6.29385 4.20775ZM6.29385 6.63715C4.1564 6.63728 2.43436 8.3556 2.43427 10.548C2.43427 12.7405 4.09698 14.4594 6.29385 14.4595C8.43147 14.4595 10.1534 12.7406 10.1534 10.548C10.1533 8.35552 8.43141 6.63715 6.29385 6.63715Z" fill="#012639"/>
<path fill-rule="evenodd" clip-rule="evenodd" d="M29.9268 4.20775C31.4112 4.20775 32.7176 4.68148 33.7864 5.511V4.74074C33.7864 4.62224 33.9054 4.50405 34.0242 4.50405H35.9835C36.1023 4.50405 36.2212 4.62224 36.2213 4.74074V16.2963C36.2213 16.4148 36.1023 16.5336 35.9835 16.5336H34.0242C33.9054 16.5336 33.7864 16.4148 33.7864 16.2963V15.526C32.7178 16.3556 33.3706 16.8299 29.9268 16.8299C26.483 16.8297 23.8111 14.222 23.633 10.8443V10.1927C23.8111 6.81501 26.483 4.20787 29.9268 4.20775ZM29.9268 6.63715C27.7894 6.63728 26.0673 8.3556 26.0672 10.548C26.0672 12.7405 27.7299 14.4594 29.9268 14.4595C32.0644 14.4595 33.7864 12.7406 33.7864 10.548C33.7863 8.35552 32.0644 6.63715 29.9268 6.63715Z" fill="#012639"/>
<path d="M16.3296 0C16.4483 7.68217e-05 16.5667 0.118788 16.5667 0.237269V16.3553C16.5667 16.4738 16.4483 16.5925 16.3296 16.5926H14.3702C14.2515 16.5926 14.1325 16.4738 14.1325 16.3553V0.237269C14.1325 0.11875 14.2515 0 14.3702 0H16.3296Z" fill="#012639"/>
<path d="M20.2477 1.42245C20.4259 1.36319 20.5446 1.4816 20.5446 1.60012V4.56308H24.0482C24.2263 4.56308 24.3449 4.79987 24.2262 4.9184C23.6918 5.51095 23.2171 6.10378 22.8014 6.81482C22.7421 6.93333 22.6822 6.93345 22.6228 6.93345H20.5446V10.548C20.5446 11.911 20.7825 14.1632 22.6826 14.1632H23.5135C23.6322 14.1632 23.7511 14.2814 23.7513 14.3999V16.3559C23.7511 16.4743 23.6322 16.5926 23.5135 16.5926H23.2166C22.6219 16.5926 18.1104 16.4735 18.1103 11.3779V2.19271C18.1103 2.13347 18.1697 2.01512 18.2884 2.01505L20.2477 1.42245Z" fill="#012639"/>
</g>
<defs>
<clipPath id="clip0_31822_1481">
<rect width="81" height="32" fill="white"/>
</clipPath>
</defs>
</svg>
