<svg width="32" height="32" viewBox="0 0 32 32" fill="none" xmlns="http://www.w3.org/2000/svg">
<path d="M18.0858 1.34516C16.794 0.59849 15.2029 0.59849 13.914 1.34516L4.35546 6.86516C3.06361 7.61182 2.26953 8.9896 2.26953 10.48V21.52C2.26953 23.0103 3.06361 24.3881 4.35546 25.1348L13.914 30.6548C15.2058 31.4015 16.7969 31.4015 18.0858 30.6548L27.6443 25.1348C28.9362 24.3881 29.7303 23.0103 29.7303 21.52V10.48C29.7303 8.9896 28.9362 7.61182 27.6443 6.86516L18.0858 1.34516Z" fill="url(#paint0_linear_29851_3802)"/>
<path fill-rule="evenodd" clip-rule="evenodd" d="M14.4844 5.37489C15.5185 4.77933 16.7898 4.77933 17.8239 5.37489L24.6031 9.28895C25.6342 9.88747 26.2712 10.9869 26.2712 12.181V20.012C26.2712 21.2061 25.6371 22.3083 24.6031 22.9038L17.8239 26.8179C16.7898 27.4134 15.5185 27.4134 14.4844 26.8179L7.70522 22.9038C6.67415 22.3053 6.03711 21.2061 6.03711 20.012V12.181C6.03711 10.9869 6.67115 9.88451 7.70522 9.28895L14.4844 5.37489ZM17.1957 7.22992C16.6801 6.93067 16.0431 6.93067 15.5276 7.22992L9.06518 10.9602C8.54671 11.2595 8.22982 11.8106 8.22982 12.4061V19.8697C8.22982 20.4682 8.54962 21.0166 9.06518 21.3159L15.5276 25.0462C16.0431 25.3454 16.6802 25.3454 17.1957 25.0462L23.4043 21.462L16.983 17.7447L16.2593 18.1631C16.129 18.2372 15.9719 18.2372 15.8415 18.1631L14.452 17.3601C14.3246 17.2861 14.2446 17.1469 14.2446 16.9987V15.3928C14.2446 15.2447 14.3217 15.1055 14.452 15.0314L15.8415 14.2282C15.9719 14.1541 16.129 14.1542 16.2593 14.2282L17.6491 15.0314C17.7764 15.1055 17.8563 15.2447 17.8563 15.3928V16.0986L24.4908 19.9391C24.4918 19.9161 24.4934 19.8929 24.4934 19.8697V12.4061C24.4934 11.8076 24.1733 11.2595 23.6578 10.9602L17.1957 7.22992Z" fill="white"/>
<defs>
<linearGradient id="paint0_linear_29851_3802" x1="22.6854" y1="4.40388" x2="11.4406" y2="26.0551" gradientUnits="userSpaceOnUse">
<stop stop-color="#2FABFF"/>
<stop offset="0.31" stop-color="#5570FF"/>
<stop offset="0.62" stop-color="#7B36FF"/>
<stop offset="0.81" stop-color="#6A2CDC"/>
<stop offset="1" stop-color="#5921B8"/>
</linearGradient>
</defs>
</svg>
