<svg width="32" height="32" viewBox="0 0 32 32" fill="none" xmlns="http://www.w3.org/2000/svg">
<path d="M18.0858 1.34516C16.794 0.59849 15.2029 0.59849 13.914 1.34516L4.35546 6.86516C3.06361 7.61182 2.26953 8.9896 2.26953 10.48V21.52C2.26953 23.0103 3.06361 24.3881 4.35546 25.1348L13.914 30.6548C15.2058 31.4015 16.7969 31.4015 18.0858 30.6548L27.6443 25.1348C28.9362 24.3881 29.7303 23.0103 29.7303 21.52V10.48C29.7303 8.9896 28.9362 7.61182 27.6443 6.86516L18.0858 1.34516Z" fill="url(#paint0_linear_29851_3802)"/>
<path fill-rule="evenodd" clip-rule="evenodd" d="M14.4844 5.37465C15.5185 4.77909 16.7898 4.77909 17.8239 5.37465L24.6031 9.28871C25.6342 9.88723 26.2712 10.9867 26.2712 12.1808V20.0118C26.2712 21.2058 25.6371 22.308 24.6031 22.9036L17.8239 26.8176C16.7898 27.4132 15.5185 27.4132 14.4844 26.8176L7.70522 22.9036C6.67415 22.3051 6.03711 21.2058 6.03711 20.0118V12.1808C6.03711 10.9867 6.67115 9.88426 7.70522 9.28871L14.4844 5.37465ZM17.1957 7.22968C16.6801 6.93042 16.0431 6.93043 15.5276 7.22968L9.06518 10.96C8.54671 11.2593 8.22982 11.8104 8.22982 12.4059V19.8694C8.22982 20.468 8.54962 21.0164 9.06518 21.3156L15.5276 25.0459C16.0431 25.3451 16.6802 25.3452 17.1957 25.0459L23.4043 21.4617L16.983 17.7444L16.2593 18.1628C16.129 18.2369 15.9719 18.2369 15.8415 18.1628L14.452 17.3599C14.3246 17.2858 14.2446 17.1466 14.2446 16.9985V15.3926C14.2446 15.2444 14.3217 15.1053 14.452 15.0312L15.8415 14.2279C15.9719 14.1539 16.129 14.1539 16.2593 14.2279L17.6491 15.0312C17.7764 15.1053 17.8563 15.2445 17.8563 15.3926V16.0983L24.4908 19.9389C24.4918 19.9158 24.4934 19.8926 24.4934 19.8694V12.4059C24.4934 11.8074 24.1733 11.2593 23.6578 10.96L17.1957 7.22968Z" fill="white"/>
<defs>
<linearGradient id="paint0_linear_29851_3802" x1="22.6854" y1="4.40388" x2="11.4406" y2="26.0551" gradientUnits="userSpaceOnUse">
<stop stop-color="#2FABFF"/>
<stop offset="0.31" stop-color="#5570FF"/>
<stop offset="0.62" stop-color="#7B36FF"/>
<stop offset="0.81" stop-color="#6A2CDC"/>
<stop offset="1" stop-color="#5921B8"/>
</linearGradient>
</defs>
</svg>
