<svg width="32" height="33" viewBox="0 0 32 33" fill="none" xmlns="http://www.w3.org/2000/svg">
<path d="M18.0858 1.73847C16.794 0.9918 15.2029 0.9918 13.914 1.73847L4.35546 7.25847C3.06361 8.00513 2.26953 9.38291 2.26953 10.8733V21.9133C2.26953 23.4037 3.06361 24.7814 4.35546 25.5281L13.914 31.0481C15.2058 31.7948 16.7969 31.7948 18.0858 31.0481L27.6443 25.5281C28.9362 24.7814 29.7303 23.4037 29.7303 21.9133V10.8733C29.7303 9.38291 28.9362 8.00513 27.6443 7.25847L18.0858 1.73847Z" fill="url(#paint0_linear_29851_3802)"/>
<path fill-rule="evenodd" clip-rule="evenodd" d="M14.4844 5.76796C15.5185 5.1724 16.7898 5.1724 17.8239 5.76796L24.6031 9.68202C25.6342 10.2805 26.2712 11.38 26.2712 12.5741V20.4051C26.2712 21.5992 25.6371 22.7013 24.6031 23.2969L17.8239 27.211C16.7898 27.8065 15.5185 27.8065 14.4844 27.211L7.70522 23.2969C6.67415 22.6984 6.03711 21.5992 6.03711 20.4051V12.5741C6.03711 11.38 6.67115 10.2776 7.70522 9.68202L14.4844 5.76796ZM17.1957 7.62299C16.6801 7.32373 16.0431 7.32374 15.5276 7.62299L9.06518 11.3533C8.54671 11.6526 8.22982 12.2037 8.22982 12.7992V20.2627C8.22982 20.8613 8.54962 21.4097 9.06518 21.7089L15.5276 25.4393C16.0431 25.7385 16.6802 25.7385 17.1957 25.4393L23.4043 21.8551L16.983 18.1377L16.2593 18.5562C16.129 18.6302 15.9719 18.6302 15.8415 18.5562L14.452 17.7532C14.3246 17.6791 14.2446 17.5399 14.2446 17.3918V15.7859C14.2446 15.6377 14.3217 15.4986 14.452 15.4245L15.8415 14.6213C15.9719 14.5472 16.129 14.5472 16.2593 14.6213L17.6491 15.4245C17.7764 15.4986 17.8563 15.6378 17.8563 15.7859V16.4916L24.4908 20.3322C24.4918 20.3091 24.4934 20.2859 24.4934 20.2627V12.7992C24.4934 12.2007 24.1733 11.6526 23.6578 11.3533L17.1957 7.62299Z" fill="white"/>
<defs>
<linearGradient id="paint0_linear_29851_3802" x1="22.6854" y1="4.79719" x2="11.4406" y2="26.4484" gradientUnits="userSpaceOnUse">
<stop stop-color="#2FABFF"/>
<stop offset="0.31" stop-color="#5570FF"/>
<stop offset="0.62" stop-color="#7B36FF"/>
<stop offset="0.81" stop-color="#6A2CDC"/>
<stop offset="1" stop-color="#5921B8"/>
</linearGradient>
</defs>
</svg>
