<svg width="33" height="33" viewBox="0 0 33 33" fill="none" xmlns="http://www.w3.org/2000/svg">
<g clip-path="url(#clip0_27213_1797)">
<path d="M25.5431 1.03687H7.97643C4.26692 1.03687 1.25977 4.04402 1.25977 7.75353V25.3202C1.25977 29.0297 4.26692 32.0369 7.97643 32.0369H25.5431C29.2526 32.0369 32.2598 29.0297 32.2598 25.3202V7.75353C32.2598 4.04402 29.2526 1.03687 25.5431 1.03687Z" fill="url(#paint0_linear_27213_1797)"/>
<path d="M16.8901 6.59375C10.6126 6.59375 5.52344 10.7581 5.52344 15.8937C5.52344 19.1591 7.5901 22.0292 10.6901 23.6877C10.8035 23.7436 10.8924 23.8392 10.94 23.9564C10.9876 24.0735 10.9906 24.204 10.9484 24.3232C10.6413 25.065 10.1474 25.7147 9.51469 26.209C9.47016 26.2452 9.43894 26.2951 9.42594 26.351C9.41293 26.4068 9.41889 26.4654 9.44287 26.5175C9.46685 26.5696 9.50749 26.6123 9.55838 26.6387C9.60927 26.6652 9.66751 26.674 9.72394 26.6637C11.0753 26.4315 12.3583 25.9021 13.4801 25.1137C13.5924 25.0299 13.7209 24.9703 13.8574 24.9388C13.9939 24.9072 14.1355 24.9043 14.2732 24.9302C15.137 25.0996 16.015 25.1862 16.8953 25.1886C23.1728 25.1886 28.2619 21.0243 28.2619 15.8886C28.2619 10.7529 23.1676 6.59375 16.8901 6.59375Z" fill="#FEFEFE"/>
</g>
<defs>
<linearGradient id="paint0_linear_27213_1797" x1="16.7598" y1="1.03687" x2="16.7598" y2="32.0369" gradientUnits="userSpaceOnUse">
<stop stop-color="#5CF777"/>
<stop offset="1" stop-color="#0DBC29"/>
</linearGradient>
<clipPath id="clip0_27213_1797">
<rect width="32" height="32" fill="white" transform="translate(0.759766 0.536865)"/>
</clipPath>
</defs>
</svg>
