<svg width="32" height="33" viewBox="0 0 32 33" fill="none" xmlns="http://www.w3.org/2000/svg">
<g clip-path="url(#clip0_27213_1797)">
<path d="M24.7833 0.893311H7.21667C3.50715 0.893311 0.5 3.90046 0.5 7.60998V25.1766C0.5 28.8862 3.50715 31.8933 7.21667 31.8933H24.7833C28.4928 31.8933 31.5 28.8862 31.5 25.1766V7.60998C31.5 3.90046 28.4928 0.893311 24.7833 0.893311Z" fill="url(#paint0_linear_27213_1797)"/>
<path d="M16.1303 6.4502C9.85284 6.4502 4.76367 10.6145 4.76367 15.7502C4.76367 19.0155 6.83034 21.8856 9.93034 23.5441C10.0437 23.6001 10.1326 23.6957 10.1802 23.8128C10.2278 23.9299 10.2308 24.0604 10.1887 24.1796C9.88158 24.9215 9.38763 25.5712 8.75492 26.0654C8.7104 26.1016 8.67917 26.1516 8.66617 26.2074C8.65317 26.2633 8.65913 26.3219 8.68311 26.374C8.70709 26.4261 8.74772 26.4687 8.79861 26.4952C8.8495 26.5216 8.90775 26.5304 8.96417 26.5201C10.3156 26.288 11.5985 25.7585 12.7203 24.9701C12.8327 24.8863 12.9611 24.8268 13.0976 24.7952C13.2342 24.7636 13.3757 24.7607 13.5134 24.7867C14.3772 24.9561 15.2552 25.0426 16.1355 25.045C22.413 25.045 27.5022 20.8807 27.5022 15.745C27.5022 10.6094 22.4078 6.4502 16.1303 6.4502Z" fill="#FEFEFE"/>
</g>
<defs>
<linearGradient id="paint0_linear_27213_1797" x1="16" y1="0.893311" x2="16" y2="31.8933" gradientUnits="userSpaceOnUse">
<stop stop-color="#5CF777"/>
<stop offset="1" stop-color="#0DBC29"/>
</linearGradient>
<clipPath id="clip0_27213_1797">
<rect width="32" height="32" fill="white" transform="translate(0 0.393311)"/>
</clipPath>
</defs>
</svg>
