<svg width="32" height="32" viewBox="0 0 32 32" fill="none" xmlns="http://www.w3.org/2000/svg">
<g clip-path="url(#clip0_27213_1797)">
<path d="M24.7833 0.5H7.21667C3.50715 0.5 0.5 3.50715 0.5 7.21667V24.7833C0.5 28.4928 3.50715 31.5 7.21667 31.5H24.7833C28.4928 31.5 31.5 28.4928 31.5 24.7833V7.21667C31.5 3.50715 28.4928 0.5 24.7833 0.5Z" fill="url(#paint0_linear_27213_1797)"/>
<path d="M16.1303 6.05688C9.85284 6.05688 4.76367 10.2212 4.76367 15.3569C4.76367 18.6222 6.83034 21.4923 9.93034 23.1508C10.0437 23.2068 10.1326 23.3024 10.1802 23.4195C10.2278 23.5366 10.2308 23.6671 10.1887 23.7863C9.88158 24.5281 9.38763 25.1778 8.75492 25.6721C8.7104 25.7083 8.67917 25.7582 8.66617 25.8141C8.65317 25.87 8.65913 25.9286 8.68311 25.9807C8.70709 26.0328 8.74772 26.0754 8.79861 26.1019C8.8495 26.1283 8.90775 26.1371 8.96417 26.1268C10.3156 25.8946 11.5985 25.3652 12.7203 24.5768C12.8327 24.493 12.9611 24.4335 13.0976 24.4019C13.2342 24.3703 13.3757 24.3674 13.5134 24.3934C14.3772 24.5628 15.2552 24.6493 16.1355 24.6517C22.413 24.6517 27.5022 20.4874 27.5022 15.3517C27.5022 10.2161 22.4078 6.05688 16.1303 6.05688Z" fill="#FEFEFE"/>
</g>
<defs>
<linearGradient id="paint0_linear_27213_1797" x1="16" y1="0.5" x2="16" y2="31.5" gradientUnits="userSpaceOnUse">
<stop stop-color="#5CF777"/>
<stop offset="1" stop-color="#0DBC29"/>
</linearGradient>
<clipPath id="clip0_27213_1797">
<rect width="32" height="32" fill="white"/>
</clipPath>
</defs>
</svg>
