<svg width="33" height="33" viewBox="0 0 33 33" fill="none" xmlns="http://www.w3.org/2000/svg">
<path d="M24.6931 2.77002H8.82643C5.4759 2.77002 2.75977 5.48616 2.75977 8.83669V24.7034C2.75977 28.0539 5.4759 30.77 8.82643 30.77H24.6931C28.0436 30.77 30.7598 28.0539 30.7598 24.7034V8.83669C30.7598 5.48616 28.0436 2.77002 24.6931 2.77002Z" fill="url(#paint0_linear_27213_1797)"/>
<path d="M16.878 7.78906C11.208 7.78906 6.61133 11.5504 6.61133 16.1891C6.61133 19.1384 8.47799 21.7307 11.278 23.2287C11.3804 23.2793 11.4607 23.3656 11.5037 23.4714C11.5467 23.5772 11.5494 23.6951 11.5113 23.8027C11.234 24.4728 10.7878 25.0596 10.2163 25.5061C10.1761 25.5387 10.1479 25.5838 10.1362 25.6343C10.1244 25.6847 10.1298 25.7377 10.1515 25.7847C10.1731 25.8318 10.2098 25.8703 10.2558 25.8942C10.3018 25.9181 10.3544 25.926 10.4053 25.9167C11.6259 25.707 12.7847 25.2289 13.798 24.5167C13.8994 24.4411 14.0155 24.3873 14.1388 24.3588C14.2621 24.3302 14.39 24.3276 14.5143 24.3511C15.2945 24.5041 16.0876 24.5822 16.8827 24.5844C22.5527 24.5844 27.1493 20.8231 27.1493 16.1844C27.1493 11.5457 22.548 7.78906 16.878 7.78906Z" fill="#FEFEFE"/>
<defs>
<linearGradient id="paint0_linear_27213_1797" x1="16.7598" y1="2.77002" x2="16.7598" y2="30.77" gradientUnits="userSpaceOnUse">
<stop stop-color="#5CF777"/>
<stop offset="1" stop-color="#0DBC29"/>
</linearGradient>
</defs>
</svg>
