<svg width="33" height="33" viewBox="0 0 33 33" fill="none" xmlns="http://www.w3.org/2000/svg">
<path d="M24.6931 2.39331H8.82643C5.4759 2.39331 2.75977 5.10945 2.75977 8.45998V24.3266C2.75977 27.6772 5.4759 30.3933 8.82643 30.3933H24.6931C28.0436 30.3933 30.7598 27.6772 30.7598 24.3266V8.45998C30.7598 5.10945 28.0436 2.39331 24.6931 2.39331Z" fill="url(#paint0_linear_27213_1797)"/>
<path d="M16.878 7.41235C11.208 7.41235 6.61133 11.1737 6.61133 15.8124C6.61133 18.7617 8.47799 21.354 11.278 22.852C11.3804 22.9026 11.4607 22.9889 11.5037 23.0947C11.5467 23.2005 11.5494 23.3184 11.5113 23.426C11.234 24.0961 10.7878 24.6829 10.2163 25.1294C10.1761 25.162 10.1479 25.2071 10.1362 25.2576C10.1244 25.308 10.1298 25.361 10.1515 25.408C10.1731 25.4551 10.2098 25.4936 10.2558 25.5175C10.3018 25.5414 10.3544 25.5493 10.4053 25.54C11.6259 25.3303 12.7847 24.8522 13.798 24.14C13.8994 24.0644 14.0155 24.0106 14.1388 23.982C14.2621 23.9535 14.39 23.9509 14.5143 23.9744C15.2945 24.1274 16.0876 24.2055 16.8827 24.2077C22.5527 24.2077 27.1493 20.4464 27.1493 15.8077C27.1493 11.169 22.548 7.41235 16.878 7.41235Z" fill="#FEFEFE"/>
<defs>
<linearGradient id="paint0_linear_27213_1797" x1="16.7598" y1="2.39331" x2="16.7598" y2="30.3933" gradientUnits="userSpaceOnUse">
<stop stop-color="#5CF777"/>
<stop offset="1" stop-color="#0DBC29"/>
</linearGradient>
</defs>
</svg>
