<svg width="267" height="41" viewBox="0 0 267 41" fill="none" xmlns="http://www.w3.org/2000/svg">
<g clip-path="url(#clip0_32357_1394)">
<path fill-rule="evenodd" clip-rule="evenodd" d="M94.3828 33.7656C98.0038 33.7655 100.185 32.2005 101.75 30.1133L104.082 32.6904C104.42 33.0905 104.697 33.2139 105.219 33.2139H109.116C109.609 33.2139 109.854 32.7845 109.454 32.3545L104.267 26.7354L107.705 20.8428C108.011 20.3218 107.735 19.9824 107.243 19.9824H104.267C103.776 19.9824 103.499 20.1366 103.254 20.5352L101.319 23.9131L97.8818 20.1982C100.215 18.9079 102.425 17.1886 102.425 14.1201C102.425 10.529 99.9077 8.10357 95.7939 8.10352C91.7734 8.10352 89.1025 10.712 89.1025 14.5195C89.1025 16.0229 89.7476 17.7416 91.1592 19.3691C88.2739 20.9652 86.3702 22.8683 86.3701 26.4297C86.3701 31.0649 89.9007 33.7656 94.3828 33.7656ZM95.1494 17.5889C93.8905 16.2385 93.339 15.3174 93.3389 14.2734C93.3389 12.923 94.26 11.9092 95.8555 11.9092C97.4526 11.9092 98.2498 12.953 98.25 14.2119C98.25 15.5627 97.3283 16.3304 95.1494 17.5889ZM94.4746 29.8975C92.4476 29.8974 90.7287 28.3949 90.7285 26.2764C90.7285 24.1268 91.9568 23.053 93.8613 21.9775L98.833 27.3203C97.7585 28.9471 96.4377 29.8975 94.4746 29.8975Z" fill="#231F20"/>
<path d="M192.332 12.8271C193.056 12.8271 193.644 12.6089 194.094 12.1719C194.544 11.7348 194.768 11.1654 194.768 10.4658C194.768 9.76663 194.544 9.1979 194.094 8.76074C193.644 8.32372 193.056 8.10453 192.332 8.10449C191.582 8.10449 190.983 8.32368 190.533 8.76074C190.083 9.19791 189.857 9.76659 189.857 10.4658C189.857 11.1654 190.083 11.7348 190.533 12.1719C190.983 12.6089 191.583 12.8271 192.332 12.8271Z" fill="#231F20"/>
<path fill-rule="evenodd" clip-rule="evenodd" d="M143.51 33.1992C145.145 33.1992 146.584 32.9309 147.823 32.3926C149.061 31.8554 150.026 31.0726 150.716 30.0439C151.404 29.0159 151.75 27.812 151.75 26.4326C151.75 24.8898 151.34 23.6164 150.523 22.6113C149.705 21.606 148.718 20.9513 147.198 20.6475C148.436 20.2263 149.243 19.5196 149.956 18.5264C150.669 17.5328 151.026 16.3815 151.026 15.0723C151.026 12.9923 150.325 11.4027 148.922 10.3037C147.521 9.20552 145.486 8.65527 142.821 8.65527L133.802 8.65332C133.403 8.65332 133.127 8.93033 133.127 9.33008V32.5381C133.127 32.9375 133.403 33.2129 133.802 33.2129L143.51 33.1992ZM137.577 12.7383H142.641C144.279 12.7383 145.026 12.9985 145.646 13.5186C146.265 14.0396 146.575 14.7895 146.575 15.7695C146.575 16.7498 146.26 17.5103 145.631 18.0508C145 18.591 144.101 18.8613 142.641 18.8613H137.577V12.7383ZM137.577 22.9189H143.071C144.966 22.9189 145.664 23.182 146.319 23.707C146.973 24.2319 147.3 24.9993 147.3 26.0098C147.3 26.9805 146.987 27.7392 146.362 28.2842C145.739 28.8292 144.94 29.1015 143.429 29.1016H137.577V22.9189Z" fill="#231F20"/>
<path d="M78.8213 33.2139C79.22 33.2137 79.4971 32.9364 79.4971 32.5371V12.7383H86.2187C86.6174 12.7383 86.8945 12.4619 86.8945 12.0625V9.33203C86.8945 8.93228 86.6174 8.65527 86.2187 8.65527H68.3223C67.923 8.65527 67.6475 8.93228 67.6475 9.33203V12.0625C67.6475 12.4619 67.923 12.7383 68.3223 12.7383H75.0449V32.5371C75.0449 32.9365 75.3214 33.2139 75.7197 33.2139H78.8213Z" fill="#231F20"/>
<path d="M117.405 33.2139C117.804 33.2139 118.08 32.9365 118.08 32.5371V12.7383H124.804C125.202 12.7381 125.478 12.4618 125.478 12.0625V9.33203C125.478 8.93239 125.202 8.65542 124.804 8.65527H106.906C106.507 8.65528 106.231 8.93228 106.231 9.33203V12.0625C106.231 12.4619 106.507 12.7383 106.906 12.7383H113.63V32.5371C113.63 32.9364 113.905 33.2136 114.304 33.2139H117.405Z" fill="#231F20"/>
<path fill-rule="evenodd" clip-rule="evenodd" d="M51.5986 33.2139C52.0587 33.2137 52.3355 32.9991 52.4883 32.5684L54.3008 27.3506H64.2148L66.0264 32.5684C66.1795 32.999 66.4566 33.2139 66.917 33.2139H70.1094C70.5381 33.2137 70.7835 32.8145 70.6308 32.415L62.3115 9.26953C62.1578 8.83919 61.8509 8.65625 61.3906 8.65625H57.2773C56.8179 8.65625 56.5414 8.83933 56.3877 9.26953L48.0683 32.415C47.915 32.8146 48.1915 33.2139 48.5908 33.2139H51.5986ZM59.2725 13.1992L62.8027 23.3291H55.7119L59.2725 13.1992Z" fill="#231F20"/>
<path d="M180.307 33.79C182.563 33.79 184.381 33.2621 185.71 32.2217C187.052 31.1683 187.734 29.7165 187.734 27.9053C187.734 26.4051 187.264 25.1929 186.338 24.3037C185.428 23.4301 183.9 22.6988 181.796 22.1318L180.745 21.8516C179.653 21.5556 178.904 21.2603 178.518 20.9736C178.16 20.7083 177.987 20.3259 177.987 19.8057C177.987 19.2187 178.232 18.7697 178.736 18.4336C179.262 18.0841 180.013 17.9072 180.973 17.9072C182.454 17.9072 183.956 18.2095 185.445 18.8066L185.595 18.8672C185.977 18.9818 186.32 18.7967 186.436 18.4141L186.464 18.3154L187.028 16.3984L187.039 16.3574C187.169 15.9794 186.987 15.6371 186.624 15.4941L186.523 15.4512C184.664 14.6444 182.776 14.2354 180.902 14.2354C178.761 14.2354 177.019 14.7644 175.725 15.8066C174.418 16.8593 173.754 18.2525 173.754 19.9463C173.754 21.4217 174.193 22.6089 175.06 23.4746C175.912 24.3258 177.329 25.0231 179.271 25.5439L180.325 25.8242C181.577 26.143 182.437 26.4739 182.883 26.8066C183.299 27.1194 183.501 27.5361 183.501 28.0801C183.501 29.4523 182.375 30.1191 180.06 30.1191C178.463 30.1191 176.845 29.6095 175.092 28.8916L174.827 28.7793C174.505 28.6593 174.188 28.7868 174.079 29.1201L174.043 29.249L173.355 31.4473L173.336 31.5107C173.227 31.8514 173.36 32.113 173.676 32.2578L173.746 32.293C175.761 33.2866 177.965 33.79 180.307 33.79Z" fill="#231F20"/>
<path fill-rule="evenodd" clip-rule="evenodd" d="M226.597 33.79C227.964 33.79 229.214 33.6466 230.311 33.3633C231.225 33.1269 232.146 32.7635 233.056 32.2812L233.168 32.2188C233.523 32.0382 233.644 31.6678 233.463 31.3115L233.432 31.251L232.404 29.2383L232.387 29.2031C232.204 28.8469 231.834 28.7249 231.479 28.9053L231.409 28.9443C230.759 29.304 230.054 29.5771 229.53 29.7246C228.794 29.9321 227.973 30.1074 227.025 30.1074C225.536 30.1073 224.316 29.7117 223.398 28.9307C222.529 28.1903 221.967 27.1373 221.731 25.7998H233.481C233.88 25.7998 234.156 25.5235 234.156 25.124L234.171 24.7432C234.19 24.2658 234.199 23.5624 234.199 23.1367C234.199 21.4535 233.867 19.9243 233.214 18.5928C232.556 17.2555 231.6 16.1834 230.37 15.4072C229.139 14.6305 227.679 14.2354 226.034 14.2354C224.414 14.2354 222.921 14.6468 221.597 15.458C220.275 16.2687 219.199 17.4338 218.403 18.9199C217.609 20.403 217.205 22.1286 217.205 24.0488C217.205 25.8982 217.59 27.5759 218.351 29.0342C219.113 30.4991 220.218 31.6709 221.635 32.5166C223.049 33.3613 224.718 33.79 226.597 33.79ZM221.736 22.042C221.967 20.7606 222.459 19.7262 223.2 18.9648C223.974 18.1702 224.939 17.7667 226.069 17.7666C227.277 17.7666 228.196 18.1556 228.882 18.9551C229.553 19.7411 229.899 20.7795 229.91 22.042H221.736Z" fill="#231F20"/>
<path d="M242.991 33.79C245.25 33.79 247.067 33.2622 248.395 32.2217C249.738 31.1684 250.42 29.7163 250.42 27.9053C250.42 26.4052 249.951 25.1928 249.025 24.3037C248.115 23.4301 246.585 22.6988 244.48 22.1318L243.43 21.8516C242.338 21.5558 241.589 21.2601 241.203 20.9736C240.846 20.7082 240.673 20.3259 240.673 19.8057C240.673 19.2187 240.917 18.7698 241.422 18.4336C241.947 18.0842 242.701 17.9072 243.658 17.9072C245.141 17.9073 246.643 18.2093 248.131 18.8066L248.28 18.8672C248.663 18.9817 249.005 18.7967 249.121 18.4141L249.149 18.3154L249.715 16.3984L249.727 16.3574C249.856 15.9795 249.673 15.6371 249.31 15.4941L249.211 15.4512C247.351 14.6442 245.461 14.2354 243.588 14.2354C241.445 14.2354 239.703 14.7643 238.408 15.8066C237.102 16.8592 236.44 18.2519 236.439 19.9453C236.439 21.4208 236.878 22.6088 237.745 23.4746C238.596 24.3258 240.014 25.023 241.957 25.5439L243.012 25.8242C244.263 26.1431 245.125 26.474 245.567 26.8066C245.984 27.1194 246.185 27.5361 246.186 28.0801C246.186 29.4524 245.062 30.1191 242.747 30.1191C241.148 30.1191 239.53 29.6097 237.778 28.8916L237.513 28.7793C237.19 28.6592 236.873 28.7869 236.767 29.1201L236.729 29.249L236.04 31.4473L236.021 31.5107C235.913 31.8513 236.047 32.113 236.361 32.2578L236.433 32.293C238.447 33.2864 240.649 33.79 242.991 33.79Z" fill="#231F20"/>
<path d="M259.041 33.8311C261.3 33.831 263.117 33.3023 264.444 32.2617C265.788 31.2085 266.469 29.7566 266.469 27.9453C266.469 26.4456 265.999 25.2338 265.075 24.3447C264.165 23.4713 262.636 22.7398 260.532 22.1729L259.479 21.8916C258.388 21.5956 257.638 21.3003 257.252 21.0137C256.895 20.7484 256.723 20.3657 256.723 19.8457C256.723 19.2588 256.967 18.8095 257.473 18.4736C257.997 18.1244 258.749 17.9473 259.706 17.9473C261.19 17.9473 262.692 18.2496 264.182 18.8467L264.332 18.9082C264.712 19.0225 265.055 18.8373 265.17 18.4551L265.201 18.3564L265.765 16.4385L265.775 16.3984C265.906 16.0206 265.723 15.6781 265.36 15.5352L265.26 15.4912C263.401 14.6845 261.513 14.2764 259.638 14.2764C257.495 14.2764 255.754 14.8047 254.46 15.8467C253.152 16.8995 252.489 18.2924 252.489 19.9863C252.489 21.4619 252.929 22.6497 253.794 23.5156C254.646 24.3669 256.064 25.063 258.006 25.584L259.061 25.8652C260.312 26.1841 261.174 26.5149 261.618 26.8477C262.034 27.1605 262.236 27.5769 262.236 28.1211C262.236 29.4929 261.111 30.1602 258.796 30.1602C257.197 30.1601 255.58 29.6494 253.828 28.9316L253.562 28.8203C253.241 28.7001 252.923 28.8277 252.815 29.1611L252.776 29.2891L252.09 31.4873L252.07 31.5518C251.963 31.8921 252.097 32.1532 252.41 32.2979L252.482 32.334C254.495 33.3273 256.701 33.8311 259.041 33.8311Z" fill="#231F20"/>
<path d="M201.921 33.2129C202.32 33.2129 202.596 32.9365 202.596 32.5371V22.3555C202.596 19.2988 205.049 18.1602 206.593 18.1602C207.807 18.1602 208.713 18.4935 209.309 19.1602C209.904 19.826 210.204 20.8483 210.204 22.2275V32.5371C210.204 32.9365 210.48 33.2129 210.877 33.2129H213.979C214.378 33.2127 214.653 32.9364 214.653 32.5371V21.748C214.653 19.4104 214.128 17.6109 213.076 16.3486C212.024 15.0864 209.9 14.4552 207.961 14.4551C206.838 14.4551 205.677 14.5604 204.695 14.9463C203.714 15.3318 203.153 15.6903 202.596 16.1533V15.5049C202.596 15.1055 202.32 14.8281 201.921 14.8281H198.82C198.422 14.8282 198.145 15.1055 198.145 15.5049V32.5371C198.145 32.9364 198.42 33.2127 198.818 33.2129H201.921Z" fill="#231F20"/>
<path d="M160.818 33.585C161.941 33.5849 163.102 33.4797 164.084 33.0938C165.065 32.7083 165.626 32.3506 166.184 31.8877V32.5361C166.184 32.9354 166.459 33.2119 166.857 33.2119H169.958C170.357 33.2119 170.634 32.9354 170.634 32.5361V15.5029C170.634 15.1038 170.359 14.8273 169.96 14.8271H166.857C166.459 14.8271 166.184 15.1037 166.184 15.5029V25.6846C166.184 28.7411 163.73 29.8798 162.187 29.8799C160.972 29.8799 160.066 29.5472 159.47 28.8809C158.874 28.2148 158.576 27.192 158.576 25.8125V15.5029C158.576 15.1037 158.3 14.8271 157.901 14.8271H154.799C154.4 14.8273 154.125 15.1038 154.125 15.5029V26.292C154.125 28.6297 154.65 30.4291 155.702 31.6914C156.754 32.9538 158.879 33.585 160.818 33.585Z" fill="#231F20"/>
<path d="M193.86 33.2119C194.259 33.2119 194.537 32.9354 194.537 32.5361V15.5029C194.537 15.1037 194.261 14.8271 193.862 14.8271H190.76C190.361 14.8273 190.086 15.1038 190.086 15.5029V32.5361C190.086 32.9353 190.361 33.2117 190.76 33.2119H193.86Z" fill="#231F20"/>
<path d="M7.92934 37.0849C11.405 39.7763 15.7674 41.3936 20.5003 41.3936C25.6791 41.3936 30.4012 39.4699 34.0049 36.3115C34.0481 36.2734 34.0271 36.2473 33.9844 36.2734C32.3669 37.3536 27.7578 39.7119 20.5003 39.7119C14.193 39.7119 10.2072 38.3043 7.95576 37.0472C7.91316 37.0263 7.89714 37.0584 7.92934 37.0849ZM21.8914 38.1326C26.936 38.1326 32.48 36.7572 35.7949 34.0334C36.7024 33.2924 37.5671 32.304 38.3409 30.977C38.7865 30.214 39.2218 29.3066 39.5767 28.4145C39.5929 28.3716 39.5655 28.3501 39.5333 28.3983C36.4501 32.9376 27.5216 35.7682 18.303 35.7682C11.7865 35.7682 4.7757 33.6844 2.03078 29.7034C2.00388 29.6661 1.97665 29.6825 1.99283 29.7251C4.55068 35.1616 12.3077 38.1326 21.8914 38.1326ZM16.38 29.1123C5.88814 29.1123 0.940277 24.2243 0.0432414 20.8879C0.0321906 20.8393 0 20.8503 0 20.8936C0 22.0163 0.11275 23.4666 0.306379 24.428C0.397988 24.8959 0.779 25.6313 1.33746 26.217C3.8785 28.8658 10.2124 32.5778 21.1819 32.5778C36.1276 32.5778 39.5445 27.5979 40.2423 25.9596C40.742 24.7886 41 22.6714 41 20.8936C41 20.4634 40.9888 20.1194 40.9729 19.7814C40.9729 19.7273 40.9414 19.7225 40.9305 19.7758C40.1837 23.7837 27.4139 29.1123 16.38 29.1123ZM1.97665 12.0991C1.37558 13.2921 0.709332 15.3062 0.510899 16.3483C0.424414 16.7947 0.46173 17.0091 0.617722 17.3426C1.87559 20.0121 8.23587 24.2833 23.0735 24.2833C32.1251 24.2833 39.1576 22.059 40.2964 17.9983C40.5059 17.2508 40.5171 16.4612 40.2481 15.3978C39.9468 14.2101 39.3832 12.8246 38.9053 11.8523C38.8893 11.8197 38.8619 11.8252 38.867 11.8628C39.0445 17.1867 24.2017 20.6194 16.7126 20.6194C8.60055 20.6194 1.83235 17.3855 1.83235 13.3023C1.83235 12.9102 1.91291 12.5182 2.01477 12.1099C2.02502 12.0726 1.99282 12.0665 1.97665 12.0991ZM34.038 5.56132C34.1237 5.69585 34.1669 5.84063 34.1669 6.0341C34.1669 8.312 27.1992 12.3411 16.1058 12.3411C7.95576 12.3411 6.43043 9.3165 6.43043 7.39286C6.43043 6.70531 6.69373 6.00175 7.27414 5.28761C7.30633 5.24437 7.27926 5.22819 7.24195 5.26054C6.18363 6.15758 5.211 7.16753 4.35705 8.25851C3.94897 8.77405 3.69609 9.2305 3.69609 9.50437C3.69609 13.4902 13.6879 16.3807 23.0303 16.3807C32.9848 16.3807 37.4279 13.1306 37.4279 10.2728C37.4279 9.2518 37.0304 8.6557 36.0148 7.50065C35.3542 6.74871 34.7307 6.13644 34.07 5.53425C34.038 5.50782 34.0161 5.52913 34.038 5.56132ZM30.9861 3.28389C27.9138 1.4413 24.3468 0.393555 20.5003 0.393555C16.6269 0.393555 12.952 1.47861 9.86867 3.36958C8.94456 3.93861 8.42342 4.3957 8.42342 4.98123C8.42342 6.7114 12.463 8.57001 19.6295 8.57001C26.7211 8.57001 32.222 6.53363 32.222 4.57299C32.222 4.10534 31.8136 3.77782 30.9861 3.28389Z" fill="#14ADEC"/>
</g>
<defs>
<clipPath id="clip0_32357_1394">
<rect width="267" height="41" fill="white"/>
</clipPath>
</defs>
</svg>
