<svg width="37" height="41" viewBox="0 0 37 41" fill="none" xmlns="http://www.w3.org/2000/svg">
<g clip-path="url(#clip0_32175_1289)">
<path d="M29.2366 17.1245L36.5045 8.39759C36.8348 7.90361 37 7.40964 37 6.91566C37 6.42169 36.8348 6.09237 36.3393 5.76305C36.0089 5.43374 35.6786 5.43374 35.183 5.43374C34.6875 5.43374 34.192 5.43374 33.6964 6.09237L27.4196 13.1727L28.7411 7.5743C28.7411 7.08032 28.7411 6.58635 28.7411 6.09237C28.5759 5.76305 28.0804 5.43374 27.75 5.26908C27.75 5.26908 27.4196 5.26908 27.2545 5.26908C26.5938 5.26908 25.7679 5.59839 25.6027 6.751L24.1161 12.3494L21.6384 1.48193C21.4732 0.329317 20.6473 0 19.9866 0C19.3259 0 19.8214 0 19.6562 0C18.9955 0 18.5 0.658634 18.3348 1.31727C18.3348 1.64659 18.3348 1.81124 18.3348 2.14056L20.4821 12.8434L17.8393 9.38554C17.3438 8.72691 16.683 8.56225 16.3527 8.56225C16.0223 8.56225 15.692 8.56225 15.3616 8.89157C14.8661 9.38554 14.5357 10.0442 14.7009 10.7028C14.7009 11.0321 14.8661 11.1968 15.0313 11.5261L17.6741 15.1486L10.0759 11.3614C9.74554 11.1968 9.41518 11.0321 9.08482 11.0321C8.42411 11.0321 7.92857 11.3614 7.59821 12.0201C7.43304 12.3494 7.26786 12.8434 7.59821 13.3373C7.59821 13.6667 7.92857 14.1606 8.58929 14.49L16.1875 18.4418L2.3125 17.9478C0.660714 17.7831 0 18.6064 0 19.4297C0 19.9237 0 20.253 0.495536 20.5823C0.825893 20.9116 1.32143 21.0763 1.81696 21.0763L15.8571 21.8996L12.5536 23.3815C12.2232 23.3815 12.058 23.7108 11.8929 23.8755C11.3973 24.3695 11.2321 25.0281 11.5625 25.6867C11.8929 26.3454 12.3884 26.6747 13.0491 26.6747C13.7098 26.6747 13.5446 26.6747 13.875 26.51L17.0134 25.1928L9.74554 33.755C9.41518 34.249 9.25 34.743 9.25 35.2369C9.25 35.7309 9.41518 36.0602 9.91071 36.3896C10.2411 36.7189 10.5714 36.7189 11.067 36.7189C11.5625 36.7189 12.058 36.7189 12.5536 36.0602L19.9866 27.6627L18.8304 32.2731C18.5 33.4257 19.1607 34.249 19.9866 34.5783C19.9866 34.5783 20.317 34.5783 20.4821 34.5783C21.1429 34.5783 21.9688 34.249 22.1339 33.0964L23.4554 28.4859L25.7679 39.3534C25.933 40.506 26.7589 41 27.4196 41C28.0804 41 27.5848 41 27.75 41C28.4107 41 28.9062 40.3414 29.0714 39.6827C29.0714 39.3534 29.0714 39.1888 29.0714 38.8594L26.9241 27.8273L30.8884 32.9317C31.3839 33.5904 32.0446 33.755 32.375 33.755C32.7054 33.755 33.0357 33.755 33.3661 33.4257C33.8616 32.9317 34.192 32.2731 34.0268 31.6145C34.0268 31.2851 33.8616 31.1205 33.6964 30.7912L28.7411 24.0402C28.7411 24.0402 28.2455 23.2169 27.4196 24.0402C26.4286 25.1928 24.942 26.0161 23.2902 26.0161C20.1518 26.0161 17.6741 23.5462 17.6741 20.4177C17.6741 17.2892 20.1518 14.8193 23.2902 14.8193C26.4286 14.8193 26.7589 15.6426 27.75 17.1245C27.75 17.1245 28.4107 17.9478 28.9062 17.1245H29.2366Z" fill="#00C0F3"/>
</g>
<defs>
<clipPath id="clip0_32175_1289">
<rect width="37" height="41" fill="white"/>
</clipPath>
</defs>
</svg>
