<svg width="105" height="41" viewBox="0 0 105 41" fill="none" xmlns="http://www.w3.org/2000/svg">
<g clip-path="url(#clip0_32175_1278)">
<path d="M19.6651 0C20.3484 0.000109964 21.1835 0.379795 21.4113 1.51852L23.841 12.3758L25.3596 6.83333C25.5873 5.77054 26.422 5.39057 27.0293 5.39044H27.4853C27.8649 5.46642 28.2445 5.77013 28.4722 6.1497C28.7 6.60525 28.7761 7.13676 28.6242 7.66822L27.3333 13.287L33.635 6.22533C34.1665 5.69388 34.6983 5.54244 35.0779 5.54244C35.4575 5.54248 35.8368 5.69436 36.1404 5.92207C36.5201 6.22578 36.7484 6.60541 36.7484 7.06096C36.7484 7.59227 36.5963 8.04769 36.2168 8.50311L28.9275 17.2346H29.0039C28.3964 17.9939 27.7886 17.2346 27.7886 17.2346C26.7258 15.8681 26.422 14.9568 23.3094 14.9568C20.1964 14.9568 17.767 17.463 17.767 20.5C17.7672 23.5369 20.2725 26.0424 23.3094 26.0424C24.9797 26.0424 26.4224 25.2831 27.4853 24.1443C28.2446 23.3091 28.7762 24.1443 28.7762 24.1443L33.7114 30.9013C33.8632 31.129 34.0909 31.4328 34.091 31.6605C34.3188 32.3439 34.0145 33.0278 33.483 33.4074C33.1795 33.635 32.9515 33.7107 32.4961 33.7107C32.0406 33.7106 31.509 33.559 30.9776 32.8758L27.0293 27.8642L29.0795 38.8735V39.7091C28.9276 40.3923 28.3962 40.8482 27.713 41C27.7549 41 27.8853 41 27.409 41C26.8016 40.9999 25.9669 40.5438 25.7392 39.4051L23.4614 28.6235L22.0941 33.2554C21.8663 34.318 21.0317 34.6974 20.4244 34.6976H19.9684C19.1333 34.4697 18.4502 33.6345 18.7539 32.4198L19.9684 27.7886L12.6034 36.0648C12.0721 36.596 11.5408 36.7477 11.1613 36.7477C10.7816 36.7477 10.4017 36.6718 10.098 36.3681C9.71845 36.0644 9.49074 35.6847 9.49074 35.2292C9.49076 34.6978 9.64285 34.2425 10.0224 33.787L17.159 25.3588L13.9707 26.6497C13.7429 26.8775 13.8184 26.8773 13.135 26.8773C12.4518 26.8773 11.9202 26.4978 11.6165 25.8904C11.3128 25.283 11.465 24.5994 11.9205 24.0679C12.0723 23.9162 12.3 23.7644 12.6034 23.6127L15.7924 22.0941L1.82252 21.3349C1.29104 21.3349 0.758963 21.1829 0.455259 20.8033C0.151728 20.4996 4.92199e-05 20.0441 0 19.5887C0 18.7536 0.683482 17.9185 1.67052 17.8426L15.4892 18.2979L8.04785 14.3496C7.44061 13.97 7.13688 13.5143 7.06096 13.2107C6.98505 12.7551 6.9852 12.2994 7.21296 11.9198C7.5167 11.3125 8.12413 11.0093 8.73148 11.0093C9.03518 11.0093 9.41467 11.085 9.71837 11.2369L17.311 14.9568L14.7299 11.3125C14.5021 11.0847 14.3503 10.781 14.3503 10.5533C14.1984 9.86993 14.4261 9.18674 14.9576 8.80711C15.2612 8.65527 15.4889 8.50311 15.9444 8.50311C16.4 8.50311 16.9315 8.65541 17.463 9.33874L20.1204 12.7554L17.9946 2.12578V1.29015C18.1465 0.606976 18.6779 0.151851 19.3611 0H19.6651Z" fill="#00B5F0"/>
<path fill-rule="evenodd" clip-rule="evenodd" d="M72.2816 14.5016C75.015 14.5016 77.2932 17.0833 77.2932 20.5C77.2931 23.9165 75.0149 26.4977 72.2816 26.4977C70.991 26.4977 69.928 26.0423 69.017 25.1312V29.0795C69.0169 29.9146 68.3336 30.598 67.4984 30.598C66.6633 30.598 65.98 29.9146 65.9799 29.0795V16.2477C65.98 15.4126 66.7392 14.7292 67.4984 14.7292C68.2577 14.7292 68.941 15.2608 69.017 16.0201C69.8521 15.109 71.0669 14.5772 72.2816 14.5772V14.5016ZM71.6744 17.3866C70.2318 17.3866 69.017 18.7534 69.017 20.5756C69.017 22.3979 70.1559 23.6883 71.6744 23.6883C73.1929 23.6883 74.4074 22.4738 74.4074 20.5756C74.4074 18.6775 73.117 17.3866 71.6744 17.3866Z" fill="#00B5F0"/>
<path d="M59.4506 14.5779C60.6653 14.578 61.8041 14.8814 62.9429 15.4128C63.3984 15.6406 63.7021 16.096 63.7022 16.6273C63.7022 17.3866 63.1705 17.9182 62.4113 17.9182C62.1836 17.9182 62.0317 17.8421 61.804 17.7662C60.8929 17.3107 60.0575 17.0833 59.3742 17.0833C58.5391 17.0834 58.0077 17.3111 58.0077 17.8426C57.9321 18.5258 59.1469 18.8292 60.4375 19.2847V19.4367C62.1078 20.0441 64.0816 20.8794 64.0818 23.081C64.0818 25.6625 61.9559 26.6497 59.5262 26.6497C58.0836 26.6497 56.565 26.1943 55.1983 25.2832C54.8946 25.0554 54.5911 24.6757 54.591 24.1443C54.591 23.385 55.1227 22.8534 55.8819 22.8534C56.1854 22.8534 56.413 22.9295 56.5648 23.0054C57.7037 23.6887 58.7671 23.9923 59.6782 23.9923C60.6652 23.9923 61.1967 23.6125 61.1967 23.081C61.2723 22.3979 59.9818 22.0941 58.6913 21.7145C57.0969 21.183 55.1227 20.4236 55.1227 18.1459C55.1228 15.7923 57.1729 14.5779 59.4506 14.5779Z" fill="#00B5F0"/>
<path d="M46.1636 14.5779C49.6561 14.5779 49.1248 15.1088 50.1119 15.8681C50.3396 16.0199 50.5671 16.3999 50.5671 16.9313C50.5671 17.6905 49.96 18.2977 49.125 18.2979C48.2901 18.2979 48.4411 18.1464 48.2137 17.9946C47.6064 17.5391 46.9989 17.2354 46.0879 17.2353C44.4176 17.2353 43.2021 18.7537 43.2021 20.5C43.2022 22.3979 44.4172 23.8401 46.2392 23.8403C48.0612 23.8403 47.8339 23.5368 48.517 23.0054C48.6688 22.8536 48.973 22.7014 49.3526 22.7014C50.1118 22.7015 50.6435 23.3095 50.6435 24.0687C50.6434 24.8276 50.4911 24.8278 50.1875 25.0556C49.2005 25.9665 47.9858 26.574 46.0879 26.5741C42.6714 26.5741 40.0897 23.9166 40.0895 20.652L40.1651 20.5756C40.1651 17.2349 42.671 14.5779 46.1636 14.5779Z" fill="#00B5F0"/>
<path fill-rule="evenodd" clip-rule="evenodd" d="M98.4753 14.5779C101.816 14.5779 104.018 17.6907 104.018 20.1204C104.018 22.5494 103.411 21.6391 102.576 21.6389H95.9699C96.2737 23.2331 97.4123 24.0686 98.9306 24.0687C100.449 24.0687 100.677 23.7645 101.36 23.233C101.588 23.0812 101.816 23.0054 102.12 23.0054C102.803 23.0054 103.335 23.5367 103.335 24.2199C103.335 24.9031 103.183 24.9036 102.955 25.1312C101.968 26.0423 100.601 26.5741 98.9306 26.5741L98.7793 26.4977C95.3627 26.4977 92.7809 24.0682 92.7809 20.5756C92.7809 17.2349 95.1346 14.5779 98.4753 14.5779ZM98.4753 17.0833C96.9568 17.0833 96.1213 18.0702 95.8936 19.5887H101.057C100.905 18.1461 99.9939 17.0833 98.4753 17.0833Z" fill="#00B5F0"/>
<path d="M90.9591 14.7292C91.9462 14.7292 92.6296 15.4889 92.6296 16.3241C92.6295 17.159 92.0976 17.5384 90.4275 17.9939C88.6814 18.4494 88.0741 19.0571 88.0741 20.6513V24.9036C88.074 25.7387 87.3907 26.4221 86.5556 26.4221C85.7204 26.4221 85.0371 25.7387 85.037 24.9036V16.2477C85.0371 15.4126 85.7204 14.7292 86.5556 14.7292C87.3907 14.7292 88.074 15.4126 88.0741 16.2477V16.5517C88.7574 15.4128 89.7447 14.6536 91.0355 14.6536L90.9591 14.7292Z" fill="#00B5F0"/>
<path d="M80.7855 14.6536C81.6207 14.6536 82.304 15.3369 82.304 16.1721V24.8272C82.304 25.6624 81.6207 26.3457 80.7855 26.3457C79.9503 26.3457 79.267 25.6624 79.267 24.8272V16.1721C79.267 15.3369 79.9503 14.6536 80.7855 14.6536Z" fill="#00B5F0"/>
<path d="M104.475 15.4884C104.475 15.4884 104.475 15.5647 104.399 15.5648L104.348 15.4884H104.475Z" fill="#00B5F0"/>
<path d="M104.348 15.4884H104.323V15.4499L104.348 15.4884Z" fill="#00B5F0"/>
<path d="M104.095 15.4884C104.095 15.4884 104.095 15.5647 104.019 15.5648C103.943 15.5648 103.943 15.5644 103.943 15.4884V14.9576H103.867C103.867 14.9576 103.867 14.8814 103.943 14.8812H104.171C104.323 14.8813 104.474 14.9572 104.475 15.1088C104.475 15.2607 104.474 15.2613 104.323 15.3372V15.4499L104.247 15.3372V15.2608C104.323 15.2608 104.399 15.2609 104.399 15.1852C104.399 15.1093 104.399 15.1088 104.247 15.1088H104.095V15.4884Z" fill="#00B5F0"/>
<path fill-rule="evenodd" clip-rule="evenodd" d="M104.171 14.5779C104.551 14.5781 104.854 14.8813 104.854 15.2608C104.854 15.6403 104.551 15.9443 104.171 15.9444C103.792 15.9444 103.488 15.6404 103.488 15.2608C103.488 14.8812 103.792 14.5779 104.171 14.5779ZM104.171 14.6536C103.792 14.6536 103.563 14.9571 103.563 15.2608C103.563 15.6404 103.792 15.8681 104.171 15.8681C104.551 15.8679 104.779 15.5644 104.779 15.2608C104.778 14.8813 104.551 14.6537 104.171 14.6536Z" fill="#00B5F0"/>
</g>
<defs>
<clipPath id="clip0_32175_1278">
<rect width="105" height="41" fill="white"/>
</clipPath>
</defs>
</svg>
