<svg width="32" height="33" viewBox="0 0 32 33" fill="none" xmlns="http://www.w3.org/2000/svg">
<path d="M23.5 18.77C27.6421 18.77 31 15.4122 31 11.27C31 7.12788 27.6421 3.77002 23.5 3.77002C19.3579 3.77002 16 7.12789 16 11.27C16 15.4122 19.3579 18.77 23.5 18.77Z" fill="url(#paint0_linear_27278_1652)"/>
<path fill-rule="evenodd" clip-rule="evenodd" d="M16 9.1927C11.8118 9.1927 8.41667 12.5869 8.41667 16.7738C8.41667 20.9608 11.8118 24.355 16 24.355C20.1882 24.355 23.5833 20.9608 23.5833 16.7738C23.5833 12.5869 20.1882 9.1927 16 9.1927ZM3 16.7738C3 9.59621 8.8203 3.77759 16 3.77759C23.1797 3.77759 29 9.59621 29 16.7738C29 23.9515 23.1797 29.7701 16 29.7701C8.8203 29.7701 3 23.9515 3 16.7738Z" fill="url(#paint1_linear_27278_1652)"/>
<path fill-rule="evenodd" clip-rule="evenodd" d="M28.9942 16.3751C27.6251 17.8438 25.6733 18.7622 23.5071 18.7622C23.4445 18.7622 23.3821 18.7614 23.3198 18.7599C23.4926 18.1246 23.5848 17.4561 23.5848 16.766C23.5848 12.6773 20.3479 9.34458 16.2969 9.19044C16.8925 7.11362 18.3612 5.40589 20.2803 4.48987C25.2401 6.21755 28.8314 10.866 28.9942 16.3751Z" fill="url(#paint2_linear_27278_1652)"/>
<path d="M23.4961 18.77C27.6382 18.77 30.9961 15.4122 30.9961 11.27C30.9961 7.12788 27.6382 3.77002 23.4961 3.77002C19.354 3.77002 15.9961 7.12789 15.9961 11.27C15.9961 15.4122 19.354 18.77 23.4961 18.77Z" fill="url(#paint3_radial_27278_1652)"/>
<defs>
<linearGradient id="paint0_linear_27278_1652" x1="16.2974" y1="3.77002" x2="28.579" y2="16.0515" gradientUnits="userSpaceOnUse">
<stop stop-color="#0087EA"/>
<stop offset="1" stop-color="#63FFF7"/>
</linearGradient>
<linearGradient id="paint1_linear_27278_1652" x1="29" y1="3.77759" x2="3.00748" y2="29.7776" gradientUnits="userSpaceOnUse">
<stop stop-color="#0051AF"/>
<stop offset="0.666238" stop-color="#0087EA"/>
<stop offset="1" stop-color="#00BCEB"/>
</linearGradient>
<linearGradient id="paint2_linear_27278_1652" x1="20.9463" y1="8.76002" x2="27.8993" y2="16.8017" gradientUnits="userSpaceOnUse">
<stop stop-color="#74BF4B" stop-opacity="0"/>
<stop offset="1" stop-color="#74BF4B"/>
</linearGradient>
<radialGradient id="paint3_radial_27278_1652" cx="0" cy="0" r="1" gradientUnits="userSpaceOnUse" gradientTransform="translate(30.9961 18.77) rotate(-135) scale(21.2132 21.2042)">
<stop stop-color="#00BCEB" stop-opacity="0"/>
<stop offset="0.666962" stop-color="#00BCEB" stop-opacity="0"/>
<stop offset="1" stop-color="#00BCEB"/>
</radialGradient>
</defs>
</svg>
