<svg width="351" height="28" viewBox="0 0 351 28" fill="none" xmlns="http://www.w3.org/2000/svg">
<mask id="mask0_32708_1706" style="mask-type:luminance" maskUnits="userSpaceOnUse" x="1" y="3" width="38" height="20">
<path fill-rule="evenodd" clip-rule="evenodd" d="M1.02637 3H38.9732V22.9999H1.02637V3Z" fill="white"/>
</mask>
<g mask="url(#mask0_32708_1706)">
<path fill-rule="evenodd" clip-rule="evenodd" d="M38.9733 9.20305C38.9733 8.74805 38.6039 8.38055 38.1502 8.38055C37.6946 8.38055 37.3252 8.74805 37.3252 9.20305V10.9343C37.3252 11.3906 37.6946 11.7593 38.1502 11.7593C38.6039 11.7593 38.9733 11.3906 38.9733 10.9343V9.20305ZM34.4435 6.93073C34.4435 6.47698 34.0747 6.1076 33.6097 6.1076C33.1547 6.1076 32.7866 6.47698 32.7866 6.93073V10.9345C32.7866 11.3907 33.1547 11.7595 33.6097 11.7595C34.0747 11.7595 34.4435 11.3907 34.4435 10.9345V6.93073ZM29.9041 3.82313C29.9041 3.36875 29.5353 3 29.0803 3C28.6253 3 28.2566 3.36875 28.2566 3.82313V12.5788C28.2566 13.0356 28.6253 13.4044 29.0803 13.4044C29.5353 13.4044 29.9041 13.0356 29.9041 12.5788V3.82313ZM25.3631 6.93073C25.3631 6.47698 24.9943 6.1076 24.5393 6.1076C24.085 6.1076 23.7156 6.47698 23.7156 6.93073V10.9345C23.7156 11.3907 24.085 11.7595 24.5393 11.7595C24.9943 11.7595 25.3631 11.3907 25.3631 10.9345V6.93073ZM20.8233 9.20305C20.8233 8.74805 20.4545 8.38055 20.002 8.38055C19.5476 8.38055 19.1764 8.74805 19.1764 9.20305V10.9343C19.1764 11.3906 19.5476 11.7593 20.002 11.7593C20.4545 11.7593 20.8233 11.3906 20.8233 10.9343V9.20305ZM16.2915 6.93073C16.2915 6.47698 15.9203 6.1076 15.4647 6.1076C15.0103 6.1076 14.639 6.47698 14.639 6.93073V10.9345C14.639 11.3907 15.0103 11.7595 15.4647 11.7595C15.9203 11.7595 16.2915 11.3907 16.2915 10.9345V6.93073ZM11.7529 3.82313C11.7529 3.36875 11.3823 3 10.9273 3C10.4723 3 10.1011 3.36875 10.1011 3.82313V12.5788C10.1011 13.0356 10.4723 13.4044 10.9273 13.4044C11.3823 13.4044 11.7529 13.0356 11.7529 12.5788V3.82313ZM7.2156 6.93073C7.2156 6.47698 6.84435 6.1076 6.38997 6.1076C5.93497 6.1076 5.56372 6.47698 5.56372 6.93073V10.9345C5.56372 11.3907 5.93497 11.7595 6.38997 11.7595C6.84435 11.7595 7.2156 11.3907 7.2156 10.9345V6.93073ZM2.67824 9.20305C2.67824 8.74805 2.30762 8.38055 1.85199 8.38055C1.39762 8.38055 1.02637 8.74805 1.02637 9.20305V10.9343C1.02637 11.3906 1.39762 11.7593 1.85199 11.7593C2.30762 11.7593 2.67824 11.3906 2.67824 10.9343V9.20305ZM19.7334 16.3805C19.6834 16.3667 18.9216 16.1699 18.1116 16.1699C16.5778 16.1699 15.6534 16.998 15.6534 18.2317C15.6534 19.323 16.4272 19.8674 17.3541 20.1599C17.4566 20.1949 17.6072 20.2417 17.7091 20.2755C18.1222 20.4049 18.4503 20.598 18.4503 20.9317C18.4503 21.3055 18.0697 21.548 17.2416 21.548C16.5153 21.548 15.8172 21.3399 15.6709 21.303V22.8205C15.7528 22.838 16.5822 22.9999 17.4666 22.9999C18.7403 22.9999 20.1972 22.4442 20.1972 20.7874C20.1972 19.9849 19.7041 19.2436 18.6247 18.9011L18.1659 18.7549C17.8922 18.6686 17.4028 18.5286 17.4028 18.1267C17.4028 17.8099 17.7653 17.5867 18.4328 17.5867C19.0078 17.5867 19.7084 17.7805 19.7334 17.788V16.3805ZM32.0738 17.8514C33.0594 17.8514 33.795 18.6283 33.795 19.5851C33.795 20.5445 33.0594 21.3214 32.0738 21.3214C31.0863 21.3214 30.3531 20.5445 30.3531 19.5851C30.3531 18.6283 31.0863 17.8514 32.0738 17.8514ZM35.5573 19.5851C35.5573 17.7026 34.1011 16.1726 32.0736 16.1726C30.0454 16.1726 28.5911 17.7026 28.5911 19.5851C28.5911 21.472 30.0454 23.0001 32.0736 23.0001C34.1011 23.0001 35.5573 21.472 35.5573 19.5851ZM9.47125 16.4076C9.31438 16.3626 8.73625 16.1726 7.95375 16.1726C5.92875 16.1726 4.4425 17.617 4.4425 19.5851C4.4425 21.7101 6.08313 23.0001 7.95375 23.0001C8.6975 23.0001 9.26375 22.8245 9.47125 22.7651V20.9957C9.39938 21.0351 8.85563 21.3457 8.07375 21.3457C6.96438 21.3457 6.24938 20.5657 6.24938 19.5851C6.24938 18.5751 6.99563 17.8276 8.07375 17.8276C8.86875 17.8276 9.40438 18.1445 9.47125 18.1782V16.4076ZM26.8388 16.4076C26.682 16.3626 26.1032 16.1726 25.322 16.1726C23.2945 16.1726 21.8088 17.617 21.8088 19.5851C21.8088 21.7101 23.4507 23.0001 25.322 23.0001C26.0613 23.0001 26.6295 22.8245 26.8388 22.7651V20.9957C26.7663 21.0351 26.2213 21.3457 25.4395 21.3457C24.332 21.3457 23.617 20.5657 23.617 19.5851C23.617 18.5751 24.3632 17.8276 25.4395 17.8276C26.2351 17.8276 26.7713 18.1445 26.8388 18.1782V16.4076ZM11.7582 22.8839H13.4226V16.2895H11.7582V22.8839Z" fill="black"/>
</g>
<path fill-rule="evenodd" clip-rule="evenodd" d="M84.9092 10.2256C85.3339 10.2256 85.7843 10.2764 86.2598 10.3779C86.7397 10.4749 87.1872 10.6549 87.6025 10.918C88.0226 11.1811 88.367 11.5567 88.6348 12.0459C88.9025 12.5306 89.0361 13.1611 89.0361 13.9365V21H87.0146V19.5459H86.9307C86.7968 19.8134 86.5966 20.0766 86.3291 20.335C86.0613 20.5935 85.717 20.8087 85.2969 20.9795C84.8768 21.1503 84.3734 21.2354 83.7871 21.2354C83.1132 21.2353 82.5037 21.1106 81.959 20.8613C81.4144 20.6074 80.9826 20.2407 80.6641 19.7607C80.3501 19.2806 80.1934 18.6912 80.1934 17.9941C80.1934 17.3942 80.3093 16.9004 80.54 16.5127C80.7709 16.125 81.0823 15.818 81.4746 15.5918C81.867 15.3656 82.3054 15.1945 82.79 15.0791C83.2748 14.9637 83.7693 14.8764 84.2725 14.8164C84.9093 14.7426 85.4263 14.6819 85.8232 14.6357C86.2201 14.585 86.5084 14.5043 86.6885 14.3936C86.8685 14.2828 86.959 14.1028 86.959 13.8535V13.8047C86.9589 13.2002 86.7878 12.7317 86.4463 12.3994C86.1093 12.0671 85.6059 11.9004 84.9365 11.9004C84.2396 11.9004 83.6906 12.056 83.2891 12.3652C82.8921 12.6699 82.6172 13.0089 82.4648 13.3828L80.5186 12.9395C80.7494 12.2932 81.0871 11.772 81.5303 11.375C81.9781 10.9734 82.4926 10.682 83.0742 10.502C83.6558 10.3173 84.2676 10.2256 84.9092 10.2256ZM86.9658 15.793C86.8919 15.8668 86.7483 15.9354 86.5361 16C86.3285 16.06 86.0909 16.113 85.8232 16.1592C85.5556 16.2007 85.2948 16.2404 85.041 16.2773C84.7871 16.3097 84.5741 16.3373 84.4033 16.3604C84.0019 16.4111 83.635 16.4963 83.3027 16.6162C82.975 16.7362 82.7112 16.9095 82.5127 17.1357C82.3189 17.3573 82.2227 17.6532 82.2227 18.0225C82.2227 18.5348 82.4116 18.9224 82.79 19.1855C83.1686 19.4441 83.6511 19.5732 84.2373 19.5732C84.8096 19.5732 85.2989 19.4604 85.7051 19.2344C86.1159 19.0082 86.4283 18.7124 86.6406 18.3477C86.8574 17.9785 86.9658 17.5839 86.9658 17.1641V15.793Z" fill="black"/>
<path fill-rule="evenodd" clip-rule="evenodd" d="M123.956 10.2256C124.381 10.2256 124.831 10.2764 125.307 10.3779C125.787 10.4749 126.234 10.6549 126.649 10.918C127.069 11.1811 127.414 11.5567 127.682 12.0459C127.949 12.5306 128.083 13.1611 128.083 13.9365V21H126.062V19.5459H125.978C125.844 19.8134 125.643 20.0766 125.376 20.335C125.108 20.5935 124.764 20.8087 124.344 20.9795C123.924 21.1503 123.42 21.2354 122.834 21.2354C122.16 21.2353 121.551 21.1106 121.006 20.8613C120.461 20.6074 120.029 20.2407 119.711 19.7607C119.397 19.2806 119.24 18.6912 119.24 17.9941C119.24 17.3942 119.356 16.9004 119.587 16.5127C119.818 16.125 120.129 15.818 120.521 15.5918C120.914 15.3656 121.352 15.1945 121.837 15.0791C122.322 14.9637 122.816 14.8764 123.319 14.8164C123.956 14.7426 124.473 14.6819 124.87 14.6357C125.267 14.585 125.555 14.5043 125.735 14.3936C125.915 14.2828 126.006 14.1028 126.006 13.8535V13.8047C126.006 13.2002 125.835 12.7317 125.493 12.3994C125.156 12.0671 124.653 11.9004 123.983 11.9004C123.286 11.9004 122.738 12.056 122.336 12.3652C121.939 12.6699 121.664 13.0089 121.512 13.3828L119.565 12.9395C119.796 12.2932 120.134 11.772 120.577 11.375C121.025 10.9734 121.539 10.682 122.121 10.502C122.703 10.3173 123.314 10.2256 123.956 10.2256ZM126.013 15.793C125.939 15.8668 125.795 15.9354 125.583 16C125.375 16.06 125.138 16.113 124.87 16.1592C124.602 16.2007 124.342 16.2404 124.088 16.2773C123.834 16.3097 123.621 16.3373 123.45 16.3604C123.049 16.4111 122.682 16.4963 122.35 16.6162C122.022 16.7362 121.758 16.9095 121.56 17.1357C121.366 17.3573 121.27 17.6532 121.27 18.0225C121.27 18.5348 121.458 18.9224 121.837 19.1855C122.215 19.4441 122.698 19.5732 123.284 19.5732C123.856 19.5732 124.346 19.4604 124.752 19.2344C125.163 19.0082 125.475 18.7124 125.688 18.3477C125.904 17.9785 126.013 17.5839 126.013 17.1641V15.793Z" fill="black"/>
<path fill-rule="evenodd" clip-rule="evenodd" d="M201.904 10.2256C202.329 10.2256 202.779 10.2764 203.255 10.3779C203.735 10.4749 204.182 10.6549 204.598 10.918C205.018 11.1811 205.362 11.5567 205.63 12.0459C205.898 12.5306 206.031 13.1611 206.031 13.9365V21H204.01V19.5459H203.926C203.792 19.8134 203.592 20.0766 203.324 20.335C203.056 20.5935 202.712 20.8087 202.292 20.9795C201.872 21.1503 201.368 21.2354 200.782 21.2354C200.108 21.2353 199.499 21.1106 198.954 20.8613C198.41 20.6074 197.978 20.2407 197.659 19.7607C197.345 19.2806 197.188 18.6912 197.188 17.9941C197.189 17.3942 197.304 16.9004 197.535 16.5127C197.766 16.125 198.077 15.818 198.47 15.5918C198.862 15.3656 199.3 15.1945 199.785 15.0791C200.27 14.9637 200.764 14.8764 201.268 14.8164C201.904 14.7426 202.421 14.6819 202.818 14.6357C203.215 14.585 203.504 14.5043 203.684 14.3936C203.864 14.2828 203.954 14.1028 203.954 13.8535V13.8047C203.954 13.2002 203.783 12.7317 203.441 12.3994C203.104 12.0671 202.601 11.9004 201.932 11.9004C201.235 11.9004 200.686 12.056 200.284 12.3652C199.887 12.6699 199.612 13.0089 199.46 13.3828L197.514 12.9395C197.744 12.2932 198.082 11.772 198.525 11.375C198.973 10.9734 199.488 10.682 200.069 10.502C200.651 10.3173 201.263 10.2256 201.904 10.2256ZM203.961 15.793C203.887 15.8668 203.743 15.9354 203.531 16C203.324 16.06 203.086 16.113 202.818 16.1592C202.551 16.2007 202.29 16.2404 202.036 16.2773C201.782 16.3097 201.569 16.3373 201.398 16.3604C200.997 16.4111 200.63 16.4963 200.298 16.6162C199.97 16.7362 199.706 16.9095 199.508 17.1357C199.314 17.3573 199.218 17.6532 199.218 18.0225C199.218 18.5348 199.407 18.9224 199.785 19.1855C200.164 19.4441 200.646 19.5732 201.232 19.5732C201.805 19.5732 202.294 19.4604 202.7 19.2344C203.111 19.0082 203.423 18.7124 203.636 18.3477C203.853 17.9785 203.961 17.5839 203.961 17.1641V15.793Z" fill="black"/>
<path fill-rule="evenodd" clip-rule="evenodd" d="M66.2607 10.2256C67.2579 10.2256 68.1278 10.4541 68.8711 10.9111C69.6143 11.3682 70.1917 12.0096 70.6025 12.8359C71.0134 13.6623 71.2188 14.6272 71.2188 15.7305C71.2187 16.8291 71.0134 17.7897 70.6025 18.6113C70.1917 19.4329 69.6142 20.0723 68.8711 20.5293C68.1279 20.9862 67.2577 21.2148 66.2607 21.2148C65.2637 21.2148 64.3936 20.9862 63.6504 20.5293C62.9072 20.0723 62.3298 19.4329 61.9189 18.6113C61.5081 17.7897 61.3028 16.8291 61.3027 15.7305C61.3027 14.6272 61.5082 13.6622 61.9189 12.8359C62.3298 12.0096 62.9072 11.3682 63.6504 10.9111C64.3936 10.4541 65.2636 10.2256 66.2607 10.2256ZM66.2676 11.9561C65.6168 11.9561 65.0767 12.1294 64.6475 12.4756C64.2227 12.8218 63.906 13.2811 63.6982 13.8535C63.4951 14.4213 63.3936 15.045 63.3936 15.7236C63.3936 16.4066 63.4952 17.032 63.6982 17.5996C63.906 18.1674 64.2228 18.6223 64.6475 18.9639C65.0768 19.3055 65.6167 19.4765 66.2676 19.4766C66.9139 19.4766 67.4493 19.3055 67.874 18.9639C68.2987 18.6222 68.6133 18.1674 68.8164 17.5996C69.024 17.032 69.1279 16.4066 69.1279 15.7236C69.1279 15.045 69.0241 14.4213 68.8164 13.8535C68.6133 13.2811 68.2987 12.8218 67.874 12.4756C67.4493 12.1294 66.9138 11.9561 66.2676 11.9561Z" fill="black"/>
<path fill-rule="evenodd" clip-rule="evenodd" d="M106.781 10.2256C107.778 10.2256 108.648 10.4541 109.392 10.9111C110.135 11.3682 110.712 12.0096 111.123 12.8359C111.534 13.6623 111.739 14.6272 111.739 15.7305C111.739 16.8291 111.534 17.7897 111.123 18.6113C110.712 19.4329 110.135 20.0723 109.392 20.5293C108.648 20.9862 107.778 21.2148 106.781 21.2148C105.784 21.2148 104.914 20.9862 104.171 20.5293C103.428 20.0723 102.85 19.4329 102.439 18.6113C102.029 17.7897 101.823 16.8291 101.823 15.7305C101.823 14.6272 102.029 13.6622 102.439 12.8359C102.85 12.0096 103.428 11.3682 104.171 10.9111C104.914 10.4541 105.784 10.2256 106.781 10.2256ZM106.788 11.9561C106.137 11.9561 105.597 12.1294 105.168 12.4756C104.743 12.8218 104.426 13.2811 104.219 13.8535C104.016 14.4213 103.914 15.045 103.914 15.7236C103.914 16.4066 104.016 17.032 104.219 17.5996C104.426 18.1674 104.743 18.6223 105.168 18.9639C105.597 19.3055 106.137 19.4765 106.788 19.4766C107.434 19.4766 107.97 19.3055 108.395 18.9639C108.819 18.6222 109.134 18.1674 109.337 17.5996C109.545 17.032 109.648 16.4066 109.648 15.7236C109.648 15.045 109.545 14.4213 109.337 13.8535C109.134 13.2811 108.819 12.8218 108.395 12.4756C107.97 12.1294 107.434 11.9561 106.788 11.9561Z" fill="black"/>
<path fill-rule="evenodd" clip-rule="evenodd" d="M144.883 10.2256C145.88 10.2256 146.75 10.4541 147.493 10.9111C148.236 11.3682 148.814 12.0096 149.225 12.8359C149.635 13.6623 149.841 14.6272 149.841 15.7305C149.841 16.8291 149.635 17.7897 149.225 18.6113C148.814 19.4329 148.236 20.0723 147.493 20.5293C146.75 20.9862 145.88 21.2148 144.883 21.2148C143.886 21.2148 143.016 20.9862 142.272 20.5293C141.529 20.0723 140.952 19.4329 140.541 18.6113C140.13 17.7897 139.925 16.8291 139.925 15.7305C139.925 14.6272 140.13 13.6622 140.541 12.8359C140.952 12.0096 141.529 11.3682 142.272 10.9111C143.016 10.4541 143.886 10.2256 144.883 10.2256ZM144.89 11.9561C144.239 11.9561 143.699 12.1294 143.27 12.4756C142.845 12.8218 142.528 13.2811 142.32 13.8535C142.117 14.4213 142.016 15.045 142.016 15.7236C142.016 16.4066 142.117 17.032 142.32 17.5996C142.528 18.1674 142.845 18.6223 143.27 18.9639C143.699 19.3055 144.239 19.4765 144.89 19.4766C145.536 19.4766 146.071 19.3055 146.496 18.9639C146.921 18.6222 147.235 18.1674 147.438 17.5996C147.646 17.032 147.75 16.4066 147.75 15.7236C147.75 15.045 147.646 14.4213 147.438 13.8535C147.235 13.2811 146.921 12.8218 146.496 12.4756C146.071 12.1294 145.536 11.9561 144.89 11.9561Z" fill="black"/>
<path fill-rule="evenodd" clip-rule="evenodd" d="M181.054 10.2256C182.051 10.2256 182.921 10.4541 183.664 10.9111C184.407 11.3682 184.985 12.0096 185.396 12.8359C185.806 13.6623 186.012 14.6272 186.012 15.7305C186.012 16.8291 185.806 17.7897 185.396 18.6113C184.985 19.4329 184.407 20.0723 183.664 20.5293C182.921 20.9862 182.051 21.2148 181.054 21.2148C180.057 21.2148 179.187 20.9862 178.443 20.5293C177.7 20.0723 177.123 19.4329 176.712 18.6113C176.301 17.7897 176.096 16.8291 176.096 15.7305C176.096 14.6272 176.301 13.6622 176.712 12.8359C177.123 12.0096 177.7 11.3682 178.443 10.9111C179.187 10.4541 180.057 10.2256 181.054 10.2256ZM181.061 11.9561C180.41 11.9561 179.87 12.1294 179.44 12.4756C179.016 12.8218 178.699 13.2811 178.491 13.8535C178.288 14.4213 178.187 15.045 178.187 15.7236C178.187 16.4066 178.288 17.032 178.491 17.5996C178.699 18.1674 179.016 18.6223 179.44 18.9639C179.87 19.3055 180.41 19.4765 181.061 19.4766C181.707 19.4766 182.242 19.3055 182.667 18.9639C183.092 18.6222 183.406 18.1674 183.609 17.5996C183.817 17.032 183.921 16.4066 183.921 15.7236C183.921 15.045 183.817 14.4213 183.609 13.8535C183.406 13.2811 183.092 12.8218 182.667 12.4756C182.242 12.1294 181.707 11.9561 181.061 11.9561Z" fill="black"/>
<path d="M191.933 10.2256C192.74 10.2256 193.46 10.3749 194.093 10.6748C194.725 10.9703 195.235 11.3864 195.623 11.9219C196.015 12.4573 196.248 13.0825 196.322 13.7979H194.308C194.197 13.2994 193.943 12.8698 193.546 12.5098C193.154 12.1498 192.627 11.9697 191.967 11.9697C191.39 11.9698 190.884 12.1221 190.45 12.4268C190.021 12.7268 189.686 13.1564 189.446 13.7148C189.206 14.2688 189.086 14.9246 189.086 15.6816C189.086 16.457 189.204 17.1263 189.439 17.6895C189.675 18.2527 190.007 18.6897 190.437 18.999C190.87 19.3083 191.381 19.4628 191.967 19.4629C192.359 19.4629 192.715 19.3911 193.033 19.248C193.356 19.1003 193.627 18.8905 193.844 18.6182C194.065 18.3458 194.22 18.0178 194.308 17.6348H196.322C196.248 18.3225 196.025 18.9365 195.651 19.4766C195.277 20.0167 194.776 20.4417 194.148 20.751C193.525 21.0603 192.793 21.2148 191.953 21.2148C190.924 21.2148 190.037 20.9819 189.294 20.5156C188.555 20.0448 187.988 19.3957 187.591 18.5693C187.194 17.743 186.995 16.7968 186.995 15.7305C186.995 14.6502 187.198 13.6965 187.604 12.8701C188.011 12.0392 188.584 11.391 189.322 10.9248C190.061 10.4586 190.931 10.2256 191.933 10.2256Z" fill="black"/>
<path fill-rule="evenodd" clip-rule="evenodd" d="M233.918 10.2256C234.518 10.2256 235.099 10.3241 235.662 10.5225C236.225 10.721 236.731 11.0333 237.179 11.458C237.626 11.8826 237.98 12.4339 238.238 13.1123C238.497 13.7863 238.626 14.6064 238.626 15.5713V16.3047H231.067C231.083 16.9531 231.206 17.5094 231.438 17.9736C231.692 18.4722 232.046 18.8531 232.498 19.1162C232.95 19.3747 233.479 19.5039 234.084 19.5039C234.476 19.5039 234.834 19.4487 235.157 19.3379C235.48 19.2225 235.76 19.0514 235.995 18.8252C236.23 18.599 236.411 18.3196 236.535 17.9873L238.495 18.3408C238.338 18.9178 238.057 19.4235 237.65 19.8574C237.249 20.2867 236.743 20.6213 236.134 20.8613C235.529 21.0968 234.838 21.2148 234.062 21.2148C233.015 21.2148 232.112 20.9907 231.355 20.543C230.603 20.0906 230.021 19.4558 229.61 18.6387C229.204 17.8169 229.001 16.8543 229.001 15.751C229.001 14.6615 229.204 13.7011 229.61 12.8701C230.021 12.0392 230.594 11.391 231.328 10.9248C232.067 10.4586 232.93 10.2256 233.918 10.2256ZM233.932 11.9355C233.35 11.9355 232.842 12.079 232.408 12.3652C231.979 12.6468 231.647 13.0157 231.411 13.4727C231.209 13.8695 231.095 14.2967 231.07 14.7539H236.598C236.598 14.2092 236.486 13.7267 236.265 13.3066C236.043 12.882 235.732 12.5474 235.33 12.3027C234.933 12.0581 234.467 11.9356 233.932 11.9355Z" fill="black"/>
<path d="M258.429 10.2256C259.236 10.2256 259.957 10.3749 260.589 10.6748C261.221 10.9703 261.731 11.3864 262.119 11.9219C262.511 12.4573 262.744 13.0825 262.818 13.7979H260.804C260.693 13.2994 260.439 12.8698 260.042 12.5098C259.65 12.1498 259.123 11.9697 258.463 11.9697C257.886 11.9698 257.38 12.1221 256.946 12.4268C256.517 12.7268 256.182 13.1564 255.942 13.7148C255.702 14.2688 255.582 14.9246 255.582 15.6816C255.582 16.457 255.7 17.1263 255.936 17.6895C256.171 18.2527 256.503 18.6897 256.933 18.999C257.367 19.3083 257.877 19.4628 258.463 19.4629C258.855 19.4629 259.211 19.3911 259.529 19.248C259.852 19.1003 260.123 18.8905 260.34 18.6182C260.561 18.3458 260.716 18.0178 260.804 17.6348H262.818C262.744 18.3225 262.521 18.9365 262.147 19.4766C261.774 20.0167 261.272 20.4417 260.645 20.751C260.021 21.0603 259.289 21.2148 258.449 21.2148C257.42 21.2148 256.533 20.9819 255.79 20.5156C255.051 20.0448 254.484 19.3957 254.087 18.5693C253.69 17.743 253.491 16.7968 253.491 15.7305C253.491 14.6502 253.694 13.6965 254.101 12.8701C254.507 12.0392 255.08 11.391 255.818 10.9248C256.557 10.4586 257.427 10.2256 258.429 10.2256Z" fill="black"/>
<path fill-rule="evenodd" clip-rule="evenodd" d="M268.623 10.2256C269.223 10.2256 269.804 10.3241 270.367 10.5225C270.93 10.721 271.436 11.0333 271.884 11.458C272.331 11.8826 272.685 12.4339 272.943 13.1123C273.202 13.7863 273.331 14.6064 273.331 15.5713V16.3047H265.772C265.788 16.9531 265.911 17.5094 266.144 17.9736C266.397 18.4722 266.751 18.8531 267.203 19.1162C267.656 19.3747 268.184 19.5039 268.789 19.5039C269.181 19.5039 269.539 19.4487 269.862 19.3379C270.185 19.2225 270.465 19.0514 270.7 18.8252C270.935 18.599 271.116 18.3196 271.24 17.9873L273.2 18.3408C273.043 18.9178 272.762 19.4235 272.355 19.8574C271.954 20.2867 271.448 20.6213 270.839 20.8613C270.234 21.0968 269.543 21.2148 268.768 21.2148C267.72 21.2148 266.818 20.9907 266.061 20.543C265.308 20.0906 264.726 19.4558 264.315 18.6387C263.909 17.8169 263.706 16.8543 263.706 15.751C263.706 14.6615 263.909 13.7011 264.315 12.8701C264.726 12.0392 265.299 11.391 266.033 10.9248C266.772 10.4586 267.635 10.2256 268.623 10.2256ZM268.637 11.9355C268.055 11.9355 267.547 12.079 267.113 12.3652C266.684 12.6468 266.352 13.0157 266.116 13.4727C265.914 13.8695 265.8 14.2967 265.775 14.7539H271.303C271.303 14.2092 271.191 13.7267 270.97 13.3066C270.748 12.882 270.437 12.5474 270.035 12.3027C269.638 12.0581 269.172 11.9356 268.637 11.9355Z" fill="black"/>
<path fill-rule="evenodd" clip-rule="evenodd" d="M297.059 10.2256C298.056 10.2256 298.926 10.4541 299.669 10.9111C300.412 11.3682 300.99 12.0096 301.4 12.8359C301.811 13.6623 302.017 14.6272 302.017 15.7305C302.017 16.8291 301.811 17.7897 301.4 18.6113C300.99 19.4329 300.412 20.0723 299.669 20.5293C298.926 20.9862 298.056 21.2148 297.059 21.2148C296.062 21.2148 295.191 20.9862 294.448 20.5293C293.705 20.0723 293.128 19.4329 292.717 18.6113C292.306 17.7897 292.101 16.8291 292.101 15.7305C292.101 14.6272 292.306 13.6622 292.717 12.8359C293.128 12.0096 293.705 11.3682 294.448 10.9111C295.191 10.4541 296.061 10.2256 297.059 10.2256ZM297.065 11.9561C296.415 11.9561 295.875 12.1294 295.445 12.4756C295.021 12.8218 294.704 13.2811 294.496 13.8535C294.293 14.4213 294.191 15.045 294.191 15.7236C294.191 16.4066 294.293 17.032 294.496 17.5996C294.704 18.1674 295.021 18.6223 295.445 18.9639C295.875 19.3055 296.415 19.4765 297.065 19.4766C297.712 19.4766 298.247 19.3055 298.672 18.9639C299.097 18.6222 299.411 18.1674 299.614 17.5996C299.822 17.032 299.926 16.4066 299.926 15.7236C299.926 15.045 299.822 14.4213 299.614 13.8535C299.411 13.2811 299.097 12.8218 298.672 12.4756C298.247 12.1294 297.712 11.9561 297.065 11.9561Z" fill="black"/>
<path fill-rule="evenodd" clip-rule="evenodd" d="M331.421 10.2256C332.418 10.2256 333.288 10.4541 334.031 10.9111C334.775 11.3682 335.352 12.0096 335.763 12.8359C336.174 13.6623 336.379 14.6272 336.379 15.7305C336.379 16.8291 336.174 17.7897 335.763 18.6113C335.352 19.4329 334.774 20.0723 334.031 20.5293C333.288 20.9862 332.418 21.2148 331.421 21.2148C330.424 21.2148 329.554 20.9862 328.811 20.5293C328.067 20.0723 327.49 19.4329 327.079 18.6113C326.668 17.7897 326.463 16.8291 326.463 15.7305C326.463 14.6272 326.668 13.6622 327.079 12.8359C327.49 12.0096 328.067 11.3682 328.811 10.9111C329.554 10.4541 330.424 10.2256 331.421 10.2256ZM331.428 11.9561C330.777 11.9561 330.237 12.1294 329.808 12.4756C329.383 12.8218 329.066 13.2811 328.858 13.8535C328.655 14.4213 328.554 15.045 328.554 15.7236C328.554 16.4066 328.655 17.032 328.858 17.5996C329.066 18.1674 329.383 18.6223 329.808 18.9639C330.237 19.3055 330.777 19.4765 331.428 19.4766C332.074 19.4766 332.609 19.3055 333.034 18.9639C333.459 18.6222 333.773 18.1674 333.977 17.5996C334.184 17.032 334.288 16.4066 334.288 15.7236C334.288 15.045 334.184 14.4213 333.977 13.8535C333.773 13.2811 333.459 12.8218 333.034 12.4756C332.609 12.1295 332.074 11.9561 331.428 11.9561Z" fill="black"/>
<path d="M345.793 10.2256C346.942 10.2256 347.848 10.4741 348.508 10.9727C349.168 11.4665 349.604 12.1292 349.816 12.96L347.939 13.293C347.861 13.0529 347.736 12.8244 347.565 12.6074C347.399 12.3904 347.173 12.2127 346.887 12.0742C346.601 11.9358 346.243 11.8662 345.813 11.8662C345.227 11.8663 344.738 11.9977 344.346 12.2607C343.953 12.5192 343.757 12.854 343.757 13.2646C343.757 13.6201 343.888 13.9071 344.151 14.124C344.414 14.341 344.84 14.5187 345.426 14.6572L347.115 15.0449C348.094 15.2711 348.824 15.6199 349.304 16.0908C349.784 16.5617 350.024 17.1734 350.024 17.9258C350.024 18.5627 349.839 19.1304 349.47 19.6289C349.105 20.1228 348.595 20.5104 347.939 20.792C347.289 21.0736 346.533 21.2148 345.675 21.2148C344.484 21.2148 343.512 20.9609 342.76 20.4531C342.007 19.9407 341.546 19.2132 341.375 18.2715L343.376 17.9668C343.501 18.4884 343.757 18.8836 344.145 19.1514C344.532 19.4145 345.038 19.5459 345.661 19.5459C346.34 19.5459 346.883 19.4047 347.289 19.123C347.695 18.837 347.898 18.4887 347.898 18.0781C347.898 17.7459 347.773 17.4664 347.524 17.2402C347.28 17.014 346.903 16.843 346.396 16.7275L344.595 16.333C343.602 16.1068 342.868 15.7468 342.393 15.2529C341.922 14.759 341.687 14.133 341.687 13.376C341.687 12.7481 341.862 12.1984 342.213 11.7275C342.564 11.2568 343.049 10.8901 343.667 10.627C344.286 10.3592 344.994 10.2256 345.793 10.2256Z" fill="black"/>
<path fill-rule="evenodd" clip-rule="evenodd" d="M93.1807 12.0879H93.3057C93.4257 11.8663 93.5991 11.6101 93.8252 11.3193C94.0514 11.0286 94.3651 10.7745 94.7666 10.5576C95.1682 10.336 95.6992 10.2256 96.3594 10.2256C97.2179 10.2256 97.9843 10.4421 98.6582 10.876C99.3322 11.3099 99.861 11.9358 100.244 12.7529C100.632 13.57 100.826 14.5537 100.826 15.7031C100.826 16.8523 100.634 17.8376 100.251 18.6592C99.8678 19.4763 99.3413 20.1066 98.6719 20.5498C98.0025 20.9883 97.2385 21.208 96.3799 21.208C95.7337 21.208 95.2048 21.0998 94.7939 20.8828C94.3879 20.6659 94.0696 20.4118 93.8389 20.1211C93.608 19.8303 93.4303 19.5709 93.3057 19.3447H93.1328V21H91.1104V6.81836H93.1807V12.0879ZM95.916 11.9844C95.3159 11.9844 94.808 12.139 94.3926 12.4482C93.9818 12.7575 93.6703 13.1892 93.458 13.7432C93.2457 14.297 93.1397 14.9432 93.1396 15.6816C93.1396 16.4295 93.2479 17.0853 93.4648 17.6484C93.6818 18.2116 93.9954 18.6531 94.4062 18.9717C94.8171 19.2856 95.3206 19.4424 95.916 19.4424C96.5345 19.4424 97.0513 19.2779 97.4668 18.9502C97.8822 18.6179 98.1968 18.1683 98.4092 17.6006C98.6262 17.0328 98.7344 16.3926 98.7344 15.6816C98.7343 14.9803 98.6282 14.3504 98.416 13.792C98.2083 13.2335 97.8946 12.7919 97.4746 12.4688C97.0591 12.1456 96.5392 11.9844 95.916 11.9844Z" fill="black"/>
<path d="M54.3779 6.625C55.1302 6.62503 55.8316 6.7333 56.4824 6.9502C57.138 7.16255 57.7274 7.47612 58.249 7.8916C58.7706 8.30244 59.2024 8.80592 59.5439 9.40137C59.8855 9.99222 60.1163 10.669 60.2363 11.4307H58.0752C57.9921 10.9691 57.8375 10.5627 57.6113 10.2119C57.3851 9.86106 57.108 9.56303 56.7803 9.31836C56.4526 9.07378 56.0858 8.88928 55.6797 8.76465C55.2781 8.64 54.8509 8.57715 54.3984 8.57715C53.5813 8.57715 52.8494 8.78249 52.2031 9.19336C51.5614 9.60423 51.0536 10.207 50.6797 11.001C50.3104 11.795 50.126 12.7644 50.126 13.9092C50.126 15.0633 50.3104 16.038 50.6797 16.832C51.0536 17.6258 51.5639 18.2256 52.21 18.6318C52.8563 19.0381 53.5837 19.2412 54.3916 19.2412C54.8394 19.2412 55.2644 19.1815 55.666 19.0615C56.0721 18.9369 56.439 18.7546 56.7666 18.5146C57.0944 18.2746 57.3714 17.981 57.5977 17.6348C57.8285 17.2839 57.9875 16.8821 58.0752 16.4297L60.2363 16.4365C60.1209 17.1336 59.8968 17.776 59.5645 18.3623C59.2367 18.9439 58.8138 19.4464 58.2969 19.8711C57.7844 20.2912 57.1982 20.6168 56.5381 20.8477C55.878 21.0785 55.158 21.1943 54.3779 21.1943C53.15 21.1943 52.0559 20.9029 51.0957 20.3213C50.1355 19.735 49.3782 18.8971 48.8242 17.8076C48.2749 16.7182 48 15.4187 48 13.9092C48 12.395 48.2771 11.0956 48.8311 10.0107C49.385 8.92125 50.1423 8.08558 51.1025 7.50391C52.0627 6.9177 53.1547 6.625 54.3779 6.625Z" fill="black"/>
<path d="M285.176 6.625C285.928 6.62502 286.63 6.7333 287.28 6.9502C287.936 7.16255 288.525 7.47612 289.047 7.8916C289.568 8.30244 290 8.80592 290.342 9.40137C290.683 9.99222 290.914 10.669 291.034 11.4307H288.873C288.79 10.9691 288.635 10.5627 288.409 10.2119C288.183 9.86106 287.906 9.56303 287.578 9.31836C287.25 9.07378 286.884 8.88928 286.478 8.76465C286.076 8.64 285.649 8.57715 285.196 8.57715C284.379 8.57715 283.647 8.78249 283.001 9.19336C282.359 9.60423 281.851 10.207 281.478 11.001C281.108 11.795 280.924 12.7644 280.924 13.9092C280.924 15.0633 281.108 16.038 281.478 16.832C281.851 17.6258 282.362 18.2256 283.008 18.6318C283.654 19.0381 284.382 19.2412 285.189 19.2412C285.637 19.2412 286.062 19.1815 286.464 19.0615C286.87 18.9369 287.237 18.7546 287.564 18.5146C287.892 18.2746 288.169 17.981 288.396 17.6348C288.626 17.2839 288.785 16.8821 288.873 16.4297L291.034 16.4365C290.919 17.1336 290.695 17.776 290.362 18.3623C290.035 18.9439 289.612 19.4464 289.095 19.8711C288.582 20.2912 287.996 20.6168 287.336 20.8477C286.676 21.0785 285.956 21.1943 285.176 21.1943C283.948 21.1943 282.854 20.9029 281.894 20.3213C280.933 19.735 280.176 18.8971 279.622 17.8076C279.073 16.7182 278.798 15.4187 278.798 13.9092C278.798 12.395 279.075 11.0956 279.629 10.0107C280.183 8.92125 280.94 8.08558 281.9 7.50391C282.861 6.9177 283.952 6.625 285.176 6.625Z" fill="black"/>
<path d="M132.775 10.3633H134.956V12.0254H132.775V17.877C132.775 18.2786 132.835 18.5811 132.955 18.7842C133.075 18.9826 133.23 19.1185 133.419 19.1924C133.613 19.2616 133.823 19.2968 134.049 19.2969C134.215 19.2969 134.361 19.2848 134.485 19.2617C134.61 19.2386 134.707 19.2209 134.776 19.207L135.15 20.917C135.03 20.9632 134.859 21.0095 134.638 21.0557C134.416 21.1064 134.139 21.1341 133.807 21.1387C133.262 21.1479 132.754 21.0508 132.283 20.8477C131.812 20.6445 131.431 20.3309 131.141 19.9062C130.85 19.4816 130.704 18.9482 130.704 18.3066V12.0254H129.146V10.3633H130.704V7.81543H132.775V10.3633Z" fill="black"/>
<path d="M317.066 10.3633H319.247V12.0254H317.066V17.877C317.066 18.2786 317.126 18.5811 317.246 18.7842C317.366 18.9826 317.521 19.1185 317.71 19.1924C317.904 19.2616 318.114 19.2968 318.34 19.2969C318.506 19.2969 318.652 19.2848 318.776 19.2617C318.901 19.2386 318.998 19.2209 319.067 19.207L319.441 20.917C319.321 20.9632 319.15 21.0095 318.929 21.0557C318.707 21.1064 318.43 21.1341 318.098 21.1387C317.553 21.1479 317.045 21.0508 316.574 20.8477C316.103 20.6445 315.722 20.3309 315.432 19.9062C315.141 19.4816 314.995 18.9482 314.995 18.3066V12.0254H313.438V10.3633H314.995V7.81543H317.066V10.3633Z" fill="black"/>
<path d="M74.75 21H72.6797V6.81836H74.75V21Z" fill="black"/>
<path d="M78.7568 21H76.6865V6.81836H78.7568V21Z" fill="black"/>
<path d="M118.47 10.2188C118.65 10.228 118.791 10.2391 118.893 10.2529V12.2334C118.809 12.2103 118.662 12.1849 118.449 12.1572C118.237 12.1249 118.025 12.1094 117.812 12.1094C117.323 12.1094 116.886 12.2132 116.503 12.4209C116.125 12.624 115.825 12.9079 115.604 13.2725C115.382 13.6325 115.271 14.0432 115.271 14.5049V21H113.2V10.3643H115.201V12.0537H115.312C115.506 11.4813 115.848 11.0309 116.337 10.7031C116.831 10.3708 117.39 10.2051 118.013 10.2051C118.142 10.2051 118.294 10.2095 118.47 10.2188Z" fill="black"/>
<path d="M138.467 21H136.396V10.3643H138.467V21Z" fill="black"/>
<path d="M156.558 10.2256C157.282 10.2256 157.917 10.3779 158.462 10.6826C159.007 10.9827 159.429 11.4299 159.729 12.0254C160.03 12.6209 160.18 13.3573 160.18 14.2344V21H158.108V14.4834C158.108 13.7126 157.907 13.1106 157.506 12.6768C157.104 12.2383 156.553 12.0186 155.852 12.0186C155.372 12.0186 154.944 12.1224 154.57 12.3301C154.201 12.5378 153.907 12.8425 153.69 13.2441C153.478 13.6411 153.372 14.1214 153.372 14.6846V21H151.302V10.3633H153.289V12.0947H153.421C153.666 11.5316 154.049 11.0789 154.57 10.7373C155.097 10.3958 155.759 10.2256 156.558 10.2256Z" fill="black"/>
<path d="M168.723 19.1582H175.148V21H166.583V6.81836H168.723V19.1582Z" fill="black"/>
<path d="M210.01 21H207.939V6.81836H210.01V21Z" fill="black"/>
<path fill-rule="evenodd" clip-rule="evenodd" d="M221.158 6.81836C222.548 6.81836 223.741 7.10218 224.738 7.66992C225.735 8.2331 226.499 9.0435 227.03 10.1006C227.566 11.1531 227.834 12.416 227.834 13.8887C227.834 15.3659 227.564 16.6355 227.023 17.6973C226.488 18.7589 225.713 19.576 224.697 20.1484C223.682 20.7163 222.453 21 221.013 21H216.422V6.81836H221.158ZM218.562 19.1309H220.896C221.976 19.1308 222.873 18.9276 223.589 18.5215C224.304 18.1106 224.84 17.5168 225.195 16.7412C225.551 15.9611 225.729 15.0103 225.729 13.8887C225.729 12.7762 225.551 11.8322 225.195 11.0566C224.844 10.2811 224.321 9.69167 223.624 9.29004C222.927 8.88841 222.06 8.68848 221.026 8.68848H218.562V19.1309Z" fill="black"/>
<path d="M243.848 18.5488H243.958L246.645 10.3643H248.867L245.011 21H242.795L238.931 10.3643H241.153L243.848 18.5488Z" fill="black"/>
<path d="M252.034 21H249.963V10.3643H252.034V21Z" fill="black"/>
<path d="M308.733 10.2256C309.458 10.2256 310.093 10.3779 310.638 10.6826C311.182 10.9827 311.605 11.4299 311.905 12.0254C312.205 12.6209 312.355 13.3573 312.355 14.2344V21H310.284V14.4834C310.284 13.7126 310.083 13.1106 309.682 12.6768C309.28 12.2383 308.729 12.0186 308.027 12.0186C307.547 12.0186 307.12 12.1224 306.746 12.3301C306.377 12.5378 306.083 12.8425 305.866 13.2441C305.654 13.6411 305.548 14.1214 305.548 14.6846V21H303.478V10.3633H305.465V12.0947H305.597C305.841 11.5316 306.224 11.0789 306.746 10.7373C307.272 10.3958 307.935 10.2256 308.733 10.2256Z" fill="black"/>
<path d="M325.957 10.2188C326.137 10.228 326.278 10.2391 326.38 10.2529V12.2334C326.297 12.2103 326.149 12.1849 325.937 12.1572C325.724 12.1249 325.512 12.1094 325.3 12.1094C324.81 12.1094 324.373 12.2132 323.99 12.4209C323.612 12.624 323.312 12.9079 323.091 13.2725C322.869 13.6325 322.758 14.0432 322.758 14.5049V21H320.688V10.3643H322.688V12.0537H322.8C322.994 11.4813 323.335 11.0309 323.824 10.7031C324.318 10.3708 324.877 10.2051 325.5 10.2051C325.629 10.2051 325.782 10.2095 325.957 10.2188Z" fill="black"/>
<path d="M339.91 21H337.84V6.81836H339.91V21Z" fill="black"/>
<path d="M137.441 6.25C137.801 6.25 138.108 6.3727 138.362 6.61719C138.621 6.85724 138.75 7.14862 138.75 7.49023C138.75 7.82714 138.621 8.11769 138.362 8.3623C138.108 8.60234 137.801 8.72266 137.441 8.72266C137.081 8.72262 136.772 8.60232 136.514 8.3623C136.26 8.11771 136.133 7.82709 136.133 7.49023C136.133 7.14862 136.26 6.85724 136.514 6.61719C136.772 6.37265 137.081 6.25004 137.441 6.25Z" fill="black"/>
<path d="M251.009 6.25C251.369 6.25 251.676 6.37271 251.93 6.61719C252.188 6.85724 252.317 7.14862 252.317 7.49023C252.317 7.82714 252.188 8.11769 251.93 8.3623C251.676 8.60234 251.369 8.72266 251.009 8.72266C250.649 8.72262 250.34 8.60232 250.081 8.3623C249.827 8.11771 249.7 7.82709 249.7 7.49023C249.7 7.14862 249.827 6.85724 250.081 6.61719C250.34 6.37265 250.649 6.25004 251.009 6.25Z" fill="black"/>
</svg>
