<svg width="286" height="28" viewBox="0 0 286 28" fill="none" xmlns="http://www.w3.org/2000/svg">
<mask id="mask0_32476_1891" style="mask-type:luminance" maskUnits="userSpaceOnUse" x="6" y="4" width="38" height="20">
<path fill-rule="evenodd" clip-rule="evenodd" d="M6.02637 4H43.9732V23.9999H6.02637V4Z" fill="white"/>
</mask>
<g mask="url(#mask0_32476_1891)">
<path fill-rule="evenodd" clip-rule="evenodd" d="M43.9733 10.2031C43.9733 9.74805 43.6039 9.38055 43.1502 9.38055C42.6946 9.38055 42.3252 9.74805 42.3252 10.2031V11.9343C42.3252 12.3906 42.6946 12.7593 43.1502 12.7593C43.6039 12.7593 43.9733 12.3906 43.9733 11.9343V10.2031ZM39.4435 7.93073C39.4435 7.47698 39.0747 7.1076 38.6097 7.1076C38.1547 7.1076 37.7866 7.47698 37.7866 7.93073V11.9345C37.7866 12.3907 38.1547 12.7595 38.6097 12.7595C39.0747 12.7595 39.4435 12.3907 39.4435 11.9345V7.93073ZM34.9041 4.82313C34.9041 4.36875 34.5353 4 34.0803 4C33.6253 4 33.2566 4.36875 33.2566 4.82313V13.5788C33.2566 14.0356 33.6253 14.4044 34.0803 14.4044C34.5353 14.4044 34.9041 14.0356 34.9041 13.5788V4.82313ZM30.3631 7.93073C30.3631 7.47698 29.9943 7.1076 29.5393 7.1076C29.085 7.1076 28.7156 7.47698 28.7156 7.93073V11.9345C28.7156 12.3907 29.085 12.7595 29.5393 12.7595C29.9943 12.7595 30.3631 12.3907 30.3631 11.9345V7.93073ZM25.8233 10.2031C25.8233 9.74805 25.4545 9.38055 25.002 9.38055C24.5476 9.38055 24.1764 9.74805 24.1764 10.2031V11.9343C24.1764 12.3906 24.5476 12.7593 25.002 12.7593C25.4545 12.7593 25.8233 12.3906 25.8233 11.9343V10.2031ZM21.2915 7.93073C21.2915 7.47698 20.9203 7.1076 20.4647 7.1076C20.0103 7.1076 19.639 7.47698 19.639 7.93073V11.9345C19.639 12.3907 20.0103 12.7595 20.4647 12.7595C20.9203 12.7595 21.2915 12.3907 21.2915 11.9345V7.93073ZM16.7529 4.82313C16.7529 4.36875 16.3823 4 15.9273 4C15.4723 4 15.1011 4.36875 15.1011 4.82313V13.5788C15.1011 14.0356 15.4723 14.4044 15.9273 14.4044C16.3823 14.4044 16.7529 14.0356 16.7529 13.5788V4.82313ZM12.2156 7.93073C12.2156 7.47698 11.8443 7.1076 11.39 7.1076C10.935 7.1076 10.5637 7.47698 10.5637 7.93073V11.9345C10.5637 12.3907 10.935 12.7595 11.39 12.7595C11.8443 12.7595 12.2156 12.3907 12.2156 11.9345V7.93073ZM7.67824 10.2031C7.67824 9.74805 7.30762 9.38055 6.85199 9.38055C6.39762 9.38055 6.02637 9.74805 6.02637 10.2031V11.9343C6.02637 12.3906 6.39762 12.7593 6.85199 12.7593C7.30762 12.7593 7.67824 12.3906 7.67824 11.9343V10.2031ZM24.7334 17.3805C24.6834 17.3667 23.9216 17.1699 23.1116 17.1699C21.5778 17.1699 20.6534 17.998 20.6534 19.2317C20.6534 20.323 21.4272 20.8674 22.3541 21.1599C22.4566 21.1949 22.6072 21.2417 22.7091 21.2755C23.1222 21.4049 23.4503 21.598 23.4503 21.9317C23.4503 22.3055 23.0697 22.548 22.2416 22.548C21.5153 22.548 20.8172 22.3399 20.6709 22.303V23.8205C20.7528 23.838 21.5822 23.9999 22.4666 23.9999C23.7403 23.9999 25.1972 23.4442 25.1972 21.7874C25.1972 20.9849 24.7041 20.2436 23.6247 19.9011L23.1659 19.7549C22.8922 19.6686 22.4028 19.5286 22.4028 19.1267C22.4028 18.8099 22.7653 18.5867 23.4328 18.5867C24.0078 18.5867 24.7084 18.7805 24.7334 18.788V17.3805ZM37.0738 18.8514C38.0594 18.8514 38.795 19.6283 38.795 20.5851C38.795 21.5445 38.0594 22.3214 37.0738 22.3214C36.0863 22.3214 35.3531 21.5445 35.3531 20.5851C35.3531 19.6283 36.0863 18.8514 37.0738 18.8514V18.8514ZM40.5573 20.5851C40.5573 18.7026 39.1011 17.1726 37.0736 17.1726C35.0454 17.1726 33.5911 18.7026 33.5911 20.5851C33.5911 22.472 35.0454 24.0001 37.0736 24.0001C39.1011 24.0001 40.5573 22.472 40.5573 20.5851V20.5851ZM14.4713 17.4076C14.3144 17.3626 13.7363 17.1726 12.9538 17.1726C10.9288 17.1726 9.4425 18.617 9.4425 20.5851C9.4425 22.7101 11.0831 24.0001 12.9538 24.0001C13.6975 24.0001 14.2638 23.8245 14.4713 23.7651V21.9957C14.3994 22.0351 13.8556 22.3457 13.0738 22.3457C11.9644 22.3457 11.2494 21.5657 11.2494 20.5851C11.2494 19.5751 11.9956 18.8276 13.0738 18.8276C13.8688 18.8276 14.4044 19.1445 14.4713 19.1782V17.4076ZM31.8388 17.4076C31.682 17.3626 31.1032 17.1726 30.322 17.1726C28.2945 17.1726 26.8088 18.617 26.8088 20.5851C26.8088 22.7101 28.4507 24.0001 30.322 24.0001C31.0613 24.0001 31.6295 23.8245 31.8388 23.7651V21.9957C31.7663 22.0351 31.2213 22.3457 30.4395 22.3457C29.332 22.3457 28.617 21.5657 28.617 20.5851C28.617 19.5751 29.3632 18.8276 30.4395 18.8276C31.2351 18.8276 31.7713 19.1445 31.8388 19.1782V17.4076ZM16.7582 23.8839H18.4226V17.2895H16.7582V23.8839Z" fill="white"/>
</g>
<path fill-rule="evenodd" clip-rule="evenodd" d="M92.4688 10.501C92.8015 10.501 93.1836 10.5421 93.6152 10.623C94.0514 10.6995 94.4723 10.8588 94.877 11.1016C95.2863 11.3445 95.6266 11.7119 95.8965 12.2021C96.1662 12.6924 96.3008 13.349 96.3008 14.1719V21H94.709V19.5967H94.6279C94.52 19.8216 94.3398 20.062 94.0879 20.3184C93.8361 20.5747 93.5011 20.7928 93.083 20.9727C92.6647 21.1526 92.1535 21.2432 91.5508 21.2432C90.8942 21.2431 90.2979 21.1194 89.7627 20.8721C89.2275 20.6202 88.8031 20.2574 88.4883 19.7852C88.1735 19.3084 88.0157 18.7331 88.0156 18.0586C88.0156 17.4649 88.1323 16.9831 88.3662 16.6143C88.6001 16.2409 88.9134 15.9487 89.3047 15.7373C89.6959 15.526 90.1274 15.3681 90.5996 15.2646C91.0764 15.1567 91.5558 15.0718 92.0371 15.0088C92.6667 14.9278 93.1771 14.8667 93.5684 14.8262C93.964 14.7812 94.2517 14.7069 94.4316 14.6035C94.6161 14.5001 94.709 14.3199 94.709 14.0635V14.0098C94.709 13.3441 94.5264 12.8268 94.1621 12.458C93.8023 12.0892 93.2556 11.9053 92.5225 11.9053C91.7624 11.9053 91.1662 12.0715 90.7344 12.4043C90.3029 12.7369 89.9996 13.0922 89.8242 13.4697L88.3125 12.9307C88.5823 12.3011 88.942 11.8108 89.3916 11.46C89.8458 11.1047 90.3409 10.8572 90.876 10.7178C91.4157 10.5738 91.947 10.501 92.4688 10.501ZM94.709 15.791C94.6415 15.8719 94.4929 15.9462 94.2637 16.0137C94.0388 16.0766 93.7773 16.1331 93.4805 16.1826C93.1883 16.2276 92.9028 16.2677 92.624 16.3037C92.3497 16.3352 92.127 16.3623 91.9561 16.3848C91.5422 16.4387 91.1548 16.527 90.7949 16.6484C90.4399 16.7654 90.1519 16.9425 89.9316 17.1807C89.7157 17.4146 89.6074 17.7348 89.6074 18.1396C89.6075 18.6927 89.8125 19.1112 90.2217 19.3945C90.6355 19.6734 91.1597 19.8125 91.7939 19.8125C92.4237 19.8125 92.9549 19.6888 93.3867 19.4414C93.8228 19.1941 94.1507 18.8746 94.3711 18.4834C94.5959 18.0922 94.7089 17.6807 94.709 17.249V15.791Z" fill="white"/>
<path fill-rule="evenodd" clip-rule="evenodd" d="M133.382 10.501C133.715 10.501 134.097 10.5421 134.528 10.623C134.964 10.6995 135.385 10.8588 135.79 11.1016C136.199 11.3445 136.54 11.7119 136.81 12.2021C137.079 12.6924 137.214 13.349 137.214 14.1719V21H135.622V19.5967H135.541C135.433 19.8216 135.253 20.062 135.001 20.3184C134.749 20.5747 134.414 20.7928 133.996 20.9727C133.578 21.1526 133.067 21.2432 132.464 21.2432C131.807 21.2431 131.211 21.1194 130.676 20.8721C130.141 20.6202 129.716 20.2574 129.401 19.7852C129.087 19.3084 128.929 18.7331 128.929 18.0586C128.929 17.4649 129.045 16.9831 129.279 16.6143C129.513 16.2409 129.826 15.9487 130.218 15.7373C130.609 15.526 131.041 15.3681 131.513 15.2646C131.989 15.1567 132.469 15.0718 132.95 15.0088C133.58 14.9278 134.09 14.8667 134.481 14.8262C134.877 14.7812 135.165 14.7069 135.345 14.6035C135.529 14.5001 135.622 14.3199 135.622 14.0635V14.0098C135.622 13.3441 135.44 12.8268 135.075 12.458C134.715 12.0892 134.169 11.9053 133.436 11.9053C132.675 11.9053 132.079 12.0715 131.647 12.4043C131.216 12.7369 130.913 13.0922 130.737 13.4697L129.226 12.9307C129.495 12.3011 129.855 11.8108 130.305 11.46C130.759 11.1047 131.254 10.8572 131.789 10.7178C132.329 10.5738 132.86 10.501 133.382 10.501ZM135.622 15.791C135.555 15.8719 135.406 15.9462 135.177 16.0137C134.952 16.0766 134.69 16.1331 134.394 16.1826C134.101 16.2276 133.816 16.2677 133.537 16.3037C133.263 16.3352 133.04 16.3623 132.869 16.3848C132.455 16.4387 132.068 16.527 131.708 16.6484C131.353 16.7654 131.065 16.9425 130.845 17.1807C130.629 17.4146 130.521 17.7348 130.521 18.1396C130.521 18.6927 130.726 19.1112 131.135 19.3945C131.549 19.6734 132.073 19.8125 132.707 19.8125C133.337 19.8125 133.868 19.6888 134.3 19.4414C134.736 19.1941 135.064 18.8746 135.284 18.4834C135.509 18.0922 135.622 17.6807 135.622 17.249V15.791Z" fill="white"/>
<path fill-rule="evenodd" clip-rule="evenodd" d="M195.354 10.501C195.687 10.501 196.069 10.5421 196.501 10.623C196.937 10.6995 197.358 10.8588 197.763 11.1016C198.172 11.3445 198.512 11.7119 198.782 12.2021C199.052 12.6924 199.187 13.349 199.187 14.1719V21H197.595V19.5967H197.514C197.406 19.8216 197.226 20.062 196.974 20.3184C196.722 20.5747 196.387 20.7928 195.969 20.9727C195.55 21.1526 195.039 21.2432 194.437 21.2432C193.78 21.2431 193.184 21.1194 192.648 20.8721C192.113 20.6202 191.689 20.2574 191.374 19.7852C191.059 19.3084 190.901 18.7331 190.901 18.0586C190.901 17.4649 191.018 16.9831 191.252 16.6143C191.486 16.2409 191.799 15.9487 192.19 15.7373C192.582 15.526 193.013 15.3681 193.485 15.2646C193.962 15.1567 194.442 15.0718 194.923 15.0088C195.552 14.9278 196.063 14.8667 196.454 14.8262C196.85 14.7812 197.137 14.7069 197.317 14.6035C197.502 14.5001 197.595 14.3199 197.595 14.0635V14.0098C197.595 13.3441 197.412 12.8268 197.048 12.458C196.688 12.0892 196.141 11.9053 195.408 11.9053C194.648 11.9053 194.052 12.0715 193.62 12.4043C193.189 12.7369 192.885 13.0922 192.71 13.4697L191.198 12.9307C191.468 12.3011 191.828 11.8108 192.277 11.46C192.732 11.1047 193.227 10.8572 193.762 10.7178C194.301 10.5738 194.833 10.501 195.354 10.501ZM197.595 15.791C197.527 15.8719 197.379 15.9462 197.149 16.0137C196.925 16.0766 196.663 16.1331 196.366 16.1826C196.074 16.2276 195.788 16.2677 195.51 16.3037C195.235 16.3352 195.013 16.3623 194.842 16.3848C194.428 16.4387 194.041 16.527 193.681 16.6484C193.326 16.7654 193.038 16.9425 192.817 17.1807C192.601 17.4146 192.493 17.7348 192.493 18.1396C192.493 18.6927 192.698 19.1112 193.107 19.3945C193.521 19.6734 194.045 19.8125 194.68 19.8125C195.309 19.8125 195.841 19.6888 196.272 19.4414C196.709 19.1941 197.036 18.8746 197.257 18.4834C197.482 18.0922 197.595 17.6807 197.595 17.249V15.791Z" fill="white"/>
<path fill-rule="evenodd" clip-rule="evenodd" d="M72.3574 10.501C73.2929 10.501 74.1119 10.7237 74.8135 11.1689C75.5195 11.6142 76.0677 12.2399 76.459 13.0449C76.8548 13.8501 77.0527 14.7926 77.0527 15.8721C77.0527 16.9426 76.8548 17.8781 76.459 18.6787C76.0677 19.4792 75.5195 20.1026 74.8135 20.5479C74.1119 20.9931 73.2929 21.2158 72.3574 21.2158C71.4219 21.2158 70.6007 20.9931 69.8945 20.5479C69.1928 20.1025 68.6439 19.4794 68.248 18.6787C67.8568 17.8781 67.6611 16.9425 67.6611 15.8721C67.6611 14.7926 67.8567 13.8501 68.248 13.0449C68.6439 12.2398 69.1929 11.6142 69.8945 11.1689C70.6007 10.7238 71.422 10.501 72.3574 10.501ZM72.3574 11.9316C71.6467 11.9316 71.0613 12.1165 70.6025 12.4854C70.1439 12.8541 69.8043 13.3375 69.584 13.9355C69.3636 14.5338 69.2529 15.1794 69.2529 15.8721C69.2529 16.5647 69.3636 17.208 69.584 17.8018C69.8044 18.3955 70.1437 18.8749 70.6025 19.2393C71.0613 19.6036 71.6467 19.7852 72.3574 19.7852C73.0679 19.7851 73.6526 19.6035 74.1113 19.2393C74.5701 18.8749 74.9095 18.3955 75.1299 17.8018C75.3503 17.208 75.4609 16.5648 75.4609 15.8721C75.4609 15.1794 75.3503 14.5338 75.1299 13.9355C74.9095 13.3375 74.57 12.8541 74.1113 12.4854C73.6526 12.1166 73.068 11.9317 72.3574 11.9316Z" fill="white"/>
<path fill-rule="evenodd" clip-rule="evenodd" d="M101.016 12.2822H101.15C101.267 12.1023 101.43 11.8735 101.637 11.5947C101.848 11.3114 102.149 11.0592 102.54 10.8389C102.936 10.614 103.472 10.501 104.146 10.501C105.019 10.501 105.788 10.72 106.454 11.1562C107.12 11.5926 107.639 12.2112 108.013 13.0117C108.386 13.8122 108.572 14.7566 108.572 15.8447C108.572 16.9422 108.386 17.8941 108.013 18.6992C107.639 19.4998 107.122 20.1207 106.461 20.5615C105.8 20.9978 105.036 21.2158 104.173 21.2158C103.507 21.2158 102.974 21.106 102.574 20.8857C102.174 20.6608 101.865 20.4064 101.649 20.123C101.434 19.8352 101.267 19.5961 101.15 19.4072H100.962V21H99.4229V7.18164H101.016V12.2822ZM103.957 11.9316C103.309 11.9317 102.765 12.0965 102.324 12.4248C101.884 12.7486 101.551 13.2027 101.326 13.7871C101.101 14.3674 100.988 15.0447 100.988 15.8184C100.988 16.601 101.104 17.2914 101.333 17.8896C101.562 18.4832 101.897 18.9488 102.338 19.2861C102.779 19.6189 103.318 19.7851 103.957 19.7852C104.623 19.7852 105.179 19.6096 105.624 19.2588C106.074 18.9035 106.411 18.4271 106.636 17.8291C106.865 17.2264 106.98 16.556 106.98 15.8184C106.98 15.0897 106.867 14.4324 106.643 13.8477C106.422 13.2586 106.087 12.793 105.638 12.4512C105.192 12.1048 104.632 11.9316 103.957 11.9316Z" fill="white"/>
<path fill-rule="evenodd" clip-rule="evenodd" d="M115.219 10.501C116.154 10.501 116.973 10.7237 117.675 11.1689C118.381 11.6142 118.929 12.2399 119.32 13.0449C119.716 13.8501 119.914 14.7926 119.914 15.8721C119.914 16.9426 119.716 17.8781 119.32 18.6787C118.929 19.4792 118.381 20.1026 117.675 20.5479C116.973 20.9931 116.154 21.2158 115.219 21.2158C114.283 21.2158 113.462 20.9931 112.756 20.5479C112.054 20.1025 111.505 19.4794 111.109 18.6787C110.718 17.8781 110.522 16.9425 110.522 15.8721C110.522 14.7926 110.718 13.8501 111.109 13.0449C111.505 12.2398 112.054 11.6142 112.756 11.1689C113.462 10.7238 114.283 10.501 115.219 10.501ZM115.219 11.9316C114.508 11.9316 113.923 12.1165 113.464 12.4854C113.005 12.8541 112.666 13.3375 112.445 13.9355C112.225 14.5338 112.114 15.1794 112.114 15.8721C112.114 16.5647 112.225 17.208 112.445 17.8018C112.666 18.3955 113.005 18.8749 113.464 19.2393C113.923 19.6036 114.508 19.7852 115.219 19.7852C115.929 19.7851 116.514 19.6035 116.973 19.2393C117.431 18.8749 117.771 18.3955 117.991 17.8018C118.212 17.208 118.322 16.5648 118.322 15.8721C118.322 15.1794 118.212 14.5338 117.991 13.9355C117.771 13.3375 117.431 12.8541 116.973 12.4854C116.514 12.1166 115.929 11.9317 115.219 11.9316Z" fill="white"/>
<path fill-rule="evenodd" clip-rule="evenodd" d="M155.742 10.501C156.678 10.501 157.497 10.7237 158.198 11.1689C158.904 11.6142 159.452 12.2399 159.844 13.0449C160.24 13.8501 160.437 14.7926 160.438 15.8721C160.438 16.9426 160.24 17.8781 159.844 18.6787C159.452 19.4792 158.904 20.1026 158.198 20.5479C157.497 20.9931 156.678 21.2158 155.742 21.2158C154.807 21.2158 153.985 20.9931 153.279 20.5479C152.578 20.1025 152.029 19.4794 151.633 18.6787C151.242 17.8781 151.046 16.9425 151.046 15.8721C151.046 14.7926 151.241 13.8501 151.633 13.0449C152.029 12.2398 152.578 11.6142 153.279 11.1689C153.985 10.7238 154.807 10.501 155.742 10.501ZM155.742 11.9316C155.031 11.9316 154.446 12.1165 153.987 12.4854C153.529 12.8541 153.189 13.3375 152.969 13.9355C152.748 14.5338 152.638 15.1794 152.638 15.8721C152.638 16.5647 152.748 17.208 152.969 17.8018C153.189 18.3955 153.529 18.8749 153.987 19.2393C154.446 19.6036 155.031 19.7852 155.742 19.7852C156.453 19.7851 157.037 19.6035 157.496 19.2393C157.955 18.8749 158.294 18.3955 158.515 17.8018C158.735 17.208 158.846 16.5648 158.846 15.8721C158.846 15.1794 158.735 14.5338 158.515 13.9355C158.294 13.3375 157.955 12.8541 157.496 12.4854C157.037 12.1166 156.453 11.9317 155.742 11.9316Z" fill="white"/>
<path fill-rule="evenodd" clip-rule="evenodd" d="M232.012 10.501C232.551 10.501 233.084 10.5916 233.61 10.7715C234.137 10.9514 234.616 11.2436 235.048 11.6484C235.48 12.0488 235.824 12.58 236.08 13.2412C236.336 13.9024 236.465 14.7167 236.465 15.6836V16.3584H228.939C228.962 17.0477 229.095 17.6394 229.34 18.1328C229.614 18.6724 229.995 19.0839 230.48 19.3672C230.966 19.646 231.531 19.7852 232.174 19.7852C232.592 19.7851 232.97 19.7273 233.308 19.6104C233.649 19.4889 233.944 19.3086 234.191 19.0703C234.439 18.8274 234.63 18.5258 234.765 18.166L236.303 18.5977C236.141 19.1194 235.869 19.5788 235.486 19.9746C235.104 20.3659 234.632 20.6712 234.069 20.8916C233.507 21.1075 232.875 21.2158 232.174 21.2158C231.175 21.2158 230.314 20.9954 229.59 20.5547C228.87 20.1094 228.314 19.4885 227.923 18.6924C227.536 17.8918 227.343 16.9608 227.343 15.8994C227.343 14.838 227.536 13.9023 227.923 13.0928C228.314 12.2786 228.858 11.6438 229.556 11.1895C230.257 10.7307 231.076 10.501 232.012 10.501ZM232.012 11.9316C231.377 11.9316 230.829 12.0894 230.365 12.4043C229.907 12.7146 229.553 13.119 229.306 13.6182C229.094 14.046 228.974 14.5008 228.943 14.9814H234.846C234.846 14.3967 234.729 13.8748 234.495 13.416C234.266 12.9573 233.937 12.5955 233.51 12.3301C233.087 12.0647 232.587 11.9316 232.012 11.9316Z" fill="white"/>
<path fill-rule="evenodd" clip-rule="evenodd" d="M278.213 12.2822H278.348C278.465 12.1023 278.627 11.8735 278.834 11.5947C279.045 11.3114 279.346 11.0592 279.737 10.8389C280.133 10.614 280.669 10.501 281.344 10.501C282.216 10.501 282.986 10.72 283.651 11.1562C284.317 11.5926 284.837 12.2112 285.21 13.0117C285.583 13.8122 285.769 14.7565 285.77 15.8447C285.77 16.9422 285.583 17.8941 285.21 18.6992C284.837 19.4998 284.319 20.1207 283.658 20.5615C282.997 20.9978 282.234 21.2158 281.37 21.2158C280.705 21.2158 280.172 21.106 279.771 20.8857C279.371 20.6608 279.063 20.4064 278.847 20.123C278.631 19.8352 278.465 19.5961 278.348 19.4072H278.159V21H276.62V7.18164H278.213V12.2822ZM281.154 11.9316C280.507 11.9317 279.962 12.0965 279.521 12.4248C279.081 12.7486 278.748 13.2027 278.523 13.7871C278.299 14.3674 278.186 15.0447 278.186 15.8184C278.186 16.601 278.301 17.2914 278.53 17.8896C278.76 18.4832 279.094 18.9488 279.535 19.2861C279.976 19.6189 280.516 19.7851 281.154 19.7852C281.82 19.7852 282.376 19.6096 282.821 19.2588C283.271 18.9035 283.608 18.4271 283.833 17.8291C284.062 17.2264 284.178 16.556 284.178 15.8184C284.178 15.0897 284.065 14.4324 283.84 13.8477C283.619 13.2586 283.285 12.793 282.835 12.4512C282.39 12.1048 281.829 11.9316 281.154 11.9316Z" fill="white"/>
<path d="M60.0996 6.99316C60.7966 6.99321 61.4509 7.0945 62.0625 7.29688C62.6787 7.49929 63.2347 7.79617 63.7295 8.1875C64.2241 8.57428 64.6379 9.04687 64.9707 9.60449C65.3034 10.1577 65.5333 10.7895 65.6592 11.5H63.9854C63.8864 11.0187 63.7132 10.5958 63.4658 10.2314C63.2229 9.86716 62.926 9.56084 62.5752 9.31348C62.229 9.06175 61.8445 8.87298 61.4219 8.74707C60.9992 8.62116 60.5583 8.55863 60.0996 8.55859C59.263 8.55859 58.5044 8.76956 57.8252 9.19238C57.1505 9.6152 56.6132 10.2384 56.2129 11.0615C55.8171 11.8846 55.6192 12.8944 55.6191 14.0908C55.6191 15.2872 55.8171 16.297 56.2129 17.1201C56.6132 17.9432 57.1506 18.5664 57.8252 18.9893C58.5044 19.4121 59.263 19.624 60.0996 19.624C60.5583 19.624 60.9992 19.5605 61.4219 19.4346C61.8445 19.3087 62.229 19.1222 62.5752 18.875C62.926 18.6231 63.2229 18.3145 63.4658 17.9502C63.7132 17.5814 63.8864 17.1584 63.9854 16.6816H65.6592C65.5332 17.3878 65.3036 18.0204 64.9707 18.5781C64.638 19.1356 64.224 19.6098 63.7295 20.001C63.2347 20.3878 62.6787 20.6833 62.0625 20.8857C61.4509 21.0881 60.7966 21.1884 60.0996 21.1885C58.9211 21.1885 57.8727 20.9009 56.9551 20.3252C56.0375 19.7494 55.3153 18.9307 54.7891 17.8691C54.2628 16.8076 54 15.5481 54 14.0908C54 12.6335 54.2628 11.374 54.7891 10.3125C55.3153 9.25095 56.0375 8.4322 56.9551 7.85645C57.8727 7.28073 58.9211 6.99316 60.0996 6.99316Z" fill="white"/>
<path d="M142.414 10.6367H144.628V11.9854H142.414V18.0312C142.414 18.4809 142.48 18.8181 142.61 19.043C142.745 19.2634 142.916 19.4118 143.123 19.4883C143.334 19.5603 143.557 19.5967 143.791 19.5967C143.966 19.5967 144.11 19.5873 144.223 19.5693C144.335 19.5469 144.425 19.5291 144.492 19.5156L144.816 20.9463C144.708 20.9868 144.558 21.0269 144.364 21.0674C144.171 21.1123 143.926 21.1348 143.629 21.1348C143.179 21.1348 142.738 21.0381 142.307 20.8447C141.879 20.6513 141.524 20.3568 141.24 19.9609C140.961 19.5651 140.822 19.0656 140.822 18.4629V11.9854H139.257V10.6367H140.822V8.15332H142.414V10.6367Z" fill="white"/>
<path d="M212.105 10.6367H214.319V11.9854H212.105V18.0312C212.105 18.4809 212.171 18.8181 212.302 19.043C212.437 19.2634 212.608 19.4118 212.814 19.4883C213.026 19.5603 213.249 19.5967 213.482 19.5967C213.658 19.5967 213.802 19.5873 213.914 19.5693C214.026 19.5469 214.116 19.5291 214.184 19.5156L214.508 20.9463C214.4 20.9868 214.249 21.0269 214.056 21.0674C213.862 21.1123 213.617 21.1348 213.32 21.1348C212.871 21.1348 212.43 21.0381 211.998 20.8447C211.571 20.6513 211.215 20.3568 210.932 19.9609C210.653 19.5651 210.514 19.0656 210.514 18.4629V11.9854H208.948V10.6367H210.514V8.15332H212.105V10.6367Z" fill="white"/>
<path d="M266.957 17.1133C266.957 17.8689 267.168 18.4721 267.591 18.9219C268.018 19.3716 268.563 19.5966 269.224 19.5967C269.619 19.5967 270.022 19.4954 270.432 19.293C270.845 19.0906 271.192 18.7805 271.471 18.3623C271.754 17.944 271.896 17.4104 271.896 16.7627V10.6367H273.488V21H271.896V19.2461H271.788C271.545 19.7723 271.167 20.2201 270.654 20.5889C270.142 20.9531 269.493 21.1348 268.711 21.1348C268.063 21.1347 267.488 20.9932 266.984 20.71C266.481 20.4221 266.085 19.9898 265.797 19.4141C265.509 18.8338 265.364 18.1032 265.364 17.2217V10.6367H266.957V17.1133Z" fill="white"/>
<path d="M81.0762 21H79.4834V7.18164H81.0762V21Z" fill="white"/>
<path d="M85.585 21H83.9922V7.18164H85.585V21Z" fill="white"/>
<path d="M127.129 10.4814C127.304 10.4859 127.437 10.492 127.527 10.501V12.1211C127.473 12.1076 127.349 12.0865 127.156 12.0596C126.967 12.0281 126.767 12.0127 126.556 12.0127C126.052 12.0127 125.602 12.1187 125.206 12.3301C124.815 12.537 124.504 12.8245 124.274 13.1934C124.05 13.5576 123.938 13.9738 123.938 14.4414V21H122.345V10.6367H123.884V12.2021H123.991C124.18 11.6894 124.522 11.2725 125.017 10.9531C125.511 10.6338 126.07 10.4746 126.69 10.4746C126.807 10.4746 126.954 10.4769 127.129 10.4814Z" fill="white"/>
<path d="M148.615 21H147.022V10.6367H148.615V21Z" fill="white"/>
<path d="M167.564 10.501C168.266 10.501 168.88 10.6457 169.406 10.9336C169.933 11.217 170.342 11.6483 170.635 12.2285C170.927 12.8043 171.073 13.5334 171.073 14.415V21H169.48V14.5225C169.48 13.7085 169.269 13.0744 168.847 12.6201C168.424 12.1613 167.843 11.9316 167.105 11.9316C166.597 11.9317 166.143 12.0424 165.743 12.2627C165.347 12.4831 165.034 12.8047 164.805 13.2275C164.575 13.6503 164.461 14.163 164.461 14.7656V21H162.868V10.6367H164.407V12.2559H164.542C164.785 11.7296 165.154 11.3067 165.648 10.9873C166.143 10.6635 166.782 10.501 167.564 10.501Z" fill="white"/>
<path fill-rule="evenodd" clip-rule="evenodd" d="M184.212 7.18164C185.296 7.18169 186.182 7.37727 186.87 7.76855C187.563 8.15537 188.075 8.67966 188.408 9.34082C188.741 10.002 188.907 10.7397 188.907 11.5537C188.907 12.3678 188.741 13.1078 188.408 13.7734C188.08 14.4391 187.572 14.9704 186.884 15.3662C186.196 15.7575 185.313 15.9531 184.238 15.9531H181.216V21H179.542V7.18164H184.212ZM181.216 14.4688H184.185C184.927 14.4687 185.523 14.3404 185.973 14.084C186.422 13.8276 186.749 13.4812 186.951 13.0449C187.158 12.6042 187.261 12.1069 187.261 11.5537C187.261 11.0006 187.158 10.5056 186.951 10.0693C186.749 9.63307 186.42 9.29132 185.966 9.04395C185.512 8.79205 184.908 8.66602 184.157 8.66602H181.216V14.4688Z" fill="white"/>
<path d="M206.877 10.4814C207.052 10.4859 207.185 10.492 207.275 10.501V12.1211C207.221 12.1076 207.098 12.0865 206.904 12.0596C206.715 12.0281 206.515 12.0127 206.304 12.0127C205.8 12.0127 205.35 12.1187 204.954 12.3301C204.563 12.537 204.252 12.8245 204.022 13.1934C203.798 13.5576 203.686 13.9738 203.686 14.4414V21H202.093V10.6367H203.632V12.2021H203.739C203.928 11.6894 204.27 11.2725 204.765 10.9531C205.259 10.6338 205.818 10.4746 206.438 10.4746C206.555 10.4746 206.702 10.4769 206.877 10.4814Z" fill="white"/>
<path d="M221.41 10.501C222.112 10.501 222.726 10.6457 223.252 10.9336C223.778 11.217 224.188 11.6483 224.48 12.2285C224.773 12.8043 224.919 13.5334 224.919 14.415V21H223.326V14.5225C223.326 13.7085 223.115 13.0744 222.692 12.6201C222.27 12.1613 221.689 11.9316 220.951 11.9316C220.443 11.9317 219.989 12.0424 219.589 12.2627C219.193 12.4831 218.88 12.8047 218.65 13.2275C218.421 13.6503 218.307 14.163 218.307 14.7656V21H216.714V10.6367H218.253V12.2559H218.388C218.631 11.7296 218.999 11.3067 219.494 10.9873C219.989 10.6635 220.628 10.501 221.41 10.501Z" fill="white"/>
<path d="M243.671 10.4814C243.846 10.4859 243.979 10.492 244.069 10.501V12.1211C244.015 12.1076 243.891 12.0865 243.698 12.0596C243.509 12.0281 243.309 12.0127 243.098 12.0127C242.594 12.0127 242.144 12.1187 241.748 12.3301C241.357 12.537 241.046 12.8245 240.816 13.1934C240.592 13.5576 240.48 13.9738 240.479 14.4414V21H238.887V10.6367H240.426V12.2021H240.533C240.722 11.6894 241.064 11.2725 241.559 10.9531C242.053 10.6338 242.612 10.4746 243.232 10.4746C243.349 10.4746 243.496 10.4769 243.671 10.4814Z" fill="white"/>
<path d="M253.189 13.335H260.558V7.18164H262.23V21H260.558V14.8193H253.189V21H251.516V7.18164H253.189V13.335Z" fill="white"/>
<path d="M147.832 6.75C148.142 6.75 148.408 6.85597 148.629 7.06738C148.854 7.27864 148.966 7.53254 148.966 7.8291C148.966 8.12588 148.854 8.38043 148.629 8.5918C148.408 8.80321 148.142 8.90918 147.832 8.90918C147.522 8.90908 147.254 8.80311 147.029 8.5918C146.809 8.38043 146.699 8.12587 146.699 7.8291C146.699 7.53254 146.809 7.27864 147.029 7.06738C147.254 6.85607 147.522 6.7501 147.832 6.75Z" fill="white"/>
</svg>
