<svg width="269" height="28" viewBox="0 0 269 28" fill="none" xmlns="http://www.w3.org/2000/svg">
<mask id="mask0_32476_1891" style="mask-type:luminance" maskUnits="userSpaceOnUse" x="1" y="3" width="38" height="20">
<path fill-rule="evenodd" clip-rule="evenodd" d="M1.02637 3H38.9732V22.9999H1.02637V3Z" fill="white"/>
</mask>
<g mask="url(#mask0_32476_1891)">
<path fill-rule="evenodd" clip-rule="evenodd" d="M38.9733 9.20305C38.9733 8.74805 38.6039 8.38055 38.1502 8.38055C37.6946 8.38055 37.3252 8.74805 37.3252 9.20305V10.9343C37.3252 11.3906 37.6946 11.7593 38.1502 11.7593C38.6039 11.7593 38.9733 11.3906 38.9733 10.9343V9.20305ZM34.4435 6.93073C34.4435 6.47698 34.0747 6.1076 33.6097 6.1076C33.1547 6.1076 32.7866 6.47698 32.7866 6.93073V10.9345C32.7866 11.3907 33.1547 11.7595 33.6097 11.7595C34.0747 11.7595 34.4435 11.3907 34.4435 10.9345V6.93073ZM29.9041 3.82313C29.9041 3.36875 29.5353 3 29.0803 3C28.6253 3 28.2566 3.36875 28.2566 3.82313V12.5788C28.2566 13.0356 28.6253 13.4044 29.0803 13.4044C29.5353 13.4044 29.9041 13.0356 29.9041 12.5788V3.82313ZM25.3631 6.93073C25.3631 6.47698 24.9943 6.1076 24.5393 6.1076C24.085 6.1076 23.7156 6.47698 23.7156 6.93073V10.9345C23.7156 11.3907 24.085 11.7595 24.5393 11.7595C24.9943 11.7595 25.3631 11.3907 25.3631 10.9345V6.93073ZM20.8233 9.20305C20.8233 8.74805 20.4545 8.38055 20.002 8.38055C19.5476 8.38055 19.1764 8.74805 19.1764 9.20305V10.9343C19.1764 11.3906 19.5476 11.7593 20.002 11.7593C20.4545 11.7593 20.8233 11.3906 20.8233 10.9343V9.20305ZM16.2915 6.93073C16.2915 6.47698 15.9203 6.1076 15.4647 6.1076C15.0103 6.1076 14.639 6.47698 14.639 6.93073V10.9345C14.639 11.3907 15.0103 11.7595 15.4647 11.7595C15.9203 11.7595 16.2915 11.3907 16.2915 10.9345V6.93073ZM11.7529 3.82313C11.7529 3.36875 11.3823 3 10.9273 3C10.4723 3 10.1011 3.36875 10.1011 3.82313V12.5788C10.1011 13.0356 10.4723 13.4044 10.9273 13.4044C11.3823 13.4044 11.7529 13.0356 11.7529 12.5788V3.82313ZM7.2156 6.93073C7.2156 6.47698 6.84435 6.1076 6.38997 6.1076C5.93497 6.1076 5.56372 6.47698 5.56372 6.93073V10.9345C5.56372 11.3907 5.93497 11.7595 6.38997 11.7595C6.84435 11.7595 7.2156 11.3907 7.2156 10.9345V6.93073ZM2.67824 9.20305C2.67824 8.74805 2.30762 8.38055 1.85199 8.38055C1.39762 8.38055 1.02637 8.74805 1.02637 9.20305V10.9343C1.02637 11.3906 1.39762 11.7593 1.85199 11.7593C2.30762 11.7593 2.67824 11.3906 2.67824 10.9343V9.20305ZM19.7334 16.3805C19.6834 16.3667 18.9216 16.1699 18.1116 16.1699C16.5778 16.1699 15.6534 16.998 15.6534 18.2317C15.6534 19.323 16.4272 19.8674 17.3541 20.1599C17.4566 20.1949 17.6072 20.2417 17.7091 20.2755C18.1222 20.4049 18.4503 20.598 18.4503 20.9317C18.4503 21.3055 18.0697 21.548 17.2416 21.548C16.5153 21.548 15.8172 21.3399 15.6709 21.303V22.8205C15.7528 22.838 16.5822 22.9999 17.4666 22.9999C18.7403 22.9999 20.1972 22.4442 20.1972 20.7874C20.1972 19.9849 19.7041 19.2436 18.6247 18.9011L18.1659 18.7549C17.8922 18.6686 17.4028 18.5286 17.4028 18.1267C17.4028 17.8099 17.7653 17.5867 18.4328 17.5867C19.0078 17.5867 19.7084 17.7805 19.7334 17.788V16.3805ZM32.0738 17.8514C33.0594 17.8514 33.795 18.6283 33.795 19.5851C33.795 20.5445 33.0594 21.3214 32.0738 21.3214C31.0863 21.3214 30.3531 20.5445 30.3531 19.5851C30.3531 18.6283 31.0863 17.8514 32.0738 17.8514V17.8514ZM35.5573 19.5851C35.5573 17.7026 34.1011 16.1726 32.0736 16.1726C30.0454 16.1726 28.5911 17.7026 28.5911 19.5851C28.5911 21.472 30.0454 23.0001 32.0736 23.0001C34.1011 23.0001 35.5573 21.472 35.5573 19.5851V19.5851ZM9.47125 16.4076C9.31438 16.3626 8.73625 16.1726 7.95375 16.1726C5.92875 16.1726 4.4425 17.617 4.4425 19.5851C4.4425 21.7101 6.08313 23.0001 7.95375 23.0001C8.6975 23.0001 9.26375 22.8245 9.47125 22.7651V20.9957C9.39938 21.0351 8.85563 21.3457 8.07375 21.3457C6.96438 21.3457 6.24938 20.5657 6.24938 19.5851C6.24938 18.5751 6.99563 17.8276 8.07375 17.8276C8.86875 17.8276 9.40438 18.1445 9.47125 18.1782V16.4076ZM26.8388 16.4076C26.682 16.3626 26.1032 16.1726 25.322 16.1726C23.2945 16.1726 21.8088 17.617 21.8088 19.5851C21.8088 21.7101 23.4507 23.0001 25.322 23.0001C26.0613 23.0001 26.6295 22.8245 26.8388 22.7651V20.9957C26.7663 21.0351 26.2213 21.3457 25.4395 21.3457C24.332 21.3457 23.617 20.5657 23.617 19.5851C23.617 18.5751 24.3632 17.8276 25.4395 17.8276C26.2351 17.8276 26.7713 18.1445 26.8388 18.1782V16.4076ZM11.7582 22.8839H13.4226V16.2895H11.7582V22.8839Z" fill="white"/>
</g>
<path fill-rule="evenodd" clip-rule="evenodd" d="M84.9092 10.2246C85.3339 10.2246 85.7843 10.2754 86.2598 10.377C86.7397 10.4739 87.1872 10.654 87.6025 10.917C88.0226 11.1801 88.367 11.5566 88.6348 12.0459C88.9025 12.5306 89.0361 13.161 89.0361 13.9365V20.999H87.0146V19.5449H86.9307C86.7968 19.8126 86.5968 20.0765 86.3291 20.335C86.0614 20.5935 85.7169 20.8077 85.2969 20.9785C84.8768 21.1493 84.3734 21.2354 83.7871 21.2354C83.1132 21.2353 82.5037 21.1106 81.959 20.8613C81.4142 20.6074 80.9826 20.2399 80.6641 19.7598C80.3502 19.2797 80.1934 18.6911 80.1934 17.9941C80.1934 17.3941 80.3093 16.9005 80.54 16.5127C80.7709 16.1249 81.0822 15.817 81.4746 15.5908C81.8669 15.3647 82.3055 15.1945 82.79 15.0791C83.2748 14.9637 83.7693 14.8754 84.2725 14.8154C84.9093 14.7416 85.4263 14.6819 85.8232 14.6357C86.22 14.585 86.5084 14.5042 86.6885 14.3936C86.8684 14.2828 86.9589 14.1026 86.959 13.8535V13.8047C86.959 13.2 86.7878 12.7318 86.4463 12.3994C86.1093 12.067 85.6059 11.9004 84.9365 11.9004C84.2397 11.9004 83.6906 12.0551 83.2891 12.3643C82.8922 12.6688 82.6172 13.0081 82.4648 13.3818L80.5186 12.9395C80.7494 12.2931 81.0871 11.771 81.5303 11.374C81.978 10.9725 82.4927 10.682 83.0742 10.502C83.6559 10.3173 84.2675 10.2246 84.9092 10.2246ZM86.9658 15.792C86.892 15.8659 86.7485 15.9354 86.5361 16C86.3285 16.06 86.0908 16.113 85.8232 16.1592C85.5556 16.2007 85.2948 16.2395 85.041 16.2764C84.7871 16.3087 84.5741 16.3373 84.4033 16.3604C84.0019 16.4111 83.635 16.4962 83.3027 16.6162C82.975 16.7362 82.7112 16.9095 82.5127 17.1357C82.3191 17.3572 82.2227 17.6525 82.2227 18.0215C82.2227 18.5339 82.4115 18.9224 82.79 19.1855C83.1686 19.444 83.6511 19.5732 84.2373 19.5732C84.8097 19.5732 85.2989 19.4595 85.7051 19.2334C86.1159 19.0072 86.4283 18.7123 86.6406 18.3477C86.8576 17.9783 86.9658 17.5832 86.9658 17.1631V15.792Z" fill="white"/>
<path fill-rule="evenodd" clip-rule="evenodd" d="M123.956 10.2246C124.381 10.2246 124.831 10.2754 125.307 10.377C125.787 10.4739 126.234 10.654 126.649 10.917C127.07 11.1801 127.414 11.5566 127.682 12.0459C127.949 12.5306 128.083 13.161 128.083 13.9365V20.999H126.062V19.5449H125.978C125.844 19.8126 125.644 20.0765 125.376 20.335C125.108 20.5935 124.764 20.8077 124.344 20.9785C123.924 21.1493 123.42 21.2354 122.834 21.2354C122.16 21.2353 121.551 21.1106 121.006 20.8613C120.461 20.6074 120.029 20.2399 119.711 19.7598C119.397 19.2797 119.24 18.6911 119.24 17.9941C119.24 17.3941 119.356 16.9005 119.587 16.5127C119.818 16.1249 120.129 15.817 120.521 15.5908C120.914 15.3647 121.352 15.1945 121.837 15.0791C122.322 14.9637 122.816 14.8754 123.319 14.8154C123.956 14.7416 124.473 14.6819 124.87 14.6357C125.267 14.585 125.555 14.5042 125.735 14.3936C125.915 14.2828 126.006 14.1026 126.006 13.8535V13.8047C126.006 13.2 125.835 12.7318 125.493 12.3994C125.156 12.067 124.653 11.9004 123.983 11.9004C123.287 11.9004 122.737 12.0551 122.336 12.3643C121.939 12.6688 121.664 13.0081 121.512 13.3818L119.565 12.9395C119.796 12.2931 120.134 11.771 120.577 11.374C121.025 10.9725 121.54 10.682 122.121 10.502C122.703 10.3173 123.314 10.2246 123.956 10.2246ZM126.013 15.792C125.939 15.8659 125.795 15.9354 125.583 16C125.375 16.06 125.138 16.113 124.87 16.1592C124.603 16.2007 124.342 16.2395 124.088 16.2764C123.834 16.3087 123.621 16.3373 123.45 16.3604C123.049 16.4111 122.682 16.4962 122.35 16.6162C122.022 16.7362 121.758 16.9095 121.56 17.1357C121.366 17.3572 121.27 17.6525 121.27 18.0215C121.27 18.5339 121.458 18.9224 121.837 19.1855C122.215 19.444 122.698 19.5732 123.284 19.5732C123.857 19.5732 124.346 19.4595 124.752 19.2334C125.163 19.0072 125.475 18.7123 125.688 18.3477C125.904 17.9783 126.013 17.5832 126.013 17.1631V15.792Z" fill="white"/>
<path fill-rule="evenodd" clip-rule="evenodd" d="M182.162 10.2246C182.587 10.2246 183.037 10.2754 183.513 10.377C183.993 10.4739 184.44 10.654 184.855 10.917C185.276 11.1801 185.62 11.5566 185.888 12.0459C186.155 12.5306 186.289 13.161 186.289 13.9365V20.999H184.268V19.5449H184.184C184.05 19.8126 183.85 20.0765 183.582 20.335C183.314 20.5935 182.97 20.8077 182.55 20.9785C182.13 21.1493 181.626 21.2354 181.04 21.2354C180.366 21.2353 179.757 21.1106 179.212 20.8613C178.667 20.6074 178.236 20.2399 177.917 19.7598C177.603 19.2797 177.446 18.6911 177.446 17.9941C177.446 17.3941 177.562 16.9005 177.793 16.5127C178.024 16.1249 178.335 15.817 178.728 15.5908C179.12 15.3647 179.558 15.1945 180.043 15.0791C180.528 14.9637 181.022 14.8754 181.525 14.8154C182.162 14.7416 182.679 14.6819 183.076 14.6357C183.473 14.585 183.761 14.5042 183.941 14.3936C184.121 14.2828 184.212 14.1026 184.212 13.8535V13.8047C184.212 13.2 184.041 12.7318 183.699 12.3994C183.362 12.067 182.859 11.9004 182.189 11.9004C181.493 11.9004 180.944 12.0551 180.542 12.3643C180.145 12.6688 179.87 13.0081 179.718 13.3818L177.771 12.9395C178.002 12.2931 178.34 11.771 178.783 11.374C179.231 10.9725 179.746 10.682 180.327 10.502C180.909 10.3173 181.52 10.2246 182.162 10.2246ZM184.219 15.792C184.145 15.8659 184.001 15.9354 183.789 16C183.581 16.06 183.344 16.113 183.076 16.1592C182.809 16.2007 182.548 16.2395 182.294 16.2764C182.04 16.3087 181.827 16.3373 181.656 16.3604C181.255 16.4111 180.888 16.4962 180.556 16.6162C180.228 16.7362 179.964 16.9095 179.766 17.1357C179.572 17.3572 179.476 17.6525 179.476 18.0215C179.476 18.5339 179.664 18.9224 180.043 19.1855C180.421 19.444 180.904 19.5732 181.49 19.5732C182.063 19.5732 182.552 19.4595 182.958 19.2334C183.369 19.0072 183.681 18.7123 183.894 18.3477C184.111 17.9783 184.219 17.5832 184.219 17.1631V15.792Z" fill="white"/>
<path fill-rule="evenodd" clip-rule="evenodd" d="M66.2607 10.2246C67.2578 10.2246 68.1279 10.4532 68.8711 10.9102C69.6143 11.3671 70.1917 12.0087 70.6025 12.835C71.0134 13.6612 71.2187 14.6263 71.2188 15.7295C71.2188 16.8282 71.0134 17.7886 70.6025 18.6104C70.1917 19.4321 69.6143 20.0713 68.8711 20.5283C68.1279 20.9853 67.2578 21.2139 66.2607 21.2139C65.2636 21.2139 64.3936 20.9853 63.6504 20.5283C62.9071 20.0713 62.3298 19.4321 61.9189 18.6104C61.5081 17.7886 61.3027 16.8282 61.3027 15.7295C61.3028 14.6263 61.5081 13.6612 61.9189 12.835C62.3298 12.0087 62.9072 11.3672 63.6504 10.9102C64.3936 10.4532 65.2637 10.2246 66.2607 10.2246ZM66.2676 11.9561C65.6167 11.9561 65.0768 12.1294 64.6475 12.4756C64.2228 12.8218 63.906 13.2811 63.6982 13.8535C63.4952 14.4212 63.3936 15.0443 63.3936 15.7227C63.3936 16.4059 63.4951 17.0318 63.6982 17.5996C63.906 18.1674 64.2227 18.6223 64.6475 18.9639C65.0767 19.3054 65.6168 19.4756 66.2676 19.4756C66.9137 19.4756 67.4494 19.3053 67.874 18.9639C68.2987 18.6223 68.6133 18.1674 68.8164 17.5996C69.0241 17.0318 69.1279 16.4059 69.1279 15.7227C69.1279 15.0443 69.024 14.4212 68.8164 13.8535C68.6133 13.2811 68.2987 12.8218 67.874 12.4756C67.4493 12.1294 66.9139 11.9561 66.2676 11.9561Z" fill="white"/>
<path fill-rule="evenodd" clip-rule="evenodd" d="M106.781 10.2246C107.778 10.2246 108.648 10.4532 109.392 10.9102C110.135 11.3671 110.712 12.0087 111.123 12.835C111.534 13.6612 111.739 14.6263 111.739 15.7295C111.739 16.8282 111.534 17.7886 111.123 18.6104C110.712 19.4321 110.135 20.0713 109.392 20.5283C108.648 20.9853 107.778 21.2139 106.781 21.2139C105.784 21.2139 104.914 20.9853 104.171 20.5283C103.428 20.0713 102.85 19.4321 102.439 18.6104C102.029 17.7886 101.823 16.8282 101.823 15.7295C101.823 14.6263 102.029 13.6612 102.439 12.835C102.85 12.0087 103.428 11.3672 104.171 10.9102C104.914 10.4532 105.784 10.2246 106.781 10.2246ZM106.788 11.9561C106.137 11.9561 105.597 12.1294 105.168 12.4756C104.743 12.8218 104.426 13.2811 104.219 13.8535C104.016 14.4212 103.914 15.0443 103.914 15.7227C103.914 16.4059 104.016 17.0318 104.219 17.5996C104.426 18.1674 104.743 18.6223 105.168 18.9639C105.597 19.3054 106.137 19.4756 106.788 19.4756C107.434 19.4756 107.97 19.3053 108.395 18.9639C108.819 18.6223 109.134 18.1674 109.337 17.5996C109.545 17.0318 109.648 16.4059 109.648 15.7227C109.648 15.0443 109.545 14.4212 109.337 13.8535C109.134 13.2811 108.819 12.8218 108.395 12.4756C107.97 12.1294 107.434 11.9561 106.788 11.9561Z" fill="white"/>
<path fill-rule="evenodd" clip-rule="evenodd" d="M144.883 10.2246C145.88 10.2246 146.75 10.4532 147.493 10.9102C148.236 11.3671 148.814 12.0087 149.225 12.835C149.635 13.6612 149.841 14.6263 149.841 15.7295C149.841 16.8282 149.635 17.7886 149.225 18.6104C148.814 19.4321 148.236 20.0713 147.493 20.5283C146.75 20.9853 145.88 21.2139 144.883 21.2139C143.886 21.2139 143.016 20.9853 142.272 20.5283C141.529 20.0713 140.952 19.4321 140.541 18.6104C140.13 17.7886 139.925 16.8282 139.925 15.7295C139.925 14.6263 140.13 13.6612 140.541 12.835C140.952 12.0087 141.529 11.3672 142.272 10.9102C143.016 10.4532 143.886 10.2246 144.883 10.2246ZM144.89 11.9561C144.239 11.9561 143.699 12.1294 143.27 12.4756C142.845 12.8218 142.528 13.2811 142.32 13.8535C142.117 14.4212 142.016 15.0443 142.016 15.7227C142.016 16.4059 142.117 17.0318 142.32 17.5996C142.528 18.1674 142.845 18.6223 143.27 18.9639C143.699 19.3054 144.239 19.4756 144.89 19.4756C145.536 19.4756 146.071 19.3053 146.496 18.9639C146.921 18.6223 147.235 18.1674 147.438 17.5996C147.646 17.0318 147.75 16.4059 147.75 15.7227C147.75 15.0443 147.646 14.4212 147.438 13.8535C147.235 13.2811 146.921 12.8218 146.496 12.4756C146.071 12.1294 145.536 11.9561 144.89 11.9561Z" fill="white"/>
<path fill-rule="evenodd" clip-rule="evenodd" d="M217.107 10.2246C217.707 10.2247 218.289 10.3241 218.852 10.5225C219.415 10.7209 219.92 11.0324 220.368 11.457C220.816 11.8817 221.169 12.4337 221.428 13.1123C221.686 13.7863 221.815 14.6055 221.815 15.5703V16.3047H214.257C214.273 16.9529 214.396 17.5094 214.628 17.9736C214.882 18.4721 215.235 18.8531 215.688 19.1162C216.14 19.3747 216.669 19.5039 217.273 19.5039C217.666 19.5039 218.024 19.4487 218.347 19.3379C218.67 19.2225 218.949 19.0514 219.185 18.8252C219.42 18.599 219.6 18.3196 219.725 17.9873L221.685 18.3408C221.528 18.9175 221.246 19.4227 220.84 19.8564C220.438 20.2857 219.933 20.6213 219.323 20.8613C218.718 21.0968 218.028 21.2139 217.252 21.2139C216.204 21.2138 215.302 20.9897 214.545 20.542C213.792 20.0896 213.211 19.4548 212.8 18.6377C212.394 17.8162 212.19 16.854 212.19 15.751C212.19 14.6616 212.394 13.701 212.8 12.8701C213.211 12.0392 213.784 11.3901 214.518 10.9238C215.256 10.4577 216.12 10.2246 217.107 10.2246ZM217.121 11.9346C216.54 11.9346 216.032 12.0781 215.598 12.3643C215.168 12.6459 214.836 13.0156 214.601 13.4727C214.398 13.8693 214.285 14.2959 214.26 14.7529H219.787C219.787 14.2084 219.676 13.7256 219.454 13.3057C219.233 12.8812 218.921 12.5463 218.52 12.3018C218.123 12.0572 217.656 11.9346 217.121 11.9346Z" fill="white"/>
<path fill-rule="evenodd" clip-rule="evenodd" d="M93.1807 12.0879H93.3057C93.4257 11.8663 93.599 11.6101 93.8252 11.3193C94.0514 11.0285 94.365 10.7746 94.7666 10.5576C95.1682 10.336 95.6992 10.2246 96.3594 10.2246C97.218 10.2246 97.9842 10.442 98.6582 10.876C99.3321 11.3099 99.861 11.935 100.244 12.752C100.632 13.569 100.826 14.5527 100.826 15.7021C100.826 16.8517 100.634 17.8374 100.251 18.6592C99.8678 19.4763 99.3413 20.1066 98.6719 20.5498C98.0026 20.9882 97.2384 21.207 96.3799 21.207C95.7337 21.207 95.2048 21.0988 94.7939 20.8818C94.3879 20.6649 94.0696 20.4109 93.8389 20.1201C93.6081 19.8293 93.4303 19.5709 93.3057 19.3447H93.1328V21H91.1104V6.81836H93.1807V12.0879ZM95.916 11.9834C95.316 11.9834 94.808 12.138 94.3926 12.4473C93.9818 12.7565 93.6704 13.1884 93.458 13.7422C93.2456 14.2962 93.1396 14.943 93.1396 15.6816C93.1397 16.4295 93.2479 17.0853 93.4648 17.6484C93.6818 18.2114 93.9955 18.6522 94.4062 18.9707C94.8171 19.2846 95.3205 19.4414 95.916 19.4414C96.5344 19.4414 97.0514 19.2778 97.4668 18.9502C97.8823 18.6178 98.1968 18.1674 98.4092 17.5996C98.6261 17.0318 98.7344 16.3925 98.7344 15.6816C98.7344 14.9799 98.6284 14.3496 98.416 13.791C98.2083 13.2326 97.8945 12.7919 97.4746 12.4688C97.0591 12.1456 96.5392 11.9834 95.916 11.9834Z" fill="white"/>
<path fill-rule="evenodd" clip-rule="evenodd" d="M260.814 12.0879H260.939C261.059 11.8663 261.233 11.6101 261.459 11.3193C261.685 11.0285 261.999 10.7746 262.4 10.5576C262.802 10.336 263.333 10.2246 263.993 10.2246C264.852 10.2246 265.618 10.442 266.292 10.876C266.966 11.3099 267.495 11.935 267.878 12.752C268.266 13.569 268.46 14.5527 268.46 15.7021C268.46 16.8517 268.268 17.8374 267.885 18.6592C267.502 19.4763 266.975 20.1066 266.306 20.5498C265.636 20.9882 264.872 21.207 264.014 21.207C263.367 21.207 262.839 21.0988 262.428 20.8818C262.022 20.6649 261.703 20.4109 261.473 20.1201C261.242 19.8293 261.064 19.5709 260.939 19.3447H260.767V21H258.744V6.81836H260.814V12.0879ZM263.55 11.9834C262.95 11.9834 262.442 12.138 262.026 12.4473C261.616 12.7565 261.304 13.1884 261.092 13.7422C260.879 14.2962 260.773 14.943 260.773 15.6816C260.773 16.4295 260.882 17.0853 261.099 17.6484C261.316 18.2114 261.629 18.6522 262.04 18.9707C262.451 19.2846 262.954 19.4414 263.55 19.4414C264.168 19.4414 264.685 19.2778 265.101 18.9502C265.516 18.6178 265.831 18.1674 266.043 17.5996C266.26 17.0318 266.368 16.3925 266.368 15.6816C266.368 14.9799 266.262 14.3496 266.05 13.791C265.842 13.2326 265.528 12.7919 265.108 12.4688C264.693 12.1456 264.173 11.9834 263.55 11.9834Z" fill="white"/>
<path d="M54.3779 6.62402C55.1302 6.62405 55.8317 6.73236 56.4824 6.94922C57.138 7.16158 57.7274 7.47612 58.249 7.8916C58.7704 8.30237 59.2024 8.8051 59.5439 9.40039C59.8856 9.99129 60.1163 10.668 60.2363 11.4297H58.0752C57.9921 10.9681 57.8375 10.5618 57.6113 10.2109C57.3851 9.86015 57.108 9.56202 56.7803 9.31738C56.4526 9.07286 56.0857 8.88827 55.6797 8.76367C55.2781 8.63903 54.8509 8.57715 54.3984 8.57715C53.5813 8.57715 52.8494 8.78249 52.2031 9.19336C51.5616 9.60417 51.0536 10.2062 50.6797 11C50.3104 11.794 50.126 12.7643 50.126 13.9092C50.126 15.0631 50.3104 16.0371 50.6797 16.8311C51.0536 17.6251 51.5637 18.2256 52.21 18.6318C52.8563 19.0381 53.5837 19.2412 54.3916 19.2412C54.8394 19.2412 55.2644 19.1806 55.666 19.0605C56.0721 18.9359 56.4389 18.7536 56.7666 18.5137C57.0943 18.2737 57.3715 17.9809 57.5977 17.6348C57.8284 17.284 57.9875 16.882 58.0752 16.4297L60.2363 16.4365C60.1209 17.1335 59.8968 17.7751 59.5645 18.3613C59.2367 18.943 58.8139 19.4464 58.2969 19.8711C57.7845 20.2911 57.1982 20.6169 56.5381 20.8477C55.878 21.0784 55.1579 21.1933 54.3779 21.1934C53.1501 21.1934 52.0558 20.9028 51.0957 20.3213C50.1355 19.735 49.3782 18.897 48.8242 17.8076C48.2749 16.7182 48 15.4186 48 13.9092C48 12.395 48.2771 11.0946 48.8311 10.0098C49.385 8.92047 50.1424 8.08551 51.1025 7.50391C52.0628 6.91761 53.1546 6.62402 54.3779 6.62402Z" fill="white"/>
<path d="M132.775 10.3633H134.956V12.0254H132.775V17.877C132.775 18.2784 132.835 18.5811 132.955 18.7842C133.075 18.9825 133.23 19.1186 133.419 19.1924C133.613 19.2616 133.823 19.2959 134.049 19.2959C134.215 19.2959 134.361 19.2848 134.485 19.2617C134.61 19.2386 134.707 19.2199 134.776 19.2061L135.15 20.917C135.03 20.9632 134.859 21.0085 134.638 21.0547C134.416 21.1055 134.139 21.1331 133.807 21.1377C133.262 21.1469 132.754 21.0508 132.283 20.8477C131.812 20.6445 131.431 20.33 131.141 19.9053C130.85 19.4806 130.704 18.9472 130.704 18.3057V12.0254H129.146V10.3633H130.704V7.81543H132.775V10.3633Z" fill="white"/>
<path d="M198.243 10.3633H200.424V12.0254H198.243V17.877C198.243 18.2784 198.303 18.5811 198.423 18.7842C198.543 18.9825 198.698 19.1186 198.887 19.1924C199.081 19.2616 199.291 19.2959 199.517 19.2959C199.683 19.2959 199.829 19.2848 199.953 19.2617C200.078 19.2386 200.175 19.2199 200.244 19.2061L200.618 20.917C200.498 20.9632 200.327 21.0085 200.105 21.0547C199.884 21.1055 199.607 21.1331 199.274 21.1377C198.73 21.1469 198.222 21.0508 197.751 20.8477C197.28 20.6445 196.899 20.33 196.608 19.9053C196.318 19.4806 196.172 18.9472 196.172 18.3057V12.0254H194.614V10.3633H196.172V7.81543H198.243V10.3633Z" fill="white"/>
<path d="M249.901 16.8799C249.901 17.6044 250.102 18.1811 250.504 18.6104C250.906 19.0397 251.428 19.2549 252.069 19.2549C252.457 19.2548 252.843 19.1577 253.226 18.9639C253.613 18.77 253.934 18.4764 254.188 18.084C254.446 17.6916 254.573 17.1935 254.568 16.5889V10.3633H256.646V21H254.61V19.1572H254.5C254.255 19.7251 253.862 20.1986 253.322 20.5771C252.787 20.951 252.12 21.1377 251.321 21.1377C250.638 21.1377 250.033 20.9885 249.507 20.6885C248.985 20.3838 248.574 19.9333 248.274 19.3379C247.979 18.7424 247.831 18.006 247.831 17.1289V10.3633H249.901V16.8799Z" fill="white"/>
<path d="M74.75 21H72.6797V6.81836H74.75V21Z" fill="white"/>
<path d="M78.7568 21H76.6865V6.81836H78.7568V21Z" fill="white"/>
<path d="M118.47 10.2178C118.65 10.227 118.791 10.2391 118.893 10.2529V12.2334C118.809 12.2103 118.662 12.1849 118.449 12.1572C118.237 12.1249 118.025 12.1084 117.812 12.1084C117.323 12.1084 116.886 12.2122 116.503 12.4199C116.125 12.623 115.825 12.907 115.604 13.2715C115.382 13.6315 115.271 14.0424 115.271 14.5039V21H113.2V10.3633H115.201V12.0527H115.312C115.506 11.4806 115.848 11.0308 116.337 10.7031C116.831 10.3708 117.39 10.2041 118.013 10.2041C118.142 10.2041 118.294 10.2085 118.47 10.2178Z" fill="white"/>
<path d="M138.467 21H136.396V10.3633H138.467V21Z" fill="white"/>
<path fill-rule="evenodd" clip-rule="evenodd" d="M171.638 6.81836C172.741 6.81836 173.655 7.01845 174.38 7.41992C175.105 7.82156 175.648 8.37127 176.008 9.06836C176.368 9.76081 176.548 10.5413 176.548 11.4092C176.548 12.2816 176.366 13.0666 176.001 13.7637C175.641 14.4561 175.096 15.0049 174.366 15.4111C173.641 15.8128 172.73 16.0137 171.631 16.0137H168.723V21H166.583V6.81836H171.638ZM168.723 14.1992H171.438C172.134 14.1992 172.7 14.0798 173.134 13.8398C173.568 13.5952 173.887 13.2628 174.09 12.8428C174.293 12.4227 174.395 11.9446 174.395 11.4092C174.395 10.8737 174.293 10.3979 174.09 9.98242C173.887 9.56694 173.566 9.2413 173.127 9.00586C172.693 8.77043 172.12 8.65332 171.409 8.65332H168.723V14.1992Z" fill="white"/>
<path d="M193.466 10.2178C193.646 10.227 193.787 10.2391 193.889 10.2529V12.2334C193.806 12.2103 193.658 12.1849 193.445 12.1572C193.233 12.1249 193.021 12.1084 192.809 12.1084C192.319 12.1084 191.882 12.2122 191.499 12.4199C191.121 12.623 190.821 12.9071 190.6 13.2715C190.378 13.6315 190.267 14.0424 190.267 14.5039V21H188.196V10.3633H190.197V12.0527H190.309C190.502 11.4806 190.844 11.0308 191.333 10.7031C191.827 10.3708 192.386 10.2041 193.009 10.2041C193.138 10.2041 193.29 10.2085 193.466 10.2178Z" fill="white"/>
<path d="M228.533 10.2178C228.713 10.227 228.854 10.2391 228.956 10.2529V12.2334C228.873 12.2103 228.725 12.1849 228.513 12.1572C228.3 12.1249 228.088 12.1084 227.876 12.1084C227.387 12.1084 226.95 12.2122 226.566 12.4199C226.188 12.623 225.889 12.9071 225.667 13.2715C225.445 13.6315 225.334 14.0424 225.334 14.5039V21H223.264V10.3633H225.265V12.0527H225.376C225.57 11.4806 225.911 11.0308 226.4 10.7031C226.894 10.3708 227.453 10.2041 228.076 10.2041C228.205 10.2041 228.358 10.2085 228.533 10.2178Z" fill="white"/>
<path d="M236.514 12.9805H243.584V6.81836H245.73V21H243.584V14.8154H236.514V21H234.374V6.81836H236.514V12.9805Z" fill="white"/>
<path d="M156.558 10.2246C157.282 10.2246 157.917 10.377 158.462 10.6816C159.007 10.9817 159.429 11.4299 159.729 12.0254C160.029 12.6208 160.18 13.3575 160.18 14.2344V20.999H158.108V14.4834C158.108 13.7124 157.907 13.1097 157.506 12.6758C157.104 12.2375 156.553 12.0186 155.852 12.0186C155.371 12.0186 154.944 12.1223 154.57 12.3301C154.201 12.5378 153.907 12.8425 153.69 13.2441C153.478 13.6411 153.372 14.1216 153.372 14.6846V20.999H151.302V10.3633H153.289V12.0947H153.421C153.666 11.5315 154.049 11.0789 154.57 10.7373C155.097 10.3957 155.759 10.2246 156.558 10.2246Z" fill="white"/>
<path d="M207.12 10.2246C207.845 10.2246 208.48 10.377 209.024 10.6816C209.569 10.9817 209.992 11.4299 210.292 12.0254C210.592 12.6208 210.742 13.3575 210.742 14.2344V20.999H208.671V14.4834C208.671 13.7124 208.47 13.1097 208.068 12.6758C207.667 12.2375 207.115 12.0186 206.414 12.0186C205.934 12.0186 205.507 12.1223 205.133 12.3301C204.764 12.5378 204.47 12.8425 204.253 13.2441C204.041 13.6411 203.935 14.1216 203.935 14.6846V20.999H201.864V10.3633H203.852V12.0947H203.983C204.228 11.5315 204.611 11.0789 205.133 10.7373C205.659 10.3957 206.321 10.2246 207.12 10.2246Z" fill="white"/>
<path d="M137.441 6.25C137.801 6.25 138.108 6.37255 138.362 6.61719C138.621 6.85718 138.75 7.14775 138.75 7.48926C138.75 7.82626 138.621 8.11763 138.362 8.3623C138.108 8.60219 137.801 8.72168 137.441 8.72168C137.081 8.72164 136.772 8.60224 136.514 8.3623C136.26 8.11763 136.133 7.82626 136.133 7.48926C136.133 7.14779 136.26 6.85717 136.514 6.61719C136.772 6.37255 137.081 6.25004 137.441 6.25Z" fill="white"/>
</svg>
