<svg width="32" height="32" viewBox="0 0 32 32" fill="none" xmlns="http://www.w3.org/2000/svg">
<path d="M23.5 18C27.6421 18 31 14.6421 31 10.5C31 6.35786 27.6421 3 23.5 3C19.3579 3 16 6.35787 16 10.5C16 14.6421 19.3579 18 23.5 18Z" fill="url(#paint0_linear_27212_1761)"/>
<path fill-rule="evenodd" clip-rule="evenodd" d="M16 23.5849C20.1882 23.5849 23.5833 20.1907 23.5833 16.0037C23.5833 11.8168 20.1882 8.42259 16 8.42259C11.8118 8.42259 8.41667 11.8168 8.41667 16.0037C8.41667 20.1907 11.8118 23.5849 16 23.5849ZM29 16.0037C29 23.1814 23.1797 29 16 29C8.8203 29 3 23.1814 3 16.0037C3 8.8261 8.8203 3.00748 16 3.00748C23.1797 3.00748 29 8.8261 29 16.0037Z" fill="url(#paint1_linear_27212_1761)"/>
<path fill-rule="evenodd" clip-rule="evenodd" d="M29 15.6128C27.6309 17.0815 25.6792 17.9999 23.5129 17.9999C23.4503 17.9999 23.3879 17.9991 23.3257 17.9976C23.4984 17.3622 23.5906 16.6937 23.5906 16.0037C23.5906 11.915 20.3538 8.58225 16.3027 8.42812C16.8984 6.35129 18.3671 4.64356 20.2862 3.72754C25.246 5.45522 28.8373 10.1037 29 15.6128Z" fill="url(#paint2_linear_27212_1761)"/>
<path d="M23.5 18C27.6421 18 31 14.6421 31 10.5C31 6.35786 27.6421 3 23.5 3C19.3579 3 16 6.35787 16 10.5C16 14.6421 19.3579 18 23.5 18Z" fill="url(#paint3_radial_27212_1761)"/>
<defs>
<linearGradient id="paint0_linear_27212_1761" x1="16.1487" y1="3.14873" x2="28.4303" y2="15.4302" gradientUnits="userSpaceOnUse">
<stop stop-color="#767676"/>
<stop offset="1" stop-color="#DADADA"/>
</linearGradient>
<linearGradient id="paint1_linear_27212_1761" x1="2.99946" y1="29" x2="28.9845" y2="3" gradientUnits="userSpaceOnUse">
<stop stop-color="#BBBBBB"/>
<stop offset="1" stop-color="#616161"/>
</linearGradient>
<linearGradient id="paint2_linear_27212_1761" x1="20.6785" y1="8.23435" x2="27.6314" y2="16.276" gradientUnits="userSpaceOnUse">
<stop stop-color="#9D9D9D" stop-opacity="0"/>
<stop offset="1" stop-color="#9D9D9D"/>
</linearGradient>
<radialGradient id="paint3_radial_27212_1761" cx="0" cy="0" r="1" gradientUnits="userSpaceOnUse" gradientTransform="translate(31.0001 18) rotate(-135) scale(21.2132 21.2042)">
<stop stop-color="#8E8E8E" stop-opacity="0"/>
<stop offset="0.66696" stop-color="#8E8E8E" stop-opacity="0"/>
<stop offset="1" stop-color="white"/>
</radialGradient>
</defs>
</svg>
