<svg width="158" height="29" viewBox="0 0 158 29" fill="none" xmlns="http://www.w3.org/2000/svg">
<path d="M103.534 11.4736C104.126 11.4737 104.701 11.5717 105.257 11.7676C105.813 11.9635 106.312 12.2713 106.754 12.6904C107.196 13.1097 107.545 13.6544 107.8 14.3242C108.055 14.9896 108.183 15.7986 108.183 16.751V17.4756H100.721C100.736 18.1156 100.858 18.6648 101.087 19.123C101.338 19.6151 101.686 19.9912 102.133 20.251C102.579 20.5061 103.101 20.6338 103.698 20.6338C104.085 20.6337 104.439 20.5791 104.758 20.4697C105.077 20.3558 105.353 20.1871 105.585 19.9639C105.817 19.7406 105.995 19.4647 106.118 19.1367L108.053 19.4854C107.898 20.0549 107.62 20.5541 107.219 20.9824C106.822 21.4062 106.323 21.7367 105.722 21.9736C105.125 22.206 104.443 22.3222 103.678 22.3223C102.643 22.3223 101.752 22.1011 101.005 21.6592C100.262 21.2126 99.6878 20.5859 99.2822 19.7793C98.8812 18.9681 98.6807 18.0179 98.6807 16.9287C98.6807 15.8532 98.8812 14.9053 99.2822 14.085C99.6878 13.2647 100.253 12.6243 100.978 12.1641C101.707 11.7039 102.559 11.4736 103.534 11.4736ZM113.496 11.4736C114.631 11.4736 115.524 11.7199 116.176 12.2119C116.827 12.6995 117.258 13.3536 117.468 14.1738L115.615 14.502C115.538 14.265 115.415 14.0394 115.246 13.8252C115.082 13.6111 114.859 13.4355 114.576 13.2988C114.294 13.1622 113.94 13.0938 113.517 13.0938C112.938 13.0938 112.455 13.2237 112.067 13.4834C111.68 13.7386 111.486 14.0691 111.486 14.4746C111.486 14.8254 111.616 15.1081 111.876 15.3223C112.136 15.5364 112.555 15.7119 113.134 15.8486L114.802 16.2314C115.768 16.4547 116.488 16.7989 116.962 17.2637C117.436 17.7285 117.673 18.3324 117.673 19.0752C117.673 19.7041 117.491 20.2646 117.126 20.7568C116.766 21.2444 116.262 21.6273 115.615 21.9053C114.973 22.1832 114.227 22.3223 113.38 22.3223C112.204 22.3222 111.245 22.0716 110.502 21.5703C109.759 21.0645 109.303 20.3466 109.135 19.417L111.11 19.1162C111.233 19.6311 111.486 20.0208 111.869 20.2852C112.252 20.5449 112.751 20.6748 113.366 20.6748C114.036 20.6748 114.572 20.5357 114.973 20.2578C115.374 19.9753 115.574 19.6312 115.574 19.2256C115.574 18.8975 115.451 18.6217 115.205 18.3984C114.964 18.1752 114.592 18.0065 114.091 17.8926L112.313 17.5029C111.334 17.2796 110.609 16.9241 110.14 16.4365C109.675 15.9489 109.442 15.3313 109.442 14.584C109.442 13.9643 109.616 13.4218 109.962 12.957C110.308 12.4923 110.787 12.1299 111.397 11.8701C112.008 11.6058 112.708 11.4737 113.496 11.4736ZM122.967 11.4736C124.101 11.4736 124.995 11.7198 125.646 12.2119C126.298 12.6995 126.729 13.3535 126.938 14.1738L125.086 14.502C125.008 14.265 124.885 14.0394 124.717 13.8252C124.553 13.6111 124.329 13.4355 124.047 13.2988C123.764 13.1622 123.411 13.0938 122.987 13.0938C122.409 13.0938 121.925 13.2237 121.538 13.4834C121.151 13.7386 120.957 14.0691 120.957 14.4746C120.957 14.8255 121.087 15.1081 121.347 15.3223C121.606 15.5364 122.026 15.7119 122.604 15.8486L124.272 16.2314C125.239 16.4547 125.959 16.7989 126.433 17.2637C126.907 17.7285 127.144 18.3324 127.144 19.0752C127.144 19.7041 126.961 20.2646 126.597 20.7568C126.237 21.2444 125.733 21.6273 125.086 21.9053C124.443 22.1832 123.698 22.3223 122.851 22.3223C121.675 22.3222 120.715 22.0716 119.973 21.5703C119.23 21.0645 118.774 20.3466 118.605 19.417L120.581 19.1162C120.704 19.6311 120.957 20.0208 121.34 20.2852C121.723 20.5449 122.222 20.6748 122.837 20.6748C123.507 20.6748 124.042 20.5357 124.443 20.2578C124.844 19.9753 125.045 19.6312 125.045 19.2256C125.045 18.8975 124.922 18.6217 124.676 18.3984C124.434 18.1752 124.063 18.0065 123.562 17.8926L121.784 17.5029C120.804 17.2796 120.08 16.9241 119.61 16.4365C119.146 15.9489 118.913 15.3313 118.913 14.584C118.913 13.9642 119.086 13.4218 119.433 12.957C119.779 12.4922 120.258 12.1299 120.868 11.8701C121.479 11.6058 122.178 11.4737 122.967 11.4736ZM132.923 11.4736C133.515 11.4736 134.09 11.5716 134.646 11.7676C135.201 11.9635 135.701 12.2712 136.143 12.6904C136.585 13.1097 136.933 13.6543 137.188 14.3242C137.444 14.9896 137.571 15.7985 137.571 16.751V17.4756H130.109C130.125 18.1156 130.246 18.6648 130.476 19.123C130.726 19.6152 131.075 19.9912 131.521 20.251C131.968 20.5062 132.49 20.6338 133.087 20.6338C133.474 20.6338 133.827 20.5791 134.146 20.4697C134.465 20.3558 134.741 20.1872 134.974 19.9639C135.206 19.7406 135.384 19.4648 135.507 19.1367L137.441 19.4854C137.286 20.055 137.008 20.554 136.607 20.9824C136.211 21.4062 135.712 21.7367 135.11 21.9736C134.513 22.206 133.832 22.3223 133.066 22.3223C132.032 22.3223 131.141 22.1012 130.394 21.6592C129.651 21.2126 129.076 20.5859 128.671 19.7793C128.27 18.9681 128.069 18.0179 128.069 16.9287C128.069 15.8532 128.27 14.9053 128.671 14.085C129.076 13.2647 129.642 12.6243 130.366 12.1641C131.095 11.7038 131.948 11.4736 132.923 11.4736ZM7.96973 8.12891C9.02866 8.13157 10.0807 8.29515 11.0908 8.6123V12.2354C10.2087 11.7575 9.21974 11.5096 8.21582 11.5156C5.99848 11.5156 4.46582 13.0498 4.46582 15.1182C4.4659 17.1261 5.93422 18.7236 8.21582 18.7236C9.21866 18.7258 10.2067 18.4797 11.0908 18.0078V21.6328C10.0793 21.9427 9.02774 22.1032 7.96973 22.1104C4.12167 22.1103 0.750089 19.4732 0.75 15.1182C0.75 11.087 3.80379 8.12898 7.96973 8.12891ZM43.6963 8.12891C44.7552 8.13155 45.8073 8.29517 46.8174 8.6123V12.2354C45.9348 11.759 44.9459 11.5111 43.9424 11.5156C41.725 11.5156 40.1895 13.0498 40.1895 15.1182C40.1895 17.1261 41.6608 18.7236 43.9424 18.7236C44.9452 18.7259 45.9333 18.4797 46.8174 18.0078V21.6328C45.8058 21.9424 44.7544 22.1028 43.6963 22.1104C39.8482 22.1104 36.4727 19.4733 36.4727 15.1182C36.4727 11.087 39.5303 8.12891 43.6963 8.12891ZM57.584 8.12891C61.7536 8.12911 64.75 11.2604 64.75 15.1182C64.7499 18.9834 61.7573 22.1101 57.584 22.1104C53.4105 22.1104 50.421 18.9835 50.4209 15.1182C50.4209 11.2527 53.4142 8.12891 57.584 8.12891ZM82.9697 9.92871H76.4004V14.1943H82.3477V16.0059H76.4004V22.1104H74.2881V8.11035H82.9697V9.92871ZM86.5977 22.1104H84.5537V11.6104H86.5977V22.1104ZM93.6855 11.4736C94.401 11.4736 95.0277 11.624 95.5654 11.9248C96.1032 12.221 96.5202 12.6631 96.8164 13.251C97.1126 13.8389 97.2607 14.5658 97.2607 15.4316V22.1104H95.2168V15.6777C95.2168 14.9167 95.0185 14.3219 94.6221 13.8936C94.2256 13.4606 93.681 13.2442 92.9883 13.2441C92.5143 13.2441 92.0928 13.3467 91.7236 13.5518C91.3591 13.7568 91.0697 14.0576 90.8555 14.4541C90.6458 14.846 90.541 15.32 90.541 15.876V22.1104H88.4971V11.6104H90.459V13.3193H90.5889C90.8304 12.7634 91.2087 12.3167 91.7236 11.9795C92.2432 11.6423 92.8971 11.4736 93.6855 11.4736ZM28.8682 8.11035C29.9923 8.12581 31.1113 8.26993 32.2021 8.54004L32.1982 11.4375C31.3228 11.1994 30.4224 11.0617 29.5156 11.0293C28.1462 11.0293 27.3998 11.486 27.3994 12.1338C27.3996 12.9587 28.4068 13.2646 28.9668 13.4229L29.9121 13.7197C32.1332 14.4242 33.1475 15.9396 33.1475 17.5859C33.1472 20.976 30.1512 22.1062 27.5293 22.1064C26.2893 22.0918 25.0518 21.9653 23.835 21.7295V18.6221C24.886 18.9253 25.9723 19.0926 27.0664 19.1221C28.7729 19.1221 29.5527 18.6289 29.5527 17.8604C29.5525 17.1788 28.8758 16.7831 28.04 16.5156L27.3096 16.2822C25.4178 15.6832 23.8127 14.5676 23.8125 12.3301C23.8127 9.80604 25.705 8.11035 28.8682 8.11035ZM19.2178 21.873H15.8125V8.36621H19.2178V21.873ZM57.584 11.5654C57.1157 11.5613 56.6515 11.6508 56.2188 11.8281C55.7857 12.0055 55.392 12.2677 55.0625 12.5986C54.7331 12.9296 54.4732 13.3232 54.2988 13.7559C54.124 14.1883 54.038 14.6522 54.0459 15.1182C54.0372 15.5844 54.1235 16.0477 54.2979 16.4805C54.4719 16.9136 54.7311 17.3082 55.0605 17.6396C55.3905 17.9712 55.7845 18.2343 56.2178 18.4121C56.6507 18.5897 57.1159 18.678 57.584 18.6738C58.0527 18.6779 58.518 18.5899 58.9512 18.4121C59.3847 18.2343 59.7785 17.9711 60.1084 17.6396C60.4385 17.3086 60.6983 16.9145 60.873 16.4814C61.0478 16.0483 61.1333 15.5849 61.125 15.1182C61.1326 14.6518 61.0468 14.1887 60.8721 13.7559C60.6974 13.3232 60.4371 12.9297 60.1074 12.5986C59.7776 12.2676 59.3833 12.0056 58.9502 11.8281C58.5171 11.6508 58.0522 11.5613 57.584 11.5654ZM103.548 13.1621C102.974 13.1621 102.472 13.3035 102.044 13.5859C101.62 13.8639 101.292 14.2286 101.06 14.6797C100.86 15.0714 100.747 15.493 100.723 15.9443H106.18C106.18 15.4067 106.07 14.9303 105.852 14.5156C105.633 14.0965 105.325 13.7659 104.929 13.5244C104.537 13.2829 104.076 13.1622 103.548 13.1621ZM132.937 13.1621C132.362 13.1621 131.861 13.3034 131.433 13.5859C131.009 13.8639 130.681 14.2285 130.448 14.6797C130.248 15.0714 130.137 15.493 130.112 15.9443H135.568C135.568 15.4066 135.459 14.9303 135.24 14.5156C135.021 14.0964 134.714 13.7659 134.317 13.5244C133.925 13.2829 133.465 13.1621 132.937 13.1621ZM85.5859 7.5498C85.9412 7.54989 86.2446 7.67066 86.4951 7.91211C86.7502 8.14905 86.8779 8.43629 86.8779 8.77344C86.8779 9.10603 86.7502 9.39327 86.4951 9.63477C86.2446 9.87166 85.9412 9.99015 85.5859 9.99023C85.2306 9.99023 84.9251 9.87162 84.6699 9.63477C84.4193 9.39323 84.2939 9.10612 84.2939 8.77344C84.2939 8.4362 84.4193 8.14909 84.6699 7.91211C84.9251 7.6707 85.2306 7.5498 85.5859 7.5498Z" fill="white"/>
</svg>
