<svg width="182" height="55" viewBox="0 0 182 55" fill="none" xmlns="http://www.w3.org/2000/svg">
<path fill-rule="evenodd" clip-rule="evenodd" d="M134.99 23.4636C136.36 23.4636 137.49 24.6936 137.49 26.2036C137.49 27.7136 136.37 28.9536 134.99 28.9536C133.61 28.9536 132.49 27.7236 132.49 26.2036C132.49 24.6836 133.61 23.4636 134.99 23.4636Z" fill="#154E8F" stroke="#144E8E" stroke-width="0.08" stroke-miterlimit="2.61"/>
<path fill-rule="evenodd" clip-rule="evenodd" d="M56.1102 13.4036H72.8502L72.4902 16.0736H65.3502L61.9702 41.4236H59.1802L62.5502 16.0736H55.7402L56.1102 13.4036Z" fill="#154E8F"/>
<path fill-rule="evenodd" clip-rule="evenodd" d="M43.5198 17.8835L41.8198 20.2235C38.8498 17.4335 35.4698 16.0335 31.6698 16.0335C29.1898 16.0335 26.8798 16.6435 24.7298 17.8435C22.5798 19.0535 20.8898 20.6835 19.6798 22.7235C18.4598 24.7735 17.8598 26.9735 17.8598 29.3135C17.8598 31.4035 18.3298 33.2635 19.2598 34.8935C20.1998 36.5235 21.5398 37.7935 23.3098 38.7135C25.0698 39.6335 27.0898 40.0935 29.3598 40.0935C32.8298 40.0935 36.0598 38.9935 39.0598 36.7935L40.6198 39.0235C38.3998 40.4835 36.4798 41.4735 34.8798 41.9735C33.2798 42.4835 31.4298 42.7335 29.3398 42.7335C25.4598 42.7335 22.2998 41.7635 19.8698 39.8235C16.6298 37.2235 15.0098 33.7535 15.0098 29.4035C15.0098 25.0535 16.6298 21.1135 19.8698 17.9935C23.1098 14.8635 27.1398 13.3035 31.9498 13.3035C34.1498 13.3035 36.1398 13.6435 37.9498 14.3435C39.7498 15.0335 41.5998 16.2135 43.5098 17.8735H43.5198V17.8835Z" fill="#154E8F"/>
<path fill-rule="evenodd" clip-rule="evenodd" d="M50.3408 13.4036H53.1708L49.3708 41.4236H46.5508L50.3408 13.4036Z" fill="#154E8F"/>
<path fill-rule="evenodd" clip-rule="evenodd" d="M146.571 13.4036H163.321L162.961 16.0736H155.821L152.431 41.4236H149.651L153.011 16.0736H146.211L146.571 13.4036Z" fill="#154E8F"/>
<path fill-rule="evenodd" clip-rule="evenodd" d="M76.2598 13.4036H79.1898L85.1898 26.1236L95.3098 13.4036H98.6898L86.2798 29.0036L84.5798 41.4236H81.8498L83.5398 28.8536L76.2598 13.4036Z" fill="#154E8F"/>
<path fill-rule="evenodd" clip-rule="evenodd" d="M120.371 13.4436H123.111L119.321 41.4736H118.711L102.931 19.7536L100.001 41.4736H97.2207L101.001 13.4436H101.601L117.421 35.2036L120.371 13.4436Z" fill="#154E8F"/>
<path fill-rule="evenodd" clip-rule="evenodd" d="M143.511 13.4036L143.101 16.1236H130.491L129.241 25.3036L128.901 28.0036L127.461 38.7436H140.071L139.761 41.4236H124.311L128.061 13.4036H143.511Z" fill="#154E8F"/>
<path fill-rule="evenodd" clip-rule="evenodd" d="M134.759 20.2036C135.239 18.9536 135.589 17.6536 135.779 16.3336C135.949 15.1836 136.239 13.7536 135.779 12.6436C134.239 8.96365 130.479 8.01365 126.849 8.59365C122.739 9.25365 118.859 11.2136 115.279 13.2536C112.279 14.9636 109.439 16.8936 106.589 18.8336C106.559 18.8536 106.269 19.0636 106.259 19.0536C105.799 18.6036 105.999 18.7236 105.259 17.8136C105.139 17.6636 111.489 12.7336 112.069 12.3036C114.489 10.5336 117.029 8.92365 119.729 7.59365C124.379 5.30365 131.029 2.57365 135.949 5.70365C141.039 8.94365 137.179 16.6136 134.899 20.3536C134.849 20.3036 134.799 20.2536 134.749 20.2036H134.759Z" fill="#839CC9"/>
<path fill-rule="evenodd" clip-rule="evenodd" d="M93.7891 31.6336C95.6591 28.8036 97.2791 26.1236 99.2591 23.7036C99.2191 24.1936 99.0591 25.1436 98.9791 25.8336C97.5791 27.2936 95.3691 29.9636 94.0691 31.5536C94.0191 31.4536 93.8391 31.6936 93.7891 31.6436V31.6336Z" fill="#839CC9"/>
<path fill-rule="evenodd" clip-rule="evenodd" d="M96.6009 51.3535C95.7709 51.2035 94.9809 50.9535 94.2509 50.5735C92.2909 49.5335 91.2809 47.5935 91.3909 45.3935C91.5509 41.9835 93.2309 38.6735 94.8409 35.7335C94.6309 36.1235 94.6109 36.7935 94.5009 37.2335C94.3709 37.7335 94.2209 38.2335 94.0809 38.7435C93.8309 39.6435 93.5909 40.5635 93.6009 41.5035C93.6409 47.5435 100.561 47.9435 104.971 46.8935C110.141 45.6635 114.861 42.8835 119.331 40.0935C119.551 39.9535 119.771 39.8235 119.991 39.6835C124.011 36.4035 128.391 33.3335 131.721 29.3435C131.271 29.2535 131.271 29.2135 129.951 28.9635C130.761 28.3935 133.441 26.7435 135.061 25.8035C135.031 28.3335 135.031 28.7535 135.011 29.9635C134.241 29.7835 133.391 29.5735 132.631 29.5735C132.111 29.5735 130.171 32.4235 129.741 32.8835C128.701 34.0335 127.631 35.1635 126.541 36.2635C124.331 38.4835 122.011 40.5935 119.531 42.5235C116.351 44.9935 112.791 47.1735 109.051 48.7935C105.281 50.4235 100.761 52.1035 96.5909 51.3635H96.6009V51.3535Z" fill="#839CC9"/>
</svg>
