<svg width="36" height="26" viewBox="0 0 36 26" fill="none" xmlns="http://www.w3.org/2000/svg">
<path fill-rule="evenodd" clip-rule="evenodd" d="M10.3797 24.8435C9.97965 24.7735 9.58965 24.6535 9.22965 24.4635C8.26965 23.9535 7.77965 23.0135 7.82965 21.9335C7.90965 20.2635 8.72965 18.6535 9.51965 17.2235C9.41965 17.4135 9.40965 17.7435 9.34965 17.9535C9.27965 18.2035 9.20965 18.4435 9.13965 18.6935C9.01965 19.1335 8.89965 19.5835 8.90965 20.0435C8.92965 22.9935 12.3097 23.1835 14.4597 22.6735C16.9797 22.0735 19.2896 20.7135 21.4697 19.3535C21.5796 19.2835 21.6797 19.2235 21.7897 19.1535C23.7497 17.5535 25.8897 16.0535 27.5197 14.1035C27.2997 14.0635 27.2997 14.0435 26.6597 13.9135C27.0597 13.6335 28.3696 12.8335 29.1497 12.3735C29.1397 13.6035 29.1397 13.8135 29.1297 14.4035C28.7596 14.3135 28.3397 14.2135 27.9697 14.2135C27.7097 14.2135 26.7696 15.6035 26.5597 15.8335C26.0497 16.3935 25.5297 16.9435 24.9997 17.4835C23.9197 18.5635 22.7897 19.5935 21.5797 20.5335C20.0297 21.7435 18.2896 22.8035 16.4597 23.5935C14.6196 24.3935 12.4097 25.2035 10.3797 24.8435Z" fill="#809BC7"/>
<path fill-rule="evenodd" clip-rule="evenodd" d="M9.14086 15.1935C9.14086 15.1935 15.0109 7.58352 23.2509 4.47352C24.2809 4.08352 25.3709 3.81352 26.4709 3.87352C27.3809 3.92352 28.3409 4.30352 28.9609 4.98352C29.6409 5.72352 29.6109 6.73352 29.5609 7.68352C29.5209 8.34352 29.4209 9.02352 29.1409 9.62352C29.3509 9.17352 29.6709 8.77352 29.8809 8.31352C30.3609 7.29352 30.6909 6.18352 30.7909 5.06352C30.8809 4.03352 30.3609 3.11352 29.5109 2.56352C28.5309 1.92352 27.3009 1.82352 26.1709 1.96352C25.1609 2.09352 24.1709 2.47352 23.2309 2.84352C20.9809 3.73352 18.9709 4.99352 17.0809 6.51352C15.3909 7.87352 13.7409 9.30352 12.2409 10.8735C11.6509 11.4935 11.0709 12.1335 10.5609 12.8235L9.13086 14.8835V15.2035L9.14086 15.1935Z" fill="#809BC7"/>
</svg>
