<svg width="36" height="25" viewBox="0 0 36 25" fill="none" xmlns="http://www.w3.org/2000/svg">
<path fill-rule="evenodd" clip-rule="evenodd" d="M10.3797 23.93C9.97965 23.86 9.58965 23.74 9.22965 23.55C8.26965 23.04 7.77965 22.1 7.82965 21.02C7.90965 19.35 8.72965 17.74 9.51965 16.31C9.41965 16.5 9.40965 16.83 9.34965 17.04C9.27965 17.29 9.20965 17.53 9.13965 17.78C9.01965 18.22 8.89965 18.67 8.90965 19.13C8.92965 22.08 12.3097 22.27 14.4597 21.76C16.9797 21.16 19.2896 19.8 21.4697 18.44C21.5796 18.37 21.6797 18.31 21.7897 18.24C23.7497 16.64 25.8897 15.14 27.5197 13.19C27.2997 13.15 27.2997 13.13 26.6597 13C27.0597 12.72 28.3696 11.92 29.1497 11.46C29.1397 12.69 29.1397 12.9 29.1297 13.49C28.7596 13.4 28.3397 13.3 27.9697 13.3C27.7097 13.3 26.7696 14.69 26.5597 14.92C26.0497 15.48 25.5297 16.03 24.9997 16.57C23.9197 17.65 22.7897 18.68 21.5797 19.62C20.0297 20.83 18.2896 21.89 16.4597 22.68C14.6196 23.48 12.4097 24.29 10.3797 23.93Z" fill="#809BC7"/>
<path fill-rule="evenodd" clip-rule="evenodd" d="M9.14086 14.2799C9.14086 14.2799 15.0109 6.66994 23.2509 3.55995C24.2809 3.16995 25.3709 2.89995 26.4709 2.95995C27.3809 3.00995 28.3409 3.38995 28.9609 4.06995C29.6409 4.80995 29.6109 5.81995 29.5609 6.76995C29.5209 7.42994 29.4209 8.10995 29.1409 8.70995C29.3509 8.25995 29.6709 7.85995 29.8809 7.39995C30.3609 6.37995 30.6909 5.26995 30.7909 4.14995C30.8809 3.11995 30.3609 2.19995 29.5109 1.64995C28.5309 1.00995 27.3009 0.909945 26.1709 1.04995C25.1609 1.17995 24.1709 1.55995 23.2309 1.92995C20.9809 2.81995 18.9709 4.07995 17.0809 5.59995C15.3909 6.95995 13.7409 8.38995 12.2409 9.95995C11.6509 10.5799 11.0709 11.2199 10.5609 11.9099L9.13086 13.9699V14.2899L9.14086 14.2799Z" fill="#809BC7"/>
</svg>
