<svg width="182" height="55" viewBox="0 0 182 55" fill="none" xmlns="http://www.w3.org/2000/svg">
<path fill-rule="evenodd" clip-rule="evenodd" d="M134.99 23.3201C136.36 23.3201 137.49 24.5501 137.49 26.0601C137.49 27.5701 136.37 28.8101 134.99 28.8101C133.61 28.8101 132.49 27.5801 132.49 26.0601C132.49 24.5401 133.61 23.3201 134.99 23.3201Z" fill="#154E8F" stroke="#144E8E" stroke-width="0.08" stroke-miterlimit="2.61"/>
<path fill-rule="evenodd" clip-rule="evenodd" d="M56.1102 13.26H72.8502L72.4902 15.93H65.3502L61.9702 41.28H59.1802L62.5502 15.93H55.7402L56.1102 13.26Z" fill="#154E8F"/>
<path fill-rule="evenodd" clip-rule="evenodd" d="M43.5198 17.74L41.8198 20.08C38.8498 17.29 35.4698 15.89 31.6698 15.89C29.1898 15.89 26.8798 16.5 24.7298 17.7C22.5798 18.91 20.8898 20.54 19.6798 22.58C18.4598 24.63 17.8598 26.83 17.8598 29.17C17.8598 31.26 18.3298 33.12 19.2598 34.75C20.1998 36.38 21.5398 37.65 23.3098 38.57C25.0698 39.49 27.0898 39.95 29.3598 39.95C32.8298 39.95 36.0598 38.85 39.0598 36.65L40.6198 38.88C38.3998 40.34 36.4798 41.33 34.8798 41.83C33.2798 42.34 31.4298 42.59 29.3398 42.59C25.4598 42.59 22.2998 41.62 19.8698 39.68C16.6298 37.08 15.0098 33.61 15.0098 29.26C15.0098 24.91 16.6298 20.97 19.8698 17.85C23.1098 14.72 27.1398 13.16 31.9498 13.16C34.1498 13.16 36.1398 13.5 37.9498 14.2C39.7498 14.89 41.5998 16.07 43.5098 17.73H43.5198V17.74Z" fill="#154E8F"/>
<path fill-rule="evenodd" clip-rule="evenodd" d="M50.3408 13.26H53.1708L49.3708 41.28H46.5508L50.3408 13.26Z" fill="#154E8F"/>
<path fill-rule="evenodd" clip-rule="evenodd" d="M146.571 13.26H163.321L162.961 15.93H155.821L152.431 41.28H149.651L153.011 15.93H146.211L146.571 13.26Z" fill="#154E8F"/>
<path fill-rule="evenodd" clip-rule="evenodd" d="M76.2598 13.26H79.1898L85.1898 25.98L95.3098 13.26H98.6898L86.2798 28.86L84.5798 41.28H81.8498L83.5398 28.71L76.2598 13.26Z" fill="#154E8F"/>
<path fill-rule="evenodd" clip-rule="evenodd" d="M120.371 13.3H123.111L119.321 41.3301H118.711L102.931 19.61L100.001 41.3301H97.2207L101.001 13.3H101.601L117.421 35.0601L120.371 13.3Z" fill="#154E8F"/>
<path fill-rule="evenodd" clip-rule="evenodd" d="M143.511 13.26L143.101 15.98H130.491L129.241 25.16L128.901 27.86L127.461 38.6H140.071L139.761 41.28H124.311L128.061 13.26H143.511Z" fill="#154E8F"/>
<path fill-rule="evenodd" clip-rule="evenodd" d="M134.759 20.06C135.239 18.81 135.589 17.51 135.779 16.19C135.949 15.04 136.239 13.61 135.779 12.5C134.239 8.81997 130.479 7.86997 126.849 8.44997C122.739 9.10997 118.859 11.07 115.279 13.11C112.279 14.82 109.439 16.75 106.589 18.69C106.559 18.71 106.269 18.92 106.259 18.91C105.799 18.46 105.999 18.58 105.259 17.67C105.139 17.52 111.489 12.59 112.069 12.16C114.489 10.39 117.029 8.77997 119.729 7.44997C124.379 5.15997 131.029 2.42997 135.949 5.55997C141.039 8.79997 137.179 16.47 134.899 20.21C134.849 20.16 134.799 20.11 134.749 20.06H134.759Z" fill="#839CC9"/>
<path fill-rule="evenodd" clip-rule="evenodd" d="M93.7891 31.4901C95.6591 28.6601 97.2791 25.9801 99.2591 23.5601C99.2191 24.0501 99.0591 25.0001 98.9791 25.6901C97.5791 27.1501 95.3691 29.8201 94.0691 31.4101C94.0191 31.3101 93.8391 31.5501 93.7891 31.5001V31.4901Z" fill="#839CC9"/>
<path fill-rule="evenodd" clip-rule="evenodd" d="M96.6009 51.21C95.7709 51.06 94.9809 50.81 94.2509 50.43C92.2909 49.39 91.2809 47.45 91.3909 45.25C91.5509 41.84 93.2309 38.53 94.8409 35.59C94.6309 35.98 94.6109 36.65 94.5009 37.09C94.3709 37.59 94.2209 38.09 94.0809 38.6C93.8309 39.5 93.5909 40.42 93.6009 41.36C93.6409 47.4 100.561 47.8 104.971 46.75C110.141 45.52 114.861 42.74 119.331 39.95C119.551 39.81 119.771 39.68 119.991 39.54C124.011 36.26 128.391 33.19 131.721 29.2C131.271 29.11 131.271 29.07 129.951 28.82C130.761 28.25 133.441 26.6 135.061 25.66C135.031 28.19 135.031 28.61 135.011 29.82C134.241 29.64 133.391 29.43 132.631 29.43C132.111 29.43 130.171 32.28 129.741 32.74C128.701 33.89 127.631 35.02 126.541 36.12C124.331 38.34 122.011 40.45 119.531 42.38C116.351 44.85 112.791 47.03 109.051 48.65C105.281 50.28 100.761 51.96 96.5909 51.22H96.6009V51.21Z" fill="#839CC9"/>
</svg>
