<svg width="182" height="54" viewBox="0 0 182 54" fill="none" xmlns="http://www.w3.org/2000/svg">
<path fill-rule="evenodd" clip-rule="evenodd" d="M134.99 22.55C136.36 22.55 137.49 23.7801 137.49 25.2901C137.49 26.8001 136.37 28.0401 134.99 28.0401C133.61 28.0401 132.49 26.8101 132.49 25.2901C132.49 23.7701 133.61 22.55 134.99 22.55Z" fill="#154E8F" stroke="#144E8E" stroke-width="0.08" stroke-miterlimit="2.61"/>
<path fill-rule="evenodd" clip-rule="evenodd" d="M56.1102 12.49H72.8502L72.4902 15.16H65.3502L61.9702 40.51H59.1802L62.5502 15.16H55.7402L56.1102 12.49Z" fill="#154E8F"/>
<path fill-rule="evenodd" clip-rule="evenodd" d="M43.5198 16.9699L41.8198 19.3099C38.8498 16.5199 35.4698 15.1199 31.6698 15.1199C29.1898 15.1199 26.8798 15.7299 24.7298 16.9299C22.5798 18.1399 20.8898 19.7699 19.6798 21.8099C18.4598 23.8599 17.8598 26.0599 17.8598 28.3999C17.8598 30.4899 18.3298 32.3499 19.2598 33.9799C20.1998 35.6099 21.5398 36.8799 23.3098 37.7999C25.0698 38.7199 27.0898 39.1799 29.3598 39.1799C32.8298 39.1799 36.0598 38.0799 39.0598 35.8799L40.6198 38.1099C38.3998 39.5699 36.4798 40.5599 34.8798 41.0599C33.2798 41.5699 31.4298 41.8199 29.3398 41.8199C25.4598 41.8199 22.2998 40.8499 19.8698 38.9099C16.6298 36.3099 15.0098 32.8399 15.0098 28.4899C15.0098 24.1399 16.6298 20.1999 19.8698 17.0799C23.1098 13.9499 27.1398 12.3899 31.9498 12.3899C34.1498 12.3899 36.1398 12.7299 37.9498 13.4299C39.7498 14.1199 41.5998 15.2999 43.5098 16.9599H43.5198V16.9699Z" fill="#154E8F"/>
<path fill-rule="evenodd" clip-rule="evenodd" d="M50.3408 12.49H53.1708L49.3708 40.51H46.5508L50.3408 12.49Z" fill="#154E8F"/>
<path fill-rule="evenodd" clip-rule="evenodd" d="M146.571 12.49H163.321L162.961 15.16H155.821L152.431 40.51H149.651L153.011 15.16H146.211L146.571 12.49Z" fill="#154E8F"/>
<path fill-rule="evenodd" clip-rule="evenodd" d="M76.2598 12.49H79.1898L85.1898 25.21L95.3098 12.49H98.6898L86.2798 28.09L84.5798 40.51H81.8498L83.5398 27.94L76.2598 12.49Z" fill="#154E8F"/>
<path fill-rule="evenodd" clip-rule="evenodd" d="M120.371 12.53H123.111L119.321 40.56H118.711L102.931 18.84L100.001 40.56H97.2207L101.001 12.53H101.601L117.421 34.29L120.371 12.53Z" fill="#154E8F"/>
<path fill-rule="evenodd" clip-rule="evenodd" d="M143.511 12.49L143.101 15.21H130.491L129.241 24.39L128.901 27.09L127.461 37.83H140.071L139.761 40.51H124.311L128.061 12.49H143.511Z" fill="#154E8F"/>
<path fill-rule="evenodd" clip-rule="evenodd" d="M134.759 19.2901C135.239 18.0401 135.589 16.7401 135.779 15.4201C135.949 14.2701 136.239 12.8401 135.779 11.7301C134.239 8.05007 130.479 7.10007 126.849 7.68007C122.739 8.34007 118.859 10.3001 115.279 12.3401C112.279 14.0501 109.439 15.9801 106.589 17.9201C106.559 17.9401 106.269 18.1501 106.259 18.1401C105.799 17.6901 105.999 17.8101 105.259 16.9001C105.139 16.7501 111.489 11.8201 112.069 11.3901C114.489 9.62007 117.029 8.01007 119.729 6.68007C124.379 4.39007 131.029 1.66007 135.949 4.79007C141.039 8.03007 137.179 15.7001 134.899 19.4401C134.849 19.3901 134.799 19.3401 134.749 19.2901H134.759Z" fill="#839CC9"/>
<path fill-rule="evenodd" clip-rule="evenodd" d="M93.7891 30.72C95.6591 27.89 97.2791 25.21 99.2591 22.79C99.2191 23.28 99.0591 24.23 98.9791 24.92C97.5791 26.38 95.3691 29.05 94.0691 30.64C94.0191 30.54 93.8391 30.78 93.7891 30.73V30.72Z" fill="#839CC9"/>
<path fill-rule="evenodd" clip-rule="evenodd" d="M96.6009 50.4399C95.7709 50.2899 94.9809 50.0399 94.2509 49.6599C92.2909 48.6199 91.2809 46.6799 91.3909 44.4799C91.5509 41.0699 93.2309 37.7599 94.8409 34.8199C94.6309 35.2099 94.6109 35.8799 94.5009 36.3199C94.3709 36.8199 94.2209 37.3199 94.0809 37.8299C93.8309 38.7299 93.5909 39.6499 93.6009 40.5899C93.6409 46.6299 100.561 47.0299 104.971 45.9799C110.141 44.7499 114.861 41.9699 119.331 39.1799C119.551 39.0399 119.771 38.9099 119.991 38.7699C124.011 35.4899 128.391 32.4199 131.721 28.4299C131.271 28.3399 131.271 28.2999 129.951 28.0499C130.761 27.4799 133.441 25.8299 135.061 24.8899C135.031 27.4199 135.031 27.8399 135.011 29.0499C134.241 28.8699 133.391 28.6599 132.631 28.6599C132.111 28.6599 130.171 31.5099 129.741 31.9699C128.701 33.1199 127.631 34.2499 126.541 35.3499C124.331 37.5699 122.011 39.6799 119.531 41.6099C116.351 44.0799 112.791 46.2599 109.051 47.8799C105.281 49.5099 100.761 51.1899 96.5909 50.4499H96.6009V50.4399Z" fill="#839CC9"/>
</svg>
