<svg width="188" height="28" viewBox="0 0 188 28" fill="none" xmlns="http://www.w3.org/2000/svg">
<path fill-rule="evenodd" clip-rule="evenodd" d="M36.9092 10.2256C37.3339 10.2256 37.7843 10.2764 38.2598 10.3779C38.7397 10.4749 39.1872 10.655 39.6025 10.918C40.0226 11.1811 40.367 11.5575 40.6348 12.0469C40.9025 12.5316 41.0361 13.162 41.0361 13.9375V21H39.0146V19.5459H38.9307C38.7968 19.8136 38.5968 20.0774 38.3291 20.3359C38.0614 20.5944 37.7169 20.8087 37.2969 20.9795C36.8768 21.1503 36.3734 21.2363 35.7871 21.2363C35.1132 21.2363 34.5037 21.1116 33.959 20.8623C33.4142 20.6084 32.9826 20.2409 32.6641 19.7607C32.3502 19.2807 32.1934 18.6921 32.1934 17.9951C32.1934 17.395 32.3093 16.9014 32.54 16.5137C32.7709 16.1259 33.0822 15.818 33.4746 15.5918C33.8669 15.3657 34.3055 15.1955 34.79 15.0801C35.2748 14.9647 35.7693 14.8764 36.2725 14.8164C36.9093 14.7426 37.4263 14.6829 37.8232 14.6367C38.22 14.586 38.5084 14.5052 38.6885 14.3945C38.8684 14.2838 38.9589 14.1036 38.959 13.8545V13.8057C38.959 13.201 38.7878 12.7328 38.4463 12.4004C38.1093 12.068 37.6059 11.9014 36.9365 11.9014C36.2397 11.9014 35.6906 12.0561 35.2891 12.3652C34.8922 12.6698 34.6172 13.0091 34.4648 13.3828L32.5186 12.9404C32.7494 12.2941 33.0871 11.772 33.5303 11.375C33.978 10.9735 34.4927 10.6829 35.0742 10.5029C35.6559 10.3183 36.2675 10.2256 36.9092 10.2256ZM38.9658 15.793C38.892 15.8668 38.7485 15.9363 38.5361 16.001C38.3285 16.061 38.0908 16.114 37.8232 16.1602C37.5556 16.2017 37.2948 16.2404 37.041 16.2773C36.7871 16.3097 36.5741 16.3382 36.4033 16.3613C36.0019 16.4121 35.635 16.4972 35.3027 16.6172C34.975 16.7372 34.7112 16.9105 34.5127 17.1367C34.3191 17.3582 34.2227 17.6535 34.2227 18.0225C34.2227 18.5349 34.4115 18.9234 34.79 19.1865C35.1686 19.445 35.6511 19.5742 36.2373 19.5742C36.8097 19.5742 37.2989 19.4605 37.7051 19.2344C38.1159 19.0082 38.4283 18.7133 38.6406 18.3486C38.8576 17.9793 38.9658 17.5842 38.9658 17.1641V15.793Z" fill="black"/>
<path fill-rule="evenodd" clip-rule="evenodd" d="M75.9561 10.2256C76.3807 10.2256 76.8312 10.2764 77.3066 10.3779C77.7865 10.4749 78.2341 10.655 78.6494 10.918C79.0695 11.1811 79.4139 11.5575 79.6816 12.0469C79.9493 12.5316 80.083 13.162 80.083 13.9375V21H78.0615V19.5459H77.9775C77.8437 19.8136 77.6437 20.0774 77.376 20.3359C77.1082 20.5944 76.7638 20.8087 76.3438 20.9795C75.9237 21.1503 75.4203 21.2363 74.834 21.2363C74.16 21.2363 73.5506 21.1116 73.0059 20.8623C72.4611 20.6084 72.0295 20.2409 71.7109 19.7607C71.3971 19.2807 71.2402 18.6921 71.2402 17.9951C71.2402 17.395 71.3561 16.9014 71.5869 16.5137C71.8177 16.1259 72.1291 15.818 72.5215 15.5918C72.9138 15.3657 73.3524 15.1955 73.8369 15.0801C74.3216 14.9647 74.8161 14.8764 75.3193 14.8164C75.9562 14.7426 76.4732 14.6829 76.8701 14.6367C77.2669 14.586 77.5553 14.5052 77.7354 14.3945C77.9153 14.2838 78.0058 14.1036 78.0059 13.8545V13.8057C78.0059 13.201 77.8347 12.7328 77.4932 12.4004C77.1562 12.068 76.6528 11.9014 75.9834 11.9014C75.2866 11.9014 74.7375 12.0561 74.3359 12.3652C73.9391 12.6698 73.6641 13.0091 73.5117 13.3828L71.5654 12.9404C71.7963 12.2941 72.134 11.772 72.5771 11.375C73.0249 10.9735 73.5395 10.6829 74.1211 10.5029C74.7028 10.3183 75.3144 10.2256 75.9561 10.2256ZM78.0127 15.793C77.9388 15.8668 77.7954 15.9363 77.583 16.001C77.3754 16.061 77.1377 16.114 76.8701 16.1602C76.6025 16.2017 76.3417 16.2404 76.0879 16.2773C75.834 16.3097 75.621 16.3382 75.4502 16.3613C75.0487 16.4121 74.6819 16.4972 74.3496 16.6172C74.0218 16.7372 73.7581 16.9105 73.5596 17.1367C73.366 17.3582 73.2696 17.6535 73.2695 18.0225C73.2695 18.5349 73.4584 18.9234 73.8369 19.1865C74.2154 19.445 74.698 19.5742 75.2842 19.5742C75.8565 19.5742 76.3457 19.4605 76.752 19.2344C77.1628 19.0082 77.4751 18.7133 77.6875 18.3486C77.9045 17.9793 78.0127 17.5842 78.0127 17.1641V15.793Z" fill="black"/>
<path fill-rule="evenodd" clip-rule="evenodd" d="M18.2607 10.2256C19.2578 10.2256 20.1279 10.4542 20.8711 10.9111C21.6143 11.3681 22.1917 12.0097 22.6025 12.8359C23.0134 13.6622 23.2187 14.6272 23.2188 15.7305C23.2188 16.8292 23.0134 17.7896 22.6025 18.6113C22.1917 19.4331 21.6143 20.0723 20.8711 20.5293C20.1279 20.9863 19.2578 21.2148 18.2607 21.2148C17.2636 21.2148 16.3936 20.9863 15.6504 20.5293C14.9071 20.0723 14.3298 19.4331 13.9189 18.6113C13.5081 17.7896 13.3027 16.8291 13.3027 15.7305C13.3028 14.6272 13.5081 13.6622 13.9189 12.8359C14.3298 12.0097 14.9072 11.3681 15.6504 10.9111C16.3936 10.4542 17.2637 10.2256 18.2607 10.2256ZM18.2676 11.957C17.6167 11.9571 17.0768 12.1304 16.6475 12.4766C16.2228 12.8228 15.906 13.2821 15.6982 13.8545C15.4952 14.4221 15.3936 15.0453 15.3936 15.7236C15.3936 16.4069 15.4951 17.0328 15.6982 17.6006C15.906 18.1684 16.2227 18.6232 16.6475 18.9648C17.0767 19.3063 17.6168 19.4765 18.2676 19.4766C18.9137 19.4766 19.4494 19.3063 19.874 18.9648C20.2987 18.6232 20.6133 18.1684 20.8164 17.6006C21.0241 17.0328 21.1279 16.4069 21.1279 15.7236C21.1279 15.0452 21.024 14.4222 20.8164 13.8545C20.6133 13.2821 20.2987 12.8228 19.874 12.4766C19.4493 12.1303 18.9139 11.957 18.2676 11.957Z" fill="black"/>
<path fill-rule="evenodd" clip-rule="evenodd" d="M58.7812 10.2256C59.7783 10.2256 60.6484 10.4542 61.3916 10.9111C62.1348 11.3681 62.7122 12.0097 63.123 12.8359C63.5339 13.6622 63.7392 14.6272 63.7393 15.7305C63.7393 16.8292 63.5339 17.7896 63.123 18.6113C62.7122 19.4331 62.1349 20.0723 61.3916 20.5293C60.6484 20.9863 59.7783 21.2148 58.7812 21.2148C57.7841 21.2148 56.9141 20.9863 56.1709 20.5293C55.4276 20.0723 54.8503 19.4331 54.4395 18.6113C54.0286 17.7896 53.8232 16.8291 53.8232 15.7305C53.8233 14.6272 54.0286 13.6622 54.4395 12.8359C54.8503 12.0097 55.4277 11.3681 56.1709 10.9111C56.9141 10.4542 57.7842 10.2256 58.7812 10.2256ZM58.7881 11.957C58.1372 11.9571 57.5973 12.1304 57.168 12.4766C56.7433 12.8228 56.4265 13.2821 56.2188 13.8545C56.0158 14.4221 55.9141 15.0453 55.9141 15.7236C55.9141 16.4069 56.0156 17.0328 56.2188 17.6006C56.4265 18.1684 56.7433 18.6232 57.168 18.9648C57.5972 19.3063 58.1373 19.4765 58.7881 19.4766C59.4342 19.4766 59.9699 19.3063 60.3945 18.9648C60.8192 18.6232 61.1338 18.1684 61.3369 17.6006C61.5447 17.0328 61.6484 16.4069 61.6484 15.7236C61.6484 15.0452 61.5445 14.4222 61.3369 13.8545C61.1338 13.2821 60.8192 12.8228 60.3945 12.4766C59.9698 12.1303 59.4344 11.957 58.7881 11.957Z" fill="black"/>
<path fill-rule="evenodd" clip-rule="evenodd" d="M96.8828 10.2256C97.8799 10.2256 98.75 10.4542 99.4932 10.9111C100.236 11.3681 100.814 12.0097 101.225 12.8359C101.635 13.6622 101.841 14.6272 101.841 15.7305C101.841 16.8292 101.635 17.7896 101.225 18.6113C100.814 19.4331 100.236 20.0723 99.4932 20.5293C98.7499 20.9863 97.8799 21.2148 96.8828 21.2148C95.8857 21.2148 95.0157 20.9863 94.2725 20.5293C93.5292 20.0723 92.9519 19.4331 92.541 18.6113C92.1302 17.7896 91.9248 16.8291 91.9248 15.7305C91.9248 14.6272 92.1302 13.6622 92.541 12.8359C92.9519 12.0097 93.5293 11.3681 94.2725 10.9111C95.0157 10.4542 95.8857 10.2256 96.8828 10.2256ZM96.8896 11.957C96.2388 11.9571 95.6988 12.1304 95.2695 12.4766C94.8449 12.8228 94.528 13.2821 94.3203 13.8545C94.1173 14.4221 94.0156 15.0453 94.0156 15.7236C94.0156 16.4069 94.1172 17.0328 94.3203 17.6006C94.5281 18.1684 94.8448 18.6232 95.2695 18.9648C95.6988 19.3063 96.2389 19.4765 96.8896 19.4766C97.5358 19.4766 98.0714 19.3063 98.4961 18.9648C98.9208 18.6232 99.2354 18.1684 99.4385 17.6006C99.6462 17.0328 99.75 16.4069 99.75 15.7236C99.75 15.0453 99.6461 14.4222 99.4385 13.8545C99.2354 13.2821 98.9208 12.8228 98.4961 12.4766C98.0714 12.1303 97.536 11.957 96.8896 11.957Z" fill="black"/>
<path d="M182.867 10.2256C184.017 10.2256 184.922 10.4751 185.582 10.9736C186.242 11.4676 186.678 12.1301 186.891 12.9609L185.014 13.293C184.935 13.053 184.81 12.8243 184.64 12.6074C184.473 12.3906 184.247 12.2127 183.961 12.0742C183.675 11.9358 183.317 11.8672 182.888 11.8672C182.302 11.8672 181.812 11.9986 181.42 12.2617C181.028 12.5202 180.831 12.8548 180.831 13.2656C180.831 13.6209 180.963 13.9071 181.226 14.124C181.489 14.341 181.914 14.5187 182.5 14.6572L184.189 15.0449C185.168 15.2711 185.898 15.62 186.378 16.0908C186.858 16.5617 187.099 17.1733 187.099 17.9258C187.099 18.5628 186.913 19.1304 186.544 19.6289C186.179 20.1229 185.669 20.5114 185.014 20.793C184.363 21.0745 183.608 21.2148 182.749 21.2148C181.558 21.2148 180.586 20.9609 179.834 20.4531C179.082 19.9408 178.62 19.214 178.449 18.2725L180.45 17.9678C180.575 18.4892 180.831 18.8837 181.219 19.1514C181.606 19.4145 182.112 19.5459 182.735 19.5459C183.414 19.5459 183.957 19.4056 184.363 19.124C184.769 18.8378 184.973 18.4889 184.973 18.0781C184.973 17.7458 184.848 17.4664 184.599 17.2402C184.354 17.014 183.978 16.843 183.47 16.7275L181.669 16.333C180.677 16.1068 179.942 15.7468 179.467 15.2529C178.996 14.759 178.761 14.133 178.761 13.376C178.761 12.7484 178.936 12.1993 179.287 11.7285C179.638 11.2576 180.123 10.8901 180.741 10.627C181.36 10.3592 182.069 10.2256 182.867 10.2256Z" fill="black"/>
<path fill-rule="evenodd" clip-rule="evenodd" d="M45.1807 12.0879H45.3057C45.4257 11.8663 45.599 11.6101 45.8252 11.3193C46.0514 11.0286 46.365 10.7746 46.7666 10.5576C47.1682 10.336 47.6992 10.2256 48.3594 10.2256C49.218 10.2256 49.9842 10.4421 50.6582 10.876C51.3322 11.3099 51.861 11.9358 52.2441 12.7529C52.6318 13.5699 52.8261 14.553 52.8262 15.7021C52.8262 16.8515 52.6341 17.8375 52.251 18.6592C51.8678 19.4763 51.3413 20.1066 50.6719 20.5498C50.0025 20.9883 49.2385 21.208 48.3799 21.208C47.7336 21.208 47.2048 21.0988 46.7939 20.8818C46.3879 20.6649 46.0696 20.4109 45.8389 20.1201C45.6081 19.8293 45.4303 19.5709 45.3057 19.3447H45.1328V21H43.1104V6.81836H45.1807V12.0879ZM47.916 11.9844C47.3159 11.9844 46.8081 12.1389 46.3926 12.4482C45.9818 12.7575 45.6703 13.1893 45.458 13.7432C45.2457 14.2971 45.1397 14.9431 45.1396 15.6816C45.1396 16.4295 45.2479 17.0852 45.4648 17.6484C45.6818 18.2115 45.9955 18.6522 46.4062 18.9707C46.8171 19.2846 47.3205 19.4424 47.916 19.4424C48.5345 19.4424 49.0513 19.2779 49.4668 18.9502C49.8823 18.6178 50.1968 18.1674 50.4092 17.5996C50.6261 17.0319 50.7344 16.3924 50.7344 15.6816C50.7344 14.98 50.6284 14.3496 50.416 13.791C50.2083 13.2327 49.8945 12.7918 49.4746 12.4688C49.0591 12.1456 48.5392 11.9844 47.916 11.9844Z" fill="black"/>
<path d="M6.37793 6.62402C7.13016 6.62405 7.83169 6.73236 8.48242 6.94922C9.13796 7.16158 9.72736 7.47612 10.249 7.8916C10.7704 8.30237 11.2024 8.8051 11.5439 9.40039C11.8856 9.99129 12.1163 10.668 12.2363 11.4297H10.0752C9.99209 10.9681 9.83751 10.5618 9.61133 10.2109C9.38514 9.86015 9.108 9.56202 8.78027 9.31738C8.45263 9.07286 8.08574 8.88827 7.67969 8.76367C7.27805 8.63903 6.85085 8.57715 6.39844 8.57715C5.58132 8.57715 4.84943 8.78249 4.20312 9.19336C3.56163 9.60417 3.05356 10.2062 2.67969 11C2.31037 11.794 2.12598 12.7643 2.12598 13.9092C2.12601 15.0631 2.31043 16.0371 2.67969 16.8311C3.05362 17.6251 3.56367 18.2256 4.20996 18.6318C4.85627 19.0381 5.58372 19.2412 6.3916 19.2412C6.83937 19.2412 7.26441 19.1806 7.66602 19.0605C8.0721 18.9359 8.43894 18.7536 8.7666 18.5137C9.09427 18.2737 9.37149 17.9809 9.59766 17.6348C9.82843 17.284 9.98747 16.882 10.0752 16.4297L12.2363 16.4365C12.1209 17.1335 11.8968 17.7751 11.5645 18.3613C11.2367 18.943 10.8139 19.4464 10.2969 19.8711C9.78448 20.2911 9.19818 20.6169 8.53809 20.8477C7.87805 21.0784 7.15795 21.1933 6.37793 21.1934C5.15009 21.1934 4.05585 20.9028 3.0957 20.3213C2.13554 19.735 1.37819 18.897 0.824219 17.8076C0.274901 16.7182 4.29742e-05 15.4186 0 13.9092C0 12.395 0.277077 11.0946 0.831055 10.0098C1.38501 8.92047 2.14243 8.08551 3.10254 7.50391C4.06277 6.91761 5.15456 6.62402 6.37793 6.62402Z" fill="black"/>
<path fill-rule="evenodd" clip-rule="evenodd" d="M157.661 6.62402C158.884 6.62404 159.976 6.91763 160.937 7.50391C161.901 8.08553 162.661 8.92051 163.215 10.0098C163.769 11.0946 164.046 12.395 164.046 13.9092C164.046 15.4232 163.769 16.7251 163.215 17.8145C162.661 18.8993 161.901 19.735 160.937 20.3213C159.976 20.9029 158.884 21.1933 157.661 21.1934C156.433 21.1934 155.337 20.9029 154.372 20.3213C153.412 19.735 152.655 18.897 152.101 17.8076C151.547 16.7182 151.27 15.4186 151.27 13.9092C151.27 12.395 151.547 11.0946 152.101 10.0098C152.655 8.92047 153.412 8.08551 154.372 7.50391C155.337 6.91761 156.433 6.62402 157.661 6.62402ZM157.661 8.57715C156.844 8.57715 156.114 8.78249 155.473 9.19336C154.831 9.59957 154.323 10.1993 153.949 10.9932C153.58 11.7826 153.396 12.7551 153.396 13.9092C153.396 15.0631 153.58 16.0371 153.949 16.8311C154.323 17.6205 154.831 18.221 155.473 18.6318C156.114 19.0381 156.844 19.2412 157.661 19.2412C158.474 19.2412 159.201 19.0381 159.843 18.6318C160.489 18.221 160.997 17.6204 161.366 16.8311C161.74 16.0371 161.927 15.0631 161.927 13.9092C161.927 12.7551 161.74 11.7826 161.366 10.9932C160.997 10.1994 160.489 9.59958 159.843 9.19336C159.201 8.78251 158.474 8.57716 157.661 8.57715Z" fill="black"/>
<path d="M84.7754 10.3633H86.9561V12.0254H84.7754V17.877C84.7754 18.2786 84.835 18.5811 84.9551 18.7842C85.0751 18.9826 85.2298 19.1185 85.4189 19.1924C85.6127 19.2616 85.8228 19.2968 86.0488 19.2969C86.215 19.2969 86.3607 19.2848 86.4854 19.2617C86.61 19.2386 86.7071 19.2209 86.7764 19.207L87.1504 20.917C87.0304 20.9632 86.8593 21.0095 86.6377 21.0557C86.4161 21.1064 86.139 21.1341 85.8066 21.1387C85.262 21.1479 84.754 21.0508 84.2832 20.8477C83.8124 20.6445 83.4314 20.3309 83.1406 19.9062C82.8498 19.4816 82.7041 18.9482 82.7041 18.3066V12.0254H81.1465V10.3633H82.7041V7.81543H84.7754V10.3633Z" fill="black"/>
<path d="M26.75 21H24.6797V6.81836H26.75V21Z" fill="black"/>
<path d="M30.7568 21H28.6865V6.81836H30.7568V21Z" fill="black"/>
<path d="M70.4697 10.2178C70.6498 10.227 70.791 10.2391 70.8926 10.2529V12.2334C70.8095 12.2103 70.6615 12.1849 70.4492 12.1572C70.237 12.1249 70.0247 12.1084 69.8125 12.1084C69.3232 12.1084 68.8861 12.2122 68.5029 12.4199C68.1246 12.623 67.825 12.907 67.6035 13.2715C67.382 13.6315 67.2706 14.0424 67.2705 14.5039V21H65.2002V10.3633H67.2012V12.0527H67.3125C67.5064 11.4806 67.8478 11.0308 68.3369 10.7031C68.8308 10.3708 69.3895 10.2041 70.0127 10.2041C70.1419 10.2041 70.2944 10.2085 70.4697 10.2178Z" fill="black"/>
<path d="M90.4668 21H88.3955V10.3633H90.4668V21Z" fill="black"/>
<path d="M108.558 10.2256C109.282 10.2256 109.917 10.3779 110.462 10.6826C111.007 10.9827 111.429 11.4308 111.729 12.0264C112.029 12.6218 112.18 13.3584 112.18 14.2354V21H110.108V14.4844C110.108 13.7134 109.907 13.1107 109.506 12.6768C109.104 12.2385 108.553 12.0196 107.852 12.0195C107.371 12.0195 106.944 12.1233 106.57 12.3311C106.201 12.5388 105.907 12.8435 105.69 13.2451C105.478 13.6421 105.372 14.1225 105.372 14.6855V21H103.302V10.3643H105.289V12.0957H105.421C105.666 11.5325 106.049 11.0799 106.57 10.7383C107.097 10.3967 107.759 10.2256 108.558 10.2256Z" fill="black"/>
<path fill-rule="evenodd" clip-rule="evenodd" d="M130.188 21H127.917L126.621 17.2471H121.08L119.781 21H117.51L122.613 6.81836H125.085L130.188 21ZM121.703 15.4463H125.999L123.908 9.39453H123.797L121.703 15.4463Z" fill="black"/>
<path d="M133.526 21H131.387V6.81836H133.526V21Z" fill="black"/>
<path fill-rule="evenodd" clip-rule="evenodd" d="M145.158 6.81836C146.261 6.81836 147.176 7.01935 147.9 7.4209C148.625 7.82253 149.168 8.37225 149.528 9.06934C149.888 9.76162 150.068 10.5416 150.068 11.4092C150.068 12.2816 149.886 13.0667 149.521 13.7637C149.161 14.4561 148.616 15.0059 147.887 15.4121C147.162 15.8137 146.25 16.0146 145.151 16.0146H142.243V21H140.104V6.81836H145.158ZM142.243 14.2002H144.958C145.655 14.2002 146.22 14.0799 146.654 13.8398C147.088 13.5952 147.407 13.2628 147.61 12.8428C147.813 12.4227 147.915 11.9446 147.915 11.4092C147.915 10.874 147.813 10.3987 147.61 9.9834C147.407 9.56797 147.086 9.24227 146.647 9.00684C146.214 8.7714 145.641 8.65332 144.93 8.65332H142.243V14.2002Z" fill="black"/>
<path fill-rule="evenodd" clip-rule="evenodd" d="M170.6 6.81836C171.989 6.81836 173.183 7.10211 174.18 7.66992C175.177 8.23313 175.941 9.04341 176.472 10.1006C177.007 11.1531 177.275 12.416 177.275 13.8887C177.275 15.3658 177.005 16.6356 176.465 17.6973C175.929 18.7588 175.154 19.5761 174.139 20.1484C173.123 20.7163 171.894 21 170.454 21H165.863V6.81836H170.6ZM168.003 19.1299H170.337C171.417 19.1298 172.315 18.9267 173.03 18.5205C173.746 18.1096 174.281 17.5167 174.637 16.7412C174.992 15.9611 175.17 15.0103 175.17 13.8887C175.17 12.7761 174.992 11.8312 174.637 11.0557C174.286 10.2803 173.761 9.69161 173.064 9.29004C172.367 8.88856 171.502 8.6875 170.468 8.6875H168.003V19.1299Z" fill="black"/>
<path d="M89.4414 6.25C89.8015 6.25 90.1084 6.37255 90.3623 6.61719C90.6208 6.85718 90.7499 7.14775 90.75 7.48926C90.75 7.82626 90.6208 8.11763 90.3623 8.3623C90.1085 8.60219 89.8014 8.72168 89.4414 8.72168C89.0815 8.72164 88.7721 8.60224 88.5137 8.3623C88.2598 8.11763 88.1328 7.82626 88.1328 7.48926C88.1329 7.14779 88.2599 6.85717 88.5137 6.61719C88.7722 6.37255 89.0814 6.25004 89.4414 6.25Z" fill="black"/>
</svg>
