<svg width="231" height="28" viewBox="0 0 231 28" fill="none" xmlns="http://www.w3.org/2000/svg">
<path fill-rule="evenodd" clip-rule="evenodd" d="M38.4688 10.501C38.8015 10.501 39.1836 10.5421 39.6152 10.623C40.0514 10.6995 40.4723 10.8588 40.877 11.1016C41.2863 11.3445 41.6266 11.7119 41.8965 12.2021C42.1662 12.6924 42.3008 13.349 42.3008 14.1719V21H40.709V19.5967H40.6279C40.52 19.8216 40.3398 20.062 40.0879 20.3184C39.8361 20.5747 39.5011 20.7928 39.083 20.9727C38.6647 21.1526 38.1535 21.2432 37.5508 21.2432C36.8942 21.2431 36.2979 21.1194 35.7627 20.8721C35.2275 20.6202 34.8031 20.2574 34.4883 19.7852C34.1735 19.3084 34.0157 18.7331 34.0156 18.0586C34.0156 17.4649 34.1323 16.9831 34.3662 16.6143C34.6001 16.2409 34.9134 15.9487 35.3047 15.7373C35.6959 15.526 36.1274 15.3681 36.5996 15.2646C37.0764 15.1567 37.5558 15.0718 38.0371 15.0088C38.6667 14.9278 39.1771 14.8666 39.5684 14.8262C39.964 14.7812 40.2517 14.7069 40.4316 14.6035C40.6161 14.5001 40.709 14.3199 40.709 14.0635V14.0098C40.709 13.3441 40.5264 12.8268 40.1621 12.458C39.8023 12.0892 39.2556 11.9053 38.5225 11.9053C37.7624 11.9053 37.1662 12.0715 36.7344 12.4043C36.3029 12.7369 35.9996 13.0922 35.8242 13.4697L34.3125 12.9307C34.5823 12.3011 34.942 11.8108 35.3916 11.46C35.8458 11.1047 36.3409 10.8572 36.876 10.7178C37.4157 10.5738 37.947 10.501 38.4688 10.501ZM40.709 15.791C40.6415 15.8719 40.4929 15.9462 40.2637 16.0137C40.0388 16.0766 39.7773 16.1331 39.4805 16.1826C39.1883 16.2276 38.9028 16.2677 38.624 16.3037C38.3497 16.3352 38.127 16.3623 37.9561 16.3848C37.5422 16.4387 37.1548 16.527 36.7949 16.6484C36.4399 16.7654 36.1519 16.9425 35.9316 17.1807C35.7157 17.4146 35.6074 17.7348 35.6074 18.1396C35.6075 18.6927 35.8125 19.1112 36.2217 19.3945C36.6355 19.6734 37.1597 19.8125 37.7939 19.8125C38.4237 19.8125 38.9549 19.6888 39.3867 19.4414C39.8228 19.1941 40.1507 18.8746 40.3711 18.4834C40.5959 18.0922 40.7089 17.6807 40.709 17.249V15.791Z" fill="white"/>
<path fill-rule="evenodd" clip-rule="evenodd" d="M79.3818 10.501C79.7146 10.501 80.0967 10.5421 80.5283 10.623C80.9645 10.6995 81.3854 10.8588 81.79 11.1016C82.1994 11.3445 82.5397 11.7119 82.8096 12.2021C83.0793 12.6924 83.2139 13.349 83.2139 14.1719V21H81.6221V19.5967H81.541C81.4331 19.8216 81.2528 20.062 81.001 20.3184C80.7492 20.5747 80.4142 20.7928 79.9961 20.9727C79.5778 21.1526 79.0666 21.2432 78.4639 21.2432C77.8073 21.2431 77.211 21.1194 76.6758 20.8721C76.1406 20.6202 75.7162 20.2574 75.4014 19.7852C75.0866 19.3084 74.9288 18.7331 74.9287 18.0586C74.9287 17.4649 75.0454 16.9831 75.2793 16.6143C75.5132 16.2409 75.8264 15.9487 76.2178 15.7373C76.609 15.526 77.0405 15.3681 77.5127 15.2646C77.9895 15.1567 78.4689 15.0718 78.9502 15.0088C79.5798 14.9278 80.0902 14.8666 80.4814 14.8262C80.8771 14.7812 81.1648 14.7069 81.3447 14.6035C81.5292 14.5001 81.6221 14.3199 81.6221 14.0635V14.0098C81.622 13.3441 81.4395 12.8268 81.0752 12.458C80.7153 12.0892 80.1687 11.9053 79.4355 11.9053C78.6755 11.9053 78.0792 12.0715 77.6475 12.4043C77.216 12.7369 76.9127 13.0922 76.7373 13.4697L75.2256 12.9307C75.4954 12.3011 75.8551 11.8108 76.3047 11.46C76.7589 11.1047 77.254 10.8572 77.7891 10.7178C78.3288 10.5738 78.8601 10.501 79.3818 10.501ZM81.6221 15.791C81.5546 15.8719 81.406 15.9462 81.1768 16.0137C80.9519 16.0766 80.6904 16.1331 80.3936 16.1826C80.1013 16.2276 79.8158 16.2677 79.5371 16.3037C79.2628 16.3352 79.04 16.3623 78.8691 16.3848C78.4553 16.4387 78.0679 16.527 77.708 16.6484C77.353 16.7654 77.065 16.9425 76.8447 17.1807C76.6288 17.4146 76.5205 17.7348 76.5205 18.1396C76.5206 18.6927 76.7255 19.1112 77.1348 19.3945C77.5486 19.6734 78.0728 19.8125 78.707 19.8125C79.3368 19.8125 79.868 19.6888 80.2998 19.4414C80.7359 19.1941 81.0638 18.8746 81.2842 18.4834C81.509 18.0922 81.622 17.6807 81.6221 17.249V15.791Z" fill="white"/>
<path fill-rule="evenodd" clip-rule="evenodd" d="M18.3574 10.501C19.2929 10.501 20.1119 10.7237 20.8135 11.1689C21.5195 11.6142 22.0677 12.2399 22.459 13.0449C22.8548 13.8501 23.0527 14.7926 23.0527 15.8721C23.0527 16.9426 22.8548 17.8781 22.459 18.6787C22.0677 19.4792 21.5195 20.1026 20.8135 20.5479C20.1119 20.9931 19.2929 21.2158 18.3574 21.2158C17.4219 21.2158 16.6007 20.9931 15.8945 20.5479C15.1928 20.1025 14.6439 19.4794 14.248 18.6787C13.8568 17.8781 13.6611 16.9425 13.6611 15.8721C13.6611 14.7926 13.8567 13.8501 14.248 13.0449C14.6439 12.2398 15.1929 11.6142 15.8945 11.1689C16.6007 10.7238 17.422 10.501 18.3574 10.501ZM18.3574 11.9316C17.6467 11.9316 17.0613 12.1165 16.6025 12.4854C16.1439 12.8541 15.8043 13.3375 15.584 13.9355C15.3636 14.5338 15.2529 15.1794 15.2529 15.8721C15.2529 16.5647 15.3636 17.208 15.584 17.8018C15.8044 18.3955 16.1437 18.8749 16.6025 19.2393C17.0613 19.6036 17.6467 19.7852 18.3574 19.7852C19.0679 19.7851 19.6526 19.6035 20.1113 19.2393C20.5701 18.8749 20.9095 18.3955 21.1299 17.8018C21.3503 17.208 21.4609 16.5648 21.4609 15.8721C21.4609 15.1794 21.3503 14.5338 21.1299 13.9355C20.9095 13.3375 20.57 12.8541 20.1113 12.4854C19.6526 12.1166 19.068 11.9317 18.3574 11.9316Z" fill="white"/>
<path fill-rule="evenodd" clip-rule="evenodd" d="M47.0156 12.2822H47.1504C47.2673 12.1023 47.4299 11.8735 47.6367 11.5947C47.8481 11.3114 48.1489 11.0592 48.54 10.8389C48.9359 10.614 49.4718 10.501 50.1465 10.501C51.019 10.501 51.7884 10.72 52.4541 11.1562C53.1197 11.5926 53.6394 12.2112 54.0127 13.0117C54.3859 13.8122 54.5722 14.7566 54.5723 15.8447C54.5723 16.9422 54.386 17.8941 54.0127 18.6992C53.6394 19.4998 53.1221 20.1207 52.4609 20.5615C51.7997 20.9978 51.0365 21.2158 50.1729 21.2158C49.5074 21.2158 48.9744 21.106 48.5742 20.8857C48.1739 20.6608 47.8653 20.4064 47.6494 20.123C47.4335 19.8352 47.2673 19.5961 47.1504 19.4072H46.9619V21H45.4229V7.18164H47.0156V12.2822ZM49.957 11.9316C49.3095 11.9317 48.765 12.0965 48.3242 12.4248C47.8837 12.7486 47.551 13.2027 47.3262 13.7871C47.1013 14.3674 46.9883 15.0447 46.9883 15.8184C46.9883 16.601 47.1036 17.2914 47.333 17.8896C47.5624 18.4832 47.8972 18.9488 48.3379 19.2861C48.7786 19.6189 49.3185 19.7851 49.957 19.7852C50.6227 19.7852 51.1787 19.6096 51.624 19.2588C52.0736 18.9035 52.4109 18.4271 52.6357 17.8291C52.8651 17.2264 52.9804 16.556 52.9805 15.8184C52.9805 15.0897 52.8675 14.4324 52.6426 13.8477C52.4222 13.2586 52.0874 12.793 51.6377 12.4512C51.1924 12.1048 50.6317 11.9316 49.957 11.9316Z" fill="white"/>
<path fill-rule="evenodd" clip-rule="evenodd" d="M61.2188 10.501C62.1542 10.501 62.9732 10.7237 63.6748 11.1689C64.3809 11.6142 64.929 12.2399 65.3203 13.0449C65.7161 13.8501 65.9141 14.7926 65.9141 15.8721C65.9141 16.9426 65.7161 17.8781 65.3203 18.6787C64.929 19.4792 64.3808 20.1026 63.6748 20.5479C62.9732 20.9931 62.1542 21.2158 61.2188 21.2158C60.2832 21.2158 59.462 20.9931 58.7559 20.5479C58.0542 20.1025 57.5052 19.4794 57.1094 18.6787C56.7181 17.8781 56.5225 16.9425 56.5225 15.8721C56.5225 14.7926 56.7181 13.8501 57.1094 13.0449C57.5052 12.2398 58.0542 11.6142 58.7559 11.1689C59.462 10.7238 60.2833 10.501 61.2188 10.501ZM61.2188 11.9316C60.508 11.9316 59.9227 12.1165 59.4639 12.4854C59.0052 12.8541 58.6657 13.3375 58.4453 13.9355C58.2249 14.5338 58.1143 15.1794 58.1143 15.8721C58.1143 16.5647 58.2249 17.208 58.4453 17.8018C58.6657 18.3955 59.0051 18.8749 59.4639 19.2393C59.9227 19.6036 60.508 19.7852 61.2188 19.7852C61.9292 19.7851 62.5139 19.6035 62.9727 19.2393C63.4315 18.8749 63.7708 18.3955 63.9912 17.8018C64.2116 17.208 64.3223 16.5648 64.3223 15.8721C64.3223 15.1794 64.2116 14.5338 63.9912 13.9355C63.7708 13.3375 63.4313 12.8541 62.9727 12.4854C62.5139 12.1166 61.9293 11.9317 61.2188 11.9316Z" fill="white"/>
<path fill-rule="evenodd" clip-rule="evenodd" d="M101.742 10.501C102.678 10.501 103.497 10.7237 104.198 11.1689C104.904 11.6142 105.452 12.2399 105.844 13.0449C106.24 13.8501 106.437 14.7926 106.438 15.8721C106.438 16.9426 106.24 17.8781 105.844 18.6787C105.452 19.4792 104.904 20.1026 104.198 20.5479C103.497 20.9931 102.678 21.2158 101.742 21.2158C100.807 21.2158 99.9855 20.9931 99.2793 20.5479C98.5776 20.1025 98.0286 19.4794 97.6328 18.6787C97.2415 17.8781 97.0459 16.9425 97.0459 15.8721C97.0459 14.7926 97.2415 13.8501 97.6328 13.0449C98.0286 12.2398 98.5776 11.6142 99.2793 11.1689C99.9854 10.7238 100.807 10.501 101.742 10.501ZM101.742 11.9316C101.031 11.9316 100.446 12.1165 99.9873 12.4854C99.5287 12.8541 99.1891 13.3375 98.9688 13.9355C98.7484 14.5338 98.6377 15.1794 98.6377 15.8721C98.6377 16.5647 98.7484 17.208 98.9688 17.8018C99.1892 18.3955 99.5285 18.8749 99.9873 19.2393C100.446 19.6036 101.031 19.7852 101.742 19.7852C102.453 19.7851 103.037 19.6035 103.496 19.2393C103.955 18.8749 104.294 18.3955 104.515 17.8018C104.735 17.208 104.846 16.5648 104.846 15.8721C104.846 15.1794 104.735 14.5338 104.515 13.9355C104.294 13.3375 103.955 12.8541 103.496 12.4854C103.037 12.1166 102.453 11.9317 101.742 11.9316Z" fill="white"/>
<path fill-rule="evenodd" clip-rule="evenodd" d="M143.36 10.501C144.296 10.501 145.115 10.7237 145.816 11.1689C146.522 11.6142 147.071 12.2399 147.462 13.0449C147.858 13.8501 148.056 14.7926 148.056 15.8721C148.056 16.9426 147.858 17.8781 147.462 18.6787C147.071 19.4792 146.522 20.1026 145.816 20.5479C145.115 20.9931 144.296 21.2158 143.36 21.2158C142.425 21.2158 141.604 20.9931 140.897 20.5479C140.196 20.1025 139.647 19.4794 139.251 18.6787C138.86 17.8781 138.664 16.9425 138.664 15.8721C138.664 14.7926 138.86 13.8501 139.251 13.0449C139.647 12.2398 140.196 11.6142 140.897 11.1689C141.604 10.7238 142.425 10.501 143.36 10.501ZM143.36 11.9316C142.65 11.9316 142.064 12.1165 141.605 12.4854C141.147 12.8541 140.807 13.3375 140.587 13.9355C140.367 14.5338 140.256 15.1794 140.256 15.8721C140.256 16.5647 140.367 17.208 140.587 17.8018C140.807 18.3955 141.147 18.8749 141.605 19.2393C142.064 19.6036 142.65 19.7852 143.36 19.7852C144.071 19.7851 144.656 19.6035 145.114 19.2393C145.573 18.8749 145.912 18.3955 146.133 17.8018C146.353 17.208 146.464 16.5648 146.464 15.8721C146.464 15.1794 146.353 14.5338 146.133 13.9355C145.912 13.3375 145.573 12.8541 145.114 12.4854C144.656 12.1166 144.071 11.9317 143.36 11.9316Z" fill="white"/>
<path fill-rule="evenodd" clip-rule="evenodd" d="M179.468 10.501C180.403 10.501 181.222 10.7237 181.924 11.1689C182.63 11.6142 183.178 12.2399 183.569 13.0449C183.965 13.8501 184.163 14.7926 184.163 15.8721C184.163 16.9426 183.965 17.8781 183.569 18.6787C183.178 19.4792 182.63 20.1026 181.924 20.5479C181.222 20.9931 180.403 21.2158 179.468 21.2158C178.532 21.2158 177.711 20.9931 177.005 20.5479C176.303 20.1025 175.754 19.4794 175.358 18.6787C174.967 17.8781 174.771 16.9425 174.771 15.8721C174.771 14.7926 174.967 13.8501 175.358 13.0449C175.754 12.2398 176.303 11.6142 177.005 11.1689C177.711 10.7238 178.532 10.501 179.468 10.501ZM179.468 11.9316C178.757 11.9316 178.172 12.1165 177.713 12.4854C177.254 12.8541 176.915 13.3375 176.694 13.9355C176.474 14.5338 176.363 15.1794 176.363 15.8721C176.363 16.5647 176.474 17.208 176.694 17.8018C176.915 18.3955 177.254 18.8749 177.713 19.2393C178.172 19.6036 178.757 19.7852 179.468 19.7852C180.178 19.7851 180.763 19.6035 181.222 19.2393C181.68 18.8749 182.02 18.3955 182.24 17.8018C182.461 17.208 182.571 16.5648 182.571 15.8721C182.571 15.1794 182.461 14.5338 182.24 13.9355C182.02 13.3375 181.68 12.8541 181.222 12.4854C180.763 12.1166 180.178 11.9317 179.468 11.9316Z" fill="white"/>
<path fill-rule="evenodd" clip-rule="evenodd" d="M223.359 12.2822H223.494C223.611 12.1023 223.774 11.8735 223.98 11.5947C224.192 11.3114 224.493 11.0592 224.884 10.8389C225.28 10.614 225.816 10.501 226.49 10.501C227.363 10.501 228.132 10.72 228.798 11.1562C229.463 11.5926 229.983 12.2112 230.356 13.0117C230.73 13.8122 230.916 14.7565 230.916 15.8447C230.916 16.9422 230.73 17.8941 230.356 18.6992C229.983 19.4998 229.466 20.1207 228.805 20.5615C228.143 20.9978 227.38 21.2158 226.517 21.2158C225.851 21.2158 225.318 21.106 224.918 20.8857C224.518 20.6608 224.209 20.4064 223.993 20.123C223.777 19.8352 223.611 19.5961 223.494 19.4072H223.306V21H221.767V7.18164H223.359V12.2822ZM226.301 11.9316C225.653 11.9317 225.109 12.0965 224.668 12.4248C224.227 12.7486 223.895 13.2027 223.67 13.7871C223.445 14.3674 223.332 15.0447 223.332 15.8184C223.332 16.601 223.447 17.2914 223.677 17.8896C223.906 18.4832 224.241 18.9488 224.682 19.2861C225.122 19.6189 225.662 19.7851 226.301 19.7852C226.967 19.7852 227.522 19.6096 227.968 19.2588C228.417 18.9035 228.755 18.4271 228.979 17.8291C229.209 17.2264 229.324 16.556 229.324 15.8184C229.324 15.0897 229.211 14.4324 228.986 13.8477C228.766 13.2586 228.431 12.793 227.981 12.4512C227.536 12.1048 226.975 11.9316 226.301 11.9316Z" fill="white"/>
<path d="M6.09961 6.99316C6.79665 6.99321 7.45089 7.0945 8.0625 7.29688C8.67873 7.49929 9.23471 7.79617 9.72949 8.1875C10.2241 8.57428 10.6379 9.04687 10.9707 9.60449C11.3034 10.1577 11.5333 10.7895 11.6592 11.5H9.98535C9.88639 11.0187 9.71321 10.5958 9.46582 10.2314C9.22294 9.86716 8.926 9.56084 8.5752 9.31348C8.22899 9.06175 7.84448 8.87298 7.42188 8.74707C6.99919 8.62116 6.55826 8.55863 6.09961 8.55859C5.26296 8.55859 4.50441 8.76956 3.8252 9.19238C3.15052 9.6152 2.6132 10.2384 2.21289 11.0615C1.81708 11.8846 1.61915 12.8944 1.61914 14.0908C1.61914 15.2872 1.81712 16.297 2.21289 17.1201C2.61319 17.9432 3.15056 18.5664 3.8252 18.9893C4.50441 19.4121 5.26296 19.624 6.09961 19.624C6.55826 19.624 6.99919 19.5605 7.42188 19.4346C7.84447 19.3087 8.22899 19.1222 8.5752 18.875C8.92604 18.6231 9.22292 18.3145 9.46582 17.9502C9.71322 17.5814 9.88639 17.1584 9.98535 16.6816H11.6592C11.5332 17.3878 11.3036 18.0204 10.9707 18.5781C10.638 19.1356 10.224 19.6098 9.72949 20.001C9.2347 20.3878 8.67874 20.6833 8.0625 20.8857C7.45095 21.0881 6.79657 21.1884 6.09961 21.1885C4.92112 21.1885 3.87269 20.9009 2.95508 20.3252C2.03746 19.7494 1.31534 18.9307 0.789062 17.8691C0.262843 16.8076 0 15.5481 0 14.0908C1.07045e-05 12.6335 0.262806 11.374 0.789062 10.3125C1.31534 9.25095 2.03746 8.4322 2.95508 7.85645C3.87267 7.28073 4.92115 6.99316 6.09961 6.99316Z" fill="white"/>
<path d="M131.103 6.99316C131.8 6.99321 132.454 7.0945 133.065 7.29688C133.682 7.49929 134.238 7.79617 134.732 8.1875C135.227 8.57428 135.641 9.04687 135.974 9.60449C136.306 10.1577 136.536 10.7895 136.662 11.5H134.988C134.889 11.0187 134.716 10.5958 134.469 10.2314C134.226 9.86716 133.929 9.56084 133.578 9.31348C133.232 9.06175 132.847 8.87298 132.425 8.74707C132.002 8.62116 131.561 8.55863 131.103 8.55859C130.266 8.55859 129.507 8.76956 128.828 9.19238C128.153 9.6152 127.616 10.2384 127.216 11.0615C126.82 11.8846 126.622 12.8944 126.622 14.0908C126.622 15.2872 126.82 16.297 127.216 17.1201C127.616 17.9432 128.153 18.5664 128.828 18.9893C129.507 19.4121 130.266 19.624 131.103 19.624C131.561 19.624 132.002 19.5605 132.425 19.4346C132.847 19.3087 133.232 19.1222 133.578 18.875C133.929 18.6231 134.226 18.3145 134.469 17.9502C134.716 17.5814 134.889 17.1584 134.988 16.6816H136.662C136.536 17.3878 136.306 18.0204 135.974 18.5781C135.641 19.1356 135.227 19.6098 134.732 20.001C134.238 20.3878 133.682 20.6833 133.065 20.8857C132.454 21.0881 131.799 21.1884 131.103 21.1885C129.924 21.1885 128.876 20.9009 127.958 20.3252C127.04 19.7494 126.318 18.9307 125.792 17.8691C125.266 16.8076 125.003 15.5481 125.003 14.0908C125.003 12.6335 125.266 11.374 125.792 10.3125C126.318 9.25095 127.04 8.4322 127.958 7.85645C128.876 7.28073 129.924 6.99316 131.103 6.99316Z" fill="white"/>
<path d="M88.4141 10.6367H90.6279V11.9854H88.4141V18.0312C88.4141 18.4809 88.48 18.8181 88.6104 19.043C88.7453 19.2634 88.9162 19.4118 89.123 19.4883C89.3345 19.5603 89.5571 19.5967 89.791 19.5967C89.9664 19.5967 90.1102 19.5873 90.2227 19.5693C90.3349 19.5469 90.4248 19.5291 90.4922 19.5156L90.8164 20.9463C90.7085 20.9868 90.5576 21.0269 90.3643 21.0674C90.1709 21.1123 89.9257 21.1348 89.6289 21.1348C89.1791 21.1348 88.7384 21.0381 88.3066 20.8447C87.8793 20.6513 87.5236 20.3568 87.2402 19.9609C86.9614 19.5651 86.8223 19.0656 86.8223 18.4629V11.9854H85.2568V10.6367H86.8223V8.15332H88.4141V10.6367Z" fill="white"/>
<path d="M163.895 10.6367H166.108V11.9854H163.895V18.0312C163.895 18.4809 163.96 18.8181 164.091 19.043C164.226 19.2634 164.397 19.4118 164.604 19.4883C164.815 19.5603 165.038 19.5967 165.271 19.5967C165.447 19.5967 165.591 19.5873 165.703 19.5693C165.815 19.5469 165.905 19.5291 165.973 19.5156L166.297 20.9463C166.189 20.9868 166.038 21.0269 165.845 21.0674C165.651 21.1123 165.406 21.1348 165.109 21.1348C164.66 21.1348 164.219 21.0381 163.787 20.8447C163.36 20.6513 163.004 20.3568 162.721 19.9609C162.442 19.5651 162.303 19.0656 162.303 18.4629V11.9854H160.737V10.6367H162.303V8.15332H163.895V10.6367Z" fill="white"/>
<path d="M212.104 17.1133C212.104 17.8689 212.315 18.4721 212.737 18.9219C213.165 19.3716 213.709 19.5966 214.37 19.5967C214.766 19.5967 215.169 19.4954 215.578 19.293C215.992 19.0906 216.338 18.7805 216.617 18.3623C216.901 17.944 217.042 17.4104 217.042 16.7627V10.6367H218.635V21H217.042V19.2461H216.935C216.692 19.7723 216.313 20.2201 215.801 20.5889C215.288 20.9531 214.64 21.1348 213.857 21.1348C213.21 21.1347 212.634 20.9932 212.131 20.71C211.627 20.4221 211.231 19.9898 210.943 19.4141C210.656 18.8338 210.511 18.1032 210.511 17.2217V10.6367H212.104V17.1133Z" fill="white"/>
<path d="M27.0762 21H25.4834V7.18164H27.0762V21Z" fill="white"/>
<path d="M31.585 21H29.9922V7.18164H31.585V21Z" fill="white"/>
<path d="M73.1289 10.4814C73.3043 10.4859 73.4374 10.492 73.5273 10.501V12.1211C73.4734 12.1076 73.3495 12.0865 73.1562 12.0596C72.9674 12.0281 72.7669 12.0127 72.5557 12.0127C72.0519 12.0127 71.6019 12.1187 71.2061 12.3301C70.8147 12.537 70.5038 12.8245 70.2744 13.1934C70.0496 13.5576 69.9376 13.9738 69.9375 14.4414V21H68.3447V10.6367H69.8838V12.2021H69.9912C70.1801 11.6894 70.5219 11.2725 71.0166 10.9531C71.5114 10.6338 72.0697 10.4746 72.6904 10.4746C72.8074 10.4746 72.9536 10.4769 73.1289 10.4814Z" fill="white"/>
<path d="M94.6152 21H93.0225V10.6367H94.6152V21Z" fill="white"/>
<path d="M113.564 10.501C114.266 10.501 114.88 10.6457 115.406 10.9336C115.933 11.217 116.342 11.6483 116.635 12.2285C116.927 12.8043 117.073 13.5334 117.073 14.415V21H115.48V14.5225C115.48 13.7085 115.269 13.0744 114.847 12.6201C114.424 12.1613 113.843 11.9316 113.105 11.9316C112.597 11.9317 112.143 12.0424 111.743 12.2627C111.347 12.4831 111.034 12.8047 110.805 13.2275C110.575 13.6503 110.461 14.163 110.461 14.7656V21H108.868V10.6367H110.407V12.2559H110.542C110.785 11.7296 111.154 11.3067 111.648 10.9873C112.143 10.6635 112.782 10.501 113.564 10.501Z" fill="white"/>
<path d="M155.183 10.501C155.884 10.501 156.498 10.6457 157.024 10.9336C157.551 11.217 157.961 11.6483 158.253 12.2285C158.545 12.8043 158.691 13.5334 158.691 14.415V21H157.099V14.5225C157.099 13.7085 156.888 13.0744 156.465 12.6201C156.042 12.1613 155.461 11.9316 154.724 11.9316C154.216 11.9317 153.762 12.0424 153.361 12.2627C152.965 12.4831 152.652 12.8047 152.423 13.2275C152.194 13.6503 152.079 14.163 152.079 14.7656V21H150.486V10.6367H152.025V12.2559H152.16C152.403 11.7296 152.772 11.3067 153.267 10.9873C153.761 10.6635 154.4 10.501 155.183 10.501Z" fill="white"/>
<path d="M173.287 10.4814C173.462 10.4859 173.596 10.492 173.686 10.501V12.1211C173.632 12.1076 173.508 12.0865 173.314 12.0596C173.126 12.0281 172.925 12.0127 172.714 12.0127C172.21 12.0127 171.76 12.1187 171.364 12.3301C170.973 12.537 170.662 12.8245 170.433 13.1934C170.208 13.5576 170.096 13.9738 170.096 14.4414V21H168.503V10.6367H170.042V12.2021H170.149C170.338 11.6894 170.68 11.2725 171.175 10.9531C171.67 10.6338 172.228 10.4746 172.849 10.4746C172.966 10.4746 173.112 10.4769 173.287 10.4814Z" fill="white"/>
<path d="M188.187 21H186.594V7.18164H188.187V21Z" fill="white"/>
<path d="M198.336 13.335H205.704V7.18164H207.377V21H205.704V14.8193H198.336V21H196.662V7.18164H198.336V13.335Z" fill="white"/>
<path d="M93.832 6.75C94.1424 6.75 94.4085 6.85597 94.6289 7.06738C94.8535 7.27864 94.9657 7.53254 94.9658 7.8291C94.9658 8.12588 94.8537 8.38043 94.6289 8.5918C94.4085 8.80321 94.1424 8.90918 93.832 8.90918C93.5219 8.90908 93.2541 8.80311 93.0293 8.5918C92.809 8.38043 92.6992 8.12587 92.6992 7.8291C92.6993 7.53254 92.8092 7.27864 93.0293 7.06738C93.2541 6.85607 93.5219 6.7501 93.832 6.75Z" fill="white"/>
</svg>
