<svg width="241" height="277" viewBox="0 0 241 277" fill="none" xmlns="http://www.w3.org/2000/svg">
<path d="M149.995 50.8307C149.995 22.7689 127.142 0 99.0988 0H48.3019V48.4339C21.4564 49.7322 0 72.0018 0 99.1648C0 127.226 22.7538 149.995 50.7969 149.995H101.594V101.561C128.539 100.363 149.995 78.0935 149.995 50.8307ZM96.6039 96.6682H94.7077H53.2918V53.3273H96.6039V96.6682ZM48.3019 53.4271V96.768H5.08967C6.28723 73.3999 25.0491 54.6255 48.3019 53.4271ZM50.7969 145.102C26.3465 145.102 6.38703 125.828 4.98987 101.761H48.3019H94.7077H96.6039V145.102H50.7969ZM101.594 96.6682V48.3341H53.2918V4.99319H99.0988C124.348 4.99319 144.906 25.5651 144.906 50.8307C145.006 75.2973 125.745 95.3699 101.594 96.6682Z" fill="black"/>
<path d="M212.201 211.349H218.495C217.608 214.536 215.852 217.038 213.23 218.854C210.768 220.508 207.823 221.335 204.393 221.335C199.43 221.335 195.556 219.761 192.772 216.614C190.23 213.669 188.959 209.694 188.959 204.691C188.959 199.002 190.573 194.684 193.801 191.739C196.464 189.277 199.894 188.047 204.09 188.047C209.013 188.047 212.725 189.64 215.227 192.828C217.648 195.895 218.858 200.273 218.858 205.962H194.891C195.133 209.674 196.263 212.438 198.28 214.254C199.934 215.706 202.033 216.433 204.575 216.433C206.552 216.433 208.267 215.888 209.719 214.798C210.93 213.87 211.757 212.72 212.201 211.349ZM204.211 192.707C201.629 192.707 199.551 193.514 197.977 195.128C196.484 196.621 195.536 198.699 195.133 201.362H212.927C212.725 198.336 211.716 196.076 209.901 194.583C208.448 193.332 206.552 192.707 204.211 192.707Z" fill="black"/>
<path d="M181.083 188.954H187.135L176.059 220.427H168.191L157.236 188.954H163.591L172.307 215.706L181.083 188.954Z" fill="black"/>
<path d="M152.737 183.689H146.201V176.85H152.737V183.689ZM152.374 220.427H146.564V188.955H152.374V220.427Z" fill="black"/>
<path d="M141.1 215.767V220.73C139.608 221.133 138.175 221.335 136.803 221.335C133.898 221.335 131.719 220.427 130.267 218.611C129.016 217.119 128.39 215.121 128.39 212.62V193.917H123.73V188.954H128.39L128.753 181.389H134.201V188.954H140.979V193.917H134.201V212.741C134.201 215.081 135.31 216.251 137.53 216.251C138.579 216.251 139.769 216.09 141.1 215.767Z" fill="black"/>
<path d="M98.7452 197.731H92.5717C92.8945 194.583 94.3874 192.142 97.0505 190.407C99.4311 188.833 102.437 188.047 106.069 188.047C110.386 188.047 113.695 189.176 115.995 191.436C117.931 193.373 118.9 195.874 118.9 198.941V220.427H114.118L113.392 216.13C110.931 219.6 107.42 221.335 102.861 221.335C99.2697 221.335 96.4654 220.367 94.4479 218.43C92.7936 216.816 91.9664 214.778 91.9664 212.317C91.9664 209.21 93.0357 206.809 95.1742 205.115C97.0707 203.622 99.9758 202.532 103.89 201.846L113.089 200.273V198.699C113.089 196.641 112.383 195.088 110.971 194.039C109.72 193.111 108.005 192.646 105.827 192.646C101.549 192.646 99.189 194.341 98.7452 197.731ZM104.253 216.433C106.714 216.433 108.853 215.626 110.668 214.012C112.282 212.519 113.089 210.804 113.089 208.867V204.812L105.282 206.204C102.417 206.688 100.46 207.435 99.4109 208.443C98.5636 209.25 98.1399 210.34 98.1399 211.712C98.1399 213.245 98.6645 214.415 99.7136 215.222C100.763 216.029 102.276 216.433 104.253 216.433Z" fill="black"/>
<path d="M80.158 211.349H86.4525C85.5648 214.536 83.8096 217.038 81.1869 218.854C78.7256 220.508 75.7801 221.335 72.3503 221.335C67.3873 221.335 63.5138 219.761 60.7296 216.614C58.1876 213.669 56.9166 209.694 56.9166 204.691C56.9166 199.002 58.5306 194.684 61.7585 191.739C64.4216 189.277 67.8513 188.047 72.0477 188.047C76.9704 188.047 80.6825 189.64 83.1842 192.828C85.6052 195.895 86.8157 200.273 86.8157 205.962H62.848C63.0901 209.674 64.2199 212.438 66.2374 214.254C67.8917 215.706 69.9899 216.433 72.5319 216.433C74.509 216.433 76.2239 215.888 77.6765 214.798C78.887 213.87 79.7141 212.72 80.158 211.349ZM72.1688 192.707C69.5864 192.707 67.5084 193.514 65.9347 195.128C64.4418 196.621 63.4936 198.699 63.0901 201.362H80.8843C80.6825 198.336 79.6738 196.076 77.8581 194.583C76.4055 193.332 74.509 192.707 72.1688 192.707Z" fill="black"/>
<path d="M43.5601 220.427H37.7497V188.955H42.5311L43.318 193.615C45.0933 189.903 47.7564 188.047 51.3072 188.047C52.4773 188.047 53.6273 188.188 54.7571 188.47V194.281C53.3852 193.918 52.1545 193.736 51.0651 193.736C48.7248 193.736 46.8889 194.684 45.5574 196.581C44.2258 198.477 43.5601 201.16 43.5601 204.63V220.427Z" fill="black"/>
<path d="M24.7544 210.32H31.1095C30.6253 213.709 29.0315 216.433 26.3281 218.49C23.8667 220.387 20.8607 221.335 17.3099 221.335C12.6697 221.335 8.97772 219.741 6.23394 216.554C3.69191 213.608 2.4209 209.735 2.4209 204.933C2.4209 199.365 3.95419 195.047 7.02076 191.981C9.64349 189.358 13.053 188.047 17.2494 188.047C21.123 188.047 24.3106 189.076 26.8123 191.133C29.0315 192.949 30.3832 195.33 30.8674 198.275H24.4518C24.0483 196.581 23.2212 195.269 21.9703 194.341C20.7598 193.413 19.2265 192.949 17.3705 192.949C14.5056 192.949 12.3066 194.079 10.7733 196.338C9.32069 198.437 8.5944 201.362 8.5944 205.115C8.5944 209.028 9.56279 211.994 11.4996 214.012C13.0329 215.626 15.01 216.433 17.431 216.433C19.5292 216.433 21.244 215.827 22.5756 214.617C23.7457 213.568 24.472 212.135 24.7544 210.32Z" fill="black"/>
<path d="M220.464 275.934H214.654V244.461H219.435L220.101 248.456C222.441 245.187 225.629 243.553 229.664 243.553C233.376 243.553 236.221 244.703 238.198 247.003C239.933 249.061 240.8 251.865 240.8 255.416V275.934H234.99V255.477C234.99 250.836 232.751 248.516 228.272 248.516C225.932 248.516 224.015 249.323 222.522 250.937C221.15 252.39 220.464 254.246 220.464 256.506V275.934Z" fill="black"/>
<path d="M176.961 260.198C176.961 254.428 178.676 250.07 182.105 247.124C184.849 244.744 188.319 243.553 192.516 243.553C197.398 243.553 201.231 245.107 204.015 248.214C206.678 251.119 208.01 255.113 208.01 260.198C208.01 265.887 206.335 270.224 202.986 273.21C200.243 275.631 196.732 276.842 192.455 276.842C187.573 276.842 183.719 275.228 180.895 272C178.272 269.054 176.961 265.12 176.961 260.198ZM183.013 260.198C183.013 264.233 184.042 267.319 186.1 269.458C187.795 271.233 189.953 272.121 192.576 272.121C195.643 272.121 198.003 270.971 199.657 268.671C201.191 266.573 201.957 263.748 201.957 260.198C201.957 256.082 200.949 252.975 198.931 250.877C197.277 249.142 195.138 248.274 192.516 248.274C189.489 248.274 187.129 249.424 185.434 251.724C183.82 253.822 183.013 256.647 183.013 260.198Z" fill="black"/>
<path d="M170.646 239.196H164.11V232.356H170.646V239.196ZM170.283 275.934H164.473V244.461H170.283V275.934Z" fill="black"/>
<path d="M159.01 271.274V276.237C157.517 276.64 156.084 276.842 154.712 276.842C151.807 276.842 149.628 275.934 148.176 274.118C146.925 272.625 146.299 270.628 146.299 268.126V249.424H141.639V244.461H146.299L146.663 236.896H152.11V244.461H158.889V249.424H152.11V268.247C152.11 270.588 153.219 271.758 155.439 271.758C156.488 271.758 157.678 271.596 159.01 271.274Z" fill="black"/>
<path d="M131.973 265.826H138.328C137.844 269.216 136.25 271.939 133.546 273.997C131.085 275.894 128.079 276.842 124.528 276.842C119.888 276.842 116.196 275.248 113.452 272.06C110.91 269.115 109.639 265.241 109.639 260.44C109.639 254.871 111.172 250.554 114.239 247.487C116.862 244.865 120.271 243.553 124.468 243.553C128.341 243.553 131.529 244.582 134.03 246.64C136.25 248.456 137.601 250.836 138.086 253.782H131.67C131.267 252.087 130.439 250.776 129.189 249.848C127.978 248.92 126.445 248.456 124.589 248.456C121.724 248.456 119.525 249.586 117.991 251.845C116.539 253.943 115.813 256.869 115.813 260.621C115.813 264.535 116.781 267.501 118.718 269.518C120.251 271.132 122.228 271.939 124.649 271.939C126.747 271.939 128.462 271.334 129.794 270.124C130.964 269.074 131.69 267.642 131.973 265.826Z" fill="black"/>
<path d="M97.8307 266.855H104.125C103.238 270.043 101.482 272.545 98.8596 274.36C96.3983 276.015 93.4527 276.842 90.023 276.842C85.06 276.842 81.1864 275.268 78.4023 272.121C75.8603 269.175 74.5893 265.201 74.5893 260.198C74.5893 254.508 76.2033 250.191 79.4312 247.245C82.0943 244.784 85.524 243.553 89.7204 243.553C94.6431 243.553 98.3552 245.147 100.857 248.335C103.278 251.401 104.488 255.779 104.488 261.469H80.5207C80.7628 265.181 81.8926 267.945 83.91 269.76C85.5644 271.213 87.6626 271.939 90.2046 271.939C92.1817 271.939 93.8966 271.395 95.3492 270.305C96.5597 269.377 97.3868 268.227 97.8307 266.855ZM89.8414 248.214C87.2591 248.214 85.1811 249.021 83.6074 250.635C82.1145 252.128 81.1663 254.206 80.7628 256.869H98.557C98.3552 253.842 97.3465 251.583 95.5307 250.09C94.0782 248.839 92.1817 248.214 89.8414 248.214Z" fill="black"/>
<path d="M61.2327 275.934H55.4224V244.461H60.2038L60.9906 249.122C62.766 245.409 65.4291 243.553 68.9799 243.553C70.15 243.553 71.3 243.695 72.4298 243.977V249.787C71.0579 249.424 69.8272 249.243 68.7378 249.243C66.3975 249.243 64.5616 250.191 63.2301 252.087C61.8985 253.984 61.2327 256.667 61.2327 260.137V275.934Z" fill="black"/>
<path d="M47.2922 239.196H40.7556V232.356H47.2922V239.196ZM46.9291 275.934H41.1187V244.461H46.9291V275.934Z" fill="black"/>
<path d="M32.6226 275.934H27.8412L26.8123 271.516C24.3913 275.066 20.901 276.842 16.3415 276.842C11.9434 276.842 8.47335 275.248 5.93132 272.06C3.59104 269.115 2.4209 265.221 2.4209 260.379C2.4209 254.528 3.91384 250.13 6.89971 247.185C9.40139 244.764 12.6697 243.553 16.7047 243.553C21.0624 243.553 24.4316 245.187 26.8123 248.456V232.356H32.6226V275.934ZM8.47335 260.5C8.47335 264.414 9.44174 267.38 11.3785 269.397C12.9925 271.052 15.0705 271.879 17.6125 271.879C20.7598 271.879 23.201 270.688 24.936 268.308C26.3886 266.25 27.1149 263.668 27.1149 260.561C27.1149 256.485 26.1465 253.378 24.2097 251.24C22.5554 249.424 20.3563 248.516 17.6125 248.516C14.546 248.516 12.2259 249.626 10.6522 251.845C9.19964 253.863 8.47335 256.748 8.47335 260.5Z" fill="black"/>
</svg>
