<svg width="241" height="278" viewBox="0 0 241 278" fill="none" xmlns="http://www.w3.org/2000/svg">
<path d="M149.995 50.9742C149.995 22.9125 127.142 0.143555 99.0988 0.143555H48.3019V48.5775C21.4564 49.8757 0 72.1454 0 99.3083C0 127.37 22.7538 150.139 50.7969 150.139H101.594V101.705C128.539 100.507 149.995 78.237 149.995 50.9742ZM96.6039 96.8117H94.7077H53.2918V53.4708H96.6039V96.8117ZM48.3019 53.5707V96.9116H5.08967C6.28723 73.5434 25.0491 54.7691 48.3019 53.5707ZM50.7969 145.246C26.3465 145.246 6.38703 125.972 4.98987 101.905H48.3019H94.7077H96.6039V145.246H50.7969ZM101.594 96.8117V48.4776H53.2918V5.13674H99.0988C124.348 5.13674 144.906 25.7087 144.906 50.9742C145.006 75.4409 125.745 95.5135 101.594 96.8117Z" fill="url(#paint0_linear_25064_11028)"/>
<path d="M212.201 211.492H218.495C217.608 214.68 215.852 217.181 213.23 218.997C210.768 220.651 207.823 221.479 204.393 221.479C199.43 221.479 195.556 219.905 192.772 216.758C190.23 213.812 188.959 209.838 188.959 204.834C188.959 199.145 190.573 194.828 193.801 191.882C196.464 189.421 199.894 188.19 204.09 188.19C209.013 188.19 212.725 189.784 215.227 192.972C217.648 196.038 218.858 200.416 218.858 206.105H194.891C195.133 209.818 196.263 212.582 198.28 214.397C199.934 215.85 202.033 216.576 204.575 216.576C206.552 216.576 208.267 216.031 209.719 214.942C210.93 214.014 211.757 212.864 212.201 211.492ZM204.211 192.851C201.629 192.851 199.551 193.658 197.977 195.272C196.484 196.764 195.536 198.842 195.133 201.506H212.927C212.725 198.479 211.716 196.22 209.901 194.727C208.448 193.476 206.552 192.851 204.211 192.851Z" fill="white"/>
<path d="M181.083 189.098H187.135L176.059 220.571H168.191L157.236 189.098H163.591L172.307 215.85L181.083 189.098Z" fill="white"/>
<path d="M152.737 183.832H146.201V176.993H152.737V183.832ZM152.374 220.571H146.564V189.098H152.374V220.571Z" fill="white"/>
<path d="M141.1 215.91V220.873C139.608 221.277 138.175 221.479 136.803 221.479C133.898 221.479 131.719 220.571 130.267 218.755C129.016 217.262 128.39 215.265 128.39 212.763V194.061H123.73V189.098H128.39L128.753 181.532H134.201V189.098H140.979V194.061H134.201V212.884C134.201 215.224 135.31 216.395 137.53 216.395C138.579 216.395 139.769 216.233 141.1 215.91Z" fill="white"/>
<path d="M98.7452 197.874H92.5717C92.8945 194.727 94.3874 192.286 97.0505 190.551C99.4311 188.977 102.437 188.19 106.069 188.19C110.386 188.19 113.695 189.32 115.995 191.58C117.931 193.516 118.9 196.018 118.9 199.085V220.571H114.118L113.392 216.274C110.931 219.744 107.42 221.479 102.861 221.479C99.2697 221.479 96.4654 220.51 94.4479 218.573C92.7936 216.959 91.9664 214.922 91.9664 212.46C91.9664 209.354 93.0357 206.953 95.1742 205.258C97.0707 203.765 99.9758 202.676 103.89 201.99L113.089 200.416V198.842C113.089 196.785 112.383 195.231 110.971 194.182C109.72 193.254 108.005 192.79 105.827 192.79C101.549 192.79 99.189 194.485 98.7452 197.874ZM104.253 216.576C106.714 216.576 108.853 215.769 110.668 214.155C112.282 212.662 113.089 210.947 113.089 209.011V204.955L105.282 206.348C102.417 206.832 100.46 207.578 99.4109 208.587C98.5636 209.394 98.1399 210.483 98.1399 211.855C98.1399 213.389 98.6645 214.559 99.7136 215.366C100.763 216.173 102.276 216.576 104.253 216.576Z" fill="white"/>
<path d="M80.158 211.492H86.4525C85.5648 214.68 83.8096 217.181 81.1869 218.997C78.7256 220.651 75.7801 221.479 72.3503 221.479C67.3873 221.479 63.5138 219.905 60.7296 216.758C58.1876 213.812 56.9166 209.838 56.9166 204.834C56.9166 199.145 58.5306 194.828 61.7585 191.882C64.4216 189.421 67.8513 188.19 72.0477 188.19C76.9704 188.19 80.6825 189.784 83.1842 192.972C85.6052 196.038 86.8157 200.416 86.8157 206.105H62.848C63.0901 209.818 64.2199 212.582 66.2374 214.397C67.8917 215.85 69.9899 216.576 72.5319 216.576C74.509 216.576 76.2239 216.031 77.6765 214.942C78.887 214.014 79.7141 212.864 80.158 211.492ZM72.1688 192.851C69.5864 192.851 67.5084 193.658 65.9347 195.272C64.4418 196.764 63.4936 198.842 63.0901 201.506H80.8843C80.6825 198.479 79.6738 196.22 77.8581 194.727C76.4055 193.476 74.509 192.851 72.1688 192.851Z" fill="white"/>
<path d="M43.5601 220.571H37.7497V189.098H42.5311L43.318 193.758C45.0933 190.046 47.7564 188.19 51.3072 188.19C52.4773 188.19 53.6273 188.331 54.7571 188.614V194.424C53.3852 194.061 52.1545 193.879 51.0651 193.879C48.7248 193.879 46.8889 194.828 45.5574 196.724C44.2258 198.621 43.5601 201.304 43.5601 204.774V220.571Z" fill="white"/>
<path d="M24.7544 210.463H31.1095C30.6253 213.853 29.0315 216.576 26.3281 218.634C23.8667 220.53 20.8607 221.479 17.3099 221.479C12.6697 221.479 8.97772 219.885 6.23394 216.697C3.69191 213.752 2.4209 209.878 2.4209 205.077C2.4209 199.508 3.95419 195.191 7.02076 192.124C9.64349 189.502 13.053 188.19 17.2494 188.19C21.123 188.19 24.3106 189.219 26.8123 191.277C29.0315 193.093 30.3832 195.473 30.8674 198.419H24.4518C24.0483 196.724 23.2212 195.413 21.9703 194.485C20.7598 193.557 19.2265 193.093 17.3705 193.093C14.5056 193.093 12.3066 194.222 10.7733 196.482C9.32069 198.58 8.5944 201.506 8.5944 205.258C8.5944 209.172 9.56279 212.138 11.4996 214.155C13.0329 215.769 15.01 216.576 17.431 216.576C19.5292 216.576 21.244 215.971 22.5756 214.76C23.7457 213.711 24.472 212.279 24.7544 210.463Z" fill="white"/>
<path d="M220.464 276.077H214.654V244.605H219.435L220.101 248.599C222.441 245.331 225.629 243.697 229.664 243.697C233.376 243.697 236.221 244.847 238.198 247.147C239.933 249.205 240.8 252.009 240.8 255.56V276.077H234.99V255.62C234.99 250.98 232.751 248.66 228.272 248.66C225.932 248.66 224.015 249.467 222.522 251.081C221.15 252.533 220.464 254.39 220.464 256.649V276.077Z" fill="white"/>
<path d="M176.961 260.341C176.961 254.571 178.676 250.213 182.105 247.268C184.849 244.887 188.319 243.697 192.516 243.697C197.398 243.697 201.231 245.25 204.015 248.357C206.678 251.262 208.01 255.257 208.01 260.341C208.01 266.03 206.335 270.368 202.986 273.354C200.243 275.775 196.732 276.985 192.455 276.985C187.573 276.985 183.719 275.371 180.895 272.143C178.272 269.198 176.961 265.264 176.961 260.341ZM183.013 260.341C183.013 264.376 184.042 267.463 186.1 269.601C187.795 271.377 189.953 272.264 192.576 272.264C195.643 272.264 198.003 271.114 199.657 268.815C201.191 266.716 201.957 263.892 201.957 260.341C201.957 256.225 200.949 253.119 198.931 251.02C197.277 249.285 195.138 248.418 192.516 248.418C189.489 248.418 187.129 249.568 185.434 251.868C183.82 253.966 183.013 256.79 183.013 260.341Z" fill="white"/>
<path d="M170.646 239.339H164.11V232.5H170.646V239.339ZM170.283 276.077H164.473V244.605H170.283V276.077Z" fill="white"/>
<path d="M159.01 271.417V276.38C157.517 276.784 156.084 276.985 154.712 276.985C151.807 276.985 149.628 276.077 148.176 274.262C146.925 272.769 146.299 270.771 146.299 268.27V249.568H141.639V244.605H146.299L146.663 237.039H152.11V244.605H158.889V249.568H152.11V268.391C152.11 270.731 153.219 271.901 155.439 271.901C156.488 271.901 157.678 271.74 159.01 271.417Z" fill="white"/>
<path d="M131.973 265.97H138.328C137.844 269.359 136.25 272.083 133.546 274.141C131.085 276.037 128.079 276.985 124.528 276.985C119.888 276.985 116.196 275.392 113.452 272.204C110.91 269.258 109.639 265.385 109.639 260.583C109.639 255.015 111.172 250.698 114.239 247.631C116.862 245.008 120.271 243.697 124.468 243.697C128.341 243.697 131.529 244.726 134.03 246.784C136.25 248.599 137.601 250.98 138.086 253.926H131.67C131.267 252.231 130.439 250.919 129.189 249.991C127.978 249.063 126.445 248.599 124.589 248.599C121.724 248.599 119.525 249.729 117.991 251.989C116.539 254.087 115.813 257.012 115.813 260.765C115.813 264.679 116.781 267.644 118.718 269.662C120.251 271.276 122.228 272.083 124.649 272.083C126.747 272.083 128.462 271.478 129.794 270.267C130.964 269.218 131.69 267.786 131.973 265.97Z" fill="white"/>
<path d="M97.8307 266.999H104.125C103.238 270.186 101.482 272.688 98.8596 274.504C96.3983 276.158 93.4527 276.985 90.023 276.985C85.06 276.985 81.1864 275.412 78.4023 272.264C75.8603 269.319 74.5893 265.344 74.5893 260.341C74.5893 254.652 76.2033 250.334 79.4312 247.389C82.0943 244.928 85.524 243.697 89.7204 243.697C94.6431 243.697 98.3552 245.291 100.857 248.478C103.278 251.545 104.488 255.923 104.488 261.612H80.5207C80.7628 265.324 81.8926 268.088 83.91 269.904C85.5644 271.357 87.6626 272.083 90.2046 272.083C92.1817 272.083 93.8966 271.538 95.3492 270.449C96.5597 269.521 97.3868 268.371 97.8307 266.999ZM89.8414 248.357C87.2591 248.357 85.1811 249.164 83.6074 250.778C82.1145 252.271 81.1663 254.349 80.7628 257.012H98.557C98.3552 253.986 97.3465 251.726 95.5307 250.234C94.0782 248.983 92.1817 248.357 89.8414 248.357Z" fill="white"/>
<path d="M61.2327 276.077H55.4224V244.605H60.2038L60.9906 249.265C62.766 245.553 65.4291 243.697 68.9799 243.697C70.15 243.697 71.3 243.838 72.4298 244.121V249.931C71.0579 249.568 69.8272 249.386 68.7378 249.386C66.3975 249.386 64.5616 250.334 63.2301 252.231C61.8985 254.127 61.2327 256.811 61.2327 260.281V276.077Z" fill="white"/>
<path d="M47.2922 239.339H40.7556V232.5H47.2922V239.339ZM46.9291 276.077H41.1187V244.605H46.9291V276.077Z" fill="white"/>
<path d="M32.6226 276.077H27.8412L26.8123 271.659C24.3913 275.21 20.901 276.985 16.3415 276.985C11.9434 276.985 8.47335 275.392 5.93132 272.204C3.59104 269.258 2.4209 265.365 2.4209 260.523C2.4209 254.672 3.91384 250.274 6.89971 247.328C9.40139 244.907 12.6697 243.697 16.7047 243.697C21.0624 243.697 24.4316 245.331 26.8123 248.599V232.5H32.6226V276.077ZM8.47335 260.644C8.47335 264.558 9.44174 267.523 11.3785 269.541C12.9925 271.195 15.0705 272.022 17.6125 272.022C20.7598 272.022 23.201 270.832 24.936 268.451C26.3886 266.394 27.1149 263.811 27.1149 260.704C27.1149 256.629 26.1465 253.522 24.2097 251.383C22.5554 249.568 20.3563 248.66 17.6125 248.66C14.546 248.66 12.2259 249.77 10.6522 251.989C9.19964 254.006 8.47335 256.891 8.47335 260.644Z" fill="white"/>
<defs>
<linearGradient id="paint0_linear_25064_11028" x1="15.4826" y1="126.139" x2="120.479" y2="21.2571" gradientUnits="userSpaceOnUse">
<stop stop-color="#DB1F2E"/>
<stop offset="0.120191" stop-color="#F26B1D"/>
<stop offset="0.249276" stop-color="#F2990A"/>
<stop offset="0.395641" stop-color="#73A321"/>
<stop offset="0.52483" stop-color="#00A3B5"/>
<stop offset="0.668042" stop-color="#0A78CC"/>
<stop offset="0.82762" stop-color="#643ABD"/>
<stop offset="1" stop-color="#C233C4"/>
</linearGradient>
</defs>
</svg>
