<svg width="151" height="150" viewBox="0 0 151 150" fill="none" xmlns="http://www.w3.org/2000/svg">
<path d="M150 50.8322C150 22.7696 127.146 0 99.1018 0H48.3034V48.4354C21.4571 49.7337 0 72.004 0 99.1678C0 127.23 22.7545 150 50.7984 150H101.597V101.565C128.543 100.366 150 78.0959 150 50.8322ZM96.6068 96.6711H94.7106H53.2934V53.3289H96.6068V96.6711ZM48.3034 53.4288V96.771H5.08982C6.28743 73.4021 25.0499 54.6272 48.3034 53.4288ZM50.7984 145.107C26.3473 145.107 6.38723 125.832 4.99002 101.764H48.3034H94.7106H96.6068V145.107H50.7984ZM101.597 96.6711V48.3356H53.2934V4.99334H99.1018C124.351 4.99334 144.91 25.5659 144.91 50.8322C145.01 75.2996 125.749 95.3728 101.597 96.6711Z" fill="black"/>
</svg>
