<svg width="39" height="39" viewBox="0 0 39 39" fill="none" xmlns="http://www.w3.org/2000/svg">
<g clip-path="url(#clip0_27506_1734)">
<path d="M6.45678 1.00122C7.24556 1.2588 8.0071 1.46664 8.66326 1.95306C10.1144 3.0288 10.9011 4.42589 10.98 6.25219C11.0466 7.79192 10.5818 9.13119 9.55615 10.236C8.58037 11.287 7.35369 11.8992 5.87812 11.9662C4.57048 12.0256 3.35775 11.7668 2.29363 10.9916C0.848532 9.93887 0.0841072 8.51828 0.00267774 6.71335C-0.066541 5.17919 0.410371 3.84856 1.41693 2.72406C2.20067 1.8485 3.2168 1.32201 4.37968 1.03154C5.06778 1.00122 5.74173 1.00122 6.45678 1.00122Z" fill="#3EBB8C"/>
<path d="M13.0499 13.6926C14.4407 12.2076 16.1588 11.6228 18.112 11.806C18.9555 11.8852 19.7864 12.0841 20.6457 12.0514C22.156 11.9941 23.4489 11.4267 24.6039 10.4736C25.8934 9.40939 26.5388 8.00938 26.9432 6.42033C27.3162 4.95462 28.2328 3.80885 29.5305 3.03288C31.3807 1.92649 33.3246 1.79709 35.3032 2.69038C37.1084 3.50543 38.2411 4.93736 38.6262 6.83512C39.1235 9.28597 38.4182 11.3878 36.3937 12.9755C35.282 13.8474 34.0053 14.2209 32.626 14.2239C31.9719 14.2253 31.3105 14.0972 30.6647 13.9669C29.5581 13.7437 28.4976 13.9658 27.4991 14.3637C25.4926 15.163 24.0966 16.6106 23.4807 18.6988C22.7551 21.159 23.3273 23.3358 25.0625 25.2293C26.0875 26.3478 27.3761 26.9385 28.8153 27.2913C30.3568 27.669 31.4484 28.6489 32.279 29.9601C32.9919 31.0856 33.2705 32.3321 33.136 33.6337C32.9178 35.7457 31.8674 37.3518 29.9932 38.3927C29.0265 38.9295 27.9859 39.1876 26.8872 39.1316C24.5268 39.0112 22.4606 37.7031 21.4996 35.3761C20.9548 34.0568 20.9497 32.7003 21.2714 31.3157C21.5461 30.1336 21.3667 28.9559 20.9193 27.8531C20.2595 26.2267 19.1676 24.9488 17.5444 24.1986C17.0939 23.9904 16.611 23.8402 16.13 23.712C13.6445 23.0496 11.9615 21.3756 11.5196 18.8591C11.1824 16.9397 11.6823 15.1825 13.0499 13.6926Z" fill="#3EBB8C"/>
</g>
<defs>
<clipPath id="clip0_27506_1734">
<rect width="39" height="38" fill="white" transform="translate(0 0.913574)"/>
</clipPath>
</defs>
</svg>
