<svg width="182" height="46" viewBox="0 0 182 46" fill="none" xmlns="http://www.w3.org/2000/svg">
<g clip-path="url(#clip0_27506_1735)">
<path d="M182.088 45.145C179.854 45.1861 177.621 45.1861 175.337 45.1861C175.337 45.0091 175.337 44.8542 175.337 44.6993C175.337 39.8632 175.351 35.027 175.326 30.1911C175.321 29.1843 175.097 28.2183 174.32 27.457C173.632 26.7827 172.787 26.6309 171.903 26.7007C170.695 26.796 169.599 27.2664 168.585 27.9191C168.286 28.1114 167.995 28.3244 167.736 28.5662C167.644 28.6527 167.627 28.8522 167.627 29.0002C167.62 31.2794 167.622 33.5587 167.622 35.8379C167.622 38.9343 167.622 42.0307 167.622 45.1566C165.381 45.1566 163.154 45.1566 160.872 45.1566C160.872 45.0147 160.872 44.8605 160.872 44.7062C160.872 39.8409 160.886 34.9755 160.86 30.1104C160.854 29.1164 160.601 28.1702 159.828 27.4317C159.12 26.7551 158.251 26.608 157.358 26.7084C156.204 26.8382 155.145 27.2914 154.217 28.0056C153.865 28.277 153.522 28.5674 153.214 28.8867C153.106 28.9985 153.075 29.2227 153.075 29.3956C153.068 34.4801 153.069 39.5645 153.069 44.649C153.069 44.8087 153.069 44.9683 153.069 45.1569C150.915 45.1569 148.776 45.1569 146.609 45.1569C146.609 37.0965 146.609 29.0255 146.609 20.9282C148.742 20.9282 150.881 20.9282 153.047 20.9282C153.047 21.7381 153.047 22.5508 153.047 23.4919C153.419 23.1947 153.722 22.9666 154.01 22.7199C155.173 21.7224 156.48 21.0051 157.998 20.7327C158.701 20.6067 159.418 20.4639 160.125 20.4815C161.669 20.5199 163.137 20.8951 164.398 21.8476C165.184 22.4418 165.863 23.1445 166.372 23.9977C166.408 24.0582 166.435 24.1255 166.478 24.1802C166.521 24.2355 166.58 24.279 166.673 24.3667C166.846 24.1566 166.993 23.9488 167.17 23.7699C168.714 22.2039 170.51 21.0535 172.696 20.6552C174.435 20.3383 176.164 20.4142 177.797 21.2118C179.776 22.1781 181.048 23.7512 181.731 25.8208C181.851 26.1822 181.927 26.558 182.055 26.9391C182.088 33.002 182.088 39.053 182.088 45.145Z" fill="#1D2253"/>
<path d="M0.0878906 12.1763C8.04882 12.1353 16.0097 12.1353 23.996 12.1353C23.996 14.151 23.996 16.1441 23.996 18.1758C18.3784 18.1758 12.7617 18.1758 7.12325 18.1758C7.12325 20.821 7.12325 23.4277 7.12325 26.073C11.7871 26.073 16.4395 26.073 21.11 26.073C21.11 28.0941 21.11 30.0768 21.11 32.0982C16.4667 32.0982 11.8143 32.0982 7.1317 32.0982C7.1317 34.4509 7.1317 36.7655 7.1317 39.1187C12.7345 39.1187 18.3512 39.1187 23.9946 39.1187C23.9946 41.1501 23.9946 43.1431 23.9946 45.1863C16.0552 45.1863 8.11265 45.1863 0.128977 45.1863C0.0878906 34.1967 0.0878906 23.2071 0.0878906 12.1763Z" fill="#1D2253"/>
<path d="M62.8988 45.6246C62.6321 45.537 62.4136 45.4103 62.1798 45.3681C60.1344 44.9993 58.2862 44.2137 56.6592 42.8978C54.492 41.1451 53.1786 38.8722 52.623 36.1811C52.375 34.98 52.2556 33.7274 52.2781 32.5018C52.306 30.981 52.6784 29.5029 53.2933 28.0881C54.0244 26.4058 55.0614 24.9457 56.4112 23.7265C58.1172 22.1855 60.0905 21.1219 62.3804 20.7326C63.1554 20.6009 63.9464 20.4622 64.7264 20.4807C66.8955 20.5322 68.9996 20.9297 70.9238 22.0009C72.8874 23.0941 74.3671 24.6665 75.3859 26.6613C76.1847 28.2251 76.7179 29.8785 76.8837 31.6362C76.9539 32.3809 77.0055 33.1275 77.0589 33.8737C77.1041 34.5042 77.1397 35.1354 77.1811 35.7916C71.2415 35.7916 65.3727 35.7916 59.4475 35.7916C60.1346 37.7948 61.4524 39.1691 63.4226 39.7251C66.5638 40.6116 68.9902 39.3724 70.9167 36.8543C72.6005 37.6769 74.3045 38.5093 76.0968 39.3849C75.7499 39.9041 75.4455 40.4097 75.0924 40.8786C74.1157 42.1754 72.9203 43.226 71.5085 44.0378C70.4046 44.6726 69.228 45.0946 67.9895 45.3616C67.6887 45.4265 67.3881 45.4924 67.0766 45.5912C65.6905 45.6246 64.3152 45.6246 62.8988 45.6246ZM67.6793 26.9937C66.4399 26.1873 65.077 25.9528 63.6617 26.2943C61.2102 26.8858 59.9294 28.5963 59.3721 30.9579C62.9507 30.9579 66.4938 30.9579 70.0372 30.9579C70.0207 29.7399 69.0637 27.8021 67.6793 26.9937Z" fill="#1D2253"/>
<path d="M102.175 45.6245C101.952 45.5376 101.779 45.4063 101.588 45.3707C99.6239 45.0044 97.8828 44.1609 96.3257 42.9262C94.807 41.7219 93.6141 40.2434 92.7887 38.4937C92.2193 37.2867 91.7931 36.0185 91.7073 34.6715C91.6456 33.7018 91.542 32.7186 91.6344 31.7586C91.8459 29.5614 92.6214 27.5522 93.9105 25.7446C95.0021 24.214 96.3622 22.9969 98.0064 22.0887C99.3975 21.3202 100.866 20.8197 102.452 20.625C103.63 20.4805 104.789 20.4975 105.967 20.6233C107.372 20.7731 108.698 21.163 109.941 21.7907C112.196 22.9298 113.856 24.6743 114.938 26.9644C115.055 27.2119 115.06 27.3527 114.782 27.5147C113.241 28.4139 111.708 29.3286 110.19 30.2657C109.949 30.4146 109.878 30.3548 109.776 30.1612C109.221 29.1058 108.49 28.1973 107.53 27.4818C106.704 26.8664 105.786 26.5332 104.753 26.4085C103.571 26.2657 102.477 26.4867 101.466 27.0461C100.104 27.8004 99.2183 28.9778 98.7558 30.4638C97.9918 32.9185 98.2067 35.2512 99.6619 37.4166C100.517 38.6886 101.714 39.4219 103.225 39.6657C105.578 40.0451 107.384 39.1147 108.811 37.3209C109.283 36.7265 109.673 36.0661 110.121 35.4061C111.764 36.4017 113.467 37.4336 115.181 38.4726C114.669 39.7355 113.997 40.8839 113.096 41.9078C112.146 42.9858 111.023 43.8258 109.743 44.441C108.67 44.9566 107.539 45.3298 106.34 45.452C106.172 45.4691 106.008 45.5217 105.829 45.5912C104.616 45.6245 103.416 45.6245 102.175 45.6245Z" fill="#1D2253"/>
<path d="M128.3 45.6246C128.077 45.5377 127.904 45.405 127.713 45.3709C125.444 44.9656 123.495 43.9402 121.763 42.4311C120.568 41.3896 119.644 40.1504 118.921 38.7653C118.187 37.3583 117.801 35.8434 117.638 34.2532C117.367 31.6025 117.944 29.1546 119.204 26.8395C119.272 26.7157 119.342 26.5935 119.414 26.4724C119.565 26.2191 119.761 26.2087 119.992 26.3625C121.354 27.2698 122.184 28.4873 122.114 30.1756C122.069 31.2663 121.855 32.3557 121.88 33.4421C121.919 35.2066 122.556 36.7862 123.657 38.1812C124.436 39.1678 125.376 39.9455 126.501 40.4878C127.853 41.1388 129.293 41.4726 130.786 41.3169C134.249 40.9557 137.058 38.7382 138.036 35.328C138.79 32.7014 138.281 30.243 136.599 28.0602C135.366 26.4604 133.759 25.4697 131.785 25.0099C129.77 24.5406 128.293 22.5576 128.459 20.6305C132.674 20.157 136.37 21.3216 139.252 24.4438C142.796 28.2826 143.673 32.8592 141.775 37.6833C139.912 42.4223 136.235 45.0744 131.079 45.5899C130.156 45.6246 129.249 45.6246 128.3 45.6246Z" fill="#1D2253"/>
<path d="M109.457 1.00122C110.246 1.2588 111.007 1.46664 111.663 1.95306C113.114 3.0288 113.901 4.42589 113.98 6.25219C114.047 7.79192 113.582 9.13119 112.556 10.236C111.58 11.287 110.354 11.8992 108.878 11.9662C107.57 12.0256 106.358 11.7668 105.294 10.9916C103.849 9.93887 103.084 8.51828 103.003 6.71335C102.933 5.17919 103.41 3.84856 104.417 2.72406C105.201 1.8485 106.217 1.32201 107.38 1.03154C108.068 1.00122 108.742 1.00122 109.457 1.00122Z" fill="#3EBB8C"/>
<path d="M116.05 13.6926C117.441 12.2076 119.159 11.6228 121.112 11.806C121.956 11.8852 122.786 12.0841 123.646 12.0514C125.156 11.9941 126.449 11.4267 127.604 10.4736C128.893 9.40939 129.539 8.00938 129.943 6.42033C130.316 4.95462 131.233 3.80885 132.53 3.03288C134.381 1.92649 136.325 1.79709 138.303 2.69038C140.108 3.50543 141.241 4.93736 141.626 6.83512C142.124 9.28597 141.418 11.3878 139.394 12.9755C138.282 13.8474 137.005 14.2209 135.626 14.2239C134.972 14.2253 134.311 14.0972 133.665 13.9669C132.558 13.7437 131.498 13.9658 130.499 14.3637C128.493 15.163 127.097 16.6106 126.481 18.6988C125.755 21.159 126.327 23.3358 128.062 25.2293C129.088 26.3478 130.376 26.9385 131.815 27.2913C133.357 27.669 134.448 28.6489 135.279 29.9601C135.992 31.0856 136.271 32.3321 136.136 33.6337C135.918 35.7457 134.867 37.3518 132.993 38.3927C132.026 38.9295 130.986 39.1876 129.887 39.1316C127.527 39.0112 125.461 37.7031 124.5 35.3761C123.955 34.0568 123.95 32.7003 124.271 31.3157C124.546 30.1336 124.367 28.9559 123.919 27.8531C123.259 26.2267 122.168 24.9488 120.544 24.1986C120.094 23.9904 119.611 23.8402 119.13 23.712C116.645 23.0496 114.962 21.3756 114.52 18.8591C114.182 16.9397 114.682 15.1825 116.05 13.6926Z" fill="#3EBB8C"/>
<path d="M40.2177 40.6482C39.5864 39.7848 38.9778 38.9443 38.3472 38.0734C37.4572 39.3855 36.5746 40.6842 35.6948 41.9848C35.0189 42.9839 34.3503 43.988 33.6668 44.9819C33.6003 45.0787 33.4523 45.1771 33.3416 45.1776C30.9469 45.1888 28.5522 45.1861 26.0675 45.1861C26.4377 44.6643 26.7655 44.1948 27.1008 43.7308C28.1175 42.3237 29.1373 40.919 30.1554 39.513C31.44 37.7391 32.7249 35.9654 34.0073 34.19C34.1982 33.9258 34.346 33.6231 34.5692 33.3918C34.7781 33.1754 34.7127 33.0042 34.5817 32.8244C32.6889 30.2246 30.7885 27.6304 28.8972 25.0295C28.0026 23.7991 27.1228 22.5579 26.2386 21.32C26.1588 21.2084 26.0958 21.0847 25.9863 20.9019C26.1962 20.9019 26.335 20.9019 26.4737 20.9019C28.7531 20.9019 31.0325 20.905 33.3119 20.8982C33.6049 20.8973 33.7847 20.9668 33.9775 21.237C35.5886 23.4944 37.2311 25.7294 38.8802 27.9933C39.9749 26.3714 41.0674 24.7568 42.1552 23.1391C42.6059 22.4689 43.0386 21.7863 43.4995 21.1232C43.5763 21.0128 43.7556 20.9119 43.8881 20.9112C46.2542 20.8985 48.6205 20.902 51.0947 20.902C50.8921 21.2245 50.7402 21.4968 50.5599 21.7488C48.632 24.4434 46.7006 27.1354 44.7679 29.8265C44.0791 30.7856 43.3885 31.7434 42.6888 32.6945C42.5437 32.8918 42.5228 33.0229 42.6846 33.2421C43.9177 34.9128 45.132 36.5975 46.3511 38.2786C47.2949 39.5801 48.2376 40.8824 49.18 42.1849C49.8856 43.16 50.5899 44.1361 51.3375 45.1709C51.179 45.1779 51.0853 45.1856 50.9917 45.1856C48.61 45.1863 46.2283 45.1841 43.8467 45.1894C43.614 45.1899 43.4792 45.1315 43.3275 44.9182C42.3707 43.5728 41.3812 42.2506 40.4035 40.92C40.3448 40.8402 40.2946 40.7542 40.2177 40.6482Z" fill="#1D2253"/>
<path d="M87.5802 40.5398C87.5802 42.1007 87.5802 43.6178 87.5802 45.1605C85.4193 45.1605 83.2805 45.1605 81.1172 45.1605C81.1172 34.1698 81.1172 23.1782 81.1172 12.1609C83.2536 12.1609 85.3923 12.1609 87.5802 12.1609C87.5802 21.6052 87.5802 31.0506 87.5802 40.5398Z" fill="#1D2253"/>
</g>
<defs>
<clipPath id="clip0_27506_1735">
<rect width="182" height="44.6233" fill="white" transform="translate(0 0.913574)"/>
</clipPath>
</defs>
</svg>
