<svg width="182" height="46" viewBox="0 0 182 46" fill="none" xmlns="http://www.w3.org/2000/svg">
<g clip-path="url(#clip0_27506_1735)">
<path d="M182.088 45.0015C179.854 45.0426 177.621 45.0426 175.337 45.0426C175.337 44.8656 175.337 44.7106 175.337 44.5557C175.337 39.7196 175.351 34.8835 175.326 30.0475C175.321 29.0407 175.097 28.0748 174.32 27.3135C173.632 26.6391 172.787 26.4873 171.903 26.5571C170.695 26.6524 169.599 27.1229 168.585 27.7756C168.286 27.9679 167.995 28.1808 167.736 28.4227C167.644 28.5091 167.627 28.7086 167.627 28.8566C167.62 31.1359 167.622 33.4151 167.622 35.6944C167.622 38.7907 167.622 41.8871 167.622 45.013C165.381 45.013 163.154 45.013 160.872 45.013C160.872 44.8712 160.872 44.7169 160.872 44.5627C160.872 39.6974 160.886 34.832 160.86 29.9668C160.854 28.9729 160.601 28.0266 159.828 27.2881C159.12 26.6115 158.251 26.4644 157.358 26.5649C156.204 26.6947 155.145 27.1479 154.217 27.862C153.865 28.1334 153.522 28.4239 153.214 28.7431C153.106 28.8549 153.075 29.0791 153.075 29.2521C153.068 34.3365 153.069 39.421 153.069 44.5055C153.069 44.6651 153.069 44.8247 153.069 45.0133C150.915 45.0133 148.776 45.0133 146.609 45.0133C146.609 36.953 146.609 28.8819 146.609 20.7846C148.742 20.7846 150.881 20.7846 153.047 20.7846C153.047 21.5946 153.047 22.4072 153.047 23.3483C153.419 23.0511 153.722 22.823 154.01 22.5764C155.173 21.5788 156.48 20.8616 157.998 20.5892C158.701 20.4632 159.418 20.3203 160.125 20.3379C161.669 20.3764 163.137 20.7516 164.398 21.7041C165.184 22.2982 165.863 23.0009 166.372 23.8542C166.408 23.9147 166.435 23.9819 166.478 24.0367C166.521 24.0919 166.58 24.1355 166.673 24.2231C166.846 24.013 166.993 23.8052 167.17 23.6263C168.714 22.0603 170.51 20.91 172.696 20.5117C174.435 20.1947 176.164 20.2706 177.797 21.0682C179.776 22.0346 181.048 23.6076 181.731 25.6773C181.851 26.0387 181.927 26.4144 182.055 26.7955C182.088 32.8585 182.088 38.9094 182.088 45.0015Z" fill="#1D2253"/>
<path d="M0.0878906 12.0328C8.04882 11.9917 16.0097 11.9917 23.996 11.9917C23.996 14.0075 23.996 16.0005 23.996 18.0322C18.3784 18.0322 12.7617 18.0322 7.12325 18.0322C7.12325 20.6774 7.12325 23.2841 7.12325 25.9294C11.7871 25.9294 16.4395 25.9294 21.11 25.9294C21.11 27.9506 21.11 29.9333 21.11 31.9546C16.4667 31.9546 11.8143 31.9546 7.1317 31.9546C7.1317 34.3074 7.1317 36.6219 7.1317 38.9751C12.7345 38.9751 18.3512 38.9751 23.9946 38.9751C23.9946 41.0065 23.9946 42.9995 23.9946 45.0428C16.0552 45.0428 8.11265 45.0428 0.128977 45.0428C0.0878906 34.0531 0.0878906 23.0635 0.0878906 12.0328Z" fill="#1D2253"/>
<path d="M62.8988 45.481C62.6321 45.3935 62.4136 45.2667 62.1798 45.2246C60.1344 44.8558 58.2862 44.0701 56.6592 42.7542C54.492 41.0015 53.1786 38.7287 52.623 36.0376C52.375 34.8365 52.2556 33.5838 52.2781 32.3583C52.306 30.8374 52.6784 29.3593 53.2933 27.9446C54.0244 26.2622 55.0614 24.8022 56.4112 23.5829C58.1172 22.0419 60.0905 20.9784 62.3804 20.5891C63.1554 20.4573 63.9464 20.3186 64.7264 20.3371C66.8955 20.3886 68.9996 20.7862 70.9238 21.8574C72.8874 22.9505 74.3671 24.523 75.3859 26.5177C76.1847 28.0816 76.7179 29.735 76.8837 31.4926C76.9539 32.2374 77.0055 32.984 77.0589 33.7302C77.1041 34.3607 77.1397 34.9918 77.1811 35.648C71.2415 35.648 65.3727 35.648 59.4475 35.648C60.1346 37.6513 61.4524 39.0256 63.4226 39.5816C66.5638 40.468 68.9902 39.2288 70.9167 36.7107C72.6005 37.5333 74.3045 38.3657 76.0968 39.2413C75.7499 39.7606 75.4455 40.2662 75.0924 40.7351C74.1157 42.0318 72.9203 43.0824 71.5085 43.8943C70.4046 44.5291 69.228 44.9511 67.9895 45.2181C67.6887 45.2829 67.3881 45.3489 67.0766 45.4477C65.6905 45.481 64.3152 45.481 62.8988 45.481ZM67.6793 26.8501C66.4399 26.0438 65.077 25.8093 63.6617 26.1507C61.2102 26.7422 59.9294 28.4527 59.3721 30.8144C62.9507 30.8144 66.4938 30.8144 70.0372 30.8144C70.0207 29.5963 69.0637 27.6586 67.6793 26.8501Z" fill="#1D2253"/>
<path d="M102.175 45.4809C101.952 45.394 101.779 45.2627 101.588 45.2271C99.6239 44.8608 97.8828 44.0174 96.3257 42.7827C94.807 41.5784 93.6141 40.0999 92.7887 38.3501C92.2193 37.1431 91.7931 35.8749 91.7073 34.5279C91.6456 33.5582 91.542 32.5751 91.6344 31.615C91.8459 29.4178 92.6214 27.4087 93.9105 25.601C95.0021 24.0704 96.3622 22.8534 98.0064 21.9451C99.3975 21.1767 100.866 20.6762 102.452 20.4815C103.63 20.3369 104.789 20.354 105.967 20.4797C107.372 20.6296 108.698 21.0195 109.941 21.6471C112.196 22.7863 113.856 24.5308 114.938 26.8208C115.055 27.0684 115.06 27.2092 114.782 27.3712C113.241 28.2704 111.708 29.1851 110.19 30.1221C109.949 30.271 109.878 30.2113 109.776 30.0176C109.221 28.9623 108.49 28.0537 107.53 27.3382C106.704 26.7229 105.786 26.3896 104.753 26.2649C103.571 26.1222 102.477 26.3431 101.466 26.9025C100.104 27.6569 99.2183 28.8342 98.7558 30.3203C97.9918 32.775 98.2067 35.1077 99.6619 37.2731C100.517 38.5451 101.714 39.2784 103.225 39.5221C105.578 39.9016 107.384 38.9711 108.811 37.1773C109.283 36.583 109.673 35.9225 110.121 35.2625C111.764 36.2581 113.467 37.2901 115.181 38.3291C114.669 39.5919 113.997 40.7404 113.096 41.7643C112.146 42.8422 111.023 43.6822 109.743 44.2975C108.67 44.813 107.539 45.1862 106.34 45.3084C106.172 45.3256 106.008 45.3782 105.829 45.4477C104.616 45.4809 103.416 45.4809 102.175 45.4809Z" fill="#1D2253"/>
<path d="M128.3 45.481C128.077 45.3942 127.904 45.2615 127.713 45.2274C125.444 44.8221 123.495 43.7966 121.763 42.2876C120.568 41.246 119.644 40.0069 118.921 38.6217C118.187 37.2148 117.801 35.6999 117.638 34.1096C117.367 31.4589 117.944 29.011 119.204 26.6959C119.272 26.5722 119.342 26.4499 119.414 26.3289C119.565 26.0755 119.761 26.0651 119.992 26.2189C121.354 27.1263 122.184 28.3437 122.114 30.0321C122.069 31.1227 121.855 32.2122 121.88 33.2986C121.919 35.0631 122.556 36.6426 123.657 38.0377C124.436 39.0243 125.376 39.802 126.501 40.3443C127.853 40.9952 129.293 41.329 130.786 41.1733C134.249 40.8121 137.058 38.5947 138.036 35.1845C138.79 32.5579 138.281 30.0995 136.599 27.9167C135.366 26.3168 133.759 25.3261 131.785 24.8664C129.77 24.397 128.293 22.414 128.459 20.487C132.674 20.0134 136.37 21.178 139.252 24.3002C142.796 28.1391 143.673 32.7156 141.775 37.5397C139.912 42.2787 136.235 44.9309 131.079 45.4463C130.156 45.481 129.249 45.481 128.3 45.481Z" fill="#1D2253"/>
<path d="M109.457 0.857666C110.246 1.11524 111.007 1.32309 111.663 1.80951C113.114 2.88525 113.901 4.28233 113.98 6.10864C114.047 7.64836 113.582 8.98763 112.556 10.0924C111.58 11.1435 110.354 11.7556 108.878 11.8226C107.57 11.882 106.358 11.6232 105.294 10.848C103.849 9.79531 103.084 8.37473 103.003 6.5698C102.933 5.03563 103.41 3.705 104.417 2.5805C105.201 1.70494 106.217 1.17845 107.38 0.887982C108.068 0.857666 108.742 0.857666 109.457 0.857666Z" fill="#3EBB8C"/>
<path d="M116.05 13.549C117.441 12.064 119.159 11.4793 121.112 11.6625C121.956 11.7416 122.786 11.9405 123.646 11.9079C125.156 11.8505 126.449 11.2831 127.604 10.33C128.893 9.26583 129.539 7.86583 129.943 6.27677C130.316 4.81106 131.233 3.66529 132.53 2.88932C134.381 1.78294 136.325 1.65353 138.303 2.54683C140.108 3.36188 141.241 4.7938 141.626 6.69156C142.124 9.14242 141.418 11.2442 139.394 12.8319C138.282 13.7038 137.005 14.0774 135.626 14.0803C134.972 14.0818 134.311 13.9536 133.665 13.8234C132.558 13.6002 131.498 13.8223 130.499 14.2201C128.493 15.0194 127.097 16.467 126.481 18.5552C125.755 21.0154 126.327 23.1923 128.062 25.0858C129.088 26.2043 130.376 26.795 131.815 27.1477C133.357 27.5255 134.448 28.5053 135.279 29.8165C135.992 30.9421 136.271 32.1885 136.136 33.4902C135.918 35.6021 134.867 37.2083 132.993 38.2491C132.026 38.7859 130.986 39.044 129.887 38.988C127.527 38.8677 125.461 37.5595 124.5 35.2325C123.955 33.9133 123.95 32.5567 124.271 31.1721C124.546 29.99 124.367 28.8124 123.919 27.7096C123.259 26.0831 122.168 24.8052 120.544 24.055C120.094 23.8468 119.611 23.6966 119.13 23.5684C116.645 22.906 114.962 21.232 114.52 18.7155C114.182 16.7962 114.682 15.0389 116.05 13.549Z" fill="#3EBB8C"/>
<path d="M40.2177 40.5047C39.5864 39.6413 38.9778 38.8007 38.3472 37.9299C37.4572 39.242 36.5746 40.5407 35.6948 41.8413C35.0189 42.8404 34.3503 43.8444 33.6668 44.8383C33.6003 44.9352 33.4523 45.0335 33.3416 45.034C30.9469 45.0452 28.5522 45.0425 26.0675 45.0425C26.4377 44.5207 26.7655 44.0513 27.1008 43.5872C28.1175 42.1802 29.1373 40.7754 30.1554 39.3695C31.44 37.5955 32.7249 35.8219 34.0073 34.0464C34.1982 33.7822 34.346 33.4796 34.5692 33.2483C34.7781 33.0318 34.7127 32.8607 34.5817 32.6808C32.6889 30.0811 30.7885 27.4868 28.8972 24.8859C28.0026 23.6556 27.1228 22.4144 26.2386 21.1765C26.1588 21.0648 26.0958 20.9411 25.9863 20.7584C26.1962 20.7584 26.335 20.7584 26.4737 20.7584C28.7531 20.7584 31.0325 20.7614 33.3119 20.7546C33.6049 20.7538 33.7847 20.8233 33.9775 21.0934C35.5886 23.3508 37.2311 25.5859 38.8802 27.8498C39.9749 26.2278 41.0674 24.6133 42.1552 22.9956C42.6059 22.3253 43.0386 21.6427 43.4995 20.9797C43.5763 20.8693 43.7556 20.7684 43.8881 20.7676C46.2542 20.755 48.6205 20.7584 51.0947 20.7584C50.8921 21.081 50.7402 21.3533 50.5599 21.6053C48.632 24.2998 46.7006 26.9918 44.7679 29.6829C44.0791 30.642 43.3885 31.5999 42.6888 32.551C42.5437 32.7482 42.5228 32.8793 42.6846 33.0985C43.9177 34.7693 45.132 36.4539 46.3511 38.135C47.2949 39.4365 48.2376 40.7388 49.18 42.0413C49.8856 43.0165 50.5899 43.9925 51.3375 45.0274C51.179 45.0343 51.0853 45.042 50.9917 45.0421C48.61 45.0427 46.2283 45.0405 43.8467 45.0458C43.614 45.0463 43.4792 44.9879 43.3275 44.7747C42.3707 43.4293 41.3812 42.1071 40.4035 40.7765C40.3448 40.6967 40.2946 40.6107 40.2177 40.5047Z" fill="#1D2253"/>
<path d="M87.5802 40.3963C87.5802 41.9572 87.5802 43.4743 87.5802 45.017C85.4193 45.017 83.2805 45.017 81.1172 45.017C81.1172 34.0263 81.1172 23.0347 81.1172 12.0173C83.2536 12.0173 85.3923 12.0173 87.5802 12.0173C87.5802 21.4617 87.5802 30.9071 87.5802 40.3963Z" fill="#1D2253"/>
</g>
<defs>
<clipPath id="clip0_27506_1735">
<rect width="182" height="44.6233" fill="white" transform="translate(0 0.77002)"/>
</clipPath>
</defs>
</svg>
