<svg width="33" height="33" viewBox="0 0 33 33" fill="none" xmlns="http://www.w3.org/2000/svg">
<path d="M18.6953 16.7701L21.4249 19.8901L25.0953 22.2101L25.7353 16.7908L25.0953 11.4659L21.3545 13.5268L18.6953 16.7701Z" fill="#188038"/>
<path d="M2.85547 21.7302V26.3702C2.85547 27.431 3.71464 28.2903 4.77551 28.2903H9.4156L10.3756 24.7831L9.4156 21.7302L6.23152 20.7703L2.85547 21.7302Z" fill="#1967D2"/>
<path d="M9.4156 5.25L2.85547 11.81L6.23152 12.77L9.4156 11.81L10.3596 8.79721L9.4156 5.25Z" fill="#EA4335"/>
<path d="M9.4156 11.8099H2.85547V21.73H9.41551V11.8099H9.4156Z" fill="#4285F4"/>
<path d="M29.2861 8.02727L25.0957 11.4657V22.2098L29.3037 25.789C29.9341 26.2818 30.8557 25.8323 30.8557 25.0322V8.76971C30.8557 7.95849 29.9133 7.51364 29.2861 8.02727Z" fill="#34A853"/>
<path d="M18.6961 16.7698V21.7299H9.41602V28.2899H23.1762C24.2369 28.2899 25.0962 27.4307 25.0962 26.3699V22.2098L18.6961 16.7698Z" fill="#34A853"/>
<path d="M23.1761 5.24988H9.41602V11.8099H18.6961V16.77L25.0962 11.466V7.16991C25.0961 6.10905 24.2369 5.24988 23.1761 5.24988Z" fill="#FBBC04"/>
</svg>
