<svg width="33" height="33" viewBox="0 0 33 33" fill="none" xmlns="http://www.w3.org/2000/svg">
<g clip-path="url(#clip0_27213_1785)">
<path d="M18.8926 16.5413L21.9146 19.9956L25.9782 22.5642L26.6868 16.5643L25.9782 10.6689L21.8366 12.9506L18.8926 16.5413Z" fill="#188038"/>
<path d="M1.35547 22.0329V27.1701C1.35547 28.3446 2.30669 29.2959 3.4812 29.2959H8.61841L9.68122 25.4129L8.61841 22.033L5.09321 20.9702L1.35547 22.0329Z" fill="#1967D2"/>
<path d="M8.61841 3.78711L1.35547 11.0499L5.09321 12.1128L8.61841 11.0499L9.6635 7.71434L8.61841 3.78711Z" fill="#EA4335"/>
<path d="M8.61841 11.0498H1.35547V22.0327H8.61831V11.0498H8.61841Z" fill="#4285F4"/>
<path d="M30.6179 6.86219L25.9785 10.669V22.5641L30.6373 26.5268C31.3352 27.0724 32.3556 26.5747 32.3556 25.6889V7.68417C32.3556 6.78604 31.3123 6.29353 30.6179 6.86219Z" fill="#34A853"/>
<path d="M18.8934 16.541V22.0325H8.61914V29.2953H23.8535C25.0279 29.2953 25.9792 28.3441 25.9792 27.1696V22.5639L18.8934 16.541Z" fill="#34A853"/>
<path d="M23.8534 3.78687H8.61914V11.0497H18.8934V16.5412L25.9792 10.6689V5.9126C25.9791 4.73808 25.0279 3.78687 23.8534 3.78687Z" fill="#FBBC04"/>
</g>
<defs>
<clipPath id="clip0_27213_1785">
<rect width="32" height="32" fill="white" transform="translate(0.855469 0.536865)"/>
</clipPath>
</defs>
</svg>
