<svg width="76" height="32" viewBox="0 0 76 32" fill="none" xmlns="http://www.w3.org/2000/svg">
<g clip-path="url(#clip0_31414_1264)">
<path d="M22.2041 25.1499C27.4059 27.1656 32.6078 27.7501 36.1191 26.6665L39.5654 30.7847C35.1221 32.7353 28.1214 32.3239 20.9688 29.6362L22.2041 25.1499ZM44.3955 22.5923C44.7205 25.8 43.5065 28.5307 40.7324 30.1997C40.6242 30.2647 40.4941 30.3301 40.3857 30.395L36.9824 26.3638C37.3075 26.2337 37.5894 26.0821 37.8711 25.9087C39.28 25.0634 40.169 23.9576 40.4941 22.6138L44.3955 22.5923ZM8.97461 15.98C10.5569 17.9091 12.6813 19.8385 15.2822 21.5942C17.2329 22.8731 19.2487 23.9352 21.2861 24.8022L20.0078 29.2886C17.2769 28.1832 14.5239 26.7531 11.9014 24.9976C7.69651 22.1581 4.50991 18.9717 2.49414 15.8071L8.97461 15.98ZM71.0137 11.5796C71.9456 11.5796 72.7479 11.8186 73.4414 12.2954C74.1131 12.7722 74.5894 13.3576 74.8711 14.0728C75.1311 14.788 75.2617 15.5681 75.2617 16.4351H69.1709C69.2143 17.172 69.4532 17.7137 69.8867 18.0171C70.3202 18.3204 70.7752 18.4722 71.252 18.4722C71.8371 18.4721 72.4877 18.1468 73.1162 17.4966L75.1533 18.147C74.308 19.4908 72.9641 20.1411 71.165 20.1411C69.713 20.1411 68.6078 19.7512 67.7842 18.9927C66.9605 18.2341 66.5703 17.2369 66.5703 16.0015C66.5703 14.7443 66.9818 13.6818 67.8271 12.8364C68.6508 11.9912 69.7133 11.5796 71.0137 11.5796ZM19.2988 8.00439C20.881 8.0044 22.0947 8.39428 22.9834 9.15283V8.22119H24.9775V12.4038H22.9834C22.7666 11.7104 22.3548 11.1466 21.748 10.7349C21.1195 10.3231 20.4691 10.1284 19.7539 10.1284C18.822 10.1284 18.0203 10.4537 17.3701 11.1255C16.7199 11.7974 16.373 12.7079 16.373 13.8784C16.3731 15.2222 16.6982 16.2405 17.3701 16.9341C18.042 17.6277 18.8657 17.9966 19.8193 17.9966C20.5345 17.9965 21.1199 17.8228 21.5967 17.4761C22.0734 17.1293 22.3979 16.6522 22.5713 16.0454H20.5342V14.0298H26.04C26.04 15.4604 25.78 16.588 25.2598 17.4116C24.7396 18.2352 24.0019 18.9065 23.0049 19.3833C22.0297 19.8601 20.9247 20.0991 19.6895 20.0991C17.5653 20.0991 15.9388 19.535 14.79 18.3862C13.6632 17.2375 13.0781 15.8068 13.0781 14.0513C13.0782 12.8376 13.3603 11.7537 13.9238 10.8218C14.4874 9.88988 15.2456 9.19605 16.1992 8.71924C17.1529 8.24238 18.1934 8.00439 19.2988 8.00439ZM64.2295 11.7759H65.7246V13.6616H64.2295V17.2163C64.2295 17.5414 64.2727 17.7583 64.3594 17.8667C64.4461 17.975 64.6196 18.0395 64.9229 18.0396C65.1613 18.0396 65.4436 17.9751 65.7471 17.8667V19.6655C65.0752 19.9473 64.4246 20.0776 63.7744 20.0776C62.344 20.0776 61.6291 19.3622 61.6289 17.9536V13.6616H60.5664V11.7974H61.6064V10.4966L64.2295 8.61084V11.7759ZM38.7617 11.5581C39.542 11.5581 40.2144 11.6454 40.7129 11.8188C41.233 11.9922 41.6229 12.2305 41.8613 12.5122C42.1214 12.7939 42.2949 13.0972 42.4033 13.4438C42.5117 13.769 42.5557 14.3329 42.5557 15.0698V18.061H43.8555V19.9683H39.9326V19.3179C39.239 19.8381 38.4805 20.0766 37.7002 20.0767C36.8983 20.0767 36.1829 19.8384 35.5977 19.3833C35.0124 18.9281 34.709 18.2994 34.709 17.519C34.709 16.7388 35.0121 16.0882 35.6406 15.5464C36.2692 15.0262 37.0715 14.7446 38.0469 14.7446C38.5887 14.7446 39.2173 14.875 39.9326 15.1567V14.6577C39.9326 14.246 39.8022 13.8992 39.5205 13.6392C39.2388 13.3792 38.8703 13.2271 38.3936 13.2271C37.8085 13.2271 37.3102 13.4441 36.8984 13.8774L34.7959 13.4878C35.4027 12.1874 36.7245 11.5582 38.7617 11.5581ZM50.7891 11.6675C52.4363 11.6675 53.2607 12.7291 53.2607 14.8315V18.105H54.4961V19.9907H50.6592V15.0269C50.6592 14.5721 50.5945 14.2686 50.4863 14.1167C50.3563 13.9433 50.1605 13.8774 49.9004 13.8774C49.4237 13.8775 48.9253 14.0511 48.4053 14.4194V18.105H49.6621V19.9907H44.5469V18.105H45.8047V13.6831H44.5254V11.7974H48.3838V12.5562C49.164 11.971 49.9655 11.6676 50.7891 11.6675ZM59.1377 18.105H60.3516V19.9907H55.2793V18.105H56.5146V13.6831H55.2793V11.7974H59.1377V18.105ZM34.168 14.1167C33.5179 14.1167 32.9762 14.1818 32.5645 14.3335C32.1526 14.4852 31.8062 14.8107 31.5244 15.2876C31.2644 15.786 31.1124 16.3708 31.1123 17.0425V18.0396H32.7812V19.9692H27.0156V18.0835H28.5332V13.6616H27.1025V11.7759H30.917V13.8569C31.0687 13.2501 31.394 12.7515 31.9141 12.2964C32.4343 11.8412 33.0416 11.646 33.7568 11.646H34.168V14.1167ZM38.415 16.3706C38.1118 16.3707 37.8518 16.4571 37.5918 16.6304C37.3534 16.8038 37.2236 17.064 37.2236 17.3892C37.2237 17.6925 37.3313 17.9529 37.5264 18.1479C37.7214 18.3647 37.9818 18.4731 38.2852 18.4731C38.762 18.4731 39.3257 18.191 39.9326 17.6274V16.9556C39.304 16.5654 38.8052 16.3706 38.415 16.3706ZM70.8613 13.314C69.9079 13.3141 69.3441 13.8561 69.1924 14.9614H72.6172C72.5522 14.5062 72.3786 14.1157 72.0752 13.7905C71.7718 13.4655 71.3814 13.314 70.8613 13.314ZM7.11719 5.07764C4.99305 7.50527 5.51329 11.1684 8.22266 14.9399L1.89355 14.7231C-0.750783 9.99792 -0.70729 5.51126 2.54395 2.73682L7.11719 5.07764ZM57.8799 8.00439C58.27 8.00439 58.6176 8.13376 58.8994 8.41553C59.1812 8.69731 59.3105 9.0449 59.3105 9.43506C59.3105 9.82505 59.1811 10.1721 58.8994 10.4321C58.6176 10.7139 58.2917 10.8433 57.8799 10.8433C57.4899 10.8432 57.1645 10.7138 56.8828 10.4321C56.5795 10.1721 56.4503 9.82504 56.4502 9.43506C56.4502 9.0449 56.5796 8.69731 56.8613 8.41553C57.143 8.13391 57.4683 8.00448 57.8799 8.00439ZM27.9668 4.34131C30.9146 5.83691 33.7324 7.67942 36.1816 9.76025H33.4717C31.8028 8.35149 29.7439 7.05116 27.5332 5.9458L27.9668 4.34131ZM14.9609 0.200684C18.9274 0.677539 23.1757 1.99992 27.1855 3.95068L26.7305 5.53271C23.5876 4.03714 20.1627 2.9756 16.9766 2.58545L14.9609 0.200684ZM5.03418 1.2417C7.54833 0.158074 10.6041 -0.188455 13.8984 0.0932617L15.915 2.49854C13.6394 2.32515 11.5366 2.56369 9.80273 3.27881C8.93574 3.62561 8.2198 4.05957 7.65625 4.55811L3.19141 2.26025C3.73327 1.89178 4.3406 1.54515 5.03418 1.2417Z" fill="#4D9BD2"/>
</g>
<defs>
<clipPath id="clip0_31414_1264">
<rect width="76" height="32" fill="white"/>
</clipPath>
</defs>
</svg>
