<svg width="54" height="32" viewBox="0 0 54 32" fill="none" xmlns="http://www.w3.org/2000/svg">
<g clip-path="url(#clip0_30176_3778)">
<path d="M20.2581 0C24.5313 0 26.8014 1.80163 27.0149 1.97363C28.7207 3.16824 29.9264 4.73274 30.6077 6.62305L30.7493 7C31.6381 9.83285 30.9269 12.8495 30.4231 14.4023C29.1784 18.2253 26.9789 21.3314 23.3694 24.5557C21.0815 26.6005 16.8912 29.6705 12.9085 31.2529C11.5692 31.7862 10.3545 31.9999 9.34107 32C7.88896 32.0059 6.83372 31.4957 6.19361 30.5C4.59935 27.9988 6.17557 24.8398 6.98755 23.6426C8.87232 20.8629 10.9412 19.9619 12.2629 19.9619C13.5786 19.9621 14.841 20.8161 14.9299 22.1377C15.0185 23.4474 13.6907 24.4312 12.4817 25.5928C12.1143 25.9424 11.759 26.2744 11.4094 26.624C10.7693 27.2878 10.253 27.9459 10.093 28.3252C9.82046 28.9712 9.6786 29.8893 11.6458 29.3857C12.2977 29.2198 13.6197 28.5261 14.1946 28.2061L14.3079 28.1475C15.5465 27.4659 16.9451 26.4639 18.4504 25.1719C21.4139 22.6292 23.5418 19.9681 24.7805 17.2773C25.6873 15.2978 25.8409 13.1465 25.1653 11.7773C24.78 10.995 24.1343 10.4964 23.2571 10.2949C22.9784 10.2297 22.0954 9.98158 20.3831 10.5918C16.9099 11.8364 13.3532 14.4436 10.9231 16.0439C9.3703 17.0633 6.63222 18.4388 4.30298 18.4033C1.45819 18.3559 0.23117 16.7202 0.0295452 14.7822C-0.414979 10.5148 4.26742 6.69761 6.61451 5.12695C9.51282 3.18883 14.675 2.49293e-05 20.2581 0Z" fill="#394152"/>
<path fill-rule="evenodd" clip-rule="evenodd" d="M48.1741 10.3662C51.3686 10.3662 53.7813 12.7132 53.7815 15.9609C53.7815 17.739 53.0759 19.227 51.9143 20.2168L53.2063 21.9658L51.9612 22.8252L50.6282 21.0234C49.8932 21.3494 49.075 21.5264 48.1741 21.5264C44.9795 21.5263 42.5793 19.2385 42.5793 15.9609C42.5796 12.7132 44.9797 10.3663 48.1741 10.3662ZM48.1858 11.9551C45.8627 11.9552 44.3451 13.6142 44.345 15.9492L44.3391 15.9434C44.3391 18.3319 45.8863 19.9384 48.1799 19.9385C48.7133 19.9385 49.1994 19.8493 49.6379 19.7012L48.4172 18.0479L49.6497 17.1523L50.9299 18.8838C51.6352 18.1844 52.0325 17.1643 52.0325 15.9492C52.0323 13.6201 50.5091 11.9551 48.1858 11.9551Z" fill="#394152"/>
<path d="M40.4749 21.3672H38.7971V10.5264H40.4749V21.3672Z" fill="#394152"/>
</g>
<defs>
<clipPath id="clip0_30176_3778">
<rect width="54" height="32" fill="white"/>
</clipPath>
</defs>
</svg>
