<svg width="32" height="33" viewBox="0 0 32 33" fill="none" xmlns="http://www.w3.org/2000/svg">
<g clip-path="url(#clip0_30176_3785)">
<path d="M31.161 7.39771C30.508 5.33609 29.2531 3.64581 27.4347 2.3653C27.2171 2.19883 24.9506 0.393311 20.6736 0.393311C15.0906 0.393311 9.93015 3.58179 7.02338 5.52816C4.68005 7.10319 -0.00662693 10.9191 0.428747 15.1832C0.633629 17.1168 1.85012 18.7559 4.70566 18.8071C7.03619 18.8455 9.77649 17.4625 11.3259 16.4509C13.7589 14.8503 17.3059 12.2509 20.7889 10.996C22.5048 10.3813 23.3883 10.6374 23.67 10.7014C24.5536 10.9063 25.1939 11.3929 25.578 12.1868C26.2567 13.557 26.103 15.7082 25.1939 17.6802C23.9518 20.3693 21.8261 23.0328 18.8681 25.581C17.3571 26.8743 15.9614 27.8731 14.7193 28.5646L14.604 28.6286C14.0278 28.9487 12.7089 29.6402 12.0558 29.8067C10.0838 30.3061 10.2375 29.3841 10.4936 28.7439C10.6472 28.3597 11.1722 27.7066 11.8125 27.0408C12.1582 26.695 12.5168 26.3621 12.8881 26.0036C14.0918 24.8383 15.4235 23.8523 15.3339 22.5462C15.2443 21.2272 13.9894 20.3693 12.6704 20.3693C11.3515 20.3693 9.27709 21.2657 7.39473 24.0444C6.57521 25.2352 5.01298 28.3981 6.60082 30.8951C7.24107 31.8939 8.3039 32.3933 9.75088 32.3933C10.7625 32.3933 11.979 32.1756 13.3235 31.6506C17.3059 30.0628 21.4932 27.0024 23.7853 24.9535C27.3963 21.7266 29.5988 18.615 30.8409 14.7991C31.3403 13.2497 32.0574 10.2276 31.161 7.39771Z" fill="#394152"/>
</g>
<defs>
<clipPath id="clip0_30176_3785">
<rect width="32" height="32" fill="white" transform="translate(0 0.393311)"/>
</clipPath>
</defs>
</svg>
