<svg width="32" height="33" viewBox="0 0 32 33" fill="none" xmlns="http://www.w3.org/2000/svg">
<path d="M1 8.89331C1 4.75117 4.35786 1.39331 8.5 1.39331H23.5C27.6421 1.39331 31 4.75117 31 8.89331V23.8933C31 28.0354 27.6421 31.3933 23.5 31.3933H8.5C4.35786 31.3933 1 28.0354 1 23.8933V8.89331Z" fill="#1868DB"/>
<path d="M12.2172 20.2975H10.5268C7.97736 20.2975 6.14844 18.7359 6.14844 16.4494H15.2377C15.7088 16.4494 16.0136 16.784 16.0136 17.258V26.4043C13.7413 26.4043 12.2172 24.5639 12.2172 21.9985V20.2975ZM16.7064 15.7522H15.016C12.4666 15.7522 10.6376 14.2186 10.6376 11.932H19.7269C20.198 11.932 20.5305 12.2387 20.5305 12.7128V21.859C18.2582 21.859 16.7064 20.0186 16.7064 17.4532V15.7522ZM21.2233 11.2348H19.5329C16.9835 11.2348 15.1546 9.67328 15.1546 7.38672H24.2438C24.7149 7.38672 25.0197 7.72132 25.0197 8.16748V17.3138C22.7474 17.3138 21.2233 15.4734 21.2233 12.908V11.2348Z" fill="white"/>
</svg>
