<svg width="312" height="287" viewBox="0 0 312 287" fill="none" xmlns="http://www.w3.org/2000/svg">
<path fill-rule="evenodd" clip-rule="evenodd" d="M102.602 0.143555V48.5922C130.196 49.8151 151.745 72.908 151.087 100.551C150.429 128.195 127.806 150.234 100.185 150.139H49.4415V101.751H1.10547V0.143555H102.602ZM9.35603 4.98354L51.8586 47.5324L94.3512 4.98354H9.35603ZM97.8073 8.40343V48.5323H57.6921L97.8073 8.40343ZM97.7681 53.4022H54.3166L54.2766 96.911H97.7681V53.4022ZM5.9406 96.911V8.40343L49.4421 51.9522V96.951L5.9406 96.911ZM54.2353 145.3H100.144C124.691 144.812 144.518 125.091 145.165 100.521C145.811 75.9512 127.049 55.2132 102.561 53.4322V101.751H54.2353V145.3Z" fill="url(#paint0_linear_25064_10937)"/>
<path d="M272.422 220.571H266.612V189.099H271.393L271.998 192.791C274.137 189.724 277.224 188.191 281.259 188.191C285.657 188.191 288.744 189.845 290.519 193.154C292.617 189.845 296.027 188.191 300.748 188.191C304.258 188.191 306.962 189.26 308.858 191.399C310.553 193.376 311.4 196.079 311.4 199.509V220.571H305.59V199.932C305.59 195.413 303.552 193.154 299.477 193.154C297.056 193.154 295.119 194.102 293.666 195.998C292.496 197.532 291.911 199.327 291.911 201.385V220.571H286.101V199.932C286.101 195.413 284.063 193.154 279.988 193.154C277.728 193.154 275.852 194.041 274.359 195.817C273.068 197.31 272.422 199.105 272.422 201.204V220.571Z" fill="white"/>
<path d="M232.205 189.099H238.015V209.738C238.015 214.257 240.194 216.516 244.552 216.516C247.215 216.516 249.253 215.568 250.665 213.672C251.754 212.219 252.299 210.423 252.299 208.285V189.099H258.109V220.571H253.328L252.662 216.94C250.443 219.966 247.296 221.479 243.22 221.479C239.629 221.479 236.865 220.37 234.928 218.15C233.113 216.093 232.205 213.248 232.205 209.616V189.099Z" fill="white"/>
<path d="M227.044 215.911V220.874C225.551 221.278 224.119 221.479 222.747 221.479C219.842 221.479 217.663 220.571 216.21 218.756C214.959 217.263 214.334 215.265 214.334 212.764V194.062H209.673V189.099H214.334L214.697 181.533H220.144V189.099H226.923V194.062H220.144V212.885C220.144 215.225 221.254 216.395 223.473 216.395C224.522 216.395 225.713 216.234 227.044 215.911Z" fill="white"/>
<path d="M184.472 220.571H178.662V189.099H183.443L184.109 193.093C186.449 189.825 189.637 188.191 193.672 188.191C197.384 188.191 200.229 189.341 202.206 191.641C203.941 193.698 204.808 196.503 204.808 200.054V220.571H198.998V200.114C198.998 195.474 196.759 193.154 192.28 193.154C189.939 193.154 188.023 193.961 186.53 195.575C185.158 197.027 184.472 198.883 184.472 201.143V220.571Z" fill="white"/>
<path d="M165.037 211.493H171.332C170.444 214.68 168.689 217.182 166.066 218.998C163.605 220.652 160.659 221.479 157.23 221.479C152.267 221.479 148.393 219.906 145.609 216.758C143.067 213.813 141.796 209.838 141.796 204.835C141.796 199.146 143.41 194.828 146.638 191.883C149.301 189.421 152.731 188.191 156.927 188.191C161.85 188.191 165.562 189.785 168.064 192.972C170.485 196.039 171.695 200.417 171.695 206.106H147.727C147.969 209.818 149.099 212.582 151.117 214.398C152.771 215.851 154.869 216.577 157.411 216.577C159.388 216.577 161.103 216.032 162.556 214.943C163.766 214.015 164.594 212.865 165.037 211.493ZM157.048 192.851C154.466 192.851 152.388 193.658 150.814 195.272C149.321 196.765 148.373 198.843 147.969 201.506H165.764C165.562 198.48 164.553 196.22 162.737 194.727C161.285 193.477 159.388 192.851 157.048 192.851Z" fill="white"/>
<path d="M96.4628 220.571H90.6524V189.099H95.4339L96.0391 192.791C98.1777 189.724 101.264 188.191 105.299 188.191C109.698 188.191 112.784 189.845 114.56 193.154C116.658 189.845 120.067 188.191 124.788 188.191C128.299 188.191 131.002 189.26 132.899 191.399C134.593 193.376 135.441 196.079 135.441 199.509V220.571H129.63V199.932C129.63 195.413 127.593 193.154 123.517 193.154C121.096 193.154 119.16 194.102 117.707 195.998C116.537 197.532 115.952 199.327 115.952 201.385V220.571H110.141V199.932C110.141 195.413 108.104 193.154 104.028 193.154C101.769 193.154 99.8925 194.041 98.3996 195.817C97.1084 197.31 96.4628 199.105 96.4628 201.204V220.571Z" fill="white"/>
<path d="M52.9592 204.835C52.9592 199.065 54.674 194.707 58.1038 191.762C60.8476 189.381 64.3177 188.191 68.514 188.191C73.3964 188.191 77.2296 189.744 80.0138 192.851C82.6769 195.756 84.0084 199.751 84.0084 204.835C84.0084 210.524 82.3339 214.862 78.9848 217.848C76.2411 220.269 72.7306 221.479 68.4535 221.479C63.5712 221.479 59.7178 219.865 56.8933 216.637C54.2705 213.692 52.9592 209.758 52.9592 204.835ZM59.0117 204.835C59.0117 208.87 60.0406 211.957 62.0984 214.095C63.7931 215.871 65.9518 216.758 68.5746 216.758C71.6412 216.758 74.0016 215.608 75.656 213.308C77.1893 211.21 77.9559 208.386 77.9559 204.835C77.9559 200.719 76.9472 197.612 74.9297 195.514C73.2753 193.779 71.1368 192.912 68.514 192.912C65.4878 192.912 63.1273 194.062 61.4326 196.362C59.8187 198.46 59.0117 201.284 59.0117 204.835Z" fill="white"/>
<path d="M7.62612 220.571H1.81574V189.099H6.5972L7.20245 192.791C9.34099 189.724 12.4278 188.191 16.4627 188.191C20.8609 188.191 23.9476 189.845 25.723 193.154C27.8212 189.845 31.2308 188.191 35.9517 188.191C39.4622 188.191 42.1656 189.26 44.062 191.399C45.7567 193.376 46.6041 196.079 46.6041 199.509V220.571H40.7937V199.932C40.7937 195.413 38.756 193.154 34.6807 193.154C32.2597 193.154 30.3229 194.102 28.8703 195.998C27.7002 197.532 27.1151 199.327 27.1151 201.385V220.571H21.3047V199.932C21.3047 195.413 19.2671 193.154 15.1917 193.154C12.9321 193.154 11.0559 194.041 9.56292 195.817C8.27172 197.31 7.62612 199.105 7.62612 201.204V220.571Z" fill="white"/>
<path d="M161.657 274.315H155.847V242.842H160.628L161.294 246.837C163.634 243.568 166.822 241.934 170.857 241.934C174.569 241.934 177.414 243.084 179.391 245.384C181.126 247.442 181.993 250.246 181.993 253.797V274.315H176.183V253.858C176.183 249.217 173.943 246.897 169.465 246.897C167.124 246.897 165.208 247.704 163.715 249.318C162.343 250.771 161.657 252.627 161.657 254.887V274.315Z" fill="white"/>
<path d="M118.601 276.433H124.835C125.118 278.047 125.925 279.298 127.256 280.186C128.628 281.074 130.424 281.517 132.643 281.517C135.75 281.517 138.07 280.71 139.603 279.096C140.894 277.725 141.54 275.808 141.54 273.347V269.291C139.2 272.035 135.709 273.407 131.069 273.407C126.873 273.407 123.463 271.894 120.841 268.868C118.379 266.043 117.149 262.371 117.149 257.852C117.149 252.607 118.641 248.552 121.627 245.687C124.169 243.185 127.438 241.934 131.432 241.934C135.952 241.934 139.361 243.629 141.661 247.018L142.569 242.842H147.35V273.649C147.35 277.604 145.918 280.71 143.053 282.97C140.471 285.068 137.061 286.117 132.824 286.117C128.426 286.117 124.976 285.129 122.475 283.152C120.377 281.497 119.085 279.258 118.601 276.433ZM123.201 257.973C123.201 261.403 124.21 264.086 126.227 266.023C127.882 267.637 129.919 268.444 132.34 268.444C135.528 268.444 137.969 267.395 139.664 265.297C141.116 263.521 141.843 261.141 141.843 258.155C141.843 254.322 140.854 251.396 138.877 249.379C137.223 247.724 135.044 246.897 132.34 246.897C129.354 246.897 127.054 247.926 125.44 249.984C123.947 251.921 123.201 254.584 123.201 257.973Z" fill="white"/>
<path d="M110.834 237.576H104.297V230.737H110.834V237.576ZM110.471 274.315H104.661V242.842H110.471V274.315Z" fill="white"/>
<path d="M92.1476 265.781C92.1476 264.006 91.2195 262.674 89.3634 261.786C88.274 261.302 86.1556 260.697 83.0083 259.971C79.1347 259.123 76.3708 257.893 74.7164 256.279C73.3445 254.907 72.6586 253.111 72.6586 250.892C72.6586 247.946 73.8489 245.687 76.2296 244.113C78.3681 242.661 81.2531 241.934 84.8846 241.934C88.6371 241.934 91.6835 242.862 94.0238 244.718C96.0413 246.332 97.2922 248.471 97.7764 251.134H91.8449C91.159 248.067 88.8187 246.534 84.8241 246.534C82.6048 246.534 80.9505 246.938 79.861 247.745C78.9733 248.431 78.5295 249.298 78.5295 250.347C78.5295 251.638 79.0137 252.607 79.9821 253.252C80.9908 253.898 82.9478 254.544 85.853 255.189C90.2915 256.158 93.3782 257.348 95.1133 258.76C97.0501 260.334 98.0185 262.533 98.0185 265.357C98.0185 268.505 96.7273 270.986 94.1449 272.802C91.8046 274.416 88.7178 275.223 84.8846 275.223C80.6882 275.223 77.3593 274.214 74.898 272.197C72.7595 270.421 71.5691 268.121 71.327 265.297H77.2585C77.9041 268.848 80.4663 270.623 84.9451 270.623C87.3661 270.623 89.2424 270.098 90.5739 269.049C91.623 268.202 92.1476 267.113 92.1476 265.781Z" fill="white"/>
<path d="M60.1238 265.236H66.4184C65.5307 268.424 63.7755 270.926 61.1527 272.741C58.6914 274.396 55.7458 275.223 52.3161 275.223C47.3531 275.223 43.4795 273.649 40.6954 270.502C38.1533 267.556 36.8823 263.582 36.8823 258.579C36.8823 252.889 38.4963 248.572 41.7243 245.626C44.3874 243.165 47.8171 241.934 52.0135 241.934C56.9362 241.934 60.6484 243.528 63.15 246.716C65.571 249.782 66.7815 254.16 66.7815 259.85H42.8137C43.0558 263.562 44.1856 266.326 46.2031 268.141C47.8574 269.594 49.9556 270.32 52.4977 270.32C54.4748 270.32 56.1897 269.776 57.6423 268.686C58.8528 267.758 59.68 266.608 60.1238 265.236ZM52.1345 246.595C49.5521 246.595 47.4741 247.402 45.9005 249.016C44.4075 250.509 43.4593 252.587 43.0558 255.25H60.8501C60.6484 252.223 59.6396 249.964 57.8239 248.471C56.3713 247.22 54.4748 246.595 52.1345 246.595Z" fill="white"/>
<path d="M30.2019 274.315H25.4204L24.3915 269.897C21.9705 273.447 18.4802 275.223 13.9207 275.223C9.52257 275.223 6.05248 273.629 3.51044 270.441C1.17015 267.496 0 263.602 0 258.76C0 252.909 1.49294 248.511 4.47883 245.566C6.98053 243.145 10.2489 241.934 14.2839 241.934C18.6416 241.934 22.0108 243.568 24.3915 246.837V230.737H30.2019V274.315ZM6.05248 258.881C6.05248 262.795 7.02087 265.761 8.95767 267.778C10.5717 269.433 12.6497 270.26 15.1917 270.26C18.339 270.26 20.7802 269.07 22.5152 266.689C23.9678 264.631 24.6941 262.049 24.6941 258.942C24.6941 254.866 23.7257 251.759 21.7889 249.621C20.1346 247.805 17.9355 246.897 15.1917 246.897C12.1251 246.897 9.80502 248.007 8.23137 250.226C6.77878 252.244 6.05248 255.129 6.05248 258.881Z" fill="white"/>
<defs>
<linearGradient id="paint0_linear_25064_10937" x1="16.5882" y1="126.14" x2="121.585" y2="21.2572" gradientUnits="userSpaceOnUse">
<stop stop-color="#DB1F2E"/>
<stop offset="0.120191" stop-color="#F26B1D"/>
<stop offset="0.249276" stop-color="#F2990A"/>
<stop offset="0.395641" stop-color="#73A321"/>
<stop offset="0.52483" stop-color="#00A3B5"/>
<stop offset="0.668042" stop-color="#0A78CC"/>
<stop offset="0.82762" stop-color="#643ABD"/>
<stop offset="1" stop-color="#C233C4"/>
</linearGradient>
</defs>
</svg>
