<svg width="312" height="286" viewBox="0 0 312 286" fill="none" xmlns="http://www.w3.org/2000/svg">
<path fill-rule="evenodd" clip-rule="evenodd" d="M102.602 0V48.4487C130.196 49.6716 151.745 72.7645 151.087 100.408C150.429 128.051 127.806 150.09 100.185 149.996H49.4415V101.607H1.10547V0H102.602ZM9.35603 4.83999L51.8586 47.3888L94.3512 4.83999H9.35603ZM97.8073 8.25987V48.3888H57.6921L97.8073 8.25987ZM97.7681 53.2586H54.3166L54.2766 96.7674H97.7681V53.2586ZM5.9406 96.7674V8.25987L49.4421 51.8087V96.8074L5.9406 96.7674ZM54.2353 145.156H100.144C124.691 144.668 144.518 124.948 145.165 100.378C145.811 75.8077 127.049 55.0697 102.561 53.2886V101.607H54.2353V145.156Z" fill="white"/>
<path d="M272.422 220.428H266.612V188.955H271.393L271.998 192.647C274.137 189.58 277.224 188.047 281.259 188.047C285.657 188.047 288.744 189.701 290.519 193.01C292.617 189.701 296.027 188.047 300.748 188.047C304.258 188.047 306.962 189.116 308.858 191.255C310.553 193.232 311.4 195.936 311.4 199.365V220.428H305.59V199.789C305.59 195.27 303.552 193.01 299.477 193.01C297.056 193.01 295.119 193.958 293.666 195.855C292.496 197.388 291.911 199.184 291.911 201.242V220.428H286.101V199.789C286.101 195.27 284.063 193.01 279.988 193.01C277.728 193.01 275.852 193.898 274.359 195.673C273.068 197.166 272.422 198.962 272.422 201.06V220.428Z" fill="white"/>
<path d="M232.205 188.955H238.015V209.594C238.015 214.113 240.194 216.373 244.552 216.373C247.215 216.373 249.253 215.425 250.665 213.528C251.754 212.075 252.299 210.28 252.299 208.141V188.955H258.109V220.428H253.328L252.662 216.796C250.443 219.823 247.296 221.336 243.22 221.336C239.629 221.336 236.865 220.226 234.928 218.007C233.113 215.949 232.205 213.104 232.205 209.473V188.955Z" fill="white"/>
<path d="M227.044 215.767V220.731C225.551 221.134 224.119 221.336 222.747 221.336C219.842 221.336 217.663 220.428 216.21 218.612C214.959 217.119 214.334 215.122 214.334 212.62V193.918H209.673V188.955H214.334L214.697 181.389H220.144V188.955H226.923V193.918H220.144V212.741C220.144 215.082 221.254 216.252 223.473 216.252C224.522 216.252 225.713 216.09 227.044 215.767Z" fill="white"/>
<path d="M184.472 220.428H178.662V188.955H183.443L184.109 192.95C186.449 189.681 189.637 188.047 193.672 188.047C197.384 188.047 200.229 189.197 202.206 191.497C203.941 193.555 204.808 196.359 204.808 199.91V220.428H198.998V199.971C198.998 195.33 196.759 193.01 192.28 193.01C189.939 193.01 188.023 193.817 186.53 195.431C185.158 196.884 184.472 198.74 184.472 200.999V220.428Z" fill="white"/>
<path d="M165.037 211.349H171.332C170.444 214.537 168.689 217.039 166.066 218.854C163.605 220.509 160.659 221.336 157.23 221.336C152.267 221.336 148.393 219.762 145.609 216.615C143.067 213.669 141.796 209.695 141.796 204.691C141.796 199.002 143.41 194.685 146.638 191.739C149.301 189.278 152.731 188.047 156.927 188.047C161.85 188.047 165.562 189.641 168.064 192.829C170.485 195.895 171.695 200.273 171.695 205.962H147.727C147.969 209.675 149.099 212.439 151.117 214.254C152.771 215.707 154.869 216.433 157.411 216.433C159.388 216.433 161.103 215.889 162.556 214.799C163.766 213.871 164.594 212.721 165.037 211.349ZM157.048 192.708C154.466 192.708 152.388 193.515 150.814 195.129C149.321 196.621 148.373 198.699 147.969 201.363H165.764C165.562 198.336 164.553 196.077 162.737 194.584C161.285 193.333 159.388 192.708 157.048 192.708Z" fill="white"/>
<path d="M96.4628 220.428H90.6524V188.955H95.4339L96.0391 192.647C98.1777 189.58 101.264 188.047 105.299 188.047C109.698 188.047 112.784 189.701 114.56 193.01C116.658 189.701 120.067 188.047 124.788 188.047C128.299 188.047 131.002 189.116 132.899 191.255C134.593 193.232 135.441 195.936 135.441 199.365V220.428H129.63V199.789C129.63 195.27 127.593 193.01 123.517 193.01C121.096 193.01 119.16 193.958 117.707 195.855C116.537 197.388 115.952 199.184 115.952 201.242V220.428H110.141V199.789C110.141 195.27 108.104 193.01 104.028 193.01C101.769 193.01 99.8925 193.898 98.3996 195.673C97.1084 197.166 96.4628 198.962 96.4628 201.06V220.428Z" fill="white"/>
<path d="M52.9592 204.691C52.9592 198.921 54.674 194.564 58.1038 191.618C60.8476 189.237 64.3177 188.047 68.514 188.047C73.3964 188.047 77.2296 189.601 80.0138 192.708C82.6769 195.613 84.0084 199.607 84.0084 204.691C84.0084 210.381 82.3339 214.718 78.9848 217.704C76.2411 220.125 72.7306 221.336 68.4535 221.336C63.5712 221.336 59.7178 219.722 56.8933 216.494C54.2705 213.548 52.9592 209.614 52.9592 204.691ZM59.0117 204.691C59.0117 208.726 60.0406 211.813 62.0984 213.952C63.7931 215.727 65.9518 216.615 68.5746 216.615C71.6412 216.615 74.0016 215.465 75.656 213.165C77.1893 211.067 77.9559 208.242 77.9559 204.691C77.9559 200.576 76.9472 197.469 74.9297 195.371C73.2753 193.636 71.1368 192.768 68.514 192.768C65.4878 192.768 63.1273 193.918 61.4326 196.218C59.8187 198.316 59.0117 201.141 59.0117 204.691Z" fill="white"/>
<path d="M7.62612 220.428H1.81574V188.955H6.5972L7.20245 192.647C9.34099 189.58 12.4278 188.047 16.4627 188.047C20.8609 188.047 23.9476 189.701 25.723 193.01C27.8212 189.701 31.2308 188.047 35.9517 188.047C39.4622 188.047 42.1656 189.116 44.062 191.255C45.7567 193.232 46.6041 195.936 46.6041 199.365V220.428H40.7937V199.789C40.7937 195.27 38.756 193.01 34.6807 193.01C32.2597 193.01 30.3229 193.958 28.8703 195.855C27.7002 197.388 27.1151 199.184 27.1151 201.242V220.428H21.3047V199.789C21.3047 195.27 19.2671 193.01 15.1917 193.01C12.9321 193.01 11.0559 193.898 9.56292 195.673C8.27172 197.166 7.62612 198.962 7.62612 201.06V220.428Z" fill="white"/>
<path d="M161.657 274.171H155.847V242.699H160.628L161.294 246.693C163.634 243.425 166.822 241.791 170.857 241.791C174.569 241.791 177.414 242.941 179.391 245.241C181.126 247.298 181.993 250.103 181.993 253.654V274.171H176.183V253.714C176.183 249.074 173.943 246.754 169.465 246.754C167.124 246.754 165.208 247.561 163.715 249.175C162.343 250.627 161.657 252.483 161.657 254.743V274.171Z" fill="white"/>
<path d="M118.601 276.29H124.835C125.118 277.904 125.925 279.155 127.256 280.042C128.628 280.93 130.424 281.374 132.643 281.374C135.75 281.374 138.07 280.567 139.603 278.953C140.894 277.581 141.54 275.664 141.54 273.203V269.148C139.2 271.892 135.709 273.264 131.069 273.264C126.873 273.264 123.463 271.75 120.841 268.724C118.379 265.9 117.149 262.228 117.149 257.709C117.149 252.463 118.641 248.408 121.627 245.543C124.169 243.042 127.438 241.791 131.432 241.791C135.952 241.791 139.361 243.485 141.661 246.875L142.569 242.699H147.35V273.506C147.35 277.46 145.918 280.567 143.053 282.826C140.471 284.925 137.061 285.974 132.824 285.974C128.426 285.974 124.976 284.985 122.475 283.008C120.377 281.354 119.085 279.114 118.601 276.29ZM123.201 257.83C123.201 261.259 124.21 263.943 126.227 265.88C127.882 267.494 129.919 268.301 132.34 268.301C135.528 268.301 137.969 267.251 139.664 265.153C141.116 263.378 141.843 260.997 141.843 258.011C141.843 254.178 140.854 251.253 138.877 249.235C137.223 247.581 135.044 246.754 132.34 246.754C129.354 246.754 127.054 247.783 125.44 249.84C123.947 251.777 123.201 254.44 123.201 257.83Z" fill="white"/>
<path d="M110.834 237.433H104.297V230.594H110.834V237.433ZM110.471 274.171H104.661V242.699H110.471V274.171Z" fill="white"/>
<path d="M92.1476 265.637C92.1476 263.862 91.2195 262.53 89.3634 261.643C88.274 261.159 86.1556 260.553 83.0083 259.827C79.1347 258.98 76.3708 257.749 74.7164 256.135C73.3445 254.763 72.6586 252.968 72.6586 250.748C72.6586 247.803 73.8489 245.543 76.2296 243.97C78.3681 242.517 81.2531 241.791 84.8846 241.791C88.6371 241.791 91.6835 242.719 94.0238 244.575C96.0413 246.189 97.2922 248.327 97.7764 250.99H91.8449C91.159 247.924 88.8187 246.391 84.8241 246.391C82.6048 246.391 80.9505 246.794 79.861 247.601C78.9733 248.287 78.5295 249.155 78.5295 250.204C78.5295 251.495 79.0137 252.463 79.9821 253.109C80.9908 253.754 82.9478 254.4 85.853 255.046C90.2915 256.014 93.3782 257.204 95.1133 258.617C97.0501 260.19 98.0185 262.389 98.0185 265.214C98.0185 268.361 96.7273 270.843 94.1449 272.658C91.8046 274.272 88.7178 275.079 84.8846 275.079C80.6882 275.079 77.3593 274.071 74.898 272.053C72.7595 270.278 71.5691 267.978 71.327 265.153H77.2585C77.9041 268.704 80.4663 270.479 84.9451 270.479C87.3661 270.479 89.2424 269.955 90.5739 268.906C91.623 268.058 92.1476 266.969 92.1476 265.637Z" fill="white"/>
<path d="M60.1238 265.093H66.4184C65.5307 268.28 63.7755 270.782 61.1527 272.598C58.6914 274.252 55.7458 275.079 52.3161 275.079C47.3531 275.079 43.4795 273.506 40.6954 270.358C38.1533 267.413 36.8823 263.438 36.8823 258.435C36.8823 252.746 38.4963 248.428 41.7243 245.483C44.3874 243.021 47.8171 241.791 52.0135 241.791C56.9362 241.791 60.6484 243.384 63.15 246.572C65.571 249.639 66.7815 254.017 66.7815 259.706H42.8137C43.0558 263.418 44.1856 266.182 46.2031 267.998C47.8574 269.451 49.9556 270.177 52.4977 270.177C54.4748 270.177 56.1897 269.632 57.6423 268.543C58.8528 267.615 59.68 266.465 60.1238 265.093ZM52.1345 246.451C49.5521 246.451 47.4741 247.258 45.9005 248.872C44.4075 250.365 43.4593 252.443 43.0558 255.106H60.8501C60.6484 252.08 59.6396 249.82 57.8239 248.327C56.3713 247.077 54.4748 246.451 52.1345 246.451Z" fill="white"/>
<path d="M30.2019 274.171H25.4204L24.3915 269.753C21.9705 273.304 18.4802 275.079 13.9207 275.079C9.52257 275.079 6.05248 273.485 3.51044 270.298C1.17015 267.352 0 263.459 0 258.617C0 252.766 1.49294 248.368 4.47883 245.422C6.98053 243.001 10.2489 241.791 14.2839 241.791C18.6416 241.791 22.0108 243.425 24.3915 246.693V230.594H30.2019V274.171ZM6.05248 258.738C6.05248 262.652 7.02087 265.617 8.95767 267.635C10.5717 269.289 12.6497 270.116 15.1917 270.116C18.339 270.116 20.7802 268.926 22.5152 266.545C23.9678 264.487 24.6941 261.905 24.6941 258.798C24.6941 254.723 23.7257 251.616 21.7889 249.477C20.1346 247.662 17.9355 246.754 15.1917 246.754C12.1251 246.754 9.80502 247.863 8.23137 250.083C6.77878 252.1 6.05248 254.985 6.05248 258.738Z" fill="white"/>
</svg>
