<svg width="150" height="151" viewBox="0 0 150 151" fill="none" xmlns="http://www.w3.org/2000/svg">
<path fill-rule="evenodd" clip-rule="evenodd" d="M101.499 0.143677V48.5936C129.094 49.8165 150.643 72.91 149.985 100.554C149.327 128.198 126.704 150.238 99.0819 150.143H48.3373V101.753H0V0.143677H101.499ZM8.25077 4.98379L50.7544 47.5337L93.248 4.98379H8.25077ZM96.7043 8.40376V48.5337H56.588L96.7043 8.40376ZM96.6651 53.4037H53.2125L53.1725 96.9136H96.6651V53.4037ZM4.83526 96.9136V8.40376L48.3378 51.9537V96.9536L4.83526 96.9136ZM53.1312 145.303H99.0411C123.589 144.815 143.416 125.095 144.063 100.524C144.709 75.9533 125.946 55.2148 101.458 53.4337V101.754H53.1312V145.303Z" fill="white"/>
</svg>
