<svg width="33" height="33" viewBox="0 0 33 33" fill="none" xmlns="http://www.w3.org/2000/svg">
<path d="M22.5356 13.0144H30.3609C31.1002 13.0144 31.6996 13.6138 31.6996 14.353V21.4809C31.6996 24.198 29.4969 26.4007 26.7798 26.4007H26.7565C24.0394 26.4011 21.8364 24.1987 21.8359 21.4816C21.8359 21.4814 21.8359 21.4811 21.8359 21.4809V13.7139C21.8359 13.3277 22.1492 13.0144 22.5356 13.0144Z" fill="#5059C9"/>
<path d="M27.8247 11.6053C29.5757 11.6053 30.9952 10.1858 30.9952 8.43483C30.9952 6.68385 29.5757 5.2644 27.8247 5.2644C26.0737 5.2644 24.6543 6.68385 24.6543 8.43483C24.6543 10.1858 26.0737 11.6053 27.8247 11.6053Z" fill="#5059C9"/>
<path d="M17.9604 11.6052C20.4897 11.6052 22.54 9.55484 22.54 7.02562C22.54 4.49639 20.4897 2.44604 17.9604 2.44604C15.4312 2.44604 13.3809 4.49639 13.3809 7.02562C13.3809 9.55484 15.4312 11.6052 17.9604 11.6052Z" fill="#7B83EB"/>
<path d="M24.0682 13.0144H11.1511C10.4206 13.0325 9.84276 13.6387 9.85962 14.3692V22.499C9.75761 26.8827 13.2258 30.5207 17.6096 30.628C21.9934 30.5207 25.4616 26.8828 25.3596 22.499V14.3692C25.3765 13.6388 24.7986 13.0325 24.0682 13.0144Z" fill="#7B83EB"/>
<path opacity="0.1" d="M18.3123 13.0144V24.4069C18.3088 24.9294 17.9922 25.3987 17.5091 25.5976C17.3552 25.6626 17.1899 25.6962 17.023 25.6962H10.4778C10.3862 25.4637 10.3017 25.2312 10.2312 24.9916C9.9846 24.1832 9.85885 23.3428 9.85779 22.4976V14.3672C9.84083 13.6378 10.4177 13.0325 11.1471 13.0144H18.3123Z" fill="black"/>
<path opacity="0.2" d="M17.6078 13.0144V25.1115C17.6078 25.2785 17.5742 25.4439 17.5092 25.5976C17.3103 26.0807 16.8409 26.3973 16.3185 26.4008H10.8089C10.6892 26.1683 10.5764 25.9358 10.4778 25.6962C10.3792 25.4566 10.3017 25.2312 10.2312 24.9916C9.9846 24.1832 9.85885 23.3428 9.85779 22.4976V14.3672C9.84083 13.6378 10.4177 13.0325 11.1471 13.0144H17.6078Z" fill="black"/>
<path opacity="0.2" d="M17.6079 13.0144V23.7023C17.6026 24.4121 17.0284 24.9863 16.3186 24.9916H10.2312C9.9846 24.1832 9.85885 23.3428 9.85779 22.4976V14.3672C9.84083 13.6378 10.4177 13.0325 11.1471 13.0144H17.6079Z" fill="black"/>
<path opacity="0.2" d="M16.9033 13.0144V23.7023C16.898 24.4121 16.3238 24.9863 15.614 24.9916H10.2312C9.9846 24.1832 9.85885 23.3428 9.85779 22.4976V14.3672C9.84083 13.6378 10.4177 13.0325 11.1471 13.0144H16.9033Z" fill="black"/>
<path opacity="0.1" d="M18.3127 9.37158V11.5909C18.193 11.598 18.0802 11.6049 17.9605 11.6049C17.8407 11.6049 17.728 11.5979 17.6082 11.5909C17.3704 11.5751 17.1346 11.5373 16.9037 11.4781C15.477 11.1403 14.2982 10.1398 13.7332 8.78685C13.636 8.55968 13.5605 8.32378 13.5078 8.08228H17.0235C17.7344 8.08499 18.3101 8.66062 18.3127 9.37158Z" fill="black"/>
<path opacity="0.2" d="M17.6094 10.0762V11.5909C17.3715 11.5751 17.1358 11.5373 16.9048 11.4781C15.4781 11.1403 14.2993 10.1398 13.7344 8.78687H16.3201C17.031 8.78958 17.6067 9.36521 17.6094 10.0762Z" fill="black"/>
<path opacity="0.2" d="M17.6094 10.0762V11.5909C17.3715 11.5751 17.1358 11.5373 16.9048 11.4781C15.4781 11.1403 14.2993 10.1398 13.7344 8.78687H16.3201C17.031 8.78958 17.6067 9.36521 17.6094 10.0762Z" fill="black"/>
<path opacity="0.2" d="M16.9048 10.0762V11.4782C15.4781 11.1403 14.2993 10.1398 13.7344 8.78687H15.6155C16.3265 8.78958 16.9021 9.36521 16.9048 10.0762Z" fill="black"/>
<path d="M2.69574 8.78687H15.6129C16.326 8.78687 16.9043 9.36511 16.9043 10.0783V22.9954C16.9043 23.7086 16.326 24.2869 15.6129 24.2869H2.69574C1.98254 24.2869 1.4043 23.7086 1.4043 22.9954V10.0783C1.4043 9.36511 1.98254 8.78687 2.69574 8.78687Z" fill="url(#paint0_linear_27213_1778)"/>
<path d="M12.5534 13.7034H9.97118V20.7347H8.32605V13.7034H5.75586V12.3394H12.5533C12.5534 12.3394 12.5534 13.7034 12.5534 13.7034Z" fill="white"/>
<defs>
<linearGradient id="paint0_linear_27213_1778" x1="4.09694" y1="7.77782" x2="14.2117" y2="25.2959" gradientUnits="userSpaceOnUse">
<stop stop-color="#5A62C3"/>
<stop offset="0.5" stop-color="#4D55BD"/>
<stop offset="1" stop-color="#3940AB"/>
</linearGradient>
</defs>
</svg>
