<svg width="33" height="33" viewBox="0 0 33 33" fill="none" xmlns="http://www.w3.org/2000/svg">
<path d="M21.9913 13.2117H29.0594C29.7271 13.2117 30.2684 13.753 30.2684 14.4207V20.8588C30.2684 23.313 28.279 25.3025 25.8248 25.3025H25.8038C23.3496 25.3029 21.3598 23.3136 21.3594 20.8594C21.3594 20.8593 21.3594 20.859 21.3594 20.8588V13.8435C21.3594 13.4946 21.6424 13.2117 21.9913 13.2117Z" fill="#5059C9"/>
<path d="M26.7679 11.9389C28.3494 11.9389 29.6315 10.6568 29.6315 9.07528C29.6315 7.49375 28.3494 6.21167 26.7679 6.21167C25.1864 6.21167 23.9043 7.49375 23.9043 9.07528C23.9043 10.6568 25.1864 11.9389 26.7679 11.9389Z" fill="#5059C9"/>
<path d="M17.859 11.9388C20.1435 11.9388 21.9954 10.0869 21.9954 7.8024C21.9954 5.51794 20.1435 3.66602 17.859 3.66602C15.5746 3.66602 13.7227 5.51794 13.7227 7.8024C13.7227 10.0869 15.5746 11.9388 17.859 11.9388Z" fill="#7B83EB"/>
<path d="M23.3746 13.2117H11.7075C11.0478 13.228 10.5258 13.7755 10.541 14.4354V21.7784C10.4489 25.7379 13.5815 29.0238 17.541 29.1207C21.5006 29.0238 24.6332 25.738 24.541 21.7784V14.4354C24.5563 13.7756 24.0343 13.228 23.3746 13.2117Z" fill="#7B83EB"/>
<path opacity="0.1" d="M18.1757 13.2117V23.5017C18.1725 23.9736 17.8866 24.3975 17.4502 24.5771C17.3113 24.6358 17.1619 24.6662 17.0112 24.6662H11.0994C11.0167 24.4562 10.9403 24.2462 10.8767 24.0298C10.6539 23.2996 10.5404 22.5406 10.5394 21.7771V14.4335C10.5241 13.7747 11.0451 13.228 11.7039 13.2117H18.1757Z" fill="black"/>
<path opacity="0.2" d="M17.5394 13.2117V24.1381C17.5394 24.2889 17.509 24.4383 17.4503 24.5771C17.2707 25.0135 16.8467 25.2994 16.3749 25.3026H11.3985C11.2903 25.0926 11.1885 24.8826 11.0994 24.6662C11.0103 24.4498 10.9403 24.2462 10.8767 24.0298C10.6539 23.2996 10.5404 22.5406 10.5394 21.7771V14.4335C10.5241 13.7747 11.0451 13.228 11.7039 13.2117H17.5394Z" fill="black"/>
<path opacity="0.2" d="M17.5395 13.2117V22.8653C17.5347 23.5064 17.0161 24.025 16.3749 24.0298H10.8767C10.6539 23.2996 10.5404 22.5406 10.5394 21.7771V14.4335C10.5241 13.7747 11.0451 13.228 11.7039 13.2117H17.5395Z" fill="black"/>
<path opacity="0.2" d="M16.9031 13.2117V22.8653C16.8983 23.5064 16.3797 24.025 15.7386 24.0298H10.8767C10.6539 23.2996 10.5404 22.5406 10.5394 21.7771V14.4335C10.5241 13.7747 11.0451 13.228 11.7039 13.2117H16.9031Z" fill="black"/>
<path opacity="0.1" d="M18.1758 9.92137V11.9259C18.0677 11.9323 17.9658 11.9386 17.8577 11.9386C17.7496 11.9386 17.6477 11.9322 17.5396 11.9259C17.3247 11.9116 17.1118 11.8775 16.9032 11.8241C15.6145 11.5189 14.5498 10.6152 14.0395 9.39322C13.9517 9.18804 13.8835 8.97497 13.8359 8.75684H17.0114C17.6535 8.75929 18.1735 9.27921 18.1758 9.92137Z" fill="black"/>
<path opacity="0.2" d="M17.541 10.5578V11.926C17.3262 11.9117 17.1132 11.8776 16.9046 11.8241C15.616 11.519 14.5513 10.6153 14.041 9.39331H16.3765C17.0186 9.39576 17.5386 9.91569 17.541 10.5578Z" fill="black"/>
<path opacity="0.2" d="M17.541 10.5578V11.926C17.3262 11.9117 17.1132 11.8776 16.9046 11.8241C15.616 11.519 14.5513 10.6153 14.041 9.39331H16.3765C17.0186 9.39576 17.5386 9.91569 17.541 10.5578Z" fill="black"/>
<path opacity="0.2" d="M16.9046 10.5578V11.8242C15.616 11.519 14.5513 10.6153 14.041 9.39331H15.7401C16.3823 9.39576 16.9022 9.91569 16.9046 10.5578Z" fill="black"/>
<path d="M4.07076 9.39331H15.7378C16.382 9.39331 16.9043 9.9156 16.9043 10.5598V22.2268C16.9043 22.871 16.382 23.3933 15.7378 23.3933H4.07076C3.42658 23.3933 2.9043 22.871 2.9043 22.2268V10.5598C2.9043 9.9156 3.42658 9.39331 4.07076 9.39331Z" fill="url(#paint0_linear_27213_1778)"/>
<path d="M12.9737 13.8341H10.6414V20.185H9.15545V13.8341H6.83398V12.6021H12.9736C12.9737 12.6021 12.9737 13.8341 12.9737 13.8341Z" fill="white"/>
<defs>
<linearGradient id="paint0_linear_27213_1778" x1="5.33636" y1="8.48191" x2="14.4722" y2="24.3047" gradientUnits="userSpaceOnUse">
<stop stop-color="#5A62C3"/>
<stop offset="0.5" stop-color="#4D55BD"/>
<stop offset="1" stop-color="#3940AB"/>
</linearGradient>
</defs>
</svg>
