<svg width="57" height="54" viewBox="0 0 57 54" fill="none" xmlns="http://www.w3.org/2000/svg">
<g clip-path="url(#clip0_27222_2030)">
<path d="M5.25016 27.09C5.25016 18.1 15.6302 10.8 28.4402 10.8C12.7902 10.81 0.160156 17.4001 0.160156 27.2901C0.160156 37.18 12.7902 43.3801 28.4402 43.3801C15.6302 43.3801 5.25016 36.09 5.25016 27.08V27.09Z" fill="#6292AE"/>
<path d="M28.4395 10.8101C41.2495 10.8101 51.6295 18.1001 51.6295 27.1001C51.6295 36.1001 41.2495 43.4001 28.4395 43.4001C44.0995 43.4001 56.8395 37.2101 56.8395 27.3101C56.8395 17.4101 44.0895 10.8201 28.4395 10.8201V10.8101Z" fill="#6292AE"/>
<path d="M3.81055 53.9899C10.0105 37.7099 32.0905 -17.0201 31.1405 31.6399C30.7805 26.0999 32.8805 -9.08007 4.14055 53.9899H3.81055Z" fill="#1E4973"/>
<path d="M52.6093 0C46.0893 17.02 24.5993 69.74 25.5293 21.7C25.8893 27.21 23.8093 62.14 52.1893 0.09L52.6093 0Z" fill="#1E4973"/>
</g>
<defs>
<clipPath id="clip0_27222_2030">
<rect width="57" height="54" fill="white"/>
</clipPath>
</defs>
</svg>
