<svg width="145" height="55" viewBox="0 0 145 55" fill="none" xmlns="http://www.w3.org/2000/svg">
<g clip-path="url(#clip0_27221_1931)">
<path d="M5.25016 27.5637C5.25016 18.5737 15.6302 11.2737 28.4402 11.2737C12.7902 11.2837 0.160156 17.8737 0.160156 27.7637C0.160156 37.6537 12.7902 43.8537 28.4402 43.8537C15.6302 43.8537 5.25016 36.5637 5.25016 27.5537V27.5637Z" fill="#6292AE"/>
<path d="M28.4395 11.2837C41.2495 11.2837 51.6295 18.5737 51.6295 27.5737C51.6295 36.5737 41.2495 43.8737 28.4395 43.8737C44.0995 43.8737 56.8395 37.6837 56.8395 27.7837C56.8395 17.8837 44.0895 11.2937 28.4395 11.2937V11.2837Z" fill="#6292AE"/>
<path d="M3.81055 54.4636C10.0105 38.1836 32.0905 -16.5464 31.1405 32.1136C30.7805 26.5736 32.8805 -8.60644 4.14055 54.4636H3.81055Z" fill="#1E4973"/>
<path d="M52.6093 0.473633C46.0893 17.4936 24.5993 70.2136 25.5293 22.1736C25.8893 27.6836 23.8093 62.6136 52.1893 0.563633L52.6093 0.473633Z" fill="#1E4973"/>
<path d="M60.1406 13.6536L73.4506 27.5936V14.3736H75.3606V32.2036L62.0506 18.2936V31.4336H60.1406V13.6536Z" fill="#1E4973"/>
<path d="M81.7209 22.1637C83.9509 22.1637 85.4909 23.9537 85.4909 26.1137C85.4909 28.2737 83.9509 30.0637 81.7209 30.0637C79.4909 30.0637 77.9509 28.2937 77.9509 26.1137C77.9509 23.9337 79.4809 22.1637 81.7209 22.1637ZM81.7209 31.7337C84.8109 31.7337 87.3109 29.2737 87.3109 26.1437C87.3109 23.0137 84.8309 20.5037 81.7209 20.5037C78.6109 20.5037 76.1309 23.0037 76.1309 26.1437C76.1309 29.2837 78.6309 31.7337 81.7209 31.7337Z" fill="#1E4973"/>
<path d="M89.7299 21.9337H89.7799C90.4099 21.1037 90.9599 20.4937 92.1299 20.4937C92.7399 20.4937 93.2399 20.6937 93.7599 20.9937L92.8999 22.6337C92.5399 22.3837 92.2899 22.1637 91.8199 22.1637C89.8299 22.1637 89.7399 24.7237 89.7399 26.1137V31.4437H87.9199V20.7937H89.7399V21.9437L89.7299 21.9337Z" fill="#1E4973"/>
<path d="M97.0296 31.4336H95.2096V22.4436H94.0996V20.7836H95.2096V16.9536H97.0296V20.7836H98.9296V22.4436H97.0296V31.4336Z" fill="#1E4973"/>
<path d="M101.249 12.7537V22.0237L101.299 22.0737C102.049 21.0637 103.019 20.5037 104.319 20.5037C107.269 20.5037 107.949 22.6237 107.949 25.1137V31.4437H106.129V25.4337C106.129 23.7137 105.999 22.1637 103.899 22.1637C101.419 22.1637 101.259 24.4737 101.259 26.3837V31.4437H99.4395V12.7537H101.259H101.249Z" fill="#1E4973"/>
<path d="M110.89 31.4337H109.07V12.7537H110.89V31.4337Z" fill="#1E4973"/>
<path d="M117.31 22.1637C119.55 22.1637 120.89 23.8937 120.89 26.0237C120.89 28.1537 119.67 30.0637 117.33 30.0637C114.99 30.0637 113.84 28.0837 113.84 25.9937C113.84 23.9037 115.2 22.1537 117.31 22.1537V22.1637ZM122.62 20.7837H120.8V22.2937H120.76C119.88 21.1737 118.56 20.4937 117.11 20.4937C113.91 20.4937 111.98 23.0937 111.98 26.1337C111.98 29.1737 113.96 31.7237 117.08 31.7237C118.57 31.7237 119.82 31.1337 120.75 29.9637H120.79V31.4237H122.61V20.7737L122.62 20.7837Z" fill="#1E4973"/>
<path d="M125.96 22.0737H126.01C126.75 21.0637 127.73 20.5037 129.04 20.5037C131.99 20.5037 132.67 22.6237 132.67 25.1137V31.4437H130.85V25.4337C130.85 23.7137 130.72 22.1637 128.62 22.1637C126.14 22.1637 125.98 24.4737 125.98 26.3837V31.4437H124.16V20.7937H125.98V22.0737H125.96Z" fill="#1E4973"/>
<path d="M139.15 22.1637C141.39 22.1637 142.73 23.8937 142.73 26.0237C142.73 28.1537 141.51 30.0637 139.17 30.0637C136.83 30.0637 135.68 28.0837 135.68 25.9937C135.68 23.9037 137.04 22.1537 139.15 22.1537V22.1637ZM142.64 31.4337H144.46V12.7537H142.64V22.2937H142.6C141.74 21.1737 140.38 20.4937 138.95 20.4937C135.76 20.4937 133.82 23.0937 133.82 26.1337C133.82 29.1737 135.8 31.7237 138.93 31.7237C140.38 31.7237 141.72 31.1137 142.6 29.9637H142.64V31.4237V31.4337Z" fill="#1E4973"/>
<path d="M64.2495 37.2636C63.9795 38.0536 63.1795 38.6636 62.1995 38.6636C60.8995 38.6636 59.9395 37.6436 59.9395 36.4136C59.9395 35.1836 60.8595 34.1736 62.1895 34.1736C63.3495 34.1736 64.0395 34.9936 64.2495 35.5936H63.5195C63.3795 35.3136 62.9395 34.7836 62.1795 34.7836C61.2595 34.7836 60.6195 35.5336 60.6195 36.4136C60.6195 37.2936 61.2695 38.0536 62.1795 38.0536C63.0195 38.0536 63.4195 37.4236 63.5095 37.2636H64.2295H64.2495Z" fill="#6292AE"/>
<path d="M67.0098 36.4436C67.0098 35.0836 68.0598 34.1736 69.2698 34.1736C70.5598 34.1736 71.5398 35.1736 71.5398 36.4136C71.5398 37.6536 70.5698 38.6536 69.2698 38.6536C67.9698 38.6536 67.0198 37.6336 67.0198 36.4436H67.0098ZM67.6898 36.4136C67.6898 37.3136 68.3598 38.0536 69.2798 38.0536C70.1998 38.0536 70.8498 37.2636 70.8498 36.4236C70.8498 35.5836 70.2298 34.7836 69.2798 34.7836C68.3298 34.7836 67.6998 35.5436 67.6998 36.4136H67.6898Z" fill="#6292AE"/>
<path d="M74.5 38.5737V34.2537H75.45L76.79 37.6037L78.12 34.2537H79.06V38.5737H78.42L78.44 34.9337L77.01 38.5737H76.56L75.13 34.9337L75.15 38.5737H74.51H74.5Z" fill="#6292AE"/>
<path d="M82.2305 38.5737V34.2537H83.1805L84.5205 37.6037L85.8505 34.2537H86.7905V38.5737H86.1505L86.1705 34.9337L84.7405 38.5737H84.2905L82.8605 34.9337L82.8805 38.5737H82.2405H82.2305Z" fill="#6292AE"/>
<path d="M90.6406 34.2537V36.9537C90.6406 37.2237 90.6406 37.4537 90.8006 37.7037C90.9306 37.9037 91.1706 38.0437 91.4706 38.0437C91.7706 38.0437 92.0106 37.9137 92.1206 37.7137C92.2806 37.4637 92.2806 37.2337 92.2806 36.9537V34.2537H92.9606V36.9537C92.9606 37.5237 92.8706 37.9637 92.4906 38.2837C92.2306 38.5137 91.8906 38.6637 91.4606 38.6637C91.1506 38.6637 90.7106 38.5737 90.4106 38.2937C89.9806 37.9137 89.9306 37.4837 89.9406 36.9637V34.2637H90.6306L90.6406 34.2537Z" fill="#6292AE"/>
<path d="M99.0111 37.5437V34.2537H99.6611V38.5737H99.0311L96.7711 35.2837V38.5737H96.1211V34.2537H96.7711L99.0111 37.5437Z" fill="#6292AE"/>
<path d="M102.83 34.2537H103.52V38.5737H102.83V34.2537Z" fill="#6292AE"/>
<path d="M110.82 37.2636C110.55 38.0536 109.75 38.6636 108.77 38.6636C107.47 38.6636 106.51 37.6436 106.51 36.4136C106.51 35.1836 107.43 34.1736 108.76 34.1736C109.92 34.1736 110.61 34.9936 110.82 35.5936H110.09C109.95 35.3136 109.51 34.7836 108.75 34.7836C107.83 34.7836 107.19 35.5336 107.19 36.4136C107.19 37.2936 107.84 38.0536 108.76 38.0536C109.59 38.0536 110 37.4236 110.09 37.2636H110.81H110.82Z" fill="#6292AE"/>
<path d="M113.85 38.5737H113.1L114.87 34.2537H115.49L117.24 38.5737H116.49L116.08 37.5537H114.23L113.83 38.5737H113.85ZM115.16 35.0537L114.43 36.9937H115.9L115.16 35.0537Z" fill="#6292AE"/>
<path d="M120.25 34.8637H119.26V34.2537H121.93V34.8637H120.94V38.5737H120.25V34.8637Z" fill="#6292AE"/>
<path d="M124.73 34.2537H125.42V38.5737H124.73V34.2537Z" fill="#6292AE"/>
<path d="M128.4 36.4436C128.4 35.0836 129.45 34.1736 130.66 34.1736C131.95 34.1736 132.93 35.1736 132.93 36.4136C132.93 37.6536 131.96 38.6536 130.66 38.6536C129.36 38.6536 128.41 37.6336 128.41 36.4436H128.4ZM129.08 36.4136C129.08 37.3136 129.75 38.0536 130.67 38.0536C131.59 38.0536 132.23 37.2636 132.23 36.4236C132.23 35.5836 131.61 34.7836 130.66 34.7836C129.71 34.7836 129.08 35.5436 129.08 36.4136Z" fill="#6292AE"/>
<path d="M138.79 37.5437V34.2537H139.44V38.5737H138.81L136.55 35.2837V38.5737H135.9V34.2537H136.55L138.79 37.5437Z" fill="#6292AE"/>
<path d="M143.08 37.2936C143.13 37.9436 143.58 38.0736 143.81 38.0736C144.2 38.0736 144.53 37.7736 144.53 37.3836C144.53 36.9036 144.12 36.7936 143.57 36.5936C143.23 36.4836 142.48 36.2336 142.48 35.4236C142.48 34.6136 143.16 34.1836 143.84 34.1836C144.39 34.1836 145.09 34.4836 145.14 35.3736H144.46C144.41 35.1436 144.31 34.7636 143.81 34.7636C143.46 34.7636 143.16 35.0036 143.16 35.3736C143.16 35.7936 143.48 35.9036 144.18 36.1536C144.72 36.3836 145.22 36.6536 145.22 37.3536C145.22 38.0536 144.75 38.6636 143.82 38.6636C142.96 38.6636 142.41 38.1336 142.4 37.3036H143.08V37.2936Z" fill="#6292AE"/>
</g>
<defs>
<clipPath id="clip0_27221_1931">
<rect width="145" height="54" fill="white" transform="translate(0 0.473633)"/>
</clipPath>
</defs>
</svg>
