<svg width="57" height="55" viewBox="0 0 57 55" fill="none" xmlns="http://www.w3.org/2000/svg">
<g clip-path="url(#clip0_27222_2030)">
<path d="M5.25016 27.4201C5.25016 18.4301 15.6302 11.1301 28.4402 11.1301C12.7902 11.1401 0.160156 17.7301 0.160156 27.6201C0.160156 37.5101 12.7902 43.7101 28.4402 43.7101C15.6302 43.7101 5.25016 36.4201 5.25016 27.4101V27.4201Z" fill="#6292AE"/>
<path d="M28.4395 11.1401C41.2495 11.1401 51.6295 18.4301 51.6295 27.4301C51.6295 36.4301 41.2495 43.7301 28.4395 43.7301C44.0995 43.7301 56.8395 37.5401 56.8395 27.6401C56.8395 17.7401 44.0895 11.1501 28.4395 11.1501V11.1401Z" fill="#6292AE"/>
<path d="M3.81055 54.32C10.0105 38.04 32.0905 -16.69 31.1405 31.97C30.7805 26.43 32.8805 -8.74999 4.14055 54.32H3.81055Z" fill="#1E4973"/>
<path d="M52.6093 0.330078C46.0893 17.3501 24.5993 70.0701 25.5293 22.0301C25.8893 27.5401 23.8093 62.4701 52.1893 0.420078L52.6093 0.330078Z" fill="#1E4973"/>
</g>
<defs>
<clipPath id="clip0_27222_2030">
<rect width="57" height="54" fill="white" transform="translate(0 0.330078)"/>
</clipPath>
</defs>
</svg>
