<svg width="32" height="32" viewBox="0 0 32 32" fill="none" xmlns="http://www.w3.org/2000/svg">
<rect x="4" y="11" width="25" height="8" fill="white"/>
<path d="M8.95801 15.4189C9.20226 15.4223 9.42121 15.4576 9.42969 15.459V16.25C9.42009 16.252 9.20395 16.2968 8.96094 16.3115C8.60902 16.3328 8.45287 16.2113 8.45117 16.21C8.38328 16.1557 8.37359 16.1424 8.35059 16.1074C8.31637 16.054 8.29883 15.9774 8.29883 15.8809C8.29891 15.7281 8.34947 15.6179 8.4541 15.5439C8.46219 15.5371 8.61325 15.4145 8.95801 15.4189Z" fill="#179CD7"/>
<path d="M12.8467 14.4092C13.0746 14.4092 13.2255 14.499 13.334 14.6611C13.4052 14.7682 13.4368 14.9122 13.4492 15.0713H12.209C12.2338 14.9062 12.2792 14.7682 12.3496 14.6611C12.456 14.4985 12.6186 14.4092 12.8467 14.4092Z" fill="#179CD7"/>
<path d="M19.8398 14.4199C20.0678 14.4199 20.2313 14.499 20.3398 14.6611C20.4488 14.8252 20.5049 15.06 20.5049 15.3574C20.5048 15.6551 20.4492 15.8899 20.3398 16.0557C20.2317 16.2196 20.0679 16.2998 19.8398 16.2998C19.6112 16.2998 19.4482 16.2201 19.3418 16.0557C19.2341 15.8903 19.1797 15.6551 19.1797 15.3574C19.1797 15.06 19.2341 14.8252 19.3418 14.6611C19.4482 14.4988 19.6112 14.4199 19.8398 14.4199Z" fill="#179CD7"/>
<path d="M26.7725 14.4092C27.0005 14.4092 27.1517 14.4989 27.2598 14.6611C27.3314 14.7682 27.3626 14.9122 27.375 15.0713H26.1348C26.1592 14.9062 26.205 14.7682 26.2754 14.6611C26.3819 14.4986 26.5444 14.4092 26.7725 14.4092Z" fill="#179CD7"/>
<path fill-rule="evenodd" clip-rule="evenodd" d="M8.85156 5.5C10.7408 5.50009 12.4199 6.39824 13.4844 7.79004C14.4518 6.78212 15.7986 6.15734 17.2881 6.15723C19.2684 6.15723 20.9969 7.26108 21.917 8.90039C22.7165 8.54327 23.6012 8.34477 24.5322 8.34473C28.1039 8.34473 30.9999 11.2653 31 14.8682C31 18.4716 28.104 21.3926 24.5322 21.3926C24.1045 21.3928 23.6781 21.3503 23.2588 21.2656C22.4487 22.7108 20.904 23.6875 19.1318 23.6875C18.39 23.6875 17.6882 23.5166 17.0635 23.2119C16.2421 25.1438 14.3287 26.4979 12.0986 26.498C9.77607 26.498 7.79601 25.0289 7.03613 22.9678C6.70417 23.0382 6.35975 23.0742 6.00684 23.0742C3.24172 23.0741 1.00011 20.8099 1 18.0156C1 16.1429 2.00733 14.5076 3.50391 13.6328C3.19583 12.9238 3.02441 12.141 3.02441 11.3184C3.02465 8.10489 5.63376 5.5 8.85156 5.5ZM18.4717 12.832C18.1571 12.832 17.9092 12.9205 17.7354 13.0957C17.5622 13.2701 17.4447 13.5357 17.3857 13.8848L17.3643 14.002H16.9697C16.9697 14.002 16.9215 14.0006 16.9111 14.0527L16.8467 14.4141C16.842 14.4483 16.8572 14.4707 16.9033 14.4707H17.2871L16.8975 16.6465C16.8672 16.8217 16.832 16.9658 16.793 17.0752C16.755 17.1827 16.718 17.2633 16.6719 17.3223C16.6276 17.3787 16.5854 17.421 16.5127 17.4453C16.4531 17.4654 16.384 17.4746 16.3086 17.4746C16.2667 17.4746 16.2104 17.4674 16.1689 17.459C16.128 17.4508 16.1063 17.4419 16.0752 17.4287C16.0752 17.4287 16.0296 17.4122 16.0117 17.457C15.9971 17.4953 15.8952 17.776 15.8828 17.8105C15.871 17.8449 15.8885 17.8719 15.9102 17.8799C15.9613 17.8978 15.9998 17.9101 16.0693 17.9268C16.1657 17.9492 16.247 17.9502 16.3232 17.9502C16.4831 17.9502 16.63 17.9273 16.751 17.8838C16.8721 17.8397 16.9784 17.7634 17.0723 17.6602C17.1734 17.5482 17.2373 17.4314 17.2979 17.2715C17.3581 17.1134 17.4092 16.9163 17.4502 16.6875L17.8428 14.4707H18.415C18.415 14.4707 18.4638 14.4714 18.4736 14.4199L18.5381 14.0586C18.5423 14.024 18.528 14.002 18.4814 14.002H17.9258L17.9277 13.9854C17.9362 13.9323 17.9634 13.7672 18.0176 13.6104C18.0448 13.5323 18.0955 13.4684 18.1387 13.4248C18.1814 13.3821 18.2313 13.3514 18.2852 13.334C18.3402 13.316 18.4031 13.3076 18.4717 13.3076C18.5238 13.3076 18.5754 13.3131 18.6143 13.3213C18.6679 13.3328 18.6889 13.3384 18.7031 13.3428C18.76 13.3598 18.7681 13.3437 18.7793 13.3164L18.9121 12.9512C18.9255 12.9122 18.8921 12.8954 18.8799 12.8906C18.8244 12.8735 18.7738 12.862 18.708 12.8496C18.6413 12.8377 18.5618 12.832 18.4717 12.832ZM6.375 13.9414C5.81183 13.9414 5.41904 14.281 5.41895 14.7686V14.7793C5.41914 15.2931 5.85245 15.46 6.25879 15.5762L6.3252 15.5967C6.62071 15.6876 6.87477 15.7655 6.875 15.9736V15.9844C6.87486 16.1748 6.7096 16.3163 6.44238 16.3164C6.33854 16.3164 6.00711 16.314 5.64941 16.0879C5.62466 16.0735 5.60576 16.0614 5.58789 16.0498C5.57466 16.0412 5.56201 16.0329 5.54785 16.0244C5.53034 16.0132 5.48601 15.9946 5.4668 16.0527L5.3457 16.3896C5.33044 16.4297 5.34453 16.4435 5.35352 16.4521L5.3584 16.457C5.40308 16.4896 5.4486 16.5146 5.49414 16.54L5.5293 16.5605C5.83527 16.723 6.12463 16.7705 6.42676 16.7705C7.04204 16.7705 7.42383 16.4429 7.42383 15.916V15.9062C7.42383 15.48 7.09386 15.2912 6.74023 15.165L6.53516 15.0967C6.23047 14.9976 5.9672 14.9124 5.9668 14.7119V14.7012C5.9668 14.5294 6.121 14.4024 6.35938 14.4023C6.62433 14.4023 6.93905 14.4906 7.1416 14.6025C7.14346 14.6037 7.2012 14.6398 7.22266 14.583C7.23488 14.5514 7.33602 14.2795 7.34766 14.2471C7.35911 14.2147 7.33915 14.1906 7.31836 14.1777C7.08718 14.0372 6.76725 13.9404 6.43652 13.9404L6.375 13.9414ZM15.3838 13.9414C14.8205 13.9414 14.4278 14.281 14.4277 14.7686V14.7793C14.4279 15.2931 14.8612 15.46 15.2676 15.5762L15.334 15.5967C15.6294 15.6875 15.8845 15.7656 15.8848 15.9736V15.9844C15.8846 16.1748 15.7184 16.3163 15.4512 16.3164C15.3474 16.3164 15.0159 16.314 14.6582 16.0879C14.6245 16.0683 14.6011 16.0537 14.5771 16.0381L14.5566 16.0244C14.5449 16.0169 14.4933 15.9982 14.4756 16.0527L14.3545 16.3896C14.3392 16.4296 14.3534 16.4435 14.3623 16.4521L14.3672 16.457C14.4118 16.4896 14.4575 16.5147 14.5029 16.54L14.5381 16.5605C14.8441 16.723 15.1335 16.7705 15.4355 16.7705C16.0509 16.7705 16.4326 16.4429 16.4326 15.916V15.9062C16.4326 15.4799 16.1027 15.2912 15.749 15.165L15.5439 15.0967C15.2395 14.9978 14.976 14.9123 14.9756 14.7119V14.7012C14.9756 14.5294 15.1298 14.4024 15.3682 14.4023C15.6331 14.4023 15.9479 14.4906 16.1504 14.6025C16.1504 14.6025 16.2098 14.6406 16.2314 14.583C16.2437 14.5514 16.3447 14.2796 16.3564 14.2471C16.368 14.2147 16.348 14.1906 16.3271 14.1777C16.096 14.0371 15.7761 13.9404 15.4453 13.9404L15.3838 13.9414ZM8.90723 13.9453C8.77685 13.9453 8.56698 13.964 8.44141 13.9893C8.43047 13.9914 8.05941 14.0642 7.90527 14.1846C7.90527 14.1846 7.87096 14.2061 7.88965 14.2539L8.0127 14.585C8.0281 14.6276 8.07031 14.6133 8.07031 14.6133C8.07238 14.6125 8.08459 14.6068 8.09863 14.5986C8.43323 14.4167 8.85645 14.4229 8.85645 14.4229C9.04437 14.4229 9.18876 14.4603 9.28613 14.5352C9.38078 14.6078 9.42962 14.7172 9.42969 14.9482V15.0225C9.2821 15.0013 9.14616 14.9886 9.14258 14.9883C9.07206 14.9832 8.9805 14.9805 8.87109 14.9805C8.72217 14.9805 8.57824 14.9988 8.44336 15.0352C8.30754 15.0714 8.18518 15.129 8.08008 15.2041C7.97515 15.2791 7.88802 15.3767 7.82715 15.4902C7.76561 15.6048 7.73438 15.7404 7.73438 15.8916C7.73438 16.0454 7.76146 16.1796 7.81445 16.2891C7.86744 16.3986 7.94374 16.4901 8.04102 16.5605C8.13759 16.631 8.25707 16.6826 8.39551 16.7139C8.53176 16.7451 8.68635 16.7607 8.85547 16.7607C9.03362 16.7607 9.2116 16.7462 9.38379 16.7168C9.5543 16.6876 9.76416 16.6451 9.82227 16.6318C9.86279 16.6221 9.90313 16.6116 9.94336 16.6006C9.98655 16.5899 9.9834 16.5439 9.9834 16.5439L9.98242 14.9541C9.98242 14.6054 9.8894 14.3468 9.70605 14.1865C9.52357 14.0267 9.25463 13.9453 8.90723 13.9453ZM12.8877 13.9482C12.6711 13.9483 12.4733 13.9854 12.3135 14.0605C12.1535 14.1358 12.0185 14.2386 11.9131 14.3662C11.8077 14.4935 11.7281 14.6454 11.6777 14.8174C11.6274 14.9886 11.6016 15.1753 11.6016 15.3721C11.6016 15.5725 11.6281 15.7599 11.6807 15.9277C11.7337 16.0969 11.8183 16.2457 11.9326 16.3691C12.0467 16.4935 12.194 16.5914 12.3701 16.6592C12.5448 16.7267 12.7571 16.7613 13.001 16.7607C13.5032 16.7591 13.7679 16.6472 13.877 16.5869C13.8961 16.5763 13.9144 16.5574 13.8916 16.5039L13.7783 16.1855C13.7607 16.1381 13.7119 16.1553 13.7119 16.1553L13.6787 16.168C13.5556 16.2152 13.375 16.285 12.998 16.2842C12.7289 16.2838 12.5285 16.2034 12.4033 16.0791C12.2749 15.9518 12.2123 15.7647 12.2012 15.501L13.9404 15.5029C13.9452 15.5027 13.9859 15.4989 13.9902 15.457L13.9912 15.4492C13.999 15.3921 14.0428 15.073 13.9385 14.708C13.895 14.5437 13.7867 14.3779 13.7158 14.3018C13.6039 14.1812 13.4943 14.0969 13.3857 14.0498C13.2439 13.9892 13.0739 13.9482 12.8877 13.9482ZM19.8398 13.9482C19.6314 13.9482 19.4458 13.9856 19.2891 14.0586C19.1319 14.1321 18.9987 14.2329 18.8936 14.3584C18.7894 14.484 18.711 14.6348 18.6602 14.8047C18.6101 14.9743 18.585 15.1604 18.585 15.3574C18.585 15.5543 18.6101 15.74 18.6602 15.9092C18.711 16.0792 18.7894 16.2299 18.8945 16.3555C18.9992 16.481 19.1323 16.582 19.2891 16.6533C19.4462 16.7245 19.6314 16.7607 19.8398 16.7607C20.0476 16.7607 20.2326 16.7245 20.3896 16.6533C20.5464 16.582 20.6795 16.481 20.7842 16.3555C20.8888 16.2303 20.9681 16.0796 21.0186 15.9092C21.0689 15.7397 21.0937 15.5539 21.0938 15.3574C21.0938 15.1608 21.0689 14.9743 21.0186 14.8047C20.9681 14.6342 20.8887 14.4835 20.7842 14.3584C20.6795 14.233 20.5467 14.132 20.3896 14.0586C20.233 13.9856 20.0477 13.9483 19.8398 13.9482ZM26.8135 13.9482C26.5966 13.9483 26.3999 13.9855 26.2402 14.0605C26.08 14.1358 25.9454 14.2384 25.8398 14.3662C25.7342 14.4936 25.654 14.6452 25.6035 14.8174C25.5527 14.9885 25.5273 15.1753 25.5273 15.3721C25.5273 15.5725 25.5538 15.7599 25.6064 15.9277C25.6593 16.0968 25.744 16.2457 25.8584 16.3691C25.9724 16.4935 26.1197 16.5914 26.2959 16.6592C26.4705 16.7268 26.6829 16.7613 26.9268 16.7607C27.429 16.7591 27.6938 16.6472 27.8027 16.5869C27.8219 16.5763 27.8404 16.5575 27.8174 16.5039L27.7031 16.1855C27.6861 16.1381 27.6377 16.1553 27.6377 16.1553L27.6045 16.168C27.4814 16.2151 27.301 16.2849 26.9248 16.2842C26.6552 16.2838 26.4543 16.2035 26.3291 16.0791C26.2008 15.9518 26.138 15.7646 26.127 15.501L27.8662 15.5029C27.8705 15.5027 27.9115 15.4992 27.916 15.457L27.917 15.4492C27.9248 15.3928 27.9684 15.0737 27.8643 14.708C27.8208 14.5437 27.7126 14.3779 27.6416 14.3018C27.5298 14.1814 27.4209 14.0969 27.3125 14.0498C27.1707 13.9891 26.9998 13.9482 26.8135 13.9482ZM24.5781 13.9463C24.3623 13.9463 24.1703 13.9832 24.0059 14.0566C23.8417 14.1297 23.702 14.2298 23.5918 14.3555C23.4815 14.481 23.3977 14.6316 23.3418 14.8018C23.2862 14.9713 23.2579 15.1576 23.2578 15.3545C23.2578 15.7805 23.3737 16.1258 23.6006 16.3779C23.8279 16.6307 24.1692 16.7588 24.6143 16.7588C24.8774 16.7588 25.1479 16.7054 25.3418 16.6289C25.3458 16.6268 25.3774 16.6088 25.3623 16.5684L25.2363 16.2197C25.2192 16.1699 25.1709 16.1885 25.1709 16.1885C25.096 16.2171 25.0162 16.2436 24.9316 16.2568C24.8458 16.27 24.7514 16.2773 24.6504 16.2773C24.4017 16.2773 24.2039 16.2028 24.0625 16.0566C23.9208 15.9104 23.841 15.6738 23.8418 15.3545C23.8428 15.0639 23.9133 14.8452 24.0391 14.6787C24.1644 14.5129 24.3551 14.4278 24.6094 14.4277C24.8213 14.4277 24.9831 14.4524 25.1523 14.5059C25.156 14.5073 25.1936 14.52 25.2119 14.4697L25.2539 14.3545C25.2807 14.2806 25.3059 14.2099 25.3379 14.1182C25.3512 14.0798 25.3189 14.0635 25.3066 14.0586C25.24 14.0326 25.0826 13.9895 24.9639 13.9717C24.8527 13.9545 24.7225 13.9463 24.5781 13.9463ZM10.6006 12.8877C10.5715 12.8877 10.5508 12.9114 10.5508 12.9404V16.6514C10.5508 16.6804 10.5715 16.7041 10.6006 16.7041H11.0615C11.0906 16.7041 11.1113 16.6804 11.1113 16.6514V12.9404C11.1113 12.9114 11.0906 12.8877 11.0615 12.8877H10.6006ZM22.8496 13.9805C22.6314 13.9673 22.51 14.0041 22.4014 14.0527C22.2938 14.1014 22.1741 14.1803 22.1074 14.2695V14.0576C22.1074 14.0281 22.0867 14.005 22.0576 14.0049H21.6113C21.5825 14.0051 21.5615 14.0282 21.5615 14.0576V16.6514C21.5617 16.6804 21.5863 16.7041 21.6152 16.7041H22.0713C22.0852 16.7041 22.0986 16.6983 22.1084 16.6885C22.1182 16.6787 22.1241 16.6653 22.124 16.6514V15.3555C22.124 15.1818 22.1433 15.0084 22.1816 14.8994C22.2191 14.7917 22.2707 14.7046 22.334 14.6426C22.3976 14.5812 22.4699 14.5379 22.5488 14.5137C22.6295 14.4889 22.719 14.4815 22.7822 14.4814C22.8732 14.4814 22.9736 14.5049 22.9736 14.5049C23.0065 14.5085 23.0251 14.4879 23.0361 14.458C23.0661 14.3786 23.1506 14.1406 23.167 14.0928C23.1801 14.0538 23.1534 14.0347 23.1416 14.0303C23.1121 14.0188 22.9637 13.9878 22.8496 13.9805Z" fill="#179CD7"/>
</svg>
