<svg width="32" height="33" viewBox="0 0 32 33" fill="none" xmlns="http://www.w3.org/2000/svg">
<rect x="4" y="11.3933" width="25" height="8" fill="white"/>
<path d="M8.95801 15.8123C9.20226 15.8156 9.42121 15.8509 9.42969 15.8523V16.6433C9.42009 16.6454 9.20395 16.6902 8.96094 16.7048C8.60902 16.7261 8.45287 16.6046 8.45117 16.6033C8.38328 16.5491 8.37359 16.5357 8.35059 16.5007C8.31637 16.4473 8.29883 16.3707 8.29883 16.2742C8.29891 16.1214 8.34947 16.0112 8.4541 15.9373C8.46219 15.9304 8.61325 15.8078 8.95801 15.8123Z" fill="#179CD7"/>
<path d="M12.8467 14.8025C13.0746 14.8025 13.2255 14.8923 13.334 15.0544C13.4052 15.1615 13.4368 15.3055 13.4492 15.4646H12.209C12.2338 15.2995 12.2792 15.1615 12.3496 15.0544C12.456 14.8918 12.6186 14.8025 12.8467 14.8025Z" fill="#179CD7"/>
<path d="M19.8398 14.8132C20.0678 14.8132 20.2313 14.8923 20.3398 15.0544C20.4488 15.2185 20.5049 15.4533 20.5049 15.7507C20.5048 16.0484 20.4492 16.2832 20.3398 16.449C20.2317 16.613 20.0679 16.6931 19.8398 16.6931C19.6112 16.6931 19.4482 16.6134 19.3418 16.449C19.2341 16.2836 19.1797 16.0484 19.1797 15.7507C19.1797 15.4533 19.2341 15.2185 19.3418 15.0544C19.4482 14.8921 19.6112 14.8132 19.8398 14.8132Z" fill="#179CD7"/>
<path d="M26.7725 14.8025C27.0005 14.8026 27.1517 14.8922 27.2598 15.0544C27.3314 15.1615 27.3626 15.3055 27.375 15.4646H26.1348C26.1592 15.2995 26.205 15.1615 26.2754 15.0544C26.3819 14.8919 26.5444 14.8025 26.7725 14.8025Z" fill="#179CD7"/>
<path fill-rule="evenodd" clip-rule="evenodd" d="M8.85156 5.89331C10.7408 5.8934 12.4199 6.79155 13.4844 8.18335C14.4518 7.17543 15.7986 6.55065 17.2881 6.55054C19.2684 6.55054 20.9969 7.65439 21.917 9.2937C22.7165 8.93658 23.6012 8.73808 24.5322 8.73804C28.1039 8.73804 30.9999 11.6586 31 15.2615C31 18.8649 28.104 21.7859 24.5322 21.7859C24.1045 21.7861 23.6781 21.7436 23.2588 21.6589C22.4487 23.1041 20.904 24.0808 19.1318 24.0808C18.39 24.0808 17.6882 23.91 17.0635 23.6052C16.2421 25.5371 14.3287 26.8912 12.0986 26.8914C9.77607 26.8914 7.79601 25.4222 7.03613 23.3611C6.70417 23.4315 6.35975 23.4675 6.00684 23.4675C3.24172 23.4674 1.00011 21.2032 1 18.4089C1 16.5363 2.00733 14.9009 3.50391 14.0261C3.19583 13.3172 3.02441 12.5343 3.02441 11.7117C3.02465 8.4982 5.63376 5.89331 8.85156 5.89331ZM18.4717 13.2253C18.1571 13.2253 17.9092 13.3138 17.7354 13.489C17.5622 13.6634 17.4447 13.929 17.3857 14.2781L17.3643 14.3953H16.9697C16.9697 14.3953 16.9215 14.394 16.9111 14.446L16.8467 14.8074C16.842 14.8416 16.8572 14.864 16.9033 14.864H17.2871L16.8975 17.0398C16.8672 17.215 16.832 17.3591 16.793 17.4685C16.755 17.576 16.718 17.6566 16.6719 17.7156C16.6276 17.772 16.5854 17.8144 16.5127 17.8386C16.4531 17.8587 16.384 17.8679 16.3086 17.8679C16.2667 17.8679 16.2104 17.8607 16.1689 17.8523C16.128 17.8441 16.1063 17.8352 16.0752 17.822C16.0752 17.822 16.0296 17.8055 16.0117 17.8503C15.9971 17.8886 15.8952 18.1693 15.8828 18.2039C15.871 18.2382 15.8885 18.2652 15.9102 18.2732C15.9613 18.2911 15.9998 18.3035 16.0693 18.3201C16.1657 18.3426 16.247 18.3435 16.3232 18.3435C16.4831 18.3435 16.63 18.3206 16.751 18.2771C16.8721 18.233 16.9784 18.1567 17.0723 18.0535C17.1734 17.9415 17.2373 17.8247 17.2979 17.6648C17.3581 17.5067 17.4092 17.3096 17.4502 17.0808L17.8428 14.864H18.415C18.415 14.864 18.4638 14.8647 18.4736 14.8132L18.5381 14.4519C18.5423 14.4173 18.528 14.3953 18.4814 14.3953H17.9258L17.9277 14.3787C17.9362 14.3256 17.9634 14.1605 18.0176 14.0037C18.0448 13.9256 18.0955 13.8617 18.1387 13.8181C18.1814 13.7754 18.2313 13.7447 18.2852 13.7273C18.3402 13.7094 18.4031 13.7009 18.4717 13.7009C18.5238 13.7009 18.5754 13.7064 18.6143 13.7146C18.6679 13.7262 18.6889 13.7317 18.7031 13.7361C18.76 13.7531 18.7681 13.737 18.7793 13.7097L18.9121 13.3445C18.9255 13.3055 18.8921 13.2887 18.8799 13.2839C18.8244 13.2669 18.7738 13.2553 18.708 13.2429C18.6413 13.231 18.5618 13.2253 18.4717 13.2253ZM6.375 14.3347C5.81183 14.3347 5.41904 14.6743 5.41895 15.1619V15.1726C5.41914 15.6864 5.85245 15.8533 6.25879 15.9695L6.3252 15.99C6.62071 16.0809 6.87477 16.1588 6.875 16.3669V16.3777C6.87486 16.5681 6.7096 16.7096 6.44238 16.7097C6.33854 16.7097 6.00711 16.7073 5.64941 16.4812C5.62466 16.4668 5.60576 16.4547 5.58789 16.4431C5.57466 16.4345 5.56201 16.4262 5.54785 16.4177C5.53034 16.4065 5.48601 16.388 5.4668 16.446L5.3457 16.783C5.33044 16.823 5.34453 16.8369 5.35352 16.8455L5.3584 16.8503C5.40308 16.8829 5.4486 16.9079 5.49414 16.9333L5.5293 16.9539C5.83527 17.1163 6.12463 17.1638 6.42676 17.1638C7.04204 17.1638 7.42383 16.8362 7.42383 16.3093V16.2996C7.42383 15.8733 7.09386 15.6845 6.74023 15.5583L6.53516 15.49C6.23047 15.3909 5.9672 15.3058 5.9668 15.1052V15.0945C5.9668 14.9227 6.121 14.7957 6.35938 14.7957C6.62433 14.7957 6.93905 14.8839 7.1416 14.9958C7.14346 14.997 7.2012 15.0331 7.22266 14.9763C7.23488 14.9447 7.33602 14.6728 7.34766 14.6404C7.35911 14.608 7.33915 14.5839 7.31836 14.571C7.08718 14.4305 6.76725 14.3338 6.43652 14.3337L6.375 14.3347ZM15.3838 14.3347C14.8205 14.3347 14.4278 14.6743 14.4277 15.1619V15.1726C14.4279 15.6864 14.8612 15.8533 15.2676 15.9695L15.334 15.99C15.6294 16.0808 15.8845 16.1589 15.8848 16.3669V16.3777C15.8846 16.5681 15.7184 16.7096 15.4512 16.7097C15.3474 16.7097 15.0159 16.7073 14.6582 16.4812C14.6245 16.4616 14.6011 16.4471 14.5771 16.4314L14.5566 16.4177C14.5449 16.4102 14.4933 16.3915 14.4756 16.446L14.3545 16.783C14.3392 16.8229 14.3534 16.8369 14.3623 16.8455L14.3672 16.8503C14.4118 16.8829 14.4575 16.908 14.5029 16.9333L14.5381 16.9539C14.8441 17.1163 15.1335 17.1638 15.4355 17.1638C16.0509 17.1638 16.4326 16.8362 16.4326 16.3093V16.2996C16.4326 15.8732 16.1027 15.6845 15.749 15.5583L15.5439 15.49C15.2395 15.3911 14.976 15.3056 14.9756 15.1052V15.0945C14.9756 14.9227 15.1298 14.7957 15.3682 14.7957C15.6331 14.7957 15.9479 14.8839 16.1504 14.9958C16.1504 14.9958 16.2098 15.034 16.2314 14.9763C16.2437 14.9447 16.3447 14.6729 16.3564 14.6404C16.368 14.608 16.348 14.5839 16.3271 14.571C16.096 14.4305 15.7761 14.3337 15.4453 14.3337L15.3838 14.3347ZM8.90723 14.3386C8.77685 14.3386 8.56698 14.3574 8.44141 14.3826C8.43047 14.3847 8.05941 14.4575 7.90527 14.5779C7.90527 14.5779 7.87096 14.5994 7.88965 14.6472L8.0127 14.9783C8.0281 15.0209 8.07031 15.0066 8.07031 15.0066C8.07238 15.0058 8.08459 15.0001 8.09863 14.9919C8.43323 14.81 8.85645 14.8162 8.85645 14.8162C9.04437 14.8162 9.18876 14.8536 9.28613 14.9285C9.38078 15.0011 9.42962 15.1105 9.42969 15.3416V15.4158C9.2821 15.3946 9.14616 15.3819 9.14258 15.3816C9.07206 15.3765 8.9805 15.3738 8.87109 15.3738C8.72217 15.3738 8.57824 15.3922 8.44336 15.4285C8.30754 15.4647 8.18518 15.5223 8.08008 15.5974C7.97515 15.6724 7.88802 15.77 7.82715 15.8835C7.76561 15.9981 7.73438 16.1337 7.73438 16.2849C7.73438 16.4387 7.76146 16.5729 7.81445 16.6824C7.86744 16.7919 7.94374 16.8835 8.04102 16.9539C8.13759 17.0244 8.25707 17.076 8.39551 17.1072C8.53176 17.1384 8.68635 17.154 8.85547 17.1541C9.03362 17.1541 9.2116 17.1395 9.38379 17.1101C9.5543 17.0809 9.76416 17.0384 9.82227 17.0251C9.86279 17.0154 9.90313 17.0049 9.94336 16.9939C9.98655 16.9833 9.9834 16.9373 9.9834 16.9373L9.98242 15.3474C9.98242 14.9987 9.8894 14.7401 9.70605 14.5798C9.52357 14.42 9.25463 14.3386 8.90723 14.3386ZM12.8877 14.3416C12.6711 14.3416 12.4733 14.3787 12.3135 14.4539C12.1535 14.5291 12.0185 14.6319 11.9131 14.7595C11.8077 14.8868 11.7281 15.0387 11.6777 15.2107C11.6274 15.3819 11.6016 15.5686 11.6016 15.7654C11.6016 15.9658 11.6281 16.1532 11.6807 16.321C11.7337 16.4902 11.8183 16.639 11.9326 16.7625C12.0467 16.8868 12.194 16.9847 12.3701 17.0525C12.5448 17.12 12.7571 17.1546 13.001 17.1541C13.5032 17.1524 13.7679 17.0405 13.877 16.9802C13.8961 16.9696 13.9144 16.9508 13.8916 16.8972L13.7783 16.5789C13.7607 16.5314 13.7119 16.5486 13.7119 16.5486L13.6787 16.5613C13.5556 16.6085 13.375 16.6783 12.998 16.6775C12.7289 16.6771 12.5285 16.5968 12.4033 16.4724C12.2749 16.3451 12.2123 16.158 12.2012 15.8943L13.9404 15.8962C13.9452 15.896 13.9859 15.8922 13.9902 15.8503L13.9912 15.8425C13.999 15.7854 14.0428 15.4663 13.9385 15.1013C13.895 14.937 13.7867 14.7712 13.7158 14.6951C13.6039 14.5745 13.4943 14.4902 13.3857 14.4431C13.2439 14.3825 13.0739 14.3416 12.8877 14.3416ZM19.8398 14.3416C19.6314 14.3416 19.4458 14.3789 19.2891 14.4519C19.1319 14.5254 18.9987 14.6262 18.8936 14.7517C18.7894 14.8774 18.711 15.0281 18.6602 15.198C18.6101 15.3676 18.585 15.5537 18.585 15.7507C18.585 15.9476 18.6101 16.1334 18.6602 16.3025C18.711 16.4725 18.7894 16.6232 18.8945 16.7488C18.9992 16.8743 19.1323 16.9753 19.2891 17.0466C19.4462 17.1178 19.6314 17.1541 19.8398 17.1541C20.0476 17.154 20.2326 17.1178 20.3896 17.0466C20.5464 16.9753 20.6795 16.8743 20.7842 16.7488C20.8888 16.6236 20.9681 16.4729 21.0186 16.3025C21.0689 16.133 21.0937 15.9472 21.0938 15.7507C21.0938 15.5541 21.0689 15.3676 21.0186 15.198C20.9681 15.0275 20.8887 14.8768 20.7842 14.7517C20.6795 14.6263 20.5467 14.5253 20.3896 14.4519C20.233 14.3789 20.0477 14.3416 19.8398 14.3416ZM26.8135 14.3416C26.5966 14.3416 26.3999 14.3788 26.2402 14.4539C26.08 14.5291 25.9454 14.6317 25.8398 14.7595C25.7342 14.8869 25.654 15.0385 25.6035 15.2107C25.5527 15.3819 25.5273 15.5686 25.5273 15.7654C25.5273 15.9658 25.5538 16.1532 25.6064 16.321C25.6593 16.4902 25.744 16.639 25.8584 16.7625C25.9724 16.8868 26.1197 16.9847 26.2959 17.0525C26.4705 17.1201 26.6829 17.1546 26.9268 17.1541C27.429 17.1524 27.6938 17.0405 27.8027 16.9802C27.8219 16.9696 27.8404 16.9508 27.8174 16.8972L27.7031 16.5789C27.6861 16.5314 27.6377 16.5486 27.6377 16.5486L27.6045 16.5613C27.4814 16.6084 27.301 16.6783 26.9248 16.6775C26.6552 16.6771 26.4543 16.5968 26.3291 16.4724C26.2008 16.3451 26.138 16.158 26.127 15.8943L27.8662 15.8962C27.8705 15.896 27.9115 15.8925 27.916 15.8503L27.917 15.8425C27.9248 15.7861 27.9684 15.467 27.8643 15.1013C27.8208 14.937 27.7126 14.7712 27.6416 14.6951C27.5298 14.5747 27.4209 14.4902 27.3125 14.4431C27.1707 14.3824 26.9998 14.3416 26.8135 14.3416ZM24.5781 14.3396C24.3623 14.3396 24.1703 14.3765 24.0059 14.45C23.8417 14.523 23.702 14.6231 23.5918 14.7488C23.4815 14.8743 23.3977 15.025 23.3418 15.1951C23.2862 15.3646 23.2579 15.5509 23.2578 15.7478C23.2578 16.1738 23.3737 16.5191 23.6006 16.7712C23.8279 17.024 24.1692 17.1521 24.6143 17.1521C24.8774 17.1521 25.1479 17.0987 25.3418 17.0222C25.3458 17.0201 25.3774 17.0021 25.3623 16.9617L25.2363 16.613C25.2192 16.5632 25.1709 16.5818 25.1709 16.5818C25.096 16.6104 25.0162 16.6369 24.9316 16.6501C24.8458 16.6633 24.7514 16.6707 24.6504 16.6707C24.4017 16.6706 24.2039 16.5961 24.0625 16.45C23.9208 16.3037 23.841 16.0671 23.8418 15.7478C23.8428 15.4572 23.9133 15.2385 24.0391 15.072C24.1644 14.9062 24.3551 14.8211 24.6094 14.821C24.8213 14.821 24.9831 14.8457 25.1523 14.8992C25.156 14.9006 25.1936 14.9134 25.2119 14.863L25.2539 14.7478C25.2807 14.6739 25.3059 14.6032 25.3379 14.5115C25.3512 14.4731 25.3189 14.4568 25.3066 14.4519C25.24 14.4259 25.0826 14.3829 24.9639 14.365C24.8527 14.3478 24.7225 14.3396 24.5781 14.3396ZM10.6006 13.281C10.5715 13.281 10.5508 13.3047 10.5508 13.3337V17.0447C10.5508 17.0737 10.5715 17.0974 10.6006 17.0974H11.0615C11.0906 17.0974 11.1113 17.0737 11.1113 17.0447V13.3337C11.1113 13.3047 11.0906 13.281 11.0615 13.281H10.6006ZM22.8496 14.3738C22.6314 14.3606 22.51 14.3974 22.4014 14.446C22.2938 14.4947 22.1741 14.5736 22.1074 14.6628V14.4509C22.1074 14.4214 22.0867 14.3983 22.0576 14.3982H21.6113C21.5825 14.3984 21.5615 14.4215 21.5615 14.4509V17.0447C21.5617 17.0737 21.5863 17.0974 21.6152 17.0974H22.0713C22.0852 17.0974 22.0986 17.0916 22.1084 17.0818C22.1182 17.072 22.1241 17.0586 22.124 17.0447V15.7488C22.124 15.5751 22.1433 15.4017 22.1816 15.2927C22.2191 15.185 22.2707 15.0979 22.334 15.0359C22.3976 14.9745 22.4699 14.9312 22.5488 14.907C22.6295 14.8822 22.719 14.8748 22.7822 14.8748C22.8732 14.8748 22.9736 14.8982 22.9736 14.8982C23.0065 14.9018 23.0251 14.8812 23.0361 14.8513C23.0661 14.7719 23.1506 14.5339 23.167 14.4861C23.1801 14.4471 23.1534 14.4281 23.1416 14.4236C23.1121 14.4121 22.9637 14.3811 22.8496 14.3738Z" fill="#179CD7"/>
</svg>
