<svg width="32" height="32" viewBox="0 0 32 32" fill="none" xmlns="http://www.w3.org/2000/svg">
<path fill-rule="evenodd" clip-rule="evenodd" d="M16.0916 2.60669C13.0751 2.61342 10.1295 3.52547 7.63336 5.22566C5.13718 6.92585 3.20439 9.33651 2.08334 12.1479C0.96229 14.9593 0.704187 18.043 1.34219 21.0028C1.9802 23.9625 3.48518 26.6632 5.66374 28.7577C6.17854 29.2511 6.85249 29.5429 7.56325 29.58C8.274 29.6171 8.97447 29.3972 9.53749 28.9601C11.3982 27.5746 13.6533 26.8267 15.9699 26.8267C18.2865 26.8267 20.5417 27.5746 22.4023 28.9601C22.9705 29.4116 23.6829 29.64 24.4065 29.6028C25.1301 29.5655 25.8155 29.2652 26.3347 28.7577C28.5024 26.6742 30.0038 23.9904 30.6477 21.0478C31.2916 18.1051 31.0491 15.0367 29.9508 12.2328C28.8526 9.429 26.9484 7.01654 24.4804 5.30238C22.0124 3.58821 19.0923 2.64986 16.0916 2.60669ZM16.0072 25.3243C15.0096 25.3568 14.0159 25.1843 13.0871 24.8174C12.1583 24.4505 11.314 23.897 10.6059 23.1909C9.89774 22.4847 9.3408 21.6407 8.9692 20.7108C8.59759 19.7808 8.41916 18.7844 8.44484 17.7827C8.41105 16.7705 8.58046 15.7618 8.94299 14.8167C9.30551 13.8715 9.85374 13.0093 10.555 12.2813C11.2563 11.5532 12.0964 10.9743 13.0251 10.5789C13.9539 10.1835 14.9524 9.97971 15.9612 9.97971C16.9701 9.97971 17.9686 10.1835 18.8973 10.5789C19.8261 10.9743 20.6661 11.5532 21.3674 12.2813C22.0687 13.0093 22.617 13.8715 22.9795 14.8167C23.342 15.7618 23.5114 16.7705 23.4776 17.7827C23.5042 18.7803 23.3281 19.773 22.96 20.7C22.5919 21.6271 22.0395 22.4692 21.3366 23.1748C20.6336 23.8805 19.7948 24.4351 18.8714 24.8046C17.948 25.1742 16.9592 25.351 15.9655 25.3243" fill="#62D84E"/>
</svg>
