<svg width="32" height="32" viewBox="0 0 32 32" fill="none" xmlns="http://www.w3.org/2000/svg">
<path fill-rule="evenodd" clip-rule="evenodd" d="M16.1507 2.5C13.1225 2.50673 10.1653 3.41878 7.65938 5.11897C5.1534 6.81916 3.21304 9.22982 2.08759 12.0412C0.962142 14.8526 0.703027 17.9363 1.34354 20.8961C1.98405 23.8559 3.49492 26.5565 5.68203 28.6511C6.19885 29.1444 6.87544 29.4362 7.58898 29.4733C8.30253 29.5104 9.00574 29.2905 9.57097 28.8534C11.4389 27.4679 13.7029 26.72 16.0286 26.72C18.3543 26.72 20.6183 27.4679 22.4863 28.8534C23.0566 29.3049 23.7718 29.5333 24.4983 29.4961C25.2247 29.4588 25.9128 29.1585 26.434 28.6511C28.6103 26.5675 30.1175 23.8837 30.764 20.9411C31.4104 17.9984 31.1669 14.93 30.0644 12.1261C28.9618 9.32232 27.0501 6.90985 24.5725 5.19569C22.0948 3.48153 19.1632 2.54317 16.1507 2.5ZM16.066 25.2176C15.0645 25.2501 14.067 25.0776 13.1345 24.7107C12.2021 24.3439 11.3544 23.7904 10.6435 23.0842C9.93264 22.378 9.37351 21.534 9.00045 20.6041C8.62739 19.6741 8.44825 18.6777 8.47403 17.676C8.44011 16.6638 8.61019 15.6551 8.97414 14.71C9.33809 13.7648 9.88846 12.9026 10.5925 12.1746C11.2966 11.4465 12.1399 10.8676 13.0723 10.4722C14.0047 10.0768 15.0071 9.87302 16.0199 9.87302C17.0327 9.87302 18.0351 10.0768 18.9675 10.4722C19.8999 10.8676 20.7433 11.4465 21.4473 12.1746C22.1514 12.9026 22.7017 13.7648 23.0657 14.71C23.4296 15.6551 23.5997 16.6638 23.5658 17.676C23.5925 18.6736 23.4157 19.6663 23.0461 20.5933C22.6765 21.5204 22.122 22.3625 21.4163 23.0682C20.7106 23.7739 19.8686 24.3284 18.9415 24.698C18.0144 25.0675 17.0218 25.2443 16.0241 25.2176" fill="#62D84E"/>
</svg>
