<svg width="32" height="32" viewBox="0 0 32 32" fill="none" xmlns="http://www.w3.org/2000/svg">
<path d="M16 30C23.732 30 30 23.732 30 16C30 8.26801 23.732 2 16 2C8.26801 2 2 8.26801 2 16C2 23.732 8.26801 30 16 30Z" fill="#198038"/>
<path d="M18.9502 18.7C18.9502 19.55 17.8002 20.275 16.1002 20.275C14.2502 20.275 12.8752 19.325 12.8752 18.175H9.7002C9.7002 21.125 12.5002 23 16.1002 23C19.6752 23 22.3002 21.15 22.3002 18.7C22.3002 13.5 13.0002 15.65 13.0002 13.325C13.0002 12.4 14.1002 11.725 15.8502 11.725C17.7252 11.725 18.8252 12.875 18.8252 14H22.0002C22.0002 11.05 19.4502 9 15.8502 9C12.2752 9 9.77519 10.975 9.77519 13.325C9.77519 18.675 18.9502 16.5 18.9502 18.7Z" fill="white"/>
</svg>
