<svg width="33" height="33" viewBox="0 0 33 33" fill="none" xmlns="http://www.w3.org/2000/svg">
<path d="M16.4648 30.3933C24.1968 30.3933 30.4648 24.1253 30.4648 16.3933C30.4648 8.66132 24.1968 2.39331 16.4648 2.39331C8.73286 2.39331 2.46484 8.66132 2.46484 16.3933C2.46484 24.1253 8.73286 30.3933 16.4648 30.3933Z" fill="url(#paint0_linear_27213_1772)"/>
<path fill-rule="evenodd" clip-rule="evenodd" d="M8.80205 16.2455C12.8833 14.4674 15.6048 13.2951 16.9665 12.7287C20.8545 11.1116 21.6624 10.8307 22.1889 10.8214C22.3047 10.8193 22.5637 10.848 22.7314 10.9842C22.8731 11.0991 22.912 11.2543 22.9307 11.3633C22.9493 11.4723 22.9726 11.7205 22.9541 11.9144C22.7434 14.1282 21.8318 19.5003 21.368 21.9797C21.1717 23.0288 20.7853 23.3806 20.4112 23.415C19.5982 23.4899 18.9808 22.8778 18.1934 22.3616C16.9612 21.5539 16.2651 21.0511 15.0691 20.2629C13.6868 19.352 14.5829 18.8514 15.3706 18.0332C15.5767 17.8191 19.1589 14.5609 19.2282 14.2653C19.2369 14.2283 19.2449 14.0905 19.1631 14.0178C19.0812 13.945 18.9604 13.9699 18.8732 13.9897C18.7496 14.0177 16.7812 15.3188 12.9679 17.8929C12.4092 18.2765 11.9031 18.4635 11.4497 18.4537C10.9498 18.4429 9.98825 18.171 9.27343 17.9387C8.39668 17.6537 7.69986 17.503 7.76053 17.019C7.79214 16.7669 8.13931 16.5091 8.80205 16.2455Z" fill="white"/>
<defs>
<linearGradient id="paint0_linear_27213_1772" x1="16.4648" y1="2.39331" x2="16.4648" y2="30.1856" gradientUnits="userSpaceOnUse">
<stop stop-color="#2AABEE"/>
<stop offset="1" stop-color="#229ED9"/>
</linearGradient>
</defs>
</svg>
