<svg width="32" height="33" viewBox="0 0 32 33" fill="none" xmlns="http://www.w3.org/2000/svg">
<g clip-path="url(#clip0_27213_1781)">
<path d="M31.5 16.3933C31.5 7.83289 24.5604 0.893311 16 0.893311C7.43958 0.893311 0.5 7.83289 0.5 16.3933C0.5 24.1298 6.16813 30.5422 13.5781 31.705V20.8738H9.64258V16.3933H13.5781V12.9785C13.5781 9.09378 15.8922 6.948 19.4327 6.948C21.1286 6.948 22.9023 7.25073 22.9023 7.25073V11.0652H20.9478C19.0224 11.0652 18.4219 12.26 18.4219 13.4858V16.3933H22.7207L22.0335 20.8738H18.4219V31.705C25.8319 30.5422 31.5 24.1298 31.5 16.3933Z" fill="#1877F2"/>
<path d="M22.0335 20.8738L22.7207 16.3933H18.4219V13.4858C18.4219 12.26 19.0224 11.0652 20.9478 11.0652H22.9023V7.25073C22.9023 7.25073 21.1286 6.948 19.4327 6.948C15.8922 6.948 13.5781 9.09378 13.5781 12.9785V16.3933H9.64258V20.8738H13.5781V31.705C15.1829 31.9561 16.8171 31.9561 18.4219 31.705V20.8738H22.0335Z" fill="white"/>
</g>
<defs>
<clipPath id="clip0_27213_1781">
<rect width="32" height="32" fill="white" transform="translate(0 0.393311)"/>
</clipPath>
</defs>
</svg>
