<svg width="32" height="32" viewBox="0 0 32 32" fill="none" xmlns="http://www.w3.org/2000/svg">
<path d="M15.7293 0.0615234C7.03259 0.0615234 0.291016 6.43196 0.291016 15.0366C0.291016 19.5378 2.13558 23.4264 5.13924 26.1133C5.39181 26.3387 5.54373 26.6554 5.55422 26.9932L5.63821 29.74C5.66476 30.6157 6.57006 31.1856 7.371 30.8318L10.4352 29.4788C10.6952 29.3646 10.986 29.3429 11.2596 29.4189C12.6682 29.8061 14.1663 30.0123 15.7286 30.0123C24.4253 30.0123 31.1669 23.6419 31.1669 15.0372C31.1669 6.43258 24.4259 0.0615234 15.7293 0.0615234ZM25.296 11.0406L19.9211 19.3476C19.6481 19.7694 19.0855 19.8898 18.6638 19.6168L13.6846 16.3952C13.492 16.2704 13.2425 16.2742 13.0535 16.4045L7.44139 20.2751C6.62255 20.8396 5.62153 19.8682 6.16187 19.0333L11.5375 10.7263C11.8104 10.3045 12.373 10.1841 12.7941 10.457L17.7745 13.6793C17.9672 13.804 18.2167 13.8003 18.4056 13.67L24.0165 9.79997C24.8354 9.23493 25.8364 10.2069 25.296 11.0418V11.0406Z" fill="black"/>
</svg>
