<svg width="32" height="32" viewBox="0 0 32 32" fill="none" xmlns="http://www.w3.org/2000/svg">
<g clip-path="url(#clip0_27213_1780)">
<path fill-rule="evenodd" clip-rule="evenodd" d="M0.5 12.7867C0.5 15.5877 2.02363 18.1466 4.37834 19.841C4.58611 19.9793 4.68999 20.1868 4.68999 20.4634C4.68999 20.5326 4.65536 20.6363 4.65536 20.7055C4.48222 21.3971 4.17057 22.5382 4.13594 22.5728C4.10131 22.6765 4.06669 22.7457 4.06669 22.8494C4.06669 23.0569 4.23983 23.2298 4.44759 23.2298C4.51685 23.2298 4.58611 23.1952 4.65536 23.1607L7.11395 21.7429C7.28709 21.6391 7.49486 21.57 7.70263 21.57C7.80651 21.57 7.94502 21.57 8.04891 21.6046C9.19163 21.9504 10.4382 22.1233 11.7195 22.1233C17.9179 22.1233 22.939 17.9391 22.939 12.7867C22.939 7.63434 17.9179 3.4502 11.7195 3.4502C5.52106 3.4502 0.5 7.63434 0.5 12.7867Z" fill="url(#paint0_linear_27213_1780)"/>
<path fill-rule="evenodd" clip-rule="evenodd" d="M22.173 27.6179C23.2438 27.6179 24.2802 27.4785 25.2129 27.1998C25.282 27.165 25.3856 27.165 25.4892 27.165C25.662 27.165 25.8347 27.2347 25.9729 27.3043L28.011 28.4889C28.0801 28.5237 28.1146 28.5586 28.1837 28.5586C28.3564 28.5586 28.4946 28.4192 28.4946 28.245C28.4946 28.1753 28.4601 28.1057 28.4601 28.0011C28.4601 27.9663 28.1837 27.0256 28.0455 26.4334C28.011 26.3637 28.011 26.294 28.011 26.2243C28.011 26.0153 28.1146 25.8411 28.2874 25.7017C30.2564 24.2733 31.5 22.1481 31.5 19.779C31.5 15.4589 27.3201 11.9401 22.173 11.9401C17.0258 11.9401 12.8459 15.424 12.8459 19.779C12.8459 24.0991 17.0258 27.6179 22.173 27.6179Z" fill="url(#paint1_linear_27213_1780)"/>
<path fill-rule="evenodd" clip-rule="evenodd" d="M9.42151 9.77241C9.42151 10.579 8.78441 11.2175 7.97965 11.2175C7.17489 11.2175 6.53779 10.579 6.53779 9.77241C6.53779 8.96585 7.17489 8.32732 7.97965 8.32732C8.78441 8.32732 9.42151 8.96585 9.42151 9.77241Z" fill="#168743"/>
<path fill-rule="evenodd" clip-rule="evenodd" d="M16.9012 9.77241C16.9012 10.579 16.2641 11.2175 15.4593 11.2175C14.6545 11.2175 14.0174 10.579 14.0174 9.77241C14.0174 8.96585 14.6545 8.32732 15.4593 8.32732C16.2641 8.32732 16.9012 8.96585 16.9012 9.77241Z" fill="#168743"/>
<path fill-rule="evenodd" clip-rule="evenodd" d="M24.1105 17.3591C24.1105 18.0616 24.6712 18.6236 25.3721 18.6236C26.073 18.6236 26.6337 18.0616 26.6337 17.3591C26.6337 16.6566 26.073 16.0947 25.3721 16.0947C24.6712 16.0947 24.1105 16.6566 24.1105 17.3591Z" fill="#919191"/>
<path fill-rule="evenodd" clip-rule="evenodd" d="M17.8924 17.3591C17.8924 18.0616 18.4532 18.6236 19.1541 18.6236C19.855 18.6236 20.4157 18.0616 20.4157 17.3591C20.4157 16.6566 19.855 16.0947 19.1541 16.0947C18.4532 16.0947 17.8924 16.6566 17.8924 17.3591Z" fill="#919191"/>
</g>
<defs>
<linearGradient id="paint0_linear_27213_1780" x1="30.5429" y1="27.0898" x2="30.5429" y2="3.5598" gradientUnits="userSpaceOnUse">
<stop stop-color="#05CD66"/>
<stop offset="1" stop-color="#61F380"/>
<stop offset="1" stop-color="#9EEE69"/>
</linearGradient>
<linearGradient id="paint1_linear_27213_1780" x1="30.5311" y1="26.9353" x2="30.5311" y2="3.44114" gradientUnits="userSpaceOnUse">
<stop stop-color="#E4E6E6"/>
<stop offset="1" stop-color="#F0F0F0"/>
</linearGradient>
<clipPath id="clip0_27213_1780">
<rect width="32" height="32" fill="white"/>
</clipPath>
</defs>
</svg>
