<svg width="32" height="32" viewBox="0 0 32 32" fill="none" xmlns="http://www.w3.org/2000/svg">
<g clip-path="url(#clip0_27213_1773)">
<path d="M0.5 12.7874C0.5 7.6306 5.5163 3.44995 11.7046 3.44995C17.2947 3.44995 21.9273 6.86127 22.7712 11.3218C22.5695 11.312 22.3671 11.3055 22.1627 11.3055C16.5189 11.3055 11.9437 15.1185 11.9437 19.8212C11.9437 20.6143 12.0767 21.3816 12.3202 22.1098C12.1162 22.119 11.9114 22.1244 11.7046 22.1244C10.4261 22.1244 9.19188 21.9415 8.04741 21.6126C7.94299 21.5806 7.83246 21.5632 7.71784 21.5632C7.50289 21.5632 7.30766 21.6289 7.12298 21.7353L4.6701 23.1516C4.60174 23.191 4.53508 23.2213 4.45413 23.2213C4.24768 23.2213 4.08069 23.0543 4.08069 22.8478C4.08069 22.7783 4.10146 22.7089 4.12175 22.6412C4.12843 22.6188 4.13507 22.5967 4.14089 22.5747L4.64561 20.6915C4.66704 20.6123 4.68507 20.5361 4.68507 20.4535C4.68507 20.2021 4.56127 19.9804 4.37148 19.8447C2.00907 18.1332 0.5 15.6008 0.5 12.7874ZM7.96952 11.2933C8.79497 11.2933 9.46363 10.6246 9.46363 9.7992C9.46363 8.97409 8.79497 8.30543 7.96952 8.30543C7.14475 8.30543 6.47575 8.97409 6.47575 9.7992C6.47575 10.6246 7.14475 11.2933 7.96952 11.2933ZM13.9456 9.7992C13.9456 10.6246 14.6143 11.2933 15.4397 11.2933C16.2648 11.2933 16.9338 10.6246 16.9338 9.7992C16.9338 8.97409 16.2648 8.30543 15.4397 8.30543C14.6143 8.30543 13.9456 8.97409 13.9456 9.7992Z" fill="#0F0F0F"/>
<path d="M31.5 19.8214C31.5 22.1658 30.2419 24.2762 28.2737 25.7026C28.1156 25.8155 28.0125 26.0005 28.0125 26.2097C28.0125 26.2787 28.0271 26.3423 28.0452 26.408C28.2019 26.9943 28.454 27.9337 28.4659 27.9776C28.4707 27.9959 28.4762 28.0145 28.4818 28.0332C28.4986 28.0895 28.5159 28.1474 28.5159 28.2048C28.5159 28.3769 28.3768 28.5163 28.2047 28.5163C28.137 28.5163 28.0819 28.4912 28.0247 28.4582L25.9807 27.2783C25.8273 27.1892 25.664 27.1348 25.4851 27.1348C25.3892 27.1348 25.2971 27.1491 25.2103 27.1756C24.2567 27.4501 23.2282 27.6021 22.1626 27.6021C17.0058 27.6021 12.8255 24.1187 12.8255 19.8214C12.8255 15.5237 17.0058 12.0403 22.1626 12.0403C27.3194 12.0403 31.5 15.5237 31.5 19.8214ZM17.8054 17.3315C17.8054 18.0192 18.3629 18.5766 19.0499 18.5766C19.7379 18.5766 20.295 18.0192 20.295 17.3315C20.295 16.6438 19.7379 16.0864 19.0499 16.0864C18.3629 16.0864 17.8054 16.6438 17.8054 17.3315ZM24.0301 17.3315C24.0301 18.0192 24.5876 18.5766 25.2749 18.5766C25.9627 18.5766 26.5198 18.0192 26.5198 17.3315C26.5198 16.6438 25.9627 16.0864 25.2749 16.0864C24.5876 16.0864 24.0301 16.6438 24.0301 17.3315Z" fill="#0F0F0F"/>
</g>
<defs>
<clipPath id="clip0_27213_1773">
<rect width="32" height="32" fill="white"/>
</clipPath>
</defs>
</svg>
