<svg width="33" height="33" viewBox="0 0 33 33" fill="none" xmlns="http://www.w3.org/2000/svg">
<path d="M2.41797 12.8271C2.41797 8.16938 6.94882 4.39331 12.5383 4.39331C17.5874 4.39331 21.7717 7.4745 22.5338 11.5034C22.3517 11.4945 22.1689 11.4886 21.9843 11.4886C16.8866 11.4886 12.7542 14.9326 12.7542 19.1802C12.7542 19.8966 12.8743 20.5897 13.0943 21.2474C12.91 21.2557 12.725 21.2606 12.5383 21.2606C11.3835 21.2606 10.2687 21.0953 9.23498 20.7983C9.14067 20.7694 9.04083 20.7537 8.93731 20.7537C8.74316 20.7537 8.56683 20.813 8.40002 20.9091L6.18451 22.1883C6.12277 22.224 6.06256 22.2513 5.98944 22.2513C5.80297 22.2513 5.65214 22.1005 5.65214 21.914C5.65214 21.8512 5.6709 21.7885 5.68922 21.7273C5.69526 21.7071 5.70126 21.6871 5.70651 21.6673L6.16239 19.9664C6.18175 19.8948 6.19803 19.826 6.19803 19.7513C6.19803 19.5243 6.08621 19.324 5.91479 19.2014C3.781 17.6556 2.41797 15.3682 2.41797 12.8271ZM9.16463 11.4776C9.9102 11.4776 10.5141 10.8737 10.5141 10.1281C10.5141 9.38285 9.9102 8.7789 9.16463 8.7789C8.41968 8.7789 7.81542 9.38285 7.81542 10.1281C7.81542 10.8737 8.41968 11.4776 9.16463 11.4776ZM14.5624 10.1281C14.5624 10.8737 15.1663 11.4776 15.9119 11.4776C16.6572 11.4776 17.2614 10.8737 17.2614 10.1281C17.2614 9.38285 16.6572 8.7789 15.9119 8.7789C15.1663 8.7789 14.5624 9.38285 14.5624 10.1281Z" fill="#0F0F0F"/>
<path d="M30.418 19.1804C30.418 21.2979 29.2816 23.2041 27.5039 24.4925C27.361 24.5945 27.268 24.7616 27.268 24.9505C27.268 25.0129 27.2812 25.0703 27.2975 25.1296C27.4391 25.6592 27.6667 26.5077 27.6775 26.5473C27.6818 26.5639 27.6868 26.5806 27.6919 26.5975C27.707 26.6484 27.7226 26.7006 27.7226 26.7525C27.7226 26.908 27.597 27.0339 27.4415 27.0339C27.3804 27.0339 27.3306 27.0112 27.279 26.9814L25.4328 25.9157C25.2942 25.8352 25.1468 25.7861 24.9852 25.7861C24.8986 25.7861 24.8153 25.799 24.737 25.8229C23.8756 26.0708 22.9466 26.2082 21.9842 26.2082C17.3265 26.2082 13.5507 23.0618 13.5507 19.1804C13.5507 15.2987 17.3265 12.1524 21.9842 12.1524C26.6419 12.1524 30.418 15.2987 30.418 19.1804ZM18.0487 16.9315C18.0487 17.5526 18.5522 18.0561 19.1727 18.0561C19.7942 18.0561 20.2974 17.5526 20.2974 16.9315C20.2974 16.3103 19.7942 15.8068 19.1727 15.8068C18.5522 15.8068 18.0487 16.3103 18.0487 16.9315ZM23.671 16.9315C23.671 17.5526 24.1745 18.0561 24.7953 18.0561C25.4165 18.0561 25.9197 17.5526 25.9197 16.9315C25.9197 16.3103 25.4165 15.8068 24.7953 15.8068C24.1745 15.8068 23.671 16.3103 23.671 16.9315Z" fill="#0F0F0F"/>
</svg>
