<svg width="33" height="33" viewBox="0 0 33 33" fill="none" xmlns="http://www.w3.org/2000/svg">
<g clip-path="url(#clip0_27213_1772)">
<path d="M16.4648 31.8933C25.0253 31.8933 31.9648 24.9537 31.9648 16.3933C31.9648 7.8329 25.0253 0.893311 16.4648 0.893311C7.90443 0.893311 0.964844 7.8329 0.964844 16.3933C0.964844 24.9537 7.90443 31.8933 16.4648 31.8933Z" fill="url(#paint0_linear_27213_1772)"/>
<path fill-rule="evenodd" clip-rule="evenodd" d="M7.98103 16.2297C12.4996 14.261 15.5127 12.9631 17.0203 12.3361C21.3248 10.5457 22.2192 10.2347 22.8022 10.2244C22.9304 10.2221 23.2171 10.2539 23.4029 10.4046C23.5597 10.5318 23.6028 10.7037 23.6234 10.8244C23.6441 10.945 23.6698 11.2198 23.6494 11.4345C23.4161 13.8855 22.4068 19.8332 21.8933 22.5783C21.676 23.7398 21.2482 24.1293 20.834 24.1674C19.9339 24.2502 19.2504 23.5725 18.3786 23.001C17.0144 22.1068 16.2437 21.5501 14.9195 20.6775C13.3892 19.669 14.3812 19.1147 15.2534 18.2089C15.4816 17.9718 19.4475 14.3645 19.5243 14.0373C19.5339 13.9964 19.5428 13.8438 19.4522 13.7633C19.3615 13.6827 19.2278 13.7102 19.1312 13.7322C18.9944 13.7632 16.8151 15.2037 12.5932 18.0535C11.9747 18.4783 11.4143 18.6853 10.9123 18.6744C10.3589 18.6625 9.29433 18.3615 8.50292 18.1042C7.53223 17.7887 6.76075 17.6219 6.82793 17.086C6.86292 16.8069 7.24729 16.5215 7.98103 16.2297Z" fill="white"/>
</g>
<defs>
<linearGradient id="paint0_linear_27213_1772" x1="16.4648" y1="0.893311" x2="16.4648" y2="31.6634" gradientUnits="userSpaceOnUse">
<stop stop-color="#2AABEE"/>
<stop offset="1" stop-color="#229ED9"/>
</linearGradient>
<clipPath id="clip0_27213_1772">
<rect width="32" height="32" fill="white" transform="translate(0.464844 0.393311)"/>
</clipPath>
</defs>
</svg>
