<svg width="33" height="33" viewBox="0 0 33 33" fill="none" xmlns="http://www.w3.org/2000/svg">
<g clip-path="url(#clip0_27213_1775)">
<path d="M7.0418 19.5321H19.1705V17.2071H7.0418V19.5321ZM7.0418 14.4946H25.6418V12.1696H7.0418V14.4946ZM7.0418 9.45706H25.6418V7.13206H7.0418V9.45706ZM0.841797 31.8933V3.21831C0.841797 2.62414 1.0743 2.0881 1.5393 1.61019C2.0043 1.13227 2.5468 0.893311 3.1668 0.893311H29.5168C30.111 0.893311 30.647 1.13227 31.1249 1.61019C31.6028 2.0881 31.8418 2.62414 31.8418 3.21831V23.3683C31.8418 23.9625 31.6028 24.4985 31.1249 24.9764C30.647 25.4544 30.111 25.6933 29.5168 25.6933H7.0418L0.841797 31.8933Z" fill="#0F0F0F"/>
</g>
<defs>
<clipPath id="clip0_27213_1775">
<rect width="32" height="32" fill="white" transform="translate(0.341797 0.393311)"/>
</clipPath>
</defs>
</svg>
