<svg width="33" height="33" viewBox="0 0 33 33" fill="none" xmlns="http://www.w3.org/2000/svg">
<path d="M20.2382 17.8629H22.8632C22.8867 17.8629 22.91 17.8582 22.9316 17.849C22.9533 17.8398 22.9728 17.8264 22.9892 17.8095C23.0055 17.7926 23.0183 17.7726 23.0267 17.7506C23.0351 17.7287 23.039 17.7053 23.0382 17.6818V17.0203C23.0382 16.9739 23.0198 16.9293 22.987 16.8965C22.9541 16.8637 22.9096 16.8453 22.8632 16.8453H21.0808V16.1575H22.8632C22.9096 16.1575 22.9541 16.1391 22.987 16.1063C23.0198 16.0734 23.0382 16.0289 23.0382 15.9825V15.314C23.0382 15.2676 23.0198 15.2231 22.987 15.1903C22.9541 15.1575 22.9096 15.139 22.8632 15.139H21.0808V14.4521H22.8632C22.9096 14.4521 22.9541 14.4337 22.987 14.4009C23.0198 14.3681 23.0382 14.3236 23.0382 14.2771V13.6148C23.0382 13.5684 23.0198 13.5238 22.987 13.491C22.9541 13.4582 22.9096 13.4398 22.8632 13.4398H20.2382C20.1918 13.4398 20.1473 13.4582 20.1145 13.491C20.0817 13.5238 20.0632 13.5684 20.0632 13.6148V17.6879C20.0632 17.7343 20.0817 17.7788 20.1145 17.8116C20.1473 17.8445 20.1918 17.8629 20.2382 17.8629Z" fill="#0F0F0F"/>
<path d="M13.1621 17.8629C13.2085 17.8629 13.253 17.8445 13.2858 17.8116C13.3187 17.7788 13.3371 17.7343 13.3371 17.6879V17.0264C13.3371 16.98 13.3187 16.9355 13.2858 16.9027C13.253 16.8698 13.2085 16.8514 13.1621 16.8514H11.3797V13.6139C11.3797 13.5675 11.3613 13.523 11.3285 13.4902C11.2956 13.4573 11.2511 13.4389 11.2047 13.4389H10.5397C10.4933 13.4389 10.4488 13.4573 10.416 13.4902C10.3832 13.523 10.3647 13.5675 10.3647 13.6139V17.6853C10.3647 17.7317 10.3832 17.7762 10.416 17.809C10.4488 17.8418 10.4933 17.8603 10.5397 17.8603H13.1647L13.1621 17.8629Z" fill="#0F0F0F"/>
<path d="M14.0791 13.4319H14.7406C14.8392 13.4319 14.9191 13.5118 14.9191 13.6104V17.6844C14.9191 17.783 14.8392 17.8629 14.7406 17.8629H14.0791C13.9805 17.8629 13.9006 17.783 13.9006 17.6844V13.6104C13.9006 13.5118 13.9805 13.4319 14.0791 13.4319Z" fill="#0F0F0F"/>
<path d="M19.2477 13.4319H18.5862C18.5398 13.4319 18.4953 13.4503 18.4625 13.4832C18.4297 13.516 18.4112 13.5605 18.4112 13.6069V16.0271L16.5475 13.5098C16.5432 13.5031 16.5382 13.4969 16.5326 13.4914L16.5221 13.4809L16.5125 13.473H16.5072L16.4976 13.466H16.4923L16.4827 13.4608H15.7416C15.6952 13.4608 15.6507 13.4792 15.6179 13.512C15.585 13.5448 15.5666 13.5894 15.5666 13.6358V17.7098C15.5666 17.7562 15.585 17.8007 15.6179 17.8335C15.6507 17.8663 15.6952 17.8848 15.7416 17.8848H16.404C16.4504 17.8848 16.4949 17.8663 16.5277 17.8335C16.5605 17.8007 16.579 17.7562 16.579 17.7098V15.2659L18.4453 17.7859C18.4576 17.8037 18.473 17.8192 18.4908 17.8314L18.5013 17.8384H18.5066L18.5153 17.8428H18.5425C18.5579 17.8466 18.5738 17.8486 18.5897 17.8489H19.2477C19.2941 17.8489 19.3386 17.8305 19.3715 17.7976C19.4043 17.7648 19.4227 17.7203 19.4227 17.6739V13.6104C19.4232 13.5871 19.419 13.564 19.4104 13.5423C19.4018 13.5207 19.389 13.501 19.3727 13.4844C19.3564 13.4678 19.337 13.4546 19.3155 13.4455C19.294 13.4365 19.271 13.4319 19.2477 13.4319Z" fill="#0F0F0F"/>
<path d="M24.3245 2.77002H8.94897C5.46281 2.77002 2.63672 5.59611 2.63672 9.08227V24.4578C2.63672 27.9439 5.46281 30.77 8.94897 30.77H24.3245C27.8106 30.77 30.6367 27.9439 30.6367 24.4578V9.08227C30.6367 5.59611 27.8106 2.77002 24.3245 2.77002ZM7.29872 15.4505C7.29872 11.2733 11.4865 7.87478 16.6341 7.87478C21.7817 7.87478 25.9695 11.2733 25.9695 15.4505C25.9695 17.12 25.3211 18.6285 23.9683 20.1117C22.0101 22.3665 17.6307 25.1132 16.6341 25.5323C15.6642 25.9402 15.7774 25.3006 15.8221 25.0482L15.8256 25.0283C15.8492 24.8883 15.9586 24.2294 15.9586 24.2294C15.9901 23.9914 16.0225 23.6213 15.928 23.385C15.8238 23.1252 15.41 22.9904 15.1055 22.9248C10.6237 22.3324 7.29872 19.1955 7.29872 15.4505Z" fill="#0F0F0F"/>
</svg>
