<svg width="32" height="32" viewBox="0 0 32 32" fill="none" xmlns="http://www.w3.org/2000/svg">
<g clip-path="url(#clip0_27213_1773)">
<path d="M0.5 12.7876C0.5 7.63084 5.5163 3.4502 11.7046 3.4502C17.2947 3.4502 21.9273 6.86151 22.7712 11.3221C22.5695 11.3122 22.3671 11.3057 22.1627 11.3057C16.5189 11.3057 11.9437 15.1187 11.9437 19.8214C11.9437 20.6146 12.0767 21.3819 12.3202 22.1101C12.1162 22.1192 11.9114 22.1247 11.7046 22.1247C10.4261 22.1247 9.19188 21.9417 8.04741 21.6128C7.94299 21.5808 7.83246 21.5635 7.71784 21.5635C7.50289 21.5635 7.30766 21.6291 7.12298 21.7356L4.6701 23.1518C4.60174 23.1913 4.53508 23.2215 4.45413 23.2215C4.24768 23.2215 4.08069 23.0545 4.08069 22.8481C4.08069 22.7785 4.10146 22.7091 4.12175 22.6414C4.12843 22.6191 4.13507 22.5969 4.14089 22.575L4.64561 20.6918C4.66704 20.6125 4.68507 20.5364 4.68507 20.4537C4.68507 20.2024 4.56127 19.9806 4.37148 19.8449C2.00907 18.1335 0.5 15.601 0.5 12.7876ZM7.96952 11.2935C8.79497 11.2935 9.46363 10.6249 9.46363 9.79944C9.46363 8.97433 8.79497 8.30567 7.96952 8.30567C7.14475 8.30567 6.47575 8.97433 6.47575 9.79944C6.47575 10.6249 7.14475 11.2935 7.96952 11.2935ZM13.9456 9.79944C13.9456 10.6249 14.6143 11.2935 15.4397 11.2935C16.2648 11.2935 16.9338 10.6249 16.9338 9.79944C16.9338 8.97433 16.2648 8.30567 15.4397 8.30567C14.6143 8.30567 13.9456 8.97433 13.9456 9.79944Z" fill="#0F0F0F"/>
<path d="M31.5 19.8216C31.5 22.166 30.2419 24.2764 28.2737 25.7028C28.1156 25.8158 28.0125 26.0008 28.0125 26.2099C28.0125 26.279 28.0271 26.3426 28.0452 26.4082C28.2019 26.9946 28.454 27.934 28.4659 27.9778C28.4707 27.9962 28.4762 28.0147 28.4818 28.0335C28.4986 28.0898 28.5159 28.1476 28.5159 28.205C28.5159 28.3771 28.3768 28.5166 28.2047 28.5166C28.137 28.5166 28.0819 28.4914 28.0247 28.4584L25.9807 27.2786C25.8273 27.1895 25.664 27.135 25.4851 27.135C25.3892 27.135 25.2971 27.1493 25.2103 27.1759C24.2567 27.4503 23.2282 27.6024 22.1626 27.6024C17.0058 27.6024 12.8255 24.1189 12.8255 19.8216C12.8255 15.524 17.0058 12.0406 22.1626 12.0406C27.3194 12.0406 31.5 15.524 31.5 19.8216ZM17.8054 17.3317C17.8054 18.0194 18.3629 18.5769 19.0499 18.5769C19.7379 18.5769 20.295 18.0194 20.295 17.3317C20.295 16.644 19.7379 16.0866 19.0499 16.0866C18.3629 16.0866 17.8054 16.644 17.8054 17.3317ZM24.0301 17.3317C24.0301 18.0194 24.5876 18.5769 25.2749 18.5769C25.9627 18.5769 26.5198 18.0194 26.5198 17.3317C26.5198 16.644 25.9627 16.0866 25.2749 16.0866C24.5876 16.0866 24.0301 16.644 24.0301 17.3317Z" fill="#0F0F0F"/>
</g>
<defs>
<clipPath id="clip0_27213_1773">
<rect width="32" height="32" fill="white"/>
</clipPath>
</defs>
</svg>
