<svg width="33" height="33" viewBox="0 0 33 33" fill="none" xmlns="http://www.w3.org/2000/svg">
<g clip-path="url(#clip0_27213_1773)">
<path d="M0.917969 13.1807C0.917969 8.02391 5.93427 3.84326 12.1226 3.84326C17.7127 3.84326 22.3453 7.25458 23.1891 11.7151C22.9874 11.7053 22.7851 11.6988 22.5807 11.6988C16.9369 11.6988 12.3617 15.5118 12.3617 20.2145C12.3617 21.0076 12.4947 21.7749 12.7382 22.5031C12.5341 22.5123 12.3294 22.5177 12.1226 22.5177C10.8441 22.5177 9.60985 22.3348 8.46537 22.0059C8.36096 21.9739 8.25042 21.9566 8.13581 21.9566C7.92086 21.9566 7.72563 22.0222 7.54095 22.1287L5.08807 23.5449C5.01971 23.5843 4.95305 23.6146 4.8721 23.6146C4.66565 23.6146 4.49866 23.4476 4.49866 23.2412C4.49866 23.1716 4.51943 23.1022 4.53972 23.0345C4.5464 23.0121 4.55304 22.99 4.55886 22.968L5.06358 21.0849C5.08501 21.0056 5.10304 20.9294 5.10304 20.8468C5.10304 20.5954 4.97924 20.3737 4.78945 20.238C2.42704 18.5265 0.917969 15.9941 0.917969 13.1807ZM8.38749 11.6866C9.21294 11.6866 9.8816 11.018 9.8816 10.1925C9.8816 9.3674 9.21294 8.69874 8.38749 8.69874C7.56272 8.69874 6.89372 9.3674 6.89372 10.1925C6.89372 11.018 7.56272 11.6866 8.38749 11.6866ZM14.3636 10.1925C14.3636 11.018 15.0322 11.6866 15.8577 11.6866C16.6828 11.6866 17.3518 11.018 17.3518 10.1925C17.3518 9.3674 16.6828 8.69874 15.8577 8.69874C15.0322 8.69874 14.3636 9.3674 14.3636 10.1925Z" fill="#0F0F0F"/>
<path d="M31.918 20.2147C31.918 22.5591 30.6599 24.6695 28.6917 26.0959C28.5335 26.2088 28.4305 26.3938 28.4305 26.603C28.4305 26.672 28.4451 26.7356 28.4631 26.8013C28.6199 27.3876 28.8719 28.327 28.8838 28.3709C28.8887 28.3892 28.8942 28.4078 28.8998 28.4265C28.9166 28.4829 28.9338 28.5407 28.9338 28.5981C28.9338 28.7702 28.7947 28.9096 28.6226 28.9096C28.555 28.9096 28.4999 28.8845 28.4427 28.8515L26.3986 27.6716C26.2453 27.5825 26.082 27.5281 25.9031 27.5281C25.8072 27.5281 25.715 27.5424 25.6283 27.5689C24.6746 27.8434 23.6461 27.9954 22.5806 27.9954C17.4238 27.9954 13.2435 24.512 13.2435 20.2147C13.2435 15.9171 17.4238 12.4336 22.5806 12.4336C27.7373 12.4336 31.918 15.9171 31.918 20.2147ZM18.2234 17.7248C18.2234 18.4125 18.7808 18.97 19.4679 18.97C20.1559 18.97 20.713 18.4125 20.713 17.7248C20.713 17.0371 20.1559 16.4797 19.4679 16.4797C18.7808 16.4797 18.2234 17.0371 18.2234 17.7248ZM24.4481 17.7248C24.4481 18.4125 25.0055 18.97 25.6929 18.97C26.3806 18.97 26.9377 18.4125 26.9377 17.7248C26.9377 17.0371 26.3806 16.4797 25.6929 16.4797C25.0055 16.4797 24.4481 17.0371 24.4481 17.7248Z" fill="#0F0F0F"/>
</g>
<defs>
<clipPath id="clip0_27213_1773">
<rect width="32" height="32" fill="white" transform="translate(0.417969 0.393311)"/>
</clipPath>
</defs>
</svg>
