<svg width="33" height="33" viewBox="0 0 33 33" fill="none" xmlns="http://www.w3.org/2000/svg">
<path d="M16.7715 0.893311C8.03987 0.893311 1.27148 7.28947 1.27148 15.9289C1.27148 20.4479 3.12342 24.3528 6.13934 27.0499C6.26507 27.1613 6.36683 27.2971 6.43841 27.449C6.51 27.601 6.54992 27.7659 6.55574 27.9338L6.64014 30.691C6.64633 30.8941 6.7023 31.0925 6.80314 31.2689C6.90399 31.4452 7.04661 31.5941 7.21847 31.7024C7.39033 31.8107 7.58616 31.8751 7.78875 31.89C7.99135 31.9049 8.19449 31.8697 8.38033 31.7877L11.4568 30.4295C11.7176 30.3146 12.01 30.2931 12.2847 30.3688C13.7468 30.7676 15.2559 30.968 16.7715 30.9645C25.5031 30.9645 32.2715 24.5683 32.2715 15.9289C32.2715 7.28947 25.5031 0.893311 16.7715 0.893311ZM26.0792 12.4619L21.5261 19.6858C21.3548 19.9576 21.1291 20.1909 20.8632 20.371C20.5973 20.5512 20.2969 20.6743 19.9811 20.7325C19.6652 20.7908 19.3407 20.783 19.028 20.7096C18.7153 20.6362 18.4212 20.4988 18.1642 20.3061L14.5428 17.5899C14.3811 17.4686 14.1843 17.4034 13.9821 17.4039C13.78 17.4045 13.5836 17.471 13.4226 17.5932L8.53176 21.3051C7.87898 21.8005 7.02687 21.0192 7.46381 20.326L12.0169 13.1021C12.1881 12.8303 12.4138 12.597 12.6798 12.4169C12.9457 12.2367 13.246 12.1136 13.5619 12.0554C13.8778 11.9971 14.2023 12.0049 14.515 12.0783C14.8277 12.1516 15.1218 12.289 15.3787 12.4817L19.0001 15.1979C19.1618 15.3192 19.3586 15.3845 19.5607 15.3839C19.7629 15.3833 19.9593 15.3169 20.1203 15.1947L25.0111 11.4827C25.664 10.9873 26.5161 11.7686 26.0792 12.4619Z" fill="url(#paint0_radial_27213_1795)"/>
<path d="M21.5261 19.6858L26.0792 12.4619C26.5161 11.7686 25.664 10.9873 25.0111 11.4827L20.1203 15.1947C19.9593 15.3169 19.7629 15.3833 19.5607 15.3839C19.3586 15.3845 19.1618 15.3192 19.0001 15.1979L15.3787 12.4817C15.1218 12.289 14.8277 12.1516 14.515 12.0783C14.2023 12.0049 13.8778 11.9971 13.5619 12.0554C13.246 12.1136 12.9457 12.2367 12.6798 12.4169C12.4138 12.597 12.1881 12.8303 12.0169 13.1021L7.46381 20.326C7.02687 21.0192 7.87898 21.8005 8.53176 21.3051L13.4226 17.5932C13.5836 17.471 13.78 17.4045 13.9821 17.4039C14.1843 17.4034 14.3811 17.4686 14.5428 17.5899L18.1642 20.3061C18.4212 20.4988 18.7153 20.6362 19.028 20.7096C19.3407 20.783 19.6652 20.7908 19.9811 20.7325C20.2969 20.6743 20.5973 20.5512 20.8632 20.371C21.1291 20.1909 21.3548 19.9576 21.5261 19.6858Z" fill="white"/>
<defs>
<radialGradient id="paint0_radial_27213_1795" cx="0" cy="0" r="1" gradientUnits="userSpaceOnUse" gradientTransform="translate(7.23819 31.7275) scale(33.7775)">
<stop stop-color="#0099FF"/>
<stop offset="0.609754" stop-color="#A033FF"/>
<stop offset="0.934823" stop-color="#FF5280"/>
<stop offset="1" stop-color="#FF7061"/>
</radialGradient>
</defs>
</svg>
