<svg width="33" height="33" viewBox="0 0 33 33" fill="none" xmlns="http://www.w3.org/2000/svg">
<g clip-path="url(#clip0_27213_1774)">
<path d="M20.6241 17.6033H23.5303C23.5564 17.6033 23.5821 17.5981 23.6061 17.5879C23.63 17.5777 23.6517 17.5629 23.6698 17.5442C23.6879 17.5254 23.702 17.5033 23.7113 17.479C23.7207 17.4547 23.725 17.4288 23.7241 17.4027V16.6704C23.7241 16.619 23.7037 16.5697 23.6673 16.5334C23.631 16.497 23.5817 16.4766 23.5303 16.4766H21.557V15.7152H23.5303C23.5817 15.7152 23.631 15.6948 23.6673 15.6584C23.7037 15.6221 23.7241 15.5728 23.7241 15.5214V14.7813C23.7241 14.7299 23.7037 14.6806 23.6673 14.6443C23.631 14.608 23.5817 14.5876 23.5303 14.5876H21.557V13.8271H23.5303C23.5817 13.8271 23.631 13.8067 23.6673 13.7703C23.7037 13.734 23.7241 13.6847 23.7241 13.6333V12.9C23.7241 12.8486 23.7037 12.7993 23.6673 12.763C23.631 12.7267 23.5817 12.7062 23.5303 12.7062H20.6241C20.5727 12.7062 20.5234 12.7267 20.4871 12.763C20.4508 12.7993 20.4303 12.8486 20.4303 12.9V17.4095C20.4303 17.4609 20.4508 17.5102 20.4871 17.5465C20.5234 17.5829 20.5727 17.6033 20.6241 17.6033Z" fill="#0F0F0F"/>
<path d="M12.7898 17.6033C12.8412 17.6033 12.8905 17.5829 12.9268 17.5465C12.9631 17.5102 12.9836 17.4609 12.9836 17.4095V16.6772C12.9836 16.6258 12.9631 16.5765 12.9268 16.5402C12.8905 16.5038 12.8412 16.4834 12.7898 16.4834H10.8165V12.899C10.8165 12.8476 10.7961 12.7984 10.7597 12.762C10.7234 12.7257 10.6741 12.7053 10.6227 12.7053H9.88647C9.83508 12.7053 9.7858 12.7257 9.74947 12.762C9.71313 12.7984 9.69272 12.8476 9.69272 12.899V17.4066C9.69272 17.458 9.71313 17.5073 9.74947 17.5436C9.7858 17.58 9.83508 17.6004 9.88647 17.6004H12.7927L12.7898 17.6033Z" fill="#0F0F0F"/>
<path d="M13.8051 12.6975H14.5374C14.6466 12.6975 14.7351 12.786 14.7351 12.8952V17.4057C14.7351 17.5148 14.6466 17.6033 14.5374 17.6033H13.8051C13.6959 17.6033 13.6074 17.5148 13.6074 17.4057V12.8952C13.6074 12.786 13.6959 12.6975 13.8051 12.6975Z" fill="#0F0F0F"/>
<path d="M19.5275 12.6975H18.7951C18.7437 12.6975 18.6944 12.7179 18.6581 12.7543C18.6218 12.7906 18.6013 12.8399 18.6013 12.8913V15.5708L16.5379 12.7837C16.5332 12.7764 16.5277 12.7695 16.5214 12.7634L16.5098 12.7518L16.4992 12.7431H16.4933L16.4827 12.7353H16.4769L16.4662 12.7295H15.6457C15.5943 12.7295 15.545 12.7499 15.5087 12.7862C15.4724 12.8226 15.4519 12.8719 15.4519 12.9232V17.4337C15.4519 17.4851 15.4724 17.5344 15.5087 17.5708C15.545 17.6071 15.5943 17.6275 15.6457 17.6275H16.379C16.4304 17.6275 16.4797 17.6071 16.516 17.5708C16.5524 17.5344 16.5728 17.4851 16.5728 17.4337V14.728L18.6391 17.518C18.6527 17.5378 18.6697 17.5549 18.6895 17.5684L18.7011 17.5762H18.7069L18.7166 17.581H18.7467C18.7638 17.5852 18.7813 17.5875 18.799 17.5878H19.5275C19.5789 17.5878 19.6281 17.5674 19.6645 17.531C19.7008 17.4947 19.7212 17.4454 19.7212 17.394V12.8952C19.7217 12.8694 19.7171 12.8438 19.7076 12.8198C19.6981 12.7959 19.6839 12.774 19.6659 12.7556C19.6478 12.7372 19.6263 12.7226 19.6025 12.7126C19.5788 12.7027 19.5532 12.6975 19.5275 12.6975Z" fill="#0F0F0F"/>
<path d="M25.1482 0.893311H8.12528C4.2656 0.893311 1.13672 4.0222 1.13672 7.88187V24.9047C1.13672 28.7644 4.2656 31.8933 8.12528 31.8933H25.1482C29.0078 31.8933 32.1367 28.7644 32.1367 24.9047V7.88187C32.1367 4.0222 29.0078 0.893311 25.1482 0.893311ZM6.29822 14.9324C6.29822 10.3076 10.9347 6.54501 16.6338 6.54501C22.333 6.54501 26.9694 10.3076 26.9694 14.9324C26.9694 16.7808 26.2516 18.4509 24.7539 20.093C22.5858 22.5894 17.7372 25.6304 16.6338 26.0944C15.56 26.546 15.6853 25.8378 15.7348 25.5585L15.7387 25.5364C15.7648 25.3814 15.8859 24.6519 15.8859 24.6519C15.9208 24.3884 15.9567 23.9786 15.852 23.7171C15.7368 23.4294 15.2785 23.2802 14.9414 23.2075C9.97947 22.5517 6.29822 19.0787 6.29822 14.9324Z" fill="#0F0F0F"/>
</g>
<defs>
<clipPath id="clip0_27213_1774">
<rect width="32" height="32" fill="white" transform="translate(0.636719 0.393311)"/>
</clipPath>
</defs>
</svg>
