<svg width="33" height="33" viewBox="0 0 33 33" fill="none" xmlns="http://www.w3.org/2000/svg">
<path d="M26.6529 6.4624C25.3613 5.16862 23.8245 4.14278 22.1317 3.4443C20.4389 2.74583 18.6236 2.38862 16.7911 2.39336C9.10675 2.39336 2.85262 8.61716 2.8496 16.2671C2.84647 18.7018 3.48835 21.0944 4.71052 23.2036L2.73242 30.3933L10.123 28.464C12.1671 29.572 14.4577 30.1527 16.7853 30.1528H16.791C24.4746 30.1528 30.7292 23.9284 30.7324 16.2783C30.7382 14.455 30.3806 12.6486 29.6804 10.9638C28.9801 9.27888 27.9511 7.74892 26.6529 6.4624ZM16.7911 27.8094H16.7864C14.7112 27.8098 12.674 27.2545 10.8884 26.202L10.4654 25.9521L6.07969 27.097L7.25026 22.8415L6.97478 22.4052C5.81422 20.5668 5.20008 18.4391 5.20332 16.268C5.20586 9.90967 10.4041 4.73673 16.7958 4.73673C18.3177 4.7376 19.8245 5.03679 21.2303 5.61723C22.636 6.19766 23.9132 7.04798 24.9887 8.11963C26.0643 9.19126 26.9172 10.4632 27.4989 11.8629C28.0804 13.2627 28.3794 14.7626 28.3785 16.2773C28.3758 22.636 23.1777 27.8094 16.7911 27.8094ZM23.1469 19.1724C22.7986 18.9989 21.086 18.1603 20.7667 18.0446C20.4473 17.9287 20.2152 17.8711 19.9829 18.2181C19.7507 18.565 19.0832 19.3461 18.8799 19.5774C18.6767 19.8089 18.4736 19.8379 18.1253 19.6639C17.7771 19.4901 16.6547 19.1244 15.3239 17.9432C14.2884 17.024 13.5893 15.8887 13.3861 15.5416C13.1829 15.1945 13.3645 15.007 13.5387 14.834C13.6955 14.6787 13.8872 14.4291 14.0613 14.2268C14.2355 14.0243 14.2935 13.8796 14.4096 13.6483C14.5257 13.4172 14.4678 13.2145 14.3807 13.041C14.2935 12.8675 13.5969 11.161 13.3066 10.4668C13.0238 9.79091 12.7366 9.88246 12.5228 9.87168C12.3198 9.86163 12.0873 9.8595 11.8552 9.8595C11.6786 9.86408 11.5049 9.90497 11.345 9.97959C11.1851 10.0543 11.0424 10.1611 10.926 10.2933C10.6067 10.6404 9.70678 11.4791 9.70678 13.1855C9.70678 14.8918 10.9553 16.5406 11.1291 16.772C11.3029 17.0034 13.5855 20.5051 17.08 22.0068C17.7285 22.2849 18.3913 22.5287 19.0658 22.737C19.9003 23.001 20.6597 22.9637 21.2599 22.8744C21.9292 22.7746 23.321 22.0358 23.6112 21.226C23.9015 20.4163 23.9014 19.722 23.8143 19.5774C23.7272 19.433 23.4953 19.3461 23.1469 19.1724Z" fill="#111B21"/>
</svg>
