<svg width="33" height="33" viewBox="0 0 33 33" fill="none" xmlns="http://www.w3.org/2000/svg">
<path d="M28.1184 3.91699C27.3643 3.20618 24.3161 0.946263 17.5267 0.915561C17.5267 0.915561 9.52038 0.422458 5.61739 4.07889C3.44476 6.29833 2.68046 9.54585 2.59985 13.5722C2.51923 17.5983 2.41493 25.1439 9.53632 27.1897H9.54316L9.5386 30.3117C9.5386 30.3117 9.49306 31.5757 10.3079 31.8333C11.1305 32.0942 11.6694 31.4683 12.3723 30.6522C12.5115 30.4904 12.6574 30.321 12.8131 30.1498C13.3295 29.5813 14.0428 28.7463 14.5803 28.1081C19.4507 28.5267 23.1966 27.5699 23.622 27.4284C23.7098 27.3994 23.8342 27.367 23.9884 27.327C25.5619 26.9184 30.2507 25.7007 31.075 18.8298C32.0092 11.053 30.6232 6.13412 28.1184 3.91699ZM28.9438 18.272C28.256 23.9443 24.5284 24.8302 23.1853 25.1494C23.0369 25.1845 22.9172 25.213 22.8345 25.2401C22.4805 25.3565 19.1907 26.1924 15.0536 25.9165C15.0536 25.9165 11.9708 29.7148 11.008 30.7024C10.8577 30.8569 10.6809 30.9192 10.563 30.8885C10.3972 30.8472 10.3516 30.6466 10.3535 30.3535C10.3562 29.9349 10.3799 25.1657 10.3799 25.1657C4.55479 23.514 4.69064 17.4548 4.76775 14.0157C4.77039 13.8983 4.77296 13.7837 4.77521 13.6725C4.84353 10.3098 5.46207 7.55482 7.29947 5.70195C10.6008 2.64795 17.4015 3.10431 17.4015 3.10431C23.1446 3.12989 25.8967 4.89624 26.5347 5.48796C28.6536 7.34083 29.7332 11.7746 28.9438 18.2701V18.272ZM20.3219 13.7882C20.2235 13.7882 20.1288 13.7496 20.0576 13.6803C19.9862 13.611 19.9438 13.5164 19.9389 13.4161C19.8737 12.0851 19.2598 11.4334 18.0067 11.3645C17.9069 11.3564 17.8141 11.3088 17.7481 11.2318C17.6823 11.1547 17.6484 11.0546 17.6538 10.9524C17.6591 10.8502 17.7034 10.7544 17.7772 10.6851C17.8508 10.6158 17.9481 10.5786 18.0482 10.5816C19.7016 10.6746 20.6207 11.6389 20.7054 13.377C20.7079 13.4284 20.7005 13.4799 20.6836 13.5284C20.6667 13.5768 20.6405 13.6215 20.6067 13.6597C20.5729 13.6978 20.532 13.7288 20.4864 13.7509C20.4408 13.7729 20.3914 13.7856 20.341 13.7882H20.3219ZM22.2826 14.4635H22.2917C22.3922 14.4633 22.4886 14.4229 22.5603 14.351C22.632 14.2791 22.6733 14.1814 22.6753 14.0788C22.709 12.5478 22.2503 11.2444 21.3279 10.2139C20.4055 9.18351 19.1084 8.5988 17.4719 8.47644C17.3702 8.46886 17.2697 8.50285 17.1925 8.57094C17.1153 8.63904 17.0677 8.73565 17.0603 8.83952C17.053 8.94341 17.0862 9.04606 17.1529 9.12484C17.2196 9.20366 17.3141 9.2523 17.4158 9.25981C18.8702 9.36867 19.961 9.85251 20.7618 10.7447C21.5625 11.637 21.9374 12.7223 21.9078 14.0626C21.9054 14.1664 21.9437 14.267 22.0139 14.3423C22.0842 14.4175 22.1809 14.461 22.2826 14.4635ZM24.3084 15.2679C24.2071 15.2677 24.1099 15.2268 24.0379 15.1539C23.9661 15.0809 23.9253 14.9821 23.9245 14.8786C23.9066 12.4813 23.2307 10.6504 21.8579 9.28175C20.5015 7.93269 18.788 7.24048 16.7643 7.22559C16.7139 7.22541 16.664 7.21509 16.6175 7.19521C16.5709 7.17533 16.5287 7.14629 16.4932 7.10975C16.4215 7.03594 16.3813 6.93605 16.3817 6.83205C16.382 6.72803 16.4229 6.62844 16.4951 6.55514C16.5674 6.48186 16.6652 6.44091 16.767 6.44128H16.7703C18.9984 6.45802 20.8905 7.22466 22.394 8.72073C23.8975 10.2168 24.6728 12.2907 24.6928 14.8739C24.6935 14.9778 24.6538 15.0778 24.5825 15.1518C24.5111 15.2259 24.4138 15.268 24.312 15.2688L24.3084 15.2679ZM18.9335 18.3298C18.643 18.6954 18.1033 18.6489 18.1033 18.6489C14.1583 17.6204 13.1025 13.5392 13.1025 13.5392C13.1025 13.5392 13.0551 12.9879 13.4151 12.6912L14.1279 12.1124C14.4813 11.8342 14.7067 11.1593 14.3469 10.5001C14.0709 10.0052 13.7708 9.52498 13.4478 9.06082C13.1339 8.62304 12.4029 7.72661 12.4002 7.72382C12.0476 7.2991 11.5293 7.20047 10.9828 7.49121L10.9766 7.49269L10.9713 7.494C10.4277 7.81391 9.93756 8.22032 9.51929 8.69794C9.51786 8.70085 9.51501 8.70364 9.51501 8.70364C9.51501 8.70364 9.51239 8.70619 9.51109 8.70863C9.17343 9.12484 8.98016 9.53285 8.93127 9.93251C8.92111 9.99153 8.9176 10.0514 8.92079 10.1112C8.91898 10.2877 8.94528 10.4633 8.99868 10.6313L9.01735 10.6443C9.1877 11.2621 9.61403 12.2911 10.5405 14.0068C11.0703 14.9991 11.6816 15.9439 12.3674 16.831C12.711 17.2756 13.0793 17.6998 13.4706 18.1014C13.4753 18.1063 13.4799 18.111 13.4846 18.1158C13.4939 18.1255 13.5031 18.1349 13.5124 18.1442L13.6381 18.2726C14.0314 18.6721 14.4467 19.0483 14.882 19.3993C15.7508 20.0999 16.676 20.7241 17.6478 21.2652C19.3272 22.2114 20.3355 22.6468 20.9395 22.8208L20.9522 22.8398C21.1167 22.8946 21.2887 22.9216 21.4615 22.9199C21.52 22.9228 21.5787 22.919 21.6364 22.9088C22.0283 22.8613 22.4275 22.6642 22.8339 22.3175C22.8363 22.3161 22.8388 22.3134 22.8388 22.3134C22.8388 22.3134 22.8414 22.3106 22.8443 22.309C23.3119 21.8818 23.71 21.3812 24.0236 20.826L24.0246 20.8207L24.0258 20.8144C24.3104 20.2561 24.2139 19.7267 23.7958 19.3663C23.7958 19.3663 23.7611 19.3376 23.7034 19.2889C23.4664 19.0896 22.8313 18.5552 22.4868 18.2963C22.0328 17.9664 21.5629 17.66 21.0789 17.378C20.433 17.0105 19.7735 17.2408 19.5002 17.6018L18.9335 18.3298Z" fill="#0F0F0F"/>
</svg>
