<svg width="33" height="33" viewBox="0 0 33 33" fill="none" xmlns="http://www.w3.org/2000/svg">
<path d="M7.69571 19.2283H18.6507V17.1283H7.69571V19.2283ZM7.69571 14.6783H24.4957V12.5783H7.69571V14.6783ZM7.69571 10.1283H24.4957V8.02832H7.69571V10.1283ZM2.0957 30.3933V4.49331C2.0957 3.95665 2.3057 3.47248 2.7257 3.04081C3.1457 2.60914 3.63571 2.39331 4.19571 2.39331H27.9957C28.5324 2.39331 29.0166 2.60914 29.4482 3.04081C29.8799 3.47248 30.0957 3.95665 30.0957 4.49331V22.6933C30.0957 23.23 29.8799 23.7142 29.4482 24.1458C29.0166 24.5775 28.5324 24.7933 27.9957 24.7933H7.69571L2.0957 30.3933Z" fill="#3B78E7"/>
</svg>
