<svg width="33" height="33" viewBox="0 0 33 33" fill="none" xmlns="http://www.w3.org/2000/svg">
<path d="M27.9641 4.06055C27.21 3.34973 24.1618 1.08982 17.3724 1.05912C17.3724 1.05912 9.36609 0.566013 5.46309 4.22244C3.29046 6.44189 2.52617 9.6894 2.44555 13.7157C2.36493 17.7419 2.26063 25.2874 9.38202 27.3333H9.38886L9.3843 30.4552C9.3843 30.4552 9.33876 31.7192 10.1536 31.9769C10.9763 32.2377 11.5151 31.6119 12.218 30.7958C12.3572 30.634 12.5031 30.4645 12.6588 30.2933C13.1752 29.7248 13.8885 28.8899 14.426 28.2516C19.2964 28.6702 23.0423 27.7134 23.4677 27.572C23.5555 27.5429 23.6799 27.5106 23.8341 27.4705C25.4076 27.0619 30.0964 25.8442 30.9207 18.9733C31.8549 11.1966 30.4689 6.27767 27.9641 4.06055ZM28.7895 18.4156C28.1017 24.0878 24.3741 24.9737 23.031 25.2929C22.8826 25.3281 22.7629 25.3566 22.6802 25.3836C22.3262 25.5 19.0364 26.3359 14.8993 26.06C14.8993 26.06 11.8166 29.8584 10.8537 30.846C10.7034 31.0005 10.5266 31.0627 10.4087 31.0321C10.2429 30.9907 10.1973 30.7902 10.1992 30.4971C10.2019 30.0785 10.2256 25.3092 10.2256 25.3092C4.40049 23.6575 4.53635 17.5983 4.61345 14.1592C4.61609 14.0418 4.61866 13.9272 4.62091 13.8161C4.68923 10.4533 5.30778 7.69838 7.14517 5.84551C10.4465 2.7915 17.2472 3.24786 17.2472 3.24786C22.9903 3.27345 25.7424 5.03979 26.3804 5.63151C28.4993 7.48438 29.5789 11.9182 28.7895 18.4136V18.4156ZM20.1677 13.9318C20.0692 13.9318 19.9745 13.8931 19.9033 13.8239C19.8319 13.7546 19.7895 13.6599 19.7846 13.5596C19.7194 12.2287 19.1055 11.5769 17.8524 11.508C17.7526 11.4999 17.6598 11.4523 17.5938 11.3753C17.528 11.2983 17.4941 11.1981 17.4995 11.096C17.5049 10.9938 17.5491 10.8979 17.6229 10.8287C17.6965 10.7594 17.7938 10.7222 17.8939 10.7252C19.5473 10.8182 20.4664 11.7825 20.5511 13.5205C20.5536 13.5719 20.5462 13.6234 20.5293 13.672C20.5124 13.7204 20.4862 13.7651 20.4524 13.8032C20.4186 13.8414 20.3777 13.8724 20.3321 13.8944C20.2865 13.9165 20.2371 13.9291 20.1867 13.9318H20.1677ZM22.1283 14.6071H22.1374C22.2379 14.6068 22.3343 14.5664 22.406 14.4945C22.4777 14.4226 22.519 14.325 22.521 14.2223C22.5547 12.6914 22.0961 11.388 21.1736 10.3575C20.2512 9.32706 18.9541 8.74235 17.3176 8.62C17.2159 8.61241 17.1154 8.64641 17.0382 8.7145C16.961 8.78259 16.9134 8.87921 16.906 8.98308C16.8987 9.08696 16.9319 9.18961 16.9986 9.2684C17.0653 9.34721 17.1598 9.39586 17.2615 9.40337C18.7159 9.51223 19.8067 9.99606 20.6075 10.8883C21.4082 11.7806 21.7831 12.8658 21.7535 14.2061C21.7511 14.31 21.7894 14.4106 21.8597 14.4858C21.9299 14.5611 22.0266 14.6046 22.1283 14.6071ZM24.1541 15.4114C24.0528 15.4113 23.9556 15.3704 23.8836 15.2974C23.8118 15.2245 23.771 15.1256 23.7702 15.0221C23.7523 12.6249 23.0764 10.794 21.7036 9.42531C20.3472 8.07624 18.6337 7.38404 16.61 7.36915C16.5596 7.36897 16.5097 7.35864 16.4632 7.33877C16.4166 7.31889 16.3744 7.28985 16.3389 7.2533C16.2672 7.1795 16.227 7.07961 16.2274 6.9756C16.2277 6.87158 16.2686 6.77199 16.3408 6.6987C16.4132 6.62542 16.5109 6.58446 16.6127 6.58483H16.616C18.8441 6.60157 20.7362 7.36822 22.2397 8.86429C23.7432 10.3603 24.5185 12.4342 24.5385 15.0175C24.5392 15.1213 24.4995 15.2214 24.4282 15.2954C24.3568 15.3694 24.2595 15.4115 24.1577 15.4124L24.1541 15.4114ZM18.7792 18.4734C18.4887 18.8389 17.949 18.7924 17.949 18.7924C14.004 17.764 12.9482 13.6828 12.9482 13.6828C12.9482 13.6828 12.9008 13.1315 13.2608 12.8347L13.9736 12.256C14.327 11.9778 14.5524 11.3028 14.1926 10.6436C13.9166 10.1488 13.6165 9.66854 13.2935 9.20437C12.9796 8.76659 12.2486 7.87017 12.2459 7.86738C11.8933 7.44265 11.3751 7.34402 10.8285 7.63477L10.8223 7.63625L10.8171 7.63756C10.2734 7.95747 9.78326 8.36388 9.36499 8.84149C9.36357 8.8444 9.36071 8.84719 9.36071 8.84719C9.36071 8.84719 9.3581 8.84974 9.35679 8.85219C9.01913 9.2684 8.82586 9.67641 8.77697 10.0761C8.76681 10.1351 8.7633 10.1949 8.76649 10.2548C8.76468 10.4313 8.79098 10.6069 8.84438 10.7749L8.86305 10.7879C9.03341 11.4056 9.45973 12.4347 10.3862 14.1503C10.916 15.1427 11.5273 16.0874 12.2131 16.9745C12.5567 17.4191 12.925 17.8434 13.3163 18.2449C13.321 18.2498 13.3256 18.2546 13.3303 18.2594C13.3396 18.269 13.3488 18.2784 13.3581 18.2877L13.4838 18.4161C13.8771 18.8157 14.2924 19.1919 14.7277 19.5429C15.5965 20.2435 16.5217 20.8677 17.4935 21.4087C19.1729 22.3549 20.1812 22.7904 20.7852 22.9643L20.7979 22.9834C20.9624 23.0381 21.1344 23.0652 21.3072 23.0634C21.3657 23.0664 21.4244 23.0626 21.4821 23.0523C21.874 23.0049 22.2732 22.8078 22.6796 22.4611C22.682 22.4596 22.6845 22.457 22.6845 22.457C22.6845 22.457 22.6871 22.4541 22.69 22.4526C23.1576 22.0254 23.5557 21.5247 23.8693 20.9696L23.8703 20.9642L23.8715 20.9579C24.1562 20.3997 24.0596 19.8703 23.6415 19.5099C23.6415 19.5099 23.6068 19.4811 23.5491 19.4325C23.3121 19.2331 22.677 18.6987 22.3325 18.4399C21.8785 18.11 21.4086 17.8035 20.9246 17.5216C20.2787 17.1541 19.6192 17.3843 19.3459 17.7454L18.7792 18.4734Z" fill="#0F0F0F"/>
</svg>
