<svg width="32" height="32" viewBox="0 0 32 32" fill="none" xmlns="http://www.w3.org/2000/svg">
<path d="M16 31C24.2843 31 31 24.2843 31 16C31 7.71573 24.2843 1 16 1C7.71573 1 1 7.71573 1 16C1 24.2843 7.71573 31 16 31Z" fill="url(#paint0_linear_27213_1772)"/>
<path fill-rule="evenodd" clip-rule="evenodd" d="M7.78986 15.8416C12.1627 13.9365 15.0786 12.6805 16.5375 12.0736C20.7032 10.341 21.5688 10.04 22.1329 10.0301C22.257 10.0279 22.5345 10.0586 22.7142 10.2045C22.866 10.3276 22.9077 10.4939 22.9277 10.6107C22.9477 10.7274 22.9725 10.9934 22.9528 11.2012C22.727 13.5731 21.7503 19.3289 21.2533 21.9854C21.0431 23.1095 20.629 23.4864 20.2282 23.5233C19.3571 23.6034 18.6957 22.9476 17.852 22.3946C16.5318 21.5292 15.786 20.9905 14.5045 20.146C13.0235 19.17 13.9836 18.6336 14.8276 17.757C15.0485 17.5276 18.8865 14.0367 18.9607 13.72C18.97 13.6804 18.9787 13.5327 18.8909 13.4548C18.8032 13.3768 18.6738 13.4035 18.5804 13.4247C18.448 13.4547 16.3389 14.8487 12.2533 17.6067C11.6547 18.0177 11.1124 18.218 10.6266 18.2075C10.091 18.196 9.06079 17.9047 8.29492 17.6557C7.35554 17.3504 6.60894 17.189 6.67395 16.6704C6.70782 16.4003 7.07978 16.124 7.78986 15.8416Z" fill="white"/>
<defs>
<linearGradient id="paint0_linear_27213_1772" x1="16" y1="1" x2="16" y2="30.7775" gradientUnits="userSpaceOnUse">
<stop stop-color="#2AABEE"/>
<stop offset="1" stop-color="#229ED9"/>
</linearGradient>
</defs>
</svg>
