<svg width="33" height="33" viewBox="0 0 33 33" fill="none" xmlns="http://www.w3.org/2000/svg">
<path d="M16.6855 2.39331C8.79893 2.39331 2.68555 8.17049 2.68555 15.9738C2.68555 20.0555 4.35827 23.5825 7.08232 26.0187C7.19588 26.1192 7.28779 26.2419 7.35245 26.3791C7.41711 26.5164 7.45317 26.6653 7.45843 26.817L7.53466 29.3074C7.54025 29.4908 7.5908 29.67 7.68189 29.8293C7.77297 29.9886 7.90179 30.123 8.05701 30.2208C8.21224 30.3187 8.38913 30.3769 8.57211 30.3903C8.7551 30.4037 8.93858 30.372 9.10644 30.2979L11.8852 29.0712C12.1207 28.9673 12.3848 28.948 12.633 29.0163C13.9536 29.3765 15.3167 29.5575 16.6855 29.5543C24.5722 29.5543 30.6855 23.7772 30.6855 15.9738C30.6855 8.17049 24.5722 2.39331 16.6855 2.39331ZM25.0925 12.8423L20.98 19.3672C20.8254 19.6126 20.6215 19.8234 20.3813 19.9861C20.1411 20.1488 19.8698 20.26 19.5845 20.3126C19.2992 20.3652 19.0061 20.3582 18.7237 20.2919C18.4412 20.2256 18.1756 20.1015 17.9435 19.9274L14.6726 17.4741C14.5265 17.3646 14.3487 17.3056 14.1661 17.3061C13.9836 17.3067 13.8061 17.3667 13.6607 17.4771L9.24322 20.8298C8.65361 21.2772 7.88396 20.5716 8.27862 19.9454L12.391 13.4206C12.5457 13.1751 12.7496 12.9644 12.9898 12.8017C13.23 12.639 13.5013 12.5278 13.7866 12.4752C14.0719 12.4225 14.365 12.4296 14.6474 12.4958C14.9298 12.5621 15.1955 12.6862 15.4276 12.8603L18.6985 15.3136C18.8445 15.4231 19.0223 15.4821 19.2049 15.4816C19.3875 15.481 19.5649 15.421 19.7103 15.3107L24.1278 11.958C24.7175 11.5105 25.4871 12.2161 25.0925 12.8423Z" fill="#0F0F0F"/>
</svg>
