<svg width="33" height="33" viewBox="0 0 33 33" fill="none" xmlns="http://www.w3.org/2000/svg">
<path fill-rule="evenodd" clip-rule="evenodd" d="M2.17188 12.8263C2.17188 15.3562 3.54806 17.6675 5.67489 19.1979C5.86255 19.3228 5.95638 19.5102 5.95638 19.7601C5.95638 19.8226 5.9251 19.9163 5.9251 19.9787C5.76872 20.6034 5.48723 21.6341 5.45595 21.6653C5.42467 21.759 5.3934 21.8215 5.3934 21.9152C5.3934 22.1026 5.54978 22.2588 5.73744 22.2588C5.8 22.2588 5.86255 22.2275 5.9251 22.1963L8.14577 20.9157C8.30215 20.822 8.48981 20.7596 8.67747 20.7596C8.7713 20.7596 8.89641 20.7596 8.99024 20.7908C10.0224 21.1031 11.1483 21.2593 12.3056 21.2593C17.9042 21.2593 22.4393 17.4801 22.4393 12.8263C22.4393 8.17254 17.9042 4.39331 12.3056 4.39331C6.70703 4.39331 2.17188 8.17254 2.17188 12.8263Z" fill="url(#paint0_linear_27213_1780)"/>
<path fill-rule="evenodd" clip-rule="evenodd" d="M21.7475 26.2222C22.7147 26.2222 23.6507 26.0963 24.4932 25.8446C24.5556 25.8131 24.6492 25.8131 24.7428 25.8131C24.8988 25.8131 25.0548 25.8761 25.1796 25.939L27.0205 27.0089C27.0829 27.0404 27.1141 27.0718 27.1765 27.0718C27.3325 27.0718 27.4573 26.946 27.4573 26.7886C27.4573 26.7257 27.4261 26.6628 27.4261 26.5683C27.4261 26.5369 27.1765 25.6872 27.0517 25.1523C27.0205 25.0894 27.0205 25.0264 27.0205 24.9635C27.0205 24.7747 27.1141 24.6173 27.2701 24.4915C29.0486 23.2013 30.1719 21.2817 30.1719 19.1419C30.1719 15.2399 26.3965 12.0616 21.7475 12.0616C17.0984 12.0616 13.323 15.2084 13.323 19.1419C13.323 23.0439 17.0984 26.2222 21.7475 26.2222Z" fill="url(#paint1_linear_27213_1780)"/>
<path fill-rule="evenodd" clip-rule="evenodd" d="M10.23 10.1037C10.23 10.8322 9.65457 11.4089 8.92769 11.4089C8.20081 11.4089 7.62536 10.8322 7.62536 10.1037C7.62536 9.37519 8.20081 8.79846 8.92769 8.79846C9.65457 8.79846 10.23 9.37519 10.23 10.1037Z" fill="#168743"/>
<path fill-rule="evenodd" clip-rule="evenodd" d="M16.9858 10.1037C16.9858 10.8322 16.4104 11.4089 15.6835 11.4089C14.9566 11.4089 14.3812 10.8322 14.3812 10.1037C14.3812 9.37519 14.9566 8.79846 15.6835 8.79846C16.4104 8.79846 16.9858 9.37519 16.9858 10.1037Z" fill="#168743"/>
<path fill-rule="evenodd" clip-rule="evenodd" d="M23.4975 16.9562C23.4975 17.5907 24.0039 18.0983 24.637 18.0983C25.2701 18.0983 25.7765 17.5907 25.7765 16.9562C25.7765 16.3217 25.2701 15.8141 24.637 15.8141C24.0039 15.8141 23.4975 16.3217 23.4975 16.9562Z" fill="#919191"/>
<path fill-rule="evenodd" clip-rule="evenodd" d="M17.8812 16.9562C17.8812 17.5907 18.3876 18.0983 19.0207 18.0983C19.6538 18.0983 20.1602 17.5907 20.1602 16.9562C20.1602 16.3217 19.6538 15.8141 19.0207 15.8141C18.3876 15.8141 17.8812 16.3217 17.8812 16.9562Z" fill="#919191"/>
<defs>
<linearGradient id="paint0_linear_27213_1780" x1="29.3074" y1="25.7452" x2="29.3074" y2="4.49231" gradientUnits="userSpaceOnUse">
<stop stop-color="#05CD66"/>
<stop offset="1" stop-color="#61F380"/>
<stop offset="1" stop-color="#9EEE69"/>
</linearGradient>
<linearGradient id="paint1_linear_27213_1780" x1="29.2967" y1="25.6057" x2="29.2967" y2="4.38513" gradientUnits="userSpaceOnUse">
<stop stop-color="#E4E6E6"/>
<stop offset="1" stop-color="#F0F0F0"/>
</linearGradient>
</defs>
</svg>
