<svg width="33" height="33" viewBox="0 0 33 33" fill="none" xmlns="http://www.w3.org/2000/svg">
<g clip-path="url(#clip0_27213_1777)">
<path d="M24.9685 0.893311H7.94559C4.08592 0.893311 0.957031 4.0222 0.957031 7.88187V24.9047C0.957031 28.7644 4.08592 31.8933 7.94559 31.8933H24.9685C28.8281 31.8933 31.957 28.7644 31.957 24.9047V7.88187C31.957 4.0222 28.8281 0.893311 24.9685 0.893311Z" fill="#06C755"/>
<path d="M26.7897 14.9324C26.7897 10.3076 22.1533 6.54501 16.4541 6.54501C10.755 6.54501 6.11853 10.3076 6.11853 14.9324C6.11853 19.0787 9.79978 22.5517 14.7617 23.2075C15.0988 23.2802 15.5571 23.4294 15.6723 23.7171C15.777 23.9786 15.7411 24.3884 15.7063 24.6519C15.7063 24.6519 15.5852 25.3814 15.559 25.5364C15.5135 25.798 15.3507 26.5584 16.4541 26.0944C17.5575 25.6304 22.4061 22.5895 24.5742 20.093C26.0719 18.451 26.7897 16.7808 26.7897 14.9324Z" fill="white"/>
<path d="M23.3507 17.6033H20.4444C20.393 17.6033 20.3437 17.5829 20.3074 17.5465C20.2711 17.5102 20.2507 17.4609 20.2507 17.4095V12.9C20.2507 12.8486 20.2711 12.7993 20.3074 12.763C20.3437 12.7267 20.393 12.7062 20.4444 12.7062H23.3507C23.402 12.7062 23.4513 12.7267 23.4877 12.763C23.524 12.7993 23.5444 12.8486 23.5444 12.9V13.6333C23.5444 13.6847 23.524 13.734 23.4877 13.7703C23.4513 13.8067 23.402 13.8271 23.3507 13.8271H21.3773V14.5876H23.3507C23.402 14.5876 23.4513 14.608 23.4877 14.6443C23.524 14.6806 23.5444 14.7299 23.5444 14.7813V15.5214C23.5444 15.5728 23.524 15.6221 23.4877 15.6584C23.4513 15.6948 23.402 15.7152 23.3507 15.7152H21.3773V16.4766H23.3507C23.402 16.4766 23.4513 16.497 23.4877 16.5334C23.524 16.5697 23.5444 16.619 23.5444 16.6704V17.4027C23.5453 17.4288 23.541 17.4547 23.5317 17.479C23.5223 17.5033 23.5082 17.5254 23.4901 17.5442C23.472 17.5629 23.4504 17.5778 23.4264 17.5879C23.4024 17.5981 23.3767 17.6033 23.3507 17.6033Z" fill="#06C755"/>
<path d="M12.6101 17.6033C12.6615 17.6033 12.7108 17.5829 12.7471 17.5465C12.7835 17.5102 12.8039 17.4609 12.8039 17.4095V16.6771C12.8039 16.6258 12.7835 16.5765 12.7471 16.5401C12.7108 16.5038 12.6615 16.4834 12.6101 16.4834H10.6368V12.899C10.6368 12.8476 10.6164 12.7984 10.58 12.762C10.5437 12.7257 10.4944 12.7053 10.443 12.7053H9.70678C9.6554 12.7053 9.60611 12.7257 9.56978 12.762C9.53344 12.7984 9.51303 12.8476 9.51303 12.899V17.4066C9.51303 17.458 9.53344 17.5073 9.56978 17.5436C9.60611 17.58 9.6554 17.6004 9.70678 17.6004H12.613L12.6101 17.6033Z" fill="#06C755"/>
<path d="M14.3578 12.6975H13.6254C13.5162 12.6975 13.4278 12.786 13.4278 12.8952V17.4057C13.4278 17.5148 13.5162 17.6033 13.6254 17.6033H14.3578C14.4669 17.6033 14.5554 17.5148 14.5554 17.4057V12.8952C14.5554 12.786 14.4669 12.6975 14.3578 12.6975Z" fill="#06C755"/>
<path d="M19.3478 12.6975H18.6154C18.564 12.6975 18.5147 12.7179 18.4784 12.7543C18.4421 12.7906 18.4217 12.8399 18.4217 12.8913V15.5708L16.3582 12.7837C16.3535 12.7764 16.348 12.7695 16.3418 12.7634L16.3301 12.7518L16.3195 12.7431H16.3137L16.303 12.7353H16.2972L16.2865 12.7295H15.466C15.4146 12.7295 15.3653 12.7499 15.329 12.7862C15.2927 12.8226 15.2723 12.8719 15.2723 12.9232V17.4337C15.2723 17.4851 15.2927 17.5344 15.329 17.5707C15.3653 17.6071 15.4146 17.6275 15.466 17.6275H16.1994C16.2507 17.6275 16.3 17.6071 16.3364 17.5707C16.3727 17.5344 16.3931 17.4851 16.3931 17.4337V14.728L18.4594 17.518C18.473 17.5378 18.4901 17.5549 18.5098 17.5684L18.5214 17.5762H18.5273L18.5369 17.581H18.567C18.5841 17.5852 18.6017 17.5875 18.6193 17.5878H19.3478C19.3992 17.5878 19.4485 17.5674 19.4848 17.531C19.5211 17.4947 19.5415 17.4454 19.5415 17.394V12.8952C19.5421 12.8694 19.5374 12.8438 19.5279 12.8198C19.5184 12.7959 19.5042 12.774 19.4862 12.7556C19.4681 12.7372 19.4466 12.7226 19.4228 12.7126C19.3991 12.7027 19.3736 12.6975 19.3478 12.6975Z" fill="#06C755"/>
</g>
<defs>
<clipPath id="clip0_27213_1777">
<rect width="32" height="32" fill="white" transform="translate(0.457031 0.393311)"/>
</clipPath>
</defs>
</svg>
