<svg width="32" height="33" viewBox="0 0 32 33" fill="none" xmlns="http://www.w3.org/2000/svg">
<g clip-path="url(#clip0_27213_1781)">
<path d="M31.5 16.5369C31.5 7.97645 24.5604 1.03687 16 1.03687C7.43958 1.03687 0.5 7.97645 0.5 16.5369C0.5 24.2734 6.16813 30.6858 13.5781 31.8485V21.0173H9.64258V16.5369H13.5781V13.122C13.5781 9.23733 15.8922 7.09155 19.4327 7.09155C21.1286 7.09155 22.9023 7.39429 22.9023 7.39429V11.2087H20.9478C19.0224 11.2087 18.4219 12.4035 18.4219 13.6293V16.5369H22.7207L22.0335 21.0173H18.4219V31.8485C25.8319 30.6858 31.5 24.2734 31.5 16.5369Z" fill="#1877F2"/>
<path d="M22.0335 21.0173L22.7207 16.5369H18.4219V13.6293C18.4219 12.4035 19.0224 11.2087 20.9478 11.2087H22.9023V7.39429C22.9023 7.39429 21.1286 7.09155 19.4327 7.09155C15.8922 7.09155 13.5781 9.23733 13.5781 13.122V16.5369H9.64258V21.0173H13.5781V31.8485C15.1829 32.0997 16.8171 32.0997 18.4219 31.8485V21.0173H22.0335Z" fill="white"/>
</g>
<defs>
<clipPath id="clip0_27213_1781">
<rect width="32" height="32" fill="white" transform="translate(0 0.536865)"/>
</clipPath>
</defs>
</svg>
