<svg width="33" height="33" viewBox="0 0 33 33" fill="none" xmlns="http://www.w3.org/2000/svg">
<g clip-path="url(#clip0_27213_1783)">
<path d="M6.7957 19.6756H18.9245V17.3506H6.7957V19.6756ZM6.7957 14.6381H25.3957V12.3131H6.7957V14.6381ZM6.7957 9.60062H25.3957V7.27562H6.7957V9.60062ZM0.595703 32.0369V3.36187C0.595703 2.7677 0.828203 2.23166 1.2932 1.75374C1.7582 1.27582 2.3007 1.03687 2.9207 1.03687H29.2707C29.8649 1.03687 30.4009 1.27582 30.8788 1.75374C31.3567 2.23166 31.5957 2.7677 31.5957 3.36187V23.5119C31.5957 24.106 31.3567 24.6421 30.8788 25.12C30.4009 25.5979 29.8649 25.8369 29.2707 25.8369H6.7957L0.595703 32.0369Z" fill="#3B78E7"/>
</g>
<defs>
<clipPath id="clip0_27213_1783">
<rect width="32" height="32" fill="white" transform="translate(0.0957031 0.536865)"/>
</clipPath>
</defs>
</svg>
