<svg width="33" height="33" viewBox="0 0 33 33" fill="none" xmlns="http://www.w3.org/2000/svg">
<path d="M30.7109 16.77C30.7109 24.502 24.4429 30.77 16.7109 30.77C8.97895 30.77 2.71094 24.502 2.71094 16.77C2.71094 9.03803 8.97895 2.77002 16.7109 2.77002C24.4429 2.77002 30.7109 9.03803 30.7109 16.77ZM17.2126 13.1054C15.8509 13.6718 13.1294 14.8441 9.04814 16.6222C8.3854 16.8858 8.03823 17.1436 8.00662 17.3957C7.95321 17.8218 8.48676 17.9895 9.21332 18.218C9.31214 18.2491 9.41454 18.2813 9.51952 18.3154C10.2343 18.5478 11.1959 18.8196 11.6958 18.8304C12.1492 18.8402 12.6553 18.6533 13.214 18.2696C17.0273 15.6955 18.9957 14.3945 19.1193 14.3664C19.2065 14.3466 19.3273 14.3217 19.4092 14.3945C19.491 14.4673 19.483 14.6051 19.4743 14.642C19.4214 14.8673 17.3271 16.8145 16.2432 17.8221C15.9053 18.1362 15.6657 18.359 15.6167 18.4099C15.5069 18.5239 15.3951 18.6318 15.2876 18.7354C14.6235 19.3756 14.1255 19.8556 15.3151 20.6396C15.8868 21.0163 16.3443 21.3279 16.8007 21.6387C17.2991 21.9781 17.7963 22.3167 18.4395 22.7383C18.6033 22.8457 18.7599 22.9573 18.9123 23.066C19.4923 23.4795 20.0135 23.851 20.6573 23.7918C21.0314 23.7573 21.4178 23.4056 21.614 22.3564C22.0778 19.877 22.9895 14.5049 23.2002 12.2911C23.2186 12.0972 23.1954 11.849 23.1768 11.74C23.1581 11.6311 23.1192 11.4758 22.9775 11.3609C22.8098 11.2248 22.5508 11.1961 22.435 11.1981C21.9085 11.2074 21.1006 11.4883 17.2126 13.1054Z" fill="#0F0F0F"/>
</svg>
