<svg width="33" height="33" viewBox="0 0 33 33" fill="none" xmlns="http://www.w3.org/2000/svg">
<path fill-rule="evenodd" clip-rule="evenodd" d="M27.7779 5.39806C24.8781 2.49457 21.0215 0.894784 16.9123 0.893311C8.4449 0.893311 1.55372 7.78376 1.55077 16.2534C1.5493 18.9609 2.25713 21.6037 3.60133 23.9327L1.42188 31.8933L9.56519 29.7573C11.8087 30.9815 14.3351 31.6259 16.9057 31.6267H16.9123C25.3782 31.6267 32.2702 24.7355 32.2731 16.2659C32.2746 12.1611 30.6784 8.30229 27.7779 5.3988V5.39806ZM16.9123 29.0325H16.9071C14.6164 29.0319 12.3693 28.416 10.4086 27.253L9.94232 26.9761L5.1098 28.2437L6.3995 23.5319L6.09603 23.0488C4.81812 21.0159 4.1427 18.6663 4.14417 16.2541C4.14712 9.21488 9.87455 3.48744 16.9175 3.48744C20.3277 3.48892 23.5332 4.8184 25.9439 7.23208C28.3547 9.64503 29.6812 12.8535 29.6797 16.2644C29.6767 23.3044 23.9494 29.0319 16.9123 29.0319V29.0325ZM23.9154 19.4706C23.5317 19.2784 21.6447 18.3503 21.2926 18.2222C20.9405 18.094 20.685 18.03 20.4293 18.4144C20.1738 18.7989 19.438 19.6636 19.214 19.9192C18.9901 20.1755 18.7662 20.2072 18.3824 20.0149C17.9988 19.8227 16.762 19.4176 15.2956 18.1102C14.1547 17.0923 13.3842 15.8358 13.1603 15.4512C12.9364 15.0668 13.1368 14.8591 13.3282 14.6683C13.5006 14.496 13.712 14.2198 13.9042 13.9958C14.0965 13.7719 14.1598 13.6114 14.288 13.3558C14.4162 13.0994 14.3521 12.8756 14.2563 12.6833C14.1605 12.4911 13.3931 10.6018 13.0727 9.83357C12.7611 9.08525 12.4444 9.18689 12.2094 9.17437C11.9855 9.16332 11.73 9.16111 11.4736 9.16111C11.2173 9.16111 10.8018 9.25686 10.4498 9.64135C10.0978 10.0258 9.10632 10.9546 9.10632 12.8431C9.10632 14.7316 10.4815 16.5576 10.6737 16.8139C10.866 17.0702 13.3805 20.9467 17.2305 22.6098C18.1461 23.0053 18.8612 23.2418 19.4188 23.4186C20.338 23.711 21.1747 23.6697 21.8361 23.571C22.5735 23.4606 24.107 22.6422 24.4266 21.7458C24.7463 20.8494 24.7463 20.0805 24.6505 19.9206C24.5548 19.7608 24.2985 19.6643 23.9147 19.4721L23.9154 19.4706Z" fill="#111B21"/>
</svg>
