<svg width="32" height="32" viewBox="0 0 32 32" fill="none" xmlns="http://www.w3.org/2000/svg">
<g clip-path="url(#clip0_32014_1903)">
<path d="M28.5647 24.6584C28.0958 25.7415 27.5409 26.7384 26.898 27.655C26.0216 28.9045 25.304 29.7694 24.751 30.2497C23.8937 31.0381 22.9753 31.4418 21.9917 31.4648C21.2856 31.4648 20.4341 31.2639 19.4429 30.8563C18.4484 30.4506 17.5345 30.2497 16.6989 30.2497C15.8225 30.2497 14.8826 30.4506 13.8772 30.8563C12.8703 31.2639 12.0592 31.4763 11.439 31.4973C10.4958 31.5375 9.55573 31.1223 8.61734 30.2497C8.0184 29.7273 7.26926 28.8318 6.37182 27.5631C5.40893 26.2084 4.61731 24.6374 3.99714 22.8463C3.33295 20.9117 3 19.0384 3 17.2248C3 15.1473 3.44891 13.3554 4.34808 11.8539C5.05474 10.6478 5.99485 9.69639 7.17148 8.99796C8.3481 8.29952 9.61945 7.94361 10.9886 7.92083C11.7377 7.92083 12.7201 8.15256 13.9409 8.60798C15.1583 9.06493 15.94 9.29666 16.2827 9.29666C16.5389 9.29666 17.4073 9.0257 18.8794 8.48552C20.2715 7.98455 21.4464 7.77713 22.4089 7.85884C25.017 8.06932 26.9764 9.09746 28.2795 10.9497C25.947 12.3631 24.7931 14.3426 24.8161 16.882C24.8371 18.8601 25.5547 20.5061 26.965 21.813C27.6041 22.4196 28.3178 22.8884 29.1119 23.2214C28.9397 23.7208 28.7579 24.1992 28.5647 24.6584ZM22.583 1.12018C22.583 2.67053 22.0166 4.11809 20.8876 5.45794C19.5252 7.05076 17.8773 7.97116 16.0902 7.82592C16.0674 7.63993 16.0542 7.44418 16.0542 7.23847C16.0542 5.75013 16.7022 4.15732 17.8528 2.85498C18.4272 2.19558 19.1578 1.64729 20.0437 1.20992C20.9278 0.779071 21.764 0.540803 22.5505 0.5C22.5734 0.707258 22.583 0.914549 22.583 1.12018Z" fill="#B3B3B3"/>
</g>
<defs>
<clipPath id="clip0_32014_1903">
<rect width="32" height="32" fill="white"/>
</clipPath>
</defs>
</svg>
