<svg width="32" height="32" viewBox="0 0 32 32" fill="none" xmlns="http://www.w3.org/2000/svg">
<g clip-path="url(#clip0_27213_1774)">
<path d="M19.9874 17.21H22.8936C22.9197 17.21 22.9454 17.2048 22.9694 17.1946C22.9933 17.1844 23.015 17.1696 23.0331 17.1508C23.0512 17.1321 23.0653 17.11 23.0746 17.0857C23.0839 17.0614 23.0883 17.0354 23.0874 17.0094V16.2771C23.0874 16.2257 23.067 16.1764 23.0306 16.1401C22.9943 16.1037 22.945 16.0833 22.8936 16.0833H20.9203V15.3219H22.8936C22.945 15.3219 22.9943 15.3015 23.0306 15.2651C23.067 15.2288 23.0874 15.1795 23.0874 15.1281V14.388C23.0874 14.3366 23.067 14.2873 23.0306 14.251C22.9943 14.2147 22.945 14.1942 22.8936 14.1942H20.9203V13.4338H22.8936C22.945 13.4338 22.9943 13.4134 23.0306 13.377C23.067 13.3407 23.0874 13.2914 23.0874 13.24V12.5067C23.0874 12.4553 23.067 12.406 23.0306 12.3697C22.9943 12.3334 22.945 12.3129 22.8936 12.3129H19.9874C19.936 12.3129 19.8867 12.3334 19.8504 12.3697C19.814 12.406 19.7936 12.4553 19.7936 12.5067V17.0162C19.7936 17.0676 19.814 17.1169 19.8504 17.1532C19.8867 17.1896 19.936 17.21 19.9874 17.21Z" fill="#0F0F0F"/>
<path d="M12.1531 17.21C12.2045 17.21 12.2538 17.1896 12.2901 17.1532C12.3264 17.1169 12.3468 17.0676 12.3468 17.0162V16.2838C12.3468 16.2325 12.3264 16.1832 12.2901 16.1468C12.2538 16.1105 12.2045 16.0901 12.1531 16.0901H10.1797V12.5057C10.1797 12.4543 10.1593 12.4051 10.123 12.3687C10.0867 12.3324 10.0374 12.312 9.986 12.312H9.24975C9.19836 12.312 9.14908 12.3324 9.11275 12.3687C9.07641 12.4051 9.056 12.4543 9.056 12.5057V17.0133C9.056 17.0647 9.07641 17.114 9.11275 17.1503C9.14908 17.1866 9.19836 17.2071 9.24975 17.2071H12.156L12.1531 17.21Z" fill="#0F0F0F"/>
<path d="M13.1683 12.3042H13.9007C14.0099 12.3042 14.0983 12.3927 14.0983 12.5018V17.0123C14.0983 17.1215 14.0099 17.21 13.9007 17.21H13.1683C13.0592 17.21 12.9707 17.1215 12.9707 17.0123V12.5018C12.9707 12.3927 13.0592 12.3042 13.1683 12.3042Z" fill="#0F0F0F"/>
<path d="M18.8907 12.3042H18.1584C18.107 12.3042 18.0577 12.3246 18.0214 12.361C17.985 12.3973 17.9646 12.4466 17.9646 12.498V15.1775L15.9012 12.3904C15.8965 12.3831 15.891 12.3762 15.8847 12.3701L15.8731 12.3585L15.8624 12.3497H15.8566L15.846 12.342H15.8402L15.8295 12.3362H15.009C14.9576 12.3362 14.9083 12.3566 14.872 12.3929C14.8356 12.4293 14.8152 12.4786 14.8152 12.5299V17.0404C14.8152 17.0918 14.8356 17.1411 14.872 17.1774C14.9083 17.2138 14.9576 17.2342 15.009 17.2342H15.7423C15.7937 17.2342 15.843 17.2138 15.8793 17.1774C15.9156 17.1411 15.9361 17.0918 15.9361 17.0404V14.3347L18.0024 17.1247C18.0159 17.1445 18.033 17.1616 18.0528 17.1751L18.0644 17.1828H18.0702L18.0799 17.1877H18.1099C18.1271 17.1919 18.1446 17.1942 18.1622 17.1945H18.8907C18.9421 17.1945 18.9914 17.1741 19.0278 17.1377C19.0641 17.1014 19.0845 17.0521 19.0845 17.0007V12.5018C19.085 12.4761 19.0804 12.4505 19.0709 12.4265C19.0614 12.4026 19.0472 12.3807 19.0291 12.3623C19.0111 12.3439 18.9896 12.3293 18.9658 12.3193C18.942 12.3094 18.9165 12.3042 18.8907 12.3042Z" fill="#0F0F0F"/>
<path d="M24.5114 0.5H7.48856C3.62889 0.5 0.5 3.62889 0.5 7.48856V24.5114C0.5 28.3711 3.62889 31.5 7.48856 31.5H24.5114C28.3711 31.5 31.5 28.3711 31.5 24.5114V7.48856C31.5 3.62889 28.3711 0.5 24.5114 0.5ZM5.6615 14.5391C5.6615 9.91433 10.2979 6.1517 15.9971 6.1517C21.6963 6.1517 26.3327 9.91433 26.3327 14.5391C26.3327 16.3875 25.6148 18.0576 24.1172 19.6997C21.9491 22.1961 17.1005 25.237 15.9971 25.7011C14.9233 26.1527 15.0486 25.4445 15.0981 25.1651L15.102 25.1431C15.1281 24.9881 15.2492 24.2586 15.2492 24.2586C15.2841 23.9951 15.3199 23.5853 15.2153 23.3238C15.1 23.036 14.6418 22.8869 14.3047 22.8142C9.34275 22.1584 5.6615 18.6854 5.6615 14.5391Z" fill="#0F0F0F"/>
</g>
<defs>
<clipPath id="clip0_27213_1774">
<rect width="32" height="32" fill="white"/>
</clipPath>
</defs>
</svg>
