<svg width="32" height="33" viewBox="0 0 32 33" fill="none" xmlns="http://www.w3.org/2000/svg">
<path d="M16.0001 3.8297C20.1387 3.8297 20.6289 3.84545 22.2634 3.92003C23.7747 3.98901 24.5953 4.24152 25.1417 4.45372C25.8148 4.70223 26.4239 5.09843 26.9238 5.61319C27.4386 6.11319 27.8348 6.72217 28.0833 7.3954C28.2956 7.94157 28.5481 8.76235 28.617 10.2735C28.6916 11.908 28.7074 12.3982 28.7074 16.537C28.7074 20.6758 28.6916 21.1659 28.617 22.8004C28.5481 24.3117 28.2956 25.1323 28.0833 25.6786C27.8254 26.3472 27.4305 26.9542 26.9238 27.4609C26.4172 27.9675 25.8102 28.3624 25.1417 28.6203C24.5955 28.8325 23.7747 29.0851 22.2634 29.154C20.6293 29.2286 20.1391 29.2444 16 29.2444C11.8609 29.2444 11.3709 29.2286 9.73657 29.154C8.2253 29.0851 7.40464 28.8325 6.85835 28.6203C6.18513 28.3718 5.57614 27.9756 5.07615 27.4609C4.56137 26.9609 4.16517 26.3518 3.91667 25.6786C3.70446 25.1324 3.45195 24.3117 3.38298 22.8005C3.30841 21.1661 3.29266 20.6758 3.29266 16.5371C3.29266 12.3982 3.30841 11.9082 3.38298 10.2735C3.45195 8.76235 3.70446 7.9417 3.91667 7.3954C4.16524 6.72216 4.5615 6.11318 5.07634 5.61319C5.57633 5.09843 6.18532 4.70223 6.85853 4.45372C7.40471 4.24152 8.22549 3.98901 9.73669 3.92003C11.3711 3.84545 11.8613 3.8297 16.0001 3.8297ZM16 1.03687C11.7906 1.03687 11.2625 1.0547 9.60959 1.13014C7.95968 1.20545 6.833 1.46743 5.84702 1.85063C4.81278 2.23982 3.87589 2.84994 3.10168 3.63842C2.31319 4.41264 1.70307 5.34953 1.31388 6.38377C0.930566 7.36974 0.66858 8.49643 0.593584 10.1463C0.517849 11.7992 0.5 12.3273 0.5 16.5369C0.5 20.7464 0.517837 21.2745 0.593274 22.9275C0.66858 24.5773 0.930566 25.704 1.31376 26.69C1.70297 27.7242 2.31308 28.6611 3.10156 29.4354C3.87573 30.224 4.81264 30.8342 5.8469 31.2235C6.83287 31.6066 7.95957 31.8686 9.60947 31.9439C11.2624 32.019 11.7904 32.0369 16 32.0369C20.2096 32.0369 20.7376 32.019 22.3905 31.9436C24.0404 31.8683 25.1672 31.6063 26.1531 31.2231C27.1828 30.8249 28.1179 30.216 28.8986 29.4354C29.6793 28.6548 30.2883 27.7196 30.6866 26.69C31.0697 25.704 31.3318 24.5773 31.407 22.9275C31.4821 21.2745 31.5 20.7464 31.5 16.5369C31.5 12.3273 31.4821 11.7992 31.4068 10.1463C31.3314 8.49643 31.0695 7.36974 30.6862 6.38377C30.2971 5.34953 29.687 4.41264 28.8985 3.63842C28.1242 2.84994 27.1873 2.23982 26.1531 1.85063C25.1672 1.46743 24.0404 1.20545 22.3905 1.13045C20.7376 1.0547 20.2096 1.03687 16 1.03687ZM16.0004 8.57588C14.4262 8.57588 12.8872 9.04269 11.5783 9.91728C10.2694 10.7918 9.24915 12.0349 8.64675 13.4894C8.04433 14.9438 7.88669 16.5441 8.19382 18.0882C8.50093 19.6321 9.25905 21.0503 10.3722 22.1636C11.4853 23.2767 12.9036 24.0348 14.4475 24.3418C15.9915 24.649 17.5919 24.4913 19.0463 23.889C20.5007 23.2865 21.7438 22.2664 22.6184 20.9573C23.4931 19.6484 23.9598 18.1096 23.9598 16.5353C23.9598 14.4243 23.1212 12.3998 21.6285 10.9071C20.1359 9.41449 18.1113 8.57588 16.0004 8.57588ZM16.0004 21.7019C14.9784 21.7019 13.9795 21.399 13.1299 20.8312C12.2802 20.2635 11.618 19.4566 11.227 18.5125C10.8359 17.5684 10.7336 16.5296 10.9329 15.5273C11.1323 14.5251 11.6244 13.6044 12.347 12.8818C13.0695 12.1593 13.9901 11.6672 14.9924 11.4679C15.9946 11.2685 17.0335 11.3708 17.9776 11.7619C18.9216 12.153 19.7286 12.8152 20.2964 13.6648C20.864 14.5146 21.167 15.5135 21.167 16.5353C21.167 17.9056 20.6227 19.2198 19.6537 20.1887C18.6848 21.1576 17.3707 21.7019 16.0004 21.7019ZM26.1341 8.26124C26.1341 9.28846 25.3014 10.1212 24.2741 10.1212C23.247 10.1212 22.4143 9.28846 22.4143 8.26124C22.4143 7.23401 23.247 6.40127 24.2741 6.40127C25.3014 6.40127 26.1341 7.23401 26.1341 8.26124Z" fill="#0F0F0F"/>
</svg>
