<svg width="33" height="33" viewBox="0 0 33 33" fill="none" xmlns="http://www.w3.org/2000/svg">
<path fill-rule="evenodd" clip-rule="evenodd" d="M2.17188 13.203C2.17188 15.7329 3.54806 18.0442 5.67489 19.5746C5.86255 19.6995 5.95638 19.8869 5.95638 20.1368C5.95638 20.1993 5.9251 20.293 5.9251 20.3554C5.76872 20.9801 5.48723 22.0108 5.45595 22.042C5.42467 22.1357 5.3934 22.1982 5.3934 22.2919C5.3934 22.4793 5.54978 22.6355 5.73744 22.6355C5.8 22.6355 5.86255 22.6042 5.9251 22.573L8.14577 21.2924C8.30215 21.1987 8.48981 21.1363 8.67747 21.1363C8.7713 21.1363 8.89641 21.1363 8.99024 21.1675C10.0224 21.4798 11.1483 21.636 12.3056 21.636C17.9042 21.636 22.4393 17.8568 22.4393 13.203C22.4393 8.54925 17.9042 4.77002 12.3056 4.77002C6.70703 4.77002 2.17188 8.54925 2.17188 13.203Z" fill="url(#paint0_linear_27213_1780)"/>
<path fill-rule="evenodd" clip-rule="evenodd" d="M21.7475 26.5989C22.7147 26.5989 23.6507 26.473 24.4932 26.2213C24.5556 26.1898 24.6492 26.1898 24.7428 26.1898C24.8988 26.1898 25.0548 26.2528 25.1796 26.3157L27.0205 27.3856C27.0829 27.4171 27.1141 27.4485 27.1765 27.4485C27.3325 27.4485 27.4573 27.3227 27.4573 27.1653C27.4573 27.1024 27.4261 27.0395 27.4261 26.9451C27.4261 26.9136 27.1765 26.064 27.0517 25.529C27.0205 25.4661 27.0205 25.4031 27.0205 25.3402C27.0205 25.1514 27.1141 24.994 27.2701 24.8682C29.0486 23.578 30.1719 21.6584 30.1719 19.5186C30.1719 15.6166 26.3965 12.4383 21.7475 12.4383C17.0984 12.4383 13.323 15.5851 13.323 19.5186C13.323 23.4206 17.0984 26.5989 21.7475 26.5989Z" fill="url(#paint1_linear_27213_1780)"/>
<path fill-rule="evenodd" clip-rule="evenodd" d="M10.23 10.4804C10.23 11.2089 9.65457 11.7856 8.92769 11.7856C8.20081 11.7856 7.62536 11.2089 7.62536 10.4804C7.62536 9.7519 8.20081 9.17517 8.92769 9.17517C9.65457 9.17517 10.23 9.7519 10.23 10.4804Z" fill="#168743"/>
<path fill-rule="evenodd" clip-rule="evenodd" d="M16.9858 10.4804C16.9858 11.2089 16.4104 11.7856 15.6835 11.7856C14.9566 11.7856 14.3812 11.2089 14.3812 10.4804C14.3812 9.7519 14.9566 9.17517 15.6835 9.17517C16.4104 9.17517 16.9858 9.7519 16.9858 10.4804Z" fill="#168743"/>
<path fill-rule="evenodd" clip-rule="evenodd" d="M23.4975 17.3329C23.4975 17.9674 24.0039 18.475 24.637 18.475C25.2701 18.475 25.7765 17.9674 25.7765 17.3329C25.7765 16.6984 25.2701 16.1908 24.637 16.1908C24.0039 16.1908 23.4975 16.6984 23.4975 17.3329Z" fill="#919191"/>
<path fill-rule="evenodd" clip-rule="evenodd" d="M17.8812 17.3329C17.8812 17.9674 18.3876 18.475 19.0207 18.475C19.6538 18.475 20.1602 17.9674 20.1602 17.3329C20.1602 16.6984 19.6538 16.1908 19.0207 16.1908C18.3876 16.1908 17.8812 16.6984 17.8812 17.3329Z" fill="#919191"/>
<defs>
<linearGradient id="paint0_linear_27213_1780" x1="29.3074" y1="26.1219" x2="29.3074" y2="4.86902" gradientUnits="userSpaceOnUse">
<stop stop-color="#05CD66"/>
<stop offset="1" stop-color="#61F380"/>
<stop offset="1" stop-color="#9EEE69"/>
</linearGradient>
<linearGradient id="paint1_linear_27213_1780" x1="29.2967" y1="25.9824" x2="29.2967" y2="4.76184" gradientUnits="userSpaceOnUse">
<stop stop-color="#E4E6E6"/>
<stop offset="1" stop-color="#F0F0F0"/>
</linearGradient>
</defs>
</svg>
