<svg width="33" height="33" viewBox="0 0 33 33" fill="none" xmlns="http://www.w3.org/2000/svg">
<path d="M25.5399 6.92045C24.964 6.38599 22.4779 4.79058 17.2906 4.76747C17.2906 4.76747 11.1484 4.35528 8.16653 7.11374C6.50653 8.7873 5.94744 11.276 5.88532 14.3134C5.8232 17.3509 5.50642 23.1518 10.9455 24.6952C10.9455 24.6952 10.9246 29.0024 10.9217 29.381C10.9217 29.6457 10.9628 29.8268 11.1109 29.8642C11.2179 29.8906 11.3771 29.8343 11.5133 29.6961C12.3826 28.8041 15.1669 25.3733 15.1669 25.3733C18.9032 25.6225 21.8752 24.8691 22.1949 24.7624C22.9469 24.5162 27.0214 24.1569 27.713 18.4669C28.43 12.5987 27.4538 8.59402 25.5399 6.92045Z" fill="white"/>
<path d="M26.8933 5.50109C26.212 4.85906 23.4589 2.81785 17.3266 2.79012C17.3266 2.79012 10.095 2.34473 6.56974 5.64731C4.60737 7.65197 3.91704 10.5852 3.84422 14.2218C3.7714 17.8585 3.67719 24.6737 10.1094 26.5216H10.1156L10.1115 29.3414C10.1115 29.3414 10.0703 30.483 10.8063 30.7158C11.6966 30.9982 12.2191 30.1305 13.069 29.1952C13.5356 28.6818 14.1798 27.9275 14.6653 27.3511C19.0644 27.7292 22.4477 26.8649 22.832 26.7372C23.7202 26.4431 28.7462 25.7851 29.5637 18.9707C30.4075 11.9466 29.1556 7.50365 26.8933 5.50109ZM27.6388 18.4669C26.9488 24.1569 22.8723 24.5145 22.1207 24.7607C21.801 24.8657 18.8295 25.6208 15.0927 25.3716C15.0927 25.3716 12.3084 28.8023 11.4387 29.6944C11.3029 29.8339 11.1433 29.8902 11.0367 29.8624C10.887 29.8251 10.8458 29.644 10.8475 29.3792C10.8499 29.0011 10.8713 24.6935 10.8713 24.6935C5.43017 23.1506 5.74735 17.35 5.80906 14.3126C5.87077 11.2751 6.42946 8.78686 8.08904 7.1133C11.0709 4.35485 17.2135 4.76704 17.2135 4.76704C22.4008 4.79015 24.8865 6.38556 25.4629 6.92002C27.3767 8.59358 28.3517 12.5983 27.6388 18.4652V18.4669Z" fill="#7360F2"/>
<path d="M19.8512 14.4169C19.7623 14.4169 19.6768 14.382 19.6124 14.3195C19.548 14.2569 19.5097 14.1714 19.5052 14.0808C19.4464 12.8786 18.8918 12.29 17.7601 12.2278C17.6699 12.2205 17.5861 12.1775 17.5265 12.1079C17.467 12.0384 17.4364 11.9478 17.4413 11.8556C17.4461 11.7633 17.4861 11.6767 17.5527 11.6141C17.6192 11.5515 17.7071 11.518 17.7975 11.5206C19.2909 11.6047 20.1211 12.4757 20.1976 14.0455C20.1999 14.0919 20.1932 14.1384 20.1779 14.1822C20.1625 14.226 20.1389 14.2663 20.1084 14.3008C20.0778 14.3353 20.0409 14.3633 19.9997 14.3832C19.9586 14.4032 19.914 14.4146 19.8685 14.4169H19.8512Z" fill="#7360F2"/>
<path d="M21.6304 15.0269H21.6222C21.5302 15.0247 21.4429 14.9853 21.3795 14.9174C21.316 14.8495 21.2815 14.7586 21.2836 14.6647C21.3103 13.4542 20.9717 12.4739 20.2485 11.668C19.5253 10.8621 18.54 10.4251 17.2264 10.3268C17.1345 10.3199 17.049 10.2761 16.9888 10.2049C16.9286 10.1337 16.8985 10.041 16.9053 9.94716C16.912 9.85333 16.9549 9.76607 17.0246 9.70457C17.0943 9.64306 17.1851 9.61236 17.277 9.61922C18.7551 9.72972 19.9268 10.2579 20.7599 11.1886C21.593 12.1193 22.0072 13.2966 21.9768 14.6794C21.975 14.7721 21.9377 14.8603 21.8729 14.9253C21.8082 14.9902 21.7211 15.0267 21.6304 15.0269Z" fill="#7360F2"/>
<path d="M23.452 15.7534C23.3604 15.7533 23.2727 15.7163 23.2077 15.6504C23.1428 15.5845 23.1059 15.4952 23.1052 15.4017C23.0891 13.2365 22.4786 11.5827 21.2386 10.3466C20.0135 9.12804 18.4658 8.50282 16.6379 8.48938C16.5924 8.48921 16.5473 8.47989 16.5053 8.46193C16.4633 8.44398 16.4252 8.41775 16.3931 8.38474C16.3283 8.31808 16.292 8.22785 16.2924 8.13391C16.2927 8.03997 16.3296 7.95001 16.3948 7.88381C16.4601 7.81762 16.5484 7.78063 16.6404 7.78096H16.6433C18.6559 7.79609 20.3648 8.48854 21.7229 9.83982C23.0809 11.1911 23.7811 13.0642 23.7992 15.3975C23.7998 15.4914 23.764 15.5817 23.6995 15.6485C23.635 15.7154 23.5472 15.7534 23.4553 15.7542L23.452 15.7534Z" fill="#7360F2"/>
<path d="M17.8472 18.8073C17.8472 18.8073 18.3347 18.8493 18.5972 18.519L19.109 17.8614C19.3558 17.5354 19.9515 17.3274 20.5349 17.6593C20.9721 17.914 21.3965 18.1908 21.8065 18.4888C22.1937 18.7795 22.9864 19.4552 22.9889 19.4552C23.3666 19.7808 23.4538 20.259 23.1967 20.7632C23.1967 20.7661 23.1946 20.7712 23.1946 20.7737C22.9114 21.2751 22.5519 21.7272 22.1295 22.1132C22.1245 22.1157 22.1245 22.1182 22.12 22.1208C21.7531 22.4339 21.3925 22.6119 21.0385 22.6548C20.9863 22.6641 20.9333 22.6675 20.8805 22.6649C20.7243 22.6664 20.569 22.642 20.4205 22.5926L20.409 22.5754C19.8635 22.4182 18.9527 22.025 17.4358 21.1703C16.5581 20.6816 15.7224 20.1178 14.9378 19.485C14.5445 19.168 14.1694 18.8282 13.8143 18.4673L13.7007 18.3514C13.688 18.3388 13.6756 18.3257 13.6629 18.3127C13.3095 17.95 12.9768 17.5669 12.6665 17.1652C12.047 16.364 11.495 15.5106 11.0163 14.6143C10.1796 13.0647 9.79449 12.1353 9.64062 11.5773L9.62375 11.5655C9.57552 11.4139 9.55176 11.2552 9.55341 11.0958C9.55053 11.0418 9.5537 10.9877 9.56287 10.9344C9.60702 10.5733 9.78159 10.2049 10.0866 9.82894C10.089 9.82431 10.0915 9.82431 10.094 9.81927C10.4718 9.38788 10.9145 9.0208 11.4055 8.73186C11.408 8.73186 11.4129 8.72933 11.4158 8.72933C11.9095 8.46672 12.3777 8.5558 12.6961 8.93942C12.6986 8.94194 13.3589 9.75162 13.6423 10.147C13.9341 10.5662 14.2051 11.0001 14.4544 11.447C14.7794 12.0424 14.5758 12.6521 14.2565 12.9034L13.6127 13.4261C13.2877 13.6941 13.3305 14.192 13.3305 14.192C13.3305 14.192 14.2841 17.8782 17.8472 18.8073Z" fill="#7360F2"/>
</svg>
