<svg width="33" height="33" viewBox="0 0 33 33" fill="none" xmlns="http://www.w3.org/2000/svg">
<path d="M31.9297 16.3933C31.9297 24.6776 25.214 31.3933 16.9297 31.3933C8.64542 31.3933 1.92969 24.6776 1.92969 16.3933C1.92969 8.10904 8.64542 1.39331 16.9297 1.39331C25.214 1.39331 31.9297 8.10904 31.9297 16.3933ZM17.4672 12.467C16.0082 13.0738 13.0923 14.3298 8.71954 16.235C8.00947 16.5173 7.6375 16.7936 7.60364 17.0637C7.54641 17.5202 8.11807 17.6999 8.89652 17.9447C9.00241 17.978 9.11212 18.0125 9.2246 18.0491C9.99047 18.298 11.0207 18.5893 11.5563 18.6008C12.0421 18.6113 12.5843 18.4111 13.183 18C17.2686 15.2421 19.3777 13.8481 19.5101 13.818C19.6035 13.7968 19.7329 13.7702 19.8206 13.8481C19.9083 13.9261 19.8997 14.0737 19.8904 14.1133C19.8338 14.3547 17.5898 16.4409 16.4286 17.5205C16.0666 17.8571 15.8098 18.0958 15.7573 18.1504C15.6397 18.2725 15.5198 18.388 15.4047 18.4991C14.6931 19.185 14.1596 19.6993 15.4342 20.5393C16.0467 20.9429 16.5369 21.2767 17.0259 21.6097C17.5599 21.9734 18.0925 22.3361 18.7817 22.7879C18.9573 22.903 19.125 23.0225 19.2883 23.139C19.9098 23.582 20.4681 23.9801 21.1579 23.9166C21.5587 23.8797 21.9728 23.5028 22.183 22.3788C22.6799 19.7222 23.6567 13.9664 23.8824 11.5945C23.9022 11.3867 23.8773 11.1208 23.8574 11.004C23.8374 10.8873 23.7956 10.7209 23.6439 10.5978C23.4642 10.452 23.1867 10.4212 23.0626 10.4234C22.4985 10.4333 21.6329 10.7343 17.4672 12.467Z" fill="#0F0F0F"/>
</svg>
