<svg width="33" height="33" viewBox="0 0 33 33" fill="none" xmlns="http://www.w3.org/2000/svg">
<path d="M16.5007 0.455078C7.80407 0.455078 1.0625 6.82552 1.0625 15.4302C1.0625 19.9314 2.90706 23.8199 5.91073 26.5068C6.1633 26.7322 6.31521 27.049 6.32571 27.3868L6.40969 30.1336C6.43624 31.0092 7.34154 31.5792 8.14248 31.2254L11.2067 29.8723C11.4666 29.7581 11.7575 29.7365 12.0311 29.8124C13.4397 30.1996 14.9378 30.4059 16.5001 30.4059C25.1968 30.4059 31.9384 24.0355 31.9384 15.4308C31.9384 6.82613 25.1974 0.455078 16.5007 0.455078ZM26.0675 11.4341L20.6925 19.7412C20.4196 20.1629 19.857 20.2833 19.4352 20.0104L14.4561 16.7887C14.2634 16.664 14.014 16.6677 13.825 16.798L8.21288 20.6687C7.39403 21.2331 6.39302 20.2617 6.93336 19.4268L12.309 11.1198C12.5819 10.698 13.1445 10.5776 13.5656 10.8506L18.546 14.0728C18.7387 14.1976 18.9882 14.1939 19.1771 14.0636L24.788 10.1935C25.6068 9.62848 26.6079 10.6005 26.0675 11.4354V11.4341Z" fill="black"/>
</svg>
