<svg width="32" height="32" viewBox="0 0 32 32" fill="none" xmlns="http://www.w3.org/2000/svg">
<path d="M27.136 3.52368C26.3818 2.81287 23.3337 0.552953 16.5443 0.522251C16.5443 0.522251 8.53796 0.0291479 4.63496 3.68558C2.46234 5.90502 1.69804 9.15254 1.61743 13.1788C1.53681 17.205 1.4325 24.7506 8.5539 26.7964H8.56074L8.55618 29.9184C8.55618 29.9184 8.51064 31.1823 9.32549 31.44C10.1481 31.7009 10.687 31.075 11.3899 30.2589C11.5291 30.0971 11.675 29.9277 11.8307 29.7565C12.3471 29.188 13.0604 28.353 13.5979 27.7148C18.4683 28.1334 22.2141 27.1765 22.6396 27.0351C22.7274 27.006 22.8517 26.9737 23.006 26.9337C24.5795 26.5251 29.2683 25.3074 30.0926 18.4364C31.0268 10.6597 29.6407 5.74081 27.136 3.52368ZM27.9613 17.8787C27.2736 23.551 23.546 24.4369 22.2029 24.756C22.0545 24.7912 21.9348 24.8197 21.852 24.8468C21.4981 24.9631 18.2082 25.7991 14.0711 25.5232C14.0711 25.5232 10.9884 29.3215 10.0255 30.3091C9.87525 30.4636 9.69852 30.5259 9.58055 30.4952C9.41476 30.4538 9.36921 30.2533 9.37103 29.9602C9.37377 29.5416 9.39745 24.7724 9.39745 24.7724C3.57236 23.1207 3.70822 17.0615 3.78533 13.6224C3.78797 13.5049 3.79054 13.3904 3.79279 13.2792C3.86111 9.91645 4.47965 7.16151 6.31705 5.30864C9.61836 2.25464 16.4191 2.711 16.4191 2.711C22.1622 2.73658 24.9142 4.50293 25.5523 5.09465C27.6712 6.94752 28.7508 11.3813 27.9613 17.8768V17.8787ZM19.3395 13.3949C19.2411 13.3949 19.1464 13.3563 19.0752 13.287C19.0038 13.2177 18.9614 13.123 18.9564 13.0228C18.8913 11.6918 18.2773 11.0401 17.0243 10.9712C16.9245 10.9631 16.8317 10.9155 16.7657 10.8385C16.6999 10.7614 16.6659 10.6613 16.6713 10.5591C16.6767 10.4569 16.721 10.3611 16.7947 10.2918C16.8684 10.2225 16.9657 10.1853 17.0658 10.1883C18.7192 10.2813 19.6383 11.2456 19.723 12.9837C19.7255 13.0351 19.7181 13.0866 19.7011 13.1351C19.6842 13.1835 19.6581 13.2282 19.6243 13.2664C19.5904 13.3045 19.5495 13.3355 19.504 13.3576C19.4584 13.3796 19.409 13.3923 19.3586 13.3949H19.3395ZM21.3002 14.0702H21.3093C21.4098 14.07 21.5061 14.0296 21.5779 13.9577C21.6496 13.8858 21.6908 13.7881 21.6929 13.6855C21.7266 12.1545 21.2679 10.8511 20.3455 9.82059C19.4231 8.79019 18.126 8.20549 16.4895 8.08313C16.3878 8.07555 16.2873 8.10954 16.21 8.17763C16.1329 8.24573 16.0853 8.34234 16.0779 8.44621C16.0705 8.5501 16.1038 8.65275 16.1705 8.73153C16.2371 8.81034 16.3317 8.85899 16.4334 8.8665C17.8878 8.97536 18.9786 9.4592 19.7793 10.3514C20.5801 11.2437 20.955 12.329 20.9254 13.6692C20.923 13.7731 20.9612 13.8737 21.0315 13.949C21.1018 14.0242 21.1985 14.0677 21.3002 14.0702ZM23.326 14.8745C23.2246 14.8744 23.1275 14.8335 23.0555 14.7606C22.9837 14.6876 22.9429 14.5887 22.9421 14.4853C22.9242 12.088 22.2483 10.2571 20.8755 8.88844C19.5191 7.53938 17.8056 6.84717 15.7818 6.83228C15.7315 6.8321 15.6816 6.82178 15.635 6.8019C15.5885 6.78202 15.5463 6.75298 15.5108 6.71644C15.4391 6.64263 15.3989 6.54274 15.3992 6.43874C15.3996 6.33472 15.4405 6.23513 15.5127 6.16183C15.585 6.08855 15.6828 6.0476 15.7846 6.04797H15.7878C18.016 6.06471 19.908 6.83135 21.4116 8.32742C22.9151 9.82345 23.6904 11.8974 23.7104 14.4806C23.7111 14.5845 23.6714 14.6845 23.6001 14.7585C23.5287 14.8326 23.4314 14.8747 23.3296 14.8755L23.326 14.8745ZM17.9511 17.9365C17.6606 18.3021 17.1209 18.2556 17.1209 18.2556C13.1759 17.2271 12.1201 13.1459 12.1201 13.1459C12.1201 13.1459 12.0727 12.5946 12.4326 12.2978L13.1454 11.7191C13.4989 11.4409 13.7243 10.766 13.3644 10.1067C13.0885 9.61193 12.7884 9.13167 12.4654 8.66751C12.1515 8.22973 11.4205 7.3333 11.4178 7.33051C11.0652 6.90579 10.5469 6.80716 10.0004 7.0979L9.99422 7.09938L9.98893 7.10069C9.44531 7.4206 8.95514 7.82701 8.53687 8.30463C8.53544 8.30754 8.53259 8.31033 8.53259 8.31033C8.53259 8.31033 8.52997 8.31288 8.52866 8.31532C8.19101 8.73153 7.99774 9.13954 7.94885 9.5392C7.93869 9.59822 7.93517 9.65808 7.93837 9.71793C7.93655 9.89439 7.96286 10.07 8.01626 10.238L8.03493 10.251C8.20528 10.8687 8.63161 11.8978 9.55805 13.6134C10.0879 14.6058 10.6991 15.5506 11.385 16.4377C11.7286 16.8823 12.0969 17.3065 12.4882 17.7081C12.4928 17.713 12.4975 17.7177 12.5022 17.7225C12.5114 17.7321 12.5207 17.7416 12.53 17.7509L12.6557 17.8793C13.049 18.2788 13.4642 18.655 13.8996 19.006C14.7684 19.7066 15.6936 20.3308 16.6653 20.8719C18.3447 21.8181 19.3531 22.2535 19.9571 22.4275L19.9698 22.4465C20.1342 22.5013 20.3062 22.5283 20.4791 22.5265C20.5376 22.5295 20.5963 22.5257 20.654 22.5155C21.0459 22.468 21.4451 22.2709 21.8514 21.9242C21.8538 21.9228 21.8564 21.9201 21.8564 21.9201C21.8564 21.9201 21.859 21.9173 21.8619 21.9157C22.3295 21.4885 22.7276 20.9879 23.0411 20.4327L23.0422 20.4274L23.0434 20.421C23.328 19.8628 23.2315 19.3334 22.8134 18.973C22.8134 18.973 22.7787 18.9443 22.721 18.8956C22.484 18.6962 21.8489 18.1619 21.5043 17.903C21.0504 17.5731 20.5804 17.2667 20.0965 16.9847C19.4506 16.6172 18.791 16.8475 18.5178 17.2085L17.9511 17.9365Z" fill="#0F0F0F"/>
</svg>
