<svg width="33" height="33" viewBox="0 0 33 33" fill="none" xmlns="http://www.w3.org/2000/svg">
<path d="M16.4648 30.77C24.1968 30.77 30.4648 24.502 30.4648 16.77C30.4648 9.03803 24.1968 2.77002 16.4648 2.77002C8.73286 2.77002 2.46484 9.03803 2.46484 16.77C2.46484 24.502 8.73286 30.77 16.4648 30.77Z" fill="url(#paint0_linear_27213_1772)"/>
<path fill-rule="evenodd" clip-rule="evenodd" d="M8.80205 16.6222C12.8833 14.8441 15.6048 13.6718 16.9665 13.1054C20.8545 11.4883 21.6624 11.2074 22.1889 11.1981C22.3047 11.1961 22.5637 11.2248 22.7314 11.3609C22.8731 11.4758 22.912 11.631 22.9307 11.74C22.9493 11.849 22.9726 12.0972 22.9541 12.2911C22.7434 14.5049 21.8318 19.877 21.368 22.3564C21.1717 23.4056 20.7853 23.7573 20.4112 23.7918C19.5982 23.8666 18.9808 23.2545 18.1934 22.7383C16.9612 21.9306 16.2651 21.4278 15.0691 20.6396C13.6868 19.7287 14.5829 19.2281 15.3706 18.4099C15.5767 18.1958 19.1589 14.9376 19.2282 14.642C19.2369 14.605 19.2449 14.4672 19.1631 14.3945C19.0812 14.3217 18.9604 14.3466 18.8732 14.3664C18.7496 14.3944 16.7812 15.6955 12.9679 18.2696C12.4092 18.6532 11.9031 18.8402 11.4497 18.8304C10.9498 18.8196 9.98825 18.5477 9.27343 18.3154C8.39668 18.0304 7.69986 17.8797 7.76053 17.3957C7.79214 17.1436 8.13931 16.8858 8.80205 16.6222Z" fill="white"/>
<defs>
<linearGradient id="paint0_linear_27213_1772" x1="16.4648" y1="2.77002" x2="16.4648" y2="30.5624" gradientUnits="userSpaceOnUse">
<stop stop-color="#2AABEE"/>
<stop offset="1" stop-color="#229ED9"/>
</linearGradient>
</defs>
</svg>
