<svg width="33" height="33" viewBox="0 0 33 33" fill="none" xmlns="http://www.w3.org/2000/svg">
<path d="M27.9641 3.91699C27.21 3.20618 24.1618 0.946263 17.3724 0.915561C17.3724 0.915561 9.36609 0.422458 5.46309 4.07889C3.29046 6.29833 2.52617 9.54585 2.44555 13.5722C2.36493 17.5983 2.26063 25.1439 9.38202 27.1897H9.38886L9.3843 30.3117C9.3843 30.3117 9.33876 31.5757 10.1536 31.8333C10.9763 32.0942 11.5151 31.4683 12.218 30.6522C12.3572 30.4904 12.5031 30.321 12.6588 30.1498C13.1752 29.5813 13.8885 28.7463 14.426 28.1081C19.2964 28.5267 23.0423 27.5699 23.4677 27.4284C23.5555 27.3994 23.6799 27.367 23.8341 27.327C25.4076 26.9184 30.0964 25.7007 30.9207 18.8298C31.8549 11.053 30.4689 6.13412 27.9641 3.91699ZM28.7895 18.272C28.1017 23.9443 24.3741 24.8302 23.031 25.1494C22.8826 25.1845 22.7629 25.213 22.6802 25.2401C22.3262 25.3565 19.0364 26.1924 14.8993 25.9165C14.8993 25.9165 11.8166 29.7148 10.8537 30.7024C10.7034 30.8569 10.5266 30.9192 10.4087 30.8885C10.2429 30.8472 10.1973 30.6466 10.1992 30.3535C10.2019 29.9349 10.2256 25.1657 10.2256 25.1657C4.40049 23.514 4.53635 17.4548 4.61345 14.0157C4.61609 13.8983 4.61866 13.7837 4.62091 13.6725C4.68923 10.3098 5.30778 7.55482 7.14517 5.70195C10.4465 2.64795 17.2472 3.10431 17.2472 3.10431C22.9903 3.12989 25.7424 4.89624 26.3804 5.48796C28.4993 7.34083 29.5789 11.7746 28.7895 18.2701V18.272ZM20.1677 13.7882C20.0692 13.7882 19.9745 13.7496 19.9033 13.6803C19.8319 13.611 19.7895 13.5164 19.7846 13.4161C19.7194 12.0851 19.1055 11.4334 17.8524 11.3645C17.7526 11.3564 17.6598 11.3088 17.5938 11.2318C17.528 11.1547 17.4941 11.0546 17.4995 10.9524C17.5049 10.8502 17.5491 10.7544 17.6229 10.6851C17.6965 10.6158 17.7938 10.5786 17.8939 10.5816C19.5473 10.6746 20.4664 11.6389 20.5511 13.377C20.5536 13.4284 20.5462 13.4799 20.5293 13.5284C20.5124 13.5768 20.4862 13.6215 20.4524 13.6597C20.4186 13.6978 20.3777 13.7288 20.3321 13.7509C20.2865 13.7729 20.2371 13.7856 20.1867 13.7882H20.1677ZM22.1283 14.4635H22.1374C22.2379 14.4633 22.3343 14.4229 22.406 14.351C22.4777 14.2791 22.519 14.1814 22.521 14.0788C22.5547 12.5478 22.0961 11.2444 21.1736 10.2139C20.2512 9.18351 18.9541 8.5988 17.3176 8.47644C17.2159 8.46886 17.1154 8.50285 17.0382 8.57094C16.961 8.63904 16.9134 8.73565 16.906 8.83952C16.8987 8.94341 16.9319 9.04606 16.9986 9.12484C17.0653 9.20366 17.1598 9.2523 17.2615 9.25981C18.7159 9.36867 19.8067 9.85251 20.6075 10.7447C21.4082 11.637 21.7831 12.7223 21.7535 14.0626C21.7511 14.1664 21.7894 14.267 21.8597 14.3423C21.9299 14.4175 22.0266 14.461 22.1283 14.4635ZM24.1541 15.2679C24.0528 15.2677 23.9556 15.2268 23.8836 15.1539C23.8118 15.0809 23.771 14.9821 23.7702 14.8786C23.7523 12.4813 23.0764 10.6504 21.7036 9.28175C20.3472 7.93269 18.6337 7.24048 16.61 7.22559C16.5596 7.22541 16.5097 7.21509 16.4632 7.19521C16.4166 7.17533 16.3744 7.14629 16.3389 7.10975C16.2672 7.03594 16.227 6.93605 16.2274 6.83205C16.2277 6.72803 16.2686 6.62844 16.3408 6.55514C16.4132 6.48186 16.5109 6.44091 16.6127 6.44128H16.616C18.8441 6.45802 20.7362 7.22466 22.2397 8.72073C23.7432 10.2168 24.5185 12.2907 24.5385 14.8739C24.5392 14.9778 24.4995 15.0778 24.4282 15.1518C24.3568 15.2259 24.2595 15.268 24.1577 15.2688L24.1541 15.2679ZM18.7792 18.3298C18.4887 18.6954 17.949 18.6489 17.949 18.6489C14.004 17.6204 12.9482 13.5392 12.9482 13.5392C12.9482 13.5392 12.9008 12.9879 13.2608 12.6912L13.9736 12.1124C14.327 11.8342 14.5524 11.1593 14.1926 10.5001C13.9166 10.0052 13.6165 9.52498 13.2935 9.06082C12.9796 8.62304 12.2486 7.72661 12.2459 7.72382C11.8933 7.2991 11.3751 7.20047 10.8285 7.49121L10.8223 7.49269L10.8171 7.494C10.2734 7.81391 9.78326 8.22032 9.36499 8.69794C9.36357 8.70085 9.36071 8.70364 9.36071 8.70364C9.36071 8.70364 9.3581 8.70619 9.35679 8.70863C9.01913 9.12484 8.82586 9.53285 8.77697 9.93251C8.76681 9.99153 8.7633 10.0514 8.76649 10.1112C8.76468 10.2877 8.79098 10.4633 8.84438 10.6313L8.86305 10.6443C9.03341 11.2621 9.45973 12.2911 10.3862 14.0068C10.916 14.9991 11.5273 15.9439 12.2131 16.831C12.5567 17.2756 12.925 17.6998 13.3163 18.1014C13.321 18.1063 13.3256 18.111 13.3303 18.1158C13.3396 18.1255 13.3488 18.1349 13.3581 18.1442L13.4838 18.2726C13.8771 18.6721 14.2924 19.0483 14.7277 19.3993C15.5965 20.0999 16.5217 20.7241 17.4935 21.2652C19.1729 22.2114 20.1812 22.6468 20.7852 22.8208L20.7979 22.8398C20.9624 22.8946 21.1344 22.9216 21.3072 22.9199C21.3657 22.9228 21.4244 22.919 21.4821 22.9088C21.874 22.8613 22.2732 22.6642 22.6796 22.3175C22.682 22.3161 22.6845 22.3134 22.6845 22.3134C22.6845 22.3134 22.6871 22.3106 22.69 22.309C23.1576 21.8818 23.5557 21.3812 23.8693 20.826L23.8703 20.8207L23.8715 20.8144C24.1562 20.2561 24.0596 19.7267 23.6415 19.3663C23.6415 19.3663 23.6068 19.3376 23.5491 19.2889C23.3121 19.0896 22.677 18.5552 22.3325 18.2963C21.8785 17.9664 21.4086 17.66 20.9246 17.378C20.2787 17.0105 19.6192 17.2408 19.3459 17.6018L18.7792 18.3298Z" fill="#0F0F0F"/>
</svg>
