<svg width="33" height="33" viewBox="0 0 33 33" fill="none" xmlns="http://www.w3.org/2000/svg">
<path d="M16.9121 0.893311C8.33637 0.893311 1.41211 7.88574 1.41211 16.3933C1.41211 24.9009 8.33637 31.8933 16.9121 31.8933C25.4878 31.8933 32.4121 24.9009 32.4121 16.3933C32.4121 7.88574 25.4877 0.893311 16.9121 0.893311ZM14.4813 31.6983V28.6254C14.4774 28.0897 14.3156 27.5671 14.0161 27.123C13.7166 26.6788 13.2928 26.3329 12.7977 26.1284C10.8861 25.3169 9.25509 23.9615 8.10743 22.2307C6.95977 20.4999 6.34602 18.47 6.34247 16.3933C6.34247 10.592 11.0643 5.8237 16.912 5.8237C22.7597 5.8237 27.4816 10.592 27.4816 16.3933C27.4816 23.2383 22.1866 29.7108 14.4813 31.6983Z" fill="#00CAFF"/>
</svg>
