<svg width="33" height="33" viewBox="0 0 33 33" fill="none" xmlns="http://www.w3.org/2000/svg">
<g clip-path="url(#clip0_27213_1770)">
<path d="M32.2109 16.3933C32.2109 24.9537 25.2714 31.8933 16.7109 31.8933C8.15052 31.8933 1.21094 24.9537 1.21094 16.3933C1.21094 7.8329 8.15052 0.893311 16.7109 0.893311C25.2714 0.893311 32.2109 7.8329 32.2109 16.3933ZM17.2664 12.3361C15.7588 12.9632 12.7457 14.261 8.22712 16.2297C7.49338 16.5215 7.10901 16.8069 7.07402 17.086C7.01488 17.5577 7.6056 17.7435 8.41 17.9964C8.51942 18.0308 8.63279 18.0665 8.74901 18.1043C9.54042 18.3615 10.605 18.6625 11.1584 18.6744C11.6604 18.6853 12.2207 18.4783 12.8393 18.0535C17.0612 15.2037 19.2405 13.7632 19.3773 13.7322C19.4739 13.7103 19.6076 13.6827 19.6982 13.7633C19.7889 13.8438 19.78 13.9964 19.7704 14.0373C19.7119 14.2868 17.3931 16.4425 16.1931 17.5581C15.819 17.9059 15.5537 18.1526 15.4994 18.2089C15.3779 18.3351 15.2541 18.4545 15.1351 18.5693C14.3998 19.278 13.8485 19.8095 15.1656 20.6775C15.7985 21.0946 16.305 21.4395 16.8103 21.7836C17.3621 22.1594 17.9125 22.5342 18.6247 23.001C18.8061 23.12 18.9794 23.2435 19.1482 23.3638C19.7903 23.8217 20.3673 24.233 21.0801 24.1674C21.4943 24.1293 21.9221 23.7398 22.1394 22.5783C22.6529 19.8332 23.6622 13.8855 23.8955 11.4346C23.9159 11.2198 23.8902 10.945 23.8695 10.8244C23.8489 10.7037 23.8057 10.5319 23.6489 10.4046C23.4632 10.2539 23.1765 10.2221 23.0483 10.2244C22.4653 10.2347 21.5709 10.5457 17.2664 12.3361Z" fill="#0F0F0F"/>
</g>
<defs>
<clipPath id="clip0_27213_1770">
<rect width="32" height="32" fill="white" transform="translate(0.710938 0.393311)"/>
</clipPath>
</defs>
</svg>
