<svg width="33" height="33" viewBox="0 0 33 33" fill="none" xmlns="http://www.w3.org/2000/svg">
<path d="M16.7813 2.39331C9.03542 2.39331 2.78125 8.70905 2.78125 16.3933C2.78125 24.0776 9.03542 30.3933 16.7813 30.3933C24.5271 30.3933 30.7812 24.0776 30.7812 16.3933C30.7812 8.70905 24.5269 2.39331 16.7813 2.39331ZM14.5857 30.2172V27.4416C14.5822 26.9578 14.436 26.4858 14.1655 26.0846C13.895 25.6835 13.5122 25.371 13.065 25.1863C11.3384 24.4533 9.86523 23.2291 8.82864 21.6658C7.79204 20.1025 7.23769 18.2691 7.23448 16.3933C7.23448 11.1534 11.4994 6.84656 16.7812 6.84656C22.063 6.84656 26.3279 11.1534 26.3279 16.3933C26.3279 22.5759 21.5453 28.422 14.5857 30.2172Z" fill="#0F0F0F"/>
</svg>
