<svg width="33" height="33" viewBox="0 0 33 33" fill="none" xmlns="http://www.w3.org/2000/svg">
<path d="M16.7813 2.77002C9.03542 2.77002 2.78125 9.08576 2.78125 16.77C2.78125 24.4543 9.03542 30.77 16.7813 30.77C24.5271 30.77 30.7812 24.4543 30.7812 16.77C30.7812 9.08576 24.5269 2.77002 16.7813 2.77002ZM14.5857 30.5939V27.8184C14.5822 27.3345 14.436 26.8625 14.1655 26.4613C13.895 26.0602 13.5122 25.7477 13.065 25.563C11.3384 24.83 9.86523 23.6058 8.82864 22.0425C7.79204 20.4792 7.23769 18.6458 7.23448 16.77C7.23448 11.5301 11.4994 7.22327 16.7812 7.22327C22.063 7.22327 26.3279 11.5301 26.3279 16.77C26.3279 22.9526 21.5453 28.7987 14.5857 30.5939Z" fill="#00CAFF"/>
</svg>
