<svg width="33" height="33" viewBox="0 0 33 33" fill="none" xmlns="http://www.w3.org/2000/svg">
<g clip-path="url(#clip0_27213_1777)">
<path d="M24.9021 0.893311H7.87919C4.01951 0.893311 0.890625 4.0222 0.890625 7.88187V24.9047C0.890625 28.7644 4.01951 31.8933 7.87919 31.8933H24.9021C28.7617 31.8933 31.8906 28.7644 31.8906 24.9047V7.88187C31.8906 4.0222 28.7617 0.893311 24.9021 0.893311Z" fill="#06C755"/>
<path d="M26.7233 14.9324C26.7233 10.3076 22.0869 6.54501 16.3877 6.54501C10.6886 6.54501 6.05213 10.3076 6.05213 14.9324C6.05213 19.0787 9.73338 22.5517 14.6953 23.2075C15.0324 23.2802 15.4907 23.4294 15.6059 23.7171C15.7106 23.9786 15.6747 24.3884 15.6398 24.6519C15.6398 24.6519 15.5188 25.3814 15.4926 25.5364C15.4471 25.798 15.2843 26.5584 16.3877 26.0944C17.4911 25.6304 22.3397 22.5895 24.5078 20.093C26.0055 18.451 26.7233 16.7808 26.7233 14.9324Z" fill="white"/>
<path d="M23.2842 17.6033H20.378C20.3266 17.6033 20.2773 17.5829 20.241 17.5465C20.2047 17.5102 20.1842 17.4609 20.1842 17.4095V12.9C20.1842 12.8486 20.2047 12.7993 20.241 12.763C20.2773 12.7267 20.3266 12.7062 20.378 12.7062H23.2842C23.3356 12.7062 23.3849 12.7267 23.4213 12.763C23.4576 12.7993 23.478 12.8486 23.478 12.9V13.6333C23.478 13.6847 23.4576 13.734 23.4213 13.7703C23.3849 13.8067 23.3356 13.8271 23.2842 13.8271H21.3109V14.5876H23.2842C23.3356 14.5876 23.3849 14.608 23.4213 14.6443C23.4576 14.6806 23.478 14.7299 23.478 14.7813V15.5214C23.478 15.5728 23.4576 15.6221 23.4213 15.6584C23.3849 15.6948 23.3356 15.7152 23.2842 15.7152H21.3109V16.4766H23.2842C23.3356 16.4766 23.3849 16.497 23.4213 16.5334C23.4576 16.5697 23.478 16.619 23.478 16.6704V17.4027C23.4789 17.4288 23.4746 17.4547 23.4652 17.479C23.4559 17.5033 23.4418 17.5254 23.4237 17.5442C23.4056 17.5629 23.384 17.5778 23.36 17.5879C23.336 17.5981 23.3103 17.6033 23.2842 17.6033Z" fill="#06C755"/>
<path d="M12.5437 17.6033C12.5951 17.6033 12.6444 17.5829 12.6807 17.5465C12.7171 17.5102 12.7375 17.4609 12.7375 17.4095V16.6771C12.7375 16.6258 12.7171 16.5765 12.6807 16.5401C12.6444 16.5038 12.5951 16.4834 12.5437 16.4834H10.5704V12.899C10.5704 12.8476 10.55 12.7984 10.5136 12.762C10.4773 12.7257 10.428 12.7053 10.3766 12.7053H9.64038C9.58899 12.7053 9.53971 12.7257 9.50337 12.762C9.46704 12.7984 9.44663 12.8476 9.44663 12.899V17.4066C9.44663 17.458 9.46704 17.5073 9.50337 17.5436C9.53971 17.58 9.58899 17.6004 9.64038 17.6004H12.5466L12.5437 17.6033Z" fill="#06C755"/>
<path d="M14.2913 12.6975H13.559C13.4498 12.6975 13.3613 12.786 13.3613 12.8952V17.4057C13.3613 17.5148 13.4498 17.6033 13.559 17.6033H14.2913C14.4005 17.6033 14.489 17.5148 14.489 17.4057V12.8952C14.489 12.786 14.4005 12.6975 14.2913 12.6975Z" fill="#06C755"/>
<path d="M19.2814 12.6975H18.549C18.4976 12.6975 18.4483 12.7179 18.412 12.7543C18.3757 12.7906 18.3553 12.8399 18.3553 12.8913V15.5708L16.2918 12.7837C16.2871 12.7764 16.2816 12.7695 16.2754 12.7634L16.2637 12.7518L16.2531 12.7431H16.2473L16.2366 12.7353H16.2308L16.2201 12.7295H15.3996C15.3482 12.7295 15.2989 12.7499 15.2626 12.7862C15.2263 12.8226 15.2059 12.8719 15.2059 12.9232V17.4337C15.2059 17.4851 15.2263 17.5344 15.2626 17.5707C15.2989 17.6071 15.3482 17.6275 15.3996 17.6275H16.1329C16.1843 17.6275 16.2336 17.6071 16.2699 17.5707C16.3063 17.5344 16.3267 17.4851 16.3267 17.4337V14.728L18.393 17.518C18.4066 17.5378 18.4237 17.5549 18.4434 17.5684L18.455 17.5762H18.4608L18.4705 17.581H18.5006C18.5177 17.5852 18.5352 17.5875 18.5529 17.5878H19.2814C19.3328 17.5878 19.382 17.5674 19.4184 17.531C19.4547 17.4947 19.4751 17.4454 19.4751 17.394V12.8952C19.4756 12.8694 19.471 12.8438 19.4615 12.8198C19.452 12.7959 19.4378 12.774 19.4198 12.7556C19.4017 12.7372 19.3802 12.7226 19.3564 12.7126C19.3327 12.7027 19.3072 12.6975 19.2814 12.6975Z" fill="#06C755"/>
</g>
<defs>
<clipPath id="clip0_27213_1777">
<rect width="32" height="32" fill="white" transform="translate(0.390625 0.393311)"/>
</clipPath>
</defs>
</svg>
