<svg width="32" height="32" viewBox="0 0 32 32" fill="none" xmlns="http://www.w3.org/2000/svg">
<g clip-path="url(#clip0_27213_1780)">
<path fill-rule="evenodd" clip-rule="evenodd" d="M0.5 12.7865C0.5 15.5874 2.02363 18.1463 4.37834 19.8407C4.58611 19.9791 4.68999 20.1865 4.68999 20.4632C4.68999 20.5323 4.65536 20.6361 4.65536 20.7052C4.48222 21.3968 4.17057 22.538 4.13594 22.5725C4.10131 22.6763 4.06669 22.7455 4.06669 22.8492C4.06669 23.0567 4.23983 23.2296 4.44759 23.2296C4.51685 23.2296 4.58611 23.195 4.65536 23.1604L7.11395 21.7426C7.28709 21.6389 7.49486 21.5697 7.70263 21.5697C7.80651 21.5697 7.94502 21.5697 8.04891 21.6043C9.19163 21.9501 10.4382 22.123 11.7195 22.123C17.9179 22.123 22.939 17.9389 22.939 12.7865C22.939 7.6341 17.9179 3.44995 11.7195 3.44995C5.52106 3.44995 0.5 7.6341 0.5 12.7865Z" fill="url(#paint0_linear_27213_1780)"/>
<path fill-rule="evenodd" clip-rule="evenodd" d="M22.173 27.6177C23.2438 27.6177 24.2802 27.4783 25.2129 27.1996C25.282 27.1647 25.3856 27.1647 25.4892 27.1647C25.662 27.1647 25.8347 27.2344 25.9729 27.3041L28.011 28.4886C28.0801 28.5235 28.1146 28.5583 28.1837 28.5583C28.3564 28.5583 28.4946 28.419 28.4946 28.2448C28.4946 28.1751 28.4601 28.1054 28.4601 28.0009C28.4601 27.966 28.1837 27.0254 28.0455 26.4331C28.011 26.3634 28.011 26.2937 28.011 26.2241C28.011 26.015 28.1146 25.8408 28.2874 25.7015C30.2564 24.2731 31.5 22.1478 31.5 19.7787C31.5 15.4586 27.3201 11.9398 22.173 11.9398C17.0258 11.9398 12.8459 15.4238 12.8459 19.7787C12.8459 24.0989 17.0258 27.6177 22.173 27.6177Z" fill="url(#paint1_linear_27213_1780)"/>
<path fill-rule="evenodd" clip-rule="evenodd" d="M9.42151 9.77216C9.42151 10.5787 8.78441 11.2173 7.97965 11.2173C7.17489 11.2173 6.53779 10.5787 6.53779 9.77216C6.53779 8.9656 7.17489 8.32708 7.97965 8.32708C8.78441 8.32708 9.42151 8.9656 9.42151 9.77216Z" fill="#168743"/>
<path fill-rule="evenodd" clip-rule="evenodd" d="M16.9012 9.77216C16.9012 10.5787 16.2641 11.2173 15.4593 11.2173C14.6545 11.2173 14.0174 10.5787 14.0174 9.77216C14.0174 8.9656 14.6545 8.32708 15.4593 8.32708C16.2641 8.32708 16.9012 8.9656 16.9012 9.77216Z" fill="#168743"/>
<path fill-rule="evenodd" clip-rule="evenodd" d="M24.1105 17.3589C24.1105 18.0613 24.6712 18.6233 25.3721 18.6233C26.073 18.6233 26.6337 18.0613 26.6337 17.3589C26.6337 16.6564 26.073 16.0944 25.3721 16.0944C24.6712 16.0944 24.1105 16.6564 24.1105 17.3589Z" fill="#919191"/>
<path fill-rule="evenodd" clip-rule="evenodd" d="M17.8924 17.3589C17.8924 18.0613 18.4532 18.6233 19.1541 18.6233C19.855 18.6233 20.4157 18.0613 20.4157 17.3589C20.4157 16.6564 19.855 16.0944 19.1541 16.0944C18.4532 16.0944 17.8924 16.6564 17.8924 17.3589Z" fill="#919191"/>
</g>
<defs>
<linearGradient id="paint0_linear_27213_1780" x1="30.5429" y1="27.0896" x2="30.5429" y2="3.55956" gradientUnits="userSpaceOnUse">
<stop stop-color="#05CD66"/>
<stop offset="1" stop-color="#61F380"/>
<stop offset="1" stop-color="#9EEE69"/>
</linearGradient>
<linearGradient id="paint1_linear_27213_1780" x1="30.5311" y1="26.9351" x2="30.5311" y2="3.4409" gradientUnits="userSpaceOnUse">
<stop stop-color="#E4E6E6"/>
<stop offset="1" stop-color="#F0F0F0"/>
</linearGradient>
<clipPath id="clip0_27213_1780">
<rect width="32" height="32" fill="white"/>
</clipPath>
</defs>
</svg>
