<svg width="33" height="33" viewBox="0 0 33 33" fill="none" xmlns="http://www.w3.org/2000/svg">
<g clip-path="url(#clip0_27213_1780)">
<path fill-rule="evenodd" clip-rule="evenodd" d="M0.671875 13.1798C0.671875 15.9808 2.19551 18.5397 4.55021 20.2341C4.75798 20.3724 4.86186 20.5799 4.86186 20.8565C4.86186 20.9257 4.82724 21.0294 4.82724 21.0986C4.6541 21.7901 4.34244 22.9313 4.30782 22.9659C4.27319 23.0696 4.23856 23.1388 4.23856 23.2425C4.23856 23.45 4.4117 23.6229 4.61947 23.6229C4.68872 23.6229 4.75798 23.5883 4.82724 23.5537L7.28583 22.1359C7.45897 22.0322 7.66673 21.963 7.8745 21.963C7.97839 21.963 8.1169 21.963 8.22078 21.9976C9.36351 22.3434 10.6101 22.5163 11.8914 22.5163C18.0898 22.5163 23.1108 18.3322 23.1108 13.1798C23.1108 8.02741 18.0898 3.84326 11.8914 3.84326C5.69294 3.84326 0.671875 8.02741 0.671875 13.1798Z" fill="url(#paint0_linear_27213_1780)"/>
<path fill-rule="evenodd" clip-rule="evenodd" d="M22.3448 28.011C23.4157 28.011 24.4521 27.8716 25.3848 27.5929C25.4539 27.558 25.5575 27.5581 25.6611 27.5581C25.8338 27.5581 26.0066 27.6277 26.1447 27.6974L28.1829 28.882C28.252 28.9168 28.2865 28.9516 28.3556 28.9516C28.5283 28.9516 28.6665 28.8123 28.6665 28.6381C28.6665 28.5684 28.632 28.4987 28.632 28.3942C28.632 28.3594 28.3556 27.4187 28.2174 26.8264C28.1829 26.7567 28.1829 26.6871 28.1829 26.6174C28.1829 26.4083 28.2865 26.2341 28.4592 26.0948C30.4283 24.6664 31.6719 22.5411 31.6719 20.1721C31.6719 15.8519 27.492 12.3331 22.3448 12.3331C17.1977 12.3331 13.0178 15.8171 13.0178 20.1721C13.0178 24.4922 17.1977 28.011 22.3448 28.011Z" fill="url(#paint1_linear_27213_1780)"/>
<path fill-rule="evenodd" clip-rule="evenodd" d="M9.59339 10.1655C9.59339 10.972 8.95629 11.6106 8.15153 11.6106C7.34677 11.6106 6.70967 10.972 6.70967 10.1655C6.70967 9.35891 7.34677 8.72039 8.15153 8.72039C8.95629 8.72039 9.59339 9.35891 9.59339 10.1655Z" fill="#168743"/>
<path fill-rule="evenodd" clip-rule="evenodd" d="M17.073 10.1655C17.073 10.972 16.4359 11.6106 15.6312 11.6106C14.8264 11.6106 14.1893 10.972 14.1893 10.1655C14.1893 9.35891 14.8264 8.72039 15.6312 8.72039C16.4359 8.72039 17.073 9.35891 17.073 10.1655Z" fill="#168743"/>
<path fill-rule="evenodd" clip-rule="evenodd" d="M24.2823 17.7522C24.2823 18.4547 24.8431 19.0166 25.544 19.0166C26.2449 19.0166 26.8056 18.4547 26.8056 17.7522C26.8056 17.0497 26.2449 16.4877 25.544 16.4877C24.8431 16.4877 24.2823 17.0497 24.2823 17.7522Z" fill="#919191"/>
<path fill-rule="evenodd" clip-rule="evenodd" d="M18.0643 17.7522C18.0643 18.4547 18.625 19.0166 19.326 19.0166C20.0269 19.0166 20.5876 18.4547 20.5876 17.7522C20.5876 17.0497 20.0269 16.4877 19.326 16.4877C18.625 16.4877 18.0643 17.0497 18.0643 17.7522Z" fill="#919191"/>
</g>
<defs>
<linearGradient id="paint0_linear_27213_1780" x1="30.7147" y1="27.4829" x2="30.7147" y2="3.95287" gradientUnits="userSpaceOnUse">
<stop stop-color="#05CD66"/>
<stop offset="1" stop-color="#61F380"/>
<stop offset="1" stop-color="#9EEE69"/>
</linearGradient>
<linearGradient id="paint1_linear_27213_1780" x1="30.703" y1="27.3284" x2="30.703" y2="3.83421" gradientUnits="userSpaceOnUse">
<stop stop-color="#E4E6E6"/>
<stop offset="1" stop-color="#F0F0F0"/>
</linearGradient>
<clipPath id="clip0_27213_1780">
<rect width="32" height="32" fill="white" transform="translate(0.171875 0.393311)"/>
</clipPath>
</defs>
</svg>
