<svg width="33" height="33" viewBox="0 0 33 33" fill="none" xmlns="http://www.w3.org/2000/svg">
<path d="M26.8933 5.50109C26.2121 4.85906 23.4589 2.81785 17.3266 2.79012C17.3266 2.79012 10.095 2.34473 6.56974 5.64731C4.60736 7.65198 3.91703 10.5852 3.84422 14.2219C3.7714 17.8584 3.67719 24.6737 10.1094 26.5216H10.1156L10.1115 29.3415C10.1115 29.3415 10.0703 30.4831 10.8063 30.7158C11.5494 30.9515 12.0361 30.3862 12.6709 29.649C12.7967 29.5029 12.9284 29.3499 13.0691 29.1952C13.5355 28.6817 14.1798 27.9276 14.6652 27.3511C19.0643 27.7292 22.4477 26.865 22.832 26.7372C22.9113 26.711 23.0236 26.6818 23.1629 26.6456C24.5841 26.2765 28.8192 25.1767 29.5637 18.9707C30.4075 11.9466 29.1556 7.50365 26.8933 5.50109ZM27.6387 18.4669C27.0175 23.5903 23.6506 24.3904 22.4375 24.6787C22.3035 24.7105 22.1954 24.7362 22.1206 24.7607C21.801 24.8658 18.8295 25.6208 15.0927 25.3716C15.0927 25.3716 12.3083 28.8024 11.4386 29.6944C11.3029 29.8339 11.1433 29.8902 11.0367 29.8625C10.887 29.8251 10.8458 29.644 10.8475 29.3793C10.8499 29.0012 10.8713 24.6935 10.8713 24.6935C5.60997 23.2016 5.73268 17.7288 5.80232 14.6225C5.80471 14.5164 5.80703 14.4129 5.80906 14.3126C5.87077 11.2752 6.42945 8.78687 8.08904 7.11331C11.0709 4.35486 17.2135 4.76705 17.2135 4.76705C22.4008 4.79016 24.8865 6.38557 25.4628 6.92002C27.3767 8.59358 28.3518 12.5983 27.6387 18.4652V18.4669ZM19.8513 14.417C19.7623 14.417 19.6769 14.3821 19.6125 14.3196C19.548 14.257 19.5097 14.1715 19.5053 14.0809C19.4464 12.8787 18.8919 12.2901 17.7601 12.2278C17.67 12.2205 17.5861 12.1776 17.5265 12.108C17.4671 12.0384 17.4364 11.948 17.4413 11.8557C17.4462 11.7634 17.4861 11.6768 17.5528 11.6142C17.6193 11.5516 17.7071 11.518 17.7976 11.5207C19.291 11.6047 20.1211 12.4758 20.1976 14.0456C20.1999 14.092 20.1932 14.1385 20.1779 14.1824C20.1626 14.2261 20.139 14.2665 20.1085 14.3009C20.0779 14.3354 20.041 14.3634 19.9998 14.3833C19.9586 14.4032 19.914 14.4146 19.8685 14.417H19.8513ZM21.6222 15.027H21.6304C21.7212 15.0268 21.8082 14.9903 21.873 14.9253C21.9378 14.8604 21.975 14.7722 21.9769 14.6795C22.0073 13.2967 21.5931 12.1194 20.7599 11.1886C19.9268 10.2579 18.7552 9.72981 17.2771 9.6193C17.1852 9.61245 17.0944 9.64315 17.0246 9.70466C16.955 9.76616 16.912 9.85342 16.9053 9.94725C16.8986 10.0411 16.9287 10.1338 16.9889 10.205C17.0491 10.2761 17.1345 10.3201 17.2264 10.3269C18.54 10.4252 19.5253 10.8622 20.2485 11.6681C20.9718 12.474 21.3104 13.4542 21.2837 14.6648C21.2815 14.7586 21.316 14.8495 21.3795 14.9175C21.443 14.9854 21.5303 15.0247 21.6222 15.027ZM23.452 15.7535C23.3604 15.7534 23.2727 15.7164 23.2077 15.6505C23.1428 15.5846 23.1059 15.4953 23.1052 15.4019C23.089 13.2366 22.4786 11.5829 21.2386 10.3467C20.0134 9.12817 18.4658 8.50295 16.6379 8.4895C16.5924 8.48934 16.5473 8.48001 16.5053 8.46206C16.4633 8.44411 16.4251 8.41787 16.3931 8.38487C16.3283 8.3182 16.292 8.22798 16.2923 8.13404C16.2926 8.04009 16.3296 7.95013 16.3948 7.88393C16.4601 7.81775 16.5484 7.78075 16.6404 7.78109H16.6433C18.6558 7.79621 20.3648 8.48866 21.7228 9.83995C23.0808 11.1912 23.7811 13.0644 23.7992 15.3977C23.7998 15.4915 23.764 15.5818 23.6995 15.6487C23.635 15.7156 23.5472 15.7536 23.4552 15.7543L23.452 15.7535ZM18.5972 18.5191C18.3348 18.8493 17.8473 18.8073 17.8473 18.8073C14.2841 17.8784 13.3305 14.1922 13.3305 14.1922C13.3305 14.1922 13.2877 13.6942 13.6128 13.4261L14.2566 12.9034C14.5759 12.6522 14.7794 12.0425 14.4544 11.4471C14.2052 11.0002 13.9341 10.5664 13.6424 10.1471C13.3589 9.75171 12.6986 8.94203 12.6962 8.93951C12.3777 8.55589 11.9096 8.46681 11.4159 8.72942L11.4104 8.73075L11.4056 8.73194C10.9146 9.02089 10.4718 9.38797 10.094 9.81936C10.0927 9.82199 10.0902 9.82451 10.0902 9.82451C10.0902 9.82451 10.0878 9.82681 10.0866 9.82902C9.78165 10.205 9.60708 10.5735 9.56292 10.9345C9.55375 10.9878 9.55057 11.0418 9.55345 11.0959C9.55182 11.2553 9.57558 11.4139 9.62381 11.5656L9.64067 11.5774C9.79454 12.1353 10.1796 13.0648 11.0164 14.6144C11.495 15.5107 12.047 16.3641 12.6665 17.1653C12.9769 17.5669 13.3096 17.9501 13.6629 18.3128C13.6672 18.3172 13.6714 18.3215 13.6756 18.3258C13.684 18.3345 13.6923 18.3431 13.7008 18.3514L13.8143 18.4674C14.1695 18.8283 14.5446 19.1681 14.9378 19.4851C15.7225 20.1179 16.5582 20.6817 17.4359 21.1704C18.9528 22.0251 19.8635 22.4183 20.4091 22.5755L20.4206 22.5927C20.5691 22.6421 20.7244 22.6666 20.8805 22.665C20.9334 22.6677 20.9864 22.6642 21.0385 22.6549C21.3925 22.6121 21.7531 22.4341 22.1201 22.1209C22.1223 22.1196 22.1245 22.1172 22.1245 22.1172C22.1245 22.1172 22.1269 22.1147 22.1295 22.1133C22.5519 21.7274 22.9115 21.2752 23.1947 20.7738L23.1956 20.7689L23.1967 20.7632C23.4538 20.259 23.3666 19.7809 22.9889 19.4553C22.9889 19.4553 22.9576 19.4293 22.9055 19.3854C22.6915 19.2053 22.1178 18.7227 21.8066 18.4889C21.3965 18.1909 20.9721 17.9141 20.535 17.6594C19.9516 17.3275 19.3559 17.5355 19.1091 17.8616L18.5972 18.5191Z" fill="#0F0F0F"/>
</svg>
