<svg width="33" height="33" viewBox="0 0 33 33" fill="none" xmlns="http://www.w3.org/2000/svg">
<path d="M7.9418 19.605H18.8968V17.505H7.9418V19.605ZM7.9418 15.055H24.7418V12.955H7.9418V15.055ZM7.9418 10.505H24.7418V8.40503H7.9418V10.505ZM2.3418 30.7701V4.87002C2.3418 4.33335 2.5518 3.84919 2.9718 3.41752C3.3918 2.98585 3.8818 2.77002 4.4418 2.77002H28.2418C28.7785 2.77002 29.2627 2.98585 29.6943 3.41752C30.126 3.84919 30.3418 4.33335 30.3418 4.87002V23.07C30.3418 23.6067 30.126 24.0909 29.6943 24.5225C29.2627 24.9542 28.7785 25.17 28.2418 25.17H7.9418L2.3418 30.7701Z" fill="#0F0F0F"/>
</svg>
