<svg width="33" height="33" viewBox="0 0 33 33" fill="none" xmlns="http://www.w3.org/2000/svg">
<g clip-path="url(#clip0_27213_1780)">
<path fill-rule="evenodd" clip-rule="evenodd" d="M0.867188 13.1798C0.867188 15.9808 2.39082 18.5397 4.74553 20.2341C4.95329 20.3724 5.05718 20.5799 5.05718 20.8565C5.05718 20.9257 5.02255 21.0294 5.02255 21.0986C4.84941 21.7901 4.53776 22.9313 4.50313 22.9659C4.4685 23.0696 4.43387 23.1388 4.43387 23.2425C4.43387 23.45 4.60701 23.6229 4.81478 23.6229C4.88404 23.6229 4.95329 23.5883 5.02255 23.5537L7.48114 22.1359C7.65428 22.0322 7.86205 21.963 8.06981 21.963C8.1737 21.963 8.31221 21.963 8.41609 21.9976C9.55882 22.3434 10.8054 22.5163 12.0867 22.5163C18.2851 22.5163 23.3061 18.3322 23.3061 13.1798C23.3061 8.02741 18.2851 3.84326 12.0867 3.84326C5.88825 3.84326 0.867188 8.02741 0.867188 13.1798Z" fill="url(#paint0_linear_27213_1780)"/>
<path fill-rule="evenodd" clip-rule="evenodd" d="M22.5402 28.011C23.611 28.011 24.6474 27.8716 25.5801 27.5929C25.6492 27.558 25.7528 27.5581 25.8564 27.5581C26.0292 27.5581 26.2019 27.6277 26.3401 27.6974L28.3782 28.882C28.4473 28.9168 28.4818 28.9516 28.5509 28.9516C28.7236 28.9516 28.8618 28.8123 28.8618 28.6381C28.8618 28.5684 28.8273 28.4987 28.8273 28.3942C28.8273 28.3594 28.5509 27.4187 28.4127 26.8264C28.3782 26.7567 28.3782 26.6871 28.3782 26.6174C28.3782 26.4083 28.4818 26.2341 28.6545 26.0948C30.6236 24.6664 31.8672 22.5411 31.8672 20.1721C31.8672 15.8519 27.6873 12.3331 22.5402 12.3331C17.393 12.3331 13.2131 15.8171 13.2131 20.1721C13.2131 24.4922 17.393 28.011 22.5402 28.011Z" fill="url(#paint1_linear_27213_1780)"/>
<path fill-rule="evenodd" clip-rule="evenodd" d="M9.7887 10.1655C9.7887 10.972 9.1516 11.6106 8.34684 11.6106C7.54208 11.6106 6.90498 10.972 6.90498 10.1655C6.90498 9.35891 7.54208 8.72039 8.34684 8.72039C9.1516 8.72039 9.7887 9.35891 9.7887 10.1655Z" fill="#168743"/>
<path fill-rule="evenodd" clip-rule="evenodd" d="M17.2684 10.1655C17.2684 10.972 16.6313 11.6106 15.8265 11.6106C15.0217 11.6106 14.3846 10.972 14.3846 10.1655C14.3846 9.35891 15.0217 8.72039 15.8265 8.72039C16.6313 8.72039 17.2684 9.35891 17.2684 10.1655Z" fill="#168743"/>
<path fill-rule="evenodd" clip-rule="evenodd" d="M24.4777 17.7522C24.4777 18.4547 25.0384 19.0166 25.7393 19.0166C26.4402 19.0166 27.0009 18.4547 27.0009 17.7522C27.0009 17.0497 26.4402 16.4877 25.7393 16.4877C25.0384 16.4877 24.4777 17.0497 24.4777 17.7522Z" fill="#919191"/>
<path fill-rule="evenodd" clip-rule="evenodd" d="M18.2596 17.7522C18.2596 18.4547 18.8204 19.0166 19.5213 19.0166C20.2222 19.0166 20.7829 18.4547 20.7829 17.7522C20.7829 17.0497 20.2222 16.4877 19.5213 16.4877C18.8204 16.4877 18.2596 17.0497 18.2596 17.7522Z" fill="#919191"/>
</g>
<defs>
<linearGradient id="paint0_linear_27213_1780" x1="30.9101" y1="27.4829" x2="30.9101" y2="3.95287" gradientUnits="userSpaceOnUse">
<stop stop-color="#05CD66"/>
<stop offset="1" stop-color="#61F380"/>
<stop offset="1" stop-color="#9EEE69"/>
</linearGradient>
<linearGradient id="paint1_linear_27213_1780" x1="30.8983" y1="27.3284" x2="30.8983" y2="3.83421" gradientUnits="userSpaceOnUse">
<stop stop-color="#E4E6E6"/>
<stop offset="1" stop-color="#F0F0F0"/>
</linearGradient>
<clipPath id="clip0_27213_1780">
<rect width="32" height="32" fill="white" transform="translate(0.367188 0.393311)"/>
</clipPath>
</defs>
</svg>
