<svg width="33" height="33" viewBox="0 0 33 33" fill="none" xmlns="http://www.w3.org/2000/svg">
<g clip-path="url(#clip0_27213_1777)">
<path d="M24.9021 1.03687H7.87919C4.01951 1.03687 0.890625 4.16575 0.890625 8.02543V25.0483C0.890625 28.908 4.01951 32.0369 7.87919 32.0369H24.9021C28.7617 32.0369 31.8906 28.908 31.8906 25.0483V8.02543C31.8906 4.16575 28.7617 1.03687 24.9021 1.03687Z" fill="#06C755"/>
<path d="M26.7233 15.076C26.7233 10.4512 22.0869 6.68857 16.3877 6.68857C10.6886 6.68857 6.05213 10.4512 6.05213 15.076C6.05213 19.2223 9.73338 22.6952 14.6953 23.3511C15.0324 23.4237 15.4907 23.5729 15.6059 23.8606C15.7106 24.1222 15.6747 24.532 15.6398 24.7955C15.6398 24.7955 15.5188 25.5249 15.4926 25.6799C15.4471 25.9415 15.2843 26.702 16.3877 26.2379C17.4911 25.7739 22.3397 22.733 24.5078 20.2365C26.0055 18.5945 26.7233 16.9244 26.7233 15.076Z" fill="white"/>
<path d="M23.2842 17.7468H20.378C20.3266 17.7468 20.2773 17.7264 20.241 17.6901C20.2047 17.6538 20.1842 17.6045 20.1842 17.5531V13.0436C20.1842 12.9922 20.2047 12.9429 20.241 12.9066C20.2773 12.8702 20.3266 12.8498 20.378 12.8498H23.2842C23.3356 12.8498 23.3849 12.8702 23.4213 12.9066C23.4576 12.9429 23.478 12.9922 23.478 13.0436V13.7769C23.478 13.8283 23.4576 13.8776 23.4213 13.9139C23.3849 13.9502 23.3356 13.9706 23.2842 13.9706H21.3109V14.7311H23.2842C23.3356 14.7311 23.3849 14.7515 23.4213 14.7879C23.4576 14.8242 23.478 14.8735 23.478 14.9249V15.665C23.478 15.7164 23.4576 15.7657 23.4213 15.802C23.3849 15.8383 23.3356 15.8587 23.2842 15.8587H21.3109V16.6202H23.2842C23.3356 16.6202 23.3849 16.6406 23.4213 16.6769C23.4576 16.7133 23.478 16.7625 23.478 16.8139V17.5463C23.4789 17.5723 23.4746 17.5982 23.4652 17.6225C23.4559 17.6468 23.4418 17.669 23.4237 17.6877C23.4056 17.7064 23.384 17.7213 23.36 17.7315C23.336 17.7416 23.3103 17.7468 23.2842 17.7468Z" fill="#06C755"/>
<path d="M12.5437 17.7468C12.5951 17.7468 12.6444 17.7264 12.6807 17.6901C12.7171 17.6537 12.7375 17.6045 12.7375 17.5531V16.8207C12.7375 16.7693 12.7171 16.72 12.6807 16.6837C12.6444 16.6474 12.5951 16.627 12.5437 16.627H10.5704V13.0426C10.5704 12.9912 10.55 12.9419 10.5136 12.9056C10.4773 12.8692 10.428 12.8488 10.3766 12.8488H9.64038C9.58899 12.8488 9.53971 12.8692 9.50337 12.9056C9.46704 12.9419 9.44663 12.9912 9.44663 13.0426V17.5502C9.44663 17.6016 9.46704 17.6508 9.50337 17.6872C9.53971 17.7235 9.58899 17.7439 9.64038 17.7439H12.5466L12.5437 17.7468Z" fill="#06C755"/>
<path d="M14.2913 12.8411H13.559C13.4498 12.8411 13.3613 12.9296 13.3613 13.0387V17.5492C13.3613 17.6584 13.4498 17.7468 13.559 17.7468H14.2913C14.4005 17.7468 14.489 17.6584 14.489 17.5492V13.0387C14.489 12.9296 14.4005 12.8411 14.2913 12.8411Z" fill="#06C755"/>
<path d="M19.2814 12.8411H18.549C18.4976 12.8411 18.4483 12.8615 18.412 12.8978C18.3757 12.9342 18.3553 12.9834 18.3553 13.0348V15.7144L16.2918 12.9273C16.2871 12.9199 16.2816 12.9131 16.2754 12.907L16.2637 12.8953L16.2531 12.8866H16.2473L16.2366 12.8789H16.2308L16.2201 12.873H15.3996C15.3482 12.873 15.2989 12.8935 15.2626 12.9298C15.2263 12.9661 15.2059 13.0154 15.2059 13.0668V17.5773C15.2059 17.6287 15.2263 17.678 15.2626 17.7143C15.2989 17.7506 15.3482 17.771 15.3996 17.771H16.1329C16.1843 17.771 16.2336 17.7506 16.2699 17.7143C16.3063 17.678 16.3267 17.6287 16.3267 17.5773V14.8716L18.393 17.6616C18.4066 17.6813 18.4237 17.6984 18.4434 17.712L18.455 17.7197H18.4608L18.4705 17.7245H18.5006C18.5177 17.7288 18.5352 17.731 18.5529 17.7313H19.2814C19.3328 17.7313 19.382 17.7109 19.4184 17.6746C19.4547 17.6382 19.4751 17.589 19.4751 17.5376V13.0387C19.4756 13.0129 19.471 12.9873 19.4615 12.9634C19.452 12.9394 19.4378 12.9176 19.4198 12.8992C19.4017 12.8808 19.3802 12.8662 19.3564 12.8562C19.3327 12.8462 19.3072 12.8411 19.2814 12.8411Z" fill="#06C755"/>
</g>
<defs>
<clipPath id="clip0_27213_1777">
<rect width="32" height="32" fill="white" transform="translate(0.390625 0.536865)"/>
</clipPath>
</defs>
</svg>
