<svg width="33" height="33" viewBox="0 0 33 33" fill="none" xmlns="http://www.w3.org/2000/svg">
<path d="M16.7813 1.03687C8.20551 1.03687 1.28125 8.02929 1.28125 16.5369C1.28125 25.0444 8.20551 32.0369 16.7813 32.0369C25.357 32.0369 32.2812 25.0444 32.2812 16.5369C32.2812 8.02929 25.3568 1.03687 16.7813 1.03687ZM14.3505 31.8418V28.769C14.3465 28.2333 14.1847 27.7107 13.8852 27.2665C13.5857 26.8224 13.1619 26.4764 12.6668 26.272C10.7552 25.4604 9.12423 24.1051 7.97657 22.3743C6.82891 20.6435 6.21516 18.6136 6.21161 16.5369C6.21161 10.7355 10.9334 5.96725 16.7812 5.96725C22.6289 5.96725 27.3507 10.7355 27.3507 16.5369C27.3507 23.3819 22.0558 29.8543 14.3505 31.8418Z" fill="#0F0F0F"/>
</svg>
