<svg width="32" height="32" viewBox="0 0 32 32" fill="none" xmlns="http://www.w3.org/2000/svg">
<g clip-path="url(#clip0_27213_1768)">
<path d="M31.5 16.5536H27.051C26.7731 19.3509 24.4114 21.5357 21.5392 21.5357H10.4608C7.58856 21.5357 5.2269 19.3509 4.94899 16.5536H0.5C0.791674 24.8576 7.61964 31.5 16 31.5C24.3804 31.5 31.2083 24.8576 31.5 16.5536Z" fill="#0F0F0F"/>
<path d="M31.5 15.4464H27.051C26.7731 12.6491 24.4114 10.4643 21.5392 10.4643H10.4608C7.58856 10.4643 5.2269 12.6491 4.94899 15.4464H0.5C0.791674 7.14241 7.61964 0.5 16 0.5C24.3804 0.5 31.2083 7.14241 31.5 15.4464Z" fill="#0F0F0F"/>
<path d="M12.6765 16C12.6765 17.2229 11.6845 18.2143 10.4608 18.2143C9.23711 18.2143 8.24512 17.2229 8.24512 16C8.24512 14.7771 9.23711 13.7857 10.4608 13.7857C11.6845 13.7857 12.6765 14.7771 12.6765 16Z" fill="#0F0F0F"/>
<path d="M21.5392 18.2143C22.7628 18.2143 23.7548 17.2229 23.7548 16C23.7548 14.7771 22.7628 13.7857 21.5392 13.7857C20.3155 13.7857 19.3235 14.7771 19.3235 16C19.3235 17.2229 20.3155 18.2143 21.5392 18.2143Z" fill="#0F0F0F"/>
</g>
<defs>
<clipPath id="clip0_27213_1768">
<rect width="32" height="32" fill="white"/>
</clipPath>
</defs>
</svg>
