<svg width="33" height="33" viewBox="0 0 33 33" fill="none" xmlns="http://www.w3.org/2000/svg">
<path d="M30.0527 17.27H26.0343C25.7833 19.7967 23.6502 21.77 21.0559 21.77H11.0496C8.45531 21.77 6.32219 19.7967 6.07118 17.27H2.05273C2.31618 24.7704 8.48338 30.77 16.0527 30.77C23.6221 30.77 29.7893 24.7704 30.0527 17.27Z" fill="#0F0F0F"/>
<path d="M30.0527 16.27H26.0343C25.7833 13.7434 23.6502 11.77 21.0559 11.77H11.0496C8.45531 11.77 6.32219 13.7434 6.07118 16.27H2.05273C2.31618 8.76961 8.48338 2.77002 16.0527 2.77002C23.6221 2.77002 29.7893 8.76961 30.0527 16.27Z" fill="#0F0F0F"/>
<path d="M13.0508 16.77C13.0508 17.8746 12.1548 18.77 11.0496 18.77C9.94432 18.77 9.04832 17.8746 9.04832 16.77C9.04832 15.6655 9.94432 14.77 11.0496 14.77C12.1548 14.77 13.0508 15.6655 13.0508 16.77Z" fill="#0F0F0F"/>
<path d="M21.0558 18.77C22.1611 18.77 23.0571 17.8746 23.0571 16.77C23.0571 15.6655 22.1611 14.77 21.0558 14.77C19.9506 14.77 19.0546 15.6655 19.0546 16.77C19.0546 17.8746 19.9506 18.77 21.0558 18.77Z" fill="#0F0F0F"/>
</svg>
