<svg width="33" height="33" viewBox="0 0 33 33" fill="none" xmlns="http://www.w3.org/2000/svg">
<g clip-path="url(#clip0_27213_1769)">
<path d="M4.9774 16.5369H0.548828C0.548828 25.0951 7.49061 32.0369 16.0488 32.0369C24.607 32.0369 31.5488 25.0951 31.5488 16.5369H27.1203C27.1203 19.5942 24.6418 22.0726 21.5845 22.0726H10.5131C7.45582 22.0726 4.9774 19.5942 4.9774 16.5369Z" fill="#64B4FA"/>
<path d="M27.1203 16.5369H31.5488C31.5488 7.97865 24.607 1.03687 16.0488 1.03687V11.0012H21.5845C24.6418 11.0012 27.1203 13.4796 27.1203 16.5369Z" fill="#0353A8"/>
<path d="M16.0488 11.0012V1.03687C7.49061 1.03687 0.548828 7.97865 0.548828 16.5369H4.9774C4.9774 13.4796 7.45582 11.0012 10.5131 11.0012H16.0488Z" fill="#0353A8"/>
<path d="M21.5845 18.7512C22.8075 18.7512 23.7988 17.7598 23.7988 16.5369C23.7988 15.3139 22.8075 14.3226 21.5845 14.3226C20.3616 14.3226 19.3703 15.3139 19.3703 16.5369C19.3703 17.7598 20.3616 18.7512 21.5845 18.7512Z" fill="#0353A8"/>
<path d="M10.5131 18.7512C11.736 18.7512 12.7274 17.7598 12.7274 16.5369C12.7274 15.3139 11.736 14.3226 10.5131 14.3226C9.2902 14.3226 8.29883 15.3139 8.29883 16.5369C8.29883 17.7598 9.2902 18.7512 10.5131 18.7512Z" fill="#0353A8"/>
</g>
<defs>
<clipPath id="clip0_27213_1769">
<rect width="32" height="32" fill="white" transform="translate(0.0488281 0.536865)"/>
</clipPath>
</defs>
</svg>
