<svg width="33" height="33" viewBox="0 0 33 33" fill="none" xmlns="http://www.w3.org/2000/svg">
<path d="M6.04883 16.77H2.04883C2.04883 24.5 8.31883 30.77 16.0488 30.77C23.7788 30.77 30.0488 24.5 30.0488 16.77H26.0488C26.0488 19.5314 23.8103 21.77 21.0488 21.77H11.0488C8.2874 21.77 6.04883 19.5314 6.04883 16.77Z" fill="#64B4FA"/>
<path d="M26.0488 16.77H30.0488C30.0488 9.04002 23.7788 2.77002 16.0488 2.77002V11.77H21.0488C23.8103 11.77 26.0488 14.0086 26.0488 16.77Z" fill="#0353A8"/>
<path d="M16.0488 11.77V2.77002C8.31883 2.77002 2.04883 9.04002 2.04883 16.77H6.04883C6.04883 14.0086 8.2874 11.77 11.0488 11.77H16.0488Z" fill="#0353A8"/>
<path d="M21.0488 18.77C22.1534 18.77 23.0488 17.8746 23.0488 16.77C23.0488 15.6655 22.1534 14.77 21.0488 14.77C19.9443 14.77 19.0488 15.6655 19.0488 16.77C19.0488 17.8746 19.9443 18.77 21.0488 18.77Z" fill="#0353A8"/>
<path d="M11.0488 18.77C12.1534 18.77 13.0488 17.8746 13.0488 16.77C13.0488 15.6655 12.1534 14.77 11.0488 14.77C9.94426 14.77 9.04883 15.6655 9.04883 16.77C9.04883 17.8746 9.94426 18.77 11.0488 18.77Z" fill="#0353A8"/>
</svg>
