<svg width="33" height="33" viewBox="0 0 33 33" fill="none" xmlns="http://www.w3.org/2000/svg">
<g clip-path="url(#clip0_27213_1769)">
<path d="M4.99888 16.3933H0.570312C0.570312 24.9515 7.5121 31.8933 16.0703 31.8933C24.6285 31.8933 31.5703 24.9515 31.5703 16.3933H27.1417C27.1417 19.4506 24.6633 21.929 21.606 21.929H10.5346C7.47731 21.929 4.99888 19.4506 4.99888 16.3933Z" fill="#64B4FA"/>
<path d="M27.1417 16.3933H31.5703C31.5703 7.8351 24.6285 0.893311 16.0703 0.893311V10.8576H21.606C24.6633 10.8576 27.1417 13.336 27.1417 16.3933Z" fill="#0353A8"/>
<path d="M16.0703 10.8576V0.893311C7.5121 0.893311 0.570312 7.8351 0.570312 16.3933H4.99888C4.99888 13.336 7.47731 10.8576 10.5346 10.8576H16.0703Z" fill="#0353A8"/>
<path d="M21.606 18.6076C22.8289 18.6076 23.8203 17.6162 23.8203 16.3933C23.8203 15.1704 22.8289 14.179 21.606 14.179C20.3831 14.179 19.3917 15.1704 19.3917 16.3933C19.3917 17.6162 20.3831 18.6076 21.606 18.6076Z" fill="#0353A8"/>
<path d="M10.5346 18.6076C11.7575 18.6076 12.7489 17.6162 12.7489 16.3933C12.7489 15.1704 11.7575 14.179 10.5346 14.179C9.31168 14.179 8.32031 15.1704 8.32031 16.3933C8.32031 17.6162 9.31168 18.6076 10.5346 18.6076Z" fill="#0353A8"/>
</g>
<defs>
<clipPath id="clip0_27213_1769">
<rect width="32" height="32" fill="white" transform="translate(0.0703125 0.393311)"/>
</clipPath>
</defs>
</svg>
