<svg width="162" height="27" viewBox="0 0 162 27" fill="none" xmlns="http://www.w3.org/2000/svg">
<g clip-path="url(#clip0_27221_1928)">
<path d="M137.889 7.52002V7.48002C137.889 3.79002 140.649 0.77002 144.589 0.77002C146.979 0.77002 148.429 1.60002 149.669 2.79002L148.199 4.48002C147.159 3.52002 146.049 2.87002 144.559 2.87002C142.089 2.87002 140.279 4.91002 140.279 7.45002V7.49002C140.279 10.03 142.079 12.09 144.559 12.09C146.159 12.09 147.179 11.46 148.289 10.42L149.759 11.9C148.409 13.31 146.919 14.2 144.489 14.2C140.709 14.2 137.889 11.25 137.889 7.52002Z" fill="#2CB563"/>
<path d="M155.438 3.11H151.318V1H161.858V3.11H157.738V13.98H155.438V3.11Z" fill="#2CB563"/>
<path d="M135.869 1.08997H126.889V3.12997H135.869V1.08997Z" fill="#1E3060"/>
<path d="M135.889 6.51001H126.889V8.55001H135.889V6.51001Z" fill="#1E3060"/>
<path d="M113.26 0.98999H115.33L122.13 9.96999V0.98999H124.33V13.97H122.46L115.46 4.72999V13.97H113.26V0.98999Z" fill="#2CB563"/>
<path d="M75.5391 7.53003V7.49003C75.5391 3.80003 78.2991 0.780029 82.2391 0.780029C84.6291 0.780029 86.0791 1.61003 87.3191 2.80003L85.8491 4.49003C84.8091 3.53003 83.6991 2.88003 82.2091 2.88003C79.7391 2.88003 77.9291 4.92003 77.9291 7.46003V7.50003C77.9291 10.04 79.7291 12.1 82.2091 12.1C83.8091 12.1 84.8291 11.47 85.9391 10.43L87.4091 11.91C86.0591 13.32 84.5691 14.21 82.1391 14.21C78.3591 14.21 75.5391 11.26 75.5391 7.53003Z" fill="#2CB563"/>
<path d="M88.3496 7.53003V7.49003C88.3496 3.84003 91.1696 0.780029 95.1596 0.780029C99.1496 0.780029 101.93 3.80003 101.93 7.46003V7.50003C101.93 11.15 99.1096 14.21 95.1196 14.21C91.1296 14.21 88.3496 11.19 88.3496 7.53003ZM99.5296 7.53003V7.49003C99.5296 4.97003 97.6896 2.87003 95.1196 2.87003C92.5496 2.87003 90.7396 4.93003 90.7396 7.45003V7.49003C90.7396 10.01 92.5796 12.09 95.1496 12.09C97.7196 12.09 99.5296 10.05 99.5296 7.53003Z" fill="#2CB563"/>
<path d="M103.869 1H105.979L112.939 9.98V1H115.179V13.98H113.269L106.109 4.74V13.98H103.869V1Z" fill="#2CB563"/>
<path d="M135.879 12.04H126.889V14.08H135.879V12.04Z" fill="#1E3060"/>
<path d="M34.8902 1.07996H32.6602V14.09H34.8902V1.07996Z" fill="#1E3060"/>
<path d="M5.84 6.51003C3.09 5.92002 2.88 5.33002 2.88 4.53002C2.88 3.63002 3.77 2.99002 5.04 2.99002C6.23 2.99002 7.25 3.38002 8.28 4.21002L8.62 4.49002L9.93 2.75002L9.61 2.49002C8.22 1.38002 6.87 0.900024 5.07 0.900024C2.51 0.900024 0.65 2.47003 0.65 4.68003C0.65 7.29002 2.77 8.11003 5.07 8.61003C7.68 9.16003 7.89 9.77002 7.89 10.54C7.89 11.51 6.95 12.18 5.61 12.18C4.12 12.18 2.99 11.71 1.73 10.57L1.4 10.27L0 11.93L0.31 12.21C1.88 13.61 3.55 14.26 5.56 14.26C8.25 14.26 10.14 12.67 10.14 10.36C10.14 8.34003 8.82 7.15002 5.85 6.50002L5.84 6.51003Z" fill="#1E3060"/>
<path d="M24.8602 10.29L21.8302 1.04004H20.0802L17.0502 10.29L13.9902 1.37004L13.8902 1.08004H11.4902L16.1302 14.18H17.8802L20.9302 5.22004L23.9602 14.18H25.7302L30.3702 1.08004H28.0202L24.8602 10.29Z" fill="#1E3060"/>
<path d="M57.6507 10.54C56.6207 11.52 55.6107 12.18 54.0207 12.18C51.6207 12.18 49.7407 10.16 49.7407 7.55C49.7407 4.94 51.5807 2.99 54.0207 2.99C55.3507 2.99 56.4007 3.45 57.5507 4.54L57.8607 4.84L59.3807 3.21L59.0707 2.92C57.9407 1.86 56.5607 0.880005 54.0407 0.880005C50.3507 0.880005 47.4707 3.83 47.4707 7.63C47.4707 11.43 50.2707 14.31 53.9907 14.31C56.5707 14.31 58.0507 13.17 59.1507 12.05L59.4507 11.75L57.9507 10.27L57.6507 10.56V10.54Z" fill="#1E3060"/>
<path d="M70.4093 1.07996V6.47996H64.2493V1.07996H62.0293V14.09H64.2493V8.61996H70.4093V14.09H72.6393V1.07996H70.4093Z" fill="#1E3060"/>
<path d="M36.7207 3.19996H40.8007V14.06H43.0407V3.19996H47.1207V1.07996H36.7207V3.19996Z" fill="#1E3060"/>
<path d="M37.2491 20.89H35.3691V20.21H39.9491V20.89H38.0591V26.39H37.2491V20.89Z" fill="#494849"/>
<path d="M47.0086 23.49H44.6086V25.72H47.2886V26.39H43.8086V20.21H47.1486V20.88H44.6086V22.83H47.0086V23.49Z" fill="#494849"/>
<path d="M55.8089 26.19C55.5189 26.34 54.9289 26.48 54.1789 26.48C52.4389 26.48 51.1289 25.38 51.1289 23.35C51.1289 21.32 52.4389 20.1 54.3589 20.1C55.1289 20.1 55.6189 20.27 55.8289 20.38L55.6389 21.03C55.3389 20.88 54.9089 20.77 54.3889 20.77C52.9389 20.77 51.9789 21.7 51.9789 23.32C51.9789 24.83 52.8489 25.8 54.3589 25.8C54.8489 25.8 55.3389 25.7 55.6589 25.54L55.8289 26.17L55.8089 26.19Z" fill="#494849"/>
<path d="M60.7883 20.21V22.8H63.7783V20.21H64.5883V26.39H63.7783V23.49H60.7883V26.39H59.9883V20.21H60.7883Z" fill="#494849"/>
<path d="M79.4701 23.68C79.4201 22.82 79.3701 21.78 79.3801 21.01H79.3501C79.1401 21.73 78.8801 22.5 78.5701 23.36L77.4801 26.36H76.8701L75.8701 23.42C75.5801 22.55 75.3301 21.75 75.1501 21.02H75.1301C75.1101 21.79 75.0701 22.83 75.0101 23.75L74.8401 26.4H74.0801L74.5101 20.22H75.5301L76.5801 23.21C76.8401 23.97 77.0501 24.65 77.2001 25.29H77.2301C77.3901 24.67 77.6101 23.99 77.8801 23.21L78.9801 20.22H80.0001L80.3901 26.4H79.6101L79.4501 23.69L79.4701 23.68Z" fill="#494849"/>
<path d="M85.72 24.45L85.08 26.39H84.25L86.35 20.21H87.31L89.42 26.39H88.57L87.91 24.45H85.72ZM87.75 23.82L87.15 22.04C87.01 21.64 86.92 21.27 86.83 20.91H86.81C86.72 21.28 86.62 21.65 86.5 22.03L85.89 23.82H87.75Z" fill="#494849"/>
<path d="M93.5098 20.29C93.9998 20.22 94.5698 20.16 95.2098 20.16C96.3598 20.16 97.1698 20.43 97.7098 20.93C98.2598 21.43 98.5798 22.15 98.5798 23.15C98.5798 24.15 98.2698 24.98 97.6898 25.55C97.1098 26.13 96.1598 26.44 94.9598 26.44C94.3898 26.44 93.9198 26.41 93.5098 26.37V20.29ZM94.3098 25.76C94.5098 25.8 94.8098 25.81 95.1198 25.81C96.8298 25.81 97.7498 24.86 97.7498 23.19C97.7498 21.73 96.9298 20.81 95.2498 20.81C94.8398 20.81 94.5298 20.85 94.3098 20.89V25.77V25.76Z" fill="#494849"/>
<path d="M105.989 23.49H103.589V25.72H106.269V26.39H102.789V20.21H106.129V20.88H103.589V22.83H105.989V23.49Z" fill="#494849"/>
<path d="M116.4 20.21V22.8H119.39V20.21H120.2V26.39H119.39V23.49H116.4V26.39H115.6V20.21H116.4Z" fill="#494849"/>
<path d="M125.56 20.21V23.87C125.56 25.25 126.17 25.84 127 25.84C127.92 25.84 128.5 25.23 128.5 23.87V20.21H129.31V23.81C129.31 25.71 128.31 26.49 126.97 26.49C125.7 26.49 124.75 25.77 124.75 23.85V20.21H125.56Z" fill="#494849"/>
<path d="M139.079 23.68C139.029 22.82 138.979 21.78 138.989 21.01H138.959C138.749 21.73 138.489 22.5 138.179 23.36L137.089 26.36H136.479L135.479 23.42C135.189 22.55 134.939 21.75 134.769 21.02H134.749C134.729 21.79 134.689 22.83 134.629 23.75L134.459 26.4H133.699L134.129 20.22H135.149L136.199 23.21C136.459 23.97 136.669 24.65 136.819 25.29H136.849C137.009 24.67 137.229 23.99 137.499 23.21L138.599 20.22H139.619L139.999 26.4H139.219L139.059 23.69L139.079 23.68Z" fill="#494849"/>
<path d="M145.32 24.45L144.68 26.39H143.85L145.95 20.21H146.91L149.02 26.39H148.17L147.51 24.45H145.32ZM147.35 23.82L146.74 22.04C146.6 21.64 146.51 21.27 146.42 20.91H146.4C146.31 21.28 146.21 21.65 146.09 22.03L145.48 23.82H147.34H147.35Z" fill="#494849"/>
<path d="M153.11 26.39V20.21H153.98L155.96 23.34C156.42 24.06 156.78 24.72 157.07 25.35H157.09C157.02 24.52 157 23.76 157 22.8V20.21H157.75V26.39H156.94L154.98 23.25C154.55 22.56 154.14 21.86 153.82 21.19H153.79C153.84 21.98 153.85 22.72 153.85 23.75V26.39H153.1H153.11Z" fill="#494849"/>
</g>
<defs>
<clipPath id="clip0_27221_1928">
<rect width="162" height="26" fill="white" transform="translate(0 0.77002)"/>
</clipPath>
</defs>
</svg>
