<svg width="41" height="41" viewBox="0 0 41 41" fill="none" xmlns="http://www.w3.org/2000/svg">
<path fill-rule="evenodd" clip-rule="evenodd" d="M0 2H31.7303C36.8539 2 41 6.19189 41 11.3721V39H0V2ZM7.51686 15.155C8 15.2232 8.69663 15.28 9.69663 15.28C11.3596 15.28 12.7191 14.9278 13.6067 14.1781C14.427 13.4737 15.0112 12.3491 15.0112 10.7132C15.0112 9.20233 14.4607 8.14584 13.573 7.48695C12.7528 6.86214 11.7079 6.56678 10.1011 6.56678C9.13484 6.56678 8.21348 6.63494 7.51686 6.74854V15.1664V15.155ZM9.44944 8.12312V13.7237C9.61798 13.7578 9.8764 13.7578 10.1124 13.7578C11.8427 13.7691 12.9775 12.8035 12.9775 10.7587C12.9888 8.97513 11.9551 8.0436 10.3146 8.0436C9.88765 8.0436 9.60674 8.07768 9.44944 8.12312ZM7.51686 31.2183C8.1236 31.2978 9.08989 31.3887 10.3483 31.3887C12.6517 31.3887 14.2472 30.9684 15.236 30.0482C15.9438 29.3439 16.427 28.4123 16.427 27.1854C16.427 25.0611 14.8539 23.9364 13.5056 23.5956V23.5502C15 22.9936 15.8989 21.7894 15.8989 20.4148C15.8989 19.2901 15.4607 18.4381 14.7191 17.8928C13.8427 17.1772 12.6629 16.8591 10.8427 16.8591C9.56181 16.8591 8.30338 16.984 7.50563 17.1544V31.2183H7.51686ZM9.34832 18.4041V23.0049H11.0112C12.9438 23.0049 14.0786 21.9825 14.0786 20.6079C14.0786 18.9266 12.8202 18.2791 10.9775 18.2791C10.1348 18.2791 9.65169 18.3473 9.35955 18.4041H9.34832ZM9.34832 24.4136V29.8664C9.70787 29.9346 10.2247 29.946 10.8764 29.946C12.7641 29.946 14.5056 29.2416 14.5056 27.1627C14.5056 25.2088 12.8427 24.4022 10.8539 24.4022H9.34832V24.4136ZM20.2135 31.2524H21.7978V19.5401H20.3933L17.7416 20.9146L18.0562 22.1188L20.1685 21.0169H20.2022V31.2524H20.2135ZM31.8539 20.9942L31.7753 22.5391H31.7303C31.2921 21.6871 30.3258 20.7556 28.5618 20.7556C26.2359 20.7556 23.9888 22.7323 23.9888 26.2085C23.9888 29.0485 25.7977 31.2183 28.3146 31.2183C29.8876 31.2183 30.9775 30.4572 31.5506 29.5029H31.5955V30.6503C31.5955 33.2404 30.2135 34.2401 28.3258 34.2401C27.0674 34.2401 26.0225 33.8539 25.3483 33.4335L24.8876 34.8535C25.7079 35.4102 27.0449 35.7056 28.2697 35.7056C29.5506 35.7056 30.9775 35.4102 31.9663 34.4787C32.955 33.5926 33.4157 32.1498 33.4157 29.7869V23.8228C33.4157 22.5732 33.4607 21.7439 33.4944 21.0055H31.8764L31.8539 20.9942ZM31.5618 26.8901V25.0497C31.5618 24.7317 31.5393 24.459 31.4607 24.1977C31.1236 23.1185 30.2247 22.2211 28.8764 22.2211C27.1124 22.2211 25.8539 23.732 25.8539 26.1062C25.8539 28.117 26.8652 29.7983 28.8539 29.7983C29.9888 29.7983 31.0112 29.0826 31.4157 27.8898C31.5169 27.5717 31.5618 27.2082 31.5618 26.8901ZM21.3034 6.56678C18.236 6.56678 15.809 8.77065 15.809 12.5195C15.809 16.0639 18.1236 18.2791 21.1236 18.2791C23.7978 18.2791 26.6405 16.4728 26.6405 12.3264C26.6405 8.90697 24.4944 6.56678 21.3034 6.56678ZM21.2584 8.08904C18.8764 8.08904 17.8427 10.3156 17.8427 12.44C17.8427 14.8938 19.2359 16.7455 21.2022 16.7455C23.1685 16.7455 24.5618 14.9165 24.5618 12.3945C24.5618 10.4974 23.618 8.08904 21.2472 8.08904H21.2584Z" fill="url(#paint0_linear_31864_1274)"/>
<defs>
<linearGradient id="paint0_linear_31864_1274" x1="20.4944" y1="39" x2="20.4944" y2="2" gradientUnits="userSpaceOnUse">
<stop stop-color="#EC1C24"/>
<stop offset="1" stop-color="#F48120"/>
</linearGradient>
</defs>
</svg>
