<svg width="184" height="41" viewBox="0 0 184 41" fill="none" xmlns="http://www.w3.org/2000/svg">
<g clip-path="url(#clip0_30519_3773)">
<path d="M24.489 26.0326H27.7731V5.59116H35.1777V2.77607H17.0844V5.59116H24.489V26.0326ZM38.4451 13.8525C38.6626 13.2672 38.9469 12.7655 39.3428 12.3139C39.7331 11.8568 40.1959 11.5112 40.7423 11.2269C41.3111 10.9482 41.9467 10.7977 42.6715 10.7977C43.9651 10.7977 44.9687 11.2492 45.6936 12.1634C46.4407 13.0721 46.7864 14.2204 46.7697 15.6307H38.0269C38.0939 15.0231 38.2221 14.4378 38.4451 13.8525ZM35.1777 20.9822C35.5011 22.0692 36.042 23.028 36.8114 23.8642C37.5809 24.7059 38.4953 25.3303 39.5603 25.7483C40.6754 26.2054 42.0136 26.4451 43.5469 26.4451C45.3758 26.4507 47.1433 26.1274 48.8495 25.4696L48.409 22.844C46.9649 23.4294 45.4594 23.7081 43.8982 23.6914C41.9244 23.6914 40.4803 23.212 39.538 22.281C38.618 21.3278 38.0939 19.9621 37.96 18.1448H50.0315L50.0761 17.5595V17.0355C50.0761 14.0476 49.4405 11.8122 48.1692 10.3629C46.898 8.88566 45.0803 8.14983 42.6938 8.14983C41.6846 8.14983 40.6754 8.34494 39.7108 8.71285C38.7518 9.10306 37.8708 9.66608 37.1292 10.4242C36.3821 11.1879 35.7911 12.1634 35.3339 13.3118C34.8934 14.4601 34.6536 15.8035 34.6536 17.3421C34.6536 18.6632 34.8265 19.8785 35.1777 20.9822ZM59.9341 26.3782L60.369 23.7583C59.8894 23.6914 59.4713 23.6022 59.12 23.4963C58.791 23.4071 58.5067 23.2566 58.3115 23.0392C58.1164 22.8441 57.9602 22.5876 57.871 22.2364C57.7874 21.9131 57.7428 21.4783 57.7428 20.9599V0L54.5869 0.546296V21.4783C54.5869 23.1283 54.9828 24.3436 55.7913 25.124C56.5998 25.9044 57.9825 26.3336 59.9341 26.3782ZM66.6807 13.8525C66.8982 13.2672 67.1825 12.7655 67.5784 12.3139C67.9854 11.8178 68.4817 11.4387 69.0615 11.1712C69.647 10.9036 70.2603 10.781 70.9071 10.7977C72.2007 10.7977 73.2043 11.2492 73.9292 12.1634C74.6763 13.0721 75.022 14.2204 75.0053 15.6307H66.2402C66.3071 15.0231 66.4577 14.4378 66.6807 13.8525ZM65.0359 23.8642C65.7607 24.6669 66.6807 25.2968 67.7959 25.7483C68.911 26.2054 70.2492 26.4451 71.7825 26.4451C73.6114 26.4507 75.3789 26.1274 77.0851 25.4696L76.6223 22.844C75.1781 23.4294 73.6727 23.7081 72.1115 23.6914C70.16 23.6914 68.6936 23.212 67.7736 22.281C66.8536 21.3278 66.3071 19.9621 66.1733 18.1448H78.2671L78.2894 17.5595V17.0355C78.2894 14.0476 77.6538 11.8122 76.4048 10.3629C75.1335 8.88566 73.3159 8.14983 70.9294 8.14983C69.9202 8.14983 68.911 8.34494 67.952 8.71285C66.9651 9.10306 66.1064 9.66608 65.3648 10.4242C64.6177 11.1879 64.0267 12.1634 63.5694 13.3118C63.1067 14.4601 62.8892 15.8035 62.8892 17.3421C62.8892 18.6632 63.062 19.8785 63.4133 20.9822C63.7646 22.0859 64.311 23.0392 65.0359 23.8642ZM89.8089 23.2789C89.1956 23.6245 88.231 23.775 86.943 23.775C85.6271 23.775 84.5733 23.6468 83.7871 23.3848L82.0586 22.7827L81.4843 25.4696C83.2351 26.172 85.0528 26.4953 86.943 26.4451C89.1956 26.4451 90.9073 26.0326 92.134 25.1853C93.3384 24.3603 93.9294 23.1506 93.9294 21.5452C93.9294 20.7202 93.8179 20.0067 93.5558 19.4436C93.3161 18.8806 92.9648 18.3789 92.5076 17.9887C92.0225 17.5818 91.4761 17.2306 90.8181 16.9296C90.1602 16.623 89.4186 16.322 88.5822 15.9986C87.9466 15.7812 87.4002 15.5638 86.943 15.3687C86.5025 15.1736 86.1066 14.9562 85.7999 14.7165C85.4933 14.4824 85.2758 14.2204 85.1253 13.9138C84.9915 13.6351 84.9022 13.2895 84.9022 12.9215C84.9022 12.1801 85.2312 11.6394 85.8892 11.2938C86.5471 10.9482 87.311 10.7754 88.2087 10.7754C89.6751 10.7587 91.0746 11.043 92.4184 11.6171L92.9871 8.93025C92.3682 8.7017 91.7325 8.53447 91.0802 8.43413C90.1323 8.27247 89.1733 8.1777 88.2087 8.14983C86.2181 8.14983 84.6402 8.60693 83.4804 9.51557C82.343 10.4242 81.752 11.6394 81.752 13.178C81.752 13.9584 81.8802 14.6329 82.1646 15.1736C82.4266 15.692 82.8002 16.1714 83.2407 16.5394C83.6979 16.9296 84.2443 17.2529 84.8576 17.5372L86.8092 18.3566C88.2087 18.9029 89.2179 19.4213 89.8312 19.8562C90.4445 20.3077 90.7512 20.9153 90.7512 21.6734C90.7512 22.4148 90.4445 22.9555 89.8089 23.2789ZM101.156 11.3161C101.635 11.2046 102.115 11.1322 102.605 11.0987C103.285 11.0318 103.977 10.9872 104.663 10.9705C105.404 10.9705 106.018 11.0987 106.503 11.3161C107.005 11.5558 107.378 11.9237 107.662 12.4198C107.947 12.8993 108.148 13.5236 108.253 14.265C108.365 15.0008 108.432 15.8871 108.432 16.9073V26.0326H111.582V16.2328C111.571 14.8503 111.387 13.4846 111.036 12.1411C111.276 11.9237 111.761 11.6617 112.441 11.383C113.935 10.8534 115.441 10.8311 116.952 11.3161C117.453 11.5558 117.827 11.9237 118.111 12.4198C118.396 12.8993 118.596 13.5236 118.68 14.265C118.792 15.0008 118.836 15.8871 118.836 16.9073V26.0326H121.987V16.2328C121.987 15.0844 121.925 14.003 121.747 13.0275C121.574 12.0296 121.245 11.1879 120.76 10.4688C120.28 9.75527 119.6 9.19225 118.747 8.80204C117.894 8.41183 116.773 8.21672 115.418 8.21672C114.716 8.21672 114.058 8.30034 113.444 8.43413C112.43 8.68498 111.46 9.05846 110.534 9.53787L109.787 9.99497C109.263 9.40965 108.627 8.97485 107.858 8.67383C107.071 8.36723 106.129 8.21672 104.992 8.21672C102.622 8.17213 100.291 8.462 98.0053 9.08076V26.0326H101.156V11.3161ZM128.716 19.3322C129.023 18.9642 129.369 18.6855 129.832 18.4681C130.267 18.2507 130.752 18.1225 131.276 18.0556C132.787 17.8772 134.275 17.9776 135.747 18.3566V23.5632C135.352 23.6468 134.872 23.7137 134.298 23.736C133.729 23.775 133.049 23.775 132.307 23.775C131.081 23.775 130.094 23.5632 129.369 23.1283C128.65 22.6935 128.276 21.9131 128.276 20.8094C128.276 20.2018 128.427 19.7056 128.716 19.3322ZM127.027 25.1407C127.64 25.5755 128.365 25.9044 129.196 26.0939C130.027 26.3114 130.947 26.4005 131.934 26.4005C133.311 26.4173 134.688 26.3336 136.054 26.1385C136.985 26.0438 137.911 25.9044 138.836 25.726V14.828C138.836 13.8525 138.725 12.9383 138.485 12.1411C138.262 11.3161 137.894 10.6026 137.342 10.0173C136.818 9.43195 136.115 8.97485 135.24 8.65153C134.387 8.32264 133.316 8.14983 132.045 8.14983C130.294 8.16098 128.588 8.4174 126.916 8.93025L127.289 11.5112C128.744 11.0597 130.233 10.8367 131.761 10.8367C132.592 10.8367 133.25 10.9482 133.751 11.1879C134.259 11.422 134.671 11.7286 134.956 12.1411C135.262 12.5313 135.463 12.9606 135.569 13.4623C135.681 13.9807 135.747 14.4824 135.747 15.0008V15.8649C135.324 15.7701 134.9 15.6865 134.476 15.6307C132.87 15.3297 131.27 15.3687 129.676 15.7366C128.756 15.9317 127.969 16.2551 127.289 16.6676C126.57 17.1135 126.012 17.71 125.616 18.457C125.22 19.1984 125.042 19.9899 125.076 20.8317C125.076 21.8462 125.254 22.6935 125.605 23.4071C125.934 24.1262 126.414 24.7115 127.027 25.1407ZM146.676 11.383L147.813 11.121C149.581 10.8033 151.321 10.9148 153.027 11.4443L153.556 8.71285L152.921 8.56234C152.274 8.45085 151.622 8.35608 150.969 8.28362L150.027 8.21672C147.791 8.18328 145.622 8.55119 143.52 9.32046V26.0326H146.676V11.383ZM157.454 24.6C157.933 25.1853 158.569 25.6424 159.338 25.9434C160.125 26.25 161.112 26.4005 162.316 26.4005C163.855 26.4396 165.316 26.133 166.698 25.4696L166.085 22.8886L164.881 23.3457C163.649 23.736 162.405 23.7694 161.156 23.4517C160.738 23.3235 160.409 23.0838 160.147 22.7604C159.863 22.4315 159.667 22.0023 159.534 21.417C159.405 20.854 159.316 20.1349 159.316 19.2485V11.2046H166.018V8.58464H159.316V3.18858L156.16 3.7293V19.2931C156.16 20.4638 156.272 21.4783 156.467 22.3702C156.645 23.2343 156.991 23.9924 157.454 24.6Z" fill="#111111"/>
<path d="M180.192 23.5632C179.69 23.3458 179.16 23.2343 178.614 23.1729C178.218 23.1061 177.956 23.106 177.956 23.106C177.51 23.106 177.069 23.1618 176.634 23.2677C176.2 23.3792 175.781 23.5353 175.391 23.7471C174.995 23.9534 174.633 24.2098 174.298 24.5052C173.964 24.8007 173.674 25.1351 173.423 25.5031C173.177 25.871 172.971 26.2612 172.821 26.6793C172.67 27.0973 172.57 27.5266 172.525 27.967C172.481 28.4073 172.486 28.8477 172.547 29.2881C172.614 29.7285 172.726 30.1521 172.899 30.5591H17.0175L10.4493 24.0593C10.6723 23.7583 10.8675 23.4405 11.0236 23.1005C11.1797 22.7549 11.3024 22.4037 11.386 22.0413C11.4697 21.6734 11.5087 21.3055 11.5143 20.932C11.5198 20.5585 11.4864 20.185 11.4139 19.8171C11.3414 19.4492 11.2299 19.0925 11.0794 18.7524C10.9344 18.4068 10.7504 18.0779 10.5329 17.7713C10.3155 17.4647 10.0701 17.186 9.79136 16.9296C9.51815 16.6731 9.21706 16.4502 8.89366 16.2551C5.93852 14.4824 7.14288 9.90578 10.5775 9.75527H10.8006V8.58464C10.0701 8.61808 9.35645 8.724 8.65391 8.89681C7.94579 9.06961 7.25997 9.30374 6.60203 9.60476C5.94409 9.90578 5.31961 10.2681 4.72858 10.6862C4.13755 11.1099 3.59113 11.5781 3.09489 12.1021C2.59865 12.6261 2.15259 13.1947 1.76228 13.8023C1.37756 14.4044 1.04859 15.0454 0.780951 15.7143C0.518892 16.3833 0.318165 17.0745 0.189923 17.7825C0.056105 18.4848 -0.00522861 19.1984 0.000348208 19.9175C0.000348208 23.6245 2.1024 25.163 3.80858 25.8152C4.31598 26.0326 4.8401 26.1608 5.38652 26.2277C6.80834 26.4061 8.10191 26.0828 9.26724 25.2522L16.3206 32.2314H173.992C174.321 32.577 174.716 32.878 175.129 33.1177C177.716 34.7009 177.476 38.5807 174.538 39.4503C173.796 39.6621 173.205 39.6398 173.205 39.6398V40.8105C178.419 40.8105 184 36.1558 184 29.4553C184 25.7706 181.898 24.2098 180.192 23.5632Z" fill="#22ADE2"/>
</g>
<defs>
<clipPath id="clip0_30519_3773">
<rect width="184" height="41" fill="white"/>
</clipPath>
</defs>
</svg>
