<svg width="32" height="32" viewBox="0 0 32 32" fill="none" xmlns="http://www.w3.org/2000/svg">
<g clip-path="url(#clip0_30519_3780)">
<path d="M25.8494 0C20.4223 0.39667 15.3536 2.77255 11.6687 6.64696C7.98382 10.5214 5.95785 15.6051 6.00067 20.8696C6.00067 27.8261 11.3224 32 16.8959 32C18.2228 32 19.5367 31.7472 20.7626 31.256C21.9884 30.7648 23.1023 30.0449 24.0406 29.1373C24.9788 28.2297 25.7231 27.1522 26.2309 25.9664C26.7386 24.7806 27 23.5096 27 22.2261C27 20.9426 26.7386 19.6716 26.2309 18.4858C25.7231 17.2999 24.9788 16.2225 24.0406 15.3149C23.1023 14.4073 21.9884 13.6874 20.7626 13.1962C19.5367 12.705 18.2228 12.4522 16.8959 12.4522C16.8959 4.86956 21.6423 1.84348 25.8494 1.84348V0Z" fill="#22ADE2"/>
</g>
<defs>
<clipPath id="clip0_30519_3780">
<rect width="32" height="32" fill="white"/>
</clipPath>
</defs>
</svg>
