<svg width="171" height="20" viewBox="0 0 171 20" fill="none" xmlns="http://www.w3.org/2000/svg">
<g clip-path="url(#clip0_27221_1927)">
<path d="M60.6299 5.38004V3.29004H53.1699V14.06H60.6299V11.87H56.1899V9.49004H59.8799V7.40004H56.1899V5.38004H60.6299Z" fill="#4C286D"/>
<path d="M73.8003 11.93H69.1403V3.29004H66.0703V14.06H73.8003V11.93Z" fill="#4C286D"/>
<path d="M98.4493 7.39998C96.3893 6.92998 95.6593 6.87998 95.6593 6.05998C95.6593 5.29998 96.6793 5.05998 97.2693 5.05998C98.2293 5.05998 99.3493 5.27998 100.489 5.86998L101.319 3.88998C100.149 3.24998 98.6393 2.97998 97.1893 2.97998C94.3393 2.97998 92.4293 4.12998 92.3493 6.38998C92.2693 8.43998 93.9393 9.20998 95.4693 9.52998C96.9493 9.82998 98.4493 10.1 98.4793 10.98C98.5093 11.79 97.7793 12.14 96.3993 12.14C95.1293 12.14 93.9393 11.73 92.7293 11.23L92.0293 13.38C93.4193 13.97 94.8293 14.3 96.2893 14.3C98.3093 14.3 99.7893 13.99 100.879 12.96C101.629 12.26 101.879 11.41 101.879 10.61C101.879 8.89998 100.819 7.93998 98.4393 7.40998" fill="#4C286D"/>
<path d="M48.8295 5.41004V3.29004H39.4395V5.41004H42.6095V14.06H45.6495V5.41004H48.8295Z" fill="#4C286D"/>
<path d="M84.2405 3.29004V10.13C84.2405 10.67 84.2405 10.81 84.2105 11.02C84.1205 11.67 83.4806 12.05 82.4706 12.06C81.7206 12.05 81.1805 11.83 80.9205 11.44C80.7905 11.24 80.7306 10.88 80.7306 10.3V3.29004H77.5605V10.71C77.5605 11.74 77.7006 12.2 78.1606 12.79C78.9306 13.75 80.4206 14.25 82.4806 14.25H82.5905C85.3405 14.25 86.7605 13.17 87.1805 12.17C87.3905 11.68 87.4006 11.45 87.4006 10.47V3.29004H84.2405Z" fill="#4C286D"/>
<path d="M40.8703 0.340051L23.0703 3.88005V5.12005L23.1303 5.10005C34.8903 2.25005 40.8703 0.530051 40.9203 0.520051C40.9903 0.500051 41.0103 0.450051 41.0003 0.410051C40.9903 0.360051 40.9403 0.330051 40.8703 0.340051Z" fill="#4C286D"/>
<path d="M25.93 1.33C26.21 1.15 26.28 1.26 26.2 1.46C26.07 1.78 25.47 3.71 20.99 7.38C19.82 8.34 18.99 8.88 17.31 9.87C20.07 6.01 24.09 2.52 25.94 1.32M26.4 0C25.53 0.05 23.93 1.33 23.05 2.09C19.55 5.12 16.95 7.9 15.05 10.82C11.1 12.93 6.07 15.11 1.08 16.8L0.96 16.84L0 19.43L0.55 19.22C3.73 18.01 9.03 15.73 13.84 13.21C13.57 13.93 13.43 14.59 13.43 15.2C13.43 15.65 13.5 16.07 13.66 16.45C13.96 17.21 14.56 17.79 15.38 18.11C16.61 18.6 18.29 18.61 20.21 18.03C25.1 16.55 30.91 11.99 32.17 11.09L32.22 11.06C32.22 11.06 32.27 10.97 32.25 10.93C32.22 10.89 32.16 10.88 32.12 10.91L32.06 10.95C30.7 11.76 24.11 15.67 19.83 16.82C17.65 17.41 15.98 17.08 15.36 16.21C15.14 15.91 15.04 15.53 15.04 15.09C15.04 14.23 15.44 13.13 16.23 11.91C16.95 11.5 17.62 11.1 18.23 10.72C22.41 8.37 27.23 3.8 27.43 1.02V0.96C27.43 0.72 27.33 0.47 27.14 0.29C26.95 0.09 26.69 -0.01 26.41 0.01L26.4 0Z" fill="#6FBE44"/>
<path d="M23.0105 3.9L4.29055 7.92L3.56055 9.87L23.0705 5.12H23.1005V3.88L23.0105 3.9Z" fill="#4C286D"/>
<path d="M103.63 3.29004C104.24 3.29004 104.75 3.77004 104.75 4.40004C104.75 5.03004 104.24 5.53004 103.63 5.53004C103.02 5.53004 102.5 5.05004 102.5 4.40004C102.5 3.77004 103.02 3.29004 103.63 3.29004ZM103.63 5.36004C104.15 5.36004 104.55 4.95004 104.55 4.40004C104.55 3.85004 104.15 3.45004 103.63 3.45004C103.11 3.45004 102.71 3.86004 102.71 4.40004C102.71 4.95004 103.11 5.36004 103.63 5.36004ZM103.19 3.75004H103.7C104.01 3.75004 104.16 3.87004 104.16 4.13004C104.16 4.36004 104.01 4.46004 103.81 4.48004L104.19 5.06004H103.97L103.62 4.50004H103.41V5.06004H103.21V3.75004H103.19ZM103.39 4.33004H103.6C103.78 4.33004 103.95 4.33004 103.95 4.12004C103.95 3.95004 103.8 3.92004 103.66 3.92004H103.39V4.34004V4.33004Z" fill="#4C286D"/>
<path d="M119.31 9.47004C119.62 9.93004 119.77 10.44 119.77 11.01C119.77 11.62 119.63 12.16 119.37 12.62C119.1 13.08 118.7 13.44 118.16 13.69C117.62 13.94 116.96 14.07 116.17 14.07H111.32V3.29004H115.96C116.71 3.29004 117.34 3.42004 117.85 3.67004C118.35 3.92004 118.73 4.26004 118.97 4.68004C119.21 5.10004 119.33 5.57004 119.33 6.09004C119.33 6.61004 119.21 7.07004 118.96 7.47004C118.71 7.87004 118.36 8.19004 117.91 8.44004C118.54 8.67004 119 9.02004 119.31 9.47004ZM112.94 4.68004V7.90004H115.86C116.49 7.90004 116.96 7.76004 117.27 7.46004C117.58 7.16004 117.75 6.76004 117.75 6.22004C117.75 5.75004 117.59 5.37004 117.27 5.09004C116.95 4.81004 116.48 4.67004 115.86 4.67004H112.94V4.68004ZM117.62 12.22C117.97 11.92 118.14 11.51 118.14 10.97C118.14 10.38 117.96 9.95004 117.61 9.67004C117.26 9.39004 116.75 9.25004 116.08 9.25004H112.94V12.67H116.08C116.76 12.67 117.27 12.53 117.61 12.23L117.62 12.22Z" fill="#4C286D"/>
<path d="M127.55 6.25V14.06H126.1V12.89C125.84 13.29 125.49 13.62 125.07 13.87C124.65 14.12 124.17 14.24 123.65 14.24C123.09 14.24 122.6 14.13 122.19 13.92C121.78 13.71 121.46 13.4 121.25 12.98C121.04 12.56 120.92 12.07 120.92 11.48V6.25H122.43V11.27C122.43 12.36 122.98 12.9 124.08 12.9C124.41 12.9 124.73 12.82 125.02 12.66C125.31 12.5 125.56 12.25 125.75 11.91C125.94 11.57 126.04 11.15 126.04 10.65V6.25H127.55Z" fill="#4C286D"/>
<path d="M128.73 11.58H130.24C130.28 11.94 130.37 12.23 130.51 12.45C130.65 12.67 130.85 12.83 131.12 12.92C131.39 13.01 131.73 13.06 132.16 13.06C132.75 13.06 133.19 12.97 133.47 12.78C133.75 12.59 133.89 12.32 133.89 11.97C133.89 11.76 133.84 11.58 133.74 11.44C133.64 11.3 133.47 11.18 133.23 11.09C133 11 132.66 10.9 132.22 10.83L131.42 10.68C130.58 10.53 129.96 10.26 129.55 9.87996C129.14 9.49996 128.94 8.98996 128.94 8.34996C128.94 7.88996 129.06 7.47996 129.29 7.14996C129.53 6.80996 129.87 6.54996 130.32 6.35996C130.77 6.16996 131.31 6.07996 131.95 6.07996C133.04 6.07996 133.85 6.29996 134.4 6.74996C134.95 7.19996 135.23 7.84996 135.25 8.69996H133.78C133.75 8.15996 133.58 7.78996 133.28 7.57996C132.98 7.36996 132.53 7.25996 131.95 7.25996C131.47 7.25996 131.09 7.34996 130.83 7.52996C130.57 7.70996 130.44 7.96996 130.44 8.29996C130.44 8.60996 130.56 8.84996 130.79 9.00996C131.02 9.16996 131.39 9.29996 131.89 9.39996L132.71 9.53996C133.36 9.65996 133.88 9.81996 134.27 10.02C134.66 10.22 134.95 10.47 135.14 10.77C135.33 11.07 135.42 11.44 135.42 11.87C135.42 12.37 135.29 12.81 135.03 13.16C134.77 13.52 134.39 13.79 133.9 13.98C133.41 14.17 132.83 14.26 132.15 14.26C129.97 14.26 128.82 13.37 128.73 11.59V11.58Z" fill="#4C286D"/>
<path d="M136.829 5.1C136.689 5.02 136.569 4.91 136.489 4.77C136.399 4.63 136.359 4.47 136.359 4.3C136.359 4.14 136.399 3.99 136.479 3.85C136.559 3.71 136.669 3.59 136.809 3.51C136.949 3.42 137.109 3.38 137.279 3.38C137.439 3.38 137.589 3.42 137.729 3.5C137.869 3.58 137.989 3.69 138.069 3.83C138.159 3.97 138.199 4.13 138.199 4.3C138.199 4.46 138.159 4.61 138.079 4.75C137.999 4.89 137.889 5.01 137.749 5.09C137.609 5.18 137.449 5.22 137.279 5.22C137.119 5.22 136.969 5.18 136.829 5.1ZM136.529 6.25H138.039V14.06H136.529V6.25Z" fill="#4C286D"/>
<path d="M145.65 6.78996C146.13 7.25996 146.38 7.93996 146.38 8.82996V14.06H144.87V9.03996C144.87 7.94996 144.32 7.40996 143.22 7.40996C142.9 7.40996 142.59 7.48996 142.28 7.65996C141.98 7.81996 141.73 8.07996 141.54 8.40996C141.35 8.74996 141.25 9.15996 141.25 9.65996V14.06H139.74V6.24996H141.19V7.41996C141.46 7.00996 141.81 6.67996 142.22 6.43996C142.63 6.19996 143.11 6.07996 143.63 6.07996C144.5 6.07996 145.16 6.31996 145.65 6.78996Z" fill="#4C286D"/>
<path d="M155.14 10.6499H149.25C149.32 11.4199 149.55 12.0099 149.94 12.3899C150.33 12.7699 150.85 12.9599 151.49 12.9599C151.98 12.9599 152.4 12.8399 152.72 12.6099C153.04 12.3799 153.28 12.0599 153.42 11.6599H154.95C154.82 12.1799 154.6 12.6199 154.29 13.0099C153.98 13.3899 153.58 13.6899 153.1 13.9099C152.62 14.1299 152.07 14.2399 151.46 14.2399C150.72 14.2399 150.08 14.0799 149.51 13.7399C148.94 13.3999 148.51 12.9299 148.2 12.3199C147.89 11.7099 147.73 10.9799 147.73 10.1599C147.73 9.33995 147.88 8.63995 148.19 8.01995C148.5 7.39995 148.93 6.91995 149.49 6.57995C150.05 6.23995 150.7 6.06995 151.44 6.06995C152.18 6.06995 152.87 6.24995 153.43 6.60995C153.99 6.96995 154.41 7.45995 154.71 8.08995C155.01 8.71995 155.15 9.42995 155.15 10.2199V10.6599L155.14 10.6499ZM149.98 7.87995C149.6 8.23995 149.36 8.76995 149.27 9.45995H153.58C153.53 9.04995 153.42 8.67995 153.24 8.35995C153.06 8.03995 152.82 7.78995 152.51 7.60995C152.2 7.42995 151.84 7.33995 151.43 7.33995C150.84 7.33995 150.36 7.51995 149.98 7.87995Z" fill="#4C286D"/>
<path d="M155.91 11.58H157.42C157.46 11.94 157.55 12.23 157.69 12.45C157.83 12.67 158.03 12.83 158.3 12.92C158.57 13.01 158.91 13.06 159.34 13.06C159.93 13.06 160.37 12.97 160.65 12.78C160.93 12.59 161.07 12.32 161.07 11.97C161.07 11.76 161.02 11.58 160.92 11.44C160.82 11.3 160.65 11.18 160.41 11.09C160.18 11 159.84 10.9 159.4 10.83L158.6 10.68C157.76 10.53 157.14 10.26 156.73 9.87996C156.32 9.49996 156.12 8.98996 156.12 8.34996C156.12 7.88996 156.24 7.47996 156.47 7.14996C156.71 6.80996 157.05 6.54996 157.5 6.35996C157.95 6.16996 158.49 6.07996 159.13 6.07996C160.22 6.07996 161.03 6.29996 161.58 6.74996C162.13 7.19996 162.41 7.84996 162.43 8.69996H160.96C160.93 8.15996 160.76 7.78996 160.46 7.57996C160.16 7.36996 159.71 7.25996 159.13 7.25996C158.65 7.25996 158.27 7.34996 158.01 7.52996C157.75 7.70996 157.62 7.96996 157.62 8.29996C157.62 8.60996 157.74 8.84996 157.97 9.00996C158.2 9.16996 158.57 9.29996 159.07 9.39996L159.89 9.53996C160.54 9.65996 161.06 9.81996 161.45 10.02C161.84 10.22 162.13 10.47 162.32 10.77C162.51 11.07 162.6 11.44 162.6 11.87C162.6 12.37 162.47 12.81 162.21 13.16C161.95 13.52 161.57 13.79 161.08 13.98C160.59 14.17 160.01 14.26 159.33 14.26C157.15 14.26 156 13.37 155.91 11.59V11.58Z" fill="#4C286D"/>
<path d="M163.359 11.58H164.869C164.909 11.94 164.999 12.23 165.139 12.45C165.279 12.67 165.479 12.83 165.749 12.92C166.019 13.01 166.359 13.06 166.789 13.06C167.379 13.06 167.819 12.97 168.099 12.78C168.379 12.59 168.519 12.32 168.519 11.97C168.519 11.76 168.469 11.58 168.369 11.44C168.269 11.3 168.099 11.18 167.859 11.09C167.629 11 167.289 10.9 166.849 10.83L166.049 10.68C165.209 10.53 164.589 10.26 164.179 9.87996C163.769 9.49996 163.569 8.98996 163.569 8.34996C163.569 7.88996 163.689 7.47996 163.919 7.14996C164.159 6.80996 164.499 6.54996 164.949 6.35996C165.399 6.16996 165.939 6.07996 166.579 6.07996C167.669 6.07996 168.479 6.29996 169.029 6.74996C169.579 7.19996 169.859 7.84996 169.879 8.69996H168.409C168.379 8.15996 168.209 7.78996 167.909 7.57996C167.609 7.36996 167.159 7.25996 166.579 7.25996C166.099 7.25996 165.719 7.34996 165.459 7.52996C165.199 7.70996 165.069 7.96996 165.069 8.29996C165.069 8.60996 165.189 8.84996 165.419 9.00996C165.649 9.16996 166.019 9.29996 166.519 9.39996L167.339 9.53996C167.989 9.65996 168.509 9.81996 168.899 10.02C169.289 10.22 169.579 10.47 169.769 10.77C169.959 11.07 170.049 11.44 170.049 11.87C170.049 12.37 169.919 12.81 169.659 13.16C169.399 13.52 169.019 13.79 168.529 13.98C168.039 14.17 167.459 14.26 166.779 14.26C164.599 14.26 163.459 13.37 163.359 11.59V11.58Z" fill="#4C286D"/>
</g>
<defs>
<clipPath id="clip0_27221_1927">
<rect width="170.05" height="19.44" fill="white"/>
</clipPath>
</defs>
</svg>
