<svg width="41" height="19" viewBox="0 0 41 19" fill="none" xmlns="http://www.w3.org/2000/svg">
<g clip-path="url(#clip0_27221_1968)">
<path d="M40.3703 0.340051L22.5703 3.88005V5.12005L22.6303 5.10005C34.3903 2.25005 40.3703 0.530051 40.4203 0.520051C40.4903 0.500051 40.5103 0.450051 40.5003 0.410051C40.4903 0.360051 40.4403 0.330051 40.3703 0.340051Z" fill="#4C286D"/>
<path d="M25.43 1.33C25.71 1.15 25.78 1.26 25.7 1.46C25.57 1.78 24.97 3.71 20.49 7.38C19.32 8.34 18.49 8.88 16.81 9.87C19.57 6.01 23.59 2.52 25.44 1.32M25.9 0C25.03 0.05 23.43 1.33 22.55 2.09C19.05 5.12 16.45 7.9 14.55 10.82C10.6 12.93 5.57 15.11 0.58 16.8L0.46 16.84L-0.5 19.43L0.05 19.22C3.23 18.01 8.53 15.73 13.34 13.21C13.07 13.93 12.93 14.59 12.93 15.2C12.93 15.65 13 16.07 13.16 16.45C13.46 17.21 14.06 17.79 14.88 18.11C16.11 18.6 17.79 18.61 19.71 18.03C24.6 16.55 30.41 11.99 31.67 11.09L31.72 11.06C31.72 11.06 31.77 10.97 31.75 10.93C31.72 10.89 31.66 10.88 31.62 10.91L31.56 10.95C30.2 11.76 23.61 15.67 19.33 16.82C17.15 17.41 15.48 17.08 14.86 16.21C14.64 15.91 14.54 15.53 14.54 15.09C14.54 14.23 14.94 13.13 15.73 11.91C16.45 11.5 17.12 11.1 17.73 10.72C21.91 8.37 26.73 3.8 26.93 1.02V0.96C26.93 0.72 26.83 0.47 26.64 0.29C26.45 0.09 26.19 -0.01 25.91 0.01L25.9 0Z" fill="#6FBE44"/>
<path d="M22.5105 3.89988L3.79055 7.91988L3.06055 9.86988L22.5705 5.11988H22.6005V3.87988L22.5105 3.89988Z" fill="#4C286D"/>
</g>
<defs>
<clipPath id="clip0_27221_1968">
<rect width="41" height="19" fill="white"/>
</clipPath>
</defs>
</svg>
