<svg width="41" height="20" viewBox="0 0 41 20" fill="none" xmlns="http://www.w3.org/2000/svg">
<g clip-path="url(#clip0_27221_1968)">
<path d="M40.3703 0.813684L22.5703 4.35368V5.59368L22.6303 5.57368C34.3903 2.72368 40.3703 1.00368 40.4203 0.993684C40.4903 0.973684 40.5103 0.923684 40.5003 0.883684C40.4903 0.833684 40.4403 0.803684 40.3703 0.813684Z" fill="#4C286D"/>
<path d="M25.43 1.80363C25.71 1.62363 25.78 1.73363 25.7 1.93363C25.57 2.25363 24.97 4.18363 20.49 7.85363C19.32 8.81363 18.49 9.35363 16.81 10.3436C19.57 6.48363 23.59 2.99363 25.44 1.79363M25.9 0.473633C25.03 0.523633 23.43 1.80363 22.55 2.56363C19.05 5.59363 16.45 8.37363 14.55 11.2936C10.6 13.4036 5.57 15.5836 0.58 17.2736L0.46 17.3136L-0.5 19.9036L0.05 19.6936C3.23 18.4836 8.53 16.2036 13.34 13.6836C13.07 14.4036 12.93 15.0636 12.93 15.6736C12.93 16.1236 13 16.5436 13.16 16.9236C13.46 17.6836 14.06 18.2636 14.88 18.5836C16.11 19.0736 17.79 19.0836 19.71 18.5036C24.6 17.0236 30.41 12.4636 31.67 11.5636L31.72 11.5336C31.72 11.5336 31.77 11.4436 31.75 11.4036C31.72 11.3636 31.66 11.3536 31.62 11.3836L31.56 11.4236C30.2 12.2336 23.61 16.1436 19.33 17.2936C17.15 17.8836 15.48 17.5536 14.86 16.6836C14.64 16.3836 14.54 16.0036 14.54 15.5636C14.54 14.7036 14.94 13.6036 15.73 12.3836C16.45 11.9736 17.12 11.5736 17.73 11.1936C21.91 8.84363 26.73 4.27363 26.93 1.49363V1.43363C26.93 1.19363 26.83 0.943633 26.64 0.763633C26.45 0.563633 26.19 0.463633 25.91 0.483633L25.9 0.473633Z" fill="#6FBE44"/>
<path d="M22.5105 4.37352L3.79055 8.39352L3.06055 10.3435L22.5705 5.59352H22.6005V4.35352L22.5105 4.37352Z" fill="#4C286D"/>
</g>
<defs>
<clipPath id="clip0_27221_1968">
<rect width="41" height="19" fill="white" transform="translate(0 0.473633)"/>
</clipPath>
</defs>
</svg>
