<svg width="61" height="41" viewBox="0 0 61 41" fill="none" xmlns="http://www.w3.org/2000/svg">
<g clip-path="url(#clip0_32357_1418)">
<g clip-path="url(#clip1_32357_1418)">
<path d="M56.1227 27.4536H0.795832L0.171875 27.3634V14.6124L0.795832 14.5222H1.50189L1.94523 14.7846L2.38856 15.047H3.09462L3.35734 14.6042V3.28L3.44765 2.6568H4.86797L5.13069 2.214V0.7954L5.31131 0.2624L5.40162 0L5.66434 0.4428L5.75465 1.066L5.84496 1.6892V3.1078L5.66434 3.6408L5.57403 4.264L5.04038 4.4444H4.33432L3.89099 4.7068V13.9154L3.9813 14.5386H5.40162L6.02558 14.6288L6.28829 15.0716H6.99435L7.43769 14.8092V9.143L7.70041 8.7002H9.12073L9.74469 8.7904V10.209L9.12073 10.2992H8.41467L8.15196 10.742V14.2844L8.59529 14.5468H9.30135L9.74469 14.8092L10.188 15.0716H10.8941L11.1568 14.6288V0.4428L11.4195 0L11.6822 0.4428V1.148L11.8629 1.681V14.432L12.4868 14.5222L12.7495 14.965L13.3735 15.0552L13.9974 14.965L14.1781 14.432V10.1844L14.2684 9.5612L14.7117 9.8236L14.8923 10.3566L14.9826 10.9798L15.073 11.603L15.2536 12.136L15.4342 12.669L15.5245 13.2922L15.6148 13.9154L15.7954 14.4484L16.0581 14.8912L16.5918 15.0716H17.2978L17.5606 14.6288L17.3799 14.0958L17.1993 13.5628L17.0187 13.0298L16.9284 12.4066L16.8381 11.7834L16.6575 11.2504L16.4769 10.7174L16.3865 10.0942L16.2962 9.471L16.0335 9.0282L16.1238 8.5854L16.3044 8.0524L16.5672 7.6096L16.7478 7.0766L16.8381 6.4534L17.0187 5.9204V3.0832L16.8381 2.5502L16.7478 1.927L16.4851 1.4842L16.3044 0.9512L15.9514 0.5986L15.5984 0.246L16.0417 0.3362L16.4851 0.5986L16.7478 1.0414L17.0105 1.4842L17.1911 2.0172L17.3717 2.5502L17.462 3.1734L17.5524 3.7966V7.339L17.3717 7.872L17.2814 8.4952L17.1008 9.0282L16.9202 9.5612L16.8299 10.1844L17.0105 10.7174L17.1911 11.2504L17.3717 11.7834L17.462 12.4066L17.5524 13.0298L17.733 13.5628L17.9136 14.0958L18.1763 14.5386L18.439 14.9814L19.063 15.0716H21.9036L22.347 14.8092V12.6854L22.7 12.505L22.7903 13.1282L23.053 13.571L23.4061 13.9236L23.6688 14.3664L24.0218 14.719L24.5555 14.8994L25.0891 15.0798L25.5324 14.8174L25.9758 14.555L26.2385 14.1122L26.5012 13.6694L26.6818 13.1364L26.7721 12.5132L26.9528 11.9802L27.0431 11.357L27.1334 10.7338V9.3152L26.9528 8.7822V8.077L26.7721 7.544L26.5915 7.011L26.2385 6.6584L25.9758 6.2156L25.6227 5.863L25.1794 5.6006L24.8264 5.248L24.6458 4.715L24.4651 4.182L24.5555 3.5588L24.7361 3.0258L25.0891 2.6732L25.6227 2.8536L25.8855 3.2964L26.2385 3.649L26.5915 3.4686L26.7721 2.9356L26.9528 2.4026V1.6974L26.7721 1.1644L26.5094 0.7216L26.1564 0.369L25.7131 0.1066L26.1564 0.1968L26.5997 0.4592L26.9528 0.8118L27.3058 1.1644L27.4864 1.6974V3.8212L27.3058 4.3542L27.1252 4.8872L26.8625 5.33L26.3288 5.1496L25.9758 4.797L25.4421 4.6166L25.1794 5.0594L25.5324 5.412L25.8855 5.7646L26.2385 6.1172L26.5915 6.4698L26.9446 6.8224L27.1252 7.3554L27.3058 7.8884L27.4864 8.4214L27.5767 9.0446L27.667 9.6678V12.505L27.4864 13.038V13.7432L27.3058 14.2762L27.7491 14.5386L28.1925 14.801L28.6358 15.0634H29.3419L29.6046 14.6206V8.9544L30.0479 8.692H31.4682L31.9116 8.9544V10.373L31.4682 10.2828H30.7622L30.2285 10.4632L30.1382 11.0864V13.9236L30.3188 14.4566L30.9428 14.5468H31.6489L31.9116 14.9896L32.5355 15.0798H33.2416L33.3319 14.4566V0.2624L33.5946 0.1722L33.8573 0.615V14.0794L34.1201 14.5222H34.8261L35.2695 14.2598L35.0888 13.7268L34.9082 13.1938L34.7276 12.6608L34.547 12.1278V11.4226L34.7276 11.7752L34.9082 12.3082L35.0888 12.8412L35.3516 13.284L35.6143 13.7268L35.877 14.1696L36.23 14.5222L36.6734 14.7846L37.1167 15.047L37.6503 14.8666L38.184 14.6862L38.6273 14.4238L38.89 13.981L39.1528 13.5382L39.4155 13.0954L39.6782 12.6526L39.8588 12.1196L39.9491 11.4964L40.0394 10.8732L40.2201 10.3402V9.635L40.4007 9.102V5.5596L40.2201 5.0266V4.3214L40.0394 3.7884L39.8588 3.2554L39.6782 2.7224L39.4976 2.1894L39.317 1.6564L39.0542 1.2136L38.7915 0.7708L38.4385 0.4182L38.8818 0.5084L39.2349 0.861L39.4976 1.3038L39.7603 1.7466L40.023 2.1894L40.2036 2.7224L40.3843 3.2554L40.5649 3.7884L40.6552 4.4116L40.7455 5.0348L40.8358 5.658L40.9261 6.2812V10.5288L40.7455 11.0618V11.767L40.6552 12.3902L40.5649 13.0134L40.3843 13.5464L40.2036 14.0794V14.432L40.8276 14.5222L41.2709 14.7846L41.7143 15.047H44.5549L44.8176 14.6042L44.9079 13.981L44.9983 13.3578V12.6526L45.261 12.5624L45.5237 13.0052V14.4238L45.8767 14.7764L46.3201 15.0388H48.4464L48.8898 14.7764L49.3331 14.514L49.6861 14.1614L49.9489 13.7186L50.2116 13.2758L50.4743 12.833L50.6549 12.3L50.8355 11.767L50.9258 11.1438L51.0162 10.5206L51.1968 9.9876V5.0266L51.0162 4.4936L50.9258 3.8704L50.8355 3.2472L50.6549 2.7142L50.4743 2.1812L50.2116 1.7384L49.9489 1.2956L49.6861 0.8528L49.3331 0.5002L49.1525 0.1476L49.5958 0.41L49.9489 0.7626L50.3019 1.1152L50.5646 1.558L50.8273 2.0008L51.0079 2.5338L51.1886 3.0668L51.3692 3.5998L51.5498 4.1328V4.838L51.7304 5.371V6.7896L51.911 7.3226V9.4464L51.7304 9.9794V11.398L51.5498 11.931L51.4595 12.5542L51.3692 13.1774L51.1886 13.7104L51.0079 14.2434V14.9486L51.6319 15.0388H56.5989L56.6892 14.4156V12.997L56.5989 12.3738H52.3462L52.0834 11.931V11.2258L52.3462 10.783H58.0192L58.282 10.3402L58.1013 9.8072V9.102L58.282 8.569L58.0192 8.1262H52.3462L52.2559 7.503L52.0752 6.97L52.5186 6.7076H58.9059L58.9962 6.0844L58.8156 5.5514V4.8462L58.9962 4.3132L59.259 4.223L59.3493 4.8462L59.1686 5.3792L59.3493 5.9122L59.5299 6.4452L59.9732 6.7076L60.2359 6.2648L60.4166 5.7318V5.0266L60.2359 4.4936L60.1456 4.0508L60.589 4.3132L60.7696 4.8462V7.6834L60.5069 8.1262L60.1538 8.4788L59.9732 8.8314L60.0635 9.4546V10.5206L60.1538 10.9634L60.0635 11.5866L59.8829 12.1196L59.4396 12.382L58.9059 12.2016L58.4626 12.464V13.1692L58.6432 13.7022V15.1208L58.4626 15.6538L58.3723 16.277L58.0192 16.6296L57.4856 16.4492H57.1326L56.5989 16.6296L56.1556 16.892V26.814L56.0653 27.4372L56.1227 27.4536Z" fill="#000101"/>
<path d="M9.66396 6.0188H7.53758L7.44727 5.3956V0.4428L7.70998 0L7.9727 0.4428L8.06301 1.066L8.15332 1.6892V5.2316L8.24363 5.8548H9.66396V6.0352V6.0188Z" fill="#000101"/>
<path d="M22.0761 12.3984H19.9497L19.8594 11.7752V8.93803L20.3027 8.67563H21.0088L21.6327 8.58543V6.46163L21.37 6.01883H19.9497L19.8594 5.39563V3.27183L19.9497 2.64863H22.0761L22.3388 2.20583V0.795431L22.2485 0.172231L22.5112 0.0820312L22.6918 0.615031L22.8724 1.14803V3.27183L22.6918 3.80483L22.5112 4.33783L21.8872 4.42803H21.1812L20.5572 4.51823V5.22343L20.6475 5.84663H21.3536L21.8872 6.02703L22.15 6.46983L22.3306 7.00283V9.12663L22.15 9.65963L21.9693 10.1926L21.3454 10.2828H20.6393L20.549 10.906V11.6112L20.6393 12.2344H22.0596V12.4148L22.0761 12.3984Z" fill="#000101"/>
<path d="M31.83 6.0188H29.7036L29.6133 5.3956V0.4428L29.876 0L30.1387 0.4428V5.4038L30.4014 5.8466H31.8218V6.027L31.83 6.0188Z" fill="#000101"/>
<path d="M44.7767 12.3984H43.3564L42.7324 12.3082V0.262431L43.0855 0.0820312L43.2661 0.615031L43.4467 1.14803V11.7752L43.7094 12.218H44.4155L44.7685 12.3984H44.7767Z" fill="#000101"/>
<path d="M58.7836 4.0754H52.3963L51.8626 3.895L51.682 3.362L51.5917 2.7388L51.4111 2.2058L51.2305 1.6728L51.3208 1.0496L51.5014 1.5826L51.5917 2.2058L51.8544 2.6486H56.1072L56.7311 2.5584V0.4428L56.9939 0L57.1745 0.3526L57.0842 0.9758V1.681L57.1745 2.3042L57.5275 2.6568L57.9708 2.3944L58.1515 1.8614V1.1562L57.9708 0.6232L57.7902 0.0902L58.2336 0.1804L58.4963 0.6232L58.5866 1.2464L58.6769 1.8696V2.5748L58.5866 3.198L58.4963 3.8212L58.759 4.0836L58.7836 4.0754Z" fill="#000101"/>
<path d="M1.86273 4.42794H0.442406L0.179688 3.98514V3.27994L0.360307 2.74694L0.984264 2.65674H1.69032L1.95304 3.09954V3.80474L1.86273 4.42794Z" fill="#000101"/>
<path d="M14.8115 6.90434L14.1875 6.81414V3.27994L14.2778 2.65674L14.8115 2.83714L15.2548 3.09954L15.4354 3.63254L15.616 4.16554V4.87074L15.3533 4.60834L14.8197 4.42794L14.7294 5.05114V6.46974L14.8197 6.91254L14.8115 6.90434Z" fill="#000101"/>
<path d="M48.5049 12.3983H47.7988L47.3555 12.1359V2.91914L47.7988 2.65674L48.4228 2.74694L48.8661 3.00934L49.1288 3.45214L49.3915 3.89494L49.4818 4.51814L49.6625 5.05114L49.5722 5.67434L49.3915 5.14134L49.1288 4.69854L48.6855 4.43614L48.0615 4.52634V11.6111L48.1518 12.2343L48.5049 12.4147V12.3983Z" fill="#000101"/>
<path d="M37.5038 11.8653L36.9701 11.6849L36.5268 11.4225L36.264 10.9797L36.0834 10.4467L35.9931 9.82354L35.8125 9.29054V5.74814L35.9931 5.21514L36.1737 4.68214L36.3544 4.14914L36.535 3.61614L36.9783 3.35374L37.512 3.17334L37.9553 3.43574L38.3083 3.78834L38.4889 4.32134L38.6696 4.85434L38.8502 5.38734V6.09254L38.6696 5.73994L38.4068 5.29714L38.0538 4.94454L37.4299 5.03474L36.9865 5.29714L36.8059 5.83014L36.5432 6.27294V6.97814L36.3626 7.51114V8.92974L36.5432 9.46274V10.1679L36.7238 10.7009L36.9044 11.2339L37.2575 11.5865L37.5202 11.8489L37.5038 11.8653Z" fill="#000101"/>
<path d="M25.6235 11.3325L25.3608 10.8897L24.9174 10.6273L24.5644 10.2747L24.2114 9.92209L23.9486 9.47929L23.6859 9.03649L23.5956 8.41329L23.415 7.88029L23.2344 7.34729V6.64209L23.415 6.99469L23.5956 7.52769L23.8583 7.97049L24.1211 8.41329L24.4741 8.76589L24.9174 9.02829L25.2704 9.38089L25.5332 9.82369L25.7138 10.3567V11.0619L25.6235 11.3243V11.3325Z" fill="#000101"/>
<path d="M59.4082 10.7174L59.5888 10.1844L59.7694 9.65138L59.5888 9.11838L59.4985 8.49518L59.1454 8.14258L58.7021 8.40498L58.6118 9.02818L58.5215 9.65138L58.7021 10.1844L58.8827 10.7174H59.4164H59.4082Z" fill="#000101"/>
<path d="M25.271 12.3984L24.7373 12.218L24.294 11.9556L24.0312 11.5128L24.2119 11.1602L24.5649 11.5128L24.8276 11.9556L25.271 12.218V12.3984Z" fill="#000101"/>
<path d="M15.4272 14.432V13.7268L15.2465 13.1938L15.0659 12.6608L14.9756 12.0376L14.7129 12.1278V14.2516L15.1562 14.514L15.4189 14.4238L15.4272 14.432Z" fill="#000101"/>
<path d="M57.8154 14.965L57.9961 14.432L58.1767 13.899V13.1938L57.9961 12.6608L57.5527 12.3984L57.1997 12.751L57.1094 13.3742V14.0794L57.1997 14.7026L57.5527 15.0552L57.8154 14.965Z" fill="#000101"/>
<path d="M4.43297 25.7726L4.87631 25.5102L5.13903 25.0674L5.31965 24.5344L5.05693 24.0916L4.79421 24.5344L4.35087 24.7968L3.90754 24.5344L3.64482 24.0916L3.4642 23.5586L3.37389 22.9354V20.0982L3.55451 19.5652L3.81723 19.1224L4.17025 18.7698L4.7039 18.9502L4.96662 19.393L5.22934 19.1306V18.5976L4.96662 18.1548L4.61359 17.8022H4.07994L3.63661 18.0646L3.37389 18.5074L3.19327 19.0404L3.01265 19.5734L2.83203 20.1064V23.6488L3.01265 24.1818L3.19327 24.7148L3.37389 25.2478L3.72692 25.6004L4.17025 25.8628L4.43297 25.7726Z" fill="#000101"/>
<path d="M7.79914 25.7724L8.24248 25.51L8.5052 25.0672L8.68581 24.5342L8.86643 24.0012L9.04705 23.4682V20.631L8.95674 20.0078L8.86643 19.3846L8.68581 18.8516L8.5052 18.3186L8.15217 17.966L7.70883 17.7036L7.17518 17.884L6.82215 18.2366L6.55944 18.6794L6.37882 19.2124L6.1982 19.7454V20.4506L6.01758 20.9836V22.4022L6.10789 23.0254L6.1982 23.6486L6.37882 24.1816L6.55944 24.7146L6.74005 25.2476L7.09308 25.6002L7.53642 25.8626L7.79914 25.7724Z" fill="#000101"/>
<path d="M29.4417 25.7726L29.8851 25.5102L30.1478 25.0674L30.3284 24.5344L30.1478 24.0014L29.8851 24.2638L29.532 24.6164L29.0887 24.7066L28.7357 24.354L28.555 23.821L28.3744 23.288V22.5828L28.1938 22.0498V21.3446L28.3744 20.8116V20.1064L28.555 19.5734L28.8178 19.1306L29.1708 18.778L29.7044 18.9584L29.9672 19.4012L30.2299 19.1388V18.6058L29.9672 18.163L29.6141 17.8104L28.9902 17.7202L28.6371 18.0728L28.3744 18.5156L28.1117 18.9584L28.0214 19.5816L27.8408 20.1146V20.8198L27.6602 21.3528V22.058L27.8408 22.591V23.2962L27.9311 23.9194L28.0214 24.5426L28.2841 24.9854L28.5468 25.4282L28.8999 25.7808H29.4335L29.4417 25.7726Z" fill="#000101"/>
<path d="M40.7874 25.7724L41.2308 25.51L41.4935 25.0672L41.7562 24.6244L41.9368 24.0914L42.0271 23.4682V22.763L42.2077 22.23V21.5248L42.1174 20.9016L42.0271 20.2784L41.9368 19.6552L41.8465 19.032L41.5838 18.5892L41.3211 18.1464L40.968 17.7938L40.3441 17.7036L39.9911 18.0562L39.7283 18.499L39.5477 19.032L39.3671 19.565L39.1865 20.098V20.8032L39.0059 21.3362V22.0414L39.1865 22.5744V23.2796L39.3671 23.8126L39.4574 24.4358L39.638 24.9688L39.9007 25.4116L40.3441 25.674L40.7874 25.7642V25.7724Z" fill="#000101"/>
<path d="M47.7001 25.7725L48.0531 25.4199L48.3159 24.9771L48.4062 24.3539L48.5868 23.8209V23.1157L48.4965 22.4925L48.4062 21.8693L48.0531 21.5167L47.7001 21.1641L47.3471 20.8115L47.1665 20.2785V19.5733L47.3471 19.0403L47.7904 18.7779L48.0531 19.2207L48.4062 19.0403V18.3351L48.1434 17.8923L47.6098 17.7119L47.1665 17.9743L46.9037 18.4171L46.7231 18.9501L46.6328 19.5733V20.2785L46.7231 20.9017L46.9037 21.4347L47.1665 21.8775L47.5195 22.2301L47.8725 22.5827L48.0531 23.1157V23.8209L47.8725 24.3539L47.6098 24.7967L47.1665 24.5343L46.9037 24.0915L46.641 24.5343V24.8869L46.8216 25.4199L47.265 25.6823L47.7083 25.7725H47.7001Z" fill="#000101"/>
<path d="M13.3007 25.5923V18.5075L13.2104 17.8843L12.7671 18.1467L12.5865 18.6797L12.4058 19.2127V19.9179L12.2252 20.4509L12.0446 20.9839L11.9543 21.6071L11.864 22.2303L11.6013 22.6731L11.511 22.0499L11.3303 21.5169L11.1497 20.9839V20.2787L10.9691 19.7457L10.7885 19.2127L10.6982 18.5895L10.6079 17.9663H10.0742V25.0511L10.1645 25.6743L10.4272 25.2315V20.2705L10.6079 20.6231L10.7885 21.1561L10.8788 21.7793L10.9691 22.4025L11.1497 22.9355L11.3303 23.4685V24.1737L11.5931 24.6165L11.8558 24.1737L12.0364 23.6407L12.217 23.1077V22.4025L12.3976 21.8695L12.5783 21.3365L12.6686 20.7133L12.7589 21.3365V25.5841H13.2925L13.3007 25.5923Z" fill="#000101"/>
<path d="M17.7343 25.5923V18.5075L17.644 17.8843L17.2007 18.1467L17.0201 18.6797L16.8394 19.2127L16.7491 19.8359L16.6588 20.4591L16.4782 20.9921L16.2976 21.5251V22.2303L16.117 22.7633L15.9363 22.4107L15.7557 21.8777L15.6654 21.2545L15.5751 20.6313L15.3945 20.0983L15.2139 19.5653V18.8601L15.0332 18.3271L14.7705 17.8843L14.5078 18.3271V25.4119L14.8608 25.5923V20.6313L15.0415 20.2787L15.1318 20.9019L15.2221 21.5251L15.4027 22.0581L15.493 22.6813L15.5833 23.3045L15.7639 23.8375L15.9446 24.3705L16.2073 24.4607L16.3879 23.9277L16.4782 23.3045L16.6588 22.7715L16.8394 22.2385V21.5333L17.0201 21.0003L17.2007 20.6477V25.6087H17.7343V25.5923Z" fill="#000101"/>
<path d="M20.3935 25.7728L20.7465 25.4202L21.0093 24.9774L21.0996 24.3542L21.2802 23.8212V18.155L20.8369 17.8926L20.7465 18.5158V23.4768L20.6562 24.1L20.3935 24.5428L19.9502 24.8052L19.6875 24.3624L19.5068 23.8294L19.3262 23.2964V18.3354L19.0635 17.8926L18.8008 18.3354V23.2964L18.9814 23.8294V24.5346L19.2441 24.9774L19.5068 25.4202L19.8599 25.7728H20.3935Z" fill="#000101"/>
<path d="M25.0075 25.5921V18.5073L24.9172 17.8841L24.6545 18.3269V22.5745L24.5642 23.1977L24.3015 22.7549L24.2112 22.1317L24.0306 21.5987L23.8499 21.0657L23.7596 20.4425L23.579 19.9095L23.3984 19.3765L23.2178 18.8435L23.0372 18.3105L22.7744 17.8677L22.5117 18.3105V25.3953L22.9551 25.6577L23.0454 25.0345V20.7869H23.226L23.4066 21.3199L23.5872 21.8529L23.7678 22.3859L23.9485 22.9189L24.0388 23.5421L24.2194 24.0751L24.4 24.6081L24.4903 25.2313L24.753 25.6741L25.0158 25.5839L25.0075 25.5921Z" fill="#000101"/>
<path d="M26.7817 25.5923V18.5075L26.6914 17.8843L26.248 18.1467V25.2315L26.5108 25.6743L26.7735 25.5841L26.7817 25.5923Z" fill="#000101"/>
<path d="M33.6938 25.5923V24.8871L33.5132 24.3541L33.4229 23.7309L33.3326 23.1077L33.2423 22.4845L33.1519 21.8613L32.9713 21.3283V20.6231L32.7907 20.0901V19.3849L32.6101 18.8519V18.1467L32.1667 17.8843L31.904 18.3271V19.0323L31.7234 19.5653L31.6331 20.1885L31.5428 20.8117L31.4525 21.4349L31.3622 22.0581L31.1815 22.5911V23.2963L31.0009 23.8293V24.5345L30.8203 25.0675L30.9106 25.6907L31.354 25.4283L31.4443 24.8051L31.5346 24.1819L31.7152 23.6489L32.3392 23.5587L32.8728 23.7391L32.9631 24.3623L33.1437 24.8953V25.6005H33.6774L33.6938 25.5923Z" fill="#000101"/>
<path d="M35.6478 25.5924V19.2128L36.0912 18.9504L36.5345 18.688V17.9828L35.9105 17.8926H34.4902L34.0469 18.155L34.1372 18.7782L34.6708 18.9586L35.1142 19.221V25.6006H35.6478V25.5924Z" fill="#000101"/>
<path d="M38.1274 25.5923V18.5075L38.0371 17.8843L37.5938 18.1467V25.2315L37.8565 25.6743L38.1192 25.5841L38.1274 25.5923Z" fill="#000101"/>
<path d="M45.5728 25.5922V18.5074L45.7534 17.9744H45.2198V22.9354H45.0391L44.8585 22.4024L44.6779 21.8694L44.4973 21.3364L44.3167 20.8034L44.136 20.2704L44.0457 19.6472L43.8651 19.1142L43.7748 18.491L43.5942 17.958H43.0605V25.0428L43.1509 25.666L43.5942 25.4036V20.4426L43.7748 20.7952L43.9554 21.3282L44.136 21.8612L44.3167 22.3942L44.4973 22.9272L44.6779 23.4602L44.8585 23.9932L44.9488 24.6164L45.1295 25.1494L45.3101 25.6824L45.5728 25.5922Z" fill="#000101"/>
<path d="M7.71815 24.7966L7.1845 24.6162L6.92179 24.1734L6.74117 23.6404L6.56055 23.1074V20.9836L6.65086 20.3604L6.74117 19.7372L7.00388 19.2944L7.2666 18.8516H7.80025L8.15328 19.2042L8.3339 19.7372L8.51452 20.2702V23.1074L8.3339 23.6404L8.15328 24.1734L7.89056 24.6162L7.70994 24.7966H7.71815Z" fill="#000101"/>
<path d="M40.6967 24.7967L40.2533 24.5343L39.9003 24.1817L39.7197 23.6487V22.9435L39.6294 22.3203L39.5391 21.6971L39.7197 21.1641V20.4589L39.81 19.8357L39.9906 19.3027L40.3436 18.9501L40.787 18.8599L41.14 19.2125L41.4027 19.6553L41.493 20.2785L41.6737 20.8115V22.2301L41.5833 22.8533L41.493 23.4765L41.3124 24.0095L41.1318 24.5425L40.6885 24.8049L40.6967 24.7967Z" fill="#000101"/>
<path d="M32.7168 22.6728H32.0107L31.8301 22.3202L31.9204 21.697L32.101 21.164V20.4588L32.2816 19.9258L32.4622 20.2784V20.9836L32.6429 21.5166V22.2218L32.7332 22.6646L32.7168 22.6728Z" fill="#000101"/>
<path d="M1.06641 40.9998V31.0778L1.15672 30.4546H49.3902L49.8336 30.717V40.639L1.06641 40.9916V40.9998Z" fill="#000101"/>
<path d="M7.62753 38.171L7.98056 37.8184L8.16118 37.2854V35.8668L7.89846 35.424L7.54543 35.0714L7.45513 34.4482L7.63574 33.9152L8.07908 34.0054L8.3418 33.5626L7.98877 33.21L7.54543 33.3002L7.28272 33.743L7.1021 34.276V34.9812L7.28272 35.5142L7.54543 35.957L7.80815 36.3998V37.105L7.54543 37.5478L7.19241 37.1952L6.92969 37.638L7.19241 38.0808L7.63574 38.171H7.62753Z" fill="#000101"/>
<path d="M13.1187 37.9906V37.2854L13.2993 36.7524V34.6286L13.4799 34.0956V33.3904L13.1269 33.21V34.6286L12.9462 35.1616V37.2854L12.7656 37.8184L13.1187 37.9988V37.9906Z" fill="#000101"/>
<path d="M17.0269 38.171L17.2896 37.7282L17.4702 37.1952L17.5605 36.572V35.8668L17.2978 35.424L16.9448 35.0714L16.6821 34.6286L16.8627 34.0956L17.2157 33.9152L17.5688 34.0956L17.7494 33.5626L17.3964 33.21H16.8627L16.6821 33.743L16.5015 34.276V34.9812L16.5918 35.6044L16.9448 35.957L17.2075 36.3998V37.105L16.9448 37.5478L16.5015 37.2854L16.1484 37.4658L16.3291 37.9988L16.7724 38.2612L17.0351 38.171H17.0269Z" fill="#000101"/>
<path d="M28.0204 38.1708L28.3734 37.8182L28.4638 37.3754L28.201 37.113L27.9383 37.5558L27.495 37.2934L27.3144 36.7604V35.3418L27.495 34.8088L27.6756 34.2758L27.9383 33.833L28.3817 34.0954L28.7347 33.915L28.5541 33.382L28.1107 33.1196L27.6674 33.382L27.3144 33.7346L27.1337 34.2676L27.0434 34.8908L26.9531 35.514V36.9326L27.1337 37.4656L27.3144 37.9986L27.7577 38.261L28.0204 38.1708Z" fill="#000101"/>
<path d="M37.7734 38.1711L38.1264 37.8185L37.6831 37.5561V37.0231L37.7734 36.3999V35.6947L38.0361 35.2519L38.2989 34.8091L37.9458 34.4565V33.7513L37.6831 33.6611L37.5928 34.2843L37.3301 34.7271L37.4204 35.1699V37.6463L37.5107 38.2695L37.7734 38.1793V38.1711Z" fill="#000101"/>
<path d="M42.2067 38.1708L42.3873 37.6378L42.0343 37.2852L42.2149 36.7522V35.3336L42.5679 34.981L42.2149 34.6284L42.3052 34.0052V33.4722L42.0425 33.915V34.6202L41.6895 34.9728L41.8701 35.5058V37.6296L41.9604 38.2528L42.2231 38.1626L42.2067 38.1708Z" fill="#000101"/>
<path d="M9.04834 37.9908V36.5722L9.22896 36.0392V34.6206L8.87593 34.801V36.2196L8.69531 36.7526V37.4578L8.78562 38.081L9.04834 37.9908Z" fill="#000101"/>
<path d="M10.6396 37.9906L10.7299 37.3674L10.8202 36.7442V35.3256L10.6396 34.7926L10.2865 34.6122L9.84319 34.522L9.75288 35.1452L9.57227 35.6782V37.802L9.66258 38.0644L9.75288 37.4412L9.9335 36.9082V36.203L10.0238 35.5798L10.3768 35.2272L10.4672 35.8504V37.269L10.2865 37.802L10.6396 37.9824V37.9906Z" fill="#000101"/>
<path d="M11.8799 39.409L12.2329 39.0564L12.4135 38.5234V37.8182L12.1508 37.3754L11.6172 37.195L11.7978 36.8424L12.2411 36.58L12.4217 36.047V35.3418L12.5121 34.899L12.159 34.5464L11.6254 34.7268L11.4448 35.2598L11.3544 35.883V37.3016L11.2641 37.9248L11.1738 38.548V39.2532L11.6172 39.5156L11.8799 39.4254V39.409Z" fill="#000101"/>
<path d="M14.5394 38.1708L14.8021 37.728L14.6215 37.3754L14.2685 37.728L14.0058 37.2852V36.58L14.6297 36.4898L14.8924 36.047V35.3418L14.7118 34.8088L14.2685 34.5464L14.0058 34.9892L13.8251 35.5222L13.6445 36.0552V37.4738L13.8251 38.0068L14.2685 38.2692L14.5312 38.179L14.5394 38.1708Z" fill="#000101"/>
<path d="M18.8018 38.1708L19.1548 37.8182L19.3354 37.2852V35.1614L19.0727 34.7186L18.6294 34.6284L18.2763 34.981L18.0957 35.514V37.6378L18.3584 38.0806L18.8018 38.1708Z" fill="#000101"/>
<path d="M20.3926 38.1711L20.9263 37.9907V37.2855L21.0166 36.6623L21.1069 36.0391V34.6205L20.7539 34.8009V36.9247L20.5732 37.4577L20.2202 37.6381L20.0396 37.1051L20.2202 36.5721V35.1535L20.1299 34.5303L19.8672 34.9731V37.8103L20.1299 38.2531L20.3926 38.1629V38.1711Z" fill="#000101"/>
<path d="M21.814 37.9908V37.2856L21.9946 36.7526V36.0474L22.0849 35.4242L22.5282 35.1618L22.4379 34.5386L21.9946 34.6288L21.6416 34.8092V36.933L21.4609 37.466L21.5512 38.0892L21.814 37.999V37.9908Z" fill="#000101"/>
<path d="M23.4057 38.1708L23.7587 37.8182L23.5781 37.4656L23.2251 37.646L23.0444 37.113V36.4078L23.1347 35.7846L23.3154 35.2516L23.849 35.432L23.9393 34.8088L23.496 34.5464L23.0526 34.8088L22.872 35.3418L22.6914 35.8748V37.2934L22.872 37.8264L23.1347 38.2692L23.3975 38.179L23.4057 38.1708Z" fill="#000101"/>
<path d="M25.18 38.1708L25.4428 37.728L25.2621 37.3754L24.9091 37.728L24.6464 37.2852V36.58L25.2704 36.4898L25.5331 36.047V35.3418L25.3525 34.8088L24.9091 34.5464L24.6464 34.9892L24.4658 35.5222L24.2852 36.0552V37.4738L24.4658 38.0068L24.9091 38.2692L25.1718 38.179L25.18 38.1708Z" fill="#000101"/>
<path d="M29.6143 38.1708L29.9673 37.8182L30.1479 37.2852V35.1614L29.8852 34.7186L29.4419 34.6284L29.0888 34.981L28.9082 35.514V37.6378L29.0888 38.1708H29.6225H29.6143Z" fill="#000101"/>
<path d="M31.7401 37.9908V37.2856L31.9207 36.7526V35.334L31.7401 34.801L31.3871 34.6206L31.034 34.801H30.8534L30.6728 35.334V37.4578L30.4922 37.9908L30.8452 37.8104V37.1052L31.0258 36.5722V35.867L31.2065 35.334L31.5595 35.5144V36.933L31.4692 37.5562V38.0892L31.7319 37.999L31.7401 37.9908Z" fill="#000101"/>
<path d="M33.5131 37.9908V37.2856L33.6035 36.6624L33.6938 36.0392V35.334L33.5131 34.801L33.0698 34.5386L32.8071 34.801L32.5444 34.7108L32.4541 35.334V36.7526L32.2734 37.2856V37.9908L32.6265 37.8104V37.1052L32.8071 36.5722V35.867L32.9877 35.334L33.3407 35.5144V36.933L33.1601 37.466L33.2504 38.0892L33.5131 37.999V37.9908Z" fill="#000101"/>
<path d="M34.9339 38.1712L35.287 37.8186L35.0243 37.3758L34.5809 37.466L34.4003 36.933L34.663 36.4902L35.287 36.4L35.4676 35.867L35.3773 35.2438L35.1967 34.7108L34.7533 34.6206L34.4003 34.9732L34.2197 35.5062L34.1294 36.1294L34.0391 36.7526L34.1294 37.3758L34.31 37.9088L34.663 38.2614L34.9257 38.1712H34.9339Z" fill="#000101"/>
<path d="M36.5351 38.1711L36.7157 37.6381L36.453 37.5479H36.1L36.0097 36.9247V36.2195L36.1903 35.6865L36.453 35.2437L36.8964 35.3339L36.806 34.7107L36.2724 34.5303L36.0097 34.9731L35.8291 35.5061L35.6484 36.0391V37.4577L35.8291 37.9907L36.2724 38.2531L36.5351 38.1629V38.1711Z" fill="#000101"/>
<path d="M38.8335 37.9904V35.8666L39.0141 35.3336V34.6284L38.6611 34.8088V35.514L38.4805 36.047V37.4656L38.5708 38.0888L38.8335 37.9986V37.9904Z" fill="#000101"/>
<path d="M39.9 37.9906L40.0807 37.4576L40.2613 36.9246L40.3516 36.3014L40.4419 35.6782L40.6225 35.1452L40.5322 34.522L40.2695 34.9648L40.1792 35.588L40.0889 36.2112L39.8261 36.654L39.7358 36.0308V35.3256L39.6455 34.7024L39.3828 34.7926V35.4978L39.4731 36.121L39.5634 36.7442V37.4494L39.6537 38.0726L39.9165 37.9824L39.9 37.9906Z" fill="#000101"/>
<path d="M41.1405 37.9904V37.2852L41.3212 36.7522V34.6284L41.1405 34.981L40.9599 35.514V36.9326L40.8696 37.3754L40.7793 37.8182L41.1323 37.9986L41.1405 37.9904Z" fill="#000101"/>
<path d="M43.2667 39.229L43.4473 38.696V37.9908L43.6279 37.4578L43.8086 36.9248L43.9892 36.3918V35.6866L44.1698 35.1536L44.3504 34.6206L43.9974 34.801L43.8168 35.334L43.6361 35.867V36.5722L43.4555 36.2196L43.2749 35.6866V34.9814L43.0122 34.5386L42.9219 35.1618L43.1025 35.6948V37.1134L43.2831 37.6464L43.1025 38.1794L43.0122 38.8026V39.3356L43.2749 39.2454L43.2667 39.229Z" fill="#000101"/>
<path d="M11.9697 36.3097L11.707 35.8669L11.7973 35.2437L12.0601 35.3339L12.1504 35.7767L11.9697 36.3097Z" fill="#000101"/>
<path d="M18.7109 37.5479L18.3579 37.1953L18.2676 36.5721L18.4482 36.0391L18.5385 35.4159L18.9818 35.3257L19.1625 35.8587L18.9818 36.3917V37.0969L18.7191 37.5397L18.7109 37.5479Z" fill="#000101"/>
<path d="M29.5234 37.5479L29.1704 37.1953L29.0801 36.5721L29.2607 36.0391L29.351 35.4159L29.7943 35.3257L29.975 35.8587L29.7943 36.3917V37.0969L29.5316 37.5397L29.5234 37.5479Z" fill="#000101"/>
<path d="M56.3942 27.5437V16.9165L57.0182 16.8263L57.3712 16.4737L57.7242 16.8263L58.2579 16.6459L58.5206 16.2031L58.7012 15.6701V13.5463L58.6109 12.9231L58.7012 12.4803L59.1445 12.5705L59.7685 12.4803L60.1215 12.1277L60.3021 11.5947V9.47088L60.2118 8.84768L60.3925 8.49508L60.7455 8.14248L61.0082 7.69968V4.86248L60.7455 4.41968L60.3925 4.06708L59.9491 3.97688L59.5961 4.15728L59.1528 3.89488L58.5288 3.80468L58.7094 3.27168V1.14788L58.5288 0.614884L58.3482 0.0818836L57.7242 -0.00831641L57.2809 0.0818836L56.6569 -0.00831641H51.6899L51.1563 0.172084L51.2466 0.614884L51.0659 1.14788L51.1563 1.77108L51.2466 2.39428L51.0659 2.04168L50.8032 1.59888L50.5405 1.15608L50.1875 0.803484L49.8345 0.450884L49.4814 0.0982836L48.8575 0.00808359H46.7311L46.1071 0.0982836L45.9265 0.631284V14.0957H45.7459L45.5653 13.5627V12.8575L45.3847 12.3245L44.851 12.1441L44.2271 12.0539L43.6031 11.9637V2.03348L43.5128 1.41028L43.4225 0.787084L43.2419 0.254084L42.7985 -0.00831641H42.0925L41.4685 0.0818836L41.2879 0.614884V14.0793L40.8445 14.3417L40.2206 14.2515L40.4012 13.7185L40.5818 13.1855L40.7624 12.6525L40.8528 12.0293L40.9431 11.4061V10.7009L41.1237 10.1679V6.62548L41.0334 6.00228L40.9431 5.37908V4.67388L40.7624 4.14088L40.5818 3.60788L40.4012 3.07488L40.2206 2.54188L40.04 2.00888L39.8594 1.47588L39.5966 1.03308L39.2436 0.680484L38.8906 0.327884L38.4472 0.0654836L37.8233 -0.0247164H37.1172L36.6739 0.237684L36.2306 0.500084L35.8775 0.852683L35.6148 1.29548L35.3521 1.73828L35.0894 2.18108L34.9087 2.71408L34.7281 3.24708L34.6378 3.87028L34.5475 4.49348L34.3669 5.02648V5.73168L34.2766 6.35488L34.1863 6.97808V9.81528L34.2766 10.4385L34.3669 11.0617V11.7669L34.5475 12.2999L34.6378 12.9231L34.7281 13.5463L34.9908 13.9891L34.8102 14.3417H34.1042L34.0139 13.7185V0.975684L33.8332 0.442684L33.5705 -0.000116408H32.1502L31.8875 0.442684L31.7069 0.975684V5.22328L31.4441 5.66608H30.7381L30.2948 5.40368V1.14788L30.2044 0.524684L29.9417 0.0818836L29.3178 -0.00831641H28.6117L28.1684 0.254084L28.0781 0.877284L27.9878 1.50048V14.2515H27.4541L27.6347 13.7185V13.0133L27.8153 12.4803V9.64308L27.6347 9.11008V8.40488L27.4541 7.87188L27.2735 7.33888L27.0108 6.89608L26.748 6.45328L26.395 6.10068L26.042 5.74808L25.689 5.39548L25.3359 5.04288L25.5987 4.60008L25.9517 4.95268L26.3047 5.30528L26.748 5.39548L27.1011 5.04288L27.2817 4.50988L27.4623 3.97688L27.6429 3.44388V2.02528L27.4623 1.49228L27.2817 0.959283L26.9287 0.606684L26.5756 0.254084L26.1323 -0.00831641H25.4262L24.8023 0.0818836L24.3589 0.344284L24.0962 0.787084L23.7432 1.13968L23.5626 1.67268L23.382 2.20568L23.2013 2.73868V3.44388L23.111 4.06708L23.0207 4.69028V6.81408L23.2013 7.34708V8.05228L23.382 8.58528L23.5626 9.11828L23.8253 9.56108L24.088 10.0039L24.441 10.3565L24.7941 10.7091L25.2374 10.9715L25.5001 11.4143L25.5904 11.8571L25.0568 12.0375L24.7038 11.6849L24.441 11.2421L23.9977 10.9797L23.4641 11.1601L23.2013 11.6029L23.111 12.2261L23.0207 12.8493L22.758 12.5869L22.405 12.2343L21.8713 12.0539H21.1653L20.5413 11.9637V10.5451L21.1653 10.4549H21.8713L22.2244 10.1023L22.3147 9.47908L22.4953 8.94608V7.52748L22.3147 6.99448V6.28928L21.9616 5.93668L21.5183 5.67428H20.8122L20.5495 5.23148L20.6398 4.60828H22.0602L22.5938 4.42788L22.8565 3.98508L22.9468 3.36188L23.0371 2.73868V1.32008L22.8565 0.787084L22.7662 0.163884L22.2326 -0.0165164H18.6859L18.4231 0.426284V1.13148L18.2425 1.66448V13.7103L18.1522 14.3335L17.8895 13.8907L17.7089 13.3577L17.6186 12.7345L17.5283 12.1113L17.3476 11.5783L17.167 11.0453L17.0767 10.4221L16.9864 9.79888L17.167 9.26588L17.3476 8.73288L17.5283 8.19988V7.49468L17.7089 6.96168V4.12448L17.6186 3.50128L17.5283 2.87808L17.3476 2.34508L17.2573 1.72188L16.9946 1.27908L16.7319 0.836284L16.4692 0.393484L16.0258 0.131084L15.4922 -0.0493164H13.3658L12.8322 0.131084L12.7419 0.754284L12.5612 1.28728V14.0383L12.1179 14.3007L11.8552 13.8579V0.442684L11.5925 -0.000116408H10.1721L9.7288 0.262284V0.967484L9.54818 1.50048V5.04288L9.45787 5.66608H8.75182L8.12786 5.57588V0.623084L7.94724 0.0900836L7.32328 -0.000116408H6.61723L6.08358 0.180284L5.99327 0.803484L5.81265 1.15608V0.450884L5.54993 0.00808359H0.623957L0.0903096 0.180284L0 0.803484V3.64068L0.180619 4.17368L0.443338 4.61648H1.14939L1.77335 4.70668V13.9153L1.51063 14.3581H0.0903096L0 14.9813V27.0271L0.0903096 27.6503H56.1315L56.3942 27.5601V27.5437Z" fill="#FEFEFE"/>
<path d="M51.8705 5.49415L51.7802 4.87095L51.5996 4.33795L51.7802 3.98535L51.9608 4.51835V5.22355L51.8705 5.48595V5.49415Z" fill="#FEFEFE"/>
<path d="M5.76312 14.3498H4.3428L4.08008 13.907V4.69023L4.70404 4.60003H5.41009L5.67281 4.15723L5.85343 4.50983V13.7184L5.76312 14.3416V14.3498Z" fill="#FEFEFE"/>
<path d="M15.1631 6.73223L14.9004 6.28943V4.87083L15.2534 4.69043L15.434 5.22343L15.6147 5.75643L15.434 6.28943L15.1713 6.73223H15.1631Z" fill="#FEFEFE"/>
<path d="M48.8569 12.0457H48.1509L48.0605 11.4225V5.0429L48.3233 4.6001L48.9472 4.6903L49.2099 5.1331L49.4727 5.5759L49.563 6.1991L49.6533 6.8223V8.5935L49.7436 9.0363L49.6533 9.6595V10.3647L49.4727 10.8977L49.292 11.4307L49.0293 11.8735L48.8487 12.0539L48.8569 12.0457Z" fill="#FEFEFE"/>
<path d="M37.8636 11.6933L37.33 11.5129L36.9769 11.1603L36.7963 10.6273L36.706 10.0041L36.5254 9.4711V7.3473L36.706 6.8143V6.1091L36.9687 5.6663L37.2314 5.2235L37.8554 5.1333L38.2987 5.3957L38.4794 5.9287L38.66 6.4617L38.8406 6.9947V9.8319L38.66 10.3649L38.4794 10.8979L38.2166 11.3407L37.8636 11.6933Z" fill="#FEFEFE"/>
<path d="M52.0512 9.3891L51.9609 8.7659V8.0607L52.0512 7.4375L52.1416 8.0607V8.7659L52.0512 9.3891Z" fill="#FEFEFE"/>
<path d="M9.49017 14.3501H8.78411L8.16016 14.2599V10.7175L8.60349 10.4551H9.30955L9.57227 10.8979V13.7351L9.48196 14.3583L9.49017 14.3501Z" fill="#FEFEFE"/>
<path d="M31.6581 14.3501H30.9521L30.3281 14.2599V10.7175L30.7715 10.4551H31.4775L31.7402 10.8979V13.7351L31.6499 14.3583L31.6581 14.3501Z" fill="#FEFEFE"/>
<path d="M15.3359 14.3499L14.8926 14.0875V12.6689H15.0732L15.1635 13.2921L15.2538 13.9153L15.3441 14.3581L15.3359 14.3499Z" fill="#FEFEFE"/>
<path d="M50.0069 40.9998V31.0778L49.9166 30.4546H0.977028L0.886719 31.0778V40.9998H50.0069Z" fill="#FEFEFE"/>
<path d="M33.0693 14.8746H32.3633L31.9199 14.6122V8.94601L32.1005 8.59341V9.29861H32.2812L32.9051 9.20841L32.9954 9.83161L33.176 10.1842V0.262207L33.3567 0.614807V13.3658L33.176 13.8988V14.604L33.0857 14.8664L33.0693 14.8746Z" fill="#045A93"/>
<path d="M9.84422 6.01888L9.75391 5.39568V1.86148L9.84422 1.23828L9.93453 1.86148V5.40388L9.84422 6.02708V6.01888Z" fill="#045A93"/>
<path d="M29.5239 6.01879L29.4336 5.39559V1.86139L29.6142 1.50879V5.75639L29.5239 6.01879Z" fill="#045A93"/>
<path d="M41.4106 9.74136L41.3203 9.11816V2.03336L41.4106 1.41016L41.5009 2.03336V9.11816L41.4106 9.74136Z" fill="#045A93"/>
<path d="M22.0765 14.8747H18.5298L18.4395 14.2515V2.21387H18.6201V9.29867L18.8007 9.65127L19.0634 9.20847L19.5067 9.47087L19.6874 9.82347V9.11827L19.7777 8.49507L19.868 9.11827V11.9555L20.1307 12.3983H21.551L22.175 12.4885V14.6123L22.0847 14.8747H22.0765Z" fill="#045A93"/>
<path d="M7.3554 14.8749H6.64935L6.02539 14.7847V2.74713L6.20601 2.39453V9.47933L6.38663 9.83193L6.47694 9.20873L7.10089 9.29893H7.28151V8.59373L7.46213 8.94633V14.6125L7.37182 14.8749H7.3554Z" fill="#045A93"/>
<path d="M3.10252 14.8749H2.39646L1.95312 14.6125V8.23287L2.13374 8.58547L2.22405 9.20867H2.93011L3.02042 9.83187L3.20104 10.1845V3.09967L3.38166 2.74707V11.9557L3.20104 12.4887V14.6125L3.11073 14.8749H3.10252Z" fill="#045A93"/>
<path d="M14.9824 7.08487H14.2764L14.0137 6.64207V3.09967L14.1943 2.74707V6.28947L14.2846 6.91267H14.9907V7.09307L14.9824 7.08487Z" fill="#045A93"/>
<path d="M19.77 6.01903L19.6797 5.39583V3.27203L19.8603 2.91943V5.75663L19.77 6.01903Z" fill="#045A93"/>
<path d="M16.938 5.66637L16.8477 5.04317V3.62457L17.0283 3.27197V5.39577L16.938 5.65817V5.66637Z" fill="#045A93"/>
<path d="M48.8567 14.8749H46.0161L45.9258 14.2517V5.05133L46.1064 4.69873V8.94633L46.1967 9.56953L46.5497 9.21693L46.9931 9.47933L47.1737 9.12673V8.42153L47.3543 8.06893V12.3165L47.9783 12.4067L48.6022 12.3165L49.0456 12.0541L49.3083 11.6113L49.4889 11.0783L49.6695 10.5453L49.8501 10.0123V6.46993L50.0308 6.82253V8.94633L50.4741 9.20873L50.9174 9.47113L51.0981 10.0041V10.7093L50.9174 11.2423L50.7368 11.7753L50.5562 12.3083L50.3756 12.8413L50.195 13.3743L49.9322 13.8171L49.6695 14.2599L49.2262 14.5223L48.8732 14.8749H48.8567Z" fill="#045A93"/>
<path d="M35.729 9.38924L35.6387 8.76604V6.64224L35.729 6.01904L35.8193 6.64224V8.76604L35.729 9.38924Z" fill="#045A93"/>
<path d="M40.3442 8.85589L40.2539 8.23269V6.10889L40.4345 6.46149V8.58529L40.3442 8.84769V8.85589Z" fill="#045A93"/>
<path d="M11.0839 14.8746H10.3779L9.75391 14.7844V9.11822L9.84422 8.49502L9.93453 9.11822V9.82342H10.1151L10.2055 9.20022L10.8294 9.29042L11.01 9.64302V6.80582L11.1003 6.18262L11.1906 6.80582V14.5958L11.1003 14.8582L11.0839 14.8746Z" fill="#045A93"/>
<path d="M29.5234 14.8749H28.8173L28.1934 14.7847V6.99469L28.374 6.64209V8.76589L28.4643 9.38909L28.9979 9.20869L29.2607 9.65149L29.4413 10.0041V8.58549L29.6219 8.93809V14.6043L29.5316 14.8667L29.5234 14.8749Z" fill="#045A93"/>
<path d="M17.2897 14.875H16.5837L15.9597 14.7848L15.7791 14.2518L15.5985 13.7188V13.0136L15.4178 12.4806L15.2372 11.9476L15.0566 11.4146V10.7094L14.876 10.1764L14.9663 9.73363L14.7036 9.64343H14.1699V11.7672L13.9893 12.3002V14.424L13.7266 14.8668H13.0205L12.7578 14.424V8.04443L12.9384 8.39703V9.10223L13.5624 9.19243L14.096 9.37283L14.72 9.28263L15.344 9.19243L15.8776 9.37283L16.1403 9.63523L16.3209 9.98783L16.4112 10.2502L16.5016 10.8734L16.6822 11.4064L16.8628 11.9394L16.9531 12.5626L17.0434 13.1858L17.224 13.7188L17.4047 14.2518L17.3143 14.875H17.2897Z" fill="#045A93"/>
<path d="M37.8641 14.8749H37.158L36.6244 14.6945L36.181 14.4321L35.828 14.0795L35.5653 13.6367L35.3026 13.1939L35.1219 12.6609L34.9413 12.1279L34.7607 11.5949L34.6704 10.9717L34.5801 10.3485L34.7607 9.81551L34.851 9.19231L35.475 9.28251L35.6556 9.81551H35.8362L36.0168 10.1681L36.1974 10.7011L36.3781 11.2341L36.7311 11.5867L37.1744 11.8491H37.8805L38.2335 11.4965L38.4962 11.0537L38.6768 10.5207L38.8575 9.98771L39.0381 9.45471V8.74951L39.2187 9.10211L39.8427 9.19231L40.1054 9.63511L40.286 10.1681L40.1054 10.7011L40.0151 11.3243L39.9248 11.9475L39.7441 12.4805L39.5635 13.0135L39.3008 13.4563L39.0381 13.8991L38.6851 14.2517L38.332 14.6043L37.8887 14.8667L37.8641 14.8749Z" fill="#045A93"/>
<path d="M44.7762 14.875H41.9355L41.4922 14.6126V10.365L41.6728 9.83202L41.7631 9.20882L42.3871 9.29902L42.6498 9.03662L42.7401 9.65982V11.7836L42.8304 12.4068H44.2507L44.8747 12.497V14.6208L44.7844 14.8832L44.7762 14.875Z" fill="#045A93"/>
<path d="M25.4516 14.8749H24.7455L24.2119 14.6945L23.8589 14.3419L23.5058 13.9893L23.2431 13.5465L23.0625 13.0135L23.2431 12.4805L23.4237 11.9475L23.514 11.3243H23.8671L24.1298 11.7671L24.4828 12.1197L24.9262 12.3821L25.4598 12.2017L25.7225 11.7589V10.3403L25.9031 9.80728L25.6404 9.36448L25.9935 9.18408H26.6995L26.7898 9.80728L26.9704 10.1599V9.45468L27.1511 9.80728V10.5125L26.9704 11.0455V11.7507L26.7898 12.2837L26.6995 12.9069L26.5189 13.4399L26.2562 13.8827L25.9935 14.3255L25.6404 14.6781L25.4598 14.8585L25.4516 14.8749Z" fill="#045A93"/>
<path d="M4.69609 25.6826H3.99003L3.5467 25.4202L3.36608 24.8872L3.18546 24.3542L3.00484 23.8212L2.91453 23.198L2.82422 22.5748V20.451L3.00484 19.918L3.09515 19.2948L3.27577 18.7618L3.53849 18.319L3.8012 17.8762L4.33485 17.6958L4.77819 17.9582L5.13122 18.3108L5.31184 18.8438L5.04912 19.2866L4.69609 18.934L4.16244 18.7536L3.7191 19.016L3.53849 19.549L3.35787 20.082L3.26756 20.7052L3.17725 21.3284V22.747L3.35787 23.28L3.53849 23.813L3.7191 24.346L3.98182 24.7888L4.60578 24.6986L4.95881 24.346L5.22153 24.2558V24.7888L4.95881 25.2316L4.69609 25.6744V25.6826Z" fill="#045A93"/>
<path d="M7.53642 25.8626L7.09308 25.6002L6.74005 25.2476L6.55944 24.7146L6.37882 24.1816L6.1982 23.6486V22.9434L6.10789 22.3202L6.01758 21.697L6.1982 21.164V19.7454L6.37882 19.2124L6.55944 18.6794L6.82215 18.2366L7.17518 17.884L7.70883 17.7036L8.06186 18.0562L8.41489 18.4088L8.6776 18.8516L8.85822 19.3846V20.0898L9.03884 20.6228V22.7466L8.85822 23.2796V23.9848L8.6776 24.5178L8.49699 25.0508L8.14396 25.4034L7.70062 25.6658L7.52 25.8462L7.53642 25.8626Z" fill="#045A93"/>
<path d="M29.1699 25.8627L28.7265 25.6003L28.4638 25.1575L28.2011 24.7147L28.0205 24.1817L27.9302 23.5585L27.8398 22.9353V20.0981L28.0205 19.5651L28.2011 19.0321L28.3817 18.4991L28.6444 18.0563L29.0878 17.7939L29.5311 17.8841L29.9744 18.1465L30.1551 18.6795L30.0647 19.3027L29.7117 18.9501L29.1781 18.7697L28.7347 19.0321L28.5541 19.5651L28.3735 20.0981L28.1929 20.6311V22.7549L28.3735 23.2879L28.4638 23.9111L28.7265 24.3539L28.9892 24.7967L29.6132 24.7065L29.9662 24.3539H30.1468L30.2372 24.7967L29.9744 25.2395L29.7117 25.6823L29.1781 25.8627H29.1699Z" fill="#045A93"/>
<path d="M41.0492 25.6826H40.3432L39.9901 25.33L39.7274 24.8872L39.5468 24.3542L39.3662 23.8212L39.1855 23.2882V20.451L39.3662 19.918L39.4565 19.2948L39.6371 18.7618L39.8998 18.319L40.1625 17.8762L40.6962 17.6958L41.1395 17.9582L41.4925 18.3108L41.6732 18.8438L41.8538 19.3768L42.0344 19.9098V23.4522L41.8538 23.9852L41.6732 24.5182L41.4925 25.0512L41.2298 25.494L41.0492 25.6744V25.6826Z" fill="#045A93"/>
<path d="M47.7904 25.6826L47.1665 25.5924L46.8134 25.2398L46.6328 24.7068L46.7231 24.0836L46.9858 24.5264L47.4292 24.7888L47.8725 24.5264L48.0531 23.9934L48.2338 23.4604L48.0531 22.9274L47.8725 22.3944L47.5195 22.0418L47.1665 21.6892L46.9037 21.2464L46.8134 20.6232V19.918L46.7231 19.4752L46.8134 18.852L46.9941 18.319L47.2568 17.8762L47.7904 17.6958L48.1434 18.0484L48.4062 18.4912L48.3159 19.1144L47.8725 18.852H47.3389L47.1582 19.385L46.9776 19.918L47.1582 20.451L47.421 20.8938L47.774 21.2464L48.127 21.599L48.3897 22.0418V22.747L48.5704 23.28L48.3897 23.813V24.5182L48.2091 25.0512L47.9464 25.494L47.7658 25.6744L47.7904 25.6826Z" fill="#045A93"/>
<path d="M13.2104 25.6825L12.9477 25.2397V20.2787H12.7671L12.5865 20.8117L12.4058 21.3447V22.0499L12.2252 22.5829L12.0446 23.1159L11.9543 23.7391L11.864 24.3623L11.511 24.1819L11.3303 23.6489L11.24 23.0257L11.1497 22.4025L10.9691 21.8695L10.7885 21.3365V20.6313L10.6079 20.0983H10.4272V25.0593L10.3369 25.6825L10.0742 25.2397V18.1549L10.4272 17.9745L10.6079 18.5075L10.7885 19.0405V19.7457L10.9691 20.2787L11.1497 20.8117L11.24 21.4349L11.3303 22.0581L11.511 22.5911L11.6916 22.9437L11.8722 22.4107L12.0528 21.8777V21.1725L12.2334 20.6395L12.4141 20.1065L12.5044 19.4833L12.5947 18.8601L12.7753 18.3271L13.038 17.8843L13.3007 18.3271V25.4119L13.2104 25.6743V25.6825Z" fill="#045A93"/>
<path d="M17.4712 25.6824L17.3809 25.0592V20.0982L17.0279 20.2786V20.9838L16.8473 21.5168L16.6666 22.0498V22.755L16.486 23.288L16.3054 23.821L16.2151 24.4442L15.8621 24.0916L15.7717 23.4684L15.5911 22.9354L15.5008 22.3122L15.4105 21.689L15.2299 21.156L15.0493 20.623L14.959 19.9998L14.8687 20.623V25.584L14.5156 25.4036V18.3188L14.7783 17.876L15.0411 18.3188L15.1314 18.942L15.2217 19.5652L15.4023 20.0982L15.4926 20.7214L15.5829 21.3446L15.7635 21.8776L15.9442 22.4106L16.0345 23.0338L16.2972 22.591V21.8858L16.4778 21.3528L16.6584 20.8198L16.7487 20.1966L16.839 19.5734L17.0197 19.0404L17.2003 18.5074L17.2906 17.8842L17.7339 18.1466L17.5533 18.6796V25.0592L17.463 25.6824H17.4712Z" fill="#045A93"/>
<path d="M20.1303 25.863L19.6869 25.6006L19.3339 25.248L19.1533 24.715L18.9727 24.182V18.5158L19.063 17.8926L19.3257 18.3354V23.2964L19.416 23.9196L19.5966 24.4526L19.9496 24.8052L20.4833 24.6248L20.746 24.182V23.4768L20.9266 22.9438V17.9828L21.2797 18.1632V23.8294L21.099 24.3624L20.9184 24.8954L20.7378 25.4284L20.2945 25.6908L20.1138 25.8712L20.1303 25.863Z" fill="#045A93"/>
<path d="M24.9176 25.6824L24.6549 25.2396L24.4743 24.7066L24.2937 24.1736L24.1131 23.6406L23.9324 23.1076L23.7518 22.5746L23.5712 22.0416L23.4809 21.4184L23.3003 20.8854L23.21 20.2622L22.8569 20.0818V25.0428L22.7666 25.666L22.5039 25.2232V18.1384L22.8569 17.958L23.0376 18.491L23.2182 19.024L23.3988 19.557L23.5794 20.09L23.76 20.623L23.8503 21.2462L24.031 21.7792L24.2116 22.3122L24.3019 22.9354L24.4825 23.4684L24.6631 23.1158V18.1548L25.0162 17.9744V25.0592L24.9258 25.6824H24.9176Z" fill="#045A93"/>
<path d="M26.5108 25.6826L26.248 25.2398V18.155L26.6011 17.9746V25.0594L26.5108 25.6826Z" fill="#045A93"/>
<path d="M33.6042 25.6826L33.1609 25.4202V24.715L32.9803 24.182L32.89 23.5588H32.1839L31.56 23.649L31.4697 24.2722L31.3794 24.8954L31.289 25.5186L30.8457 25.6088L31.0263 25.0758V24.3706L31.2069 23.8376V23.1324L31.3876 22.5994V21.8942L31.5682 21.3612L31.6585 20.738L31.7488 20.1148L31.8391 19.4916L31.9294 18.8684L32.11 18.3354L32.3728 17.8926L32.6355 18.3354V19.0406L32.8161 19.5736V20.2788L32.9967 20.8118V21.517L33.1773 22.05V22.7552L33.358 23.2882V23.9934L33.5386 24.5264L33.6289 25.1496V25.6826H33.6042Z" fill="#045A93"/>
<path d="M35.5566 25.6826L35.1132 25.4202V19.0406L34.6699 18.7782L34.2266 18.5158L34.3169 17.8926H36.4433L36.5336 18.5158L36.0902 18.7782L35.6469 19.0406V25.4202L35.5566 25.6826Z" fill="#045A93"/>
<path d="M37.8643 25.6826L37.6016 25.2398V18.155L37.9546 17.9746V25.0594L37.8643 25.6826Z" fill="#045A93"/>
<path d="M45.484 25.6824L45.2213 25.2396L45.0407 24.7066L44.8601 24.1736L44.6795 23.6406L44.4988 23.1076L44.3182 22.5746L44.2279 21.9514L44.0473 21.4184L43.957 20.7952L43.7764 20.2622L43.4233 20.0818V25.0428L43.333 25.666L43.0703 25.2232V18.1384L43.4233 17.958L43.604 18.491L43.7846 19.024L43.9652 19.557L44.1458 20.09L44.3264 20.623L44.5071 21.156L44.5974 21.7792L44.778 22.3122L44.8683 22.9354L45.0489 23.4684L45.2295 23.1158V18.1548L45.5826 17.9744V25.0592L45.4923 25.6824H45.484Z" fill="#045A93"/>
<path d="M7.79869 24.7067L8.15172 24.3541L8.33234 23.8211L8.51296 23.2881L8.69358 22.7551V21.3365L8.60327 20.7133L8.51296 20.0901L8.33234 19.5571L8.15172 19.0241L7.70839 18.7617L7.17474 18.9421L6.91202 19.3849L6.7314 19.9179L6.55078 20.4509V23.2881L6.7314 23.8211L6.91202 24.3541L7.26505 24.7067H7.79869Z" fill="#045A93"/>
<path d="M40.9676 24.7067L41.3206 24.3541L41.5012 23.8211L41.6819 23.2881V20.4509L41.5012 19.9179L41.3206 19.3849L41.0579 18.9421L40.5243 18.7617L40.0809 19.0241L39.9003 19.5571L39.7197 20.0901L39.5391 20.6231V22.7469L39.7197 23.2799L39.81 23.9031L40.0727 24.3459L40.3354 24.7887L40.9594 24.6985L40.9676 24.7067Z" fill="#045A93"/>
<path d="M32.8079 22.583V21.8778L32.6273 21.3448V20.6396L32.4467 20.1066L32.3564 19.4834L32.0937 19.9262V20.6314L31.913 21.1644V21.8696L31.7324 22.4026L32.1758 22.665L32.7997 22.5748L32.8079 22.583Z" fill="#045A93"/>
<path d="M5.05736 0.1804H0.796388L0.443359 0H4.69612L5.04915 0.1804H5.05736Z" fill="#303F48"/>
<path d="M15.1634 0.1804H13.7431L13.1191 0.0902L13.7431 0H15.1634V0.1804Z" fill="#303F48"/>
<path d="M22.0765 0.1804H19.2358L18.8828 0H21.7235L22.0765 0.1804Z" fill="#303F48"/>
<path d="M48.6772 0.1804H46.5508V0H48.6772V0.1804Z" fill="#303F48"/>
<path d="M56.6565 0.1804H51.6895V0H56.6565V0.1804Z" fill="#303F48"/>
<path d="M22.2563 2.65665L22.166 2.03345V0.623047H22.3466V2.04165L22.2563 2.66485V2.65665Z" fill="#303F48"/>
<path d="M56.6567 2.30414L56.5664 1.68094V0.975739L56.6567 0.352539L56.747 0.975739V1.68094L56.6567 2.30414Z" fill="#303F48"/>
<path d="M30.2368 5.66625L30.1465 5.04305V1.50885L30.3271 1.15625V5.40385L30.2368 5.66625Z" fill="#303F48"/>
<path d="M33.9555 14.3502L33.8652 13.727V1.68115H34.0459V13.727L33.9555 14.3502Z" fill="#303F48"/>
<path d="M56.656 2.65696H52.4033L51.7793 2.56676L52.4033 2.47656H56.656V2.65696Z" fill="#303F48"/>
<path d="M58.964 4.78052L58.7833 4.24752H52.396L52.043 4.06712H58.4303L58.964 3.88672L59.0543 4.50992L58.964 4.77232V4.78052Z" fill="#303F48"/>
<path d="M1.86368 14.5224H0.443359V14.342H1.14942L1.77337 14.2518V5.05142L1.86368 4.42822L1.95399 5.05142V14.26L1.86368 14.5224Z" fill="#303F48"/>
<path d="M17.643 6.37982L17.5527 5.75662V5.05142L17.643 4.42822L17.7334 5.05142V5.75662L17.643 6.37982Z" fill="#303F48"/>
<path d="M3.9907 14.1697L3.90039 13.5465V5.05133L4.08101 4.69873V13.9073L3.9907 14.1697Z" fill="#303F48"/>
<path d="M60.9184 7.43737L60.8281 6.81417V5.39557L61.0087 5.04297V7.16677L60.9184 7.42917V7.43737Z" fill="#303F48"/>
<path d="M41.0493 9.92187L40.959 9.29867V7.17487L41.1396 6.82227V9.65947L41.0493 9.92187Z" fill="#303F48"/>
<path d="M36.4438 9.3891L36.3535 8.7659V8.0607L36.4438 7.4375L36.5341 8.0607V8.7659L36.4438 9.3891Z" fill="#303F48"/>
<path d="M58.258 8.85598L58.0774 8.32298H52.4043L52.7573 8.14258H57.7243L58.3483 8.23278L58.258 8.85598Z" fill="#303F48"/>
<path d="M9.66349 8.67552H7.53711L7.89014 8.49512H9.31046L9.66349 8.67552Z" fill="#303F48"/>
<path d="M21.5434 8.67552H20.123V8.49512H21.5434V8.67552Z" fill="#303F48"/>
<path d="M31.8295 8.67552H29.7031L30.0562 8.49512H31.4765L31.8295 8.67552Z" fill="#303F48"/>
<path d="M41.4106 14.8747L41.0576 14.5221H40.3516L40.7046 14.3417L41.3285 14.2515V10.0039H41.5092V14.2515L41.4189 14.8747H41.4106Z" fill="#303F48"/>
<path d="M9.66251 10.447H8.24219L8.59522 10.2666H9.30127L9.6543 10.447H9.66251Z" fill="#303F48"/>
<path d="M58.2585 10.8074H52.5855L52.2324 10.627H57.9055L58.2585 10.2744V10.8074Z" fill="#303F48"/>
<path d="M30.2368 14.3501L30.1465 13.7269V10.8897L30.3271 10.5371V14.0795L30.2368 14.3419V14.3501Z" fill="#303F48"/>
<path d="M14.0962 14.8749L14.0059 14.2517V12.1279H14.1865V14.2517L14.0962 14.8749Z" fill="#303F48"/>
<path d="M3.28367 14.875L3.19336 14.2518V12.8332L3.28367 12.21L3.37398 12.8332V14.2518L3.28367 14.875Z" fill="#303F48"/>
<path d="M22.2563 14.875L22.166 14.2518V12.8332L22.2563 12.21L22.3466 12.4724V14.5962L22.2563 14.8586V14.875Z" fill="#303F48"/>
<path d="M44.9575 13.989L44.8672 13.3658V12.6606L45.1299 12.2178L45.0396 12.6606V13.3658L44.9493 13.989H44.9575Z" fill="#303F48"/>
<path d="M56.6567 14.7026L56.5664 14.0794V13.3742L56.6567 12.751L56.747 13.3742V14.0794L56.6567 14.7026Z" fill="#303F48"/>
<path d="M33.2499 15.0551H32.5439L31.9199 14.9649L32.5439 14.8747L33.1678 14.7845V14.0793L33.2581 13.4561L33.3485 14.0793V14.7845L33.2581 15.0469L33.2499 15.0551Z" fill="#303F48"/>
<path d="M5.94467 14.5222H4.52435L3.90039 14.432L4.52435 14.3418H5.94467V14.5222Z" fill="#303F48"/>
<path d="M9.66251 14.5222H8.24219L8.59522 14.3418H9.30127L9.6543 14.5222H9.66251Z" fill="#303F48"/>
<path d="M31.8305 14.5222H30.4102L30.7632 14.3418H31.4692L31.8223 14.5222H31.8305Z" fill="#303F48"/>
<path d="M56.6574 15.0552H51.6904L51.0664 14.965L51.1567 14.3418L51.3373 14.8748H56.3044L56.6574 15.0552Z" fill="#303F48"/>
<path d="M0.0903096 27.4537L0 26.8305V14.7847H0.180619V26.8305L0.0903096 27.4537Z" fill="#303F48"/>
<path d="M17.4706 15.0553H16.7646L16.1406 14.9651L16.7646 14.8749L17.3885 14.7847H17.5692L17.4788 15.0471L17.4706 15.0553Z" fill="#303F48"/>
<path d="M22.076 15.0554H18.5293L18.8823 14.875H21.723L22.076 15.0554Z" fill="#303F48"/>
<path d="M44.7777 15.0554H41.937L41.584 14.875H44.4246L44.7777 15.0554Z" fill="#303F48"/>
<path d="M48.5048 15.0554H46.3784L46.0254 14.875H48.1518L48.5048 15.0554Z" fill="#303F48"/>
<path d="M56.3032 27.4534L56.2129 26.8302V16.9082L56.3935 17.2608V27.1828L56.3032 27.4452V27.4534Z" fill="#303F48"/>
<path d="M18.8833 23.3783L18.793 22.7551V18.5075L18.8833 17.8843L18.9736 18.5075V22.7551L18.8833 23.3783Z" fill="#303F48"/>
<path d="M20.8364 23.3783L20.7461 22.7551V18.5075L20.8364 17.8843L20.9267 18.5075V22.7551L20.8364 23.3783Z" fill="#303F48"/>
<path d="M26.6899 25.6826L26.5996 25.0594V17.9746L26.7802 18.3272V25.412L26.6899 25.6744V25.6826Z" fill="#303F48"/>
<path d="M38.0376 25.6826L37.9473 25.0594V17.9746L38.1279 18.3272V25.412L38.0376 25.6744V25.6826Z" fill="#303F48"/>
<path d="M17.643 25.6825L17.5527 25.0593V18.6797L17.7334 18.3271V25.4119L17.643 25.6743V25.6825Z" fill="#303F48"/>
<path d="M12.8564 25.6824L12.7661 25.0592V20.8116L12.6758 20.3688L12.9385 20.1064V25.0674L12.8482 25.6906L12.8564 25.6824Z" fill="#303F48"/>
<path d="M17.2905 25.6823L17.2002 25.0591V20.8115L17.0195 20.2785L17.3726 20.0981V25.0591L17.2822 25.6823H17.2905Z" fill="#303F48"/>
<path d="M22.9634 25.6823L22.873 25.0591V20.0981L23.2261 20.2785L23.0455 20.8115V25.0591L22.9551 25.6823H22.9634Z" fill="#303F48"/>
<path d="M43.5376 25.6823L43.4473 25.0591V20.0981L43.8003 20.2785L43.6197 20.8115V25.0591L43.5294 25.6823H43.5376Z" fill="#303F48"/>
<path d="M3.28367 22.845L3.19336 22.2218V20.8032L3.37398 21.1558V22.5744L3.28367 22.8368V22.845Z" fill="#303F48"/>
<path d="M8.60398 22.845L8.51367 22.2218V20.8032L8.69429 21.1558V22.5744L8.60398 22.8368V22.845Z" fill="#303F48"/>
<path d="M42.1177 22.6732L42.0273 22.05V21.3448L42.208 20.9922V22.4108L42.1177 22.6732Z" fill="#303F48"/>
<path d="M49.834 40.9998V31.0778L49.9243 30.4546L50.0146 31.0778V40.9998H49.834Z" fill="#303F48"/>
<path d="M7.53607 38.2613L7.09273 37.9989L6.91211 37.4659L7.26514 37.2855L7.61817 37.4659L7.79878 36.9329V36.2277L7.44576 35.8751L7.18304 35.4323L7.09273 34.8091V34.1039L7.27335 33.5709L7.62638 33.2183L8.06971 33.3085L8.33243 33.7513L7.9794 33.9317L7.53607 34.0219L7.44576 34.6451L7.62638 35.1781L7.9794 35.5307L8.16002 36.0637V36.7689L8.06971 37.3921L7.88909 37.9251L7.53607 38.2777V38.2613Z" fill="#303F48"/>
<path d="M13.0381 38.0806L12.7754 37.6378L12.956 37.1048V34.981L13.1366 34.448V33.7428L13.2269 33.1196L13.4897 33.5624L13.3993 34.1856L13.309 34.8088V36.2274L13.2187 36.8506L13.1284 37.4738L13.0381 38.097V38.0806Z" fill="#303F48"/>
<path d="M16.937 38.261L16.4033 38.0806L16.1406 37.6378L16.4033 37.195L16.7564 37.5476L17.1094 37.195L17.1997 36.5718L17.0191 36.0388L16.6661 35.6862L16.4854 35.1532V34.448L16.5758 33.8248L16.8385 33.382L17.2818 33.1196L17.6348 33.4722L17.5445 33.915L17.2818 34.0052H16.9288L16.6661 34.448L16.8467 34.981L17.1997 35.3336L17.4624 35.7764L17.5527 36.3996V37.1048L17.3721 37.6378L17.1094 38.0806L16.9288 38.261H16.937Z" fill="#303F48"/>
<path d="M27.9301 38.261L27.3965 38.0806L27.1337 37.6378L26.9531 37.1048V34.981L27.1337 34.448L27.3144 33.915L27.5771 33.4722L27.9301 33.1196L28.4638 33.3L28.7265 33.7428L28.4638 34.1856L28.1107 33.833L27.6674 34.0954L27.4868 34.6284L27.3062 35.1614V36.58L27.4868 37.113L27.7495 37.5558L28.1928 37.2934H28.3734V37.646L28.1107 38.0888L27.9301 38.2692V38.261Z" fill="#303F48"/>
<path d="M37.6832 38.2612L37.4205 37.8184V35.6946L37.5108 35.2518L37.248 34.809L37.6011 34.4564V33.7512L37.9541 33.5708V34.276L38.2168 34.7188L38.1265 35.1616L37.7735 35.5142V36.9328L37.5929 37.4658L38.0362 37.7282L37.8556 38.0808L37.675 38.2612H37.6832Z" fill="#303F48"/>
<path d="M42.1172 38.2611L41.8544 37.8183V35.6945L41.6738 35.1615L41.9365 34.7187L42.0269 34.0955L42.2075 33.5625L42.3881 33.9151L42.2075 34.4481L42.5605 34.8007L42.2978 35.2435L42.2075 35.8667V36.5719L42.0269 37.1049L42.2896 37.5477V38.0807L42.109 38.2611H42.1172Z" fill="#303F48"/>
<path d="M8.95803 38.081L8.69531 37.6382V36.933L8.78562 36.3098L8.87593 35.6866V34.9814L9.13865 34.5386L9.22896 35.1618V35.867L9.04834 36.4V37.8186L8.95803 38.081Z" fill="#303F48"/>
<path d="M10.5489 38.081L10.2862 37.6382L10.4668 37.1052V35.6866L10.2041 35.2438L9.94138 35.6866V37.1052L9.76077 37.6382L9.49805 38.081L9.58836 37.6382V35.5144L9.76898 34.9814L9.94959 34.6288L10.3929 34.5386L10.746 34.8912L10.8363 35.5144V36.933L10.6557 37.466L10.5653 38.0892L10.5489 38.081Z" fill="#303F48"/>
<path d="M11.79 39.4996L11.2563 39.3192L11.166 38.696V37.9908L11.3466 37.4578V35.334L11.5273 34.801L11.9706 34.5386L12.4139 34.801L12.5042 35.2438L12.4139 35.867L12.2333 36.4L11.9706 36.8428L11.5273 37.1052L11.9706 37.3676L12.4139 37.63V38.3352L12.2333 38.8682L11.9706 39.311L11.79 39.4914V39.4996Z" fill="#303F48"/>
<path d="M14.4487 38.2614L13.9151 38.081L13.6523 37.6382V36.2196L13.833 35.6866L13.9233 35.0634L14.186 34.6206L14.6293 34.7108L14.892 35.1536V35.8588L14.8017 36.482H14.0957L14.0054 37.1052L14.186 37.6382L14.539 37.4578L14.892 37.6382L14.6293 38.081L14.4487 38.2614Z" fill="#303F48"/>
<path d="M18.7099 38.2614L18.2666 37.999L18.0859 37.466V36.0474L18.1762 35.4242L18.3569 34.8912L18.7099 34.5386L19.1532 34.801L19.3339 35.334V36.7526L19.2435 37.3758L19.0629 37.9088L18.7099 38.2614Z" fill="#303F48"/>
<path d="M20.3027 38.261L19.8594 37.9986V35.1614L20.04 34.6284L20.2206 34.981V36.3996L20.04 36.9326L20.2206 37.4656L20.4833 37.5558L20.7461 37.113V34.9892L21.0088 34.5464L21.0991 35.1696V36.5882L20.9185 37.1212V37.8264L20.4751 38.0888L20.2945 38.2692L20.3027 38.261Z" fill="#303F48"/>
<path d="M21.7237 38.081L21.4609 37.6382L21.6416 37.1052V34.9814L21.9043 34.5386H22.2573L22.52 34.9814L22.167 35.334L21.9864 35.867V36.5722L21.8058 37.1052V37.8104L21.7154 38.0728L21.7237 38.081Z" fill="#303F48"/>
<path d="M23.3154 38.2614L22.872 37.999L22.6914 37.466V36.0474L22.872 35.5144L23.0526 34.9814L23.3154 34.5386L23.849 34.719L23.9393 35.3422L23.496 35.252L23.2333 35.6948L23.0526 36.2278V36.933L23.143 37.5562H23.496L23.7587 37.6464L23.496 38.0892L23.3154 38.2696V38.2614Z" fill="#303F48"/>
<path d="M25.0893 38.2614L24.5557 38.081L24.293 37.6382V36.2196L24.4736 35.6866L24.5639 35.0634L24.8266 34.6206L25.27 34.7108L25.5327 35.1536V35.8588L25.4424 36.482H24.7363L24.646 37.1052L24.8266 37.6382L25.1796 37.4578L25.5327 37.6382L25.27 38.081L25.0893 38.2614Z" fill="#303F48"/>
<path d="M29.5224 38.2614L29.0791 37.999L28.8984 37.466V36.0474L28.9887 35.4242L29.1694 34.8912L29.5224 34.5386L29.9657 34.801L30.1464 35.334V36.7526L30.056 37.3758L29.8754 37.9088L29.5224 38.2614Z" fill="#303F48"/>
<path d="M31.6583 38.0809L31.3956 37.6381L31.5762 37.1051V35.6865L31.3135 35.2437L31.0508 35.6865V36.3917L30.8701 36.9247V37.6299L30.6074 38.0727V37.5397L30.6977 36.9165V35.4979L30.788 34.8747L31.0508 34.6123L31.3135 34.7025L31.7568 34.6123L31.9374 35.1453V36.5639L31.7568 37.0969V37.8021L31.6665 38.0645L31.6583 38.0809Z" fill="#303F48"/>
<path d="M33.4302 38.0809L33.1675 37.6381L33.3481 37.1051V35.6865L33.0854 35.2437L32.8227 35.6865V36.3917L32.6421 36.9247V37.6299L32.3794 38.0727L32.2891 37.4495L32.4697 36.9165V34.7927L32.8227 34.6123H33.0033L33.4467 34.7025L33.7094 35.1453V36.5639L33.5288 37.0969V37.8021L33.4385 38.0645L33.4302 38.0809Z" fill="#303F48"/>
<path d="M34.8436 38.261L34.4003 37.9986L34.2197 37.4656L34.0391 36.9326V36.2274L34.2197 35.6944L34.4003 35.1614L34.663 34.7186L35.1064 34.6284L35.287 35.1614L35.4676 35.6944L35.3773 36.3176L34.8436 36.498L34.4003 36.7604L34.4906 37.3836L34.9339 37.4738L35.287 37.6542L35.0243 38.097L34.8436 38.2774V38.261Z" fill="#303F48"/>
<path d="M36.4432 38.2614L35.9096 38.081L35.729 37.548L35.6387 36.9248V36.2196L35.8193 35.6866L35.9999 35.1536L36.1805 34.6206H36.7142L36.8948 35.1536L36.6321 35.2438L36.1887 35.5062L36.0081 36.0392V37.4578L36.3611 37.6382L36.7142 37.4578L36.5336 37.9908L36.4432 38.2532V38.2614Z" fill="#303F48"/>
<path d="M38.751 38.081L38.4883 37.6382V36.2196L38.6689 35.6866V34.9814L38.9316 34.5386L39.0219 35.1618L38.8413 35.6948V37.8186L38.751 38.081Z" fill="#303F48"/>
<path d="M39.8105 38.0806L39.5478 37.6378V36.2192L39.3672 35.6862V34.981L39.5478 34.6284L39.7284 35.1614V36.58L40.0815 36.3996V35.6944L40.2621 35.1614L40.4427 34.6284L40.6233 34.981L40.4427 35.514V36.2192L40.2621 36.7522L40.0815 37.2852L39.9911 37.9084L39.8105 38.0888V38.0806Z" fill="#303F48"/>
<path d="M41.0502 38.0808L40.8696 37.7282L40.7793 37.2854L40.9599 36.7524V35.3338L41.1405 34.8008H41.3212V36.9246L41.1405 37.4576L41.0502 38.0808Z" fill="#303F48"/>
<path d="M43.1846 39.3191L42.9219 38.8763L43.1025 38.3433L43.2831 37.8103L43.1025 37.2773V35.8587L42.9219 35.3257V34.6205L43.2749 34.8009V35.5061L43.4555 36.0391L43.5458 36.6623L43.6361 36.0391L43.8168 35.5061L43.9974 34.9731L44.2601 34.5303V35.0633L44.0795 35.5963L43.9892 36.2195L43.8086 36.7525L43.6279 37.2855L43.5376 37.9087L43.4473 38.5319L43.2667 39.0649L43.1764 39.3273L43.1846 39.3191Z" fill="#303F48"/>
<path d="M12.0601 36.2193L12.2407 35.6863L12.0601 35.1533L11.707 35.3337V36.0389L12.0601 36.2193Z" fill="#303F48"/>
<path d="M18.8012 37.4576L18.9818 36.9245L19.0722 36.3014V35.7683L18.8915 35.2354L18.4482 35.4978L18.3579 36.1209L18.2676 36.7442L18.4482 37.2771L18.8012 37.4576Z" fill="#303F48"/>
<path d="M29.6137 37.4576L29.7943 36.9245L29.8847 36.3014V35.7683L29.704 35.2354L29.2607 35.4978V36.203L29.0801 36.7359L29.2607 37.269L29.6137 37.4493V37.4576Z" fill="#303F48"/>
<path d="M56.6574 2.47633H52.4046L51.7807 2.38613L51.6001 1.85313L51.5097 1.22993L51.3291 0.69693L51.0664 0.25413L51.4194 0.0737305L52.0434 0.16393H56.2961L56.6492 0.34433L56.5589 0.96753V1.67273L56.6492 2.29593V2.47633H56.6574Z" fill="#929596"/>
<path d="M57.5429 2.6568L57.2802 2.214L57.0996 1.681V0.9758L57.2802 0.4428L57.5429 0L57.896 0.3526L57.9863 0.9758V1.681L57.896 2.3042L57.5429 2.6568Z" fill="#929596"/>
<path d="M31.8305 5.66621L31.7402 5.04301V0.79541L31.9209 1.14801V5.39561L31.8305 5.65801V5.66621Z" fill="#929596"/>
<path d="M28.1118 14.3498L28.0215 13.7266V0.975586L28.2021 1.32819V14.0792L28.1118 14.3416V14.3498Z" fill="#929596"/>
<path d="M12.6762 14.3498L12.5859 13.7266V1.68082L12.6762 1.05762L12.7666 1.68082V13.7266L12.6762 14.3498Z" fill="#929596"/>
<path d="M22.9634 3.36211L22.873 2.73891V1.32031H23.0537V2.73891L22.9634 3.36211Z" fill="#929596"/>
<path d="M5.94476 14.3502L5.85445 13.727V4.51841L5.67383 3.98541L5.85445 3.45241V1.32861L6.03507 1.68121V13.727L5.94476 14.3502Z" fill="#929596"/>
<path d="M9.66251 5.84681H8.24219L8.59522 5.66641H9.30127L9.56399 5.22361V1.68121L9.74461 1.32861V5.57621L9.6543 5.83861L9.66251 5.84681Z" fill="#929596"/>
<path d="M18.3579 14.3502L18.2676 13.727V1.68115H18.4482V13.727L18.3579 14.3502Z" fill="#929596"/>
<path d="M44.7773 12.218H44.0712L43.4473 12.1278V1.50879L43.6279 1.86139V11.7834L44.0712 12.0458H44.7773V12.2262V12.218Z" fill="#929596"/>
<path d="M52.0502 6.90436L51.8696 6.37136L51.7793 5.74816L51.9599 5.21516V4.50996L52.4033 4.24756H58.7906L58.8809 4.87076V6.28936L58.6182 6.73216H52.9451L52.3212 6.64196V5.93676H52.1405V6.28936L52.0502 6.91256V6.90436Z" fill="#929596"/>
<path d="M59.8515 6.73226L59.5888 6.28946L59.4082 5.75646V5.05126L59.5888 4.51826L60.0322 4.25586L60.2949 4.69866V6.11726L60.0322 6.56006L59.8515 6.74046V6.73226Z" fill="#929596"/>
<path d="M22.4296 4.60862H21.0093L20.6562 4.42822H22.0766L22.4296 4.60862Z" fill="#929596"/>
<path d="M14.811 6.73223L14.7207 6.10903V4.69043L14.9013 5.04303V6.46163L14.811 6.72403V6.73223Z" fill="#929596"/>
<path d="M34.3169 8.67559L34.2266 8.05239V6.63379H34.4072V8.05239L34.3169 8.67559Z" fill="#929596"/>
<path d="M22.4302 9.03656L22.3398 8.41336V7.70816L22.4302 7.08496L22.5205 7.70816V8.41336L22.4302 9.03656Z" fill="#929596"/>
<path d="M58.0769 10.6271H52.4038L52.0508 10.2745L52.1411 9.83175L52.0508 9.38895L52.1411 8.76575V8.06055L52.4038 8.32295H58.0769L58.1672 8.94615V10.3647L58.0769 10.6271Z" fill="#929596"/>
<path d="M59.1445 10.8078L58.7915 10.4552L58.7012 9.83204V9.12684L58.7915 8.50364L59.3251 8.32324L59.5878 8.76604V10.1846L59.3251 10.6274L59.1445 10.8078Z" fill="#929596"/>
<path d="M27.7505 12.5786L27.6602 11.9554V9.8316L27.8408 9.479V12.3162L27.7505 12.5786Z" fill="#929596"/>
<path d="M9.66258 14.3501L9.57227 13.7269V10.8897L9.75288 10.5371V14.0795L9.66258 14.3419V14.3501Z" fill="#929596"/>
<path d="M31.8305 14.3501L31.7402 13.7269V10.8897L31.9209 10.5371V14.0795L31.8305 14.3419V14.3501Z" fill="#929596"/>
<path d="M14.811 14.3498L14.7207 13.7266V12.308L14.9834 12.2178L14.8931 12.6606V14.0792L14.8028 14.3416L14.811 14.3498Z" fill="#929596"/>
<path d="M22.0766 12.218H20.6562L21.0093 12.0376H21.7153L22.0684 12.218H22.0766Z" fill="#929596"/>
<path d="M56.6565 14.8747H51.6894L51.2461 14.6123L51.4267 14.0793L51.2461 13.5463H51.5991L51.4185 13.0133L51.6812 12.9231L51.8618 12.3901H56.4758L56.6565 12.7427L56.5662 13.3659V14.0711L56.6565 14.6943V14.8747Z" fill="#929596"/>
<path d="M57.7236 14.8748L57.2802 14.6124L57.0996 14.0794V13.3742L57.2802 12.8412L57.5429 12.3984L57.896 12.751L57.9863 13.3742V14.0794L57.896 14.7026L57.7154 14.883L57.7236 14.8748Z" fill="#929596"/>
<path d="M56.3049 27.634H0.263672V27.4536H56.3049V27.634Z" fill="#929596"/>
<path d="M0.886719 40.9998V31.0778L0.977028 30.4546L1.06734 31.0778V40.9998H0.886719Z" fill="#929596"/>
<path d="M3.10336 10.2744L3.01306 9.65118L2.75034 9.20837L2.12638 9.11818V8.41298L1.94576 7.87998V2.91898L1.50242 2.65658H0.0903096L0 2.03338V0.622976L0.262719 0.180176H4.51548L5.13943 0.270376V2.39418L4.6961 2.65658H3.27577L3.18546 3.27978V9.65938L3.09515 10.2826L3.10336 10.2744Z" fill="#028BC3"/>
<path d="M10.0158 10.0944L9.92552 9.47116V8.76596L9.48218 8.50356H7.3558L7.26549 9.12676L7.08487 9.47936L6.64154 9.21696L6.37882 9.65976H6.1982V2.56676L6.01758 2.03376V0.623363L6.2803 0.180563H6.98635L7.42969 0.442963V5.40396L7.52 6.02716H9.64638L9.9091 5.58436V1.32856L9.72848 0.795563L9.81879 0.172363H10.5248L11.1488 0.262563V5.92876L10.9682 6.46176V9.29896L10.7876 9.65156L10.5248 9.20876L10.0815 9.47116L9.9912 10.0944H10.0158Z" fill="#028BC3"/>
<path d="M15.8698 9.38916L15.3361 9.20876L14.7122 9.29896L14.0882 9.38916L13.5546 9.20876L12.9306 9.11856V8.41336L12.75 7.88036V0.795563L12.8403 0.172363H14.9667L15.5003 0.352763L15.9437 0.615163L16.2064 1.05796L16.4691 1.50076L16.6497 2.03376L16.8303 2.56676V6.10916L16.6497 6.64216L16.5594 7.26536L16.3788 7.79836L16.1161 8.24116L15.7631 8.59376L15.9437 9.12676L15.8534 9.38916H15.8698Z" fill="#028BC3"/>
<path d="M19.5975 9.92216L19.5071 9.29896L18.8832 9.20876L18.7026 9.74176L18.6123 9.11856V2.03376L18.4316 1.50076V0.795563L18.5219 0.172363H22.0687L22.159 0.795563V2.21416L21.8962 2.65696H20.4759L19.852 2.74716L19.6713 3.28016V5.40396L19.7617 6.02716H21.182L21.6253 6.28956V8.41336L21.0014 8.50356H20.2953L19.6713 8.59376V9.29896L19.581 9.92216H19.5975Z" fill="#028BC3"/>
<path d="M26.8632 10.2747L26.7729 9.65146L26.5102 9.20866H25.8041L25.3608 9.29886L25.0077 8.94626L24.5644 8.68386L24.2114 8.33126L23.9486 7.88846L23.6859 7.44566L23.5053 6.91266L23.415 6.28946L23.3247 5.66626L23.2344 5.04306V3.62446L23.3247 3.00126L23.415 2.37806L23.5956 1.84506L23.7762 1.31206L24.039 0.869262L24.392 0.516663L24.745 0.164062H25.4511L25.9847 0.344462L26.3377 0.697063L26.6908 1.04966L26.9535 1.49246L26.7729 2.02546L26.6826 2.64866L26.5922 3.27186L26.2392 3.45226L25.8862 3.09966L25.5332 2.74706L24.9092 2.65686L24.6465 3.09966L24.4659 3.63266V4.33786L24.5562 4.96106L24.8189 5.40386L25.1719 5.75646L25.6153 6.01886L25.9683 6.37146L26.231 6.81426L26.4937 7.25706L26.6744 7.79006L26.7647 8.41326L26.9453 8.94626V9.65146L26.855 10.2747H26.8632Z" fill="#028BC3"/>
<path d="M33.0705 10.2748L32.9802 9.65156L32.7174 9.20876L32.2741 9.47116L32.0935 9.11856L32.0032 8.49536H29.8768L29.4335 8.75776V9.46296L29.3432 10.0862L29.2528 9.46296L28.8095 9.20056L28.3662 9.29076V7.16696L28.2759 6.54376L28.1855 5.92056V0.262563L28.8095 0.172363H29.5156L29.6059 0.795563L29.5156 1.41876L29.4252 2.04196V5.58436L29.688 6.02716H31.8143L32.0771 5.58436L31.8964 5.05136V0.795563L31.9868 0.172363H32.6928L33.1362 0.434763V9.64336L33.0458 10.2666L33.0705 10.2748Z" fill="#028BC3"/>
<path d="M34.6713 10.2748L34.581 9.65156V8.94636L34.4004 8.41336V5.57616L34.581 5.04316V4.33796L34.7616 3.80496L34.9422 3.27196L35.0326 2.64876L35.2132 2.11576L35.4759 1.67296L35.7386 1.23016L36.0013 0.787363L36.3544 0.434763L36.7977 0.172363H37.5038L38.0374 0.352763L38.4807 0.615163L38.8338 0.967763L39.0965 1.41056L39.3592 1.85336L39.5398 2.38636L39.7204 2.91936L39.9011 3.45236L40.0817 3.98536V4.69056L40.2623 5.22356V9.47116H40.0817L39.6383 9.20876L39.195 8.94636L39.1047 8.50356L39.195 7.88036L39.0144 7.34736V5.92876L38.8338 5.39576V4.69056L38.571 4.24776L38.3904 3.71476L38.0374 3.36216L37.5038 3.18176L36.8798 3.27196L36.5268 3.62456L36.1737 3.97716L35.9931 4.51016L35.8125 5.04316V5.74836L35.6319 6.28136V9.11856L35.3692 9.20876L34.7452 9.29896V10.0042L34.6549 10.2666L34.6713 10.2748Z" fill="#028BC3"/>
<path d="M41.5834 9.92178L41.4931 9.29858V1.50858L41.3125 0.975576L41.4931 0.442576L41.9365 0.180176H42.6425L42.7328 0.803376V8.59338L42.5522 9.12638L42.2895 9.21658L41.6655 9.30678L41.5752 9.92998L41.5834 9.92178Z" fill="#028BC3"/>
<path d="M50.9835 9.92178L50.8932 9.29858L50.2692 9.20837L50.0065 8.76558V6.64178L49.8259 6.10878V5.40358L49.6453 4.87058L49.555 4.24738L49.3744 3.71438L49.1116 3.27158L48.8489 2.82878L48.3153 2.64838H47.6092L47.3465 3.09118V7.33878L47.2562 7.96198L47.1659 8.58518V9.29038H46.9853L46.3613 9.20018L46.0986 9.46258V5.21498L46.0083 4.59178L45.918 3.96858V0.442576L46.3613 0.180176H48.4877L49.0213 0.360576L49.3744 0.713176L49.7274 1.06578L49.9901 1.50858L50.2528 1.95138L50.4334 2.48438L50.6962 2.92718L50.7865 3.55038L50.8768 4.17358L51.0574 4.70658V6.12518L51.238 6.65818V8.07678L51.0574 8.60978V9.31497L50.9671 9.93818L50.9835 9.92178Z" fill="#028BC3"/>
<path d="M15.0732 6.99444L15.3359 6.55164L15.5165 6.01864L15.6068 5.39544L15.7874 4.86244V4.15724L15.6068 3.62424L15.4262 3.09124L15.0732 2.73864L14.4492 2.64844L14.0059 2.91084V6.45324L14.0962 7.07644H14.8022L15.0649 6.98624L15.0732 6.99444Z" fill="#028BC3"/>
</g>
</g>
<defs>
<clipPath id="clip0_32357_1418">
<rect width="61" height="41" fill="white"/>
</clipPath>
<clipPath id="clip1_32357_1418">
<rect width="61" height="41" fill="white"/>
</clipPath>
</defs>
</svg>
