<svg width="182" height="42" viewBox="0 0 182 42" fill="none" xmlns="http://www.w3.org/2000/svg">
<g clip-path="url(#clip0_27506_1718)">
<path d="M153.96 40.6494H162.924V24.2732C162.924 20.5378 165.107 17.8943 168.325 17.8943C171.428 17.8943 173.037 20.0784 173.037 23.1816V40.6497H182.001V21.458C182.001 14.964 178.094 10.3669 171.773 10.3669C167.751 10.3669 164.935 12.0911 162.809 15.2514H162.636V11.2291H153.959V40.6494H153.96ZM136.376 10.4244C127.01 10.4244 120.747 17.1475 120.747 25.9967C120.747 34.7888 127.01 41.5694 136.376 41.5694C145.742 41.5694 152.006 34.7888 152.006 25.9967C152.006 17.1472 145.742 10.4244 136.376 10.4244ZM136.319 34.9608C132.066 34.9608 129.826 31.3986 129.826 25.9967C129.826 20.5378 132.066 17.0323 136.319 17.0323C140.571 17.0323 142.927 20.5375 142.927 25.9967C142.927 31.3986 140.571 34.9608 136.319 34.9608ZM95.2328 40.6494H120.402V33.5821H106.151V33.4089L119.77 18.1239V11.2291H95.2328V18.2965H109.024V18.4691L95.2328 33.8689V40.6494ZM83.7392 40.6494H92.7607V11.2291H83.7392V40.6494ZM62.8227 40.6494H71.7868V27.1463C71.7868 20.9974 75.4645 18.2965 81.0957 19.0439H81.2682V11.2866C80.8083 11.114 80.2915 11.0566 79.4296 11.0566C75.9244 11.0566 73.5683 12.6653 71.5568 16.113H71.3842V11.2291H62.8227V40.6494ZM46.3313 35.0188C42.3662 35.0188 39.953 32.4321 39.493 28.4682H60.6966C60.754 22.1465 59.0873 17.0898 55.5822 13.9295C53.1118 11.6311 49.8358 10.3666 45.6987 10.3666C36.8501 10.3666 30.7012 17.0898 30.7012 25.8816C30.7012 34.7305 36.5624 41.5111 46.2736 41.5111C49.9513 41.5111 52.8816 40.5343 55.2951 38.8676C57.8811 37.0872 59.7195 34.5005 60.2363 31.915H51.6174C50.7558 33.8689 48.9742 35.0188 46.3313 35.0188ZM45.8713 16.8023C49.0316 16.8023 51.2151 19.159 51.56 22.6064H39.5504C40.2404 19.1007 42.1362 16.8023 45.8713 16.8023ZM83.7392 0.77002H92.7607V8.75763H83.7392V0.77002Z" fill="#F50A23"/>
<path d="M20.2036 40.2833L9.0493 11.229H0L11.1542 40.2833C11.2389 40.5048 11.4513 40.6499 11.6877 40.6499H20.737C20.5006 40.6499 20.2882 40.5048 20.2036 40.2833Z" fill="url(#paint0_radial_27506_1718)"/>
<path d="M12.2209 40.2833L23.3751 11.229H32.4244L21.2702 40.2833C21.1856 40.5048 20.9731 40.6499 20.7368 40.6499H11.6875C11.9241 40.6499 12.1366 40.5048 12.2209 40.2833Z" fill="#F50A23"/>
</g>
<defs>
<radialGradient id="paint0_radial_27506_1718" cx="0" cy="0" r="1" gradientUnits="userSpaceOnUse" gradientTransform="translate(18.8766 35.599) rotate(-70.1479) scale(15.6106 16.8879)">
<stop stop-color="#F5FF1E"/>
<stop offset="0.257" stop-color="#F5FF1E"/>
<stop offset="0.2655" stop-color="#F5FA1E"/>
<stop offset="0.423" stop-color="#F5A620"/>
<stop offset="0.5621" stop-color="#F56321"/>
<stop offset="0.6779" stop-color="#F53322"/>
<stop offset="0.7657" stop-color="#F51523"/>
<stop offset="0.8155" stop-color="#F50A23"/>
</radialGradient>
<clipPath id="clip0_27506_1718">
<rect width="182" height="41" fill="white" transform="translate(0 0.77002)"/>
</clipPath>
</defs>
</svg>
