<svg width="182" height="41" viewBox="0 0 182 41" fill="none" xmlns="http://www.w3.org/2000/svg">
<g clip-path="url(#clip0_27506_1718)">
<path d="M153.96 39.8794H162.924V23.5032C162.924 19.7678 165.107 17.1243 168.325 17.1243C171.428 17.1243 173.037 19.3084 173.037 22.4116V39.8797H182.001V20.688C182.001 14.194 178.094 9.59692 171.773 9.59692C167.751 9.59692 164.935 11.3211 162.809 14.4814H162.636V10.4591H153.959V39.8794H153.96ZM136.376 9.65434C127.01 9.65434 120.747 16.3775 120.747 25.2267C120.747 34.0188 127.01 40.7994 136.376 40.7994C145.742 40.7994 152.006 34.0188 152.006 25.2267C152.006 16.3772 145.742 9.65434 136.376 9.65434ZM136.319 34.1908C132.066 34.1908 129.826 30.6286 129.826 25.2267C129.826 19.7678 132.066 16.2623 136.319 16.2623C140.571 16.2623 142.927 19.7675 142.927 25.2267C142.927 30.6286 140.571 34.1908 136.319 34.1908ZM95.2328 39.8794H120.402V32.8121H106.151V32.6389L119.77 17.3539V10.4591H95.2328V17.5265H109.024V17.6991L95.2328 33.0989V39.8794ZM83.7392 39.8794H92.7607V10.4591H83.7392V39.8794ZM62.8227 39.8794H71.7868V26.3763C71.7868 20.2274 75.4645 17.5265 81.0957 18.2739H81.2682V10.5166C80.8083 10.344 80.2915 10.2866 79.4296 10.2866C75.9244 10.2866 73.5683 11.8953 71.5568 15.343H71.3842V10.4591H62.8227V39.8794ZM46.3313 34.2488C42.3662 34.2488 39.953 31.6621 39.493 27.6982H60.6966C60.754 21.3765 59.0873 16.3198 55.5822 13.1595C53.1118 10.8611 49.8358 9.59662 45.6987 9.59662C36.8501 9.59662 30.7012 16.3198 30.7012 25.1116C30.7012 33.9605 36.5624 40.7411 46.2736 40.7411C49.9513 40.7411 52.8816 39.7643 55.2951 38.0976C57.8811 36.3172 59.7195 33.7305 60.2363 31.145H51.6174C50.7558 33.0989 48.9742 34.2488 46.3313 34.2488ZM45.8713 16.0323C49.0316 16.0323 51.2151 18.389 51.56 21.8364H39.5504C40.2404 18.3307 42.1362 16.0323 45.8713 16.0323ZM83.7392 0H92.7607V7.98761H83.7392V0Z" fill="#F50A23"/>
<path d="M20.2036 39.5133L9.0493 10.459H0L11.1542 39.5133C11.2389 39.7348 11.4513 39.8799 11.6877 39.8799H20.737C20.5006 39.8799 20.2882 39.7348 20.2036 39.5133Z" fill="url(#paint0_radial_27506_1718)"/>
<path d="M12.2209 39.5133L23.3751 10.459H32.4244L21.2702 39.5133C21.1856 39.7348 20.9731 39.8799 20.7368 39.8799H11.6875C11.9241 39.8799 12.1366 39.7348 12.2209 39.5133Z" fill="#F50A23"/>
</g>
<defs>
<radialGradient id="paint0_radial_27506_1718" cx="0" cy="0" r="1" gradientUnits="userSpaceOnUse" gradientTransform="translate(18.8766 34.829) rotate(-70.1479) scale(15.6106 16.8879)">
<stop stop-color="#F5FF1E"/>
<stop offset="0.257" stop-color="#F5FF1E"/>
<stop offset="0.2655" stop-color="#F5FA1E"/>
<stop offset="0.423" stop-color="#F5A620"/>
<stop offset="0.5621" stop-color="#F56321"/>
<stop offset="0.6779" stop-color="#F53322"/>
<stop offset="0.7657" stop-color="#F51523"/>
<stop offset="0.8155" stop-color="#F50A23"/>
</radialGradient>
<clipPath id="clip0_27506_1718">
<rect width="182" height="41" fill="white"/>
</clipPath>
</defs>
</svg>
