<svg width="208" height="32" viewBox="0 0 208 32" fill="none" xmlns="http://www.w3.org/2000/svg">
<g clip-path="url(#clip0_27131_1636)">
<mask id="mask0_27131_1636" style="mask-type:luminance" maskUnits="userSpaceOnUse" x="0" y="0" width="32" height="32">
<path d="M32 0H0V32H32V0Z" fill="white"/>
</mask>
<g mask="url(#mask0_27131_1636)">
<path d="M32 0H0V32H32V0Z" fill="#FFD200"/>
<path d="M8.64359 8.2124L24.1239 15.9101L8.625 23.7867L18.5939 15.9339L8.64359 8.2124Z" fill="#050504"/>
</g>
<path d="M45.7627 19.2211L43.0374 10.6478H40.9629L44.6124 21.7204H46.8875L50.5534 10.6478H48.5007L45.7627 19.2211Z" fill="#050504"/>
<path d="M76.1411 19.8683H71.119V17.1539H75.7857V15.2945H71.119V12.4999H76.1411V10.6478H69.1738V21.7204H76.1411V19.8683Z" fill="#050504"/>
<path d="M64.4668 21.3886C64.9919 21.035 65.4556 20.5978 65.8394 20.0943C66.0361 19.7778 66.1333 19.4094 66.1183 19.037V13.3731C66.137 12.9982 66.0341 12.6274 65.8248 12.3158C65.6006 11.9986 64.8988 11.2038 64.4886 10.9668C64.1464 10.7601 63.7545 10.6499 63.3548 10.6478H58.2852V21.7222H63.3548C63.7473 21.705 64.1295 21.5903 64.4668 21.3886ZM60.2302 19.8683V12.4999H63.1706C63.2277 12.4959 63.2849 12.5015 63.3401 12.5163C63.673 12.7217 63.9533 13.002 64.1586 13.3348C64.1681 13.3649 64.173 13.3963 64.1733 13.4278V19.0005C64.1733 19.2156 63.6173 19.7023 63.3548 19.8482C63.315 19.8595 63.2738 19.8644 63.2326 19.8628L60.2302 19.8683Z" fill="#050504"/>
<path d="M54.8767 10.6478H52.9316V21.7277H54.8767V10.6478Z" fill="#050504"/>
<path d="M127.553 10.6478V18.0946L123.748 10.6478H121.658V21.7204H123.601V14.3684L127.436 21.7204H129.497V10.6478H127.553Z" fill="#050504"/>
<path d="M108.039 21.7222L105.838 17.2085C106.011 17.1454 106.172 17.0563 106.318 16.9442C106.688 16.6566 107.024 16.3283 107.32 15.9653C107.543 15.6294 107.659 15.2343 107.654 14.8315V13.2035C107.656 12.8022 107.54 12.4092 107.32 12.0733C107.026 11.6968 106.69 11.3555 106.318 11.056C105.93 10.7926 105.474 10.6499 105.005 10.6459H99.7988V21.7222H101.742V17.3598H103.871L105.931 21.7349L108.039 21.7222ZM105.709 14.8168C105.707 14.8439 105.699 14.8701 105.685 14.8934C105.539 15.1468 105.169 15.5022 105.005 15.5022H101.742V12.4998H105.098C105.28 12.5163 105.578 12.8863 105.685 13.0941C105.702 13.1333 105.71 13.1756 105.709 13.2181V14.8168Z" fill="#050504"/>
<path d="M117.086 10.9048C116.739 10.6959 116.343 10.5809 115.938 10.5712H113.116C112.711 10.5796 112.314 10.6947 111.968 10.9048C111.581 11.1272 110.839 11.9219 110.617 12.2392C110.414 12.5536 110.311 12.9224 110.323 13.2964V19.0988C110.313 19.4699 110.415 19.8354 110.617 20.1471C110.839 20.4643 111.581 21.2664 111.968 21.4815C112.314 21.6932 112.71 21.8101 113.116 21.8205H115.932C116.338 21.8089 116.734 21.692 117.08 21.4815C117.468 21.2664 118.192 20.4643 118.431 20.1471C118.634 19.8353 118.736 19.47 118.727 19.0988V13.2964C118.735 12.9215 118.63 12.5528 118.424 12.2392C118.192 11.9219 117.468 11.1272 117.086 10.9048ZM116.795 19.0752C116.794 19.1023 116.786 19.1287 116.771 19.1517C116.554 19.4656 116.279 19.7354 115.962 19.9466C115.932 19.9561 115.9 19.961 115.869 19.9611H113.193C113.161 19.9625 113.129 19.9575 113.1 19.9466C112.778 19.7379 112.5 19.4677 112.283 19.1517C112.272 19.1277 112.266 19.1016 112.267 19.0752V13.3493C112.267 13.3176 112.272 13.2863 112.283 13.2563C112.5 12.9364 112.778 12.6616 113.1 12.4469C113.116 12.4251 113.193 12.4251 113.193 12.4251H115.863C115.895 12.424 115.927 12.4315 115.956 12.4469C116.274 12.6641 116.548 12.9386 116.765 13.2563C116.789 13.28 116.789 13.3493 116.789 13.3493L116.795 19.0752Z" fill="#050504"/>
<path d="M97.1667 10.6478H89.2188V12.4999H92.2211V21.7295H94.1644V12.4999H97.1667V10.6478Z" fill="#050504"/>
<path d="M87.1297 20.1471C87.3267 19.8335 87.428 19.4692 87.4213 19.0988V13.2964C87.4294 12.9231 87.3281 12.5555 87.1297 12.2392C86.8891 11.9219 86.1635 11.1272 85.7698 10.9048C85.427 10.6988 85.0373 10.5841 84.6377 10.5712H81.8122C81.406 10.5789 81.0091 10.694 80.6619 10.9048C80.2699 11.1272 79.528 11.9219 79.3129 12.2392C79.1073 12.5528 79.0018 12.9215 79.0102 13.2964V19.0988C79.0033 19.4708 79.1088 19.8361 79.3129 20.1471C79.528 20.4643 80.2699 21.2664 80.6619 21.4815C81.0086 21.694 81.4056 21.8111 81.8122 21.8205H84.6377C85.0409 21.8073 85.4339 21.6905 85.7789 21.4815C86.1635 21.2664 86.8891 20.4588 87.1297 20.1471ZM85.4763 19.0752C85.4756 19.1013 85.4707 19.1272 85.4617 19.1517C85.2402 19.4668 84.9605 19.7365 84.6377 19.9466C84.6076 19.956 84.5763 19.9609 84.5448 19.9611H81.8814C81.8504 19.9618 81.8195 19.9569 81.7902 19.9466C81.4693 19.738 81.1929 19.4679 80.9772 19.1517C80.9626 19.1289 80.955 19.1023 80.9554 19.0752V13.3493C80.9558 13.3171 80.9634 13.2853 80.9772 13.2563C81.1931 12.9363 81.4692 12.6613 81.7902 12.4469C81.8122 12.4251 81.8814 12.4251 81.8814 12.4251H84.5521C84.5844 12.424 84.6165 12.4315 84.645 12.4469C84.9653 12.6634 85.2424 12.9379 85.4617 13.2563C85.4721 13.2863 85.477 13.3177 85.4763 13.3493V19.0752Z" fill="#050504"/>
<path d="M156.777 21.6215H157.893V16.6362H162.859V15.5668H157.893V11.6563H163.127V10.5797H156.777V21.6215Z" fill="#050504"/>
<path d="M147.514 21.6215H148.627V16.6362H153.588V15.5668H148.627V11.6563H153.865V10.5797H147.514V21.6215Z" fill="#050504"/>
<path d="M141.638 10.5797H139.955L136.266 21.5834V21.6215H137.431L138.278 19.0707H143.326L144.141 21.5997V21.6215H145.333L141.646 10.5961L141.638 10.5797ZM140.892 11.6798L142.978 17.9959H138.618L140.685 11.6798H140.892Z" fill="#050504"/>
<path d="M206.775 16.2588L201.77 14.868C201.608 14.809 201.467 14.7 201.369 14.5567C201.271 14.4133 201.221 14.2428 201.226 14.0693V12.9255C201.229 12.8465 201.253 12.7698 201.295 12.7022C201.583 12.265 201.97 11.9017 202.425 11.642C202.493 11.6073 202.571 11.5917 202.648 11.5966H205.231C205.308 11.5921 205.385 11.6104 205.452 11.6492C205.905 11.9407 206.284 12.3328 206.561 12.7948C206.609 12.8678 206.65 12.9449 206.684 13.0254L206.698 13.0489L207.788 12.7258H207.819L207.803 12.7022C207.684 12.4481 207.544 12.205 207.381 11.976C207.165 11.6928 206.655 11.0682 206.235 10.8159C205.949 10.6415 205.624 10.541 205.289 10.5236H202.564C202.229 10.539 201.904 10.6396 201.618 10.8159C201.135 11.1829 200.706 11.6176 200.346 12.1068C200.185 12.3808 200.107 12.6965 200.123 13.0144V14.1437C200.123 14.9806 200.592 15.7032 201.276 15.8957L206.296 17.27C206.658 17.3625 206.866 17.762 206.866 18.1015V19.2797C206.864 19.3573 206.845 19.4335 206.811 19.503C206.514 19.9456 206.123 20.3175 205.667 20.5924C205.602 20.6253 205.53 20.6408 205.458 20.6377H202.552C202.467 20.6417 202.384 20.6262 202.306 20.5924C201.859 20.2906 201.482 19.8977 201.199 19.4394C201.146 19.3778 201.104 19.3079 201.075 19.2325V19.2089L200.005 19.5103H199.975L199.991 19.5412C200.103 19.7918 200.24 20.0308 200.399 20.2546C200.607 20.5397 201.125 21.1533 201.536 21.4166C201.829 21.5934 202.162 21.6957 202.505 21.7143H205.551C205.885 21.6982 206.211 21.5956 206.495 21.4166C206.98 21.0592 207.409 20.6309 207.767 20.1457C207.933 19.8733 208.015 19.557 207.999 19.238V17.9943C207.968 17.1647 207.476 16.4584 206.775 16.2588Z" fill="#050504"/>
<path d="M190.75 21.6215H197.101V20.5395H191.865V16.6362H196.827V15.5668H191.865V11.6563H197.101V10.5797H190.75V21.6215Z" fill="#050504"/>
<path d="M186.269 16.413C186.616 16.1278 186.932 15.8058 187.208 15.4526C187.398 15.1683 187.496 14.8335 187.492 14.4922V12.8764C187.495 12.533 187.397 12.1963 187.208 11.9087C186.929 11.5508 186.615 11.2223 186.269 10.9284C185.95 10.6956 185.566 10.5686 185.171 10.5653H180.199V21.6217H181.315V16.7652H184.021L186.72 21.6071V21.6217H187.991L185.254 16.7652C185.622 16.7597 185.977 16.6363 186.269 16.413ZM181.318 11.6546H185.155C185.258 11.6439 185.361 11.6628 185.454 11.7091C185.816 11.9379 186.119 12.249 186.339 12.6169C186.373 12.7157 186.385 12.8212 186.375 12.9254V14.4613C186.384 14.5628 186.371 14.665 186.336 14.7609C186.115 15.1167 185.812 15.4148 185.452 15.6306C185.36 15.6801 185.256 15.7038 185.152 15.6995H181.318V11.6546Z" fill="#050504"/>
<path d="M176.906 10.5797H175.791V21.6215H176.906V10.5797Z" fill="#050504"/>
<path d="M169.916 10.5797H168.232L164.541 21.5834V21.6215H165.709L166.556 19.0707H171.607L172.43 21.5997V21.6215H173.622L169.924 10.5961L169.916 10.5797ZM169.17 11.6798L171.255 17.9959H166.895L168.963 11.6798H169.17Z" fill="#050504"/>
</g>
<defs>
<clipPath id="clip0_27131_1636">
<rect width="208" height="32" fill="white"/>
</clipPath>
</defs>
</svg>
