<svg width="111" height="41" viewBox="0 0 111 41" fill="none" xmlns="http://www.w3.org/2000/svg">
<g clip-path="url(#clip0_30610_4212)">
<path d="M16.7207 20.6926C16.6485 20.5883 16.5203 20.5242 16.3921 20.5242H14.1321C13.9638 20.5242 13.8035 20.6365 13.7555 20.7969L10.2773 30.3651L8.10552 36.3803L6.09398 30.349L3.08069 20.8129C3.02459 20.6445 2.87232 20.5322 2.69601 20.5322H0.403981C0.275755 20.5322 0.155543 20.5964 0.0754017 20.7006C0.00327492 20.8049 -0.0207671 20.9412 0.0193034 21.0615L6.33441 40.4226C6.39051 40.591 6.54277 40.7033 6.71908 40.7033H9.47593C9.64423 40.7033 9.7965 40.599 9.85259 40.4386L16.7688 21.0776C16.8088 20.9573 16.7928 20.8209 16.7207 20.7086V20.6926Z" fill="#010101"/>
<path d="M23.542 25.6572C19.2465 25.6572 16.0488 28.8573 16.0488 33.4449C16.0488 38.0326 19.1583 41.0001 23.3096 41.0001C25.2169 41.0001 26.9881 40.3344 28.3024 39.1313C29.8251 37.7278 30.8348 35.6826 30.8348 33.2124C30.8348 28.7611 27.7173 25.6572 23.542 25.6572ZM23.4298 38.5378C21.1137 38.5378 19.2144 36.3563 19.2144 33.3567C19.2144 30.7501 20.681 28.1195 23.4859 28.1195C26.6034 28.1195 27.6372 31.504 27.6372 33.3006C27.6372 36.3403 25.7379 38.5378 23.4218 38.5378H23.4298Z" fill="#010101"/>
<path d="M36.1475 25.9778H34.0238C33.8024 25.9778 33.623 26.1573 33.623 26.3788V40.286C33.623 40.5075 33.8024 40.687 34.0238 40.687H36.1475C36.3688 40.687 36.5482 40.5075 36.5482 40.286V26.3788C36.5482 26.1573 36.3688 25.9778 36.1475 25.9778Z" fill="#010101"/>
<path d="M51.0945 26.4511C50.4134 26.0982 48.2816 25.6892 46.7349 25.6892C42.239 25.6892 39.1055 28.8893 39.1055 33.4769C39.1055 38.0645 41.9585 40.9759 46.2059 40.9759C48.0332 40.9759 50.3172 40.5188 51.0465 40.1258C51.2067 40.0375 51.2869 39.8611 51.2468 39.6766L50.8301 37.9843C50.806 37.864 50.7259 37.7678 50.6217 37.7116C50.5175 37.6555 50.3973 37.6555 50.2851 37.7036C49.5879 38.0244 47.945 38.3613 46.6467 38.3613C44.0822 38.3613 42.3592 36.2921 42.3592 33.3646C42.3592 30.4372 44.0742 28.3038 46.7349 28.3038C48.0732 28.3038 49.7001 28.6327 50.1729 28.9134C50.2771 28.9775 50.4053 28.9856 50.5095 28.9374C50.6217 28.8893 50.7019 28.7931 50.7419 28.6808L51.2949 26.9324C51.351 26.7479 51.2628 26.5474 51.0945 26.4592V26.4511Z" fill="#010101"/>
<path d="M59.4198 25.6572C55.1242 25.6572 52.127 28.9054 52.127 33.5572C52.127 38.209 55.1242 40.968 59.7564 40.968C62.2007 40.968 63.6432 40.4788 64.6049 40.0697C64.7892 39.9895 64.8934 39.797 64.8453 39.6126L64.3885 38.0085C64.3565 37.8962 64.2763 37.8 64.1641 37.7438C64.0519 37.6877 63.9237 37.6877 63.8035 37.7358C62.9219 38.0887 61.832 38.4256 59.9166 38.4256C58.6023 38.4256 55.5971 37.6155 55.3246 33.9983H65.3903C65.6067 33.9983 65.791 33.846 65.815 33.6374L65.831 33.5251C65.8631 33.2685 65.9112 33.0921 65.9112 32.6189C65.9112 31.8409 65.783 29.8599 64.6049 28.1676C63.4669 26.5314 61.6797 25.6733 59.4278 25.6733L59.4198 25.6572ZM59.003 28.0713C62.2568 28.0713 62.6254 30.9346 62.6655 31.5762H55.3967C55.7012 30.1807 56.5507 28.0713 58.995 28.0713H59.003Z" fill="#010101"/>
<path d="M90.2108 25.6572C85.9152 25.6572 82.918 28.9054 82.918 33.5572C82.918 38.209 85.9152 40.968 90.5474 40.968C92.9917 40.968 94.4342 40.4788 95.3959 40.0697C95.5802 39.9895 95.6844 39.797 95.6363 39.6126L95.1795 38.0085C95.1475 37.8962 95.0673 37.8 94.9551 37.7438C94.8429 37.6877 94.7147 37.6877 94.5945 37.7358C93.7129 38.0887 92.623 38.4256 90.7077 38.4256C89.3934 38.4256 86.3881 37.6155 86.1156 33.9983H96.1813C96.3977 33.9983 96.582 33.846 96.606 33.6374L96.6221 33.5251C96.6541 33.2685 96.7022 33.0921 96.7022 32.6189C96.7022 31.8409 96.574 29.8599 95.3959 28.1676C94.2579 26.5314 92.4708 25.6733 90.2188 25.6733L90.2108 25.6572ZM89.7941 28.0713C93.0478 28.0713 93.4164 30.9346 93.4565 31.5762H86.1877C86.4923 30.1807 87.3417 28.0713 89.786 28.0713H89.7941Z" fill="#010101"/>
<path d="M80.4504 20.1394C79.3444 19.5218 77.1406 19.1689 75.4817 19.1689C73.5102 19.1689 71.9715 19.6582 70.7694 20.6768C69.423 21.8718 68.6857 23.6844 68.6857 25.7777V25.9782H67.139C66.9146 25.9782 66.7383 26.1546 66.7383 26.3792V28.1036C66.7383 28.3281 66.9146 28.5046 67.139 28.5046H68.6857V40.2864C68.6857 40.511 68.862 40.6874 69.0864 40.6874H71.5868C71.8112 40.6874 71.9875 40.511 71.9875 40.2864V28.5046H75.0329C75.2573 28.5046 75.4336 28.3281 75.4336 28.1036V26.3792C75.4336 26.1546 75.2573 25.9782 75.0329 25.9782H71.9875V25.6895C71.9875 23.1951 73.0293 21.7274 75.089 21.7274C75.7942 21.7274 76.9643 21.8076 77.365 21.96V40.2864C77.365 40.511 77.5413 40.6874 77.7657 40.6874H80.2661C80.4905 40.6874 80.6668 40.511 80.6668 40.2864V20.4923C80.6668 20.3479 80.5866 20.2116 80.4584 20.1394H80.4504Z" fill="#010101"/>
<path d="M110.935 40.0536L106.214 33.1L110.79 26.6036C110.878 26.4833 110.886 26.3229 110.822 26.1865C110.75 26.0502 110.614 25.97 110.462 25.97H108.138C108.001 25.97 107.873 26.0341 107.801 26.1544L104.347 31.111L100.853 26.1544C100.781 26.0422 100.652 25.978 100.516 25.978H98.112C97.9597 25.978 97.8235 26.0582 97.7594 26.1945C97.6953 26.3309 97.7033 26.4913 97.7834 26.6116L102.335 33.1882L97.5591 40.0536C97.4709 40.1739 97.4629 40.3343 97.535 40.4707C97.6071 40.607 97.7434 40.6872 97.8876 40.6872H100.268C100.404 40.6872 100.532 40.6151 100.604 40.5028L104.179 35.2896L107.801 40.5028C107.873 40.6151 108.001 40.6872 108.138 40.6872H110.598C110.75 40.6872 110.886 40.607 110.951 40.4707C111.023 40.3424 111.015 40.182 110.927 40.0536H110.935Z" fill="#010101"/>
<path d="M37.9754 9.04709C38.2078 8.72628 38.4162 8.11674 38.304 7.7478C38.2318 7.49917 38.0395 7.18638 37.9353 6.84953C37.5827 5.70263 38.2719 4.5076 39.442 4.15471C40.604 3.80181 41.7981 4.43542 42.1507 5.58232C42.5033 6.72922 41.8943 8.06862 40.7322 8.42151C40.1312 8.60598 39.8106 8.38141 39.3939 8.54181C39.2416 8.59796 39.0333 8.70222 38.8169 8.98293C38.8169 8.98293 37.9594 10.2501 37.4785 11.0602C37.1259 11.6537 37.6709 12.4156 37.6709 12.4156C37.6709 12.4156 37.6949 12.6963 37.2461 13.3861C36.7973 14.0758 37.9433 15.1425 37.9433 15.1425C37.9433 15.1425 38.4642 15.6157 38.6486 15.6077C38.7768 15.6077 39.0012 15.5115 39.1695 15.5034C39.7545 15.4794 40.2674 16.0087 40.2674 16.5942C40.2674 17.1797 39.7625 17.701 39.1775 17.7251C38.5925 17.7491 38.1036 17.2519 38.1597 16.6343C38.1838 16.3295 38.1838 16.4258 38.1677 16.2092C38.1677 16.129 38.1196 16.0649 38.0235 15.9285C38.0235 15.9285 37.198 14.7255 35.9879 14.4047L34.6896 15.0944C34.6896 15.0944 34.0485 14.5169 33.3272 14.7094L32.6941 14.9099C32.1171 15.1425 31.3878 15.7521 31.2355 16.3456C31.1314 16.7386 31.2195 17.4203 31.0913 17.9577C30.6265 19.8023 28.7191 20.8129 26.8759 20.2835C25.0326 19.7542 23.9347 17.8775 24.3995 16.0248C24.8643 14.1801 26.7717 12.9049 28.6229 13.4342C29.5766 13.7069 29.8251 14.2763 30.5223 14.4367C30.7787 14.4929 31.1394 14.525 31.6523 14.3485C31.6523 14.3485 34.1927 13.8352 34.7137 12.568L35.1063 11.2687C35.1063 11.2687 36.1963 11.6938 36.8614 10.7875C37.5266 9.88121 37.9914 9.06313 37.9914 9.06313L37.9754 9.04709Z" fill="#37378D"/>
<path d="M34.5611 20.0909C34.489 20.3636 34.4409 20.4839 34.3448 20.5721C34.0803 20.8127 34.2005 20.7165 33.7838 20.9972C32.9263 21.5746 32.798 22.7616 33.4392 23.5316C34.0803 24.2935 35.2744 24.4379 36.0357 23.8283C36.7971 23.2188 36.9413 21.9596 36.3002 21.1977C36.1159 20.9731 35.7552 20.7646 35.619 20.5961C35.4187 20.3475 35.4748 19.1445 35.4748 19.1445C35.4748 19.1445 35.5629 16.3935 35.5709 15.9845C35.595 15.2225 35.6671 14.2521 38.1274 13.1453C38.4961 12.9769 39.2494 12.9849 40.139 12.9849C40.6599 12.9849 40.9003 12.9929 41.1006 13.1212C41.6616 13.4741 41.7658 13.9954 42.5272 14.5408C43.9937 15.5835 46.0614 15.2947 47.0792 13.7869C48.097 12.2791 47.8165 10.2099 46.3499 9.16721C44.8833 8.12457 42.5833 8.48549 41.5735 10.0013C41.277 10.4424 41.2048 11.3086 40.9804 11.6294C40.6519 12.1107 38.9689 12.5357 38.3839 12.4716C36.164 12.2069 35.8514 11.9583 35.0821 11.2525C34.3127 10.5387 34.2326 10.2981 33.4873 9.19929C33.0545 8.56569 32.9583 8.06843 32.9423 7.70752C32.8862 6.72102 33.5353 6.1997 33.5353 4.8202C33.5353 2.15746 31.2914 0 28.6948 0C26.1063 0 23.8223 2.16548 23.8223 4.82823C23.8223 7.49097 26.0983 9.65645 28.6868 9.65645C29.4401 9.65645 30.2977 9.30356 30.8586 9.31158C31.6921 9.3196 33.7998 11.0921 34.3207 11.7899C34.3207 11.7899 34.5291 12.648 34.3688 13.033C34.3688 13.2736 34.7375 13.9393 34.5211 14.9338C34.481 15.1022 35.058 15.3669 35.0099 16.3614C34.9619 17.364 34.5451 20.0989 34.5451 20.0989L34.5611 20.0909Z" fill="#4574BA"/>
</g>
<defs>
<clipPath id="clip0_30610_4212">
<rect width="111" height="41" fill="white"/>
</clipPath>
</defs>
</svg>
