<svg width="243" height="33" viewBox="0 0 243 33" fill="none" xmlns="http://www.w3.org/2000/svg">
<g clip-path="url(#clip0_29301_1290)">
<path d="M21.4027 28.18L38.4127 1.74004C38.6397 1.36671 38.9201 1.11337 39.2538 0.940039C39.5876 0.780039 39.9214 0.700039 40.2686 0.700039C40.8694 0.700039 41.4168 0.90004 41.9108 1.28671C42.4048 1.67337 42.6585 2.18004 42.6585 2.76671C42.6585 3.11337 42.525 3.47337 42.2847 3.87337L24.3801 30.5934C23.9929 31.1934 23.5256 31.6334 22.9782 31.9C22.4308 32.1667 21.8834 32.3134 21.3359 32.3134C20.7885 32.3134 20.2144 32.18 19.6937 31.9134C19.173 31.6467 18.719 31.2334 18.3318 30.66L0.347143 3.91337C0.120165 3.54004 0 3.16671 0 2.78004C0 2.48671 0.0667582 2.19337 0.186923 1.91337C0.32044 1.63337 0.480659 1.39337 0.694286 1.19337C0.89456 0.98004 1.14824 0.820039 1.41527 0.713373C1.69566 0.593373 1.97604 0.540039 2.28313 0.540039C2.60357 0.540039 2.93736 0.633372 3.27115 0.820039C3.60494 1.00671 3.91203 1.30004 4.19242 1.71337L21.4027 28.1934V28.18Z" fill="black"/>
<path d="M84.969 9.19327C84.969 6.0866 82.4322 4.5266 77.3585 4.5266H66.0497C60.6556 4.5266 57.9586 6.0866 57.9586 9.19327V12.4733C57.9586 14.0866 57.1575 14.8866 55.5686 14.8866C53.9798 14.8866 53.2188 14.0866 53.2188 12.4733V9.01993C53.2188 3.51327 57.8251 0.766602 67.0511 0.766602H75.7964C85.009 0.766602 89.6287 3.51327 89.6287 9.01993V12.4733C89.6287 14.0866 88.8409 14.8866 87.2788 14.8866C85.7167 14.8866 84.969 14.1133 84.969 12.5799V9.19327ZM89.6287 23.9399C89.6287 29.4199 85.0224 32.1533 75.7964 32.1533H67.0511C57.8384 32.1533 53.2188 29.4333 53.2188 24.0066V20.2733C53.2188 18.6866 54.0065 17.8866 55.5686 17.8866C57.1308 17.8866 57.9586 18.6866 57.9586 20.2733V23.8599C57.9586 26.8733 60.6556 28.3799 66.0497 28.3799H77.0381C82.312 28.3799 84.9556 26.8733 84.9556 23.8599V20.2733C84.9556 18.6866 85.73 17.8866 87.2655 17.8866C88.8009 17.8866 89.6153 18.6866 89.6153 20.2733V23.9399H89.6287Z" fill="black"/>
<path d="M138.989 28.8334C139.457 29.2734 139.684 29.7134 139.684 30.18C139.684 30.46 139.617 30.7133 139.483 30.9533C139.35 31.1933 139.163 31.4067 138.949 31.5934C138.736 31.78 138.482 31.9267 138.202 32.02C137.921 32.1134 137.641 32.18 137.334 32.18C137.107 32.18 136.866 32.14 136.639 32.0733C136.412 32.0067 136.199 31.8734 136.012 31.7L121.632 19.2067L107.212 31.7C106.999 31.8867 106.785 32.02 106.558 32.1C106.331 32.18 106.091 32.22 105.864 32.22C105.583 32.22 105.316 32.1534 105.049 32.0334C104.782 31.9134 104.542 31.74 104.342 31.5534C104.128 31.3534 103.968 31.14 103.834 30.8867C103.701 30.6334 103.647 30.3667 103.647 30.0867C103.647 29.8734 103.688 29.6734 103.781 29.4467C103.874 29.2334 104.035 29.0334 104.262 28.8467L118.535 16.4467L104.262 4.04668C103.821 3.67335 103.607 3.24668 103.607 2.74002C103.607 2.23335 103.821 1.72668 104.262 1.28668C104.702 0.846683 105.223 0.63335 105.824 0.63335C106.331 0.63335 106.798 0.820017 107.239 1.18002L138.976 28.8334H138.989ZM128.615 13.1267C128.108 13.5667 127.56 13.78 126.986 13.78C126.412 13.78 125.905 13.58 125.477 13.1934C125.05 12.8067 124.837 12.34 124.837 11.8067C124.837 11.5533 124.89 11.3 125.01 11.06C125.13 10.82 125.317 10.5667 125.598 10.3134L135.932 1.19335C136.506 0.686684 137.067 0.43335 137.627 0.43335C138.188 0.43335 138.682 0.646684 139.083 1.07335C139.483 1.50002 139.67 1.98002 139.67 2.50002C139.67 2.75335 139.617 3.00668 139.497 3.27335C139.376 3.54002 139.19 3.79335 138.909 4.04668L128.602 13.0867L128.615 13.1267Z" fill="black"/>
<path d="M185.414 9.19327C185.414 6.0866 182.877 4.5266 177.804 4.5266H166.495C161.101 4.5266 158.404 6.0866 158.404 9.19327V12.4733C158.404 14.0866 157.603 14.8866 156.014 14.8866C154.425 14.8866 153.664 14.0866 153.664 12.4733V9.01993C153.664 3.51327 158.27 0.766602 167.496 0.766602H176.242C185.454 0.766602 190.074 3.51327 190.074 9.01993V12.4733C190.074 14.0866 189.286 14.8866 187.724 14.8866C186.162 14.8866 185.414 14.1133 185.414 12.5799V9.19327ZM190.074 23.9399C190.074 29.4199 185.468 32.1533 176.242 32.1533H167.496C158.284 32.1533 153.664 29.4333 153.664 24.0066V20.2733C153.664 18.6866 154.452 17.8866 156.014 17.8866C157.576 17.8866 158.404 18.6866 158.404 20.2733V23.8599C158.404 26.8733 161.101 28.3799 166.495 28.3799H177.483C182.757 28.3799 185.401 26.8733 185.401 23.8599V20.2733C185.401 18.6866 186.175 17.8866 187.711 17.8866C189.246 17.8866 190.061 18.6866 190.061 20.2733V23.9399H190.074Z" fill="black"/>
<path d="M205.869 9.19307C205.869 3.44641 211.023 0.566406 221.317 0.566406H228.366C238.113 0.566406 242.986 3.44641 242.986 9.19307V30.1797C242.986 31.4731 242.212 32.1131 240.65 32.1131C239.088 32.1131 238.247 31.4731 238.247 30.1797V9.56641C238.247 6.07307 235.176 4.31307 229.034 4.31307H220.542C213.84 4.31307 210.488 6.04641 210.488 9.52641V30.1664C210.488 31.4597 209.687 32.0997 208.099 32.0997C206.603 32.0997 205.855 31.4597 205.855 30.1664V9.17974L205.869 9.19307Z" fill="black"/>
</g>
<defs>
<clipPath id="clip0_29301_1290">
<rect width="243" height="32" fill="white" transform="translate(0 0.393311)"/>
</clipPath>
</defs>
</svg>
