<svg width="359" height="52" viewBox="0 0 359 52" fill="none" xmlns="http://www.w3.org/2000/svg">
<path d="M46.22 13.6001H53.49L42.92 45.5501H34.58L26.68 21.4401L18.78 45.5501H10.57L0 13.6001H7.44L14.94 37.8801L22.81 13.6001H30.71L38.71 38.0101L46.22 13.6001Z" fill="black"/>
<path d="M84.6701 32.1401H61.0901C61.3077 33.7876 61.9258 35.3567 62.8901 36.7101C63.7444 37.8943 64.9015 38.8269 66.2401 39.4101C67.6035 39.999 69.0751 40.2954 70.5601 40.2801C72.2062 40.2739 73.8381 39.9759 75.3801 39.4001C76.9789 38.8155 78.4717 37.9745 79.8001 36.9101L83.2701 41.9101C81.5006 43.453 79.4401 44.6261 77.2101 45.3601C74.9198 46.0791 72.5306 46.4334 70.1301 46.4101C67.1736 46.4684 64.2534 45.7513 61.6601 44.3301C59.2072 42.9555 57.1983 40.9085 55.8701 38.4301C54.4414 35.7136 53.7257 32.6788 53.7901 29.6101C53.7288 26.5703 54.4156 23.5621 55.7901 20.8501C57.0673 18.3834 59.0155 16.3278 61.4101 14.9201C63.9226 13.4742 66.7819 12.7412 69.6801 12.8001C72.4151 12.7244 75.1139 13.4388 77.4533 14.8577C79.7926 16.2766 81.6733 18.3397 82.8701 20.8001C84.1914 23.5209 84.8493 26.516 84.7901 29.5401C84.8001 30.2101 84.7601 31.0801 84.6701 32.1401ZM77.6701 26.8401C77.4552 24.6505 76.5156 22.5952 75.0001 21.0001C74.2736 20.3193 73.4177 19.7914 72.4832 19.4478C71.5487 19.1042 70.5546 18.952 69.5601 19.0001C68.5133 18.9522 67.4675 19.1152 66.4849 19.4794C65.5023 19.8436 64.6029 20.4015 63.8401 21.1201C62.3298 22.6918 61.3656 24.7079 61.0901 26.8701L77.6701 26.8401Z" fill="black"/>
<path d="M114.5 14.94C116.933 16.3789 118.927 18.4531 120.27 20.94C121.706 23.5906 122.436 26.5659 122.39 29.58C122.436 32.591 121.706 35.563 120.27 38.21C118.927 40.7083 116.925 42.7908 114.481 44.2312C112.038 45.6716 109.246 46.4148 106.41 46.38C104.42 46.4217 102.446 46.0078 100.64 45.17C98.985 44.3719 97.5372 43.2013 96.4102 41.75V45.55H89.4102V0H96.4102V17.4C97.542 15.9585 98.989 14.7954 100.64 14C102.444 13.1539 104.418 12.7364 106.41 12.78C109.254 12.7452 112.052 13.4924 114.5 14.94ZM110.68 38.45C112.132 37.5574 113.301 36.2708 114.05 34.74C114.819 33.1268 115.219 31.3622 115.219 29.575C115.219 27.7878 114.819 26.0232 114.05 24.41C113.298 22.8813 112.13 21.5956 110.68 20.7C109.139 19.8186 107.395 19.3549 105.62 19.3549C103.845 19.3549 102.101 19.8186 100.56 20.7C99.1069 21.5825 97.9292 22.8537 97.1602 24.37C96.3284 25.9896 95.9093 27.7895 95.9402 29.61C95.9085 31.4274 96.3276 33.2242 97.1602 34.84C97.9292 36.3563 99.1069 37.6275 100.56 38.51C102.101 39.3914 103.845 39.8551 105.62 39.8551C107.395 39.8551 109.139 39.3914 110.68 38.51V38.45Z" fill="black"/>
<path d="M156.93 32.1401H133.36C133.577 33.7876 134.195 35.3567 135.16 36.7101C136.014 37.8942 137.171 38.8268 138.51 39.4101C139.873 39.9989 141.345 40.2953 142.83 40.2801C144.476 40.2724 146.107 39.9745 147.65 39.4001C149.248 38.8155 150.741 37.9745 152.07 36.9101L155.53 41.9101C153.765 43.4549 151.708 44.6283 149.48 45.3601C147.186 46.0784 144.793 46.4327 142.39 46.4101C139.433 46.4651 136.514 45.7482 133.92 44.3301C131.472 42.9522 129.467 40.9057 128.14 38.4301C126.708 35.7143 125.989 32.6796 126.05 29.6101C125.989 26.5703 126.676 23.5622 128.05 20.8501C129.327 18.3833 131.275 16.3277 133.67 14.9201C136.197 13.453 139.078 12.7092 142 12.7701C144.734 12.6981 147.431 13.4141 149.77 14.8325C152.108 16.2509 153.99 18.3121 155.19 20.7701C156.511 23.4909 157.169 26.486 157.11 29.5101C157.07 30.2101 157 31.0801 156.93 32.1401ZM149.93 26.8401C149.699 24.6645 148.757 22.6258 147.25 21.0401C146.528 20.3555 145.677 19.8222 144.746 19.4719C143.815 19.1215 142.823 18.9611 141.83 19.0001C140.783 18.951 139.737 19.1135 138.754 19.4777C137.771 19.8419 136.872 20.4005 136.11 21.1201C134.596 22.6893 133.631 24.7066 133.36 26.8701L149.93 26.8401Z" fill="black"/>
<path d="M190.18 45.5501H181.61L173.51 34.4401L165.51 45.5501H157.34L169.34 29.2401L157.53 13.6001H166.11L173.91 24.2701L181.71 13.6001H190L178.14 29.1801L190.18 45.5501Z" fill="black"/>
<path d="M281.581 22.2991H275.791V45.6275H281.581V22.2991Z" fill="black"/>
<path d="M328.507 28.982C327.009 28.1569 325.33 27.7294 323.624 27.7392C319.854 27.7392 317.242 30.3876 317.242 33.9601C317.242 37.4284 319.745 40.1875 323.624 40.1875C325.328 40.194 327.007 39.7691 328.507 38.9511V45.2111C326.789 45.7466 325.003 46.0251 323.206 46.0375C316.663 46.0375 310.925 41.4824 310.925 33.9601C310.925 26.9973 316.123 21.8892 323.206 21.8892C325.004 21.8937 326.792 22.1748 328.507 22.7221V28.982Z" fill="black"/>
<path d="M267.767 28.982C266.268 28.1563 264.586 27.7288 262.878 27.7392C259.108 27.7392 256.503 30.3876 256.503 33.9601C256.503 37.4284 258.999 40.1875 262.878 40.1875C264.584 40.1914 266.264 39.7665 267.767 38.9511V45.2111C266.047 45.7466 264.259 46.0251 262.46 46.0375C255.917 46.0375 250.179 41.4824 250.179 33.9601C250.179 26.9973 255.377 21.8892 262.46 21.8892C264.261 21.8937 266.05 22.1742 267.767 22.7221V28.982Z" fill="black"/>
<path d="M346.815 27.8238C346.019 27.8166 345.229 27.9708 344.493 28.2773C343.757 28.5838 343.088 29.0367 342.528 29.6087C341.968 30.1807 341.526 30.86 341.229 31.6077C340.932 32.3547 340.786 33.1551 340.8 33.9601C340.784 34.7663 340.929 35.5674 341.225 36.3157C341.521 37.064 341.962 37.7453 342.523 38.318C343.084 38.8906 343.753 39.3442 344.491 39.6506C345.228 39.9571 346.018 40.1107 346.815 40.1029C347.612 40.1101 348.403 39.9558 349.139 39.6487C349.877 39.3415 350.546 38.8887 351.107 38.316C351.668 37.744 352.11 37.0634 352.408 36.315C352.705 35.5667 352.851 34.7663 352.837 33.9601C352.85 33.1545 352.703 32.3547 352.406 31.6071C352.108 30.8594 351.666 30.18 351.105 29.608C350.543 29.0361 349.875 28.5838 349.138 28.2773C348.401 27.9708 347.612 27.8166 346.815 27.8238ZM359 33.9601C359 40.6365 353.911 46.0375 346.815 46.0375C339.719 46.0375 334.637 40.6365 334.637 33.9601C334.637 27.2837 339.726 21.8892 346.815 21.8892C353.905 21.8892 359 27.2967 359 33.9601Z" fill="black"/>
<path d="M303.653 27.6025C302.168 27.1899 300.642 26.9524 299.104 26.8932C296.775 26.8932 295.508 27.6806 295.508 28.7998C295.508 30.2249 297.219 30.752 298.171 31.0253L299.78 31.5394C303.556 32.7562 305.274 35.3721 305.274 38.2158C305.274 44.0723 300.185 46.0245 295.727 46.0245C293.619 45.9991 291.517 45.7811 289.448 45.3737V40.0053C291.236 40.5291 293.082 40.82 294.942 40.8707C297.837 40.8707 299.169 40.0183 299.169 38.6908C299.169 37.513 298.017 36.8297 296.595 36.3677L295.354 35.9643C292.137 34.9296 289.409 33.0035 289.409 29.1382C289.409 24.7783 292.626 21.8501 298.004 21.8501C299.915 21.8768 301.817 22.126 303.672 22.5919L303.653 27.6025Z" fill="black"/>
<path d="M209.528 45.5496H207V22.2732H210.069V31.0645C210.682 30.1547 211.516 29.4194 212.49 28.9275C213.464 28.4355 214.546 28.2032 215.634 28.2533C216.699 28.2019 217.76 28.4121 218.728 28.8657C219.696 29.3186 220.541 30.0018 221.192 30.8562C222.363 32.4095 222.948 34.4677 222.948 37.0316C222.948 40.0685 222.15 42.3955 220.555 44.0139C219.879 44.69 219.075 45.2196 218.19 45.5697C217.304 45.9198 216.358 46.0838 215.408 46.0506C214.353 46.1053 213.301 45.8847 212.355 45.409C211.409 44.934 210.599 44.2201 210.004 43.3371L209.528 45.5496ZM219.751 36.947C219.751 34.8341 219.23 33.2509 218.188 32.1967C217.763 31.762 217.254 31.4217 216.692 31.1979C216.131 30.9734 215.529 30.8705 214.926 30.8953C214.218 30.866 213.514 31.0052 212.87 31.3026C212.227 31.6 211.662 32.0471 211.22 32.6067C210.307 33.8567 209.853 35.3885 209.934 36.9405C209.934 39.0944 210.455 40.7472 211.503 41.886C211.933 42.3773 212.465 42.7651 213.061 43.0228C213.658 43.2805 214.303 43.4015 214.952 43.3761C215.659 43.4165 216.365 43.274 217.003 42.9623C217.641 42.6499 218.191 42.1788 218.599 41.5932C219.375 40.4999 219.764 38.9512 219.764 36.947H219.751Z" fill="black"/>
<path d="M239.39 28.7347L233.6 45.7706C232.828 48.0351 232.093 49.5774 231.394 50.3973C230.999 50.8677 230.506 51.2425 229.949 51.4937C229.392 51.7449 228.786 51.8659 228.177 51.8484C227.508 51.8315 226.843 51.7351 226.196 51.5621V49.0242C226.719 49.1648 227.256 49.2409 227.797 49.252C228.089 49.2663 228.38 49.211 228.646 49.09C228.912 48.9689 229.146 48.7861 229.329 48.5557C229.915 47.6141 230.378 46.599 230.705 45.5364H229.715L223.609 28.7217H226.897L231.6 43.0376L236.296 28.7217L239.39 28.7347Z" fill="black"/>
</svg>
