<svg width="164" height="28" viewBox="0 0 164 28" fill="none" xmlns="http://www.w3.org/2000/svg">
<path fill-rule="evenodd" clip-rule="evenodd" d="M52.6993 10.206C52.112 9.11685 51.2395 8.20788 50.1753 7.57632C49.1023 6.93999 47.8751 6.61092 46.6276 6.6251C45.7565 6.60792 44.893 6.79086 44.1036 7.15986C43.3786 7.51049 42.7434 8.0226 42.2469 8.65689V1.02979H39.1929V20.9927H42.2469V19.3269C42.7438 19.9612 43.3788 20.4737 44.1036 20.8255C44.8935 21.1932 45.7567 21.3756 46.6276 21.3587C47.87 21.3718 49.0922 21.0453 50.1624 20.4141C51.2324 19.783 52.1098 18.8713 52.6993 17.7778C53.309 16.609 53.6273 15.3102 53.6273 13.9919C53.6273 12.6736 53.309 11.3748 52.6993 10.206ZM49.9782 16.2572C49.6491 16.9258 49.1378 17.4881 48.5032 17.8788C47.8298 18.2691 47.0657 18.4757 46.2872 18.4782C45.5089 18.4808 44.7435 18.279 44.0673 17.893C43.431 17.5059 42.9148 16.9493 42.5766 16.2856C42.2261 15.5715 42.0438 14.7866 42.0438 13.9911C42.0438 13.1956 42.2261 12.4108 42.5766 11.6967C42.9148 11.033 43.431 10.4764 44.0673 10.0892C44.7435 9.70331 45.5089 9.5015 46.2872 9.504C47.0657 9.50647 47.8298 9.71319 48.5032 10.1034C49.1378 10.4949 49.6491 11.0575 49.9782 11.7267C50.3157 12.4341 50.4908 13.2081 50.4908 13.9919C50.4908 14.7758 50.3157 15.5497 49.9782 16.2572Z" fill="black"/>
<path fill-rule="evenodd" clip-rule="evenodd" d="M37.1107 15.1165H26.7719C26.8675 15.8382 27.1383 16.5255 27.5606 17.1184C27.9368 17.6363 28.4437 18.045 29.0292 18.3031C29.6271 18.5592 30.2718 18.6883 30.9222 18.6817C31.6431 18.6785 32.3577 18.5476 33.0329 18.2952C33.7334 18.0398 34.3876 17.6722 34.97 17.2067L36.4891 19.3836C35.7154 20.0602 34.8137 20.5746 33.8374 20.8964C32.8327 21.2121 31.7845 21.3675 30.7313 21.3571C29.434 21.382 28.1528 21.0671 27.0148 20.4437C25.944 19.8397 25.0683 18.9421 24.4908 17.8566C23.8819 16.7419 23.5775 15.4536 23.5775 13.9918C23.5513 12.6597 23.8548 11.3418 24.4609 10.1554C25.0193 9.07291 25.8732 8.17092 26.9233 7.55411C28.0263 6.9216 29.2804 6.60048 30.5515 6.62498C31.7636 6.60292 32.9572 6.92509 33.9936 7.55411C34.9973 8.18336 35.8042 9.08196 36.3219 10.1475C36.9005 11.3394 37.1887 12.6514 37.1627 13.976C37.1627 14.2694 37.1454 14.6496 37.1107 15.1165ZM34.0346 12.7929C33.8696 11.7013 33.4773 10.8537 32.8578 10.25C32.2385 9.64637 31.4497 9.34455 30.4916 9.34455C29.4484 9.34455 28.6128 9.65373 27.9849 10.2721C27.3571 10.8905 26.9555 11.7318 26.7798 12.7961L34.0346 12.7929Z" fill="black"/>
<path d="M23.4413 6.99108H20.2548L16.9532 17.6896L13.459 6.99108H9.99648L6.54653 17.6296L3.25907 6.99108H0L4.63305 20.9912H8.22182L11.6844 10.4221L15.1548 20.9912H18.8114L23.4413 6.99108Z" fill="black"/>
<path fill-rule="evenodd" clip-rule="evenodd" d="M68.7717 15.1166H58.4392C58.5348 15.8382 58.8055 16.5255 59.228 17.1184C59.6048 17.6361 60.1121 18.0448 60.6982 18.3031C61.296 18.5594 61.9407 18.6883 62.5911 18.6817C63.3125 18.6787 64.0276 18.5477 64.7034 18.2952C65.4035 18.0401 66.0573 17.6725 66.6389 17.2067L68.1596 19.3836C67.3848 20.0604 66.482 20.5748 65.5047 20.8964C64.5005 21.2121 63.4529 21.3675 62.4003 21.3571C61.1045 21.3817 59.8249 21.0668 58.6885 20.4437C57.6131 19.8414 56.7328 18.9437 56.1519 17.8566C55.543 16.7419 55.2385 15.4536 55.2385 13.9918C55.2128 12.6596 55.5168 11.3417 56.1235 10.1554C56.6814 9.07261 57.5353 8.17054 58.5859 7.55413C59.6889 6.92148 60.9428 6.60034 62.2141 6.62499C63.4262 6.6025 64.6199 6.92471 65.6562 7.55413C66.6634 8.18201 67.4736 9.08075 67.994 10.1475C68.5726 11.3394 68.8607 12.6514 68.8348 13.976C68.8316 14.2695 68.8107 14.6496 68.7717 15.1166ZM65.7035 12.7929C65.5363 11.7013 65.144 10.8537 64.5267 10.25C63.9094 9.64638 63.1175 9.34456 62.151 9.34456C61.1088 9.34456 60.2733 9.65375 59.6444 10.2721C59.0155 10.8905 58.6138 11.7318 58.4392 12.7961L65.7035 12.7929Z" fill="black"/>
<path d="M83.3429 20.9912H79.587L76.0345 16.1247L72.5278 20.9912H68.9469L74.2235 13.8452L69.0352 6.99108H72.7912L76.2112 11.6683L79.6296 6.99108H83.2404L78.0663 13.8153L83.3429 20.9912Z" fill="black"/>
<path d="M163.16 12.1404V10.4998H161.006V7.98413H158.962V10.4998H157.424V12.1404H158.962V18.3406C158.962 18.974 159.106 19.5004 159.393 19.9197C159.68 20.3389 160.056 20.6488 160.521 20.8494C160.986 21.0499 161.487 21.1456 162.025 21.1365C162.353 21.1319 162.626 21.1046 162.845 21.0544C163.064 21.0089 163.233 20.9633 163.351 20.9177L162.982 19.2292C162.914 19.2429 162.818 19.2611 162.695 19.2839C162.572 19.3067 162.428 19.3181 162.264 19.3181C162.041 19.3181 161.833 19.2839 161.642 19.2156C161.455 19.1427 161.303 19.0082 161.184 18.8123C161.066 18.6117 161.006 18.3132 161.006 17.9167V12.1404H163.16Z" fill="black"/>
<path d="M152.609 21.2117C151.593 21.2117 150.718 20.9815 149.984 20.5212C149.255 20.0564 148.694 19.4161 148.302 18.6003C147.911 17.7846 147.715 16.8503 147.715 15.7976C147.715 14.7312 147.915 13.7901 148.316 12.9744C148.717 12.1541 149.282 11.5138 150.011 11.0535C150.741 10.5932 151.6 10.363 152.589 10.363C153.386 10.363 154.097 10.5111 154.721 10.8074C155.346 11.099 155.849 11.5092 156.232 12.0378C156.62 12.5665 156.85 13.184 156.923 13.8904H154.933C154.824 13.3982 154.573 12.9744 154.181 12.6189C153.794 12.2634 153.274 12.0857 152.623 12.0857C152.053 12.0857 151.554 12.2361 151.126 12.5369C150.702 12.8331 150.372 13.2569 150.135 13.8083C149.898 14.3552 149.779 15.0024 149.779 15.7498C149.779 16.5154 149.895 17.1762 150.128 17.7322C150.36 18.2882 150.688 18.7188 151.112 19.0242C151.54 19.3295 152.044 19.4822 152.623 19.4822C153.01 19.4822 153.361 19.4115 153.676 19.2703C153.995 19.1244 154.261 18.9171 154.475 18.6482C154.694 18.3793 154.847 18.0557 154.933 17.6775H156.923C156.85 18.3565 156.629 18.9626 156.26 19.4958C155.89 20.0291 155.396 20.4483 154.776 20.7537C154.161 21.059 153.439 21.2117 152.609 21.2117Z" fill="black"/>
<path fill-rule="evenodd" clip-rule="evenodd" d="M139.591 20.5486C140.338 20.9906 141.229 21.2117 142.264 21.2117C143.029 21.2117 143.711 21.0955 144.308 20.863C144.909 20.6261 145.408 20.2957 145.805 19.8718C146.206 19.4434 146.484 18.9444 146.639 18.3748L144.704 18.0261C144.581 18.3542 144.403 18.63 144.171 18.8533C143.938 19.0766 143.663 19.2452 143.344 19.3591C143.025 19.4685 142.672 19.5232 142.284 19.5232C141.687 19.5232 141.165 19.3956 140.719 19.1404C140.272 18.8806 139.924 18.5046 139.673 18.0125C139.444 17.5542 139.321 17.005 139.305 16.365H146.769V15.6404C146.769 14.6879 146.641 13.879 146.386 13.2136C146.131 12.5437 145.782 11.9991 145.34 11.5798C144.898 11.1606 144.399 10.8529 143.843 10.657C143.287 10.461 142.713 10.363 142.12 10.363C141.145 10.363 140.293 10.5932 139.563 11.0535C138.839 11.5138 138.274 12.1541 137.868 12.9744C137.467 13.7947 137.267 14.7426 137.267 15.8181C137.267 16.9073 137.467 17.8575 137.868 18.6687C138.274 19.4753 138.848 20.102 139.591 20.5486ZM139.309 14.8337H144.766C144.766 14.296 144.656 13.8197 144.438 13.405C144.219 12.9858 143.911 12.6554 143.515 12.4138C143.123 12.1723 142.662 12.0515 142.134 12.0515C141.56 12.0515 141.058 12.1928 140.63 12.4753C140.206 12.7533 139.878 13.1179 139.646 13.5691C139.446 13.9608 139.333 14.3824 139.309 14.8337Z" fill="black"/>
<path d="M129.127 14.7654V20.9998H127.083V10.4998H129.045V12.2087H129.175C129.417 11.6528 129.795 11.2061 130.31 10.8689C130.829 10.5317 131.483 10.363 132.272 10.363C132.987 10.363 133.614 10.5134 134.152 10.8142C134.689 11.1104 135.106 11.5525 135.403 12.1404C135.699 12.7283 135.847 13.4552 135.847 14.321V20.9998H133.803V14.5671C133.803 13.8061 133.605 13.2113 133.208 12.783C132.812 12.35 132.267 12.1335 131.574 12.1335C131.101 12.1335 130.679 12.2361 130.31 12.4412C129.945 12.6462 129.656 12.947 129.442 13.3435C129.232 13.7354 129.127 14.2094 129.127 14.7654Z" fill="black"/>
<path d="M118.472 20.9998V14.7654C118.472 14.2094 118.577 13.7354 118.787 13.3435C119.001 12.947 119.29 12.6462 119.655 12.4412C120.024 12.2361 120.446 12.1335 120.92 12.1335C121.612 12.1335 122.157 12.35 122.553 12.783C122.95 13.2113 123.148 13.8061 123.148 14.5671V20.9998H125.192V14.321C125.192 13.4552 125.044 12.7283 124.748 12.1404C124.452 11.5525 124.035 11.1104 123.497 10.8142C122.959 10.5134 122.332 10.363 121.617 10.363C120.829 10.363 120.175 10.5317 119.655 10.8689C119.14 11.2061 118.762 11.6528 118.52 12.2087H118.39V10.4998H116.428V20.9998H118.472Z" fill="black"/>
<path fill-rule="evenodd" clip-rule="evenodd" d="M110.102 21.2117C109.118 21.2117 108.259 20.9861 107.525 20.5349C106.791 20.0837 106.222 19.4526 105.816 18.6414C105.411 17.8302 105.208 16.8822 105.208 15.7976C105.208 14.7084 105.411 13.7559 105.816 12.9402C106.222 12.1244 106.791 11.491 107.525 11.0398C108.259 10.5886 109.118 10.363 110.102 10.363C111.087 10.363 111.946 10.5886 112.679 11.0398C113.413 11.491 113.983 12.1244 114.388 12.9402C114.794 13.7559 114.997 14.7084 114.997 15.7976C114.997 16.8822 114.794 17.8302 114.388 18.6414C113.983 19.4526 113.413 20.0837 112.679 20.5349C111.946 20.9861 111.087 21.2117 110.102 21.2117ZM110.109 19.4958C110.747 19.4958 111.276 19.3272 111.695 18.99C112.114 18.6528 112.424 18.2039 112.625 17.6433C112.83 17.0828 112.932 16.4653 112.932 15.7908C112.932 15.1208 112.83 14.5056 112.625 13.9451C112.424 13.38 112.114 12.9265 111.695 12.5847C111.276 12.2429 110.747 12.072 110.109 12.072C109.467 12.072 108.933 12.2429 108.51 12.5847C108.09 12.9265 107.778 13.38 107.573 13.9451C107.372 14.5056 107.272 15.1208 107.272 15.7908C107.272 16.4653 107.372 17.0828 107.573 17.6433C107.778 18.2039 108.09 18.6528 108.51 18.99C108.933 19.3272 109.467 19.4958 110.109 19.4958Z" fill="black"/>
<path d="M102.033 11.5525H104.166C104.048 10.8005 103.82 10.1329 103.482 9.54956C103.145 8.96167 102.719 8.46493 102.204 8.05933C101.689 7.64917 101.108 7.33927 100.461 7.12964C99.8184 6.91545 99.1256 6.80835 98.3828 6.80835C97.1751 6.80835 96.0973 7.09774 95.1494 7.67651C94.2015 8.25073 93.4541 9.0756 92.9072 10.1511C92.3604 11.2221 92.0869 12.505 92.0869 13.9998C92.0869 15.49 92.3581 16.7729 92.9004 17.8484C93.4473 18.9239 94.1947 19.7511 95.1426 20.3298C96.0905 20.9041 97.1706 21.1912 98.3828 21.1912C99.153 21.1912 99.8639 21.0772 100.516 20.8494C101.167 20.6215 101.746 20.3002 102.252 19.8855C102.762 19.4662 103.179 18.9695 103.503 18.3953C103.831 17.8165 104.052 17.183 104.166 16.4949L102.033 16.488C101.947 16.9347 101.789 17.3311 101.562 17.6775C101.338 18.0193 101.065 18.3087 100.741 18.5457C100.418 18.7826 100.055 18.9626 99.6543 19.0857C99.2578 19.2042 98.8385 19.2634 98.3965 19.2634C97.599 19.2634 96.8812 19.0629 96.2432 18.6619C95.6051 18.2608 95.1016 17.6684 94.7324 16.8845C94.3678 16.1007 94.1855 15.1391 94.1855 13.9998C94.1855 12.8695 94.3678 11.9125 94.7324 11.1287C95.1016 10.3448 95.6029 9.75008 96.2363 9.34448C96.8744 8.93888 97.5967 8.73608 98.4033 8.73608C98.8499 8.73608 99.2715 8.79761 99.668 8.92065C100.069 9.0437 100.431 9.22599 100.755 9.46753C101.078 9.70907 101.352 10.003 101.575 10.3494C101.799 10.6957 101.951 11.0968 102.033 11.5525Z" fill="black"/>
</svg>
