<svg width="177" height="28" viewBox="0 0 177 28" fill="none" xmlns="http://www.w3.org/2000/svg">
<path fill-rule="evenodd" clip-rule="evenodd" d="M50.1753 7.57632C51.2395 8.20788 52.112 9.11685 52.6993 10.206C53.309 11.3748 53.6273 12.6736 53.6273 13.9919C53.6273 15.3102 53.309 16.609 52.6993 17.7778C52.1098 18.8713 51.2324 19.783 50.1624 20.4141C49.0922 21.0453 47.87 21.3718 46.6276 21.3587C45.7567 21.3756 44.8935 21.1932 44.1036 20.8255C43.3788 20.4737 42.7438 19.9612 42.2469 19.3269V20.9927H39.1929V1.02979H42.2469V8.65689C42.7434 8.0226 43.3786 7.51049 44.1036 7.15986C44.893 6.79086 45.7565 6.60792 46.6276 6.6251C47.8751 6.61092 49.1023 6.93999 50.1753 7.57632ZM48.5032 17.8788C49.1378 17.4881 49.6491 16.9258 49.9782 16.2572C50.3157 15.5497 50.4908 14.7758 50.4908 13.9919C50.4908 13.2081 50.3157 12.4341 49.9782 11.7267C49.6491 11.0575 49.1378 10.4949 48.5032 10.1034C47.8298 9.71319 47.0657 9.50647 46.2872 9.504C45.5089 9.5015 44.7435 9.70331 44.0673 10.0892C43.431 10.4764 42.9148 11.033 42.5766 11.6967C42.2261 12.4108 42.0438 13.1956 42.0438 13.9911C42.0438 14.7866 42.2261 15.5715 42.5766 16.2856C42.9148 16.9493 43.431 17.5059 44.0673 17.893C44.7435 18.279 45.5089 18.4808 46.2872 18.4782C47.0657 18.4757 47.8298 18.2691 48.5032 17.8788Z" fill="white"/>
<path fill-rule="evenodd" clip-rule="evenodd" d="M26.7719 15.1165H37.1107C37.1454 14.6496 37.1627 14.2694 37.1627 13.976C37.1887 12.6514 36.9005 11.3394 36.3219 10.1475C35.8042 9.08196 34.9973 8.18336 33.9936 7.55411C32.9572 6.92509 31.7636 6.60292 30.5515 6.62498C29.2804 6.60048 28.0263 6.9216 26.9233 7.55411C25.8732 8.17092 25.0193 9.07291 24.4609 10.1554C23.8548 11.3418 23.5513 12.6597 23.5775 13.9918C23.5775 15.4536 23.8819 16.7419 24.4908 17.8566C25.0683 18.9421 25.944 19.8397 27.0148 20.4437C28.1528 21.0671 29.434 21.382 30.7313 21.3571C31.7845 21.3675 32.8327 21.2121 33.8374 20.8964C34.8137 20.5746 35.7154 20.0602 36.4891 19.3836L34.97 17.2067C34.3876 17.6722 33.7334 18.0398 33.0329 18.2952C32.3577 18.5476 31.6431 18.6785 30.9222 18.6817C30.2718 18.6883 29.6271 18.5592 29.0292 18.3031C28.4437 18.045 27.9368 17.6363 27.5606 17.1184C27.1383 16.5255 26.8675 15.8382 26.7719 15.1165ZM32.8578 10.25C33.4773 10.8537 33.8696 11.7013 34.0346 12.7929L26.7798 12.7961C26.9555 11.7318 27.3571 10.8905 27.9849 10.2721C28.6128 9.65373 29.4484 9.34455 30.4916 9.34455C31.4497 9.34455 32.2385 9.64637 32.8578 10.25Z" fill="white"/>
<path d="M20.2548 6.99108H23.4413L18.8114 20.9912H15.1548L11.6844 10.4221L8.22182 20.9912H4.63305L0 6.99108H3.25907L6.54653 17.6296L9.99648 6.99108H13.459L16.9532 17.6896L20.2548 6.99108Z" fill="white"/>
<path fill-rule="evenodd" clip-rule="evenodd" d="M58.4392 15.1166H68.7717C68.8107 14.6496 68.8316 14.2695 68.8348 13.976C68.8607 12.6514 68.5726 11.3394 67.994 10.1475C67.4736 9.08075 66.6634 8.18201 65.6562 7.55413C64.6199 6.92471 63.4262 6.6025 62.2141 6.62499C60.9428 6.60034 59.6889 6.92148 58.5859 7.55413C57.5353 8.17054 56.6814 9.07261 56.1235 10.1554C55.5168 11.3417 55.2128 12.6596 55.2385 13.9918C55.2385 15.4536 55.543 16.7419 56.1519 17.8566C56.7328 18.9437 57.6131 19.8414 58.6885 20.4437C59.8249 21.0668 61.1045 21.3817 62.4003 21.3571C63.4529 21.3675 64.5005 21.2121 65.5047 20.8964C66.482 20.5748 67.3848 20.0604 68.1596 19.3836L66.6389 17.2067C66.0573 17.6725 65.4035 18.0401 64.7034 18.2952C64.0276 18.5477 63.3125 18.6787 62.5911 18.6817C61.9407 18.6883 61.296 18.5594 60.6982 18.3031C60.1121 18.0448 59.6048 17.6361 59.228 17.1184C58.8055 16.5255 58.5348 15.8382 58.4392 15.1166ZM64.5267 10.25C65.144 10.8537 65.5363 11.7013 65.7035 12.7929L58.4392 12.7961C58.6138 11.7318 59.0155 10.8905 59.6444 10.2721C60.2733 9.65375 61.1088 9.34456 62.151 9.34456C63.1175 9.34456 63.9094 9.64638 64.5267 10.25Z" fill="white"/>
<path d="M79.587 20.9912H83.3429L78.0663 13.8153L83.2404 6.99108H79.6296L76.2112 11.6683L72.7912 6.99108H69.0352L74.2235 13.8452L68.9469 20.9912H72.5278L76.0345 16.1247L79.587 20.9912Z" fill="white"/>
<path d="M170.111 14.7654V20.9998H168.067V10.4998H170.029V12.2087H170.159C170.401 11.6528 170.779 11.2061 171.294 10.8689C171.813 10.5317 172.467 10.363 173.256 10.363C173.971 10.363 174.598 10.5134 175.136 10.8142C175.674 11.1104 176.09 11.5525 176.387 12.1404C176.683 12.7283 176.831 13.4552 176.831 14.321V20.9998H174.787V14.5671C174.787 13.8061 174.589 13.2113 174.192 12.783C173.796 12.35 173.251 12.1335 172.559 12.1335C172.085 12.1335 171.663 12.2361 171.294 12.4412C170.929 12.6462 170.64 12.947 170.426 13.3435C170.216 13.7354 170.111 14.2094 170.111 14.7654Z" fill="white"/>
<path fill-rule="evenodd" clip-rule="evenodd" d="M159.285 24.8074C159.887 25.0261 160.605 25.1355 161.439 25.1355C162.332 25.1355 163.134 24.9965 163.845 24.7185C164.56 24.4405 165.128 24.0121 165.547 23.4333C165.966 22.8591 166.176 22.1254 166.176 21.2322V10.4998H164.173V12.2019H164.023C163.9 11.9832 163.724 11.7302 163.496 11.4431C163.273 11.156 162.961 10.9054 162.56 10.6912C162.159 10.4724 161.632 10.363 160.981 10.363C160.138 10.363 159.383 10.5772 158.718 11.0056C158.053 11.4294 157.529 12.0401 157.146 12.8376C156.768 13.6352 156.578 14.5922 156.578 15.7087C156.578 16.8253 156.77 17.7664 157.153 18.532C157.54 19.2931 158.064 19.8695 158.725 20.2615C159.39 20.6488 160.138 20.8425 160.967 20.8425C161.61 20.8425 162.131 20.7423 162.532 20.5417C162.934 20.3412 163.248 20.1042 163.476 19.8308C163.708 19.5574 163.886 19.309 164.009 19.0857H164.139V21.1501C164.139 21.9613 163.886 22.5538 163.38 22.9275C162.874 23.3012 162.234 23.488 161.459 23.488C160.894 23.488 160.432 23.4083 160.072 23.2488C159.716 23.0893 159.434 22.8979 159.224 22.6746C159.019 22.4513 158.855 22.2439 158.732 22.0525L156.975 22.7771C157.162 23.1964 157.444 23.5837 157.823 23.9392C158.201 24.2992 158.688 24.5886 159.285 24.8074ZM162.908 18.7371C162.503 19.0105 162.006 19.1472 161.418 19.1472C160.812 19.1472 160.302 19.0014 159.887 18.7097C159.477 18.4181 159.167 18.0125 158.957 17.4929C158.748 16.9734 158.643 16.3695 158.643 15.6814C158.643 15.0115 158.745 14.4054 158.95 13.863C159.16 13.3207 159.47 12.8923 159.88 12.5779C160.29 12.2589 160.803 12.0994 161.418 12.0994C162.015 12.0994 162.517 12.252 162.922 12.5574C163.328 12.8582 163.635 13.2774 163.845 13.8152C164.055 14.3529 164.159 14.975 164.159 15.6814C164.159 16.406 164.052 17.0281 163.838 17.5476C163.628 18.0626 163.319 18.4591 162.908 18.7371Z" fill="white"/>
<path d="M153.093 20.9998V10.4998H155.137V20.9998H153.093Z" fill="white"/>
<path d="M154.125 8.87964C153.77 8.87964 153.464 8.76115 153.209 8.52417C152.958 8.28263 152.833 7.99552 152.833 7.66284C152.833 7.3256 152.958 7.03849 153.209 6.80151C153.464 6.55998 153.77 6.43921 154.125 6.43921C154.48 6.43921 154.784 6.55998 155.034 6.80151C155.289 7.03849 155.417 7.3256 155.417 7.66284C155.417 7.99552 155.289 8.28263 155.034 8.52417C154.784 8.76115 154.48 8.87964 154.125 8.87964Z" fill="white"/>
<path fill-rule="evenodd" clip-rule="evenodd" d="M144.234 20.863C144.772 21.1091 145.373 21.2322 146.039 21.2322C146.618 21.2322 147.114 21.1479 147.529 20.9792C147.944 20.8106 148.283 20.5987 148.548 20.3435C148.812 20.0883 149.01 19.8285 149.142 19.5642H149.224V20.9998H151.22V14.0271C151.22 13.2615 151.088 12.6394 150.824 12.1609C150.56 11.6778 150.22 11.3064 149.805 11.0466C149.395 10.7869 148.953 10.6091 148.479 10.5134C148.01 10.4132 147.566 10.363 147.146 10.363C146.513 10.363 145.909 10.4542 145.335 10.6365C144.76 10.8142 144.252 11.1013 143.81 11.4978C143.373 11.8897 143.04 12.4047 142.812 13.0427L144.733 13.4802C144.884 13.1111 145.155 12.7761 145.547 12.4753C145.943 12.17 146.485 12.0173 147.174 12.0173C147.834 12.0173 148.331 12.1814 148.664 12.5095C149.001 12.8376 149.17 13.3002 149.17 13.8972V13.9451C149.17 14.1912 149.081 14.3689 148.903 14.4783C148.725 14.5876 148.441 14.6674 148.049 14.7175L146.517 14.8953C146.021 14.9545 145.533 15.0411 145.054 15.155C144.576 15.269 144.143 15.4376 143.756 15.6609C143.368 15.8842 143.061 16.1873 142.833 16.5701C142.605 16.9529 142.491 17.4405 142.491 18.033C142.491 18.7211 142.646 19.3022 142.956 19.7761C143.27 20.2501 143.696 20.6124 144.234 20.863ZM147.932 19.2566C147.531 19.4799 147.048 19.5916 146.483 19.5916C145.904 19.5916 145.428 19.4639 145.054 19.2087C144.681 18.949 144.494 18.5662 144.494 18.0603C144.494 17.6957 144.59 17.4041 144.781 17.1853C144.977 16.962 145.237 16.7911 145.56 16.6726C145.888 16.5541 146.251 16.4698 146.647 16.4197C146.816 16.3969 147.025 16.3695 147.276 16.3376C147.527 16.3012 147.784 16.2625 148.049 16.2214C148.313 16.1759 148.548 16.1235 148.753 16.0642C148.962 16.0004 149.104 15.932 149.177 15.8591V17.2126C149.177 17.6274 149.069 18.017 148.855 18.3816C148.646 18.7416 148.338 19.0333 147.932 19.2566Z" fill="white"/>
<path fill-rule="evenodd" clip-rule="evenodd" d="M131.952 24.9373V10.4998H133.948V12.2019H134.119C134.238 11.9832 134.409 11.7302 134.632 11.4431C134.855 11.156 135.165 10.9054 135.562 10.6912C135.958 10.4724 136.482 10.363 137.134 10.363C137.981 10.363 138.738 10.5772 139.403 11.0056C140.069 11.434 140.59 12.0515 140.969 12.8582C141.352 13.6648 141.543 14.6355 141.543 15.7703C141.543 16.905 141.354 17.878 140.976 18.6892C140.597 19.4958 140.078 20.1179 139.417 20.5554C138.756 20.9884 138.002 21.2048 137.154 21.2048C136.516 21.2048 135.994 21.0977 135.589 20.8835C135.188 20.6694 134.873 20.4187 134.646 20.1316C134.418 19.8445 134.242 19.5893 134.119 19.366H133.996V24.9373H131.952ZM133.955 15.7498C133.955 16.488 134.062 17.1352 134.276 17.6912C134.491 18.2472 134.8 18.6824 135.206 18.9968C135.612 19.3067 136.108 19.4617 136.696 19.4617C137.307 19.4617 137.817 19.2999 138.228 18.9763C138.638 18.6482 138.948 18.2039 139.157 17.6433C139.371 17.0828 139.479 16.4516 139.479 15.7498C139.479 15.057 139.374 14.435 139.164 13.8835C138.959 13.3321 138.649 12.8969 138.234 12.5779C137.824 12.2589 137.312 12.0994 136.696 12.0994C136.104 12.0994 135.603 12.252 135.192 12.5574C134.787 12.8627 134.479 13.2888 134.27 13.8357C134.06 14.3826 133.955 15.0206 133.955 15.7498Z" fill="white"/>
<path d="M115.789 10.4998V20.9998H117.833V14.5261C117.833 14.0522 117.931 13.6352 118.127 13.2751C118.328 12.9151 118.59 12.6348 118.913 12.4343C119.241 12.2292 119.599 12.1267 119.987 12.1267C120.556 12.1267 121.019 12.2999 121.374 12.6462C121.73 12.9926 121.907 13.4506 121.907 14.0203V20.9998H123.945V14.3074C123.945 13.6694 124.129 13.1475 124.498 12.7419C124.867 12.3318 125.385 12.1267 126.05 12.1267C126.588 12.1267 127.05 12.2862 127.438 12.6052C127.825 12.9242 128.019 13.4392 128.019 14.1501V20.9998H130.063V13.9587C130.063 12.7556 129.76 11.8555 129.154 11.2585C128.552 10.6615 127.775 10.363 126.823 10.363C126.066 10.363 125.414 10.5317 124.867 10.8689C124.321 11.2016 123.922 11.6482 123.671 12.2087H123.562C123.334 11.6345 122.981 11.1833 122.502 10.8552C122.028 10.5271 121.44 10.363 120.739 10.363C120.046 10.363 119.451 10.5271 118.954 10.8552C118.458 11.1788 118.1 11.63 117.881 12.2087H117.751V10.4998H115.789Z" fill="white"/>
<path fill-rule="evenodd" clip-rule="evenodd" d="M108.735 21.2322C108.07 21.2322 107.468 21.1091 106.93 20.863C106.393 20.6124 105.967 20.2501 105.652 19.7761C105.342 19.3022 105.187 18.7211 105.187 18.033C105.187 17.4405 105.301 16.9529 105.529 16.5701C105.757 16.1873 106.065 15.8842 106.452 15.6609C106.839 15.4376 107.272 15.269 107.751 15.155C108.229 15.0411 108.717 14.9545 109.214 14.8953L110.745 14.7175C111.137 14.6674 111.422 14.5876 111.599 14.4783C111.777 14.3689 111.866 14.1912 111.866 13.9451V13.8972C111.866 13.3002 111.697 12.8376 111.36 12.5095C111.027 12.1814 110.531 12.0173 109.87 12.0173C109.182 12.0173 108.639 12.17 108.243 12.4753C107.851 12.7761 107.58 13.1111 107.429 13.4802L105.509 13.0427C105.736 12.4047 106.069 11.8897 106.507 11.4978C106.949 11.1013 107.457 10.8142 108.031 10.6365C108.605 10.4542 109.209 10.363 109.843 10.363C110.262 10.363 110.706 10.4132 111.176 10.5134C111.649 10.6091 112.092 10.7869 112.502 11.0466C112.916 11.3064 113.256 11.6778 113.52 12.1609C113.785 12.6394 113.917 13.2615 113.917 14.0271V20.9998H111.921V19.5642H111.839C111.706 19.8285 111.508 20.0883 111.244 20.3435C110.98 20.5987 110.64 20.8106 110.225 20.9792C109.811 21.1479 109.314 21.2322 108.735 21.2322ZM109.179 19.5916C109.745 19.5916 110.228 19.4799 110.629 19.2566C111.034 19.0333 111.342 18.7416 111.552 18.3816C111.766 18.017 111.873 17.6274 111.873 17.2126V15.8591C111.8 15.932 111.659 16.0004 111.449 16.0642C111.244 16.1235 111.009 16.1759 110.745 16.2214C110.481 16.2625 110.223 16.3012 109.972 16.3376C109.722 16.3695 109.512 16.3969 109.344 16.4197C108.947 16.4698 108.585 16.5541 108.257 16.6726C107.933 16.7911 107.673 16.962 107.477 17.1853C107.286 17.4041 107.19 17.6957 107.19 18.0603C107.19 18.5662 107.377 18.949 107.751 19.2087C108.124 19.4639 108.601 19.5916 109.179 19.5916Z" fill="white"/>
<path d="M102.033 11.5525H104.166C104.048 10.8005 103.82 10.1329 103.482 9.54956C103.145 8.96167 102.719 8.46493 102.204 8.05933C101.689 7.64917 101.108 7.33927 100.461 7.12964C99.8184 6.91545 99.1256 6.80835 98.3828 6.80835C97.1751 6.80835 96.0973 7.09774 95.1494 7.67651C94.2015 8.25073 93.4541 9.0756 92.9072 10.1511C92.3604 11.2221 92.0869 12.505 92.0869 13.9998C92.0869 15.49 92.3581 16.7729 92.9004 17.8484C93.4473 18.9239 94.1947 19.7511 95.1426 20.3298C96.0905 20.9041 97.1706 21.1912 98.3828 21.1912C99.153 21.1912 99.8639 21.0772 100.516 20.8494C101.167 20.6215 101.746 20.3002 102.252 19.8855C102.762 19.4662 103.179 18.9695 103.503 18.3953C103.831 17.8165 104.052 17.183 104.166 16.4949L102.033 16.488C101.947 16.9347 101.789 17.3311 101.562 17.6775C101.338 18.0193 101.065 18.3087 100.741 18.5457C100.418 18.7826 100.055 18.9626 99.6543 19.0857C99.2578 19.2042 98.8385 19.2634 98.3965 19.2634C97.599 19.2634 96.8812 19.0629 96.2432 18.6619C95.6051 18.2608 95.1016 17.6684 94.7324 16.8845C94.3678 16.1007 94.1855 15.1391 94.1855 13.9998C94.1855 12.8695 94.3678 11.9125 94.7324 11.1287C95.1016 10.3448 95.6029 9.75008 96.2363 9.34448C96.8744 8.93888 97.5967 8.73608 98.4033 8.73608C98.8499 8.73608 99.2715 8.79761 99.668 8.92065C100.069 9.0437 100.431 9.22599 100.755 9.46753C101.078 9.70907 101.352 10.003 101.575 10.3494C101.799 10.6957 101.951 11.0968 102.033 11.5525Z" fill="white"/>
</svg>
