<svg width="239" height="78" viewBox="0 0 239 78" fill="none" xmlns="http://www.w3.org/2000/svg">
<path d="M14.5092 28.8769C15.1607 31.2045 16.0484 33.457 17.1582 35.598C17.6649 36.546 18.1717 37.494 19.092 38.0912C19.2515 38.193 19.4272 38.2658 19.6113 38.3061C20.9668 38.6 21.71 37.4908 22.1888 36.4765C22.9033 34.885 23.4806 33.2336 23.9143 31.5407C23.9983 31.2247 24.0791 30.9087 24.1599 30.5927C24.3154 29.9892 24.4708 29.3793 24.6045 28.7694L30.5865 12.5274C31.8291 10.8455 33.44 9.48066 35.2915 8.54113C37.143 7.6016 39.1845 7.11316 41.2539 7.11451C44.234 7.09586 47.1314 8.11014 49.4682 9.99004C53.3795 12.9983 55.7083 18.9231 55.7083 18.9231C56.0478 19.6945 56.2225 20.5302 56.2213 21.3752C56.2197 22.1579 56.0664 22.9325 55.7701 23.6549C55.4741 24.3773 55.0407 25.0334 54.4951 25.5856C53.9494 26.1379 53.3021 26.5754 52.5901 26.8734C51.8781 27.1714 51.1151 27.3239 50.345 27.3222C49.4887 27.3216 48.6427 27.1297 47.8676 26.76C47.0922 26.3903 46.4063 25.8519 45.8585 25.1829L45.8026 25.1134C45.4267 24.5976 45.1133 24.0374 44.8698 23.445C44.5474 22.7014 44.1861 21.9757 43.7878 21.271C43.5764 20.9076 43.3401 20.5631 43.0976 20.2219C42.8881 19.9168 42.6403 19.6407 42.3607 19.4003C41.8104 18.9484 41.1171 18.7683 40.4704 19.157C40.4393 19.1751 40.4091 19.1952 40.3802 19.217C39.7149 19.6815 39.2485 20.62 38.9251 21.3405C37.9924 23.3818 37.4576 25.4736 36.9291 27.6224C36.8296 28.0363 36.7301 28.4503 36.6368 28.8674L34.1651 37.0832L30.6798 44.8945C29.432 46.531 27.8351 47.8585 26.0095 48.7771C24.1838 49.6954 22.1769 50.181 20.1398 50.1968C11.6736 50.3801 7.65664 42.613 7.65664 42.613C2.83439 34.5742 1.41351 23.9695 1.07462 20.5789C1.00311 19.8743 1 19.454 1 19.454C0.999608 18.392 1.28466 17.35 1.82438 16.4406C2.36411 15.5312 3.138 14.7889 4.0625 14.2938C5.01842 13.8016 6.08218 13.5655 7.15299 13.6081C8.14922 13.6505 9.11853 13.9495 9.96987 14.4771C10.6314 14.8795 11.2032 15.4176 11.6488 16.0571C12.4447 17.2073 12.625 18.6387 12.7836 20.007C13.1129 23.0076 13.6901 25.9747 14.5092 28.8769Z" fill="url(#paint0_linear_13250_6183)"/>
<path d="M14.5092 28.8769C15.1607 31.2045 16.0484 33.457 17.1582 35.598C17.6649 36.546 18.1717 37.494 19.092 38.0912C19.2515 38.193 19.4272 38.2658 19.6113 38.3061C20.9668 38.6 21.71 37.4908 22.1888 36.4765C22.9033 34.885 23.4806 33.2336 23.9143 31.5407C23.9983 31.2247 24.0791 30.9087 24.1599 30.5927C24.3154 29.9892 24.4708 29.3793 24.6045 28.7694L30.5865 12.5274C31.8291 10.8455 33.44 9.48066 35.2915 8.54113C37.143 7.6016 39.1845 7.11316 41.2539 7.11451C44.234 7.09586 47.1314 8.11014 49.4682 9.99004C53.3795 12.9983 55.7083 18.9231 55.7083 18.9231C56.0478 19.6945 56.2225 20.5302 56.2213 21.3752C56.2197 22.1579 56.0664 22.9325 55.7701 23.6549C55.4741 24.3773 55.0407 25.0334 54.4951 25.5856C53.9494 26.1379 53.3021 26.5754 52.5901 26.8734C51.8781 27.1714 51.1151 27.3239 50.345 27.3222C49.4887 27.3216 48.6427 27.1297 47.8676 26.76C47.0922 26.3903 46.4063 25.8519 45.8585 25.1829L45.8026 25.1134C45.4267 24.5976 45.1133 24.0374 44.8698 23.445C44.5474 22.7014 44.1861 21.9757 43.7878 21.271C43.5764 20.9076 43.3401 20.5631 43.0976 20.2219C42.8881 19.9168 42.6403 19.6407 42.3607 19.4003C41.8104 18.9484 41.1171 18.7683 40.4704 19.157C40.4393 19.1751 40.4091 19.1952 40.3802 19.217C39.7149 19.6815 39.2485 20.62 38.9251 21.3405C37.9924 23.3818 37.4576 25.4736 36.9291 27.6224C36.8296 28.0363 36.7301 28.4503 36.6368 28.8674L34.1651 37.0832L30.6798 44.8945C29.432 46.531 27.8351 47.8585 26.0095 48.7771C24.1838 49.6954 22.1769 50.181 20.1398 50.1968C11.6736 50.3801 7.65664 42.613 7.65664 42.613C2.83439 34.5742 1.41351 23.9695 1.07462 20.5789C1.00311 19.8743 1 19.454 1 19.454C0.999608 18.392 1.28466 17.35 1.82438 16.4406C2.36411 15.5312 3.138 14.7889 4.0625 14.2938C5.01842 13.8016 6.08218 13.5655 7.15299 13.6081C8.14922 13.6505 9.11853 13.9495 9.96987 14.4771C10.6314 14.8795 11.2032 15.4176 11.6488 16.0571C12.4447 17.2073 12.625 18.6387 12.7836 20.007C13.1129 23.0076 13.6901 25.9747 14.5092 28.8769Z" fill="url(#paint1_radial_13250_6183)"/>
<path d="M14.5092 28.8769C15.1607 31.2045 16.0484 33.457 17.1582 35.598C17.6649 36.546 18.1717 37.494 19.092 38.0912C19.2515 38.193 19.4272 38.2658 19.6113 38.3061C20.9668 38.6 21.71 37.4908 22.1888 36.4765C22.9033 34.885 23.4806 33.2336 23.9143 31.5407C23.9983 31.2247 24.0791 30.9087 24.1599 30.5927C24.3154 29.9892 24.4708 29.3793 24.6045 28.7694L30.5865 12.5274C31.8291 10.8455 33.44 9.48066 35.2915 8.54113C37.143 7.6016 39.1845 7.11316 41.2539 7.11451C44.234 7.09586 47.1314 8.11014 49.4682 9.99004C53.3795 12.9983 55.7083 18.9231 55.7083 18.9231C56.0478 19.6945 56.2225 20.5302 56.2213 21.3752C56.2197 22.1579 56.0664 22.9325 55.7701 23.6549C55.4741 24.3773 55.0407 25.0334 54.4951 25.5856C53.9494 26.1379 53.3021 26.5754 52.5901 26.8734C51.8781 27.1714 51.1151 27.3239 50.345 27.3222C49.4887 27.3216 48.6427 27.1297 47.8676 26.76C47.0922 26.3903 46.4063 25.8519 45.8585 25.1829L45.8026 25.1134C45.4267 24.5976 45.1133 24.0374 44.8698 23.445C44.5474 22.7014 44.1861 21.9757 43.7878 21.271C43.5764 20.9076 43.3401 20.5631 43.0976 20.2219C42.8881 19.9168 42.6403 19.6407 42.3607 19.4003C41.8104 18.9484 41.1171 18.7683 40.4704 19.157C40.4393 19.1751 40.4091 19.1952 40.3802 19.217C39.7149 19.6815 39.2485 20.62 38.9251 21.3405C37.9924 23.3818 37.4576 25.4736 36.9291 27.6224C36.8296 28.0363 36.7301 28.4503 36.6368 28.8674L34.1651 37.0832L30.6798 44.8945C29.432 46.531 27.8351 47.8585 26.0095 48.7771C24.1838 49.6954 22.1769 50.181 20.1398 50.1968C11.6736 50.3801 7.65664 42.613 7.65664 42.613C2.83439 34.5742 1.41351 23.9695 1.07462 20.5789C1.00311 19.8743 1 19.454 1 19.454C0.999608 18.392 1.28466 17.35 1.82438 16.4406C2.36411 15.5312 3.138 14.7889 4.0625 14.2938C5.01842 13.8016 6.08218 13.5655 7.15299 13.6081C8.14922 13.6505 9.11853 13.9495 9.96987 14.4771C10.6314 14.8795 11.2032 15.4176 11.6488 16.0571C12.4447 17.2073 12.625 18.6387 12.7836 20.007C13.1129 23.0076 13.6901 25.9747 14.5092 28.8769Z" fill="url(#paint2_radial_13250_6183)"/>
<path d="M14.5092 28.8769C15.1607 31.2045 16.0484 33.457 17.1582 35.598C17.6649 36.546 18.1717 37.494 19.092 38.0912C19.2515 38.193 19.4272 38.2658 19.6113 38.3061C20.9668 38.6 21.71 37.4908 22.1888 36.4765C22.9033 34.885 23.4806 33.2336 23.9143 31.5407C23.9983 31.2247 24.0791 30.9087 24.1599 30.5927C24.3154 29.9892 24.4708 29.3793 24.6045 28.7694L30.5865 12.5274C31.8291 10.8455 33.44 9.48066 35.2915 8.54113C37.143 7.6016 39.1845 7.11316 41.2539 7.11451C44.234 7.09586 47.1314 8.11014 49.4682 9.99004C53.3795 12.9983 55.7083 18.9231 55.7083 18.9231C56.0478 19.6945 56.2225 20.5302 56.2213 21.3752C56.2197 22.1579 56.0664 22.9325 55.7701 23.6549C55.4741 24.3773 55.0407 25.0334 54.4951 25.5856C53.9494 26.1379 53.3021 26.5754 52.5901 26.8734C51.8781 27.1714 51.1151 27.3239 50.345 27.3222C49.4887 27.3216 48.6427 27.1297 47.8676 26.76C47.0922 26.3903 46.4063 25.8519 45.8585 25.1829L45.8026 25.1134C45.4267 24.5976 45.1133 24.0374 44.8698 23.445C44.5474 22.7014 44.1861 21.9757 43.7878 21.271C43.5764 20.9076 43.3401 20.5631 43.0976 20.2219C42.8881 19.9168 42.6403 19.6407 42.3607 19.4003C41.8104 18.9484 41.1171 18.7683 40.4704 19.157C40.4393 19.1751 40.4091 19.1952 40.3802 19.217C39.7149 19.6815 39.2485 20.62 38.9251 21.3405C37.9924 23.3818 37.4576 25.4736 36.9291 27.6224C36.8296 28.0363 36.7301 28.4503 36.6368 28.8674L34.1651 37.0832L30.6798 44.8945C29.432 46.531 27.8351 47.8585 26.0095 48.7771C24.1838 49.6954 22.1769 50.181 20.1398 50.1968C11.6736 50.3801 7.65664 42.613 7.65664 42.613C2.83439 34.5742 1.41351 23.9695 1.07462 20.5789C1.00311 19.8743 1 19.454 1 19.454C0.999608 18.392 1.28466 17.35 1.82438 16.4406C2.36411 15.5312 3.138 14.7889 4.0625 14.2938C5.01842 13.8016 6.08218 13.5655 7.15299 13.6081C8.14922 13.6505 9.11853 13.9495 9.96987 14.4771C10.6314 14.8795 11.2032 15.4176 11.6488 16.0571C12.4447 17.2073 12.625 18.6387 12.7836 20.007C13.1129 23.0076 13.6901 25.9747 14.5092 28.8769Z" fill="url(#paint3_radial_13250_6183)"/>
<path d="M14.5092 28.8769C15.1607 31.2045 16.0484 33.457 17.1582 35.598C17.6649 36.546 18.1717 37.494 19.092 38.0912C19.2515 38.193 19.4272 38.2658 19.6113 38.3061C20.9668 38.6 21.71 37.4908 22.1888 36.4765C22.9033 34.885 23.4806 33.2336 23.9143 31.5407C23.9983 31.2247 24.0791 30.9087 24.1599 30.5927C24.3154 29.9892 24.4708 29.3793 24.6045 28.7694L30.5865 12.5274C31.8291 10.8455 33.44 9.48066 35.2915 8.54113C37.143 7.6016 39.1845 7.11316 41.2539 7.11451C44.234 7.09586 47.1314 8.11014 49.4682 9.99004C53.3795 12.9983 55.7083 18.9231 55.7083 18.9231C56.0478 19.6945 56.2225 20.5302 56.2213 21.3752C56.2197 22.1579 56.0664 22.9325 55.7701 23.6549C55.4741 24.3773 55.0407 25.0334 54.4951 25.5856C53.9494 26.1379 53.3021 26.5754 52.5901 26.8734C51.8781 27.1714 51.1151 27.3239 50.345 27.3222C49.4887 27.3216 48.6427 27.1297 47.8676 26.76C47.0922 26.3903 46.4063 25.8519 45.8585 25.1829L45.8026 25.1134C45.4267 24.5976 45.1133 24.0374 44.8698 23.445C44.5474 22.7014 44.1861 21.9757 43.7878 21.271C43.5764 20.9076 43.3401 20.5631 43.0976 20.2219C42.8881 19.9168 42.6403 19.6407 42.3607 19.4003C41.8104 18.9484 41.1171 18.7683 40.4704 19.157C40.4393 19.1751 40.4091 19.1952 40.3802 19.217C39.7149 19.6815 39.2485 20.62 38.9251 21.3405C37.9924 23.3818 37.4576 25.4736 36.9291 27.6224C36.8296 28.0363 36.7301 28.4503 36.6368 28.8674L34.1651 37.0832L30.6798 44.8945C29.432 46.531 27.8351 47.8585 26.0095 48.7771C24.1838 49.6954 22.1769 50.181 20.1398 50.1968C11.6736 50.3801 7.65664 42.613 7.65664 42.613C2.83439 34.5742 1.41351 23.9695 1.07462 20.5789C1.00311 19.8743 1 19.454 1 19.454C0.999608 18.392 1.28466 17.35 1.82438 16.4406C2.36411 15.5312 3.138 14.7889 4.0625 14.2938C5.01842 13.8016 6.08218 13.5655 7.15299 13.6081C8.14922 13.6505 9.11853 13.9495 9.96987 14.4771C10.6314 14.8795 11.2032 15.4176 11.6488 16.0571C12.4447 17.2073 12.625 18.6387 12.7836 20.007C13.1129 23.0076 13.6901 25.9747 14.5092 28.8769Z" fill="url(#paint4_radial_13250_6183)"/>
<path d="M14.5092 28.8769C15.1607 31.2045 16.0484 33.457 17.1582 35.598C17.6649 36.546 18.1717 37.494 19.092 38.0912C19.2515 38.193 19.4272 38.2658 19.6113 38.3061C20.9668 38.6 21.71 37.4908 22.1888 36.4765C22.9033 34.885 23.4806 33.2336 23.9143 31.5407C23.9983 31.2247 24.0791 30.9087 24.1599 30.5927C24.3154 29.9892 24.4708 29.3793 24.6045 28.7694L30.5865 12.5274C31.8291 10.8455 33.44 9.48066 35.2915 8.54113C37.143 7.6016 39.1845 7.11316 41.2539 7.11451C44.234 7.09586 47.1314 8.11014 49.4682 9.99004C53.3795 12.9983 55.7083 18.9231 55.7083 18.9231C56.0478 19.6945 56.2225 20.5302 56.2213 21.3752C56.2197 22.1579 56.0664 22.9325 55.7701 23.6549C55.4741 24.3773 55.0407 25.0334 54.4951 25.5856C53.9494 26.1379 53.3021 26.5754 52.5901 26.8734C51.8781 27.1714 51.1151 27.3239 50.345 27.3222C49.4887 27.3216 48.6427 27.1297 47.8676 26.76C47.0922 26.3903 46.4063 25.8519 45.8585 25.1829L45.8026 25.1134C45.4267 24.5976 45.1133 24.0374 44.8698 23.445C44.5474 22.7014 44.1861 21.9757 43.7878 21.271C43.5764 20.9076 43.3401 20.5631 43.0976 20.2219C42.8881 19.9168 42.6403 19.6407 42.3607 19.4003C41.8104 18.9484 41.1171 18.7683 40.4704 19.157C40.4393 19.1751 40.4091 19.1952 40.3802 19.217C39.7149 19.6815 39.2485 20.62 38.9251 21.3405C37.9924 23.3818 37.4576 25.4736 36.9291 27.6224C36.8296 28.0363 36.7301 28.4503 36.6368 28.8674L34.1651 37.0832L30.6798 44.8945C29.432 46.531 27.8351 47.8585 26.0095 48.7771C24.1838 49.6954 22.1769 50.181 20.1398 50.1968C11.6736 50.3801 7.65664 42.613 7.65664 42.613C2.83439 34.5742 1.41351 23.9695 1.07462 20.5789C1.00311 19.8743 1 19.454 1 19.454C0.999608 18.392 1.28466 17.35 1.82438 16.4406C2.36411 15.5312 3.138 14.7889 4.0625 14.2938C5.01842 13.8016 6.08218 13.5655 7.15299 13.6081C8.14922 13.6505 9.11853 13.9495 9.96987 14.4771C10.6314 14.8795 11.2032 15.4176 11.6488 16.0571C12.4447 17.2073 12.625 18.6387 12.7836 20.007C13.1129 23.0076 13.6901 25.9747 14.5092 28.8769Z" fill="url(#paint5_radial_13250_6183)"/>
<path d="M14.5092 28.8769C15.1607 31.2045 16.0484 33.457 17.1582 35.598C17.6649 36.546 18.1717 37.494 19.092 38.0912C19.2515 38.193 19.4272 38.2658 19.6113 38.3061C20.9668 38.6 21.71 37.4908 22.1888 36.4765C22.9033 34.885 23.4806 33.2336 23.9143 31.5407C23.9983 31.2247 24.0791 30.9087 24.1599 30.5927C24.3154 29.9892 24.4708 29.3793 24.6045 28.7694L30.5865 12.5274C31.8291 10.8455 33.44 9.48066 35.2915 8.54113C37.143 7.6016 39.1845 7.11316 41.2539 7.11451C44.234 7.09586 47.1314 8.11014 49.4682 9.99004C53.3795 12.9983 55.7083 18.9231 55.7083 18.9231C56.0478 19.6945 56.2225 20.5302 56.2213 21.3752C56.2197 22.1579 56.0664 22.9325 55.7701 23.6549C55.4741 24.3773 55.0407 25.0334 54.4951 25.5856C53.9494 26.1379 53.3021 26.5754 52.5901 26.8734C51.8781 27.1714 51.1151 27.3239 50.345 27.3222C49.4887 27.3216 48.6427 27.1297 47.8676 26.76C47.0922 26.3903 46.4063 25.8519 45.8585 25.1829L45.8026 25.1134C45.4267 24.5976 45.1133 24.0374 44.8698 23.445C44.5474 22.7014 44.1861 21.9757 43.7878 21.271C43.5764 20.9076 43.3401 20.5631 43.0976 20.2219C42.8881 19.9168 42.6403 19.6407 42.3607 19.4003C41.8104 18.9484 41.1171 18.7683 40.4704 19.157C40.4393 19.1751 40.4091 19.1952 40.3802 19.217C39.7149 19.6815 39.2485 20.62 38.9251 21.3405C37.9924 23.3818 37.4576 25.4736 36.9291 27.6224C36.8296 28.0363 36.7301 28.4503 36.6368 28.8674L34.1651 37.0832L30.6798 44.8945C29.432 46.531 27.8351 47.8585 26.0095 48.7771C24.1838 49.6954 22.1769 50.181 20.1398 50.1968C11.6736 50.3801 7.65664 42.613 7.65664 42.613C2.83439 34.5742 1.41351 23.9695 1.07462 20.5789C1.00311 19.8743 1 19.454 1 19.454C0.999608 18.392 1.28466 17.35 1.82438 16.4406C2.36411 15.5312 3.138 14.7889 4.0625 14.2938C5.01842 13.8016 6.08218 13.5655 7.15299 13.6081C8.14922 13.6505 9.11853 13.9495 9.96987 14.4771C10.6314 14.8795 11.2032 15.4176 11.6488 16.0571C12.4447 17.2073 12.625 18.6387 12.7836 20.007C13.1129 23.0076 13.6901 25.9747 14.5092 28.8769Z" fill="url(#paint6_radial_13250_6183)"/>
<path d="M14.5092 28.8769C15.1607 31.2045 16.0484 33.457 17.1582 35.598C17.6649 36.546 18.1717 37.494 19.092 38.0912C19.2515 38.193 19.4272 38.2658 19.6113 38.3061C20.9668 38.6 21.71 37.4908 22.1888 36.4765C22.9033 34.885 23.4806 33.2336 23.9143 31.5407C23.9983 31.2247 24.0791 30.9087 24.1599 30.5927C24.3154 29.9892 24.4708 29.3793 24.6045 28.7694L30.5865 12.5274C31.8291 10.8455 33.44 9.48066 35.2915 8.54113C37.143 7.6016 39.1845 7.11316 41.2539 7.11451C44.234 7.09586 47.1314 8.11014 49.4682 9.99004C53.3795 12.9983 55.7083 18.9231 55.7083 18.9231C56.0478 19.6945 56.2225 20.5302 56.2213 21.3752C56.2197 22.1579 56.0664 22.9325 55.7701 23.6549C55.4741 24.3773 55.0407 25.0334 54.4951 25.5856C53.9494 26.1379 53.3021 26.5754 52.5901 26.8734C51.8781 27.1714 51.1151 27.3239 50.345 27.3222C49.4887 27.3216 48.6427 27.1297 47.8676 26.76C47.0922 26.3903 46.4063 25.8519 45.8585 25.1829L45.8026 25.1134C45.4267 24.5976 45.1133 24.0374 44.8698 23.445C44.5474 22.7014 44.1861 21.9757 43.7878 21.271C43.5764 20.9076 43.3401 20.5631 43.0976 20.2219C42.8881 19.9168 42.6403 19.6407 42.3607 19.4003C41.8104 18.9484 41.1171 18.7683 40.4704 19.157C40.4393 19.1751 40.4091 19.1952 40.3802 19.217C39.7149 19.6815 39.2485 20.62 38.9251 21.3405C37.9924 23.3818 37.4576 25.4736 36.9291 27.6224C36.8296 28.0363 36.7301 28.4503 36.6368 28.8674L34.1651 37.0832L30.6798 44.8945C29.432 46.531 27.8351 47.8585 26.0095 48.7771C24.1838 49.6954 22.1769 50.181 20.1398 50.1968C11.6736 50.3801 7.65664 42.613 7.65664 42.613C2.83439 34.5742 1.41351 23.9695 1.07462 20.5789C1.00311 19.8743 1 19.454 1 19.454C0.999608 18.392 1.28466 17.35 1.82438 16.4406C2.36411 15.5312 3.138 14.7889 4.0625 14.2938C5.01842 13.8016 6.08218 13.5655 7.15299 13.6081C8.14922 13.6505 9.11853 13.9495 9.96987 14.4771C10.6314 14.8795 11.2032 15.4176 11.6488 16.0571C12.4447 17.2073 12.625 18.6387 12.7836 20.007C13.1129 23.0076 13.6901 25.9747 14.5092 28.8769Z" fill="url(#paint7_radial_13250_6183)"/>
<path d="M14.5092 28.8769C15.1607 31.2045 16.0484 33.457 17.1582 35.598C17.6649 36.546 18.1717 37.494 19.092 38.0912C19.2515 38.193 19.4272 38.2658 19.6113 38.3061C20.9668 38.6 21.71 37.4908 22.1888 36.4765C22.9033 34.885 23.4806 33.2336 23.9143 31.5407C23.9983 31.2247 24.0791 30.9087 24.1599 30.5927C24.3154 29.9892 24.4708 29.3793 24.6045 28.7694L30.5865 12.5274C31.8291 10.8455 33.44 9.48066 35.2915 8.54113C37.143 7.6016 39.1845 7.11316 41.2539 7.11451C44.234 7.09586 47.1314 8.11014 49.4682 9.99004C53.3795 12.9983 55.7083 18.9231 55.7083 18.9231C56.0478 19.6945 56.2225 20.5302 56.2213 21.3752C56.2197 22.1579 56.0664 22.9325 55.7701 23.6549C55.4741 24.3773 55.0407 25.0334 54.4951 25.5856C53.9494 26.1379 53.3021 26.5754 52.5901 26.8734C51.8781 27.1714 51.1151 27.3239 50.345 27.3222C49.4887 27.3216 48.6427 27.1297 47.8676 26.76C47.0922 26.3903 46.4063 25.8519 45.8585 25.1829L45.8026 25.1134C45.4267 24.5976 45.1133 24.0374 44.8698 23.445C44.5474 22.7014 44.1861 21.9757 43.7878 21.271C43.5764 20.9076 43.3401 20.5631 43.0976 20.2219C42.8881 19.9168 42.6403 19.6407 42.3607 19.4003C41.8104 18.9484 41.1171 18.7683 40.4704 19.157C40.4393 19.1751 40.4091 19.1952 40.3802 19.217C39.7149 19.6815 39.2485 20.62 38.9251 21.3405C37.9924 23.3818 37.4576 25.4736 36.9291 27.6224C36.8296 28.0363 36.7301 28.4503 36.6368 28.8674L34.1651 37.0832L30.6798 44.8945C29.432 46.531 27.8351 47.8585 26.0095 48.7771C24.1838 49.6954 22.1769 50.181 20.1398 50.1968C11.6736 50.3801 7.65664 42.613 7.65664 42.613C2.83439 34.5742 1.41351 23.9695 1.07462 20.5789C1.00311 19.8743 1 19.454 1 19.454C0.999608 18.392 1.28466 17.35 1.82438 16.4406C2.36411 15.5312 3.138 14.7889 4.0625 14.2938C5.01842 13.8016 6.08218 13.5655 7.15299 13.6081C8.14922 13.6505 9.11853 13.9495 9.96987 14.4771C10.6314 14.8795 11.2032 15.4176 11.6488 16.0571C12.4447 17.2073 12.625 18.6387 12.7836 20.007C13.1129 23.0076 13.6901 25.9747 14.5092 28.8769Z" fill="url(#paint8_radial_13250_6183)"/>
<path d="M14.5092 28.8769C15.1607 31.2045 16.0484 33.457 17.1582 35.598C17.6649 36.546 18.1717 37.494 19.092 38.0912C19.2515 38.193 19.4272 38.2658 19.6113 38.3061C20.9668 38.6 21.71 37.4908 22.1888 36.4765C22.9033 34.885 23.4806 33.2336 23.9143 31.5407C23.9983 31.2247 24.0791 30.9087 24.1599 30.5927C24.3154 29.9892 24.4708 29.3793 24.6045 28.7694L30.5865 12.5274C31.8291 10.8455 33.44 9.48066 35.2915 8.54113C37.143 7.6016 39.1845 7.11316 41.2539 7.11451C44.234 7.09586 47.1314 8.11014 49.4682 9.99004C53.3795 12.9983 55.7083 18.9231 55.7083 18.9231C56.0478 19.6945 56.2225 20.5302 56.2213 21.3752C56.2197 22.1579 56.0664 22.9325 55.7701 23.6549C55.4741 24.3773 55.0407 25.0334 54.4951 25.5856C53.9494 26.1379 53.3021 26.5754 52.5901 26.8734C51.8781 27.1714 51.1151 27.3239 50.345 27.3222C49.4887 27.3216 48.6427 27.1297 47.8676 26.76C47.0922 26.3903 46.4063 25.8519 45.8585 25.1829L45.8026 25.1134C45.4267 24.5976 45.1133 24.0374 44.8698 23.445C44.5474 22.7014 44.1861 21.9757 43.7878 21.271C43.5764 20.9076 43.3401 20.5631 43.0976 20.2219C42.8881 19.9168 42.6403 19.6407 42.3607 19.4003C41.8104 18.9484 41.1171 18.7683 40.4704 19.157C40.4393 19.1751 40.4091 19.1952 40.3802 19.217C39.7149 19.6815 39.2485 20.62 38.9251 21.3405C37.9924 23.3818 37.4576 25.4736 36.9291 27.6224C36.8296 28.0363 36.7301 28.4503 36.6368 28.8674L34.1651 37.0832L30.6798 44.8945C29.432 46.531 27.8351 47.8585 26.0095 48.7771C24.1838 49.6954 22.1769 50.181 20.1398 50.1968C11.6736 50.3801 7.65664 42.613 7.65664 42.613C2.83439 34.5742 1.41351 23.9695 1.07462 20.5789C1.00311 19.8743 1 19.454 1 19.454C0.999608 18.392 1.28466 17.35 1.82438 16.4406C2.36411 15.5312 3.138 14.7889 4.0625 14.2938C5.01842 13.8016 6.08218 13.5655 7.15299 13.6081C8.14922 13.6505 9.11853 13.9495 9.96987 14.4771C10.6314 14.8795 11.2032 15.4176 11.6488 16.0571C12.4447 17.2073 12.625 18.6387 12.7836 20.007C13.1129 23.0076 13.6901 25.9747 14.5092 28.8769Z" fill="url(#paint9_radial_13250_6183)"/>
<path d="M14.5092 28.8769C15.1607 31.2045 16.0484 33.457 17.1582 35.598C17.6649 36.546 18.1717 37.494 19.092 38.0912C19.2515 38.193 19.4272 38.2658 19.6113 38.3061C20.9668 38.6 21.71 37.4908 22.1888 36.4765C22.9033 34.885 23.4806 33.2336 23.9143 31.5407C23.9983 31.2247 24.0791 30.9087 24.1599 30.5927C24.3154 29.9892 24.4708 29.3793 24.6045 28.7694L30.5865 12.5274C31.8291 10.8455 33.44 9.48066 35.2915 8.54113C37.143 7.6016 39.1845 7.11316 41.2539 7.11451C44.234 7.09586 47.1314 8.11014 49.4682 9.99004C53.3795 12.9983 55.7083 18.9231 55.7083 18.9231C56.0478 19.6945 56.2225 20.5302 56.2213 21.3752C56.2197 22.1579 56.0664 22.9325 55.7701 23.6549C55.4741 24.3773 55.0407 25.0334 54.4951 25.5856C53.9494 26.1379 53.3021 26.5754 52.5901 26.8734C51.8781 27.1714 51.1151 27.3239 50.345 27.3222C49.4887 27.3216 48.6427 27.1297 47.8676 26.76C47.0922 26.3903 46.4063 25.8519 45.8585 25.1829L45.8026 25.1134C45.4267 24.5976 45.1133 24.0374 44.8698 23.445C44.5474 22.7014 44.1861 21.9757 43.7878 21.271C43.5764 20.9076 43.3401 20.5631 43.0976 20.2219C42.8881 19.9168 42.6403 19.6407 42.3607 19.4003C41.8104 18.9484 41.1171 18.7683 40.4704 19.157C40.4393 19.1751 40.4091 19.1952 40.3802 19.217C39.7149 19.6815 39.2485 20.62 38.9251 21.3405C37.9924 23.3818 37.4576 25.4736 36.9291 27.6224C36.8296 28.0363 36.7301 28.4503 36.6368 28.8674L34.1651 37.0832L30.6798 44.8945C29.432 46.531 27.8351 47.8585 26.0095 48.7771C24.1838 49.6954 22.1769 50.181 20.1398 50.1968C11.6736 50.3801 7.65664 42.613 7.65664 42.613C2.83439 34.5742 1.41351 23.9695 1.07462 20.5789C1.00311 19.8743 1 19.454 1 19.454C0.999608 18.392 1.28466 17.35 1.82438 16.4406C2.36411 15.5312 3.138 14.7889 4.0625 14.2938C5.01842 13.8016 6.08218 13.5655 7.15299 13.6081C8.14922 13.6505 9.11853 13.9495 9.96987 14.4771C10.6314 14.8795 11.2032 15.4176 11.6488 16.0571C12.4447 17.2073 12.625 18.6387 12.7836 20.007C13.1129 23.0076 13.6901 25.9747 14.5092 28.8769Z" fill="url(#paint10_radial_13250_6183)"/>
<path d="M14.5092 28.8769C15.1607 31.2045 16.0484 33.457 17.1582 35.598C17.6649 36.546 18.1717 37.494 19.092 38.0912C19.2515 38.193 19.4272 38.2658 19.6113 38.3061C20.9668 38.6 21.71 37.4908 22.1888 36.4765C22.9033 34.885 23.4806 33.2336 23.9143 31.5407C23.9983 31.2247 24.0791 30.9087 24.1599 30.5927C24.3154 29.9892 24.4708 29.3793 24.6045 28.7694L30.5865 12.5274C31.8291 10.8455 33.44 9.48066 35.2915 8.54113C37.143 7.6016 39.1845 7.11316 41.2539 7.11451C44.234 7.09586 47.1314 8.11014 49.4682 9.99004C53.3795 12.9983 55.7083 18.9231 55.7083 18.9231C56.0478 19.6945 56.2225 20.5302 56.2213 21.3752C56.2197 22.1579 56.0664 22.9325 55.7701 23.6549C55.4741 24.3773 55.0407 25.0334 54.4951 25.5856C53.9494 26.1379 53.3021 26.5754 52.5901 26.8734C51.8781 27.1714 51.1151 27.3239 50.345 27.3222C49.4887 27.3216 48.6427 27.1297 47.8676 26.76C47.0922 26.3903 46.4063 25.8519 45.8585 25.1829L45.8026 25.1134C45.4267 24.5976 45.1133 24.0374 44.8698 23.445C44.5474 22.7014 44.1861 21.9757 43.7878 21.271C43.5764 20.9076 43.3401 20.5631 43.0976 20.2219C42.8881 19.9168 42.6403 19.6407 42.3607 19.4003C41.8104 18.9484 41.1171 18.7683 40.4704 19.157C40.4393 19.1751 40.4091 19.1952 40.3802 19.217C39.7149 19.6815 39.2485 20.62 38.9251 21.3405C37.9924 23.3818 37.4576 25.4736 36.9291 27.6224C36.8296 28.0363 36.7301 28.4503 36.6368 28.8674L34.1651 37.0832L30.6798 44.8945C29.432 46.531 27.8351 47.8585 26.0095 48.7771C24.1838 49.6954 22.1769 50.181 20.1398 50.1968C11.6736 50.3801 7.65664 42.613 7.65664 42.613C2.83439 34.5742 1.41351 23.9695 1.07462 20.5789C1.00311 19.8743 1 19.454 1 19.454C0.999608 18.392 1.28466 17.35 1.82438 16.4406C2.36411 15.5312 3.138 14.7889 4.0625 14.2938C5.01842 13.8016 6.08218 13.5655 7.15299 13.6081C8.14922 13.6505 9.11853 13.9495 9.96987 14.4771C10.6314 14.8795 11.2032 15.4176 11.6488 16.0571C12.4447 17.2073 12.625 18.6387 12.7836 20.007C13.1129 23.0076 13.6901 25.9747 14.5092 28.8769Z" fill="url(#paint11_radial_13250_6183)"/>
<path d="M14.5092 28.8769C15.1607 31.2045 16.0484 33.457 17.1582 35.598C17.6649 36.546 18.1717 37.494 19.092 38.0912C19.2515 38.193 19.4272 38.2658 19.6113 38.3061C20.9668 38.6 21.71 37.4908 22.1888 36.4765C22.9033 34.885 23.4806 33.2336 23.9143 31.5407C23.9983 31.2247 24.0791 30.9087 24.1599 30.5927C24.3154 29.9892 24.4708 29.3793 24.6045 28.7694L30.5865 12.5274C31.8291 10.8455 33.44 9.48066 35.2915 8.54113C37.143 7.6016 39.1845 7.11316 41.2539 7.11451C44.234 7.09586 47.1314 8.11014 49.4682 9.99004C53.3795 12.9983 55.7083 18.9231 55.7083 18.9231C56.0478 19.6945 56.2225 20.5302 56.2213 21.3752C56.2197 22.1579 56.0664 22.9325 55.7701 23.6549C55.4741 24.3773 55.0407 25.0334 54.4951 25.5856C53.9494 26.1379 53.3021 26.5754 52.5901 26.8734C51.8781 27.1714 51.1151 27.3239 50.345 27.3222C49.4887 27.3216 48.6427 27.1297 47.8676 26.76C47.0922 26.3903 46.4063 25.8519 45.8585 25.1829L45.8026 25.1134C45.4267 24.5976 45.1133 24.0374 44.8698 23.445C44.5474 22.7014 44.1861 21.9757 43.7878 21.271C43.5764 20.9076 43.3401 20.5631 43.0976 20.2219C42.8881 19.9168 42.6403 19.6407 42.3607 19.4003C41.8104 18.9484 41.1171 18.7683 40.4704 19.157C40.4393 19.1751 40.4091 19.1952 40.3802 19.217C39.7149 19.6815 39.2485 20.62 38.9251 21.3405C37.9924 23.3818 37.4576 25.4736 36.9291 27.6224C36.8296 28.0363 36.7301 28.4503 36.6368 28.8674L34.1651 37.0832L30.6798 44.8945C29.432 46.531 27.8351 47.8585 26.0095 48.7771C24.1838 49.6954 22.1769 50.181 20.1398 50.1968C11.6736 50.3801 7.65664 42.613 7.65664 42.613C2.83439 34.5742 1.41351 23.9695 1.07462 20.5789C1.00311 19.8743 1 19.454 1 19.454C0.999608 18.392 1.28466 17.35 1.82438 16.4406C2.36411 15.5312 3.138 14.7889 4.0625 14.2938C5.01842 13.8016 6.08218 13.5655 7.15299 13.6081C8.14922 13.6505 9.11853 13.9495 9.96987 14.4771C10.6314 14.8795 11.2032 15.4176 11.6488 16.0571C12.4447 17.2073 12.625 18.6387 12.7836 20.007C13.1129 23.0076 13.6901 25.9747 14.5092 28.8769Z" fill="url(#paint12_radial_13250_6183)"/>
<path d="M14.5092 28.8769C15.1607 31.2045 16.0484 33.457 17.1582 35.598C17.6649 36.546 18.1717 37.494 19.092 38.0912C19.2515 38.193 19.4272 38.2658 19.6113 38.3061C20.9668 38.6 21.71 37.4908 22.1888 36.4765C22.9033 34.885 23.4806 33.2336 23.9143 31.5407C23.9983 31.2247 24.0791 30.9087 24.1599 30.5927C24.3154 29.9892 24.4708 29.3793 24.6045 28.7694L30.5865 12.5274C31.8291 10.8455 33.44 9.48066 35.2915 8.54113C37.143 7.6016 39.1845 7.11316 41.2539 7.11451C44.234 7.09586 47.1314 8.11014 49.4682 9.99004C53.3795 12.9983 55.7083 18.9231 55.7083 18.9231C56.0478 19.6945 56.2225 20.5302 56.2213 21.3752C56.2197 22.1579 56.0664 22.9325 55.7701 23.6549C55.4741 24.3773 55.0407 25.0334 54.4951 25.5856C53.9494 26.1379 53.3021 26.5754 52.5901 26.8734C51.8781 27.1714 51.1151 27.3239 50.345 27.3222C49.4887 27.3216 48.6427 27.1297 47.8676 26.76C47.0922 26.3903 46.4063 25.8519 45.8585 25.1829L45.8026 25.1134C45.4267 24.5976 45.1133 24.0374 44.8698 23.445C44.5474 22.7014 44.1861 21.9757 43.7878 21.271C43.5764 20.9076 43.3401 20.5631 43.0976 20.2219C42.8881 19.9168 42.6403 19.6407 42.3607 19.4003C41.8104 18.9484 41.1171 18.7683 40.4704 19.157C40.4393 19.1751 40.4091 19.1952 40.3802 19.217C39.7149 19.6815 39.2485 20.62 38.9251 21.3405C37.9924 23.3818 37.4576 25.4736 36.9291 27.6224C36.8296 28.0363 36.7301 28.4503 36.6368 28.8674L34.1651 37.0832L30.6798 44.8945C29.432 46.531 27.8351 47.8585 26.0095 48.7771C24.1838 49.6954 22.1769 50.181 20.1398 50.1968C11.6736 50.3801 7.65664 42.613 7.65664 42.613C2.83439 34.5742 1.41351 23.9695 1.07462 20.5789C1.00311 19.8743 1 19.454 1 19.454C0.999608 18.392 1.28466 17.35 1.82438 16.4406C2.36411 15.5312 3.138 14.7889 4.0625 14.2938C5.01842 13.8016 6.08218 13.5655 7.15299 13.6081C8.14922 13.6505 9.11853 13.9495 9.96987 14.4771C10.6314 14.8795 11.2032 15.4176 11.6488 16.0571C12.4447 17.2073 12.625 18.6387 12.7836 20.007C13.1129 23.0076 13.6901 25.9747 14.5092 28.8769Z" fill="url(#paint13_radial_13250_6183)"/>
<path d="M14.5092 28.8769C15.1607 31.2045 16.0484 33.457 17.1582 35.598C17.6649 36.546 18.1717 37.494 19.092 38.0912C19.2515 38.193 19.4272 38.2658 19.6113 38.3061C20.9668 38.6 21.71 37.4908 22.1888 36.4765C22.9033 34.885 23.4806 33.2336 23.9143 31.5407C23.9983 31.2247 24.0791 30.9087 24.1599 30.5927C24.3154 29.9892 24.4708 29.3793 24.6045 28.7694L30.5865 12.5274C31.8291 10.8455 33.44 9.48066 35.2915 8.54113C37.143 7.6016 39.1845 7.11316 41.2539 7.11451C44.234 7.09586 47.1314 8.11014 49.4682 9.99004C53.3795 12.9983 55.7083 18.9231 55.7083 18.9231C56.0478 19.6945 56.2225 20.5302 56.2213 21.3752C56.2197 22.1579 56.0664 22.9325 55.7701 23.6549C55.4741 24.3773 55.0407 25.0334 54.4951 25.5856C53.9494 26.1379 53.3021 26.5754 52.5901 26.8734C51.8781 27.1714 51.1151 27.3239 50.345 27.3222C49.4887 27.3216 48.6427 27.1297 47.8676 26.76C47.0922 26.3903 46.4063 25.8519 45.8585 25.1829L45.8026 25.1134C45.4267 24.5976 45.1133 24.0374 44.8698 23.445C44.5474 22.7014 44.1861 21.9757 43.7878 21.271C43.5764 20.9076 43.3401 20.5631 43.0976 20.2219C42.8881 19.9168 42.6403 19.6407 42.3607 19.4003C41.8104 18.9484 41.1171 18.7683 40.4704 19.157C40.4393 19.1751 40.4091 19.1952 40.3802 19.217C39.7149 19.6815 39.2485 20.62 38.9251 21.3405C37.9924 23.3818 37.4576 25.4736 36.9291 27.6224C36.8296 28.0363 36.7301 28.4503 36.6368 28.8674L34.1651 37.0832L30.6798 44.8945C29.432 46.531 27.8351 47.8585 26.0095 48.7771C24.1838 49.6954 22.1769 50.181 20.1398 50.1968C11.6736 50.3801 7.65664 42.613 7.65664 42.613C2.83439 34.5742 1.41351 23.9695 1.07462 20.5789C1.00311 19.8743 1 19.454 1 19.454C0.999608 18.392 1.28466 17.35 1.82438 16.4406C2.36411 15.5312 3.138 14.7889 4.0625 14.2938C5.01842 13.8016 6.08218 13.5655 7.15299 13.6081C8.14922 13.6505 9.11853 13.9495 9.96987 14.4771C10.6314 14.8795 11.2032 15.4176 11.6488 16.0571C12.4447 17.2073 12.625 18.6387 12.7836 20.007C13.1129 23.0076 13.6901 25.9747 14.5092 28.8769Z" fill="url(#paint14_radial_13250_6183)"/>
<path d="M14.5092 28.8769C15.1607 31.2045 16.0484 33.457 17.1582 35.598C17.6649 36.546 18.1717 37.494 19.092 38.0912C19.2515 38.193 19.4272 38.2658 19.6113 38.3061C20.9668 38.6 21.71 37.4908 22.1888 36.4765C22.9033 34.885 23.4806 33.2336 23.9143 31.5407C23.9983 31.2247 24.0791 30.9087 24.1599 30.5927C24.3154 29.9892 24.4708 29.3793 24.6045 28.7694L30.5865 12.5274C31.8291 10.8455 33.44 9.48066 35.2915 8.54113C37.143 7.6016 39.1845 7.11316 41.2539 7.11451C44.234 7.09586 47.1314 8.11014 49.4682 9.99004C53.3795 12.9983 55.7083 18.9231 55.7083 18.9231C56.0478 19.6945 56.2225 20.5302 56.2213 21.3752C56.2197 22.1579 56.0664 22.9325 55.7701 23.6549C55.4741 24.3773 55.0407 25.0334 54.4951 25.5856C53.9494 26.1379 53.3021 26.5754 52.5901 26.8734C51.8781 27.1714 51.1151 27.3239 50.345 27.3222C49.4887 27.3216 48.6427 27.1297 47.8676 26.76C47.0922 26.3903 46.4063 25.8519 45.8585 25.1829L45.8026 25.1134C45.4267 24.5976 45.1133 24.0374 44.8698 23.445C44.5474 22.7014 44.1861 21.9757 43.7878 21.271C43.5764 20.9076 43.3401 20.5631 43.0976 20.2219C42.8881 19.9168 42.6403 19.6407 42.3607 19.4003C41.8104 18.9484 41.1171 18.7683 40.4704 19.157C40.4393 19.1751 40.4091 19.1952 40.3802 19.217C39.7149 19.6815 39.2485 20.62 38.9251 21.3405C37.9924 23.3818 37.4576 25.4736 36.9291 27.6224C36.8296 28.0363 36.7301 28.4503 36.6368 28.8674L34.1651 37.0832L30.6798 44.8945C29.432 46.531 27.8351 47.8585 26.0095 48.7771C24.1838 49.6954 22.1769 50.181 20.1398 50.1968C11.6736 50.3801 7.65664 42.613 7.65664 42.613C2.83439 34.5742 1.41351 23.9695 1.07462 20.5789C1.00311 19.8743 1 19.454 1 19.454C0.999608 18.392 1.28466 17.35 1.82438 16.4406C2.36411 15.5312 3.138 14.7889 4.0625 14.2938C5.01842 13.8016 6.08218 13.5655 7.15299 13.6081C8.14922 13.6505 9.11853 13.9495 9.96987 14.4771C10.6314 14.8795 11.2032 15.4176 11.6488 16.0571C12.4447 17.2073 12.625 18.6387 12.7836 20.007C13.1129 23.0076 13.6901 25.9747 14.5092 28.8769Z" fill="url(#paint15_radial_13250_6183)"/>
<path d="M14.5092 28.8769C15.1607 31.2045 16.0484 33.457 17.1582 35.598C17.6649 36.546 18.1717 37.494 19.092 38.0912C19.2515 38.193 19.4272 38.2658 19.6113 38.3061C20.9668 38.6 21.71 37.4908 22.1888 36.4765C22.9033 34.885 23.4806 33.2336 23.9143 31.5407C23.9983 31.2247 24.0791 30.9087 24.1599 30.5927C24.3154 29.9892 24.4708 29.3793 24.6045 28.7694L30.5865 12.5274C31.8291 10.8455 33.44 9.48066 35.2915 8.54113C37.143 7.6016 39.1845 7.11316 41.2539 7.11451C44.234 7.09586 47.1314 8.11014 49.4682 9.99004C53.3795 12.9983 55.7083 18.9231 55.7083 18.9231C56.0478 19.6945 56.2225 20.5302 56.2213 21.3752C56.2197 22.1579 56.0664 22.9325 55.7701 23.6549C55.4741 24.3773 55.0407 25.0334 54.4951 25.5856C53.9494 26.1379 53.3021 26.5754 52.5901 26.8734C51.8781 27.1714 51.1151 27.3239 50.345 27.3222C49.4887 27.3216 48.6427 27.1297 47.8676 26.76C47.0922 26.3903 46.4063 25.8519 45.8585 25.1829L45.8026 25.1134C45.4267 24.5976 45.1133 24.0374 44.8698 23.445C44.5474 22.7014 44.1861 21.9757 43.7878 21.271C43.5764 20.9076 43.3401 20.5631 43.0976 20.2219C42.8881 19.9168 42.6403 19.6407 42.3607 19.4003C41.8104 18.9484 41.1171 18.7683 40.4704 19.157C40.4393 19.1751 40.4091 19.1952 40.3802 19.217C39.7149 19.6815 39.2485 20.62 38.9251 21.3405C37.9924 23.3818 37.4576 25.4736 36.9291 27.6224C36.8296 28.0363 36.7301 28.4503 36.6368 28.8674L34.1651 37.0832L30.6798 44.8945C29.432 46.531 27.8351 47.8585 26.0095 48.7771C24.1838 49.6954 22.1769 50.181 20.1398 50.1968C11.6736 50.3801 7.65664 42.613 7.65664 42.613C2.83439 34.5742 1.41351 23.9695 1.07462 20.5789C1.00311 19.8743 1 19.454 1 19.454C0.999608 18.392 1.28466 17.35 1.82438 16.4406C2.36411 15.5312 3.138 14.7889 4.0625 14.2938C5.01842 13.8016 6.08218 13.5655 7.15299 13.6081C8.14922 13.6505 9.11853 13.9495 9.96987 14.4771C10.6314 14.8795 11.2032 15.4176 11.6488 16.0571C12.4447 17.2073 12.625 18.6387 12.7836 20.007C13.1129 23.0076 13.6901 25.9747 14.5092 28.8769Z" fill="url(#paint16_linear_13250_6183)"/>
<path d="M14.5092 28.8769C15.1607 31.2045 16.0484 33.457 17.1582 35.598C17.6649 36.546 18.1717 37.494 19.092 38.0912C19.2515 38.193 19.4272 38.2658 19.6113 38.3061C20.9668 38.6 21.71 37.4908 22.1888 36.4765C22.9033 34.885 23.4806 33.2336 23.9143 31.5407C23.9983 31.2247 24.0791 30.9087 24.1599 30.5927C24.3154 29.9892 24.4708 29.3793 24.6045 28.7694L30.5865 12.5274C31.8291 10.8455 33.44 9.48066 35.2915 8.54113C37.143 7.6016 39.1845 7.11316 41.2539 7.11451C44.234 7.09586 47.1314 8.11014 49.4682 9.99004C53.3795 12.9983 55.7083 18.9231 55.7083 18.9231C56.0478 19.6945 56.2225 20.5302 56.2213 21.3752C56.2197 22.1579 56.0664 22.9325 55.7701 23.6549C55.4741 24.3773 55.0407 25.0334 54.4951 25.5856C53.9494 26.1379 53.3021 26.5754 52.5901 26.8734C51.8781 27.1714 51.1151 27.3239 50.345 27.3222C49.4887 27.3216 48.6427 27.1297 47.8676 26.76C47.0922 26.3903 46.4063 25.8519 45.8585 25.1829L45.8026 25.1134C45.4267 24.5976 45.1133 24.0374 44.8698 23.445C44.5474 22.7014 44.1861 21.9757 43.7878 21.271C43.5764 20.9076 43.3401 20.5631 43.0976 20.2219C42.8881 19.9168 42.6403 19.6407 42.3607 19.4003C41.8104 18.9484 41.1171 18.7683 40.4704 19.157C40.4393 19.1751 40.4091 19.1952 40.3802 19.217C39.7149 19.6815 39.2485 20.62 38.9251 21.3405C37.9924 23.3818 37.4576 25.4736 36.9291 27.6224C36.8296 28.0363 36.7301 28.4503 36.6368 28.8674L34.1651 37.0832L30.6798 44.8945C29.432 46.531 27.8351 47.8585 26.0095 48.7771C24.1838 49.6954 22.1769 50.181 20.1398 50.1968C11.6736 50.3801 7.65664 42.613 7.65664 42.613C2.83439 34.5742 1.41351 23.9695 1.07462 20.5789C1.00311 19.8743 1 19.454 1 19.454C0.999608 18.392 1.28466 17.35 1.82438 16.4406C2.36411 15.5312 3.138 14.7889 4.0625 14.2938C5.01842 13.8016 6.08218 13.5655 7.15299 13.6081C8.14922 13.6505 9.11853 13.9495 9.96987 14.4771C10.6314 14.8795 11.2032 15.4176 11.6488 16.0571C12.4447 17.2073 12.625 18.6387 12.7836 20.007C13.1129 23.0076 13.6901 25.9747 14.5092 28.8769Z" fill="url(#paint17_linear_13250_6183)"/>
<path d="M14.5092 28.8769C15.1607 31.2045 16.0484 33.457 17.1582 35.598C17.6649 36.546 18.1717 37.494 19.092 38.0912C19.2515 38.193 19.4272 38.2658 19.6113 38.3061C20.9668 38.6 21.71 37.4908 22.1888 36.4765C22.9033 34.885 23.4806 33.2336 23.9143 31.5407C23.9983 31.2247 24.0791 30.9087 24.1599 30.5927C24.3154 29.9892 24.4708 29.3793 24.6045 28.7694L30.5865 12.5274C31.8291 10.8455 33.44 9.48066 35.2915 8.54113C37.143 7.6016 39.1845 7.11316 41.2539 7.11451C44.234 7.09586 47.1314 8.11014 49.4682 9.99004C53.3795 12.9983 55.7083 18.9231 55.7083 18.9231C56.0478 19.6945 56.2225 20.5302 56.2213 21.3752C56.2197 22.1579 56.0664 22.9325 55.7701 23.6549C55.4741 24.3773 55.0407 25.0334 54.4951 25.5856C53.9494 26.1379 53.3021 26.5754 52.5901 26.8734C51.8781 27.1714 51.1151 27.3239 50.345 27.3222C49.4887 27.3216 48.6427 27.1297 47.8676 26.76C47.0922 26.3903 46.4063 25.8519 45.8585 25.1829L45.8026 25.1134C45.4267 24.5976 45.1133 24.0374 44.8698 23.445C44.5474 22.7014 44.1861 21.9757 43.7878 21.271C43.5764 20.9076 43.3401 20.5631 43.0976 20.2219C42.8881 19.9168 42.6403 19.6407 42.3607 19.4003C41.8104 18.9484 41.1171 18.7683 40.4704 19.157C40.4393 19.1751 40.4091 19.1952 40.3802 19.217C39.7149 19.6815 39.2485 20.62 38.9251 21.3405C37.9924 23.3818 37.4576 25.4736 36.9291 27.6224C36.8296 28.0363 36.7301 28.4503 36.6368 28.8674L34.1651 37.0832L30.6798 44.8945C29.432 46.531 27.8351 47.8585 26.0095 48.7771C24.1838 49.6954 22.1769 50.181 20.1398 50.1968C11.6736 50.3801 7.65664 42.613 7.65664 42.613C2.83439 34.5742 1.41351 23.9695 1.07462 20.5789C1.00311 19.8743 1 19.454 1 19.454C0.999608 18.392 1.28466 17.35 1.82438 16.4406C2.36411 15.5312 3.138 14.7889 4.0625 14.2938C5.01842 13.8016 6.08218 13.5655 7.15299 13.6081C8.14922 13.6505 9.11853 13.9495 9.96987 14.4771C10.6314 14.8795 11.2032 15.4176 11.6488 16.0571C12.4447 17.2073 12.625 18.6387 12.7836 20.007C13.1129 23.0076 13.6901 25.9747 14.5092 28.8769Z" fill="url(#paint18_linear_13250_6183)"/>
<path d="M14.5092 28.8769C15.1607 31.2045 16.0484 33.457 17.1582 35.598C17.6649 36.546 18.1717 37.494 19.092 38.0912C19.2515 38.193 19.4272 38.2658 19.6113 38.3061C20.9668 38.6 21.71 37.4908 22.1888 36.4765C22.9033 34.885 23.4806 33.2336 23.9143 31.5407C23.9983 31.2247 24.0791 30.9087 24.1599 30.5927C24.3154 29.9892 24.4708 29.3793 24.6045 28.7694L30.5865 12.5274C31.8291 10.8455 33.44 9.48066 35.2915 8.54113C37.143 7.6016 39.1845 7.11316 41.2539 7.11451C44.234 7.09586 47.1314 8.11014 49.4682 9.99004C53.3795 12.9983 55.7083 18.9231 55.7083 18.9231C56.0478 19.6945 56.2225 20.5302 56.2213 21.3752C56.2197 22.1579 56.0664 22.9325 55.7701 23.6549C55.4741 24.3773 55.0407 25.0334 54.4951 25.5856C53.9494 26.1379 53.3021 26.5754 52.5901 26.8734C51.8781 27.1714 51.1151 27.3239 50.345 27.3222C49.4887 27.3216 48.6427 27.1297 47.8676 26.76C47.0922 26.3903 46.4063 25.8519 45.8585 25.1829L45.8026 25.1134C45.4267 24.5976 45.1133 24.0374 44.8698 23.445C44.5474 22.7014 44.1861 21.9757 43.7878 21.271C43.5764 20.9076 43.3401 20.5631 43.0976 20.2219C42.8881 19.9168 42.6403 19.6407 42.3607 19.4003C41.8104 18.9484 41.1171 18.7683 40.4704 19.157C40.4393 19.1751 40.4091 19.1952 40.3802 19.217C39.7149 19.6815 39.2485 20.62 38.9251 21.3405C37.9924 23.3818 37.4576 25.4736 36.9291 27.6224C36.8296 28.0363 36.7301 28.4503 36.6368 28.8674L34.1651 37.0832L30.6798 44.8945C29.432 46.531 27.8351 47.8585 26.0095 48.7771C24.1838 49.6954 22.1769 50.181 20.1398 50.1968C11.6736 50.3801 7.65664 42.613 7.65664 42.613C2.83439 34.5742 1.41351 23.9695 1.07462 20.5789C1.00311 19.8743 1 19.454 1 19.454C0.999608 18.392 1.28466 17.35 1.82438 16.4406C2.36411 15.5312 3.138 14.7889 4.0625 14.2938C5.01842 13.8016 6.08218 13.5655 7.15299 13.6081C8.14922 13.6505 9.11853 13.9495 9.96987 14.4771C10.6314 14.8795 11.2032 15.4176 11.6488 16.0571C12.4447 17.2073 12.625 18.6387 12.7836 20.007C13.1129 23.0076 13.6901 25.9747 14.5092 28.8769Z" fill="url(#paint19_linear_13250_6183)"/>
<path d="M26.7842 22.8512L30.5867 12.5309C31.8292 10.8489 33.4402 9.48408 35.2917 8.54455C37.1432 7.60502 39.1847 7.11658 41.2541 7.11793C44.2342 7.09928 47.1316 8.11356 49.4685 9.99346C53.3798 13.0017 55.7085 18.9265 55.7085 18.9265C56.048 19.6979 56.2227 20.5337 56.2215 21.3786C56.2199 22.1613 56.0667 22.9359 55.7704 23.6583C55.4741 24.3808 55.041 25.0368 54.4953 25.5891C53.9497 26.1413 53.3023 26.5789 52.59 26.8768C51.878 27.1748 51.1154 27.3273 50.3452 27.3256C49.489 27.325 48.643 27.1331 47.8679 26.7634C47.0925 26.3938 46.4066 25.8553 45.8588 25.1863L45.8028 25.1168C45.4266 24.601 45.1135 24.0408 44.87 23.4484C44.5473 22.7048 44.1864 21.9791 43.7881 21.2744C43.5766 20.911 43.3404 20.5665 43.0978 20.2253C42.8883 19.9202 42.6405 19.6441 42.361 19.4037C41.8107 18.9518 41.1173 18.7717 40.4706 19.1604C40.4395 19.1785 40.4094 19.1986 40.3805 19.2204C39.7151 19.6849 39.2487 20.6234 38.9254 21.3439C37.9926 23.3852 37.4579 25.4771 36.9293 27.6258C36.8298 28.0398 36.7303 28.4537 36.6371 28.8708L34.1653 37.0866L26.7842 22.8512Z" fill="url(#paint20_linear_13250_6183)"/>
<path d="M54.4086 13.6337C53.9146 13.6326 53.4227 13.6953 52.9442 13.8202C54.0349 15.4219 54.9608 17.133 55.7082 18.9266C56.0478 19.698 56.2225 20.5337 56.2213 21.3787C56.2197 22.1614 56.0664 22.936 55.7701 23.6584C55.4738 24.3808 55.0407 25.0369 54.4951 25.5891C53.9494 26.1413 53.3021 26.5789 52.5898 26.8769C51.8778 27.1749 51.1151 27.3274 50.345 27.3257C49.304 27.3237 48.2824 27.0401 47.3851 26.5041L46.7819 28.7698C45.6875 32.489 44.9164 33.9268 44.9164 33.9268C44.4917 34.9351 43.9862 35.9063 43.4054 36.8307C43.0043 37.4343 42.4913 38.041 41.7886 38.2716C41.5443 38.3582 41.2831 38.3842 41.0269 38.3475C40.7496 38.3133 40.4819 38.2219 40.2403 38.0789C39.7783 37.7257 39.4108 37.2608 39.1708 36.7264C38.8735 36.1332 38.6068 35.5246 38.3717 34.9032C37.8525 33.6202 37.0503 30.4603 37.0503 30.4603L36.2202 27.1519L35.39 23.8182L34.7993 21.6283C33.2447 15.9247 31.0932 13.1187 31.0932 13.1187C29.4021 10.668 27.0063 8.80916 24.2344 7.79737C21.0196 6.62504 17.6462 7.28546 17.6462 7.28546C12.3607 8.34087 9.58419 12.0253 8.3623 13.7981C8.92154 13.9465 9.45669 14.1764 9.95107 14.4806C10.6126 14.883 11.1844 15.4211 11.63 16.0606C12.4259 17.2108 12.6063 18.6422 12.7648 20.0105C13.0984 22.9759 13.6745 25.9079 14.4873 28.7761C16.2782 22.7406 18.4266 19.9283 18.4266 19.9283C18.6666 19.6252 18.9545 19.3646 19.2785 19.1573C19.4471 19.0521 19.6357 18.9842 19.8319 18.9582C20.1955 18.9227 20.5603 19.0129 20.8672 19.2142C20.9235 19.2518 20.9765 19.294 21.0258 19.3406C21.3066 19.5936 21.5478 19.8888 21.7409 20.2159C22.1882 21.0284 22.5758 21.8733 22.9006 22.7438C23.5722 24.665 24.1443 27.0128 24.1443 27.0128L25.8543 33.8636C27.098 38.5213 28.1519 40.7838 28.1519 40.7838C30.7481 46.8256 34.7185 48.5256 34.7185 48.5256C36.6514 49.5763 38.8011 50.1479 40.9927 50.194C43.0848 50.2519 45.1599 49.7978 47.0431 48.87C49.1079 47.838 50.9192 46.349 52.3442 44.5125C53.3049 43.3812 54.7195 40.6258 54.7195 40.6258C56.2794 37.4668 57.5041 34.1481 58.3728 30.7257C58.9278 28.5936 59.373 26.4335 59.7066 24.2542C59.8745 23.1735 60.0331 22.0865 60.1605 20.9964C60.3194 19.9641 60.2877 18.9107 60.0673 17.8902C60.0209 17.7067 59.964 17.5263 59.8962 17.3498C59.3966 16.0691 58.4701 15.0077 57.2784 14.351C56.3951 13.8738 55.4088 13.6273 54.4086 13.6337Z" fill="url(#paint21_linear_13250_6183)"/>
<path d="M54.4086 13.6337C53.9146 13.6326 53.4227 13.6953 52.9442 13.8202C54.0349 15.4219 54.9608 17.133 55.7082 18.9266C56.0478 19.698 56.2225 20.5337 56.2213 21.3787C56.2197 22.1614 56.0664 22.936 55.7701 23.6584C55.4738 24.3808 55.0407 25.0369 54.4951 25.5891C53.9494 26.1413 53.3021 26.5789 52.5898 26.8769C51.8778 27.1749 51.1151 27.3274 50.345 27.3257C49.304 27.3237 48.2824 27.0401 47.3851 26.5041L46.7819 28.7698C45.6875 32.489 44.9164 33.9268 44.9164 33.9268C44.4917 34.9351 43.9862 35.9063 43.4054 36.8307C43.0043 37.4343 42.4913 38.041 41.7886 38.2716C41.5443 38.3582 41.2831 38.3842 41.0269 38.3475C40.7496 38.3133 40.4819 38.2219 40.2403 38.0789C39.7783 37.7257 39.4108 37.2608 39.1708 36.7264C38.8735 36.1332 38.6068 35.5246 38.3717 34.9032C37.8525 33.6202 37.0503 30.4603 37.0503 30.4603L36.2202 27.1519L35.39 23.8182L34.7993 21.6283C33.2447 15.9247 31.0932 13.1187 31.0932 13.1187C29.4021 10.668 27.0063 8.80916 24.2344 7.79737C21.0196 6.62504 17.6462 7.28546 17.6462 7.28546C12.3607 8.34087 9.58419 12.0253 8.3623 13.7981C8.92154 13.9465 9.45669 14.1764 9.95107 14.4806C10.6126 14.883 11.1844 15.4211 11.63 16.0606C12.4259 17.2108 12.6063 18.6422 12.7648 20.0105C13.0984 22.9759 13.6745 25.9079 14.4873 28.7761C16.2782 22.7406 18.4266 19.9283 18.4266 19.9283C18.6666 19.6252 18.9545 19.3646 19.2785 19.1573C19.4471 19.0521 19.6357 18.9842 19.8319 18.9582C20.1955 18.9227 20.5603 19.0129 20.8672 19.2142C20.9235 19.2518 20.9765 19.294 21.0258 19.3406C21.3066 19.5936 21.5478 19.8888 21.7409 20.2159C22.1882 21.0284 22.5758 21.8733 22.9006 22.7438C23.5722 24.665 24.1443 27.0128 24.1443 27.0128L25.8543 33.8636C27.098 38.5213 28.1519 40.7838 28.1519 40.7838C30.7481 46.8256 34.7185 48.5256 34.7185 48.5256C36.6514 49.5763 38.8011 50.1479 40.9927 50.194C43.0848 50.2519 45.1599 49.7978 47.0431 48.87C49.1079 47.838 50.9192 46.349 52.3442 44.5125C53.3049 43.3812 54.7195 40.6258 54.7195 40.6258C56.2794 37.4668 57.5041 34.1481 58.3728 30.7257C58.9278 28.5936 59.373 26.4335 59.7066 24.2542C59.8745 23.1735 60.0331 22.0865 60.1605 20.9964C60.3194 19.9641 60.2877 18.9107 60.0673 17.8902C60.0209 17.7067 59.964 17.5263 59.8962 17.3498C59.3966 16.0691 58.4701 15.0077 57.2784 14.351C56.3951 13.8738 55.4088 13.6273 54.4086 13.6337Z" fill="url(#paint22_radial_13250_6183)"/>
<path d="M54.4086 13.6337C53.9146 13.6326 53.4227 13.6953 52.9442 13.8202C54.0349 15.4219 54.9608 17.133 55.7082 18.9266C56.0478 19.698 56.2225 20.5337 56.2213 21.3787C56.2197 22.1614 56.0664 22.936 55.7701 23.6584C55.4738 24.3808 55.0407 25.0369 54.4951 25.5891C53.9494 26.1413 53.3021 26.5789 52.5898 26.8769C51.8778 27.1749 51.1151 27.3274 50.345 27.3257C49.304 27.3237 48.2824 27.0401 47.3851 26.5041L46.7819 28.7698C45.6875 32.489 44.9164 33.9268 44.9164 33.9268C44.4917 34.9351 43.9862 35.9063 43.4054 36.8307C43.0043 37.4343 42.4913 38.041 41.7886 38.2716C41.5443 38.3582 41.2831 38.3842 41.0269 38.3475C40.7496 38.3133 40.4819 38.2219 40.2403 38.0789C39.7783 37.7257 39.4108 37.2608 39.1708 36.7264C38.8735 36.1332 38.6068 35.5246 38.3717 34.9032C37.8525 33.6202 37.0503 30.4603 37.0503 30.4603L36.2202 27.1519L35.39 23.8182L34.7993 21.6283C33.2447 15.9247 31.0932 13.1187 31.0932 13.1187C29.4021 10.668 27.0063 8.80916 24.2344 7.79737C21.0196 6.62504 17.6462 7.28546 17.6462 7.28546C12.3607 8.34087 9.58419 12.0253 8.3623 13.7981C8.92154 13.9465 9.45669 14.1764 9.95107 14.4806C10.6126 14.883 11.1844 15.4211 11.63 16.0606C12.4259 17.2108 12.6063 18.6422 12.7648 20.0105C13.0984 22.9759 13.6745 25.9079 14.4873 28.7761C16.2782 22.7406 18.4266 19.9283 18.4266 19.9283C18.6666 19.6252 18.9545 19.3646 19.2785 19.1573C19.4471 19.0521 19.6357 18.9842 19.8319 18.9582C20.1955 18.9227 20.5603 19.0129 20.8672 19.2142C20.9235 19.2518 20.9765 19.294 21.0258 19.3406C21.3066 19.5936 21.5478 19.8888 21.7409 20.2159C22.1882 21.0284 22.5758 21.8733 22.9006 22.7438C23.5722 24.665 24.1443 27.0128 24.1443 27.0128L25.8543 33.8636C27.098 38.5213 28.1519 40.7838 28.1519 40.7838C30.7481 46.8256 34.7185 48.5256 34.7185 48.5256C36.6514 49.5763 38.8011 50.1479 40.9927 50.194C43.0848 50.2519 45.1599 49.7978 47.0431 48.87C49.1079 47.838 50.9192 46.349 52.3442 44.5125C53.3049 43.3812 54.7195 40.6258 54.7195 40.6258C56.2794 37.4668 57.5041 34.1481 58.3728 30.7257C58.9278 28.5936 59.373 26.4335 59.7066 24.2542C59.8745 23.1735 60.0331 22.0865 60.1605 20.9964C60.3194 19.9641 60.2877 18.9107 60.0673 17.8902C60.0209 17.7067 59.964 17.5263 59.8962 17.3498C59.3966 16.0691 58.4701 15.0077 57.2784 14.351C56.3951 13.8738 55.4088 13.6273 54.4086 13.6337Z" fill="url(#paint23_radial_13250_6183)"/>
<path d="M54.4086 13.6337C53.9146 13.6326 53.4227 13.6953 52.9442 13.8202C54.0349 15.4219 54.9608 17.133 55.7082 18.9266C56.0478 19.698 56.2225 20.5337 56.2213 21.3787C56.2197 22.1614 56.0664 22.936 55.7701 23.6584C55.4738 24.3808 55.0407 25.0369 54.4951 25.5891C53.9494 26.1413 53.3021 26.5789 52.5898 26.8769C51.8778 27.1749 51.1151 27.3274 50.345 27.3257C49.304 27.3237 48.2824 27.0401 47.3851 26.5041L46.7819 28.7698C45.6875 32.489 44.9164 33.9268 44.9164 33.9268C44.4917 34.9351 43.9862 35.9063 43.4054 36.8307C43.0043 37.4343 42.4913 38.041 41.7886 38.2716C41.5443 38.3582 41.2831 38.3842 41.0269 38.3475C40.7496 38.3133 40.4819 38.2219 40.2403 38.0789C39.7783 37.7257 39.4108 37.2608 39.1708 36.7264C38.8735 36.1332 38.6068 35.5246 38.3717 34.9032C37.8525 33.6202 37.0503 30.4603 37.0503 30.4603L36.2202 27.1519L35.39 23.8182L34.7993 21.6283C33.2447 15.9247 31.0932 13.1187 31.0932 13.1187C29.4021 10.668 27.0063 8.80916 24.2344 7.79737C21.0196 6.62504 17.6462 7.28546 17.6462 7.28546C12.3607 8.34087 9.58419 12.0253 8.3623 13.7981C8.92154 13.9465 9.45669 14.1764 9.95107 14.4806C10.6126 14.883 11.1844 15.4211 11.63 16.0606C12.4259 17.2108 12.6063 18.6422 12.7648 20.0105C13.0984 22.9759 13.6745 25.9079 14.4873 28.7761C16.2782 22.7406 18.4266 19.9283 18.4266 19.9283C18.6666 19.6252 18.9545 19.3646 19.2785 19.1573C19.4471 19.0521 19.6357 18.9842 19.8319 18.9582C20.1955 18.9227 20.5603 19.0129 20.8672 19.2142C20.9235 19.2518 20.9765 19.294 21.0258 19.3406C21.3066 19.5936 21.5478 19.8888 21.7409 20.2159C22.1882 21.0284 22.5758 21.8733 22.9006 22.7438C23.5722 24.665 24.1443 27.0128 24.1443 27.0128L25.8543 33.8636C27.098 38.5213 28.1519 40.7838 28.1519 40.7838C30.7481 46.8256 34.7185 48.5256 34.7185 48.5256C36.6514 49.5763 38.8011 50.1479 40.9927 50.194C43.0848 50.2519 45.1599 49.7978 47.0431 48.87C49.1079 47.838 50.9192 46.349 52.3442 44.5125C53.3049 43.3812 54.7195 40.6258 54.7195 40.6258C56.2794 37.4668 57.5041 34.1481 58.3728 30.7257C58.9278 28.5936 59.373 26.4335 59.7066 24.2542C59.8745 23.1735 60.0331 22.0865 60.1605 20.9964C60.3194 19.9641 60.2877 18.9107 60.0673 17.8902C60.0209 17.7067 59.964 17.5263 59.8962 17.3498C59.3966 16.0691 58.4701 15.0077 57.2784 14.351C56.3951 13.8738 55.4088 13.6273 54.4086 13.6337Z" fill="url(#paint24_radial_13250_6183)"/>
<path d="M54.4086 13.6337C53.9146 13.6326 53.4227 13.6953 52.9442 13.8202C54.0349 15.4219 54.9608 17.133 55.7082 18.9266C56.0478 19.698 56.2225 20.5337 56.2213 21.3787C56.2197 22.1614 56.0664 22.936 55.7701 23.6584C55.4738 24.3808 55.0407 25.0369 54.4951 25.5891C53.9494 26.1413 53.3021 26.5789 52.5898 26.8769C51.8778 27.1749 51.1151 27.3274 50.345 27.3257C49.304 27.3237 48.2824 27.0401 47.3851 26.5041L46.7819 28.7698C45.6875 32.489 44.9164 33.9268 44.9164 33.9268C44.4917 34.9351 43.9862 35.9063 43.4054 36.8307C43.0043 37.4343 42.4913 38.041 41.7886 38.2716C41.5443 38.3582 41.2831 38.3842 41.0269 38.3475C40.7496 38.3133 40.4819 38.2219 40.2403 38.0789C39.7783 37.7257 39.4108 37.2608 39.1708 36.7264C38.8735 36.1332 38.6068 35.5246 38.3717 34.9032C37.8525 33.6202 37.0503 30.4603 37.0503 30.4603L36.2202 27.1519L35.39 23.8182L34.7993 21.6283C33.2447 15.9247 31.0932 13.1187 31.0932 13.1187C29.4021 10.668 27.0063 8.80916 24.2344 7.79737C21.0196 6.62504 17.6462 7.28546 17.6462 7.28546C12.3607 8.34087 9.58419 12.0253 8.3623 13.7981C8.92154 13.9465 9.45669 14.1764 9.95107 14.4806C10.6126 14.883 11.1844 15.4211 11.63 16.0606C12.4259 17.2108 12.6063 18.6422 12.7648 20.0105C13.0984 22.9759 13.6745 25.9079 14.4873 28.7761C16.2782 22.7406 18.4266 19.9283 18.4266 19.9283C18.6666 19.6252 18.9545 19.3646 19.2785 19.1573C19.4471 19.0521 19.6357 18.9842 19.8319 18.9582C20.1955 18.9227 20.5603 19.0129 20.8672 19.2142C20.9235 19.2518 20.9765 19.294 21.0258 19.3406C21.3066 19.5936 21.5478 19.8888 21.7409 20.2159C22.1882 21.0284 22.5758 21.8733 22.9006 22.7438C23.5722 24.665 24.1443 27.0128 24.1443 27.0128L25.8543 33.8636C27.098 38.5213 28.1519 40.7838 28.1519 40.7838C30.7481 46.8256 34.7185 48.5256 34.7185 48.5256C36.6514 49.5763 38.8011 50.1479 40.9927 50.194C43.0848 50.2519 45.1599 49.7978 47.0431 48.87C49.1079 47.838 50.9192 46.349 52.3442 44.5125C53.3049 43.3812 54.7195 40.6258 54.7195 40.6258C56.2794 37.4668 57.5041 34.1481 58.3728 30.7257C58.9278 28.5936 59.373 26.4335 59.7066 24.2542C59.8745 23.1735 60.0331 22.0865 60.1605 20.9964C60.3194 19.9641 60.2877 18.9107 60.0673 17.8902C60.0209 17.7067 59.964 17.5263 59.8962 17.3498C59.3966 16.0691 58.4701 15.0077 57.2784 14.351C56.3951 13.8738 55.4088 13.6273 54.4086 13.6337Z" fill="url(#paint25_radial_13250_6183)"/>
<path d="M54.4086 13.6337C53.9146 13.6326 53.4227 13.6953 52.9442 13.8202C54.0349 15.4219 54.9608 17.133 55.7082 18.9266C56.0478 19.698 56.2225 20.5337 56.2213 21.3787C56.2197 22.1614 56.0664 22.936 55.7701 23.6584C55.4738 24.3808 55.0407 25.0369 54.4951 25.5891C53.9494 26.1413 53.3021 26.5789 52.5898 26.8769C51.8778 27.1749 51.1151 27.3274 50.345 27.3257C49.304 27.3237 48.2824 27.0401 47.3851 26.5041L46.7819 28.7698C45.6875 32.489 44.9164 33.9268 44.9164 33.9268C44.4917 34.9351 43.9862 35.9063 43.4054 36.8307C43.0043 37.4343 42.4913 38.041 41.7886 38.2716C41.5443 38.3582 41.2831 38.3842 41.0269 38.3475C40.7496 38.3133 40.4819 38.2219 40.2403 38.0789C39.7783 37.7257 39.4108 37.2608 39.1708 36.7264C38.8735 36.1332 38.6068 35.5246 38.3717 34.9032C37.8525 33.6202 37.0503 30.4603 37.0503 30.4603L36.2202 27.1519L35.39 23.8182L34.7993 21.6283C33.2447 15.9247 31.0932 13.1187 31.0932 13.1187C29.4021 10.668 27.0063 8.80916 24.2344 7.79737C21.0196 6.62504 17.6462 7.28546 17.6462 7.28546C12.3607 8.34087 9.58419 12.0253 8.3623 13.7981C8.92154 13.9465 9.45669 14.1764 9.95107 14.4806C10.6126 14.883 11.1844 15.4211 11.63 16.0606C12.4259 17.2108 12.6063 18.6422 12.7648 20.0105C13.0984 22.9759 13.6745 25.9079 14.4873 28.7761C16.2782 22.7406 18.4266 19.9283 18.4266 19.9283C18.6666 19.6252 18.9545 19.3646 19.2785 19.1573C19.4471 19.0521 19.6357 18.9842 19.8319 18.9582C20.1955 18.9227 20.5603 19.0129 20.8672 19.2142C20.9235 19.2518 20.9765 19.294 21.0258 19.3406C21.3066 19.5936 21.5478 19.8888 21.7409 20.2159C22.1882 21.0284 22.5758 21.8733 22.9006 22.7438C23.5722 24.665 24.1443 27.0128 24.1443 27.0128L25.8543 33.8636C27.098 38.5213 28.1519 40.7838 28.1519 40.7838C30.7481 46.8256 34.7185 48.5256 34.7185 48.5256C36.6514 49.5763 38.8011 50.1479 40.9927 50.194C43.0848 50.2519 45.1599 49.7978 47.0431 48.87C49.1079 47.838 50.9192 46.349 52.3442 44.5125C53.3049 43.3812 54.7195 40.6258 54.7195 40.6258C56.2794 37.4668 57.5041 34.1481 58.3728 30.7257C58.9278 28.5936 59.373 26.4335 59.7066 24.2542C59.8745 23.1735 60.0331 22.0865 60.1605 20.9964C60.3194 19.9641 60.2877 18.9107 60.0673 17.8902C60.0209 17.7067 59.964 17.5263 59.8962 17.3498C59.3966 16.0691 58.4701 15.0077 57.2784 14.351C56.3951 13.8738 55.4088 13.6273 54.4086 13.6337Z" fill="url(#paint26_radial_13250_6183)"/>
<path d="M54.4086 13.6337C53.9146 13.6326 53.4227 13.6953 52.9442 13.8202C54.0349 15.4219 54.9608 17.133 55.7082 18.9266C56.0478 19.698 56.2225 20.5337 56.2213 21.3787C56.2197 22.1614 56.0664 22.936 55.7701 23.6584C55.4738 24.3808 55.0407 25.0369 54.4951 25.5891C53.9494 26.1413 53.3021 26.5789 52.5898 26.8769C51.8778 27.1749 51.1151 27.3274 50.345 27.3257C49.304 27.3237 48.2824 27.0401 47.3851 26.5041L46.7819 28.7698C45.6875 32.489 44.9164 33.9268 44.9164 33.9268C44.4917 34.9351 43.9862 35.9063 43.4054 36.8307C43.0043 37.4343 42.4913 38.041 41.7886 38.2716C41.5443 38.3582 41.2831 38.3842 41.0269 38.3475C40.7496 38.3133 40.4819 38.2219 40.2403 38.0789C39.7783 37.7257 39.4108 37.2608 39.1708 36.7264C38.8735 36.1332 38.6068 35.5246 38.3717 34.9032C37.8525 33.6202 37.0503 30.4603 37.0503 30.4603L36.2202 27.1519L35.39 23.8182L34.7993 21.6283C33.2447 15.9247 31.0932 13.1187 31.0932 13.1187C29.4021 10.668 27.0063 8.80916 24.2344 7.79737C21.0196 6.62504 17.6462 7.28546 17.6462 7.28546C12.3607 8.34087 9.58419 12.0253 8.3623 13.7981C8.92154 13.9465 9.45669 14.1764 9.95107 14.4806C10.6126 14.883 11.1844 15.4211 11.63 16.0606C12.4259 17.2108 12.6063 18.6422 12.7648 20.0105C13.0984 22.9759 13.6745 25.9079 14.4873 28.7761C16.2782 22.7406 18.4266 19.9283 18.4266 19.9283C18.6666 19.6252 18.9545 19.3646 19.2785 19.1573C19.4471 19.0521 19.6357 18.9842 19.8319 18.9582C20.1955 18.9227 20.5603 19.0129 20.8672 19.2142C20.9235 19.2518 20.9765 19.294 21.0258 19.3406C21.3066 19.5936 21.5478 19.8888 21.7409 20.2159C22.1882 21.0284 22.5758 21.8733 22.9006 22.7438C23.5722 24.665 24.1443 27.0128 24.1443 27.0128L25.8543 33.8636C27.098 38.5213 28.1519 40.7838 28.1519 40.7838C30.7481 46.8256 34.7185 48.5256 34.7185 48.5256C36.6514 49.5763 38.8011 50.1479 40.9927 50.194C43.0848 50.2519 45.1599 49.7978 47.0431 48.87C49.1079 47.838 50.9192 46.349 52.3442 44.5125C53.3049 43.3812 54.7195 40.6258 54.7195 40.6258C56.2794 37.4668 57.5041 34.1481 58.3728 30.7257C58.9278 28.5936 59.373 26.4335 59.7066 24.2542C59.8745 23.1735 60.0331 22.0865 60.1605 20.9964C60.3194 19.9641 60.2877 18.9107 60.0673 17.8902C60.0209 17.7067 59.964 17.5263 59.8962 17.3498C59.3966 16.0691 58.4701 15.0077 57.2784 14.351C56.3951 13.8738 55.4088 13.6273 54.4086 13.6337Z" fill="url(#paint27_radial_13250_6183)"/>
<path d="M54.4086 13.6337C53.9146 13.6326 53.4227 13.6953 52.9442 13.8202C54.0349 15.4219 54.9608 17.133 55.7082 18.9266C56.0478 19.698 56.2225 20.5337 56.2213 21.3787C56.2197 22.1614 56.0664 22.936 55.7701 23.6584C55.4738 24.3808 55.0407 25.0369 54.4951 25.5891C53.9494 26.1413 53.3021 26.5789 52.5898 26.8769C51.8778 27.1749 51.1151 27.3274 50.345 27.3257C49.304 27.3237 48.2824 27.0401 47.3851 26.5041L46.7819 28.7698C45.6875 32.489 44.9164 33.9268 44.9164 33.9268C44.4917 34.9351 43.9862 35.9063 43.4054 36.8307C43.0043 37.4343 42.4913 38.041 41.7886 38.2716C41.5443 38.3582 41.2831 38.3842 41.0269 38.3475C40.7496 38.3133 40.4819 38.2219 40.2403 38.0789C39.7783 37.7257 39.4108 37.2608 39.1708 36.7264C38.8735 36.1332 38.6068 35.5246 38.3717 34.9032C37.8525 33.6202 37.0503 30.4603 37.0503 30.4603L36.2202 27.1519L35.39 23.8182L34.7993 21.6283C33.2447 15.9247 31.0932 13.1187 31.0932 13.1187C29.4021 10.668 27.0063 8.80916 24.2344 7.79737C21.0196 6.62504 17.6462 7.28546 17.6462 7.28546C12.3607 8.34087 9.58419 12.0253 8.3623 13.7981C8.92154 13.9465 9.45669 14.1764 9.95107 14.4806C10.6126 14.883 11.1844 15.4211 11.63 16.0606C12.4259 17.2108 12.6063 18.6422 12.7648 20.0105C13.0984 22.9759 13.6745 25.9079 14.4873 28.7761C16.2782 22.7406 18.4266 19.9283 18.4266 19.9283C18.6666 19.6252 18.9545 19.3646 19.2785 19.1573C19.4471 19.0521 19.6357 18.9842 19.8319 18.9582C20.1955 18.9227 20.5603 19.0129 20.8672 19.2142C20.9235 19.2518 20.9765 19.294 21.0258 19.3406C21.3066 19.5936 21.5478 19.8888 21.7409 20.2159C22.1882 21.0284 22.5758 21.8733 22.9006 22.7438C23.5722 24.665 24.1443 27.0128 24.1443 27.0128L25.8543 33.8636C27.098 38.5213 28.1519 40.7838 28.1519 40.7838C30.7481 46.8256 34.7185 48.5256 34.7185 48.5256C36.6514 49.5763 38.8011 50.1479 40.9927 50.194C43.0848 50.2519 45.1599 49.7978 47.0431 48.87C49.1079 47.838 50.9192 46.349 52.3442 44.5125C53.3049 43.3812 54.7195 40.6258 54.7195 40.6258C56.2794 37.4668 57.5041 34.1481 58.3728 30.7257C58.9278 28.5936 59.373 26.4335 59.7066 24.2542C59.8745 23.1735 60.0331 22.0865 60.1605 20.9964C60.3194 19.9641 60.2877 18.9107 60.0673 17.8902C60.0209 17.7067 59.964 17.5263 59.8962 17.3498C59.3966 16.0691 58.4701 15.0077 57.2784 14.351C56.3951 13.8738 55.4088 13.6273 54.4086 13.6337Z" fill="url(#paint28_radial_13250_6183)"/>
<path d="M54.4086 13.6337C53.9146 13.6326 53.4227 13.6953 52.9442 13.8202C54.0349 15.4219 54.9608 17.133 55.7082 18.9266C56.0478 19.698 56.2225 20.5337 56.2213 21.3787C56.2197 22.1614 56.0664 22.936 55.7701 23.6584C55.4738 24.3808 55.0407 25.0369 54.4951 25.5891C53.9494 26.1413 53.3021 26.5789 52.5898 26.8769C51.8778 27.1749 51.1151 27.3274 50.345 27.3257C49.304 27.3237 48.2824 27.0401 47.3851 26.5041L46.7819 28.7698C45.6875 32.489 44.9164 33.9268 44.9164 33.9268C44.4917 34.9351 43.9862 35.9063 43.4054 36.8307C43.0043 37.4343 42.4913 38.041 41.7886 38.2716C41.5443 38.3582 41.2831 38.3842 41.0269 38.3475C40.7496 38.3133 40.4819 38.2219 40.2403 38.0789C39.7783 37.7257 39.4108 37.2608 39.1708 36.7264C38.8735 36.1332 38.6068 35.5246 38.3717 34.9032C37.8525 33.6202 37.0503 30.4603 37.0503 30.4603L36.2202 27.1519L35.39 23.8182L34.7993 21.6283C33.2447 15.9247 31.0932 13.1187 31.0932 13.1187C29.4021 10.668 27.0063 8.80916 24.2344 7.79737C21.0196 6.62504 17.6462 7.28546 17.6462 7.28546C12.3607 8.34087 9.58419 12.0253 8.3623 13.7981C8.92154 13.9465 9.45669 14.1764 9.95107 14.4806C10.6126 14.883 11.1844 15.4211 11.63 16.0606C12.4259 17.2108 12.6063 18.6422 12.7648 20.0105C13.0984 22.9759 13.6745 25.9079 14.4873 28.7761C16.2782 22.7406 18.4266 19.9283 18.4266 19.9283C18.6666 19.6252 18.9545 19.3646 19.2785 19.1573C19.4471 19.0521 19.6357 18.9842 19.8319 18.9582C20.1955 18.9227 20.5603 19.0129 20.8672 19.2142C20.9235 19.2518 20.9765 19.294 21.0258 19.3406C21.3066 19.5936 21.5478 19.8888 21.7409 20.2159C22.1882 21.0284 22.5758 21.8733 22.9006 22.7438C23.5722 24.665 24.1443 27.0128 24.1443 27.0128L25.8543 33.8636C27.098 38.5213 28.1519 40.7838 28.1519 40.7838C30.7481 46.8256 34.7185 48.5256 34.7185 48.5256C36.6514 49.5763 38.8011 50.1479 40.9927 50.194C43.0848 50.2519 45.1599 49.7978 47.0431 48.87C49.1079 47.838 50.9192 46.349 52.3442 44.5125C53.3049 43.3812 54.7195 40.6258 54.7195 40.6258C56.2794 37.4668 57.5041 34.1481 58.3728 30.7257C58.9278 28.5936 59.373 26.4335 59.7066 24.2542C59.8745 23.1735 60.0331 22.0865 60.1605 20.9964C60.3194 19.9641 60.2877 18.9107 60.0673 17.8902C60.0209 17.7067 59.964 17.5263 59.8962 17.3498C59.3966 16.0691 58.4701 15.0077 57.2784 14.351C56.3951 13.8738 55.4088 13.6273 54.4086 13.6337Z" fill="url(#paint29_radial_13250_6183)"/>
<path d="M54.4086 13.6337C53.9146 13.6326 53.4227 13.6953 52.9442 13.8202C54.0349 15.4219 54.9608 17.133 55.7082 18.9266C56.0478 19.698 56.2225 20.5337 56.2213 21.3787C56.2197 22.1614 56.0664 22.936 55.7701 23.6584C55.4738 24.3808 55.0407 25.0369 54.4951 25.5891C53.9494 26.1413 53.3021 26.5789 52.5898 26.8769C51.8778 27.1749 51.1151 27.3274 50.345 27.3257C49.304 27.3237 48.2824 27.0401 47.3851 26.5041L46.7819 28.7698C45.6875 32.489 44.9164 33.9268 44.9164 33.9268C44.4917 34.9351 43.9862 35.9063 43.4054 36.8307C43.0043 37.4343 42.4913 38.041 41.7886 38.2716C41.5443 38.3582 41.2831 38.3842 41.0269 38.3475C40.7496 38.3133 40.4819 38.2219 40.2403 38.0789C39.7783 37.7257 39.4108 37.2608 39.1708 36.7264C38.8735 36.1332 38.6068 35.5246 38.3717 34.9032C37.8525 33.6202 37.0503 30.4603 37.0503 30.4603L36.2202 27.1519L35.39 23.8182L34.7993 21.6283C33.2447 15.9247 31.0932 13.1187 31.0932 13.1187C29.4021 10.668 27.0063 8.80916 24.2344 7.79737C21.0196 6.62504 17.6462 7.28546 17.6462 7.28546C12.3607 8.34087 9.58419 12.0253 8.3623 13.7981C8.92154 13.9465 9.45669 14.1764 9.95107 14.4806C10.6126 14.883 11.1844 15.4211 11.63 16.0606C12.4259 17.2108 12.6063 18.6422 12.7648 20.0105C13.0984 22.9759 13.6745 25.9079 14.4873 28.7761C16.2782 22.7406 18.4266 19.9283 18.4266 19.9283C18.6666 19.6252 18.9545 19.3646 19.2785 19.1573C19.4471 19.0521 19.6357 18.9842 19.8319 18.9582C20.1955 18.9227 20.5603 19.0129 20.8672 19.2142C20.9235 19.2518 20.9765 19.294 21.0258 19.3406C21.3066 19.5936 21.5478 19.8888 21.7409 20.2159C22.1882 21.0284 22.5758 21.8733 22.9006 22.7438C23.5722 24.665 24.1443 27.0128 24.1443 27.0128L25.8543 33.8636C27.098 38.5213 28.1519 40.7838 28.1519 40.7838C30.7481 46.8256 34.7185 48.5256 34.7185 48.5256C36.6514 49.5763 38.8011 50.1479 40.9927 50.194C43.0848 50.2519 45.1599 49.7978 47.0431 48.87C49.1079 47.838 50.9192 46.349 52.3442 44.5125C53.3049 43.3812 54.7195 40.6258 54.7195 40.6258C56.2794 37.4668 57.5041 34.1481 58.3728 30.7257C58.9278 28.5936 59.373 26.4335 59.7066 24.2542C59.8745 23.1735 60.0331 22.0865 60.1605 20.9964C60.3194 19.9641 60.2877 18.9107 60.0673 17.8902C60.0209 17.7067 59.964 17.5263 59.8962 17.3498C59.3966 16.0691 58.4701 15.0077 57.2784 14.351C56.3951 13.8738 55.4088 13.6273 54.4086 13.6337Z" fill="url(#paint30_radial_13250_6183)"/>
<path d="M54.4086 13.6337C53.9146 13.6326 53.4227 13.6953 52.9442 13.8202C54.0349 15.4219 54.9608 17.133 55.7082 18.9266C56.0478 19.698 56.2225 20.5337 56.2213 21.3787C56.2197 22.1614 56.0664 22.936 55.7701 23.6584C55.4738 24.3808 55.0407 25.0369 54.4951 25.5891C53.9494 26.1413 53.3021 26.5789 52.5898 26.8769C51.8778 27.1749 51.1151 27.3274 50.345 27.3257C49.304 27.3237 48.2824 27.0401 47.3851 26.5041L46.7819 28.7698C45.6875 32.489 44.9164 33.9268 44.9164 33.9268C44.4917 34.9351 43.9862 35.9063 43.4054 36.8307C43.0043 37.4343 42.4913 38.041 41.7886 38.2716C41.5443 38.3582 41.2831 38.3842 41.0269 38.3475C40.7496 38.3133 40.4819 38.2219 40.2403 38.0789C39.7783 37.7257 39.4108 37.2608 39.1708 36.7264C38.8735 36.1332 38.6068 35.5246 38.3717 34.9032C37.8525 33.6202 37.0503 30.4603 37.0503 30.4603L36.2202 27.1519L35.39 23.8182L34.7993 21.6283C33.2447 15.9247 31.0932 13.1187 31.0932 13.1187C29.4021 10.668 27.0063 8.80916 24.2344 7.79737C21.0196 6.62504 17.6462 7.28546 17.6462 7.28546C12.3607 8.34087 9.58419 12.0253 8.3623 13.7981C8.92154 13.9465 9.45669 14.1764 9.95107 14.4806C10.6126 14.883 11.1844 15.4211 11.63 16.0606C12.4259 17.2108 12.6063 18.6422 12.7648 20.0105C13.0984 22.9759 13.6745 25.9079 14.4873 28.7761C16.2782 22.7406 18.4266 19.9283 18.4266 19.9283C18.6666 19.6252 18.9545 19.3646 19.2785 19.1573C19.4471 19.0521 19.6357 18.9842 19.8319 18.9582C20.1955 18.9227 20.5603 19.0129 20.8672 19.2142C20.9235 19.2518 20.9765 19.294 21.0258 19.3406C21.3066 19.5936 21.5478 19.8888 21.7409 20.2159C22.1882 21.0284 22.5758 21.8733 22.9006 22.7438C23.5722 24.665 24.1443 27.0128 24.1443 27.0128L25.8543 33.8636C27.098 38.5213 28.1519 40.7838 28.1519 40.7838C30.7481 46.8256 34.7185 48.5256 34.7185 48.5256C36.6514 49.5763 38.8011 50.1479 40.9927 50.194C43.0848 50.2519 45.1599 49.7978 47.0431 48.87C49.1079 47.838 50.9192 46.349 52.3442 44.5125C53.3049 43.3812 54.7195 40.6258 54.7195 40.6258C56.2794 37.4668 57.5041 34.1481 58.3728 30.7257C58.9278 28.5936 59.373 26.4335 59.7066 24.2542C59.8745 23.1735 60.0331 22.0865 60.1605 20.9964C60.3194 19.9641 60.2877 18.9107 60.0673 17.8902C60.0209 17.7067 59.964 17.5263 59.8962 17.3498C59.3966 16.0691 58.4701 15.0077 57.2784 14.351C56.3951 13.8738 55.4088 13.6273 54.4086 13.6337Z" fill="url(#paint31_radial_13250_6183)"/>
<path d="M54.4086 13.6337C53.9146 13.6326 53.4227 13.6953 52.9442 13.8202C54.0349 15.4219 54.9608 17.133 55.7082 18.9266C56.0478 19.698 56.2225 20.5337 56.2213 21.3787C56.2197 22.1614 56.0664 22.936 55.7701 23.6584C55.4738 24.3808 55.0407 25.0369 54.4951 25.5891C53.9494 26.1413 53.3021 26.5789 52.5898 26.8769C51.8778 27.1749 51.1151 27.3274 50.345 27.3257C49.304 27.3237 48.2824 27.0401 47.3851 26.5041L46.7819 28.7698C45.6875 32.489 44.9164 33.9268 44.9164 33.9268C44.4917 34.9351 43.9862 35.9063 43.4054 36.8307C43.0043 37.4343 42.4913 38.041 41.7886 38.2716C41.5443 38.3582 41.2831 38.3842 41.0269 38.3475C40.7496 38.3133 40.4819 38.2219 40.2403 38.0789C39.7783 37.7257 39.4108 37.2608 39.1708 36.7264C38.8735 36.1332 38.6068 35.5246 38.3717 34.9032C37.8525 33.6202 37.0503 30.4603 37.0503 30.4603L36.2202 27.1519L35.39 23.8182L34.7993 21.6283C33.2447 15.9247 31.0932 13.1187 31.0932 13.1187C29.4021 10.668 27.0063 8.80916 24.2344 7.79737C21.0196 6.62504 17.6462 7.28546 17.6462 7.28546C12.3607 8.34087 9.58419 12.0253 8.3623 13.7981C8.92154 13.9465 9.45669 14.1764 9.95107 14.4806C10.6126 14.883 11.1844 15.4211 11.63 16.0606C12.4259 17.2108 12.6063 18.6422 12.7648 20.0105C13.0984 22.9759 13.6745 25.9079 14.4873 28.7761C16.2782 22.7406 18.4266 19.9283 18.4266 19.9283C18.6666 19.6252 18.9545 19.3646 19.2785 19.1573C19.4471 19.0521 19.6357 18.9842 19.8319 18.9582C20.1955 18.9227 20.5603 19.0129 20.8672 19.2142C20.9235 19.2518 20.9765 19.294 21.0258 19.3406C21.3066 19.5936 21.5478 19.8888 21.7409 20.2159C22.1882 21.0284 22.5758 21.8733 22.9006 22.7438C23.5722 24.665 24.1443 27.0128 24.1443 27.0128L25.8543 33.8636C27.098 38.5213 28.1519 40.7838 28.1519 40.7838C30.7481 46.8256 34.7185 48.5256 34.7185 48.5256C36.6514 49.5763 38.8011 50.1479 40.9927 50.194C43.0848 50.2519 45.1599 49.7978 47.0431 48.87C49.1079 47.838 50.9192 46.349 52.3442 44.5125C53.3049 43.3812 54.7195 40.6258 54.7195 40.6258C56.2794 37.4668 57.5041 34.1481 58.3728 30.7257C58.9278 28.5936 59.373 26.4335 59.7066 24.2542C59.8745 23.1735 60.0331 22.0865 60.1605 20.9964C60.3194 19.9641 60.2877 18.9107 60.0673 17.8902C60.0209 17.7067 59.964 17.5263 59.8962 17.3498C59.3966 16.0691 58.4701 15.0077 57.2784 14.351C56.3951 13.8738 55.4088 13.6273 54.4086 13.6337Z" fill="url(#paint32_radial_13250_6183)"/>
<path d="M54.4086 13.6337C53.9146 13.6326 53.4227 13.6953 52.9442 13.8202C54.0349 15.4219 54.9608 17.133 55.7082 18.9266C56.0478 19.698 56.2225 20.5337 56.2213 21.3787C56.2197 22.1614 56.0664 22.936 55.7701 23.6584C55.4738 24.3808 55.0407 25.0369 54.4951 25.5891C53.9494 26.1413 53.3021 26.5789 52.5898 26.8769C51.8778 27.1749 51.1151 27.3274 50.345 27.3257C49.304 27.3237 48.2824 27.0401 47.3851 26.5041L46.7819 28.7698C45.6875 32.489 44.9164 33.9268 44.9164 33.9268C44.4917 34.9351 43.9862 35.9063 43.4054 36.8307C43.0043 37.4343 42.4913 38.041 41.7886 38.2716C41.5443 38.3582 41.2831 38.3842 41.0269 38.3475C40.7496 38.3133 40.4819 38.2219 40.2403 38.0789C39.7783 37.7257 39.4108 37.2608 39.1708 36.7264C38.8735 36.1332 38.6068 35.5246 38.3717 34.9032C37.8525 33.6202 37.0503 30.4603 37.0503 30.4603L36.2202 27.1519L35.39 23.8182L34.7993 21.6283C33.2447 15.9247 31.0932 13.1187 31.0932 13.1187C29.4021 10.668 27.0063 8.80916 24.2344 7.79737C21.0196 6.62504 17.6462 7.28546 17.6462 7.28546C12.3607 8.34087 9.58419 12.0253 8.3623 13.7981C8.92154 13.9465 9.45669 14.1764 9.95107 14.4806C10.6126 14.883 11.1844 15.4211 11.63 16.0606C12.4259 17.2108 12.6063 18.6422 12.7648 20.0105C13.0984 22.9759 13.6745 25.9079 14.4873 28.7761C16.2782 22.7406 18.4266 19.9283 18.4266 19.9283C18.6666 19.6252 18.9545 19.3646 19.2785 19.1573C19.4471 19.0521 19.6357 18.9842 19.8319 18.9582C20.1955 18.9227 20.5603 19.0129 20.8672 19.2142C20.9235 19.2518 20.9765 19.294 21.0258 19.3406C21.3066 19.5936 21.5478 19.8888 21.7409 20.2159C22.1882 21.0284 22.5758 21.8733 22.9006 22.7438C23.5722 24.665 24.1443 27.0128 24.1443 27.0128L25.8543 33.8636C27.098 38.5213 28.1519 40.7838 28.1519 40.7838C30.7481 46.8256 34.7185 48.5256 34.7185 48.5256C36.6514 49.5763 38.8011 50.1479 40.9927 50.194C43.0848 50.2519 45.1599 49.7978 47.0431 48.87C49.1079 47.838 50.9192 46.349 52.3442 44.5125C53.3049 43.3812 54.7195 40.6258 54.7195 40.6258C56.2794 37.4668 57.5041 34.1481 58.3728 30.7257C58.9278 28.5936 59.373 26.4335 59.7066 24.2542C59.8745 23.1735 60.0331 22.0865 60.1605 20.9964C60.3194 19.9641 60.2877 18.9107 60.0673 17.8902C60.0209 17.7067 59.964 17.5263 59.8962 17.3498C59.3966 16.0691 58.4701 15.0077 57.2784 14.351C56.3951 13.8738 55.4088 13.6273 54.4086 13.6337Z" fill="url(#paint33_radial_13250_6183)"/>
<path d="M54.4086 13.6337C53.9146 13.6326 53.4227 13.6953 52.9442 13.8202C54.0349 15.4219 54.9608 17.133 55.7082 18.9266C56.0478 19.698 56.2225 20.5337 56.2213 21.3787C56.2197 22.1614 56.0664 22.936 55.7701 23.6584C55.4738 24.3808 55.0407 25.0369 54.4951 25.5891C53.9494 26.1413 53.3021 26.5789 52.5898 26.8769C51.8778 27.1749 51.1151 27.3274 50.345 27.3257C49.304 27.3237 48.2824 27.0401 47.3851 26.5041L46.7819 28.7698C45.6875 32.489 44.9164 33.9268 44.9164 33.9268C44.4917 34.9351 43.9862 35.9063 43.4054 36.8307C43.0043 37.4343 42.4913 38.041 41.7886 38.2716C41.5443 38.3582 41.2831 38.3842 41.0269 38.3475C40.7496 38.3133 40.4819 38.2219 40.2403 38.0789C39.7783 37.7257 39.4108 37.2608 39.1708 36.7264C38.8735 36.1332 38.6068 35.5246 38.3717 34.9032C37.8525 33.6202 37.0503 30.4603 37.0503 30.4603L36.2202 27.1519L35.39 23.8182L34.7993 21.6283C33.2447 15.9247 31.0932 13.1187 31.0932 13.1187C29.4021 10.668 27.0063 8.80916 24.2344 7.79737C21.0196 6.62504 17.6462 7.28546 17.6462 7.28546C12.3607 8.34087 9.58419 12.0253 8.3623 13.7981C8.92154 13.9465 9.45669 14.1764 9.95107 14.4806C10.6126 14.883 11.1844 15.4211 11.63 16.0606C12.4259 17.2108 12.6063 18.6422 12.7648 20.0105C13.0984 22.9759 13.6745 25.9079 14.4873 28.7761C16.2782 22.7406 18.4266 19.9283 18.4266 19.9283C18.6666 19.6252 18.9545 19.3646 19.2785 19.1573C19.4471 19.0521 19.6357 18.9842 19.8319 18.9582C20.1955 18.9227 20.5603 19.0129 20.8672 19.2142C20.9235 19.2518 20.9765 19.294 21.0258 19.3406C21.3066 19.5936 21.5478 19.8888 21.7409 20.2159C22.1882 21.0284 22.5758 21.8733 22.9006 22.7438C23.5722 24.665 24.1443 27.0128 24.1443 27.0128L25.8543 33.8636C27.098 38.5213 28.1519 40.7838 28.1519 40.7838C30.7481 46.8256 34.7185 48.5256 34.7185 48.5256C36.6514 49.5763 38.8011 50.1479 40.9927 50.194C43.0848 50.2519 45.1599 49.7978 47.0431 48.87C49.1079 47.838 50.9192 46.349 52.3442 44.5125C53.3049 43.3812 54.7195 40.6258 54.7195 40.6258C56.2794 37.4668 57.5041 34.1481 58.3728 30.7257C58.9278 28.5936 59.373 26.4335 59.7066 24.2542C59.8745 23.1735 60.0331 22.0865 60.1605 20.9964C60.3194 19.9641 60.2877 18.9107 60.0673 17.8902C60.0209 17.7067 59.964 17.5263 59.8962 17.3498C59.3966 16.0691 58.4701 15.0077 57.2784 14.351C56.3951 13.8738 55.4088 13.6273 54.4086 13.6337Z" fill="url(#paint34_linear_13250_6183)"/>
<path d="M200.374 57.1284H197.575V68.2522H200.374V57.1284Z" fill="white"/>
<path d="M223.061 60.3152C222.335 59.9227 221.522 59.7189 220.697 59.7226C218.875 59.7226 217.612 60.9854 217.612 62.6889C217.612 64.3427 218.822 65.6583 220.697 65.6583C221.522 65.6602 222.334 65.4576 223.061 65.0688V68.0538C222.229 68.3088 221.365 68.4416 220.495 68.4478C217.332 68.4478 214.558 66.2758 214.558 62.6889C214.558 59.3689 217.071 56.9331 220.495 56.9331C221.366 56.9353 222.231 57.069 223.061 57.3303V60.3152Z" fill="white"/>
<path d="M193.695 60.3152C192.969 59.9215 192.156 59.7176 191.331 59.7226C189.508 59.7226 188.249 60.9854 188.249 62.6889C188.249 64.3427 189.455 65.6583 191.331 65.6583C192.155 65.6602 192.968 65.4576 193.695 65.0688V68.0538C192.863 68.3091 191.999 68.4419 191.129 68.4478C187.966 68.4478 185.194 66.2758 185.194 62.6889C185.194 59.3689 187.704 56.9331 191.129 56.9331C191.999 56.9353 192.864 57.069 193.695 57.3303V60.3152Z" fill="white"/>
<path d="M231.91 59.7629C231.525 59.7595 231.143 59.833 230.788 59.9792C230.432 60.1253 230.108 60.3413 229.837 60.614C229.567 60.8868 229.353 61.2107 229.21 61.5672C229.066 61.9234 228.996 62.3051 229.002 62.6889C228.995 63.073 229.065 63.455 229.209 63.8115C229.352 64.1684 229.565 64.4929 229.836 64.766C230.107 65.039 230.431 65.255 230.787 65.4014C231.143 65.5479 231.525 65.6214 231.91 65.618C232.296 65.6214 232.678 65.5479 233.034 65.4014C233.39 65.255 233.714 65.039 233.985 64.766C234.256 64.4932 234.47 64.1687 234.614 63.8118C234.758 63.455 234.828 63.0734 234.821 62.6889C234.828 62.3048 234.757 61.9234 234.613 61.5669C234.469 61.2104 234.255 60.8865 233.984 60.6137C233.713 60.341 233.389 60.1253 233.033 59.9792C232.677 59.833 232.295 59.7595 231.91 59.7629ZM237.801 62.6889C237.801 65.8724 235.341 68.4478 231.91 68.4478C228.48 68.4478 226.022 65.8724 226.022 62.6889C226.022 59.5054 228.483 56.9331 231.91 56.9331C235.338 56.9331 237.801 59.5116 237.801 62.6889Z" fill="white"/>
<path d="M211.044 59.6573C210.324 59.4612 209.584 59.3489 208.838 59.3222C207.713 59.3222 207.1 59.6976 207.1 60.2313C207.1 60.9109 207.927 61.1622 208.388 61.2925L209.165 61.5376C210.991 62.1179 211.824 63.3652 211.824 64.7212C211.824 67.5137 209.361 68.4446 207.206 68.4446C206.186 68.4325 205.17 68.3286 204.17 68.1343V65.5745C205.034 65.8242 205.927 65.9629 206.826 65.9871C208.229 65.9871 208.87 65.5807 208.87 64.9477C208.87 64.3861 208.313 64.0603 207.625 63.84L207.025 63.6476C205.47 63.1542 204.151 62.2358 204.151 60.3927C204.151 58.3138 205.706 56.9175 208.307 56.9175C209.231 56.9302 210.15 57.0487 211.047 57.2712L211.044 59.6573Z" fill="white"/>
<path d="M165.544 68.2151H164.321V57.1162H165.805V61.3082C166.102 60.8744 166.505 60.5238 166.976 60.2892C167.446 60.0546 167.97 59.9438 168.495 59.9677C169.01 59.9432 169.523 60.0434 169.992 60.2597C170.459 60.4757 170.868 60.8015 171.182 61.2089C171.749 61.9495 172.032 62.931 172.032 64.1535C172.032 65.6016 171.646 66.7112 170.875 67.4829C170.548 67.8056 170.159 68.0584 169.731 68.2254C169.303 68.3923 168.846 68.4702 168.386 68.4541C167.876 68.4801 167.368 68.3749 166.91 68.1481C166.453 67.9216 166.061 67.5812 165.774 67.1602L165.544 68.2151ZM170.489 64.1132C170.489 63.1057 170.236 62.3507 169.73 61.8481C169.525 61.6408 169.279 61.4785 169.007 61.3718C168.736 61.2647 168.445 61.2157 168.153 61.2275C167.812 61.2151 167.472 61.2821 167.161 61.4239C166.85 61.5657 166.576 61.7776 166.362 62.0436C165.921 62.6396 165.701 63.37 165.74 64.1101C165.74 65.1371 165.995 65.9252 166.498 66.4682C166.707 66.7019 166.964 66.8868 167.252 67.0097C167.54 67.1325 167.852 67.1903 168.166 67.1788C168.508 67.198 168.849 67.1301 169.158 66.9814C169.466 66.8325 169.732 66.6079 169.929 66.3286C170.343 65.6664 170.539 64.8917 170.489 64.1132Z" fill="white"/>
<path d="M179.974 60.1971L177.175 68.3204C176.805 69.4002 176.447 70.1356 176.108 70.5265C175.917 70.7509 175.679 70.9296 175.41 71.0494C175.141 71.1691 174.848 71.2269 174.553 71.2185C174.23 71.2101 173.908 71.1645 173.595 71.082V69.8718C173.848 69.9389 174.108 69.9752 174.369 69.9804C174.51 69.9873 174.651 69.9609 174.78 69.9032C174.908 69.8455 175.021 69.7583 175.11 69.6484C175.395 69.2001 175.619 68.716 175.775 68.2087H175.296L172.345 60.1909H173.953L176.223 67.0172L178.494 60.1909L179.974 60.1971Z" fill="white"/>
<path d="M113.895 17.811H120.17L111.047 45.3235H103.848L97.0291 24.5621L90.2101 45.3235H83.1236L74 17.811H80.4219L86.8956 38.7188L93.6886 17.811H100.508L107.413 38.8308L113.895 17.811Z" fill="white"/>
<path d="M147.084 33.7763H126.73C126.918 35.1949 127.452 36.5461 128.284 37.7115C129.021 38.7312 130.02 39.5343 131.176 40.0365C132.352 40.5436 133.623 40.7988 134.904 40.7857C136.325 40.7803 137.734 40.5238 139.065 40.0279C140.445 39.5245 141.733 38.8003 142.88 37.8838L145.875 42.1893C144.348 43.5179 142.569 44.528 140.644 45.1601C138.667 45.7792 136.605 46.0843 134.533 46.0643C131.981 46.1145 129.461 45.497 127.222 44.2732C125.105 43.0895 123.371 41.3268 122.225 39.1926C120.991 36.8534 120.374 34.2401 120.429 31.5976C120.376 28.9801 120.969 26.3896 122.156 24.0543C123.258 21.9302 124.94 20.1601 127.006 18.9479C129.175 17.7028 131.643 17.0716 134.145 17.1224C136.506 17.0572 138.835 17.6724 140.854 18.8942C142.873 20.116 144.497 21.8926 145.53 24.0113C146.67 26.3542 147.238 28.9333 147.187 31.5374C147.196 32.1143 147.161 32.8635 147.084 33.7763ZM141.041 29.2124C140.856 27.3268 140.045 25.557 138.737 24.1835C138.11 23.5972 137.371 23.1426 136.564 22.8467C135.758 22.5509 134.9 22.4198 134.041 22.4613C133.138 22.42 132.235 22.5603 131.387 22.8739C130.539 23.1875 129.762 23.668 129.104 24.2868C127.8 25.6402 126.968 27.3763 126.73 29.2382L141.041 29.2124Z" fill="white"/>
<path d="M172.831 18.9651C174.931 20.2041 176.653 21.9903 177.812 24.1318C179.051 26.4142 179.681 28.9763 179.642 31.5718C179.681 34.1645 179.051 36.7238 177.812 39.0032C176.653 41.1545 174.924 42.9477 172.815 44.1881C170.706 45.4284 168.297 46.0684 165.848 46.0384C164.13 46.0744 162.427 45.718 160.868 44.9965C159.439 44.3092 158.19 43.3012 157.217 42.0515V45.3237H151.175V6.1001H157.217V21.0834C158.194 19.8422 159.443 18.8406 160.868 18.1557C162.425 17.4271 164.129 17.0675 165.848 17.1051C168.303 17.0751 170.719 17.7186 172.831 18.9651ZM169.534 39.2098C170.787 38.4412 171.796 37.3333 172.443 36.0151C173.107 34.626 173.452 33.1064 173.452 31.5675C173.452 30.0285 173.107 28.5089 172.443 27.1198C171.793 25.8035 170.785 24.6963 169.534 23.9251C168.204 23.1661 166.699 22.7668 165.167 22.7668C163.634 22.7668 162.129 23.1661 160.799 23.9251C159.545 24.685 158.528 25.7796 157.864 27.0854C157.146 28.48 156.785 30.03 156.811 31.5976C156.784 33.1625 157.146 34.7099 157.864 36.1012C158.528 37.407 159.545 38.5016 160.799 39.2615C162.129 40.0205 163.634 40.4198 165.167 40.4198C166.699 40.4198 168.204 40.0205 169.534 39.2615V39.2098Z" fill="white"/>
<path d="M209.455 33.7763H189.111C189.299 35.195 189.832 36.5461 190.664 37.7115C191.402 38.7312 192.401 39.5343 193.556 40.0365C194.733 40.5436 196.003 40.7988 197.285 40.7857C198.706 40.7791 200.114 40.5225 201.445 40.0279C202.825 39.5245 204.114 38.8003 205.26 37.8838L208.247 42.1893C206.724 43.5196 204.948 44.53 203.025 45.1601C201.045 45.7787 198.98 46.0838 196.905 46.0643C194.353 46.1117 191.833 45.4943 189.594 44.2732C187.481 43.0867 185.751 41.3245 184.605 39.1926C183.369 36.8541 182.748 34.2408 182.801 31.5976C182.749 28.9801 183.341 26.3897 184.527 24.0543C185.63 21.9302 187.311 20.1601 189.378 18.9479C191.559 17.6846 194.047 17.0441 196.568 17.0965C198.929 17.0346 201.257 17.6511 203.275 18.8725C205.294 20.094 206.918 21.8688 207.953 23.9854C209.094 26.3284 209.662 28.9075 209.611 31.5115C209.576 32.1143 209.516 32.8635 209.455 33.7763ZM203.413 29.2124C203.214 27.3389 202.401 25.5834 201.1 24.2179C200.477 23.6284 199.742 23.1692 198.939 22.8675C198.135 22.5658 197.28 22.4277 196.422 22.4613C195.518 22.419 194.615 22.5589 193.767 22.8725C192.918 23.1862 192.142 23.6672 191.484 24.2868C190.178 25.6381 189.345 27.3752 189.111 29.2382L203.413 29.2124Z" fill="white"/>
<path d="M238.156 45.3235H230.758L223.767 35.7566L216.862 45.3235H209.81L220.167 31.2788L209.974 17.811H217.379L224.112 26.9991L230.845 17.811H238L227.763 31.2271L238.156 45.3235Z" fill="white"/>
<defs>
<linearGradient id="paint0_linear_13250_6183" x1="3.6552" y1="36.2111" x2="49.9523" y2="17.7981" gradientUnits="userSpaceOnUse">
<stop offset="0.13" stop-color="#1CBBF3"/>
<stop offset="0.34" stop-color="#1F99A5"/>
<stop offset="0.45" stop-color="#209CA6"/>
<stop offset="0.51" stop-color="#24A4AA"/>
<stop offset="0.57" stop-color="#2BB3B0"/>
<stop offset="0.6" stop-color="#30BDB4"/>
<stop offset="0.79" stop-color="#38BA90"/>
<stop offset="1" stop-color="#60F05A"/>
</linearGradient>
<radialGradient id="paint1_radial_13250_6183" cx="0" cy="0" r="1" gradientUnits="userSpaceOnUse" gradientTransform="translate(34.3367 25.0885) rotate(74.5599) scale(22.362 16.761)">
<stop stop-color="#227B60"/>
<stop offset="0.14" stop-color="#227B60" stop-opacity="0.81"/>
<stop offset="0.58" stop-color="#227B60" stop-opacity="0.23"/>
<stop offset="0.78" stop-color="#227B60" stop-opacity="0"/>
</radialGradient>
<radialGradient id="paint2_radial_13250_6183" cx="0" cy="0" r="1" gradientUnits="userSpaceOnUse" gradientTransform="translate(37.5316 23.5328) rotate(91.1274) scale(15.139 11.3193)">
<stop stop-color="#227B60"/>
<stop offset="0.25" stop-color="#227B60" stop-opacity="0.7"/>
<stop offset="0.71" stop-color="#227B60" stop-opacity="0.2"/>
<stop offset="0.92" stop-color="#227B60" stop-opacity="0"/>
</radialGradient>
<radialGradient id="paint3_radial_13250_6183" cx="0" cy="0" r="1" gradientUnits="userSpaceOnUse" gradientTransform="translate(36.9571 24.0881) rotate(88.6225) scale(14.1121 9.85872)">
<stop stop-color="#227B60"/>
<stop offset="0.07" stop-color="#227B60" stop-opacity="0.9"/>
<stop offset="0.34" stop-color="#227B60" stop-opacity="0.51"/>
<stop offset="0.59" stop-color="#227B60" stop-opacity="0.23"/>
<stop offset="0.79" stop-color="#227B60" stop-opacity="0.06"/>
<stop offset="0.92" stop-color="#227B60" stop-opacity="0"/>
</radialGradient>
<radialGradient id="paint4_radial_13250_6183" cx="0" cy="0" r="1" gradientUnits="userSpaceOnUse" gradientTransform="translate(37.1921 23.4449) rotate(88.6225) scale(11.3946 7.96027)">
<stop stop-color="#227B60"/>
<stop offset="0.36" stop-color="#227B60" stop-opacity="0.63"/>
<stop offset="0.92" stop-color="#227B60" stop-opacity="0"/>
</radialGradient>
<radialGradient id="paint5_radial_13250_6183" cx="0" cy="0" r="1" gradientUnits="userSpaceOnUse" gradientTransform="translate(37.6812 24.0855) rotate(88.6225) scale(9.08784 5.72285)">
<stop stop-color="#20735A"/>
<stop offset="0.15" stop-color="#20745A" stop-opacity="0.93"/>
<stop offset="0.38" stop-color="#21755C" stop-opacity="0.74"/>
<stop offset="0.67" stop-color="#21785D" stop-opacity="0.43"/>
<stop offset="1" stop-color="#227B60" stop-opacity="0"/>
</radialGradient>
<radialGradient id="paint6_radial_13250_6183" cx="0" cy="0" r="1" gradientUnits="userSpaceOnUse" gradientTransform="translate(38.8791 25.535) rotate(24.1446) scale(14.4276 10.9388)">
<stop stop-color="#227A61"/>
<stop offset="0.36" stop-color="#227A61" stop-opacity="0.56"/>
<stop offset="0.72" stop-color="#227A61" stop-opacity="0.16"/>
<stop offset="0.9" stop-color="#227A61" stop-opacity="0"/>
</radialGradient>
<radialGradient id="paint7_radial_13250_6183" cx="0" cy="0" r="1" gradientUnits="userSpaceOnUse" gradientTransform="translate(35.0655 2.68525) rotate(35.7112) scale(19.2946 17.7355)">
<stop stop-color="#3CD9C3"/>
<stop offset="0.07" stop-color="#3BD7C1" stop-opacity="0.9"/>
<stop offset="0.41" stop-color="#38CEB9" stop-opacity="0.42"/>
<stop offset="0.65" stop-color="#36C8B4" stop-opacity="0.12"/>
<stop offset="0.76" stop-color="#35C6B2" stop-opacity="0"/>
</radialGradient>
<radialGradient id="paint8_radial_13250_6183" cx="0" cy="0" r="1" gradientUnits="userSpaceOnUse" gradientTransform="translate(16669.6 -8848.2) rotate(35.7112) scale(3426.93 2418.25)">
<stop stop-color="#3CD9C3"/>
<stop offset="0.07" stop-color="#3BD7C1" stop-opacity="0.9"/>
<stop offset="0.41" stop-color="#38CEB9" stop-opacity="0.42"/>
<stop offset="0.65" stop-color="#36C8B4" stop-opacity="0.12"/>
<stop offset="0.76" stop-color="#35C6B2" stop-opacity="0"/>
</radialGradient>
<radialGradient id="paint9_radial_13250_6183" cx="0" cy="0" r="1" gradientUnits="userSpaceOnUse" gradientTransform="translate(42.7087 28.9017) rotate(100.8) scale(17.1909 20.926)">
<stop stop-color="#237F66" stop-opacity="0.8"/>
<stop offset="0.06" stop-color="#2C8C70" stop-opacity="0.65"/>
<stop offset="0.21" stop-color="#3DA785" stop-opacity="0.37"/>
<stop offset="0.35" stop-color="#4ABA93" stop-opacity="0.17"/>
<stop offset="0.47" stop-color="#51C59C" stop-opacity="0.04"/>
<stop offset="0.56" stop-color="#54C99F" stop-opacity="0"/>
</radialGradient>
<radialGradient id="paint10_radial_13250_6183" cx="0" cy="0" r="1" gradientUnits="userSpaceOnUse" gradientTransform="translate(32.2262 30.1256) rotate(-51.2739) scale(22.333 24.0379)">
<stop stop-color="#167C8A"/>
<stop offset="0.04" stop-color="#167C8A" stop-opacity="0.93"/>
<stop offset="0.33" stop-color="#177F8D" stop-opacity="0.43"/>
<stop offset="0.54" stop-color="#17818F" stop-opacity="0.12"/>
<stop offset="0.65" stop-color="#178290" stop-opacity="0"/>
</radialGradient>
<radialGradient id="paint11_radial_13250_6183" cx="0" cy="0" r="1" gradientUnits="userSpaceOnUse" gradientTransform="translate(30.8994 32.3961) rotate(-32.0762) scale(21.6719 17.244)">
<stop offset="0.05" stop-color="#177D87"/>
<stop offset="0.11" stop-color="#177E89" stop-opacity="0.8"/>
<stop offset="0.21" stop-color="#177F8B" stop-opacity="0.52"/>
<stop offset="0.32" stop-color="#17818D" stop-opacity="0.29"/>
<stop offset="0.42" stop-color="#17818F" stop-opacity="0.13"/>
<stop offset="0.51" stop-color="#178290" stop-opacity="0.03"/>
<stop offset="0.6" stop-color="#178290" stop-opacity="0"/>
</radialGradient>
<radialGradient id="paint12_radial_13250_6183" cx="0" cy="0" r="1" gradientUnits="userSpaceOnUse" gradientTransform="translate(25.5794 32.7742) rotate(-130.081) scale(12.9755 10.1902)">
<stop offset="0.26" stop-color="#177F8A"/>
<stop offset="0.27" stop-color="#177F8A" stop-opacity="0.98"/>
<stop offset="0.38" stop-color="#17808C" stop-opacity="0.68"/>
<stop offset="0.5" stop-color="#17818D" stop-opacity="0.43"/>
<stop offset="0.62" stop-color="#17818F" stop-opacity="0.24"/>
<stop offset="0.74" stop-color="#17828F" stop-opacity="0.11"/>
<stop offset="0.86" stop-color="#178290" stop-opacity="0.03"/>
<stop offset="1" stop-color="#178290" stop-opacity="0"/>
</radialGradient>
<radialGradient id="paint13_radial_13250_6183" cx="0" cy="0" r="1" gradientUnits="userSpaceOnUse" gradientTransform="translate(23.2493 35.9855) rotate(-172.999) scale(12.0601 12.2513)">
<stop stop-color="#13656E"/>
<stop offset="0.11" stop-color="#13646E" stop-opacity="0.73"/>
<stop offset="0.27" stop-color="#12646E" stop-opacity="0.41"/>
<stop offset="0.42" stop-color="#12636E" stop-opacity="0.18"/>
<stop offset="0.55" stop-color="#12636E" stop-opacity="0.05"/>
<stop offset="0.66" stop-color="#12636E" stop-opacity="0"/>
</radialGradient>
<radialGradient id="paint14_radial_13250_6183" cx="0" cy="0" r="1" gradientUnits="userSpaceOnUse" gradientTransform="translate(22.9329 37.8104) rotate(-118.925) scale(8.53688 7.11009)">
<stop offset="0.13" stop-color="#146A73"/>
<stop offset="0.24" stop-color="#156F79" stop-opacity="0.79"/>
<stop offset="0.45" stop-color="#167783" stop-opacity="0.45"/>
<stop offset="0.65" stop-color="#167D8A" stop-opacity="0.2"/>
<stop offset="0.82" stop-color="#17818E" stop-opacity="0.05"/>
<stop offset="0.95" stop-color="#178290" stop-opacity="0"/>
</radialGradient>
<radialGradient id="paint15_radial_13250_6183" cx="0" cy="0" r="1" gradientUnits="userSpaceOnUse" gradientTransform="translate(22.2759 34.2386) rotate(-56.4216) scale(8.02122 6.31545)">
<stop stop-color="#198E9C"/>
<stop offset="0.1" stop-color="#198E9C" stop-opacity="0.87"/>
<stop offset="0.41" stop-color="#198E9C" stop-opacity="0.5"/>
<stop offset="0.67" stop-color="#198E9C" stop-opacity="0.23"/>
<stop offset="0.88" stop-color="#198E9C" stop-opacity="0.06"/>
<stop offset="1" stop-color="#198E9C" stop-opacity="0"/>
</radialGradient>
<linearGradient id="paint16_linear_13250_6183" x1="6.62444" y1="6.11914" x2="27.2618" y2="24.9127" gradientUnits="userSpaceOnUse">
<stop offset="0.13" stop-color="#2BF9FF"/>
<stop offset="0.27" stop-color="#29F9FF" stop-opacity="0.64"/>
<stop offset="0.4" stop-color="#27FAFF" stop-opacity="0.3"/>
<stop offset="0.49" stop-color="#26FAFF" stop-opacity="0.08"/>
<stop offset="0.54" stop-color="#26FAFF" stop-opacity="0"/>
</linearGradient>
<linearGradient id="paint17_linear_13250_6183" x1="-4.8918" y1="37.3328" x2="18.9184" y2="30.6909" gradientUnits="userSpaceOnUse">
<stop stop-color="#26FAFF"/>
<stop offset="0.06" stop-color="#26FAFF" stop-opacity="0.88"/>
<stop offset="0.24" stop-color="#26FAFF" stop-opacity="0.51"/>
<stop offset="0.39" stop-color="#26FAFF" stop-opacity="0.23"/>
<stop offset="0.5" stop-color="#26FAFF" stop-opacity="0.06"/>
<stop offset="0.55" stop-color="#26FAFF" stop-opacity="0"/>
</linearGradient>
<linearGradient id="paint18_linear_13250_6183" x1="1.40108" y1="36.4923" x2="28.2704" y2="27.0698" gradientUnits="userSpaceOnUse">
<stop stop-color="#21DEFF"/>
<stop offset="0.04" stop-color="#21DEFF" stop-opacity="0.88"/>
<stop offset="0.17" stop-color="#21DEFF" stop-opacity="0.51"/>
<stop offset="0.27" stop-color="#21DEFF" stop-opacity="0.23"/>
<stop offset="0.34" stop-color="#21DEFF" stop-opacity="0.06"/>
<stop offset="0.38" stop-color="#21DEFF" stop-opacity="0"/>
</linearGradient>
<linearGradient id="paint19_linear_13250_6183" x1="26.84" y1="22.4559" x2="42.1688" y2="47.0557" gradientUnits="userSpaceOnUse">
<stop offset="0.62" stop-color="#21DEFF" stop-opacity="0"/>
<stop offset="0.66" stop-color="#21DEFF" stop-opacity="0.06"/>
<stop offset="0.73" stop-color="#21DEFF" stop-opacity="0.23"/>
<stop offset="0.83" stop-color="#21DEFF" stop-opacity="0.51"/>
<stop offset="0.96" stop-color="#21DEFF" stop-opacity="0.88"/>
<stop offset="1" stop-color="#21DEFF"/>
</linearGradient>
<linearGradient id="paint20_linear_13250_6183" x1="43.5051" y1="31.7305" x2="41.074" y2="20.0701" gradientUnits="userSpaceOnUse">
<stop stop-color="#44B044"/>
<stop offset="0.11" stop-color="#44B044" stop-opacity="0.8"/>
<stop offset="0.27" stop-color="#44B044" stop-opacity="0.52"/>
<stop offset="0.43" stop-color="#44B044" stop-opacity="0.29"/>
<stop offset="0.58" stop-color="#44B044" stop-opacity="0.13"/>
<stop offset="0.7" stop-color="#44B044" stop-opacity="0.03"/>
<stop offset="0.8" stop-color="#44B044" stop-opacity="0"/>
</linearGradient>
<linearGradient id="paint21_linear_13250_6183" x1="10.6444" y1="19.6281" x2="60.37" y2="35.8254" gradientUnits="userSpaceOnUse">
<stop stop-color="#3066FB"/>
<stop offset="0.38" stop-color="#2F64F7"/>
<stop offset="0.74" stop-color="#2857D9"/>
<stop offset="1" stop-color="#3C7EFF"/>
</linearGradient>
<radialGradient id="paint22_radial_13250_6183" cx="0" cy="0" r="1" gradientUnits="userSpaceOnUse" gradientTransform="translate(45.6356 27.2401) rotate(98.5524) scale(26.9317 17.502)">
<stop stop-color="#1A3D9C"/>
<stop offset="0.4" stop-color="#1A3D9C" stop-opacity="0.42"/>
<stop offset="0.7" stop-color="#1A3D9C" stop-opacity="0"/>
</radialGradient>
<radialGradient id="paint23_radial_13250_6183" cx="0" cy="0" r="1" gradientUnits="userSpaceOnUse" gradientTransform="translate(7799.63 13117) rotate(98.5524) scale(3312.79 1759.13)">
<stop stop-color="#1A3D9C"/>
<stop offset="0.4" stop-color="#1A3D9C" stop-opacity="0.42"/>
<stop offset="0.7" stop-color="#1A3D9C" stop-opacity="0"/>
</radialGradient>
<radialGradient id="paint24_radial_13250_6183" cx="0" cy="0" r="1" gradientUnits="userSpaceOnUse" gradientTransform="translate(5892.37 12544.4) rotate(98.4792) scale(3945.36 1605.18)">
<stop stop-color="#1A3D9C"/>
<stop offset="0.4" stop-color="#1A3D9C" stop-opacity="0.42"/>
<stop offset="0.7" stop-color="#1A3D9C" stop-opacity="0"/>
</radialGradient>
<radialGradient id="paint25_radial_13250_6183" cx="0" cy="0" r="1" gradientUnits="userSpaceOnUse" gradientTransform="translate(41.4177 25.4256) rotate(83.1988) scale(23.5436 16.1707)">
<stop stop-color="#1A3D9C"/>
<stop offset="0.16" stop-color="#1A3D9C" stop-opacity="0.69"/>
<stop offset="0.33" stop-color="#1A3D9C" stop-opacity="0.4"/>
<stop offset="0.49" stop-color="#1A3D9C" stop-opacity="0.18"/>
<stop offset="0.61" stop-color="#1A3D9C" stop-opacity="0.05"/>
<stop offset="0.7" stop-color="#1A3D9C" stop-opacity="0"/>
</radialGradient>
<radialGradient id="paint26_radial_13250_6183" cx="0" cy="0" r="1" gradientUnits="userSpaceOnUse" gradientTransform="translate(46.5229 29.8354) rotate(74.8755) scale(22.606 15.159)">
<stop stop-color="#18388F"/>
<stop offset="0.37" stop-color="#193B96" stop-opacity="0.45"/>
<stop offset="0.7" stop-color="#1A3D9C" stop-opacity="0"/>
</radialGradient>
<radialGradient id="paint27_radial_13250_6183" cx="0" cy="0" r="1" gradientUnits="userSpaceOnUse" gradientTransform="translate(44.3049 35.8674) rotate(74.8755) scale(10.5108 9.84677)">
<stop stop-color="#18388F"/>
<stop offset="0.09" stop-color="#183992" stop-opacity="0.78"/>
<stop offset="0.22" stop-color="#193B96" stop-opacity="0.5"/>
<stop offset="0.35" stop-color="#193C98" stop-opacity="0.28"/>
<stop offset="0.47" stop-color="#1A3C9A" stop-opacity="0.13"/>
<stop offset="0.59" stop-color="#1A3D9C" stop-opacity="0.03"/>
<stop offset="0.7" stop-color="#1A3D9C" stop-opacity="0"/>
</radialGradient>
<radialGradient id="paint28_radial_13250_6183" cx="0" cy="0" r="1" gradientUnits="userSpaceOnUse" gradientTransform="translate(44.5533 37.6624) rotate(74.8755) scale(10.5108 9.84677)">
<stop stop-color="#1A3D9C" stop-opacity="0.8"/>
<stop offset="0.01" stop-color="#1A3D9C" stop-opacity="0.78"/>
<stop offset="0.24" stop-color="#1A3D9C" stop-opacity="0.45"/>
<stop offset="0.44" stop-color="#1A3D9C" stop-opacity="0.2"/>
<stop offset="0.6" stop-color="#1A3D9C" stop-opacity="0.05"/>
<stop offset="0.7" stop-color="#1A3D9C" stop-opacity="0"/>
</radialGradient>
<radialGradient id="paint29_radial_13250_6183" cx="0" cy="0" r="1" gradientUnits="userSpaceOnUse" gradientTransform="translate(17.7611 31.4642) rotate(67.359) scale(25.0509 16.4363)">
<stop stop-color="#1A3D9C"/>
<stop offset="0.4" stop-color="#1A3D9C" stop-opacity="0.56"/>
<stop offset="0.48" stop-color="#1A3D9C" stop-opacity="0.43"/>
<stop offset="0.69" stop-color="#1A3D9C" stop-opacity="0.12"/>
<stop offset="0.79" stop-color="#1A3D9C" stop-opacity="0"/>
</radialGradient>
<radialGradient id="paint30_radial_13250_6183" cx="0" cy="0" r="1" gradientUnits="userSpaceOnUse" gradientTransform="translate(16.1798 25.5798) rotate(76.3177) scale(18.6092 12.1105)">
<stop stop-color="#1A3D9C"/>
<stop offset="0.06" stop-color="#1A3D9C" stop-opacity="0.88"/>
<stop offset="0.21" stop-color="#1A3D9C" stop-opacity="0.61"/>
<stop offset="0.36" stop-color="#1A3D9C" stop-opacity="0.39"/>
<stop offset="0.51" stop-color="#1A3D9C" stop-opacity="0.22"/>
<stop offset="0.67" stop-color="#1A3D9C" stop-opacity="0.1"/>
<stop offset="0.83" stop-color="#1A3D9C" stop-opacity="0.02"/>
<stop offset="1" stop-color="#1A3D9C" stop-opacity="0"/>
</radialGradient>
<radialGradient id="paint31_radial_13250_6183" cx="0" cy="0" r="1" gradientUnits="userSpaceOnUse" gradientTransform="translate(16.1798 25.5798) rotate(76.3177) scale(18.6092 12.1105)">
<stop stop-color="#1B3E9E"/>
<stop offset="0.06" stop-color="#1B3E9E" stop-opacity="0.87"/>
<stop offset="0.21" stop-color="#1B3E9D" stop-opacity="0.61"/>
<stop offset="0.36" stop-color="#1A3D9D" stop-opacity="0.39"/>
<stop offset="0.52" stop-color="#1A3D9C" stop-opacity="0.22"/>
<stop offset="0.67" stop-color="#1A3D9C" stop-opacity="0.1"/>
<stop offset="0.83" stop-color="#1A3D9C" stop-opacity="0.02"/>
<stop offset="1" stop-color="#1A3D9C" stop-opacity="0"/>
</radialGradient>
<radialGradient id="paint32_radial_13250_6183" cx="0" cy="0" r="1" gradientUnits="userSpaceOnUse" gradientTransform="translate(16.8747 23.7638) rotate(76.3177) scale(14.2369 9.26504)">
<stop stop-color="#183991"/>
<stop offset="0.03" stop-color="#183992" stop-opacity="0.95"/>
<stop offset="0.18" stop-color="#193A95" stop-opacity="0.66"/>
<stop offset="0.34" stop-color="#193B97" stop-opacity="0.42"/>
<stop offset="0.5" stop-color="#1A3C99" stop-opacity="0.24"/>
<stop offset="0.66" stop-color="#1A3D9B" stop-opacity="0.1"/>
<stop offset="0.82" stop-color="#1A3D9C" stop-opacity="0.03"/>
<stop offset="1" stop-color="#1A3D9C" stop-opacity="0"/>
</radialGradient>
<radialGradient id="paint33_radial_13250_6183" cx="0" cy="0" r="1" gradientUnits="userSpaceOnUse" gradientTransform="translate(19.5005 25.6446) rotate(87.1835) scale(11.2598 9.75343)">
<stop offset="0.04" stop-color="#2453D6" stop-opacity="0.6"/>
<stop offset="0.2" stop-color="#2453D6" stop-opacity="0.49"/>
<stop offset="0.52" stop-color="#2453D6" stop-opacity="0.2"/>
<stop offset="0.73" stop-color="#2453D6" stop-opacity="0"/>
</radialGradient>
<linearGradient id="paint34_linear_13250_6183" x1="42.852" y1="-0.942983" x2="29.9787" y2="30.3658" gradientUnits="userSpaceOnUse">
<stop stop-color="#3774FF"/>
<stop offset="0.05" stop-color="#3774FF" stop-opacity="0.91"/>
<stop offset="0.16" stop-color="#3774FF" stop-opacity="0.66"/>
<stop offset="0.32" stop-color="#3774FF" stop-opacity="0.28"/>
<stop offset="0.43" stop-color="#3774FF" stop-opacity="0"/>
</linearGradient>
</defs>
</svg>
