<svg width="194" height="28" viewBox="0 0 194 28" fill="none" xmlns="http://www.w3.org/2000/svg">
<path fill-rule="evenodd" clip-rule="evenodd" d="M50.1753 7.57632C51.2395 8.20788 52.112 9.11685 52.6993 10.206C53.309 11.3748 53.6273 12.6736 53.6273 13.9919C53.6273 15.3102 53.309 16.609 52.6993 17.7778C52.1098 18.8713 51.2324 19.783 50.1624 20.4141C49.0922 21.0453 47.87 21.3718 46.6276 21.3587C45.7567 21.3756 44.8935 21.1932 44.1036 20.8255C43.3788 20.4737 42.7438 19.9612 42.2469 19.3269V20.9927H39.1929V1.02979H42.2469V8.65689C42.7434 8.0226 43.3786 7.51049 44.1036 7.15986C44.893 6.79086 45.7565 6.60792 46.6276 6.6251C47.8751 6.61092 49.1023 6.93999 50.1753 7.57632ZM48.5032 17.8788C49.1378 17.4881 49.6491 16.9258 49.9782 16.2572C50.3157 15.5497 50.4908 14.7758 50.4908 13.9919C50.4908 13.2081 50.3157 12.4341 49.9782 11.7267C49.6491 11.0575 49.1378 10.4949 48.5032 10.1034C47.8298 9.71319 47.0657 9.50647 46.2872 9.504C45.5089 9.5015 44.7435 9.70331 44.0673 10.0892C43.431 10.4764 42.9148 11.033 42.5766 11.6967C42.2261 12.4108 42.0438 13.1956 42.0438 13.9911C42.0438 14.7866 42.2261 15.5715 42.5766 16.2856C42.9148 16.9493 43.431 17.5059 44.0673 17.893C44.7435 18.279 45.5089 18.4808 46.2872 18.4782C47.0657 18.4757 47.8298 18.2691 48.5032 17.8788Z" fill="black"/>
<path fill-rule="evenodd" clip-rule="evenodd" d="M26.7719 15.1165H37.1107C37.1454 14.6496 37.1627 14.2694 37.1627 13.976C37.1887 12.6514 36.9005 11.3394 36.3219 10.1475C35.8042 9.08196 34.9973 8.18336 33.9936 7.55411C32.9572 6.92509 31.7636 6.60292 30.5515 6.62498C29.2804 6.60048 28.0263 6.9216 26.9233 7.55411C25.8732 8.17092 25.0193 9.07291 24.4609 10.1554C23.8548 11.3418 23.5513 12.6597 23.5775 13.9918C23.5775 15.4536 23.8819 16.7419 24.4908 17.8566C25.0683 18.9421 25.944 19.8397 27.0148 20.4437C28.1528 21.0671 29.434 21.382 30.7313 21.3571C31.7845 21.3675 32.8327 21.2121 33.8374 20.8964C34.8137 20.5746 35.7154 20.0602 36.4891 19.3836L34.97 17.2067C34.3876 17.6722 33.7334 18.0398 33.0329 18.2952C32.3577 18.5476 31.6431 18.6785 30.9222 18.6817C30.2718 18.6883 29.6271 18.5592 29.0292 18.3031C28.4437 18.045 27.9368 17.6363 27.5606 17.1184C27.1383 16.5255 26.8675 15.8382 26.7719 15.1165ZM32.8578 10.25C33.4773 10.8537 33.8696 11.7013 34.0346 12.7929L26.7798 12.7961C26.9555 11.7318 27.3571 10.8905 27.9849 10.2721C28.6128 9.65373 29.4484 9.34455 30.4916 9.34455C31.4497 9.34455 32.2385 9.64637 32.8578 10.25Z" fill="black"/>
<path d="M20.2548 6.99108H23.4413L18.8114 20.9912H15.1548L11.6844 10.4221L8.22182 20.9912H4.63305L0 6.99108H3.25907L6.54653 17.6296L9.99648 6.99108H13.459L16.9532 17.6896L20.2548 6.99108Z" fill="black"/>
<path fill-rule="evenodd" clip-rule="evenodd" d="M58.4392 15.1166H68.7717C68.8107 14.6496 68.8316 14.2695 68.8348 13.976C68.8607 12.6514 68.5726 11.3394 67.994 10.1475C67.4736 9.08075 66.6634 8.18201 65.6562 7.55413C64.6199 6.92471 63.4262 6.6025 62.2141 6.62499C60.9428 6.60034 59.6889 6.92148 58.5859 7.55413C57.5353 8.17054 56.6814 9.07261 56.1235 10.1554C55.5168 11.3417 55.2128 12.6596 55.2385 13.9918C55.2385 15.4536 55.543 16.7419 56.1519 17.8566C56.7328 18.9437 57.6131 19.8414 58.6885 20.4437C59.8249 21.0668 61.1045 21.3817 62.4003 21.3571C63.4529 21.3675 64.5005 21.2121 65.5047 20.8964C66.482 20.5748 67.3848 20.0604 68.1596 19.3836L66.6389 17.2067C66.0573 17.6725 65.4035 18.0401 64.7034 18.2952C64.0276 18.5477 63.3125 18.6787 62.5911 18.6817C61.9407 18.6883 61.296 18.5594 60.6982 18.3031C60.1121 18.0448 59.6048 17.6361 59.228 17.1184C58.8055 16.5255 58.5348 15.8382 58.4392 15.1166ZM64.5267 10.25C65.144 10.8537 65.5363 11.7013 65.7035 12.7929L58.4392 12.7961C58.6138 11.7318 59.0155 10.8905 59.6444 10.2721C60.2733 9.65375 61.1088 9.34456 62.151 9.34456C63.1175 9.34456 63.9094 9.64638 64.5267 10.25Z" fill="black"/>
<path d="M79.587 20.9912H83.3429L78.0663 13.8153L83.2404 6.99108H79.6296L76.2112 11.6683L72.7912 6.99108H69.0352L74.2235 13.8452L68.9469 20.9912H72.5278L76.0345 16.1247L79.587 20.9912Z" fill="black"/>
<path fill-rule="evenodd" clip-rule="evenodd" d="M183.409 20.9998V6.99976H185.453V12.2019H185.576C185.694 11.9832 185.865 11.7302 186.088 11.4431C186.312 11.156 186.622 10.9054 187.018 10.6912C187.415 10.4724 187.939 10.363 188.59 10.363C189.438 10.363 190.195 10.5772 190.86 11.0056C191.525 11.434 192.047 12.0515 192.425 12.8582C192.808 13.6648 193 14.6355 193 15.7703C193 16.905 192.81 17.878 192.432 18.6892C192.054 19.4958 191.534 20.1179 190.874 20.5554C190.213 20.9884 189.458 21.2048 188.611 21.2048C187.973 21.2048 187.451 21.0977 187.045 20.8835C186.644 20.6694 186.33 20.4187 186.102 20.1316C185.874 19.8445 185.699 19.5893 185.576 19.366H185.405V20.9998H183.409ZM185.412 15.7498C185.412 16.488 185.519 17.1352 185.733 17.6912C185.947 18.2472 186.257 18.6824 186.663 18.9968C187.068 19.3067 187.565 19.4617 188.153 19.4617C188.764 19.4617 189.274 19.2999 189.684 18.9763C190.094 18.6482 190.404 18.2039 190.614 17.6433C190.828 17.0828 190.935 16.4516 190.935 15.7498C190.935 15.057 190.83 14.435 190.621 13.8835C190.416 13.3321 190.106 12.8969 189.691 12.5779C189.281 12.2589 188.768 12.0994 188.153 12.0994C187.56 12.0994 187.059 12.252 186.649 12.5574C186.243 12.8627 185.936 13.2888 185.726 13.8357C185.516 14.3826 185.412 15.0206 185.412 15.7498Z" fill="black"/>
<path d="M179.298 10.4998V16.6453C179.302 17.2423 179.177 17.7345 178.922 18.1218C178.671 18.5092 178.354 18.7986 177.971 18.99C177.593 19.1814 177.213 19.2771 176.83 19.2771C176.196 19.2771 175.681 19.0652 175.285 18.6414C174.888 18.2175 174.69 17.6479 174.69 16.9324V10.4998H172.646V17.1785C172.646 18.0444 172.792 18.7712 173.084 19.3591C173.38 19.947 173.786 20.3914 174.301 20.6921C174.82 20.9884 175.417 21.1365 176.092 21.1365C176.88 21.1365 177.538 20.9519 178.067 20.5828C178.6 20.2091 178.988 19.7419 179.229 19.1814H179.339V20.9998H181.348V10.4998H179.298Z" fill="black"/>
<path d="M159.373 20.9998V6.99976H161.485V13.0837H168.465V6.99976H170.584V20.9998H168.465V14.8953H161.485V20.9998H159.373Z" fill="black"/>
<path d="M148.427 10.4998V20.9998H150.47V14.5876C150.47 14.1319 150.58 13.7263 150.799 13.3709C151.017 13.0108 151.314 12.7306 151.687 12.53C152.066 12.325 152.496 12.2224 152.979 12.2224C153.189 12.2224 153.399 12.2384 153.608 12.2703C153.818 12.2976 153.964 12.3227 154.046 12.3455V10.3904C153.945 10.3767 153.806 10.3653 153.629 10.3562C153.455 10.3471 153.305 10.3425 153.177 10.3425C152.562 10.3425 152.011 10.5066 151.523 10.8347C151.04 11.1583 150.703 11.6026 150.511 12.1677H150.402V10.4998H148.427Z" fill="black"/>
<path fill-rule="evenodd" clip-rule="evenodd" d="M142.504 21.2117C141.469 21.2117 140.578 20.9906 139.831 20.5486C139.088 20.102 138.514 19.4753 138.108 18.6687C137.707 17.8575 137.507 16.9073 137.507 15.8181C137.507 14.7426 137.707 13.7947 138.108 12.9744C138.514 12.1541 139.079 11.5138 139.804 11.0535C140.533 10.5932 141.385 10.363 142.36 10.363C142.953 10.363 143.527 10.461 144.083 10.657C144.639 10.8529 145.138 11.1606 145.58 11.5798C146.022 11.9991 146.371 12.5437 146.626 13.2136C146.881 13.879 147.009 14.6879 147.009 15.6404V16.365H139.546C139.561 17.005 139.684 17.5542 139.913 18.0125C140.164 18.5046 140.512 18.8806 140.959 19.1404C141.406 19.3956 141.927 19.5232 142.524 19.5232C142.912 19.5232 143.265 19.4685 143.584 19.3591C143.903 19.2452 144.179 19.0766 144.411 18.8533C144.644 18.63 144.821 18.3542 144.944 18.0261L146.879 18.3748C146.724 18.9444 146.446 19.4434 146.045 19.8718C145.648 20.2957 145.149 20.6261 144.548 20.863C143.951 21.0955 143.27 21.2117 142.504 21.2117ZM139.886 13.5691C139.686 13.9608 139.574 14.3824 139.549 14.8337H145.006C145.006 14.296 144.896 13.8197 144.678 13.405C144.459 12.9858 144.151 12.6554 143.755 12.4138C143.363 12.1723 142.903 12.0515 142.374 12.0515C141.8 12.0515 141.299 12.1928 140.87 12.4753C140.446 12.7533 140.118 13.1179 139.886 13.5691Z" fill="black"/>
<path d="M129.368 20.9998V14.7654C129.368 14.2094 129.472 13.7354 129.682 13.3435C129.896 12.947 130.186 12.6462 130.55 12.4412C130.919 12.2361 131.341 12.1335 131.815 12.1335C132.508 12.1335 133.052 12.35 133.449 12.783C133.845 13.2113 134.043 13.8061 134.043 14.5671V20.9998H136.087V14.321C136.087 13.4552 135.939 12.7283 135.643 12.1404C135.347 11.5525 134.93 11.1104 134.392 10.8142C133.854 10.5134 133.228 10.363 132.512 10.363C131.724 10.363 131.07 10.5317 130.55 10.8689C130.035 11.2061 129.657 11.6528 129.416 12.2087H129.286V10.4998H127.324V20.9998H129.368Z" fill="black"/>
<path d="M125.913 10.4998V12.1404H123.759V17.9167C123.759 18.3132 123.819 18.6117 123.937 18.8123C124.056 19.0082 124.208 19.1427 124.395 19.2156C124.586 19.2839 124.794 19.3181 125.017 19.3181C125.181 19.3181 125.325 19.3067 125.448 19.2839C125.571 19.2611 125.667 19.2429 125.735 19.2292L126.104 20.9177C125.986 20.9633 125.817 21.0089 125.598 21.0544C125.379 21.1046 125.106 21.1319 124.778 21.1365C124.24 21.1456 123.739 21.0499 123.274 20.8494C122.809 20.6488 122.433 20.3389 122.146 19.9197C121.859 19.5004 121.715 18.974 121.715 18.3406V12.1404H120.177V10.4998H121.715V7.98413H123.759V10.4998H125.913Z" fill="black"/>
<path d="M113.853 10.4998V20.9998H115.897V14.5876C115.897 14.1319 116.006 13.7263 116.225 13.3709C116.444 13.0108 116.74 12.7306 117.114 12.53C117.492 12.325 117.923 12.2224 118.406 12.2224C118.615 12.2224 118.825 12.2384 119.035 12.2703C119.244 12.2976 119.39 12.3227 119.472 12.3455V10.3904C119.372 10.3767 119.233 10.3653 119.055 10.3562C118.882 10.3471 118.732 10.3425 118.604 10.3425C117.989 10.3425 117.437 10.5066 116.95 10.8347C116.467 11.1583 116.129 11.6026 115.938 12.1677H115.829V10.4998H113.853Z" fill="black"/>
<path fill-rule="evenodd" clip-rule="evenodd" d="M106.799 21.2322C106.133 21.2322 105.532 21.1091 104.994 20.863C104.456 20.6124 104.03 20.2501 103.716 19.7761C103.406 19.3022 103.251 18.7211 103.251 18.033C103.251 17.4405 103.365 16.9529 103.593 16.5701C103.821 16.1873 104.128 15.8842 104.516 15.6609C104.903 15.4376 105.336 15.269 105.814 15.155C106.293 15.0411 106.781 14.9545 107.277 14.8953L108.809 14.7175C109.201 14.6674 109.485 14.5876 109.663 14.4783C109.841 14.3689 109.93 14.1912 109.93 13.9451V13.8972C109.93 13.3002 109.761 12.8376 109.424 12.5095C109.091 12.1814 108.594 12.0173 107.934 12.0173C107.245 12.0173 106.703 12.17 106.307 12.4753C105.915 12.7761 105.644 13.1111 105.493 13.4802L103.572 13.0427C103.8 12.4047 104.133 11.8897 104.57 11.4978C105.012 11.1013 105.521 10.8142 106.095 10.6365C106.669 10.4542 107.273 10.363 107.906 10.363C108.326 10.363 108.77 10.4132 109.239 10.5134C109.713 10.6091 110.155 10.7869 110.565 11.0466C110.98 11.3064 111.32 11.6778 111.584 12.1609C111.848 12.6394 111.98 13.2615 111.98 14.0271V20.9998H109.984V19.5642H109.902C109.77 19.8285 109.572 20.0883 109.308 20.3435C109.043 20.5987 108.704 20.8106 108.289 20.9792C107.874 21.1479 107.378 21.2322 106.799 21.2322ZM107.243 19.5916C107.808 19.5916 108.291 19.4799 108.692 19.2566C109.098 19.0333 109.406 18.7416 109.615 18.3816C109.829 18.017 109.937 17.6274 109.937 17.2126V15.8591C109.864 15.932 109.722 16.0004 109.513 16.0642C109.308 16.1235 109.073 16.1759 108.809 16.2214C108.544 16.2625 108.287 16.3012 108.036 16.3376C107.785 16.3695 107.576 16.3969 107.407 16.4197C107.011 16.4698 106.648 16.5541 106.32 16.6726C105.997 16.7911 105.737 16.962 105.541 17.1853C105.35 17.4041 105.254 17.6957 105.254 18.0603C105.254 18.5662 105.441 18.949 105.814 19.2087C106.188 19.4639 106.664 19.5916 107.243 19.5916Z" fill="black"/>
<path fill-rule="evenodd" clip-rule="evenodd" d="M92.5381 6.99976V20.9998H94.6504V16.0779H97.5215C98.6061 16.0779 99.5062 15.8796 100.222 15.4832C100.942 15.0821 101.479 14.5398 101.835 13.8562C102.195 13.1681 102.375 12.3933 102.375 11.532C102.375 10.6752 102.197 9.90503 101.842 9.22144C101.486 8.53328 100.951 7.99097 100.235 7.59448C99.5199 7.198 98.6175 6.99976 97.5283 6.99976H92.5381ZM94.6504 14.2869V8.81128H97.3027C98.0046 8.81128 98.5697 8.92749 98.998 9.15991C99.431 9.39233 99.7477 9.71362 99.9482 10.1238C100.149 10.5339 100.249 11.0033 100.249 11.532C100.249 12.0606 100.149 12.5323 99.9482 12.947C99.7477 13.3617 99.4333 13.6899 99.0049 13.9314C98.5765 14.1684 98.0182 14.2869 97.3301 14.2869H94.6504Z" fill="black"/>
</svg>
