<svg width="286" height="28" viewBox="0 0 286 28" fill="none" xmlns="http://www.w3.org/2000/svg">
<path fill-rule="evenodd" clip-rule="evenodd" d="M52.6993 10.2065C52.112 9.11734 51.2395 8.20836 50.1753 7.57681C49.1023 6.94048 47.8751 6.61141 46.6276 6.62559C45.7565 6.60841 44.893 6.79135 44.1036 7.16035C43.3786 7.51098 42.7434 8.02309 42.2469 8.65738V1.03027H39.1929V20.9932H42.2469V19.3274C42.7438 19.9617 43.3788 20.4742 44.1036 20.826C44.8935 21.1937 45.7567 21.3761 46.6276 21.3592C47.87 21.3723 49.0922 21.0458 50.1624 20.4146C51.2324 19.7835 52.1098 18.8718 52.6993 17.7783C53.309 16.6095 53.6273 15.3107 53.6273 13.9924C53.6273 12.6741 53.309 11.3753 52.6993 10.2065ZM49.9782 16.2577C49.6491 16.9263 49.1378 17.4885 48.5032 17.8793C47.8298 18.2696 47.0657 18.4762 46.2872 18.4787C45.5089 18.4813 44.7435 18.2795 44.0673 17.8935C43.431 17.5064 42.9148 16.9498 42.5766 16.2861C42.2261 15.572 42.0438 14.7871 42.0438 13.9916C42.0438 13.1961 42.2261 12.4112 42.5766 11.6972C42.9148 11.0335 43.431 10.4769 44.0673 10.0897C44.7435 9.7038 45.5089 9.50199 46.2872 9.50448C47.0657 9.50696 47.8298 9.71367 48.5032 10.1039C49.1378 10.4954 49.6491 11.058 49.9782 11.7272C50.3157 12.4346 50.4908 13.2086 50.4908 13.9924C50.4908 14.7763 50.3157 15.5502 49.9782 16.2577Z" fill="white"/>
<path fill-rule="evenodd" clip-rule="evenodd" d="M37.1107 15.117H26.7719C26.8675 15.8387 27.1383 16.526 27.5606 17.1189C27.9368 17.6367 28.4437 18.0455 29.0292 18.3036C29.6271 18.5597 30.2718 18.6888 30.9222 18.6821C31.6431 18.679 32.3577 18.5481 33.0329 18.2957C33.7334 18.0403 34.3876 17.6727 34.97 17.2072L36.4891 19.3841C35.7154 20.0607 34.8137 20.5751 33.8374 20.8969C32.8327 21.2126 31.7845 21.368 30.7313 21.3576C29.434 21.3825 28.1528 21.0676 27.0148 20.4442C25.944 19.8402 25.0683 18.9426 24.4908 17.8571C23.8819 16.7424 23.5775 15.4541 23.5775 13.9923C23.5513 12.6602 23.8548 11.3423 24.4609 10.1559C25.0193 9.07339 25.8732 8.17141 26.9233 7.5546C28.0263 6.92209 29.2804 6.60097 30.5515 6.62546C31.7636 6.60341 32.9572 6.92558 33.9936 7.5546C34.9973 8.18385 35.8042 9.08245 36.3219 10.148C36.9005 11.3399 37.1887 12.6519 37.1627 13.9765C37.1627 14.2699 37.1454 14.6501 37.1107 15.117ZM34.0346 12.7934C33.8696 11.7018 33.4773 10.8542 32.8578 10.2505C32.2385 9.64686 31.4497 9.34504 30.4916 9.34504C29.4484 9.34504 28.6128 9.65422 27.9849 10.2726C27.3571 10.891 26.9555 11.7323 26.7798 12.7966L34.0346 12.7934Z" fill="white"/>
<path d="M23.4413 6.99157H20.2548L16.9532 17.6901L13.459 6.99157H9.99648L6.54653 17.6301L3.25907 6.99157H0L4.63305 20.9917H8.22182L11.6844 10.4226L15.1548 20.9917H18.8114L23.4413 6.99157Z" fill="white"/>
<path fill-rule="evenodd" clip-rule="evenodd" d="M68.7717 15.117H58.4392C58.5348 15.8387 58.8055 16.526 59.228 17.1189C59.6048 17.6366 60.1121 18.0453 60.6982 18.3036C61.296 18.5599 61.9407 18.6888 62.5911 18.6821C63.3125 18.6791 64.0276 18.5482 64.7034 18.2957C65.4035 18.0406 66.0573 17.673 66.6389 17.2072L68.1596 19.3841C67.3848 20.0609 66.482 20.5753 65.5047 20.8969C64.5005 21.2126 63.4529 21.368 62.4003 21.3576C61.1045 21.3822 59.8249 21.0673 58.6885 20.4442C57.6131 19.8419 56.7328 18.9442 56.1519 17.8571C55.543 16.7424 55.2385 15.4541 55.2385 13.9923C55.2128 12.6601 55.5168 11.3422 56.1235 10.1559C56.6814 9.07309 57.5353 8.17103 58.5859 7.55462C59.6889 6.92197 60.9428 6.60082 62.2141 6.62548C63.4262 6.60298 64.6199 6.9252 65.6562 7.55462C66.6634 8.1825 67.4736 9.08123 67.994 10.148C68.5726 11.3399 68.8607 12.6519 68.8348 13.9765C68.8316 14.2699 68.8107 14.6501 68.7717 15.117ZM65.7035 12.7934C65.5363 11.7018 65.144 10.8542 64.5267 10.2505C63.9094 9.64687 63.1175 9.34505 62.151 9.34505C61.1088 9.34505 60.2733 9.65424 59.6444 10.2726C59.0155 10.891 58.6138 11.7323 58.4392 12.7966L65.7035 12.7934Z" fill="white"/>
<path d="M83.3429 20.9917H79.587L76.0345 16.1252L72.5278 20.9917H68.9469L74.2235 13.8457L69.0352 6.99157H72.7912L76.2112 11.6688L79.6296 6.99157H83.2404L78.0663 13.8157L83.3429 20.9917Z" fill="white"/>
<path d="M276.739 24.8352C276.99 24.8854 277.268 24.9104 277.573 24.9104C278.138 24.9104 278.635 24.8147 279.063 24.6233C279.492 24.4319 279.861 24.1494 280.171 23.7757C280.481 23.402 280.736 22.944 280.937 22.4016L285.277 10.5208L283.069 10.5003L280.41 18.6487H280.301L277.642 10.5003H275.454L279.296 21.137L279.043 21.8343C278.783 22.5133 278.462 22.9166 278.079 23.0442C277.701 23.1764 277.231 23.165 276.671 23.01L276.179 24.6848C276.302 24.7395 276.489 24.7897 276.739 24.8352Z" fill="white"/>
<path fill-rule="evenodd" clip-rule="evenodd" d="M269.653 25.136C268.819 25.136 268.101 25.0266 267.499 24.8079C266.902 24.5891 266.415 24.2998 266.036 23.9397C265.658 23.5843 265.376 23.1969 265.189 22.7776L266.946 22.053C267.069 22.2444 267.233 22.4518 267.438 22.6751C267.647 22.8984 267.93 23.0898 268.285 23.2493C268.645 23.4088 269.108 23.4886 269.673 23.4886C270.448 23.4886 271.088 23.3017 271.594 22.928C272.1 22.5543 272.353 21.9619 272.353 21.1507V19.0862H272.223C272.1 19.3095 271.922 19.5579 271.69 19.8313C271.462 20.1048 271.147 20.3417 270.746 20.5423C270.345 20.7428 269.823 20.843 269.181 20.843C268.351 20.843 267.604 20.6494 266.939 20.262C266.278 19.8701 265.754 19.2936 265.366 18.5325C264.984 17.7669 264.792 16.8258 264.792 15.7093C264.792 14.5927 264.981 13.6357 265.36 12.8382C265.742 12.0406 266.267 11.43 266.932 11.0061C267.597 10.5777 268.351 10.3636 269.195 10.3636C269.846 10.3636 270.373 10.4729 270.774 10.6917C271.175 10.9059 271.487 11.1565 271.71 11.4436C271.938 11.7307 272.114 11.9837 272.237 12.2024H272.387V10.5003H274.39V21.2327C274.39 22.1259 274.18 22.8596 273.761 23.4339C273.342 24.0126 272.774 24.441 272.059 24.719C271.348 24.997 270.546 25.136 269.653 25.136ZM269.632 19.1477C270.22 19.1477 270.717 19.011 271.122 18.7376C271.532 18.4596 271.842 18.0631 272.052 17.5481C272.266 17.0286 272.373 16.4065 272.373 15.6819C272.373 14.9755 272.268 14.3535 272.059 13.8157C271.849 13.2779 271.542 12.8587 271.136 12.5579C270.73 12.2526 270.229 12.0999 269.632 12.0999C269.017 12.0999 268.504 12.2594 268.094 12.5784C267.684 12.8929 267.374 13.3212 267.164 13.8636C266.959 14.4059 266.857 15.012 266.857 15.6819C266.857 16.3701 266.962 16.9739 267.171 17.4934C267.381 18.013 267.691 18.4186 268.101 18.7102C268.516 19.0019 269.026 19.1477 269.632 19.1477Z" fill="white"/>
<path fill-rule="evenodd" clip-rule="evenodd" d="M256.347 20.5354C257.081 20.9866 257.94 21.2122 258.924 21.2122C259.909 21.2122 260.768 20.9866 261.501 20.5354C262.235 20.0843 262.805 19.4531 263.21 18.6419C263.616 17.8307 263.819 16.8828 263.819 15.7981C263.819 14.7089 263.616 13.7565 263.21 12.9407C262.805 12.1249 262.235 11.4915 261.501 11.0403C260.768 10.5891 259.909 10.3636 258.924 10.3636C257.94 10.3636 257.081 10.5891 256.347 11.0403C255.613 11.4915 255.044 12.1249 254.638 12.9407C254.233 13.7565 254.03 14.7089 254.03 15.7981C254.03 16.8828 254.233 17.8307 254.638 18.6419C255.044 19.4531 255.613 20.0843 256.347 20.5354ZM260.517 18.9905C260.098 19.3277 259.569 19.4964 258.931 19.4964C258.289 19.4964 257.755 19.3277 257.332 18.9905C256.912 18.6533 256.6 18.2044 256.395 17.6438C256.194 17.0833 256.094 16.4658 256.094 15.7913C256.094 15.1214 256.194 14.5061 256.395 13.9456C256.6 13.3805 256.912 12.927 257.332 12.5852C257.755 12.2434 258.289 12.0725 258.931 12.0725C259.569 12.0725 260.098 12.2434 260.517 12.5852C260.936 12.927 261.246 13.3805 261.447 13.9456C261.652 14.5061 261.754 15.1214 261.754 15.7913C261.754 16.4658 261.652 17.0833 261.447 17.6438C261.246 18.2044 260.936 18.6533 260.517 18.9905Z" fill="white"/>
<path d="M252.602 7.00027V21.0003H250.558V7.00027H252.602Z" fill="white"/>
<path fill-rule="evenodd" clip-rule="evenodd" d="M241.655 20.5354C242.388 20.9866 243.247 21.2122 244.232 21.2122C245.216 21.2122 246.075 20.9866 246.809 20.5354C247.543 20.0843 248.112 19.4531 248.518 18.6419C248.923 17.8307 249.126 16.8828 249.126 15.7981C249.126 14.7089 248.923 13.7565 248.518 12.9407C248.112 12.1249 247.543 11.4915 246.809 11.0403C246.075 10.5891 245.216 10.3636 244.232 10.3636C243.247 10.3636 242.388 10.5891 241.655 11.0403C240.921 11.4915 240.351 12.1249 239.946 12.9407C239.54 13.7565 239.337 14.7089 239.337 15.7981C239.337 16.8828 239.54 17.8307 239.946 18.6419C240.351 19.4531 240.921 20.0843 241.655 20.5354ZM245.824 18.9905C245.405 19.3277 244.877 19.4964 244.239 19.4964C243.596 19.4964 243.063 19.3277 242.639 18.9905C242.22 18.6533 241.907 18.2044 241.702 17.6438C241.502 17.0833 241.402 16.4658 241.402 15.7913C241.402 15.1214 241.502 14.5061 241.702 13.9456C241.907 13.3805 242.22 12.927 242.639 12.5852C243.063 12.2434 243.596 12.0725 244.239 12.0725C244.877 12.0725 245.405 12.2434 245.824 12.5852C246.244 12.927 246.554 13.3805 246.754 13.9456C246.959 14.5061 247.062 15.1214 247.062 15.7913C247.062 16.4658 246.959 17.0833 246.754 17.6438C246.554 18.2044 246.244 18.6533 245.824 18.9905Z" fill="white"/>
<path fill-rule="evenodd" clip-rule="evenodd" d="M232.54 21.2054C231.692 21.2054 230.935 20.9889 230.27 20.5559C229.609 20.1184 229.09 19.4964 228.711 18.6897C228.338 17.8785 228.151 16.9055 228.151 15.7708C228.151 14.636 228.34 13.6653 228.718 12.8587C229.101 12.052 229.625 11.4345 230.291 11.0061C230.956 10.5777 231.71 10.3636 232.553 10.3636C233.205 10.3636 233.729 10.4729 234.125 10.6917C234.527 10.9059 234.836 11.1565 235.055 11.4436C235.278 11.7307 235.452 11.9837 235.575 12.2024H235.698V7.00027H237.742V21.0003H235.746V19.3665H235.575C235.452 19.5898 235.274 19.845 235.042 20.1321C234.814 20.4192 234.499 20.6699 234.098 20.8841C233.697 21.0983 233.178 21.2054 232.54 21.2054ZM232.991 19.4622C233.579 19.4622 234.075 19.3072 234.481 18.9973C234.891 18.6829 235.201 18.2477 235.411 17.6917C235.625 17.1357 235.732 16.4886 235.732 15.7503C235.732 15.0211 235.627 14.3831 235.417 13.8362C235.208 13.2893 234.9 12.8632 234.495 12.5579C234.089 12.2526 233.588 12.0999 232.991 12.0999C232.375 12.0999 231.863 12.2594 231.453 12.5784C231.042 12.8974 230.733 13.3326 230.523 13.8841C230.318 14.4355 230.215 15.0576 230.215 15.7503C230.215 16.4521 230.32 17.0833 230.53 17.6438C230.739 18.2044 231.049 18.6487 231.459 18.9768C231.874 19.3004 232.385 19.4622 232.991 19.4622Z" fill="white"/>
<path fill-rule="evenodd" clip-rule="evenodd" d="M219.706 20.5354C220.439 20.9866 221.298 21.2122 222.283 21.2122C223.267 21.2122 224.126 20.9866 224.86 20.5354C225.594 20.0843 226.163 19.4531 226.569 18.6419C226.974 17.8307 227.177 16.8828 227.177 15.7981C227.177 14.7089 226.974 13.7565 226.569 12.9407C226.163 12.1249 225.594 11.4915 224.86 11.0403C224.126 10.5891 223.267 10.3636 222.283 10.3636C221.298 10.3636 220.439 10.5891 219.706 11.0403C218.972 11.4915 218.402 12.1249 217.997 12.9407C217.591 13.7565 217.388 14.7089 217.388 15.7981C217.388 16.8828 217.591 17.8307 217.997 18.6419C218.402 19.4531 218.972 20.0843 219.706 20.5354ZM223.875 18.9905C223.456 19.3277 222.928 19.4964 222.29 19.4964C221.647 19.4964 221.114 19.3277 220.69 18.9905C220.271 18.6533 219.958 18.2044 219.753 17.6438C219.553 17.0833 219.453 16.4658 219.453 15.7913C219.453 15.1214 219.553 14.5061 219.753 13.9456C219.958 13.3805 220.271 12.927 220.69 12.5852C221.114 12.2434 221.647 12.0725 222.29 12.0725C222.928 12.0725 223.456 12.2434 223.875 12.5852C224.295 12.927 224.605 13.3805 224.805 13.9456C225.01 14.5061 225.113 15.1214 225.113 15.7913C225.113 16.4658 225.01 17.0833 224.805 17.6438C224.605 18.2044 224.295 18.6533 223.875 18.9905Z" fill="white"/>
<path d="M209.174 14.7659V21.0003H207.13V7.00027H209.146V12.2093H209.276C209.522 11.6442 209.898 11.1953 210.404 10.8626C210.91 10.5299 211.571 10.3636 212.387 10.3636C213.107 10.3636 213.736 10.5117 214.273 10.8079C214.816 11.1041 215.235 11.5462 215.531 12.1341C215.832 12.7174 215.982 13.4466 215.982 14.3216V21.0003H213.938V14.5677C213.938 13.7975 213.74 13.2005 213.344 12.7766C212.947 12.3483 212.396 12.1341 211.689 12.1341C211.206 12.1341 210.773 12.2366 210.391 12.4417C210.012 12.6468 209.714 12.9475 209.495 13.344C209.281 13.736 209.174 14.2099 209.174 14.7659Z" fill="white"/>
<path d="M205.493 12.1409V10.5003H203.34V7.98465H201.296V10.5003H199.758V12.1409H201.296V18.3411C201.296 18.9746 201.439 19.5009 201.727 19.9202C202.014 20.3395 202.39 20.6494 202.854 20.8499C203.319 21.0504 203.821 21.1461 204.358 21.137C204.687 21.1324 204.96 21.1051 205.179 21.055C205.397 21.0094 205.566 20.9638 205.685 20.9182L205.315 19.2298C205.247 19.2434 205.151 19.2617 205.028 19.2845C204.905 19.3072 204.762 19.3186 204.598 19.3186C204.374 19.3186 204.167 19.2845 203.976 19.2161C203.789 19.1432 203.636 19.0087 203.518 18.8128C203.399 18.6123 203.34 18.3138 203.34 17.9173V12.1409H205.493Z" fill="white"/>
<path fill-rule="evenodd" clip-rule="evenodd" d="M194.669 21.2122C193.635 21.2122 192.744 20.9912 191.996 20.5491C191.253 20.1025 190.679 19.4759 190.274 18.6692C189.873 17.858 189.672 16.9078 189.672 15.8186C189.672 14.7431 189.873 13.7952 190.274 12.9749C190.679 12.1546 191.244 11.5143 191.969 11.054C192.698 10.5937 193.55 10.3636 194.526 10.3636C195.118 10.3636 195.692 10.4615 196.248 10.6575C196.804 10.8535 197.303 11.1611 197.745 11.5804C198.187 11.9996 198.536 12.5442 198.791 13.2141C199.046 13.8795 199.174 14.6884 199.174 15.6409V16.3655H191.711C191.727 17.0055 191.849 17.5547 192.078 18.013C192.329 18.5052 192.678 18.8811 193.124 19.1409C193.571 19.3961 194.093 19.5237 194.69 19.5237C195.077 19.5237 195.43 19.469 195.749 19.3596C196.068 19.2457 196.344 19.0771 196.576 18.8538C196.809 18.6305 196.987 18.3548 197.11 18.0266L199.044 18.3753C198.889 18.9449 198.611 19.444 198.21 19.8723C197.814 20.2962 197.315 20.6266 196.713 20.8636C196.116 21.096 195.435 21.2122 194.669 21.2122ZM192.051 13.5696C191.851 13.9614 191.739 14.3829 191.714 14.8343H197.171C197.171 14.2965 197.062 13.8203 196.843 13.4055C196.624 12.9863 196.317 12.6559 195.92 12.4143C195.528 12.1728 195.068 12.052 194.539 12.052C193.965 12.052 193.464 12.1933 193.035 12.4759C192.612 12.7539 192.283 13.1184 192.051 13.5696Z" fill="white"/>
<path d="M176.445 7.00027H173.882V21.0003H175.892V10.8626H176.021L180.15 20.9798H181.818L185.947 10.8694H186.077V21.0003H188.087V7.00027H185.523L181.066 17.8831H180.902L176.445 7.00027Z" fill="white"/>
<path d="M160.862 14.7659V21.0003H158.818V10.5003H160.78V12.2093H160.91C161.152 11.6533 161.53 11.2067 162.045 10.8694C162.564 10.5322 163.218 10.3636 164.007 10.3636C164.722 10.3636 165.349 10.5139 165.887 10.8147C166.424 11.111 166.841 11.553 167.138 12.1409C167.434 12.7288 167.582 13.4557 167.582 14.3216V21.0003H165.538V14.5677C165.538 13.8066 165.34 13.2119 164.943 12.7835C164.547 12.3505 164.002 12.1341 163.31 12.1341C162.836 12.1341 162.414 12.2366 162.045 12.4417C161.68 12.6468 161.391 12.9475 161.177 13.344C160.967 13.736 160.862 14.2099 160.862 14.7659Z" fill="white"/>
<path fill-rule="evenodd" clip-rule="evenodd" d="M149.915 20.5354C150.649 20.9866 151.508 21.2122 152.492 21.2122C153.477 21.2122 154.336 20.9866 155.069 20.5354C155.803 20.0843 156.373 19.4531 156.778 18.6419C157.184 17.8307 157.387 16.8828 157.387 15.7981C157.387 14.7089 157.184 13.7565 156.778 12.9407C156.373 12.1249 155.803 11.4915 155.069 11.0403C154.336 10.5891 153.477 10.3636 152.492 10.3636C151.508 10.3636 150.649 10.5891 149.915 11.0403C149.181 11.4915 148.612 12.1249 148.206 12.9407C147.8 13.7565 147.598 14.7089 147.598 15.7981C147.598 16.8828 147.8 17.8307 148.206 18.6419C148.612 19.4531 149.181 20.0843 149.915 20.5354ZM154.085 18.9905C153.666 19.3277 153.137 19.4964 152.499 19.4964C151.856 19.4964 151.323 19.3277 150.899 18.9905C150.48 18.6533 150.168 18.2044 149.963 17.6438C149.762 17.0833 149.662 16.4658 149.662 15.7913C149.662 15.1214 149.762 14.5061 149.963 13.9456C150.168 13.3805 150.48 12.927 150.899 12.5852C151.323 12.2434 151.856 12.0725 152.499 12.0725C153.137 12.0725 153.666 12.2434 154.085 12.5852C154.504 12.927 154.814 13.3805 155.015 13.9456C155.22 14.5061 155.322 15.1214 155.322 15.7913C155.322 16.4658 155.22 17.0833 155.015 17.6438C154.814 18.2044 154.504 18.6533 154.085 18.9905Z" fill="white"/>
<path d="M144.126 21.0003V10.5003H146.17V21.0003H144.126Z" fill="white"/>
<path d="M145.158 8.88016C144.802 8.88016 144.497 8.76167 144.242 8.52469C143.991 8.28315 143.866 7.99604 143.866 7.66336C143.866 7.32612 143.991 7.03901 144.242 6.80203C144.497 6.5605 144.802 6.43973 145.158 6.43973C145.513 6.43973 145.816 6.5605 146.067 6.80203C146.322 7.03901 146.45 7.32612 146.45 7.66336C146.45 7.99604 146.322 8.28315 146.067 8.52469C145.816 8.76167 145.513 8.88016 145.158 8.88016Z" fill="white"/>
<path d="M142.715 12.1409V10.5003H140.562V7.98465H138.518V10.5003H136.979V12.1409H138.518V18.3411C138.518 18.9746 138.661 19.5009 138.948 19.9202C139.235 20.3395 139.611 20.6494 140.076 20.8499C140.541 21.0504 141.042 21.1461 141.58 21.137C141.908 21.1324 142.182 21.1051 142.4 21.055C142.619 21.0094 142.788 20.9638 142.906 20.9182L142.537 19.2298C142.469 19.2434 142.373 19.2617 142.25 19.2845C142.127 19.3072 141.983 19.3186 141.819 19.3186C141.596 19.3186 141.389 19.2845 141.197 19.2161C141.01 19.1432 140.858 19.0087 140.739 18.8128C140.621 18.6123 140.562 18.3138 140.562 17.9173V12.1409H142.715Z" fill="white"/>
<path fill-rule="evenodd" clip-rule="evenodd" d="M126.782 24.9378V10.5003H128.779V12.2024H128.949C129.068 11.9837 129.239 11.7307 129.462 11.4436C129.685 11.1565 129.995 10.9059 130.392 10.6917C130.788 10.4729 131.312 10.3636 131.964 10.3636C132.812 10.3636 133.568 10.5777 134.234 11.0061C134.899 11.4345 135.421 12.052 135.799 12.8587C136.182 13.6653 136.373 14.636 136.373 15.7708C136.373 16.9055 136.184 17.8785 135.806 18.6897C135.428 19.4964 134.908 20.1184 134.247 20.5559C133.587 20.9889 132.832 21.2054 131.985 21.2054C131.347 21.2054 130.825 21.0983 130.419 20.8841C130.018 20.6699 129.704 20.4192 129.476 20.1321C129.248 19.845 129.073 19.5898 128.949 19.3665H128.826V24.9378H126.782ZM128.785 15.7503C128.785 16.4886 128.893 17.1357 129.107 17.6917C129.321 18.2477 129.631 18.6829 130.036 18.9973C130.442 19.3072 130.939 19.4622 131.527 19.4622C132.137 19.4622 132.648 19.3004 133.058 18.9768C133.468 18.6487 133.778 18.2044 133.988 17.6438C134.202 17.0833 134.309 16.4521 134.309 15.7503C134.309 15.0576 134.204 14.4355 133.994 13.8841C133.789 13.3326 133.479 12.8974 133.065 12.5784C132.655 12.2594 132.142 12.0999 131.527 12.0999C130.934 12.0999 130.433 12.2526 130.023 12.5579C129.617 12.8632 129.309 13.2893 129.1 13.8362C128.89 14.3831 128.785 15.0211 128.785 15.7503Z" fill="white"/>
<path fill-rule="evenodd" clip-rule="evenodd" d="M117.879 20.5354C118.613 20.9866 119.472 21.2122 120.457 21.2122C121.441 21.2122 122.3 20.9866 123.034 20.5354C123.767 20.0843 124.337 19.4531 124.743 18.6419C125.148 17.8307 125.351 16.8828 125.351 15.7981C125.351 14.7089 125.148 13.7565 124.743 12.9407C124.337 12.1249 123.767 11.4915 123.034 11.0403C122.3 10.5891 121.441 10.3636 120.457 10.3636C119.472 10.3636 118.613 10.5891 117.879 11.0403C117.146 11.4915 116.576 12.1249 116.17 12.9407C115.765 13.7565 115.562 14.7089 115.562 15.7981C115.562 16.8828 115.765 17.8307 116.17 18.6419C116.576 19.4531 117.146 20.0843 117.879 20.5354ZM122.049 18.9905C121.63 19.3277 121.101 19.4964 120.463 19.4964C119.821 19.4964 119.288 19.3277 118.864 18.9905C118.444 18.6533 118.132 18.2044 117.927 17.6438C117.727 17.0833 117.626 16.4658 117.626 15.7913C117.626 15.1214 117.727 14.5061 117.927 13.9456C118.132 13.3805 118.444 12.927 118.864 12.5852C119.288 12.2434 119.821 12.0725 120.463 12.0725C121.101 12.0725 121.63 12.2434 122.049 12.5852C122.469 12.927 122.778 13.3805 122.979 13.9456C123.184 14.5061 123.287 15.1214 123.287 15.7913C123.287 16.4658 123.184 17.0833 122.979 17.6438C122.778 18.2044 122.469 18.6533 122.049 18.9905Z" fill="white"/>
<path fill-rule="evenodd" clip-rule="evenodd" d="M108.764 21.2054C107.917 21.2054 107.16 20.9889 106.495 20.5559C105.834 20.1184 105.314 19.4964 104.936 18.6897C104.562 17.8785 104.375 16.9055 104.375 15.7708C104.375 14.636 104.565 13.6653 104.943 12.8587C105.326 12.052 105.85 11.4345 106.515 11.0061C107.181 10.5777 107.935 10.3636 108.778 10.3636C109.43 10.3636 109.954 10.4729 110.35 10.6917C110.751 10.9059 111.061 11.1565 111.28 11.4436C111.503 11.7307 111.676 11.9837 111.799 12.2024H111.922V7.00027H113.966V21.0003H111.97V19.3665H111.799C111.676 19.5898 111.499 19.845 111.266 20.1321C111.038 20.4192 110.724 20.6699 110.323 20.8841C109.922 21.0983 109.402 21.2054 108.764 21.2054ZM109.215 19.4622C109.803 19.4622 110.3 19.3072 110.706 18.9973C111.116 18.6829 111.426 18.2477 111.635 17.6917C111.849 17.1357 111.957 16.4886 111.957 15.7503C111.957 15.0211 111.852 14.3831 111.642 13.8362C111.432 13.2893 111.125 12.8632 110.719 12.5579C110.314 12.2526 109.812 12.0999 109.215 12.0999C108.6 12.0999 108.087 12.2594 107.677 12.5784C107.267 12.8974 106.957 13.3326 106.748 13.8841C106.542 14.4355 106.44 15.0576 106.44 15.7503C106.44 16.4521 106.545 17.0833 106.754 17.6438C106.964 18.2044 107.274 18.6487 107.684 18.9768C108.099 19.3004 108.609 19.4622 109.215 19.4622Z" fill="white"/>
<path fill-rule="evenodd" clip-rule="evenodd" d="M91.4785 21.0003H93.7207L95.0029 17.2952H100.473L101.753 21.0003H103.995L98.957 7.00027H96.5166L91.4785 21.0003ZM99.8589 15.5179L97.7949 9.54324H97.6855L95.618 15.5179H99.8589Z" fill="white"/>
</svg>
