<svg width="163" height="28" viewBox="0 0 163 28" fill="none" xmlns="http://www.w3.org/2000/svg">
<path fill-rule="evenodd" clip-rule="evenodd" d="M52.6993 10.2065C52.112 9.11734 51.2395 8.20836 50.1753 7.57681C49.1023 6.94048 47.8751 6.61141 46.6276 6.62559C45.7565 6.60841 44.893 6.79135 44.1036 7.16035C43.3786 7.51098 42.7434 8.02309 42.2469 8.65738V1.03027H39.1929V20.9932H42.2469V19.3274C42.7438 19.9617 43.3788 20.4742 44.1036 20.826C44.8935 21.1937 45.7567 21.3761 46.6276 21.3592C47.87 21.3723 49.0922 21.0458 50.1624 20.4146C51.2324 19.7835 52.1098 18.8718 52.6993 17.7783C53.309 16.6095 53.6273 15.3107 53.6273 13.9924C53.6273 12.6741 53.309 11.3753 52.6993 10.2065ZM49.9782 16.2577C49.6491 16.9263 49.1378 17.4885 48.5032 17.8793C47.8298 18.2696 47.0657 18.4762 46.2872 18.4787C45.5089 18.4813 44.7435 18.2795 44.0673 17.8935C43.431 17.5064 42.9148 16.9498 42.5766 16.2861C42.2261 15.572 42.0438 14.7871 42.0438 13.9916C42.0438 13.1961 42.2261 12.4112 42.5766 11.6972C42.9148 11.0335 43.431 10.4769 44.0673 10.0897C44.7435 9.7038 45.5089 9.50199 46.2872 9.50448C47.0657 9.50696 47.8298 9.71367 48.5032 10.1039C49.1378 10.4954 49.6491 11.058 49.9782 11.7272C50.3157 12.4346 50.4908 13.2086 50.4908 13.9924C50.4908 14.7763 50.3157 15.5502 49.9782 16.2577Z" fill="white"/>
<path fill-rule="evenodd" clip-rule="evenodd" d="M37.1107 15.117H26.7719C26.8675 15.8387 27.1383 16.526 27.5606 17.1189C27.9368 17.6367 28.4437 18.0455 29.0292 18.3036C29.6271 18.5597 30.2718 18.6888 30.9222 18.6821C31.6431 18.679 32.3577 18.5481 33.0329 18.2957C33.7334 18.0403 34.3876 17.6727 34.97 17.2072L36.4891 19.3841C35.7154 20.0607 34.8137 20.5751 33.8374 20.8969C32.8327 21.2126 31.7845 21.368 30.7313 21.3576C29.434 21.3825 28.1528 21.0676 27.0148 20.4442C25.944 19.8402 25.0683 18.9426 24.4908 17.8571C23.8819 16.7424 23.5775 15.4541 23.5775 13.9923C23.5513 12.6602 23.8548 11.3423 24.4609 10.1559C25.0193 9.07339 25.8732 8.17141 26.9233 7.5546C28.0263 6.92209 29.2804 6.60097 30.5515 6.62546C31.7636 6.60341 32.9572 6.92558 33.9936 7.5546C34.9973 8.18385 35.8042 9.08245 36.3219 10.148C36.9005 11.3399 37.1887 12.6519 37.1627 13.9765C37.1627 14.2699 37.1454 14.6501 37.1107 15.117ZM34.0346 12.7934C33.8696 11.7018 33.4773 10.8542 32.8578 10.2505C32.2385 9.64686 31.4497 9.34504 30.4916 9.34504C29.4484 9.34504 28.6128 9.65422 27.9849 10.2726C27.3571 10.891 26.9555 11.7323 26.7798 12.7966L34.0346 12.7934Z" fill="white"/>
<path d="M23.4413 6.99157H20.2548L16.9532 17.6901L13.459 6.99157H9.99648L6.54653 17.6301L3.25907 6.99157H0L4.63305 20.9917H8.22182L11.6844 10.4226L15.1548 20.9917H18.8114L23.4413 6.99157Z" fill="white"/>
<path fill-rule="evenodd" clip-rule="evenodd" d="M68.7717 15.117H58.4392C58.5348 15.8387 58.8055 16.526 59.228 17.1189C59.6048 17.6366 60.1121 18.0453 60.6982 18.3036C61.296 18.5599 61.9407 18.6888 62.5911 18.6821C63.3125 18.6791 64.0276 18.5482 64.7034 18.2957C65.4035 18.0406 66.0573 17.673 66.6389 17.2072L68.1596 19.3841C67.3848 20.0609 66.482 20.5753 65.5047 20.8969C64.5005 21.2126 63.4529 21.368 62.4003 21.3576C61.1045 21.3822 59.8249 21.0673 58.6885 20.4442C57.6131 19.8419 56.7328 18.9442 56.1519 17.8571C55.543 16.7424 55.2385 15.4541 55.2385 13.9923C55.2128 12.6601 55.5168 11.3422 56.1235 10.1559C56.6814 9.07309 57.5353 8.17103 58.5859 7.55462C59.6889 6.92197 60.9428 6.60082 62.2141 6.62548C63.4262 6.60298 64.6199 6.9252 65.6562 7.55462C66.6634 8.1825 67.4736 9.08123 67.994 10.148C68.5726 11.3399 68.8607 12.6519 68.8348 13.9765C68.8316 14.2699 68.8107 14.6501 68.7717 15.117ZM65.7035 12.7934C65.5363 11.7018 65.144 10.8542 64.5267 10.2505C63.9094 9.64687 63.1175 9.34505 62.151 9.34505C61.1088 9.34505 60.2733 9.65424 59.6444 10.2726C59.0155 10.891 58.6138 11.7323 58.4392 12.7966L65.7035 12.7934Z" fill="white"/>
<path d="M83.3429 20.9917H79.587L76.0345 16.1252L72.5278 20.9917H68.9469L74.2235 13.8457L69.0352 6.99157H72.7912L76.2112 11.6688L79.6296 6.99157H83.2404L78.0663 13.8157L83.3429 20.9917Z" fill="white"/>
<path d="M161.881 12.1409V10.5003H159.728V7.98465H157.684V10.5003H156.146V12.1409H157.684V18.3411C157.684 18.9746 157.828 19.5009 158.115 19.9202C158.402 20.3395 158.778 20.6494 159.243 20.8499C159.708 21.0504 160.209 21.1461 160.747 21.137C161.075 21.1324 161.348 21.1051 161.567 21.055C161.786 21.0094 161.954 20.9638 162.073 20.9182L161.704 19.2298C161.635 19.2434 161.54 19.2617 161.417 19.2845C161.293 19.3072 161.15 19.3186 160.986 19.3186C160.763 19.3186 160.555 19.2845 160.364 19.2161C160.177 19.1432 160.024 19.0087 159.906 18.8128C159.787 18.6123 159.728 18.3138 159.728 17.9173V12.1409H161.881Z" fill="white"/>
<path d="M148.369 14.7659V21.0003H146.325V10.5003H148.287V12.2093H148.417C148.659 11.6533 149.037 11.2067 149.552 10.8694C150.071 10.5322 150.725 10.3636 151.514 10.3636C152.229 10.3636 152.856 10.5139 153.394 10.8147C153.931 11.111 154.348 11.553 154.645 12.1409C154.941 12.7288 155.089 13.4557 155.089 14.3216V21.0003H153.045V14.5677C153.045 13.8066 152.847 13.2119 152.45 12.7835C152.054 12.3505 151.509 12.1341 150.816 12.1341C150.342 12.1341 149.921 12.2366 149.552 12.4417C149.187 12.6468 148.898 12.9475 148.684 13.344C148.474 13.736 148.369 14.2099 148.369 14.7659Z" fill="white"/>
<path d="M142.378 10.5003V16.6458C142.383 17.2428 142.257 17.735 142.002 18.1223C141.752 18.5097 141.435 18.7991 141.052 18.9905C140.674 19.1819 140.293 19.2776 139.91 19.2776C139.277 19.2776 138.762 19.0657 138.365 18.6419C137.969 18.218 137.771 17.6484 137.771 16.9329V10.5003H135.727V17.179C135.727 18.0449 135.873 18.7718 136.164 19.3596C136.461 19.9475 136.866 20.3919 137.381 20.6927C137.901 20.9889 138.498 21.137 139.172 21.137C139.961 21.137 140.619 20.9524 141.148 20.5833C141.681 20.2096 142.068 19.7425 142.31 19.1819H142.419V21.0003H144.429V10.5003H142.378Z" fill="white"/>
<path fill-rule="evenodd" clip-rule="evenodd" d="M129.401 21.2122C128.416 21.2122 127.557 20.9866 126.823 20.5354C126.09 20.0843 125.52 19.4531 125.115 18.6419C124.709 17.8307 124.506 16.8828 124.506 15.7981C124.506 14.7089 124.709 13.7565 125.115 12.9407C125.52 12.1249 126.09 11.4915 126.823 11.0403C127.557 10.5891 128.416 10.3636 129.401 10.3636C130.385 10.3636 131.244 10.5891 131.978 11.0403C132.712 11.4915 133.281 12.1249 133.687 12.9407C134.092 13.7565 134.295 14.7089 134.295 15.7981C134.295 16.8828 134.092 17.8307 133.687 18.6419C133.281 19.4531 132.712 20.0843 131.978 20.5354C131.244 20.9866 130.385 21.2122 129.401 21.2122ZM129.407 19.4964C130.045 19.4964 130.574 19.3277 130.993 18.9905C131.413 18.6533 131.723 18.2044 131.923 17.6438C132.128 17.0833 132.231 16.4658 132.231 15.7913C132.231 15.1214 132.128 14.5061 131.923 13.9456C131.723 13.3805 131.413 12.927 130.993 12.5852C130.574 12.2434 130.045 12.0725 129.407 12.0725C128.765 12.0725 128.232 12.2434 127.808 12.5852C127.389 12.927 127.076 13.3805 126.871 13.9456C126.671 14.5061 126.571 15.1214 126.571 15.7913C126.571 16.4658 126.671 17.0833 126.871 17.6438C127.076 18.2044 127.389 18.6533 127.808 18.9905C128.232 19.3277 128.765 19.4964 129.407 19.4964Z" fill="white"/>
<path d="M116.704 20.5218C117.437 20.982 118.312 21.2122 119.329 21.2122C120.158 21.2122 120.88 21.0595 121.496 20.7542C122.115 20.4488 122.61 20.0296 122.979 19.4964C123.348 18.9632 123.569 18.357 123.642 17.678H121.653C121.566 18.0563 121.414 18.3798 121.195 18.6487C120.981 18.9176 120.714 19.1249 120.395 19.2708C120.081 19.4121 119.73 19.4827 119.342 19.4827C118.764 19.4827 118.26 19.33 117.832 19.0247C117.408 18.7194 117.08 18.2887 116.847 17.7327C116.615 17.1767 116.499 16.5159 116.499 15.7503C116.499 15.0029 116.617 14.3557 116.854 13.8089C117.091 13.2574 117.421 12.8336 117.845 12.5374C118.274 12.2366 118.773 12.0862 119.342 12.0862C119.994 12.0862 120.514 12.2639 120.901 12.6194C121.293 12.9749 121.543 13.3987 121.653 13.8909H123.642C123.569 13.1845 123.339 12.567 122.952 12.0384C122.569 11.5097 122.065 11.0996 121.441 10.8079C120.817 10.5117 120.106 10.3636 119.308 10.3636C118.319 10.3636 117.46 10.5937 116.731 11.054C116.002 11.5143 115.437 12.1546 115.036 12.9749C114.635 13.7906 114.434 14.7317 114.434 15.7981C114.434 16.8509 114.63 17.7851 115.022 18.6009C115.414 19.4166 115.974 20.0569 116.704 20.5218Z" fill="white"/>
<path d="M109.256 21.2122C108.24 21.2122 107.365 20.982 106.631 20.5218C105.902 20.0569 105.342 19.4166 104.95 18.6009C104.558 17.7851 104.362 16.8509 104.362 15.7981C104.362 14.7317 104.562 13.7906 104.963 12.9749C105.364 12.1546 105.93 11.5143 106.659 11.054C107.388 10.5937 108.247 10.3636 109.236 10.3636C110.033 10.3636 110.744 10.5117 111.369 10.8079C111.993 11.0996 112.497 11.5097 112.879 12.0384C113.267 12.567 113.497 13.1845 113.57 13.8909H111.581C111.471 13.3987 111.221 12.9749 110.829 12.6194C110.441 12.2639 109.922 12.0862 109.27 12.0862C108.7 12.0862 108.201 12.2366 107.773 12.5374C107.349 12.8336 107.019 13.2574 106.782 13.8089C106.545 14.3557 106.426 15.0029 106.426 15.7503C106.426 16.5159 106.542 17.1767 106.775 17.7327C107.007 18.2887 107.335 18.7194 107.759 19.0247C108.188 19.33 108.691 19.4827 109.27 19.4827C109.657 19.4827 110.008 19.4121 110.323 19.2708C110.642 19.1249 110.908 18.9176 111.123 18.6487C111.341 18.3798 111.494 18.0563 111.581 17.678H113.57C113.497 18.357 113.276 18.9632 112.907 19.4964C112.538 20.0296 112.043 20.4488 111.423 20.7542C110.808 21.0595 110.086 21.2122 109.256 21.2122Z" fill="white"/>
<path fill-rule="evenodd" clip-rule="evenodd" d="M91.4785 21.0003H93.7207L95.0029 17.2952H100.473L101.753 21.0003H103.995L98.957 7.00027H96.5166L91.4785 21.0003ZM99.8589 15.5179L97.7949 9.54324H97.6855L95.618 15.5179H99.8589Z" fill="white"/>
</svg>
