<svg width="239" height="77" viewBox="0 0 239 77" fill="none" xmlns="http://www.w3.org/2000/svg">
<path d="M14.5092 28.7768C15.1607 31.1044 16.0484 33.3569 17.1582 35.4979C17.6649 36.4459 18.1717 37.3939 19.092 37.9911C19.2515 38.0929 19.4272 38.1657 19.6113 38.206C20.9668 38.4999 21.71 37.3907 22.1888 36.3764C22.9033 34.7849 23.4806 33.1335 23.9143 31.4406C23.9983 31.1246 24.0791 30.8086 24.1599 30.4926C24.3154 29.8891 24.4708 29.2792 24.6045 28.6693L30.5865 12.4274C31.8291 10.7454 33.44 9.38057 35.2915 8.44104C37.143 7.5015 39.1845 7.01306 41.2539 7.01441C44.234 6.99577 47.1314 8.01004 49.4682 9.88994C53.3795 12.8982 55.7083 18.823 55.7083 18.823C56.0478 19.5944 56.2225 20.4301 56.2213 21.2751C56.2197 22.0578 56.0664 22.8324 55.7701 23.5548C55.4741 24.2772 55.0407 24.9333 54.4951 25.4855C53.9494 26.0378 53.3021 26.4753 52.5901 26.7733C51.8781 27.0713 51.1151 27.2238 50.345 27.2221C49.4887 27.2215 48.6427 27.0296 47.8676 26.6599C47.0922 26.2902 46.4063 25.7519 45.8585 25.0828L45.8026 25.0133C45.4267 24.4975 45.1133 23.9373 44.8698 23.3449C44.5474 22.6013 44.1861 21.8756 43.7878 21.1709C43.5764 20.8075 43.3401 20.463 43.0976 20.1218C42.8881 19.8167 42.6403 19.5406 42.3607 19.3002C41.8104 18.8483 41.1171 18.6682 40.4704 19.0569C40.4393 19.075 40.4091 19.0951 40.3802 19.1169C39.7149 19.5814 39.2485 20.5199 38.9251 21.2404C37.9924 23.2817 37.4576 25.3735 36.9291 27.5223C36.8296 27.9362 36.7301 28.3502 36.6368 28.7673L34.1651 36.9831L30.6798 44.7944C29.432 46.4309 27.8351 47.7584 26.0095 48.677C24.1838 49.5953 22.1769 50.0809 20.1398 50.0967C11.6736 50.28 7.65664 42.5129 7.65664 42.5129C2.83439 34.4741 1.41351 23.8694 1.07462 20.4788C1.00311 19.7742 1 19.3539 1 19.3539C0.999608 18.2919 1.28466 17.2499 1.82438 16.3405C2.36411 15.4311 3.138 14.6888 4.0625 14.1937C5.01842 13.7015 6.08218 13.4654 7.15299 13.508C8.14922 13.5504 9.11853 13.8494 9.96987 14.377C10.6314 14.7794 11.2032 15.3175 11.6488 15.957C12.4447 17.1072 12.625 18.5386 12.7836 19.9069C13.1129 22.9075 13.6901 25.8746 14.5092 28.7768Z" fill="url(#paint0_linear_13250_6169)"/>
<path d="M14.5092 28.7768C15.1607 31.1044 16.0484 33.3569 17.1582 35.4979C17.6649 36.4459 18.1717 37.3939 19.092 37.9911C19.2515 38.0929 19.4272 38.1657 19.6113 38.206C20.9668 38.4999 21.71 37.3907 22.1888 36.3764C22.9033 34.7849 23.4806 33.1335 23.9143 31.4406C23.9983 31.1246 24.0791 30.8086 24.1599 30.4926C24.3154 29.8891 24.4708 29.2792 24.6045 28.6693L30.5865 12.4274C31.8291 10.7454 33.44 9.38057 35.2915 8.44104C37.143 7.5015 39.1845 7.01306 41.2539 7.01441C44.234 6.99577 47.1314 8.01004 49.4682 9.88994C53.3795 12.8982 55.7083 18.823 55.7083 18.823C56.0478 19.5944 56.2225 20.4301 56.2213 21.2751C56.2197 22.0578 56.0664 22.8324 55.7701 23.5548C55.4741 24.2772 55.0407 24.9333 54.4951 25.4855C53.9494 26.0378 53.3021 26.4753 52.5901 26.7733C51.8781 27.0713 51.1151 27.2238 50.345 27.2221C49.4887 27.2215 48.6427 27.0296 47.8676 26.6599C47.0922 26.2902 46.4063 25.7519 45.8585 25.0828L45.8026 25.0133C45.4267 24.4975 45.1133 23.9373 44.8698 23.3449C44.5474 22.6013 44.1861 21.8756 43.7878 21.1709C43.5764 20.8075 43.3401 20.463 43.0976 20.1218C42.8881 19.8167 42.6403 19.5406 42.3607 19.3002C41.8104 18.8483 41.1171 18.6682 40.4704 19.0569C40.4393 19.075 40.4091 19.0951 40.3802 19.1169C39.7149 19.5814 39.2485 20.5199 38.9251 21.2404C37.9924 23.2817 37.4576 25.3735 36.9291 27.5223C36.8296 27.9362 36.7301 28.3502 36.6368 28.7673L34.1651 36.9831L30.6798 44.7944C29.432 46.4309 27.8351 47.7584 26.0095 48.677C24.1838 49.5953 22.1769 50.0809 20.1398 50.0967C11.6736 50.28 7.65664 42.5129 7.65664 42.5129C2.83439 34.4741 1.41351 23.8694 1.07462 20.4788C1.00311 19.7742 1 19.3539 1 19.3539C0.999608 18.2919 1.28466 17.2499 1.82438 16.3405C2.36411 15.4311 3.138 14.6888 4.0625 14.1937C5.01842 13.7015 6.08218 13.4654 7.15299 13.508C8.14922 13.5504 9.11853 13.8494 9.96987 14.377C10.6314 14.7794 11.2032 15.3175 11.6488 15.957C12.4447 17.1072 12.625 18.5386 12.7836 19.9069C13.1129 22.9075 13.6901 25.8746 14.5092 28.7768Z" fill="url(#paint1_radial_13250_6169)"/>
<path d="M14.5092 28.7768C15.1607 31.1044 16.0484 33.3569 17.1582 35.4979C17.6649 36.4459 18.1717 37.3939 19.092 37.9911C19.2515 38.0929 19.4272 38.1657 19.6113 38.206C20.9668 38.4999 21.71 37.3907 22.1888 36.3764C22.9033 34.7849 23.4806 33.1335 23.9143 31.4406C23.9983 31.1246 24.0791 30.8086 24.1599 30.4926C24.3154 29.8891 24.4708 29.2792 24.6045 28.6693L30.5865 12.4274C31.8291 10.7454 33.44 9.38057 35.2915 8.44104C37.143 7.5015 39.1845 7.01306 41.2539 7.01441C44.234 6.99577 47.1314 8.01004 49.4682 9.88994C53.3795 12.8982 55.7083 18.823 55.7083 18.823C56.0478 19.5944 56.2225 20.4301 56.2213 21.2751C56.2197 22.0578 56.0664 22.8324 55.7701 23.5548C55.4741 24.2772 55.0407 24.9333 54.4951 25.4855C53.9494 26.0378 53.3021 26.4753 52.5901 26.7733C51.8781 27.0713 51.1151 27.2238 50.345 27.2221C49.4887 27.2215 48.6427 27.0296 47.8676 26.6599C47.0922 26.2902 46.4063 25.7519 45.8585 25.0828L45.8026 25.0133C45.4267 24.4975 45.1133 23.9373 44.8698 23.3449C44.5474 22.6013 44.1861 21.8756 43.7878 21.1709C43.5764 20.8075 43.3401 20.463 43.0976 20.1218C42.8881 19.8167 42.6403 19.5406 42.3607 19.3002C41.8104 18.8483 41.1171 18.6682 40.4704 19.0569C40.4393 19.075 40.4091 19.0951 40.3802 19.1169C39.7149 19.5814 39.2485 20.5199 38.9251 21.2404C37.9924 23.2817 37.4576 25.3735 36.9291 27.5223C36.8296 27.9362 36.7301 28.3502 36.6368 28.7673L34.1651 36.9831L30.6798 44.7944C29.432 46.4309 27.8351 47.7584 26.0095 48.677C24.1838 49.5953 22.1769 50.0809 20.1398 50.0967C11.6736 50.28 7.65664 42.5129 7.65664 42.5129C2.83439 34.4741 1.41351 23.8694 1.07462 20.4788C1.00311 19.7742 1 19.3539 1 19.3539C0.999608 18.2919 1.28466 17.2499 1.82438 16.3405C2.36411 15.4311 3.138 14.6888 4.0625 14.1937C5.01842 13.7015 6.08218 13.4654 7.15299 13.508C8.14922 13.5504 9.11853 13.8494 9.96987 14.377C10.6314 14.7794 11.2032 15.3175 11.6488 15.957C12.4447 17.1072 12.625 18.5386 12.7836 19.9069C13.1129 22.9075 13.6901 25.8746 14.5092 28.7768Z" fill="url(#paint2_radial_13250_6169)"/>
<path d="M14.5092 28.7768C15.1607 31.1044 16.0484 33.3569 17.1582 35.4979C17.6649 36.4459 18.1717 37.3939 19.092 37.9911C19.2515 38.0929 19.4272 38.1657 19.6113 38.206C20.9668 38.4999 21.71 37.3907 22.1888 36.3764C22.9033 34.7849 23.4806 33.1335 23.9143 31.4406C23.9983 31.1246 24.0791 30.8086 24.1599 30.4926C24.3154 29.8891 24.4708 29.2792 24.6045 28.6693L30.5865 12.4274C31.8291 10.7454 33.44 9.38057 35.2915 8.44104C37.143 7.5015 39.1845 7.01306 41.2539 7.01441C44.234 6.99577 47.1314 8.01004 49.4682 9.88994C53.3795 12.8982 55.7083 18.823 55.7083 18.823C56.0478 19.5944 56.2225 20.4301 56.2213 21.2751C56.2197 22.0578 56.0664 22.8324 55.7701 23.5548C55.4741 24.2772 55.0407 24.9333 54.4951 25.4855C53.9494 26.0378 53.3021 26.4753 52.5901 26.7733C51.8781 27.0713 51.1151 27.2238 50.345 27.2221C49.4887 27.2215 48.6427 27.0296 47.8676 26.6599C47.0922 26.2902 46.4063 25.7519 45.8585 25.0828L45.8026 25.0133C45.4267 24.4975 45.1133 23.9373 44.8698 23.3449C44.5474 22.6013 44.1861 21.8756 43.7878 21.1709C43.5764 20.8075 43.3401 20.463 43.0976 20.1218C42.8881 19.8167 42.6403 19.5406 42.3607 19.3002C41.8104 18.8483 41.1171 18.6682 40.4704 19.0569C40.4393 19.075 40.4091 19.0951 40.3802 19.1169C39.7149 19.5814 39.2485 20.5199 38.9251 21.2404C37.9924 23.2817 37.4576 25.3735 36.9291 27.5223C36.8296 27.9362 36.7301 28.3502 36.6368 28.7673L34.1651 36.9831L30.6798 44.7944C29.432 46.4309 27.8351 47.7584 26.0095 48.677C24.1838 49.5953 22.1769 50.0809 20.1398 50.0967C11.6736 50.28 7.65664 42.5129 7.65664 42.5129C2.83439 34.4741 1.41351 23.8694 1.07462 20.4788C1.00311 19.7742 1 19.3539 1 19.3539C0.999608 18.2919 1.28466 17.2499 1.82438 16.3405C2.36411 15.4311 3.138 14.6888 4.0625 14.1937C5.01842 13.7015 6.08218 13.4654 7.15299 13.508C8.14922 13.5504 9.11853 13.8494 9.96987 14.377C10.6314 14.7794 11.2032 15.3175 11.6488 15.957C12.4447 17.1072 12.625 18.5386 12.7836 19.9069C13.1129 22.9075 13.6901 25.8746 14.5092 28.7768Z" fill="url(#paint3_radial_13250_6169)"/>
<path d="M14.5092 28.7768C15.1607 31.1044 16.0484 33.3569 17.1582 35.4979C17.6649 36.4459 18.1717 37.3939 19.092 37.9911C19.2515 38.0929 19.4272 38.1657 19.6113 38.206C20.9668 38.4999 21.71 37.3907 22.1888 36.3764C22.9033 34.7849 23.4806 33.1335 23.9143 31.4406C23.9983 31.1246 24.0791 30.8086 24.1599 30.4926C24.3154 29.8891 24.4708 29.2792 24.6045 28.6693L30.5865 12.4274C31.8291 10.7454 33.44 9.38057 35.2915 8.44104C37.143 7.5015 39.1845 7.01306 41.2539 7.01441C44.234 6.99577 47.1314 8.01004 49.4682 9.88994C53.3795 12.8982 55.7083 18.823 55.7083 18.823C56.0478 19.5944 56.2225 20.4301 56.2213 21.2751C56.2197 22.0578 56.0664 22.8324 55.7701 23.5548C55.4741 24.2772 55.0407 24.9333 54.4951 25.4855C53.9494 26.0378 53.3021 26.4753 52.5901 26.7733C51.8781 27.0713 51.1151 27.2238 50.345 27.2221C49.4887 27.2215 48.6427 27.0296 47.8676 26.6599C47.0922 26.2902 46.4063 25.7519 45.8585 25.0828L45.8026 25.0133C45.4267 24.4975 45.1133 23.9373 44.8698 23.3449C44.5474 22.6013 44.1861 21.8756 43.7878 21.1709C43.5764 20.8075 43.3401 20.463 43.0976 20.1218C42.8881 19.8167 42.6403 19.5406 42.3607 19.3002C41.8104 18.8483 41.1171 18.6682 40.4704 19.0569C40.4393 19.075 40.4091 19.0951 40.3802 19.1169C39.7149 19.5814 39.2485 20.5199 38.9251 21.2404C37.9924 23.2817 37.4576 25.3735 36.9291 27.5223C36.8296 27.9362 36.7301 28.3502 36.6368 28.7673L34.1651 36.9831L30.6798 44.7944C29.432 46.4309 27.8351 47.7584 26.0095 48.677C24.1838 49.5953 22.1769 50.0809 20.1398 50.0967C11.6736 50.28 7.65664 42.5129 7.65664 42.5129C2.83439 34.4741 1.41351 23.8694 1.07462 20.4788C1.00311 19.7742 1 19.3539 1 19.3539C0.999608 18.2919 1.28466 17.2499 1.82438 16.3405C2.36411 15.4311 3.138 14.6888 4.0625 14.1937C5.01842 13.7015 6.08218 13.4654 7.15299 13.508C8.14922 13.5504 9.11853 13.8494 9.96987 14.377C10.6314 14.7794 11.2032 15.3175 11.6488 15.957C12.4447 17.1072 12.625 18.5386 12.7836 19.9069C13.1129 22.9075 13.6901 25.8746 14.5092 28.7768Z" fill="url(#paint4_radial_13250_6169)"/>
<path d="M14.5092 28.7768C15.1607 31.1044 16.0484 33.3569 17.1582 35.4979C17.6649 36.4459 18.1717 37.3939 19.092 37.9911C19.2515 38.0929 19.4272 38.1657 19.6113 38.206C20.9668 38.4999 21.71 37.3907 22.1888 36.3764C22.9033 34.7849 23.4806 33.1335 23.9143 31.4406C23.9983 31.1246 24.0791 30.8086 24.1599 30.4926C24.3154 29.8891 24.4708 29.2792 24.6045 28.6693L30.5865 12.4274C31.8291 10.7454 33.44 9.38057 35.2915 8.44104C37.143 7.5015 39.1845 7.01306 41.2539 7.01441C44.234 6.99577 47.1314 8.01004 49.4682 9.88994C53.3795 12.8982 55.7083 18.823 55.7083 18.823C56.0478 19.5944 56.2225 20.4301 56.2213 21.2751C56.2197 22.0578 56.0664 22.8324 55.7701 23.5548C55.4741 24.2772 55.0407 24.9333 54.4951 25.4855C53.9494 26.0378 53.3021 26.4753 52.5901 26.7733C51.8781 27.0713 51.1151 27.2238 50.345 27.2221C49.4887 27.2215 48.6427 27.0296 47.8676 26.6599C47.0922 26.2902 46.4063 25.7519 45.8585 25.0828L45.8026 25.0133C45.4267 24.4975 45.1133 23.9373 44.8698 23.3449C44.5474 22.6013 44.1861 21.8756 43.7878 21.1709C43.5764 20.8075 43.3401 20.463 43.0976 20.1218C42.8881 19.8167 42.6403 19.5406 42.3607 19.3002C41.8104 18.8483 41.1171 18.6682 40.4704 19.0569C40.4393 19.075 40.4091 19.0951 40.3802 19.1169C39.7149 19.5814 39.2485 20.5199 38.9251 21.2404C37.9924 23.2817 37.4576 25.3735 36.9291 27.5223C36.8296 27.9362 36.7301 28.3502 36.6368 28.7673L34.1651 36.9831L30.6798 44.7944C29.432 46.4309 27.8351 47.7584 26.0095 48.677C24.1838 49.5953 22.1769 50.0809 20.1398 50.0967C11.6736 50.28 7.65664 42.5129 7.65664 42.5129C2.83439 34.4741 1.41351 23.8694 1.07462 20.4788C1.00311 19.7742 1 19.3539 1 19.3539C0.999608 18.2919 1.28466 17.2499 1.82438 16.3405C2.36411 15.4311 3.138 14.6888 4.0625 14.1937C5.01842 13.7015 6.08218 13.4654 7.15299 13.508C8.14922 13.5504 9.11853 13.8494 9.96987 14.377C10.6314 14.7794 11.2032 15.3175 11.6488 15.957C12.4447 17.1072 12.625 18.5386 12.7836 19.9069C13.1129 22.9075 13.6901 25.8746 14.5092 28.7768Z" fill="url(#paint5_radial_13250_6169)"/>
<path d="M14.5092 28.7768C15.1607 31.1044 16.0484 33.3569 17.1582 35.4979C17.6649 36.4459 18.1717 37.3939 19.092 37.9911C19.2515 38.0929 19.4272 38.1657 19.6113 38.206C20.9668 38.4999 21.71 37.3907 22.1888 36.3764C22.9033 34.7849 23.4806 33.1335 23.9143 31.4406C23.9983 31.1246 24.0791 30.8086 24.1599 30.4926C24.3154 29.8891 24.4708 29.2792 24.6045 28.6693L30.5865 12.4274C31.8291 10.7454 33.44 9.38057 35.2915 8.44104C37.143 7.5015 39.1845 7.01306 41.2539 7.01441C44.234 6.99577 47.1314 8.01004 49.4682 9.88994C53.3795 12.8982 55.7083 18.823 55.7083 18.823C56.0478 19.5944 56.2225 20.4301 56.2213 21.2751C56.2197 22.0578 56.0664 22.8324 55.7701 23.5548C55.4741 24.2772 55.0407 24.9333 54.4951 25.4855C53.9494 26.0378 53.3021 26.4753 52.5901 26.7733C51.8781 27.0713 51.1151 27.2238 50.345 27.2221C49.4887 27.2215 48.6427 27.0296 47.8676 26.6599C47.0922 26.2902 46.4063 25.7519 45.8585 25.0828L45.8026 25.0133C45.4267 24.4975 45.1133 23.9373 44.8698 23.3449C44.5474 22.6013 44.1861 21.8756 43.7878 21.1709C43.5764 20.8075 43.3401 20.463 43.0976 20.1218C42.8881 19.8167 42.6403 19.5406 42.3607 19.3002C41.8104 18.8483 41.1171 18.6682 40.4704 19.0569C40.4393 19.075 40.4091 19.0951 40.3802 19.1169C39.7149 19.5814 39.2485 20.5199 38.9251 21.2404C37.9924 23.2817 37.4576 25.3735 36.9291 27.5223C36.8296 27.9362 36.7301 28.3502 36.6368 28.7673L34.1651 36.9831L30.6798 44.7944C29.432 46.4309 27.8351 47.7584 26.0095 48.677C24.1838 49.5953 22.1769 50.0809 20.1398 50.0967C11.6736 50.28 7.65664 42.5129 7.65664 42.5129C2.83439 34.4741 1.41351 23.8694 1.07462 20.4788C1.00311 19.7742 1 19.3539 1 19.3539C0.999608 18.2919 1.28466 17.2499 1.82438 16.3405C2.36411 15.4311 3.138 14.6888 4.0625 14.1937C5.01842 13.7015 6.08218 13.4654 7.15299 13.508C8.14922 13.5504 9.11853 13.8494 9.96987 14.377C10.6314 14.7794 11.2032 15.3175 11.6488 15.957C12.4447 17.1072 12.625 18.5386 12.7836 19.9069C13.1129 22.9075 13.6901 25.8746 14.5092 28.7768Z" fill="url(#paint6_radial_13250_6169)"/>
<path d="M14.5092 28.7768C15.1607 31.1044 16.0484 33.3569 17.1582 35.4979C17.6649 36.4459 18.1717 37.3939 19.092 37.9911C19.2515 38.0929 19.4272 38.1657 19.6113 38.206C20.9668 38.4999 21.71 37.3907 22.1888 36.3764C22.9033 34.7849 23.4806 33.1335 23.9143 31.4406C23.9983 31.1246 24.0791 30.8086 24.1599 30.4926C24.3154 29.8891 24.4708 29.2792 24.6045 28.6693L30.5865 12.4274C31.8291 10.7454 33.44 9.38057 35.2915 8.44104C37.143 7.5015 39.1845 7.01306 41.2539 7.01441C44.234 6.99577 47.1314 8.01004 49.4682 9.88994C53.3795 12.8982 55.7083 18.823 55.7083 18.823C56.0478 19.5944 56.2225 20.4301 56.2213 21.2751C56.2197 22.0578 56.0664 22.8324 55.7701 23.5548C55.4741 24.2772 55.0407 24.9333 54.4951 25.4855C53.9494 26.0378 53.3021 26.4753 52.5901 26.7733C51.8781 27.0713 51.1151 27.2238 50.345 27.2221C49.4887 27.2215 48.6427 27.0296 47.8676 26.6599C47.0922 26.2902 46.4063 25.7519 45.8585 25.0828L45.8026 25.0133C45.4267 24.4975 45.1133 23.9373 44.8698 23.3449C44.5474 22.6013 44.1861 21.8756 43.7878 21.1709C43.5764 20.8075 43.3401 20.463 43.0976 20.1218C42.8881 19.8167 42.6403 19.5406 42.3607 19.3002C41.8104 18.8483 41.1171 18.6682 40.4704 19.0569C40.4393 19.075 40.4091 19.0951 40.3802 19.1169C39.7149 19.5814 39.2485 20.5199 38.9251 21.2404C37.9924 23.2817 37.4576 25.3735 36.9291 27.5223C36.8296 27.9362 36.7301 28.3502 36.6368 28.7673L34.1651 36.9831L30.6798 44.7944C29.432 46.4309 27.8351 47.7584 26.0095 48.677C24.1838 49.5953 22.1769 50.0809 20.1398 50.0967C11.6736 50.28 7.65664 42.5129 7.65664 42.5129C2.83439 34.4741 1.41351 23.8694 1.07462 20.4788C1.00311 19.7742 1 19.3539 1 19.3539C0.999608 18.2919 1.28466 17.2499 1.82438 16.3405C2.36411 15.4311 3.138 14.6888 4.0625 14.1937C5.01842 13.7015 6.08218 13.4654 7.15299 13.508C8.14922 13.5504 9.11853 13.8494 9.96987 14.377C10.6314 14.7794 11.2032 15.3175 11.6488 15.957C12.4447 17.1072 12.625 18.5386 12.7836 19.9069C13.1129 22.9075 13.6901 25.8746 14.5092 28.7768Z" fill="url(#paint7_radial_13250_6169)"/>
<path d="M14.5092 28.7768C15.1607 31.1044 16.0484 33.3569 17.1582 35.4979C17.6649 36.4459 18.1717 37.3939 19.092 37.9911C19.2515 38.0929 19.4272 38.1657 19.6113 38.206C20.9668 38.4999 21.71 37.3907 22.1888 36.3764C22.9033 34.7849 23.4806 33.1335 23.9143 31.4406C23.9983 31.1246 24.0791 30.8086 24.1599 30.4926C24.3154 29.8891 24.4708 29.2792 24.6045 28.6693L30.5865 12.4274C31.8291 10.7454 33.44 9.38057 35.2915 8.44104C37.143 7.5015 39.1845 7.01306 41.2539 7.01441C44.234 6.99577 47.1314 8.01004 49.4682 9.88994C53.3795 12.8982 55.7083 18.823 55.7083 18.823C56.0478 19.5944 56.2225 20.4301 56.2213 21.2751C56.2197 22.0578 56.0664 22.8324 55.7701 23.5548C55.4741 24.2772 55.0407 24.9333 54.4951 25.4855C53.9494 26.0378 53.3021 26.4753 52.5901 26.7733C51.8781 27.0713 51.1151 27.2238 50.345 27.2221C49.4887 27.2215 48.6427 27.0296 47.8676 26.6599C47.0922 26.2902 46.4063 25.7519 45.8585 25.0828L45.8026 25.0133C45.4267 24.4975 45.1133 23.9373 44.8698 23.3449C44.5474 22.6013 44.1861 21.8756 43.7878 21.1709C43.5764 20.8075 43.3401 20.463 43.0976 20.1218C42.8881 19.8167 42.6403 19.5406 42.3607 19.3002C41.8104 18.8483 41.1171 18.6682 40.4704 19.0569C40.4393 19.075 40.4091 19.0951 40.3802 19.1169C39.7149 19.5814 39.2485 20.5199 38.9251 21.2404C37.9924 23.2817 37.4576 25.3735 36.9291 27.5223C36.8296 27.9362 36.7301 28.3502 36.6368 28.7673L34.1651 36.9831L30.6798 44.7944C29.432 46.4309 27.8351 47.7584 26.0095 48.677C24.1838 49.5953 22.1769 50.0809 20.1398 50.0967C11.6736 50.28 7.65664 42.5129 7.65664 42.5129C2.83439 34.4741 1.41351 23.8694 1.07462 20.4788C1.00311 19.7742 1 19.3539 1 19.3539C0.999608 18.2919 1.28466 17.2499 1.82438 16.3405C2.36411 15.4311 3.138 14.6888 4.0625 14.1937C5.01842 13.7015 6.08218 13.4654 7.15299 13.508C8.14922 13.5504 9.11853 13.8494 9.96987 14.377C10.6314 14.7794 11.2032 15.3175 11.6488 15.957C12.4447 17.1072 12.625 18.5386 12.7836 19.9069C13.1129 22.9075 13.6901 25.8746 14.5092 28.7768Z" fill="url(#paint8_radial_13250_6169)"/>
<path d="M14.5092 28.7768C15.1607 31.1044 16.0484 33.3569 17.1582 35.4979C17.6649 36.4459 18.1717 37.3939 19.092 37.9911C19.2515 38.0929 19.4272 38.1657 19.6113 38.206C20.9668 38.4999 21.71 37.3907 22.1888 36.3764C22.9033 34.7849 23.4806 33.1335 23.9143 31.4406C23.9983 31.1246 24.0791 30.8086 24.1599 30.4926C24.3154 29.8891 24.4708 29.2792 24.6045 28.6693L30.5865 12.4274C31.8291 10.7454 33.44 9.38057 35.2915 8.44104C37.143 7.5015 39.1845 7.01306 41.2539 7.01441C44.234 6.99577 47.1314 8.01004 49.4682 9.88994C53.3795 12.8982 55.7083 18.823 55.7083 18.823C56.0478 19.5944 56.2225 20.4301 56.2213 21.2751C56.2197 22.0578 56.0664 22.8324 55.7701 23.5548C55.4741 24.2772 55.0407 24.9333 54.4951 25.4855C53.9494 26.0378 53.3021 26.4753 52.5901 26.7733C51.8781 27.0713 51.1151 27.2238 50.345 27.2221C49.4887 27.2215 48.6427 27.0296 47.8676 26.6599C47.0922 26.2902 46.4063 25.7519 45.8585 25.0828L45.8026 25.0133C45.4267 24.4975 45.1133 23.9373 44.8698 23.3449C44.5474 22.6013 44.1861 21.8756 43.7878 21.1709C43.5764 20.8075 43.3401 20.463 43.0976 20.1218C42.8881 19.8167 42.6403 19.5406 42.3607 19.3002C41.8104 18.8483 41.1171 18.6682 40.4704 19.0569C40.4393 19.075 40.4091 19.0951 40.3802 19.1169C39.7149 19.5814 39.2485 20.5199 38.9251 21.2404C37.9924 23.2817 37.4576 25.3735 36.9291 27.5223C36.8296 27.9362 36.7301 28.3502 36.6368 28.7673L34.1651 36.9831L30.6798 44.7944C29.432 46.4309 27.8351 47.7584 26.0095 48.677C24.1838 49.5953 22.1769 50.0809 20.1398 50.0967C11.6736 50.28 7.65664 42.5129 7.65664 42.5129C2.83439 34.4741 1.41351 23.8694 1.07462 20.4788C1.00311 19.7742 1 19.3539 1 19.3539C0.999608 18.2919 1.28466 17.2499 1.82438 16.3405C2.36411 15.4311 3.138 14.6888 4.0625 14.1937C5.01842 13.7015 6.08218 13.4654 7.15299 13.508C8.14922 13.5504 9.11853 13.8494 9.96987 14.377C10.6314 14.7794 11.2032 15.3175 11.6488 15.957C12.4447 17.1072 12.625 18.5386 12.7836 19.9069C13.1129 22.9075 13.6901 25.8746 14.5092 28.7768Z" fill="url(#paint9_radial_13250_6169)"/>
<path d="M14.5092 28.7768C15.1607 31.1044 16.0484 33.3569 17.1582 35.4979C17.6649 36.4459 18.1717 37.3939 19.092 37.9911C19.2515 38.0929 19.4272 38.1657 19.6113 38.206C20.9668 38.4999 21.71 37.3907 22.1888 36.3764C22.9033 34.7849 23.4806 33.1335 23.9143 31.4406C23.9983 31.1246 24.0791 30.8086 24.1599 30.4926C24.3154 29.8891 24.4708 29.2792 24.6045 28.6693L30.5865 12.4274C31.8291 10.7454 33.44 9.38057 35.2915 8.44104C37.143 7.5015 39.1845 7.01306 41.2539 7.01441C44.234 6.99577 47.1314 8.01004 49.4682 9.88994C53.3795 12.8982 55.7083 18.823 55.7083 18.823C56.0478 19.5944 56.2225 20.4301 56.2213 21.2751C56.2197 22.0578 56.0664 22.8324 55.7701 23.5548C55.4741 24.2772 55.0407 24.9333 54.4951 25.4855C53.9494 26.0378 53.3021 26.4753 52.5901 26.7733C51.8781 27.0713 51.1151 27.2238 50.345 27.2221C49.4887 27.2215 48.6427 27.0296 47.8676 26.6599C47.0922 26.2902 46.4063 25.7519 45.8585 25.0828L45.8026 25.0133C45.4267 24.4975 45.1133 23.9373 44.8698 23.3449C44.5474 22.6013 44.1861 21.8756 43.7878 21.1709C43.5764 20.8075 43.3401 20.463 43.0976 20.1218C42.8881 19.8167 42.6403 19.5406 42.3607 19.3002C41.8104 18.8483 41.1171 18.6682 40.4704 19.0569C40.4393 19.075 40.4091 19.0951 40.3802 19.1169C39.7149 19.5814 39.2485 20.5199 38.9251 21.2404C37.9924 23.2817 37.4576 25.3735 36.9291 27.5223C36.8296 27.9362 36.7301 28.3502 36.6368 28.7673L34.1651 36.9831L30.6798 44.7944C29.432 46.4309 27.8351 47.7584 26.0095 48.677C24.1838 49.5953 22.1769 50.0809 20.1398 50.0967C11.6736 50.28 7.65664 42.5129 7.65664 42.5129C2.83439 34.4741 1.41351 23.8694 1.07462 20.4788C1.00311 19.7742 1 19.3539 1 19.3539C0.999608 18.2919 1.28466 17.2499 1.82438 16.3405C2.36411 15.4311 3.138 14.6888 4.0625 14.1937C5.01842 13.7015 6.08218 13.4654 7.15299 13.508C8.14922 13.5504 9.11853 13.8494 9.96987 14.377C10.6314 14.7794 11.2032 15.3175 11.6488 15.957C12.4447 17.1072 12.625 18.5386 12.7836 19.9069C13.1129 22.9075 13.6901 25.8746 14.5092 28.7768Z" fill="url(#paint10_radial_13250_6169)"/>
<path d="M14.5092 28.7768C15.1607 31.1044 16.0484 33.3569 17.1582 35.4979C17.6649 36.4459 18.1717 37.3939 19.092 37.9911C19.2515 38.0929 19.4272 38.1657 19.6113 38.206C20.9668 38.4999 21.71 37.3907 22.1888 36.3764C22.9033 34.7849 23.4806 33.1335 23.9143 31.4406C23.9983 31.1246 24.0791 30.8086 24.1599 30.4926C24.3154 29.8891 24.4708 29.2792 24.6045 28.6693L30.5865 12.4274C31.8291 10.7454 33.44 9.38057 35.2915 8.44104C37.143 7.5015 39.1845 7.01306 41.2539 7.01441C44.234 6.99577 47.1314 8.01004 49.4682 9.88994C53.3795 12.8982 55.7083 18.823 55.7083 18.823C56.0478 19.5944 56.2225 20.4301 56.2213 21.2751C56.2197 22.0578 56.0664 22.8324 55.7701 23.5548C55.4741 24.2772 55.0407 24.9333 54.4951 25.4855C53.9494 26.0378 53.3021 26.4753 52.5901 26.7733C51.8781 27.0713 51.1151 27.2238 50.345 27.2221C49.4887 27.2215 48.6427 27.0296 47.8676 26.6599C47.0922 26.2902 46.4063 25.7519 45.8585 25.0828L45.8026 25.0133C45.4267 24.4975 45.1133 23.9373 44.8698 23.3449C44.5474 22.6013 44.1861 21.8756 43.7878 21.1709C43.5764 20.8075 43.3401 20.463 43.0976 20.1218C42.8881 19.8167 42.6403 19.5406 42.3607 19.3002C41.8104 18.8483 41.1171 18.6682 40.4704 19.0569C40.4393 19.075 40.4091 19.0951 40.3802 19.1169C39.7149 19.5814 39.2485 20.5199 38.9251 21.2404C37.9924 23.2817 37.4576 25.3735 36.9291 27.5223C36.8296 27.9362 36.7301 28.3502 36.6368 28.7673L34.1651 36.9831L30.6798 44.7944C29.432 46.4309 27.8351 47.7584 26.0095 48.677C24.1838 49.5953 22.1769 50.0809 20.1398 50.0967C11.6736 50.28 7.65664 42.5129 7.65664 42.5129C2.83439 34.4741 1.41351 23.8694 1.07462 20.4788C1.00311 19.7742 1 19.3539 1 19.3539C0.999608 18.2919 1.28466 17.2499 1.82438 16.3405C2.36411 15.4311 3.138 14.6888 4.0625 14.1937C5.01842 13.7015 6.08218 13.4654 7.15299 13.508C8.14922 13.5504 9.11853 13.8494 9.96987 14.377C10.6314 14.7794 11.2032 15.3175 11.6488 15.957C12.4447 17.1072 12.625 18.5386 12.7836 19.9069C13.1129 22.9075 13.6901 25.8746 14.5092 28.7768Z" fill="url(#paint11_radial_13250_6169)"/>
<path d="M14.5092 28.7768C15.1607 31.1044 16.0484 33.3569 17.1582 35.4979C17.6649 36.4459 18.1717 37.3939 19.092 37.9911C19.2515 38.0929 19.4272 38.1657 19.6113 38.206C20.9668 38.4999 21.71 37.3907 22.1888 36.3764C22.9033 34.7849 23.4806 33.1335 23.9143 31.4406C23.9983 31.1246 24.0791 30.8086 24.1599 30.4926C24.3154 29.8891 24.4708 29.2792 24.6045 28.6693L30.5865 12.4274C31.8291 10.7454 33.44 9.38057 35.2915 8.44104C37.143 7.5015 39.1845 7.01306 41.2539 7.01441C44.234 6.99577 47.1314 8.01004 49.4682 9.88994C53.3795 12.8982 55.7083 18.823 55.7083 18.823C56.0478 19.5944 56.2225 20.4301 56.2213 21.2751C56.2197 22.0578 56.0664 22.8324 55.7701 23.5548C55.4741 24.2772 55.0407 24.9333 54.4951 25.4855C53.9494 26.0378 53.3021 26.4753 52.5901 26.7733C51.8781 27.0713 51.1151 27.2238 50.345 27.2221C49.4887 27.2215 48.6427 27.0296 47.8676 26.6599C47.0922 26.2902 46.4063 25.7519 45.8585 25.0828L45.8026 25.0133C45.4267 24.4975 45.1133 23.9373 44.8698 23.3449C44.5474 22.6013 44.1861 21.8756 43.7878 21.1709C43.5764 20.8075 43.3401 20.463 43.0976 20.1218C42.8881 19.8167 42.6403 19.5406 42.3607 19.3002C41.8104 18.8483 41.1171 18.6682 40.4704 19.0569C40.4393 19.075 40.4091 19.0951 40.3802 19.1169C39.7149 19.5814 39.2485 20.5199 38.9251 21.2404C37.9924 23.2817 37.4576 25.3735 36.9291 27.5223C36.8296 27.9362 36.7301 28.3502 36.6368 28.7673L34.1651 36.9831L30.6798 44.7944C29.432 46.4309 27.8351 47.7584 26.0095 48.677C24.1838 49.5953 22.1769 50.0809 20.1398 50.0967C11.6736 50.28 7.65664 42.5129 7.65664 42.5129C2.83439 34.4741 1.41351 23.8694 1.07462 20.4788C1.00311 19.7742 1 19.3539 1 19.3539C0.999608 18.2919 1.28466 17.2499 1.82438 16.3405C2.36411 15.4311 3.138 14.6888 4.0625 14.1937C5.01842 13.7015 6.08218 13.4654 7.15299 13.508C8.14922 13.5504 9.11853 13.8494 9.96987 14.377C10.6314 14.7794 11.2032 15.3175 11.6488 15.957C12.4447 17.1072 12.625 18.5386 12.7836 19.9069C13.1129 22.9075 13.6901 25.8746 14.5092 28.7768Z" fill="url(#paint12_radial_13250_6169)"/>
<path d="M14.5092 28.7768C15.1607 31.1044 16.0484 33.3569 17.1582 35.4979C17.6649 36.4459 18.1717 37.3939 19.092 37.9911C19.2515 38.0929 19.4272 38.1657 19.6113 38.206C20.9668 38.4999 21.71 37.3907 22.1888 36.3764C22.9033 34.7849 23.4806 33.1335 23.9143 31.4406C23.9983 31.1246 24.0791 30.8086 24.1599 30.4926C24.3154 29.8891 24.4708 29.2792 24.6045 28.6693L30.5865 12.4274C31.8291 10.7454 33.44 9.38057 35.2915 8.44104C37.143 7.5015 39.1845 7.01306 41.2539 7.01441C44.234 6.99577 47.1314 8.01004 49.4682 9.88994C53.3795 12.8982 55.7083 18.823 55.7083 18.823C56.0478 19.5944 56.2225 20.4301 56.2213 21.2751C56.2197 22.0578 56.0664 22.8324 55.7701 23.5548C55.4741 24.2772 55.0407 24.9333 54.4951 25.4855C53.9494 26.0378 53.3021 26.4753 52.5901 26.7733C51.8781 27.0713 51.1151 27.2238 50.345 27.2221C49.4887 27.2215 48.6427 27.0296 47.8676 26.6599C47.0922 26.2902 46.4063 25.7519 45.8585 25.0828L45.8026 25.0133C45.4267 24.4975 45.1133 23.9373 44.8698 23.3449C44.5474 22.6013 44.1861 21.8756 43.7878 21.1709C43.5764 20.8075 43.3401 20.463 43.0976 20.1218C42.8881 19.8167 42.6403 19.5406 42.3607 19.3002C41.8104 18.8483 41.1171 18.6682 40.4704 19.0569C40.4393 19.075 40.4091 19.0951 40.3802 19.1169C39.7149 19.5814 39.2485 20.5199 38.9251 21.2404C37.9924 23.2817 37.4576 25.3735 36.9291 27.5223C36.8296 27.9362 36.7301 28.3502 36.6368 28.7673L34.1651 36.9831L30.6798 44.7944C29.432 46.4309 27.8351 47.7584 26.0095 48.677C24.1838 49.5953 22.1769 50.0809 20.1398 50.0967C11.6736 50.28 7.65664 42.5129 7.65664 42.5129C2.83439 34.4741 1.41351 23.8694 1.07462 20.4788C1.00311 19.7742 1 19.3539 1 19.3539C0.999608 18.2919 1.28466 17.2499 1.82438 16.3405C2.36411 15.4311 3.138 14.6888 4.0625 14.1937C5.01842 13.7015 6.08218 13.4654 7.15299 13.508C8.14922 13.5504 9.11853 13.8494 9.96987 14.377C10.6314 14.7794 11.2032 15.3175 11.6488 15.957C12.4447 17.1072 12.625 18.5386 12.7836 19.9069C13.1129 22.9075 13.6901 25.8746 14.5092 28.7768Z" fill="url(#paint13_radial_13250_6169)"/>
<path d="M14.5092 28.7768C15.1607 31.1044 16.0484 33.3569 17.1582 35.4979C17.6649 36.4459 18.1717 37.3939 19.092 37.9911C19.2515 38.0929 19.4272 38.1657 19.6113 38.206C20.9668 38.4999 21.71 37.3907 22.1888 36.3764C22.9033 34.7849 23.4806 33.1335 23.9143 31.4406C23.9983 31.1246 24.0791 30.8086 24.1599 30.4926C24.3154 29.8891 24.4708 29.2792 24.6045 28.6693L30.5865 12.4274C31.8291 10.7454 33.44 9.38057 35.2915 8.44104C37.143 7.5015 39.1845 7.01306 41.2539 7.01441C44.234 6.99577 47.1314 8.01004 49.4682 9.88994C53.3795 12.8982 55.7083 18.823 55.7083 18.823C56.0478 19.5944 56.2225 20.4301 56.2213 21.2751C56.2197 22.0578 56.0664 22.8324 55.7701 23.5548C55.4741 24.2772 55.0407 24.9333 54.4951 25.4855C53.9494 26.0378 53.3021 26.4753 52.5901 26.7733C51.8781 27.0713 51.1151 27.2238 50.345 27.2221C49.4887 27.2215 48.6427 27.0296 47.8676 26.6599C47.0922 26.2902 46.4063 25.7519 45.8585 25.0828L45.8026 25.0133C45.4267 24.4975 45.1133 23.9373 44.8698 23.3449C44.5474 22.6013 44.1861 21.8756 43.7878 21.1709C43.5764 20.8075 43.3401 20.463 43.0976 20.1218C42.8881 19.8167 42.6403 19.5406 42.3607 19.3002C41.8104 18.8483 41.1171 18.6682 40.4704 19.0569C40.4393 19.075 40.4091 19.0951 40.3802 19.1169C39.7149 19.5814 39.2485 20.5199 38.9251 21.2404C37.9924 23.2817 37.4576 25.3735 36.9291 27.5223C36.8296 27.9362 36.7301 28.3502 36.6368 28.7673L34.1651 36.9831L30.6798 44.7944C29.432 46.4309 27.8351 47.7584 26.0095 48.677C24.1838 49.5953 22.1769 50.0809 20.1398 50.0967C11.6736 50.28 7.65664 42.5129 7.65664 42.5129C2.83439 34.4741 1.41351 23.8694 1.07462 20.4788C1.00311 19.7742 1 19.3539 1 19.3539C0.999608 18.2919 1.28466 17.2499 1.82438 16.3405C2.36411 15.4311 3.138 14.6888 4.0625 14.1937C5.01842 13.7015 6.08218 13.4654 7.15299 13.508C8.14922 13.5504 9.11853 13.8494 9.96987 14.377C10.6314 14.7794 11.2032 15.3175 11.6488 15.957C12.4447 17.1072 12.625 18.5386 12.7836 19.9069C13.1129 22.9075 13.6901 25.8746 14.5092 28.7768Z" fill="url(#paint14_radial_13250_6169)"/>
<path d="M14.5092 28.7768C15.1607 31.1044 16.0484 33.3569 17.1582 35.4979C17.6649 36.4459 18.1717 37.3939 19.092 37.9911C19.2515 38.0929 19.4272 38.1657 19.6113 38.206C20.9668 38.4999 21.71 37.3907 22.1888 36.3764C22.9033 34.7849 23.4806 33.1335 23.9143 31.4406C23.9983 31.1246 24.0791 30.8086 24.1599 30.4926C24.3154 29.8891 24.4708 29.2792 24.6045 28.6693L30.5865 12.4274C31.8291 10.7454 33.44 9.38057 35.2915 8.44104C37.143 7.5015 39.1845 7.01306 41.2539 7.01441C44.234 6.99577 47.1314 8.01004 49.4682 9.88994C53.3795 12.8982 55.7083 18.823 55.7083 18.823C56.0478 19.5944 56.2225 20.4301 56.2213 21.2751C56.2197 22.0578 56.0664 22.8324 55.7701 23.5548C55.4741 24.2772 55.0407 24.9333 54.4951 25.4855C53.9494 26.0378 53.3021 26.4753 52.5901 26.7733C51.8781 27.0713 51.1151 27.2238 50.345 27.2221C49.4887 27.2215 48.6427 27.0296 47.8676 26.6599C47.0922 26.2902 46.4063 25.7519 45.8585 25.0828L45.8026 25.0133C45.4267 24.4975 45.1133 23.9373 44.8698 23.3449C44.5474 22.6013 44.1861 21.8756 43.7878 21.1709C43.5764 20.8075 43.3401 20.463 43.0976 20.1218C42.8881 19.8167 42.6403 19.5406 42.3607 19.3002C41.8104 18.8483 41.1171 18.6682 40.4704 19.0569C40.4393 19.075 40.4091 19.0951 40.3802 19.1169C39.7149 19.5814 39.2485 20.5199 38.9251 21.2404C37.9924 23.2817 37.4576 25.3735 36.9291 27.5223C36.8296 27.9362 36.7301 28.3502 36.6368 28.7673L34.1651 36.9831L30.6798 44.7944C29.432 46.4309 27.8351 47.7584 26.0095 48.677C24.1838 49.5953 22.1769 50.0809 20.1398 50.0967C11.6736 50.28 7.65664 42.5129 7.65664 42.5129C2.83439 34.4741 1.41351 23.8694 1.07462 20.4788C1.00311 19.7742 1 19.3539 1 19.3539C0.999608 18.2919 1.28466 17.2499 1.82438 16.3405C2.36411 15.4311 3.138 14.6888 4.0625 14.1937C5.01842 13.7015 6.08218 13.4654 7.15299 13.508C8.14922 13.5504 9.11853 13.8494 9.96987 14.377C10.6314 14.7794 11.2032 15.3175 11.6488 15.957C12.4447 17.1072 12.625 18.5386 12.7836 19.9069C13.1129 22.9075 13.6901 25.8746 14.5092 28.7768Z" fill="url(#paint15_radial_13250_6169)"/>
<path d="M14.5092 28.7768C15.1607 31.1044 16.0484 33.3569 17.1582 35.4979C17.6649 36.4459 18.1717 37.3939 19.092 37.9911C19.2515 38.0929 19.4272 38.1657 19.6113 38.206C20.9668 38.4999 21.71 37.3907 22.1888 36.3764C22.9033 34.7849 23.4806 33.1335 23.9143 31.4406C23.9983 31.1246 24.0791 30.8086 24.1599 30.4926C24.3154 29.8891 24.4708 29.2792 24.6045 28.6693L30.5865 12.4274C31.8291 10.7454 33.44 9.38057 35.2915 8.44104C37.143 7.5015 39.1845 7.01306 41.2539 7.01441C44.234 6.99577 47.1314 8.01004 49.4682 9.88994C53.3795 12.8982 55.7083 18.823 55.7083 18.823C56.0478 19.5944 56.2225 20.4301 56.2213 21.2751C56.2197 22.0578 56.0664 22.8324 55.7701 23.5548C55.4741 24.2772 55.0407 24.9333 54.4951 25.4855C53.9494 26.0378 53.3021 26.4753 52.5901 26.7733C51.8781 27.0713 51.1151 27.2238 50.345 27.2221C49.4887 27.2215 48.6427 27.0296 47.8676 26.6599C47.0922 26.2902 46.4063 25.7519 45.8585 25.0828L45.8026 25.0133C45.4267 24.4975 45.1133 23.9373 44.8698 23.3449C44.5474 22.6013 44.1861 21.8756 43.7878 21.1709C43.5764 20.8075 43.3401 20.463 43.0976 20.1218C42.8881 19.8167 42.6403 19.5406 42.3607 19.3002C41.8104 18.8483 41.1171 18.6682 40.4704 19.0569C40.4393 19.075 40.4091 19.0951 40.3802 19.1169C39.7149 19.5814 39.2485 20.5199 38.9251 21.2404C37.9924 23.2817 37.4576 25.3735 36.9291 27.5223C36.8296 27.9362 36.7301 28.3502 36.6368 28.7673L34.1651 36.9831L30.6798 44.7944C29.432 46.4309 27.8351 47.7584 26.0095 48.677C24.1838 49.5953 22.1769 50.0809 20.1398 50.0967C11.6736 50.28 7.65664 42.5129 7.65664 42.5129C2.83439 34.4741 1.41351 23.8694 1.07462 20.4788C1.00311 19.7742 1 19.3539 1 19.3539C0.999608 18.2919 1.28466 17.2499 1.82438 16.3405C2.36411 15.4311 3.138 14.6888 4.0625 14.1937C5.01842 13.7015 6.08218 13.4654 7.15299 13.508C8.14922 13.5504 9.11853 13.8494 9.96987 14.377C10.6314 14.7794 11.2032 15.3175 11.6488 15.957C12.4447 17.1072 12.625 18.5386 12.7836 19.9069C13.1129 22.9075 13.6901 25.8746 14.5092 28.7768Z" fill="url(#paint16_linear_13250_6169)"/>
<path d="M14.5092 28.7768C15.1607 31.1044 16.0484 33.3569 17.1582 35.4979C17.6649 36.4459 18.1717 37.3939 19.092 37.9911C19.2515 38.0929 19.4272 38.1657 19.6113 38.206C20.9668 38.4999 21.71 37.3907 22.1888 36.3764C22.9033 34.7849 23.4806 33.1335 23.9143 31.4406C23.9983 31.1246 24.0791 30.8086 24.1599 30.4926C24.3154 29.8891 24.4708 29.2792 24.6045 28.6693L30.5865 12.4274C31.8291 10.7454 33.44 9.38057 35.2915 8.44104C37.143 7.5015 39.1845 7.01306 41.2539 7.01441C44.234 6.99577 47.1314 8.01004 49.4682 9.88994C53.3795 12.8982 55.7083 18.823 55.7083 18.823C56.0478 19.5944 56.2225 20.4301 56.2213 21.2751C56.2197 22.0578 56.0664 22.8324 55.7701 23.5548C55.4741 24.2772 55.0407 24.9333 54.4951 25.4855C53.9494 26.0378 53.3021 26.4753 52.5901 26.7733C51.8781 27.0713 51.1151 27.2238 50.345 27.2221C49.4887 27.2215 48.6427 27.0296 47.8676 26.6599C47.0922 26.2902 46.4063 25.7519 45.8585 25.0828L45.8026 25.0133C45.4267 24.4975 45.1133 23.9373 44.8698 23.3449C44.5474 22.6013 44.1861 21.8756 43.7878 21.1709C43.5764 20.8075 43.3401 20.463 43.0976 20.1218C42.8881 19.8167 42.6403 19.5406 42.3607 19.3002C41.8104 18.8483 41.1171 18.6682 40.4704 19.0569C40.4393 19.075 40.4091 19.0951 40.3802 19.1169C39.7149 19.5814 39.2485 20.5199 38.9251 21.2404C37.9924 23.2817 37.4576 25.3735 36.9291 27.5223C36.8296 27.9362 36.7301 28.3502 36.6368 28.7673L34.1651 36.9831L30.6798 44.7944C29.432 46.4309 27.8351 47.7584 26.0095 48.677C24.1838 49.5953 22.1769 50.0809 20.1398 50.0967C11.6736 50.28 7.65664 42.5129 7.65664 42.5129C2.83439 34.4741 1.41351 23.8694 1.07462 20.4788C1.00311 19.7742 1 19.3539 1 19.3539C0.999608 18.2919 1.28466 17.2499 1.82438 16.3405C2.36411 15.4311 3.138 14.6888 4.0625 14.1937C5.01842 13.7015 6.08218 13.4654 7.15299 13.508C8.14922 13.5504 9.11853 13.8494 9.96987 14.377C10.6314 14.7794 11.2032 15.3175 11.6488 15.957C12.4447 17.1072 12.625 18.5386 12.7836 19.9069C13.1129 22.9075 13.6901 25.8746 14.5092 28.7768Z" fill="url(#paint17_linear_13250_6169)"/>
<path d="M14.5092 28.7768C15.1607 31.1044 16.0484 33.3569 17.1582 35.4979C17.6649 36.4459 18.1717 37.3939 19.092 37.9911C19.2515 38.0929 19.4272 38.1657 19.6113 38.206C20.9668 38.4999 21.71 37.3907 22.1888 36.3764C22.9033 34.7849 23.4806 33.1335 23.9143 31.4406C23.9983 31.1246 24.0791 30.8086 24.1599 30.4926C24.3154 29.8891 24.4708 29.2792 24.6045 28.6693L30.5865 12.4274C31.8291 10.7454 33.44 9.38057 35.2915 8.44104C37.143 7.5015 39.1845 7.01306 41.2539 7.01441C44.234 6.99577 47.1314 8.01004 49.4682 9.88994C53.3795 12.8982 55.7083 18.823 55.7083 18.823C56.0478 19.5944 56.2225 20.4301 56.2213 21.2751C56.2197 22.0578 56.0664 22.8324 55.7701 23.5548C55.4741 24.2772 55.0407 24.9333 54.4951 25.4855C53.9494 26.0378 53.3021 26.4753 52.5901 26.7733C51.8781 27.0713 51.1151 27.2238 50.345 27.2221C49.4887 27.2215 48.6427 27.0296 47.8676 26.6599C47.0922 26.2902 46.4063 25.7519 45.8585 25.0828L45.8026 25.0133C45.4267 24.4975 45.1133 23.9373 44.8698 23.3449C44.5474 22.6013 44.1861 21.8756 43.7878 21.1709C43.5764 20.8075 43.3401 20.463 43.0976 20.1218C42.8881 19.8167 42.6403 19.5406 42.3607 19.3002C41.8104 18.8483 41.1171 18.6682 40.4704 19.0569C40.4393 19.075 40.4091 19.0951 40.3802 19.1169C39.7149 19.5814 39.2485 20.5199 38.9251 21.2404C37.9924 23.2817 37.4576 25.3735 36.9291 27.5223C36.8296 27.9362 36.7301 28.3502 36.6368 28.7673L34.1651 36.9831L30.6798 44.7944C29.432 46.4309 27.8351 47.7584 26.0095 48.677C24.1838 49.5953 22.1769 50.0809 20.1398 50.0967C11.6736 50.28 7.65664 42.5129 7.65664 42.5129C2.83439 34.4741 1.41351 23.8694 1.07462 20.4788C1.00311 19.7742 1 19.3539 1 19.3539C0.999608 18.2919 1.28466 17.2499 1.82438 16.3405C2.36411 15.4311 3.138 14.6888 4.0625 14.1937C5.01842 13.7015 6.08218 13.4654 7.15299 13.508C8.14922 13.5504 9.11853 13.8494 9.96987 14.377C10.6314 14.7794 11.2032 15.3175 11.6488 15.957C12.4447 17.1072 12.625 18.5386 12.7836 19.9069C13.1129 22.9075 13.6901 25.8746 14.5092 28.7768Z" fill="url(#paint18_linear_13250_6169)"/>
<path d="M14.5092 28.7768C15.1607 31.1044 16.0484 33.3569 17.1582 35.4979C17.6649 36.4459 18.1717 37.3939 19.092 37.9911C19.2515 38.0929 19.4272 38.1657 19.6113 38.206C20.9668 38.4999 21.71 37.3907 22.1888 36.3764C22.9033 34.7849 23.4806 33.1335 23.9143 31.4406C23.9983 31.1246 24.0791 30.8086 24.1599 30.4926C24.3154 29.8891 24.4708 29.2792 24.6045 28.6693L30.5865 12.4274C31.8291 10.7454 33.44 9.38057 35.2915 8.44104C37.143 7.5015 39.1845 7.01306 41.2539 7.01441C44.234 6.99577 47.1314 8.01004 49.4682 9.88994C53.3795 12.8982 55.7083 18.823 55.7083 18.823C56.0478 19.5944 56.2225 20.4301 56.2213 21.2751C56.2197 22.0578 56.0664 22.8324 55.7701 23.5548C55.4741 24.2772 55.0407 24.9333 54.4951 25.4855C53.9494 26.0378 53.3021 26.4753 52.5901 26.7733C51.8781 27.0713 51.1151 27.2238 50.345 27.2221C49.4887 27.2215 48.6427 27.0296 47.8676 26.6599C47.0922 26.2902 46.4063 25.7519 45.8585 25.0828L45.8026 25.0133C45.4267 24.4975 45.1133 23.9373 44.8698 23.3449C44.5474 22.6013 44.1861 21.8756 43.7878 21.1709C43.5764 20.8075 43.3401 20.463 43.0976 20.1218C42.8881 19.8167 42.6403 19.5406 42.3607 19.3002C41.8104 18.8483 41.1171 18.6682 40.4704 19.0569C40.4393 19.075 40.4091 19.0951 40.3802 19.1169C39.7149 19.5814 39.2485 20.5199 38.9251 21.2404C37.9924 23.2817 37.4576 25.3735 36.9291 27.5223C36.8296 27.9362 36.7301 28.3502 36.6368 28.7673L34.1651 36.9831L30.6798 44.7944C29.432 46.4309 27.8351 47.7584 26.0095 48.677C24.1838 49.5953 22.1769 50.0809 20.1398 50.0967C11.6736 50.28 7.65664 42.5129 7.65664 42.5129C2.83439 34.4741 1.41351 23.8694 1.07462 20.4788C1.00311 19.7742 1 19.3539 1 19.3539C0.999608 18.2919 1.28466 17.2499 1.82438 16.3405C2.36411 15.4311 3.138 14.6888 4.0625 14.1937C5.01842 13.7015 6.08218 13.4654 7.15299 13.508C8.14922 13.5504 9.11853 13.8494 9.96987 14.377C10.6314 14.7794 11.2032 15.3175 11.6488 15.957C12.4447 17.1072 12.625 18.5386 12.7836 19.9069C13.1129 22.9075 13.6901 25.8746 14.5092 28.7768Z" fill="url(#paint19_linear_13250_6169)"/>
<path d="M26.7842 22.7511L30.5867 12.4308C31.8292 10.7488 33.4402 9.38398 35.2917 8.44445C37.1432 7.50492 39.1847 7.01648 41.2541 7.01783C44.2342 6.99918 47.1316 8.01346 49.4685 9.89336C53.3798 12.9016 55.7085 18.8264 55.7085 18.8264C56.048 19.5978 56.2227 20.4336 56.2215 21.2785C56.2199 22.0612 56.0667 22.8358 55.7704 23.5582C55.4741 24.2807 55.041 24.9367 54.4953 25.489C53.9497 26.0412 53.3023 26.4788 52.59 26.7767C51.878 27.0747 51.1154 27.2272 50.3452 27.2255C49.489 27.225 48.643 27.033 47.8679 26.6633C47.0925 26.2937 46.4066 25.7552 45.8588 25.0863L45.8028 25.0167C45.4266 24.5009 45.1135 23.9407 44.87 23.3483C44.5473 22.6047 44.1864 21.879 43.7881 21.1743C43.5766 20.8109 43.3404 20.4664 43.0978 20.1252C42.8883 19.8201 42.6405 19.544 42.361 19.3036C41.8107 18.8517 41.1173 18.6716 40.4706 19.0603C40.4395 19.0785 40.4094 19.0985 40.3805 19.1203C39.7151 19.5848 39.2487 20.5233 38.9254 21.2438C37.9926 23.2851 37.4579 25.377 36.9293 27.5257C36.8298 27.9397 36.7303 28.3536 36.6371 28.7707L34.1653 36.9865L26.7842 22.7511Z" fill="url(#paint20_linear_13250_6169)"/>
<path d="M54.4086 13.5336C53.9146 13.5325 53.4227 13.5952 52.9442 13.7201C54.0349 15.3218 54.9608 17.0329 55.7082 18.8265C56.0478 19.5979 56.2225 20.4336 56.2213 21.2786C56.2197 22.0613 56.0664 22.8359 55.7701 23.5583C55.4738 24.2807 55.0407 24.9368 54.4951 25.489C53.9494 26.0412 53.3021 26.4788 52.5898 26.7768C51.8778 27.0748 51.1151 27.2273 50.345 27.2256C49.304 27.2236 48.2824 26.94 47.3851 26.404L46.7819 28.6697C45.6875 32.3889 44.9164 33.8267 44.9164 33.8267C44.4917 34.835 43.9862 35.8062 43.4054 36.7306C43.0043 37.3342 42.4913 37.9409 41.7886 38.1715C41.5443 38.2581 41.2831 38.2841 41.0269 38.2474C40.7496 38.2132 40.4819 38.1218 40.2403 37.9788C39.7783 37.6256 39.4108 37.1607 39.1708 36.6263C38.8735 36.0331 38.6068 35.4245 38.3717 34.8031C37.8525 33.5201 37.0503 30.3602 37.0503 30.3602L36.2202 27.0518L35.39 23.7181L34.7993 21.5282C33.2447 15.8246 31.0932 13.0186 31.0932 13.0186C29.4021 10.5679 27.0063 8.70906 24.2344 7.69727C21.0196 6.52494 17.6462 7.18536 17.6462 7.18536C12.3607 8.24078 9.58419 11.9252 8.3623 13.698C8.92154 13.8464 9.45669 14.0763 9.95107 14.3805C10.6126 14.7829 11.1844 15.321 11.63 15.9605C12.4259 17.1107 12.6063 18.5421 12.7648 19.9104C13.0984 22.8758 13.6745 25.8078 14.4873 28.676C16.2782 22.6405 18.4266 19.8282 18.4266 19.8282C18.6666 19.5251 18.9545 19.2645 19.2785 19.0572C19.4471 18.952 19.6357 18.8841 19.8319 18.8581C20.1955 18.8226 20.5603 18.9128 20.8672 19.1141C20.9235 19.1517 20.9765 19.1939 21.0258 19.2405C21.3066 19.4935 21.5478 19.7887 21.7409 20.1158C22.1882 20.9283 22.5758 21.7732 22.9006 22.6437C23.5722 24.5649 24.1443 26.9127 24.1443 26.9127L25.8543 33.7635C27.098 38.4212 28.1519 40.6837 28.1519 40.6837C30.7481 46.7255 34.7185 48.4255 34.7185 48.4255C36.6514 49.4762 38.8011 50.0478 40.9927 50.0939C43.0848 50.1518 45.1599 49.6977 47.0431 48.7699C49.1079 47.7379 50.9192 46.2489 52.3442 44.4124C53.3049 43.2811 54.7195 40.5257 54.7195 40.5257C56.2794 37.3667 57.5041 34.048 58.3728 30.6257C58.9278 28.4935 59.373 26.3334 59.7066 24.1541C59.8745 23.0734 60.0331 21.9864 60.1605 20.8963C60.3194 19.864 60.2877 18.8106 60.0673 17.7901C60.0209 17.6066 59.964 17.4262 59.8962 17.2497C59.3966 15.9691 58.4701 14.9076 57.2784 14.2509C56.3951 13.7737 55.4088 13.5272 54.4086 13.5336Z" fill="url(#paint21_linear_13250_6169)"/>
<path d="M54.4086 13.5336C53.9146 13.5325 53.4227 13.5952 52.9442 13.7201C54.0349 15.3218 54.9608 17.0329 55.7082 18.8265C56.0478 19.5979 56.2225 20.4336 56.2213 21.2786C56.2197 22.0613 56.0664 22.8359 55.7701 23.5583C55.4738 24.2807 55.0407 24.9368 54.4951 25.489C53.9494 26.0412 53.3021 26.4788 52.5898 26.7768C51.8778 27.0748 51.1151 27.2273 50.345 27.2256C49.304 27.2236 48.2824 26.94 47.3851 26.404L46.7819 28.6697C45.6875 32.3889 44.9164 33.8267 44.9164 33.8267C44.4917 34.835 43.9862 35.8062 43.4054 36.7306C43.0043 37.3342 42.4913 37.9409 41.7886 38.1715C41.5443 38.2581 41.2831 38.2841 41.0269 38.2474C40.7496 38.2132 40.4819 38.1218 40.2403 37.9788C39.7783 37.6256 39.4108 37.1607 39.1708 36.6263C38.8735 36.0331 38.6068 35.4245 38.3717 34.8031C37.8525 33.5201 37.0503 30.3602 37.0503 30.3602L36.2202 27.0518L35.39 23.7181L34.7993 21.5282C33.2447 15.8246 31.0932 13.0186 31.0932 13.0186C29.4021 10.5679 27.0063 8.70906 24.2344 7.69727C21.0196 6.52494 17.6462 7.18536 17.6462 7.18536C12.3607 8.24078 9.58419 11.9252 8.3623 13.698C8.92154 13.8464 9.45669 14.0763 9.95107 14.3805C10.6126 14.7829 11.1844 15.321 11.63 15.9605C12.4259 17.1107 12.6063 18.5421 12.7648 19.9104C13.0984 22.8758 13.6745 25.8078 14.4873 28.676C16.2782 22.6405 18.4266 19.8282 18.4266 19.8282C18.6666 19.5251 18.9545 19.2645 19.2785 19.0572C19.4471 18.952 19.6357 18.8841 19.8319 18.8581C20.1955 18.8226 20.5603 18.9128 20.8672 19.1141C20.9235 19.1517 20.9765 19.1939 21.0258 19.2405C21.3066 19.4935 21.5478 19.7887 21.7409 20.1158C22.1882 20.9283 22.5758 21.7732 22.9006 22.6437C23.5722 24.5649 24.1443 26.9127 24.1443 26.9127L25.8543 33.7635C27.098 38.4212 28.1519 40.6837 28.1519 40.6837C30.7481 46.7255 34.7185 48.4255 34.7185 48.4255C36.6514 49.4762 38.8011 50.0478 40.9927 50.0939C43.0848 50.1518 45.1599 49.6977 47.0431 48.7699C49.1079 47.7379 50.9192 46.2489 52.3442 44.4124C53.3049 43.2811 54.7195 40.5257 54.7195 40.5257C56.2794 37.3667 57.5041 34.048 58.3728 30.6257C58.9278 28.4935 59.373 26.3334 59.7066 24.1541C59.8745 23.0734 60.0331 21.9864 60.1605 20.8963C60.3194 19.864 60.2877 18.8106 60.0673 17.7901C60.0209 17.6066 59.964 17.4262 59.8962 17.2497C59.3966 15.9691 58.4701 14.9076 57.2784 14.2509C56.3951 13.7737 55.4088 13.5272 54.4086 13.5336Z" fill="url(#paint22_radial_13250_6169)"/>
<path d="M54.4086 13.5336C53.9146 13.5325 53.4227 13.5952 52.9442 13.7201C54.0349 15.3218 54.9608 17.0329 55.7082 18.8265C56.0478 19.5979 56.2225 20.4336 56.2213 21.2786C56.2197 22.0613 56.0664 22.8359 55.7701 23.5583C55.4738 24.2807 55.0407 24.9368 54.4951 25.489C53.9494 26.0412 53.3021 26.4788 52.5898 26.7768C51.8778 27.0748 51.1151 27.2273 50.345 27.2256C49.304 27.2236 48.2824 26.94 47.3851 26.404L46.7819 28.6697C45.6875 32.3889 44.9164 33.8267 44.9164 33.8267C44.4917 34.835 43.9862 35.8062 43.4054 36.7306C43.0043 37.3342 42.4913 37.9409 41.7886 38.1715C41.5443 38.2581 41.2831 38.2841 41.0269 38.2474C40.7496 38.2132 40.4819 38.1218 40.2403 37.9788C39.7783 37.6256 39.4108 37.1607 39.1708 36.6263C38.8735 36.0331 38.6068 35.4245 38.3717 34.8031C37.8525 33.5201 37.0503 30.3602 37.0503 30.3602L36.2202 27.0518L35.39 23.7181L34.7993 21.5282C33.2447 15.8246 31.0932 13.0186 31.0932 13.0186C29.4021 10.5679 27.0063 8.70906 24.2344 7.69727C21.0196 6.52494 17.6462 7.18536 17.6462 7.18536C12.3607 8.24078 9.58419 11.9252 8.3623 13.698C8.92154 13.8464 9.45669 14.0763 9.95107 14.3805C10.6126 14.7829 11.1844 15.321 11.63 15.9605C12.4259 17.1107 12.6063 18.5421 12.7648 19.9104C13.0984 22.8758 13.6745 25.8078 14.4873 28.676C16.2782 22.6405 18.4266 19.8282 18.4266 19.8282C18.6666 19.5251 18.9545 19.2645 19.2785 19.0572C19.4471 18.952 19.6357 18.8841 19.8319 18.8581C20.1955 18.8226 20.5603 18.9128 20.8672 19.1141C20.9235 19.1517 20.9765 19.1939 21.0258 19.2405C21.3066 19.4935 21.5478 19.7887 21.7409 20.1158C22.1882 20.9283 22.5758 21.7732 22.9006 22.6437C23.5722 24.5649 24.1443 26.9127 24.1443 26.9127L25.8543 33.7635C27.098 38.4212 28.1519 40.6837 28.1519 40.6837C30.7481 46.7255 34.7185 48.4255 34.7185 48.4255C36.6514 49.4762 38.8011 50.0478 40.9927 50.0939C43.0848 50.1518 45.1599 49.6977 47.0431 48.7699C49.1079 47.7379 50.9192 46.2489 52.3442 44.4124C53.3049 43.2811 54.7195 40.5257 54.7195 40.5257C56.2794 37.3667 57.5041 34.048 58.3728 30.6257C58.9278 28.4935 59.373 26.3334 59.7066 24.1541C59.8745 23.0734 60.0331 21.9864 60.1605 20.8963C60.3194 19.864 60.2877 18.8106 60.0673 17.7901C60.0209 17.6066 59.964 17.4262 59.8962 17.2497C59.3966 15.9691 58.4701 14.9076 57.2784 14.2509C56.3951 13.7737 55.4088 13.5272 54.4086 13.5336Z" fill="url(#paint23_radial_13250_6169)"/>
<path d="M54.4086 13.5336C53.9146 13.5325 53.4227 13.5952 52.9442 13.7201C54.0349 15.3218 54.9608 17.0329 55.7082 18.8265C56.0478 19.5979 56.2225 20.4336 56.2213 21.2786C56.2197 22.0613 56.0664 22.8359 55.7701 23.5583C55.4738 24.2807 55.0407 24.9368 54.4951 25.489C53.9494 26.0412 53.3021 26.4788 52.5898 26.7768C51.8778 27.0748 51.1151 27.2273 50.345 27.2256C49.304 27.2236 48.2824 26.94 47.3851 26.404L46.7819 28.6697C45.6875 32.3889 44.9164 33.8267 44.9164 33.8267C44.4917 34.835 43.9862 35.8062 43.4054 36.7306C43.0043 37.3342 42.4913 37.9409 41.7886 38.1715C41.5443 38.2581 41.2831 38.2841 41.0269 38.2474C40.7496 38.2132 40.4819 38.1218 40.2403 37.9788C39.7783 37.6256 39.4108 37.1607 39.1708 36.6263C38.8735 36.0331 38.6068 35.4245 38.3717 34.8031C37.8525 33.5201 37.0503 30.3602 37.0503 30.3602L36.2202 27.0518L35.39 23.7181L34.7993 21.5282C33.2447 15.8246 31.0932 13.0186 31.0932 13.0186C29.4021 10.5679 27.0063 8.70906 24.2344 7.69727C21.0196 6.52494 17.6462 7.18536 17.6462 7.18536C12.3607 8.24078 9.58419 11.9252 8.3623 13.698C8.92154 13.8464 9.45669 14.0763 9.95107 14.3805C10.6126 14.7829 11.1844 15.321 11.63 15.9605C12.4259 17.1107 12.6063 18.5421 12.7648 19.9104C13.0984 22.8758 13.6745 25.8078 14.4873 28.676C16.2782 22.6405 18.4266 19.8282 18.4266 19.8282C18.6666 19.5251 18.9545 19.2645 19.2785 19.0572C19.4471 18.952 19.6357 18.8841 19.8319 18.8581C20.1955 18.8226 20.5603 18.9128 20.8672 19.1141C20.9235 19.1517 20.9765 19.1939 21.0258 19.2405C21.3066 19.4935 21.5478 19.7887 21.7409 20.1158C22.1882 20.9283 22.5758 21.7732 22.9006 22.6437C23.5722 24.5649 24.1443 26.9127 24.1443 26.9127L25.8543 33.7635C27.098 38.4212 28.1519 40.6837 28.1519 40.6837C30.7481 46.7255 34.7185 48.4255 34.7185 48.4255C36.6514 49.4762 38.8011 50.0478 40.9927 50.0939C43.0848 50.1518 45.1599 49.6977 47.0431 48.7699C49.1079 47.7379 50.9192 46.2489 52.3442 44.4124C53.3049 43.2811 54.7195 40.5257 54.7195 40.5257C56.2794 37.3667 57.5041 34.048 58.3728 30.6257C58.9278 28.4935 59.373 26.3334 59.7066 24.1541C59.8745 23.0734 60.0331 21.9864 60.1605 20.8963C60.3194 19.864 60.2877 18.8106 60.0673 17.7901C60.0209 17.6066 59.964 17.4262 59.8962 17.2497C59.3966 15.9691 58.4701 14.9076 57.2784 14.2509C56.3951 13.7737 55.4088 13.5272 54.4086 13.5336Z" fill="url(#paint24_radial_13250_6169)"/>
<path d="M54.4086 13.5336C53.9146 13.5325 53.4227 13.5952 52.9442 13.7201C54.0349 15.3218 54.9608 17.0329 55.7082 18.8265C56.0478 19.5979 56.2225 20.4336 56.2213 21.2786C56.2197 22.0613 56.0664 22.8359 55.7701 23.5583C55.4738 24.2807 55.0407 24.9368 54.4951 25.489C53.9494 26.0412 53.3021 26.4788 52.5898 26.7768C51.8778 27.0748 51.1151 27.2273 50.345 27.2256C49.304 27.2236 48.2824 26.94 47.3851 26.404L46.7819 28.6697C45.6875 32.3889 44.9164 33.8267 44.9164 33.8267C44.4917 34.835 43.9862 35.8062 43.4054 36.7306C43.0043 37.3342 42.4913 37.9409 41.7886 38.1715C41.5443 38.2581 41.2831 38.2841 41.0269 38.2474C40.7496 38.2132 40.4819 38.1218 40.2403 37.9788C39.7783 37.6256 39.4108 37.1607 39.1708 36.6263C38.8735 36.0331 38.6068 35.4245 38.3717 34.8031C37.8525 33.5201 37.0503 30.3602 37.0503 30.3602L36.2202 27.0518L35.39 23.7181L34.7993 21.5282C33.2447 15.8246 31.0932 13.0186 31.0932 13.0186C29.4021 10.5679 27.0063 8.70906 24.2344 7.69727C21.0196 6.52494 17.6462 7.18536 17.6462 7.18536C12.3607 8.24078 9.58419 11.9252 8.3623 13.698C8.92154 13.8464 9.45669 14.0763 9.95107 14.3805C10.6126 14.7829 11.1844 15.321 11.63 15.9605C12.4259 17.1107 12.6063 18.5421 12.7648 19.9104C13.0984 22.8758 13.6745 25.8078 14.4873 28.676C16.2782 22.6405 18.4266 19.8282 18.4266 19.8282C18.6666 19.5251 18.9545 19.2645 19.2785 19.0572C19.4471 18.952 19.6357 18.8841 19.8319 18.8581C20.1955 18.8226 20.5603 18.9128 20.8672 19.1141C20.9235 19.1517 20.9765 19.1939 21.0258 19.2405C21.3066 19.4935 21.5478 19.7887 21.7409 20.1158C22.1882 20.9283 22.5758 21.7732 22.9006 22.6437C23.5722 24.5649 24.1443 26.9127 24.1443 26.9127L25.8543 33.7635C27.098 38.4212 28.1519 40.6837 28.1519 40.6837C30.7481 46.7255 34.7185 48.4255 34.7185 48.4255C36.6514 49.4762 38.8011 50.0478 40.9927 50.0939C43.0848 50.1518 45.1599 49.6977 47.0431 48.7699C49.1079 47.7379 50.9192 46.2489 52.3442 44.4124C53.3049 43.2811 54.7195 40.5257 54.7195 40.5257C56.2794 37.3667 57.5041 34.048 58.3728 30.6257C58.9278 28.4935 59.373 26.3334 59.7066 24.1541C59.8745 23.0734 60.0331 21.9864 60.1605 20.8963C60.3194 19.864 60.2877 18.8106 60.0673 17.7901C60.0209 17.6066 59.964 17.4262 59.8962 17.2497C59.3966 15.9691 58.4701 14.9076 57.2784 14.2509C56.3951 13.7737 55.4088 13.5272 54.4086 13.5336Z" fill="url(#paint25_radial_13250_6169)"/>
<path d="M54.4086 13.5336C53.9146 13.5325 53.4227 13.5952 52.9442 13.7201C54.0349 15.3218 54.9608 17.0329 55.7082 18.8265C56.0478 19.5979 56.2225 20.4336 56.2213 21.2786C56.2197 22.0613 56.0664 22.8359 55.7701 23.5583C55.4738 24.2807 55.0407 24.9368 54.4951 25.489C53.9494 26.0412 53.3021 26.4788 52.5898 26.7768C51.8778 27.0748 51.1151 27.2273 50.345 27.2256C49.304 27.2236 48.2824 26.94 47.3851 26.404L46.7819 28.6697C45.6875 32.3889 44.9164 33.8267 44.9164 33.8267C44.4917 34.835 43.9862 35.8062 43.4054 36.7306C43.0043 37.3342 42.4913 37.9409 41.7886 38.1715C41.5443 38.2581 41.2831 38.2841 41.0269 38.2474C40.7496 38.2132 40.4819 38.1218 40.2403 37.9788C39.7783 37.6256 39.4108 37.1607 39.1708 36.6263C38.8735 36.0331 38.6068 35.4245 38.3717 34.8031C37.8525 33.5201 37.0503 30.3602 37.0503 30.3602L36.2202 27.0518L35.39 23.7181L34.7993 21.5282C33.2447 15.8246 31.0932 13.0186 31.0932 13.0186C29.4021 10.5679 27.0063 8.70906 24.2344 7.69727C21.0196 6.52494 17.6462 7.18536 17.6462 7.18536C12.3607 8.24078 9.58419 11.9252 8.3623 13.698C8.92154 13.8464 9.45669 14.0763 9.95107 14.3805C10.6126 14.7829 11.1844 15.321 11.63 15.9605C12.4259 17.1107 12.6063 18.5421 12.7648 19.9104C13.0984 22.8758 13.6745 25.8078 14.4873 28.676C16.2782 22.6405 18.4266 19.8282 18.4266 19.8282C18.6666 19.5251 18.9545 19.2645 19.2785 19.0572C19.4471 18.952 19.6357 18.8841 19.8319 18.8581C20.1955 18.8226 20.5603 18.9128 20.8672 19.1141C20.9235 19.1517 20.9765 19.1939 21.0258 19.2405C21.3066 19.4935 21.5478 19.7887 21.7409 20.1158C22.1882 20.9283 22.5758 21.7732 22.9006 22.6437C23.5722 24.5649 24.1443 26.9127 24.1443 26.9127L25.8543 33.7635C27.098 38.4212 28.1519 40.6837 28.1519 40.6837C30.7481 46.7255 34.7185 48.4255 34.7185 48.4255C36.6514 49.4762 38.8011 50.0478 40.9927 50.0939C43.0848 50.1518 45.1599 49.6977 47.0431 48.7699C49.1079 47.7379 50.9192 46.2489 52.3442 44.4124C53.3049 43.2811 54.7195 40.5257 54.7195 40.5257C56.2794 37.3667 57.5041 34.048 58.3728 30.6257C58.9278 28.4935 59.373 26.3334 59.7066 24.1541C59.8745 23.0734 60.0331 21.9864 60.1605 20.8963C60.3194 19.864 60.2877 18.8106 60.0673 17.7901C60.0209 17.6066 59.964 17.4262 59.8962 17.2497C59.3966 15.9691 58.4701 14.9076 57.2784 14.2509C56.3951 13.7737 55.4088 13.5272 54.4086 13.5336Z" fill="url(#paint26_radial_13250_6169)"/>
<path d="M54.4086 13.5336C53.9146 13.5325 53.4227 13.5952 52.9442 13.7201C54.0349 15.3218 54.9608 17.0329 55.7082 18.8265C56.0478 19.5979 56.2225 20.4336 56.2213 21.2786C56.2197 22.0613 56.0664 22.8359 55.7701 23.5583C55.4738 24.2807 55.0407 24.9368 54.4951 25.489C53.9494 26.0412 53.3021 26.4788 52.5898 26.7768C51.8778 27.0748 51.1151 27.2273 50.345 27.2256C49.304 27.2236 48.2824 26.94 47.3851 26.404L46.7819 28.6697C45.6875 32.3889 44.9164 33.8267 44.9164 33.8267C44.4917 34.835 43.9862 35.8062 43.4054 36.7306C43.0043 37.3342 42.4913 37.9409 41.7886 38.1715C41.5443 38.2581 41.2831 38.2841 41.0269 38.2474C40.7496 38.2132 40.4819 38.1218 40.2403 37.9788C39.7783 37.6256 39.4108 37.1607 39.1708 36.6263C38.8735 36.0331 38.6068 35.4245 38.3717 34.8031C37.8525 33.5201 37.0503 30.3602 37.0503 30.3602L36.2202 27.0518L35.39 23.7181L34.7993 21.5282C33.2447 15.8246 31.0932 13.0186 31.0932 13.0186C29.4021 10.5679 27.0063 8.70906 24.2344 7.69727C21.0196 6.52494 17.6462 7.18536 17.6462 7.18536C12.3607 8.24078 9.58419 11.9252 8.3623 13.698C8.92154 13.8464 9.45669 14.0763 9.95107 14.3805C10.6126 14.7829 11.1844 15.321 11.63 15.9605C12.4259 17.1107 12.6063 18.5421 12.7648 19.9104C13.0984 22.8758 13.6745 25.8078 14.4873 28.676C16.2782 22.6405 18.4266 19.8282 18.4266 19.8282C18.6666 19.5251 18.9545 19.2645 19.2785 19.0572C19.4471 18.952 19.6357 18.8841 19.8319 18.8581C20.1955 18.8226 20.5603 18.9128 20.8672 19.1141C20.9235 19.1517 20.9765 19.1939 21.0258 19.2405C21.3066 19.4935 21.5478 19.7887 21.7409 20.1158C22.1882 20.9283 22.5758 21.7732 22.9006 22.6437C23.5722 24.5649 24.1443 26.9127 24.1443 26.9127L25.8543 33.7635C27.098 38.4212 28.1519 40.6837 28.1519 40.6837C30.7481 46.7255 34.7185 48.4255 34.7185 48.4255C36.6514 49.4762 38.8011 50.0478 40.9927 50.0939C43.0848 50.1518 45.1599 49.6977 47.0431 48.7699C49.1079 47.7379 50.9192 46.2489 52.3442 44.4124C53.3049 43.2811 54.7195 40.5257 54.7195 40.5257C56.2794 37.3667 57.5041 34.048 58.3728 30.6257C58.9278 28.4935 59.373 26.3334 59.7066 24.1541C59.8745 23.0734 60.0331 21.9864 60.1605 20.8963C60.3194 19.864 60.2877 18.8106 60.0673 17.7901C60.0209 17.6066 59.964 17.4262 59.8962 17.2497C59.3966 15.9691 58.4701 14.9076 57.2784 14.2509C56.3951 13.7737 55.4088 13.5272 54.4086 13.5336Z" fill="url(#paint27_radial_13250_6169)"/>
<path d="M54.4086 13.5336C53.9146 13.5325 53.4227 13.5952 52.9442 13.7201C54.0349 15.3218 54.9608 17.0329 55.7082 18.8265C56.0478 19.5979 56.2225 20.4336 56.2213 21.2786C56.2197 22.0613 56.0664 22.8359 55.7701 23.5583C55.4738 24.2807 55.0407 24.9368 54.4951 25.489C53.9494 26.0412 53.3021 26.4788 52.5898 26.7768C51.8778 27.0748 51.1151 27.2273 50.345 27.2256C49.304 27.2236 48.2824 26.94 47.3851 26.404L46.7819 28.6697C45.6875 32.3889 44.9164 33.8267 44.9164 33.8267C44.4917 34.835 43.9862 35.8062 43.4054 36.7306C43.0043 37.3342 42.4913 37.9409 41.7886 38.1715C41.5443 38.2581 41.2831 38.2841 41.0269 38.2474C40.7496 38.2132 40.4819 38.1218 40.2403 37.9788C39.7783 37.6256 39.4108 37.1607 39.1708 36.6263C38.8735 36.0331 38.6068 35.4245 38.3717 34.8031C37.8525 33.5201 37.0503 30.3602 37.0503 30.3602L36.2202 27.0518L35.39 23.7181L34.7993 21.5282C33.2447 15.8246 31.0932 13.0186 31.0932 13.0186C29.4021 10.5679 27.0063 8.70906 24.2344 7.69727C21.0196 6.52494 17.6462 7.18536 17.6462 7.18536C12.3607 8.24078 9.58419 11.9252 8.3623 13.698C8.92154 13.8464 9.45669 14.0763 9.95107 14.3805C10.6126 14.7829 11.1844 15.321 11.63 15.9605C12.4259 17.1107 12.6063 18.5421 12.7648 19.9104C13.0984 22.8758 13.6745 25.8078 14.4873 28.676C16.2782 22.6405 18.4266 19.8282 18.4266 19.8282C18.6666 19.5251 18.9545 19.2645 19.2785 19.0572C19.4471 18.952 19.6357 18.8841 19.8319 18.8581C20.1955 18.8226 20.5603 18.9128 20.8672 19.1141C20.9235 19.1517 20.9765 19.1939 21.0258 19.2405C21.3066 19.4935 21.5478 19.7887 21.7409 20.1158C22.1882 20.9283 22.5758 21.7732 22.9006 22.6437C23.5722 24.5649 24.1443 26.9127 24.1443 26.9127L25.8543 33.7635C27.098 38.4212 28.1519 40.6837 28.1519 40.6837C30.7481 46.7255 34.7185 48.4255 34.7185 48.4255C36.6514 49.4762 38.8011 50.0478 40.9927 50.0939C43.0848 50.1518 45.1599 49.6977 47.0431 48.7699C49.1079 47.7379 50.9192 46.2489 52.3442 44.4124C53.3049 43.2811 54.7195 40.5257 54.7195 40.5257C56.2794 37.3667 57.5041 34.048 58.3728 30.6257C58.9278 28.4935 59.373 26.3334 59.7066 24.1541C59.8745 23.0734 60.0331 21.9864 60.1605 20.8963C60.3194 19.864 60.2877 18.8106 60.0673 17.7901C60.0209 17.6066 59.964 17.4262 59.8962 17.2497C59.3966 15.9691 58.4701 14.9076 57.2784 14.2509C56.3951 13.7737 55.4088 13.5272 54.4086 13.5336Z" fill="url(#paint28_radial_13250_6169)"/>
<path d="M54.4086 13.5336C53.9146 13.5325 53.4227 13.5952 52.9442 13.7201C54.0349 15.3218 54.9608 17.0329 55.7082 18.8265C56.0478 19.5979 56.2225 20.4336 56.2213 21.2786C56.2197 22.0613 56.0664 22.8359 55.7701 23.5583C55.4738 24.2807 55.0407 24.9368 54.4951 25.489C53.9494 26.0412 53.3021 26.4788 52.5898 26.7768C51.8778 27.0748 51.1151 27.2273 50.345 27.2256C49.304 27.2236 48.2824 26.94 47.3851 26.404L46.7819 28.6697C45.6875 32.3889 44.9164 33.8267 44.9164 33.8267C44.4917 34.835 43.9862 35.8062 43.4054 36.7306C43.0043 37.3342 42.4913 37.9409 41.7886 38.1715C41.5443 38.2581 41.2831 38.2841 41.0269 38.2474C40.7496 38.2132 40.4819 38.1218 40.2403 37.9788C39.7783 37.6256 39.4108 37.1607 39.1708 36.6263C38.8735 36.0331 38.6068 35.4245 38.3717 34.8031C37.8525 33.5201 37.0503 30.3602 37.0503 30.3602L36.2202 27.0518L35.39 23.7181L34.7993 21.5282C33.2447 15.8246 31.0932 13.0186 31.0932 13.0186C29.4021 10.5679 27.0063 8.70906 24.2344 7.69727C21.0196 6.52494 17.6462 7.18536 17.6462 7.18536C12.3607 8.24078 9.58419 11.9252 8.3623 13.698C8.92154 13.8464 9.45669 14.0763 9.95107 14.3805C10.6126 14.7829 11.1844 15.321 11.63 15.9605C12.4259 17.1107 12.6063 18.5421 12.7648 19.9104C13.0984 22.8758 13.6745 25.8078 14.4873 28.676C16.2782 22.6405 18.4266 19.8282 18.4266 19.8282C18.6666 19.5251 18.9545 19.2645 19.2785 19.0572C19.4471 18.952 19.6357 18.8841 19.8319 18.8581C20.1955 18.8226 20.5603 18.9128 20.8672 19.1141C20.9235 19.1517 20.9765 19.1939 21.0258 19.2405C21.3066 19.4935 21.5478 19.7887 21.7409 20.1158C22.1882 20.9283 22.5758 21.7732 22.9006 22.6437C23.5722 24.5649 24.1443 26.9127 24.1443 26.9127L25.8543 33.7635C27.098 38.4212 28.1519 40.6837 28.1519 40.6837C30.7481 46.7255 34.7185 48.4255 34.7185 48.4255C36.6514 49.4762 38.8011 50.0478 40.9927 50.0939C43.0848 50.1518 45.1599 49.6977 47.0431 48.7699C49.1079 47.7379 50.9192 46.2489 52.3442 44.4124C53.3049 43.2811 54.7195 40.5257 54.7195 40.5257C56.2794 37.3667 57.5041 34.048 58.3728 30.6257C58.9278 28.4935 59.373 26.3334 59.7066 24.1541C59.8745 23.0734 60.0331 21.9864 60.1605 20.8963C60.3194 19.864 60.2877 18.8106 60.0673 17.7901C60.0209 17.6066 59.964 17.4262 59.8962 17.2497C59.3966 15.9691 58.4701 14.9076 57.2784 14.2509C56.3951 13.7737 55.4088 13.5272 54.4086 13.5336Z" fill="url(#paint29_radial_13250_6169)"/>
<path d="M54.4086 13.5336C53.9146 13.5325 53.4227 13.5952 52.9442 13.7201C54.0349 15.3218 54.9608 17.0329 55.7082 18.8265C56.0478 19.5979 56.2225 20.4336 56.2213 21.2786C56.2197 22.0613 56.0664 22.8359 55.7701 23.5583C55.4738 24.2807 55.0407 24.9368 54.4951 25.489C53.9494 26.0412 53.3021 26.4788 52.5898 26.7768C51.8778 27.0748 51.1151 27.2273 50.345 27.2256C49.304 27.2236 48.2824 26.94 47.3851 26.404L46.7819 28.6697C45.6875 32.3889 44.9164 33.8267 44.9164 33.8267C44.4917 34.835 43.9862 35.8062 43.4054 36.7306C43.0043 37.3342 42.4913 37.9409 41.7886 38.1715C41.5443 38.2581 41.2831 38.2841 41.0269 38.2474C40.7496 38.2132 40.4819 38.1218 40.2403 37.9788C39.7783 37.6256 39.4108 37.1607 39.1708 36.6263C38.8735 36.0331 38.6068 35.4245 38.3717 34.8031C37.8525 33.5201 37.0503 30.3602 37.0503 30.3602L36.2202 27.0518L35.39 23.7181L34.7993 21.5282C33.2447 15.8246 31.0932 13.0186 31.0932 13.0186C29.4021 10.5679 27.0063 8.70906 24.2344 7.69727C21.0196 6.52494 17.6462 7.18536 17.6462 7.18536C12.3607 8.24078 9.58419 11.9252 8.3623 13.698C8.92154 13.8464 9.45669 14.0763 9.95107 14.3805C10.6126 14.7829 11.1844 15.321 11.63 15.9605C12.4259 17.1107 12.6063 18.5421 12.7648 19.9104C13.0984 22.8758 13.6745 25.8078 14.4873 28.676C16.2782 22.6405 18.4266 19.8282 18.4266 19.8282C18.6666 19.5251 18.9545 19.2645 19.2785 19.0572C19.4471 18.952 19.6357 18.8841 19.8319 18.8581C20.1955 18.8226 20.5603 18.9128 20.8672 19.1141C20.9235 19.1517 20.9765 19.1939 21.0258 19.2405C21.3066 19.4935 21.5478 19.7887 21.7409 20.1158C22.1882 20.9283 22.5758 21.7732 22.9006 22.6437C23.5722 24.5649 24.1443 26.9127 24.1443 26.9127L25.8543 33.7635C27.098 38.4212 28.1519 40.6837 28.1519 40.6837C30.7481 46.7255 34.7185 48.4255 34.7185 48.4255C36.6514 49.4762 38.8011 50.0478 40.9927 50.0939C43.0848 50.1518 45.1599 49.6977 47.0431 48.7699C49.1079 47.7379 50.9192 46.2489 52.3442 44.4124C53.3049 43.2811 54.7195 40.5257 54.7195 40.5257C56.2794 37.3667 57.5041 34.048 58.3728 30.6257C58.9278 28.4935 59.373 26.3334 59.7066 24.1541C59.8745 23.0734 60.0331 21.9864 60.1605 20.8963C60.3194 19.864 60.2877 18.8106 60.0673 17.7901C60.0209 17.6066 59.964 17.4262 59.8962 17.2497C59.3966 15.9691 58.4701 14.9076 57.2784 14.2509C56.3951 13.7737 55.4088 13.5272 54.4086 13.5336Z" fill="url(#paint30_radial_13250_6169)"/>
<path d="M54.4086 13.5336C53.9146 13.5325 53.4227 13.5952 52.9442 13.7201C54.0349 15.3218 54.9608 17.0329 55.7082 18.8265C56.0478 19.5979 56.2225 20.4336 56.2213 21.2786C56.2197 22.0613 56.0664 22.8359 55.7701 23.5583C55.4738 24.2807 55.0407 24.9368 54.4951 25.489C53.9494 26.0412 53.3021 26.4788 52.5898 26.7768C51.8778 27.0748 51.1151 27.2273 50.345 27.2256C49.304 27.2236 48.2824 26.94 47.3851 26.404L46.7819 28.6697C45.6875 32.3889 44.9164 33.8267 44.9164 33.8267C44.4917 34.835 43.9862 35.8062 43.4054 36.7306C43.0043 37.3342 42.4913 37.9409 41.7886 38.1715C41.5443 38.2581 41.2831 38.2841 41.0269 38.2474C40.7496 38.2132 40.4819 38.1218 40.2403 37.9788C39.7783 37.6256 39.4108 37.1607 39.1708 36.6263C38.8735 36.0331 38.6068 35.4245 38.3717 34.8031C37.8525 33.5201 37.0503 30.3602 37.0503 30.3602L36.2202 27.0518L35.39 23.7181L34.7993 21.5282C33.2447 15.8246 31.0932 13.0186 31.0932 13.0186C29.4021 10.5679 27.0063 8.70906 24.2344 7.69727C21.0196 6.52494 17.6462 7.18536 17.6462 7.18536C12.3607 8.24078 9.58419 11.9252 8.3623 13.698C8.92154 13.8464 9.45669 14.0763 9.95107 14.3805C10.6126 14.7829 11.1844 15.321 11.63 15.9605C12.4259 17.1107 12.6063 18.5421 12.7648 19.9104C13.0984 22.8758 13.6745 25.8078 14.4873 28.676C16.2782 22.6405 18.4266 19.8282 18.4266 19.8282C18.6666 19.5251 18.9545 19.2645 19.2785 19.0572C19.4471 18.952 19.6357 18.8841 19.8319 18.8581C20.1955 18.8226 20.5603 18.9128 20.8672 19.1141C20.9235 19.1517 20.9765 19.1939 21.0258 19.2405C21.3066 19.4935 21.5478 19.7887 21.7409 20.1158C22.1882 20.9283 22.5758 21.7732 22.9006 22.6437C23.5722 24.5649 24.1443 26.9127 24.1443 26.9127L25.8543 33.7635C27.098 38.4212 28.1519 40.6837 28.1519 40.6837C30.7481 46.7255 34.7185 48.4255 34.7185 48.4255C36.6514 49.4762 38.8011 50.0478 40.9927 50.0939C43.0848 50.1518 45.1599 49.6977 47.0431 48.7699C49.1079 47.7379 50.9192 46.2489 52.3442 44.4124C53.3049 43.2811 54.7195 40.5257 54.7195 40.5257C56.2794 37.3667 57.5041 34.048 58.3728 30.6257C58.9278 28.4935 59.373 26.3334 59.7066 24.1541C59.8745 23.0734 60.0331 21.9864 60.1605 20.8963C60.3194 19.864 60.2877 18.8106 60.0673 17.7901C60.0209 17.6066 59.964 17.4262 59.8962 17.2497C59.3966 15.9691 58.4701 14.9076 57.2784 14.2509C56.3951 13.7737 55.4088 13.5272 54.4086 13.5336Z" fill="url(#paint31_radial_13250_6169)"/>
<path d="M54.4086 13.5336C53.9146 13.5325 53.4227 13.5952 52.9442 13.7201C54.0349 15.3218 54.9608 17.0329 55.7082 18.8265C56.0478 19.5979 56.2225 20.4336 56.2213 21.2786C56.2197 22.0613 56.0664 22.8359 55.7701 23.5583C55.4738 24.2807 55.0407 24.9368 54.4951 25.489C53.9494 26.0412 53.3021 26.4788 52.5898 26.7768C51.8778 27.0748 51.1151 27.2273 50.345 27.2256C49.304 27.2236 48.2824 26.94 47.3851 26.404L46.7819 28.6697C45.6875 32.3889 44.9164 33.8267 44.9164 33.8267C44.4917 34.835 43.9862 35.8062 43.4054 36.7306C43.0043 37.3342 42.4913 37.9409 41.7886 38.1715C41.5443 38.2581 41.2831 38.2841 41.0269 38.2474C40.7496 38.2132 40.4819 38.1218 40.2403 37.9788C39.7783 37.6256 39.4108 37.1607 39.1708 36.6263C38.8735 36.0331 38.6068 35.4245 38.3717 34.8031C37.8525 33.5201 37.0503 30.3602 37.0503 30.3602L36.2202 27.0518L35.39 23.7181L34.7993 21.5282C33.2447 15.8246 31.0932 13.0186 31.0932 13.0186C29.4021 10.5679 27.0063 8.70906 24.2344 7.69727C21.0196 6.52494 17.6462 7.18536 17.6462 7.18536C12.3607 8.24078 9.58419 11.9252 8.3623 13.698C8.92154 13.8464 9.45669 14.0763 9.95107 14.3805C10.6126 14.7829 11.1844 15.321 11.63 15.9605C12.4259 17.1107 12.6063 18.5421 12.7648 19.9104C13.0984 22.8758 13.6745 25.8078 14.4873 28.676C16.2782 22.6405 18.4266 19.8282 18.4266 19.8282C18.6666 19.5251 18.9545 19.2645 19.2785 19.0572C19.4471 18.952 19.6357 18.8841 19.8319 18.8581C20.1955 18.8226 20.5603 18.9128 20.8672 19.1141C20.9235 19.1517 20.9765 19.1939 21.0258 19.2405C21.3066 19.4935 21.5478 19.7887 21.7409 20.1158C22.1882 20.9283 22.5758 21.7732 22.9006 22.6437C23.5722 24.5649 24.1443 26.9127 24.1443 26.9127L25.8543 33.7635C27.098 38.4212 28.1519 40.6837 28.1519 40.6837C30.7481 46.7255 34.7185 48.4255 34.7185 48.4255C36.6514 49.4762 38.8011 50.0478 40.9927 50.0939C43.0848 50.1518 45.1599 49.6977 47.0431 48.7699C49.1079 47.7379 50.9192 46.2489 52.3442 44.4124C53.3049 43.2811 54.7195 40.5257 54.7195 40.5257C56.2794 37.3667 57.5041 34.048 58.3728 30.6257C58.9278 28.4935 59.373 26.3334 59.7066 24.1541C59.8745 23.0734 60.0331 21.9864 60.1605 20.8963C60.3194 19.864 60.2877 18.8106 60.0673 17.7901C60.0209 17.6066 59.964 17.4262 59.8962 17.2497C59.3966 15.9691 58.4701 14.9076 57.2784 14.2509C56.3951 13.7737 55.4088 13.5272 54.4086 13.5336Z" fill="url(#paint32_radial_13250_6169)"/>
<path d="M54.4086 13.5336C53.9146 13.5325 53.4227 13.5952 52.9442 13.7201C54.0349 15.3218 54.9608 17.0329 55.7082 18.8265C56.0478 19.5979 56.2225 20.4336 56.2213 21.2786C56.2197 22.0613 56.0664 22.8359 55.7701 23.5583C55.4738 24.2807 55.0407 24.9368 54.4951 25.489C53.9494 26.0412 53.3021 26.4788 52.5898 26.7768C51.8778 27.0748 51.1151 27.2273 50.345 27.2256C49.304 27.2236 48.2824 26.94 47.3851 26.404L46.7819 28.6697C45.6875 32.3889 44.9164 33.8267 44.9164 33.8267C44.4917 34.835 43.9862 35.8062 43.4054 36.7306C43.0043 37.3342 42.4913 37.9409 41.7886 38.1715C41.5443 38.2581 41.2831 38.2841 41.0269 38.2474C40.7496 38.2132 40.4819 38.1218 40.2403 37.9788C39.7783 37.6256 39.4108 37.1607 39.1708 36.6263C38.8735 36.0331 38.6068 35.4245 38.3717 34.8031C37.8525 33.5201 37.0503 30.3602 37.0503 30.3602L36.2202 27.0518L35.39 23.7181L34.7993 21.5282C33.2447 15.8246 31.0932 13.0186 31.0932 13.0186C29.4021 10.5679 27.0063 8.70906 24.2344 7.69727C21.0196 6.52494 17.6462 7.18536 17.6462 7.18536C12.3607 8.24078 9.58419 11.9252 8.3623 13.698C8.92154 13.8464 9.45669 14.0763 9.95107 14.3805C10.6126 14.7829 11.1844 15.321 11.63 15.9605C12.4259 17.1107 12.6063 18.5421 12.7648 19.9104C13.0984 22.8758 13.6745 25.8078 14.4873 28.676C16.2782 22.6405 18.4266 19.8282 18.4266 19.8282C18.6666 19.5251 18.9545 19.2645 19.2785 19.0572C19.4471 18.952 19.6357 18.8841 19.8319 18.8581C20.1955 18.8226 20.5603 18.9128 20.8672 19.1141C20.9235 19.1517 20.9765 19.1939 21.0258 19.2405C21.3066 19.4935 21.5478 19.7887 21.7409 20.1158C22.1882 20.9283 22.5758 21.7732 22.9006 22.6437C23.5722 24.5649 24.1443 26.9127 24.1443 26.9127L25.8543 33.7635C27.098 38.4212 28.1519 40.6837 28.1519 40.6837C30.7481 46.7255 34.7185 48.4255 34.7185 48.4255C36.6514 49.4762 38.8011 50.0478 40.9927 50.0939C43.0848 50.1518 45.1599 49.6977 47.0431 48.7699C49.1079 47.7379 50.9192 46.2489 52.3442 44.4124C53.3049 43.2811 54.7195 40.5257 54.7195 40.5257C56.2794 37.3667 57.5041 34.048 58.3728 30.6257C58.9278 28.4935 59.373 26.3334 59.7066 24.1541C59.8745 23.0734 60.0331 21.9864 60.1605 20.8963C60.3194 19.864 60.2877 18.8106 60.0673 17.7901C60.0209 17.6066 59.964 17.4262 59.8962 17.2497C59.3966 15.9691 58.4701 14.9076 57.2784 14.2509C56.3951 13.7737 55.4088 13.5272 54.4086 13.5336Z" fill="url(#paint33_radial_13250_6169)"/>
<path d="M54.4086 13.5336C53.9146 13.5325 53.4227 13.5952 52.9442 13.7201C54.0349 15.3218 54.9608 17.0329 55.7082 18.8265C56.0478 19.5979 56.2225 20.4336 56.2213 21.2786C56.2197 22.0613 56.0664 22.8359 55.7701 23.5583C55.4738 24.2807 55.0407 24.9368 54.4951 25.489C53.9494 26.0412 53.3021 26.4788 52.5898 26.7768C51.8778 27.0748 51.1151 27.2273 50.345 27.2256C49.304 27.2236 48.2824 26.94 47.3851 26.404L46.7819 28.6697C45.6875 32.3889 44.9164 33.8267 44.9164 33.8267C44.4917 34.835 43.9862 35.8062 43.4054 36.7306C43.0043 37.3342 42.4913 37.9409 41.7886 38.1715C41.5443 38.2581 41.2831 38.2841 41.0269 38.2474C40.7496 38.2132 40.4819 38.1218 40.2403 37.9788C39.7783 37.6256 39.4108 37.1607 39.1708 36.6263C38.8735 36.0331 38.6068 35.4245 38.3717 34.8031C37.8525 33.5201 37.0503 30.3602 37.0503 30.3602L36.2202 27.0518L35.39 23.7181L34.7993 21.5282C33.2447 15.8246 31.0932 13.0186 31.0932 13.0186C29.4021 10.5679 27.0063 8.70906 24.2344 7.69727C21.0196 6.52494 17.6462 7.18536 17.6462 7.18536C12.3607 8.24078 9.58419 11.9252 8.3623 13.698C8.92154 13.8464 9.45669 14.0763 9.95107 14.3805C10.6126 14.7829 11.1844 15.321 11.63 15.9605C12.4259 17.1107 12.6063 18.5421 12.7648 19.9104C13.0984 22.8758 13.6745 25.8078 14.4873 28.676C16.2782 22.6405 18.4266 19.8282 18.4266 19.8282C18.6666 19.5251 18.9545 19.2645 19.2785 19.0572C19.4471 18.952 19.6357 18.8841 19.8319 18.8581C20.1955 18.8226 20.5603 18.9128 20.8672 19.1141C20.9235 19.1517 20.9765 19.1939 21.0258 19.2405C21.3066 19.4935 21.5478 19.7887 21.7409 20.1158C22.1882 20.9283 22.5758 21.7732 22.9006 22.6437C23.5722 24.5649 24.1443 26.9127 24.1443 26.9127L25.8543 33.7635C27.098 38.4212 28.1519 40.6837 28.1519 40.6837C30.7481 46.7255 34.7185 48.4255 34.7185 48.4255C36.6514 49.4762 38.8011 50.0478 40.9927 50.0939C43.0848 50.1518 45.1599 49.6977 47.0431 48.7699C49.1079 47.7379 50.9192 46.2489 52.3442 44.4124C53.3049 43.2811 54.7195 40.5257 54.7195 40.5257C56.2794 37.3667 57.5041 34.048 58.3728 30.6257C58.9278 28.4935 59.373 26.3334 59.7066 24.1541C59.8745 23.0734 60.0331 21.9864 60.1605 20.8963C60.3194 19.864 60.2877 18.8106 60.0673 17.7901C60.0209 17.6066 59.964 17.4262 59.8962 17.2497C59.3966 15.9691 58.4701 14.9076 57.2784 14.2509C56.3951 13.7737 55.4088 13.5272 54.4086 13.5336Z" fill="url(#paint34_linear_13250_6169)"/>
<path d="M200.347 56.8838H197.553V67.9865H200.347V56.8838Z" fill="black"/>
<path d="M222.991 60.0642C222.268 59.6715 221.458 59.468 220.635 59.4727C218.816 59.4727 217.555 60.7332 217.555 62.4334C217.555 64.0841 218.763 65.3972 220.635 65.3972C221.457 65.4003 222.267 65.1981 222.991 64.8088V67.7881C222.162 68.043 221.3 68.1755 220.433 68.1814C217.276 68.1814 214.507 66.0135 214.507 62.4334C214.507 59.1196 217.015 56.6885 220.433 56.6885C221.301 56.6906 222.163 56.8244 222.991 57.0849V60.0642Z" fill="black"/>
<path d="M193.682 60.0642C192.958 59.6712 192.146 59.4677 191.322 59.4727C189.503 59.4727 188.246 60.7332 188.246 62.4334C188.246 64.0841 189.45 65.3972 191.322 65.3972C192.146 65.3991 192.956 65.1968 193.682 64.8088V67.7881C192.852 68.043 191.989 68.1755 191.121 68.1814C187.963 68.1814 185.194 66.0135 185.194 62.4334C185.194 59.1196 187.703 56.6885 191.121 56.6885C191.989 56.6906 192.853 56.8241 193.682 57.0849V60.0642Z" fill="black"/>
<path d="M231.825 59.5129C231.44 59.5095 231.06 59.5829 230.704 59.7288C230.349 59.8747 230.026 60.0902 229.756 60.3624C229.486 60.6347 229.272 60.958 229.129 61.3138C228.986 61.6694 228.916 62.0503 228.922 62.4334C228.915 62.8171 228.985 63.1984 229.127 63.5545C229.27 63.9107 229.483 64.2349 229.754 64.5075C230.025 64.78 230.347 64.9959 230.703 65.1417C231.059 65.2876 231.44 65.3607 231.825 65.357C232.209 65.3604 232.591 65.287 232.946 65.1408C233.302 64.9946 233.625 64.7791 233.896 64.5065C234.167 64.2343 234.38 63.9104 234.523 63.5542C234.667 63.198 234.737 62.8171 234.73 62.4334C234.737 62.05 234.666 61.6694 234.522 61.3135C234.379 60.9577 234.165 60.6344 233.895 60.3621C233.624 60.0899 233.301 59.8747 232.946 59.7288C232.59 59.5829 232.209 59.5095 231.825 59.5129ZM237.704 62.4334C237.704 65.6109 235.249 68.1814 231.825 68.1814C228.401 68.1814 225.948 65.6109 225.948 62.4334C225.948 59.2559 228.404 56.6885 231.825 56.6885C235.246 56.6885 237.704 59.2621 237.704 62.4334Z" fill="black"/>
<path d="M210.997 59.4077C210.281 59.2113 209.545 59.0983 208.802 59.0701C207.679 59.0701 207.067 59.4448 207.067 59.9775C207.067 60.6558 207.893 60.9066 208.352 61.0367L209.128 61.2813C210.95 61.8605 211.779 63.1055 211.779 64.4589C211.779 67.2462 209.324 68.1753 207.173 68.1753C206.156 68.1632 205.141 68.0594 204.143 67.8656V65.3105C205.005 65.5598 205.896 65.6983 206.794 65.7224C208.191 65.7224 208.833 65.3167 208.833 64.6849C208.833 64.1244 208.278 63.7992 207.592 63.5793L206.992 63.3873C205.44 62.8949 204.124 61.9782 204.124 60.1386C204.124 58.0636 205.676 56.6699 208.271 56.6699C209.194 56.6826 210.111 56.8012 211.006 57.023L210.997 59.4077Z" fill="black"/>
<path d="M165.578 67.949H164.358V56.8711H165.839V61.0551C166.135 60.6222 166.538 60.2722 167.007 60.0381C167.477 59.8039 167.999 59.6934 168.524 59.7172C169.039 59.6928 169.551 59.7928 170.018 60.0087C170.485 60.2242 170.892 60.5494 171.207 60.956C171.772 61.6953 172.054 62.6749 172.054 63.8951C172.054 65.3404 171.669 66.4479 170.899 67.2182C170.573 67.5399 170.185 67.792 169.758 67.9586C169.331 68.1253 168.874 68.2033 168.416 68.1875C167.906 68.2135 167.399 68.1085 166.942 67.8821C166.486 67.6561 166.095 67.3163 165.808 66.8961L165.578 67.949ZM170.511 63.8548C170.511 62.8492 170.26 62.0957 169.757 61.594C169.552 61.3871 169.306 61.2252 169.035 61.1186C168.764 61.0118 168.474 60.9628 168.183 60.9746C167.841 60.9607 167.502 61.027 167.191 61.1685C166.881 61.31 166.608 61.5228 166.395 61.7891C165.954 62.3841 165.735 63.1131 165.774 63.8517C165.774 64.8768 166.025 65.6635 166.531 66.2054C166.739 66.4393 166.996 66.6238 167.283 66.7465C167.571 66.8691 167.882 66.9267 168.195 66.9146C168.537 66.9338 168.877 66.866 169.185 66.7177C169.493 66.569 169.758 66.3448 169.956 66.0661C170.33 65.5458 170.517 64.8087 170.517 63.8548H170.511Z" fill="black"/>
<path d="M179.988 59.9466L177.194 68.0546C176.822 69.1323 176.467 69.8663 176.129 70.2565C175.939 70.4804 175.701 70.6588 175.432 70.7784C175.164 70.8979 174.871 70.9555 174.577 70.9471C174.254 70.9391 173.933 70.8933 173.621 70.8109V69.6031C173.873 69.6699 174.133 69.7062 174.394 69.7114C174.535 69.7183 174.675 69.6919 174.803 69.6343C174.932 69.5767 175.045 69.4897 175.133 69.3801C175.416 68.9319 175.639 68.4488 175.797 67.9431H175.319L172.373 59.9404H173.959L176.229 66.7538L178.495 59.9404L179.988 59.9466Z" fill="black"/>
<path d="M113.895 17.7109H120.17L111.047 45.2234H103.848L97.0291 24.462L90.2101 45.2234H83.1236L74 17.7109H80.4219L86.8956 38.6187L93.6886 17.7109H100.508L107.413 38.7307L113.895 17.7109Z" fill="black"/>
<path d="M147.084 33.6762H126.73C126.918 35.0949 127.452 36.446 128.284 37.6114C129.021 38.6311 130.02 39.4342 131.176 39.9364C132.352 40.4435 133.623 40.6987 134.904 40.6856C136.325 40.6802 137.734 40.4237 139.065 39.9278C140.445 39.4244 141.733 38.7002 142.88 37.7837L145.875 42.0892C144.348 43.4178 142.569 44.4279 140.644 45.06C138.667 45.6791 136.605 45.9842 134.533 45.9642C131.981 46.0144 129.461 45.3969 127.222 44.1731C125.105 42.9894 123.371 41.2267 122.225 39.0925C120.991 36.7533 120.374 34.14 120.429 31.4975C120.376 28.88 120.969 26.2895 122.156 23.9542C123.258 21.8301 124.94 20.06 127.006 18.8478C129.175 17.6027 131.643 16.9715 134.145 17.0223C136.506 16.9571 138.835 17.5723 140.854 18.7941C142.873 20.0159 144.497 21.7925 145.53 23.9112C146.67 26.2541 147.238 28.8332 147.187 31.4373C147.196 32.0142 147.161 32.7634 147.084 33.6762ZM141.041 29.1123C140.856 27.2267 140.045 25.4569 138.737 24.0834C138.11 23.4971 137.371 23.0425 136.564 22.7467C135.758 22.4508 134.9 22.3197 134.041 22.3612C133.138 22.3199 132.235 22.4602 131.387 22.7738C130.539 23.0874 129.762 23.5679 129.104 24.1867C127.8 25.5401 126.968 27.2762 126.73 29.1381L141.041 29.1123Z" fill="black"/>
<path d="M172.831 18.865C174.931 20.104 176.653 21.8902 177.812 24.0317C179.051 26.3141 179.681 28.8762 179.642 31.4717C179.681 34.0644 179.051 36.6237 177.812 38.9031C176.653 41.0544 174.924 42.8476 172.815 44.088C170.706 45.3283 168.297 45.9683 165.848 45.9383C164.13 45.9743 162.427 45.6179 160.868 44.8964C159.439 44.2091 158.19 43.2011 157.217 41.9514V45.2236H151.175V6H157.217V20.9833C158.194 19.7421 159.443 18.7405 160.868 18.0556C162.425 17.327 164.129 16.9674 165.848 17.005C168.303 16.975 170.719 17.6185 172.831 18.865ZM169.534 39.1097C170.787 38.3411 171.796 37.2332 172.443 35.915C173.107 34.5259 173.452 33.0063 173.452 31.4674C173.452 29.9284 173.107 28.4088 172.443 27.0197C171.793 25.7034 170.785 24.5962 169.534 23.825C168.204 23.066 166.699 22.6667 165.167 22.6667C163.634 22.6667 162.129 23.066 160.799 23.825C159.545 24.5849 158.528 25.6795 157.864 26.9853C157.146 28.38 156.785 29.9299 156.811 31.4975C156.784 33.0624 157.146 34.6098 157.864 36.0011C158.528 37.3069 159.545 38.4015 160.799 39.1614C162.129 39.9204 163.634 40.3197 165.167 40.3197C166.699 40.3197 168.204 39.9204 169.534 39.1614V39.1097Z" fill="black"/>
<path d="M209.455 33.6762H189.111C189.299 35.0949 189.832 36.446 190.664 37.6114C191.402 38.6311 192.401 39.4342 193.556 39.9364C194.733 40.4435 196.003 40.6987 197.285 40.6856C198.706 40.679 200.114 40.4224 201.445 39.9278C202.825 39.4244 204.114 38.7002 205.26 37.7837L208.247 42.0892C206.724 43.4195 204.948 44.4299 203.025 45.06C201.045 45.6786 198.98 45.9837 196.905 45.9642C194.353 46.0116 191.833 45.3942 189.594 44.1731C187.481 42.9866 185.751 41.2244 184.605 39.0925C183.369 36.754 182.748 34.1407 182.801 31.4975C182.749 28.88 183.341 26.2896 184.527 23.9542C185.63 21.8301 187.311 20.06 189.378 18.8478C191.559 17.5845 194.047 16.944 196.568 16.9964C198.929 16.9345 201.257 17.551 203.275 18.7724C205.294 19.9939 206.918 21.7687 207.953 23.8853C209.094 26.2283 209.662 28.8074 209.611 31.4114C209.576 32.0142 209.516 32.7634 209.455 33.6762ZM203.413 29.1123C203.214 27.2389 202.401 25.4833 201.1 24.1178C200.477 23.5283 199.742 23.0691 198.939 22.7674C198.135 22.4657 197.28 22.3276 196.422 22.3612C195.518 22.3189 194.615 22.4588 193.767 22.7724C192.918 23.0861 192.142 23.5671 191.484 24.1867C190.178 25.538 189.345 27.2751 189.111 29.1381L203.413 29.1123Z" fill="black"/>
<path d="M238.156 45.2234H230.758L223.767 35.6565L216.862 45.2234H209.81L220.167 31.1787L209.974 17.7109H217.379L224.112 26.899L230.845 17.7109H238L227.763 31.127L238.156 45.2234Z" fill="black"/>
<defs>
<linearGradient id="paint0_linear_13250_6169" x1="3.6552" y1="36.111" x2="49.9523" y2="17.698" gradientUnits="userSpaceOnUse">
<stop offset="0.13" stop-color="#1CBBF3"/>
<stop offset="0.34" stop-color="#1F99A5"/>
<stop offset="0.45" stop-color="#209CA6"/>
<stop offset="0.51" stop-color="#24A4AA"/>
<stop offset="0.57" stop-color="#2BB3B0"/>
<stop offset="0.6" stop-color="#30BDB4"/>
<stop offset="0.79" stop-color="#38BA90"/>
<stop offset="1" stop-color="#60F05A"/>
</linearGradient>
<radialGradient id="paint1_radial_13250_6169" cx="0" cy="0" r="1" gradientTransform="matrix(5.95344 21.5549 -16.1184 4.59852 34.3367 24.9884)" gradientUnits="userSpaceOnUse">
<stop stop-color="#227B60"/>
<stop offset="0.14" stop-color="#227B60" stop-opacity="0.81"/>
<stop offset="0.58" stop-color="#227B60" stop-opacity="0.23"/>
<stop offset="0.78" stop-color="#227B60" stop-opacity="0"/>
</radialGradient>
<radialGradient id="paint2_radial_13250_6169" cx="0" cy="0" r="1" gradientTransform="matrix(-0.297865 15.136 -11.3169 -0.230043 37.5316 23.4327)" gradientUnits="userSpaceOnUse">
<stop stop-color="#227B60"/>
<stop offset="0.25" stop-color="#227B60" stop-opacity="0.7"/>
<stop offset="0.71" stop-color="#227B60" stop-opacity="0.2"/>
<stop offset="0.92" stop-color="#227B60" stop-opacity="0"/>
</radialGradient>
<radialGradient id="paint3_radial_13250_6169" cx="0" cy="0" r="1" gradientTransform="matrix(0.33925 14.108 -9.85569 0.244802 36.9571 23.988)" gradientUnits="userSpaceOnUse">
<stop stop-color="#227B60"/>
<stop offset="0.07" stop-color="#227B60" stop-opacity="0.9"/>
<stop offset="0.34" stop-color="#227B60" stop-opacity="0.51"/>
<stop offset="0.59" stop-color="#227B60" stop-opacity="0.23"/>
<stop offset="0.79" stop-color="#227B60" stop-opacity="0.06"/>
<stop offset="0.92" stop-color="#227B60" stop-opacity="0"/>
</radialGradient>
<radialGradient id="paint4_radial_13250_6169" cx="0" cy="0" r="1" gradientTransform="matrix(0.273922 11.3913 -7.95782 0.197662 37.1921 23.3448)" gradientUnits="userSpaceOnUse">
<stop stop-color="#227B60"/>
<stop offset="0.36" stop-color="#227B60" stop-opacity="0.63"/>
<stop offset="0.92" stop-color="#227B60" stop-opacity="0"/>
</radialGradient>
<radialGradient id="paint5_radial_13250_6169" cx="0" cy="0" r="1" gradientTransform="matrix(0.218469 9.08522 -5.72109 0.142104 37.6812 23.9854)" gradientUnits="userSpaceOnUse">
<stop stop-color="#20735A"/>
<stop offset="0.15" stop-color="#20745A" stop-opacity="0.93"/>
<stop offset="0.38" stop-color="#21755C" stop-opacity="0.74"/>
<stop offset="0.67" stop-color="#21785D" stop-opacity="0.43"/>
<stop offset="1" stop-color="#227B60" stop-opacity="0"/>
</radialGradient>
<radialGradient id="paint6_radial_13250_6169" cx="0" cy="0" r="1" gradientTransform="matrix(13.1654 5.90149 -4.35498 10.0354 38.8791 25.4349)" gradientUnits="userSpaceOnUse">
<stop stop-color="#227A61"/>
<stop offset="0.36" stop-color="#227A61" stop-opacity="0.56"/>
<stop offset="0.72" stop-color="#227A61" stop-opacity="0.16"/>
<stop offset="0.9" stop-color="#227A61" stop-opacity="0"/>
</radialGradient>
<radialGradient id="paint7_radial_13250_6169" cx="0" cy="0" r="1" gradientTransform="matrix(15.6666 11.2623 -10.1322 14.5588 35.0655 2.58515)" gradientUnits="userSpaceOnUse">
<stop stop-color="#3CD9C3"/>
<stop offset="0.07" stop-color="#3BD7C1" stop-opacity="0.9"/>
<stop offset="0.41" stop-color="#38CEB9" stop-opacity="0.42"/>
<stop offset="0.65" stop-color="#36C8B4" stop-opacity="0.12"/>
<stop offset="0.76" stop-color="#35C6B2" stop-opacity="0"/>
</radialGradient>
<radialGradient id="paint8_radial_13250_6169" cx="0" cy="0" r="1" gradientTransform="matrix(2782.56 2000.3 -1381.53 1985.11 16669.6 -8848.3)" gradientUnits="userSpaceOnUse">
<stop stop-color="#3CD9C3"/>
<stop offset="0.07" stop-color="#3BD7C1" stop-opacity="0.9"/>
<stop offset="0.41" stop-color="#38CEB9" stop-opacity="0.42"/>
<stop offset="0.65" stop-color="#36C8B4" stop-opacity="0.12"/>
<stop offset="0.76" stop-color="#35C6B2" stop-opacity="0"/>
</radialGradient>
<radialGradient id="paint9_radial_13250_6169" cx="0" cy="0" r="1" gradientTransform="matrix(-3.22121 16.8864 -20.5316 -4.04555 42.7087 28.8016)" gradientUnits="userSpaceOnUse">
<stop stop-color="#237F66" stop-opacity="0.8"/>
<stop offset="0.06" stop-color="#2C8C70" stop-opacity="0.65"/>
<stop offset="0.21" stop-color="#3DA785" stop-opacity="0.37"/>
<stop offset="0.35" stop-color="#4ABA93" stop-opacity="0.17"/>
<stop offset="0.47" stop-color="#51C59C" stop-opacity="0.04"/>
<stop offset="0.56" stop-color="#54C99F" stop-opacity="0"/>
</radialGradient>
<radialGradient id="paint10_radial_13250_6169" cx="0" cy="0" r="1" gradientTransform="matrix(13.9715 -17.423 18.5144 15.3357 32.2262 30.0255)" gradientUnits="userSpaceOnUse">
<stop stop-color="#167C8A"/>
<stop offset="0.04" stop-color="#167C8A" stop-opacity="0.93"/>
<stop offset="0.33" stop-color="#177F8D" stop-opacity="0.43"/>
<stop offset="0.54" stop-color="#17818F" stop-opacity="0.12"/>
<stop offset="0.65" stop-color="#178290" stop-opacity="0"/>
</radialGradient>
<radialGradient id="paint11_radial_13250_6169" cx="0" cy="0" r="1" gradientTransform="matrix(18.3636 -11.5088 8.94585 14.7442 30.8994 32.296)" gradientUnits="userSpaceOnUse">
<stop offset="0.05" stop-color="#177D87"/>
<stop offset="0.11" stop-color="#177E89" stop-opacity="0.8"/>
<stop offset="0.21" stop-color="#177F8B" stop-opacity="0.52"/>
<stop offset="0.32" stop-color="#17818D" stop-opacity="0.29"/>
<stop offset="0.42" stop-color="#17818F" stop-opacity="0.13"/>
<stop offset="0.51" stop-color="#178290" stop-opacity="0.03"/>
<stop offset="0.6" stop-color="#178290" stop-opacity="0"/>
</radialGradient>
<radialGradient id="paint12_radial_13250_6169" cx="0" cy="0" r="1" gradientTransform="matrix(-8.35454 -9.92799 7.69186 -6.68599 25.5794 32.6741)" gradientUnits="userSpaceOnUse">
<stop offset="0.26" stop-color="#177F8A"/>
<stop offset="0.27" stop-color="#177F8A" stop-opacity="0.98"/>
<stop offset="0.38" stop-color="#17808C" stop-opacity="0.68"/>
<stop offset="0.5" stop-color="#17818D" stop-opacity="0.43"/>
<stop offset="0.62" stop-color="#17818F" stop-opacity="0.24"/>
<stop offset="0.74" stop-color="#17828F" stop-opacity="0.11"/>
<stop offset="0.86" stop-color="#178290" stop-opacity="0.03"/>
<stop offset="1" stop-color="#178290" stop-opacity="0"/>
</radialGradient>
<radialGradient id="paint13_radial_13250_6169" cx="0" cy="0" r="1" gradientTransform="matrix(-11.9702 -1.47005 1.44643 -12.1657 23.2493 35.8854)" gradientUnits="userSpaceOnUse">
<stop stop-color="#13656E"/>
<stop offset="0.11" stop-color="#13646E" stop-opacity="0.73"/>
<stop offset="0.27" stop-color="#12646E" stop-opacity="0.41"/>
<stop offset="0.42" stop-color="#12636E" stop-opacity="0.18"/>
<stop offset="0.55" stop-color="#12636E" stop-opacity="0.05"/>
<stop offset="0.66" stop-color="#12636E" stop-opacity="0"/>
</radialGradient>
<radialGradient id="paint14_radial_13250_6169" cx="0" cy="0" r="1" gradientTransform="matrix(-4.12903 -7.47191 6.17553 -3.52504 22.9329 37.7103)" gradientUnits="userSpaceOnUse">
<stop offset="0.13" stop-color="#146A73"/>
<stop offset="0.24" stop-color="#156F79" stop-opacity="0.79"/>
<stop offset="0.45" stop-color="#167783" stop-opacity="0.45"/>
<stop offset="0.65" stop-color="#167D8A" stop-opacity="0.2"/>
<stop offset="0.82" stop-color="#17818E" stop-opacity="0.05"/>
<stop offset="0.95" stop-color="#178290" stop-opacity="0"/>
</radialGradient>
<radialGradient id="paint15_radial_13250_6169" cx="0" cy="0" r="1" gradientTransform="matrix(4.43636 -6.68272 5.20911 3.57199 22.2759 34.1385)" gradientUnits="userSpaceOnUse">
<stop stop-color="#198E9C"/>
<stop offset="0.1" stop-color="#198E9C" stop-opacity="0.87"/>
<stop offset="0.41" stop-color="#198E9C" stop-opacity="0.5"/>
<stop offset="0.67" stop-color="#198E9C" stop-opacity="0.23"/>
<stop offset="0.88" stop-color="#198E9C" stop-opacity="0.06"/>
<stop offset="1" stop-color="#198E9C" stop-opacity="0"/>
</radialGradient>
<linearGradient id="paint16_linear_13250_6169" x1="6.62444" y1="6.01904" x2="27.2618" y2="24.8126" gradientUnits="userSpaceOnUse">
<stop offset="0.13" stop-color="#2BF9FF"/>
<stop offset="0.27" stop-color="#29F9FF" stop-opacity="0.64"/>
<stop offset="0.4" stop-color="#27FAFF" stop-opacity="0.3"/>
<stop offset="0.49" stop-color="#26FAFF" stop-opacity="0.08"/>
<stop offset="0.54" stop-color="#26FAFF" stop-opacity="0"/>
</linearGradient>
<linearGradient id="paint17_linear_13250_6169" x1="-4.8918" y1="37.2327" x2="18.9184" y2="30.5908" gradientUnits="userSpaceOnUse">
<stop stop-color="#26FAFF"/>
<stop offset="0.06" stop-color="#26FAFF" stop-opacity="0.88"/>
<stop offset="0.24" stop-color="#26FAFF" stop-opacity="0.51"/>
<stop offset="0.39" stop-color="#26FAFF" stop-opacity="0.23"/>
<stop offset="0.5" stop-color="#26FAFF" stop-opacity="0.06"/>
<stop offset="0.55" stop-color="#26FAFF" stop-opacity="0"/>
</linearGradient>
<linearGradient id="paint18_linear_13250_6169" x1="1.40108" y1="36.3922" x2="28.2704" y2="26.9697" gradientUnits="userSpaceOnUse">
<stop stop-color="#21DEFF"/>
<stop offset="0.04" stop-color="#21DEFF" stop-opacity="0.88"/>
<stop offset="0.17" stop-color="#21DEFF" stop-opacity="0.51"/>
<stop offset="0.27" stop-color="#21DEFF" stop-opacity="0.23"/>
<stop offset="0.34" stop-color="#21DEFF" stop-opacity="0.06"/>
<stop offset="0.38" stop-color="#21DEFF" stop-opacity="0"/>
</linearGradient>
<linearGradient id="paint19_linear_13250_6169" x1="26.84" y1="22.3558" x2="42.1688" y2="46.9556" gradientUnits="userSpaceOnUse">
<stop offset="0.62" stop-color="#21DEFF" stop-opacity="0"/>
<stop offset="0.66" stop-color="#21DEFF" stop-opacity="0.06"/>
<stop offset="0.73" stop-color="#21DEFF" stop-opacity="0.23"/>
<stop offset="0.83" stop-color="#21DEFF" stop-opacity="0.51"/>
<stop offset="0.96" stop-color="#21DEFF" stop-opacity="0.88"/>
<stop offset="1" stop-color="#21DEFF"/>
</linearGradient>
<linearGradient id="paint20_linear_13250_6169" x1="43.5051" y1="31.6304" x2="41.074" y2="19.97" gradientUnits="userSpaceOnUse">
<stop stop-color="#44B044"/>
<stop offset="0.11" stop-color="#44B044" stop-opacity="0.8"/>
<stop offset="0.27" stop-color="#44B044" stop-opacity="0.52"/>
<stop offset="0.43" stop-color="#44B044" stop-opacity="0.29"/>
<stop offset="0.58" stop-color="#44B044" stop-opacity="0.13"/>
<stop offset="0.7" stop-color="#44B044" stop-opacity="0.03"/>
<stop offset="0.8" stop-color="#44B044" stop-opacity="0"/>
</linearGradient>
<linearGradient id="paint21_linear_13250_6169" x1="10.6444" y1="19.528" x2="60.37" y2="35.7253" gradientUnits="userSpaceOnUse">
<stop stop-color="#3066FB"/>
<stop offset="0.38" stop-color="#2F64F7"/>
<stop offset="0.74" stop-color="#2857D9"/>
<stop offset="1" stop-color="#3C7EFF"/>
</linearGradient>
<radialGradient id="paint22_radial_13250_6169" cx="0" cy="0" r="1" gradientTransform="matrix(-4.00512 26.6322 -17.2948 -2.68656 45.6356 27.14)" gradientUnits="userSpaceOnUse">
<stop stop-color="#1A3D9C"/>
<stop offset="0.4" stop-color="#1A3D9C" stop-opacity="0.42"/>
<stop offset="0.7" stop-color="#1A3D9C" stop-opacity="0"/>
</radialGradient>
<radialGradient id="paint23_radial_13250_6169" cx="0" cy="0" r="1" gradientTransform="matrix(-492.659 3275.96 -1738.3 -270.027 7799.63 13116.9)" gradientUnits="userSpaceOnUse">
<stop stop-color="#1A3D9C"/>
<stop offset="0.4" stop-color="#1A3D9C" stop-opacity="0.42"/>
<stop offset="0.7" stop-color="#1A3D9C" stop-opacity="0"/>
</radialGradient>
<radialGradient id="paint24_radial_13250_6169" cx="0" cy="0" r="1" gradientTransform="matrix(-581.742 3902.24 -1586.5 -244.303 5892.37 12544.3)" gradientUnits="userSpaceOnUse">
<stop stop-color="#1A3D9C"/>
<stop offset="0.4" stop-color="#1A3D9C" stop-opacity="0.42"/>
<stop offset="0.7" stop-color="#1A3D9C" stop-opacity="0"/>
</radialGradient>
<radialGradient id="paint25_radial_13250_6169" cx="0" cy="0" r="1" gradientTransform="matrix(2.78814 23.378 -16.0495 1.97716 41.4177 25.3255)" gradientUnits="userSpaceOnUse">
<stop stop-color="#1A3D9C"/>
<stop offset="0.16" stop-color="#1A3D9C" stop-opacity="0.69"/>
<stop offset="0.33" stop-color="#1A3D9C" stop-opacity="0.4"/>
<stop offset="0.49" stop-color="#1A3D9C" stop-opacity="0.18"/>
<stop offset="0.61" stop-color="#1A3D9C" stop-opacity="0.05"/>
<stop offset="0.7" stop-color="#1A3D9C" stop-opacity="0"/>
</radialGradient>
<radialGradient id="paint26_radial_13250_6169" cx="0" cy="0" r="1" gradientTransform="matrix(5.89831 21.823 -14.6011 4.07637 46.5229 29.7353)" gradientUnits="userSpaceOnUse">
<stop stop-color="#18388F"/>
<stop offset="0.37" stop-color="#193B96" stop-opacity="0.45"/>
<stop offset="0.7" stop-color="#1A3D9C" stop-opacity="0"/>
</radialGradient>
<radialGradient id="paint27_radial_13250_6169" cx="0" cy="0" r="1" gradientTransform="matrix(2.74244 10.1467 -9.48442 2.64788 44.3049 35.7673)" gradientUnits="userSpaceOnUse">
<stop stop-color="#18388F"/>
<stop offset="0.09" stop-color="#183992" stop-opacity="0.78"/>
<stop offset="0.22" stop-color="#193B96" stop-opacity="0.5"/>
<stop offset="0.35" stop-color="#193C98" stop-opacity="0.28"/>
<stop offset="0.47" stop-color="#1A3C9A" stop-opacity="0.13"/>
<stop offset="0.59" stop-color="#1A3D9C" stop-opacity="0.03"/>
<stop offset="0.7" stop-color="#1A3D9C" stop-opacity="0"/>
</radialGradient>
<radialGradient id="paint28_radial_13250_6169" cx="0" cy="0" r="1" gradientTransform="matrix(2.74244 10.1467 -9.48442 2.64788 44.5533 37.5623)" gradientUnits="userSpaceOnUse">
<stop stop-color="#1A3D9C" stop-opacity="0.8"/>
<stop offset="0.01" stop-color="#1A3D9C" stop-opacity="0.78"/>
<stop offset="0.24" stop-color="#1A3D9C" stop-opacity="0.45"/>
<stop offset="0.44" stop-color="#1A3D9C" stop-opacity="0.2"/>
<stop offset="0.6" stop-color="#1A3D9C" stop-opacity="0.05"/>
<stop offset="0.7" stop-color="#1A3D9C" stop-opacity="0"/>
</radialGradient>
<radialGradient id="paint29_radial_13250_6169" cx="0" cy="0" r="1" gradientTransform="matrix(9.6435 23.1204 -15.096 6.50391 17.7611 31.3641)" gradientUnits="userSpaceOnUse">
<stop stop-color="#1A3D9C"/>
<stop offset="0.4" stop-color="#1A3D9C" stop-opacity="0.56"/>
<stop offset="0.48" stop-color="#1A3D9C" stop-opacity="0.43"/>
<stop offset="0.69" stop-color="#1A3D9C" stop-opacity="0.12"/>
<stop offset="0.79" stop-color="#1A3D9C" stop-opacity="0"/>
</radialGradient>
<radialGradient id="paint30_radial_13250_6169" cx="0" cy="0" r="1" gradientTransform="matrix(4.40179 18.0812 -11.7452 2.95349 16.1798 25.4797)" gradientUnits="userSpaceOnUse">
<stop stop-color="#1A3D9C"/>
<stop offset="0.06" stop-color="#1A3D9C" stop-opacity="0.88"/>
<stop offset="0.21" stop-color="#1A3D9C" stop-opacity="0.61"/>
<stop offset="0.36" stop-color="#1A3D9C" stop-opacity="0.39"/>
<stop offset="0.51" stop-color="#1A3D9C" stop-opacity="0.22"/>
<stop offset="0.67" stop-color="#1A3D9C" stop-opacity="0.1"/>
<stop offset="0.83" stop-color="#1A3D9C" stop-opacity="0.02"/>
<stop offset="1" stop-color="#1A3D9C" stop-opacity="0"/>
</radialGradient>
<radialGradient id="paint31_radial_13250_6169" cx="0" cy="0" r="1" gradientTransform="matrix(4.40179 18.0812 -11.7452 2.95349 16.1798 25.4797)" gradientUnits="userSpaceOnUse">
<stop stop-color="#1B3E9E"/>
<stop offset="0.06" stop-color="#1B3E9E" stop-opacity="0.87"/>
<stop offset="0.21" stop-color="#1B3E9D" stop-opacity="0.61"/>
<stop offset="0.36" stop-color="#1A3D9D" stop-opacity="0.39"/>
<stop offset="0.52" stop-color="#1A3D9C" stop-opacity="0.22"/>
<stop offset="0.67" stop-color="#1A3D9C" stop-opacity="0.1"/>
<stop offset="0.83" stop-color="#1A3D9C" stop-opacity="0.02"/>
<stop offset="1" stop-color="#1A3D9C" stop-opacity="0"/>
</radialGradient>
<radialGradient id="paint32_radial_13250_6169" cx="0" cy="0" r="1" gradientTransform="matrix(3.36757 13.8329 -8.98556 2.25955 16.8747 23.6637)" gradientUnits="userSpaceOnUse">
<stop stop-color="#183991"/>
<stop offset="0.03" stop-color="#183992" stop-opacity="0.95"/>
<stop offset="0.18" stop-color="#193A95" stop-opacity="0.66"/>
<stop offset="0.34" stop-color="#193B97" stop-opacity="0.42"/>
<stop offset="0.5" stop-color="#1A3C99" stop-opacity="0.24"/>
<stop offset="0.66" stop-color="#1A3D9B" stop-opacity="0.1"/>
<stop offset="0.82" stop-color="#1A3D9C" stop-opacity="0.03"/>
<stop offset="1" stop-color="#1A3D9C" stop-opacity="0"/>
</radialGradient>
<radialGradient id="paint33_radial_13250_6169" cx="0" cy="0" r="1" gradientTransform="matrix(0.55327 11.2462 -9.74088 0.494999 19.5005 25.5445)" gradientUnits="userSpaceOnUse">
<stop offset="0.04" stop-color="#2453D6" stop-opacity="0.6"/>
<stop offset="0.2" stop-color="#2453D6" stop-opacity="0.49"/>
<stop offset="0.52" stop-color="#2453D6" stop-opacity="0.2"/>
<stop offset="0.73" stop-color="#2453D6" stop-opacity="0"/>
</radialGradient>
<linearGradient id="paint34_linear_13250_6169" x1="42.852" y1="-1.04308" x2="29.9787" y2="30.2657" gradientUnits="userSpaceOnUse">
<stop stop-color="#3774FF"/>
<stop offset="0.05" stop-color="#3774FF" stop-opacity="0.91"/>
<stop offset="0.16" stop-color="#3774FF" stop-opacity="0.66"/>
<stop offset="0.32" stop-color="#3774FF" stop-opacity="0.28"/>
<stop offset="0.43" stop-color="#3774FF" stop-opacity="0"/>
</linearGradient>
</defs>
</svg>
