<svg width="238" height="67" viewBox="0 0 238 67" fill="none" xmlns="http://www.w3.org/2000/svg">
<g clip-path="url(#clip0_13250_6184)">
<path d="M5.82094 19.6002C2.97375 19.8157 0.627453 22.8326 1.04926 25.9303C1.18107 27.0617 1.47107 28.8126 1.84015 30.7251C1.99832 31.587 2.18286 32.5029 2.3674 33.3918C2.82761 35.5405 3.39962 37.6625 4.08099 39.7489C4.81266 42.0635 5.70239 44.3227 6.74364 46.51C10.7244 54.4295 16.1025 56.0996 19.9251 56.0996C21.7203 56.1153 23.4982 55.739 25.1395 54.9957C26.7808 54.2524 28.2478 53.1593 29.4421 51.7897C28.7752 50.9193 28.1842 49.9909 27.6758 49.0152C25.9886 45.8366 24.9077 42.1732 23.985 38.3482C23.5619 39.8724 22.9969 41.3517 22.2978 42.7658C21.1905 44.8669 20.426 44.8669 19.9251 44.8669C18.8442 44.8669 17.7106 43.6817 16.5506 41.392C15.9529 40.1395 15.4248 38.8534 14.9689 37.5401C14.6525 36.5973 14.3362 35.6276 14.0725 34.6848C13.8089 33.742 13.3344 32.0719 13.1235 31.0214C12.5698 28.4624 11.9108 24.2602 11.8844 24.1255C11.6471 22.9134 10.2499 19.223 5.82094 19.6002Z" fill="white"/>
<path d="M52.0358 30.9136C54.8566 29.8092 56.0429 26.3074 54.7775 23.479L54.6721 23.2097C54.1617 22.0583 53.5622 20.9504 52.8794 19.8964C52.5533 19.3453 52.1829 18.8227 51.7721 18.3341C48.1604 13.8087 43.916 13.0006 41.3324 13.0006C39.5374 12.9866 37.7601 13.3637 36.1191 14.1069C34.478 14.8501 33.0108 15.9422 31.8154 17.3105C32.4412 18.1218 32.9969 18.987 33.4763 19.8964C35.2426 23.1558 36.3498 27.6273 37.2726 31.4254C37.7734 29.7015 38.3534 27.4926 39.0125 26.2535C40.0934 24.2333 40.8315 24.2333 41.3324 24.2333C42.8351 24.2333 44.0478 26.496 44.6278 27.8159C44.6278 27.8159 46.7105 33.0416 52.0358 30.9136Z" fill="white"/>
<path d="M55.4886 19.6001L54.9877 19.5463H54.8559C55.4057 20.4843 55.8987 21.4558 56.3322 22.4554L56.464 22.7248C57.2585 24.5366 57.3191 26.596 56.6325 28.4533C55.9459 30.3106 54.568 31.8149 52.7996 32.6376C51.8454 33.0736 50.8131 33.3029 49.7679 33.311C49.054 33.2978 48.345 33.1891 47.6588 32.9877C46.9207 35.8161 45.7607 39.291 44.7062 41.392C43.6517 43.4931 42.4126 44.8669 41.3054 44.8669C40.8308 44.8669 40.0663 44.8669 38.9591 42.7658C38.2599 41.3517 37.6949 39.8724 37.2718 38.3482C36.9291 37.1629 36.6128 35.8969 36.2964 34.577C36.1646 34.0921 36.0592 33.6073 35.9537 33.1224C34.9519 28.8664 33.8183 24.3949 31.8674 20.8123C31.494 20.123 31.0803 19.4573 30.6284 18.819C30.259 18.2953 29.863 17.7918 29.4421 17.3105C28.2437 15.9388 26.7723 14.8446 25.1264 14.1013C23.4805 13.358 21.6981 12.9827 19.8987 13.0006C17.3415 13.0006 13.0971 13.8087 9.48535 18.3341C10.6244 18.8577 11.6142 19.6691 12.3614 20.6918C13.1086 21.7145 13.5886 22.9147 13.7561 24.1794C13.9407 25.5262 14.3888 28.1391 14.9161 30.6173C14.9688 30.8867 15.0216 31.156 15.1006 31.4523C15.4961 30.4018 15.8915 29.5129 16.3133 28.5162L16.6297 27.8159C17.2097 26.496 18.4224 24.2333 19.8987 24.2333C20.426 24.2333 21.1641 24.2333 22.245 26.2535C22.9732 27.698 23.5562 29.2142 23.9849 30.7789C24.3277 31.9911 24.6704 33.284 24.9604 34.577C25.0658 34.9541 25.1449 35.3312 25.224 35.7084C26.2785 40.2068 27.3858 44.5436 29.2839 48.1262C29.6768 48.8876 30.1263 49.617 30.6284 50.3081C30.9977 50.8232 31.3937 51.3178 31.8147 51.7896C34.9519 55.2645 38.5636 56.0995 41.3054 56.0995C45.128 56.0995 50.5324 54.4295 54.5132 46.51C56.5431 42.4426 58.2567 36.4357 58.8894 33.3918C59.5221 30.3479 59.9967 27.6004 60.2076 25.9303C60.3077 25.1976 60.2648 24.4519 60.0814 23.7362C59.8979 23.0206 59.5776 22.3491 59.1389 21.7606C58.7002 21.1721 58.1517 20.6781 57.5252 20.3073C56.8987 19.9365 56.2065 19.6962 55.4886 19.6001Z" fill="white"/>
<path d="M113.895 24.6443H120.17L111.047 51.9999H103.848L97.0291 31.3569L90.2101 51.9999H83.1236L74 24.6443H80.4219L86.8956 45.4329L93.6886 24.6443H100.508L107.413 45.5442L113.895 24.6443Z" fill="white"/>
<path d="M147.084 40.5184H126.73C126.918 41.9291 127.452 43.2725 128.284 44.4313C129.021 45.4452 130.02 46.2437 131.176 46.743C132.352 47.2472 133.623 47.501 134.904 47.4879C136.325 47.4826 137.734 47.2275 139.065 46.7345C140.445 46.234 141.733 45.5139 142.88 44.6025L145.875 48.8835C144.348 50.2046 142.569 51.2089 140.644 51.8374C138.667 52.453 136.605 52.7564 134.533 52.7364C131.981 52.7863 129.461 52.1723 127.222 50.9555C125.105 49.7786 123.371 48.0259 122.225 45.904C120.991 43.5781 120.374 40.9797 120.429 38.3523C120.376 35.7496 120.969 33.1739 122.156 30.8519C123.258 28.7399 124.94 26.9799 127.006 25.7746C129.175 24.5366 131.643 23.909 134.145 23.9595C136.506 23.8947 138.835 24.5064 140.854 25.7212C142.873 26.936 144.497 28.7025 145.53 30.8091C146.67 33.1387 147.238 35.7031 147.187 38.2923C147.196 38.866 147.161 39.6109 147.084 40.5184ZM141.041 35.9806C140.856 34.1058 140.045 32.3461 138.737 30.9804C138.11 30.3974 137.371 29.9454 136.564 29.6512C135.758 29.3571 134.9 29.2267 134.041 29.268C133.138 29.2269 132.235 29.3665 131.387 29.6783C130.539 29.9901 129.762 30.4678 129.104 31.0831C127.8 32.4288 126.968 34.155 126.73 36.0063L141.041 35.9806Z" fill="white"/>
<path d="M172.831 25.7917C174.931 27.0236 176.653 28.7996 177.812 30.9289C179.051 33.1983 179.681 35.7458 179.642 38.3265C179.681 40.9044 179.051 43.4491 177.812 45.7155C176.653 47.8545 174.924 49.6376 172.815 50.8708C170.706 52.1041 168.297 52.7404 165.848 52.7106C164.13 52.7464 162.427 52.392 160.868 51.6746C159.439 50.9913 158.19 49.989 157.217 48.7464V52H151.175V13H157.217V27.8979C158.194 26.6637 159.443 25.6679 160.868 24.9868C162.425 24.2624 164.129 23.9049 165.848 23.9423C168.303 23.9125 170.719 24.5522 172.831 25.7917ZM169.534 45.921C170.787 45.1567 171.796 44.0551 172.443 42.7445C173.107 41.3633 173.452 39.8524 173.452 38.3222C173.452 36.792 173.107 35.2811 172.443 33.8999C171.793 32.5911 170.785 31.4902 169.534 30.7234C168.204 29.9687 166.699 29.5717 165.167 29.5717C163.634 29.5717 162.129 29.9687 160.799 30.7234C159.545 31.479 158.528 32.5673 157.864 33.8656C157.146 35.2524 156.785 36.7935 156.811 38.3521C156.784 39.9082 157.146 41.4467 157.864 42.8301C158.528 44.1284 159.545 45.2167 160.799 45.9723C162.129 46.727 163.634 47.124 165.167 47.124C166.699 47.124 168.204 46.727 169.534 45.9723V45.921Z" fill="white"/>
<path d="M209.455 40.5183H189.111C189.299 41.9289 189.832 43.2724 190.664 44.4311C191.402 45.445 192.401 46.2435 193.556 46.7429C194.733 47.2471 196.003 47.5008 197.285 47.4878C198.706 47.4812 200.114 47.2261 201.445 46.7343C202.825 46.2338 204.114 45.5137 205.26 44.6024L208.247 48.8834C206.724 50.2061 204.948 51.2107 203.025 51.8373C201.045 52.4523 198.98 52.7557 196.905 52.7363C194.353 52.7834 191.833 52.1696 189.594 50.9554C187.481 49.7757 185.751 48.0235 184.605 45.9038C183.369 43.5786 182.748 40.9802 182.801 38.3521C182.749 35.7495 183.341 33.1739 184.527 30.8518C185.63 28.7398 187.311 26.9797 189.378 25.7745C191.559 24.5184 194.047 23.8816 196.568 23.9337C198.929 23.8721 201.257 24.485 203.275 25.6995C205.294 26.914 206.918 28.6787 207.953 30.7833C209.094 33.1129 209.662 35.6773 209.611 38.2665C209.576 38.8658 209.516 39.6107 209.455 40.5183ZM203.413 35.9804C203.214 34.1177 202.401 32.3722 201.1 31.0145C200.477 30.4283 199.742 29.9717 198.939 29.6718C198.135 29.3718 197.28 29.2344 196.422 29.2678C195.518 29.2258 194.615 29.3649 193.767 29.6768C192.918 29.9886 192.142 30.4669 191.484 31.083C190.178 32.4265 189.345 34.1538 189.111 36.0061L203.413 35.9804Z" fill="white"/>
<path d="M238.156 51.9999H230.758L223.767 42.4875L216.862 51.9999H209.81L220.167 38.0353L209.974 24.6443H217.379L224.112 33.78L230.845 24.6443H238L227.763 37.9839L238.156 51.9999Z" fill="white"/>
</g>
<defs>
<clipPath id="clip0_13250_6184">
<rect width="238" height="67" fill="white"/>
</clipPath>
</defs>
</svg>
