<svg width="153" height="40" viewBox="0 0 153 40" fill="none" xmlns="http://www.w3.org/2000/svg">
<g clip-path="url(#clip0_13250_6255)">
<path d="M152.34 20.68C151.95 21.5789 151.471 22.4365 150.91 23.24C150.383 24.0447 149.77 24.7892 149.08 25.46C148.443 26.0716 147.603 26.4275 146.72 26.46C145.967 26.4273 145.227 26.2508 144.54 25.94C143.802 25.6156 143.007 25.4389 142.2 25.42C141.367 25.4352 140.546 25.6118 139.78 25.94C139.122 26.2378 138.419 26.4237 137.7 26.49C137.247 26.4845 136.799 26.3869 136.385 26.2029C135.971 26.0189 135.598 25.7526 135.29 25.42C134.569 24.7249 133.925 23.9537 133.37 23.12C132.518 21.8879 131.844 20.5412 131.37 19.12C130.821 17.5787 130.533 15.9562 130.52 14.32C130.474 12.7134 130.872 11.1252 131.67 9.73C132.254 8.72601 133.083 7.88652 134.08 7.29C135.07 6.69934 136.198 6.38187 137.35 6.37C138.218 6.42211 139.07 6.62163 139.87 6.96C140.509 7.24108 141.181 7.43935 141.87 7.55C142.63 7.3864 143.374 7.15204 144.09 6.85C145.042 6.46373 146.064 6.28311 147.09 6.32C148.07 6.34846 149.03 6.60124 149.897 7.05891C150.764 7.51658 151.514 8.16695 152.09 8.96C151.168 9.44201 150.398 10.172 149.868 11.0677C149.338 11.9635 149.069 12.9894 149.09 14.03C149.088 14.8292 149.257 15.6195 149.587 16.3476C149.916 17.0756 150.398 17.7244 151 18.25C151.529 18.7625 152.15 19.1697 152.83 19.45C152.69 19.88 152.53 20.29 152.37 20.68H152.34ZM147.22 0.57C147.204 1.93693 146.692 3.25148 145.78 4.27C145.304 4.90468 144.684 5.41707 143.972 5.76483C143.259 6.11259 142.473 6.28575 141.68 6.27C141.67 6.1035 141.67 5.9365 141.68 5.77C141.727 4.37565 142.273 3.04456 143.22 2.02C143.738 1.44921 144.359 0.981059 145.05 0.64C145.717 0.284859 146.448 0.0672213 147.2 0C147.21 0.176526 147.21 0.353474 147.2 0.53L147.22 0.57Z" fill="black"/>
<path d="M114.12 0L114.09 32.12" stroke="black" stroke-width="3" stroke-miterlimit="10"/>
<path d="M79.9772 33.1011H78.6592V38.3511H79.9772V33.1011Z" fill="black"/>
<path d="M90.6585 34.605C90.3176 34.4193 89.9353 34.3231 89.547 34.3253C88.6889 34.3253 88.0943 34.9213 88.0943 35.7253C88.0943 36.5058 88.664 37.1268 89.547 37.1268C89.935 37.1282 90.317 37.0326 90.6585 36.8485V38.2573C90.2675 38.3778 89.861 38.4405 89.4518 38.4433C87.9625 38.4433 86.6562 37.4182 86.6562 35.7253C86.6562 34.1584 87.8395 33.0088 89.4518 33.0088C89.8612 33.0098 90.2681 33.0731 90.6585 33.1962V34.605Z" fill="black"/>
<path d="M76.8328 34.605C76.4915 34.4192 76.1085 34.323 75.7199 34.3253C74.8617 34.3253 74.2686 34.9213 74.2686 35.7253C74.2686 36.5058 74.8368 37.1268 75.7199 37.1268C76.1083 37.1276 76.4906 37.032 76.8328 36.8485V38.2573C76.4413 38.3778 76.0343 38.4405 75.6247 38.4433C74.1354 38.4433 72.8291 37.4182 72.8291 35.7253C72.8291 34.1584 74.0124 33.0088 75.6247 33.0088C76.0346 33.0098 76.442 33.0729 76.8328 33.1962V34.605Z" fill="black"/>
<path d="M94.8259 34.3443C94.6446 34.3427 94.4649 34.3774 94.2974 34.4464C94.1297 34.5154 93.9775 34.6173 93.85 34.746C93.7224 34.8748 93.6218 35.0277 93.5543 35.1959C93.4867 35.364 93.4536 35.5442 93.4566 35.7253C93.4531 35.9068 93.4861 36.087 93.5534 36.2554C93.6208 36.4238 93.7213 36.5772 93.849 36.706C93.9767 36.8349 94.129 36.937 94.2968 37.006C94.4646 37.0749 94.6444 37.1095 94.8259 37.1077C95.0073 37.1093 95.1873 37.0746 95.355 37.0055C95.5228 36.9364 95.6751 36.8345 95.8028 36.7056C95.9306 36.5769 96.0313 36.4237 96.0989 36.2553C96.1666 36.0869 96.1998 35.9068 96.1966 35.7253C96.1995 35.544 96.1661 35.364 96.0985 35.1958C96.0308 35.0275 95.9301 34.8746 95.8024 34.7459C95.6745 34.6172 95.5224 34.5154 95.3547 34.4464C95.187 34.3774 95.0072 34.3427 94.8259 34.3443ZM97.5995 35.7253C97.5995 37.2278 96.4412 38.4433 94.8259 38.4433C93.2106 38.4433 92.0537 37.2278 92.0537 35.7253C92.0537 34.2228 93.2121 33.0088 94.8259 33.0088C96.4397 33.0088 97.5995 34.2257 97.5995 35.7253Z" fill="black"/>
<path d="M85.001 34.2946C84.6632 34.2017 84.3158 34.1483 83.9657 34.1349C83.4356 34.1349 83.1471 34.3121 83.1471 34.564C83.1471 34.8847 83.5366 35.0033 83.7533 35.0648L84.1194 35.1805C84.9791 35.4544 85.3701 36.0431 85.3701 36.683C85.3701 38.001 84.2117 38.4404 83.1969 38.4404C82.7171 38.4346 82.2387 38.3856 81.7676 38.2939V37.0858C82.1745 37.2036 82.5948 37.2691 83.0182 37.2805C83.6772 37.2805 83.9803 37.0887 83.9803 36.7899C83.9803 36.5249 83.7182 36.3711 83.3946 36.2671L83.1119 36.1763C82.3797 35.9435 81.7588 35.51 81.7588 34.6402C81.7588 33.659 82.491 33 83.7153 33C84.1503 33.006 84.5832 33.0621 85.0054 33.1669L85.001 34.2946Z" fill="black"/>
<path d="M63.5755 38.3335H63V33.0952H63.6985V35.0737C63.8382 34.8689 64.028 34.7035 64.2496 34.5927C64.4713 34.482 64.7176 34.4298 64.9653 34.441C65.2078 34.4295 65.4494 34.4768 65.6697 34.5788C65.8899 34.6808 66.0823 34.8345 66.2305 35.0268C66.4971 35.3764 66.6303 35.8396 66.6303 36.4165C66.6303 37.1 66.4487 37.6237 66.0855 37.9879C65.9318 38.14 65.7486 38.2592 65.5471 38.338C65.3456 38.4168 65.1302 38.4537 64.914 38.4462C64.6737 38.4585 64.4344 38.4089 64.219 38.3018C64.0036 38.1949 63.8192 38.0343 63.6839 37.8356L63.5755 38.3335ZM65.9025 36.3975C65.9025 35.922 65.7839 35.5657 65.5466 35.3285C65.45 35.2306 65.3342 35.1541 65.2063 35.1037C65.0785 35.0532 64.9414 35.03 64.8042 35.0356C64.6431 35.029 64.4829 35.0603 64.3363 35.1273C64.1898 35.1942 64.0611 35.2948 63.9607 35.4207C63.7529 35.702 63.6493 36.0468 63.6678 36.396C63.6678 36.8808 63.7864 37.2527 64.0251 37.509C64.1229 37.6196 64.244 37.7069 64.3798 37.7648C64.5155 37.8228 64.6624 37.8501 64.81 37.8444C64.9711 37.8534 65.1318 37.8214 65.277 37.7512C65.4223 37.6809 65.5474 37.5749 65.6404 37.4431C65.817 37.1971 65.9054 36.8485 65.9054 36.3975H65.9025Z" fill="black"/>
<path d="M70.3725 34.5493L69.0545 38.3832C68.8788 38.8928 68.7114 39.2399 68.5522 39.4244C68.4625 39.5303 68.3501 39.6146 68.2233 39.6712C68.0967 39.7277 67.9587 39.7549 67.82 39.751C67.6677 39.7472 67.5163 39.7255 67.369 39.6865V39.1154C67.488 39.147 67.6105 39.1642 67.7336 39.1667C67.8 39.1699 67.8661 39.1574 67.9268 39.1302C67.9873 39.103 68.0406 39.0618 68.0822 39.01C68.2157 38.7981 68.321 38.5696 68.3955 38.3305H68.17L66.7803 34.5464H67.5286L68.5991 37.7681L69.6681 34.5464L70.3725 34.5493Z" fill="black"/>
<path d="M23.7425 8.33643H27.477L22.0473 24.7486H17.7632L13.7051 12.3637L9.64699 24.7486H5.42964L0 8.33643H3.82181L7.67444 20.8087L11.7171 8.33643H15.7752L19.8847 20.8755L23.7425 8.33643Z" fill="black"/>
<path d="M43.4935 17.8598H31.3809C31.4926 18.7061 31.8101 19.5121 32.3055 20.2073C32.7443 20.8156 33.3387 21.2947 34.0263 21.5943C34.7266 21.8968 35.4826 22.049 36.2454 22.0412C37.091 22.038 37.9293 21.8849 38.7214 21.5892C39.5426 21.2889 40.3095 20.8569 40.9919 20.3101L42.7744 22.8785C41.8654 23.6711 40.807 24.2736 39.6614 24.6507C38.4849 25.02 37.2576 25.202 36.0246 25.1901C34.5058 25.22 33.0058 24.8516 31.6737 24.1216C30.4136 23.4155 29.3817 22.364 28.6994 21.0909C27.9655 19.6954 27.5979 18.1365 27.631 16.5602C27.5995 14.9987 27.9523 13.4534 28.6583 12.0603C29.3144 10.7932 30.3151 9.73725 31.5452 9.01417C32.8358 8.27141 34.3046 7.89488 35.7934 7.92516C37.1983 7.88629 38.5846 8.25325 39.7863 8.9821C40.988 9.71095 41.9541 10.7708 42.5689 12.0346C43.2476 13.4323 43.5856 14.9708 43.5552 16.5242C43.5603 16.8684 43.5398 17.3153 43.4935 17.8598ZM39.8977 15.1373C39.7873 14.0125 39.3047 12.9567 38.5262 12.1374C38.153 11.7876 37.7133 11.5165 37.2333 11.34C36.7532 11.1635 36.2426 11.0853 35.7318 11.11C35.194 11.0854 34.6568 11.1691 34.1521 11.3562C33.6473 11.5433 33.1853 11.8299 32.7935 12.199C32.0177 13.0064 31.5224 14.042 31.3809 15.1527L39.8977 15.1373Z" fill="black"/>
<path d="M58.817 9.02454C60.0666 9.76366 61.0913 10.8292 61.781 12.1066C62.5185 13.4682 62.8935 14.9966 62.87 16.5449C62.8936 18.0916 62.5185 19.6183 61.781 20.978C61.0911 22.2613 60.0627 23.3311 58.8074 24.071C57.5522 24.8109 56.1183 25.1926 54.6613 25.1748C53.6389 25.1962 52.6251 24.9836 51.6974 24.5532C50.8472 24.1432 50.1034 23.5419 49.5245 22.7964V24.7484H45.9287V1.3501H49.5245V10.2882C50.1059 9.54773 50.8492 8.95028 51.6974 8.54168C52.6238 8.10706 53.6383 7.89258 54.6613 7.91498C56.1221 7.89711 57.5596 8.28093 58.817 9.02454ZM56.8548 21.1013C57.6006 20.6427 58.2009 19.9818 58.5859 19.1955C58.981 18.3668 59.1861 17.4604 59.1861 16.5423C59.1861 15.6243 58.981 14.7178 58.5859 13.8891C58.1993 13.1039 57.5994 12.4434 56.8548 11.9834C56.0633 11.5306 55.1673 11.2924 54.2555 11.2924C53.3437 11.2924 52.4477 11.5306 51.6563 11.9834C50.9098 12.4367 50.3048 13.0897 49.9098 13.8686C49.4825 14.7006 49.2672 15.6251 49.2831 16.5603C49.2668 17.4938 49.4821 18.4169 49.9098 19.2469C50.3048 20.0258 50.9098 20.6788 51.6563 21.1321C52.4477 21.5848 53.3437 21.823 54.2555 21.823C55.1673 21.823 56.0633 21.5848 56.8548 21.1321V21.1013Z" fill="black"/>
<path d="M80.6125 17.8598H68.505C68.6168 18.7061 68.9342 19.5121 69.4296 20.2074C69.8685 20.8157 70.4628 21.2947 71.1505 21.5943C71.8508 21.8968 72.6068 22.049 73.3696 22.0412C74.2151 22.0372 75.0532 21.8842 75.8455 21.5892C76.6668 21.2889 77.4336 20.8569 78.116 20.3101L79.8934 22.8785C78.987 23.6721 77.9301 24.2748 76.7856 24.6507C75.6072 25.0197 74.3783 25.2017 73.1436 25.1901C71.625 25.2184 70.1254 24.8501 68.7927 24.1216C67.5352 23.4138 66.5054 22.3626 65.8236 21.0909C65.0881 19.6959 64.7187 18.137 64.75 16.5602C64.7187 14.9987 65.0715 13.4535 65.7773 12.0603C66.4334 10.7932 67.4341 9.73726 68.6642 9.01418C69.9623 8.26058 71.4426 7.8785 72.9432 7.90976C74.3478 7.8728 75.7333 8.24057 76.9346 8.9692C78.136 9.69783 79.1024 10.7566 79.7187 12.0192C80.3974 13.4169 80.7354 14.9554 80.705 16.5088C80.6844 16.8684 80.6485 17.3153 80.6125 17.8598ZM77.0167 15.1373C76.8982 14.0197 76.4143 12.9725 75.6401 12.1579C75.2694 11.8063 74.8321 11.5323 74.354 11.3524C73.8758 11.1724 73.3664 11.09 72.8559 11.11C72.3181 11.0848 71.7807 11.1683 71.2759 11.3554C70.771 11.5425 70.3091 11.8294 69.9176 12.199C69.14 13.0051 68.6444 14.0414 68.505 15.1527L77.0167 15.1373Z" fill="black"/>
<path d="M97.6926 24.7486H93.2904L89.1295 19.0416L85.02 24.7486H80.8232L86.9875 16.3704L80.9208 8.33643H85.3283L89.335 13.8174L93.3417 8.33643H97.6002L91.5079 16.3396L97.6926 24.7486Z" fill="black"/>
</g>
<defs>
<clipPath id="clip0_13250_6255">
<rect width="152.8" height="39.8" fill="white"/>
</clipPath>
</defs>
</svg>
