<svg width="132" height="84" viewBox="0 0 132 84" fill="none" xmlns="http://www.w3.org/2000/svg">
<path d="M52.4423 24.739C52.97 26.6244 53.6891 28.4488 54.5879 30.183C54.9984 30.9509 55.4089 31.7187 56.1544 32.2024C56.2835 32.2849 56.4258 32.3438 56.5749 32.3765C57.6729 32.6145 58.2749 31.7161 58.6627 30.8945C59.2414 29.6055 59.7091 28.2679 60.0604 26.8967C60.1284 26.6407 60.1938 26.3848 60.2593 26.1288C60.3852 25.64 60.5111 25.146 60.6194 24.652L65.4648 11.4964C66.4713 10.134 67.7761 9.02855 69.2758 8.26755C70.7755 7.50655 72.429 7.11093 74.1052 7.11202C76.5191 7.09692 78.866 7.91846 80.7588 9.44113C83.9269 11.8777 85.8131 16.6767 85.8131 16.6767C86.0881 17.3015 86.2297 17.9784 86.2287 18.6629C86.2274 19.2968 86.1033 19.9242 85.8633 20.5094C85.6235 21.0945 85.2724 21.6259 84.8305 22.0732C84.3885 22.5205 83.8642 22.8749 83.2875 23.1163C82.7108 23.3576 82.0928 23.4811 81.469 23.4798C80.7754 23.4793 80.0901 23.3239 79.4623 23.0244C78.8342 22.725 78.2787 22.2889 77.8349 21.747L77.7896 21.6907C77.4851 21.2729 77.2313 20.8192 77.0341 20.3393C76.7729 19.737 76.4803 19.1492 76.1577 18.5784C75.9865 18.2841 75.7951 18.0051 75.5986 17.7287C75.4289 17.4816 75.2282 17.2579 75.0018 17.0632C74.556 16.6972 73.9944 16.5513 73.4706 16.8661C73.4454 16.8808 73.421 16.8971 73.3976 16.9148C72.8587 17.291 72.4809 18.0512 72.219 18.6347C71.4635 20.2881 71.0303 21.9825 70.6022 23.7229C70.5216 24.0582 70.441 24.3935 70.3655 24.7314L68.3634 31.386L65.5403 37.7129C64.5297 39.0385 63.2362 40.1137 61.7574 40.8577C60.2787 41.6015 58.653 41.9949 57.0031 42.0077C50.1455 42.1562 46.8918 35.865 46.8918 35.865C42.9858 29.3537 41.8349 20.7642 41.5604 18.0179C41.5025 17.4471 41.5 17.1067 41.5 17.1067C41.4997 16.2465 41.7306 15.4025 42.1677 14.6659C42.6049 13.9293 43.2318 13.3281 43.9806 12.9271C44.7549 12.5284 45.6165 12.3372 46.4839 12.3717C47.2908 12.406 48.0759 12.6482 48.7655 13.0756C49.3013 13.4015 49.7645 13.8374 50.1254 14.3553C50.7701 15.2869 50.9162 16.4464 51.0446 17.5546C51.3113 19.9851 51.7788 22.3883 52.4423 24.739Z" fill="url(#paint0_linear_13250_6166)"/>
<path d="M52.4423 24.739C52.97 26.6244 53.6891 28.4488 54.5879 30.183C54.9984 30.9509 55.4089 31.7187 56.1544 32.2024C56.2835 32.2849 56.4258 32.3438 56.5749 32.3765C57.6729 32.6145 58.2749 31.7161 58.6627 30.8945C59.2414 29.6055 59.7091 28.2679 60.0604 26.8967C60.1284 26.6407 60.1938 26.3848 60.2593 26.1288C60.3852 25.64 60.5111 25.146 60.6194 24.652L65.4648 11.4964C66.4713 10.134 67.7761 9.02855 69.2758 8.26755C70.7755 7.50655 72.429 7.11093 74.1052 7.11202C76.5191 7.09692 78.866 7.91846 80.7588 9.44113C83.9269 11.8777 85.8131 16.6767 85.8131 16.6767C86.0881 17.3015 86.2297 17.9784 86.2287 18.6629C86.2274 19.2968 86.1033 19.9242 85.8633 20.5094C85.6235 21.0945 85.2724 21.6259 84.8305 22.0732C84.3885 22.5205 83.8642 22.8749 83.2875 23.1163C82.7108 23.3576 82.0928 23.4811 81.469 23.4798C80.7754 23.4793 80.0901 23.3239 79.4623 23.0244C78.8342 22.725 78.2787 22.2889 77.8349 21.747L77.7896 21.6907C77.4851 21.2729 77.2313 20.8192 77.0341 20.3393C76.7729 19.737 76.4803 19.1492 76.1577 18.5784C75.9865 18.2841 75.7951 18.0051 75.5986 17.7287C75.4289 17.4816 75.2282 17.2579 75.0018 17.0632C74.556 16.6972 73.9944 16.5513 73.4706 16.8661C73.4454 16.8808 73.421 16.8971 73.3976 16.9148C72.8587 17.291 72.4809 18.0512 72.219 18.6347C71.4635 20.2881 71.0303 21.9825 70.6022 23.7229C70.5216 24.0582 70.441 24.3935 70.3655 24.7314L68.3634 31.386L65.5403 37.7129C64.5297 39.0385 63.2362 40.1137 61.7574 40.8577C60.2787 41.6015 58.653 41.9949 57.0031 42.0077C50.1455 42.1562 46.8918 35.865 46.8918 35.865C42.9858 29.3537 41.8349 20.7642 41.5604 18.0179C41.5025 17.4471 41.5 17.1067 41.5 17.1067C41.4997 16.2465 41.7306 15.4025 42.1677 14.6659C42.6049 13.9293 43.2318 13.3281 43.9806 12.9271C44.7549 12.5284 45.6165 12.3372 46.4839 12.3717C47.2908 12.406 48.0759 12.6482 48.7655 13.0756C49.3013 13.4015 49.7645 13.8374 50.1254 14.3553C50.7701 15.2869 50.9162 16.4464 51.0446 17.5546C51.3113 19.9851 51.7788 22.3883 52.4423 24.739Z" fill="url(#paint1_radial_13250_6166)"/>
<path d="M52.4423 24.739C52.97 26.6244 53.6891 28.4488 54.5879 30.183C54.9984 30.9509 55.4089 31.7187 56.1544 32.2024C56.2835 32.2849 56.4258 32.3438 56.5749 32.3765C57.6729 32.6145 58.2749 31.7161 58.6627 30.8945C59.2414 29.6055 59.7091 28.2679 60.0604 26.8967C60.1284 26.6407 60.1938 26.3848 60.2593 26.1288C60.3852 25.64 60.5111 25.146 60.6194 24.652L65.4648 11.4964C66.4713 10.134 67.7761 9.02855 69.2758 8.26755C70.7755 7.50655 72.429 7.11093 74.1052 7.11202C76.5191 7.09692 78.866 7.91846 80.7588 9.44113C83.9269 11.8777 85.8131 16.6767 85.8131 16.6767C86.0881 17.3015 86.2297 17.9784 86.2287 18.6629C86.2274 19.2968 86.1033 19.9242 85.8633 20.5094C85.6235 21.0945 85.2724 21.6259 84.8305 22.0732C84.3885 22.5205 83.8642 22.8749 83.2875 23.1163C82.7108 23.3576 82.0928 23.4811 81.469 23.4798C80.7754 23.4793 80.0901 23.3239 79.4623 23.0244C78.8342 22.725 78.2787 22.2889 77.8349 21.747L77.7896 21.6907C77.4851 21.2729 77.2313 20.8192 77.0341 20.3393C76.7729 19.737 76.4803 19.1492 76.1577 18.5784C75.9865 18.2841 75.7951 18.0051 75.5986 17.7287C75.4289 17.4816 75.2282 17.2579 75.0018 17.0632C74.556 16.6972 73.9944 16.5513 73.4706 16.8661C73.4454 16.8808 73.421 16.8971 73.3976 16.9148C72.8587 17.291 72.4809 18.0512 72.219 18.6347C71.4635 20.2881 71.0303 21.9825 70.6022 23.7229C70.5216 24.0582 70.441 24.3935 70.3655 24.7314L68.3634 31.386L65.5403 37.7129C64.5297 39.0385 63.2362 40.1137 61.7574 40.8577C60.2787 41.6015 58.653 41.9949 57.0031 42.0077C50.1455 42.1562 46.8918 35.865 46.8918 35.865C42.9858 29.3537 41.8349 20.7642 41.5604 18.0179C41.5025 17.4471 41.5 17.1067 41.5 17.1067C41.4997 16.2465 41.7306 15.4025 42.1677 14.6659C42.6049 13.9293 43.2318 13.3281 43.9806 12.9271C44.7549 12.5284 45.6165 12.3372 46.4839 12.3717C47.2908 12.406 48.0759 12.6482 48.7655 13.0756C49.3013 13.4015 49.7645 13.8374 50.1254 14.3553C50.7701 15.2869 50.9162 16.4464 51.0446 17.5546C51.3113 19.9851 51.7788 22.3883 52.4423 24.739Z" fill="url(#paint2_radial_13250_6166)"/>
<path d="M52.4423 24.739C52.97 26.6244 53.6891 28.4488 54.5879 30.183C54.9984 30.9509 55.4089 31.7187 56.1544 32.2024C56.2835 32.2849 56.4258 32.3438 56.5749 32.3765C57.6729 32.6145 58.2749 31.7161 58.6627 30.8945C59.2414 29.6055 59.7091 28.2679 60.0604 26.8967C60.1284 26.6407 60.1938 26.3848 60.2593 26.1288C60.3852 25.64 60.5111 25.146 60.6194 24.652L65.4648 11.4964C66.4713 10.134 67.7761 9.02855 69.2758 8.26755C70.7755 7.50655 72.429 7.11093 74.1052 7.11202C76.5191 7.09692 78.866 7.91846 80.7588 9.44113C83.9269 11.8777 85.8131 16.6767 85.8131 16.6767C86.0881 17.3015 86.2297 17.9784 86.2287 18.6629C86.2274 19.2968 86.1033 19.9242 85.8633 20.5094C85.6235 21.0945 85.2724 21.6259 84.8305 22.0732C84.3885 22.5205 83.8642 22.8749 83.2875 23.1163C82.7108 23.3576 82.0928 23.4811 81.469 23.4798C80.7754 23.4793 80.0901 23.3239 79.4623 23.0244C78.8342 22.725 78.2787 22.2889 77.8349 21.747L77.7896 21.6907C77.4851 21.2729 77.2313 20.8192 77.0341 20.3393C76.7729 19.737 76.4803 19.1492 76.1577 18.5784C75.9865 18.2841 75.7951 18.0051 75.5986 17.7287C75.4289 17.4816 75.2282 17.2579 75.0018 17.0632C74.556 16.6972 73.9944 16.5513 73.4706 16.8661C73.4454 16.8808 73.421 16.8971 73.3976 16.9148C72.8587 17.291 72.4809 18.0512 72.219 18.6347C71.4635 20.2881 71.0303 21.9825 70.6022 23.7229C70.5216 24.0582 70.441 24.3935 70.3655 24.7314L68.3634 31.386L65.5403 37.7129C64.5297 39.0385 63.2362 40.1137 61.7574 40.8577C60.2787 41.6015 58.653 41.9949 57.0031 42.0077C50.1455 42.1562 46.8918 35.865 46.8918 35.865C42.9858 29.3537 41.8349 20.7642 41.5604 18.0179C41.5025 17.4471 41.5 17.1067 41.5 17.1067C41.4997 16.2465 41.7306 15.4025 42.1677 14.6659C42.6049 13.9293 43.2318 13.3281 43.9806 12.9271C44.7549 12.5284 45.6165 12.3372 46.4839 12.3717C47.2908 12.406 48.0759 12.6482 48.7655 13.0756C49.3013 13.4015 49.7645 13.8374 50.1254 14.3553C50.7701 15.2869 50.9162 16.4464 51.0446 17.5546C51.3113 19.9851 51.7788 22.3883 52.4423 24.739Z" fill="url(#paint3_radial_13250_6166)"/>
<path d="M52.4423 24.739C52.97 26.6244 53.6891 28.4488 54.5879 30.183C54.9984 30.9509 55.4089 31.7187 56.1544 32.2024C56.2835 32.2849 56.4258 32.3438 56.5749 32.3765C57.6729 32.6145 58.2749 31.7161 58.6627 30.8945C59.2414 29.6055 59.7091 28.2679 60.0604 26.8967C60.1284 26.6407 60.1938 26.3848 60.2593 26.1288C60.3852 25.64 60.5111 25.146 60.6194 24.652L65.4648 11.4964C66.4713 10.134 67.7761 9.02855 69.2758 8.26755C70.7755 7.50655 72.429 7.11093 74.1052 7.11202C76.5191 7.09692 78.866 7.91846 80.7588 9.44113C83.9269 11.8777 85.8131 16.6767 85.8131 16.6767C86.0881 17.3015 86.2297 17.9784 86.2287 18.6629C86.2274 19.2968 86.1033 19.9242 85.8633 20.5094C85.6235 21.0945 85.2724 21.6259 84.8305 22.0732C84.3885 22.5205 83.8642 22.8749 83.2875 23.1163C82.7108 23.3576 82.0928 23.4811 81.469 23.4798C80.7754 23.4793 80.0901 23.3239 79.4623 23.0244C78.8342 22.725 78.2787 22.2889 77.8349 21.747L77.7896 21.6907C77.4851 21.2729 77.2313 20.8192 77.0341 20.3393C76.7729 19.737 76.4803 19.1492 76.1577 18.5784C75.9865 18.2841 75.7951 18.0051 75.5986 17.7287C75.4289 17.4816 75.2282 17.2579 75.0018 17.0632C74.556 16.6972 73.9944 16.5513 73.4706 16.8661C73.4454 16.8808 73.421 16.8971 73.3976 16.9148C72.8587 17.291 72.4809 18.0512 72.219 18.6347C71.4635 20.2881 71.0303 21.9825 70.6022 23.7229C70.5216 24.0582 70.441 24.3935 70.3655 24.7314L68.3634 31.386L65.5403 37.7129C64.5297 39.0385 63.2362 40.1137 61.7574 40.8577C60.2787 41.6015 58.653 41.9949 57.0031 42.0077C50.1455 42.1562 46.8918 35.865 46.8918 35.865C42.9858 29.3537 41.8349 20.7642 41.5604 18.0179C41.5025 17.4471 41.5 17.1067 41.5 17.1067C41.4997 16.2465 41.7306 15.4025 42.1677 14.6659C42.6049 13.9293 43.2318 13.3281 43.9806 12.9271C44.7549 12.5284 45.6165 12.3372 46.4839 12.3717C47.2908 12.406 48.0759 12.6482 48.7655 13.0756C49.3013 13.4015 49.7645 13.8374 50.1254 14.3553C50.7701 15.2869 50.9162 16.4464 51.0446 17.5546C51.3113 19.9851 51.7788 22.3883 52.4423 24.739Z" fill="url(#paint4_radial_13250_6166)"/>
<path d="M52.4423 24.739C52.97 26.6244 53.6891 28.4488 54.5879 30.183C54.9984 30.9509 55.4089 31.7187 56.1544 32.2024C56.2835 32.2849 56.4258 32.3438 56.5749 32.3765C57.6729 32.6145 58.2749 31.7161 58.6627 30.8945C59.2414 29.6055 59.7091 28.2679 60.0604 26.8967C60.1284 26.6407 60.1938 26.3848 60.2593 26.1288C60.3852 25.64 60.5111 25.146 60.6194 24.652L65.4648 11.4964C66.4713 10.134 67.7761 9.02855 69.2758 8.26755C70.7755 7.50655 72.429 7.11093 74.1052 7.11202C76.5191 7.09692 78.866 7.91846 80.7588 9.44113C83.9269 11.8777 85.8131 16.6767 85.8131 16.6767C86.0881 17.3015 86.2297 17.9784 86.2287 18.6629C86.2274 19.2968 86.1033 19.9242 85.8633 20.5094C85.6235 21.0945 85.2724 21.6259 84.8305 22.0732C84.3885 22.5205 83.8642 22.8749 83.2875 23.1163C82.7108 23.3576 82.0928 23.4811 81.469 23.4798C80.7754 23.4793 80.0901 23.3239 79.4623 23.0244C78.8342 22.725 78.2787 22.2889 77.8349 21.747L77.7896 21.6907C77.4851 21.2729 77.2313 20.8192 77.0341 20.3393C76.7729 19.737 76.4803 19.1492 76.1577 18.5784C75.9865 18.2841 75.7951 18.0051 75.5986 17.7287C75.4289 17.4816 75.2282 17.2579 75.0018 17.0632C74.556 16.6972 73.9944 16.5513 73.4706 16.8661C73.4454 16.8808 73.421 16.8971 73.3976 16.9148C72.8587 17.291 72.4809 18.0512 72.219 18.6347C71.4635 20.2881 71.0303 21.9825 70.6022 23.7229C70.5216 24.0582 70.441 24.3935 70.3655 24.7314L68.3634 31.386L65.5403 37.7129C64.5297 39.0385 63.2362 40.1137 61.7574 40.8577C60.2787 41.6015 58.653 41.9949 57.0031 42.0077C50.1455 42.1562 46.8918 35.865 46.8918 35.865C42.9858 29.3537 41.8349 20.7642 41.5604 18.0179C41.5025 17.4471 41.5 17.1067 41.5 17.1067C41.4997 16.2465 41.7306 15.4025 42.1677 14.6659C42.6049 13.9293 43.2318 13.3281 43.9806 12.9271C44.7549 12.5284 45.6165 12.3372 46.4839 12.3717C47.2908 12.406 48.0759 12.6482 48.7655 13.0756C49.3013 13.4015 49.7645 13.8374 50.1254 14.3553C50.7701 15.2869 50.9162 16.4464 51.0446 17.5546C51.3113 19.9851 51.7788 22.3883 52.4423 24.739Z" fill="url(#paint5_radial_13250_6166)"/>
<path d="M52.4423 24.739C52.97 26.6244 53.6891 28.4488 54.5879 30.183C54.9984 30.9509 55.4089 31.7187 56.1544 32.2024C56.2835 32.2849 56.4258 32.3438 56.5749 32.3765C57.6729 32.6145 58.2749 31.7161 58.6627 30.8945C59.2414 29.6055 59.7091 28.2679 60.0604 26.8967C60.1284 26.6407 60.1938 26.3848 60.2593 26.1288C60.3852 25.64 60.5111 25.146 60.6194 24.652L65.4648 11.4964C66.4713 10.134 67.7761 9.02855 69.2758 8.26755C70.7755 7.50655 72.429 7.11093 74.1052 7.11202C76.5191 7.09692 78.866 7.91846 80.7588 9.44113C83.9269 11.8777 85.8131 16.6767 85.8131 16.6767C86.0881 17.3015 86.2297 17.9784 86.2287 18.6629C86.2274 19.2968 86.1033 19.9242 85.8633 20.5094C85.6235 21.0945 85.2724 21.6259 84.8305 22.0732C84.3885 22.5205 83.8642 22.8749 83.2875 23.1163C82.7108 23.3576 82.0928 23.4811 81.469 23.4798C80.7754 23.4793 80.0901 23.3239 79.4623 23.0244C78.8342 22.725 78.2787 22.2889 77.8349 21.747L77.7896 21.6907C77.4851 21.2729 77.2313 20.8192 77.0341 20.3393C76.7729 19.737 76.4803 19.1492 76.1577 18.5784C75.9865 18.2841 75.7951 18.0051 75.5986 17.7287C75.4289 17.4816 75.2282 17.2579 75.0018 17.0632C74.556 16.6972 73.9944 16.5513 73.4706 16.8661C73.4454 16.8808 73.421 16.8971 73.3976 16.9148C72.8587 17.291 72.4809 18.0512 72.219 18.6347C71.4635 20.2881 71.0303 21.9825 70.6022 23.7229C70.5216 24.0582 70.441 24.3935 70.3655 24.7314L68.3634 31.386L65.5403 37.7129C64.5297 39.0385 63.2362 40.1137 61.7574 40.8577C60.2787 41.6015 58.653 41.9949 57.0031 42.0077C50.1455 42.1562 46.8918 35.865 46.8918 35.865C42.9858 29.3537 41.8349 20.7642 41.5604 18.0179C41.5025 17.4471 41.5 17.1067 41.5 17.1067C41.4997 16.2465 41.7306 15.4025 42.1677 14.6659C42.6049 13.9293 43.2318 13.3281 43.9806 12.9271C44.7549 12.5284 45.6165 12.3372 46.4839 12.3717C47.2908 12.406 48.0759 12.6482 48.7655 13.0756C49.3013 13.4015 49.7645 13.8374 50.1254 14.3553C50.7701 15.2869 50.9162 16.4464 51.0446 17.5546C51.3113 19.9851 51.7788 22.3883 52.4423 24.739Z" fill="url(#paint6_radial_13250_6166)"/>
<path d="M52.4423 24.739C52.97 26.6244 53.6891 28.4488 54.5879 30.183C54.9984 30.9509 55.4089 31.7187 56.1544 32.2024C56.2835 32.2849 56.4258 32.3438 56.5749 32.3765C57.6729 32.6145 58.2749 31.7161 58.6627 30.8945C59.2414 29.6055 59.7091 28.2679 60.0604 26.8967C60.1284 26.6407 60.1938 26.3848 60.2593 26.1288C60.3852 25.64 60.5111 25.146 60.6194 24.652L65.4648 11.4964C66.4713 10.134 67.7761 9.02855 69.2758 8.26755C70.7755 7.50655 72.429 7.11093 74.1052 7.11202C76.5191 7.09692 78.866 7.91846 80.7588 9.44113C83.9269 11.8777 85.8131 16.6767 85.8131 16.6767C86.0881 17.3015 86.2297 17.9784 86.2287 18.6629C86.2274 19.2968 86.1033 19.9242 85.8633 20.5094C85.6235 21.0945 85.2724 21.6259 84.8305 22.0732C84.3885 22.5205 83.8642 22.8749 83.2875 23.1163C82.7108 23.3576 82.0928 23.4811 81.469 23.4798C80.7754 23.4793 80.0901 23.3239 79.4623 23.0244C78.8342 22.725 78.2787 22.2889 77.8349 21.747L77.7896 21.6907C77.4851 21.2729 77.2313 20.8192 77.0341 20.3393C76.7729 19.737 76.4803 19.1492 76.1577 18.5784C75.9865 18.2841 75.7951 18.0051 75.5986 17.7287C75.4289 17.4816 75.2282 17.2579 75.0018 17.0632C74.556 16.6972 73.9944 16.5513 73.4706 16.8661C73.4454 16.8808 73.421 16.8971 73.3976 16.9148C72.8587 17.291 72.4809 18.0512 72.219 18.6347C71.4635 20.2881 71.0303 21.9825 70.6022 23.7229C70.5216 24.0582 70.441 24.3935 70.3655 24.7314L68.3634 31.386L65.5403 37.7129C64.5297 39.0385 63.2362 40.1137 61.7574 40.8577C60.2787 41.6015 58.653 41.9949 57.0031 42.0077C50.1455 42.1562 46.8918 35.865 46.8918 35.865C42.9858 29.3537 41.8349 20.7642 41.5604 18.0179C41.5025 17.4471 41.5 17.1067 41.5 17.1067C41.4997 16.2465 41.7306 15.4025 42.1677 14.6659C42.6049 13.9293 43.2318 13.3281 43.9806 12.9271C44.7549 12.5284 45.6165 12.3372 46.4839 12.3717C47.2908 12.406 48.0759 12.6482 48.7655 13.0756C49.3013 13.4015 49.7645 13.8374 50.1254 14.3553C50.7701 15.2869 50.9162 16.4464 51.0446 17.5546C51.3113 19.9851 51.7788 22.3883 52.4423 24.739Z" fill="url(#paint7_radial_13250_6166)"/>
<path d="M52.4423 24.739C52.97 26.6244 53.6891 28.4488 54.5879 30.183C54.9984 30.9509 55.4089 31.7187 56.1544 32.2024C56.2835 32.2849 56.4258 32.3438 56.5749 32.3765C57.6729 32.6145 58.2749 31.7161 58.6627 30.8945C59.2414 29.6055 59.7091 28.2679 60.0604 26.8967C60.1284 26.6407 60.1938 26.3848 60.2593 26.1288C60.3852 25.64 60.5111 25.146 60.6194 24.652L65.4648 11.4964C66.4713 10.134 67.7761 9.02855 69.2758 8.26755C70.7755 7.50655 72.429 7.11093 74.1052 7.11202C76.5191 7.09692 78.866 7.91846 80.7588 9.44113C83.9269 11.8777 85.8131 16.6767 85.8131 16.6767C86.0881 17.3015 86.2297 17.9784 86.2287 18.6629C86.2274 19.2968 86.1033 19.9242 85.8633 20.5094C85.6235 21.0945 85.2724 21.6259 84.8305 22.0732C84.3885 22.5205 83.8642 22.8749 83.2875 23.1163C82.7108 23.3576 82.0928 23.4811 81.469 23.4798C80.7754 23.4793 80.0901 23.3239 79.4623 23.0244C78.8342 22.725 78.2787 22.2889 77.8349 21.747L77.7896 21.6907C77.4851 21.2729 77.2313 20.8192 77.0341 20.3393C76.7729 19.737 76.4803 19.1492 76.1577 18.5784C75.9865 18.2841 75.7951 18.0051 75.5986 17.7287C75.4289 17.4816 75.2282 17.2579 75.0018 17.0632C74.556 16.6972 73.9944 16.5513 73.4706 16.8661C73.4454 16.8808 73.421 16.8971 73.3976 16.9148C72.8587 17.291 72.4809 18.0512 72.219 18.6347C71.4635 20.2881 71.0303 21.9825 70.6022 23.7229C70.5216 24.0582 70.441 24.3935 70.3655 24.7314L68.3634 31.386L65.5403 37.7129C64.5297 39.0385 63.2362 40.1137 61.7574 40.8577C60.2787 41.6015 58.653 41.9949 57.0031 42.0077C50.1455 42.1562 46.8918 35.865 46.8918 35.865C42.9858 29.3537 41.8349 20.7642 41.5604 18.0179C41.5025 17.4471 41.5 17.1067 41.5 17.1067C41.4997 16.2465 41.7306 15.4025 42.1677 14.6659C42.6049 13.9293 43.2318 13.3281 43.9806 12.9271C44.7549 12.5284 45.6165 12.3372 46.4839 12.3717C47.2908 12.406 48.0759 12.6482 48.7655 13.0756C49.3013 13.4015 49.7645 13.8374 50.1254 14.3553C50.7701 15.2869 50.9162 16.4464 51.0446 17.5546C51.3113 19.9851 51.7788 22.3883 52.4423 24.739Z" fill="url(#paint8_radial_13250_6166)"/>
<path d="M52.4423 24.739C52.97 26.6244 53.6891 28.4488 54.5879 30.183C54.9984 30.9509 55.4089 31.7187 56.1544 32.2024C56.2835 32.2849 56.4258 32.3438 56.5749 32.3765C57.6729 32.6145 58.2749 31.7161 58.6627 30.8945C59.2414 29.6055 59.7091 28.2679 60.0604 26.8967C60.1284 26.6407 60.1938 26.3848 60.2593 26.1288C60.3852 25.64 60.5111 25.146 60.6194 24.652L65.4648 11.4964C66.4713 10.134 67.7761 9.02855 69.2758 8.26755C70.7755 7.50655 72.429 7.11093 74.1052 7.11202C76.5191 7.09692 78.866 7.91846 80.7588 9.44113C83.9269 11.8777 85.8131 16.6767 85.8131 16.6767C86.0881 17.3015 86.2297 17.9784 86.2287 18.6629C86.2274 19.2968 86.1033 19.9242 85.8633 20.5094C85.6235 21.0945 85.2724 21.6259 84.8305 22.0732C84.3885 22.5205 83.8642 22.8749 83.2875 23.1163C82.7108 23.3576 82.0928 23.4811 81.469 23.4798C80.7754 23.4793 80.0901 23.3239 79.4623 23.0244C78.8342 22.725 78.2787 22.2889 77.8349 21.747L77.7896 21.6907C77.4851 21.2729 77.2313 20.8192 77.0341 20.3393C76.7729 19.737 76.4803 19.1492 76.1577 18.5784C75.9865 18.2841 75.7951 18.0051 75.5986 17.7287C75.4289 17.4816 75.2282 17.2579 75.0018 17.0632C74.556 16.6972 73.9944 16.5513 73.4706 16.8661C73.4454 16.8808 73.421 16.8971 73.3976 16.9148C72.8587 17.291 72.4809 18.0512 72.219 18.6347C71.4635 20.2881 71.0303 21.9825 70.6022 23.7229C70.5216 24.0582 70.441 24.3935 70.3655 24.7314L68.3634 31.386L65.5403 37.7129C64.5297 39.0385 63.2362 40.1137 61.7574 40.8577C60.2787 41.6015 58.653 41.9949 57.0031 42.0077C50.1455 42.1562 46.8918 35.865 46.8918 35.865C42.9858 29.3537 41.8349 20.7642 41.5604 18.0179C41.5025 17.4471 41.5 17.1067 41.5 17.1067C41.4997 16.2465 41.7306 15.4025 42.1677 14.6659C42.6049 13.9293 43.2318 13.3281 43.9806 12.9271C44.7549 12.5284 45.6165 12.3372 46.4839 12.3717C47.2908 12.406 48.0759 12.6482 48.7655 13.0756C49.3013 13.4015 49.7645 13.8374 50.1254 14.3553C50.7701 15.2869 50.9162 16.4464 51.0446 17.5546C51.3113 19.9851 51.7788 22.3883 52.4423 24.739Z" fill="url(#paint9_radial_13250_6166)"/>
<path d="M52.4423 24.739C52.97 26.6244 53.6891 28.4488 54.5879 30.183C54.9984 30.9509 55.4089 31.7187 56.1544 32.2024C56.2835 32.2849 56.4258 32.3438 56.5749 32.3765C57.6729 32.6145 58.2749 31.7161 58.6627 30.8945C59.2414 29.6055 59.7091 28.2679 60.0604 26.8967C60.1284 26.6407 60.1938 26.3848 60.2593 26.1288C60.3852 25.64 60.5111 25.146 60.6194 24.652L65.4648 11.4964C66.4713 10.134 67.7761 9.02855 69.2758 8.26755C70.7755 7.50655 72.429 7.11093 74.1052 7.11202C76.5191 7.09692 78.866 7.91846 80.7588 9.44113C83.9269 11.8777 85.8131 16.6767 85.8131 16.6767C86.0881 17.3015 86.2297 17.9784 86.2287 18.6629C86.2274 19.2968 86.1033 19.9242 85.8633 20.5094C85.6235 21.0945 85.2724 21.6259 84.8305 22.0732C84.3885 22.5205 83.8642 22.8749 83.2875 23.1163C82.7108 23.3576 82.0928 23.4811 81.469 23.4798C80.7754 23.4793 80.0901 23.3239 79.4623 23.0244C78.8342 22.725 78.2787 22.2889 77.8349 21.747L77.7896 21.6907C77.4851 21.2729 77.2313 20.8192 77.0341 20.3393C76.7729 19.737 76.4803 19.1492 76.1577 18.5784C75.9865 18.2841 75.7951 18.0051 75.5986 17.7287C75.4289 17.4816 75.2282 17.2579 75.0018 17.0632C74.556 16.6972 73.9944 16.5513 73.4706 16.8661C73.4454 16.8808 73.421 16.8971 73.3976 16.9148C72.8587 17.291 72.4809 18.0512 72.219 18.6347C71.4635 20.2881 71.0303 21.9825 70.6022 23.7229C70.5216 24.0582 70.441 24.3935 70.3655 24.7314L68.3634 31.386L65.5403 37.7129C64.5297 39.0385 63.2362 40.1137 61.7574 40.8577C60.2787 41.6015 58.653 41.9949 57.0031 42.0077C50.1455 42.1562 46.8918 35.865 46.8918 35.865C42.9858 29.3537 41.8349 20.7642 41.5604 18.0179C41.5025 17.4471 41.5 17.1067 41.5 17.1067C41.4997 16.2465 41.7306 15.4025 42.1677 14.6659C42.6049 13.9293 43.2318 13.3281 43.9806 12.9271C44.7549 12.5284 45.6165 12.3372 46.4839 12.3717C47.2908 12.406 48.0759 12.6482 48.7655 13.0756C49.3013 13.4015 49.7645 13.8374 50.1254 14.3553C50.7701 15.2869 50.9162 16.4464 51.0446 17.5546C51.3113 19.9851 51.7788 22.3883 52.4423 24.739Z" fill="url(#paint10_radial_13250_6166)"/>
<path d="M52.4423 24.739C52.97 26.6244 53.6891 28.4488 54.5879 30.183C54.9984 30.9509 55.4089 31.7187 56.1544 32.2024C56.2835 32.2849 56.4258 32.3438 56.5749 32.3765C57.6729 32.6145 58.2749 31.7161 58.6627 30.8945C59.2414 29.6055 59.7091 28.2679 60.0604 26.8967C60.1284 26.6407 60.1938 26.3848 60.2593 26.1288C60.3852 25.64 60.5111 25.146 60.6194 24.652L65.4648 11.4964C66.4713 10.134 67.7761 9.02855 69.2758 8.26755C70.7755 7.50655 72.429 7.11093 74.1052 7.11202C76.5191 7.09692 78.866 7.91846 80.7588 9.44113C83.9269 11.8777 85.8131 16.6767 85.8131 16.6767C86.0881 17.3015 86.2297 17.9784 86.2287 18.6629C86.2274 19.2968 86.1033 19.9242 85.8633 20.5094C85.6235 21.0945 85.2724 21.6259 84.8305 22.0732C84.3885 22.5205 83.8642 22.8749 83.2875 23.1163C82.7108 23.3576 82.0928 23.4811 81.469 23.4798C80.7754 23.4793 80.0901 23.3239 79.4623 23.0244C78.8342 22.725 78.2787 22.2889 77.8349 21.747L77.7896 21.6907C77.4851 21.2729 77.2313 20.8192 77.0341 20.3393C76.7729 19.737 76.4803 19.1492 76.1577 18.5784C75.9865 18.2841 75.7951 18.0051 75.5986 17.7287C75.4289 17.4816 75.2282 17.2579 75.0018 17.0632C74.556 16.6972 73.9944 16.5513 73.4706 16.8661C73.4454 16.8808 73.421 16.8971 73.3976 16.9148C72.8587 17.291 72.4809 18.0512 72.219 18.6347C71.4635 20.2881 71.0303 21.9825 70.6022 23.7229C70.5216 24.0582 70.441 24.3935 70.3655 24.7314L68.3634 31.386L65.5403 37.7129C64.5297 39.0385 63.2362 40.1137 61.7574 40.8577C60.2787 41.6015 58.653 41.9949 57.0031 42.0077C50.1455 42.1562 46.8918 35.865 46.8918 35.865C42.9858 29.3537 41.8349 20.7642 41.5604 18.0179C41.5025 17.4471 41.5 17.1067 41.5 17.1067C41.4997 16.2465 41.7306 15.4025 42.1677 14.6659C42.6049 13.9293 43.2318 13.3281 43.9806 12.9271C44.7549 12.5284 45.6165 12.3372 46.4839 12.3717C47.2908 12.406 48.0759 12.6482 48.7655 13.0756C49.3013 13.4015 49.7645 13.8374 50.1254 14.3553C50.7701 15.2869 50.9162 16.4464 51.0446 17.5546C51.3113 19.9851 51.7788 22.3883 52.4423 24.739Z" fill="url(#paint11_radial_13250_6166)"/>
<path d="M52.4423 24.739C52.97 26.6244 53.6891 28.4488 54.5879 30.183C54.9984 30.9509 55.4089 31.7187 56.1544 32.2024C56.2835 32.2849 56.4258 32.3438 56.5749 32.3765C57.6729 32.6145 58.2749 31.7161 58.6627 30.8945C59.2414 29.6055 59.7091 28.2679 60.0604 26.8967C60.1284 26.6407 60.1938 26.3848 60.2593 26.1288C60.3852 25.64 60.5111 25.146 60.6194 24.652L65.4648 11.4964C66.4713 10.134 67.7761 9.02855 69.2758 8.26755C70.7755 7.50655 72.429 7.11093 74.1052 7.11202C76.5191 7.09692 78.866 7.91846 80.7588 9.44113C83.9269 11.8777 85.8131 16.6767 85.8131 16.6767C86.0881 17.3015 86.2297 17.9784 86.2287 18.6629C86.2274 19.2968 86.1033 19.9242 85.8633 20.5094C85.6235 21.0945 85.2724 21.6259 84.8305 22.0732C84.3885 22.5205 83.8642 22.8749 83.2875 23.1163C82.7108 23.3576 82.0928 23.4811 81.469 23.4798C80.7754 23.4793 80.0901 23.3239 79.4623 23.0244C78.8342 22.725 78.2787 22.2889 77.8349 21.747L77.7896 21.6907C77.4851 21.2729 77.2313 20.8192 77.0341 20.3393C76.7729 19.737 76.4803 19.1492 76.1577 18.5784C75.9865 18.2841 75.7951 18.0051 75.5986 17.7287C75.4289 17.4816 75.2282 17.2579 75.0018 17.0632C74.556 16.6972 73.9944 16.5513 73.4706 16.8661C73.4454 16.8808 73.421 16.8971 73.3976 16.9148C72.8587 17.291 72.4809 18.0512 72.219 18.6347C71.4635 20.2881 71.0303 21.9825 70.6022 23.7229C70.5216 24.0582 70.441 24.3935 70.3655 24.7314L68.3634 31.386L65.5403 37.7129C64.5297 39.0385 63.2362 40.1137 61.7574 40.8577C60.2787 41.6015 58.653 41.9949 57.0031 42.0077C50.1455 42.1562 46.8918 35.865 46.8918 35.865C42.9858 29.3537 41.8349 20.7642 41.5604 18.0179C41.5025 17.4471 41.5 17.1067 41.5 17.1067C41.4997 16.2465 41.7306 15.4025 42.1677 14.6659C42.6049 13.9293 43.2318 13.3281 43.9806 12.9271C44.7549 12.5284 45.6165 12.3372 46.4839 12.3717C47.2908 12.406 48.0759 12.6482 48.7655 13.0756C49.3013 13.4015 49.7645 13.8374 50.1254 14.3553C50.7701 15.2869 50.9162 16.4464 51.0446 17.5546C51.3113 19.9851 51.7788 22.3883 52.4423 24.739Z" fill="url(#paint12_radial_13250_6166)"/>
<path d="M52.4423 24.739C52.97 26.6244 53.6891 28.4488 54.5879 30.183C54.9984 30.9509 55.4089 31.7187 56.1544 32.2024C56.2835 32.2849 56.4258 32.3438 56.5749 32.3765C57.6729 32.6145 58.2749 31.7161 58.6627 30.8945C59.2414 29.6055 59.7091 28.2679 60.0604 26.8967C60.1284 26.6407 60.1938 26.3848 60.2593 26.1288C60.3852 25.64 60.5111 25.146 60.6194 24.652L65.4648 11.4964C66.4713 10.134 67.7761 9.02855 69.2758 8.26755C70.7755 7.50655 72.429 7.11093 74.1052 7.11202C76.5191 7.09692 78.866 7.91846 80.7588 9.44113C83.9269 11.8777 85.8131 16.6767 85.8131 16.6767C86.0881 17.3015 86.2297 17.9784 86.2287 18.6629C86.2274 19.2968 86.1033 19.9242 85.8633 20.5094C85.6235 21.0945 85.2724 21.6259 84.8305 22.0732C84.3885 22.5205 83.8642 22.8749 83.2875 23.1163C82.7108 23.3576 82.0928 23.4811 81.469 23.4798C80.7754 23.4793 80.0901 23.3239 79.4623 23.0244C78.8342 22.725 78.2787 22.2889 77.8349 21.747L77.7896 21.6907C77.4851 21.2729 77.2313 20.8192 77.0341 20.3393C76.7729 19.737 76.4803 19.1492 76.1577 18.5784C75.9865 18.2841 75.7951 18.0051 75.5986 17.7287C75.4289 17.4816 75.2282 17.2579 75.0018 17.0632C74.556 16.6972 73.9944 16.5513 73.4706 16.8661C73.4454 16.8808 73.421 16.8971 73.3976 16.9148C72.8587 17.291 72.4809 18.0512 72.219 18.6347C71.4635 20.2881 71.0303 21.9825 70.6022 23.7229C70.5216 24.0582 70.441 24.3935 70.3655 24.7314L68.3634 31.386L65.5403 37.7129C64.5297 39.0385 63.2362 40.1137 61.7574 40.8577C60.2787 41.6015 58.653 41.9949 57.0031 42.0077C50.1455 42.1562 46.8918 35.865 46.8918 35.865C42.9858 29.3537 41.8349 20.7642 41.5604 18.0179C41.5025 17.4471 41.5 17.1067 41.5 17.1067C41.4997 16.2465 41.7306 15.4025 42.1677 14.6659C42.6049 13.9293 43.2318 13.3281 43.9806 12.9271C44.7549 12.5284 45.6165 12.3372 46.4839 12.3717C47.2908 12.406 48.0759 12.6482 48.7655 13.0756C49.3013 13.4015 49.7645 13.8374 50.1254 14.3553C50.7701 15.2869 50.9162 16.4464 51.0446 17.5546C51.3113 19.9851 51.7788 22.3883 52.4423 24.739Z" fill="url(#paint13_radial_13250_6166)"/>
<path d="M52.4423 24.739C52.97 26.6244 53.6891 28.4488 54.5879 30.183C54.9984 30.9509 55.4089 31.7187 56.1544 32.2024C56.2835 32.2849 56.4258 32.3438 56.5749 32.3765C57.6729 32.6145 58.2749 31.7161 58.6627 30.8945C59.2414 29.6055 59.7091 28.2679 60.0604 26.8967C60.1284 26.6407 60.1938 26.3848 60.2593 26.1288C60.3852 25.64 60.5111 25.146 60.6194 24.652L65.4648 11.4964C66.4713 10.134 67.7761 9.02855 69.2758 8.26755C70.7755 7.50655 72.429 7.11093 74.1052 7.11202C76.5191 7.09692 78.866 7.91846 80.7588 9.44113C83.9269 11.8777 85.8131 16.6767 85.8131 16.6767C86.0881 17.3015 86.2297 17.9784 86.2287 18.6629C86.2274 19.2968 86.1033 19.9242 85.8633 20.5094C85.6235 21.0945 85.2724 21.6259 84.8305 22.0732C84.3885 22.5205 83.8642 22.8749 83.2875 23.1163C82.7108 23.3576 82.0928 23.4811 81.469 23.4798C80.7754 23.4793 80.0901 23.3239 79.4623 23.0244C78.8342 22.725 78.2787 22.2889 77.8349 21.747L77.7896 21.6907C77.4851 21.2729 77.2313 20.8192 77.0341 20.3393C76.7729 19.737 76.4803 19.1492 76.1577 18.5784C75.9865 18.2841 75.7951 18.0051 75.5986 17.7287C75.4289 17.4816 75.2282 17.2579 75.0018 17.0632C74.556 16.6972 73.9944 16.5513 73.4706 16.8661C73.4454 16.8808 73.421 16.8971 73.3976 16.9148C72.8587 17.291 72.4809 18.0512 72.219 18.6347C71.4635 20.2881 71.0303 21.9825 70.6022 23.7229C70.5216 24.0582 70.441 24.3935 70.3655 24.7314L68.3634 31.386L65.5403 37.7129C64.5297 39.0385 63.2362 40.1137 61.7574 40.8577C60.2787 41.6015 58.653 41.9949 57.0031 42.0077C50.1455 42.1562 46.8918 35.865 46.8918 35.865C42.9858 29.3537 41.8349 20.7642 41.5604 18.0179C41.5025 17.4471 41.5 17.1067 41.5 17.1067C41.4997 16.2465 41.7306 15.4025 42.1677 14.6659C42.6049 13.9293 43.2318 13.3281 43.9806 12.9271C44.7549 12.5284 45.6165 12.3372 46.4839 12.3717C47.2908 12.406 48.0759 12.6482 48.7655 13.0756C49.3013 13.4015 49.7645 13.8374 50.1254 14.3553C50.7701 15.2869 50.9162 16.4464 51.0446 17.5546C51.3113 19.9851 51.7788 22.3883 52.4423 24.739Z" fill="url(#paint14_radial_13250_6166)"/>
<path d="M52.4423 24.739C52.97 26.6244 53.6891 28.4488 54.5879 30.183C54.9984 30.9509 55.4089 31.7187 56.1544 32.2024C56.2835 32.2849 56.4258 32.3438 56.5749 32.3765C57.6729 32.6145 58.2749 31.7161 58.6627 30.8945C59.2414 29.6055 59.7091 28.2679 60.0604 26.8967C60.1284 26.6407 60.1938 26.3848 60.2593 26.1288C60.3852 25.64 60.5111 25.146 60.6194 24.652L65.4648 11.4964C66.4713 10.134 67.7761 9.02855 69.2758 8.26755C70.7755 7.50655 72.429 7.11093 74.1052 7.11202C76.5191 7.09692 78.866 7.91846 80.7588 9.44113C83.9269 11.8777 85.8131 16.6767 85.8131 16.6767C86.0881 17.3015 86.2297 17.9784 86.2287 18.6629C86.2274 19.2968 86.1033 19.9242 85.8633 20.5094C85.6235 21.0945 85.2724 21.6259 84.8305 22.0732C84.3885 22.5205 83.8642 22.8749 83.2875 23.1163C82.7108 23.3576 82.0928 23.4811 81.469 23.4798C80.7754 23.4793 80.0901 23.3239 79.4623 23.0244C78.8342 22.725 78.2787 22.2889 77.8349 21.747L77.7896 21.6907C77.4851 21.2729 77.2313 20.8192 77.0341 20.3393C76.7729 19.737 76.4803 19.1492 76.1577 18.5784C75.9865 18.2841 75.7951 18.0051 75.5986 17.7287C75.4289 17.4816 75.2282 17.2579 75.0018 17.0632C74.556 16.6972 73.9944 16.5513 73.4706 16.8661C73.4454 16.8808 73.421 16.8971 73.3976 16.9148C72.8587 17.291 72.4809 18.0512 72.219 18.6347C71.4635 20.2881 71.0303 21.9825 70.6022 23.7229C70.5216 24.0582 70.441 24.3935 70.3655 24.7314L68.3634 31.386L65.5403 37.7129C64.5297 39.0385 63.2362 40.1137 61.7574 40.8577C60.2787 41.6015 58.653 41.9949 57.0031 42.0077C50.1455 42.1562 46.8918 35.865 46.8918 35.865C42.9858 29.3537 41.8349 20.7642 41.5604 18.0179C41.5025 17.4471 41.5 17.1067 41.5 17.1067C41.4997 16.2465 41.7306 15.4025 42.1677 14.6659C42.6049 13.9293 43.2318 13.3281 43.9806 12.9271C44.7549 12.5284 45.6165 12.3372 46.4839 12.3717C47.2908 12.406 48.0759 12.6482 48.7655 13.0756C49.3013 13.4015 49.7645 13.8374 50.1254 14.3553C50.7701 15.2869 50.9162 16.4464 51.0446 17.5546C51.3113 19.9851 51.7788 22.3883 52.4423 24.739Z" fill="url(#paint15_radial_13250_6166)"/>
<path d="M52.4423 24.739C52.97 26.6244 53.6891 28.4488 54.5879 30.183C54.9984 30.9509 55.4089 31.7187 56.1544 32.2024C56.2835 32.2849 56.4258 32.3438 56.5749 32.3765C57.6729 32.6145 58.2749 31.7161 58.6627 30.8945C59.2414 29.6055 59.7091 28.2679 60.0604 26.8967C60.1284 26.6407 60.1938 26.3848 60.2593 26.1288C60.3852 25.64 60.5111 25.146 60.6194 24.652L65.4648 11.4964C66.4713 10.134 67.7761 9.02855 69.2758 8.26755C70.7755 7.50655 72.429 7.11093 74.1052 7.11202C76.5191 7.09692 78.866 7.91846 80.7588 9.44113C83.9269 11.8777 85.8131 16.6767 85.8131 16.6767C86.0881 17.3015 86.2297 17.9784 86.2287 18.6629C86.2274 19.2968 86.1033 19.9242 85.8633 20.5094C85.6235 21.0945 85.2724 21.6259 84.8305 22.0732C84.3885 22.5205 83.8642 22.8749 83.2875 23.1163C82.7108 23.3576 82.0928 23.4811 81.469 23.4798C80.7754 23.4793 80.0901 23.3239 79.4623 23.0244C78.8342 22.725 78.2787 22.2889 77.8349 21.747L77.7896 21.6907C77.4851 21.2729 77.2313 20.8192 77.0341 20.3393C76.7729 19.737 76.4803 19.1492 76.1577 18.5784C75.9865 18.2841 75.7951 18.0051 75.5986 17.7287C75.4289 17.4816 75.2282 17.2579 75.0018 17.0632C74.556 16.6972 73.9944 16.5513 73.4706 16.8661C73.4454 16.8808 73.421 16.8971 73.3976 16.9148C72.8587 17.291 72.4809 18.0512 72.219 18.6347C71.4635 20.2881 71.0303 21.9825 70.6022 23.7229C70.5216 24.0582 70.441 24.3935 70.3655 24.7314L68.3634 31.386L65.5403 37.7129C64.5297 39.0385 63.2362 40.1137 61.7574 40.8577C60.2787 41.6015 58.653 41.9949 57.0031 42.0077C50.1455 42.1562 46.8918 35.865 46.8918 35.865C42.9858 29.3537 41.8349 20.7642 41.5604 18.0179C41.5025 17.4471 41.5 17.1067 41.5 17.1067C41.4997 16.2465 41.7306 15.4025 42.1677 14.6659C42.6049 13.9293 43.2318 13.3281 43.9806 12.9271C44.7549 12.5284 45.6165 12.3372 46.4839 12.3717C47.2908 12.406 48.0759 12.6482 48.7655 13.0756C49.3013 13.4015 49.7645 13.8374 50.1254 14.3553C50.7701 15.2869 50.9162 16.4464 51.0446 17.5546C51.3113 19.9851 51.7788 22.3883 52.4423 24.739Z" fill="url(#paint16_linear_13250_6166)"/>
<path d="M52.4423 24.739C52.97 26.6244 53.6891 28.4488 54.5879 30.183C54.9984 30.9509 55.4089 31.7187 56.1544 32.2024C56.2835 32.2849 56.4258 32.3438 56.5749 32.3765C57.6729 32.6145 58.2749 31.7161 58.6627 30.8945C59.2414 29.6055 59.7091 28.2679 60.0604 26.8967C60.1284 26.6407 60.1938 26.3848 60.2593 26.1288C60.3852 25.64 60.5111 25.146 60.6194 24.652L65.4648 11.4964C66.4713 10.134 67.7761 9.02855 69.2758 8.26755C70.7755 7.50655 72.429 7.11093 74.1052 7.11202C76.5191 7.09692 78.866 7.91846 80.7588 9.44113C83.9269 11.8777 85.8131 16.6767 85.8131 16.6767C86.0881 17.3015 86.2297 17.9784 86.2287 18.6629C86.2274 19.2968 86.1033 19.9242 85.8633 20.5094C85.6235 21.0945 85.2724 21.6259 84.8305 22.0732C84.3885 22.5205 83.8642 22.8749 83.2875 23.1163C82.7108 23.3576 82.0928 23.4811 81.469 23.4798C80.7754 23.4793 80.0901 23.3239 79.4623 23.0244C78.8342 22.725 78.2787 22.2889 77.8349 21.747L77.7896 21.6907C77.4851 21.2729 77.2313 20.8192 77.0341 20.3393C76.7729 19.737 76.4803 19.1492 76.1577 18.5784C75.9865 18.2841 75.7951 18.0051 75.5986 17.7287C75.4289 17.4816 75.2282 17.2579 75.0018 17.0632C74.556 16.6972 73.9944 16.5513 73.4706 16.8661C73.4454 16.8808 73.421 16.8971 73.3976 16.9148C72.8587 17.291 72.4809 18.0512 72.219 18.6347C71.4635 20.2881 71.0303 21.9825 70.6022 23.7229C70.5216 24.0582 70.441 24.3935 70.3655 24.7314L68.3634 31.386L65.5403 37.7129C64.5297 39.0385 63.2362 40.1137 61.7574 40.8577C60.2787 41.6015 58.653 41.9949 57.0031 42.0077C50.1455 42.1562 46.8918 35.865 46.8918 35.865C42.9858 29.3537 41.8349 20.7642 41.5604 18.0179C41.5025 17.4471 41.5 17.1067 41.5 17.1067C41.4997 16.2465 41.7306 15.4025 42.1677 14.6659C42.6049 13.9293 43.2318 13.3281 43.9806 12.9271C44.7549 12.5284 45.6165 12.3372 46.4839 12.3717C47.2908 12.406 48.0759 12.6482 48.7655 13.0756C49.3013 13.4015 49.7645 13.8374 50.1254 14.3553C50.7701 15.2869 50.9162 16.4464 51.0446 17.5546C51.3113 19.9851 51.7788 22.3883 52.4423 24.739Z" fill="url(#paint17_linear_13250_6166)"/>
<path d="M52.4423 24.739C52.97 26.6244 53.6891 28.4488 54.5879 30.183C54.9984 30.9509 55.4089 31.7187 56.1544 32.2024C56.2835 32.2849 56.4258 32.3438 56.5749 32.3765C57.6729 32.6145 58.2749 31.7161 58.6627 30.8945C59.2414 29.6055 59.7091 28.2679 60.0604 26.8967C60.1284 26.6407 60.1938 26.3848 60.2593 26.1288C60.3852 25.64 60.5111 25.146 60.6194 24.652L65.4648 11.4964C66.4713 10.134 67.7761 9.02855 69.2758 8.26755C70.7755 7.50655 72.429 7.11093 74.1052 7.11202C76.5191 7.09692 78.866 7.91846 80.7588 9.44113C83.9269 11.8777 85.8131 16.6767 85.8131 16.6767C86.0881 17.3015 86.2297 17.9784 86.2287 18.6629C86.2274 19.2968 86.1033 19.9242 85.8633 20.5094C85.6235 21.0945 85.2724 21.6259 84.8305 22.0732C84.3885 22.5205 83.8642 22.8749 83.2875 23.1163C82.7108 23.3576 82.0928 23.4811 81.469 23.4798C80.7754 23.4793 80.0901 23.3239 79.4623 23.0244C78.8342 22.725 78.2787 22.2889 77.8349 21.747L77.7896 21.6907C77.4851 21.2729 77.2313 20.8192 77.0341 20.3393C76.7729 19.737 76.4803 19.1492 76.1577 18.5784C75.9865 18.2841 75.7951 18.0051 75.5986 17.7287C75.4289 17.4816 75.2282 17.2579 75.0018 17.0632C74.556 16.6972 73.9944 16.5513 73.4706 16.8661C73.4454 16.8808 73.421 16.8971 73.3976 16.9148C72.8587 17.291 72.4809 18.0512 72.219 18.6347C71.4635 20.2881 71.0303 21.9825 70.6022 23.7229C70.5216 24.0582 70.441 24.3935 70.3655 24.7314L68.3634 31.386L65.5403 37.7129C64.5297 39.0385 63.2362 40.1137 61.7574 40.8577C60.2787 41.6015 58.653 41.9949 57.0031 42.0077C50.1455 42.1562 46.8918 35.865 46.8918 35.865C42.9858 29.3537 41.8349 20.7642 41.5604 18.0179C41.5025 17.4471 41.5 17.1067 41.5 17.1067C41.4997 16.2465 41.7306 15.4025 42.1677 14.6659C42.6049 13.9293 43.2318 13.3281 43.9806 12.9271C44.7549 12.5284 45.6165 12.3372 46.4839 12.3717C47.2908 12.406 48.0759 12.6482 48.7655 13.0756C49.3013 13.4015 49.7645 13.8374 50.1254 14.3553C50.7701 15.2869 50.9162 16.4464 51.0446 17.5546C51.3113 19.9851 51.7788 22.3883 52.4423 24.739Z" fill="url(#paint18_linear_13250_6166)"/>
<path d="M52.4423 24.739C52.97 26.6244 53.6891 28.4488 54.5879 30.183C54.9984 30.9509 55.4089 31.7187 56.1544 32.2024C56.2835 32.2849 56.4258 32.3438 56.5749 32.3765C57.6729 32.6145 58.2749 31.7161 58.6627 30.8945C59.2414 29.6055 59.7091 28.2679 60.0604 26.8967C60.1284 26.6407 60.1938 26.3848 60.2593 26.1288C60.3852 25.64 60.5111 25.146 60.6194 24.652L65.4648 11.4964C66.4713 10.134 67.7761 9.02855 69.2758 8.26755C70.7755 7.50655 72.429 7.11093 74.1052 7.11202C76.5191 7.09692 78.866 7.91846 80.7588 9.44113C83.9269 11.8777 85.8131 16.6767 85.8131 16.6767C86.0881 17.3015 86.2297 17.9784 86.2287 18.6629C86.2274 19.2968 86.1033 19.9242 85.8633 20.5094C85.6235 21.0945 85.2724 21.6259 84.8305 22.0732C84.3885 22.5205 83.8642 22.8749 83.2875 23.1163C82.7108 23.3576 82.0928 23.4811 81.469 23.4798C80.7754 23.4793 80.0901 23.3239 79.4623 23.0244C78.8342 22.725 78.2787 22.2889 77.8349 21.747L77.7896 21.6907C77.4851 21.2729 77.2313 20.8192 77.0341 20.3393C76.7729 19.737 76.4803 19.1492 76.1577 18.5784C75.9865 18.2841 75.7951 18.0051 75.5986 17.7287C75.4289 17.4816 75.2282 17.2579 75.0018 17.0632C74.556 16.6972 73.9944 16.5513 73.4706 16.8661C73.4454 16.8808 73.421 16.8971 73.3976 16.9148C72.8587 17.291 72.4809 18.0512 72.219 18.6347C71.4635 20.2881 71.0303 21.9825 70.6022 23.7229C70.5216 24.0582 70.441 24.3935 70.3655 24.7314L68.3634 31.386L65.5403 37.7129C64.5297 39.0385 63.2362 40.1137 61.7574 40.8577C60.2787 41.6015 58.653 41.9949 57.0031 42.0077C50.1455 42.1562 46.8918 35.865 46.8918 35.865C42.9858 29.3537 41.8349 20.7642 41.5604 18.0179C41.5025 17.4471 41.5 17.1067 41.5 17.1067C41.4997 16.2465 41.7306 15.4025 42.1677 14.6659C42.6049 13.9293 43.2318 13.3281 43.9806 12.9271C44.7549 12.5284 45.6165 12.3372 46.4839 12.3717C47.2908 12.406 48.0759 12.6482 48.7655 13.0756C49.3013 13.4015 49.7645 13.8374 50.1254 14.3553C50.7701 15.2869 50.9162 16.4464 51.0446 17.5546C51.3113 19.9851 51.7788 22.3883 52.4423 24.739Z" fill="url(#paint19_linear_13250_6166)"/>
<path d="M62.3848 19.858L65.4647 11.4988C66.4712 10.1365 67.7761 9.03099 69.2758 8.26999C70.7755 7.50899 72.4291 7.11337 74.1053 7.11446C76.5191 7.09936 78.866 7.9209 80.7588 9.44357C83.9269 11.8802 85.8132 16.6792 85.8132 16.6792C86.0882 17.304 86.2297 17.9809 86.2287 18.6653C86.2274 19.2992 86.1033 19.9267 85.8633 20.5118C85.6233 21.097 85.2725 21.6284 84.8305 22.0756C84.3885 22.5229 83.8642 22.8774 83.2872 23.1187C82.7105 23.3601 82.0928 23.4836 81.469 23.4822C80.7754 23.4818 80.0902 23.3263 79.4623 23.0269C78.8343 22.7274 78.2787 22.2913 77.835 21.7495L77.7896 21.6932C77.4849 21.2754 77.2313 20.8216 77.0341 20.3418C76.7727 19.7394 76.4803 19.1517 76.1577 18.5808C75.9865 18.2865 75.7951 18.0075 75.5987 17.7311C75.4289 17.484 75.2282 17.2603 75.0018 17.0656C74.5561 16.6996 73.9945 16.5538 73.4706 16.8686C73.4455 16.8833 73.421 16.8995 73.3976 16.9172C72.8587 17.2934 72.4809 18.0536 72.219 18.6372C71.4635 20.2906 71.0303 21.9849 70.6022 23.7254C70.5216 24.0607 70.441 24.3959 70.3655 24.7338L68.3634 31.3884L62.3848 19.858Z" fill="url(#paint20_linear_13250_6166)"/>
<path d="M84.7609 12.3922C84.3607 12.3913 83.9623 12.442 83.5748 12.5432C84.4582 13.8405 85.2082 15.2265 85.8136 16.6793C86.0886 17.3041 86.2301 17.981 86.2291 18.6654C86.2279 19.2994 86.1037 19.9268 85.8637 20.5119C85.6237 21.0971 85.2729 21.6285 84.8309 22.0758C84.389 22.5231 83.8646 22.8775 83.2877 23.1188C82.711 23.3602 82.0932 23.4837 81.4694 23.4823C80.6263 23.4807 79.7987 23.251 79.0719 22.8169L78.5834 24.652C77.6969 27.6645 77.0723 28.8291 77.0723 28.8291C76.7283 29.6458 76.3188 30.4325 75.8484 31.1812C75.5235 31.6701 75.108 32.1615 74.5389 32.3483C74.3409 32.4184 74.1294 32.4395 73.9219 32.4098C73.6972 32.3821 73.4804 32.3081 73.2847 32.1922C72.9105 31.9062 72.6128 31.5296 72.4184 31.0967C72.1776 30.6162 71.9616 30.1233 71.7712 29.6199C71.3506 28.5808 70.7009 26.0213 70.7009 26.0213L70.0285 23.3416L69.3561 20.6413L68.8776 18.8676C67.6184 14.2478 65.8757 11.975 65.8757 11.975C64.5059 9.98998 62.5653 8.4844 60.3201 7.66487C57.7161 6.71531 54.9837 7.25024 54.9837 7.25024C50.7025 8.1051 48.4536 11.0894 47.4639 12.5253C47.9168 12.6455 48.3503 12.8317 48.7508 13.0781C49.2866 13.4041 49.7498 13.8399 50.1107 14.3579C50.7554 15.2895 50.9014 16.4489 51.0299 17.5572C51.3 19.9591 51.7667 22.334 52.4251 24.6571C53.8756 19.7686 55.6158 17.4906 55.6158 17.4906C55.8103 17.2451 56.0434 17.0341 56.3059 16.8661C56.4425 16.7809 56.5952 16.726 56.7541 16.7049C57.0487 16.6761 57.3441 16.7492 57.5927 16.9122C57.6383 16.9427 57.6812 16.9769 57.7212 17.0146C57.9486 17.2196 58.144 17.4586 58.3004 17.7236C58.6627 18.3817 58.9766 19.066 59.2398 19.7711C59.7837 21.3273 60.2471 23.229 60.2471 23.229L61.6322 28.7779C62.6396 32.5505 63.4933 34.3831 63.4933 34.3831C65.5961 39.2768 68.8121 40.6538 68.8121 40.6538C70.3778 41.5048 72.119 41.9678 73.8942 42.0052C75.5888 42.052 77.2695 41.6842 78.7949 40.9328C80.4674 40.0968 81.9346 38.8908 83.0887 37.4033C83.8669 36.487 85.0128 34.2551 85.0128 34.2551C86.2762 31.6964 87.2682 29.0084 87.9718 26.2363C88.4214 24.5094 88.782 22.7597 89.0522 20.9945C89.1882 20.1192 89.3166 19.2388 89.4199 18.3557C89.5486 17.5196 89.5229 16.6664 89.3444 15.8398C89.3068 15.6912 89.2607 15.545 89.2058 15.4021C88.8011 14.3648 88.0507 13.5051 87.0854 12.9732C86.3699 12.5866 85.5711 12.387 84.7609 12.3922Z" fill="url(#paint21_linear_13250_6166)"/>
<path d="M84.7609 12.3922C84.3607 12.3913 83.9623 12.442 83.5748 12.5432C84.4582 13.8405 85.2082 15.2265 85.8136 16.6793C86.0886 17.3041 86.2301 17.981 86.2291 18.6654C86.2279 19.2994 86.1037 19.9268 85.8637 20.5119C85.6237 21.0971 85.2729 21.6285 84.8309 22.0758C84.389 22.5231 83.8646 22.8775 83.2877 23.1188C82.711 23.3602 82.0932 23.4837 81.4694 23.4823C80.6263 23.4807 79.7987 23.251 79.0719 22.8169L78.5834 24.652C77.6969 27.6645 77.0723 28.8291 77.0723 28.8291C76.7283 29.6458 76.3188 30.4325 75.8484 31.1812C75.5235 31.6701 75.108 32.1615 74.5389 32.3483C74.3409 32.4184 74.1294 32.4395 73.9219 32.4098C73.6972 32.3821 73.4804 32.3081 73.2847 32.1922C72.9105 31.9062 72.6128 31.5296 72.4184 31.0967C72.1776 30.6162 71.9616 30.1233 71.7712 29.6199C71.3506 28.5808 70.7009 26.0213 70.7009 26.0213L70.0285 23.3416L69.3561 20.6413L68.8776 18.8676C67.6184 14.2478 65.8757 11.975 65.8757 11.975C64.5059 9.98998 62.5653 8.4844 60.3201 7.66487C57.7161 6.71531 54.9837 7.25024 54.9837 7.25024C50.7025 8.1051 48.4536 11.0894 47.4639 12.5253C47.9168 12.6455 48.3503 12.8317 48.7508 13.0781C49.2866 13.4041 49.7498 13.8399 50.1107 14.3579C50.7554 15.2895 50.9014 16.4489 51.0299 17.5572C51.3 19.9591 51.7667 22.334 52.4251 24.6571C53.8756 19.7686 55.6158 17.4906 55.6158 17.4906C55.8103 17.2451 56.0434 17.0341 56.3059 16.8661C56.4425 16.7809 56.5952 16.726 56.7541 16.7049C57.0487 16.6761 57.3441 16.7492 57.5927 16.9122C57.6383 16.9427 57.6812 16.9769 57.7212 17.0146C57.9486 17.2196 58.144 17.4586 58.3004 17.7236C58.6627 18.3817 58.9766 19.066 59.2398 19.7711C59.7837 21.3273 60.2471 23.229 60.2471 23.229L61.6322 28.7779C62.6396 32.5505 63.4933 34.3831 63.4933 34.3831C65.5961 39.2768 68.8121 40.6538 68.8121 40.6538C70.3778 41.5048 72.119 41.9678 73.8942 42.0052C75.5888 42.052 77.2695 41.6842 78.7949 40.9328C80.4674 40.0968 81.9346 38.8908 83.0887 37.4033C83.8669 36.487 85.0128 34.2551 85.0128 34.2551C86.2762 31.6964 87.2682 29.0084 87.9718 26.2363C88.4214 24.5094 88.782 22.7597 89.0522 20.9945C89.1882 20.1192 89.3166 19.2388 89.4199 18.3557C89.5486 17.5196 89.5229 16.6664 89.3444 15.8398C89.3068 15.6912 89.2607 15.545 89.2058 15.4021C88.8011 14.3648 88.0507 13.5051 87.0854 12.9732C86.3699 12.5866 85.5711 12.387 84.7609 12.3922Z" fill="url(#paint22_radial_13250_6166)"/>
<path d="M84.7609 12.3922C84.3607 12.3913 83.9623 12.442 83.5748 12.5432C84.4582 13.8405 85.2082 15.2265 85.8136 16.6793C86.0886 17.3041 86.2301 17.981 86.2291 18.6654C86.2279 19.2994 86.1037 19.9268 85.8637 20.5119C85.6237 21.0971 85.2729 21.6285 84.8309 22.0758C84.389 22.5231 83.8646 22.8775 83.2877 23.1188C82.711 23.3602 82.0932 23.4837 81.4694 23.4823C80.6263 23.4807 79.7987 23.251 79.0719 22.8169L78.5834 24.652C77.6969 27.6645 77.0723 28.8291 77.0723 28.8291C76.7283 29.6458 76.3188 30.4325 75.8484 31.1812C75.5235 31.6701 75.108 32.1615 74.5389 32.3483C74.3409 32.4184 74.1294 32.4395 73.9219 32.4098C73.6972 32.3821 73.4804 32.3081 73.2847 32.1922C72.9105 31.9062 72.6128 31.5296 72.4184 31.0967C72.1776 30.6162 71.9616 30.1233 71.7712 29.6199C71.3506 28.5808 70.7009 26.0213 70.7009 26.0213L70.0285 23.3416L69.3561 20.6413L68.8776 18.8676C67.6184 14.2478 65.8757 11.975 65.8757 11.975C64.5059 9.98998 62.5653 8.4844 60.3201 7.66487C57.7161 6.71531 54.9837 7.25024 54.9837 7.25024C50.7025 8.1051 48.4536 11.0894 47.4639 12.5253C47.9168 12.6455 48.3503 12.8317 48.7508 13.0781C49.2866 13.4041 49.7498 13.8399 50.1107 14.3579C50.7554 15.2895 50.9014 16.4489 51.0299 17.5572C51.3 19.9591 51.7667 22.334 52.4251 24.6571C53.8756 19.7686 55.6158 17.4906 55.6158 17.4906C55.8103 17.2451 56.0434 17.0341 56.3059 16.8661C56.4425 16.7809 56.5952 16.726 56.7541 16.7049C57.0487 16.6761 57.3441 16.7492 57.5927 16.9122C57.6383 16.9427 57.6812 16.9769 57.7212 17.0146C57.9486 17.2196 58.144 17.4586 58.3004 17.7236C58.6627 18.3817 58.9766 19.066 59.2398 19.7711C59.7837 21.3273 60.2471 23.229 60.2471 23.229L61.6322 28.7779C62.6396 32.5505 63.4933 34.3831 63.4933 34.3831C65.5961 39.2768 68.8121 40.6538 68.8121 40.6538C70.3778 41.5048 72.119 41.9678 73.8942 42.0052C75.5888 42.052 77.2695 41.6842 78.7949 40.9328C80.4674 40.0968 81.9346 38.8908 83.0887 37.4033C83.8669 36.487 85.0128 34.2551 85.0128 34.2551C86.2762 31.6964 87.2682 29.0084 87.9718 26.2363C88.4214 24.5094 88.782 22.7597 89.0522 20.9945C89.1882 20.1192 89.3166 19.2388 89.4199 18.3557C89.5486 17.5196 89.5229 16.6664 89.3444 15.8398C89.3068 15.6912 89.2607 15.545 89.2058 15.4021C88.8011 14.3648 88.0507 13.5051 87.0854 12.9732C86.3699 12.5866 85.5711 12.387 84.7609 12.3922Z" fill="url(#paint23_radial_13250_6166)"/>
<path d="M84.7609 12.3922C84.3607 12.3913 83.9623 12.442 83.5748 12.5432C84.4582 13.8405 85.2082 15.2265 85.8136 16.6793C86.0886 17.3041 86.2301 17.981 86.2291 18.6654C86.2279 19.2994 86.1037 19.9268 85.8637 20.5119C85.6237 21.0971 85.2729 21.6285 84.8309 22.0758C84.389 22.5231 83.8646 22.8775 83.2877 23.1188C82.711 23.3602 82.0932 23.4837 81.4694 23.4823C80.6263 23.4807 79.7987 23.251 79.0719 22.8169L78.5834 24.652C77.6969 27.6645 77.0723 28.8291 77.0723 28.8291C76.7283 29.6458 76.3188 30.4325 75.8484 31.1812C75.5235 31.6701 75.108 32.1615 74.5389 32.3483C74.3409 32.4184 74.1294 32.4395 73.9219 32.4098C73.6972 32.3821 73.4804 32.3081 73.2847 32.1922C72.9105 31.9062 72.6128 31.5296 72.4184 31.0967C72.1776 30.6162 71.9616 30.1233 71.7712 29.6199C71.3506 28.5808 70.7009 26.0213 70.7009 26.0213L70.0285 23.3416L69.3561 20.6413L68.8776 18.8676C67.6184 14.2478 65.8757 11.975 65.8757 11.975C64.5059 9.98998 62.5653 8.4844 60.3201 7.66487C57.7161 6.71531 54.9837 7.25024 54.9837 7.25024C50.7025 8.1051 48.4536 11.0894 47.4639 12.5253C47.9168 12.6455 48.3503 12.8317 48.7508 13.0781C49.2866 13.4041 49.7498 13.8399 50.1107 14.3579C50.7554 15.2895 50.9014 16.4489 51.0299 17.5572C51.3 19.9591 51.7667 22.334 52.4251 24.6571C53.8756 19.7686 55.6158 17.4906 55.6158 17.4906C55.8103 17.2451 56.0434 17.0341 56.3059 16.8661C56.4425 16.7809 56.5952 16.726 56.7541 16.7049C57.0487 16.6761 57.3441 16.7492 57.5927 16.9122C57.6383 16.9427 57.6812 16.9769 57.7212 17.0146C57.9486 17.2196 58.144 17.4586 58.3004 17.7236C58.6627 18.3817 58.9766 19.066 59.2398 19.7711C59.7837 21.3273 60.2471 23.229 60.2471 23.229L61.6322 28.7779C62.6396 32.5505 63.4933 34.3831 63.4933 34.3831C65.5961 39.2768 68.8121 40.6538 68.8121 40.6538C70.3778 41.5048 72.119 41.9678 73.8942 42.0052C75.5888 42.052 77.2695 41.6842 78.7949 40.9328C80.4674 40.0968 81.9346 38.8908 83.0887 37.4033C83.8669 36.487 85.0128 34.2551 85.0128 34.2551C86.2762 31.6964 87.2682 29.0084 87.9718 26.2363C88.4214 24.5094 88.782 22.7597 89.0522 20.9945C89.1882 20.1192 89.3166 19.2388 89.4199 18.3557C89.5486 17.5196 89.5229 16.6664 89.3444 15.8398C89.3068 15.6912 89.2607 15.545 89.2058 15.4021C88.8011 14.3648 88.0507 13.5051 87.0854 12.9732C86.3699 12.5866 85.5711 12.387 84.7609 12.3922Z" fill="url(#paint24_radial_13250_6166)"/>
<path d="M84.7609 12.3922C84.3607 12.3913 83.9623 12.442 83.5748 12.5432C84.4582 13.8405 85.2082 15.2265 85.8136 16.6793C86.0886 17.3041 86.2301 17.981 86.2291 18.6654C86.2279 19.2994 86.1037 19.9268 85.8637 20.5119C85.6237 21.0971 85.2729 21.6285 84.8309 22.0758C84.389 22.5231 83.8646 22.8775 83.2877 23.1188C82.711 23.3602 82.0932 23.4837 81.4694 23.4823C80.6263 23.4807 79.7987 23.251 79.0719 22.8169L78.5834 24.652C77.6969 27.6645 77.0723 28.8291 77.0723 28.8291C76.7283 29.6458 76.3188 30.4325 75.8484 31.1812C75.5235 31.6701 75.108 32.1615 74.5389 32.3483C74.3409 32.4184 74.1294 32.4395 73.9219 32.4098C73.6972 32.3821 73.4804 32.3081 73.2847 32.1922C72.9105 31.9062 72.6128 31.5296 72.4184 31.0967C72.1776 30.6162 71.9616 30.1233 71.7712 29.6199C71.3506 28.5808 70.7009 26.0213 70.7009 26.0213L70.0285 23.3416L69.3561 20.6413L68.8776 18.8676C67.6184 14.2478 65.8757 11.975 65.8757 11.975C64.5059 9.98998 62.5653 8.4844 60.3201 7.66487C57.7161 6.71531 54.9837 7.25024 54.9837 7.25024C50.7025 8.1051 48.4536 11.0894 47.4639 12.5253C47.9168 12.6455 48.3503 12.8317 48.7508 13.0781C49.2866 13.4041 49.7498 13.8399 50.1107 14.3579C50.7554 15.2895 50.9014 16.4489 51.0299 17.5572C51.3 19.9591 51.7667 22.334 52.4251 24.6571C53.8756 19.7686 55.6158 17.4906 55.6158 17.4906C55.8103 17.2451 56.0434 17.0341 56.3059 16.8661C56.4425 16.7809 56.5952 16.726 56.7541 16.7049C57.0487 16.6761 57.3441 16.7492 57.5927 16.9122C57.6383 16.9427 57.6812 16.9769 57.7212 17.0146C57.9486 17.2196 58.144 17.4586 58.3004 17.7236C58.6627 18.3817 58.9766 19.066 59.2398 19.7711C59.7837 21.3273 60.2471 23.229 60.2471 23.229L61.6322 28.7779C62.6396 32.5505 63.4933 34.3831 63.4933 34.3831C65.5961 39.2768 68.8121 40.6538 68.8121 40.6538C70.3778 41.5048 72.119 41.9678 73.8942 42.0052C75.5888 42.052 77.2695 41.6842 78.7949 40.9328C80.4674 40.0968 81.9346 38.8908 83.0887 37.4033C83.8669 36.487 85.0128 34.2551 85.0128 34.2551C86.2762 31.6964 87.2682 29.0084 87.9718 26.2363C88.4214 24.5094 88.782 22.7597 89.0522 20.9945C89.1882 20.1192 89.3166 19.2388 89.4199 18.3557C89.5486 17.5196 89.5229 16.6664 89.3444 15.8398C89.3068 15.6912 89.2607 15.545 89.2058 15.4021C88.8011 14.3648 88.0507 13.5051 87.0854 12.9732C86.3699 12.5866 85.5711 12.387 84.7609 12.3922Z" fill="url(#paint25_radial_13250_6166)"/>
<path d="M84.7609 12.3922C84.3607 12.3913 83.9623 12.442 83.5748 12.5432C84.4582 13.8405 85.2082 15.2265 85.8136 16.6793C86.0886 17.3041 86.2301 17.981 86.2291 18.6654C86.2279 19.2994 86.1037 19.9268 85.8637 20.5119C85.6237 21.0971 85.2729 21.6285 84.8309 22.0758C84.389 22.5231 83.8646 22.8775 83.2877 23.1188C82.711 23.3602 82.0932 23.4837 81.4694 23.4823C80.6263 23.4807 79.7987 23.251 79.0719 22.8169L78.5834 24.652C77.6969 27.6645 77.0723 28.8291 77.0723 28.8291C76.7283 29.6458 76.3188 30.4325 75.8484 31.1812C75.5235 31.6701 75.108 32.1615 74.5389 32.3483C74.3409 32.4184 74.1294 32.4395 73.9219 32.4098C73.6972 32.3821 73.4804 32.3081 73.2847 32.1922C72.9105 31.9062 72.6128 31.5296 72.4184 31.0967C72.1776 30.6162 71.9616 30.1233 71.7712 29.6199C71.3506 28.5808 70.7009 26.0213 70.7009 26.0213L70.0285 23.3416L69.3561 20.6413L68.8776 18.8676C67.6184 14.2478 65.8757 11.975 65.8757 11.975C64.5059 9.98998 62.5653 8.4844 60.3201 7.66487C57.7161 6.71531 54.9837 7.25024 54.9837 7.25024C50.7025 8.1051 48.4536 11.0894 47.4639 12.5253C47.9168 12.6455 48.3503 12.8317 48.7508 13.0781C49.2866 13.4041 49.7498 13.8399 50.1107 14.3579C50.7554 15.2895 50.9014 16.4489 51.0299 17.5572C51.3 19.9591 51.7667 22.334 52.4251 24.6571C53.8756 19.7686 55.6158 17.4906 55.6158 17.4906C55.8103 17.2451 56.0434 17.0341 56.3059 16.8661C56.4425 16.7809 56.5952 16.726 56.7541 16.7049C57.0487 16.6761 57.3441 16.7492 57.5927 16.9122C57.6383 16.9427 57.6812 16.9769 57.7212 17.0146C57.9486 17.2196 58.144 17.4586 58.3004 17.7236C58.6627 18.3817 58.9766 19.066 59.2398 19.7711C59.7837 21.3273 60.2471 23.229 60.2471 23.229L61.6322 28.7779C62.6396 32.5505 63.4933 34.3831 63.4933 34.3831C65.5961 39.2768 68.8121 40.6538 68.8121 40.6538C70.3778 41.5048 72.119 41.9678 73.8942 42.0052C75.5888 42.052 77.2695 41.6842 78.7949 40.9328C80.4674 40.0968 81.9346 38.8908 83.0887 37.4033C83.8669 36.487 85.0128 34.2551 85.0128 34.2551C86.2762 31.6964 87.2682 29.0084 87.9718 26.2363C88.4214 24.5094 88.782 22.7597 89.0522 20.9945C89.1882 20.1192 89.3166 19.2388 89.4199 18.3557C89.5486 17.5196 89.5229 16.6664 89.3444 15.8398C89.3068 15.6912 89.2607 15.545 89.2058 15.4021C88.8011 14.3648 88.0507 13.5051 87.0854 12.9732C86.3699 12.5866 85.5711 12.387 84.7609 12.3922Z" fill="url(#paint26_radial_13250_6166)"/>
<path d="M84.7609 12.3922C84.3607 12.3913 83.9623 12.442 83.5748 12.5432C84.4582 13.8405 85.2082 15.2265 85.8136 16.6793C86.0886 17.3041 86.2301 17.981 86.2291 18.6654C86.2279 19.2994 86.1037 19.9268 85.8637 20.5119C85.6237 21.0971 85.2729 21.6285 84.8309 22.0758C84.389 22.5231 83.8646 22.8775 83.2877 23.1188C82.711 23.3602 82.0932 23.4837 81.4694 23.4823C80.6263 23.4807 79.7987 23.251 79.0719 22.8169L78.5834 24.652C77.6969 27.6645 77.0723 28.8291 77.0723 28.8291C76.7283 29.6458 76.3188 30.4325 75.8484 31.1812C75.5235 31.6701 75.108 32.1615 74.5389 32.3483C74.3409 32.4184 74.1294 32.4395 73.9219 32.4098C73.6972 32.3821 73.4804 32.3081 73.2847 32.1922C72.9105 31.9062 72.6128 31.5296 72.4184 31.0967C72.1776 30.6162 71.9616 30.1233 71.7712 29.6199C71.3506 28.5808 70.7009 26.0213 70.7009 26.0213L70.0285 23.3416L69.3561 20.6413L68.8776 18.8676C67.6184 14.2478 65.8757 11.975 65.8757 11.975C64.5059 9.98998 62.5653 8.4844 60.3201 7.66487C57.7161 6.71531 54.9837 7.25024 54.9837 7.25024C50.7025 8.1051 48.4536 11.0894 47.4639 12.5253C47.9168 12.6455 48.3503 12.8317 48.7508 13.0781C49.2866 13.4041 49.7498 13.8399 50.1107 14.3579C50.7554 15.2895 50.9014 16.4489 51.0299 17.5572C51.3 19.9591 51.7667 22.334 52.4251 24.6571C53.8756 19.7686 55.6158 17.4906 55.6158 17.4906C55.8103 17.2451 56.0434 17.0341 56.3059 16.8661C56.4425 16.7809 56.5952 16.726 56.7541 16.7049C57.0487 16.6761 57.3441 16.7492 57.5927 16.9122C57.6383 16.9427 57.6812 16.9769 57.7212 17.0146C57.9486 17.2196 58.144 17.4586 58.3004 17.7236C58.6627 18.3817 58.9766 19.066 59.2398 19.7711C59.7837 21.3273 60.2471 23.229 60.2471 23.229L61.6322 28.7779C62.6396 32.5505 63.4933 34.3831 63.4933 34.3831C65.5961 39.2768 68.8121 40.6538 68.8121 40.6538C70.3778 41.5048 72.119 41.9678 73.8942 42.0052C75.5888 42.052 77.2695 41.6842 78.7949 40.9328C80.4674 40.0968 81.9346 38.8908 83.0887 37.4033C83.8669 36.487 85.0128 34.2551 85.0128 34.2551C86.2762 31.6964 87.2682 29.0084 87.9718 26.2363C88.4214 24.5094 88.782 22.7597 89.0522 20.9945C89.1882 20.1192 89.3166 19.2388 89.4199 18.3557C89.5486 17.5196 89.5229 16.6664 89.3444 15.8398C89.3068 15.6912 89.2607 15.545 89.2058 15.4021C88.8011 14.3648 88.0507 13.5051 87.0854 12.9732C86.3699 12.5866 85.5711 12.387 84.7609 12.3922Z" fill="url(#paint27_radial_13250_6166)"/>
<path d="M84.7609 12.3922C84.3607 12.3913 83.9623 12.442 83.5748 12.5432C84.4582 13.8405 85.2082 15.2265 85.8136 16.6793C86.0886 17.3041 86.2301 17.981 86.2291 18.6654C86.2279 19.2994 86.1037 19.9268 85.8637 20.5119C85.6237 21.0971 85.2729 21.6285 84.8309 22.0758C84.389 22.5231 83.8646 22.8775 83.2877 23.1188C82.711 23.3602 82.0932 23.4837 81.4694 23.4823C80.6263 23.4807 79.7987 23.251 79.0719 22.8169L78.5834 24.652C77.6969 27.6645 77.0723 28.8291 77.0723 28.8291C76.7283 29.6458 76.3188 30.4325 75.8484 31.1812C75.5235 31.6701 75.108 32.1615 74.5389 32.3483C74.3409 32.4184 74.1294 32.4395 73.9219 32.4098C73.6972 32.3821 73.4804 32.3081 73.2847 32.1922C72.9105 31.9062 72.6128 31.5296 72.4184 31.0967C72.1776 30.6162 71.9616 30.1233 71.7712 29.6199C71.3506 28.5808 70.7009 26.0213 70.7009 26.0213L70.0285 23.3416L69.3561 20.6413L68.8776 18.8676C67.6184 14.2478 65.8757 11.975 65.8757 11.975C64.5059 9.98998 62.5653 8.4844 60.3201 7.66487C57.7161 6.71531 54.9837 7.25024 54.9837 7.25024C50.7025 8.1051 48.4536 11.0894 47.4639 12.5253C47.9168 12.6455 48.3503 12.8317 48.7508 13.0781C49.2866 13.4041 49.7498 13.8399 50.1107 14.3579C50.7554 15.2895 50.9014 16.4489 51.0299 17.5572C51.3 19.9591 51.7667 22.334 52.4251 24.6571C53.8756 19.7686 55.6158 17.4906 55.6158 17.4906C55.8103 17.2451 56.0434 17.0341 56.3059 16.8661C56.4425 16.7809 56.5952 16.726 56.7541 16.7049C57.0487 16.6761 57.3441 16.7492 57.5927 16.9122C57.6383 16.9427 57.6812 16.9769 57.7212 17.0146C57.9486 17.2196 58.144 17.4586 58.3004 17.7236C58.6627 18.3817 58.9766 19.066 59.2398 19.7711C59.7837 21.3273 60.2471 23.229 60.2471 23.229L61.6322 28.7779C62.6396 32.5505 63.4933 34.3831 63.4933 34.3831C65.5961 39.2768 68.8121 40.6538 68.8121 40.6538C70.3778 41.5048 72.119 41.9678 73.8942 42.0052C75.5888 42.052 77.2695 41.6842 78.7949 40.9328C80.4674 40.0968 81.9346 38.8908 83.0887 37.4033C83.8669 36.487 85.0128 34.2551 85.0128 34.2551C86.2762 31.6964 87.2682 29.0084 87.9718 26.2363C88.4214 24.5094 88.782 22.7597 89.0522 20.9945C89.1882 20.1192 89.3166 19.2388 89.4199 18.3557C89.5486 17.5196 89.5229 16.6664 89.3444 15.8398C89.3068 15.6912 89.2607 15.545 89.2058 15.4021C88.8011 14.3648 88.0507 13.5051 87.0854 12.9732C86.3699 12.5866 85.5711 12.387 84.7609 12.3922Z" fill="url(#paint28_radial_13250_6166)"/>
<path d="M84.7609 12.3922C84.3607 12.3913 83.9623 12.442 83.5748 12.5432C84.4582 13.8405 85.2082 15.2265 85.8136 16.6793C86.0886 17.3041 86.2301 17.981 86.2291 18.6654C86.2279 19.2994 86.1037 19.9268 85.8637 20.5119C85.6237 21.0971 85.2729 21.6285 84.8309 22.0758C84.389 22.5231 83.8646 22.8775 83.2877 23.1188C82.711 23.3602 82.0932 23.4837 81.4694 23.4823C80.6263 23.4807 79.7987 23.251 79.0719 22.8169L78.5834 24.652C77.6969 27.6645 77.0723 28.8291 77.0723 28.8291C76.7283 29.6458 76.3188 30.4325 75.8484 31.1812C75.5235 31.6701 75.108 32.1615 74.5389 32.3483C74.3409 32.4184 74.1294 32.4395 73.9219 32.4098C73.6972 32.3821 73.4804 32.3081 73.2847 32.1922C72.9105 31.9062 72.6128 31.5296 72.4184 31.0967C72.1776 30.6162 71.9616 30.1233 71.7712 29.6199C71.3506 28.5808 70.7009 26.0213 70.7009 26.0213L70.0285 23.3416L69.3561 20.6413L68.8776 18.8676C67.6184 14.2478 65.8757 11.975 65.8757 11.975C64.5059 9.98998 62.5653 8.4844 60.3201 7.66487C57.7161 6.71531 54.9837 7.25024 54.9837 7.25024C50.7025 8.1051 48.4536 11.0894 47.4639 12.5253C47.9168 12.6455 48.3503 12.8317 48.7508 13.0781C49.2866 13.4041 49.7498 13.8399 50.1107 14.3579C50.7554 15.2895 50.9014 16.4489 51.0299 17.5572C51.3 19.9591 51.7667 22.334 52.4251 24.6571C53.8756 19.7686 55.6158 17.4906 55.6158 17.4906C55.8103 17.2451 56.0434 17.0341 56.3059 16.8661C56.4425 16.7809 56.5952 16.726 56.7541 16.7049C57.0487 16.6761 57.3441 16.7492 57.5927 16.9122C57.6383 16.9427 57.6812 16.9769 57.7212 17.0146C57.9486 17.2196 58.144 17.4586 58.3004 17.7236C58.6627 18.3817 58.9766 19.066 59.2398 19.7711C59.7837 21.3273 60.2471 23.229 60.2471 23.229L61.6322 28.7779C62.6396 32.5505 63.4933 34.3831 63.4933 34.3831C65.5961 39.2768 68.8121 40.6538 68.8121 40.6538C70.3778 41.5048 72.119 41.9678 73.8942 42.0052C75.5888 42.052 77.2695 41.6842 78.7949 40.9328C80.4674 40.0968 81.9346 38.8908 83.0887 37.4033C83.8669 36.487 85.0128 34.2551 85.0128 34.2551C86.2762 31.6964 87.2682 29.0084 87.9718 26.2363C88.4214 24.5094 88.782 22.7597 89.0522 20.9945C89.1882 20.1192 89.3166 19.2388 89.4199 18.3557C89.5486 17.5196 89.5229 16.6664 89.3444 15.8398C89.3068 15.6912 89.2607 15.545 89.2058 15.4021C88.8011 14.3648 88.0507 13.5051 87.0854 12.9732C86.3699 12.5866 85.5711 12.387 84.7609 12.3922Z" fill="url(#paint29_radial_13250_6166)"/>
<path d="M84.7609 12.3922C84.3607 12.3913 83.9623 12.442 83.5748 12.5432C84.4582 13.8405 85.2082 15.2265 85.8136 16.6793C86.0886 17.3041 86.2301 17.981 86.2291 18.6654C86.2279 19.2994 86.1037 19.9268 85.8637 20.5119C85.6237 21.0971 85.2729 21.6285 84.8309 22.0758C84.389 22.5231 83.8646 22.8775 83.2877 23.1188C82.711 23.3602 82.0932 23.4837 81.4694 23.4823C80.6263 23.4807 79.7987 23.251 79.0719 22.8169L78.5834 24.652C77.6969 27.6645 77.0723 28.8291 77.0723 28.8291C76.7283 29.6458 76.3188 30.4325 75.8484 31.1812C75.5235 31.6701 75.108 32.1615 74.5389 32.3483C74.3409 32.4184 74.1294 32.4395 73.9219 32.4098C73.6972 32.3821 73.4804 32.3081 73.2847 32.1922C72.9105 31.9062 72.6128 31.5296 72.4184 31.0967C72.1776 30.6162 71.9616 30.1233 71.7712 29.6199C71.3506 28.5808 70.7009 26.0213 70.7009 26.0213L70.0285 23.3416L69.3561 20.6413L68.8776 18.8676C67.6184 14.2478 65.8757 11.975 65.8757 11.975C64.5059 9.98998 62.5653 8.4844 60.3201 7.66487C57.7161 6.71531 54.9837 7.25024 54.9837 7.25024C50.7025 8.1051 48.4536 11.0894 47.4639 12.5253C47.9168 12.6455 48.3503 12.8317 48.7508 13.0781C49.2866 13.4041 49.7498 13.8399 50.1107 14.3579C50.7554 15.2895 50.9014 16.4489 51.0299 17.5572C51.3 19.9591 51.7667 22.334 52.4251 24.6571C53.8756 19.7686 55.6158 17.4906 55.6158 17.4906C55.8103 17.2451 56.0434 17.0341 56.3059 16.8661C56.4425 16.7809 56.5952 16.726 56.7541 16.7049C57.0487 16.6761 57.3441 16.7492 57.5927 16.9122C57.6383 16.9427 57.6812 16.9769 57.7212 17.0146C57.9486 17.2196 58.144 17.4586 58.3004 17.7236C58.6627 18.3817 58.9766 19.066 59.2398 19.7711C59.7837 21.3273 60.2471 23.229 60.2471 23.229L61.6322 28.7779C62.6396 32.5505 63.4933 34.3831 63.4933 34.3831C65.5961 39.2768 68.8121 40.6538 68.8121 40.6538C70.3778 41.5048 72.119 41.9678 73.8942 42.0052C75.5888 42.052 77.2695 41.6842 78.7949 40.9328C80.4674 40.0968 81.9346 38.8908 83.0887 37.4033C83.8669 36.487 85.0128 34.2551 85.0128 34.2551C86.2762 31.6964 87.2682 29.0084 87.9718 26.2363C88.4214 24.5094 88.782 22.7597 89.0522 20.9945C89.1882 20.1192 89.3166 19.2388 89.4199 18.3557C89.5486 17.5196 89.5229 16.6664 89.3444 15.8398C89.3068 15.6912 89.2607 15.545 89.2058 15.4021C88.8011 14.3648 88.0507 13.5051 87.0854 12.9732C86.3699 12.5866 85.5711 12.387 84.7609 12.3922Z" fill="url(#paint30_radial_13250_6166)"/>
<path d="M84.7609 12.3922C84.3607 12.3913 83.9623 12.442 83.5748 12.5432C84.4582 13.8405 85.2082 15.2265 85.8136 16.6793C86.0886 17.3041 86.2301 17.981 86.2291 18.6654C86.2279 19.2994 86.1037 19.9268 85.8637 20.5119C85.6237 21.0971 85.2729 21.6285 84.8309 22.0758C84.389 22.5231 83.8646 22.8775 83.2877 23.1188C82.711 23.3602 82.0932 23.4837 81.4694 23.4823C80.6263 23.4807 79.7987 23.251 79.0719 22.8169L78.5834 24.652C77.6969 27.6645 77.0723 28.8291 77.0723 28.8291C76.7283 29.6458 76.3188 30.4325 75.8484 31.1812C75.5235 31.6701 75.108 32.1615 74.5389 32.3483C74.3409 32.4184 74.1294 32.4395 73.9219 32.4098C73.6972 32.3821 73.4804 32.3081 73.2847 32.1922C72.9105 31.9062 72.6128 31.5296 72.4184 31.0967C72.1776 30.6162 71.9616 30.1233 71.7712 29.6199C71.3506 28.5808 70.7009 26.0213 70.7009 26.0213L70.0285 23.3416L69.3561 20.6413L68.8776 18.8676C67.6184 14.2478 65.8757 11.975 65.8757 11.975C64.5059 9.98998 62.5653 8.4844 60.3201 7.66487C57.7161 6.71531 54.9837 7.25024 54.9837 7.25024C50.7025 8.1051 48.4536 11.0894 47.4639 12.5253C47.9168 12.6455 48.3503 12.8317 48.7508 13.0781C49.2866 13.4041 49.7498 13.8399 50.1107 14.3579C50.7554 15.2895 50.9014 16.4489 51.0299 17.5572C51.3 19.9591 51.7667 22.334 52.4251 24.6571C53.8756 19.7686 55.6158 17.4906 55.6158 17.4906C55.8103 17.2451 56.0434 17.0341 56.3059 16.8661C56.4425 16.7809 56.5952 16.726 56.7541 16.7049C57.0487 16.6761 57.3441 16.7492 57.5927 16.9122C57.6383 16.9427 57.6812 16.9769 57.7212 17.0146C57.9486 17.2196 58.144 17.4586 58.3004 17.7236C58.6627 18.3817 58.9766 19.066 59.2398 19.7711C59.7837 21.3273 60.2471 23.229 60.2471 23.229L61.6322 28.7779C62.6396 32.5505 63.4933 34.3831 63.4933 34.3831C65.5961 39.2768 68.8121 40.6538 68.8121 40.6538C70.3778 41.5048 72.119 41.9678 73.8942 42.0052C75.5888 42.052 77.2695 41.6842 78.7949 40.9328C80.4674 40.0968 81.9346 38.8908 83.0887 37.4033C83.8669 36.487 85.0128 34.2551 85.0128 34.2551C86.2762 31.6964 87.2682 29.0084 87.9718 26.2363C88.4214 24.5094 88.782 22.7597 89.0522 20.9945C89.1882 20.1192 89.3166 19.2388 89.4199 18.3557C89.5486 17.5196 89.5229 16.6664 89.3444 15.8398C89.3068 15.6912 89.2607 15.545 89.2058 15.4021C88.8011 14.3648 88.0507 13.5051 87.0854 12.9732C86.3699 12.5866 85.5711 12.387 84.7609 12.3922Z" fill="url(#paint31_radial_13250_6166)"/>
<path d="M84.7609 12.3922C84.3607 12.3913 83.9623 12.442 83.5748 12.5432C84.4582 13.8405 85.2082 15.2265 85.8136 16.6793C86.0886 17.3041 86.2301 17.981 86.2291 18.6654C86.2279 19.2994 86.1037 19.9268 85.8637 20.5119C85.6237 21.0971 85.2729 21.6285 84.8309 22.0758C84.389 22.5231 83.8646 22.8775 83.2877 23.1188C82.711 23.3602 82.0932 23.4837 81.4694 23.4823C80.6263 23.4807 79.7987 23.251 79.0719 22.8169L78.5834 24.652C77.6969 27.6645 77.0723 28.8291 77.0723 28.8291C76.7283 29.6458 76.3188 30.4325 75.8484 31.1812C75.5235 31.6701 75.108 32.1615 74.5389 32.3483C74.3409 32.4184 74.1294 32.4395 73.9219 32.4098C73.6972 32.3821 73.4804 32.3081 73.2847 32.1922C72.9105 31.9062 72.6128 31.5296 72.4184 31.0967C72.1776 30.6162 71.9616 30.1233 71.7712 29.6199C71.3506 28.5808 70.7009 26.0213 70.7009 26.0213L70.0285 23.3416L69.3561 20.6413L68.8776 18.8676C67.6184 14.2478 65.8757 11.975 65.8757 11.975C64.5059 9.98998 62.5653 8.4844 60.3201 7.66487C57.7161 6.71531 54.9837 7.25024 54.9837 7.25024C50.7025 8.1051 48.4536 11.0894 47.4639 12.5253C47.9168 12.6455 48.3503 12.8317 48.7508 13.0781C49.2866 13.4041 49.7498 13.8399 50.1107 14.3579C50.7554 15.2895 50.9014 16.4489 51.0299 17.5572C51.3 19.9591 51.7667 22.334 52.4251 24.6571C53.8756 19.7686 55.6158 17.4906 55.6158 17.4906C55.8103 17.2451 56.0434 17.0341 56.3059 16.8661C56.4425 16.7809 56.5952 16.726 56.7541 16.7049C57.0487 16.6761 57.3441 16.7492 57.5927 16.9122C57.6383 16.9427 57.6812 16.9769 57.7212 17.0146C57.9486 17.2196 58.144 17.4586 58.3004 17.7236C58.6627 18.3817 58.9766 19.066 59.2398 19.7711C59.7837 21.3273 60.2471 23.229 60.2471 23.229L61.6322 28.7779C62.6396 32.5505 63.4933 34.3831 63.4933 34.3831C65.5961 39.2768 68.8121 40.6538 68.8121 40.6538C70.3778 41.5048 72.119 41.9678 73.8942 42.0052C75.5888 42.052 77.2695 41.6842 78.7949 40.9328C80.4674 40.0968 81.9346 38.8908 83.0887 37.4033C83.8669 36.487 85.0128 34.2551 85.0128 34.2551C86.2762 31.6964 87.2682 29.0084 87.9718 26.2363C88.4214 24.5094 88.782 22.7597 89.0522 20.9945C89.1882 20.1192 89.3166 19.2388 89.4199 18.3557C89.5486 17.5196 89.5229 16.6664 89.3444 15.8398C89.3068 15.6912 89.2607 15.545 89.2058 15.4021C88.8011 14.3648 88.0507 13.5051 87.0854 12.9732C86.3699 12.5866 85.5711 12.387 84.7609 12.3922Z" fill="url(#paint32_radial_13250_6166)"/>
<path d="M84.7609 12.3922C84.3607 12.3913 83.9623 12.442 83.5748 12.5432C84.4582 13.8405 85.2082 15.2265 85.8136 16.6793C86.0886 17.3041 86.2301 17.981 86.2291 18.6654C86.2279 19.2994 86.1037 19.9268 85.8637 20.5119C85.6237 21.0971 85.2729 21.6285 84.8309 22.0758C84.389 22.5231 83.8646 22.8775 83.2877 23.1188C82.711 23.3602 82.0932 23.4837 81.4694 23.4823C80.6263 23.4807 79.7987 23.251 79.0719 22.8169L78.5834 24.652C77.6969 27.6645 77.0723 28.8291 77.0723 28.8291C76.7283 29.6458 76.3188 30.4325 75.8484 31.1812C75.5235 31.6701 75.108 32.1615 74.5389 32.3483C74.3409 32.4184 74.1294 32.4395 73.9219 32.4098C73.6972 32.3821 73.4804 32.3081 73.2847 32.1922C72.9105 31.9062 72.6128 31.5296 72.4184 31.0967C72.1776 30.6162 71.9616 30.1233 71.7712 29.6199C71.3506 28.5808 70.7009 26.0213 70.7009 26.0213L70.0285 23.3416L69.3561 20.6413L68.8776 18.8676C67.6184 14.2478 65.8757 11.975 65.8757 11.975C64.5059 9.98998 62.5653 8.4844 60.3201 7.66487C57.7161 6.71531 54.9837 7.25024 54.9837 7.25024C50.7025 8.1051 48.4536 11.0894 47.4639 12.5253C47.9168 12.6455 48.3503 12.8317 48.7508 13.0781C49.2866 13.4041 49.7498 13.8399 50.1107 14.3579C50.7554 15.2895 50.9014 16.4489 51.0299 17.5572C51.3 19.9591 51.7667 22.334 52.4251 24.6571C53.8756 19.7686 55.6158 17.4906 55.6158 17.4906C55.8103 17.2451 56.0434 17.0341 56.3059 16.8661C56.4425 16.7809 56.5952 16.726 56.7541 16.7049C57.0487 16.6761 57.3441 16.7492 57.5927 16.9122C57.6383 16.9427 57.6812 16.9769 57.7212 17.0146C57.9486 17.2196 58.144 17.4586 58.3004 17.7236C58.6627 18.3817 58.9766 19.066 59.2398 19.7711C59.7837 21.3273 60.2471 23.229 60.2471 23.229L61.6322 28.7779C62.6396 32.5505 63.4933 34.3831 63.4933 34.3831C65.5961 39.2768 68.8121 40.6538 68.8121 40.6538C70.3778 41.5048 72.119 41.9678 73.8942 42.0052C75.5888 42.052 77.2695 41.6842 78.7949 40.9328C80.4674 40.0968 81.9346 38.8908 83.0887 37.4033C83.8669 36.487 85.0128 34.2551 85.0128 34.2551C86.2762 31.6964 87.2682 29.0084 87.9718 26.2363C88.4214 24.5094 88.782 22.7597 89.0522 20.9945C89.1882 20.1192 89.3166 19.2388 89.4199 18.3557C89.5486 17.5196 89.5229 16.6664 89.3444 15.8398C89.3068 15.6912 89.2607 15.545 89.2058 15.4021C88.8011 14.3648 88.0507 13.5051 87.0854 12.9732C86.3699 12.5866 85.5711 12.387 84.7609 12.3922Z" fill="url(#paint33_radial_13250_6166)"/>
<path d="M84.7609 12.3922C84.3607 12.3913 83.9623 12.442 83.5748 12.5432C84.4582 13.8405 85.2082 15.2265 85.8136 16.6793C86.0886 17.3041 86.2301 17.981 86.2291 18.6654C86.2279 19.2994 86.1037 19.9268 85.8637 20.5119C85.6237 21.0971 85.2729 21.6285 84.8309 22.0758C84.389 22.5231 83.8646 22.8775 83.2877 23.1188C82.711 23.3602 82.0932 23.4837 81.4694 23.4823C80.6263 23.4807 79.7987 23.251 79.0719 22.8169L78.5834 24.652C77.6969 27.6645 77.0723 28.8291 77.0723 28.8291C76.7283 29.6458 76.3188 30.4325 75.8484 31.1812C75.5235 31.6701 75.108 32.1615 74.5389 32.3483C74.3409 32.4184 74.1294 32.4395 73.9219 32.4098C73.6972 32.3821 73.4804 32.3081 73.2847 32.1922C72.9105 31.9062 72.6128 31.5296 72.4184 31.0967C72.1776 30.6162 71.9616 30.1233 71.7712 29.6199C71.3506 28.5808 70.7009 26.0213 70.7009 26.0213L70.0285 23.3416L69.3561 20.6413L68.8776 18.8676C67.6184 14.2478 65.8757 11.975 65.8757 11.975C64.5059 9.98998 62.5653 8.4844 60.3201 7.66487C57.7161 6.71531 54.9837 7.25024 54.9837 7.25024C50.7025 8.1051 48.4536 11.0894 47.4639 12.5253C47.9168 12.6455 48.3503 12.8317 48.7508 13.0781C49.2866 13.4041 49.7498 13.8399 50.1107 14.3579C50.7554 15.2895 50.9014 16.4489 51.0299 17.5572C51.3 19.9591 51.7667 22.334 52.4251 24.6571C53.8756 19.7686 55.6158 17.4906 55.6158 17.4906C55.8103 17.2451 56.0434 17.0341 56.3059 16.8661C56.4425 16.7809 56.5952 16.726 56.7541 16.7049C57.0487 16.6761 57.3441 16.7492 57.5927 16.9122C57.6383 16.9427 57.6812 16.9769 57.7212 17.0146C57.9486 17.2196 58.144 17.4586 58.3004 17.7236C58.6627 18.3817 58.9766 19.066 59.2398 19.7711C59.7837 21.3273 60.2471 23.229 60.2471 23.229L61.6322 28.7779C62.6396 32.5505 63.4933 34.3831 63.4933 34.3831C65.5961 39.2768 68.8121 40.6538 68.8121 40.6538C70.3778 41.5048 72.119 41.9678 73.8942 42.0052C75.5888 42.052 77.2695 41.6842 78.7949 40.9328C80.4674 40.0968 81.9346 38.8908 83.0887 37.4033C83.8669 36.487 85.0128 34.2551 85.0128 34.2551C86.2762 31.6964 87.2682 29.0084 87.9718 26.2363C88.4214 24.5094 88.782 22.7597 89.0522 20.9945C89.1882 20.1192 89.3166 19.2388 89.4199 18.3557C89.5486 17.5196 89.5229 16.6664 89.3444 15.8398C89.3068 15.6912 89.2607 15.545 89.2058 15.4021C88.8011 14.3648 88.0507 13.5051 87.0854 12.9732C86.3699 12.5866 85.5711 12.387 84.7609 12.3922Z" fill="url(#paint34_linear_13250_6166)"/>
<path d="M31.8675 60.356H36.8799L29.5922 82.1002H23.842L18.3952 65.6916L12.9483 82.1002H7.28774L0 60.356H5.12968L10.3007 76.8802L15.7269 60.356H21.1737L26.6895 76.9687L31.8675 60.356Z" fill="black"/>
<path d="M58.3777 72.9736H42.1199C42.2699 74.0948 42.696 75.1627 43.3609 76.0838C43.95 76.8897 44.7477 77.5244 45.6707 77.9213C46.6107 78.3221 47.6254 78.5238 48.6492 78.5134C49.7841 78.5092 50.9093 78.3064 51.9725 77.9145C53.0748 77.5167 54.1041 76.9443 55.02 76.2199L57.4124 79.6227C56.1924 80.6728 54.7717 81.4711 53.2342 81.9707C51.6551 82.46 50.0078 82.7011 48.3527 82.6853C46.3143 82.725 44.3009 82.2369 42.5129 81.2697C40.8217 80.3342 39.4366 78.941 38.5208 77.2544C37.5358 75.4056 37.0423 73.3402 37.0867 71.2517C37.0445 69.1829 37.518 67.1356 38.4657 65.2899C39.3463 63.6111 40.6895 62.2121 42.3405 61.2541C44.0728 60.2701 46.0442 59.7712 48.0425 59.8113C49.9282 59.7598 51.7889 60.246 53.4018 61.2116C55.0148 62.1773 56.3115 63.5814 57.1366 65.2559C58.0476 67.1076 58.5012 69.146 58.4604 71.2041C58.4673 71.6601 58.4397 72.2522 58.3777 72.9736ZM53.5514 69.3665C53.4032 67.8763 52.7553 66.4776 51.7105 65.392C51.2096 64.9286 50.6194 64.5694 49.9751 64.3355C49.3308 64.1017 48.6454 63.9981 47.9597 64.0309C47.238 63.9983 46.5169 64.1092 45.8394 64.357C45.162 64.6049 44.5418 64.9846 44.016 65.4737C42.9746 66.5433 42.3098 67.9154 42.1199 69.387L53.5514 69.3665Z" fill="black"/>
<path d="M78.9444 61.2678C80.6216 62.2471 81.9969 63.6587 82.9227 65.3513C83.9126 67.1552 84.4159 69.1801 84.3843 71.2314C84.416 73.2806 83.9126 75.3032 82.9227 77.1047C81.9966 78.805 80.6163 80.2223 78.9315 81.2026C77.2468 82.1828 75.3221 82.6886 73.3666 82.665C71.9942 82.6934 70.6335 82.4117 69.3883 81.8415C68.2471 81.2983 67.2489 80.5016 66.4718 79.5139V82.1001H61.6455V51.1001H66.4718V62.942C67.2522 61.961 68.2499 61.1694 69.3883 60.6281C70.6318 60.0523 71.9934 59.7681 73.3666 59.7978C75.3272 59.7741 77.2567 60.2826 78.9444 61.2678ZM76.3106 77.268C77.3117 76.6606 78.1175 75.785 78.6341 74.7431C79.1645 73.6452 79.4397 72.4443 79.4397 71.228C79.4397 70.0117 79.1645 68.8107 78.6341 67.7128C78.1153 66.6725 77.31 65.7974 76.3106 65.1879C75.2483 64.588 74.0457 64.2725 72.8219 64.2725C71.598 64.2725 70.3954 64.588 69.3331 65.1879C68.3311 65.7885 67.5192 66.6536 66.9889 67.6856C66.4154 68.7879 66.1265 70.0128 66.1478 71.2518C66.1259 72.4886 66.4149 73.7115 66.9889 74.8112C67.5192 75.8432 68.3311 76.7083 69.3331 77.3089C70.3954 77.9087 71.598 78.2243 72.8219 78.2243C74.0457 78.2243 75.2483 77.9087 76.3106 77.3089V77.268Z" fill="black"/>
<path d="M108.199 72.9736H91.9479C92.0979 74.0949 92.524 75.1627 93.1889 76.0838C93.778 76.8897 94.5757 77.5244 95.4987 77.9214C96.4387 78.3221 97.4533 78.5238 98.4772 78.5135C99.612 78.5082 100.737 78.3055 101.8 77.9146C102.903 77.5167 103.932 76.9443 104.848 76.2199L107.234 79.6228C106.017 80.6742 104.598 81.4727 103.062 81.9708C101.481 82.4596 99.8311 82.7008 98.1738 82.6854C96.1356 82.7228 94.1228 82.2349 92.334 81.2698C90.6463 80.332 89.264 78.9393 88.3488 77.2544C87.3616 75.4061 86.8658 73.3408 86.9078 71.2518C86.8659 69.183 87.3394 67.1358 88.2868 65.29C89.1674 63.6112 90.5106 62.2122 92.1616 61.2542C93.9039 60.2557 95.8908 59.7495 97.9049 59.791C99.7901 59.742 101.65 60.2292 103.262 61.1946C104.875 62.1599 106.172 63.5627 106.999 65.2355C107.91 67.0872 108.364 69.1256 108.323 71.1837C108.295 71.6601 108.247 72.2522 108.199 72.9736ZM103.372 69.3666C103.213 67.8859 102.564 66.4985 101.525 65.4193C101.027 64.9533 100.44 64.5905 99.7985 64.352C99.1567 64.1136 98.473 64.0044 97.7877 64.0309C97.0659 63.9975 96.3446 64.1081 95.667 64.356C94.9894 64.6039 94.3694 64.984 93.8439 65.4737C92.8002 66.5417 92.135 67.9146 91.9479 69.387L103.372 69.3666Z" fill="black"/>
<path d="M131.124 82.1002H125.215L119.63 74.5391L114.114 82.1002H108.481L116.755 71.0001L108.612 60.356H114.528L119.906 67.6176L125.284 60.356H131L122.822 70.9592L131.124 82.1002Z" fill="black"/>
<defs>
<linearGradient id="paint0_linear_13250_6166" x1="43.6507" y1="30.6795" x2="81.1507" y2="15.7651" gradientUnits="userSpaceOnUse">
<stop offset="0.13" stop-color="#1CBBF3"/>
<stop offset="0.34" stop-color="#1F99A5"/>
<stop offset="0.45" stop-color="#209CA6"/>
<stop offset="0.51" stop-color="#24A4AA"/>
<stop offset="0.57" stop-color="#2BB3B0"/>
<stop offset="0.6" stop-color="#30BDB4"/>
<stop offset="0.79" stop-color="#38BA90"/>
<stop offset="1" stop-color="#60F05A"/>
</linearGradient>
<radialGradient id="paint1_radial_13250_6166" cx="0" cy="0" r="1" gradientTransform="matrix(4.82223 17.459 -13.0558 3.7247 68.5024 21.6706)" gradientUnits="userSpaceOnUse">
<stop stop-color="#227B60"/>
<stop offset="0.14" stop-color="#227B60" stop-opacity="0.81"/>
<stop offset="0.58" stop-color="#227B60" stop-opacity="0.23"/>
<stop offset="0.78" stop-color="#227B60" stop-opacity="0"/>
</radialGradient>
<radialGradient id="paint2_radial_13250_6166" cx="0" cy="0" r="1" gradientTransform="matrix(-0.241268 12.2598 -9.16661 -0.18633 71.0903 20.4104)" gradientUnits="userSpaceOnUse">
<stop stop-color="#227B60"/>
<stop offset="0.25" stop-color="#227B60" stop-opacity="0.7"/>
<stop offset="0.71" stop-color="#227B60" stop-opacity="0.2"/>
<stop offset="0.92" stop-color="#227B60" stop-opacity="0"/>
</radialGradient>
<radialGradient id="paint3_radial_13250_6166" cx="0" cy="0" r="1" gradientTransform="matrix(0.274789 11.4271 -7.98301 0.198284 70.6249 20.8603)" gradientUnits="userSpaceOnUse">
<stop stop-color="#227B60"/>
<stop offset="0.07" stop-color="#227B60" stop-opacity="0.9"/>
<stop offset="0.34" stop-color="#227B60" stop-opacity="0.51"/>
<stop offset="0.59" stop-color="#227B60" stop-opacity="0.23"/>
<stop offset="0.79" stop-color="#227B60" stop-opacity="0.06"/>
<stop offset="0.92" stop-color="#227B60" stop-opacity="0"/>
</radialGradient>
<radialGradient id="paint4_radial_13250_6166" cx="0" cy="0" r="1" gradientTransform="matrix(0.221874 9.22667 -6.44575 0.160101 70.8152 20.3393)" gradientUnits="userSpaceOnUse">
<stop stop-color="#227B60"/>
<stop offset="0.36" stop-color="#227B60" stop-opacity="0.63"/>
<stop offset="0.92" stop-color="#227B60" stop-opacity="0"/>
</radialGradient>
<radialGradient id="paint5_radial_13250_6166" cx="0" cy="0" r="1" gradientTransform="matrix(0.176958 7.35882 -4.63402 0.115101 71.2114 20.8581)" gradientUnits="userSpaceOnUse">
<stop stop-color="#20735A"/>
<stop offset="0.15" stop-color="#20745A" stop-opacity="0.93"/>
<stop offset="0.38" stop-color="#21755C" stop-opacity="0.74"/>
<stop offset="0.67" stop-color="#21785D" stop-opacity="0.43"/>
<stop offset="1" stop-color="#227B60" stop-opacity="0"/>
</radialGradient>
<radialGradient id="paint6_radial_13250_6166" cx="0" cy="0" r="1" gradientTransform="matrix(10.6639 4.78007 -3.52749 8.1284 72.1817 22.0322)" gradientUnits="userSpaceOnUse">
<stop stop-color="#227A61"/>
<stop offset="0.36" stop-color="#227A61" stop-opacity="0.56"/>
<stop offset="0.72" stop-color="#227A61" stop-opacity="0.16"/>
<stop offset="0.9" stop-color="#227A61" stop-opacity="0"/>
</radialGradient>
<radialGradient id="paint7_radial_13250_6166" cx="0" cy="0" r="1" gradientTransform="matrix(12.6898 9.12218 -8.20697 11.7923 69.0927 3.52442)" gradientUnits="userSpaceOnUse">
<stop stop-color="#3CD9C3"/>
<stop offset="0.07" stop-color="#3BD7C1" stop-opacity="0.9"/>
<stop offset="0.41" stop-color="#38CEB9" stop-opacity="0.42"/>
<stop offset="0.65" stop-color="#36C8B4" stop-opacity="0.12"/>
<stop offset="0.76" stop-color="#35C6B2" stop-opacity="0"/>
</radialGradient>
<radialGradient id="paint8_radial_13250_6166" cx="0" cy="0" r="1" gradientTransform="matrix(2253.85 1620.2 -1119.03 1607.89 13542.9 -7165.49)" gradientUnits="userSpaceOnUse">
<stop stop-color="#3CD9C3"/>
<stop offset="0.07" stop-color="#3BD7C1" stop-opacity="0.9"/>
<stop offset="0.41" stop-color="#38CEB9" stop-opacity="0.42"/>
<stop offset="0.65" stop-color="#36C8B4" stop-opacity="0.12"/>
<stop offset="0.76" stop-color="#35C6B2" stop-opacity="0"/>
</radialGradient>
<radialGradient id="paint9_radial_13250_6166" cx="0" cy="0" r="1" gradientTransform="matrix(-2.60915 13.6776 -16.6304 -3.2768 75.2836 24.7591)" gradientUnits="userSpaceOnUse">
<stop stop-color="#237F66" stop-opacity="0.8"/>
<stop offset="0.06" stop-color="#2C8C70" stop-opacity="0.65"/>
<stop offset="0.21" stop-color="#3DA785" stop-opacity="0.37"/>
<stop offset="0.35" stop-color="#4ABA93" stop-opacity="0.17"/>
<stop offset="0.47" stop-color="#51C59C" stop-opacity="0.04"/>
<stop offset="0.56" stop-color="#54C99F" stop-opacity="0"/>
</radialGradient>
<radialGradient id="paint10_radial_13250_6166" cx="0" cy="0" r="1" gradientTransform="matrix(11.3168 -14.1122 14.9965 12.4216 66.7929 25.7504)" gradientUnits="userSpaceOnUse">
<stop stop-color="#167C8A"/>
<stop offset="0.04" stop-color="#167C8A" stop-opacity="0.93"/>
<stop offset="0.33" stop-color="#177F8D" stop-opacity="0.43"/>
<stop offset="0.54" stop-color="#17818F" stop-opacity="0.12"/>
<stop offset="0.65" stop-color="#178290" stop-opacity="0"/>
</radialGradient>
<radialGradient id="paint11_radial_13250_6166" cx="0" cy="0" r="1" gradientTransform="matrix(14.8743 -9.32188 7.24605 11.9424 65.7182 27.5896)" gradientUnits="userSpaceOnUse">
<stop offset="0.05" stop-color="#177D87"/>
<stop offset="0.11" stop-color="#177E89" stop-opacity="0.8"/>
<stop offset="0.21" stop-color="#177F8B" stop-opacity="0.52"/>
<stop offset="0.32" stop-color="#17818D" stop-opacity="0.29"/>
<stop offset="0.42" stop-color="#17818F" stop-opacity="0.13"/>
<stop offset="0.51" stop-color="#178290" stop-opacity="0.03"/>
<stop offset="0.6" stop-color="#178290" stop-opacity="0"/>
</radialGradient>
<radialGradient id="paint12_radial_13250_6166" cx="0" cy="0" r="1" gradientTransform="matrix(-6.76709 -8.04145 6.23033 -5.41549 61.4091 27.8958)" gradientUnits="userSpaceOnUse">
<stop offset="0.26" stop-color="#177F8A"/>
<stop offset="0.27" stop-color="#177F8A" stop-opacity="0.98"/>
<stop offset="0.38" stop-color="#17808C" stop-opacity="0.68"/>
<stop offset="0.5" stop-color="#17818D" stop-opacity="0.43"/>
<stop offset="0.62" stop-color="#17818F" stop-opacity="0.24"/>
<stop offset="0.74" stop-color="#17828F" stop-opacity="0.11"/>
<stop offset="0.86" stop-color="#178290" stop-opacity="0.03"/>
<stop offset="1" stop-color="#178290" stop-opacity="0"/>
</radialGradient>
<radialGradient id="paint13_radial_13250_6166" cx="0" cy="0" r="1" gradientTransform="matrix(-9.6957 -1.19071 1.17159 -9.85392 59.5217 30.4968)" gradientUnits="userSpaceOnUse">
<stop stop-color="#13656E"/>
<stop offset="0.11" stop-color="#13646E" stop-opacity="0.73"/>
<stop offset="0.27" stop-color="#12646E" stop-opacity="0.41"/>
<stop offset="0.42" stop-color="#12636E" stop-opacity="0.18"/>
<stop offset="0.55" stop-color="#12636E" stop-opacity="0.05"/>
<stop offset="0.66" stop-color="#12636E" stop-opacity="0"/>
</radialGradient>
<radialGradient id="paint14_radial_13250_6166" cx="0" cy="0" r="1" gradientTransform="matrix(-3.34447 -6.05207 5.00212 -2.8552 59.2654 31.975)" gradientUnits="userSpaceOnUse">
<stop offset="0.13" stop-color="#146A73"/>
<stop offset="0.24" stop-color="#156F79" stop-opacity="0.79"/>
<stop offset="0.45" stop-color="#167783" stop-opacity="0.45"/>
<stop offset="0.65" stop-color="#167D8A" stop-opacity="0.2"/>
<stop offset="0.82" stop-color="#17818E" stop-opacity="0.05"/>
<stop offset="0.95" stop-color="#178290" stop-opacity="0"/>
</radialGradient>
<radialGradient id="paint15_radial_13250_6166" cx="0" cy="0" r="1" gradientTransform="matrix(3.59341 -5.41285 4.21932 2.89323 58.7333 29.0819)" gradientUnits="userSpaceOnUse">
<stop stop-color="#198E9C"/>
<stop offset="0.1" stop-color="#198E9C" stop-opacity="0.87"/>
<stop offset="0.41" stop-color="#198E9C" stop-opacity="0.5"/>
<stop offset="0.67" stop-color="#198E9C" stop-opacity="0.23"/>
<stop offset="0.88" stop-color="#198E9C" stop-opacity="0.06"/>
<stop offset="1" stop-color="#198E9C" stop-opacity="0"/>
</radialGradient>
<linearGradient id="paint16_linear_13250_6166" x1="46.0557" y1="6.30579" x2="62.7715" y2="21.5284" gradientUnits="userSpaceOnUse">
<stop offset="0.13" stop-color="#2BF9FF"/>
<stop offset="0.27" stop-color="#29F9FF" stop-opacity="0.64"/>
<stop offset="0.4" stop-color="#27FAFF" stop-opacity="0.3"/>
<stop offset="0.49" stop-color="#26FAFF" stop-opacity="0.08"/>
<stop offset="0.54" stop-color="#26FAFF" stop-opacity="0"/>
</linearGradient>
<linearGradient id="paint17_linear_13250_6166" x1="36.7277" y1="31.5882" x2="56.0137" y2="26.2082" gradientUnits="userSpaceOnUse">
<stop stop-color="#26FAFF"/>
<stop offset="0.06" stop-color="#26FAFF" stop-opacity="0.88"/>
<stop offset="0.24" stop-color="#26FAFF" stop-opacity="0.51"/>
<stop offset="0.39" stop-color="#26FAFF" stop-opacity="0.23"/>
<stop offset="0.5" stop-color="#26FAFF" stop-opacity="0.06"/>
<stop offset="0.55" stop-color="#26FAFF" stop-opacity="0"/>
</linearGradient>
<linearGradient id="paint18_linear_13250_6166" x1="41.8249" y1="30.9073" x2="63.5887" y2="23.2752" gradientUnits="userSpaceOnUse">
<stop stop-color="#21DEFF"/>
<stop offset="0.04" stop-color="#21DEFF" stop-opacity="0.88"/>
<stop offset="0.17" stop-color="#21DEFF" stop-opacity="0.51"/>
<stop offset="0.27" stop-color="#21DEFF" stop-opacity="0.23"/>
<stop offset="0.34" stop-color="#21DEFF" stop-opacity="0.06"/>
<stop offset="0.38" stop-color="#21DEFF" stop-opacity="0"/>
</linearGradient>
<linearGradient id="paint19_linear_13250_6166" x1="62.4301" y1="19.5382" x2="74.846" y2="39.4636" gradientUnits="userSpaceOnUse">
<stop offset="0.62" stop-color="#21DEFF" stop-opacity="0"/>
<stop offset="0.66" stop-color="#21DEFF" stop-opacity="0.06"/>
<stop offset="0.73" stop-color="#21DEFF" stop-opacity="0.23"/>
<stop offset="0.83" stop-color="#21DEFF" stop-opacity="0.51"/>
<stop offset="0.96" stop-color="#21DEFF" stop-opacity="0.88"/>
<stop offset="1" stop-color="#21DEFF"/>
</linearGradient>
<linearGradient id="paint20_linear_13250_6166" x1="75.9286" y1="27.0501" x2="73.9595" y2="17.6054" gradientUnits="userSpaceOnUse">
<stop stop-color="#44B044"/>
<stop offset="0.11" stop-color="#44B044" stop-opacity="0.8"/>
<stop offset="0.27" stop-color="#44B044" stop-opacity="0.52"/>
<stop offset="0.43" stop-color="#44B044" stop-opacity="0.29"/>
<stop offset="0.58" stop-color="#44B044" stop-opacity="0.13"/>
<stop offset="0.7" stop-color="#44B044" stop-opacity="0.03"/>
<stop offset="0.8" stop-color="#44B044" stop-opacity="0"/>
</linearGradient>
<linearGradient id="paint21_linear_13250_6166" x1="49.3123" y1="17.2475" x2="89.5894" y2="30.3673" gradientUnits="userSpaceOnUse">
<stop stop-color="#3066FB"/>
<stop offset="0.38" stop-color="#2F64F7"/>
<stop offset="0.74" stop-color="#2857D9"/>
<stop offset="1" stop-color="#3C7EFF"/>
</linearGradient>
<radialGradient id="paint22_radial_13250_6166" cx="0" cy="0" r="1" gradientTransform="matrix(-3.24411 21.5715 -14.0086 -2.17605 77.6548 23.413)" gradientUnits="userSpaceOnUse">
<stop stop-color="#1A3D9C"/>
<stop offset="0.4" stop-color="#1A3D9C" stop-opacity="0.42"/>
<stop offset="0.7" stop-color="#1A3D9C" stop-opacity="0"/>
</radialGradient>
<radialGradient id="paint23_radial_13250_6166" cx="0" cy="0" r="1" gradientTransform="matrix(-399.049 2653.45 -1408.01 -218.716 6358.31 10625.8)" gradientUnits="userSpaceOnUse">
<stop stop-color="#1A3D9C"/>
<stop offset="0.4" stop-color="#1A3D9C" stop-opacity="0.42"/>
<stop offset="0.7" stop-color="#1A3D9C" stop-opacity="0"/>
</radialGradient>
<radialGradient id="paint24_radial_13250_6166" cx="0" cy="0" r="1" gradientTransform="matrix(-471.205 3160.72 -1285.05 -197.88 4813.45 10162)" gradientUnits="userSpaceOnUse">
<stop stop-color="#1A3D9C"/>
<stop offset="0.4" stop-color="#1A3D9C" stop-opacity="0.42"/>
<stop offset="0.7" stop-color="#1A3D9C" stop-opacity="0"/>
</radialGradient>
<radialGradient id="paint25_radial_13250_6166" cx="0" cy="0" r="1" gradientTransform="matrix(2.25836 18.9356 -12.9999 1.60146 74.2384 21.9433)" gradientUnits="userSpaceOnUse">
<stop stop-color="#1A3D9C"/>
<stop offset="0.16" stop-color="#1A3D9C" stop-opacity="0.69"/>
<stop offset="0.33" stop-color="#1A3D9C" stop-opacity="0.4"/>
<stop offset="0.49" stop-color="#1A3D9C" stop-opacity="0.18"/>
<stop offset="0.61" stop-color="#1A3D9C" stop-opacity="0.05"/>
<stop offset="0.7" stop-color="#1A3D9C" stop-opacity="0"/>
</radialGradient>
<radialGradient id="paint26_radial_13250_6166" cx="0" cy="0" r="1" gradientTransform="matrix(4.77758 17.6761 -11.8268 3.30177 78.3736 25.5152)" gradientUnits="userSpaceOnUse">
<stop stop-color="#18388F"/>
<stop offset="0.37" stop-color="#193B96" stop-opacity="0.45"/>
<stop offset="0.7" stop-color="#1A3D9C" stop-opacity="0"/>
</radialGradient>
<radialGradient id="paint27_radial_13250_6166" cx="0" cy="0" r="1" gradientTransform="matrix(2.22135 8.21858 -7.68228 2.14472 76.577 30.4009)" gradientUnits="userSpaceOnUse">
<stop stop-color="#18388F"/>
<stop offset="0.09" stop-color="#183992" stop-opacity="0.78"/>
<stop offset="0.22" stop-color="#193B96" stop-opacity="0.5"/>
<stop offset="0.35" stop-color="#193C98" stop-opacity="0.28"/>
<stop offset="0.47" stop-color="#1A3C9A" stop-opacity="0.13"/>
<stop offset="0.59" stop-color="#1A3D9C" stop-opacity="0.03"/>
<stop offset="0.7" stop-color="#1A3D9C" stop-opacity="0"/>
</radialGradient>
<radialGradient id="paint28_radial_13250_6166" cx="0" cy="0" r="1" gradientTransform="matrix(2.22135 8.21858 -7.68228 2.14472 76.7782 31.8549)" gradientUnits="userSpaceOnUse">
<stop stop-color="#1A3D9C" stop-opacity="0.8"/>
<stop offset="0.01" stop-color="#1A3D9C" stop-opacity="0.78"/>
<stop offset="0.24" stop-color="#1A3D9C" stop-opacity="0.45"/>
<stop offset="0.44" stop-color="#1A3D9C" stop-opacity="0.2"/>
<stop offset="0.6" stop-color="#1A3D9C" stop-opacity="0.05"/>
<stop offset="0.7" stop-color="#1A3D9C" stop-opacity="0"/>
</radialGradient>
<radialGradient id="paint29_radial_13250_6166" cx="0" cy="0" r="1" gradientTransform="matrix(7.81114 18.727 -12.2276 5.26802 55.0768 26.8344)" gradientUnits="userSpaceOnUse">
<stop stop-color="#1A3D9C"/>
<stop offset="0.4" stop-color="#1A3D9C" stop-opacity="0.56"/>
<stop offset="0.48" stop-color="#1A3D9C" stop-opacity="0.43"/>
<stop offset="0.69" stop-color="#1A3D9C" stop-opacity="0.12"/>
<stop offset="0.79" stop-color="#1A3D9C" stop-opacity="0"/>
</radialGradient>
<radialGradient id="paint30_radial_13250_6166" cx="0" cy="0" r="1" gradientTransform="matrix(3.56541 14.6453 -9.51346 2.39226 53.796 22.0682)" gradientUnits="userSpaceOnUse">
<stop stop-color="#1A3D9C"/>
<stop offset="0.06" stop-color="#1A3D9C" stop-opacity="0.88"/>
<stop offset="0.21" stop-color="#1A3D9C" stop-opacity="0.61"/>
<stop offset="0.36" stop-color="#1A3D9C" stop-opacity="0.39"/>
<stop offset="0.51" stop-color="#1A3D9C" stop-opacity="0.22"/>
<stop offset="0.67" stop-color="#1A3D9C" stop-opacity="0.1"/>
<stop offset="0.83" stop-color="#1A3D9C" stop-opacity="0.02"/>
<stop offset="1" stop-color="#1A3D9C" stop-opacity="0"/>
</radialGradient>
<radialGradient id="paint31_radial_13250_6166" cx="0" cy="0" r="1" gradientTransform="matrix(3.56541 14.6453 -9.51346 2.39226 53.796 22.0682)" gradientUnits="userSpaceOnUse">
<stop stop-color="#1B3E9E"/>
<stop offset="0.06" stop-color="#1B3E9E" stop-opacity="0.87"/>
<stop offset="0.21" stop-color="#1B3E9D" stop-opacity="0.61"/>
<stop offset="0.36" stop-color="#1A3D9D" stop-opacity="0.39"/>
<stop offset="0.52" stop-color="#1A3D9C" stop-opacity="0.22"/>
<stop offset="0.67" stop-color="#1A3D9C" stop-opacity="0.1"/>
<stop offset="0.83" stop-color="#1A3D9C" stop-opacity="0.02"/>
<stop offset="1" stop-color="#1A3D9C" stop-opacity="0"/>
</radialGradient>
<radialGradient id="paint32_radial_13250_6166" cx="0" cy="0" r="1" gradientTransform="matrix(2.7277 11.2043 -7.27821 1.83018 54.3589 20.5973)" gradientUnits="userSpaceOnUse">
<stop stop-color="#183991"/>
<stop offset="0.03" stop-color="#183992" stop-opacity="0.95"/>
<stop offset="0.18" stop-color="#193A95" stop-opacity="0.66"/>
<stop offset="0.34" stop-color="#193B97" stop-opacity="0.42"/>
<stop offset="0.5" stop-color="#1A3C99" stop-opacity="0.24"/>
<stop offset="0.66" stop-color="#1A3D9B" stop-opacity="0.1"/>
<stop offset="0.82" stop-color="#1A3D9C" stop-opacity="0.03"/>
<stop offset="1" stop-color="#1A3D9C" stop-opacity="0"/>
</radialGradient>
<radialGradient id="paint33_radial_13250_6166" cx="0" cy="0" r="1" gradientTransform="matrix(0.448143 9.10914 -7.89001 0.400937 56.4857 22.1207)" gradientUnits="userSpaceOnUse">
<stop offset="0.04" stop-color="#2453D6" stop-opacity="0.6"/>
<stop offset="0.2" stop-color="#2453D6" stop-opacity="0.49"/>
<stop offset="0.52" stop-color="#2453D6" stop-opacity="0.2"/>
<stop offset="0.73" stop-color="#2453D6" stop-opacity="0"/>
</radialGradient>
<linearGradient id="paint34_linear_13250_6166" x1="75.4001" y1="0.585389" x2="64.9732" y2="25.9449" gradientUnits="userSpaceOnUse">
<stop stop-color="#3774FF"/>
<stop offset="0.05" stop-color="#3774FF" stop-opacity="0.91"/>
<stop offset="0.16" stop-color="#3774FF" stop-opacity="0.66"/>
<stop offset="0.32" stop-color="#3774FF" stop-opacity="0.28"/>
<stop offset="0.43" stop-color="#3774FF" stop-opacity="0"/>
</linearGradient>
</defs>
</svg>
