<svg width="239" height="77" viewBox="0 0 239 77" fill="none" xmlns="http://www.w3.org/2000/svg">
<path d="M19.3528 49.898C8.37681 49.898 4.67326 36.0925 3.79787 33.3988C1.71042 26.597 1.10438 20.4688 1.03704 19.8627C0.633021 16.1587 3.59586 13.5997 6.89539 13.5997C9.38687 13.5997 12.215 15.0812 12.6191 18.6505C12.6864 19.2566 13.1578 24.442 14.9759 30.0989C16.794 36.0252 18.8141 38.2475 20.2282 38.2475C22.5176 38.2475 23.9317 32.3886 25.1438 26.7991C26.0192 22.6911 27.0292 18.5831 28.982 14.8792C32.2142 8.48156 37.2645 7 41.7088 7C51.338 7 56.1863 18.1791 56.1863 21.0748C56.1863 25.9236 52.2134 27.1358 50.5299 27.1358C46.759 27.1358 45.547 24.6441 44.4696 22.4217C43.5269 20.4687 42.5168 18.7852 41.2374 18.7852C40.8334 18.7852 40.4293 18.9872 40.0253 19.3912C36.7931 22.6911 35.7157 39.7964 29.3187 46.3288C25.6825 49.898 21.7769 49.898 19.3528 49.898Z" fill="url(#paint0_linear_13250_6174)"/>
<path d="M19.3528 49.898C8.37681 49.898 4.67326 36.0925 3.79787 33.3988C1.71042 26.597 1.10438 20.4688 1.03704 19.8627C0.633021 16.1587 3.59586 13.5997 6.89539 13.5997C9.38687 13.5997 12.215 15.0812 12.6191 18.6505C12.6864 19.2566 13.1578 24.442 14.9759 30.0989C16.794 36.0252 18.8141 38.2475 20.2282 38.2475C22.5176 38.2475 23.9317 32.3886 25.1438 26.7991C26.0192 22.6911 27.0292 18.5831 28.982 14.8792C32.2142 8.48156 37.2645 7 41.7088 7C51.338 7 56.1863 18.1791 56.1863 21.0748C56.1863 25.9236 52.2134 27.1358 50.5299 27.1358C46.759 27.1358 45.547 24.6441 44.4696 22.4217C43.5269 20.4687 42.5168 18.7852 41.2374 18.7852C40.8334 18.7852 40.4293 18.9872 40.0253 19.3912C36.7931 22.6911 35.7157 39.7964 29.3187 46.3288C25.6825 49.898 21.7769 49.898 19.3528 49.898Z" fill="url(#paint1_radial_13250_6174)"/>
<path d="M19.3528 49.898C8.37681 49.898 4.67326 36.0925 3.79787 33.3988C1.71042 26.597 1.10438 20.4688 1.03704 19.8627C0.633021 16.1587 3.59586 13.5997 6.89539 13.5997C9.38687 13.5997 12.215 15.0812 12.6191 18.6505C12.6864 19.2566 13.1578 24.442 14.9759 30.0989C16.794 36.0252 18.8141 38.2475 20.2282 38.2475C22.5176 38.2475 23.9317 32.3886 25.1438 26.7991C26.0192 22.6911 27.0292 18.5831 28.982 14.8792C32.2142 8.48156 37.2645 7 41.7088 7C51.338 7 56.1863 18.1791 56.1863 21.0748C56.1863 25.9236 52.2134 27.1358 50.5299 27.1358C46.759 27.1358 45.547 24.6441 44.4696 22.4217C43.5269 20.4687 42.5168 18.7852 41.2374 18.7852C40.8334 18.7852 40.4293 18.9872 40.0253 19.3912C36.7931 22.6911 35.7157 39.7964 29.3187 46.3288C25.6825 49.898 21.7769 49.898 19.3528 49.898Z" fill="url(#paint2_radial_13250_6174)"/>
<path d="M19.3528 49.898C8.37681 49.898 4.67326 36.0925 3.79787 33.3988C1.71042 26.597 1.10438 20.4688 1.03704 19.8627C0.633021 16.1587 3.59586 13.5997 6.89539 13.5997C9.38687 13.5997 12.215 15.0812 12.6191 18.6505C12.6864 19.2566 13.1578 24.442 14.9759 30.0989C16.794 36.0252 18.8141 38.2475 20.2282 38.2475C22.5176 38.2475 23.9317 32.3886 25.1438 26.7991C26.0192 22.6911 27.0292 18.5831 28.982 14.8792C32.2142 8.48156 37.2645 7 41.7088 7C51.338 7 56.1863 18.1791 56.1863 21.0748C56.1863 25.9236 52.2134 27.1358 50.5299 27.1358C46.759 27.1358 45.547 24.6441 44.4696 22.4217C43.5269 20.4687 42.5168 18.7852 41.2374 18.7852C40.8334 18.7852 40.4293 18.9872 40.0253 19.3912C36.7931 22.6911 35.7157 39.7964 29.3187 46.3288C25.6825 49.898 21.7769 49.898 19.3528 49.898Z" fill="url(#paint3_radial_13250_6174)"/>
<path d="M19.3528 49.898C8.37681 49.898 4.67326 36.0925 3.79787 33.3988C1.71042 26.597 1.10438 20.4688 1.03704 19.8627C0.633021 16.1587 3.59586 13.5997 6.89539 13.5997C9.38687 13.5997 12.215 15.0812 12.6191 18.6505C12.6864 19.2566 13.1578 24.442 14.9759 30.0989C16.794 36.0252 18.8141 38.2475 20.2282 38.2475C22.5176 38.2475 23.9317 32.3886 25.1438 26.7991C26.0192 22.6911 27.0292 18.5831 28.982 14.8792C32.2142 8.48156 37.2645 7 41.7088 7C51.338 7 56.1863 18.1791 56.1863 21.0748C56.1863 25.9236 52.2134 27.1358 50.5299 27.1358C46.759 27.1358 45.547 24.6441 44.4696 22.4217C43.5269 20.4687 42.5168 18.7852 41.2374 18.7852C40.8334 18.7852 40.4293 18.9872 40.0253 19.3912C36.7931 22.6911 35.7157 39.7964 29.3187 46.3288C25.6825 49.898 21.7769 49.898 19.3528 49.898Z" fill="url(#paint4_radial_13250_6174)"/>
<path d="M19.3528 49.898C8.37681 49.898 4.67326 36.0925 3.79787 33.3988C1.71042 26.597 1.10438 20.4688 1.03704 19.8627C0.633021 16.1587 3.59586 13.5997 6.89539 13.5997C9.38687 13.5997 12.215 15.0812 12.6191 18.6505C12.6864 19.2566 13.1578 24.442 14.9759 30.0989C16.794 36.0252 18.8141 38.2475 20.2282 38.2475C22.5176 38.2475 23.9317 32.3886 25.1438 26.7991C26.0192 22.6911 27.0292 18.5831 28.982 14.8792C32.2142 8.48156 37.2645 7 41.7088 7C51.338 7 56.1863 18.1791 56.1863 21.0748C56.1863 25.9236 52.2134 27.1358 50.5299 27.1358C46.759 27.1358 45.547 24.6441 44.4696 22.4217C43.5269 20.4687 42.5168 18.7852 41.2374 18.7852C40.8334 18.7852 40.4293 18.9872 40.0253 19.3912C36.7931 22.6911 35.7157 39.7964 29.3187 46.3288C25.6825 49.898 21.7769 49.898 19.3528 49.898Z" fill="url(#paint5_radial_13250_6174)"/>
<path d="M19.3528 49.898C8.37681 49.898 4.67326 36.0925 3.79787 33.3988C1.71042 26.597 1.10438 20.4688 1.03704 19.8627C0.633021 16.1587 3.59586 13.5997 6.89539 13.5997C9.38687 13.5997 12.215 15.0812 12.6191 18.6505C12.6864 19.2566 13.1578 24.442 14.9759 30.0989C16.794 36.0252 18.8141 38.2475 20.2282 38.2475C22.5176 38.2475 23.9317 32.3886 25.1438 26.7991C26.0192 22.6911 27.0292 18.5831 28.982 14.8792C32.2142 8.48156 37.2645 7 41.7088 7C51.338 7 56.1863 18.1791 56.1863 21.0748C56.1863 25.9236 52.2134 27.1358 50.5299 27.1358C46.759 27.1358 45.547 24.6441 44.4696 22.4217C43.5269 20.4687 42.5168 18.7852 41.2374 18.7852C40.8334 18.7852 40.4293 18.9872 40.0253 19.3912C36.7931 22.6911 35.7157 39.7964 29.3187 46.3288C25.6825 49.898 21.7769 49.898 19.3528 49.898Z" fill="url(#paint6_radial_13250_6174)"/>
<path d="M19.3528 49.898C8.37681 49.898 4.67326 36.0925 3.79787 33.3988C1.71042 26.597 1.10438 20.4688 1.03704 19.8627C0.633021 16.1587 3.59586 13.5997 6.89539 13.5997C9.38687 13.5997 12.215 15.0812 12.6191 18.6505C12.6864 19.2566 13.1578 24.442 14.9759 30.0989C16.794 36.0252 18.8141 38.2475 20.2282 38.2475C22.5176 38.2475 23.9317 32.3886 25.1438 26.7991C26.0192 22.6911 27.0292 18.5831 28.982 14.8792C32.2142 8.48156 37.2645 7 41.7088 7C51.338 7 56.1863 18.1791 56.1863 21.0748C56.1863 25.9236 52.2134 27.1358 50.5299 27.1358C46.759 27.1358 45.547 24.6441 44.4696 22.4217C43.5269 20.4687 42.5168 18.7852 41.2374 18.7852C40.8334 18.7852 40.4293 18.9872 40.0253 19.3912C36.7931 22.6911 35.7157 39.7964 29.3187 46.3288C25.6825 49.898 21.7769 49.898 19.3528 49.898Z" fill="url(#paint7_radial_13250_6174)"/>
<path d="M19.3528 49.898C8.37681 49.898 4.67326 36.0925 3.79787 33.3988C1.71042 26.597 1.10438 20.4688 1.03704 19.8627C0.633021 16.1587 3.59586 13.5997 6.89539 13.5997C9.38687 13.5997 12.215 15.0812 12.6191 18.6505C12.6864 19.2566 13.1578 24.442 14.9759 30.0989C16.794 36.0252 18.8141 38.2475 20.2282 38.2475C22.5176 38.2475 23.9317 32.3886 25.1438 26.7991C26.0192 22.6911 27.0292 18.5831 28.982 14.8792C32.2142 8.48156 37.2645 7 41.7088 7C51.338 7 56.1863 18.1791 56.1863 21.0748C56.1863 25.9236 52.2134 27.1358 50.5299 27.1358C46.759 27.1358 45.547 24.6441 44.4696 22.4217C43.5269 20.4687 42.5168 18.7852 41.2374 18.7852C40.8334 18.7852 40.4293 18.9872 40.0253 19.3912C36.7931 22.6911 35.7157 39.7964 29.3187 46.3288C25.6825 49.898 21.7769 49.898 19.3528 49.898Z" fill="url(#paint8_radial_13250_6174)"/>
<path d="M41.7088 7C37.3318 7 32.2142 8.48156 28.8474 14.8792C26.8946 18.5831 25.9519 22.6911 25.0091 26.7991C24.7398 28.1459 24.4031 29.4928 24.0664 30.8397V49.4266C25.7498 48.9552 27.5006 48.0797 29.2514 46.3288C35.7158 39.7964 36.7931 22.6911 39.958 19.3913C40.2947 18.9872 40.6987 18.7852 41.1701 18.7852C42.4495 18.7852 43.4595 20.4014 44.4023 22.4217C45.4797 24.6441 46.7591 27.1358 50.4626 27.1358C52.146 27.1358 56.1189 25.9236 56.1189 21.0748C56.1189 18.1791 51.338 7 41.7088 7Z" fill="url(#paint9_radial_13250_6174)"/>
<path d="M19.3528 49.898C8.37681 49.898 4.67326 36.0925 3.79787 33.3988C1.71042 26.597 1.10438 20.4688 1.03704 19.8627C0.633021 16.1587 3.59586 13.5997 6.89539 13.5997C9.38687 13.5997 12.215 15.0812 12.6191 18.6505C12.6864 19.2566 13.1578 24.442 14.9759 30.0989C16.794 36.0252 18.8141 38.2475 20.2282 38.2475C22.5176 38.2475 23.9317 32.3886 25.1438 26.7991C26.0192 22.6911 27.0292 18.5831 28.982 14.8792C32.2142 8.48156 37.2645 7 41.7088 7C51.338 7 56.1863 18.1791 56.1863 21.0748C56.1863 25.9236 52.2134 27.1358 50.5299 27.1358C46.759 27.1358 45.547 24.6441 44.4696 22.4217C43.5269 20.4687 42.5168 18.7852 41.2374 18.7852C40.8334 18.7852 40.4293 18.9872 40.0253 19.3912C36.7931 22.6911 35.7157 39.7964 29.3187 46.3288C25.6825 49.898 21.7769 49.898 19.3528 49.898Z" fill="url(#paint10_radial_13250_6174)"/>
<path d="M19.3528 49.898C8.37681 49.898 4.67326 36.0925 3.79787 33.3988C1.71042 26.597 1.10438 20.4688 1.03704 19.8627C0.633021 16.1587 3.59586 13.5997 6.89539 13.5997C9.38687 13.5997 12.215 15.0812 12.6191 18.6505C12.6864 19.2566 13.1578 24.442 14.9759 30.0989C16.794 36.0252 18.8141 38.2475 20.2282 38.2475C22.5176 38.2475 23.9317 32.3886 25.1438 26.7991C26.0192 22.6911 27.0292 18.5831 28.982 14.8792C32.2142 8.48156 37.2645 7 41.7088 7C51.338 7 56.1863 18.1791 56.1863 21.0748C56.1863 25.9236 52.2134 27.1358 50.5299 27.1358C46.759 27.1358 45.547 24.6441 44.4696 22.4217C43.5269 20.4687 42.5168 18.7852 41.2374 18.7852C40.8334 18.7852 40.4293 18.9872 40.0253 19.3912C36.7931 22.6911 35.7157 39.7964 29.3187 46.3288C25.6825 49.898 21.7769 49.898 19.3528 49.898Z" fill="url(#paint11_radial_13250_6174)"/>
<path d="M19.3528 49.898C8.37681 49.898 4.67326 36.0925 3.79787 33.3988C1.71042 26.597 1.10438 20.4688 1.03704 19.8627C0.633021 16.1587 3.59586 13.5997 6.89539 13.5997C9.38687 13.5997 12.215 15.0812 12.6191 18.6505C12.6864 19.2566 13.1578 24.442 14.9759 30.0989C16.794 36.0252 18.8141 38.2475 20.2282 38.2475C22.5176 38.2475 23.9317 32.3886 25.1438 26.7991C26.0192 22.6911 27.0292 18.5831 28.982 14.8792C32.2142 8.48156 37.2645 7 41.7088 7C51.338 7 56.1863 18.1791 56.1863 21.0748C56.1863 25.9236 52.2134 27.1358 50.5299 27.1358C46.759 27.1358 45.547 24.6441 44.4696 22.4217C43.5269 20.4687 42.5168 18.7852 41.2374 18.7852C40.8334 18.7852 40.4293 18.9872 40.0253 19.3912C36.7931 22.6911 35.7157 39.7964 29.3187 46.3288C25.6825 49.898 21.7769 49.898 19.3528 49.898Z" fill="url(#paint12_radial_13250_6174)"/>
<path d="M19.3528 49.898C8.37681 49.898 4.67326 36.0925 3.79787 33.3988C1.71042 26.597 1.10438 20.4688 1.03704 19.8627C0.633021 16.1587 3.59586 13.5997 6.89539 13.5997C9.38687 13.5997 12.215 15.0812 12.6191 18.6505C12.6864 19.2566 13.1578 24.442 14.9759 30.0989C16.794 36.0252 18.8141 38.2475 20.2282 38.2475C22.5176 38.2475 23.9317 32.3886 25.1438 26.7991C26.0192 22.6911 27.0292 18.5831 28.982 14.8792C32.2142 8.48156 37.2645 7 41.7088 7C51.338 7 56.1863 18.1791 56.1863 21.0748C56.1863 25.9236 52.2134 27.1358 50.5299 27.1358C46.759 27.1358 45.547 24.6441 44.4696 22.4217C43.5269 20.4687 42.5168 18.7852 41.2374 18.7852C40.8334 18.7852 40.4293 18.9872 40.0253 19.3912C36.7931 22.6911 35.7157 39.7964 29.3187 46.3288C25.6825 49.898 21.7769 49.898 19.3528 49.898Z" fill="url(#paint13_radial_13250_6174)"/>
<path d="M19.3528 49.898C8.37681 49.898 4.67326 36.0925 3.79787 33.3988C1.71042 26.597 1.10438 20.4688 1.03704 19.8627C0.633021 16.1587 3.59586 13.5997 6.89539 13.5997C9.38687 13.5997 12.215 15.0812 12.6191 18.6505C12.6864 19.2566 13.1578 24.442 14.9759 30.0989C16.794 36.0252 18.8141 38.2475 20.2282 38.2475C22.5176 38.2475 23.9317 32.3886 25.1438 26.7991C26.0192 22.6911 27.0292 18.5831 28.982 14.8792C32.2142 8.48156 37.2645 7 41.7088 7C51.338 7 56.1863 18.1791 56.1863 21.0748C56.1863 25.9236 52.2134 27.1358 50.5299 27.1358C46.759 27.1358 45.547 24.6441 44.4696 22.4217C43.5269 20.4687 42.5168 18.7852 41.2374 18.7852C40.8334 18.7852 40.4293 18.9872 40.0253 19.3912C36.7931 22.6911 35.7157 39.7964 29.3187 46.3288C25.6825 49.898 21.7769 49.898 19.3528 49.898Z" fill="url(#paint14_radial_13250_6174)"/>
<path d="M54.3663 13.5997C53.9623 13.5997 53.491 13.667 53.0869 13.7344C55.1071 16.6975 56.1171 19.728 56.1171 21.0748C56.1171 25.9236 52.1442 27.1358 50.4608 27.1358C49.114 27.1358 48.104 26.7991 47.2959 26.3277V26.395C47.0266 27.3378 46.8919 28.4153 46.5552 29.4255C45.9492 31.3784 45.0738 33.6008 44.1311 35.3517C43.121 37.2373 42.1783 38.3148 41.0336 38.2475C39.6868 38.1802 38.6768 36.4966 37.33 31.7152C36.926 30.1663 36.522 28.4827 36.118 26.7991C35.1752 22.6911 34.0978 18.5158 32.2124 14.8792C29.1149 8.88563 23.7952 7 19.553 7C15.6474 7 12.6846 8.88563 10.3951 11.2427C9.78908 11.9161 9.04837 12.7916 8.375 13.8017C10.3951 14.2731 12.2806 15.822 12.6172 18.6505C12.6846 19.1892 13.0886 23.5666 14.5027 28.6173C14.9067 27.3378 15.5127 25.4522 16.8595 22.4891C17.5329 21.0748 18.1389 20.1994 18.6776 19.6606C19.149 19.1219 19.6203 18.9198 20.0243 18.9198C20.4957 18.9198 21.9771 19.3239 23.4585 24.442C25.2093 30.705 26.5561 40.8066 31.6737 46.1941C33.9632 48.5511 37.128 50.1 41.5049 50.1C45.3432 50.1 48.5753 48.4164 50.8648 46.0594C54.6357 42.1534 56.7232 35.7558 57.4639 33.3988C59.5513 26.6644 60.1573 20.5361 60.2247 19.8627C60.6287 16.1587 57.4639 13.5997 54.3663 13.5997Z" fill="#4A4A4A"/>
<path d="M54.3663 13.5997C53.9623 13.5997 53.491 13.667 53.0869 13.7344C55.1071 16.6975 56.1171 19.728 56.1171 21.0748C56.1171 25.9236 52.1442 27.1358 50.4608 27.1358C49.114 27.1358 48.104 26.7991 47.2959 26.3277V26.395C47.0266 27.3378 46.8919 28.4153 46.5552 29.4255C45.9492 31.3784 45.0738 33.6008 44.1311 35.3517C43.121 37.2373 42.1783 38.3148 41.0336 38.2475C39.6868 38.1802 38.6768 36.4966 37.33 31.7152C36.926 30.1663 36.522 28.4827 36.118 26.7991C35.1752 22.6911 34.0978 18.5158 32.2124 14.8792C29.1149 8.88563 23.7952 7 19.553 7C15.6474 7 12.6846 8.88563 10.3951 11.2427C9.78908 11.9161 9.04837 12.7916 8.375 13.8017C10.3951 14.2731 12.2806 15.822 12.6172 18.6505C12.6846 19.1892 13.0886 23.5666 14.5027 28.6173C14.9067 27.3378 15.5127 25.4522 16.8595 22.4891C17.5329 21.0748 18.1389 20.1994 18.6776 19.6606C19.149 19.1219 19.6203 18.9198 20.0243 18.9198C20.4957 18.9198 21.9771 19.3239 23.4585 24.442C25.2093 30.705 26.5561 40.8066 31.6737 46.1941C33.9632 48.5511 37.128 50.1 41.5049 50.1C45.3432 50.1 48.5753 48.4164 50.8648 46.0594C54.6357 42.1534 56.7232 35.7558 57.4639 33.3988C59.5513 26.6644 60.1573 20.5361 60.2247 19.8627C60.6287 16.1587 57.4639 13.5997 54.3663 13.5997Z" fill="url(#paint15_linear_13250_6174)"/>
<path d="M54.3663 13.5997C53.9623 13.5997 53.491 13.667 53.0869 13.7344C55.1071 16.6975 56.1171 19.728 56.1171 21.0748C56.1171 25.9236 52.1442 27.1358 50.4608 27.1358C49.114 27.1358 48.104 26.7991 47.2959 26.3277V26.395C47.0266 27.3378 46.8919 28.4153 46.5552 29.4255C45.9492 31.3784 45.0738 33.6008 44.1311 35.3517C43.121 37.2373 42.1783 38.3148 41.0336 38.2475C39.6868 38.1802 38.6768 36.4966 37.33 31.7152C36.926 30.1663 36.522 28.4827 36.118 26.7991C35.1752 22.6911 34.0978 18.5158 32.2124 14.8792C29.1149 8.88563 23.7952 7 19.553 7C15.6474 7 12.6846 8.88563 10.3951 11.2427C9.78908 11.9161 9.04837 12.7916 8.375 13.8017C10.3951 14.2731 12.2806 15.822 12.6172 18.6505C12.6846 19.1892 13.0886 23.5666 14.5027 28.6173C14.9067 27.3378 15.5127 25.4522 16.8595 22.4891C17.5329 21.0748 18.1389 20.1994 18.6776 19.6606C19.149 19.1219 19.6203 18.9198 20.0243 18.9198C20.4957 18.9198 21.9771 19.3239 23.4585 24.442C25.2093 30.705 26.5561 40.8066 31.6737 46.1941C33.9632 48.5511 37.128 50.1 41.5049 50.1C45.3432 50.1 48.5753 48.4164 50.8648 46.0594C54.6357 42.1534 56.7232 35.7558 57.4639 33.3988C59.5513 26.6644 60.1573 20.5361 60.2247 19.8627C60.6287 16.1587 57.4639 13.5997 54.3663 13.5997Z" fill="url(#paint16_radial_13250_6174)"/>
<path d="M54.3663 13.5997C53.9623 13.5997 53.491 13.667 53.0869 13.7344C55.1071 16.6975 56.1171 19.728 56.1171 21.0748C56.1171 25.9236 52.1442 27.1358 50.4608 27.1358C49.114 27.1358 48.104 26.7991 47.2959 26.3277V26.395C47.0266 27.3378 46.8919 28.4153 46.5552 29.4255C45.9492 31.3784 45.0738 33.6008 44.1311 35.3517C43.121 37.2373 42.1783 38.3148 41.0336 38.2475C39.6868 38.1802 38.6768 36.4966 37.33 31.7152C36.926 30.1663 36.522 28.4827 36.118 26.7991C35.1752 22.6911 34.0978 18.5158 32.2124 14.8792C29.1149 8.88563 23.7952 7 19.553 7C15.6474 7 12.6846 8.88563 10.3951 11.2427C9.78908 11.9161 9.04837 12.7916 8.375 13.8017C10.3951 14.2731 12.2806 15.822 12.6172 18.6505C12.6846 19.1892 13.0886 23.5666 14.5027 28.6173C14.9067 27.3378 15.5127 25.4522 16.8595 22.4891C17.5329 21.0748 18.1389 20.1994 18.6776 19.6606C19.149 19.1219 19.6203 18.9198 20.0243 18.9198C20.4957 18.9198 21.9771 19.3239 23.4585 24.442C25.2093 30.705 26.5561 40.8066 31.6737 46.1941C33.9632 48.5511 37.128 50.1 41.5049 50.1C45.3432 50.1 48.5753 48.4164 50.8648 46.0594C54.6357 42.1534 56.7232 35.7558 57.4639 33.3988C59.5513 26.6644 60.1573 20.5361 60.2247 19.8627C60.6287 16.1587 57.4639 13.5997 54.3663 13.5997Z" fill="url(#paint17_linear_13250_6174)"/>
<path d="M54.3663 13.5997C53.9623 13.5997 53.491 13.667 53.0869 13.7344C55.1071 16.6975 56.1171 19.728 56.1171 21.0748C56.1171 25.9236 52.1442 27.1358 50.4608 27.1358C49.114 27.1358 48.104 26.7991 47.2959 26.3277V26.395C47.0266 27.3378 46.8919 28.4153 46.5552 29.4255C45.9492 31.3784 45.0738 33.6008 44.1311 35.3517C43.121 37.2373 42.1783 38.3148 41.0336 38.2475C39.6868 38.1802 38.6768 36.4966 37.33 31.7152C36.926 30.1663 36.522 28.4827 36.118 26.7991C35.1752 22.6911 34.0978 18.5158 32.2124 14.8792C29.1149 8.88563 23.7952 7 19.553 7C15.6474 7 12.6846 8.88563 10.3951 11.2427C9.78908 11.9161 9.04837 12.7916 8.375 13.8017C10.3951 14.2731 12.2806 15.822 12.6172 18.6505C12.6846 19.1892 13.0886 23.5666 14.5027 28.6173C14.9067 27.3378 15.5127 25.4522 16.8595 22.4891C17.5329 21.0748 18.1389 20.1994 18.6776 19.6606C19.149 19.1219 19.6203 18.9198 20.0243 18.9198C20.4957 18.9198 21.9771 19.3239 23.4585 24.442C25.2093 30.705 26.5561 40.8066 31.6737 46.1941C33.9632 48.5511 37.128 50.1 41.5049 50.1C45.3432 50.1 48.5753 48.4164 50.8648 46.0594C54.6357 42.1534 56.7232 35.7558 57.4639 33.3988C59.5513 26.6644 60.1573 20.5361 60.2247 19.8627C60.6287 16.1587 57.4639 13.5997 54.3663 13.5997Z" fill="url(#paint18_linear_13250_6174)"/>
<path d="M54.3663 13.5997C53.9623 13.5997 53.491 13.667 53.0869 13.7344C55.1071 16.6975 56.1171 19.728 56.1171 21.0748C56.1171 25.9236 52.1442 27.1358 50.4608 27.1358C49.114 27.1358 48.104 26.7991 47.2959 26.3277V26.395C47.0266 27.3378 46.8919 28.4153 46.5552 29.4255C45.9492 31.3784 45.0738 33.6008 44.1311 35.3517C43.121 37.2373 42.1783 38.3148 41.0336 38.2475C39.6868 38.1802 38.6768 36.4966 37.33 31.7152C36.926 30.1663 36.522 28.4827 36.118 26.7991C35.1752 22.6911 34.0978 18.5158 32.2124 14.8792C29.1149 8.88563 23.7952 7 19.553 7C15.6474 7 12.6846 8.88563 10.3951 11.2427C9.78908 11.9161 9.04837 12.7916 8.375 13.8017C10.3951 14.2731 12.2806 15.822 12.6172 18.6505C12.6846 19.1892 13.0886 23.5666 14.5027 28.6173C14.9067 27.3378 15.5127 25.4522 16.8595 22.4891C17.5329 21.0748 18.1389 20.1994 18.6776 19.6606C19.149 19.1219 19.6203 18.9198 20.0243 18.9198C20.4957 18.9198 21.9771 19.3239 23.4585 24.442C25.2093 30.705 26.5561 40.8066 31.6737 46.1941C33.9632 48.5511 37.128 50.1 41.5049 50.1C45.3432 50.1 48.5753 48.4164 50.8648 46.0594C54.6357 42.1534 56.7232 35.7558 57.4639 33.3988C59.5513 26.6644 60.1573 20.5361 60.2247 19.8627C60.6287 16.1587 57.4639 13.5997 54.3663 13.5997Z" fill="url(#paint19_radial_13250_6174)"/>
<path d="M54.3663 13.5997C53.9623 13.5997 53.491 13.667 53.0869 13.7344C55.1071 16.6975 56.1171 19.728 56.1171 21.0748C56.1171 25.9236 52.1442 27.1358 50.4608 27.1358C49.114 27.1358 48.104 26.7991 47.2959 26.3277V26.395C47.0266 27.3378 46.8919 28.4153 46.5552 29.4255C45.9492 31.3784 45.0738 33.6008 44.1311 35.3517C43.121 37.2373 42.1783 38.3148 41.0336 38.2475C39.6868 38.1802 38.6768 36.4966 37.33 31.7152C36.926 30.1663 36.522 28.4827 36.118 26.7991C35.1752 22.6911 34.0978 18.5158 32.2124 14.8792C29.1149 8.88563 23.7952 7 19.553 7C15.6474 7 12.6846 8.88563 10.3951 11.2427C9.78908 11.9161 9.04837 12.7916 8.375 13.8017C10.3951 14.2731 12.2806 15.822 12.6172 18.6505C12.6846 19.1892 13.0886 23.5666 14.5027 28.6173C14.9067 27.3378 15.5127 25.4522 16.8595 22.4891C17.5329 21.0748 18.1389 20.1994 18.6776 19.6606C19.149 19.1219 19.6203 18.9198 20.0243 18.9198C20.4957 18.9198 21.9771 19.3239 23.4585 24.442C25.2093 30.705 26.5561 40.8066 31.6737 46.1941C33.9632 48.5511 37.128 50.1 41.5049 50.1C45.3432 50.1 48.5753 48.4164 50.8648 46.0594C54.6357 42.1534 56.7232 35.7558 57.4639 33.3988C59.5513 26.6644 60.1573 20.5361 60.2247 19.8627C60.6287 16.1587 57.4639 13.5997 54.3663 13.5997Z" fill="url(#paint20_radial_13250_6174)"/>
<path d="M54.3663 13.5997C53.9623 13.5997 53.491 13.667 53.0869 13.7344C55.1071 16.6975 56.1171 19.728 56.1171 21.0748C56.1171 25.9236 52.1442 27.1358 50.4608 27.1358C49.114 27.1358 48.104 26.7991 47.2959 26.3277V26.395C47.0266 27.3378 46.8919 28.4153 46.5552 29.4255C45.9492 31.3784 45.0738 33.6008 44.1311 35.3517C43.121 37.2373 42.1783 38.3148 41.0336 38.2475C39.6868 38.1802 38.6768 36.4966 37.33 31.7152C36.926 30.1663 36.522 28.4827 36.118 26.7991C35.1752 22.6911 34.0978 18.5158 32.2124 14.8792C29.1149 8.88563 23.7952 7 19.553 7C15.6474 7 12.6846 8.88563 10.3951 11.2427C9.78908 11.9161 9.04837 12.7916 8.375 13.8017C10.3951 14.2731 12.2806 15.822 12.6172 18.6505C12.6846 19.1892 13.0886 23.5666 14.5027 28.6173C14.9067 27.3378 15.5127 25.4522 16.8595 22.4891C17.5329 21.0748 18.1389 20.1994 18.6776 19.6606C19.149 19.1219 19.6203 18.9198 20.0243 18.9198C20.4957 18.9198 21.9771 19.3239 23.4585 24.442C25.2093 30.705 26.5561 40.8066 31.6737 46.1941C33.9632 48.5511 37.128 50.1 41.5049 50.1C45.3432 50.1 48.5753 48.4164 50.8648 46.0594C54.6357 42.1534 56.7232 35.7558 57.4639 33.3988C59.5513 26.6644 60.1573 20.5361 60.2247 19.8627C60.6287 16.1587 57.4639 13.5997 54.3663 13.5997Z" fill="url(#paint21_radial_13250_6174)"/>
<path d="M54.3663 13.5997C53.9623 13.5997 53.491 13.667 53.0869 13.7344C55.1071 16.6975 56.1171 19.728 56.1171 21.0748C56.1171 25.9236 52.1442 27.1358 50.4608 27.1358C49.114 27.1358 48.104 26.7991 47.2959 26.3277V26.395C47.0266 27.3378 46.8919 28.4153 46.5552 29.4255C45.9492 31.3784 45.0738 33.6008 44.1311 35.3517C43.121 37.2373 42.1783 38.3148 41.0336 38.2475C39.6868 38.1802 38.6768 36.4966 37.33 31.7152C36.926 30.1663 36.522 28.4827 36.118 26.7991C35.1752 22.6911 34.0978 18.5158 32.2124 14.8792C29.1149 8.88563 23.7952 7 19.553 7C15.6474 7 12.6846 8.88563 10.3951 11.2427C9.78908 11.9161 9.04837 12.7916 8.375 13.8017C10.3951 14.2731 12.2806 15.822 12.6172 18.6505C12.6846 19.1892 13.0886 23.5666 14.5027 28.6173C14.9067 27.3378 15.5127 25.4522 16.8595 22.4891C17.5329 21.0748 18.1389 20.1994 18.6776 19.6606C19.149 19.1219 19.6203 18.9198 20.0243 18.9198C20.4957 18.9198 21.9771 19.3239 23.4585 24.442C25.2093 30.705 26.5561 40.8066 31.6737 46.1941C33.9632 48.5511 37.128 50.1 41.5049 50.1C45.3432 50.1 48.5753 48.4164 50.8648 46.0594C54.6357 42.1534 56.7232 35.7558 57.4639 33.3988C59.5513 26.6644 60.1573 20.5361 60.2247 19.8627C60.6287 16.1587 57.4639 13.5997 54.3663 13.5997Z" fill="url(#paint22_radial_13250_6174)"/>
<path d="M54.3663 13.5997C53.9623 13.5997 53.491 13.667 53.0869 13.7344C55.1071 16.6975 56.1171 19.728 56.1171 21.0748C56.1171 25.9236 52.1442 27.1358 50.4608 27.1358C49.114 27.1358 48.104 26.7991 47.2959 26.3277V26.395C47.0266 27.3378 46.8919 28.4153 46.5552 29.4255C45.9492 31.3784 45.0738 33.6008 44.1311 35.3517C43.121 37.2373 42.1783 38.3148 41.0336 38.2475C39.6868 38.1802 38.6768 36.4966 37.33 31.7152C36.926 30.1663 36.522 28.4827 36.118 26.7991C35.1752 22.6911 34.0978 18.5158 32.2124 14.8792C29.1149 8.88563 23.7952 7 19.553 7C15.6474 7 12.6846 8.88563 10.3951 11.2427C9.78908 11.9161 9.04837 12.7916 8.375 13.8017C10.3951 14.2731 12.2806 15.822 12.6172 18.6505C12.6846 19.1892 13.0886 23.5666 14.5027 28.6173C14.9067 27.3378 15.5127 25.4522 16.8595 22.4891C17.5329 21.0748 18.1389 20.1994 18.6776 19.6606C19.149 19.1219 19.6203 18.9198 20.0243 18.9198C20.4957 18.9198 21.9771 19.3239 23.4585 24.442C25.2093 30.705 26.5561 40.8066 31.6737 46.1941C33.9632 48.5511 37.128 50.1 41.5049 50.1C45.3432 50.1 48.5753 48.4164 50.8648 46.0594C54.6357 42.1534 56.7232 35.7558 57.4639 33.3988C59.5513 26.6644 60.1573 20.5361 60.2247 19.8627C60.6287 16.1587 57.4639 13.5997 54.3663 13.5997Z" fill="url(#paint23_radial_13250_6174)"/>
<path d="M54.3663 13.5997C53.9623 13.5997 53.491 13.667 53.0869 13.7344C55.1071 16.6975 56.1171 19.728 56.1171 21.0748C56.1171 25.9236 52.1442 27.1358 50.4608 27.1358C49.114 27.1358 48.104 26.7991 47.2959 26.3277V26.395C47.0266 27.3378 46.8919 28.4153 46.5552 29.4255C45.9492 31.3784 45.0738 33.6008 44.1311 35.3517C43.121 37.2373 42.1783 38.3148 41.0336 38.2475C39.6868 38.1802 38.6768 36.4966 37.33 31.7152C36.926 30.1663 36.522 28.4827 36.118 26.7991C35.1752 22.6911 34.0978 18.5158 32.2124 14.8792C29.1149 8.88563 23.7952 7 19.553 7C15.6474 7 12.6846 8.88563 10.3951 11.2427C9.78908 11.9161 9.04837 12.7916 8.375 13.8017C10.3951 14.2731 12.2806 15.822 12.6172 18.6505C12.6846 19.1892 13.0886 23.5666 14.5027 28.6173C14.9067 27.3378 15.5127 25.4522 16.8595 22.4891C17.5329 21.0748 18.1389 20.1994 18.6776 19.6606C19.149 19.1219 19.6203 18.9198 20.0243 18.9198C20.4957 18.9198 21.9771 19.3239 23.4585 24.442C25.2093 30.705 26.5561 40.8066 31.6737 46.1941C33.9632 48.5511 37.128 50.1 41.5049 50.1C45.3432 50.1 48.5753 48.4164 50.8648 46.0594C54.6357 42.1534 56.7232 35.7558 57.4639 33.3988C59.5513 26.6644 60.1573 20.5361 60.2247 19.8627C60.6287 16.1587 57.4639 13.5997 54.3663 13.5997Z" fill="url(#paint24_linear_13250_6174)"/>
<path d="M54.3663 13.5997C53.9623 13.5997 53.491 13.667 53.0869 13.7344C55.1071 16.6975 56.1171 19.728 56.1171 21.0748C56.1171 25.9236 52.1442 27.1358 50.4608 27.1358C49.114 27.1358 48.104 26.7991 47.2959 26.3277V26.395C47.0266 27.3378 46.8919 28.4153 46.5552 29.4255C45.9492 31.3784 45.0738 33.6008 44.1311 35.3517C43.121 37.2373 42.1783 38.3148 41.0336 38.2475C39.6868 38.1802 38.6768 36.4966 37.33 31.7152C36.926 30.1663 36.522 28.4827 36.118 26.7991C35.1752 22.6911 34.0978 18.5158 32.2124 14.8792C29.1149 8.88563 23.7952 7 19.553 7C15.6474 7 12.6846 8.88563 10.3951 11.2427C9.78908 11.9161 9.04837 12.7916 8.375 13.8017C10.3951 14.2731 12.2806 15.822 12.6172 18.6505C12.6846 19.1892 13.0886 23.5666 14.5027 28.6173C14.9067 27.3378 15.5127 25.4522 16.8595 22.4891C17.5329 21.0748 18.1389 20.1994 18.6776 19.6606C19.149 19.1219 19.6203 18.9198 20.0243 18.9198C20.4957 18.9198 21.9771 19.3239 23.4585 24.442C25.2093 30.705 26.5561 40.8066 31.6737 46.1941C33.9632 48.5511 37.128 50.1 41.5049 50.1C45.3432 50.1 48.5753 48.4164 50.8648 46.0594C54.6357 42.1534 56.7232 35.7558 57.4639 33.3988C59.5513 26.6644 60.1573 20.5361 60.2247 19.8627C60.6287 16.1587 57.4639 13.5997 54.3663 13.5997Z" fill="url(#paint25_radial_13250_6174)"/>
<path d="M54.3663 13.5997C53.9623 13.5997 53.491 13.667 53.0869 13.7344C55.1071 16.6975 56.1171 19.728 56.1171 21.0748C56.1171 25.9236 52.1442 27.1358 50.4608 27.1358C49.114 27.1358 48.104 26.7991 47.2959 26.3277V26.395C47.0266 27.3378 46.8919 28.4153 46.5552 29.4255C45.9492 31.3784 45.0738 33.6008 44.1311 35.3517C43.121 37.2373 42.1783 38.3148 41.0336 38.2475C39.6868 38.1802 38.6768 36.4966 37.33 31.7152C36.926 30.1663 36.522 28.4827 36.118 26.7991C35.1752 22.6911 34.0978 18.5158 32.2124 14.8792C29.1149 8.88563 23.7952 7 19.553 7C15.6474 7 12.6846 8.88563 10.3951 11.2427C9.78908 11.9161 9.04837 12.7916 8.375 13.8017C10.3951 14.2731 12.2806 15.822 12.6172 18.6505C12.6846 19.1892 13.0886 23.5666 14.5027 28.6173C14.9067 27.3378 15.5127 25.4522 16.8595 22.4891C17.5329 21.0748 18.1389 20.1994 18.6776 19.6606C19.149 19.1219 19.6203 18.9198 20.0243 18.9198C20.4957 18.9198 21.9771 19.3239 23.4585 24.442C25.2093 30.705 26.5561 40.8066 31.6737 46.1941C33.9632 48.5511 37.128 50.1 41.5049 50.1C45.3432 50.1 48.5753 48.4164 50.8648 46.0594C54.6357 42.1534 56.7232 35.7558 57.4639 33.3988C59.5513 26.6644 60.1573 20.5361 60.2247 19.8627C60.6287 16.1587 57.4639 13.5997 54.3663 13.5997Z" fill="url(#paint26_radial_13250_6174)"/>
<path d="M54.3663 13.5997C53.9623 13.5997 53.491 13.667 53.0869 13.7344C55.1071 16.6975 56.1171 19.728 56.1171 21.0748C56.1171 25.9236 52.1442 27.1358 50.4608 27.1358C49.114 27.1358 48.104 26.7991 47.2959 26.3277V26.395C47.0266 27.3378 46.8919 28.4153 46.5552 29.4255C45.9492 31.3784 45.0738 33.6008 44.1311 35.3517C43.121 37.2373 42.1783 38.3148 41.0336 38.2475C39.6868 38.1802 38.6768 36.4966 37.33 31.7152C36.926 30.1663 36.522 28.4827 36.118 26.7991C35.1752 22.6911 34.0978 18.5158 32.2124 14.8792C29.1149 8.88563 23.7952 7 19.553 7C15.6474 7 12.6846 8.88563 10.3951 11.2427C9.78908 11.9161 9.04837 12.7916 8.375 13.8017C10.3951 14.2731 12.2806 15.822 12.6172 18.6505C12.6846 19.1892 13.0886 23.5666 14.5027 28.6173C14.9067 27.3378 15.5127 25.4522 16.8595 22.4891C17.5329 21.0748 18.1389 20.1994 18.6776 19.6606C19.149 19.1219 19.6203 18.9198 20.0243 18.9198C20.4957 18.9198 21.9771 19.3239 23.4585 24.442C25.2093 30.705 26.5561 40.8066 31.6737 46.1941C33.9632 48.5511 37.128 50.1 41.5049 50.1C45.3432 50.1 48.5753 48.4164 50.8648 46.0594C54.6357 42.1534 56.7232 35.7558 57.4639 33.3988C59.5513 26.6644 60.1573 20.5361 60.2247 19.8627C60.6287 16.1587 57.4639 13.5997 54.3663 13.5997Z" fill="url(#paint27_linear_13250_6174)"/>
<path d="M200.347 56.8838H197.553V67.9865H200.347V56.8838Z" fill="black"/>
<path d="M222.991 60.0642C222.268 59.6715 221.458 59.468 220.635 59.4727C218.816 59.4727 217.555 60.7332 217.555 62.4334C217.555 64.0841 218.763 65.3972 220.635 65.3972C221.457 65.4003 222.267 65.1981 222.991 64.8088V67.7881C222.162 68.043 221.3 68.1755 220.433 68.1814C217.276 68.1814 214.507 66.0135 214.507 62.4334C214.507 59.1196 217.015 56.6885 220.433 56.6885C221.301 56.6906 222.163 56.8244 222.991 57.0849V60.0642Z" fill="black"/>
<path d="M193.682 60.0642C192.958 59.6712 192.146 59.4677 191.322 59.4727C189.503 59.4727 188.246 60.7332 188.246 62.4334C188.246 64.0841 189.45 65.3972 191.322 65.3972C192.146 65.3991 192.956 65.1968 193.682 64.8088V67.7881C192.852 68.043 191.989 68.1755 191.121 68.1814C187.963 68.1814 185.194 66.0135 185.194 62.4334C185.194 59.1196 187.703 56.6885 191.121 56.6885C191.989 56.6906 192.853 56.8241 193.682 57.0849V60.0642Z" fill="black"/>
<path d="M231.825 59.5129C231.44 59.5095 231.06 59.5829 230.704 59.7288C230.349 59.8747 230.026 60.0902 229.756 60.3624C229.486 60.6347 229.272 60.958 229.129 61.3138C228.986 61.6694 228.916 62.0503 228.922 62.4334C228.915 62.8171 228.985 63.1984 229.127 63.5545C229.27 63.9107 229.483 64.2349 229.754 64.5075C230.025 64.78 230.347 64.9959 230.703 65.1417C231.059 65.2876 231.44 65.3607 231.825 65.357C232.209 65.3604 232.591 65.287 232.946 65.1408C233.302 64.9946 233.625 64.7791 233.896 64.5065C234.167 64.2343 234.38 63.9104 234.523 63.5542C234.667 63.198 234.737 62.8171 234.73 62.4334C234.737 62.05 234.666 61.6694 234.522 61.3135C234.379 60.9577 234.165 60.6344 233.895 60.3621C233.624 60.0899 233.301 59.8747 232.946 59.7288C232.59 59.5829 232.209 59.5095 231.825 59.5129ZM237.704 62.4334C237.704 65.6109 235.249 68.1814 231.825 68.1814C228.401 68.1814 225.948 65.6109 225.948 62.4334C225.948 59.2559 228.404 56.6885 231.825 56.6885C235.246 56.6885 237.704 59.2621 237.704 62.4334Z" fill="black"/>
<path d="M210.997 59.4077C210.281 59.2113 209.545 59.0983 208.802 59.0701C207.679 59.0701 207.067 59.4448 207.067 59.9775C207.067 60.6558 207.893 60.9066 208.352 61.0367L209.128 61.2813C210.95 61.8605 211.779 63.1055 211.779 64.4589C211.779 67.2462 209.324 68.1753 207.173 68.1753C206.156 68.1632 205.141 68.0594 204.143 67.8656V65.3105C205.005 65.5598 205.896 65.6983 206.794 65.7224C208.191 65.7224 208.833 65.3167 208.833 64.6849C208.833 64.1244 208.278 63.7992 207.592 63.5793L206.992 63.3873C205.44 62.8949 204.124 61.9782 204.124 60.1386C204.124 58.0636 205.676 56.6699 208.271 56.6699C209.194 56.6826 210.111 56.8012 211.006 57.023L210.997 59.4077Z" fill="black"/>
<path d="M165.578 67.949H164.358V56.8711H165.839V61.0551C166.135 60.6222 166.538 60.2722 167.007 60.0381C167.477 59.8039 167.999 59.6934 168.524 59.7172C169.039 59.6928 169.551 59.7928 170.018 60.0087C170.485 60.2242 170.892 60.5494 171.207 60.956C171.772 61.6953 172.054 62.6749 172.054 63.8951C172.054 65.3404 171.669 66.4479 170.899 67.2182C170.573 67.5399 170.185 67.792 169.758 67.9586C169.331 68.1253 168.874 68.2033 168.416 68.1875C167.906 68.2135 167.399 68.1085 166.942 67.8821C166.486 67.6561 166.095 67.3163 165.808 66.8961L165.578 67.949ZM170.511 63.8548C170.511 62.8492 170.26 62.0957 169.757 61.594C169.552 61.3871 169.306 61.2252 169.035 61.1186C168.764 61.0118 168.474 60.9628 168.183 60.9746C167.841 60.9607 167.502 61.027 167.191 61.1685C166.881 61.31 166.608 61.5228 166.395 61.7891C165.954 62.3841 165.735 63.1131 165.774 63.8517C165.774 64.8768 166.025 65.6635 166.531 66.2054C166.739 66.4393 166.996 66.6238 167.283 66.7465C167.571 66.8691 167.882 66.9267 168.195 66.9146C168.537 66.9338 168.877 66.866 169.185 66.7177C169.493 66.569 169.758 66.3448 169.956 66.0661C170.33 65.5458 170.517 64.8087 170.517 63.8548H170.511Z" fill="black"/>
<path d="M179.988 59.9466L177.194 68.0546C176.822 69.1323 176.467 69.8663 176.129 70.2565C175.939 70.4804 175.701 70.6588 175.432 70.7784C175.164 70.8979 174.871 70.9555 174.577 70.9471C174.254 70.9391 173.933 70.8933 173.621 70.8109V69.6031C173.873 69.6699 174.133 69.7062 174.394 69.7114C174.535 69.7183 174.675 69.6919 174.803 69.6343C174.932 69.5767 175.045 69.4897 175.133 69.3801C175.416 68.9319 175.639 68.4488 175.797 67.9431H175.319L172.373 59.9404H173.959L176.229 66.7538L178.495 59.9404L179.988 59.9466Z" fill="black"/>
<path d="M113.895 17.7109H120.17L111.047 45.2234H103.848L97.0291 24.462L90.2101 45.2234H83.1236L74 17.7109H80.4219L86.8956 38.6187L93.6886 17.7109H100.508L107.413 38.7307L113.895 17.7109Z" fill="black"/>
<path d="M147.084 33.6762H126.73C126.918 35.0949 127.452 36.446 128.284 37.6114C129.021 38.6311 130.02 39.4342 131.176 39.9364C132.352 40.4435 133.623 40.6987 134.904 40.6856C136.325 40.6802 137.734 40.4237 139.065 39.9278C140.445 39.4244 141.733 38.7002 142.88 37.7837L145.875 42.0892C144.348 43.4178 142.569 44.4279 140.644 45.06C138.667 45.6791 136.605 45.9842 134.533 45.9642C131.981 46.0144 129.461 45.3969 127.222 44.1731C125.105 42.9894 123.371 41.2267 122.225 39.0925C120.991 36.7533 120.374 34.14 120.429 31.4975C120.376 28.88 120.969 26.2895 122.156 23.9542C123.258 21.8301 124.94 20.06 127.006 18.8478C129.175 17.6027 131.643 16.9715 134.145 17.0223C136.506 16.9571 138.835 17.5723 140.854 18.7941C142.873 20.0159 144.497 21.7925 145.53 23.9112C146.67 26.2541 147.238 28.8332 147.187 31.4373C147.196 32.0142 147.161 32.7634 147.084 33.6762ZM141.041 29.1123C140.856 27.2267 140.045 25.4569 138.737 24.0834C138.11 23.4971 137.371 23.0425 136.564 22.7467C135.758 22.4508 134.9 22.3197 134.041 22.3612C133.138 22.3199 132.235 22.4602 131.387 22.7738C130.539 23.0874 129.762 23.5679 129.104 24.1867C127.8 25.5401 126.968 27.2762 126.73 29.1381L141.041 29.1123Z" fill="black"/>
<path d="M172.831 18.865C174.931 20.104 176.653 21.8902 177.812 24.0317C179.051 26.3141 179.681 28.8762 179.642 31.4717C179.681 34.0644 179.051 36.6237 177.812 38.9031C176.653 41.0544 174.924 42.8476 172.815 44.088C170.706 45.3283 168.297 45.9683 165.848 45.9383C164.13 45.9743 162.427 45.6179 160.868 44.8964C159.439 44.2091 158.19 43.2011 157.217 41.9514V45.2236H151.175V6H157.217V20.9833C158.194 19.7421 159.443 18.7405 160.868 18.0556C162.425 17.327 164.129 16.9674 165.848 17.005C168.303 16.975 170.719 17.6185 172.831 18.865ZM169.534 39.1097C170.787 38.3411 171.796 37.2332 172.443 35.915C173.107 34.5259 173.452 33.0063 173.452 31.4674C173.452 29.9284 173.107 28.4088 172.443 27.0197C171.793 25.7034 170.785 24.5962 169.534 23.825C168.204 23.066 166.699 22.6667 165.167 22.6667C163.634 22.6667 162.129 23.066 160.799 23.825C159.545 24.5849 158.528 25.6795 157.864 26.9853C157.146 28.38 156.785 29.9299 156.811 31.4975C156.784 33.0624 157.146 34.6098 157.864 36.0011C158.528 37.3069 159.545 38.4015 160.799 39.1614C162.129 39.9204 163.634 40.3197 165.167 40.3197C166.699 40.3197 168.204 39.9204 169.534 39.1614V39.1097Z" fill="black"/>
<path d="M209.455 33.6762H189.111C189.299 35.0949 189.832 36.446 190.664 37.6114C191.402 38.6311 192.401 39.4342 193.556 39.9364C194.733 40.4435 196.003 40.6987 197.285 40.6856C198.706 40.679 200.114 40.4224 201.445 39.9278C202.825 39.4244 204.114 38.7002 205.26 37.7837L208.247 42.0892C206.724 43.4195 204.948 44.4299 203.025 45.06C201.045 45.6786 198.98 45.9837 196.905 45.9642C194.353 46.0116 191.833 45.3942 189.594 44.1731C187.481 42.9866 185.751 41.2244 184.605 39.0925C183.369 36.754 182.748 34.1407 182.801 31.4975C182.749 28.88 183.341 26.2896 184.527 23.9542C185.63 21.8301 187.311 20.06 189.378 18.8478C191.559 17.5845 194.047 16.944 196.568 16.9964C198.929 16.9345 201.257 17.551 203.275 18.7724C205.294 19.9939 206.918 21.7687 207.953 23.8853C209.094 26.2283 209.662 28.8074 209.611 31.4114C209.576 32.0142 209.516 32.7634 209.455 33.6762ZM203.413 29.1123C203.214 27.2389 202.401 25.4833 201.1 24.1178C200.477 23.5283 199.742 23.0691 198.939 22.7674C198.135 22.4657 197.28 22.3276 196.422 22.3612C195.518 22.3189 194.615 22.4588 193.767 22.7724C192.918 23.0861 192.142 23.5671 191.484 24.1867C190.178 25.538 189.345 27.2751 189.111 29.1381L203.413 29.1123Z" fill="black"/>
<path d="M238.156 45.2234H230.758L223.767 35.6565L216.862 45.2234H209.81L220.167 31.1787L209.974 17.7109H217.379L224.112 26.899L230.845 17.7109H238L227.763 31.127L238.156 45.2234Z" fill="black"/>
<defs>
<linearGradient id="paint0_linear_13250_6174" x1="50.245" y1="19.9245" x2="11.4897" y2="32.6438" gradientUnits="userSpaceOnUse">
<stop stop-color="#7B7B7B"/>
<stop offset="1" stop-color="#464646"/>
</linearGradient>
<radialGradient id="paint1_radial_13250_6174" cx="0" cy="0" r="1" gradientTransform="matrix(-13.0248 -21.7814 18.2907 -10.9396 23.5251 29.8856)" gradientUnits="userSpaceOnUse">
<stop/>
<stop offset="0.4079" stop-opacity="0.75"/>
<stop offset="0.8745" stop-opacity="0"/>
</radialGradient>
<radialGradient id="paint2_radial_13250_6174" cx="0" cy="0" r="1" gradientTransform="matrix(-12.3858 -16.584 10.8981 -8.14084 40.2088 25.1765)" gradientUnits="userSpaceOnUse">
<stop stop-color="#0D0D0D"/>
<stop offset="0.4595" stop-color="#090909"/>
<stop offset="1" stop-opacity="0"/>
</radialGradient>
<radialGradient id="paint3_radial_13250_6174" cx="0" cy="0" r="1" gradientTransform="matrix(-9.87838 -17.9141 12.4189 -6.84945 26.8933 32.9273)" gradientUnits="userSpaceOnUse">
<stop/>
<stop offset="0.4079" stop-opacity="0.79"/>
<stop offset="0.8745" stop-opacity="0"/>
</radialGradient>
<radialGradient id="paint4_radial_13250_6174" cx="0" cy="0" r="1" gradientTransform="matrix(1.37845 16.0604 -9.11586 0.782558 37.2046 25.6326)" gradientUnits="userSpaceOnUse">
<stop/>
<stop offset="0.2326" stop-opacity="0.75"/>
<stop offset="0.5989" stop-opacity="0.3008"/>
<stop offset="0.8745" stop-opacity="0"/>
</radialGradient>
<radialGradient id="paint5_radial_13250_6174" cx="0" cy="0" r="1" gradientTransform="matrix(10.3063 15.9056 -8.3445 5.40802 37.903 -0.422089)" gradientUnits="userSpaceOnUse">
<stop stop-color="#2B2B2B"/>
<stop offset="0.4079" stop-color="#323232"/>
<stop offset="1" stop-color="#323232" stop-opacity="0.07"/>
</radialGradient>
<radialGradient id="paint6_radial_13250_6174" cx="0" cy="0" r="1" gradientTransform="matrix(9.09054 8.41798 -11.6334 12.5653 -1.72506 14.4078)" gradientUnits="userSpaceOnUse">
<stop stop-color="white"/>
<stop offset="1" stop-color="#4A4A4A" stop-opacity="0"/>
</radialGradient>
<radialGradient id="paint7_radial_13250_6174" cx="0" cy="0" r="1" gradientTransform="matrix(15.1509 -2.35703 3.25734 20.9421 -8.45878 26.8664)" gradientUnits="userSpaceOnUse">
<stop stop-color="white"/>
<stop offset="1" stop-color="#4A4A4A" stop-opacity="0"/>
</radialGradient>
<radialGradient id="paint8_radial_13250_6174" cx="0" cy="0" r="1" gradientTransform="matrix(13.4675 -8.41799 11.6334 18.6152 -4.75523 41.682)" gradientUnits="userSpaceOnUse">
<stop stop-color="white"/>
<stop offset="1" stop-color="#4A4A4A" stop-opacity="0"/>
</radialGradient>
<radialGradient id="paint9_radial_13250_6174" cx="0" cy="0" r="1" gradientTransform="matrix(33.6033 37.3081 -37.249 33.5565 12.1305 -9.08229)" gradientUnits="userSpaceOnUse">
<stop stop-color="#464646"/>
<stop offset="0.7454" stop-color="#444444" stop-opacity="0"/>
</radialGradient>
<radialGradient id="paint10_radial_13250_6174" cx="0" cy="0" r="1" gradientTransform="matrix(-10.9021 -13.1918 9.23611 -7.63446 51.5898 19.3561)" gradientUnits="userSpaceOnUse">
<stop stop-color="#717171"/>
<stop offset="1" stop-color="#444444" stop-opacity="0"/>
</radialGradient>
<radialGradient id="paint11_radial_13250_6174" cx="0" cy="0" r="1" gradientTransform="matrix(0.897202 -4.17477 5.83827 1.25495 48.8924 30.0036)" gradientUnits="userSpaceOnUse">
<stop stop-color="#0F0F0F"/>
<stop offset="1" stop-opacity="0"/>
</radialGradient>
<radialGradient id="paint12_radial_13250_6174" cx="0" cy="0" r="1" gradientTransform="matrix(-10.1552 -5.5047 3.86699 -7.13526 54.5016 17.4383)" gradientUnits="userSpaceOnUse">
<stop stop-color="#7C7C7C"/>
<stop offset="0.8133" stop-color="#727272" stop-opacity="0"/>
</radialGradient>
<radialGradient id="paint13_radial_13250_6174" cx="0" cy="0" r="1" gradientTransform="matrix(-11.8386 -2.13756 1.50161 -8.31811 56.185 14.0711)" gradientUnits="userSpaceOnUse">
<stop stop-color="#C4C4C4"/>
<stop offset="0.8133" stop-color="#727272" stop-opacity="0"/>
</radialGradient>
<radialGradient id="paint14_radial_13250_6174" cx="0" cy="0" r="1" gradientTransform="matrix(16.0348 18.8606 -18.8142 15.9985 -7.72009 3.36732)" gradientUnits="userSpaceOnUse">
<stop stop-color="#4C4C4C"/>
<stop offset="1" stop-color="#494949" stop-opacity="0"/>
</radialGradient>
<linearGradient id="paint15_linear_13250_6174" x1="58.5413" y1="27.5398" x2="4.67145" y2="27.5398" gradientUnits="userSpaceOnUse">
<stop stop-color="#3E3E3E" stop-opacity="0"/>
<stop offset="0.460592" stop-color="#3E3E3E"/>
<stop offset="1" stop-color="#3E3E3E" stop-opacity="0"/>
</linearGradient>
<radialGradient id="paint16_radial_13250_6174" cx="0" cy="0" r="1" gradientTransform="matrix(10.0071 7.66082 -10.645 13.9079 49.5759 26.3671)" gradientUnits="userSpaceOnUse">
<stop stop-color="#010101"/>
<stop offset="0.9661" stop-color="#010101" stop-opacity="0"/>
</radialGradient>
<linearGradient id="paint17_linear_13250_6174" x1="73.0188" y1="21.4789" x2="49.1127" y2="36.9659" gradientUnits="userSpaceOnUse">
<stop stop-color="white" stop-opacity="0.3"/>
<stop offset="0.9661" stop-color="white" stop-opacity="0"/>
</linearGradient>
<linearGradient id="paint18_linear_13250_6174" x1="56.5211" y1="50.1" x2="43.7266" y2="43.7033" gradientUnits="userSpaceOnUse">
<stop stop-color="white" stop-opacity="0.3"/>
<stop offset="0.9661" stop-color="white" stop-opacity="0"/>
</linearGradient>
<radialGradient id="paint19_radial_13250_6174" cx="0" cy="0" r="1" gradientTransform="matrix(14.7113 2.19332 -3.27092 21.9434 46.429 27.8139)" gradientUnits="userSpaceOnUse">
<stop stop-color="#010101"/>
<stop offset="0.5925" stop-color="#010101" stop-opacity="0"/>
</radialGradient>
<radialGradient id="paint20_radial_13250_6174" cx="0" cy="0" r="1" gradientTransform="matrix(11.5466 5.29793 -9.43432 20.5657 47.6362 29.6542)" gradientUnits="userSpaceOnUse">
<stop stop-color="#010101"/>
<stop offset="0.7568" stop-color="#010101" stop-opacity="0"/>
</radialGradient>
<radialGradient id="paint21_radial_13250_6174" cx="0" cy="0" r="1" gradientTransform="matrix(-1.01005 9.76486 -4.2026 -0.43479 20.159 26.5297)" gradientUnits="userSpaceOnUse">
<stop stop-color="#010101"/>
<stop offset="0.8846" stop-color="#010101" stop-opacity="0"/>
</radialGradient>
<radialGradient id="paint22_radial_13250_6174" cx="0" cy="0" r="1" gradientTransform="matrix(25.2515 -3.36719 3.4319 25.7418 5.34482 29.2234)" gradientUnits="userSpaceOnUse">
<stop stop-color="#010101" stop-opacity="0.5"/>
<stop offset="0.8846" stop-color="#010101" stop-opacity="0"/>
</radialGradient>
<radialGradient id="paint23_radial_13250_6174" cx="0" cy="0" r="1" gradientTransform="matrix(28.2816 -1.6836 3.28864 55.2543 8.375 25.1828)" gradientUnits="userSpaceOnUse">
<stop stop-color="#010101" stop-opacity="0.5"/>
<stop offset="0.822914" stop-color="#010101" stop-opacity="0"/>
</radialGradient>
<linearGradient id="paint24_linear_13250_6174" x1="23.1892" y1="55.4875" x2="36.9945" y2="43.3669" gradientUnits="userSpaceOnUse">
<stop stop-color="#010101"/>
<stop offset="1" stop-color="#010101" stop-opacity="0"/>
</linearGradient>
<radialGradient id="paint25_radial_13250_6174" cx="0" cy="0" r="1" gradientTransform="matrix(-10.5368 -3.93113 6.72629 -18.0323 15.8322 22.7017)" gradientUnits="userSpaceOnUse">
<stop stop-color="#010101"/>
<stop offset="0.709" stop-color="#010101" stop-opacity="0"/>
</radialGradient>
<radialGradient id="paint26_radial_13250_6174" cx="0" cy="0" r="1" gradientTransform="matrix(7.40709 11.7851 -7.95275 4.99935 28.2395 14.4078)" gradientUnits="userSpaceOnUse">
<stop stop-color="white" stop-opacity="0.15"/>
<stop offset="1" stop-color="white" stop-opacity="0"/>
</radialGradient>
<linearGradient id="paint27_linear_13250_6174" x1="18.8123" y1="4.30625" x2="19.4858" y2="10.7039" gradientUnits="userSpaceOnUse">
<stop stop-opacity="0.5"/>
<stop offset="1" stop-opacity="0"/>
</linearGradient>
</defs>
</svg>
