<svg width="156" height="28" viewBox="0 0 156 28" fill="none" xmlns="http://www.w3.org/2000/svg">
<path fill-rule="evenodd" clip-rule="evenodd" d="M50.1753 7.57632C51.2395 8.20788 52.112 9.11685 52.6993 10.206C53.309 11.3748 53.6273 12.6736 53.6273 13.9919C53.6273 15.3102 53.309 16.609 52.6993 17.7778C52.1098 18.8713 51.2324 19.783 50.1624 20.4141C49.0922 21.0453 47.87 21.3718 46.6276 21.3587C45.7567 21.3756 44.8935 21.1932 44.1036 20.8255C43.3788 20.4737 42.7438 19.9612 42.2469 19.3269V20.9927H39.1929V1.02979H42.2469V8.65689C42.7434 8.0226 43.3786 7.51049 44.1036 7.15986C44.893 6.79086 45.7565 6.60792 46.6276 6.6251C47.8751 6.61092 49.1023 6.93999 50.1753 7.57632ZM48.5032 17.8788C49.1378 17.4881 49.6491 16.9258 49.9782 16.2572C50.3157 15.5497 50.4908 14.7758 50.4908 13.9919C50.4908 13.2081 50.3157 12.4341 49.9782 11.7267C49.6491 11.0575 49.1378 10.4949 48.5032 10.1034C47.8298 9.71319 47.0657 9.50647 46.2872 9.504C45.5089 9.5015 44.7435 9.70331 44.0673 10.0892C43.431 10.4764 42.9148 11.033 42.5766 11.6967C42.2261 12.4108 42.0438 13.1956 42.0438 13.9911C42.0438 14.7866 42.2261 15.5715 42.5766 16.2856C42.9148 16.9493 43.431 17.5059 44.0673 17.893C44.7435 18.279 45.5089 18.4808 46.2872 18.4782C47.0657 18.4757 47.8298 18.2691 48.5032 17.8788Z" fill="white"/>
<path fill-rule="evenodd" clip-rule="evenodd" d="M26.7719 15.1165H37.1107C37.1454 14.6496 37.1627 14.2694 37.1627 13.976C37.1887 12.6514 36.9005 11.3394 36.3219 10.1475C35.8042 9.08196 34.9973 8.18336 33.9936 7.55411C32.9572 6.92509 31.7636 6.60292 30.5515 6.62498C29.2804 6.60048 28.0263 6.9216 26.9233 7.55411C25.8732 8.17092 25.0193 9.07291 24.4609 10.1554C23.8548 11.3418 23.5513 12.6597 23.5775 13.9918C23.5775 15.4536 23.8819 16.7419 24.4908 17.8566C25.0683 18.9421 25.944 19.8397 27.0148 20.4437C28.1528 21.0671 29.434 21.382 30.7313 21.3571C31.7845 21.3675 32.8327 21.2121 33.8374 20.8964C34.8137 20.5746 35.7154 20.0602 36.4891 19.3836L34.97 17.2067C34.3876 17.6722 33.7334 18.0398 33.0329 18.2952C32.3577 18.5476 31.6431 18.6785 30.9222 18.6817C30.2718 18.6883 29.6271 18.5592 29.0292 18.3031C28.4437 18.045 27.9368 17.6363 27.5606 17.1184C27.1383 16.5255 26.8675 15.8382 26.7719 15.1165ZM32.8578 10.25C33.4773 10.8537 33.8696 11.7013 34.0346 12.7929L26.7798 12.7961C26.9555 11.7318 27.3571 10.8905 27.9849 10.2721C28.6128 9.65373 29.4484 9.34455 30.4916 9.34455C31.4497 9.34455 32.2385 9.64637 32.8578 10.25Z" fill="white"/>
<path d="M20.2548 6.99108H23.4413L18.8114 20.9912H15.1548L11.6844 10.4221L8.22182 20.9912H4.63305L0 6.99108H3.25907L6.54653 17.6296L9.99648 6.99108H13.459L16.9532 17.6896L20.2548 6.99108Z" fill="white"/>
<path fill-rule="evenodd" clip-rule="evenodd" d="M58.4392 15.1166H68.7717C68.8107 14.6496 68.8316 14.2695 68.8348 13.976C68.8607 12.6514 68.5726 11.3394 67.994 10.1475C67.4736 9.08075 66.6634 8.18201 65.6562 7.55413C64.6199 6.92471 63.4262 6.6025 62.2141 6.62499C60.9428 6.60034 59.6889 6.92148 58.5859 7.55413C57.5353 8.17054 56.6814 9.07261 56.1235 10.1554C55.5168 11.3417 55.2128 12.6596 55.2385 13.9918C55.2385 15.4536 55.543 16.7419 56.1519 17.8566C56.7328 18.9437 57.6131 19.8414 58.6885 20.4437C59.8249 21.0668 61.1045 21.3817 62.4003 21.3571C63.4529 21.3675 64.5005 21.2121 65.5047 20.8964C66.482 20.5748 67.3848 20.0604 68.1596 19.3836L66.6389 17.2067C66.0573 17.6725 65.4035 18.0401 64.7034 18.2952C64.0276 18.5477 63.3125 18.6787 62.5911 18.6817C61.9407 18.6883 61.296 18.5594 60.6982 18.3031C60.1121 18.0448 59.6048 17.6361 59.228 17.1184C58.8055 16.5255 58.5348 15.8382 58.4392 15.1166ZM64.5267 10.25C65.144 10.8537 65.5363 11.7013 65.7035 12.7929L58.4392 12.7961C58.6138 11.7318 59.0155 10.8905 59.6444 10.2721C60.2733 9.65375 61.1088 9.34456 62.151 9.34456C63.1175 9.34456 63.9094 9.64638 64.5267 10.25Z" fill="white"/>
<path d="M79.587 20.9912H83.3429L78.0663 13.8153L83.2404 6.99108H79.6296L76.2112 11.6683L72.7912 6.99108H69.0352L74.2235 13.8452L68.9469 20.9912H72.5278L76.0345 16.1247L79.587 20.9912Z" fill="white"/>
<path d="M155.542 10.4998V12.1404H153.389V17.9167C153.389 18.3132 153.448 18.6117 153.567 18.8123C153.685 19.0082 153.838 19.1427 154.025 19.2156C154.216 19.2839 154.423 19.3181 154.647 19.3181C154.811 19.3181 154.954 19.3067 155.077 19.2839C155.2 19.2611 155.296 19.2429 155.365 19.2292L155.734 20.9177C155.615 20.9633 155.447 21.0089 155.228 21.0544C155.009 21.1046 154.736 21.1319 154.407 21.1365C153.87 21.1456 153.368 21.0499 152.904 20.8494C152.439 20.6488 152.063 20.3389 151.776 19.9197C151.489 19.5004 151.345 18.974 151.345 18.3406V12.1404H149.807V10.4998H151.345V7.98413H153.389V10.4998H155.542Z" fill="white"/>
<path d="M142.366 20.5212C143.1 20.9815 143.975 21.2117 144.991 21.2117C145.821 21.2117 146.543 21.059 147.158 20.7537C147.778 20.4483 148.273 20.0291 148.642 19.4958C149.011 18.9626 149.232 18.3565 149.305 17.6775H147.316C147.229 18.0557 147.076 18.3793 146.858 18.6482C146.643 18.9171 146.377 19.1244 146.058 19.2703C145.743 19.4115 145.393 19.4822 145.005 19.4822C144.426 19.4822 143.923 19.3295 143.494 19.0242C143.071 18.7188 142.742 18.2882 142.51 17.7322C142.278 17.1762 142.161 16.5154 142.161 15.7498C142.161 15.0024 142.28 14.3552 142.517 13.8083C142.754 13.2569 143.084 12.8331 143.508 12.5369C143.936 12.2361 144.435 12.0857 145.005 12.0857C145.657 12.0857 146.176 12.2634 146.564 12.6189C146.956 12.9744 147.206 13.3982 147.316 13.8904H149.305C149.232 13.184 149.002 12.5665 148.615 12.0378C148.232 11.5092 147.728 11.099 147.104 10.8074C146.479 10.5111 145.768 10.363 144.971 10.363C143.982 10.363 143.123 10.5932 142.394 11.0535C141.665 11.5138 141.1 12.1541 140.698 12.9744C140.297 13.7901 140.097 14.7312 140.097 15.7976C140.097 16.8503 140.293 17.7846 140.685 18.6003C141.077 19.4161 141.637 20.0564 142.366 20.5212Z" fill="white"/>
<path fill-rule="evenodd" clip-rule="evenodd" d="M133.515 21.2322C132.849 21.2322 132.248 21.1091 131.71 20.863C131.172 20.6124 130.746 20.2501 130.432 19.7761C130.122 19.3022 129.967 18.7211 129.967 18.033C129.967 17.4405 130.081 16.9529 130.309 16.5701C130.536 16.1873 130.844 15.8842 131.231 15.6609C131.619 15.4376 132.052 15.269 132.53 15.155C133.009 15.0411 133.496 14.9545 133.993 14.8953L135.524 14.7175C135.916 14.6674 136.201 14.5876 136.379 14.4783C136.557 14.3689 136.646 14.1912 136.646 13.9451V13.8972C136.646 13.3002 136.477 12.8376 136.14 12.5095C135.807 12.1814 135.31 12.0173 134.649 12.0173C133.961 12.0173 133.419 12.17 133.022 12.4753C132.631 12.7761 132.359 13.1111 132.209 13.4802L130.288 13.0427C130.516 12.4047 130.849 11.8897 131.286 11.4978C131.728 11.1013 132.236 10.8142 132.811 10.6365C133.385 10.4542 133.989 10.363 134.622 10.363C135.041 10.363 135.486 10.4132 135.955 10.5134C136.429 10.6091 136.871 10.7869 137.281 11.0466C137.696 11.3064 138.035 11.6778 138.3 12.1609C138.564 12.6394 138.696 13.2615 138.696 14.0271V20.9998H136.7V19.5642H136.618C136.486 19.8285 136.288 20.0883 136.023 20.3435C135.759 20.5987 135.42 20.8106 135.005 20.9792C134.59 21.1479 134.093 21.2322 133.515 21.2322ZM133.959 19.5916C134.524 19.5916 135.007 19.4799 135.408 19.2566C135.814 19.0333 136.121 18.7416 136.331 18.3816C136.545 18.017 136.652 17.6274 136.652 17.2126V15.8591C136.579 15.932 136.438 16.0004 136.229 16.0642C136.023 16.1235 135.789 16.1759 135.524 16.2214C135.26 16.2625 135.003 16.3012 134.752 16.3376C134.501 16.3695 134.292 16.3969 134.123 16.4197C133.727 16.4698 133.364 16.5541 133.036 16.6726C132.713 16.7911 132.453 16.962 132.257 17.1853C132.065 17.4041 131.97 17.6957 131.97 18.0603C131.97 18.5662 132.157 18.949 132.53 19.2087C132.904 19.4639 133.38 19.5916 133.959 19.5916Z" fill="white"/>
<path d="M124.015 10.4998V20.9998H126.059V14.5876C126.059 14.1319 126.168 13.7263 126.387 13.3709C126.606 13.0108 126.902 12.7306 127.276 12.53C127.654 12.325 128.085 12.2224 128.568 12.2224C128.778 12.2224 128.987 12.2384 129.197 12.2703C129.406 12.2976 129.552 12.3227 129.634 12.3455V10.3904C129.534 10.3767 129.395 10.3653 129.217 10.3562C129.044 10.3471 128.894 10.3425 128.766 10.3425C128.151 10.3425 127.599 10.5066 127.112 10.8347C126.629 11.1583 126.292 11.6026 126.1 12.1677H125.991V10.4998H124.015Z" fill="white"/>
<path fill-rule="evenodd" clip-rule="evenodd" d="M118.092 21.2117C117.058 21.2117 116.167 20.9906 115.419 20.5486C114.677 20.102 114.102 19.4753 113.697 18.6687C113.296 17.8575 113.095 16.9073 113.095 15.8181C113.095 14.7426 113.296 13.7947 113.697 12.9744C114.102 12.1541 114.667 11.5138 115.392 11.0535C116.121 10.5932 116.973 10.363 117.949 10.363C118.541 10.363 119.115 10.461 119.671 10.657C120.227 10.8529 120.726 11.1606 121.168 11.5798C121.611 11.9991 121.959 12.5437 122.214 13.2136C122.47 13.879 122.597 14.6879 122.597 15.6404V16.365H115.134C115.15 17.005 115.272 17.5542 115.501 18.0125C115.752 18.5046 116.101 18.8806 116.547 19.1404C116.994 19.3956 117.516 19.5232 118.113 19.5232C118.5 19.5232 118.853 19.4685 119.172 19.3591C119.491 19.2452 119.767 19.0766 120 18.8533C120.232 18.63 120.41 18.3542 120.533 18.0261L122.467 18.3748C122.312 18.9444 122.034 19.4434 121.633 19.8718C121.237 20.2957 120.738 20.6261 120.136 20.863C119.539 21.0955 118.858 21.2117 118.092 21.2117ZM120.594 14.8337H115.137C115.162 14.3824 115.274 13.9608 115.474 13.5691C115.707 13.1179 116.035 12.7533 116.458 12.4753C116.887 12.1928 117.388 12.0515 117.962 12.0515C118.491 12.0515 118.951 12.1723 119.343 12.4138C119.74 12.6554 120.047 12.9858 120.266 13.405C120.485 13.8197 120.594 14.296 120.594 14.8337Z" fill="white"/>
<path d="M112.269 12.1404V10.4998H110.115V7.98413H108.072V10.4998H106.533V12.1404H108.072V18.3406C108.072 18.974 108.215 19.5004 108.502 19.9197C108.789 20.3389 109.165 20.6488 109.63 20.8494C110.095 21.0499 110.596 21.1456 111.134 21.1365C111.462 21.1319 111.736 21.1046 111.954 21.0544C112.173 21.0089 112.342 20.9633 112.46 20.9177L112.091 19.2292C112.023 19.2429 111.927 19.2611 111.804 19.2839C111.681 19.3067 111.537 19.3181 111.373 19.3181C111.15 19.3181 110.943 19.2839 110.751 19.2156C110.564 19.1427 110.412 19.0082 110.293 18.8123C110.175 18.6117 110.115 18.3132 110.115 17.9167V12.1404H112.269Z" fill="white"/>
<path d="M98.7563 14.7654V20.9998H96.7124V10.4998H98.6743V12.2087H98.8042C99.0457 11.6528 99.424 11.2061 99.939 10.8689C100.458 10.5317 101.112 10.363 101.901 10.363C102.616 10.363 103.243 10.5134 103.781 10.8142C104.319 11.1104 104.736 11.5525 105.032 12.1404C105.328 12.7283 105.476 13.4552 105.476 14.321V20.9998H103.432V14.5671C103.432 13.8061 103.234 13.2113 102.837 12.783C102.441 12.35 101.896 12.1335 101.204 12.1335C100.73 12.1335 100.308 12.2361 99.939 12.4412C99.5744 12.6462 99.285 12.947 99.0708 13.3435C98.8612 13.7354 98.7563 14.2094 98.7563 14.7654Z" fill="white"/>
<path d="M94.6504 20.9998V6.99976H92.5381V20.9998H94.6504Z" fill="white"/>
</svg>
