<svg width="378" height="24" viewBox="0 0 378 24" fill="none" xmlns="http://www.w3.org/2000/svg">
<path d="M19.9476 6.21875H23.0852L18.5234 20.0077H14.924L11.5145 9.60233L8.10505 20.0077H4.56179L0 6.21875H3.21095L6.44779 16.6975L9.84432 6.21875H13.2538L16.7064 16.7536L19.9476 6.21875Z" fill="white"/>
<path d="M36.5418 14.2202H26.3651C26.4591 14.9312 26.7258 15.6084 27.142 16.1925C27.5107 16.7036 28.0101 17.106 28.5878 17.3578C29.1762 17.6119 29.8113 17.7398 30.4522 17.7332C31.1626 17.7305 31.8669 17.602 32.5324 17.3534C33.2224 17.1012 33.8667 16.7382 34.44 16.2788L35.9376 18.4367C35.1739 19.1026 34.2846 19.6088 33.3222 19.9257C32.3337 20.2359 31.3026 20.3888 30.2666 20.3788C28.9906 20.404 27.7303 20.0945 26.6111 19.4811C25.5525 18.8879 24.6855 18.0044 24.1123 16.9348C23.4957 15.7624 23.1868 14.4527 23.2146 13.1283C23.1882 11.8164 23.4846 10.5181 24.0778 9.34766C24.629 8.28307 25.4698 7.3959 26.5032 6.78839C27.5876 6.16435 28.8216 5.848 30.0724 5.87344C31.2528 5.84078 32.4175 6.14909 33.4271 6.76145C34.4367 7.3738 35.2484 8.26423 35.7649 9.32608C36.3352 10.5003 36.6191 11.7929 36.5936 13.0981C36.5979 13.3872 36.5806 13.7627 36.5418 14.2202ZM33.5207 11.9328C33.428 10.9878 33.0224 10.1008 32.3684 9.41239C32.0549 9.11855 31.6855 8.89072 31.2821 8.74244C30.8788 8.59416 30.4498 8.52846 30.0206 8.54923C29.5688 8.52855 29.1175 8.59889 28.6934 8.75607C28.2693 8.91324 27.8812 9.15405 27.552 9.46418C26.9002 10.1425 26.484 11.0126 26.3651 11.9458L33.5207 11.9328Z" fill="white"/>
<path d="M49.4162 6.7974C50.466 7.41838 51.3269 8.31358 51.9064 9.38687C52.5261 10.5308 52.8411 11.8149 52.8214 13.1157C52.8412 14.4152 52.5261 15.6979 51.9064 16.8402C51.3268 17.9185 50.4627 18.8172 49.4081 19.4389C48.3536 20.0605 47.1488 20.3812 45.9247 20.3662C45.0657 20.3842 44.2139 20.2056 43.4345 19.844C42.7202 19.4996 42.0954 18.9944 41.6089 18.368V20.008H38.5879V0.349609H41.6089V7.85908C42.0974 7.23697 42.7219 6.73501 43.4345 6.39171C44.2129 6.02657 45.0652 5.84637 45.9247 5.86519C47.152 5.85017 48.3598 6.17265 49.4162 6.7974ZM47.7676 16.9438C48.3942 16.5586 48.8986 16.0033 49.222 15.3427C49.554 14.6464 49.7263 13.8849 49.7263 13.1136C49.7263 12.3422 49.554 11.5807 49.222 10.8845C48.8972 10.2247 48.3932 9.66981 47.7676 9.28329C47.1026 8.90289 46.3499 8.70278 45.5838 8.70278C44.8177 8.70278 44.0649 8.90289 43.4 9.28329C42.7728 9.66416 42.2645 10.2128 41.9326 10.8672C41.5737 11.5662 41.3928 12.343 41.4061 13.1287C41.3924 13.913 41.5733 14.6885 41.9326 15.3858C42.2645 16.0402 42.7728 16.5889 43.4 16.9697C44.0649 17.3501 44.8177 17.5502 45.5838 17.5502C46.3499 17.5502 47.1026 17.3501 47.7676 16.9697V16.9438Z" fill="white"/>
<path d="M67.7272 14.2202H57.5549C57.6488 14.9312 57.9155 15.6084 58.3317 16.1925C58.7004 16.7036 59.1998 17.1061 59.7775 17.3578C60.3659 17.6119 61.001 17.7398 61.6419 17.7333C62.3523 17.7299 63.0565 17.6014 63.7221 17.3535C64.4121 17.1012 65.0564 16.7382 65.6297 16.2788L67.123 18.4367C66.3615 19.1035 65.4735 19.6099 64.5119 19.9257C63.5219 20.2357 62.4894 20.3886 61.452 20.3788C60.1762 20.4026 58.9163 20.0932 57.7966 19.4812C56.7401 18.8865 55.8749 18.0033 55.302 16.9348C54.6841 15.7628 54.3737 14.453 54.4 13.1283C54.3738 11.8164 54.6702 10.5182 55.2632 9.34769C55.8144 8.2831 56.6552 7.39593 57.6887 6.78842C58.7792 6.15527 60.023 5.83427 61.2837 5.86053C62.4638 5.82948 63.6279 6.13846 64.6372 6.75063C65.6465 7.3628 66.4585 8.25233 66.9763 9.31316C67.5465 10.4874 67.8304 11.78 67.8049 13.0852C67.7876 13.3873 67.7574 13.7627 67.7272 14.2202ZM64.7061 11.9328C64.6066 10.9939 64.2 10.114 63.5495 9.42969C63.2381 9.13422 62.8707 8.90409 62.469 8.75288C62.0672 8.60167 61.6393 8.53244 61.2104 8.54927C60.7585 8.52809 60.307 8.5982 59.8829 8.7554C59.4587 8.9126 59.0706 9.15367 58.7417 9.46421C58.0884 10.1414 57.672 11.0121 57.5549 11.9458L64.7061 11.9328Z" fill="white"/>
<path d="M82.0773 20.0077H78.3787L74.8829 15.2129L71.4303 20.0077H67.9043L73.0832 12.9686L67.9863 6.21875H71.6892L75.0556 10.8237L78.4219 6.21875H81.9997L76.8811 12.9427L82.0773 20.0077Z" fill="white"/>
<path d="M94.4628 6.26653C95.8965 6.16135 97.3219 6.56045 98.4925 7.39483C98.9661 7.80765 99.3379 8.32427 99.5791 8.90441C99.8202 9.48455 99.9241 10.1125 99.8827 10.7394C99.9193 11.3476 99.8146 11.956 99.5769 12.517C99.3392 13.078 98.975 13.5764 98.5126 13.9732C97.3194 14.817 95.8699 15.2195 94.4125 15.1116H91.9443V20.0177H90V6.26653H94.4628ZM91.9443 7.84817V13.5199H94.4225C95.3538 13.6114 96.2862 13.3568 97.0418 12.8046C97.3071 12.5429 97.5142 12.2282 97.6496 11.881C97.785 11.5339 97.8457 11.162 97.8276 10.7898C97.8609 10.3828 97.8012 9.97344 97.6528 9.59293C97.5044 9.21241 97.2714 8.87068 96.9713 8.59365C96.2704 8.04507 95.391 7.77586 94.5031 7.83809L91.9443 7.84817Z" fill="white"/>
<path d="M100.81 12.8548C100.848 12.4103 100.983 11.9793 101.203 11.5915C101.424 11.2037 101.726 10.8683 102.089 10.6083C102.978 10.0065 104.04 9.71277 105.111 9.77217C105.695 9.76338 106.276 9.84494 106.834 10.0139C107.3 10.1623 107.731 10.402 108.103 10.7191C108.445 11.0212 108.713 11.3966 108.889 11.8172C109.076 12.2566 109.168 12.7301 109.161 13.2074V19.9873H107.65L107.378 18.6676C107.028 19.1416 106.582 19.5363 106.068 19.8261C105.453 20.167 104.757 20.3342 104.054 20.3097C103.558 20.3194 103.064 20.2444 102.593 20.088C102.199 19.9546 101.834 19.7497 101.515 19.4836C101.229 19.2359 100.999 18.9303 100.84 18.587C100.687 18.2307 100.612 17.8462 100.618 17.4587C100.599 17.0573 100.668 16.6566 100.819 16.2843C100.971 15.912 101.201 15.5771 101.495 15.3028C102.332 14.6634 103.329 14.2662 104.376 14.1544L107.287 13.6608V13.1571C107.301 12.8923 107.255 12.6279 107.152 12.3836C107.049 12.1393 106.892 11.9215 106.693 11.7467C106.202 11.3862 105.598 11.2113 104.99 11.2531C104.424 11.211 103.86 11.36 103.389 11.6762C103.21 11.8203 103.061 11.9989 102.952 12.2013C102.843 12.4038 102.776 12.626 102.754 12.8548H100.81ZM104.497 18.7583C105.194 18.7529 105.869 18.5114 106.411 18.0732C106.665 17.8606 106.88 17.6049 107.046 17.3177C107.208 17.0286 107.291 16.7021 107.287 16.3707V15.0913L104.819 15.5346C104.445 15.5868 104.077 15.678 103.721 15.8066C103.472 15.8918 103.24 16.0215 103.036 16.1894C102.88 16.3206 102.756 16.486 102.673 16.6729C102.6 16.8625 102.562 17.064 102.563 17.2673C102.551 17.4779 102.59 17.6883 102.676 17.8809C102.762 18.0736 102.892 18.2431 103.056 18.3754C103.481 18.6597 103.987 18.7944 104.497 18.7583Z" fill="white"/>
<path d="M111.155 20.017V10.0839H112.666L112.908 11.5547C113.102 11.0406 113.448 10.5977 113.9 10.2846C114.351 9.97157 114.887 9.8032 115.437 9.80183C115.648 9.78481 115.86 9.78481 116.071 9.80183L116.525 9.8925V11.726C116.343 11.6751 116.158 11.6347 115.971 11.6051C115.766 11.5842 115.56 11.5842 115.356 11.6051C115.045 11.6048 114.737 11.6665 114.449 11.7864C114.153 11.9207 113.894 12.1246 113.694 12.3808C113.458 12.7016 113.283 13.0638 113.18 13.4487C113.04 13.9673 112.976 14.5034 112.989 15.0404V20.027L111.155 20.017Z" fill="white"/>
<path d="M122.784 20.1186C122.343 20.2387 121.89 20.303 121.434 20.31C121.063 20.34 120.69 20.2879 120.342 20.1573C119.994 20.0267 119.679 19.8209 119.419 19.5545C118.952 18.9904 118.714 18.271 118.754 17.5397V11.6161H117.283V10.0848H118.754L118.865 7.69727H120.588V10.0848H122.723V11.6161H120.588V17.5497C120.588 18.2952 120.94 18.668 121.595 18.668C121.756 18.6786 121.917 18.6786 122.078 18.668C122.296 18.636 122.511 18.5923 122.723 18.537L122.784 20.1186Z" fill="white"/>
<path d="M123.933 20.0172V10.0841H125.444L125.655 11.3434C126.001 10.8538 126.461 10.4561 126.995 10.1848C127.516 9.93033 128.088 9.79933 128.667 9.80202C129.139 9.77633 129.611 9.84705 130.054 10.0099C130.498 10.1727 130.903 10.4242 131.246 10.749C131.58 11.1291 131.835 11.5712 131.998 12.05C132.16 12.5288 132.227 13.035 132.193 13.5395V20.0172H130.35V13.5597C130.374 13.2604 130.338 12.9593 130.245 12.674C130.151 12.3886 130.002 12.1247 129.806 11.8974C129.592 11.7095 129.343 11.5656 129.073 11.474C128.804 11.3823 128.518 11.3448 128.234 11.3635C127.911 11.3639 127.59 11.4218 127.287 11.5348C126.996 11.647 126.729 11.8147 126.502 12.0284C126.273 12.2561 126.092 12.5265 125.968 12.8242C125.83 13.1598 125.762 13.5195 125.766 13.882V20.0172H123.933Z" fill="white"/>
<path d="M142.942 17.1563C142.824 17.6057 142.629 18.0316 142.368 18.4156C142.115 18.8026 141.799 19.1434 141.431 19.423C141.032 19.7045 140.595 19.9252 140.131 20.0778C139.6 20.2448 139.046 20.3264 138.489 20.3196C137.824 20.3249 137.163 20.2159 136.535 19.9972C135.952 19.7817 135.425 19.4373 134.993 18.9898C134.545 18.5203 134.201 17.9605 133.986 17.3477C133.731 16.606 133.608 15.8251 133.623 15.0407C133.609 14.2631 133.732 13.4891 133.986 12.7539C134.208 12.1444 134.551 11.5859 134.993 11.1118C135.416 10.6683 135.933 10.3243 136.505 10.1044C137.117 9.87838 137.766 9.76572 138.419 9.77199C139.063 9.76322 139.705 9.86896 140.313 10.0843C140.878 10.2944 141.383 10.6403 141.783 11.0917C142.235 11.6049 142.578 12.2047 142.791 12.8547C143.033 13.6924 143.149 14.5617 143.133 15.4336H135.568C135.567 16.3714 135.928 17.2734 136.575 17.9522C137.147 18.4726 137.897 18.7538 138.671 18.7379C139.226 18.7542 139.772 18.5956 140.232 18.2846C140.632 18.0044 140.929 17.6011 141.078 17.1362L142.942 17.1563ZM138.439 11.273C137.748 11.2525 137.075 11.4936 136.555 11.948C135.994 12.4809 135.637 13.1939 135.548 13.9628H141.169C141.159 13.2049 140.851 12.4814 140.313 11.948C139.794 11.4968 139.126 11.256 138.439 11.273Z" fill="white"/>
<path d="M144.685 20.017V10.0839H146.196L146.437 11.5547C146.632 11.0406 146.977 10.5977 147.429 10.2846C147.88 9.97157 148.417 9.8032 148.966 9.80183C149.177 9.78481 149.39 9.78481 149.601 9.80183L150.054 9.8925V11.726C149.872 11.6751 149.687 11.6347 149.5 11.6051C149.296 11.5842 149.09 11.5842 148.885 11.6051C148.574 11.6048 148.266 11.6665 147.979 11.7864C147.683 11.9207 147.423 12.1246 147.223 12.3808C146.987 12.7016 146.813 13.0638 146.709 13.4487C146.57 13.9673 146.505 14.5034 146.518 15.0404V20.027L144.685 20.017Z" fill="white"/>
<path d="M166.808 6.26562V20.0168H164.844V13.8816H158.114V20.0168H156.17V6.26562H158.114V12.2396H164.844V6.26562H166.808Z" fill="white"/>
<path d="M170.746 10.084V16.6523C170.721 16.9455 170.756 17.2408 170.849 17.5198C170.943 17.7988 171.093 18.0556 171.29 18.2742C171.71 18.6378 172.257 18.8222 172.811 18.788C173.186 18.7999 173.559 18.724 173.899 18.5664C174.188 18.4336 174.445 18.2414 174.655 18.0022C174.854 17.7564 175.008 17.4766 175.108 17.1761C175.212 16.8505 175.263 16.5104 175.259 16.1687V10.1243H177.093V20.0573H175.622L175.41 18.919C175.076 19.3835 174.629 19.7546 174.111 19.9969C173.582 20.2341 173.008 20.3543 172.428 20.3495C171.952 20.3528 171.478 20.2745 171.028 20.1178C170.615 19.9763 170.239 19.742 169.93 19.4327C169.607 19.1016 169.363 18.7023 169.215 18.2642C169.032 17.7294 168.943 17.167 168.953 16.6019V10.084H170.746Z" fill="white"/>
<path d="M179.188 20.0168V6.26562H181.032V11.4639C181.371 10.9652 181.823 10.5543 182.352 10.265C182.972 9.93798 183.666 9.77826 184.367 9.80163C184.978 9.79355 185.585 9.91009 186.15 10.1442C186.684 10.3646 187.157 10.7101 187.53 11.1516C187.932 11.6283 188.237 12.1794 188.426 12.7735C188.648 13.4909 188.753 14.2391 188.739 14.9898C188.753 15.765 188.64 16.5374 188.406 17.2766C188.214 17.8902 187.895 18.4564 187.469 18.9388C187.072 19.3754 186.584 19.7193 186.039 19.9462C185.464 20.1838 184.847 20.3037 184.226 20.2988C183.597 20.322 182.973 20.1876 182.41 19.9078C181.847 19.6281 181.363 19.2118 181.002 18.6971L180.71 20.0067L179.188 20.0168ZM186.815 14.9797C186.826 14.4407 186.752 13.9033 186.593 13.388C186.47 12.9779 186.264 12.5973 185.988 12.2698C185.736 11.9851 185.423 11.7612 185.072 11.615C184.709 11.4717 184.323 11.3999 183.933 11.4034C183.536 11.4037 183.142 11.4824 182.775 11.6351C182.412 11.7853 182.085 12.0121 181.818 12.3C181.529 12.6246 181.309 13.0053 181.173 13.4182C181.004 13.9212 180.923 14.4493 180.931 14.9797C180.867 15.9847 181.159 16.9802 181.757 17.7904C182.017 18.1152 182.349 18.3752 182.727 18.55C183.104 18.7248 183.517 18.8096 183.933 18.7978C184.329 18.8127 184.723 18.7379 185.086 18.5792C185.449 18.4205 185.771 18.1818 186.029 17.8811C186.636 17.0267 186.914 15.9825 186.815 14.9394V14.9797Z" fill="white"/>
</svg>
