<svg width="193" height="28" viewBox="0 0 193 28" fill="none" xmlns="http://www.w3.org/2000/svg">
<path fill-rule="evenodd" clip-rule="evenodd" d="M50.1753 7.57632C51.2395 8.20788 52.112 9.11685 52.6993 10.206C53.309 11.3748 53.6273 12.6736 53.6273 13.9919C53.6273 15.3102 53.309 16.609 52.6993 17.7778C52.1098 18.8713 51.2324 19.783 50.1624 20.4141C49.0922 21.0453 47.87 21.3718 46.6276 21.3587C45.7567 21.3756 44.8935 21.1932 44.1036 20.8255C43.3788 20.4737 42.7438 19.9612 42.2469 19.3269V20.9927H39.1929V1.02979H42.2469V8.65689C42.7434 8.0226 43.3786 7.51049 44.1036 7.15986C44.893 6.79086 45.7565 6.60792 46.6276 6.6251C47.8751 6.61092 49.1023 6.93999 50.1753 7.57632ZM48.5032 17.8788C49.1378 17.4881 49.6491 16.9258 49.9782 16.2572C50.3157 15.5497 50.4908 14.7758 50.4908 13.9919C50.4908 13.2081 50.3157 12.4341 49.9782 11.7267C49.6491 11.0575 49.1378 10.4949 48.5032 10.1034C47.8298 9.71319 47.0657 9.50647 46.2872 9.504C45.5089 9.5015 44.7435 9.70331 44.0673 10.0892C43.431 10.4764 42.9148 11.033 42.5766 11.6967C42.2261 12.4108 42.0438 13.1956 42.0438 13.9911C42.0438 14.7866 42.2261 15.5715 42.5766 16.2856C42.9148 16.9493 43.431 17.5059 44.0673 17.893C44.7435 18.279 45.5089 18.4808 46.2872 18.4782C47.0657 18.4757 47.8298 18.2691 48.5032 17.8788Z" fill="white"/>
<path fill-rule="evenodd" clip-rule="evenodd" d="M26.7719 15.1165H37.1107C37.1454 14.6496 37.1627 14.2694 37.1627 13.976C37.1887 12.6514 36.9005 11.3394 36.3219 10.1475C35.8042 9.08196 34.9973 8.18336 33.9936 7.55411C32.9572 6.92509 31.7636 6.60292 30.5515 6.62498C29.2804 6.60048 28.0263 6.9216 26.9233 7.55411C25.8732 8.17092 25.0193 9.07291 24.4609 10.1554C23.8548 11.3418 23.5513 12.6597 23.5775 13.9918C23.5775 15.4536 23.8819 16.7419 24.4908 17.8566C25.0683 18.9421 25.944 19.8397 27.0148 20.4437C28.1528 21.0671 29.434 21.382 30.7313 21.3571C31.7845 21.3675 32.8327 21.2121 33.8374 20.8964C34.8137 20.5746 35.7154 20.0602 36.4891 19.3836L34.97 17.2067C34.3876 17.6722 33.7334 18.0398 33.0329 18.2952C32.3577 18.5476 31.6431 18.6785 30.9222 18.6817C30.2718 18.6883 29.6271 18.5592 29.0292 18.3031C28.4437 18.045 27.9368 17.6363 27.5606 17.1184C27.1383 16.5255 26.8675 15.8382 26.7719 15.1165ZM32.8578 10.25C33.4773 10.8537 33.8696 11.7013 34.0346 12.7929L26.7798 12.7961C26.9555 11.7318 27.3571 10.8905 27.9849 10.2721C28.6128 9.65373 29.4484 9.34455 30.4916 9.34455C31.4497 9.34455 32.2385 9.64637 32.8578 10.25Z" fill="white"/>
<path d="M20.2548 6.99108H23.4413L18.8114 20.9912H15.1548L11.6844 10.4221L8.22182 20.9912H4.63305L0 6.99108H3.25907L6.54653 17.6296L9.99648 6.99108H13.459L16.9532 17.6896L20.2548 6.99108Z" fill="white"/>
<path fill-rule="evenodd" clip-rule="evenodd" d="M58.4392 15.1166H68.7717C68.8107 14.6496 68.8316 14.2695 68.8348 13.976C68.8607 12.6514 68.5726 11.3394 67.994 10.1475C67.4736 9.08075 66.6634 8.18201 65.6562 7.55413C64.6199 6.92471 63.4262 6.6025 62.2141 6.62499C60.9428 6.60034 59.6889 6.92148 58.5859 7.55413C57.5353 8.17054 56.6814 9.07261 56.1235 10.1554C55.5168 11.3417 55.2128 12.6596 55.2385 13.9918C55.2385 15.4536 55.543 16.7419 56.1519 17.8566C56.7328 18.9437 57.6131 19.8414 58.6885 20.4437C59.8249 21.0668 61.1045 21.3817 62.4003 21.3571C63.4529 21.3675 64.5005 21.2121 65.5047 20.8964C66.482 20.5748 67.3848 20.0604 68.1596 19.3836L66.6389 17.2067C66.0573 17.6725 65.4035 18.0401 64.7034 18.2952C64.0276 18.5477 63.3125 18.6787 62.5911 18.6817C61.9407 18.6883 61.296 18.5594 60.6982 18.3031C60.1121 18.0448 59.6048 17.6361 59.228 17.1184C58.8055 16.5255 58.5348 15.8382 58.4392 15.1166ZM64.5267 10.25C65.144 10.8537 65.5363 11.7013 65.7035 12.7929L58.4392 12.7961C58.6138 11.7318 59.0155 10.8905 59.6444 10.2721C60.2733 9.65375 61.1088 9.34456 62.151 9.34456C63.1175 9.34456 63.9094 9.64638 64.5267 10.25Z" fill="white"/>
<path d="M79.587 20.9912H83.3429L78.0663 13.8153L83.2404 6.99108H79.6296L76.2112 11.6683L72.7912 6.99108H69.0352L74.2235 13.8452L68.9469 20.9912H72.5278L76.0345 16.1247L79.587 20.9912Z" fill="white"/>
<path fill-rule="evenodd" clip-rule="evenodd" d="M184.69 20.9998H182.694V6.99976H184.738V12.2019H184.861C184.98 11.9832 185.151 11.7302 185.374 11.4431C185.597 11.156 185.907 10.9054 186.304 10.6912C186.7 10.4724 187.224 10.363 187.876 10.363C188.724 10.363 189.48 10.5772 190.146 11.0056C190.811 11.434 191.333 12.0515 191.711 12.8582C192.094 13.6648 192.285 14.6355 192.285 15.7703C192.285 16.905 192.096 17.878 191.718 18.6892C191.34 19.4958 190.82 20.1179 190.159 20.5554C189.498 20.9884 188.744 21.2048 187.896 21.2048C187.258 21.2048 186.737 21.0977 186.331 20.8835C185.93 20.6694 185.616 20.4187 185.388 20.1316C185.16 19.8445 184.984 19.5893 184.861 19.366H184.69V20.9998ZM184.697 15.7498C184.697 16.488 184.804 17.1352 185.019 17.6912C185.233 18.2472 185.543 18.6824 185.948 18.9968C186.354 19.3067 186.851 19.4617 187.438 19.4617C188.049 19.4617 188.56 19.2999 188.97 18.9763C189.38 18.6482 189.69 18.2039 189.899 17.6433C190.114 17.0828 190.221 16.4516 190.221 15.7498C190.221 15.057 190.116 14.435 189.906 13.8835C189.701 13.3321 189.391 12.8969 188.977 12.5779C188.566 12.2589 188.054 12.0994 187.438 12.0994C186.846 12.0994 186.345 12.252 185.935 12.5574C185.529 12.8627 185.221 13.2888 185.012 13.8357C184.802 14.3826 184.697 15.0206 184.697 15.7498Z" fill="white"/>
<path d="M178.583 10.4998V16.6453C178.588 17.2423 178.462 17.7345 178.207 18.1218C177.957 18.5092 177.64 18.7986 177.257 18.99C176.879 19.1814 176.498 19.2771 176.115 19.2771C175.482 19.2771 174.967 19.0652 174.571 18.6414C174.174 18.2175 173.976 17.6479 173.976 16.9324V10.4998H171.932V17.1785C171.932 18.0444 172.078 18.7712 172.369 19.3591C172.666 19.947 173.071 20.3914 173.586 20.6921C174.106 20.9884 174.703 21.1365 175.377 21.1365C176.166 21.1365 176.824 20.9519 177.353 20.5828C177.886 20.2091 178.273 19.7419 178.515 19.1814H178.624V20.9998H180.634V10.4998H178.583Z" fill="white"/>
<path d="M158.659 20.9998V6.99976H160.771V13.0837H167.75V6.99976H169.87V20.9998H167.75V14.8953H160.771V20.9998H158.659Z" fill="white"/>
<path d="M152.35 20.9998V6.99976H150.306V20.9998H152.35Z" fill="white"/>
<path fill-rule="evenodd" clip-rule="evenodd" d="M143.98 21.2117C142.996 21.2117 142.137 20.9861 141.403 20.5349C140.67 20.0837 140.1 19.4526 139.694 18.6414C139.289 17.8302 139.086 16.8822 139.086 15.7976C139.086 14.7084 139.289 13.7559 139.694 12.9402C140.1 12.1244 140.67 11.491 141.403 11.0398C142.137 10.5886 142.996 10.363 143.98 10.363C144.965 10.363 145.824 10.5886 146.558 11.0398C147.291 11.491 147.861 12.1244 148.267 12.9402C148.672 13.7559 148.875 14.7084 148.875 15.7976C148.875 16.8822 148.672 17.8302 148.267 18.6414C147.861 19.4526 147.291 20.0837 146.558 20.5349C145.824 20.9861 144.965 21.2117 143.98 21.2117ZM143.987 19.4958C144.625 19.4958 145.154 19.3272 145.573 18.99C145.993 18.6528 146.302 18.2039 146.503 17.6433C146.708 17.0828 146.811 16.4653 146.811 15.7908C146.811 15.1208 146.708 14.5056 146.503 13.9451C146.302 13.38 145.993 12.9265 145.573 12.5847C145.154 12.2429 144.625 12.072 143.987 12.072C143.345 12.072 142.812 12.2429 142.388 12.5847C141.968 12.9265 141.656 13.38 141.451 13.9451C141.251 14.5056 141.15 15.1208 141.15 15.7908C141.15 16.4653 141.251 17.0828 141.451 17.6433C141.656 18.2039 141.968 18.6528 142.388 18.99C142.812 19.3272 143.345 19.4958 143.987 19.4958Z" fill="white"/>
<path d="M133.396 10.4998V20.9998H135.44V14.5876C135.44 14.1319 135.549 13.7263 135.768 13.3709C135.987 13.0108 136.283 12.7306 136.656 12.53C137.035 12.325 137.465 12.2224 137.948 12.2224C138.158 12.2224 138.368 12.2384 138.577 12.2703C138.787 12.2976 138.933 12.3227 139.015 12.3455V10.3904C138.915 10.3767 138.776 10.3653 138.598 10.3562C138.425 10.3471 138.274 10.3425 138.147 10.3425C137.531 10.3425 136.98 10.5066 136.492 10.8347C136.009 11.1583 135.672 11.6026 135.481 12.1677H135.371V10.4998H133.396Z" fill="white"/>
<path d="M131.985 10.4998V12.1404H129.831V17.9167C129.831 18.3132 129.891 18.6117 130.009 18.8123C130.128 19.0082 130.28 19.1427 130.467 19.2156C130.658 19.2839 130.866 19.3181 131.089 19.3181C131.253 19.3181 131.397 19.3067 131.52 19.2839C131.643 19.2611 131.739 19.2429 131.807 19.2292L132.176 20.9177C132.058 20.9633 131.889 21.0089 131.67 21.0544C131.451 21.1046 131.178 21.1319 130.85 21.1365C130.312 21.1456 129.811 21.0499 129.346 20.8494C128.881 20.6488 128.505 20.3389 128.218 19.9197C127.931 19.5004 127.787 18.974 127.787 18.3406V12.1404H126.249V10.4998H127.787V7.98413H129.831V10.4998H131.985Z" fill="white"/>
<path d="M118.472 20.9998V14.7654C118.472 14.2094 118.577 13.7354 118.787 13.3435C119.001 12.947 119.29 12.6462 119.655 12.4412C120.024 12.2361 120.446 12.1335 120.92 12.1335C121.612 12.1335 122.157 12.35 122.553 12.783C122.95 13.2113 123.148 13.8061 123.148 14.5671V20.9998H125.192V14.321C125.192 13.4552 125.044 12.7283 124.748 12.1404C124.452 11.5525 124.035 11.1104 123.497 10.8142C122.959 10.5134 122.332 10.363 121.617 10.363C120.829 10.363 120.175 10.5317 119.655 10.8689C119.14 11.2061 118.762 11.6528 118.52 12.2087H118.39V10.4998H116.428V20.9998H118.472Z" fill="white"/>
<path fill-rule="evenodd" clip-rule="evenodd" d="M110.102 21.2117C109.118 21.2117 108.259 20.9861 107.525 20.5349C106.791 20.0837 106.222 19.4526 105.816 18.6414C105.411 17.8302 105.208 16.8822 105.208 15.7976C105.208 14.7084 105.411 13.7559 105.816 12.9402C106.222 12.1244 106.791 11.491 107.525 11.0398C108.259 10.5886 109.118 10.363 110.102 10.363C111.087 10.363 111.946 10.5886 112.679 11.0398C113.413 11.491 113.983 12.1244 114.388 12.9402C114.794 13.7559 114.997 14.7084 114.997 15.7976C114.997 16.8822 114.794 17.8302 114.388 18.6414C113.983 19.4526 113.413 20.0837 112.679 20.5349C111.946 20.9861 111.087 21.2117 110.102 21.2117ZM110.109 19.4958C110.747 19.4958 111.276 19.3272 111.695 18.99C112.114 18.6528 112.424 18.2039 112.625 17.6433C112.83 17.0828 112.932 16.4653 112.932 15.7908C112.932 15.1208 112.83 14.5056 112.625 13.9451C112.424 13.38 112.114 12.9265 111.695 12.5847C111.276 12.2429 110.747 12.072 110.109 12.072C109.467 12.072 108.933 12.2429 108.51 12.5847C108.09 12.9265 107.778 13.38 107.573 13.9451C107.372 14.5056 107.272 15.1208 107.272 15.7908C107.272 16.4653 107.372 17.0828 107.573 17.6433C107.778 18.2039 108.09 18.6528 108.51 18.99C108.933 19.3272 109.467 19.4958 110.109 19.4958Z" fill="white"/>
<path d="M102.033 11.5525H104.166C104.048 10.8005 103.82 10.1329 103.482 9.54956C103.145 8.96167 102.719 8.46493 102.204 8.05933C101.689 7.64917 101.108 7.33927 100.461 7.12964C99.8184 6.91545 99.1256 6.80835 98.3828 6.80835C97.1751 6.80835 96.0973 7.09774 95.1494 7.67651C94.2015 8.25073 93.4541 9.0756 92.9072 10.1511C92.3604 11.2221 92.0869 12.505 92.0869 13.9998C92.0869 15.49 92.3581 16.7729 92.9004 17.8484C93.4473 18.9239 94.1947 19.7511 95.1426 20.3298C96.0905 20.9041 97.1706 21.1912 98.3828 21.1912C99.153 21.1912 99.8639 21.0772 100.516 20.8494C101.167 20.6215 101.746 20.3002 102.252 19.8855C102.762 19.4662 103.179 18.9695 103.503 18.3953C103.831 17.8165 104.052 17.183 104.166 16.4949L102.033 16.488C101.947 16.9347 101.789 17.3311 101.562 17.6775C101.338 18.0193 101.065 18.3087 100.741 18.5457C100.418 18.7826 100.055 18.9626 99.6543 19.0857C99.2578 19.2042 98.8385 19.2634 98.3965 19.2634C97.599 19.2634 96.8812 19.0629 96.2432 18.6619C95.6051 18.2608 95.1016 17.6684 94.7324 16.8845C94.3678 16.1007 94.1855 15.1391 94.1855 13.9998C94.1855 12.8695 94.3678 11.9125 94.7324 11.1287C95.1016 10.3448 95.6029 9.75008 96.2363 9.34448C96.8744 8.93888 97.5967 8.73608 98.4033 8.73608C98.8499 8.73608 99.2715 8.79761 99.668 8.92065C100.069 9.0437 100.431 9.22599 100.755 9.46753C101.078 9.70907 101.352 10.003 101.575 10.3494C101.799 10.6957 101.951 11.0968 102.033 11.5525Z" fill="white"/>
</svg>
