<svg width="507" height="175" viewBox="0 0 507 175" fill="none" xmlns="http://www.w3.org/2000/svg">
<path d="M231.353 121.399H222.106L220.084 114.945C216.165 120.211 210.802 122.844 203.997 122.844C196.868 122.844 191.249 120.275 187.14 115.138C183.415 110.45 181.552 104.317 181.553 96.7396C181.553 87.6208 183.961 80.6531 188.777 75.8367C192.759 71.8552 197.928 69.8644 204.286 69.8644C210.9 69.8644 216.07 72.2405 219.795 76.9928V52.0441H231.353V121.399ZM193.401 96.8346C193.401 102.743 194.814 107.142 197.639 110.031C199.951 112.472 202.969 113.692 206.694 113.692C211.253 113.692 214.721 112.022 217.097 108.683C219.217 105.729 220.276 101.747 220.276 96.7384C220.276 90.4458 218.799 85.758 215.845 82.675C213.533 80.2341 210.483 79.0139 206.694 79.0143C202.263 79.0143 198.891 80.684 196.579 84.0234C194.461 87.0423 193.401 91.3131 193.401 96.8357V96.8346ZM272.884 106.949H285.019C283.671 112.086 280.877 116.068 276.639 118.894C272.593 121.526 267.616 122.843 261.708 122.843C253.553 122.843 247.195 120.274 242.636 115.137C238.461 110.449 236.374 104.188 236.374 96.3532C236.374 87.3638 238.975 80.4925 244.177 75.7394C248.543 71.8219 254.227 69.8632 261.226 69.8632C269.382 69.8632 275.547 72.5282 279.721 77.8582C283.639 82.8032 285.597 89.8671 285.597 99.0501H248.128C248.578 104.444 250.247 108.393 253.137 110.899C255.449 112.953 258.467 113.98 262.191 113.98C264.824 113.98 267.104 113.338 269.031 112.054C270.958 110.769 272.242 109.068 272.884 106.95V106.949ZM273.751 91.1513C273.494 86.4634 272.081 83.0279 269.513 80.8446C267.393 78.9823 264.631 78.0511 261.228 78.0511C257.503 78.0511 254.517 79.2713 252.27 81.7117C250.215 83.895 248.898 87.0413 248.321 91.1507L273.751 91.1513ZM299.941 107.142C300.84 111.958 304.468 114.366 310.826 114.366C314.358 114.366 317.024 113.692 318.821 112.343C320.298 111.187 321.037 109.678 321.036 107.816C321.036 105.44 319.752 103.674 317.183 102.518C315.707 101.876 312.464 100.977 307.454 99.821C301.289 98.4081 296.89 96.4814 294.257 94.041C291.625 91.6654 290.309 88.5509 290.308 84.6976C290.308 79.8171 292.299 76.0603 296.281 73.4271C299.812 71.0508 304.661 69.8628 310.826 69.8632C317.183 69.8632 322.288 71.3723 326.141 74.3904C329.481 76.9594 331.568 80.4272 332.402 84.7937H320.651C319.688 80.4913 316.349 78.3401 310.633 78.3401C304.854 78.3401 301.964 80.1061 301.963 83.6382C301.963 85.4361 302.702 86.7845 304.179 87.6835C305.657 88.5824 308.643 89.5779 313.138 90.6699C320.073 92.2751 324.89 94.073 327.587 96.0636C330.99 98.5682 332.692 102.1 332.692 106.659C332.692 111.861 330.573 115.939 326.334 118.893C322.482 121.526 317.28 122.842 310.729 122.842C303.859 122.842 298.367 121.205 294.255 117.93C290.787 115.168 288.765 111.573 288.186 107.142L299.941 107.142ZM350.832 63.6992H338.117V52.0435H350.832V63.6992ZM350.254 121.399H338.695V71.309H350.254V121.399ZM358.061 124.674H370.197C371.416 129.298 375.237 131.61 381.659 131.609C389.945 131.609 394.088 127.66 394.088 119.761V114.174C390.299 118.027 385.162 119.954 378.676 119.954C371.869 119.954 366.346 117.545 362.108 112.729C358.19 108.234 356.231 102.423 356.232 95.2938C356.232 86.8817 358.64 80.3637 363.456 75.74C367.502 71.8225 372.704 69.8638 379.061 69.8638C385.74 69.8638 390.941 72.304 394.666 77.1845L396.496 71.309H405.647V119.667C405.647 126.281 403.271 131.451 398.52 135.175C394.28 138.515 388.693 140.185 381.759 140.185C374.308 140.185 368.496 138.611 364.323 135.464C360.919 132.831 358.831 129.234 358.061 124.674V124.674ZM368.08 95.3906C368.08 100.592 369.525 104.606 372.414 107.431C374.79 109.678 377.777 110.802 381.372 110.802C385.996 110.802 389.496 109.293 391.872 106.275C393.926 103.643 394.953 100.047 394.954 95.4879C394.954 89.7726 393.541 85.4699 390.716 82.58C388.405 80.2037 385.29 79.0157 381.372 79.0161C377.069 79.0161 373.73 80.5574 371.354 83.64C369.171 86.465 368.079 90.3821 368.08 95.3912V95.3906ZM424.26 121.399H412.701V71.309H422.237L423.489 77.2795C427.15 72.3349 432.223 69.8626 438.709 69.8626C444.745 69.8626 449.369 71.725 452.581 75.4498C455.406 78.7247 456.818 83.1878 456.819 88.839V121.398H445.259V89.1281C445.259 82.257 442.08 78.8212 435.723 78.8208C432.255 78.8208 429.429 80.0411 427.246 82.4815C425.255 84.7293 424.26 87.5549 424.26 90.9584V121.399Z" fill="white"/>
<path d="M58.3818 64.6929C53.337 65.0747 49.1797 70.4198 49.9271 75.908C50.1607 77.9124 50.6745 81.0145 51.3285 84.4029C51.6087 85.93 51.9357 87.5527 52.2627 89.1275C53.0781 92.9343 54.0916 96.6939 55.2989 100.39C56.5953 104.491 58.1718 108.494 60.0167 112.369C67.0701 126.4 76.5992 129.359 83.3723 129.359C86.5532 129.387 89.7033 128.72 92.6115 127.403C95.5197 126.086 98.1189 124.149 100.235 121.723C99.0534 120.181 98.0062 118.536 97.1054 116.807C94.1159 111.176 92.2007 104.686 90.5658 97.9087C89.8162 100.609 88.8152 103.23 87.5763 105.735C85.6145 109.458 84.2598 109.458 83.3723 109.458C81.4572 109.458 79.4486 107.358 77.3933 103.302C76.3342 101.082 75.3985 98.8039 74.5906 96.477C74.0301 94.8067 73.4696 93.0886 73.0024 91.4183C72.5353 89.7479 71.6945 86.7891 71.3208 84.9278C70.3399 80.3941 69.1721 72.9492 69.1254 72.7105C68.705 70.563 66.2293 64.0248 58.3818 64.6929Z" fill="white"/>
<path d="M140.267 84.7371C145.265 82.7804 147.367 76.5764 145.125 71.5654L144.938 71.0881C144.034 69.0482 142.972 67.0853 141.762 65.2181C141.184 64.2415 140.528 63.3157 139.8 62.4501C133.4 54.4325 125.88 53.0008 121.302 53.0008C118.122 52.9759 114.973 53.6441 112.065 54.9608C109.157 56.2775 106.558 58.2125 104.439 60.6366C105.548 62.0739 106.533 63.6068 107.382 65.2181C110.512 70.9927 112.474 78.9148 114.109 85.6439C114.996 82.5896 116.024 78.6762 117.192 76.4809C119.107 72.9016 120.415 72.9016 121.302 72.9016C123.965 72.9016 126.113 76.9104 127.141 79.2489C127.141 79.2489 130.831 88.5073 140.267 84.7371Z" fill="white"/>
<path d="M146.385 64.693L145.498 64.5975H145.264C146.238 66.2594 147.112 67.9807 147.88 69.7517L148.113 70.2289C149.521 73.4389 149.628 77.0876 148.412 80.3782C147.195 83.6687 144.754 86.3338 141.62 87.7913C139.93 88.5639 138.101 88.9701 136.249 88.9844C134.984 88.9611 133.728 88.7686 132.512 88.4117C131.204 93.4227 129.149 99.5791 127.28 103.302C125.412 107.024 123.216 109.458 121.254 109.458C120.414 109.458 119.059 109.458 117.097 105.735C115.858 103.23 114.857 100.609 114.108 97.9088C113.5 95.8089 112.94 93.5659 112.379 91.2274C112.146 90.3684 111.959 89.5094 111.772 88.6503C109.997 81.11 107.988 73.1878 104.532 66.8406C103.87 65.6193 103.137 64.44 102.336 63.309C101.682 62.3813 100.98 61.4892 100.234 60.6365C98.1111 58.2062 95.504 56.2677 92.5877 54.9508C89.6714 53.6339 86.5132 52.969 83.3249 53.0007C78.794 53.0007 71.2735 54.4324 64.874 62.45C66.8922 63.3777 68.646 64.8153 69.9699 66.6271C71.2938 68.439 72.1443 70.5654 72.4412 72.806C72.7682 75.1922 73.5623 79.8214 74.4965 84.212C74.5899 84.6893 74.6834 85.1665 74.8235 85.6915C75.5242 83.8302 76.2248 82.2553 76.9722 80.4896L77.5327 79.2487C78.5604 76.9103 80.7091 72.9015 83.3249 72.9015C84.2592 72.9015 85.5671 72.9015 87.4822 76.4808C88.7726 79.0399 89.8055 81.7262 90.5652 84.4984C91.1724 86.6459 91.7797 88.9367 92.2935 91.2274C92.4803 91.8956 92.6205 92.5637 92.7606 93.2318C94.629 101.202 96.5909 108.885 99.9541 115.232C100.65 116.581 101.447 117.874 102.336 119.098C102.991 120.011 103.692 120.887 104.438 121.723C109.997 127.879 116.396 129.359 121.254 129.359C128.028 129.359 137.603 126.4 144.657 112.369C148.253 105.163 151.29 94.5204 152.411 89.1276C153.532 83.7348 154.373 78.867 154.746 75.9081C154.924 74.61 154.848 73.2888 154.523 72.0209C154.198 70.7529 153.63 69.5633 152.853 68.5206C152.075 67.478 151.104 66.6029 149.994 65.9459C148.883 65.289 147.657 64.8631 146.385 64.693Z" fill="white"/>
</svg>
