<svg width="164" height="28" viewBox="0 0 164 28" fill="none" xmlns="http://www.w3.org/2000/svg">
<path fill-rule="evenodd" clip-rule="evenodd" d="M52.6993 10.2065C52.112 9.11734 51.2395 8.20836 50.1753 7.57681C49.1023 6.94048 47.8751 6.61141 46.6276 6.62559C45.7565 6.60841 44.893 6.79135 44.1036 7.16035C43.3786 7.51098 42.7434 8.02309 42.2469 8.65738V1.03027H39.1929V20.9932H42.2469V19.3274C42.7438 19.9617 43.3788 20.4742 44.1036 20.826C44.8935 21.1937 45.7567 21.3761 46.6276 21.3592C47.87 21.3723 49.0922 21.0458 50.1624 20.4146C51.2324 19.7835 52.1098 18.8718 52.6993 17.7783C53.309 16.6095 53.6273 15.3107 53.6273 13.9924C53.6273 12.6741 53.309 11.3753 52.6993 10.2065ZM49.9782 16.2577C49.6491 16.9263 49.1378 17.4885 48.5032 17.8793C47.8298 18.2696 47.0657 18.4762 46.2872 18.4787C45.5089 18.4813 44.7435 18.2795 44.0673 17.8935C43.431 17.5064 42.9148 16.9498 42.5766 16.2861C42.2261 15.572 42.0438 14.7871 42.0438 13.9916C42.0438 13.1961 42.2261 12.4112 42.5766 11.6972C42.9148 11.0335 43.431 10.4769 44.0673 10.0897C44.7435 9.7038 45.5089 9.50199 46.2872 9.50448C47.0657 9.50696 47.8298 9.71367 48.5032 10.1039C49.1378 10.4954 49.6491 11.058 49.9782 11.7272C50.3157 12.4346 50.4908 13.2086 50.4908 13.9924C50.4908 14.7763 50.3157 15.5502 49.9782 16.2577Z" fill="black"/>
<path fill-rule="evenodd" clip-rule="evenodd" d="M37.1107 15.117H26.7719C26.8675 15.8387 27.1383 16.526 27.5606 17.1189C27.9368 17.6367 28.4437 18.0455 29.0292 18.3036C29.6271 18.5597 30.2718 18.6888 30.9222 18.6821C31.6431 18.679 32.3577 18.5481 33.0329 18.2957C33.7334 18.0403 34.3876 17.6727 34.97 17.2072L36.4891 19.3841C35.7154 20.0607 34.8137 20.5751 33.8374 20.8969C32.8327 21.2126 31.7845 21.368 30.7313 21.3576C29.434 21.3825 28.1528 21.0676 27.0148 20.4442C25.944 19.8402 25.0683 18.9426 24.4908 17.8571C23.8819 16.7424 23.5775 15.4541 23.5775 13.9923C23.5513 12.6602 23.8548 11.3423 24.4609 10.1559C25.0193 9.07339 25.8732 8.17141 26.9233 7.5546C28.0263 6.92209 29.2804 6.60097 30.5515 6.62546C31.7636 6.60341 32.9572 6.92558 33.9936 7.5546C34.9973 8.18385 35.8042 9.08245 36.3219 10.148C36.9005 11.3399 37.1887 12.6519 37.1627 13.9765C37.1627 14.2699 37.1454 14.6501 37.1107 15.117ZM34.0346 12.7934C33.8696 11.7018 33.4773 10.8542 32.8578 10.2505C32.2385 9.64686 31.4497 9.34504 30.4916 9.34504C29.4484 9.34504 28.6128 9.65422 27.9849 10.2726C27.3571 10.891 26.9555 11.7323 26.7798 12.7966L34.0346 12.7934Z" fill="black"/>
<path d="M23.4413 6.99157H20.2548L16.9532 17.6901L13.459 6.99157H9.99648L6.54653 17.6301L3.25907 6.99157H0L4.63305 20.9917H8.22182L11.6844 10.4226L15.1548 20.9917H18.8114L23.4413 6.99157Z" fill="black"/>
<path fill-rule="evenodd" clip-rule="evenodd" d="M68.7717 15.117H58.4392C58.5348 15.8387 58.8055 16.526 59.228 17.1189C59.6048 17.6366 60.1121 18.0453 60.6982 18.3036C61.296 18.5599 61.9407 18.6888 62.5911 18.6821C63.3125 18.6791 64.0276 18.5482 64.7034 18.2957C65.4035 18.0406 66.0573 17.673 66.6389 17.2072L68.1596 19.3841C67.3848 20.0609 66.482 20.5753 65.5047 20.8969C64.5005 21.2126 63.4529 21.368 62.4003 21.3576C61.1045 21.3822 59.8249 21.0673 58.6885 20.4442C57.6131 19.8419 56.7328 18.9442 56.1519 17.8571C55.543 16.7424 55.2385 15.4541 55.2385 13.9923C55.2128 12.6601 55.5168 11.3422 56.1235 10.1559C56.6814 9.07309 57.5353 8.17103 58.5859 7.55462C59.6889 6.92197 60.9428 6.60082 62.2141 6.62548C63.4262 6.60298 64.6199 6.9252 65.6562 7.55462C66.6634 8.1825 67.4736 9.08123 67.994 10.148C68.5726 11.3399 68.8607 12.6519 68.8348 13.9765C68.8316 14.2699 68.8107 14.6501 68.7717 15.117ZM65.7035 12.7934C65.5363 11.7018 65.144 10.8542 64.5267 10.2505C63.9094 9.64687 63.1175 9.34505 62.151 9.34505C61.1088 9.34505 60.2733 9.65424 59.6444 10.2726C59.0155 10.891 58.6138 11.7323 58.4392 12.7966L65.7035 12.7934Z" fill="black"/>
<path d="M83.3429 20.9917H79.587L76.0345 16.1252L72.5278 20.9917H68.9469L74.2235 13.8457L69.0352 6.99157H72.7912L76.2112 11.6688L79.6296 6.99157H83.2404L78.0663 13.8157L83.3429 20.9917Z" fill="black"/>
<path d="M163.16 12.1409V10.5002H161.006V7.98462H158.962V10.5002H157.424V12.1409H158.962V18.3411C158.962 18.9745 159.106 19.5009 159.393 19.9202C159.68 20.3394 160.056 20.6493 160.521 20.8499C160.986 21.0504 161.487 21.1461 162.025 21.137C162.353 21.1324 162.626 21.1051 162.845 21.0549C163.064 21.0094 163.233 20.9638 163.351 20.9182L162.982 19.2297C162.914 19.2434 162.818 19.2616 162.695 19.2844C162.572 19.3072 162.428 19.3186 162.264 19.3186C162.041 19.3186 161.833 19.2844 161.642 19.2161C161.455 19.1431 161.303 19.0087 161.184 18.8127C161.066 18.6122 161.006 18.3137 161.006 17.9172V12.1409H163.16Z" fill="black"/>
<path d="M152.609 21.2122C151.593 21.2122 150.718 20.982 149.984 20.5217C149.255 20.0569 148.694 19.4166 148.302 18.6008C147.911 17.7851 147.715 16.8508 147.715 15.7981C147.715 14.7317 147.915 13.7906 148.316 12.9749C148.717 12.1545 149.282 11.5142 150.011 11.054C150.741 10.5937 151.6 10.3635 152.589 10.3635C153.386 10.3635 154.097 10.5116 154.721 10.8079C155.346 11.0995 155.849 11.5097 156.232 12.0383C156.62 12.567 156.85 13.1845 156.923 13.8909H154.933C154.824 13.3987 154.573 12.9749 154.181 12.6194C153.794 12.2639 153.274 12.0862 152.623 12.0862C152.053 12.0862 151.554 12.2366 151.126 12.5374C150.702 12.8336 150.372 13.2574 150.135 13.8088C149.898 14.3557 149.779 15.0028 149.779 15.7502C149.779 16.5159 149.895 17.1767 150.128 17.7327C150.36 18.2887 150.688 18.7193 151.112 19.0247C151.54 19.33 152.044 19.4827 152.623 19.4827C153.01 19.4827 153.361 19.412 153.676 19.2708C153.995 19.1249 154.261 18.9176 154.475 18.6487C154.694 18.3798 154.847 18.0562 154.933 17.678H156.923C156.85 18.357 156.629 18.9631 156.26 19.4963C155.89 20.0295 155.396 20.4488 154.776 20.7542C154.161 21.0595 153.439 21.2122 152.609 21.2122Z" fill="black"/>
<path fill-rule="evenodd" clip-rule="evenodd" d="M139.591 20.5491C140.338 20.9911 141.229 21.2122 142.264 21.2122C143.029 21.2122 143.711 21.0959 144.308 20.8635C144.909 20.6265 145.408 20.2961 145.805 19.8723C146.206 19.4439 146.484 18.9449 146.639 18.3752L144.704 18.0266C144.581 18.3547 144.403 18.6305 144.171 18.8538C143.938 19.0771 143.663 19.2457 143.344 19.3596C143.025 19.469 142.672 19.5237 142.284 19.5237C141.687 19.5237 141.165 19.3961 140.719 19.1409C140.272 18.8811 139.924 18.5051 139.673 18.0129C139.444 17.5547 139.321 17.0055 139.305 16.3655H146.769V15.6409C146.769 14.6884 146.641 13.8795 146.386 13.2141C146.131 12.5442 145.782 11.9996 145.34 11.5803C144.898 11.1611 144.399 10.8534 143.843 10.6575C143.287 10.4615 142.713 10.3635 142.12 10.3635C141.145 10.3635 140.293 10.5937 139.563 11.054C138.839 11.5142 138.274 12.1545 137.868 12.9749C137.467 13.7952 137.267 14.7431 137.267 15.8186C137.267 16.9078 137.467 17.858 137.868 18.6692C138.274 19.4758 138.848 20.1025 139.591 20.5491ZM139.309 14.8342H144.766C144.766 14.2965 144.656 13.8202 144.438 13.4055C144.219 12.9862 143.911 12.6558 143.515 12.4143C143.123 12.1728 142.662 12.052 142.134 12.052C141.56 12.052 141.058 12.1933 140.63 12.4758C140.206 12.7538 139.878 13.1184 139.646 13.5696C139.446 13.9613 139.333 14.3829 139.309 14.8342Z" fill="black"/>
<path d="M129.127 14.7659V21.0002H127.083V10.5002H129.045V12.2092H129.175C129.417 11.6532 129.795 11.2066 130.31 10.8694C130.829 10.5321 131.483 10.3635 132.272 10.3635C132.987 10.3635 133.614 10.5139 134.152 10.8147C134.689 11.1109 135.106 11.553 135.403 12.1409C135.699 12.7288 135.847 13.4556 135.847 14.3215V21.0002H133.803V14.5676C133.803 13.8066 133.605 13.2118 133.208 12.7834C132.812 12.3505 132.267 12.134 131.574 12.134C131.101 12.134 130.679 12.2366 130.31 12.4417C129.945 12.6467 129.656 12.9475 129.442 13.344C129.232 13.7359 129.127 14.2099 129.127 14.7659Z" fill="black"/>
<path d="M118.472 21.0002V14.7659C118.472 14.2099 118.577 13.7359 118.787 13.344C119.001 12.9475 119.29 12.6467 119.655 12.4417C120.024 12.2366 120.446 12.134 120.92 12.134C121.612 12.134 122.157 12.3505 122.553 12.7834C122.95 13.2118 123.148 13.8066 123.148 14.5676V21.0002H125.192V14.3215C125.192 13.4556 125.044 12.7288 124.748 12.1409C124.452 11.553 124.035 11.1109 123.497 10.8147C122.959 10.5139 122.332 10.3635 121.617 10.3635C120.829 10.3635 120.175 10.5321 119.655 10.8694C119.14 11.2066 118.762 11.6532 118.52 12.2092H118.39V10.5002H116.428V21.0002H118.472Z" fill="black"/>
<path fill-rule="evenodd" clip-rule="evenodd" d="M110.102 21.2122C109.118 21.2122 108.259 20.9866 107.525 20.5354C106.791 20.0842 106.222 19.453 105.816 18.6418C105.411 17.8306 105.208 16.8827 105.208 15.7981C105.208 14.7089 105.411 13.7564 105.816 12.9407C106.222 12.1249 106.791 11.4915 107.525 11.0403C108.259 10.5891 109.118 10.3635 110.102 10.3635C111.087 10.3635 111.946 10.5891 112.679 11.0403C113.413 11.4915 113.983 12.1249 114.388 12.9407C114.794 13.7564 114.997 14.7089 114.997 15.7981C114.997 16.8827 114.794 17.8306 114.388 18.6418C113.983 19.453 113.413 20.0842 112.679 20.5354C111.946 20.9866 111.087 21.2122 110.102 21.2122ZM110.109 19.4963C110.747 19.4963 111.276 19.3277 111.695 18.9905C112.114 18.6532 112.424 18.2043 112.625 17.6438C112.83 17.0833 112.932 16.4657 112.932 15.7913C112.932 15.1213 112.83 14.5061 112.625 13.9456C112.424 13.3805 112.114 12.927 111.695 12.5852C111.276 12.2434 110.747 12.0725 110.109 12.0725C109.467 12.0725 108.933 12.2434 108.51 12.5852C108.09 12.927 107.778 13.3805 107.573 13.9456C107.372 14.5061 107.272 15.1213 107.272 15.7913C107.272 16.4657 107.372 17.0833 107.573 17.6438C107.778 18.2043 108.09 18.6532 108.51 18.9905C108.933 19.3277 109.467 19.4963 110.109 19.4963Z" fill="black"/>
<path d="M102.033 11.553H104.166C104.048 10.801 103.82 10.1334 103.482 9.55005C103.145 8.96216 102.719 8.46541 102.204 8.05981C101.689 7.64966 101.108 7.33976 100.461 7.13013C99.8184 6.91593 99.1256 6.80884 98.3828 6.80884C97.1751 6.80884 96.0973 7.09823 95.1494 7.677C94.2015 8.25122 93.4541 9.07609 92.9072 10.1516C92.3604 11.2226 92.0869 12.5055 92.0869 14.0002C92.0869 15.4905 92.3581 16.7734 92.9004 17.8489C93.4473 18.9244 94.1947 19.7515 95.1426 20.3303C96.0905 20.9045 97.1706 21.1917 98.3828 21.1917C99.153 21.1917 99.8639 21.0777 100.516 20.8499C101.167 20.622 101.746 20.3007 102.252 19.886C102.762 19.4667 103.179 18.97 103.503 18.3958C103.831 17.817 104.052 17.1835 104.166 16.4954L102.033 16.4885C101.947 16.9351 101.789 17.3316 101.562 17.678C101.338 18.0198 101.065 18.3092 100.741 18.5461C100.418 18.7831 100.055 18.9631 99.6543 19.0862C99.2578 19.2047 98.8385 19.2639 98.3965 19.2639C97.599 19.2639 96.8812 19.0634 96.2432 18.6624C95.6051 18.2613 95.1016 17.6689 94.7324 16.885C94.3678 16.1012 94.1855 15.1396 94.1855 14.0002C94.1855 12.87 94.3678 11.913 94.7324 11.1292C95.1016 10.3453 95.6029 9.75057 96.2363 9.34497C96.8744 8.93937 97.5967 8.73657 98.4033 8.73657C98.8499 8.73657 99.2715 8.7981 99.668 8.92114C100.069 9.04419 100.431 9.22648 100.755 9.46802C101.078 9.70955 101.352 10.0035 101.575 10.3499C101.799 10.6962 101.951 11.0972 102.033 11.553Z" fill="black"/>
</svg>
