<svg width="240" height="240" viewBox="0 0 240 240" fill="none" xmlns="http://www.w3.org/2000/svg">
<path d="M106.984 173.643C77.2084 167.685 75.5071 166.407 60.8092 158.669C59.1315 154.239 56.9305 148.872 48.3006 130.238C45.4971 124.183 43.4711 119.808 42.1042 116.233C41.3346 114.218 40.7628 112.281 40.3711 110.424C44.6009 114.079 53.4294 123.03 104.483 158.657C105.598 161.994 106.702 167.485 106.984 173.643Z" fill="url(#paint0_linear_22394_3104)"/>
<path d="M168.673 134.171C163.456 135.968 148.99 137.433 119.832 116.444C112.128 99.077 99.8937 79.6116 96.9268 62.8938C104.223 67.1001 112.734 71.9755 114.682 72.9517C118.248 74.7372 142.725 92.4605 144.179 93.4676C147.445 95.821 150.745 96.8567 154.897 97.0257C157.518 102.716 165.681 118.694 168.673 134.171Z" fill="url(#paint1_linear_22394_3104)"/>
<path d="M170.799 90.9905C167.058 94.7343 161.96 97.0525 156.175 97.0514C152.297 97.0507 148.325 96.455 144.18 93.4674C105.831 66.8943 129.795 82.0147 96.9272 62.8937C95.1395 52.8172 96.7179 43.7388 104.683 36.7182C118.13 24.868 135.555 33.3605 151.983 44.8624C157.029 48.3952 169.129 56.5731 172.31 59.7489C172.598 60.0572 186.288 75.4822 170.799 90.9905Z" fill="url(#paint2_linear_22394_3104)"/>
<path d="M169.778 145.657C169.257 169.814 150.071 174.078 141.362 173.637C135.339 173.334 124.485 171.879 104.483 158.657C53.4298 123.03 44.6013 114.079 40.3715 110.424C36.3014 91.1159 51.675 80.5352 64.953 82.1139C75.6801 83.3933 85.7885 91.3729 119.191 115.972L119.192 115.972L119.222 116.004C119.426 116.152 119.629 116.299 119.832 116.444C148.99 137.433 163.456 135.968 168.673 134.171C169.431 138.089 169.856 141.977 169.778 145.657Z" fill="url(#paint3_linear_22394_3104)"/>
<path d="M50.2213 201.543C31.7917 193.529 14.4691 179.393 25.4292 161.532C31.5498 151.558 43.7189 148.373 53.6871 154.505C53.7221 154.526 56.6593 156.326 60.8095 158.669C75.5074 166.407 77.2087 167.685 106.985 173.643C107.939 194.48 99.4864 222.967 50.2213 201.543Z" fill="url(#paint4_linear_22394_3104)"/>
<path d="M196.888 127.254C208.501 127.256 217.913 117.835 217.911 106.211C217.909 94.5864 208.493 85.1615 196.88 85.1593C185.267 85.1571 175.854 94.5785 175.857 106.203C175.859 117.827 185.275 127.252 196.888 127.254Z" fill="url(#paint5_radial_22394_3104)"/>
<path d="M196.888 127.254C208.501 127.256 217.913 117.835 217.911 106.211C217.909 94.5864 208.493 85.1615 196.88 85.1593C185.267 85.1571 175.854 94.5785 175.857 106.203C175.859 117.827 185.275 127.252 196.888 127.254Z" fill="url(#paint6_radial_22394_3104)"/>
<path d="M170.767 91.2536C186.323 75.6773 172.573 60.1847 172.284 59.875C169.089 56.6853 156.936 48.4716 151.868 44.9233C135.368 33.3709 117.867 24.8412 104.36 36.7434C96.3602 43.7947 95.0005 52.913 96.7961 63.0336C99.776 79.8247 112.064 99.3755 119.802 116.819C149.087 137.899 163.617 136.429 168.857 134.623C165.879 119.221 157.803 103.325 155.095 97.4761C155.458 97.3896 155.789 97.341 156.08 97.3411C161.89 97.3422 167.01 95.0138 170.768 91.2536L170.767 91.2536Z" fill="url(#paint7_linear_22394_3104)"/>
<path d="M170.767 91.2536C186.323 75.6773 172.573 60.1847 172.284 59.875C169.089 56.6853 156.936 48.4716 151.868 44.9233C135.368 33.3709 117.867 24.8412 104.36 36.7434C96.3602 43.7947 95.0005 52.913 96.7961 63.0336C99.776 79.8247 112.064 99.3755 119.802 116.819C149.087 137.899 163.617 136.429 168.857 134.623C165.879 119.221 157.803 103.325 155.095 97.4761C155.458 97.3896 155.789 97.341 156.08 97.3411C161.89 97.3422 167.01 95.0138 170.768 91.2536L170.767 91.2536Z" fill="url(#paint8_radial_22394_3104)"/>
<path d="M168.673 134.171C163.456 135.968 148.99 137.433 119.832 116.444C112.128 99.077 99.8937 79.6116 96.9268 62.8938C104.223 67.1001 112.734 71.9755 114.682 72.9517C118.248 74.7372 142.725 92.4605 144.179 93.4676C147.445 95.821 150.745 96.8567 154.897 97.0257C157.518 102.716 165.681 118.694 168.673 134.171Z" fill="url(#paint9_radial_22394_3104)"/>
<path d="M168.673 134.171C163.456 135.968 148.99 137.433 119.832 116.444C112.128 99.077 99.8937 79.6116 96.9268 62.8938C104.223 67.1001 112.734 71.9755 114.682 72.9517C118.248 74.7372 142.725 92.4605 144.179 93.4676C147.445 95.821 150.745 96.8567 154.897 97.0257C157.518 102.716 165.681 118.694 168.673 134.171Z" fill="url(#paint10_radial_22394_3104)"/>
<path d="M168.673 134.171C163.456 135.968 148.99 137.433 119.832 116.444C112.128 99.077 99.8937 79.6116 96.9268 62.8938C104.223 67.1001 112.734 71.9755 114.682 72.9517C118.248 74.7372 142.725 92.4605 144.179 93.4676C147.445 95.821 150.745 96.8567 154.897 97.0257C157.518 102.716 165.681 118.694 168.673 134.171Z" fill="url(#paint11_radial_22394_3104)"/>
<path d="M168.673 134.171C163.456 135.968 148.99 137.433 119.832 116.444C112.128 99.077 99.8937 79.6116 96.9268 62.8938C104.223 67.1001 112.734 71.9755 114.682 72.9517C118.248 74.7372 142.725 92.4605 144.179 93.4676C147.445 95.821 150.745 96.8567 154.897 97.0257C157.518 102.716 165.681 118.694 168.673 134.171Z" fill="url(#paint12_radial_22394_3104)"/>
<path d="M168.673 134.154C166.035 120.508 159.377 106.473 156.043 99.4429C155.595 98.4992 155.207 97.6818 154.897 97.0085C150.745 96.8394 147.444 95.8037 144.179 93.4503C143.922 93.2721 142.943 92.5703 141.487 91.526C134.716 86.6692 117.617 74.404 114.681 72.9345C112.734 71.9583 104.222 67.0828 96.9265 62.8766C98.9863 74.4828 105.513 87.4133 111.889 100.047C114.697 105.611 117.476 111.117 119.832 116.427C119.629 116.282 119.426 116.135 119.221 115.987L119.192 115.955L119.19 115.955C116.75 114.158 114.434 112.449 112.234 110.826C84.308 90.2256 74.8961 83.2826 64.9527 82.0967C51.6747 80.518 36.3011 91.0986 40.3712 110.406C40.7862 110.765 41.2455 111.175 41.7845 111.655C46.7398 116.075 58.4384 126.508 104.483 158.64C124.484 171.861 135.339 173.317 141.362 173.62C150.071 174.06 169.256 169.797 169.778 145.639C169.856 141.959 169.431 138.072 168.673 134.154Z" fill="url(#paint13_radial_22394_3104)"/>
<path d="M169.778 145.657C169.257 169.814 150.071 174.078 141.362 173.637C135.339 173.334 124.485 171.879 104.483 158.657C53.4298 123.03 44.6013 114.079 40.3715 110.424C36.3014 91.1159 51.675 80.5352 64.953 82.1139C75.6801 83.3933 85.7885 91.3729 119.191 115.972L119.192 115.972L119.222 116.004C119.426 116.152 119.629 116.299 119.832 116.444C148.99 137.433 163.456 135.968 168.673 134.171C169.431 138.089 169.856 141.977 169.778 145.657Z" fill="url(#paint14_radial_22394_3104)"/>
<path d="M169.778 145.657C169.257 169.814 150.071 174.078 141.362 173.637C135.339 173.334 124.485 171.879 104.483 158.657C53.4298 123.03 44.6013 114.079 40.3715 110.424C36.3014 91.1159 51.675 80.5352 64.953 82.1139C75.6801 83.3933 85.7885 91.3729 119.191 115.972L119.192 115.972L119.222 116.004C119.426 116.152 119.629 116.299 119.832 116.444C148.99 137.433 163.456 135.968 168.673 134.171C169.431 138.089 169.856 141.977 169.778 145.657Z" fill="url(#paint15_linear_22394_3104)"/>
<path d="M141.362 173.643C150.071 174.083 169.257 169.82 169.778 145.662C169.856 141.982 169.431 138.095 168.673 134.177C163.456 135.974 148.99 137.438 119.832 116.45C119.629 116.305 119.426 116.158 119.222 116.01L119.192 115.978L119.191 115.978C116.75 114.181 114.435 112.472 112.234 110.849C84.3083 90.2485 74.8964 83.3056 64.953 82.1197C51.675 80.541 36.3014 91.1216 40.3715 110.429C40.7632 112.287 41.3351 114.224 42.1046 116.239C43.4701 119.811 45.4934 124.18 48.2924 130.225L48.301 130.244C56.9309 148.878 59.1319 154.245 60.8096 158.675C61.3614 158.965 61.8948 159.247 62.4121 159.52C75.6748 166.516 78.3266 167.914 106.985 173.648C106.703 167.49 105.599 162 104.483 158.663C124.485 171.884 135.339 173.34 141.362 173.643Z" fill="url(#paint16_radial_22394_3104)"/>
<path d="M141.362 173.643C150.071 174.083 169.257 169.82 169.778 145.662C169.856 141.982 169.431 138.095 168.673 134.177C163.456 135.974 148.99 137.438 119.832 116.45C119.629 116.305 119.426 116.158 119.222 116.01L119.192 115.978L119.191 115.978C116.75 114.181 114.435 112.472 112.234 110.849C84.3083 90.2485 74.8964 83.3056 64.953 82.1197C51.675 80.541 36.3014 91.1216 40.3715 110.429C40.7632 112.287 41.3351 114.224 42.1046 116.239C43.4701 119.811 45.4934 124.18 48.2924 130.225L48.301 130.244C56.9309 148.878 59.1319 154.245 60.8096 158.675C61.3614 158.965 61.8948 159.247 62.4121 159.52C75.6748 166.516 78.3266 167.914 106.985 173.648C106.703 167.49 105.599 162 104.483 158.663C124.485 171.884 135.339 173.34 141.362 173.643Z" fill="url(#paint17_radial_22394_3104)"/>
<path d="M141.362 173.643C150.071 174.083 169.257 169.82 169.778 145.662C169.856 141.982 169.431 138.095 168.673 134.177C163.456 135.974 148.99 137.438 119.832 116.45C119.629 116.305 119.426 116.158 119.222 116.01L119.192 115.978L119.191 115.978C116.75 114.181 114.435 112.472 112.234 110.849C84.3083 90.2485 74.8964 83.3056 64.953 82.1197C51.675 80.541 36.3014 91.1216 40.3715 110.429C40.7632 112.287 41.3351 114.224 42.1046 116.239C43.4701 119.811 45.4934 124.18 48.2924 130.225L48.301 130.244C56.9309 148.878 59.1319 154.245 60.8096 158.675C61.3614 158.965 61.8948 159.247 62.4121 159.52C75.6748 166.516 78.3266 167.914 106.985 173.648C106.703 167.49 105.599 162 104.483 158.663C124.485 171.884 135.339 173.34 141.362 173.643Z" fill="url(#paint18_radial_22394_3104)"/>
<path d="M141.362 173.643C150.071 174.083 169.257 169.82 169.778 145.662C169.856 141.982 169.431 138.095 168.673 134.177C163.456 135.974 148.99 137.438 119.832 116.45C119.629 116.305 119.426 116.158 119.222 116.01L119.192 115.978L119.191 115.978C116.75 114.181 114.435 112.472 112.234 110.849C84.3083 90.2485 74.8964 83.3056 64.953 82.1197C51.675 80.541 36.3014 91.1216 40.3715 110.429C40.7632 112.287 41.3351 114.224 42.1046 116.239C43.4701 119.811 45.4934 124.18 48.2924 130.225L48.301 130.244C56.9309 148.878 59.1319 154.245 60.8096 158.675C61.3614 158.965 61.8948 159.247 62.4121 159.52C75.6748 166.516 78.3266 167.914 106.985 173.648C106.703 167.49 105.599 162 104.483 158.663C124.485 171.884 135.339 173.34 141.362 173.643Z" fill="url(#paint19_radial_22394_3104)"/>
<path d="M106.984 173.643C77.2084 167.685 75.5071 166.407 60.8092 158.669C59.1315 154.239 56.9305 148.872 48.3006 130.238C45.4971 124.183 43.4711 119.808 42.1042 116.233C41.3346 114.218 40.7628 112.281 40.3711 110.424C44.6009 114.079 53.4294 123.03 104.483 158.657C105.598 161.994 106.702 167.485 106.984 173.643Z" fill="url(#paint20_radial_22394_3104)"/>
<path d="M106.984 173.643C77.2084 167.685 75.5071 166.407 60.8092 158.669C59.1315 154.239 56.9305 148.872 48.3006 130.238C45.4971 124.183 43.4711 119.808 42.1042 116.233C41.3346 114.218 40.7628 112.281 40.3711 110.424C44.6009 114.079 53.4294 123.03 104.483 158.657C105.598 161.994 106.702 167.485 106.984 173.643Z" fill="url(#paint21_radial_22394_3104)"/>
<path d="M106.985 173.643C106.702 167.485 105.599 161.994 104.483 158.657C58.4386 126.525 46.74 116.092 41.7847 111.673C41.2457 111.192 40.7864 110.782 40.3714 110.424C40.7631 112.281 41.3349 114.218 42.1045 116.233C43.47 119.805 45.4932 124.174 48.2923 130.22L48.3009 130.238C56.9308 148.872 59.1318 154.239 60.8095 158.669C56.6593 156.326 53.722 154.526 53.687 154.505C43.7188 148.373 31.5497 151.558 25.4291 161.532C14.469 179.393 31.7916 193.529 50.2212 201.543C99.4863 222.967 107.939 194.48 106.985 173.643Z" fill="url(#paint22_radial_22394_3104)"/>
<path d="M106.985 173.643C106.702 167.485 105.599 161.994 104.483 158.657C58.4386 126.525 46.74 116.092 41.7847 111.673C41.2457 111.192 40.7864 110.782 40.3714 110.424C40.7631 112.281 41.3349 114.218 42.1045 116.233C43.47 119.805 45.4932 124.174 48.2923 130.22L48.3009 130.238C56.9308 148.872 59.1318 154.239 60.8095 158.669C56.6593 156.326 53.722 154.526 53.687 154.505C43.7188 148.373 31.5497 151.558 25.4291 161.532C14.469 179.393 31.7916 193.529 50.2212 201.543C99.4863 222.967 107.939 194.48 106.985 173.643Z" fill="url(#paint23_radial_22394_3104)"/>
<path d="M106.984 173.643C77.2084 167.685 75.5071 166.407 60.8092 158.669C59.1315 154.239 56.9305 148.872 48.3006 130.238C45.4971 124.183 43.4711 119.808 42.1042 116.233C41.3346 114.218 40.7628 112.281 40.3711 110.424C44.6009 114.079 53.4294 123.03 104.483 158.657C105.598 161.994 106.702 167.485 106.984 173.643Z" fill="url(#paint24_radial_22394_3104)"/>
<path d="M50.2213 201.543C31.7917 193.529 14.4691 179.393 25.4292 161.532C31.5498 151.558 43.7189 148.373 53.6871 154.505C53.7221 154.526 56.6593 156.326 60.8095 158.669C75.5074 166.407 77.2087 167.685 106.985 173.643C107.939 194.48 99.4864 222.967 50.2213 201.543Z" fill="url(#paint25_radial_22394_3104)"/>
<path d="M50.2213 201.543C31.7917 193.529 14.4691 179.393 25.4292 161.532C31.5498 151.558 43.7189 148.373 53.6871 154.505C53.7221 154.526 56.6593 156.326 60.8095 158.669C75.5074 166.407 77.2087 167.685 106.985 173.643C107.939 194.48 99.4864 222.967 50.2213 201.543Z" fill="url(#paint26_linear_22394_3104)"/>
<path d="M170.767 91.2536C186.323 75.6773 172.573 60.1847 172.284 59.875C169.089 56.6853 156.936 48.4716 151.868 44.9233C135.368 33.3709 117.867 24.8412 104.36 36.7434C96.3602 43.7947 95.0005 52.913 96.7961 63.0336C99.776 79.8247 112.064 99.3755 119.802 116.819C149.087 137.899 163.617 136.429 168.857 134.623C165.879 119.221 157.803 103.325 155.095 97.4761C155.458 97.3896 155.789 97.341 156.08 97.3411C161.89 97.3422 167.01 95.0138 170.768 91.2536L170.767 91.2536Z" fill="url(#paint27_radial_22394_3104)"/>
<path d="M170.767 91.2536C186.323 75.6773 172.573 60.1847 172.284 59.875C169.089 56.6853 156.936 48.4716 151.868 44.9233C135.368 33.3709 117.867 24.8412 104.36 36.7434C96.3602 43.7947 95.0005 52.913 96.7961 63.0336C99.776 79.8247 112.064 99.3755 119.802 116.819C149.087 137.899 163.617 136.429 168.857 134.623C165.879 119.221 157.803 103.325 155.095 97.4761C155.458 97.3896 155.789 97.341 156.08 97.3411C161.89 97.3422 167.01 95.0138 170.768 91.2536L170.767 91.2536Z" fill="url(#paint28_radial_22394_3104)"/>
<path d="M170.767 91.2536C186.323 75.6773 172.573 60.1847 172.284 59.875C169.089 56.6853 156.936 48.4716 151.868 44.9233C135.368 33.3709 117.867 24.8412 104.36 36.7434C96.3602 43.7947 95.0005 52.913 96.7961 63.0336C99.776 79.8247 112.064 99.3755 119.802 116.819C149.087 137.899 163.617 136.429 168.857 134.623C165.879 119.221 157.803 103.325 155.095 97.4761C155.458 97.3896 155.789 97.341 156.08 97.3411C161.89 97.3422 167.01 95.0138 170.768 91.2536L170.767 91.2536Z" fill="url(#paint29_linear_22394_3104)"/>
<path d="M170.767 91.2536C186.323 75.6773 172.573 60.1847 172.284 59.875C169.089 56.6853 156.936 48.4716 151.868 44.9233C135.368 33.3709 117.867 24.8412 104.36 36.7434C96.3602 43.7947 95.0005 52.913 96.7961 63.0336C99.776 79.8247 112.064 99.3755 119.802 116.819C149.087 137.899 163.617 136.429 168.857 134.623C165.879 119.221 157.803 103.325 155.095 97.4761C155.458 97.3896 155.789 97.341 156.08 97.3411C161.89 97.3422 167.01 95.0138 170.768 91.2536L170.767 91.2536Z" fill="url(#paint30_radial_22394_3104)"/>
<defs>
<linearGradient id="paint0_linear_22394_3104" x1="53.0742" y1="142.029" x2="106.992" y2="156.173" gradientUnits="userSpaceOnUse">
<stop stop-color="#D99207"/>
<stop offset="1" stop-color="#D28D00"/>
</linearGradient>
<linearGradient id="paint1_linear_22394_3104" x1="107.122" y1="105.843" x2="155.38" y2="93.0931" gradientUnits="userSpaceOnUse">
<stop stop-color="#BCA62A"/>
<stop offset="0.424133" stop-color="#7A8B1A"/>
<stop offset="1" stop-color="#BCD73E"/>
</linearGradient>
<linearGradient id="paint2_linear_22394_3104" x1="137.22" y1="84.1121" x2="156.781" y2="53.0832" gradientUnits="userSpaceOnUse">
<stop stop-color="#42A12F"/>
<stop offset="1" stop-color="#70F14D"/>
</linearGradient>
<linearGradient id="paint3_linear_22394_3104" x1="86.5308" y1="144.947" x2="112.517" y2="112.664" gradientUnits="userSpaceOnUse">
<stop stop-color="#B99219"/>
<stop offset="0.50226" stop-color="#DAB520"/>
<stop offset="1" stop-color="#E4C722"/>
</linearGradient>
<linearGradient id="paint4_linear_22394_3104" x1="36.0341" y1="163.27" x2="99.986" y2="187.378" gradientUnits="userSpaceOnUse">
<stop stop-color="#FFC332"/>
<stop offset="1" stop-color="#C17F00"/>
</linearGradient>
<radialGradient id="paint5_radial_22394_3104" cx="0" cy="0" r="1" gradientUnits="userSpaceOnUse" gradientTransform="translate(193.266 85.1586) rotate(88.5088) scale(40.3582 44.7833)">
<stop stop-color="#70F14D"/>
<stop offset="1" stop-color="#42A12F"/>
</radialGradient>
<radialGradient id="paint6_radial_22394_3104" cx="0" cy="0" r="1" gradientUnits="userSpaceOnUse" gradientTransform="translate(194.647 88.1559) rotate(92.2476) scale(22.0195 24.4351)">
<stop stop-color="#70F14D"/>
<stop offset="1" stop-color="#70F14D" stop-opacity="0"/>
</radialGradient>
<linearGradient id="paint7_linear_22394_3104" x1="103.897" y1="86.806" x2="144.824" y2="76.1323" gradientUnits="userSpaceOnUse">
<stop stop-color="#BEA92B"/>
<stop offset="1" stop-color="#60BA3B" stop-opacity="0"/>
</linearGradient>
<radialGradient id="paint8_radial_22394_3104" cx="0" cy="0" r="1" gradientUnits="userSpaceOnUse" gradientTransform="translate(96.0926 40.2017) rotate(89.9892) scale(40.5576 17.9191)">
<stop stop-color="#669C27"/>
<stop offset="1" stop-color="#60BA3B" stop-opacity="0"/>
</radialGradient>
<radialGradient id="paint9_radial_22394_3104" cx="0" cy="0" r="1" gradientUnits="userSpaceOnUse" gradientTransform="translate(125.518 79.4576) rotate(80.4126) scale(43.7493 25.8799)">
<stop stop-color="#668218"/>
<stop offset="1" stop-color="#658218" stop-opacity="0"/>
</radialGradient>
<radialGradient id="paint10_radial_22394_3104" cx="0" cy="0" r="1" gradientUnits="userSpaceOnUse" gradientTransform="translate(125.518 79.4576) rotate(80.4126) scale(43.7493 25.8799)">
<stop stop-color="#668218"/>
<stop offset="1" stop-color="#658218" stop-opacity="0"/>
</radialGradient>
<radialGradient id="paint11_radial_22394_3104" cx="0" cy="0" r="1" gradientUnits="userSpaceOnUse" gradientTransform="translate(114.564 68.9967) rotate(65.4501) scale(32.9918 19.5185)">
<stop stop-color="#668218"/>
<stop offset="1" stop-color="#658218" stop-opacity="0"/>
</radialGradient>
<radialGradient id="paint12_radial_22394_3104" cx="0" cy="0" r="1" gradientUnits="userSpaceOnUse" gradientTransform="translate(145.395 132.84) rotate(-126.506) scale(13.6958 13.6871)">
<stop stop-color="#CFD832"/>
<stop offset="1" stop-color="#CDD631" stop-opacity="0"/>
</radialGradient>
<radialGradient id="paint13_radial_22394_3104" cx="0" cy="0" r="1" gradientUnits="userSpaceOnUse" gradientTransform="translate(163.221 135.798) rotate(-156.509) scale(33.1656 33.8062)">
<stop stop-color="#D1D936"/>
<stop offset="1" stop-color="#D1D936" stop-opacity="0"/>
</radialGradient>
<radialGradient id="paint14_radial_22394_3104" cx="0" cy="0" r="1" gradientUnits="userSpaceOnUse" gradientTransform="translate(143.733 172.102) rotate(-121.254) scale(58.3367 33.5749)">
<stop stop-color="#A89321"/>
<stop offset="1" stop-color="#BBA81E" stop-opacity="0"/>
</radialGradient>
<linearGradient id="paint15_linear_22394_3104" x1="104.755" y1="168.636" x2="111.13" y2="133.962" gradientUnits="userSpaceOnUse">
<stop stop-color="#A89321"/>
<stop offset="1" stop-color="#BBA81E" stop-opacity="0"/>
</linearGradient>
<radialGradient id="paint16_radial_22394_3104" cx="0" cy="0" r="1" gradientUnits="userSpaceOnUse" gradientTransform="translate(37.4798 112.593) rotate(28.8124) scale(46.4785 26.7758)">
<stop stop-color="#E7AC1D"/>
<stop offset="1" stop-color="#FABF2E" stop-opacity="0"/>
</radialGradient>
<radialGradient id="paint17_radial_22394_3104" cx="0" cy="0" r="1" gradientUnits="userSpaceOnUse" gradientTransform="translate(138.725 130.995) rotate(59.2017) scale(60.6806 15.5556)">
<stop stop-color="#BAA71C"/>
<stop offset="1" stop-color="#BBA91E" stop-opacity="0"/>
</radialGradient>
<radialGradient id="paint18_radial_22394_3104" cx="0" cy="0" r="1" gradientUnits="userSpaceOnUse" gradientTransform="translate(92.5119 94.3117) rotate(49.607) scale(62.4545 19.24)">
<stop stop-color="#F0CF28"/>
<stop offset="1" stop-color="#F0CF29" stop-opacity="0"/>
</radialGradient>
<radialGradient id="paint19_radial_22394_3104" cx="0" cy="0" r="1" gradientUnits="userSpaceOnUse" gradientTransform="translate(61.0225 85.0743) rotate(44.2317) scale(43.7924 26.1559)">
<stop stop-color="#FFBF3C"/>
<stop offset="1" stop-color="#F0CF29" stop-opacity="0"/>
</radialGradient>
<radialGradient id="paint20_radial_22394_3104" cx="0" cy="0" r="1" gradientUnits="userSpaceOnUse" gradientTransform="translate(70.8832 127.65) rotate(75.5596) scale(59.2283 25.4889)">
<stop stop-color="#C06A01"/>
<stop offset="1" stop-color="#D28D00" stop-opacity="0"/>
</radialGradient>
<radialGradient id="paint21_radial_22394_3104" cx="0" cy="0" r="1" gradientUnits="userSpaceOnUse" gradientTransform="translate(80.2253 169.971) rotate(-54.3738) scale(41.4443 17.8546)">
<stop stop-color="#E9A101"/>
<stop offset="1" stop-color="#D28D00" stop-opacity="0"/>
</radialGradient>
<radialGradient id="paint22_radial_22394_3104" cx="0" cy="0" r="1" gradientUnits="userSpaceOnUse" gradientTransform="translate(101.596 174.429) rotate(-158.663) scale(25.3178 19.0663)">
<stop stop-color="#BE7A00"/>
<stop offset="1" stop-color="#D28D00" stop-opacity="0"/>
</radialGradient>
<radialGradient id="paint23_radial_22394_3104" cx="0" cy="0" r="1" gradientUnits="userSpaceOnUse" gradientTransform="translate(86.7465 170.372) rotate(42.667) scale(24.7661 18.637)">
<stop stop-color="#CC8300"/>
<stop offset="1" stop-color="#D28D00" stop-opacity="0"/>
</radialGradient>
<radialGradient id="paint24_radial_22394_3104" cx="0" cy="0" r="1" gradientUnits="userSpaceOnUse" gradientTransform="translate(80.2253 169.971) rotate(-52.6103) scale(20.3877 16.3842)">
<stop stop-color="#E9A101"/>
<stop offset="1" stop-color="#D28D00" stop-opacity="0"/>
</radialGradient>
<radialGradient id="paint25_radial_22394_3104" cx="0" cy="0" r="1" gradientUnits="userSpaceOnUse" gradientTransform="translate(38.2749 160.826) rotate(39.6656) scale(63.7339 20.4484)">
<stop stop-color="#FDC220"/>
<stop offset="1" stop-color="#F9BD18" stop-opacity="0"/>
</radialGradient>
<linearGradient id="paint26_linear_22394_3104" x1="34.6942" y1="193.739" x2="48.3933" y2="183.784" gradientUnits="userSpaceOnUse">
<stop stop-color="#E2A41F"/>
<stop offset="1" stop-color="#E3A520" stop-opacity="0"/>
</linearGradient>
<radialGradient id="paint27_radial_22394_3104" cx="0" cy="0" r="1" gradientUnits="userSpaceOnUse" gradientTransform="translate(108.822 69.1843) rotate(-141.509) scale(21.4478 8.20366)">
<stop stop-color="#8E9D27"/>
<stop offset="1" stop-color="#99A229" stop-opacity="0"/>
</radialGradient>
<radialGradient id="paint28_radial_22394_3104" cx="0" cy="0" r="1" gradientUnits="userSpaceOnUse" gradientTransform="translate(108.354 41.9389) rotate(77.8169) scale(37.3912 53.4432)">
<stop stop-color="#5DC340"/>
<stop offset="1" stop-color="#5DBE3E" stop-opacity="0"/>
</radialGradient>
<linearGradient id="paint29_linear_22394_3104" x1="142.508" y1="49.1943" x2="126.153" y2="83.2711" gradientUnits="userSpaceOnUse">
<stop stop-color="#72F14D"/>
<stop offset="1" stop-color="#5DBE3E" stop-opacity="0"/>
</linearGradient>
<radialGradient id="paint30_radial_22394_3104" cx="0" cy="0" r="1" gradientUnits="userSpaceOnUse" gradientTransform="translate(99.8656 93.0061) rotate(-14.9191) scale(21.5377 122.077)">
<stop stop-color="#B5A62A"/>
<stop offset="1" stop-color="#B9A62A" stop-opacity="0"/>
</radialGradient>
</defs>
</svg>
