<svg width="238" height="77" viewBox="0 0 238 77" fill="none" xmlns="http://www.w3.org/2000/svg">
<g clip-path="url(#clip0_13250_6182)">
<path d="M5.82094 13.6002C2.97375 13.8157 0.627453 16.8326 1.04926 19.9303C1.18107 21.0617 1.47107 22.8126 1.84015 24.7251C1.99832 25.587 2.18286 26.5029 2.3674 27.3918C2.82761 29.5405 3.39962 31.6625 4.08099 33.7489C4.81266 36.0635 5.70239 38.3227 6.74364 40.51C10.7244 48.4295 16.1025 50.0996 19.9251 50.0996C21.7203 50.1153 23.4982 49.739 25.1395 48.9957C26.7808 48.2524 28.2478 47.1593 29.4421 45.7897C28.7752 44.9193 28.1842 43.9909 27.6758 43.0152C25.9886 39.8366 24.9077 36.1732 23.985 32.3482C23.5619 33.8724 22.9969 35.3517 22.2978 36.7658C21.1905 38.8669 20.426 38.8669 19.9251 38.8669C18.8442 38.8669 17.7106 37.6817 16.5506 35.392C15.9529 34.1395 15.4248 32.8534 14.9689 31.5401C14.6525 30.5973 14.3362 29.6276 14.0725 28.6848C13.8089 27.742 13.3344 26.0719 13.1235 25.0214C12.5698 22.4624 11.9108 18.2602 11.8844 18.1255C11.6471 16.9134 10.2499 13.223 5.82094 13.6002Z" fill="white"/>
<path d="M52.0358 24.9139C54.8566 23.8094 56.0429 20.3077 54.7775 17.4793L54.6721 17.2099C54.1617 16.0585 53.5622 14.9506 52.8794 13.8967C52.5533 13.3455 52.1829 12.8229 51.7721 12.3344C48.1604 7.80897 43.916 7.00087 41.3324 7.00087C39.5374 6.98684 37.7601 7.36399 36.1191 8.10717C34.478 8.85036 33.0108 9.94249 31.8154 11.3108C32.4412 12.122 32.9969 12.9873 33.4763 13.8967C35.2426 17.156 36.3498 21.6276 37.2726 25.4257C37.7734 23.7017 38.3534 21.4929 39.0125 20.2538C40.0934 18.2335 40.8315 18.2335 41.3324 18.2335C42.8351 18.2335 44.0478 20.4962 44.6278 21.8161C44.6278 21.8161 46.7105 27.0419 52.0358 24.9139Z" fill="white"/>
<path d="M55.4886 13.6001L54.9877 13.5463H54.8559C55.4057 14.4843 55.8987 15.4558 56.3322 16.4554L56.464 16.7248C57.2585 18.5366 57.3191 20.596 56.6325 22.4533C55.9459 24.3106 54.568 25.8149 52.7996 26.6376C51.8454 27.0736 50.8131 27.3029 49.7679 27.311C49.054 27.2978 48.345 27.1891 47.6588 26.9877C46.9207 29.8161 45.7607 33.291 44.7062 35.392C43.6517 37.4931 42.4126 38.8669 41.3054 38.8669C40.8308 38.8669 40.0663 38.8669 38.9591 36.7658C38.2599 35.3517 37.6949 33.8724 37.2718 32.3482C36.9291 31.1629 36.6128 29.8969 36.2964 28.577C36.1646 28.0921 36.0592 27.6073 35.9537 27.1224C34.9519 22.8664 33.8183 18.3949 31.8674 14.8123C31.494 14.123 31.0803 13.4573 30.6284 12.819C30.259 12.2953 29.863 11.7918 29.4421 11.3105C28.2437 9.93881 26.7723 8.84465 25.1264 8.10134C23.4805 7.35803 21.6981 6.98274 19.8987 7.00061C17.3415 7.00061 13.0971 7.80871 9.48535 12.3341C10.6244 12.8577 11.6142 13.6691 12.3614 14.6918C13.1086 15.7145 13.5886 16.9147 13.7561 18.1794C13.9407 19.5262 14.3888 22.1391 14.9161 24.6173C14.9688 24.8867 15.0216 25.156 15.1006 25.4523C15.4961 24.4018 15.8915 23.5129 16.3133 22.5162L16.6297 21.8159C17.2097 20.496 18.4224 18.2333 19.8987 18.2333C20.426 18.2333 21.1641 18.2333 22.245 20.2535C22.9732 21.698 23.5562 23.2142 23.9849 24.7789C24.3277 25.9911 24.6704 27.284 24.9604 28.577C25.0658 28.9541 25.1449 29.3312 25.224 29.7084C26.2785 34.2068 27.3858 38.5436 29.2839 42.1262C29.6768 42.8876 30.1263 43.617 30.6284 44.3081C30.9977 44.8232 31.3937 45.3178 31.8147 45.7896C34.9519 49.2645 38.5636 50.0995 41.3054 50.0995C45.128 50.0995 50.5324 48.4295 54.5132 40.51C56.5431 36.4426 58.2567 30.4357 58.8894 27.3918C59.5221 24.3479 59.9967 21.6004 60.2076 19.9303C60.3077 19.1976 60.2648 18.4519 60.0814 17.7362C59.8979 17.0206 59.5776 16.3491 59.1389 15.7606C58.7002 15.1721 58.1517 14.6781 57.5252 14.3073C56.8987 13.9365 56.2065 13.6962 55.4886 13.6001Z" fill="white"/>
<path d="M200.374 57.0283H197.575V68.1521H200.374V57.0283Z" fill="white"/>
<path d="M223.061 60.2151C222.335 59.8226 221.522 59.6188 220.697 59.6225C218.875 59.6225 217.612 60.8853 217.612 62.5888C217.612 64.2426 218.822 65.5582 220.697 65.5582C221.522 65.5601 222.334 65.3575 223.061 64.9687V67.9537C222.229 68.2087 221.365 68.3415 220.495 68.3477C217.332 68.3477 214.558 66.1757 214.558 62.5888C214.558 59.2688 217.071 56.833 220.495 56.833C221.366 56.8352 222.231 56.9689 223.061 57.2302V60.2151Z" fill="white"/>
<path d="M193.695 60.2151C192.969 59.8214 192.156 59.6175 191.331 59.6225C189.508 59.6225 188.249 60.8853 188.249 62.5888C188.249 64.2426 189.455 65.5582 191.331 65.5582C192.155 65.5601 192.968 65.3575 193.695 64.9687V67.9537C192.863 68.209 191.999 68.3418 191.129 68.3477C187.966 68.3477 185.194 66.1757 185.194 62.5888C185.194 59.2688 187.704 56.833 191.129 56.833C191.999 56.8352 192.864 56.9689 193.695 57.2302V60.2151Z" fill="white"/>
<path d="M231.91 59.6628C231.525 59.6594 231.143 59.7329 230.788 59.8791C230.432 60.0252 230.108 60.2412 229.837 60.5139C229.567 60.7867 229.353 61.1106 229.21 61.4671C229.066 61.8233 228.996 62.205 229.002 62.5888C228.995 62.9729 229.065 63.3549 229.209 63.7114C229.352 64.0683 229.565 64.3928 229.836 64.6659C230.107 64.9389 230.431 65.1549 230.787 65.3013C231.143 65.4478 231.525 65.5213 231.91 65.5179C232.296 65.5213 232.678 65.4478 233.034 65.3013C233.39 65.1549 233.714 64.9389 233.985 64.6659C234.256 64.3931 234.47 64.0686 234.614 63.7117C234.758 63.3549 234.828 62.9733 234.821 62.5888C234.828 62.2047 234.757 61.8233 234.613 61.4668C234.469 61.1103 234.255 60.7864 233.984 60.5136C233.713 60.2409 233.389 60.0252 233.033 59.8791C232.677 59.7329 232.295 59.6594 231.91 59.6628ZM237.801 62.5888C237.801 65.7723 235.341 68.3477 231.91 68.3477C228.48 68.3477 226.022 65.7723 226.022 62.5888C226.022 59.4053 228.483 56.833 231.91 56.833C235.338 56.833 237.801 59.4115 237.801 62.5888Z" fill="white"/>
<path d="M211.044 59.5572C210.324 59.3611 209.584 59.2488 208.838 59.2221C207.713 59.2221 207.1 59.5975 207.1 60.1312C207.1 60.8108 207.927 61.0621 208.388 61.1924L209.165 61.4375C210.991 62.0178 211.824 63.2651 211.824 64.6211C211.824 67.4136 209.361 68.3445 207.206 68.3445C206.186 68.3324 205.17 68.2285 204.17 68.0342V65.4744C205.034 65.7241 205.927 65.8628 206.826 65.887C208.229 65.887 208.87 65.4806 208.87 64.8476C208.87 64.286 208.313 63.9602 207.625 63.7399L207.025 63.5475C205.47 63.0541 204.151 62.1357 204.151 60.2926C204.151 58.2137 205.706 56.8174 208.307 56.8174C209.231 56.8301 210.15 56.9486 211.047 57.1711L211.044 59.5572Z" fill="white"/>
<path d="M165.544 68.115H164.321V57.0161H165.805V61.2081C166.102 60.7743 166.505 60.4237 166.976 60.1891C167.446 59.9545 167.97 59.8437 168.495 59.8676C169.01 59.8431 169.523 59.9433 169.992 60.1596C170.459 60.3756 170.868 60.7014 171.182 61.1088C171.749 61.8494 172.032 62.8309 172.032 64.0534C172.032 65.5015 171.646 66.6111 170.875 67.3828C170.548 67.7055 170.159 67.9583 169.731 68.1253C169.303 68.2922 168.846 68.3701 168.386 68.354C167.876 68.38 167.368 68.2748 166.91 68.048C166.453 67.8215 166.061 67.4811 165.774 67.0601L165.544 68.115ZM170.489 64.0131C170.489 63.0056 170.236 62.2506 169.73 61.748C169.525 61.5407 169.279 61.3784 169.007 61.2717C168.736 61.1646 168.445 61.1156 168.153 61.1274C167.812 61.115 167.472 61.182 167.161 61.3238C166.85 61.4656 166.576 61.6775 166.362 61.9435C165.921 62.5395 165.701 63.2699 165.74 64.01C165.74 65.037 165.995 65.8251 166.498 66.3681C166.707 66.6018 166.964 66.7867 167.252 66.9096C167.54 67.0324 167.852 67.0902 168.166 67.0787C168.508 67.0979 168.849 67.03 169.158 66.8813C169.466 66.7324 169.732 66.5078 169.929 66.2285C170.343 65.5664 170.539 64.7916 170.489 64.0131Z" fill="white"/>
<path d="M179.974 60.097L177.175 68.2203C176.805 69.3001 176.447 70.0355 176.108 70.4264C175.917 70.6508 175.679 70.8295 175.41 70.9493C175.141 71.069 174.848 71.1268 174.553 71.1184C174.23 71.11 173.908 71.0644 173.595 70.9819V69.7717C173.848 69.8388 174.108 69.8751 174.369 69.8803C174.51 69.8872 174.651 69.8608 174.78 69.8031C174.908 69.7454 175.021 69.6582 175.11 69.5483C175.395 69.1 175.619 68.6159 175.775 68.1086H175.296L172.345 60.0908H173.953L176.223 66.9171L178.494 60.0908L179.974 60.097Z" fill="white"/>
<path d="M113.895 15.8555H120.17L111.047 43.4334H103.848L97.0291 22.6226L90.2101 43.4334H83.1236L74 15.8555H80.4219L86.8956 36.8129L93.6886 15.8555H100.508L107.413 36.9251L113.895 15.8555Z" fill="white"/>
<path d="M147.084 31.8588H126.73C126.918 33.2809 127.452 34.6353 128.284 35.8035C129.021 36.8256 130.02 37.6305 131.176 38.134C132.352 38.6423 133.623 38.8981 134.904 38.8849C136.325 38.8795 137.734 38.6224 139.065 38.1253C140.445 37.6208 141.733 36.8948 142.88 35.9761L145.875 40.2919C144.348 41.6236 142.569 42.6362 140.644 43.2698C138.667 43.8903 136.605 44.1962 134.533 44.1761C131.981 44.2264 129.461 43.6074 127.222 42.3807C125.105 41.1942 123.371 39.4273 122.225 37.2881C120.991 34.9433 120.374 32.3238 120.429 29.675C120.376 27.0512 120.969 24.4546 122.156 22.1138C123.258 19.9846 124.94 18.2103 127.006 16.9952C129.175 15.7472 131.643 15.1145 134.145 15.1653C136.506 15.1 138.835 15.7166 140.854 16.9414C142.873 18.1661 144.497 19.9469 145.53 22.0706C146.67 24.4191 147.238 27.0044 147.187 29.6146C147.196 30.1929 147.161 30.9439 147.084 31.8588ZM141.041 27.2841C140.856 25.3941 140.045 23.62 138.737 22.2432C138.11 21.6556 137.371 21.1999 136.564 20.9033C135.758 20.6068 134.9 20.4754 134.041 20.5169C133.138 20.4756 132.235 20.6162 131.387 20.9306C130.539 21.2449 129.762 21.7266 129.104 22.3468C127.8 23.7034 126.968 25.4436 126.73 27.31L141.041 27.2841Z" fill="white"/>
<path d="M172.831 17.0123C174.931 18.2542 176.653 20.0446 177.812 22.1912C179.051 24.4791 179.681 27.0472 179.642 29.6489C179.681 32.2478 179.051 34.8132 177.812 37.098C176.653 39.2544 174.924 41.0519 172.815 42.2952C170.706 43.5385 168.297 44.18 165.848 44.15C164.13 44.186 162.427 43.8287 160.868 43.1055C159.439 42.4166 158.19 41.4062 157.217 40.1535V43.4335H151.175V4.1167H157.217V19.1356C158.194 17.8914 159.443 16.8875 160.868 16.2009C162.425 15.4706 164.129 15.1102 165.848 15.1479C168.303 15.1178 170.719 15.7628 172.831 17.0123ZM169.534 37.3051C170.787 36.5346 171.796 35.4241 172.443 34.1028C173.107 32.7104 173.452 31.1872 173.452 29.6446C173.452 28.102 173.107 26.5788 172.443 25.1864C171.793 23.8669 170.785 22.7571 169.534 21.9841C168.204 21.2233 166.699 20.823 165.167 20.823C163.634 20.823 162.129 21.2233 160.799 21.9841C159.545 22.7458 158.528 23.843 157.864 25.1519C157.146 26.5498 156.785 28.1035 156.811 29.6748C156.784 31.2435 157.146 32.7945 157.864 34.1891C158.528 35.498 159.545 36.5952 160.799 37.3569C162.129 38.1177 163.634 38.5179 165.167 38.5179C166.699 38.5179 168.204 38.1177 169.534 37.3569V37.3051Z" fill="white"/>
<path d="M209.455 31.8584H189.111C189.299 33.2805 189.832 34.6348 190.664 35.803C191.402 36.8252 192.401 37.6301 193.556 38.1336C194.733 38.6418 196.003 38.8977 197.285 38.8845C198.706 38.8778 200.114 38.6207 201.445 38.1249C202.825 37.6203 204.114 36.8944 205.26 35.9757L208.247 40.2914C206.724 41.6249 204.948 42.6377 203.025 43.2693C201.045 43.8894 198.98 44.1952 196.905 44.1757C194.353 44.2232 191.833 43.6043 189.594 42.3803C187.481 41.191 185.751 39.4245 184.605 37.2877C183.369 34.9435 182.748 32.3241 182.801 29.6746C182.749 27.0508 183.341 24.4543 184.527 22.1133C185.63 19.9842 187.311 18.2098 189.378 16.9948C191.559 15.7285 194.047 15.0865 196.568 15.139C198.929 15.0769 201.257 15.6949 203.275 16.9192C205.294 18.1436 206.918 19.9226 207.953 22.0443C209.094 24.3928 209.662 26.978 209.611 29.5883C209.576 30.1925 209.516 30.9434 209.455 31.8584ZM203.413 27.2837C203.214 25.4058 202.401 23.6461 201.1 22.2773C200.477 21.6864 199.742 21.2262 198.939 20.9237C198.135 20.6213 197.28 20.4828 196.422 20.5165C195.518 20.4742 194.615 20.6144 193.767 20.9288C192.918 21.2432 192.142 21.7253 191.484 22.3464C190.178 23.7009 189.345 25.4422 189.111 27.3096L203.413 27.2837Z" fill="white"/>
<path d="M238.156 43.4334H230.758L223.767 33.8437L216.862 43.4334H209.81L220.167 29.3553L209.974 15.8555H217.379L224.112 25.0654L230.845 15.8555H238L227.763 29.3035L238.156 43.4334Z" fill="white"/>
</g>
<defs>
<clipPath id="clip0_13250_6182">
<rect width="238" height="77" fill="white"/>
</clipPath>
</defs>
</svg>
