<svg width="378" height="24" viewBox="0 0 378 24" fill="none" xmlns="http://www.w3.org/2000/svg">
<path d="M19.9476 6.21875H23.0852L18.5234 20.0077H14.924L11.5145 9.60233L8.10505 20.0077H4.56179L0 6.21875H3.21095L6.44779 16.6975L9.84432 6.21875H13.2538L16.7064 16.7536L19.9476 6.21875Z" fill="black"/>
<path d="M36.5418 14.2202H26.3651C26.4591 14.9312 26.7258 15.6084 27.142 16.1925C27.5107 16.7036 28.0101 17.106 28.5878 17.3578C29.1762 17.6119 29.8113 17.7398 30.4522 17.7332C31.1626 17.7305 31.8669 17.602 32.5324 17.3534C33.2224 17.1012 33.8667 16.7382 34.44 16.2788L35.9376 18.4367C35.1739 19.1026 34.2846 19.6088 33.3222 19.9257C32.3337 20.2359 31.3026 20.3888 30.2666 20.3788C28.9906 20.404 27.7303 20.0945 26.6111 19.4811C25.5525 18.8879 24.6855 18.0044 24.1123 16.9348C23.4957 15.7624 23.1868 14.4527 23.2146 13.1283C23.1882 11.8164 23.4846 10.5181 24.0778 9.34766C24.629 8.28307 25.4698 7.3959 26.5032 6.78839C27.5876 6.16435 28.8216 5.848 30.0724 5.87344C31.2528 5.84078 32.4175 6.14909 33.4271 6.76145C34.4367 7.3738 35.2484 8.26423 35.7649 9.32608C36.3352 10.5003 36.6191 11.7929 36.5936 13.0981C36.5979 13.3872 36.5806 13.7627 36.5418 14.2202ZM33.5207 11.9328C33.428 10.9878 33.0224 10.1008 32.3684 9.41239C32.0549 9.11855 31.6855 8.89072 31.2821 8.74244C30.8788 8.59416 30.4498 8.52846 30.0206 8.54923C29.5688 8.52855 29.1175 8.59889 28.6934 8.75607C28.2693 8.91324 27.8812 9.15405 27.552 9.46418C26.9002 10.1425 26.484 11.0126 26.3651 11.9458L33.5207 11.9328Z" fill="black"/>
<path d="M49.4162 6.7974C50.466 7.41838 51.3269 8.31358 51.9064 9.38687C52.5261 10.5308 52.8411 11.8149 52.8214 13.1157C52.8412 14.4152 52.5261 15.6979 51.9064 16.8402C51.3268 17.9185 50.4627 18.8172 49.4081 19.4389C48.3536 20.0605 47.1488 20.3812 45.9247 20.3662C45.0657 20.3842 44.2139 20.2056 43.4345 19.844C42.7202 19.4996 42.0954 18.9944 41.6089 18.368V20.008H38.5879V0.349609H41.6089V7.85908C42.0974 7.23697 42.7219 6.73501 43.4345 6.39171C44.2129 6.02657 45.0652 5.84637 45.9247 5.86519C47.152 5.85017 48.3598 6.17265 49.4162 6.7974ZM47.7676 16.9438C48.3942 16.5586 48.8986 16.0033 49.222 15.3427C49.554 14.6464 49.7263 13.8849 49.7263 13.1136C49.7263 12.3422 49.554 11.5807 49.222 10.8845C48.8972 10.2247 48.3932 9.66981 47.7676 9.28329C47.1026 8.90289 46.3499 8.70278 45.5838 8.70278C44.8177 8.70278 44.0649 8.90289 43.4 9.28329C42.7728 9.66416 42.2645 10.2128 41.9326 10.8672C41.5737 11.5662 41.3928 12.343 41.4061 13.1287C41.3924 13.913 41.5733 14.6885 41.9326 15.3858C42.2645 16.0402 42.7728 16.5889 43.4 16.9697C44.0649 17.3501 44.8177 17.5502 45.5838 17.5502C46.3499 17.5502 47.1026 17.3501 47.7676 16.9697V16.9438Z" fill="black"/>
<path d="M67.7272 14.2202H57.5549C57.6488 14.9312 57.9155 15.6084 58.3317 16.1925C58.7004 16.7036 59.1998 17.1061 59.7775 17.3578C60.3659 17.6119 61.001 17.7398 61.6419 17.7333C62.3523 17.7299 63.0565 17.6014 63.7221 17.3535C64.4121 17.1012 65.0564 16.7382 65.6297 16.2788L67.123 18.4367C66.3615 19.1035 65.4735 19.6099 64.5119 19.9257C63.5219 20.2357 62.4894 20.3886 61.452 20.3788C60.1762 20.4026 58.9163 20.0932 57.7966 19.4812C56.7401 18.8865 55.8749 18.0033 55.302 16.9348C54.6841 15.7628 54.3737 14.453 54.4 13.1283C54.3738 11.8164 54.6702 10.5182 55.2632 9.34769C55.8144 8.2831 56.6552 7.39593 57.6887 6.78842C58.7792 6.15527 60.023 5.83427 61.2837 5.86053C62.4638 5.82948 63.6279 6.13846 64.6372 6.75063C65.6465 7.3628 66.4585 8.25233 66.9763 9.31316C67.5465 10.4874 67.8304 11.78 67.8049 13.0852C67.7876 13.3873 67.7574 13.7627 67.7272 14.2202ZM64.7061 11.9328C64.6066 10.9939 64.2 10.114 63.5495 9.42969C63.2381 9.13422 62.8707 8.90409 62.469 8.75288C62.0672 8.60167 61.6393 8.53244 61.2104 8.54927C60.7585 8.52809 60.307 8.5982 59.8829 8.7554C59.4587 8.9126 59.0706 9.15367 58.7417 9.46421C58.0884 10.1414 57.672 11.0121 57.5549 11.9458L64.7061 11.9328Z" fill="black"/>
<path d="M82.0773 20.0077H78.3787L74.8829 15.2129L71.4303 20.0077H67.9043L73.0832 12.9686L67.9863 6.21875H71.6892L75.0556 10.8237L78.4219 6.21875H81.9997L76.8811 12.9427L82.0773 20.0077Z" fill="black"/>
<path d="M102.381 6.23047L97.4472 20.0099H95.0175L90 6.23047H92.0636L96.2407 18.1709L100.468 6.23047H102.381Z" fill="black"/>
<path d="M103.13 8.3939V6.23047H105.193V8.3939H103.13ZM103.246 20.0099V10.0581H105.085V20.0099H103.246Z" fill="black"/>
<path d="M114.747 20.0099L114.422 18.612C113.757 19.5855 112.658 20.2928 111.111 20.2928C108.606 20.2928 106.709 18.4539 106.709 15.0922C106.709 11.5309 108.565 9.77517 111.227 9.77517C112.742 9.77517 113.773 10.4242 114.422 11.3229V6.23047H116.261V20.0099H114.747ZM111.51 18.7284C113.407 18.7284 114.514 17.239 114.514 15.1505C114.514 12.7208 113.349 11.3395 111.51 11.3395C109.771 11.3395 108.623 12.5294 108.623 15.1255C108.623 17.5219 109.846 18.7284 111.51 18.7284Z" fill="black"/>
<path d="M126.955 16.8149C126.688 18.7453 125.057 20.3013 122.594 20.3013C119.957 20.3013 117.885 18.4874 117.885 15.1174C117.885 11.789 119.757 9.77539 122.569 9.77539C124.824 9.77539 126.547 10.9819 126.871 13.0122H124.841C124.591 11.9222 123.768 11.3314 122.603 11.3314C120.98 11.3314 119.832 12.5379 119.832 15.1756C119.832 17.6053 121.072 18.7536 122.628 18.7536C123.851 18.7536 124.749 18.063 124.941 16.8232H126.955V16.8149Z" fill="black"/>
<path d="M128.204 12.8287C128.395 10.9898 129.984 9.7666 132.472 9.7666C135.077 9.7666 136.524 11.1645 136.524 13.2115V20.0013H135.01L134.777 18.645C134.128 19.5603 133.055 20.2925 131.449 20.2925C129.269 20.2925 128.004 19.0694 128.004 17.4385C128.004 15.6245 129.094 14.5844 131.773 14.1267L134.677 13.6275V13.1366C134.677 11.9134 133.853 11.2228 132.381 11.2228C130.966 11.2228 130.276 11.8385 130.142 12.8287H128.204ZM134.686 16.3484V15.067L132.214 15.508C130.434 15.8159 129.959 16.3734 129.959 17.2471C129.959 18.204 130.65 18.7365 131.89 18.7365C133.288 18.7448 134.686 17.7131 134.686 16.3484Z" fill="black"/>
<path d="M141.558 15.4752C139.228 14.9593 138.288 14.0773 138.288 12.6045C138.288 10.8987 139.644 9.77539 142.149 9.77539C144.37 9.77539 145.901 10.8654 146.226 12.6877H144.354C144.137 11.7641 143.397 11.2232 142.132 11.2232C140.751 11.2232 140.143 11.7391 140.143 12.4298C140.143 13.1953 140.543 13.5364 142.456 13.9608C144.77 14.4767 146.301 15.1257 146.301 17.1727C146.301 18.9866 144.786 20.293 142.149 20.293C139.661 20.293 138.038 19.0698 137.863 17.156H139.735C139.944 18.3459 140.767 18.8368 142.165 18.8368C143.655 18.8368 144.445 18.1712 144.445 17.3058C144.445 16.1409 143.338 15.8746 141.558 15.4752Z" fill="black"/>
<path d="M152.368 20.1013C151.869 20.2345 151.469 20.2927 151.011 20.2927C149.247 20.2927 148.349 19.186 148.349 17.5385V11.6223H146.876V10.058H148.349L148.465 7.66992H150.188V10.058H152.334V11.6307H150.188V17.5801C150.188 18.329 150.554 18.6868 151.244 18.6868C151.569 18.6868 151.819 18.6701 152.376 18.537V20.1013H152.368Z" fill="black"/>
</svg>
