<svg width="239" height="67" viewBox="0 0 239 67" fill="none" xmlns="http://www.w3.org/2000/svg">
<path d="M19.3874 55.9291C8.41432 55.9291 4.67963 42.0631 3.84278 39.3654C2.49428 34.9557 1.55427 30.4314 1.03464 25.8495C0.64453 22.1549 3.61025 19.5838 6.86554 19.5838C8.28408 19.5276 9.6695 20.0217 10.7324 20.9629C11.7953 21.9041 12.4534 23.2195 12.5694 24.6345C12.9818 28.5149 13.7651 32.3468 14.9087 36.0776C16.7585 41.9776 18.7208 44.2463 20.1339 44.2463C22.416 44.2463 23.8084 38.3896 25.0394 32.8129C25.9462 28.7043 26.9266 24.5641 28.8619 20.8864C32.2287 14.4888 37.3168 13 41.7122 13C51.3507 13 56.1745 24.1581 56.1745 27.049C56.2196 27.8226 56.1073 28.5973 55.8445 29.3263C55.5817 30.0553 55.1737 30.7233 54.6453 31.2902C54.1169 31.8569 53.4791 32.3107 52.7703 32.6239C52.0615 32.9371 51.2966 33.1034 50.5218 33.1125C46.7834 33.1125 45.5162 30.6096 44.4495 28.4159C43.4901 26.4422 42.488 24.8012 41.1924 24.8012C40.9656 24.8138 40.7436 24.8722 40.54 24.9729C40.3362 25.0737 40.155 25.2145 40.0072 25.3871C36.7872 28.6573 35.7074 45.7652 29.269 52.3043C25.6998 55.9291 21.8162 55.9291 19.3874 55.9291Z" fill="url(#paint0_linear_13250_6175)"/>
<path d="M19.3874 55.9291C8.41432 55.9291 4.67963 42.0631 3.84278 39.3654C2.49428 34.9557 1.55427 30.4314 1.03464 25.8495C0.64453 22.1549 3.61025 19.5838 6.86554 19.5838C8.28408 19.5276 9.6695 20.0217 10.7324 20.9629C11.7953 21.9041 12.4534 23.2195 12.5694 24.6345C12.9818 28.5149 13.7651 32.3468 14.9087 36.0776C16.7585 41.9776 18.7208 44.2463 20.1339 44.2463C22.416 44.2463 23.8084 38.3896 25.0394 32.8129C25.9462 28.7043 26.9266 24.5641 28.8619 20.8864C32.2287 14.4888 37.3168 13 41.7122 13C51.3507 13 56.1745 24.1581 56.1745 27.049C56.2196 27.8226 56.1073 28.5973 55.8445 29.3263C55.5817 30.0553 55.1737 30.7233 54.6453 31.2902C54.1169 31.8569 53.4791 32.3107 52.7703 32.6239C52.0615 32.9371 51.2966 33.1034 50.5218 33.1125C46.7834 33.1125 45.5162 30.6096 44.4495 28.4159C43.4901 26.4422 42.488 24.8012 41.1924 24.8012C40.9656 24.8138 40.7436 24.8722 40.54 24.9729C40.3362 25.0737 40.155 25.2145 40.0072 25.3871C36.7872 28.6573 35.7074 45.7652 29.269 52.3043C25.6998 55.9291 21.8162 55.9291 19.3874 55.9291Z" fill="url(#paint1_radial_13250_6175)"/>
<path d="M19.3874 55.9291C8.41432 55.9291 4.67963 42.0631 3.84278 39.3654C2.49428 34.9557 1.55427 30.4314 1.03464 25.8495C0.64453 22.1549 3.61025 19.5838 6.86554 19.5838C8.28408 19.5276 9.6695 20.0217 10.7324 20.9629C11.7953 21.9041 12.4534 23.2195 12.5694 24.6345C12.9818 28.5149 13.7651 32.3468 14.9087 36.0776C16.7585 41.9776 18.7208 44.2463 20.1339 44.2463C22.416 44.2463 23.8084 38.3896 25.0394 32.8129C25.9462 28.7043 26.9266 24.5641 28.8619 20.8864C32.2287 14.4888 37.3168 13 41.7122 13C51.3507 13 56.1745 24.1581 56.1745 27.049C56.2196 27.8226 56.1073 28.5973 55.8445 29.3263C55.5817 30.0553 55.1737 30.7233 54.6453 31.2902C54.1169 31.8569 53.4791 32.3107 52.7703 32.6239C52.0615 32.9371 51.2966 33.1034 50.5218 33.1125C46.7834 33.1125 45.5162 30.6096 44.4495 28.4159C43.4901 26.4422 42.488 24.8012 41.1924 24.8012C40.9656 24.8138 40.7436 24.8722 40.54 24.9729C40.3362 25.0737 40.155 25.2145 40.0072 25.3871C36.7872 28.6573 35.7074 45.7652 29.269 52.3043C25.6998 55.9291 21.8162 55.9291 19.3874 55.9291Z" fill="url(#paint2_radial_13250_6175)"/>
<path d="M19.3874 55.9291C8.41432 55.9291 4.67963 42.0631 3.84278 39.3654C2.49428 34.9557 1.55427 30.4314 1.03464 25.8495C0.64453 22.1549 3.61025 19.5838 6.86554 19.5838C8.28408 19.5276 9.6695 20.0217 10.7324 20.9629C11.7953 21.9041 12.4534 23.2195 12.5694 24.6345C12.9818 28.5149 13.7651 32.3468 14.9087 36.0776C16.7585 41.9776 18.7208 44.2463 20.1339 44.2463C22.416 44.2463 23.8084 38.3896 25.0394 32.8129C25.9462 28.7043 26.9266 24.5641 28.8619 20.8864C32.2287 14.4888 37.3168 13 41.7122 13C51.3507 13 56.1745 24.1581 56.1745 27.049C56.2196 27.8226 56.1073 28.5973 55.8445 29.3263C55.5817 30.0553 55.1737 30.7233 54.6453 31.2902C54.1169 31.8569 53.4791 32.3107 52.7703 32.6239C52.0615 32.9371 51.2966 33.1034 50.5218 33.1125C46.7834 33.1125 45.5162 30.6096 44.4495 28.4159C43.4901 26.4422 42.488 24.8012 41.1924 24.8012C40.9656 24.8138 40.7436 24.8722 40.54 24.9729C40.3362 25.0737 40.155 25.2145 40.0072 25.3871C36.7872 28.6573 35.7074 45.7652 29.269 52.3043C25.6998 55.9291 21.8162 55.9291 19.3874 55.9291Z" fill="url(#paint3_radial_13250_6175)"/>
<path d="M19.3874 55.9291C8.41432 55.9291 4.67963 42.0631 3.84278 39.3654C2.49428 34.9557 1.55427 30.4314 1.03464 25.8495C0.64453 22.1549 3.61025 19.5838 6.86554 19.5838C8.28408 19.5276 9.6695 20.0217 10.7324 20.9629C11.7953 21.9041 12.4534 23.2195 12.5694 24.6345C12.9818 28.5149 13.7651 32.3468 14.9087 36.0776C16.7585 41.9776 18.7208 44.2463 20.1339 44.2463C22.416 44.2463 23.8084 38.3896 25.0394 32.8129C25.9462 28.7043 26.9266 24.5641 28.8619 20.8864C32.2287 14.4888 37.3168 13 41.7122 13C51.3507 13 56.1745 24.1581 56.1745 27.049C56.2196 27.8226 56.1073 28.5973 55.8445 29.3263C55.5817 30.0553 55.1737 30.7233 54.6453 31.2902C54.1169 31.8569 53.4791 32.3107 52.7703 32.6239C52.0615 32.9371 51.2966 33.1034 50.5218 33.1125C46.7834 33.1125 45.5162 30.6096 44.4495 28.4159C43.4901 26.4422 42.488 24.8012 41.1924 24.8012C40.9656 24.8138 40.7436 24.8722 40.54 24.9729C40.3362 25.0737 40.155 25.2145 40.0072 25.3871C36.7872 28.6573 35.7074 45.7652 29.269 52.3043C25.6998 55.9291 21.8162 55.9291 19.3874 55.9291Z" fill="url(#paint4_radial_13250_6175)"/>
<path d="M19.3874 55.9291C8.41432 55.9291 4.67963 42.0631 3.84278 39.3654C2.49428 34.9557 1.55427 30.4314 1.03464 25.8495C0.64453 22.1549 3.61025 19.5838 6.86554 19.5838C8.28408 19.5276 9.6695 20.0217 10.7324 20.9629C11.7953 21.9041 12.4534 23.2195 12.5694 24.6345C12.9818 28.5149 13.7651 32.3468 14.9087 36.0776C16.7585 41.9776 18.7208 44.2463 20.1339 44.2463C22.416 44.2463 23.8084 38.3896 25.0394 32.8129C25.9462 28.7043 26.9266 24.5641 28.8619 20.8864C32.2287 14.4888 37.3168 13 41.7122 13C51.3507 13 56.1745 24.1581 56.1745 27.049C56.2196 27.8226 56.1073 28.5973 55.8445 29.3263C55.5817 30.0553 55.1737 30.7233 54.6453 31.2902C54.1169 31.8569 53.4791 32.3107 52.7703 32.6239C52.0615 32.9371 51.2966 33.1034 50.5218 33.1125C46.7834 33.1125 45.5162 30.6096 44.4495 28.4159C43.4901 26.4422 42.488 24.8012 41.1924 24.8012C40.9656 24.8138 40.7436 24.8722 40.54 24.9729C40.3362 25.0737 40.155 25.2145 40.0072 25.3871C36.7872 28.6573 35.7074 45.7652 29.269 52.3043C25.6998 55.9291 21.8162 55.9291 19.3874 55.9291Z" fill="url(#paint5_radial_13250_6175)"/>
<path d="M19.3874 55.9291C8.41432 55.9291 4.67963 42.0631 3.84278 39.3654C2.49428 34.9557 1.55427 30.4314 1.03464 25.8495C0.64453 22.1549 3.61025 19.5838 6.86554 19.5838C8.28408 19.5276 9.6695 20.0217 10.7324 20.9629C11.7953 21.9041 12.4534 23.2195 12.5694 24.6345C12.9818 28.5149 13.7651 32.3468 14.9087 36.0776C16.7585 41.9776 18.7208 44.2463 20.1339 44.2463C22.416 44.2463 23.8084 38.3896 25.0394 32.8129C25.9462 28.7043 26.9266 24.5641 28.8619 20.8864C32.2287 14.4888 37.3168 13 41.7122 13C51.3507 13 56.1745 24.1581 56.1745 27.049C56.2196 27.8226 56.1073 28.5973 55.8445 29.3263C55.5817 30.0553 55.1737 30.7233 54.6453 31.2902C54.1169 31.8569 53.4791 32.3107 52.7703 32.6239C52.0615 32.9371 51.2966 33.1034 50.5218 33.1125C46.7834 33.1125 45.5162 30.6096 44.4495 28.4159C43.4901 26.4422 42.488 24.8012 41.1924 24.8012C40.9656 24.8138 40.7436 24.8722 40.54 24.9729C40.3362 25.0737 40.155 25.2145 40.0072 25.3871C36.7872 28.6573 35.7074 45.7652 29.269 52.3043C25.6998 55.9291 21.8162 55.9291 19.3874 55.9291Z" fill="url(#paint6_radial_13250_6175)"/>
<path d="M19.3874 55.9291C8.41432 55.9291 4.67963 42.0631 3.84278 39.3654C2.49428 34.9557 1.55427 30.4314 1.03464 25.8495C0.64453 22.1549 3.61025 19.5838 6.86554 19.5838C8.28408 19.5276 9.6695 20.0217 10.7324 20.9629C11.7953 21.9041 12.4534 23.2195 12.5694 24.6345C12.9818 28.5149 13.7651 32.3468 14.9087 36.0776C16.7585 41.9776 18.7208 44.2463 20.1339 44.2463C22.416 44.2463 23.8084 38.3896 25.0394 32.8129C25.9462 28.7043 26.9266 24.5641 28.8619 20.8864C32.2287 14.4888 37.3168 13 41.7122 13C51.3507 13 56.1745 24.1581 56.1745 27.049C56.2196 27.8226 56.1073 28.5973 55.8445 29.3263C55.5817 30.0553 55.1737 30.7233 54.6453 31.2902C54.1169 31.8569 53.4791 32.3107 52.7703 32.6239C52.0615 32.9371 51.2966 33.1034 50.5218 33.1125C46.7834 33.1125 45.5162 30.6096 44.4495 28.4159C43.4901 26.4422 42.488 24.8012 41.1924 24.8012C40.9656 24.8138 40.7436 24.8722 40.54 24.9729C40.3362 25.0737 40.155 25.2145 40.0072 25.3871C36.7872 28.6573 35.7074 45.7652 29.269 52.3043C25.6998 55.9291 21.8162 55.9291 19.3874 55.9291Z" fill="url(#paint7_linear_13250_6175)"/>
<path d="M41.711 13C37.3156 13 32.2275 14.4888 28.8603 20.8868C26.9249 24.5643 25.9444 28.7044 25.0377 32.8133C24.7392 34.1653 24.4311 35.5336 24.1035 36.8312V55.42C26.0709 54.8577 27.8534 53.7824 29.2683 52.3042C35.7061 45.7655 36.7861 28.6574 40.0062 25.3873C40.154 25.2147 40.3352 25.0739 40.5389 24.9731C40.7426 24.8724 40.9645 24.814 41.1914 24.8014C42.487 24.8014 43.489 26.4424 44.4485 28.4161C45.5151 30.6098 46.7824 33.1127 50.5208 33.1127C51.2956 33.1036 52.0605 32.9373 52.7693 32.6241C53.478 32.3109 54.1158 31.8571 54.6443 31.2904C55.1726 30.7235 55.5806 30.0555 55.8434 29.3265C56.1063 28.5975 56.2186 27.8228 56.1735 27.0492C56.1732 24.1581 51.3496 13 41.711 13Z" fill="url(#paint8_radial_13250_6175)"/>
<path d="M19.3874 55.9291C8.41432 55.9291 4.67963 42.0631 3.84278 39.3654C2.49428 34.9557 1.55427 30.4314 1.03464 25.8495C0.64453 22.1549 3.61025 19.5838 6.86554 19.5838C8.28408 19.5276 9.6695 20.0217 10.7324 20.9629C11.7953 21.9041 12.4534 23.2195 12.5694 24.6345C12.9818 28.5149 13.7651 32.3468 14.9087 36.0776C16.7585 41.9776 18.7208 44.2463 20.1339 44.2463C22.416 44.2463 23.8084 38.3896 25.0394 32.8129C25.9462 28.7043 26.9266 24.5641 28.8619 20.8864C32.2287 14.4888 37.3168 13 41.7122 13C51.3507 13 56.1745 24.1581 56.1745 27.049C56.2196 27.8226 56.1073 28.5973 55.8445 29.3263C55.5817 30.0553 55.1737 30.7233 54.6453 31.2902C54.1169 31.8569 53.4791 32.3107 52.7703 32.6239C52.0615 32.9371 51.2966 33.1034 50.5218 33.1125C46.7834 33.1125 45.5162 30.6096 44.4495 28.4159C43.4901 26.4422 42.488 24.8012 41.1924 24.8012C40.9656 24.8138 40.7436 24.8722 40.54 24.9729C40.3362 25.0737 40.155 25.2145 40.0072 25.3871C36.7872 28.6573 35.7074 45.7652 29.269 52.3043C25.6998 55.9291 21.8162 55.9291 19.3874 55.9291Z" fill="url(#paint9_radial_13250_6175)"/>
<path d="M19.3874 55.9291C8.41432 55.9291 4.67963 42.0631 3.84278 39.3654C2.49428 34.9557 1.55427 30.4314 1.03464 25.8495C0.64453 22.1549 3.61025 19.5838 6.86554 19.5838C8.28408 19.5276 9.6695 20.0217 10.7324 20.9629C11.7953 21.9041 12.4534 23.2195 12.5694 24.6345C12.9818 28.5149 13.7651 32.3468 14.9087 36.0776C16.7585 41.9776 18.7208 44.2463 20.1339 44.2463C22.416 44.2463 23.8084 38.3896 25.0394 32.8129C25.9462 28.7043 26.9266 24.5641 28.8619 20.8864C32.2287 14.4888 37.3168 13 41.7122 13C51.3507 13 56.1745 24.1581 56.1745 27.049C56.2196 27.8226 56.1073 28.5973 55.8445 29.3263C55.5817 30.0553 55.1737 30.7233 54.6453 31.2902C54.1169 31.8569 53.4791 32.3107 52.7703 32.6239C52.0615 32.9371 51.2966 33.1034 50.5218 33.1125C46.7834 33.1125 45.5162 30.6096 44.4495 28.4159C43.4901 26.4422 42.488 24.8012 41.1924 24.8012C40.9656 24.8138 40.7436 24.8722 40.54 24.9729C40.3362 25.0737 40.155 25.2145 40.0072 25.3871C36.7872 28.6573 35.7074 45.7652 29.269 52.3043C25.6998 55.9291 21.8162 55.9291 19.3874 55.9291Z" fill="url(#paint10_radial_13250_6175)"/>
<path d="M19.3874 55.9291C8.41432 55.9291 4.67963 42.0631 3.84278 39.3654C2.49428 34.9557 1.55427 30.4314 1.03464 25.8495C0.64453 22.1549 3.61025 19.5838 6.86554 19.5838C8.28408 19.5276 9.6695 20.0217 10.7324 20.9629C11.7953 21.9041 12.4534 23.2195 12.5694 24.6345C12.9818 28.5149 13.7651 32.3468 14.9087 36.0776C16.7585 41.9776 18.7208 44.2463 20.1339 44.2463C22.416 44.2463 23.8084 38.3896 25.0394 32.8129C25.9462 28.7043 26.9266 24.5641 28.8619 20.8864C32.2287 14.4888 37.3168 13 41.7122 13C51.3507 13 56.1745 24.1581 56.1745 27.049C56.2196 27.8226 56.1073 28.5973 55.8445 29.3263C55.5817 30.0553 55.1737 30.7233 54.6453 31.2902C54.1169 31.8569 53.4791 32.3107 52.7703 32.6239C52.0615 32.9371 51.2966 33.1034 50.5218 33.1125C46.7834 33.1125 45.5162 30.6096 44.4495 28.4159C43.4901 26.4422 42.488 24.8012 41.1924 24.8012C40.9656 24.8138 40.7436 24.8722 40.54 24.9729C40.3362 25.0737 40.155 25.2145 40.0072 25.3871C36.7872 28.6573 35.7074 45.7652 29.269 52.3043C25.6998 55.9291 21.8162 55.9291 19.3874 55.9291Z" fill="url(#paint11_radial_13250_6175)"/>
<path d="M19.3874 55.9291C8.41432 55.9291 4.67963 42.0631 3.84278 39.3654C2.49428 34.9557 1.55427 30.4314 1.03464 25.8495C0.64453 22.1549 3.61025 19.5838 6.86554 19.5838C8.28408 19.5276 9.6695 20.0217 10.7324 20.9629C11.7953 21.9041 12.4534 23.2195 12.5694 24.6345C12.9818 28.5149 13.7651 32.3468 14.9087 36.0776C16.7585 41.9776 18.7208 44.2463 20.1339 44.2463C22.416 44.2463 23.8084 38.3896 25.0394 32.8129C25.9462 28.7043 26.9266 24.5641 28.8619 20.8864C32.2287 14.4888 37.3168 13 41.7122 13C51.3507 13 56.1745 24.1581 56.1745 27.049C56.2196 27.8226 56.1073 28.5973 55.8445 29.3263C55.5817 30.0553 55.1737 30.7233 54.6453 31.2902C54.1169 31.8569 53.4791 32.3107 52.7703 32.6239C52.0615 32.9371 51.2966 33.1034 50.5218 33.1125C46.7834 33.1125 45.5162 30.6096 44.4495 28.4159C43.4901 26.4422 42.488 24.8012 41.1924 24.8012C40.9656 24.8138 40.7436 24.8722 40.54 24.9729C40.3362 25.0737 40.155 25.2145 40.0072 25.3871C36.7872 28.6573 35.7074 45.7652 29.269 52.3043C25.6998 55.9291 21.8162 55.9291 19.3874 55.9291Z" fill="url(#paint12_radial_13250_6175)"/>
<path d="M19.3874 55.9291C8.41432 55.9291 4.67963 42.0631 3.84278 39.3654C2.49428 34.9557 1.55427 30.4314 1.03464 25.8495C0.64453 22.1549 3.61025 19.5838 6.86554 19.5838C8.28408 19.5276 9.6695 20.0217 10.7324 20.9629C11.7953 21.9041 12.4534 23.2195 12.5694 24.6345C12.9818 28.5149 13.7651 32.3468 14.9087 36.0776C16.7585 41.9776 18.7208 44.2463 20.1339 44.2463C22.416 44.2463 23.8084 38.3896 25.0394 32.8129C25.9462 28.7043 26.9266 24.5641 28.8619 20.8864C32.2287 14.4888 37.3168 13 41.7122 13C51.3507 13 56.1745 24.1581 56.1745 27.049C56.2196 27.8226 56.1073 28.5973 55.8445 29.3263C55.5817 30.0553 55.1737 30.7233 54.6453 31.2902C54.1169 31.8569 53.4791 32.3107 52.7703 32.6239C52.0615 32.9371 51.2966 33.1034 50.5218 33.1125C46.7834 33.1125 45.5162 30.6096 44.4495 28.4159C43.4901 26.4422 42.488 24.8012 41.1924 24.8012C40.9656 24.8138 40.7436 24.8722 40.54 24.9729C40.3362 25.0737 40.155 25.2145 40.0072 25.3871C36.7872 28.6573 35.7074 45.7652 29.269 52.3043C25.6998 55.9291 21.8162 55.9291 19.3874 55.9291Z" fill="url(#paint13_radial_13250_6175)"/>
<path d="M19.3874 55.9291C8.41432 55.9291 4.67963 42.0631 3.84278 39.3654C2.49428 34.9557 1.55427 30.4314 1.03464 25.8495C0.64453 22.1549 3.61025 19.5838 6.86554 19.5838C8.28408 19.5276 9.6695 20.0217 10.7324 20.9629C11.7953 21.9041 12.4534 23.2195 12.5694 24.6345C12.9818 28.5149 13.7652 32.3468 14.9087 36.0776C16.7585 41.9776 18.7208 44.2463 20.1339 44.2463C22.416 44.2463 23.8084 38.3896 25.0394 32.8129C25.9462 28.7043 26.9266 24.5641 28.8619 20.8864C32.2287 14.4888 37.3168 13 41.7122 13C51.3507 13 56.1745 24.1581 56.1745 27.049C56.2196 27.8226 56.1073 28.5973 55.8445 29.3263C55.5817 30.0553 55.1737 30.7233 54.6453 31.2902C54.1169 31.8569 53.4791 32.3107 52.7703 32.6239C52.0615 32.9371 51.2966 33.1034 50.5218 33.1125C46.7834 33.1125 45.5162 30.6096 44.4495 28.4159C43.4901 26.4422 42.488 24.8012 41.1924 24.8012C40.9656 24.8138 40.7436 24.8722 40.54 24.9729C40.3362 25.0737 40.155 25.2145 40.0072 25.3871C36.7872 28.6573 35.7074 45.7652 29.269 52.3043C25.6998 55.9291 21.8162 55.9291 19.3874 55.9291Z" fill="url(#paint14_linear_13250_6175)"/>
<path d="M54.3963 19.5839C53.9598 19.5835 53.5245 19.6255 53.0962 19.7093C55.1336 22.6448 56.153 25.7202 56.153 27.0489C56.1971 28.0991 55.956 29.1416 55.4554 30.0658C54.9547 30.9901 54.2132 31.7615 53.3095 32.2983C52.4059 32.8351 50.8414 33.0948 50.3418 33.0948C49.8424 33.0948 48.2182 32.7919 47.3171 32.2507V32.3746C47.0769 33.3334 46.8873 34.3828 46.5591 35.404C45.9225 37.4456 45.1229 39.4327 44.1679 41.3461C43.1883 43.2172 42.2182 44.3119 41.062 44.2545C39.7472 44.1892 38.6812 42.4958 37.3561 37.7096C36.9288 36.1665 36.5332 34.4745 36.1665 32.8132C35.257 28.6924 34.1406 24.5486 32.2318 20.8866C31.0747 18.5113 29.2706 16.5109 27.0269 15.1157C24.7832 13.7206 22.1913 12.9872 19.5492 13.0002C15.6114 13.0002 12.6695 14.8631 10.3583 17.2101C9.60684 17.9994 8.92528 18.8525 8.32129 19.7596C9.45896 20.0042 10.4863 20.6118 11.2486 21.491C12.0109 22.3703 12.4667 23.4734 12.5475 24.6343C12.9053 27.9944 13.5388 31.3195 14.4414 34.5757C15.0971 32.4733 15.8889 30.4157 16.8119 28.4161C17.2699 27.3756 17.8868 26.4127 18.6407 25.5618C18.8081 25.3566 19.015 25.1869 19.2491 25.0631C19.4832 24.9392 19.7398 24.8635 20.0037 24.8404C20.4433 24.8404 21.9442 25.2425 23.4055 30.3662C25.2177 36.7195 26.5664 46.831 31.7047 52.1997C33.971 54.5679 37.1425 56.1 41.5379 56.1C43.2923 56.0926 45.0269 55.7291 46.6366 55.0315C48.2464 54.334 49.6977 53.3169 50.9028 52.0419C54.6723 48.1595 56.7378 41.7408 57.4746 39.3655C58.8179 34.9576 59.7394 30.432 60.2267 25.8497C60.6166 22.155 57.5018 19.5839 54.3963 19.5839Z" fill="#EFEFEF"/>
<path d="M54.3963 19.5839C53.9598 19.5835 53.5245 19.6255 53.0962 19.7093C55.1336 22.6448 56.153 25.7202 56.153 27.0489C56.1971 28.0991 55.956 29.1416 55.4554 30.0658C54.9547 30.9901 54.2132 31.7615 53.3095 32.2983C52.4059 32.8351 50.8414 33.0948 50.3418 33.0948C49.8424 33.0948 48.2182 32.7919 47.3171 32.2507V32.3746C47.0769 33.3334 46.8873 34.3828 46.5591 35.404C45.9225 37.4456 45.1229 39.4327 44.1679 41.3461C43.1883 43.2172 42.2182 44.3119 41.062 44.2545C39.7472 44.1892 38.6812 42.4958 37.3561 37.7096C36.9288 36.1665 36.5332 34.4745 36.1665 32.8132C35.257 28.6924 34.1406 24.5486 32.2318 20.8866C31.0747 18.5113 29.2706 16.5109 27.0269 15.1157C24.7832 13.7206 22.1913 12.9872 19.5492 13.0002C15.6114 13.0002 12.6695 14.8631 10.3583 17.2101C9.60684 17.9994 8.92528 18.8525 8.32129 19.7596C9.45896 20.0042 10.4863 20.6118 11.2486 21.491C12.0109 22.3703 12.4667 23.4734 12.5475 24.6343C12.9053 27.9944 13.5388 31.3195 14.4414 34.5757C15.0971 32.4733 15.8889 30.4157 16.8119 28.4161C17.2699 27.3756 17.8868 26.4127 18.6407 25.5618C18.8081 25.3566 19.015 25.1869 19.2491 25.0631C19.4832 24.9392 19.7398 24.8635 20.0037 24.8404C20.4433 24.8404 21.9442 25.2425 23.4055 30.3662C25.2177 36.7195 26.5664 46.831 31.7047 52.1997C33.971 54.5679 37.1425 56.1 41.5379 56.1C43.2923 56.0926 45.0269 55.7291 46.6366 55.0315C48.2464 54.334 49.6977 53.3169 50.9028 52.0419C54.6723 48.1595 56.7378 41.7408 57.4746 39.3655C58.8179 34.9576 59.7394 30.432 60.2267 25.8497C60.6166 22.155 57.5018 19.5839 54.3963 19.5839Z" fill="url(#paint15_radial_13250_6175)"/>
<path d="M54.3963 19.5839C53.9598 19.5835 53.5245 19.6255 53.0962 19.7093C55.1336 22.6448 56.153 25.7202 56.153 27.0489C56.1971 28.0991 55.956 29.1416 55.4554 30.0658C54.9547 30.9901 54.2132 31.7615 53.3095 32.2983C52.4059 32.8351 50.8414 33.0948 50.3418 33.0948C49.8424 33.0948 48.2182 32.7919 47.3171 32.2507V32.3746C47.0769 33.3334 46.8873 34.3828 46.5591 35.404C45.9225 37.4456 45.1229 39.4327 44.1679 41.3461C43.1883 43.2172 42.2182 44.3119 41.062 44.2545C39.7472 44.1892 38.6812 42.4958 37.3561 37.7096C36.9288 36.1665 36.5332 34.4745 36.1665 32.8132C35.257 28.6924 34.1406 24.5486 32.2318 20.8866C31.0747 18.5113 29.2706 16.5109 27.0269 15.1157C24.7832 13.7206 22.1913 12.9872 19.5492 13.0002C15.6114 13.0002 12.6695 14.8631 10.3583 17.2101C9.60684 17.9994 8.92528 18.8525 8.32129 19.7596C9.45896 20.0042 10.4863 20.6118 11.2486 21.491C12.0109 22.3703 12.4667 23.4734 12.5475 24.6343C12.9053 27.9944 13.5388 31.3195 14.4414 34.5757C15.0971 32.4733 15.8889 30.4157 16.8119 28.4161C17.2699 27.3756 17.8868 26.4127 18.6407 25.5618C18.8081 25.3566 19.015 25.1869 19.2491 25.0631C19.4832 24.9392 19.7398 24.8635 20.0037 24.8404C20.4433 24.8404 21.9442 25.2425 23.4055 30.3662C25.2177 36.7195 26.5664 46.831 31.7047 52.1997C33.971 54.5679 37.1425 56.1 41.5379 56.1C43.2923 56.0926 45.0269 55.7291 46.6366 55.0315C48.2464 54.334 49.6977 53.3169 50.9028 52.0419C54.6723 48.1595 56.7378 41.7408 57.4746 39.3655C58.8179 34.9576 59.7394 30.432 60.2267 25.8497C60.6166 22.155 57.5018 19.5839 54.3963 19.5839Z" fill="url(#paint16_radial_13250_6175)"/>
<path d="M54.3963 19.5839C53.9598 19.5835 53.5245 19.6255 53.0962 19.7093C55.1336 22.6448 56.153 25.7202 56.153 27.0489C56.1971 28.0991 55.956 29.1416 55.4554 30.0658C54.9547 30.9901 54.2132 31.7615 53.3095 32.2983C52.4059 32.8351 50.8414 33.0948 50.3418 33.0948C49.8424 33.0948 48.2182 32.7919 47.3171 32.2507V32.3746C47.0769 33.3334 46.8873 34.3828 46.5591 35.404C45.9225 37.4456 45.1229 39.4327 44.1679 41.3461C43.1883 43.2172 42.2182 44.3119 41.062 44.2545C39.7472 44.1892 38.6812 42.4958 37.3561 37.7096C36.9288 36.1665 36.5332 34.4745 36.1665 32.8132C35.257 28.6924 34.1406 24.5486 32.2318 20.8866C31.0747 18.5113 29.2706 16.5109 27.0269 15.1157C24.7832 13.7206 22.1913 12.9872 19.5492 13.0002C15.6114 13.0002 12.6695 14.8631 10.3583 17.2101C9.60684 17.9994 8.92528 18.8525 8.32129 19.7596C9.45896 20.0042 10.4863 20.6118 11.2486 21.491C12.0109 22.3703 12.4667 23.4734 12.5475 24.6343C12.9053 27.9944 13.5388 31.3195 14.4414 34.5757C15.0971 32.4733 15.8889 30.4157 16.8119 28.4161C17.2699 27.3756 17.8868 26.4127 18.6407 25.5618C18.8081 25.3566 19.015 25.1869 19.2491 25.0631C19.4832 24.9392 19.7398 24.8635 20.0037 24.8404C20.4433 24.8404 21.9442 25.2425 23.4055 30.3662C25.2177 36.7195 26.5664 46.831 31.7047 52.1997C33.971 54.5679 37.1425 56.1 41.5379 56.1C43.2923 56.0926 45.0269 55.7291 46.6366 55.0315C48.2464 54.334 49.6977 53.3169 50.9028 52.0419C54.6723 48.1595 56.7378 41.7408 57.4746 39.3655C58.8179 34.9576 59.7394 30.432 60.2267 25.8497C60.6166 22.155 57.5018 19.5839 54.3963 19.5839Z" fill="url(#paint17_radial_13250_6175)"/>
<path d="M54.3963 19.5839C53.9598 19.5835 53.5245 19.6255 53.0962 19.7093C55.1336 22.6448 56.153 25.7202 56.153 27.0489C56.1971 28.0991 55.956 29.1416 55.4554 30.0658C54.9547 30.9901 54.2132 31.7615 53.3095 32.2983C52.4059 32.8351 50.8414 33.0948 50.3418 33.0948C49.8424 33.0948 48.2182 32.7919 47.3171 32.2507V32.3746C47.0769 33.3334 46.8873 34.3828 46.5591 35.404C45.9225 37.4456 45.1229 39.4327 44.1679 41.3461C43.1883 43.2172 42.2182 44.3119 41.062 44.2545C39.7472 44.1892 38.6812 42.4958 37.3561 37.7096C36.9288 36.1665 36.5332 34.4745 36.1665 32.8132C35.257 28.6924 34.1406 24.5486 32.2318 20.8866C31.0747 18.5113 29.2706 16.5109 27.0269 15.1157C24.7832 13.7206 22.1913 12.9872 19.5492 13.0002C15.6114 13.0002 12.6695 14.8631 10.3583 17.2101C9.60684 17.9994 8.92528 18.8525 8.32129 19.7596C9.45896 20.0042 10.4863 20.6118 11.2486 21.491C12.0109 22.3703 12.4667 23.4734 12.5475 24.6343C12.9053 27.9944 13.5388 31.3195 14.4414 34.5757C15.0971 32.4733 15.8889 30.4157 16.8119 28.4161C17.2699 27.3756 17.8868 26.4127 18.6407 25.5618C18.8081 25.3566 19.015 25.1869 19.2491 25.0631C19.4832 24.9392 19.7398 24.8635 20.0037 24.8404C20.4433 24.8404 21.9442 25.2425 23.4055 30.3662C25.2177 36.7195 26.5664 46.831 31.7047 52.1997C33.971 54.5679 37.1425 56.1 41.5379 56.1C43.2923 56.0926 45.0269 55.7291 46.6366 55.0315C48.2464 54.334 49.6977 53.3169 50.9028 52.0419C54.6723 48.1595 56.7378 41.7408 57.4746 39.3655C58.8179 34.9576 59.7394 30.432 60.2267 25.8497C60.6166 22.155 57.5018 19.5839 54.3963 19.5839Z" fill="url(#paint18_radial_13250_6175)"/>
<path d="M54.3963 19.5839C53.9598 19.5835 53.5245 19.6255 53.0962 19.7093C55.1336 22.6448 56.153 25.7202 56.153 27.0489C56.1971 28.0991 55.956 29.1416 55.4554 30.0658C54.9547 30.9901 54.2132 31.7615 53.3095 32.2983C52.4059 32.8351 50.8414 33.0948 50.3418 33.0948C49.8424 33.0948 48.2182 32.7919 47.3171 32.2507V32.3746C47.0769 33.3334 46.8873 34.3828 46.5591 35.404C45.9225 37.4456 45.1229 39.4327 44.1679 41.3461C43.1883 43.2172 42.2182 44.3119 41.062 44.2545C39.7472 44.1892 38.6812 42.4958 37.3561 37.7096C36.9288 36.1665 36.5332 34.4745 36.1665 32.8132C35.257 28.6924 34.1406 24.5486 32.2318 20.8866C31.0747 18.5113 29.2706 16.5109 27.0269 15.1157C24.7832 13.7206 22.1913 12.9872 19.5492 13.0002C15.6114 13.0002 12.6695 14.8631 10.3583 17.2101C9.60684 17.9994 8.92528 18.8525 8.32129 19.7596C9.45896 20.0042 10.4863 20.6118 11.2486 21.491C12.0109 22.3703 12.4667 23.4734 12.5475 24.6343C12.9053 27.9944 13.5388 31.3195 14.4414 34.5757C15.0971 32.4733 15.8889 30.4157 16.8119 28.4161C17.2699 27.3756 17.8868 26.4127 18.6407 25.5618C18.8081 25.3566 19.015 25.1869 19.2491 25.0631C19.4832 24.9392 19.7398 24.8635 20.0037 24.8404C20.4433 24.8404 21.9442 25.2425 23.4055 30.3662C25.2177 36.7195 26.5664 46.831 31.7047 52.1997C33.971 54.5679 37.1425 56.1 41.5379 56.1C43.2923 56.0926 45.0269 55.7291 46.6366 55.0315C48.2464 54.334 49.6977 53.3169 50.9028 52.0419C54.6723 48.1595 56.7378 41.7408 57.4746 39.3655C58.8179 34.9576 59.7394 30.432 60.2267 25.8497C60.6166 22.155 57.5018 19.5839 54.3963 19.5839Z" fill="url(#paint19_radial_13250_6175)"/>
<path d="M54.3963 19.5839C53.9598 19.5835 53.5245 19.6255 53.0962 19.7093C55.1336 22.6448 56.153 25.7202 56.153 27.0489C56.1971 28.0991 55.956 29.1416 55.4554 30.0658C54.9547 30.9901 54.2132 31.7615 53.3095 32.2983C52.4059 32.8351 50.8414 33.0948 50.3418 33.0948C49.8424 33.0948 48.2182 32.7919 47.3171 32.2507V32.3746C47.0769 33.3334 46.8873 34.3828 46.5591 35.404C45.9225 37.4456 45.1229 39.4327 44.1679 41.3461C43.1883 43.2172 42.2182 44.3119 41.062 44.2545C39.7472 44.1892 38.6812 42.4958 37.3561 37.7096C36.9288 36.1665 36.5332 34.4745 36.1665 32.8132C35.257 28.6924 34.1406 24.5486 32.2318 20.8866C31.0747 18.5113 29.2706 16.5109 27.0269 15.1157C24.7832 13.7206 22.1913 12.9872 19.5492 13.0002C15.6114 13.0002 12.6695 14.8631 10.3583 17.2101C9.60684 17.9994 8.92528 18.8525 8.32129 19.7596C9.45896 20.0042 10.4863 20.6118 11.2486 21.491C12.0109 22.3703 12.4667 23.4734 12.5475 24.6343C12.9053 27.9944 13.5388 31.3195 14.4414 34.5757C15.0971 32.4733 15.8889 30.4157 16.8119 28.4161C17.2699 27.3756 17.8868 26.4127 18.6407 25.5618C18.8081 25.3566 19.015 25.1869 19.2491 25.0631C19.4832 24.9392 19.7398 24.8635 20.0037 24.8404C20.4433 24.8404 21.9442 25.2425 23.4055 30.3662C25.2177 36.7195 26.5664 46.831 31.7047 52.1997C33.971 54.5679 37.1425 56.1 41.5379 56.1C43.2923 56.0926 45.0269 55.7291 46.6366 55.0315C48.2464 54.334 49.6977 53.3169 50.9028 52.0419C54.6723 48.1595 56.7378 41.7408 57.4746 39.3655C58.8179 34.9576 59.7394 30.432 60.2267 25.8497C60.6166 22.155 57.5018 19.5839 54.3963 19.5839Z" fill="url(#paint20_radial_13250_6175)"/>
<path d="M54.3963 19.5839C53.9598 19.5835 53.5245 19.6255 53.0962 19.7093C55.1336 22.6448 56.153 25.7202 56.153 27.0489C56.1971 28.0991 55.956 29.1416 55.4554 30.0658C54.9547 30.9901 54.2132 31.7615 53.3095 32.2983C52.4059 32.8351 50.8414 33.0948 50.3418 33.0948C49.8424 33.0948 48.2182 32.7919 47.3171 32.2507V32.3746C47.0769 33.3334 46.8873 34.3828 46.5591 35.404C45.9225 37.4456 45.1229 39.4327 44.1679 41.3461C43.1883 43.2172 42.2182 44.3119 41.062 44.2545C39.7472 44.1892 38.6812 42.4958 37.3561 37.7096C36.9288 36.1665 36.5332 34.4745 36.1665 32.8132C35.257 28.6924 34.1406 24.5486 32.2318 20.8866C31.0747 18.5113 29.2706 16.5109 27.0269 15.1157C24.7832 13.7206 22.1913 12.9872 19.5492 13.0002C15.6114 13.0002 12.6695 14.8631 10.3583 17.2101C9.60684 17.9994 8.92528 18.8525 8.32129 19.7596C9.45896 20.0042 10.4863 20.6118 11.2486 21.491C12.0109 22.3703 12.4667 23.4734 12.5475 24.6343C12.9053 27.9944 13.5388 31.3195 14.4414 34.5757C15.0971 32.4733 15.8889 30.4157 16.8119 28.4161C17.2699 27.3756 17.8868 26.4127 18.6407 25.5618C18.8081 25.3566 19.015 25.1869 19.2491 25.0631C19.4832 24.9392 19.7398 24.8635 20.0037 24.8404C20.4433 24.8404 21.9442 25.2425 23.4055 30.3662C25.2177 36.7195 26.5664 46.831 31.7047 52.1997C33.971 54.5679 37.1425 56.1 41.5379 56.1C43.2923 56.0926 45.0269 55.7291 46.6366 55.0315C48.2464 54.334 49.6977 53.3169 50.9028 52.0419C54.6723 48.1595 56.7378 41.7408 57.4746 39.3655C58.8179 34.9576 59.7394 30.432 60.2267 25.8497C60.6166 22.155 57.5018 19.5839 54.3963 19.5839Z" fill="url(#paint21_radial_13250_6175)"/>
<path d="M54.3963 19.5839C53.9598 19.5835 53.5245 19.6255 53.0962 19.7093C55.1336 22.6448 56.153 25.7202 56.153 27.0489C56.1971 28.0991 55.956 29.1416 55.4554 30.0658C54.9547 30.9901 54.2132 31.7615 53.3095 32.2983C52.4059 32.8351 50.8414 33.0948 50.3418 33.0948C49.8424 33.0948 48.2182 32.7919 47.3171 32.2507V32.3746C47.0769 33.3334 46.8873 34.3828 46.5591 35.404C45.9225 37.4456 45.1229 39.4327 44.1679 41.3461C43.1883 43.2172 42.2182 44.3119 41.062 44.2545C39.7472 44.1892 38.6812 42.4958 37.3561 37.7096C36.9288 36.1665 36.5332 34.4745 36.1665 32.8132C35.257 28.6924 34.1406 24.5486 32.2318 20.8866C31.0747 18.5113 29.2706 16.5109 27.0269 15.1157C24.7832 13.7206 22.1913 12.9872 19.5492 13.0002C15.6114 13.0002 12.6695 14.8631 10.3583 17.2101C9.60684 17.9994 8.92528 18.8525 8.32129 19.7596C9.45896 20.0042 10.4863 20.6118 11.2486 21.491C12.0109 22.3703 12.4667 23.4734 12.5475 24.6343C12.9053 27.9944 13.5388 31.3195 14.4414 34.5757C15.0971 32.4733 15.8889 30.4157 16.8119 28.4161C17.2699 27.3756 17.8868 26.4127 18.6407 25.5618C18.8081 25.3566 19.015 25.1869 19.2491 25.0631C19.4832 24.9392 19.7398 24.8635 20.0037 24.8404C20.4433 24.8404 21.9442 25.2425 23.4055 30.3662C25.2177 36.7195 26.5664 46.831 31.7047 52.1997C33.971 54.5679 37.1425 56.1 41.5379 56.1C43.2923 56.0926 45.0269 55.7291 46.6366 55.0315C48.2464 54.334 49.6977 53.3169 50.9028 52.0419C54.6723 48.1595 56.7378 41.7408 57.4746 39.3655C58.8179 34.9576 59.7394 30.432 60.2267 25.8497C60.6166 22.155 57.5018 19.5839 54.3963 19.5839Z" fill="url(#paint22_radial_13250_6175)"/>
<path d="M54.3963 19.5839C53.9598 19.5835 53.5245 19.6255 53.0962 19.7093C55.1336 22.6448 56.153 25.7202 56.153 27.0489C56.1971 28.0991 55.956 29.1416 55.4554 30.0658C54.9547 30.9901 54.2132 31.7615 53.3095 32.2983C52.4059 32.8351 50.8414 33.0948 50.3418 33.0948C49.8424 33.0948 48.2182 32.7919 47.3171 32.2507V32.3746C47.0769 33.3334 46.8873 34.3828 46.5591 35.404C45.9225 37.4456 45.1229 39.4327 44.1679 41.3461C43.1883 43.2172 42.2182 44.3119 41.062 44.2545C39.7472 44.1892 38.6812 42.4958 37.3561 37.7096C36.9288 36.1665 36.5332 34.4745 36.1665 32.8132C35.257 28.6924 34.1406 24.5486 32.2318 20.8866C31.0747 18.5113 29.2706 16.5109 27.0269 15.1157C24.7832 13.7206 22.1913 12.9872 19.5492 13.0002C15.6114 13.0002 12.6695 14.8631 10.3583 17.2101C9.60684 17.9994 8.92528 18.8525 8.32129 19.7596C9.45896 20.0042 10.4863 20.6118 11.2486 21.491C12.0109 22.3703 12.4667 23.4734 12.5475 24.6343C12.9053 27.9944 13.5388 31.3195 14.4414 34.5757C15.0971 32.4733 15.8889 30.4157 16.8119 28.4161C17.2699 27.3756 17.8868 26.4127 18.6407 25.5618C18.8081 25.3566 19.015 25.1869 19.2491 25.0631C19.4832 24.9392 19.7398 24.8635 20.0037 24.8404C20.4433 24.8404 21.9442 25.2425 23.4055 30.3662C25.2177 36.7195 26.5664 46.831 31.7047 52.1997C33.971 54.5679 37.1425 56.1 41.5379 56.1C43.2923 56.0926 45.0269 55.7291 46.6366 55.0315C48.2464 54.334 49.6977 53.3169 50.9028 52.0419C54.6723 48.1595 56.7378 41.7408 57.4746 39.3655C58.8179 34.9576 59.7394 30.432 60.2267 25.8497C60.6166 22.155 57.5018 19.5839 54.3963 19.5839Z" fill="url(#paint23_radial_13250_6175)"/>
<path d="M54.3963 19.5839C53.9598 19.5835 53.5245 19.6255 53.0962 19.7093C55.1336 22.6448 56.153 25.7202 56.153 27.0489C56.1971 28.0991 55.956 29.1416 55.4554 30.0658C54.9547 30.9901 54.2132 31.7615 53.3095 32.2983C52.4059 32.8351 50.8414 33.0948 50.3418 33.0948C49.8424 33.0948 48.2182 32.7919 47.3171 32.2507V32.3746C47.0769 33.3334 46.8873 34.3828 46.5591 35.404C45.9225 37.4456 45.1229 39.4327 44.1679 41.3461C43.1883 43.2172 42.2182 44.3119 41.062 44.2545C39.7472 44.1892 38.6812 42.4958 37.3561 37.7096C36.9288 36.1665 36.5332 34.4745 36.1665 32.8132C35.257 28.6924 34.1406 24.5486 32.2318 20.8866C31.0747 18.5113 29.2706 16.5109 27.0269 15.1157C24.7832 13.7206 22.1913 12.9872 19.5492 13.0002C15.6114 13.0002 12.6695 14.8631 10.3583 17.2101C9.60684 17.9994 8.92528 18.8525 8.32129 19.7596C9.45896 20.0042 10.4863 20.6118 11.2486 21.491C12.0109 22.3703 12.4667 23.4734 12.5475 24.6343C12.9053 27.9944 13.5388 31.3195 14.4414 34.5757C15.0971 32.4733 15.8889 30.4157 16.8119 28.4161C17.2699 27.3756 17.8868 26.4127 18.6407 25.5618C18.8081 25.3566 19.015 25.1869 19.2491 25.0631C19.4832 24.9392 19.7398 24.8635 20.0037 24.8404C20.4433 24.8404 21.9442 25.2425 23.4055 30.3662C25.2177 36.7195 26.5664 46.831 31.7047 52.1997C33.971 54.5679 37.1425 56.1 41.5379 56.1C43.2923 56.0926 45.0269 55.7291 46.6366 55.0315C48.2464 54.334 49.6977 53.3169 50.9028 52.0419C54.6723 48.1595 56.7378 41.7408 57.4746 39.3655C58.8179 34.9576 59.7394 30.432 60.2267 25.8497C60.6166 22.155 57.5018 19.5839 54.3963 19.5839Z" fill="url(#paint24_radial_13250_6175)"/>
<path d="M54.3963 19.5839C53.9598 19.5835 53.5245 19.6255 53.0962 19.7093C55.1336 22.6448 56.153 25.7202 56.153 27.0489C56.1971 28.0991 55.956 29.1416 55.4554 30.0658C54.9547 30.9901 54.2132 31.7615 53.3095 32.2983C52.4059 32.8351 50.8414 33.0948 50.3418 33.0948C49.8424 33.0948 48.2182 32.7919 47.3171 32.2507V32.3746C47.0769 33.3334 46.8873 34.3828 46.5591 35.404C45.9225 37.4456 45.1229 39.4327 44.1679 41.3461C43.1883 43.2172 42.2182 44.3119 41.062 44.2545C39.7472 44.1892 38.6812 42.4958 37.3561 37.7096C36.9288 36.1665 36.5332 34.4745 36.1665 32.8132C35.257 28.6924 34.1406 24.5486 32.2318 20.8866C31.0747 18.5113 29.2706 16.5109 27.0269 15.1157C24.7832 13.7206 22.1913 12.9872 19.5492 13.0002C15.6114 13.0002 12.6695 14.8631 10.3583 17.2101C9.60684 17.9994 8.92528 18.8525 8.32129 19.7596C9.45896 20.0042 10.4863 20.6118 11.2486 21.491C12.0109 22.3703 12.4667 23.4734 12.5475 24.6343C12.9053 27.9944 13.5388 31.3195 14.4414 34.5757C15.0971 32.4733 15.8889 30.4157 16.8119 28.4161C17.2699 27.3756 17.8868 26.4127 18.6407 25.5618C18.8081 25.3566 19.015 25.1869 19.2491 25.0631C19.4832 24.9392 19.7398 24.8635 20.0037 24.8404C20.4433 24.8404 21.9442 25.2425 23.4055 30.3662C25.2177 36.7195 26.5664 46.831 31.7047 52.1997C33.971 54.5679 37.1425 56.1 41.5379 56.1C43.2923 56.0926 45.0269 55.7291 46.6366 55.0315C48.2464 54.334 49.6977 53.3169 50.9028 52.0419C54.6723 48.1595 56.7378 41.7408 57.4746 39.3655C58.8179 34.9576 59.7394 30.432 60.2267 25.8497C60.6166 22.155 57.5018 19.5839 54.3963 19.5839Z" fill="url(#paint25_radial_13250_6175)"/>
<path d="M54.3963 19.5839C53.9598 19.5835 53.5245 19.6255 53.0962 19.7093C55.1336 22.6448 56.153 25.7202 56.153 27.0489C56.1971 28.0991 55.956 29.1416 55.4554 30.0658C54.9547 30.9901 54.2132 31.7615 53.3095 32.2983C52.4059 32.8351 50.8414 33.0948 50.3418 33.0948C49.8424 33.0948 48.2182 32.7919 47.3171 32.2507V32.3746C47.0769 33.3334 46.8873 34.3828 46.5591 35.404C45.9225 37.4456 45.1229 39.4327 44.1679 41.3461C43.1883 43.2172 42.2182 44.3119 41.062 44.2545C39.7472 44.1892 38.6812 42.4958 37.3561 37.7096C36.9288 36.1665 36.5332 34.4745 36.1665 32.8132C35.257 28.6924 34.1406 24.5486 32.2318 20.8866C31.0747 18.5113 29.2706 16.5109 27.0269 15.1157C24.7832 13.7206 22.1913 12.9872 19.5492 13.0002C15.6114 13.0002 12.6695 14.8631 10.3583 17.2101C9.60684 17.9994 8.92528 18.8525 8.32129 19.7596C9.45896 20.0042 10.4863 20.6118 11.2486 21.491C12.0109 22.3703 12.4667 23.4734 12.5475 24.6343C12.9053 27.9944 13.5388 31.3195 14.4414 34.5757C15.0971 32.4733 15.8889 30.4157 16.8119 28.4161C17.2699 27.3756 17.8868 26.4127 18.6407 25.5618C18.8081 25.3566 19.015 25.1869 19.2491 25.0631C19.4832 24.9392 19.7398 24.8635 20.0037 24.8404C20.4433 24.8404 21.9442 25.2425 23.4055 30.3662C25.2177 36.7195 26.5664 46.831 31.7047 52.1997C33.971 54.5679 37.1425 56.1 41.5379 56.1C43.2923 56.0926 45.0269 55.7291 46.6366 55.0315C48.2464 54.334 49.6977 53.3169 50.9028 52.0419C54.6723 48.1595 56.7378 41.7408 57.4746 39.3655C58.8179 34.9576 59.7394 30.432 60.2267 25.8497C60.6166 22.155 57.5018 19.5839 54.3963 19.5839Z" fill="url(#paint26_radial_13250_6175)"/>
<path d="M54.3963 19.5839C53.9598 19.5835 53.5245 19.6255 53.0962 19.7093C55.1336 22.6448 56.153 25.7202 56.153 27.0489C56.1971 28.0991 55.956 29.1416 55.4554 30.0658C54.9547 30.9901 54.2132 31.7615 53.3095 32.2983C52.4059 32.8351 50.8414 33.0948 50.3418 33.0948C49.8424 33.0948 48.2182 32.7919 47.3171 32.2507V32.3746C47.0769 33.3334 46.8873 34.3828 46.5591 35.404C45.9225 37.4456 45.1229 39.4327 44.1679 41.3461C43.1883 43.2172 42.2182 44.3119 41.062 44.2545C39.7472 44.1892 38.6812 42.4958 37.3561 37.7096C36.9288 36.1665 36.5332 34.4745 36.1665 32.8132C35.257 28.6924 34.1406 24.5486 32.2318 20.8866C31.0747 18.5113 29.2706 16.5109 27.0269 15.1157C24.7832 13.7206 22.1913 12.9872 19.5492 13.0002C15.6114 13.0002 12.6695 14.8631 10.3583 17.2101C9.60684 17.9994 8.92528 18.8525 8.32129 19.7596C9.45896 20.0042 10.4863 20.6118 11.2486 21.491C12.0109 22.3703 12.4667 23.4734 12.5475 24.6343C12.9053 27.9944 13.5388 31.3195 14.4414 34.5757C15.0971 32.4733 15.8889 30.4157 16.8119 28.4161C17.2699 27.3756 17.8868 26.4127 18.6407 25.5618C18.8081 25.3566 19.015 25.1869 19.2491 25.0631C19.4832 24.9392 19.7398 24.8635 20.0037 24.8404C20.4433 24.8404 21.9442 25.2425 23.4055 30.3662C25.2177 36.7195 26.5664 46.831 31.7047 52.1997C33.971 54.5679 37.1425 56.1 41.5379 56.1C43.2923 56.0926 45.0269 55.7291 46.6366 55.0315C48.2464 54.334 49.6977 53.3169 50.9028 52.0419C54.6723 48.1595 56.7378 41.7408 57.4746 39.3655C58.8179 34.9576 59.7394 30.432 60.2267 25.8497C60.6166 22.155 57.5018 19.5839 54.3963 19.5839Z" fill="url(#paint27_radial_13250_6175)"/>
<path d="M19.3874 55.9291C8.41432 55.9291 4.67963 42.0631 3.84278 39.3654C2.49428 34.9557 1.55427 30.4314 1.03464 25.8495C0.64453 22.1549 3.61025 19.5838 6.86554 19.5838C8.28408 19.5276 9.6695 20.0217 10.7324 20.9629C11.7953 21.9041 12.4534 23.2195 12.5694 24.6345C12.9818 28.5149 13.7652 32.3468 14.9087 36.0776C16.7585 41.9776 18.7208 44.2463 20.1339 44.2463C22.416 44.2463 23.8084 38.3896 25.0394 32.8129C25.9462 28.7043 26.9266 24.5641 28.8619 20.8864C32.2287 14.4888 37.3168 13 41.7122 13C51.3507 13 56.1745 24.1581 56.1745 27.049C56.2196 27.8226 56.1073 28.5973 55.8445 29.3263C55.5817 30.0553 55.1737 30.7233 54.6453 31.2902C54.1169 31.8569 53.4791 32.3107 52.7703 32.6239C52.0615 32.9371 51.2966 33.1034 50.5218 33.1125C46.7834 33.1125 45.5162 30.6096 44.4495 28.4159C43.4901 26.4422 42.488 24.8012 41.1924 24.8012C40.9656 24.8138 40.7436 24.8722 40.54 24.9729C40.3362 25.0737 40.155 25.2145 40.0072 25.3871C36.7872 28.6573 35.7074 45.7652 29.269 52.3043C25.6998 55.9291 21.8162 55.9291 19.3874 55.9291Z" fill="url(#paint28_linear_13250_6175)"/>
<path d="M19.3874 55.9291C8.41432 55.9291 4.67963 42.0631 3.84278 39.3654C2.49428 34.9557 1.55427 30.4314 1.03464 25.8495C0.64453 22.1549 3.61025 19.5838 6.86554 19.5838C8.28408 19.5276 9.6695 20.0217 10.7324 20.9629C11.7953 21.9041 12.4534 23.2195 12.5694 24.6345C12.9818 28.5149 13.7652 32.3468 14.9087 36.0776C16.7585 41.9776 18.7208 44.2463 20.1339 44.2463C22.416 44.2463 23.8084 38.3896 25.0394 32.8129C25.9462 28.7043 26.9266 24.5641 28.8619 20.8864C32.2287 14.4888 37.3168 13 41.7122 13C51.3507 13 56.1745 24.1581 56.1745 27.049C56.2196 27.8226 56.1073 28.5973 55.8445 29.3263C55.5817 30.0553 55.1737 30.7233 54.6453 31.2902C54.1169 31.8569 53.4791 32.3107 52.7703 32.6239C52.0615 32.9371 51.2966 33.1034 50.5218 33.1125C46.7834 33.1125 45.5162 30.6096 44.4495 28.4159C43.4901 26.4422 42.488 24.8012 41.1924 24.8012C40.9656 24.8138 40.7436 24.8722 40.54 24.9729C40.3362 25.0737 40.155 25.2145 40.0072 25.3871C36.7872 28.6573 35.7074 45.7652 29.269 52.3043C25.6998 55.9291 21.8162 55.9291 19.3874 55.9291Z" fill="url(#paint29_linear_13250_6175)"/>
<path d="M19.3874 55.9291C8.41432 55.9291 4.67963 42.0631 3.84278 39.3654C2.49428 34.9557 1.55427 30.4314 1.03464 25.8495C0.64453 22.1549 3.61025 19.5838 6.86554 19.5838C8.28408 19.5276 9.6695 20.0217 10.7324 20.9629C11.7953 21.9041 12.4534 23.2195 12.5694 24.6345C12.9818 28.5149 13.7652 32.3468 14.9087 36.0776C16.7585 41.9776 18.7208 44.2463 20.1339 44.2463C22.416 44.2463 23.8084 38.3896 25.0394 32.8129C25.9462 28.7043 26.9266 24.5641 28.8619 20.8864C32.2287 14.4888 37.3168 13 41.7122 13C51.3507 13 56.1745 24.1581 56.1745 27.049C56.2196 27.8226 56.1073 28.5973 55.8445 29.3263C55.5817 30.0553 55.1737 30.7233 54.6453 31.2902C54.1169 31.8569 53.4791 32.3107 52.7703 32.6239C52.0615 32.9371 51.2966 33.1034 50.5218 33.1125C46.7834 33.1125 45.5162 30.6096 44.4495 28.4159C43.4901 26.4422 42.488 24.8012 41.1924 24.8012C40.9656 24.8138 40.7436 24.8722 40.54 24.9729C40.3362 25.0737 40.155 25.2145 40.0072 25.3871C36.7872 28.6573 35.7074 45.7652 29.269 52.3043C25.6998 55.9291 21.8162 55.9291 19.3874 55.9291Z" fill="url(#paint30_linear_13250_6175)"/>
<path d="M19.3874 55.9291C8.41432 55.9291 4.67963 42.0631 3.84278 39.3654C2.49428 34.9557 1.55427 30.4314 1.03464 25.8495C0.64453 22.1549 3.61025 19.5838 6.86554 19.5838C8.28408 19.5276 9.6695 20.0217 10.7324 20.9629C11.7953 21.9041 12.4534 23.2195 12.5694 24.6345C12.9818 28.5149 13.7652 32.3468 14.9087 36.0776C16.7585 41.9776 18.7208 44.2463 20.1339 44.2463C22.416 44.2463 23.8084 38.3896 25.0394 32.8129C25.9462 28.7043 26.9266 24.5641 28.8619 20.8864C32.2287 14.4888 37.3168 13 41.7122 13C51.3507 13 56.1745 24.1581 56.1745 27.049C56.2196 27.8226 56.1073 28.5973 55.8445 29.3263C55.5817 30.0553 55.1737 30.7233 54.6453 31.2902C54.1169 31.8569 53.4791 32.3107 52.7703 32.6239C52.0615 32.9371 51.2966 33.1034 50.5218 33.1125C46.7834 33.1125 45.5162 30.6096 44.4495 28.4159C43.4901 26.4422 42.488 24.8012 41.1924 24.8012C40.9656 24.8138 40.7436 24.8722 40.54 24.9729C40.3362 25.0737 40.155 25.2145 40.0072 25.3871C36.7872 28.6573 35.7074 45.7652 29.269 52.3043C25.6998 55.9291 21.8162 55.9291 19.3874 55.9291Z" fill="url(#paint31_radial_13250_6175)"/>
<path d="M113.895 24.6443H120.17L111.047 51.9999H103.848L97.0291 31.3569L90.2101 51.9999H83.1236L74 24.6443H80.4219L86.8956 45.4329L93.6886 24.6443H100.508L107.413 45.5442L113.895 24.6443Z" fill="white"/>
<path d="M147.084 40.5184H126.73C126.918 41.9291 127.452 43.2725 128.284 44.4313C129.021 45.4452 130.02 46.2437 131.176 46.743C132.352 47.2472 133.623 47.501 134.904 47.4879C136.325 47.4826 137.734 47.2275 139.065 46.7345C140.445 46.234 141.733 45.5139 142.88 44.6025L145.875 48.8835C144.348 50.2046 142.569 51.2089 140.644 51.8374C138.667 52.453 136.605 52.7564 134.533 52.7364C131.981 52.7863 129.461 52.1723 127.222 50.9555C125.105 49.7786 123.371 48.0259 122.225 45.904C120.991 43.5781 120.374 40.9797 120.429 38.3523C120.376 35.7496 120.969 33.1739 122.156 30.8519C123.258 28.7399 124.94 26.9799 127.006 25.7746C129.175 24.5366 131.643 23.909 134.145 23.9595C136.506 23.8947 138.835 24.5064 140.854 25.7212C142.873 26.936 144.497 28.7025 145.53 30.8091C146.67 33.1387 147.238 35.7031 147.187 38.2923C147.196 38.866 147.161 39.6109 147.084 40.5184ZM141.041 35.9806C140.856 34.1058 140.045 32.3461 138.737 30.9804C138.11 30.3974 137.371 29.9454 136.564 29.6512C135.758 29.3571 134.9 29.2267 134.041 29.268C133.138 29.2269 132.235 29.3665 131.387 29.6783C130.539 29.9901 129.762 30.4678 129.104 31.0831C127.8 32.4288 126.968 34.155 126.73 36.0063L141.041 35.9806Z" fill="white"/>
<path d="M172.831 25.7917C174.931 27.0236 176.653 28.7996 177.812 30.9289C179.051 33.1983 179.681 35.7458 179.642 38.3265C179.681 40.9044 179.051 43.4491 177.812 45.7155C176.653 47.8545 174.924 49.6376 172.815 50.8708C170.706 52.1041 168.297 52.7404 165.848 52.7106C164.13 52.7464 162.427 52.392 160.868 51.6746C159.439 50.9913 158.19 49.989 157.217 48.7464V52H151.175V13H157.217V27.8979C158.194 26.6637 159.443 25.6679 160.868 24.9868C162.425 24.2624 164.129 23.9049 165.848 23.9423C168.303 23.9125 170.719 24.5522 172.831 25.7917ZM169.534 45.921C170.787 45.1567 171.796 44.0551 172.443 42.7445C173.107 41.3633 173.452 39.8524 173.452 38.3222C173.452 36.792 173.107 35.2811 172.443 33.8999C171.793 32.5911 170.785 31.4902 169.534 30.7234C168.204 29.9687 166.699 29.5717 165.167 29.5717C163.634 29.5717 162.129 29.9687 160.799 30.7234C159.545 31.479 158.528 32.5673 157.864 33.8656C157.146 35.2524 156.785 36.7935 156.811 38.3521C156.784 39.9082 157.146 41.4467 157.864 42.8301C158.528 44.1284 159.545 45.2167 160.799 45.9723C162.129 46.727 163.634 47.124 165.167 47.124C166.699 47.124 168.204 46.727 169.534 45.9723V45.921Z" fill="white"/>
<path d="M209.455 40.5183H189.111C189.299 41.9289 189.832 43.2724 190.664 44.4311C191.402 45.445 192.401 46.2435 193.556 46.7429C194.733 47.2471 196.003 47.5008 197.285 47.4878C198.706 47.4812 200.114 47.2261 201.445 46.7343C202.825 46.2338 204.114 45.5137 205.26 44.6024L208.247 48.8834C206.724 50.2061 204.948 51.2107 203.025 51.8373C201.045 52.4523 198.98 52.7557 196.905 52.7363C194.353 52.7834 191.833 52.1696 189.594 50.9554C187.481 49.7757 185.751 48.0235 184.605 45.9038C183.369 43.5786 182.748 40.9802 182.801 38.3521C182.749 35.7495 183.341 33.1739 184.527 30.8518C185.63 28.7398 187.311 26.9797 189.378 25.7745C191.559 24.5184 194.047 23.8816 196.568 23.9337C198.929 23.8721 201.257 24.485 203.275 25.6995C205.294 26.914 206.918 28.6787 207.953 30.7833C209.094 33.1129 209.662 35.6773 209.611 38.2665C209.576 38.8658 209.516 39.6107 209.455 40.5183ZM203.413 35.9804C203.214 34.1177 202.401 32.3722 201.1 31.0145C200.477 30.4283 199.742 29.9717 198.939 29.6718C198.135 29.3718 197.28 29.2344 196.422 29.2678C195.518 29.2258 194.615 29.3649 193.767 29.6768C192.918 29.9886 192.142 30.4669 191.484 31.083C190.178 32.4265 189.345 34.1538 189.111 36.0061L203.413 35.9804Z" fill="white"/>
<path d="M238.156 51.9999H230.758L223.767 42.4875L216.862 51.9999H209.81L220.167 38.0353L209.974 24.6443H217.379L224.112 33.78L230.845 24.6443H238L227.763 37.9839L238.156 51.9999Z" fill="white"/>
<defs>
<linearGradient id="paint0_linear_13250_6175" x1="50.2784" y1="25.9244" x2="11.5212" y2="38.6452" gradientUnits="userSpaceOnUse">
<stop stop-color="white"/>
<stop offset="1" stop-color="#F5F5F5"/>
</linearGradient>
<radialGradient id="paint1_radial_13250_6175" cx="0" cy="0" r="1" gradientTransform="matrix(-13.0257 -21.7813 18.2919 -10.9396 23.5537 35.8884)" gradientUnits="userSpaceOnUse">
<stop stop-color="#B7B7B7"/>
<stop offset="0.4079" stop-color="#B5B5B5" stop-opacity="0.75"/>
<stop offset="0.8745" stop-color="#B6B6B6" stop-opacity="0"/>
</radialGradient>
<radialGradient id="paint2_radial_13250_6175" cx="0" cy="0" r="1" gradientTransform="matrix(-12.3866 -16.5839 10.8988 -8.1408 40.2448 31.1736)" gradientUnits="userSpaceOnUse">
<stop stop-color="#CACACA"/>
<stop offset="0.4595" stop-color="#C7C7C7"/>
<stop offset="1" stop-color="#ACACAC" stop-opacity="0"/>
</radialGradient>
<radialGradient id="paint3_radial_13250_6175" cx="0" cy="0" r="1" gradientTransform="matrix(-5.06311 -16.0762 8.38071 -2.63961 22.1042 37.0856)" gradientUnits="userSpaceOnUse">
<stop stop-color="#CDCDCD"/>
<stop offset="0.4079" stop-color="#C8C8C8" stop-opacity="0.79"/>
<stop offset="0.8745" stop-color="#B6B6B6" stop-opacity="0"/>
</radialGradient>
<radialGradient id="paint4_radial_13250_6175" cx="0" cy="0" r="1" gradientTransform="matrix(-18.6272 -40.696 12.5579 -5.74829 26.2531 40.9476)" gradientUnits="userSpaceOnUse">
<stop stop-color="#A2A2A2" stop-opacity="0.78"/>
<stop offset="1" stop-color="#A2A2A2" stop-opacity="0"/>
</radialGradient>
<radialGradient id="paint5_radial_13250_6175" cx="0" cy="0" r="1" gradientTransform="matrix(3.60314 20.8877 -11.8566 2.04539 35.0074 26.8054)" gradientUnits="userSpaceOnUse">
<stop stop-color="#AEAEAE"/>
<stop offset="0.2326" stop-color="#AEAEAE" stop-opacity="0.75"/>
<stop offset="0.5989" stop-color="#AEAEAE" stop-opacity="0.3008"/>
<stop offset="0.8745" stop-color="#AEAEAE" stop-opacity="0"/>
</radialGradient>
<radialGradient id="paint6_radial_13250_6175" cx="0" cy="0" r="1" gradientTransform="matrix(10.307 15.9055 -8.34499 5.40798 37.9418 5.5802)" gradientUnits="userSpaceOnUse">
<stop stop-color="#E1E1E1"/>
<stop offset="0.4079" stop-color="#E7E7E7"/>
<stop offset="1" stop-color="#E7E7E7" stop-opacity="0.07"/>
</radialGradient>
<linearGradient id="paint7_linear_13250_6175" x1="-13.5806" y1="34.1014" x2="13.89" y2="34.3274" gradientUnits="userSpaceOnUse">
<stop stop-color="#FAFAFA"/>
<stop offset="1" stop-color="#F8F8F8" stop-opacity="0"/>
</linearGradient>
<radialGradient id="paint8_radial_13250_6175" cx="0" cy="0" r="1" gradientTransform="matrix(33.6054 37.308 -37.2514 33.5564 12.1642 -3.08788)" gradientUnits="userSpaceOnUse">
<stop stop-color="#F5F5F5"/>
<stop offset="0.7454" stop-color="#F4F4F4" stop-opacity="0"/>
</radialGradient>
<radialGradient id="paint9_radial_13250_6175" cx="0" cy="0" r="1" gradientTransform="matrix(-7.26833 -23.0782 16.001 -5.03973 14.8099 34.5504)" gradientUnits="userSpaceOnUse">
<stop stop-color="#F5F5F5" stop-opacity="0.76"/>
<stop offset="0.5727" stop-color="#F4F4F4" stop-opacity="0"/>
</radialGradient>
<radialGradient id="paint10_radial_13250_6175" cx="0" cy="0" r="1" gradientTransform="matrix(-10.9027 -13.1917 9.23667 -7.63441 51.6284 25.3558)" gradientUnits="userSpaceOnUse">
<stop stop-color="white"/>
<stop offset="1" stop-color="#F4F4F4" stop-opacity="0"/>
</radialGradient>
<radialGradient id="paint11_radial_13250_6175" cx="0" cy="0" r="1" gradientTransform="matrix(0.980693 -5.08598 3.52034 0.678842 49.1816 36.3885)" gradientUnits="userSpaceOnUse">
<stop stop-color="#CDCDCD"/>
<stop offset="1" stop-color="#BCBCBC" stop-opacity="0"/>
</radialGradient>
<radialGradient id="paint12_radial_13250_6175" cx="0" cy="0" r="1" gradientTransform="matrix(73.5274 -342.108 372.192 79.9981 -106989 35289.8)" gradientUnits="userSpaceOnUse">
<stop stop-color="#CDCDCD"/>
<stop offset="1" stop-color="#BCBCBC" stop-opacity="0"/>
</radialGradient>
<radialGradient id="paint13_radial_13250_6175" cx="0" cy="0" r="1" gradientTransform="matrix(-9.62984 -10.3945 7.30252 -6.76573 54.0146 28.3229)" gradientUnits="userSpaceOnUse">
<stop stop-color="white"/>
<stop offset="0.8133" stop-color="white" stop-opacity="0"/>
</radialGradient>
<linearGradient id="paint14_linear_13250_6175" x1="24.2328" y1="68.5584" x2="16.8248" y2="48.0187" gradientUnits="userSpaceOnUse">
<stop offset="0.2293" stop-color="white"/>
<stop offset="1" stop-color="white" stop-opacity="0"/>
</linearGradient>
<radialGradient id="paint15_radial_13250_6175" cx="0" cy="0" r="1" gradientTransform="matrix(10.0077 7.66078 -10.6457 13.9079 49.5855 32.3709)" gradientUnits="userSpaceOnUse">
<stop stop-color="#D2D2D2"/>
<stop offset="0.9661" stop-color="#D2D2D2" stop-opacity="0"/>
</radialGradient>
<radialGradient id="paint16_radial_13250_6175" cx="0" cy="0" r="1" gradientTransform="matrix(14.7123 2.19332 -3.27113 21.9433 46.4493 33.8047)" gradientUnits="userSpaceOnUse">
<stop stop-color="#D2D2D2"/>
<stop offset="0.5925" stop-color="#D2D2D2" stop-opacity="0"/>
</radialGradient>
<radialGradient id="paint17_radial_13250_6175" cx="0" cy="0" r="1" gradientTransform="matrix(11.5473 5.2979 -9.43492 20.5657 47.6542 35.6505)" gradientUnits="userSpaceOnUse">
<stop stop-color="#D2D2D2"/>
<stop offset="0.7568" stop-color="#D2D2D2" stop-opacity="0"/>
</radialGradient>
<radialGradient id="paint18_radial_13250_6175" cx="0" cy="0" r="1" gradientTransform="matrix(20.8759 -21.5499 17.3186 16.7779 47.1294 31.1827)" gradientUnits="userSpaceOnUse">
<stop offset="0.0648007" stop-color="#4F4F4F"/>
<stop offset="0.519024" stop-color="#D5D5D5" stop-opacity="0"/>
</radialGradient>
<radialGradient id="paint19_radial_13250_6175" cx="0" cy="0" r="1" gradientTransform="matrix(-2.30949 22.7069 -12.4534 -1.2667 46.17 36.3962)" gradientUnits="userSpaceOnUse">
<stop stop-color="#D2D2D2"/>
<stop offset="0.5925" stop-color="#D2D2D2" stop-opacity="0"/>
<stop offset="1" stop-color="#D2D2D2" stop-opacity="0"/>
</radialGradient>
<radialGradient id="paint20_radial_13250_6175" cx="0" cy="0" r="1" gradientTransform="matrix(-1.7582 27.4114 -9.79029 -0.627998 49.5787 26.3332)" gradientUnits="userSpaceOnUse">
<stop stop-color="#D2D2D2"/>
<stop offset="0.8846" stop-color="#D2D2D2" stop-opacity="0"/>
</radialGradient>
<radialGradient id="paint21_radial_13250_6175" cx="0" cy="0" r="1" gradientTransform="matrix(9.09109 -22.5601 8.9841 3.62057 7.39797 37.5804)" gradientUnits="userSpaceOnUse">
<stop stop-color="#B3B3B3"/>
<stop offset="1" stop-color="#B0B0B0" stop-opacity="0"/>
</radialGradient>
<radialGradient id="paint22_radial_13250_6175" cx="0" cy="0" r="1" gradientTransform="matrix(14.6017 -5.95812 11.639 28.5256 22.8865 45.9983)" gradientUnits="userSpaceOnUse">
<stop stop-color="#F7F7F7"/>
<stop offset="0.709" stop-color="#F9F9F9" stop-opacity="0"/>
</radialGradient>
<radialGradient id="paint23_radial_13250_6175" cx="0" cy="0" r="1" gradientTransform="matrix(14.6017 -5.95812 11.639 28.5256 22.8865 45.9983)" gradientUnits="userSpaceOnUse">
<stop stop-color="#F7F7F7"/>
<stop offset="0.709" stop-color="#F9F9F9" stop-opacity="0"/>
</radialGradient>
<radialGradient id="paint24_radial_13250_6175" cx="0" cy="0" r="1" gradientTransform="matrix(18.5189 8.41795 -8.49171 18.6823 12.1119 27.4788)" gradientUnits="userSpaceOnUse">
<stop stop-color="#ADADAD"/>
<stop offset="0.7614" stop-color="#D2D2D2" stop-opacity="0"/>
</radialGradient>
<radialGradient id="paint25_radial_13250_6175" cx="0" cy="0" r="1" gradientTransform="matrix(7.74425 -0.336716 0.488292 11.2311 17.8359 25.7952)" gradientUnits="userSpaceOnUse">
<stop stop-color="#ADADAD"/>
<stop offset="0.7614" stop-color="#D2D2D2" stop-opacity="0"/>
</radialGradient>
<radialGradient id="paint26_radial_13250_6175" cx="0" cy="0" r="1" gradientTransform="matrix(7.07084 -2.0203 4.23997 14.8403 20.1928 33.2031)" gradientUnits="userSpaceOnUse">
<stop stop-color="#B1B1B1"/>
<stop offset="1" stop-color="#D2D2D2" stop-opacity="0"/>
</radialGradient>
<radialGradient id="paint27_radial_13250_6175" cx="0" cy="0" r="1" gradientTransform="matrix(7.74428 -9.76481 9.17616 7.27788 10.0916 27.8156)" gradientUnits="userSpaceOnUse">
<stop stop-color="#807F7F"/>
<stop offset="1" stop-color="#D2D2D2" stop-opacity="0"/>
</radialGradient>
<linearGradient id="paint28_linear_13250_6175" x1="2.04314" y1="16.2458" x2="23.1732" y2="29.743" gradientUnits="userSpaceOnUse">
<stop offset="0.2293" stop-color="white"/>
<stop offset="1" stop-color="white" stop-opacity="0"/>
</linearGradient>
<linearGradient id="paint29_linear_13250_6175" x1="6.72403" y1="67.8849" x2="16.8257" y2="48.0188" gradientUnits="userSpaceOnUse">
<stop offset="0.2293" stop-color="white"/>
<stop offset="1" stop-color="white" stop-opacity="0"/>
</linearGradient>
<linearGradient id="paint30_linear_13250_6175" x1="7.50427" y1="13.513" x2="13.4298" y2="18.8891" gradientUnits="userSpaceOnUse">
<stop stop-color="white"/>
<stop offset="0.6373" stop-color="#F8F8F8" stop-opacity="0"/>
</linearGradient>
<radialGradient id="paint31_radial_13250_6175" cx="0" cy="0" r="1" gradientTransform="matrix(-10.1012 0.67342 -2.03596 -30.5409 12.448 27.4788)" gradientUnits="userSpaceOnUse">
<stop stop-color="#D1D1D1"/>
<stop offset="0.580386" stop-color="#D1D1D1" stop-opacity="0"/>
</radialGradient>
</defs>
</svg>
