<svg width="161" height="28" viewBox="0 0 161 28" fill="none" xmlns="http://www.w3.org/2000/svg">
<path fill-rule="evenodd" clip-rule="evenodd" d="M50.1753 7.57681C51.2395 8.20836 52.112 9.11734 52.6993 10.2065C53.309 11.3753 53.6273 12.6741 53.6273 13.9924C53.6273 15.3107 53.309 16.6095 52.6993 17.7783C52.1098 18.8718 51.2324 19.7835 50.1624 20.4146C49.0922 21.0458 47.87 21.3723 46.6276 21.3592C45.7567 21.3761 44.8935 21.1937 44.1036 20.826C43.3788 20.4742 42.7438 19.9617 42.2469 19.3274V20.9932H39.1929V1.03027H42.2469V8.65738C42.7434 8.02309 43.3786 7.51098 44.1036 7.16035C44.893 6.79135 45.7565 6.60841 46.6276 6.62559C47.8751 6.61141 49.1023 6.94048 50.1753 7.57681ZM48.5032 17.8793C49.1378 17.4885 49.6491 16.9263 49.9782 16.2577C50.3157 15.5502 50.4908 14.7763 50.4908 13.9924C50.4908 13.2086 50.3157 12.4346 49.9782 11.7272C49.6491 11.058 49.1378 10.4954 48.5032 10.1039C47.8298 9.71367 47.0657 9.50696 46.2872 9.50448C45.5089 9.50199 44.7435 9.7038 44.0673 10.0897C43.431 10.4769 42.9148 11.0335 42.5766 11.6972C42.2261 12.4112 42.0438 13.1961 42.0438 13.9916C42.0438 14.7871 42.2261 15.572 42.5766 16.2861C42.9148 16.9498 43.431 17.5064 44.0673 17.8935C44.7435 18.2795 45.5089 18.4813 46.2872 18.4787C47.0657 18.4762 47.8298 18.2696 48.5032 17.8793Z" fill="black"/>
<path fill-rule="evenodd" clip-rule="evenodd" d="M26.7719 15.117H37.1107C37.1454 14.6501 37.1627 14.2699 37.1627 13.9765C37.1887 12.6519 36.9005 11.3399 36.3219 10.148C35.8042 9.08245 34.9973 8.18385 33.9936 7.5546C32.9572 6.92558 31.7636 6.60341 30.5515 6.62546C29.2804 6.60097 28.0263 6.92209 26.9233 7.5546C25.8732 8.17141 25.0193 9.07339 24.4609 10.1559C23.8548 11.3423 23.5513 12.6602 23.5775 13.9923C23.5775 15.4541 23.8819 16.7424 24.4908 17.8571C25.0683 18.9426 25.944 19.8402 27.0148 20.4442C28.1528 21.0676 29.434 21.3825 30.7313 21.3576C31.7845 21.368 32.8327 21.2126 33.8374 20.8969C34.8137 20.5751 35.7154 20.0607 36.4891 19.3841L34.97 17.2072C34.3876 17.6727 33.7334 18.0403 33.0329 18.2957C32.3577 18.5481 31.6431 18.679 30.9222 18.6821C30.2718 18.6888 29.6271 18.5597 29.0292 18.3036C28.4437 18.0455 27.9368 17.6367 27.5606 17.1189C27.1383 16.526 26.8675 15.8387 26.7719 15.117ZM32.8578 10.2505C33.4773 10.8542 33.8696 11.7018 34.0346 12.7934L26.7798 12.7966C26.9555 11.7323 27.3571 10.891 27.9849 10.2726C28.6128 9.65422 29.4484 9.34504 30.4916 9.34504C31.4497 9.34504 32.2385 9.64686 32.8578 10.2505Z" fill="black"/>
<path d="M20.2548 6.99157H23.4413L18.8114 20.9917H15.1548L11.6844 10.4226L8.22182 20.9917H4.63305L0 6.99157H3.25907L6.54653 17.6301L9.99648 6.99157H13.459L16.9532 17.6901L20.2548 6.99157Z" fill="black"/>
<path fill-rule="evenodd" clip-rule="evenodd" d="M58.4392 15.117H68.7717C68.8107 14.6501 68.8316 14.2699 68.8348 13.9765C68.8607 12.6519 68.5726 11.3399 67.994 10.148C67.4736 9.08123 66.6634 8.1825 65.6562 7.55462C64.6199 6.9252 63.4262 6.60298 62.2141 6.62548C60.9428 6.60082 59.6889 6.92197 58.5859 7.55462C57.5353 8.17103 56.6814 9.07309 56.1235 10.1559C55.5168 11.3422 55.2128 12.6601 55.2385 13.9923C55.2385 15.4541 55.543 16.7424 56.1519 17.8571C56.7328 18.9442 57.6131 19.8419 58.6885 20.4442C59.8249 21.0673 61.1045 21.3822 62.4003 21.3576C63.4529 21.368 64.5005 21.2126 65.5047 20.8969C66.482 20.5753 67.3848 20.0609 68.1596 19.3841L66.6389 17.2072C66.0573 17.673 65.4035 18.0406 64.7034 18.2957C64.0276 18.5482 63.3125 18.6791 62.5911 18.6821C61.9407 18.6888 61.296 18.5599 60.6982 18.3036C60.1121 18.0453 59.6048 17.6366 59.228 17.1189C58.8055 16.526 58.5348 15.8387 58.4392 15.117ZM64.5267 10.2505C65.144 10.8542 65.5363 11.7018 65.7035 12.7934L58.4392 12.7966C58.6138 11.7323 59.0155 10.891 59.6444 10.2726C60.2733 9.65424 61.1088 9.34505 62.151 9.34505C63.1175 9.34505 63.9094 9.64687 64.5267 10.2505Z" fill="black"/>
<path d="M79.587 20.9917H83.3429L78.0663 13.8157L83.2404 6.99157H79.6296L76.2112 11.6688L72.7912 6.99157H69.0352L74.2235 13.8457L68.9469 20.9917H72.5278L76.0345 16.1252L79.587 20.9917Z" fill="black"/>
<path d="M160.483 13.0637L158.63 13.3918C158.553 13.1549 158.43 12.9293 158.261 12.7151C158.097 12.5009 157.874 12.3254 157.591 12.1887C157.309 12.052 156.956 11.9836 156.532 11.9836C155.953 11.9836 155.47 12.1135 155.083 12.3733C154.695 12.6285 154.501 12.9589 154.501 13.3645C154.501 13.7154 154.631 13.998 154.891 14.2122C155.151 14.4264 155.57 14.6018 156.149 14.7385L157.817 15.1213C158.783 15.3446 159.503 15.6887 159.977 16.1536C160.451 16.6184 160.688 17.2222 160.688 17.9651C160.688 18.594 160.506 19.1545 160.141 19.6467C159.781 20.1344 159.278 20.5172 158.63 20.7952C157.988 21.0732 157.243 21.2122 156.395 21.2122C155.219 21.2122 154.26 20.9615 153.517 20.4602C152.774 19.9543 152.319 19.2366 152.15 18.3069L154.125 18.0061C154.249 18.5211 154.501 18.9107 154.884 19.175C155.267 19.4348 155.766 19.5647 156.381 19.5647C157.051 19.5647 157.587 19.4257 157.988 19.1477C158.389 18.8652 158.589 18.5211 158.589 18.1155C158.589 17.7874 158.466 17.5116 158.22 17.2883C157.979 17.065 157.607 16.8964 157.106 16.7825L155.329 16.3928C154.349 16.1695 153.624 15.814 153.155 15.3264C152.69 14.8388 152.458 14.2213 152.458 13.4739C152.458 12.8541 152.631 12.3118 152.977 11.8469C153.323 11.3821 153.802 11.0198 154.413 10.76C155.023 10.4957 155.723 10.3635 156.511 10.3635C157.646 10.3635 158.539 10.6096 159.191 11.1018C159.843 11.5894 160.273 12.2434 160.483 13.0637Z" fill="black"/>
<path fill-rule="evenodd" clip-rule="evenodd" d="M143.833 24.8079C144.434 25.0266 145.152 25.136 145.986 25.136C146.879 25.136 147.681 24.997 148.392 24.719C149.108 24.441 149.675 24.0126 150.094 23.4338C150.514 22.8596 150.723 22.1259 150.723 21.2327V10.5002H148.72V12.2024H148.57C148.447 11.9836 148.272 11.7307 148.044 11.4436C147.82 11.1565 147.508 10.9058 147.107 10.6917C146.706 10.4729 146.18 10.3635 145.528 10.3635C144.685 10.3635 143.931 10.5777 143.265 11.0061C142.6 11.4299 142.076 12.0406 141.693 12.8381C141.315 13.6357 141.126 14.5927 141.126 15.7092C141.126 16.8258 141.317 17.7668 141.7 18.5325C142.087 19.2935 142.611 19.87 143.272 20.262C143.938 20.6493 144.685 20.843 145.514 20.843C146.157 20.843 146.679 20.7428 147.08 20.5422C147.481 20.3417 147.795 20.1047 148.023 19.8313C148.256 19.5579 148.433 19.3095 148.556 19.0862H148.686V21.1506C148.686 21.9618 148.433 22.5543 147.927 22.928C147.422 23.3017 146.781 23.4885 146.007 23.4885C145.441 23.4885 144.979 23.4088 144.619 23.2493C144.263 23.0898 143.981 22.8984 143.771 22.675C143.566 22.4517 143.402 22.2444 143.279 22.053L141.522 22.7776C141.709 23.1969 141.992 23.5842 142.37 23.9397C142.748 24.2997 143.236 24.5891 143.833 24.8079ZM147.456 18.7375C147.05 19.011 146.553 19.1477 145.966 19.1477C145.359 19.1477 144.849 19.0019 144.434 18.7102C144.024 18.4185 143.714 18.0129 143.505 17.4934C143.295 16.9739 143.19 16.37 143.19 15.6819C143.19 15.012 143.293 14.4058 143.498 13.8635C143.707 13.3212 144.017 12.8928 144.427 12.5784C144.838 12.2594 145.35 12.0999 145.966 12.0999C146.563 12.0999 147.064 12.2525 147.469 12.5579C147.875 12.8586 148.183 13.2779 148.392 13.8157C148.602 14.3534 148.707 14.9755 148.707 15.6819C148.707 16.4065 148.6 17.0286 148.385 17.5481C148.176 18.0631 147.866 18.4596 147.456 18.7375Z" fill="black"/>
<path d="M132.973 14.7659V21.0002H130.929V10.5002H132.891V12.2092H133.021C133.262 11.6532 133.641 11.2066 134.156 10.8694C134.675 10.5321 135.329 10.3635 136.117 10.3635C136.833 10.3635 137.46 10.5139 137.997 10.8147C138.535 11.1109 138.952 11.553 139.248 12.1409C139.545 12.7288 139.693 13.4556 139.693 14.3215V21.0002H137.649V14.5676C137.649 13.8066 137.45 13.2118 137.054 12.7834C136.657 12.3505 136.113 12.134 135.42 12.134C134.946 12.134 134.525 12.2366 134.156 12.4417C133.791 12.6467 133.502 12.9475 133.287 13.344C133.078 13.7359 132.973 14.2099 132.973 14.7659Z" fill="black"/>
<path d="M126.985 10.5002V21.0002H129.029V10.5002H126.985Z" fill="black"/>
<path d="M127.102 8.52466C127.357 8.76164 127.662 8.88013 128.018 8.88013C128.373 8.88013 128.676 8.76164 128.927 8.52466C129.182 8.28312 129.31 7.99601 129.31 7.66333C129.31 7.32609 129.182 7.03898 128.927 6.802C128.676 6.56047 128.373 6.4397 128.018 6.4397C127.662 6.4397 127.357 6.56047 127.102 6.802C126.851 7.03898 126.726 7.32609 126.726 7.66333C126.726 7.99601 126.851 8.28312 127.102 8.52466Z" fill="black"/>
<path d="M125.574 10.5002V12.1409H123.421V17.9172C123.421 18.3137 123.48 18.6122 123.599 18.8127C123.717 19.0087 123.87 19.1431 124.057 19.2161C124.248 19.2844 124.455 19.3186 124.679 19.3186C124.843 19.3186 124.986 19.3072 125.109 19.2844C125.232 19.2616 125.328 19.2434 125.396 19.2297L125.766 20.9182C125.647 20.9638 125.479 21.0094 125.26 21.0549C125.041 21.1051 124.768 21.1324 124.439 21.137C123.902 21.1461 123.4 21.0504 122.936 20.8499C122.471 20.6493 122.095 20.3394 121.808 19.9202C121.521 19.5009 121.377 18.9745 121.377 18.3411V12.1409H119.839V10.5002H121.377V7.98462H123.421V10.5002H125.574Z" fill="black"/>
<path d="M119.262 12.1409V10.5002H117.109V7.98462H115.065V10.5002H113.527V12.1409H115.065V18.3411C115.065 18.9745 115.208 19.5009 115.495 19.9202C115.782 20.3394 116.158 20.6493 116.623 20.8499C117.088 21.0504 117.589 21.1461 118.127 21.137C118.455 21.1324 118.729 21.1051 118.948 21.0549C119.166 21.0094 119.335 20.9638 119.453 20.9182L119.084 19.2297C119.016 19.2434 118.92 19.2616 118.797 19.2844C118.674 19.3072 118.531 19.3186 118.366 19.3186C118.143 19.3186 117.936 19.2844 117.744 19.2161C117.558 19.1431 117.405 19.0087 117.286 18.8127C117.168 18.6122 117.109 18.3137 117.109 17.9172V12.1409H119.262Z" fill="black"/>
<path fill-rule="evenodd" clip-rule="evenodd" d="M108.438 21.2122C107.403 21.2122 106.512 20.9911 105.765 20.5491C105.022 20.1025 104.448 19.4758 104.042 18.6692C103.641 17.858 103.441 16.9078 103.441 15.8186C103.441 14.7431 103.641 13.7952 104.042 12.9749C104.448 12.1545 105.013 11.5142 105.738 11.054C106.467 10.5937 107.319 10.3635 108.294 10.3635C108.887 10.3635 109.461 10.4615 110.017 10.6575C110.573 10.8534 111.072 11.1611 111.514 11.5803C111.956 11.9996 112.305 12.5442 112.56 13.2141C112.815 13.8795 112.943 14.6884 112.943 15.6409V16.3655H105.48C105.495 17.0055 105.618 17.5547 105.847 18.0129C106.098 18.5051 106.446 18.8811 106.893 19.1409C107.339 19.3961 107.861 19.5237 108.458 19.5237C108.846 19.5237 109.199 19.469 109.518 19.3596C109.837 19.2457 110.113 19.0771 110.345 18.8538C110.577 18.6305 110.755 18.3547 110.878 18.0266L112.813 18.3752C112.658 18.9449 112.38 19.4439 111.979 19.8723C111.582 20.2961 111.083 20.6265 110.482 20.8635C109.885 21.0959 109.203 21.2122 108.438 21.2122ZM110.94 14.8342H105.483C105.507 14.3829 105.62 13.9613 105.82 13.5696C106.052 13.1184 106.38 12.7538 106.804 12.4758C107.232 12.1933 107.734 12.052 108.308 12.052C108.837 12.052 109.297 12.1728 109.689 12.4143C110.085 12.6558 110.393 12.9862 110.612 13.4055C110.83 13.8202 110.94 14.2965 110.94 14.8342Z" fill="black"/>
<path d="M99.2715 9.17407C99.8001 9.52954 100.101 10.0308 100.174 10.678H102.211C102.193 9.92603 101.974 9.26066 101.555 8.68188C101.135 8.09855 100.561 7.64054 99.832 7.30786C99.1074 6.97518 98.2712 6.80884 97.3232 6.80884C96.3844 6.80884 95.5413 6.97746 94.7939 7.3147C94.0465 7.64738 93.4541 8.1145 93.0166 8.71606C92.5791 9.31763 92.3604 10.0217 92.3604 10.8284C92.3604 11.8036 92.6862 12.5875 93.3379 13.1799C93.9941 13.7724 94.8828 14.2213 96.0039 14.5266L97.6582 14.9778C98.1595 15.1099 98.6084 15.2626 99.0049 15.4358C99.4059 15.609 99.7227 15.8277 99.9551 16.092C100.192 16.3564 100.311 16.6959 100.311 17.1106C100.311 17.5663 100.176 17.9651 99.9072 18.3069C99.6383 18.6441 99.2692 18.9084 98.7998 19.0999C98.335 19.2867 97.804 19.3801 97.207 19.3801C96.6647 19.3801 96.1657 19.3004 95.71 19.1409C95.2588 18.9768 94.8874 18.7284 94.5957 18.3958C94.3086 18.0585 94.1445 17.637 94.1035 17.1311H91.9844C92.0299 17.9742 92.2692 18.7034 92.7021 19.3186C93.1351 19.9293 93.7344 20.401 94.5 20.7336C95.2656 21.0663 96.1725 21.2327 97.2207 21.2327C98.3145 21.2327 99.2464 21.0549 100.017 20.6995C100.791 20.344 101.382 19.8586 101.787 19.2434C102.197 18.6282 102.402 17.9241 102.402 17.1311C102.402 16.5022 102.277 15.9622 102.026 15.511C101.78 15.0598 101.457 14.6816 101.056 14.3762C100.655 14.0709 100.219 13.8248 99.75 13.6379C99.2806 13.4511 98.8226 13.303 98.376 13.1936L97.0088 12.8381C96.7354 12.7698 96.4505 12.6832 96.1543 12.5784C95.8581 12.469 95.5801 12.3346 95.3203 12.175C95.0651 12.011 94.8577 11.8082 94.6982 11.5667C94.5433 11.3251 94.4658 11.038 94.4658 10.7053C94.4658 10.3088 94.5798 9.95565 94.8076 9.64575C95.04 9.3313 95.3659 9.08521 95.7852 8.90747C96.2044 8.72518 96.7012 8.63403 97.2754 8.63403C98.0775 8.63403 98.7428 8.81405 99.2715 9.17407Z" fill="black"/>
</svg>
