<svg width="132" height="106" viewBox="0 0 132 106" fill="none" xmlns="http://www.w3.org/2000/svg">
<path d="M56.3936 41.7716C47.5055 41.7716 44.4805 30.5404 43.8026 28.3554C42.7104 24.7836 41.949 21.119 41.5281 17.4078C41.2121 14.4153 43.6143 12.3327 46.251 12.3327C47.4 12.2872 48.5222 12.6874 49.3832 13.4497C50.2441 14.2121 50.7771 15.2776 50.8711 16.4237C51.2051 19.5667 51.8396 22.6704 52.7659 25.6923C54.2642 30.4712 55.8537 32.3088 56.9983 32.3088C58.8468 32.3088 59.9746 27.565 60.9716 23.048C61.7062 19.7201 62.5002 16.3667 64.0679 13.3878C66.7949 8.20586 70.9162 7 74.4765 7C82.2835 7 86.1908 16.0378 86.1908 18.3794C86.2273 19.006 86.1364 19.6335 85.9235 20.2239C85.7106 20.8144 85.3802 21.3555 84.9521 21.8146C84.5242 22.2737 84.0075 22.6412 83.4334 22.8949C82.8593 23.1486 82.2398 23.2833 81.6122 23.2907C78.5841 23.2907 77.5576 21.2634 76.6936 19.4865C75.9165 17.8879 75.1049 16.5587 74.0555 16.5587C73.8717 16.5689 73.6919 16.6162 73.527 16.6978C73.362 16.7794 73.2152 16.8935 73.0954 17.0332C70.4873 19.682 69.6126 33.5391 64.3976 38.8356C61.5066 41.7716 58.3609 41.7716 56.3936 41.7716Z" fill="url(#paint0_linear_13250_6177)"/>
<path d="M56.3936 41.7716C47.5055 41.7716 44.4805 30.5404 43.8026 28.3554C42.7104 24.7836 41.949 21.119 41.5281 17.4078C41.2121 14.4153 43.6143 12.3327 46.251 12.3327C47.4 12.2872 48.5222 12.6874 49.3832 13.4497C50.2441 14.2121 50.7771 15.2776 50.8711 16.4237C51.2051 19.5667 51.8396 22.6704 52.7659 25.6923C54.2642 30.4712 55.8537 32.3088 56.9983 32.3088C58.8468 32.3088 59.9746 27.565 60.9716 23.048C61.7062 19.7201 62.5002 16.3667 64.0679 13.3878C66.7949 8.20586 70.9162 7 74.4765 7C82.2835 7 86.1908 16.0378 86.1908 18.3794C86.2273 19.006 86.1364 19.6335 85.9235 20.2239C85.7106 20.8144 85.3802 21.3555 84.9521 21.8146C84.5242 22.2737 84.0075 22.6412 83.4334 22.8949C82.8593 23.1486 82.2398 23.2833 81.6122 23.2907C78.5841 23.2907 77.5576 21.2634 76.6936 19.4865C75.9165 17.8879 75.1049 16.5587 74.0555 16.5587C73.8717 16.5689 73.6919 16.6162 73.527 16.6978C73.362 16.7794 73.2152 16.8935 73.0954 17.0332C70.4873 19.682 69.6126 33.5391 64.3976 38.8356C61.5066 41.7716 58.3609 41.7716 56.3936 41.7716Z" fill="url(#paint1_radial_13250_6177)"/>
<path d="M56.3936 41.7716C47.5055 41.7716 44.4805 30.5404 43.8026 28.3554C42.7104 24.7836 41.949 21.119 41.5281 17.4078C41.2121 14.4153 43.6143 12.3327 46.251 12.3327C47.4 12.2872 48.5222 12.6874 49.3832 13.4497C50.2441 14.2121 50.7771 15.2776 50.8711 16.4237C51.2051 19.5667 51.8396 22.6704 52.7659 25.6923C54.2642 30.4712 55.8537 32.3088 56.9983 32.3088C58.8468 32.3088 59.9746 27.565 60.9716 23.048C61.7062 19.7201 62.5002 16.3667 64.0679 13.3878C66.7949 8.20586 70.9162 7 74.4765 7C82.2835 7 86.1908 16.0378 86.1908 18.3794C86.2273 19.006 86.1364 19.6335 85.9235 20.2239C85.7106 20.8144 85.3802 21.3555 84.9521 21.8146C84.5242 22.2737 84.0075 22.6412 83.4334 22.8949C82.8593 23.1486 82.2398 23.2833 81.6122 23.2907C78.5841 23.2907 77.5576 21.2634 76.6936 19.4865C75.9165 17.8879 75.1049 16.5587 74.0555 16.5587C73.8717 16.5689 73.6919 16.6162 73.527 16.6978C73.362 16.7794 73.2152 16.8935 73.0954 17.0332C70.4873 19.682 69.6126 33.5391 64.3976 38.8356C61.5066 41.7716 58.3609 41.7716 56.3936 41.7716Z" fill="url(#paint2_radial_13250_6177)"/>
<path d="M56.3936 41.7716C47.5055 41.7716 44.4805 30.5404 43.8026 28.3554C42.7104 24.7836 41.949 21.119 41.5281 17.4078C41.2121 14.4153 43.6143 12.3327 46.251 12.3327C47.4 12.2872 48.5222 12.6874 49.3832 13.4497C50.2441 14.2121 50.7771 15.2776 50.8711 16.4237C51.2051 19.5667 51.8396 22.6704 52.7659 25.6923C54.2642 30.4712 55.8537 32.3088 56.9983 32.3088C58.8468 32.3088 59.9746 27.565 60.9716 23.048C61.7062 19.7201 62.5002 16.3667 64.0679 13.3878C66.7949 8.20586 70.9162 7 74.4765 7C82.2835 7 86.1908 16.0378 86.1908 18.3794C86.2273 19.006 86.1364 19.6335 85.9235 20.2239C85.7106 20.8144 85.3802 21.3555 84.9521 21.8146C84.5242 22.2737 84.0075 22.6412 83.4334 22.8949C82.8593 23.1486 82.2398 23.2833 81.6122 23.2907C78.5841 23.2907 77.5576 21.2634 76.6936 19.4865C75.9165 17.8879 75.1049 16.5587 74.0555 16.5587C73.8717 16.5689 73.6919 16.6162 73.527 16.6978C73.362 16.7794 73.2152 16.8935 73.0954 17.0332C70.4873 19.682 69.6126 33.5391 64.3976 38.8356C61.5066 41.7716 58.3609 41.7716 56.3936 41.7716Z" fill="url(#paint3_radial_13250_6177)"/>
<path d="M56.3936 41.7716C47.5055 41.7716 44.4805 30.5404 43.8026 28.3554C42.7104 24.7836 41.949 21.119 41.5281 17.4078C41.2121 14.4153 43.6143 12.3327 46.251 12.3327C47.4 12.2872 48.5222 12.6874 49.3832 13.4497C50.2441 14.2121 50.7771 15.2776 50.8711 16.4237C51.2051 19.5667 51.8396 22.6704 52.7659 25.6923C54.2642 30.4712 55.8537 32.3088 56.9983 32.3088C58.8468 32.3088 59.9746 27.565 60.9716 23.048C61.7062 19.7201 62.5002 16.3667 64.0679 13.3878C66.7949 8.20586 70.9162 7 74.4765 7C82.2835 7 86.1908 16.0378 86.1908 18.3794C86.2273 19.006 86.1364 19.6335 85.9235 20.2239C85.7106 20.8144 85.3802 21.3555 84.9521 21.8146C84.5242 22.2737 84.0075 22.6412 83.4334 22.8949C82.8593 23.1486 82.2398 23.2833 81.6122 23.2907C78.5841 23.2907 77.5576 21.2634 76.6936 19.4865C75.9165 17.8879 75.1049 16.5587 74.0555 16.5587C73.8717 16.5689 73.6919 16.6162 73.527 16.6978C73.362 16.7794 73.2152 16.8935 73.0954 17.0332C70.4873 19.682 69.6126 33.5391 64.3976 38.8356C61.5066 41.7716 58.3609 41.7716 56.3936 41.7716Z" fill="url(#paint4_radial_13250_6177)"/>
<path d="M56.3936 41.7716C47.5055 41.7716 44.4805 30.5404 43.8026 28.3554C42.7104 24.7836 41.949 21.119 41.5281 17.4078C41.2121 14.4153 43.6143 12.3327 46.251 12.3327C47.4 12.2872 48.5222 12.6874 49.3832 13.4497C50.2441 14.2121 50.7771 15.2776 50.8711 16.4237C51.2051 19.5667 51.8396 22.6704 52.7659 25.6923C54.2642 30.4712 55.8537 32.3088 56.9983 32.3088C58.8468 32.3088 59.9746 27.565 60.9716 23.048C61.7062 19.7201 62.5002 16.3667 64.0679 13.3878C66.7949 8.20586 70.9162 7 74.4765 7C82.2835 7 86.1908 16.0378 86.1908 18.3794C86.2273 19.006 86.1364 19.6335 85.9235 20.2239C85.7106 20.8144 85.3802 21.3555 84.9521 21.8146C84.5242 22.2737 84.0075 22.6412 83.4334 22.8949C82.8593 23.1486 82.2398 23.2833 81.6122 23.2907C78.5841 23.2907 77.5576 21.2634 76.6936 19.4865C75.9165 17.8879 75.1049 16.5587 74.0555 16.5587C73.8717 16.5689 73.6919 16.6162 73.527 16.6978C73.362 16.7794 73.2152 16.8935 73.0954 17.0332C70.4873 19.682 69.6126 33.5391 64.3976 38.8356C61.5066 41.7716 58.3609 41.7716 56.3936 41.7716Z" fill="url(#paint5_radial_13250_6177)"/>
<path d="M56.3936 41.7716C47.5055 41.7716 44.4805 30.5404 43.8026 28.3554C42.7104 24.7836 41.949 21.119 41.5281 17.4078C41.2121 14.4153 43.6143 12.3327 46.251 12.3327C47.4 12.2872 48.5222 12.6874 49.3832 13.4497C50.2441 14.2121 50.7771 15.2776 50.8711 16.4237C51.2051 19.5667 51.8396 22.6704 52.7659 25.6923C54.2642 30.4712 55.8537 32.3088 56.9983 32.3088C58.8468 32.3088 59.9746 27.565 60.9716 23.048C61.7062 19.7201 62.5002 16.3667 64.0679 13.3878C66.7949 8.20586 70.9162 7 74.4765 7C82.2835 7 86.1908 16.0378 86.1908 18.3794C86.2273 19.006 86.1364 19.6335 85.9235 20.2239C85.7106 20.8144 85.3802 21.3555 84.9521 21.8146C84.5242 22.2737 84.0075 22.6412 83.4334 22.8949C82.8593 23.1486 82.2398 23.2833 81.6122 23.2907C78.5841 23.2907 77.5576 21.2634 76.6936 19.4865C75.9165 17.8879 75.1049 16.5587 74.0555 16.5587C73.8717 16.5689 73.6919 16.6162 73.527 16.6978C73.362 16.7794 73.2152 16.8935 73.0954 17.0332C70.4873 19.682 69.6126 33.5391 64.3976 38.8356C61.5066 41.7716 58.3609 41.7716 56.3936 41.7716Z" fill="url(#paint6_radial_13250_6177)"/>
<path d="M56.3936 41.7716C47.5055 41.7716 44.4805 30.5404 43.8026 28.3554C42.7104 24.7836 41.949 21.119 41.5281 17.4078C41.2121 14.4153 43.6143 12.3327 46.251 12.3327C47.4 12.2872 48.5222 12.6874 49.3832 13.4497C50.2441 14.2121 50.7771 15.2776 50.8711 16.4237C51.2051 19.5667 51.8396 22.6704 52.7659 25.6923C54.2642 30.4712 55.8537 32.3088 56.9983 32.3088C58.8468 32.3088 59.9746 27.565 60.9716 23.048C61.7062 19.7201 62.5002 16.3667 64.0679 13.3878C66.7949 8.20586 70.9162 7 74.4765 7C82.2835 7 86.1908 16.0378 86.1908 18.3794C86.2273 19.006 86.1364 19.6335 85.9235 20.2239C85.7106 20.8144 85.3802 21.3555 84.9521 21.8146C84.5242 22.2737 84.0075 22.6412 83.4334 22.8949C82.8593 23.1486 82.2398 23.2833 81.6122 23.2907C78.5841 23.2907 77.5576 21.2634 76.6936 19.4865C75.9165 17.8879 75.1049 16.5587 74.0555 16.5587C73.8717 16.5689 73.6919 16.6162 73.527 16.6978C73.362 16.7794 73.2152 16.8935 73.0954 17.0332C70.4873 19.682 69.6126 33.5391 64.3976 38.8356C61.5066 41.7716 58.3609 41.7716 56.3936 41.7716Z" fill="url(#paint7_linear_13250_6177)"/>
<path d="M74.4758 7C70.9155 7 66.7942 8.20586 64.0668 13.3881C62.4991 16.3668 61.7049 19.7202 60.9706 23.0483C60.7287 24.1434 60.4792 25.2517 60.2139 26.3027V41.3592C61.8074 40.9038 63.2512 40.0328 64.3973 38.8355C69.6118 33.5393 70.4866 19.6821 73.0949 17.0334C73.2146 16.8937 73.3614 16.7795 73.5263 16.6979C73.6913 16.6164 73.8711 16.5691 74.0549 16.5588C75.1043 16.5588 75.9159 17.888 76.6931 19.4866C77.5571 21.2636 78.5835 23.2909 81.6116 23.2909C82.2391 23.2834 82.8587 23.1488 83.4328 22.8951C84.0069 22.6414 84.5235 22.2738 84.9516 21.8148C85.3795 21.3556 85.71 20.8145 85.9229 20.2241C86.1358 19.6337 86.2267 19.0061 86.1902 18.3796C86.19 16.0378 82.2829 7 74.4758 7Z" fill="url(#paint8_radial_13250_6177)"/>
<path d="M56.3936 41.7716C47.5055 41.7716 44.4805 30.5404 43.8026 28.3554C42.7104 24.7836 41.949 21.119 41.5281 17.4078C41.2121 14.4153 43.6143 12.3327 46.251 12.3327C47.4 12.2872 48.5222 12.6874 49.3832 13.4497C50.2441 14.2121 50.7771 15.2776 50.8711 16.4237C51.2051 19.5667 51.8396 22.6704 52.7659 25.6923C54.2642 30.4712 55.8537 32.3088 56.9983 32.3088C58.8468 32.3088 59.9746 27.565 60.9716 23.048C61.7062 19.7201 62.5002 16.3667 64.0679 13.3878C66.7949 8.20586 70.9162 7 74.4765 7C82.2835 7 86.1908 16.0378 86.1908 18.3794C86.2273 19.006 86.1364 19.6335 85.9235 20.2239C85.7106 20.8144 85.3802 21.3555 84.9521 21.8146C84.5242 22.2737 84.0075 22.6412 83.4334 22.8949C82.8593 23.1486 82.2398 23.2833 81.6122 23.2907C78.5841 23.2907 77.5576 21.2634 76.6936 19.4865C75.9165 17.8879 75.1049 16.5587 74.0555 16.5587C73.8717 16.5689 73.6919 16.6162 73.527 16.6978C73.362 16.7794 73.2152 16.8935 73.0954 17.0332C70.4873 19.682 69.6126 33.5391 64.3976 38.8356C61.5066 41.7716 58.3609 41.7716 56.3936 41.7716Z" fill="url(#paint9_radial_13250_6177)"/>
<path d="M56.3936 41.7716C47.5055 41.7716 44.4805 30.5404 43.8026 28.3554C42.7104 24.7836 41.949 21.119 41.5281 17.4078C41.2121 14.4153 43.6143 12.3327 46.251 12.3327C47.4 12.2872 48.5222 12.6874 49.3832 13.4497C50.2441 14.2121 50.7771 15.2776 50.8711 16.4237C51.2051 19.5667 51.8396 22.6704 52.7659 25.6923C54.2642 30.4712 55.8537 32.3088 56.9983 32.3088C58.8468 32.3088 59.9746 27.565 60.9716 23.048C61.7062 19.7201 62.5002 16.3667 64.0679 13.3878C66.7949 8.20586 70.9162 7 74.4765 7C82.2835 7 86.1908 16.0378 86.1908 18.3794C86.2273 19.006 86.1364 19.6335 85.9235 20.2239C85.7106 20.8144 85.3802 21.3555 84.9521 21.8146C84.5242 22.2737 84.0075 22.6412 83.4334 22.8949C82.8593 23.1486 82.2398 23.2833 81.6122 23.2907C78.5841 23.2907 77.5576 21.2634 76.6936 19.4865C75.9165 17.8879 75.1049 16.5587 74.0555 16.5587C73.8717 16.5689 73.6919 16.6162 73.527 16.6978C73.362 16.7794 73.2152 16.8935 73.0954 17.0332C70.4873 19.682 69.6126 33.5391 64.3976 38.8356C61.5066 41.7716 58.3609 41.7716 56.3936 41.7716Z" fill="url(#paint10_radial_13250_6177)"/>
<path d="M56.3936 41.7716C47.5055 41.7716 44.4805 30.5404 43.8026 28.3554C42.7104 24.7836 41.949 21.119 41.5281 17.4078C41.2121 14.4153 43.6143 12.3327 46.251 12.3327C47.4 12.2872 48.5222 12.6874 49.3832 13.4497C50.2441 14.2121 50.7771 15.2776 50.8711 16.4237C51.2051 19.5667 51.8396 22.6704 52.7659 25.6923C54.2642 30.4712 55.8537 32.3088 56.9983 32.3088C58.8468 32.3088 59.9746 27.565 60.9716 23.048C61.7062 19.7201 62.5002 16.3667 64.0679 13.3878C66.7949 8.20586 70.9162 7 74.4765 7C82.2835 7 86.1908 16.0378 86.1908 18.3794C86.2273 19.006 86.1364 19.6335 85.9235 20.2239C85.7106 20.8144 85.3802 21.3555 84.9521 21.8146C84.5242 22.2737 84.0075 22.6412 83.4334 22.8949C82.8593 23.1486 82.2398 23.2833 81.6122 23.2907C78.5841 23.2907 77.5576 21.2634 76.6936 19.4865C75.9165 17.8879 75.1049 16.5587 74.0555 16.5587C73.8717 16.5689 73.6919 16.6162 73.527 16.6978C73.362 16.7794 73.2152 16.8935 73.0954 17.0332C70.4873 19.682 69.6126 33.5391 64.3976 38.8356C61.5066 41.7716 58.3609 41.7716 56.3936 41.7716Z" fill="url(#paint11_radial_13250_6177)"/>
<path d="M56.3936 41.7716C47.5055 41.7716 44.4805 30.5404 43.8026 28.3554C42.7104 24.7836 41.949 21.119 41.5281 17.4078C41.2121 14.4153 43.6143 12.3327 46.251 12.3327C47.4 12.2872 48.5222 12.6874 49.3832 13.4497C50.2441 14.2121 50.7771 15.2776 50.8711 16.4237C51.2051 19.5667 51.8396 22.6704 52.7659 25.6923C54.2642 30.4712 55.8537 32.3088 56.9983 32.3088C58.8468 32.3088 59.9746 27.565 60.9716 23.048C61.7062 19.7201 62.5002 16.3667 64.0679 13.3878C66.7949 8.20586 70.9162 7 74.4765 7C82.2835 7 86.1908 16.0378 86.1908 18.3794C86.2273 19.006 86.1364 19.6335 85.9235 20.2239C85.7106 20.8144 85.3802 21.3555 84.9521 21.8146C84.5242 22.2737 84.0075 22.6412 83.4334 22.8949C82.8593 23.1486 82.2398 23.2833 81.6122 23.2907C78.5841 23.2907 77.5576 21.2634 76.6936 19.4865C75.9165 17.8879 75.1049 16.5587 74.0555 16.5587C73.8717 16.5689 73.6919 16.6162 73.527 16.6978C73.362 16.7794 73.2152 16.8935 73.0954 17.0332C70.4873 19.682 69.6126 33.5391 64.3976 38.8356C61.5066 41.7716 58.3609 41.7716 56.3936 41.7716Z" fill="url(#paint12_radial_13250_6177)"/>
<path d="M56.3936 41.7716C47.5055 41.7716 44.4805 30.5404 43.8026 28.3554C42.7104 24.7836 41.949 21.119 41.5281 17.4078C41.2121 14.4153 43.6143 12.3327 46.251 12.3327C47.4 12.2872 48.5222 12.6874 49.3832 13.4497C50.2441 14.2121 50.7771 15.2776 50.8711 16.4237C51.2051 19.5667 51.8396 22.6704 52.7659 25.6923C54.2642 30.4712 55.8537 32.3088 56.9983 32.3088C58.8468 32.3088 59.9746 27.565 60.9716 23.048C61.7062 19.7201 62.5002 16.3667 64.0679 13.3878C66.7949 8.20586 70.9162 7 74.4765 7C82.2835 7 86.1908 16.0378 86.1908 18.3794C86.2273 19.006 86.1364 19.6335 85.9235 20.2239C85.7106 20.8144 85.3802 21.3555 84.9521 21.8146C84.5242 22.2737 84.0075 22.6412 83.4334 22.8949C82.8593 23.1486 82.2398 23.2833 81.6122 23.2907C78.5841 23.2907 77.5576 21.2634 76.6936 19.4865C75.9165 17.8879 75.1049 16.5587 74.0555 16.5587C73.8717 16.5689 73.6919 16.6162 73.527 16.6978C73.362 16.7794 73.2152 16.8935 73.0954 17.0332C70.4873 19.682 69.6126 33.5391 64.3976 38.8356C61.5066 41.7716 58.3609 41.7716 56.3936 41.7716Z" fill="url(#paint13_radial_13250_6177)"/>
<path d="M56.3936 41.7716C47.5055 41.7716 44.4805 30.5404 43.8026 28.3554C42.7104 24.7836 41.949 21.119 41.5281 17.4078C41.2121 14.4153 43.6143 12.3327 46.251 12.3327C47.4 12.2872 48.5222 12.6874 49.3832 13.4497C50.2441 14.2121 50.7771 15.2776 50.8711 16.4237C51.2051 19.5667 51.8397 22.6704 52.7659 25.6923C54.2642 30.4712 55.8537 32.3088 56.9983 32.3088C58.8468 32.3088 59.9746 27.565 60.9716 23.048C61.7062 19.7201 62.5002 16.3667 64.0679 13.3878C66.7949 8.20586 70.9162 7 74.4765 7C82.2835 7 86.1908 16.0378 86.1908 18.3794C86.2273 19.006 86.1364 19.6335 85.9235 20.2239C85.7106 20.8144 85.3802 21.3555 84.9521 21.8146C84.5242 22.2737 84.0075 22.6412 83.4334 22.8949C82.8593 23.1486 82.2398 23.2833 81.6122 23.2907C78.5841 23.2907 77.5576 21.2634 76.6936 19.4865C75.9165 17.8879 75.1049 16.5587 74.0555 16.5587C73.8717 16.5689 73.6919 16.6162 73.527 16.6978C73.362 16.7794 73.2152 16.8935 73.0954 17.0332C70.4873 19.682 69.6126 33.5391 64.3976 38.8356C61.5066 41.7716 58.3609 41.7716 56.3936 41.7716Z" fill="url(#paint14_linear_13250_6177)"/>
<path d="M84.7509 12.3328C84.3974 12.3325 84.0448 12.3665 83.6979 12.4344C85.3482 14.8121 86.1739 17.303 86.1739 18.3793C86.2096 19.2299 86.0143 20.0743 85.6088 20.8229C85.2032 21.5715 84.6026 22.1964 83.8707 22.6312C83.1387 23.066 81.8715 23.2763 81.4669 23.2763C81.0623 23.2763 79.7468 23.0309 79.0169 22.5927V22.693C78.8223 23.4696 78.6687 24.3196 78.4029 25.1467C77.8872 26.8004 77.2396 28.4099 76.4661 29.9597C75.6726 31.4752 74.8868 32.362 73.9503 32.3154C72.8853 32.2626 72.0218 30.8909 70.9486 27.0142C70.6024 25.7643 70.282 24.3939 69.985 23.0482C69.2483 19.7105 68.3441 16.3541 66.7979 13.388C65.8607 11.464 64.3994 9.84378 62.582 8.7137C60.7647 7.58363 58.6652 6.98965 56.5251 7.00014C53.3356 7.00014 50.9527 8.50906 49.0806 10.4101C48.4719 11.0494 47.9199 11.7404 47.4307 12.4751C48.3522 12.6732 49.1843 13.1654 49.8017 13.8775C50.4192 14.5897 50.7884 15.4832 50.8538 16.4235C51.1437 19.1451 51.6568 21.8383 52.3879 24.4758C52.919 22.7729 53.5603 21.1063 54.3079 19.4867C54.6789 18.6439 55.1787 17.864 55.7893 17.1748C55.9249 17.0085 56.0925 16.8711 56.2821 16.7708C56.4717 16.6705 56.6796 16.6091 56.8933 16.5905C57.2493 16.5905 58.4651 16.9161 59.6487 21.0662C61.1166 26.2123 62.209 34.4023 66.371 38.7509C68.2067 40.669 70.7755 41.91 74.3358 41.91C75.7568 41.904 77.1618 41.6096 78.4657 41.0446C79.7696 40.4796 80.9452 39.6557 81.9213 38.623C84.9745 35.4784 86.6476 30.2794 87.2444 28.3555C88.3324 24.7851 89.0788 21.1195 89.4735 17.408C89.7894 14.4154 87.2664 12.3328 84.7509 12.3328Z" fill="#EFEFEF"/>
<path d="M84.7509 12.3328C84.3974 12.3325 84.0448 12.3665 83.6979 12.4344C85.3482 14.8121 86.1739 17.303 86.1739 18.3793C86.2096 19.2299 86.0143 20.0743 85.6088 20.8229C85.2032 21.5715 84.6026 22.1964 83.8707 22.6312C83.1387 23.066 81.8715 23.2763 81.4669 23.2763C81.0623 23.2763 79.7468 23.0309 79.0169 22.5927V22.693C78.8223 23.4696 78.6687 24.3196 78.4029 25.1467C77.8872 26.8004 77.2396 28.4099 76.4661 29.9597C75.6726 31.4752 74.8868 32.362 73.9503 32.3154C72.8853 32.2626 72.0218 30.8909 70.9486 27.0142C70.6024 25.7643 70.282 24.3939 69.985 23.0482C69.2483 19.7105 68.3441 16.3541 66.7979 13.388C65.8607 11.464 64.3994 9.84378 62.582 8.7137C60.7647 7.58363 58.6652 6.98965 56.5251 7.00014C53.3356 7.00014 50.9527 8.50906 49.0806 10.4101C48.4719 11.0494 47.9199 11.7404 47.4307 12.4751C48.3522 12.6732 49.1843 13.1654 49.8017 13.8775C50.4192 14.5897 50.7884 15.4832 50.8538 16.4235C51.1437 19.1451 51.6568 21.8383 52.3879 24.4758C52.919 22.7729 53.5603 21.1063 54.3079 19.4867C54.6789 18.6439 55.1787 17.864 55.7893 17.1748C55.9249 17.0085 56.0925 16.8711 56.2821 16.7708C56.4717 16.6705 56.6796 16.6091 56.8933 16.5905C57.2493 16.5905 58.4651 16.9161 59.6487 21.0662C61.1166 26.2123 62.209 34.4023 66.371 38.7509C68.2067 40.669 70.7755 41.91 74.3358 41.91C75.7568 41.904 77.1618 41.6096 78.4657 41.0446C79.7696 40.4796 80.9452 39.6557 81.9213 38.623C84.9745 35.4784 86.6476 30.2794 87.2444 28.3555C88.3324 24.7851 89.0788 21.1195 89.4735 17.408C89.7894 14.4154 87.2664 12.3328 84.7509 12.3328Z" fill="url(#paint15_radial_13250_6177)"/>
<path d="M84.7509 12.3328C84.3974 12.3325 84.0448 12.3665 83.6979 12.4344C85.3482 14.8121 86.1739 17.303 86.1739 18.3793C86.2096 19.2299 86.0143 20.0743 85.6088 20.8229C85.2032 21.5715 84.6026 22.1964 83.8707 22.6312C83.1387 23.066 81.8715 23.2763 81.4669 23.2763C81.0623 23.2763 79.7468 23.0309 79.0169 22.5927V22.693C78.8223 23.4696 78.6687 24.3196 78.4029 25.1467C77.8872 26.8004 77.2396 28.4099 76.4661 29.9597C75.6726 31.4752 74.8868 32.362 73.9503 32.3154C72.8853 32.2626 72.0218 30.8909 70.9486 27.0142C70.6024 25.7643 70.282 24.3939 69.985 23.0482C69.2483 19.7105 68.3441 16.3541 66.7979 13.388C65.8607 11.464 64.3994 9.84378 62.582 8.7137C60.7647 7.58363 58.6652 6.98965 56.5251 7.00014C53.3356 7.00014 50.9527 8.50906 49.0806 10.4101C48.4719 11.0494 47.9199 11.7404 47.4307 12.4751C48.3522 12.6732 49.1843 13.1654 49.8017 13.8775C50.4192 14.5897 50.7884 15.4832 50.8538 16.4235C51.1437 19.1451 51.6568 21.8383 52.3879 24.4758C52.919 22.7729 53.5603 21.1063 54.3079 19.4867C54.6789 18.6439 55.1787 17.864 55.7893 17.1748C55.9249 17.0085 56.0925 16.8711 56.2821 16.7708C56.4717 16.6705 56.6796 16.6091 56.8933 16.5905C57.2493 16.5905 58.4651 16.9161 59.6487 21.0662C61.1166 26.2123 62.209 34.4023 66.371 38.7509C68.2067 40.669 70.7755 41.91 74.3358 41.91C75.7568 41.904 77.1618 41.6096 78.4657 41.0446C79.7696 40.4796 80.9452 39.6557 81.9213 38.623C84.9745 35.4784 86.6476 30.2794 87.2444 28.3555C88.3324 24.7851 89.0788 21.1195 89.4735 17.408C89.7894 14.4154 87.2664 12.3328 84.7509 12.3328Z" fill="url(#paint16_radial_13250_6177)"/>
<path d="M84.7509 12.3328C84.3974 12.3325 84.0448 12.3665 83.6979 12.4344C85.3482 14.8121 86.1739 17.303 86.1739 18.3793C86.2096 19.2299 86.0143 20.0743 85.6088 20.8229C85.2032 21.5715 84.6026 22.1964 83.8707 22.6312C83.1387 23.066 81.8715 23.2763 81.4669 23.2763C81.0623 23.2763 79.7468 23.0309 79.0169 22.5927V22.693C78.8223 23.4696 78.6687 24.3196 78.4029 25.1467C77.8872 26.8004 77.2396 28.4099 76.4661 29.9597C75.6726 31.4752 74.8868 32.362 73.9503 32.3154C72.8853 32.2626 72.0218 30.8909 70.9486 27.0142C70.6024 25.7643 70.282 24.3939 69.985 23.0482C69.2483 19.7105 68.3441 16.3541 66.7979 13.388C65.8607 11.464 64.3994 9.84378 62.582 8.7137C60.7647 7.58363 58.6652 6.98965 56.5251 7.00014C53.3356 7.00014 50.9527 8.50906 49.0806 10.4101C48.4719 11.0494 47.9199 11.7404 47.4307 12.4751C48.3522 12.6732 49.1843 13.1654 49.8017 13.8775C50.4192 14.5897 50.7884 15.4832 50.8538 16.4235C51.1437 19.1451 51.6568 21.8383 52.3879 24.4758C52.919 22.7729 53.5603 21.1063 54.3079 19.4867C54.6789 18.6439 55.1787 17.864 55.7893 17.1748C55.9249 17.0085 56.0925 16.8711 56.2821 16.7708C56.4717 16.6705 56.6796 16.6091 56.8933 16.5905C57.2493 16.5905 58.4651 16.9161 59.6487 21.0662C61.1166 26.2123 62.209 34.4023 66.371 38.7509C68.2067 40.669 70.7755 41.91 74.3358 41.91C75.7568 41.904 77.1618 41.6096 78.4657 41.0446C79.7696 40.4796 80.9452 39.6557 81.9213 38.623C84.9745 35.4784 86.6476 30.2794 87.2444 28.3555C88.3324 24.7851 89.0788 21.1195 89.4735 17.408C89.7894 14.4154 87.2664 12.3328 84.7509 12.3328Z" fill="url(#paint17_radial_13250_6177)"/>
<path d="M84.7509 12.3328C84.3974 12.3325 84.0448 12.3665 83.6979 12.4344C85.3482 14.8121 86.1739 17.303 86.1739 18.3793C86.2096 19.2299 86.0143 20.0743 85.6088 20.8229C85.2032 21.5715 84.6026 22.1964 83.8707 22.6312C83.1387 23.066 81.8715 23.2763 81.4669 23.2763C81.0623 23.2763 79.7468 23.0309 79.0169 22.5927V22.693C78.8223 23.4696 78.6687 24.3196 78.4029 25.1467C77.8872 26.8004 77.2396 28.4099 76.4661 29.9597C75.6726 31.4752 74.8868 32.362 73.9503 32.3154C72.8853 32.2626 72.0218 30.8909 70.9486 27.0142C70.6024 25.7643 70.282 24.3939 69.985 23.0482C69.2483 19.7105 68.3441 16.3541 66.7979 13.388C65.8607 11.464 64.3994 9.84378 62.582 8.7137C60.7647 7.58363 58.6652 6.98965 56.5251 7.00014C53.3356 7.00014 50.9527 8.50906 49.0806 10.4101C48.4719 11.0494 47.9199 11.7404 47.4307 12.4751C48.3522 12.6732 49.1843 13.1654 49.8017 13.8775C50.4192 14.5897 50.7884 15.4832 50.8538 16.4235C51.1437 19.1451 51.6568 21.8383 52.3879 24.4758C52.919 22.7729 53.5603 21.1063 54.3079 19.4867C54.6789 18.6439 55.1787 17.864 55.7893 17.1748C55.9249 17.0085 56.0925 16.8711 56.2821 16.7708C56.4717 16.6705 56.6796 16.6091 56.8933 16.5905C57.2493 16.5905 58.4651 16.9161 59.6487 21.0662C61.1166 26.2123 62.209 34.4023 66.371 38.7509C68.2067 40.669 70.7755 41.91 74.3358 41.91C75.7568 41.904 77.1618 41.6096 78.4657 41.0446C79.7696 40.4796 80.9452 39.6557 81.9213 38.623C84.9745 35.4784 86.6476 30.2794 87.2444 28.3555C88.3324 24.7851 89.0788 21.1195 89.4735 17.408C89.7894 14.4154 87.2664 12.3328 84.7509 12.3328Z" fill="url(#paint18_radial_13250_6177)"/>
<path d="M84.7509 12.3328C84.3974 12.3325 84.0448 12.3665 83.6979 12.4344C85.3482 14.8121 86.1739 17.303 86.1739 18.3793C86.2096 19.2299 86.0143 20.0743 85.6088 20.8229C85.2032 21.5715 84.6026 22.1964 83.8707 22.6312C83.1387 23.066 81.8715 23.2763 81.4669 23.2763C81.0623 23.2763 79.7468 23.0309 79.0169 22.5927V22.693C78.8223 23.4696 78.6687 24.3196 78.4029 25.1467C77.8872 26.8004 77.2396 28.4099 76.4661 29.9597C75.6726 31.4752 74.8868 32.362 73.9503 32.3154C72.8853 32.2626 72.0218 30.8909 70.9486 27.0142C70.6024 25.7643 70.282 24.3939 69.985 23.0482C69.2483 19.7105 68.3441 16.3541 66.7979 13.388C65.8607 11.464 64.3994 9.84378 62.582 8.7137C60.7647 7.58363 58.6652 6.98965 56.5251 7.00014C53.3356 7.00014 50.9527 8.50906 49.0806 10.4101C48.4719 11.0494 47.9199 11.7404 47.4307 12.4751C48.3522 12.6732 49.1843 13.1654 49.8017 13.8775C50.4192 14.5897 50.7884 15.4832 50.8538 16.4235C51.1437 19.1451 51.6568 21.8383 52.3879 24.4758C52.919 22.7729 53.5603 21.1063 54.3079 19.4867C54.6789 18.6439 55.1787 17.864 55.7893 17.1748C55.9249 17.0085 56.0925 16.8711 56.2821 16.7708C56.4717 16.6705 56.6796 16.6091 56.8933 16.5905C57.2493 16.5905 58.4651 16.9161 59.6487 21.0662C61.1166 26.2123 62.209 34.4023 66.371 38.7509C68.2067 40.669 70.7755 41.91 74.3358 41.91C75.7568 41.904 77.1618 41.6096 78.4657 41.0446C79.7696 40.4796 80.9452 39.6557 81.9213 38.623C84.9745 35.4784 86.6476 30.2794 87.2444 28.3555C88.3324 24.7851 89.0788 21.1195 89.4735 17.408C89.7894 14.4154 87.2664 12.3328 84.7509 12.3328Z" fill="url(#paint19_radial_13250_6177)"/>
<path d="M84.7509 12.3328C84.3974 12.3325 84.0448 12.3665 83.6979 12.4344C85.3482 14.8121 86.1739 17.303 86.1739 18.3793C86.2096 19.2299 86.0143 20.0743 85.6088 20.8229C85.2032 21.5715 84.6026 22.1964 83.8707 22.6312C83.1387 23.066 81.8715 23.2763 81.4669 23.2763C81.0623 23.2763 79.7468 23.0309 79.0169 22.5927V22.693C78.8223 23.4696 78.6687 24.3196 78.4029 25.1467C77.8872 26.8004 77.2396 28.4099 76.4661 29.9597C75.6726 31.4752 74.8868 32.362 73.9503 32.3154C72.8853 32.2626 72.0218 30.8909 70.9486 27.0142C70.6024 25.7643 70.282 24.3939 69.985 23.0482C69.2483 19.7105 68.3441 16.3541 66.7979 13.388C65.8607 11.464 64.3994 9.84378 62.582 8.7137C60.7647 7.58363 58.6652 6.98965 56.5251 7.00014C53.3356 7.00014 50.9527 8.50906 49.0806 10.4101C48.4719 11.0494 47.9199 11.7404 47.4307 12.4751C48.3522 12.6732 49.1843 13.1654 49.8017 13.8775C50.4192 14.5897 50.7884 15.4832 50.8538 16.4235C51.1437 19.1451 51.6568 21.8383 52.3879 24.4758C52.919 22.7729 53.5603 21.1063 54.3079 19.4867C54.6789 18.6439 55.1787 17.864 55.7893 17.1748C55.9249 17.0085 56.0925 16.8711 56.2821 16.7708C56.4717 16.6705 56.6796 16.6091 56.8933 16.5905C57.2493 16.5905 58.4651 16.9161 59.6487 21.0662C61.1166 26.2123 62.209 34.4023 66.371 38.7509C68.2067 40.669 70.7755 41.91 74.3358 41.91C75.7568 41.904 77.1618 41.6096 78.4657 41.0446C79.7696 40.4796 80.9452 39.6557 81.9213 38.623C84.9745 35.4784 86.6476 30.2794 87.2444 28.3555C88.3324 24.7851 89.0788 21.1195 89.4735 17.408C89.7894 14.4154 87.2664 12.3328 84.7509 12.3328Z" fill="url(#paint20_radial_13250_6177)"/>
<path d="M84.7509 12.3328C84.3974 12.3325 84.0448 12.3665 83.6979 12.4344C85.3482 14.8121 86.1739 17.303 86.1739 18.3793C86.2096 19.2299 86.0143 20.0743 85.6088 20.8229C85.2032 21.5715 84.6026 22.1964 83.8707 22.6312C83.1387 23.066 81.8715 23.2763 81.4669 23.2763C81.0623 23.2763 79.7468 23.0309 79.0169 22.5927V22.693C78.8223 23.4696 78.6687 24.3196 78.4029 25.1467C77.8872 26.8004 77.2396 28.4099 76.4661 29.9597C75.6726 31.4752 74.8868 32.362 73.9503 32.3154C72.8853 32.2626 72.0218 30.8909 70.9486 27.0142C70.6024 25.7643 70.282 24.3939 69.985 23.0482C69.2483 19.7105 68.3441 16.3541 66.7979 13.388C65.8607 11.464 64.3994 9.84378 62.582 8.7137C60.7647 7.58363 58.6652 6.98965 56.5251 7.00014C53.3356 7.00014 50.9527 8.50906 49.0806 10.4101C48.4719 11.0494 47.9199 11.7404 47.4307 12.4751C48.3522 12.6732 49.1843 13.1654 49.8017 13.8775C50.4192 14.5897 50.7884 15.4832 50.8538 16.4235C51.1437 19.1451 51.6568 21.8383 52.3879 24.4758C52.919 22.7729 53.5603 21.1063 54.3079 19.4867C54.6789 18.6439 55.1787 17.864 55.7893 17.1748C55.9249 17.0085 56.0925 16.8711 56.2821 16.7708C56.4717 16.6705 56.6796 16.6091 56.8933 16.5905C57.2493 16.5905 58.4651 16.9161 59.6487 21.0662C61.1166 26.2123 62.209 34.4023 66.371 38.7509C68.2067 40.669 70.7755 41.91 74.3358 41.91C75.7568 41.904 77.1618 41.6096 78.4657 41.0446C79.7696 40.4796 80.9452 39.6557 81.9213 38.623C84.9745 35.4784 86.6476 30.2794 87.2444 28.3555C88.3324 24.7851 89.0788 21.1195 89.4735 17.408C89.7894 14.4154 87.2664 12.3328 84.7509 12.3328Z" fill="url(#paint21_radial_13250_6177)"/>
<path d="M84.7509 12.3328C84.3974 12.3325 84.0448 12.3665 83.6979 12.4344C85.3482 14.8121 86.1739 17.303 86.1739 18.3793C86.2096 19.2299 86.0143 20.0743 85.6088 20.8229C85.2032 21.5715 84.6026 22.1964 83.8707 22.6312C83.1387 23.066 81.8715 23.2763 81.4669 23.2763C81.0623 23.2763 79.7468 23.0309 79.0169 22.5927V22.693C78.8223 23.4696 78.6687 24.3196 78.4029 25.1467C77.8872 26.8004 77.2396 28.4099 76.4661 29.9597C75.6726 31.4752 74.8868 32.362 73.9503 32.3154C72.8853 32.2626 72.0218 30.8909 70.9486 27.0142C70.6024 25.7643 70.282 24.3939 69.985 23.0482C69.2483 19.7105 68.3441 16.3541 66.7979 13.388C65.8607 11.464 64.3994 9.84378 62.582 8.7137C60.7647 7.58363 58.6652 6.98965 56.5251 7.00014C53.3356 7.00014 50.9527 8.50906 49.0806 10.4101C48.4719 11.0494 47.9199 11.7404 47.4307 12.4751C48.3522 12.6732 49.1843 13.1654 49.8017 13.8775C50.4192 14.5897 50.7884 15.4832 50.8538 16.4235C51.1437 19.1451 51.6568 21.8383 52.3879 24.4758C52.919 22.7729 53.5603 21.1063 54.3079 19.4867C54.6789 18.6439 55.1787 17.864 55.7893 17.1748C55.9249 17.0085 56.0925 16.8711 56.2821 16.7708C56.4717 16.6705 56.6796 16.6091 56.8933 16.5905C57.2493 16.5905 58.4651 16.9161 59.6487 21.0662C61.1166 26.2123 62.209 34.4023 66.371 38.7509C68.2067 40.669 70.7755 41.91 74.3358 41.91C75.7568 41.904 77.1618 41.6096 78.4657 41.0446C79.7696 40.4796 80.9452 39.6557 81.9213 38.623C84.9745 35.4784 86.6476 30.2794 87.2444 28.3555C88.3324 24.7851 89.0788 21.1195 89.4735 17.408C89.7894 14.4154 87.2664 12.3328 84.7509 12.3328Z" fill="url(#paint22_radial_13250_6177)"/>
<path d="M84.7509 12.3328C84.3974 12.3325 84.0448 12.3665 83.6979 12.4344C85.3482 14.8121 86.1739 17.303 86.1739 18.3793C86.2096 19.2299 86.0143 20.0743 85.6088 20.8229C85.2032 21.5715 84.6026 22.1964 83.8707 22.6312C83.1387 23.066 81.8715 23.2763 81.4669 23.2763C81.0623 23.2763 79.7468 23.0309 79.0169 22.5927V22.693C78.8223 23.4696 78.6687 24.3196 78.4029 25.1467C77.8872 26.8004 77.2396 28.4099 76.4661 29.9597C75.6726 31.4752 74.8868 32.362 73.9503 32.3154C72.8853 32.2626 72.0218 30.8909 70.9486 27.0142C70.6024 25.7643 70.282 24.3939 69.985 23.0482C69.2483 19.7105 68.3441 16.3541 66.7979 13.388C65.8607 11.464 64.3994 9.84378 62.582 8.7137C60.7647 7.58363 58.6652 6.98965 56.5251 7.00014C53.3356 7.00014 50.9527 8.50906 49.0806 10.4101C48.4719 11.0494 47.9199 11.7404 47.4307 12.4751C48.3522 12.6732 49.1843 13.1654 49.8017 13.8775C50.4192 14.5897 50.7884 15.4832 50.8538 16.4235C51.1437 19.1451 51.6568 21.8383 52.3879 24.4758C52.919 22.7729 53.5603 21.1063 54.3079 19.4867C54.6789 18.6439 55.1787 17.864 55.7893 17.1748C55.9249 17.0085 56.0925 16.8711 56.2821 16.7708C56.4717 16.6705 56.6796 16.6091 56.8933 16.5905C57.2493 16.5905 58.4651 16.9161 59.6487 21.0662C61.1166 26.2123 62.209 34.4023 66.371 38.7509C68.2067 40.669 70.7755 41.91 74.3358 41.91C75.7568 41.904 77.1618 41.6096 78.4657 41.0446C79.7696 40.4796 80.9452 39.6557 81.9213 38.623C84.9745 35.4784 86.6476 30.2794 87.2444 28.3555C88.3324 24.7851 89.0788 21.1195 89.4735 17.408C89.7894 14.4154 87.2664 12.3328 84.7509 12.3328Z" fill="url(#paint23_radial_13250_6177)"/>
<path d="M84.7509 12.3328C84.3974 12.3325 84.0448 12.3665 83.6979 12.4344C85.3482 14.8121 86.1739 17.303 86.1739 18.3793C86.2096 19.2299 86.0143 20.0743 85.6088 20.8229C85.2032 21.5715 84.6026 22.1964 83.8707 22.6312C83.1387 23.066 81.8715 23.2763 81.4669 23.2763C81.0623 23.2763 79.7468 23.0309 79.0169 22.5927V22.693C78.8223 23.4696 78.6687 24.3196 78.4029 25.1467C77.8872 26.8004 77.2396 28.4099 76.4661 29.9597C75.6726 31.4752 74.8868 32.362 73.9503 32.3154C72.8853 32.2626 72.0218 30.8909 70.9486 27.0142C70.6024 25.7643 70.282 24.3939 69.985 23.0482C69.2483 19.7105 68.3441 16.3541 66.7979 13.388C65.8607 11.464 64.3994 9.84378 62.582 8.7137C60.7647 7.58363 58.6652 6.98965 56.5251 7.00014C53.3356 7.00014 50.9527 8.50906 49.0806 10.4101C48.4719 11.0494 47.9199 11.7404 47.4307 12.4751C48.3522 12.6732 49.1843 13.1654 49.8017 13.8775C50.4192 14.5897 50.7884 15.4832 50.8538 16.4235C51.1437 19.1451 51.6568 21.8383 52.3879 24.4758C52.919 22.7729 53.5603 21.1063 54.3079 19.4867C54.6789 18.6439 55.1787 17.864 55.7893 17.1748C55.9249 17.0085 56.0925 16.8711 56.2821 16.7708C56.4717 16.6705 56.6796 16.6091 56.8933 16.5905C57.2493 16.5905 58.4651 16.9161 59.6487 21.0662C61.1166 26.2123 62.209 34.4023 66.371 38.7509C68.2067 40.669 70.7755 41.91 74.3358 41.91C75.7568 41.904 77.1618 41.6096 78.4657 41.0446C79.7696 40.4796 80.9452 39.6557 81.9213 38.623C84.9745 35.4784 86.6476 30.2794 87.2444 28.3555C88.3324 24.7851 89.0788 21.1195 89.4735 17.408C89.7894 14.4154 87.2664 12.3328 84.7509 12.3328Z" fill="url(#paint24_radial_13250_6177)"/>
<path d="M84.7509 12.3328C84.3974 12.3325 84.0448 12.3665 83.6979 12.4344C85.3482 14.8121 86.1739 17.303 86.1739 18.3793C86.2096 19.2299 86.0143 20.0743 85.6088 20.8229C85.2032 21.5715 84.6026 22.1964 83.8707 22.6312C83.1387 23.066 81.8715 23.2763 81.4669 23.2763C81.0623 23.2763 79.7468 23.0309 79.0169 22.5927V22.693C78.8223 23.4696 78.6687 24.3196 78.4029 25.1467C77.8872 26.8004 77.2396 28.4099 76.4661 29.9597C75.6726 31.4752 74.8868 32.362 73.9503 32.3154C72.8853 32.2626 72.0218 30.8909 70.9486 27.0142C70.6024 25.7643 70.282 24.3939 69.985 23.0482C69.2483 19.7105 68.3441 16.3541 66.7979 13.388C65.8607 11.464 64.3994 9.84378 62.582 8.7137C60.7647 7.58363 58.6652 6.98965 56.5251 7.00014C53.3356 7.00014 50.9527 8.50906 49.0806 10.4101C48.4719 11.0494 47.9199 11.7404 47.4307 12.4751C48.3522 12.6732 49.1843 13.1654 49.8017 13.8775C50.4192 14.5897 50.7884 15.4832 50.8538 16.4235C51.1437 19.1451 51.6568 21.8383 52.3879 24.4758C52.919 22.7729 53.5603 21.1063 54.3079 19.4867C54.6789 18.6439 55.1787 17.864 55.7893 17.1748C55.9249 17.0085 56.0925 16.8711 56.2821 16.7708C56.4717 16.6705 56.6796 16.6091 56.8933 16.5905C57.2493 16.5905 58.4651 16.9161 59.6487 21.0662C61.1166 26.2123 62.209 34.4023 66.371 38.7509C68.2067 40.669 70.7755 41.91 74.3358 41.91C75.7568 41.904 77.1618 41.6096 78.4657 41.0446C79.7696 40.4796 80.9452 39.6557 81.9213 38.623C84.9745 35.4784 86.6476 30.2794 87.2444 28.3555C88.3324 24.7851 89.0788 21.1195 89.4735 17.408C89.7894 14.4154 87.2664 12.3328 84.7509 12.3328Z" fill="url(#paint25_radial_13250_6177)"/>
<path d="M84.7509 12.3328C84.3974 12.3325 84.0448 12.3665 83.6979 12.4344C85.3482 14.8121 86.1739 17.303 86.1739 18.3793C86.2096 19.2299 86.0143 20.0743 85.6088 20.8229C85.2032 21.5715 84.6026 22.1964 83.8707 22.6312C83.1387 23.066 81.8715 23.2763 81.4669 23.2763C81.0623 23.2763 79.7468 23.0309 79.0169 22.5927V22.693C78.8223 23.4696 78.6687 24.3196 78.4029 25.1467C77.8872 26.8004 77.2396 28.4099 76.4661 29.9597C75.6726 31.4752 74.8868 32.362 73.9503 32.3154C72.8853 32.2626 72.0218 30.8909 70.9486 27.0142C70.6024 25.7643 70.282 24.3939 69.985 23.0482C69.2483 19.7105 68.3441 16.3541 66.7979 13.388C65.8607 11.464 64.3994 9.84378 62.582 8.7137C60.7647 7.58363 58.6652 6.98965 56.5251 7.00014C53.3356 7.00014 50.9527 8.50906 49.0806 10.4101C48.4719 11.0494 47.9199 11.7404 47.4307 12.4751C48.3522 12.6732 49.1843 13.1654 49.8017 13.8775C50.4192 14.5897 50.7884 15.4832 50.8538 16.4235C51.1437 19.1451 51.6568 21.8383 52.3879 24.4758C52.919 22.7729 53.5603 21.1063 54.3079 19.4867C54.6789 18.6439 55.1787 17.864 55.7893 17.1748C55.9249 17.0085 56.0925 16.8711 56.2821 16.7708C56.4717 16.6705 56.6796 16.6091 56.8933 16.5905C57.2493 16.5905 58.4651 16.9161 59.6487 21.0662C61.1166 26.2123 62.209 34.4023 66.371 38.7509C68.2067 40.669 70.7755 41.91 74.3358 41.91C75.7568 41.904 77.1618 41.6096 78.4657 41.0446C79.7696 40.4796 80.9452 39.6557 81.9213 38.623C84.9745 35.4784 86.6476 30.2794 87.2444 28.3555C88.3324 24.7851 89.0788 21.1195 89.4735 17.408C89.7894 14.4154 87.2664 12.3328 84.7509 12.3328Z" fill="url(#paint26_radial_13250_6177)"/>
<path d="M84.7509 12.3328C84.3974 12.3325 84.0448 12.3665 83.6979 12.4344C85.3482 14.8121 86.1739 17.303 86.1739 18.3793C86.2096 19.2299 86.0143 20.0743 85.6088 20.8229C85.2032 21.5715 84.6026 22.1964 83.8707 22.6312C83.1387 23.066 81.8715 23.2763 81.4669 23.2763C81.0623 23.2763 79.7468 23.0309 79.0169 22.5927V22.693C78.8223 23.4696 78.6687 24.3196 78.4029 25.1467C77.8872 26.8004 77.2396 28.4099 76.4661 29.9597C75.6726 31.4752 74.8868 32.362 73.9503 32.3154C72.8853 32.2626 72.0218 30.8909 70.9486 27.0142C70.6024 25.7643 70.282 24.3939 69.985 23.0482C69.2483 19.7105 68.3441 16.3541 66.7979 13.388C65.8607 11.464 64.3994 9.84378 62.582 8.7137C60.7647 7.58363 58.6652 6.98965 56.5251 7.00014C53.3356 7.00014 50.9527 8.50906 49.0806 10.4101C48.4719 11.0494 47.9199 11.7404 47.4307 12.4751C48.3522 12.6732 49.1843 13.1654 49.8017 13.8775C50.4192 14.5897 50.7884 15.4832 50.8538 16.4235C51.1437 19.1451 51.6568 21.8383 52.3879 24.4758C52.919 22.7729 53.5603 21.1063 54.3079 19.4867C54.6789 18.6439 55.1787 17.864 55.7893 17.1748C55.9249 17.0085 56.0925 16.8711 56.2821 16.7708C56.4717 16.6705 56.6796 16.6091 56.8933 16.5905C57.2493 16.5905 58.4651 16.9161 59.6487 21.0662C61.1166 26.2123 62.209 34.4023 66.371 38.7509C68.2067 40.669 70.7755 41.91 74.3358 41.91C75.7568 41.904 77.1618 41.6096 78.4657 41.0446C79.7696 40.4796 80.9452 39.6557 81.9213 38.623C84.9745 35.4784 86.6476 30.2794 87.2444 28.3555C88.3324 24.7851 89.0788 21.1195 89.4735 17.408C89.7894 14.4154 87.2664 12.3328 84.7509 12.3328Z" fill="url(#paint27_radial_13250_6177)"/>
<path d="M56.3936 41.7716C47.5055 41.7716 44.4805 30.5404 43.8026 28.3554C42.7104 24.7836 41.949 21.119 41.5281 17.4078C41.2121 14.4153 43.6143 12.3327 46.251 12.3327C47.4 12.2872 48.5222 12.6874 49.3832 13.4497C50.2441 14.2121 50.7771 15.2776 50.8711 16.4237C51.2051 19.5667 51.8397 22.6704 52.7659 25.6923C54.2642 30.4712 55.8537 32.3088 56.9983 32.3088C58.8468 32.3088 59.9746 27.565 60.9716 23.048C61.7062 19.7201 62.5002 16.3667 64.0679 13.3878C66.7949 8.20586 70.9162 7 74.4765 7C82.2835 7 86.1908 16.0378 86.1908 18.3794C86.2273 19.006 86.1364 19.6335 85.9235 20.2239C85.7106 20.8144 85.3802 21.3555 84.9521 21.8146C84.5242 22.2737 84.0075 22.6412 83.4334 22.8949C82.8593 23.1486 82.2398 23.2833 81.6122 23.2907C78.5841 23.2907 77.5576 21.2634 76.6936 19.4865C75.9165 17.8879 75.1049 16.5587 74.0555 16.5587C73.8717 16.5689 73.6919 16.6162 73.527 16.6978C73.362 16.7794 73.2152 16.8935 73.0954 17.0332C70.4873 19.682 69.6126 33.5391 64.3976 38.8356C61.5066 41.7716 58.3609 41.7716 56.3936 41.7716Z" fill="url(#paint28_linear_13250_6177)"/>
<path d="M56.3936 41.7716C47.5055 41.7716 44.4805 30.5404 43.8026 28.3554C42.7104 24.7836 41.949 21.119 41.5281 17.4078C41.2121 14.4153 43.6143 12.3327 46.251 12.3327C47.4 12.2872 48.5222 12.6874 49.3832 13.4497C50.2441 14.2121 50.7771 15.2776 50.8711 16.4237C51.2051 19.5667 51.8397 22.6704 52.7659 25.6923C54.2642 30.4712 55.8537 32.3088 56.9983 32.3088C58.8468 32.3088 59.9746 27.565 60.9716 23.048C61.7062 19.7201 62.5002 16.3667 64.0679 13.3878C66.7949 8.20586 70.9162 7 74.4765 7C82.2835 7 86.1908 16.0378 86.1908 18.3794C86.2273 19.006 86.1364 19.6335 85.9235 20.2239C85.7106 20.8144 85.3802 21.3555 84.9521 21.8146C84.5242 22.2737 84.0075 22.6412 83.4334 22.8949C82.8593 23.1486 82.2398 23.2833 81.6122 23.2907C78.5841 23.2907 77.5576 21.2634 76.6936 19.4865C75.9165 17.8879 75.1049 16.5587 74.0555 16.5587C73.8717 16.5689 73.6919 16.6162 73.527 16.6978C73.362 16.7794 73.2152 16.8935 73.0954 17.0332C70.4873 19.682 69.6126 33.5391 64.3976 38.8356C61.5066 41.7716 58.3609 41.7716 56.3936 41.7716Z" fill="url(#paint29_linear_13250_6177)"/>
<path d="M56.3936 41.7716C47.5055 41.7716 44.4805 30.5404 43.8026 28.3554C42.7104 24.7836 41.949 21.119 41.5281 17.4078C41.2121 14.4153 43.6143 12.3327 46.251 12.3327C47.4 12.2872 48.5222 12.6874 49.3832 13.4497C50.2441 14.2121 50.7771 15.2776 50.8711 16.4237C51.2051 19.5667 51.8397 22.6704 52.7659 25.6923C54.2642 30.4712 55.8537 32.3088 56.9983 32.3088C58.8468 32.3088 59.9746 27.565 60.9716 23.048C61.7062 19.7201 62.5002 16.3667 64.0679 13.3878C66.7949 8.20586 70.9162 7 74.4765 7C82.2835 7 86.1908 16.0378 86.1908 18.3794C86.2273 19.006 86.1364 19.6335 85.9235 20.2239C85.7106 20.8144 85.3802 21.3555 84.9521 21.8146C84.5242 22.2737 84.0075 22.6412 83.4334 22.8949C82.8593 23.1486 82.2398 23.2833 81.6122 23.2907C78.5841 23.2907 77.5576 21.2634 76.6936 19.4865C75.9165 17.8879 75.1049 16.5587 74.0555 16.5587C73.8717 16.5689 73.6919 16.6162 73.527 16.6978C73.362 16.7794 73.2152 16.8935 73.0954 17.0332C70.4873 19.682 69.6126 33.5391 64.3976 38.8356C61.5066 41.7716 58.3609 41.7716 56.3936 41.7716Z" fill="url(#paint30_linear_13250_6177)"/>
<path d="M56.3936 41.7716C47.5055 41.7716 44.4805 30.5404 43.8026 28.3554C42.7104 24.7836 41.949 21.119 41.5281 17.4078C41.2121 14.4153 43.6143 12.3327 46.251 12.3327C47.4 12.2872 48.5222 12.6874 49.3832 13.4497C50.2441 14.2121 50.7771 15.2776 50.8711 16.4237C51.2051 19.5667 51.8397 22.6704 52.7659 25.6923C54.2642 30.4712 55.8537 32.3088 56.9983 32.3088C58.8468 32.3088 59.9746 27.565 60.9716 23.048C61.7062 19.7201 62.5002 16.3667 64.0679 13.3878C66.7949 8.20586 70.9162 7 74.4765 7C82.2835 7 86.1908 16.0378 86.1908 18.3794C86.2273 19.006 86.1364 19.6335 85.9235 20.2239C85.7106 20.8144 85.3802 21.3555 84.9521 21.8146C84.5242 22.2737 84.0075 22.6412 83.4334 22.8949C82.8593 23.1486 82.2398 23.2833 81.6122 23.2907C78.5841 23.2907 77.5576 21.2634 76.6936 19.4865C75.9165 17.8879 75.1049 16.5587 74.0555 16.5587C73.8717 16.5689 73.6919 16.6162 73.527 16.6978C73.362 16.7794 73.2152 16.8935 73.0954 17.0332C70.4873 19.682 69.6126 33.5391 64.3976 38.8356C61.5066 41.7716 58.3609 41.7716 56.3936 41.7716Z" fill="url(#paint31_radial_13250_6177)"/>
<path d="M38.2013 101.219H37.2217V92.2388H38.4107V95.6306C38.6482 95.2798 38.9707 94.9961 39.3476 94.8063C39.7245 94.6165 40.1433 94.5269 40.5643 94.546C40.9773 94.5264 41.3891 94.6075 41.7642 94.7825C42.1396 94.9572 42.4676 95.2206 42.7204 95.5502C43.174 96.1495 43.4008 96.9436 43.4008 97.9327C43.4008 99.1044 43.0918 100.002 42.4736 100.627C42.2119 100.887 41.9 101.092 41.5571 101.227C41.2143 101.362 40.8474 101.425 40.4795 101.412C40.0707 101.433 39.6632 101.348 39.2965 101.165C38.9299 100.982 38.6163 100.706 38.3857 100.365L38.2013 101.219ZM42.162 97.9001C42.162 97.0867 41.9601 96.4741 41.5563 96.0674C41.3916 95.9002 41.1944 95.7691 40.9768 95.6828C40.7592 95.5964 40.5264 95.5562 40.2926 95.5653C40.0184 95.5542 39.7454 95.6085 39.4959 95.7237C39.2464 95.8389 39.0276 96.0117 38.8568 96.2281C38.5036 96.7096 38.3274 97.2996 38.3583 97.8976C38.3583 98.7344 38.561 99.3706 38.9665 99.8056C39.133 99.9952 39.3391 100.145 39.5702 100.244C39.8013 100.344 40.0515 100.39 40.3025 100.381C40.5765 100.396 40.8497 100.341 41.0967 100.221C41.3439 100.101 41.5568 99.9201 41.7158 99.6952C42.0132 99.2734 42.162 98.6751 42.162 97.9001Z" fill="white"/>
<path d="M49.7667 94.7344L47.5234 101.307C47.2242 102.179 46.9393 102.773 46.6684 103.09C46.5156 103.271 46.3244 103.416 46.1086 103.513C45.8929 103.611 45.6584 103.658 45.4221 103.652C45.1626 103.646 44.9049 103.608 44.6544 103.539V102.565C44.856 102.62 45.0637 102.65 45.2725 102.653C45.3859 102.659 45.4989 102.638 45.6026 102.591C45.7063 102.544 45.7972 102.473 45.8683 102.384C46.0956 102.021 46.2748 101.629 46.4017 101.219H46.0153L43.6523 94.7344H44.9385L46.7606 100.245L48.5802 94.7344H49.7667Z" fill="white"/>
<path d="M66.1164 92.2515H63.873V101.249H66.1164V92.2515Z" fill="white"/>
<path d="M84.2957 94.8299C83.7149 94.51 83.0631 94.3441 82.4013 94.3478C80.9431 94.3478 79.9311 95.3696 79.9311 96.7479C79.9311 98.0861 80.9008 99.1506 82.4013 99.1506C83.0623 99.1543 83.7139 98.9901 84.2957 98.6735V101.089C83.6294 101.297 82.9365 101.405 82.2393 101.41C79.7068 101.41 77.4834 99.6527 77.4834 96.7479C77.4834 94.0616 79.4974 92.0908 82.2393 92.0908C82.9372 92.0916 83.6307 92.2008 84.2957 92.4147V94.8299Z" fill="white"/>
<path d="M60.7523 94.8297C60.1715 94.5101 59.5197 94.3444 58.8579 94.3477C57.3972 94.3477 56.3877 95.3695 56.3877 96.7478C56.3877 98.0859 57.3549 99.1504 58.8579 99.1504C59.5179 99.1574 60.1693 98.9977 60.7523 98.6859V101.101C60.086 101.309 59.3931 101.417 58.6959 101.422C56.1609 101.422 53.9375 99.6651 53.9375 96.7603C53.9375 94.074 55.9515 92.1032 58.6959 92.1032C59.3928 92.0982 60.0865 92.2014 60.7523 92.4095V94.8297Z" fill="white"/>
<path d="M91.3883 94.383C90.9227 94.3795 90.4666 94.5155 90.0775 94.7736C89.6886 95.0317 89.3848 95.4003 89.2043 95.8328C89.0236 96.2652 88.9747 96.7419 89.0637 97.2023C89.1527 97.6628 89.3753 98.0863 89.7036 98.419C90.0318 98.7519 90.4508 98.9788 90.9075 99.0715C91.3641 99.1639 91.8377 99.1177 92.2682 98.9387C92.6987 98.7597 93.0666 98.4559 93.3253 98.0657C93.5841 97.6756 93.7219 97.2169 93.7214 96.7479C93.7269 96.4371 93.6703 96.1283 93.5551 95.8401C93.44 95.5516 93.2685 95.2895 93.0511 95.0691C92.8335 94.8484 92.5743 94.6742 92.2886 94.5565C92.0032 94.4385 91.6969 94.3795 91.3883 94.383ZM96.1093 96.7479C96.1093 99.3238 94.1352 101.41 91.3883 101.41C88.6415 101.41 86.6748 99.3238 86.6748 96.7479C86.6748 94.1721 88.644 92.0908 91.3933 92.0908C94.1426 92.0908 96.1143 94.1796 96.1143 96.7479" fill="white"/>
<path d="M74.6661 94.295C74.091 94.1359 73.4998 94.0442 72.9038 94.0214C72.0015 94.0214 71.508 94.3252 71.508 94.7595C71.508 95.3068 72.171 95.4976 72.5424 95.6156L73.1655 95.8139C74.6287 96.2834 75.2942 97.2927 75.2942 98.3898C75.2942 100.649 73.3201 101.402 71.5952 101.402C70.7784 101.393 69.9643 101.309 69.1624 101.151V99.0802C69.8551 99.2823 70.5705 99.3945 71.2911 99.4141C72.4128 99.4141 72.9287 99.0852 72.9287 98.5756C72.9287 98.1186 72.4826 97.855 71.9317 97.6793C71.7946 97.6316 71.5902 97.5688 71.4506 97.5211C70.2043 97.1219 69.1475 96.3788 69.1475 94.89C69.1475 93.2054 70.3938 92.0757 72.4776 92.0757C73.2181 92.086 73.9549 92.1821 74.6736 92.3619L74.6661 94.295Z" fill="white"/>
<path d="M31.8675 60.4443H36.8799L29.5922 82.6318H23.842L18.3952 65.8888L12.9483 82.6318H7.28774L0 60.4443H5.12968L10.3007 77.3054L15.7269 60.4443H21.1737L26.6895 77.3957L31.8675 60.4443Z" fill="white"/>
<path d="M58.3777 73.3196H42.1199C42.2699 74.4637 42.696 75.5533 43.3609 76.4932C43.95 77.3155 44.7477 77.9632 45.6707 78.3682C46.6107 78.7771 47.6254 78.983 48.6492 78.9724C49.7841 78.968 50.9093 78.7611 51.9725 78.3613C53.0748 77.9553 54.1041 77.3713 55.02 76.6321L57.4124 80.1043C56.1924 81.1758 54.7717 81.9904 53.2342 82.5001C51.6551 82.9994 50.0078 83.2455 48.3527 83.2293C46.3143 83.2698 44.3009 82.7718 42.5129 81.7849C40.8217 80.8303 39.4366 79.4087 38.5208 77.6876C37.5358 75.8012 37.0423 73.6937 37.0867 71.5626C37.0445 69.4517 37.518 67.3626 38.4657 65.4793C39.3463 63.7663 40.6895 62.3388 42.3405 61.3613C44.0728 60.3571 46.0442 59.8481 48.0425 59.889C49.9282 59.8365 51.7889 60.3326 53.4018 61.3179C55.0148 62.3032 56.3115 63.736 57.1366 65.4446C58.0476 67.3341 58.5012 69.414 58.4604 71.514C58.4673 71.9793 58.4397 72.5835 58.3777 73.3196ZM53.5514 69.639C53.4032 68.1184 52.7553 66.6912 51.7105 65.5835C51.2096 65.1107 50.6194 64.7441 49.9751 64.5055C49.3308 64.2669 48.6454 64.1612 47.9597 64.1946C47.238 64.1613 46.5169 64.2745 45.8394 64.5274C45.162 64.7803 44.5418 65.1678 44.016 65.6668C42.9746 66.7582 42.3098 68.1583 42.1199 69.6599L53.5514 69.639Z" fill="white"/>
<path d="M78.9444 61.375C80.6216 62.3742 81.9969 63.8147 82.9227 65.5417C83.9126 67.3824 84.4159 69.4485 84.3843 71.5417C84.416 73.6326 83.9126 75.6965 82.9227 77.5347C81.9966 79.2697 80.6163 80.7158 78.9315 81.7161C77.2468 82.7164 75.3221 83.2325 73.3666 83.2083C71.9942 83.2373 70.6335 82.9499 69.3883 82.3681C68.2471 81.8138 67.2489 81.0009 66.4718 79.9931V82.6319H61.6455V51H66.4718V63.0833C67.2522 62.0823 68.2499 61.2746 69.3883 60.7222C70.6318 60.1347 71.9934 59.8447 73.3666 59.875C75.3272 59.8508 77.2567 60.3697 78.9444 61.375ZM76.3106 77.7014C77.3117 77.0815 78.1175 76.1881 78.6341 75.125C79.1645 74.0047 79.4397 72.7793 79.4397 71.5382C79.4397 70.2971 79.1645 69.0717 78.6341 67.9514C78.1153 66.8898 77.31 65.9969 76.3106 65.375C75.2483 64.7629 74.0457 64.4409 72.8219 64.4409C71.598 64.4409 70.3954 64.7629 69.3331 65.375C68.3311 65.9878 67.5192 66.8706 66.9889 67.9236C66.4154 69.0483 66.1265 70.2983 66.1478 71.5625C66.1259 72.8246 66.4149 74.0724 66.9889 75.1944C67.5192 76.2475 68.3311 77.1302 69.3331 77.7431C70.3954 78.3552 71.598 78.6771 72.8219 78.6771C74.0457 78.6771 75.2483 78.3552 76.3106 77.7431V77.7014Z" fill="white"/>
<path d="M108.199 73.3196H91.9479C92.0979 74.4637 92.524 75.5533 93.1889 76.4932C93.778 77.3155 94.5757 77.9631 95.4987 78.3682C96.4387 78.7771 97.4533 78.9829 98.4772 78.9723C99.612 78.967 100.737 78.7601 101.8 78.3612C102.903 77.9553 103.932 77.3712 104.848 76.6321L107.234 80.1043C106.017 81.1771 104.598 81.9919 103.062 82.5001C101.481 82.999 99.8311 83.245 98.1738 83.2293C96.1356 83.2675 94.1228 82.7696 92.334 81.7848C90.6463 80.828 89.264 79.4068 88.3488 77.6876C87.3616 75.8017 86.8658 73.6942 86.9078 71.5626C86.8659 69.4517 87.3394 67.3627 88.2868 65.4793C89.1674 63.7663 90.5106 62.3388 92.1616 61.3612C93.9039 60.3424 95.8908 59.8259 97.9049 59.8682C99.7901 59.8182 101.65 60.3154 103.262 61.3004C104.875 62.2854 106.172 63.7168 106.999 65.4237C107.91 67.3132 108.364 69.3931 108.323 71.4932C108.295 71.9793 108.247 72.5835 108.199 73.3196ZM103.372 69.639C103.213 68.1282 102.564 66.7124 101.525 65.6112C101.027 65.1358 100.44 64.7655 99.7985 64.5222C99.1567 64.2789 98.473 64.1675 97.7877 64.1946C97.0659 64.1605 96.3446 64.2733 95.667 64.5262C94.9894 64.7792 94.3694 65.1671 93.8439 65.6668C92.8002 66.7565 92.135 68.1574 91.9479 69.6598L103.372 69.639Z" fill="white"/>
<path d="M131.124 82.6318H125.215L119.63 74.9166L114.114 82.6318H108.481L116.755 71.3054L108.612 60.4443H114.528L119.906 67.8541L125.284 60.4443H131L122.822 71.2638L131.124 82.6318Z" fill="white"/>
<defs>
<linearGradient id="paint0_linear_13250_6177" x1="81.415" y1="17.4685" x2="50.0222" y2="27.7723" gradientUnits="userSpaceOnUse">
<stop stop-color="white"/>
<stop offset="1" stop-color="#F5F5F5"/>
</linearGradient>
<radialGradient id="paint1_radial_13250_6177" cx="0" cy="0" r="1" gradientTransform="matrix(-10.5507 -17.6424 14.8162 -8.86079 59.7683 25.5391)" gradientUnits="userSpaceOnUse">
<stop stop-color="#B7B7B7"/>
<stop offset="0.4079" stop-color="#B5B5B5" stop-opacity="0.75"/>
<stop offset="0.8745" stop-color="#B6B6B6" stop-opacity="0"/>
</radialGradient>
<radialGradient id="paint2_radial_13250_6177" cx="0" cy="0" r="1" gradientTransform="matrix(-10.033 -13.4326 8.82788 -6.59386 73.2879 21.7202)" gradientUnits="userSpaceOnUse">
<stop stop-color="#CACACA"/>
<stop offset="0.4595" stop-color="#C7C7C7"/>
<stop offset="1" stop-color="#ACACAC" stop-opacity="0"/>
</radialGradient>
<radialGradient id="paint3_radial_13250_6177" cx="0" cy="0" r="1" gradientTransform="matrix(-4.10107 -13.0214 6.78829 -2.13802 58.5942 26.5087)" gradientUnits="userSpaceOnUse">
<stop stop-color="#CDCDCD"/>
<stop offset="0.4079" stop-color="#C8C8C8" stop-opacity="0.79"/>
<stop offset="0.8745" stop-color="#B6B6B6" stop-opacity="0"/>
</radialGradient>
<radialGradient id="paint4_radial_13250_6177" cx="0" cy="0" r="1" gradientTransform="matrix(-15.0879 -32.9629 10.1718 -4.65598 61.9547 29.6369)" gradientUnits="userSpaceOnUse">
<stop stop-color="#A2A2A2" stop-opacity="0.78"/>
<stop offset="1" stop-color="#A2A2A2" stop-opacity="0"/>
</radialGradient>
<radialGradient id="paint5_radial_13250_6177" cx="0" cy="0" r="1" gradientTransform="matrix(2.9185 16.9186 -9.60374 1.65672 69.0457 18.1821)" gradientUnits="userSpaceOnUse">
<stop stop-color="#AEAEAE"/>
<stop offset="0.2326" stop-color="#AEAEAE" stop-opacity="0.75"/>
<stop offset="0.5989" stop-color="#AEAEAE" stop-opacity="0.3008"/>
<stop offset="0.8745" stop-color="#AEAEAE" stop-opacity="0"/>
</radialGradient>
<radialGradient id="paint6_radial_13250_6177" cx="0" cy="0" r="1" gradientTransform="matrix(8.34853 12.8831 -6.75936 4.38034 71.4225 0.990135)" gradientUnits="userSpaceOnUse">
<stop stop-color="#E1E1E1"/>
<stop offset="0.4079" stop-color="#E7E7E7"/>
<stop offset="1" stop-color="#E7E7E7" stop-opacity="0.07"/>
</radialGradient>
<linearGradient id="paint7_linear_13250_6177" x1="29.6898" y1="24.0916" x2="51.9408" y2="24.2747" gradientUnits="userSpaceOnUse">
<stop stop-color="#FAFAFA"/>
<stop offset="1" stop-color="#F8F8F8" stop-opacity="0"/>
</linearGradient>
<radialGradient id="paint8_radial_13250_6177" cx="0" cy="0" r="1" gradientTransform="matrix(27.22 30.2186 -30.1732 27.1799 50.5432 -6.03081)" gradientUnits="userSpaceOnUse">
<stop stop-color="#F5F5F5"/>
<stop offset="0.7454" stop-color="#F4F4F4" stop-opacity="0"/>
</radialGradient>
<radialGradient id="paint9_radial_13250_6177" cx="0" cy="0" r="1" gradientTransform="matrix(-5.88727 -18.6928 12.9607 -4.08207 52.6859 24.4553)" gradientUnits="userSpaceOnUse">
<stop stop-color="#F5F5F5" stop-opacity="0.76"/>
<stop offset="0.5727" stop-color="#F4F4F4" stop-opacity="0"/>
</radialGradient>
<radialGradient id="paint10_radial_13250_6177" cx="0" cy="0" r="1" gradientTransform="matrix(-8.8311 -10.685 7.48161 -6.1837 82.5085 17.0079)" gradientUnits="userSpaceOnUse">
<stop stop-color="white"/>
<stop offset="1" stop-color="#F4F4F4" stop-opacity="0"/>
</radialGradient>
<radialGradient id="paint11_radial_13250_6177" cx="0" cy="0" r="1" gradientTransform="matrix(0.794351 -4.11953 2.85144 0.549847 80.5266 25.9441)" gradientUnits="userSpaceOnUse">
<stop stop-color="#CDCDCD"/>
<stop offset="1" stop-color="#BCBCBC" stop-opacity="0"/>
</radialGradient>
<radialGradient id="paint12_radial_13250_6177" cx="0" cy="0" r="1" gradientTransform="matrix(59.5565 -277.1 301.472 64.7966 -86619.2 28580.4)" gradientUnits="userSpaceOnUse">
<stop stop-color="#CDCDCD"/>
<stop offset="1" stop-color="#BCBCBC" stop-opacity="0"/>
</radialGradient>
<radialGradient id="paint13_radial_13250_6177" cx="0" cy="0" r="1" gradientTransform="matrix(-7.80007 -8.4193 5.91497 -5.48008 84.4413 19.4112)" gradientUnits="userSpaceOnUse">
<stop stop-color="white"/>
<stop offset="0.8133" stop-color="white" stop-opacity="0"/>
</radialGradient>
<linearGradient id="paint14_linear_13250_6177" x1="60.3183" y1="52.001" x2="54.3181" y2="35.3643" gradientUnits="userSpaceOnUse">
<stop offset="0.2293" stop-color="white"/>
<stop offset="1" stop-color="white" stop-opacity="0"/>
</linearGradient>
<radialGradient id="paint15_radial_13250_6177" cx="0" cy="0" r="1" gradientTransform="matrix(8.10611 6.20505 -8.62292 11.2651 80.8543 22.69)" gradientUnits="userSpaceOnUse">
<stop stop-color="#D2D2D2"/>
<stop offset="0.9661" stop-color="#D2D2D2" stop-opacity="0"/>
</radialGradient>
<radialGradient id="paint16_radial_13250_6177" cx="0" cy="0" r="1" gradientTransform="matrix(11.9168 1.77653 -2.64958 17.7736 78.314 23.8513)" gradientUnits="userSpaceOnUse">
<stop stop-color="#D2D2D2"/>
<stop offset="0.5925" stop-color="#D2D2D2" stop-opacity="0"/>
</radialGradient>
<radialGradient id="paint17_radial_13250_6177" cx="0" cy="0" r="1" gradientTransform="matrix(9.35324 4.29118 -7.64219 16.6577 79.2899 25.3464)" gradientUnits="userSpaceOnUse">
<stop stop-color="#D2D2D2"/>
<stop offset="0.7568" stop-color="#D2D2D2" stop-opacity="0"/>
</radialGradient>
<radialGradient id="paint18_radial_13250_6177" cx="0" cy="0" r="1" gradientTransform="matrix(16.9092 -17.455 14.0279 13.5897 78.8649 21.7276)" gradientUnits="userSpaceOnUse">
<stop offset="0.0648007" stop-color="#4F4F4F"/>
<stop offset="0.519024" stop-color="#D5D5D5" stop-opacity="0"/>
</radialGradient>
<radialGradient id="paint19_radial_13250_6177" cx="0" cy="0" r="1" gradientTransform="matrix(-1.87066 18.392 -10.0871 -1.02599 78.0878 25.9504)" gradientUnits="userSpaceOnUse">
<stop stop-color="#D2D2D2"/>
<stop offset="0.5925" stop-color="#D2D2D2" stop-opacity="0"/>
<stop offset="1" stop-color="#D2D2D2" stop-opacity="0"/>
</radialGradient>
<radialGradient id="paint20_radial_13250_6177" cx="0" cy="0" r="1" gradientTransform="matrix(-1.42412 22.2026 -7.93003 -0.508664 80.8488 17.7996)" gradientUnits="userSpaceOnUse">
<stop stop-color="#D2D2D2"/>
<stop offset="0.8846" stop-color="#D2D2D2" stop-opacity="0"/>
</radialGradient>
<radialGradient id="paint21_radial_13250_6177" cx="0" cy="0" r="1" gradientTransform="matrix(7.36369 -18.2731 7.27703 2.93258 46.6828 26.9096)" gradientUnits="userSpaceOnUse">
<stop stop-color="#B3B3B3"/>
<stop offset="1" stop-color="#B0B0B0" stop-opacity="0"/>
</radialGradient>
<radialGradient id="paint22_radial_13250_6177" cx="0" cy="0" r="1" gradientTransform="matrix(11.8272 -4.82594 9.42746 23.1051 59.2283 33.7279)" gradientUnits="userSpaceOnUse">
<stop stop-color="#F7F7F7"/>
<stop offset="0.709" stop-color="#F9F9F9" stop-opacity="0"/>
</radialGradient>
<radialGradient id="paint23_radial_13250_6177" cx="0" cy="0" r="1" gradientTransform="matrix(11.8272 -4.82594 9.42746 23.1051 59.2283 33.7279)" gradientUnits="userSpaceOnUse">
<stop stop-color="#F7F7F7"/>
<stop offset="0.709" stop-color="#F9F9F9" stop-opacity="0"/>
</radialGradient>
<radialGradient id="paint24_radial_13250_6177" cx="0" cy="0" r="1" gradientTransform="matrix(15.0001 6.81835 -6.8782 15.1322 50.501 18.7275)" gradientUnits="userSpaceOnUse">
<stop stop-color="#ADADAD"/>
<stop offset="0.7614" stop-color="#D2D2D2" stop-opacity="0"/>
</radialGradient>
<radialGradient id="paint25_radial_13250_6177" cx="0" cy="0" r="1" gradientTransform="matrix(6.27277 -0.272733 0.395512 9.09692 55.1374 17.3639)" gradientUnits="userSpaceOnUse">
<stop stop-color="#ADADAD"/>
<stop offset="0.7614" stop-color="#D2D2D2" stop-opacity="0"/>
</radialGradient>
<radialGradient id="paint26_radial_13250_6177" cx="0" cy="0" r="1" gradientTransform="matrix(5.72731 -1.6364 3.43433 12.0203 57.0465 23.364)" gradientUnits="userSpaceOnUse">
<stop stop-color="#B1B1B1"/>
<stop offset="1" stop-color="#D2D2D2" stop-opacity="0"/>
</radialGradient>
<radialGradient id="paint27_radial_13250_6177" cx="0" cy="0" r="1" gradientTransform="matrix(6.27279 -7.90927 7.4326 5.89491 48.8646 19.0003)" gradientUnits="userSpaceOnUse">
<stop stop-color="#807F7F"/>
<stop offset="1" stop-color="#D2D2D2" stop-opacity="0"/>
</radialGradient>
<linearGradient id="paint28_linear_13250_6177" x1="42.3449" y1="9.62898" x2="59.4599" y2="20.5617" gradientUnits="userSpaceOnUse">
<stop offset="0.2293" stop-color="white"/>
<stop offset="1" stop-color="white" stop-opacity="0"/>
</linearGradient>
<linearGradient id="paint29_linear_13250_6177" x1="46.1364" y1="51.4555" x2="54.3185" y2="35.3644" gradientUnits="userSpaceOnUse">
<stop offset="0.2293" stop-color="white"/>
<stop offset="1" stop-color="white" stop-opacity="0"/>
</linearGradient>
<linearGradient id="paint30_linear_13250_6177" x1="46.7684" y1="7.41554" x2="51.5679" y2="11.7701" gradientUnits="userSpaceOnUse">
<stop stop-color="white"/>
<stop offset="0.6373" stop-color="#F8F8F8" stop-opacity="0"/>
</linearGradient>
<radialGradient id="paint31_radial_13250_6177" cx="0" cy="0" r="1" gradientTransform="matrix(-8.18186 0.545454 -1.64911 -24.7375 50.7728 18.7275)" gradientUnits="userSpaceOnUse">
<stop stop-color="#D1D1D1"/>
<stop offset="0.580386" stop-color="#D1D1D1" stop-opacity="0"/>
</radialGradient>
</defs>
</svg>
