<svg width="215" height="28" viewBox="0 0 215 28" fill="none" xmlns="http://www.w3.org/2000/svg">
<path fill-rule="evenodd" clip-rule="evenodd" d="M52.6993 10.2065C52.112 9.11734 51.2395 8.20836 50.1753 7.57681C49.1023 6.94048 47.8751 6.61141 46.6276 6.62559C45.7565 6.60841 44.893 6.79135 44.1036 7.16035C43.3786 7.51098 42.7434 8.02309 42.2469 8.65738V1.03027H39.1929V20.9932H42.2469V19.3274C42.7438 19.9617 43.3788 20.4742 44.1036 20.826C44.8935 21.1937 45.7567 21.3761 46.6276 21.3592C47.87 21.3723 49.0922 21.0458 50.1624 20.4146C51.2324 19.7835 52.1098 18.8718 52.6993 17.7783C53.309 16.6095 53.6273 15.3107 53.6273 13.9924C53.6273 12.6741 53.309 11.3753 52.6993 10.2065ZM49.9782 16.2577C49.6491 16.9263 49.1378 17.4885 48.5032 17.8793C47.8298 18.2696 47.0657 18.4762 46.2872 18.4787C45.5089 18.4813 44.7435 18.2795 44.0673 17.8935C43.431 17.5064 42.9148 16.9498 42.5766 16.2861C42.2261 15.572 42.0438 14.7871 42.0438 13.9916C42.0438 13.1961 42.2261 12.4112 42.5766 11.6972C42.9148 11.0335 43.431 10.4769 44.0673 10.0897C44.7435 9.7038 45.5089 9.50199 46.2872 9.50448C47.0657 9.50696 47.8298 9.71367 48.5032 10.1039C49.1378 10.4954 49.6491 11.058 49.9782 11.7272C50.3157 12.4346 50.4908 13.2086 50.4908 13.9924C50.4908 14.7763 50.3157 15.5502 49.9782 16.2577Z" fill="black"/>
<path fill-rule="evenodd" clip-rule="evenodd" d="M37.1107 15.117H26.7719C26.8675 15.8387 27.1383 16.526 27.5606 17.1189C27.9368 17.6367 28.4437 18.0455 29.0292 18.3036C29.6271 18.5597 30.2718 18.6888 30.9222 18.6821C31.6431 18.679 32.3577 18.5481 33.0329 18.2957C33.7334 18.0403 34.3876 17.6727 34.97 17.2072L36.4891 19.3841C35.7154 20.0607 34.8137 20.5751 33.8374 20.8969C32.8327 21.2126 31.7845 21.368 30.7313 21.3576C29.434 21.3825 28.1528 21.0676 27.0148 20.4442C25.944 19.8402 25.0683 18.9426 24.4908 17.8571C23.8819 16.7424 23.5775 15.4541 23.5775 13.9923C23.5513 12.6602 23.8548 11.3423 24.4609 10.1559C25.0193 9.07339 25.8732 8.17141 26.9233 7.5546C28.0263 6.92209 29.2804 6.60097 30.5515 6.62546C31.7636 6.60341 32.9572 6.92558 33.9936 7.5546C34.9973 8.18385 35.8042 9.08245 36.3219 10.148C36.9005 11.3399 37.1887 12.6519 37.1627 13.9765C37.1627 14.2699 37.1454 14.6501 37.1107 15.117ZM34.0346 12.7934C33.8696 11.7018 33.4773 10.8542 32.8578 10.2505C32.2385 9.64686 31.4497 9.34504 30.4916 9.34504C29.4484 9.34504 28.6128 9.65422 27.9849 10.2726C27.3571 10.891 26.9555 11.7323 26.7798 12.7966L34.0346 12.7934Z" fill="black"/>
<path d="M23.4413 6.99157H20.2548L16.9532 17.6901L13.459 6.99157H9.99648L6.54653 17.6301L3.25907 6.99157H0L4.63305 20.9917H8.22182L11.6844 10.4226L15.1548 20.9917H18.8114L23.4413 6.99157Z" fill="black"/>
<path fill-rule="evenodd" clip-rule="evenodd" d="M68.7717 15.117H58.4392C58.5348 15.8387 58.8055 16.526 59.228 17.1189C59.6048 17.6366 60.1121 18.0453 60.6982 18.3036C61.296 18.5599 61.9407 18.6888 62.5911 18.6821C63.3125 18.6791 64.0276 18.5482 64.7034 18.2957C65.4035 18.0406 66.0573 17.673 66.6389 17.2072L68.1596 19.3841C67.3848 20.0609 66.482 20.5753 65.5047 20.8969C64.5005 21.2126 63.4529 21.368 62.4003 21.3576C61.1045 21.3822 59.8249 21.0673 58.6885 20.4442C57.6131 19.8419 56.7328 18.9442 56.1519 17.8571C55.543 16.7424 55.2385 15.4541 55.2385 13.9923C55.2128 12.6601 55.5168 11.3422 56.1235 10.1559C56.6814 9.07309 57.5353 8.17103 58.5859 7.55462C59.6889 6.92197 60.9428 6.60082 62.2141 6.62548C63.4262 6.60298 64.6199 6.9252 65.6562 7.55462C66.6634 8.1825 67.4736 9.08123 67.994 10.148C68.5726 11.3399 68.8607 12.6519 68.8348 13.9765C68.8316 14.2699 68.8107 14.6501 68.7717 15.117ZM65.7035 12.7934C65.5363 11.7018 65.144 10.8542 64.5267 10.2505C63.9094 9.64687 63.1175 9.34505 62.151 9.34505C61.1088 9.34505 60.2733 9.65424 59.6444 10.2726C59.0155 10.891 58.6138 11.7323 58.4392 12.7966L65.7035 12.7934Z" fill="black"/>
<path d="M83.3429 20.9917H79.587L76.0345 16.1252L72.5278 20.9917H68.9469L74.2235 13.8457L69.0352 6.99157H72.7912L76.2112 11.6688L79.6296 6.99157H83.2404L78.0663 13.8157L83.3429 20.9917Z" fill="black"/>
<path d="M211.807 13.3918L213.659 13.0637C213.45 12.2434 213.019 11.5894 212.367 11.1018C211.715 10.6096 210.822 10.3635 209.688 10.3635C208.899 10.3635 208.2 10.4957 207.589 10.76C206.978 11.0198 206.5 11.3821 206.153 11.8469C205.807 12.3118 205.634 12.8541 205.634 13.4739C205.634 14.2213 205.866 14.8388 206.331 15.3264C206.8 15.814 207.525 16.1695 208.505 16.3928L210.282 16.7825C210.784 16.8964 211.155 17.065 211.396 17.2883C211.643 17.5116 211.766 17.7874 211.766 18.1155C211.766 18.5211 211.565 18.8652 211.164 19.1477C210.763 19.4257 210.228 19.5647 209.558 19.5647C208.942 19.5647 208.443 19.4348 208.061 19.175C207.678 18.9107 207.425 18.5211 207.302 18.0061L205.326 18.3069C205.495 19.2366 205.951 19.9543 206.693 20.4602C207.436 20.9615 208.396 21.2122 209.571 21.2122C210.419 21.2122 211.164 21.0732 211.807 20.7952C212.454 20.5172 212.957 20.1344 213.317 19.6467C213.682 19.1545 213.864 18.594 213.864 17.9651C213.864 17.2222 213.627 16.6184 213.153 16.1536C212.679 15.6887 211.959 15.3446 210.993 15.1213L209.325 14.7385C208.746 14.6018 208.327 14.4264 208.067 14.2122C207.808 13.998 207.678 13.7154 207.678 13.3645C207.678 12.9589 207.871 12.6285 208.259 12.3733C208.646 12.1135 209.129 11.9836 209.708 11.9836C210.132 11.9836 210.485 12.052 210.768 12.1887C211.05 12.3254 211.273 12.5009 211.438 12.7151C211.606 12.9293 211.729 13.1549 211.807 13.3918Z" fill="black"/>
<path d="M199.253 10.5002H201.229V12.1682H201.338C201.53 11.6031 201.867 11.1588 202.35 10.8352C202.837 10.5071 203.389 10.343 204.004 10.343C204.132 10.343 204.282 10.3476 204.455 10.3567C204.633 10.3658 204.772 10.3772 204.872 10.3909V12.3459C204.79 12.3232 204.644 12.2981 204.435 12.2708C204.225 12.2389 204.016 12.2229 203.806 12.2229C203.323 12.2229 202.892 12.3254 202.514 12.5305C202.14 12.731 201.844 13.0113 201.625 13.3713C201.406 13.7268 201.297 14.1324 201.297 14.5881V21.0002H199.253V10.5002Z" fill="black"/>
<path fill-rule="evenodd" clip-rule="evenodd" d="M190.657 20.5491C191.405 20.9911 192.296 21.2122 193.33 21.2122C194.096 21.2122 194.777 21.0959 195.374 20.8635C195.976 20.6265 196.475 20.2961 196.871 19.8723C197.272 19.4439 197.55 18.9449 197.705 18.3752L195.771 18.0266C195.648 18.3547 195.47 18.6305 195.238 18.8538C195.005 19.0771 194.729 19.2457 194.41 19.3596C194.091 19.469 193.738 19.5237 193.351 19.5237C192.754 19.5237 192.232 19.3961 191.785 19.1409C191.339 18.8811 190.99 18.5051 190.74 18.0129C190.51 17.5547 190.388 17.0055 190.372 16.3655H197.835V15.6409C197.835 14.6884 197.708 13.8795 197.452 13.2141C197.197 12.5442 196.849 11.9996 196.406 11.5803C195.964 11.1611 195.465 10.8534 194.909 10.6575C194.353 10.4615 193.779 10.3635 193.187 10.3635C192.212 10.3635 191.359 10.5937 190.63 11.054C189.906 11.5142 189.34 12.1545 188.935 12.9749C188.534 13.7952 188.333 14.7431 188.333 15.8186C188.333 16.9078 188.534 17.858 188.935 18.6692C189.34 19.4758 189.915 20.1025 190.657 20.5491ZM195.832 14.8342H190.376C190.4 14.3829 190.512 13.9613 190.712 13.5696C190.945 13.1184 191.273 12.7538 191.697 12.4758C192.125 12.1933 192.626 12.052 193.2 12.052C193.729 12.052 194.189 12.1728 194.581 12.4143C194.978 12.6558 195.285 12.9862 195.504 13.4055C195.723 13.8202 195.832 14.2965 195.832 14.8342Z" fill="black"/>
<path fill-rule="evenodd" clip-rule="evenodd" d="M177.774 24.9377V10.5002H179.77V12.2024H179.941C180.06 11.9836 180.231 11.7307 180.454 11.4436C180.677 11.1565 180.987 10.9058 181.384 10.6917C181.78 10.4729 182.304 10.3635 182.956 10.3635C183.803 10.3635 184.56 10.5777 185.225 11.0061C185.891 11.4345 186.413 12.052 186.791 12.8586C187.174 13.6653 187.365 14.636 187.365 15.7708C187.365 16.9055 187.176 17.8785 186.798 18.6897C186.419 19.4963 185.9 20.1184 185.239 20.5559C184.578 20.9889 183.824 21.2053 182.976 21.2053C182.338 21.2053 181.816 21.0982 181.411 20.884C181.01 20.6698 180.695 20.4192 180.468 20.1321C180.24 19.845 180.064 19.5898 179.941 19.3665H179.818V24.9377H177.774ZM179.777 15.7502C179.777 16.4885 179.884 17.1357 180.098 17.6917C180.313 18.2476 180.622 18.6829 181.028 18.9973C181.434 19.3072 181.93 19.4622 182.518 19.4622C183.129 19.4622 183.639 19.3004 184.05 18.9768C184.46 18.6487 184.77 18.2043 184.979 17.6438C185.193 17.0833 185.301 16.4521 185.301 15.7502C185.301 15.0575 185.196 14.4355 184.986 13.884C184.781 13.3326 184.471 12.8974 184.056 12.5784C183.646 12.2594 183.134 12.0999 182.518 12.0999C181.926 12.0999 181.425 12.2525 181.014 12.5579C180.609 12.8632 180.301 13.2893 180.092 13.8362C179.882 14.3831 179.777 15.0211 179.777 15.7502Z" fill="black"/>
<path fill-rule="evenodd" clip-rule="evenodd" d="M168.871 20.5354C169.605 20.9866 170.464 21.2122 171.448 21.2122C172.433 21.2122 173.292 20.9866 174.025 20.5354C174.759 20.0842 175.329 19.453 175.734 18.6418C176.14 17.8306 176.343 16.8827 176.343 15.7981C176.343 14.7089 176.14 13.7564 175.734 12.9407C175.329 12.1249 174.759 11.4915 174.025 11.0403C173.292 10.5891 172.433 10.3635 171.448 10.3635C170.464 10.3635 169.605 10.5891 168.871 11.0403C168.137 11.4915 167.568 12.1249 167.162 12.9407C166.757 13.7564 166.554 14.7089 166.554 15.7981C166.554 16.8827 166.757 17.8306 167.162 18.6418C167.568 19.453 168.137 20.0842 168.871 20.5354ZM173.041 18.9905C172.622 19.3277 172.093 19.4963 171.455 19.4963C170.812 19.4963 170.279 19.3277 169.855 18.9905C169.436 18.6532 169.124 18.2043 168.919 17.6438C168.718 17.0833 168.618 16.4657 168.618 15.7913C168.618 15.1213 168.718 14.5061 168.919 13.9456C169.124 13.3805 169.436 12.927 169.855 12.5852C170.279 12.2434 170.812 12.0725 171.455 12.0725C172.093 12.0725 172.622 12.2434 173.041 12.5852C173.46 12.927 173.77 13.3805 173.971 13.9456C174.176 14.5061 174.278 15.1213 174.278 15.7913C174.278 16.4657 174.176 17.0833 173.971 17.6438C173.77 18.2043 173.46 18.6532 173.041 18.9905Z" fill="black"/>
<path d="M165.125 7.00024V21.0002H163.082V7.00024H165.125Z" fill="black"/>
<path fill-rule="evenodd" clip-rule="evenodd" d="M154.486 20.5491C155.233 20.9911 156.124 21.2122 157.159 21.2122C157.925 21.2122 158.606 21.0959 159.203 20.8635C159.804 20.6265 160.303 20.2961 160.7 19.8723C161.101 19.4439 161.379 18.9449 161.534 18.3752L159.599 18.0266C159.476 18.3547 159.299 18.6305 159.066 18.8538C158.834 19.0771 158.558 19.2457 158.239 19.3596C157.92 19.469 157.567 19.5237 157.179 19.5237C156.582 19.5237 156.061 19.3961 155.614 19.1409C155.167 18.8811 154.819 18.5051 154.568 18.0129C154.339 17.5547 154.217 17.0055 154.201 16.3655H161.664V15.6409C161.664 14.6884 161.536 13.8795 161.281 13.2141C161.026 12.5442 160.677 11.9996 160.235 11.5803C159.793 11.1611 159.294 10.8534 158.738 10.6575C158.182 10.4615 157.608 10.3635 157.015 10.3635C156.04 10.3635 155.188 10.5937 154.459 11.054C153.734 11.5142 153.169 12.1545 152.763 12.9749C152.362 13.7952 152.162 14.7431 152.162 15.8186C152.162 16.9078 152.362 17.858 152.763 18.6692C153.169 19.4758 153.743 20.1025 154.486 20.5491ZM154.204 14.8342H159.661C159.661 14.2965 159.552 13.8202 159.333 13.4055C159.114 12.9862 158.806 12.6558 158.41 12.4143C158.018 12.1728 157.558 12.052 157.029 12.052C156.455 12.052 155.954 12.1933 155.525 12.4758C155.101 12.7538 154.773 13.1184 154.541 13.5696C154.341 13.9613 154.229 14.3829 154.204 14.8342Z" fill="black"/>
<path d="M151.92 10.5002L148.112 21.0002H145.925L142.11 10.5002H144.304L146.964 18.5803H147.073L149.725 10.5002H151.92Z" fill="black"/>
<path fill-rule="evenodd" clip-rule="evenodd" d="M134.643 20.5491C135.39 20.9911 136.281 21.2122 137.315 21.2122C138.081 21.2122 138.762 21.0959 139.359 20.8635C139.961 20.6265 140.46 20.2961 140.856 19.8723C141.257 19.4439 141.535 18.9449 141.69 18.3752L139.756 18.0266C139.633 18.3547 139.455 18.6305 139.223 18.8538C138.99 19.0771 138.715 19.2457 138.396 19.3596C138.076 19.469 137.723 19.5237 137.336 19.5237C136.739 19.5237 136.217 19.3961 135.771 19.1409C135.324 18.8811 134.975 18.5051 134.725 18.0129C134.495 17.5547 134.373 17.0055 134.357 16.3655H141.82V15.6409C141.82 14.6884 141.693 13.8795 141.438 13.2141C141.182 12.5442 140.834 11.9996 140.392 11.5803C139.95 11.1611 139.451 10.8534 138.895 10.6575C138.339 10.4615 137.764 10.3635 137.172 10.3635C136.197 10.3635 135.344 10.5937 134.615 11.054C133.891 11.5142 133.326 12.1545 132.92 12.9749C132.519 13.7952 132.318 14.7431 132.318 15.8186C132.318 16.9078 132.519 17.858 132.92 18.6692C133.326 19.4758 133.9 20.1025 134.643 20.5491ZM134.361 14.8342H139.817C139.817 14.2965 139.708 13.8202 139.489 13.4055C139.271 12.9862 138.963 12.6558 138.566 12.4143C138.174 12.1728 137.714 12.052 137.186 12.052C136.611 12.052 136.11 12.1933 135.682 12.4758C135.258 12.7538 134.93 13.1184 134.697 13.5696C134.497 13.9613 134.385 14.3829 134.361 14.8342Z" fill="black"/>
<path fill-rule="evenodd" clip-rule="evenodd" d="M124.444 21.0002H119.912V7.00024H124.588C125.959 7.00024 127.137 7.28052 128.122 7.84106C129.106 8.39705 129.86 9.19686 130.385 10.2405C130.913 11.2795 131.177 12.526 131.177 13.9797C131.177 15.4381 130.911 16.6913 130.378 17.7395C129.849 18.7877 129.083 19.5943 128.081 20.1594C127.078 20.72 125.866 21.0002 124.444 21.0002ZM122.024 19.1545H124.328C125.394 19.1545 126.281 18.954 126.987 18.553C127.693 18.1474 128.222 17.5618 128.573 16.7961C128.924 16.026 129.099 15.0872 129.099 13.9797C129.099 12.8814 128.924 11.9495 128.573 11.1838C128.227 10.4182 127.709 9.83716 127.021 9.44067C126.333 9.04419 125.479 8.84595 124.458 8.84595H122.024V19.1545Z" fill="black"/>
<path d="M108.965 10.5002V21.0002H111.009V14.5881C111.009 14.1324 111.119 13.7268 111.337 13.3713C111.556 13.0113 111.852 12.731 112.226 12.5305C112.604 12.3254 113.035 12.2229 113.518 12.2229C113.728 12.2229 113.937 12.2389 114.147 12.2708C114.357 12.2981 114.502 12.3232 114.584 12.3459V10.3909C114.484 10.3772 114.345 10.3658 114.167 10.3567C113.994 10.3476 113.844 10.343 113.716 10.343C113.101 10.343 112.55 10.5071 112.062 10.8352C111.579 11.1588 111.242 11.6031 111.05 12.1682H110.941V10.5002H108.965Z" fill="black"/>
<path fill-rule="evenodd" clip-rule="evenodd" d="M102.639 21.2122C101.655 21.2122 100.796 20.9866 100.062 20.5354C99.3283 20.0842 98.7586 19.453 98.353 18.6418C97.9474 17.8306 97.7446 16.8827 97.7446 15.7981C97.7446 14.7089 97.9474 13.7564 98.353 12.9407C98.7586 12.1249 99.3283 11.4915 100.062 11.0403C100.796 10.5891 101.655 10.3635 102.639 10.3635C103.624 10.3635 104.483 10.5891 105.216 11.0403C105.95 11.4915 106.52 12.1249 106.925 12.9407C107.331 13.7564 107.534 14.7089 107.534 15.7981C107.534 16.8827 107.331 17.8306 106.925 18.6418C106.52 19.453 105.95 20.0842 105.216 20.5354C104.483 20.9866 103.624 21.2122 102.639 21.2122ZM102.646 19.4963C103.284 19.4963 103.813 19.3277 104.232 18.9905C104.651 18.6532 104.961 18.2043 105.162 17.6438C105.367 17.0833 105.469 16.4657 105.469 15.7913C105.469 15.1213 105.367 14.5061 105.162 13.9456C104.961 13.3805 104.651 12.927 104.232 12.5852C103.813 12.2434 103.284 12.0725 102.646 12.0725C102.003 12.0725 101.47 12.2434 101.046 12.5852C100.627 12.927 100.315 13.3805 100.11 13.9456C99.9093 14.5061 99.8091 15.1213 99.8091 15.7913C99.8091 16.4657 99.9093 17.0833 100.11 17.6438C100.315 18.2043 100.627 18.6532 101.046 18.9905C101.47 19.3277 102.003 19.4963 102.646 19.4963Z" fill="black"/>
<path d="M97.3711 12.1409V10.5002H95.1084V9.55688C95.1084 9.09204 95.2132 8.73657 95.4229 8.49048C95.637 8.24438 95.9925 8.12134 96.4893 8.12134C96.7035 8.12134 96.8857 8.14185 97.0361 8.18286C97.1865 8.21932 97.3096 8.25122 97.4053 8.27856L97.8838 6.62427C97.7425 6.56958 97.526 6.51034 97.2344 6.44653C96.9427 6.37817 96.5918 6.34399 96.1816 6.34399C95.6256 6.34399 95.1107 6.45337 94.6367 6.67212C94.1628 6.88631 93.7822 7.21216 93.4951 7.64966C93.208 8.0826 93.0645 8.6272 93.0645 9.28345V10.5002H91.4375V12.1409H93.0645V21.0002H95.1084V12.1409H97.3711Z" fill="black"/>
</svg>
