<svg width="143" height="28" viewBox="0 0 143 28" fill="none" xmlns="http://www.w3.org/2000/svg">
<path fill-rule="evenodd" clip-rule="evenodd" d="M50.1753 7.57632C51.2395 8.20788 52.112 9.11685 52.6993 10.206C53.309 11.3748 53.6273 12.6736 53.6273 13.9919C53.6273 15.3102 53.309 16.609 52.6993 17.7778C52.1098 18.8713 51.2324 19.783 50.1624 20.4141C49.0922 21.0453 47.87 21.3718 46.6276 21.3587C45.7567 21.3756 44.8935 21.1932 44.1036 20.8255C43.3788 20.4737 42.7438 19.9612 42.2469 19.3269V20.9927H39.1929V1.02979H42.2469V8.65689C42.7434 8.0226 43.3786 7.51049 44.1036 7.15986C44.893 6.79086 45.7565 6.60792 46.6276 6.6251C47.8751 6.61092 49.1023 6.93999 50.1753 7.57632ZM48.5032 17.8788C49.1378 17.4881 49.6491 16.9258 49.9782 16.2572C50.3157 15.5497 50.4908 14.7758 50.4908 13.9919C50.4908 13.2081 50.3157 12.4341 49.9782 11.7267C49.6491 11.0575 49.1378 10.4949 48.5032 10.1034C47.8298 9.71319 47.0657 9.50647 46.2872 9.504C45.5089 9.5015 44.7435 9.70331 44.0673 10.0892C43.431 10.4764 42.9148 11.033 42.5766 11.6967C42.2261 12.4108 42.0438 13.1956 42.0438 13.9911C42.0438 14.7866 42.2261 15.5715 42.5766 16.2856C42.9148 16.9493 43.431 17.5059 44.0673 17.893C44.7435 18.279 45.5089 18.4808 46.2872 18.4782C47.0657 18.4757 47.8298 18.2691 48.5032 17.8788Z" fill="white"/>
<path fill-rule="evenodd" clip-rule="evenodd" d="M26.7719 15.1165H37.1107C37.1454 14.6496 37.1627 14.2694 37.1627 13.976C37.1887 12.6514 36.9005 11.3394 36.3219 10.1475C35.8042 9.08196 34.9973 8.18336 33.9936 7.55411C32.9572 6.92509 31.7636 6.60292 30.5515 6.62498C29.2804 6.60048 28.0263 6.9216 26.9233 7.55411C25.8732 8.17092 25.0193 9.07291 24.4609 10.1554C23.8548 11.3418 23.5513 12.6597 23.5775 13.9918C23.5775 15.4536 23.8819 16.7419 24.4908 17.8566C25.0683 18.9421 25.944 19.8397 27.0148 20.4437C28.1528 21.0671 29.434 21.382 30.7313 21.3571C31.7845 21.3675 32.8327 21.2121 33.8374 20.8964C34.8137 20.5746 35.7154 20.0602 36.4891 19.3836L34.97 17.2067C34.3876 17.6722 33.7334 18.0398 33.0329 18.2952C32.3577 18.5476 31.6431 18.6785 30.9222 18.6817C30.2718 18.6883 29.6271 18.5592 29.0292 18.3031C28.4437 18.045 27.9368 17.6363 27.5606 17.1184C27.1383 16.5255 26.8675 15.8382 26.7719 15.1165ZM32.8578 10.25C33.4773 10.8537 33.8696 11.7013 34.0346 12.7929L26.7798 12.7961C26.9555 11.7318 27.3571 10.8905 27.9849 10.2721C28.6128 9.65373 29.4484 9.34455 30.4916 9.34455C31.4497 9.34455 32.2385 9.64637 32.8578 10.25Z" fill="white"/>
<path d="M20.2548 6.99108H23.4413L18.8114 20.9912H15.1548L11.6844 10.4221L8.22182 20.9912H4.63305L0 6.99108H3.25907L6.54653 17.6296L9.99648 6.99108H13.459L16.9532 17.6896L20.2548 6.99108Z" fill="white"/>
<path fill-rule="evenodd" clip-rule="evenodd" d="M58.4392 15.1166H68.7717C68.8107 14.6496 68.8316 14.2695 68.8348 13.976C68.8607 12.6514 68.5726 11.3394 67.994 10.1475C67.4736 9.08075 66.6634 8.18201 65.6562 7.55413C64.6199 6.92471 63.4262 6.6025 62.2141 6.62499C60.9428 6.60034 59.6889 6.92148 58.5859 7.55413C57.5353 8.17054 56.6814 9.07261 56.1235 10.1554C55.5168 11.3417 55.2128 12.6596 55.2385 13.9918C55.2385 15.4536 55.543 16.7419 56.1519 17.8566C56.7328 18.9437 57.6131 19.8414 58.6885 20.4437C59.8249 21.0668 61.1045 21.3817 62.4003 21.3571C63.4529 21.3675 64.5005 21.2121 65.5047 20.8964C66.482 20.5748 67.3848 20.0604 68.1596 19.3836L66.6389 17.2067C66.0573 17.6725 65.4035 18.0401 64.7034 18.2952C64.0276 18.5477 63.3125 18.6787 62.5911 18.6817C61.9407 18.6883 61.296 18.5594 60.6982 18.3031C60.1121 18.0448 59.6048 17.6361 59.228 17.1184C58.8055 16.5255 58.5348 15.8382 58.4392 15.1166ZM64.5267 10.25C65.144 10.8537 65.5363 11.7013 65.7035 12.7929L58.4392 12.7961C58.6138 11.7318 59.0155 10.8905 59.6444 10.2721C60.2733 9.65375 61.1088 9.34456 62.151 9.34456C63.1175 9.34456 63.9094 9.64638 64.5267 10.25Z" fill="white"/>
<path d="M79.587 20.9912H83.3429L78.0663 13.8153L83.2404 6.99108H79.6296L76.2112 11.6683L72.7912 6.99108H69.0352L74.2235 13.8452L68.9469 20.9912H72.5278L76.0345 16.1247L79.587 20.9912Z" fill="white"/>
<path d="M134.458 24.9099C134.153 24.9099 133.875 24.8848 133.624 24.8347C133.373 24.7891 133.187 24.739 133.063 24.6843L133.556 23.0095C134.116 23.1645 134.586 23.1759 134.964 23.0437C135.347 22.9161 135.668 22.5128 135.928 21.8337L136.181 21.1365L132.339 10.4998H134.526L137.186 18.6482H137.295L139.954 10.4998L142.162 10.5203L137.821 22.4011C137.621 22.9434 137.366 23.4014 137.056 23.7751C136.746 24.1488 136.377 24.4314 135.948 24.6228C135.52 24.8142 135.023 24.9099 134.458 24.9099Z" fill="white"/>
<path d="M131.907 12.1404V10.4998H129.645V9.5564C129.645 9.09155 129.749 8.73608 129.959 8.48999C130.173 8.2439 130.529 8.12085 131.025 8.12085C131.24 8.12085 131.422 8.14136 131.572 8.18237C131.723 8.21883 131.846 8.25073 131.941 8.27808L132.42 6.62378C132.279 6.56909 132.062 6.50985 131.771 6.44605C131.479 6.37769 131.128 6.34351 130.718 6.34351C130.162 6.34351 129.647 6.45288 129.173 6.67163C128.699 6.88582 128.318 7.21167 128.031 7.64917C127.744 8.08211 127.601 8.62671 127.601 9.28296V10.4998H125.974V12.1404H127.601V20.9998H129.645V12.1404H131.907Z" fill="white"/>
<path d="M122.966 20.9998V10.4998H125.01V20.9998H122.966Z" fill="white"/>
<path d="M123.999 8.87964C123.643 8.87964 123.338 8.76115 123.083 8.52417C122.832 8.28263 122.707 7.99552 122.707 7.66284C122.707 7.3256 122.832 7.03849 123.083 6.80151C123.338 6.55998 123.643 6.43921 123.999 6.43921C124.354 6.43921 124.657 6.55998 124.908 6.80151C125.163 7.03849 125.291 7.3256 125.291 7.66284C125.291 7.99552 125.163 8.28263 124.908 8.52417C124.657 8.76115 124.354 8.87964 123.999 8.87964Z" fill="white"/>
<path d="M121.555 12.1404V10.4998H119.402V7.98413H117.358V10.4998H115.82V12.1404H117.358V18.3406C117.358 18.974 117.502 19.5004 117.789 19.9197C118.076 20.3389 118.452 20.6488 118.917 20.8494C119.382 21.0499 119.883 21.1456 120.421 21.1365C120.749 21.1319 121.022 21.1046 121.241 21.0544C121.46 21.0089 121.628 20.9633 121.747 20.9177L121.378 19.2292C121.309 19.2429 121.214 19.2611 121.091 19.2839C120.968 19.3067 120.824 19.3181 120.66 19.3181C120.437 19.3181 120.229 19.2839 120.038 19.2156C119.851 19.1427 119.698 19.0082 119.58 18.8123C119.461 18.6117 119.402 18.3132 119.402 17.9167V12.1404H121.555Z" fill="white"/>
<path fill-rule="evenodd" clip-rule="evenodd" d="M110.328 21.2117C109.344 21.2117 108.484 20.9861 107.751 20.5349C107.017 20.0837 106.447 19.4526 106.042 18.6414C105.636 17.8302 105.433 16.8822 105.433 15.7976C105.433 14.7084 105.636 13.7559 106.042 12.9402C106.447 12.1244 107.017 11.491 107.751 11.0398C108.484 10.5886 109.344 10.363 110.328 10.363C111.312 10.363 112.171 10.5886 112.905 11.0398C113.639 11.491 114.208 12.1244 114.614 12.9402C115.02 13.7559 115.222 14.7084 115.222 15.7976C115.222 16.8822 115.02 17.8302 114.614 18.6414C114.208 19.4526 113.639 20.0837 112.905 20.5349C112.171 20.9861 111.312 21.2117 110.328 21.2117ZM110.335 19.4958C110.973 19.4958 111.501 19.3272 111.921 18.99C112.34 18.6528 112.65 18.2039 112.85 17.6433C113.055 17.0828 113.158 16.4653 113.158 15.7908C113.158 15.1208 113.055 14.5056 112.85 13.9451C112.65 13.38 112.34 12.9265 111.921 12.5847C111.501 12.2429 110.973 12.072 110.335 12.072C109.692 12.072 109.159 12.2429 108.735 12.5847C108.316 12.9265 108.004 13.38 107.799 13.9451C107.598 14.5056 107.498 15.1208 107.498 15.7908C107.498 16.4653 107.598 17.0828 107.799 17.6433C108.004 18.2039 108.316 18.6528 108.735 18.99C109.159 19.3272 109.692 19.4958 110.335 19.4958Z" fill="white"/>
<path d="M103.838 20.9998V6.99976H101.746V17.281H101.616L94.4932 6.99976H92.5381V20.9998H94.6504V10.7322H94.7803L101.896 20.9998H103.838Z" fill="white"/>
</svg>
