<svg width="105" height="77" viewBox="0 0 105 77" fill="none" xmlns="http://www.w3.org/2000/svg">
<path d="M8.542 11.6934C3.4972 12.0752 -0.660099 17.4203 0.0872802 22.9085C0.320836 24.9129 0.834659 28.015 1.48862 31.4034C1.76888 32.9305 2.09586 34.5531 2.42284 36.128C3.23826 39.9348 4.25177 43.6944 5.45906 47.3909C6.75547 51.4916 8.33195 55.4943 10.1769 59.3695C17.2303 73.4003 26.7594 76.3592 33.5325 76.3592C36.7134 76.3871 39.8635 75.7203 42.7717 74.4034C45.6799 73.0865 48.2791 71.15 50.3952 68.7234C49.2136 67.1813 48.1664 65.5365 47.2656 63.8078C44.276 58.1764 42.3609 51.686 40.726 44.9092C39.9764 47.6097 38.9753 50.2305 37.7365 52.7359C35.7746 56.4584 34.42 56.4584 33.5325 56.4584C31.6173 56.4584 29.6087 54.3585 27.5534 50.302C26.4944 48.0828 25.5587 45.8043 24.7508 43.4775C24.1902 41.8072 23.6297 40.0891 23.1626 38.4188C22.6955 36.7484 21.8547 33.7896 21.481 31.9283C20.5001 27.3946 19.3323 19.9497 19.2856 19.711C18.8652 17.5635 16.3895 11.0253 8.542 11.6934Z" fill="white"/>
<path d="M90.4271 31.7375C95.4252 29.7808 97.5272 23.5767 95.285 18.5657L95.0982 18.0885C94.1939 16.0486 93.1318 14.0857 91.9218 12.2185C91.344 11.2419 90.6878 10.3161 89.96 9.45047C83.5605 1.43287 76.04 0.00115718 71.4623 0.00115718C68.2819 -0.0236999 65.1328 0.644497 62.225 1.96119C59.3173 3.27789 56.7177 5.21282 54.5996 7.63697C55.7084 9.0743 56.693 10.6072 57.5424 12.2185C60.6721 17.993 62.6339 25.9152 64.2688 32.6442C65.1563 29.5899 66.184 25.6766 67.3518 23.4813C69.2669 19.902 70.5748 19.902 71.4623 19.902C74.1249 19.902 76.2736 23.9108 77.3012 26.2493C77.3012 26.2493 80.9914 35.5077 90.4271 31.7375Z" fill="white"/>
<path d="M96.5452 11.6934L95.6577 11.598H95.4241C96.3982 13.2598 97.2718 14.9811 98.0399 16.7521L98.2735 17.2294C99.6812 20.4394 99.7885 24.088 98.572 27.3786C97.3555 30.6691 94.914 33.3342 91.7806 34.7917C90.0899 35.5643 88.2609 35.9705 86.4088 35.9848C85.1441 35.9615 83.8878 35.769 82.672 35.4121C81.364 40.4231 79.3087 46.5795 77.4403 50.302C75.5719 54.0244 73.3764 56.4584 71.4146 56.4584C70.5738 56.4584 69.2191 56.4584 67.2573 52.7359C66.0184 50.2305 65.0174 47.6096 64.2678 44.9092C63.6605 42.8093 63.1 40.5663 62.5394 38.2279C62.3059 37.3688 62.119 36.5098 61.9322 35.6508C60.1572 28.1104 58.1486 20.1883 54.692 13.841C54.0303 12.6198 53.2972 11.4404 52.4965 10.3094C51.842 9.38168 51.1404 8.48961 50.3945 7.63689C48.2713 5.20667 45.6641 3.26815 42.7478 1.95123C39.8315 0.634314 36.6734 -0.0305871 33.4851 0.00108027C28.9541 0.00108027 21.4336 1.43279 15.0342 9.45039C17.0524 10.3781 18.8061 11.8157 20.13 13.6275C21.454 15.4394 22.3045 17.5658 22.6014 19.8065C22.9284 22.1927 23.7225 26.8219 24.6567 31.2125C24.7501 31.6897 24.8435 32.1669 24.9837 32.6919C25.6843 30.8307 26.385 29.2558 27.1324 27.49L27.6929 26.2492C28.7206 23.9107 30.8693 19.9019 33.4851 19.9019C34.4193 19.9019 35.7272 19.9019 37.6424 23.4812C38.9327 26.0404 39.9657 28.7266 40.7253 31.4988C41.3326 33.6464 41.9398 35.9371 42.4536 38.2279C42.6405 38.896 42.7806 39.5641 42.9207 40.2323C44.7892 48.2021 46.7511 55.8857 50.1143 62.2329C50.8105 63.5818 51.6069 64.8741 52.4965 66.0986C53.1508 67.0112 53.8525 67.8874 54.5985 68.7234C60.1572 74.8797 66.5566 76.3592 71.4146 76.3592C78.1877 76.3592 87.7635 73.4003 94.8169 59.3695C98.4136 52.1632 101.45 41.5208 102.571 36.128C103.692 30.7352 104.533 25.8674 104.906 22.9085C105.084 21.6104 105.008 20.2893 104.683 19.0213C104.358 17.7534 103.79 16.5637 103.013 15.5211C102.236 14.4784 101.264 13.6033 100.154 12.9464C99.0437 12.2894 97.8172 11.8636 96.5452 11.6934Z" fill="white"/>
</svg>
