<svg width="179" height="28" viewBox="0 0 179 28" fill="none" xmlns="http://www.w3.org/2000/svg">
<path fill-rule="evenodd" clip-rule="evenodd" d="M52.6993 10.2055C52.112 9.11636 51.2395 8.20739 50.1753 7.57583C49.1023 6.93951 47.8751 6.61043 46.6276 6.62461C45.7565 6.60743 44.893 6.79037 44.1036 7.15937C43.3786 7.51 42.7434 8.02211 42.2469 8.6564V1.0293H39.1929V20.9923H42.2469V19.3264C42.7438 19.9607 43.3788 20.4733 44.1036 20.825C44.8935 21.1927 45.7567 21.3751 46.6276 21.3582C47.87 21.3713 49.0922 21.0448 50.1624 20.4136C51.2324 19.7825 52.1098 18.8709 52.6993 17.7773C53.309 16.6085 53.6273 15.3097 53.6273 13.9914C53.6273 12.6732 53.309 11.3743 52.6993 10.2055ZM49.9782 16.2567C49.6491 16.9254 49.1378 17.4876 48.5032 17.8783C47.8298 18.2686 47.0657 18.4752 46.2872 18.4778C45.5089 18.4803 44.7435 18.2785 44.0673 17.8925C43.431 17.5054 42.9148 16.9489 42.5766 16.2851C42.2261 15.571 42.0438 14.7861 42.0438 13.9906C42.0438 13.1952 42.2261 12.4103 42.5766 11.6962C42.9148 11.0325 43.431 10.476 44.0673 10.0888C44.7435 9.70282 45.5089 9.50101 46.2872 9.50351C47.0657 9.50598 47.8298 9.7127 48.5032 10.1029C49.1378 10.4944 49.6491 11.0571 49.9782 11.7262C50.3157 12.4336 50.4908 13.2076 50.4908 13.9914C50.4908 14.7753 50.3157 15.5492 49.9782 16.2567Z" fill="black"/>
<path fill-rule="evenodd" clip-rule="evenodd" d="M37.1107 15.1161H26.7719C26.8675 15.8377 27.1383 16.525 27.5606 17.1179C27.9368 17.6358 28.4437 18.0445 29.0292 18.3026C29.6271 18.5588 30.2718 18.6878 30.9222 18.6812C31.6431 18.678 32.3577 18.5471 33.0329 18.2947C33.7334 18.0393 34.3876 17.6717 34.97 17.2062L36.4891 19.3831C35.7154 20.0597 34.8137 20.5741 33.8374 20.8959C32.8327 21.2116 31.7845 21.367 30.7313 21.3566C29.434 21.3815 28.1528 21.0666 27.0148 20.4432C25.944 19.8392 25.0683 18.9416 24.4908 17.8561C23.8819 16.7414 23.5775 15.4531 23.5775 13.9913C23.5513 12.6592 23.8548 11.3413 24.4609 10.1549C25.0193 9.07242 25.8732 8.17043 26.9233 7.55362C28.0263 6.92111 29.2804 6.59999 30.5515 6.62449C31.7636 6.60243 32.9572 6.9246 33.9936 7.55362C34.9973 8.18288 35.8042 9.08147 36.3219 10.147C36.9005 11.3389 37.1887 12.6509 37.1627 13.9755C37.1627 14.2689 37.1454 14.6491 37.1107 15.1161ZM34.0346 12.7924C33.8696 11.7008 33.4773 10.8532 32.8578 10.2495C32.2385 9.64588 31.4497 9.34406 30.4916 9.34406C29.4484 9.34406 28.6128 9.65325 27.9849 10.2716C27.3571 10.89 26.9555 11.7313 26.7798 12.7956L34.0346 12.7924Z" fill="black"/>
<path d="M23.4413 6.99059H20.2548L16.9532 17.6891L13.459 6.99059H9.99648L6.54653 17.6291L3.25907 6.99059H0L4.63305 20.9907H8.22182L11.6844 10.4216L15.1548 20.9907H18.8114L23.4413 6.99059Z" fill="black"/>
<path fill-rule="evenodd" clip-rule="evenodd" d="M68.7717 15.1161H58.4392C58.5348 15.8377 58.8055 16.525 59.228 17.1179C59.6048 17.6356 60.1121 18.0443 60.6982 18.3026C61.296 18.5589 61.9407 18.6878 62.5911 18.6812C63.3125 18.6782 64.0276 18.5472 64.7034 18.2947C65.4035 18.0396 66.0573 17.6721 66.6389 17.2062L68.1596 19.3831C67.3848 20.0599 66.482 20.5743 65.5047 20.8959C64.5005 21.2116 63.4529 21.367 62.4003 21.3566C61.1045 21.3812 59.8249 21.0663 58.6885 20.4432C57.6131 19.8409 56.7328 18.9432 56.1519 17.8561C55.543 16.7414 55.2385 15.4531 55.2385 13.9913C55.2128 12.6591 55.5168 11.3412 56.1235 10.1549C56.6814 9.07212 57.5353 8.17005 58.5859 7.55364C59.6889 6.92099 60.9428 6.59985 62.2141 6.6245C63.4262 6.60201 64.6199 6.92422 65.6562 7.55364C66.6634 8.18152 67.4736 9.08026 67.994 10.147C68.5726 11.3389 68.8607 12.6509 68.8348 13.9756C68.8316 14.269 68.8107 14.6491 68.7717 15.1161ZM65.7035 12.7924C65.5363 11.7008 65.144 10.8532 64.5267 10.2495C63.9094 9.64589 63.1175 9.34408 62.151 9.34408C61.1088 9.34408 60.2733 9.65326 59.6444 10.2716C59.0155 10.89 58.6138 11.7313 58.4392 12.7956L65.7035 12.7924Z" fill="black"/>
<path d="M83.3429 20.9907H79.587L76.0345 16.1242L72.5278 20.9907H68.9469L74.2235 13.8447L69.0352 6.99059H72.7912L76.2112 11.6678L79.6296 6.99059H83.2404L78.0663 13.8148L83.3429 20.9907Z" fill="black"/>
<path fill-rule="evenodd" clip-rule="evenodd" d="M170.645 20.5481C171.392 20.9902 172.283 21.2112 173.318 21.2112C174.083 21.2112 174.765 21.095 175.362 20.8625C175.963 20.6256 176.462 20.2952 176.859 19.8713C177.26 19.443 177.538 18.9439 177.693 18.3743L175.758 18.0256C175.635 18.3538 175.458 18.6295 175.225 18.8528C174.993 19.0761 174.717 19.2447 174.398 19.3586C174.079 19.468 173.726 19.5227 173.338 19.5227C172.741 19.5227 172.22 19.3951 171.773 19.1399C171.326 18.8801 170.978 18.5042 170.727 18.012C170.498 17.5537 170.375 17.0045 170.36 16.3645H177.823V15.6399C177.823 14.6874 177.695 13.8785 177.44 13.2131C177.185 12.5432 176.836 11.9986 176.394 11.5793C175.952 11.1601 175.453 10.8525 174.897 10.6565C174.341 10.4605 173.767 10.3625 173.174 10.3625C172.199 10.3625 171.347 10.5927 170.618 11.053C169.893 11.5133 169.328 12.1536 168.922 12.9739C168.521 13.7942 168.321 14.7421 168.321 15.8176C168.321 16.9068 168.521 17.857 168.922 18.6682C169.328 19.4749 169.902 20.1015 170.645 20.5481ZM170.363 14.8333C170.388 14.3819 170.5 13.9603 170.7 13.5686C170.932 13.1174 171.26 12.7528 171.684 12.4749C172.112 12.1923 172.614 12.051 173.188 12.051C173.717 12.051 174.177 12.1718 174.569 12.4133C174.965 12.6549 175.273 12.9853 175.492 13.4045C175.71 13.8193 175.82 14.2955 175.82 14.8333H170.363Z" fill="black"/>
<path fill-rule="evenodd" clip-rule="evenodd" d="M162.164 25.135C161.33 25.135 160.612 25.0256 160.01 24.8069C159.413 24.5881 158.926 24.2987 158.548 23.9387C158.169 23.5833 157.887 23.1959 157.7 22.7766L159.457 22.052C159.58 22.2434 159.744 22.4508 159.949 22.6741C160.159 22.8974 160.441 23.0888 160.797 23.2483C161.157 23.4078 161.619 23.4875 162.184 23.4875C162.959 23.4875 163.599 23.3007 164.105 22.927C164.611 22.5533 164.864 21.9609 164.864 21.1497V19.0852H164.734C164.611 19.3085 164.433 19.5569 164.201 19.8303C163.973 20.1038 163.659 20.3407 163.258 20.5413C162.857 20.7418 162.335 20.842 161.692 20.842C160.863 20.842 160.115 20.6484 159.45 20.261C158.789 19.8691 158.265 19.2926 157.878 18.5315C157.495 17.7659 157.303 16.8248 157.303 15.7083C157.303 14.5917 157.493 13.6347 157.871 12.8372C158.254 12.0396 158.778 11.429 159.443 11.0051C160.108 10.5767 160.863 10.3625 161.706 10.3625C162.357 10.3625 162.884 10.4719 163.285 10.6907C163.686 10.9049 163.998 11.1555 164.221 11.4426C164.449 11.7297 164.625 11.9827 164.748 12.2014H164.898V10.4993H166.901V21.2317C166.901 22.1249 166.691 22.8586 166.272 23.4329C165.853 24.0116 165.286 24.44 164.57 24.718C163.859 24.996 163.057 25.135 162.164 25.135ZM162.143 19.1467C162.731 19.1467 163.228 19.01 163.634 18.7366C164.044 18.4586 164.354 18.0621 164.563 17.5471C164.777 17.0276 164.885 16.4055 164.885 15.6809C164.885 14.9745 164.78 14.3525 164.57 13.8147C164.36 13.2769 164.053 12.8577 163.647 12.5569C163.242 12.2515 162.74 12.0989 162.143 12.0989C161.528 12.0989 161.015 12.2584 160.605 12.5774C160.195 12.8918 159.885 13.3202 159.676 13.8625C159.47 14.4049 159.368 15.011 159.368 15.6809C159.368 16.3691 159.473 16.9729 159.682 17.4924C159.892 18.012 160.202 18.4176 160.612 18.7092C161.027 19.0009 161.537 19.1467 162.143 19.1467Z" fill="black"/>
<path fill-rule="evenodd" clip-rule="evenodd" d="M148.223 20.5549C148.888 20.9879 149.645 21.2043 150.492 21.2043C151.13 21.2043 151.65 21.0972 152.051 20.8831C152.452 20.6689 152.766 20.4182 152.994 20.1311C153.227 19.844 153.404 19.5888 153.527 19.3655H153.698V20.9993H155.694V6.99927H153.65V12.2014H153.527C153.404 11.9827 153.231 11.7297 153.008 11.4426C152.789 11.1555 152.479 10.9049 152.078 10.6907C151.682 10.4719 151.158 10.3625 150.506 10.3625C149.663 10.3625 148.909 10.5767 148.243 11.0051C147.578 11.4335 147.054 12.051 146.671 12.8577C146.293 13.6643 146.104 14.635 146.104 15.7698C146.104 16.9045 146.29 17.8775 146.664 18.6887C147.042 19.4954 147.562 20.1174 148.223 20.5549ZM152.434 18.9963C152.028 19.3062 151.531 19.4612 150.943 19.4612C150.337 19.4612 149.827 19.2994 149.412 18.9758C149.002 18.6477 148.692 18.2034 148.482 17.6428C148.273 17.0823 148.168 16.4511 148.168 15.7493C148.168 15.0566 148.271 14.4345 148.476 13.8831C148.685 13.3316 148.995 12.8964 149.405 12.5774C149.815 12.2584 150.328 12.0989 150.943 12.0989C151.54 12.0989 152.042 12.2515 152.447 12.5569C152.853 12.8622 153.16 13.2883 153.37 13.8352C153.58 14.3821 153.685 15.0201 153.685 15.7493C153.685 16.4875 153.577 17.1347 153.363 17.6907C153.154 18.2467 152.844 18.6819 152.434 18.9963Z" fill="black"/>
<path d="M142.618 20.9993V10.4993H144.662V20.9993H142.618Z" fill="black"/>
<path d="M143.65 8.87915C143.294 8.87915 142.989 8.76066 142.734 8.52368C142.483 8.28215 142.358 7.99504 142.358 7.66235C142.358 7.32511 142.483 7.038 142.734 6.80102C142.989 6.55949 143.294 6.43872 143.65 6.43872C144.005 6.43872 144.308 6.55949 144.559 6.80102C144.814 7.038 144.942 7.32511 144.942 7.66235C144.942 7.99504 144.814 8.28215 144.559 8.52368C144.308 8.76066 144.005 8.87915 143.65 8.87915Z" fill="black"/>
<path d="M136.08 10.4993V20.9993H138.124V14.5872C138.124 14.1314 138.233 13.7258 138.452 13.3704C138.671 13.0103 138.967 12.7301 139.341 12.5295C139.719 12.3245 140.149 12.2219 140.633 12.2219C140.842 12.2219 141.052 12.2379 141.261 12.2698C141.471 12.2971 141.617 12.3222 141.699 12.345V10.3899C141.599 10.3762 141.46 10.3648 141.282 10.3557C141.109 10.3466 140.958 10.342 140.831 10.342C140.216 10.342 139.664 10.5061 139.177 10.8342C138.693 11.1578 138.356 11.6021 138.165 12.1672H138.055V10.4993H136.08Z" fill="black"/>
<path fill-rule="evenodd" clip-rule="evenodd" d="M124.499 20.9993V6.99927H129.626C130.619 6.99927 131.442 7.16333 132.094 7.49146C132.745 7.81502 133.233 8.2548 133.556 8.81079C133.88 9.36222 134.042 9.98429 134.042 10.677C134.042 11.2603 133.935 11.7525 133.72 12.1536C133.506 12.55 133.219 12.8691 132.859 13.1106C132.504 13.3476 132.112 13.5208 131.683 13.6301V13.7668C132.148 13.7896 132.602 13.94 133.044 14.218C133.49 14.4915 133.859 14.8811 134.151 15.387C134.443 15.8928 134.589 16.5081 134.589 17.2327C134.589 17.9482 134.42 18.5907 134.083 19.1604C133.75 19.7255 133.235 20.1744 132.538 20.5071C131.841 20.8352 130.95 20.9993 129.865 20.9993H124.499ZM126.611 19.1877H129.66C130.672 19.1877 131.396 18.9918 131.834 18.5999C132.271 18.2079 132.49 17.718 132.49 17.1301C132.49 16.6881 132.378 16.2825 132.155 15.9133C131.932 15.5442 131.613 15.2502 131.198 15.0315C130.788 14.8127 130.3 14.7034 129.735 14.7034H126.611V19.1877ZM126.611 13.0559H129.441C129.915 13.0559 130.341 12.9648 130.719 12.7825C131.102 12.6002 131.405 12.345 131.629 12.0168C131.857 11.6842 131.97 11.2922 131.97 10.8411C131.97 10.2623 131.768 9.77694 131.362 9.38501C130.956 8.99308 130.334 8.79712 129.496 8.79712H126.611V13.0559Z" fill="black"/>
<path fill-rule="evenodd" clip-rule="evenodd" d="M111.495 20.5481C112.242 20.9902 113.133 21.2112 114.167 21.2112C114.933 21.2112 115.614 21.095 116.211 20.8625C116.813 20.6256 117.312 20.2952 117.708 19.8713C118.11 19.443 118.388 18.9439 118.542 18.3743L116.608 18.0256C116.485 18.3538 116.307 18.6295 116.075 18.8528C115.842 19.0761 115.567 19.2447 115.248 19.3586C114.929 19.468 114.575 19.5227 114.188 19.5227C113.591 19.5227 113.069 19.3951 112.623 19.1399C112.176 18.8801 111.827 18.5042 111.577 18.012C111.348 17.5537 111.225 17.0045 111.209 16.3645H118.672V15.6399C118.672 14.6874 118.545 13.8785 118.29 13.2131C118.034 12.5432 117.686 11.9986 117.244 11.5793C116.802 11.1601 116.303 10.8525 115.747 10.6565C115.191 10.4605 114.616 10.3625 114.024 10.3625C113.049 10.3625 112.196 10.5927 111.467 11.053C110.743 11.5133 110.178 12.1536 109.772 12.9739C109.371 13.7942 109.17 14.7421 109.17 15.8176C109.17 16.9068 109.371 17.857 109.772 18.6682C110.178 19.4749 110.752 20.1015 111.495 20.5481ZM116.669 14.8333H111.213C111.237 14.3819 111.349 13.9603 111.549 13.5686C111.782 13.1174 112.11 12.7528 112.534 12.4749C112.962 12.1923 113.463 12.051 114.038 12.051C114.566 12.051 115.027 12.1718 115.418 12.4133C115.815 12.6549 116.123 12.9853 116.341 13.4045C116.56 13.8193 116.669 14.2955 116.669 14.8333Z" fill="black"/>
<path d="M100.956 14.7649V20.9993H98.9119V6.99927H100.928V12.2083H101.058C101.304 11.6431 101.68 11.1943 102.186 10.8616C102.692 10.5289 103.353 10.3625 104.169 10.3625C104.889 10.3625 105.518 10.5107 106.055 10.8069C106.598 11.1031 107.017 11.5452 107.313 12.1331C107.614 12.7164 107.764 13.4456 107.764 14.3206V20.9993H105.72V14.5667C105.72 13.7965 105.522 13.1995 105.126 12.7756C104.729 12.3472 104.178 12.1331 103.471 12.1331C102.988 12.1331 102.555 12.2356 102.173 12.4407C101.794 12.6458 101.496 12.9465 101.277 13.343C101.063 13.7349 100.956 14.2089 100.956 14.7649Z" fill="black"/>
<path d="M97.2754 12.1399V10.4993H95.1221V7.98364H93.0781V10.4993H91.54V12.1399H93.0781V18.3401C93.0781 18.9736 93.2217 19.4999 93.5088 19.9192C93.7959 20.3385 94.1719 20.6484 94.6367 20.8489C95.1016 21.0494 95.6029 21.1451 96.1406 21.136C96.4688 21.1314 96.7422 21.1041 96.9609 21.054C97.1797 21.0084 97.3483 20.9628 97.4668 20.9172L97.0977 19.2288C97.0293 19.2424 96.9336 19.2607 96.8105 19.2834C96.6875 19.3062 96.5439 19.3176 96.3799 19.3176C96.1566 19.3176 95.9492 19.2834 95.7578 19.2151C95.571 19.1422 95.4183 19.0077 95.2998 18.8118C95.1813 18.6112 95.1221 18.3127 95.1221 17.9163V12.1399H97.2754Z" fill="black"/>
</svg>
