<svg width="160" height="28" viewBox="0 0 160 28" fill="none" xmlns="http://www.w3.org/2000/svg">
<path fill-rule="evenodd" clip-rule="evenodd" d="M52.6993 10.2055C52.112 9.11636 51.2395 8.20739 50.1753 7.57583C49.1023 6.93951 47.8751 6.61043 46.6276 6.62461C45.7565 6.60743 44.893 6.79037 44.1036 7.15937C43.3786 7.51 42.7434 8.02211 42.2469 8.6564V1.0293H39.1929V20.9923H42.2469V19.3264C42.7438 19.9607 43.3788 20.4733 44.1036 20.825C44.8935 21.1927 45.7567 21.3751 46.6276 21.3582C47.87 21.3713 49.0922 21.0448 50.1624 20.4136C51.2324 19.7825 52.1098 18.8709 52.6993 17.7773C53.309 16.6085 53.6273 15.3097 53.6273 13.9914C53.6273 12.6732 53.309 11.3743 52.6993 10.2055ZM49.9782 16.2567C49.6491 16.9254 49.1378 17.4876 48.5032 17.8783C47.8298 18.2686 47.0657 18.4752 46.2872 18.4778C45.5089 18.4803 44.7435 18.2785 44.0673 17.8925C43.431 17.5054 42.9148 16.9489 42.5766 16.2851C42.2261 15.571 42.0438 14.7861 42.0438 13.9906C42.0438 13.1952 42.2261 12.4103 42.5766 11.6962C42.9148 11.0325 43.431 10.476 44.0673 10.0888C44.7435 9.70282 45.5089 9.50101 46.2872 9.50351C47.0657 9.50598 47.8298 9.7127 48.5032 10.1029C49.1378 10.4944 49.6491 11.0571 49.9782 11.7262C50.3157 12.4336 50.4908 13.2076 50.4908 13.9914C50.4908 14.7753 50.3157 15.5492 49.9782 16.2567Z" fill="black"/>
<path fill-rule="evenodd" clip-rule="evenodd" d="M37.1107 15.1161H26.7719C26.8675 15.8377 27.1383 16.525 27.5606 17.1179C27.9368 17.6358 28.4437 18.0445 29.0292 18.3026C29.6271 18.5588 30.2718 18.6878 30.9222 18.6812C31.6431 18.678 32.3577 18.5471 33.0329 18.2947C33.7334 18.0393 34.3876 17.6717 34.97 17.2062L36.4891 19.3831C35.7154 20.0597 34.8137 20.5741 33.8374 20.8959C32.8327 21.2116 31.7845 21.367 30.7313 21.3566C29.434 21.3815 28.1528 21.0666 27.0148 20.4432C25.944 19.8392 25.0683 18.9416 24.4908 17.8561C23.8819 16.7414 23.5775 15.4531 23.5775 13.9913C23.5513 12.6592 23.8548 11.3413 24.4609 10.1549C25.0193 9.07242 25.8732 8.17043 26.9233 7.55362C28.0263 6.92111 29.2804 6.59999 30.5515 6.62449C31.7636 6.60243 32.9572 6.9246 33.9936 7.55362C34.9973 8.18288 35.8042 9.08147 36.3219 10.147C36.9005 11.3389 37.1887 12.6509 37.1627 13.9755C37.1627 14.2689 37.1454 14.6491 37.1107 15.1161ZM34.0346 12.7924C33.8696 11.7008 33.4773 10.8532 32.8578 10.2495C32.2385 9.64588 31.4497 9.34406 30.4916 9.34406C29.4484 9.34406 28.6128 9.65325 27.9849 10.2716C27.3571 10.89 26.9555 11.7313 26.7798 12.7956L34.0346 12.7924Z" fill="black"/>
<path d="M23.4413 6.99059H20.2548L16.9532 17.6891L13.459 6.99059H9.99648L6.54653 17.6291L3.25907 6.99059H0L4.63305 20.9907H8.22182L11.6844 10.4216L15.1548 20.9907H18.8114L23.4413 6.99059Z" fill="black"/>
<path fill-rule="evenodd" clip-rule="evenodd" d="M68.7717 15.1161H58.4392C58.5348 15.8377 58.8055 16.525 59.228 17.1179C59.6048 17.6356 60.1121 18.0443 60.6982 18.3026C61.296 18.5589 61.9407 18.6878 62.5911 18.6812C63.3125 18.6782 64.0276 18.5472 64.7034 18.2947C65.4035 18.0396 66.0573 17.6721 66.6389 17.2062L68.1596 19.3831C67.3848 20.0599 66.482 20.5743 65.5047 20.8959C64.5005 21.2116 63.4529 21.367 62.4003 21.3566C61.1045 21.3812 59.8249 21.0663 58.6885 20.4432C57.6131 19.8409 56.7328 18.9432 56.1519 17.8561C55.543 16.7414 55.2385 15.4531 55.2385 13.9913C55.2128 12.6591 55.5168 11.3412 56.1235 10.1549C56.6814 9.07212 57.5353 8.17005 58.5859 7.55364C59.6889 6.92099 60.9428 6.59985 62.2141 6.6245C63.4262 6.60201 64.6199 6.92422 65.6562 7.55364C66.6634 8.18152 67.4736 9.08026 67.994 10.147C68.5726 11.3389 68.8607 12.6509 68.8348 13.9756C68.8316 14.269 68.8107 14.6491 68.7717 15.1161ZM65.7035 12.7924C65.5363 11.7008 65.144 10.8532 64.5267 10.2495C63.9094 9.64589 63.1175 9.34408 62.151 9.34408C61.1088 9.34408 60.2733 9.65326 59.6444 10.2716C59.0155 10.89 58.6138 11.7313 58.4392 12.7956L65.7035 12.7924Z" fill="black"/>
<path d="M83.3429 20.9907H79.587L76.0345 16.1242L72.5278 20.9907H68.9469L74.2235 13.8447L69.0352 6.99059H72.7912L76.2112 11.6678L79.6296 6.99059H83.2404L78.0663 13.8148L83.3429 20.9907Z" fill="black"/>
<path d="M159.381 12.1399V10.4993H157.228V7.98364H155.184V10.4993H153.646V12.1399H155.184V18.3401C155.184 18.9736 155.327 19.4999 155.615 19.9192C155.902 20.3385 156.278 20.6484 156.742 20.8489C157.207 21.0494 157.709 21.1451 158.246 21.136C158.574 21.1314 158.848 21.1041 159.067 21.054C159.285 21.0084 159.454 20.9628 159.573 20.9172L159.203 19.2288C159.135 19.2424 159.039 19.2607 158.916 19.2834C158.793 19.3062 158.65 19.3176 158.486 19.3176C158.262 19.3176 158.055 19.2834 157.864 19.2151C157.677 19.1422 157.524 19.0077 157.406 18.8118C157.287 18.6112 157.228 18.3127 157.228 17.9163V12.1399H159.381Z" fill="black"/>
<path d="M147.322 20.9993V10.4993H149.297V12.1672H149.406C149.598 11.6021 149.935 11.1578 150.418 10.8342C150.906 10.5061 151.457 10.342 152.073 10.342C152.2 10.342 152.351 10.3466 152.524 10.3557C152.701 10.3648 152.84 10.3762 152.941 10.3899V12.345C152.859 12.3222 152.713 12.2971 152.503 12.2698C152.294 12.2379 152.084 12.2219 151.874 12.2219C151.391 12.2219 150.961 12.3245 150.582 12.5295C150.209 12.7301 149.912 13.0103 149.694 13.3704C149.475 13.7258 149.365 14.1314 149.365 14.5872V20.9993H147.322Z" fill="black"/>
<path fill-rule="evenodd" clip-rule="evenodd" d="M138.418 20.5344C139.152 20.9856 140.011 21.2112 140.996 21.2112C141.98 21.2112 142.839 20.9856 143.573 20.5344C144.306 20.0833 144.876 19.4521 145.282 18.6409C145.687 17.8297 145.89 16.8818 145.89 15.7971C145.89 14.7079 145.687 13.7555 145.282 12.9397C144.876 12.1239 144.306 11.4905 143.573 11.0393C142.839 10.5881 141.98 10.3625 140.996 10.3625C140.011 10.3625 139.152 10.5881 138.418 11.0393C137.685 11.4905 137.115 12.1239 136.709 12.9397C136.304 13.7555 136.101 14.7079 136.101 15.7971C136.101 16.8818 136.304 17.8297 136.709 18.6409C137.115 19.4521 137.685 20.0833 138.418 20.5344ZM142.588 18.9895C142.169 19.3267 141.64 19.4954 141.002 19.4954C140.36 19.4954 139.827 19.3267 139.403 18.9895C138.984 18.6523 138.671 18.2034 138.466 17.6428C138.266 17.0823 138.166 16.4648 138.166 15.7903C138.166 15.1204 138.266 14.5051 138.466 13.9446C138.671 13.3795 138.984 12.926 139.403 12.5842C139.827 12.2424 140.36 12.0715 141.002 12.0715C141.64 12.0715 142.169 12.2424 142.588 12.5842C143.008 12.926 143.318 13.3795 143.518 13.9446C143.723 14.5051 143.826 15.1204 143.826 15.7903C143.826 16.4648 143.723 17.0823 143.518 17.6428C143.318 18.2034 143.008 18.6523 142.588 18.9895Z" fill="black"/>
<path fill-rule="evenodd" clip-rule="evenodd" d="M125.542 24.9368V10.4993H127.538V12.2014H127.709C127.827 11.9827 127.998 11.7297 128.221 11.4426C128.445 11.1555 128.755 10.9049 129.151 10.6907C129.548 10.4719 130.072 10.3625 130.723 10.3625C131.571 10.3625 132.328 10.5767 132.993 11.0051C133.658 11.4335 134.18 12.051 134.558 12.8577C134.941 13.6643 135.133 14.635 135.133 15.7698C135.133 16.9045 134.943 17.8775 134.565 18.6887C134.187 19.4954 133.667 20.1174 133.007 20.5549C132.346 20.9879 131.592 21.2043 130.744 21.2043C130.106 21.2043 129.584 21.0972 129.178 20.8831C128.777 20.6689 128.463 20.4182 128.235 20.1311C128.007 19.844 127.832 19.5888 127.709 19.3655H127.586V24.9368H125.542ZM127.545 15.7493C127.545 16.4875 127.652 17.1347 127.866 17.6907C128.08 18.2467 128.39 18.6819 128.796 18.9963C129.201 19.3062 129.698 19.4612 130.286 19.4612C130.897 19.4612 131.407 19.2994 131.817 18.9758C132.227 18.6477 132.537 18.2034 132.747 17.6428C132.961 17.0823 133.068 16.4511 133.068 15.7493C133.068 15.0566 132.963 14.4345 132.754 13.8831C132.549 13.3316 132.239 12.8964 131.824 12.5774C131.414 12.2584 130.901 12.0989 130.286 12.0989C129.693 12.0989 129.192 12.2515 128.782 12.5569C128.376 12.8622 128.069 13.2883 127.859 13.8352C127.649 14.3821 127.545 15.0201 127.545 15.7493Z" fill="black"/>
<path fill-rule="evenodd" clip-rule="evenodd" d="M114.511 10.4993V24.9368H116.555V19.3655H116.678C116.801 19.5888 116.976 19.844 117.204 20.1311C117.432 20.4182 117.747 20.6689 118.148 20.8831C118.553 21.0972 119.075 21.2043 119.713 21.2043C120.561 21.2043 121.315 20.9879 121.976 20.5549C122.637 20.1174 123.156 19.4954 123.534 18.6887C123.913 17.8775 124.102 16.9045 124.102 15.7698C124.102 14.635 123.91 13.6643 123.528 12.8577C123.149 12.051 122.628 11.4335 121.962 11.0051C121.297 10.5767 120.54 10.3625 119.693 10.3625C119.041 10.3625 118.517 10.4719 118.12 10.6907C117.724 10.9049 117.414 11.1555 117.191 11.4426C116.967 11.7297 116.796 11.9827 116.678 12.2014H116.507V10.4993H114.511ZM116.835 17.6907C116.621 17.1347 116.514 16.4875 116.514 15.7493C116.514 15.0201 116.619 14.3821 116.828 13.8352C117.038 13.2883 117.346 12.8622 117.751 12.5569C118.161 12.2515 118.663 12.0989 119.255 12.0989C119.87 12.0989 120.383 12.2584 120.793 12.5774C121.208 12.8964 121.518 13.3316 121.723 13.8831C121.933 14.4345 122.037 15.0566 122.037 15.7493C122.037 16.4511 121.93 17.0823 121.716 17.6428C121.506 18.2034 121.197 18.6477 120.786 18.9758C120.376 19.2994 119.866 19.4612 119.255 19.4612C118.667 19.4612 118.17 19.3062 117.765 18.9963C117.359 18.6819 117.049 18.2467 116.835 17.6907Z" fill="black"/>
<path d="M110.564 16.6448V10.4993H112.615V20.9993H110.605V19.1809H110.495C110.254 19.7415 109.866 20.2086 109.333 20.5823C108.805 20.9514 108.146 21.136 107.358 21.136C106.683 21.136 106.086 20.9879 105.567 20.6917C105.052 20.3909 104.646 19.9465 104.35 19.3586C104.058 18.7708 103.912 18.0439 103.912 17.178V10.4993H105.956V16.9319C105.956 17.6474 106.155 18.217 106.551 18.6409C106.948 19.0647 107.462 19.2766 108.096 19.2766C108.479 19.2766 108.859 19.1809 109.238 18.9895C109.62 18.7981 109.937 18.5087 110.188 18.1213C110.443 17.734 110.568 17.2418 110.564 16.6448Z" fill="black"/>
<path d="M99.2715 9.1731C99.8001 9.52856 100.101 10.0299 100.174 10.677H102.211C102.193 9.92505 101.974 9.25968 101.555 8.68091C101.135 8.09758 100.561 7.63957 99.832 7.30689C99.1074 6.9742 98.2712 6.80786 97.3232 6.80786C96.3844 6.80786 95.5413 6.97648 94.7939 7.31372C94.0465 7.6464 93.4541 8.11352 93.0166 8.71509C92.5791 9.31665 92.3604 10.0208 92.3604 10.8274C92.3604 11.8027 92.6862 12.5865 93.3379 13.179C93.9941 13.7714 94.8828 14.2203 96.0039 14.5256L97.6582 14.9768C98.1595 15.109 98.6084 15.2616 99.0049 15.4348C99.4059 15.608 99.7227 15.8267 99.9551 16.0911C100.192 16.3554 100.311 16.6949 100.311 17.1096C100.311 17.5653 100.176 17.9641 99.9072 18.3059C99.6383 18.6431 99.2692 18.9075 98.7998 19.0989C98.335 19.2857 97.804 19.3792 97.207 19.3792C96.6647 19.3792 96.1657 19.2994 95.71 19.1399C95.2588 18.9758 94.8874 18.7275 94.5957 18.3948C94.3086 18.0575 94.1445 17.636 94.1035 17.1301H91.9844C92.0299 17.9732 92.2692 18.7024 92.7021 19.3176C93.1351 19.9283 93.7344 20.4 94.5 20.7327C95.2656 21.0653 96.1725 21.2317 97.2207 21.2317C98.3145 21.2317 99.2464 21.054 100.017 20.6985C100.791 20.343 101.382 19.8577 101.787 19.2424C102.197 18.6272 102.402 17.9231 102.402 17.1301C102.402 16.5012 102.277 15.9612 102.026 15.51C101.78 15.0588 101.457 14.6806 101.056 14.3752C100.655 14.0699 100.219 13.8238 99.75 13.637C99.2806 13.4501 98.8226 13.302 98.376 13.1926L97.0088 12.8372C96.7354 12.7688 96.4505 12.6822 96.1543 12.5774C95.8581 12.468 95.5801 12.3336 95.3203 12.1741C95.0651 12.01 94.8577 11.8072 94.6982 11.5657C94.5433 11.3241 94.4658 11.037 94.4658 10.7043C94.4658 10.3079 94.5798 9.95467 94.8076 9.64478C95.04 9.33032 95.3659 9.08423 95.7852 8.90649C96.2044 8.7242 96.7012 8.63306 97.2754 8.63306C98.0775 8.63306 98.7428 8.81307 99.2715 9.1731Z" fill="black"/>
</svg>
