<svg width="258" height="28" viewBox="0 0 258 28" fill="none" xmlns="http://www.w3.org/2000/svg">
<path fill-rule="evenodd" clip-rule="evenodd" d="M52.6993 10.2065C52.112 9.11734 51.2395 8.20836 50.1753 7.57681C49.1023 6.94048 47.8751 6.61141 46.6276 6.62559C45.7565 6.60841 44.893 6.79135 44.1036 7.16035C43.3786 7.51098 42.7434 8.02309 42.2469 8.65738V1.03027H39.1929V20.9932H42.2469V19.3274C42.7438 19.9617 43.3788 20.4742 44.1036 20.826C44.8935 21.1937 45.7567 21.3761 46.6276 21.3592C47.87 21.3723 49.0922 21.0458 50.1624 20.4146C51.2324 19.7835 52.1098 18.8718 52.6993 17.7783C53.309 16.6095 53.6273 15.3107 53.6273 13.9924C53.6273 12.6741 53.309 11.3753 52.6993 10.2065ZM49.9782 16.2577C49.6491 16.9263 49.1378 17.4885 48.5032 17.8793C47.8298 18.2696 47.0657 18.4762 46.2872 18.4787C45.5089 18.4813 44.7435 18.2795 44.0673 17.8935C43.431 17.5064 42.9148 16.9498 42.5766 16.2861C42.2261 15.572 42.0438 14.7871 42.0438 13.9916C42.0438 13.1961 42.2261 12.4112 42.5766 11.6972C42.9148 11.0335 43.431 10.4769 44.0673 10.0897C44.7435 9.7038 45.5089 9.50199 46.2872 9.50448C47.0657 9.50696 47.8298 9.71367 48.5032 10.1039C49.1378 10.4954 49.6491 11.058 49.9782 11.7272C50.3157 12.4346 50.4908 13.2086 50.4908 13.9924C50.4908 14.7763 50.3157 15.5502 49.9782 16.2577Z" fill="black"/>
<path fill-rule="evenodd" clip-rule="evenodd" d="M37.1107 15.117H26.7719C26.8675 15.8387 27.1383 16.526 27.5606 17.1189C27.9368 17.6367 28.4437 18.0455 29.0292 18.3036C29.6271 18.5597 30.2718 18.6888 30.9222 18.6821C31.6431 18.679 32.3577 18.5481 33.0329 18.2957C33.7334 18.0403 34.3876 17.6727 34.97 17.2072L36.4891 19.3841C35.7154 20.0607 34.8137 20.5751 33.8374 20.8969C32.8327 21.2126 31.7845 21.368 30.7313 21.3576C29.434 21.3825 28.1528 21.0676 27.0148 20.4442C25.944 19.8402 25.0683 18.9426 24.4908 17.8571C23.8819 16.7424 23.5775 15.4541 23.5775 13.9923C23.5513 12.6602 23.8548 11.3423 24.4609 10.1559C25.0193 9.07339 25.8732 8.17141 26.9233 7.5546C28.0263 6.92209 29.2804 6.60097 30.5515 6.62546C31.7636 6.60341 32.9572 6.92558 33.9936 7.5546C34.9973 8.18385 35.8042 9.08245 36.3219 10.148C36.9005 11.3399 37.1887 12.6519 37.1627 13.9765C37.1627 14.2699 37.1454 14.6501 37.1107 15.117ZM34.0346 12.7934C33.8696 11.7018 33.4773 10.8542 32.8578 10.2505C32.2385 9.64686 31.4497 9.34504 30.4916 9.34504C29.4484 9.34504 28.6128 9.65422 27.9849 10.2726C27.3571 10.891 26.9555 11.7323 26.7798 12.7966L34.0346 12.7934Z" fill="black"/>
<path d="M23.4413 6.99157H20.2548L16.9532 17.6901L13.459 6.99157H9.99648L6.54653 17.6301L3.25907 6.99157H0L4.63305 20.9917H8.22182L11.6844 10.4226L15.1548 20.9917H18.8114L23.4413 6.99157Z" fill="black"/>
<path fill-rule="evenodd" clip-rule="evenodd" d="M68.7717 15.117H58.4392C58.5348 15.8387 58.8055 16.526 59.228 17.1189C59.6048 17.6366 60.1121 18.0453 60.6982 18.3036C61.296 18.5599 61.9407 18.6888 62.5911 18.6821C63.3125 18.6791 64.0276 18.5482 64.7034 18.2957C65.4035 18.0406 66.0573 17.673 66.6389 17.2072L68.1596 19.3841C67.3848 20.0609 66.482 20.5753 65.5047 20.8969C64.5005 21.2126 63.4529 21.368 62.4003 21.3576C61.1045 21.3822 59.8249 21.0673 58.6885 20.4442C57.6131 19.8419 56.7328 18.9442 56.1519 17.8571C55.543 16.7424 55.2385 15.4541 55.2385 13.9923C55.2128 12.6601 55.5168 11.3422 56.1235 10.1559C56.6814 9.07309 57.5353 8.17103 58.5859 7.55462C59.6889 6.92197 60.9428 6.60082 62.2141 6.62548C63.4262 6.60298 64.6199 6.9252 65.6562 7.55462C66.6634 8.1825 67.4736 9.08123 67.994 10.148C68.5726 11.3399 68.8607 12.6519 68.8348 13.9765C68.8316 14.2699 68.8107 14.6501 68.7717 15.117ZM65.7035 12.7934C65.5363 11.7018 65.144 10.8542 64.5267 10.2505C63.9094 9.64687 63.1175 9.34505 62.151 9.34505C61.1088 9.34505 60.2733 9.65424 59.6444 10.2726C59.0155 10.891 58.6138 11.7323 58.4392 12.7966L65.7035 12.7934Z" fill="black"/>
<path d="M83.3429 20.9917H79.587L76.0345 16.1252L72.5278 20.9917H68.9469L74.2235 13.8457L69.0352 6.99157H72.7912L76.2112 11.6688L79.6296 6.99157H83.2404L78.0663 13.8157L83.3429 20.9917Z" fill="black"/>
<path d="M251.746 21.0002H253.79V14.5881C253.79 14.1324 253.899 13.7268 254.118 13.3713C254.337 13.0113 254.633 12.731 255.007 12.5305C255.385 12.3254 255.816 12.2229 256.299 12.2229C256.508 12.2229 256.718 12.2389 256.928 12.2708C257.137 12.2981 257.283 12.3232 257.365 12.3459V10.3909C257.265 10.3772 257.126 10.3658 256.948 10.3567C256.775 10.3476 256.625 10.343 256.497 10.343C255.882 10.343 255.33 10.5071 254.843 10.8352C254.36 11.1588 254.022 11.6031 253.831 12.1682H253.722V10.5002H251.746V21.0002Z" fill="black"/>
<path fill-rule="evenodd" clip-rule="evenodd" d="M245.823 21.2122C244.789 21.2122 243.898 20.9911 243.151 20.5491C242.408 20.1025 241.834 19.4758 241.428 18.6692C241.027 17.858 240.826 16.9078 240.826 15.8186C240.826 14.7431 241.027 13.7952 241.428 12.9749C241.834 12.1545 242.399 11.5142 243.123 11.054C243.852 10.5937 244.705 10.3635 245.68 10.3635C246.272 10.3635 246.847 10.4615 247.403 10.6575C247.959 10.8534 248.458 11.1611 248.9 11.5803C249.342 11.9996 249.69 12.5442 249.946 13.2141C250.201 13.8795 250.328 14.6884 250.328 15.6409V16.3655H242.865C242.881 17.0055 243.004 17.5547 243.233 18.0129C243.483 18.5051 243.832 18.8811 244.279 19.1409C244.725 19.3961 245.247 19.5237 245.844 19.5237C246.231 19.5237 246.585 19.469 246.904 19.3596C247.223 19.2457 247.498 19.0771 247.731 18.8538C247.963 18.6305 248.141 18.3547 248.264 18.0266L250.198 18.3752C250.044 18.9449 249.766 19.4439 249.365 19.8723C248.968 20.2961 248.469 20.6265 247.867 20.8635C247.27 21.0959 246.589 21.2122 245.823 21.2122ZM242.869 14.8342H248.325C248.325 14.2965 248.216 13.8202 247.997 13.4055C247.779 12.9862 247.471 12.6558 247.074 12.4143C246.683 12.1728 246.222 12.052 245.694 12.052C245.119 12.052 244.618 12.1933 244.19 12.4758C243.766 12.7538 243.438 13.1184 243.205 13.5696C243.005 13.9613 242.893 14.3829 242.869 14.8342Z" fill="black"/>
<path fill-rule="evenodd" clip-rule="evenodd" d="M232.516 24.8079C233.118 25.0266 233.835 25.136 234.669 25.136C235.563 25.136 236.365 24.997 237.076 24.719C237.791 24.441 238.359 24.0126 238.778 23.4338C239.197 22.8596 239.407 22.1259 239.407 21.2327V10.5002H237.404V12.2024H237.253C237.13 11.9836 236.955 11.7307 236.727 11.4436C236.504 11.1565 236.192 10.9058 235.791 10.6917C235.389 10.4729 234.863 10.3635 234.211 10.3635C233.368 10.3635 232.614 10.5777 231.949 11.0061C231.283 11.4299 230.759 12.0406 230.376 12.8381C229.998 13.6357 229.809 14.5927 229.809 15.7092C229.809 16.8258 230 17.7668 230.383 18.5325C230.771 19.2935 231.295 19.87 231.956 20.262C232.621 20.6493 233.368 20.843 234.198 20.843C234.84 20.843 235.362 20.7428 235.763 20.5422C236.164 20.3417 236.479 20.1047 236.707 19.8313C236.939 19.5579 237.117 19.3095 237.24 19.0862H237.37V21.1506C237.37 21.9618 237.117 22.5543 236.611 22.928C236.105 23.3017 235.465 23.4885 234.69 23.4885C234.125 23.4885 233.662 23.4088 233.302 23.2493C232.947 23.0898 232.664 22.8984 232.455 22.675C232.25 22.4517 232.085 22.2444 231.962 22.053L230.206 22.7776C230.392 23.1969 230.675 23.5842 231.053 23.9397C231.431 24.2997 231.919 24.5891 232.516 24.8079ZM236.139 18.7375C235.734 19.011 235.237 19.1477 234.649 19.1477C234.043 19.1477 233.532 19.0019 233.118 18.7102C232.708 18.4185 232.398 18.0129 232.188 17.4934C231.978 16.9739 231.874 16.37 231.874 15.6819C231.874 15.012 231.976 14.4058 232.181 13.8635C232.391 13.3212 232.701 12.8928 233.111 12.5784C233.521 12.2594 234.034 12.0999 234.649 12.0999C235.246 12.0999 235.747 12.2525 236.153 12.5579C236.558 12.8586 236.866 13.2779 237.076 13.8157C237.285 14.3534 237.39 14.9755 237.39 15.6819C237.39 16.4065 237.283 17.0286 237.069 17.5481C236.859 18.0631 236.549 18.4596 236.139 18.7375Z" fill="black"/>
<path fill-rule="evenodd" clip-rule="evenodd" d="M223.213 21.2327C222.548 21.2327 221.946 21.1096 221.408 20.8635C220.871 20.6129 220.445 20.2506 220.13 19.7766C219.82 19.3027 219.665 18.7216 219.665 18.0334C219.665 17.441 219.779 16.9534 220.007 16.5706C220.235 16.1877 220.543 15.8847 220.93 15.6614C221.317 15.4381 221.75 15.2695 222.229 15.1555C222.707 15.0416 223.195 14.955 223.692 14.8958L225.223 14.718C225.615 14.6679 225.9 14.5881 226.077 14.4788C226.255 14.3694 226.344 14.1917 226.344 13.9456V13.8977C226.344 13.3007 226.175 12.8381 225.838 12.51C225.505 12.1819 225.009 12.0178 224.348 12.0178C223.66 12.0178 223.117 12.1705 222.721 12.4758C222.329 12.7766 222.058 13.1116 221.907 13.4807L219.987 13.0432C220.214 12.4052 220.547 11.8902 220.985 11.4983C221.427 11.1018 221.935 10.8147 222.509 10.637C223.083 10.4547 223.687 10.3635 224.321 10.3635C224.74 10.3635 225.184 10.4137 225.654 10.5139C226.128 10.6096 226.57 10.7874 226.98 11.0471C227.394 11.3069 227.734 11.6783 227.998 12.1614C228.263 12.6399 228.395 13.262 228.395 14.0276V21.0002H226.399V19.5647H226.317C226.184 19.829 225.986 20.0888 225.722 20.344C225.458 20.5992 225.118 20.8111 224.703 20.9797C224.289 21.1484 223.792 21.2327 223.213 21.2327ZM223.657 19.592C224.223 19.592 224.706 19.4804 225.107 19.2571C225.512 19.0338 225.82 18.7421 226.03 18.3821C226.244 18.0175 226.351 17.6278 226.351 17.2131V15.8596C226.278 15.9325 226.137 16.0009 225.927 16.0647C225.722 16.1239 225.487 16.1764 225.223 16.2219C224.959 16.2629 224.701 16.3017 224.45 16.3381C224.2 16.37 223.99 16.3974 223.822 16.4202C223.425 16.4703 223.063 16.5546 222.735 16.6731C222.411 16.7916 222.151 16.9625 221.955 17.1858C221.764 17.4045 221.668 17.6962 221.668 18.0608C221.668 18.5667 221.855 18.9495 222.229 19.2092C222.602 19.4644 223.079 19.592 223.657 19.592Z" fill="black"/>
<path d="M211.546 14.7659C211.546 14.2099 211.651 13.7359 211.861 13.344C212.075 12.9475 212.364 12.6467 212.729 12.4417C213.098 12.2366 213.52 12.134 213.994 12.134C214.686 12.134 215.231 12.3505 215.627 12.7834C216.024 13.2118 216.222 13.8066 216.222 14.5676V21.0002H218.266V14.3215C218.266 13.4556 218.118 12.7288 217.822 12.1409C217.526 11.553 217.109 11.1109 216.571 10.8147C216.033 10.5139 215.406 10.3635 214.691 10.3635C213.903 10.3635 213.249 10.5321 212.729 10.8694C212.214 11.2066 211.836 11.6532 211.594 12.2092H211.464V10.5002H209.502V21.0002H211.546V14.7659Z" fill="black"/>
<path fill-rule="evenodd" clip-rule="evenodd" d="M202.448 21.2327C201.783 21.2327 201.182 21.1096 200.644 20.8635C200.106 20.6129 199.68 20.2506 199.365 19.7766C199.056 19.3027 198.901 18.7216 198.901 18.0334C198.901 17.441 199.015 16.9534 199.242 16.5706C199.47 16.1877 199.778 15.8847 200.165 15.6614C200.553 15.4381 200.986 15.2695 201.464 15.1555C201.943 15.0416 202.43 14.955 202.927 14.8958L204.458 14.718C204.85 14.6679 205.135 14.5881 205.313 14.4788C205.49 14.3694 205.579 14.1917 205.579 13.9456V13.8977C205.579 13.3007 205.411 12.8381 205.073 12.51C204.741 12.1819 204.244 12.0178 203.583 12.0178C202.895 12.0178 202.353 12.1705 201.956 12.4758C201.564 12.7766 201.293 13.1116 201.143 13.4807L199.222 13.0432C199.45 12.4052 199.782 11.8902 200.22 11.4983C200.662 11.1018 201.17 10.8147 201.744 10.637C202.319 10.4547 202.922 10.3635 203.556 10.3635C203.975 10.3635 204.42 10.4137 204.889 10.5139C205.363 10.6096 205.805 10.7874 206.215 11.0471C206.63 11.3069 206.969 11.6783 207.234 12.1614C207.498 12.6399 207.63 13.262 207.63 14.0276V21.0002H205.634V19.5647H205.552C205.42 19.829 205.222 20.0888 204.957 20.344C204.693 20.5992 204.353 20.8111 203.939 20.9797C203.524 21.1484 203.027 21.2327 202.448 21.2327ZM202.893 19.592C203.458 19.592 203.941 19.4804 204.342 19.2571C204.748 19.0338 205.055 18.7421 205.265 18.3821C205.479 18.0175 205.586 17.6278 205.586 17.2131V15.8596C205.513 15.9325 205.372 16.0009 205.162 16.0647C204.957 16.1239 204.723 16.1764 204.458 16.2219C204.194 16.2629 203.936 16.3017 203.686 16.3381C203.435 16.37 203.226 16.3974 203.057 16.4202C202.66 16.4703 202.298 16.5546 201.97 16.6731C201.646 16.7916 201.387 16.9625 201.191 17.1858C200.999 17.4045 200.904 17.6962 200.904 18.0608C200.904 18.5667 201.09 18.9495 201.464 19.2092C201.838 19.4644 202.314 19.592 202.893 19.592Z" fill="black"/>
<path d="M185.694 7.00024H183.131V21.0002H185.141V10.8625H185.271L189.399 20.9797H191.067L195.196 10.8694H195.326V21.0002H197.336V7.00024H194.772L190.315 17.8831H190.151L185.694 7.00024Z" fill="black"/>
<path d="M170.111 14.7659V21.0002H168.067V10.5002H170.029V12.2092H170.159C170.401 11.6532 170.779 11.2066 171.294 10.8694C171.813 10.5321 172.467 10.3635 173.256 10.3635C173.971 10.3635 174.598 10.5139 175.136 10.8147C175.674 11.1109 176.09 11.553 176.387 12.1409C176.683 12.7288 176.831 13.4556 176.831 14.3215V21.0002H174.787V14.5676C174.787 13.8066 174.589 13.2118 174.192 12.7834C173.796 12.3505 173.251 12.134 172.559 12.134C172.085 12.134 171.663 12.2366 171.294 12.4417C170.929 12.6467 170.64 12.9475 170.426 13.344C170.216 13.7359 170.111 14.2099 170.111 14.7659Z" fill="black"/>
<path fill-rule="evenodd" clip-rule="evenodd" d="M159.285 24.8079C159.887 25.0266 160.605 25.136 161.439 25.136C162.332 25.136 163.134 24.997 163.845 24.719C164.56 24.441 165.128 24.0126 165.547 23.4338C165.966 22.8596 166.176 22.1259 166.176 21.2327V10.5002H164.173V12.2024H164.023C163.9 11.9836 163.724 11.7307 163.496 11.4436C163.273 11.1565 162.961 10.9058 162.56 10.6917C162.159 10.4729 161.632 10.3635 160.981 10.3635C160.138 10.3635 159.383 10.5777 158.718 11.0061C158.053 11.4299 157.529 12.0406 157.146 12.8381C156.768 13.6357 156.578 14.5927 156.578 15.7092C156.578 16.8258 156.77 17.7668 157.153 18.5325C157.54 19.2935 158.064 19.87 158.725 20.262C159.39 20.6493 160.138 20.843 160.967 20.843C161.61 20.843 162.131 20.7428 162.532 20.5422C162.934 20.3417 163.248 20.1047 163.476 19.8313C163.708 19.5579 163.886 19.3095 164.009 19.0862H164.139V21.1506C164.139 21.9618 163.886 22.5543 163.38 22.928C162.874 23.3017 162.234 23.4885 161.459 23.4885C160.894 23.4885 160.432 23.4088 160.072 23.2493C159.716 23.0898 159.434 22.8984 159.224 22.675C159.019 22.4517 158.855 22.2444 158.732 22.053L156.975 22.7776C157.162 23.1969 157.444 23.5842 157.823 23.9397C158.201 24.2997 158.688 24.5891 159.285 24.8079ZM162.908 18.7375C162.503 19.011 162.006 19.1477 161.418 19.1477C160.812 19.1477 160.302 19.0019 159.887 18.7102C159.477 18.4185 159.167 18.0129 158.957 17.4934C158.748 16.9739 158.643 16.37 158.643 15.6819C158.643 15.012 158.745 14.4058 158.95 13.8635C159.16 13.3212 159.47 12.8928 159.88 12.5784C160.29 12.2594 160.803 12.0999 161.418 12.0999C162.015 12.0999 162.517 12.2525 162.922 12.5579C163.328 12.8586 163.635 13.2779 163.845 13.8157C164.055 14.3534 164.159 14.9755 164.159 15.6819C164.159 16.4065 164.052 17.0286 163.838 17.5481C163.628 18.0631 163.319 18.4596 162.908 18.7375Z" fill="black"/>
<path d="M153.093 21.0002V10.5002H155.137V21.0002H153.093Z" fill="black"/>
<path d="M154.125 8.88013C153.77 8.88013 153.464 8.76164 153.209 8.52466C152.958 8.28312 152.833 7.99601 152.833 7.66333C152.833 7.32609 152.958 7.03898 153.209 6.802C153.464 6.56047 153.77 6.4397 154.125 6.4397C154.48 6.4397 154.784 6.56047 155.034 6.802C155.289 7.03898 155.417 7.32609 155.417 7.66333C155.417 7.99601 155.289 8.28312 155.034 8.52466C154.784 8.76164 154.48 8.88013 154.125 8.88013Z" fill="black"/>
<path fill-rule="evenodd" clip-rule="evenodd" d="M144.234 20.8635C144.772 21.1096 145.373 21.2327 146.039 21.2327C146.618 21.2327 147.114 21.1484 147.529 20.9797C147.944 20.8111 148.283 20.5992 148.548 20.344C148.812 20.0888 149.01 19.829 149.142 19.5647H149.224V21.0002H151.22V14.0276C151.22 13.262 151.088 12.6399 150.824 12.1614C150.56 11.6783 150.22 11.3069 149.805 11.0471C149.395 10.7874 148.953 10.6096 148.479 10.5139C148.01 10.4137 147.566 10.3635 147.146 10.3635C146.513 10.3635 145.909 10.4547 145.335 10.637C144.76 10.8147 144.252 11.1018 143.81 11.4983C143.373 11.8902 143.04 12.4052 142.812 13.0432L144.733 13.4807C144.884 13.1116 145.155 12.7766 145.547 12.4758C145.943 12.1705 146.485 12.0178 147.174 12.0178C147.834 12.0178 148.331 12.1819 148.664 12.51C149.001 12.8381 149.17 13.3007 149.17 13.8977V13.9456C149.17 14.1917 149.081 14.3694 148.903 14.4788C148.725 14.5881 148.441 14.6679 148.049 14.718L146.517 14.8958C146.021 14.955 145.533 15.0416 145.054 15.1555C144.576 15.2695 144.143 15.4381 143.756 15.6614C143.368 15.8847 143.061 16.1877 142.833 16.5706C142.605 16.9534 142.491 17.441 142.491 18.0334C142.491 18.7216 142.646 19.3027 142.956 19.7766C143.27 20.2506 143.696 20.6129 144.234 20.8635ZM147.932 19.2571C147.531 19.4804 147.048 19.592 146.483 19.592C145.904 19.592 145.428 19.4644 145.054 19.2092C144.681 18.9495 144.494 18.5667 144.494 18.0608C144.494 17.6962 144.59 17.4045 144.781 17.1858C144.977 16.9625 145.237 16.7916 145.56 16.6731C145.888 16.5546 146.251 16.4703 146.647 16.4202C146.816 16.3974 147.025 16.37 147.276 16.3381C147.527 16.3017 147.784 16.2629 148.049 16.2219C148.313 16.1764 148.548 16.1239 148.753 16.0647C148.962 16.0009 149.104 15.9325 149.177 15.8596V17.2131C149.177 17.6278 149.069 18.0175 148.855 18.3821C148.646 18.7421 148.338 19.0338 147.932 19.2571Z" fill="black"/>
<path fill-rule="evenodd" clip-rule="evenodd" d="M131.952 24.9377V10.5002H133.948V12.2024H134.119C134.238 11.9836 134.409 11.7307 134.632 11.4436C134.855 11.1565 135.165 10.9058 135.562 10.6917C135.958 10.4729 136.482 10.3635 137.134 10.3635C137.981 10.3635 138.738 10.5777 139.403 11.0061C140.069 11.4345 140.59 12.052 140.969 12.8586C141.352 13.6653 141.543 14.636 141.543 15.7708C141.543 16.9055 141.354 17.8785 140.976 18.6897C140.597 19.4963 140.078 20.1184 139.417 20.5559C138.756 20.9889 138.002 21.2053 137.154 21.2053C136.516 21.2053 135.994 21.0982 135.589 20.884C135.188 20.6698 134.873 20.4192 134.646 20.1321C134.418 19.845 134.242 19.5898 134.119 19.3665H133.996V24.9377H131.952ZM133.955 15.7502C133.955 16.4885 134.062 17.1357 134.276 17.6917C134.491 18.2476 134.8 18.6829 135.206 18.9973C135.612 19.3072 136.108 19.4622 136.696 19.4622C137.307 19.4622 137.817 19.3004 138.228 18.9768C138.638 18.6487 138.948 18.2043 139.157 17.6438C139.371 17.0833 139.479 16.4521 139.479 15.7502C139.479 15.0575 139.374 14.4355 139.164 13.884C138.959 13.3326 138.649 12.8974 138.234 12.5784C137.824 12.2594 137.312 12.0999 136.696 12.0999C136.104 12.0999 135.603 12.2525 135.192 12.5579C134.787 12.8632 134.479 13.2893 134.27 13.8362C134.06 14.3831 133.955 15.0211 133.955 15.7502Z" fill="black"/>
<path d="M115.789 10.5002V21.0002H117.833V14.5266C117.833 14.0527 117.931 13.6357 118.127 13.2756C118.328 12.9156 118.59 12.6353 118.913 12.4348C119.241 12.2297 119.599 12.1272 119.987 12.1272C120.556 12.1272 121.019 12.3004 121.374 12.6467C121.73 12.9931 121.907 13.4511 121.907 14.0208V21.0002H123.945V14.3079C123.945 13.6698 124.129 13.148 124.498 12.7424C124.867 12.3323 125.385 12.1272 126.05 12.1272C126.588 12.1272 127.05 12.2867 127.438 12.6057C127.825 12.9247 128.019 13.4397 128.019 14.1506V21.0002H130.063V13.9592C130.063 12.7561 129.76 11.856 129.154 11.259C128.552 10.662 127.775 10.3635 126.823 10.3635C126.066 10.3635 125.414 10.5321 124.867 10.8694C124.321 11.2021 123.922 11.6487 123.671 12.2092H123.562C123.334 11.635 122.981 11.1838 122.502 10.8557C122.028 10.5276 121.44 10.3635 120.739 10.3635C120.046 10.3635 119.451 10.5276 118.954 10.8557C118.458 11.1793 118.1 11.6305 117.881 12.2092H117.751V10.5002H115.789Z" fill="black"/>
<path fill-rule="evenodd" clip-rule="evenodd" d="M108.735 21.2327C108.07 21.2327 107.468 21.1096 106.93 20.8635C106.393 20.6129 105.967 20.2506 105.652 19.7766C105.342 19.3027 105.187 18.7216 105.187 18.0334C105.187 17.441 105.301 16.9534 105.529 16.5706C105.757 16.1877 106.065 15.8847 106.452 15.6614C106.839 15.4381 107.272 15.2695 107.751 15.1555C108.229 15.0416 108.717 14.955 109.214 14.8958L110.745 14.718C111.137 14.6679 111.422 14.5881 111.599 14.4788C111.777 14.3694 111.866 14.1917 111.866 13.9456V13.8977C111.866 13.3007 111.697 12.8381 111.36 12.51C111.027 12.1819 110.531 12.0178 109.87 12.0178C109.182 12.0178 108.639 12.1705 108.243 12.4758C107.851 12.7766 107.58 13.1116 107.429 13.4807L105.509 13.0432C105.736 12.4052 106.069 11.8902 106.507 11.4983C106.949 11.1018 107.457 10.8147 108.031 10.637C108.605 10.4547 109.209 10.3635 109.843 10.3635C110.262 10.3635 110.706 10.4137 111.176 10.5139C111.649 10.6096 112.092 10.7874 112.502 11.0471C112.916 11.3069 113.256 11.6783 113.52 12.1614C113.785 12.6399 113.917 13.262 113.917 14.0276V21.0002H111.921V19.5647H111.839C111.706 19.829 111.508 20.0888 111.244 20.344C110.98 20.5992 110.64 20.8111 110.225 20.9797C109.811 21.1484 109.314 21.2327 108.735 21.2327ZM109.179 19.592C109.745 19.592 110.228 19.4804 110.629 19.2571C111.034 19.0338 111.342 18.7421 111.552 18.3821C111.766 18.0175 111.873 17.6278 111.873 17.2131V15.8596C111.8 15.9325 111.659 16.0009 111.449 16.0647C111.244 16.1239 111.009 16.1764 110.745 16.2219C110.481 16.2629 110.223 16.3017 109.972 16.3381C109.722 16.37 109.512 16.3974 109.344 16.4202C108.947 16.4703 108.585 16.5546 108.257 16.6731C107.933 16.7916 107.673 16.9625 107.477 17.1858C107.286 17.4045 107.19 17.6962 107.19 18.0608C107.19 18.5667 107.377 18.9495 107.751 19.2092C108.124 19.4644 108.601 19.592 109.179 19.592Z" fill="black"/>
<path d="M102.033 11.553H104.166C104.048 10.801 103.82 10.1334 103.482 9.55005C103.145 8.96216 102.719 8.46541 102.204 8.05981C101.689 7.64966 101.108 7.33976 100.461 7.13013C99.8184 6.91593 99.1256 6.80884 98.3828 6.80884C97.1751 6.80884 96.0973 7.09823 95.1494 7.677C94.2015 8.25122 93.4541 9.07609 92.9072 10.1516C92.3604 11.2226 92.0869 12.5055 92.0869 14.0002C92.0869 15.4905 92.3581 16.7734 92.9004 17.8489C93.4473 18.9244 94.1947 19.7515 95.1426 20.3303C96.0905 20.9045 97.1706 21.1917 98.3828 21.1917C99.153 21.1917 99.8639 21.0777 100.516 20.8499C101.167 20.622 101.746 20.3007 102.252 19.886C102.762 19.4667 103.179 18.97 103.503 18.3958C103.831 17.817 104.052 17.1835 104.166 16.4954L102.033 16.4885C101.947 16.9351 101.789 17.3316 101.562 17.678C101.338 18.0198 101.065 18.3092 100.741 18.5461C100.418 18.7831 100.055 18.9631 99.6543 19.0862C99.2578 19.2047 98.8385 19.2639 98.3965 19.2639C97.599 19.2639 96.8812 19.0634 96.2432 18.6624C95.6051 18.2613 95.1016 17.6689 94.7324 16.885C94.3678 16.1012 94.1855 15.1396 94.1855 14.0002C94.1855 12.87 94.3678 11.913 94.7324 11.1292C95.1016 10.3453 95.6029 9.75057 96.2363 9.34497C96.8744 8.93937 97.5967 8.73657 98.4033 8.73657C98.8499 8.73657 99.2715 8.7981 99.668 8.92114C100.069 9.04419 100.431 9.22648 100.755 9.46802C101.078 9.70955 101.352 10.0035 101.575 10.3499C101.799 10.6962 101.951 11.0972 102.033 11.553Z" fill="black"/>
</svg>
