<svg width="240" height="240" viewBox="0 0 240 240" fill="none" xmlns="http://www.w3.org/2000/svg">
<path d="M97.1418 170.145C69.0275 158.67 67.5982 157.094 54.6268 146.719C53.8162 142.051 52.6687 136.365 47.7144 116.436C46.1052 109.961 44.9422 105.282 44.2753 101.513C43.9002 99.3888 43.7046 97.3787 43.6709 95.4806C47.1341 99.869 54.1125 110.327 97.5164 154.957C97.9813 158.445 98.0279 164.045 97.1418 170.145Z" fill="url(#paint0_linear_22394_2641)"/>
<path d="M165.177 143.038C159.714 143.818 145.231 142.523 120.564 116.404C116.279 97.894 107.943 76.468 108.188 59.4907C114.557 64.9995 121.995 71.3952 123.723 72.7217C126.888 75.1488 147.576 97.177 148.813 98.4406C151.575 101.369 154.62 103.009 158.666 103.959C160.165 110.042 165.162 127.275 165.177 143.038Z" fill="url(#paint1_linear_22394_2641)"/>
<path d="M175.422 101.037C171.04 104.006 165.597 105.32 159.916 104.226C156.108 103.493 152.32 102.157 148.814 98.4404C116.176 65.1013 136.852 84.4765 108.188 59.4906C108.336 49.2579 111.601 40.6411 120.749 35.2516C136.193 26.1551 151.7 37.7865 165.659 52.1848C169.947 56.6073 180.284 66.9237 182.808 70.6433C183.032 71.0004 193.561 88.7337 175.422 101.037Z" fill="url(#paint2_linear_22394_2641)"/>
<path d="M164.092 154.526C159.016 178.15 139.371 178.712 130.902 176.634C125.045 175.199 114.661 171.719 97.5173 154.957C54.1134 110.327 47.1349 99.869 43.6718 95.4806C43.3225 75.7517 60.418 68.2658 73.1587 72.3244C83.4509 75.6073 91.8699 85.3528 120.023 115.819L120.025 115.819L120.048 115.857C120.221 116.041 120.392 116.223 120.564 116.404C145.232 142.523 159.714 143.818 165.177 143.038C165.181 147.029 164.864 150.927 164.092 154.526Z" fill="url(#paint3_linear_22394_2641)"/>
<path d="M36.131 186.82C19.5471 175.469 5.20688 158.315 19.3437 142.846C27.2384 134.208 39.7901 133.379 48.4205 141.284C48.4507 141.311 50.995 143.634 54.6279 146.719C67.5993 157.094 69.0286 158.67 97.1429 170.146C94.1439 190.788 80.4617 217.165 36.131 186.82Z" fill="url(#paint4_linear_22394_2641)"/>
<path d="M194.19 141.576C205.594 143.772 216.616 136.298 218.81 124.883C221.004 113.468 213.538 102.434 202.134 100.238C190.731 98.0417 179.708 105.515 177.514 116.931C175.32 128.346 182.786 139.38 194.19 141.576Z" fill="url(#paint5_radial_22394_2641)"/>
<path d="M194.19 141.576C205.594 143.772 216.616 136.298 218.81 124.883C221.004 113.468 213.538 102.434 202.134 100.238C190.731 98.0417 179.708 105.515 177.514 116.931C175.32 128.346 182.786 139.38 194.19 141.576Z" fill="url(#paint6_radial_22394_2641)"/>
<path d="M175.34 101.289C193.559 88.932 182.983 71.1208 182.758 70.7622C180.223 67.0263 169.841 56.6647 165.534 52.2228C151.514 37.7614 135.939 26.079 120.427 35.2153C111.239 40.6284 108.181 49.3257 108.033 59.6032C107.787 76.655 116.16 98.1749 120.463 116.766C145.239 142.999 159.785 144.3 165.272 143.517C165.257 127.829 160.329 110.694 158.775 104.439C159.148 104.423 159.483 104.437 159.768 104.492C165.473 105.591 170.941 104.272 175.341 101.289L175.34 101.289Z" fill="url(#paint7_linear_22394_2641)"/>
<path d="M175.34 101.289C193.559 88.932 182.983 71.1208 182.758 70.7622C180.223 67.0263 169.841 56.6647 165.534 52.2228C151.514 37.7614 135.939 26.079 120.427 35.2153C111.239 40.6284 108.181 49.3257 108.033 59.6032C107.787 76.655 116.16 98.1749 120.463 116.766C145.239 142.999 159.785 144.3 165.272 143.517C165.257 127.829 160.329 110.694 158.775 104.439C159.148 104.423 159.483 104.437 159.768 104.492C165.473 105.591 170.941 104.272 175.341 101.289L175.34 101.289Z" fill="url(#paint8_radial_22394_2641)"/>
<path d="M165.177 143.038C159.714 143.818 145.231 142.523 120.564 116.404C116.279 97.894 107.943 76.468 108.188 59.4907C114.557 64.9995 121.995 71.3952 123.723 72.7217C126.888 75.1488 147.576 97.177 148.813 98.4406C151.575 101.369 154.62 103.009 158.666 103.959C160.165 110.042 165.162 127.275 165.177 143.038Z" fill="url(#paint9_radial_22394_2641)"/>
<path d="M165.177 143.038C159.714 143.818 145.231 142.523 120.564 116.404C116.279 97.894 107.943 76.468 108.188 59.4907C114.557 64.9995 121.995 71.3952 123.723 72.7217C126.888 75.1488 147.576 97.177 148.813 98.4406C151.575 101.369 154.62 103.009 158.666 103.959C160.165 110.042 165.162 127.275 165.177 143.038Z" fill="url(#paint10_radial_22394_2641)"/>
<path d="M165.177 143.038C159.714 143.818 145.231 142.523 120.564 116.404C116.279 97.894 107.943 76.468 108.188 59.4907C114.557 64.9995 121.995 71.3952 123.723 72.7217C126.888 75.1488 147.576 97.177 148.813 98.4406C151.575 101.369 154.62 103.009 158.666 103.959C160.165 110.042 165.162 127.275 165.177 143.038Z" fill="url(#paint11_radial_22394_2641)"/>
<path d="M165.177 143.038C159.714 143.818 145.231 142.523 120.564 116.404C116.279 97.894 107.943 76.468 108.188 59.4907C114.557 64.9995 121.995 71.3952 123.723 72.7217C126.888 75.1488 147.576 97.177 148.813 98.4406C151.575 101.369 154.62 103.009 158.666 103.959C160.165 110.042 165.162 127.275 165.177 143.038Z" fill="url(#paint12_radial_22394_2641)"/>
<path d="M165.18 143.021C165.167 129.123 161.281 114.083 159.335 106.55C159.073 105.538 158.847 104.662 158.67 103.943C154.624 102.992 151.579 101.352 148.817 98.4237C148.598 98.2001 147.77 97.3261 146.537 96.0255C140.805 89.9771 126.331 74.7023 123.726 72.7048C121.998 71.3783 114.561 64.9827 108.191 59.4738C108.021 71.2602 111.987 85.1908 115.862 98.8013C117.568 104.796 119.257 110.728 120.567 116.387C120.395 116.206 120.224 116.024 120.051 115.84L120.028 115.802L120.027 115.802C117.97 113.577 116.019 111.461 114.164 109.451C90.633 83.9466 82.7022 75.3506 73.1619 72.3076C60.4211 68.249 43.3256 75.7348 43.6749 95.4638C44.0147 95.8943 44.3883 96.3833 44.8268 96.9572C48.858 102.233 58.375 114.689 97.5204 154.941C114.664 171.702 125.048 175.183 130.906 176.618C139.374 178.695 159.02 178.133 164.095 154.509C164.868 150.91 165.184 147.012 165.18 143.021Z" fill="url(#paint13_radial_22394_2641)"/>
<path d="M164.092 154.526C159.016 178.15 139.371 178.712 130.902 176.634C125.045 175.199 114.661 171.719 97.5173 154.957C54.1134 110.327 47.1349 99.869 43.6718 95.4806C43.3225 75.7517 60.418 68.2658 73.1587 72.3244C83.4509 75.6073 91.8699 85.3528 120.023 115.819L120.025 115.819L120.048 115.857C120.221 116.041 120.392 116.223 120.564 116.404C145.232 142.523 159.714 143.818 165.177 143.038C165.181 147.029 164.864 150.927 164.092 154.526Z" fill="url(#paint14_radial_22394_2641)"/>
<path d="M164.092 154.526C159.016 178.15 139.371 178.712 130.902 176.634C125.045 175.199 114.661 171.719 97.5173 154.957C54.1134 110.327 47.1349 99.869 43.6718 95.4806C43.3225 75.7517 60.418 68.2658 73.1587 72.3244C83.4509 75.6073 91.8699 85.3528 120.023 115.819L120.025 115.819L120.048 115.857C120.221 116.041 120.392 116.223 120.564 116.404C145.232 142.523 159.714 143.818 165.177 143.038C165.181 147.029 164.864 150.927 164.092 154.526Z" fill="url(#paint15_linear_22394_2641)"/>
<path d="M130.901 176.64C139.37 178.718 159.015 178.156 164.091 154.531C164.863 150.933 165.18 147.035 165.176 143.044C159.713 143.823 145.231 142.528 120.563 116.41C120.391 116.229 120.22 116.046 120.047 115.862L120.024 115.825L120.023 115.825C117.966 113.599 116.014 111.484 114.16 109.474C90.6289 83.9692 82.6981 75.3732 73.1577 72.3302C60.417 68.2715 43.3215 75.7574 43.6708 95.4863C43.7045 97.3844 43.9002 99.3946 44.2752 101.519C44.9414 105.284 46.1027 109.957 47.7094 116.422L47.7143 116.442C52.6686 136.371 53.8161 142.057 54.6267 146.724C55.1136 147.114 55.5843 147.491 56.0407 147.857C67.743 157.232 70.0828 159.107 97.1417 170.151C98.0279 164.051 97.9813 158.451 97.5163 154.963C114.66 171.725 125.044 175.205 130.901 176.64Z" fill="url(#paint16_radial_22394_2641)"/>
<path d="M130.901 176.64C139.37 178.718 159.015 178.156 164.091 154.531C164.863 150.933 165.18 147.035 165.176 143.044C159.713 143.823 145.231 142.528 120.563 116.41C120.391 116.229 120.22 116.046 120.047 115.862L120.024 115.825L120.023 115.825C117.966 113.599 116.014 111.484 114.16 109.474C90.6289 83.9692 82.6981 75.3732 73.1577 72.3302C60.417 68.2715 43.3215 75.7574 43.6708 95.4863C43.7045 97.3844 43.9002 99.3946 44.2752 101.519C44.9414 105.284 46.1027 109.957 47.7094 116.422L47.7143 116.442C52.6686 136.371 53.8161 142.057 54.6267 146.724C55.1136 147.114 55.5843 147.491 56.0407 147.857C67.743 157.232 70.0828 159.107 97.1417 170.151C98.0279 164.051 97.9813 158.451 97.5163 154.963C114.66 171.725 125.044 175.205 130.901 176.64Z" fill="url(#paint17_radial_22394_2641)"/>
<path d="M130.901 176.64C139.37 178.718 159.015 178.156 164.091 154.531C164.863 150.933 165.18 147.035 165.176 143.044C159.713 143.823 145.231 142.528 120.563 116.41C120.391 116.229 120.22 116.046 120.047 115.862L120.024 115.825L120.023 115.825C117.966 113.599 116.014 111.484 114.16 109.474C90.6289 83.9692 82.6981 75.3732 73.1577 72.3302C60.417 68.2715 43.3215 75.7574 43.6708 95.4863C43.7045 97.3844 43.9002 99.3946 44.2752 101.519C44.9414 105.284 46.1027 109.957 47.7094 116.422L47.7143 116.442C52.6686 136.371 53.8161 142.057 54.6267 146.724C55.1136 147.114 55.5843 147.491 56.0407 147.857C67.743 157.232 70.0828 159.107 97.1417 170.151C98.0279 164.051 97.9813 158.451 97.5163 154.963C114.66 171.725 125.044 175.205 130.901 176.64Z" fill="url(#paint18_radial_22394_2641)"/>
<path d="M130.901 176.64C139.37 178.718 159.015 178.156 164.091 154.531C164.863 150.933 165.18 147.035 165.176 143.044C159.713 143.823 145.231 142.528 120.563 116.41C120.391 116.229 120.22 116.046 120.047 115.862L120.024 115.825L120.023 115.825C117.966 113.599 116.014 111.484 114.16 109.474C90.6289 83.9692 82.6981 75.3732 73.1577 72.3302C60.417 68.2715 43.3215 75.7574 43.6708 95.4863C43.7045 97.3844 43.9002 99.3946 44.2752 101.519C44.9414 105.284 46.1027 109.957 47.7094 116.422L47.7143 116.442C52.6686 136.371 53.8161 142.057 54.6267 146.724C55.1136 147.114 55.5843 147.491 56.0407 147.857C67.743 157.232 70.0828 159.107 97.1417 170.151C98.0279 164.051 97.9813 158.451 97.5163 154.963C114.66 171.725 125.044 175.205 130.901 176.64Z" fill="url(#paint19_radial_22394_2641)"/>
<path d="M97.1418 170.145C69.0275 158.67 67.5982 157.094 54.6268 146.719C53.8162 142.051 52.6687 136.365 47.7144 116.436C46.1052 109.961 44.9422 105.282 44.2753 101.513C43.9002 99.3888 43.7046 97.3787 43.6709 95.4806C47.1341 99.869 54.1125 110.327 97.5164 154.957C97.9813 158.445 98.0279 164.045 97.1418 170.145Z" fill="url(#paint20_radial_22394_2641)"/>
<path d="M97.1418 170.145C69.0275 158.67 67.5982 157.094 54.6268 146.719C53.8162 142.051 52.6687 136.365 47.7144 116.436C46.1052 109.961 44.9422 105.282 44.2753 101.513C43.9002 99.3888 43.7046 97.3787 43.6709 95.4806C47.1341 99.869 54.1125 110.327 97.5164 154.957C97.9813 158.445 98.0279 164.045 97.1418 170.145Z" fill="url(#paint21_radial_22394_2641)"/>
<path d="M97.1417 170.145C98.0279 164.045 97.9812 158.445 97.5163 154.957C58.3709 114.706 48.8539 102.25 44.8227 96.9741C44.3842 96.4001 44.0106 95.9112 43.6708 95.4806C43.7045 97.3787 43.9002 99.3888 44.2752 101.513C44.9414 105.278 46.1027 109.951 47.7094 116.416L47.7143 116.436C52.6686 136.365 53.8161 142.051 54.6267 146.719C50.9937 143.634 48.4495 141.311 48.4192 141.283C39.7888 133.379 27.2371 134.208 19.3425 142.846C5.20562 158.315 19.5458 175.469 36.1297 186.82C80.4605 217.165 94.1426 190.788 97.1417 170.145Z" fill="url(#paint22_radial_22394_2641)"/>
<path d="M97.1417 170.145C98.0279 164.045 97.9812 158.445 97.5163 154.957C58.3709 114.706 48.8539 102.25 44.8227 96.9741C44.3842 96.4001 44.0106 95.9112 43.6708 95.4806C43.7045 97.3787 43.9002 99.3888 44.2752 101.513C44.9414 105.278 46.1027 109.951 47.7094 116.416L47.7143 116.436C52.6686 136.365 53.8161 142.051 54.6267 146.719C50.9937 143.634 48.4495 141.311 48.4192 141.283C39.7888 133.379 27.2371 134.208 19.3425 142.846C5.20562 158.315 19.5458 175.469 36.1297 186.82C80.4605 217.165 94.1426 190.788 97.1417 170.145Z" fill="url(#paint23_radial_22394_2641)"/>
<path d="M97.1418 170.145C69.0275 158.67 67.5982 157.094 54.6268 146.719C53.8162 142.051 52.6687 136.365 47.7144 116.436C46.1052 109.961 44.9422 105.282 44.2753 101.513C43.9002 99.3888 43.7046 97.3787 43.6709 95.4806C47.1341 99.869 54.1125 110.327 97.5164 154.957C97.9813 158.445 98.0279 164.045 97.1418 170.145Z" fill="url(#paint24_radial_22394_2641)"/>
<path d="M36.131 186.82C19.5471 175.469 5.20688 158.315 19.3437 142.846C27.2384 134.208 39.7901 133.379 48.4205 141.284C48.4507 141.311 50.995 143.634 54.6279 146.719C67.5993 157.094 69.0286 158.67 97.1429 170.146C94.1439 190.788 80.4617 217.165 36.131 186.82Z" fill="url(#paint25_radial_22394_2641)"/>
<path d="M36.131 186.82C19.5471 175.469 5.20688 158.315 19.3437 142.846C27.2384 134.208 39.7901 133.379 48.4205 141.284C48.4507 141.311 50.995 143.634 54.6279 146.719C67.5993 157.094 69.0286 158.67 97.1429 170.146C94.1439 190.788 80.4617 217.165 36.131 186.82Z" fill="url(#paint26_linear_22394_2641)"/>
<path d="M175.34 101.289C193.559 88.932 182.983 71.1208 182.758 70.7622C180.223 67.0263 169.841 56.6647 165.534 52.2228C151.514 37.7614 135.939 26.079 120.427 35.2153C111.239 40.6284 108.181 49.3257 108.033 59.6032C107.787 76.655 116.16 98.1749 120.463 116.766C145.239 142.999 159.785 144.3 165.272 143.517C165.257 127.829 160.329 110.694 158.775 104.439C159.148 104.423 159.483 104.437 159.768 104.492C165.473 105.591 170.941 104.272 175.341 101.289L175.34 101.289Z" fill="url(#paint27_radial_22394_2641)"/>
<path d="M175.34 101.289C193.559 88.932 182.983 71.1208 182.758 70.7622C180.223 67.0263 169.841 56.6647 165.534 52.2228C151.514 37.7614 135.939 26.079 120.427 35.2153C111.239 40.6284 108.181 49.3257 108.033 59.6032C107.787 76.655 116.16 98.1749 120.463 116.766C145.239 142.999 159.785 144.3 165.272 143.517C165.257 127.829 160.329 110.694 158.775 104.439C159.148 104.423 159.483 104.437 159.768 104.492C165.473 105.591 170.941 104.272 175.341 101.289L175.34 101.289Z" fill="url(#paint28_radial_22394_2641)"/>
<path d="M175.34 101.289C193.559 88.932 182.983 71.1208 182.758 70.7622C180.223 67.0263 169.841 56.6647 165.534 52.2228C151.514 37.7614 135.939 26.079 120.427 35.2153C111.239 40.6284 108.181 49.3257 108.033 59.6032C107.787 76.655 116.16 98.1749 120.463 116.766C145.239 142.999 159.785 144.3 165.272 143.517C165.257 127.829 160.329 110.694 158.775 104.439C159.148 104.423 159.483 104.437 159.768 104.492C165.473 105.591 170.941 104.272 175.341 101.289L175.34 101.289Z" fill="url(#paint29_linear_22394_2641)"/>
<path d="M175.34 101.289C193.559 88.932 182.983 71.1209 182.758 70.7622C180.223 67.0263 169.841 56.6647 165.534 52.2228C151.514 37.7614 135.939 26.079 120.427 35.2153C111.239 40.6284 108.181 49.3257 108.033 59.6032C107.787 76.6549 116.16 98.1749 120.463 116.766C145.239 142.999 159.785 144.3 165.272 143.517C165.257 127.829 160.329 110.694 158.775 104.439C159.148 104.423 159.483 104.437 159.768 104.492C165.473 105.591 170.941 104.272 175.341 101.289L175.34 101.289Z" fill="url(#paint30_radial_22394_2641)"/>
<defs>
<linearGradient id="paint0_linear_22394_2641" x1="50.1746" y1="128.917" x2="100.45" y2="152.992" gradientUnits="userSpaceOnUse">
<stop stop-color="#D99207"/>
<stop offset="1" stop-color="#D28D00"/>
</linearGradient>
<linearGradient id="paint1_linear_22394_2641" x1="110.085" y1="103.593" x2="159.883" y2="100.189" gradientUnits="userSpaceOnUse">
<stop stop-color="#BCA62A"/>
<stop offset="0.424133" stop-color="#7A8B1A"/>
<stop offset="1" stop-color="#BCD73E"/>
</linearGradient>
<linearGradient id="paint2_linear_22394_2641" x1="143.746" y1="87.9388" x2="168.817" y2="61.164" gradientUnits="userSpaceOnUse">
<stop stop-color="#42A12F"/>
<stop offset="1" stop-color="#70F14D"/>
</linearGradient>
<linearGradient id="paint3_linear_22394_2641" x1="82.4781" y1="138.102" x2="114.095" y2="111.31" gradientUnits="userSpaceOnUse">
<stop stop-color="#B99219"/>
<stop offset="0.50226" stop-color="#DAB520"/>
<stop offset="1" stop-color="#E4C722"/>
</linearGradient>
<linearGradient id="paint4_linear_22394_2641" x1="29.4294" y1="146.556" x2="87.6755" y2="182.311" gradientUnits="userSpaceOnUse">
<stop stop-color="#FFC332"/>
<stop offset="1" stop-color="#C17F00"/>
</linearGradient>
<radialGradient id="paint5_radial_22394_2641" cx="0" cy="0" r="1" gradientUnits="userSpaceOnUse" gradientTransform="translate(198.586 99.5544) rotate(99.3982) scale(40.3582 44.7833)">
<stop stop-color="#70F14D"/>
<stop offset="1" stop-color="#42A12F"/>
</radialGradient>
<radialGradient id="paint6_radial_22394_2641" cx="0" cy="0" r="1" gradientUnits="userSpaceOnUse" gradientTransform="translate(199.375 102.759) rotate(103.137) scale(22.0195 24.4351)">
<stop stop-color="#70F14D"/>
<stop offset="1" stop-color="#70F14D" stop-opacity="0"/>
</radialGradient>
<linearGradient id="paint7_linear_22394_2641" x1="110.515" y1="84.289" x2="152.721" y2="81.5391" gradientUnits="userSpaceOnUse">
<stop stop-color="#BEA92B"/>
<stop offset="1" stop-color="#60BA3B" stop-opacity="0"/>
</linearGradient>
<radialGradient id="paint8_radial_22394_2641" cx="0" cy="0" r="1" gradientUnits="userSpaceOnUse" gradientTransform="translate(111.655 37.0496) rotate(100.879) scale(40.5576 17.9191)">
<stop stop-color="#669C27"/>
<stop offset="1" stop-color="#60BA3B" stop-opacity="0"/>
</radialGradient>
<radialGradient id="paint9_radial_22394_2641" cx="0" cy="0" r="1" gradientUnits="userSpaceOnUse" gradientTransform="translate(133.135 81.1575) rotate(91.302) scale(43.7493 25.8799)">
<stop stop-color="#668218"/>
<stop offset="1" stop-color="#658218" stop-opacity="0"/>
</radialGradient>
<radialGradient id="paint10_radial_22394_2641" cx="0" cy="0" r="1" gradientUnits="userSpaceOnUse" gradientTransform="translate(133.135 81.1575) rotate(91.302) scale(43.7493 25.8799)">
<stop stop-color="#668218"/>
<stop offset="1" stop-color="#658218" stop-opacity="0"/>
</radialGradient>
<radialGradient id="paint11_radial_22394_2641" cx="0" cy="0" r="1" gradientUnits="userSpaceOnUse" gradientTransform="translate(124.355 68.8156) rotate(76.3395) scale(32.9918 19.5185)">
<stop stop-color="#668218"/>
<stop offset="1" stop-color="#658218" stop-opacity="0"/>
</radialGradient>
<radialGradient id="paint12_radial_22394_2641" cx="0" cy="0" r="1" gradientUnits="userSpaceOnUse" gradientTransform="translate(142.569 137.334) rotate(-115.617) scale(13.6958 13.6871)">
<stop stop-color="#CFD832"/>
<stop offset="1" stop-color="#CDD631" stop-opacity="0"/>
</radialGradient>
<radialGradient id="paint13_radial_22394_2641" cx="0" cy="0" r="1" gradientUnits="userSpaceOnUse" gradientTransform="translate(159.516 143.607) rotate(-145.62) scale(33.1656 33.8062)">
<stop stop-color="#D1D936"/>
<stop offset="1" stop-color="#D1D936" stop-opacity="0"/>
</radialGradient>
<radialGradient id="paint14_radial_22394_2641" cx="0" cy="0" r="1" gradientUnits="userSpaceOnUse" gradientTransform="translate(133.521 175.575) rotate(-110.364) scale(58.3367 33.5749)">
<stop stop-color="#A89321"/>
<stop offset="1" stop-color="#BBA81E" stop-opacity="0"/>
</radialGradient>
<linearGradient id="paint15_linear_22394_2641" x1="95.8986" y1="164.807" x2="108.709" y2="131.962" gradientUnits="userSpaceOnUse">
<stop stop-color="#A89321"/>
<stop offset="1" stop-color="#BBA81E" stop-opacity="0"/>
</linearGradient>
<radialGradient id="paint16_radial_22394_2641" cx="0" cy="0" r="1" gradientUnits="userSpaceOnUse" gradientTransform="translate(40.4224 97.0649) rotate(39.7017) scale(46.4785 26.7758)">
<stop stop-color="#E7AC1D"/>
<stop offset="1" stop-color="#FABF2E" stop-opacity="0"/>
</radialGradient>
<radialGradient id="paint17_radial_22394_2641" cx="0" cy="0" r="1" gradientUnits="userSpaceOnUse" gradientTransform="translate(136.368 134.262) rotate(70.091) scale(60.6806 15.5556)">
<stop stop-color="#BAA71C"/>
<stop offset="1" stop-color="#BBA91E" stop-opacity="0"/>
</radialGradient>
<radialGradient id="paint18_radial_22394_2641" cx="0" cy="0" r="1" gradientUnits="userSpaceOnUse" gradientTransform="translate(97.9172 89.509) rotate(60.4964) scale(62.4545 19.24)">
<stop stop-color="#F0CF28"/>
<stop offset="1" stop-color="#F0CF29" stop-opacity="0"/>
</radialGradient>
<radialGradient id="paint19_radial_22394_2641" cx="0" cy="0" r="1" gradientUnits="userSpaceOnUse" gradientTransform="translate(68.7398 74.4891) rotate(55.1211) scale(43.7924 26.1559)">
<stop stop-color="#FFBF3C"/>
<stop offset="1" stop-color="#F0CF29" stop-opacity="0"/>
</radialGradient>
<radialGradient id="paint20_radial_22394_2641" cx="0" cy="0" r="1" gradientUnits="userSpaceOnUse" gradientTransform="translate(70.3794 118.161) rotate(86.4489) scale(59.2283 25.4889)">
<stop stop-color="#C06A01"/>
<stop offset="1" stop-color="#D28D00" stop-opacity="0"/>
</radialGradient>
<radialGradient id="paint21_radial_22394_2641" cx="0" cy="0" r="1" gradientUnits="userSpaceOnUse" gradientTransform="translate(71.5581 161.485) rotate(-43.4845) scale(41.4443 17.8546)">
<stop stop-color="#E9A101"/>
<stop offset="1" stop-color="#D28D00" stop-opacity="0"/>
</radialGradient>
<radialGradient id="paint22_radial_22394_2641" cx="0" cy="0" r="1" gradientUnits="userSpaceOnUse" gradientTransform="translate(91.7013 169.9) rotate(-147.774) scale(25.3178 19.0663)">
<stop stop-color="#BE7A00"/>
<stop offset="1" stop-color="#D28D00" stop-opacity="0"/>
</radialGradient>
<radialGradient id="paint23_radial_22394_2641" cx="0" cy="0" r="1" gradientUnits="userSpaceOnUse" gradientTransform="translate(77.8859 163.11) rotate(53.5564) scale(24.7661 18.637)">
<stop stop-color="#CC8300"/>
<stop offset="1" stop-color="#D28D00" stop-opacity="0"/>
</radialGradient>
<radialGradient id="paint24_radial_22394_2641" cx="0" cy="0" r="1" gradientUnits="userSpaceOnUse" gradientTransform="translate(71.5582 161.485) rotate(-41.7209) scale(20.3877 16.3842)">
<stop stop-color="#E9A101"/>
<stop offset="1" stop-color="#D28D00" stop-opacity="0"/>
</radialGradient>
<radialGradient id="paint25_radial_22394_2641" cx="0" cy="0" r="1" gradientUnits="userSpaceOnUse" gradientTransform="translate(32.0917 144.579) rotate(50.555) scale(63.7339 20.4484)">
<stop stop-color="#FDC220"/>
<stop offset="1" stop-color="#F9BD18" stop-opacity="0"/>
</radialGradient>
<linearGradient id="paint26_linear_22394_2641" x1="22.3577" y1="176.223" x2="37.6906" y2="169.036" gradientUnits="userSpaceOnUse">
<stop stop-color="#E2A41F"/>
<stop offset="1" stop-color="#E3A520" stop-opacity="0"/>
</linearGradient>
<radialGradient id="paint27_radial_22394_2641" cx="0" cy="0" r="1" gradientUnits="userSpaceOnUse" gradientTransform="translate(118.68 67.9151) rotate(-130.62) scale(21.4478 8.20366)">
<stop stop-color="#8E9D27"/>
<stop offset="1" stop-color="#99A229" stop-opacity="0"/>
</radialGradient>
<radialGradient id="paint28_radial_22394_2641" cx="0" cy="0" r="1" gradientUnits="userSpaceOnUse" gradientTransform="translate(123.368 41.0719) rotate(88.7063) scale(37.3912 53.4432)">
<stop stop-color="#5DC340"/>
<stop offset="1" stop-color="#5DBE3E" stop-opacity="0"/>
</radialGradient>
<linearGradient id="paint29_linear_22394_2641" x1="155.536" y1="54.6487" x2="133.038" y2="85.0223" gradientUnits="userSpaceOnUse">
<stop stop-color="#72F14D"/>
<stop offset="1" stop-color="#5DBE3E" stop-opacity="0"/>
</linearGradient>
<radialGradient id="paint30_radial_22394_2641" cx="0" cy="0" r="1" gradientUnits="userSpaceOnUse" gradientTransform="translate(105.385 89.6159) rotate(-4.02972) scale(21.5377 122.077)">
<stop stop-color="#B5A62A"/>
<stop offset="1" stop-color="#B9A62A" stop-opacity="0"/>
</radialGradient>
</defs>
</svg>
