<svg width="105" height="77" viewBox="0 0 105 77" fill="none" xmlns="http://www.w3.org/2000/svg">
<path d="M8.542 12.0534C3.4972 12.4352 -0.660099 17.7803 0.0872802 23.2685C0.320836 25.2729 0.834659 28.375 1.48862 31.7634C1.76888 33.2905 2.09586 34.9131 2.42284 36.488C3.23826 40.2948 4.25177 44.0544 5.45906 47.7508C6.75547 51.8516 8.33195 55.8543 10.1769 59.7295C17.2303 73.7603 26.7594 76.7192 33.5325 76.7192C36.7134 76.7471 39.8635 76.0803 42.7717 74.7634C45.6799 73.4465 48.2791 71.5099 50.3952 69.0834C49.2136 67.5413 48.1664 65.8965 47.2656 64.1678C44.276 58.5364 42.3609 52.046 40.726 45.2692C39.9764 47.9696 38.9753 50.5905 37.7365 53.0959C35.7746 56.8184 34.42 56.8184 33.5325 56.8184C31.6173 56.8184 29.6087 54.7185 27.5534 50.662C26.4944 48.4428 25.5587 46.1643 24.7508 43.8375C24.1902 42.1671 23.6297 40.4491 23.1626 38.7788C22.6955 37.1084 21.8547 34.1495 21.481 32.2883C20.5001 27.7546 19.3323 20.3096 19.2856 20.071C18.8652 17.9235 16.3895 11.3853 8.542 12.0534Z" fill="white"/>
<path d="M90.4271 32.0975C95.4252 30.1408 97.5272 23.9367 95.285 18.9257L95.0982 18.4485C94.1939 16.4086 93.1318 14.4457 91.9218 12.5784C91.344 11.6019 90.6878 10.6761 89.96 9.81046C83.5605 1.79286 76.04 0.361143 71.4623 0.361143C68.2819 0.336285 65.1328 1.00448 62.225 2.32118C59.3173 3.63787 56.7177 5.57281 54.5996 7.99695C55.7084 9.43429 56.693 10.9672 57.5424 12.5784C60.6721 18.353 62.6339 26.2752 64.2688 33.0042C65.1563 29.9499 66.184 26.0366 67.3518 23.8413C69.2669 20.262 70.5748 20.262 71.4623 20.262C74.1249 20.262 76.2736 24.2708 77.3012 26.6092C77.3012 26.6092 80.9914 35.8677 90.4271 32.0975Z" fill="white"/>
<path d="M96.5452 12.0534L95.6577 11.958H95.4241C96.3982 13.6198 97.2718 15.3411 98.0399 17.1121L98.2735 17.5894C99.6812 20.7993 99.7885 24.448 98.572 27.7386C97.3555 31.0291 94.914 33.6942 91.7806 35.1517C90.0899 35.9243 88.2609 36.3305 86.4088 36.3448C85.1441 36.3215 83.8878 36.129 82.672 35.7721C81.364 40.7831 79.3087 46.9395 77.4403 50.662C75.5719 54.3844 73.3764 56.8183 71.4146 56.8183C70.5738 56.8183 69.2191 56.8183 67.2573 53.0959C66.0184 50.5905 65.0174 47.9696 64.2678 45.2692C63.6605 43.1693 63.1 40.9263 62.5394 38.5878C62.3059 37.7288 62.119 36.8698 61.9322 36.0108C60.1572 28.4704 58.1486 20.5482 54.692 14.201C54.0303 12.9797 53.2972 11.8004 52.4965 10.6694C51.842 9.74167 51.1404 8.8496 50.3945 7.99688C48.2713 5.56665 45.6641 3.62814 42.7478 2.31122C39.8315 0.9943 36.6734 0.329398 33.4851 0.361066C28.9541 0.361066 21.4336 1.79278 15.0342 9.81038C17.0524 10.7381 18.8061 12.1757 20.13 13.9875C21.454 15.7994 22.3045 17.9258 22.6014 20.1664C22.9284 22.5526 23.7225 27.1819 24.6567 31.5724C24.7501 32.0497 24.8435 32.5269 24.9837 33.0519C25.6843 31.1906 26.385 29.6158 27.1324 27.85L27.6929 26.6092C28.7206 24.2707 30.8693 20.2619 33.4851 20.2619C34.4193 20.2619 35.7272 20.2619 37.6424 23.8412C38.9327 26.4003 39.9657 29.0866 40.7253 31.8588C41.3326 34.0064 41.9398 36.2971 42.4536 38.5878C42.6405 39.256 42.7806 39.9241 42.9207 40.5922C44.7892 48.5621 46.7511 56.2456 50.1143 62.5929C50.8105 63.9418 51.6069 65.2341 52.4965 66.4585C53.1508 67.3712 53.8525 68.2474 54.5985 69.0834C60.1572 75.2397 66.5566 76.7192 71.4146 76.7192C78.1877 76.7192 87.7635 73.7603 94.8169 59.7295C98.4136 52.5232 101.45 41.8808 102.571 36.488C103.692 31.0952 104.533 26.2274 104.906 23.2685C105.084 21.9704 105.008 20.6492 104.683 19.3813C104.358 18.1134 103.79 16.9237 103.013 15.881C102.236 14.8384 101.264 13.9633 100.154 13.3064C99.0437 12.6494 97.8172 12.2236 96.5452 12.0534Z" fill="white"/>
</svg>
