<svg width="239" height="78" viewBox="0 0 239 78" fill="none" xmlns="http://www.w3.org/2000/svg">
<path d="M14.5092 28.8769C15.1607 31.2045 16.0484 33.457 17.1582 35.598C17.6649 36.546 18.1717 37.494 19.092 38.0912C19.2515 38.193 19.4272 38.2658 19.6113 38.3061C20.9668 38.6 21.71 37.4908 22.1888 36.4765C22.9033 34.885 23.4806 33.2336 23.9143 31.5407C23.9983 31.2247 24.0791 30.9087 24.1599 30.5927C24.3154 29.9892 24.4708 29.3793 24.6045 28.7694L30.5865 12.5274C31.8291 10.8455 33.44 9.48066 35.2915 8.54113C37.143 7.6016 39.1845 7.11316 41.2539 7.11451C44.234 7.09586 47.1314 8.11014 49.4682 9.99004C53.3795 12.9983 55.7083 18.9231 55.7083 18.9231C56.0478 19.6945 56.2225 20.5302 56.2213 21.3752C56.2197 22.1579 56.0664 22.9325 55.7701 23.6549C55.4741 24.3773 55.0407 25.0334 54.4951 25.5856C53.9494 26.1379 53.3021 26.5754 52.5901 26.8734C51.8781 27.1714 51.1151 27.3239 50.345 27.3222C49.4887 27.3216 48.6427 27.1297 47.8676 26.76C47.0922 26.3903 46.4063 25.8519 45.8585 25.1829L45.8026 25.1134C45.4267 24.5976 45.1133 24.0374 44.8698 23.445C44.5474 22.7014 44.1861 21.9757 43.7878 21.271C43.5764 20.9076 43.3401 20.5631 43.0976 20.2219C42.8881 19.9168 42.6403 19.6407 42.3607 19.4003C41.8104 18.9484 41.1171 18.7683 40.4704 19.157C40.4393 19.1751 40.4091 19.1952 40.3802 19.217C39.7149 19.6815 39.2485 20.62 38.9251 21.3405C37.9924 23.3818 37.4576 25.4736 36.9291 27.6224C36.8296 28.0363 36.7301 28.4503 36.6368 28.8674L34.1651 37.0832L30.6798 44.8945C29.432 46.531 27.8351 47.8585 26.0095 48.7771C24.1838 49.6954 22.1769 50.181 20.1398 50.1968C11.6736 50.3801 7.65664 42.613 7.65664 42.613C2.83439 34.5742 1.41351 23.9695 1.07462 20.5789C1.00311 19.8743 1 19.454 1 19.454C0.999608 18.392 1.28466 17.35 1.82438 16.4406C2.36411 15.5312 3.138 14.7889 4.0625 14.2938C5.01842 13.8016 6.08218 13.5655 7.15299 13.6081C8.14922 13.6505 9.11853 13.9495 9.96987 14.4771C10.6314 14.8795 11.2032 15.4176 11.6488 16.0571C12.4447 17.2073 12.625 18.6387 12.7836 20.007C13.1129 23.0076 13.6901 25.9747 14.5092 28.8769Z" fill="url(#paint0_linear_13250_6183)"/>
<path d="M14.5092 28.8769C15.1607 31.2045 16.0484 33.457 17.1582 35.598C17.6649 36.546 18.1717 37.494 19.092 38.0912C19.2515 38.193 19.4272 38.2658 19.6113 38.3061C20.9668 38.6 21.71 37.4908 22.1888 36.4765C22.9033 34.885 23.4806 33.2336 23.9143 31.5407C23.9983 31.2247 24.0791 30.9087 24.1599 30.5927C24.3154 29.9892 24.4708 29.3793 24.6045 28.7694L30.5865 12.5274C31.8291 10.8455 33.44 9.48066 35.2915 8.54113C37.143 7.6016 39.1845 7.11316 41.2539 7.11451C44.234 7.09586 47.1314 8.11014 49.4682 9.99004C53.3795 12.9983 55.7083 18.9231 55.7083 18.9231C56.0478 19.6945 56.2225 20.5302 56.2213 21.3752C56.2197 22.1579 56.0664 22.9325 55.7701 23.6549C55.4741 24.3773 55.0407 25.0334 54.4951 25.5856C53.9494 26.1379 53.3021 26.5754 52.5901 26.8734C51.8781 27.1714 51.1151 27.3239 50.345 27.3222C49.4887 27.3216 48.6427 27.1297 47.8676 26.76C47.0922 26.3903 46.4063 25.8519 45.8585 25.1829L45.8026 25.1134C45.4267 24.5976 45.1133 24.0374 44.8698 23.445C44.5474 22.7014 44.1861 21.9757 43.7878 21.271C43.5764 20.9076 43.3401 20.5631 43.0976 20.2219C42.8881 19.9168 42.6403 19.6407 42.3607 19.4003C41.8104 18.9484 41.1171 18.7683 40.4704 19.157C40.4393 19.1751 40.4091 19.1952 40.3802 19.217C39.7149 19.6815 39.2485 20.62 38.9251 21.3405C37.9924 23.3818 37.4576 25.4736 36.9291 27.6224C36.8296 28.0363 36.7301 28.4503 36.6368 28.8674L34.1651 37.0832L30.6798 44.8945C29.432 46.531 27.8351 47.8585 26.0095 48.7771C24.1838 49.6954 22.1769 50.181 20.1398 50.1968C11.6736 50.3801 7.65664 42.613 7.65664 42.613C2.83439 34.5742 1.41351 23.9695 1.07462 20.5789C1.00311 19.8743 1 19.454 1 19.454C0.999608 18.392 1.28466 17.35 1.82438 16.4406C2.36411 15.5312 3.138 14.7889 4.0625 14.2938C5.01842 13.8016 6.08218 13.5655 7.15299 13.6081C8.14922 13.6505 9.11853 13.9495 9.96987 14.4771C10.6314 14.8795 11.2032 15.4176 11.6488 16.0571C12.4447 17.2073 12.625 18.6387 12.7836 20.007C13.1129 23.0076 13.6901 25.9747 14.5092 28.8769Z" fill="url(#paint1_radial_13250_6183)"/>
<path d="M14.5092 28.8769C15.1607 31.2045 16.0484 33.457 17.1582 35.598C17.6649 36.546 18.1717 37.494 19.092 38.0912C19.2515 38.193 19.4272 38.2658 19.6113 38.3061C20.9668 38.6 21.71 37.4908 22.1888 36.4765C22.9033 34.885 23.4806 33.2336 23.9143 31.5407C23.9983 31.2247 24.0791 30.9087 24.1599 30.5927C24.3154 29.9892 24.4708 29.3793 24.6045 28.7694L30.5865 12.5274C31.8291 10.8455 33.44 9.48066 35.2915 8.54113C37.143 7.6016 39.1845 7.11316 41.2539 7.11451C44.234 7.09586 47.1314 8.11014 49.4682 9.99004C53.3795 12.9983 55.7083 18.9231 55.7083 18.9231C56.0478 19.6945 56.2225 20.5302 56.2213 21.3752C56.2197 22.1579 56.0664 22.9325 55.7701 23.6549C55.4741 24.3773 55.0407 25.0334 54.4951 25.5856C53.9494 26.1379 53.3021 26.5754 52.5901 26.8734C51.8781 27.1714 51.1151 27.3239 50.345 27.3222C49.4887 27.3216 48.6427 27.1297 47.8676 26.76C47.0922 26.3903 46.4063 25.8519 45.8585 25.1829L45.8026 25.1134C45.4267 24.5976 45.1133 24.0374 44.8698 23.445C44.5474 22.7014 44.1861 21.9757 43.7878 21.271C43.5764 20.9076 43.3401 20.5631 43.0976 20.2219C42.8881 19.9168 42.6403 19.6407 42.3607 19.4003C41.8104 18.9484 41.1171 18.7683 40.4704 19.157C40.4393 19.1751 40.4091 19.1952 40.3802 19.217C39.7149 19.6815 39.2485 20.62 38.9251 21.3405C37.9924 23.3818 37.4576 25.4736 36.9291 27.6224C36.8296 28.0363 36.7301 28.4503 36.6368 28.8674L34.1651 37.0832L30.6798 44.8945C29.432 46.531 27.8351 47.8585 26.0095 48.7771C24.1838 49.6954 22.1769 50.181 20.1398 50.1968C11.6736 50.3801 7.65664 42.613 7.65664 42.613C2.83439 34.5742 1.41351 23.9695 1.07462 20.5789C1.00311 19.8743 1 19.454 1 19.454C0.999608 18.392 1.28466 17.35 1.82438 16.4406C2.36411 15.5312 3.138 14.7889 4.0625 14.2938C5.01842 13.8016 6.08218 13.5655 7.15299 13.6081C8.14922 13.6505 9.11853 13.9495 9.96987 14.4771C10.6314 14.8795 11.2032 15.4176 11.6488 16.0571C12.4447 17.2073 12.625 18.6387 12.7836 20.007C13.1129 23.0076 13.6901 25.9747 14.5092 28.8769Z" fill="url(#paint2_radial_13250_6183)"/>
<path d="M14.5092 28.8769C15.1607 31.2045 16.0484 33.457 17.1582 35.598C17.6649 36.546 18.1717 37.494 19.092 38.0912C19.2515 38.193 19.4272 38.2658 19.6113 38.3061C20.9668 38.6 21.71 37.4908 22.1888 36.4765C22.9033 34.885 23.4806 33.2336 23.9143 31.5407C23.9983 31.2247 24.0791 30.9087 24.1599 30.5927C24.3154 29.9892 24.4708 29.3793 24.6045 28.7694L30.5865 12.5274C31.8291 10.8455 33.44 9.48066 35.2915 8.54113C37.143 7.6016 39.1845 7.11316 41.2539 7.11451C44.234 7.09586 47.1314 8.11014 49.4682 9.99004C53.3795 12.9983 55.7083 18.9231 55.7083 18.9231C56.0478 19.6945 56.2225 20.5302 56.2213 21.3752C56.2197 22.1579 56.0664 22.9325 55.7701 23.6549C55.4741 24.3773 55.0407 25.0334 54.4951 25.5856C53.9494 26.1379 53.3021 26.5754 52.5901 26.8734C51.8781 27.1714 51.1151 27.3239 50.345 27.3222C49.4887 27.3216 48.6427 27.1297 47.8676 26.76C47.0922 26.3903 46.4063 25.8519 45.8585 25.1829L45.8026 25.1134C45.4267 24.5976 45.1133 24.0374 44.8698 23.445C44.5474 22.7014 44.1861 21.9757 43.7878 21.271C43.5764 20.9076 43.3401 20.5631 43.0976 20.2219C42.8881 19.9168 42.6403 19.6407 42.3607 19.4003C41.8104 18.9484 41.1171 18.7683 40.4704 19.157C40.4393 19.1751 40.4091 19.1952 40.3802 19.217C39.7149 19.6815 39.2485 20.62 38.9251 21.3405C37.9924 23.3818 37.4576 25.4736 36.9291 27.6224C36.8296 28.0363 36.7301 28.4503 36.6368 28.8674L34.1651 37.0832L30.6798 44.8945C29.432 46.531 27.8351 47.8585 26.0095 48.7771C24.1838 49.6954 22.1769 50.181 20.1398 50.1968C11.6736 50.3801 7.65664 42.613 7.65664 42.613C2.83439 34.5742 1.41351 23.9695 1.07462 20.5789C1.00311 19.8743 1 19.454 1 19.454C0.999608 18.392 1.28466 17.35 1.82438 16.4406C2.36411 15.5312 3.138 14.7889 4.0625 14.2938C5.01842 13.8016 6.08218 13.5655 7.15299 13.6081C8.14922 13.6505 9.11853 13.9495 9.96987 14.4771C10.6314 14.8795 11.2032 15.4176 11.6488 16.0571C12.4447 17.2073 12.625 18.6387 12.7836 20.007C13.1129 23.0076 13.6901 25.9747 14.5092 28.8769Z" fill="url(#paint3_radial_13250_6183)"/>
<path d="M14.5092 28.8769C15.1607 31.2045 16.0484 33.457 17.1582 35.598C17.6649 36.546 18.1717 37.494 19.092 38.0912C19.2515 38.193 19.4272 38.2658 19.6113 38.3061C20.9668 38.6 21.71 37.4908 22.1888 36.4765C22.9033 34.885 23.4806 33.2336 23.9143 31.5407C23.9983 31.2247 24.0791 30.9087 24.1599 30.5927C24.3154 29.9892 24.4708 29.3793 24.6045 28.7694L30.5865 12.5274C31.8291 10.8455 33.44 9.48066 35.2915 8.54113C37.143 7.6016 39.1845 7.11316 41.2539 7.11451C44.234 7.09586 47.1314 8.11014 49.4682 9.99004C53.3795 12.9983 55.7083 18.9231 55.7083 18.9231C56.0478 19.6945 56.2225 20.5302 56.2213 21.3752C56.2197 22.1579 56.0664 22.9325 55.7701 23.6549C55.4741 24.3773 55.0407 25.0334 54.4951 25.5856C53.9494 26.1379 53.3021 26.5754 52.5901 26.8734C51.8781 27.1714 51.1151 27.3239 50.345 27.3222C49.4887 27.3216 48.6427 27.1297 47.8676 26.76C47.0922 26.3903 46.4063 25.8519 45.8585 25.1829L45.8026 25.1134C45.4267 24.5976 45.1133 24.0374 44.8698 23.445C44.5474 22.7014 44.1861 21.9757 43.7878 21.271C43.5764 20.9076 43.3401 20.5631 43.0976 20.2219C42.8881 19.9168 42.6403 19.6407 42.3607 19.4003C41.8104 18.9484 41.1171 18.7683 40.4704 19.157C40.4393 19.1751 40.4091 19.1952 40.3802 19.217C39.7149 19.6815 39.2485 20.62 38.9251 21.3405C37.9924 23.3818 37.4576 25.4736 36.9291 27.6224C36.8296 28.0363 36.7301 28.4503 36.6368 28.8674L34.1651 37.0832L30.6798 44.8945C29.432 46.531 27.8351 47.8585 26.0095 48.7771C24.1838 49.6954 22.1769 50.181 20.1398 50.1968C11.6736 50.3801 7.65664 42.613 7.65664 42.613C2.83439 34.5742 1.41351 23.9695 1.07462 20.5789C1.00311 19.8743 1 19.454 1 19.454C0.999608 18.392 1.28466 17.35 1.82438 16.4406C2.36411 15.5312 3.138 14.7889 4.0625 14.2938C5.01842 13.8016 6.08218 13.5655 7.15299 13.6081C8.14922 13.6505 9.11853 13.9495 9.96987 14.4771C10.6314 14.8795 11.2032 15.4176 11.6488 16.0571C12.4447 17.2073 12.625 18.6387 12.7836 20.007C13.1129 23.0076 13.6901 25.9747 14.5092 28.8769Z" fill="url(#paint4_radial_13250_6183)"/>
<path d="M14.5092 28.8769C15.1607 31.2045 16.0484 33.457 17.1582 35.598C17.6649 36.546 18.1717 37.494 19.092 38.0912C19.2515 38.193 19.4272 38.2658 19.6113 38.3061C20.9668 38.6 21.71 37.4908 22.1888 36.4765C22.9033 34.885 23.4806 33.2336 23.9143 31.5407C23.9983 31.2247 24.0791 30.9087 24.1599 30.5927C24.3154 29.9892 24.4708 29.3793 24.6045 28.7694L30.5865 12.5274C31.8291 10.8455 33.44 9.48066 35.2915 8.54113C37.143 7.6016 39.1845 7.11316 41.2539 7.11451C44.234 7.09586 47.1314 8.11014 49.4682 9.99004C53.3795 12.9983 55.7083 18.9231 55.7083 18.9231C56.0478 19.6945 56.2225 20.5302 56.2213 21.3752C56.2197 22.1579 56.0664 22.9325 55.7701 23.6549C55.4741 24.3773 55.0407 25.0334 54.4951 25.5856C53.9494 26.1379 53.3021 26.5754 52.5901 26.8734C51.8781 27.1714 51.1151 27.3239 50.345 27.3222C49.4887 27.3216 48.6427 27.1297 47.8676 26.76C47.0922 26.3903 46.4063 25.8519 45.8585 25.1829L45.8026 25.1134C45.4267 24.5976 45.1133 24.0374 44.8698 23.445C44.5474 22.7014 44.1861 21.9757 43.7878 21.271C43.5764 20.9076 43.3401 20.5631 43.0976 20.2219C42.8881 19.9168 42.6403 19.6407 42.3607 19.4003C41.8104 18.9484 41.1171 18.7683 40.4704 19.157C40.4393 19.1751 40.4091 19.1952 40.3802 19.217C39.7149 19.6815 39.2485 20.62 38.9251 21.3405C37.9924 23.3818 37.4576 25.4736 36.9291 27.6224C36.8296 28.0363 36.7301 28.4503 36.6368 28.8674L34.1651 37.0832L30.6798 44.8945C29.432 46.531 27.8351 47.8585 26.0095 48.7771C24.1838 49.6954 22.1769 50.181 20.1398 50.1968C11.6736 50.3801 7.65664 42.613 7.65664 42.613C2.83439 34.5742 1.41351 23.9695 1.07462 20.5789C1.00311 19.8743 1 19.454 1 19.454C0.999608 18.392 1.28466 17.35 1.82438 16.4406C2.36411 15.5312 3.138 14.7889 4.0625 14.2938C5.01842 13.8016 6.08218 13.5655 7.15299 13.6081C8.14922 13.6505 9.11853 13.9495 9.96987 14.4771C10.6314 14.8795 11.2032 15.4176 11.6488 16.0571C12.4447 17.2073 12.625 18.6387 12.7836 20.007C13.1129 23.0076 13.6901 25.9747 14.5092 28.8769Z" fill="url(#paint5_radial_13250_6183)"/>
<path d="M14.5092 28.8769C15.1607 31.2045 16.0484 33.457 17.1582 35.598C17.6649 36.546 18.1717 37.494 19.092 38.0912C19.2515 38.193 19.4272 38.2658 19.6113 38.3061C20.9668 38.6 21.71 37.4908 22.1888 36.4765C22.9033 34.885 23.4806 33.2336 23.9143 31.5407C23.9983 31.2247 24.0791 30.9087 24.1599 30.5927C24.3154 29.9892 24.4708 29.3793 24.6045 28.7694L30.5865 12.5274C31.8291 10.8455 33.44 9.48066 35.2915 8.54113C37.143 7.6016 39.1845 7.11316 41.2539 7.11451C44.234 7.09586 47.1314 8.11014 49.4682 9.99004C53.3795 12.9983 55.7083 18.9231 55.7083 18.9231C56.0478 19.6945 56.2225 20.5302 56.2213 21.3752C56.2197 22.1579 56.0664 22.9325 55.7701 23.6549C55.4741 24.3773 55.0407 25.0334 54.4951 25.5856C53.9494 26.1379 53.3021 26.5754 52.5901 26.8734C51.8781 27.1714 51.1151 27.3239 50.345 27.3222C49.4887 27.3216 48.6427 27.1297 47.8676 26.76C47.0922 26.3903 46.4063 25.8519 45.8585 25.1829L45.8026 25.1134C45.4267 24.5976 45.1133 24.0374 44.8698 23.445C44.5474 22.7014 44.1861 21.9757 43.7878 21.271C43.5764 20.9076 43.3401 20.5631 43.0976 20.2219C42.8881 19.9168 42.6403 19.6407 42.3607 19.4003C41.8104 18.9484 41.1171 18.7683 40.4704 19.157C40.4393 19.1751 40.4091 19.1952 40.3802 19.217C39.7149 19.6815 39.2485 20.62 38.9251 21.3405C37.9924 23.3818 37.4576 25.4736 36.9291 27.6224C36.8296 28.0363 36.7301 28.4503 36.6368 28.8674L34.1651 37.0832L30.6798 44.8945C29.432 46.531 27.8351 47.8585 26.0095 48.7771C24.1838 49.6954 22.1769 50.181 20.1398 50.1968C11.6736 50.3801 7.65664 42.613 7.65664 42.613C2.83439 34.5742 1.41351 23.9695 1.07462 20.5789C1.00311 19.8743 1 19.454 1 19.454C0.999608 18.392 1.28466 17.35 1.82438 16.4406C2.36411 15.5312 3.138 14.7889 4.0625 14.2938C5.01842 13.8016 6.08218 13.5655 7.15299 13.6081C8.14922 13.6505 9.11853 13.9495 9.96987 14.4771C10.6314 14.8795 11.2032 15.4176 11.6488 16.0571C12.4447 17.2073 12.625 18.6387 12.7836 20.007C13.1129 23.0076 13.6901 25.9747 14.5092 28.8769Z" fill="url(#paint6_radial_13250_6183)"/>
<path d="M14.5092 28.8769C15.1607 31.2045 16.0484 33.457 17.1582 35.598C17.6649 36.546 18.1717 37.494 19.092 38.0912C19.2515 38.193 19.4272 38.2658 19.6113 38.3061C20.9668 38.6 21.71 37.4908 22.1888 36.4765C22.9033 34.885 23.4806 33.2336 23.9143 31.5407C23.9983 31.2247 24.0791 30.9087 24.1599 30.5927C24.3154 29.9892 24.4708 29.3793 24.6045 28.7694L30.5865 12.5274C31.8291 10.8455 33.44 9.48066 35.2915 8.54113C37.143 7.6016 39.1845 7.11316 41.2539 7.11451C44.234 7.09586 47.1314 8.11014 49.4682 9.99004C53.3795 12.9983 55.7083 18.9231 55.7083 18.9231C56.0478 19.6945 56.2225 20.5302 56.2213 21.3752C56.2197 22.1579 56.0664 22.9325 55.7701 23.6549C55.4741 24.3773 55.0407 25.0334 54.4951 25.5856C53.9494 26.1379 53.3021 26.5754 52.5901 26.8734C51.8781 27.1714 51.1151 27.3239 50.345 27.3222C49.4887 27.3216 48.6427 27.1297 47.8676 26.76C47.0922 26.3903 46.4063 25.8519 45.8585 25.1829L45.8026 25.1134C45.4267 24.5976 45.1133 24.0374 44.8698 23.445C44.5474 22.7014 44.1861 21.9757 43.7878 21.271C43.5764 20.9076 43.3401 20.5631 43.0976 20.2219C42.8881 19.9168 42.6403 19.6407 42.3607 19.4003C41.8104 18.9484 41.1171 18.7683 40.4704 19.157C40.4393 19.1751 40.4091 19.1952 40.3802 19.217C39.7149 19.6815 39.2485 20.62 38.9251 21.3405C37.9924 23.3818 37.4576 25.4736 36.9291 27.6224C36.8296 28.0363 36.7301 28.4503 36.6368 28.8674L34.1651 37.0832L30.6798 44.8945C29.432 46.531 27.8351 47.8585 26.0095 48.7771C24.1838 49.6954 22.1769 50.181 20.1398 50.1968C11.6736 50.3801 7.65664 42.613 7.65664 42.613C2.83439 34.5742 1.41351 23.9695 1.07462 20.5789C1.00311 19.8743 1 19.454 1 19.454C0.999608 18.392 1.28466 17.35 1.82438 16.4406C2.36411 15.5312 3.138 14.7889 4.0625 14.2938C5.01842 13.8016 6.08218 13.5655 7.15299 13.6081C8.14922 13.6505 9.11853 13.9495 9.96987 14.4771C10.6314 14.8795 11.2032 15.4176 11.6488 16.0571C12.4447 17.2073 12.625 18.6387 12.7836 20.007C13.1129 23.0076 13.6901 25.9747 14.5092 28.8769Z" fill="url(#paint7_radial_13250_6183)"/>
<path d="M14.5092 28.8769C15.1607 31.2045 16.0484 33.457 17.1582 35.598C17.6649 36.546 18.1717 37.494 19.092 38.0912C19.2515 38.193 19.4272 38.2658 19.6113 38.3061C20.9668 38.6 21.71 37.4908 22.1888 36.4765C22.9033 34.885 23.4806 33.2336 23.9143 31.5407C23.9983 31.2247 24.0791 30.9087 24.1599 30.5927C24.3154 29.9892 24.4708 29.3793 24.6045 28.7694L30.5865 12.5274C31.8291 10.8455 33.44 9.48066 35.2915 8.54113C37.143 7.6016 39.1845 7.11316 41.2539 7.11451C44.234 7.09586 47.1314 8.11014 49.4682 9.99004C53.3795 12.9983 55.7083 18.9231 55.7083 18.9231C56.0478 19.6945 56.2225 20.5302 56.2213 21.3752C56.2197 22.1579 56.0664 22.9325 55.7701 23.6549C55.4741 24.3773 55.0407 25.0334 54.4951 25.5856C53.9494 26.1379 53.3021 26.5754 52.5901 26.8734C51.8781 27.1714 51.1151 27.3239 50.345 27.3222C49.4887 27.3216 48.6427 27.1297 47.8676 26.76C47.0922 26.3903 46.4063 25.8519 45.8585 25.1829L45.8026 25.1134C45.4267 24.5976 45.1133 24.0374 44.8698 23.445C44.5474 22.7014 44.1861 21.9757 43.7878 21.271C43.5764 20.9076 43.3401 20.5631 43.0976 20.2219C42.8881 19.9168 42.6403 19.6407 42.3607 19.4003C41.8104 18.9484 41.1171 18.7683 40.4704 19.157C40.4393 19.1751 40.4091 19.1952 40.3802 19.217C39.7149 19.6815 39.2485 20.62 38.9251 21.3405C37.9924 23.3818 37.4576 25.4736 36.9291 27.6224C36.8296 28.0363 36.7301 28.4503 36.6368 28.8674L34.1651 37.0832L30.6798 44.8945C29.432 46.531 27.8351 47.8585 26.0095 48.7771C24.1838 49.6954 22.1769 50.181 20.1398 50.1968C11.6736 50.3801 7.65664 42.613 7.65664 42.613C2.83439 34.5742 1.41351 23.9695 1.07462 20.5789C1.00311 19.8743 1 19.454 1 19.454C0.999608 18.392 1.28466 17.35 1.82438 16.4406C2.36411 15.5312 3.138 14.7889 4.0625 14.2938C5.01842 13.8016 6.08218 13.5655 7.15299 13.6081C8.14922 13.6505 9.11853 13.9495 9.96987 14.4771C10.6314 14.8795 11.2032 15.4176 11.6488 16.0571C12.4447 17.2073 12.625 18.6387 12.7836 20.007C13.1129 23.0076 13.6901 25.9747 14.5092 28.8769Z" fill="url(#paint8_radial_13250_6183)"/>
<path d="M14.5092 28.8769C15.1607 31.2045 16.0484 33.457 17.1582 35.598C17.6649 36.546 18.1717 37.494 19.092 38.0912C19.2515 38.193 19.4272 38.2658 19.6113 38.3061C20.9668 38.6 21.71 37.4908 22.1888 36.4765C22.9033 34.885 23.4806 33.2336 23.9143 31.5407C23.9983 31.2247 24.0791 30.9087 24.1599 30.5927C24.3154 29.9892 24.4708 29.3793 24.6045 28.7694L30.5865 12.5274C31.8291 10.8455 33.44 9.48066 35.2915 8.54113C37.143 7.6016 39.1845 7.11316 41.2539 7.11451C44.234 7.09586 47.1314 8.11014 49.4682 9.99004C53.3795 12.9983 55.7083 18.9231 55.7083 18.9231C56.0478 19.6945 56.2225 20.5302 56.2213 21.3752C56.2197 22.1579 56.0664 22.9325 55.7701 23.6549C55.4741 24.3773 55.0407 25.0334 54.4951 25.5856C53.9494 26.1379 53.3021 26.5754 52.5901 26.8734C51.8781 27.1714 51.1151 27.3239 50.345 27.3222C49.4887 27.3216 48.6427 27.1297 47.8676 26.76C47.0922 26.3903 46.4063 25.8519 45.8585 25.1829L45.8026 25.1134C45.4267 24.5976 45.1133 24.0374 44.8698 23.445C44.5474 22.7014 44.1861 21.9757 43.7878 21.271C43.5764 20.9076 43.3401 20.5631 43.0976 20.2219C42.8881 19.9168 42.6403 19.6407 42.3607 19.4003C41.8104 18.9484 41.1171 18.7683 40.4704 19.157C40.4393 19.1751 40.4091 19.1952 40.3802 19.217C39.7149 19.6815 39.2485 20.62 38.9251 21.3405C37.9924 23.3818 37.4576 25.4736 36.9291 27.6224C36.8296 28.0363 36.7301 28.4503 36.6368 28.8674L34.1651 37.0832L30.6798 44.8945C29.432 46.531 27.8351 47.8585 26.0095 48.7771C24.1838 49.6954 22.1769 50.181 20.1398 50.1968C11.6736 50.3801 7.65664 42.613 7.65664 42.613C2.83439 34.5742 1.41351 23.9695 1.07462 20.5789C1.00311 19.8743 1 19.454 1 19.454C0.999608 18.392 1.28466 17.35 1.82438 16.4406C2.36411 15.5312 3.138 14.7889 4.0625 14.2938C5.01842 13.8016 6.08218 13.5655 7.15299 13.6081C8.14922 13.6505 9.11853 13.9495 9.96987 14.4771C10.6314 14.8795 11.2032 15.4176 11.6488 16.0571C12.4447 17.2073 12.625 18.6387 12.7836 20.007C13.1129 23.0076 13.6901 25.9747 14.5092 28.8769Z" fill="url(#paint9_radial_13250_6183)"/>
<path d="M14.5092 28.8769C15.1607 31.2045 16.0484 33.457 17.1582 35.598C17.6649 36.546 18.1717 37.494 19.092 38.0912C19.2515 38.193 19.4272 38.2658 19.6113 38.3061C20.9668 38.6 21.71 37.4908 22.1888 36.4765C22.9033 34.885 23.4806 33.2336 23.9143 31.5407C23.9983 31.2247 24.0791 30.9087 24.1599 30.5927C24.3154 29.9892 24.4708 29.3793 24.6045 28.7694L30.5865 12.5274C31.8291 10.8455 33.44 9.48066 35.2915 8.54113C37.143 7.6016 39.1845 7.11316 41.2539 7.11451C44.234 7.09586 47.1314 8.11014 49.4682 9.99004C53.3795 12.9983 55.7083 18.9231 55.7083 18.9231C56.0478 19.6945 56.2225 20.5302 56.2213 21.3752C56.2197 22.1579 56.0664 22.9325 55.7701 23.6549C55.4741 24.3773 55.0407 25.0334 54.4951 25.5856C53.9494 26.1379 53.3021 26.5754 52.5901 26.8734C51.8781 27.1714 51.1151 27.3239 50.345 27.3222C49.4887 27.3216 48.6427 27.1297 47.8676 26.76C47.0922 26.3903 46.4063 25.8519 45.8585 25.1829L45.8026 25.1134C45.4267 24.5976 45.1133 24.0374 44.8698 23.445C44.5474 22.7014 44.1861 21.9757 43.7878 21.271C43.5764 20.9076 43.3401 20.5631 43.0976 20.2219C42.8881 19.9168 42.6403 19.6407 42.3607 19.4003C41.8104 18.9484 41.1171 18.7683 40.4704 19.157C40.4393 19.1751 40.4091 19.1952 40.3802 19.217C39.7149 19.6815 39.2485 20.62 38.9251 21.3405C37.9924 23.3818 37.4576 25.4736 36.9291 27.6224C36.8296 28.0363 36.7301 28.4503 36.6368 28.8674L34.1651 37.0832L30.6798 44.8945C29.432 46.531 27.8351 47.8585 26.0095 48.7771C24.1838 49.6954 22.1769 50.181 20.1398 50.1968C11.6736 50.3801 7.65664 42.613 7.65664 42.613C2.83439 34.5742 1.41351 23.9695 1.07462 20.5789C1.00311 19.8743 1 19.454 1 19.454C0.999608 18.392 1.28466 17.35 1.82438 16.4406C2.36411 15.5312 3.138 14.7889 4.0625 14.2938C5.01842 13.8016 6.08218 13.5655 7.15299 13.6081C8.14922 13.6505 9.11853 13.9495 9.96987 14.4771C10.6314 14.8795 11.2032 15.4176 11.6488 16.0571C12.4447 17.2073 12.625 18.6387 12.7836 20.007C13.1129 23.0076 13.6901 25.9747 14.5092 28.8769Z" fill="url(#paint10_radial_13250_6183)"/>
<path d="M14.5092 28.8769C15.1607 31.2045 16.0484 33.457 17.1582 35.598C17.6649 36.546 18.1717 37.494 19.092 38.0912C19.2515 38.193 19.4272 38.2658 19.6113 38.3061C20.9668 38.6 21.71 37.4908 22.1888 36.4765C22.9033 34.885 23.4806 33.2336 23.9143 31.5407C23.9983 31.2247 24.0791 30.9087 24.1599 30.5927C24.3154 29.9892 24.4708 29.3793 24.6045 28.7694L30.5865 12.5274C31.8291 10.8455 33.44 9.48066 35.2915 8.54113C37.143 7.6016 39.1845 7.11316 41.2539 7.11451C44.234 7.09586 47.1314 8.11014 49.4682 9.99004C53.3795 12.9983 55.7083 18.9231 55.7083 18.9231C56.0478 19.6945 56.2225 20.5302 56.2213 21.3752C56.2197 22.1579 56.0664 22.9325 55.7701 23.6549C55.4741 24.3773 55.0407 25.0334 54.4951 25.5856C53.9494 26.1379 53.3021 26.5754 52.5901 26.8734C51.8781 27.1714 51.1151 27.3239 50.345 27.3222C49.4887 27.3216 48.6427 27.1297 47.8676 26.76C47.0922 26.3903 46.4063 25.8519 45.8585 25.1829L45.8026 25.1134C45.4267 24.5976 45.1133 24.0374 44.8698 23.445C44.5474 22.7014 44.1861 21.9757 43.7878 21.271C43.5764 20.9076 43.3401 20.5631 43.0976 20.2219C42.8881 19.9168 42.6403 19.6407 42.3607 19.4003C41.8104 18.9484 41.1171 18.7683 40.4704 19.157C40.4393 19.1751 40.4091 19.1952 40.3802 19.217C39.7149 19.6815 39.2485 20.62 38.9251 21.3405C37.9924 23.3818 37.4576 25.4736 36.9291 27.6224C36.8296 28.0363 36.7301 28.4503 36.6368 28.8674L34.1651 37.0832L30.6798 44.8945C29.432 46.531 27.8351 47.8585 26.0095 48.7771C24.1838 49.6954 22.1769 50.181 20.1398 50.1968C11.6736 50.3801 7.65664 42.613 7.65664 42.613C2.83439 34.5742 1.41351 23.9695 1.07462 20.5789C1.00311 19.8743 1 19.454 1 19.454C0.999608 18.392 1.28466 17.35 1.82438 16.4406C2.36411 15.5312 3.138 14.7889 4.0625 14.2938C5.01842 13.8016 6.08218 13.5655 7.15299 13.6081C8.14922 13.6505 9.11853 13.9495 9.96987 14.4771C10.6314 14.8795 11.2032 15.4176 11.6488 16.0571C12.4447 17.2073 12.625 18.6387 12.7836 20.007C13.1129 23.0076 13.6901 25.9747 14.5092 28.8769Z" fill="url(#paint11_radial_13250_6183)"/>
<path d="M14.5092 28.8769C15.1607 31.2045 16.0484 33.457 17.1582 35.598C17.6649 36.546 18.1717 37.494 19.092 38.0912C19.2515 38.193 19.4272 38.2658 19.6113 38.3061C20.9668 38.6 21.71 37.4908 22.1888 36.4765C22.9033 34.885 23.4806 33.2336 23.9143 31.5407C23.9983 31.2247 24.0791 30.9087 24.1599 30.5927C24.3154 29.9892 24.4708 29.3793 24.6045 28.7694L30.5865 12.5274C31.8291 10.8455 33.44 9.48066 35.2915 8.54113C37.143 7.6016 39.1845 7.11316 41.2539 7.11451C44.234 7.09586 47.1314 8.11014 49.4682 9.99004C53.3795 12.9983 55.7083 18.9231 55.7083 18.9231C56.0478 19.6945 56.2225 20.5302 56.2213 21.3752C56.2197 22.1579 56.0664 22.9325 55.7701 23.6549C55.4741 24.3773 55.0407 25.0334 54.4951 25.5856C53.9494 26.1379 53.3021 26.5754 52.5901 26.8734C51.8781 27.1714 51.1151 27.3239 50.345 27.3222C49.4887 27.3216 48.6427 27.1297 47.8676 26.76C47.0922 26.3903 46.4063 25.8519 45.8585 25.1829L45.8026 25.1134C45.4267 24.5976 45.1133 24.0374 44.8698 23.445C44.5474 22.7014 44.1861 21.9757 43.7878 21.271C43.5764 20.9076 43.3401 20.5631 43.0976 20.2219C42.8881 19.9168 42.6403 19.6407 42.3607 19.4003C41.8104 18.9484 41.1171 18.7683 40.4704 19.157C40.4393 19.1751 40.4091 19.1952 40.3802 19.217C39.7149 19.6815 39.2485 20.62 38.9251 21.3405C37.9924 23.3818 37.4576 25.4736 36.9291 27.6224C36.8296 28.0363 36.7301 28.4503 36.6368 28.8674L34.1651 37.0832L30.6798 44.8945C29.432 46.531 27.8351 47.8585 26.0095 48.7771C24.1838 49.6954 22.1769 50.181 20.1398 50.1968C11.6736 50.3801 7.65664 42.613 7.65664 42.613C2.83439 34.5742 1.41351 23.9695 1.07462 20.5789C1.00311 19.8743 1 19.454 1 19.454C0.999608 18.392 1.28466 17.35 1.82438 16.4406C2.36411 15.5312 3.138 14.7889 4.0625 14.2938C5.01842 13.8016 6.08218 13.5655 7.15299 13.6081C8.14922 13.6505 9.11853 13.9495 9.96987 14.4771C10.6314 14.8795 11.2032 15.4176 11.6488 16.0571C12.4447 17.2073 12.625 18.6387 12.7836 20.007C13.1129 23.0076 13.6901 25.9747 14.5092 28.8769Z" fill="url(#paint12_radial_13250_6183)"/>
<path d="M14.5092 28.8769C15.1607 31.2045 16.0484 33.457 17.1582 35.598C17.6649 36.546 18.1717 37.494 19.092 38.0912C19.2515 38.193 19.4272 38.2658 19.6113 38.3061C20.9668 38.6 21.71 37.4908 22.1888 36.4765C22.9033 34.885 23.4806 33.2336 23.9143 31.5407C23.9983 31.2247 24.0791 30.9087 24.1599 30.5927C24.3154 29.9892 24.4708 29.3793 24.6045 28.7694L30.5865 12.5274C31.8291 10.8455 33.44 9.48066 35.2915 8.54113C37.143 7.6016 39.1845 7.11316 41.2539 7.11451C44.234 7.09586 47.1314 8.11014 49.4682 9.99004C53.3795 12.9983 55.7083 18.9231 55.7083 18.9231C56.0478 19.6945 56.2225 20.5302 56.2213 21.3752C56.2197 22.1579 56.0664 22.9325 55.7701 23.6549C55.4741 24.3773 55.0407 25.0334 54.4951 25.5856C53.9494 26.1379 53.3021 26.5754 52.5901 26.8734C51.8781 27.1714 51.1151 27.3239 50.345 27.3222C49.4887 27.3216 48.6427 27.1297 47.8676 26.76C47.0922 26.3903 46.4063 25.8519 45.8585 25.1829L45.8026 25.1134C45.4267 24.5976 45.1133 24.0374 44.8698 23.445C44.5474 22.7014 44.1861 21.9757 43.7878 21.271C43.5764 20.9076 43.3401 20.5631 43.0976 20.2219C42.8881 19.9168 42.6403 19.6407 42.3607 19.4003C41.8104 18.9484 41.1171 18.7683 40.4704 19.157C40.4393 19.1751 40.4091 19.1952 40.3802 19.217C39.7149 19.6815 39.2485 20.62 38.9251 21.3405C37.9924 23.3818 37.4576 25.4736 36.9291 27.6224C36.8296 28.0363 36.7301 28.4503 36.6368 28.8674L34.1651 37.0832L30.6798 44.8945C29.432 46.531 27.8351 47.8585 26.0095 48.7771C24.1838 49.6954 22.1769 50.181 20.1398 50.1968C11.6736 50.3801 7.65664 42.613 7.65664 42.613C2.83439 34.5742 1.41351 23.9695 1.07462 20.5789C1.00311 19.8743 1 19.454 1 19.454C0.999608 18.392 1.28466 17.35 1.82438 16.4406C2.36411 15.5312 3.138 14.7889 4.0625 14.2938C5.01842 13.8016 6.08218 13.5655 7.15299 13.6081C8.14922 13.6505 9.11853 13.9495 9.96987 14.4771C10.6314 14.8795 11.2032 15.4176 11.6488 16.0571C12.4447 17.2073 12.625 18.6387 12.7836 20.007C13.1129 23.0076 13.6901 25.9747 14.5092 28.8769Z" fill="url(#paint13_radial_13250_6183)"/>
<path d="M14.5092 28.8769C15.1607 31.2045 16.0484 33.457 17.1582 35.598C17.6649 36.546 18.1717 37.494 19.092 38.0912C19.2515 38.193 19.4272 38.2658 19.6113 38.3061C20.9668 38.6 21.71 37.4908 22.1888 36.4765C22.9033 34.885 23.4806 33.2336 23.9143 31.5407C23.9983 31.2247 24.0791 30.9087 24.1599 30.5927C24.3154 29.9892 24.4708 29.3793 24.6045 28.7694L30.5865 12.5274C31.8291 10.8455 33.44 9.48066 35.2915 8.54113C37.143 7.6016 39.1845 7.11316 41.2539 7.11451C44.234 7.09586 47.1314 8.11014 49.4682 9.99004C53.3795 12.9983 55.7083 18.9231 55.7083 18.9231C56.0478 19.6945 56.2225 20.5302 56.2213 21.3752C56.2197 22.1579 56.0664 22.9325 55.7701 23.6549C55.4741 24.3773 55.0407 25.0334 54.4951 25.5856C53.9494 26.1379 53.3021 26.5754 52.5901 26.8734C51.8781 27.1714 51.1151 27.3239 50.345 27.3222C49.4887 27.3216 48.6427 27.1297 47.8676 26.76C47.0922 26.3903 46.4063 25.8519 45.8585 25.1829L45.8026 25.1134C45.4267 24.5976 45.1133 24.0374 44.8698 23.445C44.5474 22.7014 44.1861 21.9757 43.7878 21.271C43.5764 20.9076 43.3401 20.5631 43.0976 20.2219C42.8881 19.9168 42.6403 19.6407 42.3607 19.4003C41.8104 18.9484 41.1171 18.7683 40.4704 19.157C40.4393 19.1751 40.4091 19.1952 40.3802 19.217C39.7149 19.6815 39.2485 20.62 38.9251 21.3405C37.9924 23.3818 37.4576 25.4736 36.9291 27.6224C36.8296 28.0363 36.7301 28.4503 36.6368 28.8674L34.1651 37.0832L30.6798 44.8945C29.432 46.531 27.8351 47.8585 26.0095 48.7771C24.1838 49.6954 22.1769 50.181 20.1398 50.1968C11.6736 50.3801 7.65664 42.613 7.65664 42.613C2.83439 34.5742 1.41351 23.9695 1.07462 20.5789C1.00311 19.8743 1 19.454 1 19.454C0.999608 18.392 1.28466 17.35 1.82438 16.4406C2.36411 15.5312 3.138 14.7889 4.0625 14.2938C5.01842 13.8016 6.08218 13.5655 7.15299 13.6081C8.14922 13.6505 9.11853 13.9495 9.96987 14.4771C10.6314 14.8795 11.2032 15.4176 11.6488 16.0571C12.4447 17.2073 12.625 18.6387 12.7836 20.007C13.1129 23.0076 13.6901 25.9747 14.5092 28.8769Z" fill="url(#paint14_radial_13250_6183)"/>
<path d="M14.5092 28.8769C15.1607 31.2045 16.0484 33.457 17.1582 35.598C17.6649 36.546 18.1717 37.494 19.092 38.0912C19.2515 38.193 19.4272 38.2658 19.6113 38.3061C20.9668 38.6 21.71 37.4908 22.1888 36.4765C22.9033 34.885 23.4806 33.2336 23.9143 31.5407C23.9983 31.2247 24.0791 30.9087 24.1599 30.5927C24.3154 29.9892 24.4708 29.3793 24.6045 28.7694L30.5865 12.5274C31.8291 10.8455 33.44 9.48066 35.2915 8.54113C37.143 7.6016 39.1845 7.11316 41.2539 7.11451C44.234 7.09586 47.1314 8.11014 49.4682 9.99004C53.3795 12.9983 55.7083 18.9231 55.7083 18.9231C56.0478 19.6945 56.2225 20.5302 56.2213 21.3752C56.2197 22.1579 56.0664 22.9325 55.7701 23.6549C55.4741 24.3773 55.0407 25.0334 54.4951 25.5856C53.9494 26.1379 53.3021 26.5754 52.5901 26.8734C51.8781 27.1714 51.1151 27.3239 50.345 27.3222C49.4887 27.3216 48.6427 27.1297 47.8676 26.76C47.0922 26.3903 46.4063 25.8519 45.8585 25.1829L45.8026 25.1134C45.4267 24.5976 45.1133 24.0374 44.8698 23.445C44.5474 22.7014 44.1861 21.9757 43.7878 21.271C43.5764 20.9076 43.3401 20.5631 43.0976 20.2219C42.8881 19.9168 42.6403 19.6407 42.3607 19.4003C41.8104 18.9484 41.1171 18.7683 40.4704 19.157C40.4393 19.1751 40.4091 19.1952 40.3802 19.217C39.7149 19.6815 39.2485 20.62 38.9251 21.3405C37.9924 23.3818 37.4576 25.4736 36.9291 27.6224C36.8296 28.0363 36.7301 28.4503 36.6368 28.8674L34.1651 37.0832L30.6798 44.8945C29.432 46.531 27.8351 47.8585 26.0095 48.7771C24.1838 49.6954 22.1769 50.181 20.1398 50.1968C11.6736 50.3801 7.65664 42.613 7.65664 42.613C2.83439 34.5742 1.41351 23.9695 1.07462 20.5789C1.00311 19.8743 1 19.454 1 19.454C0.999608 18.392 1.28466 17.35 1.82438 16.4406C2.36411 15.5312 3.138 14.7889 4.0625 14.2938C5.01842 13.8016 6.08218 13.5655 7.15299 13.6081C8.14922 13.6505 9.11853 13.9495 9.96987 14.4771C10.6314 14.8795 11.2032 15.4176 11.6488 16.0571C12.4447 17.2073 12.625 18.6387 12.7836 20.007C13.1129 23.0076 13.6901 25.9747 14.5092 28.8769Z" fill="url(#paint15_radial_13250_6183)"/>
<path d="M14.5092 28.8769C15.1607 31.2045 16.0484 33.457 17.1582 35.598C17.6649 36.546 18.1717 37.494 19.092 38.0912C19.2515 38.193 19.4272 38.2658 19.6113 38.3061C20.9668 38.6 21.71 37.4908 22.1888 36.4765C22.9033 34.885 23.4806 33.2336 23.9143 31.5407C23.9983 31.2247 24.0791 30.9087 24.1599 30.5927C24.3154 29.9892 24.4708 29.3793 24.6045 28.7694L30.5865 12.5274C31.8291 10.8455 33.44 9.48066 35.2915 8.54113C37.143 7.6016 39.1845 7.11316 41.2539 7.11451C44.234 7.09586 47.1314 8.11014 49.4682 9.99004C53.3795 12.9983 55.7083 18.9231 55.7083 18.9231C56.0478 19.6945 56.2225 20.5302 56.2213 21.3752C56.2197 22.1579 56.0664 22.9325 55.7701 23.6549C55.4741 24.3773 55.0407 25.0334 54.4951 25.5856C53.9494 26.1379 53.3021 26.5754 52.5901 26.8734C51.8781 27.1714 51.1151 27.3239 50.345 27.3222C49.4887 27.3216 48.6427 27.1297 47.8676 26.76C47.0922 26.3903 46.4063 25.8519 45.8585 25.1829L45.8026 25.1134C45.4267 24.5976 45.1133 24.0374 44.8698 23.445C44.5474 22.7014 44.1861 21.9757 43.7878 21.271C43.5764 20.9076 43.3401 20.5631 43.0976 20.2219C42.8881 19.9168 42.6403 19.6407 42.3607 19.4003C41.8104 18.9484 41.1171 18.7683 40.4704 19.157C40.4393 19.1751 40.4091 19.1952 40.3802 19.217C39.7149 19.6815 39.2485 20.62 38.9251 21.3405C37.9924 23.3818 37.4576 25.4736 36.9291 27.6224C36.8296 28.0363 36.7301 28.4503 36.6368 28.8674L34.1651 37.0832L30.6798 44.8945C29.432 46.531 27.8351 47.8585 26.0095 48.7771C24.1838 49.6954 22.1769 50.181 20.1398 50.1968C11.6736 50.3801 7.65664 42.613 7.65664 42.613C2.83439 34.5742 1.41351 23.9695 1.07462 20.5789C1.00311 19.8743 1 19.454 1 19.454C0.999608 18.392 1.28466 17.35 1.82438 16.4406C2.36411 15.5312 3.138 14.7889 4.0625 14.2938C5.01842 13.8016 6.08218 13.5655 7.15299 13.6081C8.14922 13.6505 9.11853 13.9495 9.96987 14.4771C10.6314 14.8795 11.2032 15.4176 11.6488 16.0571C12.4447 17.2073 12.625 18.6387 12.7836 20.007C13.1129 23.0076 13.6901 25.9747 14.5092 28.8769Z" fill="url(#paint16_linear_13250_6183)"/>
<path d="M14.5092 28.8769C15.1607 31.2045 16.0484 33.457 17.1582 35.598C17.6649 36.546 18.1717 37.494 19.092 38.0912C19.2515 38.193 19.4272 38.2658 19.6113 38.3061C20.9668 38.6 21.71 37.4908 22.1888 36.4765C22.9033 34.885 23.4806 33.2336 23.9143 31.5407C23.9983 31.2247 24.0791 30.9087 24.1599 30.5927C24.3154 29.9892 24.4708 29.3793 24.6045 28.7694L30.5865 12.5274C31.8291 10.8455 33.44 9.48066 35.2915 8.54113C37.143 7.6016 39.1845 7.11316 41.2539 7.11451C44.234 7.09586 47.1314 8.11014 49.4682 9.99004C53.3795 12.9983 55.7083 18.9231 55.7083 18.9231C56.0478 19.6945 56.2225 20.5302 56.2213 21.3752C56.2197 22.1579 56.0664 22.9325 55.7701 23.6549C55.4741 24.3773 55.0407 25.0334 54.4951 25.5856C53.9494 26.1379 53.3021 26.5754 52.5901 26.8734C51.8781 27.1714 51.1151 27.3239 50.345 27.3222C49.4887 27.3216 48.6427 27.1297 47.8676 26.76C47.0922 26.3903 46.4063 25.8519 45.8585 25.1829L45.8026 25.1134C45.4267 24.5976 45.1133 24.0374 44.8698 23.445C44.5474 22.7014 44.1861 21.9757 43.7878 21.271C43.5764 20.9076 43.3401 20.5631 43.0976 20.2219C42.8881 19.9168 42.6403 19.6407 42.3607 19.4003C41.8104 18.9484 41.1171 18.7683 40.4704 19.157C40.4393 19.1751 40.4091 19.1952 40.3802 19.217C39.7149 19.6815 39.2485 20.62 38.9251 21.3405C37.9924 23.3818 37.4576 25.4736 36.9291 27.6224C36.8296 28.0363 36.7301 28.4503 36.6368 28.8674L34.1651 37.0832L30.6798 44.8945C29.432 46.531 27.8351 47.8585 26.0095 48.7771C24.1838 49.6954 22.1769 50.181 20.1398 50.1968C11.6736 50.3801 7.65664 42.613 7.65664 42.613C2.83439 34.5742 1.41351 23.9695 1.07462 20.5789C1.00311 19.8743 1 19.454 1 19.454C0.999608 18.392 1.28466 17.35 1.82438 16.4406C2.36411 15.5312 3.138 14.7889 4.0625 14.2938C5.01842 13.8016 6.08218 13.5655 7.15299 13.6081C8.14922 13.6505 9.11853 13.9495 9.96987 14.4771C10.6314 14.8795 11.2032 15.4176 11.6488 16.0571C12.4447 17.2073 12.625 18.6387 12.7836 20.007C13.1129 23.0076 13.6901 25.9747 14.5092 28.8769Z" fill="url(#paint17_linear_13250_6183)"/>
<path d="M14.5092 28.8769C15.1607 31.2045 16.0484 33.457 17.1582 35.598C17.6649 36.546 18.1717 37.494 19.092 38.0912C19.2515 38.193 19.4272 38.2658 19.6113 38.3061C20.9668 38.6 21.71 37.4908 22.1888 36.4765C22.9033 34.885 23.4806 33.2336 23.9143 31.5407C23.9983 31.2247 24.0791 30.9087 24.1599 30.5927C24.3154 29.9892 24.4708 29.3793 24.6045 28.7694L30.5865 12.5274C31.8291 10.8455 33.44 9.48066 35.2915 8.54113C37.143 7.6016 39.1845 7.11316 41.2539 7.11451C44.234 7.09586 47.1314 8.11014 49.4682 9.99004C53.3795 12.9983 55.7083 18.9231 55.7083 18.9231C56.0478 19.6945 56.2225 20.5302 56.2213 21.3752C56.2197 22.1579 56.0664 22.9325 55.7701 23.6549C55.4741 24.3773 55.0407 25.0334 54.4951 25.5856C53.9494 26.1379 53.3021 26.5754 52.5901 26.8734C51.8781 27.1714 51.1151 27.3239 50.345 27.3222C49.4887 27.3216 48.6427 27.1297 47.8676 26.76C47.0922 26.3903 46.4063 25.8519 45.8585 25.1829L45.8026 25.1134C45.4267 24.5976 45.1133 24.0374 44.8698 23.445C44.5474 22.7014 44.1861 21.9757 43.7878 21.271C43.5764 20.9076 43.3401 20.5631 43.0976 20.2219C42.8881 19.9168 42.6403 19.6407 42.3607 19.4003C41.8104 18.9484 41.1171 18.7683 40.4704 19.157C40.4393 19.1751 40.4091 19.1952 40.3802 19.217C39.7149 19.6815 39.2485 20.62 38.9251 21.3405C37.9924 23.3818 37.4576 25.4736 36.9291 27.6224C36.8296 28.0363 36.7301 28.4503 36.6368 28.8674L34.1651 37.0832L30.6798 44.8945C29.432 46.531 27.8351 47.8585 26.0095 48.7771C24.1838 49.6954 22.1769 50.181 20.1398 50.1968C11.6736 50.3801 7.65664 42.613 7.65664 42.613C2.83439 34.5742 1.41351 23.9695 1.07462 20.5789C1.00311 19.8743 1 19.454 1 19.454C0.999608 18.392 1.28466 17.35 1.82438 16.4406C2.36411 15.5312 3.138 14.7889 4.0625 14.2938C5.01842 13.8016 6.08218 13.5655 7.15299 13.6081C8.14922 13.6505 9.11853 13.9495 9.96987 14.4771C10.6314 14.8795 11.2032 15.4176 11.6488 16.0571C12.4447 17.2073 12.625 18.6387 12.7836 20.007C13.1129 23.0076 13.6901 25.9747 14.5092 28.8769Z" fill="url(#paint18_linear_13250_6183)"/>
<path d="M14.5092 28.8769C15.1607 31.2045 16.0484 33.457 17.1582 35.598C17.6649 36.546 18.1717 37.494 19.092 38.0912C19.2515 38.193 19.4272 38.2658 19.6113 38.3061C20.9668 38.6 21.71 37.4908 22.1888 36.4765C22.9033 34.885 23.4806 33.2336 23.9143 31.5407C23.9983 31.2247 24.0791 30.9087 24.1599 30.5927C24.3154 29.9892 24.4708 29.3793 24.6045 28.7694L30.5865 12.5274C31.8291 10.8455 33.44 9.48066 35.2915 8.54113C37.143 7.6016 39.1845 7.11316 41.2539 7.11451C44.234 7.09586 47.1314 8.11014 49.4682 9.99004C53.3795 12.9983 55.7083 18.9231 55.7083 18.9231C56.0478 19.6945 56.2225 20.5302 56.2213 21.3752C56.2197 22.1579 56.0664 22.9325 55.7701 23.6549C55.4741 24.3773 55.0407 25.0334 54.4951 25.5856C53.9494 26.1379 53.3021 26.5754 52.5901 26.8734C51.8781 27.1714 51.1151 27.3239 50.345 27.3222C49.4887 27.3216 48.6427 27.1297 47.8676 26.76C47.0922 26.3903 46.4063 25.8519 45.8585 25.1829L45.8026 25.1134C45.4267 24.5976 45.1133 24.0374 44.8698 23.445C44.5474 22.7014 44.1861 21.9757 43.7878 21.271C43.5764 20.9076 43.3401 20.5631 43.0976 20.2219C42.8881 19.9168 42.6403 19.6407 42.3607 19.4003C41.8104 18.9484 41.1171 18.7683 40.4704 19.157C40.4393 19.1751 40.4091 19.1952 40.3802 19.217C39.7149 19.6815 39.2485 20.62 38.9251 21.3405C37.9924 23.3818 37.4576 25.4736 36.9291 27.6224C36.8296 28.0363 36.7301 28.4503 36.6368 28.8674L34.1651 37.0832L30.6798 44.8945C29.432 46.531 27.8351 47.8585 26.0095 48.7771C24.1838 49.6954 22.1769 50.181 20.1398 50.1968C11.6736 50.3801 7.65664 42.613 7.65664 42.613C2.83439 34.5742 1.41351 23.9695 1.07462 20.5789C1.00311 19.8743 1 19.454 1 19.454C0.999608 18.392 1.28466 17.35 1.82438 16.4406C2.36411 15.5312 3.138 14.7889 4.0625 14.2938C5.01842 13.8016 6.08218 13.5655 7.15299 13.6081C8.14922 13.6505 9.11853 13.9495 9.96987 14.4771C10.6314 14.8795 11.2032 15.4176 11.6488 16.0571C12.4447 17.2073 12.625 18.6387 12.7836 20.007C13.1129 23.0076 13.6901 25.9747 14.5092 28.8769Z" fill="url(#paint19_linear_13250_6183)"/>
<path d="M26.7842 22.8512L30.5867 12.5309C31.8292 10.8489 33.4402 9.48408 35.2917 8.54455C37.1432 7.60502 39.1847 7.11658 41.2541 7.11793C44.2342 7.09928 47.1316 8.11356 49.4685 9.99346C53.3798 13.0017 55.7085 18.9265 55.7085 18.9265C56.048 19.6979 56.2227 20.5337 56.2215 21.3786C56.2199 22.1613 56.0667 22.9359 55.7704 23.6583C55.4741 24.3808 55.041 25.0368 54.4953 25.5891C53.9497 26.1413 53.3023 26.5789 52.59 26.8768C51.878 27.1748 51.1154 27.3273 50.3452 27.3256C49.489 27.325 48.643 27.1331 47.8679 26.7634C47.0925 26.3938 46.4066 25.8553 45.8588 25.1863L45.8028 25.1168C45.4266 24.601 45.1135 24.0408 44.87 23.4484C44.5473 22.7048 44.1864 21.9791 43.7881 21.2744C43.5766 20.911 43.3404 20.5665 43.0978 20.2253C42.8883 19.9202 42.6405 19.6441 42.361 19.4037C41.8107 18.9518 41.1173 18.7717 40.4706 19.1604C40.4395 19.1785 40.4094 19.1986 40.3805 19.2204C39.7151 19.6849 39.2487 20.6234 38.9254 21.3439C37.9926 23.3852 37.4579 25.4771 36.9293 27.6258C36.8298 28.0398 36.7303 28.4537 36.6371 28.8708L34.1653 37.0866L26.7842 22.8512Z" fill="url(#paint20_linear_13250_6183)"/>
<path d="M54.4086 13.6337C53.9146 13.6326 53.4227 13.6953 52.9442 13.8202C54.0349 15.4219 54.9608 17.133 55.7082 18.9266C56.0478 19.698 56.2225 20.5337 56.2213 21.3787C56.2197 22.1614 56.0664 22.936 55.7701 23.6584C55.4738 24.3808 55.0407 25.0369 54.4951 25.5891C53.9494 26.1413 53.3021 26.5789 52.5898 26.8769C51.8778 27.1749 51.1151 27.3274 50.345 27.3257C49.304 27.3237 48.2824 27.0401 47.3851 26.5041L46.7819 28.7698C45.6875 32.489 44.9164 33.9268 44.9164 33.9268C44.4917 34.9351 43.9862 35.9063 43.4054 36.8307C43.0043 37.4343 42.4913 38.041 41.7886 38.2716C41.5443 38.3582 41.2831 38.3842 41.0269 38.3475C40.7496 38.3133 40.4819 38.2219 40.2403 38.0789C39.7783 37.7257 39.4108 37.2608 39.1708 36.7264C38.8735 36.1332 38.6068 35.5246 38.3717 34.9032C37.8525 33.6202 37.0503 30.4603 37.0503 30.4603L36.2202 27.1519L35.39 23.8182L34.7993 21.6283C33.2447 15.9247 31.0932 13.1187 31.0932 13.1187C29.4021 10.668 27.0063 8.80916 24.2344 7.79737C21.0196 6.62504 17.6462 7.28546 17.6462 7.28546C12.3607 8.34087 9.58419 12.0253 8.3623 13.7981C8.92154 13.9465 9.45669 14.1764 9.95107 14.4806C10.6126 14.883 11.1844 15.4211 11.63 16.0606C12.4259 17.2108 12.6063 18.6422 12.7648 20.0105C13.0984 22.9759 13.6745 25.9079 14.4873 28.7761C16.2782 22.7406 18.4266 19.9283 18.4266 19.9283C18.6666 19.6252 18.9545 19.3646 19.2785 19.1573C19.4471 19.0521 19.6357 18.9842 19.8319 18.9582C20.1955 18.9227 20.5603 19.0129 20.8672 19.2142C20.9235 19.2518 20.9765 19.294 21.0258 19.3406C21.3066 19.5936 21.5478 19.8888 21.7409 20.2159C22.1882 21.0284 22.5758 21.8733 22.9006 22.7438C23.5722 24.665 24.1443 27.0128 24.1443 27.0128L25.8543 33.8636C27.098 38.5213 28.1519 40.7838 28.1519 40.7838C30.7481 46.8256 34.7185 48.5256 34.7185 48.5256C36.6514 49.5763 38.8011 50.1479 40.9927 50.194C43.0848 50.2519 45.1599 49.7978 47.0431 48.87C49.1079 47.838 50.9192 46.349 52.3442 44.5125C53.3049 43.3812 54.7195 40.6258 54.7195 40.6258C56.2794 37.4668 57.5041 34.1481 58.3728 30.7257C58.9278 28.5936 59.373 26.4335 59.7066 24.2542C59.8745 23.1735 60.0331 22.0865 60.1605 20.9964C60.3194 19.9641 60.2877 18.9107 60.0673 17.8902C60.0209 17.7067 59.964 17.5263 59.8962 17.3498C59.3966 16.0691 58.4701 15.0077 57.2784 14.351C56.3951 13.8738 55.4088 13.6273 54.4086 13.6337Z" fill="url(#paint21_linear_13250_6183)"/>
<path d="M54.4086 13.6337C53.9146 13.6326 53.4227 13.6953 52.9442 13.8202C54.0349 15.4219 54.9608 17.133 55.7082 18.9266C56.0478 19.698 56.2225 20.5337 56.2213 21.3787C56.2197 22.1614 56.0664 22.936 55.7701 23.6584C55.4738 24.3808 55.0407 25.0369 54.4951 25.5891C53.9494 26.1413 53.3021 26.5789 52.5898 26.8769C51.8778 27.1749 51.1151 27.3274 50.345 27.3257C49.304 27.3237 48.2824 27.0401 47.3851 26.5041L46.7819 28.7698C45.6875 32.489 44.9164 33.9268 44.9164 33.9268C44.4917 34.9351 43.9862 35.9063 43.4054 36.8307C43.0043 37.4343 42.4913 38.041 41.7886 38.2716C41.5443 38.3582 41.2831 38.3842 41.0269 38.3475C40.7496 38.3133 40.4819 38.2219 40.2403 38.0789C39.7783 37.7257 39.4108 37.2608 39.1708 36.7264C38.8735 36.1332 38.6068 35.5246 38.3717 34.9032C37.8525 33.6202 37.0503 30.4603 37.0503 30.4603L36.2202 27.1519L35.39 23.8182L34.7993 21.6283C33.2447 15.9247 31.0932 13.1187 31.0932 13.1187C29.4021 10.668 27.0063 8.80916 24.2344 7.79737C21.0196 6.62504 17.6462 7.28546 17.6462 7.28546C12.3607 8.34087 9.58419 12.0253 8.3623 13.7981C8.92154 13.9465 9.45669 14.1764 9.95107 14.4806C10.6126 14.883 11.1844 15.4211 11.63 16.0606C12.4259 17.2108 12.6063 18.6422 12.7648 20.0105C13.0984 22.9759 13.6745 25.9079 14.4873 28.7761C16.2782 22.7406 18.4266 19.9283 18.4266 19.9283C18.6666 19.6252 18.9545 19.3646 19.2785 19.1573C19.4471 19.0521 19.6357 18.9842 19.8319 18.9582C20.1955 18.9227 20.5603 19.0129 20.8672 19.2142C20.9235 19.2518 20.9765 19.294 21.0258 19.3406C21.3066 19.5936 21.5478 19.8888 21.7409 20.2159C22.1882 21.0284 22.5758 21.8733 22.9006 22.7438C23.5722 24.665 24.1443 27.0128 24.1443 27.0128L25.8543 33.8636C27.098 38.5213 28.1519 40.7838 28.1519 40.7838C30.7481 46.8256 34.7185 48.5256 34.7185 48.5256C36.6514 49.5763 38.8011 50.1479 40.9927 50.194C43.0848 50.2519 45.1599 49.7978 47.0431 48.87C49.1079 47.838 50.9192 46.349 52.3442 44.5125C53.3049 43.3812 54.7195 40.6258 54.7195 40.6258C56.2794 37.4668 57.5041 34.1481 58.3728 30.7257C58.9278 28.5936 59.373 26.4335 59.7066 24.2542C59.8745 23.1735 60.0331 22.0865 60.1605 20.9964C60.3194 19.9641 60.2877 18.9107 60.0673 17.8902C60.0209 17.7067 59.964 17.5263 59.8962 17.3498C59.3966 16.0691 58.4701 15.0077 57.2784 14.351C56.3951 13.8738 55.4088 13.6273 54.4086 13.6337Z" fill="url(#paint22_radial_13250_6183)"/>
<path d="M54.4086 13.6337C53.9146 13.6326 53.4227 13.6953 52.9442 13.8202C54.0349 15.4219 54.9608 17.133 55.7082 18.9266C56.0478 19.698 56.2225 20.5337 56.2213 21.3787C56.2197 22.1614 56.0664 22.936 55.7701 23.6584C55.4738 24.3808 55.0407 25.0369 54.4951 25.5891C53.9494 26.1413 53.3021 26.5789 52.5898 26.8769C51.8778 27.1749 51.1151 27.3274 50.345 27.3257C49.304 27.3237 48.2824 27.0401 47.3851 26.5041L46.7819 28.7698C45.6875 32.489 44.9164 33.9268 44.9164 33.9268C44.4917 34.9351 43.9862 35.9063 43.4054 36.8307C43.0043 37.4343 42.4913 38.041 41.7886 38.2716C41.5443 38.3582 41.2831 38.3842 41.0269 38.3475C40.7496 38.3133 40.4819 38.2219 40.2403 38.0789C39.7783 37.7257 39.4108 37.2608 39.1708 36.7264C38.8735 36.1332 38.6068 35.5246 38.3717 34.9032C37.8525 33.6202 37.0503 30.4603 37.0503 30.4603L36.2202 27.1519L35.39 23.8182L34.7993 21.6283C33.2447 15.9247 31.0932 13.1187 31.0932 13.1187C29.4021 10.668 27.0063 8.80916 24.2344 7.79737C21.0196 6.62504 17.6462 7.28546 17.6462 7.28546C12.3607 8.34087 9.58419 12.0253 8.3623 13.7981C8.92154 13.9465 9.45669 14.1764 9.95107 14.4806C10.6126 14.883 11.1844 15.4211 11.63 16.0606C12.4259 17.2108 12.6063 18.6422 12.7648 20.0105C13.0984 22.9759 13.6745 25.9079 14.4873 28.7761C16.2782 22.7406 18.4266 19.9283 18.4266 19.9283C18.6666 19.6252 18.9545 19.3646 19.2785 19.1573C19.4471 19.0521 19.6357 18.9842 19.8319 18.9582C20.1955 18.9227 20.5603 19.0129 20.8672 19.2142C20.9235 19.2518 20.9765 19.294 21.0258 19.3406C21.3066 19.5936 21.5478 19.8888 21.7409 20.2159C22.1882 21.0284 22.5758 21.8733 22.9006 22.7438C23.5722 24.665 24.1443 27.0128 24.1443 27.0128L25.8543 33.8636C27.098 38.5213 28.1519 40.7838 28.1519 40.7838C30.7481 46.8256 34.7185 48.5256 34.7185 48.5256C36.6514 49.5763 38.8011 50.1479 40.9927 50.194C43.0848 50.2519 45.1599 49.7978 47.0431 48.87C49.1079 47.838 50.9192 46.349 52.3442 44.5125C53.3049 43.3812 54.7195 40.6258 54.7195 40.6258C56.2794 37.4668 57.5041 34.1481 58.3728 30.7257C58.9278 28.5936 59.373 26.4335 59.7066 24.2542C59.8745 23.1735 60.0331 22.0865 60.1605 20.9964C60.3194 19.9641 60.2877 18.9107 60.0673 17.8902C60.0209 17.7067 59.964 17.5263 59.8962 17.3498C59.3966 16.0691 58.4701 15.0077 57.2784 14.351C56.3951 13.8738 55.4088 13.6273 54.4086 13.6337Z" fill="url(#paint23_radial_13250_6183)"/>
<path d="M54.4086 13.6337C53.9146 13.6326 53.4227 13.6953 52.9442 13.8202C54.0349 15.4219 54.9608 17.133 55.7082 18.9266C56.0478 19.698 56.2225 20.5337 56.2213 21.3787C56.2197 22.1614 56.0664 22.936 55.7701 23.6584C55.4738 24.3808 55.0407 25.0369 54.4951 25.5891C53.9494 26.1413 53.3021 26.5789 52.5898 26.8769C51.8778 27.1749 51.1151 27.3274 50.345 27.3257C49.304 27.3237 48.2824 27.0401 47.3851 26.5041L46.7819 28.7698C45.6875 32.489 44.9164 33.9268 44.9164 33.9268C44.4917 34.9351 43.9862 35.9063 43.4054 36.8307C43.0043 37.4343 42.4913 38.041 41.7886 38.2716C41.5443 38.3582 41.2831 38.3842 41.0269 38.3475C40.7496 38.3133 40.4819 38.2219 40.2403 38.0789C39.7783 37.7257 39.4108 37.2608 39.1708 36.7264C38.8735 36.1332 38.6068 35.5246 38.3717 34.9032C37.8525 33.6202 37.0503 30.4603 37.0503 30.4603L36.2202 27.1519L35.39 23.8182L34.7993 21.6283C33.2447 15.9247 31.0932 13.1187 31.0932 13.1187C29.4021 10.668 27.0063 8.80916 24.2344 7.79737C21.0196 6.62504 17.6462 7.28546 17.6462 7.28546C12.3607 8.34087 9.58419 12.0253 8.3623 13.7981C8.92154 13.9465 9.45669 14.1764 9.95107 14.4806C10.6126 14.883 11.1844 15.4211 11.63 16.0606C12.4259 17.2108 12.6063 18.6422 12.7648 20.0105C13.0984 22.9759 13.6745 25.9079 14.4873 28.7761C16.2782 22.7406 18.4266 19.9283 18.4266 19.9283C18.6666 19.6252 18.9545 19.3646 19.2785 19.1573C19.4471 19.0521 19.6357 18.9842 19.8319 18.9582C20.1955 18.9227 20.5603 19.0129 20.8672 19.2142C20.9235 19.2518 20.9765 19.294 21.0258 19.3406C21.3066 19.5936 21.5478 19.8888 21.7409 20.2159C22.1882 21.0284 22.5758 21.8733 22.9006 22.7438C23.5722 24.665 24.1443 27.0128 24.1443 27.0128L25.8543 33.8636C27.098 38.5213 28.1519 40.7838 28.1519 40.7838C30.7481 46.8256 34.7185 48.5256 34.7185 48.5256C36.6514 49.5763 38.8011 50.1479 40.9927 50.194C43.0848 50.2519 45.1599 49.7978 47.0431 48.87C49.1079 47.838 50.9192 46.349 52.3442 44.5125C53.3049 43.3812 54.7195 40.6258 54.7195 40.6258C56.2794 37.4668 57.5041 34.1481 58.3728 30.7257C58.9278 28.5936 59.373 26.4335 59.7066 24.2542C59.8745 23.1735 60.0331 22.0865 60.1605 20.9964C60.3194 19.9641 60.2877 18.9107 60.0673 17.8902C60.0209 17.7067 59.964 17.5263 59.8962 17.3498C59.3966 16.0691 58.4701 15.0077 57.2784 14.351C56.3951 13.8738 55.4088 13.6273 54.4086 13.6337Z" fill="url(#paint24_radial_13250_6183)"/>
<path d="M54.4086 13.6337C53.9146 13.6326 53.4227 13.6953 52.9442 13.8202C54.0349 15.4219 54.9608 17.133 55.7082 18.9266C56.0478 19.698 56.2225 20.5337 56.2213 21.3787C56.2197 22.1614 56.0664 22.936 55.7701 23.6584C55.4738 24.3808 55.0407 25.0369 54.4951 25.5891C53.9494 26.1413 53.3021 26.5789 52.5898 26.8769C51.8778 27.1749 51.1151 27.3274 50.345 27.3257C49.304 27.3237 48.2824 27.0401 47.3851 26.5041L46.7819 28.7698C45.6875 32.489 44.9164 33.9268 44.9164 33.9268C44.4917 34.9351 43.9862 35.9063 43.4054 36.8307C43.0043 37.4343 42.4913 38.041 41.7886 38.2716C41.5443 38.3582 41.2831 38.3842 41.0269 38.3475C40.7496 38.3133 40.4819 38.2219 40.2403 38.0789C39.7783 37.7257 39.4108 37.2608 39.1708 36.7264C38.8735 36.1332 38.6068 35.5246 38.3717 34.9032C37.8525 33.6202 37.0503 30.4603 37.0503 30.4603L36.2202 27.1519L35.39 23.8182L34.7993 21.6283C33.2447 15.9247 31.0932 13.1187 31.0932 13.1187C29.4021 10.668 27.0063 8.80916 24.2344 7.79737C21.0196 6.62504 17.6462 7.28546 17.6462 7.28546C12.3607 8.34087 9.58419 12.0253 8.3623 13.7981C8.92154 13.9465 9.45669 14.1764 9.95107 14.4806C10.6126 14.883 11.1844 15.4211 11.63 16.0606C12.4259 17.2108 12.6063 18.6422 12.7648 20.0105C13.0984 22.9759 13.6745 25.9079 14.4873 28.7761C16.2782 22.7406 18.4266 19.9283 18.4266 19.9283C18.6666 19.6252 18.9545 19.3646 19.2785 19.1573C19.4471 19.0521 19.6357 18.9842 19.8319 18.9582C20.1955 18.9227 20.5603 19.0129 20.8672 19.2142C20.9235 19.2518 20.9765 19.294 21.0258 19.3406C21.3066 19.5936 21.5478 19.8888 21.7409 20.2159C22.1882 21.0284 22.5758 21.8733 22.9006 22.7438C23.5722 24.665 24.1443 27.0128 24.1443 27.0128L25.8543 33.8636C27.098 38.5213 28.1519 40.7838 28.1519 40.7838C30.7481 46.8256 34.7185 48.5256 34.7185 48.5256C36.6514 49.5763 38.8011 50.1479 40.9927 50.194C43.0848 50.2519 45.1599 49.7978 47.0431 48.87C49.1079 47.838 50.9192 46.349 52.3442 44.5125C53.3049 43.3812 54.7195 40.6258 54.7195 40.6258C56.2794 37.4668 57.5041 34.1481 58.3728 30.7257C58.9278 28.5936 59.373 26.4335 59.7066 24.2542C59.8745 23.1735 60.0331 22.0865 60.1605 20.9964C60.3194 19.9641 60.2877 18.9107 60.0673 17.8902C60.0209 17.7067 59.964 17.5263 59.8962 17.3498C59.3966 16.0691 58.4701 15.0077 57.2784 14.351C56.3951 13.8738 55.4088 13.6273 54.4086 13.6337Z" fill="url(#paint25_radial_13250_6183)"/>
<path d="M54.4086 13.6337C53.9146 13.6326 53.4227 13.6953 52.9442 13.8202C54.0349 15.4219 54.9608 17.133 55.7082 18.9266C56.0478 19.698 56.2225 20.5337 56.2213 21.3787C56.2197 22.1614 56.0664 22.936 55.7701 23.6584C55.4738 24.3808 55.0407 25.0369 54.4951 25.5891C53.9494 26.1413 53.3021 26.5789 52.5898 26.8769C51.8778 27.1749 51.1151 27.3274 50.345 27.3257C49.304 27.3237 48.2824 27.0401 47.3851 26.5041L46.7819 28.7698C45.6875 32.489 44.9164 33.9268 44.9164 33.9268C44.4917 34.9351 43.9862 35.9063 43.4054 36.8307C43.0043 37.4343 42.4913 38.041 41.7886 38.2716C41.5443 38.3582 41.2831 38.3842 41.0269 38.3475C40.7496 38.3133 40.4819 38.2219 40.2403 38.0789C39.7783 37.7257 39.4108 37.2608 39.1708 36.7264C38.8735 36.1332 38.6068 35.5246 38.3717 34.9032C37.8525 33.6202 37.0503 30.4603 37.0503 30.4603L36.2202 27.1519L35.39 23.8182L34.7993 21.6283C33.2447 15.9247 31.0932 13.1187 31.0932 13.1187C29.4021 10.668 27.0063 8.80916 24.2344 7.79737C21.0196 6.62504 17.6462 7.28546 17.6462 7.28546C12.3607 8.34087 9.58419 12.0253 8.3623 13.7981C8.92154 13.9465 9.45669 14.1764 9.95107 14.4806C10.6126 14.883 11.1844 15.4211 11.63 16.0606C12.4259 17.2108 12.6063 18.6422 12.7648 20.0105C13.0984 22.9759 13.6745 25.9079 14.4873 28.7761C16.2782 22.7406 18.4266 19.9283 18.4266 19.9283C18.6666 19.6252 18.9545 19.3646 19.2785 19.1573C19.4471 19.0521 19.6357 18.9842 19.8319 18.9582C20.1955 18.9227 20.5603 19.0129 20.8672 19.2142C20.9235 19.2518 20.9765 19.294 21.0258 19.3406C21.3066 19.5936 21.5478 19.8888 21.7409 20.2159C22.1882 21.0284 22.5758 21.8733 22.9006 22.7438C23.5722 24.665 24.1443 27.0128 24.1443 27.0128L25.8543 33.8636C27.098 38.5213 28.1519 40.7838 28.1519 40.7838C30.7481 46.8256 34.7185 48.5256 34.7185 48.5256C36.6514 49.5763 38.8011 50.1479 40.9927 50.194C43.0848 50.2519 45.1599 49.7978 47.0431 48.87C49.1079 47.838 50.9192 46.349 52.3442 44.5125C53.3049 43.3812 54.7195 40.6258 54.7195 40.6258C56.2794 37.4668 57.5041 34.1481 58.3728 30.7257C58.9278 28.5936 59.373 26.4335 59.7066 24.2542C59.8745 23.1735 60.0331 22.0865 60.1605 20.9964C60.3194 19.9641 60.2877 18.9107 60.0673 17.8902C60.0209 17.7067 59.964 17.5263 59.8962 17.3498C59.3966 16.0691 58.4701 15.0077 57.2784 14.351C56.3951 13.8738 55.4088 13.6273 54.4086 13.6337Z" fill="url(#paint26_radial_13250_6183)"/>
<path d="M54.4086 13.6337C53.9146 13.6326 53.4227 13.6953 52.9442 13.8202C54.0349 15.4219 54.9608 17.133 55.7082 18.9266C56.0478 19.698 56.2225 20.5337 56.2213 21.3787C56.2197 22.1614 56.0664 22.936 55.7701 23.6584C55.4738 24.3808 55.0407 25.0369 54.4951 25.5891C53.9494 26.1413 53.3021 26.5789 52.5898 26.8769C51.8778 27.1749 51.1151 27.3274 50.345 27.3257C49.304 27.3237 48.2824 27.0401 47.3851 26.5041L46.7819 28.7698C45.6875 32.489 44.9164 33.9268 44.9164 33.9268C44.4917 34.9351 43.9862 35.9063 43.4054 36.8307C43.0043 37.4343 42.4913 38.041 41.7886 38.2716C41.5443 38.3582 41.2831 38.3842 41.0269 38.3475C40.7496 38.3133 40.4819 38.2219 40.2403 38.0789C39.7783 37.7257 39.4108 37.2608 39.1708 36.7264C38.8735 36.1332 38.6068 35.5246 38.3717 34.9032C37.8525 33.6202 37.0503 30.4603 37.0503 30.4603L36.2202 27.1519L35.39 23.8182L34.7993 21.6283C33.2447 15.9247 31.0932 13.1187 31.0932 13.1187C29.4021 10.668 27.0063 8.80916 24.2344 7.79737C21.0196 6.62504 17.6462 7.28546 17.6462 7.28546C12.3607 8.34087 9.58419 12.0253 8.3623 13.7981C8.92154 13.9465 9.45669 14.1764 9.95107 14.4806C10.6126 14.883 11.1844 15.4211 11.63 16.0606C12.4259 17.2108 12.6063 18.6422 12.7648 20.0105C13.0984 22.9759 13.6745 25.9079 14.4873 28.7761C16.2782 22.7406 18.4266 19.9283 18.4266 19.9283C18.6666 19.6252 18.9545 19.3646 19.2785 19.1573C19.4471 19.0521 19.6357 18.9842 19.8319 18.9582C20.1955 18.9227 20.5603 19.0129 20.8672 19.2142C20.9235 19.2518 20.9765 19.294 21.0258 19.3406C21.3066 19.5936 21.5478 19.8888 21.7409 20.2159C22.1882 21.0284 22.5758 21.8733 22.9006 22.7438C23.5722 24.665 24.1443 27.0128 24.1443 27.0128L25.8543 33.8636C27.098 38.5213 28.1519 40.7838 28.1519 40.7838C30.7481 46.8256 34.7185 48.5256 34.7185 48.5256C36.6514 49.5763 38.8011 50.1479 40.9927 50.194C43.0848 50.2519 45.1599 49.7978 47.0431 48.87C49.1079 47.838 50.9192 46.349 52.3442 44.5125C53.3049 43.3812 54.7195 40.6258 54.7195 40.6258C56.2794 37.4668 57.5041 34.1481 58.3728 30.7257C58.9278 28.5936 59.373 26.4335 59.7066 24.2542C59.8745 23.1735 60.0331 22.0865 60.1605 20.9964C60.3194 19.9641 60.2877 18.9107 60.0673 17.8902C60.0209 17.7067 59.964 17.5263 59.8962 17.3498C59.3966 16.0691 58.4701 15.0077 57.2784 14.351C56.3951 13.8738 55.4088 13.6273 54.4086 13.6337Z" fill="url(#paint27_radial_13250_6183)"/>
<path d="M54.4086 13.6337C53.9146 13.6326 53.4227 13.6953 52.9442 13.8202C54.0349 15.4219 54.9608 17.133 55.7082 18.9266C56.0478 19.698 56.2225 20.5337 56.2213 21.3787C56.2197 22.1614 56.0664 22.936 55.7701 23.6584C55.4738 24.3808 55.0407 25.0369 54.4951 25.5891C53.9494 26.1413 53.3021 26.5789 52.5898 26.8769C51.8778 27.1749 51.1151 27.3274 50.345 27.3257C49.304 27.3237 48.2824 27.0401 47.3851 26.5041L46.7819 28.7698C45.6875 32.489 44.9164 33.9268 44.9164 33.9268C44.4917 34.9351 43.9862 35.9063 43.4054 36.8307C43.0043 37.4343 42.4913 38.041 41.7886 38.2716C41.5443 38.3582 41.2831 38.3842 41.0269 38.3475C40.7496 38.3133 40.4819 38.2219 40.2403 38.0789C39.7783 37.7257 39.4108 37.2608 39.1708 36.7264C38.8735 36.1332 38.6068 35.5246 38.3717 34.9032C37.8525 33.6202 37.0503 30.4603 37.0503 30.4603L36.2202 27.1519L35.39 23.8182L34.7993 21.6283C33.2447 15.9247 31.0932 13.1187 31.0932 13.1187C29.4021 10.668 27.0063 8.80916 24.2344 7.79737C21.0196 6.62504 17.6462 7.28546 17.6462 7.28546C12.3607 8.34087 9.58419 12.0253 8.3623 13.7981C8.92154 13.9465 9.45669 14.1764 9.95107 14.4806C10.6126 14.883 11.1844 15.4211 11.63 16.0606C12.4259 17.2108 12.6063 18.6422 12.7648 20.0105C13.0984 22.9759 13.6745 25.9079 14.4873 28.7761C16.2782 22.7406 18.4266 19.9283 18.4266 19.9283C18.6666 19.6252 18.9545 19.3646 19.2785 19.1573C19.4471 19.0521 19.6357 18.9842 19.8319 18.9582C20.1955 18.9227 20.5603 19.0129 20.8672 19.2142C20.9235 19.2518 20.9765 19.294 21.0258 19.3406C21.3066 19.5936 21.5478 19.8888 21.7409 20.2159C22.1882 21.0284 22.5758 21.8733 22.9006 22.7438C23.5722 24.665 24.1443 27.0128 24.1443 27.0128L25.8543 33.8636C27.098 38.5213 28.1519 40.7838 28.1519 40.7838C30.7481 46.8256 34.7185 48.5256 34.7185 48.5256C36.6514 49.5763 38.8011 50.1479 40.9927 50.194C43.0848 50.2519 45.1599 49.7978 47.0431 48.87C49.1079 47.838 50.9192 46.349 52.3442 44.5125C53.3049 43.3812 54.7195 40.6258 54.7195 40.6258C56.2794 37.4668 57.5041 34.1481 58.3728 30.7257C58.9278 28.5936 59.373 26.4335 59.7066 24.2542C59.8745 23.1735 60.0331 22.0865 60.1605 20.9964C60.3194 19.9641 60.2877 18.9107 60.0673 17.8902C60.0209 17.7067 59.964 17.5263 59.8962 17.3498C59.3966 16.0691 58.4701 15.0077 57.2784 14.351C56.3951 13.8738 55.4088 13.6273 54.4086 13.6337Z" fill="url(#paint28_radial_13250_6183)"/>
<path d="M54.4086 13.6337C53.9146 13.6326 53.4227 13.6953 52.9442 13.8202C54.0349 15.4219 54.9608 17.133 55.7082 18.9266C56.0478 19.698 56.2225 20.5337 56.2213 21.3787C56.2197 22.1614 56.0664 22.936 55.7701 23.6584C55.4738 24.3808 55.0407 25.0369 54.4951 25.5891C53.9494 26.1413 53.3021 26.5789 52.5898 26.8769C51.8778 27.1749 51.1151 27.3274 50.345 27.3257C49.304 27.3237 48.2824 27.0401 47.3851 26.5041L46.7819 28.7698C45.6875 32.489 44.9164 33.9268 44.9164 33.9268C44.4917 34.9351 43.9862 35.9063 43.4054 36.8307C43.0043 37.4343 42.4913 38.041 41.7886 38.2716C41.5443 38.3582 41.2831 38.3842 41.0269 38.3475C40.7496 38.3133 40.4819 38.2219 40.2403 38.0789C39.7783 37.7257 39.4108 37.2608 39.1708 36.7264C38.8735 36.1332 38.6068 35.5246 38.3717 34.9032C37.8525 33.6202 37.0503 30.4603 37.0503 30.4603L36.2202 27.1519L35.39 23.8182L34.7993 21.6283C33.2447 15.9247 31.0932 13.1187 31.0932 13.1187C29.4021 10.668 27.0063 8.80916 24.2344 7.79737C21.0196 6.62504 17.6462 7.28546 17.6462 7.28546C12.3607 8.34087 9.58419 12.0253 8.3623 13.7981C8.92154 13.9465 9.45669 14.1764 9.95107 14.4806C10.6126 14.883 11.1844 15.4211 11.63 16.0606C12.4259 17.2108 12.6063 18.6422 12.7648 20.0105C13.0984 22.9759 13.6745 25.9079 14.4873 28.7761C16.2782 22.7406 18.4266 19.9283 18.4266 19.9283C18.6666 19.6252 18.9545 19.3646 19.2785 19.1573C19.4471 19.0521 19.6357 18.9842 19.8319 18.9582C20.1955 18.9227 20.5603 19.0129 20.8672 19.2142C20.9235 19.2518 20.9765 19.294 21.0258 19.3406C21.3066 19.5936 21.5478 19.8888 21.7409 20.2159C22.1882 21.0284 22.5758 21.8733 22.9006 22.7438C23.5722 24.665 24.1443 27.0128 24.1443 27.0128L25.8543 33.8636C27.098 38.5213 28.1519 40.7838 28.1519 40.7838C30.7481 46.8256 34.7185 48.5256 34.7185 48.5256C36.6514 49.5763 38.8011 50.1479 40.9927 50.194C43.0848 50.2519 45.1599 49.7978 47.0431 48.87C49.1079 47.838 50.9192 46.349 52.3442 44.5125C53.3049 43.3812 54.7195 40.6258 54.7195 40.6258C56.2794 37.4668 57.5041 34.1481 58.3728 30.7257C58.9278 28.5936 59.373 26.4335 59.7066 24.2542C59.8745 23.1735 60.0331 22.0865 60.1605 20.9964C60.3194 19.9641 60.2877 18.9107 60.0673 17.8902C60.0209 17.7067 59.964 17.5263 59.8962 17.3498C59.3966 16.0691 58.4701 15.0077 57.2784 14.351C56.3951 13.8738 55.4088 13.6273 54.4086 13.6337Z" fill="url(#paint29_radial_13250_6183)"/>
<path d="M54.4086 13.6337C53.9146 13.6326 53.4227 13.6953 52.9442 13.8202C54.0349 15.4219 54.9608 17.133 55.7082 18.9266C56.0478 19.698 56.2225 20.5337 56.2213 21.3787C56.2197 22.1614 56.0664 22.936 55.7701 23.6584C55.4738 24.3808 55.0407 25.0369 54.4951 25.5891C53.9494 26.1413 53.3021 26.5789 52.5898 26.8769C51.8778 27.1749 51.1151 27.3274 50.345 27.3257C49.304 27.3237 48.2824 27.0401 47.3851 26.5041L46.7819 28.7698C45.6875 32.489 44.9164 33.9268 44.9164 33.9268C44.4917 34.9351 43.9862 35.9063 43.4054 36.8307C43.0043 37.4343 42.4913 38.041 41.7886 38.2716C41.5443 38.3582 41.2831 38.3842 41.0269 38.3475C40.7496 38.3133 40.4819 38.2219 40.2403 38.0789C39.7783 37.7257 39.4108 37.2608 39.1708 36.7264C38.8735 36.1332 38.6068 35.5246 38.3717 34.9032C37.8525 33.6202 37.0503 30.4603 37.0503 30.4603L36.2202 27.1519L35.39 23.8182L34.7993 21.6283C33.2447 15.9247 31.0932 13.1187 31.0932 13.1187C29.4021 10.668 27.0063 8.80916 24.2344 7.79737C21.0196 6.62504 17.6462 7.28546 17.6462 7.28546C12.3607 8.34087 9.58419 12.0253 8.3623 13.7981C8.92154 13.9465 9.45669 14.1764 9.95107 14.4806C10.6126 14.883 11.1844 15.4211 11.63 16.0606C12.4259 17.2108 12.6063 18.6422 12.7648 20.0105C13.0984 22.9759 13.6745 25.9079 14.4873 28.7761C16.2782 22.7406 18.4266 19.9283 18.4266 19.9283C18.6666 19.6252 18.9545 19.3646 19.2785 19.1573C19.4471 19.0521 19.6357 18.9842 19.8319 18.9582C20.1955 18.9227 20.5603 19.0129 20.8672 19.2142C20.9235 19.2518 20.9765 19.294 21.0258 19.3406C21.3066 19.5936 21.5478 19.8888 21.7409 20.2159C22.1882 21.0284 22.5758 21.8733 22.9006 22.7438C23.5722 24.665 24.1443 27.0128 24.1443 27.0128L25.8543 33.8636C27.098 38.5213 28.1519 40.7838 28.1519 40.7838C30.7481 46.8256 34.7185 48.5256 34.7185 48.5256C36.6514 49.5763 38.8011 50.1479 40.9927 50.194C43.0848 50.2519 45.1599 49.7978 47.0431 48.87C49.1079 47.838 50.9192 46.349 52.3442 44.5125C53.3049 43.3812 54.7195 40.6258 54.7195 40.6258C56.2794 37.4668 57.5041 34.1481 58.3728 30.7257C58.9278 28.5936 59.373 26.4335 59.7066 24.2542C59.8745 23.1735 60.0331 22.0865 60.1605 20.9964C60.3194 19.9641 60.2877 18.9107 60.0673 17.8902C60.0209 17.7067 59.964 17.5263 59.8962 17.3498C59.3966 16.0691 58.4701 15.0077 57.2784 14.351C56.3951 13.8738 55.4088 13.6273 54.4086 13.6337Z" fill="url(#paint30_radial_13250_6183)"/>
<path d="M54.4086 13.6337C53.9146 13.6326 53.4227 13.6953 52.9442 13.8202C54.0349 15.4219 54.9608 17.133 55.7082 18.9266C56.0478 19.698 56.2225 20.5337 56.2213 21.3787C56.2197 22.1614 56.0664 22.936 55.7701 23.6584C55.4738 24.3808 55.0407 25.0369 54.4951 25.5891C53.9494 26.1413 53.3021 26.5789 52.5898 26.8769C51.8778 27.1749 51.1151 27.3274 50.345 27.3257C49.304 27.3237 48.2824 27.0401 47.3851 26.5041L46.7819 28.7698C45.6875 32.489 44.9164 33.9268 44.9164 33.9268C44.4917 34.9351 43.9862 35.9063 43.4054 36.8307C43.0043 37.4343 42.4913 38.041 41.7886 38.2716C41.5443 38.3582 41.2831 38.3842 41.0269 38.3475C40.7496 38.3133 40.4819 38.2219 40.2403 38.0789C39.7783 37.7257 39.4108 37.2608 39.1708 36.7264C38.8735 36.1332 38.6068 35.5246 38.3717 34.9032C37.8525 33.6202 37.0503 30.4603 37.0503 30.4603L36.2202 27.1519L35.39 23.8182L34.7993 21.6283C33.2447 15.9247 31.0932 13.1187 31.0932 13.1187C29.4021 10.668 27.0063 8.80916 24.2344 7.79737C21.0196 6.62504 17.6462 7.28546 17.6462 7.28546C12.3607 8.34087 9.58419 12.0253 8.3623 13.7981C8.92154 13.9465 9.45669 14.1764 9.95107 14.4806C10.6126 14.883 11.1844 15.4211 11.63 16.0606C12.4259 17.2108 12.6063 18.6422 12.7648 20.0105C13.0984 22.9759 13.6745 25.9079 14.4873 28.7761C16.2782 22.7406 18.4266 19.9283 18.4266 19.9283C18.6666 19.6252 18.9545 19.3646 19.2785 19.1573C19.4471 19.0521 19.6357 18.9842 19.8319 18.9582C20.1955 18.9227 20.5603 19.0129 20.8672 19.2142C20.9235 19.2518 20.9765 19.294 21.0258 19.3406C21.3066 19.5936 21.5478 19.8888 21.7409 20.2159C22.1882 21.0284 22.5758 21.8733 22.9006 22.7438C23.5722 24.665 24.1443 27.0128 24.1443 27.0128L25.8543 33.8636C27.098 38.5213 28.1519 40.7838 28.1519 40.7838C30.7481 46.8256 34.7185 48.5256 34.7185 48.5256C36.6514 49.5763 38.8011 50.1479 40.9927 50.194C43.0848 50.2519 45.1599 49.7978 47.0431 48.87C49.1079 47.838 50.9192 46.349 52.3442 44.5125C53.3049 43.3812 54.7195 40.6258 54.7195 40.6258C56.2794 37.4668 57.5041 34.1481 58.3728 30.7257C58.9278 28.5936 59.373 26.4335 59.7066 24.2542C59.8745 23.1735 60.0331 22.0865 60.1605 20.9964C60.3194 19.9641 60.2877 18.9107 60.0673 17.8902C60.0209 17.7067 59.964 17.5263 59.8962 17.3498C59.3966 16.0691 58.4701 15.0077 57.2784 14.351C56.3951 13.8738 55.4088 13.6273 54.4086 13.6337Z" fill="url(#paint31_radial_13250_6183)"/>
<path d="M54.4086 13.6337C53.9146 13.6326 53.4227 13.6953 52.9442 13.8202C54.0349 15.4219 54.9608 17.133 55.7082 18.9266C56.0478 19.698 56.2225 20.5337 56.2213 21.3787C56.2197 22.1614 56.0664 22.936 55.7701 23.6584C55.4738 24.3808 55.0407 25.0369 54.4951 25.5891C53.9494 26.1413 53.3021 26.5789 52.5898 26.8769C51.8778 27.1749 51.1151 27.3274 50.345 27.3257C49.304 27.3237 48.2824 27.0401 47.3851 26.5041L46.7819 28.7698C45.6875 32.489 44.9164 33.9268 44.9164 33.9268C44.4917 34.9351 43.9862 35.9063 43.4054 36.8307C43.0043 37.4343 42.4913 38.041 41.7886 38.2716C41.5443 38.3582 41.2831 38.3842 41.0269 38.3475C40.7496 38.3133 40.4819 38.2219 40.2403 38.0789C39.7783 37.7257 39.4108 37.2608 39.1708 36.7264C38.8735 36.1332 38.6068 35.5246 38.3717 34.9032C37.8525 33.6202 37.0503 30.4603 37.0503 30.4603L36.2202 27.1519L35.39 23.8182L34.7993 21.6283C33.2447 15.9247 31.0932 13.1187 31.0932 13.1187C29.4021 10.668 27.0063 8.80916 24.2344 7.79737C21.0196 6.62504 17.6462 7.28546 17.6462 7.28546C12.3607 8.34087 9.58419 12.0253 8.3623 13.7981C8.92154 13.9465 9.45669 14.1764 9.95107 14.4806C10.6126 14.883 11.1844 15.4211 11.63 16.0606C12.4259 17.2108 12.6063 18.6422 12.7648 20.0105C13.0984 22.9759 13.6745 25.9079 14.4873 28.7761C16.2782 22.7406 18.4266 19.9283 18.4266 19.9283C18.6666 19.6252 18.9545 19.3646 19.2785 19.1573C19.4471 19.0521 19.6357 18.9842 19.8319 18.9582C20.1955 18.9227 20.5603 19.0129 20.8672 19.2142C20.9235 19.2518 20.9765 19.294 21.0258 19.3406C21.3066 19.5936 21.5478 19.8888 21.7409 20.2159C22.1882 21.0284 22.5758 21.8733 22.9006 22.7438C23.5722 24.665 24.1443 27.0128 24.1443 27.0128L25.8543 33.8636C27.098 38.5213 28.1519 40.7838 28.1519 40.7838C30.7481 46.8256 34.7185 48.5256 34.7185 48.5256C36.6514 49.5763 38.8011 50.1479 40.9927 50.194C43.0848 50.2519 45.1599 49.7978 47.0431 48.87C49.1079 47.838 50.9192 46.349 52.3442 44.5125C53.3049 43.3812 54.7195 40.6258 54.7195 40.6258C56.2794 37.4668 57.5041 34.1481 58.3728 30.7257C58.9278 28.5936 59.373 26.4335 59.7066 24.2542C59.8745 23.1735 60.0331 22.0865 60.1605 20.9964C60.3194 19.9641 60.2877 18.9107 60.0673 17.8902C60.0209 17.7067 59.964 17.5263 59.8962 17.3498C59.3966 16.0691 58.4701 15.0077 57.2784 14.351C56.3951 13.8738 55.4088 13.6273 54.4086 13.6337Z" fill="url(#paint32_radial_13250_6183)"/>
<path d="M54.4086 13.6337C53.9146 13.6326 53.4227 13.6953 52.9442 13.8202C54.0349 15.4219 54.9608 17.133 55.7082 18.9266C56.0478 19.698 56.2225 20.5337 56.2213 21.3787C56.2197 22.1614 56.0664 22.936 55.7701 23.6584C55.4738 24.3808 55.0407 25.0369 54.4951 25.5891C53.9494 26.1413 53.3021 26.5789 52.5898 26.8769C51.8778 27.1749 51.1151 27.3274 50.345 27.3257C49.304 27.3237 48.2824 27.0401 47.3851 26.5041L46.7819 28.7698C45.6875 32.489 44.9164 33.9268 44.9164 33.9268C44.4917 34.9351 43.9862 35.9063 43.4054 36.8307C43.0043 37.4343 42.4913 38.041 41.7886 38.2716C41.5443 38.3582 41.2831 38.3842 41.0269 38.3475C40.7496 38.3133 40.4819 38.2219 40.2403 38.0789C39.7783 37.7257 39.4108 37.2608 39.1708 36.7264C38.8735 36.1332 38.6068 35.5246 38.3717 34.9032C37.8525 33.6202 37.0503 30.4603 37.0503 30.4603L36.2202 27.1519L35.39 23.8182L34.7993 21.6283C33.2447 15.9247 31.0932 13.1187 31.0932 13.1187C29.4021 10.668 27.0063 8.80916 24.2344 7.79737C21.0196 6.62504 17.6462 7.28546 17.6462 7.28546C12.3607 8.34087 9.58419 12.0253 8.3623 13.7981C8.92154 13.9465 9.45669 14.1764 9.95107 14.4806C10.6126 14.883 11.1844 15.4211 11.63 16.0606C12.4259 17.2108 12.6063 18.6422 12.7648 20.0105C13.0984 22.9759 13.6745 25.9079 14.4873 28.7761C16.2782 22.7406 18.4266 19.9283 18.4266 19.9283C18.6666 19.6252 18.9545 19.3646 19.2785 19.1573C19.4471 19.0521 19.6357 18.9842 19.8319 18.9582C20.1955 18.9227 20.5603 19.0129 20.8672 19.2142C20.9235 19.2518 20.9765 19.294 21.0258 19.3406C21.3066 19.5936 21.5478 19.8888 21.7409 20.2159C22.1882 21.0284 22.5758 21.8733 22.9006 22.7438C23.5722 24.665 24.1443 27.0128 24.1443 27.0128L25.8543 33.8636C27.098 38.5213 28.1519 40.7838 28.1519 40.7838C30.7481 46.8256 34.7185 48.5256 34.7185 48.5256C36.6514 49.5763 38.8011 50.1479 40.9927 50.194C43.0848 50.2519 45.1599 49.7978 47.0431 48.87C49.1079 47.838 50.9192 46.349 52.3442 44.5125C53.3049 43.3812 54.7195 40.6258 54.7195 40.6258C56.2794 37.4668 57.5041 34.1481 58.3728 30.7257C58.9278 28.5936 59.373 26.4335 59.7066 24.2542C59.8745 23.1735 60.0331 22.0865 60.1605 20.9964C60.3194 19.9641 60.2877 18.9107 60.0673 17.8902C60.0209 17.7067 59.964 17.5263 59.8962 17.3498C59.3966 16.0691 58.4701 15.0077 57.2784 14.351C56.3951 13.8738 55.4088 13.6273 54.4086 13.6337Z" fill="url(#paint33_radial_13250_6183)"/>
<path d="M54.4086 13.6337C53.9146 13.6326 53.4227 13.6953 52.9442 13.8202C54.0349 15.4219 54.9608 17.133 55.7082 18.9266C56.0478 19.698 56.2225 20.5337 56.2213 21.3787C56.2197 22.1614 56.0664 22.936 55.7701 23.6584C55.4738 24.3808 55.0407 25.0369 54.4951 25.5891C53.9494 26.1413 53.3021 26.5789 52.5898 26.8769C51.8778 27.1749 51.1151 27.3274 50.345 27.3257C49.304 27.3237 48.2824 27.0401 47.3851 26.5041L46.7819 28.7698C45.6875 32.489 44.9164 33.9268 44.9164 33.9268C44.4917 34.9351 43.9862 35.9063 43.4054 36.8307C43.0043 37.4343 42.4913 38.041 41.7886 38.2716C41.5443 38.3582 41.2831 38.3842 41.0269 38.3475C40.7496 38.3133 40.4819 38.2219 40.2403 38.0789C39.7783 37.7257 39.4108 37.2608 39.1708 36.7264C38.8735 36.1332 38.6068 35.5246 38.3717 34.9032C37.8525 33.6202 37.0503 30.4603 37.0503 30.4603L36.2202 27.1519L35.39 23.8182L34.7993 21.6283C33.2447 15.9247 31.0932 13.1187 31.0932 13.1187C29.4021 10.668 27.0063 8.80916 24.2344 7.79737C21.0196 6.62504 17.6462 7.28546 17.6462 7.28546C12.3607 8.34087 9.58419 12.0253 8.3623 13.7981C8.92154 13.9465 9.45669 14.1764 9.95107 14.4806C10.6126 14.883 11.1844 15.4211 11.63 16.0606C12.4259 17.2108 12.6063 18.6422 12.7648 20.0105C13.0984 22.9759 13.6745 25.9079 14.4873 28.7761C16.2782 22.7406 18.4266 19.9283 18.4266 19.9283C18.6666 19.6252 18.9545 19.3646 19.2785 19.1573C19.4471 19.0521 19.6357 18.9842 19.8319 18.9582C20.1955 18.9227 20.5603 19.0129 20.8672 19.2142C20.9235 19.2518 20.9765 19.294 21.0258 19.3406C21.3066 19.5936 21.5478 19.8888 21.7409 20.2159C22.1882 21.0284 22.5758 21.8733 22.9006 22.7438C23.5722 24.665 24.1443 27.0128 24.1443 27.0128L25.8543 33.8636C27.098 38.5213 28.1519 40.7838 28.1519 40.7838C30.7481 46.8256 34.7185 48.5256 34.7185 48.5256C36.6514 49.5763 38.8011 50.1479 40.9927 50.194C43.0848 50.2519 45.1599 49.7978 47.0431 48.87C49.1079 47.838 50.9192 46.349 52.3442 44.5125C53.3049 43.3812 54.7195 40.6258 54.7195 40.6258C56.2794 37.4668 57.5041 34.1481 58.3728 30.7257C58.9278 28.5936 59.373 26.4335 59.7066 24.2542C59.8745 23.1735 60.0331 22.0865 60.1605 20.9964C60.3194 19.9641 60.2877 18.9107 60.0673 17.8902C60.0209 17.7067 59.964 17.5263 59.8962 17.3498C59.3966 16.0691 58.4701 15.0077 57.2784 14.351C56.3951 13.8738 55.4088 13.6273 54.4086 13.6337Z" fill="url(#paint34_linear_13250_6183)"/>
<path d="M200.374 57.1284H197.575V68.2522H200.374V57.1284Z" fill="white"/>
<path d="M223.061 60.3152C222.335 59.9227 221.522 59.7189 220.697 59.7226C218.875 59.7226 217.612 60.9854 217.612 62.6889C217.612 64.3427 218.822 65.6583 220.697 65.6583C221.522 65.6602 222.334 65.4576 223.061 65.0688V68.0538C222.229 68.3088 221.365 68.4416 220.495 68.4478C217.332 68.4478 214.558 66.2758 214.558 62.6889C214.558 59.3689 217.071 56.9331 220.495 56.9331C221.366 56.9353 222.231 57.069 223.061 57.3303V60.3152Z" fill="white"/>
<path d="M193.695 60.3152C192.969 59.9215 192.156 59.7176 191.331 59.7226C189.508 59.7226 188.249 60.9854 188.249 62.6889C188.249 64.3427 189.455 65.6583 191.331 65.6583C192.155 65.6602 192.968 65.4576 193.695 65.0688V68.0538C192.863 68.3091 191.999 68.4419 191.129 68.4478C187.966 68.4478 185.194 66.2758 185.194 62.6889C185.194 59.3689 187.704 56.9331 191.129 56.9331C191.999 56.9353 192.864 57.069 193.695 57.3303V60.3152Z" fill="white"/>
<path d="M231.91 59.7629C231.525 59.7595 231.143 59.833 230.788 59.9792C230.432 60.1253 230.108 60.3413 229.837 60.614C229.567 60.8868 229.353 61.2107 229.21 61.5672C229.066 61.9234 228.996 62.3051 229.002 62.6889C228.995 63.073 229.065 63.455 229.209 63.8115C229.352 64.1684 229.565 64.4929 229.836 64.766C230.107 65.039 230.431 65.255 230.787 65.4014C231.143 65.5479 231.525 65.6214 231.91 65.618C232.296 65.6214 232.678 65.5479 233.034 65.4014C233.39 65.255 233.714 65.039 233.985 64.766C234.256 64.4932 234.47 64.1687 234.614 63.8118C234.758 63.455 234.828 63.0734 234.821 62.6889C234.828 62.3048 234.757 61.9234 234.613 61.5669C234.469 61.2104 234.255 60.8865 233.984 60.6137C233.713 60.341 233.389 60.1253 233.033 59.9792C232.677 59.833 232.295 59.7595 231.91 59.7629ZM237.801 62.6889C237.801 65.8724 235.341 68.4478 231.91 68.4478C228.48 68.4478 226.022 65.8724 226.022 62.6889C226.022 59.5054 228.483 56.9331 231.91 56.9331C235.338 56.9331 237.801 59.5116 237.801 62.6889Z" fill="white"/>
<path d="M211.044 59.6573C210.324 59.4612 209.584 59.3489 208.838 59.3222C207.713 59.3222 207.1 59.6976 207.1 60.2313C207.1 60.9109 207.927 61.1622 208.388 61.2925L209.165 61.5376C210.991 62.1179 211.824 63.3652 211.824 64.7212C211.824 67.5137 209.361 68.4446 207.206 68.4446C206.186 68.4325 205.17 68.3286 204.17 68.1343V65.5745C205.034 65.8242 205.927 65.9629 206.826 65.9871C208.229 65.9871 208.87 65.5807 208.87 64.9477C208.87 64.3861 208.313 64.0603 207.625 63.84L207.025 63.6476C205.47 63.1542 204.151 62.2358 204.151 60.3927C204.151 58.3138 205.706 56.9175 208.307 56.9175C209.231 56.9302 210.15 57.0487 211.047 57.2712L211.044 59.6573Z" fill="white"/>
<path d="M165.544 68.2151H164.321V57.1162H165.805V61.3082C166.102 60.8744 166.505 60.5238 166.976 60.2892C167.446 60.0546 167.97 59.9438 168.495 59.9677C169.01 59.9432 169.523 60.0434 169.992 60.2597C170.459 60.4757 170.868 60.8015 171.182 61.2089C171.749 61.9495 172.032 62.931 172.032 64.1535C172.032 65.6016 171.646 66.7112 170.875 67.4829C170.548 67.8056 170.159 68.0584 169.731 68.2254C169.303 68.3923 168.846 68.4702 168.386 68.4541C167.876 68.4801 167.368 68.3749 166.91 68.1481C166.453 67.9216 166.061 67.5812 165.774 67.1602L165.544 68.2151ZM170.489 64.1132C170.489 63.1057 170.236 62.3507 169.73 61.8481C169.525 61.6408 169.279 61.4785 169.007 61.3718C168.736 61.2647 168.445 61.2157 168.153 61.2275C167.812 61.2151 167.472 61.2821 167.161 61.4239C166.85 61.5657 166.576 61.7776 166.362 62.0436C165.921 62.6396 165.701 63.37 165.74 64.1101C165.74 65.1371 165.995 65.9252 166.498 66.4682C166.707 66.7019 166.964 66.8868 167.252 67.0097C167.54 67.1325 167.852 67.1903 168.166 67.1788C168.508 67.198 168.849 67.1301 169.158 66.9814C169.466 66.8325 169.732 66.6079 169.929 66.3286C170.343 65.6664 170.539 64.8917 170.489 64.1132Z" fill="white"/>
<path d="M179.974 60.1971L177.175 68.3204C176.805 69.4002 176.447 70.1356 176.108 70.5265C175.917 70.7509 175.679 70.9296 175.41 71.0494C175.141 71.1691 174.848 71.2269 174.553 71.2185C174.23 71.2101 173.908 71.1645 173.595 71.082V69.8718C173.848 69.9389 174.108 69.9752 174.369 69.9804C174.51 69.9873 174.651 69.9609 174.78 69.9032C174.908 69.8455 175.021 69.7583 175.11 69.6484C175.395 69.2001 175.619 68.716 175.775 68.2087H175.296L172.345 60.1909H173.953L176.223 67.0172L178.494 60.1909L179.974 60.1971Z" fill="white"/>
<path d="M113.895 15.9556H120.17L111.047 43.5335H103.848L97.0291 22.7227L90.2101 43.5335H83.1236L74 15.9556H80.4219L86.8956 36.913L93.6886 15.9556H100.508L107.413 37.0252L113.895 15.9556Z" fill="white"/>
<path d="M147.084 31.9589H126.73C126.918 33.381 127.452 34.7354 128.284 35.9035C129.021 36.9257 130.02 37.7306 131.176 38.2341C132.352 38.7424 133.623 38.9982 134.904 38.985C136.325 38.9796 137.734 38.7225 139.065 38.2254C140.445 37.7209 141.733 36.9949 142.88 36.0762L145.875 40.392C144.348 41.7237 142.569 42.7362 140.644 43.3699C138.667 43.9904 136.605 44.2963 134.533 44.2762C131.981 44.3265 129.461 43.7075 127.222 42.4808C125.105 41.2943 123.371 39.5274 122.225 37.3882C120.991 35.0434 120.374 32.4239 120.429 29.7751C120.376 27.1513 120.969 24.5547 122.156 22.2139C123.258 20.0847 124.94 18.3104 127.006 17.0953C129.175 15.8472 131.643 15.2146 134.145 15.2654C136.506 15.2001 138.835 15.8167 140.854 17.0414C142.873 18.2662 144.497 20.047 145.53 22.1707C146.67 24.5192 147.238 27.1045 147.187 29.7147C147.196 30.293 147.161 31.044 147.084 31.9589ZM141.041 27.3842C140.856 25.4942 140.045 23.7201 138.737 22.3433C138.11 21.7556 137.371 21.3 136.564 21.0034C135.758 20.7069 134.9 20.5755 134.041 20.617C133.138 20.5757 132.235 20.7163 131.387 21.0307C130.539 21.345 129.762 21.8267 129.104 22.4469C127.8 23.8035 126.968 25.5437 126.73 27.4101L141.041 27.3842Z" fill="white"/>
<path d="M172.831 17.1124C174.931 18.3543 176.653 20.1447 177.812 22.2913C179.051 24.5792 179.681 27.1473 179.642 29.749C179.681 32.3479 179.051 34.9133 177.812 37.1981C176.653 39.3545 174.924 41.152 172.815 42.3953C170.706 43.6386 168.297 44.2801 165.848 44.2501C164.13 44.2861 162.427 43.9288 160.868 43.2056C159.439 42.5167 158.19 41.5063 157.217 40.2536V43.5336H151.175V4.2168H157.217V19.2357C158.194 17.9915 159.443 16.9876 160.868 16.301C162.425 15.5707 164.129 15.2103 165.848 15.248C168.303 15.2179 170.719 15.8629 172.831 17.1124ZM169.534 37.4052C170.787 36.6347 171.796 35.5242 172.443 34.2029C173.107 32.8105 173.452 31.2873 173.452 29.7447C173.452 28.2021 173.107 26.6789 172.443 25.2865C171.793 23.967 170.785 22.8572 169.534 22.0842C168.204 21.3234 166.699 20.9231 165.167 20.9231C163.634 20.9231 162.129 21.3234 160.799 22.0842C159.545 22.8459 158.528 23.9431 157.864 25.252C157.146 26.6499 156.785 28.2036 156.811 29.7749C156.784 31.3436 157.146 32.8946 157.864 34.2892C158.528 35.5981 159.545 36.6953 160.799 37.457C162.129 38.2178 163.634 38.618 165.167 38.618C166.699 38.618 168.204 38.2178 169.534 37.457V37.4052Z" fill="white"/>
<path d="M209.455 31.9585H189.111C189.299 33.3806 189.832 34.7349 190.664 35.9031C191.402 36.9253 192.401 37.7302 193.556 38.2337C194.733 38.7419 196.003 38.9977 197.285 38.9846C198.706 38.9779 200.114 38.7208 201.445 38.225C202.825 37.7204 204.114 36.9945 205.26 36.0758L208.247 40.3915C206.724 41.725 204.948 42.7378 203.025 43.3694C201.045 43.9895 198.98 44.2953 196.905 44.2758C194.353 44.3233 191.833 43.7044 189.594 42.4804C187.481 41.2911 185.751 39.5246 184.605 37.3878C183.369 35.0436 182.748 32.4242 182.801 29.7747C182.749 27.1509 183.341 24.5544 184.527 22.2134C185.63 20.0843 187.311 18.3099 189.378 17.0949C191.559 15.8286 194.047 15.1866 196.568 15.2391C198.929 15.177 201.257 15.795 203.275 17.0193C205.294 18.2437 206.918 20.0227 207.953 22.1444C209.094 24.4929 209.662 27.0781 209.611 29.6884C209.576 30.2926 209.516 31.0435 209.455 31.9585ZM203.413 27.3838C203.214 25.5059 202.401 23.7462 201.1 22.3774C200.477 21.7865 199.742 21.3263 198.939 21.0238C198.135 20.7214 197.28 20.5829 196.422 20.6166C195.518 20.5742 194.615 20.7145 193.767 21.0289C192.918 21.3433 192.142 21.8254 191.484 22.4465C190.178 23.801 189.345 25.5422 189.111 27.4096L203.413 27.3838Z" fill="white"/>
<path d="M238.156 43.5335H230.758L223.767 33.9438L216.862 43.5335H209.81L220.167 29.4554L209.974 15.9556H217.379L224.112 25.1655L230.845 15.9556H238L227.763 29.4036L238.156 43.5335Z" fill="white"/>
<defs>
<linearGradient id="paint0_linear_13250_6183" x1="3.6552" y1="36.2111" x2="49.9523" y2="17.7981" gradientUnits="userSpaceOnUse">
<stop offset="0.13" stop-color="#1CBBF3"/>
<stop offset="0.34" stop-color="#1F99A5"/>
<stop offset="0.45" stop-color="#209CA6"/>
<stop offset="0.51" stop-color="#24A4AA"/>
<stop offset="0.57" stop-color="#2BB3B0"/>
<stop offset="0.6" stop-color="#30BDB4"/>
<stop offset="0.79" stop-color="#38BA90"/>
<stop offset="1" stop-color="#60F05A"/>
</linearGradient>
<radialGradient id="paint1_radial_13250_6183" cx="0" cy="0" r="1" gradientTransform="matrix(5.95344 21.5549 -16.1184 4.59852 34.3367 25.0885)" gradientUnits="userSpaceOnUse">
<stop stop-color="#227B60"/>
<stop offset="0.14" stop-color="#227B60" stop-opacity="0.81"/>
<stop offset="0.58" stop-color="#227B60" stop-opacity="0.23"/>
<stop offset="0.78" stop-color="#227B60" stop-opacity="0"/>
</radialGradient>
<radialGradient id="paint2_radial_13250_6183" cx="0" cy="0" r="1" gradientTransform="matrix(-0.297865 15.136 -11.3169 -0.230043 37.5316 23.5328)" gradientUnits="userSpaceOnUse">
<stop stop-color="#227B60"/>
<stop offset="0.25" stop-color="#227B60" stop-opacity="0.7"/>
<stop offset="0.71" stop-color="#227B60" stop-opacity="0.2"/>
<stop offset="0.92" stop-color="#227B60" stop-opacity="0"/>
</radialGradient>
<radialGradient id="paint3_radial_13250_6183" cx="0" cy="0" r="1" gradientTransform="matrix(0.33925 14.108 -9.85569 0.244802 36.9571 24.0881)" gradientUnits="userSpaceOnUse">
<stop stop-color="#227B60"/>
<stop offset="0.07" stop-color="#227B60" stop-opacity="0.9"/>
<stop offset="0.34" stop-color="#227B60" stop-opacity="0.51"/>
<stop offset="0.59" stop-color="#227B60" stop-opacity="0.23"/>
<stop offset="0.79" stop-color="#227B60" stop-opacity="0.06"/>
<stop offset="0.92" stop-color="#227B60" stop-opacity="0"/>
</radialGradient>
<radialGradient id="paint4_radial_13250_6183" cx="0" cy="0" r="1" gradientTransform="matrix(0.273922 11.3913 -7.95782 0.197662 37.1921 23.4449)" gradientUnits="userSpaceOnUse">
<stop stop-color="#227B60"/>
<stop offset="0.36" stop-color="#227B60" stop-opacity="0.63"/>
<stop offset="0.92" stop-color="#227B60" stop-opacity="0"/>
</radialGradient>
<radialGradient id="paint5_radial_13250_6183" cx="0" cy="0" r="1" gradientTransform="matrix(0.218469 9.08522 -5.72109 0.142104 37.6812 24.0855)" gradientUnits="userSpaceOnUse">
<stop stop-color="#20735A"/>
<stop offset="0.15" stop-color="#20745A" stop-opacity="0.93"/>
<stop offset="0.38" stop-color="#21755C" stop-opacity="0.74"/>
<stop offset="0.67" stop-color="#21785D" stop-opacity="0.43"/>
<stop offset="1" stop-color="#227B60" stop-opacity="0"/>
</radialGradient>
<radialGradient id="paint6_radial_13250_6183" cx="0" cy="0" r="1" gradientTransform="matrix(13.1654 5.90149 -4.35498 10.0354 38.8791 25.535)" gradientUnits="userSpaceOnUse">
<stop stop-color="#227A61"/>
<stop offset="0.36" stop-color="#227A61" stop-opacity="0.56"/>
<stop offset="0.72" stop-color="#227A61" stop-opacity="0.16"/>
<stop offset="0.9" stop-color="#227A61" stop-opacity="0"/>
</radialGradient>
<radialGradient id="paint7_radial_13250_6183" cx="0" cy="0" r="1" gradientTransform="matrix(15.6666 11.2623 -10.1322 14.5588 35.0655 2.68525)" gradientUnits="userSpaceOnUse">
<stop stop-color="#3CD9C3"/>
<stop offset="0.07" stop-color="#3BD7C1" stop-opacity="0.9"/>
<stop offset="0.41" stop-color="#38CEB9" stop-opacity="0.42"/>
<stop offset="0.65" stop-color="#36C8B4" stop-opacity="0.12"/>
<stop offset="0.76" stop-color="#35C6B2" stop-opacity="0"/>
</radialGradient>
<radialGradient id="paint8_radial_13250_6183" cx="0" cy="0" r="1" gradientTransform="matrix(2782.56 2000.3 -1381.53 1985.11 16669.6 -8848.2)" gradientUnits="userSpaceOnUse">
<stop stop-color="#3CD9C3"/>
<stop offset="0.07" stop-color="#3BD7C1" stop-opacity="0.9"/>
<stop offset="0.41" stop-color="#38CEB9" stop-opacity="0.42"/>
<stop offset="0.65" stop-color="#36C8B4" stop-opacity="0.12"/>
<stop offset="0.76" stop-color="#35C6B2" stop-opacity="0"/>
</radialGradient>
<radialGradient id="paint9_radial_13250_6183" cx="0" cy="0" r="1" gradientTransform="matrix(-3.22121 16.8864 -20.5316 -4.04555 42.7087 28.9017)" gradientUnits="userSpaceOnUse">
<stop stop-color="#237F66" stop-opacity="0.8"/>
<stop offset="0.06" stop-color="#2C8C70" stop-opacity="0.65"/>
<stop offset="0.21" stop-color="#3DA785" stop-opacity="0.37"/>
<stop offset="0.35" stop-color="#4ABA93" stop-opacity="0.17"/>
<stop offset="0.47" stop-color="#51C59C" stop-opacity="0.04"/>
<stop offset="0.56" stop-color="#54C99F" stop-opacity="0"/>
</radialGradient>
<radialGradient id="paint10_radial_13250_6183" cx="0" cy="0" r="1" gradientTransform="matrix(13.9715 -17.423 18.5144 15.3357 32.2262 30.1256)" gradientUnits="userSpaceOnUse">
<stop stop-color="#167C8A"/>
<stop offset="0.04" stop-color="#167C8A" stop-opacity="0.93"/>
<stop offset="0.33" stop-color="#177F8D" stop-opacity="0.43"/>
<stop offset="0.54" stop-color="#17818F" stop-opacity="0.12"/>
<stop offset="0.65" stop-color="#178290" stop-opacity="0"/>
</radialGradient>
<radialGradient id="paint11_radial_13250_6183" cx="0" cy="0" r="1" gradientTransform="matrix(18.3636 -11.5088 8.94585 14.7442 30.8994 32.3961)" gradientUnits="userSpaceOnUse">
<stop offset="0.05" stop-color="#177D87"/>
<stop offset="0.11" stop-color="#177E89" stop-opacity="0.8"/>
<stop offset="0.21" stop-color="#177F8B" stop-opacity="0.52"/>
<stop offset="0.32" stop-color="#17818D" stop-opacity="0.29"/>
<stop offset="0.42" stop-color="#17818F" stop-opacity="0.13"/>
<stop offset="0.51" stop-color="#178290" stop-opacity="0.03"/>
<stop offset="0.6" stop-color="#178290" stop-opacity="0"/>
</radialGradient>
<radialGradient id="paint12_radial_13250_6183" cx="0" cy="0" r="1" gradientTransform="matrix(-8.35454 -9.92799 7.69186 -6.68599 25.5794 32.7742)" gradientUnits="userSpaceOnUse">
<stop offset="0.26" stop-color="#177F8A"/>
<stop offset="0.27" stop-color="#177F8A" stop-opacity="0.98"/>
<stop offset="0.38" stop-color="#17808C" stop-opacity="0.68"/>
<stop offset="0.5" stop-color="#17818D" stop-opacity="0.43"/>
<stop offset="0.62" stop-color="#17818F" stop-opacity="0.24"/>
<stop offset="0.74" stop-color="#17828F" stop-opacity="0.11"/>
<stop offset="0.86" stop-color="#178290" stop-opacity="0.03"/>
<stop offset="1" stop-color="#178290" stop-opacity="0"/>
</radialGradient>
<radialGradient id="paint13_radial_13250_6183" cx="0" cy="0" r="1" gradientTransform="matrix(-11.9702 -1.47005 1.44643 -12.1657 23.2493 35.9855)" gradientUnits="userSpaceOnUse">
<stop stop-color="#13656E"/>
<stop offset="0.11" stop-color="#13646E" stop-opacity="0.73"/>
<stop offset="0.27" stop-color="#12646E" stop-opacity="0.41"/>
<stop offset="0.42" stop-color="#12636E" stop-opacity="0.18"/>
<stop offset="0.55" stop-color="#12636E" stop-opacity="0.05"/>
<stop offset="0.66" stop-color="#12636E" stop-opacity="0"/>
</radialGradient>
<radialGradient id="paint14_radial_13250_6183" cx="0" cy="0" r="1" gradientTransform="matrix(-4.12903 -7.47191 6.17553 -3.52504 22.9329 37.8104)" gradientUnits="userSpaceOnUse">
<stop offset="0.13" stop-color="#146A73"/>
<stop offset="0.24" stop-color="#156F79" stop-opacity="0.79"/>
<stop offset="0.45" stop-color="#167783" stop-opacity="0.45"/>
<stop offset="0.65" stop-color="#167D8A" stop-opacity="0.2"/>
<stop offset="0.82" stop-color="#17818E" stop-opacity="0.05"/>
<stop offset="0.95" stop-color="#178290" stop-opacity="0"/>
</radialGradient>
<radialGradient id="paint15_radial_13250_6183" cx="0" cy="0" r="1" gradientTransform="matrix(4.43636 -6.68272 5.20911 3.57199 22.2759 34.2386)" gradientUnits="userSpaceOnUse">
<stop stop-color="#198E9C"/>
<stop offset="0.1" stop-color="#198E9C" stop-opacity="0.87"/>
<stop offset="0.41" stop-color="#198E9C" stop-opacity="0.5"/>
<stop offset="0.67" stop-color="#198E9C" stop-opacity="0.23"/>
<stop offset="0.88" stop-color="#198E9C" stop-opacity="0.06"/>
<stop offset="1" stop-color="#198E9C" stop-opacity="0"/>
</radialGradient>
<linearGradient id="paint16_linear_13250_6183" x1="6.62444" y1="6.11914" x2="27.2618" y2="24.9127" gradientUnits="userSpaceOnUse">
<stop offset="0.13" stop-color="#2BF9FF"/>
<stop offset="0.27" stop-color="#29F9FF" stop-opacity="0.64"/>
<stop offset="0.4" stop-color="#27FAFF" stop-opacity="0.3"/>
<stop offset="0.49" stop-color="#26FAFF" stop-opacity="0.08"/>
<stop offset="0.54" stop-color="#26FAFF" stop-opacity="0"/>
</linearGradient>
<linearGradient id="paint17_linear_13250_6183" x1="-4.8918" y1="37.3328" x2="18.9184" y2="30.6909" gradientUnits="userSpaceOnUse">
<stop stop-color="#26FAFF"/>
<stop offset="0.06" stop-color="#26FAFF" stop-opacity="0.88"/>
<stop offset="0.24" stop-color="#26FAFF" stop-opacity="0.51"/>
<stop offset="0.39" stop-color="#26FAFF" stop-opacity="0.23"/>
<stop offset="0.5" stop-color="#26FAFF" stop-opacity="0.06"/>
<stop offset="0.55" stop-color="#26FAFF" stop-opacity="0"/>
</linearGradient>
<linearGradient id="paint18_linear_13250_6183" x1="1.40108" y1="36.4923" x2="28.2704" y2="27.0698" gradientUnits="userSpaceOnUse">
<stop stop-color="#21DEFF"/>
<stop offset="0.04" stop-color="#21DEFF" stop-opacity="0.88"/>
<stop offset="0.17" stop-color="#21DEFF" stop-opacity="0.51"/>
<stop offset="0.27" stop-color="#21DEFF" stop-opacity="0.23"/>
<stop offset="0.34" stop-color="#21DEFF" stop-opacity="0.06"/>
<stop offset="0.38" stop-color="#21DEFF" stop-opacity="0"/>
</linearGradient>
<linearGradient id="paint19_linear_13250_6183" x1="26.84" y1="22.4559" x2="42.1688" y2="47.0557" gradientUnits="userSpaceOnUse">
<stop offset="0.62" stop-color="#21DEFF" stop-opacity="0"/>
<stop offset="0.66" stop-color="#21DEFF" stop-opacity="0.06"/>
<stop offset="0.73" stop-color="#21DEFF" stop-opacity="0.23"/>
<stop offset="0.83" stop-color="#21DEFF" stop-opacity="0.51"/>
<stop offset="0.96" stop-color="#21DEFF" stop-opacity="0.88"/>
<stop offset="1" stop-color="#21DEFF"/>
</linearGradient>
<linearGradient id="paint20_linear_13250_6183" x1="43.5051" y1="31.7305" x2="41.074" y2="20.0701" gradientUnits="userSpaceOnUse">
<stop stop-color="#44B044"/>
<stop offset="0.11" stop-color="#44B044" stop-opacity="0.8"/>
<stop offset="0.27" stop-color="#44B044" stop-opacity="0.52"/>
<stop offset="0.43" stop-color="#44B044" stop-opacity="0.29"/>
<stop offset="0.58" stop-color="#44B044" stop-opacity="0.13"/>
<stop offset="0.7" stop-color="#44B044" stop-opacity="0.03"/>
<stop offset="0.8" stop-color="#44B044" stop-opacity="0"/>
</linearGradient>
<linearGradient id="paint21_linear_13250_6183" x1="10.6444" y1="19.6281" x2="60.37" y2="35.8254" gradientUnits="userSpaceOnUse">
<stop stop-color="#3066FB"/>
<stop offset="0.38" stop-color="#2F64F7"/>
<stop offset="0.74" stop-color="#2857D9"/>
<stop offset="1" stop-color="#3C7EFF"/>
</linearGradient>
<radialGradient id="paint22_radial_13250_6183" cx="0" cy="0" r="1" gradientTransform="matrix(-4.00512 26.6322 -17.2948 -2.68656 45.6356 27.2401)" gradientUnits="userSpaceOnUse">
<stop stop-color="#1A3D9C"/>
<stop offset="0.4" stop-color="#1A3D9C" stop-opacity="0.42"/>
<stop offset="0.7" stop-color="#1A3D9C" stop-opacity="0"/>
</radialGradient>
<radialGradient id="paint23_radial_13250_6183" cx="0" cy="0" r="1" gradientTransform="matrix(-492.659 3275.96 -1738.3 -270.027 7799.63 13117)" gradientUnits="userSpaceOnUse">
<stop stop-color="#1A3D9C"/>
<stop offset="0.4" stop-color="#1A3D9C" stop-opacity="0.42"/>
<stop offset="0.7" stop-color="#1A3D9C" stop-opacity="0"/>
</radialGradient>
<radialGradient id="paint24_radial_13250_6183" cx="0" cy="0" r="1" gradientTransform="matrix(-581.742 3902.24 -1586.5 -244.303 5892.37 12544.4)" gradientUnits="userSpaceOnUse">
<stop stop-color="#1A3D9C"/>
<stop offset="0.4" stop-color="#1A3D9C" stop-opacity="0.42"/>
<stop offset="0.7" stop-color="#1A3D9C" stop-opacity="0"/>
</radialGradient>
<radialGradient id="paint25_radial_13250_6183" cx="0" cy="0" r="1" gradientTransform="matrix(2.78814 23.378 -16.0495 1.97716 41.4177 25.4256)" gradientUnits="userSpaceOnUse">
<stop stop-color="#1A3D9C"/>
<stop offset="0.16" stop-color="#1A3D9C" stop-opacity="0.69"/>
<stop offset="0.33" stop-color="#1A3D9C" stop-opacity="0.4"/>
<stop offset="0.49" stop-color="#1A3D9C" stop-opacity="0.18"/>
<stop offset="0.61" stop-color="#1A3D9C" stop-opacity="0.05"/>
<stop offset="0.7" stop-color="#1A3D9C" stop-opacity="0"/>
</radialGradient>
<radialGradient id="paint26_radial_13250_6183" cx="0" cy="0" r="1" gradientTransform="matrix(5.89831 21.823 -14.6011 4.07637 46.5229 29.8354)" gradientUnits="userSpaceOnUse">
<stop stop-color="#18388F"/>
<stop offset="0.37" stop-color="#193B96" stop-opacity="0.45"/>
<stop offset="0.7" stop-color="#1A3D9C" stop-opacity="0"/>
</radialGradient>
<radialGradient id="paint27_radial_13250_6183" cx="0" cy="0" r="1" gradientTransform="matrix(2.74244 10.1467 -9.48442 2.64788 44.3049 35.8674)" gradientUnits="userSpaceOnUse">
<stop stop-color="#18388F"/>
<stop offset="0.09" stop-color="#183992" stop-opacity="0.78"/>
<stop offset="0.22" stop-color="#193B96" stop-opacity="0.5"/>
<stop offset="0.35" stop-color="#193C98" stop-opacity="0.28"/>
<stop offset="0.47" stop-color="#1A3C9A" stop-opacity="0.13"/>
<stop offset="0.59" stop-color="#1A3D9C" stop-opacity="0.03"/>
<stop offset="0.7" stop-color="#1A3D9C" stop-opacity="0"/>
</radialGradient>
<radialGradient id="paint28_radial_13250_6183" cx="0" cy="0" r="1" gradientTransform="matrix(2.74244 10.1467 -9.48442 2.64788 44.5533 37.6624)" gradientUnits="userSpaceOnUse">
<stop stop-color="#1A3D9C" stop-opacity="0.8"/>
<stop offset="0.01" stop-color="#1A3D9C" stop-opacity="0.78"/>
<stop offset="0.24" stop-color="#1A3D9C" stop-opacity="0.45"/>
<stop offset="0.44" stop-color="#1A3D9C" stop-opacity="0.2"/>
<stop offset="0.6" stop-color="#1A3D9C" stop-opacity="0.05"/>
<stop offset="0.7" stop-color="#1A3D9C" stop-opacity="0"/>
</radialGradient>
<radialGradient id="paint29_radial_13250_6183" cx="0" cy="0" r="1" gradientTransform="matrix(9.6435 23.1204 -15.096 6.50391 17.7611 31.4642)" gradientUnits="userSpaceOnUse">
<stop stop-color="#1A3D9C"/>
<stop offset="0.4" stop-color="#1A3D9C" stop-opacity="0.56"/>
<stop offset="0.48" stop-color="#1A3D9C" stop-opacity="0.43"/>
<stop offset="0.69" stop-color="#1A3D9C" stop-opacity="0.12"/>
<stop offset="0.79" stop-color="#1A3D9C" stop-opacity="0"/>
</radialGradient>
<radialGradient id="paint30_radial_13250_6183" cx="0" cy="0" r="1" gradientTransform="matrix(4.40179 18.0812 -11.7452 2.95349 16.1798 25.5798)" gradientUnits="userSpaceOnUse">
<stop stop-color="#1A3D9C"/>
<stop offset="0.06" stop-color="#1A3D9C" stop-opacity="0.88"/>
<stop offset="0.21" stop-color="#1A3D9C" stop-opacity="0.61"/>
<stop offset="0.36" stop-color="#1A3D9C" stop-opacity="0.39"/>
<stop offset="0.51" stop-color="#1A3D9C" stop-opacity="0.22"/>
<stop offset="0.67" stop-color="#1A3D9C" stop-opacity="0.1"/>
<stop offset="0.83" stop-color="#1A3D9C" stop-opacity="0.02"/>
<stop offset="1" stop-color="#1A3D9C" stop-opacity="0"/>
</radialGradient>
<radialGradient id="paint31_radial_13250_6183" cx="0" cy="0" r="1" gradientTransform="matrix(4.40179 18.0812 -11.7452 2.95349 16.1798 25.5798)" gradientUnits="userSpaceOnUse">
<stop stop-color="#1B3E9E"/>
<stop offset="0.06" stop-color="#1B3E9E" stop-opacity="0.87"/>
<stop offset="0.21" stop-color="#1B3E9D" stop-opacity="0.61"/>
<stop offset="0.36" stop-color="#1A3D9D" stop-opacity="0.39"/>
<stop offset="0.52" stop-color="#1A3D9C" stop-opacity="0.22"/>
<stop offset="0.67" stop-color="#1A3D9C" stop-opacity="0.1"/>
<stop offset="0.83" stop-color="#1A3D9C" stop-opacity="0.02"/>
<stop offset="1" stop-color="#1A3D9C" stop-opacity="0"/>
</radialGradient>
<radialGradient id="paint32_radial_13250_6183" cx="0" cy="0" r="1" gradientTransform="matrix(3.36757 13.8329 -8.98556 2.25955 16.8747 23.7638)" gradientUnits="userSpaceOnUse">
<stop stop-color="#183991"/>
<stop offset="0.03" stop-color="#183992" stop-opacity="0.95"/>
<stop offset="0.18" stop-color="#193A95" stop-opacity="0.66"/>
<stop offset="0.34" stop-color="#193B97" stop-opacity="0.42"/>
<stop offset="0.5" stop-color="#1A3C99" stop-opacity="0.24"/>
<stop offset="0.66" stop-color="#1A3D9B" stop-opacity="0.1"/>
<stop offset="0.82" stop-color="#1A3D9C" stop-opacity="0.03"/>
<stop offset="1" stop-color="#1A3D9C" stop-opacity="0"/>
</radialGradient>
<radialGradient id="paint33_radial_13250_6183" cx="0" cy="0" r="1" gradientTransform="matrix(0.55327 11.2462 -9.74088 0.494999 19.5005 25.6446)" gradientUnits="userSpaceOnUse">
<stop offset="0.04" stop-color="#2453D6" stop-opacity="0.6"/>
<stop offset="0.2" stop-color="#2453D6" stop-opacity="0.49"/>
<stop offset="0.52" stop-color="#2453D6" stop-opacity="0.2"/>
<stop offset="0.73" stop-color="#2453D6" stop-opacity="0"/>
</radialGradient>
<linearGradient id="paint34_linear_13250_6183" x1="42.852" y1="-0.942983" x2="29.9787" y2="30.3658" gradientUnits="userSpaceOnUse">
<stop stop-color="#3774FF"/>
<stop offset="0.05" stop-color="#3774FF" stop-opacity="0.91"/>
<stop offset="0.16" stop-color="#3774FF" stop-opacity="0.66"/>
<stop offset="0.32" stop-color="#3774FF" stop-opacity="0.28"/>
<stop offset="0.43" stop-color="#3774FF" stop-opacity="0"/>
</linearGradient>
</defs>
</svg>
