<svg width="105" height="77" viewBox="0 0 105 77" fill="none" xmlns="http://www.w3.org/2000/svg">
<path d="M23.9363 38.5822C25.0906 42.706 26.6636 46.6967 28.6299 50.49C29.5278 52.1695 30.4258 53.849 32.0564 54.9071C32.339 55.0875 32.6503 55.2164 32.9764 55.2878C35.3783 55.8085 36.695 53.8434 37.5434 52.0463C38.8094 49.2268 39.8323 46.3009 40.6008 43.3016C40.7496 42.7418 40.8928 42.1819 41.036 41.6221C41.3114 40.5528 41.5869 39.4723 41.8238 38.3918L52.4229 9.61597C54.6246 6.63605 57.4789 4.218 60.7595 2.55344C64.0401 0.888874 67.6572 0.0235087 71.324 0.0258991C76.6043 -0.00713636 81.7381 1.78985 85.8786 5.12046C92.8088 10.4501 96.935 20.9472 96.935 20.9472C97.5366 22.3138 97.8462 23.7945 97.844 25.2915C97.8412 26.6781 97.5696 28.0505 97.0446 29.3304C96.5202 30.6104 95.7522 31.7727 94.7854 32.7511C93.8186 33.7295 92.6716 34.5047 91.4101 35.0326C90.1485 35.5605 88.7966 35.8307 87.4321 35.8277C85.9149 35.8267 84.4159 35.4867 83.0426 34.8317C81.6686 34.1768 80.4534 33.2229 79.4827 32.0376L79.3835 31.9144C78.7175 31.0006 78.1622 30.0081 77.7309 28.9585C77.1596 27.6411 76.5194 26.3553 75.8138 25.1068C75.4391 24.463 75.0205 23.8527 74.5908 23.2481C74.2195 22.7076 73.7804 22.2184 73.2852 21.7925C72.3101 20.9919 71.0816 20.6728 69.9357 21.3614C69.8806 21.3936 69.8272 21.4292 69.776 21.4678C68.5971 22.2908 67.7707 23.9535 67.1978 25.2299C65.5451 28.8465 64.5976 32.5527 63.6611 36.3596C63.4848 37.093 63.3085 37.8264 63.1432 38.5654L58.7636 53.1212L52.5882 66.9604C50.3774 69.8599 47.5479 72.2118 44.3131 73.8392C41.0783 75.4661 37.5223 76.3266 33.9129 76.3546C18.9121 76.6793 11.7946 62.9184 11.7946 62.9184C3.25027 48.6761 0.732688 29.8878 0.132214 23.8807C0.00550849 22.6323 7.17784e-07 21.8877 7.17784e-07 21.8877C-0.000695005 20.0061 0.504377 18.16 1.46069 16.5489C2.417 14.9377 3.78822 13.6225 5.4263 12.7455C7.12004 11.8733 9.00487 11.4552 10.9022 11.5306C12.6674 11.6056 14.3848 12.1354 15.8933 13.0702C17.0654 13.7831 18.0786 14.7365 18.8681 15.8694C20.2783 17.9072 20.5979 20.4433 20.8788 22.8674C21.4622 28.1836 22.4849 33.4404 23.9363 38.5822Z" fill="url(#paint0_linear_13250_6198)"/>
<path d="M23.9363 38.5822C25.0906 42.706 26.6636 46.6967 28.6299 50.49C29.5278 52.1695 30.4258 53.849 32.0564 54.9071C32.339 55.0875 32.6503 55.2164 32.9764 55.2878C35.3783 55.8085 36.695 53.8434 37.5434 52.0463C38.8094 49.2268 39.8323 46.3009 40.6008 43.3016C40.7496 42.7418 40.8928 42.1819 41.036 41.6221C41.3114 40.5528 41.5869 39.4723 41.8238 38.3918L52.4229 9.61597C54.6246 6.63605 57.4789 4.218 60.7595 2.55344C64.0401 0.888874 67.6572 0.0235087 71.324 0.0258991C76.6043 -0.00713636 81.7381 1.78985 85.8786 5.12046C92.8088 10.4501 96.935 20.9472 96.935 20.9472C97.5366 22.3138 97.8462 23.7945 97.844 25.2915C97.8412 26.6781 97.5696 28.0505 97.0446 29.3304C96.5202 30.6104 95.7522 31.7727 94.7854 32.7511C93.8186 33.7295 92.6716 34.5047 91.4101 35.0326C90.1485 35.5605 88.7966 35.8307 87.4321 35.8277C85.9149 35.8267 84.4159 35.4867 83.0426 34.8317C81.6686 34.1768 80.4534 33.2229 79.4827 32.0376L79.3835 31.9144C78.7175 31.0006 78.1622 30.0081 77.7309 28.9585C77.1596 27.6411 76.5194 26.3553 75.8138 25.1068C75.4391 24.463 75.0205 23.8527 74.5908 23.2481C74.2195 22.7076 73.7804 22.2184 73.2852 21.7925C72.3101 20.9919 71.0816 20.6728 69.9357 21.3614C69.8806 21.3936 69.8272 21.4292 69.776 21.4678C68.5971 22.2908 67.7707 23.9535 67.1978 25.2299C65.5451 28.8465 64.5976 32.5527 63.6611 36.3596C63.4848 37.093 63.3085 37.8264 63.1432 38.5654L58.7636 53.1212L52.5882 66.9604C50.3774 69.8599 47.5479 72.2118 44.3131 73.8392C41.0783 75.4661 37.5223 76.3266 33.9129 76.3546C18.9121 76.6793 11.7946 62.9184 11.7946 62.9184C3.25027 48.6761 0.732688 29.8878 0.132214 23.8807C0.00550849 22.6323 7.17784e-07 21.8877 7.17784e-07 21.8877C-0.000695005 20.0061 0.504377 18.16 1.46069 16.5489C2.417 14.9377 3.78822 13.6225 5.4263 12.7455C7.12004 11.8733 9.00487 11.4552 10.9022 11.5306C12.6674 11.6056 14.3848 12.1354 15.8933 13.0702C17.0654 13.7831 18.0786 14.7365 18.8681 15.8694C20.2783 17.9072 20.5979 20.4433 20.8788 22.8674C21.4622 28.1836 22.4849 33.4404 23.9363 38.5822Z" fill="url(#paint1_radial_13250_6198)"/>
<path d="M23.9363 38.5822C25.0906 42.706 26.6636 46.6967 28.6299 50.49C29.5278 52.1695 30.4258 53.849 32.0564 54.9071C32.339 55.0875 32.6503 55.2164 32.9764 55.2878C35.3783 55.8085 36.695 53.8434 37.5434 52.0463C38.8094 49.2268 39.8323 46.3009 40.6008 43.3016C40.7496 42.7418 40.8928 42.1819 41.036 41.6221C41.3114 40.5528 41.5869 39.4723 41.8238 38.3918L52.4229 9.61597C54.6246 6.63605 57.4789 4.218 60.7595 2.55344C64.0401 0.888874 67.6572 0.0235087 71.324 0.0258991C76.6043 -0.00713636 81.7381 1.78985 85.8786 5.12046C92.8088 10.4501 96.935 20.9472 96.935 20.9472C97.5366 22.3138 97.8462 23.7945 97.844 25.2915C97.8412 26.6781 97.5696 28.0505 97.0446 29.3304C96.5202 30.6104 95.7522 31.7727 94.7854 32.7511C93.8186 33.7295 92.6716 34.5047 91.4101 35.0326C90.1485 35.5605 88.7966 35.8307 87.4321 35.8277C85.9149 35.8267 84.4159 35.4867 83.0426 34.8317C81.6686 34.1768 80.4534 33.2229 79.4827 32.0376L79.3835 31.9144C78.7175 31.0006 78.1622 30.0081 77.7309 28.9585C77.1596 27.6411 76.5194 26.3553 75.8138 25.1068C75.4391 24.463 75.0205 23.8527 74.5908 23.2481C74.2195 22.7076 73.7804 22.2184 73.2852 21.7925C72.3101 20.9919 71.0816 20.6728 69.9357 21.3614C69.8806 21.3936 69.8272 21.4292 69.776 21.4678C68.5971 22.2908 67.7707 23.9535 67.1978 25.2299C65.5451 28.8465 64.5976 32.5527 63.6611 36.3596C63.4848 37.093 63.3085 37.8264 63.1432 38.5654L58.7636 53.1212L52.5882 66.9604C50.3774 69.8599 47.5479 72.2118 44.3131 73.8392C41.0783 75.4661 37.5223 76.3266 33.9129 76.3546C18.9121 76.6793 11.7946 62.9184 11.7946 62.9184C3.25027 48.6761 0.732688 29.8878 0.132214 23.8807C0.00550849 22.6323 7.17784e-07 21.8877 7.17784e-07 21.8877C-0.000695005 20.0061 0.504377 18.16 1.46069 16.5489C2.417 14.9377 3.78822 13.6225 5.4263 12.7455C7.12004 11.8733 9.00487 11.4552 10.9022 11.5306C12.6674 11.6056 14.3848 12.1354 15.8933 13.0702C17.0654 13.7831 18.0786 14.7365 18.8681 15.8694C20.2783 17.9072 20.5979 20.4433 20.8788 22.8674C21.4622 28.1836 22.4849 33.4404 23.9363 38.5822Z" fill="url(#paint2_radial_13250_6198)"/>
<path d="M23.9363 38.5822C25.0906 42.706 26.6636 46.6967 28.6299 50.49C29.5278 52.1695 30.4258 53.849 32.0564 54.9071C32.339 55.0875 32.6503 55.2164 32.9764 55.2878C35.3783 55.8085 36.695 53.8434 37.5434 52.0463C38.8094 49.2268 39.8323 46.3009 40.6008 43.3016C40.7496 42.7418 40.8928 42.1819 41.036 41.6221C41.3114 40.5528 41.5869 39.4723 41.8238 38.3918L52.4229 9.61597C54.6246 6.63605 57.4789 4.218 60.7595 2.55344C64.0401 0.888874 67.6572 0.0235087 71.324 0.0258991C76.6043 -0.00713636 81.7381 1.78985 85.8786 5.12046C92.8088 10.4501 96.935 20.9472 96.935 20.9472C97.5366 22.3138 97.8462 23.7945 97.844 25.2915C97.8412 26.6781 97.5696 28.0505 97.0446 29.3304C96.5202 30.6104 95.7522 31.7727 94.7854 32.7511C93.8186 33.7295 92.6716 34.5047 91.4101 35.0326C90.1485 35.5605 88.7966 35.8307 87.4321 35.8277C85.9149 35.8267 84.4159 35.4867 83.0426 34.8317C81.6686 34.1768 80.4534 33.2229 79.4827 32.0376L79.3835 31.9144C78.7175 31.0006 78.1622 30.0081 77.7309 28.9585C77.1596 27.6411 76.5194 26.3553 75.8138 25.1068C75.4391 24.463 75.0205 23.8527 74.5908 23.2481C74.2195 22.7076 73.7804 22.2184 73.2852 21.7925C72.3101 20.9919 71.0816 20.6728 69.9357 21.3614C69.8806 21.3936 69.8272 21.4292 69.776 21.4678C68.5971 22.2908 67.7707 23.9535 67.1978 25.2299C65.5451 28.8465 64.5976 32.5527 63.6611 36.3596C63.4848 37.093 63.3085 37.8264 63.1432 38.5654L58.7636 53.1212L52.5882 66.9604C50.3774 69.8599 47.5479 72.2118 44.3131 73.8392C41.0783 75.4661 37.5223 76.3266 33.9129 76.3546C18.9121 76.6793 11.7946 62.9184 11.7946 62.9184C3.25027 48.6761 0.732688 29.8878 0.132214 23.8807C0.00550849 22.6323 7.17784e-07 21.8877 7.17784e-07 21.8877C-0.000695005 20.0061 0.504377 18.16 1.46069 16.5489C2.417 14.9377 3.78822 13.6225 5.4263 12.7455C7.12004 11.8733 9.00487 11.4552 10.9022 11.5306C12.6674 11.6056 14.3848 12.1354 15.8933 13.0702C17.0654 13.7831 18.0786 14.7365 18.8681 15.8694C20.2783 17.9072 20.5979 20.4433 20.8788 22.8674C21.4622 28.1836 22.4849 33.4404 23.9363 38.5822Z" fill="url(#paint3_radial_13250_6198)"/>
<path d="M23.9363 38.5822C25.0906 42.706 26.6636 46.6967 28.6299 50.49C29.5278 52.1695 30.4258 53.849 32.0564 54.9071C32.339 55.0875 32.6503 55.2164 32.9764 55.2878C35.3783 55.8085 36.695 53.8434 37.5434 52.0463C38.8094 49.2268 39.8323 46.3009 40.6008 43.3016C40.7496 42.7418 40.8928 42.1819 41.036 41.6221C41.3114 40.5528 41.5869 39.4723 41.8238 38.3918L52.4229 9.61597C54.6246 6.63605 57.4789 4.218 60.7595 2.55344C64.0401 0.888874 67.6572 0.0235087 71.324 0.0258991C76.6043 -0.00713636 81.7381 1.78985 85.8786 5.12046C92.8088 10.4501 96.935 20.9472 96.935 20.9472C97.5366 22.3138 97.8462 23.7945 97.844 25.2915C97.8412 26.6781 97.5696 28.0505 97.0446 29.3304C96.5202 30.6104 95.7522 31.7727 94.7854 32.7511C93.8186 33.7295 92.6716 34.5047 91.4101 35.0326C90.1485 35.5605 88.7966 35.8307 87.4321 35.8277C85.9149 35.8267 84.4159 35.4867 83.0426 34.8317C81.6686 34.1768 80.4534 33.2229 79.4827 32.0376L79.3835 31.9144C78.7175 31.0006 78.1622 30.0081 77.7309 28.9585C77.1596 27.6411 76.5194 26.3553 75.8138 25.1068C75.4391 24.463 75.0205 23.8527 74.5908 23.2481C74.2195 22.7076 73.7804 22.2184 73.2852 21.7925C72.3101 20.9919 71.0816 20.6728 69.9357 21.3614C69.8806 21.3936 69.8272 21.4292 69.776 21.4678C68.5971 22.2908 67.7707 23.9535 67.1978 25.2299C65.5451 28.8465 64.5976 32.5527 63.6611 36.3596C63.4848 37.093 63.3085 37.8264 63.1432 38.5654L58.7636 53.1212L52.5882 66.9604C50.3774 69.8599 47.5479 72.2118 44.3131 73.8392C41.0783 75.4661 37.5223 76.3266 33.9129 76.3546C18.9121 76.6793 11.7946 62.9184 11.7946 62.9184C3.25027 48.6761 0.732688 29.8878 0.132214 23.8807C0.00550849 22.6323 7.17784e-07 21.8877 7.17784e-07 21.8877C-0.000695005 20.0061 0.504377 18.16 1.46069 16.5489C2.417 14.9377 3.78822 13.6225 5.4263 12.7455C7.12004 11.8733 9.00487 11.4552 10.9022 11.5306C12.6674 11.6056 14.3848 12.1354 15.8933 13.0702C17.0654 13.7831 18.0786 14.7365 18.8681 15.8694C20.2783 17.9072 20.5979 20.4433 20.8788 22.8674C21.4622 28.1836 22.4849 33.4404 23.9363 38.5822Z" fill="url(#paint4_radial_13250_6198)"/>
<path d="M23.9363 38.5822C25.0906 42.706 26.6636 46.6967 28.6299 50.49C29.5278 52.1695 30.4258 53.849 32.0564 54.9071C32.339 55.0875 32.6503 55.2164 32.9764 55.2878C35.3783 55.8085 36.695 53.8434 37.5434 52.0463C38.8094 49.2268 39.8323 46.3009 40.6008 43.3016C40.7496 42.7418 40.8928 42.1819 41.036 41.6221C41.3114 40.5528 41.5869 39.4723 41.8238 38.3918L52.4229 9.61597C54.6246 6.63605 57.4789 4.218 60.7595 2.55344C64.0401 0.888874 67.6572 0.0235087 71.324 0.0258991C76.6043 -0.00713636 81.7381 1.78985 85.8786 5.12046C92.8088 10.4501 96.935 20.9472 96.935 20.9472C97.5366 22.3138 97.8462 23.7945 97.844 25.2915C97.8412 26.6781 97.5696 28.0505 97.0446 29.3304C96.5202 30.6104 95.7522 31.7727 94.7854 32.7511C93.8186 33.7295 92.6716 34.5047 91.4101 35.0326C90.1485 35.5605 88.7966 35.8307 87.4321 35.8277C85.9149 35.8267 84.4159 35.4867 83.0426 34.8317C81.6686 34.1768 80.4534 33.2229 79.4827 32.0376L79.3835 31.9144C78.7175 31.0006 78.1622 30.0081 77.7309 28.9585C77.1596 27.6411 76.5194 26.3553 75.8138 25.1068C75.4391 24.463 75.0205 23.8527 74.5908 23.2481C74.2195 22.7076 73.7804 22.2184 73.2852 21.7925C72.3101 20.9919 71.0816 20.6728 69.9357 21.3614C69.8806 21.3936 69.8272 21.4292 69.776 21.4678C68.5971 22.2908 67.7707 23.9535 67.1978 25.2299C65.5451 28.8465 64.5976 32.5527 63.6611 36.3596C63.4848 37.093 63.3085 37.8264 63.1432 38.5654L58.7636 53.1212L52.5882 66.9604C50.3774 69.8599 47.5479 72.2118 44.3131 73.8392C41.0783 75.4661 37.5223 76.3266 33.9129 76.3546C18.9121 76.6793 11.7946 62.9184 11.7946 62.9184C3.25027 48.6761 0.732688 29.8878 0.132214 23.8807C0.00550849 22.6323 7.17784e-07 21.8877 7.17784e-07 21.8877C-0.000695005 20.0061 0.504377 18.16 1.46069 16.5489C2.417 14.9377 3.78822 13.6225 5.4263 12.7455C7.12004 11.8733 9.00487 11.4552 10.9022 11.5306C12.6674 11.6056 14.3848 12.1354 15.8933 13.0702C17.0654 13.7831 18.0786 14.7365 18.8681 15.8694C20.2783 17.9072 20.5979 20.4433 20.8788 22.8674C21.4622 28.1836 22.4849 33.4404 23.9363 38.5822Z" fill="url(#paint5_radial_13250_6198)"/>
<path d="M23.9363 38.5822C25.0906 42.706 26.6636 46.6967 28.6299 50.49C29.5278 52.1695 30.4258 53.849 32.0564 54.9071C32.339 55.0875 32.6503 55.2164 32.9764 55.2878C35.3783 55.8085 36.695 53.8434 37.5434 52.0463C38.8094 49.2268 39.8323 46.3009 40.6008 43.3016C40.7496 42.7418 40.8928 42.1819 41.036 41.6221C41.3114 40.5528 41.5869 39.4723 41.8238 38.3918L52.4229 9.61597C54.6246 6.63605 57.4789 4.218 60.7595 2.55344C64.0401 0.888874 67.6572 0.0235087 71.324 0.0258991C76.6043 -0.00713636 81.7381 1.78985 85.8786 5.12046C92.8088 10.4501 96.935 20.9472 96.935 20.9472C97.5366 22.3138 97.8462 23.7945 97.844 25.2915C97.8412 26.6781 97.5696 28.0505 97.0446 29.3304C96.5202 30.6104 95.7522 31.7727 94.7854 32.7511C93.8186 33.7295 92.6716 34.5047 91.4101 35.0326C90.1485 35.5605 88.7966 35.8307 87.4321 35.8277C85.9149 35.8267 84.4159 35.4867 83.0426 34.8317C81.6686 34.1768 80.4534 33.2229 79.4827 32.0376L79.3835 31.9144C78.7175 31.0006 78.1622 30.0081 77.7309 28.9585C77.1596 27.6411 76.5194 26.3553 75.8138 25.1068C75.4391 24.463 75.0205 23.8527 74.5908 23.2481C74.2195 22.7076 73.7804 22.2184 73.2852 21.7925C72.3101 20.9919 71.0816 20.6728 69.9357 21.3614C69.8806 21.3936 69.8272 21.4292 69.776 21.4678C68.5971 22.2908 67.7707 23.9535 67.1978 25.2299C65.5451 28.8465 64.5976 32.5527 63.6611 36.3596C63.4848 37.093 63.3085 37.8264 63.1432 38.5654L58.7636 53.1212L52.5882 66.9604C50.3774 69.8599 47.5479 72.2118 44.3131 73.8392C41.0783 75.4661 37.5223 76.3266 33.9129 76.3546C18.9121 76.6793 11.7946 62.9184 11.7946 62.9184C3.25027 48.6761 0.732688 29.8878 0.132214 23.8807C0.00550849 22.6323 7.17784e-07 21.8877 7.17784e-07 21.8877C-0.000695005 20.0061 0.504377 18.16 1.46069 16.5489C2.417 14.9377 3.78822 13.6225 5.4263 12.7455C7.12004 11.8733 9.00487 11.4552 10.9022 11.5306C12.6674 11.6056 14.3848 12.1354 15.8933 13.0702C17.0654 13.7831 18.0786 14.7365 18.8681 15.8694C20.2783 17.9072 20.5979 20.4433 20.8788 22.8674C21.4622 28.1836 22.4849 33.4404 23.9363 38.5822Z" fill="url(#paint6_radial_13250_6198)"/>
<path d="M23.9363 38.5822C25.0906 42.706 26.6636 46.6967 28.6299 50.49C29.5278 52.1695 30.4258 53.849 32.0564 54.9071C32.339 55.0875 32.6503 55.2164 32.9764 55.2878C35.3783 55.8085 36.695 53.8434 37.5434 52.0463C38.8094 49.2268 39.8323 46.3009 40.6008 43.3016C40.7496 42.7418 40.8928 42.1819 41.036 41.6221C41.3114 40.5528 41.5869 39.4723 41.8238 38.3918L52.4229 9.61597C54.6246 6.63605 57.4789 4.218 60.7595 2.55344C64.0401 0.888874 67.6572 0.0235087 71.324 0.0258991C76.6043 -0.00713636 81.7381 1.78985 85.8786 5.12046C92.8088 10.4501 96.935 20.9472 96.935 20.9472C97.5366 22.3138 97.8462 23.7945 97.844 25.2915C97.8412 26.6781 97.5696 28.0505 97.0446 29.3304C96.5202 30.6104 95.7522 31.7727 94.7854 32.7511C93.8186 33.7295 92.6716 34.5047 91.4101 35.0326C90.1485 35.5605 88.7966 35.8307 87.4321 35.8277C85.9149 35.8267 84.4159 35.4867 83.0426 34.8317C81.6686 34.1768 80.4534 33.2229 79.4827 32.0376L79.3835 31.9144C78.7175 31.0006 78.1622 30.0081 77.7309 28.9585C77.1596 27.6411 76.5194 26.3553 75.8138 25.1068C75.4391 24.463 75.0205 23.8527 74.5908 23.2481C74.2195 22.7076 73.7804 22.2184 73.2852 21.7925C72.3101 20.9919 71.0816 20.6728 69.9357 21.3614C69.8806 21.3936 69.8272 21.4292 69.776 21.4678C68.5971 22.2908 67.7707 23.9535 67.1978 25.2299C65.5451 28.8465 64.5976 32.5527 63.6611 36.3596C63.4848 37.093 63.3085 37.8264 63.1432 38.5654L58.7636 53.1212L52.5882 66.9604C50.3774 69.8599 47.5479 72.2118 44.3131 73.8392C41.0783 75.4661 37.5223 76.3266 33.9129 76.3546C18.9121 76.6793 11.7946 62.9184 11.7946 62.9184C3.25027 48.6761 0.732688 29.8878 0.132214 23.8807C0.00550849 22.6323 7.17784e-07 21.8877 7.17784e-07 21.8877C-0.000695005 20.0061 0.504377 18.16 1.46069 16.5489C2.417 14.9377 3.78822 13.6225 5.4263 12.7455C7.12004 11.8733 9.00487 11.4552 10.9022 11.5306C12.6674 11.6056 14.3848 12.1354 15.8933 13.0702C17.0654 13.7831 18.0786 14.7365 18.8681 15.8694C20.2783 17.9072 20.5979 20.4433 20.8788 22.8674C21.4622 28.1836 22.4849 33.4404 23.9363 38.5822Z" fill="url(#paint7_radial_13250_6198)"/>
<path d="M23.9363 38.5822C25.0906 42.706 26.6636 46.6967 28.6299 50.49C29.5278 52.1695 30.4258 53.849 32.0564 54.9071C32.339 55.0875 32.6503 55.2164 32.9764 55.2878C35.3783 55.8085 36.695 53.8434 37.5434 52.0463C38.8094 49.2268 39.8323 46.3009 40.6008 43.3016C40.7496 42.7418 40.8928 42.1819 41.036 41.6221C41.3114 40.5528 41.5869 39.4723 41.8238 38.3918L52.4229 9.61597C54.6246 6.63605 57.4789 4.218 60.7595 2.55344C64.0401 0.888874 67.6572 0.0235087 71.324 0.0258991C76.6043 -0.00713636 81.7381 1.78985 85.8786 5.12046C92.8088 10.4501 96.935 20.9472 96.935 20.9472C97.5366 22.3138 97.8462 23.7945 97.844 25.2915C97.8412 26.6781 97.5696 28.0505 97.0446 29.3304C96.5202 30.6104 95.7522 31.7727 94.7854 32.7511C93.8186 33.7295 92.6716 34.5047 91.4101 35.0326C90.1485 35.5605 88.7966 35.8307 87.4321 35.8277C85.9149 35.8267 84.4159 35.4867 83.0426 34.8317C81.6686 34.1768 80.4534 33.2229 79.4827 32.0376L79.3835 31.9144C78.7175 31.0006 78.1622 30.0081 77.7309 28.9585C77.1596 27.6411 76.5194 26.3553 75.8138 25.1068C75.4391 24.463 75.0205 23.8527 74.5908 23.2481C74.2195 22.7076 73.7804 22.2184 73.2852 21.7925C72.3101 20.9919 71.0816 20.6728 69.9357 21.3614C69.8806 21.3936 69.8272 21.4292 69.776 21.4678C68.5971 22.2908 67.7707 23.9535 67.1978 25.2299C65.5451 28.8465 64.5976 32.5527 63.6611 36.3596C63.4848 37.093 63.3085 37.8264 63.1432 38.5654L58.7636 53.1212L52.5882 66.9604C50.3774 69.8599 47.5479 72.2118 44.3131 73.8392C41.0783 75.4661 37.5223 76.3266 33.9129 76.3546C18.9121 76.6793 11.7946 62.9184 11.7946 62.9184C3.25027 48.6761 0.732688 29.8878 0.132214 23.8807C0.00550849 22.6323 7.17784e-07 21.8877 7.17784e-07 21.8877C-0.000695005 20.0061 0.504377 18.16 1.46069 16.5489C2.417 14.9377 3.78822 13.6225 5.4263 12.7455C7.12004 11.8733 9.00487 11.4552 10.9022 11.5306C12.6674 11.6056 14.3848 12.1354 15.8933 13.0702C17.0654 13.7831 18.0786 14.7365 18.8681 15.8694C20.2783 17.9072 20.5979 20.4433 20.8788 22.8674C21.4622 28.1836 22.4849 33.4404 23.9363 38.5822Z" fill="url(#paint8_radial_13250_6198)"/>
<path d="M23.9363 38.5822C25.0906 42.706 26.6636 46.6967 28.6299 50.49C29.5278 52.1695 30.4258 53.849 32.0564 54.9071C32.339 55.0875 32.6503 55.2164 32.9764 55.2878C35.3783 55.8085 36.695 53.8434 37.5434 52.0463C38.8094 49.2268 39.8323 46.3009 40.6008 43.3016C40.7496 42.7418 40.8928 42.1819 41.036 41.6221C41.3114 40.5528 41.5869 39.4723 41.8238 38.3918L52.4229 9.61597C54.6246 6.63605 57.4789 4.218 60.7595 2.55344C64.0401 0.888874 67.6572 0.0235087 71.324 0.0258991C76.6043 -0.00713636 81.7381 1.78985 85.8786 5.12046C92.8088 10.4501 96.935 20.9472 96.935 20.9472C97.5366 22.3138 97.8462 23.7945 97.844 25.2915C97.8412 26.6781 97.5696 28.0505 97.0446 29.3304C96.5202 30.6104 95.7522 31.7727 94.7854 32.7511C93.8186 33.7295 92.6716 34.5047 91.4101 35.0326C90.1485 35.5605 88.7966 35.8307 87.4321 35.8277C85.9149 35.8267 84.4159 35.4867 83.0426 34.8317C81.6686 34.1768 80.4534 33.2229 79.4827 32.0376L79.3835 31.9144C78.7175 31.0006 78.1622 30.0081 77.7309 28.9585C77.1596 27.6411 76.5194 26.3553 75.8138 25.1068C75.4391 24.463 75.0205 23.8527 74.5908 23.2481C74.2195 22.7076 73.7804 22.2184 73.2852 21.7925C72.3101 20.9919 71.0816 20.6728 69.9357 21.3614C69.8806 21.3936 69.8272 21.4292 69.776 21.4678C68.5971 22.2908 67.7707 23.9535 67.1978 25.2299C65.5451 28.8465 64.5976 32.5527 63.6611 36.3596C63.4848 37.093 63.3085 37.8264 63.1432 38.5654L58.7636 53.1212L52.5882 66.9604C50.3774 69.8599 47.5479 72.2118 44.3131 73.8392C41.0783 75.4661 37.5223 76.3266 33.9129 76.3546C18.9121 76.6793 11.7946 62.9184 11.7946 62.9184C3.25027 48.6761 0.732688 29.8878 0.132214 23.8807C0.00550849 22.6323 7.17784e-07 21.8877 7.17784e-07 21.8877C-0.000695005 20.0061 0.504377 18.16 1.46069 16.5489C2.417 14.9377 3.78822 13.6225 5.4263 12.7455C7.12004 11.8733 9.00487 11.4552 10.9022 11.5306C12.6674 11.6056 14.3848 12.1354 15.8933 13.0702C17.0654 13.7831 18.0786 14.7365 18.8681 15.8694C20.2783 17.9072 20.5979 20.4433 20.8788 22.8674C21.4622 28.1836 22.4849 33.4404 23.9363 38.5822Z" fill="url(#paint9_radial_13250_6198)"/>
<path d="M23.9363 38.5822C25.0906 42.706 26.6636 46.6967 28.6299 50.49C29.5278 52.1695 30.4258 53.849 32.0564 54.9071C32.339 55.0875 32.6503 55.2164 32.9764 55.2878C35.3783 55.8085 36.695 53.8434 37.5434 52.0463C38.8094 49.2268 39.8323 46.3009 40.6008 43.3016C40.7496 42.7418 40.8928 42.1819 41.036 41.6221C41.3114 40.5528 41.5869 39.4723 41.8238 38.3918L52.4229 9.61597C54.6246 6.63605 57.4789 4.218 60.7595 2.55344C64.0401 0.888874 67.6572 0.0235087 71.324 0.0258991C76.6043 -0.00713636 81.7381 1.78985 85.8786 5.12046C92.8088 10.4501 96.935 20.9472 96.935 20.9472C97.5366 22.3138 97.8462 23.7945 97.844 25.2915C97.8412 26.6781 97.5696 28.0505 97.0446 29.3304C96.5202 30.6104 95.7522 31.7727 94.7854 32.7511C93.8186 33.7295 92.6716 34.5047 91.4101 35.0326C90.1485 35.5605 88.7966 35.8307 87.4321 35.8277C85.9149 35.8267 84.4159 35.4867 83.0426 34.8317C81.6686 34.1768 80.4534 33.2229 79.4827 32.0376L79.3835 31.9144C78.7175 31.0006 78.1622 30.0081 77.7309 28.9585C77.1596 27.6411 76.5194 26.3553 75.8138 25.1068C75.4391 24.463 75.0205 23.8527 74.5908 23.2481C74.2195 22.7076 73.7804 22.2184 73.2852 21.7925C72.3101 20.9919 71.0816 20.6728 69.9357 21.3614C69.8806 21.3936 69.8272 21.4292 69.776 21.4678C68.5971 22.2908 67.7707 23.9535 67.1978 25.2299C65.5451 28.8465 64.5976 32.5527 63.6611 36.3596C63.4848 37.093 63.3085 37.8264 63.1432 38.5654L58.7636 53.1212L52.5882 66.9604C50.3774 69.8599 47.5479 72.2118 44.3131 73.8392C41.0783 75.4661 37.5223 76.3266 33.9129 76.3546C18.9121 76.6793 11.7946 62.9184 11.7946 62.9184C3.25027 48.6761 0.732688 29.8878 0.132214 23.8807C0.00550849 22.6323 7.17784e-07 21.8877 7.17784e-07 21.8877C-0.000695005 20.0061 0.504377 18.16 1.46069 16.5489C2.417 14.9377 3.78822 13.6225 5.4263 12.7455C7.12004 11.8733 9.00487 11.4552 10.9022 11.5306C12.6674 11.6056 14.3848 12.1354 15.8933 13.0702C17.0654 13.7831 18.0786 14.7365 18.8681 15.8694C20.2783 17.9072 20.5979 20.4433 20.8788 22.8674C21.4622 28.1836 22.4849 33.4404 23.9363 38.5822Z" fill="url(#paint10_radial_13250_6198)"/>
<path d="M23.9363 38.5822C25.0906 42.706 26.6636 46.6967 28.6299 50.49C29.5278 52.1695 30.4258 53.849 32.0564 54.9071C32.339 55.0875 32.6503 55.2164 32.9764 55.2878C35.3783 55.8085 36.695 53.8434 37.5434 52.0463C38.8094 49.2268 39.8323 46.3009 40.6008 43.3016C40.7496 42.7418 40.8928 42.1819 41.036 41.6221C41.3114 40.5528 41.5869 39.4723 41.8238 38.3918L52.4229 9.61597C54.6246 6.63605 57.4789 4.218 60.7595 2.55344C64.0401 0.888874 67.6572 0.0235087 71.324 0.0258991C76.6043 -0.00713636 81.7381 1.78985 85.8786 5.12046C92.8088 10.4501 96.935 20.9472 96.935 20.9472C97.5366 22.3138 97.8462 23.7945 97.844 25.2915C97.8412 26.6781 97.5696 28.0505 97.0446 29.3304C96.5202 30.6104 95.7522 31.7727 94.7854 32.7511C93.8186 33.7295 92.6716 34.5047 91.4101 35.0326C90.1485 35.5605 88.7966 35.8307 87.4321 35.8277C85.9149 35.8267 84.4159 35.4867 83.0426 34.8317C81.6686 34.1768 80.4534 33.2229 79.4827 32.0376L79.3835 31.9144C78.7175 31.0006 78.1622 30.0081 77.7309 28.9585C77.1596 27.6411 76.5194 26.3553 75.8138 25.1068C75.4391 24.463 75.0205 23.8527 74.5908 23.2481C74.2195 22.7076 73.7804 22.2184 73.2852 21.7925C72.3101 20.9919 71.0816 20.6728 69.9357 21.3614C69.8806 21.3936 69.8272 21.4292 69.776 21.4678C68.5971 22.2908 67.7707 23.9535 67.1978 25.2299C65.5451 28.8465 64.5976 32.5527 63.6611 36.3596C63.4848 37.093 63.3085 37.8264 63.1432 38.5654L58.7636 53.1212L52.5882 66.9604C50.3774 69.8599 47.5479 72.2118 44.3131 73.8392C41.0783 75.4661 37.5223 76.3266 33.9129 76.3546C18.9121 76.6793 11.7946 62.9184 11.7946 62.9184C3.25027 48.6761 0.732688 29.8878 0.132214 23.8807C0.00550849 22.6323 7.17784e-07 21.8877 7.17784e-07 21.8877C-0.000695005 20.0061 0.504377 18.16 1.46069 16.5489C2.417 14.9377 3.78822 13.6225 5.4263 12.7455C7.12004 11.8733 9.00487 11.4552 10.9022 11.5306C12.6674 11.6056 14.3848 12.1354 15.8933 13.0702C17.0654 13.7831 18.0786 14.7365 18.8681 15.8694C20.2783 17.9072 20.5979 20.4433 20.8788 22.8674C21.4622 28.1836 22.4849 33.4404 23.9363 38.5822Z" fill="url(#paint11_radial_13250_6198)"/>
<path d="M23.9363 38.5822C25.0906 42.706 26.6636 46.6967 28.6299 50.49C29.5278 52.1695 30.4258 53.849 32.0564 54.9071C32.339 55.0875 32.6503 55.2164 32.9764 55.2878C35.3783 55.8085 36.695 53.8434 37.5434 52.0463C38.8094 49.2268 39.8323 46.3009 40.6008 43.3016C40.7496 42.7418 40.8928 42.1819 41.036 41.6221C41.3114 40.5528 41.5869 39.4723 41.8238 38.3918L52.4229 9.61597C54.6246 6.63605 57.4789 4.218 60.7595 2.55344C64.0401 0.888874 67.6572 0.0235087 71.324 0.0258991C76.6043 -0.00713636 81.7381 1.78985 85.8786 5.12046C92.8088 10.4501 96.935 20.9472 96.935 20.9472C97.5366 22.3138 97.8462 23.7945 97.844 25.2915C97.8412 26.6781 97.5696 28.0505 97.0446 29.3304C96.5202 30.6104 95.7522 31.7727 94.7854 32.7511C93.8186 33.7295 92.6716 34.5047 91.4101 35.0326C90.1485 35.5605 88.7966 35.8307 87.4321 35.8277C85.9149 35.8267 84.4159 35.4867 83.0426 34.8317C81.6686 34.1768 80.4534 33.2229 79.4827 32.0376L79.3835 31.9144C78.7175 31.0006 78.1622 30.0081 77.7309 28.9585C77.1596 27.6411 76.5194 26.3553 75.8138 25.1068C75.4391 24.463 75.0205 23.8527 74.5908 23.2481C74.2195 22.7076 73.7804 22.2184 73.2852 21.7925C72.3101 20.9919 71.0816 20.6728 69.9357 21.3614C69.8806 21.3936 69.8272 21.4292 69.776 21.4678C68.5971 22.2908 67.7707 23.9535 67.1978 25.2299C65.5451 28.8465 64.5976 32.5527 63.6611 36.3596C63.4848 37.093 63.3085 37.8264 63.1432 38.5654L58.7636 53.1212L52.5882 66.9604C50.3774 69.8599 47.5479 72.2118 44.3131 73.8392C41.0783 75.4661 37.5223 76.3266 33.9129 76.3546C18.9121 76.6793 11.7946 62.9184 11.7946 62.9184C3.25027 48.6761 0.732688 29.8878 0.132214 23.8807C0.00550849 22.6323 7.17784e-07 21.8877 7.17784e-07 21.8877C-0.000695005 20.0061 0.504377 18.16 1.46069 16.5489C2.417 14.9377 3.78822 13.6225 5.4263 12.7455C7.12004 11.8733 9.00487 11.4552 10.9022 11.5306C12.6674 11.6056 14.3848 12.1354 15.8933 13.0702C17.0654 13.7831 18.0786 14.7365 18.8681 15.8694C20.2783 17.9072 20.5979 20.4433 20.8788 22.8674C21.4622 28.1836 22.4849 33.4404 23.9363 38.5822Z" fill="url(#paint12_radial_13250_6198)"/>
<path d="M23.9363 38.5822C25.0906 42.706 26.6636 46.6967 28.6299 50.49C29.5278 52.1695 30.4258 53.849 32.0564 54.9071C32.339 55.0875 32.6503 55.2164 32.9764 55.2878C35.3783 55.8085 36.695 53.8434 37.5434 52.0463C38.8094 49.2268 39.8323 46.3009 40.6008 43.3016C40.7496 42.7418 40.8928 42.1819 41.036 41.6221C41.3114 40.5528 41.5869 39.4723 41.8238 38.3918L52.4229 9.61597C54.6246 6.63605 57.4789 4.218 60.7595 2.55344C64.0401 0.888874 67.6572 0.0235087 71.324 0.0258991C76.6043 -0.00713636 81.7381 1.78985 85.8786 5.12046C92.8088 10.4501 96.935 20.9472 96.935 20.9472C97.5366 22.3138 97.8462 23.7945 97.844 25.2915C97.8412 26.6781 97.5696 28.0505 97.0446 29.3304C96.5202 30.6104 95.7522 31.7727 94.7854 32.7511C93.8186 33.7295 92.6716 34.5047 91.4101 35.0326C90.1485 35.5605 88.7966 35.8307 87.4321 35.8277C85.9149 35.8267 84.4159 35.4867 83.0426 34.8317C81.6686 34.1768 80.4534 33.2229 79.4827 32.0376L79.3835 31.9144C78.7175 31.0006 78.1622 30.0081 77.7309 28.9585C77.1596 27.6411 76.5194 26.3553 75.8138 25.1068C75.4391 24.463 75.0205 23.8527 74.5908 23.2481C74.2195 22.7076 73.7804 22.2184 73.2852 21.7925C72.3101 20.9919 71.0816 20.6728 69.9357 21.3614C69.8806 21.3936 69.8272 21.4292 69.776 21.4678C68.5971 22.2908 67.7707 23.9535 67.1978 25.2299C65.5451 28.8465 64.5976 32.5527 63.6611 36.3596C63.4848 37.093 63.3085 37.8264 63.1432 38.5654L58.7636 53.1212L52.5882 66.9604C50.3774 69.8599 47.5479 72.2118 44.3131 73.8392C41.0783 75.4661 37.5223 76.3266 33.9129 76.3546C18.9121 76.6793 11.7946 62.9184 11.7946 62.9184C3.25027 48.6761 0.732688 29.8878 0.132214 23.8807C0.00550849 22.6323 7.17784e-07 21.8877 7.17784e-07 21.8877C-0.000695005 20.0061 0.504377 18.16 1.46069 16.5489C2.417 14.9377 3.78822 13.6225 5.4263 12.7455C7.12004 11.8733 9.00487 11.4552 10.9022 11.5306C12.6674 11.6056 14.3848 12.1354 15.8933 13.0702C17.0654 13.7831 18.0786 14.7365 18.8681 15.8694C20.2783 17.9072 20.5979 20.4433 20.8788 22.8674C21.4622 28.1836 22.4849 33.4404 23.9363 38.5822Z" fill="url(#paint13_radial_13250_6198)"/>
<path d="M23.9363 38.5822C25.0906 42.706 26.6636 46.6967 28.6299 50.49C29.5278 52.1695 30.4258 53.849 32.0564 54.9071C32.339 55.0875 32.6503 55.2164 32.9764 55.2878C35.3783 55.8085 36.695 53.8434 37.5434 52.0463C38.8094 49.2268 39.8323 46.3009 40.6008 43.3016C40.7496 42.7418 40.8928 42.1819 41.036 41.6221C41.3114 40.5528 41.5869 39.4723 41.8238 38.3918L52.4229 9.61597C54.6246 6.63605 57.4789 4.218 60.7595 2.55344C64.0401 0.888874 67.6572 0.0235087 71.324 0.0258991C76.6043 -0.00713636 81.7381 1.78985 85.8786 5.12046C92.8088 10.4501 96.935 20.9472 96.935 20.9472C97.5366 22.3138 97.8462 23.7945 97.844 25.2915C97.8412 26.6781 97.5696 28.0505 97.0446 29.3304C96.5202 30.6104 95.7522 31.7727 94.7854 32.7511C93.8186 33.7295 92.6716 34.5047 91.4101 35.0326C90.1485 35.5605 88.7966 35.8307 87.4321 35.8277C85.9149 35.8267 84.4159 35.4867 83.0426 34.8317C81.6686 34.1768 80.4534 33.2229 79.4827 32.0376L79.3835 31.9144C78.7175 31.0006 78.1622 30.0081 77.7309 28.9585C77.1596 27.6411 76.5194 26.3553 75.8138 25.1068C75.4391 24.463 75.0205 23.8527 74.5908 23.2481C74.2195 22.7076 73.7804 22.2184 73.2852 21.7925C72.3101 20.9919 71.0816 20.6728 69.9357 21.3614C69.8806 21.3936 69.8272 21.4292 69.776 21.4678C68.5971 22.2908 67.7707 23.9535 67.1978 25.2299C65.5451 28.8465 64.5976 32.5527 63.6611 36.3596C63.4848 37.093 63.3085 37.8264 63.1432 38.5654L58.7636 53.1212L52.5882 66.9604C50.3774 69.8599 47.5479 72.2118 44.3131 73.8392C41.0783 75.4661 37.5223 76.3266 33.9129 76.3546C18.9121 76.6793 11.7946 62.9184 11.7946 62.9184C3.25027 48.6761 0.732688 29.8878 0.132214 23.8807C0.00550849 22.6323 7.17784e-07 21.8877 7.17784e-07 21.8877C-0.000695005 20.0061 0.504377 18.16 1.46069 16.5489C2.417 14.9377 3.78822 13.6225 5.4263 12.7455C7.12004 11.8733 9.00487 11.4552 10.9022 11.5306C12.6674 11.6056 14.3848 12.1354 15.8933 13.0702C17.0654 13.7831 18.0786 14.7365 18.8681 15.8694C20.2783 17.9072 20.5979 20.4433 20.8788 22.8674C21.4622 28.1836 22.4849 33.4404 23.9363 38.5822Z" fill="url(#paint14_radial_13250_6198)"/>
<path d="M23.9363 38.5822C25.0906 42.706 26.6636 46.6967 28.6299 50.49C29.5278 52.1695 30.4258 53.849 32.0564 54.9071C32.339 55.0875 32.6503 55.2164 32.9764 55.2878C35.3783 55.8085 36.695 53.8434 37.5434 52.0463C38.8094 49.2268 39.8323 46.3009 40.6008 43.3016C40.7496 42.7418 40.8928 42.1819 41.036 41.6221C41.3114 40.5528 41.5869 39.4723 41.8238 38.3918L52.4229 9.61597C54.6246 6.63605 57.4789 4.218 60.7595 2.55344C64.0401 0.888874 67.6572 0.0235087 71.324 0.0258991C76.6043 -0.00713636 81.7381 1.78985 85.8786 5.12046C92.8088 10.4501 96.935 20.9472 96.935 20.9472C97.5366 22.3138 97.8462 23.7945 97.844 25.2915C97.8412 26.6781 97.5696 28.0505 97.0446 29.3304C96.5202 30.6104 95.7522 31.7727 94.7854 32.7511C93.8186 33.7295 92.6716 34.5047 91.4101 35.0326C90.1485 35.5605 88.7966 35.8307 87.4321 35.8277C85.9149 35.8267 84.4159 35.4867 83.0426 34.8317C81.6686 34.1768 80.4534 33.2229 79.4827 32.0376L79.3835 31.9144C78.7175 31.0006 78.1622 30.0081 77.7309 28.9585C77.1596 27.6411 76.5194 26.3553 75.8138 25.1068C75.4391 24.463 75.0205 23.8527 74.5908 23.2481C74.2195 22.7076 73.7804 22.2184 73.2852 21.7925C72.3101 20.9919 71.0816 20.6728 69.9357 21.3614C69.8806 21.3936 69.8272 21.4292 69.776 21.4678C68.5971 22.2908 67.7707 23.9535 67.1978 25.2299C65.5451 28.8465 64.5976 32.5527 63.6611 36.3596C63.4848 37.093 63.3085 37.8264 63.1432 38.5654L58.7636 53.1212L52.5882 66.9604C50.3774 69.8599 47.5479 72.2118 44.3131 73.8392C41.0783 75.4661 37.5223 76.3266 33.9129 76.3546C18.9121 76.6793 11.7946 62.9184 11.7946 62.9184C3.25027 48.6761 0.732688 29.8878 0.132214 23.8807C0.00550849 22.6323 7.17784e-07 21.8877 7.17784e-07 21.8877C-0.000695005 20.0061 0.504377 18.16 1.46069 16.5489C2.417 14.9377 3.78822 13.6225 5.4263 12.7455C7.12004 11.8733 9.00487 11.4552 10.9022 11.5306C12.6674 11.6056 14.3848 12.1354 15.8933 13.0702C17.0654 13.7831 18.0786 14.7365 18.8681 15.8694C20.2783 17.9072 20.5979 20.4433 20.8788 22.8674C21.4622 28.1836 22.4849 33.4404 23.9363 38.5822Z" fill="url(#paint15_radial_13250_6198)"/>
<path d="M23.9363 38.5822C25.0906 42.706 26.6636 46.6967 28.6299 50.49C29.5278 52.1695 30.4258 53.849 32.0564 54.9071C32.339 55.0875 32.6503 55.2164 32.9764 55.2878C35.3783 55.8085 36.695 53.8434 37.5434 52.0463C38.8094 49.2268 39.8323 46.3009 40.6008 43.3016C40.7496 42.7418 40.8928 42.1819 41.036 41.6221C41.3114 40.5528 41.5869 39.4723 41.8238 38.3918L52.4229 9.61597C54.6246 6.63605 57.4789 4.218 60.7595 2.55344C64.0401 0.888874 67.6572 0.0235087 71.324 0.0258991C76.6043 -0.00713636 81.7381 1.78985 85.8786 5.12046C92.8088 10.4501 96.935 20.9472 96.935 20.9472C97.5366 22.3138 97.8462 23.7945 97.844 25.2915C97.8412 26.6781 97.5696 28.0505 97.0446 29.3304C96.5202 30.6104 95.7522 31.7727 94.7854 32.7511C93.8186 33.7295 92.6716 34.5047 91.4101 35.0326C90.1485 35.5605 88.7966 35.8307 87.4321 35.8277C85.9149 35.8267 84.4159 35.4867 83.0426 34.8317C81.6686 34.1768 80.4534 33.2229 79.4827 32.0376L79.3835 31.9144C78.7175 31.0006 78.1622 30.0081 77.7309 28.9585C77.1596 27.6411 76.5194 26.3553 75.8138 25.1068C75.4391 24.463 75.0205 23.8527 74.5908 23.2481C74.2195 22.7076 73.7804 22.2184 73.2852 21.7925C72.3101 20.9919 71.0816 20.6728 69.9357 21.3614C69.8806 21.3936 69.8272 21.4292 69.776 21.4678C68.5971 22.2908 67.7707 23.9535 67.1978 25.2299C65.5451 28.8465 64.5976 32.5527 63.6611 36.3596C63.4848 37.093 63.3085 37.8264 63.1432 38.5654L58.7636 53.1212L52.5882 66.9604C50.3774 69.8599 47.5479 72.2118 44.3131 73.8392C41.0783 75.4661 37.5223 76.3266 33.9129 76.3546C18.9121 76.6793 11.7946 62.9184 11.7946 62.9184C3.25027 48.6761 0.732688 29.8878 0.132214 23.8807C0.00550849 22.6323 7.17784e-07 21.8877 7.17784e-07 21.8877C-0.000695005 20.0061 0.504377 18.16 1.46069 16.5489C2.417 14.9377 3.78822 13.6225 5.4263 12.7455C7.12004 11.8733 9.00487 11.4552 10.9022 11.5306C12.6674 11.6056 14.3848 12.1354 15.8933 13.0702C17.0654 13.7831 18.0786 14.7365 18.8681 15.8694C20.2783 17.9072 20.5979 20.4433 20.8788 22.8674C21.4622 28.1836 22.4849 33.4404 23.9363 38.5822Z" fill="url(#paint16_linear_13250_6198)"/>
<path d="M23.9363 38.5822C25.0906 42.706 26.6636 46.6967 28.6299 50.49C29.5278 52.1695 30.4258 53.849 32.0564 54.9071C32.339 55.0875 32.6503 55.2164 32.9764 55.2878C35.3783 55.8085 36.695 53.8434 37.5434 52.0463C38.8094 49.2268 39.8323 46.3009 40.6008 43.3016C40.7496 42.7418 40.8928 42.1819 41.036 41.6221C41.3114 40.5528 41.5869 39.4723 41.8238 38.3918L52.4229 9.61597C54.6246 6.63605 57.4789 4.218 60.7595 2.55344C64.0401 0.888874 67.6572 0.0235087 71.324 0.0258991C76.6043 -0.00713636 81.7381 1.78985 85.8786 5.12046C92.8088 10.4501 96.935 20.9472 96.935 20.9472C97.5366 22.3138 97.8462 23.7945 97.844 25.2915C97.8412 26.6781 97.5696 28.0505 97.0446 29.3304C96.5202 30.6104 95.7522 31.7727 94.7854 32.7511C93.8186 33.7295 92.6716 34.5047 91.4101 35.0326C90.1485 35.5605 88.7966 35.8307 87.4321 35.8277C85.9149 35.8267 84.4159 35.4867 83.0426 34.8317C81.6686 34.1768 80.4534 33.2229 79.4827 32.0376L79.3835 31.9144C78.7175 31.0006 78.1622 30.0081 77.7309 28.9585C77.1596 27.6411 76.5194 26.3553 75.8138 25.1068C75.4391 24.463 75.0205 23.8527 74.5908 23.2481C74.2195 22.7076 73.7804 22.2184 73.2852 21.7925C72.3101 20.9919 71.0816 20.6728 69.9357 21.3614C69.8806 21.3936 69.8272 21.4292 69.776 21.4678C68.5971 22.2908 67.7707 23.9535 67.1978 25.2299C65.5451 28.8465 64.5976 32.5527 63.6611 36.3596C63.4848 37.093 63.3085 37.8264 63.1432 38.5654L58.7636 53.1212L52.5882 66.9604C50.3774 69.8599 47.5479 72.2118 44.3131 73.8392C41.0783 75.4661 37.5223 76.3266 33.9129 76.3546C18.9121 76.6793 11.7946 62.9184 11.7946 62.9184C3.25027 48.6761 0.732688 29.8878 0.132214 23.8807C0.00550849 22.6323 7.17784e-07 21.8877 7.17784e-07 21.8877C-0.000695005 20.0061 0.504377 18.16 1.46069 16.5489C2.417 14.9377 3.78822 13.6225 5.4263 12.7455C7.12004 11.8733 9.00487 11.4552 10.9022 11.5306C12.6674 11.6056 14.3848 12.1354 15.8933 13.0702C17.0654 13.7831 18.0786 14.7365 18.8681 15.8694C20.2783 17.9072 20.5979 20.4433 20.8788 22.8674C21.4622 28.1836 22.4849 33.4404 23.9363 38.5822Z" fill="url(#paint17_linear_13250_6198)"/>
<path d="M23.9363 38.5822C25.0906 42.706 26.6636 46.6967 28.6299 50.49C29.5278 52.1695 30.4258 53.849 32.0564 54.9071C32.339 55.0875 32.6503 55.2164 32.9764 55.2878C35.3783 55.8085 36.695 53.8434 37.5434 52.0463C38.8094 49.2268 39.8323 46.3009 40.6008 43.3016C40.7496 42.7418 40.8928 42.1819 41.036 41.6221C41.3114 40.5528 41.5869 39.4723 41.8238 38.3918L52.4229 9.61597C54.6246 6.63605 57.4789 4.218 60.7595 2.55344C64.0401 0.888874 67.6572 0.0235087 71.324 0.0258991C76.6043 -0.00713636 81.7381 1.78985 85.8786 5.12046C92.8088 10.4501 96.935 20.9472 96.935 20.9472C97.5366 22.3138 97.8462 23.7945 97.844 25.2915C97.8412 26.6781 97.5696 28.0505 97.0446 29.3304C96.5202 30.6104 95.7522 31.7727 94.7854 32.7511C93.8186 33.7295 92.6716 34.5047 91.4101 35.0326C90.1485 35.5605 88.7966 35.8307 87.4321 35.8277C85.9149 35.8267 84.4159 35.4867 83.0426 34.8317C81.6686 34.1768 80.4534 33.2229 79.4827 32.0376L79.3835 31.9144C78.7175 31.0006 78.1622 30.0081 77.7309 28.9585C77.1596 27.6411 76.5194 26.3553 75.8138 25.1068C75.4391 24.463 75.0205 23.8527 74.5908 23.2481C74.2195 22.7076 73.7804 22.2184 73.2852 21.7925C72.3101 20.9919 71.0816 20.6728 69.9357 21.3614C69.8806 21.3936 69.8272 21.4292 69.776 21.4678C68.5971 22.2908 67.7707 23.9535 67.1978 25.2299C65.5451 28.8465 64.5976 32.5527 63.6611 36.3596C63.4848 37.093 63.3085 37.8264 63.1432 38.5654L58.7636 53.1212L52.5882 66.9604C50.3774 69.8599 47.5479 72.2118 44.3131 73.8392C41.0783 75.4661 37.5223 76.3266 33.9129 76.3546C18.9121 76.6793 11.7946 62.9184 11.7946 62.9184C3.25027 48.6761 0.732688 29.8878 0.132214 23.8807C0.00550849 22.6323 7.17784e-07 21.8877 7.17784e-07 21.8877C-0.000695005 20.0061 0.504377 18.16 1.46069 16.5489C2.417 14.9377 3.78822 13.6225 5.4263 12.7455C7.12004 11.8733 9.00487 11.4552 10.9022 11.5306C12.6674 11.6056 14.3848 12.1354 15.8933 13.0702C17.0654 13.7831 18.0786 14.7365 18.8681 15.8694C20.2783 17.9072 20.5979 20.4433 20.8788 22.8674C21.4622 28.1836 22.4849 33.4404 23.9363 38.5822Z" fill="url(#paint18_linear_13250_6198)"/>
<path d="M23.9363 38.5822C25.0906 42.706 26.6636 46.6967 28.6299 50.49C29.5278 52.1695 30.4258 53.849 32.0564 54.9071C32.339 55.0875 32.6503 55.2164 32.9764 55.2878C35.3783 55.8085 36.695 53.8434 37.5434 52.0463C38.8094 49.2268 39.8323 46.3009 40.6008 43.3016C40.7496 42.7418 40.8928 42.1819 41.036 41.6221C41.3114 40.5528 41.5869 39.4723 41.8238 38.3918L52.4229 9.61597C54.6246 6.63605 57.4789 4.218 60.7595 2.55344C64.0401 0.888874 67.6572 0.0235087 71.324 0.0258991C76.6043 -0.00713636 81.7381 1.78985 85.8786 5.12046C92.8088 10.4501 96.935 20.9472 96.935 20.9472C97.5366 22.3138 97.8462 23.7945 97.844 25.2915C97.8412 26.6781 97.5696 28.0505 97.0446 29.3304C96.5202 30.6104 95.7522 31.7727 94.7854 32.7511C93.8186 33.7295 92.6716 34.5047 91.4101 35.0326C90.1485 35.5605 88.7966 35.8307 87.4321 35.8277C85.9149 35.8267 84.4159 35.4867 83.0426 34.8317C81.6686 34.1768 80.4534 33.2229 79.4827 32.0376L79.3835 31.9144C78.7175 31.0006 78.1622 30.0081 77.7309 28.9585C77.1596 27.6411 76.5194 26.3553 75.8138 25.1068C75.4391 24.463 75.0205 23.8527 74.5908 23.2481C74.2195 22.7076 73.7804 22.2184 73.2852 21.7925C72.3101 20.9919 71.0816 20.6728 69.9357 21.3614C69.8806 21.3936 69.8272 21.4292 69.776 21.4678C68.5971 22.2908 67.7707 23.9535 67.1978 25.2299C65.5451 28.8465 64.5976 32.5527 63.6611 36.3596C63.4848 37.093 63.3085 37.8264 63.1432 38.5654L58.7636 53.1212L52.5882 66.9604C50.3774 69.8599 47.5479 72.2118 44.3131 73.8392C41.0783 75.4661 37.5223 76.3266 33.9129 76.3546C18.9121 76.6793 11.7946 62.9184 11.7946 62.9184C3.25027 48.6761 0.732688 29.8878 0.132214 23.8807C0.00550849 22.6323 7.17784e-07 21.8877 7.17784e-07 21.8877C-0.000695005 20.0061 0.504377 18.16 1.46069 16.5489C2.417 14.9377 3.78822 13.6225 5.4263 12.7455C7.12004 11.8733 9.00487 11.4552 10.9022 11.5306C12.6674 11.6056 14.3848 12.1354 15.8933 13.0702C17.0654 13.7831 18.0786 14.7365 18.8681 15.8694C20.2783 17.9072 20.5979 20.4433 20.8788 22.8674C21.4622 28.1836 22.4849 33.4404 23.9363 38.5822Z" fill="url(#paint19_linear_13250_6198)"/>
<path d="M45.6855 27.9061L52.423 9.6217C54.6246 6.64178 57.4791 4.22374 60.7597 2.55918C64.0403 0.894612 67.6574 0.029246 71.3242 0.0316364C76.6045 -0.00139908 81.7382 1.79559 85.8788 5.12619C92.809 10.4559 96.9352 20.9529 96.9352 20.9529C97.5368 22.3196 97.8464 23.8002 97.8442 25.2973C97.8414 26.6839 97.5698 28.0563 97.0448 29.3362C96.5198 30.6161 95.7524 31.7784 94.7856 32.7568C93.8188 33.7352 92.6718 34.5105 91.4097 35.0383C90.1482 35.5663 88.7968 35.8364 87.4323 35.8335C85.9151 35.8325 84.4161 35.4924 83.0428 34.8375C81.6688 34.1825 80.4536 33.2286 79.4829 32.0433L79.3837 31.9202C78.7171 31.0064 78.1624 30.0138 77.731 28.9642C77.1592 27.6467 76.5196 26.3611 75.8139 25.1125C75.4393 24.4687 75.0207 23.8585 74.591 23.2538C74.2197 22.7134 73.7806 22.2241 73.2853 21.7983C72.3103 20.9977 71.0818 20.6786 69.9359 21.3672C69.8808 21.3994 69.8274 21.4349 69.7762 21.4735C68.5972 22.2965 67.7709 23.9592 67.198 25.2357C65.5453 28.8523 64.5978 32.5584 63.6612 36.3653C63.485 37.0987 63.3087 37.8321 63.1434 38.5711L58.7638 53.127L45.6855 27.9061Z" fill="url(#paint20_linear_13250_6198)"/>
<path d="M94.6322 11.5756C93.7569 11.5736 92.8853 11.6846 92.0375 11.9059C93.9701 14.7436 95.6106 17.7752 96.935 20.9529C97.5365 22.3196 97.8461 23.8002 97.8439 25.2973C97.8412 26.6839 97.5696 28.0563 97.0446 29.3362C96.5196 30.6161 95.7522 31.7785 94.7854 32.7569C93.8186 33.7352 92.6716 34.5105 91.4095 35.0384C90.1479 35.5663 88.7966 35.8365 87.432 35.8335C85.5877 35.83 83.7774 35.3276 82.1875 34.3779L81.1188 38.392C79.1797 44.9813 77.8135 47.5286 77.8135 47.5286C77.0609 49.3151 76.1652 51.0359 75.1361 52.6736C74.4255 53.7429 73.5165 54.8177 72.2715 55.2264C71.8385 55.3797 71.3757 55.4258 70.9218 55.3608C70.4304 55.3003 69.9561 55.1384 69.528 54.8849C68.7094 54.2593 68.0583 53.4356 67.633 52.4888C67.1063 51.4378 66.6336 50.3596 66.2172 49.2585C65.2972 46.9856 63.8759 41.3872 63.8759 41.3872L62.405 35.5256L60.9341 29.6193L59.8874 25.7396C57.1329 15.6345 53.3207 10.6631 53.3207 10.6631C50.3244 6.32116 46.0793 3.02793 41.168 1.23535C35.4718 -0.841664 29.4946 0.328406 29.4946 0.328406C20.1294 2.19827 15.2099 8.72601 13.0449 11.8667C14.0358 12.1297 14.984 12.537 15.86 13.076C17.0322 13.7889 18.0453 14.7423 18.8348 15.8752C20.2451 17.913 20.5646 20.4491 20.8456 22.8732C21.4366 28.127 22.4574 33.3217 23.8975 38.4032C27.0707 27.7102 30.8773 22.7276 30.8773 22.7276C31.3027 22.1906 31.8127 21.729 32.3868 21.3616C32.6856 21.1753 33.0197 21.0551 33.3674 21.0089C34.0117 20.946 34.658 21.1058 35.2018 21.4624C35.3014 21.529 35.3954 21.6039 35.4828 21.6863C35.9804 22.1347 36.4076 22.6577 36.7498 23.2371C37.5423 24.6766 38.2291 26.1736 38.8047 27.7158C39.9946 31.1197 41.0082 35.2793 41.0082 35.2793L44.0382 47.4166C46.2417 55.6687 48.1093 59.6772 48.1093 59.6772C52.7092 70.3813 59.7442 73.3933 59.7442 73.3933C63.1691 75.2548 66.9779 76.2675 70.8612 76.3493C74.5681 76.4517 78.2448 75.6472 81.5816 74.0035C85.2401 72.1751 88.4496 69.5371 90.9743 66.2833C92.6766 64.2791 95.1831 59.3973 95.1831 59.3973C97.9469 53.8005 100.117 47.9208 101.656 41.8574C102.639 38.0799 103.428 34.2529 104.019 30.3919C104.317 28.4772 104.598 26.5514 104.824 24.6199C105.105 22.791 105.049 20.9247 104.658 19.1167C104.576 18.7916 104.476 18.472 104.355 18.1593C103.47 15.8904 101.829 14.0099 99.717 12.8464C98.1519 12.0009 96.4044 11.5642 94.6322 11.5756Z" fill="url(#paint21_linear_13250_6198)"/>
<path d="M94.6322 11.5756C93.7569 11.5736 92.8853 11.6846 92.0375 11.9059C93.9701 14.7436 95.6106 17.7752 96.935 20.9529C97.5365 22.3196 97.8461 23.8002 97.8439 25.2973C97.8412 26.6839 97.5696 28.0563 97.0446 29.3362C96.5196 30.6161 95.7522 31.7785 94.7854 32.7569C93.8186 33.7352 92.6716 34.5105 91.4095 35.0384C90.1479 35.5663 88.7966 35.8365 87.432 35.8335C85.5877 35.83 83.7774 35.3276 82.1875 34.3779L81.1188 38.392C79.1797 44.9813 77.8135 47.5286 77.8135 47.5286C77.0609 49.3151 76.1652 51.0359 75.1361 52.6736C74.4255 53.7429 73.5165 54.8177 72.2715 55.2264C71.8385 55.3797 71.3757 55.4258 70.9218 55.3608C70.4304 55.3003 69.9561 55.1384 69.528 54.8849C68.7094 54.2593 68.0583 53.4356 67.633 52.4888C67.1063 51.4378 66.6336 50.3596 66.2172 49.2585C65.2972 46.9856 63.8759 41.3872 63.8759 41.3872L62.405 35.5256L60.9341 29.6193L59.8874 25.7396C57.1329 15.6345 53.3207 10.6631 53.3207 10.6631C50.3244 6.32116 46.0793 3.02793 41.168 1.23535C35.4718 -0.841664 29.4946 0.328406 29.4946 0.328406C20.1294 2.19827 15.2099 8.72601 13.0449 11.8667C14.0358 12.1297 14.984 12.537 15.86 13.076C17.0322 13.7889 18.0453 14.7423 18.8348 15.8752C20.2451 17.913 20.5646 20.4491 20.8456 22.8732C21.4366 28.127 22.4574 33.3217 23.8975 38.4032C27.0707 27.7102 30.8773 22.7276 30.8773 22.7276C31.3027 22.1906 31.8127 21.729 32.3868 21.3616C32.6856 21.1753 33.0197 21.0551 33.3674 21.0089C34.0117 20.946 34.658 21.1058 35.2018 21.4624C35.3014 21.529 35.3954 21.6039 35.4828 21.6863C35.9804 22.1347 36.4076 22.6577 36.7498 23.2371C37.5423 24.6766 38.2291 26.1736 38.8047 27.7158C39.9946 31.1197 41.0082 35.2793 41.0082 35.2793L44.0382 47.4166C46.2417 55.6687 48.1093 59.6772 48.1093 59.6772C52.7092 70.3813 59.7442 73.3933 59.7442 73.3933C63.1691 75.2548 66.9779 76.2675 70.8612 76.3493C74.5681 76.4517 78.2448 75.6472 81.5816 74.0035C85.2401 72.1751 88.4496 69.5371 90.9743 66.2833C92.6766 64.2791 95.1831 59.3973 95.1831 59.3973C97.9469 53.8005 100.117 47.9208 101.656 41.8574C102.639 38.0799 103.428 34.2529 104.019 30.3919C104.317 28.4772 104.598 26.5514 104.824 24.6199C105.105 22.791 105.049 20.9247 104.658 19.1167C104.576 18.7916 104.476 18.472 104.355 18.1593C103.47 15.8904 101.829 14.0099 99.717 12.8464C98.1519 12.0009 96.4044 11.5642 94.6322 11.5756Z" fill="url(#paint22_radial_13250_6198)"/>
<path d="M94.6322 11.5756C93.7569 11.5736 92.8853 11.6846 92.0375 11.9059C93.9701 14.7436 95.6106 17.7752 96.935 20.9529C97.5365 22.3196 97.8461 23.8002 97.8439 25.2973C97.8412 26.6839 97.5696 28.0563 97.0446 29.3362C96.5196 30.6161 95.7522 31.7785 94.7854 32.7569C93.8186 33.7352 92.6716 34.5105 91.4095 35.0384C90.1479 35.5663 88.7966 35.8365 87.432 35.8335C85.5877 35.83 83.7774 35.3276 82.1875 34.3779L81.1188 38.392C79.1797 44.9813 77.8135 47.5286 77.8135 47.5286C77.0609 49.3151 76.1652 51.0359 75.1361 52.6736C74.4255 53.7429 73.5165 54.8177 72.2715 55.2264C71.8385 55.3797 71.3757 55.4258 70.9218 55.3608C70.4304 55.3003 69.9561 55.1384 69.528 54.8849C68.7094 54.2593 68.0583 53.4356 67.633 52.4888C67.1063 51.4378 66.6336 50.3596 66.2172 49.2585C65.2972 46.9856 63.8759 41.3872 63.8759 41.3872L62.405 35.5256L60.9341 29.6193L59.8874 25.7396C57.1329 15.6345 53.3207 10.6631 53.3207 10.6631C50.3244 6.32116 46.0793 3.02793 41.168 1.23535C35.4718 -0.841664 29.4946 0.328406 29.4946 0.328406C20.1294 2.19827 15.2099 8.72601 13.0449 11.8667C14.0358 12.1297 14.984 12.537 15.86 13.076C17.0322 13.7889 18.0453 14.7423 18.8348 15.8752C20.2451 17.913 20.5646 20.4491 20.8456 22.8732C21.4366 28.127 22.4574 33.3217 23.8975 38.4032C27.0707 27.7102 30.8773 22.7276 30.8773 22.7276C31.3027 22.1906 31.8127 21.729 32.3868 21.3616C32.6856 21.1753 33.0197 21.0551 33.3674 21.0089C34.0117 20.946 34.658 21.1058 35.2018 21.4624C35.3014 21.529 35.3954 21.6039 35.4828 21.6863C35.9804 22.1347 36.4076 22.6577 36.7498 23.2371C37.5423 24.6766 38.2291 26.1736 38.8047 27.7158C39.9946 31.1197 41.0082 35.2793 41.0082 35.2793L44.0382 47.4166C46.2417 55.6687 48.1093 59.6772 48.1093 59.6772C52.7092 70.3813 59.7442 73.3933 59.7442 73.3933C63.1691 75.2548 66.9779 76.2675 70.8612 76.3493C74.5681 76.4517 78.2448 75.6472 81.5816 74.0035C85.2401 72.1751 88.4496 69.5371 90.9743 66.2833C92.6766 64.2791 95.1831 59.3973 95.1831 59.3973C97.9469 53.8005 100.117 47.9208 101.656 41.8574C102.639 38.0799 103.428 34.2529 104.019 30.3919C104.317 28.4772 104.598 26.5514 104.824 24.6199C105.105 22.791 105.049 20.9247 104.658 19.1167C104.576 18.7916 104.476 18.472 104.355 18.1593C103.47 15.8904 101.829 14.0099 99.717 12.8464C98.1519 12.0009 96.4044 11.5642 94.6322 11.5756Z" fill="url(#paint23_radial_13250_6198)"/>
<path d="M94.6322 11.5756C93.7569 11.5736 92.8853 11.6846 92.0375 11.9059C93.9701 14.7436 95.6106 17.7752 96.935 20.9529C97.5365 22.3196 97.8461 23.8002 97.8439 25.2973C97.8412 26.6839 97.5696 28.0563 97.0446 29.3362C96.5196 30.6161 95.7522 31.7785 94.7854 32.7569C93.8186 33.7352 92.6716 34.5105 91.4095 35.0384C90.1479 35.5663 88.7966 35.8365 87.432 35.8335C85.5877 35.83 83.7774 35.3276 82.1875 34.3779L81.1188 38.392C79.1797 44.9813 77.8135 47.5286 77.8135 47.5286C77.0609 49.3151 76.1652 51.0359 75.1361 52.6736C74.4255 53.7429 73.5165 54.8177 72.2715 55.2264C71.8385 55.3797 71.3757 55.4258 70.9218 55.3608C70.4304 55.3003 69.9561 55.1384 69.528 54.8849C68.7094 54.2593 68.0583 53.4356 67.633 52.4888C67.1063 51.4378 66.6336 50.3596 66.2172 49.2585C65.2972 46.9856 63.8759 41.3872 63.8759 41.3872L62.405 35.5256L60.9341 29.6193L59.8874 25.7396C57.1329 15.6345 53.3207 10.6631 53.3207 10.6631C50.3244 6.32116 46.0793 3.02793 41.168 1.23535C35.4718 -0.841664 29.4946 0.328406 29.4946 0.328406C20.1294 2.19827 15.2099 8.72601 13.0449 11.8667C14.0358 12.1297 14.984 12.537 15.86 13.076C17.0322 13.7889 18.0453 14.7423 18.8348 15.8752C20.2451 17.913 20.5646 20.4491 20.8456 22.8732C21.4366 28.127 22.4574 33.3217 23.8975 38.4032C27.0707 27.7102 30.8773 22.7276 30.8773 22.7276C31.3027 22.1906 31.8127 21.729 32.3868 21.3616C32.6856 21.1753 33.0197 21.0551 33.3674 21.0089C34.0117 20.946 34.658 21.1058 35.2018 21.4624C35.3014 21.529 35.3954 21.6039 35.4828 21.6863C35.9804 22.1347 36.4076 22.6577 36.7498 23.2371C37.5423 24.6766 38.2291 26.1736 38.8047 27.7158C39.9946 31.1197 41.0082 35.2793 41.0082 35.2793L44.0382 47.4166C46.2417 55.6687 48.1093 59.6772 48.1093 59.6772C52.7092 70.3813 59.7442 73.3933 59.7442 73.3933C63.1691 75.2548 66.9779 76.2675 70.8612 76.3493C74.5681 76.4517 78.2448 75.6472 81.5816 74.0035C85.2401 72.1751 88.4496 69.5371 90.9743 66.2833C92.6766 64.2791 95.1831 59.3973 95.1831 59.3973C97.9469 53.8005 100.117 47.9208 101.656 41.8574C102.639 38.0799 103.428 34.2529 104.019 30.3919C104.317 28.4772 104.598 26.5514 104.824 24.6199C105.105 22.791 105.049 20.9247 104.658 19.1167C104.576 18.7916 104.476 18.472 104.355 18.1593C103.47 15.8904 101.829 14.0099 99.717 12.8464C98.1519 12.0009 96.4044 11.5642 94.6322 11.5756Z" fill="url(#paint24_radial_13250_6198)"/>
<path d="M94.6322 11.5756C93.7569 11.5736 92.8853 11.6846 92.0375 11.9059C93.9701 14.7436 95.6106 17.7752 96.935 20.9529C97.5365 22.3196 97.8461 23.8002 97.8439 25.2973C97.8412 26.6839 97.5696 28.0563 97.0446 29.3362C96.5196 30.6161 95.7522 31.7785 94.7854 32.7569C93.8186 33.7352 92.6716 34.5105 91.4095 35.0384C90.1479 35.5663 88.7966 35.8365 87.432 35.8335C85.5877 35.83 83.7774 35.3276 82.1875 34.3779L81.1188 38.392C79.1797 44.9813 77.8135 47.5286 77.8135 47.5286C77.0609 49.3151 76.1652 51.0359 75.1361 52.6736C74.4255 53.7429 73.5165 54.8177 72.2715 55.2264C71.8385 55.3797 71.3757 55.4258 70.9218 55.3608C70.4304 55.3003 69.9561 55.1384 69.528 54.8849C68.7094 54.2593 68.0583 53.4356 67.633 52.4888C67.1063 51.4378 66.6336 50.3596 66.2172 49.2585C65.2972 46.9856 63.8759 41.3872 63.8759 41.3872L62.405 35.5256L60.9341 29.6193L59.8874 25.7396C57.1329 15.6345 53.3207 10.6631 53.3207 10.6631C50.3244 6.32116 46.0793 3.02793 41.168 1.23535C35.4718 -0.841664 29.4946 0.328406 29.4946 0.328406C20.1294 2.19827 15.2099 8.72601 13.0449 11.8667C14.0358 12.1297 14.984 12.537 15.86 13.076C17.0322 13.7889 18.0453 14.7423 18.8348 15.8752C20.2451 17.913 20.5646 20.4491 20.8456 22.8732C21.4366 28.127 22.4574 33.3217 23.8975 38.4032C27.0707 27.7102 30.8773 22.7276 30.8773 22.7276C31.3027 22.1906 31.8127 21.729 32.3868 21.3616C32.6856 21.1753 33.0197 21.0551 33.3674 21.0089C34.0117 20.946 34.658 21.1058 35.2018 21.4624C35.3014 21.529 35.3954 21.6039 35.4828 21.6863C35.9804 22.1347 36.4076 22.6577 36.7498 23.2371C37.5423 24.6766 38.2291 26.1736 38.8047 27.7158C39.9946 31.1197 41.0082 35.2793 41.0082 35.2793L44.0382 47.4166C46.2417 55.6687 48.1093 59.6772 48.1093 59.6772C52.7092 70.3813 59.7442 73.3933 59.7442 73.3933C63.1691 75.2548 66.9779 76.2675 70.8612 76.3493C74.5681 76.4517 78.2448 75.6472 81.5816 74.0035C85.2401 72.1751 88.4496 69.5371 90.9743 66.2833C92.6766 64.2791 95.1831 59.3973 95.1831 59.3973C97.9469 53.8005 100.117 47.9208 101.656 41.8574C102.639 38.0799 103.428 34.2529 104.019 30.3919C104.317 28.4772 104.598 26.5514 104.824 24.6199C105.105 22.791 105.049 20.9247 104.658 19.1167C104.576 18.7916 104.476 18.472 104.355 18.1593C103.47 15.8904 101.829 14.0099 99.717 12.8464C98.1519 12.0009 96.4044 11.5642 94.6322 11.5756Z" fill="url(#paint25_radial_13250_6198)"/>
<path d="M94.6322 11.5756C93.7569 11.5736 92.8853 11.6846 92.0375 11.9059C93.9701 14.7436 95.6106 17.7752 96.935 20.9529C97.5365 22.3196 97.8461 23.8002 97.8439 25.2973C97.8412 26.6839 97.5696 28.0563 97.0446 29.3362C96.5196 30.6161 95.7522 31.7785 94.7854 32.7569C93.8186 33.7352 92.6716 34.5105 91.4095 35.0384C90.1479 35.5663 88.7966 35.8365 87.432 35.8335C85.5877 35.83 83.7774 35.3276 82.1875 34.3779L81.1188 38.392C79.1797 44.9813 77.8135 47.5286 77.8135 47.5286C77.0609 49.3151 76.1652 51.0359 75.1361 52.6736C74.4255 53.7429 73.5165 54.8177 72.2715 55.2264C71.8385 55.3797 71.3757 55.4258 70.9218 55.3608C70.4304 55.3003 69.9561 55.1384 69.528 54.8849C68.7094 54.2593 68.0583 53.4356 67.633 52.4888C67.1063 51.4378 66.6336 50.3596 66.2172 49.2585C65.2972 46.9856 63.8759 41.3872 63.8759 41.3872L62.405 35.5256L60.9341 29.6193L59.8874 25.7396C57.1329 15.6345 53.3207 10.6631 53.3207 10.6631C50.3244 6.32116 46.0793 3.02793 41.168 1.23535C35.4718 -0.841664 29.4946 0.328406 29.4946 0.328406C20.1294 2.19827 15.2099 8.72601 13.0449 11.8667C14.0358 12.1297 14.984 12.537 15.86 13.076C17.0322 13.7889 18.0453 14.7423 18.8348 15.8752C20.2451 17.913 20.5646 20.4491 20.8456 22.8732C21.4366 28.127 22.4574 33.3217 23.8975 38.4032C27.0707 27.7102 30.8773 22.7276 30.8773 22.7276C31.3027 22.1906 31.8127 21.729 32.3868 21.3616C32.6856 21.1753 33.0197 21.0551 33.3674 21.0089C34.0117 20.946 34.658 21.1058 35.2018 21.4624C35.3014 21.529 35.3954 21.6039 35.4828 21.6863C35.9804 22.1347 36.4076 22.6577 36.7498 23.2371C37.5423 24.6766 38.2291 26.1736 38.8047 27.7158C39.9946 31.1197 41.0082 35.2793 41.0082 35.2793L44.0382 47.4166C46.2417 55.6687 48.1093 59.6772 48.1093 59.6772C52.7092 70.3813 59.7442 73.3933 59.7442 73.3933C63.1691 75.2548 66.9779 76.2675 70.8612 76.3493C74.5681 76.4517 78.2448 75.6472 81.5816 74.0035C85.2401 72.1751 88.4496 69.5371 90.9743 66.2833C92.6766 64.2791 95.1831 59.3973 95.1831 59.3973C97.9469 53.8005 100.117 47.9208 101.656 41.8574C102.639 38.0799 103.428 34.2529 104.019 30.3919C104.317 28.4772 104.598 26.5514 104.824 24.6199C105.105 22.791 105.049 20.9247 104.658 19.1167C104.576 18.7916 104.476 18.472 104.355 18.1593C103.47 15.8904 101.829 14.0099 99.717 12.8464C98.1519 12.0009 96.4044 11.5642 94.6322 11.5756Z" fill="url(#paint26_radial_13250_6198)"/>
<path d="M94.6322 11.5756C93.7569 11.5736 92.8853 11.6846 92.0375 11.9059C93.9701 14.7436 95.6106 17.7752 96.935 20.9529C97.5365 22.3196 97.8461 23.8002 97.8439 25.2973C97.8412 26.6839 97.5696 28.0563 97.0446 29.3362C96.5196 30.6161 95.7522 31.7785 94.7854 32.7569C93.8186 33.7352 92.6716 34.5105 91.4095 35.0384C90.1479 35.5663 88.7966 35.8365 87.432 35.8335C85.5877 35.83 83.7774 35.3276 82.1875 34.3779L81.1188 38.392C79.1797 44.9813 77.8135 47.5286 77.8135 47.5286C77.0609 49.3151 76.1652 51.0359 75.1361 52.6736C74.4255 53.7429 73.5165 54.8177 72.2715 55.2264C71.8385 55.3797 71.3757 55.4258 70.9218 55.3608C70.4304 55.3003 69.9561 55.1384 69.528 54.8849C68.7094 54.2593 68.0583 53.4356 67.633 52.4888C67.1063 51.4378 66.6336 50.3596 66.2172 49.2585C65.2972 46.9856 63.8759 41.3872 63.8759 41.3872L62.405 35.5256L60.9341 29.6193L59.8874 25.7396C57.1329 15.6345 53.3207 10.6631 53.3207 10.6631C50.3244 6.32116 46.0793 3.02793 41.168 1.23535C35.4718 -0.841664 29.4946 0.328406 29.4946 0.328406C20.1294 2.19827 15.2099 8.72601 13.0449 11.8667C14.0358 12.1297 14.984 12.537 15.86 13.076C17.0322 13.7889 18.0453 14.7423 18.8348 15.8752C20.2451 17.913 20.5646 20.4491 20.8456 22.8732C21.4366 28.127 22.4574 33.3217 23.8975 38.4032C27.0707 27.7102 30.8773 22.7276 30.8773 22.7276C31.3027 22.1906 31.8127 21.729 32.3868 21.3616C32.6856 21.1753 33.0197 21.0551 33.3674 21.0089C34.0117 20.946 34.658 21.1058 35.2018 21.4624C35.3014 21.529 35.3954 21.6039 35.4828 21.6863C35.9804 22.1347 36.4076 22.6577 36.7498 23.2371C37.5423 24.6766 38.2291 26.1736 38.8047 27.7158C39.9946 31.1197 41.0082 35.2793 41.0082 35.2793L44.0382 47.4166C46.2417 55.6687 48.1093 59.6772 48.1093 59.6772C52.7092 70.3813 59.7442 73.3933 59.7442 73.3933C63.1691 75.2548 66.9779 76.2675 70.8612 76.3493C74.5681 76.4517 78.2448 75.6472 81.5816 74.0035C85.2401 72.1751 88.4496 69.5371 90.9743 66.2833C92.6766 64.2791 95.1831 59.3973 95.1831 59.3973C97.9469 53.8005 100.117 47.9208 101.656 41.8574C102.639 38.0799 103.428 34.2529 104.019 30.3919C104.317 28.4772 104.598 26.5514 104.824 24.6199C105.105 22.791 105.049 20.9247 104.658 19.1167C104.576 18.7916 104.476 18.472 104.355 18.1593C103.47 15.8904 101.829 14.0099 99.717 12.8464C98.1519 12.0009 96.4044 11.5642 94.6322 11.5756Z" fill="url(#paint27_radial_13250_6198)"/>
<path d="M94.6322 11.5756C93.7569 11.5736 92.8853 11.6846 92.0375 11.9059C93.9701 14.7436 95.6106 17.7752 96.935 20.9529C97.5365 22.3196 97.8461 23.8002 97.8439 25.2973C97.8412 26.6839 97.5696 28.0563 97.0446 29.3362C96.5196 30.6161 95.7522 31.7785 94.7854 32.7569C93.8186 33.7352 92.6716 34.5105 91.4095 35.0384C90.1479 35.5663 88.7966 35.8365 87.432 35.8335C85.5877 35.83 83.7774 35.3276 82.1875 34.3779L81.1188 38.392C79.1797 44.9813 77.8135 47.5286 77.8135 47.5286C77.0609 49.3151 76.1652 51.0359 75.1361 52.6736C74.4255 53.7429 73.5165 54.8177 72.2715 55.2264C71.8385 55.3797 71.3757 55.4258 70.9218 55.3608C70.4304 55.3003 69.9561 55.1384 69.528 54.8849C68.7094 54.2593 68.0583 53.4356 67.633 52.4888C67.1063 51.4378 66.6336 50.3596 66.2172 49.2585C65.2972 46.9856 63.8759 41.3872 63.8759 41.3872L62.405 35.5256L60.9341 29.6193L59.8874 25.7396C57.1329 15.6345 53.3207 10.6631 53.3207 10.6631C50.3244 6.32116 46.0793 3.02793 41.168 1.23535C35.4718 -0.841664 29.4946 0.328406 29.4946 0.328406C20.1294 2.19827 15.2099 8.72601 13.0449 11.8667C14.0358 12.1297 14.984 12.537 15.86 13.076C17.0322 13.7889 18.0453 14.7423 18.8348 15.8752C20.2451 17.913 20.5646 20.4491 20.8456 22.8732C21.4366 28.127 22.4574 33.3217 23.8975 38.4032C27.0707 27.7102 30.8773 22.7276 30.8773 22.7276C31.3027 22.1906 31.8127 21.729 32.3868 21.3616C32.6856 21.1753 33.0197 21.0551 33.3674 21.0089C34.0117 20.946 34.658 21.1058 35.2018 21.4624C35.3014 21.529 35.3954 21.6039 35.4828 21.6863C35.9804 22.1347 36.4076 22.6577 36.7498 23.2371C37.5423 24.6766 38.2291 26.1736 38.8047 27.7158C39.9946 31.1197 41.0082 35.2793 41.0082 35.2793L44.0382 47.4166C46.2417 55.6687 48.1093 59.6772 48.1093 59.6772C52.7092 70.3813 59.7442 73.3933 59.7442 73.3933C63.1691 75.2548 66.9779 76.2675 70.8612 76.3493C74.5681 76.4517 78.2448 75.6472 81.5816 74.0035C85.2401 72.1751 88.4496 69.5371 90.9743 66.2833C92.6766 64.2791 95.1831 59.3973 95.1831 59.3973C97.9469 53.8005 100.117 47.9208 101.656 41.8574C102.639 38.0799 103.428 34.2529 104.019 30.3919C104.317 28.4772 104.598 26.5514 104.824 24.6199C105.105 22.791 105.049 20.9247 104.658 19.1167C104.576 18.7916 104.476 18.472 104.355 18.1593C103.47 15.8904 101.829 14.0099 99.717 12.8464C98.1519 12.0009 96.4044 11.5642 94.6322 11.5756Z" fill="url(#paint28_radial_13250_6198)"/>
<path d="M94.6322 11.5756C93.7569 11.5736 92.8853 11.6846 92.0375 11.9059C93.9701 14.7436 95.6106 17.7752 96.935 20.9529C97.5365 22.3196 97.8461 23.8002 97.8439 25.2973C97.8412 26.6839 97.5696 28.0563 97.0446 29.3362C96.5196 30.6161 95.7522 31.7785 94.7854 32.7569C93.8186 33.7352 92.6716 34.5105 91.4095 35.0384C90.1479 35.5663 88.7966 35.8365 87.432 35.8335C85.5877 35.83 83.7774 35.3276 82.1875 34.3779L81.1188 38.392C79.1797 44.9813 77.8135 47.5286 77.8135 47.5286C77.0609 49.3151 76.1652 51.0359 75.1361 52.6736C74.4255 53.7429 73.5165 54.8177 72.2715 55.2264C71.8385 55.3797 71.3757 55.4258 70.9218 55.3608C70.4304 55.3003 69.9561 55.1384 69.528 54.8849C68.7094 54.2593 68.0583 53.4356 67.633 52.4888C67.1063 51.4378 66.6336 50.3596 66.2172 49.2585C65.2972 46.9856 63.8759 41.3872 63.8759 41.3872L62.405 35.5256L60.9341 29.6193L59.8874 25.7396C57.1329 15.6345 53.3207 10.6631 53.3207 10.6631C50.3244 6.32116 46.0793 3.02793 41.168 1.23535C35.4718 -0.841664 29.4946 0.328406 29.4946 0.328406C20.1294 2.19827 15.2099 8.72601 13.0449 11.8667C14.0358 12.1297 14.984 12.537 15.86 13.076C17.0322 13.7889 18.0453 14.7423 18.8348 15.8752C20.2451 17.913 20.5646 20.4491 20.8456 22.8732C21.4366 28.127 22.4574 33.3217 23.8975 38.4032C27.0707 27.7102 30.8773 22.7276 30.8773 22.7276C31.3027 22.1906 31.8127 21.729 32.3868 21.3616C32.6856 21.1753 33.0197 21.0551 33.3674 21.0089C34.0117 20.946 34.658 21.1058 35.2018 21.4624C35.3014 21.529 35.3954 21.6039 35.4828 21.6863C35.9804 22.1347 36.4076 22.6577 36.7498 23.2371C37.5423 24.6766 38.2291 26.1736 38.8047 27.7158C39.9946 31.1197 41.0082 35.2793 41.0082 35.2793L44.0382 47.4166C46.2417 55.6687 48.1093 59.6772 48.1093 59.6772C52.7092 70.3813 59.7442 73.3933 59.7442 73.3933C63.1691 75.2548 66.9779 76.2675 70.8612 76.3493C74.5681 76.4517 78.2448 75.6472 81.5816 74.0035C85.2401 72.1751 88.4496 69.5371 90.9743 66.2833C92.6766 64.2791 95.1831 59.3973 95.1831 59.3973C97.9469 53.8005 100.117 47.9208 101.656 41.8574C102.639 38.0799 103.428 34.2529 104.019 30.3919C104.317 28.4772 104.598 26.5514 104.824 24.6199C105.105 22.791 105.049 20.9247 104.658 19.1167C104.576 18.7916 104.476 18.472 104.355 18.1593C103.47 15.8904 101.829 14.0099 99.717 12.8464C98.1519 12.0009 96.4044 11.5642 94.6322 11.5756Z" fill="url(#paint29_radial_13250_6198)"/>
<path d="M94.6322 11.5756C93.7569 11.5736 92.8853 11.6846 92.0375 11.9059C93.9701 14.7436 95.6106 17.7752 96.935 20.9529C97.5365 22.3196 97.8461 23.8002 97.8439 25.2973C97.8412 26.6839 97.5696 28.0563 97.0446 29.3362C96.5196 30.6161 95.7522 31.7785 94.7854 32.7569C93.8186 33.7352 92.6716 34.5105 91.4095 35.0384C90.1479 35.5663 88.7966 35.8365 87.432 35.8335C85.5877 35.83 83.7774 35.3276 82.1875 34.3779L81.1188 38.392C79.1797 44.9813 77.8135 47.5286 77.8135 47.5286C77.0609 49.3151 76.1652 51.0359 75.1361 52.6736C74.4255 53.7429 73.5165 54.8177 72.2715 55.2264C71.8385 55.3797 71.3757 55.4258 70.9218 55.3608C70.4304 55.3003 69.9561 55.1384 69.528 54.8849C68.7094 54.2593 68.0583 53.4356 67.633 52.4888C67.1063 51.4378 66.6336 50.3596 66.2172 49.2585C65.2972 46.9856 63.8759 41.3872 63.8759 41.3872L62.405 35.5256L60.9341 29.6193L59.8874 25.7396C57.1329 15.6345 53.3207 10.6631 53.3207 10.6631C50.3244 6.32116 46.0793 3.02793 41.168 1.23535C35.4718 -0.841664 29.4946 0.328406 29.4946 0.328406C20.1294 2.19827 15.2099 8.72601 13.0449 11.8667C14.0358 12.1297 14.984 12.537 15.86 13.076C17.0322 13.7889 18.0453 14.7423 18.8348 15.8752C20.2451 17.913 20.5646 20.4491 20.8456 22.8732C21.4366 28.127 22.4574 33.3217 23.8975 38.4032C27.0707 27.7102 30.8773 22.7276 30.8773 22.7276C31.3027 22.1906 31.8127 21.729 32.3868 21.3616C32.6856 21.1753 33.0197 21.0551 33.3674 21.0089C34.0117 20.946 34.658 21.1058 35.2018 21.4624C35.3014 21.529 35.3954 21.6039 35.4828 21.6863C35.9804 22.1347 36.4076 22.6577 36.7498 23.2371C37.5423 24.6766 38.2291 26.1736 38.8047 27.7158C39.9946 31.1197 41.0082 35.2793 41.0082 35.2793L44.0382 47.4166C46.2417 55.6687 48.1093 59.6772 48.1093 59.6772C52.7092 70.3813 59.7442 73.3933 59.7442 73.3933C63.1691 75.2548 66.9779 76.2675 70.8612 76.3493C74.5681 76.4517 78.2448 75.6472 81.5816 74.0035C85.2401 72.1751 88.4496 69.5371 90.9743 66.2833C92.6766 64.2791 95.1831 59.3973 95.1831 59.3973C97.9469 53.8005 100.117 47.9208 101.656 41.8574C102.639 38.0799 103.428 34.2529 104.019 30.3919C104.317 28.4772 104.598 26.5514 104.824 24.6199C105.105 22.791 105.049 20.9247 104.658 19.1167C104.576 18.7916 104.476 18.472 104.355 18.1593C103.47 15.8904 101.829 14.0099 99.717 12.8464C98.1519 12.0009 96.4044 11.5642 94.6322 11.5756Z" fill="url(#paint30_radial_13250_6198)"/>
<path d="M94.6322 11.5756C93.7569 11.5736 92.8853 11.6846 92.0375 11.9059C93.9701 14.7436 95.6106 17.7752 96.935 20.9529C97.5365 22.3196 97.8461 23.8002 97.8439 25.2973C97.8412 26.6839 97.5696 28.0563 97.0446 29.3362C96.5196 30.6161 95.7522 31.7785 94.7854 32.7569C93.8186 33.7352 92.6716 34.5105 91.4095 35.0384C90.1479 35.5663 88.7966 35.8365 87.432 35.8335C85.5877 35.83 83.7774 35.3276 82.1875 34.3779L81.1188 38.392C79.1797 44.9813 77.8135 47.5286 77.8135 47.5286C77.0609 49.3151 76.1652 51.0359 75.1361 52.6736C74.4255 53.7429 73.5165 54.8177 72.2715 55.2264C71.8385 55.3797 71.3757 55.4258 70.9218 55.3608C70.4304 55.3003 69.9561 55.1384 69.528 54.8849C68.7094 54.2593 68.0583 53.4356 67.633 52.4888C67.1063 51.4378 66.6336 50.3596 66.2172 49.2585C65.2972 46.9856 63.8759 41.3872 63.8759 41.3872L62.405 35.5256L60.9341 29.6193L59.8874 25.7396C57.1329 15.6345 53.3207 10.6631 53.3207 10.6631C50.3244 6.32116 46.0793 3.02793 41.168 1.23535C35.4718 -0.841664 29.4946 0.328406 29.4946 0.328406C20.1294 2.19827 15.2099 8.72601 13.0449 11.8667C14.0358 12.1297 14.984 12.537 15.86 13.076C17.0322 13.7889 18.0453 14.7423 18.8348 15.8752C20.2451 17.913 20.5646 20.4491 20.8456 22.8732C21.4366 28.127 22.4574 33.3217 23.8975 38.4032C27.0707 27.7102 30.8773 22.7276 30.8773 22.7276C31.3027 22.1906 31.8127 21.729 32.3868 21.3616C32.6856 21.1753 33.0197 21.0551 33.3674 21.0089C34.0117 20.946 34.658 21.1058 35.2018 21.4624C35.3014 21.529 35.3954 21.6039 35.4828 21.6863C35.9804 22.1347 36.4076 22.6577 36.7498 23.2371C37.5423 24.6766 38.2291 26.1736 38.8047 27.7158C39.9946 31.1197 41.0082 35.2793 41.0082 35.2793L44.0382 47.4166C46.2417 55.6687 48.1093 59.6772 48.1093 59.6772C52.7092 70.3813 59.7442 73.3933 59.7442 73.3933C63.1691 75.2548 66.9779 76.2675 70.8612 76.3493C74.5681 76.4517 78.2448 75.6472 81.5816 74.0035C85.2401 72.1751 88.4496 69.5371 90.9743 66.2833C92.6766 64.2791 95.1831 59.3973 95.1831 59.3973C97.9469 53.8005 100.117 47.9208 101.656 41.8574C102.639 38.0799 103.428 34.2529 104.019 30.3919C104.317 28.4772 104.598 26.5514 104.824 24.6199C105.105 22.791 105.049 20.9247 104.658 19.1167C104.576 18.7916 104.476 18.472 104.355 18.1593C103.47 15.8904 101.829 14.0099 99.717 12.8464C98.1519 12.0009 96.4044 11.5642 94.6322 11.5756Z" fill="url(#paint31_radial_13250_6198)"/>
<path d="M94.6322 11.5756C93.7569 11.5736 92.8853 11.6846 92.0375 11.9059C93.9701 14.7436 95.6106 17.7752 96.935 20.9529C97.5365 22.3196 97.8461 23.8002 97.8439 25.2973C97.8412 26.6839 97.5696 28.0563 97.0446 29.3362C96.5196 30.6161 95.7522 31.7785 94.7854 32.7569C93.8186 33.7352 92.6716 34.5105 91.4095 35.0384C90.1479 35.5663 88.7966 35.8365 87.432 35.8335C85.5877 35.83 83.7774 35.3276 82.1875 34.3779L81.1188 38.392C79.1797 44.9813 77.8135 47.5286 77.8135 47.5286C77.0609 49.3151 76.1652 51.0359 75.1361 52.6736C74.4255 53.7429 73.5165 54.8177 72.2715 55.2264C71.8385 55.3797 71.3757 55.4258 70.9218 55.3608C70.4304 55.3003 69.9561 55.1384 69.528 54.8849C68.7094 54.2593 68.0583 53.4356 67.633 52.4888C67.1063 51.4378 66.6336 50.3596 66.2172 49.2585C65.2972 46.9856 63.8759 41.3872 63.8759 41.3872L62.405 35.5256L60.9341 29.6193L59.8874 25.7396C57.1329 15.6345 53.3207 10.6631 53.3207 10.6631C50.3244 6.32116 46.0793 3.02793 41.168 1.23535C35.4718 -0.841664 29.4946 0.328406 29.4946 0.328406C20.1294 2.19827 15.2099 8.72601 13.0449 11.8667C14.0358 12.1297 14.984 12.537 15.86 13.076C17.0322 13.7889 18.0453 14.7423 18.8348 15.8752C20.2451 17.913 20.5646 20.4491 20.8456 22.8732C21.4366 28.127 22.4574 33.3217 23.8975 38.4032C27.0707 27.7102 30.8773 22.7276 30.8773 22.7276C31.3027 22.1906 31.8127 21.729 32.3868 21.3616C32.6856 21.1753 33.0197 21.0551 33.3674 21.0089C34.0117 20.946 34.658 21.1058 35.2018 21.4624C35.3014 21.529 35.3954 21.6039 35.4828 21.6863C35.9804 22.1347 36.4076 22.6577 36.7498 23.2371C37.5423 24.6766 38.2291 26.1736 38.8047 27.7158C39.9946 31.1197 41.0082 35.2793 41.0082 35.2793L44.0382 47.4166C46.2417 55.6687 48.1093 59.6772 48.1093 59.6772C52.7092 70.3813 59.7442 73.3933 59.7442 73.3933C63.1691 75.2548 66.9779 76.2675 70.8612 76.3493C74.5681 76.4517 78.2448 75.6472 81.5816 74.0035C85.2401 72.1751 88.4496 69.5371 90.9743 66.2833C92.6766 64.2791 95.1831 59.3973 95.1831 59.3973C97.9469 53.8005 100.117 47.9208 101.656 41.8574C102.639 38.0799 103.428 34.2529 104.019 30.3919C104.317 28.4772 104.598 26.5514 104.824 24.6199C105.105 22.791 105.049 20.9247 104.658 19.1167C104.576 18.7916 104.476 18.472 104.355 18.1593C103.47 15.8904 101.829 14.0099 99.717 12.8464C98.1519 12.0009 96.4044 11.5642 94.6322 11.5756Z" fill="url(#paint32_radial_13250_6198)"/>
<path d="M94.6322 11.5756C93.7569 11.5736 92.8853 11.6846 92.0375 11.9059C93.9701 14.7436 95.6106 17.7752 96.935 20.9529C97.5365 22.3196 97.8461 23.8002 97.8439 25.2973C97.8412 26.6839 97.5696 28.0563 97.0446 29.3362C96.5196 30.6161 95.7522 31.7785 94.7854 32.7569C93.8186 33.7352 92.6716 34.5105 91.4095 35.0384C90.1479 35.5663 88.7966 35.8365 87.432 35.8335C85.5877 35.83 83.7774 35.3276 82.1875 34.3779L81.1188 38.392C79.1797 44.9813 77.8135 47.5286 77.8135 47.5286C77.0609 49.3151 76.1652 51.0359 75.1361 52.6736C74.4255 53.7429 73.5165 54.8177 72.2715 55.2264C71.8385 55.3797 71.3757 55.4258 70.9218 55.3608C70.4304 55.3003 69.9561 55.1384 69.528 54.8849C68.7094 54.2593 68.0583 53.4356 67.633 52.4888C67.1063 51.4378 66.6336 50.3596 66.2172 49.2585C65.2972 46.9856 63.8759 41.3872 63.8759 41.3872L62.405 35.5256L60.9341 29.6193L59.8874 25.7396C57.1329 15.6345 53.3207 10.6631 53.3207 10.6631C50.3244 6.32116 46.0793 3.02793 41.168 1.23535C35.4718 -0.841664 29.4946 0.328406 29.4946 0.328406C20.1294 2.19827 15.2099 8.72601 13.0449 11.8667C14.0358 12.1297 14.984 12.537 15.86 13.076C17.0322 13.7889 18.0453 14.7423 18.8348 15.8752C20.2451 17.913 20.5646 20.4491 20.8456 22.8732C21.4366 28.127 22.4574 33.3217 23.8975 38.4032C27.0707 27.7102 30.8773 22.7276 30.8773 22.7276C31.3027 22.1906 31.8127 21.729 32.3868 21.3616C32.6856 21.1753 33.0197 21.0551 33.3674 21.0089C34.0117 20.946 34.658 21.1058 35.2018 21.4624C35.3014 21.529 35.3954 21.6039 35.4828 21.6863C35.9804 22.1347 36.4076 22.6577 36.7498 23.2371C37.5423 24.6766 38.2291 26.1736 38.8047 27.7158C39.9946 31.1197 41.0082 35.2793 41.0082 35.2793L44.0382 47.4166C46.2417 55.6687 48.1093 59.6772 48.1093 59.6772C52.7092 70.3813 59.7442 73.3933 59.7442 73.3933C63.1691 75.2548 66.9779 76.2675 70.8612 76.3493C74.5681 76.4517 78.2448 75.6472 81.5816 74.0035C85.2401 72.1751 88.4496 69.5371 90.9743 66.2833C92.6766 64.2791 95.1831 59.3973 95.1831 59.3973C97.9469 53.8005 100.117 47.9208 101.656 41.8574C102.639 38.0799 103.428 34.2529 104.019 30.3919C104.317 28.4772 104.598 26.5514 104.824 24.6199C105.105 22.791 105.049 20.9247 104.658 19.1167C104.576 18.7916 104.476 18.472 104.355 18.1593C103.47 15.8904 101.829 14.0099 99.717 12.8464C98.1519 12.0009 96.4044 11.5642 94.6322 11.5756Z" fill="url(#paint33_radial_13250_6198)"/>
<path d="M94.6322 11.5756C93.7569 11.5736 92.8853 11.6846 92.0375 11.9059C93.9701 14.7436 95.6106 17.7752 96.935 20.9529C97.5365 22.3196 97.8461 23.8002 97.8439 25.2973C97.8412 26.6839 97.5696 28.0563 97.0446 29.3362C96.5196 30.6161 95.7522 31.7785 94.7854 32.7569C93.8186 33.7352 92.6716 34.5105 91.4095 35.0384C90.1479 35.5663 88.7966 35.8365 87.432 35.8335C85.5877 35.83 83.7774 35.3276 82.1875 34.3779L81.1188 38.392C79.1797 44.9813 77.8135 47.5286 77.8135 47.5286C77.0609 49.3151 76.1652 51.0359 75.1361 52.6736C74.4255 53.7429 73.5165 54.8177 72.2715 55.2264C71.8385 55.3797 71.3757 55.4258 70.9218 55.3608C70.4304 55.3003 69.9561 55.1384 69.528 54.8849C68.7094 54.2593 68.0583 53.4356 67.633 52.4888C67.1063 51.4378 66.6336 50.3596 66.2172 49.2585C65.2972 46.9856 63.8759 41.3872 63.8759 41.3872L62.405 35.5256L60.9341 29.6193L59.8874 25.7396C57.1329 15.6345 53.3207 10.6631 53.3207 10.6631C50.3244 6.32116 46.0793 3.02793 41.168 1.23535C35.4718 -0.841664 29.4946 0.328406 29.4946 0.328406C20.1294 2.19827 15.2099 8.72601 13.0449 11.8667C14.0358 12.1297 14.984 12.537 15.86 13.076C17.0322 13.7889 18.0453 14.7423 18.8348 15.8752C20.2451 17.913 20.5646 20.4491 20.8456 22.8732C21.4366 28.127 22.4574 33.3217 23.8975 38.4032C27.0707 27.7102 30.8773 22.7276 30.8773 22.7276C31.3027 22.1906 31.8127 21.729 32.3868 21.3616C32.6856 21.1753 33.0197 21.0551 33.3674 21.0089C34.0117 20.946 34.658 21.1058 35.2018 21.4624C35.3014 21.529 35.3954 21.6039 35.4828 21.6863C35.9804 22.1347 36.4076 22.6577 36.7498 23.2371C37.5423 24.6766 38.2291 26.1736 38.8047 27.7158C39.9946 31.1197 41.0082 35.2793 41.0082 35.2793L44.0382 47.4166C46.2417 55.6687 48.1093 59.6772 48.1093 59.6772C52.7092 70.3813 59.7442 73.3933 59.7442 73.3933C63.1691 75.2548 66.9779 76.2675 70.8612 76.3493C74.5681 76.4517 78.2448 75.6472 81.5816 74.0035C85.2401 72.1751 88.4496 69.5371 90.9743 66.2833C92.6766 64.2791 95.1831 59.3973 95.1831 59.3973C97.9469 53.8005 100.117 47.9208 101.656 41.8574C102.639 38.0799 103.428 34.2529 104.019 30.3919C104.317 28.4772 104.598 26.5514 104.824 24.6199C105.105 22.791 105.049 20.9247 104.658 19.1167C104.576 18.7916 104.476 18.472 104.355 18.1593C103.47 15.8904 101.829 14.0099 99.717 12.8464C98.1519 12.0009 96.4044 11.5642 94.6322 11.5756Z" fill="url(#paint34_linear_13250_6198)"/>
<defs>
<linearGradient id="paint0_linear_13250_6198" x1="4.70463" y1="51.5761" x2="86.7342" y2="18.9489" gradientUnits="userSpaceOnUse">
<stop offset="0.13" stop-color="#1CBBF3"/>
<stop offset="0.34" stop-color="#1F99A5"/>
<stop offset="0.45" stop-color="#209CA6"/>
<stop offset="0.51" stop-color="#24A4AA"/>
<stop offset="0.57" stop-color="#2BB3B0"/>
<stop offset="0.6" stop-color="#30BDB4"/>
<stop offset="0.79" stop-color="#38BA90"/>
<stop offset="1" stop-color="#60F05A"/>
</linearGradient>
<radialGradient id="paint1_radial_13250_6198" cx="0" cy="0" r="1" gradientTransform="matrix(10.5486 38.1887 -28.5595 8.14718 59.0677 31.8704)" gradientUnits="userSpaceOnUse">
<stop stop-color="#227B60"/>
<stop offset="0.14" stop-color="#227B60" stop-opacity="0.81"/>
<stop offset="0.58" stop-color="#227B60" stop-opacity="0.23"/>
<stop offset="0.78" stop-color="#227B60" stop-opacity="0"/>
</radialGradient>
<radialGradient id="paint2_radial_13250_6198" cx="0" cy="0" r="1" gradientTransform="matrix(-0.527773 26.8164 -20.052 -0.407567 64.7287 29.1141)" gradientUnits="userSpaceOnUse">
<stop stop-color="#227B60"/>
<stop offset="0.25" stop-color="#227B60" stop-opacity="0.7"/>
<stop offset="0.71" stop-color="#227B60" stop-opacity="0.2"/>
<stop offset="0.92" stop-color="#227B60" stop-opacity="0"/>
</radialGradient>
<radialGradient id="paint3_radial_13250_6198" cx="0" cy="0" r="1" gradientTransform="matrix(0.601102 24.995 -17.4628 0.433715 63.7106 30.098)" gradientUnits="userSpaceOnUse">
<stop stop-color="#227B60"/>
<stop offset="0.07" stop-color="#227B60" stop-opacity="0.9"/>
<stop offset="0.34" stop-color="#227B60" stop-opacity="0.51"/>
<stop offset="0.59" stop-color="#227B60" stop-opacity="0.23"/>
<stop offset="0.79" stop-color="#227B60" stop-opacity="0.06"/>
<stop offset="0.92" stop-color="#227B60" stop-opacity="0"/>
</radialGradient>
<radialGradient id="paint4_radial_13250_6198" cx="0" cy="0" r="1" gradientTransform="matrix(0.48535 20.1818 -14.1001 0.350196 64.1271 28.9584)" gradientUnits="userSpaceOnUse">
<stop stop-color="#227B60"/>
<stop offset="0.36" stop-color="#227B60" stop-opacity="0.63"/>
<stop offset="0.92" stop-color="#227B60" stop-opacity="0"/>
</radialGradient>
<radialGradient id="paint5_radial_13250_6198" cx="0" cy="0" r="1" gradientTransform="matrix(0.387096 16.0962 -10.1369 0.251765 64.9937 30.0932)" gradientUnits="userSpaceOnUse">
<stop stop-color="#20735A"/>
<stop offset="0.15" stop-color="#20745A" stop-opacity="0.93"/>
<stop offset="0.38" stop-color="#21755C" stop-opacity="0.74"/>
<stop offset="0.67" stop-color="#21785D" stop-opacity="0.43"/>
<stop offset="1" stop-color="#227B60" stop-opacity="0"/>
</radialGradient>
<radialGradient id="paint6_radial_13250_6198" cx="0" cy="0" r="1" gradientTransform="matrix(23.3272 10.4556 -7.71639 17.7796 67.1163 32.6614)" gradientUnits="userSpaceOnUse">
<stop stop-color="#227A61"/>
<stop offset="0.36" stop-color="#227A61" stop-opacity="0.56"/>
<stop offset="0.72" stop-color="#227A61" stop-opacity="0.16"/>
<stop offset="0.9" stop-color="#227A61" stop-opacity="0"/>
</radialGradient>
<radialGradient id="paint7_radial_13250_6198" cx="0" cy="0" r="1" gradientTransform="matrix(27.759 19.9533 -17.9528 25.7938 60.359 -7.8214)" gradientUnits="userSpaceOnUse">
<stop stop-color="#3CD9C3"/>
<stop offset="0.07" stop-color="#3BD7C1" stop-opacity="0.9"/>
<stop offset="0.41" stop-color="#38CEB9" stop-opacity="0.42"/>
<stop offset="0.65" stop-color="#36C8B4" stop-opacity="0.12"/>
<stop offset="0.76" stop-color="#35C6B2" stop-opacity="0"/>
</radialGradient>
<radialGradient id="paint8_radial_13250_6198" cx="0" cy="0" r="1" gradientTransform="matrix(4930.29 3543.92 -2447.87 3517.01 29534.3 -15688.9)" gradientUnits="userSpaceOnUse">
<stop stop-color="#3CD9C3"/>
<stop offset="0.07" stop-color="#3BD7C1" stop-opacity="0.9"/>
<stop offset="0.41" stop-color="#38CEB9" stop-opacity="0.42"/>
<stop offset="0.65" stop-color="#36C8B4" stop-opacity="0.12"/>
<stop offset="0.76" stop-color="#35C6B2" stop-opacity="0"/>
</radialGradient>
<radialGradient id="paint9_radial_13250_6198" cx="0" cy="0" r="1" gradientTransform="matrix(-5.70751 29.9176 -36.379 -7.16748 73.9016 38.626)" gradientUnits="userSpaceOnUse">
<stop stop-color="#237F66" stop-opacity="0.8"/>
<stop offset="0.06" stop-color="#2C8C70" stop-opacity="0.65"/>
<stop offset="0.21" stop-color="#3DA785" stop-opacity="0.37"/>
<stop offset="0.35" stop-color="#4ABA93" stop-opacity="0.17"/>
<stop offset="0.47" stop-color="#51C59C" stop-opacity="0.04"/>
<stop offset="0.56" stop-color="#54C99F" stop-opacity="0"/>
</radialGradient>
<radialGradient id="paint10_radial_13250_6198" cx="0" cy="0" r="1" gradientTransform="matrix(24.7555 -30.8682 32.8048 27.1702 55.3282 40.7944)" gradientUnits="userSpaceOnUse">
<stop stop-color="#167C8A"/>
<stop offset="0.04" stop-color="#167C8A" stop-opacity="0.93"/>
<stop offset="0.33" stop-color="#177F8D" stop-opacity="0.43"/>
<stop offset="0.54" stop-color="#17818F" stop-opacity="0.12"/>
<stop offset="0.65" stop-color="#178290" stop-opacity="0"/>
</radialGradient>
<radialGradient id="paint11_radial_13250_6198" cx="0" cy="0" r="1" gradientTransform="matrix(32.5375 -20.3901 15.8507 26.1222 52.9774 44.8172)" gradientUnits="userSpaceOnUse">
<stop offset="0.05" stop-color="#177D87"/>
<stop offset="0.11" stop-color="#177E89" stop-opacity="0.8"/>
<stop offset="0.21" stop-color="#177F8B" stop-opacity="0.52"/>
<stop offset="0.32" stop-color="#17818D" stop-opacity="0.29"/>
<stop offset="0.42" stop-color="#17818F" stop-opacity="0.13"/>
<stop offset="0.51" stop-color="#178290" stop-opacity="0.03"/>
<stop offset="0.6" stop-color="#178290" stop-opacity="0"/>
</radialGradient>
<radialGradient id="paint12_radial_13250_6198" cx="0" cy="0" r="1" gradientTransform="matrix(-14.803 -17.5894 13.6288 -11.8455 43.5511 45.4871)" gradientUnits="userSpaceOnUse">
<stop offset="0.26" stop-color="#177F8A"/>
<stop offset="0.27" stop-color="#177F8A" stop-opacity="0.98"/>
<stop offset="0.38" stop-color="#17808C" stop-opacity="0.68"/>
<stop offset="0.5" stop-color="#17818D" stop-opacity="0.43"/>
<stop offset="0.62" stop-color="#17818F" stop-opacity="0.24"/>
<stop offset="0.74" stop-color="#17828F" stop-opacity="0.11"/>
<stop offset="0.86" stop-color="#178290" stop-opacity="0.03"/>
<stop offset="1" stop-color="#178290" stop-opacity="0"/>
</radialGradient>
<radialGradient id="paint13_radial_13250_6198" cx="0" cy="0" r="1" gradientTransform="matrix(-21.2093 -2.60449 2.56286 -21.5539 39.4225 51.1764)" gradientUnits="userSpaceOnUse">
<stop stop-color="#13656E"/>
<stop offset="0.11" stop-color="#13646E" stop-opacity="0.73"/>
<stop offset="0.27" stop-color="#12646E" stop-opacity="0.41"/>
<stop offset="0.42" stop-color="#12636E" stop-opacity="0.18"/>
<stop offset="0.55" stop-color="#12636E" stop-opacity="0.05"/>
<stop offset="0.66" stop-color="#12636E" stop-opacity="0"/>
</radialGradient>
<radialGradient id="paint14_radial_13250_6198" cx="0" cy="0" r="1" gradientTransform="matrix(-7.31603 -13.2379 10.9421 -6.24528 38.8618 54.4096)" gradientUnits="userSpaceOnUse">
<stop offset="0.13" stop-color="#146A73"/>
<stop offset="0.24" stop-color="#156F79" stop-opacity="0.79"/>
<stop offset="0.45" stop-color="#167783" stop-opacity="0.45"/>
<stop offset="0.65" stop-color="#167D8A" stop-opacity="0.2"/>
<stop offset="0.82" stop-color="#17818E" stop-opacity="0.05"/>
<stop offset="0.95" stop-color="#178290" stop-opacity="0"/>
</radialGradient>
<radialGradient id="paint15_radial_13250_6198" cx="0" cy="0" r="1" gradientTransform="matrix(7.86057 -11.8397 9.22977 6.32847 37.6978 48.0815)" gradientUnits="userSpaceOnUse">
<stop stop-color="#198E9C"/>
<stop offset="0.1" stop-color="#198E9C" stop-opacity="0.87"/>
<stop offset="0.41" stop-color="#198E9C" stop-opacity="0.5"/>
<stop offset="0.67" stop-color="#198E9C" stop-opacity="0.23"/>
<stop offset="0.88" stop-color="#198E9C" stop-opacity="0.06"/>
<stop offset="1" stop-color="#198E9C" stop-opacity="0"/>
</radialGradient>
<linearGradient id="paint16_linear_13250_6198" x1="9.96568" y1="-1.7376" x2="46.529" y2="31.5622" gradientUnits="userSpaceOnUse">
<stop offset="0.13" stop-color="#2BF9FF"/>
<stop offset="0.27" stop-color="#29F9FF" stop-opacity="0.64"/>
<stop offset="0.4" stop-color="#27FAFF" stop-opacity="0.3"/>
<stop offset="0.49" stop-color="#26FAFF" stop-opacity="0.08"/>
<stop offset="0.54" stop-color="#26FAFF" stop-opacity="0"/>
</linearGradient>
<linearGradient id="paint17_linear_13250_6198" x1="-10.4394" y1="53.5635" x2="31.7483" y2="41.7941" gradientUnits="userSpaceOnUse">
<stop stop-color="#26FAFF"/>
<stop offset="0.06" stop-color="#26FAFF" stop-opacity="0.88"/>
<stop offset="0.24" stop-color="#26FAFF" stop-opacity="0.51"/>
<stop offset="0.39" stop-color="#26FAFF" stop-opacity="0.23"/>
<stop offset="0.5" stop-color="#26FAFF" stop-opacity="0.06"/>
<stop offset="0.55" stop-color="#26FAFF" stop-opacity="0"/>
</linearGradient>
<linearGradient id="paint18_linear_13250_6198" x1="0.710652" y1="52.0743" x2="48.3182" y2="35.378" gradientUnits="userSpaceOnUse">
<stop stop-color="#21DEFF"/>
<stop offset="0.04" stop-color="#21DEFF" stop-opacity="0.88"/>
<stop offset="0.17" stop-color="#21DEFF" stop-opacity="0.51"/>
<stop offset="0.27" stop-color="#21DEFF" stop-opacity="0.23"/>
<stop offset="0.34" stop-color="#21DEFF" stop-opacity="0.06"/>
<stop offset="0.38" stop-color="#21DEFF" stop-opacity="0"/>
</linearGradient>
<linearGradient id="paint19_linear_13250_6198" x1="45.7847" y1="27.2062" x2="72.9415" y2="70.7917" gradientUnits="userSpaceOnUse">
<stop offset="0.62" stop-color="#21DEFF" stop-opacity="0"/>
<stop offset="0.66" stop-color="#21DEFF" stop-opacity="0.06"/>
<stop offset="0.73" stop-color="#21DEFF" stop-opacity="0.23"/>
<stop offset="0.83" stop-color="#21DEFF" stop-opacity="0.51"/>
<stop offset="0.96" stop-color="#21DEFF" stop-opacity="0.88"/>
<stop offset="1" stop-color="#21DEFF"/>
</linearGradient>
<linearGradient id="paint20_linear_13250_6198" x1="75.3126" y1="43.6377" x2="71.0058" y2="22.9788" gradientUnits="userSpaceOnUse">
<stop stop-color="#44B044"/>
<stop offset="0.11" stop-color="#44B044" stop-opacity="0.8"/>
<stop offset="0.27" stop-color="#44B044" stop-opacity="0.52"/>
<stop offset="0.43" stop-color="#44B044" stop-opacity="0.29"/>
<stop offset="0.58" stop-color="#44B044" stop-opacity="0.13"/>
<stop offset="0.7" stop-color="#44B044" stop-opacity="0.03"/>
<stop offset="0.8" stop-color="#44B044" stop-opacity="0"/>
</linearGradient>
<linearGradient id="paint21_linear_13250_6198" x1="17.0885" y1="22.1958" x2="105.193" y2="50.8971" gradientUnits="userSpaceOnUse">
<stop stop-color="#3066FB"/>
<stop offset="0.38" stop-color="#2F64F7"/>
<stop offset="0.74" stop-color="#2857D9"/>
<stop offset="1" stop-color="#3C7EFF"/>
</linearGradient>
<radialGradient id="paint22_radial_13250_6198" cx="0" cy="0" r="1" gradientTransform="matrix(-7.09649 47.1841 -30.6438 -4.75976 79.0877 35.6819)" gradientUnits="userSpaceOnUse">
<stop stop-color="#1A3D9C"/>
<stop offset="0.4" stop-color="#1A3D9C" stop-opacity="0.42"/>
<stop offset="0.7" stop-color="#1A3D9C" stop-opacity="0"/>
</radialGradient>
<radialGradient id="paint23_radial_13250_6198" cx="0" cy="0" r="1" gradientTransform="matrix(-872.919 5803.99 -3080.02 -478.405 13818 23226.7)" gradientUnits="userSpaceOnUse">
<stop stop-color="#1A3D9C"/>
<stop offset="0.4" stop-color="#1A3D9C" stop-opacity="0.42"/>
<stop offset="0.7" stop-color="#1A3D9C" stop-opacity="0"/>
</radialGradient>
<radialGradient id="paint24_radial_13250_6198" cx="0" cy="0" r="1" gradientTransform="matrix(-1030.76 6913.57 -2811.04 -432.831 10438.6 22212.2)" gradientUnits="userSpaceOnUse">
<stop stop-color="#1A3D9C"/>
<stop offset="0.4" stop-color="#1A3D9C" stop-opacity="0.42"/>
<stop offset="0.7" stop-color="#1A3D9C" stop-opacity="0"/>
</radialGradient>
<radialGradient id="paint25_radial_13250_6198" cx="0" cy="0" r="1" gradientTransform="matrix(4.94017 41.4186 -28.4374 3.50293 71.6143 32.4671)" gradientUnits="userSpaceOnUse">
<stop stop-color="#1A3D9C"/>
<stop offset="0.16" stop-color="#1A3D9C" stop-opacity="0.69"/>
<stop offset="0.33" stop-color="#1A3D9C" stop-opacity="0.4"/>
<stop offset="0.49" stop-color="#1A3D9C" stop-opacity="0.18"/>
<stop offset="0.61" stop-color="#1A3D9C" stop-opacity="0.05"/>
<stop offset="0.7" stop-color="#1A3D9C" stop-opacity="0"/>
</radialGradient>
<radialGradient id="paint26_radial_13250_6198" cx="0" cy="0" r="1" gradientTransform="matrix(10.4509 38.6636 -25.871 7.22208 80.6599 40.28)" gradientUnits="userSpaceOnUse">
<stop stop-color="#18388F"/>
<stop offset="0.37" stop-color="#193B96" stop-opacity="0.45"/>
<stop offset="0.7" stop-color="#1A3D9C" stop-opacity="0"/>
</radialGradient>
<radialGradient id="paint27_radial_13250_6198" cx="0" cy="0" r="1" gradientTransform="matrix(4.85921 17.9768 -16.805 4.69123 76.7299 50.9668)" gradientUnits="userSpaceOnUse">
<stop stop-color="#18388F"/>
<stop offset="0.09" stop-color="#183992" stop-opacity="0.78"/>
<stop offset="0.22" stop-color="#193B96" stop-opacity="0.5"/>
<stop offset="0.35" stop-color="#193C98" stop-opacity="0.28"/>
<stop offset="0.47" stop-color="#1A3C9A" stop-opacity="0.13"/>
<stop offset="0.59" stop-color="#1A3D9C" stop-opacity="0.03"/>
<stop offset="0.7" stop-color="#1A3D9C" stop-opacity="0"/>
</radialGradient>
<radialGradient id="paint28_radial_13250_6198" cx="0" cy="0" r="1" gradientTransform="matrix(4.85921 17.9768 -16.805 4.69123 77.17 54.1471)" gradientUnits="userSpaceOnUse">
<stop stop-color="#1A3D9C" stop-opacity="0.8"/>
<stop offset="0.01" stop-color="#1A3D9C" stop-opacity="0.78"/>
<stop offset="0.24" stop-color="#1A3D9C" stop-opacity="0.45"/>
<stop offset="0.44" stop-color="#1A3D9C" stop-opacity="0.2"/>
<stop offset="0.6" stop-color="#1A3D9C" stop-opacity="0.05"/>
<stop offset="0.7" stop-color="#1A3D9C" stop-opacity="0"/>
</radialGradient>
<radialGradient id="paint29_radial_13250_6198" cx="0" cy="0" r="1" gradientTransform="matrix(17.0869 40.9622 -26.7479 11.5229 29.6982 43.1657)" gradientUnits="userSpaceOnUse">
<stop stop-color="#1A3D9C"/>
<stop offset="0.4" stop-color="#1A3D9C" stop-opacity="0.56"/>
<stop offset="0.48" stop-color="#1A3D9C" stop-opacity="0.43"/>
<stop offset="0.69" stop-color="#1A3D9C" stop-opacity="0.12"/>
<stop offset="0.79" stop-color="#1A3D9C" stop-opacity="0"/>
</radialGradient>
<radialGradient id="paint30_radial_13250_6198" cx="0" cy="0" r="1" gradientTransform="matrix(7.79933 32.0343 -20.8107 5.23268 26.8964 32.7403)" gradientUnits="userSpaceOnUse">
<stop stop-color="#1A3D9C"/>
<stop offset="0.06" stop-color="#1A3D9C" stop-opacity="0.88"/>
<stop offset="0.21" stop-color="#1A3D9C" stop-opacity="0.61"/>
<stop offset="0.36" stop-color="#1A3D9C" stop-opacity="0.39"/>
<stop offset="0.51" stop-color="#1A3D9C" stop-opacity="0.22"/>
<stop offset="0.67" stop-color="#1A3D9C" stop-opacity="0.1"/>
<stop offset="0.83" stop-color="#1A3D9C" stop-opacity="0.02"/>
<stop offset="1" stop-color="#1A3D9C" stop-opacity="0"/>
</radialGradient>
<radialGradient id="paint31_radial_13250_6198" cx="0" cy="0" r="1" gradientTransform="matrix(7.79933 32.0343 -20.8107 5.23268 26.8964 32.7403)" gradientUnits="userSpaceOnUse">
<stop stop-color="#1B3E9E"/>
<stop offset="0.06" stop-color="#1B3E9E" stop-opacity="0.87"/>
<stop offset="0.21" stop-color="#1B3E9D" stop-opacity="0.61"/>
<stop offset="0.36" stop-color="#1A3D9D" stop-opacity="0.39"/>
<stop offset="0.52" stop-color="#1A3D9C" stop-opacity="0.22"/>
<stop offset="0.67" stop-color="#1A3D9C" stop-opacity="0.1"/>
<stop offset="0.83" stop-color="#1A3D9C" stop-opacity="0.02"/>
<stop offset="1" stop-color="#1A3D9C" stop-opacity="0"/>
</radialGradient>
<radialGradient id="paint32_radial_13250_6198" cx="0" cy="0" r="1" gradientTransform="matrix(5.96684 24.5076 -15.9211 4.00323 28.1277 29.5229)" gradientUnits="userSpaceOnUse">
<stop stop-color="#183991"/>
<stop offset="0.03" stop-color="#183992" stop-opacity="0.95"/>
<stop offset="0.18" stop-color="#193A95" stop-opacity="0.66"/>
<stop offset="0.34" stop-color="#193B97" stop-opacity="0.42"/>
<stop offset="0.5" stop-color="#1A3C99" stop-opacity="0.24"/>
<stop offset="0.66" stop-color="#1A3D9B" stop-opacity="0.1"/>
<stop offset="0.82" stop-color="#1A3D9C" stop-opacity="0.03"/>
<stop offset="1" stop-color="#1A3D9C" stop-opacity="0"/>
</radialGradient>
<radialGradient id="paint33_radial_13250_6198" cx="0" cy="0" r="1" gradientTransform="matrix(0.980313 19.9248 -17.2594 0.876986 32.7801 32.8552)" gradientUnits="userSpaceOnUse">
<stop offset="0.04" stop-color="#2453D6" stop-opacity="0.6"/>
<stop offset="0.2" stop-color="#2453D6" stop-opacity="0.49"/>
<stop offset="0.52" stop-color="#2453D6" stop-opacity="0.2"/>
<stop offset="0.73" stop-color="#2453D6" stop-opacity="0"/>
</radialGradient>
<linearGradient id="paint34_linear_13250_6198" x1="74.1555" y1="-14.2499" x2="51.3495" y2="41.2212" gradientUnits="userSpaceOnUse">
<stop stop-color="#3774FF"/>
<stop offset="0.05" stop-color="#3774FF" stop-opacity="0.91"/>
<stop offset="0.16" stop-color="#3774FF" stop-opacity="0.66"/>
<stop offset="0.32" stop-color="#3774FF" stop-opacity="0.28"/>
<stop offset="0.43" stop-color="#3774FF" stop-opacity="0"/>
</linearGradient>
</defs>
</svg>
