<svg width="232" height="28" viewBox="0 0 232 28" fill="none" xmlns="http://www.w3.org/2000/svg">
<path fill-rule="evenodd" clip-rule="evenodd" d="M137.414 10.2554C138.273 10.2554 139.039 10.4719 139.713 10.9058C140.387 11.3397 140.916 11.9656 141.299 12.7827C141.686 13.5997 141.881 14.5827 141.881 15.7319C141.881 16.8814 141.689 17.8673 141.306 18.689C140.922 19.5061 140.396 20.1364 139.727 20.5796C139.057 21.0181 138.293 21.2378 137.435 21.2378C136.788 21.2378 136.259 21.1286 135.849 20.9116C135.443 20.6947 135.124 20.4406 134.894 20.1499C134.663 19.8591 134.485 19.6007 134.36 19.3745H134.235V25.0181H132.165V10.3931H134.188V12.1177H134.36C134.48 11.8961 134.654 11.6399 134.88 11.3491C135.106 11.0583 135.42 10.8043 135.821 10.5874C136.223 10.3658 136.754 10.2554 137.414 10.2554ZM136.971 12.0142C136.371 12.0142 135.863 12.1687 135.447 12.478C135.037 12.7873 134.725 13.2191 134.513 13.7729C134.3 14.3268 134.194 14.9729 134.194 15.7114C134.194 16.4593 134.303 17.115 134.52 17.6782C134.736 18.2413 135.05 18.682 135.461 19.0005C135.872 19.3144 136.375 19.4712 136.971 19.4712C137.589 19.4712 138.106 19.3076 138.521 18.98C138.937 18.6476 139.252 18.1972 139.464 17.6294C139.681 17.0617 139.789 16.4222 139.789 15.7114C139.789 15.0098 139.683 14.3794 139.471 13.8208C139.263 13.2625 138.949 12.8216 138.529 12.4985C138.114 12.1754 137.594 12.0142 136.971 12.0142Z" fill="white"/>
<path fill-rule="evenodd" clip-rule="evenodd" d="M30.4395 6.62158C31.6341 6.58856 32.8131 6.90027 33.835 7.52002C34.8569 8.13984 35.6784 9.0419 36.2012 10.1167C36.7782 11.3051 37.0659 12.6132 37.04 13.9341C37.0444 14.2267 37.0266 14.6069 36.9873 15.0698H26.6865C26.7816 15.7895 27.0514 16.4757 27.4727 17.0669C27.8458 17.5841 28.3518 17.9908 28.9365 18.2456C29.532 18.5028 30.1747 18.6321 30.8232 18.6255C31.5423 18.6228 32.2561 18.4932 32.9297 18.2417C33.628 17.9863 34.2801 17.6187 34.8604 17.1538L36.376 19.3384C35.603 20.0123 34.7026 20.5246 33.7285 20.8452C32.728 21.1592 31.6843 21.3144 30.6357 21.3042C29.3442 21.3296 28.0683 21.0158 26.9355 20.395C25.8641 19.7945 24.9864 18.9004 24.4062 17.8179C23.7821 16.6312 23.4699 15.3049 23.498 13.9644C23.4714 12.6367 23.7708 11.3227 24.3711 10.1382C24.929 9.06068 25.7802 8.16228 26.8262 7.54736C27.9237 6.91571 29.1734 6.59583 30.4395 6.62158ZM30.3867 9.32959C29.9295 9.30868 29.4722 9.38047 29.043 9.53955C28.6139 9.69865 28.2208 9.94255 27.8877 10.2563C27.2281 10.9429 26.8068 11.8237 26.6865 12.7681L33.9297 12.7544C33.8357 11.7981 33.4255 10.9003 32.7637 10.2036C32.4464 9.90628 32.0721 9.67597 31.6641 9.52588C31.2558 9.37579 30.8212 9.30856 30.3867 9.32959Z" fill="white"/>
<path fill-rule="evenodd" clip-rule="evenodd" d="M62.0322 6.60791C63.2264 6.57658 64.4043 6.88978 65.4258 7.50928C66.4474 8.12891 67.2698 9.02926 67.7939 10.103C68.371 11.2914 68.6586 12.5996 68.6328 13.9204C68.6153 14.2262 68.5843 14.6068 68.5537 15.0698H58.2578C58.3529 15.7895 58.6227 16.4747 59.0439 17.0659C59.4171 17.5831 59.9222 17.9908 60.5068 18.2456C61.1024 18.5028 61.7458 18.6321 62.3945 18.6255C63.1134 18.6221 63.8263 18.4926 64.5 18.2417C65.1983 17.9864 65.8504 17.6187 66.4307 17.1538L67.9424 19.3374C67.1717 20.0122 66.273 20.5255 65.2998 20.8452C64.2977 21.159 63.2522 21.3131 62.2021 21.3032C60.9108 21.3273 59.6353 21.0145 58.502 20.395C57.4328 19.7932 56.5574 18.8991 55.9775 17.8179C55.3521 16.6315 55.0378 15.3052 55.0645 13.9644C55.0379 12.6367 55.3374 11.3228 55.9375 10.1382C56.4954 9.06069 57.3466 8.16228 58.3926 7.54736C59.4965 6.90649 60.7561 6.58133 62.0322 6.60791ZM61.957 9.32959C61.4999 9.30823 61.0434 9.37958 60.6143 9.53857C60.1851 9.69764 59.7918 9.94118 59.459 10.2554C58.7977 10.9409 58.3763 11.823 58.2578 12.7681L65.4961 12.7544C65.3953 11.8041 64.9835 10.9139 64.3252 10.2212C64.01 9.92212 63.6381 9.6887 63.2314 9.53564C62.8248 9.3826 62.3912 9.31256 61.957 9.32959Z" fill="white"/>
<path fill-rule="evenodd" clip-rule="evenodd" d="M42.1162 8.63037C42.6105 8.0009 43.2429 7.49344 43.9639 7.146C44.7517 6.7764 45.6153 6.59374 46.4854 6.61279C47.7273 6.59768 48.9494 6.92398 50.0186 7.55615C51.0811 8.18467 51.9525 9.09096 52.5391 10.1772C53.127 11.2627 53.4449 12.4727 53.4658 13.7046V14.1978C53.445 15.4285 53.1271 16.6371 52.5391 17.7212C51.9523 18.8126 51.0782 19.7228 50.0107 20.3521C48.9435 20.9811 47.7241 21.3056 46.4854 21.2905C45.6159 21.3088 44.7528 21.1282 43.9639 20.7622C43.2409 20.4136 42.6085 19.902 42.1162 19.2681V20.9282H39.0586V1.02979H42.1162V8.63037ZM46.1396 9.48486C45.3643 9.48489 44.6027 9.68777 43.9297 10.0728C43.2949 10.4582 42.7803 11.013 42.4443 11.6753C42.081 12.3827 41.8977 13.1692 41.9111 13.9644C41.8973 14.7583 42.0807 15.5437 42.4443 16.2495C42.7803 16.9118 43.2949 17.4676 43.9297 17.853C44.6026 18.2379 45.3645 18.4399 46.1396 18.4399C46.9151 18.4399 47.6775 18.2381 48.3506 17.853V17.8267C48.9848 17.4367 49.4949 16.8742 49.8223 16.2056C50.1582 15.501 50.333 14.7303 50.333 13.9497C50.333 13.169 50.1583 12.3976 49.8223 11.6929C49.4936 11.0253 48.9835 10.4639 48.3506 10.0728C47.6775 9.68771 46.9151 9.48486 46.1396 9.48486Z" fill="white"/>
<path fill-rule="evenodd" clip-rule="evenodd" d="M155.579 10.2554C156.004 10.2554 156.454 10.3062 156.93 10.4077C157.41 10.5047 157.857 10.6847 158.272 10.9478C158.692 11.2109 159.037 11.5865 159.305 12.0757C159.572 12.5604 159.706 13.1908 159.706 13.9663V21.0298H157.685V19.5757H157.601C157.467 19.8432 157.267 20.1064 156.999 20.3647C156.731 20.6233 156.387 20.8385 155.967 21.0093C155.547 21.1801 155.043 21.2651 154.457 21.2651C153.783 21.2651 153.174 21.1404 152.629 20.8911C152.084 20.6372 151.652 20.2705 151.334 19.7905C151.02 19.3104 150.863 18.721 150.863 18.0239C150.863 17.424 150.979 16.9302 151.21 16.5425C151.441 16.1548 151.752 15.8477 152.145 15.6216C152.537 15.3954 152.975 15.2243 153.46 15.1089C153.945 14.9935 154.439 14.9062 154.942 14.8462C155.579 14.7723 156.096 14.7117 156.493 14.6655C156.89 14.6148 157.178 14.5341 157.358 14.4233C157.538 14.3125 157.629 14.1326 157.629 13.8833V13.8345C157.629 13.2299 157.458 12.7615 157.116 12.4292C156.779 12.0969 156.276 11.9302 155.606 11.9302C154.91 11.9302 154.361 12.0858 153.959 12.395C153.562 12.6997 153.287 13.0387 153.135 13.4126L151.188 12.9692C151.419 12.3229 151.757 11.8018 152.2 11.4048C152.648 11.0032 153.162 10.7118 153.744 10.5317C154.326 10.3471 154.937 10.2554 155.579 10.2554ZM157.636 15.8228C157.562 15.8966 157.418 15.9652 157.206 16.0298C156.998 16.0898 156.761 16.1428 156.493 16.189C156.226 16.2305 155.965 16.2702 155.711 16.3071C155.457 16.3394 155.244 16.3671 155.073 16.3901C154.672 16.4409 154.305 16.526 153.973 16.646C153.645 16.766 153.381 16.9393 153.183 17.1655C152.989 17.3871 152.893 17.683 152.893 18.0522C152.893 18.5646 153.082 18.9522 153.46 19.2153C153.838 19.4738 154.321 19.603 154.907 19.603C155.479 19.603 155.969 19.4902 156.375 19.2642C156.786 19.038 157.098 18.7421 157.311 18.3774C157.527 18.0083 157.636 17.6137 157.636 17.1938V15.8228Z" fill="white"/>
<path fill-rule="evenodd" clip-rule="evenodd" d="M109.361 10.2554C110.358 10.2554 111.228 10.4839 111.972 10.9409C112.715 11.3979 113.292 12.0394 113.703 12.8657C114.114 13.692 114.319 14.657 114.319 15.7603C114.319 16.8589 114.114 17.8194 113.703 18.6411C113.292 19.4627 112.715 20.1021 111.972 20.5591C111.229 21.016 110.358 21.2446 109.361 21.2446C108.364 21.2446 107.494 21.016 106.751 20.5591C106.008 20.1021 105.43 19.4627 105.02 18.6411C104.609 17.8194 104.403 16.8589 104.403 15.7603C104.403 14.657 104.609 13.692 105.02 12.8657C105.43 12.0394 106.008 11.3979 106.751 10.9409C107.494 10.4839 108.364 10.2554 109.361 10.2554ZM109.368 11.9858C108.717 11.9859 108.177 12.1592 107.748 12.5054C107.323 12.8516 107.007 13.3109 106.799 13.8833C106.596 14.4511 106.494 15.0748 106.494 15.7534C106.494 16.4364 106.596 17.0618 106.799 17.6294C107.007 18.1972 107.323 18.652 107.748 18.9937C108.177 19.3352 108.717 19.5063 109.368 19.5063C110.014 19.5063 110.55 19.3352 110.975 18.9937C111.399 18.652 111.714 18.1972 111.917 17.6294C112.125 17.0618 112.228 16.4364 112.229 15.7534C112.229 15.0748 112.125 14.4511 111.917 13.8833C111.714 13.3109 111.399 12.8516 110.975 12.5054C110.55 12.1592 110.014 11.9858 109.368 11.9858Z" fill="white"/>
<path d="M176.878 10.2554C177.686 10.2554 178.406 10.4046 179.038 10.7046C179.671 11 180.181 11.4161 180.568 11.9517C180.961 12.4871 181.194 13.1123 181.268 13.8276H179.253C179.142 13.3292 178.888 12.8995 178.491 12.5396C178.099 12.1796 177.572 11.9995 176.912 11.9995C176.335 11.9996 175.829 12.1519 175.396 12.4565C174.966 12.7566 174.632 13.1862 174.392 13.7446C174.152 14.2986 174.031 14.9544 174.031 15.7114C174.031 16.4868 174.149 17.1561 174.385 17.7192C174.62 18.2824 174.953 18.7195 175.382 19.0288C175.816 19.3381 176.326 19.4926 176.912 19.4927C177.304 19.4927 177.66 19.4209 177.979 19.2778C178.302 19.1301 178.572 18.9203 178.789 18.6479C179.011 18.3756 179.165 18.0476 179.253 17.6646H181.268C181.194 18.3522 180.971 18.9663 180.597 19.5063C180.223 20.0465 179.722 20.4715 179.094 20.7808C178.471 21.09 177.739 21.2446 176.898 21.2446C175.869 21.2446 174.982 21.0116 174.239 20.5454C173.501 20.0745 172.933 19.4255 172.536 18.5991C172.139 17.7728 171.94 16.8266 171.94 15.7603C171.94 14.68 172.144 13.7263 172.55 12.8999C172.956 12.069 173.529 11.4208 174.268 10.9546C175.006 10.4884 175.876 10.2554 176.878 10.2554Z" fill="white"/>
<path fill-rule="evenodd" clip-rule="evenodd" d="M187.071 10.2554C187.671 10.2554 188.253 10.3539 188.815 10.5522C189.379 10.7507 189.884 11.0631 190.332 11.4878C190.78 11.9124 191.133 12.4637 191.392 13.1421C191.65 13.8161 191.779 14.6362 191.779 15.6011V16.3345H184.221C184.237 16.9829 184.36 17.5392 184.592 18.0034C184.846 18.502 185.199 18.8829 185.651 19.146C186.104 19.4045 186.633 19.5337 187.237 19.5337C187.63 19.5337 187.987 19.4784 188.311 19.3677C188.634 19.2523 188.913 19.0811 189.148 18.855C189.384 18.6288 189.564 18.3493 189.688 18.0171L191.648 18.3706C191.492 18.9476 191.21 19.4533 190.804 19.8872C190.402 20.3165 189.896 20.6511 189.287 20.8911C188.682 21.1266 187.991 21.2446 187.216 21.2446C186.168 21.2446 185.266 21.0205 184.509 20.5728C183.756 20.1203 183.175 19.4856 182.764 18.6685C182.357 17.8467 182.154 16.8841 182.154 15.7808C182.154 14.6913 182.357 13.7309 182.764 12.8999C183.175 12.069 183.747 11.4208 184.481 10.9546C185.22 10.4884 186.083 10.2554 187.071 10.2554ZM187.085 11.9653C186.503 11.9653 185.995 12.1088 185.562 12.395C185.132 12.6766 184.8 13.0455 184.564 13.5024C184.362 13.8993 184.249 14.3265 184.224 14.7837H189.751C189.751 14.2389 189.64 13.7565 189.418 13.3364C189.196 12.9118 188.885 12.5772 188.483 12.3325C188.086 12.0879 187.62 11.9654 187.085 11.9653Z" fill="white"/>
<path fill-rule="evenodd" clip-rule="evenodd" d="M224.144 12.1177H224.269C224.389 11.8961 224.562 11.6399 224.788 11.3491C225.014 11.0584 225.328 10.8043 225.729 10.5874C226.131 10.3658 226.662 10.2554 227.322 10.2554C228.181 10.2554 228.947 10.4719 229.621 10.9058C230.295 11.3397 230.824 11.9656 231.207 12.7827C231.595 13.5998 231.789 14.5835 231.789 15.7329C231.789 16.8821 231.597 17.8674 231.214 18.689C230.831 19.5061 230.304 20.1364 229.635 20.5796C228.965 21.0181 228.201 21.2378 227.343 21.2378C226.697 21.2378 226.168 21.1296 225.757 20.9126C225.351 20.6957 225.033 20.4416 224.802 20.1509C224.571 19.86 224.393 19.6007 224.269 19.3745H224.096V21.0298H222.073V6.84814H224.144V12.1177ZM226.879 12.0142C226.279 12.0142 225.771 12.1687 225.355 12.478C224.945 12.7873 224.633 13.219 224.421 13.7729C224.209 14.3268 224.103 14.9729 224.103 15.7114C224.103 16.4592 224.211 17.115 224.428 17.6782C224.645 18.2414 224.958 18.6829 225.369 19.0015C225.78 19.3153 226.283 19.4722 226.879 19.4722C227.497 19.4722 228.014 19.3077 228.43 18.98C228.845 18.6477 229.16 18.198 229.372 17.6304C229.589 17.0625 229.697 16.4224 229.697 15.7114C229.697 15.01 229.591 14.3802 229.379 13.8218C229.171 13.2633 228.858 12.8217 228.438 12.4985C228.022 12.1754 227.502 12.0142 226.879 12.0142Z" fill="white"/>
<path d="M97.4785 6.65479C98.2308 6.65481 98.9322 6.76309 99.583 6.97998C100.239 7.19234 100.828 7.5059 101.35 7.92139C101.871 8.33222 102.303 8.83571 102.645 9.43115C102.986 10.022 103.217 10.6988 103.337 11.4604H101.176C101.093 10.9989 100.938 10.5925 100.712 10.2417C100.486 9.89085 100.209 9.59282 99.8809 9.34814C99.5532 9.10357 99.1864 8.91906 98.7803 8.79443C98.3786 8.66979 97.9514 8.60693 97.499 8.60693C96.6819 8.60693 95.95 8.81228 95.3037 9.22314C94.662 9.63401 94.1542 10.2367 93.7803 11.0308C93.411 11.8247 93.2266 12.7942 93.2266 13.939C93.2266 15.0931 93.411 16.0678 93.7803 16.8618C94.1541 17.6556 94.6644 18.2554 95.3105 18.6616C95.9569 19.0679 96.6843 19.271 97.4922 19.271C97.94 19.271 98.365 19.2113 98.7666 19.0913C99.1726 18.9667 99.5396 18.7843 99.8672 18.5444C100.195 18.3044 100.472 18.0108 100.698 17.6646C100.929 17.3137 101.088 16.9119 101.176 16.4595L103.337 16.4663C103.222 17.1634 102.997 17.8058 102.665 18.3921C102.337 18.9736 101.914 19.4762 101.397 19.9009C100.885 20.321 100.299 20.6466 99.6387 20.8774C98.9786 21.1082 98.2586 21.2241 97.4785 21.2241C96.2506 21.2241 95.1565 20.9327 94.1963 20.3511C93.2361 19.7648 92.4788 18.9269 91.9248 17.8374C91.3755 16.7479 91.1006 15.4485 91.1006 13.939C91.1006 12.4248 91.3777 11.1254 91.9316 10.0405C92.4856 8.95104 93.2429 8.11537 94.2031 7.53369C95.1633 6.94749 96.2552 6.65479 97.4785 6.65479Z" fill="white"/>
<path d="M213.23 16.9097C213.23 17.6345 213.431 18.2118 213.833 18.6411C214.235 19.0704 214.757 19.2847 215.398 19.2847C215.786 19.2846 216.172 19.1875 216.555 18.9937C216.942 18.7998 217.263 18.5069 217.517 18.1147C217.775 17.7223 217.902 17.2234 217.897 16.6187V10.394H219.976V21.0298H217.939V19.188H217.829C217.584 19.7558 217.191 20.2294 216.651 20.6079C216.116 20.9817 215.449 21.1684 214.65 21.1685C213.967 21.1685 213.362 21.0183 212.836 20.7183C212.314 20.4136 211.904 19.9632 211.604 19.3677C211.308 18.7722 211.16 18.0357 211.16 17.1587V10.394H213.23V16.9097Z" fill="white"/>
<path d="M126.957 10.2554C127.922 10.2554 128.709 10.557 129.318 11.1616C129.932 11.7663 130.239 12.6784 130.239 13.897V21.0298H128.169V14.0913C128.169 13.3711 127.972 12.849 127.58 12.5259C127.188 12.2028 126.719 12.0415 126.174 12.0415C125.5 12.0416 124.976 12.2493 124.603 12.6646C124.229 13.0754 124.041 13.6042 124.041 14.2505V21.0298H121.978V13.9595C121.978 13.3825 121.798 12.9187 121.438 12.5679C121.077 12.2171 120.609 12.0415 120.032 12.0415C119.64 12.0415 119.278 12.1454 118.945 12.353C118.618 12.5561 118.352 12.84 118.148 13.2046C117.95 13.5693 117.851 13.9921 117.851 14.4722V21.0298H115.78V10.3931H117.768V12.1245H117.899C118.121 11.5383 118.483 11.0812 118.986 10.7534C119.49 10.421 120.092 10.2554 120.794 10.2554C121.505 10.2554 122.1 10.4212 122.58 10.7534C123.065 11.0858 123.422 11.5429 123.653 12.1245H123.765C124.019 11.5567 124.423 11.1041 124.977 10.7671C125.53 10.4256 126.191 10.2554 126.957 10.2554Z" fill="white"/>
<path d="M145.42 21.0298H143.35V6.84814H145.42V21.0298Z" fill="white"/>
<path d="M149.427 21.0298H147.355V10.394H149.427V21.0298Z" fill="white"/>
<path d="M166.869 10.2554C167.594 10.2554 168.229 10.4077 168.773 10.7124C169.318 11.0125 169.741 11.4597 170.041 12.0552C170.341 12.6507 170.491 13.3871 170.491 14.2642V21.0298H168.42V14.5132C168.42 13.7424 168.219 13.1404 167.817 12.7065C167.416 12.2681 166.865 12.0484 166.163 12.0483C165.683 12.0483 165.256 12.1522 164.882 12.3599C164.513 12.5676 164.219 12.8723 164.002 13.2739C163.79 13.6709 163.684 14.1512 163.684 14.7144V21.0298H161.613V10.3931H163.601V12.1245H163.732C163.977 11.5613 164.36 11.1087 164.882 10.7671C165.408 10.4255 166.071 10.2554 166.869 10.2554Z" fill="white"/>
<path d="M199.844 13.0112H206.914V6.84814H209.061V21.0298H206.914V14.8462H199.844V21.0298H197.704V6.84814H199.844V13.0112Z" fill="white"/>
<path d="M6.52637 17.5776L9.96484 6.97119H13.415L16.9102 17.6343L20.1904 6.97119H23.3662L18.749 20.9282H15.1064L11.6553 10.396L8.2041 20.9282H4.61719L0 6.97119H3.25L6.52637 17.5776Z" fill="white"/>
<path d="M75.9707 11.6313L79.3779 6.97119H83L77.8184 13.7769L83.0781 20.9282H79.335L75.7959 16.0747L72.3018 20.9282H68.7324L73.9746 13.8032L68.8154 6.97119H72.5635L75.9707 11.6313Z" fill="white"/>
<path d="M148.401 6.28076C148.761 6.28076 149.068 6.40249 149.322 6.64697C149.581 6.88703 149.71 7.1784 149.71 7.52002C149.71 7.85693 149.581 8.14747 149.322 8.39209C149.068 8.63213 148.761 8.75244 148.401 8.75244C148.041 8.7524 147.732 8.63211 147.474 8.39209C147.22 8.14749 147.093 7.85688 147.093 7.52002C147.093 7.1784 147.22 6.88703 147.474 6.64697C147.732 6.40244 148.041 6.2808 148.401 6.28076Z" fill="white"/>
</svg>
