<svg width="193" height="28" viewBox="0 0 193 28" fill="none" xmlns="http://www.w3.org/2000/svg">
<path fill-rule="evenodd" clip-rule="evenodd" d="M50.1753 7.57681C51.2395 8.20836 52.112 9.11734 52.6993 10.2065C53.309 11.3753 53.6273 12.6741 53.6273 13.9924C53.6273 15.3107 53.309 16.6095 52.6993 17.7783C52.1098 18.8718 51.2324 19.7835 50.1624 20.4146C49.0922 21.0458 47.87 21.3723 46.6276 21.3592C45.7567 21.3761 44.8935 21.1937 44.1036 20.826C43.3788 20.4742 42.7438 19.9617 42.2469 19.3274V20.9932H39.1929V1.03027H42.2469V8.65738C42.7434 8.02309 43.3786 7.51098 44.1036 7.16035C44.893 6.79135 45.7565 6.60841 46.6276 6.62559C47.8751 6.61141 49.1023 6.94048 50.1753 7.57681ZM48.5032 17.8793C49.1378 17.4885 49.6491 16.9263 49.9782 16.2577C50.3157 15.5502 50.4908 14.7763 50.4908 13.9924C50.4908 13.2086 50.3157 12.4346 49.9782 11.7272C49.6491 11.058 49.1378 10.4954 48.5032 10.1039C47.8298 9.71367 47.0657 9.50696 46.2872 9.50448C45.5089 9.50199 44.7435 9.7038 44.0673 10.0897C43.431 10.4769 42.9148 11.0335 42.5766 11.6972C42.2261 12.4112 42.0438 13.1961 42.0438 13.9916C42.0438 14.7871 42.2261 15.572 42.5766 16.2861C42.9148 16.9498 43.431 17.5064 44.0673 17.8935C44.7435 18.2795 45.5089 18.4813 46.2872 18.4787C47.0657 18.4762 47.8298 18.2696 48.5032 17.8793Z" fill="white"/>
<path fill-rule="evenodd" clip-rule="evenodd" d="M26.7719 15.117H37.1107C37.1454 14.6501 37.1627 14.2699 37.1627 13.9765C37.1887 12.6519 36.9005 11.3399 36.3219 10.148C35.8042 9.08245 34.9973 8.18385 33.9936 7.5546C32.9572 6.92558 31.7636 6.60341 30.5515 6.62546C29.2804 6.60097 28.0263 6.92209 26.9233 7.5546C25.8732 8.17141 25.0193 9.07339 24.4609 10.1559C23.8548 11.3423 23.5513 12.6602 23.5775 13.9923C23.5775 15.4541 23.8819 16.7424 24.4908 17.8571C25.0683 18.9426 25.944 19.8402 27.0148 20.4442C28.1528 21.0676 29.434 21.3825 30.7313 21.3576C31.7845 21.368 32.8327 21.2126 33.8374 20.8969C34.8137 20.5751 35.7154 20.0607 36.4891 19.3841L34.97 17.2072C34.3876 17.6727 33.7334 18.0403 33.0329 18.2957C32.3577 18.5481 31.6431 18.679 30.9222 18.6821C30.2718 18.6888 29.6271 18.5597 29.0292 18.3036C28.4437 18.0455 27.9368 17.6367 27.5606 17.1189C27.1383 16.526 26.8675 15.8387 26.7719 15.117ZM32.8578 10.2505C33.4773 10.8542 33.8696 11.7018 34.0346 12.7934L26.7798 12.7966C26.9555 11.7323 27.3571 10.891 27.9849 10.2726C28.6128 9.65422 29.4484 9.34504 30.4916 9.34504C31.4497 9.34504 32.2385 9.64686 32.8578 10.2505Z" fill="white"/>
<path d="M20.2548 6.99157H23.4413L18.8114 20.9917H15.1548L11.6844 10.4226L8.22182 20.9917H4.63305L0 6.99157H3.25907L6.54653 17.6301L9.99648 6.99157H13.459L16.9532 17.6901L20.2548 6.99157Z" fill="white"/>
<path fill-rule="evenodd" clip-rule="evenodd" d="M58.4392 15.117H68.7717C68.8107 14.6501 68.8316 14.2699 68.8348 13.9765C68.8607 12.6519 68.5726 11.3399 67.994 10.148C67.4736 9.08123 66.6634 8.1825 65.6562 7.55462C64.6199 6.9252 63.4262 6.60298 62.2141 6.62548C60.9428 6.60082 59.6889 6.92197 58.5859 7.55462C57.5353 8.17103 56.6814 9.07309 56.1235 10.1559C55.5168 11.3422 55.2128 12.6601 55.2385 13.9923C55.2385 15.4541 55.543 16.7424 56.1519 17.8571C56.7328 18.9442 57.6131 19.8419 58.6885 20.4442C59.8249 21.0673 61.1045 21.3822 62.4003 21.3576C63.4529 21.368 64.5005 21.2126 65.5047 20.8969C66.482 20.5753 67.3848 20.0609 68.1596 19.3841L66.6389 17.2072C66.0573 17.673 65.4035 18.0406 64.7034 18.2957C64.0276 18.5482 63.3125 18.6791 62.5911 18.6821C61.9407 18.6888 61.296 18.5599 60.6982 18.3036C60.1121 18.0453 59.6048 17.6366 59.228 17.1189C58.8055 16.526 58.5348 15.8387 58.4392 15.117ZM64.5267 10.2505C65.144 10.8542 65.5363 11.7018 65.7035 12.7934L58.4392 12.7966C58.6138 11.7323 59.0155 10.891 59.6444 10.2726C60.2733 9.65424 61.1088 9.34505 62.151 9.34505C63.1175 9.34505 63.9094 9.64687 64.5267 10.2505Z" fill="white"/>
<path d="M79.587 20.9917H83.3429L78.0663 13.8157L83.2404 6.99157H79.6296L76.2112 11.6688L72.7912 6.99157H69.0352L74.2235 13.8457L68.9469 20.9917H72.5278L76.0345 16.1252L79.587 20.9917Z" fill="white"/>
<path fill-rule="evenodd" clip-rule="evenodd" d="M184.69 21.0002H182.694V7.00024H184.738V12.2024H184.861C184.98 11.9836 185.151 11.7307 185.374 11.4436C185.597 11.1565 185.907 10.9058 186.304 10.6917C186.7 10.4729 187.224 10.3635 187.876 10.3635C188.724 10.3635 189.48 10.5777 190.146 11.0061C190.811 11.4345 191.333 12.052 191.711 12.8586C192.094 13.6653 192.285 14.636 192.285 15.7708C192.285 16.9055 192.096 17.8785 191.718 18.6897C191.34 19.4963 190.82 20.1184 190.159 20.5559C189.498 20.9889 188.744 21.2053 187.896 21.2053C187.258 21.2053 186.737 21.0982 186.331 20.884C185.93 20.6698 185.616 20.4192 185.388 20.1321C185.16 19.845 184.984 19.5898 184.861 19.3665H184.69V21.0002ZM184.697 15.7502C184.697 16.4885 184.804 17.1357 185.019 17.6917C185.233 18.2476 185.543 18.6829 185.948 18.9973C186.354 19.3072 186.851 19.4622 187.438 19.4622C188.049 19.4622 188.56 19.3004 188.97 18.9768C189.38 18.6487 189.69 18.2043 189.899 17.6438C190.114 17.0833 190.221 16.4521 190.221 15.7502C190.221 15.0575 190.116 14.4355 189.906 13.884C189.701 13.3326 189.391 12.8974 188.977 12.5784C188.566 12.2594 188.054 12.0999 187.438 12.0999C186.846 12.0999 186.345 12.2525 185.935 12.5579C185.529 12.8632 185.221 13.2893 185.012 13.8362C184.802 14.3831 184.697 15.0211 184.697 15.7502Z" fill="white"/>
<path d="M178.583 10.5002V16.6458C178.588 17.2428 178.462 17.7349 178.207 18.1223C177.957 18.5097 177.64 18.7991 177.257 18.9905C176.879 19.1819 176.498 19.2776 176.115 19.2776C175.482 19.2776 174.967 19.0657 174.571 18.6418C174.174 18.218 173.976 17.6484 173.976 16.9329V10.5002H171.932V17.179C171.932 18.0448 172.078 18.7717 172.369 19.3596C172.666 19.9475 173.071 20.3918 173.586 20.6926C174.106 20.9889 174.703 21.137 175.377 21.137C176.166 21.137 176.824 20.9524 177.353 20.5833C177.886 20.2096 178.273 19.7424 178.515 19.1819H178.624V21.0002H180.634V10.5002H178.583Z" fill="white"/>
<path d="M158.659 21.0002V7.00024H160.771V13.0842H167.75V7.00024H169.87V21.0002H167.75V14.8958H160.771V21.0002H158.659Z" fill="white"/>
<path d="M152.35 21.0002V7.00024H150.306V21.0002H152.35Z" fill="white"/>
<path fill-rule="evenodd" clip-rule="evenodd" d="M143.98 21.2122C142.996 21.2122 142.137 20.9866 141.403 20.5354C140.67 20.0842 140.1 19.453 139.694 18.6418C139.289 17.8306 139.086 16.8827 139.086 15.7981C139.086 14.7089 139.289 13.7564 139.694 12.9407C140.1 12.1249 140.67 11.4915 141.403 11.0403C142.137 10.5891 142.996 10.3635 143.98 10.3635C144.965 10.3635 145.824 10.5891 146.558 11.0403C147.291 11.4915 147.861 12.1249 148.267 12.9407C148.672 13.7564 148.875 14.7089 148.875 15.7981C148.875 16.8827 148.672 17.8306 148.267 18.6418C147.861 19.453 147.291 20.0842 146.558 20.5354C145.824 20.9866 144.965 21.2122 143.98 21.2122ZM143.987 19.4963C144.625 19.4963 145.154 19.3277 145.573 18.9905C145.993 18.6532 146.302 18.2043 146.503 17.6438C146.708 17.0833 146.811 16.4657 146.811 15.7913C146.811 15.1213 146.708 14.5061 146.503 13.9456C146.302 13.3805 145.993 12.927 145.573 12.5852C145.154 12.2434 144.625 12.0725 143.987 12.0725C143.345 12.0725 142.812 12.2434 142.388 12.5852C141.968 12.927 141.656 13.3805 141.451 13.9456C141.251 14.5061 141.15 15.1213 141.15 15.7913C141.15 16.4657 141.251 17.0833 141.451 17.6438C141.656 18.2043 141.968 18.6532 142.388 18.9905C142.812 19.3277 143.345 19.4963 143.987 19.4963Z" fill="white"/>
<path d="M133.396 10.5002V21.0002H135.44V14.5881C135.44 14.1324 135.549 13.7268 135.768 13.3713C135.987 13.0113 136.283 12.731 136.656 12.5305C137.035 12.3254 137.465 12.2229 137.948 12.2229C138.158 12.2229 138.368 12.2389 138.577 12.2708C138.787 12.2981 138.933 12.3232 139.015 12.3459V10.3909C138.915 10.3772 138.776 10.3658 138.598 10.3567C138.425 10.3476 138.274 10.343 138.147 10.343C137.531 10.343 136.98 10.5071 136.492 10.8352C136.009 11.1588 135.672 11.6031 135.481 12.1682H135.371V10.5002H133.396Z" fill="white"/>
<path d="M131.985 10.5002V12.1409H129.831V17.9172C129.831 18.3137 129.891 18.6122 130.009 18.8127C130.128 19.0087 130.28 19.1431 130.467 19.2161C130.658 19.2844 130.866 19.3186 131.089 19.3186C131.253 19.3186 131.397 19.3072 131.52 19.2844C131.643 19.2616 131.739 19.2434 131.807 19.2297L132.176 20.9182C132.058 20.9638 131.889 21.0094 131.67 21.0549C131.451 21.1051 131.178 21.1324 130.85 21.137C130.312 21.1461 129.811 21.0504 129.346 20.8499C128.881 20.6493 128.505 20.3394 128.218 19.9202C127.931 19.5009 127.787 18.9745 127.787 18.3411V12.1409H126.249V10.5002H127.787V7.98462H129.831V10.5002H131.985Z" fill="white"/>
<path d="M118.472 21.0002V14.7659C118.472 14.2099 118.577 13.7359 118.787 13.344C119.001 12.9475 119.29 12.6467 119.655 12.4417C120.024 12.2366 120.446 12.134 120.92 12.134C121.612 12.134 122.157 12.3505 122.553 12.7834C122.95 13.2118 123.148 13.8066 123.148 14.5676V21.0002H125.192V14.3215C125.192 13.4556 125.044 12.7288 124.748 12.1409C124.452 11.553 124.035 11.1109 123.497 10.8147C122.959 10.5139 122.332 10.3635 121.617 10.3635C120.829 10.3635 120.175 10.5321 119.655 10.8694C119.14 11.2066 118.762 11.6532 118.52 12.2092H118.39V10.5002H116.428V21.0002H118.472Z" fill="white"/>
<path fill-rule="evenodd" clip-rule="evenodd" d="M110.102 21.2122C109.118 21.2122 108.259 20.9866 107.525 20.5354C106.791 20.0842 106.222 19.453 105.816 18.6418C105.411 17.8306 105.208 16.8827 105.208 15.7981C105.208 14.7089 105.411 13.7564 105.816 12.9407C106.222 12.1249 106.791 11.4915 107.525 11.0403C108.259 10.5891 109.118 10.3635 110.102 10.3635C111.087 10.3635 111.946 10.5891 112.679 11.0403C113.413 11.4915 113.983 12.1249 114.388 12.9407C114.794 13.7564 114.997 14.7089 114.997 15.7981C114.997 16.8827 114.794 17.8306 114.388 18.6418C113.983 19.453 113.413 20.0842 112.679 20.5354C111.946 20.9866 111.087 21.2122 110.102 21.2122ZM110.109 19.4963C110.747 19.4963 111.276 19.3277 111.695 18.9905C112.114 18.6532 112.424 18.2043 112.625 17.6438C112.83 17.0833 112.932 16.4657 112.932 15.7913C112.932 15.1213 112.83 14.5061 112.625 13.9456C112.424 13.3805 112.114 12.927 111.695 12.5852C111.276 12.2434 110.747 12.0725 110.109 12.0725C109.467 12.0725 108.933 12.2434 108.51 12.5852C108.09 12.927 107.778 13.3805 107.573 13.9456C107.372 14.5061 107.272 15.1213 107.272 15.7913C107.272 16.4657 107.372 17.0833 107.573 17.6438C107.778 18.2043 108.09 18.6532 108.51 18.9905C108.933 19.3277 109.467 19.4963 110.109 19.4963Z" fill="white"/>
<path d="M102.033 11.553H104.166C104.048 10.801 103.82 10.1334 103.482 9.55005C103.145 8.96216 102.719 8.46541 102.204 8.05981C101.689 7.64966 101.108 7.33976 100.461 7.13013C99.8184 6.91593 99.1256 6.80884 98.3828 6.80884C97.1751 6.80884 96.0973 7.09823 95.1494 7.677C94.2015 8.25122 93.4541 9.07609 92.9072 10.1516C92.3604 11.2226 92.0869 12.5055 92.0869 14.0002C92.0869 15.4905 92.3581 16.7734 92.9004 17.8489C93.4473 18.9244 94.1947 19.7515 95.1426 20.3303C96.0905 20.9045 97.1706 21.1917 98.3828 21.1917C99.153 21.1917 99.8639 21.0777 100.516 20.8499C101.167 20.622 101.746 20.3007 102.252 19.886C102.762 19.4667 103.179 18.97 103.503 18.3958C103.831 17.817 104.052 17.1835 104.166 16.4954L102.033 16.4885C101.947 16.9351 101.789 17.3316 101.562 17.678C101.338 18.0198 101.065 18.3092 100.741 18.5461C100.418 18.7831 100.055 18.9631 99.6543 19.0862C99.2578 19.2047 98.8385 19.2639 98.3965 19.2639C97.599 19.2639 96.8812 19.0634 96.2432 18.6624C95.6051 18.2613 95.1016 17.6689 94.7324 16.885C94.3678 16.1012 94.1855 15.1396 94.1855 14.0002C94.1855 12.87 94.3678 11.913 94.7324 11.1292C95.1016 10.3453 95.6029 9.75057 96.2363 9.34497C96.8744 8.93937 97.5967 8.73657 98.4033 8.73657C98.8499 8.73657 99.2715 8.7981 99.668 8.92114C100.069 9.04419 100.431 9.22648 100.755 9.46802C101.078 9.70955 101.352 10.0035 101.575 10.3499C101.799 10.6962 101.951 11.0972 102.033 11.553Z" fill="white"/>
</svg>
