<svg width="239" height="67" viewBox="0 0 239 67" fill="none" xmlns="http://www.w3.org/2000/svg">
<path d="M19.3528 55.898C8.37681 55.898 4.67326 42.0925 3.79787 39.3988C1.71042 32.597 1.10438 26.4688 1.03704 25.8627C0.633021 22.1587 3.59586 19.5997 6.89539 19.5997C9.38687 19.5997 12.215 21.0812 12.6191 24.6505C12.6864 25.2566 13.1578 30.442 14.9759 36.0989C16.794 42.0252 18.8141 44.2475 20.2282 44.2475C22.5176 44.2475 23.9317 38.3886 25.1438 32.7991C26.0192 28.6911 27.0292 24.5831 28.982 20.8792C32.2142 14.4816 37.2645 13 41.7088 13C51.338 13 56.1863 24.1791 56.1863 27.0748C56.1863 31.9236 52.2134 33.1358 50.5299 33.1358C46.759 33.1358 45.547 30.6441 44.4696 28.4217C43.5269 26.4687 42.5168 24.7852 41.2374 24.7852C40.8334 24.7852 40.4293 24.9872 40.0253 25.3912C36.7931 28.6911 35.7157 45.7964 29.3187 52.3288C25.6825 55.898 21.7769 55.898 19.3528 55.898Z" fill="url(#paint0_linear_13250_6163)"/>
<path d="M19.3528 55.898C8.37681 55.898 4.67326 42.0925 3.79787 39.3988C1.71042 32.597 1.10438 26.4688 1.03704 25.8627C0.633021 22.1587 3.59586 19.5997 6.89539 19.5997C9.38687 19.5997 12.215 21.0812 12.6191 24.6505C12.6864 25.2566 13.1578 30.442 14.9759 36.0989C16.794 42.0252 18.8141 44.2475 20.2282 44.2475C22.5176 44.2475 23.9317 38.3886 25.1438 32.7991C26.0192 28.6911 27.0292 24.5831 28.982 20.8792C32.2142 14.4816 37.2645 13 41.7088 13C51.338 13 56.1863 24.1791 56.1863 27.0748C56.1863 31.9236 52.2134 33.1358 50.5299 33.1358C46.759 33.1358 45.547 30.6441 44.4696 28.4217C43.5269 26.4687 42.5168 24.7852 41.2374 24.7852C40.8334 24.7852 40.4293 24.9872 40.0253 25.3912C36.7931 28.6911 35.7157 45.7964 29.3187 52.3288C25.6825 55.898 21.7769 55.898 19.3528 55.898Z" fill="url(#paint1_radial_13250_6163)"/>
<path d="M19.3528 55.898C8.37681 55.898 4.67326 42.0925 3.79787 39.3988C1.71042 32.597 1.10438 26.4688 1.03704 25.8627C0.633021 22.1587 3.59586 19.5997 6.89539 19.5997C9.38687 19.5997 12.215 21.0812 12.6191 24.6505C12.6864 25.2566 13.1578 30.442 14.9759 36.0989C16.794 42.0252 18.8141 44.2475 20.2282 44.2475C22.5176 44.2475 23.9317 38.3886 25.1438 32.7991C26.0192 28.6911 27.0292 24.5831 28.982 20.8792C32.2142 14.4816 37.2645 13 41.7088 13C51.338 13 56.1863 24.1791 56.1863 27.0748C56.1863 31.9236 52.2134 33.1358 50.5299 33.1358C46.759 33.1358 45.547 30.6441 44.4696 28.4217C43.5269 26.4687 42.5168 24.7852 41.2374 24.7852C40.8334 24.7852 40.4293 24.9872 40.0253 25.3912C36.7931 28.6911 35.7157 45.7964 29.3187 52.3288C25.6825 55.898 21.7769 55.898 19.3528 55.898Z" fill="url(#paint2_radial_13250_6163)"/>
<path d="M19.3528 55.898C8.37681 55.898 4.67326 42.0925 3.79787 39.3988C1.71042 32.597 1.10438 26.4688 1.03704 25.8627C0.633021 22.1587 3.59586 19.5997 6.89539 19.5997C9.38687 19.5997 12.215 21.0812 12.6191 24.6505C12.6864 25.2566 13.1578 30.442 14.9759 36.0989C16.794 42.0252 18.8141 44.2475 20.2282 44.2475C22.5176 44.2475 23.9317 38.3886 25.1438 32.7991C26.0192 28.6911 27.0292 24.5831 28.982 20.8792C32.2142 14.4816 37.2645 13 41.7088 13C51.338 13 56.1863 24.1791 56.1863 27.0748C56.1863 31.9236 52.2134 33.1358 50.5299 33.1358C46.759 33.1358 45.547 30.6441 44.4696 28.4217C43.5269 26.4687 42.5168 24.7852 41.2374 24.7852C40.8334 24.7852 40.4293 24.9872 40.0253 25.3912C36.7931 28.6911 35.7157 45.7964 29.3187 52.3288C25.6825 55.898 21.7769 55.898 19.3528 55.898Z" fill="url(#paint3_radial_13250_6163)"/>
<path d="M19.3528 55.898C8.37681 55.898 4.67326 42.0925 3.79787 39.3988C1.71042 32.597 1.10438 26.4688 1.03704 25.8627C0.633021 22.1587 3.59586 19.5997 6.89539 19.5997C9.38687 19.5997 12.215 21.0812 12.6191 24.6505C12.6864 25.2566 13.1578 30.442 14.9759 36.0989C16.794 42.0252 18.8141 44.2475 20.2282 44.2475C22.5176 44.2475 23.9317 38.3886 25.1438 32.7991C26.0192 28.6911 27.0292 24.5831 28.982 20.8792C32.2142 14.4816 37.2645 13 41.7088 13C51.338 13 56.1863 24.1791 56.1863 27.0748C56.1863 31.9236 52.2134 33.1358 50.5299 33.1358C46.759 33.1358 45.547 30.6441 44.4696 28.4217C43.5269 26.4687 42.5168 24.7852 41.2374 24.7852C40.8334 24.7852 40.4293 24.9872 40.0253 25.3912C36.7931 28.6911 35.7157 45.7964 29.3187 52.3288C25.6825 55.898 21.7769 55.898 19.3528 55.898Z" fill="url(#paint4_radial_13250_6163)"/>
<path d="M19.3528 55.898C8.37681 55.898 4.67326 42.0925 3.79787 39.3988C1.71042 32.597 1.10438 26.4688 1.03704 25.8627C0.633021 22.1587 3.59586 19.5997 6.89539 19.5997C9.38687 19.5997 12.215 21.0812 12.6191 24.6505C12.6864 25.2566 13.1578 30.442 14.9759 36.0989C16.794 42.0252 18.8141 44.2475 20.2282 44.2475C22.5176 44.2475 23.9317 38.3886 25.1438 32.7991C26.0192 28.6911 27.0292 24.5831 28.982 20.8792C32.2142 14.4816 37.2645 13 41.7088 13C51.338 13 56.1863 24.1791 56.1863 27.0748C56.1863 31.9236 52.2134 33.1358 50.5299 33.1358C46.759 33.1358 45.547 30.6441 44.4696 28.4217C43.5269 26.4687 42.5168 24.7852 41.2374 24.7852C40.8334 24.7852 40.4293 24.9872 40.0253 25.3912C36.7931 28.6911 35.7157 45.7964 29.3187 52.3288C25.6825 55.898 21.7769 55.898 19.3528 55.898Z" fill="url(#paint5_radial_13250_6163)"/>
<path d="M19.3528 55.898C8.37681 55.898 4.67326 42.0925 3.79787 39.3988C1.71042 32.597 1.10438 26.4688 1.03704 25.8627C0.633021 22.1587 3.59586 19.5997 6.89539 19.5997C9.38687 19.5997 12.215 21.0812 12.6191 24.6505C12.6864 25.2566 13.1578 30.442 14.9759 36.0989C16.794 42.0252 18.8141 44.2475 20.2282 44.2475C22.5176 44.2475 23.9317 38.3886 25.1438 32.7991C26.0192 28.6911 27.0292 24.5831 28.982 20.8792C32.2142 14.4816 37.2645 13 41.7088 13C51.338 13 56.1863 24.1791 56.1863 27.0748C56.1863 31.9236 52.2134 33.1358 50.5299 33.1358C46.759 33.1358 45.547 30.6441 44.4696 28.4217C43.5269 26.4687 42.5168 24.7852 41.2374 24.7852C40.8334 24.7852 40.4293 24.9872 40.0253 25.3912C36.7931 28.6911 35.7157 45.7964 29.3187 52.3288C25.6825 55.898 21.7769 55.898 19.3528 55.898Z" fill="url(#paint6_radial_13250_6163)"/>
<path d="M19.3528 55.898C8.37681 55.898 4.67326 42.0925 3.79787 39.3988C1.71042 32.597 1.10438 26.4688 1.03704 25.8627C0.633021 22.1587 3.59586 19.5997 6.89539 19.5997C9.38687 19.5997 12.215 21.0812 12.6191 24.6505C12.6864 25.2566 13.1578 30.442 14.9759 36.0989C16.794 42.0252 18.8141 44.2475 20.2282 44.2475C22.5176 44.2475 23.9317 38.3886 25.1438 32.7991C26.0192 28.6911 27.0292 24.5831 28.982 20.8792C32.2142 14.4816 37.2645 13 41.7088 13C51.338 13 56.1863 24.1791 56.1863 27.0748C56.1863 31.9236 52.2134 33.1358 50.5299 33.1358C46.759 33.1358 45.547 30.6441 44.4696 28.4217C43.5269 26.4687 42.5168 24.7852 41.2374 24.7852C40.8334 24.7852 40.4293 24.9872 40.0253 25.3912C36.7931 28.6911 35.7157 45.7964 29.3187 52.3288C25.6825 55.898 21.7769 55.898 19.3528 55.898Z" fill="url(#paint7_radial_13250_6163)"/>
<path d="M19.3528 55.898C8.37681 55.898 4.67326 42.0925 3.79787 39.3988C1.71042 32.597 1.10438 26.4688 1.03704 25.8627C0.633021 22.1587 3.59586 19.5997 6.89539 19.5997C9.38687 19.5997 12.215 21.0812 12.6191 24.6505C12.6864 25.2566 13.1578 30.442 14.9759 36.0989C16.794 42.0252 18.8141 44.2475 20.2282 44.2475C22.5176 44.2475 23.9317 38.3886 25.1438 32.7991C26.0192 28.6911 27.0292 24.5831 28.982 20.8792C32.2142 14.4816 37.2645 13 41.7088 13C51.338 13 56.1863 24.1791 56.1863 27.0748C56.1863 31.9236 52.2134 33.1358 50.5299 33.1358C46.759 33.1358 45.547 30.6441 44.4696 28.4217C43.5269 26.4687 42.5168 24.7852 41.2374 24.7852C40.8334 24.7852 40.4293 24.9872 40.0253 25.3912C36.7931 28.6911 35.7157 45.7964 29.3187 52.3288C25.6825 55.898 21.7769 55.898 19.3528 55.898Z" fill="url(#paint8_radial_13250_6163)"/>
<path d="M41.7088 13C37.3318 13 32.2142 14.4816 28.8474 20.8792C26.8946 24.5831 25.9519 28.6911 25.0091 32.7991C24.7398 34.1459 24.4031 35.4928 24.0664 36.8397V55.4266C25.7498 54.9552 27.5006 54.0797 29.2514 52.3288C35.7158 45.7964 36.7931 28.6911 39.958 25.3913C40.2947 24.9872 40.6987 24.7852 41.1701 24.7852C42.4495 24.7852 43.4595 26.4014 44.4023 28.4217C45.4797 30.6441 46.7591 33.1358 50.4626 33.1358C52.146 33.1358 56.1189 31.9236 56.1189 27.0748C56.1189 24.1791 51.338 13 41.7088 13Z" fill="url(#paint9_radial_13250_6163)"/>
<path d="M19.3528 55.898C8.37681 55.898 4.67326 42.0925 3.79787 39.3988C1.71042 32.597 1.10438 26.4688 1.03704 25.8627C0.633021 22.1587 3.59586 19.5997 6.89539 19.5997C9.38687 19.5997 12.215 21.0812 12.6191 24.6505C12.6864 25.2566 13.1578 30.442 14.9759 36.0989C16.794 42.0252 18.8141 44.2475 20.2282 44.2475C22.5176 44.2475 23.9317 38.3886 25.1438 32.7991C26.0192 28.6911 27.0292 24.5831 28.982 20.8792C32.2142 14.4816 37.2645 13 41.7088 13C51.338 13 56.1863 24.1791 56.1863 27.0748C56.1863 31.9236 52.2134 33.1358 50.5299 33.1358C46.759 33.1358 45.547 30.6441 44.4696 28.4217C43.5269 26.4687 42.5168 24.7852 41.2374 24.7852C40.8334 24.7852 40.4293 24.9872 40.0253 25.3912C36.7931 28.6911 35.7157 45.7964 29.3187 52.3288C25.6825 55.898 21.7769 55.898 19.3528 55.898Z" fill="url(#paint10_radial_13250_6163)"/>
<path d="M19.3528 55.898C8.37681 55.898 4.67326 42.0925 3.79787 39.3988C1.71042 32.597 1.10438 26.4688 1.03704 25.8627C0.633021 22.1587 3.59586 19.5997 6.89539 19.5997C9.38687 19.5997 12.215 21.0812 12.6191 24.6505C12.6864 25.2566 13.1578 30.442 14.9759 36.0989C16.794 42.0252 18.8141 44.2475 20.2282 44.2475C22.5176 44.2475 23.9317 38.3886 25.1438 32.7991C26.0192 28.6911 27.0292 24.5831 28.982 20.8792C32.2142 14.4816 37.2645 13 41.7088 13C51.338 13 56.1863 24.1791 56.1863 27.0748C56.1863 31.9236 52.2134 33.1358 50.5299 33.1358C46.759 33.1358 45.547 30.6441 44.4696 28.4217C43.5269 26.4687 42.5168 24.7852 41.2374 24.7852C40.8334 24.7852 40.4293 24.9872 40.0253 25.3912C36.7931 28.6911 35.7157 45.7964 29.3187 52.3288C25.6825 55.898 21.7769 55.898 19.3528 55.898Z" fill="url(#paint11_radial_13250_6163)"/>
<path d="M19.3528 55.898C8.37681 55.898 4.67326 42.0925 3.79787 39.3988C1.71042 32.597 1.10438 26.4688 1.03704 25.8627C0.633021 22.1587 3.59586 19.5997 6.89539 19.5997C9.38687 19.5997 12.215 21.0812 12.6191 24.6505C12.6864 25.2566 13.1578 30.442 14.9759 36.0989C16.794 42.0252 18.8141 44.2475 20.2282 44.2475C22.5176 44.2475 23.9317 38.3886 25.1438 32.7991C26.0192 28.6911 27.0292 24.5831 28.982 20.8792C32.2142 14.4816 37.2645 13 41.7088 13C51.338 13 56.1863 24.1791 56.1863 27.0748C56.1863 31.9236 52.2134 33.1358 50.5299 33.1358C46.759 33.1358 45.547 30.6441 44.4696 28.4217C43.5269 26.4687 42.5168 24.7852 41.2374 24.7852C40.8334 24.7852 40.4293 24.9872 40.0253 25.3912C36.7931 28.6911 35.7157 45.7964 29.3187 52.3288C25.6825 55.898 21.7769 55.898 19.3528 55.898Z" fill="url(#paint12_radial_13250_6163)"/>
<path d="M19.3528 55.898C8.37681 55.898 4.67326 42.0925 3.79787 39.3988C1.71042 32.597 1.10438 26.4688 1.03704 25.8627C0.633021 22.1587 3.59586 19.5997 6.89539 19.5997C9.38687 19.5997 12.215 21.0812 12.6191 24.6505C12.6864 25.2566 13.1578 30.442 14.9759 36.0989C16.794 42.0252 18.8141 44.2475 20.2282 44.2475C22.5176 44.2475 23.9317 38.3886 25.1438 32.7991C26.0192 28.6911 27.0292 24.5831 28.982 20.8792C32.2142 14.4816 37.2645 13 41.7088 13C51.338 13 56.1863 24.1791 56.1863 27.0748C56.1863 31.9236 52.2134 33.1358 50.5299 33.1358C46.759 33.1358 45.547 30.6441 44.4696 28.4217C43.5269 26.4687 42.5168 24.7852 41.2374 24.7852C40.8334 24.7852 40.4293 24.9872 40.0253 25.3912C36.7931 28.6911 35.7157 45.7964 29.3187 52.3288C25.6825 55.898 21.7769 55.898 19.3528 55.898Z" fill="url(#paint13_radial_13250_6163)"/>
<path d="M19.3528 55.898C8.37681 55.898 4.67326 42.0925 3.79787 39.3988C1.71042 32.597 1.10438 26.4688 1.03704 25.8627C0.633021 22.1587 3.59586 19.5997 6.89539 19.5997C9.38687 19.5997 12.215 21.0812 12.6191 24.6505C12.6864 25.2566 13.1578 30.442 14.9759 36.0989C16.794 42.0252 18.8141 44.2475 20.2282 44.2475C22.5176 44.2475 23.9317 38.3886 25.1438 32.7991C26.0192 28.6911 27.0292 24.5831 28.982 20.8792C32.2142 14.4816 37.2645 13 41.7088 13C51.338 13 56.1863 24.1791 56.1863 27.0748C56.1863 31.9236 52.2134 33.1358 50.5299 33.1358C46.759 33.1358 45.547 30.6441 44.4696 28.4217C43.5269 26.4687 42.5168 24.7852 41.2374 24.7852C40.8334 24.7852 40.4293 24.9872 40.0253 25.3912C36.7931 28.6911 35.7157 45.7964 29.3187 52.3288C25.6825 55.898 21.7769 55.898 19.3528 55.898Z" fill="url(#paint14_radial_13250_6163)"/>
<path d="M54.3663 19.5997C53.9623 19.5997 53.491 19.667 53.0869 19.7344C55.1071 22.6975 56.1171 25.728 56.1171 27.0748C56.1171 31.9236 52.1442 33.1358 50.4608 33.1358C49.114 33.1358 48.104 32.7991 47.2959 32.3277V32.395C47.0266 33.3378 46.8919 34.4153 46.5552 35.4255C45.9492 37.3784 45.0738 39.6008 44.1311 41.3517C43.121 43.2373 42.1783 44.3148 41.0336 44.2475C39.6868 44.1802 38.6768 42.4966 37.33 37.7152C36.926 36.1663 36.522 34.4827 36.118 32.7991C35.1752 28.6911 34.0978 24.5158 32.2124 20.8792C29.1149 14.8856 23.7952 13 19.553 13C15.6474 13 12.6846 14.8856 10.3951 17.2427C9.78908 17.9161 9.04837 18.7916 8.375 19.8017C10.3951 20.2731 12.2806 21.822 12.6172 24.6505C12.6846 25.1892 13.0886 29.5666 14.5027 34.6173C14.9067 33.3378 15.5127 31.4522 16.8595 28.4891C17.5329 27.0748 18.1389 26.1994 18.6776 25.6606C19.149 25.1219 19.6203 24.9198 20.0243 24.9198C20.4957 24.9198 21.9771 25.3239 23.4585 30.442C25.2093 36.705 26.5561 46.8066 31.6737 52.1941C33.9632 54.5511 37.128 56.1 41.5049 56.1C45.3432 56.1 48.5753 54.4164 50.8648 52.0594C54.6357 48.1534 56.7232 41.7558 57.4639 39.3988C59.5513 32.6644 60.1573 26.5361 60.2247 25.8627C60.6287 22.1587 57.4639 19.5997 54.3663 19.5997Z" fill="#4A4A4A"/>
<path d="M54.3663 19.5997C53.9623 19.5997 53.491 19.667 53.0869 19.7344C55.1071 22.6975 56.1171 25.728 56.1171 27.0748C56.1171 31.9236 52.1442 33.1358 50.4608 33.1358C49.114 33.1358 48.104 32.7991 47.2959 32.3277V32.395C47.0266 33.3378 46.8919 34.4153 46.5552 35.4255C45.9492 37.3784 45.0738 39.6008 44.1311 41.3517C43.121 43.2373 42.1783 44.3148 41.0336 44.2475C39.6868 44.1802 38.6768 42.4966 37.33 37.7152C36.926 36.1663 36.522 34.4827 36.118 32.7991C35.1752 28.6911 34.0978 24.5158 32.2124 20.8792C29.1149 14.8856 23.7952 13 19.553 13C15.6474 13 12.6846 14.8856 10.3951 17.2427C9.78908 17.9161 9.04837 18.7916 8.375 19.8017C10.3951 20.2731 12.2806 21.822 12.6172 24.6505C12.6846 25.1892 13.0886 29.5666 14.5027 34.6173C14.9067 33.3378 15.5127 31.4522 16.8595 28.4891C17.5329 27.0748 18.1389 26.1994 18.6776 25.6606C19.149 25.1219 19.6203 24.9198 20.0243 24.9198C20.4957 24.9198 21.9771 25.3239 23.4585 30.442C25.2093 36.705 26.5561 46.8066 31.6737 52.1941C33.9632 54.5511 37.128 56.1 41.5049 56.1C45.3432 56.1 48.5753 54.4164 50.8648 52.0594C54.6357 48.1534 56.7232 41.7558 57.4639 39.3988C59.5513 32.6644 60.1573 26.5361 60.2247 25.8627C60.6287 22.1587 57.4639 19.5997 54.3663 19.5997Z" fill="url(#paint15_linear_13250_6163)"/>
<path d="M54.3663 19.5997C53.9623 19.5997 53.491 19.667 53.0869 19.7344C55.1071 22.6975 56.1171 25.728 56.1171 27.0748C56.1171 31.9236 52.1442 33.1358 50.4608 33.1358C49.114 33.1358 48.104 32.7991 47.2959 32.3277V32.395C47.0266 33.3378 46.8919 34.4153 46.5552 35.4255C45.9492 37.3784 45.0738 39.6008 44.1311 41.3517C43.121 43.2373 42.1783 44.3148 41.0336 44.2475C39.6868 44.1802 38.6768 42.4966 37.33 37.7152C36.926 36.1663 36.522 34.4827 36.118 32.7991C35.1752 28.6911 34.0978 24.5158 32.2124 20.8792C29.1149 14.8856 23.7952 13 19.553 13C15.6474 13 12.6846 14.8856 10.3951 17.2427C9.78908 17.9161 9.04837 18.7916 8.375 19.8017C10.3951 20.2731 12.2806 21.822 12.6172 24.6505C12.6846 25.1892 13.0886 29.5666 14.5027 34.6173C14.9067 33.3378 15.5127 31.4522 16.8595 28.4891C17.5329 27.0748 18.1389 26.1994 18.6776 25.6606C19.149 25.1219 19.6203 24.9198 20.0243 24.9198C20.4957 24.9198 21.9771 25.3239 23.4585 30.442C25.2093 36.705 26.5561 46.8066 31.6737 52.1941C33.9632 54.5511 37.128 56.1 41.5049 56.1C45.3432 56.1 48.5753 54.4164 50.8648 52.0594C54.6357 48.1534 56.7232 41.7558 57.4639 39.3988C59.5513 32.6644 60.1573 26.5361 60.2247 25.8627C60.6287 22.1587 57.4639 19.5997 54.3663 19.5997Z" fill="url(#paint16_radial_13250_6163)"/>
<path d="M54.3663 19.5997C53.9623 19.5997 53.491 19.667 53.0869 19.7344C55.1071 22.6975 56.1171 25.728 56.1171 27.0748C56.1171 31.9236 52.1442 33.1358 50.4608 33.1358C49.114 33.1358 48.104 32.7991 47.2959 32.3277V32.395C47.0266 33.3378 46.8919 34.4153 46.5552 35.4255C45.9492 37.3784 45.0738 39.6008 44.1311 41.3517C43.121 43.2373 42.1783 44.3148 41.0336 44.2475C39.6868 44.1802 38.6768 42.4966 37.33 37.7152C36.926 36.1663 36.522 34.4827 36.118 32.7991C35.1752 28.6911 34.0978 24.5158 32.2124 20.8792C29.1149 14.8856 23.7952 13 19.553 13C15.6474 13 12.6846 14.8856 10.3951 17.2427C9.78908 17.9161 9.04837 18.7916 8.375 19.8017C10.3951 20.2731 12.2806 21.822 12.6172 24.6505C12.6846 25.1892 13.0886 29.5666 14.5027 34.6173C14.9067 33.3378 15.5127 31.4522 16.8595 28.4891C17.5329 27.0748 18.1389 26.1994 18.6776 25.6606C19.149 25.1219 19.6203 24.9198 20.0243 24.9198C20.4957 24.9198 21.9771 25.3239 23.4585 30.442C25.2093 36.705 26.5561 46.8066 31.6737 52.1941C33.9632 54.5511 37.128 56.1 41.5049 56.1C45.3432 56.1 48.5753 54.4164 50.8648 52.0594C54.6357 48.1534 56.7232 41.7558 57.4639 39.3988C59.5513 32.6644 60.1573 26.5361 60.2247 25.8627C60.6287 22.1587 57.4639 19.5997 54.3663 19.5997Z" fill="url(#paint17_linear_13250_6163)"/>
<path d="M54.3663 19.5997C53.9623 19.5997 53.491 19.667 53.0869 19.7344C55.1071 22.6975 56.1171 25.728 56.1171 27.0748C56.1171 31.9236 52.1442 33.1358 50.4608 33.1358C49.114 33.1358 48.104 32.7991 47.2959 32.3277V32.395C47.0266 33.3378 46.8919 34.4153 46.5552 35.4255C45.9492 37.3784 45.0738 39.6008 44.1311 41.3517C43.121 43.2373 42.1783 44.3148 41.0336 44.2475C39.6868 44.1802 38.6768 42.4966 37.33 37.7152C36.926 36.1663 36.522 34.4827 36.118 32.7991C35.1752 28.6911 34.0978 24.5158 32.2124 20.8792C29.1149 14.8856 23.7952 13 19.553 13C15.6474 13 12.6846 14.8856 10.3951 17.2427C9.78908 17.9161 9.04837 18.7916 8.375 19.8017C10.3951 20.2731 12.2806 21.822 12.6172 24.6505C12.6846 25.1892 13.0886 29.5666 14.5027 34.6173C14.9067 33.3378 15.5127 31.4522 16.8595 28.4891C17.5329 27.0748 18.1389 26.1994 18.6776 25.6606C19.149 25.1219 19.6203 24.9198 20.0243 24.9198C20.4957 24.9198 21.9771 25.3239 23.4585 30.442C25.2093 36.705 26.5561 46.8066 31.6737 52.1941C33.9632 54.5511 37.128 56.1 41.5049 56.1C45.3432 56.1 48.5753 54.4164 50.8648 52.0594C54.6357 48.1534 56.7232 41.7558 57.4639 39.3988C59.5513 32.6644 60.1573 26.5361 60.2247 25.8627C60.6287 22.1587 57.4639 19.5997 54.3663 19.5997Z" fill="url(#paint18_linear_13250_6163)"/>
<path d="M54.3663 19.5997C53.9623 19.5997 53.491 19.667 53.0869 19.7344C55.1071 22.6975 56.1171 25.728 56.1171 27.0748C56.1171 31.9236 52.1442 33.1358 50.4608 33.1358C49.114 33.1358 48.104 32.7991 47.2959 32.3277V32.395C47.0266 33.3378 46.8919 34.4153 46.5552 35.4255C45.9492 37.3784 45.0738 39.6008 44.1311 41.3517C43.121 43.2373 42.1783 44.3148 41.0336 44.2475C39.6868 44.1802 38.6768 42.4966 37.33 37.7152C36.926 36.1663 36.522 34.4827 36.118 32.7991C35.1752 28.6911 34.0978 24.5158 32.2124 20.8792C29.1149 14.8856 23.7952 13 19.553 13C15.6474 13 12.6846 14.8856 10.3951 17.2427C9.78908 17.9161 9.04837 18.7916 8.375 19.8017C10.3951 20.2731 12.2806 21.822 12.6172 24.6505C12.6846 25.1892 13.0886 29.5666 14.5027 34.6173C14.9067 33.3378 15.5127 31.4522 16.8595 28.4891C17.5329 27.0748 18.1389 26.1994 18.6776 25.6606C19.149 25.1219 19.6203 24.9198 20.0243 24.9198C20.4957 24.9198 21.9771 25.3239 23.4585 30.442C25.2093 36.705 26.5561 46.8066 31.6737 52.1941C33.9632 54.5511 37.128 56.1 41.5049 56.1C45.3432 56.1 48.5753 54.4164 50.8648 52.0594C54.6357 48.1534 56.7232 41.7558 57.4639 39.3988C59.5513 32.6644 60.1573 26.5361 60.2247 25.8627C60.6287 22.1587 57.4639 19.5997 54.3663 19.5997Z" fill="url(#paint19_radial_13250_6163)"/>
<path d="M54.3663 19.5997C53.9623 19.5997 53.491 19.667 53.0869 19.7344C55.1071 22.6975 56.1171 25.728 56.1171 27.0748C56.1171 31.9236 52.1442 33.1358 50.4608 33.1358C49.114 33.1358 48.104 32.7991 47.2959 32.3277V32.395C47.0266 33.3378 46.8919 34.4153 46.5552 35.4255C45.9492 37.3784 45.0738 39.6008 44.1311 41.3517C43.121 43.2373 42.1783 44.3148 41.0336 44.2475C39.6868 44.1802 38.6768 42.4966 37.33 37.7152C36.926 36.1663 36.522 34.4827 36.118 32.7991C35.1752 28.6911 34.0978 24.5158 32.2124 20.8792C29.1149 14.8856 23.7952 13 19.553 13C15.6474 13 12.6846 14.8856 10.3951 17.2427C9.78908 17.9161 9.04837 18.7916 8.375 19.8017C10.3951 20.2731 12.2806 21.822 12.6172 24.6505C12.6846 25.1892 13.0886 29.5666 14.5027 34.6173C14.9067 33.3378 15.5127 31.4522 16.8595 28.4891C17.5329 27.0748 18.1389 26.1994 18.6776 25.6606C19.149 25.1219 19.6203 24.9198 20.0243 24.9198C20.4957 24.9198 21.9771 25.3239 23.4585 30.442C25.2093 36.705 26.5561 46.8066 31.6737 52.1941C33.9632 54.5511 37.128 56.1 41.5049 56.1C45.3432 56.1 48.5753 54.4164 50.8648 52.0594C54.6357 48.1534 56.7232 41.7558 57.4639 39.3988C59.5513 32.6644 60.1573 26.5361 60.2247 25.8627C60.6287 22.1587 57.4639 19.5997 54.3663 19.5997Z" fill="url(#paint20_radial_13250_6163)"/>
<path d="M54.3663 19.5997C53.9623 19.5997 53.491 19.667 53.0869 19.7344C55.1071 22.6975 56.1171 25.728 56.1171 27.0748C56.1171 31.9236 52.1442 33.1358 50.4608 33.1358C49.114 33.1358 48.104 32.7991 47.2959 32.3277V32.395C47.0266 33.3378 46.8919 34.4153 46.5552 35.4255C45.9492 37.3784 45.0738 39.6008 44.1311 41.3517C43.121 43.2373 42.1783 44.3148 41.0336 44.2475C39.6868 44.1802 38.6768 42.4966 37.33 37.7152C36.926 36.1663 36.522 34.4827 36.118 32.7991C35.1752 28.6911 34.0978 24.5158 32.2124 20.8792C29.1149 14.8856 23.7952 13 19.553 13C15.6474 13 12.6846 14.8856 10.3951 17.2427C9.78908 17.9161 9.04837 18.7916 8.375 19.8017C10.3951 20.2731 12.2806 21.822 12.6172 24.6505C12.6846 25.1892 13.0886 29.5666 14.5027 34.6173C14.9067 33.3378 15.5127 31.4522 16.8595 28.4891C17.5329 27.0748 18.1389 26.1994 18.6776 25.6606C19.149 25.1219 19.6203 24.9198 20.0243 24.9198C20.4957 24.9198 21.9771 25.3239 23.4585 30.442C25.2093 36.705 26.5561 46.8066 31.6737 52.1941C33.9632 54.5511 37.128 56.1 41.5049 56.1C45.3432 56.1 48.5753 54.4164 50.8648 52.0594C54.6357 48.1534 56.7232 41.7558 57.4639 39.3988C59.5513 32.6644 60.1573 26.5361 60.2247 25.8627C60.6287 22.1587 57.4639 19.5997 54.3663 19.5997Z" fill="url(#paint21_radial_13250_6163)"/>
<path d="M54.3663 19.5997C53.9623 19.5997 53.491 19.667 53.0869 19.7344C55.1071 22.6975 56.1171 25.728 56.1171 27.0748C56.1171 31.9236 52.1442 33.1358 50.4608 33.1358C49.114 33.1358 48.104 32.7991 47.2959 32.3277V32.395C47.0266 33.3378 46.8919 34.4153 46.5552 35.4255C45.9492 37.3784 45.0738 39.6008 44.1311 41.3517C43.121 43.2373 42.1783 44.3148 41.0336 44.2475C39.6868 44.1802 38.6768 42.4966 37.33 37.7152C36.926 36.1663 36.522 34.4827 36.118 32.7991C35.1752 28.6911 34.0978 24.5158 32.2124 20.8792C29.1149 14.8856 23.7952 13 19.553 13C15.6474 13 12.6846 14.8856 10.3951 17.2427C9.78908 17.9161 9.04837 18.7916 8.375 19.8017C10.3951 20.2731 12.2806 21.822 12.6172 24.6505C12.6846 25.1892 13.0886 29.5666 14.5027 34.6173C14.9067 33.3378 15.5127 31.4522 16.8595 28.4891C17.5329 27.0748 18.1389 26.1994 18.6776 25.6606C19.149 25.1219 19.6203 24.9198 20.0243 24.9198C20.4957 24.9198 21.9771 25.3239 23.4585 30.442C25.2093 36.705 26.5561 46.8066 31.6737 52.1941C33.9632 54.5511 37.128 56.1 41.5049 56.1C45.3432 56.1 48.5753 54.4164 50.8648 52.0594C54.6357 48.1534 56.7232 41.7558 57.4639 39.3988C59.5513 32.6644 60.1573 26.5361 60.2247 25.8627C60.6287 22.1587 57.4639 19.5997 54.3663 19.5997Z" fill="url(#paint22_radial_13250_6163)"/>
<path d="M54.3663 19.5997C53.9623 19.5997 53.491 19.667 53.0869 19.7344C55.1071 22.6975 56.1171 25.728 56.1171 27.0748C56.1171 31.9236 52.1442 33.1358 50.4608 33.1358C49.114 33.1358 48.104 32.7991 47.2959 32.3277V32.395C47.0266 33.3378 46.8919 34.4153 46.5552 35.4255C45.9492 37.3784 45.0738 39.6008 44.1311 41.3517C43.121 43.2373 42.1783 44.3148 41.0336 44.2475C39.6868 44.1802 38.6768 42.4966 37.33 37.7152C36.926 36.1663 36.522 34.4827 36.118 32.7991C35.1752 28.6911 34.0978 24.5158 32.2124 20.8792C29.1149 14.8856 23.7952 13 19.553 13C15.6474 13 12.6846 14.8856 10.3951 17.2427C9.78908 17.9161 9.04837 18.7916 8.375 19.8017C10.3951 20.2731 12.2806 21.822 12.6172 24.6505C12.6846 25.1892 13.0886 29.5666 14.5027 34.6173C14.9067 33.3378 15.5127 31.4522 16.8595 28.4891C17.5329 27.0748 18.1389 26.1994 18.6776 25.6606C19.149 25.1219 19.6203 24.9198 20.0243 24.9198C20.4957 24.9198 21.9771 25.3239 23.4585 30.442C25.2093 36.705 26.5561 46.8066 31.6737 52.1941C33.9632 54.5511 37.128 56.1 41.5049 56.1C45.3432 56.1 48.5753 54.4164 50.8648 52.0594C54.6357 48.1534 56.7232 41.7558 57.4639 39.3988C59.5513 32.6644 60.1573 26.5361 60.2247 25.8627C60.6287 22.1587 57.4639 19.5997 54.3663 19.5997Z" fill="url(#paint23_radial_13250_6163)"/>
<path d="M54.3663 19.5997C53.9623 19.5997 53.491 19.667 53.0869 19.7344C55.1071 22.6975 56.1171 25.728 56.1171 27.0748C56.1171 31.9236 52.1442 33.1358 50.4608 33.1358C49.114 33.1358 48.104 32.7991 47.2959 32.3277V32.395C47.0266 33.3378 46.8919 34.4153 46.5552 35.4255C45.9492 37.3784 45.0738 39.6008 44.1311 41.3517C43.121 43.2373 42.1783 44.3148 41.0336 44.2475C39.6868 44.1802 38.6768 42.4966 37.33 37.7152C36.926 36.1663 36.522 34.4827 36.118 32.7991C35.1752 28.6911 34.0978 24.5158 32.2124 20.8792C29.1149 14.8856 23.7952 13 19.553 13C15.6474 13 12.6846 14.8856 10.3951 17.2427C9.78908 17.9161 9.04837 18.7916 8.375 19.8017C10.3951 20.2731 12.2806 21.822 12.6172 24.6505C12.6846 25.1892 13.0886 29.5666 14.5027 34.6173C14.9067 33.3378 15.5127 31.4522 16.8595 28.4891C17.5329 27.0748 18.1389 26.1994 18.6776 25.6606C19.149 25.1219 19.6203 24.9198 20.0243 24.9198C20.4957 24.9198 21.9771 25.3239 23.4585 30.442C25.2093 36.705 26.5561 46.8066 31.6737 52.1941C33.9632 54.5511 37.128 56.1 41.5049 56.1C45.3432 56.1 48.5753 54.4164 50.8648 52.0594C54.6357 48.1534 56.7232 41.7558 57.4639 39.3988C59.5513 32.6644 60.1573 26.5361 60.2247 25.8627C60.6287 22.1587 57.4639 19.5997 54.3663 19.5997Z" fill="url(#paint24_linear_13250_6163)"/>
<path d="M54.3663 19.5997C53.9623 19.5997 53.491 19.667 53.0869 19.7344C55.1071 22.6975 56.1171 25.728 56.1171 27.0748C56.1171 31.9236 52.1442 33.1358 50.4608 33.1358C49.114 33.1358 48.104 32.7991 47.2959 32.3277V32.395C47.0266 33.3378 46.8919 34.4153 46.5552 35.4255C45.9492 37.3784 45.0738 39.6008 44.1311 41.3517C43.121 43.2373 42.1783 44.3148 41.0336 44.2475C39.6868 44.1802 38.6768 42.4966 37.33 37.7152C36.926 36.1663 36.522 34.4827 36.118 32.7991C35.1752 28.6911 34.0978 24.5158 32.2124 20.8792C29.1149 14.8856 23.7952 13 19.553 13C15.6474 13 12.6846 14.8856 10.3951 17.2427C9.78908 17.9161 9.04837 18.7916 8.375 19.8017C10.3951 20.2731 12.2806 21.822 12.6172 24.6505C12.6846 25.1892 13.0886 29.5666 14.5027 34.6173C14.9067 33.3378 15.5127 31.4522 16.8595 28.4891C17.5329 27.0748 18.1389 26.1994 18.6776 25.6606C19.149 25.1219 19.6203 24.9198 20.0243 24.9198C20.4957 24.9198 21.9771 25.3239 23.4585 30.442C25.2093 36.705 26.5561 46.8066 31.6737 52.1941C33.9632 54.5511 37.128 56.1 41.5049 56.1C45.3432 56.1 48.5753 54.4164 50.8648 52.0594C54.6357 48.1534 56.7232 41.7558 57.4639 39.3988C59.5513 32.6644 60.1573 26.5361 60.2247 25.8627C60.6287 22.1587 57.4639 19.5997 54.3663 19.5997Z" fill="url(#paint25_radial_13250_6163)"/>
<path d="M54.3663 19.5997C53.9623 19.5997 53.491 19.667 53.0869 19.7344C55.1071 22.6975 56.1171 25.728 56.1171 27.0748C56.1171 31.9236 52.1442 33.1358 50.4608 33.1358C49.114 33.1358 48.104 32.7991 47.2959 32.3277V32.395C47.0266 33.3378 46.8919 34.4153 46.5552 35.4255C45.9492 37.3784 45.0738 39.6008 44.1311 41.3517C43.121 43.2373 42.1783 44.3148 41.0336 44.2475C39.6868 44.1802 38.6768 42.4966 37.33 37.7152C36.926 36.1663 36.522 34.4827 36.118 32.7991C35.1752 28.6911 34.0978 24.5158 32.2124 20.8792C29.1149 14.8856 23.7952 13 19.553 13C15.6474 13 12.6846 14.8856 10.3951 17.2427C9.78908 17.9161 9.04837 18.7916 8.375 19.8017C10.3951 20.2731 12.2806 21.822 12.6172 24.6505C12.6846 25.1892 13.0886 29.5666 14.5027 34.6173C14.9067 33.3378 15.5127 31.4522 16.8595 28.4891C17.5329 27.0748 18.1389 26.1994 18.6776 25.6606C19.149 25.1219 19.6203 24.9198 20.0243 24.9198C20.4957 24.9198 21.9771 25.3239 23.4585 30.442C25.2093 36.705 26.5561 46.8066 31.6737 52.1941C33.9632 54.5511 37.128 56.1 41.5049 56.1C45.3432 56.1 48.5753 54.4164 50.8648 52.0594C54.6357 48.1534 56.7232 41.7558 57.4639 39.3988C59.5513 32.6644 60.1573 26.5361 60.2247 25.8627C60.6287 22.1587 57.4639 19.5997 54.3663 19.5997Z" fill="url(#paint26_radial_13250_6163)"/>
<path d="M54.3663 19.5997C53.9623 19.5997 53.491 19.667 53.0869 19.7344C55.1071 22.6975 56.1171 25.728 56.1171 27.0748C56.1171 31.9236 52.1442 33.1358 50.4608 33.1358C49.114 33.1358 48.104 32.7991 47.2959 32.3277V32.395C47.0266 33.3378 46.8919 34.4153 46.5552 35.4255C45.9492 37.3784 45.0738 39.6008 44.1311 41.3517C43.121 43.2373 42.1783 44.3148 41.0336 44.2475C39.6868 44.1802 38.6768 42.4966 37.33 37.7152C36.926 36.1663 36.522 34.4827 36.118 32.7991C35.1752 28.6911 34.0978 24.5158 32.2124 20.8792C29.1149 14.8856 23.7952 13 19.553 13C15.6474 13 12.6846 14.8856 10.3951 17.2427C9.78908 17.9161 9.04837 18.7916 8.375 19.8017C10.3951 20.2731 12.2806 21.822 12.6172 24.6505C12.6846 25.1892 13.0886 29.5666 14.5027 34.6173C14.9067 33.3378 15.5127 31.4522 16.8595 28.4891C17.5329 27.0748 18.1389 26.1994 18.6776 25.6606C19.149 25.1219 19.6203 24.9198 20.0243 24.9198C20.4957 24.9198 21.9771 25.3239 23.4585 30.442C25.2093 36.705 26.5561 46.8066 31.6737 52.1941C33.9632 54.5511 37.128 56.1 41.5049 56.1C45.3432 56.1 48.5753 54.4164 50.8648 52.0594C54.6357 48.1534 56.7232 41.7558 57.4639 39.3988C59.5513 32.6644 60.1573 26.5361 60.2247 25.8627C60.6287 22.1587 57.4639 19.5997 54.3663 19.5997Z" fill="url(#paint27_linear_13250_6163)"/>
<path d="M113.895 24.6443H120.17L111.047 51.9999H103.848L97.0291 31.3569L90.2101 51.9999H83.1236L74 24.6443H80.4219L86.8956 45.4329L93.6886 24.6443H100.508L107.413 45.5442L113.895 24.6443Z" fill="black"/>
<path d="M147.084 40.5184H126.73C126.918 41.9291 127.452 43.2725 128.284 44.4313C129.021 45.4452 130.02 46.2437 131.176 46.743C132.352 47.2472 133.623 47.501 134.904 47.4879C136.325 47.4826 137.734 47.2275 139.065 46.7345C140.445 46.234 141.733 45.5139 142.88 44.6025L145.875 48.8835C144.348 50.2046 142.569 51.2089 140.644 51.8374C138.667 52.453 136.605 52.7564 134.533 52.7364C131.981 52.7863 129.461 52.1723 127.222 50.9555C125.105 49.7786 123.371 48.0259 122.225 45.904C120.991 43.5781 120.374 40.9797 120.429 38.3523C120.376 35.7496 120.969 33.1739 122.156 30.8519C123.258 28.7399 124.94 26.9799 127.006 25.7746C129.175 24.5366 131.643 23.909 134.145 23.9595C136.506 23.8947 138.835 24.5064 140.854 25.7212C142.873 26.936 144.497 28.7025 145.53 30.8091C146.67 33.1387 147.238 35.7031 147.187 38.2923C147.196 38.866 147.161 39.6109 147.084 40.5184ZM141.041 35.9806C140.856 34.1058 140.045 32.3461 138.737 30.9804C138.11 30.3974 137.371 29.9454 136.564 29.6512C135.758 29.3571 134.9 29.2267 134.041 29.268C133.138 29.2269 132.235 29.3665 131.387 29.6783C130.539 29.9901 129.762 30.4678 129.104 31.0831C127.8 32.4288 126.968 34.155 126.73 36.0063L141.041 35.9806Z" fill="black"/>
<path d="M172.831 25.7917C174.931 27.0236 176.653 28.7996 177.812 30.9289C179.051 33.1983 179.681 35.7458 179.642 38.3265C179.681 40.9044 179.051 43.4491 177.812 45.7155C176.653 47.8545 174.924 49.6376 172.815 50.8708C170.706 52.1041 168.297 52.7404 165.848 52.7106C164.13 52.7464 162.427 52.392 160.868 51.6746C159.439 50.9913 158.19 49.989 157.217 48.7464V52H151.175V13H157.217V27.8979C158.194 26.6637 159.443 25.6679 160.868 24.9868C162.425 24.2624 164.129 23.9049 165.848 23.9423C168.303 23.9125 170.719 24.5522 172.831 25.7917ZM169.534 45.921C170.787 45.1567 171.796 44.0551 172.443 42.7445C173.107 41.3633 173.452 39.8524 173.452 38.3222C173.452 36.792 173.107 35.2811 172.443 33.8999C171.793 32.5911 170.785 31.4902 169.534 30.7234C168.204 29.9687 166.699 29.5717 165.167 29.5717C163.634 29.5717 162.129 29.9687 160.799 30.7234C159.545 31.479 158.528 32.5673 157.864 33.8656C157.146 35.2524 156.785 36.7935 156.811 38.3521C156.784 39.9082 157.146 41.4467 157.864 42.8301C158.528 44.1284 159.545 45.2167 160.799 45.9723C162.129 46.727 163.634 47.124 165.167 47.124C166.699 47.124 168.204 46.727 169.534 45.9723V45.921Z" fill="black"/>
<path d="M209.455 40.5183H189.111C189.299 41.9289 189.832 43.2724 190.664 44.4311C191.402 45.445 192.401 46.2435 193.556 46.7429C194.733 47.2471 196.003 47.5008 197.285 47.4878C198.706 47.4812 200.114 47.2261 201.445 46.7343C202.825 46.2338 204.114 45.5137 205.26 44.6024L208.247 48.8834C206.724 50.2061 204.948 51.2107 203.025 51.8373C201.045 52.4523 198.98 52.7557 196.905 52.7363C194.353 52.7834 191.833 52.1696 189.594 50.9554C187.481 49.7757 185.751 48.0235 184.605 45.9038C183.369 43.5786 182.748 40.9802 182.801 38.3521C182.749 35.7495 183.341 33.1739 184.527 30.8518C185.63 28.7398 187.311 26.9797 189.378 25.7745C191.559 24.5184 194.047 23.8816 196.568 23.9337C198.929 23.8721 201.257 24.485 203.275 25.6995C205.294 26.914 206.918 28.6787 207.953 30.7833C209.094 33.1129 209.662 35.6773 209.611 38.2665C209.576 38.8658 209.516 39.6107 209.455 40.5183ZM203.413 35.9804C203.214 34.1177 202.401 32.3722 201.1 31.0145C200.477 30.4283 199.742 29.9717 198.939 29.6718C198.135 29.3718 197.28 29.2344 196.422 29.2678C195.518 29.2258 194.615 29.3649 193.767 29.6768C192.918 29.9886 192.142 30.4669 191.484 31.083C190.178 32.4265 189.345 34.1538 189.111 36.0061L203.413 35.9804Z" fill="black"/>
<path d="M238.156 51.9999H230.758L223.767 42.4875L216.862 51.9999H209.81L220.167 38.0353L209.974 24.6443H217.379L224.112 33.78L230.845 24.6443H238L227.763 37.9839L238.156 51.9999Z" fill="black"/>
<defs>
<linearGradient id="paint0_linear_13250_6163" x1="50.245" y1="25.9245" x2="11.4897" y2="38.6438" gradientUnits="userSpaceOnUse">
<stop stop-color="#7B7B7B"/>
<stop offset="1" stop-color="#464646"/>
</linearGradient>
<radialGradient id="paint1_radial_13250_6163" cx="0" cy="0" r="1" gradientTransform="matrix(-13.0248 -21.7814 18.2907 -10.9396 23.5251 35.8856)" gradientUnits="userSpaceOnUse">
<stop/>
<stop offset="0.4079" stop-opacity="0.75"/>
<stop offset="0.8745" stop-opacity="0"/>
</radialGradient>
<radialGradient id="paint2_radial_13250_6163" cx="0" cy="0" r="1" gradientTransform="matrix(-12.3858 -16.584 10.8981 -8.14084 40.2088 31.1765)" gradientUnits="userSpaceOnUse">
<stop stop-color="#0D0D0D"/>
<stop offset="0.4595" stop-color="#090909"/>
<stop offset="1" stop-opacity="0"/>
</radialGradient>
<radialGradient id="paint3_radial_13250_6163" cx="0" cy="0" r="1" gradientTransform="matrix(-9.87838 -17.9141 12.4189 -6.84945 26.8933 38.9273)" gradientUnits="userSpaceOnUse">
<stop/>
<stop offset="0.4079" stop-opacity="0.79"/>
<stop offset="0.8745" stop-opacity="0"/>
</radialGradient>
<radialGradient id="paint4_radial_13250_6163" cx="0" cy="0" r="1" gradientTransform="matrix(1.37845 16.0604 -9.11586 0.782558 37.2046 31.6326)" gradientUnits="userSpaceOnUse">
<stop/>
<stop offset="0.2326" stop-opacity="0.75"/>
<stop offset="0.5989" stop-opacity="0.3008"/>
<stop offset="0.8745" stop-opacity="0"/>
</radialGradient>
<radialGradient id="paint5_radial_13250_6163" cx="0" cy="0" r="1" gradientTransform="matrix(10.3063 15.9056 -8.3445 5.40802 37.903 5.57791)" gradientUnits="userSpaceOnUse">
<stop stop-color="#2B2B2B"/>
<stop offset="0.4079" stop-color="#323232"/>
<stop offset="1" stop-color="#323232" stop-opacity="0.07"/>
</radialGradient>
<radialGradient id="paint6_radial_13250_6163" cx="0" cy="0" r="1" gradientTransform="matrix(9.09054 8.41798 -11.6334 12.5653 -1.72506 20.4078)" gradientUnits="userSpaceOnUse">
<stop stop-color="white"/>
<stop offset="1" stop-color="#4A4A4A" stop-opacity="0"/>
</radialGradient>
<radialGradient id="paint7_radial_13250_6163" cx="0" cy="0" r="1" gradientTransform="matrix(15.1509 -2.35703 3.25734 20.9421 -8.45878 32.8664)" gradientUnits="userSpaceOnUse">
<stop stop-color="white"/>
<stop offset="1" stop-color="#4A4A4A" stop-opacity="0"/>
</radialGradient>
<radialGradient id="paint8_radial_13250_6163" cx="0" cy="0" r="1" gradientTransform="matrix(13.4675 -8.41799 11.6334 18.6152 -4.75523 47.682)" gradientUnits="userSpaceOnUse">
<stop stop-color="white"/>
<stop offset="1" stop-color="#4A4A4A" stop-opacity="0"/>
</radialGradient>
<radialGradient id="paint9_radial_13250_6163" cx="0" cy="0" r="1" gradientTransform="matrix(33.6033 37.3081 -37.249 33.5565 12.1305 -3.08229)" gradientUnits="userSpaceOnUse">
<stop stop-color="#464646"/>
<stop offset="0.7454" stop-color="#444444" stop-opacity="0"/>
</radialGradient>
<radialGradient id="paint10_radial_13250_6163" cx="0" cy="0" r="1" gradientTransform="matrix(-10.9021 -13.1918 9.23611 -7.63446 51.5898 25.3561)" gradientUnits="userSpaceOnUse">
<stop stop-color="#717171"/>
<stop offset="1" stop-color="#444444" stop-opacity="0"/>
</radialGradient>
<radialGradient id="paint11_radial_13250_6163" cx="0" cy="0" r="1" gradientTransform="matrix(0.897202 -4.17477 5.83827 1.25495 48.8924 36.0036)" gradientUnits="userSpaceOnUse">
<stop stop-color="#0F0F0F"/>
<stop offset="1" stop-opacity="0"/>
</radialGradient>
<radialGradient id="paint12_radial_13250_6163" cx="0" cy="0" r="1" gradientTransform="matrix(-10.1552 -5.5047 3.86699 -7.13526 54.5016 23.4383)" gradientUnits="userSpaceOnUse">
<stop stop-color="#7C7C7C"/>
<stop offset="0.8133" stop-color="#727272" stop-opacity="0"/>
</radialGradient>
<radialGradient id="paint13_radial_13250_6163" cx="0" cy="0" r="1" gradientTransform="matrix(-11.8386 -2.13756 1.50161 -8.31811 56.185 20.0711)" gradientUnits="userSpaceOnUse">
<stop stop-color="#C4C4C4"/>
<stop offset="0.8133" stop-color="#727272" stop-opacity="0"/>
</radialGradient>
<radialGradient id="paint14_radial_13250_6163" cx="0" cy="0" r="1" gradientTransform="matrix(16.0348 18.8606 -18.8142 15.9985 -7.72009 9.36732)" gradientUnits="userSpaceOnUse">
<stop stop-color="#4C4C4C"/>
<stop offset="1" stop-color="#494949" stop-opacity="0"/>
</radialGradient>
<linearGradient id="paint15_linear_13250_6163" x1="58.5413" y1="33.5398" x2="4.67145" y2="33.5398" gradientUnits="userSpaceOnUse">
<stop stop-color="#3E3E3E" stop-opacity="0"/>
<stop offset="0.460592" stop-color="#3E3E3E"/>
<stop offset="1" stop-color="#3E3E3E" stop-opacity="0"/>
</linearGradient>
<radialGradient id="paint16_radial_13250_6163" cx="0" cy="0" r="1" gradientTransform="matrix(10.0071 7.66082 -10.645 13.9079 49.5759 32.3671)" gradientUnits="userSpaceOnUse">
<stop stop-color="#010101"/>
<stop offset="0.9661" stop-color="#010101" stop-opacity="0"/>
</radialGradient>
<linearGradient id="paint17_linear_13250_6163" x1="73.0188" y1="27.4789" x2="49.1127" y2="42.9659" gradientUnits="userSpaceOnUse">
<stop stop-color="white" stop-opacity="0.3"/>
<stop offset="0.9661" stop-color="white" stop-opacity="0"/>
</linearGradient>
<linearGradient id="paint18_linear_13250_6163" x1="56.5211" y1="56.1" x2="43.7266" y2="49.7033" gradientUnits="userSpaceOnUse">
<stop stop-color="white" stop-opacity="0.3"/>
<stop offset="0.9661" stop-color="white" stop-opacity="0"/>
</linearGradient>
<radialGradient id="paint19_radial_13250_6163" cx="0" cy="0" r="1" gradientTransform="matrix(14.7113 2.19332 -3.27092 21.9434 46.429 33.8139)" gradientUnits="userSpaceOnUse">
<stop stop-color="#010101"/>
<stop offset="0.5925" stop-color="#010101" stop-opacity="0"/>
</radialGradient>
<radialGradient id="paint20_radial_13250_6163" cx="0" cy="0" r="1" gradientTransform="matrix(11.5466 5.29793 -9.43432 20.5657 47.6362 35.6542)" gradientUnits="userSpaceOnUse">
<stop stop-color="#010101"/>
<stop offset="0.7568" stop-color="#010101" stop-opacity="0"/>
</radialGradient>
<radialGradient id="paint21_radial_13250_6163" cx="0" cy="0" r="1" gradientTransform="matrix(-1.01005 9.76486 -4.2026 -0.43479 20.159 32.5297)" gradientUnits="userSpaceOnUse">
<stop stop-color="#010101"/>
<stop offset="0.8846" stop-color="#010101" stop-opacity="0"/>
</radialGradient>
<radialGradient id="paint22_radial_13250_6163" cx="0" cy="0" r="1" gradientTransform="matrix(25.2515 -3.36719 3.4319 25.7418 5.34482 35.2234)" gradientUnits="userSpaceOnUse">
<stop stop-color="#010101" stop-opacity="0.5"/>
<stop offset="0.8846" stop-color="#010101" stop-opacity="0"/>
</radialGradient>
<radialGradient id="paint23_radial_13250_6163" cx="0" cy="0" r="1" gradientTransform="matrix(28.2816 -1.6836 3.28864 55.2543 8.375 31.1828)" gradientUnits="userSpaceOnUse">
<stop stop-color="#010101" stop-opacity="0.5"/>
<stop offset="0.822914" stop-color="#010101" stop-opacity="0"/>
</radialGradient>
<linearGradient id="paint24_linear_13250_6163" x1="23.1892" y1="61.4875" x2="36.9945" y2="49.3669" gradientUnits="userSpaceOnUse">
<stop stop-color="#010101"/>
<stop offset="1" stop-color="#010101" stop-opacity="0"/>
</linearGradient>
<radialGradient id="paint25_radial_13250_6163" cx="0" cy="0" r="1" gradientTransform="matrix(-10.5368 -3.93113 6.72629 -18.0323 15.8322 28.7017)" gradientUnits="userSpaceOnUse">
<stop stop-color="#010101"/>
<stop offset="0.709" stop-color="#010101" stop-opacity="0"/>
</radialGradient>
<radialGradient id="paint26_radial_13250_6163" cx="0" cy="0" r="1" gradientTransform="matrix(7.40709 11.7851 -7.95275 4.99935 28.2395 20.4078)" gradientUnits="userSpaceOnUse">
<stop stop-color="white" stop-opacity="0.15"/>
<stop offset="1" stop-color="white" stop-opacity="0"/>
</radialGradient>
<linearGradient id="paint27_linear_13250_6163" x1="18.8123" y1="10.3063" x2="19.4858" y2="16.7039" gradientUnits="userSpaceOnUse">
<stop stop-opacity="0.5"/>
<stop offset="1" stop-opacity="0"/>
</linearGradient>
</defs>
</svg>
