<svg width="240" height="240" viewBox="0 0 240 240" fill="none" xmlns="http://www.w3.org/2000/svg">
<path d="M34.3522 68.402C24.5235 69.1458 16.4239 79.5595 17.88 90.2522C18.335 94.1574 19.3361 100.201 20.6102 106.803C21.1562 109.778 21.7933 112.939 22.4303 116.008C24.019 123.424 25.9936 130.749 28.3457 137.951C30.8715 145.94 33.9429 153.739 37.5374 161.289C51.2794 188.625 69.8447 194.389 83.0406 194.389C89.238 194.444 95.3751 193.145 101.041 190.579C106.707 188.013 111.771 184.24 115.894 179.513C113.592 176.508 111.552 173.304 109.797 169.936C103.972 158.964 100.241 146.319 97.0556 133.116C95.5952 138.377 93.6448 143.483 91.2312 148.365C87.4089 155.617 84.7698 155.617 83.0406 155.617C79.3094 155.617 75.3961 151.526 71.3918 143.623C69.3285 139.299 67.5055 134.86 65.9314 130.326C64.8393 127.072 63.7473 123.725 62.8372 120.471C61.9271 117.216 60.289 111.452 59.561 107.825C57.6498 98.9923 55.3747 84.4875 55.2837 84.0226C54.4646 79.8385 49.6413 67.1003 34.3522 68.402Z" fill="black"/>
<path d="M193.89 107.454C203.628 103.642 207.723 91.5544 203.355 81.7915L202.99 80.8617C201.229 76.8874 199.159 73.0631 196.802 69.4252C195.676 67.5226 194.398 65.7188 192.98 64.0324C180.512 48.4118 165.86 45.6224 156.941 45.6224C150.745 45.574 144.609 46.8758 138.944 49.4411C133.279 52.0064 128.214 55.7762 124.088 60.4991C126.248 63.2995 128.166 66.286 129.821 69.4252C135.919 80.6757 139.741 96.1104 142.926 109.221C144.655 103.27 146.657 95.6455 148.933 91.3684C152.664 84.3949 155.212 84.3949 156.941 84.3949C162.129 84.3949 166.315 92.2052 168.317 96.7612C168.317 96.7612 175.507 114.799 193.89 107.454Z" fill="black"/>
<path d="M205.807 68.4022L204.078 68.2163H203.623C205.521 71.4541 207.223 74.8077 208.719 78.2581L209.174 79.1879C211.917 85.4418 212.126 92.5505 209.756 98.9615C207.386 105.372 202.629 110.565 196.525 113.404C193.231 114.91 189.667 115.701 186.059 115.729C183.595 115.683 181.147 115.308 178.778 114.613C176.23 124.376 172.226 136.37 168.586 143.623C164.945 150.875 160.668 155.617 156.846 155.617C155.208 155.617 152.568 155.617 148.746 148.365C146.333 143.484 144.382 138.377 142.922 133.116C141.739 129.025 140.647 124.655 139.555 120.099C139.099 118.425 138.735 116.752 138.371 115.078C134.913 100.387 131 84.9526 124.265 72.5863C122.976 70.207 121.548 67.9093 119.988 65.7058C118.713 63.8983 117.346 62.1603 115.893 60.499C111.756 55.7642 106.677 51.9874 100.995 49.4217C95.3131 46.8559 89.1602 45.5605 82.9485 45.6222C74.1209 45.6222 59.4689 48.4116 47.001 64.0322C50.933 65.8397 54.3498 68.6405 56.9291 72.1705C59.5085 75.7005 61.1655 79.8434 61.744 84.2088C62.3811 88.8578 63.9282 97.8768 65.7483 106.431C65.9303 107.361 66.1123 108.291 66.3853 109.313C67.7504 105.687 69.1155 102.619 70.5716 99.1785L71.6637 96.7611C73.6659 92.205 77.8522 84.3948 82.9485 84.3948C84.7686 84.3948 87.3168 84.3948 91.0481 91.3682C93.562 96.3542 95.5745 101.588 97.0545 106.989C98.2376 111.173 99.4207 115.636 100.422 120.099C100.786 121.401 101.059 122.702 101.332 124.004C104.972 139.532 108.794 154.501 115.347 166.868C116.703 169.496 118.255 172.014 119.988 174.399C121.263 176.177 122.63 177.884 124.083 179.513C134.913 191.507 147.381 194.39 156.846 194.39C170.042 194.39 188.698 188.625 202.44 161.289C209.447 147.249 215.363 126.515 217.547 116.008C219.731 105.501 221.369 96.0172 222.097 90.2525C222.443 87.7234 222.295 85.1494 221.662 82.6791C221.029 80.2088 219.923 77.891 218.408 75.8596C216.894 73.8282 215.001 72.1233 212.838 70.8434C210.675 69.5634 208.285 68.7338 205.807 68.4022Z" fill="black"/>
</svg>
