<svg width="143" height="28" viewBox="0 0 143 28" fill="none" xmlns="http://www.w3.org/2000/svg">
<path fill-rule="evenodd" clip-rule="evenodd" d="M50.1753 7.57681C51.2395 8.20836 52.112 9.11734 52.6993 10.2065C53.309 11.3753 53.6273 12.6741 53.6273 13.9924C53.6273 15.3107 53.309 16.6095 52.6993 17.7783C52.1098 18.8718 51.2324 19.7835 50.1624 20.4146C49.0922 21.0458 47.87 21.3723 46.6276 21.3592C45.7567 21.3761 44.8935 21.1937 44.1036 20.826C43.3788 20.4742 42.7438 19.9617 42.2469 19.3274V20.9932H39.1929V1.03027H42.2469V8.65738C42.7434 8.02309 43.3786 7.51098 44.1036 7.16035C44.893 6.79135 45.7565 6.60841 46.6276 6.62559C47.8751 6.61141 49.1023 6.94048 50.1753 7.57681ZM48.5032 17.8793C49.1378 17.4885 49.6491 16.9263 49.9782 16.2577C50.3157 15.5502 50.4908 14.7763 50.4908 13.9924C50.4908 13.2086 50.3157 12.4346 49.9782 11.7272C49.6491 11.058 49.1378 10.4954 48.5032 10.1039C47.8298 9.71367 47.0657 9.50696 46.2872 9.50448C45.5089 9.50199 44.7435 9.7038 44.0673 10.0897C43.431 10.4769 42.9148 11.0335 42.5766 11.6972C42.2261 12.4112 42.0438 13.1961 42.0438 13.9916C42.0438 14.7871 42.2261 15.572 42.5766 16.2861C42.9148 16.9498 43.431 17.5064 44.0673 17.8935C44.7435 18.2795 45.5089 18.4813 46.2872 18.4787C47.0657 18.4762 47.8298 18.2696 48.5032 17.8793Z" fill="black"/>
<path fill-rule="evenodd" clip-rule="evenodd" d="M26.7719 15.117H37.1107C37.1454 14.6501 37.1627 14.2699 37.1627 13.9765C37.1887 12.6519 36.9005 11.3399 36.3219 10.148C35.8042 9.08245 34.9973 8.18385 33.9936 7.5546C32.9572 6.92558 31.7636 6.60341 30.5515 6.62546C29.2804 6.60097 28.0263 6.92209 26.9233 7.5546C25.8732 8.17141 25.0193 9.07339 24.4609 10.1559C23.8548 11.3423 23.5513 12.6602 23.5775 13.9923C23.5775 15.4541 23.8819 16.7424 24.4908 17.8571C25.0683 18.9426 25.944 19.8402 27.0148 20.4442C28.1528 21.0676 29.434 21.3825 30.7313 21.3576C31.7845 21.368 32.8327 21.2126 33.8374 20.8969C34.8137 20.5751 35.7154 20.0607 36.4891 19.3841L34.97 17.2072C34.3876 17.6727 33.7334 18.0403 33.0329 18.2957C32.3577 18.5481 31.6431 18.679 30.9222 18.6821C30.2718 18.6888 29.6271 18.5597 29.0292 18.3036C28.4437 18.0455 27.9368 17.6367 27.5606 17.1189C27.1383 16.526 26.8675 15.8387 26.7719 15.117ZM32.8578 10.2505C33.4773 10.8542 33.8696 11.7018 34.0346 12.7934L26.7798 12.7966C26.9555 11.7323 27.3571 10.891 27.9849 10.2726C28.6128 9.65422 29.4484 9.34504 30.4916 9.34504C31.4497 9.34504 32.2385 9.64686 32.8578 10.2505Z" fill="black"/>
<path d="M20.2548 6.99157H23.4413L18.8114 20.9917H15.1548L11.6844 10.4226L8.22182 20.9917H4.63305L0 6.99157H3.25907L6.54653 17.6301L9.99648 6.99157H13.459L16.9532 17.6901L20.2548 6.99157Z" fill="black"/>
<path fill-rule="evenodd" clip-rule="evenodd" d="M58.4392 15.117H68.7717C68.8107 14.6501 68.8316 14.2699 68.8348 13.9765C68.8607 12.6519 68.5726 11.3399 67.994 10.148C67.4736 9.08123 66.6634 8.1825 65.6562 7.55462C64.6199 6.9252 63.4262 6.60298 62.2141 6.62548C60.9428 6.60082 59.6889 6.92197 58.5859 7.55462C57.5353 8.17103 56.6814 9.07309 56.1235 10.1559C55.5168 11.3422 55.2128 12.6601 55.2385 13.9923C55.2385 15.4541 55.543 16.7424 56.1519 17.8571C56.7328 18.9442 57.6131 19.8419 58.6885 20.4442C59.8249 21.0673 61.1045 21.3822 62.4003 21.3576C63.4529 21.368 64.5005 21.2126 65.5047 20.8969C66.482 20.5753 67.3848 20.0609 68.1596 19.3841L66.6389 17.2072C66.0573 17.673 65.4035 18.0406 64.7034 18.2957C64.0276 18.5482 63.3125 18.6791 62.5911 18.6821C61.9407 18.6888 61.296 18.5599 60.6982 18.3036C60.1121 18.0453 59.6048 17.6366 59.228 17.1189C58.8055 16.526 58.5348 15.8387 58.4392 15.117ZM64.5267 10.2505C65.144 10.8542 65.5363 11.7018 65.7035 12.7934L58.4392 12.7966C58.6138 11.7323 59.0155 10.891 59.6444 10.2726C60.2733 9.65424 61.1088 9.34505 62.151 9.34505C63.1175 9.34505 63.9094 9.64687 64.5267 10.2505Z" fill="black"/>
<path d="M79.587 20.9917H83.3429L78.0663 13.8157L83.2404 6.99157H79.6296L76.2112 11.6688L72.7912 6.99157H69.0352L74.2235 13.8457L68.9469 20.9917H72.5278L76.0345 16.1252L79.587 20.9917Z" fill="black"/>
<path d="M142.184 10.5002V12.1409H140.031V17.9172C140.031 18.3137 140.09 18.6122 140.209 18.8127C140.327 19.0087 140.48 19.1431 140.667 19.2161C140.858 19.2844 141.066 19.3186 141.289 19.3186C141.453 19.3186 141.596 19.3072 141.719 19.2844C141.843 19.2616 141.938 19.2434 142.007 19.2297L142.376 20.9182C142.257 20.9638 142.089 21.0094 141.87 21.0549C141.651 21.1051 141.378 21.1324 141.05 21.137C140.512 21.1461 140.01 21.0504 139.546 20.8499C139.081 20.6493 138.705 20.3394 138.418 19.9202C138.131 19.5009 137.987 18.9745 137.987 18.3411V12.1409H136.449V10.5002H137.987V7.98462H140.031V10.5002H142.184Z" fill="black"/>
<path d="M133.828 13.3918L135.681 13.0637C135.471 12.2434 135.04 11.5894 134.389 11.1018C133.737 10.6096 132.844 10.3635 131.709 10.3635C130.921 10.3635 130.221 10.4957 129.61 10.76C129 11.0198 128.521 11.3821 128.175 11.8469C127.828 12.3118 127.655 12.8541 127.655 13.4739C127.655 14.2213 127.888 14.8388 128.353 15.3264C128.822 15.814 129.547 16.1695 130.526 16.3928L132.304 16.7825C132.805 16.8964 133.176 17.065 133.418 17.2883C133.664 17.5116 133.787 17.7874 133.787 18.1155C133.787 18.5211 133.587 18.8652 133.186 19.1477C132.785 19.4257 132.249 19.5647 131.579 19.5647C130.964 19.5647 130.465 19.4348 130.082 19.175C129.699 18.9107 129.446 18.5211 129.323 18.0061L127.348 18.3069C127.516 19.2366 127.972 19.9543 128.715 20.4602C129.458 20.9615 130.417 21.2122 131.593 21.2122C132.44 21.2122 133.186 21.0732 133.828 20.7952C134.475 20.5172 134.979 20.1344 135.339 19.6467C135.703 19.1545 135.886 18.594 135.886 17.9651C135.886 17.2222 135.649 16.6184 135.175 16.1536C134.701 15.6887 133.981 15.3446 133.015 15.1213L131.347 14.7385C130.768 14.6018 130.349 14.4264 130.089 14.2122C129.829 13.998 129.699 13.7154 129.699 13.3645C129.699 12.9589 129.893 12.6285 130.28 12.3733C130.668 12.1135 131.151 11.9836 131.729 11.9836C132.153 11.9836 132.507 12.052 132.789 12.1887C133.072 12.3254 133.295 12.5009 133.459 12.7151C133.628 12.9293 133.751 13.1549 133.828 13.3918Z" fill="black"/>
<path d="M123.869 21.0002V10.5002H125.913V21.0002H123.869Z" fill="black"/>
<path d="M124.901 8.88013C124.545 8.88013 124.24 8.76164 123.985 8.52466C123.734 8.28312 123.609 7.99601 123.609 7.66333C123.609 7.32609 123.734 7.03898 123.985 6.802C124.24 6.56047 124.545 6.4397 124.901 6.4397C125.256 6.4397 125.559 6.56047 125.81 6.802C126.065 7.03898 126.193 7.32609 126.193 7.66333C126.193 7.99601 126.065 8.28312 125.81 8.52466C125.559 8.76164 125.256 8.88013 124.901 8.88013Z" fill="black"/>
<path d="M120.414 13.3918L122.266 13.0637C122.057 12.2434 121.626 11.5894 120.974 11.1018C120.323 10.6096 119.429 10.3635 118.295 10.3635C117.506 10.3635 116.807 10.4957 116.196 10.76C115.585 11.0198 115.107 11.3821 114.76 11.8469C114.414 12.3118 114.241 12.8541 114.241 13.4739C114.241 14.2213 114.473 14.8388 114.938 15.3264C115.408 15.814 116.132 16.1695 117.112 16.3928L118.889 16.7825C119.391 16.8964 119.762 17.065 120.004 17.2883C120.25 17.5116 120.373 17.7874 120.373 18.1155C120.373 18.5211 120.172 18.8652 119.771 19.1477C119.37 19.4257 118.835 19.5647 118.165 19.5647C117.55 19.5647 117.051 19.4348 116.668 19.175C116.285 18.9107 116.032 18.5211 115.909 18.0061L113.933 18.3069C114.102 19.2366 114.558 19.9543 115.301 20.4602C116.043 20.9615 117.003 21.2122 118.178 21.2122C119.026 21.2122 119.771 21.0732 120.414 20.7952C121.061 20.5172 121.565 20.1344 121.925 19.6467C122.289 19.1545 122.471 18.594 122.471 17.9651C122.471 17.2222 122.234 16.6184 121.76 16.1536C121.287 15.6887 120.566 15.3446 119.6 15.1213L117.932 14.7385C117.354 14.6018 116.934 14.4264 116.675 14.2122C116.415 13.998 116.285 13.7154 116.285 13.3645C116.285 12.9589 116.479 12.6285 116.866 12.3733C117.253 12.1135 117.736 11.9836 118.315 11.9836C118.739 11.9836 119.092 12.052 119.375 12.1887C119.657 12.3254 119.881 12.5009 120.045 12.7151C120.213 12.9293 120.336 13.1549 120.414 13.3918Z" fill="black"/>
<path d="M112.796 13.0637L110.943 13.3918C110.866 13.1549 110.743 12.9293 110.574 12.7151C110.41 12.5009 110.187 12.3254 109.904 12.1887C109.621 12.052 109.268 11.9836 108.844 11.9836C108.266 11.9836 107.783 12.1135 107.395 12.3733C107.008 12.6285 106.814 12.9589 106.814 13.3645C106.814 13.7154 106.944 13.998 107.204 14.2122C107.464 14.4264 107.883 14.6018 108.462 14.7385L110.13 15.1213C111.096 15.3446 111.816 15.6887 112.29 16.1536C112.764 16.6184 113.001 17.2222 113.001 17.9651C113.001 18.594 112.818 19.1545 112.454 19.6467C112.094 20.1344 111.59 20.5172 110.943 20.7952C110.301 21.0732 109.555 21.2122 108.708 21.2122C107.532 21.2122 106.573 20.9615 105.83 20.4602C105.087 19.9543 104.631 19.2366 104.463 18.3069L106.438 18.0061C106.561 18.5211 106.814 18.9107 107.197 19.175C107.58 19.4348 108.079 19.5647 108.694 19.5647C109.364 19.5647 109.899 19.4257 110.301 19.1477C110.702 18.8652 110.902 18.5211 110.902 18.1155C110.902 17.7874 110.779 17.5116 110.533 17.2883C110.291 17.065 109.92 16.8964 109.419 16.7825L107.641 16.3928C106.662 16.1695 105.937 15.814 105.468 15.3264C105.003 14.8388 104.77 14.2213 104.77 13.4739C104.77 12.8541 104.943 12.3118 105.29 11.8469C105.636 11.3821 106.115 11.0198 106.725 10.76C107.336 10.4957 108.036 10.3635 108.824 10.3635C109.959 10.3635 110.852 10.6096 111.504 11.1018C112.155 11.5894 112.586 12.2434 112.796 13.0637Z" fill="black"/>
<path fill-rule="evenodd" clip-rule="evenodd" d="M91.4785 21.0002H93.7207L95.0029 17.2952H100.473L101.753 21.0002H103.995L98.957 7.00024H96.5166L91.4785 21.0002ZM99.8589 15.5178L97.7949 9.54321H97.6855L95.618 15.5178H99.8589Z" fill="black"/>
</svg>
