<svg width="131" height="84" viewBox="0 0 131 84" fill="none" xmlns="http://www.w3.org/2000/svg">
<g clip-path="url(#clip0_13250_6164)">
<path d="M45.4049 12.4461C43.0987 12.6207 41.1982 15.0643 41.5399 17.5734C41.6467 18.4898 41.8816 19.9079 42.1805 21.457C42.3086 22.1552 42.4581 22.897 42.6076 23.617C42.9803 25.3574 43.4437 27.0762 43.9956 28.7661C44.5882 30.6409 45.3089 32.4709 46.1523 34.2425C49.3767 40.6571 53.7328 42.0098 56.8291 42.0098C58.2832 42.0226 59.7232 41.7177 61.0527 41.1157C62.3822 40.5136 63.5704 39.6283 64.5377 38.5189C63.9976 37.8139 63.5188 37.0619 63.1071 36.2716C61.7404 33.6971 60.8649 30.7298 60.1175 27.6316C59.7749 28.8662 59.3172 30.0644 58.7509 31.2098C57.8541 32.9116 57.2348 32.9116 56.8291 32.9116C55.9536 32.9116 55.0354 31.9516 54.0958 30.0971C53.6117 29.0825 53.1839 28.0408 52.8146 26.9771C52.5584 26.2134 52.3021 25.428 52.0886 24.6643C51.875 23.9007 51.4907 22.548 51.3199 21.697C50.8714 19.6243 50.3376 16.2207 50.3162 16.1116C50.1241 15.1298 48.9923 12.1407 45.4049 12.4461Z" fill="black"/>
<path d="M82.8382 21.6095C85.123 20.715 86.0839 17.8786 85.059 15.5877L84.9735 15.3695C84.5602 14.4369 84.0746 13.5395 83.5215 12.6859C83.2573 12.2394 82.9574 11.8161 82.6246 11.4204C79.6992 7.75495 76.2613 7.1004 74.1686 7.1004C72.7147 7.08904 71.2751 7.39452 69.9459 7.99649C68.6166 8.59845 67.4282 9.48306 66.46 10.5913C66.9668 11.2484 67.4169 11.9492 67.8052 12.6859C69.2359 15.3259 70.1328 18.9477 70.8802 22.0241C71.2859 20.6277 71.7557 18.8386 72.2895 17.835C73.165 16.1986 73.7629 16.1986 74.1686 16.1986C75.3858 16.1986 76.368 18.0313 76.8378 19.1004C76.8378 19.1004 78.5248 23.3332 82.8382 21.6095Z" fill="black"/>
<path d="M85.6351 12.4461L85.2294 12.4024H85.1226C85.5679 13.1622 85.9673 13.9491 86.3184 14.7588L86.4252 14.977C87.0687 16.4445 87.1178 18.1126 86.5617 19.617C86.0055 21.1213 84.8894 22.3397 83.457 23.0061C82.6841 23.3593 81.848 23.545 81.0014 23.5515C80.4232 23.5409 79.8489 23.4529 79.2931 23.2897C78.6952 25.5806 77.7556 28.3952 76.9015 30.097C76.0473 31.7988 75.0437 32.9115 74.1469 32.9115C73.7625 32.9115 73.1432 32.9115 72.2464 31.2097C71.6801 30.0643 71.2224 28.8661 70.8798 27.6315C70.6022 26.6715 70.3459 25.6461 70.0897 24.577C69.9829 24.1843 69.8975 23.7915 69.8121 23.3988C69.0006 19.9515 68.0824 16.3297 66.5023 13.4279C66.1998 12.8696 65.8647 12.3304 65.4986 11.8133C65.1994 11.3892 64.8787 10.9814 64.5377 10.5915C63.5671 9.48047 62.3753 8.59422 61.0421 7.99216C59.7089 7.39009 58.2652 7.08611 56.8077 7.10059C54.7364 7.10059 51.2985 7.75514 48.373 11.4206C49.2957 11.8447 50.0974 12.502 50.7026 13.3303C51.3078 14.1586 51.6966 15.1308 51.8323 16.1552C51.9818 17.2461 52.3448 19.3624 52.7719 21.3697C52.8146 21.5879 52.8573 21.8061 52.9214 22.0461C53.2417 21.1952 53.562 20.4752 53.9036 19.6679L54.1599 19.1006C54.6297 18.0315 55.6119 16.1988 56.8077 16.1988C57.2348 16.1988 57.8327 16.1988 58.7082 17.8352C59.2981 19.0051 59.7703 20.2333 60.1175 21.5006C60.3951 22.4824 60.6727 23.5297 60.9076 24.577C60.993 24.8824 61.0571 25.1879 61.1212 25.4934C61.9753 29.137 62.8722 32.6497 64.4096 35.5515C64.7279 36.1682 65.092 36.759 65.4986 37.3188C65.7978 37.7361 66.1185 38.1366 66.4596 38.5188C69.0006 41.3334 71.9261 42.0097 74.1469 42.0097C77.2431 42.0097 81.6206 40.657 84.845 34.2425C86.4892 30.9479 87.8772 26.0824 88.3897 23.617C88.9022 21.1515 89.2866 18.9261 89.4574 17.5733C89.5385 16.9799 89.5037 16.3759 89.3552 15.7962C89.2066 15.2165 88.9472 14.6727 88.5918 14.196C88.2364 13.7193 87.7922 13.3192 87.2847 13.0189C86.7773 12.7185 86.2166 12.5238 85.6351 12.4461Z" fill="black"/>
<path d="M31.8675 60.356H36.8799L29.5922 82.1002H23.842L18.3952 65.6916L12.9483 82.1002H7.28774L0 60.356H5.12968L10.3007 76.8802L15.7269 60.356H21.1737L26.6895 76.9687L31.8675 60.356Z" fill="black"/>
<path d="M58.3777 72.9736H42.1199C42.2699 74.0948 42.696 75.1627 43.3609 76.0838C43.95 76.8897 44.7477 77.5244 45.6707 77.9213C46.6107 78.3221 47.6254 78.5238 48.6492 78.5134C49.7841 78.5092 50.9093 78.3064 51.9725 77.9145C53.0748 77.5167 54.1041 76.9443 55.02 76.2199L57.4124 79.6227C56.1924 80.6728 54.7717 81.4711 53.2342 81.9707C51.6551 82.46 50.0078 82.7011 48.3527 82.6853C46.3143 82.725 44.3009 82.2369 42.5129 81.2697C40.8217 80.3342 39.4366 78.941 38.5208 77.2544C37.5358 75.4056 37.0423 73.3402 37.0867 71.2517C37.0445 69.1829 37.518 67.1356 38.4657 65.2899C39.3463 63.6111 40.6895 62.2121 42.3405 61.2541C44.0728 60.2701 46.0442 59.7712 48.0425 59.8113C49.9282 59.7598 51.7889 60.246 53.4018 61.2116C55.0148 62.1773 56.3115 63.5814 57.1366 65.2559C58.0476 67.1076 58.5012 69.146 58.4604 71.2041C58.4673 71.6601 58.4397 72.2522 58.3777 72.9736ZM53.5514 69.3665C53.4032 67.8763 52.7553 66.4776 51.7105 65.392C51.2096 64.9286 50.6194 64.5694 49.9751 64.3355C49.3308 64.1017 48.6454 63.9981 47.9597 64.0309C47.238 63.9983 46.5169 64.1092 45.8394 64.357C45.162 64.6049 44.5418 64.9846 44.016 65.4737C42.9746 66.5433 42.3098 67.9154 42.1199 69.387L53.5514 69.3665Z" fill="black"/>
<path d="M78.9444 61.2678C80.6216 62.2471 81.9969 63.6587 82.9227 65.3513C83.9126 67.1552 84.4159 69.1801 84.3843 71.2314C84.416 73.2806 83.9126 75.3032 82.9227 77.1047C81.9966 78.805 80.6163 80.2223 78.9315 81.2026C77.2468 82.1828 75.3221 82.6886 73.3666 82.665C71.9942 82.6934 70.6335 82.4117 69.3883 81.8415C68.2471 81.2983 67.2489 80.5016 66.4718 79.5139V82.1001H61.6455V51.1001H66.4718V62.942C67.2522 61.961 68.2499 61.1694 69.3883 60.6281C70.6318 60.0523 71.9934 59.7681 73.3666 59.7978C75.3272 59.7741 77.2567 60.2826 78.9444 61.2678ZM76.3106 77.268C77.3117 76.6606 78.1175 75.785 78.6341 74.7431C79.1645 73.6452 79.4397 72.4443 79.4397 71.228C79.4397 70.0117 79.1645 68.8107 78.6341 67.7128C78.1153 66.6725 77.31 65.7974 76.3106 65.1879C75.2483 64.588 74.0457 64.2725 72.8219 64.2725C71.598 64.2725 70.3954 64.588 69.3331 65.1879C68.3311 65.7885 67.5192 66.6536 66.9889 67.6856C66.4154 68.7879 66.1265 70.0128 66.1478 71.2518C66.1259 72.4886 66.4149 73.7115 66.9889 74.8112C67.5192 75.8432 68.3311 76.7083 69.3331 77.3089C70.3954 77.9087 71.598 78.2243 72.8219 78.2243C74.0457 78.2243 75.2483 77.9087 76.3106 77.3089V77.268Z" fill="black"/>
<path d="M108.199 72.9736H91.9479C92.0979 74.0949 92.524 75.1627 93.1889 76.0838C93.778 76.8897 94.5757 77.5244 95.4987 77.9214C96.4387 78.3221 97.4533 78.5238 98.4772 78.5135C99.612 78.5082 100.737 78.3055 101.8 77.9146C102.903 77.5167 103.932 76.9443 104.848 76.2199L107.234 79.6228C106.017 80.6742 104.598 81.4727 103.062 81.9708C101.481 82.4596 99.8311 82.7008 98.1738 82.6854C96.1356 82.7228 94.1228 82.2349 92.334 81.2698C90.6463 80.332 89.264 78.9393 88.3488 77.2544C87.3616 75.4061 86.8658 73.3408 86.9078 71.2518C86.8659 69.183 87.3394 67.1358 88.2868 65.29C89.1674 63.6112 90.5106 62.2122 92.1616 61.2542C93.9039 60.2557 95.8908 59.7495 97.9049 59.791C99.7901 59.742 101.65 60.2292 103.262 61.1946C104.875 62.1599 106.172 63.5627 106.999 65.2355C107.91 67.0872 108.364 69.1256 108.323 71.1837C108.295 71.6601 108.247 72.2522 108.199 72.9736ZM103.372 69.3666C103.213 67.8859 102.564 66.4985 101.525 65.4193C101.027 64.9533 100.44 64.5905 99.7985 64.352C99.1567 64.1136 98.473 64.0044 97.7877 64.0309C97.0659 63.9975 96.3446 64.1081 95.667 64.356C94.9894 64.6039 94.3694 64.984 93.8439 65.4737C92.8002 66.5417 92.135 67.9146 91.9479 69.387L103.372 69.3666Z" fill="black"/>
<path d="M131.124 82.1002H125.215L119.63 74.5391L114.114 82.1002H108.481L116.755 71.0001L108.612 60.356H114.528L119.906 67.6176L125.284 60.356H131L122.822 70.9592L131.124 82.1002Z" fill="black"/>
</g>
<defs>
<clipPath id="clip0_13250_6164">
<rect width="131" height="83" fill="white" transform="translate(0 0.100098)"/>
</clipPath>
</defs>
</svg>
