<svg width="132" height="83" viewBox="0 0 132 83" fill="none" xmlns="http://www.w3.org/2000/svg">
<path d="M56.3936 41.7716C47.5055 41.7716 44.4805 30.5404 43.8026 28.3554C42.7104 24.7836 41.949 21.119 41.5281 17.4078C41.2121 14.4153 43.6143 12.3327 46.251 12.3327C47.4 12.2872 48.5222 12.6874 49.3832 13.4497C50.2441 14.2121 50.7771 15.2776 50.8711 16.4237C51.2051 19.5667 51.8396 22.6704 52.7659 25.6923C54.2642 30.4712 55.8537 32.3088 56.9983 32.3088C58.8468 32.3088 59.9746 27.565 60.9716 23.048C61.7062 19.7201 62.5002 16.3667 64.0679 13.3878C66.7949 8.20586 70.9162 7 74.4765 7C82.2835 7 86.1908 16.0378 86.1908 18.3794C86.2273 19.006 86.1364 19.6335 85.9235 20.2239C85.7106 20.8144 85.3802 21.3555 84.9521 21.8146C84.5242 22.2737 84.0075 22.6412 83.4334 22.8949C82.8593 23.1486 82.2398 23.2833 81.6122 23.2907C78.5841 23.2907 77.5576 21.2634 76.6936 19.4865C75.9165 17.8879 75.1049 16.5587 74.0555 16.5587C73.8717 16.5689 73.6919 16.6162 73.527 16.6978C73.362 16.7794 73.2152 16.8935 73.0954 17.0332C70.4873 19.682 69.6126 33.5391 64.3976 38.8356C61.5066 41.7716 58.3609 41.7716 56.3936 41.7716Z" fill="url(#paint0_linear_13250_6181)"/>
<path d="M56.3936 41.7716C47.5055 41.7716 44.4805 30.5404 43.8026 28.3554C42.7104 24.7836 41.949 21.119 41.5281 17.4078C41.2121 14.4153 43.6143 12.3327 46.251 12.3327C47.4 12.2872 48.5222 12.6874 49.3832 13.4497C50.2441 14.2121 50.7771 15.2776 50.8711 16.4237C51.2051 19.5667 51.8396 22.6704 52.7659 25.6923C54.2642 30.4712 55.8537 32.3088 56.9983 32.3088C58.8468 32.3088 59.9746 27.565 60.9716 23.048C61.7062 19.7201 62.5002 16.3667 64.0679 13.3878C66.7949 8.20586 70.9162 7 74.4765 7C82.2835 7 86.1908 16.0378 86.1908 18.3794C86.2273 19.006 86.1364 19.6335 85.9235 20.2239C85.7106 20.8144 85.3802 21.3555 84.9521 21.8146C84.5242 22.2737 84.0075 22.6412 83.4334 22.8949C82.8593 23.1486 82.2398 23.2833 81.6122 23.2907C78.5841 23.2907 77.5576 21.2634 76.6936 19.4865C75.9165 17.8879 75.1049 16.5587 74.0555 16.5587C73.8717 16.5689 73.6919 16.6162 73.527 16.6978C73.362 16.7794 73.2152 16.8935 73.0954 17.0332C70.4873 19.682 69.6126 33.5391 64.3976 38.8356C61.5066 41.7716 58.3609 41.7716 56.3936 41.7716Z" fill="url(#paint1_radial_13250_6181)"/>
<path d="M56.3936 41.7716C47.5055 41.7716 44.4805 30.5404 43.8026 28.3554C42.7104 24.7836 41.949 21.119 41.5281 17.4078C41.2121 14.4153 43.6143 12.3327 46.251 12.3327C47.4 12.2872 48.5222 12.6874 49.3832 13.4497C50.2441 14.2121 50.7771 15.2776 50.8711 16.4237C51.2051 19.5667 51.8396 22.6704 52.7659 25.6923C54.2642 30.4712 55.8537 32.3088 56.9983 32.3088C58.8468 32.3088 59.9746 27.565 60.9716 23.048C61.7062 19.7201 62.5002 16.3667 64.0679 13.3878C66.7949 8.20586 70.9162 7 74.4765 7C82.2835 7 86.1908 16.0378 86.1908 18.3794C86.2273 19.006 86.1364 19.6335 85.9235 20.2239C85.7106 20.8144 85.3802 21.3555 84.9521 21.8146C84.5242 22.2737 84.0075 22.6412 83.4334 22.8949C82.8593 23.1486 82.2398 23.2833 81.6122 23.2907C78.5841 23.2907 77.5576 21.2634 76.6936 19.4865C75.9165 17.8879 75.1049 16.5587 74.0555 16.5587C73.8717 16.5689 73.6919 16.6162 73.527 16.6978C73.362 16.7794 73.2152 16.8935 73.0954 17.0332C70.4873 19.682 69.6126 33.5391 64.3976 38.8356C61.5066 41.7716 58.3609 41.7716 56.3936 41.7716Z" fill="url(#paint2_radial_13250_6181)"/>
<path d="M56.3936 41.7716C47.5055 41.7716 44.4805 30.5404 43.8026 28.3554C42.7104 24.7836 41.949 21.119 41.5281 17.4078C41.2121 14.4153 43.6143 12.3327 46.251 12.3327C47.4 12.2872 48.5222 12.6874 49.3832 13.4497C50.2441 14.2121 50.7771 15.2776 50.8711 16.4237C51.2051 19.5667 51.8396 22.6704 52.7659 25.6923C54.2642 30.4712 55.8537 32.3088 56.9983 32.3088C58.8468 32.3088 59.9746 27.565 60.9716 23.048C61.7062 19.7201 62.5002 16.3667 64.0679 13.3878C66.7949 8.20586 70.9162 7 74.4765 7C82.2835 7 86.1908 16.0378 86.1908 18.3794C86.2273 19.006 86.1364 19.6335 85.9235 20.2239C85.7106 20.8144 85.3802 21.3555 84.9521 21.8146C84.5242 22.2737 84.0075 22.6412 83.4334 22.8949C82.8593 23.1486 82.2398 23.2833 81.6122 23.2907C78.5841 23.2907 77.5576 21.2634 76.6936 19.4865C75.9165 17.8879 75.1049 16.5587 74.0555 16.5587C73.8717 16.5689 73.6919 16.6162 73.527 16.6978C73.362 16.7794 73.2152 16.8935 73.0954 17.0332C70.4873 19.682 69.6126 33.5391 64.3976 38.8356C61.5066 41.7716 58.3609 41.7716 56.3936 41.7716Z" fill="url(#paint3_radial_13250_6181)"/>
<path d="M56.3936 41.7716C47.5055 41.7716 44.4805 30.5404 43.8026 28.3554C42.7104 24.7836 41.949 21.119 41.5281 17.4078C41.2121 14.4153 43.6143 12.3327 46.251 12.3327C47.4 12.2872 48.5222 12.6874 49.3832 13.4497C50.2441 14.2121 50.7771 15.2776 50.8711 16.4237C51.2051 19.5667 51.8396 22.6704 52.7659 25.6923C54.2642 30.4712 55.8537 32.3088 56.9983 32.3088C58.8468 32.3088 59.9746 27.565 60.9716 23.048C61.7062 19.7201 62.5002 16.3667 64.0679 13.3878C66.7949 8.20586 70.9162 7 74.4765 7C82.2835 7 86.1908 16.0378 86.1908 18.3794C86.2273 19.006 86.1364 19.6335 85.9235 20.2239C85.7106 20.8144 85.3802 21.3555 84.9521 21.8146C84.5242 22.2737 84.0075 22.6412 83.4334 22.8949C82.8593 23.1486 82.2398 23.2833 81.6122 23.2907C78.5841 23.2907 77.5576 21.2634 76.6936 19.4865C75.9165 17.8879 75.1049 16.5587 74.0555 16.5587C73.8717 16.5689 73.6919 16.6162 73.527 16.6978C73.362 16.7794 73.2152 16.8935 73.0954 17.0332C70.4873 19.682 69.6126 33.5391 64.3976 38.8356C61.5066 41.7716 58.3609 41.7716 56.3936 41.7716Z" fill="url(#paint4_radial_13250_6181)"/>
<path d="M56.3936 41.7716C47.5055 41.7716 44.4805 30.5404 43.8026 28.3554C42.7104 24.7836 41.949 21.119 41.5281 17.4078C41.2121 14.4153 43.6143 12.3327 46.251 12.3327C47.4 12.2872 48.5222 12.6874 49.3832 13.4497C50.2441 14.2121 50.7771 15.2776 50.8711 16.4237C51.2051 19.5667 51.8396 22.6704 52.7659 25.6923C54.2642 30.4712 55.8537 32.3088 56.9983 32.3088C58.8468 32.3088 59.9746 27.565 60.9716 23.048C61.7062 19.7201 62.5002 16.3667 64.0679 13.3878C66.7949 8.20586 70.9162 7 74.4765 7C82.2835 7 86.1908 16.0378 86.1908 18.3794C86.2273 19.006 86.1364 19.6335 85.9235 20.2239C85.7106 20.8144 85.3802 21.3555 84.9521 21.8146C84.5242 22.2737 84.0075 22.6412 83.4334 22.8949C82.8593 23.1486 82.2398 23.2833 81.6122 23.2907C78.5841 23.2907 77.5576 21.2634 76.6936 19.4865C75.9165 17.8879 75.1049 16.5587 74.0555 16.5587C73.8717 16.5689 73.6919 16.6162 73.527 16.6978C73.362 16.7794 73.2152 16.8935 73.0954 17.0332C70.4873 19.682 69.6126 33.5391 64.3976 38.8356C61.5066 41.7716 58.3609 41.7716 56.3936 41.7716Z" fill="url(#paint5_radial_13250_6181)"/>
<path d="M56.3936 41.7716C47.5055 41.7716 44.4805 30.5404 43.8026 28.3554C42.7104 24.7836 41.949 21.119 41.5281 17.4078C41.2121 14.4153 43.6143 12.3327 46.251 12.3327C47.4 12.2872 48.5222 12.6874 49.3832 13.4497C50.2441 14.2121 50.7771 15.2776 50.8711 16.4237C51.2051 19.5667 51.8396 22.6704 52.7659 25.6923C54.2642 30.4712 55.8537 32.3088 56.9983 32.3088C58.8468 32.3088 59.9746 27.565 60.9716 23.048C61.7062 19.7201 62.5002 16.3667 64.0679 13.3878C66.7949 8.20586 70.9162 7 74.4765 7C82.2835 7 86.1908 16.0378 86.1908 18.3794C86.2273 19.006 86.1364 19.6335 85.9235 20.2239C85.7106 20.8144 85.3802 21.3555 84.9521 21.8146C84.5242 22.2737 84.0075 22.6412 83.4334 22.8949C82.8593 23.1486 82.2398 23.2833 81.6122 23.2907C78.5841 23.2907 77.5576 21.2634 76.6936 19.4865C75.9165 17.8879 75.1049 16.5587 74.0555 16.5587C73.8717 16.5689 73.6919 16.6162 73.527 16.6978C73.362 16.7794 73.2152 16.8935 73.0954 17.0332C70.4873 19.682 69.6126 33.5391 64.3976 38.8356C61.5066 41.7716 58.3609 41.7716 56.3936 41.7716Z" fill="url(#paint6_radial_13250_6181)"/>
<path d="M56.3936 41.7716C47.5055 41.7716 44.4805 30.5404 43.8026 28.3554C42.7104 24.7836 41.949 21.119 41.5281 17.4078C41.2121 14.4153 43.6143 12.3327 46.251 12.3327C47.4 12.2872 48.5222 12.6874 49.3832 13.4497C50.2441 14.2121 50.7771 15.2776 50.8711 16.4237C51.2051 19.5667 51.8396 22.6704 52.7659 25.6923C54.2642 30.4712 55.8537 32.3088 56.9983 32.3088C58.8468 32.3088 59.9746 27.565 60.9716 23.048C61.7062 19.7201 62.5002 16.3667 64.0679 13.3878C66.7949 8.20586 70.9162 7 74.4765 7C82.2835 7 86.1908 16.0378 86.1908 18.3794C86.2273 19.006 86.1364 19.6335 85.9235 20.2239C85.7106 20.8144 85.3802 21.3555 84.9521 21.8146C84.5242 22.2737 84.0075 22.6412 83.4334 22.8949C82.8593 23.1486 82.2398 23.2833 81.6122 23.2907C78.5841 23.2907 77.5576 21.2634 76.6936 19.4865C75.9165 17.8879 75.1049 16.5587 74.0555 16.5587C73.8717 16.5689 73.6919 16.6162 73.527 16.6978C73.362 16.7794 73.2152 16.8935 73.0954 17.0332C70.4873 19.682 69.6126 33.5391 64.3976 38.8356C61.5066 41.7716 58.3609 41.7716 56.3936 41.7716Z" fill="url(#paint7_linear_13250_6181)"/>
<path d="M74.4758 7C70.9155 7 66.7942 8.20586 64.0668 13.3881C62.4991 16.3668 61.7049 19.7202 60.9706 23.0483C60.7287 24.1434 60.4792 25.2517 60.2139 26.3027V41.3592C61.8074 40.9038 63.2512 40.0328 64.3973 38.8355C69.6118 33.5393 70.4866 19.6821 73.0949 17.0334C73.2146 16.8937 73.3614 16.7795 73.5263 16.6979C73.6913 16.6164 73.8711 16.5691 74.0549 16.5588C75.1043 16.5588 75.9159 17.888 76.6931 19.4866C77.5571 21.2636 78.5835 23.2909 81.6116 23.2909C82.2391 23.2834 82.8587 23.1488 83.4328 22.8951C84.0069 22.6414 84.5235 22.2738 84.9516 21.8148C85.3795 21.3556 85.71 20.8145 85.9229 20.2241C86.1358 19.6337 86.2267 19.0061 86.1902 18.3796C86.19 16.0378 82.2829 7 74.4758 7Z" fill="url(#paint8_radial_13250_6181)"/>
<path d="M56.3936 41.7716C47.5055 41.7716 44.4805 30.5404 43.8026 28.3554C42.7104 24.7836 41.949 21.119 41.5281 17.4078C41.2121 14.4153 43.6143 12.3327 46.251 12.3327C47.4 12.2872 48.5222 12.6874 49.3832 13.4497C50.2441 14.2121 50.7771 15.2776 50.8711 16.4237C51.2051 19.5667 51.8396 22.6704 52.7659 25.6923C54.2642 30.4712 55.8537 32.3088 56.9983 32.3088C58.8468 32.3088 59.9746 27.565 60.9716 23.048C61.7062 19.7201 62.5002 16.3667 64.0679 13.3878C66.7949 8.20586 70.9162 7 74.4765 7C82.2835 7 86.1908 16.0378 86.1908 18.3794C86.2273 19.006 86.1364 19.6335 85.9235 20.2239C85.7106 20.8144 85.3802 21.3555 84.9521 21.8146C84.5242 22.2737 84.0075 22.6412 83.4334 22.8949C82.8593 23.1486 82.2398 23.2833 81.6122 23.2907C78.5841 23.2907 77.5576 21.2634 76.6936 19.4865C75.9165 17.8879 75.1049 16.5587 74.0555 16.5587C73.8717 16.5689 73.6919 16.6162 73.527 16.6978C73.362 16.7794 73.2152 16.8935 73.0954 17.0332C70.4873 19.682 69.6126 33.5391 64.3976 38.8356C61.5066 41.7716 58.3609 41.7716 56.3936 41.7716Z" fill="url(#paint9_radial_13250_6181)"/>
<path d="M56.3936 41.7716C47.5055 41.7716 44.4805 30.5404 43.8026 28.3554C42.7104 24.7836 41.949 21.119 41.5281 17.4078C41.2121 14.4153 43.6143 12.3327 46.251 12.3327C47.4 12.2872 48.5222 12.6874 49.3832 13.4497C50.2441 14.2121 50.7771 15.2776 50.8711 16.4237C51.2051 19.5667 51.8396 22.6704 52.7659 25.6923C54.2642 30.4712 55.8537 32.3088 56.9983 32.3088C58.8468 32.3088 59.9746 27.565 60.9716 23.048C61.7062 19.7201 62.5002 16.3667 64.0679 13.3878C66.7949 8.20586 70.9162 7 74.4765 7C82.2835 7 86.1908 16.0378 86.1908 18.3794C86.2273 19.006 86.1364 19.6335 85.9235 20.2239C85.7106 20.8144 85.3802 21.3555 84.9521 21.8146C84.5242 22.2737 84.0075 22.6412 83.4334 22.8949C82.8593 23.1486 82.2398 23.2833 81.6122 23.2907C78.5841 23.2907 77.5576 21.2634 76.6936 19.4865C75.9165 17.8879 75.1049 16.5587 74.0555 16.5587C73.8717 16.5689 73.6919 16.6162 73.527 16.6978C73.362 16.7794 73.2152 16.8935 73.0954 17.0332C70.4873 19.682 69.6126 33.5391 64.3976 38.8356C61.5066 41.7716 58.3609 41.7716 56.3936 41.7716Z" fill="url(#paint10_radial_13250_6181)"/>
<path d="M56.3936 41.7716C47.5055 41.7716 44.4805 30.5404 43.8026 28.3554C42.7104 24.7836 41.949 21.119 41.5281 17.4078C41.2121 14.4153 43.6143 12.3327 46.251 12.3327C47.4 12.2872 48.5222 12.6874 49.3832 13.4497C50.2441 14.2121 50.7771 15.2776 50.8711 16.4237C51.2051 19.5667 51.8396 22.6704 52.7659 25.6923C54.2642 30.4712 55.8537 32.3088 56.9983 32.3088C58.8468 32.3088 59.9746 27.565 60.9716 23.048C61.7062 19.7201 62.5002 16.3667 64.0679 13.3878C66.7949 8.20586 70.9162 7 74.4765 7C82.2835 7 86.1908 16.0378 86.1908 18.3794C86.2273 19.006 86.1364 19.6335 85.9235 20.2239C85.7106 20.8144 85.3802 21.3555 84.9521 21.8146C84.5242 22.2737 84.0075 22.6412 83.4334 22.8949C82.8593 23.1486 82.2398 23.2833 81.6122 23.2907C78.5841 23.2907 77.5576 21.2634 76.6936 19.4865C75.9165 17.8879 75.1049 16.5587 74.0555 16.5587C73.8717 16.5689 73.6919 16.6162 73.527 16.6978C73.362 16.7794 73.2152 16.8935 73.0954 17.0332C70.4873 19.682 69.6126 33.5391 64.3976 38.8356C61.5066 41.7716 58.3609 41.7716 56.3936 41.7716Z" fill="url(#paint11_radial_13250_6181)"/>
<path d="M56.3936 41.7716C47.5055 41.7716 44.4805 30.5404 43.8026 28.3554C42.7104 24.7836 41.949 21.119 41.5281 17.4078C41.2121 14.4153 43.6143 12.3327 46.251 12.3327C47.4 12.2872 48.5222 12.6874 49.3832 13.4497C50.2441 14.2121 50.7771 15.2776 50.8711 16.4237C51.2051 19.5667 51.8396 22.6704 52.7659 25.6923C54.2642 30.4712 55.8537 32.3088 56.9983 32.3088C58.8468 32.3088 59.9746 27.565 60.9716 23.048C61.7062 19.7201 62.5002 16.3667 64.0679 13.3878C66.7949 8.20586 70.9162 7 74.4765 7C82.2835 7 86.1908 16.0378 86.1908 18.3794C86.2273 19.006 86.1364 19.6335 85.9235 20.2239C85.7106 20.8144 85.3802 21.3555 84.9521 21.8146C84.5242 22.2737 84.0075 22.6412 83.4334 22.8949C82.8593 23.1486 82.2398 23.2833 81.6122 23.2907C78.5841 23.2907 77.5576 21.2634 76.6936 19.4865C75.9165 17.8879 75.1049 16.5587 74.0555 16.5587C73.8717 16.5689 73.6919 16.6162 73.527 16.6978C73.362 16.7794 73.2152 16.8935 73.0954 17.0332C70.4873 19.682 69.6126 33.5391 64.3976 38.8356C61.5066 41.7716 58.3609 41.7716 56.3936 41.7716Z" fill="url(#paint12_radial_13250_6181)"/>
<path d="M56.3936 41.7716C47.5055 41.7716 44.4805 30.5404 43.8026 28.3554C42.7104 24.7836 41.949 21.119 41.5281 17.4078C41.2121 14.4153 43.6143 12.3327 46.251 12.3327C47.4 12.2872 48.5222 12.6874 49.3832 13.4497C50.2441 14.2121 50.7771 15.2776 50.8711 16.4237C51.2051 19.5667 51.8396 22.6704 52.7659 25.6923C54.2642 30.4712 55.8537 32.3088 56.9983 32.3088C58.8468 32.3088 59.9746 27.565 60.9716 23.048C61.7062 19.7201 62.5002 16.3667 64.0679 13.3878C66.7949 8.20586 70.9162 7 74.4765 7C82.2835 7 86.1908 16.0378 86.1908 18.3794C86.2273 19.006 86.1364 19.6335 85.9235 20.2239C85.7106 20.8144 85.3802 21.3555 84.9521 21.8146C84.5242 22.2737 84.0075 22.6412 83.4334 22.8949C82.8593 23.1486 82.2398 23.2833 81.6122 23.2907C78.5841 23.2907 77.5576 21.2634 76.6936 19.4865C75.9165 17.8879 75.1049 16.5587 74.0555 16.5587C73.8717 16.5689 73.6919 16.6162 73.527 16.6978C73.362 16.7794 73.2152 16.8935 73.0954 17.0332C70.4873 19.682 69.6126 33.5391 64.3976 38.8356C61.5066 41.7716 58.3609 41.7716 56.3936 41.7716Z" fill="url(#paint13_radial_13250_6181)"/>
<path d="M56.3936 41.7716C47.5055 41.7716 44.4805 30.5404 43.8026 28.3554C42.7104 24.7836 41.949 21.119 41.5281 17.4078C41.2121 14.4153 43.6143 12.3327 46.251 12.3327C47.4 12.2872 48.5222 12.6874 49.3832 13.4497C50.2441 14.2121 50.7771 15.2776 50.8711 16.4237C51.2051 19.5667 51.8397 22.6704 52.7659 25.6923C54.2642 30.4712 55.8537 32.3088 56.9983 32.3088C58.8468 32.3088 59.9746 27.565 60.9716 23.048C61.7062 19.7201 62.5002 16.3667 64.0679 13.3878C66.7949 8.20586 70.9162 7 74.4765 7C82.2835 7 86.1908 16.0378 86.1908 18.3794C86.2273 19.006 86.1364 19.6335 85.9235 20.2239C85.7106 20.8144 85.3802 21.3555 84.9521 21.8146C84.5242 22.2737 84.0075 22.6412 83.4334 22.8949C82.8593 23.1486 82.2398 23.2833 81.6122 23.2907C78.5841 23.2907 77.5576 21.2634 76.6936 19.4865C75.9165 17.8879 75.1049 16.5587 74.0555 16.5587C73.8717 16.5689 73.6919 16.6162 73.527 16.6978C73.362 16.7794 73.2152 16.8935 73.0954 17.0332C70.4873 19.682 69.6126 33.5391 64.3976 38.8356C61.5066 41.7716 58.3609 41.7716 56.3936 41.7716Z" fill="url(#paint14_linear_13250_6181)"/>
<path d="M84.7509 12.3328C84.3974 12.3325 84.0448 12.3665 83.6979 12.4344C85.3482 14.8121 86.1739 17.303 86.1739 18.3793C86.2096 19.2299 86.0143 20.0743 85.6088 20.8229C85.2032 21.5715 84.6026 22.1964 83.8707 22.6312C83.1387 23.066 81.8715 23.2763 81.4669 23.2763C81.0623 23.2763 79.7468 23.0309 79.0169 22.5927V22.693C78.8223 23.4696 78.6687 24.3196 78.4029 25.1467C77.8872 26.8004 77.2396 28.4099 76.4661 29.9597C75.6726 31.4752 74.8868 32.362 73.9503 32.3154C72.8853 32.2626 72.0218 30.8909 70.9486 27.0142C70.6024 25.7643 70.282 24.3939 69.985 23.0482C69.2483 19.7105 68.3441 16.3541 66.7979 13.388C65.8607 11.464 64.3994 9.84378 62.582 8.7137C60.7647 7.58363 58.6652 6.98965 56.5251 7.00014C53.3356 7.00014 50.9527 8.50906 49.0806 10.4101C48.4719 11.0494 47.9199 11.7404 47.4307 12.4751C48.3522 12.6732 49.1843 13.1654 49.8017 13.8775C50.4192 14.5897 50.7884 15.4832 50.8538 16.4235C51.1437 19.1451 51.6568 21.8383 52.3879 24.4758C52.919 22.7729 53.5603 21.1063 54.3079 19.4867C54.6789 18.6439 55.1787 17.864 55.7893 17.1748C55.9249 17.0085 56.0925 16.8711 56.2821 16.7708C56.4717 16.6705 56.6796 16.6091 56.8933 16.5905C57.2493 16.5905 58.4651 16.9161 59.6487 21.0662C61.1166 26.2123 62.209 34.4023 66.371 38.7509C68.2067 40.669 70.7755 41.91 74.3358 41.91C75.7568 41.904 77.1618 41.6096 78.4657 41.0446C79.7696 40.4796 80.9452 39.6557 81.9213 38.623C84.9745 35.4784 86.6476 30.2794 87.2444 28.3555C88.3324 24.7851 89.0788 21.1195 89.4735 17.408C89.7894 14.4154 87.2664 12.3328 84.7509 12.3328Z" fill="#EFEFEF"/>
<path d="M84.7509 12.3328C84.3974 12.3325 84.0448 12.3665 83.6979 12.4344C85.3482 14.8121 86.1739 17.303 86.1739 18.3793C86.2096 19.2299 86.0143 20.0743 85.6088 20.8229C85.2032 21.5715 84.6026 22.1964 83.8707 22.6312C83.1387 23.066 81.8715 23.2763 81.4669 23.2763C81.0623 23.2763 79.7468 23.0309 79.0169 22.5927V22.693C78.8223 23.4696 78.6687 24.3196 78.4029 25.1467C77.8872 26.8004 77.2396 28.4099 76.4661 29.9597C75.6726 31.4752 74.8868 32.362 73.9503 32.3154C72.8853 32.2626 72.0218 30.8909 70.9486 27.0142C70.6024 25.7643 70.282 24.3939 69.985 23.0482C69.2483 19.7105 68.3441 16.3541 66.7979 13.388C65.8607 11.464 64.3994 9.84378 62.582 8.7137C60.7647 7.58363 58.6652 6.98965 56.5251 7.00014C53.3356 7.00014 50.9527 8.50906 49.0806 10.4101C48.4719 11.0494 47.9199 11.7404 47.4307 12.4751C48.3522 12.6732 49.1843 13.1654 49.8017 13.8775C50.4192 14.5897 50.7884 15.4832 50.8538 16.4235C51.1437 19.1451 51.6568 21.8383 52.3879 24.4758C52.919 22.7729 53.5603 21.1063 54.3079 19.4867C54.6789 18.6439 55.1787 17.864 55.7893 17.1748C55.9249 17.0085 56.0925 16.8711 56.2821 16.7708C56.4717 16.6705 56.6796 16.6091 56.8933 16.5905C57.2493 16.5905 58.4651 16.9161 59.6487 21.0662C61.1166 26.2123 62.209 34.4023 66.371 38.7509C68.2067 40.669 70.7755 41.91 74.3358 41.91C75.7568 41.904 77.1618 41.6096 78.4657 41.0446C79.7696 40.4796 80.9452 39.6557 81.9213 38.623C84.9745 35.4784 86.6476 30.2794 87.2444 28.3555C88.3324 24.7851 89.0788 21.1195 89.4735 17.408C89.7894 14.4154 87.2664 12.3328 84.7509 12.3328Z" fill="url(#paint15_radial_13250_6181)"/>
<path d="M84.7509 12.3328C84.3974 12.3325 84.0448 12.3665 83.6979 12.4344C85.3482 14.8121 86.1739 17.303 86.1739 18.3793C86.2096 19.2299 86.0143 20.0743 85.6088 20.8229C85.2032 21.5715 84.6026 22.1964 83.8707 22.6312C83.1387 23.066 81.8715 23.2763 81.4669 23.2763C81.0623 23.2763 79.7468 23.0309 79.0169 22.5927V22.693C78.8223 23.4696 78.6687 24.3196 78.4029 25.1467C77.8872 26.8004 77.2396 28.4099 76.4661 29.9597C75.6726 31.4752 74.8868 32.362 73.9503 32.3154C72.8853 32.2626 72.0218 30.8909 70.9486 27.0142C70.6024 25.7643 70.282 24.3939 69.985 23.0482C69.2483 19.7105 68.3441 16.3541 66.7979 13.388C65.8607 11.464 64.3994 9.84378 62.582 8.7137C60.7647 7.58363 58.6652 6.98965 56.5251 7.00014C53.3356 7.00014 50.9527 8.50906 49.0806 10.4101C48.4719 11.0494 47.9199 11.7404 47.4307 12.4751C48.3522 12.6732 49.1843 13.1654 49.8017 13.8775C50.4192 14.5897 50.7884 15.4832 50.8538 16.4235C51.1437 19.1451 51.6568 21.8383 52.3879 24.4758C52.919 22.7729 53.5603 21.1063 54.3079 19.4867C54.6789 18.6439 55.1787 17.864 55.7893 17.1748C55.9249 17.0085 56.0925 16.8711 56.2821 16.7708C56.4717 16.6705 56.6796 16.6091 56.8933 16.5905C57.2493 16.5905 58.4651 16.9161 59.6487 21.0662C61.1166 26.2123 62.209 34.4023 66.371 38.7509C68.2067 40.669 70.7755 41.91 74.3358 41.91C75.7568 41.904 77.1618 41.6096 78.4657 41.0446C79.7696 40.4796 80.9452 39.6557 81.9213 38.623C84.9745 35.4784 86.6476 30.2794 87.2444 28.3555C88.3324 24.7851 89.0788 21.1195 89.4735 17.408C89.7894 14.4154 87.2664 12.3328 84.7509 12.3328Z" fill="url(#paint16_radial_13250_6181)"/>
<path d="M84.7509 12.3328C84.3974 12.3325 84.0448 12.3665 83.6979 12.4344C85.3482 14.8121 86.1739 17.303 86.1739 18.3793C86.2096 19.2299 86.0143 20.0743 85.6088 20.8229C85.2032 21.5715 84.6026 22.1964 83.8707 22.6312C83.1387 23.066 81.8715 23.2763 81.4669 23.2763C81.0623 23.2763 79.7468 23.0309 79.0169 22.5927V22.693C78.8223 23.4696 78.6687 24.3196 78.4029 25.1467C77.8872 26.8004 77.2396 28.4099 76.4661 29.9597C75.6726 31.4752 74.8868 32.362 73.9503 32.3154C72.8853 32.2626 72.0218 30.8909 70.9486 27.0142C70.6024 25.7643 70.282 24.3939 69.985 23.0482C69.2483 19.7105 68.3441 16.3541 66.7979 13.388C65.8607 11.464 64.3994 9.84378 62.582 8.7137C60.7647 7.58363 58.6652 6.98965 56.5251 7.00014C53.3356 7.00014 50.9527 8.50906 49.0806 10.4101C48.4719 11.0494 47.9199 11.7404 47.4307 12.4751C48.3522 12.6732 49.1843 13.1654 49.8017 13.8775C50.4192 14.5897 50.7884 15.4832 50.8538 16.4235C51.1437 19.1451 51.6568 21.8383 52.3879 24.4758C52.919 22.7729 53.5603 21.1063 54.3079 19.4867C54.6789 18.6439 55.1787 17.864 55.7893 17.1748C55.9249 17.0085 56.0925 16.8711 56.2821 16.7708C56.4717 16.6705 56.6796 16.6091 56.8933 16.5905C57.2493 16.5905 58.4651 16.9161 59.6487 21.0662C61.1166 26.2123 62.209 34.4023 66.371 38.7509C68.2067 40.669 70.7755 41.91 74.3358 41.91C75.7568 41.904 77.1618 41.6096 78.4657 41.0446C79.7696 40.4796 80.9452 39.6557 81.9213 38.623C84.9745 35.4784 86.6476 30.2794 87.2444 28.3555C88.3324 24.7851 89.0788 21.1195 89.4735 17.408C89.7894 14.4154 87.2664 12.3328 84.7509 12.3328Z" fill="url(#paint17_radial_13250_6181)"/>
<path d="M84.7509 12.3328C84.3974 12.3325 84.0448 12.3665 83.6979 12.4344C85.3482 14.8121 86.1739 17.303 86.1739 18.3793C86.2096 19.2299 86.0143 20.0743 85.6088 20.8229C85.2032 21.5715 84.6026 22.1964 83.8707 22.6312C83.1387 23.066 81.8715 23.2763 81.4669 23.2763C81.0623 23.2763 79.7468 23.0309 79.0169 22.5927V22.693C78.8223 23.4696 78.6687 24.3196 78.4029 25.1467C77.8872 26.8004 77.2396 28.4099 76.4661 29.9597C75.6726 31.4752 74.8868 32.362 73.9503 32.3154C72.8853 32.2626 72.0218 30.8909 70.9486 27.0142C70.6024 25.7643 70.282 24.3939 69.985 23.0482C69.2483 19.7105 68.3441 16.3541 66.7979 13.388C65.8607 11.464 64.3994 9.84378 62.582 8.7137C60.7647 7.58363 58.6652 6.98965 56.5251 7.00014C53.3356 7.00014 50.9527 8.50906 49.0806 10.4101C48.4719 11.0494 47.9199 11.7404 47.4307 12.4751C48.3522 12.6732 49.1843 13.1654 49.8017 13.8775C50.4192 14.5897 50.7884 15.4832 50.8538 16.4235C51.1437 19.1451 51.6568 21.8383 52.3879 24.4758C52.919 22.7729 53.5603 21.1063 54.3079 19.4867C54.6789 18.6439 55.1787 17.864 55.7893 17.1748C55.9249 17.0085 56.0925 16.8711 56.2821 16.7708C56.4717 16.6705 56.6796 16.6091 56.8933 16.5905C57.2493 16.5905 58.4651 16.9161 59.6487 21.0662C61.1166 26.2123 62.209 34.4023 66.371 38.7509C68.2067 40.669 70.7755 41.91 74.3358 41.91C75.7568 41.904 77.1618 41.6096 78.4657 41.0446C79.7696 40.4796 80.9452 39.6557 81.9213 38.623C84.9745 35.4784 86.6476 30.2794 87.2444 28.3555C88.3324 24.7851 89.0788 21.1195 89.4735 17.408C89.7894 14.4154 87.2664 12.3328 84.7509 12.3328Z" fill="url(#paint18_radial_13250_6181)"/>
<path d="M84.7509 12.3328C84.3974 12.3325 84.0448 12.3665 83.6979 12.4344C85.3482 14.8121 86.1739 17.303 86.1739 18.3793C86.2096 19.2299 86.0143 20.0743 85.6088 20.8229C85.2032 21.5715 84.6026 22.1964 83.8707 22.6312C83.1387 23.066 81.8715 23.2763 81.4669 23.2763C81.0623 23.2763 79.7468 23.0309 79.0169 22.5927V22.693C78.8223 23.4696 78.6687 24.3196 78.4029 25.1467C77.8872 26.8004 77.2396 28.4099 76.4661 29.9597C75.6726 31.4752 74.8868 32.362 73.9503 32.3154C72.8853 32.2626 72.0218 30.8909 70.9486 27.0142C70.6024 25.7643 70.282 24.3939 69.985 23.0482C69.2483 19.7105 68.3441 16.3541 66.7979 13.388C65.8607 11.464 64.3994 9.84378 62.582 8.7137C60.7647 7.58363 58.6652 6.98965 56.5251 7.00014C53.3356 7.00014 50.9527 8.50906 49.0806 10.4101C48.4719 11.0494 47.9199 11.7404 47.4307 12.4751C48.3522 12.6732 49.1843 13.1654 49.8017 13.8775C50.4192 14.5897 50.7884 15.4832 50.8538 16.4235C51.1437 19.1451 51.6568 21.8383 52.3879 24.4758C52.919 22.7729 53.5603 21.1063 54.3079 19.4867C54.6789 18.6439 55.1787 17.864 55.7893 17.1748C55.9249 17.0085 56.0925 16.8711 56.2821 16.7708C56.4717 16.6705 56.6796 16.6091 56.8933 16.5905C57.2493 16.5905 58.4651 16.9161 59.6487 21.0662C61.1166 26.2123 62.209 34.4023 66.371 38.7509C68.2067 40.669 70.7755 41.91 74.3358 41.91C75.7568 41.904 77.1618 41.6096 78.4657 41.0446C79.7696 40.4796 80.9452 39.6557 81.9213 38.623C84.9745 35.4784 86.6476 30.2794 87.2444 28.3555C88.3324 24.7851 89.0788 21.1195 89.4735 17.408C89.7894 14.4154 87.2664 12.3328 84.7509 12.3328Z" fill="url(#paint19_radial_13250_6181)"/>
<path d="M84.7509 12.3328C84.3974 12.3325 84.0448 12.3665 83.6979 12.4344C85.3482 14.8121 86.1739 17.303 86.1739 18.3793C86.2096 19.2299 86.0143 20.0743 85.6088 20.8229C85.2032 21.5715 84.6026 22.1964 83.8707 22.6312C83.1387 23.066 81.8715 23.2763 81.4669 23.2763C81.0623 23.2763 79.7468 23.0309 79.0169 22.5927V22.693C78.8223 23.4696 78.6687 24.3196 78.4029 25.1467C77.8872 26.8004 77.2396 28.4099 76.4661 29.9597C75.6726 31.4752 74.8868 32.362 73.9503 32.3154C72.8853 32.2626 72.0218 30.8909 70.9486 27.0142C70.6024 25.7643 70.282 24.3939 69.985 23.0482C69.2483 19.7105 68.3441 16.3541 66.7979 13.388C65.8607 11.464 64.3994 9.84378 62.582 8.7137C60.7647 7.58363 58.6652 6.98965 56.5251 7.00014C53.3356 7.00014 50.9527 8.50906 49.0806 10.4101C48.4719 11.0494 47.9199 11.7404 47.4307 12.4751C48.3522 12.6732 49.1843 13.1654 49.8017 13.8775C50.4192 14.5897 50.7884 15.4832 50.8538 16.4235C51.1437 19.1451 51.6568 21.8383 52.3879 24.4758C52.919 22.7729 53.5603 21.1063 54.3079 19.4867C54.6789 18.6439 55.1787 17.864 55.7893 17.1748C55.9249 17.0085 56.0925 16.8711 56.2821 16.7708C56.4717 16.6705 56.6796 16.6091 56.8933 16.5905C57.2493 16.5905 58.4651 16.9161 59.6487 21.0662C61.1166 26.2123 62.209 34.4023 66.371 38.7509C68.2067 40.669 70.7755 41.91 74.3358 41.91C75.7568 41.904 77.1618 41.6096 78.4657 41.0446C79.7696 40.4796 80.9452 39.6557 81.9213 38.623C84.9745 35.4784 86.6476 30.2794 87.2444 28.3555C88.3324 24.7851 89.0788 21.1195 89.4735 17.408C89.7894 14.4154 87.2664 12.3328 84.7509 12.3328Z" fill="url(#paint20_radial_13250_6181)"/>
<path d="M84.7509 12.3328C84.3974 12.3325 84.0448 12.3665 83.6979 12.4344C85.3482 14.8121 86.1739 17.303 86.1739 18.3793C86.2096 19.2299 86.0143 20.0743 85.6088 20.8229C85.2032 21.5715 84.6026 22.1964 83.8707 22.6312C83.1387 23.066 81.8715 23.2763 81.4669 23.2763C81.0623 23.2763 79.7468 23.0309 79.0169 22.5927V22.693C78.8223 23.4696 78.6687 24.3196 78.4029 25.1467C77.8872 26.8004 77.2396 28.4099 76.4661 29.9597C75.6726 31.4752 74.8868 32.362 73.9503 32.3154C72.8853 32.2626 72.0218 30.8909 70.9486 27.0142C70.6024 25.7643 70.282 24.3939 69.985 23.0482C69.2483 19.7105 68.3441 16.3541 66.7979 13.388C65.8607 11.464 64.3994 9.84378 62.582 8.7137C60.7647 7.58363 58.6652 6.98965 56.5251 7.00014C53.3356 7.00014 50.9527 8.50906 49.0806 10.4101C48.4719 11.0494 47.9199 11.7404 47.4307 12.4751C48.3522 12.6732 49.1843 13.1654 49.8017 13.8775C50.4192 14.5897 50.7884 15.4832 50.8538 16.4235C51.1437 19.1451 51.6568 21.8383 52.3879 24.4758C52.919 22.7729 53.5603 21.1063 54.3079 19.4867C54.6789 18.6439 55.1787 17.864 55.7893 17.1748C55.9249 17.0085 56.0925 16.8711 56.2821 16.7708C56.4717 16.6705 56.6796 16.6091 56.8933 16.5905C57.2493 16.5905 58.4651 16.9161 59.6487 21.0662C61.1166 26.2123 62.209 34.4023 66.371 38.7509C68.2067 40.669 70.7755 41.91 74.3358 41.91C75.7568 41.904 77.1618 41.6096 78.4657 41.0446C79.7696 40.4796 80.9452 39.6557 81.9213 38.623C84.9745 35.4784 86.6476 30.2794 87.2444 28.3555C88.3324 24.7851 89.0788 21.1195 89.4735 17.408C89.7894 14.4154 87.2664 12.3328 84.7509 12.3328Z" fill="url(#paint21_radial_13250_6181)"/>
<path d="M84.7509 12.3328C84.3974 12.3325 84.0448 12.3665 83.6979 12.4344C85.3482 14.8121 86.1739 17.303 86.1739 18.3793C86.2096 19.2299 86.0143 20.0743 85.6088 20.8229C85.2032 21.5715 84.6026 22.1964 83.8707 22.6312C83.1387 23.066 81.8715 23.2763 81.4669 23.2763C81.0623 23.2763 79.7468 23.0309 79.0169 22.5927V22.693C78.8223 23.4696 78.6687 24.3196 78.4029 25.1467C77.8872 26.8004 77.2396 28.4099 76.4661 29.9597C75.6726 31.4752 74.8868 32.362 73.9503 32.3154C72.8853 32.2626 72.0218 30.8909 70.9486 27.0142C70.6024 25.7643 70.282 24.3939 69.985 23.0482C69.2483 19.7105 68.3441 16.3541 66.7979 13.388C65.8607 11.464 64.3994 9.84378 62.582 8.7137C60.7647 7.58363 58.6652 6.98965 56.5251 7.00014C53.3356 7.00014 50.9527 8.50906 49.0806 10.4101C48.4719 11.0494 47.9199 11.7404 47.4307 12.4751C48.3522 12.6732 49.1843 13.1654 49.8017 13.8775C50.4192 14.5897 50.7884 15.4832 50.8538 16.4235C51.1437 19.1451 51.6568 21.8383 52.3879 24.4758C52.919 22.7729 53.5603 21.1063 54.3079 19.4867C54.6789 18.6439 55.1787 17.864 55.7893 17.1748C55.9249 17.0085 56.0925 16.8711 56.2821 16.7708C56.4717 16.6705 56.6796 16.6091 56.8933 16.5905C57.2493 16.5905 58.4651 16.9161 59.6487 21.0662C61.1166 26.2123 62.209 34.4023 66.371 38.7509C68.2067 40.669 70.7755 41.91 74.3358 41.91C75.7568 41.904 77.1618 41.6096 78.4657 41.0446C79.7696 40.4796 80.9452 39.6557 81.9213 38.623C84.9745 35.4784 86.6476 30.2794 87.2444 28.3555C88.3324 24.7851 89.0788 21.1195 89.4735 17.408C89.7894 14.4154 87.2664 12.3328 84.7509 12.3328Z" fill="url(#paint22_radial_13250_6181)"/>
<path d="M84.7509 12.3328C84.3974 12.3325 84.0448 12.3665 83.6979 12.4344C85.3482 14.8121 86.1739 17.303 86.1739 18.3793C86.2096 19.2299 86.0143 20.0743 85.6088 20.8229C85.2032 21.5715 84.6026 22.1964 83.8707 22.6312C83.1387 23.066 81.8715 23.2763 81.4669 23.2763C81.0623 23.2763 79.7468 23.0309 79.0169 22.5927V22.693C78.8223 23.4696 78.6687 24.3196 78.4029 25.1467C77.8872 26.8004 77.2396 28.4099 76.4661 29.9597C75.6726 31.4752 74.8868 32.362 73.9503 32.3154C72.8853 32.2626 72.0218 30.8909 70.9486 27.0142C70.6024 25.7643 70.282 24.3939 69.985 23.0482C69.2483 19.7105 68.3441 16.3541 66.7979 13.388C65.8607 11.464 64.3994 9.84378 62.582 8.7137C60.7647 7.58363 58.6652 6.98965 56.5251 7.00014C53.3356 7.00014 50.9527 8.50906 49.0806 10.4101C48.4719 11.0494 47.9199 11.7404 47.4307 12.4751C48.3522 12.6732 49.1843 13.1654 49.8017 13.8775C50.4192 14.5897 50.7884 15.4832 50.8538 16.4235C51.1437 19.1451 51.6568 21.8383 52.3879 24.4758C52.919 22.7729 53.5603 21.1063 54.3079 19.4867C54.6789 18.6439 55.1787 17.864 55.7893 17.1748C55.9249 17.0085 56.0925 16.8711 56.2821 16.7708C56.4717 16.6705 56.6796 16.6091 56.8933 16.5905C57.2493 16.5905 58.4651 16.9161 59.6487 21.0662C61.1166 26.2123 62.209 34.4023 66.371 38.7509C68.2067 40.669 70.7755 41.91 74.3358 41.91C75.7568 41.904 77.1618 41.6096 78.4657 41.0446C79.7696 40.4796 80.9452 39.6557 81.9213 38.623C84.9745 35.4784 86.6476 30.2794 87.2444 28.3555C88.3324 24.7851 89.0788 21.1195 89.4735 17.408C89.7894 14.4154 87.2664 12.3328 84.7509 12.3328Z" fill="url(#paint23_radial_13250_6181)"/>
<path d="M84.7509 12.3328C84.3974 12.3325 84.0448 12.3665 83.6979 12.4344C85.3482 14.8121 86.1739 17.303 86.1739 18.3793C86.2096 19.2299 86.0143 20.0743 85.6088 20.8229C85.2032 21.5715 84.6026 22.1964 83.8707 22.6312C83.1387 23.066 81.8715 23.2763 81.4669 23.2763C81.0623 23.2763 79.7468 23.0309 79.0169 22.5927V22.693C78.8223 23.4696 78.6687 24.3196 78.4029 25.1467C77.8872 26.8004 77.2396 28.4099 76.4661 29.9597C75.6726 31.4752 74.8868 32.362 73.9503 32.3154C72.8853 32.2626 72.0218 30.8909 70.9486 27.0142C70.6024 25.7643 70.282 24.3939 69.985 23.0482C69.2483 19.7105 68.3441 16.3541 66.7979 13.388C65.8607 11.464 64.3994 9.84378 62.582 8.7137C60.7647 7.58363 58.6652 6.98965 56.5251 7.00014C53.3356 7.00014 50.9527 8.50906 49.0806 10.4101C48.4719 11.0494 47.9199 11.7404 47.4307 12.4751C48.3522 12.6732 49.1843 13.1654 49.8017 13.8775C50.4192 14.5897 50.7884 15.4832 50.8538 16.4235C51.1437 19.1451 51.6568 21.8383 52.3879 24.4758C52.919 22.7729 53.5603 21.1063 54.3079 19.4867C54.6789 18.6439 55.1787 17.864 55.7893 17.1748C55.9249 17.0085 56.0925 16.8711 56.2821 16.7708C56.4717 16.6705 56.6796 16.6091 56.8933 16.5905C57.2493 16.5905 58.4651 16.9161 59.6487 21.0662C61.1166 26.2123 62.209 34.4023 66.371 38.7509C68.2067 40.669 70.7755 41.91 74.3358 41.91C75.7568 41.904 77.1618 41.6096 78.4657 41.0446C79.7696 40.4796 80.9452 39.6557 81.9213 38.623C84.9745 35.4784 86.6476 30.2794 87.2444 28.3555C88.3324 24.7851 89.0788 21.1195 89.4735 17.408C89.7894 14.4154 87.2664 12.3328 84.7509 12.3328Z" fill="url(#paint24_radial_13250_6181)"/>
<path d="M84.7509 12.3328C84.3974 12.3325 84.0448 12.3665 83.6979 12.4344C85.3482 14.8121 86.1739 17.303 86.1739 18.3793C86.2096 19.2299 86.0143 20.0743 85.6088 20.8229C85.2032 21.5715 84.6026 22.1964 83.8707 22.6312C83.1387 23.066 81.8715 23.2763 81.4669 23.2763C81.0623 23.2763 79.7468 23.0309 79.0169 22.5927V22.693C78.8223 23.4696 78.6687 24.3196 78.4029 25.1467C77.8872 26.8004 77.2396 28.4099 76.4661 29.9597C75.6726 31.4752 74.8868 32.362 73.9503 32.3154C72.8853 32.2626 72.0218 30.8909 70.9486 27.0142C70.6024 25.7643 70.282 24.3939 69.985 23.0482C69.2483 19.7105 68.3441 16.3541 66.7979 13.388C65.8607 11.464 64.3994 9.84378 62.582 8.7137C60.7647 7.58363 58.6652 6.98965 56.5251 7.00014C53.3356 7.00014 50.9527 8.50906 49.0806 10.4101C48.4719 11.0494 47.9199 11.7404 47.4307 12.4751C48.3522 12.6732 49.1843 13.1654 49.8017 13.8775C50.4192 14.5897 50.7884 15.4832 50.8538 16.4235C51.1437 19.1451 51.6568 21.8383 52.3879 24.4758C52.919 22.7729 53.5603 21.1063 54.3079 19.4867C54.6789 18.6439 55.1787 17.864 55.7893 17.1748C55.9249 17.0085 56.0925 16.8711 56.2821 16.7708C56.4717 16.6705 56.6796 16.6091 56.8933 16.5905C57.2493 16.5905 58.4651 16.9161 59.6487 21.0662C61.1166 26.2123 62.209 34.4023 66.371 38.7509C68.2067 40.669 70.7755 41.91 74.3358 41.91C75.7568 41.904 77.1618 41.6096 78.4657 41.0446C79.7696 40.4796 80.9452 39.6557 81.9213 38.623C84.9745 35.4784 86.6476 30.2794 87.2444 28.3555C88.3324 24.7851 89.0788 21.1195 89.4735 17.408C89.7894 14.4154 87.2664 12.3328 84.7509 12.3328Z" fill="url(#paint25_radial_13250_6181)"/>
<path d="M84.7509 12.3328C84.3974 12.3325 84.0448 12.3665 83.6979 12.4344C85.3482 14.8121 86.1739 17.303 86.1739 18.3793C86.2096 19.2299 86.0143 20.0743 85.6088 20.8229C85.2032 21.5715 84.6026 22.1964 83.8707 22.6312C83.1387 23.066 81.8715 23.2763 81.4669 23.2763C81.0623 23.2763 79.7468 23.0309 79.0169 22.5927V22.693C78.8223 23.4696 78.6687 24.3196 78.4029 25.1467C77.8872 26.8004 77.2396 28.4099 76.4661 29.9597C75.6726 31.4752 74.8868 32.362 73.9503 32.3154C72.8853 32.2626 72.0218 30.8909 70.9486 27.0142C70.6024 25.7643 70.282 24.3939 69.985 23.0482C69.2483 19.7105 68.3441 16.3541 66.7979 13.388C65.8607 11.464 64.3994 9.84378 62.582 8.7137C60.7647 7.58363 58.6652 6.98965 56.5251 7.00014C53.3356 7.00014 50.9527 8.50906 49.0806 10.4101C48.4719 11.0494 47.9199 11.7404 47.4307 12.4751C48.3522 12.6732 49.1843 13.1654 49.8017 13.8775C50.4192 14.5897 50.7884 15.4832 50.8538 16.4235C51.1437 19.1451 51.6568 21.8383 52.3879 24.4758C52.919 22.7729 53.5603 21.1063 54.3079 19.4867C54.6789 18.6439 55.1787 17.864 55.7893 17.1748C55.9249 17.0085 56.0925 16.8711 56.2821 16.7708C56.4717 16.6705 56.6796 16.6091 56.8933 16.5905C57.2493 16.5905 58.4651 16.9161 59.6487 21.0662C61.1166 26.2123 62.209 34.4023 66.371 38.7509C68.2067 40.669 70.7755 41.91 74.3358 41.91C75.7568 41.904 77.1618 41.6096 78.4657 41.0446C79.7696 40.4796 80.9452 39.6557 81.9213 38.623C84.9745 35.4784 86.6476 30.2794 87.2444 28.3555C88.3324 24.7851 89.0788 21.1195 89.4735 17.408C89.7894 14.4154 87.2664 12.3328 84.7509 12.3328Z" fill="url(#paint26_radial_13250_6181)"/>
<path d="M84.7509 12.3328C84.3974 12.3325 84.0448 12.3665 83.6979 12.4344C85.3482 14.8121 86.1739 17.303 86.1739 18.3793C86.2096 19.2299 86.0143 20.0743 85.6088 20.8229C85.2032 21.5715 84.6026 22.1964 83.8707 22.6312C83.1387 23.066 81.8715 23.2763 81.4669 23.2763C81.0623 23.2763 79.7468 23.0309 79.0169 22.5927V22.693C78.8223 23.4696 78.6687 24.3196 78.4029 25.1467C77.8872 26.8004 77.2396 28.4099 76.4661 29.9597C75.6726 31.4752 74.8868 32.362 73.9503 32.3154C72.8853 32.2626 72.0218 30.8909 70.9486 27.0142C70.6024 25.7643 70.282 24.3939 69.985 23.0482C69.2483 19.7105 68.3441 16.3541 66.7979 13.388C65.8607 11.464 64.3994 9.84378 62.582 8.7137C60.7647 7.58363 58.6652 6.98965 56.5251 7.00014C53.3356 7.00014 50.9527 8.50906 49.0806 10.4101C48.4719 11.0494 47.9199 11.7404 47.4307 12.4751C48.3522 12.6732 49.1843 13.1654 49.8017 13.8775C50.4192 14.5897 50.7884 15.4832 50.8538 16.4235C51.1437 19.1451 51.6568 21.8383 52.3879 24.4758C52.919 22.7729 53.5603 21.1063 54.3079 19.4867C54.6789 18.6439 55.1787 17.864 55.7893 17.1748C55.9249 17.0085 56.0925 16.8711 56.2821 16.7708C56.4717 16.6705 56.6796 16.6091 56.8933 16.5905C57.2493 16.5905 58.4651 16.9161 59.6487 21.0662C61.1166 26.2123 62.209 34.4023 66.371 38.7509C68.2067 40.669 70.7755 41.91 74.3358 41.91C75.7568 41.904 77.1618 41.6096 78.4657 41.0446C79.7696 40.4796 80.9452 39.6557 81.9213 38.623C84.9745 35.4784 86.6476 30.2794 87.2444 28.3555C88.3324 24.7851 89.0788 21.1195 89.4735 17.408C89.7894 14.4154 87.2664 12.3328 84.7509 12.3328Z" fill="url(#paint27_radial_13250_6181)"/>
<path d="M56.3936 41.7716C47.5055 41.7716 44.4805 30.5404 43.8026 28.3554C42.7104 24.7836 41.949 21.119 41.5281 17.4078C41.2121 14.4153 43.6143 12.3327 46.251 12.3327C47.4 12.2872 48.5222 12.6874 49.3832 13.4497C50.2441 14.2121 50.7771 15.2776 50.8711 16.4237C51.2051 19.5667 51.8397 22.6704 52.7659 25.6923C54.2642 30.4712 55.8537 32.3088 56.9983 32.3088C58.8468 32.3088 59.9746 27.565 60.9716 23.048C61.7062 19.7201 62.5002 16.3667 64.0679 13.3878C66.7949 8.20586 70.9162 7 74.4765 7C82.2835 7 86.1908 16.0378 86.1908 18.3794C86.2273 19.006 86.1364 19.6335 85.9235 20.2239C85.7106 20.8144 85.3802 21.3555 84.9521 21.8146C84.5242 22.2737 84.0075 22.6412 83.4334 22.8949C82.8593 23.1486 82.2398 23.2833 81.6122 23.2907C78.5841 23.2907 77.5576 21.2634 76.6936 19.4865C75.9165 17.8879 75.1049 16.5587 74.0555 16.5587C73.8717 16.5689 73.6919 16.6162 73.527 16.6978C73.362 16.7794 73.2152 16.8935 73.0954 17.0332C70.4873 19.682 69.6126 33.5391 64.3976 38.8356C61.5066 41.7716 58.3609 41.7716 56.3936 41.7716Z" fill="url(#paint28_linear_13250_6181)"/>
<path d="M56.3936 41.7716C47.5055 41.7716 44.4805 30.5404 43.8026 28.3554C42.7104 24.7836 41.949 21.119 41.5281 17.4078C41.2121 14.4153 43.6143 12.3327 46.251 12.3327C47.4 12.2872 48.5222 12.6874 49.3832 13.4497C50.2441 14.2121 50.7771 15.2776 50.8711 16.4237C51.2051 19.5667 51.8397 22.6704 52.7659 25.6923C54.2642 30.4712 55.8537 32.3088 56.9983 32.3088C58.8468 32.3088 59.9746 27.565 60.9716 23.048C61.7062 19.7201 62.5002 16.3667 64.0679 13.3878C66.7949 8.20586 70.9162 7 74.4765 7C82.2835 7 86.1908 16.0378 86.1908 18.3794C86.2273 19.006 86.1364 19.6335 85.9235 20.2239C85.7106 20.8144 85.3802 21.3555 84.9521 21.8146C84.5242 22.2737 84.0075 22.6412 83.4334 22.8949C82.8593 23.1486 82.2398 23.2833 81.6122 23.2907C78.5841 23.2907 77.5576 21.2634 76.6936 19.4865C75.9165 17.8879 75.1049 16.5587 74.0555 16.5587C73.8717 16.5689 73.6919 16.6162 73.527 16.6978C73.362 16.7794 73.2152 16.8935 73.0954 17.0332C70.4873 19.682 69.6126 33.5391 64.3976 38.8356C61.5066 41.7716 58.3609 41.7716 56.3936 41.7716Z" fill="url(#paint29_linear_13250_6181)"/>
<path d="M56.3936 41.7716C47.5055 41.7716 44.4805 30.5404 43.8026 28.3554C42.7104 24.7836 41.949 21.119 41.5281 17.4078C41.2121 14.4153 43.6143 12.3327 46.251 12.3327C47.4 12.2872 48.5222 12.6874 49.3832 13.4497C50.2441 14.2121 50.7771 15.2776 50.8711 16.4237C51.2051 19.5667 51.8397 22.6704 52.7659 25.6923C54.2642 30.4712 55.8537 32.3088 56.9983 32.3088C58.8468 32.3088 59.9746 27.565 60.9716 23.048C61.7062 19.7201 62.5002 16.3667 64.0679 13.3878C66.7949 8.20586 70.9162 7 74.4765 7C82.2835 7 86.1908 16.0378 86.1908 18.3794C86.2273 19.006 86.1364 19.6335 85.9235 20.2239C85.7106 20.8144 85.3802 21.3555 84.9521 21.8146C84.5242 22.2737 84.0075 22.6412 83.4334 22.8949C82.8593 23.1486 82.2398 23.2833 81.6122 23.2907C78.5841 23.2907 77.5576 21.2634 76.6936 19.4865C75.9165 17.8879 75.1049 16.5587 74.0555 16.5587C73.8717 16.5689 73.6919 16.6162 73.527 16.6978C73.362 16.7794 73.2152 16.8935 73.0954 17.0332C70.4873 19.682 69.6126 33.5391 64.3976 38.8356C61.5066 41.7716 58.3609 41.7716 56.3936 41.7716Z" fill="url(#paint30_linear_13250_6181)"/>
<path d="M56.3936 41.7716C47.5055 41.7716 44.4805 30.5404 43.8026 28.3554C42.7104 24.7836 41.949 21.119 41.5281 17.4078C41.2121 14.4153 43.6143 12.3327 46.251 12.3327C47.4 12.2872 48.5222 12.6874 49.3832 13.4497C50.2441 14.2121 50.7771 15.2776 50.8711 16.4237C51.2051 19.5667 51.8397 22.6704 52.7659 25.6923C54.2642 30.4712 55.8537 32.3088 56.9983 32.3088C58.8468 32.3088 59.9746 27.565 60.9716 23.048C61.7062 19.7201 62.5002 16.3667 64.0679 13.3878C66.7949 8.20586 70.9162 7 74.4765 7C82.2835 7 86.1908 16.0378 86.1908 18.3794C86.2273 19.006 86.1364 19.6335 85.9235 20.2239C85.7106 20.8144 85.3802 21.3555 84.9521 21.8146C84.5242 22.2737 84.0075 22.6412 83.4334 22.8949C82.8593 23.1486 82.2398 23.2833 81.6122 23.2907C78.5841 23.2907 77.5576 21.2634 76.6936 19.4865C75.9165 17.8879 75.1049 16.5587 74.0555 16.5587C73.8717 16.5689 73.6919 16.6162 73.527 16.6978C73.362 16.7794 73.2152 16.8935 73.0954 17.0332C70.4873 19.682 69.6126 33.5391 64.3976 38.8356C61.5066 41.7716 58.3609 41.7716 56.3936 41.7716Z" fill="url(#paint31_radial_13250_6181)"/>
<path d="M31.8675 60.2559H36.8799L29.5922 82.0001H23.842L18.3952 65.5915L12.9483 82.0001H7.28774L0 60.2559H5.12968L10.3007 76.7801L15.7269 60.2559H21.1737L26.6895 76.8686L31.8675 60.2559Z" fill="white"/>
<path d="M58.3777 72.8735H42.1199C42.2699 73.9947 42.696 75.0626 43.3609 75.9837C43.95 76.7896 44.7477 77.4243 45.6707 77.8212C46.6107 78.222 47.6254 78.4237 48.6492 78.4133C49.7841 78.4091 50.9093 78.2063 51.9725 77.8144C53.0748 77.4166 54.1041 76.8442 55.02 76.1198L57.4124 79.5226C56.1924 80.5727 54.7717 81.371 53.2342 81.8706C51.6551 82.3599 50.0078 82.601 48.3527 82.5852C46.3143 82.6249 44.3009 82.1368 42.5129 81.1696C40.8217 80.2341 39.4366 78.8409 38.5208 77.1543C37.5358 75.3055 37.0423 73.2401 37.0867 71.1516C37.0445 69.0828 37.518 67.0355 38.4657 65.1898C39.3463 63.511 40.6895 62.112 42.3405 61.154C44.0728 60.17 46.0442 59.6711 48.0425 59.7112C49.9282 59.6597 51.7889 60.1459 53.4018 61.1115C55.0148 62.0772 56.3115 63.4813 57.1366 65.1558C58.0476 67.0075 58.5012 69.0459 58.4604 71.104C58.4673 71.56 58.4397 72.1521 58.3777 72.8735ZM53.5514 69.2664C53.4032 67.7762 52.7553 66.3775 51.7105 65.2919C51.2096 64.8285 50.6194 64.4693 49.9751 64.2354C49.3308 64.0016 48.6454 63.898 47.9597 63.9308C47.238 63.8982 46.5169 64.0091 45.8394 64.2569C45.162 64.5048 44.5418 64.8845 44.016 65.3736C42.9746 66.4432 42.3098 67.8153 42.1199 69.2869L53.5514 69.2664Z" fill="white"/>
<path d="M78.9444 61.1677C80.6216 62.147 81.9969 63.5586 82.9227 65.2512C83.9126 67.0551 84.4159 69.08 84.3843 71.1313C84.416 73.1805 83.9126 75.2031 82.9227 77.0046C81.9966 78.7049 80.6163 80.1222 78.9315 81.1025C77.2468 82.0827 75.3221 82.5885 73.3666 82.5649C71.9942 82.5933 70.6335 82.3116 69.3883 81.7414C68.2471 81.1982 67.2489 80.4015 66.4718 79.4138V82H61.6455V51H66.4718V62.8419C67.2522 61.8609 68.2499 61.0693 69.3883 60.528C70.6318 59.9522 71.9934 59.668 73.3666 59.6977C75.3272 59.674 77.2567 60.1825 78.9444 61.1677ZM76.3106 77.1679C77.3117 76.5605 78.1175 75.6849 78.6341 74.643C79.1645 73.5452 79.4397 72.3442 79.4397 71.1279C79.4397 69.9116 79.1645 68.7106 78.6341 67.6127C78.1153 66.5724 77.31 65.6973 76.3106 65.0878C75.2483 64.4879 74.0457 64.1724 72.8219 64.1724C71.598 64.1724 70.3954 64.4879 69.3331 65.0878C68.3311 65.6884 67.5192 66.5535 66.9889 67.5855C66.4154 68.6878 66.1265 69.9128 66.1478 71.1517C66.1259 72.3885 66.4149 73.6114 66.9889 74.7111C67.5192 75.7431 68.3311 76.6082 69.3331 77.2088C70.3954 77.8086 71.598 78.1242 72.8219 78.1242C74.0457 78.1242 75.2483 77.8086 76.3106 77.2088V77.1679Z" fill="white"/>
<path d="M108.199 72.8735H91.9479C92.0979 73.9948 92.524 75.0626 93.1889 75.9837C93.778 76.7896 94.5757 77.4243 95.4987 77.8213C96.4387 78.222 97.4533 78.4237 98.4772 78.4134C99.612 78.4081 100.737 78.2054 101.8 77.8145C102.903 77.4166 103.932 76.8442 104.848 76.1198L107.234 79.5227C106.017 80.5741 104.598 81.3726 103.062 81.8707C101.481 82.3595 99.8311 82.6007 98.1738 82.5853C96.1356 82.6227 94.1228 82.1348 92.334 81.1697C90.6463 80.2319 89.264 78.8392 88.3488 77.1543C87.3616 75.306 86.8658 73.2407 86.9078 71.1517C86.8659 69.0829 87.3394 67.0357 88.2868 65.1899C89.1674 63.5111 90.5106 62.1121 92.1616 61.1541C93.9039 60.1556 95.8908 59.6494 97.9049 59.6909C99.7901 59.6419 101.65 60.1291 103.262 61.0945C104.875 62.0598 106.172 63.4626 106.999 65.1354C107.91 66.9871 108.364 69.0255 108.323 71.0836C108.295 71.56 108.247 72.1521 108.199 72.8735ZM103.372 69.2665C103.213 67.7859 102.564 66.3984 101.525 65.3192C101.027 64.8532 100.44 64.4904 99.7985 64.2519C99.1567 64.0135 98.473 63.9043 97.7877 63.9308C97.0659 63.8974 96.3446 64.008 95.667 64.2559C94.9894 64.5038 94.3694 64.8839 93.8439 65.3736C92.8002 66.4416 92.135 67.8145 91.9479 69.2869L103.372 69.2665Z" fill="white"/>
<path d="M131.124 82.0001H125.215L119.63 74.439L114.114 82.0001H108.481L116.755 70.9L108.612 60.2559H114.528L119.906 67.5175L125.284 60.2559H131L122.822 70.8592L131.124 82.0001Z" fill="white"/>
<defs>
<linearGradient id="paint0_linear_13250_6181" x1="81.415" y1="17.4685" x2="50.0222" y2="27.7723" gradientUnits="userSpaceOnUse">
<stop stop-color="white"/>
<stop offset="1" stop-color="#F5F5F5"/>
</linearGradient>
<radialGradient id="paint1_radial_13250_6181" cx="0" cy="0" r="1" gradientTransform="matrix(-10.5507 -17.6424 14.8162 -8.86079 59.7683 25.5391)" gradientUnits="userSpaceOnUse">
<stop stop-color="#B7B7B7"/>
<stop offset="0.4079" stop-color="#B5B5B5" stop-opacity="0.75"/>
<stop offset="0.8745" stop-color="#B6B6B6" stop-opacity="0"/>
</radialGradient>
<radialGradient id="paint2_radial_13250_6181" cx="0" cy="0" r="1" gradientTransform="matrix(-10.033 -13.4326 8.82788 -6.59386 73.2879 21.7202)" gradientUnits="userSpaceOnUse">
<stop stop-color="#CACACA"/>
<stop offset="0.4595" stop-color="#C7C7C7"/>
<stop offset="1" stop-color="#ACACAC" stop-opacity="0"/>
</radialGradient>
<radialGradient id="paint3_radial_13250_6181" cx="0" cy="0" r="1" gradientTransform="matrix(-4.10107 -13.0214 6.78829 -2.13802 58.5942 26.5087)" gradientUnits="userSpaceOnUse">
<stop stop-color="#CDCDCD"/>
<stop offset="0.4079" stop-color="#C8C8C8" stop-opacity="0.79"/>
<stop offset="0.8745" stop-color="#B6B6B6" stop-opacity="0"/>
</radialGradient>
<radialGradient id="paint4_radial_13250_6181" cx="0" cy="0" r="1" gradientTransform="matrix(-15.0879 -32.9629 10.1718 -4.65598 61.9547 29.6369)" gradientUnits="userSpaceOnUse">
<stop stop-color="#A2A2A2" stop-opacity="0.78"/>
<stop offset="1" stop-color="#A2A2A2" stop-opacity="0"/>
</radialGradient>
<radialGradient id="paint5_radial_13250_6181" cx="0" cy="0" r="1" gradientTransform="matrix(2.9185 16.9186 -9.60374 1.65672 69.0457 18.1821)" gradientUnits="userSpaceOnUse">
<stop stop-color="#AEAEAE"/>
<stop offset="0.2326" stop-color="#AEAEAE" stop-opacity="0.75"/>
<stop offset="0.5989" stop-color="#AEAEAE" stop-opacity="0.3008"/>
<stop offset="0.8745" stop-color="#AEAEAE" stop-opacity="0"/>
</radialGradient>
<radialGradient id="paint6_radial_13250_6181" cx="0" cy="0" r="1" gradientTransform="matrix(8.34853 12.8831 -6.75936 4.38034 71.4225 0.990135)" gradientUnits="userSpaceOnUse">
<stop stop-color="#E1E1E1"/>
<stop offset="0.4079" stop-color="#E7E7E7"/>
<stop offset="1" stop-color="#E7E7E7" stop-opacity="0.07"/>
</radialGradient>
<linearGradient id="paint7_linear_13250_6181" x1="29.6898" y1="24.0916" x2="51.9408" y2="24.2747" gradientUnits="userSpaceOnUse">
<stop stop-color="#FAFAFA"/>
<stop offset="1" stop-color="#F8F8F8" stop-opacity="0"/>
</linearGradient>
<radialGradient id="paint8_radial_13250_6181" cx="0" cy="0" r="1" gradientTransform="matrix(27.22 30.2186 -30.1732 27.1799 50.5432 -6.03081)" gradientUnits="userSpaceOnUse">
<stop stop-color="#F5F5F5"/>
<stop offset="0.7454" stop-color="#F4F4F4" stop-opacity="0"/>
</radialGradient>
<radialGradient id="paint9_radial_13250_6181" cx="0" cy="0" r="1" gradientTransform="matrix(-5.88727 -18.6928 12.9607 -4.08207 52.6859 24.4553)" gradientUnits="userSpaceOnUse">
<stop stop-color="#F5F5F5" stop-opacity="0.76"/>
<stop offset="0.5727" stop-color="#F4F4F4" stop-opacity="0"/>
</radialGradient>
<radialGradient id="paint10_radial_13250_6181" cx="0" cy="0" r="1" gradientTransform="matrix(-8.8311 -10.685 7.48161 -6.1837 82.5085 17.0079)" gradientUnits="userSpaceOnUse">
<stop stop-color="white"/>
<stop offset="1" stop-color="#F4F4F4" stop-opacity="0"/>
</radialGradient>
<radialGradient id="paint11_radial_13250_6181" cx="0" cy="0" r="1" gradientTransform="matrix(0.794351 -4.11953 2.85144 0.549847 80.5266 25.9441)" gradientUnits="userSpaceOnUse">
<stop stop-color="#CDCDCD"/>
<stop offset="1" stop-color="#BCBCBC" stop-opacity="0"/>
</radialGradient>
<radialGradient id="paint12_radial_13250_6181" cx="0" cy="0" r="1" gradientTransform="matrix(59.5565 -277.1 301.472 64.7966 -86619.2 28580.4)" gradientUnits="userSpaceOnUse">
<stop stop-color="#CDCDCD"/>
<stop offset="1" stop-color="#BCBCBC" stop-opacity="0"/>
</radialGradient>
<radialGradient id="paint13_radial_13250_6181" cx="0" cy="0" r="1" gradientTransform="matrix(-7.80007 -8.4193 5.91497 -5.48008 84.4413 19.4112)" gradientUnits="userSpaceOnUse">
<stop stop-color="white"/>
<stop offset="0.8133" stop-color="white" stop-opacity="0"/>
</radialGradient>
<linearGradient id="paint14_linear_13250_6181" x1="60.3183" y1="52.001" x2="54.3181" y2="35.3643" gradientUnits="userSpaceOnUse">
<stop offset="0.2293" stop-color="white"/>
<stop offset="1" stop-color="white" stop-opacity="0"/>
</linearGradient>
<radialGradient id="paint15_radial_13250_6181" cx="0" cy="0" r="1" gradientTransform="matrix(8.10611 6.20505 -8.62292 11.2651 80.8543 22.69)" gradientUnits="userSpaceOnUse">
<stop stop-color="#D2D2D2"/>
<stop offset="0.9661" stop-color="#D2D2D2" stop-opacity="0"/>
</radialGradient>
<radialGradient id="paint16_radial_13250_6181" cx="0" cy="0" r="1" gradientTransform="matrix(11.9168 1.77653 -2.64958 17.7736 78.314 23.8513)" gradientUnits="userSpaceOnUse">
<stop stop-color="#D2D2D2"/>
<stop offset="0.5925" stop-color="#D2D2D2" stop-opacity="0"/>
</radialGradient>
<radialGradient id="paint17_radial_13250_6181" cx="0" cy="0" r="1" gradientTransform="matrix(9.35324 4.29118 -7.64219 16.6577 79.2899 25.3464)" gradientUnits="userSpaceOnUse">
<stop stop-color="#D2D2D2"/>
<stop offset="0.7568" stop-color="#D2D2D2" stop-opacity="0"/>
</radialGradient>
<radialGradient id="paint18_radial_13250_6181" cx="0" cy="0" r="1" gradientTransform="matrix(16.9092 -17.455 14.0279 13.5897 78.8649 21.7276)" gradientUnits="userSpaceOnUse">
<stop offset="0.0648007" stop-color="#4F4F4F"/>
<stop offset="0.519024" stop-color="#D5D5D5" stop-opacity="0"/>
</radialGradient>
<radialGradient id="paint19_radial_13250_6181" cx="0" cy="0" r="1" gradientTransform="matrix(-1.87066 18.392 -10.0871 -1.02599 78.0878 25.9504)" gradientUnits="userSpaceOnUse">
<stop stop-color="#D2D2D2"/>
<stop offset="0.5925" stop-color="#D2D2D2" stop-opacity="0"/>
<stop offset="1" stop-color="#D2D2D2" stop-opacity="0"/>
</radialGradient>
<radialGradient id="paint20_radial_13250_6181" cx="0" cy="0" r="1" gradientTransform="matrix(-1.42412 22.2026 -7.93003 -0.508664 80.8488 17.7996)" gradientUnits="userSpaceOnUse">
<stop stop-color="#D2D2D2"/>
<stop offset="0.8846" stop-color="#D2D2D2" stop-opacity="0"/>
</radialGradient>
<radialGradient id="paint21_radial_13250_6181" cx="0" cy="0" r="1" gradientTransform="matrix(7.36369 -18.2731 7.27703 2.93258 46.6828 26.9096)" gradientUnits="userSpaceOnUse">
<stop stop-color="#B3B3B3"/>
<stop offset="1" stop-color="#B0B0B0" stop-opacity="0"/>
</radialGradient>
<radialGradient id="paint22_radial_13250_6181" cx="0" cy="0" r="1" gradientTransform="matrix(11.8272 -4.82594 9.42746 23.1051 59.2283 33.7279)" gradientUnits="userSpaceOnUse">
<stop stop-color="#F7F7F7"/>
<stop offset="0.709" stop-color="#F9F9F9" stop-opacity="0"/>
</radialGradient>
<radialGradient id="paint23_radial_13250_6181" cx="0" cy="0" r="1" gradientTransform="matrix(11.8272 -4.82594 9.42746 23.1051 59.2283 33.7279)" gradientUnits="userSpaceOnUse">
<stop stop-color="#F7F7F7"/>
<stop offset="0.709" stop-color="#F9F9F9" stop-opacity="0"/>
</radialGradient>
<radialGradient id="paint24_radial_13250_6181" cx="0" cy="0" r="1" gradientTransform="matrix(15.0001 6.81835 -6.8782 15.1322 50.501 18.7275)" gradientUnits="userSpaceOnUse">
<stop stop-color="#ADADAD"/>
<stop offset="0.7614" stop-color="#D2D2D2" stop-opacity="0"/>
</radialGradient>
<radialGradient id="paint25_radial_13250_6181" cx="0" cy="0" r="1" gradientTransform="matrix(6.27277 -0.272733 0.395512 9.09692 55.1374 17.3639)" gradientUnits="userSpaceOnUse">
<stop stop-color="#ADADAD"/>
<stop offset="0.7614" stop-color="#D2D2D2" stop-opacity="0"/>
</radialGradient>
<radialGradient id="paint26_radial_13250_6181" cx="0" cy="0" r="1" gradientTransform="matrix(5.72731 -1.6364 3.43433 12.0203 57.0465 23.364)" gradientUnits="userSpaceOnUse">
<stop stop-color="#B1B1B1"/>
<stop offset="1" stop-color="#D2D2D2" stop-opacity="0"/>
</radialGradient>
<radialGradient id="paint27_radial_13250_6181" cx="0" cy="0" r="1" gradientTransform="matrix(6.27279 -7.90927 7.4326 5.89491 48.8646 19.0003)" gradientUnits="userSpaceOnUse">
<stop stop-color="#807F7F"/>
<stop offset="1" stop-color="#D2D2D2" stop-opacity="0"/>
</radialGradient>
<linearGradient id="paint28_linear_13250_6181" x1="42.3449" y1="9.62898" x2="59.4599" y2="20.5617" gradientUnits="userSpaceOnUse">
<stop offset="0.2293" stop-color="white"/>
<stop offset="1" stop-color="white" stop-opacity="0"/>
</linearGradient>
<linearGradient id="paint29_linear_13250_6181" x1="46.1364" y1="51.4555" x2="54.3185" y2="35.3644" gradientUnits="userSpaceOnUse">
<stop offset="0.2293" stop-color="white"/>
<stop offset="1" stop-color="white" stop-opacity="0"/>
</linearGradient>
<linearGradient id="paint30_linear_13250_6181" x1="46.7684" y1="7.41554" x2="51.5679" y2="11.7701" gradientUnits="userSpaceOnUse">
<stop stop-color="white"/>
<stop offset="0.6373" stop-color="#F8F8F8" stop-opacity="0"/>
</linearGradient>
<radialGradient id="paint31_radial_13250_6181" cx="0" cy="0" r="1" gradientTransform="matrix(-8.18186 0.545454 -1.64911 -24.7375 50.7728 18.7275)" gradientUnits="userSpaceOnUse">
<stop stop-color="#D1D1D1"/>
<stop offset="0.580386" stop-color="#D1D1D1" stop-opacity="0"/>
</radialGradient>
</defs>
</svg>
