<svg width="238" height="78" viewBox="0 0 238 78" fill="none" xmlns="http://www.w3.org/2000/svg">
<g clip-path="url(#clip0_13250_6182)">
<path d="M5.82094 13.7003C2.97375 13.9157 0.627453 16.9327 1.04926 20.0304C1.18107 21.1618 1.47107 22.9126 1.84015 24.8252C1.99832 25.6871 2.18286 26.603 2.3674 27.4919C2.82761 29.6406 3.39962 31.7626 4.08099 33.849C4.81266 36.1636 5.70239 38.4228 6.74364 40.6101C10.7244 48.5296 16.1025 50.1996 19.9251 50.1996C21.7203 50.2154 23.4982 49.8391 25.1395 49.0958C26.7808 48.3525 28.2478 47.2594 29.4421 45.8898C28.7752 45.0194 28.1842 44.091 27.6758 43.1153C25.9886 39.9367 24.9077 36.2733 23.985 32.4483C23.5619 33.9725 22.9969 35.4518 22.2978 36.8659C21.1905 38.967 20.426 38.967 19.9251 38.967C18.8442 38.967 17.7106 37.7818 16.5506 35.4921C15.9529 34.2396 15.4248 32.9535 14.9689 31.6402C14.6525 30.6974 14.3362 29.7277 14.0725 28.7849C13.8089 27.8421 13.3344 26.172 13.1235 25.1215C12.5698 22.5625 11.9108 18.3603 11.8844 18.2256C11.6471 17.0135 10.2499 13.3231 5.82094 13.7003Z" fill="white"/>
<path d="M52.0358 25.014C54.8566 23.9095 56.0429 20.4078 54.7775 17.5794L54.6721 17.31C54.1617 16.1586 53.5622 15.0507 52.8794 13.9968C52.5533 13.4456 52.1829 12.923 51.7721 12.4345C48.1604 7.90907 43.916 7.10096 41.3324 7.10096C39.5374 7.08693 37.7601 7.46408 36.1191 8.20727C34.478 8.95045 33.0108 10.0426 31.8154 11.4109C32.4412 12.2221 32.9969 13.0874 33.4763 13.9968C35.2426 17.2561 36.3498 21.7277 37.2726 25.5258C37.7734 23.8018 38.3534 21.593 39.0125 20.3539C40.0934 18.3336 40.8315 18.3336 41.3324 18.3336C42.8351 18.3336 44.0478 20.5963 44.6278 21.9162C44.6278 21.9162 46.7105 27.142 52.0358 25.014Z" fill="white"/>
<path d="M55.4886 13.7002L54.9877 13.6464H54.8559C55.4057 14.5844 55.8987 15.5559 56.3322 16.5555L56.464 16.8249C57.2585 18.6367 57.3191 20.6961 56.6325 22.5534C55.9459 24.4107 54.568 25.915 52.7996 26.7377C51.8454 27.1737 50.8131 27.403 49.7679 27.4111C49.054 27.3979 48.345 27.2892 47.6588 27.0878C46.9207 29.9162 45.7607 33.3911 44.7062 35.4921C43.6517 37.5932 42.4126 38.967 41.3054 38.967C40.8308 38.967 40.0663 38.967 38.9591 36.8659C38.2599 35.4518 37.6949 33.9725 37.2718 32.4483C36.9291 31.263 36.6128 29.997 36.2964 28.6771C36.1646 28.1922 36.0592 27.7074 35.9537 27.2225C34.9519 22.9665 33.8183 18.495 31.8674 14.9124C31.494 14.2231 31.0803 13.5574 30.6284 12.9191C30.259 12.3954 29.863 11.8919 29.4421 11.4106C28.2437 10.0389 26.7723 8.94475 25.1264 8.20143C23.4805 7.45812 21.6981 7.08283 19.8987 7.10071C17.3415 7.10071 13.0971 7.90881 9.48535 12.4342C10.6244 12.9578 11.6142 13.7692 12.3614 14.7919C13.1086 15.8146 13.5886 17.0148 13.7561 18.2795C13.9407 19.6263 14.3888 22.2392 14.9161 24.7174C14.9688 24.9868 15.0216 25.2561 15.1006 25.5524C15.4961 24.5019 15.8915 23.613 16.3133 22.6163L16.6297 21.916C17.2097 20.5961 18.4224 18.3334 19.8987 18.3334C20.426 18.3334 21.1641 18.3334 22.245 20.3536C22.9732 21.7981 23.5562 23.3143 23.9849 24.879C24.3277 26.0912 24.6704 27.3841 24.9604 28.6771C25.0658 29.0542 25.1449 29.4313 25.224 29.8085C26.2785 34.3069 27.3858 38.6437 29.2839 42.2263C29.6768 42.9877 30.1263 43.7171 30.6284 44.4082C30.9977 44.9233 31.3937 45.4179 31.8147 45.8897C34.9519 49.3646 38.5636 50.1996 41.3054 50.1996C45.128 50.1996 50.5324 48.5296 54.5132 40.6101C56.5431 36.5427 58.2567 30.5357 58.8894 27.4919C59.5221 24.448 59.9967 21.7005 60.2076 20.0304C60.3077 19.2977 60.2648 18.552 60.0814 17.8363C59.8979 17.1207 59.5776 16.4492 59.1389 15.8607C58.7002 15.2722 58.1517 14.7782 57.5252 14.4074C56.8987 14.0366 56.2065 13.7963 55.4886 13.7002Z" fill="white"/>
<path d="M200.374 57.1284H197.575V68.2522H200.374V57.1284Z" fill="white"/>
<path d="M223.061 60.3152C222.335 59.9227 221.522 59.7189 220.697 59.7226C218.875 59.7226 217.612 60.9854 217.612 62.6889C217.612 64.3427 218.822 65.6583 220.697 65.6583C221.522 65.6602 222.334 65.4576 223.061 65.0688V68.0538C222.229 68.3088 221.365 68.4416 220.495 68.4478C217.332 68.4478 214.558 66.2758 214.558 62.6889C214.558 59.3689 217.071 56.9331 220.495 56.9331C221.366 56.9353 222.231 57.069 223.061 57.3303V60.3152Z" fill="white"/>
<path d="M193.695 60.3152C192.969 59.9215 192.156 59.7176 191.331 59.7226C189.508 59.7226 188.249 60.9854 188.249 62.6889C188.249 64.3427 189.455 65.6583 191.331 65.6583C192.155 65.6602 192.968 65.4576 193.695 65.0688V68.0538C192.863 68.3091 191.999 68.4419 191.129 68.4478C187.966 68.4478 185.194 66.2758 185.194 62.6889C185.194 59.3689 187.704 56.9331 191.129 56.9331C191.999 56.9353 192.864 57.069 193.695 57.3303V60.3152Z" fill="white"/>
<path d="M231.91 59.7629C231.525 59.7595 231.143 59.833 230.788 59.9792C230.432 60.1253 230.108 60.3413 229.837 60.614C229.567 60.8868 229.353 61.2107 229.21 61.5672C229.066 61.9234 228.996 62.3051 229.002 62.6889C228.995 63.073 229.065 63.455 229.209 63.8115C229.352 64.1684 229.565 64.4929 229.836 64.766C230.107 65.039 230.431 65.255 230.787 65.4014C231.143 65.5479 231.525 65.6214 231.91 65.618C232.296 65.6214 232.678 65.5479 233.034 65.4014C233.39 65.255 233.714 65.039 233.985 64.766C234.256 64.4932 234.47 64.1687 234.614 63.8118C234.758 63.455 234.828 63.0734 234.821 62.6889C234.828 62.3048 234.757 61.9234 234.613 61.5669C234.469 61.2104 234.255 60.8865 233.984 60.6137C233.713 60.341 233.389 60.1253 233.033 59.9792C232.677 59.833 232.295 59.7595 231.91 59.7629ZM237.801 62.6889C237.801 65.8724 235.341 68.4478 231.91 68.4478C228.48 68.4478 226.022 65.8724 226.022 62.6889C226.022 59.5054 228.483 56.9331 231.91 56.9331C235.338 56.9331 237.801 59.5116 237.801 62.6889Z" fill="white"/>
<path d="M211.044 59.6573C210.324 59.4612 209.584 59.3489 208.838 59.3222C207.713 59.3222 207.1 59.6976 207.1 60.2313C207.1 60.9109 207.927 61.1622 208.388 61.2925L209.165 61.5376C210.991 62.1179 211.824 63.3652 211.824 64.7212C211.824 67.5137 209.361 68.4446 207.206 68.4446C206.186 68.4325 205.17 68.3286 204.17 68.1343V65.5745C205.034 65.8242 205.927 65.9629 206.826 65.9871C208.229 65.9871 208.87 65.5807 208.87 64.9477C208.87 64.3861 208.313 64.0603 207.625 63.84L207.025 63.6476C205.47 63.1542 204.151 62.2358 204.151 60.3927C204.151 58.3138 205.706 56.9175 208.307 56.9175C209.231 56.9302 210.15 57.0487 211.047 57.2712L211.044 59.6573Z" fill="white"/>
<path d="M165.544 68.2151H164.321V57.1162H165.805V61.3082C166.102 60.8744 166.505 60.5238 166.976 60.2892C167.446 60.0546 167.97 59.9438 168.495 59.9677C169.01 59.9432 169.523 60.0434 169.992 60.2597C170.459 60.4757 170.868 60.8015 171.182 61.2089C171.749 61.9495 172.032 62.931 172.032 64.1535C172.032 65.6016 171.646 66.7112 170.875 67.4829C170.548 67.8056 170.159 68.0584 169.731 68.2254C169.303 68.3923 168.846 68.4702 168.386 68.4541C167.876 68.4801 167.368 68.3749 166.91 68.1481C166.453 67.9216 166.061 67.5812 165.774 67.1602L165.544 68.2151ZM170.489 64.1132C170.489 63.1057 170.236 62.3507 169.73 61.8481C169.525 61.6408 169.279 61.4785 169.007 61.3718C168.736 61.2647 168.445 61.2157 168.153 61.2275C167.812 61.2151 167.472 61.2821 167.161 61.4239C166.85 61.5657 166.576 61.7776 166.362 62.0436C165.921 62.6396 165.701 63.37 165.74 64.1101C165.74 65.1371 165.995 65.9252 166.498 66.4682C166.707 66.7019 166.964 66.8868 167.252 67.0097C167.54 67.1325 167.852 67.1903 168.166 67.1788C168.508 67.198 168.849 67.1301 169.158 66.9814C169.466 66.8325 169.732 66.6079 169.929 66.3286C170.343 65.6664 170.539 64.8917 170.489 64.1132Z" fill="white"/>
<path d="M179.974 60.1971L177.175 68.3204C176.805 69.4002 176.447 70.1356 176.108 70.5265C175.917 70.7509 175.679 70.9296 175.41 71.0494C175.141 71.1691 174.848 71.2269 174.553 71.2185C174.23 71.2101 173.908 71.1645 173.595 71.082V69.8718C173.848 69.9389 174.108 69.9752 174.369 69.9804C174.51 69.9873 174.651 69.9609 174.78 69.9032C174.908 69.8455 175.021 69.7583 175.11 69.6484C175.395 69.2001 175.619 68.716 175.775 68.2087H175.296L172.345 60.1909H173.953L176.223 67.0172L178.494 60.1909L179.974 60.1971Z" fill="white"/>
<path d="M113.895 17.811H120.17L111.047 45.3235H103.848L97.0291 24.5621L90.2101 45.3235H83.1236L74 17.811H80.4219L86.8956 38.7188L93.6886 17.811H100.508L107.413 38.8308L113.895 17.811Z" fill="white"/>
<path d="M147.084 33.7763H126.73C126.918 35.1949 127.452 36.5461 128.284 37.7115C129.021 38.7312 130.02 39.5343 131.176 40.0365C132.352 40.5436 133.623 40.7988 134.904 40.7857C136.325 40.7803 137.734 40.5238 139.065 40.0279C140.445 39.5245 141.733 38.8003 142.88 37.8838L145.875 42.1893C144.348 43.5179 142.569 44.528 140.644 45.1601C138.667 45.7792 136.605 46.0843 134.533 46.0643C131.981 46.1145 129.461 45.497 127.222 44.2732C125.105 43.0895 123.371 41.3268 122.225 39.1926C120.991 36.8534 120.374 34.2401 120.429 31.5976C120.376 28.9801 120.969 26.3896 122.156 24.0543C123.258 21.9302 124.94 20.1601 127.006 18.9479C129.175 17.7028 131.643 17.0716 134.145 17.1224C136.506 17.0572 138.835 17.6724 140.854 18.8942C142.873 20.116 144.497 21.8926 145.53 24.0113C146.67 26.3542 147.238 28.9333 147.187 31.5374C147.196 32.1143 147.161 32.8635 147.084 33.7763ZM141.041 29.2124C140.856 27.3268 140.045 25.557 138.737 24.1835C138.11 23.5972 137.371 23.1426 136.564 22.8467C135.758 22.5509 134.9 22.4198 134.041 22.4613C133.138 22.42 132.235 22.5603 131.387 22.8739C130.539 23.1875 129.762 23.668 129.104 24.2868C127.8 25.6402 126.968 27.3763 126.73 29.2382L141.041 29.2124Z" fill="white"/>
<path d="M172.831 18.9651C174.931 20.2041 176.653 21.9903 177.812 24.1318C179.051 26.4142 179.681 28.9763 179.642 31.5718C179.681 34.1645 179.051 36.7238 177.812 39.0032C176.653 41.1545 174.924 42.9477 172.815 44.1881C170.706 45.4284 168.297 46.0684 165.848 46.0384C164.13 46.0744 162.427 45.718 160.868 44.9965C159.439 44.3092 158.19 43.3012 157.217 42.0515V45.3237H151.175V6.1001H157.217V21.0834C158.194 19.8422 159.443 18.8406 160.868 18.1557C162.425 17.4271 164.129 17.0675 165.848 17.1051C168.303 17.0751 170.719 17.7186 172.831 18.9651ZM169.534 39.2098C170.787 38.4412 171.796 37.3333 172.443 36.0151C173.107 34.626 173.452 33.1064 173.452 31.5675C173.452 30.0285 173.107 28.5089 172.443 27.1198C171.793 25.8035 170.785 24.6963 169.534 23.9251C168.204 23.1661 166.699 22.7668 165.167 22.7668C163.634 22.7668 162.129 23.1661 160.799 23.9251C159.545 24.685 158.528 25.7796 157.864 27.0854C157.146 28.48 156.785 30.03 156.811 31.5976C156.784 33.1625 157.146 34.7099 157.864 36.1012C158.528 37.407 159.545 38.5016 160.799 39.2615C162.129 40.0205 163.634 40.4198 165.167 40.4198C166.699 40.4198 168.204 40.0205 169.534 39.2615V39.2098Z" fill="white"/>
<path d="M209.455 33.7763H189.111C189.299 35.195 189.832 36.5461 190.664 37.7115C191.402 38.7312 192.401 39.5343 193.556 40.0365C194.733 40.5436 196.003 40.7988 197.285 40.7857C198.706 40.7791 200.114 40.5225 201.445 40.0279C202.825 39.5245 204.114 38.8003 205.26 37.8838L208.247 42.1893C206.724 43.5196 204.948 44.53 203.025 45.1601C201.045 45.7787 198.98 46.0838 196.905 46.0643C194.353 46.1117 191.833 45.4943 189.594 44.2732C187.481 43.0867 185.751 41.3245 184.605 39.1926C183.369 36.8541 182.748 34.2408 182.801 31.5976C182.749 28.9801 183.341 26.3897 184.527 24.0543C185.63 21.9302 187.311 20.1601 189.378 18.9479C191.559 17.6846 194.047 17.0441 196.568 17.0965C198.929 17.0346 201.257 17.6511 203.275 18.8725C205.294 20.094 206.918 21.8688 207.953 23.9854C209.094 26.3284 209.662 28.9075 209.611 31.5115C209.576 32.1143 209.516 32.8635 209.455 33.7763ZM203.413 29.2124C203.214 27.3389 202.401 25.5834 201.1 24.2179C200.477 23.6284 199.742 23.1692 198.939 22.8675C198.135 22.5658 197.28 22.4277 196.422 22.4613C195.518 22.419 194.615 22.5589 193.767 22.8725C192.918 23.1862 192.142 23.6672 191.484 24.2868C190.178 25.6381 189.345 27.3752 189.111 29.2382L203.413 29.2124Z" fill="white"/>
<path d="M238.156 45.3235H230.758L223.767 35.7566L216.862 45.3235H209.81L220.167 31.2788L209.974 17.811H217.379L224.112 26.9991L230.845 17.811H238L227.763 31.2271L238.156 45.3235Z" fill="white"/>
</g>
<defs>
<clipPath id="clip0_13250_6182">
<rect width="238" height="77" fill="white" transform="translate(0 0.100098)"/>
</clipPath>
</defs>
</svg>
