<svg width="507" height="175" viewBox="0 0 507 175" fill="none" xmlns="http://www.w3.org/2000/svg">
<path d="M230.685 122.044H221.437L219.412 115.589C215.495 120.855 210.133 123.488 203.325 123.488C196.198 123.488 190.579 120.919 186.468 115.782C182.744 111.094 180.882 104.962 180.882 97.3838C180.882 88.265 183.29 81.2974 188.106 76.4809C192.088 72.4998 197.257 70.509 203.614 70.5086C210.229 70.5086 215.398 72.8846 219.123 77.6365V52.6884H230.683L230.685 122.044ZM192.732 97.4788C192.732 103.386 194.145 107.785 196.97 110.676C199.283 113.116 202.301 114.336 206.025 114.336C210.584 114.336 214.052 112.666 216.429 109.327C218.547 106.373 219.607 102.392 219.607 97.3827C219.607 91.09 218.13 86.402 215.176 83.3186C212.864 80.8786 209.814 79.6585 206.025 79.6585C201.594 79.6585 198.223 81.3282 195.911 84.6676C193.792 87.6877 192.732 91.9585 192.732 97.48V97.4788ZM272.215 107.593H284.351C283.002 112.731 280.208 116.712 275.97 119.538C271.924 122.171 266.947 123.487 261.04 123.487C252.883 123.487 246.526 120.918 241.966 115.781C237.796 111.094 235.71 104.833 235.71 96.9981C235.71 88.0086 238.311 81.1373 243.512 76.3842C247.88 72.4675 253.563 70.509 260.562 70.5086C268.718 70.5086 274.883 73.1736 279.057 78.5036C282.975 83.4482 284.933 90.5122 284.933 99.6955H247.459C247.908 105.089 249.578 109.038 252.468 111.543C254.78 113.599 257.798 114.626 261.523 114.626C264.155 114.626 266.435 113.984 268.362 112.7C270.289 111.415 271.573 109.713 272.215 107.594V107.593ZM273.082 91.7955C272.825 87.1077 271.412 83.6721 268.843 81.4889C266.724 79.6265 263.963 78.6953 260.559 78.6953C256.835 78.6953 253.849 79.9153 251.601 82.3554C249.547 84.5387 248.23 87.685 247.652 91.7943L273.082 91.7955ZM299.273 107.786C300.172 112.602 303.8 115.01 310.157 115.01C313.689 115.01 316.354 114.336 318.153 112.987C319.629 111.831 320.367 110.322 320.368 108.46C320.368 106.084 319.083 104.318 316.515 103.162C315.038 102.52 311.795 101.621 306.786 100.465C300.62 99.0527 296.221 97.1263 293.589 94.6858C290.956 92.3095 289.64 89.195 289.64 85.3424C289.64 80.4619 291.63 76.7051 295.611 74.072C299.144 71.696 303.992 70.508 310.157 70.508C316.515 70.508 321.62 72.0171 325.472 75.0352C328.812 77.6042 330.899 81.072 331.734 85.4386H319.983C319.019 81.1357 315.679 78.9845 309.964 78.9849C304.185 78.9849 301.295 80.7508 301.295 84.2824C301.295 86.0803 302.033 87.4288 303.511 88.3277C304.988 89.2267 307.974 90.2221 312.468 91.3142C319.404 92.9194 324.221 94.7173 326.918 96.7079C330.321 99.2124 332.022 102.744 332.023 107.304C332.023 112.506 329.904 116.584 325.665 119.537C321.812 122.17 316.611 123.487 310.06 123.486C303.189 123.486 297.698 121.849 293.586 118.574C290.118 115.813 288.095 112.217 287.517 107.787L299.273 107.786ZM350.161 64.3434H337.445V52.6884H350.161V64.3434ZM349.582 122.044H338.026V71.9538H349.585L349.582 122.044ZM357.39 125.318H369.525C370.745 129.942 374.566 132.254 380.988 132.254C389.273 132.254 393.416 128.304 393.416 120.405V114.818C389.627 118.671 384.49 120.597 378.004 120.597C371.196 120.597 365.674 118.189 361.436 113.373C357.518 108.878 355.56 103.066 355.56 95.9375C355.56 87.5249 357.968 81.0068 362.784 76.383C366.83 72.4664 372.032 70.5078 378.389 70.5074C385.068 70.5074 390.27 72.9477 393.995 77.8282L395.824 71.9526H404.975V120.308C404.975 126.922 402.599 132.092 397.847 135.817C393.608 139.156 388.021 140.826 381.087 140.826C373.637 140.826 367.825 139.252 363.652 136.106C360.249 133.474 358.163 129.878 357.392 125.318H357.39ZM367.408 96.0354C367.408 101.237 368.853 105.25 371.742 108.076C374.118 110.323 377.105 111.447 380.701 111.447C385.324 111.447 388.824 109.938 391.2 106.92C393.255 104.287 394.282 100.692 394.282 96.1327C394.282 90.417 392.869 86.1143 390.044 83.2248C387.733 80.8485 384.618 79.6605 380.701 79.6609C376.398 79.6609 373.058 81.202 370.683 84.2842C368.501 87.1092 367.411 91.0263 367.411 96.0354H367.408ZM423.589 122.044H412.032V71.9538H421.569L422.82 77.9255C426.482 72.9809 431.555 70.5086 438.04 70.5086C444.077 70.5086 448.7 72.371 451.912 76.0958C454.737 79.3707 456.15 83.8338 456.15 89.485V122.044H444.591V89.774C444.591 82.9022 441.412 79.4664 435.054 79.4668C431.586 79.4668 428.761 80.687 426.577 83.1275C424.586 85.3764 423.591 88.2011 423.592 91.6014L423.589 122.044Z" fill="black"/>
<path d="M81.3583 127.002C61.9105 127.002 55.3483 102.543 53.7973 97.7705C50.0986 85.7199 49.0248 74.8625 48.9055 73.7887C48.1896 67.2265 53.4393 62.6926 59.2856 62.6926C63.7001 62.6926 68.7112 65.3175 69.4271 71.6411C69.5464 72.7149 70.3816 81.9019 73.603 91.9242C76.8244 102.424 80.4038 106.361 82.9093 106.361C86.9659 106.361 89.4715 95.9808 91.6191 86.0779C93.1701 78.7998 94.9598 71.5217 98.4199 64.9596C104.147 53.6249 113.095 51 120.97 51C138.031 51 146.622 70.8059 146.622 75.9363C146.622 84.5268 139.582 86.6744 136.6 86.6744C129.918 86.6744 127.771 82.2599 125.862 78.3226C124.191 74.8625 122.402 71.8797 120.135 71.8797C119.419 71.8797 118.703 72.2376 117.987 72.9535C112.26 78.7998 110.351 109.105 99.0164 120.679C92.5736 127.002 85.6535 127.002 81.3583 127.002Z" fill="url(#paint0_linear_21458_1708)"/>
<path d="M81.3583 127.002C61.9105 127.002 55.3483 102.543 53.7973 97.7705C50.0986 85.7199 49.0248 74.8625 48.9055 73.7887C48.1896 67.2265 53.4393 62.6926 59.2856 62.6926C63.7001 62.6926 68.7112 65.3175 69.4271 71.6411C69.5464 72.7149 70.3816 81.9019 73.603 91.9242C76.8244 102.424 80.4038 106.361 82.9093 106.361C86.9659 106.361 89.4715 95.9808 91.6191 86.0779C93.1701 78.7998 94.9598 71.5217 98.4199 64.9596C104.147 53.6249 113.095 51 120.97 51C138.031 51 146.622 70.8059 146.622 75.9363C146.622 84.5268 139.582 86.6744 136.6 86.6744C129.918 86.6744 127.771 82.2599 125.862 78.3226C124.191 74.8625 122.402 71.8797 120.135 71.8797C119.419 71.8797 118.703 72.2376 117.987 72.9535C112.26 78.7998 110.351 109.105 99.0164 120.679C92.5736 127.002 85.6535 127.002 81.3583 127.002Z" fill="url(#paint1_radial_21458_1708)"/>
<path d="M81.3583 127.002C61.9105 127.002 55.3483 102.543 53.7973 97.7705C50.0986 85.7199 49.0248 74.8625 48.9055 73.7887C48.1896 67.2265 53.4393 62.6926 59.2856 62.6926C63.7001 62.6926 68.7112 65.3175 69.4271 71.6411C69.5464 72.7149 70.3816 81.9019 73.603 91.9242C76.8244 102.424 80.4038 106.361 82.9093 106.361C86.9659 106.361 89.4715 95.9808 91.6191 86.0779C93.1701 78.7998 94.9598 71.5217 98.4199 64.9596C104.147 53.6249 113.095 51 120.97 51C138.031 51 146.622 70.8059 146.622 75.9363C146.622 84.5268 139.582 86.6744 136.6 86.6744C129.918 86.6744 127.771 82.2599 125.862 78.3226C124.191 74.8625 122.402 71.8797 120.135 71.8797C119.419 71.8797 118.703 72.2376 117.987 72.9535C112.26 78.7998 110.351 109.105 99.0164 120.679C92.5736 127.002 85.6535 127.002 81.3583 127.002Z" fill="url(#paint2_radial_21458_1708)"/>
<path d="M81.3583 127.002C61.9105 127.002 55.3483 102.543 53.7973 97.7705C50.0986 85.7199 49.0248 74.8625 48.9055 73.7887C48.1896 67.2265 53.4393 62.6926 59.2856 62.6926C63.7001 62.6926 68.7112 65.3175 69.4271 71.6411C69.5464 72.7149 70.3816 81.9019 73.603 91.9242C76.8244 102.424 80.4038 106.361 82.9093 106.361C86.9659 106.361 89.4715 95.9808 91.6191 86.0779C93.1701 78.7998 94.9598 71.5217 98.4199 64.9596C104.147 53.6249 113.095 51 120.97 51C138.031 51 146.622 70.8059 146.622 75.9363C146.622 84.5268 139.582 86.6744 136.6 86.6744C129.918 86.6744 127.771 82.2599 125.862 78.3226C124.191 74.8625 122.402 71.8797 120.135 71.8797C119.419 71.8797 118.703 72.2376 117.987 72.9535C112.26 78.7998 110.351 109.105 99.0164 120.679C92.5736 127.002 85.6535 127.002 81.3583 127.002Z" fill="url(#paint3_radial_21458_1708)"/>
<path d="M81.3583 127.002C61.9105 127.002 55.3483 102.543 53.7973 97.7705C50.0986 85.7199 49.0248 74.8625 48.9055 73.7887C48.1896 67.2265 53.4393 62.6926 59.2856 62.6926C63.7001 62.6926 68.7112 65.3175 69.4271 71.6411C69.5464 72.7149 70.3816 81.9019 73.603 91.9242C76.8244 102.424 80.4038 106.361 82.9093 106.361C86.9659 106.361 89.4715 95.9808 91.6191 86.0779C93.1701 78.7998 94.9598 71.5217 98.4199 64.9596C104.147 53.6249 113.095 51 120.97 51C138.031 51 146.622 70.8059 146.622 75.9363C146.622 84.5268 139.582 86.6744 136.6 86.6744C129.918 86.6744 127.771 82.2599 125.862 78.3226C124.191 74.8625 122.402 71.8797 120.135 71.8797C119.419 71.8797 118.703 72.2376 117.987 72.9535C112.26 78.7998 110.351 109.105 99.0164 120.679C92.5736 127.002 85.6535 127.002 81.3583 127.002Z" fill="url(#paint4_radial_21458_1708)"/>
<path d="M81.3583 127.002C61.9105 127.002 55.3483 102.543 53.7973 97.7705C50.0986 85.7199 49.0248 74.8625 48.9055 73.7887C48.1896 67.2265 53.4393 62.6926 59.2856 62.6926C63.7001 62.6926 68.7112 65.3175 69.4271 71.6411C69.5464 72.7149 70.3816 81.9019 73.603 91.9242C76.8244 102.424 80.4038 106.361 82.9093 106.361C86.9659 106.361 89.4715 95.9808 91.6191 86.0779C93.1701 78.7998 94.9598 71.5217 98.4199 64.9596C104.147 53.6249 113.095 51 120.97 51C138.031 51 146.622 70.8059 146.622 75.9363C146.622 84.5268 139.582 86.6744 136.6 86.6744C129.918 86.6744 127.771 82.2599 125.862 78.3226C124.191 74.8625 122.402 71.8797 120.135 71.8797C119.419 71.8797 118.703 72.2376 117.987 72.9535C112.26 78.7998 110.351 109.105 99.0164 120.679C92.5736 127.002 85.6535 127.002 81.3583 127.002Z" fill="url(#paint5_radial_21458_1708)"/>
<path d="M81.3583 127.002C61.9105 127.002 55.3483 102.543 53.7973 97.7705C50.0986 85.7199 49.0248 74.8625 48.9055 73.7887C48.1896 67.2265 53.4393 62.6926 59.2856 62.6926C63.7001 62.6926 68.7112 65.3175 69.4271 71.6411C69.5464 72.7149 70.3816 81.9019 73.603 91.9242C76.8244 102.424 80.4038 106.361 82.9093 106.361C86.9659 106.361 89.4715 95.9808 91.6191 86.0779C93.1701 78.7998 94.9598 71.5217 98.4199 64.9596C104.147 53.6249 113.095 51 120.97 51C138.031 51 146.622 70.8059 146.622 75.9363C146.622 84.5268 139.582 86.6744 136.6 86.6744C129.918 86.6744 127.771 82.2599 125.862 78.3226C124.191 74.8625 122.402 71.8797 120.135 71.8797C119.419 71.8797 118.703 72.2376 117.987 72.9535C112.26 78.7998 110.351 109.105 99.0164 120.679C92.5736 127.002 85.6535 127.002 81.3583 127.002Z" fill="url(#paint6_radial_21458_1708)"/>
<path d="M81.3583 127.002C61.9105 127.002 55.3483 102.543 53.7973 97.7705C50.0986 85.7199 49.0248 74.8625 48.9055 73.7887C48.1896 67.2265 53.4393 62.6926 59.2856 62.6926C63.7001 62.6926 68.7112 65.3175 69.4271 71.6411C69.5464 72.7149 70.3816 81.9019 73.603 91.9242C76.8244 102.424 80.4038 106.361 82.9093 106.361C86.9659 106.361 89.4715 95.9808 91.6191 86.0779C93.1701 78.7998 94.9598 71.5217 98.4199 64.9596C104.147 53.6249 113.095 51 120.97 51C138.031 51 146.622 70.8059 146.622 75.9363C146.622 84.5268 139.582 86.6744 136.6 86.6744C129.918 86.6744 127.771 82.2599 125.862 78.3226C124.191 74.8625 122.402 71.8797 120.135 71.8797C119.419 71.8797 118.703 72.2376 117.987 72.9535C112.26 78.7998 110.351 109.105 99.0164 120.679C92.5736 127.002 85.6535 127.002 81.3583 127.002Z" fill="url(#paint7_radial_21458_1708)"/>
<path d="M81.3583 127.002C61.9105 127.002 55.3483 102.543 53.7973 97.7705C50.0986 85.7199 49.0248 74.8625 48.9055 73.7887C48.1896 67.2265 53.4393 62.6926 59.2856 62.6926C63.7001 62.6926 68.7112 65.3175 69.4271 71.6411C69.5464 72.7149 70.3816 81.9019 73.603 91.9242C76.8244 102.424 80.4038 106.361 82.9093 106.361C86.9659 106.361 89.4715 95.9808 91.6191 86.0779C93.1701 78.7998 94.9598 71.5217 98.4199 64.9596C104.147 53.6249 113.095 51 120.97 51C138.031 51 146.622 70.8059 146.622 75.9363C146.622 84.5268 139.582 86.6744 136.6 86.6744C129.918 86.6744 127.771 82.2599 125.862 78.3226C124.191 74.8625 122.402 71.8797 120.135 71.8797C119.419 71.8797 118.703 72.2376 117.987 72.9535C112.26 78.7998 110.351 109.105 99.0164 120.679C92.5736 127.002 85.6535 127.002 81.3583 127.002Z" fill="url(#paint8_radial_21458_1708)"/>
<path d="M120.97 51C113.214 51 104.147 53.6249 98.1811 64.9596C94.7211 71.5217 93.0507 78.7998 91.3803 86.0779C90.9031 88.4641 90.3065 90.8504 89.71 93.2366V126.167C92.6928 125.332 95.7949 123.781 98.897 120.679C110.351 109.105 112.26 78.7998 117.868 72.9535C118.464 72.2376 119.18 71.8797 120.015 71.8797C122.282 71.8797 124.072 74.7432 125.742 78.3226C127.651 82.2599 129.918 86.6744 136.48 86.6744C139.463 86.6744 146.502 84.5268 146.502 75.9363C146.502 70.8059 138.031 51 120.97 51Z" fill="url(#paint9_radial_21458_1708)"/>
<path d="M81.3583 127.002C61.9105 127.002 55.3483 102.543 53.7973 97.7705C50.0986 85.7199 49.0248 74.8625 48.9055 73.7887C48.1896 67.2265 53.4393 62.6926 59.2856 62.6926C63.7001 62.6926 68.7112 65.3175 69.4271 71.6411C69.5464 72.7149 70.3816 81.9019 73.603 91.9242C76.8244 102.424 80.4038 106.361 82.9093 106.361C86.9659 106.361 89.4715 95.9808 91.6191 86.0779C93.1701 78.7998 94.9598 71.5217 98.4199 64.9596C104.147 53.6249 113.095 51 120.97 51C138.031 51 146.622 70.8059 146.622 75.9363C146.622 84.5268 139.582 86.6744 136.6 86.6744C129.918 86.6744 127.771 82.2599 125.862 78.3226C124.191 74.8625 122.402 71.8797 120.135 71.8797C119.419 71.8797 118.703 72.2376 117.987 72.9535C112.26 78.7998 110.351 109.105 99.0164 120.679C92.5736 127.002 85.6535 127.002 81.3583 127.002Z" fill="url(#paint10_radial_21458_1708)"/>
<path d="M81.3583 127.002C61.9105 127.002 55.3483 102.543 53.7973 97.7705C50.0986 85.7199 49.0248 74.8625 48.9055 73.7887C48.1896 67.2265 53.4393 62.6926 59.2856 62.6926C63.7001 62.6926 68.7112 65.3175 69.4271 71.6411C69.5464 72.7149 70.3816 81.9019 73.603 91.9242C76.8244 102.424 80.4038 106.361 82.9093 106.361C86.9659 106.361 89.4715 95.9808 91.6191 86.0779C93.1701 78.7998 94.9598 71.5217 98.4199 64.9596C104.147 53.6249 113.095 51 120.97 51C138.031 51 146.622 70.8059 146.622 75.9363C146.622 84.5268 139.582 86.6744 136.6 86.6744C129.918 86.6744 127.771 82.2599 125.862 78.3226C124.191 74.8625 122.402 71.8797 120.135 71.8797C119.419 71.8797 118.703 72.2376 117.987 72.9535C112.26 78.7998 110.351 109.105 99.0164 120.679C92.5736 127.002 85.6535 127.002 81.3583 127.002Z" fill="url(#paint11_radial_21458_1708)"/>
<path d="M81.3583 127.002C61.9105 127.002 55.3483 102.543 53.7973 97.7705C50.0986 85.7199 49.0248 74.8625 48.9055 73.7887C48.1896 67.2265 53.4393 62.6926 59.2856 62.6926C63.7001 62.6926 68.7112 65.3175 69.4271 71.6411C69.5464 72.7149 70.3816 81.9019 73.603 91.9242C76.8244 102.424 80.4038 106.361 82.9093 106.361C86.9659 106.361 89.4715 95.9808 91.6191 86.0779C93.1701 78.7998 94.9598 71.5217 98.4199 64.9596C104.147 53.6249 113.095 51 120.97 51C138.031 51 146.622 70.8059 146.622 75.9363C146.622 84.5268 139.582 86.6744 136.6 86.6744C129.918 86.6744 127.771 82.2599 125.862 78.3226C124.191 74.8625 122.402 71.8797 120.135 71.8797C119.419 71.8797 118.703 72.2376 117.987 72.9535C112.26 78.7998 110.351 109.105 99.0164 120.679C92.5736 127.002 85.6535 127.002 81.3583 127.002Z" fill="url(#paint12_radial_21458_1708)"/>
<path d="M81.3583 127.002C61.9105 127.002 55.3483 102.543 53.7973 97.7705C50.0986 85.7199 49.0248 74.8625 48.9055 73.7887C48.1896 67.2265 53.4393 62.6926 59.2856 62.6926C63.7001 62.6926 68.7112 65.3175 69.4271 71.6411C69.5464 72.7149 70.3816 81.9019 73.603 91.9242C76.8244 102.424 80.4038 106.361 82.9093 106.361C86.9659 106.361 89.4715 95.9808 91.6191 86.0779C93.1701 78.7998 94.9598 71.5217 98.4199 64.9596C104.147 53.6249 113.095 51 120.97 51C138.031 51 146.622 70.8059 146.622 75.9363C146.622 84.5268 139.582 86.6744 136.6 86.6744C129.918 86.6744 127.771 82.2599 125.862 78.3226C124.191 74.8625 122.402 71.8797 120.135 71.8797C119.419 71.8797 118.703 72.2376 117.987 72.9535C112.26 78.7998 110.351 109.105 99.0164 120.679C92.5736 127.002 85.6535 127.002 81.3583 127.002Z" fill="url(#paint13_radial_21458_1708)"/>
<path d="M81.3583 127.002C61.9105 127.002 55.3483 102.543 53.7973 97.7705C50.0986 85.7199 49.0248 74.8625 48.9055 73.7887C48.1896 67.2265 53.4393 62.6926 59.2856 62.6926C63.7001 62.6926 68.7112 65.3175 69.4271 71.6411C69.5464 72.7149 70.3816 81.9019 73.603 91.9242C76.8244 102.424 80.4038 106.361 82.9093 106.361C86.9659 106.361 89.4715 95.9808 91.6191 86.0779C93.1701 78.7998 94.9598 71.5217 98.4199 64.9596C104.147 53.6249 113.095 51 120.97 51C138.031 51 146.622 70.8059 146.622 75.9363C146.622 84.5268 139.582 86.6744 136.6 86.6744C129.918 86.6744 127.771 82.2599 125.862 78.3226C124.191 74.8625 122.402 71.8797 120.135 71.8797C119.419 71.8797 118.703 72.2376 117.987 72.9535C112.26 78.7998 110.351 109.105 99.0164 120.679C92.5736 127.002 85.6535 127.002 81.3583 127.002Z" fill="url(#paint14_radial_21458_1708)"/>
<path d="M143.397 62.6926C142.681 62.6926 141.846 62.8119 141.13 62.9312C144.71 68.181 146.499 73.5501 146.499 75.9363C146.499 84.5268 139.46 86.6744 136.477 86.6744C134.091 86.6744 132.301 86.0779 130.869 85.2427V85.362C130.392 87.0324 130.154 88.9414 129.557 90.7311C128.483 94.1911 126.932 98.1284 125.262 101.231C123.472 104.571 121.802 106.48 119.773 106.361C117.387 106.242 115.597 103.259 113.211 94.7877C112.495 92.0435 111.78 89.0607 111.064 86.0779C109.393 78.7998 107.484 71.4024 104.144 64.9596C98.6552 54.3408 89.2296 51 81.713 51C74.7929 51 69.5432 54.3408 65.4866 58.5167C64.4128 59.7098 63.1003 61.2609 61.9072 63.0506C65.4866 63.8858 68.8273 66.6299 69.4239 71.6411C69.5432 72.5956 70.259 80.3509 72.7646 89.2993C73.4805 87.0324 74.5543 83.6916 76.9405 78.4419C78.1336 75.9363 79.2074 74.3853 80.1619 73.4307C80.9971 72.4762 81.8323 72.1183 82.5482 72.1183C83.3833 72.1183 86.0082 72.8342 88.6331 81.9019C91.7352 92.998 94.1214 110.895 103.189 120.44C107.246 124.616 112.853 127.36 120.609 127.36C127.409 127.36 133.136 124.377 137.193 120.201C143.874 113.281 147.573 101.946 148.885 97.7705C152.584 85.8393 153.658 74.9818 153.777 73.7887C154.493 67.2265 148.885 62.6926 143.397 62.6926Z" fill="#4A4A4A"/>
<path d="M143.397 62.6926C142.681 62.6926 141.846 62.8119 141.13 62.9312C144.71 68.181 146.499 73.5501 146.499 75.9363C146.499 84.5268 139.46 86.6744 136.477 86.6744C134.091 86.6744 132.301 86.0779 130.869 85.2427V85.362C130.392 87.0324 130.154 88.9414 129.557 90.7311C128.483 94.1911 126.932 98.1284 125.262 101.231C123.472 104.571 121.802 106.48 119.773 106.361C117.387 106.242 115.597 103.259 113.211 94.7877C112.495 92.0435 111.78 89.0607 111.064 86.0779C109.393 78.7998 107.484 71.4024 104.144 64.9596C98.6552 54.3408 89.2296 51 81.713 51C74.7929 51 69.5432 54.3408 65.4866 58.5167C64.4128 59.7098 63.1003 61.2609 61.9072 63.0506C65.4866 63.8858 68.8273 66.6299 69.4239 71.6411C69.5432 72.5956 70.259 80.3509 72.7646 89.2993C73.4805 87.0324 74.5543 83.6916 76.9405 78.4419C78.1336 75.9363 79.2074 74.3853 80.1619 73.4307C80.9971 72.4762 81.8323 72.1183 82.5482 72.1183C83.3833 72.1183 86.0082 72.8342 88.6331 81.9019C91.7352 92.998 94.1214 110.895 103.189 120.44C107.246 124.616 112.853 127.36 120.609 127.36C127.409 127.36 133.136 124.377 137.193 120.201C143.874 113.281 147.573 101.946 148.885 97.7705C152.584 85.8393 153.658 74.9818 153.777 73.7887C154.493 67.2265 148.885 62.6926 143.397 62.6926Z" fill="url(#paint15_linear_21458_1708)"/>
<path d="M143.397 62.6926C142.681 62.6926 141.846 62.8119 141.13 62.9312C144.71 68.181 146.499 73.5501 146.499 75.9363C146.499 84.5268 139.46 86.6744 136.477 86.6744C134.091 86.6744 132.301 86.0779 130.869 85.2427V85.362C130.392 87.0324 130.154 88.9414 129.557 90.7311C128.483 94.1911 126.932 98.1284 125.262 101.231C123.472 104.571 121.802 106.48 119.773 106.361C117.387 106.242 115.597 103.259 113.211 94.7877C112.495 92.0435 111.78 89.0607 111.064 86.0779C109.393 78.7998 107.484 71.4024 104.144 64.9596C98.6552 54.3408 89.2296 51 81.713 51C74.7929 51 69.5432 54.3408 65.4866 58.5167C64.4128 59.7098 63.1003 61.2609 61.9072 63.0506C65.4866 63.8858 68.8273 66.6299 69.4239 71.6411C69.5432 72.5956 70.259 80.3509 72.7646 89.2993C73.4805 87.0324 74.5543 83.6916 76.9405 78.4419C78.1336 75.9363 79.2074 74.3853 80.1619 73.4307C80.9971 72.4762 81.8323 72.1183 82.5482 72.1183C83.3833 72.1183 86.0082 72.8342 88.6331 81.9019C91.7352 92.998 94.1214 110.895 103.189 120.44C107.246 124.616 112.853 127.36 120.609 127.36C127.409 127.36 133.136 124.377 137.193 120.201C143.874 113.281 147.573 101.946 148.885 97.7705C152.584 85.8393 153.658 74.9818 153.777 73.7887C154.493 67.2265 148.885 62.6926 143.397 62.6926Z" fill="url(#paint16_radial_21458_1708)"/>
<path d="M143.397 62.6926C142.681 62.6926 141.846 62.8119 141.13 62.9312C144.71 68.181 146.499 73.5501 146.499 75.9363C146.499 84.5268 139.46 86.6744 136.477 86.6744C134.091 86.6744 132.301 86.0779 130.869 85.2427V85.362C130.392 87.0324 130.154 88.9414 129.557 90.7311C128.483 94.1911 126.932 98.1284 125.262 101.231C123.472 104.571 121.802 106.48 119.773 106.361C117.387 106.242 115.597 103.259 113.211 94.7877C112.495 92.0435 111.78 89.0607 111.064 86.0779C109.393 78.7998 107.484 71.4024 104.144 64.9596C98.6552 54.3408 89.2296 51 81.713 51C74.7929 51 69.5432 54.3408 65.4866 58.5167C64.4128 59.7098 63.1003 61.2609 61.9072 63.0506C65.4866 63.8858 68.8273 66.6299 69.4239 71.6411C69.5432 72.5956 70.259 80.3509 72.7646 89.2993C73.4805 87.0324 74.5543 83.6916 76.9405 78.4419C78.1336 75.9363 79.2074 74.3853 80.1619 73.4307C80.9971 72.4762 81.8323 72.1183 82.5482 72.1183C83.3833 72.1183 86.0082 72.8342 88.6331 81.9019C91.7352 92.998 94.1214 110.895 103.189 120.44C107.246 124.616 112.853 127.36 120.609 127.36C127.409 127.36 133.136 124.377 137.193 120.201C143.874 113.281 147.573 101.946 148.885 97.7705C152.584 85.8393 153.658 74.9818 153.777 73.7887C154.493 67.2265 148.885 62.6926 143.397 62.6926Z" fill="url(#paint17_linear_21458_1708)"/>
<path d="M143.397 62.6926C142.681 62.6926 141.846 62.8119 141.13 62.9312C144.71 68.181 146.499 73.5501 146.499 75.9363C146.499 84.5268 139.46 86.6744 136.477 86.6744C134.091 86.6744 132.301 86.0779 130.869 85.2427V85.362C130.392 87.0324 130.154 88.9414 129.557 90.7311C128.483 94.1911 126.932 98.1284 125.262 101.231C123.472 104.571 121.802 106.48 119.773 106.361C117.387 106.242 115.597 103.259 113.211 94.7877C112.495 92.0435 111.78 89.0607 111.064 86.0779C109.393 78.7998 107.484 71.4024 104.144 64.9596C98.6552 54.3408 89.2296 51 81.713 51C74.7929 51 69.5432 54.3408 65.4866 58.5167C64.4128 59.7098 63.1003 61.2609 61.9072 63.0506C65.4866 63.8858 68.8273 66.6299 69.4239 71.6411C69.5432 72.5956 70.259 80.3509 72.7646 89.2993C73.4805 87.0324 74.5543 83.6916 76.9405 78.4419C78.1336 75.9363 79.2074 74.3853 80.1619 73.4307C80.9971 72.4762 81.8323 72.1183 82.5482 72.1183C83.3833 72.1183 86.0082 72.8342 88.6331 81.9019C91.7352 92.998 94.1214 110.895 103.189 120.44C107.246 124.616 112.853 127.36 120.609 127.36C127.409 127.36 133.136 124.377 137.193 120.201C143.874 113.281 147.573 101.946 148.885 97.7705C152.584 85.8393 153.658 74.9818 153.777 73.7887C154.493 67.2265 148.885 62.6926 143.397 62.6926Z" fill="url(#paint18_linear_21458_1708)"/>
<path d="M143.397 62.6926C142.681 62.6926 141.846 62.8119 141.13 62.9312C144.71 68.181 146.499 73.5501 146.499 75.9363C146.499 84.5268 139.46 86.6744 136.477 86.6744C134.091 86.6744 132.301 86.0779 130.869 85.2427V85.362C130.392 87.0324 130.154 88.9414 129.557 90.7311C128.483 94.1911 126.932 98.1284 125.262 101.231C123.472 104.571 121.802 106.48 119.773 106.361C117.387 106.242 115.597 103.259 113.211 94.7877C112.495 92.0435 111.78 89.0607 111.064 86.0779C109.393 78.7998 107.484 71.4024 104.144 64.9596C98.6552 54.3408 89.2296 51 81.713 51C74.7929 51 69.5432 54.3408 65.4866 58.5167C64.4128 59.7098 63.1003 61.2609 61.9072 63.0506C65.4866 63.8858 68.8273 66.6299 69.4239 71.6411C69.5432 72.5956 70.259 80.3509 72.7646 89.2993C73.4805 87.0324 74.5543 83.6916 76.9405 78.4419C78.1336 75.9363 79.2074 74.3853 80.1619 73.4307C80.9971 72.4762 81.8323 72.1183 82.5482 72.1183C83.3833 72.1183 86.0082 72.8342 88.6331 81.9019C91.7352 92.998 94.1214 110.895 103.189 120.44C107.246 124.616 112.853 127.36 120.609 127.36C127.409 127.36 133.136 124.377 137.193 120.201C143.874 113.281 147.573 101.946 148.885 97.7705C152.584 85.8393 153.658 74.9818 153.777 73.7887C154.493 67.2265 148.885 62.6926 143.397 62.6926Z" fill="url(#paint19_radial_21458_1708)"/>
<path d="M143.397 62.6926C142.681 62.6926 141.846 62.8119 141.13 62.9312C144.71 68.181 146.499 73.5501 146.499 75.9363C146.499 84.5268 139.46 86.6744 136.477 86.6744C134.091 86.6744 132.301 86.0779 130.869 85.2427V85.362C130.392 87.0324 130.154 88.9414 129.557 90.7311C128.483 94.1911 126.932 98.1284 125.262 101.231C123.472 104.571 121.802 106.48 119.773 106.361C117.387 106.242 115.597 103.259 113.211 94.7877C112.495 92.0435 111.78 89.0607 111.064 86.0779C109.393 78.7998 107.484 71.4024 104.144 64.9596C98.6552 54.3408 89.2296 51 81.713 51C74.7929 51 69.5432 54.3408 65.4866 58.5167C64.4128 59.7098 63.1003 61.2609 61.9072 63.0506C65.4866 63.8858 68.8273 66.6299 69.4239 71.6411C69.5432 72.5956 70.259 80.3509 72.7646 89.2993C73.4805 87.0324 74.5543 83.6916 76.9405 78.4419C78.1336 75.9363 79.2074 74.3853 80.1619 73.4307C80.9971 72.4762 81.8323 72.1183 82.5482 72.1183C83.3833 72.1183 86.0082 72.8342 88.6331 81.9019C91.7352 92.998 94.1214 110.895 103.189 120.44C107.246 124.616 112.853 127.36 120.609 127.36C127.409 127.36 133.136 124.377 137.193 120.201C143.874 113.281 147.573 101.946 148.885 97.7705C152.584 85.8393 153.658 74.9818 153.777 73.7887C154.493 67.2265 148.885 62.6926 143.397 62.6926Z" fill="url(#paint20_radial_21458_1708)"/>
<path d="M143.397 62.6926C142.681 62.6926 141.846 62.8119 141.13 62.9312C144.71 68.181 146.499 73.5501 146.499 75.9363C146.499 84.5268 139.46 86.6744 136.477 86.6744C134.091 86.6744 132.301 86.0779 130.869 85.2427V85.362C130.392 87.0324 130.154 88.9414 129.557 90.7311C128.483 94.1911 126.932 98.1284 125.262 101.231C123.472 104.571 121.802 106.48 119.773 106.361C117.387 106.242 115.597 103.259 113.211 94.7877C112.495 92.0435 111.78 89.0607 111.064 86.0779C109.393 78.7998 107.484 71.4024 104.144 64.9596C98.6552 54.3408 89.2296 51 81.713 51C74.7929 51 69.5432 54.3408 65.4866 58.5167C64.4128 59.7098 63.1003 61.2609 61.9072 63.0506C65.4866 63.8858 68.8273 66.6299 69.4239 71.6411C69.5432 72.5956 70.259 80.3509 72.7646 89.2993C73.4805 87.0324 74.5543 83.6916 76.9405 78.4419C78.1336 75.9363 79.2074 74.3853 80.1619 73.4307C80.9971 72.4762 81.8323 72.1183 82.5482 72.1183C83.3833 72.1183 86.0082 72.8342 88.6331 81.9019C91.7352 92.998 94.1214 110.895 103.189 120.44C107.246 124.616 112.853 127.36 120.609 127.36C127.409 127.36 133.136 124.377 137.193 120.201C143.874 113.281 147.573 101.946 148.885 97.7705C152.584 85.8393 153.658 74.9818 153.777 73.7887C154.493 67.2265 148.885 62.6926 143.397 62.6926Z" fill="url(#paint21_radial_21458_1708)"/>
<path d="M143.397 62.6926C142.681 62.6926 141.846 62.8119 141.13 62.9312C144.71 68.181 146.499 73.5501 146.499 75.9363C146.499 84.5268 139.46 86.6744 136.477 86.6744C134.091 86.6744 132.301 86.0779 130.869 85.2427V85.362C130.392 87.0324 130.154 88.9414 129.557 90.7311C128.483 94.1911 126.932 98.1284 125.262 101.231C123.472 104.571 121.802 106.48 119.773 106.361C117.387 106.242 115.597 103.259 113.211 94.7877C112.495 92.0435 111.78 89.0607 111.064 86.0779C109.393 78.7998 107.484 71.4024 104.144 64.9596C98.6552 54.3408 89.2296 51 81.713 51C74.7929 51 69.5432 54.3408 65.4866 58.5167C64.4128 59.7098 63.1003 61.2609 61.9072 63.0506C65.4866 63.8858 68.8273 66.6299 69.4239 71.6411C69.5432 72.5956 70.259 80.3509 72.7646 89.2993C73.4805 87.0324 74.5543 83.6916 76.9405 78.4419C78.1336 75.9363 79.2074 74.3853 80.1619 73.4307C80.9971 72.4762 81.8323 72.1183 82.5482 72.1183C83.3833 72.1183 86.0082 72.8342 88.6331 81.9019C91.7352 92.998 94.1214 110.895 103.189 120.44C107.246 124.616 112.853 127.36 120.609 127.36C127.409 127.36 133.136 124.377 137.193 120.201C143.874 113.281 147.573 101.946 148.885 97.7705C152.584 85.8393 153.658 74.9818 153.777 73.7887C154.493 67.2265 148.885 62.6926 143.397 62.6926Z" fill="url(#paint22_radial_21458_1708)"/>
<path d="M143.397 62.6926C142.681 62.6926 141.846 62.8119 141.13 62.9312C144.71 68.181 146.499 73.5501 146.499 75.9363C146.499 84.5268 139.46 86.6744 136.477 86.6744C134.091 86.6744 132.301 86.0779 130.869 85.2427V85.362C130.392 87.0324 130.154 88.9414 129.557 90.7311C128.483 94.1911 126.932 98.1284 125.262 101.231C123.472 104.571 121.802 106.48 119.773 106.361C117.387 106.242 115.597 103.259 113.211 94.7877C112.495 92.0435 111.78 89.0607 111.064 86.0779C109.393 78.7998 107.484 71.4024 104.144 64.9596C98.6552 54.3408 89.2296 51 81.713 51C74.7929 51 69.5432 54.3408 65.4866 58.5167C64.4128 59.7098 63.1003 61.2609 61.9072 63.0506C65.4866 63.8858 68.8273 66.6299 69.4239 71.6411C69.5432 72.5956 70.259 80.3509 72.7646 89.2993C73.4805 87.0324 74.5543 83.6916 76.9405 78.4419C78.1336 75.9363 79.2074 74.3853 80.1619 73.4307C80.9971 72.4762 81.8323 72.1183 82.5482 72.1183C83.3833 72.1183 86.0082 72.8342 88.6331 81.9019C91.7352 92.998 94.1214 110.895 103.189 120.44C107.246 124.616 112.853 127.36 120.609 127.36C127.409 127.36 133.136 124.377 137.193 120.201C143.874 113.281 147.573 101.946 148.885 97.7705C152.584 85.8393 153.658 74.9818 153.777 73.7887C154.493 67.2265 148.885 62.6926 143.397 62.6926Z" fill="url(#paint23_radial_21458_1708)"/>
<path d="M143.397 62.6926C142.681 62.6926 141.846 62.8119 141.13 62.9312C144.71 68.181 146.499 73.5501 146.499 75.9363C146.499 84.5268 139.46 86.6744 136.477 86.6744C134.091 86.6744 132.301 86.0779 130.869 85.2427V85.362C130.392 87.0324 130.154 88.9414 129.557 90.7311C128.483 94.1911 126.932 98.1284 125.262 101.231C123.472 104.571 121.802 106.48 119.773 106.361C117.387 106.242 115.597 103.259 113.211 94.7877C112.495 92.0435 111.78 89.0607 111.064 86.0779C109.393 78.7998 107.484 71.4024 104.144 64.9596C98.6552 54.3408 89.2296 51 81.713 51C74.7929 51 69.5432 54.3408 65.4866 58.5167C64.4128 59.7098 63.1003 61.2609 61.9072 63.0506C65.4866 63.8858 68.8273 66.6299 69.4239 71.6411C69.5432 72.5956 70.259 80.3509 72.7646 89.2993C73.4805 87.0324 74.5543 83.6916 76.9405 78.4419C78.1336 75.9363 79.2074 74.3853 80.1619 73.4307C80.9971 72.4762 81.8323 72.1183 82.5482 72.1183C83.3833 72.1183 86.0082 72.8342 88.6331 81.9019C91.7352 92.998 94.1214 110.895 103.189 120.44C107.246 124.616 112.853 127.36 120.609 127.36C127.409 127.36 133.136 124.377 137.193 120.201C143.874 113.281 147.573 101.946 148.885 97.7705C152.584 85.8393 153.658 74.9818 153.777 73.7887C154.493 67.2265 148.885 62.6926 143.397 62.6926Z" fill="url(#paint24_linear_21458_1708)"/>
<path d="M143.397 62.6926C142.681 62.6926 141.846 62.8119 141.13 62.9312C144.71 68.181 146.499 73.5501 146.499 75.9363C146.499 84.5268 139.46 86.6744 136.477 86.6744C134.091 86.6744 132.301 86.0779 130.869 85.2427V85.362C130.392 87.0324 130.154 88.9414 129.557 90.7311C128.483 94.1911 126.932 98.1284 125.262 101.231C123.472 104.571 121.802 106.48 119.773 106.361C117.387 106.242 115.597 103.259 113.211 94.7877C112.495 92.0435 111.78 89.0607 111.064 86.0779C109.393 78.7998 107.484 71.4024 104.144 64.9596C98.6552 54.3408 89.2296 51 81.713 51C74.7929 51 69.5432 54.3408 65.4866 58.5167C64.4128 59.7098 63.1003 61.2609 61.9072 63.0506C65.4866 63.8858 68.8273 66.6299 69.4239 71.6411C69.5432 72.5956 70.259 80.3509 72.7646 89.2993C73.4805 87.0324 74.5543 83.6916 76.9405 78.4419C78.1336 75.9363 79.2074 74.3853 80.1619 73.4307C80.9971 72.4762 81.8323 72.1183 82.5482 72.1183C83.3833 72.1183 86.0082 72.8342 88.6331 81.9019C91.7352 92.998 94.1214 110.895 103.189 120.44C107.246 124.616 112.853 127.36 120.609 127.36C127.409 127.36 133.136 124.377 137.193 120.201C143.874 113.281 147.573 101.946 148.885 97.7705C152.584 85.8393 153.658 74.9818 153.777 73.7887C154.493 67.2265 148.885 62.6926 143.397 62.6926Z" fill="url(#paint25_radial_21458_1708)"/>
<path d="M143.397 62.6926C142.681 62.6926 141.846 62.8119 141.13 62.9312C144.71 68.181 146.499 73.5501 146.499 75.9363C146.499 84.5268 139.46 86.6744 136.477 86.6744C134.091 86.6744 132.301 86.0779 130.869 85.2427V85.362C130.392 87.0324 130.154 88.9414 129.557 90.7311C128.483 94.1911 126.932 98.1284 125.262 101.231C123.472 104.571 121.802 106.48 119.773 106.361C117.387 106.242 115.597 103.259 113.211 94.7877C112.495 92.0435 111.78 89.0607 111.064 86.0779C109.393 78.7998 107.484 71.4024 104.144 64.9596C98.6552 54.3408 89.2296 51 81.713 51C74.7929 51 69.5432 54.3408 65.4866 58.5167C64.4128 59.7098 63.1003 61.2609 61.9072 63.0506C65.4866 63.8858 68.8273 66.6299 69.4239 71.6411C69.5432 72.5956 70.259 80.3509 72.7646 89.2993C73.4805 87.0324 74.5543 83.6916 76.9405 78.4419C78.1336 75.9363 79.2074 74.3853 80.1619 73.4307C80.9971 72.4762 81.8323 72.1183 82.5482 72.1183C83.3833 72.1183 86.0082 72.8342 88.6331 81.9019C91.7352 92.998 94.1214 110.895 103.189 120.44C107.246 124.616 112.853 127.36 120.609 127.36C127.409 127.36 133.136 124.377 137.193 120.201C143.874 113.281 147.573 101.946 148.885 97.7705C152.584 85.8393 153.658 74.9818 153.777 73.7887C154.493 67.2265 148.885 62.6926 143.397 62.6926Z" fill="url(#paint26_radial_21458_1708)"/>
<path d="M143.397 62.6926C142.681 62.6926 141.846 62.8119 141.13 62.9312C144.71 68.181 146.499 73.5501 146.499 75.9363C146.499 84.5268 139.46 86.6744 136.477 86.6744C134.091 86.6744 132.301 86.0779 130.869 85.2427V85.362C130.392 87.0324 130.154 88.9414 129.557 90.7311C128.483 94.1911 126.932 98.1284 125.262 101.231C123.472 104.571 121.802 106.48 119.773 106.361C117.387 106.242 115.597 103.259 113.211 94.7877C112.495 92.0435 111.78 89.0607 111.064 86.0779C109.393 78.7998 107.484 71.4024 104.144 64.9596C98.6552 54.3408 89.2296 51 81.713 51C74.7929 51 69.5432 54.3408 65.4866 58.5167C64.4128 59.7098 63.1003 61.2609 61.9072 63.0506C65.4866 63.8858 68.8273 66.6299 69.4239 71.6411C69.5432 72.5956 70.259 80.3509 72.7646 89.2993C73.4805 87.0324 74.5543 83.6916 76.9405 78.4419C78.1336 75.9363 79.2074 74.3853 80.1619 73.4307C80.9971 72.4762 81.8323 72.1183 82.5482 72.1183C83.3833 72.1183 86.0082 72.8342 88.6331 81.9019C91.7352 92.998 94.1214 110.895 103.189 120.44C107.246 124.616 112.853 127.36 120.609 127.36C127.409 127.36 133.136 124.377 137.193 120.201C143.874 113.281 147.573 101.946 148.885 97.7705C152.584 85.8393 153.658 74.9818 153.777 73.7887C154.493 67.2265 148.885 62.6926 143.397 62.6926Z" fill="url(#paint27_linear_21458_1708)"/>
<defs>
<linearGradient id="paint0_linear_21458_1708" x1="136.095" y1="73.8983" x2="67.4272" y2="96.4366" gradientUnits="userSpaceOnUse">
<stop stop-color="#7B7B7B"/>
<stop offset="1" stop-color="#464646"/>
</linearGradient>
<radialGradient id="paint1_radial_21458_1708" cx="0" cy="0" r="1" gradientTransform="matrix(-23.0781 -38.59 32.4085 -19.3816 88.751 91.5462)" gradientUnits="userSpaceOnUse">
<stop/>
<stop offset="0.4079" stop-opacity="0.75"/>
<stop offset="0.8745" stop-opacity="0"/>
</radialGradient>
<radialGradient id="paint2_radial_21458_1708" cx="0" cy="0" r="1" gradientTransform="matrix(-21.9459 -29.3818 19.3098 -14.4231 118.312 83.2032)" gradientUnits="userSpaceOnUse">
<stop stop-color="#0D0D0D"/>
<stop offset="0.4595" stop-color="#090909"/>
<stop offset="1" stop-opacity="0"/>
</radialGradient>
<radialGradient id="paint3_radial_21458_1708" cx="0" cy="0" r="1" gradientTransform="matrix(-17.503 -31.7383 22.0044 -12.1351 94.7189 96.9353)" gradientUnits="userSpaceOnUse">
<stop/>
<stop offset="0.4079" stop-opacity="0.79"/>
<stop offset="0.8745" stop-opacity="0"/>
</radialGradient>
<radialGradient id="paint4_radial_21458_1708" cx="0" cy="0" r="1" gradientTransform="matrix(2.44241 28.4541 -16.152 1.38645 112.989 84.0113)" gradientUnits="userSpaceOnUse">
<stop/>
<stop offset="0.2326" stop-opacity="0.75"/>
<stop offset="0.5989" stop-opacity="0.3008"/>
<stop offset="0.8745" stop-opacity="0"/>
</radialGradient>
<radialGradient id="paint5_radial_21458_1708" cx="0" cy="0" r="1" gradientTransform="matrix(18.2613 28.1798 -14.7852 9.58135 114.227 37.8503)" gradientUnits="userSpaceOnUse">
<stop stop-color="#2B2B2B"/>
<stop offset="0.4079" stop-color="#323232"/>
<stop offset="1" stop-color="#323232" stop-opacity="0.07"/>
</radialGradient>
<radialGradient id="paint6_radial_21458_1708" cx="0" cy="0" r="1" gradientTransform="matrix(16.1071 14.9141 -20.6127 22.2618 44.0114 64.1244)" gradientUnits="userSpaceOnUse">
<stop stop-color="white"/>
<stop offset="1" stop-color="#4A4A4A" stop-opacity="0"/>
</radialGradient>
<radialGradient id="paint7_radial_21458_1708" cx="0" cy="0" r="1" gradientTransform="matrix(26.8451 -4.17594 5.77153 37.103 32.0803 86.1972)" gradientUnits="userSpaceOnUse">
<stop stop-color="white"/>
<stop offset="1" stop-color="#4A4A4A" stop-opacity="0"/>
</radialGradient>
<radialGradient id="paint8_radial_21458_1708" cx="0" cy="0" r="1" gradientTransform="matrix(23.8624 -14.9141 20.6127 32.9805 38.6424 112.446)" gradientUnits="userSpaceOnUse">
<stop stop-color="white"/>
<stop offset="1" stop-color="#4A4A4A" stop-opacity="0"/>
</radialGradient>
<radialGradient id="paint9_radial_21458_1708" cx="0" cy="0" r="1" gradientTransform="matrix(59.5401 66.0986 -65.9997 59.4519 68.5612 22.5071)" gradientUnits="userSpaceOnUse">
<stop stop-color="#464646"/>
<stop offset="0.7454" stop-color="#444444" stop-opacity="0"/>
</radialGradient>
<radialGradient id="paint10_radial_21458_1708" cx="0" cy="0" r="1" gradientTransform="matrix(-19.3168 -23.3718 16.365 -13.5259 138.477 72.8912)" gradientUnits="userSpaceOnUse">
<stop stop-color="#717171"/>
<stop offset="1" stop-color="#444444" stop-opacity="0"/>
</radialGradient>
<radialGradient id="paint11_radial_21458_1708" cx="0" cy="0" r="1" gradientTransform="matrix(1.58971 -7.39642 10.3446 2.22338 133.698 91.7554)" gradientUnits="userSpaceOnUse">
<stop stop-color="#0F0F0F"/>
<stop offset="1" stop-opacity="0"/>
</radialGradient>
<radialGradient id="paint12_radial_21458_1708" cx="0" cy="0" r="1" gradientTransform="matrix(-17.9935 -9.75264 6.85173 -12.6415 143.637 69.4934)" gradientUnits="userSpaceOnUse">
<stop stop-color="#7C7C7C"/>
<stop offset="0.8133" stop-color="#727272" stop-opacity="0"/>
</radialGradient>
<radialGradient id="paint13_radial_21458_1708" cx="0" cy="0" r="1" gradientTransform="matrix(-20.9763 -3.7871 2.66064 -14.7371 146.62 63.5278)" gradientUnits="userSpaceOnUse">
<stop stop-color="#C4C4C4"/>
<stop offset="0.8133" stop-color="#727272" stop-opacity="0"/>
</radialGradient>
<radialGradient id="paint14_radial_21458_1708" cx="0" cy="0" r="1" gradientTransform="matrix(28.4114 33.4152 -33.336 28.3444 33.3891 44.564)" gradientUnits="userSpaceOnUse">
<stop stop-color="#4C4C4C"/>
<stop offset="1" stop-color="#494949" stop-opacity="0"/>
</radialGradient>
<linearGradient id="paint15_linear_21458_1708" x1="150.794" y1="87.3903" x2="55.3451" y2="87.3903" gradientUnits="userSpaceOnUse">
<stop stop-color="#3E3E3E" stop-opacity="0"/>
<stop offset="0.460592" stop-color="#3E3E3E"/>
<stop offset="1" stop-color="#3E3E3E" stop-opacity="0"/>
</linearGradient>
<radialGradient id="paint16_radial_21458_1708" cx="0" cy="0" r="1" gradientTransform="matrix(17.731 13.5726 -18.8615 24.6406 134.909 85.3125)" gradientUnits="userSpaceOnUse">
<stop stop-color="#010101"/>
<stop offset="0.9661" stop-color="#010101" stop-opacity="0"/>
</radialGradient>
<linearGradient id="paint17_linear_21458_1708" x1="176.446" y1="76.6522" x2="134.091" y2="104.094" gradientUnits="userSpaceOnUse">
<stop stop-color="white" stop-opacity="0.3"/>
<stop offset="0.9661" stop-color="white" stop-opacity="0"/>
</linearGradient>
<linearGradient id="paint18_linear_21458_1708" x1="147.215" y1="127.36" x2="124.546" y2="116.025" gradientUnits="userSpaceOnUse">
<stop stop-color="white" stop-opacity="0.3"/>
<stop offset="0.9661" stop-color="white" stop-opacity="0"/>
</linearGradient>
<radialGradient id="paint19_radial_21458_1708" cx="0" cy="0" r="1" gradientTransform="matrix(26.0662 3.88588 -5.79559 38.8769 129.333 87.8758)" gradientUnits="userSpaceOnUse">
<stop stop-color="#010101"/>
<stop offset="0.5925" stop-color="#010101" stop-opacity="0"/>
</radialGradient>
<radialGradient id="paint20_radial_21458_1708" cx="0" cy="0" r="1" gradientTransform="matrix(20.459 9.38631 -16.7162 36.4362 131.472 91.1364)" gradientUnits="userSpaceOnUse">
<stop stop-color="#010101"/>
<stop offset="0.7568" stop-color="#010101" stop-opacity="0"/>
</radialGradient>
<radialGradient id="paint21_radial_21458_1708" cx="0" cy="0" r="1" gradientTransform="matrix(-1.78967 17.3003 -7.44638 -0.770315 82.7868 85.6006)" gradientUnits="userSpaceOnUse">
<stop stop-color="#010101"/>
<stop offset="0.8846" stop-color="#010101" stop-opacity="0"/>
</radialGradient>
<radialGradient id="paint22_radial_21458_1708" cx="0" cy="0" r="1" gradientTransform="matrix(44.7419 -5.96563 6.08083 45.6065 56.5382 90.3731)" gradientUnits="userSpaceOnUse">
<stop stop-color="#010101" stop-opacity="0.5"/>
<stop offset="0.8846" stop-color="#010101" stop-opacity="0"/>
</radialGradient>
<radialGradient id="paint23_radial_21458_1708" cx="0" cy="0" r="1" gradientUnits="userSpaceOnUse" gradientTransform="translate(61.9072 83.2144) rotate(-3.40647) scale(50.1996 98.067)">
<stop stop-color="#010101" stop-opacity="0.5"/>
<stop offset="0.822914" stop-color="#010101" stop-opacity="0"/>
</radialGradient>
<linearGradient id="paint24_linear_21458_1708" x1="88.1558" y1="136.905" x2="112.615" y2="115.429" gradientUnits="userSpaceOnUse">
<stop stop-color="#010101"/>
<stop offset="1" stop-color="#010101" stop-opacity="0"/>
</linearGradient>
<radialGradient id="paint25_radial_21458_1708" cx="0" cy="0" r="1" gradientTransform="matrix(-18.6697 -6.96477 11.918 -31.9477 75.1203 78.8187)" gradientUnits="userSpaceOnUse">
<stop stop-color="#010101"/>
<stop offset="0.709" stop-color="#010101" stop-opacity="0"/>
</radialGradient>
<radialGradient id="paint26_radial_21458_1708" cx="0" cy="0" r="1" gradientTransform="matrix(13.1243 20.8797 -14.0911 8.85732 97.1042 64.1244)" gradientUnits="userSpaceOnUse">
<stop stop-color="white" stop-opacity="0.15"/>
<stop offset="1" stop-color="white" stop-opacity="0"/>
</radialGradient>
<linearGradient id="paint27_linear_21458_1708" x1="80.4005" y1="46.2275" x2="81.5937" y2="57.5622" gradientUnits="userSpaceOnUse">
<stop stop-opacity="0.5"/>
<stop offset="1" stop-opacity="0"/>
</linearGradient>
</defs>
</svg>
