<svg width="507" height="175" viewBox="0 0 507 175" fill="none" xmlns="http://www.w3.org/2000/svg">
<path d="M230.6 119.451H221.352L219.33 112.997C215.412 118.263 210.05 120.895 203.243 120.895C196.114 120.895 190.495 118.327 186.386 113.19C182.662 108.502 180.799 102.369 180.799 94.7912C180.799 85.6723 183.207 78.7047 188.023 73.8883C192.005 69.9071 197.174 67.9164 203.532 67.916C210.146 67.916 215.316 70.2921 219.041 75.0444V50.0957H230.6V119.451ZM192.647 94.8862C192.647 100.794 194.06 105.193 196.886 108.083C199.197 110.523 202.215 111.743 205.94 111.743C210.499 111.743 213.967 110.074 216.343 106.735C218.463 103.78 219.522 99.7987 219.522 94.79C219.522 88.4974 218.045 83.8096 215.091 80.7266C212.779 78.2862 209.729 77.0659 205.94 77.0659C201.509 77.0659 198.137 78.7356 195.826 82.075C193.708 85.0939 192.649 89.3647 192.649 94.8873L192.647 94.8862ZM272.13 105.002H284.266C282.917 110.139 280.124 114.121 275.885 116.946C271.839 119.579 266.862 120.895 260.954 120.895C252.799 120.895 246.441 118.327 241.882 113.19C237.709 108.502 235.622 102.241 235.622 94.406C235.622 85.4165 238.223 78.5453 243.425 73.7922C247.791 69.8747 253.474 67.916 260.474 67.916C268.63 67.916 274.795 70.581 278.969 75.9109C282.887 80.8563 284.845 87.9203 284.845 97.1029H247.374C247.824 102.497 249.493 106.446 252.383 108.951C254.694 111.006 257.713 112.033 261.438 112.033C264.071 112.033 266.35 111.391 268.277 110.107C270.203 108.823 271.488 107.121 272.13 105.002ZM272.997 89.204C272.74 84.5162 271.327 81.0807 268.759 78.8974C266.64 77.0346 263.878 76.1034 260.474 76.1038C256.749 76.1038 253.763 77.3238 251.516 79.7639C249.461 81.9479 248.144 85.0943 247.567 89.2029L272.997 89.204ZM299.187 105.195C300.086 110.011 303.715 112.419 310.073 112.419C313.604 112.419 316.269 111.744 318.068 110.396C319.544 109.24 320.282 107.731 320.282 105.869C320.282 103.493 318.998 101.727 316.429 100.571C314.953 99.9289 311.71 99.0299 306.7 97.8738C300.535 96.4613 296.136 94.5348 293.503 92.0943C290.871 89.718 289.555 86.6036 289.554 82.751C289.554 77.8701 291.545 74.1133 295.527 71.4805C299.058 69.1046 303.907 67.9166 310.073 67.9166C316.43 67.9166 321.535 69.4256 325.388 72.4438C328.727 75.0128 330.814 78.4806 331.648 82.8471H319.897C318.934 78.5435 315.595 76.3917 309.879 76.3917C304.1 76.3917 301.21 78.1577 301.209 81.6898C301.209 83.4877 301.948 84.8361 303.426 85.7351C304.904 86.634 307.89 87.6295 312.384 88.7215C319.319 90.3267 324.136 92.1246 326.833 94.1152C330.236 96.6198 331.938 100.152 331.938 104.711C331.938 109.913 329.819 113.991 325.581 116.945C321.728 119.577 316.526 120.894 309.975 120.894C303.105 120.894 297.614 119.256 293.501 115.981C290.033 113.22 288.011 109.624 287.433 105.194L299.187 105.195ZM350.078 61.7519H337.363V50.0963H350.078V61.7519ZM349.5 119.451H337.941V69.3617H349.5V119.451ZM357.307 122.726H369.443C370.663 127.35 374.484 129.662 380.905 129.662C389.191 129.662 393.334 125.712 393.334 117.813V112.227C389.545 116.08 384.408 118.006 377.922 118.006C371.114 118.006 365.592 115.598 361.354 110.782C357.436 106.287 355.478 100.475 355.478 93.3466C355.478 84.9344 357.886 78.4165 362.702 73.7928C366.748 69.8753 371.95 67.9166 378.307 67.9166C384.985 67.9166 390.187 70.3568 393.913 75.2373L395.742 69.3617H404.894V117.717C404.894 124.332 402.518 129.501 397.766 133.226C393.526 136.565 387.939 138.235 381.005 138.235C373.554 138.235 367.743 136.662 363.569 133.515C360.165 130.883 358.078 127.286 357.307 122.726V122.726ZM367.326 93.4434C367.326 98.6448 368.771 102.658 371.66 105.484C374.037 107.731 377.023 108.855 380.619 108.855C385.242 108.855 388.742 107.346 391.119 104.328C393.172 101.695 394.199 98.0995 394.2 93.5407C394.2 87.8253 392.787 83.5227 389.962 80.6328C387.651 78.2568 384.536 77.0688 380.619 77.0688C376.316 77.0688 372.976 78.6101 370.6 81.6927C368.418 84.517 367.326 88.4337 367.326 93.4428V93.4434ZM423.506 119.451H411.948V69.3617H421.484L422.735 75.3335C426.396 70.3889 431.469 67.9166 437.955 67.9166C443.991 67.9166 448.615 69.779 451.827 73.5037C454.652 76.7786 456.065 81.2417 456.065 86.893V119.451H444.506V87.1791C444.506 80.308 441.327 76.8723 434.969 76.8719C431.501 76.8719 428.676 78.0921 426.492 80.5325C424.501 82.7803 423.506 85.6059 423.506 89.0094V119.451Z" fill="black"/>
<path d="M57.542 62.6934C52.4972 63.0752 48.3399 68.4202 49.0873 73.9085C49.3208 75.9129 49.8347 79.0149 50.4886 82.4033C50.7689 83.9305 51.0959 85.5531 51.4228 87.128C52.2382 90.9347 53.2518 94.6943 54.459 98.3908C55.7554 102.492 57.3319 106.494 59.1769 110.37C66.2302 124.4 75.7593 127.359 82.5324 127.359C85.7133 127.387 88.8633 126.72 91.7715 125.403C94.6797 124.087 97.2789 122.15 99.3951 119.723C98.2134 118.181 97.1662 116.537 96.2654 114.808C93.2759 109.176 91.3608 102.686 89.7259 95.9092C88.9763 98.6096 87.9752 101.23 86.7364 103.736C84.7745 107.458 83.4199 107.458 82.5324 107.458C80.6172 107.458 78.6087 105.358 76.5534 101.302C75.4943 99.0828 74.5586 96.8043 73.7507 94.4775C73.1902 92.8071 72.6296 91.0891 72.1625 89.4187C71.6954 87.7484 70.8546 84.7895 70.4809 82.9283C69.5 78.3945 68.3322 70.9496 68.2855 70.711C67.8651 68.5634 65.3894 62.0252 57.542 62.6934Z" fill="black"/>
<path d="M139.428 82.7376C144.426 80.7809 146.528 74.5768 144.286 69.5658L144.099 69.0886C143.195 67.0487 142.133 65.0858 140.923 63.2185C140.345 62.242 139.689 61.3161 138.961 60.4505C132.561 52.4329 125.041 51.0012 120.463 51.0012C117.283 50.9764 114.134 51.6446 111.226 52.9613C108.318 54.278 105.719 56.2129 103.601 58.637C104.709 60.0744 105.694 61.6073 106.543 63.2185C109.673 68.9931 111.635 76.9153 113.27 83.6443C114.157 80.59 115.185 76.6766 116.353 74.4813C118.268 70.9021 119.576 70.9021 120.463 70.9021C123.126 70.9021 125.275 74.9109 126.302 77.2493C126.302 77.2493 129.992 86.5078 139.428 82.7376Z" fill="black"/>
<path d="M145.545 62.6934L144.657 62.598H144.424C145.398 64.2599 146.272 65.9811 147.04 67.7521L147.273 68.2294C148.681 71.4394 148.788 75.088 147.572 78.3786C146.355 81.6692 143.914 84.3342 140.78 85.7918C139.09 86.5643 137.261 86.9705 135.409 86.9849C134.144 86.9615 132.888 86.769 131.672 86.4122C130.364 91.4232 128.309 97.5796 126.44 101.302C124.572 105.024 122.376 107.458 120.414 107.458C119.574 107.458 118.219 107.458 116.257 103.736C115.018 101.231 114.017 98.6097 113.268 95.9092C112.66 93.8094 112.1 91.5663 111.539 89.2279C111.306 88.3689 111.119 87.5098 110.932 86.6508C109.157 79.1104 107.148 71.1883 103.692 64.841C103.03 63.6198 102.297 62.4404 101.496 61.3094C100.842 60.3817 100.14 59.4896 99.3944 58.6369C97.2712 56.2067 94.664 54.2682 91.7477 52.9512C88.8314 51.6343 85.6733 50.9694 82.485 51.0011C77.9541 51.0011 70.4336 52.4328 64.0342 60.4504C66.0524 61.3781 67.8061 62.8157 69.13 64.6275C70.4539 66.4394 71.3044 68.5659 71.6014 70.8065C71.9283 73.1927 72.7224 77.8219 73.6567 82.2125C73.7501 82.6897 73.8435 83.167 73.9836 83.6919C74.6843 81.8307 75.385 80.2558 76.1323 78.49L76.6929 77.2492C77.7205 74.9107 79.8692 70.9019 82.485 70.9019C83.4193 70.9019 84.7272 70.9019 86.6423 74.4812C87.9327 77.0404 88.9656 79.7267 89.7252 82.4988C90.3325 84.6464 90.9397 86.9371 91.4536 89.2279C91.6404 89.896 91.7805 90.5642 91.9207 91.2323C93.7891 99.2022 95.751 106.886 99.1142 113.233C99.8104 114.582 100.607 115.874 101.496 117.099C102.151 118.011 102.852 118.887 103.598 119.723C109.157 125.88 115.556 127.359 120.414 127.359C127.187 127.359 136.763 124.4 143.817 110.37C147.413 103.163 150.45 92.5208 151.571 87.128C152.692 81.7352 153.533 76.8674 153.906 73.9085C154.084 72.6104 154.008 71.2893 153.683 70.0213C153.358 68.7534 152.79 67.5637 152.013 66.5211C151.235 65.4784 150.264 64.6033 149.154 63.9464C148.043 63.2894 146.817 62.8636 145.545 62.6934Z" fill="black"/>
</svg>
