<svg width="153" height="40" viewBox="0 0 153 40" fill="none" xmlns="http://www.w3.org/2000/svg">
<g clip-path="url(#clip0_13250_6255)">
<path d="M152.34 20.7801C151.95 21.679 151.471 22.5366 150.91 23.3401C150.383 24.1448 149.77 24.8893 149.08 25.5601C148.443 26.1717 147.603 26.5276 146.72 26.5601C145.967 26.5274 145.227 26.3509 144.54 26.0401C143.802 25.7157 143.007 25.539 142.2 25.5201C141.367 25.5353 140.546 25.7119 139.78 26.0401C139.122 26.3379 138.419 26.5238 137.7 26.5901C137.247 26.5846 136.799 26.4869 136.385 26.303C135.971 26.119 135.598 25.8527 135.29 25.5201C134.569 24.825 133.925 24.0538 133.37 23.2201C132.518 21.988 131.844 20.6413 131.37 19.2201C130.821 17.6788 130.533 16.0563 130.52 14.4201C130.474 12.8135 130.872 11.2252 131.67 9.8301C132.254 8.8261 133.083 7.98661 134.08 7.3901C135.07 6.79944 136.198 6.48196 137.35 6.4701C138.218 6.52221 139.07 6.72173 139.87 7.0601C140.509 7.34118 141.181 7.53945 141.87 7.6501C142.63 7.48649 143.374 7.25214 144.09 6.9501C145.042 6.56383 146.064 6.38321 147.09 6.4201C148.07 6.44855 149.03 6.70134 149.897 7.15901C150.764 7.61668 151.514 8.26705 152.09 9.0601C151.168 9.54211 150.398 10.2721 149.868 11.1678C149.338 12.0636 149.069 13.0895 149.09 14.1301C149.088 14.9293 149.257 15.7196 149.587 16.4477C149.916 17.1757 150.398 17.8245 151 18.3501C151.529 18.8626 152.15 19.2698 152.83 19.5501C152.69 19.9801 152.53 20.3901 152.37 20.7801H152.34ZM147.22 0.670098C147.204 2.03702 146.692 3.35158 145.78 4.3701C145.304 5.00478 144.684 5.51716 143.972 5.86493C143.259 6.21269 142.473 6.38584 141.68 6.3701C141.67 6.20359 141.67 6.0366 141.68 5.8701C141.727 4.47574 142.273 3.14466 143.22 2.1201C143.738 1.54931 144.359 1.08116 145.05 0.740098C145.717 0.384956 146.448 0.167319 147.2 0.100098C147.21 0.276624 147.21 0.453572 147.2 0.630098L147.22 0.670098Z" fill="black"/>
<path d="M114.12 0.100098L114.09 32.2201" stroke="black" stroke-width="3" stroke-miterlimit="10"/>
<path d="M79.9772 33.2012H78.6592V38.4512H79.9772V33.2012Z" fill="black"/>
<path d="M90.6585 34.7051C90.3176 34.5194 89.9353 34.4232 89.547 34.4254C88.6889 34.4254 88.0943 35.0214 88.0943 35.8254C88.0943 36.6059 88.664 37.2269 89.547 37.2269C89.935 37.2283 90.317 37.1327 90.6585 36.9486V38.3574C90.2675 38.4779 89.861 38.5406 89.4518 38.5434C87.9625 38.5434 86.6562 37.5183 86.6562 35.8254C86.6562 34.2585 87.8395 33.1089 89.4518 33.1089C89.8612 33.1099 90.2681 33.1732 90.6585 33.2963V34.7051Z" fill="black"/>
<path d="M76.8328 34.7051C76.4915 34.5193 76.1085 34.4231 75.7199 34.4254C74.8617 34.4254 74.2686 35.0214 74.2686 35.8254C74.2686 36.6059 74.8368 37.2269 75.7199 37.2269C76.1083 37.2277 76.4906 37.1321 76.8328 36.9486V38.3574C76.4413 38.4779 76.0343 38.5406 75.6247 38.5434C74.1354 38.5434 72.8291 37.5183 72.8291 35.8254C72.8291 34.2585 74.0124 33.1089 75.6247 33.1089C76.0346 33.1099 76.442 33.173 76.8328 33.2963V34.7051Z" fill="black"/>
<path d="M94.8259 34.4444C94.6446 34.4428 94.4649 34.4775 94.2974 34.5465C94.1297 34.6155 93.9775 34.7174 93.85 34.8461C93.7224 34.9749 93.6218 35.1277 93.5543 35.296C93.4867 35.4641 93.4536 35.6443 93.4566 35.8254C93.4531 36.0068 93.4861 36.1871 93.5534 36.3555C93.6208 36.5239 93.7213 36.6773 93.849 36.8061C93.9767 36.935 94.129 37.0371 94.2968 37.106C94.4646 37.175 94.6444 37.2096 94.8259 37.2078C95.0073 37.2094 95.1873 37.1747 95.355 37.1056C95.5228 37.0365 95.6751 36.9346 95.8028 36.8057C95.9306 36.677 96.0313 36.5238 96.0989 36.3554C96.1666 36.187 96.1998 36.0068 96.1966 35.8254C96.1995 35.6441 96.1661 35.4641 96.0985 35.2959C96.0308 35.1276 95.9301 34.9747 95.8024 34.846C95.6745 34.7173 95.5224 34.6155 95.3547 34.5465C95.187 34.4775 95.0072 34.4428 94.8259 34.4444ZM97.5995 35.8254C97.5995 37.3279 96.4412 38.5434 94.8259 38.5434C93.2106 38.5434 92.0537 37.3279 92.0537 35.8254C92.0537 34.3229 93.2121 33.1089 94.8259 33.1089C96.4397 33.1089 97.5995 34.3258 97.5995 35.8254Z" fill="black"/>
<path d="M85.001 34.3947C84.6632 34.3018 84.3158 34.2484 83.9657 34.235C83.4356 34.235 83.1471 34.4122 83.1471 34.6641C83.1471 34.9848 83.5366 35.1034 83.7533 35.1649L84.1194 35.2806C84.9791 35.5545 85.3701 36.1432 85.3701 36.7831C85.3701 38.1011 84.2117 38.5405 83.1969 38.5405C82.7171 38.5347 82.2387 38.4857 81.7676 38.394V37.1859C82.1745 37.3037 82.5948 37.3692 83.0182 37.3806C83.6772 37.3806 83.9803 37.1888 83.9803 36.89C83.9803 36.625 83.7182 36.4712 83.3946 36.3672L83.1119 36.2764C82.3797 36.0436 81.7588 35.6101 81.7588 34.7403C81.7588 33.7591 82.491 33.1001 83.7153 33.1001C84.1503 33.1061 84.5832 33.1622 85.0054 33.267L85.001 34.3947Z" fill="black"/>
<path d="M63.5755 38.4336H63V33.1953H63.6985V35.1738C63.8382 34.969 64.028 34.8035 64.2496 34.6928C64.4713 34.5821 64.7176 34.5298 64.9653 34.5411C65.2078 34.5296 65.4494 34.5769 65.6697 34.6789C65.8899 34.7809 66.0823 34.9346 66.2305 35.1269C66.4971 35.4765 66.6303 35.9397 66.6303 36.5166C66.6303 37.2001 66.4487 37.7238 66.0855 38.088C65.9318 38.2401 65.7486 38.3593 65.5471 38.4381C65.3456 38.5169 65.1302 38.5538 64.914 38.5463C64.6737 38.5586 64.4344 38.509 64.219 38.4019C64.0036 38.295 63.8192 38.1344 63.6839 37.9357L63.5755 38.4336ZM65.9025 36.4976C65.9025 36.0221 65.7839 35.6658 65.5466 35.4286C65.45 35.3307 65.3342 35.2542 65.2063 35.2038C65.0785 35.1533 64.9414 35.1301 64.8042 35.1357C64.6431 35.1291 64.4829 35.1604 64.3363 35.2274C64.1898 35.2943 64.0611 35.3949 63.9607 35.5208C63.7529 35.8021 63.6493 36.1469 63.6678 36.4961C63.6678 36.9809 63.7864 37.3528 64.0251 37.6091C64.1229 37.7197 64.244 37.807 64.3798 37.8649C64.5155 37.9229 64.6624 37.9502 64.81 37.9445C64.9711 37.9535 65.1318 37.9215 65.277 37.8513C65.4223 37.781 65.5474 37.675 65.6404 37.5432C65.817 37.2972 65.9054 36.9486 65.9054 36.4976H65.9025Z" fill="black"/>
<path d="M70.3725 34.6494L69.0545 38.4833C68.8788 38.9929 68.7114 39.34 68.5522 39.5245C68.4625 39.6304 68.3501 39.7147 68.2233 39.7713C68.0967 39.8278 67.9587 39.855 67.82 39.8511C67.6677 39.8473 67.5163 39.8256 67.369 39.7866V39.2155C67.488 39.2471 67.6105 39.2643 67.7336 39.2668C67.8 39.27 67.8661 39.2575 67.9268 39.2303C67.9873 39.2031 68.0406 39.1619 68.0822 39.1101C68.2157 38.8982 68.321 38.6697 68.3955 38.4306H68.17L66.7803 34.6465H67.5286L68.5991 37.8682L69.6681 34.6465L70.3725 34.6494Z" fill="black"/>
<path d="M23.7425 8.43652H27.477L22.0473 24.8487H17.7632L13.7051 12.4638L9.64699 24.8487H5.42964L0 8.43652H3.82181L7.67444 20.9088L11.7171 8.43652H15.7752L19.8847 20.9756L23.7425 8.43652Z" fill="black"/>
<path d="M43.4935 17.9599H31.3809C31.4926 18.8062 31.8101 19.6122 32.3055 20.3074C32.7443 20.9157 33.3387 21.3948 34.0263 21.6944C34.7266 21.9969 35.4826 22.1491 36.2454 22.1413C37.091 22.1381 37.9293 21.985 38.7214 21.6893C39.5426 21.389 40.3095 20.957 40.9919 20.4102L42.7744 22.9786C41.8654 23.7712 40.807 24.3737 39.6614 24.7508C38.4849 25.1201 37.2576 25.3021 36.0246 25.2902C34.5058 25.3201 33.0058 24.9517 31.6737 24.2217C30.4136 23.5156 29.3817 22.4641 28.6994 21.191C27.9655 19.7955 27.5979 18.2366 27.631 16.6603C27.5995 15.0988 27.9523 13.5535 28.6583 12.1604C29.3144 10.8933 30.3151 9.83735 31.5452 9.11427C32.8358 8.3715 34.3046 7.99498 35.7934 8.02526C37.1983 7.98638 38.5846 8.35335 39.7863 9.0822C40.988 9.81105 41.9541 10.8709 42.5689 12.1347C43.2476 13.5324 43.5856 15.0709 43.5552 16.6243C43.5603 16.9685 43.5398 17.4154 43.4935 17.9599ZM39.8977 15.2374C39.7873 14.1126 39.3047 13.0568 38.5262 12.2375C38.153 11.8877 37.7133 11.6166 37.2333 11.4401C36.7532 11.2636 36.2426 11.1854 35.7318 11.2101C35.194 11.1855 34.6568 11.2692 34.1521 11.4563C33.6473 11.6434 33.1853 11.93 32.7935 12.2991C32.0177 13.1065 31.5224 14.1421 31.3809 15.2528L39.8977 15.2374Z" fill="black"/>
<path d="M58.817 9.12464C60.0666 9.86376 61.0913 10.9293 61.781 12.2067C62.5185 13.5683 62.8935 15.0967 62.87 16.645C62.8936 18.1917 62.5185 19.7184 61.781 21.0781C61.0911 22.3614 60.0627 23.4312 58.8074 24.1711C57.5522 24.911 56.1183 25.2927 54.6613 25.2749C53.6389 25.2963 52.6251 25.0837 51.6974 24.6533C50.8472 24.2433 50.1034 23.642 49.5245 22.8965V24.8485H45.9287V1.4502H49.5245V10.3883C50.1059 9.64783 50.8492 9.05038 51.6974 8.64177C52.6238 8.20716 53.6383 7.99268 54.6613 8.01508C56.1221 7.99721 57.5596 8.38103 58.817 9.12464ZM56.8548 21.2014C57.6006 20.7428 58.2009 20.0819 58.5859 19.2956C58.981 18.4669 59.1861 17.5605 59.1861 16.6424C59.1861 15.7244 58.981 14.8179 58.5859 13.9892C58.1993 13.204 57.5994 12.5435 56.8548 12.0835C56.0633 11.6307 55.1673 11.3925 54.2555 11.3925C53.3437 11.3925 52.4477 11.6307 51.6563 12.0835C50.9098 12.5368 50.3048 13.1898 49.9098 13.9687C49.4825 14.8007 49.2672 15.7252 49.2831 16.6604C49.2668 17.5939 49.4821 18.517 49.9098 19.347C50.3048 20.1259 50.9098 20.7789 51.6563 21.2322C52.4477 21.6849 53.3437 21.9231 54.2555 21.9231C55.1673 21.9231 56.0633 21.6849 56.8548 21.2322V21.2014Z" fill="black"/>
<path d="M80.6125 17.9599H68.505C68.6168 18.8062 68.9342 19.6122 69.4296 20.3075C69.8685 20.9158 70.4628 21.3948 71.1505 21.6944C71.8508 21.9969 72.6068 22.1491 73.3696 22.1413C74.2151 22.1373 75.0532 21.9843 75.8455 21.6893C76.6668 21.389 77.4336 20.957 78.116 20.4102L79.8934 22.9786C78.987 23.7722 77.9301 24.3749 76.7856 24.7508C75.6072 25.1198 74.3783 25.3018 73.1436 25.2902C71.625 25.3185 70.1254 24.9502 68.7927 24.2217C67.5352 23.5139 66.5054 22.4627 65.8236 21.191C65.0881 19.7959 64.7187 18.2371 64.75 16.6603C64.7187 15.0988 65.0715 13.5536 65.7773 12.1604C66.4334 10.8933 67.4341 9.83736 68.6642 9.11428C69.9623 8.36067 71.4426 7.9786 72.9432 8.00986C74.3478 7.9729 75.7333 8.34066 76.9346 9.0693C78.136 9.79793 79.1024 10.8567 79.7187 12.1193C80.3974 13.517 80.7354 15.0555 80.705 16.6089C80.6844 16.9685 80.6485 17.4154 80.6125 17.9599ZM77.0167 15.2374C76.8982 14.1198 76.4143 13.0726 75.6401 12.258C75.2694 11.9063 74.8321 11.6324 74.354 11.4525C73.8758 11.2725 73.3664 11.1901 72.8559 11.2101C72.3181 11.1849 71.7807 11.2684 71.2759 11.4555C70.771 11.6426 70.3091 11.9295 69.9176 12.2991C69.14 13.1052 68.6444 14.1415 68.505 15.2528L77.0167 15.2374Z" fill="black"/>
<path d="M97.6926 24.8487H93.2904L89.1295 19.1417L85.02 24.8487H80.8232L86.9875 16.4705L80.9208 8.43652H85.3283L89.335 13.9175L93.3417 8.43652H97.6002L91.5079 16.4397L97.6926 24.8487Z" fill="black"/>
</g>
<defs>
<clipPath id="clip0_13250_6255">
<rect width="152.8" height="39.8" fill="white" transform="translate(0 0.100098)"/>
</clipPath>
</defs>
</svg>
