<svg width="238" height="78" viewBox="0 0 238 78" fill="none" xmlns="http://www.w3.org/2000/svg">
<g clip-path="url(#clip0_13250_6182)">
<path d="M5.82094 13.7003C2.97375 13.9157 0.627453 16.9327 1.04926 20.0304C1.18107 21.1618 1.47107 22.9126 1.84015 24.8252C1.99832 25.6871 2.18286 26.603 2.3674 27.4919C2.82761 29.6406 3.39962 31.7626 4.08099 33.849C4.81266 36.1636 5.70239 38.4228 6.74364 40.6101C10.7244 48.5296 16.1025 50.1996 19.9251 50.1996C21.7203 50.2154 23.4982 49.8391 25.1395 49.0958C26.7808 48.3525 28.2478 47.2594 29.4421 45.8898C28.7752 45.0194 28.1842 44.091 27.6758 43.1153C25.9886 39.9367 24.9077 36.2733 23.985 32.4483C23.5619 33.9725 22.9969 35.4518 22.2978 36.8659C21.1905 38.967 20.426 38.967 19.9251 38.967C18.8442 38.967 17.7106 37.7818 16.5506 35.4921C15.9529 34.2396 15.4248 32.9535 14.9689 31.6402C14.6525 30.6974 14.3362 29.7277 14.0725 28.7849C13.8089 27.8421 13.3344 26.172 13.1235 25.1215C12.5698 22.5625 11.9108 18.3603 11.8844 18.2256C11.6471 17.0135 10.2499 13.3231 5.82094 13.7003Z" fill="white"/>
<path d="M52.0358 25.014C54.8566 23.9095 56.0429 20.4078 54.7775 17.5794L54.6721 17.31C54.1617 16.1586 53.5622 15.0507 52.8794 13.9968C52.5533 13.4456 52.1829 12.923 51.7721 12.4345C48.1604 7.90907 43.916 7.10096 41.3324 7.10096C39.5374 7.08693 37.7601 7.46408 36.1191 8.20727C34.478 8.95045 33.0108 10.0426 31.8154 11.4109C32.4412 12.2221 32.9969 13.0874 33.4763 13.9968C35.2426 17.2561 36.3498 21.7277 37.2726 25.5258C37.7734 23.8018 38.3534 21.593 39.0125 20.3539C40.0934 18.3336 40.8315 18.3336 41.3324 18.3336C42.8351 18.3336 44.0478 20.5963 44.6278 21.9162C44.6278 21.9162 46.7105 27.142 52.0358 25.014Z" fill="white"/>
<path d="M55.4886 13.7002L54.9877 13.6464H54.8559C55.4057 14.5844 55.8987 15.5559 56.3322 16.5555L56.464 16.8249C57.2585 18.6367 57.3191 20.6961 56.6325 22.5534C55.9459 24.4107 54.568 25.915 52.7996 26.7377C51.8454 27.1737 50.8131 27.403 49.7679 27.4111C49.054 27.3979 48.345 27.2892 47.6588 27.0878C46.9207 29.9162 45.7607 33.3911 44.7062 35.4921C43.6517 37.5932 42.4126 38.967 41.3054 38.967C40.8308 38.967 40.0663 38.967 38.9591 36.8659C38.2599 35.4518 37.6949 33.9725 37.2718 32.4483C36.9291 31.263 36.6128 29.997 36.2964 28.6771C36.1646 28.1922 36.0592 27.7074 35.9537 27.2225C34.9519 22.9665 33.8183 18.495 31.8674 14.9124C31.494 14.2231 31.0803 13.5574 30.6284 12.9191C30.259 12.3954 29.863 11.8919 29.4421 11.4106C28.2437 10.0389 26.7723 8.94475 25.1264 8.20143C23.4805 7.45812 21.6981 7.08283 19.8987 7.10071C17.3415 7.10071 13.0971 7.90881 9.48535 12.4342C10.6244 12.9578 11.6142 13.7692 12.3614 14.7919C13.1086 15.8146 13.5886 17.0148 13.7561 18.2795C13.9407 19.6263 14.3888 22.2392 14.9161 24.7174C14.9688 24.9868 15.0216 25.2561 15.1006 25.5524C15.4961 24.5019 15.8915 23.613 16.3133 22.6163L16.6297 21.916C17.2097 20.5961 18.4224 18.3334 19.8987 18.3334C20.426 18.3334 21.1641 18.3334 22.245 20.3536C22.9732 21.7981 23.5562 23.3143 23.9849 24.879C24.3277 26.0912 24.6704 27.3841 24.9604 28.6771C25.0658 29.0542 25.1449 29.4313 25.224 29.8085C26.2785 34.3069 27.3858 38.6437 29.2839 42.2263C29.6768 42.9877 30.1263 43.7171 30.6284 44.4082C30.9977 44.9233 31.3937 45.4179 31.8147 45.8897C34.9519 49.3646 38.5636 50.1996 41.3054 50.1996C45.128 50.1996 50.5324 48.5296 54.5132 40.6101C56.5431 36.5427 58.2567 30.5357 58.8894 27.4919C59.5221 24.448 59.9967 21.7005 60.2076 20.0304C60.3077 19.2977 60.2648 18.552 60.0814 17.8363C59.8979 17.1207 59.5776 16.4492 59.1389 15.8607C58.7002 15.2722 58.1517 14.7782 57.5252 14.4074C56.8987 14.0366 56.2065 13.7963 55.4886 13.7002Z" fill="white"/>
<path d="M200.374 57.1284H197.575V68.2522H200.374V57.1284Z" fill="white"/>
<path d="M223.061 60.3152C222.335 59.9227 221.522 59.7189 220.697 59.7226C218.875 59.7226 217.612 60.9854 217.612 62.6889C217.612 64.3427 218.822 65.6583 220.697 65.6583C221.522 65.6602 222.334 65.4576 223.061 65.0688V68.0538C222.229 68.3088 221.365 68.4416 220.495 68.4478C217.332 68.4478 214.558 66.2758 214.558 62.6889C214.558 59.3689 217.071 56.9331 220.495 56.9331C221.366 56.9353 222.231 57.069 223.061 57.3303V60.3152Z" fill="white"/>
<path d="M193.695 60.3152C192.969 59.9215 192.156 59.7176 191.331 59.7226C189.508 59.7226 188.249 60.9854 188.249 62.6889C188.249 64.3427 189.455 65.6583 191.331 65.6583C192.155 65.6602 192.968 65.4576 193.695 65.0688V68.0538C192.863 68.3091 191.999 68.4419 191.129 68.4478C187.966 68.4478 185.194 66.2758 185.194 62.6889C185.194 59.3689 187.704 56.9331 191.129 56.9331C191.999 56.9353 192.864 57.069 193.695 57.3303V60.3152Z" fill="white"/>
<path d="M231.91 59.7629C231.525 59.7595 231.143 59.833 230.788 59.9792C230.432 60.1253 230.108 60.3413 229.837 60.614C229.567 60.8868 229.353 61.2107 229.21 61.5672C229.066 61.9234 228.996 62.3051 229.002 62.6889C228.995 63.073 229.065 63.455 229.209 63.8115C229.352 64.1684 229.565 64.4929 229.836 64.766C230.107 65.039 230.431 65.255 230.787 65.4014C231.143 65.5479 231.525 65.6214 231.91 65.618C232.296 65.6214 232.678 65.5479 233.034 65.4014C233.39 65.255 233.714 65.039 233.985 64.766C234.256 64.4932 234.47 64.1687 234.614 63.8118C234.758 63.455 234.828 63.0734 234.821 62.6889C234.828 62.3048 234.757 61.9234 234.613 61.5669C234.469 61.2104 234.255 60.8865 233.984 60.6137C233.713 60.341 233.389 60.1253 233.033 59.9792C232.677 59.833 232.295 59.7595 231.91 59.7629ZM237.801 62.6889C237.801 65.8724 235.341 68.4478 231.91 68.4478C228.48 68.4478 226.022 65.8724 226.022 62.6889C226.022 59.5054 228.483 56.9331 231.91 56.9331C235.338 56.9331 237.801 59.5116 237.801 62.6889Z" fill="white"/>
<path d="M211.044 59.6573C210.324 59.4612 209.584 59.3489 208.838 59.3222C207.713 59.3222 207.1 59.6976 207.1 60.2313C207.1 60.9109 207.927 61.1622 208.388 61.2925L209.165 61.5376C210.991 62.1179 211.824 63.3652 211.824 64.7212C211.824 67.5137 209.361 68.4446 207.206 68.4446C206.186 68.4325 205.17 68.3286 204.17 68.1343V65.5745C205.034 65.8242 205.927 65.9629 206.826 65.9871C208.229 65.9871 208.87 65.5807 208.87 64.9477C208.87 64.3861 208.313 64.0603 207.625 63.84L207.025 63.6476C205.47 63.1542 204.151 62.2358 204.151 60.3927C204.151 58.3138 205.706 56.9175 208.307 56.9175C209.231 56.9302 210.15 57.0487 211.047 57.2712L211.044 59.6573Z" fill="white"/>
<path d="M165.544 68.2151H164.321V57.1162H165.805V61.3082C166.102 60.8744 166.505 60.5238 166.976 60.2892C167.446 60.0546 167.97 59.9438 168.495 59.9677C169.01 59.9432 169.523 60.0434 169.992 60.2597C170.459 60.4757 170.868 60.8015 171.182 61.2089C171.749 61.9495 172.032 62.931 172.032 64.1535C172.032 65.6016 171.646 66.7112 170.875 67.4829C170.548 67.8056 170.159 68.0584 169.731 68.2254C169.303 68.3923 168.846 68.4702 168.386 68.4541C167.876 68.4801 167.368 68.3749 166.91 68.1481C166.453 67.9216 166.061 67.5812 165.774 67.1602L165.544 68.2151ZM170.489 64.1132C170.489 63.1057 170.236 62.3507 169.73 61.8481C169.525 61.6408 169.279 61.4785 169.007 61.3718C168.736 61.2647 168.445 61.2157 168.153 61.2275C167.812 61.2151 167.472 61.2821 167.161 61.4239C166.85 61.5657 166.576 61.7776 166.362 62.0436C165.921 62.6396 165.701 63.37 165.74 64.1101C165.74 65.1371 165.995 65.9252 166.498 66.4682C166.707 66.7019 166.964 66.8868 167.252 67.0097C167.54 67.1325 167.852 67.1903 168.166 67.1788C168.508 67.198 168.849 67.1301 169.158 66.9814C169.466 66.8325 169.732 66.6079 169.929 66.3286C170.343 65.6664 170.539 64.8917 170.489 64.1132Z" fill="white"/>
<path d="M179.974 60.1971L177.175 68.3204C176.805 69.4002 176.447 70.1356 176.108 70.5265C175.917 70.7509 175.679 70.9296 175.41 71.0494C175.141 71.1691 174.848 71.2269 174.553 71.2185C174.23 71.2101 173.908 71.1645 173.595 71.082V69.8718C173.848 69.9389 174.108 69.9752 174.369 69.9804C174.51 69.9873 174.651 69.9609 174.78 69.9032C174.908 69.8455 175.021 69.7583 175.11 69.6484C175.395 69.2001 175.619 68.716 175.775 68.2087H175.296L172.345 60.1909H173.953L176.223 67.0172L178.494 60.1909L179.974 60.1971Z" fill="white"/>
<path d="M113.895 15.9556H120.17L111.047 43.5335H103.848L97.0291 22.7227L90.2101 43.5335H83.1236L74 15.9556H80.4219L86.8956 36.913L93.6886 15.9556H100.508L107.413 37.0252L113.895 15.9556Z" fill="white"/>
<path d="M147.084 31.9589H126.73C126.918 33.381 127.452 34.7354 128.284 35.9035C129.021 36.9257 130.02 37.7306 131.176 38.2341C132.352 38.7424 133.623 38.9982 134.904 38.985C136.325 38.9796 137.734 38.7225 139.065 38.2254C140.445 37.7209 141.733 36.9949 142.88 36.0762L145.875 40.392C144.348 41.7237 142.569 42.7362 140.644 43.3699C138.667 43.9904 136.605 44.2963 134.533 44.2762C131.981 44.3265 129.461 43.7075 127.222 42.4808C125.105 41.2943 123.371 39.5274 122.225 37.3882C120.991 35.0434 120.374 32.4239 120.429 29.7751C120.376 27.1513 120.969 24.5547 122.156 22.2139C123.258 20.0847 124.94 18.3104 127.006 17.0953C129.175 15.8472 131.643 15.2146 134.145 15.2654C136.506 15.2001 138.835 15.8167 140.854 17.0414C142.873 18.2662 144.497 20.047 145.53 22.1707C146.67 24.5192 147.238 27.1045 147.187 29.7147C147.196 30.293 147.161 31.044 147.084 31.9589ZM141.041 27.3842C140.856 25.4942 140.045 23.7201 138.737 22.3433C138.11 21.7556 137.371 21.3 136.564 21.0034C135.758 20.7069 134.9 20.5755 134.041 20.617C133.138 20.5757 132.235 20.7163 131.387 21.0307C130.539 21.345 129.762 21.8267 129.104 22.4469C127.8 23.8035 126.968 25.5437 126.73 27.4101L141.041 27.3842Z" fill="white"/>
<path d="M172.831 17.1124C174.931 18.3543 176.653 20.1447 177.812 22.2913C179.051 24.5792 179.681 27.1473 179.642 29.749C179.681 32.3479 179.051 34.9133 177.812 37.1981C176.653 39.3545 174.924 41.152 172.815 42.3953C170.706 43.6386 168.297 44.2801 165.848 44.2501C164.13 44.2861 162.427 43.9288 160.868 43.2056C159.439 42.5167 158.19 41.5063 157.217 40.2536V43.5336H151.175V4.2168H157.217V19.2357C158.194 17.9915 159.443 16.9876 160.868 16.301C162.425 15.5707 164.129 15.2103 165.848 15.248C168.303 15.2179 170.719 15.8629 172.831 17.1124ZM169.534 37.4052C170.787 36.6347 171.796 35.5242 172.443 34.2029C173.107 32.8105 173.452 31.2873 173.452 29.7447C173.452 28.2021 173.107 26.6789 172.443 25.2865C171.793 23.967 170.785 22.8572 169.534 22.0842C168.204 21.3234 166.699 20.9231 165.167 20.9231C163.634 20.9231 162.129 21.3234 160.799 22.0842C159.545 22.8459 158.528 23.9431 157.864 25.252C157.146 26.6499 156.785 28.2036 156.811 29.7749C156.784 31.3436 157.146 32.8946 157.864 34.2892C158.528 35.5981 159.545 36.6953 160.799 37.457C162.129 38.2178 163.634 38.618 165.167 38.618C166.699 38.618 168.204 38.2178 169.534 37.457V37.4052Z" fill="white"/>
<path d="M209.455 31.9585H189.111C189.299 33.3806 189.832 34.7349 190.664 35.9031C191.402 36.9253 192.401 37.7302 193.556 38.2337C194.733 38.7419 196.003 38.9977 197.285 38.9846C198.706 38.9779 200.114 38.7208 201.445 38.225C202.825 37.7204 204.114 36.9945 205.26 36.0758L208.247 40.3915C206.724 41.725 204.948 42.7378 203.025 43.3694C201.045 43.9895 198.98 44.2953 196.905 44.2758C194.353 44.3233 191.834 43.7044 189.594 42.4804C187.481 41.2911 185.751 39.5246 184.605 37.3878C183.369 35.0436 182.748 32.4242 182.801 29.7747C182.749 27.1509 183.341 24.5544 184.527 22.2134C185.63 20.0843 187.311 18.3099 189.378 17.0949C191.559 15.8286 194.047 15.1866 196.568 15.2391C198.929 15.177 201.257 15.795 203.275 17.0193C205.294 18.2437 206.918 20.0227 207.953 22.1444C209.094 24.4929 209.662 27.0781 209.611 29.6884C209.576 30.2926 209.516 31.0435 209.455 31.9585ZM203.413 27.3838C203.214 25.5059 202.401 23.7462 201.1 22.3774C200.477 21.7865 199.742 21.3263 198.939 21.0238C198.135 20.7214 197.28 20.5829 196.422 20.6166C195.518 20.5742 194.615 20.7145 193.767 21.0289C192.918 21.3433 192.142 21.8254 191.484 22.4465C190.178 23.801 189.345 25.5422 189.111 27.4097L203.413 27.3838Z" fill="white"/>
<path d="M238.156 43.5335H230.758L223.767 33.9438L216.862 43.5335H209.81L220.167 29.4554L209.974 15.9556H217.379L224.112 25.1655L230.845 15.9556H238L227.763 29.4036L238.156 43.5335Z" fill="white"/>
</g>
<defs>
<clipPath id="clip0_13250_6182">
<rect width="238" height="77" fill="white" transform="translate(0 0.100098)"/>
</clipPath>
</defs>
</svg>
