<svg width="240" height="240" viewBox="0 0 240 240" fill="none" xmlns="http://www.w3.org/2000/svg">
<path fill-rule="evenodd" clip-rule="evenodd" d="M177 78.2542C188.476 78.2542 197.779 68.954 197.779 57.4816C197.779 46.0092 188.476 36.709 177 36.709C165.525 36.709 156.222 46.0092 156.222 57.4816C156.222 68.954 165.525 78.2542 177 78.2542ZM106.443 36.7097C117.918 36.7097 127.221 46.0099 127.221 57.4823C127.221 68.9547 117.919 78.2549 106.443 78.2549C94.967 78.2549 85.6641 68.9547 85.6641 57.4823C85.6641 46.0099 94.967 36.7097 106.443 36.7097ZM35.8851 36.7116C47.3609 36.7116 56.6638 46.0118 56.6638 57.4842C56.6638 68.9566 47.3609 78.2568 35.8851 78.2568C24.4094 78.2568 15.1064 68.9566 15.1064 57.4842C15.1064 46.0118 24.4094 36.7116 35.8851 36.7116ZM211.074 141.178C212.281 145.062 213.57 149.21 214.993 153.632C217.911 163.72 220.303 168.204 222.016 171.414C223.934 175.009 225 177.009 225 183.492C225 194.769 217.323 203.907 204.785 203.907C187.988 203.907 179.839 181.097 174.419 165.925C172.849 161.532 171.191 157.17 169.534 152.807C168.807 150.895 168.081 148.983 167.362 147.069C166.764 145.44 164.955 144.602 163.319 145.197C161.684 145.792 160.843 147.595 161.44 149.224L170.204 173.118C169.264 175.11 168.223 177.239 167.131 179.412C161.259 191.082 154.01 203.907 139.32 203.907C117.275 203.907 109.559 184.339 104.12 170.545C103.708 169.501 103.309 168.489 102.918 167.522L95.1637 146.832C94.5663 145.203 92.7565 144.365 91.1214 144.96C89.4862 145.555 88.6449 147.358 89.2423 148.987L99.5185 177.274C99.0786 178.326 98.598 179.431 97.963 180.706C91.6577 193.373 82.7025 203.912 66.8815 203.912C44.18 203.912 36.3146 179.576 28.6609 155.894C28.4086 155.113 28.1565 154.334 27.9042 153.555C21.2029 132.185 20.458 130.625 18.5471 126.622L18.5466 126.621C18.2768 126.056 17.9837 125.442 17.6473 124.716C15.9626 121.749 15 118.32 15 114.672C15 103.395 24.174 94.2568 35.4898 94.2568C41.617 94.2568 46.2954 96.3952 50.0931 100.178C57.2753 107.332 60.4241 117.571 64.9262 132.21C65.9182 135.436 66.9759 138.875 68.157 142.542L70.6463 150.376C71.1525 152.035 72.9131 152.971 74.5787 152.467C76.2443 151.963 77.1842 150.209 76.678 148.55L71.4708 131.482C73.6757 124.094 75.6778 117.759 78.9145 110.549C83.9443 99.7609 93.2049 94.2568 105.738 94.2568C124.858 94.2568 133.341 121.039 137.613 134.528C138.777 138.203 139.973 141.869 141.169 145.534C141.668 147.066 142.168 148.598 142.666 150.131C143.172 151.79 144.932 152.726 146.598 152.222C148.264 151.718 149.204 149.964 148.697 148.305L141.892 125.998C145.489 117.123 148.771 111.413 151.06 107.82C151.068 107.807 151.087 107.773 151.117 107.72C151.824 106.447 158.584 94.2856 176.449 94.2856C182.774 94.2856 189.989 98.965 194.008 102.968C201.532 110.463 205.391 122.884 211.074 141.178Z" fill="white"/>
</svg>
