<svg width="287" height="40" viewBox="0 0 287 40" fill="none" xmlns="http://www.w3.org/2000/svg">
<g clip-path="url(#clip0_24153_662)">
<path d="M149.444 25H146.909V15.0312C146.909 14.2148 146.959 13.2158 147.06 12.0342H147.017C146.859 12.7074 146.719 13.1908 146.598 13.4844L142 25H140.238L135.63 13.5703C135.501 13.2337 135.365 12.7217 135.222 12.0342H135.179C135.236 12.6501 135.265 13.6562 135.265 15.0527V25H132.901V9.5957H136.5L140.55 19.8545C140.858 20.6423 141.058 21.2295 141.151 21.6162H141.205C141.47 20.807 141.685 20.2054 141.85 19.8115L145.975 9.5957H149.444V25Z" fill="black"/>
<path d="M153.725 11.6904C153.316 11.6904 152.965 11.5579 152.672 11.293C152.385 11.028 152.242 10.6914 152.242 10.2832C152.242 9.875 152.385 9.53483 152.672 9.2627C152.965 8.99056 153.316 8.85449 153.725 8.85449C154.147 8.85449 154.505 8.99056 154.799 9.2627C155.092 9.53483 155.239 9.875 155.239 10.2832C155.239 10.6699 155.092 11.0029 154.799 11.2822C154.505 11.5544 154.147 11.6904 153.725 11.6904ZM154.96 25H152.468V14H154.96V25Z" fill="black"/>
<path d="M165.6 24.4951C164.719 25.0036 163.677 25.2578 162.474 25.2578C160.841 25.2578 159.523 24.7493 158.521 23.7324C157.518 22.7083 157.017 21.3835 157.017 19.7578C157.017 17.946 157.554 16.4922 158.628 15.3965C159.709 14.2936 161.152 13.7422 162.957 13.7422C163.96 13.7422 164.844 13.9176 165.61 14.2686V16.5889C164.844 16.016 164.028 15.7295 163.161 15.7295C162.108 15.7295 161.245 16.0876 160.572 16.8037C159.899 17.5127 159.562 18.4437 159.562 19.5967C159.562 20.7354 159.878 21.6341 160.508 22.293C161.145 22.9518 161.997 23.2812 163.064 23.2812C163.96 23.2812 164.805 22.9626 165.6 22.3252V24.4951Z" fill="black"/>
<path d="M173.962 16.374C173.661 16.1377 173.228 16.0195 172.662 16.0195C171.924 16.0195 171.309 16.3525 170.814 17.0186C170.32 17.6846 170.073 18.5905 170.073 19.7363V25H167.581V14H170.073V16.2666H170.116C170.36 15.4932 170.732 14.8916 171.233 14.4619C171.742 14.0251 172.308 13.8066 172.931 13.8066C173.382 13.8066 173.726 13.8747 173.962 14.0107V16.374Z" fill="black"/>
<path d="M179.907 25.2578C178.21 25.2578 176.853 24.7458 175.836 23.7217C174.826 22.6904 174.321 21.3262 174.321 19.6289C174.321 17.7812 174.848 16.3382 175.9 15.2998C176.96 14.2614 178.385 13.7422 180.176 13.7422C181.895 13.7422 183.234 14.2471 184.193 15.2568C185.153 16.2666 185.633 17.6667 185.633 19.457C185.633 21.2116 185.114 22.6188 184.075 23.6787C183.044 24.7314 181.655 25.2578 179.907 25.2578ZM180.025 15.7295C179.051 15.7295 178.282 16.0697 177.716 16.75C177.15 17.4303 176.867 18.3685 176.867 19.5645C176.867 20.7174 177.154 21.627 177.727 22.293C178.299 22.9518 179.066 23.2812 180.025 23.2812C181.007 23.2812 181.758 22.9554 182.281 22.3037C182.811 21.652 183.076 20.7246 183.076 19.5215C183.076 18.3112 182.811 17.3766 182.281 16.7178C181.758 16.0589 181.007 15.7295 180.025 15.7295Z" fill="black"/>
<path d="M186.991 24.6562V22.3467C187.922 23.0557 188.95 23.4102 190.074 23.4102C191.578 23.4102 192.33 22.9661 192.33 22.0781C192.33 21.8275 192.266 21.6162 192.137 21.4443C192.008 21.2653 191.832 21.1077 191.61 20.9717C191.396 20.8356 191.138 20.7139 190.837 20.6064C190.543 20.499 190.214 20.3773 189.849 20.2412C189.397 20.0622 188.989 19.8724 188.624 19.6719C188.266 19.4714 187.965 19.2458 187.722 18.9951C187.485 18.7373 187.306 18.4473 187.185 18.125C187.063 17.8027 187.002 17.4268 187.002 16.9971C187.002 16.4671 187.127 16.0016 187.378 15.6006C187.629 15.1924 187.965 14.8522 188.388 14.5801C188.81 14.3008 189.29 14.0931 189.827 13.957C190.364 13.8138 190.919 13.7422 191.492 13.7422C192.509 13.7422 193.419 13.8962 194.221 14.2041V16.3848C193.447 15.8548 192.559 15.5898 191.557 15.5898C191.242 15.5898 190.955 15.6221 190.697 15.6865C190.447 15.751 190.232 15.8405 190.053 15.9551C189.874 16.0697 189.734 16.2093 189.634 16.374C189.534 16.5316 189.483 16.707 189.483 16.9004C189.483 17.1367 189.534 17.3372 189.634 17.502C189.734 17.6667 189.881 17.8135 190.074 17.9424C190.275 18.0641 190.511 18.1787 190.783 18.2861C191.062 18.3864 191.381 18.4974 191.739 18.6191C192.212 18.8125 192.634 19.0094 193.007 19.21C193.386 19.4105 193.709 19.6396 193.974 19.8975C194.239 20.1481 194.443 20.4417 194.586 20.7783C194.729 21.1077 194.801 21.5016 194.801 21.96C194.801 22.5186 194.672 23.0055 194.414 23.4209C194.156 23.8363 193.812 24.18 193.383 24.4521C192.953 24.7243 192.455 24.9248 191.89 25.0537C191.331 25.1898 190.74 25.2578 190.117 25.2578C188.914 25.2578 187.872 25.0573 186.991 24.6562Z" fill="black"/>
<path d="M201.552 25.2578C199.854 25.2578 198.497 24.7458 197.48 23.7217C196.471 22.6904 195.966 21.3262 195.966 19.6289C195.966 17.7812 196.492 16.3382 197.545 15.2998C198.605 14.2614 200.03 13.7422 201.82 13.7422C203.539 13.7422 204.878 14.2471 205.838 15.2568C206.798 16.2666 207.277 17.6667 207.277 19.457C207.277 21.2116 206.758 22.6188 205.72 23.6787C204.688 24.7314 203.299 25.2578 201.552 25.2578ZM201.67 15.7295C200.696 15.7295 199.926 16.0697 199.36 16.75C198.795 17.4303 198.512 18.3685 198.512 19.5645C198.512 20.7174 198.798 21.627 199.371 22.293C199.944 22.9518 200.71 23.2812 201.67 23.2812C202.651 23.2812 203.403 22.9554 203.926 22.3037C204.456 21.652 204.721 20.7246 204.721 19.5215C204.721 18.3112 204.456 17.3766 203.926 16.7178C203.403 16.0589 202.651 15.7295 201.67 15.7295Z" fill="black"/>
<path d="M215.543 10.7451C215.206 10.5518 214.823 10.4551 214.394 10.4551C213.183 10.4551 212.578 11.139 212.578 12.5068V14H215.135V15.9551H212.589V25H210.097V15.9551H208.217V14H210.097V12.2168C210.097 11.0566 210.476 10.1436 211.235 9.47754C211.994 8.80436 212.943 8.46777 214.082 8.46777C214.698 8.46777 215.185 8.53581 215.543 8.67188V10.7451Z" fill="black"/>
<path d="M221.708 24.8818C221.221 25.1253 220.58 25.2471 219.785 25.2471C217.651 25.2471 216.584 24.223 216.584 22.1748V15.9551H214.747V14H216.584V11.4541L219.076 10.7451V14H221.708V15.9551H219.076V21.4551C219.076 22.1068 219.194 22.5723 219.431 22.8516C219.667 23.1309 220.061 23.2705 220.612 23.2705C221.035 23.2705 221.4 23.1488 221.708 22.9053V24.8818Z" fill="black"/>
<path d="M239.077 11.7656H234.651V25H232.095V11.7656H227.68V9.5957H239.077V11.7656Z" fill="black"/>
<path d="M247.719 20.1768H240.221C240.249 21.1937 240.561 21.9779 241.155 22.5293C241.757 23.0807 242.58 23.3564 243.626 23.3564C244.8 23.3564 245.878 23.0055 246.859 22.3037V24.3125C245.857 24.9427 244.532 25.2578 242.885 25.2578C241.266 25.2578 239.995 24.7601 239.071 23.7646C238.155 22.762 237.696 21.3548 237.696 19.543C237.696 17.8314 238.201 16.4385 239.211 15.3643C240.228 14.2829 241.488 13.7422 242.992 13.7422C244.496 13.7422 245.66 14.2256 246.483 15.1924C247.307 16.1592 247.719 17.502 247.719 19.2207V20.1768ZM245.312 18.415C245.305 17.5199 245.094 16.8252 244.679 16.3311C244.263 15.8298 243.69 15.5791 242.96 15.5791C242.244 15.5791 241.635 15.8405 241.134 16.3633C240.64 16.8861 240.335 17.57 240.221 18.415H245.312Z" fill="black"/>
<path d="M258.036 25H255.619V23.2812H255.576C254.817 24.599 253.703 25.2578 252.235 25.2578C251.154 25.2578 250.305 24.9642 249.689 24.377C249.081 23.7897 248.776 23.0127 248.776 22.0459C248.776 19.9691 249.972 18.7588 252.364 18.415L255.63 17.9531C255.63 16.3848 254.885 15.6006 253.396 15.6006C252.085 15.6006 250.903 16.0518 249.851 16.9541V14.7734C251.011 14.0859 252.35 13.7422 253.868 13.7422C256.647 13.7422 258.036 15.11 258.036 17.8457V25ZM255.63 19.5967L253.32 19.9189C252.604 20.012 252.063 20.1875 251.698 20.4453C251.34 20.696 251.161 21.14 251.161 21.7773C251.161 22.2428 251.326 22.626 251.655 22.9268C251.992 23.2204 252.439 23.3672 252.998 23.3672C253.757 23.3672 254.384 23.1022 254.878 22.5723C255.379 22.0352 255.63 21.362 255.63 20.5527V19.5967Z" fill="black"/>
<path d="M277.033 25H274.541V19.0059C274.541 17.8529 274.376 17.0186 274.047 16.5029C273.725 15.9873 273.177 15.7295 272.403 15.7295C271.752 15.7295 271.197 16.0553 270.738 16.707C270.287 17.3587 270.062 18.1393 270.062 19.0488V25H267.559V18.8018C267.559 16.7536 266.835 15.7295 265.389 15.7295C264.715 15.7295 264.16 16.0374 263.724 16.6533C263.294 17.2692 263.079 18.0677 263.079 19.0488V25H260.587V14H263.079V15.7402H263.122C263.917 14.4082 265.074 13.7422 266.592 13.7422C267.351 13.7422 268.013 13.9535 268.579 14.376C269.152 14.7913 269.542 15.3392 269.75 16.0195C270.566 14.5013 271.784 13.7422 273.402 13.7422C275.823 13.7422 277.033 15.2354 277.033 18.2217V25Z" fill="black"/>
<path d="M278.886 24.6562V22.3467C279.817 23.0557 280.844 23.4102 281.969 23.4102C283.473 23.4102 284.225 22.9661 284.225 22.0781C284.225 21.8275 284.16 21.6162 284.031 21.4443C283.902 21.2653 283.727 21.1077 283.505 20.9717C283.29 20.8356 283.032 20.7139 282.731 20.6064C282.438 20.499 282.108 20.3773 281.743 20.2412C281.292 20.0622 280.884 19.8724 280.519 19.6719C280.16 19.4714 279.86 19.2458 279.616 18.9951C279.38 18.7373 279.201 18.4473 279.079 18.125C278.957 17.8027 278.896 17.4268 278.896 16.9971C278.896 16.4671 279.022 16.0016 279.272 15.6006C279.523 15.1924 279.86 14.8522 280.282 14.5801C280.705 14.3008 281.185 14.0931 281.722 13.957C282.259 13.8138 282.814 13.7422 283.387 13.7422C284.404 13.7422 285.313 13.8962 286.115 14.2041V16.3848C285.342 15.8548 284.454 15.5898 283.451 15.5898C283.136 15.5898 282.85 15.6221 282.592 15.6865C282.341 15.751 282.126 15.8405 281.947 15.9551C281.768 16.0697 281.629 16.2093 281.528 16.374C281.428 16.5316 281.378 16.707 281.378 16.9004C281.378 17.1367 281.428 17.3372 281.528 17.502C281.629 17.6667 281.775 17.8135 281.969 17.9424C282.169 18.0641 282.406 18.1787 282.678 18.2861C282.957 18.3864 283.276 18.4974 283.634 18.6191C284.106 18.8125 284.529 19.0094 284.901 19.21C285.281 19.4105 285.603 19.6396 285.868 19.8975C286.133 20.1481 286.337 20.4417 286.48 20.7783C286.624 21.1077 286.695 21.5016 286.695 21.96C286.695 22.5186 286.566 23.0055 286.309 23.4209C286.051 23.8363 285.707 24.18 285.277 24.4521C284.848 24.7243 284.35 24.9248 283.784 25.0537C283.226 25.1898 282.635 25.2578 282.012 25.2578C280.809 25.2578 279.767 25.0573 278.886 24.6562Z" fill="black"/>
<path d="M114.12 0L114.09 32.12" stroke="black" stroke-width="3" stroke-miterlimit="10"/>
<path d="M79.9772 32.9004H78.6592V38.1504H79.9772V32.9004Z" fill="black"/>
<path d="M90.6585 34.4048C90.3176 34.2191 89.9353 34.1229 89.547 34.1251C88.6889 34.1251 88.0943 34.7211 88.0943 35.5251C88.0943 36.3057 88.664 36.9266 89.547 36.9266C89.935 36.928 90.317 36.8324 90.6585 36.6483V38.0571C90.2675 38.1776 89.861 38.2403 89.4518 38.2431C87.9625 38.2431 86.6562 37.218 86.6562 35.5251C86.6562 33.9582 87.8395 32.8086 89.4518 32.8086C89.8612 32.8096 90.2681 32.8729 90.6585 32.996V34.4048Z" fill="black"/>
<path d="M76.8328 34.4048C76.4915 34.219 76.1085 34.1228 75.7199 34.1251C74.8617 34.1251 74.2686 34.7211 74.2686 35.5251C74.2686 36.3057 74.8368 36.9266 75.7199 36.9266C76.1083 36.9274 76.4906 36.8318 76.8328 36.6483V38.0571C76.4413 38.1776 76.0343 38.2403 75.6247 38.2431C74.1354 38.2431 72.8291 37.218 72.8291 35.5251C72.8291 33.9582 74.0124 32.8086 75.6247 32.8086C76.0346 32.8096 76.442 32.8727 76.8328 32.996V34.4048Z" fill="black"/>
<path d="M94.8259 34.1442C94.6446 34.1425 94.4649 34.1773 94.2974 34.2462C94.1297 34.3152 93.9775 34.4171 93.85 34.5458C93.7224 34.6746 93.6218 34.8275 93.5543 34.9957C93.4867 35.1638 93.4536 35.344 93.4566 35.5251C93.4531 35.7066 93.4861 35.8868 93.5534 36.0552C93.6208 36.2236 93.7213 36.377 93.849 36.5058C93.9767 36.6347 94.129 36.7368 94.2968 36.8058C94.4646 36.8747 94.6444 36.9093 94.8259 36.9075C95.0073 36.9091 95.1873 36.8744 95.355 36.8053C95.5228 36.7362 95.6751 36.6343 95.8028 36.5054C95.9306 36.3767 96.0313 36.2235 96.0989 36.0551C96.1666 35.8867 96.1998 35.7066 96.1966 35.5251C96.1995 35.3438 96.1661 35.1638 96.0985 34.9956C96.0308 34.8273 95.9301 34.6744 95.8024 34.5457C95.6745 34.417 95.5224 34.3152 95.3547 34.2462C95.187 34.1773 95.0072 34.1425 94.8259 34.1442ZM97.5995 35.5251C97.5995 37.0276 96.4412 38.2431 94.8259 38.2431C93.2106 38.2431 92.0537 37.0276 92.0537 35.5251C92.0537 34.0226 93.2121 32.8086 94.8259 32.8086C96.4397 32.8086 97.5995 34.0255 97.5995 35.5251Z" fill="black"/>
<path d="M85.001 34.0944C84.6632 34.0015 84.3158 33.9481 83.9657 33.9347C83.4356 33.9347 83.1471 34.1119 83.1471 34.3638C83.1471 34.6845 83.5366 34.8031 83.7533 34.8647L84.1194 34.9803C84.9791 35.2542 85.3701 35.8429 85.3701 36.4828C85.3701 37.8008 84.2117 38.2402 83.1969 38.2402C82.7171 38.2345 82.2387 38.1854 81.7676 38.0937V36.8856C82.1745 37.0035 82.5948 37.0689 83.0182 37.0803C83.6772 37.0803 83.9803 36.8885 83.9803 36.5897C83.9803 36.3247 83.7182 36.1709 83.3946 36.0669L83.1119 35.9762C82.3797 35.7433 81.7588 35.3098 81.7588 34.44C81.7588 33.4588 82.491 32.7998 83.7153 32.7998C84.1503 32.8058 84.5832 32.8619 85.0054 32.9667L85.001 34.0944Z" fill="black"/>
<path d="M63.5755 38.1328H63V32.8945H63.6985V34.873C63.8382 34.6682 64.028 34.5028 64.2496 34.3921C64.4713 34.2813 64.7176 34.2291 64.9653 34.2403C65.2078 34.2288 65.4494 34.2761 65.6697 34.3781C65.8899 34.4801 66.0823 34.6338 66.2305 34.8261C66.4971 35.1757 66.6303 35.6389 66.6303 36.2159C66.6303 36.8993 66.4487 37.423 66.0855 37.7872C65.9318 37.9393 65.7486 38.0586 65.5471 38.1373C65.3456 38.2161 65.1302 38.253 64.914 38.2456C64.6737 38.2579 64.4344 38.2082 64.219 38.1012C64.0036 37.9943 63.8192 37.8336 63.6839 37.6349L63.5755 38.1328ZM65.9025 36.1968C65.9025 35.7213 65.7839 35.365 65.5466 35.1278C65.45 35.03 65.3342 34.9534 65.2063 34.903C65.0785 34.8525 64.9414 34.8293 64.8042 34.8349C64.6431 34.8283 64.4829 34.8597 64.3363 34.9266C64.1898 34.9935 64.0611 35.0941 63.9607 35.22C63.7529 35.5014 63.6493 35.8461 63.6678 36.1954C63.6678 36.6801 63.7864 37.052 64.0251 37.3083C64.1229 37.4189 64.244 37.5062 64.3798 37.5642C64.5155 37.6222 64.6624 37.6494 64.81 37.6437C64.9711 37.6528 65.1318 37.6207 65.277 37.5505C65.4223 37.4802 65.5474 37.3742 65.6404 37.2424C65.817 36.9964 65.9054 36.6479 65.9054 36.1968H65.9025Z" fill="black"/>
<path d="M70.3725 34.3496L69.0545 38.1835C68.8788 38.6931 68.7114 39.0402 68.5522 39.2247C68.4625 39.3306 68.3501 39.4149 68.2233 39.4715C68.0967 39.528 67.9587 39.5552 67.82 39.5513C67.6677 39.5475 67.5163 39.5258 67.369 39.4868V38.9157C67.488 38.9473 67.6105 38.9645 67.7336 38.967C67.8 38.9702 67.8661 38.9577 67.9268 38.9305C67.9873 38.9033 68.0406 38.8621 68.0822 38.8103C68.2157 38.5984 68.321 38.3699 68.3955 38.1308H68.17L66.7803 34.3467H67.5286L68.5991 37.5684L69.6681 34.3467L70.3725 34.3496Z" fill="black"/>
<path d="M23.7425 8.13574H27.477L22.0473 24.548H17.7632L13.7051 12.163L9.64699 24.548H5.42964L0 8.13574H3.82181L7.67444 20.608L11.7171 8.13574H15.7752L19.8847 20.6748L23.7425 8.13574Z" fill="black"/>
<path d="M43.4935 17.6591H31.3809C31.4926 18.5054 31.8101 19.3115 32.3055 20.0067C32.7443 20.615 33.3387 21.094 34.0263 21.3936C34.7266 21.6961 35.4826 21.8483 36.2454 21.8405C37.091 21.8373 37.9293 21.6843 38.7214 21.3885C39.5426 21.0882 40.3095 20.6562 40.9919 20.1094L42.7744 22.6778C41.8654 23.4704 40.807 24.073 39.6614 24.45C38.4849 24.8193 37.2576 25.0013 36.0246 24.9894C34.5058 25.0193 33.0058 24.651 31.6737 23.9209C30.4136 23.2148 29.3817 22.1633 28.6994 20.8902C27.9655 19.4948 27.5979 17.9358 27.631 16.3595C27.5995 14.798 27.9523 13.2527 28.6583 11.8596C29.3144 10.5925 30.3151 9.53657 31.5452 8.81349C32.8358 8.07072 34.3046 7.6942 35.7934 7.72448C37.1983 7.6856 38.5846 8.05257 39.7863 8.78142C40.988 9.51027 41.9541 10.5701 42.5689 11.834C43.2476 13.2316 43.5856 14.7701 43.5552 16.3236C43.5603 16.6677 43.5398 17.1146 43.4935 17.6591ZM39.8977 14.9366C39.7873 13.8118 39.3047 12.7561 38.5262 11.9367C38.153 11.5869 37.7133 11.3158 37.2333 11.1393C36.7532 10.9628 36.2426 10.8846 35.7318 10.9093C35.194 10.8847 34.6568 10.9684 34.1521 11.1555C33.6473 11.3426 33.1853 11.6292 32.7935 11.9983C32.0177 12.8057 31.5224 13.8413 31.3809 14.952L39.8977 14.9366Z" fill="black"/>
<path d="M58.817 8.82386C60.0666 9.56298 61.0913 10.6285 61.781 11.906C62.5185 13.2675 62.8935 14.7959 62.87 16.3442C62.8936 17.8909 62.5185 19.4176 61.781 20.7773C61.0911 22.0606 60.0627 23.1304 58.8074 23.8703C57.5522 24.6102 56.1183 24.9919 54.6613 24.9741C53.6389 24.9955 52.6251 24.7829 51.6974 24.3525C50.8472 23.9425 50.1034 23.3412 49.5245 22.5957V24.5477H45.9287V1.14941H49.5245V10.0875C50.1059 9.34705 50.8492 8.7496 51.6974 8.34099C52.6238 7.90638 53.6383 7.6919 54.6613 7.7143C56.1221 7.69642 57.5596 8.08025 58.817 8.82386ZM56.8548 20.9006C57.6006 20.442 58.2009 19.7812 58.5859 18.9948C58.981 18.1661 59.1861 17.2597 59.1861 16.3416C59.1861 15.4236 58.981 14.5171 58.5859 13.6884C58.1993 12.9032 57.5994 12.2427 56.8548 11.7827C56.0633 11.3299 55.1673 11.0917 54.2555 11.0917C53.3437 11.0917 52.4477 11.3299 51.6563 11.7827C50.9098 12.236 50.3048 12.889 49.9098 13.6679C49.4825 14.4999 49.2672 15.4245 49.2831 16.3596C49.2668 17.2931 49.4821 18.2162 49.9098 19.0462C50.3048 19.8251 50.9098 20.4781 51.6563 20.9314C52.4477 21.3842 53.3437 21.6223 54.2555 21.6223C55.1673 21.6223 56.0633 21.3842 56.8548 20.9314V20.9006Z" fill="black"/>
<path d="M80.6125 17.6596H68.505C68.6168 18.5059 68.9342 19.312 69.4296 20.0072C69.8685 20.6155 70.4628 21.0945 71.1505 21.3941C71.8508 21.6966 72.6068 21.8488 73.3696 21.841C74.2151 21.8371 75.0532 21.684 75.8455 21.389C76.6668 21.0887 77.4336 20.6567 78.116 20.1099L79.8934 22.6783C78.987 23.4719 77.9301 24.0746 76.7856 24.4505C75.6072 24.8195 74.3783 25.0015 73.1436 24.9899C71.625 25.0182 70.1254 24.6499 68.7927 23.9214C67.5352 23.2136 66.5054 22.1624 65.8236 20.8907C65.0881 19.4957 64.7187 17.9368 64.75 16.36C64.7187 14.7985 65.0715 13.2533 65.7773 11.8601C66.4334 10.593 67.4341 9.53707 68.6642 8.81399C69.9623 8.06038 71.4426 7.67831 72.9432 7.70957C74.3478 7.67261 75.7333 8.04037 76.9346 8.769C78.136 9.49764 79.1024 10.5564 79.7187 11.819C80.3974 13.2167 80.7354 14.7552 80.705 16.3086C80.6844 16.6682 80.6485 17.1151 80.6125 17.6596ZM77.0167 14.9371C76.8982 13.8195 76.4143 12.7723 75.6401 11.9577C75.2694 11.6061 74.8321 11.3322 74.354 11.1522C73.8758 10.9722 73.3664 10.8898 72.8559 10.9098C72.3181 10.8846 71.7807 10.9681 71.2759 11.1552C70.771 11.3423 70.3091 11.6292 69.9176 11.9988C69.14 12.8049 68.6444 13.8412 68.505 14.9525L77.0167 14.9371Z" fill="black"/>
<path d="M97.6926 24.548H93.2904L89.1295 18.8409L85.02 24.548H80.8232L86.9875 16.1698L80.9208 8.13574H85.3283L89.335 13.6168L93.3417 8.13574H97.6002L91.5079 16.1389L97.6926 24.548Z" fill="black"/>
</g>
<defs>
<clipPath id="clip0_24153_662">
<rect width="287" height="40" fill="white"/>
</clipPath>
</defs>
</svg>
