<svg width="239" height="78" viewBox="0 0 239 78" fill="none" xmlns="http://www.w3.org/2000/svg">
<path d="M19.3874 50.0292C8.41432 50.0292 4.67963 36.1632 3.84278 33.4655C2.49428 29.0558 1.55427 24.5315 1.03464 19.9496C0.64453 16.255 3.61025 13.6839 6.86554 13.6839C8.28408 13.6277 9.6695 14.1218 10.7324 15.063C11.7953 16.0042 12.4534 17.3196 12.5694 18.7346C12.9818 22.6149 13.7651 26.4469 14.9087 30.1777C16.7585 36.0777 18.7208 38.3464 20.1339 38.3464C22.416 38.3464 23.8084 32.4897 25.0394 26.913C25.9462 22.8044 26.9266 18.6642 28.8619 14.9865C32.2287 8.58886 37.3168 7.1001 41.7122 7.1001C51.3507 7.1001 56.1745 18.2582 56.1745 21.1491C56.2196 21.9227 56.1073 22.6974 55.8445 23.4264C55.5817 24.1554 55.1737 24.8234 54.6453 25.3903C54.1169 25.957 53.4791 26.4108 52.7703 26.724C52.0615 27.0372 51.2966 27.2035 50.5218 27.2126C46.7834 27.2126 45.5162 24.7097 44.4495 22.516C43.4901 20.5423 42.488 18.9013 41.1924 18.9013C40.9656 18.9139 40.7436 18.9723 40.54 19.073C40.3362 19.1737 40.155 19.3146 40.0072 19.4872C36.7872 22.7574 35.7074 39.8653 29.269 46.4044C25.6998 50.0292 21.8162 50.0292 19.3874 50.0292Z" fill="url(#paint0_linear_13250_6178)"/>
<path d="M19.3874 50.0292C8.41432 50.0292 4.67963 36.1632 3.84278 33.4655C2.49428 29.0558 1.55427 24.5315 1.03464 19.9496C0.64453 16.255 3.61025 13.6839 6.86554 13.6839C8.28408 13.6277 9.6695 14.1218 10.7324 15.063C11.7953 16.0042 12.4534 17.3196 12.5694 18.7346C12.9818 22.6149 13.7651 26.4469 14.9087 30.1777C16.7585 36.0777 18.7208 38.3464 20.1339 38.3464C22.416 38.3464 23.8084 32.4897 25.0394 26.913C25.9462 22.8044 26.9266 18.6642 28.8619 14.9865C32.2287 8.58886 37.3168 7.1001 41.7122 7.1001C51.3507 7.1001 56.1745 18.2582 56.1745 21.1491C56.2196 21.9227 56.1073 22.6974 55.8445 23.4264C55.5817 24.1554 55.1737 24.8234 54.6453 25.3903C54.1169 25.957 53.4791 26.4108 52.7703 26.724C52.0615 27.0372 51.2966 27.2035 50.5218 27.2126C46.7834 27.2126 45.5162 24.7097 44.4495 22.516C43.4901 20.5423 42.488 18.9013 41.1924 18.9013C40.9656 18.9139 40.7436 18.9723 40.54 19.073C40.3362 19.1737 40.155 19.3146 40.0072 19.4872C36.7872 22.7574 35.7074 39.8653 29.269 46.4044C25.6998 50.0292 21.8162 50.0292 19.3874 50.0292Z" fill="url(#paint1_radial_13250_6178)"/>
<path d="M19.3874 50.0292C8.41432 50.0292 4.67963 36.1632 3.84278 33.4655C2.49428 29.0558 1.55427 24.5315 1.03464 19.9496C0.64453 16.255 3.61025 13.6839 6.86554 13.6839C8.28408 13.6277 9.6695 14.1218 10.7324 15.063C11.7953 16.0042 12.4534 17.3196 12.5694 18.7346C12.9818 22.6149 13.7651 26.4469 14.9087 30.1777C16.7585 36.0777 18.7208 38.3464 20.1339 38.3464C22.416 38.3464 23.8084 32.4897 25.0394 26.913C25.9462 22.8044 26.9266 18.6642 28.8619 14.9865C32.2287 8.58886 37.3168 7.1001 41.7122 7.1001C51.3507 7.1001 56.1745 18.2582 56.1745 21.1491C56.2196 21.9227 56.1073 22.6974 55.8445 23.4264C55.5817 24.1554 55.1737 24.8234 54.6453 25.3903C54.1169 25.957 53.4791 26.4108 52.7703 26.724C52.0615 27.0372 51.2966 27.2035 50.5218 27.2126C46.7834 27.2126 45.5162 24.7097 44.4495 22.516C43.4901 20.5423 42.488 18.9013 41.1924 18.9013C40.9656 18.9139 40.7436 18.9723 40.54 19.073C40.3362 19.1737 40.155 19.3146 40.0072 19.4872C36.7872 22.7574 35.7074 39.8653 29.269 46.4044C25.6998 50.0292 21.8162 50.0292 19.3874 50.0292Z" fill="url(#paint2_radial_13250_6178)"/>
<path d="M19.3874 50.0292C8.41432 50.0292 4.67963 36.1632 3.84278 33.4655C2.49428 29.0558 1.55427 24.5315 1.03464 19.9496C0.64453 16.255 3.61025 13.6839 6.86554 13.6839C8.28408 13.6277 9.6695 14.1218 10.7324 15.063C11.7953 16.0042 12.4534 17.3196 12.5694 18.7346C12.9818 22.6149 13.7651 26.4469 14.9087 30.1777C16.7585 36.0777 18.7208 38.3464 20.1339 38.3464C22.416 38.3464 23.8084 32.4897 25.0394 26.913C25.9462 22.8044 26.9266 18.6642 28.8619 14.9865C32.2287 8.58886 37.3168 7.1001 41.7122 7.1001C51.3507 7.1001 56.1745 18.2582 56.1745 21.1491C56.2196 21.9227 56.1073 22.6974 55.8445 23.4264C55.5817 24.1554 55.1737 24.8234 54.6453 25.3903C54.1169 25.957 53.4791 26.4108 52.7703 26.724C52.0615 27.0372 51.2966 27.2035 50.5218 27.2126C46.7834 27.2126 45.5162 24.7097 44.4495 22.516C43.4901 20.5423 42.488 18.9013 41.1924 18.9013C40.9656 18.9139 40.7436 18.9723 40.54 19.073C40.3362 19.1737 40.155 19.3146 40.0072 19.4872C36.7872 22.7574 35.7074 39.8653 29.269 46.4044C25.6998 50.0292 21.8162 50.0292 19.3874 50.0292Z" fill="url(#paint3_radial_13250_6178)"/>
<path d="M19.3874 50.0292C8.41432 50.0292 4.67963 36.1632 3.84278 33.4655C2.49428 29.0558 1.55427 24.5315 1.03464 19.9496C0.64453 16.255 3.61025 13.6839 6.86554 13.6839C8.28408 13.6277 9.6695 14.1218 10.7324 15.063C11.7953 16.0042 12.4534 17.3196 12.5694 18.7346C12.9818 22.6149 13.7651 26.4469 14.9087 30.1777C16.7585 36.0777 18.7208 38.3464 20.1339 38.3464C22.416 38.3464 23.8084 32.4897 25.0394 26.913C25.9462 22.8044 26.9266 18.6642 28.8619 14.9865C32.2287 8.58886 37.3168 7.1001 41.7122 7.1001C51.3507 7.1001 56.1745 18.2582 56.1745 21.1491C56.2196 21.9227 56.1073 22.6974 55.8445 23.4264C55.5817 24.1554 55.1737 24.8234 54.6453 25.3903C54.1169 25.957 53.4791 26.4108 52.7703 26.724C52.0615 27.0372 51.2966 27.2035 50.5218 27.2126C46.7834 27.2126 45.5162 24.7097 44.4495 22.516C43.4901 20.5423 42.488 18.9013 41.1924 18.9013C40.9656 18.9139 40.7436 18.9723 40.54 19.073C40.3362 19.1737 40.155 19.3146 40.0072 19.4872C36.7872 22.7574 35.7074 39.8653 29.269 46.4044C25.6998 50.0292 21.8162 50.0292 19.3874 50.0292Z" fill="url(#paint4_radial_13250_6178)"/>
<path d="M19.3874 50.0292C8.41432 50.0292 4.67963 36.1632 3.84278 33.4655C2.49428 29.0558 1.55427 24.5315 1.03464 19.9496C0.64453 16.255 3.61025 13.6839 6.86554 13.6839C8.28408 13.6277 9.6695 14.1218 10.7324 15.063C11.7953 16.0042 12.4534 17.3196 12.5694 18.7346C12.9818 22.6149 13.7651 26.4469 14.9087 30.1777C16.7585 36.0777 18.7208 38.3464 20.1339 38.3464C22.416 38.3464 23.8084 32.4897 25.0394 26.913C25.9462 22.8044 26.9266 18.6642 28.8619 14.9865C32.2287 8.58886 37.3168 7.1001 41.7122 7.1001C51.3507 7.1001 56.1745 18.2582 56.1745 21.1491C56.2196 21.9227 56.1073 22.6974 55.8445 23.4264C55.5817 24.1554 55.1737 24.8234 54.6453 25.3903C54.1169 25.957 53.4791 26.4108 52.7703 26.724C52.0615 27.0372 51.2966 27.2035 50.5218 27.2126C46.7834 27.2126 45.5162 24.7097 44.4495 22.516C43.4901 20.5423 42.488 18.9013 41.1924 18.9013C40.9656 18.9139 40.7436 18.9723 40.54 19.073C40.3362 19.1737 40.155 19.3146 40.0072 19.4872C36.7872 22.7574 35.7074 39.8653 29.269 46.4044C25.6998 50.0292 21.8162 50.0292 19.3874 50.0292Z" fill="url(#paint5_radial_13250_6178)"/>
<path d="M19.3874 50.0292C8.41432 50.0292 4.67963 36.1632 3.84278 33.4655C2.49428 29.0558 1.55427 24.5315 1.03464 19.9496C0.64453 16.255 3.61025 13.6839 6.86554 13.6839C8.28408 13.6277 9.6695 14.1218 10.7324 15.063C11.7953 16.0042 12.4534 17.3196 12.5694 18.7346C12.9818 22.6149 13.7651 26.4469 14.9087 30.1777C16.7585 36.0777 18.7208 38.3464 20.1339 38.3464C22.416 38.3464 23.8084 32.4897 25.0394 26.913C25.9462 22.8044 26.9266 18.6642 28.8619 14.9865C32.2287 8.58886 37.3168 7.1001 41.7122 7.1001C51.3507 7.1001 56.1745 18.2582 56.1745 21.1491C56.2196 21.9227 56.1073 22.6974 55.8445 23.4264C55.5817 24.1554 55.1737 24.8234 54.6453 25.3903C54.1169 25.957 53.4791 26.4108 52.7703 26.724C52.0615 27.0372 51.2966 27.2035 50.5218 27.2126C46.7834 27.2126 45.5162 24.7097 44.4495 22.516C43.4901 20.5423 42.488 18.9013 41.1924 18.9013C40.9656 18.9139 40.7436 18.9723 40.54 19.073C40.3362 19.1737 40.155 19.3146 40.0072 19.4872C36.7872 22.7574 35.7074 39.8653 29.269 46.4044C25.6998 50.0292 21.8162 50.0292 19.3874 50.0292Z" fill="url(#paint6_radial_13250_6178)"/>
<path d="M19.3874 50.0292C8.41432 50.0292 4.67963 36.1632 3.84278 33.4655C2.49428 29.0558 1.55427 24.5315 1.03464 19.9496C0.64453 16.255 3.61025 13.6839 6.86554 13.6839C8.28408 13.6277 9.6695 14.1218 10.7324 15.063C11.7953 16.0042 12.4534 17.3196 12.5694 18.7346C12.9818 22.6149 13.7651 26.4469 14.9087 30.1777C16.7585 36.0777 18.7208 38.3464 20.1339 38.3464C22.416 38.3464 23.8084 32.4897 25.0394 26.913C25.9462 22.8044 26.9266 18.6642 28.8619 14.9865C32.2287 8.58886 37.3168 7.1001 41.7122 7.1001C51.3507 7.1001 56.1745 18.2582 56.1745 21.1491C56.2196 21.9227 56.1073 22.6974 55.8445 23.4264C55.5817 24.1554 55.1737 24.8234 54.6453 25.3903C54.1169 25.957 53.4791 26.4108 52.7703 26.724C52.0615 27.0372 51.2966 27.2035 50.5218 27.2126C46.7834 27.2126 45.5162 24.7097 44.4495 22.516C43.4901 20.5423 42.488 18.9013 41.1924 18.9013C40.9656 18.9139 40.7436 18.9723 40.54 19.073C40.3362 19.1737 40.155 19.3146 40.0072 19.4872C36.7872 22.7574 35.7074 39.8653 29.269 46.4044C25.6998 50.0292 21.8162 50.0292 19.3874 50.0292Z" fill="url(#paint7_linear_13250_6178)"/>
<path d="M41.711 7.1001C37.3156 7.1001 32.2275 8.58886 28.8603 14.9869C26.9249 18.6644 25.9444 22.8045 25.0377 26.9134C24.7392 28.2654 24.4311 29.6337 24.1035 30.9313V49.5201C26.0709 48.9578 27.8534 47.8825 29.2683 46.4043C35.7061 39.8656 36.7861 22.7574 40.0062 19.4874C40.154 19.3148 40.3352 19.174 40.5389 19.0732C40.7426 18.9725 40.9645 18.9141 41.1914 18.9015C42.487 18.9015 43.489 20.5425 44.4485 22.5162C45.5151 24.7099 46.7824 27.2128 50.5208 27.2128C51.2956 27.2037 52.0605 27.0374 52.7693 26.7242C53.478 26.411 54.1158 25.9572 54.6443 25.3905C55.1726 24.8236 55.5806 24.1556 55.8434 23.4266C56.1063 22.6976 56.2186 21.9229 56.1735 21.1493C56.1732 18.2582 51.3496 7.1001 41.711 7.1001Z" fill="url(#paint8_radial_13250_6178)"/>
<path d="M19.3874 50.0292C8.41432 50.0292 4.67963 36.1632 3.84278 33.4655C2.49428 29.0558 1.55427 24.5315 1.03464 19.9496C0.64453 16.255 3.61025 13.6839 6.86554 13.6839C8.28408 13.6277 9.6695 14.1218 10.7324 15.063C11.7953 16.0042 12.4534 17.3196 12.5694 18.7346C12.9818 22.6149 13.7651 26.4469 14.9087 30.1777C16.7585 36.0777 18.7208 38.3464 20.1339 38.3464C22.416 38.3464 23.8084 32.4897 25.0394 26.913C25.9462 22.8044 26.9266 18.6642 28.8619 14.9865C32.2287 8.58886 37.3168 7.1001 41.7122 7.1001C51.3507 7.1001 56.1745 18.2582 56.1745 21.1491C56.2196 21.9227 56.1073 22.6974 55.8445 23.4264C55.5817 24.1554 55.1737 24.8234 54.6453 25.3903C54.1169 25.957 53.4791 26.4108 52.7703 26.724C52.0615 27.0372 51.2966 27.2035 50.5218 27.2126C46.7834 27.2126 45.5162 24.7097 44.4495 22.516C43.4901 20.5423 42.488 18.9013 41.1924 18.9013C40.9656 18.9139 40.7436 18.9723 40.54 19.073C40.3362 19.1737 40.155 19.3146 40.0072 19.4872C36.7872 22.7574 35.7074 39.8653 29.269 46.4044C25.6998 50.0292 21.8162 50.0292 19.3874 50.0292Z" fill="url(#paint9_radial_13250_6178)"/>
<path d="M19.3874 50.0292C8.41432 50.0292 4.67963 36.1632 3.84278 33.4655C2.49428 29.0558 1.55427 24.5315 1.03464 19.9496C0.64453 16.255 3.61025 13.6839 6.86554 13.6839C8.28408 13.6277 9.6695 14.1218 10.7324 15.063C11.7953 16.0042 12.4534 17.3196 12.5694 18.7346C12.9818 22.6149 13.7651 26.4469 14.9087 30.1777C16.7585 36.0777 18.7208 38.3464 20.1339 38.3464C22.416 38.3464 23.8084 32.4897 25.0394 26.913C25.9462 22.8044 26.9266 18.6642 28.8619 14.9865C32.2287 8.58886 37.3168 7.1001 41.7122 7.1001C51.3507 7.1001 56.1745 18.2582 56.1745 21.1491C56.2196 21.9227 56.1073 22.6974 55.8445 23.4264C55.5817 24.1554 55.1737 24.8234 54.6453 25.3903C54.1169 25.957 53.4791 26.4108 52.7703 26.724C52.0615 27.0372 51.2966 27.2035 50.5218 27.2126C46.7834 27.2126 45.5162 24.7097 44.4495 22.516C43.4901 20.5423 42.488 18.9013 41.1924 18.9013C40.9656 18.9139 40.7436 18.9723 40.54 19.073C40.3362 19.1737 40.155 19.3146 40.0072 19.4872C36.7872 22.7574 35.7074 39.8653 29.269 46.4044C25.6998 50.0292 21.8162 50.0292 19.3874 50.0292Z" fill="url(#paint10_radial_13250_6178)"/>
<path d="M19.3874 50.0292C8.41432 50.0292 4.67963 36.1632 3.84278 33.4655C2.49428 29.0558 1.55427 24.5315 1.03464 19.9496C0.64453 16.255 3.61025 13.6839 6.86554 13.6839C8.28408 13.6277 9.6695 14.1218 10.7324 15.063C11.7953 16.0042 12.4534 17.3196 12.5694 18.7346C12.9818 22.6149 13.7651 26.4469 14.9087 30.1777C16.7585 36.0777 18.7208 38.3464 20.1339 38.3464C22.416 38.3464 23.8084 32.4897 25.0394 26.913C25.9462 22.8044 26.9266 18.6642 28.8619 14.9865C32.2287 8.58886 37.3168 7.1001 41.7122 7.1001C51.3507 7.1001 56.1745 18.2582 56.1745 21.1491C56.2196 21.9227 56.1073 22.6974 55.8445 23.4264C55.5817 24.1554 55.1737 24.8234 54.6453 25.3903C54.1169 25.957 53.4791 26.4108 52.7703 26.724C52.0615 27.0372 51.2966 27.2035 50.5218 27.2126C46.7834 27.2126 45.5162 24.7097 44.4495 22.516C43.4901 20.5423 42.488 18.9013 41.1924 18.9013C40.9656 18.9139 40.7436 18.9723 40.54 19.073C40.3362 19.1737 40.155 19.3146 40.0072 19.4872C36.7872 22.7574 35.7074 39.8653 29.269 46.4044C25.6998 50.0292 21.8162 50.0292 19.3874 50.0292Z" fill="url(#paint11_radial_13250_6178)"/>
<path d="M19.3874 50.0292C8.41432 50.0292 4.67963 36.1632 3.84278 33.4655C2.49428 29.0558 1.55427 24.5315 1.03464 19.9496C0.64453 16.255 3.61025 13.6839 6.86554 13.6839C8.28408 13.6277 9.6695 14.1218 10.7324 15.063C11.7953 16.0042 12.4534 17.3196 12.5694 18.7346C12.9818 22.6149 13.7651 26.4469 14.9087 30.1777C16.7585 36.0777 18.7208 38.3464 20.1339 38.3464C22.416 38.3464 23.8084 32.4897 25.0394 26.913C25.9462 22.8044 26.9266 18.6642 28.8619 14.9865C32.2287 8.58886 37.3168 7.1001 41.7122 7.1001C51.3507 7.1001 56.1745 18.2582 56.1745 21.1491C56.2196 21.9227 56.1073 22.6974 55.8445 23.4264C55.5817 24.1554 55.1737 24.8234 54.6453 25.3903C54.1169 25.957 53.4791 26.4108 52.7703 26.724C52.0615 27.0372 51.2966 27.2035 50.5218 27.2126C46.7834 27.2126 45.5162 24.7097 44.4495 22.516C43.4901 20.5423 42.488 18.9013 41.1924 18.9013C40.9656 18.9139 40.7436 18.9723 40.54 19.073C40.3362 19.1737 40.155 19.3146 40.0072 19.4872C36.7872 22.7574 35.7074 39.8653 29.269 46.4044C25.6998 50.0292 21.8162 50.0292 19.3874 50.0292Z" fill="url(#paint12_radial_13250_6178)"/>
<path d="M19.3874 50.0292C8.41432 50.0292 4.67963 36.1632 3.84278 33.4655C2.49428 29.0558 1.55427 24.5315 1.03464 19.9496C0.64453 16.255 3.61025 13.6839 6.86554 13.6839C8.28408 13.6277 9.6695 14.1218 10.7324 15.063C11.7953 16.0042 12.4534 17.3196 12.5694 18.7346C12.9818 22.6149 13.7651 26.4469 14.9087 30.1777C16.7585 36.0777 18.7208 38.3464 20.1339 38.3464C22.416 38.3464 23.8084 32.4897 25.0394 26.913C25.9462 22.8044 26.9266 18.6642 28.8619 14.9865C32.2287 8.58886 37.3168 7.1001 41.7122 7.1001C51.3507 7.1001 56.1745 18.2582 56.1745 21.1491C56.2196 21.9227 56.1073 22.6974 55.8445 23.4264C55.5817 24.1554 55.1737 24.8234 54.6453 25.3903C54.1169 25.957 53.4791 26.4108 52.7703 26.724C52.0615 27.0372 51.2966 27.2035 50.5218 27.2126C46.7834 27.2126 45.5162 24.7097 44.4495 22.516C43.4901 20.5423 42.488 18.9013 41.1924 18.9013C40.9656 18.9139 40.7436 18.9723 40.54 19.073C40.3362 19.1737 40.155 19.3146 40.0072 19.4872C36.7872 22.7574 35.7074 39.8653 29.269 46.4044C25.6998 50.0292 21.8162 50.0292 19.3874 50.0292Z" fill="url(#paint13_radial_13250_6178)"/>
<path d="M19.3874 50.0292C8.41432 50.0292 4.67963 36.1632 3.84278 33.4655C2.49428 29.0558 1.55427 24.5315 1.03464 19.9496C0.64453 16.255 3.61025 13.6839 6.86554 13.6839C8.28408 13.6277 9.6695 14.1218 10.7324 15.063C11.7953 16.0042 12.4534 17.3196 12.5694 18.7346C12.9818 22.6149 13.7652 26.4469 14.9087 30.1777C16.7585 36.0777 18.7208 38.3464 20.1339 38.3464C22.416 38.3464 23.8084 32.4897 25.0394 26.913C25.9462 22.8044 26.9266 18.6642 28.8619 14.9865C32.2287 8.58886 37.3168 7.1001 41.7122 7.1001C51.3507 7.1001 56.1745 18.2582 56.1745 21.1491C56.2196 21.9227 56.1073 22.6974 55.8445 23.4264C55.5817 24.1554 55.1737 24.8234 54.6453 25.3903C54.1169 25.957 53.4791 26.4108 52.7703 26.724C52.0615 27.0372 51.2966 27.2035 50.5218 27.2126C46.7834 27.2126 45.5162 24.7097 44.4495 22.516C43.4901 20.5423 42.488 18.9013 41.1924 18.9013C40.9656 18.9139 40.7436 18.9723 40.54 19.073C40.3362 19.1737 40.155 19.3146 40.0072 19.4872C36.7872 22.7574 35.7074 39.8653 29.269 46.4044C25.6998 50.0292 21.8162 50.0292 19.3874 50.0292Z" fill="url(#paint14_linear_13250_6178)"/>
<path d="M54.3963 13.684C53.9598 13.6836 53.5245 13.7256 53.0962 13.8094C55.1336 16.7449 56.153 19.8203 56.153 21.149C56.1971 22.1992 55.956 23.2417 55.4554 24.1659C54.9547 25.0902 54.2132 25.8616 53.3095 26.3984C52.4059 26.9352 50.8414 27.1949 50.3418 27.1949C49.8424 27.1949 48.2182 26.892 47.3171 26.3508V26.4747C47.0769 27.4335 46.8873 28.4829 46.5591 29.5041C45.9225 31.5457 45.1229 33.5328 44.1679 35.4462C43.1883 37.3173 42.2182 38.412 41.062 38.3546C39.7472 38.2893 38.6812 36.5959 37.3561 31.8097C36.9288 30.2665 36.5332 28.5746 36.1665 26.9133C35.257 22.7925 34.1406 18.6487 32.2318 14.9867C31.0747 12.6114 29.2706 10.611 27.0269 9.21584C24.7832 7.82065 22.1913 7.08732 19.5492 7.10027C15.6114 7.10027 12.6695 8.96319 10.3583 11.3102C9.60684 12.0995 8.92528 12.9526 8.32129 13.8597C9.45896 14.1043 10.4863 14.7119 11.2486 15.5911C12.0109 16.4704 12.4667 17.5735 12.5475 18.7344C12.9053 22.0945 13.5388 25.4195 14.4414 28.6758C15.0971 26.5734 15.8889 24.5158 16.8119 22.5162C17.2699 21.4757 17.8868 20.5128 18.6407 19.6619C18.8081 19.4567 19.015 19.287 19.2491 19.1632C19.4832 19.0393 19.7398 18.9636 20.0037 18.9405C20.4433 18.9405 21.9442 19.3426 23.4055 24.4663C25.2177 30.8196 26.5664 40.9311 31.7047 46.2998C33.971 48.668 37.1425 50.2001 41.5379 50.2001C43.2923 50.1927 45.0269 49.8292 46.6366 49.1316C48.2464 48.4341 49.6977 47.417 50.9028 46.142C54.6723 42.2596 56.7378 35.8409 57.4746 33.4656C58.8179 29.0577 59.7394 24.5321 60.2267 19.9498C60.6166 16.2551 57.5018 13.684 54.3963 13.684Z" fill="#EFEFEF"/>
<path d="M54.3963 13.684C53.9598 13.6836 53.5245 13.7256 53.0962 13.8094C55.1336 16.7449 56.153 19.8203 56.153 21.149C56.1971 22.1992 55.956 23.2417 55.4554 24.1659C54.9547 25.0902 54.2132 25.8616 53.3095 26.3984C52.4059 26.9352 50.8414 27.1949 50.3418 27.1949C49.8424 27.1949 48.2182 26.892 47.3171 26.3508V26.4747C47.0769 27.4335 46.8873 28.4829 46.5591 29.5041C45.9225 31.5457 45.1229 33.5328 44.1679 35.4462C43.1883 37.3173 42.2182 38.412 41.062 38.3546C39.7472 38.2893 38.6812 36.5959 37.3561 31.8097C36.9288 30.2665 36.5332 28.5746 36.1665 26.9133C35.257 22.7925 34.1406 18.6487 32.2318 14.9867C31.0747 12.6114 29.2706 10.611 27.0269 9.21584C24.7832 7.82065 22.1913 7.08732 19.5492 7.10027C15.6114 7.10027 12.6695 8.96319 10.3583 11.3102C9.60684 12.0995 8.92528 12.9526 8.32129 13.8597C9.45896 14.1043 10.4863 14.7119 11.2486 15.5911C12.0109 16.4704 12.4667 17.5735 12.5475 18.7344C12.9053 22.0945 13.5388 25.4195 14.4414 28.6758C15.0971 26.5734 15.8889 24.5158 16.8119 22.5162C17.2699 21.4757 17.8868 20.5128 18.6407 19.6619C18.8081 19.4567 19.015 19.287 19.2491 19.1632C19.4832 19.0393 19.7398 18.9636 20.0037 18.9405C20.4433 18.9405 21.9442 19.3426 23.4055 24.4663C25.2177 30.8196 26.5664 40.9311 31.7047 46.2998C33.971 48.668 37.1425 50.2001 41.5379 50.2001C43.2923 50.1927 45.0269 49.8292 46.6366 49.1316C48.2464 48.4341 49.6977 47.417 50.9028 46.142C54.6723 42.2596 56.7378 35.8409 57.4746 33.4656C58.8179 29.0577 59.7394 24.5321 60.2267 19.9498C60.6166 16.2551 57.5018 13.684 54.3963 13.684Z" fill="url(#paint15_radial_13250_6178)"/>
<path d="M54.3963 13.684C53.9598 13.6836 53.5245 13.7256 53.0962 13.8094C55.1336 16.7449 56.153 19.8203 56.153 21.149C56.1971 22.1992 55.956 23.2417 55.4554 24.1659C54.9547 25.0902 54.2132 25.8616 53.3095 26.3984C52.4059 26.9352 50.8414 27.1949 50.3418 27.1949C49.8424 27.1949 48.2182 26.892 47.3171 26.3508V26.4747C47.0769 27.4335 46.8873 28.4829 46.5591 29.5041C45.9225 31.5457 45.1229 33.5328 44.1679 35.4462C43.1883 37.3173 42.2182 38.412 41.062 38.3546C39.7472 38.2893 38.6812 36.5959 37.3561 31.8097C36.9288 30.2665 36.5332 28.5746 36.1665 26.9133C35.257 22.7925 34.1406 18.6487 32.2318 14.9867C31.0747 12.6114 29.2706 10.611 27.0269 9.21584C24.7832 7.82065 22.1913 7.08732 19.5492 7.10027C15.6114 7.10027 12.6695 8.96319 10.3583 11.3102C9.60684 12.0995 8.92528 12.9526 8.32129 13.8597C9.45896 14.1043 10.4863 14.7119 11.2486 15.5911C12.0109 16.4704 12.4667 17.5735 12.5475 18.7344C12.9053 22.0945 13.5388 25.4195 14.4414 28.6758C15.0971 26.5734 15.8889 24.5158 16.8119 22.5162C17.2699 21.4757 17.8868 20.5128 18.6407 19.6619C18.8081 19.4567 19.015 19.287 19.2491 19.1632C19.4832 19.0393 19.7398 18.9636 20.0037 18.9405C20.4433 18.9405 21.9442 19.3426 23.4055 24.4663C25.2177 30.8196 26.5664 40.9311 31.7047 46.2998C33.971 48.668 37.1425 50.2001 41.5379 50.2001C43.2923 50.1927 45.0269 49.8292 46.6366 49.1316C48.2464 48.4341 49.6977 47.417 50.9028 46.142C54.6723 42.2596 56.7378 35.8409 57.4746 33.4656C58.8179 29.0577 59.7394 24.5321 60.2267 19.9498C60.6166 16.2551 57.5018 13.684 54.3963 13.684Z" fill="url(#paint16_radial_13250_6178)"/>
<path d="M54.3963 13.684C53.9598 13.6836 53.5245 13.7256 53.0962 13.8094C55.1336 16.7449 56.153 19.8203 56.153 21.149C56.1971 22.1992 55.956 23.2417 55.4554 24.1659C54.9547 25.0902 54.2132 25.8616 53.3095 26.3984C52.4059 26.9352 50.8414 27.1949 50.3418 27.1949C49.8424 27.1949 48.2182 26.892 47.3171 26.3508V26.4747C47.0769 27.4335 46.8873 28.4829 46.5591 29.5041C45.9225 31.5457 45.1229 33.5328 44.1679 35.4462C43.1883 37.3173 42.2182 38.412 41.062 38.3546C39.7472 38.2893 38.6812 36.5959 37.3561 31.8097C36.9288 30.2665 36.5332 28.5746 36.1665 26.9133C35.257 22.7925 34.1406 18.6487 32.2318 14.9867C31.0747 12.6114 29.2706 10.611 27.0269 9.21584C24.7832 7.82065 22.1913 7.08732 19.5492 7.10027C15.6114 7.10027 12.6695 8.96319 10.3583 11.3102C9.60684 12.0995 8.92528 12.9526 8.32129 13.8597C9.45896 14.1043 10.4863 14.7119 11.2486 15.5911C12.0109 16.4704 12.4667 17.5735 12.5475 18.7344C12.9053 22.0945 13.5388 25.4195 14.4414 28.6758C15.0971 26.5734 15.8889 24.5158 16.8119 22.5162C17.2699 21.4757 17.8868 20.5128 18.6407 19.6619C18.8081 19.4567 19.015 19.287 19.2491 19.1632C19.4832 19.0393 19.7398 18.9636 20.0037 18.9405C20.4433 18.9405 21.9442 19.3426 23.4055 24.4663C25.2177 30.8196 26.5664 40.9311 31.7047 46.2998C33.971 48.668 37.1425 50.2001 41.5379 50.2001C43.2923 50.1927 45.0269 49.8292 46.6366 49.1316C48.2464 48.4341 49.6977 47.417 50.9028 46.142C54.6723 42.2596 56.7378 35.8409 57.4746 33.4656C58.8179 29.0577 59.7394 24.5321 60.2267 19.9498C60.6166 16.2551 57.5018 13.684 54.3963 13.684Z" fill="url(#paint17_radial_13250_6178)"/>
<path d="M54.3963 13.684C53.9598 13.6836 53.5245 13.7256 53.0962 13.8094C55.1336 16.7449 56.153 19.8203 56.153 21.149C56.1971 22.1992 55.956 23.2417 55.4554 24.1659C54.9547 25.0902 54.2132 25.8616 53.3095 26.3984C52.4059 26.9352 50.8414 27.1949 50.3418 27.1949C49.8424 27.1949 48.2182 26.892 47.3171 26.3508V26.4747C47.0769 27.4335 46.8873 28.4829 46.5591 29.5041C45.9225 31.5457 45.1229 33.5328 44.1679 35.4462C43.1883 37.3173 42.2182 38.412 41.062 38.3546C39.7472 38.2893 38.6812 36.5959 37.3561 31.8097C36.9288 30.2665 36.5332 28.5746 36.1665 26.9133C35.257 22.7925 34.1406 18.6487 32.2318 14.9867C31.0747 12.6114 29.2706 10.611 27.0269 9.21584C24.7832 7.82065 22.1913 7.08732 19.5492 7.10027C15.6114 7.10027 12.6695 8.96319 10.3583 11.3102C9.60684 12.0995 8.92528 12.9526 8.32129 13.8597C9.45896 14.1043 10.4863 14.7119 11.2486 15.5911C12.0109 16.4704 12.4667 17.5735 12.5475 18.7344C12.9053 22.0945 13.5388 25.4195 14.4414 28.6758C15.0971 26.5734 15.8889 24.5158 16.8119 22.5162C17.2699 21.4757 17.8868 20.5128 18.6407 19.6619C18.8081 19.4567 19.015 19.287 19.2491 19.1632C19.4832 19.0393 19.7398 18.9636 20.0037 18.9405C20.4433 18.9405 21.9442 19.3426 23.4055 24.4663C25.2177 30.8196 26.5664 40.9311 31.7047 46.2998C33.971 48.668 37.1425 50.2001 41.5379 50.2001C43.2923 50.1927 45.0269 49.8292 46.6366 49.1316C48.2464 48.4341 49.6977 47.417 50.9028 46.142C54.6723 42.2596 56.7378 35.8409 57.4746 33.4656C58.8179 29.0577 59.7394 24.5321 60.2267 19.9498C60.6166 16.2551 57.5018 13.684 54.3963 13.684Z" fill="url(#paint18_radial_13250_6178)"/>
<path d="M54.3963 13.684C53.9598 13.6836 53.5245 13.7256 53.0962 13.8094C55.1336 16.7449 56.153 19.8203 56.153 21.149C56.1971 22.1992 55.956 23.2417 55.4554 24.1659C54.9547 25.0902 54.2132 25.8616 53.3095 26.3984C52.4059 26.9352 50.8414 27.1949 50.3418 27.1949C49.8424 27.1949 48.2182 26.892 47.3171 26.3508V26.4747C47.0769 27.4335 46.8873 28.4829 46.5591 29.5041C45.9225 31.5457 45.1229 33.5328 44.1679 35.4462C43.1883 37.3173 42.2182 38.412 41.062 38.3546C39.7472 38.2893 38.6812 36.5959 37.3561 31.8097C36.9288 30.2665 36.5332 28.5746 36.1665 26.9133C35.257 22.7925 34.1406 18.6487 32.2318 14.9867C31.0747 12.6114 29.2706 10.611 27.0269 9.21584C24.7832 7.82065 22.1913 7.08732 19.5492 7.10027C15.6114 7.10027 12.6695 8.96319 10.3583 11.3102C9.60684 12.0995 8.92528 12.9526 8.32129 13.8597C9.45896 14.1043 10.4863 14.7119 11.2486 15.5911C12.0109 16.4704 12.4667 17.5735 12.5475 18.7344C12.9053 22.0945 13.5388 25.4195 14.4414 28.6758C15.0971 26.5734 15.8889 24.5158 16.8119 22.5162C17.2699 21.4757 17.8868 20.5128 18.6407 19.6619C18.8081 19.4567 19.015 19.287 19.2491 19.1632C19.4832 19.0393 19.7398 18.9636 20.0037 18.9405C20.4433 18.9405 21.9442 19.3426 23.4055 24.4663C25.2177 30.8196 26.5664 40.9311 31.7047 46.2998C33.971 48.668 37.1425 50.2001 41.5379 50.2001C43.2923 50.1927 45.0269 49.8292 46.6366 49.1316C48.2464 48.4341 49.6977 47.417 50.9028 46.142C54.6723 42.2596 56.7378 35.8409 57.4746 33.4656C58.8179 29.0577 59.7394 24.5321 60.2267 19.9498C60.6166 16.2551 57.5018 13.684 54.3963 13.684Z" fill="url(#paint19_radial_13250_6178)"/>
<path d="M54.3963 13.684C53.9598 13.6836 53.5245 13.7256 53.0962 13.8094C55.1336 16.7449 56.153 19.8203 56.153 21.149C56.1971 22.1992 55.956 23.2417 55.4554 24.1659C54.9547 25.0902 54.2132 25.8616 53.3095 26.3984C52.4059 26.9352 50.8414 27.1949 50.3418 27.1949C49.8424 27.1949 48.2182 26.892 47.3171 26.3508V26.4747C47.0769 27.4335 46.8873 28.4829 46.5591 29.5041C45.9225 31.5457 45.1229 33.5328 44.1679 35.4462C43.1883 37.3173 42.2182 38.412 41.062 38.3546C39.7472 38.2893 38.6812 36.5959 37.3561 31.8097C36.9288 30.2665 36.5332 28.5746 36.1665 26.9133C35.257 22.7925 34.1406 18.6487 32.2318 14.9867C31.0747 12.6114 29.2706 10.611 27.0269 9.21584C24.7832 7.82065 22.1913 7.08732 19.5492 7.10027C15.6114 7.10027 12.6695 8.96319 10.3583 11.3102C9.60684 12.0995 8.92528 12.9526 8.32129 13.8597C9.45896 14.1043 10.4863 14.7119 11.2486 15.5911C12.0109 16.4704 12.4667 17.5735 12.5475 18.7344C12.9053 22.0945 13.5388 25.4195 14.4414 28.6758C15.0971 26.5734 15.8889 24.5158 16.8119 22.5162C17.2699 21.4757 17.8868 20.5128 18.6407 19.6619C18.8081 19.4567 19.015 19.287 19.2491 19.1632C19.4832 19.0393 19.7398 18.9636 20.0037 18.9405C20.4433 18.9405 21.9442 19.3426 23.4055 24.4663C25.2177 30.8196 26.5664 40.9311 31.7047 46.2998C33.971 48.668 37.1425 50.2001 41.5379 50.2001C43.2923 50.1927 45.0269 49.8292 46.6366 49.1316C48.2464 48.4341 49.6977 47.417 50.9028 46.142C54.6723 42.2596 56.7378 35.8409 57.4746 33.4656C58.8179 29.0577 59.7394 24.5321 60.2267 19.9498C60.6166 16.2551 57.5018 13.684 54.3963 13.684Z" fill="url(#paint20_radial_13250_6178)"/>
<path d="M54.3963 13.684C53.9598 13.6836 53.5245 13.7256 53.0962 13.8094C55.1336 16.7449 56.153 19.8203 56.153 21.149C56.1971 22.1992 55.956 23.2417 55.4554 24.1659C54.9547 25.0902 54.2132 25.8616 53.3095 26.3984C52.4059 26.9352 50.8414 27.1949 50.3418 27.1949C49.8424 27.1949 48.2182 26.892 47.3171 26.3508V26.4747C47.0769 27.4335 46.8873 28.4829 46.5591 29.5041C45.9225 31.5457 45.1229 33.5328 44.1679 35.4462C43.1883 37.3173 42.2182 38.412 41.062 38.3546C39.7472 38.2893 38.6812 36.5959 37.3561 31.8097C36.9288 30.2665 36.5332 28.5746 36.1665 26.9133C35.257 22.7925 34.1406 18.6487 32.2318 14.9867C31.0747 12.6114 29.2706 10.611 27.0269 9.21584C24.7832 7.82065 22.1913 7.08732 19.5492 7.10027C15.6114 7.10027 12.6695 8.96319 10.3583 11.3102C9.60684 12.0995 8.92528 12.9526 8.32129 13.8597C9.45896 14.1043 10.4863 14.7119 11.2486 15.5911C12.0109 16.4704 12.4667 17.5735 12.5475 18.7344C12.9053 22.0945 13.5388 25.4195 14.4414 28.6758C15.0971 26.5734 15.8889 24.5158 16.8119 22.5162C17.2699 21.4757 17.8868 20.5128 18.6407 19.6619C18.8081 19.4567 19.015 19.287 19.2491 19.1632C19.4832 19.0393 19.7398 18.9636 20.0037 18.9405C20.4433 18.9405 21.9442 19.3426 23.4055 24.4663C25.2177 30.8196 26.5664 40.9311 31.7047 46.2998C33.971 48.668 37.1425 50.2001 41.5379 50.2001C43.2923 50.1927 45.0269 49.8292 46.6366 49.1316C48.2464 48.4341 49.6977 47.417 50.9028 46.142C54.6723 42.2596 56.7378 35.8409 57.4746 33.4656C58.8179 29.0577 59.7394 24.5321 60.2267 19.9498C60.6166 16.2551 57.5018 13.684 54.3963 13.684Z" fill="url(#paint21_radial_13250_6178)"/>
<path d="M54.3963 13.684C53.9598 13.6836 53.5245 13.7256 53.0962 13.8094C55.1336 16.7449 56.153 19.8203 56.153 21.149C56.1971 22.1992 55.956 23.2417 55.4554 24.1659C54.9547 25.0902 54.2132 25.8616 53.3095 26.3984C52.4059 26.9352 50.8414 27.1949 50.3418 27.1949C49.8424 27.1949 48.2182 26.892 47.3171 26.3508V26.4747C47.0769 27.4335 46.8873 28.4829 46.5591 29.5041C45.9225 31.5457 45.1229 33.5328 44.1679 35.4462C43.1883 37.3173 42.2182 38.412 41.062 38.3546C39.7472 38.2893 38.6812 36.5959 37.3561 31.8097C36.9288 30.2665 36.5332 28.5746 36.1665 26.9133C35.257 22.7925 34.1406 18.6487 32.2318 14.9867C31.0747 12.6114 29.2706 10.611 27.0269 9.21584C24.7832 7.82065 22.1913 7.08732 19.5492 7.10027C15.6114 7.10027 12.6695 8.96319 10.3583 11.3102C9.60684 12.0995 8.92528 12.9526 8.32129 13.8597C9.45896 14.1043 10.4863 14.7119 11.2486 15.5911C12.0109 16.4704 12.4667 17.5735 12.5475 18.7344C12.9053 22.0945 13.5388 25.4195 14.4414 28.6758C15.0971 26.5734 15.8889 24.5158 16.8119 22.5162C17.2699 21.4757 17.8868 20.5128 18.6407 19.6619C18.8081 19.4567 19.015 19.287 19.2491 19.1632C19.4832 19.0393 19.7398 18.9636 20.0037 18.9405C20.4433 18.9405 21.9442 19.3426 23.4055 24.4663C25.2177 30.8196 26.5664 40.9311 31.7047 46.2998C33.971 48.668 37.1425 50.2001 41.5379 50.2001C43.2923 50.1927 45.0269 49.8292 46.6366 49.1316C48.2464 48.4341 49.6977 47.417 50.9028 46.142C54.6723 42.2596 56.7378 35.8409 57.4746 33.4656C58.8179 29.0577 59.7394 24.5321 60.2267 19.9498C60.6166 16.2551 57.5018 13.684 54.3963 13.684Z" fill="url(#paint22_radial_13250_6178)"/>
<path d="M54.3963 13.684C53.9598 13.6836 53.5245 13.7256 53.0962 13.8094C55.1336 16.7449 56.153 19.8203 56.153 21.149C56.1971 22.1992 55.956 23.2417 55.4554 24.1659C54.9547 25.0902 54.2132 25.8616 53.3095 26.3984C52.4059 26.9352 50.8414 27.1949 50.3418 27.1949C49.8424 27.1949 48.2182 26.892 47.3171 26.3508V26.4747C47.0769 27.4335 46.8873 28.4829 46.5591 29.5041C45.9225 31.5457 45.1229 33.5328 44.1679 35.4462C43.1883 37.3173 42.2182 38.412 41.062 38.3546C39.7472 38.2893 38.6812 36.5959 37.3561 31.8097C36.9288 30.2665 36.5332 28.5746 36.1665 26.9133C35.257 22.7925 34.1406 18.6487 32.2318 14.9867C31.0747 12.6114 29.2706 10.611 27.0269 9.21584C24.7832 7.82065 22.1913 7.08732 19.5492 7.10027C15.6114 7.10027 12.6695 8.96319 10.3583 11.3102C9.60684 12.0995 8.92528 12.9526 8.32129 13.8597C9.45896 14.1043 10.4863 14.7119 11.2486 15.5911C12.0109 16.4704 12.4667 17.5735 12.5475 18.7344C12.9053 22.0945 13.5388 25.4195 14.4414 28.6758C15.0971 26.5734 15.8889 24.5158 16.8119 22.5162C17.2699 21.4757 17.8868 20.5128 18.6407 19.6619C18.8081 19.4567 19.015 19.287 19.2491 19.1632C19.4832 19.0393 19.7398 18.9636 20.0037 18.9405C20.4433 18.9405 21.9442 19.3426 23.4055 24.4663C25.2177 30.8196 26.5664 40.9311 31.7047 46.2998C33.971 48.668 37.1425 50.2001 41.5379 50.2001C43.2923 50.1927 45.0269 49.8292 46.6366 49.1316C48.2464 48.4341 49.6977 47.417 50.9028 46.142C54.6723 42.2596 56.7378 35.8409 57.4746 33.4656C58.8179 29.0577 59.7394 24.5321 60.2267 19.9498C60.6166 16.2551 57.5018 13.684 54.3963 13.684Z" fill="url(#paint23_radial_13250_6178)"/>
<path d="M54.3963 13.684C53.9598 13.6836 53.5245 13.7256 53.0962 13.8094C55.1336 16.7449 56.153 19.8203 56.153 21.149C56.1971 22.1992 55.956 23.2417 55.4554 24.1659C54.9547 25.0902 54.2132 25.8616 53.3095 26.3984C52.4059 26.9352 50.8414 27.1949 50.3418 27.1949C49.8424 27.1949 48.2182 26.892 47.3171 26.3508V26.4747C47.0769 27.4335 46.8873 28.4829 46.5591 29.5041C45.9225 31.5457 45.1229 33.5328 44.1679 35.4462C43.1883 37.3173 42.2182 38.412 41.062 38.3546C39.7472 38.2893 38.6812 36.5959 37.3561 31.8097C36.9288 30.2665 36.5332 28.5746 36.1665 26.9133C35.257 22.7925 34.1406 18.6487 32.2318 14.9867C31.0747 12.6114 29.2706 10.611 27.0269 9.21584C24.7832 7.82065 22.1913 7.08732 19.5492 7.10027C15.6114 7.10027 12.6695 8.96319 10.3583 11.3102C9.60684 12.0995 8.92528 12.9526 8.32129 13.8597C9.45896 14.1043 10.4863 14.7119 11.2486 15.5911C12.0109 16.4704 12.4667 17.5735 12.5475 18.7344C12.9053 22.0945 13.5388 25.4195 14.4414 28.6758C15.0971 26.5734 15.8889 24.5158 16.8119 22.5162C17.2699 21.4757 17.8868 20.5128 18.6407 19.6619C18.8081 19.4567 19.015 19.287 19.2491 19.1632C19.4832 19.0393 19.7398 18.9636 20.0037 18.9405C20.4433 18.9405 21.9442 19.3426 23.4055 24.4663C25.2177 30.8196 26.5664 40.9311 31.7047 46.2998C33.971 48.668 37.1425 50.2001 41.5379 50.2001C43.2923 50.1927 45.0269 49.8292 46.6366 49.1316C48.2464 48.4341 49.6977 47.417 50.9028 46.142C54.6723 42.2596 56.7378 35.8409 57.4746 33.4656C58.8179 29.0577 59.7394 24.5321 60.2267 19.9498C60.6166 16.2551 57.5018 13.684 54.3963 13.684Z" fill="url(#paint24_radial_13250_6178)"/>
<path d="M54.3963 13.684C53.9598 13.6836 53.5245 13.7256 53.0962 13.8094C55.1336 16.7449 56.153 19.8203 56.153 21.149C56.1971 22.1992 55.956 23.2417 55.4554 24.1659C54.9547 25.0902 54.2132 25.8616 53.3095 26.3984C52.4059 26.9352 50.8414 27.1949 50.3418 27.1949C49.8424 27.1949 48.2182 26.892 47.3171 26.3508V26.4747C47.0769 27.4335 46.8873 28.4829 46.5591 29.5041C45.9225 31.5457 45.1229 33.5328 44.1679 35.4462C43.1883 37.3173 42.2182 38.412 41.062 38.3546C39.7472 38.2893 38.6812 36.5959 37.3561 31.8097C36.9288 30.2665 36.5332 28.5746 36.1665 26.9133C35.257 22.7925 34.1406 18.6487 32.2318 14.9867C31.0747 12.6114 29.2706 10.611 27.0269 9.21584C24.7832 7.82065 22.1913 7.08732 19.5492 7.10027C15.6114 7.10027 12.6695 8.96319 10.3583 11.3102C9.60684 12.0995 8.92528 12.9526 8.32129 13.8597C9.45896 14.1043 10.4863 14.7119 11.2486 15.5911C12.0109 16.4704 12.4667 17.5735 12.5475 18.7344C12.9053 22.0945 13.5388 25.4195 14.4414 28.6758C15.0971 26.5734 15.8889 24.5158 16.8119 22.5162C17.2699 21.4757 17.8868 20.5128 18.6407 19.6619C18.8081 19.4567 19.015 19.287 19.2491 19.1632C19.4832 19.0393 19.7398 18.9636 20.0037 18.9405C20.4433 18.9405 21.9442 19.3426 23.4055 24.4663C25.2177 30.8196 26.5664 40.9311 31.7047 46.2998C33.971 48.668 37.1425 50.2001 41.5379 50.2001C43.2923 50.1927 45.0269 49.8292 46.6366 49.1316C48.2464 48.4341 49.6977 47.417 50.9028 46.142C54.6723 42.2596 56.7378 35.8409 57.4746 33.4656C58.8179 29.0577 59.7394 24.5321 60.2267 19.9498C60.6166 16.2551 57.5018 13.684 54.3963 13.684Z" fill="url(#paint25_radial_13250_6178)"/>
<path d="M54.3963 13.684C53.9598 13.6836 53.5245 13.7256 53.0962 13.8094C55.1336 16.7449 56.153 19.8203 56.153 21.149C56.1971 22.1992 55.956 23.2417 55.4554 24.1659C54.9547 25.0902 54.2132 25.8616 53.3095 26.3984C52.4059 26.9352 50.8414 27.1949 50.3418 27.1949C49.8424 27.1949 48.2182 26.892 47.3171 26.3508V26.4747C47.0769 27.4335 46.8873 28.4829 46.5591 29.5041C45.9225 31.5457 45.1229 33.5328 44.1679 35.4462C43.1883 37.3173 42.2182 38.412 41.062 38.3546C39.7472 38.2893 38.6812 36.5959 37.3561 31.8097C36.9288 30.2665 36.5332 28.5746 36.1665 26.9133C35.257 22.7925 34.1406 18.6487 32.2318 14.9867C31.0747 12.6114 29.2706 10.611 27.0269 9.21584C24.7832 7.82065 22.1913 7.08732 19.5492 7.10027C15.6114 7.10027 12.6695 8.96319 10.3583 11.3102C9.60684 12.0995 8.92528 12.9526 8.32129 13.8597C9.45896 14.1043 10.4863 14.7119 11.2486 15.5911C12.0109 16.4704 12.4667 17.5735 12.5475 18.7344C12.9053 22.0945 13.5388 25.4195 14.4414 28.6758C15.0971 26.5734 15.8889 24.5158 16.8119 22.5162C17.2699 21.4757 17.8868 20.5128 18.6407 19.6619C18.8081 19.4567 19.015 19.287 19.2491 19.1632C19.4832 19.0393 19.7398 18.9636 20.0037 18.9405C20.4433 18.9405 21.9442 19.3426 23.4055 24.4663C25.2177 30.8196 26.5664 40.9311 31.7047 46.2998C33.971 48.668 37.1425 50.2001 41.5379 50.2001C43.2923 50.1927 45.0269 49.8292 46.6366 49.1316C48.2464 48.4341 49.6977 47.417 50.9028 46.142C54.6723 42.2596 56.7378 35.8409 57.4746 33.4656C58.8179 29.0577 59.7394 24.5321 60.2267 19.9498C60.6166 16.2551 57.5018 13.684 54.3963 13.684Z" fill="url(#paint26_radial_13250_6178)"/>
<path d="M54.3963 13.684C53.9598 13.6836 53.5245 13.7256 53.0962 13.8094C55.1336 16.7449 56.153 19.8203 56.153 21.149C56.1971 22.1992 55.956 23.2417 55.4554 24.1659C54.9547 25.0902 54.2132 25.8616 53.3095 26.3984C52.4059 26.9352 50.8414 27.1949 50.3418 27.1949C49.8424 27.1949 48.2182 26.892 47.3171 26.3508V26.4747C47.0769 27.4335 46.8873 28.4829 46.5591 29.5041C45.9225 31.5457 45.1229 33.5328 44.1679 35.4462C43.1883 37.3173 42.2182 38.412 41.062 38.3546C39.7472 38.2893 38.6812 36.5959 37.3561 31.8097C36.9288 30.2665 36.5332 28.5746 36.1665 26.9133C35.257 22.7925 34.1406 18.6487 32.2318 14.9867C31.0747 12.6114 29.2706 10.611 27.0269 9.21584C24.7832 7.82065 22.1913 7.08732 19.5492 7.10027C15.6114 7.10027 12.6695 8.96319 10.3583 11.3102C9.60684 12.0995 8.92528 12.9526 8.32129 13.8597C9.45896 14.1043 10.4863 14.7119 11.2486 15.5911C12.0109 16.4704 12.4667 17.5735 12.5475 18.7344C12.9053 22.0945 13.5388 25.4195 14.4414 28.6758C15.0971 26.5734 15.8889 24.5158 16.8119 22.5162C17.2699 21.4757 17.8868 20.5128 18.6407 19.6619C18.8081 19.4567 19.015 19.287 19.2491 19.1632C19.4832 19.0393 19.7398 18.9636 20.0037 18.9405C20.4433 18.9405 21.9442 19.3426 23.4055 24.4663C25.2177 30.8196 26.5664 40.9311 31.7047 46.2998C33.971 48.668 37.1425 50.2001 41.5379 50.2001C43.2923 50.1927 45.0269 49.8292 46.6366 49.1316C48.2464 48.4341 49.6977 47.417 50.9028 46.142C54.6723 42.2596 56.7378 35.8409 57.4746 33.4656C58.8179 29.0577 59.7394 24.5321 60.2267 19.9498C60.6166 16.2551 57.5018 13.684 54.3963 13.684Z" fill="url(#paint27_radial_13250_6178)"/>
<path d="M19.3874 50.0292C8.41432 50.0292 4.67963 36.1632 3.84278 33.4655C2.49428 29.0558 1.55427 24.5315 1.03464 19.9496C0.64453 16.255 3.61025 13.6839 6.86554 13.6839C8.28408 13.6277 9.6695 14.1218 10.7324 15.063C11.7953 16.0042 12.4534 17.3196 12.5694 18.7346C12.9818 22.6149 13.7652 26.4469 14.9087 30.1777C16.7585 36.0777 18.7208 38.3464 20.1339 38.3464C22.416 38.3464 23.8084 32.4897 25.0394 26.913C25.9462 22.8044 26.9266 18.6642 28.8619 14.9865C32.2287 8.58886 37.3168 7.1001 41.7122 7.1001C51.3507 7.1001 56.1745 18.2582 56.1745 21.1491C56.2196 21.9227 56.1073 22.6974 55.8445 23.4264C55.5817 24.1554 55.1737 24.8234 54.6453 25.3903C54.1169 25.957 53.4791 26.4108 52.7703 26.724C52.0615 27.0372 51.2966 27.2035 50.5218 27.2126C46.7834 27.2126 45.5162 24.7097 44.4495 22.516C43.4901 20.5423 42.488 18.9013 41.1924 18.9013C40.9656 18.9139 40.7436 18.9723 40.54 19.073C40.3362 19.1737 40.155 19.3146 40.0072 19.4872C36.7872 22.7574 35.7074 39.8653 29.269 46.4044C25.6998 50.0292 21.8162 50.0292 19.3874 50.0292Z" fill="url(#paint28_linear_13250_6178)"/>
<path d="M19.3874 50.0292C8.41432 50.0292 4.67963 36.1632 3.84278 33.4655C2.49428 29.0558 1.55427 24.5315 1.03464 19.9496C0.64453 16.255 3.61025 13.6839 6.86554 13.6839C8.28408 13.6277 9.6695 14.1218 10.7324 15.063C11.7953 16.0042 12.4534 17.3196 12.5694 18.7346C12.9818 22.6149 13.7652 26.4469 14.9087 30.1777C16.7585 36.0777 18.7208 38.3464 20.1339 38.3464C22.416 38.3464 23.8084 32.4897 25.0394 26.913C25.9462 22.8044 26.9266 18.6642 28.8619 14.9865C32.2287 8.58886 37.3168 7.1001 41.7122 7.1001C51.3507 7.1001 56.1745 18.2582 56.1745 21.1491C56.2196 21.9227 56.1073 22.6974 55.8445 23.4264C55.5817 24.1554 55.1737 24.8234 54.6453 25.3903C54.1169 25.957 53.4791 26.4108 52.7703 26.724C52.0615 27.0372 51.2966 27.2035 50.5218 27.2126C46.7834 27.2126 45.5162 24.7097 44.4495 22.516C43.4901 20.5423 42.488 18.9013 41.1924 18.9013C40.9656 18.9139 40.7436 18.9723 40.54 19.073C40.3362 19.1737 40.155 19.3146 40.0072 19.4872C36.7872 22.7574 35.7074 39.8653 29.269 46.4044C25.6998 50.0292 21.8162 50.0292 19.3874 50.0292Z" fill="url(#paint29_linear_13250_6178)"/>
<path d="M19.3874 50.0292C8.41432 50.0292 4.67963 36.1632 3.84278 33.4655C2.49428 29.0558 1.55427 24.5315 1.03464 19.9496C0.64453 16.255 3.61025 13.6839 6.86554 13.6839C8.28408 13.6277 9.6695 14.1218 10.7324 15.063C11.7953 16.0042 12.4534 17.3196 12.5694 18.7346C12.9818 22.6149 13.7652 26.4469 14.9087 30.1777C16.7585 36.0777 18.7208 38.3464 20.1339 38.3464C22.416 38.3464 23.8084 32.4897 25.0394 26.913C25.9462 22.8044 26.9266 18.6642 28.8619 14.9865C32.2287 8.58886 37.3168 7.1001 41.7122 7.1001C51.3507 7.1001 56.1745 18.2582 56.1745 21.1491C56.2196 21.9227 56.1073 22.6974 55.8445 23.4264C55.5817 24.1554 55.1737 24.8234 54.6453 25.3903C54.1169 25.957 53.4791 26.4108 52.7703 26.724C52.0615 27.0372 51.2966 27.2035 50.5218 27.2126C46.7834 27.2126 45.5162 24.7097 44.4495 22.516C43.4901 20.5423 42.488 18.9013 41.1924 18.9013C40.9656 18.9139 40.7436 18.9723 40.54 19.073C40.3362 19.1737 40.155 19.3146 40.0072 19.4872C36.7872 22.7574 35.7074 39.8653 29.269 46.4044C25.6998 50.0292 21.8162 50.0292 19.3874 50.0292Z" fill="url(#paint30_linear_13250_6178)"/>
<path d="M19.3874 50.0292C8.41432 50.0292 4.67963 36.1632 3.84278 33.4655C2.49428 29.0558 1.55427 24.5315 1.03464 19.9496C0.64453 16.255 3.61025 13.6839 6.86554 13.6839C8.28408 13.6277 9.6695 14.1218 10.7324 15.063C11.7953 16.0042 12.4534 17.3196 12.5694 18.7346C12.9818 22.6149 13.7652 26.4469 14.9087 30.1777C16.7585 36.0777 18.7208 38.3464 20.1339 38.3464C22.416 38.3464 23.8084 32.4897 25.0394 26.913C25.9462 22.8044 26.9266 18.6642 28.8619 14.9865C32.2287 8.58886 37.3168 7.1001 41.7122 7.1001C51.3507 7.1001 56.1745 18.2582 56.1745 21.1491C56.2196 21.9227 56.1073 22.6974 55.8445 23.4264C55.5817 24.1554 55.1737 24.8234 54.6453 25.3903C54.1169 25.957 53.4791 26.4108 52.7703 26.724C52.0615 27.0372 51.2966 27.2035 50.5218 27.2126C46.7834 27.2126 45.5162 24.7097 44.4495 22.516C43.4901 20.5423 42.488 18.9013 41.1924 18.9013C40.9656 18.9139 40.7436 18.9723 40.54 19.073C40.3362 19.1737 40.155 19.3146 40.0072 19.4872C36.7872 22.7574 35.7074 39.8653 29.269 46.4044C25.6998 50.0292 21.8162 50.0292 19.3874 50.0292Z" fill="url(#paint31_radial_13250_6178)"/>
<path d="M200.374 57.1284H197.575V68.2522H200.374V57.1284Z" fill="white"/>
<path d="M223.061 60.3152C222.335 59.9227 221.522 59.7189 220.697 59.7226C218.875 59.7226 217.612 60.9854 217.612 62.6889C217.612 64.3427 218.822 65.6583 220.697 65.6583C221.522 65.6602 222.334 65.4576 223.061 65.0688V68.0538C222.229 68.3088 221.365 68.4416 220.495 68.4478C217.332 68.4478 214.558 66.2758 214.558 62.6889C214.558 59.3689 217.071 56.9331 220.495 56.9331C221.366 56.9353 222.231 57.069 223.061 57.3303V60.3152Z" fill="white"/>
<path d="M193.695 60.3152C192.969 59.9215 192.156 59.7176 191.331 59.7226C189.508 59.7226 188.249 60.9854 188.249 62.6889C188.249 64.3427 189.455 65.6583 191.331 65.6583C192.155 65.6602 192.968 65.4576 193.695 65.0688V68.0538C192.863 68.3091 191.999 68.4419 191.129 68.4478C187.966 68.4478 185.194 66.2758 185.194 62.6889C185.194 59.3689 187.704 56.9331 191.129 56.9331C191.999 56.9353 192.864 57.069 193.695 57.3303V60.3152Z" fill="white"/>
<path d="M231.91 59.7629C231.525 59.7595 231.143 59.833 230.788 59.9792C230.432 60.1253 230.108 60.3413 229.837 60.614C229.567 60.8868 229.353 61.2107 229.21 61.5672C229.066 61.9234 228.996 62.3051 229.002 62.6889C228.995 63.073 229.065 63.455 229.209 63.8115C229.352 64.1684 229.565 64.4929 229.836 64.766C230.107 65.039 230.431 65.255 230.787 65.4014C231.143 65.5479 231.525 65.6214 231.91 65.618C232.296 65.6214 232.678 65.5479 233.034 65.4014C233.39 65.255 233.714 65.039 233.985 64.766C234.256 64.4932 234.47 64.1687 234.614 63.8118C234.758 63.455 234.828 63.0734 234.821 62.6889C234.828 62.3048 234.757 61.9234 234.613 61.5669C234.469 61.2104 234.255 60.8865 233.984 60.6137C233.713 60.341 233.389 60.1253 233.033 59.9792C232.677 59.833 232.295 59.7595 231.91 59.7629ZM237.801 62.6889C237.801 65.8724 235.341 68.4478 231.91 68.4478C228.48 68.4478 226.022 65.8724 226.022 62.6889C226.022 59.5054 228.483 56.9331 231.91 56.9331C235.338 56.9331 237.801 59.5116 237.801 62.6889Z" fill="white"/>
<path d="M211.044 59.6573C210.324 59.4612 209.584 59.3489 208.838 59.3222C207.713 59.3222 207.1 59.6976 207.1 60.2313C207.1 60.9109 207.927 61.1622 208.388 61.2925L209.165 61.5376C210.991 62.1179 211.824 63.3652 211.824 64.7212C211.824 67.5137 209.361 68.4446 207.206 68.4446C206.186 68.4325 205.17 68.3286 204.17 68.1343V65.5745C205.034 65.8242 205.927 65.9629 206.826 65.9871C208.229 65.9871 208.87 65.5807 208.87 64.9477C208.87 64.3861 208.313 64.0603 207.625 63.84L207.025 63.6476C205.47 63.1542 204.151 62.2358 204.151 60.3927C204.151 58.3138 205.706 56.9175 208.307 56.9175C209.231 56.9302 210.15 57.0487 211.047 57.2712L211.044 59.6573Z" fill="white"/>
<path d="M165.544 68.2151H164.321V57.1162H165.805V61.3082C166.102 60.8744 166.505 60.5238 166.976 60.2892C167.446 60.0546 167.97 59.9438 168.495 59.9677C169.01 59.9432 169.523 60.0434 169.992 60.2597C170.459 60.4757 170.868 60.8015 171.182 61.2089C171.749 61.9495 172.032 62.931 172.032 64.1535C172.032 65.6016 171.646 66.7112 170.875 67.4829C170.548 67.8056 170.159 68.0584 169.731 68.2254C169.303 68.3923 168.846 68.4702 168.386 68.4541C167.876 68.4801 167.368 68.3749 166.91 68.1481C166.453 67.9216 166.061 67.5812 165.774 67.1602L165.544 68.2151ZM170.489 64.1132C170.489 63.1057 170.236 62.3507 169.73 61.8481C169.525 61.6408 169.279 61.4785 169.007 61.3718C168.736 61.2647 168.445 61.2157 168.153 61.2275C167.812 61.2151 167.472 61.2821 167.161 61.4239C166.85 61.5657 166.576 61.7776 166.362 62.0436C165.921 62.6396 165.701 63.37 165.74 64.1101C165.74 65.1371 165.995 65.9252 166.498 66.4682C166.707 66.7019 166.964 66.8868 167.252 67.0097C167.54 67.1325 167.852 67.1903 168.166 67.1788C168.508 67.198 168.849 67.1301 169.158 66.9814C169.466 66.8325 169.732 66.6079 169.929 66.3286C170.343 65.6664 170.539 64.8917 170.489 64.1132Z" fill="white"/>
<path d="M179.974 60.1971L177.175 68.3204C176.805 69.4002 176.447 70.1356 176.108 70.5265C175.917 70.7509 175.679 70.9296 175.41 71.0494C175.141 71.1691 174.848 71.2269 174.553 71.2185C174.23 71.2101 173.908 71.1645 173.595 71.082V69.8718C173.848 69.9389 174.108 69.9752 174.369 69.9804C174.51 69.9873 174.651 69.9609 174.78 69.9032C174.908 69.8455 175.021 69.7583 175.11 69.6484C175.395 69.2001 175.619 68.716 175.775 68.2087H175.296L172.345 60.1909H173.953L176.223 67.0172L178.494 60.1909L179.974 60.1971Z" fill="white"/>
<path d="M113.895 15.9556H120.17L111.047 43.5335H103.848L97.0291 22.7227L90.2101 43.5335H83.1236L74 15.9556H80.4219L86.8956 36.913L93.6886 15.9556H100.508L107.413 37.0252L113.895 15.9556Z" fill="white"/>
<path d="M147.084 31.9589H126.73C126.918 33.381 127.452 34.7354 128.284 35.9035C129.021 36.9257 130.02 37.7306 131.176 38.2341C132.352 38.7424 133.623 38.9982 134.904 38.985C136.325 38.9796 137.734 38.7225 139.065 38.2254C140.445 37.7209 141.733 36.9949 142.88 36.0762L145.875 40.392C144.348 41.7237 142.569 42.7362 140.644 43.3699C138.667 43.9904 136.605 44.2963 134.533 44.2762C131.981 44.3265 129.461 43.7075 127.222 42.4808C125.105 41.2943 123.371 39.5274 122.225 37.3882C120.991 35.0434 120.374 32.4239 120.429 29.7751C120.376 27.1513 120.969 24.5547 122.156 22.2139C123.258 20.0847 124.94 18.3104 127.006 17.0953C129.175 15.8472 131.643 15.2146 134.145 15.2654C136.506 15.2001 138.835 15.8167 140.854 17.0414C142.873 18.2662 144.497 20.047 145.53 22.1707C146.67 24.5192 147.238 27.1045 147.187 29.7147C147.196 30.293 147.161 31.044 147.084 31.9589ZM141.041 27.3842C140.856 25.4942 140.045 23.7201 138.737 22.3433C138.11 21.7556 137.371 21.3 136.564 21.0034C135.758 20.7069 134.9 20.5755 134.041 20.617C133.138 20.5757 132.235 20.7163 131.387 21.0307C130.539 21.345 129.762 21.8267 129.104 22.4469C127.8 23.8035 126.968 25.5437 126.73 27.4101L141.041 27.3842Z" fill="white"/>
<path d="M172.831 17.1124C174.931 18.3543 176.653 20.1447 177.812 22.2913C179.051 24.5792 179.681 27.1473 179.642 29.749C179.681 32.3479 179.051 34.9133 177.812 37.1981C176.653 39.3545 174.924 41.152 172.815 42.3953C170.706 43.6386 168.297 44.2801 165.848 44.2501C164.13 44.2861 162.427 43.9288 160.868 43.2056C159.439 42.5167 158.19 41.5063 157.217 40.2536V43.5336H151.175V4.2168H157.217V19.2357C158.194 17.9915 159.443 16.9876 160.868 16.301C162.425 15.5707 164.129 15.2103 165.848 15.248C168.303 15.2179 170.719 15.8629 172.831 17.1124ZM169.534 37.4052C170.787 36.6347 171.796 35.5242 172.443 34.2029C173.107 32.8105 173.452 31.2873 173.452 29.7447C173.452 28.2021 173.107 26.6789 172.443 25.2865C171.793 23.967 170.785 22.8572 169.534 22.0842C168.204 21.3234 166.699 20.9231 165.167 20.9231C163.634 20.9231 162.129 21.3234 160.799 22.0842C159.545 22.8459 158.528 23.9431 157.864 25.252C157.146 26.6499 156.785 28.2036 156.811 29.7749C156.784 31.3436 157.146 32.8946 157.864 34.2892C158.528 35.5981 159.545 36.6953 160.799 37.457C162.129 38.2178 163.634 38.618 165.167 38.618C166.699 38.618 168.204 38.2178 169.534 37.457V37.4052Z" fill="white"/>
<path d="M209.455 31.9585H189.111C189.299 33.3806 189.832 34.7349 190.664 35.9031C191.402 36.9253 192.401 37.7302 193.556 38.2337C194.733 38.7419 196.003 38.9977 197.285 38.9846C198.706 38.9779 200.114 38.7208 201.445 38.225C202.825 37.7204 204.114 36.9945 205.26 36.0758L208.247 40.3915C206.724 41.725 204.948 42.7378 203.025 43.3694C201.045 43.9895 198.98 44.2953 196.905 44.2758C194.353 44.3233 191.833 43.7044 189.594 42.4804C187.481 41.2911 185.751 39.5246 184.605 37.3878C183.369 35.0436 182.748 32.4242 182.801 29.7747C182.749 27.1509 183.341 24.5544 184.527 22.2134C185.63 20.0843 187.311 18.3099 189.378 17.0949C191.559 15.8286 194.047 15.1866 196.568 15.2391C198.929 15.177 201.257 15.795 203.275 17.0193C205.294 18.2437 206.918 20.0227 207.953 22.1444C209.094 24.4929 209.662 27.0781 209.611 29.6884C209.576 30.2926 209.516 31.0435 209.455 31.9585ZM203.413 27.3838C203.214 25.5059 202.401 23.7462 201.1 22.3774C200.477 21.7865 199.742 21.3263 198.939 21.0238C198.135 20.7214 197.28 20.5829 196.422 20.6166C195.518 20.5742 194.615 20.7145 193.767 21.0289C192.918 21.3433 192.142 21.8254 191.484 22.4465C190.178 23.801 189.345 25.5422 189.111 27.4096L203.413 27.3838Z" fill="white"/>
<path d="M238.156 43.5335H230.758L223.767 33.9438L216.862 43.5335H209.81L220.167 29.4554L209.974 15.9556H217.379L224.112 25.1655L230.845 15.9556H238L227.763 29.4036L238.156 43.5335Z" fill="white"/>
<defs>
<linearGradient id="paint0_linear_13250_6178" x1="50.2784" y1="20.0245" x2="11.5212" y2="32.7452" gradientUnits="userSpaceOnUse">
<stop stop-color="white"/>
<stop offset="1" stop-color="#F5F5F5"/>
</linearGradient>
<radialGradient id="paint1_radial_13250_6178" cx="0" cy="0" r="1" gradientTransform="matrix(-13.0257 -21.7813 18.2919 -10.9396 23.5537 29.9885)" gradientUnits="userSpaceOnUse">
<stop stop-color="#B7B7B7"/>
<stop offset="0.4079" stop-color="#B5B5B5" stop-opacity="0.75"/>
<stop offset="0.8745" stop-color="#B6B6B6" stop-opacity="0"/>
</radialGradient>
<radialGradient id="paint2_radial_13250_6178" cx="0" cy="0" r="1" gradientTransform="matrix(-12.3866 -16.5839 10.8988 -8.1408 40.2448 25.2737)" gradientUnits="userSpaceOnUse">
<stop stop-color="#CACACA"/>
<stop offset="0.4595" stop-color="#C7C7C7"/>
<stop offset="1" stop-color="#ACACAC" stop-opacity="0"/>
</radialGradient>
<radialGradient id="paint3_radial_13250_6178" cx="0" cy="0" r="1" gradientTransform="matrix(-5.06311 -16.0762 8.38071 -2.63961 22.1042 31.1857)" gradientUnits="userSpaceOnUse">
<stop stop-color="#CDCDCD"/>
<stop offset="0.4079" stop-color="#C8C8C8" stop-opacity="0.79"/>
<stop offset="0.8745" stop-color="#B6B6B6" stop-opacity="0"/>
</radialGradient>
<radialGradient id="paint4_radial_13250_6178" cx="0" cy="0" r="1" gradientTransform="matrix(-18.6272 -40.696 12.5579 -5.74829 26.2531 35.0477)" gradientUnits="userSpaceOnUse">
<stop stop-color="#A2A2A2" stop-opacity="0.78"/>
<stop offset="1" stop-color="#A2A2A2" stop-opacity="0"/>
</radialGradient>
<radialGradient id="paint5_radial_13250_6178" cx="0" cy="0" r="1" gradientTransform="matrix(3.60314 20.8877 -11.8566 2.04539 35.0074 20.9055)" gradientUnits="userSpaceOnUse">
<stop stop-color="#AEAEAE"/>
<stop offset="0.2326" stop-color="#AEAEAE" stop-opacity="0.75"/>
<stop offset="0.5989" stop-color="#AEAEAE" stop-opacity="0.3008"/>
<stop offset="0.8745" stop-color="#AEAEAE" stop-opacity="0"/>
</radialGradient>
<radialGradient id="paint6_radial_13250_6178" cx="0" cy="0" r="1" gradientTransform="matrix(10.307 15.9055 -8.34499 5.40798 37.9418 -0.319701)" gradientUnits="userSpaceOnUse">
<stop stop-color="#E1E1E1"/>
<stop offset="0.4079" stop-color="#E7E7E7"/>
<stop offset="1" stop-color="#E7E7E7" stop-opacity="0.07"/>
</radialGradient>
<linearGradient id="paint7_linear_13250_6178" x1="-13.5806" y1="28.2014" x2="13.89" y2="28.4275" gradientUnits="userSpaceOnUse">
<stop stop-color="#FAFAFA"/>
<stop offset="1" stop-color="#F8F8F8" stop-opacity="0"/>
</linearGradient>
<radialGradient id="paint8_radial_13250_6178" cx="0" cy="0" r="1" gradientTransform="matrix(33.6054 37.308 -37.2514 33.5564 12.1642 -8.98778)" gradientUnits="userSpaceOnUse">
<stop stop-color="#F5F5F5"/>
<stop offset="0.7454" stop-color="#F4F4F4" stop-opacity="0"/>
</radialGradient>
<radialGradient id="paint9_radial_13250_6178" cx="0" cy="0" r="1" gradientTransform="matrix(-7.26833 -23.0782 16.001 -5.03973 14.8099 28.6505)" gradientUnits="userSpaceOnUse">
<stop stop-color="#F5F5F5" stop-opacity="0.76"/>
<stop offset="0.5727" stop-color="#F4F4F4" stop-opacity="0"/>
</radialGradient>
<radialGradient id="paint10_radial_13250_6178" cx="0" cy="0" r="1" gradientTransform="matrix(-10.9027 -13.1917 9.23667 -7.63441 51.6284 19.4559)" gradientUnits="userSpaceOnUse">
<stop stop-color="white"/>
<stop offset="1" stop-color="#F4F4F4" stop-opacity="0"/>
</radialGradient>
<radialGradient id="paint11_radial_13250_6178" cx="0" cy="0" r="1" gradientTransform="matrix(0.980693 -5.08598 3.52034 0.678842 49.1816 30.4886)" gradientUnits="userSpaceOnUse">
<stop stop-color="#CDCDCD"/>
<stop offset="1" stop-color="#BCBCBC" stop-opacity="0"/>
</radialGradient>
<radialGradient id="paint12_radial_13250_6178" cx="0" cy="0" r="1" gradientTransform="matrix(73.5274 -342.108 372.192 79.9981 -106989 35283.9)" gradientUnits="userSpaceOnUse">
<stop stop-color="#CDCDCD"/>
<stop offset="1" stop-color="#BCBCBC" stop-opacity="0"/>
</radialGradient>
<radialGradient id="paint13_radial_13250_6178" cx="0" cy="0" r="1" gradientTransform="matrix(-9.62984 -10.3945 7.30252 -6.76573 54.0146 22.423)" gradientUnits="userSpaceOnUse">
<stop stop-color="white"/>
<stop offset="0.8133" stop-color="white" stop-opacity="0"/>
</radialGradient>
<linearGradient id="paint14_linear_13250_6178" x1="24.2328" y1="62.6585" x2="16.8248" y2="42.1188" gradientUnits="userSpaceOnUse">
<stop offset="0.2293" stop-color="white"/>
<stop offset="1" stop-color="white" stop-opacity="0"/>
</linearGradient>
<radialGradient id="paint15_radial_13250_6178" cx="0" cy="0" r="1" gradientTransform="matrix(10.0077 7.66078 -10.6457 13.9079 49.5855 26.471)" gradientUnits="userSpaceOnUse">
<stop stop-color="#D2D2D2"/>
<stop offset="0.9661" stop-color="#D2D2D2" stop-opacity="0"/>
</radialGradient>
<radialGradient id="paint16_radial_13250_6178" cx="0" cy="0" r="1" gradientTransform="matrix(14.7123 2.19332 -3.27113 21.9433 46.4493 27.9048)" gradientUnits="userSpaceOnUse">
<stop stop-color="#D2D2D2"/>
<stop offset="0.5925" stop-color="#D2D2D2" stop-opacity="0"/>
</radialGradient>
<radialGradient id="paint17_radial_13250_6178" cx="0" cy="0" r="1" gradientTransform="matrix(11.5473 5.2979 -9.43492 20.5657 47.6542 29.7506)" gradientUnits="userSpaceOnUse">
<stop stop-color="#D2D2D2"/>
<stop offset="0.7568" stop-color="#D2D2D2" stop-opacity="0"/>
</radialGradient>
<radialGradient id="paint18_radial_13250_6178" cx="0" cy="0" r="1" gradientTransform="matrix(20.8759 -21.5499 17.3186 16.7779 47.1294 25.2828)" gradientUnits="userSpaceOnUse">
<stop offset="0.0648007" stop-color="#4F4F4F"/>
<stop offset="0.519024" stop-color="#D5D5D5" stop-opacity="0"/>
</radialGradient>
<radialGradient id="paint19_radial_13250_6178" cx="0" cy="0" r="1" gradientTransform="matrix(-2.30949 22.7069 -12.4534 -1.2667 46.17 30.4963)" gradientUnits="userSpaceOnUse">
<stop stop-color="#D2D2D2"/>
<stop offset="0.5925" stop-color="#D2D2D2" stop-opacity="0"/>
<stop offset="1" stop-color="#D2D2D2" stop-opacity="0"/>
</radialGradient>
<radialGradient id="paint20_radial_13250_6178" cx="0" cy="0" r="1" gradientTransform="matrix(-1.7582 27.4114 -9.79029 -0.627998 49.5787 20.4333)" gradientUnits="userSpaceOnUse">
<stop stop-color="#D2D2D2"/>
<stop offset="0.8846" stop-color="#D2D2D2" stop-opacity="0"/>
</radialGradient>
<radialGradient id="paint21_radial_13250_6178" cx="0" cy="0" r="1" gradientTransform="matrix(9.09109 -22.5601 8.9841 3.62057 7.39797 31.6805)" gradientUnits="userSpaceOnUse">
<stop stop-color="#B3B3B3"/>
<stop offset="1" stop-color="#B0B0B0" stop-opacity="0"/>
</radialGradient>
<radialGradient id="paint22_radial_13250_6178" cx="0" cy="0" r="1" gradientTransform="matrix(14.6017 -5.95812 11.639 28.5256 22.8865 40.0984)" gradientUnits="userSpaceOnUse">
<stop stop-color="#F7F7F7"/>
<stop offset="0.709" stop-color="#F9F9F9" stop-opacity="0"/>
</radialGradient>
<radialGradient id="paint23_radial_13250_6178" cx="0" cy="0" r="1" gradientTransform="matrix(14.6017 -5.95812 11.639 28.5256 22.8865 40.0984)" gradientUnits="userSpaceOnUse">
<stop stop-color="#F7F7F7"/>
<stop offset="0.709" stop-color="#F9F9F9" stop-opacity="0"/>
</radialGradient>
<radialGradient id="paint24_radial_13250_6178" cx="0" cy="0" r="1" gradientTransform="matrix(18.5189 8.41795 -8.49171 18.6823 12.1119 21.5789)" gradientUnits="userSpaceOnUse">
<stop stop-color="#ADADAD"/>
<stop offset="0.7614" stop-color="#D2D2D2" stop-opacity="0"/>
</radialGradient>
<radialGradient id="paint25_radial_13250_6178" cx="0" cy="0" r="1" gradientTransform="matrix(7.74425 -0.336716 0.488292 11.2311 17.8359 19.8953)" gradientUnits="userSpaceOnUse">
<stop stop-color="#ADADAD"/>
<stop offset="0.7614" stop-color="#D2D2D2" stop-opacity="0"/>
</radialGradient>
<radialGradient id="paint26_radial_13250_6178" cx="0" cy="0" r="1" gradientTransform="matrix(7.07084 -2.0203 4.23997 14.8403 20.1928 27.3032)" gradientUnits="userSpaceOnUse">
<stop stop-color="#B1B1B1"/>
<stop offset="1" stop-color="#D2D2D2" stop-opacity="0"/>
</radialGradient>
<radialGradient id="paint27_radial_13250_6178" cx="0" cy="0" r="1" gradientTransform="matrix(7.74428 -9.76481 9.17616 7.27788 10.0916 21.9157)" gradientUnits="userSpaceOnUse">
<stop stop-color="#807F7F"/>
<stop offset="1" stop-color="#D2D2D2" stop-opacity="0"/>
</radialGradient>
<linearGradient id="paint28_linear_13250_6178" x1="2.04314" y1="10.3459" x2="23.1732" y2="23.8431" gradientUnits="userSpaceOnUse">
<stop offset="0.2293" stop-color="white"/>
<stop offset="1" stop-color="white" stop-opacity="0"/>
</linearGradient>
<linearGradient id="paint29_linear_13250_6178" x1="6.72403" y1="61.985" x2="16.8257" y2="42.1189" gradientUnits="userSpaceOnUse">
<stop offset="0.2293" stop-color="white"/>
<stop offset="1" stop-color="white" stop-opacity="0"/>
</linearGradient>
<linearGradient id="paint30_linear_13250_6178" x1="7.50427" y1="7.61312" x2="13.4298" y2="12.9892" gradientUnits="userSpaceOnUse">
<stop stop-color="white"/>
<stop offset="0.6373" stop-color="#F8F8F8" stop-opacity="0"/>
</linearGradient>
<radialGradient id="paint31_radial_13250_6178" cx="0" cy="0" r="1" gradientTransform="matrix(-10.1012 0.67342 -2.03596 -30.5409 12.448 21.5789)" gradientUnits="userSpaceOnUse">
<stop stop-color="#D1D1D1"/>
<stop offset="0.580386" stop-color="#D1D1D1" stop-opacity="0"/>
</radialGradient>
</defs>
</svg>
