<svg width="163" height="28" viewBox="0 0 163 28" fill="none" xmlns="http://www.w3.org/2000/svg">
<path fill-rule="evenodd" clip-rule="evenodd" d="M52.6993 10.2062C52.112 9.11709 51.2395 8.20812 50.1753 7.57656C49.1023 6.94024 47.8751 6.61116 46.6276 6.62534C45.7565 6.60816 44.893 6.7911 44.1036 7.16011C43.3786 7.51073 42.7434 8.02285 42.2469 8.65713V1.03003H39.1929V20.993H42.2469V19.3272C42.7438 19.9615 43.3788 20.474 44.1036 20.8258C44.8935 21.1935 45.7567 21.3758 46.6276 21.359C47.87 21.372 49.0922 21.0455 50.1624 20.4144C51.2324 19.7832 52.1098 18.8716 52.6993 17.7781C53.309 16.6092 53.6273 15.3104 53.6273 13.9922C53.6273 12.6739 53.309 11.3751 52.6993 10.2062ZM49.9782 16.2574C49.6491 16.9261 49.1378 17.4883 48.5032 17.879C47.8298 18.2693 47.0657 18.476 46.2872 18.4785C45.5089 18.481 44.7435 18.2792 44.0673 17.8932C43.431 17.5061 42.9148 16.9496 42.5766 16.2858C42.2261 15.5718 42.0438 14.7869 42.0438 13.9914C42.0438 13.1959 42.2261 12.411 42.5766 11.6969C42.9148 11.0332 43.431 10.4767 44.0673 10.0895C44.7435 9.70355 45.5089 9.50175 46.2872 9.50424C47.0657 9.50672 47.8298 9.71343 48.5032 10.1037C49.1378 10.4951 49.6491 11.0578 49.9782 11.7269C50.3157 12.4344 50.4908 13.2083 50.4908 13.9922C50.4908 14.776 50.3157 15.55 49.9782 16.2574Z" fill="white"/>
<path fill-rule="evenodd" clip-rule="evenodd" d="M37.1107 15.1168H26.7719C26.8675 15.8384 27.1383 16.5257 27.5606 17.1186C27.9368 17.6365 28.4437 18.0452 29.0292 18.3033C29.6271 18.5595 30.2718 18.6885 30.9222 18.6819C31.6431 18.6787 32.3577 18.5478 33.0329 18.2954C33.7334 18.04 34.3876 17.6725 34.97 17.207L36.4891 19.3839C35.7154 20.0605 34.8137 20.5749 33.8374 20.8967C32.8327 21.2123 31.7845 21.3677 30.7313 21.3573C29.434 21.3822 28.1528 21.0674 27.0148 20.4439C25.944 19.8399 25.0683 18.9423 24.4908 17.8569C23.8819 16.7421 23.5775 15.4538 23.5775 13.992C23.5513 12.66 23.8548 11.3421 24.4609 10.1556C25.0193 9.07315 25.8732 8.17116 26.9233 7.55435C28.0263 6.92185 29.2804 6.60072 30.5515 6.62522C31.7636 6.60317 32.9572 6.92533 33.9936 7.55435C34.9973 8.18361 35.8042 9.0822 36.3219 10.1477C36.9005 11.3396 37.1887 12.6516 37.1627 13.9763C37.1627 14.2697 37.1454 14.6499 37.1107 15.1168ZM34.0346 12.7932C33.8696 11.7015 33.4773 10.8539 32.8578 10.2503C32.2385 9.64661 31.4497 9.34479 30.4916 9.34479C29.4484 9.34479 28.6128 9.65398 27.9849 10.2723C27.3571 10.8907 26.9555 11.732 26.7798 12.7963L34.0346 12.7932Z" fill="white"/>
<path d="M23.4413 6.99133H20.2548L16.9532 17.6898L13.459 6.99133H9.99648L6.54653 17.6299L3.25907 6.99133H0L4.63305 20.9915H8.22182L11.6844 10.4223L15.1548 20.9915H18.8114L23.4413 6.99133Z" fill="white"/>
<path fill-rule="evenodd" clip-rule="evenodd" d="M68.7717 15.1168H58.4392C58.5348 15.8385 58.8055 16.5258 59.228 17.1186C59.6048 17.6363 60.1121 18.0451 60.6982 18.3033C61.296 18.5596 61.9407 18.6885 62.5911 18.6819C63.3125 18.6789 64.0276 18.548 64.7034 18.2954C65.4035 18.0403 66.0573 17.6728 66.6389 17.207L68.1596 19.3839C67.3848 20.0606 66.482 20.575 65.5047 20.8967C64.5005 21.2123 63.4529 21.3677 62.4003 21.3573C61.1045 21.3819 59.8249 21.067 58.6885 20.4439C57.6131 19.8417 56.7328 18.9439 56.1519 17.8569C55.543 16.7421 55.2385 15.4539 55.2385 13.9921C55.2128 12.6599 55.5168 11.342 56.1235 10.1556C56.6814 9.07285 57.5353 8.17079 58.5859 7.55437C59.6889 6.92172 60.9428 6.60058 62.2141 6.62524C63.4262 6.60274 64.6199 6.92496 65.6562 7.55437C66.6634 8.18225 67.4736 9.08099 67.994 10.1477C68.5726 11.3396 68.8607 12.6516 68.8348 13.9763C68.8316 14.2697 68.8107 14.6499 68.7717 15.1168ZM65.7035 12.7932C65.5363 11.7016 65.144 10.8539 64.5267 10.2503C63.9094 9.64663 63.1175 9.34481 62.151 9.34481C61.1088 9.34481 60.2733 9.65399 59.6444 10.2724C59.0155 10.8907 58.6138 11.7321 58.4392 12.7963L65.7035 12.7932Z" fill="white"/>
<path d="M83.3429 20.9915H79.587L76.0345 16.1249L72.5278 20.9915H68.9469L74.2235 13.8455L69.0352 6.99133H72.7912L76.2112 11.6685L79.6296 6.99133H83.2404L78.0663 13.8155L83.3429 20.9915Z" fill="white"/>
<path d="M161.881 12.1407V10.5H159.728V7.98441H157.684V10.5H156.146V12.1407H157.684V18.3409C157.684 18.9743 157.828 19.5007 158.115 19.92C158.402 20.3392 158.778 20.6491 159.243 20.8496C159.708 21.0502 160.209 21.1459 160.747 21.1367C161.075 21.1322 161.348 21.1048 161.567 21.0547C161.786 21.0091 161.954 20.9636 162.073 20.918L161.704 19.2295C161.635 19.2432 161.54 19.2614 161.417 19.2842C161.293 19.307 161.15 19.3184 160.986 19.3184C160.763 19.3184 160.555 19.2842 160.364 19.2159C160.177 19.1429 160.024 19.0085 159.906 18.8125C159.787 18.612 159.728 18.3135 159.728 17.917V12.1407H161.881Z" fill="white"/>
<path d="M148.369 14.7657V21H146.325V10.5H148.287V12.209H148.417C148.659 11.653 149.037 11.2064 149.552 10.8692C150.071 10.5319 150.725 10.3633 151.514 10.3633C152.229 10.3633 152.856 10.5137 153.394 10.8145C153.931 11.1107 154.348 11.5528 154.645 12.1407C154.941 12.7285 155.089 13.4554 155.089 14.3213V21H153.045V14.5674C153.045 13.8063 152.847 13.2116 152.45 12.7832C152.054 12.3503 151.509 12.1338 150.816 12.1338C150.342 12.1338 149.921 12.2364 149.552 12.4414C149.187 12.6465 148.898 12.9473 148.684 13.3438C148.474 13.7357 148.369 14.2097 148.369 14.7657Z" fill="white"/>
<path d="M142.378 10.5V16.6455C142.383 17.2425 142.257 17.7347 142.002 18.1221C141.752 18.5095 141.435 18.7989 141.052 18.9903C140.674 19.1817 140.293 19.2774 139.91 19.2774C139.277 19.2774 138.762 19.0655 138.365 18.6416C137.969 18.2178 137.771 17.6481 137.771 16.9326V10.5H135.727V17.1787C135.727 18.0446 135.873 18.7715 136.164 19.3594C136.461 19.9473 136.866 20.3916 137.381 20.6924C137.901 20.9886 138.498 21.1367 139.172 21.1367C139.961 21.1367 140.619 20.9522 141.148 20.583C141.681 20.2093 142.068 19.7422 142.31 19.1817H142.419V21H144.429V10.5H142.378Z" fill="white"/>
<path fill-rule="evenodd" clip-rule="evenodd" d="M129.401 21.2119C128.416 21.2119 127.557 20.9864 126.823 20.5352C126.09 20.084 125.52 19.4528 125.115 18.6416C124.709 17.8304 124.506 16.8825 124.506 15.7979C124.506 14.7087 124.709 13.7562 125.115 12.9405C125.52 12.1247 126.09 11.4912 126.823 11.0401C127.557 10.5889 128.416 10.3633 129.401 10.3633C130.385 10.3633 131.244 10.5889 131.978 11.0401C132.712 11.4912 133.281 12.1247 133.687 12.9405C134.092 13.7562 134.295 14.7087 134.295 15.7979C134.295 16.8825 134.092 17.8304 133.687 18.6416C133.281 19.4528 132.712 20.084 131.978 20.5352C131.244 20.9864 130.385 21.2119 129.401 21.2119ZM129.407 19.4961C130.045 19.4961 130.574 19.3275 130.993 18.9903C131.413 18.653 131.723 18.2041 131.923 17.6436C132.128 17.083 132.231 16.4655 132.231 15.791C132.231 15.1211 132.128 14.5059 131.923 13.9453C131.723 13.3802 131.413 12.9268 130.993 12.585C130.574 12.2432 130.045 12.0723 129.407 12.0723C128.765 12.0723 128.232 12.2432 127.808 12.585C127.389 12.9268 127.076 13.3802 126.871 13.9453C126.671 14.5059 126.571 15.1211 126.571 15.791C126.571 16.4655 126.671 17.083 126.871 17.6436C127.076 18.2041 127.389 18.653 127.808 18.9903C128.232 19.3275 128.765 19.4961 129.407 19.4961Z" fill="white"/>
<path d="M116.704 20.5215C117.437 20.9818 118.312 21.2119 119.329 21.2119C120.158 21.2119 120.88 21.0593 121.496 20.7539C122.115 20.4486 122.61 20.0293 122.979 19.4961C123.348 18.9629 123.569 18.3568 123.642 17.6778H121.653C121.566 18.056 121.414 18.3796 121.195 18.6485C120.981 18.9173 120.714 19.1247 120.395 19.2705C120.081 19.4118 119.73 19.4825 119.342 19.4825C118.764 19.4825 118.26 19.3298 117.832 19.0244C117.408 18.7191 117.08 18.2884 116.847 17.7325C116.615 17.1765 116.499 16.5157 116.499 15.75C116.499 15.0026 116.617 14.3555 116.854 13.8086C117.091 13.2572 117.421 12.8334 117.845 12.5371C118.274 12.2364 118.773 12.086 119.342 12.086C119.994 12.086 120.514 12.2637 120.901 12.6192C121.293 12.9746 121.543 13.3985 121.653 13.8907H123.642C123.569 13.1843 123.339 12.5668 122.952 12.0381C122.569 11.5095 122.065 11.0993 121.441 10.8076C120.817 10.5114 120.106 10.3633 119.308 10.3633C118.319 10.3633 117.46 10.5935 116.731 11.0537C116.002 11.514 115.437 12.1543 115.036 12.9746C114.635 13.7904 114.434 14.7315 114.434 15.7979C114.434 16.8506 114.63 17.7849 115.022 18.6006C115.414 19.4164 115.974 20.0567 116.704 20.5215Z" fill="white"/>
<path d="M109.256 21.2119C108.24 21.2119 107.365 20.9818 106.631 20.5215C105.902 20.0567 105.342 19.4164 104.95 18.6006C104.558 17.7849 104.362 16.8506 104.362 15.7979C104.362 14.7315 104.562 13.7904 104.963 12.9746C105.364 12.1543 105.93 11.514 106.659 11.0537C107.388 10.5935 108.247 10.3633 109.236 10.3633C110.033 10.3633 110.744 10.5114 111.369 10.8076C111.993 11.0993 112.497 11.5095 112.879 12.0381C113.267 12.5668 113.497 13.1843 113.57 13.8907H111.581C111.471 13.3985 111.221 12.9746 110.829 12.6192C110.441 12.2637 109.922 12.086 109.27 12.086C108.7 12.086 108.201 12.2364 107.773 12.5371C107.349 12.8334 107.019 13.2572 106.782 13.8086C106.545 14.3555 106.426 15.0026 106.426 15.75C106.426 16.5157 106.542 17.1765 106.775 17.7325C107.007 18.2884 107.335 18.7191 107.759 19.0244C108.188 19.3298 108.691 19.4825 109.27 19.4825C109.657 19.4825 110.008 19.4118 110.323 19.2705C110.642 19.1247 110.908 18.9173 111.123 18.6485C111.341 18.3796 111.494 18.056 111.581 17.6778H113.57C113.497 18.3568 113.276 18.9629 112.907 19.4961C112.538 20.0293 112.043 20.4486 111.423 20.7539C110.808 21.0593 110.086 21.2119 109.256 21.2119Z" fill="white"/>
<path fill-rule="evenodd" clip-rule="evenodd" d="M91.4785 21H93.7207L95.0029 17.295H100.473L101.753 21H103.995L98.957 7.00003H96.5166L91.4785 21ZM99.8589 15.5176L97.7949 9.543H97.6855L95.618 15.5176H99.8589Z" fill="white"/>
</svg>
