<svg width="378" height="24" viewBox="0 0 378 24" fill="none" xmlns="http://www.w3.org/2000/svg">
<path d="M19.9476 6.21973H23.0852L18.5234 20.0087H14.924L11.5145 9.60331L8.10505 20.0087H4.56179L0 6.21973H3.21095L6.44779 16.6985L9.84432 6.21973H13.2538L16.7064 16.7546L19.9476 6.21973Z" fill="black"/>
<path d="M36.5418 14.2212H26.3651C26.4591 14.9322 26.7258 15.6094 27.142 16.1935C27.5107 16.7045 28.0101 17.107 28.5878 17.3587C29.1762 17.6129 29.8113 17.7408 30.4522 17.7342C31.1626 17.7315 31.8669 17.6029 32.5324 17.3544C33.2224 17.1021 33.8667 16.7392 34.44 16.2798L35.9376 18.4377C35.1739 19.1036 34.2846 19.6098 33.3222 19.9266C32.3337 20.2369 31.3026 20.3898 30.2666 20.3798C28.9906 20.4049 27.7303 20.0954 26.6111 19.4821C25.5525 18.8889 24.6855 18.0054 24.1123 16.9358C23.4957 15.7634 23.1868 14.4536 23.2146 13.1293C23.1882 11.8174 23.4846 10.5191 24.0778 9.34863C24.629 8.28405 25.4698 7.39688 26.5032 6.78937C27.5876 6.16532 28.8216 5.84898 30.0724 5.87442C31.2528 5.84176 32.4175 6.15007 33.4271 6.76242C34.4367 7.37478 35.2484 8.26521 35.7649 9.32705C36.3352 10.5013 36.6191 11.7939 36.5936 13.0991C36.5979 13.3882 36.5806 13.7637 36.5418 14.2212ZM33.5207 11.9338C33.428 10.9888 33.0224 10.1018 32.3684 9.41337C32.0549 9.11952 31.6855 8.89169 31.2821 8.74342C30.8788 8.59514 30.4498 8.52943 30.0206 8.55021C29.5688 8.52953 29.1175 8.59987 28.6934 8.75704C28.2693 8.91422 27.8812 9.15503 27.552 9.46516C26.9002 10.1435 26.484 11.0136 26.3651 11.9467L33.5207 11.9338Z" fill="black"/>
<path d="M49.4162 6.79789C50.466 7.41887 51.3269 8.31407 51.9064 9.38736C52.5261 10.5313 52.8411 11.8154 52.8214 13.1162C52.8412 14.4157 52.5261 15.6983 51.9064 16.8407C51.3268 17.919 50.4627 18.8177 49.4081 19.4393C48.3536 20.061 47.1488 20.3817 45.9247 20.3667C45.0657 20.3847 44.2139 20.2061 43.4345 19.8445C42.7202 19.5001 42.0954 18.9949 41.6089 18.3685V20.0085H38.5879V0.350098H41.6089V7.85957C42.0974 7.23746 42.7219 6.7355 43.4345 6.3922C44.2129 6.02706 45.0652 5.84685 45.9247 5.86568C47.152 5.85066 48.3598 6.17313 49.4162 6.79789ZM47.7676 16.9443C48.3942 16.5591 48.8986 16.0038 49.222 15.3432C49.554 14.6469 49.7263 13.8854 49.7263 13.114C49.7263 12.3427 49.554 11.5812 49.222 10.8849C48.8972 10.2252 48.3932 9.67029 47.7676 9.28378C47.1026 8.90338 46.3499 8.70327 45.5838 8.70327C44.8177 8.70327 44.0649 8.90338 43.4 9.28378C42.7728 9.66465 42.2645 10.2133 41.9326 10.8677C41.5737 11.5667 41.3928 12.3435 41.4061 13.1292C41.3924 13.9135 41.5733 14.689 41.9326 15.3863C42.2645 16.0407 42.7728 16.5893 43.4 16.9702C44.0649 17.3506 44.8177 17.5507 45.5838 17.5507C46.3499 17.5507 47.1026 17.3506 47.7676 16.9702V16.9443Z" fill="black"/>
<path d="M67.7272 14.2212H57.5549C57.6488 14.9322 57.9155 15.6094 58.3317 16.1935C58.7004 16.7046 59.1998 17.1071 59.7775 17.3588C60.3659 17.6129 61.001 17.7408 61.6419 17.7342C62.3523 17.7309 63.0565 17.6023 63.7221 17.3545C64.4121 17.1022 65.0564 16.7392 65.6297 16.2798L67.123 18.4377C66.3615 19.1044 65.4735 19.6108 64.5119 19.9267C63.5219 20.2367 62.4894 20.3896 61.452 20.3798C60.1762 20.4036 58.9163 20.0942 57.7966 19.4821C56.7401 18.8875 55.8749 18.0043 55.302 16.9358C54.6841 15.7638 54.3737 14.454 54.4 13.1293C54.3738 11.8174 54.6702 10.5192 55.2632 9.34866C55.8144 8.28408 56.6552 7.39691 57.6887 6.7894C58.7792 6.15625 60.023 5.83524 61.2837 5.86151C62.4638 5.83045 63.6279 6.13943 64.6372 6.75161C65.6465 7.36378 66.4585 8.25331 66.9763 9.31414C67.5465 10.4884 67.8304 11.781 67.8049 13.0861C67.7876 13.3882 67.7574 13.7637 67.7272 14.2212ZM64.7061 11.9338C64.6066 10.9949 64.2 10.115 63.5495 9.43066C63.2381 9.1352 62.8707 8.90507 62.469 8.75386C62.0672 8.60265 61.6393 8.53342 61.2104 8.55024C60.7585 8.52907 60.307 8.59917 59.8829 8.75638C59.4587 8.91358 59.0706 9.15465 58.7417 9.46519C58.0884 10.1424 57.672 11.0131 57.5549 11.9468L64.7061 11.9338Z" fill="black"/>
<path d="M82.0773 20.0087H78.3787L74.8829 15.2138L71.4303 20.0087H67.9043L73.0832 12.9696L67.9863 6.21973H71.6892L75.0556 10.8247L78.4219 6.21973H81.9997L76.8811 12.9437L82.0773 20.0087Z" fill="black"/>
<path d="M206.632 19.8238H204.789V9.83976H206.306L206.555 11.3182C207.119 10.1406 207.963 9.55176 209.09 9.55176C209.461 9.55176 209.826 9.59656 210.184 9.68616V11.5294C209.749 11.4142 209.359 11.3566 209.013 11.3566C208.271 11.3566 207.688 11.6574 207.266 12.259C206.843 12.8606 206.632 13.7118 206.632 14.8126V19.8238Z" fill="black"/>
<path d="M200.937 16.9438H202.934C202.652 17.955 202.096 18.7486 201.264 19.3246C200.483 19.8494 199.548 20.1118 198.46 20.1118C196.886 20.1118 195.657 19.6126 194.774 18.6142C193.968 17.6798 193.564 16.419 193.564 14.8318C193.564 13.027 194.076 11.6574 195.1 10.723C195.945 9.94216 197.033 9.55176 198.364 9.55176C199.926 9.55176 201.104 10.0574 201.897 11.0686C202.665 12.0414 203.049 13.4302 203.049 15.235H195.446C195.523 16.4126 195.881 17.2894 196.521 17.8654C197.046 18.3262 197.712 18.5566 198.518 18.5566C199.145 18.5566 199.689 18.3838 200.15 18.0382C200.534 17.7438 200.796 17.379 200.937 16.9438ZM198.403 11.0302C197.584 11.0302 196.924 11.2862 196.425 11.7982C195.952 12.2718 195.651 12.931 195.523 13.7758H201.168C201.104 12.8158 200.784 12.099 200.208 11.6254C199.747 11.2286 199.145 11.0302 198.403 11.0302Z" fill="black"/>
<path d="M185.56 19.8238H183.717V9.83976H185.234L185.445 11.107C186.187 10.0702 187.198 9.55176 188.478 9.55176C189.656 9.55176 190.558 9.91656 191.186 10.6462C191.736 11.299 192.011 12.1886 192.011 13.315V19.8238H190.168V13.3342C190.168 11.8622 189.458 11.1262 188.037 11.1262C187.294 11.1262 186.686 11.3822 186.213 11.8942C185.778 12.355 185.56 12.9438 185.56 13.6606V19.8238Z" fill="black"/>
<path d="M172.371 20.4958H174.349C174.438 21.0078 174.694 21.4046 175.117 21.6862C175.552 21.9678 176.121 22.1086 176.825 22.1086C177.811 22.1086 178.547 21.8526 179.033 21.3406C179.443 20.9054 179.648 20.2974 179.648 19.5166V18.2302C178.905 19.1006 177.798 19.5358 176.326 19.5358C174.995 19.5358 173.913 19.0558 173.081 18.0958C172.301 17.1998 171.91 16.035 171.91 14.6014C171.91 12.9374 172.384 11.651 173.331 10.7422C174.137 9.94856 175.174 9.55176 176.441 9.55176C177.875 9.55176 178.957 10.0894 179.686 11.1646L179.974 9.83976H181.491V19.6126C181.491 20.867 181.037 21.8526 180.128 22.5694C179.309 23.235 178.227 23.5678 176.883 23.5678C175.488 23.5678 174.393 23.2542 173.6 22.627C172.934 22.1022 172.525 21.3918 172.371 20.4958ZM173.83 14.6398C173.83 15.7278 174.15 16.579 174.79 17.1934C175.315 17.7054 175.961 17.9614 176.729 17.9614C177.741 17.9614 178.515 17.6286 179.053 16.963C179.513 16.3998 179.744 15.6446 179.744 14.6974C179.744 13.4814 179.43 12.5534 178.803 11.9134C178.278 11.3886 177.587 11.1262 176.729 11.1262C175.782 11.1262 175.053 11.4526 174.541 12.1054C174.067 12.7198 173.83 13.5646 173.83 14.6398Z" fill="black"/>
<path d="M170.377 8.1696H168.304V6H170.377V8.1696ZM170.262 19.824H168.419V9.84H170.262V19.824Z" fill="black"/>
<path d="M164.919 17.1166C164.919 16.5534 164.625 16.131 164.036 15.8494C163.69 15.6958 163.018 15.5038 162.02 15.2734C160.791 15.0046 159.914 14.6142 159.39 14.1022C158.954 13.667 158.737 13.0974 158.737 12.3934C158.737 11.459 159.114 10.7422 159.87 10.243C160.548 9.78216 161.463 9.55176 162.615 9.55176C163.806 9.55176 164.772 9.84616 165.514 10.435C166.154 10.947 166.551 11.6254 166.705 12.4702H164.823C164.606 11.4974 163.863 11.011 162.596 11.011C161.892 11.011 161.367 11.139 161.022 11.395C160.74 11.6126 160.599 11.8878 160.599 12.2206C160.599 12.6302 160.753 12.9374 161.06 13.1422C161.38 13.347 162.001 13.5518 162.922 13.7566C164.33 14.0638 165.31 14.4414 165.86 14.8894C166.474 15.3886 166.782 16.0862 166.782 16.9822C166.782 17.9806 166.372 18.7678 165.553 19.3438C164.81 19.8558 163.831 20.1118 162.615 20.1118C161.284 20.1118 160.228 19.7918 159.447 19.1518C158.769 18.5886 158.391 17.859 158.314 16.963H160.196C160.401 18.0894 161.214 18.6526 162.634 18.6526C163.402 18.6526 163.998 18.4862 164.42 18.1534C164.753 17.8846 164.919 17.539 164.919 17.1166Z" fill="black"/>
<path d="M155.231 16.9438H157.228C156.946 17.955 156.39 18.7486 155.558 19.3246C154.777 19.8494 153.842 20.1118 152.754 20.1118C151.18 20.1118 149.951 19.6126 149.068 18.6142C148.262 17.6798 147.858 16.419 147.858 14.8318C147.858 13.027 148.37 11.6574 149.394 10.723C150.239 9.94216 151.327 9.55176 152.658 9.55176C154.22 9.55176 155.398 10.0574 156.191 11.0686C156.959 12.0414 157.343 13.4302 157.343 15.235H149.74C149.817 16.4126 150.175 17.2894 150.815 17.8654C151.34 18.3262 152.006 18.5566 152.812 18.5566C153.439 18.5566 153.983 18.3838 154.444 18.0382C154.828 17.7438 155.09 17.379 155.231 16.9438ZM152.697 11.0302C151.878 11.0302 151.218 11.2862 150.719 11.7982C150.246 12.2718 149.945 12.931 149.817 13.7758H155.462C155.398 12.8158 155.078 12.099 154.502 11.6254C154.041 11.2286 153.439 11.0302 152.697 11.0302Z" fill="black"/>
<path d="M135.406 6H139.899C142.165 6 143.886 6.64 145.064 7.92C146.152 9.0976 146.696 10.7616 146.696 12.912C146.696 15.2416 145.966 17.0272 144.507 18.2688C143.278 19.3056 141.697 19.824 139.765 19.824H135.406V6ZM139.918 7.5552H137.365V18.2112H139.957C141.595 18.2112 142.817 17.6992 143.624 16.6752C144.353 15.7792 144.718 14.5248 144.718 12.912C144.718 11.0176 144.232 9.616 143.259 8.7072C142.44 7.9392 141.326 7.5552 139.918 7.5552Z" fill="black"/>
<path d="M127.027 9.83984H128.871L125.952 19.8238H123.821L121.402 11.9326L119.021 19.8238H116.813L113.895 9.83984H115.815L117.965 17.8654L120.346 9.83984H122.554L124.896 17.827L127.027 9.83984Z" fill="black"/>
<path d="M103.688 14.8318C103.688 13.0014 104.232 11.619 105.32 10.6846C106.191 9.92936 107.292 9.55176 108.623 9.55176C110.172 9.55176 111.388 10.0446 112.271 11.0302C113.116 11.9518 113.538 13.219 113.538 14.8318C113.538 16.6366 113.007 18.0126 111.944 18.9598C111.074 19.7278 109.96 20.1118 108.604 20.1118C107.055 20.1118 105.832 19.5998 104.936 18.5758C104.104 17.6414 103.688 16.3934 103.688 14.8318ZM105.608 14.8318C105.608 16.1118 105.935 17.091 106.588 17.7694C107.125 18.3326 107.81 18.6142 108.642 18.6142C109.615 18.6142 110.364 18.2494 110.888 17.5198C111.375 16.8542 111.618 15.9582 111.618 14.8318C111.618 13.5262 111.298 12.5406 110.658 11.875C110.133 11.3246 109.455 11.0494 108.623 11.0494C107.663 11.0494 106.914 11.4142 106.376 12.1438C105.864 12.8094 105.608 13.7054 105.608 14.8318Z" fill="black"/>
<path d="M102.039 6V19.824H100.196V6H102.039Z" fill="black"/>
<path d="M97.7952 12.3552V13.9872H91.9584V19.824H90V6H98.4672V7.6512H91.9584V12.3552H97.7952Z" fill="black"/>
</svg>
