<svg width="132" height="107" viewBox="0 0 132 107" fill="none" xmlns="http://www.w3.org/2000/svg">
<path d="M56.3656 41.8465C47.4751 41.8465 44.4753 30.6643 43.7662 28.4825C42.0754 22.9732 41.5845 18.0095 41.53 17.5186C41.2028 14.5185 43.6026 12.4457 46.2752 12.4457C48.2933 12.4457 50.5841 13.6457 50.9113 16.5367C50.9659 17.0276 51.3477 21.2277 52.8203 25.8097C54.293 30.6098 55.9292 32.4098 57.0746 32.4098C58.9291 32.4098 60.0745 27.6643 61.0562 23.1369C61.7653 19.8095 62.5834 16.4822 64.1651 13.4821C66.7832 8.30013 70.8739 7.1001 74.4737 7.1001C82.2733 7.1001 86.2003 16.1549 86.2003 18.5004C86.2003 22.4278 82.9823 23.4096 81.6187 23.4096C78.5644 23.4096 77.5826 21.3914 76.7099 19.5913C75.9463 18.0095 75.1282 16.6458 74.0919 16.6458C73.7646 16.6458 73.4374 16.8094 73.1101 17.1367C70.4921 19.8095 69.6194 33.6644 64.4379 38.9555C61.4926 41.8465 58.3291 41.8465 56.3656 41.8465Z" fill="url(#paint0_linear_13250_6165)"/>
<path d="M56.3656 41.8465C47.4751 41.8465 44.4753 30.6643 43.7662 28.4825C42.0754 22.9732 41.5845 18.0095 41.53 17.5186C41.2028 14.5185 43.6026 12.4457 46.2752 12.4457C48.2933 12.4457 50.5841 13.6457 50.9113 16.5367C50.9659 17.0276 51.3477 21.2277 52.8203 25.8097C54.293 30.6098 55.9292 32.4098 57.0746 32.4098C58.9291 32.4098 60.0745 27.6643 61.0562 23.1369C61.7653 19.8095 62.5834 16.4822 64.1651 13.4821C66.7832 8.30013 70.8739 7.1001 74.4737 7.1001C82.2733 7.1001 86.2003 16.1549 86.2003 18.5004C86.2003 22.4278 82.9823 23.4096 81.6187 23.4096C78.5644 23.4096 77.5826 21.3914 76.7099 19.5913C75.9463 18.0095 75.1282 16.6458 74.0919 16.6458C73.7646 16.6458 73.4374 16.8094 73.1101 17.1367C70.4921 19.8095 69.6194 33.6644 64.4379 38.9555C61.4926 41.8465 58.3291 41.8465 56.3656 41.8465Z" fill="url(#paint1_radial_13250_6165)"/>
<path d="M56.3656 41.8465C47.4751 41.8465 44.4753 30.6643 43.7662 28.4825C42.0754 22.9732 41.5845 18.0095 41.53 17.5186C41.2028 14.5185 43.6026 12.4457 46.2752 12.4457C48.2933 12.4457 50.5841 13.6457 50.9113 16.5367C50.9659 17.0276 51.3477 21.2277 52.8203 25.8097C54.293 30.6098 55.9292 32.4098 57.0746 32.4098C58.9291 32.4098 60.0745 27.6643 61.0562 23.1369C61.7653 19.8095 62.5834 16.4822 64.1651 13.4821C66.7832 8.30013 70.8739 7.1001 74.4737 7.1001C82.2733 7.1001 86.2003 16.1549 86.2003 18.5004C86.2003 22.4278 82.9823 23.4096 81.6187 23.4096C78.5644 23.4096 77.5826 21.3914 76.7099 19.5913C75.9463 18.0095 75.1282 16.6458 74.0919 16.6458C73.7646 16.6458 73.4374 16.8094 73.1101 17.1367C70.4921 19.8095 69.6194 33.6644 64.4379 38.9555C61.4926 41.8465 58.3291 41.8465 56.3656 41.8465Z" fill="url(#paint2_radial_13250_6165)"/>
<path d="M56.3656 41.8465C47.4751 41.8465 44.4753 30.6643 43.7662 28.4825C42.0754 22.9732 41.5845 18.0095 41.53 17.5186C41.2028 14.5185 43.6026 12.4457 46.2752 12.4457C48.2933 12.4457 50.5841 13.6457 50.9113 16.5367C50.9659 17.0276 51.3477 21.2277 52.8203 25.8097C54.293 30.6098 55.9292 32.4098 57.0746 32.4098C58.9291 32.4098 60.0745 27.6643 61.0562 23.1369C61.7653 19.8095 62.5834 16.4822 64.1651 13.4821C66.7832 8.30013 70.8739 7.1001 74.4737 7.1001C82.2733 7.1001 86.2003 16.1549 86.2003 18.5004C86.2003 22.4278 82.9823 23.4096 81.6187 23.4096C78.5644 23.4096 77.5826 21.3914 76.7099 19.5913C75.9463 18.0095 75.1282 16.6458 74.0919 16.6458C73.7646 16.6458 73.4374 16.8094 73.1101 17.1367C70.4921 19.8095 69.6194 33.6644 64.4379 38.9555C61.4926 41.8465 58.3291 41.8465 56.3656 41.8465Z" fill="url(#paint3_radial_13250_6165)"/>
<path d="M56.3656 41.8465C47.4751 41.8465 44.4753 30.6643 43.7662 28.4825C42.0754 22.9732 41.5845 18.0095 41.53 17.5186C41.2028 14.5185 43.6026 12.4457 46.2752 12.4457C48.2933 12.4457 50.5841 13.6457 50.9113 16.5367C50.9659 17.0276 51.3477 21.2277 52.8203 25.8097C54.293 30.6098 55.9292 32.4098 57.0746 32.4098C58.9291 32.4098 60.0745 27.6643 61.0562 23.1369C61.7653 19.8095 62.5834 16.4822 64.1651 13.4821C66.7832 8.30013 70.8739 7.1001 74.4737 7.1001C82.2733 7.1001 86.2003 16.1549 86.2003 18.5004C86.2003 22.4278 82.9823 23.4096 81.6187 23.4096C78.5644 23.4096 77.5826 21.3914 76.7099 19.5913C75.9463 18.0095 75.1282 16.6458 74.0919 16.6458C73.7646 16.6458 73.4374 16.8094 73.1101 17.1367C70.4921 19.8095 69.6194 33.6644 64.4379 38.9555C61.4926 41.8465 58.3291 41.8465 56.3656 41.8465Z" fill="url(#paint4_radial_13250_6165)"/>
<path d="M56.3656 41.8465C47.4751 41.8465 44.4753 30.6643 43.7662 28.4825C42.0754 22.9732 41.5845 18.0095 41.53 17.5186C41.2028 14.5185 43.6026 12.4457 46.2752 12.4457C48.2933 12.4457 50.5841 13.6457 50.9113 16.5367C50.9659 17.0276 51.3477 21.2277 52.8203 25.8097C54.293 30.6098 55.9292 32.4098 57.0746 32.4098C58.9291 32.4098 60.0745 27.6643 61.0562 23.1369C61.7653 19.8095 62.5834 16.4822 64.1651 13.4821C66.7832 8.30013 70.8739 7.1001 74.4737 7.1001C82.2733 7.1001 86.2003 16.1549 86.2003 18.5004C86.2003 22.4278 82.9823 23.4096 81.6187 23.4096C78.5644 23.4096 77.5826 21.3914 76.7099 19.5913C75.9463 18.0095 75.1282 16.6458 74.0919 16.6458C73.7646 16.6458 73.4374 16.8094 73.1101 17.1367C70.4921 19.8095 69.6194 33.6644 64.4379 38.9555C61.4926 41.8465 58.3291 41.8465 56.3656 41.8465Z" fill="url(#paint5_radial_13250_6165)"/>
<path d="M56.3656 41.8465C47.4751 41.8465 44.4753 30.6643 43.7662 28.4825C42.0754 22.9732 41.5845 18.0095 41.53 17.5186C41.2028 14.5185 43.6026 12.4457 46.2752 12.4457C48.2933 12.4457 50.5841 13.6457 50.9113 16.5367C50.9659 17.0276 51.3477 21.2277 52.8203 25.8097C54.293 30.6098 55.9292 32.4098 57.0746 32.4098C58.9291 32.4098 60.0745 27.6643 61.0562 23.1369C61.7653 19.8095 62.5834 16.4822 64.1651 13.4821C66.7832 8.30013 70.8739 7.1001 74.4737 7.1001C82.2733 7.1001 86.2003 16.1549 86.2003 18.5004C86.2003 22.4278 82.9823 23.4096 81.6187 23.4096C78.5644 23.4096 77.5826 21.3914 76.7099 19.5913C75.9463 18.0095 75.1282 16.6458 74.0919 16.6458C73.7646 16.6458 73.4374 16.8094 73.1101 17.1367C70.4921 19.8095 69.6194 33.6644 64.4379 38.9555C61.4926 41.8465 58.3291 41.8465 56.3656 41.8465Z" fill="url(#paint6_radial_13250_6165)"/>
<path d="M56.3656 41.8465C47.4751 41.8465 44.4753 30.6643 43.7662 28.4825C42.0754 22.9732 41.5845 18.0095 41.53 17.5186C41.2028 14.5185 43.6026 12.4457 46.2752 12.4457C48.2933 12.4457 50.5841 13.6457 50.9113 16.5367C50.9659 17.0276 51.3477 21.2277 52.8203 25.8097C54.293 30.6098 55.9292 32.4098 57.0746 32.4098C58.9291 32.4098 60.0745 27.6643 61.0562 23.1369C61.7653 19.8095 62.5834 16.4822 64.1651 13.4821C66.7832 8.30013 70.8739 7.1001 74.4737 7.1001C82.2733 7.1001 86.2003 16.1549 86.2003 18.5004C86.2003 22.4278 82.9823 23.4096 81.6187 23.4096C78.5644 23.4096 77.5826 21.3914 76.7099 19.5913C75.9463 18.0095 75.1282 16.6458 74.0919 16.6458C73.7646 16.6458 73.4374 16.8094 73.1101 17.1367C70.4921 19.8095 69.6194 33.6644 64.4379 38.9555C61.4926 41.8465 58.3291 41.8465 56.3656 41.8465Z" fill="url(#paint7_radial_13250_6165)"/>
<path d="M56.3656 41.8465C47.4751 41.8465 44.4753 30.6643 43.7662 28.4825C42.0754 22.9732 41.5845 18.0095 41.53 17.5186C41.2028 14.5185 43.6026 12.4457 46.2752 12.4457C48.2933 12.4457 50.5841 13.6457 50.9113 16.5367C50.9659 17.0276 51.3477 21.2277 52.8203 25.8097C54.293 30.6098 55.9292 32.4098 57.0746 32.4098C58.9291 32.4098 60.0745 27.6643 61.0562 23.1369C61.7653 19.8095 62.5834 16.4822 64.1651 13.4821C66.7832 8.30013 70.8739 7.1001 74.4737 7.1001C82.2733 7.1001 86.2003 16.1549 86.2003 18.5004C86.2003 22.4278 82.9823 23.4096 81.6187 23.4096C78.5644 23.4096 77.5826 21.3914 76.7099 19.5913C75.9463 18.0095 75.1282 16.6458 74.0919 16.6458C73.7646 16.6458 73.4374 16.8094 73.1101 17.1367C70.4921 19.8095 69.6194 33.6644 64.4379 38.9555C61.4926 41.8465 58.3291 41.8465 56.3656 41.8465Z" fill="url(#paint8_radial_13250_6165)"/>
<path d="M74.4737 7.1001C70.9285 7.1001 66.7832 8.30013 64.0561 13.4821C62.4744 16.4822 61.7108 19.8095 60.9472 23.1369C60.729 24.2278 60.4563 25.3188 60.1836 26.4097V41.4646C61.5472 41.0828 62.9653 40.3737 64.3834 38.9555C69.6194 33.6644 70.4921 19.8095 73.0556 17.1367C73.3283 16.8094 73.6556 16.6458 74.0374 16.6458C75.0737 16.6458 75.8918 17.9549 76.6554 19.5913C77.5281 21.3914 78.5644 23.4096 81.5643 23.4096C82.9278 23.4096 86.1458 22.4278 86.1458 18.5004C86.1458 16.1549 82.2733 7.1001 74.4737 7.1001Z" fill="url(#paint9_radial_13250_6165)"/>
<path d="M56.3656 41.8465C47.4751 41.8465 44.4753 30.6643 43.7662 28.4825C42.0754 22.9732 41.5845 18.0095 41.53 17.5186C41.2028 14.5185 43.6026 12.4457 46.2752 12.4457C48.2933 12.4457 50.5841 13.6457 50.9113 16.5367C50.9659 17.0276 51.3477 21.2277 52.8203 25.8097C54.293 30.6098 55.9292 32.4098 57.0746 32.4098C58.9291 32.4098 60.0745 27.6643 61.0562 23.1369C61.7653 19.8095 62.5834 16.4822 64.1651 13.4821C66.7832 8.30013 70.8739 7.1001 74.4737 7.1001C82.2733 7.1001 86.2003 16.1549 86.2003 18.5004C86.2003 22.4278 82.9823 23.4096 81.6187 23.4096C78.5644 23.4096 77.5826 21.3914 76.7099 19.5913C75.9463 18.0095 75.1282 16.6458 74.0919 16.6458C73.7646 16.6458 73.4374 16.8094 73.1101 17.1367C70.4921 19.8095 69.6194 33.6644 64.4379 38.9555C61.4926 41.8465 58.3291 41.8465 56.3656 41.8465Z" fill="url(#paint10_radial_13250_6165)"/>
<path d="M56.3656 41.8465C47.4751 41.8465 44.4753 30.6643 43.7662 28.4825C42.0754 22.9732 41.5845 18.0095 41.53 17.5186C41.2028 14.5185 43.6026 12.4457 46.2752 12.4457C48.2933 12.4457 50.5841 13.6457 50.9113 16.5367C50.9659 17.0276 51.3477 21.2277 52.8203 25.8097C54.293 30.6098 55.9292 32.4098 57.0746 32.4098C58.9291 32.4098 60.0745 27.6643 61.0562 23.1369C61.7653 19.8095 62.5834 16.4822 64.1651 13.4821C66.7832 8.30013 70.8739 7.1001 74.4737 7.1001C82.2733 7.1001 86.2003 16.1549 86.2003 18.5004C86.2003 22.4278 82.9823 23.4096 81.6187 23.4096C78.5644 23.4096 77.5826 21.3914 76.7099 19.5913C75.9463 18.0095 75.1282 16.6458 74.0919 16.6458C73.7646 16.6458 73.4374 16.8094 73.1101 17.1367C70.4921 19.8095 69.6194 33.6644 64.4379 38.9555C61.4926 41.8465 58.3291 41.8465 56.3656 41.8465Z" fill="url(#paint11_radial_13250_6165)"/>
<path d="M56.3656 41.8465C47.4751 41.8465 44.4753 30.6643 43.7662 28.4825C42.0754 22.9732 41.5845 18.0095 41.53 17.5186C41.2028 14.5185 43.6026 12.4457 46.2752 12.4457C48.2933 12.4457 50.5841 13.6457 50.9113 16.5367C50.9659 17.0276 51.3477 21.2277 52.8203 25.8097C54.293 30.6098 55.9292 32.4098 57.0746 32.4098C58.9291 32.4098 60.0745 27.6643 61.0562 23.1369C61.7653 19.8095 62.5834 16.4822 64.1651 13.4821C66.7832 8.30013 70.8739 7.1001 74.4737 7.1001C82.2733 7.1001 86.2003 16.1549 86.2003 18.5004C86.2003 22.4278 82.9823 23.4096 81.6187 23.4096C78.5644 23.4096 77.5826 21.3914 76.7099 19.5913C75.9463 18.0095 75.1282 16.6458 74.0919 16.6458C73.7646 16.6458 73.4374 16.8094 73.1101 17.1367C70.4921 19.8095 69.6194 33.6644 64.4379 38.9555C61.4926 41.8465 58.3291 41.8465 56.3656 41.8465Z" fill="url(#paint12_radial_13250_6165)"/>
<path d="M56.3656 41.8465C47.4751 41.8465 44.4753 30.6643 43.7662 28.4825C42.0754 22.9732 41.5845 18.0095 41.53 17.5186C41.2028 14.5185 43.6026 12.4457 46.2752 12.4457C48.2933 12.4457 50.5841 13.6457 50.9113 16.5367C50.9659 17.0276 51.3477 21.2277 52.8203 25.8097C54.293 30.6098 55.9292 32.4098 57.0746 32.4098C58.9291 32.4098 60.0745 27.6643 61.0562 23.1369C61.7653 19.8095 62.5834 16.4822 64.1651 13.4821C66.7832 8.30013 70.8739 7.1001 74.4737 7.1001C82.2733 7.1001 86.2003 16.1549 86.2003 18.5004C86.2003 22.4278 82.9823 23.4096 81.6187 23.4096C78.5644 23.4096 77.5826 21.3914 76.7099 19.5913C75.9463 18.0095 75.1282 16.6458 74.0919 16.6458C73.7646 16.6458 73.4374 16.8094 73.1101 17.1367C70.4921 19.8095 69.6194 33.6644 64.4379 38.9555C61.4926 41.8465 58.3291 41.8465 56.3656 41.8465Z" fill="url(#paint13_radial_13250_6165)"/>
<path d="M56.3656 41.8465C47.4751 41.8465 44.4753 30.6643 43.7662 28.4825C42.0754 22.9732 41.5845 18.0095 41.53 17.5186C41.2028 14.5185 43.6026 12.4457 46.2752 12.4457C48.2933 12.4457 50.5841 13.6457 50.9113 16.5367C50.9659 17.0276 51.3477 21.2277 52.8203 25.8097C54.293 30.6098 55.9292 32.4098 57.0746 32.4098C58.9291 32.4098 60.0745 27.6643 61.0562 23.1369C61.7653 19.8095 62.5834 16.4822 64.1651 13.4821C66.7832 8.30013 70.8739 7.1001 74.4737 7.1001C82.2733 7.1001 86.2003 16.1549 86.2003 18.5004C86.2003 22.4278 82.9823 23.4096 81.6187 23.4096C78.5644 23.4096 77.5826 21.3914 76.7099 19.5913C75.9463 18.0095 75.1282 16.6458 74.0919 16.6458C73.7646 16.6458 73.4374 16.8094 73.1101 17.1367C70.4921 19.8095 69.6194 33.6644 64.4379 38.9555C61.4926 41.8465 58.3291 41.8465 56.3656 41.8465Z" fill="url(#paint14_radial_13250_6165)"/>
<path d="M84.7262 12.4457C84.3989 12.4457 84.0171 12.5002 83.6899 12.5548C85.3261 14.9548 86.1443 17.4095 86.1443 18.5004C86.1443 22.4278 82.9263 23.4096 81.5627 23.4096C80.4718 23.4096 79.6537 23.1369 78.9992 22.7551V22.8096C78.781 23.5733 78.6719 24.446 78.3992 25.2642C77.9083 26.8461 77.1993 28.6461 76.4357 30.0643C75.6176 31.5916 74.854 32.4644 73.9267 32.4098C72.8359 32.3553 72.0178 30.9916 70.9269 27.1188C70.5997 25.8642 70.2724 24.5006 69.9451 23.1369C69.1815 19.8095 68.3089 16.4276 66.7817 13.4821C64.2727 8.62741 59.9639 7.1001 56.5277 7.1001C53.3642 7.1001 50.9644 8.62741 49.1099 10.5366C48.619 11.082 48.0191 11.7911 47.4736 12.6093C49.1099 12.9912 50.6371 14.2457 50.9098 16.5367C50.9644 16.9731 51.2916 20.5186 52.437 24.6096C52.7643 23.5733 53.2551 22.0459 54.346 19.6459C54.8914 18.5004 55.3823 17.7913 55.8186 17.3549C56.2004 16.9185 56.5822 16.7549 56.9095 16.7549C57.2913 16.7549 58.4912 17.0822 59.6912 21.2277C61.1093 26.3006 62.2001 34.4826 66.3453 38.8464C68.1998 40.7555 70.7633 42.0101 74.3085 42.0101C77.4175 42.0101 80.0355 40.6464 81.8899 38.7373C84.9443 35.5736 86.6351 30.3916 87.2351 28.4825C88.9259 23.0278 89.4168 18.064 89.4714 17.5186C89.7986 14.5185 87.2351 12.4457 84.7262 12.4457Z" fill="#4A4A4A"/>
<path d="M84.7262 12.4457C84.3989 12.4457 84.0171 12.5002 83.6899 12.5548C85.3261 14.9548 86.1443 17.4095 86.1443 18.5004C86.1443 22.4278 82.9263 23.4096 81.5627 23.4096C80.4718 23.4096 79.6537 23.1369 78.9992 22.7551V22.8096C78.781 23.5733 78.6719 24.446 78.3992 25.2642C77.9083 26.8461 77.1993 28.6461 76.4357 30.0643C75.6176 31.5916 74.854 32.4644 73.9267 32.4098C72.8359 32.3553 72.0178 30.9916 70.9269 27.1188C70.5997 25.8642 70.2724 24.5006 69.9451 23.1369C69.1815 19.8095 68.3089 16.4276 66.7817 13.4821C64.2727 8.62741 59.9639 7.1001 56.5277 7.1001C53.3642 7.1001 50.9644 8.62741 49.1099 10.5366C48.619 11.082 48.0191 11.7911 47.4736 12.6093C49.1099 12.9912 50.6371 14.2457 50.9098 16.5367C50.9644 16.9731 51.2916 20.5186 52.437 24.6096C52.7643 23.5733 53.2551 22.0459 54.346 19.6459C54.8914 18.5004 55.3823 17.7913 55.8186 17.3549C56.2004 16.9185 56.5822 16.7549 56.9095 16.7549C57.2913 16.7549 58.4912 17.0822 59.6912 21.2277C61.1093 26.3006 62.2001 34.4826 66.3453 38.8464C68.1998 40.7555 70.7633 42.0101 74.3085 42.0101C77.4175 42.0101 80.0355 40.6464 81.8899 38.7373C84.9443 35.5736 86.6351 30.3916 87.2351 28.4825C88.9259 23.0278 89.4168 18.064 89.4714 17.5186C89.7986 14.5185 87.2351 12.4457 84.7262 12.4457Z" fill="url(#paint15_linear_13250_6165)"/>
<path d="M84.7262 12.4457C84.3989 12.4457 84.0171 12.5002 83.6899 12.5548C85.3261 14.9548 86.1443 17.4095 86.1443 18.5004C86.1443 22.4278 82.9263 23.4096 81.5627 23.4096C80.4718 23.4096 79.6537 23.1369 78.9992 22.7551V22.8096C78.781 23.5733 78.6719 24.446 78.3992 25.2642C77.9083 26.8461 77.1993 28.6461 76.4357 30.0643C75.6176 31.5916 74.854 32.4644 73.9267 32.4098C72.8359 32.3553 72.0178 30.9916 70.9269 27.1188C70.5997 25.8642 70.2724 24.5006 69.9451 23.1369C69.1815 19.8095 68.3089 16.4276 66.7817 13.4821C64.2727 8.62741 59.9639 7.1001 56.5277 7.1001C53.3642 7.1001 50.9644 8.62741 49.1099 10.5366C48.619 11.082 48.0191 11.7911 47.4736 12.6093C49.1099 12.9912 50.6371 14.2457 50.9098 16.5367C50.9644 16.9731 51.2916 20.5186 52.437 24.6096C52.7643 23.5733 53.2551 22.0459 54.346 19.6459C54.8914 18.5004 55.3823 17.7913 55.8186 17.3549C56.2004 16.9185 56.5822 16.7549 56.9095 16.7549C57.2913 16.7549 58.4912 17.0822 59.6912 21.2277C61.1093 26.3006 62.2001 34.4826 66.3453 38.8464C68.1998 40.7555 70.7633 42.0101 74.3085 42.0101C77.4175 42.0101 80.0355 40.6464 81.8899 38.7373C84.9443 35.5736 86.6351 30.3916 87.2351 28.4825C88.9259 23.0278 89.4168 18.064 89.4714 17.5186C89.7986 14.5185 87.2351 12.4457 84.7262 12.4457Z" fill="url(#paint16_radial_13250_6165)"/>
<path d="M84.7262 12.4457C84.3989 12.4457 84.0171 12.5002 83.6899 12.5548C85.3261 14.9548 86.1443 17.4095 86.1443 18.5004C86.1443 22.4278 82.9263 23.4096 81.5627 23.4096C80.4718 23.4096 79.6537 23.1369 78.9992 22.7551V22.8096C78.781 23.5733 78.6719 24.446 78.3992 25.2642C77.9083 26.8461 77.1993 28.6461 76.4357 30.0643C75.6176 31.5916 74.854 32.4644 73.9267 32.4098C72.8359 32.3553 72.0178 30.9916 70.9269 27.1188C70.5997 25.8642 70.2724 24.5006 69.9451 23.1369C69.1815 19.8095 68.3089 16.4276 66.7817 13.4821C64.2727 8.62741 59.9639 7.1001 56.5277 7.1001C53.3642 7.1001 50.9644 8.62741 49.1099 10.5366C48.619 11.082 48.0191 11.7911 47.4736 12.6093C49.1099 12.9912 50.6371 14.2457 50.9098 16.5367C50.9644 16.9731 51.2916 20.5186 52.437 24.6096C52.7643 23.5733 53.2551 22.0459 54.346 19.6459C54.8914 18.5004 55.3823 17.7913 55.8186 17.3549C56.2004 16.9185 56.5822 16.7549 56.9095 16.7549C57.2913 16.7549 58.4912 17.0822 59.6912 21.2277C61.1093 26.3006 62.2001 34.4826 66.3453 38.8464C68.1998 40.7555 70.7633 42.0101 74.3085 42.0101C77.4175 42.0101 80.0355 40.6464 81.8899 38.7373C84.9443 35.5736 86.6351 30.3916 87.2351 28.4825C88.9259 23.0278 89.4168 18.064 89.4714 17.5186C89.7986 14.5185 87.2351 12.4457 84.7262 12.4457Z" fill="url(#paint17_linear_13250_6165)"/>
<path d="M84.7262 12.4457C84.3989 12.4457 84.0171 12.5002 83.6899 12.5548C85.3261 14.9548 86.1443 17.4095 86.1443 18.5004C86.1443 22.4278 82.9263 23.4096 81.5627 23.4096C80.4718 23.4096 79.6537 23.1369 78.9992 22.7551V22.8096C78.781 23.5733 78.6719 24.446 78.3992 25.2642C77.9083 26.8461 77.1993 28.6461 76.4357 30.0643C75.6176 31.5916 74.854 32.4644 73.9267 32.4098C72.8359 32.3553 72.0178 30.9916 70.9269 27.1188C70.5997 25.8642 70.2724 24.5006 69.9451 23.1369C69.1815 19.8095 68.3089 16.4276 66.7817 13.4821C64.2727 8.62741 59.9639 7.1001 56.5277 7.1001C53.3642 7.1001 50.9644 8.62741 49.1099 10.5366C48.619 11.082 48.0191 11.7911 47.4736 12.6093C49.1099 12.9912 50.6371 14.2457 50.9098 16.5367C50.9644 16.9731 51.2916 20.5186 52.437 24.6096C52.7643 23.5733 53.2551 22.0459 54.346 19.6459C54.8914 18.5004 55.3823 17.7913 55.8186 17.3549C56.2004 16.9185 56.5822 16.7549 56.9095 16.7549C57.2913 16.7549 58.4912 17.0822 59.6912 21.2277C61.1093 26.3006 62.2001 34.4826 66.3453 38.8464C68.1998 40.7555 70.7633 42.0101 74.3085 42.0101C77.4175 42.0101 80.0355 40.6464 81.8899 38.7373C84.9443 35.5736 86.6351 30.3916 87.2351 28.4825C88.9259 23.0278 89.4168 18.064 89.4714 17.5186C89.7986 14.5185 87.2351 12.4457 84.7262 12.4457Z" fill="url(#paint18_linear_13250_6165)"/>
<path d="M84.7262 12.4457C84.3989 12.4457 84.0171 12.5002 83.6899 12.5548C85.3261 14.9548 86.1443 17.4095 86.1443 18.5004C86.1443 22.4278 82.9263 23.4096 81.5627 23.4096C80.4718 23.4096 79.6537 23.1369 78.9992 22.7551V22.8096C78.781 23.5733 78.6719 24.446 78.3992 25.2642C77.9083 26.8461 77.1993 28.6461 76.4357 30.0643C75.6176 31.5916 74.854 32.4644 73.9267 32.4098C72.8359 32.3553 72.0178 30.9916 70.9269 27.1188C70.5997 25.8642 70.2724 24.5006 69.9451 23.1369C69.1815 19.8095 68.3089 16.4276 66.7817 13.4821C64.2727 8.62741 59.9639 7.1001 56.5277 7.1001C53.3642 7.1001 50.9644 8.62741 49.1099 10.5366C48.619 11.082 48.0191 11.7911 47.4736 12.6093C49.1099 12.9912 50.6371 14.2457 50.9098 16.5367C50.9644 16.9731 51.2916 20.5186 52.437 24.6096C52.7643 23.5733 53.2551 22.0459 54.346 19.6459C54.8914 18.5004 55.3823 17.7913 55.8186 17.3549C56.2004 16.9185 56.5822 16.7549 56.9095 16.7549C57.2913 16.7549 58.4912 17.0822 59.6912 21.2277C61.1093 26.3006 62.2001 34.4826 66.3453 38.8464C68.1998 40.7555 70.7633 42.0101 74.3085 42.0101C77.4175 42.0101 80.0355 40.6464 81.8899 38.7373C84.9443 35.5736 86.6351 30.3916 87.2351 28.4825C88.9259 23.0278 89.4168 18.064 89.4714 17.5186C89.7986 14.5185 87.2351 12.4457 84.7262 12.4457Z" fill="url(#paint19_radial_13250_6165)"/>
<path d="M84.7262 12.4457C84.3989 12.4457 84.0171 12.5002 83.6899 12.5548C85.3261 14.9548 86.1443 17.4095 86.1443 18.5004C86.1443 22.4278 82.9263 23.4096 81.5627 23.4096C80.4718 23.4096 79.6537 23.1369 78.9992 22.7551V22.8096C78.781 23.5733 78.6719 24.446 78.3992 25.2642C77.9083 26.8461 77.1993 28.6461 76.4357 30.0643C75.6176 31.5916 74.854 32.4644 73.9267 32.4098C72.8359 32.3553 72.0178 30.9916 70.9269 27.1188C70.5997 25.8642 70.2724 24.5006 69.9451 23.1369C69.1815 19.8095 68.3089 16.4276 66.7817 13.4821C64.2727 8.62741 59.9639 7.1001 56.5277 7.1001C53.3642 7.1001 50.9644 8.62741 49.1099 10.5366C48.619 11.082 48.0191 11.7911 47.4736 12.6093C49.1099 12.9912 50.6371 14.2457 50.9098 16.5367C50.9644 16.9731 51.2916 20.5186 52.437 24.6096C52.7643 23.5733 53.2551 22.0459 54.346 19.6459C54.8914 18.5004 55.3823 17.7913 55.8186 17.3549C56.2004 16.9185 56.5822 16.7549 56.9095 16.7549C57.2913 16.7549 58.4912 17.0822 59.6912 21.2277C61.1093 26.3006 62.2001 34.4826 66.3453 38.8464C68.1998 40.7555 70.7633 42.0101 74.3085 42.0101C77.4175 42.0101 80.0355 40.6464 81.8899 38.7373C84.9443 35.5736 86.6351 30.3916 87.2351 28.4825C88.9259 23.0278 89.4168 18.064 89.4714 17.5186C89.7986 14.5185 87.2351 12.4457 84.7262 12.4457Z" fill="url(#paint20_radial_13250_6165)"/>
<path d="M84.7262 12.4457C84.3989 12.4457 84.0171 12.5002 83.6899 12.5548C85.3261 14.9548 86.1443 17.4095 86.1443 18.5004C86.1443 22.4278 82.9263 23.4096 81.5627 23.4096C80.4718 23.4096 79.6537 23.1369 78.9992 22.7551V22.8096C78.781 23.5733 78.6719 24.446 78.3992 25.2642C77.9083 26.8461 77.1993 28.6461 76.4357 30.0643C75.6176 31.5916 74.854 32.4644 73.9267 32.4098C72.8359 32.3553 72.0178 30.9916 70.9269 27.1188C70.5997 25.8642 70.2724 24.5006 69.9451 23.1369C69.1815 19.8095 68.3089 16.4276 66.7817 13.4821C64.2727 8.62741 59.9639 7.1001 56.5277 7.1001C53.3642 7.1001 50.9644 8.62741 49.1099 10.5366C48.619 11.082 48.0191 11.7911 47.4736 12.6093C49.1099 12.9912 50.6371 14.2457 50.9098 16.5367C50.9644 16.9731 51.2916 20.5186 52.437 24.6096C52.7643 23.5733 53.2551 22.0459 54.346 19.6459C54.8914 18.5004 55.3823 17.7913 55.8186 17.3549C56.2004 16.9185 56.5822 16.7549 56.9095 16.7549C57.2913 16.7549 58.4912 17.0822 59.6912 21.2277C61.1093 26.3006 62.2001 34.4826 66.3453 38.8464C68.1998 40.7555 70.7633 42.0101 74.3085 42.0101C77.4175 42.0101 80.0355 40.6464 81.8899 38.7373C84.9443 35.5736 86.6351 30.3916 87.2351 28.4825C88.9259 23.0278 89.4168 18.064 89.4714 17.5186C89.7986 14.5185 87.2351 12.4457 84.7262 12.4457Z" fill="url(#paint21_radial_13250_6165)"/>
<path d="M84.7262 12.4457C84.3989 12.4457 84.0171 12.5002 83.6899 12.5548C85.3261 14.9548 86.1443 17.4095 86.1443 18.5004C86.1443 22.4278 82.9263 23.4096 81.5627 23.4096C80.4718 23.4096 79.6537 23.1369 78.9992 22.7551V22.8096C78.781 23.5733 78.6719 24.446 78.3992 25.2642C77.9083 26.8461 77.1993 28.6461 76.4357 30.0643C75.6176 31.5916 74.854 32.4644 73.9267 32.4098C72.8359 32.3553 72.0178 30.9916 70.9269 27.1188C70.5997 25.8642 70.2724 24.5006 69.9451 23.1369C69.1815 19.8095 68.3089 16.4276 66.7817 13.4821C64.2727 8.62741 59.9639 7.1001 56.5277 7.1001C53.3642 7.1001 50.9644 8.62741 49.1099 10.5366C48.619 11.082 48.0191 11.7911 47.4736 12.6093C49.1099 12.9912 50.6371 14.2457 50.9098 16.5367C50.9644 16.9731 51.2916 20.5186 52.437 24.6096C52.7643 23.5733 53.2551 22.0459 54.346 19.6459C54.8914 18.5004 55.3823 17.7913 55.8186 17.3549C56.2004 16.9185 56.5822 16.7549 56.9095 16.7549C57.2913 16.7549 58.4912 17.0822 59.6912 21.2277C61.1093 26.3006 62.2001 34.4826 66.3453 38.8464C68.1998 40.7555 70.7633 42.0101 74.3085 42.0101C77.4175 42.0101 80.0355 40.6464 81.8899 38.7373C84.9443 35.5736 86.6351 30.3916 87.2351 28.4825C88.9259 23.0278 89.4168 18.064 89.4714 17.5186C89.7986 14.5185 87.2351 12.4457 84.7262 12.4457Z" fill="url(#paint22_radial_13250_6165)"/>
<path d="M84.7262 12.4457C84.3989 12.4457 84.0171 12.5002 83.6899 12.5548C85.3261 14.9548 86.1443 17.4095 86.1443 18.5004C86.1443 22.4278 82.9263 23.4096 81.5627 23.4096C80.4718 23.4096 79.6537 23.1369 78.9992 22.7551V22.8096C78.781 23.5733 78.6719 24.446 78.3992 25.2642C77.9083 26.8461 77.1993 28.6461 76.4357 30.0643C75.6176 31.5916 74.854 32.4644 73.9267 32.4098C72.8359 32.3553 72.0178 30.9916 70.9269 27.1188C70.5997 25.8642 70.2724 24.5006 69.9451 23.1369C69.1815 19.8095 68.3089 16.4276 66.7817 13.4821C64.2727 8.62741 59.9639 7.1001 56.5277 7.1001C53.3642 7.1001 50.9644 8.62741 49.1099 10.5366C48.619 11.082 48.0191 11.7911 47.4736 12.6093C49.1099 12.9912 50.6371 14.2457 50.9098 16.5367C50.9644 16.9731 51.2916 20.5186 52.437 24.6096C52.7643 23.5733 53.2551 22.0459 54.346 19.6459C54.8914 18.5004 55.3823 17.7913 55.8186 17.3549C56.2004 16.9185 56.5822 16.7549 56.9095 16.7549C57.2913 16.7549 58.4912 17.0822 59.6912 21.2277C61.1093 26.3006 62.2001 34.4826 66.3453 38.8464C68.1998 40.7555 70.7633 42.0101 74.3085 42.0101C77.4175 42.0101 80.0355 40.6464 81.8899 38.7373C84.9443 35.5736 86.6351 30.3916 87.2351 28.4825C88.9259 23.0278 89.4168 18.064 89.4714 17.5186C89.7986 14.5185 87.2351 12.4457 84.7262 12.4457Z" fill="url(#paint23_radial_13250_6165)"/>
<path d="M84.7262 12.4457C84.3989 12.4457 84.0171 12.5002 83.6899 12.5548C85.3261 14.9548 86.1443 17.4095 86.1443 18.5004C86.1443 22.4278 82.9263 23.4096 81.5627 23.4096C80.4718 23.4096 79.6537 23.1369 78.9992 22.7551V22.8096C78.781 23.5733 78.6719 24.446 78.3992 25.2642C77.9083 26.8461 77.1993 28.6461 76.4357 30.0643C75.6176 31.5916 74.854 32.4644 73.9267 32.4098C72.8359 32.3553 72.0178 30.9916 70.9269 27.1188C70.5997 25.8642 70.2724 24.5006 69.9451 23.1369C69.1815 19.8095 68.3089 16.4276 66.7817 13.4821C64.2727 8.62741 59.9639 7.1001 56.5277 7.1001C53.3642 7.1001 50.9644 8.62741 49.1099 10.5366C48.619 11.082 48.0191 11.7911 47.4736 12.6093C49.1099 12.9912 50.6371 14.2457 50.9098 16.5367C50.9644 16.9731 51.2916 20.5186 52.437 24.6096C52.7643 23.5733 53.2551 22.0459 54.346 19.6459C54.8914 18.5004 55.3823 17.7913 55.8186 17.3549C56.2004 16.9185 56.5822 16.7549 56.9095 16.7549C57.2913 16.7549 58.4912 17.0822 59.6912 21.2277C61.1093 26.3006 62.2001 34.4826 66.3453 38.8464C68.1998 40.7555 70.7633 42.0101 74.3085 42.0101C77.4175 42.0101 80.0355 40.6464 81.8899 38.7373C84.9443 35.5736 86.6351 30.3916 87.2351 28.4825C88.9259 23.0278 89.4168 18.064 89.4714 17.5186C89.7986 14.5185 87.2351 12.4457 84.7262 12.4457Z" fill="url(#paint24_linear_13250_6165)"/>
<path d="M84.7262 12.4457C84.3989 12.4457 84.0171 12.5002 83.6899 12.5548C85.3261 14.9548 86.1443 17.4095 86.1443 18.5004C86.1443 22.4278 82.9263 23.4096 81.5627 23.4096C80.4718 23.4096 79.6537 23.1369 78.9992 22.7551V22.8096C78.781 23.5733 78.6719 24.446 78.3992 25.2642C77.9083 26.8461 77.1993 28.6461 76.4357 30.0643C75.6176 31.5916 74.854 32.4644 73.9267 32.4098C72.8359 32.3553 72.0178 30.9916 70.9269 27.1188C70.5997 25.8642 70.2724 24.5006 69.9451 23.1369C69.1815 19.8095 68.3089 16.4276 66.7817 13.4821C64.2727 8.62741 59.9639 7.1001 56.5277 7.1001C53.3642 7.1001 50.9644 8.62741 49.1099 10.5366C48.619 11.082 48.0191 11.7911 47.4736 12.6093C49.1099 12.9912 50.6371 14.2457 50.9098 16.5367C50.9644 16.9731 51.2916 20.5186 52.437 24.6096C52.7643 23.5733 53.2551 22.0459 54.346 19.6459C54.8914 18.5004 55.3823 17.7913 55.8186 17.3549C56.2004 16.9185 56.5822 16.7549 56.9095 16.7549C57.2913 16.7549 58.4912 17.0822 59.6912 21.2277C61.1093 26.3006 62.2001 34.4826 66.3453 38.8464C68.1998 40.7555 70.7633 42.0101 74.3085 42.0101C77.4175 42.0101 80.0355 40.6464 81.8899 38.7373C84.9443 35.5736 86.6351 30.3916 87.2351 28.4825C88.9259 23.0278 89.4168 18.064 89.4714 17.5186C89.7986 14.5185 87.2351 12.4457 84.7262 12.4457Z" fill="url(#paint25_radial_13250_6165)"/>
<path d="M84.7262 12.4457C84.3989 12.4457 84.0171 12.5002 83.6899 12.5548C85.3261 14.9548 86.1443 17.4095 86.1443 18.5004C86.1443 22.4278 82.9263 23.4096 81.5627 23.4096C80.4718 23.4096 79.6537 23.1369 78.9992 22.7551V22.8096C78.781 23.5733 78.6719 24.446 78.3992 25.2642C77.9083 26.8461 77.1993 28.6461 76.4357 30.0643C75.6176 31.5916 74.854 32.4644 73.9267 32.4098C72.8359 32.3553 72.0178 30.9916 70.9269 27.1188C70.5997 25.8642 70.2724 24.5006 69.9451 23.1369C69.1815 19.8095 68.3089 16.4276 66.7817 13.4821C64.2727 8.62741 59.9639 7.1001 56.5277 7.1001C53.3642 7.1001 50.9644 8.62741 49.1099 10.5366C48.619 11.082 48.0191 11.7911 47.4736 12.6093C49.1099 12.9912 50.6371 14.2457 50.9098 16.5367C50.9644 16.9731 51.2916 20.5186 52.437 24.6096C52.7643 23.5733 53.2551 22.0459 54.346 19.6459C54.8914 18.5004 55.3823 17.7913 55.8186 17.3549C56.2004 16.9185 56.5822 16.7549 56.9095 16.7549C57.2913 16.7549 58.4912 17.0822 59.6912 21.2277C61.1093 26.3006 62.2001 34.4826 66.3453 38.8464C68.1998 40.7555 70.7633 42.0101 74.3085 42.0101C77.4175 42.0101 80.0355 40.6464 81.8899 38.7373C84.9443 35.5736 86.6351 30.3916 87.2351 28.4825C88.9259 23.0278 89.4168 18.064 89.4714 17.5186C89.7986 14.5185 87.2351 12.4457 84.7262 12.4457Z" fill="url(#paint26_radial_13250_6165)"/>
<path d="M84.7262 12.4457C84.3989 12.4457 84.0171 12.5002 83.6899 12.5548C85.3261 14.9548 86.1443 17.4095 86.1443 18.5004C86.1443 22.4278 82.9263 23.4096 81.5627 23.4096C80.4718 23.4096 79.6537 23.1369 78.9992 22.7551V22.8096C78.781 23.5733 78.6719 24.446 78.3992 25.2642C77.9083 26.8461 77.1993 28.6461 76.4357 30.0643C75.6176 31.5916 74.854 32.4644 73.9267 32.4098C72.8359 32.3553 72.0178 30.9916 70.9269 27.1188C70.5997 25.8642 70.2724 24.5006 69.9451 23.1369C69.1815 19.8095 68.3089 16.4276 66.7817 13.4821C64.2727 8.62741 59.9639 7.1001 56.5277 7.1001C53.3642 7.1001 50.9644 8.62741 49.1099 10.5366C48.619 11.082 48.0191 11.7911 47.4736 12.6093C49.1099 12.9912 50.6371 14.2457 50.9098 16.5367C50.9644 16.9731 51.2916 20.5186 52.437 24.6096C52.7643 23.5733 53.2551 22.0459 54.346 19.6459C54.8914 18.5004 55.3823 17.7913 55.8186 17.3549C56.2004 16.9185 56.5822 16.7549 56.9095 16.7549C57.2913 16.7549 58.4912 17.0822 59.6912 21.2277C61.1093 26.3006 62.2001 34.4826 66.3453 38.8464C68.1998 40.7555 70.7633 42.0101 74.3085 42.0101C77.4175 42.0101 80.0355 40.6464 81.8899 38.7373C84.9443 35.5736 86.6351 30.3916 87.2351 28.4825C88.9259 23.0278 89.4168 18.064 89.4714 17.5186C89.7986 14.5185 87.2351 12.4457 84.7262 12.4457Z" fill="url(#paint27_linear_13250_6165)"/>
<path d="M31.8675 60.5444H36.8799L29.5922 82.7319H23.842L18.3952 65.9889L12.9483 82.7319H7.28774L0 60.5444H5.12968L10.3007 77.4055L15.7269 60.5444H21.1737L26.6895 77.4958L31.8675 60.5444Z" fill="black"/>
<path d="M58.3777 73.4197H42.1199C42.2699 74.5638 42.696 75.6534 43.3609 76.5933C43.95 77.4156 44.7477 78.0633 45.6707 78.4683C46.6107 78.8772 47.6254 79.083 48.6492 79.0725C49.7841 79.0681 50.9093 78.8612 51.9725 78.4614C53.0748 78.0554 54.1041 77.4714 55.02 76.7322L57.4124 80.2044C56.1924 81.2759 54.7717 82.0905 53.2342 82.6002C51.6551 83.0995 50.0078 83.3456 48.3527 83.3294C46.3143 83.3699 44.3009 82.8719 42.5129 81.885C40.8217 80.9304 39.4366 79.5088 38.5208 77.7877C37.5358 75.9013 37.0423 73.7938 37.0867 71.6627C37.0445 69.5518 37.518 67.4627 38.4657 65.5794C39.3463 63.8664 40.6895 62.4389 42.3405 61.4614C44.0728 60.4572 46.0442 59.9482 48.0425 59.9891C49.9282 59.9366 51.7889 60.4327 53.4018 61.418C55.0148 62.4033 56.3115 63.8361 57.1366 65.5447C58.0476 67.4341 58.5012 69.5141 58.4604 71.6141C58.4673 72.0794 58.4397 72.6836 58.3777 73.4197ZM53.5514 69.7391C53.4032 68.2185 52.7553 66.7913 51.7105 65.6836C51.2096 65.2108 50.6194 64.8442 49.9751 64.6056C49.3308 64.367 48.6454 64.2613 47.9597 64.2947C47.238 64.2614 46.5169 64.3746 45.8394 64.6275C45.162 64.8804 44.5418 65.2679 44.016 65.7669C42.9746 66.8583 42.3098 68.2584 42.1199 69.76L53.5514 69.7391Z" fill="black"/>
<path d="M78.9444 61.4751C80.6216 62.4743 81.9969 63.9148 82.9227 65.6418C83.9126 67.4825 84.4159 69.5486 84.3843 71.6418C84.416 73.7327 83.9126 75.7966 82.9227 77.6348C81.9966 79.3698 80.6163 80.8159 78.9315 81.8162C77.2468 82.8165 75.3221 83.3326 73.3666 83.3084C71.9942 83.3374 70.6335 83.05 69.3883 82.4682C68.2471 81.9139 67.2489 81.101 66.4718 80.0932V82.732H61.6455V51.1001H66.4718V63.1834C67.2522 62.1824 68.2499 61.3747 69.3883 60.8223C70.6318 60.2348 71.9934 59.9448 73.3666 59.9751C75.3272 59.9509 77.2567 60.4698 78.9444 61.4751ZM76.3106 77.8015C77.3117 77.1816 78.1175 76.2882 78.6341 75.2251C79.1645 74.1048 79.4397 72.8794 79.4397 71.6383C79.4397 70.3972 79.1645 69.1717 78.6341 68.0515C78.1153 66.9899 77.31 66.097 76.3106 65.4751C75.2483 64.863 74.0457 64.541 72.8219 64.541C71.598 64.541 70.3954 64.863 69.3331 65.4751C68.3311 66.0879 67.5192 66.9707 66.9889 68.0237C66.4154 69.1484 66.1265 70.3984 66.1478 71.6626C66.1259 72.9247 66.4149 74.1725 66.9889 75.2945C67.5192 76.3476 68.3311 77.2303 69.3331 77.8432C70.3954 78.4552 71.598 78.7772 72.8219 78.7772C74.0457 78.7772 75.2483 78.4552 76.3106 77.8432V77.8015Z" fill="black"/>
<path d="M108.199 73.4197H91.9479C92.0979 74.5638 92.524 75.6534 93.1889 76.5933C93.778 77.4156 94.5757 78.0632 95.4987 78.4683C96.4387 78.8772 97.4533 79.083 98.4772 79.0724C99.612 79.0671 100.737 78.8602 101.8 78.4613C102.903 78.0554 103.932 77.4713 104.848 76.7322L107.234 80.2044C106.017 81.2772 104.598 82.092 103.062 82.6002C101.481 83.0991 99.8311 83.3451 98.1738 83.3294C96.1356 83.3676 94.1228 82.8697 92.334 81.8849C90.6463 80.9281 89.264 79.5069 88.3488 77.7877C87.3616 75.9018 86.8658 73.7943 86.9078 71.6627C86.8659 69.5518 87.3394 67.4628 88.2868 65.5794C89.1674 63.8664 90.5106 62.4389 92.1616 61.4613C93.9039 60.4425 95.8908 59.926 97.9049 59.9683C99.7901 59.9183 101.65 60.4155 103.262 61.4005C104.875 62.3855 106.172 63.8169 106.999 65.5238C107.91 67.4133 108.364 69.4932 108.323 71.5933C108.295 72.0794 108.247 72.6835 108.199 73.4197ZM103.372 69.7391C103.213 68.2283 102.564 66.8125 101.525 65.7113C101.027 65.2359 100.44 64.8656 99.7985 64.6223C99.1567 64.379 98.473 64.2676 97.7877 64.2947C97.0659 64.2606 96.3446 64.3734 95.667 64.6263C94.9894 64.8793 94.3694 65.2672 93.8439 65.7669C92.8002 66.8566 92.135 68.2575 91.9479 69.7599L103.372 69.7391Z" fill="black"/>
<path d="M131.124 82.7319H125.215L119.63 75.0167L114.114 82.7319H108.481L116.755 71.4055L108.612 60.5444H114.528L119.906 67.9542L125.284 60.5444H131L122.822 71.3639L131.124 82.7319Z" fill="black"/>
<path d="M65.7708 92.1353H63.5391V101.089H65.7708V92.1353Z" fill="black"/>
<path d="M83.859 94.7004C83.2818 94.3837 82.6343 94.2196 81.977 94.2233C80.5238 94.2233 79.5171 95.2399 79.5171 96.611C79.5171 97.9422 80.4817 99.0012 81.977 99.0012C82.6338 99.0037 83.2808 98.8406 83.859 98.5267V100.929C83.197 101.135 82.5086 101.242 81.8158 101.247C79.2939 101.247 77.082 99.4982 77.082 96.611C77.082 93.9386 79.0856 91.978 81.8158 91.978C82.5088 91.9798 83.1979 92.0877 83.859 92.2977V94.7004Z" fill="black"/>
<path d="M60.4465 94.7004C59.8685 94.3834 59.22 94.2194 58.5619 94.2233C57.1088 94.2233 56.1045 95.2399 56.1045 96.611C56.1045 97.9422 57.0667 99.0012 58.5619 99.0012C59.2195 99.0027 59.867 98.8396 60.4465 98.5267V100.929C59.7834 101.135 59.0943 101.242 58.4007 101.247C55.8789 101.247 53.667 99.4982 53.667 96.611C53.667 93.9386 55.6706 91.978 58.4007 91.978C59.0948 91.9798 59.7846 92.0874 60.4465 92.2977V94.7004Z" fill="black"/>
<path d="M90.9158 94.2558C90.6088 94.2531 90.3045 94.3123 90.0208 94.4299C89.7369 94.5475 89.4793 94.7214 89.2633 94.9409C89.0473 95.1604 88.8769 95.4212 88.7626 95.7082C88.6481 95.9949 88.592 96.3021 88.5972 96.611C88.5913 96.9205 88.6471 97.2279 88.7611 97.5152C88.8752 97.8024 89.0453 98.0639 89.2616 98.2837C89.4778 98.5034 89.7357 98.6775 90.0198 98.7952C90.304 98.9128 90.6085 98.9717 90.9158 98.9687C91.223 98.9715 91.5277 98.9123 91.8117 98.7944C92.0958 98.6765 92.3537 98.5027 92.57 98.2829C92.7864 98.0634 92.9568 97.8021 93.0714 97.5149C93.1859 97.2277 93.2422 96.9205 93.2368 96.611C93.2417 96.3018 93.1852 95.9949 93.0706 95.7079C92.9561 95.4209 92.7854 95.1602 92.5692 94.9407C92.3527 94.7211 92.0951 94.5475 91.8112 94.4299C91.5272 94.3123 91.2227 94.2531 90.9158 94.2558ZM95.6123 96.611C95.6123 99.1735 93.6509 101.247 90.9158 101.247C88.1807 101.247 86.2217 99.1735 86.2217 96.611C86.2217 94.0485 88.1831 91.978 90.9158 91.978C93.6484 91.978 95.6123 94.0535 95.6123 96.611Z" fill="black"/>
<path d="M74.2791 94.1707C73.7071 94.0124 73.1189 93.9212 72.526 93.8985C71.6283 93.8985 71.1398 94.2007 71.1398 94.6303C71.1398 95.1773 71.7994 95.3796 72.1664 95.4845L72.7863 95.6818C74.2419 96.1488 74.904 97.1529 74.904 98.2443C74.904 100.492 72.9426 101.241 71.2241 101.241C70.4118 101.232 69.6017 101.148 68.8039 100.992V98.9311C69.493 99.1322 70.2047 99.2438 70.9216 99.2633C72.0375 99.2633 72.5508 98.9361 72.5508 98.4266C72.5508 97.9746 72.1069 97.7123 71.5589 97.535L71.0803 97.3801C69.8405 96.983 68.7891 96.2437 68.7891 94.7602C68.7891 93.0868 70.0289 91.9629 72.1019 91.9629C72.8387 91.9731 73.5717 92.0688 74.2865 92.2476L74.2791 94.1707Z" fill="black"/>
<path d="M37.9989 101.059H37.0244V92.1255H38.2072V95.4997C38.4438 95.1505 38.7652 94.8683 39.1403 94.6795C39.5158 94.4907 39.9328 94.4015 40.3522 94.4208C40.7628 94.401 41.172 94.4817 41.5449 94.6558C41.9178 94.8296 42.2437 95.0919 42.4946 95.4198C42.9459 96.016 43.1716 96.8059 43.1716 97.79C43.1716 98.9556 42.8641 99.8487 42.2491 100.47C41.9888 100.729 41.6786 100.933 41.3374 101.067C40.9961 101.201 40.6314 101.264 40.2654 101.252C39.8584 101.273 39.4533 101.188 39.0885 101.005C38.7237 100.823 38.4116 100.549 38.1824 100.21L37.9989 101.059ZM41.9392 97.7575C41.9392 96.9466 41.7383 96.3389 41.3366 95.9343C41.1729 95.7675 40.9768 95.6368 40.7603 95.5509C40.5438 95.4647 40.3117 95.4253 40.0794 95.4348C39.8066 95.4235 39.5354 95.477 39.2871 95.5911C39.0392 95.7053 38.8212 95.8768 38.6511 96.0916C38.2992 96.5714 38.1239 97.1594 38.1552 97.755C38.1552 98.5817 38.356 99.2161 38.7602 99.6532C38.9258 99.8417 39.1309 99.9906 39.3608 100.09C39.5907 100.188 39.8394 100.235 40.0893 100.225C40.3621 100.241 40.6341 100.186 40.8801 100.066C41.1261 99.9464 41.3378 99.7656 41.4953 99.5408C41.7944 99.1212 41.9441 98.5268 41.9441 97.7575H41.9392Z" fill="black"/>
<path d="M49.5094 94.6051L47.2777 101.144C46.9802 102.013 46.6967 102.605 46.4272 102.92C46.2752 103.1 46.085 103.244 45.8703 103.34C45.6558 103.437 45.4222 103.483 45.1873 103.476C44.9294 103.47 44.6731 103.433 44.4236 103.367V102.393C44.6252 102.446 44.8325 102.476 45.041 102.48C45.1534 102.485 45.2654 102.464 45.3681 102.418C45.4705 102.371 45.5608 102.301 45.6312 102.213C45.8574 101.851 46.0356 101.462 46.1619 101.054H45.78L43.4268 94.6001H44.6939L46.5065 100.095L48.3167 94.6001L49.5094 94.6051Z" fill="black"/>
<defs>
<linearGradient id="paint0_linear_13250_6165" x1="81.3879" y1="17.5687" x2="49.9966" y2="27.8713" gradientUnits="userSpaceOnUse">
<stop stop-color="#7B7B7B"/>
<stop offset="1" stop-color="#464646"/>
</linearGradient>
<radialGradient id="paint1_radial_13250_6165" cx="0" cy="0" r="1" gradientTransform="matrix(-10.55 -17.6424 14.8153 -8.86082 59.7451 25.6369)" gradientUnits="userSpaceOnUse">
<stop/>
<stop offset="0.4079" stop-opacity="0.75"/>
<stop offset="0.8745" stop-opacity="0"/>
</radialGradient>
<radialGradient id="paint2_radial_13250_6165" cx="0" cy="0" r="1" gradientTransform="matrix(-10.0324 -13.4327 8.82734 -6.5939 73.2587 21.8226)" gradientUnits="userSpaceOnUse">
<stop stop-color="#0D0D0D"/>
<stop offset="0.4595" stop-color="#090909"/>
<stop offset="1" stop-opacity="0"/>
</radialGradient>
<radialGradient id="paint3_radial_13250_6165" cx="0" cy="0" r="1" gradientTransform="matrix(-8.00139 -14.51 10.0591 -5.5479 62.4733 28.1006)" gradientUnits="userSpaceOnUse">
<stop/>
<stop offset="0.4079" stop-opacity="0.79"/>
<stop offset="0.8745" stop-opacity="0"/>
</radialGradient>
<radialGradient id="paint4_radial_13250_6165" cx="0" cy="0" r="1" gradientTransform="matrix(1.11653 13.0086 -7.38376 0.633854 70.8254 22.1921)" gradientUnits="userSpaceOnUse">
<stop/>
<stop offset="0.2326" stop-opacity="0.75"/>
<stop offset="0.5989" stop-opacity="0.3008"/>
<stop offset="0.8745" stop-opacity="0"/>
</radialGradient>
<radialGradient id="paint5_radial_13250_6165" cx="0" cy="0" r="1" gradientTransform="matrix(8.348 12.8831 -6.75896 4.38037 71.391 1.08838)" gradientUnits="userSpaceOnUse">
<stop stop-color="#2B2B2B"/>
<stop offset="0.4079" stop-color="#323232"/>
<stop offset="1" stop-color="#323232" stop-opacity="0.07"/>
</radialGradient>
<radialGradient id="paint6_radial_13250_6165" cx="0" cy="0" r="1" gradientTransform="matrix(7.36325 6.81837 -9.42294 10.1776 39.2927 13.1003)" gradientUnits="userSpaceOnUse">
<stop stop-color="white"/>
<stop offset="1" stop-color="#4A4A4A" stop-opacity="0"/>
</radialGradient>
<radialGradient id="paint7_radial_13250_6165" cx="0" cy="0" r="1" gradientTransform="matrix(12.2721 -1.90914 2.63842 16.9626 33.8385 23.1914)" gradientUnits="userSpaceOnUse">
<stop stop-color="white"/>
<stop offset="1" stop-color="#4A4A4A" stop-opacity="0"/>
</radialGradient>
<radialGradient id="paint8_radial_13250_6165" cx="0" cy="0" r="1" gradientTransform="matrix(10.9085 -6.81838 9.42294 15.0779 36.8383 35.1917)" gradientUnits="userSpaceOnUse">
<stop stop-color="white"/>
<stop offset="1" stop-color="#4A4A4A" stop-opacity="0"/>
</radialGradient>
<radialGradient id="paint9_radial_13250_6165" cx="0" cy="0" r="1" gradientTransform="matrix(27.2183 30.2187 -30.1713 27.18 50.5156 -5.92619)" gradientUnits="userSpaceOnUse">
<stop stop-color="#464646"/>
<stop offset="0.7454" stop-color="#444444" stop-opacity="0"/>
</radialGradient>
<radialGradient id="paint10_radial_13250_6165" cx="0" cy="0" r="1" gradientTransform="matrix(-8.83055 -10.685 7.48116 -6.18373 82.4772 17.1082)" gradientUnits="userSpaceOnUse">
<stop stop-color="#717171"/>
<stop offset="1" stop-color="#444444" stop-opacity="0"/>
</radialGradient>
<radialGradient id="paint11_radial_13250_6165" cx="0" cy="0" r="1" gradientTransform="matrix(0.726724 -3.38147 4.72894 1.01648 80.2924 25.7325)" gradientUnits="userSpaceOnUse">
<stop stop-color="#0F0F0F"/>
<stop offset="1" stop-opacity="0"/>
</radialGradient>
<radialGradient id="paint12_radial_13250_6165" cx="0" cy="0" r="1" gradientTransform="matrix(-8.22558 -4.45868 3.13222 -5.77939 84.8357 15.5549)" gradientUnits="userSpaceOnUse">
<stop stop-color="#7C7C7C"/>
<stop offset="0.8133" stop-color="#727272" stop-opacity="0"/>
</radialGradient>
<radialGradient id="paint13_radial_13250_6165" cx="0" cy="0" r="1" gradientTransform="matrix(-9.58915 -1.73138 1.21629 -6.73747 86.1993 12.8275)" gradientUnits="userSpaceOnUse">
<stop stop-color="#C4C4C4"/>
<stop offset="0.8133" stop-color="#727272" stop-opacity="0"/>
</radialGradient>
<radialGradient id="paint14_radial_13250_6165" cx="0" cy="0" r="1" gradientTransform="matrix(12.988 15.2767 -15.2393 12.9584 34.4368 4.15771)" gradientUnits="userSpaceOnUse">
<stop stop-color="#4C4C4C"/>
<stop offset="1" stop-color="#494949" stop-opacity="0"/>
</radialGradient>
<linearGradient id="paint15_linear_13250_6165" x1="88.1078" y1="23.7369" x2="44.4738" y2="23.7369" gradientUnits="userSpaceOnUse">
<stop stop-color="#3E3E3E" stop-opacity="0"/>
<stop offset="0.460592" stop-color="#3E3E3E"/>
<stop offset="1" stop-color="#3E3E3E" stop-opacity="0"/>
</linearGradient>
<radialGradient id="paint16_radial_13250_6165" cx="0" cy="0" r="1" gradientTransform="matrix(8.10562 6.20509 -8.62238 11.2651 80.846 22.787)" gradientUnits="userSpaceOnUse">
<stop stop-color="#010101"/>
<stop offset="0.9661" stop-color="#010101" stop-opacity="0"/>
</radialGradient>
<linearGradient id="paint17_linear_13250_6165" x1="99.8344" y1="18.8277" x2="80.4709" y2="31.372" gradientUnits="userSpaceOnUse">
<stop stop-color="white" stop-opacity="0.3"/>
<stop offset="0.9661" stop-color="white" stop-opacity="0"/>
</linearGradient>
<linearGradient id="paint18_linear_13250_6165" x1="86.4715" y1="42.0101" x2="76.1081" y2="36.8288" gradientUnits="userSpaceOnUse">
<stop stop-color="white" stop-opacity="0.3"/>
<stop offset="0.9661" stop-color="white" stop-opacity="0"/>
</linearGradient>
<radialGradient id="paint19_radial_13250_6165" cx="0" cy="0" r="1" gradientTransform="matrix(11.916 1.77653 -2.64941 17.7736 78.297 23.9588)" gradientUnits="userSpaceOnUse">
<stop stop-color="#010101"/>
<stop offset="0.5925" stop-color="#010101" stop-opacity="0"/>
</radialGradient>
<radialGradient id="paint20_radial_13250_6165" cx="0" cy="0" r="1" gradientTransform="matrix(9.35267 4.2912 -7.64171 16.6578 79.2748 25.4495)" gradientUnits="userSpaceOnUse">
<stop stop-color="#010101"/>
<stop offset="0.7568" stop-color="#010101" stop-opacity="0"/>
</radialGradient>
<radialGradient id="paint21_radial_13250_6165" cx="0" cy="0" r="1" gradientTransform="matrix(-0.818133 7.90931 -3.40406 -0.35217 57.0186 22.9187)" gradientUnits="userSpaceOnUse">
<stop stop-color="#010101"/>
<stop offset="0.8846" stop-color="#010101" stop-opacity="0"/>
</radialGradient>
<radialGradient id="paint22_radial_13250_6165" cx="0" cy="0" r="1" gradientTransform="matrix(20.4535 -2.72735 2.77981 20.8502 45.0192 25.1006)" gradientUnits="userSpaceOnUse">
<stop stop-color="#010101" stop-opacity="0.5"/>
<stop offset="0.8846" stop-color="#010101" stop-opacity="0"/>
</radialGradient>
<radialGradient id="paint23_radial_13250_6165" cx="0" cy="0" r="1" gradientTransform="matrix(22.9078 -1.36367 2.66376 44.7547 47.4736 21.8278)" gradientUnits="userSpaceOnUse">
<stop stop-color="#010101" stop-opacity="0.5"/>
<stop offset="0.822914" stop-color="#010101" stop-opacity="0"/>
</radialGradient>
<linearGradient id="paint24_linear_13250_6165" x1="59.473" y1="46.3738" x2="70.655" y2="36.5563" gradientUnits="userSpaceOnUse">
<stop stop-color="#010101"/>
<stop offset="1" stop-color="#010101" stop-opacity="0"/>
</linearGradient>
<radialGradient id="paint25_radial_13250_6165" cx="0" cy="0" r="1" gradientTransform="matrix(-8.53472 -3.18413 5.44822 -14.6057 53.5139 19.8181)" gradientUnits="userSpaceOnUse">
<stop stop-color="#010101"/>
<stop offset="0.709" stop-color="#010101" stop-opacity="0"/>
</radialGradient>
<radialGradient id="paint26_radial_13250_6165" cx="0" cy="0" r="1" gradientTransform="matrix(5.99967 9.54569 -6.44165 4.04936 63.5637 13.1003)" gradientUnits="userSpaceOnUse">
<stop stop-color="white" stop-opacity="0.15"/>
<stop offset="1" stop-color="white" stop-opacity="0"/>
</radialGradient>
<linearGradient id="paint27_linear_13250_6165" x1="55.9277" y1="4.91822" x2="56.4732" y2="10.1002" gradientUnits="userSpaceOnUse">
<stop stop-opacity="0.5"/>
<stop offset="1" stop-opacity="0"/>
</linearGradient>
</defs>
</svg>
