<svg width="215" height="28" viewBox="0 0 215 28" fill="none" xmlns="http://www.w3.org/2000/svg">
<path fill-rule="evenodd" clip-rule="evenodd" d="M52.6993 10.206C52.112 9.11685 51.2395 8.20788 50.1753 7.57632C49.1023 6.93999 47.8751 6.61092 46.6276 6.6251C45.7565 6.60792 44.893 6.79086 44.1036 7.15986C43.3786 7.51049 42.7434 8.0226 42.2469 8.65689V1.02979H39.1929V20.9927H42.2469V19.3269C42.7438 19.9612 43.3788 20.4737 44.1036 20.8255C44.8935 21.1932 45.7567 21.3756 46.6276 21.3587C47.87 21.3718 49.0922 21.0453 50.1624 20.4141C51.2324 19.783 52.1098 18.8713 52.6993 17.7778C53.309 16.609 53.6273 15.3102 53.6273 13.9919C53.6273 12.6736 53.309 11.3748 52.6993 10.206ZM49.9782 16.2572C49.6491 16.9258 49.1378 17.4881 48.5032 17.8788C47.8298 18.2691 47.0657 18.4757 46.2872 18.4782C45.5089 18.4808 44.7435 18.279 44.0673 17.893C43.431 17.5059 42.9148 16.9493 42.5766 16.2856C42.2261 15.5715 42.0438 14.7866 42.0438 13.9911C42.0438 13.1956 42.2261 12.4108 42.5766 11.6967C42.9148 11.033 43.431 10.4764 44.0673 10.0892C44.7435 9.70331 45.5089 9.5015 46.2872 9.504C47.0657 9.50647 47.8298 9.71319 48.5032 10.1034C49.1378 10.4949 49.6491 11.0575 49.9782 11.7267C50.3157 12.4341 50.4908 13.2081 50.4908 13.9919C50.4908 14.7758 50.3157 15.5497 49.9782 16.2572Z" fill="white"/>
<path fill-rule="evenodd" clip-rule="evenodd" d="M37.1107 15.1165H26.7719C26.8675 15.8382 27.1383 16.5255 27.5606 17.1184C27.9368 17.6363 28.4437 18.045 29.0292 18.3031C29.6271 18.5592 30.2718 18.6883 30.9222 18.6817C31.6431 18.6785 32.3577 18.5476 33.0329 18.2952C33.7334 18.0398 34.3876 17.6722 34.97 17.2067L36.4891 19.3836C35.7154 20.0602 34.8137 20.5746 33.8374 20.8964C32.8327 21.2121 31.7845 21.3675 30.7313 21.3571C29.434 21.382 28.1528 21.0671 27.0148 20.4437C25.944 19.8397 25.0683 18.9421 24.4908 17.8566C23.8819 16.7419 23.5775 15.4536 23.5775 13.9918C23.5513 12.6597 23.8548 11.3418 24.4609 10.1554C25.0193 9.07291 25.8732 8.17092 26.9233 7.55411C28.0263 6.9216 29.2804 6.60048 30.5515 6.62498C31.7636 6.60292 32.9572 6.92509 33.9936 7.55411C34.9973 8.18336 35.8042 9.08196 36.3219 10.1475C36.9005 11.3394 37.1887 12.6514 37.1627 13.976C37.1627 14.2694 37.1454 14.6496 37.1107 15.1165ZM34.0346 12.7929C33.8696 11.7013 33.4773 10.8537 32.8578 10.25C32.2385 9.64637 31.4497 9.34455 30.4916 9.34455C29.4484 9.34455 28.6128 9.65373 27.9849 10.2721C27.3571 10.8905 26.9555 11.7318 26.7798 12.7961L34.0346 12.7929Z" fill="white"/>
<path d="M23.4413 6.99108H20.2548L16.9532 17.6896L13.459 6.99108H9.99648L6.54653 17.6296L3.25907 6.99108H0L4.63305 20.9912H8.22182L11.6844 10.4221L15.1548 20.9912H18.8114L23.4413 6.99108Z" fill="white"/>
<path fill-rule="evenodd" clip-rule="evenodd" d="M68.7717 15.1166H58.4392C58.5348 15.8382 58.8055 16.5255 59.228 17.1184C59.6048 17.6361 60.1121 18.0448 60.6982 18.3031C61.296 18.5594 61.9407 18.6883 62.5911 18.6817C63.3125 18.6787 64.0276 18.5477 64.7034 18.2952C65.4035 18.0401 66.0573 17.6725 66.6389 17.2067L68.1596 19.3836C67.3848 20.0604 66.482 20.5748 65.5047 20.8964C64.5005 21.2121 63.4529 21.3675 62.4003 21.3571C61.1045 21.3817 59.8249 21.0668 58.6885 20.4437C57.6131 19.8414 56.7328 18.9437 56.1519 17.8566C55.543 16.7419 55.2385 15.4536 55.2385 13.9918C55.2128 12.6596 55.5168 11.3417 56.1235 10.1554C56.6814 9.07261 57.5353 8.17054 58.5859 7.55413C59.6889 6.92148 60.9428 6.60034 62.2141 6.62499C63.4262 6.6025 64.6199 6.92471 65.6562 7.55413C66.6634 8.18201 67.4736 9.08075 67.994 10.1475C68.5726 11.3394 68.8607 12.6514 68.8348 13.976C68.8316 14.2695 68.8107 14.6496 68.7717 15.1166ZM65.7035 12.7929C65.5363 11.7013 65.144 10.8537 64.5267 10.25C63.9094 9.64638 63.1175 9.34456 62.151 9.34456C61.1088 9.34456 60.2733 9.65375 59.6444 10.2721C59.0155 10.8905 58.6138 11.7318 58.4392 12.7961L65.7035 12.7929Z" fill="white"/>
<path d="M83.3429 20.9912H79.587L76.0345 16.1247L72.5278 20.9912H68.9469L74.2235 13.8452L69.0352 6.99108H72.7912L76.2112 11.6683L79.6296 6.99108H83.2404L78.0663 13.8153L83.3429 20.9912Z" fill="white"/>
<path d="M211.807 13.3914L213.659 13.0632C213.45 12.2429 213.019 11.5889 212.367 11.1013C211.715 10.6091 210.822 10.363 209.688 10.363C208.899 10.363 208.2 10.4952 207.589 10.7595C206.978 11.0193 206.5 11.3816 206.153 11.8464C205.807 12.3113 205.634 12.8536 205.634 13.4734C205.634 14.2208 205.866 14.8383 206.331 15.3259C206.8 15.8136 207.525 16.169 208.505 16.3923L210.282 16.782C210.784 16.8959 211.155 17.0645 211.396 17.2878C211.643 17.5111 211.766 17.7869 211.766 18.115C211.766 18.5206 211.565 18.8647 211.164 19.1472C210.763 19.4252 210.228 19.5642 209.558 19.5642C208.942 19.5642 208.443 19.4343 208.061 19.1746C207.678 18.9102 207.425 18.5206 207.302 18.0056L205.326 18.3064C205.495 19.2361 205.951 19.9539 206.693 20.4597C207.436 20.961 208.396 21.2117 209.571 21.2117C210.419 21.2117 211.164 21.0727 211.807 20.7947C212.454 20.5167 212.957 20.1339 213.317 19.6462C213.682 19.1541 213.864 18.5935 213.864 17.9646C213.864 17.2218 213.627 16.6179 213.153 16.1531C212.679 15.6882 211.959 15.3442 210.993 15.1208L209.325 14.738C208.746 14.6013 208.327 14.4259 208.067 14.2117C207.808 13.9975 207.678 13.7149 207.678 13.364C207.678 12.9584 207.871 12.628 208.259 12.3728C208.646 12.113 209.129 11.9832 209.708 11.9832C210.132 11.9832 210.485 12.0515 210.768 12.1882C211.05 12.325 211.273 12.5004 211.438 12.7146C211.606 12.9288 211.729 13.1544 211.807 13.3914Z" fill="white"/>
<path d="M199.253 10.4998H201.229V12.1677H201.338C201.53 11.6026 201.867 11.1583 202.35 10.8347C202.837 10.5066 203.389 10.3425 204.004 10.3425C204.132 10.3425 204.282 10.3471 204.455 10.3562C204.633 10.3653 204.772 10.3767 204.872 10.3904V12.3455C204.79 12.3227 204.644 12.2976 204.435 12.2703C204.225 12.2384 204.016 12.2224 203.806 12.2224C203.323 12.2224 202.892 12.325 202.514 12.53C202.14 12.7306 201.844 13.0108 201.625 13.3709C201.406 13.7263 201.297 14.1319 201.297 14.5876V20.9998H199.253V10.4998Z" fill="white"/>
<path fill-rule="evenodd" clip-rule="evenodd" d="M190.657 20.5486C191.405 20.9906 192.296 21.2117 193.33 21.2117C194.096 21.2117 194.777 21.0955 195.374 20.863C195.976 20.6261 196.475 20.2957 196.871 19.8718C197.272 19.4434 197.55 18.9444 197.705 18.3748L195.771 18.0261C195.648 18.3542 195.47 18.63 195.238 18.8533C195.005 19.0766 194.729 19.2452 194.41 19.3591C194.091 19.4685 193.738 19.5232 193.351 19.5232C192.754 19.5232 192.232 19.3956 191.785 19.1404C191.339 18.8806 190.99 18.5046 190.74 18.0125C190.51 17.5542 190.388 17.005 190.372 16.365H197.835V15.6404C197.835 14.6879 197.708 13.879 197.452 13.2136C197.197 12.5437 196.849 11.9991 196.406 11.5798C195.964 11.1606 195.465 10.8529 194.909 10.657C194.353 10.461 193.779 10.363 193.187 10.363C192.212 10.363 191.359 10.5932 190.63 11.0535C189.906 11.5138 189.34 12.1541 188.935 12.9744C188.534 13.7947 188.333 14.7426 188.333 15.8181C188.333 16.9073 188.534 17.8575 188.935 18.6687C189.34 19.4753 189.915 20.102 190.657 20.5486ZM195.832 14.8337H190.376C190.4 14.3824 190.512 13.9608 190.712 13.5691C190.945 13.1179 191.273 12.7533 191.697 12.4753C192.125 12.1928 192.626 12.0515 193.2 12.0515C193.729 12.0515 194.189 12.1723 194.581 12.4138C194.978 12.6554 195.285 12.9858 195.504 13.405C195.723 13.8197 195.832 14.296 195.832 14.8337Z" fill="white"/>
<path fill-rule="evenodd" clip-rule="evenodd" d="M177.774 24.9373V10.4998H179.77V12.2019H179.941C180.06 11.9832 180.231 11.7302 180.454 11.4431C180.677 11.156 180.987 10.9054 181.384 10.6912C181.78 10.4724 182.304 10.363 182.956 10.363C183.803 10.363 184.56 10.5772 185.225 11.0056C185.891 11.434 186.413 12.0515 186.791 12.8582C187.174 13.6648 187.365 14.6355 187.365 15.7703C187.365 16.905 187.176 17.878 186.798 18.6892C186.419 19.4958 185.9 20.1179 185.239 20.5554C184.578 20.9884 183.824 21.2048 182.976 21.2048C182.338 21.2048 181.816 21.0977 181.411 20.8835C181.01 20.6694 180.695 20.4187 180.468 20.1316C180.24 19.8445 180.064 19.5893 179.941 19.366H179.818V24.9373H177.774ZM179.777 15.7498C179.777 16.488 179.884 17.1352 180.098 17.6912C180.313 18.2472 180.622 18.6824 181.028 18.9968C181.434 19.3067 181.93 19.4617 182.518 19.4617C183.129 19.4617 183.639 19.2999 184.05 18.9763C184.46 18.6482 184.77 18.2039 184.979 17.6433C185.193 17.0828 185.301 16.4516 185.301 15.7498C185.301 15.057 185.196 14.435 184.986 13.8835C184.781 13.3321 184.471 12.8969 184.056 12.5779C183.646 12.2589 183.134 12.0994 182.518 12.0994C181.926 12.0994 181.425 12.252 181.014 12.5574C180.609 12.8627 180.301 13.2888 180.092 13.8357C179.882 14.3826 179.777 15.0206 179.777 15.7498Z" fill="white"/>
<path fill-rule="evenodd" clip-rule="evenodd" d="M168.871 20.5349C169.605 20.9861 170.464 21.2117 171.448 21.2117C172.433 21.2117 173.292 20.9861 174.025 20.5349C174.759 20.0837 175.329 19.4526 175.734 18.6414C176.14 17.8302 176.343 16.8822 176.343 15.7976C176.343 14.7084 176.14 13.7559 175.734 12.9402C175.329 12.1244 174.759 11.491 174.025 11.0398C173.292 10.5886 172.433 10.363 171.448 10.363C170.464 10.363 169.605 10.5886 168.871 11.0398C168.137 11.491 167.568 12.1244 167.162 12.9402C166.757 13.7559 166.554 14.7084 166.554 15.7976C166.554 16.8822 166.757 17.8302 167.162 18.6414C167.568 19.4526 168.137 20.0837 168.871 20.5349ZM173.041 18.99C172.622 19.3272 172.093 19.4958 171.455 19.4958C170.812 19.4958 170.279 19.3272 169.855 18.99C169.436 18.6528 169.124 18.2039 168.919 17.6433C168.718 17.0828 168.618 16.4653 168.618 15.7908C168.618 15.1208 168.718 14.5056 168.919 13.9451C169.124 13.38 169.436 12.9265 169.855 12.5847C170.279 12.2429 170.812 12.072 171.455 12.072C172.093 12.072 172.622 12.2429 173.041 12.5847C173.46 12.9265 173.77 13.38 173.971 13.9451C174.176 14.5056 174.278 15.1208 174.278 15.7908C174.278 16.4653 174.176 17.0828 173.971 17.6433C173.77 18.2039 173.46 18.6528 173.041 18.99Z" fill="white"/>
<path d="M165.125 6.99976V20.9998H163.082V6.99976H165.125Z" fill="white"/>
<path fill-rule="evenodd" clip-rule="evenodd" d="M154.486 20.5486C155.233 20.9906 156.124 21.2117 157.159 21.2117C157.925 21.2117 158.606 21.0955 159.203 20.863C159.804 20.6261 160.303 20.2957 160.7 19.8718C161.101 19.4434 161.379 18.9444 161.534 18.3748L159.599 18.0261C159.476 18.3542 159.299 18.63 159.066 18.8533C158.834 19.0766 158.558 19.2452 158.239 19.3591C157.92 19.4685 157.567 19.5232 157.179 19.5232C156.582 19.5232 156.061 19.3956 155.614 19.1404C155.167 18.8806 154.819 18.5046 154.568 18.0125C154.339 17.5542 154.217 17.005 154.201 16.365H161.664V15.6404C161.664 14.6879 161.536 13.879 161.281 13.2136C161.026 12.5437 160.677 11.9991 160.235 11.5798C159.793 11.1606 159.294 10.8529 158.738 10.657C158.182 10.461 157.608 10.363 157.015 10.363C156.04 10.363 155.188 10.5932 154.459 11.0535C153.734 11.5138 153.169 12.1541 152.763 12.9744C152.362 13.7947 152.162 14.7426 152.162 15.8181C152.162 16.9073 152.362 17.8575 152.763 18.6687C153.169 19.4753 153.743 20.102 154.486 20.5486ZM154.204 14.8337H159.661C159.661 14.296 159.552 13.8197 159.333 13.405C159.114 12.9858 158.806 12.6554 158.41 12.4138C158.018 12.1723 157.558 12.0515 157.029 12.0515C156.455 12.0515 155.954 12.1928 155.525 12.4753C155.101 12.7533 154.773 13.1179 154.541 13.5691C154.341 13.9608 154.229 14.3824 154.204 14.8337Z" fill="white"/>
<path d="M151.92 10.4998L148.112 20.9998H145.925L142.11 10.4998H144.304L146.964 18.5798H147.073L149.725 10.4998H151.92Z" fill="white"/>
<path fill-rule="evenodd" clip-rule="evenodd" d="M134.643 20.5486C135.39 20.9906 136.281 21.2117 137.315 21.2117C138.081 21.2117 138.762 21.0955 139.359 20.863C139.961 20.6261 140.46 20.2957 140.856 19.8718C141.257 19.4434 141.535 18.9444 141.69 18.3748L139.756 18.0261C139.633 18.3542 139.455 18.63 139.223 18.8533C138.99 19.0766 138.715 19.2452 138.396 19.3591C138.076 19.4685 137.723 19.5232 137.336 19.5232C136.739 19.5232 136.217 19.3956 135.771 19.1404C135.324 18.8806 134.975 18.5046 134.725 18.0125C134.495 17.5542 134.373 17.005 134.357 16.365H141.82V15.6404C141.82 14.6879 141.693 13.879 141.438 13.2136C141.182 12.5437 140.834 11.9991 140.392 11.5798C139.95 11.1606 139.451 10.8529 138.895 10.657C138.339 10.461 137.764 10.363 137.172 10.363C136.197 10.363 135.344 10.5932 134.615 11.0535C133.891 11.5138 133.326 12.1541 132.92 12.9744C132.519 13.7947 132.318 14.7426 132.318 15.8181C132.318 16.9073 132.519 17.8575 132.92 18.6687C133.326 19.4753 133.9 20.102 134.643 20.5486ZM134.361 14.8337H139.817C139.817 14.296 139.708 13.8197 139.489 13.405C139.271 12.9858 138.963 12.6554 138.566 12.4138C138.174 12.1723 137.714 12.0515 137.186 12.0515C136.611 12.0515 136.11 12.1928 135.682 12.4753C135.258 12.7533 134.93 13.1179 134.697 13.5691C134.497 13.9608 134.385 14.3824 134.361 14.8337Z" fill="white"/>
<path fill-rule="evenodd" clip-rule="evenodd" d="M124.444 20.9998H119.912V6.99976H124.588C125.959 6.99976 127.137 7.28003 128.122 7.84058C129.106 8.39657 129.86 9.19637 130.385 10.24C130.913 11.2791 131.177 12.5255 131.177 13.9792C131.177 15.4376 130.911 16.6908 130.378 17.739C129.849 18.7872 129.083 19.5938 128.081 20.1589C127.078 20.7195 125.866 20.9998 124.444 20.9998ZM122.024 19.1541H124.328C125.394 19.1541 126.281 18.9535 126.987 18.5525C127.693 18.1469 128.222 17.5613 128.573 16.7957C128.924 16.0255 129.099 15.0867 129.099 13.9792C129.099 12.8809 128.924 11.949 128.573 11.1833C128.227 10.4177 127.709 9.83667 127.021 9.44019C126.333 9.0437 125.479 8.84546 124.458 8.84546H122.024V19.1541Z" fill="white"/>
<path d="M108.965 10.4998V20.9998H111.009V14.5876C111.009 14.1319 111.119 13.7263 111.337 13.3709C111.556 13.0108 111.852 12.7306 112.226 12.53C112.604 12.325 113.035 12.2224 113.518 12.2224C113.728 12.2224 113.937 12.2384 114.147 12.2703C114.357 12.2976 114.502 12.3227 114.584 12.3455V10.3904C114.484 10.3767 114.345 10.3653 114.167 10.3562C113.994 10.3471 113.844 10.3425 113.716 10.3425C113.101 10.3425 112.55 10.5066 112.062 10.8347C111.579 11.1583 111.242 11.6026 111.05 12.1677H110.941V10.4998H108.965Z" fill="white"/>
<path fill-rule="evenodd" clip-rule="evenodd" d="M102.639 21.2117C101.655 21.2117 100.796 20.9861 100.062 20.5349C99.3283 20.0837 98.7586 19.4526 98.353 18.6414C97.9474 17.8302 97.7446 16.8822 97.7446 15.7976C97.7446 14.7084 97.9474 13.7559 98.353 12.9402C98.7586 12.1244 99.3283 11.491 100.062 11.0398C100.796 10.5886 101.655 10.363 102.639 10.363C103.624 10.363 104.483 10.5886 105.216 11.0398C105.95 11.491 106.52 12.1244 106.925 12.9402C107.331 13.7559 107.534 14.7084 107.534 15.7976C107.534 16.8822 107.331 17.8302 106.925 18.6414C106.52 19.4526 105.95 20.0837 105.216 20.5349C104.483 20.9861 103.624 21.2117 102.639 21.2117ZM102.646 19.4958C103.284 19.4958 103.813 19.3272 104.232 18.99C104.651 18.6528 104.961 18.2039 105.162 17.6433C105.367 17.0828 105.469 16.4653 105.469 15.7908C105.469 15.1208 105.367 14.5056 105.162 13.9451C104.961 13.38 104.651 12.9265 104.232 12.5847C103.813 12.2429 103.284 12.072 102.646 12.072C102.003 12.072 101.47 12.2429 101.046 12.5847C100.627 12.9265 100.315 13.38 100.11 13.9451C99.9093 14.5056 99.8091 15.1208 99.8091 15.7908C99.8091 16.4653 99.9093 17.0828 100.11 17.6433C100.315 18.2039 100.627 18.6528 101.046 18.99C101.47 19.3272 102.003 19.4958 102.646 19.4958Z" fill="white"/>
<path d="M97.3711 12.1404V10.4998H95.1084V9.5564C95.1084 9.09155 95.2132 8.73608 95.4229 8.48999C95.637 8.2439 95.9925 8.12085 96.4893 8.12085C96.7035 8.12085 96.8857 8.14136 97.0361 8.18237C97.1865 8.21883 97.3096 8.25073 97.4053 8.27808L97.8838 6.62378C97.7425 6.56909 97.526 6.50985 97.2344 6.44605C96.9427 6.37769 96.5918 6.34351 96.1816 6.34351C95.6256 6.34351 95.1107 6.45288 94.6367 6.67163C94.1628 6.88582 93.7822 7.21167 93.4951 7.64917C93.208 8.08211 93.0645 8.62671 93.0645 9.28296V10.4998H91.4375V12.1404H93.0645V20.9998H95.1084V12.1404H97.3711Z" fill="white"/>
</svg>
