<svg width="196" height="41" viewBox="0 0 196 41" fill="none" xmlns="http://www.w3.org/2000/svg">
<g clip-path="url(#clip0_13250_6257)">
<path d="M138.46 9.16016C136.846 9.16016 135.268 9.63873 133.926 10.5354C132.584 11.432 131.539 12.7064 130.921 14.1975C130.303 15.6885 130.142 17.3292 130.457 18.9121C130.771 20.495 131.549 21.949 132.69 23.0901C133.831 24.2313 135.285 25.0085 136.868 25.3234C138.451 25.6382 140.091 25.4766 141.583 24.859C143.074 24.2414 144.348 23.1955 145.245 21.8536C146.141 20.5117 146.62 18.9341 146.62 17.3202C146.62 15.156 145.76 13.0805 144.23 11.5502C142.7 10.0199 140.624 9.16016 138.46 9.16016ZM138.46 21.4002C137.65 21.4002 136.859 21.16 136.186 20.7102C135.514 20.2603 134.989 19.6209 134.68 18.873C134.371 18.1251 134.291 17.3022 134.449 16.5086C134.608 15.7149 134.998 14.9861 135.571 14.4146C136.144 13.843 136.874 13.4542 137.668 13.2975C138.462 13.1408 139.285 13.2233 140.032 13.5344C140.779 13.8455 141.417 14.3712 141.865 15.0452C142.314 15.7191 142.552 16.5108 142.55 17.3202C142.547 18.4032 142.115 19.4409 141.348 20.2058C140.582 20.9706 139.543 21.4002 138.46 21.4002Z" fill="white"/>
<path d="M152.8 20.06C152.8 19.9174 152.842 19.7778 152.921 19.6591C153 19.5404 153.113 19.4478 153.244 19.3932C153.376 19.3385 153.521 19.3243 153.661 19.3522C153.801 19.3801 153.929 19.449 154.03 19.55C156.08 21.63 159.45 25.2 159.47 25.22C159.547 25.3092 159.648 25.3751 159.76 25.41C159.879 25.4281 160.001 25.4281 160.12 25.41H163.8C163.933 25.4087 164.063 25.3702 164.175 25.2988C164.286 25.2275 164.376 25.1262 164.433 25.0064C164.491 24.8866 164.513 24.7532 164.499 24.6213C164.484 24.4894 164.432 24.3642 164.35 24.26L158.25 18.02L157.93 17.69C157.23 16.86 157.31 16.54 158.11 15.69L162.94 10.28C163.022 10.1754 163.072 10.0498 163.085 9.91785C163.098 9.78587 163.073 9.65294 163.013 9.53455C162.953 9.41615 162.861 9.31715 162.747 9.24908C162.633 9.18101 162.503 9.14666 162.37 9.15003H159C158.894 9.13285 158.786 9.13285 158.68 9.15003C158.552 9.1799 158.436 9.24996 158.35 9.35003C158.35 9.35003 155.66 12.25 154 14.02C153.899 14.1266 153.769 14.2003 153.625 14.2314C153.482 14.2626 153.332 14.2498 153.196 14.1948C153.06 14.1397 152.944 14.0449 152.863 13.9228C152.781 13.8006 152.739 13.6568 152.74 13.51V4.32003C152.74 4.2303 152.722 4.14148 152.686 4.05917C152.651 3.97687 152.598 3.90285 152.532 3.84179C152.467 3.78073 152.389 3.73395 152.304 3.70439C152.22 3.67483 152.13 3.66313 152.04 3.67003H149.32C149.235 3.66037 149.149 3.66818 149.067 3.69299C148.985 3.71779 148.909 3.75907 148.843 3.8143C148.778 3.86953 148.724 3.93754 148.686 4.01418C148.647 4.09082 148.625 4.17448 148.62 4.26003V24.79C148.62 25.26 149.01 25.39 149.33 25.39H152.06C152.234 25.401 152.404 25.3432 152.536 25.2289C152.667 25.1147 152.747 24.9534 152.76 24.78V20.06H152.8Z" fill="white"/>
<path d="M175.06 24.7002L174.77 21.9702C174.759 21.8812 174.73 21.7954 174.685 21.7179C174.64 21.6405 174.58 21.573 174.508 21.5197C174.436 21.4663 174.353 21.4282 174.266 21.4077C174.179 21.3872 174.088 21.3846 174 21.4002C173.792 21.4367 173.581 21.4534 173.37 21.4502C172.327 21.4468 171.326 21.0453 170.569 20.3279C169.813 19.6104 169.359 18.6312 169.3 17.5902V14.0202C169.296 13.9179 169.313 13.8159 169.349 13.7202C169.385 13.6245 169.441 13.5371 169.512 13.4633C169.583 13.3895 169.668 13.3309 169.762 13.2908C169.856 13.2507 169.958 13.2301 170.06 13.2302H173.71C173.889 13.2224 174.057 13.1446 174.179 13.0136C174.3 12.8826 174.365 12.7089 174.36 12.5302V9.95022C174.371 9.85929 174.364 9.76706 174.338 9.67907C174.313 9.59107 174.27 9.50913 174.212 9.43815C174.154 9.36717 174.082 9.30862 174.001 9.26602C173.92 9.22341 173.831 9.19763 173.74 9.19022H170.06C169.86 9.19564 169.666 9.12204 169.52 8.98539C169.374 8.84874 169.288 8.66005 169.28 8.46022V4.32022C169.28 4.23139 169.262 4.14347 169.227 4.06188C169.192 3.98029 169.14 3.90677 169.076 3.84586C169.011 3.78495 168.935 3.73794 168.851 3.70773C168.768 3.67752 168.679 3.66476 168.59 3.67022H165.88C165.793 3.66468 165.706 3.67721 165.624 3.70701C165.542 3.73682 165.468 3.78325 165.405 3.84339C165.342 3.90352 165.292 3.97605 165.259 4.0564C165.225 4.13675 165.208 4.22318 165.21 4.31022V17.5902C165.273 19.7116 166.16 21.7249 167.684 23.2021C169.208 24.6793 171.248 25.5037 173.37 25.5002C173.735 25.4988 174.099 25.4721 174.46 25.4202C174.547 25.4127 174.631 25.3881 174.709 25.3477C174.786 25.3074 174.854 25.2521 174.91 25.1852C174.966 25.1183 175.008 25.041 175.034 24.9577C175.059 24.8745 175.068 24.787 175.06 24.7002Z" fill="white"/>
<path d="M194.72 21.27C192.42 21.27 192.06 20.45 192.06 17.35V9.87004C192.06 9.77727 192.042 9.68542 192.006 9.59983C191.97 9.51425 191.918 9.43663 191.852 9.3715C191.786 9.30637 191.707 9.25501 191.621 9.22043C191.535 9.18585 191.443 9.16872 191.35 9.17004H188.62C188.434 9.17255 188.257 9.2468 188.125 9.37726C187.992 9.50772 187.915 9.68429 187.91 9.87004V10.21C186.823 9.59062 185.608 9.22954 184.359 9.15473C183.11 9.07992 181.86 9.29339 180.707 9.77862C179.553 10.2638 178.527 11.0078 177.707 11.9531C176.887 12.8983 176.295 14.0195 175.978 15.2298C175.66 16.4402 175.626 17.7074 175.876 18.9334C176.127 20.1594 176.656 21.3114 177.422 22.3003C178.189 23.2891 179.173 24.0884 180.298 24.6363C181.423 25.1842 182.659 25.4661 183.91 25.46C185.862 25.4465 187.745 24.7374 189.22 23.46C189.641 24.1075 190.225 24.633 190.913 24.9839C191.601 25.3349 192.369 25.4991 193.14 25.46C193.47 25.46 195.22 25.52 195.22 24.7V21.79C195.222 21.7231 195.21 21.6565 195.185 21.5941C195.161 21.5317 195.124 21.4748 195.078 21.4265C195.032 21.3782 194.976 21.3395 194.915 21.3127C194.853 21.2858 194.787 21.2713 194.72 21.27ZM183.9 21.4C183.091 21.3981 182.301 21.1563 181.63 20.7052C180.958 20.2541 180.436 19.6141 180.128 18.866C179.82 18.1179 179.741 17.2953 179.901 16.5023C180.061 15.7093 180.452 14.9815 181.025 14.4109C181.599 13.8403 182.328 13.4526 183.122 13.2967C183.916 13.1408 184.738 13.2238 185.485 13.5352C186.231 13.8466 186.869 14.3724 187.317 15.0461C187.764 15.7198 188.002 16.5111 188 17.32C187.999 17.8571 187.892 18.3887 187.685 18.8845C187.478 19.3802 187.176 19.8303 186.795 20.2092C186.415 20.588 185.963 20.8882 185.466 21.0925C184.969 21.2969 184.437 21.4014 183.9 21.4Z" fill="white"/>
<path d="M114.12 0.5L114.09 32.62" stroke="white" stroke-width="3" stroke-miterlimit="10"/>
<path d="M79.9772 33.2002H78.6592V38.4502H79.9772V33.2002Z" fill="white"/>
<path d="M90.6585 34.7046C90.3176 34.5189 89.9353 34.4227 89.547 34.4249C88.6889 34.4249 88.0943 35.0209 88.0943 35.8249C88.0943 36.6055 88.664 37.2264 89.547 37.2264C89.935 37.2278 90.317 37.1322 90.6585 36.9481V38.3569C90.2675 38.4774 89.861 38.5401 89.4518 38.5429C87.9625 38.5429 86.6562 37.5178 86.6562 35.8249C86.6562 34.258 87.8395 33.1084 89.4518 33.1084C89.8612 33.1094 90.2681 33.1727 90.6585 33.2958V34.7046Z" fill="white"/>
<path d="M76.8328 34.7046C76.4915 34.5188 76.1085 34.4226 75.7199 34.4249C74.8617 34.4249 74.2686 35.0209 74.2686 35.8249C74.2686 36.6055 74.8368 37.2264 75.7199 37.2264C76.1083 37.2273 76.4906 37.1316 76.8328 36.9481V38.3569C76.4413 38.4774 76.0343 38.5401 75.6247 38.5429C74.1354 38.5429 72.8291 37.5178 72.8291 35.8249C72.8291 34.258 74.0124 33.1084 75.6247 33.1084C76.0346 33.1094 76.442 33.1725 76.8328 33.2958V34.7046Z" fill="white"/>
<path d="M94.8259 34.444C94.6446 34.4423 94.4649 34.4771 94.2974 34.546C94.1297 34.615 93.9775 34.7169 93.85 34.8457C93.7224 34.9744 93.6218 35.1273 93.5543 35.2955C93.4867 35.4636 93.4536 35.6438 93.4566 35.8249C93.4531 36.0064 93.4861 36.1866 93.5534 36.355C93.6208 36.5234 93.7213 36.6768 93.849 36.8056C93.9767 36.9345 94.129 37.0366 94.2968 37.1056C94.4646 37.1745 94.6444 37.2091 94.8259 37.2073C95.0073 37.209 95.1873 37.1742 95.355 37.1051C95.5228 37.036 95.6751 36.9341 95.8028 36.8052C95.9306 36.6765 96.0313 36.5233 96.0989 36.3549C96.1666 36.1865 96.1998 36.0064 96.1966 35.8249C96.1995 35.6436 96.1661 35.4636 96.0985 35.2954C96.0308 35.1271 95.9301 34.9742 95.8024 34.8455C95.6745 34.7168 95.5224 34.615 95.3547 34.546C95.187 34.4771 95.0072 34.4423 94.8259 34.444ZM97.5995 35.8249C97.5995 37.3274 96.4412 38.5429 94.8259 38.5429C93.2106 38.5429 92.0537 37.3274 92.0537 35.8249C92.0537 34.3224 93.2121 33.1084 94.8259 33.1084C96.4397 33.1084 97.5995 34.3253 97.5995 35.8249Z" fill="white"/>
<path d="M85.001 34.3942C84.6632 34.3013 84.3158 34.2479 83.9657 34.2345C83.4356 34.2345 83.1471 34.4117 83.1471 34.6636C83.1471 34.9843 83.5366 35.1029 83.7533 35.1645L84.1194 35.2801C84.9791 35.554 85.3701 36.1427 85.3701 36.7827C85.3701 38.1006 84.2117 38.54 83.1969 38.54C82.7171 38.5343 82.2387 38.4852 81.7676 38.3935V37.1854C82.1745 37.3033 82.5948 37.3687 83.0182 37.3801C83.6772 37.3801 83.9803 37.1883 83.9803 36.8896C83.9803 36.6245 83.7182 36.4707 83.3946 36.3668L83.1119 36.276C82.3797 36.0431 81.7588 35.6096 81.7588 34.7398C81.7588 33.7586 82.491 33.0996 83.7153 33.0996C84.1503 33.1056 84.5832 33.1617 85.0054 33.2666L85.001 34.3942Z" fill="white"/>
<path d="M63.5755 38.4326H63V33.1943H63.6985V35.1728C63.8382 34.9681 64.028 34.8026 64.2496 34.6919C64.4713 34.5812 64.7176 34.5289 64.9653 34.5401C65.2078 34.5286 65.4494 34.5759 65.6697 34.6779C65.8899 34.7799 66.0823 34.9336 66.2305 35.1259C66.4971 35.4755 66.6303 35.9387 66.6303 36.5157C66.6303 37.1991 66.4487 37.7228 66.0855 38.087C65.9318 38.2392 65.7486 38.3584 65.5471 38.4371C65.3456 38.5159 65.1302 38.5528 64.914 38.5454C64.6737 38.5577 64.4344 38.508 64.219 38.401C64.0036 38.2941 63.8192 38.1334 63.6839 37.9347L63.5755 38.4326ZM65.9025 36.4966C65.9025 36.0211 65.7839 35.6648 65.5466 35.4276C65.45 35.3298 65.3342 35.2532 65.2063 35.2028C65.0785 35.1523 64.9414 35.1291 64.8042 35.1347C64.6431 35.1281 64.4829 35.1595 64.3363 35.2264C64.1898 35.2933 64.0611 35.3939 63.9607 35.5199C63.7529 35.8012 63.6493 36.1459 63.6678 36.4952C63.6678 36.9799 63.7864 37.3519 64.0251 37.6081C64.1229 37.7187 64.244 37.806 64.3798 37.864C64.5155 37.922 64.6624 37.9492 64.81 37.9435C64.9711 37.9526 65.1318 37.9205 65.277 37.8503C65.4223 37.7801 65.5474 37.674 65.6404 37.5422C65.817 37.2962 65.9054 36.9477 65.9054 36.4966H65.9025Z" fill="white"/>
<path d="M70.3725 34.6494L69.0545 38.4833C68.8788 38.9929 68.7114 39.34 68.5522 39.5245C68.4625 39.6304 68.3501 39.7147 68.2233 39.7713C68.0967 39.8278 67.9587 39.855 67.82 39.8511C67.6677 39.8473 67.5163 39.8256 67.369 39.7866V39.2155C67.488 39.2471 67.6105 39.2643 67.7336 39.2668C67.8 39.27 67.8661 39.2575 67.9268 39.2303C67.9873 39.2031 68.0406 39.1619 68.0822 39.1101C68.2157 38.8982 68.321 38.6697 68.3955 38.4306H68.17L66.7803 34.6465H67.5286L68.5991 37.8682L69.6681 34.6465L70.3725 34.6494Z" fill="white"/>
<path d="M23.7425 8.43652H27.477L22.0473 24.8487H17.7632L13.7051 12.4638L9.64699 24.8487H5.42964L0 8.43652H3.82181L7.67444 20.9088L11.7171 8.43652H15.7752L19.8847 20.9756L23.7425 8.43652Z" fill="white"/>
<path d="M43.4935 17.9599H31.3809C31.4926 18.8062 31.8101 19.6122 32.3055 20.3074C32.7443 20.9157 33.3387 21.3948 34.0263 21.6944C34.7266 21.9969 35.4826 22.1491 36.2454 22.1413C37.091 22.1381 37.9293 21.985 38.7214 21.6893C39.5426 21.389 40.3095 20.957 40.9919 20.4102L42.7744 22.9786C41.8654 23.7712 40.807 24.3737 39.6614 24.7508C38.4849 25.1201 37.2576 25.3021 36.0246 25.2902C34.5058 25.3201 33.0058 24.9517 31.6737 24.2217C30.4136 23.5156 29.3817 22.4641 28.6994 21.191C27.9655 19.7955 27.5979 18.2366 27.631 16.6603C27.5995 15.0988 27.9523 13.5535 28.6583 12.1604C29.3144 10.8933 30.3151 9.83735 31.5452 9.11427C32.8358 8.3715 34.3046 7.99498 35.7934 8.02526C37.1983 7.98638 38.5846 8.35335 39.7863 9.0822C40.988 9.81105 41.9541 10.8709 42.5689 12.1347C43.2476 13.5324 43.5856 15.0709 43.5552 16.6243C43.5603 16.9685 43.5398 17.4154 43.4935 17.9599ZM39.8977 15.2374C39.7873 14.1126 39.3047 13.0568 38.5262 12.2375C38.153 11.8877 37.7133 11.6166 37.2333 11.4401C36.7532 11.2636 36.2426 11.1854 35.7318 11.2101C35.194 11.1855 34.6568 11.2692 34.1521 11.4563C33.6473 11.6434 33.1853 11.93 32.7935 12.2991C32.0177 13.1065 31.5224 14.1421 31.3809 15.2528L39.8977 15.2374Z" fill="white"/>
<path d="M58.817 9.12464C60.0666 9.86376 61.0913 10.9293 61.781 12.2067C62.5185 13.5683 62.8935 15.0967 62.87 16.645C62.8936 18.1917 62.5185 19.7184 61.781 21.0781C61.0911 22.3614 60.0627 23.4312 58.8074 24.1711C57.5522 24.911 56.1183 25.2927 54.6613 25.2749C53.6389 25.2963 52.6251 25.0837 51.6974 24.6533C50.8472 24.2433 50.1034 23.642 49.5245 22.8965V24.8485H45.9287V1.4502H49.5245V10.3883C50.1059 9.64783 50.8492 9.05038 51.6974 8.64177C52.6238 8.20716 53.6383 7.99268 54.6613 8.01508C56.1221 7.99721 57.5596 8.38103 58.817 9.12464ZM56.8548 21.2014C57.6006 20.7428 58.2009 20.0819 58.5859 19.2956C58.981 18.4669 59.1861 17.5605 59.1861 16.6424C59.1861 15.7244 58.981 14.8179 58.5859 13.9892C58.1993 13.204 57.5994 12.5435 56.8548 12.0835C56.0633 11.6307 55.1673 11.3925 54.2555 11.3925C53.3437 11.3925 52.4477 11.6307 51.6563 12.0835C50.9098 12.5368 50.3048 13.1898 49.9098 13.9687C49.4825 14.8007 49.2672 15.7252 49.2831 16.6604C49.2668 17.5939 49.4821 18.517 49.9098 19.347C50.3048 20.1259 50.9098 20.7789 51.6563 21.2322C52.4477 21.6849 53.3437 21.9231 54.2555 21.9231C55.1673 21.9231 56.0633 21.6849 56.8548 21.2322V21.2014Z" fill="white"/>
<path d="M80.6125 17.9604H68.505C68.6168 18.8067 68.9342 19.6127 69.4296 20.3079C69.8685 20.9162 70.4628 21.3953 71.1505 21.6949C71.8508 21.9974 72.6068 22.1496 73.3696 22.1418C74.2151 22.1378 75.0532 21.9848 75.8455 21.6898C76.6668 21.3895 77.4336 20.9575 78.116 20.4107L79.8934 22.9791C78.987 23.7727 77.9301 24.3754 76.7856 24.7513C75.6072 25.1203 74.3783 25.3023 73.1436 25.2907C71.625 25.319 70.1254 24.9507 68.7927 24.2222C67.5352 23.5144 66.5054 22.4632 65.8236 21.1915C65.0881 19.7964 64.7187 18.2375 64.75 16.6608C64.7187 15.0993 65.0715 13.5541 65.7773 12.1609C66.4334 10.8938 67.4341 9.83785 68.6642 9.11477C69.9623 8.36116 71.4426 7.97909 72.9432 8.01035C74.3478 7.97339 75.7333 8.34115 76.9346 9.06978C78.136 9.79842 79.1024 10.8572 79.7187 12.1198C80.3974 13.5175 80.7354 15.056 80.705 16.6094C80.6844 16.969 80.6485 17.4159 80.6125 17.9604ZM77.0167 15.2379C76.8982 14.1203 76.4143 13.0731 75.6401 12.2585C75.2694 11.9068 74.8321 11.6329 74.354 11.453C73.8758 11.273 73.3664 11.1906 72.8559 11.2106C72.3181 11.1854 71.7807 11.2688 71.2759 11.4559C70.771 11.6431 70.3091 11.93 69.9176 12.2996C69.14 13.1057 68.6444 14.142 68.505 15.2533L77.0167 15.2379Z" fill="white"/>
<path d="M97.6926 24.8487H93.2904L89.1295 19.1417L85.02 24.8487H80.8232L86.9875 16.4705L80.9208 8.43652H85.3283L89.335 13.9175L93.3417 8.43652H97.6002L91.5079 16.4397L97.6926 24.8487Z" fill="white"/>
</g>
<defs>
<clipPath id="clip0_13250_6257">
<rect width="195.19" height="39.8" fill="white" transform="translate(0 0.5)"/>
</clipPath>
</defs>
</svg>
