<svg width="286" height="28" viewBox="0 0 286 28" fill="none" xmlns="http://www.w3.org/2000/svg">
<path fill-rule="evenodd" clip-rule="evenodd" d="M52.6993 10.2062C52.112 9.11709 51.2395 8.20812 50.1753 7.57656C49.1023 6.94024 47.8751 6.61116 46.6276 6.62534C45.7565 6.60816 44.893 6.7911 44.1036 7.16011C43.3786 7.51073 42.7434 8.02285 42.2469 8.65713V1.03003H39.1929V20.993H42.2469V19.3272C42.7438 19.9615 43.3788 20.474 44.1036 20.8258C44.8935 21.1935 45.7567 21.3758 46.6276 21.359C47.87 21.372 49.0922 21.0455 50.1624 20.4144C51.2324 19.7832 52.1098 18.8716 52.6993 17.7781C53.309 16.6092 53.6273 15.3104 53.6273 13.9922C53.6273 12.6739 53.309 11.3751 52.6993 10.2062ZM49.9782 16.2574C49.6491 16.9261 49.1378 17.4883 48.5032 17.879C47.8298 18.2693 47.0657 18.476 46.2872 18.4785C45.5089 18.481 44.7435 18.2792 44.0673 17.8932C43.431 17.5061 42.9148 16.9496 42.5766 16.2858C42.2261 15.5718 42.0438 14.7869 42.0438 13.9914C42.0438 13.1959 42.2261 12.411 42.5766 11.6969C42.9148 11.0332 43.431 10.4767 44.0673 10.0895C44.7435 9.70355 45.5089 9.50175 46.2872 9.50424C47.0657 9.50672 47.8298 9.71343 48.5032 10.1037C49.1378 10.4951 49.6491 11.0578 49.9782 11.7269C50.3157 12.4344 50.4908 13.2083 50.4908 13.9922C50.4908 14.776 50.3157 15.55 49.9782 16.2574Z" fill="white"/>
<path fill-rule="evenodd" clip-rule="evenodd" d="M37.1107 15.1168H26.7719C26.8675 15.8384 27.1383 16.5257 27.5606 17.1186C27.9368 17.6365 28.4437 18.0452 29.0292 18.3033C29.6271 18.5595 30.2718 18.6885 30.9222 18.6819C31.6431 18.6787 32.3577 18.5478 33.0329 18.2954C33.7334 18.04 34.3876 17.6725 34.97 17.207L36.4891 19.3839C35.7154 20.0605 34.8137 20.5749 33.8374 20.8967C32.8327 21.2123 31.7845 21.3677 30.7313 21.3573C29.434 21.3822 28.1528 21.0674 27.0148 20.4439C25.944 19.8399 25.0683 18.9423 24.4908 17.8569C23.8819 16.7421 23.5775 15.4538 23.5775 13.992C23.5513 12.66 23.8548 11.3421 24.4609 10.1556C25.0193 9.07315 25.8732 8.17116 26.9233 7.55435C28.0263 6.92185 29.2804 6.60072 30.5515 6.62522C31.7636 6.60317 32.9572 6.92533 33.9936 7.55435C34.9973 8.18361 35.8042 9.0822 36.3219 10.1477C36.9005 11.3396 37.1887 12.6516 37.1627 13.9763C37.1627 14.2697 37.1454 14.6499 37.1107 15.1168ZM34.0346 12.7932C33.8696 11.7015 33.4773 10.8539 32.8578 10.2503C32.2385 9.64661 31.4497 9.34479 30.4916 9.34479C29.4484 9.34479 28.6128 9.65398 27.9849 10.2723C27.3571 10.8907 26.9555 11.732 26.7798 12.7963L34.0346 12.7932Z" fill="white"/>
<path d="M23.4413 6.99133H20.2548L16.9532 17.6898L13.459 6.99133H9.99648L6.54653 17.6299L3.25907 6.99133H0L4.63305 20.9915H8.22182L11.6844 10.4223L15.1548 20.9915H18.8114L23.4413 6.99133Z" fill="white"/>
<path fill-rule="evenodd" clip-rule="evenodd" d="M68.7717 15.1168H58.4392C58.5348 15.8385 58.8055 16.5258 59.228 17.1186C59.6048 17.6363 60.1121 18.0451 60.6982 18.3033C61.296 18.5596 61.9407 18.6885 62.5911 18.6819C63.3125 18.6789 64.0276 18.548 64.7034 18.2954C65.4035 18.0403 66.0573 17.6728 66.6389 17.207L68.1596 19.3839C67.3848 20.0606 66.482 20.575 65.5047 20.8967C64.5005 21.2123 63.4529 21.3677 62.4003 21.3573C61.1045 21.3819 59.8249 21.067 58.6885 20.4439C57.6131 19.8417 56.7328 18.9439 56.1519 17.8569C55.543 16.7421 55.2385 15.4539 55.2385 13.9921C55.2128 12.6599 55.5168 11.342 56.1235 10.1556C56.6814 9.07285 57.5353 8.17079 58.5859 7.55437C59.6889 6.92172 60.9428 6.60058 62.2141 6.62524C63.4262 6.60274 64.6199 6.92496 65.6562 7.55437C66.6634 8.18225 67.4736 9.08099 67.994 10.1477C68.5726 11.3396 68.8607 12.6516 68.8348 13.9763C68.8316 14.2697 68.8107 14.6499 68.7717 15.1168ZM65.7035 12.7932C65.5363 11.7016 65.144 10.8539 64.5267 10.2503C63.9094 9.64663 63.1175 9.34481 62.151 9.34481C61.1088 9.34481 60.2733 9.65399 59.6444 10.2724C59.0155 10.8907 58.6138 11.7321 58.4392 12.7963L65.7035 12.7932Z" fill="white"/>
<path d="M83.3429 20.9915H79.587L76.0345 16.1249L72.5278 20.9915H68.9469L74.2235 13.8455L69.0352 6.99133H72.7912L76.2112 11.6685L79.6296 6.99133H83.2404L78.0663 13.8155L83.3429 20.9915Z" fill="white"/>
<path d="M276.739 24.835C276.99 24.8851 277.268 24.9102 277.573 24.9102C278.138 24.9102 278.635 24.8145 279.063 24.6231C279.492 24.4317 279.861 24.1491 280.171 23.7754C280.481 23.4017 280.736 22.9437 280.937 22.4014L285.277 10.5205L283.069 10.5L280.41 18.6485H280.301L277.642 10.5H275.454L279.296 21.1367L279.043 21.834C278.783 22.5131 278.462 22.9164 278.079 23.044C277.701 23.1761 277.231 23.1647 276.671 23.0098L276.179 24.6846C276.302 24.7393 276.489 24.7894 276.739 24.835Z" fill="white"/>
<path fill-rule="evenodd" clip-rule="evenodd" d="M269.653 25.1358C268.819 25.1358 268.101 25.0264 267.499 24.8076C266.902 24.5889 266.415 24.2995 266.036 23.9395C265.658 23.584 265.376 23.1966 265.189 22.7774L266.946 22.0528C267.069 22.2442 267.233 22.4515 267.438 22.6748C267.647 22.8981 267.93 23.0895 268.285 23.2491C268.645 23.4086 269.108 23.4883 269.673 23.4883C270.448 23.4883 271.088 23.3015 271.594 22.9278C272.1 22.5541 272.353 21.9616 272.353 21.1504V19.086H272.223C272.1 19.3093 271.922 19.5576 271.69 19.8311C271.462 20.1045 271.147 20.3415 270.746 20.542C270.345 20.7425 269.823 20.8428 269.181 20.8428C268.351 20.8428 267.604 20.6491 266.939 20.2617C266.278 19.8698 265.754 19.2933 265.366 18.5323C264.984 17.7666 264.792 16.8256 264.792 15.709C264.792 14.5925 264.981 13.6354 265.36 12.8379C265.742 12.0404 266.267 11.4297 266.932 11.0059C267.597 10.5775 268.351 10.3633 269.195 10.3633C269.846 10.3633 270.373 10.4727 270.774 10.6914C271.175 10.9056 271.487 11.1563 271.71 11.4434C271.938 11.7305 272.114 11.9834 272.237 12.2022H272.387V10.5H274.39V21.2325C274.39 22.1257 274.18 22.8594 273.761 23.4336C273.342 24.0124 272.774 24.4408 272.059 24.7188C271.348 24.9968 270.546 25.1358 269.653 25.1358ZM269.632 19.1475C270.22 19.1475 270.717 19.0108 271.122 18.7373C271.532 18.4593 271.842 18.0629 272.052 17.5479C272.266 17.0284 272.373 16.4063 272.373 15.6817C272.373 14.9753 272.268 14.3532 272.059 13.8155C271.849 13.2777 271.542 12.8584 271.136 12.5576C270.73 12.2523 270.229 12.0996 269.632 12.0996C269.017 12.0996 268.504 12.2591 268.094 12.5782C267.684 12.8926 267.374 13.321 267.164 13.8633C266.959 14.4056 266.857 15.0117 266.857 15.6817C266.857 16.3698 266.962 16.9737 267.171 17.4932C267.381 18.0127 267.691 18.4183 268.101 18.71C268.516 19.0017 269.026 19.1475 269.632 19.1475Z" fill="white"/>
<path fill-rule="evenodd" clip-rule="evenodd" d="M256.347 20.5352C257.081 20.9864 257.94 21.2119 258.924 21.2119C259.909 21.2119 260.768 20.9864 261.501 20.5352C262.235 20.084 262.805 19.4528 263.21 18.6416C263.616 17.8304 263.819 16.8825 263.819 15.7979C263.819 14.7087 263.616 13.7562 263.21 12.9405C262.805 12.1247 262.235 11.4912 261.501 11.0401C260.768 10.5889 259.909 10.3633 258.924 10.3633C257.94 10.3633 257.081 10.5889 256.347 11.0401C255.613 11.4912 255.044 12.1247 254.638 12.9405C254.233 13.7562 254.03 14.7087 254.03 15.7979C254.03 16.8825 254.233 17.8304 254.638 18.6416C255.044 19.4528 255.613 20.084 256.347 20.5352ZM260.517 18.9903C260.098 19.3275 259.569 19.4961 258.931 19.4961C258.289 19.4961 257.755 19.3275 257.332 18.9903C256.912 18.653 256.6 18.2041 256.395 17.6436C256.194 17.083 256.094 16.4655 256.094 15.791C256.094 15.1211 256.194 14.5059 256.395 13.9453C256.6 13.3802 256.912 12.9268 257.332 12.585C257.755 12.2432 258.289 12.0723 258.931 12.0723C259.569 12.0723 260.098 12.2432 260.517 12.585C260.936 12.9268 261.246 13.3802 261.447 13.9453C261.652 14.5059 261.754 15.1211 261.754 15.791C261.754 16.4655 261.652 17.083 261.447 17.6436C261.246 18.2041 260.936 18.653 260.517 18.9903Z" fill="white"/>
<path d="M252.602 7.00003V21H250.558V7.00003H252.602Z" fill="white"/>
<path fill-rule="evenodd" clip-rule="evenodd" d="M241.655 20.5352C242.388 20.9864 243.247 21.2119 244.232 21.2119C245.216 21.2119 246.075 20.9864 246.809 20.5352C247.543 20.084 248.112 19.4528 248.518 18.6416C248.923 17.8304 249.126 16.8825 249.126 15.7979C249.126 14.7087 248.923 13.7562 248.518 12.9405C248.112 12.1247 247.543 11.4912 246.809 11.0401C246.075 10.5889 245.216 10.3633 244.232 10.3633C243.247 10.3633 242.388 10.5889 241.655 11.0401C240.921 11.4912 240.351 12.1247 239.946 12.9405C239.54 13.7562 239.337 14.7087 239.337 15.7979C239.337 16.8825 239.54 17.8304 239.946 18.6416C240.351 19.4528 240.921 20.084 241.655 20.5352ZM245.824 18.9903C245.405 19.3275 244.877 19.4961 244.239 19.4961C243.596 19.4961 243.063 19.3275 242.639 18.9903C242.22 18.653 241.907 18.2041 241.702 17.6436C241.502 17.083 241.402 16.4655 241.402 15.791C241.402 15.1211 241.502 14.5059 241.702 13.9453C241.907 13.3802 242.22 12.9268 242.639 12.585C243.063 12.2432 243.596 12.0723 244.239 12.0723C244.877 12.0723 245.405 12.2432 245.824 12.585C246.244 12.9268 246.554 13.3802 246.754 13.9453C246.959 14.5059 247.062 15.1211 247.062 15.791C247.062 16.4655 246.959 17.083 246.754 17.6436C246.554 18.2041 246.244 18.653 245.824 18.9903Z" fill="white"/>
<path fill-rule="evenodd" clip-rule="evenodd" d="M232.54 21.2051C231.692 21.2051 230.935 20.9886 230.27 20.5557C229.609 20.1182 229.09 19.4961 228.711 18.6895C228.338 17.8783 228.151 16.9053 228.151 15.7705C228.151 14.6358 228.34 13.6651 228.718 12.8584C229.101 12.0518 229.625 11.4343 230.291 11.0059C230.956 10.5775 231.71 10.3633 232.553 10.3633C233.205 10.3633 233.729 10.4727 234.125 10.6914C234.527 10.9056 234.836 11.1563 235.055 11.4434C235.278 11.7305 235.452 11.9834 235.575 12.2022H235.698V7.00003H237.742V21H235.746V19.3662H235.575C235.452 19.5895 235.274 19.8448 235.042 20.1319C234.814 20.419 234.499 20.6696 234.098 20.8838C233.697 21.098 233.178 21.2051 232.54 21.2051ZM232.991 19.4619C233.579 19.4619 234.075 19.307 234.481 18.9971C234.891 18.6826 235.201 18.2474 235.411 17.6914C235.625 17.1354 235.732 16.4883 235.732 15.75C235.732 15.0209 235.627 14.3828 235.417 13.836C235.208 13.2891 234.9 12.863 234.495 12.5576C234.089 12.2523 233.588 12.0996 232.991 12.0996C232.375 12.0996 231.863 12.2591 231.453 12.5782C231.042 12.8972 230.733 13.3324 230.523 13.8838C230.318 14.4353 230.215 15.0573 230.215 15.75C230.215 16.4519 230.32 17.083 230.53 17.6436C230.739 18.2041 231.049 18.6485 231.459 18.9766C231.874 19.3002 232.385 19.4619 232.991 19.4619Z" fill="white"/>
<path fill-rule="evenodd" clip-rule="evenodd" d="M219.706 20.5352C220.439 20.9864 221.298 21.2119 222.283 21.2119C223.267 21.2119 224.126 20.9864 224.86 20.5352C225.594 20.084 226.163 19.4528 226.569 18.6416C226.974 17.8304 227.177 16.8825 227.177 15.7979C227.177 14.7087 226.974 13.7562 226.569 12.9405C226.163 12.1247 225.594 11.4912 224.86 11.0401C224.126 10.5889 223.267 10.3633 222.283 10.3633C221.298 10.3633 220.439 10.5889 219.706 11.0401C218.972 11.4912 218.402 12.1247 217.997 12.9405C217.591 13.7562 217.388 14.7087 217.388 15.7979C217.388 16.8825 217.591 17.8304 217.997 18.6416C218.402 19.4528 218.972 20.084 219.706 20.5352ZM223.875 18.9903C223.456 19.3275 222.928 19.4961 222.29 19.4961C221.647 19.4961 221.114 19.3275 220.69 18.9903C220.271 18.653 219.958 18.2041 219.753 17.6436C219.553 17.083 219.453 16.4655 219.453 15.791C219.453 15.1211 219.553 14.5059 219.753 13.9453C219.958 13.3802 220.271 12.9268 220.69 12.585C221.114 12.2432 221.647 12.0723 222.29 12.0723C222.928 12.0723 223.456 12.2432 223.875 12.585C224.295 12.9268 224.605 13.3802 224.805 13.9453C225.01 14.5059 225.113 15.1211 225.113 15.791C225.113 16.4655 225.01 17.083 224.805 17.6436C224.605 18.2041 224.295 18.653 223.875 18.9903Z" fill="white"/>
<path d="M209.174 14.7657V21H207.13V7.00003H209.146V12.209H209.276C209.522 11.6439 209.898 11.195 210.404 10.8623C210.91 10.5297 211.571 10.3633 212.387 10.3633C213.107 10.3633 213.736 10.5114 214.273 10.8076C214.816 11.1039 215.235 11.5459 215.531 12.1338C215.832 12.7172 215.982 13.4463 215.982 14.3213V21H213.938V14.5674C213.938 13.7972 213.74 13.2002 213.344 12.7764C212.947 12.348 212.396 12.1338 211.689 12.1338C211.206 12.1338 210.773 12.2364 210.391 12.4414C210.012 12.6465 209.714 12.9473 209.495 13.3438C209.281 13.7357 209.174 14.2097 209.174 14.7657Z" fill="white"/>
<path d="M205.493 12.1407V10.5H203.34V7.98441H201.296V10.5H199.758V12.1407H201.296V18.3409C201.296 18.9743 201.439 19.5007 201.727 19.92C202.014 20.3392 202.39 20.6491 202.854 20.8496C203.319 21.0502 203.821 21.1459 204.358 21.1367C204.687 21.1322 204.96 21.1048 205.179 21.0547C205.397 21.0091 205.566 20.9636 205.685 20.918L205.315 19.2295C205.247 19.2432 205.151 19.2614 205.028 19.2842C204.905 19.307 204.762 19.3184 204.598 19.3184C204.374 19.3184 204.167 19.2842 203.976 19.2159C203.789 19.1429 203.636 19.0085 203.518 18.8125C203.399 18.612 203.34 18.3135 203.34 17.917V12.1407H205.493Z" fill="white"/>
<path fill-rule="evenodd" clip-rule="evenodd" d="M194.669 21.2119C193.635 21.2119 192.744 20.9909 191.996 20.5489C191.253 20.1022 190.679 19.4756 190.274 18.669C189.873 17.8578 189.672 16.9076 189.672 15.8184C189.672 14.7429 189.873 13.795 190.274 12.9746C190.679 12.1543 191.244 11.514 191.969 11.0537C192.698 10.5935 193.55 10.3633 194.526 10.3633C195.118 10.3633 195.692 10.4613 196.248 10.6573C196.804 10.8532 197.303 11.1608 197.745 11.5801C198.187 11.9994 198.536 12.544 198.791 13.2139C199.046 13.8793 199.174 14.6882 199.174 15.6407V16.3653H191.711C191.727 17.0053 191.849 17.5544 192.078 18.0127C192.329 18.5049 192.678 18.8809 193.124 19.1407C193.571 19.3959 194.093 19.5235 194.69 19.5235C195.077 19.5235 195.43 19.4688 195.749 19.3594C196.068 19.2455 196.344 19.0769 196.576 18.8535C196.809 18.6302 196.987 18.3545 197.11 18.0264L199.044 18.375C198.889 18.9447 198.611 19.4437 198.21 19.8721C197.814 20.2959 197.315 20.6263 196.713 20.8633C196.116 21.0957 195.435 21.2119 194.669 21.2119ZM192.051 13.5694C191.851 13.9611 191.739 14.3827 191.714 14.834H197.171C197.171 14.2963 197.062 13.82 196.843 13.4053C196.624 12.986 196.317 12.6556 195.92 12.4141C195.528 12.1726 195.068 12.0518 194.539 12.0518C193.965 12.0518 193.464 12.1931 193.035 12.4756C192.612 12.7536 192.283 13.1182 192.051 13.5694Z" fill="white"/>
<path d="M176.445 7.00003H173.882V21H175.892V10.8623H176.021L180.15 20.9795H181.818L185.947 10.8692H186.077V21H188.087V7.00003H185.523L181.066 17.8828H180.902L176.445 7.00003Z" fill="white"/>
<path d="M160.862 14.7657V21H158.818V10.5H160.78V12.209H160.91C161.152 11.653 161.53 11.2064 162.045 10.8692C162.564 10.5319 163.218 10.3633 164.007 10.3633C164.722 10.3633 165.349 10.5137 165.887 10.8145C166.424 11.1107 166.841 11.5528 167.138 12.1407C167.434 12.7285 167.582 13.4554 167.582 14.3213V21H165.538V14.5674C165.538 13.8063 165.34 13.2116 164.943 12.7832C164.547 12.3503 164.002 12.1338 163.31 12.1338C162.836 12.1338 162.414 12.2364 162.045 12.4414C161.68 12.6465 161.391 12.9473 161.177 13.3438C160.967 13.7357 160.862 14.2097 160.862 14.7657Z" fill="white"/>
<path fill-rule="evenodd" clip-rule="evenodd" d="M149.915 20.5352C150.649 20.9864 151.508 21.2119 152.492 21.2119C153.477 21.2119 154.336 20.9864 155.069 20.5352C155.803 20.084 156.373 19.4528 156.778 18.6416C157.184 17.8304 157.387 16.8825 157.387 15.7979C157.387 14.7087 157.184 13.7562 156.778 12.9405C156.373 12.1247 155.803 11.4912 155.069 11.0401C154.336 10.5889 153.477 10.3633 152.492 10.3633C151.508 10.3633 150.649 10.5889 149.915 11.0401C149.181 11.4912 148.612 12.1247 148.206 12.9405C147.8 13.7562 147.598 14.7087 147.598 15.7979C147.598 16.8825 147.8 17.8304 148.206 18.6416C148.612 19.4528 149.181 20.084 149.915 20.5352ZM154.085 18.9903C153.666 19.3275 153.137 19.4961 152.499 19.4961C151.856 19.4961 151.323 19.3275 150.899 18.9903C150.48 18.653 150.168 18.2041 149.963 17.6436C149.762 17.083 149.662 16.4655 149.662 15.791C149.662 15.1211 149.762 14.5059 149.963 13.9453C150.168 13.3802 150.48 12.9268 150.899 12.585C151.323 12.2432 151.856 12.0723 152.499 12.0723C153.137 12.0723 153.666 12.2432 154.085 12.585C154.504 12.9268 154.814 13.3802 155.015 13.9453C155.22 14.5059 155.322 15.1211 155.322 15.791C155.322 16.4655 155.22 17.083 155.015 17.6436C154.814 18.2041 154.504 18.653 154.085 18.9903Z" fill="white"/>
<path d="M144.126 21V10.5H146.17V21H144.126Z" fill="white"/>
<path d="M145.158 8.87991C144.802 8.87991 144.497 8.76142 144.242 8.52444C143.991 8.28291 143.866 7.9958 143.866 7.66312C143.866 7.32588 143.991 7.03877 144.242 6.80179C144.497 6.56025 144.802 6.43948 145.158 6.43948C145.513 6.43948 145.816 6.56025 146.067 6.80179C146.322 7.03877 146.45 7.32588 146.45 7.66312C146.45 7.9958 146.322 8.28291 146.067 8.52444C145.816 8.76142 145.513 8.87991 145.158 8.87991Z" fill="white"/>
<path d="M142.715 12.1407V10.5H140.562V7.98441H138.518V10.5H136.979V12.1407H138.518V18.3409C138.518 18.9743 138.661 19.5007 138.948 19.92C139.235 20.3392 139.611 20.6491 140.076 20.8496C140.541 21.0502 141.042 21.1459 141.58 21.1367C141.908 21.1322 142.182 21.1048 142.4 21.0547C142.619 21.0091 142.788 20.9636 142.906 20.918L142.537 19.2295C142.469 19.2432 142.373 19.2614 142.25 19.2842C142.127 19.307 141.983 19.3184 141.819 19.3184C141.596 19.3184 141.389 19.2842 141.197 19.2159C141.01 19.1429 140.858 19.0085 140.739 18.8125C140.621 18.612 140.562 18.3135 140.562 17.917V12.1407H142.715Z" fill="white"/>
<path fill-rule="evenodd" clip-rule="evenodd" d="M126.782 24.9375V10.5H128.779V12.2022H128.949C129.068 11.9834 129.239 11.7305 129.462 11.4434C129.685 11.1563 129.995 10.9056 130.392 10.6914C130.788 10.4727 131.312 10.3633 131.964 10.3633C132.812 10.3633 133.568 10.5775 134.234 11.0059C134.899 11.4343 135.421 12.0518 135.799 12.8584C136.182 13.6651 136.373 14.6358 136.373 15.7705C136.373 16.9053 136.184 17.8783 135.806 18.6895C135.428 19.4961 134.908 20.1182 134.247 20.5557C133.587 20.9886 132.832 21.2051 131.985 21.2051C131.347 21.2051 130.825 21.098 130.419 20.8838C130.018 20.6696 129.704 20.419 129.476 20.1319C129.248 19.8448 129.073 19.5895 128.949 19.3662H128.826V24.9375H126.782ZM128.785 15.75C128.785 16.4883 128.893 17.1354 129.107 17.6914C129.321 18.2474 129.631 18.6826 130.036 18.9971C130.442 19.307 130.939 19.4619 131.527 19.4619C132.137 19.4619 132.648 19.3002 133.058 18.9766C133.468 18.6485 133.778 18.2041 133.988 17.6436C134.202 17.083 134.309 16.4519 134.309 15.75C134.309 15.0573 134.204 14.4353 133.994 13.8838C133.789 13.3324 133.479 12.8972 133.065 12.5782C132.655 12.2591 132.142 12.0996 131.527 12.0996C130.934 12.0996 130.433 12.2523 130.023 12.5576C129.617 12.863 129.309 13.2891 129.1 13.836C128.89 14.3828 128.785 15.0209 128.785 15.75Z" fill="white"/>
<path fill-rule="evenodd" clip-rule="evenodd" d="M117.879 20.5352C118.613 20.9864 119.472 21.2119 120.457 21.2119C121.441 21.2119 122.3 20.9864 123.034 20.5352C123.767 20.084 124.337 19.4528 124.743 18.6416C125.148 17.8304 125.351 16.8825 125.351 15.7979C125.351 14.7087 125.148 13.7562 124.743 12.9405C124.337 12.1247 123.767 11.4912 123.034 11.0401C122.3 10.5889 121.441 10.3633 120.457 10.3633C119.472 10.3633 118.613 10.5889 117.879 11.0401C117.146 11.4912 116.576 12.1247 116.17 12.9405C115.765 13.7562 115.562 14.7087 115.562 15.7979C115.562 16.8825 115.765 17.8304 116.17 18.6416C116.576 19.4528 117.146 20.084 117.879 20.5352ZM122.049 18.9903C121.63 19.3275 121.101 19.4961 120.463 19.4961C119.821 19.4961 119.288 19.3275 118.864 18.9903C118.444 18.653 118.132 18.2041 117.927 17.6436C117.727 17.083 117.626 16.4655 117.626 15.791C117.626 15.1211 117.727 14.5059 117.927 13.9453C118.132 13.3802 118.444 12.9268 118.864 12.585C119.288 12.2432 119.821 12.0723 120.463 12.0723C121.101 12.0723 121.63 12.2432 122.049 12.585C122.469 12.9268 122.778 13.3802 122.979 13.9453C123.184 14.5059 123.287 15.1211 123.287 15.791C123.287 16.4655 123.184 17.083 122.979 17.6436C122.778 18.2041 122.469 18.653 122.049 18.9903Z" fill="white"/>
<path fill-rule="evenodd" clip-rule="evenodd" d="M108.764 21.2051C107.917 21.2051 107.16 20.9886 106.495 20.5557C105.834 20.1182 105.314 19.4961 104.936 18.6895C104.562 17.8783 104.375 16.9053 104.375 15.7705C104.375 14.6358 104.565 13.6651 104.943 12.8584C105.326 12.0518 105.85 11.4343 106.515 11.0059C107.181 10.5775 107.935 10.3633 108.778 10.3633C109.43 10.3633 109.954 10.4727 110.35 10.6914C110.751 10.9056 111.061 11.1563 111.28 11.4434C111.503 11.7305 111.676 11.9834 111.799 12.2022H111.922V7.00003H113.966V21H111.97V19.3662H111.799C111.676 19.5895 111.499 19.8448 111.266 20.1319C111.038 20.419 110.724 20.6696 110.323 20.8838C109.922 21.098 109.402 21.2051 108.764 21.2051ZM109.215 19.4619C109.803 19.4619 110.3 19.307 110.706 18.9971C111.116 18.6826 111.426 18.2474 111.635 17.6914C111.849 17.1354 111.957 16.4883 111.957 15.75C111.957 15.0209 111.852 14.3828 111.642 13.836C111.432 13.2891 111.125 12.863 110.719 12.5576C110.314 12.2523 109.812 12.0996 109.215 12.0996C108.6 12.0996 108.087 12.2591 107.677 12.5782C107.267 12.8972 106.957 13.3324 106.748 13.8838C106.542 14.4353 106.44 15.0573 106.44 15.75C106.44 16.4519 106.545 17.083 106.754 17.6436C106.964 18.2041 107.274 18.6485 107.684 18.9766C108.099 19.3002 108.609 19.4619 109.215 19.4619Z" fill="white"/>
<path fill-rule="evenodd" clip-rule="evenodd" d="M91.4785 21H93.7207L95.0029 17.295H100.473L101.753 21H103.995L98.957 7.00003H96.5166L91.4785 21ZM99.8589 15.5176L97.7949 9.543H97.6855L95.618 15.5176H99.8589Z" fill="white"/>
</svg>
