<svg width="132" height="107" viewBox="0 0 132 107" fill="none" xmlns="http://www.w3.org/2000/svg">
<path d="M56.3936 41.8717C47.5055 41.8717 44.4805 30.6405 43.8026 28.4555C42.7104 24.8837 41.949 21.2191 41.5281 17.5079C41.2121 14.5154 43.6143 12.4328 46.251 12.4328C47.4 12.3873 48.5222 12.7875 49.3832 13.5498C50.2441 14.3122 50.7771 15.3777 50.8711 16.5238C51.2051 19.6668 51.8396 22.7705 52.7659 25.7924C54.2642 30.5713 55.8537 32.4089 56.9983 32.4089C58.8468 32.4089 59.9746 27.6651 60.9716 23.1481C61.7062 19.8202 62.5002 16.4668 64.0679 13.4879C66.7949 8.30596 70.9162 7.1001 74.4765 7.1001C82.2835 7.1001 86.1908 16.1379 86.1908 18.4795C86.2273 19.1061 86.1364 19.7336 85.9235 20.324C85.7106 20.9145 85.3802 21.4556 84.9521 21.9147C84.5242 22.3738 84.0075 22.7413 83.4334 22.995C82.8593 23.2487 82.2398 23.3834 81.6122 23.3908C78.5841 23.3908 77.5576 21.3635 76.6936 19.5866C75.9165 17.988 75.1049 16.6588 74.0555 16.6588C73.8717 16.669 73.6919 16.7163 73.527 16.7979C73.362 16.8795 73.2152 16.9936 73.0954 17.1333C70.4873 19.7821 69.6126 33.6392 64.3976 38.9357C61.5066 41.8717 58.3609 41.8717 56.3936 41.8717Z" fill="url(#paint0_linear_13250_6177)"/>
<path d="M56.3936 41.8717C47.5055 41.8717 44.4805 30.6405 43.8026 28.4555C42.7104 24.8837 41.949 21.2191 41.5281 17.5079C41.2121 14.5154 43.6143 12.4328 46.251 12.4328C47.4 12.3873 48.5222 12.7875 49.3832 13.5498C50.2441 14.3122 50.7771 15.3777 50.8711 16.5238C51.2051 19.6668 51.8396 22.7705 52.7659 25.7924C54.2642 30.5713 55.8537 32.4089 56.9983 32.4089C58.8468 32.4089 59.9746 27.6651 60.9716 23.1481C61.7062 19.8202 62.5002 16.4668 64.0679 13.4879C66.7949 8.30596 70.9162 7.1001 74.4765 7.1001C82.2835 7.1001 86.1908 16.1379 86.1908 18.4795C86.2273 19.1061 86.1364 19.7336 85.9235 20.324C85.7106 20.9145 85.3802 21.4556 84.9521 21.9147C84.5242 22.3738 84.0075 22.7413 83.4334 22.995C82.8593 23.2487 82.2398 23.3834 81.6122 23.3908C78.5841 23.3908 77.5576 21.3635 76.6936 19.5866C75.9165 17.988 75.1049 16.6588 74.0555 16.6588C73.8717 16.669 73.6919 16.7163 73.527 16.7979C73.362 16.8795 73.2152 16.9936 73.0954 17.1333C70.4873 19.7821 69.6126 33.6392 64.3976 38.9357C61.5066 41.8717 58.3609 41.8717 56.3936 41.8717Z" fill="url(#paint1_radial_13250_6177)"/>
<path d="M56.3936 41.8717C47.5055 41.8717 44.4805 30.6405 43.8026 28.4555C42.7104 24.8837 41.949 21.2191 41.5281 17.5079C41.2121 14.5154 43.6143 12.4328 46.251 12.4328C47.4 12.3873 48.5222 12.7875 49.3832 13.5498C50.2441 14.3122 50.7771 15.3777 50.8711 16.5238C51.2051 19.6668 51.8396 22.7705 52.7659 25.7924C54.2642 30.5713 55.8537 32.4089 56.9983 32.4089C58.8468 32.4089 59.9746 27.6651 60.9716 23.1481C61.7062 19.8202 62.5002 16.4668 64.0679 13.4879C66.7949 8.30596 70.9162 7.1001 74.4765 7.1001C82.2835 7.1001 86.1908 16.1379 86.1908 18.4795C86.2273 19.1061 86.1364 19.7336 85.9235 20.324C85.7106 20.9145 85.3802 21.4556 84.9521 21.9147C84.5242 22.3738 84.0075 22.7413 83.4334 22.995C82.8593 23.2487 82.2398 23.3834 81.6122 23.3908C78.5841 23.3908 77.5576 21.3635 76.6936 19.5866C75.9165 17.988 75.1049 16.6588 74.0555 16.6588C73.8717 16.669 73.6919 16.7163 73.527 16.7979C73.362 16.8795 73.2152 16.9936 73.0954 17.1333C70.4873 19.7821 69.6126 33.6392 64.3976 38.9357C61.5066 41.8717 58.3609 41.8717 56.3936 41.8717Z" fill="url(#paint2_radial_13250_6177)"/>
<path d="M56.3936 41.8717C47.5055 41.8717 44.4805 30.6405 43.8026 28.4555C42.7104 24.8837 41.949 21.2191 41.5281 17.5079C41.2121 14.5154 43.6143 12.4328 46.251 12.4328C47.4 12.3873 48.5222 12.7875 49.3832 13.5498C50.2441 14.3122 50.7771 15.3777 50.8711 16.5238C51.2051 19.6668 51.8396 22.7705 52.7659 25.7924C54.2642 30.5713 55.8537 32.4089 56.9983 32.4089C58.8468 32.4089 59.9746 27.6651 60.9716 23.1481C61.7062 19.8202 62.5002 16.4668 64.0679 13.4879C66.7949 8.30596 70.9162 7.1001 74.4765 7.1001C82.2835 7.1001 86.1908 16.1379 86.1908 18.4795C86.2273 19.1061 86.1364 19.7336 85.9235 20.324C85.7106 20.9145 85.3802 21.4556 84.9521 21.9147C84.5242 22.3738 84.0075 22.7413 83.4334 22.995C82.8593 23.2487 82.2398 23.3834 81.6122 23.3908C78.5841 23.3908 77.5576 21.3635 76.6936 19.5866C75.9165 17.988 75.1049 16.6588 74.0555 16.6588C73.8717 16.669 73.6919 16.7163 73.527 16.7979C73.362 16.8795 73.2152 16.9936 73.0954 17.1333C70.4873 19.7821 69.6126 33.6392 64.3976 38.9357C61.5066 41.8717 58.3609 41.8717 56.3936 41.8717Z" fill="url(#paint3_radial_13250_6177)"/>
<path d="M56.3936 41.8717C47.5055 41.8717 44.4805 30.6405 43.8026 28.4555C42.7104 24.8837 41.949 21.2191 41.5281 17.5079C41.2121 14.5154 43.6143 12.4328 46.251 12.4328C47.4 12.3873 48.5222 12.7875 49.3832 13.5498C50.2441 14.3122 50.7771 15.3777 50.8711 16.5238C51.2051 19.6668 51.8396 22.7705 52.7659 25.7924C54.2642 30.5713 55.8537 32.4089 56.9983 32.4089C58.8468 32.4089 59.9746 27.6651 60.9716 23.1481C61.7062 19.8202 62.5002 16.4668 64.0679 13.4879C66.7949 8.30596 70.9162 7.1001 74.4765 7.1001C82.2835 7.1001 86.1908 16.1379 86.1908 18.4795C86.2273 19.1061 86.1364 19.7336 85.9235 20.324C85.7106 20.9145 85.3802 21.4556 84.9521 21.9147C84.5242 22.3738 84.0075 22.7413 83.4334 22.995C82.8593 23.2487 82.2398 23.3834 81.6122 23.3908C78.5841 23.3908 77.5576 21.3635 76.6936 19.5866C75.9165 17.988 75.1049 16.6588 74.0555 16.6588C73.8717 16.669 73.6919 16.7163 73.527 16.7979C73.362 16.8795 73.2152 16.9936 73.0954 17.1333C70.4873 19.7821 69.6126 33.6392 64.3976 38.9357C61.5066 41.8717 58.3609 41.8717 56.3936 41.8717Z" fill="url(#paint4_radial_13250_6177)"/>
<path d="M56.3936 41.8717C47.5055 41.8717 44.4805 30.6405 43.8026 28.4555C42.7104 24.8837 41.949 21.2191 41.5281 17.5079C41.2121 14.5154 43.6143 12.4328 46.251 12.4328C47.4 12.3873 48.5222 12.7875 49.3832 13.5498C50.2441 14.3122 50.7771 15.3777 50.8711 16.5238C51.2051 19.6668 51.8396 22.7705 52.7659 25.7924C54.2642 30.5713 55.8537 32.4089 56.9983 32.4089C58.8468 32.4089 59.9746 27.6651 60.9716 23.1481C61.7062 19.8202 62.5002 16.4668 64.0679 13.4879C66.7949 8.30596 70.9162 7.1001 74.4765 7.1001C82.2835 7.1001 86.1908 16.1379 86.1908 18.4795C86.2273 19.1061 86.1364 19.7336 85.9235 20.324C85.7106 20.9145 85.3802 21.4556 84.9521 21.9147C84.5242 22.3738 84.0075 22.7413 83.4334 22.995C82.8593 23.2487 82.2398 23.3834 81.6122 23.3908C78.5841 23.3908 77.5576 21.3635 76.6936 19.5866C75.9165 17.988 75.1049 16.6588 74.0555 16.6588C73.8717 16.669 73.6919 16.7163 73.527 16.7979C73.362 16.8795 73.2152 16.9936 73.0954 17.1333C70.4873 19.7821 69.6126 33.6392 64.3976 38.9357C61.5066 41.8717 58.3609 41.8717 56.3936 41.8717Z" fill="url(#paint5_radial_13250_6177)"/>
<path d="M56.3936 41.8717C47.5055 41.8717 44.4805 30.6405 43.8026 28.4555C42.7104 24.8837 41.949 21.2191 41.5281 17.5079C41.2121 14.5154 43.6143 12.4328 46.251 12.4328C47.4 12.3873 48.5222 12.7875 49.3832 13.5498C50.2441 14.3122 50.7771 15.3777 50.8711 16.5238C51.2051 19.6668 51.8396 22.7705 52.7659 25.7924C54.2642 30.5713 55.8537 32.4089 56.9983 32.4089C58.8468 32.4089 59.9746 27.6651 60.9716 23.1481C61.7062 19.8202 62.5002 16.4668 64.0679 13.4879C66.7949 8.30596 70.9162 7.1001 74.4765 7.1001C82.2835 7.1001 86.1908 16.1379 86.1908 18.4795C86.2273 19.1061 86.1364 19.7336 85.9235 20.324C85.7106 20.9145 85.3802 21.4556 84.9521 21.9147C84.5242 22.3738 84.0075 22.7413 83.4334 22.995C82.8593 23.2487 82.2398 23.3834 81.6122 23.3908C78.5841 23.3908 77.5576 21.3635 76.6936 19.5866C75.9165 17.988 75.1049 16.6588 74.0555 16.6588C73.8717 16.669 73.6919 16.7163 73.527 16.7979C73.362 16.8795 73.2152 16.9936 73.0954 17.1333C70.4873 19.7821 69.6126 33.6392 64.3976 38.9357C61.5066 41.8717 58.3609 41.8717 56.3936 41.8717Z" fill="url(#paint6_radial_13250_6177)"/>
<path d="M56.3936 41.8717C47.5055 41.8717 44.4805 30.6405 43.8026 28.4555C42.7104 24.8837 41.949 21.2191 41.5281 17.5079C41.2121 14.5154 43.6143 12.4328 46.251 12.4328C47.4 12.3873 48.5222 12.7875 49.3832 13.5498C50.2441 14.3122 50.7771 15.3777 50.8711 16.5238C51.2051 19.6668 51.8396 22.7705 52.7659 25.7924C54.2642 30.5713 55.8537 32.4089 56.9983 32.4089C58.8468 32.4089 59.9746 27.6651 60.9716 23.1481C61.7062 19.8202 62.5002 16.4668 64.0679 13.4879C66.7949 8.30596 70.9162 7.1001 74.4765 7.1001C82.2835 7.1001 86.1908 16.1379 86.1908 18.4795C86.2273 19.1061 86.1364 19.7336 85.9235 20.324C85.7106 20.9145 85.3802 21.4556 84.9521 21.9147C84.5242 22.3738 84.0075 22.7413 83.4334 22.995C82.8593 23.2487 82.2398 23.3834 81.6122 23.3908C78.5841 23.3908 77.5576 21.3635 76.6936 19.5866C75.9165 17.988 75.1049 16.6588 74.0555 16.6588C73.8717 16.669 73.6919 16.7163 73.527 16.7979C73.362 16.8795 73.2152 16.9936 73.0954 17.1333C70.4873 19.7821 69.6126 33.6392 64.3976 38.9357C61.5066 41.8717 58.3609 41.8717 56.3936 41.8717Z" fill="url(#paint7_linear_13250_6177)"/>
<path d="M74.4758 7.1001C70.9155 7.1001 66.7942 8.30596 64.0668 13.4882C62.4991 16.4669 61.7049 19.8203 60.9706 23.1484C60.7287 24.2435 60.4792 25.3518 60.2139 26.4028V41.4593C61.8074 41.0039 63.2512 40.1329 64.3973 38.9356C69.6118 33.6394 70.4866 19.7822 73.0949 17.1335C73.2146 16.9938 73.3614 16.8796 73.5263 16.798C73.6913 16.7165 73.8711 16.6692 74.0549 16.6589C75.1043 16.6589 75.9159 17.9881 76.6931 19.5867C77.5571 21.3637 78.5835 23.391 81.6116 23.391C82.2391 23.3835 82.8587 23.2489 83.4328 22.9952C84.0069 22.7415 84.5235 22.3739 84.9516 21.9149C85.3795 21.4557 85.71 20.9146 85.9229 20.3242C86.1358 19.7338 86.2267 19.1062 86.1902 18.4797C86.19 16.1379 82.2829 7.1001 74.4758 7.1001Z" fill="url(#paint8_radial_13250_6177)"/>
<path d="M56.3936 41.8717C47.5055 41.8717 44.4805 30.6405 43.8026 28.4555C42.7104 24.8837 41.949 21.2191 41.5281 17.5079C41.2121 14.5154 43.6143 12.4328 46.251 12.4328C47.4 12.3873 48.5222 12.7875 49.3832 13.5498C50.2441 14.3122 50.7771 15.3777 50.8711 16.5238C51.2051 19.6668 51.8396 22.7705 52.7659 25.7924C54.2642 30.5713 55.8537 32.4089 56.9983 32.4089C58.8468 32.4089 59.9746 27.6651 60.9716 23.1481C61.7062 19.8202 62.5002 16.4668 64.0679 13.4879C66.7949 8.30596 70.9162 7.1001 74.4765 7.1001C82.2835 7.1001 86.1908 16.1379 86.1908 18.4795C86.2273 19.1061 86.1364 19.7336 85.9235 20.324C85.7106 20.9145 85.3802 21.4556 84.9521 21.9147C84.5242 22.3738 84.0075 22.7413 83.4334 22.995C82.8593 23.2487 82.2398 23.3834 81.6122 23.3908C78.5841 23.3908 77.5576 21.3635 76.6936 19.5866C75.9165 17.988 75.1049 16.6588 74.0555 16.6588C73.8717 16.669 73.6919 16.7163 73.527 16.7979C73.362 16.8795 73.2152 16.9936 73.0954 17.1333C70.4873 19.7821 69.6126 33.6392 64.3976 38.9357C61.5066 41.8717 58.3609 41.8717 56.3936 41.8717Z" fill="url(#paint9_radial_13250_6177)"/>
<path d="M56.3936 41.8717C47.5055 41.8717 44.4805 30.6405 43.8026 28.4555C42.7104 24.8837 41.949 21.2191 41.5281 17.5079C41.2121 14.5154 43.6143 12.4328 46.251 12.4328C47.4 12.3873 48.5222 12.7875 49.3832 13.5498C50.2441 14.3122 50.7771 15.3777 50.8711 16.5238C51.2051 19.6668 51.8396 22.7705 52.7659 25.7924C54.2642 30.5713 55.8537 32.4089 56.9983 32.4089C58.8468 32.4089 59.9746 27.6651 60.9716 23.1481C61.7062 19.8202 62.5002 16.4668 64.0679 13.4879C66.7949 8.30596 70.9162 7.1001 74.4765 7.1001C82.2835 7.1001 86.1908 16.1379 86.1908 18.4795C86.2273 19.1061 86.1364 19.7336 85.9235 20.324C85.7106 20.9145 85.3802 21.4556 84.9521 21.9147C84.5242 22.3738 84.0075 22.7413 83.4334 22.995C82.8593 23.2487 82.2398 23.3834 81.6122 23.3908C78.5841 23.3908 77.5576 21.3635 76.6936 19.5866C75.9165 17.988 75.1049 16.6588 74.0555 16.6588C73.8717 16.669 73.6919 16.7163 73.527 16.7979C73.362 16.8795 73.2152 16.9936 73.0954 17.1333C70.4873 19.7821 69.6126 33.6392 64.3976 38.9357C61.5066 41.8717 58.3609 41.8717 56.3936 41.8717Z" fill="url(#paint10_radial_13250_6177)"/>
<path d="M56.3936 41.8717C47.5055 41.8717 44.4805 30.6405 43.8026 28.4555C42.7104 24.8837 41.949 21.2191 41.5281 17.5079C41.2121 14.5154 43.6143 12.4328 46.251 12.4328C47.4 12.3873 48.5222 12.7875 49.3832 13.5498C50.2441 14.3122 50.7771 15.3777 50.8711 16.5238C51.2051 19.6668 51.8396 22.7705 52.7659 25.7924C54.2642 30.5713 55.8537 32.4089 56.9983 32.4089C58.8468 32.4089 59.9746 27.6651 60.9716 23.1481C61.7062 19.8202 62.5002 16.4668 64.0679 13.4879C66.7949 8.30596 70.9162 7.1001 74.4765 7.1001C82.2835 7.1001 86.1908 16.1379 86.1908 18.4795C86.2273 19.1061 86.1364 19.7336 85.9235 20.324C85.7106 20.9145 85.3802 21.4556 84.9521 21.9147C84.5242 22.3738 84.0075 22.7413 83.4334 22.995C82.8593 23.2487 82.2398 23.3834 81.6122 23.3908C78.5841 23.3908 77.5576 21.3635 76.6936 19.5866C75.9165 17.988 75.1049 16.6588 74.0555 16.6588C73.8717 16.669 73.6919 16.7163 73.527 16.7979C73.362 16.8795 73.2152 16.9936 73.0954 17.1333C70.4873 19.7821 69.6126 33.6392 64.3976 38.9357C61.5066 41.8717 58.3609 41.8717 56.3936 41.8717Z" fill="url(#paint11_radial_13250_6177)"/>
<path d="M56.3936 41.8717C47.5055 41.8717 44.4805 30.6405 43.8026 28.4555C42.7104 24.8837 41.949 21.2191 41.5281 17.5079C41.2121 14.5154 43.6143 12.4328 46.251 12.4328C47.4 12.3873 48.5222 12.7875 49.3832 13.5498C50.2441 14.3122 50.7771 15.3777 50.8711 16.5238C51.2051 19.6668 51.8396 22.7705 52.7659 25.7924C54.2642 30.5713 55.8537 32.4089 56.9983 32.4089C58.8468 32.4089 59.9746 27.6651 60.9716 23.1481C61.7062 19.8202 62.5002 16.4668 64.0679 13.4879C66.7949 8.30596 70.9162 7.1001 74.4765 7.1001C82.2835 7.1001 86.1908 16.1379 86.1908 18.4795C86.2273 19.1061 86.1364 19.7336 85.9235 20.324C85.7106 20.9145 85.3802 21.4556 84.9521 21.9147C84.5242 22.3738 84.0075 22.7413 83.4334 22.995C82.8593 23.2487 82.2398 23.3834 81.6122 23.3908C78.5841 23.3908 77.5576 21.3635 76.6936 19.5866C75.9165 17.988 75.1049 16.6588 74.0555 16.6588C73.8717 16.669 73.6919 16.7163 73.527 16.7979C73.362 16.8795 73.2152 16.9936 73.0954 17.1333C70.4873 19.7821 69.6126 33.6392 64.3976 38.9357C61.5066 41.8717 58.3609 41.8717 56.3936 41.8717Z" fill="url(#paint12_radial_13250_6177)"/>
<path d="M56.3936 41.8717C47.5055 41.8717 44.4805 30.6405 43.8026 28.4555C42.7104 24.8837 41.949 21.2191 41.5281 17.5079C41.2121 14.5154 43.6143 12.4328 46.251 12.4328C47.4 12.3873 48.5222 12.7875 49.3832 13.5498C50.2441 14.3122 50.7771 15.3777 50.8711 16.5238C51.2051 19.6668 51.8396 22.7705 52.7659 25.7924C54.2642 30.5713 55.8537 32.4089 56.9983 32.4089C58.8468 32.4089 59.9746 27.6651 60.9716 23.1481C61.7062 19.8202 62.5002 16.4668 64.0679 13.4879C66.7949 8.30596 70.9162 7.1001 74.4765 7.1001C82.2835 7.1001 86.1908 16.1379 86.1908 18.4795C86.2273 19.1061 86.1364 19.7336 85.9235 20.324C85.7106 20.9145 85.3802 21.4556 84.9521 21.9147C84.5242 22.3738 84.0075 22.7413 83.4334 22.995C82.8593 23.2487 82.2398 23.3834 81.6122 23.3908C78.5841 23.3908 77.5576 21.3635 76.6936 19.5866C75.9165 17.988 75.1049 16.6588 74.0555 16.6588C73.8717 16.669 73.6919 16.7163 73.527 16.7979C73.362 16.8795 73.2152 16.9936 73.0954 17.1333C70.4873 19.7821 69.6126 33.6392 64.3976 38.9357C61.5066 41.8717 58.3609 41.8717 56.3936 41.8717Z" fill="url(#paint13_radial_13250_6177)"/>
<path d="M56.3936 41.8717C47.5055 41.8717 44.4805 30.6405 43.8026 28.4555C42.7104 24.8837 41.949 21.2191 41.5281 17.5079C41.2121 14.5154 43.6143 12.4328 46.251 12.4328C47.4 12.3873 48.5222 12.7875 49.3832 13.5498C50.2441 14.3122 50.7771 15.3777 50.8711 16.5238C51.2051 19.6668 51.8397 22.7705 52.7659 25.7924C54.2642 30.5713 55.8537 32.4089 56.9983 32.4089C58.8468 32.4089 59.9746 27.6651 60.9716 23.1481C61.7062 19.8202 62.5002 16.4668 64.0679 13.4879C66.7949 8.30596 70.9162 7.1001 74.4765 7.1001C82.2835 7.1001 86.1908 16.1379 86.1908 18.4795C86.2273 19.1061 86.1364 19.7336 85.9235 20.324C85.7106 20.9145 85.3802 21.4556 84.9521 21.9147C84.5242 22.3738 84.0075 22.7413 83.4334 22.995C82.8593 23.2487 82.2398 23.3834 81.6122 23.3908C78.5841 23.3908 77.5576 21.3635 76.6936 19.5866C75.9165 17.988 75.1049 16.6588 74.0555 16.6588C73.8717 16.669 73.6919 16.7163 73.527 16.7979C73.362 16.8795 73.2152 16.9936 73.0954 17.1333C70.4873 19.7821 69.6126 33.6392 64.3976 38.9357C61.5066 41.8717 58.3609 41.8717 56.3936 41.8717Z" fill="url(#paint14_linear_13250_6177)"/>
<path d="M84.7509 12.4329C84.3974 12.4326 84.0448 12.4666 83.6979 12.5345C85.3482 14.9122 86.1739 17.4031 86.1739 18.4794C86.2096 19.33 86.0143 20.1744 85.6088 20.923C85.2032 21.6716 84.6026 22.2965 83.8707 22.7313C83.1387 23.1661 81.8715 23.3764 81.4669 23.3764C81.0623 23.3764 79.7468 23.131 79.0169 22.6928V22.7931C78.8223 23.5697 78.6687 24.4197 78.4029 25.2468C77.8872 26.9004 77.2396 28.51 76.4661 30.0598C75.6726 31.5753 74.8868 32.462 73.9503 32.4155C72.8853 32.3627 72.0218 30.991 70.9486 27.1143C70.6024 25.8644 70.282 24.4939 69.985 23.1483C69.2483 19.8106 68.3441 16.4542 66.7979 13.4881C65.8607 11.5641 64.3994 9.94388 62.582 8.8138C60.7647 7.68373 58.6652 7.08975 56.5251 7.10023C53.3356 7.10023 50.9527 8.60916 49.0806 10.5102C48.4719 11.1495 47.9199 11.8405 47.4307 12.5752C48.3522 12.7733 49.1843 13.2655 49.8017 13.9776C50.4192 14.6898 50.7884 15.5833 50.8538 16.5236C51.1437 19.2452 51.6568 21.9384 52.3879 24.5759C52.919 22.873 53.5603 21.2064 54.3079 19.5868C54.6789 18.744 55.1787 17.9641 55.7893 17.2749C55.9249 17.1086 56.0925 16.9712 56.2821 16.8709C56.4717 16.7705 56.6796 16.7092 56.8933 16.6906C57.2493 16.6906 58.4651 17.0162 59.6487 21.1663C61.1166 26.3124 62.209 34.5024 66.371 38.851C68.2067 40.7691 70.7755 42.0101 74.3358 42.0101C75.7568 42.0041 77.1618 41.7097 78.4657 41.1447C79.7696 40.5797 80.9452 39.7558 81.9213 38.7231C84.9745 35.5785 86.6476 30.3794 87.2444 28.4556C88.3324 24.8852 89.0788 21.2196 89.4735 17.5081C89.7894 14.5155 87.2664 12.4329 84.7509 12.4329Z" fill="#EFEFEF"/>
<path d="M84.7509 12.4329C84.3974 12.4326 84.0448 12.4666 83.6979 12.5345C85.3482 14.9122 86.1739 17.4031 86.1739 18.4794C86.2096 19.33 86.0143 20.1744 85.6088 20.923C85.2032 21.6716 84.6026 22.2965 83.8707 22.7313C83.1387 23.1661 81.8715 23.3764 81.4669 23.3764C81.0623 23.3764 79.7468 23.131 79.0169 22.6928V22.7931C78.8223 23.5697 78.6687 24.4197 78.4029 25.2468C77.8872 26.9004 77.2396 28.51 76.4661 30.0598C75.6726 31.5753 74.8868 32.462 73.9503 32.4155C72.8853 32.3627 72.0218 30.991 70.9486 27.1143C70.6024 25.8644 70.282 24.4939 69.985 23.1483C69.2483 19.8106 68.3441 16.4542 66.7979 13.4881C65.8607 11.5641 64.3994 9.94388 62.582 8.8138C60.7647 7.68373 58.6652 7.08975 56.5251 7.10023C53.3356 7.10023 50.9527 8.60916 49.0806 10.5102C48.4719 11.1495 47.9199 11.8405 47.4307 12.5752C48.3522 12.7733 49.1843 13.2655 49.8017 13.9776C50.4192 14.6898 50.7884 15.5833 50.8538 16.5236C51.1437 19.2452 51.6568 21.9384 52.3879 24.5759C52.919 22.873 53.5603 21.2064 54.3079 19.5868C54.6789 18.744 55.1787 17.9641 55.7893 17.2749C55.9249 17.1086 56.0925 16.9712 56.2821 16.8709C56.4717 16.7705 56.6796 16.7092 56.8933 16.6906C57.2493 16.6906 58.4651 17.0162 59.6487 21.1663C61.1166 26.3124 62.209 34.5024 66.371 38.851C68.2067 40.7691 70.7755 42.0101 74.3358 42.0101C75.7568 42.0041 77.1618 41.7097 78.4657 41.1447C79.7696 40.5797 80.9452 39.7558 81.9213 38.7231C84.9745 35.5785 86.6476 30.3794 87.2444 28.4556C88.3324 24.8852 89.0788 21.2196 89.4735 17.5081C89.7894 14.5155 87.2664 12.4329 84.7509 12.4329Z" fill="url(#paint15_radial_13250_6177)"/>
<path d="M84.7509 12.4329C84.3974 12.4326 84.0448 12.4666 83.6979 12.5345C85.3482 14.9122 86.1739 17.4031 86.1739 18.4794C86.2096 19.33 86.0143 20.1744 85.6088 20.923C85.2032 21.6716 84.6026 22.2965 83.8707 22.7313C83.1387 23.1661 81.8715 23.3764 81.4669 23.3764C81.0623 23.3764 79.7468 23.131 79.0169 22.6928V22.7931C78.8223 23.5697 78.6687 24.4197 78.4029 25.2468C77.8872 26.9004 77.2396 28.51 76.4661 30.0598C75.6726 31.5753 74.8868 32.462 73.9503 32.4155C72.8853 32.3627 72.0218 30.991 70.9486 27.1143C70.6024 25.8644 70.282 24.4939 69.985 23.1483C69.2483 19.8106 68.3441 16.4542 66.7979 13.4881C65.8607 11.5641 64.3994 9.94388 62.582 8.8138C60.7647 7.68373 58.6652 7.08975 56.5251 7.10023C53.3356 7.10023 50.9527 8.60916 49.0806 10.5102C48.4719 11.1495 47.9199 11.8405 47.4307 12.5752C48.3522 12.7733 49.1843 13.2655 49.8017 13.9776C50.4192 14.6898 50.7884 15.5833 50.8538 16.5236C51.1437 19.2452 51.6568 21.9384 52.3879 24.5759C52.919 22.873 53.5603 21.2064 54.3079 19.5868C54.6789 18.744 55.1787 17.9641 55.7893 17.2749C55.9249 17.1086 56.0925 16.9712 56.2821 16.8709C56.4717 16.7705 56.6796 16.7092 56.8933 16.6906C57.2493 16.6906 58.4651 17.0162 59.6487 21.1663C61.1166 26.3124 62.209 34.5024 66.371 38.851C68.2067 40.7691 70.7755 42.0101 74.3358 42.0101C75.7568 42.0041 77.1618 41.7097 78.4657 41.1447C79.7696 40.5797 80.9452 39.7558 81.9213 38.7231C84.9745 35.5785 86.6476 30.3794 87.2444 28.4556C88.3324 24.8852 89.0788 21.2196 89.4735 17.5081C89.7894 14.5155 87.2664 12.4329 84.7509 12.4329Z" fill="url(#paint16_radial_13250_6177)"/>
<path d="M84.7509 12.4329C84.3974 12.4326 84.0448 12.4666 83.6979 12.5345C85.3482 14.9122 86.1739 17.4031 86.1739 18.4794C86.2096 19.33 86.0143 20.1744 85.6088 20.923C85.2032 21.6716 84.6026 22.2965 83.8707 22.7313C83.1387 23.1661 81.8715 23.3764 81.4669 23.3764C81.0623 23.3764 79.7468 23.131 79.0169 22.6928V22.7931C78.8223 23.5697 78.6687 24.4197 78.4029 25.2468C77.8872 26.9004 77.2396 28.51 76.4661 30.0598C75.6726 31.5753 74.8868 32.462 73.9503 32.4155C72.8853 32.3627 72.0218 30.991 70.9486 27.1143C70.6024 25.8644 70.282 24.4939 69.985 23.1483C69.2483 19.8106 68.3441 16.4542 66.7979 13.4881C65.8607 11.5641 64.3994 9.94388 62.582 8.8138C60.7647 7.68373 58.6652 7.08975 56.5251 7.10023C53.3356 7.10023 50.9527 8.60916 49.0806 10.5102C48.4719 11.1495 47.9199 11.8405 47.4307 12.5752C48.3522 12.7733 49.1843 13.2655 49.8017 13.9776C50.4192 14.6898 50.7884 15.5833 50.8538 16.5236C51.1437 19.2452 51.6568 21.9384 52.3879 24.5759C52.919 22.873 53.5603 21.2064 54.3079 19.5868C54.6789 18.744 55.1787 17.9641 55.7893 17.2749C55.9249 17.1086 56.0925 16.9712 56.2821 16.8709C56.4717 16.7705 56.6796 16.7092 56.8933 16.6906C57.2493 16.6906 58.4651 17.0162 59.6487 21.1663C61.1166 26.3124 62.209 34.5024 66.371 38.851C68.2067 40.7691 70.7755 42.0101 74.3358 42.0101C75.7568 42.0041 77.1618 41.7097 78.4657 41.1447C79.7696 40.5797 80.9452 39.7558 81.9213 38.7231C84.9745 35.5785 86.6476 30.3794 87.2444 28.4556C88.3324 24.8852 89.0788 21.2196 89.4735 17.5081C89.7894 14.5155 87.2664 12.4329 84.7509 12.4329Z" fill="url(#paint17_radial_13250_6177)"/>
<path d="M84.7509 12.4329C84.3974 12.4326 84.0448 12.4666 83.6979 12.5345C85.3482 14.9122 86.1739 17.4031 86.1739 18.4794C86.2096 19.33 86.0143 20.1744 85.6088 20.923C85.2032 21.6716 84.6026 22.2965 83.8707 22.7313C83.1387 23.1661 81.8715 23.3764 81.4669 23.3764C81.0623 23.3764 79.7468 23.131 79.0169 22.6928V22.7931C78.8223 23.5697 78.6687 24.4197 78.4029 25.2468C77.8872 26.9004 77.2396 28.51 76.4661 30.0598C75.6726 31.5753 74.8868 32.462 73.9503 32.4155C72.8853 32.3627 72.0218 30.991 70.9486 27.1143C70.6024 25.8644 70.282 24.4939 69.985 23.1483C69.2483 19.8106 68.3441 16.4542 66.7979 13.4881C65.8607 11.5641 64.3994 9.94388 62.582 8.8138C60.7647 7.68373 58.6652 7.08975 56.5251 7.10023C53.3356 7.10023 50.9527 8.60916 49.0806 10.5102C48.4719 11.1495 47.9199 11.8405 47.4307 12.5752C48.3522 12.7733 49.1843 13.2655 49.8017 13.9776C50.4192 14.6898 50.7884 15.5833 50.8538 16.5236C51.1437 19.2452 51.6568 21.9384 52.3879 24.5759C52.919 22.873 53.5603 21.2064 54.3079 19.5868C54.6789 18.744 55.1787 17.9641 55.7893 17.2749C55.9249 17.1086 56.0925 16.9712 56.2821 16.8709C56.4717 16.7705 56.6796 16.7092 56.8933 16.6906C57.2493 16.6906 58.4651 17.0162 59.6487 21.1663C61.1166 26.3124 62.209 34.5024 66.371 38.851C68.2067 40.7691 70.7755 42.0101 74.3358 42.0101C75.7568 42.0041 77.1618 41.7097 78.4657 41.1447C79.7696 40.5797 80.9452 39.7558 81.9213 38.7231C84.9745 35.5785 86.6476 30.3794 87.2444 28.4556C88.3324 24.8852 89.0788 21.2196 89.4735 17.5081C89.7894 14.5155 87.2664 12.4329 84.7509 12.4329Z" fill="url(#paint18_radial_13250_6177)"/>
<path d="M84.7509 12.4329C84.3974 12.4326 84.0448 12.4666 83.6979 12.5345C85.3482 14.9122 86.1739 17.4031 86.1739 18.4794C86.2096 19.33 86.0143 20.1744 85.6088 20.923C85.2032 21.6716 84.6026 22.2965 83.8707 22.7313C83.1387 23.1661 81.8715 23.3764 81.4669 23.3764C81.0623 23.3764 79.7468 23.131 79.0169 22.6928V22.7931C78.8223 23.5697 78.6687 24.4197 78.4029 25.2468C77.8872 26.9004 77.2396 28.51 76.4661 30.0598C75.6726 31.5753 74.8868 32.462 73.9503 32.4155C72.8853 32.3627 72.0218 30.991 70.9486 27.1143C70.6024 25.8644 70.282 24.4939 69.985 23.1483C69.2483 19.8106 68.3441 16.4542 66.7979 13.4881C65.8607 11.5641 64.3994 9.94388 62.582 8.8138C60.7647 7.68373 58.6652 7.08975 56.5251 7.10023C53.3356 7.10023 50.9527 8.60916 49.0806 10.5102C48.4719 11.1495 47.9199 11.8405 47.4307 12.5752C48.3522 12.7733 49.1843 13.2655 49.8017 13.9776C50.4192 14.6898 50.7884 15.5833 50.8538 16.5236C51.1437 19.2452 51.6568 21.9384 52.3879 24.5759C52.919 22.873 53.5603 21.2064 54.3079 19.5868C54.6789 18.744 55.1787 17.9641 55.7893 17.2749C55.9249 17.1086 56.0925 16.9712 56.2821 16.8709C56.4717 16.7705 56.6796 16.7092 56.8933 16.6906C57.2493 16.6906 58.4651 17.0162 59.6487 21.1663C61.1166 26.3124 62.209 34.5024 66.371 38.851C68.2067 40.7691 70.7755 42.0101 74.3358 42.0101C75.7568 42.0041 77.1618 41.7097 78.4657 41.1447C79.7696 40.5797 80.9452 39.7558 81.9213 38.7231C84.9745 35.5785 86.6476 30.3794 87.2444 28.4556C88.3324 24.8852 89.0788 21.2196 89.4735 17.5081C89.7894 14.5155 87.2664 12.4329 84.7509 12.4329Z" fill="url(#paint19_radial_13250_6177)"/>
<path d="M84.7509 12.4329C84.3974 12.4326 84.0448 12.4666 83.6979 12.5345C85.3482 14.9122 86.1739 17.4031 86.1739 18.4794C86.2096 19.33 86.0143 20.1744 85.6088 20.923C85.2032 21.6716 84.6026 22.2965 83.8707 22.7313C83.1387 23.1661 81.8715 23.3764 81.4669 23.3764C81.0623 23.3764 79.7468 23.131 79.0169 22.6928V22.7931C78.8223 23.5697 78.6687 24.4197 78.4029 25.2468C77.8872 26.9004 77.2396 28.51 76.4661 30.0598C75.6726 31.5753 74.8868 32.462 73.9503 32.4155C72.8853 32.3627 72.0218 30.991 70.9486 27.1143C70.6024 25.8644 70.282 24.4939 69.985 23.1483C69.2483 19.8106 68.3441 16.4542 66.7979 13.4881C65.8607 11.5641 64.3994 9.94388 62.582 8.8138C60.7647 7.68373 58.6652 7.08975 56.5251 7.10023C53.3356 7.10023 50.9527 8.60916 49.0806 10.5102C48.4719 11.1495 47.9199 11.8405 47.4307 12.5752C48.3522 12.7733 49.1843 13.2655 49.8017 13.9776C50.4192 14.6898 50.7884 15.5833 50.8538 16.5236C51.1437 19.2452 51.6568 21.9384 52.3879 24.5759C52.919 22.873 53.5603 21.2064 54.3079 19.5868C54.6789 18.744 55.1787 17.9641 55.7893 17.2749C55.9249 17.1086 56.0925 16.9712 56.2821 16.8709C56.4717 16.7705 56.6796 16.7092 56.8933 16.6906C57.2493 16.6906 58.4651 17.0162 59.6487 21.1663C61.1166 26.3124 62.209 34.5024 66.371 38.851C68.2067 40.7691 70.7755 42.0101 74.3358 42.0101C75.7568 42.0041 77.1618 41.7097 78.4657 41.1447C79.7696 40.5797 80.9452 39.7558 81.9213 38.7231C84.9745 35.5785 86.6476 30.3794 87.2444 28.4556C88.3324 24.8852 89.0788 21.2196 89.4735 17.5081C89.7894 14.5155 87.2664 12.4329 84.7509 12.4329Z" fill="url(#paint20_radial_13250_6177)"/>
<path d="M84.7509 12.4329C84.3974 12.4326 84.0448 12.4666 83.6979 12.5345C85.3482 14.9122 86.1739 17.4031 86.1739 18.4794C86.2096 19.33 86.0143 20.1744 85.6088 20.923C85.2032 21.6716 84.6026 22.2965 83.8707 22.7313C83.1387 23.1661 81.8715 23.3764 81.4669 23.3764C81.0623 23.3764 79.7468 23.131 79.0169 22.6928V22.7931C78.8223 23.5697 78.6687 24.4197 78.4029 25.2468C77.8872 26.9004 77.2396 28.51 76.4661 30.0598C75.6726 31.5753 74.8868 32.462 73.9503 32.4155C72.8853 32.3627 72.0218 30.991 70.9486 27.1143C70.6024 25.8644 70.282 24.4939 69.985 23.1483C69.2483 19.8106 68.3441 16.4542 66.7979 13.4881C65.8607 11.5641 64.3994 9.94388 62.582 8.8138C60.7647 7.68373 58.6652 7.08975 56.5251 7.10023C53.3356 7.10023 50.9527 8.60916 49.0806 10.5102C48.4719 11.1495 47.9199 11.8405 47.4307 12.5752C48.3522 12.7733 49.1843 13.2655 49.8017 13.9776C50.4192 14.6898 50.7884 15.5833 50.8538 16.5236C51.1437 19.2452 51.6568 21.9384 52.3879 24.5759C52.919 22.873 53.5603 21.2064 54.3079 19.5868C54.6789 18.744 55.1787 17.9641 55.7893 17.2749C55.9249 17.1086 56.0925 16.9712 56.2821 16.8709C56.4717 16.7705 56.6796 16.7092 56.8933 16.6906C57.2493 16.6906 58.4651 17.0162 59.6487 21.1663C61.1166 26.3124 62.209 34.5024 66.371 38.851C68.2067 40.7691 70.7755 42.0101 74.3358 42.0101C75.7568 42.0041 77.1618 41.7097 78.4657 41.1447C79.7696 40.5797 80.9452 39.7558 81.9213 38.7231C84.9745 35.5785 86.6476 30.3794 87.2444 28.4556C88.3324 24.8852 89.0788 21.2196 89.4735 17.5081C89.7894 14.5155 87.2664 12.4329 84.7509 12.4329Z" fill="url(#paint21_radial_13250_6177)"/>
<path d="M84.7509 12.4329C84.3974 12.4326 84.0448 12.4666 83.6979 12.5345C85.3482 14.9122 86.1739 17.4031 86.1739 18.4794C86.2096 19.33 86.0143 20.1744 85.6088 20.923C85.2032 21.6716 84.6026 22.2965 83.8707 22.7313C83.1387 23.1661 81.8715 23.3764 81.4669 23.3764C81.0623 23.3764 79.7468 23.131 79.0169 22.6928V22.7931C78.8223 23.5697 78.6687 24.4197 78.4029 25.2468C77.8872 26.9004 77.2396 28.51 76.4661 30.0598C75.6726 31.5753 74.8868 32.462 73.9503 32.4155C72.8853 32.3627 72.0218 30.991 70.9486 27.1143C70.6024 25.8644 70.282 24.4939 69.985 23.1483C69.2483 19.8106 68.3441 16.4542 66.7979 13.4881C65.8607 11.5641 64.3994 9.94388 62.582 8.8138C60.7647 7.68373 58.6652 7.08975 56.5251 7.10023C53.3356 7.10023 50.9527 8.60916 49.0806 10.5102C48.4719 11.1495 47.9199 11.8405 47.4307 12.5752C48.3522 12.7733 49.1843 13.2655 49.8017 13.9776C50.4192 14.6898 50.7884 15.5833 50.8538 16.5236C51.1437 19.2452 51.6568 21.9384 52.3879 24.5759C52.919 22.873 53.5603 21.2064 54.3079 19.5868C54.6789 18.744 55.1787 17.9641 55.7893 17.2749C55.9249 17.1086 56.0925 16.9712 56.2821 16.8709C56.4717 16.7705 56.6796 16.7092 56.8933 16.6906C57.2493 16.6906 58.4651 17.0162 59.6487 21.1663C61.1166 26.3124 62.209 34.5024 66.371 38.851C68.2067 40.7691 70.7755 42.0101 74.3358 42.0101C75.7568 42.0041 77.1618 41.7097 78.4657 41.1447C79.7696 40.5797 80.9452 39.7558 81.9213 38.7231C84.9745 35.5785 86.6476 30.3794 87.2444 28.4556C88.3324 24.8852 89.0788 21.2196 89.4735 17.5081C89.7894 14.5155 87.2664 12.4329 84.7509 12.4329Z" fill="url(#paint22_radial_13250_6177)"/>
<path d="M84.7509 12.4329C84.3974 12.4326 84.0448 12.4666 83.6979 12.5345C85.3482 14.9122 86.1739 17.4031 86.1739 18.4794C86.2096 19.33 86.0143 20.1744 85.6088 20.923C85.2032 21.6716 84.6026 22.2965 83.8707 22.7313C83.1387 23.1661 81.8715 23.3764 81.4669 23.3764C81.0623 23.3764 79.7468 23.131 79.0169 22.6928V22.7931C78.8223 23.5697 78.6687 24.4197 78.4029 25.2468C77.8872 26.9004 77.2396 28.51 76.4661 30.0598C75.6726 31.5753 74.8868 32.462 73.9503 32.4155C72.8853 32.3627 72.0218 30.991 70.9486 27.1143C70.6024 25.8644 70.282 24.4939 69.985 23.1483C69.2483 19.8106 68.3441 16.4542 66.7979 13.4881C65.8607 11.5641 64.3994 9.94388 62.582 8.8138C60.7647 7.68373 58.6652 7.08975 56.5251 7.10023C53.3356 7.10023 50.9527 8.60916 49.0806 10.5102C48.4719 11.1495 47.9199 11.8405 47.4307 12.5752C48.3522 12.7733 49.1843 13.2655 49.8017 13.9776C50.4192 14.6898 50.7884 15.5833 50.8538 16.5236C51.1437 19.2452 51.6568 21.9384 52.3879 24.5759C52.919 22.873 53.5603 21.2064 54.3079 19.5868C54.6789 18.744 55.1787 17.9641 55.7893 17.2749C55.9249 17.1086 56.0925 16.9712 56.2821 16.8709C56.4717 16.7705 56.6796 16.7092 56.8933 16.6906C57.2493 16.6906 58.4651 17.0162 59.6487 21.1663C61.1166 26.3124 62.209 34.5024 66.371 38.851C68.2067 40.7691 70.7755 42.0101 74.3358 42.0101C75.7568 42.0041 77.1618 41.7097 78.4657 41.1447C79.7696 40.5797 80.9452 39.7558 81.9213 38.7231C84.9745 35.5785 86.6476 30.3794 87.2444 28.4556C88.3324 24.8852 89.0788 21.2196 89.4735 17.5081C89.7894 14.5155 87.2664 12.4329 84.7509 12.4329Z" fill="url(#paint23_radial_13250_6177)"/>
<path d="M84.7509 12.4329C84.3974 12.4326 84.0448 12.4666 83.6979 12.5345C85.3482 14.9122 86.1739 17.4031 86.1739 18.4794C86.2096 19.33 86.0143 20.1744 85.6088 20.923C85.2032 21.6716 84.6026 22.2965 83.8707 22.7313C83.1387 23.1661 81.8715 23.3764 81.4669 23.3764C81.0623 23.3764 79.7468 23.131 79.0169 22.6928V22.7931C78.8223 23.5697 78.6687 24.4197 78.4029 25.2468C77.8872 26.9004 77.2396 28.51 76.4661 30.0598C75.6726 31.5753 74.8868 32.462 73.9503 32.4155C72.8853 32.3627 72.0218 30.991 70.9486 27.1143C70.6024 25.8644 70.282 24.4939 69.985 23.1483C69.2483 19.8106 68.3441 16.4542 66.7979 13.4881C65.8607 11.5641 64.3994 9.94388 62.582 8.8138C60.7647 7.68373 58.6652 7.08975 56.5251 7.10023C53.3356 7.10023 50.9527 8.60916 49.0806 10.5102C48.4719 11.1495 47.9199 11.8405 47.4307 12.5752C48.3522 12.7733 49.1843 13.2655 49.8017 13.9776C50.4192 14.6898 50.7884 15.5833 50.8538 16.5236C51.1437 19.2452 51.6568 21.9384 52.3879 24.5759C52.919 22.873 53.5603 21.2064 54.3079 19.5868C54.6789 18.744 55.1787 17.9641 55.7893 17.2749C55.9249 17.1086 56.0925 16.9712 56.2821 16.8709C56.4717 16.7705 56.6796 16.7092 56.8933 16.6906C57.2493 16.6906 58.4651 17.0162 59.6487 21.1663C61.1166 26.3124 62.209 34.5024 66.371 38.851C68.2067 40.7691 70.7755 42.0101 74.3358 42.0101C75.7568 42.0041 77.1618 41.7097 78.4657 41.1447C79.7696 40.5797 80.9452 39.7558 81.9213 38.7231C84.9745 35.5785 86.6476 30.3794 87.2444 28.4556C88.3324 24.8852 89.0788 21.2196 89.4735 17.5081C89.7894 14.5155 87.2664 12.4329 84.7509 12.4329Z" fill="url(#paint24_radial_13250_6177)"/>
<path d="M84.7509 12.4329C84.3974 12.4326 84.0448 12.4666 83.6979 12.5345C85.3482 14.9122 86.1739 17.4031 86.1739 18.4794C86.2096 19.33 86.0143 20.1744 85.6088 20.923C85.2032 21.6716 84.6026 22.2965 83.8707 22.7313C83.1387 23.1661 81.8715 23.3764 81.4669 23.3764C81.0623 23.3764 79.7468 23.131 79.0169 22.6928V22.7931C78.8223 23.5697 78.6687 24.4197 78.4029 25.2468C77.8872 26.9004 77.2396 28.51 76.4661 30.0598C75.6726 31.5753 74.8868 32.462 73.9503 32.4155C72.8853 32.3627 72.0218 30.991 70.9486 27.1143C70.6024 25.8644 70.282 24.4939 69.985 23.1483C69.2483 19.8106 68.3441 16.4542 66.7979 13.4881C65.8607 11.5641 64.3994 9.94388 62.582 8.8138C60.7647 7.68373 58.6652 7.08975 56.5251 7.10023C53.3356 7.10023 50.9527 8.60916 49.0806 10.5102C48.4719 11.1495 47.9199 11.8405 47.4307 12.5752C48.3522 12.7733 49.1843 13.2655 49.8017 13.9776C50.4192 14.6898 50.7884 15.5833 50.8538 16.5236C51.1437 19.2452 51.6568 21.9384 52.3879 24.5759C52.919 22.873 53.5603 21.2064 54.3079 19.5868C54.6789 18.744 55.1787 17.9641 55.7893 17.2749C55.9249 17.1086 56.0925 16.9712 56.2821 16.8709C56.4717 16.7705 56.6796 16.7092 56.8933 16.6906C57.2493 16.6906 58.4651 17.0162 59.6487 21.1663C61.1166 26.3124 62.209 34.5024 66.371 38.851C68.2067 40.7691 70.7755 42.0101 74.3358 42.0101C75.7568 42.0041 77.1618 41.7097 78.4657 41.1447C79.7696 40.5797 80.9452 39.7558 81.9213 38.7231C84.9745 35.5785 86.6476 30.3794 87.2444 28.4556C88.3324 24.8852 89.0788 21.2196 89.4735 17.5081C89.7894 14.5155 87.2664 12.4329 84.7509 12.4329Z" fill="url(#paint25_radial_13250_6177)"/>
<path d="M84.7509 12.4329C84.3974 12.4326 84.0448 12.4666 83.6979 12.5345C85.3482 14.9122 86.1739 17.4031 86.1739 18.4794C86.2096 19.33 86.0143 20.1744 85.6088 20.923C85.2032 21.6716 84.6026 22.2965 83.8707 22.7313C83.1387 23.1661 81.8715 23.3764 81.4669 23.3764C81.0623 23.3764 79.7468 23.131 79.0169 22.6928V22.7931C78.8223 23.5697 78.6687 24.4197 78.4029 25.2468C77.8872 26.9004 77.2396 28.51 76.4661 30.0598C75.6726 31.5753 74.8868 32.462 73.9503 32.4155C72.8853 32.3627 72.0218 30.991 70.9486 27.1143C70.6024 25.8644 70.282 24.4939 69.985 23.1483C69.2483 19.8106 68.3441 16.4542 66.7979 13.4881C65.8607 11.5641 64.3994 9.94388 62.582 8.8138C60.7647 7.68373 58.6652 7.08975 56.5251 7.10023C53.3356 7.10023 50.9527 8.60916 49.0806 10.5102C48.4719 11.1495 47.9199 11.8405 47.4307 12.5752C48.3522 12.7733 49.1843 13.2655 49.8017 13.9776C50.4192 14.6898 50.7884 15.5833 50.8538 16.5236C51.1437 19.2452 51.6568 21.9384 52.3879 24.5759C52.919 22.873 53.5603 21.2064 54.3079 19.5868C54.6789 18.744 55.1787 17.9641 55.7893 17.2749C55.9249 17.1086 56.0925 16.9712 56.2821 16.8709C56.4717 16.7705 56.6796 16.7092 56.8933 16.6906C57.2493 16.6906 58.4651 17.0162 59.6487 21.1663C61.1166 26.3124 62.209 34.5024 66.371 38.851C68.2067 40.7691 70.7755 42.0101 74.3358 42.0101C75.7568 42.0041 77.1618 41.7097 78.4657 41.1447C79.7696 40.5797 80.9452 39.7558 81.9213 38.7231C84.9745 35.5785 86.6476 30.3794 87.2444 28.4556C88.3324 24.8852 89.0788 21.2196 89.4735 17.5081C89.7894 14.5155 87.2664 12.4329 84.7509 12.4329Z" fill="url(#paint26_radial_13250_6177)"/>
<path d="M84.7509 12.4329C84.3974 12.4326 84.0448 12.4666 83.6979 12.5345C85.3482 14.9122 86.1739 17.4031 86.1739 18.4794C86.2096 19.33 86.0143 20.1744 85.6088 20.923C85.2032 21.6716 84.6026 22.2965 83.8707 22.7313C83.1387 23.1661 81.8715 23.3764 81.4669 23.3764C81.0623 23.3764 79.7468 23.131 79.0169 22.6928V22.7931C78.8223 23.5697 78.6687 24.4197 78.4029 25.2468C77.8872 26.9004 77.2396 28.51 76.4661 30.0598C75.6726 31.5753 74.8868 32.462 73.9503 32.4155C72.8853 32.3627 72.0218 30.991 70.9486 27.1143C70.6024 25.8644 70.282 24.4939 69.985 23.1483C69.2483 19.8106 68.3441 16.4542 66.7979 13.4881C65.8607 11.5641 64.3994 9.94388 62.582 8.8138C60.7647 7.68373 58.6652 7.08975 56.5251 7.10023C53.3356 7.10023 50.9527 8.60916 49.0806 10.5102C48.4719 11.1495 47.9199 11.8405 47.4307 12.5752C48.3522 12.7733 49.1843 13.2655 49.8017 13.9776C50.4192 14.6898 50.7884 15.5833 50.8538 16.5236C51.1437 19.2452 51.6568 21.9384 52.3879 24.5759C52.919 22.873 53.5603 21.2064 54.3079 19.5868C54.6789 18.744 55.1787 17.9641 55.7893 17.2749C55.9249 17.1086 56.0925 16.9712 56.2821 16.8709C56.4717 16.7705 56.6796 16.7092 56.8933 16.6906C57.2493 16.6906 58.4651 17.0162 59.6487 21.1663C61.1166 26.3124 62.209 34.5024 66.371 38.851C68.2067 40.7691 70.7755 42.0101 74.3358 42.0101C75.7568 42.0041 77.1618 41.7097 78.4657 41.1447C79.7696 40.5797 80.9452 39.7558 81.9213 38.7231C84.9745 35.5785 86.6476 30.3794 87.2444 28.4556C88.3324 24.8852 89.0788 21.2196 89.4735 17.5081C89.7894 14.5155 87.2664 12.4329 84.7509 12.4329Z" fill="url(#paint27_radial_13250_6177)"/>
<path d="M56.3936 41.8717C47.5055 41.8717 44.4805 30.6405 43.8026 28.4555C42.7104 24.8837 41.949 21.2191 41.5281 17.5079C41.2121 14.5154 43.6143 12.4328 46.251 12.4328C47.4 12.3873 48.5222 12.7875 49.3832 13.5498C50.2441 14.3122 50.7771 15.3777 50.8711 16.5238C51.2051 19.6668 51.8397 22.7705 52.7659 25.7924C54.2642 30.5713 55.8537 32.4089 56.9983 32.4089C58.8468 32.4089 59.9746 27.6651 60.9716 23.1481C61.7062 19.8202 62.5002 16.4668 64.0679 13.4879C66.7949 8.30596 70.9162 7.1001 74.4765 7.1001C82.2835 7.1001 86.1908 16.1379 86.1908 18.4795C86.2273 19.1061 86.1364 19.7336 85.9235 20.324C85.7106 20.9145 85.3802 21.4556 84.9521 21.9147C84.5242 22.3738 84.0075 22.7413 83.4334 22.995C82.8593 23.2487 82.2398 23.3834 81.6122 23.3908C78.5841 23.3908 77.5576 21.3635 76.6936 19.5866C75.9165 17.988 75.1049 16.6588 74.0555 16.6588C73.8717 16.669 73.6919 16.7163 73.527 16.7979C73.362 16.8795 73.2152 16.9936 73.0954 17.1333C70.4873 19.7821 69.6126 33.6392 64.3976 38.9357C61.5066 41.8717 58.3609 41.8717 56.3936 41.8717Z" fill="url(#paint28_linear_13250_6177)"/>
<path d="M56.3936 41.8717C47.5055 41.8717 44.4805 30.6405 43.8026 28.4555C42.7104 24.8837 41.949 21.2191 41.5281 17.5079C41.2121 14.5154 43.6143 12.4328 46.251 12.4328C47.4 12.3873 48.5222 12.7875 49.3832 13.5498C50.2441 14.3122 50.7771 15.3777 50.8711 16.5238C51.2051 19.6668 51.8397 22.7705 52.7659 25.7924C54.2642 30.5713 55.8537 32.4089 56.9983 32.4089C58.8468 32.4089 59.9746 27.6651 60.9716 23.1481C61.7062 19.8202 62.5002 16.4668 64.0679 13.4879C66.7949 8.30596 70.9162 7.1001 74.4765 7.1001C82.2835 7.1001 86.1908 16.1379 86.1908 18.4795C86.2273 19.1061 86.1364 19.7336 85.9235 20.324C85.7106 20.9145 85.3802 21.4556 84.9521 21.9147C84.5242 22.3738 84.0075 22.7413 83.4334 22.995C82.8593 23.2487 82.2398 23.3834 81.6122 23.3908C78.5841 23.3908 77.5576 21.3635 76.6936 19.5866C75.9165 17.988 75.1049 16.6588 74.0555 16.6588C73.8717 16.669 73.6919 16.7163 73.527 16.7979C73.362 16.8795 73.2152 16.9936 73.0954 17.1333C70.4873 19.7821 69.6126 33.6392 64.3976 38.9357C61.5066 41.8717 58.3609 41.8717 56.3936 41.8717Z" fill="url(#paint29_linear_13250_6177)"/>
<path d="M56.3936 41.8717C47.5055 41.8717 44.4805 30.6405 43.8026 28.4555C42.7104 24.8837 41.949 21.2191 41.5281 17.5079C41.2121 14.5154 43.6143 12.4328 46.251 12.4328C47.4 12.3873 48.5222 12.7875 49.3832 13.5498C50.2441 14.3122 50.7771 15.3777 50.8711 16.5238C51.2051 19.6668 51.8397 22.7705 52.7659 25.7924C54.2642 30.5713 55.8537 32.4089 56.9983 32.4089C58.8468 32.4089 59.9746 27.6651 60.9716 23.1481C61.7062 19.8202 62.5002 16.4668 64.0679 13.4879C66.7949 8.30596 70.9162 7.1001 74.4765 7.1001C82.2835 7.1001 86.1908 16.1379 86.1908 18.4795C86.2273 19.1061 86.1364 19.7336 85.9235 20.324C85.7106 20.9145 85.3802 21.4556 84.9521 21.9147C84.5242 22.3738 84.0075 22.7413 83.4334 22.995C82.8593 23.2487 82.2398 23.3834 81.6122 23.3908C78.5841 23.3908 77.5576 21.3635 76.6936 19.5866C75.9165 17.988 75.1049 16.6588 74.0555 16.6588C73.8717 16.669 73.6919 16.7163 73.527 16.7979C73.362 16.8795 73.2152 16.9936 73.0954 17.1333C70.4873 19.7821 69.6126 33.6392 64.3976 38.9357C61.5066 41.8717 58.3609 41.8717 56.3936 41.8717Z" fill="url(#paint30_linear_13250_6177)"/>
<path d="M56.3936 41.8717C47.5055 41.8717 44.4805 30.6405 43.8026 28.4555C42.7104 24.8837 41.949 21.2191 41.5281 17.5079C41.2121 14.5154 43.6143 12.4328 46.251 12.4328C47.4 12.3873 48.5222 12.7875 49.3832 13.5498C50.2441 14.3122 50.7771 15.3777 50.8711 16.5238C51.2051 19.6668 51.8397 22.7705 52.7659 25.7924C54.2642 30.5713 55.8537 32.4089 56.9983 32.4089C58.8468 32.4089 59.9746 27.6651 60.9716 23.1481C61.7062 19.8202 62.5002 16.4668 64.0679 13.4879C66.7949 8.30596 70.9162 7.1001 74.4765 7.1001C82.2835 7.1001 86.1908 16.1379 86.1908 18.4795C86.2273 19.1061 86.1364 19.7336 85.9235 20.324C85.7106 20.9145 85.3802 21.4556 84.9521 21.9147C84.5242 22.3738 84.0075 22.7413 83.4334 22.995C82.8593 23.2487 82.2398 23.3834 81.6122 23.3908C78.5841 23.3908 77.5576 21.3635 76.6936 19.5866C75.9165 17.988 75.1049 16.6588 74.0555 16.6588C73.8717 16.669 73.6919 16.7163 73.527 16.7979C73.362 16.8795 73.2152 16.9936 73.0954 17.1333C70.4873 19.7821 69.6126 33.6392 64.3976 38.9357C61.5066 41.8717 58.3609 41.8717 56.3936 41.8717Z" fill="url(#paint31_radial_13250_6177)"/>
<path d="M38.2013 101.319H37.2217V92.3389H38.4107V95.7307C38.6482 95.3799 38.9707 95.0962 39.3476 94.9064C39.7245 94.7166 40.1433 94.627 40.5643 94.6461C40.9773 94.6265 41.3891 94.7076 41.7642 94.8826C42.1396 95.0573 42.4676 95.3207 42.7204 95.6503C43.174 96.2496 43.4008 97.0437 43.4008 98.0328C43.4008 99.2045 43.0918 100.102 42.4736 100.727C42.2119 100.988 41.9 101.192 41.5571 101.327C41.2143 101.462 40.8474 101.525 40.4795 101.513C40.0707 101.534 39.6632 101.448 39.2965 101.265C38.9299 101.082 38.6163 100.806 38.3857 100.466L38.2013 101.319ZM42.162 98.0002C42.162 97.1868 41.9601 96.5742 41.5563 96.1675C41.3916 96.0003 41.1944 95.8692 40.9768 95.7829C40.7592 95.6965 40.5264 95.6563 40.2926 95.6654C40.0184 95.6543 39.7454 95.7086 39.4959 95.8238C39.2464 95.939 39.0276 96.1118 38.8568 96.3282C38.5036 96.8097 38.3274 97.3997 38.3583 97.9977C38.3583 98.8345 38.561 99.4707 38.9665 99.9057C39.133 100.095 39.3391 100.245 39.5702 100.345C39.8013 100.444 40.0515 100.49 40.3025 100.481C40.5765 100.496 40.8497 100.441 41.0967 100.321C41.3439 100.201 41.5568 100.02 41.7158 99.7953C42.0132 99.3735 42.162 98.7752 42.162 98.0002Z" fill="white"/>
<path d="M49.7667 94.8345L47.5234 101.407C47.2242 102.279 46.9393 102.873 46.6684 103.19C46.5156 103.371 46.3244 103.516 46.1086 103.613C45.8929 103.711 45.6584 103.758 45.4221 103.752C45.1626 103.746 44.9049 103.708 44.6544 103.639V102.665C44.856 102.72 45.0637 102.75 45.2725 102.753C45.3859 102.759 45.4989 102.738 45.6026 102.691C45.7063 102.644 45.7972 102.573 45.8683 102.484C46.0956 102.121 46.2748 101.729 46.4017 101.319H46.0153L43.6523 94.8345H44.9385L46.7606 100.345L48.5802 94.8345H49.7667Z" fill="white"/>
<path d="M66.1164 92.3516H63.873V101.349H66.1164V92.3516Z" fill="white"/>
<path d="M84.2957 94.93C83.7149 94.6101 83.0631 94.4442 82.4013 94.4479C80.9431 94.4479 79.9311 95.4697 79.9311 96.848C79.9311 98.1862 80.9008 99.2507 82.4013 99.2507C83.0623 99.2544 83.7139 99.0902 84.2957 98.7736V101.189C83.6294 101.397 82.9365 101.505 82.2393 101.51C79.7068 101.51 77.4834 99.7528 77.4834 96.848C77.4834 94.1617 79.4974 92.1909 82.2393 92.1909C82.9372 92.1917 83.6307 92.3009 84.2957 92.5148V94.93Z" fill="white"/>
<path d="M60.7523 94.9298C60.1715 94.6102 59.5197 94.4445 58.8579 94.4478C57.3972 94.4478 56.3877 95.4696 56.3877 96.8479C56.3877 98.186 57.3549 99.2505 58.8579 99.2505C59.5179 99.2575 60.1693 99.0978 60.7523 98.786V101.201C60.086 101.409 59.3931 101.517 58.6959 101.523C56.1609 101.523 53.9375 99.7652 53.9375 96.8604C53.9375 94.1741 55.9515 92.2033 58.6959 92.2033C59.3928 92.1983 60.0865 92.3015 60.7523 92.5096V94.9298Z" fill="white"/>
<path d="M91.3883 94.4831C90.9227 94.4796 90.4666 94.6156 90.0775 94.8737C89.6886 95.1318 89.3848 95.5004 89.2043 95.9329C89.0236 96.3653 88.9747 96.842 89.0637 97.3024C89.1527 97.7629 89.3753 98.1864 89.7036 98.5191C90.0318 98.852 90.4508 99.0789 90.9075 99.1716C91.3641 99.264 91.8377 99.2178 92.2682 99.0388C92.6987 98.8598 93.0666 98.556 93.3253 98.1658C93.5841 97.7757 93.7219 97.317 93.7214 96.848C93.7269 96.5372 93.6703 96.2284 93.5551 95.9402C93.44 95.6517 93.2685 95.3896 93.0511 95.1692C92.8335 94.9485 92.5743 94.7743 92.2886 94.6565C92.0032 94.5386 91.6969 94.4796 91.3883 94.4831ZM96.1093 96.848C96.1093 99.4239 94.1352 101.51 91.3883 101.51C88.6415 101.51 86.6748 99.4239 86.6748 96.848C86.6748 94.2722 88.644 92.1909 91.3933 92.1909C94.1426 92.1909 96.1143 94.2797 96.1143 96.848" fill="white"/>
<path d="M74.6661 94.3951C74.091 94.236 73.4998 94.1443 72.9038 94.1215C72.0015 94.1215 71.508 94.4253 71.508 94.8596C71.508 95.4069 72.171 95.5977 72.5424 95.7157L73.1655 95.914C74.6287 96.3835 75.2942 97.3928 75.2942 98.4899C75.2942 100.749 73.3201 101.503 71.5952 101.503C70.7784 101.493 69.9643 101.409 69.1624 101.252V99.1803C69.8551 99.3824 70.5705 99.4946 71.2911 99.5142C72.4128 99.5142 72.9287 99.1853 72.9287 98.6757C72.9287 98.2187 72.4826 97.9551 71.9317 97.7794C71.7946 97.7317 71.5902 97.6689 71.4506 97.6212C70.2043 97.222 69.1475 96.4789 69.1475 94.9901C69.1475 93.3055 70.3938 92.1758 72.4776 92.1758C73.2181 92.1861 73.9549 92.2822 74.6736 92.462L74.6661 94.3951Z" fill="white"/>
<path d="M31.8675 60.5444H36.8799L29.5922 82.7319H23.842L18.3952 65.9889L12.9483 82.7319H7.28774L0 60.5444H5.12968L10.3007 77.4055L15.7269 60.5444H21.1737L26.6895 77.4958L31.8675 60.5444Z" fill="white"/>
<path d="M58.3777 73.4197H42.1199C42.2699 74.5638 42.696 75.6534 43.3609 76.5933C43.95 77.4156 44.7477 78.0633 45.6707 78.4683C46.6107 78.8772 47.6254 79.083 48.6492 79.0725C49.7841 79.0681 50.9093 78.8612 51.9725 78.4614C53.0748 78.0554 54.1041 77.4714 55.02 76.7322L57.4124 80.2044C56.1924 81.2759 54.7717 82.0905 53.2342 82.6002C51.6551 83.0995 50.0078 83.3456 48.3527 83.3294C46.3143 83.3699 44.3009 82.8719 42.5129 81.885C40.8217 80.9304 39.4366 79.5088 38.5208 77.7877C37.5358 75.9013 37.0423 73.7938 37.0867 71.6627C37.0445 69.5518 37.518 67.4627 38.4657 65.5794C39.3463 63.8664 40.6895 62.4389 42.3405 61.4614C44.0728 60.4572 46.0442 59.9482 48.0425 59.9891C49.9282 59.9366 51.7889 60.4327 53.4018 61.418C55.0148 62.4033 56.3115 63.8361 57.1366 65.5447C58.0476 67.4341 58.5012 69.5141 58.4604 71.6141C58.4673 72.0794 58.4397 72.6836 58.3777 73.4197ZM53.5514 69.7391C53.4032 68.2185 52.7553 66.7913 51.7105 65.6836C51.2096 65.2108 50.6194 64.8442 49.9751 64.6056C49.3308 64.367 48.6454 64.2613 47.9597 64.2947C47.238 64.2614 46.5169 64.3746 45.8394 64.6275C45.162 64.8804 44.5418 65.2679 44.016 65.7669C42.9746 66.8583 42.3098 68.2584 42.1199 69.76L53.5514 69.7391Z" fill="white"/>
<path d="M78.9444 61.4751C80.6216 62.4743 81.9969 63.9148 82.9227 65.6418C83.9126 67.4825 84.4159 69.5486 84.3843 71.6418C84.416 73.7327 83.9126 75.7966 82.9227 77.6348C81.9966 79.3698 80.6163 80.8159 78.9315 81.8162C77.2468 82.8165 75.3221 83.3326 73.3666 83.3084C71.9942 83.3374 70.6335 83.05 69.3883 82.4682C68.2471 81.9139 67.2489 81.101 66.4718 80.0932V82.732H61.6455V51.1001H66.4718V63.1834C67.2522 62.1824 68.2499 61.3747 69.3883 60.8223C70.6318 60.2348 71.9934 59.9448 73.3666 59.9751C75.3272 59.9509 77.2567 60.4698 78.9444 61.4751ZM76.3106 77.8015C77.3117 77.1816 78.1175 76.2882 78.6341 75.2251C79.1645 74.1048 79.4397 72.8794 79.4397 71.6383C79.4397 70.3972 79.1645 69.1717 78.6341 68.0515C78.1153 66.9899 77.31 66.097 76.3106 65.4751C75.2483 64.863 74.0457 64.541 72.8219 64.541C71.598 64.541 70.3954 64.863 69.3331 65.4751C68.3311 66.0879 67.5192 66.9707 66.9889 68.0237C66.4154 69.1484 66.1265 70.3984 66.1478 71.6626C66.1259 72.9247 66.4149 74.1725 66.9889 75.2945C67.5192 76.3476 68.3311 77.2303 69.3331 77.8432C70.3954 78.4552 71.598 78.7772 72.8219 78.7772C74.0457 78.7772 75.2483 78.4552 76.3106 77.8432V77.8015Z" fill="white"/>
<path d="M108.199 73.4197H91.9479C92.0979 74.5638 92.524 75.6534 93.1889 76.5933C93.778 77.4156 94.5757 78.0632 95.4987 78.4683C96.4387 78.8772 97.4533 79.083 98.4772 79.0724C99.612 79.0671 100.737 78.8602 101.8 78.4613C102.903 78.0554 103.932 77.4713 104.848 76.7322L107.234 80.2044C106.017 81.2772 104.598 82.092 103.062 82.6002C101.481 83.0991 99.8311 83.3451 98.1738 83.3294C96.1356 83.3676 94.1228 82.8697 92.334 81.8849C90.6463 80.9281 89.264 79.5069 88.3488 77.7877C87.3616 75.9018 86.8658 73.7943 86.9078 71.6627C86.8659 69.5518 87.3394 67.4628 88.2868 65.5794C89.1674 63.8664 90.5106 62.4389 92.1616 61.4613C93.9039 60.4425 95.8908 59.926 97.9049 59.9683C99.7901 59.9183 101.65 60.4155 103.262 61.4005C104.875 62.3855 106.172 63.8169 106.999 65.5238C107.91 67.4133 108.364 69.4932 108.323 71.5933C108.295 72.0794 108.247 72.6835 108.199 73.4197ZM103.372 69.7391C103.213 68.2283 102.564 66.8125 101.525 65.7113C101.027 65.2359 100.44 64.8656 99.7985 64.6223C99.1567 64.379 98.473 64.2676 97.7877 64.2947C97.0659 64.2606 96.3446 64.3734 95.667 64.6263C94.9894 64.8793 94.3694 65.2672 93.8439 65.7669C92.8002 66.8566 92.135 68.2575 91.9479 69.7599L103.372 69.7391Z" fill="white"/>
<path d="M131.124 82.7319H125.215L119.63 75.0167L114.114 82.7319H108.481L116.755 71.4055L108.612 60.5444H114.528L119.906 67.9542L125.284 60.5444H131L122.822 71.3639L131.124 82.7319Z" fill="white"/>
<defs>
<linearGradient id="paint0_linear_13250_6177" x1="81.415" y1="17.5686" x2="50.0222" y2="27.8724" gradientUnits="userSpaceOnUse">
<stop stop-color="white"/>
<stop offset="1" stop-color="#F5F5F5"/>
</linearGradient>
<radialGradient id="paint1_radial_13250_6177" cx="0" cy="0" r="1" gradientTransform="matrix(-10.5507 -17.6424 14.8162 -8.86079 59.7683 25.6392)" gradientUnits="userSpaceOnUse">
<stop stop-color="#B7B7B7"/>
<stop offset="0.4079" stop-color="#B5B5B5" stop-opacity="0.75"/>
<stop offset="0.8745" stop-color="#B6B6B6" stop-opacity="0"/>
</radialGradient>
<radialGradient id="paint2_radial_13250_6177" cx="0" cy="0" r="1" gradientTransform="matrix(-10.033 -13.4326 8.82788 -6.59386 73.2879 21.8203)" gradientUnits="userSpaceOnUse">
<stop stop-color="#CACACA"/>
<stop offset="0.4595" stop-color="#C7C7C7"/>
<stop offset="1" stop-color="#ACACAC" stop-opacity="0"/>
</radialGradient>
<radialGradient id="paint3_radial_13250_6177" cx="0" cy="0" r="1" gradientTransform="matrix(-4.10107 -13.0214 6.78829 -2.13802 58.5942 26.6088)" gradientUnits="userSpaceOnUse">
<stop stop-color="#CDCDCD"/>
<stop offset="0.4079" stop-color="#C8C8C8" stop-opacity="0.79"/>
<stop offset="0.8745" stop-color="#B6B6B6" stop-opacity="0"/>
</radialGradient>
<radialGradient id="paint4_radial_13250_6177" cx="0" cy="0" r="1" gradientTransform="matrix(-15.0879 -32.9629 10.1718 -4.65598 61.9547 29.737)" gradientUnits="userSpaceOnUse">
<stop stop-color="#A2A2A2" stop-opacity="0.78"/>
<stop offset="1" stop-color="#A2A2A2" stop-opacity="0"/>
</radialGradient>
<radialGradient id="paint5_radial_13250_6177" cx="0" cy="0" r="1" gradientTransform="matrix(2.9185 16.9186 -9.60374 1.65672 69.0457 18.2822)" gradientUnits="userSpaceOnUse">
<stop stop-color="#AEAEAE"/>
<stop offset="0.2326" stop-color="#AEAEAE" stop-opacity="0.75"/>
<stop offset="0.5989" stop-color="#AEAEAE" stop-opacity="0.3008"/>
<stop offset="0.8745" stop-color="#AEAEAE" stop-opacity="0"/>
</radialGradient>
<radialGradient id="paint6_radial_13250_6177" cx="0" cy="0" r="1" gradientTransform="matrix(8.34853 12.8831 -6.75936 4.38034 71.4225 1.09023)" gradientUnits="userSpaceOnUse">
<stop stop-color="#E1E1E1"/>
<stop offset="0.4079" stop-color="#E7E7E7"/>
<stop offset="1" stop-color="#E7E7E7" stop-opacity="0.07"/>
</radialGradient>
<linearGradient id="paint7_linear_13250_6177" x1="29.6898" y1="24.1917" x2="51.9408" y2="24.3748" gradientUnits="userSpaceOnUse">
<stop stop-color="#FAFAFA"/>
<stop offset="1" stop-color="#F8F8F8" stop-opacity="0"/>
</linearGradient>
<radialGradient id="paint8_radial_13250_6177" cx="0" cy="0" r="1" gradientTransform="matrix(27.22 30.2186 -30.1732 27.1799 50.5432 -5.93071)" gradientUnits="userSpaceOnUse">
<stop stop-color="#F5F5F5"/>
<stop offset="0.7454" stop-color="#F4F4F4" stop-opacity="0"/>
</radialGradient>
<radialGradient id="paint9_radial_13250_6177" cx="0" cy="0" r="1" gradientTransform="matrix(-5.88727 -18.6928 12.9607 -4.08207 52.6859 24.5554)" gradientUnits="userSpaceOnUse">
<stop stop-color="#F5F5F5" stop-opacity="0.76"/>
<stop offset="0.5727" stop-color="#F4F4F4" stop-opacity="0"/>
</radialGradient>
<radialGradient id="paint10_radial_13250_6177" cx="0" cy="0" r="1" gradientTransform="matrix(-8.8311 -10.685 7.48161 -6.1837 82.5085 17.108)" gradientUnits="userSpaceOnUse">
<stop stop-color="white"/>
<stop offset="1" stop-color="#F4F4F4" stop-opacity="0"/>
</radialGradient>
<radialGradient id="paint11_radial_13250_6177" cx="0" cy="0" r="1" gradientTransform="matrix(0.794351 -4.11953 2.85144 0.549847 80.5266 26.0442)" gradientUnits="userSpaceOnUse">
<stop stop-color="#CDCDCD"/>
<stop offset="1" stop-color="#BCBCBC" stop-opacity="0"/>
</radialGradient>
<radialGradient id="paint12_radial_13250_6177" cx="0" cy="0" r="1" gradientTransform="matrix(59.5565 -277.1 301.472 64.7966 -86619.2 28580.5)" gradientUnits="userSpaceOnUse">
<stop stop-color="#CDCDCD"/>
<stop offset="1" stop-color="#BCBCBC" stop-opacity="0"/>
</radialGradient>
<radialGradient id="paint13_radial_13250_6177" cx="0" cy="0" r="1" gradientTransform="matrix(-7.80007 -8.4193 5.91497 -5.48008 84.4413 19.5113)" gradientUnits="userSpaceOnUse">
<stop stop-color="white"/>
<stop offset="0.8133" stop-color="white" stop-opacity="0"/>
</radialGradient>
<linearGradient id="paint14_linear_13250_6177" x1="60.3183" y1="52.1011" x2="54.3181" y2="35.4644" gradientUnits="userSpaceOnUse">
<stop offset="0.2293" stop-color="white"/>
<stop offset="1" stop-color="white" stop-opacity="0"/>
</linearGradient>
<radialGradient id="paint15_radial_13250_6177" cx="0" cy="0" r="1" gradientTransform="matrix(8.10611 6.20505 -8.62292 11.2651 80.8543 22.7901)" gradientUnits="userSpaceOnUse">
<stop stop-color="#D2D2D2"/>
<stop offset="0.9661" stop-color="#D2D2D2" stop-opacity="0"/>
</radialGradient>
<radialGradient id="paint16_radial_13250_6177" cx="0" cy="0" r="1" gradientTransform="matrix(11.9168 1.77653 -2.64958 17.7736 78.314 23.9514)" gradientUnits="userSpaceOnUse">
<stop stop-color="#D2D2D2"/>
<stop offset="0.5925" stop-color="#D2D2D2" stop-opacity="0"/>
</radialGradient>
<radialGradient id="paint17_radial_13250_6177" cx="0" cy="0" r="1" gradientTransform="matrix(9.35324 4.29118 -7.64219 16.6577 79.2899 25.4465)" gradientUnits="userSpaceOnUse">
<stop stop-color="#D2D2D2"/>
<stop offset="0.7568" stop-color="#D2D2D2" stop-opacity="0"/>
</radialGradient>
<radialGradient id="paint18_radial_13250_6177" cx="0" cy="0" r="1" gradientTransform="matrix(16.9092 -17.455 14.0279 13.5897 78.8649 21.8277)" gradientUnits="userSpaceOnUse">
<stop offset="0.0648007" stop-color="#4F4F4F"/>
<stop offset="0.519024" stop-color="#D5D5D5" stop-opacity="0"/>
</radialGradient>
<radialGradient id="paint19_radial_13250_6177" cx="0" cy="0" r="1" gradientTransform="matrix(-1.87066 18.392 -10.0871 -1.02599 78.0878 26.0505)" gradientUnits="userSpaceOnUse">
<stop stop-color="#D2D2D2"/>
<stop offset="0.5925" stop-color="#D2D2D2" stop-opacity="0"/>
<stop offset="1" stop-color="#D2D2D2" stop-opacity="0"/>
</radialGradient>
<radialGradient id="paint20_radial_13250_6177" cx="0" cy="0" r="1" gradientTransform="matrix(-1.42412 22.2026 -7.93003 -0.508664 80.8488 17.8997)" gradientUnits="userSpaceOnUse">
<stop stop-color="#D2D2D2"/>
<stop offset="0.8846" stop-color="#D2D2D2" stop-opacity="0"/>
</radialGradient>
<radialGradient id="paint21_radial_13250_6177" cx="0" cy="0" r="1" gradientTransform="matrix(7.36369 -18.2731 7.27703 2.93258 46.6828 27.0097)" gradientUnits="userSpaceOnUse">
<stop stop-color="#B3B3B3"/>
<stop offset="1" stop-color="#B0B0B0" stop-opacity="0"/>
</radialGradient>
<radialGradient id="paint22_radial_13250_6177" cx="0" cy="0" r="1" gradientTransform="matrix(11.8272 -4.82594 9.42746 23.1051 59.2283 33.828)" gradientUnits="userSpaceOnUse">
<stop stop-color="#F7F7F7"/>
<stop offset="0.709" stop-color="#F9F9F9" stop-opacity="0"/>
</radialGradient>
<radialGradient id="paint23_radial_13250_6177" cx="0" cy="0" r="1" gradientTransform="matrix(11.8272 -4.82594 9.42746 23.1051 59.2283 33.828)" gradientUnits="userSpaceOnUse">
<stop stop-color="#F7F7F7"/>
<stop offset="0.709" stop-color="#F9F9F9" stop-opacity="0"/>
</radialGradient>
<radialGradient id="paint24_radial_13250_6177" cx="0" cy="0" r="1" gradientTransform="matrix(15.0001 6.81835 -6.8782 15.1322 50.501 18.8276)" gradientUnits="userSpaceOnUse">
<stop stop-color="#ADADAD"/>
<stop offset="0.7614" stop-color="#D2D2D2" stop-opacity="0"/>
</radialGradient>
<radialGradient id="paint25_radial_13250_6177" cx="0" cy="0" r="1" gradientTransform="matrix(6.27277 -0.272733 0.395512 9.09692 55.1374 17.4639)" gradientUnits="userSpaceOnUse">
<stop stop-color="#ADADAD"/>
<stop offset="0.7614" stop-color="#D2D2D2" stop-opacity="0"/>
</radialGradient>
<radialGradient id="paint26_radial_13250_6177" cx="0" cy="0" r="1" gradientTransform="matrix(5.72731 -1.6364 3.43433 12.0203 57.0465 23.4641)" gradientUnits="userSpaceOnUse">
<stop stop-color="#B1B1B1"/>
<stop offset="1" stop-color="#D2D2D2" stop-opacity="0"/>
</radialGradient>
<radialGradient id="paint27_radial_13250_6177" cx="0" cy="0" r="1" gradientTransform="matrix(6.27279 -7.90927 7.4326 5.89491 48.8646 19.1004)" gradientUnits="userSpaceOnUse">
<stop stop-color="#807F7F"/>
<stop offset="1" stop-color="#D2D2D2" stop-opacity="0"/>
</radialGradient>
<linearGradient id="paint28_linear_13250_6177" x1="42.3449" y1="9.72908" x2="59.4599" y2="20.6618" gradientUnits="userSpaceOnUse">
<stop offset="0.2293" stop-color="white"/>
<stop offset="1" stop-color="white" stop-opacity="0"/>
</linearGradient>
<linearGradient id="paint29_linear_13250_6177" x1="46.1364" y1="51.5556" x2="54.3185" y2="35.4644" gradientUnits="userSpaceOnUse">
<stop offset="0.2293" stop-color="white"/>
<stop offset="1" stop-color="white" stop-opacity="0"/>
</linearGradient>
<linearGradient id="paint30_linear_13250_6177" x1="46.7684" y1="7.51563" x2="51.5679" y2="11.8702" gradientUnits="userSpaceOnUse">
<stop stop-color="white"/>
<stop offset="0.6373" stop-color="#F8F8F8" stop-opacity="0"/>
</linearGradient>
<radialGradient id="paint31_radial_13250_6177" cx="0" cy="0" r="1" gradientTransform="matrix(-8.18186 0.545454 -1.64911 -24.7375 50.7728 18.8276)" gradientUnits="userSpaceOnUse">
<stop stop-color="#D1D1D1"/>
<stop offset="0.580386" stop-color="#D1D1D1" stop-opacity="0"/>
</radialGradient>
</defs>
</svg>
