<svg width="131" height="83" viewBox="0 0 131 83" fill="none" xmlns="http://www.w3.org/2000/svg">
<g clip-path="url(#clip0_13250_6185)">
<path d="M45.4049 12.346C43.0987 12.5206 41.1982 14.9642 41.5399 17.4733C41.6467 18.3897 41.8816 19.8078 42.1805 21.3569C42.3086 22.0551 42.4581 22.7969 42.6076 23.5169C42.9803 25.2573 43.4437 26.9761 43.9956 28.666C44.5882 30.5408 45.3089 32.3707 46.1523 34.1424C49.3767 40.557 53.7329 41.9097 56.8291 41.9097C58.2833 41.9225 59.7233 41.6176 61.0528 41.0156C62.3822 40.4135 63.5704 39.5281 64.5378 38.4188C63.9976 37.7138 63.5189 36.9618 63.1071 36.1715C61.7405 33.597 60.865 30.6297 60.1176 27.5315C59.7749 28.7661 59.3173 29.9643 58.751 31.1097C57.8541 32.8115 57.2349 32.8115 56.8291 32.8115C55.9536 32.8115 55.0354 31.8515 54.0959 29.9969C53.6117 28.9824 53.184 27.9407 52.8146 26.8769C52.5584 26.1133 52.3022 25.3279 52.0886 24.5642C51.8751 23.8006 51.4907 22.4478 51.3199 21.5969C50.8715 19.5242 50.3376 16.1206 50.3163 16.0115C50.1241 15.0297 48.9923 12.0406 45.4049 12.346Z" fill="white"/>
<path d="M82.8382 21.5094C85.1231 20.6149 86.084 17.7785 85.059 15.4876L84.9736 15.2694C84.5602 14.3368 84.0747 13.4394 83.5216 12.5858C83.2574 12.1393 82.9574 11.716 82.6247 11.3203C79.6992 7.65485 76.2613 7.00031 74.1686 7.00031C72.7147 6.98894 71.2751 7.29443 69.9459 7.89639C68.6166 8.49835 67.4282 9.38296 66.46 10.4912C66.9668 11.1483 67.4169 11.8491 67.8052 12.5858C69.2359 15.2258 70.1328 18.8476 70.8802 21.924C71.2859 20.5276 71.7557 18.7385 72.2895 17.7349C73.165 16.0985 73.7629 16.0985 74.1686 16.0985C75.3858 16.0985 76.3681 17.9312 76.8378 19.0003C76.8378 19.0003 78.5248 23.233 82.8382 21.5094Z" fill="white"/>
<path d="M85.6352 12.346L85.2295 12.3023H85.1227C85.568 13.0621 85.9674 13.849 86.3185 14.6587L86.4253 14.8769C87.0688 16.3444 87.1179 18.0125 86.5618 19.5168C86.0056 21.0212 84.8895 22.2396 83.4571 22.906C82.6842 23.2592 81.8481 23.4449 81.0015 23.4514C80.4233 23.4408 79.849 23.3527 79.2932 23.1896C78.6953 25.4805 77.7557 28.2951 76.9016 29.9969C76.0474 31.6987 75.0438 32.8114 74.1469 32.8114C73.7626 32.8114 73.1433 32.8114 72.2465 31.1096C71.6801 29.9642 71.2225 28.766 70.8798 27.5314C70.6022 26.5714 70.346 25.546 70.0897 24.4769C69.983 24.0841 69.8976 23.6914 69.8121 23.2987C69.0007 19.8514 68.0825 16.2296 66.5023 13.3278C66.1999 12.7695 65.8647 12.2303 65.4987 11.7132C65.1995 11.2891 64.8788 10.8813 64.5378 10.4914C63.5671 9.38037 62.3753 8.49412 61.0421 7.89206C59.709 7.28999 58.2653 6.98602 56.8077 7.00049C54.7364 7.00049 51.2985 7.65504 48.373 11.3205C49.2957 11.7446 50.0974 12.4019 50.7026 13.2302C51.3078 14.0585 51.6966 15.0307 51.8323 16.055C51.9818 17.146 52.3448 19.2623 52.7719 21.2696C52.8146 21.4878 52.8573 21.706 52.9214 21.946C53.2417 21.0951 53.562 20.3751 53.9036 19.5678L54.1599 19.0005C54.6297 17.9314 55.6119 16.0987 56.8077 16.0987C57.2348 16.0987 57.8327 16.0987 58.7082 17.7351C59.2981 18.905 59.7703 20.1331 60.1176 21.4005C60.3952 22.3823 60.6728 23.4296 60.9077 24.4769C60.9931 24.7823 61.0571 25.0878 61.1212 25.3932C61.9753 29.0369 62.8722 32.5496 64.4097 35.4514C64.7279 36.0681 65.092 36.6589 65.4987 37.2187C65.7978 37.6359 66.1186 38.0365 66.4596 38.4187C69.0007 41.2333 71.9262 41.9096 74.1469 41.9096C77.2432 41.9096 81.6207 40.5569 84.8451 34.1423C86.4894 30.8478 87.8774 25.9823 88.3898 23.5169C88.9023 21.0514 89.2867 18.826 89.4575 17.4732C89.5386 16.8798 89.5039 16.2758 89.3553 15.6961C89.2067 15.1164 88.9473 14.5725 88.5919 14.0959C88.2366 13.6192 87.7923 13.2191 87.2849 12.9188C86.7774 12.6184 86.2167 12.4237 85.6352 12.346Z" fill="white"/>
<path d="M31.8675 60.2559H36.8799L29.5922 82.0001H23.842L18.3952 65.5915L12.9483 82.0001H7.28774L0 60.2559H5.12968L10.3007 76.7801L15.7269 60.2559H21.1737L26.6895 76.8686L31.8675 60.2559Z" fill="white"/>
<path d="M58.3777 72.8735H42.1199C42.2699 73.9947 42.696 75.0626 43.3609 75.9837C43.95 76.7896 44.7477 77.4243 45.6707 77.8212C46.6107 78.222 47.6254 78.4237 48.6492 78.4133C49.7841 78.4091 50.9093 78.2063 51.9725 77.8144C53.0748 77.4166 54.1041 76.8442 55.02 76.1198L57.4124 79.5226C56.1924 80.5727 54.7717 81.371 53.2342 81.8706C51.6551 82.3599 50.0078 82.601 48.3527 82.5852C46.3143 82.6249 44.3009 82.1368 42.5129 81.1696C40.8217 80.2341 39.4366 78.8409 38.5208 77.1543C37.5358 75.3055 37.0423 73.2401 37.0867 71.1516C37.0445 69.0828 37.518 67.0355 38.4657 65.1898C39.3463 63.511 40.6895 62.112 42.3405 61.154C44.0728 60.17 46.0442 59.6711 48.0425 59.7112C49.9282 59.6597 51.7889 60.1459 53.4018 61.1115C55.0148 62.0772 56.3115 63.4813 57.1366 65.1558C58.0476 67.0075 58.5012 69.0459 58.4604 71.104C58.4673 71.56 58.4397 72.1521 58.3777 72.8735ZM53.5514 69.2664C53.4032 67.7762 52.7553 66.3775 51.7105 65.2919C51.2096 64.8285 50.6194 64.4693 49.9751 64.2354C49.3308 64.0016 48.6454 63.898 47.9597 63.9308C47.238 63.8982 46.5169 64.0091 45.8394 64.2569C45.162 64.5048 44.5418 64.8845 44.016 65.3736C42.9746 66.4432 42.3098 67.8153 42.1199 69.2869L53.5514 69.2664Z" fill="white"/>
<path d="M78.9444 61.1677C80.6216 62.147 81.9969 63.5586 82.9227 65.2512C83.9126 67.0551 84.4159 69.08 84.3843 71.1313C84.416 73.1805 83.9126 75.2031 82.9227 77.0046C81.9966 78.7049 80.6163 80.1222 78.9315 81.1025C77.2468 82.0827 75.3221 82.5885 73.3666 82.5649C71.9942 82.5933 70.6335 82.3116 69.3883 81.7414C68.2471 81.1982 67.2489 80.4015 66.4718 79.4138V82H61.6455V51H66.4718V62.8419C67.2522 61.8609 68.2499 61.0693 69.3883 60.528C70.6318 59.9522 71.9934 59.668 73.3666 59.6977C75.3272 59.674 77.2567 60.1825 78.9444 61.1677ZM76.3106 77.1679C77.3117 76.5605 78.1175 75.6849 78.6341 74.643C79.1645 73.5452 79.4397 72.3442 79.4397 71.1279C79.4397 69.9116 79.1645 68.7106 78.6341 67.6127C78.1153 66.5724 77.31 65.6973 76.3106 65.0878C75.2483 64.4879 74.0457 64.1724 72.8219 64.1724C71.598 64.1724 70.3954 64.4879 69.3331 65.0878C68.3311 65.6884 67.5192 66.5535 66.9889 67.5855C66.4154 68.6878 66.1265 69.9128 66.1478 71.1517C66.1259 72.3885 66.4149 73.6114 66.9889 74.7111C67.5192 75.7431 68.3311 76.6082 69.3331 77.2088C70.3954 77.8086 71.598 78.1242 72.8219 78.1242C74.0457 78.1242 75.2483 77.8086 76.3106 77.2088V77.1679Z" fill="white"/>
<path d="M108.199 72.8735H91.9479C92.0979 73.9948 92.524 75.0626 93.1889 75.9837C93.778 76.7896 94.5757 77.4243 95.4987 77.8213C96.4387 78.222 97.4533 78.4237 98.4772 78.4134C99.612 78.4081 100.737 78.2054 101.8 77.8145C102.903 77.4166 103.932 76.8442 104.848 76.1198L107.234 79.5227C106.017 80.5741 104.598 81.3726 103.062 81.8707C101.481 82.3595 99.8311 82.6007 98.1738 82.5853C96.1356 82.6227 94.1228 82.1348 92.334 81.1697C90.6463 80.2319 89.264 78.8392 88.3488 77.1543C87.3616 75.306 86.8658 73.2407 86.9078 71.1517C86.8659 69.0829 87.3394 67.0357 88.2868 65.1899C89.1674 63.5111 90.5106 62.1121 92.1616 61.1541C93.9039 60.1556 95.8908 59.6494 97.9049 59.6909C99.7901 59.6419 101.65 60.1291 103.262 61.0945C104.875 62.0598 106.172 63.4626 106.999 65.1354C107.91 66.9871 108.364 69.0255 108.323 71.0836C108.295 71.56 108.247 72.1521 108.199 72.8735ZM103.372 69.2665C103.213 67.7859 102.564 66.3984 101.525 65.3192C101.027 64.8532 100.44 64.4904 99.7985 64.2519C99.1567 64.0135 98.473 63.9043 97.7877 63.9308C97.0659 63.8974 96.3446 64.008 95.667 64.2559C94.9894 64.5038 94.3694 64.8839 93.8439 65.3736C92.8002 66.4416 92.135 67.8145 91.9479 69.2869L103.372 69.2665Z" fill="white"/>
<path d="M131.124 82.0001H125.215L119.63 74.439L114.114 82.0001H108.481L116.755 70.9L108.612 60.2559H114.528L119.906 67.5175L125.284 60.2559H131L122.822 70.8592L131.124 82.0001Z" fill="white"/>
</g>
<defs>
<clipPath id="clip0_13250_6185">
<rect width="131" height="83" fill="white"/>
</clipPath>
</defs>
</svg>
