<svg width="200" height="28" viewBox="0 0 200 28" fill="none" xmlns="http://www.w3.org/2000/svg">
<path fill-rule="evenodd" clip-rule="evenodd" d="M50.1753 7.57681C51.2395 8.20836 52.112 9.11734 52.6993 10.2065C53.309 11.3753 53.6273 12.6741 53.6273 13.9924C53.6273 15.3107 53.309 16.6095 52.6993 17.7783C52.1098 18.8718 51.2324 19.7835 50.1624 20.4146C49.0922 21.0458 47.87 21.3723 46.6276 21.3592C45.7567 21.3761 44.8935 21.1937 44.1036 20.826C43.3788 20.4742 42.7438 19.9617 42.2469 19.3274V20.9932H39.1929V1.03027H42.2469V8.65738C42.7434 8.02309 43.3786 7.51098 44.1036 7.16035C44.893 6.79135 45.7565 6.60841 46.6276 6.62559C47.8751 6.61141 49.1023 6.94048 50.1753 7.57681ZM48.5032 17.8793C49.1378 17.4885 49.6491 16.9263 49.9782 16.2577C50.3157 15.5502 50.4908 14.7763 50.4908 13.9924C50.4908 13.2086 50.3157 12.4346 49.9782 11.7272C49.6491 11.058 49.1378 10.4954 48.5032 10.1039C47.8298 9.71367 47.0657 9.50696 46.2872 9.50448C45.5089 9.50199 44.7435 9.7038 44.0673 10.0897C43.431 10.4769 42.9148 11.0335 42.5766 11.6972C42.2261 12.4112 42.0438 13.1961 42.0438 13.9916C42.0438 14.7871 42.2261 15.572 42.5766 16.2861C42.9148 16.9498 43.431 17.5064 44.0673 17.8935C44.7435 18.2795 45.5089 18.4813 46.2872 18.4787C47.0657 18.4762 47.8298 18.2696 48.5032 17.8793Z" fill="black"/>
<path fill-rule="evenodd" clip-rule="evenodd" d="M26.7719 15.117H37.1107C37.1454 14.6501 37.1627 14.2699 37.1627 13.9765C37.1887 12.6519 36.9005 11.3399 36.3219 10.148C35.8042 9.08245 34.9973 8.18385 33.9936 7.5546C32.9572 6.92558 31.7636 6.60341 30.5515 6.62546C29.2804 6.60097 28.0263 6.92209 26.9233 7.5546C25.8732 8.17141 25.0193 9.07339 24.4609 10.1559C23.8548 11.3423 23.5513 12.6602 23.5775 13.9923C23.5775 15.4541 23.8819 16.7424 24.4908 17.8571C25.0683 18.9426 25.944 19.8402 27.0148 20.4442C28.1528 21.0676 29.434 21.3825 30.7313 21.3576C31.7845 21.368 32.8327 21.2126 33.8374 20.8969C34.8137 20.5751 35.7154 20.0607 36.4891 19.3841L34.97 17.2072C34.3876 17.6727 33.7334 18.0403 33.0329 18.2957C32.3577 18.5481 31.6431 18.679 30.9222 18.6821C30.2718 18.6888 29.6271 18.5597 29.0292 18.3036C28.4437 18.0455 27.9368 17.6367 27.5606 17.1189C27.1383 16.526 26.8675 15.8387 26.7719 15.117ZM32.8578 10.2505C33.4773 10.8542 33.8696 11.7018 34.0346 12.7934L26.7798 12.7966C26.9555 11.7323 27.3571 10.891 27.9849 10.2726C28.6128 9.65422 29.4484 9.34504 30.4916 9.34504C31.4497 9.34504 32.2385 9.64686 32.8578 10.2505Z" fill="black"/>
<path d="M20.2548 6.99157H23.4413L18.8114 20.9917H15.1548L11.6844 10.4226L8.22182 20.9917H4.63305L0 6.99157H3.25907L6.54653 17.6301L9.99648 6.99157H13.459L16.9532 17.6901L20.2548 6.99157Z" fill="black"/>
<path fill-rule="evenodd" clip-rule="evenodd" d="M58.4392 15.117H68.7717C68.8107 14.6501 68.8316 14.2699 68.8348 13.9765C68.8607 12.6519 68.5726 11.3399 67.994 10.148C67.4736 9.08123 66.6634 8.1825 65.6562 7.55462C64.6199 6.9252 63.4262 6.60298 62.2141 6.62548C60.9428 6.60082 59.6889 6.92197 58.5859 7.55462C57.5353 8.17103 56.6814 9.07309 56.1235 10.1559C55.5168 11.3422 55.2128 12.6601 55.2385 13.9923C55.2385 15.4541 55.543 16.7424 56.1519 17.8571C56.7328 18.9442 57.6131 19.8419 58.6885 20.4442C59.8249 21.0673 61.1045 21.3822 62.4003 21.3576C63.4529 21.368 64.5005 21.2126 65.5047 20.8969C66.482 20.5753 67.3848 20.0609 68.1596 19.3841L66.6389 17.2072C66.0573 17.673 65.4035 18.0406 64.7034 18.2957C64.0276 18.5482 63.3125 18.6791 62.5911 18.6821C61.9407 18.6888 61.296 18.5599 60.6982 18.3036C60.1121 18.0453 59.6048 17.6366 59.228 17.1189C58.8055 16.526 58.5348 15.8387 58.4392 15.117ZM64.5267 10.2505C65.144 10.8542 65.5363 11.7018 65.7035 12.7934L58.4392 12.7966C58.6138 11.7323 59.0155 10.891 59.6444 10.2726C60.2733 9.65424 61.1088 9.34505 62.151 9.34505C63.1175 9.34505 63.9094 9.64687 64.5267 10.2505Z" fill="black"/>
<path d="M79.587 20.9917H83.3429L78.0663 13.8157L83.2404 6.99157H79.6296L76.2112 11.6688L72.7912 6.99157H69.0352L74.2235 13.8457L68.9469 20.9917H72.5278L76.0345 16.1252L79.587 20.9917Z" fill="black"/>
<path d="M193.475 10.5003H195.451V12.1682H195.56C195.752 11.6031 196.089 11.1588 196.572 10.8352C197.06 10.5071 197.611 10.343 198.226 10.343C198.354 10.343 198.504 10.3476 198.677 10.3567C198.855 10.3658 198.994 10.3772 199.094 10.3909V12.346C199.012 12.3232 198.867 12.2981 198.657 12.2708C198.447 12.2389 198.238 12.2229 198.028 12.2229C197.545 12.2229 197.114 12.3255 196.736 12.5305C196.362 12.7311 196.066 13.0113 195.847 13.3714C195.629 13.7268 195.519 14.1324 195.519 14.5882V21.0003H193.475V10.5003Z" fill="black"/>
<path fill-rule="evenodd" clip-rule="evenodd" d="M184.572 20.5354C185.306 20.9866 186.165 21.2122 187.149 21.2122C188.134 21.2122 188.993 20.9866 189.726 20.5354C190.46 20.0843 191.03 19.4531 191.435 18.6419C191.841 17.8307 192.044 16.8828 192.044 15.7981C192.044 14.7089 191.841 13.7565 191.435 12.9407C191.03 12.1249 190.46 11.4915 189.726 11.0403C188.993 10.5891 188.134 10.3636 187.149 10.3636C186.165 10.3636 185.306 10.5891 184.572 11.0403C183.838 11.4915 183.269 12.1249 182.863 12.9407C182.457 13.7565 182.255 14.7089 182.255 15.7981C182.255 16.8828 182.457 17.8307 182.863 18.6419C183.269 19.4531 183.838 20.0843 184.572 20.5354ZM188.742 18.9905C188.323 19.3277 187.794 19.4964 187.156 19.4964C186.513 19.4964 185.98 19.3277 185.556 18.9905C185.137 18.6533 184.825 18.2044 184.62 17.6438C184.419 17.0833 184.319 16.4658 184.319 15.7913C184.319 15.1214 184.419 14.5061 184.62 13.9456C184.825 13.3805 185.137 12.927 185.556 12.5852C185.98 12.2434 186.513 12.0725 187.156 12.0725C187.794 12.0725 188.323 12.2434 188.742 12.5852C189.161 12.927 189.471 13.3805 189.672 13.9456C189.877 14.5061 189.979 15.1214 189.979 15.7913C189.979 16.4658 189.877 17.0833 189.672 17.6438C189.471 18.2044 189.161 18.6533 188.742 18.9905Z" fill="black"/>
<path fill-rule="evenodd" clip-rule="evenodd" d="M175.457 21.2054C174.609 21.2054 173.853 20.9889 173.188 20.5559C172.527 20.1184 172.007 19.4964 171.629 18.6897C171.255 17.8785 171.068 16.9055 171.068 15.7708C171.068 14.636 171.257 13.6653 171.636 12.8587C172.019 12.052 172.543 11.4345 173.208 11.0061C173.873 10.5777 174.628 10.3636 175.471 10.3636C176.122 10.3636 176.646 10.4729 177.043 10.6917C177.444 10.9059 177.754 11.1565 177.973 11.4436C178.196 11.7307 178.369 11.9837 178.492 12.2024H178.615V7.00027H180.659V21.0003H178.663V19.3665H178.492C178.369 19.5898 178.191 19.845 177.959 20.1321C177.731 20.4192 177.417 20.6699 177.016 20.8841C176.615 21.0983 176.095 21.2054 175.457 21.2054ZM175.908 19.4622C176.496 19.4622 176.993 19.3072 177.398 18.9973C177.809 18.6829 178.118 18.2477 178.328 17.6917C178.542 17.1357 178.649 16.4886 178.649 15.7503C178.649 15.0211 178.545 14.3831 178.335 13.8362C178.125 13.2893 177.818 12.8632 177.412 12.5579C177.007 12.2526 176.505 12.0999 175.908 12.0999C175.293 12.0999 174.78 12.2594 174.37 12.5784C173.96 12.8974 173.65 13.3326 173.44 13.8841C173.235 14.4355 173.133 15.0576 173.133 15.7503C173.133 16.4521 173.238 17.0833 173.447 17.6438C173.657 18.2044 173.967 18.6487 174.377 18.9768C174.792 19.3004 175.302 19.4622 175.908 19.4622Z" fill="black"/>
<path fill-rule="evenodd" clip-rule="evenodd" d="M162.667 20.8636C163.205 21.1096 163.807 21.2327 164.472 21.2327C165.051 21.2327 165.548 21.1484 165.962 20.9798C166.377 20.8111 166.717 20.5992 166.981 20.344C167.245 20.0888 167.444 19.8291 167.576 19.5647H167.658V21.0003H169.654V14.0276C169.654 13.262 169.522 12.6399 169.257 12.1614C168.993 11.6783 168.653 11.3069 168.239 11.0471C167.829 10.7874 167.387 10.6096 166.913 10.5139C166.443 10.4137 165.999 10.3636 165.58 10.3636C164.946 10.3636 164.342 10.4547 163.768 10.637C163.194 10.8147 162.686 11.1018 162.244 11.4983C161.806 11.8902 161.473 12.4052 161.246 13.0432L163.167 13.4807C163.317 13.1116 163.588 12.7766 163.98 12.4759C164.376 12.1705 164.919 12.0179 165.607 12.0179C166.268 12.0179 166.764 12.1819 167.097 12.51C167.434 12.8382 167.603 13.3007 167.603 13.8977V13.9456C167.603 14.1917 167.514 14.3694 167.336 14.4788C167.159 14.5882 166.874 14.6679 166.482 14.718L164.951 14.8958C164.454 14.955 163.966 15.0416 163.488 15.1555C163.009 15.2695 162.576 15.4381 162.189 15.6614C161.802 15.8847 161.494 16.1878 161.266 16.5706C161.038 16.9534 160.924 17.441 160.924 18.0335C160.924 18.7216 161.079 19.3027 161.389 19.7766C161.704 20.2506 162.13 20.6129 162.667 20.8636ZM166.366 19.2571C165.965 19.4804 165.482 19.5921 164.917 19.5921C164.338 19.5921 163.861 19.4645 163.488 19.2093C163.114 18.9495 162.927 18.5667 162.927 18.0608C162.927 17.6962 163.023 17.4046 163.214 17.1858C163.41 16.9625 163.67 16.7916 163.994 16.6731C164.322 16.5546 164.684 16.4703 165.081 16.4202C165.249 16.3974 165.459 16.3701 165.709 16.3382C165.96 16.3017 166.218 16.263 166.482 16.222C166.746 16.1764 166.981 16.124 167.186 16.0647C167.396 16.0009 167.537 15.9326 167.61 15.8596V17.2132C167.61 17.6279 167.503 18.0175 167.289 18.3821C167.079 18.7421 166.771 19.0338 166.366 19.2571Z" fill="black"/>
<path d="M159.814 13.0638L157.962 13.3919C157.884 13.1549 157.761 12.9293 157.593 12.7151C157.428 12.5009 157.205 12.3255 156.923 12.1888C156.64 12.052 156.287 11.9837 155.863 11.9837C155.284 11.9837 154.801 12.1136 154.414 12.3733C154.026 12.6285 153.833 12.9589 153.833 13.3645C153.833 13.7154 153.963 13.998 154.222 14.2122C154.482 14.4264 154.901 14.6018 155.48 14.7386L157.148 15.1214C158.114 15.3447 158.834 15.6888 159.308 16.1536C159.782 16.6184 160.019 17.2223 160.019 17.9651C160.019 18.594 159.837 19.1546 159.472 19.6468C159.112 20.1344 158.609 20.5172 157.962 20.7952C157.319 21.0732 156.574 21.2122 155.726 21.2122C154.551 21.2122 153.591 20.9615 152.848 20.4602C152.106 19.9544 151.65 19.2366 151.481 18.3069L153.457 18.0061C153.58 18.5211 153.833 18.9108 154.216 19.1751C154.598 19.4348 155.097 19.5647 155.713 19.5647C156.383 19.5647 156.918 19.4257 157.319 19.1477C157.72 18.8652 157.921 18.5211 157.921 18.1155C157.921 17.7874 157.798 17.5117 157.552 17.2884C157.31 17.0651 156.939 16.8964 156.437 16.7825L154.66 16.3929C153.68 16.1695 152.955 15.8141 152.486 15.3264C152.021 14.8388 151.789 14.2213 151.789 13.4739C151.789 12.8541 151.962 12.3118 152.308 11.847C152.655 11.3821 153.133 11.0198 153.744 10.76C154.355 10.4957 155.054 10.3636 155.843 10.3636C156.977 10.3636 157.871 10.6096 158.522 11.1018C159.174 11.5895 159.605 12.2434 159.814 13.0638Z" fill="black"/>
<path d="M148.491 13.3919L150.344 13.0638C150.134 12.2434 149.703 11.5895 149.052 11.1018C148.4 10.6096 147.507 10.3636 146.372 10.3636C145.584 10.3636 144.884 10.4957 144.273 10.76C143.663 11.0198 143.184 11.3821 142.838 11.847C142.492 12.3118 142.318 12.8541 142.318 13.4739C142.318 14.2213 142.551 14.8388 143.016 15.3264C143.485 15.8141 144.21 16.1695 145.189 16.3929L146.967 16.7825C147.468 16.8964 147.84 17.0651 148.081 17.2884C148.327 17.5117 148.45 17.7874 148.45 18.1155C148.45 18.5211 148.25 18.8652 147.849 19.1477C147.448 19.4257 146.912 19.5647 146.242 19.5647C145.627 19.5647 145.128 19.4348 144.745 19.1751C144.362 18.9108 144.109 18.5211 143.986 18.0061L142.011 18.3069C142.179 19.2366 142.635 19.9544 143.378 20.4602C144.121 20.9615 145.08 21.2122 146.256 21.2122C147.104 21.2122 147.849 21.0732 148.491 20.7952C149.138 20.5172 149.642 20.1344 150.002 19.6468C150.367 19.1546 150.549 18.594 150.549 17.9651C150.549 17.2223 150.312 16.6184 149.838 16.1536C149.364 15.6888 148.644 15.3447 147.678 15.1214L146.01 14.7386C145.431 14.6018 145.012 14.4264 144.752 14.2122C144.492 13.998 144.362 13.7154 144.362 13.3645C144.362 12.9589 144.556 12.6285 144.943 12.3733C145.331 12.1136 145.814 11.9837 146.393 11.9837C146.816 11.9837 147.17 12.052 147.452 12.1888C147.735 12.3255 147.958 12.5009 148.122 12.7151C148.291 12.9293 148.414 13.1549 148.491 13.3919Z" fill="black"/>
<path fill-rule="evenodd" clip-rule="evenodd" d="M135.421 21.2327C134.756 21.2327 134.154 21.1096 133.617 20.8636C133.079 20.6129 132.653 20.2506 132.338 19.7766C132.028 19.3027 131.874 18.7216 131.874 18.0335C131.874 17.441 131.987 16.9534 132.215 16.5706C132.443 16.1878 132.751 15.8847 133.138 15.6614C133.526 15.4381 133.958 15.2695 134.437 15.1555C134.916 15.0416 135.403 14.955 135.9 14.8958L137.431 14.718C137.823 14.6679 138.108 14.5882 138.286 14.4788C138.463 14.3694 138.552 14.1917 138.552 13.9456V13.8977C138.552 13.3007 138.384 12.8382 138.046 12.51C137.714 12.1819 137.217 12.0179 136.556 12.0179C135.868 12.0179 135.326 12.1705 134.929 12.4759C134.537 12.7766 134.266 13.1116 134.116 13.4807L132.195 13.0432C132.423 12.4052 132.755 11.8902 133.193 11.4983C133.635 11.1018 134.143 10.8147 134.717 10.637C135.292 10.4547 135.895 10.3636 136.529 10.3636C136.948 10.3636 137.392 10.4137 137.862 10.5139C138.336 10.6096 138.778 10.7874 139.188 11.0471C139.603 11.3069 139.942 11.6783 140.207 12.1614C140.471 12.6399 140.603 13.262 140.603 14.0276V21.0003H138.607V19.5647H138.525C138.393 19.8291 138.195 20.0888 137.93 20.344C137.666 20.5992 137.326 20.8111 136.912 20.9798C136.497 21.1484 136 21.2327 135.421 21.2327ZM135.866 19.5921C136.431 19.5921 136.914 19.4804 137.315 19.2571C137.721 19.0338 138.028 18.7421 138.238 18.3821C138.452 18.0175 138.559 17.6279 138.559 17.2132V15.8596C138.486 15.9326 138.345 16.0009 138.135 16.0647C137.93 16.124 137.695 16.1764 137.431 16.222C137.167 16.263 136.909 16.3017 136.659 16.3382C136.408 16.3701 136.198 16.3974 136.03 16.4202C135.633 16.4703 135.271 16.5546 134.943 16.6731C134.619 16.7916 134.36 16.9625 134.164 17.1858C133.972 17.4046 133.876 17.6962 133.876 18.0608C133.876 18.5667 134.063 18.9495 134.437 19.2093C134.811 19.4645 135.287 19.5921 135.866 19.5921Z" fill="black"/>
<path fill-rule="evenodd" clip-rule="evenodd" d="M121.33 7.00027V21.0003H123.326V19.3665H123.497C123.62 19.5898 123.795 19.845 124.023 20.1321C124.251 20.4192 124.566 20.6699 124.967 20.8841C125.372 21.0983 125.894 21.2054 126.532 21.2054C127.38 21.2054 128.134 20.9889 128.795 20.5559C129.455 20.1184 129.975 19.4964 130.353 18.6897C130.732 17.8785 130.921 16.9055 130.921 15.7708C130.921 14.636 130.729 13.6653 130.346 12.8587C129.968 12.052 129.446 11.4345 128.781 11.0061C128.116 10.5777 127.359 10.3636 126.511 10.3636C125.86 10.3636 125.336 10.4729 124.939 10.6917C124.543 10.9059 124.233 11.1565 124.01 11.4436C123.786 11.7307 123.615 11.9837 123.497 12.2024H123.374V7.00027H121.33ZM123.654 17.6917C123.44 17.1357 123.333 16.4886 123.333 15.7503C123.333 15.0211 123.438 14.3831 123.647 13.8362C123.857 13.2893 124.164 12.8632 124.57 12.5579C124.98 12.2526 125.482 12.0999 126.074 12.0999C126.689 12.0999 127.202 12.2594 127.612 12.5784C128.027 12.8974 128.337 13.3326 128.542 13.8841C128.751 14.4355 128.856 15.0576 128.856 15.7503C128.856 16.4521 128.749 17.0833 128.535 17.6438C128.325 18.2044 128.015 18.6487 127.605 18.9768C127.195 19.3004 126.685 19.4622 126.074 19.4622C125.486 19.4622 124.989 19.3072 124.584 18.9973C124.178 18.6829 123.868 18.2477 123.654 17.6917Z" fill="black"/>
<path d="M105.003 21.0003V10.5003H106.965V12.2093H107.094C107.313 11.6305 107.671 11.1793 108.168 10.8557C108.664 10.5276 109.259 10.3636 109.952 10.3636C110.654 10.3636 111.242 10.5276 111.716 10.8557C112.194 11.1839 112.547 11.635 112.775 12.2093H112.885C113.135 11.6487 113.534 11.2021 114.081 10.8694C114.628 10.5322 115.279 10.3636 116.036 10.3636C116.988 10.3636 117.765 10.6621 118.367 11.2591C118.973 11.8561 119.276 12.7561 119.276 13.9593V21.0003H117.232V14.1507C117.232 13.4397 117.038 12.9248 116.651 12.6057C116.264 12.2867 115.801 12.1272 115.263 12.1272C114.598 12.1272 114.081 12.3323 113.712 12.7425C113.343 13.1481 113.158 13.6699 113.158 14.3079V21.0003H111.121V14.0208C111.121 13.4511 110.943 12.9931 110.588 12.6468C110.232 12.3004 109.77 12.1272 109.2 12.1272C108.813 12.1272 108.455 12.2298 108.127 12.4348C107.803 12.6354 107.541 12.9156 107.341 13.2757C107.145 13.6357 107.047 14.0527 107.047 14.5266V21.0003H105.003Z" fill="black"/>
<path fill-rule="evenodd" clip-rule="evenodd" d="M91.4785 21.0003H93.7207L95.0029 17.2952H100.473L101.753 21.0003H103.995L98.957 7.00027H96.5166L91.4785 21.0003ZM97.7949 9.54324L99.8589 15.5179H95.618L97.6855 9.54324H97.7949Z" fill="black"/>
</svg>
