<svg width="378" height="24" viewBox="0 0 378 24" fill="none" xmlns="http://www.w3.org/2000/svg">
<path d="M19.9476 6.21973H23.0852L18.5234 20.0087H14.924L11.5145 9.60331L8.10505 20.0087H4.56179L0 6.21973H3.21095L6.44779 16.6985L9.84432 6.21973H13.2538L16.7064 16.7546L19.9476 6.21973Z" fill="white"/>
<path d="M36.5418 14.2212H26.3651C26.4591 14.9322 26.7258 15.6094 27.142 16.1935C27.5107 16.7045 28.0101 17.107 28.5878 17.3587C29.1762 17.6129 29.8113 17.7408 30.4522 17.7342C31.1626 17.7315 31.8669 17.6029 32.5324 17.3544C33.2224 17.1021 33.8667 16.7392 34.44 16.2798L35.9376 18.4377C35.1739 19.1036 34.2846 19.6098 33.3222 19.9266C32.3337 20.2369 31.3026 20.3898 30.2666 20.3798C28.9906 20.4049 27.7303 20.0954 26.6111 19.4821C25.5525 18.8889 24.6855 18.0054 24.1123 16.9358C23.4957 15.7634 23.1868 14.4536 23.2146 13.1293C23.1882 11.8174 23.4846 10.5191 24.0778 9.34863C24.629 8.28405 25.4698 7.39688 26.5032 6.78937C27.5876 6.16532 28.8216 5.84898 30.0724 5.87442C31.2528 5.84176 32.4175 6.15007 33.4271 6.76242C34.4367 7.37478 35.2484 8.26521 35.7649 9.32705C36.3352 10.5013 36.6191 11.7939 36.5936 13.0991C36.5979 13.3882 36.5806 13.7637 36.5418 14.2212ZM33.5207 11.9338C33.428 10.9888 33.0224 10.1018 32.3684 9.41337C32.0549 9.11952 31.6855 8.89169 31.2821 8.74342C30.8788 8.59514 30.4498 8.52943 30.0206 8.55021C29.5688 8.52953 29.1175 8.59987 28.6934 8.75704C28.2693 8.91422 27.8812 9.15503 27.552 9.46516C26.9002 10.1435 26.484 11.0136 26.3651 11.9467L33.5207 11.9338Z" fill="white"/>
<path d="M49.4162 6.79789C50.466 7.41887 51.3269 8.31407 51.9064 9.38736C52.5261 10.5313 52.8411 11.8154 52.8214 13.1162C52.8412 14.4157 52.5261 15.6983 51.9064 16.8407C51.3268 17.919 50.4627 18.8177 49.4081 19.4393C48.3536 20.061 47.1488 20.3817 45.9247 20.3667C45.0657 20.3847 44.2139 20.2061 43.4345 19.8445C42.7202 19.5001 42.0954 18.9949 41.6089 18.3685V20.0085H38.5879V0.350098H41.6089V7.85957C42.0974 7.23746 42.7219 6.7355 43.4345 6.3922C44.2129 6.02706 45.0652 5.84685 45.9247 5.86568C47.152 5.85066 48.3598 6.17313 49.4162 6.79789ZM47.7676 16.9443C48.3942 16.5591 48.8986 16.0038 49.222 15.3432C49.554 14.6469 49.7263 13.8854 49.7263 13.114C49.7263 12.3427 49.554 11.5812 49.222 10.8849C48.8972 10.2252 48.3932 9.67029 47.7676 9.28378C47.1026 8.90338 46.3499 8.70327 45.5838 8.70327C44.8177 8.70327 44.0649 8.90338 43.4 9.28378C42.7728 9.66465 42.2645 10.2133 41.9326 10.8677C41.5737 11.5667 41.3928 12.3435 41.4061 13.1292C41.3924 13.9135 41.5733 14.689 41.9326 15.3863C42.2645 16.0407 42.7728 16.5893 43.4 16.9702C44.0649 17.3506 44.8177 17.5507 45.5838 17.5507C46.3499 17.5507 47.1026 17.3506 47.7676 16.9702V16.9443Z" fill="white"/>
<path d="M67.7272 14.2212H57.5549C57.6488 14.9322 57.9155 15.6094 58.3317 16.1935C58.7004 16.7046 59.1998 17.1071 59.7775 17.3588C60.3659 17.6129 61.001 17.7408 61.6419 17.7342C62.3523 17.7309 63.0565 17.6023 63.7221 17.3545C64.4121 17.1022 65.0564 16.7392 65.6297 16.2798L67.123 18.4377C66.3615 19.1044 65.4735 19.6108 64.5119 19.9267C63.5219 20.2367 62.4894 20.3896 61.452 20.3798C60.1762 20.4036 58.9163 20.0942 57.7966 19.4821C56.7401 18.8875 55.8749 18.0043 55.302 16.9358C54.6841 15.7638 54.3737 14.454 54.4 13.1293C54.3738 11.8174 54.6702 10.5192 55.2632 9.34866C55.8144 8.28408 56.6552 7.39691 57.6887 6.7894C58.7792 6.15625 60.023 5.83524 61.2837 5.86151C62.4638 5.83045 63.6279 6.13943 64.6372 6.75161C65.6465 7.36378 66.4585 8.25331 66.9763 9.31414C67.5465 10.4884 67.8304 11.781 67.8049 13.0861C67.7876 13.3882 67.7574 13.7637 67.7272 14.2212ZM64.7061 11.9338C64.6066 10.9949 64.2 10.115 63.5495 9.43066C63.2381 9.1352 62.8707 8.90507 62.469 8.75386C62.0672 8.60265 61.6393 8.53342 61.2104 8.55024C60.7585 8.52907 60.307 8.59917 59.8829 8.75638C59.4587 8.91358 59.0706 9.15465 58.7417 9.46519C58.0884 10.1424 57.672 11.0131 57.5549 11.9468L64.7061 11.9338Z" fill="white"/>
<path d="M82.0773 20.0087H78.3787L74.8829 15.2138L71.4303 20.0087H67.9043L73.0832 12.9696L67.9863 6.21973H71.6892L75.0556 10.8247L78.4219 6.21973H81.9997L76.8811 12.9437L82.0773 20.0087Z" fill="white"/>
<path d="M159.685 20H157.842V10.016H159.359L159.608 11.4944C160.171 10.3168 161.016 9.72803 162.143 9.72803C162.514 9.72803 162.879 9.77283 163.237 9.86243V11.7056C162.802 11.5904 162.411 11.5328 162.066 11.5328C161.323 11.5328 160.741 11.8336 160.319 12.4352C159.896 13.0368 159.685 13.888 159.685 14.9888V20Z" fill="white"/>
<path d="M153.99 17.12H155.987C155.705 18.1312 155.148 18.9248 154.316 19.5008C153.536 20.0256 152.601 20.288 151.513 20.288C149.939 20.288 148.71 19.7888 147.827 18.7904C147.02 17.856 146.617 16.5952 146.617 15.008C146.617 13.2032 147.129 11.8336 148.153 10.8992C148.998 10.1184 150.086 9.72803 151.417 9.72803C152.979 9.72803 154.156 10.2336 154.95 11.2448C155.718 12.2176 156.102 13.6064 156.102 15.4112H148.499C148.576 16.5888 148.934 17.4656 149.574 18.0416C150.099 18.5024 150.764 18.7328 151.571 18.7328C152.198 18.7328 152.742 18.56 153.203 18.2144C153.587 17.92 153.849 17.5552 153.99 17.12ZM151.456 11.2064C150.636 11.2064 149.977 11.4624 149.478 11.9744C149.004 12.448 148.704 13.1072 148.576 13.952H154.22C154.156 12.992 153.836 12.2752 153.26 11.8016C152.8 11.4048 152.198 11.2064 151.456 11.2064Z" fill="white"/>
<path d="M145.734 11.7633L139.801 18.4257H145.734V20.0001H137.632V18.2529L143.565 11.5713H137.92V10.0161H145.734V11.7633Z" fill="white"/>
<path d="M137.34 10.0161L133.865 20.1345C133.404 21.4785 132.963 22.3937 132.54 22.8801C132.041 23.4561 131.395 23.7441 130.601 23.7441C130.268 23.7441 129.871 23.6865 129.411 23.5713V22.0737C129.769 22.1633 130.089 22.2081 130.371 22.2081C130.767 22.2081 131.075 22.0673 131.292 21.7857C131.51 21.5169 131.785 20.9217 132.118 20.0001H131.523L127.855 10.0161H129.852L132.675 18.5025L135.497 10.0161H137.34Z" fill="white"/>
<path d="M126.784 6.17578V19.9998H124.94V6.17578H126.784Z" fill="white"/>
<path d="M116.429 12.8H114.47C114.573 11.8016 115.046 11.0272 115.891 10.4768C116.646 9.97763 117.6 9.72803 118.752 9.72803C120.122 9.72803 121.171 10.0864 121.901 10.8032C122.515 11.4176 122.822 12.2112 122.822 13.184V20H121.306L121.075 18.6368C120.294 19.7376 119.181 20.288 117.734 20.288C116.595 20.288 115.706 19.9808 115.066 19.3664C114.541 18.8544 114.278 18.208 114.278 17.4272C114.278 16.4416 114.618 15.68 115.296 15.1424C115.898 14.6688 116.819 14.3232 118.061 14.1056L120.979 13.6064V13.1072C120.979 12.4544 120.755 11.9616 120.307 11.6288C119.91 11.3344 119.366 11.1872 118.675 11.1872C117.318 11.1872 116.57 11.7248 116.429 12.8ZM118.176 18.7328C118.957 18.7328 119.635 18.4768 120.211 17.9648C120.723 17.4912 120.979 16.9472 120.979 16.3328V15.0464L118.502 15.488C117.594 15.6416 116.973 15.8784 116.64 16.1984C116.371 16.4544 116.237 16.8 116.237 17.2352C116.237 17.7216 116.403 18.0928 116.736 18.3488C117.069 18.6048 117.549 18.7328 118.176 18.7328Z" fill="white"/>
<path d="M106.274 20H104.431V10.016H105.947L106.159 11.2832C106.901 10.2464 107.912 9.72803 109.192 9.72803C110.37 9.72803 111.272 10.0928 111.899 10.8224C112.45 11.4752 112.725 12.3648 112.725 13.4912V20H110.882V13.5104C110.882 12.0384 110.171 11.3024 108.751 11.3024C108.008 11.3024 107.4 11.5584 106.927 12.0704C106.491 12.5312 106.274 13.12 106.274 13.8368V20Z" fill="white"/>
<path d="M103.555 19.9998H101.386L100.022 16.5054H93.4368L92.0544 19.9998H90L95.6832 6.17578H97.8912L103.555 19.9998ZM96.7584 8.13418L94.0704 14.9118H99.3888L96.7584 8.13418Z" fill="white"/>
</svg>
