<svg width="296" height="28" viewBox="0 0 296 28" fill="none" xmlns="http://www.w3.org/2000/svg">
<path fill-rule="evenodd" clip-rule="evenodd" d="M160.956 10.2554C161.616 10.2554 162.15 10.3659 162.556 10.5874C162.962 10.8043 163.278 11.0584 163.504 11.3491C163.735 11.6398 163.912 11.8962 164.037 12.1177H164.189V10.394H166.219V21.2661C166.219 22.1707 166.006 22.914 165.581 23.4956C165.156 24.0817 164.582 24.5158 163.857 24.7974C163.137 25.0789 162.325 25.2192 161.42 25.2192C160.575 25.2192 159.848 25.1088 159.238 24.8872C158.634 24.6657 158.14 24.3728 157.757 24.0083C157.374 23.6482 157.087 23.2553 156.897 22.8306L158.678 22.0962C158.802 22.2901 158.968 22.5008 159.176 22.7271C159.388 22.9531 159.674 23.1466 160.034 23.3081C160.399 23.4697 160.868 23.5513 161.44 23.5513C162.225 23.5513 162.873 23.3613 163.386 22.9829C163.898 22.6044 164.155 22.0039 164.155 21.1821V19.0913H164.023C163.899 19.3175 163.719 19.5692 163.483 19.8462C163.253 20.1232 162.934 20.3628 162.527 20.5659C162.121 20.769 161.592 20.8706 160.941 20.8706C160.102 20.8706 159.345 20.6749 158.671 20.2827C158.002 19.8858 157.471 19.3015 157.078 18.5308C156.69 17.7552 156.496 16.8014 156.496 15.6704C156.496 14.5394 156.688 13.5701 157.071 12.7622C157.459 11.9546 157.989 11.336 158.663 10.9067C159.337 10.4728 160.102 10.2554 160.956 10.2554ZM161.398 12.0142C160.776 12.0142 160.256 12.1756 159.841 12.4985C159.425 12.8171 159.112 13.2519 158.899 13.8013C158.692 14.3506 158.587 14.9645 158.587 15.6431C158.587 16.34 158.694 16.9518 158.906 17.478C159.119 18.0042 159.432 18.415 159.848 18.7104C160.268 19.0058 160.785 19.1538 161.398 19.1538C161.994 19.1538 162.497 19.0148 162.908 18.7378C163.324 18.4562 163.638 18.0552 163.851 17.5337C164.068 17.0075 164.176 16.377 164.176 15.6431C164.176 14.9276 164.07 14.2971 163.857 13.7524C163.645 13.2077 163.333 12.7827 162.922 12.478C162.511 12.1689 162.003 12.0142 161.398 12.0142Z" fill="black"/>
<path fill-rule="evenodd" clip-rule="evenodd" d="M235.215 10.2554C235.875 10.2554 236.408 10.3659 236.814 10.5874C237.221 10.8043 237.537 11.0584 237.763 11.3491C237.993 11.6398 238.171 11.8962 238.296 12.1177H238.448V10.394H240.478V21.2661C240.477 22.1707 240.264 22.914 239.84 23.4956C239.415 24.0817 238.841 24.5158 238.116 24.7974C237.396 25.0789 236.583 25.2192 235.679 25.2192C234.834 25.2192 234.106 25.1088 233.497 24.8872C232.893 24.6657 232.399 24.3728 232.016 24.0083C231.632 23.6482 231.346 23.2553 231.156 22.8306L232.937 22.0962C233.061 22.2901 233.227 22.5008 233.435 22.7271C233.647 22.9531 233.933 23.1466 234.293 23.3081C234.658 23.4697 235.127 23.5513 235.699 23.5513C236.484 23.5513 237.132 23.3613 237.645 22.9829C238.157 22.6044 238.414 22.0039 238.414 21.1821V19.0913H238.282C238.158 19.3175 237.978 19.5692 237.742 19.8462C237.511 20.1232 237.192 20.3628 236.786 20.5659C236.38 20.769 235.851 20.8706 235.2 20.8706C234.36 20.8706 233.603 20.6749 232.93 20.2827C232.26 19.8858 231.729 19.3015 231.337 18.5308C230.949 17.7552 230.755 16.8014 230.755 15.6704C230.755 14.5394 230.947 13.5701 231.33 12.7622C231.718 11.9546 232.248 11.336 232.922 10.9067C233.596 10.4728 234.361 10.2554 235.215 10.2554ZM235.657 12.0142C235.034 12.0142 234.515 12.1756 234.1 12.4985C233.684 12.8171 233.371 13.2519 233.158 13.8013C232.951 14.3506 232.846 14.9645 232.846 15.6431C232.846 16.34 232.953 16.9518 233.165 17.478C233.377 18.0042 233.691 18.415 234.106 18.7104C234.526 19.0058 235.043 19.1538 235.657 19.1538C236.253 19.1538 236.756 19.0148 237.167 18.7378C237.582 18.4562 237.897 18.0552 238.109 17.5337C238.326 17.0075 238.435 16.377 238.435 15.6431C238.435 14.9276 238.329 14.2971 238.116 13.7524C237.904 13.2077 237.592 12.7827 237.181 12.478C236.77 12.1689 236.262 12.0142 235.657 12.0142Z" fill="black"/>
<path fill-rule="evenodd" clip-rule="evenodd" d="M136.767 10.2554C137.625 10.2554 138.391 10.4728 139.065 10.9067C139.739 11.3407 140.268 11.9657 140.651 12.7827C141.039 13.5998 141.233 14.5834 141.233 15.7329C141.233 16.8824 141.041 17.8682 140.658 18.6899C140.275 19.507 139.748 20.1374 139.079 20.5806C138.41 21.019 137.646 21.2378 136.787 21.2378C136.141 21.2378 135.612 21.1296 135.201 20.9126C134.795 20.6957 134.477 20.4416 134.246 20.1509C134.015 19.8602 133.838 19.6016 133.713 19.3755H133.588V25.019H131.518V10.394H133.54V12.1177H133.713C133.833 11.8962 134.006 11.6398 134.232 11.3491C134.459 11.0584 134.772 10.8043 135.174 10.5874C135.575 10.3659 136.107 10.2554 136.767 10.2554ZM136.323 12.0142C135.723 12.0142 135.215 12.1688 134.8 12.478C134.389 12.7873 134.078 13.2191 133.865 13.7729C133.653 14.3269 133.547 14.9738 133.547 15.7124C133.547 16.46 133.655 17.1152 133.872 17.6782C134.089 18.2414 134.403 18.6829 134.813 19.0015C135.224 19.3154 135.728 19.4722 136.323 19.4722C136.942 19.4722 137.459 19.3085 137.874 18.981C138.289 18.6486 138.604 18.1982 138.816 17.6304C139.033 17.0626 139.142 16.4232 139.142 15.7124C139.142 15.0108 139.036 14.3803 138.823 13.8218C138.616 13.2632 138.302 12.8217 137.882 12.4985C137.466 12.1754 136.946 12.0142 136.323 12.0142Z" fill="black"/>
<path fill-rule="evenodd" clip-rule="evenodd" d="M30.4395 6.62061C31.6341 6.58759 32.8131 6.90023 33.835 7.52002C34.8568 8.13983 35.6784 9.04099 36.2012 10.1157C36.7783 11.3043 37.0659 12.613 37.04 13.9341C37.0444 14.2267 37.0266 14.6069 36.9873 15.0698H26.6865C26.7816 15.7894 27.0515 16.4748 27.4727 17.0659C27.8458 17.5832 28.3518 17.9908 28.9365 18.2456C29.5319 18.5028 30.1747 18.6321 30.8232 18.6255C31.5423 18.6228 32.2561 18.4923 32.9297 18.2407C33.6279 17.9854 34.2802 17.6177 34.8604 17.1528L36.376 19.3374C35.603 20.0114 34.7027 20.5236 33.7285 20.8442C32.728 21.1583 31.6843 21.3134 30.6357 21.3032C29.3442 21.3287 28.0683 21.0158 26.9355 20.395C25.864 19.7945 24.9865 18.8995 24.4062 17.8169C23.7823 16.6303 23.4699 15.3047 23.498 13.9644C23.4713 12.6365 23.7707 11.3219 24.3711 10.1372C24.9289 9.05984 25.7803 8.16225 26.8262 7.54736C27.9237 6.91571 29.1734 6.59485 30.4395 6.62061ZM30.3867 9.32959C29.9295 9.30867 29.4722 9.3795 29.043 9.53857C28.6139 9.69767 28.2208 9.94154 27.8877 10.2554C27.2281 10.9419 26.8069 11.8227 26.6865 12.7671L33.9297 12.7544C33.8358 11.7981 33.4254 10.9003 32.7637 10.2036C32.4464 9.90624 32.0722 9.67499 31.6641 9.5249C31.2558 9.37482 30.8212 9.30856 30.3867 9.32959Z" fill="black"/>
<path fill-rule="evenodd" clip-rule="evenodd" d="M62.0322 6.60791C63.2264 6.57658 64.4043 6.88978 65.4258 7.50928C66.4474 8.12891 67.2698 9.02926 67.7939 10.103C68.371 11.2914 68.6586 12.5996 68.6328 13.9204C68.6153 14.2262 68.5843 14.6068 68.5537 15.0698H58.2578C58.3529 15.7895 58.6227 16.4747 59.0439 17.0659C59.4171 17.5831 59.9222 17.9908 60.5068 18.2456C61.1024 18.5028 61.7458 18.6321 62.3945 18.6255C63.1134 18.6221 63.8263 18.4926 64.5 18.2417C65.1983 17.9864 65.8504 17.6187 66.4307 17.1538L67.9424 19.3374C67.1717 20.0122 66.273 20.5255 65.2998 20.8452C64.2977 21.159 63.2522 21.3131 62.2021 21.3032C60.9108 21.3273 59.6353 21.0145 58.502 20.395C57.4328 19.7932 56.5574 18.8991 55.9775 17.8179C55.3521 16.6315 55.0378 15.3052 55.0645 13.9644C55.0379 12.6367 55.3374 11.3228 55.9375 10.1382C56.4954 9.06069 57.3466 8.16228 58.3926 7.54736C59.4965 6.90649 60.7561 6.58133 62.0322 6.60791ZM61.957 9.32959C61.4999 9.30823 61.0434 9.37958 60.6143 9.53857C60.1851 9.69764 59.7918 9.94118 59.459 10.2554C58.7977 10.9409 58.3763 11.823 58.2578 12.7681L65.4961 12.7544C65.3953 11.8041 64.9835 10.9139 64.3252 10.2212C64.01 9.92212 63.6381 9.6887 63.2314 9.53564C62.8248 9.3826 62.3912 9.31256 61.957 9.32959Z" fill="black"/>
<path fill-rule="evenodd" clip-rule="evenodd" d="M42.1162 8.63037C42.6105 8.0009 43.2429 7.49344 43.9639 7.146C44.7517 6.7764 45.6153 6.59374 46.4854 6.61279C47.7273 6.59768 48.9494 6.92398 50.0186 7.55615C51.0811 8.18467 51.9525 9.09096 52.5391 10.1772C53.127 11.2627 53.4449 12.4727 53.4658 13.7046V14.1978C53.445 15.4285 53.1271 16.6371 52.5391 17.7212C51.9523 18.8126 51.0782 19.7228 50.0107 20.3521C48.9435 20.9811 47.7241 21.3056 46.4854 21.2905C45.6159 21.3088 44.7528 21.1282 43.9639 20.7622C43.2409 20.4136 42.6085 19.902 42.1162 19.2681V20.9282H39.0586V1.02979H42.1162V8.63037ZM46.1396 9.48486C45.3643 9.48489 44.6027 9.68777 43.9297 10.0728C43.2949 10.4582 42.7803 11.013 42.4443 11.6753C42.081 12.3827 41.8977 13.1692 41.9111 13.9644C41.8973 14.7583 42.0807 15.5437 42.4443 16.2495C42.7803 16.9118 43.2949 17.4676 43.9297 17.853C44.6026 18.2379 45.3645 18.4399 46.1396 18.4399C46.9151 18.4399 47.6775 18.2381 48.3506 17.853V17.8267C48.9848 17.4367 49.4949 16.8742 49.8223 16.2056C50.1582 15.501 50.333 14.7303 50.333 13.9497C50.333 13.169 50.1583 12.3976 49.8223 11.6929C49.4936 11.0253 48.9835 10.4639 48.3506 10.0728C47.6775 9.68771 46.9151 9.48486 46.1396 9.48486Z" fill="black"/>
<path fill-rule="evenodd" clip-rule="evenodd" d="M109.099 10.2554C109.523 10.2554 109.974 10.3062 110.449 10.4077C110.929 10.5047 111.377 10.6848 111.792 10.9478C112.212 11.2109 112.556 11.5873 112.824 12.0767C113.092 12.5614 113.226 13.1918 113.226 13.9673V21.0298H111.204V19.5757H111.12C110.986 19.8434 110.786 20.1072 110.519 20.3657C110.251 20.6242 109.906 20.8385 109.486 21.0093C109.066 21.1801 108.563 21.2661 107.977 21.2661C107.303 21.2661 106.693 21.1414 106.148 20.8921C105.604 20.6382 105.172 20.2706 104.854 19.7905C104.54 19.3105 104.383 18.7219 104.383 18.0249C104.383 17.4248 104.499 16.9312 104.729 16.5435C104.96 16.1557 105.272 15.8478 105.664 15.6216C106.056 15.3955 106.495 15.2252 106.979 15.1099C107.464 14.9945 107.959 14.9062 108.462 14.8462C109.099 14.7724 109.616 14.7127 110.013 14.6665C110.409 14.6158 110.698 14.535 110.878 14.4243C111.058 14.3136 111.148 14.1334 111.148 13.8843V13.8354C111.148 13.2308 110.977 12.7626 110.636 12.4302C110.299 12.0978 109.795 11.9312 109.126 11.9312C108.429 11.9312 107.88 12.0859 107.479 12.395C107.082 12.6996 106.807 13.0388 106.654 13.4126L104.708 12.9702C104.939 12.3239 105.277 11.8018 105.72 11.4048C106.167 11.0033 106.682 10.7127 107.264 10.5327C107.845 10.3481 108.457 10.2554 109.099 10.2554ZM111.155 15.8228C111.081 15.8966 110.938 15.9661 110.726 16.0308C110.518 16.0907 110.28 16.1438 110.013 16.1899C109.745 16.2315 109.484 16.2702 109.23 16.3071C108.977 16.3394 108.764 16.368 108.593 16.3911C108.191 16.4419 107.824 16.527 107.492 16.647C107.164 16.767 106.901 16.9403 106.702 17.1665C106.509 17.388 106.412 17.6833 106.412 18.0522C106.412 18.5647 106.601 18.9532 106.979 19.2163C107.358 19.4748 107.841 19.604 108.427 19.604C108.999 19.604 109.488 19.4903 109.895 19.2642C110.305 19.038 110.618 18.7431 110.83 18.3784C111.047 18.0091 111.155 17.6139 111.155 17.1938V15.8228Z" fill="black"/>
<path fill-rule="evenodd" clip-rule="evenodd" d="M146.92 10.2554C147.345 10.2554 147.795 10.3062 148.271 10.4077C148.75 10.5047 149.198 10.6848 149.613 10.9478C150.033 11.2109 150.378 11.5873 150.646 12.0767C150.913 12.5614 151.047 13.1918 151.047 13.9673V21.0298H149.025V19.5757H148.941C148.808 19.8434 148.608 20.1072 148.34 20.3657C148.072 20.6242 147.728 20.8385 147.308 21.0093C146.888 21.1801 146.384 21.2661 145.798 21.2661C145.124 21.2661 144.514 21.1414 143.97 20.8921C143.425 20.6382 142.993 20.2706 142.675 19.7905C142.361 19.3105 142.204 18.7219 142.204 18.0249C142.204 17.4248 142.32 16.9312 142.551 16.5435C142.782 16.1557 143.093 15.8478 143.485 15.6216C143.878 15.3955 144.316 15.2252 144.801 15.1099C145.286 14.9945 145.78 14.9062 146.283 14.8462C146.92 14.7724 147.437 14.7127 147.834 14.6665C148.231 14.6158 148.519 14.535 148.699 14.4243C148.879 14.3136 148.97 14.1334 148.97 13.8843V13.8354C148.97 13.2308 148.799 12.7626 148.457 12.4302C148.12 12.0978 147.617 11.9312 146.947 11.9312C146.25 11.9312 145.701 12.0859 145.3 12.395C144.903 12.6996 144.628 13.0388 144.476 13.4126L142.529 12.9702C142.76 12.3239 143.098 11.8018 143.541 11.4048C143.989 11.0033 144.503 10.7127 145.085 10.5327C145.667 10.3481 146.278 10.2554 146.92 10.2554ZM148.977 15.8228C148.903 15.8966 148.759 15.9661 148.547 16.0308C148.339 16.0907 148.102 16.1438 147.834 16.1899C147.566 16.2315 147.306 16.2702 147.052 16.3071C146.798 16.3394 146.585 16.368 146.414 16.3911C146.013 16.4419 145.646 16.527 145.313 16.647C144.986 16.767 144.722 16.9403 144.523 17.1665C144.33 17.388 144.233 17.6833 144.233 18.0522C144.233 18.5647 144.422 18.9532 144.801 19.2163C145.179 19.4748 145.662 19.604 146.248 19.604C146.82 19.604 147.31 19.4903 147.716 19.2642C148.127 19.038 148.439 18.7431 148.651 18.3784C148.868 18.0091 148.977 17.6139 148.977 17.1938V15.8228Z" fill="black"/>
<path fill-rule="evenodd" clip-rule="evenodd" d="M204.128 10.2554C204.553 10.2554 205.003 10.3062 205.479 10.4077C205.958 10.5047 206.406 10.6848 206.821 10.9478C207.241 11.2109 207.586 11.5873 207.854 12.0767C208.121 12.5614 208.255 13.1918 208.255 13.9673V21.0298H206.233V19.5757H206.149C206.016 19.8434 205.816 20.1072 205.548 20.3657C205.28 20.6242 204.936 20.8385 204.516 21.0093C204.096 21.1801 203.592 21.2661 203.006 21.2661C202.332 21.2661 201.722 21.1414 201.178 20.8921C200.633 20.6382 200.201 20.2706 199.883 19.7905C199.569 19.3105 199.412 18.7219 199.412 18.0249C199.412 17.4248 199.528 16.9312 199.759 16.5435C199.99 16.1557 200.301 15.8478 200.693 15.6216C201.086 15.3955 201.524 15.2252 202.009 15.1099C202.494 14.9945 202.988 14.9062 203.491 14.8462C204.128 14.7724 204.645 14.7127 205.042 14.6665C205.439 14.6158 205.727 14.535 205.907 14.4243C206.087 14.3136 206.178 14.1334 206.178 13.8843V13.8354C206.178 13.2308 206.007 12.7626 205.665 12.4302C205.328 12.0978 204.825 11.9312 204.155 11.9312C203.458 11.9312 202.909 12.0859 202.508 12.395C202.111 12.6996 201.836 13.0388 201.684 13.4126L199.737 12.9702C199.968 12.3239 200.306 11.8018 200.749 11.4048C201.197 11.0033 201.711 10.7127 202.293 10.5327C202.875 10.3481 203.486 10.2554 204.128 10.2554ZM206.185 15.8228C206.111 15.8966 205.967 15.9661 205.755 16.0308C205.547 16.0907 205.31 16.1438 205.042 16.1899C204.774 16.2315 204.514 16.2702 204.26 16.3071C204.006 16.3394 203.793 16.368 203.622 16.3911C203.221 16.4419 202.854 16.527 202.521 16.647C202.194 16.767 201.93 16.9403 201.731 17.1665C201.538 17.388 201.441 17.6833 201.441 18.0522C201.441 18.5647 201.63 18.9532 202.009 19.2163C202.387 19.4748 202.87 19.604 203.456 19.604C204.028 19.604 204.518 19.4903 204.924 19.2642C205.335 19.038 205.647 18.7431 205.859 18.3784C206.076 18.0091 206.185 17.6139 206.185 17.1938V15.8228Z" fill="black"/>
<path fill-rule="evenodd" clip-rule="evenodd" d="M225.185 10.2554C225.609 10.2554 226.06 10.3062 226.535 10.4077C227.015 10.5047 227.463 10.6848 227.878 10.9478C228.298 11.2109 228.642 11.5873 228.91 12.0767C229.178 12.5614 229.312 13.1918 229.312 13.9673V21.0298H227.29V19.5757H227.206C227.072 19.8434 226.872 20.1072 226.604 20.3657C226.337 20.6242 225.992 20.8385 225.572 21.0093C225.152 21.1801 224.649 21.2661 224.062 21.2661C223.389 21.2661 222.779 21.1414 222.234 20.8921C221.69 20.6382 221.258 20.2706 220.939 19.7905C220.626 19.3104 220.469 18.7219 220.469 18.0249C220.469 17.4248 220.585 16.9312 220.815 16.5435C221.046 16.1557 221.358 15.8478 221.75 15.6216C222.142 15.3955 222.581 15.2252 223.065 15.1099C223.55 14.9945 224.045 14.9062 224.548 14.8462C225.185 14.7724 225.702 14.7127 226.099 14.6665C226.495 14.6158 226.784 14.535 226.964 14.4243C227.144 14.3136 227.234 14.1334 227.234 13.8843V13.8354C227.234 13.2308 227.063 12.7626 226.722 12.4302C226.385 12.0978 225.881 11.9312 225.212 11.9312C224.515 11.9312 223.966 12.0859 223.564 12.395C223.168 12.6996 222.893 13.0388 222.74 13.4126L220.794 12.9702C221.025 12.3239 221.362 11.8018 221.806 11.4048C222.253 11.0033 222.768 10.7127 223.35 10.5327C223.931 10.3481 224.543 10.2554 225.185 10.2554ZM227.241 15.8228C227.167 15.8966 227.024 15.9661 226.812 16.0308C226.604 16.0907 226.366 16.1438 226.099 16.1899C225.831 16.2315 225.57 16.2702 225.316 16.3071C225.062 16.3394 224.85 16.368 224.679 16.3911C224.277 16.4419 223.91 16.527 223.578 16.647C223.25 16.767 222.987 16.9403 222.788 17.1665C222.594 17.388 222.498 17.6833 222.498 18.0522C222.498 18.5647 222.687 18.9532 223.065 19.2163C223.444 19.4748 223.926 19.604 224.513 19.604C225.085 19.604 225.574 19.4903 225.98 19.2642C226.391 19.038 226.704 18.7431 226.916 18.3784C227.133 18.0091 227.241 17.6139 227.241 17.1938V15.8228Z" fill="black"/>
<path fill-rule="evenodd" clip-rule="evenodd" d="M246.844 10.2554C247.444 10.2554 248.025 10.3548 248.588 10.5532C249.151 10.7517 249.657 11.0632 250.104 11.4878C250.552 11.9125 250.906 12.4644 251.164 13.1431C251.423 13.817 251.552 14.6363 251.552 15.6011V16.3354H243.993C244.009 16.9837 244.132 17.5402 244.364 18.0044C244.618 18.5029 244.971 18.8839 245.424 19.147C245.876 19.4054 246.405 19.5347 247.01 19.5347C247.402 19.5346 247.76 19.4794 248.083 19.3687C248.406 19.2532 248.685 19.0822 248.921 18.856C249.156 18.6298 249.336 18.3504 249.461 18.0181L251.421 18.3716C251.264 18.9483 250.982 19.4534 250.576 19.8872C250.175 20.3165 249.669 20.652 249.06 20.8921C248.455 21.1275 247.764 21.2446 246.988 21.2446C245.941 21.2446 245.038 21.0205 244.281 20.5728C243.529 20.1203 242.947 19.4855 242.536 18.6685C242.13 17.8469 241.927 16.8847 241.927 15.7817C241.927 14.6923 242.13 13.7318 242.536 12.9009C242.947 12.0699 243.52 11.4209 244.254 10.9546C244.992 10.4885 245.856 10.2554 246.844 10.2554ZM246.857 11.9653C246.276 11.9653 245.768 12.1089 245.334 12.395C244.905 12.6766 244.572 13.0464 244.337 13.5034C244.135 13.9001 244.021 14.3267 243.996 14.7837H249.523C249.523 14.2391 249.412 13.7564 249.19 13.3364C248.969 12.9119 248.657 12.5771 248.256 12.3325C247.859 12.088 247.393 11.9654 246.857 11.9653Z" fill="black"/>
<path fill-rule="evenodd" clip-rule="evenodd" d="M273.822 10.2554C274.422 10.2554 275.003 10.3548 275.566 10.5532C276.13 10.7517 276.635 11.0632 277.083 11.4878C277.531 11.9125 277.884 12.4644 278.143 13.1431C278.401 13.817 278.53 14.6363 278.53 15.6011V16.3354H270.972C270.988 16.9837 271.111 17.5402 271.343 18.0044C271.597 18.5029 271.95 18.8839 272.402 19.147C272.855 19.4054 273.384 19.5347 273.988 19.5347C274.381 19.5346 274.738 19.4794 275.062 19.3687C275.385 19.2532 275.664 19.0822 275.899 18.856C276.135 18.6298 276.315 18.3504 276.439 18.0181L278.399 18.3716C278.242 18.9483 277.961 19.4534 277.555 19.8872C277.153 20.3165 276.647 20.652 276.038 20.8921C275.433 21.1275 274.742 21.2446 273.967 21.2446C272.919 21.2446 272.017 21.0205 271.26 20.5728C270.507 20.1203 269.926 19.4855 269.515 18.6685C269.109 17.8469 268.905 16.8847 268.905 15.7817C268.905 14.6923 269.108 13.7318 269.515 12.9009C269.926 12.0699 270.498 11.4209 271.232 10.9546C271.971 10.4885 272.835 10.2554 273.822 10.2554ZM273.836 11.9653C273.254 11.9653 272.746 12.1089 272.312 12.395C271.883 12.6766 271.551 13.0464 271.315 13.5034C271.113 13.9001 271 14.3267 270.975 14.7837H276.502C276.502 14.2391 276.39 13.7564 276.169 13.3364C275.947 12.9119 275.636 12.5771 275.234 12.3325C274.837 12.088 274.371 11.9654 273.836 11.9653Z" fill="black"/>
<path d="M97.4785 6.65381C98.2307 6.65383 98.9323 6.76214 99.583 6.979C100.239 7.19136 100.828 7.5059 101.35 7.92139C101.871 8.33216 102.303 8.83488 102.645 9.43018C102.986 10.0211 103.217 10.6978 103.337 11.4595H101.176C101.093 10.9979 100.938 10.5915 100.712 10.2407C100.486 9.88993 100.209 9.59181 99.8809 9.34717C99.5532 9.10265 99.1863 8.91806 98.7803 8.79346C98.3786 8.66881 97.9514 8.60693 97.499 8.60693C96.6819 8.60693 95.95 8.81228 95.3037 9.22314C94.6622 9.63396 94.1541 10.236 93.7803 11.0298C93.411 11.8238 93.2266 12.7941 93.2266 13.939C93.2266 15.0929 93.411 16.0669 93.7803 16.8608C94.1542 17.6549 94.6643 18.2554 95.3105 18.6616C95.9569 19.0679 96.6843 19.271 97.4922 19.271C97.94 19.271 98.365 19.2104 98.7666 19.0903C99.1727 18.9657 99.5395 18.7834 99.8672 18.5435C100.195 18.3035 100.472 18.0107 100.698 17.6646C100.929 17.3138 101.088 16.9118 101.176 16.4595L103.337 16.4663C103.222 17.1633 102.997 17.8049 102.665 18.3911C102.337 18.9728 101.915 19.4762 101.397 19.9009C100.885 20.3209 100.299 20.6466 99.6387 20.8774C98.9786 21.1082 98.2585 21.2231 97.4785 21.2231C96.2507 21.2231 95.1564 20.9326 94.1963 20.3511C93.2361 19.7648 92.4788 18.9268 91.9248 17.8374C91.3755 16.748 91.1006 15.4484 91.1006 13.939C91.1006 12.4248 91.3777 11.1244 91.9316 10.0396C92.4856 8.95025 93.243 8.1153 94.2031 7.53369C95.1634 6.9474 96.2551 6.65381 97.4785 6.65381Z" fill="black"/>
<path d="M293.566 10.3931H295.747V12.0552H293.566V17.9067C293.566 18.3084 293.626 18.6108 293.746 18.814C293.866 19.0124 294.021 19.1483 294.21 19.2222C294.404 19.2914 294.614 19.3266 294.84 19.3267C295.006 19.3267 295.152 19.3146 295.276 19.2915C295.401 19.2684 295.498 19.2507 295.567 19.2368L295.941 20.9468C295.821 20.9929 295.65 21.0393 295.429 21.0854C295.207 21.1362 294.93 21.1638 294.598 21.1685C294.053 21.1777 293.545 21.0805 293.074 20.8774C292.603 20.6743 292.222 20.3606 291.932 19.936C291.641 19.5114 291.495 18.978 291.495 18.3364V12.0552H289.938V10.3931H291.495V7.84521H293.566V10.3931Z" fill="black"/>
<path d="M126.31 10.2554C127.274 10.2554 128.062 10.5579 128.671 11.1626C129.285 11.7674 129.592 12.6793 129.592 13.8979V21.0298H127.521V14.0913C127.521 13.3714 127.325 12.85 126.933 12.5269C126.54 12.2037 126.071 12.0415 125.526 12.0415C124.853 12.0416 124.329 12.2501 123.955 12.6655C123.581 13.0763 123.394 13.6044 123.394 14.2505V21.0298H121.33V13.9604C121.33 13.3834 121.15 12.9187 120.79 12.5679C120.43 12.2173 119.962 12.0415 119.385 12.0415C118.992 12.0415 118.63 12.1463 118.298 12.354C117.97 12.5571 117.704 12.8409 117.501 13.2056C117.303 13.5701 117.203 13.9923 117.203 14.4722V21.0298H115.133V10.394H117.12V12.1255H117.252C117.474 11.5393 117.836 11.0822 118.339 10.7544C118.842 10.422 119.445 10.2554 120.146 10.2554C120.857 10.2554 121.453 10.422 121.933 10.7544C122.417 11.0868 122.775 11.5438 123.006 12.1255H123.117C123.371 11.5577 123.775 11.1051 124.329 10.7681C124.883 10.4265 125.543 10.2554 126.31 10.2554Z" fill="black"/>
<path d="M155.025 21.0298H152.954V10.3931H155.025V21.0298Z" fill="black"/>
<path d="M173.401 10.2554C174.126 10.2554 174.761 10.4077 175.306 10.7124C175.85 11.0125 176.273 11.4606 176.573 12.0562C176.873 12.6516 177.023 13.3882 177.023 14.2651V21.0298H174.952V14.5142C174.952 13.7432 174.751 13.1405 174.35 12.7065C173.948 12.2682 173.397 12.0494 172.695 12.0493C172.215 12.0493 171.788 12.1531 171.414 12.3608C171.045 12.5686 170.751 12.8733 170.534 13.2749C170.322 13.6718 170.216 14.1523 170.216 14.7153V21.0298H168.146V10.394H170.133V12.1255H170.265C170.509 11.5623 170.892 11.1097 171.414 10.7681C171.94 10.4264 172.603 10.2554 173.401 10.2554Z" fill="black"/>
<path d="M190.538 17.8726H190.705L195.22 6.84814H197.816V21.0298H195.78V10.7671H195.648L191.467 21.0093H189.776L185.594 10.7603H185.463V21.0298H183.427V6.84814H186.023L190.538 17.8726Z" fill="black"/>
<path d="M215.419 10.2554C216.144 10.2554 216.779 10.4077 217.323 10.7124C217.868 11.0125 218.291 11.4606 218.591 12.0562C218.891 12.6516 219.041 13.3882 219.041 14.2651V21.0298H216.97V14.5142C216.97 13.7432 216.769 13.1405 216.367 12.7065C215.966 12.2682 215.414 12.0494 214.713 12.0493C214.233 12.0493 213.806 12.1531 213.432 12.3608C213.062 12.5686 212.769 12.8733 212.552 13.2749C212.34 13.6718 212.233 14.1523 212.233 14.7153V21.0298H210.163V10.394H212.15V12.1255H212.282C212.527 11.5623 212.91 11.1097 213.432 10.7681C213.958 10.4264 214.62 10.2554 215.419 10.2554Z" fill="black"/>
<path d="M264.176 10.2554C265.141 10.2554 265.928 10.5579 266.537 11.1626C267.151 11.7674 267.458 12.6793 267.458 13.8979V21.0298H265.388V14.0913C265.388 13.3714 265.191 12.85 264.799 12.5269C264.406 12.2037 263.937 12.0415 263.393 12.0415C262.719 12.0416 262.195 12.2501 261.821 12.6655C261.448 13.0763 261.26 13.6044 261.26 14.2505V21.0298H259.196V13.9604C259.196 13.3834 259.016 12.9187 258.656 12.5679C258.296 12.2173 257.828 12.0415 257.251 12.0415C256.859 12.0415 256.496 12.1463 256.164 12.354C255.836 12.5571 255.57 12.8409 255.367 13.2056C255.169 13.5701 255.069 13.9923 255.069 14.4722V21.0298H252.999V10.394H254.986V12.1255H255.118C255.34 11.5393 255.702 11.0822 256.205 10.7544C256.708 10.422 257.311 10.2554 258.013 10.2554C258.724 10.2554 259.319 10.422 259.799 10.7544C260.284 11.0868 260.641 11.5438 260.872 12.1255H260.983C261.237 11.5577 261.641 11.1051 262.195 10.7681C262.749 10.4265 263.409 10.2554 264.176 10.2554Z" fill="black"/>
<path d="M285.233 10.2554C285.958 10.2554 286.593 10.4077 287.138 10.7124C287.682 11.0125 288.105 11.4606 288.405 12.0562C288.705 12.6516 288.855 13.3882 288.855 14.2651V21.0298H286.784V14.5142C286.784 13.7432 286.583 13.1405 286.182 12.7065C285.78 12.2682 285.229 12.0494 284.527 12.0493C284.047 12.0493 283.62 12.1531 283.246 12.3608C282.877 12.5686 282.583 12.8733 282.366 13.2749C282.154 13.6718 282.048 14.1523 282.048 14.7153V21.0298H279.978V10.394H281.965V12.1255H282.097C282.341 11.5623 282.724 11.1097 283.246 10.7681C283.772 10.4264 284.435 10.2554 285.233 10.2554Z" fill="black"/>
<path d="M6.52637 17.5776L9.96484 6.97119H13.415L16.9102 17.6343L20.1904 6.97119H23.3662L18.749 20.9282H15.1064L11.6553 10.396L8.2041 20.9282H4.61719L0 6.97119H3.25L6.52637 17.5776Z" fill="black"/>
<path d="M75.9707 11.6323L79.3779 6.97119H83L77.8184 13.7769L83.0781 20.9282H79.335L75.7959 16.0747L72.3018 20.9282H68.7324L73.9746 13.8032L68.8154 6.97119H72.5635L75.9707 11.6323Z" fill="black"/>
<path d="M154 6.27979C154.36 6.27979 154.667 6.40233 154.921 6.64697C155.179 6.88697 155.309 7.17754 155.309 7.51904C155.309 7.85605 155.179 8.14742 154.921 8.39209C154.667 8.63197 154.36 8.75146 154 8.75146C153.64 8.75142 153.331 8.63202 153.072 8.39209C152.818 8.14742 152.691 7.85605 152.691 7.51904C152.691 7.17758 152.818 6.88695 153.072 6.64697C153.331 6.40234 153.64 6.27983 154 6.27979Z" fill="black"/>
</svg>
