<svg width="212" height="28" viewBox="0 0 212 28" fill="none" xmlns="http://www.w3.org/2000/svg">
<path fill-rule="evenodd" clip-rule="evenodd" d="M50.1753 7.57681C51.2395 8.20836 52.112 9.11734 52.6993 10.2065C53.309 11.3753 53.6273 12.6741 53.6273 13.9924C53.6273 15.3107 53.309 16.6095 52.6993 17.7783C52.1098 18.8718 51.2324 19.7835 50.1624 20.4146C49.0922 21.0458 47.87 21.3723 46.6276 21.3592C45.7567 21.3761 44.8935 21.1937 44.1036 20.826C43.3788 20.4742 42.7438 19.9617 42.2469 19.3274V20.9932H39.1929V1.03027H42.2469V8.65738C42.7434 8.02309 43.3786 7.51098 44.1036 7.16035C44.893 6.79135 45.7565 6.60841 46.6276 6.62559C47.8751 6.61141 49.1023 6.94048 50.1753 7.57681ZM48.5032 17.8793C49.1378 17.4885 49.6491 16.9263 49.9782 16.2577C50.3157 15.5502 50.4908 14.7763 50.4908 13.9924C50.4908 13.2086 50.3157 12.4346 49.9782 11.7272C49.6491 11.058 49.1378 10.4954 48.5032 10.1039C47.8298 9.71367 47.0657 9.50696 46.2872 9.50448C45.5089 9.50199 44.7435 9.7038 44.0673 10.0897C43.431 10.4769 42.9148 11.0335 42.5766 11.6972C42.2261 12.4112 42.0438 13.1961 42.0438 13.9916C42.0438 14.7871 42.2261 15.572 42.5766 16.2861C42.9148 16.9498 43.431 17.5064 44.0673 17.8935C44.7435 18.2795 45.5089 18.4813 46.2872 18.4787C47.0657 18.4762 47.8298 18.2696 48.5032 17.8793Z" fill="black"/>
<path fill-rule="evenodd" clip-rule="evenodd" d="M26.7719 15.117H37.1107C37.1454 14.6501 37.1627 14.2699 37.1627 13.9765C37.1887 12.6519 36.9005 11.3399 36.3219 10.148C35.8042 9.08245 34.9973 8.18385 33.9936 7.5546C32.9572 6.92558 31.7636 6.60341 30.5515 6.62546C29.2804 6.60097 28.0263 6.92209 26.9233 7.5546C25.8732 8.17141 25.0193 9.07339 24.4609 10.1559C23.8548 11.3423 23.5513 12.6602 23.5775 13.9923C23.5775 15.4541 23.8819 16.7424 24.4908 17.8571C25.0683 18.9426 25.944 19.8402 27.0148 20.4442C28.1528 21.0676 29.434 21.3825 30.7313 21.3576C31.7845 21.368 32.8327 21.2126 33.8374 20.8969C34.8137 20.5751 35.7154 20.0607 36.4891 19.3841L34.97 17.2072C34.3876 17.6727 33.7334 18.0403 33.0329 18.2957C32.3577 18.5481 31.6431 18.679 30.9222 18.6821C30.2718 18.6888 29.6271 18.5597 29.0292 18.3036C28.4437 18.0455 27.9368 17.6367 27.5606 17.1189C27.1383 16.526 26.8675 15.8387 26.7719 15.117ZM32.8578 10.2505C33.4773 10.8542 33.8696 11.7018 34.0346 12.7934L26.7798 12.7966C26.9555 11.7323 27.3571 10.891 27.9849 10.2726C28.6128 9.65422 29.4484 9.34504 30.4916 9.34504C31.4497 9.34504 32.2385 9.64686 32.8578 10.2505Z" fill="black"/>
<path d="M20.2548 6.99157H23.4413L18.8114 20.9917H15.1548L11.6844 10.4226L8.22182 20.9917H4.63305L0 6.99157H3.25907L6.54653 17.6301L9.99648 6.99157H13.459L16.9532 17.6901L20.2548 6.99157Z" fill="black"/>
<path fill-rule="evenodd" clip-rule="evenodd" d="M58.4392 15.117H68.7717C68.8107 14.6501 68.8316 14.2699 68.8348 13.9765C68.8607 12.6519 68.5726 11.3399 67.994 10.148C67.4736 9.08123 66.6634 8.1825 65.6562 7.55462C64.6199 6.9252 63.4262 6.60298 62.2141 6.62548C60.9428 6.60082 59.6889 6.92197 58.5859 7.55462C57.5353 8.17103 56.6814 9.07309 56.1235 10.1559C55.5168 11.3422 55.2128 12.6601 55.2385 13.9923C55.2385 15.4541 55.543 16.7424 56.1519 17.8571C56.7328 18.9442 57.6131 19.8419 58.6885 20.4442C59.8249 21.0673 61.1045 21.3822 62.4003 21.3576C63.4529 21.368 64.5005 21.2126 65.5047 20.8969C66.482 20.5753 67.3848 20.0609 68.1596 19.3841L66.6389 17.2072C66.0573 17.673 65.4035 18.0406 64.7034 18.2957C64.0276 18.5482 63.3125 18.6791 62.5911 18.6821C61.9407 18.6888 61.296 18.5599 60.6982 18.3036C60.1121 18.0453 59.6048 17.6366 59.228 17.1189C58.8055 16.526 58.5348 15.8387 58.4392 15.117ZM64.5267 10.2505C65.144 10.8542 65.5363 11.7018 65.7035 12.7934L58.4392 12.7966C58.6138 11.7323 59.0155 10.891 59.6444 10.2726C60.2733 9.65424 61.1088 9.34505 62.151 9.34505C63.1175 9.34505 63.9094 9.64687 64.5267 10.2505Z" fill="black"/>
<path d="M79.587 20.9917H83.3429L78.0663 13.8157L83.2404 6.99157H79.6296L76.2112 11.6688L72.7912 6.99157H69.0352L74.2235 13.8457L68.9469 20.9917H72.5278L76.0345 16.1252L79.587 20.9917Z" fill="black"/>
<path d="M205.494 21.0002V10.5002H207.47V12.1682H207.579C207.771 11.6031 208.108 11.1588 208.591 10.8352C209.079 10.5071 209.63 10.343 210.245 10.343C210.373 10.343 210.523 10.3476 210.697 10.3567C210.874 10.3658 211.013 10.3772 211.114 10.3909V12.3459C211.031 12.3232 210.886 12.2981 210.676 12.2708C210.466 12.2389 210.257 12.2229 210.047 12.2229C209.564 12.2229 209.133 12.3254 208.755 12.5305C208.381 12.731 208.085 13.0113 207.866 13.3713C207.648 13.7268 207.538 14.1324 207.538 14.5881V21.0002H205.494Z" fill="black"/>
<path fill-rule="evenodd" clip-rule="evenodd" d="M196.899 20.5491C197.646 20.9911 198.537 21.2122 199.572 21.2122C200.337 21.2122 201.018 21.0959 201.615 20.8635C202.217 20.6265 202.716 20.2961 203.113 19.8723C203.514 19.4439 203.792 18.9449 203.947 18.3752L202.012 18.0266C201.889 18.3547 201.711 18.6305 201.479 18.8538C201.246 19.0771 200.971 19.2457 200.652 19.3596C200.333 19.469 199.979 19.5237 199.592 19.5237C198.995 19.5237 198.473 19.3961 198.027 19.1409C197.58 18.8811 197.231 18.5051 196.981 18.0129C196.752 17.5547 196.629 17.0055 196.613 16.3655H204.076V15.6409C204.076 14.6884 203.949 13.8795 203.694 13.2141C203.438 12.5442 203.09 11.9996 202.648 11.5803C202.206 11.1611 201.707 10.8534 201.151 10.6575C200.595 10.4615 200.02 10.3635 199.428 10.3635C198.453 10.3635 197.601 10.5937 196.871 11.054C196.147 11.5142 195.582 12.1545 195.176 12.9749C194.775 13.7952 194.574 14.7431 194.574 15.8186C194.574 16.9078 194.775 17.858 195.176 18.6692C195.582 19.4758 196.156 20.1025 196.899 20.5491ZM202.073 14.8342H196.617C196.641 14.3829 196.754 13.9613 196.953 13.5696C197.186 13.1184 197.514 12.7538 197.938 12.4758C198.366 12.1933 198.867 12.052 199.442 12.052C199.97 12.052 200.431 12.1728 200.823 12.4143C201.219 12.6558 201.527 12.9862 201.745 13.4055C201.964 13.8202 202.073 14.2965 202.073 14.8342Z" fill="black"/>
<path d="M186.435 14.7659V21.0002H184.391V10.5002H186.353V12.2092H186.483C186.725 11.6532 187.103 11.2066 187.618 10.8694C188.137 10.5321 188.791 10.3635 189.58 10.3635C190.295 10.3635 190.922 10.5139 191.46 10.8147C191.997 11.1109 192.414 11.553 192.711 12.1409C193.007 12.7288 193.155 13.4556 193.155 14.3215V21.0002H191.111V14.5676C191.111 13.8066 190.913 13.2118 190.516 12.7834C190.12 12.3505 189.575 12.134 188.883 12.134C188.409 12.134 187.987 12.2366 187.618 12.4417C187.253 12.6467 186.964 12.9475 186.75 13.344C186.54 13.7359 186.435 14.2099 186.435 14.7659Z" fill="black"/>
<path fill-rule="evenodd" clip-rule="evenodd" d="M175.61 24.8079C176.211 25.0266 176.929 25.136 177.763 25.136C178.656 25.136 179.458 24.997 180.169 24.719C180.885 24.441 181.452 24.0126 181.871 23.4338C182.291 22.8596 182.5 22.1259 182.5 21.2327V10.5002H180.497V12.2024H180.347C180.224 11.9836 180.048 11.7307 179.821 11.4436C179.597 11.1565 179.285 10.9058 178.884 10.6917C178.483 10.4729 177.957 10.3635 177.305 10.3635C176.462 10.3635 175.708 10.5777 175.042 11.0061C174.377 11.4299 173.853 12.0406 173.47 12.8381C173.092 13.6357 172.903 14.5927 172.903 15.7092C172.903 16.8258 173.094 17.7668 173.477 18.5325C173.864 19.2935 174.388 19.87 175.049 20.262C175.714 20.6493 176.462 20.843 177.291 20.843C177.934 20.843 178.456 20.7428 178.857 20.5422C179.258 20.3417 179.572 20.1047 179.8 19.8313C180.032 19.5579 180.21 19.3095 180.333 19.0862H180.463V21.1506C180.463 21.9618 180.21 22.5543 179.704 22.928C179.198 23.3017 178.558 23.4885 177.783 23.4885C177.218 23.4885 176.756 23.4088 176.396 23.2493C176.04 23.0898 175.758 22.8984 175.548 22.675C175.343 22.4517 175.179 22.2444 175.056 22.053L173.299 22.7776C173.486 23.1969 173.768 23.5842 174.147 23.9397C174.525 24.2997 175.013 24.5891 175.61 24.8079ZM179.233 18.7375C178.827 19.011 178.33 19.1477 177.742 19.1477C177.136 19.1477 176.626 19.0019 176.211 18.7102C175.801 18.4185 175.491 18.0129 175.281 17.4934C175.072 16.9739 174.967 16.37 174.967 15.6819C174.967 15.012 175.07 14.4058 175.275 13.8635C175.484 13.3212 175.794 12.8928 176.204 12.5784C176.615 12.2594 177.127 12.0999 177.742 12.0999C178.339 12.0999 178.841 12.2525 179.246 12.5579C179.652 12.8586 179.96 13.2779 180.169 13.8157C180.379 14.3534 180.484 14.9755 180.484 15.6819C180.484 16.4065 180.377 17.0286 180.162 17.5481C179.953 18.0631 179.643 18.4596 179.233 18.7375Z" fill="black"/>
<path d="M169.417 21.0002V10.5002H171.461V21.0002H169.417Z" fill="black"/>
<path d="M170.449 8.88013C170.094 8.88013 169.788 8.76164 169.533 8.52466C169.282 8.28312 169.157 7.99601 169.157 7.66333C169.157 7.32609 169.282 7.03898 169.533 6.802C169.788 6.56047 170.094 6.4397 170.449 6.4397C170.804 6.4397 171.107 6.56047 171.358 6.802C171.613 7.03898 171.741 7.32609 171.741 7.66333C171.741 7.99601 171.613 8.28312 171.358 8.52466C171.107 8.76164 170.804 8.88013 170.449 8.88013Z" fill="black"/>
<path d="M165.962 13.3918L167.814 13.0637C167.605 12.2434 167.174 11.5894 166.522 11.1018C165.871 10.6096 164.978 10.3635 163.843 10.3635C163.054 10.3635 162.355 10.4957 161.744 10.76C161.133 11.0198 160.655 11.3821 160.309 11.8469C159.962 12.3118 159.789 12.8541 159.789 13.4739C159.789 14.2213 160.021 14.8388 160.486 15.3264C160.956 15.814 161.68 16.1695 162.66 16.3928L164.438 16.7825C164.939 16.8964 165.31 17.065 165.552 17.2883C165.798 17.5116 165.921 17.7874 165.921 18.1155C165.921 18.5211 165.72 18.8652 165.319 19.1477C164.918 19.4257 164.383 19.5647 163.713 19.5647C163.098 19.5647 162.599 19.4348 162.216 19.175C161.833 18.9107 161.58 18.5211 161.457 18.0061L159.481 18.3069C159.65 19.2366 160.106 19.9543 160.849 20.4602C161.591 20.9615 162.551 21.2122 163.727 21.2122C164.574 21.2122 165.319 21.0732 165.962 20.7952C166.609 20.5172 167.113 20.1344 167.473 19.6467C167.837 19.1545 168.02 18.594 168.02 17.9651C168.02 17.2222 167.783 16.6184 167.309 16.1536C166.835 15.6887 166.115 15.3446 165.148 15.1213L163.48 14.7385C162.902 14.6018 162.482 14.4264 162.223 14.2122C161.963 13.998 161.833 13.7154 161.833 13.3645C161.833 12.9589 162.027 12.6285 162.414 12.3733C162.801 12.1135 163.285 11.9836 163.863 11.9836C164.287 11.9836 164.64 12.052 164.923 12.1887C165.205 12.3254 165.429 12.5009 165.593 12.7151C165.761 12.9293 165.884 13.1549 165.962 13.3918Z" fill="black"/>
<path fill-rule="evenodd" clip-rule="evenodd" d="M154.023 21.2122C152.989 21.2122 152.098 20.9911 151.351 20.5491C150.608 20.1025 150.034 19.4758 149.628 18.6692C149.227 17.858 149.026 16.9078 149.026 15.8186C149.026 14.7431 149.227 13.7952 149.628 12.9749C150.034 12.1545 150.599 11.5142 151.323 11.054C152.052 10.5937 152.905 10.3635 153.88 10.3635C154.472 10.3635 155.047 10.4615 155.603 10.6575C156.159 10.8534 156.658 11.1611 157.1 11.5803C157.542 11.9996 157.89 12.5442 158.146 13.2141C158.401 13.8795 158.528 14.6884 158.528 15.6409V16.3655H151.065C151.081 17.0055 151.203 17.5547 151.433 18.0129C151.683 18.5051 152.032 18.8811 152.479 19.1409C152.925 19.3961 153.447 19.5237 154.044 19.5237C154.431 19.5237 154.785 19.469 155.104 19.3596C155.423 19.2457 155.698 19.0771 155.931 18.8538C156.163 18.6305 156.341 18.3547 156.464 18.0266L158.398 18.3752C158.243 18.9449 157.965 19.4439 157.564 19.8723C157.168 20.2961 156.669 20.6265 156.067 20.8635C155.47 21.0959 154.789 21.2122 154.023 21.2122ZM151.069 14.8342H156.525C156.525 14.2965 156.416 13.8202 156.197 13.4055C155.979 12.9862 155.671 12.6558 155.274 12.4143C154.882 12.1728 154.422 12.052 153.894 12.052C153.319 12.052 152.818 12.1933 152.39 12.4758C151.966 12.7538 151.638 13.1184 151.405 13.5696C151.205 13.9613 151.093 14.3829 151.069 14.8342Z" fill="black"/>
<path fill-rule="evenodd" clip-rule="evenodd" d="M136.62 21.0002H141.152C142.574 21.0002 143.786 20.72 144.789 20.1594C145.791 19.5943 146.557 18.7877 147.086 17.7395C147.619 16.6913 147.885 15.4381 147.885 13.9797C147.885 12.526 147.621 11.2795 147.093 10.2405C146.568 9.19686 145.814 8.39705 144.83 7.84106C143.845 7.28052 142.667 7.00024 141.296 7.00024H136.62V21.0002ZM141.036 19.1545H138.732V8.84595H141.166C142.187 8.84595 143.041 9.04419 143.729 9.44067C144.417 9.83716 144.935 10.4182 145.281 11.1838C145.632 11.9495 145.807 12.8814 145.807 13.9797C145.807 15.0872 145.632 16.026 145.281 16.7961C144.93 17.5618 144.401 18.1474 143.695 18.553C142.989 18.954 142.102 19.1545 141.036 19.1545Z" fill="black"/>
<path d="M119.453 21.0002L116.363 10.5002H118.475L120.533 18.2112H120.635L122.7 10.5002H124.812L126.863 18.177H126.965L129.009 10.5002H131.122L128.039 21.0002H125.954L123.821 13.4192H123.664L121.531 21.0002H119.453Z" fill="black"/>
<path fill-rule="evenodd" clip-rule="evenodd" d="M108.593 20.5354C109.326 20.9866 110.186 21.2122 111.17 21.2122C112.154 21.2122 113.013 20.9866 113.747 20.5354C114.481 20.0842 115.05 19.453 115.456 18.6418C115.862 17.8306 116.064 16.8827 116.064 15.7981C116.064 14.7089 115.862 13.7564 115.456 12.9407C115.05 12.1249 114.481 11.4915 113.747 11.0403C113.013 10.5891 112.154 10.3635 111.17 10.3635C110.186 10.3635 109.326 10.5891 108.593 11.0403C107.859 11.4915 107.289 12.1249 106.884 12.9407C106.478 13.7564 106.275 14.7089 106.275 15.7981C106.275 16.8827 106.478 17.8306 106.884 18.6418C107.289 19.453 107.859 20.0842 108.593 20.5354ZM112.763 18.9905C112.343 19.3277 111.815 19.4963 111.177 19.4963C110.534 19.4963 110.001 19.3277 109.577 18.9905C109.158 18.6532 108.846 18.2043 108.641 17.6438C108.44 17.0833 108.34 16.4657 108.34 15.7913C108.34 15.1213 108.44 14.5061 108.641 13.9456C108.846 13.3805 109.158 12.927 109.577 12.5852C110.001 12.2434 110.534 12.0725 111.177 12.0725C111.815 12.0725 112.343 12.2434 112.763 12.5852C113.182 12.927 113.492 13.3805 113.692 13.9456C113.897 14.5061 114 15.1213 114 15.7913C114 16.4657 113.897 17.0833 113.692 17.6438C113.492 18.2043 113.182 18.6532 112.763 18.9905Z" fill="black"/>
<path d="M104.847 7.00024V21.0002H102.803V7.00024H104.847Z" fill="black"/>
<path d="M92.5381 7.00024V21.0002H94.6504V14.8958H100.598V13.0842H94.6504V8.8186H101.22V7.00024H92.5381Z" fill="black"/>
</svg>
