<svg width="209" height="28" viewBox="0 0 209 28" fill="none" xmlns="http://www.w3.org/2000/svg">
<path fill-rule="evenodd" clip-rule="evenodd" d="M52.6993 10.2055C52.112 9.11636 51.2395 8.20739 50.1753 7.57583C49.1023 6.93951 47.8751 6.61043 46.6276 6.62461C45.7565 6.60743 44.893 6.79037 44.1036 7.15937C43.3786 7.51 42.7434 8.02211 42.2469 8.6564V1.0293H39.1929V20.9923H42.2469V19.3264C42.7438 19.9607 43.3788 20.4733 44.1036 20.825C44.8935 21.1927 45.7567 21.3751 46.6276 21.3582C47.87 21.3713 49.0922 21.0448 50.1624 20.4136C51.2324 19.7825 52.1098 18.8709 52.6993 17.7773C53.309 16.6085 53.6273 15.3097 53.6273 13.9914C53.6273 12.6732 53.309 11.3743 52.6993 10.2055ZM49.9782 16.2567C49.6491 16.9254 49.1378 17.4876 48.5032 17.8783C47.8298 18.2686 47.0657 18.4752 46.2872 18.4778C45.5089 18.4803 44.7435 18.2785 44.0673 17.8925C43.431 17.5054 42.9148 16.9489 42.5766 16.2851C42.2261 15.571 42.0438 14.7861 42.0438 13.9906C42.0438 13.1952 42.2261 12.4103 42.5766 11.6962C42.9148 11.0325 43.431 10.476 44.0673 10.0888C44.7435 9.70282 45.5089 9.50101 46.2872 9.50351C47.0657 9.50598 47.8298 9.7127 48.5032 10.1029C49.1378 10.4944 49.6491 11.0571 49.9782 11.7262C50.3157 12.4336 50.4908 13.2076 50.4908 13.9914C50.4908 14.7753 50.3157 15.5492 49.9782 16.2567Z" fill="white"/>
<path fill-rule="evenodd" clip-rule="evenodd" d="M37.1107 15.1161H26.7719C26.8675 15.8377 27.1383 16.525 27.5606 17.1179C27.9368 17.6358 28.4437 18.0445 29.0292 18.3026C29.6271 18.5588 30.2718 18.6878 30.9222 18.6812C31.6431 18.678 32.3577 18.5471 33.0329 18.2947C33.7334 18.0393 34.3876 17.6717 34.97 17.2062L36.4891 19.3831C35.7154 20.0597 34.8137 20.5741 33.8374 20.8959C32.8327 21.2116 31.7845 21.367 30.7313 21.3566C29.434 21.3815 28.1528 21.0666 27.0148 20.4432C25.944 19.8392 25.0683 18.9416 24.4908 17.8561C23.8819 16.7414 23.5775 15.4531 23.5775 13.9913C23.5513 12.6592 23.8548 11.3413 24.4609 10.1549C25.0193 9.07242 25.8732 8.17043 26.9233 7.55362C28.0263 6.92111 29.2804 6.59999 30.5515 6.62449C31.7636 6.60243 32.9572 6.9246 33.9936 7.55362C34.9973 8.18288 35.8042 9.08147 36.3219 10.147C36.9005 11.3389 37.1887 12.6509 37.1627 13.9755C37.1627 14.2689 37.1454 14.6491 37.1107 15.1161ZM34.0346 12.7924C33.8696 11.7008 33.4773 10.8532 32.8578 10.2495C32.2385 9.64588 31.4497 9.34406 30.4916 9.34406C29.4484 9.34406 28.6128 9.65325 27.9849 10.2716C27.3571 10.89 26.9555 11.7313 26.7798 12.7956L34.0346 12.7924Z" fill="white"/>
<path d="M23.4413 6.99059H20.2548L16.9532 17.6891L13.459 6.99059H9.99648L6.54653 17.6291L3.25907 6.99059H0L4.63305 20.9907H8.22182L11.6844 10.4216L15.1548 20.9907H18.8114L23.4413 6.99059Z" fill="white"/>
<path fill-rule="evenodd" clip-rule="evenodd" d="M68.7717 15.1161H58.4392C58.5348 15.8377 58.8055 16.525 59.228 17.1179C59.6048 17.6356 60.1121 18.0443 60.6982 18.3026C61.296 18.5589 61.9407 18.6878 62.5911 18.6812C63.3125 18.6782 64.0276 18.5472 64.7034 18.2947C65.4035 18.0396 66.0573 17.6721 66.6389 17.2062L68.1596 19.3831C67.3848 20.0599 66.482 20.5743 65.5047 20.8959C64.5005 21.2116 63.4529 21.367 62.4003 21.3566C61.1045 21.3812 59.8249 21.0663 58.6885 20.4432C57.6131 19.8409 56.7328 18.9432 56.1519 17.8561C55.543 16.7414 55.2385 15.4531 55.2385 13.9913C55.2128 12.6591 55.5168 11.3412 56.1235 10.1549C56.6814 9.07212 57.5353 8.17005 58.5859 7.55364C59.6889 6.92099 60.9428 6.59985 62.2141 6.6245C63.4262 6.60201 64.6199 6.92422 65.6562 7.55364C66.6634 8.18152 67.4736 9.08026 67.994 10.147C68.5726 11.3389 68.8607 12.6509 68.8348 13.9756C68.8316 14.269 68.8107 14.6491 68.7717 15.1161ZM65.7035 12.7924C65.5363 11.7008 65.144 10.8532 64.5267 10.2495C63.9094 9.64589 63.1175 9.34408 62.151 9.34408C61.1088 9.34408 60.2733 9.65326 59.6444 10.2716C59.0155 10.89 58.6138 11.7313 58.4392 12.7956L65.7035 12.7924Z" fill="white"/>
<path d="M83.3429 20.9907H79.587L76.0345 16.1242L72.5278 20.9907H68.9469L74.2235 13.8447L69.0352 6.99059H72.7912L76.2112 11.6678L79.6296 6.99059H83.2404L78.0663 13.8148L83.3429 20.9907Z" fill="white"/>
<path d="M205.603 13.3909L207.456 13.0627C207.246 12.2424 206.815 11.5885 206.164 11.1008C205.512 10.6086 204.619 10.3625 203.484 10.3625C202.695 10.3625 201.996 10.4947 201.385 10.759C200.775 11.0188 200.296 11.3811 199.95 11.8459C199.603 12.3108 199.43 12.8531 199.43 13.4729C199.43 14.2203 199.663 14.8378 200.127 15.3254C200.597 15.8131 201.321 16.1685 202.301 16.3918L204.079 16.7815C204.58 16.8954 204.951 17.064 205.193 17.2874C205.439 17.5107 205.562 17.7864 205.562 18.1145C205.562 18.5201 205.361 18.8642 204.96 19.1467C204.559 19.4247 204.024 19.5637 203.354 19.5637C202.739 19.5637 202.24 19.4338 201.857 19.1741C201.474 18.9097 201.221 18.5201 201.098 18.0051L199.123 18.3059C199.291 19.2356 199.747 19.9534 200.49 20.4592C201.233 20.9605 202.192 21.2112 203.368 21.2112C204.215 21.2112 204.96 21.0722 205.603 20.7942C206.25 20.5162 206.754 20.1334 207.114 19.6458C207.478 19.1536 207.661 18.593 207.661 17.9641C207.661 17.2213 207.424 16.6174 206.95 16.1526C206.476 15.6877 205.756 15.3437 204.79 15.1204L203.122 14.7375C202.543 14.6008 202.124 14.4254 201.864 14.2112C201.604 13.997 201.474 13.7144 201.474 13.3635C201.474 12.9579 201.668 12.6275 202.055 12.3723C202.443 12.1125 202.926 11.9827 203.504 11.9827C203.928 11.9827 204.281 12.051 204.564 12.1877C204.847 12.3245 205.07 12.4999 205.234 12.7141C205.403 12.9283 205.526 13.1539 205.603 13.3909Z" fill="white"/>
<path fill-rule="evenodd" clip-rule="evenodd" d="M192.959 25.135C192.125 25.135 191.407 25.0256 190.806 24.8069C190.209 24.5881 189.721 24.2987 189.343 23.9387C188.965 23.5833 188.682 23.1959 188.495 22.7766L190.252 22.052C190.375 22.2434 190.539 22.4508 190.744 22.6741C190.954 22.8974 191.236 23.0888 191.592 23.2483C191.952 23.4078 192.414 23.4875 192.979 23.4875C193.754 23.4875 194.395 23.3007 194.9 22.927C195.406 22.5533 195.659 21.9609 195.659 21.1497V19.0852H195.529C195.406 19.3085 195.229 19.5569 194.996 19.8303C194.768 20.1038 194.454 20.3407 194.053 20.5413C193.652 20.7418 193.13 20.842 192.487 20.842C191.658 20.842 190.91 20.6484 190.245 20.261C189.584 19.8691 189.06 19.2926 188.673 18.5315C188.29 17.7659 188.099 16.8248 188.099 15.7083C188.099 14.5917 188.288 13.6347 188.666 12.8372C189.049 12.0396 189.573 11.429 190.238 11.0051C190.904 10.5767 191.658 10.3625 192.501 10.3625C193.153 10.3625 193.679 10.4719 194.08 10.6907C194.481 10.9049 194.793 11.1555 195.017 11.4426C195.244 11.7297 195.42 11.9827 195.543 12.2014H195.693V10.4993H197.696V21.2317C197.696 22.1249 197.487 22.8586 197.067 23.4329C196.648 24.0116 196.081 24.44 195.365 24.718C194.654 24.996 193.852 25.135 192.959 25.135ZM192.938 19.1467C193.526 19.1467 194.023 19.01 194.429 18.7366C194.839 18.4586 195.149 18.0621 195.358 17.5471C195.573 17.0276 195.68 16.4055 195.68 15.6809C195.68 14.9745 195.575 14.3525 195.365 13.8147C195.156 13.2769 194.848 12.8577 194.442 12.5569C194.037 12.2515 193.535 12.0989 192.938 12.0989C192.323 12.0989 191.811 12.2584 191.4 12.5774C190.99 12.8918 190.68 13.3202 190.471 13.8625C190.266 14.4049 190.163 15.011 190.163 15.6809C190.163 16.3691 190.268 16.9729 190.478 17.4924C190.687 18.012 190.997 18.4176 191.407 18.7092C191.822 19.0009 192.332 19.1467 192.938 19.1467Z" fill="white"/>
<path d="M179.946 20.9993V14.7649C179.946 14.2089 180.05 13.7349 180.26 13.343C180.474 12.9465 180.764 12.6458 181.128 12.4407C181.497 12.2356 181.919 12.1331 182.393 12.1331C183.086 12.1331 183.63 12.3495 184.027 12.7825C184.423 13.2109 184.621 13.8056 184.621 14.5667V20.9993H186.665V14.3206C186.665 13.4547 186.517 12.7278 186.221 12.1399C185.925 11.552 185.508 11.1099 184.97 10.8137C184.432 10.5129 183.806 10.3625 183.09 10.3625C182.302 10.3625 181.648 10.5312 181.128 10.8684C180.613 11.2056 180.235 11.6523 179.993 12.2083H179.864V10.4993H177.902V20.9993H179.946Z" fill="white"/>
<path d="M173.958 20.9993V10.4993H176.002V20.9993H173.958Z" fill="white"/>
<path d="M174.99 8.87915C174.635 8.87915 174.329 8.76066 174.074 8.52368C173.824 8.28215 173.698 7.99504 173.698 7.66235C173.698 7.32511 173.824 7.038 174.074 6.80102C174.329 6.55949 174.635 6.43872 174.99 6.43872C175.346 6.43872 175.649 6.55949 175.899 6.80102C176.155 7.038 176.282 7.32511 176.282 7.66235C176.282 7.99504 176.155 8.28215 175.899 8.52368C175.649 8.76066 175.346 8.87915 174.99 8.87915Z" fill="white"/>
<path d="M172.547 12.1399V10.4993H170.394V7.98364H168.35V10.4993H166.812V12.1399H168.35V18.3401C168.35 18.9736 168.493 19.4999 168.781 19.9192C169.068 20.3385 169.444 20.6484 169.908 20.8489C170.373 21.0494 170.875 21.1451 171.412 21.136C171.74 21.1314 172.014 21.1041 172.233 21.054C172.451 21.0084 172.62 20.9628 172.739 20.9172L172.369 19.2288C172.301 19.2424 172.205 19.2607 172.082 19.2834C171.959 19.3062 171.816 19.3176 171.652 19.3176C171.428 19.3176 171.221 19.2834 171.03 19.2151C170.843 19.1422 170.69 19.0077 170.572 18.8118C170.453 18.6112 170.394 18.3127 170.394 17.9163V12.1399H172.547Z" fill="white"/>
<path d="M166.235 10.4993V12.1399H164.081V17.9163C164.081 18.3127 164.141 18.6112 164.259 18.8118C164.378 19.0077 164.53 19.1422 164.717 19.2151C164.908 19.2834 165.116 19.3176 165.339 19.3176C165.503 19.3176 165.647 19.3062 165.77 19.2834C165.893 19.2607 165.989 19.2424 166.057 19.2288L166.426 20.9172C166.308 20.9628 166.139 21.0084 165.92 21.054C165.701 21.1041 165.428 21.1314 165.1 21.136C164.562 21.1451 164.061 21.0494 163.596 20.8489C163.131 20.6484 162.755 20.3385 162.468 19.9192C162.181 19.4999 162.037 18.9736 162.037 18.3401V12.1399H160.499V10.4993H162.037V7.98364H164.081V10.4993H166.235Z" fill="white"/>
<path fill-rule="evenodd" clip-rule="evenodd" d="M152.738 20.5481C153.485 20.9902 154.376 21.2112 155.411 21.2112C156.176 21.2112 156.858 21.095 157.455 20.8625C158.056 20.6256 158.555 20.2952 158.952 19.8713C159.353 19.443 159.631 18.9439 159.786 18.3743L157.851 18.0256C157.728 18.3538 157.55 18.6295 157.318 18.8528C157.085 19.0761 156.81 19.2447 156.491 19.3586C156.172 19.468 155.819 19.5227 155.431 19.5227C154.834 19.5227 154.312 19.3951 153.866 19.1399C153.419 18.8801 153.07 18.5042 152.82 18.012C152.591 17.5537 152.468 17.0045 152.452 16.3645H159.916V15.6399C159.916 14.6874 159.788 13.8785 159.533 13.2131C159.278 12.5432 158.929 11.9986 158.487 11.5793C158.045 11.1601 157.546 10.8525 156.99 10.6565C156.434 10.4605 155.86 10.3625 155.267 10.3625C154.292 10.3625 153.44 10.5927 152.71 11.053C151.986 11.5133 151.421 12.1536 151.015 12.9739C150.614 13.7942 150.414 14.7421 150.414 15.8176C150.414 16.9068 150.614 17.857 151.015 18.6682C151.421 19.4749 151.995 20.1015 152.738 20.5481ZM152.456 14.8333H157.913C157.913 14.2955 157.803 13.8193 157.584 13.4045C157.366 12.9853 157.058 12.6549 156.662 12.4133C156.27 12.1718 155.809 12.051 155.281 12.051C154.707 12.051 154.205 12.1923 153.777 12.4749C153.353 12.7528 153.025 13.1174 152.792 13.5686C152.593 13.9603 152.48 14.3819 152.456 14.8333Z" fill="white"/>
<path d="M147.146 10.677C147.074 10.0299 146.773 9.52856 146.244 9.1731C145.715 8.81307 145.05 8.63306 144.248 8.63306C143.674 8.63306 143.177 8.7242 142.758 8.90649C142.339 9.08423 142.013 9.33032 141.78 9.64478C141.552 9.95467 141.438 10.3079 141.438 10.7043C141.438 11.037 141.516 11.3241 141.671 11.5657C141.83 11.8072 142.038 12.01 142.293 12.1741C142.553 12.3336 142.831 12.468 143.127 12.5774C143.423 12.6822 143.708 12.7688 143.981 12.8372L145.349 13.1926C145.795 13.302 146.253 13.4501 146.723 13.637C147.192 13.8238 147.627 14.0699 148.028 14.3752C148.429 14.6806 148.753 15.0588 148.999 15.51C149.25 15.9612 149.375 16.5012 149.375 17.1301C149.375 17.9231 149.17 18.6272 148.76 19.2424C148.354 19.8577 147.764 20.343 146.989 20.6985C146.219 21.054 145.287 21.2317 144.193 21.2317C143.145 21.2317 142.238 21.0653 141.473 20.7327C140.707 20.4 140.108 19.9283 139.675 19.3176C139.242 18.7024 139.003 17.9732 138.957 17.1301H141.076C141.117 17.636 141.281 18.0575 141.568 18.3948C141.86 18.7275 142.231 18.9758 142.683 19.1399C143.138 19.2994 143.637 19.3792 144.18 19.3792C144.777 19.3792 145.308 19.2857 145.772 19.0989C146.242 18.9075 146.611 18.6431 146.88 18.3059C147.149 17.9641 147.283 17.5653 147.283 17.1096C147.283 16.6949 147.165 16.3554 146.928 16.0911C146.695 15.8267 146.379 15.608 145.978 15.4348C145.581 15.2616 145.132 15.109 144.631 14.9768L142.977 14.5256C141.855 14.2203 140.967 13.7714 140.311 13.179C139.659 12.5865 139.333 11.8027 139.333 10.8274C139.333 10.0208 139.552 9.31665 139.989 8.71509C140.427 8.11352 141.019 7.6464 141.767 7.31372C142.514 6.97648 143.357 6.80786 144.296 6.80786C145.244 6.80786 146.08 6.9742 146.805 7.30689C147.534 7.63957 148.108 8.09758 148.527 8.68091C148.947 9.25968 149.165 9.92505 149.184 10.677H147.146Z" fill="white"/>
<path fill-rule="evenodd" clip-rule="evenodd" d="M126.507 20.5481C127.254 20.9902 128.145 21.2112 129.18 21.2112C129.945 21.2112 130.627 21.095 131.224 20.8625C131.825 20.6256 132.324 20.2952 132.721 19.8713C133.122 19.443 133.4 18.9439 133.555 18.3743L131.62 18.0256C131.497 18.3538 131.319 18.6295 131.087 18.8528C130.854 19.0761 130.579 19.2447 130.26 19.3586C129.941 19.468 129.588 19.5227 129.2 19.5227C128.603 19.5227 128.081 19.3951 127.635 19.1399C127.188 18.8801 126.84 18.5042 126.589 18.012C126.36 17.5537 126.237 17.0045 126.221 16.3645H133.685V15.6399C133.685 14.6874 133.557 13.8785 133.302 13.2131C133.047 12.5432 132.698 11.9986 132.256 11.5793C131.814 11.1601 131.315 10.8525 130.759 10.6565C130.203 10.4605 129.629 10.3625 129.036 10.3625C128.061 10.3625 127.209 10.5927 126.479 11.053C125.755 11.5133 125.19 12.1536 124.784 12.9739C124.383 13.7942 124.183 14.7421 124.183 15.8176C124.183 16.9068 124.383 17.857 124.784 18.6682C125.19 19.4749 125.764 20.1015 126.507 20.5481ZM126.225 14.8333H131.682C131.682 14.2955 131.572 13.8193 131.354 13.4045C131.135 12.9853 130.827 12.6549 130.431 12.4133C130.039 12.1718 129.578 12.051 129.05 12.051C128.476 12.051 127.974 12.1923 127.546 12.4749C127.122 12.7528 126.794 13.1174 126.562 13.5686C126.362 13.9603 126.249 14.3819 126.225 14.8333Z" fill="white"/>
<path d="M123.356 10.4993V12.1399H121.203V17.9163C121.203 18.3127 121.262 18.6112 121.38 18.8118C121.499 19.0077 121.652 19.1422 121.838 19.2151C122.03 19.2834 122.237 19.3176 122.46 19.3176C122.625 19.3176 122.768 19.3062 122.891 19.2834C123.014 19.2607 123.11 19.2424 123.178 19.2288L123.547 20.9172C123.429 20.9628 123.26 21.0084 123.042 21.054C122.823 21.1041 122.549 21.1314 122.221 21.136C121.683 21.1451 121.182 21.0494 120.717 20.8489C120.252 20.6484 119.876 20.3385 119.589 19.9192C119.302 19.4999 119.159 18.9736 119.159 18.3401V12.1399H117.621V10.4993H119.159V7.98364H121.203V10.4993H123.356Z" fill="white"/>
<path d="M114.511 10.4993V20.9993H116.555V10.4993H114.511Z" fill="white"/>
<path d="M114.627 8.52368C114.882 8.76066 115.188 8.87915 115.543 8.87915C115.899 8.87915 116.202 8.76066 116.452 8.52368C116.708 8.28215 116.835 7.99504 116.835 7.66235C116.835 7.32511 116.708 7.038 116.452 6.80102C116.202 6.55949 115.899 6.43872 115.543 6.43872C115.188 6.43872 114.882 6.55949 114.627 6.80102C114.377 7.038 114.251 7.32511 114.251 7.66235C114.251 7.99504 114.377 8.28215 114.627 8.52368Z" fill="white"/>
<path d="M110.564 16.6448V10.4993H112.615V20.9993H110.605V19.1809H110.495C110.254 19.7415 109.866 20.2086 109.333 20.5823C108.805 20.9514 108.146 21.136 107.358 21.136C106.683 21.136 106.086 20.9879 105.567 20.6917C105.052 20.3909 104.646 19.9465 104.35 19.3586C104.058 18.7708 103.912 18.0439 103.912 17.178V10.4993H105.956V16.9319C105.956 17.6474 106.155 18.217 106.551 18.6409C106.948 19.0647 107.462 19.2766 108.096 19.2766C108.479 19.2766 108.859 19.1809 109.238 18.9895C109.62 18.7981 109.937 18.5087 110.188 18.1213C110.443 17.734 110.568 17.2418 110.564 16.6448Z" fill="white"/>
<path d="M99.2715 9.1731C99.8001 9.52856 100.101 10.0299 100.174 10.677H102.211C102.193 9.92505 101.974 9.25968 101.555 8.68091C101.135 8.09758 100.561 7.63957 99.832 7.30689C99.1074 6.9742 98.2712 6.80786 97.3232 6.80786C96.3844 6.80786 95.5413 6.97648 94.7939 7.31372C94.0465 7.6464 93.4541 8.11352 93.0166 8.71509C92.5791 9.31665 92.3604 10.0208 92.3604 10.8274C92.3604 11.8027 92.6862 12.5865 93.3379 13.179C93.9941 13.7714 94.8828 14.2203 96.0039 14.5256L97.6582 14.9768C98.1595 15.109 98.6084 15.2616 99.0049 15.4348C99.4059 15.608 99.7227 15.8267 99.9551 16.0911C100.192 16.3554 100.311 16.6949 100.311 17.1096C100.311 17.5653 100.176 17.9641 99.9072 18.3059C99.6383 18.6431 99.2692 18.9075 98.7998 19.0989C98.335 19.2857 97.804 19.3792 97.207 19.3792C96.6647 19.3792 96.1657 19.2994 95.71 19.1399C95.2588 18.9758 94.8874 18.7275 94.5957 18.3948C94.3086 18.0575 94.1445 17.636 94.1035 17.1301H91.9844C92.0299 17.9732 92.2692 18.7024 92.7021 19.3176C93.1351 19.9283 93.7344 20.4 94.5 20.7327C95.2656 21.0653 96.1725 21.2317 97.2207 21.2317C98.3145 21.2317 99.2464 21.054 100.017 20.6985C100.791 20.343 101.382 19.8577 101.787 19.2424C102.197 18.6272 102.402 17.9231 102.402 17.1301C102.402 16.5012 102.277 15.9612 102.026 15.51C101.78 15.0588 101.457 14.6806 101.056 14.3752C100.655 14.0699 100.219 13.8238 99.75 13.637C99.2806 13.4501 98.8226 13.302 98.376 13.1926L97.0088 12.8372C96.7354 12.7688 96.4505 12.6822 96.1543 12.5774C95.8581 12.468 95.5801 12.3336 95.3203 12.1741C95.0651 12.01 94.8577 11.8072 94.6982 11.5657C94.5433 11.3241 94.4658 11.037 94.4658 10.7043C94.4658 10.3079 94.5798 9.95467 94.8076 9.64478C95.04 9.33032 95.3659 9.08423 95.7852 8.90649C96.2044 8.7242 96.7012 8.63306 97.2754 8.63306C98.0775 8.63306 98.7428 8.81307 99.2715 9.1731Z" fill="white"/>
</svg>
