<svg width="375" height="28" viewBox="0 0 375 28" fill="none" xmlns="http://www.w3.org/2000/svg">
<path fill-rule="evenodd" clip-rule="evenodd" d="M52.6993 10.206C52.112 9.11685 51.2395 8.20788 50.1753 7.57632C49.1023 6.93999 47.8751 6.61092 46.6276 6.6251C45.7565 6.60792 44.893 6.79086 44.1036 7.15986C43.3786 7.51049 42.7434 8.0226 42.2469 8.65689V1.02979H39.1929V20.9927H42.2469V19.3269C42.7438 19.9612 43.3788 20.4737 44.1036 20.8255C44.8935 21.1932 45.7567 21.3756 46.6276 21.3587C47.87 21.3718 49.0922 21.0453 50.1624 20.4141C51.2324 19.783 52.1098 18.8713 52.6993 17.7778C53.309 16.609 53.6273 15.3102 53.6273 13.9919C53.6273 12.6736 53.309 11.3748 52.6993 10.206ZM49.9782 16.2572C49.6491 16.9258 49.1378 17.4881 48.5032 17.8788C47.8298 18.2691 47.0657 18.4757 46.2872 18.4782C45.5089 18.4808 44.7435 18.279 44.0673 17.893C43.431 17.5059 42.9148 16.9493 42.5766 16.2856C42.2261 15.5715 42.0438 14.7866 42.0438 13.9911C42.0438 13.1956 42.2261 12.4108 42.5766 11.6967C42.9148 11.033 43.431 10.4764 44.0673 10.0892C44.7435 9.70331 45.5089 9.5015 46.2872 9.504C47.0657 9.50647 47.8298 9.71319 48.5032 10.1034C49.1378 10.4949 49.6491 11.0575 49.9782 11.7267C50.3157 12.4341 50.4908 13.2081 50.4908 13.9919C50.4908 14.7758 50.3157 15.5497 49.9782 16.2572Z" fill="white"/>
<path fill-rule="evenodd" clip-rule="evenodd" d="M37.1107 15.1165H26.7719C26.8675 15.8382 27.1383 16.5255 27.5606 17.1184C27.9368 17.6363 28.4437 18.045 29.0292 18.3031C29.6271 18.5592 30.2718 18.6883 30.9222 18.6817C31.6431 18.6785 32.3577 18.5476 33.0329 18.2952C33.7334 18.0398 34.3876 17.6722 34.97 17.2067L36.4891 19.3836C35.7154 20.0602 34.8137 20.5746 33.8374 20.8964C32.8327 21.2121 31.7845 21.3675 30.7313 21.3571C29.434 21.382 28.1528 21.0671 27.0148 20.4437C25.944 19.8397 25.0683 18.9421 24.4908 17.8566C23.8819 16.7419 23.5775 15.4536 23.5775 13.9918C23.5513 12.6597 23.8548 11.3418 24.4609 10.1554C25.0193 9.07291 25.8732 8.17092 26.9233 7.55411C28.0263 6.9216 29.2804 6.60048 30.5515 6.62498C31.7636 6.60292 32.9572 6.92509 33.9936 7.55411C34.9973 8.18336 35.8042 9.08196 36.3219 10.1475C36.9005 11.3394 37.1887 12.6514 37.1627 13.976C37.1627 14.2694 37.1454 14.6496 37.1107 15.1165ZM34.0346 12.7929C33.8696 11.7013 33.4773 10.8537 32.8578 10.25C32.2385 9.64637 31.4497 9.34455 30.4916 9.34455C29.4484 9.34455 28.6128 9.65373 27.9849 10.2721C27.3571 10.8905 26.9555 11.7318 26.7798 12.7961L34.0346 12.7929Z" fill="white"/>
<path d="M23.4413 6.99108H20.2548L16.9532 17.6896L13.459 6.99108H9.99648L6.54653 17.6296L3.25907 6.99108H0L4.63305 20.9912H8.22182L11.6844 10.4221L15.1548 20.9912H18.8114L23.4413 6.99108Z" fill="white"/>
<path fill-rule="evenodd" clip-rule="evenodd" d="M68.7717 15.1166H58.4392C58.5348 15.8382 58.8055 16.5255 59.228 17.1184C59.6048 17.6361 60.1121 18.0448 60.6982 18.3031C61.296 18.5594 61.9407 18.6883 62.5911 18.6817C63.3125 18.6787 64.0276 18.5477 64.7034 18.2952C65.4035 18.0401 66.0573 17.6725 66.6389 17.2067L68.1596 19.3836C67.3848 20.0604 66.482 20.5748 65.5047 20.8964C64.5005 21.2121 63.4529 21.3675 62.4003 21.3571C61.1045 21.3817 59.8249 21.0668 58.6885 20.4437C57.6131 19.8414 56.7328 18.9437 56.1519 17.8566C55.543 16.7419 55.2385 15.4536 55.2385 13.9918C55.2128 12.6596 55.5168 11.3417 56.1235 10.1554C56.6814 9.07261 57.5353 8.17054 58.5859 7.55413C59.6889 6.92148 60.9428 6.60034 62.2141 6.62499C63.4262 6.6025 64.6199 6.92471 65.6562 7.55413C66.6634 8.18201 67.4736 9.08075 67.994 10.1475C68.5726 11.3394 68.8607 12.6514 68.8348 13.976C68.8316 14.2695 68.8107 14.6496 68.7717 15.1166ZM65.7035 12.7929C65.5363 11.7013 65.144 10.8537 64.5267 10.25C63.9094 9.64638 63.1175 9.34456 62.151 9.34456C61.1088 9.34456 60.2733 9.65375 59.6444 10.2721C59.0155 10.8905 58.6138 11.7318 58.4392 12.7961L65.7035 12.7929Z" fill="white"/>
<path d="M83.3429 20.9912H79.587L76.0345 16.1247L72.5278 20.9912H68.9469L74.2235 13.8452L69.0352 6.99108H72.7912L76.2112 11.6683L79.6296 6.99108H83.2404L78.0663 13.8153L83.3429 20.9912Z" fill="white"/>
<path d="M367.063 20.9998V14.7654C367.063 14.2094 367.168 13.7354 367.378 13.3435C367.592 12.947 367.881 12.6462 368.246 12.4412C368.615 12.2361 369.037 12.1335 369.51 12.1335C370.203 12.1335 370.748 12.35 371.144 12.783C371.541 13.2113 371.739 13.8061 371.739 14.5671V20.9998H373.783V14.321C373.783 13.4552 373.635 12.7283 373.339 12.1404C373.042 11.5525 372.625 11.1104 372.088 10.8142C371.55 10.5134 370.923 10.363 370.208 10.363C369.419 10.363 368.765 10.5317 368.246 10.8689C367.731 11.2061 367.353 11.6528 367.111 12.2087H366.981V10.4998H365.019V20.9998H367.063Z" fill="white"/>
<path fill-rule="evenodd" clip-rule="evenodd" d="M358.693 21.2117C357.709 21.2117 356.85 20.9861 356.116 20.5349C355.382 20.0837 354.813 19.4526 354.407 18.6414C354.002 17.8302 353.799 16.8822 353.799 15.7976C353.799 14.7084 354.002 13.7559 354.407 12.9402C354.813 12.1244 355.382 11.491 356.116 11.0398C356.85 10.5886 357.709 10.363 358.693 10.363C359.678 10.363 360.537 10.5886 361.271 11.0398C362.004 11.491 362.574 12.1244 362.979 12.9402C363.385 13.7559 363.588 14.7084 363.588 15.7976C363.588 16.8822 363.385 17.8302 362.979 18.6414C362.574 19.4526 362.004 20.0837 361.271 20.5349C360.537 20.9861 359.678 21.2117 358.693 21.2117ZM358.7 19.4958C359.338 19.4958 359.867 19.3272 360.286 18.99C360.705 18.6528 361.015 18.2039 361.216 17.6433C361.421 17.0828 361.523 16.4653 361.523 15.7908C361.523 15.1208 361.421 14.5056 361.216 13.9451C361.015 13.38 360.705 12.9265 360.286 12.5847C359.867 12.2429 359.338 12.072 358.7 12.072C358.058 12.072 357.524 12.2429 357.101 12.5847C356.681 12.9265 356.369 13.38 356.164 13.9451C355.964 14.5056 355.863 15.1208 355.863 15.7908C355.863 16.4653 355.964 17.0828 356.164 17.6433C356.369 18.2039 356.681 18.6528 357.101 18.99C357.524 19.3272 358.058 19.4958 358.7 19.4958Z" fill="white"/>
<path d="M350.327 10.4998V20.9998H352.371V10.4998H350.327Z" fill="white"/>
<path d="M350.443 8.52417C350.698 8.76115 351.004 8.87964 351.359 8.87964C351.715 8.87964 352.018 8.76115 352.268 8.52417C352.524 8.28263 352.651 7.99552 352.651 7.66284C352.651 7.3256 352.524 7.03849 352.268 6.80151C352.018 6.55998 351.715 6.43921 351.359 6.43921C351.004 6.43921 350.698 6.55998 350.443 6.80151C350.192 7.03849 350.067 7.3256 350.067 7.66284C350.067 7.99552 350.192 8.28263 350.443 8.52417Z" fill="white"/>
<path d="M348.916 10.4998V12.1404H346.762V17.9167C346.762 18.3132 346.822 18.6117 346.94 18.8123C347.059 19.0082 347.211 19.1427 347.398 19.2156C347.59 19.2839 347.797 19.3181 348.02 19.3181C348.184 19.3181 348.328 19.3067 348.451 19.2839C348.574 19.2611 348.67 19.2429 348.738 19.2292L349.107 20.9177C348.989 20.9633 348.82 21.0089 348.601 21.0544C348.383 21.1046 348.109 21.1319 347.781 21.1365C347.243 21.1456 346.742 21.0499 346.277 20.8494C345.812 20.6488 345.436 20.3389 345.149 19.9197C344.862 19.5004 344.719 18.974 344.719 18.3406V12.1404H343.18V10.4998H344.719V7.98413H346.762V10.4998H348.916Z" fill="white"/>
<path d="M335.74 20.5212C336.474 20.9815 337.349 21.2117 338.365 21.2117C339.195 21.2117 339.917 21.059 340.532 20.7537C341.152 20.4483 341.646 20.0291 342.016 19.4958C342.385 18.9626 342.606 18.3565 342.679 17.6775H340.689C340.603 18.0557 340.45 18.3793 340.231 18.6482C340.017 18.9171 339.751 19.1244 339.432 19.2703C339.117 19.4115 338.766 19.4822 338.379 19.4822C337.8 19.4822 337.297 19.3295 336.868 19.0242C336.444 18.7188 336.116 18.2882 335.884 17.7322C335.651 17.1762 335.535 16.5154 335.535 15.7498C335.535 15.0024 335.654 14.3552 335.891 13.8083C336.128 13.2569 336.458 12.8331 336.882 12.5369C337.31 12.2361 337.809 12.0857 338.379 12.0857C339.031 12.0857 339.55 12.2634 339.938 12.6189C340.329 12.9744 340.58 13.3982 340.689 13.8904H342.679C342.606 13.184 342.376 12.5665 341.988 12.0378C341.605 11.5092 341.102 11.099 340.478 10.8074C339.853 10.5111 339.142 10.363 338.345 10.363C337.356 10.363 336.497 10.5932 335.768 11.0535C335.038 11.5138 334.473 12.1541 334.072 12.9744C333.671 13.7901 333.471 14.7312 333.471 15.7976C333.471 16.8503 333.667 17.7846 334.059 18.6003C334.451 19.4161 335.011 20.0564 335.74 20.5212Z" fill="white"/>
<path fill-rule="evenodd" clip-rule="evenodd" d="M326.888 21.2322C326.223 21.2322 325.621 21.1091 325.083 20.863C324.546 20.6124 324.12 20.2501 323.805 19.7761C323.495 19.3022 323.34 18.7211 323.34 18.033C323.34 17.4405 323.454 16.9529 323.682 16.5701C323.91 16.1873 324.218 15.8842 324.605 15.6609C324.992 15.4376 325.425 15.269 325.904 15.155C326.382 15.0411 326.87 14.9545 327.367 14.8953L328.898 14.7175C329.29 14.6674 329.575 14.5876 329.752 14.4783C329.93 14.3689 330.019 14.1912 330.019 13.9451V13.8972C330.019 13.3002 329.85 12.8376 329.513 12.5095C329.181 12.1814 328.684 12.0173 328.023 12.0173C327.335 12.0173 326.792 12.17 326.396 12.4753C326.004 12.7761 325.733 13.1111 325.583 13.4802L323.662 13.0427C323.889 12.4047 324.222 11.8897 324.66 11.4978C325.102 11.1013 325.61 10.8142 326.184 10.6365C326.758 10.4542 327.362 10.363 327.996 10.363C328.415 10.363 328.859 10.4132 329.329 10.5134C329.803 10.6091 330.245 10.7869 330.655 11.0466C331.069 11.3064 331.409 11.6778 331.673 12.1609C331.938 12.6394 332.07 13.2615 332.07 14.0271V20.9998H330.074V19.5642H329.992C329.86 19.8285 329.661 20.0883 329.397 20.3435C329.133 20.5987 328.793 20.8106 328.378 20.9792C327.964 21.1479 327.467 21.2322 326.888 21.2322ZM327.333 19.5916C327.898 19.5916 328.381 19.4799 328.782 19.2566C329.187 19.0333 329.495 18.7416 329.705 18.3816C329.919 18.017 330.026 17.6274 330.026 17.2126V15.8591C329.953 15.932 329.812 16.0004 329.602 16.0642C329.397 16.1235 329.162 16.1759 328.898 16.2214C328.634 16.2625 328.376 16.3012 328.125 16.3376C327.875 16.3695 327.665 16.3969 327.497 16.4197C327.1 16.4698 326.738 16.5541 326.41 16.6726C326.086 16.7911 325.826 16.962 325.63 17.1853C325.439 17.4041 325.343 17.6957 325.343 18.0603C325.343 18.5662 325.53 18.949 325.904 19.2087C326.277 19.4639 326.754 19.5916 327.333 19.5916Z" fill="white"/>
<path d="M317.389 10.4998V20.9998H319.433V14.5876C319.433 14.1319 319.542 13.7263 319.761 13.3709C319.979 13.0108 320.276 12.7306 320.649 12.53C321.028 12.325 321.458 12.2224 321.941 12.2224C322.151 12.2224 322.361 12.2384 322.57 12.2703C322.78 12.2976 322.926 12.3227 323.008 12.3455V10.3904C322.908 10.3767 322.769 10.3653 322.591 10.3562C322.418 10.3471 322.267 10.3425 322.14 10.3425C321.524 10.3425 320.973 10.5066 320.485 10.8347C320.002 11.1583 319.665 11.6026 319.474 12.1677H319.364V10.4998H317.389Z" fill="white"/>
<path d="M315.978 10.4998V12.1404H313.824V17.9167C313.824 18.3132 313.884 18.6117 314.002 18.8123C314.121 19.0082 314.273 19.1427 314.46 19.2156C314.652 19.2839 314.859 19.3181 315.082 19.3181C315.246 19.3181 315.39 19.3067 315.513 19.2839C315.636 19.2611 315.732 19.2429 315.8 19.2292L316.169 20.9177C316.051 20.9633 315.882 21.0089 315.663 21.0544C315.445 21.1046 315.171 21.1319 314.843 21.1365C314.305 21.1456 313.804 21.0499 313.339 20.8494C312.874 20.6488 312.498 20.3389 312.211 19.9197C311.924 19.5004 311.781 18.974 311.781 18.3406V12.1404H310.242V10.4998H311.781V7.98413H313.824V10.4998H315.978Z" fill="white"/>
<path d="M305.254 14.5876L302.937 10.4998H300.695L303.921 15.7498L300.654 20.9998H302.896L305.254 17.0759L307.62 20.9998H309.855L306.553 15.7498L309.828 10.4998H307.592L305.254 14.5876Z" fill="white"/>
<path d="M290.739 20.9998V6.99976H299.516V8.81812H292.851V13.0837H299.058V14.8953H292.851V19.1814H299.598V20.9998H290.739Z" fill="white"/>
<path fill-rule="evenodd" clip-rule="evenodd" d="M276.792 20.5554C277.457 20.9884 278.213 21.2048 279.061 21.2048C279.699 21.2048 280.219 21.0977 280.62 20.8835C281.021 20.6694 281.335 20.4187 281.563 20.1316C281.795 19.8445 281.973 19.5893 282.096 19.366H282.267V20.9998H284.263V6.99976H282.219V12.2019H282.096C281.973 11.9832 281.8 11.7302 281.577 11.4431C281.358 11.156 281.048 10.9054 280.647 10.6912C280.25 10.4724 279.726 10.363 279.075 10.363C278.232 10.363 277.477 10.5772 276.812 11.0056C276.147 11.434 275.623 12.0515 275.24 12.8582C274.861 13.6648 274.672 14.6355 274.672 15.7703C274.672 16.905 274.859 17.878 275.233 18.6892C275.611 19.4958 276.131 20.1179 276.792 20.5554ZM281.002 18.9968C280.597 19.3067 280.1 19.4617 279.512 19.4617C278.906 19.4617 278.396 19.2999 277.981 18.9763C277.571 18.6482 277.261 18.2039 277.051 17.6433C276.842 17.0828 276.737 16.4516 276.737 15.7498C276.737 15.057 276.839 14.435 277.044 13.8835C277.254 13.3321 277.564 12.8969 277.974 12.5779C278.384 12.2589 278.897 12.0994 279.512 12.0994C280.109 12.0994 280.611 12.252 281.016 12.5574C281.422 12.8627 281.729 13.2888 281.939 13.8357C282.149 14.3826 282.253 15.0206 282.253 15.7498C282.253 16.488 282.146 17.1352 281.932 17.6912C281.723 18.2472 281.413 18.6824 281.002 18.9968Z" fill="white"/>
<path d="M266.52 14.7654V20.9998H264.476V10.4998H266.438V12.2087H266.567C266.809 11.6528 267.187 11.2061 267.702 10.8689C268.222 10.5317 268.876 10.363 269.664 10.363C270.38 10.363 271.006 10.5134 271.544 10.8142C272.082 11.1104 272.499 11.5525 272.795 12.1404C273.091 12.7283 273.239 13.4552 273.239 14.321V20.9998H271.195V14.5671C271.195 13.8061 270.997 13.2113 270.601 12.783C270.204 12.35 269.66 12.1335 268.967 12.1335C268.493 12.1335 268.071 12.2361 267.702 12.4412C267.338 12.6462 267.048 12.947 266.834 13.3435C266.624 13.7354 266.52 14.2094 266.52 14.7654Z" fill="white"/>
<path fill-rule="evenodd" clip-rule="evenodd" d="M255.617 20.863C256.154 21.1091 256.756 21.2322 257.421 21.2322C258 21.2322 258.497 21.1479 258.912 20.9792C259.326 20.8106 259.666 20.5987 259.93 20.3435C260.194 20.0883 260.393 19.8285 260.525 19.5642H260.607V20.9998H262.603V14.0271C262.603 13.2615 262.471 12.6394 262.207 12.1609C261.942 11.6778 261.603 11.3064 261.188 11.0466C260.778 10.7869 260.336 10.6091 259.862 10.5134C259.392 10.4132 258.948 10.363 258.529 10.363C257.895 10.363 257.292 10.4542 256.717 10.6365C256.143 10.8142 255.635 11.1013 255.193 11.4978C254.755 11.8897 254.423 12.4047 254.195 13.0427L256.116 13.4802C256.266 13.1111 256.537 12.7761 256.929 12.4753C257.326 12.17 257.868 12.0173 258.556 12.0173C259.217 12.0173 259.714 12.1814 260.046 12.5095C260.384 12.8376 260.552 13.3002 260.552 13.8972V13.9451C260.552 14.1912 260.463 14.3689 260.286 14.4783C260.108 14.5876 259.823 14.6674 259.431 14.7175L257.9 14.8953C257.403 14.9545 256.916 15.0411 256.437 15.155C255.958 15.269 255.526 15.4376 255.138 15.6609C254.751 15.8842 254.443 16.1873 254.215 16.5701C253.987 16.9529 253.874 17.4405 253.874 18.033C253.874 18.7211 254.028 19.3022 254.338 19.7761C254.653 20.2501 255.079 20.6124 255.617 20.863ZM259.315 19.2566C258.914 19.4799 258.431 19.5916 257.866 19.5916C257.287 19.5916 256.811 19.4639 256.437 19.2087C256.063 18.949 255.876 18.5662 255.876 18.0603C255.876 17.6957 255.972 17.4041 256.164 17.1853C256.36 16.962 256.619 16.7911 256.943 16.6726C257.271 16.5541 257.633 16.4698 258.03 16.4197C258.198 16.3969 258.408 16.3695 258.659 16.3376C258.909 16.3012 259.167 16.2625 259.431 16.2214C259.695 16.1759 259.93 16.1235 260.135 16.0642C260.345 16.0004 260.486 15.932 260.559 15.8591V17.2126C260.559 17.6274 260.452 18.017 260.238 18.3816C260.028 18.7416 259.721 19.0333 259.315 19.2566Z" fill="white"/>
<path d="M241.435 14.7654V20.9998H239.391V6.99976H241.408V12.2087H241.538C241.784 11.6436 242.16 11.1947 242.666 10.8621C243.171 10.5294 243.832 10.363 244.648 10.363C245.368 10.363 245.997 10.5111 246.535 10.8074C247.077 11.1036 247.496 11.5457 247.792 12.1335C248.093 12.7169 248.244 13.446 248.244 14.321V20.9998H246.2V14.5671C246.2 13.797 246.001 13.2 245.605 12.7761C245.208 12.3477 244.657 12.1335 243.951 12.1335C243.468 12.1335 243.035 12.2361 242.652 12.4412C242.274 12.6462 241.975 12.947 241.756 13.3435C241.542 13.7354 241.435 14.2094 241.435 14.7654Z" fill="white"/>
<path d="M231.117 20.5212C231.851 20.9815 232.726 21.2117 233.742 21.2117C234.571 21.2117 235.294 21.059 235.909 20.7537C236.529 20.4483 237.023 20.0291 237.392 19.4958C237.761 18.9626 237.982 18.3565 238.055 17.6775H236.066C235.98 18.0557 235.827 18.3793 235.608 18.6482C235.394 18.9171 235.127 19.1244 234.808 19.2703C234.494 19.4115 234.143 19.4822 233.756 19.4822C233.177 19.4822 232.673 19.3295 232.245 19.0242C231.821 18.7188 231.493 18.2882 231.26 17.7322C231.028 17.1762 230.912 16.5154 230.912 15.7498C230.912 15.0024 231.03 14.3552 231.267 13.8083C231.504 13.2569 231.835 12.8331 232.259 12.5369C232.687 12.2361 233.186 12.0857 233.756 12.0857C234.407 12.0857 234.927 12.2634 235.314 12.6189C235.706 12.9744 235.957 13.3982 236.066 13.8904H238.055C237.982 13.184 237.752 12.5665 237.365 12.0378C236.982 11.5092 236.479 11.099 235.854 10.8074C235.23 10.5111 234.519 10.363 233.721 10.363C232.732 10.363 231.873 10.5932 231.144 11.0535C230.415 11.5138 229.85 12.1541 229.449 12.9744C229.048 13.7901 228.847 14.7312 228.847 15.7976C228.847 16.8503 229.043 17.7846 229.435 18.6003C229.827 19.4161 230.388 20.0564 231.117 20.5212Z" fill="white"/>
<path d="M223.157 20.9998V10.4998H225.133V12.1677H225.242C225.434 11.6026 225.771 11.1583 226.254 10.8347C226.742 10.5066 227.293 10.3425 227.908 10.3425C228.036 10.3425 228.186 10.3471 228.359 10.3562C228.537 10.3653 228.676 10.3767 228.776 10.3904V12.3455C228.694 12.3227 228.549 12.2976 228.339 12.2703C228.129 12.2384 227.92 12.2224 227.71 12.2224C227.227 12.2224 226.796 12.325 226.418 12.53C226.044 12.7306 225.748 13.0108 225.529 13.3709C225.311 13.7263 225.201 14.1319 225.201 14.5876V20.9998H223.157Z" fill="white"/>
<path fill-rule="evenodd" clip-rule="evenodd" d="M214.298 20.863C214.836 21.1091 215.438 21.2322 216.103 21.2322C216.682 21.2322 217.179 21.1479 217.593 20.9792C218.008 20.8106 218.347 20.5987 218.612 20.3435C218.876 20.0883 219.074 19.8285 219.207 19.5642H219.289V20.9998H221.285V14.0271C221.285 13.2615 221.153 12.6394 220.888 12.1609C220.624 11.6778 220.284 11.3064 219.87 11.0466C219.459 10.7869 219.017 10.6091 218.543 10.5134C218.074 10.4132 217.63 10.363 217.21 10.363C216.577 10.363 215.973 10.4542 215.399 10.6365C214.825 10.8142 214.317 11.1013 213.875 11.4978C213.437 11.8897 213.104 12.4047 212.876 13.0427L214.797 13.4802C214.948 13.1111 215.219 12.7761 215.611 12.4753C216.007 12.17 216.55 12.0173 217.238 12.0173C217.899 12.0173 218.395 12.1814 218.728 12.5095C219.065 12.8376 219.234 13.3002 219.234 13.8972V13.9451C219.234 14.1912 219.145 14.3689 218.967 14.4783C218.79 14.5876 218.505 14.6674 218.113 14.7175L216.582 14.8953C216.085 14.9545 215.597 15.0411 215.119 15.155C214.64 15.269 214.207 15.4376 213.82 15.6609C213.432 15.8842 213.125 16.1873 212.897 16.5701C212.669 16.9529 212.555 17.4405 212.555 18.033C212.555 18.7211 212.71 19.3022 213.02 19.7761C213.334 20.2501 213.761 20.6124 214.298 20.863ZM217.997 19.2566C217.596 19.4799 217.112 19.5916 216.547 19.5916C215.969 19.5916 215.492 19.4639 215.119 19.2087C214.745 18.949 214.558 18.5662 214.558 18.0603C214.558 17.6957 214.654 17.4041 214.845 17.1853C215.041 16.962 215.301 16.7911 215.625 16.6726C215.953 16.5541 216.315 16.4698 216.711 16.4197C216.88 16.3969 217.09 16.3695 217.34 16.3376C217.591 16.3012 217.848 16.2625 218.113 16.2214C218.377 16.1759 218.612 16.1235 218.817 16.0642C219.027 16.0004 219.168 15.932 219.241 15.8591V17.2126C219.241 17.6274 219.134 18.017 218.919 18.3816C218.71 18.7416 218.402 19.0333 217.997 19.2566Z" fill="white"/>
<path fill-rule="evenodd" clip-rule="evenodd" d="M207.125 21.2117C206.09 21.2117 205.199 20.9906 204.452 20.5486C203.709 20.102 203.135 19.4753 202.729 18.6687C202.328 17.8575 202.128 16.9073 202.128 15.8181C202.128 14.7426 202.328 13.7947 202.729 12.9744C203.135 12.1541 203.7 11.5138 204.425 11.0535C205.154 10.5932 206.006 10.363 206.981 10.363C207.574 10.363 208.148 10.461 208.704 10.657C209.26 10.8529 209.759 11.1606 210.201 11.5798C210.643 11.9991 210.992 12.5437 211.247 13.2136C211.502 13.879 211.63 14.6879 211.63 15.6404V16.365H204.167C204.182 17.005 204.305 17.5542 204.534 18.0125C204.785 18.5046 205.133 18.8806 205.58 19.1404C206.026 19.3956 206.548 19.5232 207.145 19.5232C207.533 19.5232 207.886 19.4685 208.205 19.3591C208.524 19.2452 208.8 19.0766 209.032 18.8533C209.264 18.63 209.442 18.3542 209.565 18.0261L211.5 18.3748C211.345 18.9444 211.067 19.4434 210.666 19.8718C210.269 20.2957 209.77 20.6261 209.169 20.863C208.572 21.0955 207.89 21.2117 207.125 21.2117ZM209.627 14.8337H204.17C204.195 14.3824 204.307 13.9608 204.507 13.5691C204.739 13.1179 205.067 12.7533 205.491 12.4753C205.919 12.1928 206.421 12.0515 206.995 12.0515C207.524 12.0515 207.984 12.1723 208.376 12.4138C208.772 12.6554 209.08 12.9858 209.299 13.405C209.517 13.8197 209.627 14.296 209.627 14.8337Z" fill="white"/>
<path d="M197.958 9.17358C198.487 9.52905 198.788 10.0304 198.861 10.6775H200.898C200.879 9.92554 200.661 9.26017 200.241 8.6814C199.822 8.09806 199.248 7.64006 198.519 7.30737C197.794 6.97469 196.958 6.80835 196.01 6.80835C195.071 6.80835 194.228 6.97697 193.481 7.31421C192.733 7.64689 192.141 8.11401 191.703 8.71558C191.266 9.31714 191.047 10.0212 191.047 10.8279C191.047 11.8031 191.373 12.587 192.025 13.1794C192.681 13.7719 193.57 14.2208 194.691 14.5261L196.345 14.9773C196.846 15.1095 197.295 15.2621 197.692 15.4353C198.093 15.6085 198.409 15.8272 198.642 16.0916C198.879 16.3559 198.997 16.6954 198.997 17.1101C198.997 17.5658 198.863 17.9646 198.594 18.3064C198.325 18.6436 197.956 18.908 197.487 19.0994C197.022 19.2862 196.491 19.3796 195.894 19.3796C195.351 19.3796 194.852 19.2999 194.397 19.1404C193.946 18.9763 193.574 18.7279 193.282 18.3953C192.995 18.058 192.831 17.6365 192.79 17.1306H190.671C190.717 17.9737 190.956 18.7029 191.389 19.3181C191.822 19.9288 192.421 20.4005 193.187 20.7332C193.952 21.0658 194.859 21.2322 195.907 21.2322C197.001 21.2322 197.933 21.0544 198.703 20.699C199.478 20.3435 200.068 19.8582 200.474 19.2429C200.884 18.6277 201.089 17.9236 201.089 17.1306C201.089 16.5017 200.964 15.9617 200.713 15.5105C200.467 15.0593 200.143 14.6811 199.742 14.3757C199.341 14.0704 198.906 13.8243 198.437 13.6375C197.967 13.4506 197.509 13.3025 197.063 13.1931L195.696 12.8376C195.422 12.7693 195.137 12.6827 194.841 12.5779C194.545 12.4685 194.267 12.3341 194.007 12.1746C193.752 12.0105 193.545 11.8077 193.385 11.5662C193.23 11.3246 193.153 11.0375 193.153 10.7048C193.153 10.3083 193.267 9.95516 193.494 9.64526C193.727 9.33081 194.053 9.08472 194.472 8.90698C194.891 8.72469 195.388 8.63355 195.962 8.63355C196.764 8.63355 197.43 8.81356 197.958 9.17358Z" fill="white"/>
<path d="M178.036 24.9099C177.731 24.9099 177.453 24.8848 177.202 24.8347C176.952 24.7891 176.765 24.739 176.642 24.6843L177.134 23.0095C177.695 23.1645 178.164 23.1759 178.542 23.0437C178.925 22.9161 179.246 22.5128 179.506 21.8337L179.759 21.1365L175.917 10.4998H178.105L180.764 18.6482H180.873L183.532 10.4998L185.74 10.5203L181.4 22.4011C181.199 22.9434 180.944 23.4014 180.634 23.7751C180.324 24.1488 179.955 24.4314 179.527 24.6228C179.098 24.8142 178.601 24.9099 178.036 24.9099Z" fill="white"/>
<path d="M169.887 10.4998V20.9998H171.931V14.5876C171.931 14.1319 172.04 13.7263 172.259 13.3709C172.478 13.0108 172.774 12.7306 173.147 12.53C173.526 12.325 173.956 12.2224 174.439 12.2224C174.649 12.2224 174.859 12.2384 175.068 12.2703C175.278 12.2976 175.424 12.3227 175.506 12.3455V10.3904C175.406 10.3767 175.267 10.3653 175.089 10.3562C174.916 10.3471 174.765 10.3425 174.638 10.3425C174.022 10.3425 173.471 10.5066 172.983 10.8347C172.5 11.1583 172.163 11.6026 171.972 12.1677H171.862V10.4998H169.887Z" fill="white"/>
<path fill-rule="evenodd" clip-rule="evenodd" d="M163.964 21.2117C162.93 21.2117 162.039 20.9906 161.291 20.5486C160.548 20.102 159.974 19.4753 159.569 18.6687C159.168 17.8575 158.967 16.9073 158.967 15.8181C158.967 14.7426 159.168 13.7947 159.569 12.9744C159.974 12.1541 160.539 11.5138 161.264 11.0535C161.993 10.5932 162.845 10.363 163.821 10.363C164.413 10.363 164.987 10.461 165.543 10.657C166.099 10.8529 166.598 11.1606 167.04 11.5798C167.482 11.9991 167.831 12.5437 168.086 13.2136C168.341 13.879 168.469 14.6879 168.469 15.6404V16.365H161.006C161.022 17.005 161.144 17.5542 161.373 18.0125C161.624 18.5046 161.973 18.8806 162.419 19.1404C162.866 19.3956 163.388 19.5232 163.985 19.5232C164.372 19.5232 164.725 19.4685 165.044 19.3591C165.363 19.2452 165.639 19.0766 165.871 18.8533C166.104 18.63 166.281 18.3542 166.405 18.0261L168.339 18.3748C168.184 18.9444 167.906 19.4434 167.505 19.8718C167.109 20.2957 166.61 20.6261 166.008 20.863C165.411 21.0955 164.73 21.2117 163.964 21.2117ZM166.466 14.8337H161.009C161.034 14.3824 161.146 13.9608 161.346 13.5691C161.578 13.1179 161.906 12.7533 162.33 12.4753C162.759 12.1928 163.26 12.0515 163.834 12.0515C164.363 12.0515 164.823 12.1723 165.215 12.4138C165.612 12.6554 165.919 12.9858 166.138 13.405C166.357 13.8197 166.466 14.296 166.466 14.8337Z" fill="white"/>
<path d="M154.917 20.9998L158.725 10.4998H156.531L153.878 18.5798H153.769L151.11 10.4998H148.915L152.73 20.9998H154.917Z" fill="white"/>
<path fill-rule="evenodd" clip-rule="evenodd" d="M143.774 21.2117C142.789 21.2117 141.93 20.9861 141.197 20.5349C140.463 20.0837 139.893 19.4526 139.488 18.6414C139.082 17.8302 138.879 16.8822 138.879 15.7976C138.879 14.7084 139.082 13.7559 139.488 12.9402C139.893 12.1244 140.463 11.491 141.197 11.0398C141.93 10.5886 142.789 10.363 143.774 10.363C144.758 10.363 145.617 10.5886 146.351 11.0398C147.085 11.491 147.654 12.1244 148.06 12.9402C148.465 13.7559 148.668 14.7084 148.668 15.7976C148.668 16.8822 148.465 17.8302 148.06 18.6414C147.654 19.4526 147.085 20.0837 146.351 20.5349C145.617 20.9861 144.758 21.2117 143.774 21.2117ZM143.781 19.4958C144.419 19.4958 144.947 19.3272 145.366 18.99C145.786 18.6528 146.096 18.2039 146.296 17.6433C146.501 17.0828 146.604 16.4653 146.604 15.7908C146.604 15.1208 146.501 14.5056 146.296 13.9451C146.096 13.38 145.786 12.9265 145.366 12.5847C144.947 12.2429 144.419 12.072 143.781 12.072C143.138 12.072 142.605 12.2429 142.181 12.5847C141.762 12.9265 141.449 13.38 141.244 13.9451C141.044 14.5056 140.944 15.1208 140.944 15.7908C140.944 16.4653 141.044 17.0828 141.244 17.6433C141.449 18.2039 141.762 18.6528 142.181 18.99C142.605 19.3272 143.138 19.4958 143.781 19.4958Z" fill="white"/>
<path d="M131.077 20.5212C131.81 20.9815 132.685 21.2117 133.702 21.2117C134.531 21.2117 135.253 21.059 135.869 20.7537C136.488 20.4483 136.983 20.0291 137.352 19.4958C137.721 18.9626 137.942 18.3565 138.015 17.6775H136.026C135.939 18.0557 135.787 18.3793 135.568 18.6482C135.354 18.9171 135.087 19.1244 134.768 19.2703C134.454 19.4115 134.103 19.4822 133.715 19.4822C133.137 19.4822 132.633 19.3295 132.205 19.0242C131.781 18.7188 131.453 18.2882 131.22 17.7322C130.988 17.1762 130.872 16.5154 130.872 15.7498C130.872 15.0024 130.99 14.3552 131.227 13.8083C131.464 13.2569 131.794 12.8331 132.218 12.5369C132.647 12.2361 133.146 12.0857 133.715 12.0857C134.367 12.0857 134.887 12.2634 135.274 12.6189C135.666 12.9744 135.917 13.3982 136.026 13.8904H138.015C137.942 13.184 137.712 12.5665 137.325 12.0378C136.942 11.5092 136.438 11.099 135.814 10.8074C135.19 10.5111 134.479 10.363 133.681 10.363C132.692 10.363 131.833 10.5932 131.104 11.0535C130.375 11.5138 129.81 12.1541 129.409 12.9744C129.008 13.7901 128.807 14.7312 128.807 15.7976C128.807 16.8503 129.003 17.7846 129.395 18.6003C129.787 19.4161 130.347 20.0564 131.077 20.5212Z" fill="white"/>
<path d="M127.676 13.0632L125.824 13.3914C125.746 13.1544 125.623 12.9288 125.455 12.7146C125.291 12.5004 125.067 12.325 124.785 12.1882C124.502 12.0515 124.149 11.9832 123.725 11.9832C123.146 11.9832 122.663 12.113 122.276 12.3728C121.889 12.628 121.695 12.9584 121.695 13.364C121.695 13.7149 121.825 13.9975 122.084 14.2117C122.344 14.4259 122.764 14.6013 123.342 14.738L125.01 15.1208C125.976 15.3442 126.696 15.6882 127.17 16.1531C127.644 16.6179 127.881 17.2218 127.881 17.9646C127.881 18.5935 127.699 19.1541 127.334 19.6462C126.974 20.1339 126.471 20.5167 125.824 20.7947C125.181 21.0727 124.436 21.2117 123.588 21.2117C122.413 21.2117 121.453 20.961 120.71 20.4597C119.968 19.9539 119.512 19.2361 119.343 18.3064L121.319 18.0056C121.442 18.5206 121.695 18.9102 122.078 19.1746C122.46 19.4343 122.959 19.5642 123.575 19.5642C124.245 19.5642 124.78 19.4252 125.181 19.1472C125.582 18.8647 125.783 18.5206 125.783 18.115C125.783 17.7869 125.66 17.5111 125.414 17.2878C125.172 17.0645 124.801 16.8959 124.299 16.782L122.522 16.3923C121.542 16.169 120.818 15.8136 120.348 15.3259C119.883 14.8383 119.651 14.2208 119.651 13.4734C119.651 12.8536 119.824 12.3113 120.17 11.8464C120.517 11.3816 120.995 11.0193 121.606 10.7595C122.217 10.4952 122.916 10.363 123.705 10.363C124.839 10.363 125.733 10.6091 126.384 11.1013C127.036 11.5889 127.467 12.2429 127.676 13.0632Z" fill="white"/>
<path d="M115.865 10.4998V20.9998H117.908V10.4998H115.865Z" fill="white"/>
<path d="M115.981 8.52417C116.236 8.76115 116.541 8.87964 116.897 8.87964C117.252 8.87964 117.555 8.76115 117.806 8.52417C118.061 8.28263 118.189 7.99552 118.189 7.66284C118.189 7.3256 118.061 7.03849 117.806 6.80151C117.555 6.55998 117.252 6.43921 116.897 6.43921C116.541 6.43921 116.236 6.55998 115.981 6.80151C115.73 7.03849 115.605 7.3256 115.605 7.66284C115.605 7.99552 115.73 8.28263 115.981 8.52417Z" fill="white"/>
<path fill-rule="evenodd" clip-rule="evenodd" d="M107.518 20.9998H102.986V6.99976H107.662C109.034 6.99976 110.212 7.28003 111.196 7.84058C112.18 8.39657 112.935 9.19637 113.459 10.24C113.987 11.2791 114.252 12.5255 114.252 13.9792C114.252 15.4376 113.985 16.6908 113.452 17.739C112.923 18.7872 112.158 19.5938 111.155 20.1589C110.152 20.7195 108.94 20.9998 107.518 20.9998ZM105.098 19.1541H107.402C108.469 19.1541 109.355 18.9535 110.061 18.5525C110.768 18.1469 111.296 17.5613 111.647 16.7957C111.998 16.0255 112.174 15.0867 112.174 13.9792C112.174 12.8809 111.998 11.949 111.647 11.1833C111.301 10.4177 110.784 9.83667 110.095 9.44019C109.407 9.0437 108.553 8.84546 107.532 8.84546H105.098V19.1541Z" fill="white"/>
<path fill-rule="evenodd" clip-rule="evenodd" d="M94.2266 20.5486C94.974 20.9906 95.8649 21.2117 96.8994 21.2117C97.665 21.2117 98.3464 21.0955 98.9434 20.863C99.5449 20.6261 100.044 20.2957 100.44 19.8718C100.841 19.4434 101.119 18.9444 101.274 18.3748L99.3398 18.0261C99.2168 18.3542 99.0391 18.63 98.8066 18.8533C98.5742 19.0766 98.2985 19.2452 97.9795 19.3591C97.6605 19.4685 97.3073 19.5232 96.9199 19.5232C96.3229 19.5232 95.8011 19.3956 95.3545 19.1404C94.9079 18.8806 94.5592 18.5046 94.3086 18.0125C94.0795 17.5542 93.957 17.005 93.9412 16.365H101.404V15.6404C101.404 14.6879 101.277 13.879 101.021 13.2136C100.766 12.5437 100.418 11.9991 99.9756 11.5798C99.5335 11.1606 99.0345 10.8529 98.4785 10.657C97.9225 10.461 97.3483 10.363 96.7559 10.363C95.7806 10.363 94.9284 10.5932 94.1992 11.0535C93.4746 11.5138 92.9095 12.1541 92.5039 12.9744C92.1029 13.7947 91.9023 14.7426 91.9023 15.8181C91.9023 16.9073 92.1029 17.8575 92.5039 18.6687C92.9095 19.4753 93.4837 20.102 94.2266 20.5486ZM93.9446 14.8337H99.4014C99.4014 14.296 99.292 13.8197 99.0732 13.405C98.8545 12.9858 98.5469 12.6554 98.1504 12.4138C97.7585 12.1723 97.2982 12.0515 96.7695 12.0515C96.1953 12.0515 95.694 12.1928 95.2656 12.4753C94.8418 12.7533 94.5137 13.1179 94.2812 13.5691C94.0814 13.9608 93.9692 14.3824 93.9446 14.8337Z" fill="white"/>
</svg>
