<svg width="137" height="28" viewBox="0 0 137 28" fill="none" xmlns="http://www.w3.org/2000/svg">
<path d="M131.521 18.6475H131.632L134.325 10.3936L136.562 10.4141L132.165 22.4492C131.962 22.9986 131.704 23.4632 131.39 23.8418C131.076 24.2203 130.701 24.5063 130.268 24.7002C129.834 24.8941 129.33 24.9912 128.758 24.9912C128.449 24.9912 128.167 24.9658 127.913 24.915C127.659 24.8689 127.47 24.818 127.346 24.7627L127.844 23.0654C128.412 23.2224 128.887 23.2345 129.271 23.1006C129.658 22.9713 129.984 22.5628 130.247 21.875L130.503 21.168L126.611 10.3936H128.827L131.521 18.6475Z" fill="black"/>
<path fill-rule="evenodd" clip-rule="evenodd" d="M30.4395 6.62207C31.6341 6.58906 32.8131 6.90073 33.835 7.52051C34.8568 8.14027 35.6784 9.04155 36.2012 10.1162C36.7783 11.3048 37.0659 12.6135 37.04 13.9346C37.0444 14.2272 37.0266 14.6073 36.9873 15.0703H26.6865C26.7816 15.7898 27.0515 16.4753 27.4727 17.0664C27.8458 17.5837 28.3518 17.9913 28.9365 18.2461C29.532 18.5033 30.1747 18.6326 30.8232 18.626C31.5423 18.6232 32.2561 18.4937 32.9297 18.2422C33.628 17.9868 34.2801 17.6192 34.8604 17.1543L36.376 19.3379C35.603 20.0119 34.7027 20.525 33.7285 20.8457C32.728 21.1597 31.6843 21.3139 30.6357 21.3037C29.3442 21.3292 28.0684 21.0163 26.9355 20.3955C25.8641 19.7951 24.9864 18.9009 24.4062 17.8184C23.7821 16.6317 23.4699 15.3054 23.498 13.9648C23.4713 12.6372 23.7708 11.3232 24.3711 10.1387C24.929 9.06118 25.7802 8.16276 26.8262 7.54785C27.9237 6.9162 29.1734 6.59632 30.4395 6.62207ZM30.3867 9.33008C29.9294 9.30916 29.4722 9.38096 29.043 9.54004C28.6139 9.69913 28.2208 9.94304 27.8877 10.2568C27.2282 10.9433 26.8068 11.8242 26.6865 12.7686L33.9297 12.7549C33.8358 11.7986 33.4255 10.9008 32.7637 10.2041C32.4464 9.90671 32.0722 9.67548 31.6641 9.52539C31.2558 9.3753 30.8212 9.30905 30.3867 9.33008Z" fill="black"/>
<path fill-rule="evenodd" clip-rule="evenodd" d="M62.0312 6.6084C63.2257 6.57697 64.4042 6.89013 65.4258 7.50977C66.4473 8.12938 67.2689 9.02983 67.793 10.1035C68.3701 11.2921 68.6577 12.6008 68.6318 13.9219C68.6144 14.2276 68.5843 14.6075 68.5537 15.0703H58.2568C58.3519 15.7898 58.6219 16.4753 59.043 17.0664C59.4161 17.5837 59.9221 17.9913 60.5068 18.2461C61.1023 18.5033 61.745 18.6326 62.3936 18.626C63.1126 18.6226 63.8262 18.4931 64.5 18.2422C65.1983 17.9868 65.8504 17.6192 66.4307 17.1543L67.9414 19.3379C67.1707 20.0127 66.2721 20.526 65.2988 20.8457C64.2969 21.1594 63.252 21.3136 62.2021 21.3037C60.9108 21.3277 59.6353 21.0149 58.502 20.3955C57.4327 19.7936 56.5564 18.8998 55.9766 17.8184C55.3511 16.632 55.0369 15.3057 55.0635 13.9648C55.0369 12.6371 55.3373 11.3233 55.9375 10.1387C56.4954 9.0611 57.3465 8.16277 58.3926 7.54785C59.4964 6.90704 60.7552 6.58185 62.0312 6.6084ZM61.957 9.33008C61.4997 9.30866 61.0426 9.37996 60.6133 9.53906C60.1841 9.69818 59.7909 9.94256 59.458 10.2568C58.7969 10.9423 58.3753 11.8237 58.2568 12.7686L65.4951 12.7549C65.3943 11.8047 64.9834 10.9143 64.3252 10.2217C64.0101 9.92266 63.638 9.68919 63.2314 9.53613C62.8248 9.38308 62.3912 9.31305 61.957 9.33008Z" fill="black"/>
<path fill-rule="evenodd" clip-rule="evenodd" d="M42.1162 8.63086C42.6106 8.00138 43.2428 7.49389 43.9639 7.14648C44.7517 6.77689 45.6143 6.59424 46.4844 6.61328C47.7266 6.59808 48.9492 6.92427 50.0186 7.55664C51.0812 8.1852 51.9525 9.09136 52.5391 10.1777C53.127 11.2632 53.4439 12.4732 53.4648 13.7051V14.1982C53.444 15.4289 53.127 16.6376 52.5391 17.7217C51.9524 18.813 51.0781 19.7233 50.0107 20.3525C48.9433 20.9818 47.7234 21.3062 46.4844 21.291C45.6149 21.3092 44.7527 21.1287 43.9639 20.7627C43.2409 20.4141 42.6085 19.9025 42.1162 19.2686V20.9287H39.0586V1.03027H42.1162V8.63086ZM46.1396 9.48535C45.3642 9.48535 44.6018 9.6882 43.9287 10.0732C43.294 10.4587 42.7793 11.0135 42.4434 11.6758C42.0801 12.3832 41.8977 13.1697 41.9111 13.9648C41.8973 14.7587 42.0797 15.5442 42.4434 16.25C42.7793 16.9124 43.2939 17.468 43.9287 17.8535C44.6018 18.2385 45.3643 18.4404 46.1396 18.4404C46.9148 18.4404 47.6767 18.2384 48.3496 17.8535V17.8271C48.9839 17.4372 49.4949 16.8748 49.8223 16.2061C50.1582 15.5015 50.332 14.7307 50.332 13.9502C50.332 13.1695 50.1583 12.3981 49.8223 11.6934C49.4935 11.0256 48.9828 10.4645 48.3496 10.0732C47.6766 9.68825 46.9149 9.48541 46.1396 9.48535Z" fill="black"/>
<path fill-rule="evenodd" clip-rule="evenodd" d="M121.795 10.2559C122.22 10.2559 122.67 10.3066 123.146 10.4082C123.625 10.5051 124.073 10.6852 124.488 10.9482C124.908 11.2114 125.253 11.5878 125.521 12.0771C125.788 12.5619 125.922 13.1923 125.922 13.9678V21.0303H123.9V19.5762H123.816C123.683 19.8439 123.483 20.1077 123.215 20.3662C122.947 20.6247 122.603 20.839 122.183 21.0098C121.763 21.1806 121.259 21.2666 120.673 21.2666C119.999 21.2666 119.389 21.1418 118.845 20.8926C118.3 20.6387 117.868 20.2711 117.55 19.791C117.236 19.3109 117.079 18.7224 117.079 18.0254C117.079 17.4253 117.195 16.9317 117.426 16.5439C117.657 16.1562 117.968 15.8483 118.36 15.6221C118.753 15.396 119.191 15.2257 119.676 15.1104C120.161 14.9949 120.655 14.9067 121.158 14.8467C121.795 14.7728 122.312 14.7131 122.709 14.667C123.106 14.6162 123.394 14.5355 123.574 14.4248C123.754 14.3141 123.845 14.1339 123.845 13.8848V13.8359C123.845 13.2313 123.674 12.763 123.332 12.4307C122.995 12.0983 122.492 11.9316 121.822 11.9316C121.125 11.9317 120.576 12.0864 120.175 12.3955C119.778 12.7001 119.503 13.0393 119.351 13.4131L117.404 12.9707C117.635 12.3244 117.973 11.8023 118.416 11.4053C118.864 11.0038 119.378 10.7132 119.96 10.5332C120.542 10.3486 121.153 10.2559 121.795 10.2559ZM123.852 15.8232C123.778 15.8971 123.634 15.9666 123.422 16.0312C123.214 16.0912 122.977 16.1443 122.709 16.1904C122.441 16.232 122.181 16.2707 121.927 16.3076C121.673 16.3399 121.46 16.3685 121.289 16.3916C120.888 16.4424 120.521 16.5275 120.188 16.6475C119.861 16.7675 119.597 16.9408 119.398 17.167C119.205 17.3885 119.108 17.6838 119.108 18.0527C119.108 18.5652 119.297 18.9537 119.676 19.2168C120.054 19.4753 120.537 19.6045 121.123 19.6045C121.695 19.6045 122.185 19.4908 122.591 19.2646C123.002 19.0385 123.314 18.7436 123.526 18.3789C123.743 18.0096 123.852 17.6144 123.852 17.1943V15.8232Z" fill="black"/>
<path fill-rule="evenodd" clip-rule="evenodd" d="M107.416 10.2559C108.016 10.2559 108.597 10.3553 109.16 10.5537C109.723 10.7522 110.229 11.0637 110.677 11.4883C111.125 11.913 111.478 12.4649 111.736 13.1436C111.995 13.8175 112.124 14.6368 112.124 15.6016V16.3359H104.565C104.581 16.9842 104.704 17.5407 104.937 18.0049C105.19 18.5034 105.544 18.8844 105.996 19.1475C106.448 19.4059 106.977 19.5352 107.582 19.5352C107.974 19.5351 108.332 19.4799 108.655 19.3691C108.978 19.2537 109.258 19.0826 109.493 18.8564C109.729 18.6303 109.909 18.3509 110.033 18.0186L111.993 18.3721C111.836 18.9488 111.554 19.4539 111.148 19.8877C110.747 20.317 110.241 20.6525 109.632 20.8926C109.027 21.128 108.336 21.2451 107.561 21.2451C106.513 21.2451 105.611 21.021 104.854 20.5732C104.101 20.1208 103.519 19.486 103.108 18.6689C102.702 17.8474 102.499 16.8852 102.499 15.7822C102.499 14.6928 102.702 13.7323 103.108 12.9014C103.519 12.0704 104.092 11.4213 104.826 10.9551C105.565 10.489 106.428 10.2559 107.416 10.2559ZM107.43 11.9658C106.848 11.9658 106.34 12.1094 105.906 12.3955C105.477 12.6771 105.145 13.0469 104.909 13.5039C104.707 13.9006 104.593 14.3272 104.568 14.7842H110.096C110.096 14.2396 109.984 13.7569 109.763 13.3369C109.541 12.9124 109.23 12.5776 108.828 12.333C108.431 12.0885 107.965 11.9659 107.43 11.9658Z" fill="black"/>
<path fill-rule="evenodd" clip-rule="evenodd" d="M96.6123 6.84863C97.7108 6.84863 98.6229 7.0376 99.3477 7.41602C100.077 7.79457 100.622 8.31889 100.982 8.98828C101.342 9.65295 101.522 10.4216 101.522 11.2939C101.522 12.1616 101.34 12.9259 100.976 13.5859C100.616 14.2415 100.07 14.7525 99.3408 15.1172C99.2079 15.1841 99.0674 15.2413 98.9219 15.2959L102.062 21.0303H99.625L96.7422 15.6602C96.697 15.6608 96.6513 15.6641 96.6055 15.6641H93.6973V21.0303H91.5576V6.84863H96.6123ZM93.6973 13.8223H96.4121C97.1044 13.8222 97.6677 13.7229 98.1016 13.5244C98.5401 13.3259 98.8613 13.0368 99.0645 12.6582C99.2674 12.2797 99.3691 11.8247 99.3691 11.2939C99.3691 10.7586 99.2643 10.2947 99.0566 9.90234C98.8535 9.51008 98.5332 9.20965 98.0947 9.00195C97.6608 8.78959 97.0901 8.68359 96.3838 8.68359H93.6973V13.8223Z" fill="black"/>
<path d="M115.642 21.0303H113.571V6.84863H115.642V21.0303Z" fill="black"/>
<path d="M6.52637 17.5781L9.96484 6.97168H13.415L16.9102 17.6348L20.1904 6.97168H23.3662L18.749 20.9287H15.1064L11.6553 10.3965L8.2041 20.9287H4.61719L0 6.97168H3.25L6.52637 17.5781Z" fill="black"/>
<path d="M75.9707 11.6328L79.3789 6.97168H83L77.8193 13.7773L83.0781 20.9287H79.335L75.7969 16.0752L72.3018 20.9287H68.7324L73.9746 13.8037L68.8154 6.97168H72.5635L75.9707 11.6328Z" fill="black"/>
</svg>
