<svg width="296" height="28" viewBox="0 0 296 28" fill="none" xmlns="http://www.w3.org/2000/svg">
<path fill-rule="evenodd" clip-rule="evenodd" d="M160.956 10.2559C161.616 10.2559 162.15 10.3663 162.556 10.5879C162.962 10.8048 163.278 11.0589 163.504 11.3496C163.735 11.6403 163.912 11.8967 164.037 12.1182H164.189V10.3945H166.219V21.2666C166.219 22.1712 166.006 22.9145 165.581 23.4961C165.156 24.0822 164.582 24.5163 163.857 24.7979C163.137 25.0794 162.325 25.2197 161.42 25.2197C160.575 25.2197 159.848 25.1093 159.238 24.8877C158.634 24.6662 158.14 24.3733 157.757 24.0088C157.374 23.6487 157.087 23.2558 156.897 22.8311L158.678 22.0967C158.802 22.2906 158.968 22.5013 159.176 22.7275C159.388 22.9536 159.674 23.1471 160.034 23.3086C160.399 23.4702 160.868 23.5518 161.44 23.5518C162.225 23.5517 162.873 23.3618 163.386 22.9834C163.898 22.6048 164.155 22.0044 164.155 21.1826V19.0918H164.023C163.899 19.318 163.719 19.5697 163.483 19.8467C163.253 20.1237 162.934 20.3633 162.527 20.5664C162.121 20.7695 161.592 20.8711 160.941 20.8711C160.102 20.871 159.345 20.6754 158.671 20.2832C158.002 19.8863 157.471 19.302 157.078 18.5312C156.69 17.7557 156.496 16.8019 156.496 15.6709C156.496 14.5399 156.688 13.5706 157.071 12.7627C157.459 11.9551 157.989 11.3365 158.663 10.9072C159.337 10.4733 160.102 10.2559 160.956 10.2559ZM161.398 12.0146C160.776 12.0147 160.256 12.1761 159.841 12.499C159.425 12.8176 159.112 13.2524 158.899 13.8018C158.692 14.3511 158.587 14.965 158.587 15.6436C158.587 16.3405 158.694 16.9523 158.906 17.4785C159.119 18.0047 159.432 18.4155 159.848 18.7109C160.268 19.0063 160.785 19.1542 161.398 19.1543C161.994 19.1543 162.497 19.0153 162.908 18.7383C163.324 18.4567 163.638 18.0557 163.851 17.5342C164.068 17.008 164.176 16.3775 164.176 15.6436C164.176 14.9281 164.07 14.2976 163.857 13.7529C163.645 13.2082 163.333 12.7832 162.922 12.4785C162.511 12.1694 162.003 12.0146 161.398 12.0146Z" fill="white"/>
<path fill-rule="evenodd" clip-rule="evenodd" d="M235.215 10.2559C235.875 10.2559 236.408 10.3663 236.814 10.5879C237.221 10.8048 237.537 11.0589 237.763 11.3496C237.993 11.6403 238.171 11.8967 238.296 12.1182H238.448V10.3945H240.478V21.2666C240.477 22.1712 240.264 22.9145 239.84 23.4961C239.415 24.0822 238.841 24.5163 238.116 24.7979C237.396 25.0794 236.583 25.2197 235.679 25.2197C234.834 25.2197 234.106 25.1093 233.497 24.8877C232.893 24.6662 232.399 24.3733 232.016 24.0088C231.632 23.6487 231.346 23.2558 231.156 22.8311L232.937 22.0967C233.061 22.2906 233.227 22.5013 233.435 22.7275C233.647 22.9536 233.933 23.1471 234.293 23.3086C234.658 23.4702 235.127 23.5518 235.699 23.5518C236.484 23.5517 237.132 23.3618 237.645 22.9834C238.157 22.6048 238.414 22.0044 238.414 21.1826V19.0918H238.282C238.158 19.318 237.978 19.5697 237.742 19.8467C237.511 20.1237 237.192 20.3633 236.786 20.5664C236.38 20.7695 235.851 20.8711 235.2 20.8711C234.36 20.871 233.603 20.6754 232.93 20.2832C232.26 19.8863 231.729 19.302 231.337 18.5312C230.949 17.7557 230.755 16.8019 230.755 15.6709C230.755 14.5399 230.947 13.5706 231.33 12.7627C231.718 11.9551 232.248 11.3365 232.922 10.9072C233.596 10.4733 234.361 10.2559 235.215 10.2559ZM235.657 12.0146C235.034 12.0147 234.515 12.1761 234.1 12.499C233.684 12.8176 233.371 13.2524 233.158 13.8018C232.951 14.3511 232.846 14.965 232.846 15.6436C232.846 16.3405 232.953 16.9523 233.165 17.4785C233.377 18.0047 233.691 18.4155 234.106 18.7109C234.526 19.0063 235.043 19.1542 235.657 19.1543C236.253 19.1543 236.756 19.0153 237.167 18.7383C237.582 18.4567 237.897 18.0557 238.109 17.5342C238.326 17.008 238.435 16.3775 238.435 15.6436C238.435 14.9281 238.329 14.2976 238.116 13.7529C237.904 13.2082 237.592 12.7832 237.181 12.4785C236.77 12.1694 236.262 12.0146 235.657 12.0146Z" fill="white"/>
<path fill-rule="evenodd" clip-rule="evenodd" d="M136.767 10.2559C137.625 10.2559 138.391 10.4733 139.065 10.9072C139.739 11.3412 140.268 11.9662 140.651 12.7832C141.039 13.6003 141.233 14.5839 141.233 15.7334C141.233 16.8829 141.041 17.8687 140.658 18.6904C140.275 19.5074 139.748 20.1379 139.079 20.5811C138.41 21.0194 137.646 21.2383 136.787 21.2383C136.141 21.2383 135.612 21.13 135.201 20.9131C134.795 20.6962 134.477 20.4421 134.246 20.1514C134.015 19.8606 133.838 19.6021 133.713 19.376H133.588V25.0195H131.518V10.3945H133.54V12.1182H133.713C133.833 11.8967 134.006 11.6403 134.232 11.3496C134.459 11.0589 134.772 10.8048 135.174 10.5879C135.575 10.3664 136.107 10.2559 136.767 10.2559ZM136.323 12.0146C135.723 12.0147 135.215 12.1692 134.8 12.4785C134.389 12.7878 134.078 13.2196 133.865 13.7734C133.653 14.3274 133.547 14.9743 133.547 15.7129C133.547 16.4605 133.655 17.1157 133.872 17.6787C134.089 18.2419 134.403 18.6834 134.813 19.002C135.224 19.3159 135.728 19.4726 136.323 19.4727C136.942 19.4727 137.459 19.309 137.874 18.9814C138.289 18.6491 138.604 18.1986 138.816 17.6309C139.033 17.0631 139.142 16.4237 139.142 15.7129C139.142 15.0113 139.036 14.3808 138.823 13.8223C138.616 13.2637 138.302 12.8222 137.882 12.499C137.466 12.1759 136.946 12.0146 136.323 12.0146Z" fill="white"/>
<path fill-rule="evenodd" clip-rule="evenodd" d="M30.4395 6.62109C31.6341 6.58808 32.8131 6.90072 33.835 7.52051C34.8568 8.14032 35.6784 9.04148 36.2012 10.1162C36.7783 11.3048 37.0659 12.6135 37.04 13.9346C37.0444 14.2272 37.0266 14.6074 36.9873 15.0703H26.6865C26.7816 15.7898 27.0515 16.4753 27.4727 17.0664C27.8458 17.5837 28.3518 17.9913 28.9365 18.2461C29.5319 18.5033 30.1747 18.6326 30.8232 18.626C31.5423 18.6232 32.2561 18.4927 32.9297 18.2412C33.6279 17.9859 34.2802 17.6182 34.8604 17.1533L36.376 19.3379C35.603 20.0119 34.7027 20.5241 33.7285 20.8447C32.728 21.1588 31.6843 21.3139 30.6357 21.3037C29.3442 21.3292 28.0683 21.0163 26.9355 20.3955C25.864 19.795 24.9865 18.9 24.4062 17.8174C23.7823 16.6308 23.4699 15.3052 23.498 13.9648C23.4713 12.6369 23.7707 11.3224 24.3711 10.1377C24.9289 9.06033 25.7803 8.16273 26.8262 7.54785C27.9237 6.9162 29.1734 6.59534 30.4395 6.62109ZM30.3867 9.33008C29.9295 9.30916 29.4722 9.37998 29.043 9.53906C28.6139 9.69816 28.2208 9.94203 27.8877 10.2559C27.2281 10.9423 26.8069 11.8232 26.6865 12.7676L33.9297 12.7549C33.8358 11.7986 33.4254 10.9008 32.7637 10.2041C32.4464 9.90673 32.0722 9.67548 31.6641 9.52539C31.2558 9.3753 30.8212 9.30905 30.3867 9.33008Z" fill="white"/>
<path fill-rule="evenodd" clip-rule="evenodd" d="M62.0322 6.6084C63.2264 6.57707 64.4043 6.89027 65.4258 7.50977C66.4474 8.1294 67.2698 9.02975 67.7939 10.1035C68.371 11.2919 68.6586 12.6001 68.6328 13.9209C68.6153 14.2267 68.5843 14.6073 68.5537 15.0703H58.2578C58.3529 15.79 58.6227 16.4752 59.0439 17.0664C59.4171 17.5836 59.9222 17.9913 60.5068 18.2461C61.1024 18.5033 61.7458 18.6326 62.3945 18.626C63.1134 18.6226 63.8263 18.4931 64.5 18.2422C65.1983 17.9869 65.8504 17.6192 66.4307 17.1543L67.9424 19.3379C67.1717 20.0127 66.273 20.526 65.2998 20.8457C64.2977 21.1595 63.2522 21.3136 62.2021 21.3037C60.9108 21.3277 59.6353 21.015 58.502 20.3955C57.4328 19.7937 56.5574 18.8996 55.9775 17.8184C55.3521 16.632 55.0378 15.3057 55.0645 13.9648C55.0379 12.6372 55.3374 11.3233 55.9375 10.1387C56.4954 9.06118 57.3466 8.16276 58.3926 7.54785C59.4965 6.90698 60.7561 6.58181 62.0322 6.6084ZM61.957 9.33008C61.4999 9.30872 61.0434 9.38007 60.6143 9.53906C60.1851 9.69813 59.7918 9.94167 59.459 10.2559C58.7977 10.9413 58.3763 11.8235 58.2578 12.7686L65.4961 12.7549C65.3953 11.8046 64.9835 10.9143 64.3252 10.2217C64.01 9.92261 63.6381 9.68919 63.2314 9.53613C62.8248 9.38309 62.3912 9.31305 61.957 9.33008Z" fill="white"/>
<path fill-rule="evenodd" clip-rule="evenodd" d="M42.1162 8.63086C42.6105 8.00139 43.2429 7.49393 43.9639 7.14648C44.7517 6.77689 45.6153 6.59423 46.4854 6.61328C47.7273 6.59817 48.9494 6.92447 50.0186 7.55664C51.0811 8.18516 51.9525 9.09144 52.5391 10.1777C53.127 11.2632 53.4449 12.4732 53.4658 13.7051V14.1982C53.445 15.429 53.1271 16.6376 52.5391 17.7217C51.9523 18.8131 51.0782 19.7233 50.0107 20.3525C48.9435 20.9816 47.7241 21.3061 46.4854 21.291C45.6159 21.3092 44.7528 21.1287 43.9639 20.7627C43.2409 20.414 42.6085 19.9025 42.1162 19.2686V20.9287H39.0586V1.03027H42.1162V8.63086ZM46.1396 9.48535C45.3643 9.48538 44.6027 9.68826 43.9297 10.0732C43.2949 10.4587 42.7803 11.0135 42.4443 11.6758C42.081 12.3832 41.8977 13.1697 41.9111 13.9648C41.8973 14.7587 42.0807 15.5442 42.4443 16.25C42.7803 16.9123 43.2949 17.468 43.9297 17.8535C44.6026 18.2384 45.3645 18.4404 46.1396 18.4404C46.9151 18.4404 47.6775 18.2386 48.3506 17.8535V17.8271C48.9848 17.4372 49.4949 16.8747 49.8223 16.2061C50.1582 15.5015 50.333 14.7308 50.333 13.9502C50.333 13.1695 50.1583 12.3981 49.8223 11.6934C49.4936 11.0258 48.9835 10.4644 48.3506 10.0732C47.6775 9.6882 46.9151 9.48535 46.1396 9.48535Z" fill="white"/>
<path fill-rule="evenodd" clip-rule="evenodd" d="M109.099 10.2559C109.523 10.2559 109.974 10.3066 110.449 10.4082C110.929 10.5051 111.377 10.6852 111.792 10.9482C112.212 11.2114 112.556 11.5878 112.824 12.0771C113.092 12.5619 113.226 13.1923 113.226 13.9678V21.0303H111.204V19.5762H111.12C110.986 19.8439 110.786 20.1077 110.519 20.3662C110.251 20.6247 109.906 20.839 109.486 21.0098C109.066 21.1806 108.563 21.2666 107.977 21.2666C107.303 21.2666 106.693 21.1418 106.148 20.8926C105.604 20.6387 105.172 20.2711 104.854 19.791C104.54 19.3109 104.383 18.7224 104.383 18.0254C104.383 17.4253 104.499 16.9317 104.729 16.5439C104.96 16.1562 105.272 15.8483 105.664 15.6221C106.056 15.396 106.495 15.2257 106.979 15.1104C107.464 14.9949 107.959 14.9067 108.462 14.8467C109.099 14.7728 109.616 14.7131 110.013 14.667C110.409 14.6162 110.698 14.5355 110.878 14.4248C111.058 14.3141 111.148 14.1339 111.148 13.8848V13.8359C111.148 13.2313 110.977 12.763 110.636 12.4307C110.299 12.0983 109.795 11.9316 109.126 11.9316C108.429 11.9317 107.88 12.0864 107.479 12.3955C107.082 12.7001 106.807 13.0393 106.654 13.4131L104.708 12.9707C104.939 12.3244 105.277 11.8023 105.72 11.4053C106.167 11.0038 106.682 10.7132 107.264 10.5332C107.845 10.3486 108.457 10.2559 109.099 10.2559ZM111.155 15.8232C111.081 15.8971 110.938 15.9666 110.726 16.0312C110.518 16.0912 110.28 16.1443 110.013 16.1904C109.745 16.232 109.484 16.2707 109.23 16.3076C108.977 16.3399 108.764 16.3685 108.593 16.3916C108.191 16.4424 107.824 16.5275 107.492 16.6475C107.164 16.7675 106.901 16.9408 106.702 17.167C106.509 17.3885 106.412 17.6838 106.412 18.0527C106.412 18.5652 106.601 18.9537 106.979 19.2168C107.358 19.4753 107.841 19.6045 108.427 19.6045C108.999 19.6045 109.488 19.4908 109.895 19.2646C110.305 19.0385 110.618 18.7436 110.83 18.3789C111.047 18.0096 111.155 17.6144 111.155 17.1943V15.8232Z" fill="white"/>
<path fill-rule="evenodd" clip-rule="evenodd" d="M146.92 10.2559C147.345 10.2559 147.795 10.3066 148.271 10.4082C148.75 10.5051 149.198 10.6852 149.613 10.9482C150.033 11.2114 150.378 11.5878 150.646 12.0771C150.913 12.5619 151.047 13.1923 151.047 13.9678V21.0303H149.025V19.5762H148.941C148.808 19.8439 148.608 20.1077 148.34 20.3662C148.072 20.6247 147.728 20.839 147.308 21.0098C146.888 21.1806 146.384 21.2666 145.798 21.2666C145.124 21.2666 144.514 21.1418 143.97 20.8926C143.425 20.6387 142.993 20.2711 142.675 19.791C142.361 19.3109 142.204 18.7224 142.204 18.0254C142.204 17.4253 142.32 16.9317 142.551 16.5439C142.782 16.1562 143.093 15.8483 143.485 15.6221C143.878 15.396 144.316 15.2257 144.801 15.1104C145.286 14.9949 145.78 14.9067 146.283 14.8467C146.92 14.7728 147.437 14.7131 147.834 14.667C148.231 14.6162 148.519 14.5355 148.699 14.4248C148.879 14.3141 148.97 14.1339 148.97 13.8848V13.8359C148.97 13.2313 148.799 12.763 148.457 12.4307C148.12 12.0983 147.617 11.9316 146.947 11.9316C146.25 11.9317 145.701 12.0864 145.3 12.3955C144.903 12.7001 144.628 13.0393 144.476 13.4131L142.529 12.9707C142.76 12.3244 143.098 11.8023 143.541 11.4053C143.989 11.0038 144.503 10.7132 145.085 10.5332C145.667 10.3486 146.278 10.2559 146.92 10.2559ZM148.977 15.8232C148.903 15.8971 148.759 15.9666 148.547 16.0312C148.339 16.0912 148.102 16.1443 147.834 16.1904C147.566 16.232 147.306 16.2707 147.052 16.3076C146.798 16.3399 146.585 16.3685 146.414 16.3916C146.013 16.4424 145.646 16.5275 145.313 16.6475C144.986 16.7675 144.722 16.9408 144.523 17.167C144.33 17.3885 144.233 17.6838 144.233 18.0527C144.233 18.5652 144.422 18.9537 144.801 19.2168C145.179 19.4753 145.662 19.6045 146.248 19.6045C146.82 19.6045 147.31 19.4908 147.716 19.2646C148.127 19.0385 148.439 18.7436 148.651 18.3789C148.868 18.0096 148.977 17.6144 148.977 17.1943V15.8232Z" fill="white"/>
<path fill-rule="evenodd" clip-rule="evenodd" d="M204.128 10.2559C204.553 10.2559 205.003 10.3066 205.479 10.4082C205.958 10.5051 206.406 10.6852 206.821 10.9482C207.241 11.2114 207.586 11.5878 207.854 12.0771C208.121 12.5619 208.255 13.1923 208.255 13.9678V21.0303H206.233V19.5762H206.149C206.016 19.8439 205.816 20.1077 205.548 20.3662C205.28 20.6247 204.936 20.839 204.516 21.0098C204.096 21.1806 203.592 21.2666 203.006 21.2666C202.332 21.2666 201.722 21.1418 201.178 20.8926C200.633 20.6387 200.201 20.2711 199.883 19.791C199.569 19.3109 199.412 18.7224 199.412 18.0254C199.412 17.4253 199.528 16.9317 199.759 16.5439C199.99 16.1562 200.301 15.8483 200.693 15.6221C201.086 15.396 201.524 15.2257 202.009 15.1104C202.494 14.9949 202.988 14.9067 203.491 14.8467C204.128 14.7728 204.645 14.7131 205.042 14.667C205.439 14.6162 205.727 14.5355 205.907 14.4248C206.087 14.3141 206.178 14.1339 206.178 13.8848V13.8359C206.178 13.2313 206.007 12.763 205.665 12.4307C205.328 12.0983 204.825 11.9316 204.155 11.9316C203.458 11.9317 202.909 12.0864 202.508 12.3955C202.111 12.7001 201.836 13.0393 201.684 13.4131L199.737 12.9707C199.968 12.3244 200.306 11.8023 200.749 11.4053C201.197 11.0038 201.711 10.7132 202.293 10.5332C202.875 10.3486 203.486 10.2559 204.128 10.2559ZM206.185 15.8232C206.111 15.8971 205.967 15.9666 205.755 16.0312C205.547 16.0912 205.31 16.1443 205.042 16.1904C204.774 16.232 204.514 16.2707 204.26 16.3076C204.006 16.3399 203.793 16.3685 203.622 16.3916C203.221 16.4424 202.854 16.5275 202.521 16.6475C202.194 16.7675 201.93 16.9408 201.731 17.167C201.538 17.3885 201.441 17.6838 201.441 18.0527C201.441 18.5652 201.63 18.9537 202.009 19.2168C202.387 19.4753 202.87 19.6045 203.456 19.6045C204.028 19.6045 204.518 19.4908 204.924 19.2646C205.335 19.0385 205.647 18.7436 205.859 18.3789C206.076 18.0096 206.185 17.6144 206.185 17.1943V15.8232Z" fill="white"/>
<path fill-rule="evenodd" clip-rule="evenodd" d="M225.185 10.2559C225.609 10.2559 226.06 10.3066 226.535 10.4082C227.015 10.5051 227.463 10.6852 227.878 10.9482C228.298 11.2114 228.642 11.5878 228.91 12.0771C229.178 12.5619 229.312 13.1923 229.312 13.9678V21.0303H227.29V19.5762H227.206C227.072 19.8439 226.872 20.1077 226.604 20.3662C226.337 20.6247 225.992 20.839 225.572 21.0098C225.152 21.1806 224.649 21.2666 224.062 21.2666C223.389 21.2666 222.779 21.1418 222.234 20.8926C221.69 20.6387 221.258 20.2711 220.939 19.791C220.626 19.3109 220.469 18.7224 220.469 18.0254C220.469 17.4253 220.585 16.9317 220.815 16.5439C221.046 16.1562 221.358 15.8483 221.75 15.6221C222.142 15.396 222.581 15.2257 223.065 15.1104C223.55 14.9949 224.045 14.9067 224.548 14.8467C225.185 14.7728 225.702 14.7131 226.099 14.667C226.495 14.6162 226.784 14.5355 226.964 14.4248C227.144 14.3141 227.234 14.1339 227.234 13.8848V13.8359C227.234 13.2313 227.063 12.763 226.722 12.4307C226.385 12.0983 225.881 11.9316 225.212 11.9316C224.515 11.9317 223.966 12.0864 223.564 12.3955C223.168 12.7001 222.893 13.0393 222.74 13.4131L220.794 12.9707C221.025 12.3244 221.362 11.8023 221.806 11.4053C222.253 11.0038 222.768 10.7132 223.35 10.5332C223.931 10.3486 224.543 10.2559 225.185 10.2559ZM227.241 15.8232C227.167 15.8971 227.024 15.9666 226.812 16.0312C226.604 16.0912 226.366 16.1443 226.099 16.1904C225.831 16.232 225.57 16.2707 225.316 16.3076C225.062 16.3399 224.85 16.3685 224.679 16.3916C224.277 16.4424 223.91 16.5275 223.578 16.6475C223.25 16.7675 222.987 16.9408 222.788 17.167C222.594 17.3885 222.498 17.6838 222.498 18.0527C222.498 18.5652 222.687 18.9537 223.065 19.2168C223.444 19.4753 223.926 19.6045 224.513 19.6045C225.085 19.6045 225.574 19.4908 225.98 19.2646C226.391 19.0385 226.704 18.7436 226.916 18.3789C227.133 18.0096 227.241 17.6144 227.241 17.1943V15.8232Z" fill="white"/>
<path fill-rule="evenodd" clip-rule="evenodd" d="M246.844 10.2559C247.444 10.2559 248.025 10.3553 248.588 10.5537C249.151 10.7522 249.657 11.0637 250.104 11.4883C250.552 11.913 250.906 12.4649 251.164 13.1436C251.423 13.8175 251.552 14.6368 251.552 15.6016V16.3359H243.993C244.009 16.9842 244.132 17.5407 244.364 18.0049C244.618 18.5034 244.971 18.8844 245.424 19.1475C245.876 19.4059 246.405 19.5352 247.01 19.5352C247.402 19.5351 247.76 19.4799 248.083 19.3691C248.406 19.2537 248.685 19.0826 248.921 18.8564C249.156 18.6303 249.336 18.3509 249.461 18.0186L251.421 18.3721C251.264 18.9488 250.982 19.4539 250.576 19.8877C250.175 20.317 249.669 20.6525 249.06 20.8926C248.455 21.128 247.764 21.2451 246.988 21.2451C245.941 21.2451 245.038 21.021 244.281 20.5732C243.529 20.1208 242.947 19.486 242.536 18.6689C242.13 17.8474 241.927 16.8852 241.927 15.7822C241.927 14.6928 242.13 13.7323 242.536 12.9014C242.947 12.0704 243.52 11.4213 244.254 10.9551C244.992 10.489 245.856 10.2559 246.844 10.2559ZM246.857 11.9658C246.276 11.9658 245.768 12.1094 245.334 12.3955C244.905 12.6771 244.572 13.0469 244.337 13.5039C244.135 13.9006 244.021 14.3272 243.996 14.7842H249.523C249.523 14.2396 249.412 13.7569 249.19 13.3369C248.969 12.9124 248.657 12.5776 248.256 12.333C247.859 12.0885 247.393 11.9659 246.857 11.9658Z" fill="white"/>
<path fill-rule="evenodd" clip-rule="evenodd" d="M273.822 10.2559C274.422 10.2559 275.003 10.3553 275.566 10.5537C276.13 10.7522 276.635 11.0637 277.083 11.4883C277.531 11.913 277.884 12.4649 278.143 13.1436C278.401 13.8175 278.53 14.6368 278.53 15.6016V16.3359H270.972C270.988 16.9842 271.111 17.5407 271.343 18.0049C271.597 18.5034 271.95 18.8844 272.402 19.1475C272.855 19.4059 273.384 19.5352 273.988 19.5352C274.381 19.5351 274.738 19.4799 275.062 19.3691C275.385 19.2537 275.664 19.0826 275.899 18.8564C276.135 18.6303 276.315 18.3509 276.439 18.0186L278.399 18.3721C278.242 18.9488 277.961 19.4539 277.555 19.8877C277.153 20.317 276.647 20.6525 276.038 20.8926C275.433 21.128 274.742 21.2451 273.967 21.2451C272.919 21.2451 272.017 21.021 271.26 20.5732C270.507 20.1208 269.926 19.486 269.515 18.6689C269.109 17.8474 268.905 16.8852 268.905 15.7822C268.905 14.6928 269.108 13.7323 269.515 12.9014C269.926 12.0704 270.498 11.4213 271.232 10.9551C271.971 10.489 272.835 10.2559 273.822 10.2559ZM273.836 11.9658C273.254 11.9658 272.746 12.1094 272.312 12.3955C271.883 12.6771 271.551 13.0469 271.315 13.5039C271.113 13.9006 271 14.3272 270.975 14.7842H276.502C276.502 14.2396 276.39 13.7569 276.169 13.3369C275.947 12.9124 275.636 12.5776 275.234 12.333C274.837 12.0885 274.371 11.9659 273.836 11.9658Z" fill="white"/>
<path d="M97.4785 6.6543C98.2307 6.65432 98.9323 6.76263 99.583 6.97949C100.239 7.19185 100.828 7.50639 101.35 7.92188C101.871 8.33264 102.303 8.83537 102.645 9.43066C102.986 10.0216 103.217 10.6983 103.337 11.46H101.176C101.093 10.9984 100.938 10.592 100.712 10.2412C100.486 9.89042 100.209 9.5923 99.8809 9.34766C99.5532 9.10314 99.1863 8.91855 98.7803 8.79395C98.3786 8.6693 97.9514 8.60742 97.499 8.60742C96.6819 8.60742 95.95 8.81277 95.3037 9.22363C94.6622 9.63445 94.1541 10.2365 93.7803 11.0303C93.411 11.8243 93.2266 12.7946 93.2266 13.9395C93.2266 15.0934 93.411 16.0674 93.7803 16.8613C94.1542 17.6553 94.6643 18.2559 95.3105 18.6621C95.9569 19.0684 96.6843 19.2715 97.4922 19.2715C97.94 19.2715 98.365 19.2108 98.7666 19.0908C99.1727 18.9662 99.5395 18.7839 99.8672 18.5439C100.195 18.304 100.472 18.0111 100.698 17.665C100.929 17.3143 101.088 16.9123 101.176 16.46L103.337 16.4668C103.222 17.1638 102.997 17.8054 102.665 18.3916C102.337 18.9733 101.915 19.4767 101.397 19.9014C100.885 20.3214 100.299 20.6471 99.6387 20.8779C98.9786 21.1087 98.2585 21.2236 97.4785 21.2236C96.2507 21.2236 95.1564 20.9331 94.1963 20.3516C93.2361 19.7653 92.4788 18.9273 91.9248 17.8379C91.3755 16.7485 91.1006 15.4489 91.1006 13.9395C91.1006 12.4252 91.3777 11.1249 91.9316 10.04C92.4856 8.95074 93.243 8.11579 94.2031 7.53418C95.1634 6.94789 96.2551 6.6543 97.4785 6.6543Z" fill="white"/>
<path d="M293.566 10.3936H295.747V12.0557H293.566V17.9072C293.566 18.3089 293.626 18.6113 293.746 18.8145C293.866 19.0129 294.021 19.1488 294.21 19.2227C294.404 19.2919 294.614 19.3271 294.84 19.3271C295.006 19.3271 295.152 19.3151 295.276 19.292C295.401 19.2689 295.498 19.2512 295.567 19.2373L295.941 20.9473C295.821 20.9934 295.65 21.0398 295.429 21.0859C295.207 21.1367 294.93 21.1643 294.598 21.1689C294.053 21.1782 293.545 21.081 293.074 20.8779C292.603 20.6748 292.222 20.3611 291.932 19.9365C291.641 19.5119 291.495 18.9785 291.495 18.3369V12.0557H289.938V10.3936H291.495V7.8457H293.566V10.3936Z" fill="white"/>
<path d="M126.31 10.2559C127.274 10.2559 128.062 10.5584 128.671 11.1631C129.285 11.7678 129.592 12.6798 129.592 13.8984V21.0303H127.521V14.0918C127.521 13.3719 127.325 12.8505 126.933 12.5273C126.54 12.2042 126.071 12.042 125.526 12.042C124.853 12.0421 124.329 12.2506 123.955 12.666C123.581 13.0768 123.394 13.6049 123.394 14.251V21.0303H121.33V13.9609C121.33 13.3839 121.15 12.9192 120.79 12.5684C120.43 12.2177 119.962 12.042 119.385 12.042C118.992 12.042 118.63 12.1468 118.298 12.3545C117.97 12.5576 117.704 12.8414 117.501 13.2061C117.303 13.5706 117.203 13.9928 117.203 14.4727V21.0303H115.133V10.3945H117.12V12.126H117.252C117.474 11.5398 117.836 11.0826 118.339 10.7549C118.842 10.4225 119.445 10.2559 120.146 10.2559C120.857 10.2559 121.453 10.4225 121.933 10.7549C122.417 11.0873 122.775 11.5443 123.006 12.126H123.117C123.371 11.5582 123.775 11.1056 124.329 10.7686C124.883 10.427 125.543 10.2559 126.31 10.2559Z" fill="white"/>
<path d="M155.025 21.0303H152.954V10.3936H155.025V21.0303Z" fill="white"/>
<path d="M173.401 10.2559C174.126 10.2559 174.761 10.4082 175.306 10.7129C175.85 11.013 176.273 11.4611 176.573 12.0566C176.873 12.6521 177.023 13.3887 177.023 14.2656V21.0303H174.952V14.5146C174.952 13.7437 174.751 13.141 174.35 12.707C173.948 12.2687 173.397 12.0499 172.695 12.0498C172.215 12.0498 171.788 12.1536 171.414 12.3613C171.045 12.5691 170.751 12.8738 170.534 13.2754C170.322 13.6723 170.216 14.1528 170.216 14.7158V21.0303H168.146V10.3945H170.133V12.126H170.265C170.509 11.5628 170.892 11.1102 171.414 10.7686C171.94 10.4269 172.603 10.2559 173.401 10.2559Z" fill="white"/>
<path d="M190.538 17.873H190.705L195.22 6.84863H197.816V21.0303H195.78V10.7676H195.648L191.467 21.0098H189.776L185.594 10.7607H185.463V21.0303H183.427V6.84863H186.023L190.538 17.873Z" fill="white"/>
<path d="M215.419 10.2559C216.144 10.2559 216.779 10.4082 217.323 10.7129C217.868 11.013 218.291 11.4611 218.591 12.0566C218.891 12.6521 219.041 13.3887 219.041 14.2656V21.0303H216.97V14.5146C216.97 13.7437 216.769 13.141 216.367 12.707C215.966 12.2687 215.414 12.0499 214.713 12.0498C214.233 12.0498 213.806 12.1536 213.432 12.3613C213.062 12.5691 212.769 12.8738 212.552 13.2754C212.34 13.6723 212.233 14.1528 212.233 14.7158V21.0303H210.163V10.3945H212.15V12.126H212.282C212.527 11.5628 212.91 11.1102 213.432 10.7686C213.958 10.4269 214.62 10.2559 215.419 10.2559Z" fill="white"/>
<path d="M264.176 10.2559C265.141 10.2559 265.928 10.5584 266.537 11.1631C267.151 11.7678 267.458 12.6798 267.458 13.8984V21.0303H265.388V14.0918C265.388 13.3719 265.191 12.8505 264.799 12.5273C264.406 12.2042 263.937 12.042 263.393 12.042C262.719 12.0421 262.195 12.2506 261.821 12.666C261.448 13.0768 261.26 13.6049 261.26 14.251V21.0303H259.196V13.9609C259.196 13.3839 259.016 12.9192 258.656 12.5684C258.296 12.2177 257.828 12.042 257.251 12.042C256.859 12.042 256.496 12.1468 256.164 12.3545C255.836 12.5576 255.57 12.8414 255.367 13.2061C255.169 13.5706 255.069 13.9928 255.069 14.4727V21.0303H252.999V10.3945H254.986V12.126H255.118C255.34 11.5398 255.702 11.0826 256.205 10.7549C256.708 10.4225 257.311 10.2559 258.013 10.2559C258.724 10.2559 259.319 10.4225 259.799 10.7549C260.284 11.0873 260.641 11.5443 260.872 12.126H260.983C261.237 11.5582 261.641 11.1056 262.195 10.7686C262.749 10.427 263.409 10.2559 264.176 10.2559Z" fill="white"/>
<path d="M285.233 10.2559C285.958 10.2559 286.593 10.4082 287.138 10.7129C287.682 11.013 288.105 11.4611 288.405 12.0566C288.705 12.6521 288.855 13.3887 288.855 14.2656V21.0303H286.784V14.5146C286.784 13.7437 286.583 13.141 286.182 12.707C285.78 12.2687 285.229 12.0499 284.527 12.0498C284.047 12.0498 283.62 12.1536 283.246 12.3613C282.877 12.5691 282.583 12.8738 282.366 13.2754C282.154 13.6723 282.048 14.1528 282.048 14.7158V21.0303H279.978V10.3945H281.965V12.126H282.097C282.341 11.5628 282.724 11.1102 283.246 10.7686C283.772 10.4269 284.435 10.2559 285.233 10.2559Z" fill="white"/>
<path d="M6.52637 17.5781L9.96484 6.97168H13.415L16.9102 17.6348L20.1904 6.97168H23.3662L18.749 20.9287H15.1064L11.6553 10.3965L8.2041 20.9287H4.61719L0 6.97168H3.25L6.52637 17.5781Z" fill="white"/>
<path d="M75.9707 11.6328L79.3779 6.97168H83L77.8184 13.7773L83.0781 20.9287H79.335L75.7959 16.0752L72.3018 20.9287H68.7324L73.9746 13.8037L68.8154 6.97168H72.5635L75.9707 11.6328Z" fill="white"/>
<path d="M154 6.28027C154.36 6.28027 154.667 6.40282 154.921 6.64746C155.179 6.88746 155.309 7.17803 155.309 7.51953C155.309 7.85653 155.179 8.14791 154.921 8.39258C154.667 8.63246 154.36 8.75195 154 8.75195C153.64 8.75191 153.331 8.63251 153.072 8.39258C152.818 8.14791 152.691 7.85653 152.691 7.51953C152.691 7.17807 152.818 6.88744 153.072 6.64746C153.331 6.40283 153.64 6.28031 154 6.28027Z" fill="white"/>
</svg>
