<svg width="105" height="77" viewBox="0 0 105 77" fill="none" xmlns="http://www.w3.org/2000/svg">
<path d="M32.5184 76.0021C13.0706 76.0021 6.50847 51.543 4.95742 46.7705C1.25876 34.7199 0.184949 23.8625 0.0656377 22.7887C-0.650233 16.2265 4.59948 11.6926 10.4458 11.6926C14.8603 11.6926 19.8714 14.3175 20.5873 20.6411C20.7066 21.7149 21.5418 30.9019 24.7632 40.9242C27.9846 51.4237 31.5639 55.361 34.0695 55.361C38.1261 55.361 40.6316 44.9808 42.7792 35.0779C44.3303 27.7998 46.12 20.5217 49.58 13.9596C55.307 2.62487 64.2554 0 72.1299 0C89.1915 0 97.7819 19.8059 97.7819 24.9363C97.7819 33.5268 90.7426 35.6744 87.7598 35.6744C81.0783 35.6744 78.9307 31.2599 77.0217 27.3226C75.3513 23.8625 73.5617 20.8797 71.2947 20.8797C70.5789 20.8797 69.863 21.2376 69.1471 21.9535C63.4202 27.7998 61.5112 58.1052 50.1766 69.6785C43.7337 76.0021 36.8137 76.0021 32.5184 76.0021Z" fill="url(#paint0_linear_13250_6193)"/>
<path d="M32.5184 76.0021C13.0706 76.0021 6.50847 51.543 4.95742 46.7705C1.25876 34.7199 0.184949 23.8625 0.0656377 22.7887C-0.650233 16.2265 4.59948 11.6926 10.4458 11.6926C14.8603 11.6926 19.8714 14.3175 20.5873 20.6411C20.7066 21.7149 21.5418 30.9019 24.7632 40.9242C27.9846 51.4237 31.5639 55.361 34.0695 55.361C38.1261 55.361 40.6316 44.9808 42.7792 35.0779C44.3303 27.7998 46.12 20.5217 49.58 13.9596C55.307 2.62487 64.2554 0 72.1299 0C89.1915 0 97.7819 19.8059 97.7819 24.9363C97.7819 33.5268 90.7426 35.6744 87.7598 35.6744C81.0783 35.6744 78.9307 31.2599 77.0217 27.3226C75.3513 23.8625 73.5617 20.8797 71.2947 20.8797C70.5789 20.8797 69.863 21.2376 69.1471 21.9535C63.4202 27.7998 61.5112 58.1052 50.1766 69.6785C43.7337 76.0021 36.8137 76.0021 32.5184 76.0021Z" fill="url(#paint1_radial_13250_6193)"/>
<path d="M32.5184 76.0021C13.0706 76.0021 6.50847 51.543 4.95742 46.7705C1.25876 34.7199 0.184949 23.8625 0.0656377 22.7887C-0.650233 16.2265 4.59948 11.6926 10.4458 11.6926C14.8603 11.6926 19.8714 14.3175 20.5873 20.6411C20.7066 21.7149 21.5418 30.9019 24.7632 40.9242C27.9846 51.4237 31.5639 55.361 34.0695 55.361C38.1261 55.361 40.6316 44.9808 42.7792 35.0779C44.3303 27.7998 46.12 20.5217 49.58 13.9596C55.307 2.62487 64.2554 0 72.1299 0C89.1915 0 97.7819 19.8059 97.7819 24.9363C97.7819 33.5268 90.7426 35.6744 87.7598 35.6744C81.0783 35.6744 78.9307 31.2599 77.0217 27.3226C75.3513 23.8625 73.5617 20.8797 71.2947 20.8797C70.5789 20.8797 69.863 21.2376 69.1471 21.9535C63.4202 27.7998 61.5112 58.1052 50.1766 69.6785C43.7337 76.0021 36.8137 76.0021 32.5184 76.0021Z" fill="url(#paint2_radial_13250_6193)"/>
<path d="M32.5184 76.0021C13.0706 76.0021 6.50847 51.543 4.95742 46.7705C1.25876 34.7199 0.184949 23.8625 0.0656377 22.7887C-0.650233 16.2265 4.59948 11.6926 10.4458 11.6926C14.8603 11.6926 19.8714 14.3175 20.5873 20.6411C20.7066 21.7149 21.5418 30.9019 24.7632 40.9242C27.9846 51.4237 31.5639 55.361 34.0695 55.361C38.1261 55.361 40.6316 44.9808 42.7792 35.0779C44.3303 27.7998 46.12 20.5217 49.58 13.9596C55.307 2.62487 64.2554 0 72.1299 0C89.1915 0 97.7819 19.8059 97.7819 24.9363C97.7819 33.5268 90.7426 35.6744 87.7598 35.6744C81.0783 35.6744 78.9307 31.2599 77.0217 27.3226C75.3513 23.8625 73.5617 20.8797 71.2947 20.8797C70.5789 20.8797 69.863 21.2376 69.1471 21.9535C63.4202 27.7998 61.5112 58.1052 50.1766 69.6785C43.7337 76.0021 36.8137 76.0021 32.5184 76.0021Z" fill="url(#paint3_radial_13250_6193)"/>
<path d="M32.5184 76.0021C13.0706 76.0021 6.50847 51.543 4.95742 46.7705C1.25876 34.7199 0.184949 23.8625 0.0656377 22.7887C-0.650233 16.2265 4.59948 11.6926 10.4458 11.6926C14.8603 11.6926 19.8714 14.3175 20.5873 20.6411C20.7066 21.7149 21.5418 30.9019 24.7632 40.9242C27.9846 51.4237 31.5639 55.361 34.0695 55.361C38.1261 55.361 40.6316 44.9808 42.7792 35.0779C44.3303 27.7998 46.12 20.5217 49.58 13.9596C55.307 2.62487 64.2554 0 72.1299 0C89.1915 0 97.7819 19.8059 97.7819 24.9363C97.7819 33.5268 90.7426 35.6744 87.7598 35.6744C81.0783 35.6744 78.9307 31.2599 77.0217 27.3226C75.3513 23.8625 73.5617 20.8797 71.2947 20.8797C70.5789 20.8797 69.863 21.2376 69.1471 21.9535C63.4202 27.7998 61.5112 58.1052 50.1766 69.6785C43.7337 76.0021 36.8137 76.0021 32.5184 76.0021Z" fill="url(#paint4_radial_13250_6193)"/>
<path d="M32.5184 76.0021C13.0706 76.0021 6.50847 51.543 4.95742 46.7705C1.25876 34.7199 0.184949 23.8625 0.0656377 22.7887C-0.650233 16.2265 4.59948 11.6926 10.4458 11.6926C14.8603 11.6926 19.8714 14.3175 20.5873 20.6411C20.7066 21.7149 21.5418 30.9019 24.7632 40.9242C27.9846 51.4237 31.5639 55.361 34.0695 55.361C38.1261 55.361 40.6316 44.9808 42.7792 35.0779C44.3303 27.7998 46.12 20.5217 49.58 13.9596C55.307 2.62487 64.2554 0 72.1299 0C89.1915 0 97.7819 19.8059 97.7819 24.9363C97.7819 33.5268 90.7426 35.6744 87.7598 35.6744C81.0783 35.6744 78.9307 31.2599 77.0217 27.3226C75.3513 23.8625 73.5617 20.8797 71.2947 20.8797C70.5789 20.8797 69.863 21.2376 69.1471 21.9535C63.4202 27.7998 61.5112 58.1052 50.1766 69.6785C43.7337 76.0021 36.8137 76.0021 32.5184 76.0021Z" fill="url(#paint5_radial_13250_6193)"/>
<path d="M32.5184 76.0021C13.0706 76.0021 6.50847 51.543 4.95742 46.7705C1.25876 34.7199 0.184949 23.8625 0.0656377 22.7887C-0.650233 16.2265 4.59948 11.6926 10.4458 11.6926C14.8603 11.6926 19.8714 14.3175 20.5873 20.6411C20.7066 21.7149 21.5418 30.9019 24.7632 40.9242C27.9846 51.4237 31.5639 55.361 34.0695 55.361C38.1261 55.361 40.6316 44.9808 42.7792 35.0779C44.3303 27.7998 46.12 20.5217 49.58 13.9596C55.307 2.62487 64.2554 0 72.1299 0C89.1915 0 97.7819 19.8059 97.7819 24.9363C97.7819 33.5268 90.7426 35.6744 87.7598 35.6744C81.0783 35.6744 78.9307 31.2599 77.0217 27.3226C75.3513 23.8625 73.5617 20.8797 71.2947 20.8797C70.5789 20.8797 69.863 21.2376 69.1471 21.9535C63.4202 27.7998 61.5112 58.1052 50.1766 69.6785C43.7337 76.0021 36.8137 76.0021 32.5184 76.0021Z" fill="url(#paint6_radial_13250_6193)"/>
<path d="M32.5184 76.0021C13.0706 76.0021 6.50847 51.543 4.95742 46.7705C1.25876 34.7199 0.184949 23.8625 0.0656377 22.7887C-0.650233 16.2265 4.59948 11.6926 10.4458 11.6926C14.8603 11.6926 19.8714 14.3175 20.5873 20.6411C20.7066 21.7149 21.5418 30.9019 24.7632 40.9242C27.9846 51.4237 31.5639 55.361 34.0695 55.361C38.1261 55.361 40.6316 44.9808 42.7792 35.0779C44.3303 27.7998 46.12 20.5217 49.58 13.9596C55.307 2.62487 64.2554 0 72.1299 0C89.1915 0 97.7819 19.8059 97.7819 24.9363C97.7819 33.5268 90.7426 35.6744 87.7598 35.6744C81.0783 35.6744 78.9307 31.2599 77.0217 27.3226C75.3513 23.8625 73.5617 20.8797 71.2947 20.8797C70.5789 20.8797 69.863 21.2376 69.1471 21.9535C63.4202 27.7998 61.5112 58.1052 50.1766 69.6785C43.7337 76.0021 36.8137 76.0021 32.5184 76.0021Z" fill="url(#paint7_radial_13250_6193)"/>
<path d="M32.5184 76.0021C13.0706 76.0021 6.50847 51.543 4.95742 46.7705C1.25876 34.7199 0.184949 23.8625 0.0656377 22.7887C-0.650233 16.2265 4.59948 11.6926 10.4458 11.6926C14.8603 11.6926 19.8714 14.3175 20.5873 20.6411C20.7066 21.7149 21.5418 30.9019 24.7632 40.9242C27.9846 51.4237 31.5639 55.361 34.0695 55.361C38.1261 55.361 40.6316 44.9808 42.7792 35.0779C44.3303 27.7998 46.12 20.5217 49.58 13.9596C55.307 2.62487 64.2554 0 72.1299 0C89.1915 0 97.7819 19.8059 97.7819 24.9363C97.7819 33.5268 90.7426 35.6744 87.7598 35.6744C81.0783 35.6744 78.9307 31.2599 77.0217 27.3226C75.3513 23.8625 73.5617 20.8797 71.2947 20.8797C70.5789 20.8797 69.863 21.2376 69.1471 21.9535C63.4202 27.7998 61.5112 58.1052 50.1766 69.6785C43.7337 76.0021 36.8137 76.0021 32.5184 76.0021Z" fill="url(#paint8_radial_13250_6193)"/>
<path d="M72.1298 0C64.3745 0 55.3068 2.62487 49.3412 13.9596C45.8812 20.5217 44.2108 27.7998 42.5405 35.0779C42.0632 37.4641 41.4667 39.8504 40.8701 42.2366V75.1669C43.8529 74.3317 46.955 72.7806 50.0571 69.6785C61.511 58.1052 63.42 27.7998 69.0277 21.9535C69.6242 21.2376 70.3401 20.8797 71.1753 20.8797C73.4422 20.8797 75.2319 23.7432 76.9023 27.3226C78.8112 31.2599 81.0782 35.6744 87.6403 35.6744C90.6231 35.6744 97.6625 33.5268 97.6625 24.9363C97.6625 19.8059 89.1914 0 72.1298 0Z" fill="url(#paint9_radial_13250_6193)"/>
<path d="M32.5184 76.0021C13.0706 76.0021 6.50847 51.543 4.95742 46.7705C1.25876 34.7199 0.184949 23.8625 0.0656377 22.7887C-0.650233 16.2265 4.59948 11.6926 10.4458 11.6926C14.8603 11.6926 19.8714 14.3175 20.5873 20.6411C20.7066 21.7149 21.5418 30.9019 24.7632 40.9242C27.9846 51.4237 31.5639 55.361 34.0695 55.361C38.1261 55.361 40.6316 44.9808 42.7792 35.0779C44.3303 27.7998 46.12 20.5217 49.58 13.9596C55.307 2.62487 64.2554 0 72.1299 0C89.1915 0 97.7819 19.8059 97.7819 24.9363C97.7819 33.5268 90.7426 35.6744 87.7598 35.6744C81.0783 35.6744 78.9307 31.2599 77.0217 27.3226C75.3513 23.8625 73.5617 20.8797 71.2947 20.8797C70.5789 20.8797 69.863 21.2376 69.1471 21.9535C63.4202 27.7998 61.5112 58.1052 50.1766 69.6785C43.7337 76.0021 36.8137 76.0021 32.5184 76.0021Z" fill="url(#paint10_radial_13250_6193)"/>
<path d="M32.5184 76.0021C13.0706 76.0021 6.50847 51.543 4.95742 46.7705C1.25876 34.7199 0.184949 23.8625 0.0656377 22.7887C-0.650233 16.2265 4.59948 11.6926 10.4458 11.6926C14.8603 11.6926 19.8714 14.3175 20.5873 20.6411C20.7066 21.7149 21.5418 30.9019 24.7632 40.9242C27.9846 51.4237 31.5639 55.361 34.0695 55.361C38.1261 55.361 40.6316 44.9808 42.7792 35.0779C44.3303 27.7998 46.12 20.5217 49.58 13.9596C55.307 2.62487 64.2554 0 72.1299 0C89.1915 0 97.7819 19.8059 97.7819 24.9363C97.7819 33.5268 90.7426 35.6744 87.7598 35.6744C81.0783 35.6744 78.9307 31.2599 77.0217 27.3226C75.3513 23.8625 73.5617 20.8797 71.2947 20.8797C70.5789 20.8797 69.863 21.2376 69.1471 21.9535C63.4202 27.7998 61.5112 58.1052 50.1766 69.6785C43.7337 76.0021 36.8137 76.0021 32.5184 76.0021Z" fill="url(#paint11_radial_13250_6193)"/>
<path d="M32.5184 76.0021C13.0706 76.0021 6.50847 51.543 4.95742 46.7705C1.25876 34.7199 0.184949 23.8625 0.0656377 22.7887C-0.650233 16.2265 4.59948 11.6926 10.4458 11.6926C14.8603 11.6926 19.8714 14.3175 20.5873 20.6411C20.7066 21.7149 21.5418 30.9019 24.7632 40.9242C27.9846 51.4237 31.5639 55.361 34.0695 55.361C38.1261 55.361 40.6316 44.9808 42.7792 35.0779C44.3303 27.7998 46.12 20.5217 49.58 13.9596C55.307 2.62487 64.2554 0 72.1299 0C89.1915 0 97.7819 19.8059 97.7819 24.9363C97.7819 33.5268 90.7426 35.6744 87.7598 35.6744C81.0783 35.6744 78.9307 31.2599 77.0217 27.3226C75.3513 23.8625 73.5617 20.8797 71.2947 20.8797C70.5789 20.8797 69.863 21.2376 69.1471 21.9535C63.4202 27.7998 61.5112 58.1052 50.1766 69.6785C43.7337 76.0021 36.8137 76.0021 32.5184 76.0021Z" fill="url(#paint12_radial_13250_6193)"/>
<path d="M32.5184 76.0021C13.0706 76.0021 6.50847 51.543 4.95742 46.7705C1.25876 34.7199 0.184949 23.8625 0.0656377 22.7887C-0.650233 16.2265 4.59948 11.6926 10.4458 11.6926C14.8603 11.6926 19.8714 14.3175 20.5873 20.6411C20.7066 21.7149 21.5418 30.9019 24.7632 40.9242C27.9846 51.4237 31.5639 55.361 34.0695 55.361C38.1261 55.361 40.6316 44.9808 42.7792 35.0779C44.3303 27.7998 46.12 20.5217 49.58 13.9596C55.307 2.62487 64.2554 0 72.1299 0C89.1915 0 97.7819 19.8059 97.7819 24.9363C97.7819 33.5268 90.7426 35.6744 87.7598 35.6744C81.0783 35.6744 78.9307 31.2599 77.0217 27.3226C75.3513 23.8625 73.5617 20.8797 71.2947 20.8797C70.5789 20.8797 69.863 21.2376 69.1471 21.9535C63.4202 27.7998 61.5112 58.1052 50.1766 69.6785C43.7337 76.0021 36.8137 76.0021 32.5184 76.0021Z" fill="url(#paint13_radial_13250_6193)"/>
<path d="M32.5184 76.0021C13.0706 76.0021 6.50847 51.543 4.95742 46.7705C1.25876 34.7199 0.184949 23.8625 0.0656377 22.7887C-0.650233 16.2265 4.59948 11.6926 10.4458 11.6926C14.8603 11.6926 19.8714 14.3175 20.5873 20.6411C20.7066 21.7149 21.5418 30.9019 24.7632 40.9242C27.9846 51.4237 31.5639 55.361 34.0695 55.361C38.1261 55.361 40.6316 44.9808 42.7792 35.0779C44.3303 27.7998 46.12 20.5217 49.58 13.9596C55.307 2.62487 64.2554 0 72.1299 0C89.1915 0 97.7819 19.8059 97.7819 24.9363C97.7819 33.5268 90.7426 35.6744 87.7598 35.6744C81.0783 35.6744 78.9307 31.2599 77.0217 27.3226C75.3513 23.8625 73.5617 20.8797 71.2947 20.8797C70.5789 20.8797 69.863 21.2376 69.1471 21.9535C63.4202 27.7998 61.5112 58.1052 50.1766 69.6785C43.7337 76.0021 36.8137 76.0021 32.5184 76.0021Z" fill="url(#paint14_radial_13250_6193)"/>
<path d="M94.5573 11.6926C93.8414 11.6926 93.0062 11.8119 92.2904 11.9312C95.8697 17.181 97.6594 22.5501 97.6594 24.9363C97.6594 33.5268 90.62 35.6744 87.6372 35.6744C85.251 35.6744 83.4613 35.0779 82.0296 34.2427V34.362C81.5523 36.0324 81.3137 37.9414 80.7171 39.7311C79.6433 43.1911 78.0923 47.1284 76.4219 50.2306C74.6322 53.5713 72.9619 55.4803 70.9336 55.361C68.5473 55.2417 66.7577 52.2589 64.3714 43.7877C63.6555 41.0435 62.9397 38.0607 62.2238 35.0779C60.5534 27.7998 58.6445 20.4024 55.3037 13.9596C49.8154 3.34075 40.3898 0 32.8731 0C25.953 0 20.7033 3.34075 16.6467 7.51669C15.5729 8.70981 14.2605 10.2609 13.0674 12.0506C16.6467 12.8858 19.9875 15.6299 20.584 20.6411C20.7033 21.5956 21.4192 29.3509 23.9247 38.2993C24.6406 36.0324 25.7144 32.6916 28.1007 27.4419C29.2938 24.9363 30.3676 23.3853 31.3221 22.4307C32.1573 21.4762 32.9924 21.1183 33.7083 21.1183C34.5435 21.1183 37.1684 21.8342 39.7932 30.9019C42.8953 41.998 45.2815 59.8949 54.3492 69.4399C58.4058 73.6158 64.0135 76.36 71.7687 76.36C78.5695 76.36 84.2965 73.3772 88.3531 69.2012C95.0345 62.2811 98.7332 50.9464 100.046 46.7705C103.744 34.8393 104.818 23.9818 104.937 22.7887C105.653 16.2265 100.046 11.6926 94.5573 11.6926Z" fill="#4A4A4A"/>
<path d="M94.5573 11.6926C93.8414 11.6926 93.0062 11.8119 92.2904 11.9312C95.8697 17.181 97.6594 22.5501 97.6594 24.9363C97.6594 33.5268 90.62 35.6744 87.6372 35.6744C85.251 35.6744 83.4613 35.0779 82.0296 34.2427V34.362C81.5523 36.0324 81.3137 37.9414 80.7171 39.7311C79.6433 43.1911 78.0923 47.1284 76.4219 50.2306C74.6322 53.5713 72.9619 55.4803 70.9336 55.361C68.5473 55.2417 66.7577 52.2589 64.3714 43.7877C63.6555 41.0435 62.9397 38.0607 62.2238 35.0779C60.5534 27.7998 58.6445 20.4024 55.3037 13.9596C49.8154 3.34075 40.3898 0 32.8731 0C25.953 0 20.7033 3.34075 16.6467 7.51669C15.5729 8.70981 14.2605 10.2609 13.0674 12.0506C16.6467 12.8858 19.9875 15.6299 20.584 20.6411C20.7033 21.5956 21.4192 29.3509 23.9247 38.2993C24.6406 36.0324 25.7144 32.6916 28.1007 27.4419C29.2938 24.9363 30.3676 23.3853 31.3221 22.4307C32.1573 21.4762 32.9924 21.1183 33.7083 21.1183C34.5435 21.1183 37.1684 21.8342 39.7932 30.9019C42.8953 41.998 45.2815 59.8949 54.3492 69.4399C58.4058 73.6158 64.0135 76.36 71.7687 76.36C78.5695 76.36 84.2965 73.3772 88.3531 69.2012C95.0345 62.2811 98.7332 50.9464 100.046 46.7705C103.744 34.8393 104.818 23.9818 104.937 22.7887C105.653 16.2265 100.046 11.6926 94.5573 11.6926Z" fill="url(#paint15_linear_13250_6193)"/>
<path d="M94.5573 11.6926C93.8414 11.6926 93.0062 11.8119 92.2904 11.9312C95.8697 17.181 97.6594 22.5501 97.6594 24.9363C97.6594 33.5268 90.62 35.6744 87.6372 35.6744C85.251 35.6744 83.4613 35.0779 82.0296 34.2427V34.362C81.5523 36.0324 81.3137 37.9414 80.7171 39.7311C79.6433 43.1911 78.0923 47.1284 76.4219 50.2306C74.6322 53.5713 72.9619 55.4803 70.9336 55.361C68.5473 55.2417 66.7577 52.2589 64.3714 43.7877C63.6555 41.0435 62.9397 38.0607 62.2238 35.0779C60.5534 27.7998 58.6445 20.4024 55.3037 13.9596C49.8154 3.34075 40.3898 0 32.8731 0C25.953 0 20.7033 3.34075 16.6467 7.51669C15.5729 8.70981 14.2605 10.2609 13.0674 12.0506C16.6467 12.8858 19.9875 15.6299 20.584 20.6411C20.7033 21.5956 21.4192 29.3509 23.9247 38.2993C24.6406 36.0324 25.7144 32.6916 28.1007 27.4419C29.2938 24.9363 30.3676 23.3853 31.3221 22.4307C32.1573 21.4762 32.9924 21.1183 33.7083 21.1183C34.5435 21.1183 37.1684 21.8342 39.7932 30.9019C42.8953 41.998 45.2815 59.8949 54.3492 69.4399C58.4058 73.6158 64.0135 76.36 71.7687 76.36C78.5695 76.36 84.2965 73.3772 88.3531 69.2012C95.0345 62.2811 98.7332 50.9464 100.046 46.7705C103.744 34.8393 104.818 23.9818 104.937 22.7887C105.653 16.2265 100.046 11.6926 94.5573 11.6926Z" fill="url(#paint16_radial_13250_6193)"/>
<path d="M94.5573 11.6926C93.8414 11.6926 93.0062 11.8119 92.2904 11.9312C95.8697 17.181 97.6594 22.5501 97.6594 24.9363C97.6594 33.5268 90.62 35.6744 87.6372 35.6744C85.251 35.6744 83.4613 35.0779 82.0296 34.2427V34.362C81.5523 36.0324 81.3137 37.9414 80.7171 39.7311C79.6433 43.1911 78.0923 47.1284 76.4219 50.2306C74.6322 53.5713 72.9619 55.4803 70.9336 55.361C68.5473 55.2417 66.7577 52.2589 64.3714 43.7877C63.6555 41.0435 62.9397 38.0607 62.2238 35.0779C60.5534 27.7998 58.6445 20.4024 55.3037 13.9596C49.8154 3.34075 40.3898 0 32.8731 0C25.953 0 20.7033 3.34075 16.6467 7.51669C15.5729 8.70981 14.2605 10.2609 13.0674 12.0506C16.6467 12.8858 19.9875 15.6299 20.584 20.6411C20.7033 21.5956 21.4192 29.3509 23.9247 38.2993C24.6406 36.0324 25.7144 32.6916 28.1007 27.4419C29.2938 24.9363 30.3676 23.3853 31.3221 22.4307C32.1573 21.4762 32.9924 21.1183 33.7083 21.1183C34.5435 21.1183 37.1684 21.8342 39.7932 30.9019C42.8953 41.998 45.2815 59.8949 54.3492 69.4399C58.4058 73.6158 64.0135 76.36 71.7687 76.36C78.5695 76.36 84.2965 73.3772 88.3531 69.2012C95.0345 62.2811 98.7332 50.9464 100.046 46.7705C103.744 34.8393 104.818 23.9818 104.937 22.7887C105.653 16.2265 100.046 11.6926 94.5573 11.6926Z" fill="url(#paint17_linear_13250_6193)"/>
<path d="M94.5573 11.6926C93.8414 11.6926 93.0062 11.8119 92.2904 11.9312C95.8697 17.181 97.6594 22.5501 97.6594 24.9363C97.6594 33.5268 90.62 35.6744 87.6372 35.6744C85.251 35.6744 83.4613 35.0779 82.0296 34.2427V34.362C81.5523 36.0324 81.3137 37.9414 80.7171 39.7311C79.6433 43.1911 78.0923 47.1284 76.4219 50.2306C74.6322 53.5713 72.9619 55.4803 70.9336 55.361C68.5473 55.2417 66.7577 52.2589 64.3714 43.7877C63.6555 41.0435 62.9397 38.0607 62.2238 35.0779C60.5534 27.7998 58.6445 20.4024 55.3037 13.9596C49.8154 3.34075 40.3898 0 32.8731 0C25.953 0 20.7033 3.34075 16.6467 7.51669C15.5729 8.70981 14.2605 10.2609 13.0674 12.0506C16.6467 12.8858 19.9875 15.6299 20.584 20.6411C20.7033 21.5956 21.4192 29.3509 23.9247 38.2993C24.6406 36.0324 25.7144 32.6916 28.1007 27.4419C29.2938 24.9363 30.3676 23.3853 31.3221 22.4307C32.1573 21.4762 32.9924 21.1183 33.7083 21.1183C34.5435 21.1183 37.1684 21.8342 39.7932 30.9019C42.8953 41.998 45.2815 59.8949 54.3492 69.4399C58.4058 73.6158 64.0135 76.36 71.7687 76.36C78.5695 76.36 84.2965 73.3772 88.3531 69.2012C95.0345 62.2811 98.7332 50.9464 100.046 46.7705C103.744 34.8393 104.818 23.9818 104.937 22.7887C105.653 16.2265 100.046 11.6926 94.5573 11.6926Z" fill="url(#paint18_linear_13250_6193)"/>
<path d="M94.5573 11.6926C93.8414 11.6926 93.0062 11.8119 92.2904 11.9312C95.8697 17.181 97.6594 22.5501 97.6594 24.9363C97.6594 33.5268 90.62 35.6744 87.6372 35.6744C85.251 35.6744 83.4613 35.0779 82.0296 34.2427V34.362C81.5523 36.0324 81.3137 37.9414 80.7171 39.7311C79.6433 43.1911 78.0923 47.1284 76.4219 50.2306C74.6322 53.5713 72.9619 55.4803 70.9336 55.361C68.5473 55.2417 66.7577 52.2589 64.3714 43.7877C63.6555 41.0435 62.9397 38.0607 62.2238 35.0779C60.5534 27.7998 58.6445 20.4024 55.3037 13.9596C49.8154 3.34075 40.3898 0 32.8731 0C25.953 0 20.7033 3.34075 16.6467 7.51669C15.5729 8.70981 14.2605 10.2609 13.0674 12.0506C16.6467 12.8858 19.9875 15.6299 20.584 20.6411C20.7033 21.5956 21.4192 29.3509 23.9247 38.2993C24.6406 36.0324 25.7144 32.6916 28.1007 27.4419C29.2938 24.9363 30.3676 23.3853 31.3221 22.4307C32.1573 21.4762 32.9924 21.1183 33.7083 21.1183C34.5435 21.1183 37.1684 21.8342 39.7932 30.9019C42.8953 41.998 45.2815 59.8949 54.3492 69.4399C58.4058 73.6158 64.0135 76.36 71.7687 76.36C78.5695 76.36 84.2965 73.3772 88.3531 69.2012C95.0345 62.2811 98.7332 50.9464 100.046 46.7705C103.744 34.8393 104.818 23.9818 104.937 22.7887C105.653 16.2265 100.046 11.6926 94.5573 11.6926Z" fill="url(#paint19_radial_13250_6193)"/>
<path d="M94.5573 11.6926C93.8414 11.6926 93.0062 11.8119 92.2904 11.9312C95.8697 17.181 97.6594 22.5501 97.6594 24.9363C97.6594 33.5268 90.62 35.6744 87.6372 35.6744C85.251 35.6744 83.4613 35.0779 82.0296 34.2427V34.362C81.5523 36.0324 81.3137 37.9414 80.7171 39.7311C79.6433 43.1911 78.0923 47.1284 76.4219 50.2306C74.6322 53.5713 72.9619 55.4803 70.9336 55.361C68.5473 55.2417 66.7577 52.2589 64.3714 43.7877C63.6555 41.0435 62.9397 38.0607 62.2238 35.0779C60.5534 27.7998 58.6445 20.4024 55.3037 13.9596C49.8154 3.34075 40.3898 0 32.8731 0C25.953 0 20.7033 3.34075 16.6467 7.51669C15.5729 8.70981 14.2605 10.2609 13.0674 12.0506C16.6467 12.8858 19.9875 15.6299 20.584 20.6411C20.7033 21.5956 21.4192 29.3509 23.9247 38.2993C24.6406 36.0324 25.7144 32.6916 28.1007 27.4419C29.2938 24.9363 30.3676 23.3853 31.3221 22.4307C32.1573 21.4762 32.9924 21.1183 33.7083 21.1183C34.5435 21.1183 37.1684 21.8342 39.7932 30.9019C42.8953 41.998 45.2815 59.8949 54.3492 69.4399C58.4058 73.6158 64.0135 76.36 71.7687 76.36C78.5695 76.36 84.2965 73.3772 88.3531 69.2012C95.0345 62.2811 98.7332 50.9464 100.046 46.7705C103.744 34.8393 104.818 23.9818 104.937 22.7887C105.653 16.2265 100.046 11.6926 94.5573 11.6926Z" fill="url(#paint20_radial_13250_6193)"/>
<path d="M94.5573 11.6926C93.8414 11.6926 93.0062 11.8119 92.2904 11.9312C95.8697 17.181 97.6594 22.5501 97.6594 24.9363C97.6594 33.5268 90.62 35.6744 87.6372 35.6744C85.251 35.6744 83.4613 35.0779 82.0296 34.2427V34.362C81.5523 36.0324 81.3137 37.9414 80.7171 39.7311C79.6433 43.1911 78.0923 47.1284 76.4219 50.2306C74.6322 53.5713 72.9619 55.4803 70.9336 55.361C68.5473 55.2417 66.7577 52.2589 64.3714 43.7877C63.6555 41.0435 62.9397 38.0607 62.2238 35.0779C60.5534 27.7998 58.6445 20.4024 55.3037 13.9596C49.8154 3.34075 40.3898 0 32.8731 0C25.953 0 20.7033 3.34075 16.6467 7.51669C15.5729 8.70981 14.2605 10.2609 13.0674 12.0506C16.6467 12.8858 19.9875 15.6299 20.584 20.6411C20.7033 21.5956 21.4192 29.3509 23.9247 38.2993C24.6406 36.0324 25.7144 32.6916 28.1007 27.4419C29.2938 24.9363 30.3676 23.3853 31.3221 22.4307C32.1573 21.4762 32.9924 21.1183 33.7083 21.1183C34.5435 21.1183 37.1684 21.8342 39.7932 30.9019C42.8953 41.998 45.2815 59.8949 54.3492 69.4399C58.4058 73.6158 64.0135 76.36 71.7687 76.36C78.5695 76.36 84.2965 73.3772 88.3531 69.2012C95.0345 62.2811 98.7332 50.9464 100.046 46.7705C103.744 34.8393 104.818 23.9818 104.937 22.7887C105.653 16.2265 100.046 11.6926 94.5573 11.6926Z" fill="url(#paint21_radial_13250_6193)"/>
<path d="M94.5573 11.6926C93.8414 11.6926 93.0062 11.8119 92.2904 11.9312C95.8697 17.181 97.6594 22.5501 97.6594 24.9363C97.6594 33.5268 90.62 35.6744 87.6372 35.6744C85.251 35.6744 83.4613 35.0779 82.0296 34.2427V34.362C81.5523 36.0324 81.3137 37.9414 80.7171 39.7311C79.6433 43.1911 78.0923 47.1284 76.4219 50.2306C74.6322 53.5713 72.9619 55.4803 70.9336 55.361C68.5473 55.2417 66.7577 52.2589 64.3714 43.7877C63.6555 41.0435 62.9397 38.0607 62.2238 35.0779C60.5534 27.7998 58.6445 20.4024 55.3037 13.9596C49.8154 3.34075 40.3898 0 32.8731 0C25.953 0 20.7033 3.34075 16.6467 7.51669C15.5729 8.70981 14.2605 10.2609 13.0674 12.0506C16.6467 12.8858 19.9875 15.6299 20.584 20.6411C20.7033 21.5956 21.4192 29.3509 23.9247 38.2993C24.6406 36.0324 25.7144 32.6916 28.1007 27.4419C29.2938 24.9363 30.3676 23.3853 31.3221 22.4307C32.1573 21.4762 32.9924 21.1183 33.7083 21.1183C34.5435 21.1183 37.1684 21.8342 39.7932 30.9019C42.8953 41.998 45.2815 59.8949 54.3492 69.4399C58.4058 73.6158 64.0135 76.36 71.7687 76.36C78.5695 76.36 84.2965 73.3772 88.3531 69.2012C95.0345 62.2811 98.7332 50.9464 100.046 46.7705C103.744 34.8393 104.818 23.9818 104.937 22.7887C105.653 16.2265 100.046 11.6926 94.5573 11.6926Z" fill="url(#paint22_radial_13250_6193)"/>
<path d="M94.5573 11.6926C93.8414 11.6926 93.0062 11.8119 92.2904 11.9312C95.8697 17.181 97.6594 22.5501 97.6594 24.9363C97.6594 33.5268 90.62 35.6744 87.6372 35.6744C85.251 35.6744 83.4613 35.0779 82.0296 34.2427V34.362C81.5523 36.0324 81.3137 37.9414 80.7171 39.7311C79.6433 43.1911 78.0923 47.1284 76.4219 50.2306C74.6322 53.5713 72.9619 55.4803 70.9336 55.361C68.5473 55.2417 66.7577 52.2589 64.3714 43.7877C63.6555 41.0435 62.9397 38.0607 62.2238 35.0779C60.5534 27.7998 58.6445 20.4024 55.3037 13.9596C49.8154 3.34075 40.3898 0 32.8731 0C25.953 0 20.7033 3.34075 16.6467 7.51669C15.5729 8.70981 14.2605 10.2609 13.0674 12.0506C16.6467 12.8858 19.9875 15.6299 20.584 20.6411C20.7033 21.5956 21.4192 29.3509 23.9247 38.2993C24.6406 36.0324 25.7144 32.6916 28.1007 27.4419C29.2938 24.9363 30.3676 23.3853 31.3221 22.4307C32.1573 21.4762 32.9924 21.1183 33.7083 21.1183C34.5435 21.1183 37.1684 21.8342 39.7932 30.9019C42.8953 41.998 45.2815 59.8949 54.3492 69.4399C58.4058 73.6158 64.0135 76.36 71.7687 76.36C78.5695 76.36 84.2965 73.3772 88.3531 69.2012C95.0345 62.2811 98.7332 50.9464 100.046 46.7705C103.744 34.8393 104.818 23.9818 104.937 22.7887C105.653 16.2265 100.046 11.6926 94.5573 11.6926Z" fill="url(#paint23_radial_13250_6193)"/>
<path d="M94.5573 11.6926C93.8414 11.6926 93.0062 11.8119 92.2904 11.9312C95.8697 17.181 97.6594 22.5501 97.6594 24.9363C97.6594 33.5268 90.62 35.6744 87.6372 35.6744C85.251 35.6744 83.4613 35.0779 82.0296 34.2427V34.362C81.5523 36.0324 81.3137 37.9414 80.7171 39.7311C79.6433 43.1911 78.0923 47.1284 76.4219 50.2306C74.6322 53.5713 72.9619 55.4803 70.9336 55.361C68.5473 55.2417 66.7577 52.2589 64.3714 43.7877C63.6555 41.0435 62.9397 38.0607 62.2238 35.0779C60.5534 27.7998 58.6445 20.4024 55.3037 13.9596C49.8154 3.34075 40.3898 0 32.8731 0C25.953 0 20.7033 3.34075 16.6467 7.51669C15.5729 8.70981 14.2605 10.2609 13.0674 12.0506C16.6467 12.8858 19.9875 15.6299 20.584 20.6411C20.7033 21.5956 21.4192 29.3509 23.9247 38.2993C24.6406 36.0324 25.7144 32.6916 28.1007 27.4419C29.2938 24.9363 30.3676 23.3853 31.3221 22.4307C32.1573 21.4762 32.9924 21.1183 33.7083 21.1183C34.5435 21.1183 37.1684 21.8342 39.7932 30.9019C42.8953 41.998 45.2815 59.8949 54.3492 69.4399C58.4058 73.6158 64.0135 76.36 71.7687 76.36C78.5695 76.36 84.2965 73.3772 88.3531 69.2012C95.0345 62.2811 98.7332 50.9464 100.046 46.7705C103.744 34.8393 104.818 23.9818 104.937 22.7887C105.653 16.2265 100.046 11.6926 94.5573 11.6926Z" fill="url(#paint24_linear_13250_6193)"/>
<path d="M94.5573 11.6926C93.8414 11.6926 93.0062 11.8119 92.2904 11.9312C95.8697 17.181 97.6594 22.5501 97.6594 24.9363C97.6594 33.5268 90.62 35.6744 87.6372 35.6744C85.251 35.6744 83.4613 35.0779 82.0296 34.2427V34.362C81.5523 36.0324 81.3137 37.9414 80.7171 39.7311C79.6433 43.1911 78.0923 47.1284 76.4219 50.2306C74.6322 53.5713 72.9619 55.4803 70.9336 55.361C68.5473 55.2417 66.7577 52.2589 64.3714 43.7877C63.6555 41.0435 62.9397 38.0607 62.2238 35.0779C60.5534 27.7998 58.6445 20.4024 55.3037 13.9596C49.8154 3.34075 40.3898 0 32.8731 0C25.953 0 20.7033 3.34075 16.6467 7.51669C15.5729 8.70981 14.2605 10.2609 13.0674 12.0506C16.6467 12.8858 19.9875 15.6299 20.584 20.6411C20.7033 21.5956 21.4192 29.3509 23.9247 38.2993C24.6406 36.0324 25.7144 32.6916 28.1007 27.4419C29.2938 24.9363 30.3676 23.3853 31.3221 22.4307C32.1573 21.4762 32.9924 21.1183 33.7083 21.1183C34.5435 21.1183 37.1684 21.8342 39.7932 30.9019C42.8953 41.998 45.2815 59.8949 54.3492 69.4399C58.4058 73.6158 64.0135 76.36 71.7687 76.36C78.5695 76.36 84.2965 73.3772 88.3531 69.2012C95.0345 62.2811 98.7332 50.9464 100.046 46.7705C103.744 34.8393 104.818 23.9818 104.937 22.7887C105.653 16.2265 100.046 11.6926 94.5573 11.6926Z" fill="url(#paint25_radial_13250_6193)"/>
<path d="M94.5573 11.6926C93.8414 11.6926 93.0062 11.8119 92.2904 11.9312C95.8697 17.181 97.6594 22.5501 97.6594 24.9363C97.6594 33.5268 90.62 35.6744 87.6372 35.6744C85.251 35.6744 83.4613 35.0779 82.0296 34.2427V34.362C81.5523 36.0324 81.3137 37.9414 80.7171 39.7311C79.6433 43.1911 78.0923 47.1284 76.4219 50.2306C74.6322 53.5713 72.9619 55.4803 70.9336 55.361C68.5473 55.2417 66.7577 52.2589 64.3714 43.7877C63.6555 41.0435 62.9397 38.0607 62.2238 35.0779C60.5534 27.7998 58.6445 20.4024 55.3037 13.9596C49.8154 3.34075 40.3898 0 32.8731 0C25.953 0 20.7033 3.34075 16.6467 7.51669C15.5729 8.70981 14.2605 10.2609 13.0674 12.0506C16.6467 12.8858 19.9875 15.6299 20.584 20.6411C20.7033 21.5956 21.4192 29.3509 23.9247 38.2993C24.6406 36.0324 25.7144 32.6916 28.1007 27.4419C29.2938 24.9363 30.3676 23.3853 31.3221 22.4307C32.1573 21.4762 32.9924 21.1183 33.7083 21.1183C34.5435 21.1183 37.1684 21.8342 39.7932 30.9019C42.8953 41.998 45.2815 59.8949 54.3492 69.4399C58.4058 73.6158 64.0135 76.36 71.7687 76.36C78.5695 76.36 84.2965 73.3772 88.3531 69.2012C95.0345 62.2811 98.7332 50.9464 100.046 46.7705C103.744 34.8393 104.818 23.9818 104.937 22.7887C105.653 16.2265 100.046 11.6926 94.5573 11.6926Z" fill="url(#paint26_radial_13250_6193)"/>
<path d="M94.5573 11.6926C93.8414 11.6926 93.0062 11.8119 92.2904 11.9312C95.8697 17.181 97.6594 22.5501 97.6594 24.9363C97.6594 33.5268 90.62 35.6744 87.6372 35.6744C85.251 35.6744 83.4613 35.0779 82.0296 34.2427V34.362C81.5523 36.0324 81.3137 37.9414 80.7171 39.7311C79.6433 43.1911 78.0923 47.1284 76.4219 50.2306C74.6322 53.5713 72.9619 55.4803 70.9336 55.361C68.5473 55.2417 66.7577 52.2589 64.3714 43.7877C63.6555 41.0435 62.9397 38.0607 62.2238 35.0779C60.5534 27.7998 58.6445 20.4024 55.3037 13.9596C49.8154 3.34075 40.3898 0 32.8731 0C25.953 0 20.7033 3.34075 16.6467 7.51669C15.5729 8.70981 14.2605 10.2609 13.0674 12.0506C16.6467 12.8858 19.9875 15.6299 20.584 20.6411C20.7033 21.5956 21.4192 29.3509 23.9247 38.2993C24.6406 36.0324 25.7144 32.6916 28.1007 27.4419C29.2938 24.9363 30.3676 23.3853 31.3221 22.4307C32.1573 21.4762 32.9924 21.1183 33.7083 21.1183C34.5435 21.1183 37.1684 21.8342 39.7932 30.9019C42.8953 41.998 45.2815 59.8949 54.3492 69.4399C58.4058 73.6158 64.0135 76.36 71.7687 76.36C78.5695 76.36 84.2965 73.3772 88.3531 69.2012C95.0345 62.2811 98.7332 50.9464 100.046 46.7705C103.744 34.8393 104.818 23.9818 104.937 22.7887C105.653 16.2265 100.046 11.6926 94.5573 11.6926Z" fill="url(#paint27_linear_13250_6193)"/>
<defs>
<linearGradient id="paint0_linear_13250_6193" x1="87.2548" y1="22.8983" x2="18.5874" y2="45.4366" gradientUnits="userSpaceOnUse">
<stop stop-color="#7B7B7B"/>
<stop offset="1" stop-color="#464646"/>
</linearGradient>
<radialGradient id="paint1_radial_13250_6193" cx="0" cy="0" r="1" gradientTransform="matrix(-23.0781 -38.59 32.4085 -19.3816 39.9111 40.5462)" gradientUnits="userSpaceOnUse">
<stop/>
<stop offset="0.4079" stop-opacity="0.75"/>
<stop offset="0.8745" stop-opacity="0"/>
</radialGradient>
<radialGradient id="paint2_radial_13250_6193" cx="0" cy="0" r="1" gradientTransform="matrix(-21.9459 -29.3818 19.3098 -14.4231 69.4721 32.2032)" gradientUnits="userSpaceOnUse">
<stop stop-color="#0D0D0D"/>
<stop offset="0.4595" stop-color="#090909"/>
<stop offset="1" stop-opacity="0"/>
</radialGradient>
<radialGradient id="paint3_radial_13250_6193" cx="0" cy="0" r="1" gradientTransform="matrix(-17.503 -31.7383 22.0044 -12.1351 45.8791 45.9353)" gradientUnits="userSpaceOnUse">
<stop/>
<stop offset="0.4079" stop-opacity="0.79"/>
<stop offset="0.8745" stop-opacity="0"/>
</radialGradient>
<radialGradient id="paint4_radial_13250_6193" cx="0" cy="0" r="1" gradientTransform="matrix(2.44241 28.4541 -16.152 1.38645 64.1493 33.0113)" gradientUnits="userSpaceOnUse">
<stop/>
<stop offset="0.2326" stop-opacity="0.75"/>
<stop offset="0.5989" stop-opacity="0.3008"/>
<stop offset="0.8745" stop-opacity="0"/>
</radialGradient>
<radialGradient id="paint5_radial_13250_6193" cx="0" cy="0" r="1" gradientTransform="matrix(18.2613 28.1798 -14.7852 9.58135 65.3867 -13.1497)" gradientUnits="userSpaceOnUse">
<stop stop-color="#2B2B2B"/>
<stop offset="0.4079" stop-color="#323232"/>
<stop offset="1" stop-color="#323232" stop-opacity="0.07"/>
</radialGradient>
<radialGradient id="paint6_radial_13250_6193" cx="0" cy="0" r="1" gradientTransform="matrix(16.1071 14.9141 -20.6127 22.2618 -4.8284 13.1244)" gradientUnits="userSpaceOnUse">
<stop stop-color="white"/>
<stop offset="1" stop-color="#4A4A4A" stop-opacity="0"/>
</radialGradient>
<radialGradient id="paint7_radial_13250_6193" cx="0" cy="0" r="1" gradientTransform="matrix(26.8451 -4.17594 5.77153 37.103 -16.7596 35.1972)" gradientUnits="userSpaceOnUse">
<stop stop-color="white"/>
<stop offset="1" stop-color="#4A4A4A" stop-opacity="0"/>
</radialGradient>
<radialGradient id="paint8_radial_13250_6193" cx="0" cy="0" r="1" gradientTransform="matrix(23.8624 -14.9141 20.6127 32.9805 -10.1974 61.4459)" gradientUnits="userSpaceOnUse">
<stop stop-color="white"/>
<stop offset="1" stop-color="#4A4A4A" stop-opacity="0"/>
</radialGradient>
<radialGradient id="paint9_radial_13250_6193" cx="0" cy="0" r="1" gradientTransform="matrix(59.5401 66.0986 -65.9997 59.4519 19.7214 -28.4929)" gradientUnits="userSpaceOnUse">
<stop stop-color="#464646"/>
<stop offset="0.7454" stop-color="#444444" stop-opacity="0"/>
</radialGradient>
<radialGradient id="paint10_radial_13250_6193" cx="0" cy="0" r="1" gradientTransform="matrix(-19.3168 -23.3718 16.365 -13.5259 89.6376 21.8912)" gradientUnits="userSpaceOnUse">
<stop stop-color="#717171"/>
<stop offset="1" stop-color="#444444" stop-opacity="0"/>
</radialGradient>
<radialGradient id="paint11_radial_13250_6193" cx="0" cy="0" r="1" gradientTransform="matrix(1.58971 -7.39642 10.3446 2.22338 84.8583 40.7554)" gradientUnits="userSpaceOnUse">
<stop stop-color="#0F0F0F"/>
<stop offset="1" stop-opacity="0"/>
</radialGradient>
<radialGradient id="paint12_radial_13250_6193" cx="0" cy="0" r="1" gradientTransform="matrix(-17.9935 -9.75264 6.85173 -12.6415 94.7969 18.4934)" gradientUnits="userSpaceOnUse">
<stop stop-color="#7C7C7C"/>
<stop offset="0.8133" stop-color="#727272" stop-opacity="0"/>
</radialGradient>
<radialGradient id="paint13_radial_13250_6193" cx="0" cy="0" r="1" gradientTransform="matrix(-20.9763 -3.7871 2.66064 -14.7371 97.7797 12.5278)" gradientUnits="userSpaceOnUse">
<stop stop-color="#C4C4C4"/>
<stop offset="0.8133" stop-color="#727272" stop-opacity="0"/>
</radialGradient>
<radialGradient id="paint14_radial_13250_6193" cx="0" cy="0" r="1" gradientTransform="matrix(28.4114 33.4152 -33.336 28.3444 -15.4507 -6.43601)" gradientUnits="userSpaceOnUse">
<stop stop-color="#4C4C4C"/>
<stop offset="1" stop-color="#494949" stop-opacity="0"/>
</radialGradient>
<linearGradient id="paint15_linear_13250_6193" x1="101.955" y1="36.3903" x2="6.50524" y2="36.3903" gradientUnits="userSpaceOnUse">
<stop stop-color="#3E3E3E" stop-opacity="0"/>
<stop offset="0.460592" stop-color="#3E3E3E"/>
<stop offset="1" stop-color="#3E3E3E" stop-opacity="0"/>
</linearGradient>
<radialGradient id="paint16_radial_13250_6193" cx="0" cy="0" r="1" gradientTransform="matrix(17.731 13.5726 -18.8615 24.6406 86.0693 34.3125)" gradientUnits="userSpaceOnUse">
<stop stop-color="#010101"/>
<stop offset="0.9661" stop-color="#010101" stop-opacity="0"/>
</radialGradient>
<linearGradient id="paint17_linear_13250_6193" x1="127.607" y1="25.6522" x2="85.2508" y2="53.0938" gradientUnits="userSpaceOnUse">
<stop stop-color="white" stop-opacity="0.3"/>
<stop offset="0.9661" stop-color="white" stop-opacity="0"/>
</linearGradient>
<linearGradient id="paint18_linear_13250_6193" x1="98.3753" y1="76.36" x2="75.706" y2="65.0254" gradientUnits="userSpaceOnUse">
<stop stop-color="white" stop-opacity="0.3"/>
<stop offset="0.9661" stop-color="white" stop-opacity="0"/>
</linearGradient>
<radialGradient id="paint19_radial_13250_6193" cx="0" cy="0" r="1" gradientTransform="matrix(26.0662 3.88588 -5.79559 38.8769 80.4934 36.8758)" gradientUnits="userSpaceOnUse">
<stop stop-color="#010101"/>
<stop offset="0.5925" stop-color="#010101" stop-opacity="0"/>
</radialGradient>
<radialGradient id="paint20_radial_13250_6193" cx="0" cy="0" r="1" gradientTransform="matrix(20.459 9.38631 -16.7162 36.4362 82.6324 40.1364)" gradientUnits="userSpaceOnUse">
<stop stop-color="#010101"/>
<stop offset="0.7568" stop-color="#010101" stop-opacity="0"/>
</radialGradient>
<radialGradient id="paint21_radial_13250_6193" cx="0" cy="0" r="1" gradientTransform="matrix(-1.78967 17.3003 -7.44638 -0.770315 33.9469 34.6006)" gradientUnits="userSpaceOnUse">
<stop stop-color="#010101"/>
<stop offset="0.8846" stop-color="#010101" stop-opacity="0"/>
</radialGradient>
<radialGradient id="paint22_radial_13250_6193" cx="0" cy="0" r="1" gradientTransform="matrix(44.7419 -5.96563 6.08083 45.6065 7.69835 39.3731)" gradientUnits="userSpaceOnUse">
<stop stop-color="#010101" stop-opacity="0.5"/>
<stop offset="0.8846" stop-color="#010101" stop-opacity="0"/>
</radialGradient>
<radialGradient id="paint23_radial_13250_6193" cx="0" cy="0" r="1" gradientUnits="userSpaceOnUse" gradientTransform="translate(13.0674 32.2144) rotate(-3.40647) scale(50.1996 98.067)">
<stop stop-color="#010101" stop-opacity="0.5"/>
<stop offset="0.822914" stop-color="#010101" stop-opacity="0"/>
</radialGradient>
<linearGradient id="paint24_linear_13250_6193" x1="39.316" y1="85.905" x2="63.775" y2="64.4289" gradientUnits="userSpaceOnUse">
<stop stop-color="#010101"/>
<stop offset="1" stop-color="#010101" stop-opacity="0"/>
</linearGradient>
<radialGradient id="paint25_radial_13250_6193" cx="0" cy="0" r="1" gradientTransform="matrix(-18.6697 -6.96477 11.918 -31.9477 26.2804 27.8187)" gradientUnits="userSpaceOnUse">
<stop stop-color="#010101"/>
<stop offset="0.709" stop-color="#010101" stop-opacity="0"/>
</radialGradient>
<radialGradient id="paint26_radial_13250_6193" cx="0" cy="0" r="1" gradientTransform="matrix(13.1243 20.8797 -14.0911 8.85732 48.2643 13.1244)" gradientUnits="userSpaceOnUse">
<stop stop-color="white" stop-opacity="0.15"/>
<stop offset="1" stop-color="white" stop-opacity="0"/>
</radialGradient>
<linearGradient id="paint27_linear_13250_6193" x1="31.5607" y1="-4.7725" x2="32.7538" y2="6.56219" gradientUnits="userSpaceOnUse">
<stop stop-opacity="0.5"/>
<stop offset="1" stop-opacity="0"/>
</linearGradient>
</defs>
</svg>
