<svg width="191" height="76" viewBox="0 0 191 76" fill="none" xmlns="http://www.w3.org/2000/svg">
<path d="M46.22 13.6001H53.49L42.92 45.5501H34.58L26.68 21.4401L18.78 45.5501H10.57L0 13.6001H7.44L14.94 37.8801L22.81 13.6001H30.71L38.71 38.0101L46.22 13.6001Z" fill="black"/>
<path d="M84.6701 32.1399H61.0901C61.3077 33.7874 61.9258 35.3565 62.8901 36.7099C63.7444 37.8941 64.9015 38.8266 66.2401 39.4099C67.6035 39.9987 69.0751 40.2951 70.5601 40.2799C72.2062 40.2736 73.8381 39.9757 75.3801 39.3999C76.9789 38.8153 78.4717 37.9743 79.8001 36.9099L83.2701 41.9099C81.5006 43.4528 79.4401 44.6258 77.2101 45.3599C74.9198 46.0788 72.5306 46.4331 70.1301 46.4099C67.1736 46.4682 64.2534 45.751 61.6601 44.3299C59.2072 42.9553 57.1983 40.9082 55.8701 38.4299C54.4414 35.7133 53.7257 32.6786 53.7901 29.6099C53.7288 26.5701 54.4156 23.5619 55.7901 20.8499C57.0673 18.3832 59.0155 16.3275 61.4101 14.9199C63.9226 13.4739 66.7819 12.7409 69.6801 12.7999C72.4151 12.7242 75.1139 13.4386 77.4533 14.8574C79.7926 16.2763 81.6733 18.3395 82.8701 20.7999C84.1914 23.5207 84.8493 26.5158 84.7901 29.5399C84.8001 30.2099 84.7601 31.0799 84.6701 32.1399ZM77.6701 26.8399C77.4552 24.6502 76.5156 22.595 75.0001 20.9999C74.2736 20.319 73.4177 19.7911 72.4832 19.4476C71.5487 19.104 70.5546 18.9517 69.5601 18.9999C68.5133 18.952 67.4675 19.1149 66.4849 19.4791C65.5023 19.8433 64.6029 20.4013 63.8401 21.1199C62.3298 22.6915 61.3656 24.7077 61.0901 26.8699L77.6701 26.8399Z" fill="black"/>
<path d="M114.5 14.94C116.933 16.3789 118.927 18.4531 120.27 20.94C121.706 23.5906 122.436 26.5659 122.39 29.58C122.436 32.591 121.706 35.563 120.27 38.21C118.927 40.7083 116.925 42.7908 114.481 44.2312C112.038 45.6716 109.246 46.4148 106.41 46.38C104.42 46.4217 102.446 46.0078 100.64 45.17C98.985 44.3719 97.5372 43.2013 96.4102 41.75V45.55H89.4102V0H96.4102V17.4C97.542 15.9585 98.989 14.7954 100.64 14C102.444 13.1539 104.418 12.7364 106.41 12.78C109.254 12.7452 112.052 13.4924 114.5 14.94ZM110.68 38.45C112.132 37.5574 113.301 36.2708 114.05 34.74C114.819 33.1268 115.219 31.3622 115.219 29.575C115.219 27.7878 114.819 26.0232 114.05 24.41C113.298 22.8813 112.13 21.5956 110.68 20.7C109.139 19.8186 107.395 19.3549 105.62 19.3549C103.845 19.3549 102.101 19.8186 100.56 20.7C99.1069 21.5825 97.9292 22.8537 97.1602 24.37C96.3284 25.9896 95.9093 27.7895 95.9402 29.61C95.9085 31.4274 96.3276 33.2242 97.1602 34.84C97.9292 36.3563 99.1069 37.6275 100.56 38.51C102.101 39.3914 103.845 39.8551 105.62 39.8551C107.395 39.8551 109.139 39.3914 110.68 38.51V38.45Z" fill="black"/>
<path d="M156.93 32.1401H133.36C133.577 33.7876 134.195 35.3567 135.16 36.7101C136.014 37.8942 137.171 38.8268 138.51 39.4101C139.873 39.9989 141.345 40.2953 142.83 40.2801C144.476 40.2724 146.107 39.9745 147.65 39.4001C149.248 38.8155 150.741 37.9745 152.07 36.9101L155.53 41.9101C153.765 43.4549 151.708 44.6283 149.48 45.3601C147.186 46.0784 144.793 46.4327 142.39 46.4101C139.433 46.4651 136.514 45.7482 133.92 44.3301C131.472 42.9522 129.467 40.9057 128.14 38.4301C126.708 35.7143 125.989 32.6796 126.05 29.6101C125.989 26.5703 126.676 23.5622 128.05 20.8501C129.327 18.3833 131.275 16.3277 133.67 14.9201C136.197 13.453 139.078 12.7092 142 12.7701C144.734 12.6981 147.431 13.4141 149.77 14.8325C152.108 16.2509 153.99 18.3121 155.19 20.7701C156.511 23.4909 157.169 26.486 157.11 29.5101C157.07 30.2101 157 31.0801 156.93 32.1401ZM149.93 26.8401C149.699 24.6645 148.757 22.6258 147.25 21.0401C146.528 20.3555 145.677 19.8222 144.746 19.4719C143.815 19.1215 142.823 18.9611 141.83 19.0001C140.783 18.951 139.737 19.1135 138.754 19.4777C137.771 19.8419 136.872 20.4005 136.11 21.1201C134.596 22.6893 133.631 24.7066 133.36 26.8701L149.93 26.8401Z" fill="black"/>
<path d="M190.18 45.5501H181.61L173.51 34.4401L165.51 45.5501H157.34L169.34 29.2401L157.53 13.6001H166.11L173.91 24.2701L181.71 13.6001H190L178.14 29.1801L190.18 45.5501Z" fill="black"/>
<path d="M95.3941 59.0908H92.1572V71.9843H95.3941V59.0908Z" fill="black"/>
<path d="M121.628 62.7844C120.791 62.3284 119.852 62.0921 118.898 62.0975C116.791 62.0975 115.331 63.5613 115.331 65.5358C115.331 67.4527 116.73 68.9776 118.898 68.9776C119.851 68.9812 120.789 68.7464 121.628 68.2943V71.7541C120.668 72.0501 119.669 72.2041 118.665 72.2109C115.007 72.2109 111.799 69.6933 111.799 65.5358C111.799 61.6875 114.705 58.8643 118.665 58.8643C119.67 58.8668 120.669 59.0221 121.628 59.3246V62.7844Z" fill="black"/>
<path d="M87.6717 62.7844C86.8334 62.3281 85.8929 62.0918 84.9384 62.0975C82.8308 62.0975 81.3742 63.5613 81.3742 65.5358C81.3742 67.4527 82.7697 68.9776 84.9384 68.9776C85.8922 68.9798 86.8312 68.7449 87.6717 68.2943V71.7541C86.71 72.0501 85.7105 72.2041 84.7046 72.2109C81.0469 72.2109 77.8389 69.6933 77.8389 65.5358C77.8389 61.6875 80.7448 58.8643 84.7046 58.8643C85.7113 58.8668 86.7118 59.0218 87.6717 59.3246V62.7844Z" fill="black"/>
<path d="M131.863 62.1443C131.418 62.1403 130.976 62.2256 130.565 62.395C130.153 62.5643 129.779 62.8147 129.466 63.1308C129.153 63.4469 128.906 63.8224 128.74 64.2356C128.574 64.6485 128.493 65.0909 128.5 65.5358C128.492 65.9814 128.572 66.4241 128.738 66.8377C128.903 67.2513 129.15 67.6279 129.464 67.9444C129.777 68.2609 130.151 68.5115 130.563 68.6809C130.976 68.8503 131.417 68.9352 131.863 68.9309C132.309 68.9348 132.751 68.8496 133.162 68.6798C133.574 68.5101 133.948 68.2598 134.262 67.9433C134.576 67.6272 134.823 67.251 134.989 66.8374C135.155 66.4238 135.237 65.9814 135.229 65.5358C135.236 65.0905 135.154 64.6485 134.988 64.2353C134.822 63.822 134.575 63.4466 134.261 63.1304C133.947 62.8143 133.573 62.5643 133.162 62.395C132.75 62.2256 132.308 62.1403 131.863 62.1443ZM138.675 65.5358C138.675 69.2258 135.83 72.2109 131.863 72.2109C127.896 72.2109 125.055 69.2258 125.055 65.5358C125.055 61.8458 127.9 58.8643 131.863 58.8643C135.826 58.8643 138.675 61.853 138.675 65.5358Z" fill="black"/>
<path d="M107.733 62.0218C106.903 61.7938 106.05 61.6626 105.19 61.6298C103.889 61.6298 103.18 62.065 103.18 62.6836C103.18 63.4712 104.137 63.7625 104.669 63.9136L105.568 64.1977C107.679 64.8703 108.639 66.3161 108.639 67.8877C108.639 71.1246 105.795 72.2036 103.302 72.2036C102.124 72.1895 100.949 72.069 99.7921 71.8439V68.8768C100.792 69.1663 101.824 69.3271 102.863 69.3551C104.482 69.3551 105.226 68.884 105.226 68.1503C105.226 67.4993 104.583 67.1217 103.788 66.8663L103.094 66.6434C101.295 66.0715 99.7705 65.0069 99.7705 62.8706C99.7705 60.461 101.569 58.8425 104.575 58.8425C105.644 58.8573 106.707 58.995 107.744 59.2525L107.733 62.0218Z" fill="black"/>
<path d="M55.1136 71.9411H53.7002V59.0764H55.4157V63.9353C55.7588 63.4325 56.2249 63.0261 56.7691 62.7542C57.3136 62.4823 57.9185 62.3539 58.5267 62.3816C59.1223 62.3532 59.7157 62.4694 60.2566 62.72C60.7975 62.9704 61.2701 63.348 61.6341 63.8202C62.2887 64.6787 62.6159 65.8163 62.6159 67.2333C62.6159 68.9118 62.17 70.1979 61.278 71.0924C60.9004 71.466 60.4505 71.7588 59.9556 71.9523C59.4607 72.1458 58.9317 72.2364 58.4008 72.2181C57.8106 72.2483 57.223 72.1263 56.6939 71.8634C56.1649 71.6009 55.7121 71.2064 55.3798 70.7183L55.1136 71.9411ZM60.8285 67.1865C60.8285 66.0188 60.5371 65.1437 59.9545 64.5611C59.7171 64.3208 59.4327 64.1327 59.1187 64.009C58.8047 63.8849 58.4681 63.8281 58.1311 63.8418C57.7355 63.8256 57.342 63.9026 56.982 64.0669C56.6224 64.2313 56.3062 64.4784 56.0595 64.7877C55.5492 65.4786 55.2949 66.3252 55.3402 67.1829C55.3402 68.3734 55.6315 69.2869 56.2178 69.9163C56.458 70.1878 56.7554 70.4022 57.0888 70.5446C57.4222 70.687 57.7829 70.7539 58.1455 70.7399C58.5411 70.7622 58.9356 70.6834 59.2924 70.5112C59.6492 70.3385 59.9563 70.0781 60.1847 69.7545C60.6184 69.1502 60.8357 68.2943 60.8357 67.1865H60.8285Z" fill="black"/>
<path d="M71.8076 62.6476L68.5707 72.0632C68.1391 73.3148 67.7281 74.1672 67.3371 74.6204C67.1167 74.8804 66.8408 75.0875 66.5294 75.2264C66.2183 75.3652 65.8795 75.4321 65.5389 75.4224C65.1648 75.413 64.793 75.3598 64.4312 75.2641V73.8615C64.7236 73.9392 65.0242 73.9813 65.3267 73.9874C65.4896 73.9953 65.6522 73.9647 65.8011 73.8978C65.9496 73.8309 66.0805 73.7299 66.1827 73.6025C66.5107 73.0821 66.7692 72.5211 66.9523 71.9338H66.3984L62.9854 62.6404H64.8232L67.4522 70.5527L70.0777 62.6404L71.8076 62.6476Z" fill="black"/>
</svg>
