<svg width="131" height="106" viewBox="0 0 131 106" fill="none" xmlns="http://www.w3.org/2000/svg">
<g clip-path="url(#clip0_13250_6179)">
<path d="M45.4049 12.346C43.0987 12.5206 41.1982 14.9642 41.5399 17.4733C41.6467 18.3897 41.8816 19.8078 42.1805 21.3569C42.3086 22.0551 42.4581 22.7969 42.6076 23.5169C42.9803 25.2573 43.4437 26.9761 43.9956 28.666C44.5882 30.5408 45.3089 32.3707 46.1523 34.1424C49.3767 40.557 53.7329 41.9097 56.8291 41.9097C58.2833 41.9225 59.7233 41.6176 61.0528 41.0156C62.3822 40.4135 63.5704 39.5281 64.5378 38.4188C63.9976 37.7138 63.5189 36.9618 63.1071 36.1715C61.7405 33.597 60.865 30.6297 60.1176 27.5315C59.7749 28.7661 59.3173 29.9643 58.751 31.1097C57.8541 32.8115 57.2349 32.8115 56.8291 32.8115C55.9536 32.8115 55.0354 31.8515 54.0959 29.9969C53.6117 28.9824 53.184 27.9407 52.8146 26.8769C52.5584 26.1133 52.3022 25.3279 52.0886 24.5642C51.8751 23.8006 51.4907 22.4478 51.3199 21.5969C50.8715 19.5242 50.3376 16.1206 50.3163 16.0115C50.1241 15.0297 48.9923 12.0406 45.4049 12.346Z" fill="white"/>
<path d="M82.8382 21.5094C85.1231 20.6149 86.084 17.7785 85.059 15.4876L84.9736 15.2694C84.5602 14.3368 84.0747 13.4394 83.5216 12.5858C83.2574 12.1393 82.9574 11.716 82.6247 11.3203C79.6992 7.65485 76.2613 7.00031 74.1686 7.00031C72.7147 6.98894 71.2751 7.29443 69.9459 7.89639C68.6166 8.49835 67.4282 9.38296 66.46 10.4912C66.9668 11.1483 67.4169 11.8491 67.8052 12.5858C69.2359 15.2258 70.1328 18.8476 70.8802 21.924C71.2859 20.5276 71.7557 18.7385 72.2895 17.7349C73.165 16.0985 73.7629 16.0985 74.1686 16.0985C75.3858 16.0985 76.3681 17.9312 76.8378 19.0003C76.8378 19.0003 78.5248 23.233 82.8382 21.5094Z" fill="white"/>
<path d="M85.6352 12.346L85.2295 12.3023H85.1227C85.568 13.0621 85.9674 13.849 86.3185 14.6587L86.4253 14.8769C87.0688 16.3444 87.1179 18.0125 86.5618 19.5168C86.0056 21.0212 84.8895 22.2396 83.4571 22.906C82.6842 23.2592 81.8481 23.4449 81.0015 23.4514C80.4233 23.4408 79.849 23.3527 79.2932 23.1896C78.6953 25.4805 77.7557 28.2951 76.9016 29.9969C76.0474 31.6987 75.0438 32.8114 74.1469 32.8114C73.7626 32.8114 73.1433 32.8114 72.2465 31.1096C71.6801 29.9642 71.2225 28.766 70.8798 27.5314C70.6022 26.5714 70.346 25.546 70.0897 24.4769C69.983 24.0841 69.8976 23.6914 69.8121 23.2987C69.0007 19.8514 68.0825 16.2296 66.5023 13.3278C66.1999 12.7695 65.8647 12.2303 65.4987 11.7132C65.1995 11.2891 64.8788 10.8813 64.5378 10.4914C63.5671 9.38037 62.3753 8.49412 61.0421 7.89206C59.709 7.28999 58.2653 6.98602 56.8077 7.00049C54.7364 7.00049 51.2985 7.65504 48.373 11.3205C49.2957 11.7446 50.0974 12.4019 50.7026 13.2302C51.3078 14.0585 51.6966 15.0307 51.8323 16.055C51.9818 17.146 52.3448 19.2623 52.7719 21.2696C52.8146 21.4878 52.8573 21.706 52.9214 21.946C53.2417 21.0951 53.562 20.3751 53.9036 19.5678L54.1599 19.0005C54.6297 17.9314 55.6119 16.0987 56.8077 16.0987C57.2348 16.0987 57.8327 16.0987 58.7082 17.7351C59.2981 18.905 59.7703 20.1331 60.1176 21.4005C60.3952 22.3823 60.6728 23.4296 60.9077 24.4769C60.9931 24.7823 61.0571 25.0878 61.1212 25.3932C61.9753 29.0369 62.8722 32.5496 64.4097 35.4514C64.7279 36.0681 65.092 36.6589 65.4987 37.2187C65.7978 37.6359 66.1186 38.0365 66.4596 38.4187C69.0007 41.2333 71.9262 41.9096 74.1469 41.9096C77.2432 41.9096 81.6207 40.5569 84.8451 34.1423C86.4894 30.8478 87.8774 25.9823 88.3898 23.5169C88.9023 21.0514 89.2867 18.826 89.4575 17.4732C89.5386 16.8798 89.5039 16.2758 89.3553 15.6961C89.2067 15.1164 88.9473 14.5725 88.5919 14.0959C88.2366 13.6192 87.7923 13.2191 87.2849 12.9188C86.7774 12.6184 86.2167 12.4237 85.6352 12.346Z" fill="white"/>
<path d="M38.2013 101.219H37.2217V92.2388H38.4107V95.6306C38.6482 95.2798 38.9707 94.9961 39.3476 94.8063C39.7245 94.6165 40.1433 94.5269 40.5643 94.546C40.9773 94.5264 41.3891 94.6075 41.7642 94.7825C42.1396 94.9572 42.4676 95.2206 42.7204 95.5502C43.174 96.1495 43.4008 96.9436 43.4008 97.9327C43.4008 99.1044 43.0918 100.002 42.4736 100.627C42.2119 100.887 41.9 101.092 41.5571 101.227C41.2143 101.362 40.8474 101.425 40.4795 101.412C40.0707 101.433 39.6632 101.348 39.2965 101.165C38.9299 100.982 38.6163 100.706 38.3857 100.365L38.2013 101.219ZM42.162 97.9001C42.162 97.0867 41.9601 96.4741 41.5563 96.0674C41.3916 95.9002 41.1944 95.7691 40.9768 95.6828C40.7592 95.5964 40.5264 95.5562 40.2926 95.5653C40.0184 95.5542 39.7454 95.6085 39.4959 95.7237C39.2464 95.8389 39.0276 96.0117 38.8568 96.2281C38.5036 96.7096 38.3274 97.2996 38.3583 97.8976C38.3583 98.7344 38.561 99.3706 38.9665 99.8056C39.133 99.9952 39.3391 100.145 39.5702 100.244C39.8013 100.344 40.0515 100.39 40.3025 100.381C40.5765 100.396 40.8497 100.341 41.0967 100.221C41.3439 100.101 41.5568 99.9201 41.7158 99.6952C42.0132 99.2734 42.162 98.6751 42.162 97.9001Z" fill="white"/>
<path d="M49.7667 94.7344L47.5234 101.307C47.2242 102.179 46.9393 102.773 46.6684 103.09C46.5156 103.271 46.3244 103.416 46.1086 103.513C45.8929 103.611 45.6584 103.658 45.4221 103.652C45.1626 103.646 44.9049 103.608 44.6544 103.539V102.565C44.856 102.62 45.0637 102.65 45.2725 102.653C45.3859 102.659 45.4989 102.638 45.6026 102.591C45.7063 102.544 45.7972 102.473 45.8683 102.384C46.0956 102.021 46.2748 101.629 46.4017 101.219H46.0153L43.6523 94.7344H44.9385L46.7606 100.245L48.5802 94.7344H49.7667Z" fill="white"/>
<path d="M66.1164 92.2515H63.873V101.249H66.1164V92.2515Z" fill="white"/>
<path d="M84.2957 94.8299C83.7149 94.51 83.0631 94.3441 82.4013 94.3478C80.9431 94.3478 79.9311 95.3696 79.9311 96.7479C79.9311 98.0861 80.9008 99.1506 82.4013 99.1506C83.0623 99.1543 83.7139 98.9901 84.2957 98.6735V101.089C83.6294 101.297 82.9365 101.405 82.2393 101.41C79.7068 101.41 77.4834 99.6527 77.4834 96.7479C77.4834 94.0616 79.4974 92.0908 82.2393 92.0908C82.9372 92.0916 83.6307 92.2008 84.2957 92.4147V94.8299Z" fill="white"/>
<path d="M60.7523 94.8297C60.1715 94.5101 59.5197 94.3444 58.8579 94.3477C57.3972 94.3477 56.3877 95.3695 56.3877 96.7478C56.3877 98.0859 57.3549 99.1504 58.8579 99.1504C59.5179 99.1574 60.1693 98.9977 60.7523 98.6859V101.101C60.086 101.309 59.3931 101.417 58.6959 101.422C56.1609 101.422 53.9375 99.6651 53.9375 96.7603C53.9375 94.074 55.9515 92.1032 58.6959 92.1032C59.3928 92.0982 60.0865 92.2014 60.7523 92.4095V94.8297Z" fill="white"/>
<path d="M91.3883 94.383C90.9227 94.3795 90.4666 94.5155 90.0775 94.7736C89.6886 95.0317 89.3848 95.4003 89.2043 95.8328C89.0236 96.2652 88.9747 96.7419 89.0637 97.2023C89.1527 97.6628 89.3753 98.0863 89.7036 98.419C90.0318 98.7519 90.4508 98.9788 90.9075 99.0715C91.3641 99.1639 91.8377 99.1177 92.2682 98.9387C92.6987 98.7597 93.0666 98.4559 93.3253 98.0657C93.5841 97.6756 93.7219 97.2169 93.7214 96.7479C93.7269 96.4371 93.6703 96.1283 93.5551 95.8401C93.44 95.5516 93.2685 95.2895 93.0511 95.0691C92.8335 94.8484 92.5743 94.6742 92.2886 94.5565C92.0032 94.4385 91.6969 94.3795 91.3883 94.383ZM96.1093 96.7479C96.1093 99.3238 94.1352 101.41 91.3883 101.41C88.6415 101.41 86.6748 99.3238 86.6748 96.7479C86.6748 94.1721 88.644 92.0908 91.3933 92.0908C94.1426 92.0908 96.1143 94.1796 96.1143 96.7479" fill="white"/>
<path d="M74.6661 94.295C74.091 94.1359 73.4998 94.0442 72.9038 94.0214C72.0015 94.0214 71.508 94.3252 71.508 94.7595C71.508 95.3068 72.171 95.4976 72.5424 95.6156L73.1655 95.8139C74.6287 96.2834 75.2942 97.2927 75.2942 98.3898C75.2942 100.649 73.3201 101.402 71.5952 101.402C70.7784 101.393 69.9643 101.309 69.1624 101.151V99.0802C69.8551 99.2823 70.5705 99.3945 71.2911 99.4141C72.4128 99.4141 72.9287 99.0852 72.9287 98.5756C72.9287 98.1186 72.4826 97.855 71.9317 97.6793C71.7946 97.6316 71.5902 97.5688 71.4506 97.5211C70.2043 97.1219 69.1475 96.3788 69.1475 94.89C69.1475 93.2054 70.3938 92.0757 72.4776 92.0757C73.2181 92.086 73.9549 92.1821 74.6736 92.3619L74.6661 94.295Z" fill="white"/>
<path d="M31.8675 60.4443H36.8799L29.5922 82.6318H23.842L18.3952 65.8888L12.9483 82.6318H7.28774L0 60.4443H5.12968L10.3007 77.3054L15.7269 60.4443H21.1737L26.6895 77.3957L31.8675 60.4443Z" fill="white"/>
<path d="M58.3777 73.3196H42.1199C42.2699 74.4637 42.696 75.5533 43.3609 76.4932C43.95 77.3155 44.7477 77.9632 45.6707 78.3682C46.6107 78.7771 47.6254 78.983 48.6492 78.9724C49.7841 78.968 50.9093 78.7611 51.9725 78.3613C53.0748 77.9553 54.1041 77.3713 55.02 76.6321L57.4124 80.1043C56.1924 81.1758 54.7717 81.9904 53.2342 82.5001C51.6551 82.9994 50.0078 83.2455 48.3527 83.2293C46.3143 83.2698 44.3009 82.7718 42.5129 81.7849C40.8217 80.8303 39.4366 79.4087 38.5208 77.6876C37.5358 75.8012 37.0423 73.6937 37.0867 71.5626C37.0445 69.4517 37.518 67.3626 38.4657 65.4793C39.3463 63.7663 40.6895 62.3388 42.3405 61.3613C44.0728 60.3571 46.0442 59.8481 48.0425 59.889C49.9282 59.8365 51.7889 60.3326 53.4018 61.3179C55.0148 62.3032 56.3115 63.736 57.1366 65.4446C58.0476 67.3341 58.5012 69.414 58.4604 71.514C58.4673 71.9793 58.4397 72.5835 58.3777 73.3196ZM53.5514 69.639C53.4032 68.1184 52.7553 66.6912 51.7105 65.5835C51.2096 65.1107 50.6194 64.7441 49.9751 64.5055C49.3308 64.2669 48.6454 64.1612 47.9597 64.1946C47.238 64.1613 46.5169 64.2745 45.8394 64.5274C45.162 64.7803 44.5418 65.1678 44.016 65.6668C42.9746 66.7582 42.3098 68.1583 42.1199 69.6599L53.5514 69.639Z" fill="white"/>
<path d="M78.9444 61.375C80.6216 62.3742 81.9969 63.8147 82.9227 65.5417C83.9126 67.3824 84.4159 69.4485 84.3843 71.5417C84.416 73.6326 83.9126 75.6965 82.9227 77.5347C81.9966 79.2697 80.6163 80.7158 78.9315 81.7161C77.2468 82.7164 75.3221 83.2325 73.3666 83.2083C71.9942 83.2373 70.6335 82.9499 69.3883 82.3681C68.2471 81.8138 67.2489 81.0009 66.4718 79.9931V82.6319H61.6455V51H66.4718V63.0833C67.2522 62.0823 68.2499 61.2746 69.3883 60.7222C70.6318 60.1347 71.9934 59.8447 73.3666 59.875C75.3272 59.8508 77.2567 60.3697 78.9444 61.375ZM76.3106 77.7014C77.3117 77.0815 78.1175 76.1881 78.6341 75.125C79.1645 74.0047 79.4397 72.7793 79.4397 71.5382C79.4397 70.2971 79.1645 69.0717 78.6341 67.9514C78.1153 66.8898 77.31 65.9969 76.3106 65.375C75.2483 64.7629 74.0457 64.4409 72.8219 64.4409C71.598 64.4409 70.3954 64.7629 69.3331 65.375C68.3311 65.9878 67.5192 66.8706 66.9889 67.9236C66.4154 69.0483 66.1265 70.2983 66.1478 71.5625C66.1259 72.8246 66.4149 74.0724 66.9889 75.1944C67.5192 76.2475 68.3311 77.1302 69.3331 77.7431C70.3954 78.3552 71.598 78.6771 72.8219 78.6771C74.0457 78.6771 75.2483 78.3552 76.3106 77.7431V77.7014Z" fill="white"/>
<path d="M108.199 73.3196H91.9479C92.0979 74.4637 92.524 75.5533 93.1889 76.4932C93.778 77.3155 94.5757 77.9631 95.4987 78.3682C96.4387 78.7771 97.4533 78.9829 98.4772 78.9723C99.612 78.967 100.737 78.7601 101.8 78.3612C102.903 77.9553 103.932 77.3712 104.848 76.6321L107.234 80.1043C106.017 81.1771 104.598 81.9919 103.062 82.5001C101.481 82.999 99.8311 83.245 98.1738 83.2293C96.1356 83.2675 94.1228 82.7696 92.334 81.7848C90.6463 80.828 89.264 79.4068 88.3488 77.6876C87.3616 75.8017 86.8658 73.6942 86.9078 71.5626C86.8659 69.4517 87.3394 67.3627 88.2868 65.4793C89.1674 63.7663 90.5106 62.3388 92.1616 61.3612C93.9039 60.3424 95.8908 59.8259 97.9049 59.8682C99.7901 59.8182 101.65 60.3154 103.262 61.3004C104.875 62.2854 106.172 63.7168 106.999 65.4237C107.91 67.3132 108.364 69.3931 108.323 71.4932C108.295 71.9793 108.247 72.5835 108.199 73.3196ZM103.372 69.639C103.213 68.1282 102.564 66.7124 101.525 65.6112C101.027 65.1358 100.44 64.7655 99.7985 64.5222C99.1567 64.2789 98.473 64.1675 97.7877 64.1946C97.0659 64.1605 96.3446 64.2733 95.667 64.5262C94.9894 64.7792 94.3694 65.1671 93.8439 65.6668C92.8002 66.7565 92.135 68.1574 91.9479 69.6598L103.372 69.639Z" fill="white"/>
<path d="M131.124 82.6318H125.215L119.63 74.9166L114.114 82.6318H108.481L116.755 71.3054L108.612 60.4443H114.528L119.906 67.8541L125.284 60.4443H131L122.822 71.2638L131.124 82.6318Z" fill="white"/>
</g>
<defs>
<clipPath id="clip0_13250_6179">
<rect width="131" height="106" fill="white"/>
</clipPath>
</defs>
</svg>
