<svg width="240" height="240" viewBox="0 0 240 240" fill="none" xmlns="http://www.w3.org/2000/svg">
<path d="M34.3522 68.4022C24.5235 69.1461 16.4239 79.5598 17.88 90.2524C18.335 94.1576 19.3361 100.201 20.6102 106.803C21.1562 109.778 21.7933 112.939 22.4303 116.008C24.019 123.424 25.9936 130.749 28.3458 137.951C30.8715 145.94 33.943 153.739 37.5375 161.289C51.2795 188.625 69.8448 194.39 83.0408 194.39C89.2382 194.444 95.3754 193.145 101.041 190.579C106.707 188.014 111.771 184.241 115.894 179.513C113.592 176.509 111.552 173.304 109.797 169.936C103.972 158.964 100.241 146.319 97.0558 133.116C95.5954 138.377 93.645 143.483 91.2314 148.365C87.4091 155.617 84.77 155.617 83.0408 155.617C79.3095 155.617 75.3963 151.526 71.392 143.623C69.3286 139.299 67.5056 134.86 65.9316 130.327C64.8395 127.072 63.7474 123.725 62.8373 120.471C61.9273 117.217 60.2891 111.452 59.5611 107.826C57.6499 98.9925 55.3748 84.4877 55.2838 84.0228C54.4647 79.8387 49.6413 67.1005 34.3522 68.4022Z" fill="white"/>
<path d="M193.888 107.454C203.626 103.642 207.721 91.5543 203.353 81.7915L202.989 80.8617C201.227 76.8874 199.158 73.0631 196.8 69.4252C195.674 67.5226 194.396 65.7188 192.978 64.0324C180.51 48.4118 165.858 45.6224 156.939 45.6224C150.743 45.574 144.608 46.8758 138.942 49.4411C133.277 52.0064 128.213 55.7762 124.086 60.4991C126.246 63.2995 128.164 66.286 129.819 69.4252C135.917 80.6757 139.739 96.1103 142.924 109.22C144.653 103.27 146.656 95.6454 148.931 91.3684C152.662 84.3949 155.21 84.3949 156.939 84.3949C162.127 84.3949 166.313 92.2052 168.315 96.7612C168.315 96.7612 175.505 114.799 193.888 107.454Z" fill="white"/>
<path d="M205.808 68.4022L204.079 68.2163H203.624C205.521 71.4541 207.223 74.8076 208.72 78.2581L209.175 79.1879C211.918 85.4418 212.127 92.5505 209.757 98.9614C207.386 105.372 202.63 110.565 196.525 113.404C193.231 114.909 189.668 115.701 186.059 115.729C183.595 115.683 181.147 115.308 178.779 114.613C176.23 124.376 172.226 136.37 168.586 143.623C164.946 150.875 160.668 155.617 156.846 155.617C155.208 155.617 152.569 155.617 148.746 148.365C146.333 143.483 144.383 138.377 142.922 133.116C141.739 129.025 140.647 124.655 139.555 120.099C139.1 118.425 138.736 116.752 138.372 115.078C134.913 100.387 131 84.9526 124.266 72.5863C122.977 70.207 121.548 67.9093 119.988 65.7058C118.713 63.8983 117.346 62.1603 115.893 60.499C111.756 55.7642 106.677 51.9874 100.995 49.4217C95.3133 46.8559 89.1604 45.5605 82.9486 45.6222C74.121 45.6222 59.4689 48.4116 47.001 64.0322C50.933 65.8397 54.3498 68.6405 56.9292 72.1705C59.5085 75.7005 61.1656 79.8434 61.7441 84.2088C62.3811 88.8577 63.9282 97.8768 65.7484 106.431C65.9304 107.361 66.1124 108.29 66.3854 109.313C67.7505 105.687 69.1156 102.619 70.5717 99.1785L71.6638 96.761C73.6659 92.205 77.8522 84.3947 82.9486 84.3947C84.7688 84.3947 87.3169 84.3947 91.0482 91.3682C93.5622 96.3542 95.5746 101.588 97.0547 106.989C98.2378 111.173 99.4208 115.636 100.422 120.099C100.786 121.401 101.059 122.702 101.332 124.004C104.972 139.532 108.795 154.501 115.347 166.868C116.703 169.496 118.255 172.013 119.988 174.399C121.263 176.177 122.63 177.884 124.084 179.513C134.913 191.507 147.381 194.39 156.846 194.39C170.042 194.39 188.698 188.625 202.44 161.289C209.448 147.249 215.363 126.514 217.548 116.008C219.732 105.501 221.37 96.0172 222.098 90.2524C222.443 87.7234 222.295 85.1494 221.662 82.6791C221.029 80.2087 219.923 77.891 218.409 75.8596C216.894 73.8282 215.001 72.1233 212.838 70.8433C210.675 69.5634 208.286 68.7337 205.808 68.4022Z" fill="white"/>
</svg>
