<svg width="166" height="28" viewBox="0 0 166 28" fill="none" xmlns="http://www.w3.org/2000/svg">
<path fill-rule="evenodd" clip-rule="evenodd" d="M50.1753 7.57632C51.2395 8.20788 52.112 9.11685 52.6993 10.206C53.309 11.3748 53.6273 12.6736 53.6273 13.9919C53.6273 15.3102 53.309 16.609 52.6993 17.7778C52.1098 18.8713 51.2324 19.783 50.1624 20.4141C49.0922 21.0453 47.87 21.3718 46.6276 21.3587C45.7567 21.3756 44.8935 21.1932 44.1036 20.8255C43.3788 20.4737 42.7438 19.9612 42.2469 19.3269V20.9927H39.1929V1.02979H42.2469V8.65689C42.7434 8.0226 43.3786 7.51049 44.1036 7.15986C44.893 6.79086 45.7565 6.60792 46.6276 6.6251C47.8751 6.61092 49.1023 6.93999 50.1753 7.57632ZM48.5032 17.8788C49.1378 17.4881 49.6491 16.9258 49.9782 16.2572C50.3157 15.5497 50.4908 14.7758 50.4908 13.9919C50.4908 13.2081 50.3157 12.4341 49.9782 11.7267C49.6491 11.0575 49.1378 10.4949 48.5032 10.1034C47.8298 9.71319 47.0657 9.50647 46.2872 9.504C45.5089 9.5015 44.7435 9.70331 44.0673 10.0892C43.431 10.4764 42.9148 11.033 42.5766 11.6967C42.2261 12.4108 42.0438 13.1956 42.0438 13.9911C42.0438 14.7866 42.2261 15.5715 42.5766 16.2856C42.9148 16.9493 43.431 17.5059 44.0673 17.893C44.7435 18.279 45.5089 18.4808 46.2872 18.4782C47.0657 18.4757 47.8298 18.2691 48.5032 17.8788Z" fill="white"/>
<path fill-rule="evenodd" clip-rule="evenodd" d="M26.7719 15.1165H37.1107C37.1454 14.6496 37.1627 14.2694 37.1627 13.976C37.1887 12.6514 36.9005 11.3394 36.3219 10.1475C35.8042 9.08196 34.9973 8.18336 33.9936 7.55411C32.9572 6.92509 31.7636 6.60292 30.5515 6.62498C29.2804 6.60048 28.0263 6.9216 26.9233 7.55411C25.8732 8.17092 25.0193 9.07291 24.4609 10.1554C23.8548 11.3418 23.5513 12.6597 23.5775 13.9918C23.5775 15.4536 23.8819 16.7419 24.4908 17.8566C25.0683 18.9421 25.944 19.8397 27.0148 20.4437C28.1528 21.0671 29.434 21.382 30.7313 21.3571C31.7845 21.3675 32.8327 21.2121 33.8374 20.8964C34.8137 20.5746 35.7154 20.0602 36.4891 19.3836L34.97 17.2067C34.3876 17.6722 33.7334 18.0398 33.0329 18.2952C32.3577 18.5476 31.6431 18.6785 30.9222 18.6817C30.2718 18.6883 29.6271 18.5592 29.0292 18.3031C28.4437 18.045 27.9368 17.6363 27.5606 17.1184C27.1383 16.5255 26.8675 15.8382 26.7719 15.1165ZM32.8578 10.25C33.4773 10.8537 33.8696 11.7013 34.0346 12.7929L26.7798 12.7961C26.9555 11.7318 27.3571 10.8905 27.9849 10.2721C28.6128 9.65373 29.4484 9.34455 30.4916 9.34455C31.4497 9.34455 32.2385 9.64637 32.8578 10.25Z" fill="white"/>
<path d="M20.2548 6.99108H23.4413L18.8114 20.9912H15.1548L11.6844 10.4221L8.22182 20.9912H4.63305L0 6.99108H3.25907L6.54653 17.6296L9.99648 6.99108H13.459L16.9532 17.6896L20.2548 6.99108Z" fill="white"/>
<path fill-rule="evenodd" clip-rule="evenodd" d="M58.4392 15.1166H68.7717C68.8107 14.6496 68.8316 14.2695 68.8348 13.976C68.8607 12.6514 68.5726 11.3394 67.994 10.1475C67.4736 9.08075 66.6634 8.18201 65.6562 7.55413C64.6199 6.92471 63.4262 6.6025 62.2141 6.62499C60.9428 6.60034 59.6889 6.92148 58.5859 7.55413C57.5353 8.17054 56.6814 9.07261 56.1235 10.1554C55.5168 11.3417 55.2128 12.6596 55.2385 13.9918C55.2385 15.4536 55.543 16.7419 56.1519 17.8566C56.7328 18.9437 57.6131 19.8414 58.6885 20.4437C59.8249 21.0668 61.1045 21.3817 62.4003 21.3571C63.4529 21.3675 64.5005 21.2121 65.5047 20.8964C66.482 20.5748 67.3848 20.0604 68.1596 19.3836L66.6389 17.2067C66.0573 17.6725 65.4035 18.0401 64.7034 18.2952C64.0276 18.5477 63.3125 18.6787 62.5911 18.6817C61.9407 18.6883 61.296 18.5594 60.6982 18.3031C60.1121 18.0448 59.6048 17.6361 59.228 17.1184C58.8055 16.5255 58.5348 15.8382 58.4392 15.1166ZM64.5267 10.25C65.144 10.8537 65.5363 11.7013 65.7035 12.7929L58.4392 12.7961C58.6138 11.7318 59.0155 10.8905 59.6444 10.2721C60.2733 9.65375 61.1088 9.34456 62.151 9.34456C63.1175 9.34456 63.9094 9.64638 64.5267 10.25Z" fill="white"/>
<path d="M79.587 20.9912H83.3429L78.0663 13.8153L83.2404 6.99108H79.6296L76.2112 11.6683L72.7912 6.99108H69.0352L74.2235 13.8452L68.9469 20.9912H72.5278L76.0345 16.1247L79.587 20.9912Z" fill="white"/>
<path fill-rule="evenodd" clip-rule="evenodd" d="M155.509 20.9998V6.99976H157.552V12.2019H157.676C157.794 11.9832 157.965 11.7302 158.188 11.4431C158.412 11.156 158.721 10.9054 159.118 10.6912C159.514 10.4724 160.038 10.363 160.69 10.363C161.538 10.363 162.294 10.5772 162.96 11.0056C163.625 11.434 164.147 12.0515 164.525 12.8582C164.908 13.6648 165.099 14.6355 165.099 15.7703C165.099 16.905 164.91 17.878 164.532 18.6892C164.154 19.4958 163.634 20.1179 162.973 20.5554C162.313 20.9884 161.558 21.2048 160.711 21.2048C160.073 21.2048 159.551 21.0977 159.145 20.8835C158.744 20.6694 158.43 20.4187 158.202 20.1316C157.974 19.8445 157.799 19.5893 157.676 19.366H157.505V20.9998H155.509ZM157.511 15.7498C157.511 16.488 157.619 17.1352 157.833 17.6912C158.047 18.2472 158.357 18.6824 158.762 18.9968C159.168 19.3067 159.665 19.4617 160.253 19.4617C160.863 19.4617 161.374 19.2999 161.784 18.9763C162.194 18.6482 162.504 18.2039 162.714 17.6433C162.928 17.0828 163.035 16.4516 163.035 15.7498C163.035 15.057 162.93 14.435 162.72 13.8835C162.515 13.3321 162.205 12.8969 161.791 12.5779C161.381 12.2589 160.868 12.0994 160.253 12.0994C159.66 12.0994 159.159 12.252 158.749 12.5574C158.343 12.8627 158.036 13.2888 157.826 13.8357C157.616 14.3826 157.511 15.0206 157.511 15.7498Z" fill="white"/>
<path d="M151.397 10.4998V16.6453C151.402 17.2423 151.277 17.7345 151.021 18.1218C150.771 18.5092 150.454 18.7986 150.071 18.99C149.693 19.1814 149.312 19.2771 148.93 19.2771C148.296 19.2771 147.781 19.0652 147.385 18.6414C146.988 18.2175 146.79 17.6479 146.79 16.9324V10.4998H144.746V17.1785C144.746 18.0444 144.892 18.7712 145.184 19.3591C145.48 19.947 145.885 20.3914 146.4 20.6921C146.92 20.9884 147.517 21.1365 148.191 21.1365C148.98 21.1365 149.638 20.9519 150.167 20.5828C150.7 20.2091 151.088 19.7419 151.329 19.1814H151.438V20.9998H153.448V10.4998H151.397Z" fill="white"/>
<path d="M131.473 20.9998V6.99976H133.585V13.0837H140.565V6.99976H142.684V20.9998H140.565V14.8953H133.585V20.9998H131.473Z" fill="white"/>
<path fill-rule="evenodd" clip-rule="evenodd" d="M116.034 10.4998V24.9373H118.078V19.366H118.201C118.324 19.5893 118.499 19.8445 118.727 20.1316C118.955 20.4187 119.269 20.6694 119.67 20.8835C120.076 21.0977 120.598 21.2048 121.236 21.2048C122.083 21.2048 122.838 20.9884 123.499 20.5554C124.159 20.1179 124.679 19.4958 125.057 18.6892C125.435 17.878 125.625 16.905 125.625 15.7703C125.625 14.6355 125.433 13.6648 125.05 12.8582C124.672 12.0515 124.15 11.434 123.485 11.0056C122.819 10.5772 122.063 10.363 121.215 10.363C120.564 10.363 120.04 10.4724 119.643 10.6912C119.247 10.9054 118.937 11.156 118.713 11.4431C118.49 11.7302 118.319 11.9832 118.201 12.2019H118.03V10.4998H116.034ZM118.358 17.6912C118.144 17.1352 118.037 16.488 118.037 15.7498C118.037 15.0206 118.141 14.3826 118.351 13.8357C118.561 13.2888 118.868 12.8627 119.274 12.5574C119.684 12.252 120.185 12.0994 120.778 12.0994C121.393 12.0994 121.906 12.2589 122.316 12.5779C122.731 12.8969 123.041 13.3321 123.246 13.8835C123.455 14.435 123.56 15.057 123.56 15.7498C123.56 16.4516 123.453 17.0828 123.239 17.6433C123.029 18.2039 122.719 18.6482 122.309 18.9763C121.899 19.2999 121.389 19.4617 120.778 19.4617C120.19 19.4617 119.693 19.3067 119.288 18.9968C118.882 18.6824 118.572 18.2472 118.358 17.6912Z" fill="white"/>
<path fill-rule="evenodd" clip-rule="evenodd" d="M105.003 24.9373V10.4998H106.999V12.2019H107.17C107.288 11.9832 107.459 11.7302 107.682 11.4431C107.906 11.156 108.216 10.9054 108.612 10.6912C109.009 10.4724 109.533 10.363 110.184 10.363C111.032 10.363 111.788 10.5772 112.454 11.0056C113.119 11.434 113.641 12.0515 114.019 12.8582C114.402 13.6648 114.594 14.6355 114.594 15.7703C114.594 16.905 114.404 17.878 114.026 18.6892C113.648 19.4958 113.128 20.1179 112.468 20.5554C111.807 20.9884 111.052 21.2048 110.205 21.2048C109.567 21.2048 109.045 21.0977 108.639 20.8835C108.238 20.6694 107.924 20.4187 107.696 20.1316C107.468 19.8445 107.293 19.5893 107.17 19.366H107.047V24.9373H105.003ZM107.006 15.7498C107.006 16.488 107.113 17.1352 107.327 17.6912C107.541 18.2472 107.851 18.6824 108.257 18.9968C108.662 19.3067 109.159 19.4617 109.747 19.4617C110.358 19.4617 110.868 19.2999 111.278 18.9763C111.688 18.6482 111.998 18.2039 112.208 17.6433C112.422 17.0828 112.529 16.4516 112.529 15.7498C112.529 15.057 112.424 14.435 112.215 13.8835C112.01 13.3321 111.7 12.8969 111.285 12.5779C110.875 12.2589 110.362 12.0994 109.747 12.0994C109.154 12.0994 108.653 12.252 108.243 12.5574C107.837 12.8627 107.53 13.2888 107.32 13.8357C107.11 14.3826 107.006 15.0206 107.006 15.7498Z" fill="white"/>
<path fill-rule="evenodd" clip-rule="evenodd" d="M91.4785 20.9998H93.7207L95.0029 17.2947H100.473L101.753 20.9998H103.995L98.957 6.99976H96.5166L91.4785 20.9998ZM97.7949 9.54272L99.8589 15.5173H95.618L97.6855 9.54272H97.7949Z" fill="white"/>
</svg>
