<svg width="213" height="28" viewBox="0 0 213 28" fill="none" xmlns="http://www.w3.org/2000/svg">
<path fill-rule="evenodd" clip-rule="evenodd" d="M52.6993 10.2065C52.112 9.11734 51.2395 8.20836 50.1753 7.57681C49.1023 6.94048 47.8751 6.61141 46.6276 6.62559C45.7565 6.60841 44.893 6.79135 44.1036 7.16035C43.3786 7.51098 42.7434 8.02309 42.2469 8.65738V1.03027H39.1929V20.9932H42.2469V19.3274C42.7438 19.9617 43.3788 20.4742 44.1036 20.826C44.8935 21.1937 45.7567 21.3761 46.6276 21.3592C47.87 21.3723 49.0922 21.0458 50.1624 20.4146C51.2324 19.7835 52.1098 18.8718 52.6993 17.7783C53.309 16.6095 53.6273 15.3107 53.6273 13.9924C53.6273 12.6741 53.309 11.3753 52.6993 10.2065ZM49.9782 16.2577C49.6491 16.9263 49.1378 17.4885 48.5032 17.8793C47.8298 18.2696 47.0657 18.4762 46.2872 18.4787C45.5089 18.4813 44.7435 18.2795 44.0673 17.8935C43.431 17.5064 42.9148 16.9498 42.5766 16.2861C42.2261 15.572 42.0438 14.7871 42.0438 13.9916C42.0438 13.1961 42.2261 12.4112 42.5766 11.6972C42.9148 11.0335 43.431 10.4769 44.0673 10.0897C44.7435 9.7038 45.5089 9.50199 46.2872 9.50448C47.0657 9.50696 47.8298 9.71367 48.5032 10.1039C49.1378 10.4954 49.6491 11.058 49.9782 11.7272C50.3157 12.4346 50.4908 13.2086 50.4908 13.9924C50.4908 14.7763 50.3157 15.5502 49.9782 16.2577Z" fill="black"/>
<path fill-rule="evenodd" clip-rule="evenodd" d="M37.1107 15.117H26.7719C26.8675 15.8387 27.1383 16.526 27.5606 17.1189C27.9368 17.6367 28.4437 18.0455 29.0292 18.3036C29.6271 18.5597 30.2718 18.6888 30.9222 18.6821C31.6431 18.679 32.3577 18.5481 33.0329 18.2957C33.7334 18.0403 34.3876 17.6727 34.97 17.2072L36.4891 19.3841C35.7154 20.0607 34.8137 20.5751 33.8374 20.8969C32.8327 21.2126 31.7845 21.368 30.7313 21.3576C29.434 21.3825 28.1528 21.0676 27.0148 20.4442C25.944 19.8402 25.0683 18.9426 24.4908 17.8571C23.8819 16.7424 23.5775 15.4541 23.5775 13.9923C23.5513 12.6602 23.8548 11.3423 24.4609 10.1559C25.0193 9.07339 25.8732 8.17141 26.9233 7.5546C28.0263 6.92209 29.2804 6.60097 30.5515 6.62546C31.7636 6.60341 32.9572 6.92558 33.9936 7.5546C34.9973 8.18385 35.8042 9.08245 36.3219 10.148C36.9005 11.3399 37.1887 12.6519 37.1627 13.9765C37.1627 14.2699 37.1454 14.6501 37.1107 15.117ZM34.0346 12.7934C33.8696 11.7018 33.4773 10.8542 32.8578 10.2505C32.2385 9.64686 31.4497 9.34504 30.4916 9.34504C29.4484 9.34504 28.6128 9.65422 27.9849 10.2726C27.3571 10.891 26.9555 11.7323 26.7798 12.7966L34.0346 12.7934Z" fill="black"/>
<path d="M23.4413 6.99157H20.2548L16.9532 17.6901L13.459 6.99157H9.99648L6.54653 17.6301L3.25907 6.99157H0L4.63305 20.9917H8.22182L11.6844 10.4226L15.1548 20.9917H18.8114L23.4413 6.99157Z" fill="black"/>
<path fill-rule="evenodd" clip-rule="evenodd" d="M68.7717 15.117H58.4392C58.5348 15.8387 58.8055 16.526 59.228 17.1189C59.6048 17.6366 60.1121 18.0453 60.6982 18.3036C61.296 18.5599 61.9407 18.6888 62.5911 18.6821C63.3125 18.6791 64.0276 18.5482 64.7034 18.2957C65.4035 18.0406 66.0573 17.673 66.6389 17.2072L68.1596 19.3841C67.3848 20.0609 66.482 20.5753 65.5047 20.8969C64.5005 21.2126 63.4529 21.368 62.4003 21.3576C61.1045 21.3822 59.8249 21.0673 58.6885 20.4442C57.6131 19.8419 56.7328 18.9442 56.1519 17.8571C55.543 16.7424 55.2385 15.4541 55.2385 13.9923C55.2128 12.6601 55.5168 11.3422 56.1235 10.1559C56.6814 9.07309 57.5353 8.17103 58.5859 7.55462C59.6889 6.92197 60.9428 6.60082 62.2141 6.62548C63.4262 6.60298 64.6199 6.9252 65.6562 7.55462C66.6634 8.1825 67.4736 9.08123 67.994 10.148C68.5726 11.3399 68.8607 12.6519 68.8348 13.9765C68.8316 14.2699 68.8107 14.6501 68.7717 15.117ZM65.7035 12.7934C65.5363 11.7018 65.144 10.8542 64.5267 10.2505C63.9094 9.64687 63.1175 9.34505 62.151 9.34505C61.1088 9.34505 60.2733 9.65424 59.6444 10.2726C59.0155 10.891 58.6138 11.7323 58.4392 12.7966L65.7035 12.7934Z" fill="black"/>
<path d="M83.3429 20.9917H79.587L76.0345 16.1252L72.5278 20.9917H68.9469L74.2235 13.8457L69.0352 6.99157H72.7912L76.2112 11.6688L79.6296 6.99157H83.2404L78.0663 13.8157L83.3429 20.9917Z" fill="black"/>
<path fill-rule="evenodd" clip-rule="evenodd" d="M204.832 20.5491C205.579 20.9912 206.47 21.2122 207.505 21.2122C208.27 21.2122 208.952 21.096 209.549 20.8636C210.15 20.6266 210.649 20.2962 211.046 19.8723C211.447 19.444 211.725 18.9449 211.88 18.3753L209.945 18.0266C209.822 18.3548 209.644 18.6305 209.412 18.8538C209.179 19.0771 208.904 19.2457 208.585 19.3596C208.266 19.469 207.913 19.5237 207.525 19.5237C206.928 19.5237 206.406 19.3961 205.96 19.1409C205.513 18.8811 205.164 18.5052 204.914 18.013C204.685 17.5547 204.562 17.0055 204.546 16.3655H212.01V15.6409C212.01 14.6884 211.882 13.8795 211.627 13.2141C211.372 12.5442 211.023 11.9996 210.581 11.5804C210.139 11.1611 209.64 10.8535 209.084 10.6575C208.528 10.4615 207.954 10.3636 207.361 10.3636C206.386 10.3636 205.534 10.5937 204.804 11.054C204.08 11.5143 203.515 12.1546 203.109 12.9749C202.708 13.7952 202.508 14.7431 202.508 15.8186C202.508 16.9078 202.708 17.858 203.109 18.6692C203.515 19.4759 204.089 20.1025 204.832 20.5491ZM204.55 14.8343C204.574 14.3829 204.687 13.9614 204.886 13.5696C205.119 13.1184 205.447 12.7539 205.871 12.4759C206.299 12.1933 206.801 12.052 207.375 12.052C207.903 12.052 208.364 12.1728 208.756 12.4143C209.152 12.6559 209.46 12.9863 209.678 13.4055C209.897 13.8203 210.007 14.2965 210.007 14.8343H204.55Z" fill="black"/>
<path d="M186.816 10.5003H188.778V12.2093H188.908C189.127 11.6305 189.485 11.1793 189.981 10.8557C190.478 10.5276 191.073 10.3636 191.766 10.3636C192.467 10.3636 193.055 10.5276 193.529 10.8557C194.008 11.1839 194.361 11.635 194.589 12.2093H194.698C194.949 11.6487 195.348 11.2021 195.895 10.8694C196.441 10.5322 197.093 10.3636 197.85 10.3636C198.802 10.3636 199.579 10.6621 200.181 11.2591C200.787 11.8561 201.09 12.7561 201.09 13.9593V21.0003H199.046V14.1507C199.046 13.4397 198.852 12.9248 198.465 12.6057C198.077 12.2867 197.615 12.1272 197.077 12.1272C196.412 12.1272 195.895 12.3323 195.525 12.7425C195.156 13.1481 194.972 13.6699 194.972 14.3079V21.0003H192.935V14.0208C192.935 13.4511 192.757 12.9931 192.401 12.6468C192.046 12.3004 191.583 12.1272 191.014 12.1272C190.626 12.1272 190.269 12.2298 189.94 12.4348C189.617 12.6354 189.355 12.9156 189.154 13.2757C188.958 13.6357 188.86 14.0527 188.86 14.5266V21.0003H186.816V10.5003Z" fill="black"/>
<path fill-rule="evenodd" clip-rule="evenodd" d="M177.958 20.8636C178.496 21.1096 179.097 21.2327 179.762 21.2327C180.341 21.2327 180.838 21.1484 181.253 20.9798C181.667 20.8111 182.007 20.5992 182.271 20.344C182.536 20.0888 182.734 19.8291 182.866 19.5647H182.948V21.0003H184.944V14.0276C184.944 13.262 184.812 12.6399 184.548 12.1614C184.283 11.6783 183.944 11.3069 183.529 11.0471C183.119 10.7874 182.677 10.6096 182.203 10.5139C181.733 10.4137 181.289 10.3636 180.87 10.3636C180.236 10.3636 179.633 10.4547 179.058 10.637C178.484 10.8147 177.976 11.1018 177.534 11.4983C177.096 11.8902 176.764 12.4052 176.536 13.0432L178.457 13.4807C178.607 13.1116 178.878 12.7766 179.27 12.4759C179.667 12.1705 180.209 12.0179 180.897 12.0179C181.558 12.0179 182.055 12.1819 182.387 12.51C182.725 12.8382 182.893 13.3007 182.893 13.8977V13.9456C182.893 14.1917 182.804 14.3694 182.627 14.4788C182.449 14.5882 182.164 14.6679 181.772 14.718L180.241 14.8958C179.744 14.955 179.257 15.0416 178.778 15.1555C178.3 15.2695 177.867 15.4381 177.479 15.6614C177.092 15.8847 176.784 16.1878 176.556 16.5706C176.329 16.9534 176.215 17.441 176.215 18.0335C176.215 18.7216 176.37 19.3027 176.679 19.7766C176.994 20.2506 177.42 20.6129 177.958 20.8636ZM181.656 19.2571C181.255 19.4804 180.772 19.5921 180.207 19.5921C179.628 19.5921 179.152 19.4645 178.778 19.2093C178.404 18.9495 178.218 18.5667 178.218 18.0608C178.218 17.6962 178.313 17.4046 178.505 17.1858C178.701 16.9625 178.96 16.7916 179.284 16.6731C179.612 16.5546 179.974 16.4703 180.371 16.4202C180.539 16.3974 180.749 16.3701 181 16.3382C181.25 16.3017 181.508 16.263 181.772 16.222C182.037 16.1764 182.271 16.124 182.476 16.0647C182.686 16.0009 182.827 15.9326 182.9 15.8596V17.2132C182.9 17.6279 182.793 18.0175 182.579 18.3821C182.369 18.7421 182.062 19.0338 181.656 19.2571Z" fill="black"/>
<path d="M174.639 7.00027V21.0003H172.698L165.582 10.7327H165.452V21.0003H163.34V7.00027H165.295L172.418 17.2815H172.548V7.00027H174.639Z" fill="black"/>
<path d="M157.52 12.1409V10.5003H155.367V7.98465H153.323V10.5003H151.785V12.1409H153.323V18.3411C153.323 18.9746 153.466 19.5009 153.753 19.9202C154.041 20.3395 154.417 20.6494 154.881 20.8499C155.346 21.0504 155.847 21.1461 156.385 21.137C156.713 21.1324 156.987 21.1051 157.206 21.055C157.424 21.0094 157.593 20.9638 157.711 20.9182L157.342 19.2298C157.274 19.2434 157.178 19.2617 157.055 19.2845C156.932 19.3072 156.789 19.3186 156.625 19.3186C156.401 19.3186 156.194 19.2845 156.002 19.2161C155.816 19.1432 155.663 19.0087 155.544 18.8128C155.426 18.6123 155.367 18.3138 155.367 17.9173V12.1409H157.52Z" fill="black"/>
<path d="M146.969 21.2122C145.953 21.2122 145.078 20.982 144.344 20.5218C143.615 20.0569 143.055 19.4166 142.663 18.6009C142.271 17.7851 142.075 16.8509 142.075 15.7981C142.075 14.7317 142.275 13.7906 142.677 12.9749C143.078 12.1546 143.643 11.5143 144.372 11.054C145.101 10.5937 145.96 10.3636 146.949 10.3636C147.747 10.3636 148.457 10.5117 149.082 10.8079C149.706 11.0996 150.21 11.5097 150.593 12.0384C150.98 12.567 151.21 13.1845 151.283 13.8909H149.294C149.184 13.3987 148.934 12.9749 148.542 12.6194C148.154 12.2639 147.635 12.0862 146.983 12.0862C146.413 12.0862 145.914 12.2366 145.486 12.5374C145.062 12.8336 144.732 13.2574 144.495 13.8089C144.258 14.3557 144.139 15.0029 144.139 15.7503C144.139 16.5159 144.256 17.1767 144.488 17.7327C144.72 18.2887 145.049 18.7194 145.472 19.0247C145.901 19.33 146.404 19.4827 146.983 19.4827C147.371 19.4827 147.721 19.4121 148.036 19.2708C148.355 19.1249 148.622 18.9176 148.836 18.6487C149.054 18.3798 149.207 18.0563 149.294 17.678H151.283C151.21 18.357 150.989 18.9632 150.62 19.4964C150.251 20.0296 149.756 20.4488 149.136 20.7542C148.521 21.0595 147.799 21.2122 146.969 21.2122Z" fill="black"/>
<path d="M138.6 10.5003V16.6458C138.604 17.2428 138.479 17.735 138.224 18.1223C137.973 18.5097 137.656 18.7991 137.273 18.9905C136.895 19.1819 136.515 19.2776 136.132 19.2776C135.498 19.2776 134.983 19.0657 134.587 18.6419C134.19 18.218 133.992 17.6484 133.992 16.9329V10.5003H131.948V17.179C131.948 18.0449 132.094 18.7718 132.386 19.3596C132.682 19.9475 133.088 20.3919 133.603 20.6927C134.122 20.9889 134.719 21.137 135.394 21.137C136.182 21.137 136.84 20.9524 137.369 20.5833C137.902 20.2096 138.29 19.7425 138.531 19.1819H138.641V21.0003H140.65V10.5003H138.6Z" fill="black"/>
<path fill-rule="evenodd" clip-rule="evenodd" d="M124.679 21.2054C123.831 21.2054 123.075 20.9889 122.409 20.5559C121.748 20.1184 121.229 19.4964 120.851 18.6897C120.477 17.8785 120.29 16.9055 120.29 15.7708C120.29 14.636 120.479 13.6653 120.857 12.8587C121.24 12.052 121.764 11.4345 122.43 11.0061C123.095 10.5777 123.849 10.3636 124.692 10.3636C125.344 10.3636 125.868 10.4729 126.265 10.6917C126.666 10.9059 126.976 11.1565 127.194 11.4436C127.418 11.7307 127.591 11.9837 127.714 12.2024H127.837V7.00027H129.881V21.0003H127.885V19.3665H127.714C127.591 19.5898 127.413 19.845 127.181 20.1321C126.953 20.4192 126.638 20.6699 126.237 20.8841C125.836 21.0983 125.317 21.2054 124.679 21.2054ZM125.13 19.4622C125.718 19.4622 126.215 19.3072 126.62 18.9973C127.03 18.6829 127.34 18.2477 127.55 17.6917C127.764 17.1357 127.871 16.4886 127.871 15.7503C127.871 15.0211 127.766 14.3831 127.557 13.8362C127.347 13.2893 127.039 12.8632 126.634 12.5579C126.228 12.2526 125.727 12.0999 125.13 12.0999C124.515 12.0999 124.002 12.2594 123.592 12.5784C123.182 12.8974 122.872 13.3326 122.662 13.8841C122.457 14.4355 122.354 15.0576 122.354 15.7503C122.354 16.4521 122.459 17.0833 122.669 17.6438C122.879 18.2044 123.188 18.6487 123.599 18.9768C124.013 19.3004 124.524 19.4622 125.13 19.4622Z" fill="black"/>
<path fill-rule="evenodd" clip-rule="evenodd" d="M111.845 20.5354C112.579 20.9866 113.438 21.2122 114.422 21.2122C115.406 21.2122 116.266 20.9866 116.999 20.5354C117.733 20.0843 118.303 19.4531 118.708 18.6419C119.114 17.8307 119.317 16.8828 119.317 15.7981C119.317 14.7089 119.114 13.7565 118.708 12.9407C118.303 12.1249 117.733 11.4915 116.999 11.0403C116.266 10.5891 115.406 10.3636 114.422 10.3636C113.438 10.3636 112.579 10.5891 111.845 11.0403C111.111 11.4915 110.542 12.1249 110.136 12.9407C109.73 13.7565 109.528 14.7089 109.528 15.7981C109.528 16.8828 109.73 17.8307 110.136 18.6419C110.542 19.4531 111.111 20.0843 111.845 20.5354ZM116.015 18.9905C115.596 19.3277 115.067 19.4964 114.429 19.4964C113.786 19.4964 113.253 19.3277 112.829 18.9905C112.41 18.6533 112.098 18.2044 111.893 17.6438C111.692 17.0833 111.592 16.4658 111.592 15.7913C111.592 15.1214 111.692 14.5061 111.893 13.9456C112.098 13.3805 112.41 12.927 112.829 12.5852C113.253 12.2434 113.786 12.0725 114.429 12.0725C115.067 12.0725 115.596 12.2434 116.015 12.5852C116.434 12.927 116.744 13.3805 116.945 13.9456C117.15 14.5061 117.252 15.1214 117.252 15.7913C117.252 16.4658 117.15 17.0833 116.945 17.6438C116.744 18.2044 116.434 18.6533 116.015 18.9905Z" fill="black"/>
<path d="M103.837 21.0003V10.5003H105.813V12.1682H105.922C106.114 11.6031 106.451 11.1588 106.934 10.8352C107.421 10.5071 107.973 10.343 108.588 10.343C108.716 10.343 108.866 10.3476 109.039 10.3567C109.217 10.3658 109.356 10.3772 109.456 10.3909V12.346C109.374 12.3232 109.228 12.2981 109.019 12.2708C108.809 12.2389 108.6 12.2229 108.39 12.2229C107.907 12.2229 107.476 12.3255 107.098 12.5305C106.724 12.7311 106.428 13.0113 106.209 13.3714C105.99 13.7268 105.881 14.1324 105.881 14.5882V21.0003H103.837Z" fill="black"/>
<path fill-rule="evenodd" clip-rule="evenodd" d="M92.5381 7.00027V21.0003H94.6504V16.0784H97.5215C98.6061 16.0784 99.5062 15.8802 100.222 15.4837C100.942 15.0826 101.479 14.5403 101.835 13.8567C102.195 13.1686 102.375 12.3938 102.375 11.5325C102.375 10.6757 102.197 9.90555 101.842 9.22195C101.486 8.5338 100.951 7.99149 100.235 7.595C99.5199 7.19852 98.6175 7.00027 97.5283 7.00027H92.5381ZM94.6504 14.2874V8.8118H97.3027C98.0046 8.8118 98.5697 8.92801 98.998 9.16043C99.431 9.39285 99.7477 9.71414 99.9482 10.1243C100.149 10.5345 100.249 11.0039 100.249 11.5325C100.249 12.0611 100.149 12.5328 99.9482 12.9475C99.7477 13.3623 99.4333 13.6904 99.0049 13.9319C98.5765 14.1689 98.0182 14.2874 97.3301 14.2874H94.6504Z" fill="black"/>
</svg>
