<svg width="156" height="28" viewBox="0 0 156 28" fill="none" xmlns="http://www.w3.org/2000/svg">
<path fill-rule="evenodd" clip-rule="evenodd" d="M50.1753 7.57681C51.2395 8.20836 52.112 9.11734 52.6993 10.2065C53.309 11.3753 53.6273 12.6741 53.6273 13.9924C53.6273 15.3107 53.309 16.6095 52.6993 17.7783C52.1098 18.8718 51.2324 19.7835 50.1624 20.4146C49.0922 21.0458 47.87 21.3723 46.6276 21.3592C45.7567 21.3761 44.8935 21.1937 44.1036 20.826C43.3788 20.4742 42.7438 19.9617 42.2469 19.3274V20.9932H39.1929V1.03027H42.2469V8.65738C42.7434 8.02309 43.3786 7.51098 44.1036 7.16035C44.893 6.79135 45.7565 6.60841 46.6276 6.62559C47.8751 6.61141 49.1023 6.94048 50.1753 7.57681ZM48.5032 17.8793C49.1378 17.4885 49.6491 16.9263 49.9782 16.2577C50.3157 15.5502 50.4908 14.7763 50.4908 13.9924C50.4908 13.2086 50.3157 12.4346 49.9782 11.7272C49.6491 11.058 49.1378 10.4954 48.5032 10.1039C47.8298 9.71367 47.0657 9.50696 46.2872 9.50448C45.5089 9.50199 44.7435 9.7038 44.0673 10.0897C43.431 10.4769 42.9148 11.0335 42.5766 11.6972C42.2261 12.4112 42.0438 13.1961 42.0438 13.9916C42.0438 14.7871 42.2261 15.572 42.5766 16.2861C42.9148 16.9498 43.431 17.5064 44.0673 17.8935C44.7435 18.2795 45.5089 18.4813 46.2872 18.4787C47.0657 18.4762 47.8298 18.2696 48.5032 17.8793Z" fill="white"/>
<path fill-rule="evenodd" clip-rule="evenodd" d="M26.7719 15.117H37.1107C37.1454 14.6501 37.1627 14.2699 37.1627 13.9765C37.1887 12.6519 36.9005 11.3399 36.3219 10.148C35.8042 9.08245 34.9973 8.18385 33.9936 7.5546C32.9572 6.92558 31.7636 6.60341 30.5515 6.62546C29.2804 6.60097 28.0263 6.92209 26.9233 7.5546C25.8732 8.17141 25.0193 9.07339 24.4609 10.1559C23.8548 11.3423 23.5513 12.6602 23.5775 13.9923C23.5775 15.4541 23.8819 16.7424 24.4908 17.8571C25.0683 18.9426 25.944 19.8402 27.0148 20.4442C28.1528 21.0676 29.434 21.3825 30.7313 21.3576C31.7845 21.368 32.8327 21.2126 33.8374 20.8969C34.8137 20.5751 35.7154 20.0607 36.4891 19.3841L34.97 17.2072C34.3876 17.6727 33.7334 18.0403 33.0329 18.2957C32.3577 18.5481 31.6431 18.679 30.9222 18.6821C30.2718 18.6888 29.6271 18.5597 29.0292 18.3036C28.4437 18.0455 27.9368 17.6367 27.5606 17.1189C27.1383 16.526 26.8675 15.8387 26.7719 15.117ZM32.8578 10.2505C33.4773 10.8542 33.8696 11.7018 34.0346 12.7934L26.7798 12.7966C26.9555 11.7323 27.3571 10.891 27.9849 10.2726C28.6128 9.65422 29.4484 9.34504 30.4916 9.34504C31.4497 9.34504 32.2385 9.64686 32.8578 10.2505Z" fill="white"/>
<path d="M20.2548 6.99157H23.4413L18.8114 20.9917H15.1548L11.6844 10.4226L8.22182 20.9917H4.63305L0 6.99157H3.25907L6.54653 17.6301L9.99648 6.99157H13.459L16.9532 17.6901L20.2548 6.99157Z" fill="white"/>
<path fill-rule="evenodd" clip-rule="evenodd" d="M58.4392 15.117H68.7717C68.8107 14.6501 68.8316 14.2699 68.8348 13.9765C68.8607 12.6519 68.5726 11.3399 67.994 10.148C67.4736 9.08123 66.6634 8.1825 65.6562 7.55462C64.6199 6.9252 63.4262 6.60298 62.2141 6.62548C60.9428 6.60082 59.6889 6.92197 58.5859 7.55462C57.5353 8.17103 56.6814 9.07309 56.1235 10.1559C55.5168 11.3422 55.2128 12.6601 55.2385 13.9923C55.2385 15.4541 55.543 16.7424 56.1519 17.8571C56.7328 18.9442 57.6131 19.8419 58.6885 20.4442C59.8249 21.0673 61.1045 21.3822 62.4003 21.3576C63.4529 21.368 64.5005 21.2126 65.5047 20.8969C66.482 20.5753 67.3848 20.0609 68.1596 19.3841L66.6389 17.2072C66.0573 17.673 65.4035 18.0406 64.7034 18.2957C64.0276 18.5482 63.3125 18.6791 62.5911 18.6821C61.9407 18.6888 61.296 18.5599 60.6982 18.3036C60.1121 18.0453 59.6048 17.6366 59.228 17.1189C58.8055 16.526 58.5348 15.8387 58.4392 15.117ZM64.5267 10.2505C65.144 10.8542 65.5363 11.7018 65.7035 12.7934L58.4392 12.7966C58.6138 11.7323 59.0155 10.891 59.6444 10.2726C60.2733 9.65424 61.1088 9.34505 62.151 9.34505C63.1175 9.34505 63.9094 9.64687 64.5267 10.2505Z" fill="white"/>
<path d="M79.587 20.9917H83.3429L78.0663 13.8157L83.2404 6.99157H79.6296L76.2112 11.6688L72.7912 6.99157H69.0352L74.2235 13.8457L68.9469 20.9917H72.5278L76.0345 16.1252L79.587 20.9917Z" fill="white"/>
<path d="M155.542 10.5002V12.1409H153.389V17.9172C153.389 18.3137 153.448 18.6122 153.567 18.8127C153.685 19.0087 153.838 19.1431 154.025 19.2161C154.216 19.2844 154.423 19.3186 154.647 19.3186C154.811 19.3186 154.954 19.3072 155.077 19.2844C155.2 19.2616 155.296 19.2434 155.365 19.2297L155.734 20.9182C155.615 20.9638 155.447 21.0094 155.228 21.0549C155.009 21.1051 154.736 21.1324 154.407 21.137C153.87 21.1461 153.368 21.0504 152.904 20.8499C152.439 20.6493 152.063 20.3394 151.776 19.9202C151.489 19.5009 151.345 18.9745 151.345 18.3411V12.1409H149.807V10.5002H151.345V7.98462H153.389V10.5002H155.542Z" fill="white"/>
<path d="M142.366 20.5217C143.1 20.982 143.975 21.2122 144.991 21.2122C145.821 21.2122 146.543 21.0595 147.158 20.7542C147.778 20.4488 148.273 20.0295 148.642 19.4963C149.011 18.9631 149.232 18.357 149.305 17.678H147.316C147.229 18.0562 147.076 18.3798 146.858 18.6487C146.643 18.9176 146.377 19.1249 146.058 19.2708C145.743 19.412 145.393 19.4827 145.005 19.4827C144.426 19.4827 143.923 19.33 143.494 19.0247C143.071 18.7193 142.742 18.2887 142.51 17.7327C142.278 17.1767 142.161 16.5159 142.161 15.7502C142.161 15.0028 142.28 14.3557 142.517 13.8088C142.754 13.2574 143.084 12.8336 143.508 12.5374C143.936 12.2366 144.435 12.0862 145.005 12.0862C145.657 12.0862 146.176 12.2639 146.564 12.6194C146.956 12.9749 147.206 13.3987 147.316 13.8909H149.305C149.232 13.1845 149.002 12.567 148.615 12.0383C148.232 11.5097 147.728 11.0995 147.104 10.8079C146.479 10.5116 145.768 10.3635 144.971 10.3635C143.982 10.3635 143.123 10.5937 142.394 11.054C141.665 11.5142 141.1 12.1545 140.698 12.9749C140.297 13.7906 140.097 14.7317 140.097 15.7981C140.097 16.8508 140.293 17.7851 140.685 18.6008C141.077 19.4166 141.637 20.0569 142.366 20.5217Z" fill="white"/>
<path fill-rule="evenodd" clip-rule="evenodd" d="M133.515 21.2327C132.849 21.2327 132.248 21.1096 131.71 20.8635C131.172 20.6129 130.746 20.2506 130.432 19.7766C130.122 19.3027 129.967 18.7216 129.967 18.0334C129.967 17.441 130.081 16.9534 130.309 16.5706C130.536 16.1877 130.844 15.8847 131.231 15.6614C131.619 15.4381 132.052 15.2695 132.53 15.1555C133.009 15.0416 133.496 14.955 133.993 14.8958L135.524 14.718C135.916 14.6679 136.201 14.5881 136.379 14.4788C136.557 14.3694 136.646 14.1917 136.646 13.9456V13.8977C136.646 13.3007 136.477 12.8381 136.14 12.51C135.807 12.1819 135.31 12.0178 134.649 12.0178C133.961 12.0178 133.419 12.1705 133.022 12.4758C132.631 12.7766 132.359 13.1116 132.209 13.4807L130.288 13.0432C130.516 12.4052 130.849 11.8902 131.286 11.4983C131.728 11.1018 132.236 10.8147 132.811 10.637C133.385 10.4547 133.989 10.3635 134.622 10.3635C135.041 10.3635 135.486 10.4137 135.955 10.5139C136.429 10.6096 136.871 10.7874 137.281 11.0471C137.696 11.3069 138.035 11.6783 138.3 12.1614C138.564 12.6399 138.696 13.262 138.696 14.0276V21.0002H136.7V19.5647H136.618C136.486 19.829 136.288 20.0888 136.023 20.344C135.759 20.5992 135.42 20.8111 135.005 20.9797C134.59 21.1484 134.093 21.2327 133.515 21.2327ZM133.959 19.592C134.524 19.592 135.007 19.4804 135.408 19.2571C135.814 19.0338 136.121 18.7421 136.331 18.3821C136.545 18.0175 136.652 17.6278 136.652 17.2131V15.8596C136.579 15.9325 136.438 16.0009 136.229 16.0647C136.023 16.1239 135.789 16.1764 135.524 16.2219C135.26 16.2629 135.003 16.3017 134.752 16.3381C134.501 16.37 134.292 16.3974 134.123 16.4202C133.727 16.4703 133.364 16.5546 133.036 16.6731C132.713 16.7916 132.453 16.9625 132.257 17.1858C132.065 17.4045 131.97 17.6962 131.97 18.0608C131.97 18.5667 132.157 18.9495 132.53 19.2092C132.904 19.4644 133.38 19.592 133.959 19.592Z" fill="white"/>
<path d="M124.015 10.5002V21.0002H126.059V14.5881C126.059 14.1324 126.168 13.7268 126.387 13.3713C126.606 13.0113 126.902 12.731 127.276 12.5305C127.654 12.3254 128.085 12.2229 128.568 12.2229C128.778 12.2229 128.987 12.2389 129.197 12.2708C129.406 12.2981 129.552 12.3232 129.634 12.3459V10.3909C129.534 10.3772 129.395 10.3658 129.217 10.3567C129.044 10.3476 128.894 10.343 128.766 10.343C128.151 10.343 127.599 10.5071 127.112 10.8352C126.629 11.1588 126.292 11.6031 126.1 12.1682H125.991V10.5002H124.015Z" fill="white"/>
<path fill-rule="evenodd" clip-rule="evenodd" d="M118.092 21.2122C117.058 21.2122 116.167 20.9911 115.419 20.5491C114.677 20.1025 114.102 19.4758 113.697 18.6692C113.296 17.858 113.095 16.9078 113.095 15.8186C113.095 14.7431 113.296 13.7952 113.697 12.9749C114.102 12.1545 114.667 11.5142 115.392 11.054C116.121 10.5937 116.973 10.3635 117.949 10.3635C118.541 10.3635 119.115 10.4615 119.671 10.6575C120.227 10.8534 120.726 11.1611 121.168 11.5803C121.611 11.9996 121.959 12.5442 122.214 13.2141C122.47 13.8795 122.597 14.6884 122.597 15.6409V16.3655H115.134C115.15 17.0055 115.272 17.5547 115.501 18.0129C115.752 18.5051 116.101 18.8811 116.547 19.1409C116.994 19.3961 117.516 19.5237 118.113 19.5237C118.5 19.5237 118.853 19.469 119.172 19.3596C119.491 19.2457 119.767 19.0771 120 18.8538C120.232 18.6305 120.41 18.3547 120.533 18.0266L122.467 18.3752C122.312 18.9449 122.034 19.4439 121.633 19.8723C121.237 20.2961 120.738 20.6265 120.136 20.8635C119.539 21.0959 118.858 21.2122 118.092 21.2122ZM120.594 14.8342H115.137C115.162 14.3829 115.274 13.9613 115.474 13.5696C115.707 13.1184 116.035 12.7538 116.458 12.4758C116.887 12.1933 117.388 12.052 117.962 12.052C118.491 12.052 118.951 12.1728 119.343 12.4143C119.74 12.6558 120.047 12.9862 120.266 13.4055C120.485 13.8202 120.594 14.2965 120.594 14.8342Z" fill="white"/>
<path d="M112.269 12.1409V10.5002H110.115V7.98462H108.072V10.5002H106.533V12.1409H108.072V18.3411C108.072 18.9745 108.215 19.5009 108.502 19.9202C108.789 20.3394 109.165 20.6493 109.63 20.8499C110.095 21.0504 110.596 21.1461 111.134 21.137C111.462 21.1324 111.736 21.1051 111.954 21.0549C112.173 21.0094 112.342 20.9638 112.46 20.9182L112.091 19.2297C112.023 19.2434 111.927 19.2616 111.804 19.2844C111.681 19.3072 111.537 19.3186 111.373 19.3186C111.15 19.3186 110.943 19.2844 110.751 19.2161C110.564 19.1431 110.412 19.0087 110.293 18.8127C110.175 18.6122 110.115 18.3137 110.115 17.9172V12.1409H112.269Z" fill="white"/>
<path d="M98.7563 14.7659V21.0002H96.7124V10.5002H98.6743V12.2092H98.8042C99.0457 11.6532 99.424 11.2066 99.939 10.8694C100.458 10.5321 101.112 10.3635 101.901 10.3635C102.616 10.3635 103.243 10.5139 103.781 10.8147C104.319 11.1109 104.736 11.553 105.032 12.1409C105.328 12.7288 105.476 13.4556 105.476 14.3215V21.0002H103.432V14.5676C103.432 13.8066 103.234 13.2118 102.837 12.7834C102.441 12.3505 101.896 12.134 101.204 12.134C100.73 12.134 100.308 12.2366 99.939 12.4417C99.5744 12.6467 99.285 12.9475 99.0708 13.344C98.8612 13.7359 98.7563 14.2099 98.7563 14.7659Z" fill="white"/>
<path d="M94.6504 21.0002V7.00024H92.5381V21.0002H94.6504Z" fill="white"/>
</svg>
