<svg width="32" height="32" viewBox="0 0 32 32" fill="none" xmlns="http://www.w3.org/2000/svg">
<path d="M0 15.6161C1.22822 14.1572 3.62306 13.6931 5.47428 13.3624C8.59884 12.8043 11.8038 12.7081 14.9822 12.672L11.4682 6.69594H17.2023L20.5779 12.7598L25.6648 6.60669H32L25.6197 13.8793C25.5821 14.0886 26.9706 14.4759 27.2531 14.6194C30.7282 16.3855 26.5445 17.9537 24.6938 18.2933L29.0881 25.4299L28.9943 25.6067H23.2602C22.896 25.6067 20.2325 20.1204 19.7446 19.4506L14.708 25.4506C14.6435 25.5035 14.4409 25.6067 14.3817 25.6067H8.27767L8.18385 25.4299L13.595 19.2739C10.5124 19.2236 7.25153 19.0441 4.2538 18.3373C2.75544 17.9841 0.991341 17.542 0 16.3296L0 15.6161ZM12.8369 13.5019C11.3994 13.5695 5.87355 14.1512 5.19101 15.404C4.73993 16.2319 5.98233 16.7766 6.63343 17.0232C10.5854 18.5211 21.1669 18.5894 25.0877 17.0219C27.0402 16.2413 27.057 15.3316 25.031 14.65C24.7938 14.6892 23.7759 16.1749 23.4336 16.4079C22.6207 16.9608 19.1672 17.3516 18.0844 17.4036C16.2429 17.4918 9.59353 17.367 8.37742 16.0554C7.48738 15.095 10.0487 14.5354 10.6326 14.4088C12.2745 14.053 13.9576 14.0269 15.6326 13.9683L15.6841 13.7376C15.6225 13.5901 15.5715 13.5106 15.3988 13.475C14.8845 13.3689 13.4403 13.4733 12.8367 13.5019H12.8369ZM16.0726 16.6664C16.1303 16.6376 16.8183 15.8147 16.826 15.6603L16.0308 14.3815C15.3774 14.3357 11.7381 14.7685 11.677 15.4813C11.8324 16.3606 15.6949 16.8554 16.0726 16.6664Z" fill="#0083BF"/>
</svg>
