<svg width="32" height="33" viewBox="0 0 32 33" fill="none" xmlns="http://www.w3.org/2000/svg">
<path d="M0 16.0094C1.22822 14.5505 3.62306 14.0864 5.47428 13.7557C8.59884 13.1976 11.8038 13.1014 14.9822 13.0653L11.4682 7.08925H17.2023L20.5779 13.1531L25.6648 7H32L25.6197 14.2726C25.5821 14.4819 26.9706 14.8692 27.2531 15.0127C30.7282 16.7788 26.5445 18.347 24.6938 18.6866L29.0881 25.8232L28.9943 26H23.2602C22.896 26 20.2325 20.5137 19.7446 19.8439L14.708 25.8439C14.6435 25.8968 14.4409 26 14.3817 26H8.27767L8.18385 25.8232L13.595 19.6672C10.5124 19.6169 7.25153 19.4374 4.2538 18.7307C2.75544 18.3774 0.991341 17.9353 0 16.7229L0 16.0094ZM12.8369 13.8952C11.3994 13.9628 5.87355 14.5446 5.19101 15.7973C4.73993 16.6252 5.98233 17.1699 6.63343 17.4165C10.5854 18.9144 21.1669 18.9827 25.0877 17.4153C27.0402 16.6346 27.057 15.725 25.031 15.0433C24.7938 15.0826 23.7759 16.5682 23.4336 16.8012C22.6207 17.3541 19.1672 17.7449 18.0844 17.7969C16.2429 17.8851 9.59353 17.7603 8.37742 16.4487C7.48738 15.4883 10.0487 14.9287 10.6326 14.8021C12.2745 14.4464 13.9576 14.4203 15.6326 14.3616L15.6841 14.1309C15.6225 13.9834 15.5715 13.9039 15.3988 13.8683C14.8845 13.7622 13.4403 13.8666 12.8367 13.8952H12.8369ZM16.0726 17.0597C16.1303 17.0309 16.8183 16.208 16.826 16.0536L16.0308 14.7748C15.3774 14.729 11.7381 15.1619 11.677 15.8746C11.8324 16.754 15.6949 17.2487 16.0726 17.0597Z" fill="#0083BF"/>
</svg>
