<svg width="32" height="32" viewBox="0 0 32 32" fill="none" xmlns="http://www.w3.org/2000/svg">
<path d="M14.8571 10.6802V27.6052H1L14.8571 10.6802ZM14.8571 4.60669C14.8571 6.46568 14.1271 8.24853 12.8278 9.56303C11.5284 10.8775 9.76612 11.616 7.92855 11.616C6.09099 11.616 4.32868 10.8775 3.02933 9.56303C1.72997 8.24853 1 6.46568 1 4.60669L14.8571 4.60669ZM17.1399 27.6067C17.1399 25.7477 17.8699 23.9649 19.1693 22.6503C20.4686 21.3358 22.2309 20.5974 24.0685 20.5974C25.9061 20.5974 27.6684 21.3358 28.9677 22.6503C30.2671 23.9649 30.997 25.7477 30.997 27.6067H17.1399ZM17.1399 21.5331V4.60669H31L17.1399 21.5316V21.5331Z" fill="#03363D"/>
</svg>
