<svg width="33" height="33" viewBox="0 0 33 33" fill="none" xmlns="http://www.w3.org/2000/svg">
<path d="M2.80664 12.1034C2.80664 6.94869 6.98532 2.77002 12.14 2.77002H21.4733C26.628 2.77002 30.8066 6.9487 30.8066 12.1034V21.4367C30.8066 26.5913 26.628 30.77 21.4733 30.77H12.14C6.98532 30.77 2.80664 26.5913 2.80664 21.4367V12.1034Z" fill="url(#paint0_linear_27213_1776)"/>
<path d="M9.03711 13.5031C9.03711 12.9232 9.50721 12.4531 10.0871 12.4531H17.4629C18.9739 12.4531 20.1987 13.678 20.1987 15.1889V19.9729C20.1987 20.5951 19.6943 21.0994 19.0722 21.0994H11.7729C10.2619 21.0994 9.03711 19.8746 9.03711 18.3637V13.5031Z" fill="white"/>
<path d="M20.8281 15.5906C20.8281 15.1557 21.0236 14.7438 21.3605 14.4687L23.5503 12.681C23.9707 12.3377 24.6011 12.6369 24.6011 13.1796V20.4107C24.6011 20.9567 23.964 21.2548 23.5448 20.9048L21.3482 19.0709C21.0186 18.7957 20.8281 18.3885 20.8281 17.9591V15.5906Z" fill="white"/>
<defs>
<linearGradient id="paint0_linear_27213_1776" x1="16.8066" y1="2.77002" x2="16.8066" y2="30.77" gradientUnits="userSpaceOnUse">
<stop stop-color="#57A3FF"/>
<stop offset="1" stop-color="#3D83FB"/>
</linearGradient>
</defs>
</svg>
