<svg width="32" height="32" viewBox="0 0 32 32" fill="none" xmlns="http://www.w3.org/2000/svg">
<g clip-path="url(#clip0_27213_1776)">
<path d="M0.5 10.8333C0.5 5.12639 5.12639 0.5 10.8333 0.5H21.1667C26.8736 0.5 31.5 5.12639 31.5 10.8333V21.1667C31.5 26.8736 26.8736 31.5 21.1667 31.5H10.8333C5.12639 31.5 0.5 26.8736 0.5 21.1667V10.8333Z" fill="url(#paint0_linear_27213_1776)"/>
<path d="M7.39844 12.3832C7.39844 11.7412 7.91891 11.2207 8.56094 11.2207H16.727C18.3998 11.2207 19.7559 12.5768 19.7559 14.2496V19.5462C19.7559 20.235 19.1975 20.7934 18.5087 20.7934H10.4273C8.7545 20.7934 7.39844 19.4373 7.39844 17.7645V12.3832Z" fill="white"/>
<path d="M20.4531 14.6944C20.4531 14.2129 20.6695 13.7568 21.0426 13.4523L23.4669 11.473C23.9324 11.093 24.6303 11.4242 24.6303 12.0251V20.0309C24.6303 20.6355 23.9249 20.9654 23.4609 20.578L21.029 18.5476C20.664 18.2429 20.4531 17.7921 20.4531 17.3167V14.6944Z" fill="white"/>
</g>
<defs>
<linearGradient id="paint0_linear_27213_1776" x1="16" y1="0.5" x2="16" y2="31.5" gradientUnits="userSpaceOnUse">
<stop stop-color="#57A3FF"/>
<stop offset="1" stop-color="#3D83FB"/>
</linearGradient>
<clipPath id="clip0_27213_1776">
<rect width="32" height="32" fill="white"/>
</clipPath>
</defs>
</svg>
