<svg width="32" height="33" viewBox="0 0 32 33" fill="none" xmlns="http://www.w3.org/2000/svg">
<g clip-path="url(#clip0_27213_1776)">
<path d="M0.5 11.2266C0.5 5.5197 5.12639 0.893311 10.8333 0.893311H21.1667C26.8736 0.893311 31.5 5.5197 31.5 11.2266V21.56C31.5 27.2669 26.8736 31.8933 21.1667 31.8933H10.8333C5.12639 31.8933 0.5 27.2669 0.5 21.56V11.2266Z" fill="url(#paint0_linear_27213_1776)"/>
<path d="M7.39844 12.7763C7.39844 12.1342 7.91891 11.6138 8.56094 11.6138H16.727C18.3998 11.6138 19.7559 12.9698 19.7559 14.6426V19.9393C19.7559 20.6281 19.1975 21.1865 18.5087 21.1865H10.4273C8.7545 21.1865 7.39844 19.8304 7.39844 18.1576V12.7763Z" fill="white"/>
<path d="M20.4531 15.0875C20.4531 14.6059 20.6695 14.1499 21.0426 13.8454L23.4669 11.8661C23.9324 11.4861 24.6303 11.8172 24.6303 12.4181V20.424C24.6303 21.0285 23.9249 21.3585 23.4609 20.9711L21.029 18.9407C20.664 18.636 20.4531 18.1851 20.4531 17.7098V15.0875Z" fill="white"/>
</g>
<defs>
<linearGradient id="paint0_linear_27213_1776" x1="16" y1="0.893311" x2="16" y2="31.8933" gradientUnits="userSpaceOnUse">
<stop stop-color="#57A3FF"/>
<stop offset="1" stop-color="#3D83FB"/>
</linearGradient>
<clipPath id="clip0_27213_1776">
<rect width="32" height="32" fill="white" transform="translate(0 0.393311)"/>
</clipPath>
</defs>
</svg>
