<svg width="33" height="33" viewBox="0 0 33 33" fill="none" xmlns="http://www.w3.org/2000/svg">
<g clip-path="url(#clip0_27213_1776)">
<path d="M1.30664 11.3702C1.30664 5.66326 5.93303 1.03687 11.64 1.03687H21.9733C27.6802 1.03687 32.3066 5.66326 32.3066 11.3702V21.7035C32.3066 27.4105 27.6802 32.0369 21.9733 32.0369H11.64C5.93303 32.0369 1.30664 27.4105 1.30664 21.7035V11.3702Z" fill="url(#paint0_linear_27213_1776)"/>
<path d="M8.20508 12.9198C8.20508 12.2778 8.72555 11.7573 9.36758 11.7573H17.5337C19.2065 11.7573 20.5625 13.1134 20.5625 14.7862V20.0828C20.5625 20.7716 20.0042 21.33 19.3154 21.33H11.2339C9.56115 21.33 8.20508 19.9739 8.20508 18.3011V12.9198Z" fill="white"/>
<path d="M21.2598 15.231C21.2598 14.7495 21.4762 14.2934 21.8492 13.9889L24.2736 12.0096C24.739 11.6296 25.4369 11.9608 25.4369 12.5617V20.5675C25.4369 21.1721 24.7316 21.5021 24.2675 21.1146L21.8356 19.0842C21.4707 18.7796 21.2598 18.3287 21.2598 17.8533V15.231Z" fill="white"/>
</g>
<defs>
<linearGradient id="paint0_linear_27213_1776" x1="16.8066" y1="1.03687" x2="16.8066" y2="32.0369" gradientUnits="userSpaceOnUse">
<stop stop-color="#57A3FF"/>
<stop offset="1" stop-color="#3D83FB"/>
</linearGradient>
<clipPath id="clip0_27213_1776">
<rect width="32" height="32" fill="white" transform="translate(0.806641 0.536865)"/>
</clipPath>
</defs>
</svg>
