<svg width="32" height="32" viewBox="0 0 32 32" fill="none" xmlns="http://www.w3.org/2000/svg">
<path d="M16.0002 30C23.7322 30 30.0002 23.732 30.0002 16C30.0002 8.26801 23.7322 2 16.0002 2C8.26819 2 2.00018 8.26801 2.00018 16C2.00018 23.732 8.26819 30 16.0002 30Z" fill="url(#paint0_linear_32252_24337)"/>
<path fill-rule="evenodd" clip-rule="evenodd" d="M8.33738 15.8522C12.4187 14.074 15.1402 12.9018 16.5019 12.3354C20.3898 10.7183 21.1977 10.4374 21.7243 10.4281C21.8401 10.426 22.099 10.4547 22.2668 10.5908C22.4084 10.7058 22.4474 10.861 22.466 10.97C22.4847 11.0789 22.5079 11.3272 22.4894 11.5211C22.2787 13.7348 21.3671 19.107 20.9033 21.5864C20.707 22.6355 20.3206 22.9873 19.9465 23.0217C19.1335 23.0965 18.5162 22.4844 17.7287 21.9683C16.4965 21.1606 15.8004 20.6578 14.6044 19.8696C13.2221 18.9587 14.1182 18.4581 14.9059 17.6399C15.1121 17.4258 18.6942 14.1676 18.7635 13.872C18.7722 13.835 18.7803 13.6972 18.6984 13.6245C18.6165 13.5517 18.4957 13.5766 18.4085 13.5964C18.2849 13.6244 16.3165 14.9255 12.5033 17.4996C11.9445 17.8832 11.4384 18.0702 10.985 18.0604C10.4851 18.0496 9.52358 17.7777 8.80876 17.5454C7.93201 17.2604 7.23519 17.1097 7.29587 16.6257C7.32747 16.3736 7.67464 16.1157 8.33738 15.8522Z" fill="white"/>
<defs>
<linearGradient id="paint0_linear_32252_24337" x1="16.0002" y1="2" x2="16.0002" y2="29.7923" gradientUnits="userSpaceOnUse">
<stop stop-color="#2AABEE"/>
<stop offset="1" stop-color="#229ED9"/>
</linearGradient>
</defs>
</svg>
