<svg width="32" height="33" viewBox="0 0 32 33" fill="none" xmlns="http://www.w3.org/2000/svg">
<path d="M30 16.1538C30 23.8858 23.732 30.1538 16 30.1538C8.26801 30.1538 2 23.8858 2 16.1538C2 8.42185 8.26801 2.15384 16 2.15384C23.732 2.15384 30 8.42185 30 16.1538ZM16.5017 12.4892C15.14 13.0556 12.4185 14.2279 8.3372 16.006C7.67446 16.2696 7.32729 16.5274 7.29569 16.7795C7.24227 17.2056 7.77582 17.3734 8.50238 17.6018C8.60121 17.6329 8.70361 17.6651 8.80858 17.6992C9.5234 17.9316 10.485 18.2034 10.9848 18.2142C11.4383 18.224 11.9443 18.0371 12.5031 17.6534C16.3163 15.0793 18.2848 13.7783 18.4084 13.7502C18.4955 13.7304 18.6164 13.7056 18.6982 13.7783C18.7801 13.8511 18.772 13.9889 18.7634 14.0258C18.7105 14.2512 16.6161 16.1983 15.5323 17.2059C15.1944 17.52 14.9547 17.7429 14.9057 17.7937C14.796 17.9077 14.6841 18.0156 14.5766 18.1192C13.9126 18.7594 13.4146 19.2395 14.6042 20.0234C15.1759 20.4002 15.6334 20.7117 16.0898 21.0225C16.5882 21.3619 17.0853 21.7005 17.7285 22.1221C17.8924 22.2295 18.0489 22.3411 18.2014 22.4498C18.7814 22.8633 19.3025 23.2348 19.9463 23.1756C20.3204 23.1412 20.7069 22.7894 20.9031 21.7403C21.3669 19.2608 22.2786 13.8887 22.4892 11.675C22.5077 11.481 22.4845 11.2328 22.4658 11.1238C22.4472 11.0149 22.4082 10.8596 22.2666 10.7447C22.0988 10.6086 21.8399 10.5799 21.7241 10.5819C21.1975 10.5912 20.3896 10.8721 16.5017 12.4892Z" fill="#0F0F0F"/>
</svg>
