<svg width="32" height="32" viewBox="0 0 32 32" fill="none" xmlns="http://www.w3.org/2000/svg">
<path fill-rule="evenodd" clip-rule="evenodd" d="M2 12.433C2 14.9629 3.37618 17.2742 5.50301 18.8046C5.69068 18.9295 5.78451 19.1169 5.78451 19.3668C5.78451 19.4293 5.75323 19.523 5.75323 19.5854C5.59685 20.2101 5.31535 21.2408 5.28408 21.272C5.2528 21.3657 5.22152 21.4282 5.22152 21.5219C5.22152 21.7093 5.37791 21.8655 5.56557 21.8655C5.62812 21.8655 5.69068 21.8342 5.75323 21.803L7.97389 20.5224C8.13028 20.4287 8.31794 20.3663 8.5056 20.3663C8.59943 20.3663 8.72454 20.3663 8.81837 20.3975C9.85051 20.7098 10.9765 20.866 12.1337 20.866C17.7323 20.866 22.2674 17.0868 22.2674 12.433C22.2674 7.77923 17.7323 4 12.1337 4C6.53515 4 2 7.77923 2 12.433Z" fill="url(#paint0_linear_32294_24347)"/>
<path fill-rule="evenodd" clip-rule="evenodd" d="M21.5756 25.8289C22.5428 25.8289 23.4789 25.703 24.3213 25.4513C24.3837 25.4198 24.4773 25.4198 24.5709 25.4198C24.7269 25.4198 24.8829 25.4827 25.0078 25.5457L26.8486 26.6156C26.911 26.6471 26.9422 26.6785 27.0047 26.6785C27.1607 26.6785 27.2855 26.5527 27.2855 26.3953C27.2855 26.3324 27.2543 26.2694 27.2543 26.175C27.2543 26.1436 27.0047 25.2939 26.8798 24.759C26.8486 24.696 26.8486 24.6331 26.8486 24.5702C26.8486 24.3814 26.9422 24.224 27.0983 24.0982C28.8767 22.808 30 20.8884 30 18.7486C30 14.8465 26.2246 11.6683 21.5756 11.6683C16.9265 11.6683 13.1512 14.8151 13.1512 18.7486C13.1512 22.6506 16.9265 25.8289 21.5756 25.8289Z" fill="url(#paint1_linear_32294_24347)"/>
<path fill-rule="evenodd" clip-rule="evenodd" d="M10.0581 9.71039C10.0581 10.4389 9.48269 11.0156 8.75581 11.0156C8.02893 11.0156 7.45349 10.4389 7.45349 9.71039C7.45349 8.98188 8.02893 8.40515 8.75581 8.40515C9.48269 8.40515 10.0581 8.98188 10.0581 9.71039Z" fill="#168743"/>
<path fill-rule="evenodd" clip-rule="evenodd" d="M16.814 9.71039C16.814 10.4389 16.2385 11.0156 15.5116 11.0156C14.7848 11.0156 14.2093 10.4389 14.2093 9.71039C14.2093 8.98188 14.7848 8.40515 15.5116 8.40515C16.2385 8.40515 16.814 8.98188 16.814 9.71039Z" fill="#168743"/>
<path fill-rule="evenodd" clip-rule="evenodd" d="M23.3256 16.5629C23.3256 17.1974 23.832 17.705 24.4651 17.705C25.0982 17.705 25.6047 17.1974 25.6047 16.5629C25.6047 15.9284 25.0982 15.4208 24.4651 15.4208C23.832 15.4208 23.3256 15.9284 23.3256 16.5629Z" fill="#919191"/>
<path fill-rule="evenodd" clip-rule="evenodd" d="M17.7093 16.5629C17.7093 17.1974 18.2158 17.705 18.8488 17.705C19.4819 17.705 19.9884 17.1974 19.9884 16.5629C19.9884 15.9284 19.4819 15.4208 18.8488 15.4208C18.2158 15.4208 17.7093 15.9284 17.7093 16.5629Z" fill="#919191"/>
<defs>
<linearGradient id="paint0_linear_32294_24347" x1="29.1355" y1="25.3519" x2="29.1355" y2="4.099" gradientUnits="userSpaceOnUse">
<stop stop-color="#05CD66"/>
<stop offset="1" stop-color="#61F380"/>
<stop offset="1" stop-color="#9EEE69"/>
</linearGradient>
<linearGradient id="paint1_linear_32294_24347" x1="29.1249" y1="25.2124" x2="29.1249" y2="3.99182" gradientUnits="userSpaceOnUse">
<stop stop-color="#E4E6E6"/>
<stop offset="1" stop-color="#F0F0F0"/>
</linearGradient>
</defs>
</svg>
