<svg width="32" height="32" viewBox="0 0 32 32" fill="none" xmlns="http://www.w3.org/2000/svg">
<path fill-rule="evenodd" clip-rule="evenodd" d="M28.9981 22.4021C28.9981 22.5445 28.9937 22.8531 28.9853 23.0916C28.9643 23.6752 28.9181 24.4281 28.8481 24.7712C28.7543 25.2591 28.596 25.7323 28.3773 26.1784C27.8951 27.1287 27.1225 27.9006 26.1716 28.3817C25.723 28.601 25.247 28.7594 24.7563 28.8527C24.4166 28.9213 23.6693 28.9666 23.0895 28.9872C22.8508 28.9957 22.5419 29 22.4002 29L9.59811 28.998C9.45566 28.998 9.14707 28.9935 8.90859 28.985C8.32501 28.9641 7.57209 28.9179 7.229 28.8479C6.74111 28.7542 6.26788 28.5959 5.82181 28.3772C4.87146 27.895 4.09963 27.1223 3.61848 26.1715C3.39915 25.7228 3.24076 25.2468 3.14753 24.7561C3.07893 24.4165 3.03356 23.6692 3.01295 23.0893C3.00445 22.8506 3.00018 22.5418 3.00018 22.4L3.00222 9.59794C3.00222 9.45548 3.00667 9.14689 3.01513 8.90837C3.03606 8.32484 3.08231 7.57192 3.15225 7.22882C3.24601 6.74093 3.40432 6.26769 3.62302 5.82159C4.1052 4.87126 4.87786 4.09945 5.82871 3.6183C6.2774 3.39896 6.75339 3.24058 7.24404 3.14735C7.58371 3.07875 8.33102 3.03339 8.91086 3.01278C9.14956 3.00427 9.45842 3 9.60016 3L22.4022 3.00205C22.5447 3.00205 22.8533 3.0065 23.0918 3.01496C23.6753 3.03588 24.4283 3.08213 24.7714 3.15207C25.2593 3.24581 25.7325 3.40413 26.1786 3.62284C27.1289 4.10503 27.9007 4.87768 28.3819 5.82853C28.6012 6.27723 28.7596 6.75322 28.8528 7.24387C28.9214 7.58353 28.9668 8.33085 28.9874 8.91068C28.9959 9.14938 29.0002 9.45824 29.0002 9.59999L28.9981 22.4021Z" fill="url(#paint0_linear_16874_3051)"/>
<path fill-rule="evenodd" clip-rule="evenodd" d="M23.2321 9.61583C22.3555 8.78405 21.3126 8.12455 20.1639 7.67554C19.0152 7.22653 17.7834 6.99693 16.54 7.00003C11.3256 7.00003 7.08179 11.001 7.0797 15.9189C7.07764 17.4841 7.51321 19.0222 8.3425 20.378L7.00018 25L12.0153 23.7597C13.4024 24.472 14.9566 24.8452 16.536 24.8453H16.5399C21.7538 24.8453 25.998 20.8438 26.0001 15.926C26.004 14.7538 25.7614 13.5926 25.2862 12.5094C24.8111 11.4263 24.1129 10.4428 23.2321 9.61583V9.61583ZM16.5399 23.3391H16.5367C15.1286 23.3393 13.7463 22.9824 12.5347 22.3058L12.2475 22.1451L9.27158 22.8811L10.0659 20.1455L9.87899 19.865C9.09147 18.6833 8.67467 17.3154 8.67676 15.9197C8.67853 11.8321 12.2059 8.50644 16.5432 8.50644C17.5758 8.50684 18.5981 8.69905 19.552 9.07211C20.5058 9.44516 21.3724 9.99174 22.1022 10.6807C22.8321 11.3696 23.4109 12.1873 23.8057 13.0872C24.2004 13.9871 24.4034 14.9515 24.403 15.9254C24.4011 20.0135 20.8737 23.3391 16.5399 23.3391ZM20.8529 17.7869C20.6166 17.6755 19.4544 17.1361 19.2377 17.0617C19.0211 16.9873 18.8635 16.9503 18.7061 17.1732C18.5486 17.396 18.0955 17.8983 17.9576 18.047C17.8197 18.1957 17.6818 18.2141 17.4455 18.1027C17.2091 17.9913 16.4474 17.7556 15.5446 16.9965C14.8419 16.4056 14.3676 15.6757 14.2295 15.4526C14.0914 15.2295 14.2149 15.1089 14.3332 14.9978C14.4396 14.8979 14.5695 14.7375 14.6877 14.6073C14.8058 14.4771 14.8453 14.3842 14.924 14.2355C15.0027 14.0868 14.9634 13.9566 14.9043 13.8451C14.8452 13.7335 14.3726 12.6365 14.1755 12.1903C13.9836 11.7557 13.7887 11.8145 13.6438 11.8077C13.5061 11.8013 13.3484 11.7999 13.1908 11.7999C13.071 11.8028 12.9532 11.8291 12.8447 11.8771C12.7362 11.9251 12.6394 11.9938 12.5605 12.0788C12.3438 12.3019 11.7332 12.8411 11.7332 13.938C11.7332 15.035 12.5801 16.0947 12.6983 16.2434C12.8165 16.3922 14.3651 18.6434 16.7363 19.6087C17.1764 19.7874 17.6261 19.9441 18.0836 20.0782C18.6499 20.2478 19.1651 20.2239 19.5725 20.1665C20.0266 20.1025 20.971 19.6273 21.168 19.1067C21.365 18.5862 21.3649 18.1399 21.3059 18.0469C21.2468 17.954 21.0893 17.8982 20.8529 17.7867V17.7869Z" fill="white"/>
<defs>
<linearGradient id="paint0_linear_16874_3051" x1="16.0002" y1="29" x2="16.0002" y2="3" gradientUnits="userSpaceOnUse">
<stop stop-color="#25CF43"/>
<stop offset="1" stop-color="#61FD7D"/>
</linearGradient>
</defs>
</svg>
