<svg width="32" height="33" viewBox="0 0 32 33" fill="none" xmlns="http://www.w3.org/2000/svg">
<path fill-rule="evenodd" clip-rule="evenodd" d="M2 12.5876C2 7.92987 6.53085 4.15381 12.1203 4.15381C17.1694 4.15381 21.3537 7.235 22.1159 11.2639C21.9337 11.255 21.7509 11.2491 21.5663 11.2491C16.4687 11.2491 12.3363 14.6931 12.3363 18.9407C12.3363 19.6571 12.4564 20.3502 12.6763 21.0079C12.492 21.0162 12.3071 21.0211 12.1203 21.0211C10.9655 21.0211 9.85073 20.8558 8.81701 20.5587C8.7227 20.5299 8.62286 20.5142 8.51934 20.5142C8.32519 20.5142 8.14886 20.5735 7.98205 20.6696L5.76654 21.9488C5.7048 21.9844 5.64459 22.0118 5.57147 22.0118C5.385 22.0118 5.23417 21.861 5.23417 21.6745C5.23417 21.6116 5.25294 21.549 5.27126 21.4878C5.27729 21.4676 5.28329 21.4476 5.28854 21.4278L5.74443 19.7269C5.76378 19.6553 5.78006 19.5865 5.78006 19.5118C5.78006 19.2848 5.66824 19.0845 5.49682 18.9619C3.36303 17.4161 2 15.1287 2 12.5876ZM8.74666 11.2381C8.00171 11.2381 7.39745 10.6342 7.39745 9.88861C7.39745 9.14335 8.00171 8.5394 8.74666 8.5394C9.49223 8.5394 10.0962 9.14335 10.0962 9.88861C10.0962 10.6342 9.49223 11.2381 8.74666 11.2381ZM14.1444 9.88861C14.1444 10.6342 14.7484 11.2381 15.4939 11.2381C16.2392 11.2381 16.8435 10.6342 16.8435 9.88861C16.8435 9.14335 16.2392 8.5394 15.4939 8.5394C14.7484 8.5394 14.1444 9.14335 14.1444 9.88861Z" fill="#0F0F0F"/>
<path fill-rule="evenodd" clip-rule="evenodd" d="M30 18.9409C30 21.0584 28.8637 22.9646 27.0859 24.253C26.9431 24.355 26.85 24.5221 26.85 24.711C26.85 24.7734 26.8632 24.8308 26.8795 24.8901C27.0211 25.4197 27.2487 26.2682 27.2595 26.3078C27.2639 26.3244 27.2689 26.3411 27.2739 26.358C27.2891 26.4089 27.3047 26.4611 27.3047 26.513C27.3047 26.6685 27.179 26.7944 27.0236 26.7944C26.9624 26.7944 26.9127 26.7717 26.8611 26.7419L25.0148 25.6762C24.8763 25.5957 24.7288 25.5466 24.5672 25.5466C24.4806 25.5466 24.3973 25.5595 24.319 25.5834C23.4576 25.8313 22.5287 25.9687 21.5662 25.9687C16.9085 25.9687 13.1327 22.8223 13.1327 18.9409C13.1327 15.0592 16.9085 11.9129 21.5662 11.9129C26.2239 11.9129 30 15.0592 30 18.9409ZM17.6307 16.692C17.6307 17.3131 18.1342 17.8166 18.7547 17.8166C19.3762 17.8166 19.8794 17.3131 19.8794 16.692C19.8794 16.0708 19.3762 15.5673 18.7547 15.5673C18.1342 15.5673 17.6307 16.0708 17.6307 16.692ZM23.253 16.692C23.253 17.3131 23.7565 17.8166 24.3774 17.8166C24.9985 17.8166 25.5017 17.3131 25.5017 16.692C25.5017 16.0708 24.9985 15.5673 24.3774 15.5673C23.7565 15.5673 23.253 16.0708 23.253 16.692Z" fill="#0F0F0F"/>
</svg>
