<svg width="33" height="32" viewBox="0 0 33 32" fill="none" xmlns="http://www.w3.org/2000/svg">
<path d="M2.24677 12.4338C2.24677 7.77607 6.77762 4 12.3671 4C17.4162 4 21.6005 7.08119 22.3626 11.1101C22.1805 11.1012 21.9977 11.0953 21.8131 11.0953C16.7154 11.0953 12.583 14.5393 12.583 18.7869C12.583 19.5033 12.7031 20.1964 12.9231 20.8541C12.7388 20.8624 12.5538 20.8673 12.3671 20.8673C11.2123 20.8673 10.0975 20.702 9.06378 20.4049C8.96947 20.3761 8.86963 20.3604 8.7661 20.3604C8.57195 20.3604 8.39562 20.4197 8.22881 20.5158L6.01331 21.795C5.95156 21.8306 5.89135 21.858 5.81824 21.858C5.63177 21.858 5.48094 21.7071 5.48094 21.5207C5.48094 21.4578 5.4997 21.3952 5.51802 21.334C5.52406 21.3138 5.53006 21.2938 5.53531 21.274L5.99119 19.5731C6.01054 19.5015 6.02683 19.4327 6.02683 19.358C6.02683 19.131 5.91501 18.9307 5.74359 18.8081C3.6098 17.2623 2.24677 14.9749 2.24677 12.4338ZM8.99343 11.0843C9.739 11.0843 10.3429 10.4804 10.3429 9.7348C10.3429 8.98954 9.739 8.38559 8.99343 8.38559C8.24848 8.38559 7.64422 8.98954 7.64422 9.7348C7.64422 10.4804 8.24848 11.0843 8.99343 11.0843ZM14.3912 9.7348C14.3912 10.4804 14.9951 11.0843 15.7407 11.0843C16.486 11.0843 17.0902 10.4804 17.0902 9.7348C17.0902 8.98954 16.486 8.38559 15.7407 8.38559C14.9951 8.38559 14.3912 8.98954 14.3912 9.7348Z" fill="#0F0F0F"/>
<path d="M30.2468 18.7871C30.2468 20.9046 29.1104 22.8108 27.3327 24.0992C27.1898 24.2011 27.0968 24.3683 27.0968 24.5572C27.0968 24.6195 27.11 24.677 27.1263 24.7363C27.2679 25.2659 27.4955 26.1144 27.5063 26.154C27.5106 26.1706 27.5156 26.1873 27.5207 26.2042C27.5358 26.2551 27.5514 26.3073 27.5514 26.3592C27.5514 26.5146 27.4258 26.6406 27.2703 26.6406C27.2092 26.6406 27.1594 26.6179 27.1078 26.5881L25.2616 25.5224C25.123 25.4419 24.9756 25.3928 24.814 25.3928C24.7274 25.3928 24.6441 25.4057 24.5658 25.4296C23.7044 25.6775 22.7754 25.8148 21.813 25.8148C17.1553 25.8148 13.3795 22.6685 13.3795 18.7871C13.3795 14.9054 17.1553 11.759 21.813 11.759C26.4707 11.759 30.2468 14.9054 30.2468 18.7871ZM17.8775 16.5382C17.8775 17.1593 18.381 17.6628 19.0015 17.6628C19.623 17.6628 20.1262 17.1593 20.1262 16.5382C20.1262 15.917 19.623 15.4135 19.0015 15.4135C18.381 15.4135 17.8775 15.917 17.8775 16.5382ZM23.4998 16.5382C23.4998 17.1593 24.0033 17.6628 24.6241 17.6628C25.2453 17.6628 25.7485 17.1593 25.7485 16.5382C25.7485 15.917 25.2453 15.4135 24.6241 15.4135C24.0033 15.4135 23.4998 15.917 23.4998 16.5382Z" fill="#0F0F0F"/>
</svg>
