<svg width="32" height="32" viewBox="0 0 32 32" fill="none" xmlns="http://www.w3.org/2000/svg">
<path d="M16.0002 3C8.67689 3 3.00018 8.36453 3.00018 15.6105C3.00018 19.4006 4.55342 22.6757 7.08289 24.9378C7.18834 25.0312 7.27369 25.1451 7.33373 25.2726C7.39377 25.4 7.42725 25.5383 7.43214 25.6791L7.50292 27.9916C7.50811 28.1619 7.55506 28.3284 7.63963 28.4763C7.72421 28.6242 7.84383 28.749 7.98797 28.8399C8.13211 28.9307 8.29636 28.9847 8.46627 28.9972C8.63619 29.0097 8.80657 28.9802 8.96243 28.9114L11.5427 27.7723C11.7614 27.6759 12.0067 27.6579 12.2371 27.7214C13.4634 28.0558 14.7291 28.2239 16.0002 28.221C23.3235 28.221 29.0002 22.8564 29.0002 15.6105C29.0002 8.36453 23.3235 3 16.0002 3ZM23.8067 12.7027L19.9879 18.7615C19.8443 18.9894 19.655 19.185 19.4319 19.3361C19.2089 19.4872 18.957 19.5905 18.6921 19.6393C18.4272 19.6882 18.155 19.6817 17.8927 19.6201C17.6305 19.5586 17.3838 19.4433 17.1683 19.2817L14.131 17.0036C13.9953 16.9019 13.8303 16.8471 13.6607 16.8476C13.4912 16.8481 13.3264 16.9038 13.1914 17.0063L9.08944 20.1196C8.54195 20.535 7.82727 19.8798 8.19374 19.2984L12.0124 13.2396C12.1561 13.0117 12.3454 12.816 12.5684 12.6649C12.7914 12.5138 13.0433 12.4106 13.3083 12.3617C13.5732 12.3128 13.8454 12.3194 14.1076 12.3809C14.3699 12.4425 14.6165 12.5577 14.8321 12.7193L17.8693 14.9974C18.0049 15.0991 18.17 15.1539 18.3396 15.1534C18.5091 15.1529 18.6738 15.0972 18.8089 14.9947L22.9108 11.8815C23.4584 11.466 24.1731 12.1212 23.8067 12.7027Z" fill="url(#paint0_radial_16874_3064)"/>
<defs>
<radialGradient id="paint0_radial_16874_3064" cx="0" cy="0" r="1" gradientUnits="userSpaceOnUse" gradientTransform="translate(8.00451 28.861) scale(28.3295)">
<stop stop-color="#0099FF"/>
<stop offset="0.609754" stop-color="#A033FF"/>
<stop offset="0.934823" stop-color="#FF5280"/>
<stop offset="1" stop-color="#FF7061"/>
</radialGradient>
</defs>
</svg>
