<svg width="32" height="33" viewBox="0 0 32 33" fill="none" xmlns="http://www.w3.org/2000/svg">
<path d="M5.4375 5.15384H26.5625C27.908 5.15384 29 6.23064 29 7.55384V22.7538C29 24.077 27.908 25.1538 26.5625 25.1538H11.4208L6.77162 28.9666C6.62212 29.0898 6.4385 29.1538 6.25 29.1538C6.133 29.1538 6.016 29.1282 5.90712 29.0786C5.62112 28.9474 5.4375 28.6642 5.4375 28.3538V25.1538C4.09363 25.1538 3 24.077 3 22.7538V7.55384C3 6.23064 4.09363 5.15384 5.4375 5.15384ZM8.605 11.5388C6.886 11.5388 6.004 12.2678 6.004 13.4108C6.004 14.7788 7.12 15.1748 8.2 15.4268C9.127 15.6428 9.82 15.8228 9.82 16.4888C9.82 16.9478 9.487 17.2358 8.614 17.2358C7.759 17.2358 7.3 16.8128 7.201 16.2458H5.77C5.95 17.4878 6.931 18.2888 8.596 18.2888C10.522 18.2888 11.341 17.3618 11.341 16.3178C11.341 14.8958 10.081 14.3918 8.839 14.1218C7.939 13.9238 7.525 13.7618 7.525 13.2308C7.525 12.8348 7.804 12.5738 8.569 12.5738C9.217 12.5738 9.694 12.8528 9.766 13.3388H11.179C11.008 12.2138 10.117 11.5388 8.605 11.5388ZM17.6935 13.6898V18.1538H19.0615V11.6738H17.2885L15.5875 16.7318L13.8325 11.6738H12.1045V18.1538H13.3825V13.6988L14.9395 18.1538H16.1725L17.6935 13.6898ZM22.7027 11.5388C20.9837 11.5388 20.1017 12.2678 20.1017 13.4108C20.1017 14.7788 21.2177 15.1748 22.2977 15.4268C23.2247 15.6428 23.9177 15.8228 23.9177 16.4888C23.9177 16.9478 23.5847 17.2358 22.7117 17.2358C21.8567 17.2358 21.3977 16.8128 21.2987 16.2458H19.8677C20.0477 17.4878 21.0287 18.2888 22.6937 18.2888C24.6197 18.2888 25.4387 17.3618 25.4387 16.3178C25.4387 14.8958 24.1787 14.3918 22.9367 14.1218C22.0367 13.9238 21.6227 13.7618 21.6227 13.2308C21.6227 12.8348 21.9017 12.5738 22.6667 12.5738C23.3147 12.5738 23.7917 12.8528 23.8637 13.3388H25.2767C25.1057 12.2138 24.2147 11.5388 22.7027 11.5388Z" fill="#0F0F0F"/>
</svg>
