<svg width="32" height="32" viewBox="0 0 32 32" fill="none" xmlns="http://www.w3.org/2000/svg">
<path d="M16.0002 3C8.80762 3 3.00018 8.86461 3.00018 16C3.00018 23.1354 8.80762 29 16.0002 29C23.1927 29 29.0002 23.1354 29.0002 16C29.0002 8.86461 23.1926 3 16.0002 3ZM13.9615 28.8364V26.2592C13.9582 25.8099 13.8224 25.3716 13.5712 24.9991C13.3201 24.6266 12.9646 24.3364 12.5494 24.1649C10.9461 23.4843 9.57816 22.3475 8.6156 20.8959C7.65305 19.4443 7.13829 17.7418 7.13532 16C7.13532 11.1343 11.0956 7.13516 16.0001 7.13516C20.9046 7.13516 24.8649 11.1343 24.8649 16C24.8649 21.741 20.424 27.1695 13.9615 28.8364Z" fill="#00CAFF"/>
</svg>
