<svg width="32" height="33" viewBox="0 0 32 33" fill="none" xmlns="http://www.w3.org/2000/svg">
<path d="M16.0001 5.49619C19.4712 5.49619 19.8823 5.5094 21.2532 5.57195C22.5207 5.6298 23.209 5.84158 23.6672 6.01956C24.2318 6.22799 24.7426 6.56028 25.1619 6.99202C25.5937 7.41137 25.926 7.92213 26.1344 8.48677C26.3124 8.94485 26.5242 9.63325 26.582 10.9007C26.6446 12.2715 26.6578 12.6827 26.6578 16.1539C26.6578 19.6252 26.6446 20.0362 26.582 21.4071C26.5242 22.6746 26.3124 23.3629 26.1344 23.8211C25.9181 24.3818 25.5869 24.8909 25.1619 25.3159C24.737 25.7408 24.2278 26.072 23.6672 26.2883C23.2091 26.4663 22.5207 26.6781 21.2532 26.7359C19.8826 26.7985 19.4715 26.8117 16 26.8117C12.5285 26.8117 12.1175 26.7985 10.7468 26.7359C9.47928 26.6781 8.79099 26.4663 8.33281 26.2883C7.76817 26.0799 7.25741 25.7476 6.83806 25.3159C6.40631 24.8965 6.07401 24.3857 5.86559 23.8211C5.68761 23.363 5.47583 22.6746 5.41798 21.4072C5.35544 20.0364 5.34223 19.6252 5.34223 16.154C5.34223 12.6827 5.35544 12.2717 5.41798 10.9007C5.47583 9.63325 5.68761 8.94496 5.86559 8.48677C6.07407 7.92212 6.40642 7.41136 6.83822 6.99202C7.25757 6.56028 7.76833 6.22799 8.33296 6.01956C8.79105 5.84158 9.47944 5.6298 10.7469 5.57195C12.1177 5.5094 12.5288 5.49619 16.0001 5.49619ZM16 3.15381C12.4695 3.15381 12.0266 3.16877 10.6403 3.23204C9.25651 3.2952 8.31155 3.51493 7.4846 3.83632C6.61717 4.16274 5.83139 4.67445 5.18205 5.33576C4.52074 5.9851 4.00903 6.77088 3.68261 7.63831C3.36112 8.46525 3.14139 9.41022 3.07849 10.794C3.01497 12.1803 3 12.6232 3 16.1538C3 19.6844 3.01496 20.1273 3.07823 21.5137C3.14139 22.8974 3.36112 23.8424 3.68251 24.6693C4.00894 25.5367 4.52065 26.3225 5.18195 26.9719C5.83126 27.6333 6.61705 28.1451 7.4845 28.4716C8.31144 28.7929 9.25641 29.0127 10.6402 29.0758C12.0265 29.1388 12.4694 29.1538 16 29.1538C19.5306 29.1538 19.9735 29.1388 21.3598 29.0756C22.7436 29.0124 23.6886 28.7927 24.5155 28.4713C25.3791 28.1373 26.1634 27.6266 26.8182 26.9719C27.473 26.3172 27.9837 25.5329 28.3178 24.6693C28.6391 23.8424 28.8589 22.8974 28.922 21.5137C28.985 20.1273 29 19.6844 29 16.1538C29 12.6232 28.985 12.1803 28.9218 10.794C28.8586 9.41022 28.6389 8.46525 28.3175 7.63831C27.9911 6.77088 27.4794 5.9851 26.8181 5.33576C26.1687 4.67445 25.3829 4.16274 24.5155 3.83632C23.6886 3.51493 22.7436 3.2952 21.3598 3.2323C19.9735 3.16877 19.5306 3.15381 16 3.15381ZM16.0003 9.47685C14.68 9.47685 13.3893 9.86837 12.2915 10.6019C11.1937 11.3354 10.338 12.378 9.83276 13.5979C9.3275 14.8177 9.19529 16.1599 9.45288 17.4549C9.71046 18.7498 10.3463 19.9393 11.2799 20.873C12.2135 21.8066 13.403 22.4424 14.6979 22.6999C15.9929 22.9575 17.3351 22.8253 18.555 22.3201C19.7748 21.8148 20.8174 20.9592 21.5509 19.8613C22.2845 18.7635 22.676 17.4729 22.676 16.1525C22.676 14.382 21.9726 12.684 20.7207 11.4321C19.4688 10.1802 17.7708 9.47685 16.0003 9.47685ZM16.0003 20.4858C15.1432 20.4858 14.3054 20.2317 13.5928 19.7555C12.8802 19.2794 12.3248 18.6026 11.9968 17.8108C11.6688 17.019 11.583 16.1477 11.7502 15.3071C11.9174 14.4665 12.3301 13.6943 12.9362 13.0883C13.5422 12.4823 14.3143 12.0696 15.1549 11.9024C15.9955 11.7352 16.8668 11.821 17.6586 12.149C18.4504 12.477 19.1272 13.0324 19.6034 13.745C20.0795 14.4577 20.3336 15.2955 20.3336 16.1525C20.3336 17.3018 19.8771 18.404 19.0644 19.2166C18.2518 20.0293 17.1496 20.4858 16.0003 20.4858ZM24.4996 9.21296C24.4996 10.0745 23.8012 10.7729 22.9396 10.7729C22.0781 10.7729 21.3797 10.0745 21.3797 9.21296C21.3797 8.35141 22.0781 7.65299 22.9396 7.65299C23.8012 7.65299 24.4996 8.35141 24.4996 9.21296Z" fill="#0F0F0F"/>
</svg>
