<svg width="32" height="32" viewBox="0 0 32 32" fill="none" xmlns="http://www.w3.org/2000/svg">
<path fill-rule="evenodd" clip-rule="evenodd" d="M29.9978 22.8945C29.9978 23.0479 29.993 23.3803 29.9839 23.6371C29.9614 24.2656 29.9116 25.0764 29.8362 25.4459C29.7353 25.9713 29.5648 26.481 29.3293 26.9614C28.81 27.9848 27.9779 28.816 26.9539 29.3341C26.4707 29.5704 25.9581 29.7409 25.4297 29.8413C25.0639 29.9152 24.2591 29.964 23.6347 29.9862C23.3776 29.9954 23.045 30 22.8923 30L9.10547 29.9978C8.95206 29.9978 8.61973 29.993 8.36291 29.9839C7.73444 29.9614 6.9236 29.9116 6.55412 29.8362C6.0287 29.7353 5.51907 29.5648 5.03868 29.3293C4.01523 28.81 3.18402 27.9779 2.66586 26.9539C2.42966 26.4707 2.25909 25.9581 2.15869 25.4297C2.08481 25.0639 2.03596 24.2591 2.01376 23.6347C2.0046 23.3776 2 23.045 2 22.8923L2.0022 9.10547C2.0022 8.95206 2.007 8.61973 2.01611 8.36286C2.03864 7.73444 2.08845 6.9236 2.16377 6.55412C2.26474 6.02869 2.43523 5.51905 2.67075 5.03863C3.19003 4.01521 4.02212 3.18403 5.04611 2.66586C5.52932 2.42965 6.04193 2.25909 6.57032 2.15869C6.93611 2.08481 7.74091 2.03596 8.36535 2.01376C8.62241 2.0046 8.95503 2 9.10768 2L22.8945 2.00221C23.0479 2.00221 23.3803 2.007 23.6371 2.01611C24.2656 2.03864 25.0764 2.08845 25.4459 2.16377C25.9713 2.26472 26.481 2.43521 26.9614 2.67075C27.9848 3.19003 28.816 4.02212 29.3341 5.04611C29.5703 5.52932 29.7409 6.04193 29.8413 6.57032C29.9152 6.93611 29.964 7.74091 29.9862 8.36535C29.9954 8.62241 30 8.95503 30 9.10768L29.9978 22.8945Z" fill="url(#paint0_linear_16874_3051)"/>
<path fill-rule="evenodd" clip-rule="evenodd" d="M23.9405 8.90648C22.9716 7.98228 21.819 7.2495 20.5494 6.7506C19.2798 6.2517 17.9183 5.99659 16.544 6.00003C10.7808 6.00003 6.0902 10.4456 6.08789 15.9099C6.08561 17.649 6.56704 19.358 7.48362 20.8644L6 26L11.543 24.6219C13.0761 25.4133 14.794 25.828 16.5396 25.8281H16.5439C22.3066 25.8281 26.9976 21.3821 26.9999 15.9178C27.0043 14.6154 26.7361 13.3251 26.2109 12.1216C25.6858 10.9181 24.9141 9.82531 23.9405 8.90648V8.90648ZM16.5439 24.1546H16.5404C14.984 24.1548 13.4563 23.7583 12.1171 23.0064L11.7997 22.8279L8.5105 23.6457L9.38847 20.6061L9.18185 20.2944C8.31144 18.9814 7.85076 17.4616 7.85307 15.9107C7.85503 11.369 11.7537 7.67382 16.5475 7.67382C17.6888 7.67427 18.8188 7.88784 19.873 8.30234C20.9273 8.71684 21.8851 9.32416 22.6917 10.0896C23.4984 10.8551 24.1382 11.7637 24.5745 12.7635C25.0108 13.7634 25.2351 14.835 25.2347 15.9171C25.2326 20.4594 21.3339 24.1546 16.5439 24.1546ZM21.3109 17.9854C21.0498 17.8616 19.7652 17.2624 19.5257 17.1797C19.2862 17.0971 19.1121 17.0559 18.9381 17.3035C18.7641 17.5511 18.2632 18.1092 18.1108 18.2744C17.9585 18.4397 17.806 18.4601 17.5448 18.3363C17.2836 18.2125 16.4417 17.9506 15.4438 17.1072C14.6672 16.4507 14.143 15.6397 13.9904 15.3918C13.8377 15.1439 13.9742 15.0098 14.105 14.8864C14.2225 14.7755 14.3661 14.5972 14.4967 14.4526C14.6273 14.3079 14.6709 14.2047 14.7579 14.0394C14.8449 13.8742 14.8014 13.7296 14.7361 13.6056C14.6708 13.4817 14.1485 12.2628 13.9306 11.767C13.7185 11.2841 13.5031 11.3494 13.343 11.3419C13.1907 11.3347 13.0165 11.3332 12.8422 11.3332C12.7098 11.3365 12.5796 11.3657 12.4597 11.419C12.3398 11.4724 12.2329 11.5486 12.1456 11.6431C11.9061 11.891 11.2312 12.4901 11.2312 13.7089C11.2312 14.9277 12.1673 16.1052 12.298 16.2705C12.4286 16.4358 14.1402 18.9371 16.761 20.0096C17.2474 20.2082 17.7444 20.3824 18.2501 20.5313C18.876 20.7197 19.4454 20.6932 19.8957 20.6294C20.3976 20.5583 21.4414 20.0304 21.6592 19.4519C21.8769 18.8735 21.8768 18.3777 21.8116 18.2744C21.7463 18.1711 21.5722 18.1091 21.3109 17.9852V17.9854Z" fill="white"/>
<defs>
<linearGradient id="paint0_linear_16874_3051" x1="16" y1="30" x2="16" y2="2" gradientUnits="userSpaceOnUse">
<stop stop-color="#25CF43"/>
<stop offset="1" stop-color="#61FD7D"/>
</linearGradient>
</defs>
</svg>
