<svg width="32" height="32" viewBox="0 0 32 32" fill="none" xmlns="http://www.w3.org/2000/svg">
<path d="M8.0002 18.7H18.4335V16.7H8.0002V18.7ZM8.0002 14.3667H24.0002V12.3667H8.0002V14.3667ZM8.0002 10.0334H24.0002V8.03335H8.0002V10.0334ZM2.66687 29.3334V4.66669C2.66687 4.15558 2.86687 3.69446 3.26687 3.28335C3.66687 2.87224 4.13354 2.66669 4.66687 2.66669H27.3335C27.8446 2.66669 28.3058 2.87224 28.7169 3.28335C29.128 3.69446 29.3335 4.15558 29.3335 4.66669V22C29.3335 22.5111 29.128 22.9722 28.7169 23.3834C28.3058 23.7945 27.8446 24 27.3335 24H8.0002L2.66687 29.3334Z" fill="#3B78E7"/>
</svg>
