<svg width="33" height="32" viewBox="0 0 33 32" fill="none" xmlns="http://www.w3.org/2000/svg">
<path d="M5.68427 5.5H26.8093C28.1548 5.5 29.2468 6.5768 29.2468 7.9V23.1C29.2468 24.4232 28.1548 25.5 26.8093 25.5H11.6676L7.01838 29.3128C6.86889 29.436 6.68527 29.5 6.49677 29.5C6.37977 29.5 6.26277 29.4744 6.15389 29.4248C5.86789 29.2936 5.68427 29.0104 5.68427 28.7V25.5C4.34039 25.5 3.24677 24.4232 3.24677 23.1V7.9C3.24677 6.5768 4.34039 5.5 5.68427 5.5ZM10.8758 14.036V18.5H12.2438V12.02H10.4708L8.76976 17.078L7.01477 12.02H5.28677V18.5H6.56476V14.045L8.12177 18.5H9.35476L10.8758 14.036ZM18.909 14.036V18.5H20.277V12.02H18.504L16.803 17.078L15.048 12.02H13.32V18.5H14.598V14.045L16.155 18.5H17.388L18.909 14.036ZM23.9182 11.885C22.1992 11.885 21.3172 12.614 21.3172 13.757C21.3172 15.125 22.4332 15.521 23.5132 15.773C24.4402 15.989 25.1332 16.169 25.1332 16.835C25.1332 17.294 24.8002 17.582 23.9272 17.582C23.0722 17.582 22.6132 17.159 22.5142 16.592H21.0832C21.2632 17.834 22.2442 18.635 23.9092 18.635C25.8352 18.635 26.6542 17.708 26.6542 16.664C26.6542 15.242 25.3942 14.738 24.1522 14.468C23.2522 14.27 22.8382 14.108 22.8382 13.577C22.8382 13.181 23.1172 12.92 23.8822 12.92C24.5302 12.92 25.0072 13.199 25.0792 13.685H26.4922C26.3212 12.56 25.4302 11.885 23.9182 11.885Z" fill="#0F0F0F"/>
</svg>
