<svg width="32" height="32" viewBox="0 0 32 32" fill="none" xmlns="http://www.w3.org/2000/svg">
<path d="M4.6253 4H27.375C28.824 4 30 5.15962 30 6.58458V22.9536C30 24.3786 28.824 25.5382 27.375 25.5382H11.0687L6.06204 29.6442C5.90104 29.7769 5.70329 29.8458 5.50029 29.8458C5.37429 29.8458 5.2483 29.8183 5.13105 29.7649C4.82305 29.6236 4.6253 29.3186 4.6253 28.9843V25.5382C3.17807 25.5382 2.00034 24.3786 2.00034 22.9536V6.58458C2.00034 5.15962 3.17807 4 4.6253 4ZM8.03642 10.8761C6.18521 10.8761 5.23537 11.6611 5.23537 12.892C5.23537 14.3653 6.4372 14.7917 7.60027 15.0631C8.59856 15.2957 9.34486 15.4896 9.34486 16.2068C9.34486 16.7011 8.98625 17.0112 8.04611 17.0112C7.12535 17.0112 6.63105 16.5557 6.52443 15.9451H4.98338C5.17722 17.2826 6.23367 18.1452 8.02672 18.1452C10.1009 18.1452 10.9828 17.1469 10.9828 16.0226C10.9828 14.4913 9.62593 13.9485 8.28841 13.6577C7.31919 13.4445 6.87335 13.27 6.87335 12.6982C6.87335 12.2717 7.17381 11.9907 7.99765 11.9907C8.69548 11.9907 9.20917 12.2911 9.28671 12.8145H10.8084C10.6242 11.603 9.6647 10.8761 8.03642 10.8761ZM17.8239 13.1925V17.9998H19.2971V11.0215H17.3877L15.5559 16.4685L13.6659 11.0215H11.805V17.9998H13.1813V13.2022L14.858 17.9998H16.1859L17.8239 13.1925ZM23.2183 10.8761C21.3671 10.8761 20.4173 11.6611 20.4173 12.892C20.4173 14.3653 21.6191 14.7917 22.7822 15.0631C23.7805 15.2957 24.5268 15.4896 24.5268 16.2068C24.5268 16.7011 24.1682 17.0112 23.228 17.0112C22.3073 17.0112 21.813 16.5557 21.7063 15.9451H20.1653C20.3591 17.2826 21.4156 18.1452 23.2086 18.1452C25.2828 18.1452 26.1647 17.1469 26.1647 16.0226C26.1647 14.4913 24.8078 13.9485 23.4703 13.6577C22.5011 13.4445 22.0553 13.27 22.0553 12.6982C22.0553 12.2717 22.3557 11.9907 23.1796 11.9907C23.8774 11.9907 24.3911 12.2911 24.4686 12.8145H25.9903C25.8061 11.603 24.8466 10.8761 23.2183 10.8761Z" fill="#16A693"/>
</svg>
