<svg width="32" height="33" viewBox="0 0 32 33" fill="none" xmlns="http://www.w3.org/2000/svg">
<path d="M5.4375 5.15384H26.5625C27.908 5.15384 29 6.23064 29 7.55384V22.7538C29 24.077 27.908 25.1538 26.5625 25.1538H11.4208L6.77162 28.9666C6.62212 29.0898 6.4385 29.1538 6.25 29.1538C6.133 29.1538 6.016 29.1282 5.90712 29.0786C5.62112 28.9474 5.4375 28.6642 5.4375 28.3538V25.1538C4.09362 25.1538 3 24.077 3 22.7538V7.55384C3 6.23064 4.09362 5.15384 5.4375 5.15384ZM10.629 13.6898V18.1538H11.997V11.6738H10.224L8.523 16.7318L6.768 11.6738H5.04V18.1538H6.318V13.6988L7.875 18.1538H9.108L10.629 13.6898ZM18.6622 13.6898V18.1538H20.0302V11.6738H18.2572L16.5562 16.7318L14.8012 11.6738H13.0732V18.1538H14.3512V13.6988L15.9082 18.1538H17.1412L18.6622 13.6898ZM23.6714 11.5388C21.9524 11.5388 21.0704 12.2678 21.0704 13.4108C21.0704 14.7788 22.1864 15.1748 23.2664 15.4268C24.1934 15.6428 24.8864 15.8228 24.8864 16.4888C24.8864 16.9478 24.5534 17.2358 23.6804 17.2358C22.8254 17.2358 22.3664 16.8128 22.2674 16.2458H20.8364C21.0164 17.4878 21.9974 18.2888 23.6624 18.2888C25.5884 18.2888 26.4074 17.3618 26.4074 16.3178C26.4074 14.8958 25.1474 14.3918 23.9054 14.1218C23.0054 13.9238 22.5914 13.7618 22.5914 13.2308C22.5914 12.8348 22.8704 12.5738 23.6354 12.5738C24.2834 12.5738 24.7604 12.8528 24.8324 13.3388H26.2454C26.0744 12.2138 25.1834 11.5388 23.6714 11.5388Z" fill="#0F0F0F"/>
</svg>
