<svg width="32" height="32" viewBox="0 0 32 32" fill="none" xmlns="http://www.w3.org/2000/svg">
<path d="M16.0001 4.52256C19.7382 4.52256 20.1809 4.53679 21.6573 4.60415C23.0223 4.66645 23.7635 4.89452 24.257 5.08619C24.865 5.31066 25.4151 5.66851 25.8667 6.13346C26.3317 6.58506 26.6895 7.13511 26.914 7.74319C27.1057 8.2365 27.3338 8.97786 27.396 10.3428C27.4634 11.8191 27.4776 12.2619 27.4776 16.0001C27.4776 19.7384 27.4634 20.181 27.396 21.6574C27.3338 23.0224 27.1057 23.7636 26.914 24.2571C26.681 24.8609 26.3244 25.4092 25.8667 25.8669C25.4091 26.3245 24.8608 26.6811 24.257 26.9141C23.7636 27.1058 23.0223 27.3339 21.6573 27.3961C20.1813 27.4635 19.7385 27.4777 16 27.4777C12.2615 27.4777 11.8188 27.4635 10.3427 27.3961C8.97769 27.3339 8.23645 27.1058 7.74303 26.9141C7.13495 26.6896 6.5849 26.3318 6.1333 25.8669C5.66833 25.4152 5.31047 24.8651 5.08602 24.2571C4.89435 23.7637 4.66628 23.0224 4.60398 21.6575C4.53663 20.1813 4.5224 19.7384 4.5224 16.0002C4.5224 12.2619 4.53663 11.8193 4.60398 10.3428C4.66628 8.97786 4.89435 8.23662 5.08602 7.74319C5.31054 7.1351 5.66845 6.58505 6.13347 6.13346C6.58508 5.66851 7.13513 5.31066 7.74319 5.08619C8.23652 4.89452 8.97786 4.66645 10.3428 4.60415C11.8191 4.53679 12.2618 4.52256 16.0001 4.52256ZM16 2C12.1979 2 11.721 2.01611 10.228 2.08425C8.73778 2.15227 7.72013 2.3889 6.82957 2.73501C5.89541 3.08654 5.04919 3.63761 4.3499 4.34979C3.63772 5.04908 3.08665 5.89531 2.73512 6.82946C2.3889 7.72001 2.15227 8.73767 2.08453 10.2279C2.01612 11.7208 2 12.1978 2 16C2 19.8022 2.01611 20.2791 2.08425 21.7722C2.15227 23.2623 2.3889 24.28 2.73501 25.1705C3.08655 26.1047 3.63762 26.9509 4.34979 27.6503C5.04905 28.3625 5.89528 28.9137 6.82946 29.2653C7.72001 29.6113 8.73767 29.848 10.2279 29.916C11.7208 29.9838 12.1978 30 16 30C19.8022 30 20.2792 29.9838 21.7721 29.9158C23.2623 29.8477 24.28 29.6111 25.1705 29.265C26.1006 28.9053 26.9452 28.3553 27.6504 27.6503C28.3555 26.9452 28.9055 26.1006 29.2653 25.1705C29.6113 24.28 29.848 23.2623 29.916 21.7722C29.9838 20.2791 30 19.8022 30 16C30 12.1978 29.9838 11.7208 29.9158 10.2279C29.8477 8.73767 29.6111 7.72001 29.265 6.82946C28.9135 5.89531 28.3624 5.04908 27.6503 4.34979C26.9509 3.63761 26.1047 3.08654 25.1705 2.73501C24.28 2.3889 23.2623 2.15227 21.7721 2.08453C20.2792 2.01611 19.8022 2 16 2ZM16.0003 8.80943C14.5785 8.80943 13.1885 9.23107 12.0062 10.021C10.824 10.8109 9.90246 11.9337 9.35836 13.2475C8.81423 14.5611 8.67185 16.0066 8.94926 17.4012C9.22665 18.7957 9.9114 20.0767 10.9168 21.0822C11.9222 22.0876 13.2032 22.7723 14.5977 23.0496C15.9924 23.3271 17.4378 23.1847 18.7515 22.6406C20.0652 22.0965 21.188 21.175 21.9779 19.9927C22.7679 18.8104 23.1895 17.4206 23.1895 15.9986C23.1895 14.0919 22.432 12.2633 21.0838 10.9151C19.7356 9.56688 17.907 8.80943 16.0003 8.80943ZM16.0003 20.6652C15.0773 20.6652 14.175 20.3916 13.4076 19.8787C12.6402 19.366 12.0421 18.6372 11.6889 17.7845C11.3356 16.9317 11.2432 15.9934 11.4233 15.0882C11.6034 14.1829 12.0478 13.3513 12.7005 12.6987C13.3531 12.0461 14.1846 11.6016 15.0899 11.4216C15.9952 11.2415 16.9335 11.3339 17.7862 11.6871C18.6389 12.0404 19.3678 12.6385 19.8806 13.4059C20.3933 14.1734 20.667 15.0757 20.667 15.9986C20.667 17.2363 20.1753 18.4233 19.3001 19.2984C18.425 20.1736 17.238 20.6652 16.0003 20.6652ZM25.1534 8.52524C25.1534 9.45305 24.4013 10.2052 23.4734 10.2052C22.5456 10.2052 21.7935 9.45305 21.7935 8.52524C21.7935 7.59742 22.5456 6.84527 23.4734 6.84527C24.4013 6.84527 25.1534 7.59742 25.1534 8.52524Z" fill="#0F0F0F"/>
</svg>
