<svg width="32" height="32" viewBox="0 0 32 32" fill="none" xmlns="http://www.w3.org/2000/svg">
<path fill-rule="evenodd" clip-rule="evenodd" d="M2.00018 12.433C2.00018 14.9629 3.37636 17.2742 5.50319 18.8046C5.69085 18.9295 5.78468 19.1169 5.78468 19.3668C5.78468 19.4293 5.75341 19.523 5.75341 19.5854C5.59702 20.2101 5.31553 21.2408 5.28425 21.272C5.25297 21.3657 5.2217 21.4282 5.2217 21.5219C5.2217 21.7093 5.37808 21.8655 5.56574 21.8655C5.6283 21.8655 5.69085 21.8342 5.75341 21.803L7.97407 20.5224C8.13045 20.4287 8.31811 20.3663 8.50577 20.3663C8.5996 20.3663 8.72471 20.3663 8.81854 20.3975C9.85068 20.7098 10.9767 20.866 12.1339 20.866C17.7325 20.866 22.2676 17.0868 22.2676 12.433C22.2676 7.77923 17.7325 4 12.1339 4C6.53533 4 2.00018 7.77923 2.00018 12.433Z" fill="url(#paint0_linear_32294_24347)"/>
<path fill-rule="evenodd" clip-rule="evenodd" d="M21.5758 25.8289C22.543 25.8289 23.479 25.703 24.3215 25.4513C24.3839 25.4198 24.4775 25.4198 24.5711 25.4198C24.7271 25.4198 24.8831 25.4827 25.0079 25.5457L26.8488 26.6156C26.9112 26.6471 26.9424 26.6785 27.0048 26.6785C27.1608 26.6785 27.2856 26.5527 27.2856 26.3953C27.2856 26.3324 27.2544 26.2694 27.2544 26.175C27.2544 26.1436 27.0048 25.2939 26.88 24.759C26.8488 24.696 26.8488 24.6331 26.8488 24.5702C26.8488 24.3814 26.9424 24.224 27.0984 24.0982C28.8769 22.808 30.0002 20.8884 30.0002 18.7486C30.0002 14.8465 26.2248 11.6683 21.5758 11.6683C16.9267 11.6683 13.1513 14.8151 13.1513 18.7486C13.1513 22.6506 16.9267 25.8289 21.5758 25.8289Z" fill="url(#paint1_linear_32294_24347)"/>
<path fill-rule="evenodd" clip-rule="evenodd" d="M10.0583 9.71039C10.0583 10.4389 9.48287 11.0156 8.75599 11.0156C8.02911 11.0156 7.45366 10.4389 7.45366 9.71039C7.45366 8.98188 8.02911 8.40515 8.75599 8.40515C9.48287 8.40515 10.0583 8.98188 10.0583 9.71039Z" fill="#168743"/>
<path fill-rule="evenodd" clip-rule="evenodd" d="M16.8141 9.71039C16.8141 10.4389 16.2387 11.0156 15.5118 11.0156C14.7849 11.0156 14.2095 10.4389 14.2095 9.71039C14.2095 8.98188 14.7849 8.40515 15.5118 8.40515C16.2387 8.40515 16.8141 8.98188 16.8141 9.71039Z" fill="#168743"/>
<path fill-rule="evenodd" clip-rule="evenodd" d="M23.3258 16.5629C23.3258 17.1974 23.8322 17.705 24.4653 17.705C25.0984 17.705 25.6048 17.1974 25.6048 16.5629C25.6048 15.9284 25.0984 15.4208 24.4653 15.4208C23.8322 15.4208 23.3258 15.9284 23.3258 16.5629Z" fill="#919191"/>
<path fill-rule="evenodd" clip-rule="evenodd" d="M17.7095 16.5629C17.7095 17.1974 18.2159 17.705 18.849 17.705C19.4821 17.705 19.9886 17.1974 19.9886 16.5629C19.9886 15.9284 19.4821 15.4208 18.849 15.4208C18.2159 15.4208 17.7095 15.9284 17.7095 16.5629Z" fill="#919191"/>
<defs>
<linearGradient id="paint0_linear_32294_24347" x1="29.1357" y1="25.3519" x2="29.1357" y2="4.099" gradientUnits="userSpaceOnUse">
<stop stop-color="#05CD66"/>
<stop offset="1" stop-color="#61F380"/>
<stop offset="1" stop-color="#9EEE69"/>
</linearGradient>
<linearGradient id="paint1_linear_32294_24347" x1="29.125" y1="25.2124" x2="29.125" y2="3.99182" gradientUnits="userSpaceOnUse">
<stop stop-color="#E4E6E6"/>
<stop offset="1" stop-color="#F0F0F0"/>
</linearGradient>
</defs>
</svg>
