<svg width="33" height="32" viewBox="0 0 33 32" fill="none" xmlns="http://www.w3.org/2000/svg">
<path d="M7.84677 18.835H18.8018V16.735H7.84677V18.835ZM7.84677 14.285H24.6468V12.185H7.84677V14.285ZM7.84677 9.73501H24.6468V7.63501H7.84677V9.73501ZM2.24677 30V4.1C2.24677 3.56334 2.45677 3.07917 2.87677 2.6475C3.29677 2.21583 3.78677 2 4.34677 2H28.1468C28.6835 2 29.1676 2.21583 29.5993 2.6475C30.031 3.07917 30.2468 3.56334 30.2468 4.1V22.3C30.2468 22.8367 30.031 23.3209 29.5993 23.7525C29.1676 24.1842 28.6835 24.4 28.1468 24.4H7.84677L2.24677 30Z" fill="#0F0F0F"/>
</svg>
