<svg width="32" height="32" viewBox="0 0 32 32" fill="none" xmlns="http://www.w3.org/2000/svg">
<path d="M23.6879 2H8.31243C4.82627 2 2.00018 4.82609 2.00018 8.31225V23.6877C2.00018 27.1739 4.82627 30 8.31243 30H23.6879C27.1741 30 30.0002 27.1739 30.0002 23.6877V8.31225C30.0002 4.82609 27.1741 2 23.6879 2Z" fill="#06C755"/>
<path d="M25.3329 14.6805C25.3329 10.5033 21.1452 7.10476 15.9976 7.10476C10.8499 7.10476 6.66219 10.5033 6.66219 14.6805C6.66219 18.4255 9.98719 21.5624 14.4689 22.1548C14.7734 22.2204 15.1873 22.3551 15.2914 22.615C15.3859 22.8513 15.3536 23.2214 15.3221 23.4594C15.3221 23.4594 15.2127 24.1183 15.1891 24.2583C15.1479 24.4945 15.0009 25.1814 15.9976 24.7623C16.9942 24.3431 21.3736 21.5965 23.3318 19.3416C24.6846 17.8585 25.3329 16.35 25.3329 14.6805Z" fill="white"/>
<path d="M22.2267 17.0929H19.6017C19.5553 17.0929 19.5108 17.0744 19.4779 17.0416C19.4451 17.0088 19.4267 16.9643 19.4267 16.9179V12.8448C19.4267 12.7983 19.4451 12.7538 19.4779 12.721C19.5108 12.6882 19.5553 12.6698 19.6017 12.6698H22.2267C22.2731 12.6698 22.3176 12.6882 22.3504 12.721C22.3832 12.7538 22.4017 12.7983 22.4017 12.8448V13.5071C22.4017 13.5535 22.3832 13.598 22.3504 13.6309C22.3176 13.6637 22.2731 13.6821 22.2267 13.6821H20.4443V14.369H22.2267C22.2731 14.369 22.3176 14.3874 22.3504 14.4203C22.3832 14.4531 22.4017 14.4976 22.4017 14.544V15.2125C22.4017 15.2589 22.3832 15.3034 22.3504 15.3362C22.3176 15.3691 22.2731 15.3875 22.2267 15.3875H20.4443V16.0752H22.2267C22.2731 16.0752 22.3176 16.0937 22.3504 16.1265C22.3832 16.1593 22.4017 16.2038 22.4017 16.2502V16.9117C22.4025 16.9352 22.3986 16.9587 22.3902 16.9806C22.3817 17.0025 22.369 17.0226 22.3526 17.0395C22.3363 17.0564 22.3167 17.0698 22.2951 17.079C22.2735 17.0882 22.2502 17.0929 22.2267 17.0929Z" fill="#06C755"/>
<path d="M12.5256 17.0929C12.572 17.0929 12.6165 17.0744 12.6493 17.0416C12.6821 17.0088 12.7006 16.9643 12.7006 16.9179V16.2564C12.7006 16.21 12.6821 16.1654 12.6493 16.1326C12.6165 16.0998 12.572 16.0814 12.5256 16.0814H10.7432V12.8439C10.7432 12.7975 10.7247 12.7529 10.6919 12.7201C10.6591 12.6873 10.6146 12.6689 10.5682 12.6689H9.90318C9.85677 12.6689 9.81226 12.6873 9.77944 12.7201C9.74662 12.7529 9.72818 12.7975 9.72818 12.8439V16.9152C9.72818 16.9617 9.74662 17.0062 9.77944 17.039C9.81226 17.0718 9.85677 17.0902 9.90318 17.0902H12.5282L12.5256 17.0929Z" fill="#06C755"/>
<path d="M14.1041 12.6619H13.4426C13.344 12.6619 13.2641 12.7418 13.2641 12.8404V16.9144C13.2641 17.013 13.344 17.0929 13.4426 17.0929H14.1041C14.2026 17.0929 14.2826 17.013 14.2826 16.9144V12.8404C14.2826 12.7418 14.2026 12.6619 14.1041 12.6619Z" fill="#06C755"/>
<path d="M18.6112 12.6619H17.9497C17.9033 12.6619 17.8588 12.6803 17.8259 12.7131C17.7931 12.7459 17.7747 12.7905 17.7747 12.8369V15.2571L15.9109 12.7397C15.9067 12.7331 15.9017 12.7269 15.8961 12.7214L15.8856 12.7109L15.8759 12.703H15.8707L15.8611 12.696H15.8558L15.8462 12.6907H15.1051C15.0587 12.6907 15.0141 12.7092 14.9813 12.742C14.9485 12.7748 14.9301 12.8193 14.9301 12.8657V16.9397C14.9301 16.9862 14.9485 17.0307 14.9813 17.0635C15.0141 17.0963 15.0587 17.1147 15.1051 17.1147H15.7674C15.8139 17.1147 15.8584 17.0963 15.8912 17.0635C15.924 17.0307 15.9424 16.9862 15.9424 16.9397V14.4959L17.8088 17.0159C17.821 17.0337 17.8365 17.0491 17.8543 17.0614L17.8648 17.0684H17.8701L17.8788 17.0727H17.9059C17.9214 17.0766 17.9373 17.0786 17.9532 17.0789H18.6112C18.6576 17.0789 18.7021 17.0604 18.7349 17.0276C18.7678 16.9948 18.7862 16.9503 18.7862 16.9039V12.8404C18.7867 12.8171 18.7825 12.794 18.7739 12.7723C18.7653 12.7507 18.7525 12.731 18.7362 12.7144C18.7199 12.6977 18.7004 12.6845 18.679 12.6755C18.6575 12.6665 18.6345 12.6619 18.6112 12.6619Z" fill="#06C755"/>
</svg>
