<svg width="31" height="32" viewBox="0 0 31 32" fill="none" xmlns="http://www.w3.org/2000/svg">
<path d="M24.2911 6.03599C23.6623 5.43982 21.1209 3.54441 15.4603 3.51866C15.4603 3.51866 8.78501 3.10509 5.5309 6.17177C3.71948 8.03324 3.08225 10.757 3.01504 14.1339C2.94782 17.5107 2.86086 23.8392 8.7983 25.5551H8.804L8.8002 28.1735C8.8002 28.1735 8.76223 29.2336 9.44161 29.4497C10.1275 29.6685 10.5768 29.1436 11.1628 28.4591C11.2789 28.3234 11.4005 28.1813 11.5303 28.0377C11.9609 27.5609 12.5556 26.8606 13.0037 26.3253C17.0644 26.6764 20.1875 25.8739 20.5422 25.7553C20.6154 25.7309 20.7191 25.7038 20.8477 25.6702C22.1596 25.3275 26.0689 24.3062 26.7561 18.5435C27.535 12.0211 26.3794 7.89551 24.2911 6.03599ZM24.9792 18.0757C24.4058 22.8331 21.2979 23.5761 20.1781 23.8438C20.0544 23.8733 19.9546 23.8972 19.8856 23.9199C19.5905 24.0175 16.8476 24.7186 13.3983 24.4872C13.3983 24.4872 10.8281 27.6729 10.0253 28.5012C9.89997 28.6308 9.75262 28.683 9.65427 28.6573C9.51604 28.6226 9.47806 28.4544 9.47958 28.2086C9.48186 27.8575 9.50161 23.8575 9.50161 23.8575C4.64496 22.4722 4.75823 17.3903 4.82252 14.5059C4.82472 14.4074 4.82686 14.3113 4.82874 14.2181C4.8857 11.3977 5.40141 9.08707 6.93333 7.53305C9.68579 4.97163 15.3559 5.35438 15.3559 5.35438C20.1442 5.37584 22.4387 6.85729 22.9707 7.35357C24.7373 8.90759 25.6374 12.6263 24.9792 18.0741V18.0757ZM17.7908 14.3151C17.7087 14.3151 17.6298 14.2827 17.5704 14.2246C17.5109 14.1665 17.4755 14.0871 17.4714 14.003C17.4171 12.8867 16.9052 12.3401 15.8605 12.2823C15.7773 12.2755 15.6999 12.2356 15.6449 12.171C15.59 12.1064 15.5617 12.0224 15.5662 11.9367C15.5707 11.851 15.6076 11.7706 15.6691 11.7125C15.7305 11.6544 15.8116 11.6232 15.8951 11.6257C17.2736 11.7037 18.0399 12.5125 18.1105 13.9702C18.1126 14.0133 18.1064 14.0565 18.0923 14.0972C18.0782 14.1378 18.0564 14.1753 18.0282 14.2073C18 14.2393 17.9659 14.2653 17.9279 14.2838C17.8899 14.3023 17.8487 14.3129 17.8067 14.3151H17.7908ZM19.4255 14.8815H19.4331C19.5169 14.8813 19.5972 14.8474 19.657 14.7871C19.7168 14.7268 19.7512 14.6449 19.7529 14.5588C19.781 13.2748 19.3986 12.1816 18.6295 11.3173C17.8605 10.4531 16.779 9.96266 15.4146 9.86004C15.3298 9.85368 15.246 9.88219 15.1816 9.9393C15.1173 9.99641 15.0776 10.0774 15.0714 10.1646C15.0653 10.2517 15.093 10.3378 15.1486 10.4039C15.2042 10.47 15.283 10.5108 15.3678 10.5171C16.5804 10.6084 17.4899 11.0142 18.1575 11.7625C18.8251 12.5109 19.1377 13.4211 19.113 14.5452C19.111 14.6323 19.1429 14.7167 19.2015 14.7798C19.2601 14.8429 19.3407 14.8794 19.4255 14.8815ZM21.1145 15.5561C21.03 15.556 20.949 15.5217 20.889 15.4605C20.8291 15.3993 20.7951 15.3164 20.7944 15.2296C20.7795 13.219 20.216 11.6834 19.0714 10.5355C17.9405 9.40399 16.5119 8.82343 14.8246 8.81094C14.7826 8.81079 14.741 8.80213 14.7022 8.78546C14.6634 8.76879 14.6282 8.74443 14.5986 8.71378C14.5388 8.65188 14.5053 8.5681 14.5056 8.48087C14.5059 8.39363 14.54 8.3101 14.6002 8.24863C14.6605 8.18717 14.742 8.15282 14.8269 8.15313H14.8296C16.6873 8.16717 18.2648 8.81016 19.5184 10.0649C20.7719 11.3197 21.4183 13.0591 21.435 15.2257C21.4356 15.3128 21.4025 15.3967 21.343 15.4588C21.2835 15.5209 21.2024 15.5562 21.1175 15.5569L21.1145 15.5561ZM16.6332 18.1242C16.391 18.4308 15.941 18.3918 15.941 18.3918C12.6519 17.5292 11.7716 14.1063 11.7716 14.1063C11.7716 14.1063 11.7321 13.6439 12.0322 13.395L12.6265 12.9096C12.9212 12.6763 13.1091 12.1102 12.8091 11.5573C12.579 11.1423 12.3288 10.7395 12.0595 10.3502C11.7978 9.98299 11.1883 9.23115 11.1861 9.22881C10.8921 8.87259 10.46 8.78987 10.0043 9.03372L9.99916 9.03496L9.99475 9.03606C9.54151 9.30437 9.13283 9.64523 8.7841 10.0458C8.78291 10.0483 8.78053 10.0506 8.78053 10.0506C8.78053 10.0506 8.77835 10.0527 8.77726 10.0548C8.49574 10.4039 8.3346 10.7461 8.29384 11.0813C8.28537 11.1308 8.28244 11.181 8.2851 11.2312C8.28359 11.3792 8.30552 11.5265 8.35004 11.6674L8.36561 11.6783C8.50764 12.1964 8.86309 13.0595 9.63551 14.4984C10.0773 15.3307 10.5869 16.1231 11.1587 16.8671C11.4452 17.24 11.7523 17.5958 12.0785 17.9326C12.0824 17.9367 12.0863 17.9407 12.0902 17.9447C12.0979 17.9528 12.1056 17.9607 12.1134 17.9685L12.2182 18.0762C12.5461 18.4113 12.8923 18.7268 13.2553 19.0212C13.9796 19.6088 14.751 20.1323 15.5612 20.5861C16.9614 21.3797 17.8021 21.7449 18.3057 21.8908L18.3163 21.9068C18.4534 21.9527 18.5968 21.9754 18.7409 21.9739C18.7897 21.9764 18.8386 21.9732 18.8867 21.9646C19.2135 21.9248 19.5463 21.7595 19.8851 21.4687C19.8871 21.4675 19.8892 21.4653 19.8892 21.4653C19.8892 21.4653 19.8914 21.4629 19.8938 21.4616C20.2837 21.1033 20.6156 20.6834 20.877 20.2178L20.8779 20.2133L20.8789 20.208C21.1162 19.7398 21.0357 19.2958 20.6871 18.9935C20.6871 18.9935 20.6582 18.9694 20.6101 18.9286C20.4125 18.7614 19.883 18.3132 19.5957 18.0961C19.2172 17.8194 18.8254 17.5624 18.4219 17.3259C17.8834 17.0177 17.3335 17.2108 17.1057 17.5136L16.6332 18.1242Z" fill="#0F0F0F"/>
</svg>
