<svg width="32" height="32" viewBox="0 0 32 32" fill="none" xmlns="http://www.w3.org/2000/svg">
<path d="M6.00018 16.0601H2.00018C2.00018 23.7901 8.27018 30.0601 16.0002 30.0601C23.7302 30.0601 30.0002 23.7901 30.0002 16.0601H26.0002C26.0002 18.8215 23.7616 21.0601 21.0002 21.0601H11.0002C8.23875 21.0601 6.00018 18.8215 6.00018 16.0601Z" fill="#64B4FA"/>
<path d="M26.0002 16.0601H30.0002C30.0002 8.33006 23.7302 2.06006 16.0002 2.06006V11.0601H21.0002C23.7616 11.0601 26.0002 13.2986 26.0002 16.0601Z" fill="#0353A8"/>
<path d="M16.0002 11.0601V2.06006C8.27018 2.06006 2.00018 8.33006 2.00018 16.0601H6.00018C6.00018 13.2986 8.23875 11.0601 11.0002 11.0601H16.0002Z" fill="#0353A8"/>
<path d="M21.0002 18.0601C22.1047 18.0601 23.0002 17.1646 23.0002 16.0601C23.0002 14.9555 22.1047 14.0601 21.0002 14.0601C19.8956 14.0601 19.0002 14.9555 19.0002 16.0601C19.0002 17.1646 19.8956 18.0601 21.0002 18.0601Z" fill="#0353A8"/>
<path d="M11.0002 18.0601C12.1047 18.0601 13.0002 17.1646 13.0002 16.0601C13.0002 14.9555 12.1047 14.0601 11.0002 14.0601C9.89561 14.0601 9.00018 14.9555 9.00018 16.0601C9.00018 17.1646 9.89561 18.0601 11.0002 18.0601Z" fill="#0353A8"/>
</svg>
