<svg width="32" height="32" viewBox="0 0 32 32" fill="none" xmlns="http://www.w3.org/2000/svg">
<path d="M23 3.25H7C4.38 3.25 2.25 5.38 2.25 8V18C2.25 20.62 4.38 22.75 7 22.75H15C15.41 22.75 15.75 22.41 15.75 22C15.75 21.59 15.41 21.25 15 21.25H7C5.21 21.25 3.75 19.79 3.75 18V8C3.75 6.21 5.21 4.75 7 4.75H23C24.79 4.75 26.25 6.21 26.25 8V16C26.25 16.41 26.59 16.75 27 16.75C27.41 16.75 27.75 16.41 27.75 16V8C27.75 5.38 25.62 3.25 23 3.25Z" fill="#0F0F0F"/>
<path d="M19 9.25H9C8.59 9.25 8.25 9.59 8.25 10C8.25 10.41 8.59 10.75 9 10.75H19C19.41 10.75 19.75 10.41 19.75 10C19.75 9.59 19.41 9.25 19 9.25Z" fill="#0F0F0F"/>
<path d="M8.25 14C8.25 13.59 8.59 13.25 9 13.25H13C13.41 13.25 13.75 13.59 13.75 14C13.75 14.41 13.41 14.75 13 14.75H9C8.59 14.75 8.25 14.41 8.25 14Z" fill="#0F0F0F"/>
</svg>
