<svg width="32" height="32" viewBox="0 0 32 32" fill="none" xmlns="http://www.w3.org/2000/svg">
<path d="M21 22.3L24.65 18.65H24.63C24.83 18.45 25.14 18.45 25.34 18.65C25.54 18.85 25.54 19.16 25.34 19.36L21.34 23.36C21.25 23.46 21.11 23.51 20.99 23.51C20.87 23.51 20.74 23.46 20.64 23.36L18.64 21.36C18.44 21.16 18.44 20.85 18.64 20.65C18.84 20.45 19.15 20.45 19.35 20.65L21 22.3Z" fill="#0353A8"/>
<path d="M14.5 21C14.5 16.86 17.86 13.5 22 13.5C26.14 13.5 29.5 16.86 29.5 21C29.5 25.14 26.14 28.5 22 28.5C17.86 28.5 14.5 25.14 14.5 21ZM15.5 21C15.5 24.58 18.42 27.5 22 27.5C25.58 27.5 28.5 24.58 28.5 21C28.5 17.42 25.58 14.5 22 14.5C18.42 14.5 15.5 17.42 15.5 21Z" fill="#0353A8"/>
</svg>
