<svg width="32" height="32" viewBox="0 0 32 32" fill="none" xmlns="http://www.w3.org/2000/svg">
<path d="M23 3.00012H7C4.2432 3.00012 2 5.24332 2 8.00012V18.0001C2 20.7569 4.2432 23.0001 7 23.0001H15C15.5527 23.0001 16 22.5528 16 22.0001C16 21.4474 15.5527 21.0001 15 21.0001H7C5.3457 21.0001 4 19.6544 4 18.0001V8.00012C4 6.34582 5.3457 5.00012 7 5.00012H23C24.6543 5.00012 26 6.34582 26 8.00012V16.0001C26 16.5528 26.4473 17.0001 27 17.0001C27.5527 17.0001 28 16.5528 28 16.0001V8.00012C28 5.24322 25.7568 3.00012 23 3.00012Z" fill="#0F0F0F"/>
<path d="M19 9.00012H9C8.4473 9.00012 8 9.44742 8 10.0001C8 10.5528 8.4473 11.0001 9 11.0001H19C19.5527 11.0001 20 10.5528 20 10.0001C20 9.44742 19.5527 9.00012 19 9.00012Z" fill="#0F0F0F"/>
<path d="M8 14.0001C8 13.4474 8.4473 13.0001 9 13.0001H13C13.5527 13.0001 14 13.4474 14 14.0001C14 14.5528 13.5527 15.0001 13 15.0001H9C8.4473 15.0001 8 14.5528 8 14.0001Z" fill="#0F0F0F"/>
</svg>
