<svg width="32" height="32" viewBox="0 0 32 32" fill="none" xmlns="http://www.w3.org/2000/svg">
<path d="M23 3.25H7C4.3809 3.25 2.25 5.3809 2.25 8V18C2.25 20.6191 4.3809 22.75 7 22.75H15C15.4141 22.75 15.75 22.4141 15.75 22C15.75 21.5859 15.4141 21.25 15 21.25H7C5.208 21.25 3.75 19.792 3.75 18V8C3.75 6.208 5.208 4.75 7 4.75H23C24.792 4.75 26.25 6.208 26.25 8V16C26.25 16.4141 26.5859 16.75 27 16.75C27.4141 16.75 27.75 16.4141 27.75 16V8C27.75 5.3809 25.6191 3.25 23 3.25Z" fill="#0F0F0F"/>
<path d="M19 9.25H9C8.5859 9.25 8.25 9.5859 8.25 10C8.25 10.4141 8.5859 10.75 9 10.75H19C19.4141 10.75 19.75 10.4141 19.75 10C19.75 9.5859 19.4141 9.25 19 9.25Z" fill="#0F0F0F"/>
<path d="M8.25 14C8.25 13.5859 8.5859 13.25 9 13.25H13C13.4141 13.25 13.75 13.5859 13.75 14C13.75 14.4141 13.4141 14.75 13 14.75H9C8.5859 14.75 8.25 14.4141 8.25 14Z" fill="#0F0F0F"/>
</svg>
