<svg width="32" height="32" viewBox="0 0 32 32" fill="none" xmlns="http://www.w3.org/2000/svg">
<path d="M21 21.9399L24.47 18.4699C24.76 18.1799 25.24 18.1799 25.53 18.4699C25.82 18.7599 25.82 19.2399 25.53 19.5299L21.53 23.5299C21.38 23.6799 21.19 23.7499 21 23.7499C20.81 23.7499 20.62 23.6799 20.47 23.5299L18.47 21.5299C18.18 21.2399 18.18 20.7599 18.47 20.4699C18.76 20.1799 19.24 20.1799 19.53 20.4699L21 21.9399Z" fill="#0353A8"/>
<path d="M14.25 21C14.25 16.73 17.73 13.25 22 13.25C26.27 13.25 29.75 16.73 29.75 21C29.75 25.27 26.27 28.75 22 28.75C17.73 28.75 14.25 25.27 14.25 21ZM15.75 21C15.75 24.45 18.55 27.25 22 27.25C25.45 27.25 28.25 24.45 28.25 21C28.25 17.55 25.45 14.75 22 14.75C18.55 14.75 15.75 17.55 15.75 21Z" fill="#0353A8"/>
</svg>
