<svg width="32" height="32" viewBox="0 0 32 32" fill="none" xmlns="http://www.w3.org/2000/svg">
<path d="M27.9995 11.4997H27.4995V9.99973C27.4995 9.33668 27.2361 8.7008 26.7673 8.23196C26.2984 7.76312 25.6626 7.49973 24.9995 7.49973C24.3365 7.49973 23.7006 7.76312 23.2317 8.23196C22.7629 8.7008 22.4995 9.33668 22.4995 9.99973V11.4997H21.9995C21.6018 11.5002 21.2205 11.6583 20.9393 11.9395C20.6581 12.2208 20.4999 12.602 20.4995 12.9997V16.9997C20.4999 17.3974 20.6581 17.7787 20.9393 18.0599C21.2205 18.3411 21.6018 18.4993 21.9995 18.4997H27.9995C28.3972 18.4993 28.7785 18.3411 29.0597 18.0599C29.3409 17.7787 29.4991 17.3974 29.4995 16.9997V12.9997C29.4991 12.602 29.3409 12.2208 29.0597 11.9395C28.7785 11.6583 28.3972 11.5002 27.9995 11.4997ZM23.4995 9.99973C23.4995 9.6019 23.6575 9.22037 23.9389 8.93906C24.2202 8.65776 24.6017 8.49973 24.9995 8.49973C25.3973 8.49973 25.7789 8.65776 26.0602 8.93906C26.3415 9.22037 26.4995 9.6019 26.4995 9.99973V11.4997H23.4995V9.99973ZM28.4995 16.9997C28.4992 17.1323 28.4465 17.2593 28.3528 17.353C28.2591 17.4467 28.132 17.4995 27.9995 17.4997H21.9995C21.867 17.4995 21.74 17.4467 21.6463 17.353C21.5525 17.2593 21.4998 17.1323 21.4995 16.9997V12.9997C21.4998 12.8672 21.5525 12.7402 21.6463 12.6465C21.74 12.5528 21.867 12.5 21.9995 12.4997H27.9995C28.132 12.5 28.2591 12.5528 28.3528 12.6465C28.4465 12.7402 28.4992 12.8672 28.4995 12.9997V16.9997Z" fill="black" fill-opacity="0.95"/>
</svg>
