<svg width="32" height="32" viewBox="0 0 32 32" fill="none" xmlns="http://www.w3.org/2000/svg">
<path d="M16.0005 20.5002C15.1105 20.5002 14.2404 20.2363 13.5004 19.7419C12.7604 19.2474 12.1836 18.5446 11.843 17.7223C11.5024 16.9001 11.4133 15.9953 11.587 15.1223C11.7606 14.2494 12.1892 13.4476 12.8185 12.8183C13.4478 12.1889 14.2497 11.7603 15.1226 11.5867C15.9955 11.4131 16.9003 11.5022 17.7226 11.8428C18.5448 12.1834 19.2476 12.7602 19.7421 13.5002C20.2366 14.2402 20.5005 15.1102 20.5005 16.0002C20.4992 17.1933 20.0247 18.3372 19.181 19.1808C18.3374 20.0244 17.1936 20.4989 16.0005 20.5002Z" fill="#DB1F2E"/>
</svg>
