<svg width="32" height="32" viewBox="0 0 32 32" fill="none" xmlns="http://www.w3.org/2000/svg">
<path d="M16.0001 6.25977C20.6739 6.25977 25.1648 8.07608 28.5246 11.3252C28.6646 11.4647 28.7439 11.6539 28.7452 11.8516C28.7464 12.0493 28.6696 12.2395 28.5313 12.3809C28.3931 12.5222 28.2046 12.6032 28.0069 12.6063C27.8092 12.6094 27.6183 12.5344 27.4757 12.3974C24.3972 9.42076 20.2824 7.75679 16.0001 7.75679C11.7178 7.75679 7.60311 9.42076 4.52455 12.3974C4.38186 12.5339 4.1911 12.6086 3.99366 12.6054C3.79622 12.6021 3.60804 12.5211 3.46996 12.3799C3.33187 12.2388 3.25503 12.0488 3.25611 11.8514C3.25719 11.6539 3.33611 11.4648 3.47572 11.3252C6.83544 8.07608 11.3263 6.25977 16.0001 6.25977Z" fill="#0F0F0F"/>
<path d="M7.36803 15.9213C7.40758 15.8304 7.46475 15.7483 7.53621 15.6797C9.80707 13.4847 12.8418 12.2578 16.0001 12.2578C19.1584 12.2578 22.1931 13.4847 24.464 15.6797C24.6044 15.8192 24.684 16.0085 24.6855 16.2064C24.6869 16.4043 24.61 16.5948 24.4716 16.7363C24.3332 16.8778 24.1445 16.9588 23.9466 16.9618C23.7487 16.9647 23.5577 16.8893 23.4151 16.752C21.4259 14.8286 18.7671 13.7534 16.0001 13.7534C13.2331 13.7534 10.5743 14.8286 8.58504 16.752C8.51486 16.8219 8.43151 16.8772 8.33983 16.9148C8.24814 16.9523 8.14992 16.9713 8.05085 16.9707C7.95177 16.97 7.85381 16.9498 7.76261 16.9111C7.67141 16.8724 7.58878 16.816 7.51951 16.7451C7.45023 16.6743 7.39567 16.5905 7.35898 16.4984C7.32229 16.4064 7.3042 16.308 7.30576 16.2089C7.30731 16.1099 7.32847 16.0121 7.36803 15.9213Z" fill="#0F0F0F"/>
</svg>
