<svg width="120" height="120" viewBox="0 0 120 120" fill="none" xmlns="http://www.w3.org/2000/svg">
<path d="M68.6445 91.2002C64.6445 99.2002 54.6445 102.2 49.6445 97.2002C44.6445 92.2002 46.3445 83.4002 51.6445 77.2002C51.6445 77.2002 44.6445 80.2002 37.6445 80.2002C23.6445 80.2002 11.6445 72.2002 11.6445 58.2002C11.6445 50.2002 17.6445 44.2002 27.6445 44.2002C55.6445 44.2002 53.6445 87.2002 81.6445 87.2002C91.5445 87.2002 99.6445 81.2002 99.6445 73.7002C99.6445 66.2002 91.5445 60.2002 81.6445 60.2002C67.6445 60.2002 66.6445 70.2002 71.6445 70.2002C77.6445 70.2002 87.6445 60.2002 87.6445 40.2002C87.6445 26.9002 79.5445 16.2002 69.6445 16.2002C59.7445 16.2002 51.6445 26.9002 51.6445 40.2002C51.6445 47.2002 53.6445 52.2002 53.6445 52.2002" stroke="white" stroke-width="2.5" stroke-miterlimit="10" stroke-linecap="round" stroke-linejoin="round"/>
</svg>
