<svg width="120" height="120" viewBox="0 0 120 120" fill="none" xmlns="http://www.w3.org/2000/svg">
<path d="M83.8661 89.6001C88.0661 93.8001 88.0661 100.5 83.8661 104.7L80.4661 108C78.4661 110 75.6661 111.2 72.8661 111.1C55.3661 110.7 37.9661 103.8 24.5661 90.5001C10.6661 76.6001 3.86605 58.5001 3.96605 40.3001C3.96605 37.5001 5.06605 34.7001 7.06605 32.7001L9.56605 30.2001C13.7661 26.0001 20.4661 26.0001 24.6661 30.2001L32.1661 37.7001C36.3661 41.9001 36.3661 48.6001 32.1661 52.8001L27.8661 57.1001C25.5661 59.4001 24.8661 62.7001 25.8661 65.7001C27.7661 70.9001 30.7661 75.9001 34.9661 80.1001C38.6661 83.8001 42.9661 86.6001 47.5661 88.5001C50.6661 89.8001 54.2661 89.1001 56.5661 86.7001L61.2661 82.0001C65.4661 77.8001 72.9661 78.1001 75.9661 81.1001C78.9661 84.1001 75.9661 89.1001 70.9661 89.1001C50.9661 89.1001 31.9661 31.1001 55.9661 19.1001C71.9661 11.1001 87.9661 31.1001 87.9661 31.1001M95.9661 39.1001C105.466 48.6001 115.966 51.1001 115.966 51.1001M90.9661 40.1001V48.1001M86.9661 36.1001H78.9661M92.9661 30.1001V22.1001M96.9661 34.1001H104.966" stroke="#0F0F0F" stroke-width="2.5" stroke-miterlimit="10" stroke-linecap="round" stroke-linejoin="round"/>
</svg>
