<svg width="120" height="120" viewBox="0 0 120 120" fill="none" xmlns="http://www.w3.org/2000/svg">
<path d="M83.866 89.6001C88.066 93.8001 88.066 100.5 83.866 104.7L80.466 108C78.466 110 75.666 111.2 72.866 111.1C55.366 110.7 37.966 103.8 24.566 90.5001C10.666 76.6001 3.86602 58.5001 3.96602 40.3001C3.96602 37.5001 5.06602 34.7001 7.06602 32.7001L9.56602 30.2001C13.766 26.0001 20.466 26.0001 24.666 30.2001L32.166 37.7001C36.366 41.9001 36.366 48.6001 32.166 52.8001L27.866 57.1001C25.566 59.4001 24.866 62.7001 25.866 65.7001C27.766 70.9001 30.766 75.9001 34.966 80.1001C38.666 83.8001 42.966 86.6001 47.566 88.5001C50.666 89.8001 54.266 89.1001 56.566 86.7001L61.266 82.0001C65.466 77.8001 72.966 78.1001 75.966 81.1001C78.966 84.1001 75.966 89.1001 70.966 89.1001C50.966 89.1001 31.966 31.1001 55.966 19.1001C71.966 11.1001 87.966 31.1001 87.966 31.1001M95.966 39.1001C105.466 48.6001 115.966 51.1001 115.966 51.1001M90.966 40.1001V48.1001M86.966 36.1001H78.966M92.966 30.1001V22.1001M96.966 34.1001H104.966" stroke="white" stroke-width="2.5" stroke-miterlimit="10" stroke-linecap="round" stroke-linejoin="round"/>
</svg>
