<svg width="120" height="120" viewBox="0 0 120 120" fill="none" xmlns="http://www.w3.org/2000/svg">
<path d="M80.7441 104.4V85.3998C80.7441 70.3998 96.7441 66.3998 96.7441 52.3998C96.7441 46.3998 92.7441 40.0998 88.7441 34.0998L76.6441 16.1998C75.7441 14.8998 73.8441 14.9998 73.1441 16.3998L68.6441 25.2998H59.6441L50.1441 15.7998C49.0441 14.6998 47.1441 15.1998 46.8441 16.6998L37.7441 52.2998C34.7441 64.2998 31.7441 74.2998 22.7441 84.2998" stroke="white" stroke-width="2.5" stroke-miterlimit="10" stroke-linecap="round" stroke-linejoin="round"/>
<path d="M78.6445 46.4004C79.7491 46.4004 80.6445 45.505 80.6445 44.4004C80.6445 43.2958 79.7491 42.4004 78.6445 42.4004C77.54 42.4004 76.6445 43.2958 76.6445 44.4004C76.6445 45.505 77.54 46.4004 78.6445 46.4004Z" fill="white"/>
<path d="M60.6445 46.4004C61.7491 46.4004 62.6445 45.505 62.6445 44.4004C62.6445 43.2958 61.7491 42.4004 60.6445 42.4004C59.54 42.4004 58.6445 43.2958 58.6445 44.4004C58.6445 45.505 59.54 46.4004 60.6445 46.4004Z" fill="white"/>
</svg>
