<svg width="120" height="120" viewBox="0 0 120 120" fill="none" xmlns="http://www.w3.org/2000/svg">
<path d="M49.1998 84.2H28.6998C17.8998 84.2 8.59981 75.8 8.29981 65C7.89981 53.6 16.9998 44.3 28.2998 44.3C29.9998 44.3 31.5998 44.5 33.1998 44.9C36.4998 30.8 49.1998 20.3 64.2998 20.3C81.9998 20.3 96.2998 34.6 96.2998 52.3C105.4 52.3 112.7 59.9 112.3 69.1C111.9 77.7 104.5 84.3 95.8998 84.3H70.3998C69.2998 84.3 68.3998 85.2 68.3998 86.3V98.3C68.3998 101.6 65.6998 104.3 62.3998 104.3C59.0998 104.3 56.3998 101.6 56.3998 98.3V52.3M44.1998 64.2001L56.1998 52.2001L68.1998 64.2001M96.1998 52.2001C84.1998 52.2001 80.1998 60.2001 84.1998 64.2001C88.1998 68.2001 96.1998 64.2001 96.1998 52.2001Z" stroke="white" stroke-width="2.5" stroke-miterlimit="10" stroke-linecap="round" stroke-linejoin="round"/>
</svg>
