<svg width="121" height="120" viewBox="0 0 121 120" fill="none" xmlns="http://www.w3.org/2000/svg">
<path d="M45.1445 40.2002C49.0445 41.5002 54.3445 42.2002 60.1445 42.2002C72.3445 42.2002 82.1445 38.6002 82.1445 34.2002C82.1445 29.8002 72.3445 26.2002 60.1445 26.2002C47.9445 26.2002 38.1445 29.8002 38.1445 34.2002M31.1445 62.7002C23.1445 65.6002 18.1445 69.7002 18.1445 74.3002C18.1445 83.1002 36.9445 90.3002 60.1445 90.3002C83.3445 90.3002 102.145 83.1002 102.145 74.3002C102.145 69.3002 96.1445 64.3002 90.1445 64.3002C87.9445 64.3002 86.1445 65.6002 86.1445 67.3002C86.1445 69.0002 87.9445 70.3002 90.1445 70.3002C96.7445 70.3002 102.145 64.9002 102.145 58.3002C102.145 51.7002 96.7445 46.3002 90.1445 46.3002H86.1445C83.9445 46.3002 82.1445 48.1002 82.1445 50.3002V58.3002C82.1445 70.5002 72.3445 80.3002 60.1445 80.3002C47.9445 80.3002 38.1445 70.5002 38.1445 58.3002V34.3002" stroke="white" stroke-width="2.5" stroke-miterlimit="10" stroke-linecap="round" stroke-linejoin="round"/>
</svg>
