<svg width="121" height="120" viewBox="0 0 121 120" fill="none" xmlns="http://www.w3.org/2000/svg">
<path d="M48.1445 98.2002L60.8445 72.8002C62.8445 68.8002 67.0445 66.2002 71.5445 66.2002H80.1445C95.6445 66.2002 108.145 53.7002 108.145 38.2002C108.145 36.0002 106.345 34.2002 104.145 34.2002H85.1445C84.6445 34.2002 84.1445 33.8002 84.1445 33.3002C83.6445 27.1002 78.4445 22.2002 72.1445 22.2002H62.1445C61.0445 22.2002 60.1445 23.1002 60.1445 24.2002V46.2002C60.1445 51.7002 55.6445 56.2002 50.1445 56.2002C44.6445 56.2002 40.1445 51.7002 40.1445 46.2002V34.2002C40.1445 49.7002 27.6445 62.2002 12.1445 62.2002" stroke="white" stroke-width="2.5" stroke-miterlimit="10" stroke-linecap="round" stroke-linejoin="round"/>
<path d="M74.1445 38.2002C75.2491 38.2002 76.1445 37.3048 76.1445 36.2002C76.1445 35.0956 75.2491 34.2002 74.1445 34.2002C73.04 34.2002 72.1445 35.0956 72.1445 36.2002C72.1445 37.3048 73.04 38.2002 74.1445 38.2002Z" fill="white"/>
</svg>
