<svg width="320" height="320" viewBox="0 0 320 320" fill="none" xmlns="http://www.w3.org/2000/svg">
<path d="M256.234 143.683C256.234 169.428 235.364 190.298 209.619 190.298C183.874 190.298 163.004 169.428 163.004 143.683C163.004 117.938 183.874 97.0677 209.619 97.0677M117.027 153.047L120.511 163.469C122.253 168.679 120.511 170.416 117.027 170.416H111.801C107.882 170.416 104.572 173.022 103.44 176.583C103.004 178.059 101.611 179.101 100.13 179.101C96.0364 179.101 92.6397 175.801 92.6397 171.632V154.784C92.6397 149.052 87.9364 144.362 82.188 144.362H77.0493C76.0042 144.362 75.2203 143.494 75.3074 142.538C76.2655 127.774 88.8074 116.224 103.875 116.658C119.03 117.092 130.962 129.859 130.962 145.057V175.627C130.962 187.004 121.643 196.557 110.233 196.644C89.4171 196.731 71.9977 174.498 71.7364 158.779C71.6493 156 73.6526 153.481 76.4397 153.221C79.5751 152.873 82.188 155.305 82.188 158.431C82.188 158.431 82.188 182.749 82.188 193.17C82.188 203.592 78.7042 203.592 68.2526 207.066C57.8009 210.54 68.2526 207.066 57.8009 210.54C47.3493 214.014 36.2107 218.267 32.4815 229.455L29.8908 240.854C28.83 245.521 32.3775 249.965 37.1637 249.965H147.155M89.3521 205.545C89.3521 214.122 96.2564 221.14 104.695 221.14C111.855 221.14 117.736 216.201 119.526 209.573C120.166 207.234 122.084 205.545 124.513 205.545H140.751C151.107 205.545 160.569 210.743 166.322 219.451L180.802 242.533C184.254 247.861 191.67 248.771 196.273 244.353L223.251 226.338L224.785 218.281C225.425 215.162 227.47 212.433 230.283 211.003L241.918 205.025C244.092 203.855 246.905 205.025 247.672 207.494C248.183 209.313 247.544 211.393 245.882 212.433L237.188 218.411C237.188 218.411 239.039 227.82 234.078 233.829C232.281 236.005 230.102 237.934 228.797 240.436L223.251 250.899M34.9473 202.419V85.0408C34.9473 75.8109 42.4989 68.2593 51.7287 68.2593H273.617C282.847 68.2593 290.399 75.8109 290.399 85.0408V234.209C290.399 243.439 282.94 250.991 274.549 250.991H239.453M214.414 87.7446H213.348C211.289 87.7446 209.619 89.4143 209.619 91.4738V139.954C209.619 142.013 211.289 143.683 213.348 143.683H261.828C263.888 143.683 265.557 142.013 265.557 139.954V138.888C265.557 110.642 242.66 87.7446 214.414 87.7446Z" stroke="white" stroke-width="2.5" stroke-miterlimit="10" stroke-linecap="round" stroke-linejoin="round"/>
<path d="M105.201 157.667C106.746 157.667 107.998 156.415 107.998 154.87C107.998 153.325 106.746 152.073 105.201 152.073C103.657 152.073 102.404 153.325 102.404 154.87C102.404 156.415 103.657 157.667 105.201 157.667Z" fill="white"/>
</svg>
