<svg width="120" height="120" viewBox="0 0 120 120" fill="none" xmlns="http://www.w3.org/2000/svg">
<path d="M36.2002 104.2H86.2002C90.6002 104.2 94.2002 100.6 94.2002 96.2001V61.2001C94.2002 60.7001 93.8002 60.2001 93.2002 60.2001C81.0002 59.7001 71.4002 49.3001 72.2002 36.8001C73.0002 25.9001 81.9002 17.0001 92.8002 16.3001C105.6 15.5001 116.2 25.6001 116.2 38.3001C116.2 48.0001 109.9 56.4001 101.2 59.3001M69.2002 24.2001H12.2002C7.8002 24.2001 4.2002 27.8001 4.2002 32.2001V96.2001C4.2002 100.6 7.8002 104.2 12.2002 104.2H13.3002C15.0002 104.2 16.5002 103.1 17.1002 101.5L21.4002 88.4001C23.0002 83.5001 27.6002 80.2001 32.8002 80.2001H36.1002C38.3002 80.2001 40.1002 78.4001 40.1002 76.2001V56.4001C40.1002 54.8001 38.9002 53.3001 37.3002 53.2001C35.6002 53.1001 34.1002 54.5001 34.1002 56.2001C34.1002 60.2001 39.1002 72.2001 51.1002 72.2001C56.1002 72.2001 60.1002 68.2001 60.1002 63.2001V47.2001M60.2002 47.2001C60.2002 40.6001 54.8002 35.2001 48.2002 35.2001C42.4002 35.2001 37.5002 39.4001 36.4002 44.9001C36.2002 46.1001 37.1002 47.2001 38.4002 47.2001H68.2002M53.2002 52.2001C53.2002 52.2001 54.2002 55.2001 55.2002 58.2001C56.2002 61.2001 54.2002 61.2001 53.2002 61.2001H52.2002M80.2002 98.2001L77.0002 88.5001C75.4002 83.6001 70.8002 80.3001 65.6002 80.3001H57.2002M99.2002 40.7001L106.8 44.2001C107 44.3001 107.2 44.2001 107.2 44.0001V32.5001C107.2 32.3001 107 32.2001 106.8 32.3001L99.2002 35.8001M95.2002 47.2001H85.2002C83.0002 47.2001 81.2002 45.4001 81.2002 43.2001V33.2001C81.2002 31.0001 83.0002 29.2001 85.2002 29.2001H95.2002C97.4002 29.2001 99.2002 31.0001 99.2002 33.2001V43.2001C99.2002 45.5001 97.5002 47.2001 95.2002 47.2001Z" stroke="white" stroke-width="2.5" stroke-miterlimit="10" stroke-linecap="round" stroke-linejoin="round"/>
</svg>
