<svg width="192" height="192" viewBox="0 0 192 192" fill="none" xmlns="http://www.w3.org/2000/svg">
<path d="M83.3574 87.52C84.462 87.52 85.3574 86.6246 85.3574 85.52C85.3574 84.4154 84.462 83.52 83.3574 83.52C82.2529 83.52 81.3574 84.4154 81.3574 85.52C81.3574 86.6246 82.2529 87.52 83.3574 87.52Z" fill="#0F0F0F"/>
<path d="M103.235 82.3999C103.235 82.3999 107.635 95.9999 109.235 100.4C111.235 106.4 107.235 108.4 103.235 108.4H99.2349M51.2349 160.4V98.3999C51.2349 93.5999 47.2349 89.9999 42.2349 90.3999C37.8349 90.7999 34.8349 94.9999 35.2349 99.3999C36.4349 116 62.4349 144.8 93.8349 144.4C110.235 144.2 123.235 130.8 123.235 114.4V70.3999C123.235 48.3999 105.235 30.3999 83.2349 30.3999C62.6349 30.3999 45.6349 46.1999 43.4349 66.1999C43.2349 68.5999 45.0349 70.5999 47.4349 70.5999H155.235" stroke="#0F0F0F" stroke-width="2.5" stroke-miterlimit="10" stroke-linecap="round" stroke-linejoin="round"/>
</svg>
