<svg width="60" height="60" viewBox="0 0 60 60" fill="none" xmlns="http://www.w3.org/2000/svg">
<path d="M26.3482 54.7002V29.7002C26.3482 27.9002 24.7482 26.4002 22.8482 26.7002C21.4482 26.9002 20.3482 28.3002 20.3482 29.8002C20.4482 37.7002 27.2482 46.6002 38.0482 46.7002C43.6482 46.8002 48.3482 42.2002 48.3482 36.6002V32.7002M40.3482 28.7002H44.3482M27.3482 20.7002H46.3482C47.4482 20.7002 48.3482 19.8002 48.3482 18.7002C48.3482 12.1002 42.9482 6.7002 36.3482 6.7002H31.3482M20.4482 11.1002C18.9482 10.2002 17.2482 9.7002 15.4482 9.7002C9.94824 9.7002 5.44824 14.2002 5.44824 19.7002C5.44824 25.2002 9.94824 29.7002 15.4482 29.7002C15.9482 29.7002 16.3482 29.4002 16.3482 28.9002C16.2482 27.9002 15.4482 25.4002 15.4482 22.7002C15.4482 13.9002 22.6482 6.7002 31.4482 6.7002M39.0482 31.8002C39.8482 31.1002 40.4482 30.0002 40.4482 28.8002C40.4482 26.6002 38.6482 24.8002 36.4482 24.8002C34.2482 24.8002 32.4482 26.6002 32.4482 28.8002C32.4482 31.0002 34.2482 32.8002 36.4482 32.8002C37.4482 32.7002 38.3482 32.4002 39.0482 31.8002ZM45.3482 31.4002C46.0482 32.2002 47.1482 32.8002 48.3482 32.8002C50.5482 32.8002 52.3482 31.0002 52.3482 28.8002C52.3482 26.6002 50.5482 24.8002 48.3482 24.8002C46.1482 24.8002 44.3482 26.6002 44.3482 28.8002C44.3482 29.8002 44.7482 30.7002 45.3482 31.4002Z" stroke="white" stroke-width="2.5" stroke-miterlimit="10" stroke-linecap="round" stroke-linejoin="round"/>
</svg>
