<svg width="192" height="192" viewBox="0 0 192 192" fill="none" xmlns="http://www.w3.org/2000/svg">
<path d="M138.629 92.7998C138.629 92.7998 141.029 100.2 142.629 104.8C144.629 110.8 140.629 112.8 136.629 112.8H132.629M84.8294 164.8V102.8C84.8294 98.1998 80.8294 94.3998 76.0294 94.7998C71.8294 95.1998 68.6294 99.3998 68.8294 103.6C69.6294 119.8 95.6294 149 127.429 148.8C143.829 148.6 156.829 135.2 156.829 118.8V102.8M128.629 90.7998C128.629 97.4272 123.257 102.8 116.629 102.8C110.002 102.8 104.629 97.4272 104.629 90.7998C104.629 84.1724 110.002 78.7998 116.629 78.7998C123.257 78.7998 128.629 84.1724 128.629 90.7998ZM128.629 90.7998H138.629M138.629 90.7998C138.629 97.4272 144.002 102.8 150.629 102.8C157.257 102.8 162.629 97.4272 162.629 90.7998C162.629 84.1724 157.257 78.7998 150.629 78.7998C144.002 78.7998 138.629 84.1724 138.629 90.7998ZM92.6294 68.7998H152.629C154.829 68.7998 156.629 66.9998 156.629 64.7998C156.629 44.9998 140.429 28.7998 120.629 28.7998H100.629M68.8294 39.5998C64.2294 37.3998 58.8294 36.3998 53.2294 37.1998C40.6294 38.5998 30.4294 48.7998 29.0294 61.3998C27.2294 75.5998 36.2294 87.9998 48.8294 91.7998C51.8294 92.5998 54.4294 89.9998 53.8294 86.9998C53.0294 83.7998 52.8294 80.3998 52.8294 76.7998C52.8294 50.1998 74.2294 28.7998 100.829 28.7998" stroke="white" stroke-width="2.5" stroke-miterlimit="10" stroke-linecap="round" stroke-linejoin="round"/>
</svg>
