<svg width="121" height="120" viewBox="0 0 121 120" fill="none" xmlns="http://www.w3.org/2000/svg">
<path d="M67.3486 58.2002C68.4532 58.2002 69.3486 57.3048 69.3486 56.2002C69.3486 55.0956 68.4532 54.2002 67.3486 54.2002C66.2441 54.2002 65.3486 55.0956 65.3486 56.2002C65.3486 57.3048 66.2441 58.2002 67.3486 58.2002Z" fill="white"/>
<path d="M79.75 53.25C79.75 53.25 82.5 61.75 83.5 64.5C84.75 68.25 82.25 69.5 79.75 69.5H77.25M38.5 52C47.25 52 52.25 47 57.25 42C62.25 37 67.25 32 76 32C85 32 92.25 39.25 92.25 48.25V73.25C92.25 83.5 84.125 91.875 73.875 92C54.125 92.25 37.875 74 37.375 63.875C37.25 61.25 39.25 58.625 41.875 58.375C44.875 58.125 47.375 60.375 47.375 63.375V102.125M71 24.5C62.25 24.5 57.25 29.5 52.25 34.5C47.25 39.5 42.25 44.5 33.5 44.5M66 17C57.25 17 52.25 22 47.25 27C42.25 32 37.25 37 28.5 37" stroke="white" stroke-width="2.5" stroke-miterlimit="10" stroke-linecap="round" stroke-linejoin="round"/>
</svg>
