<svg width="60" height="60" viewBox="0 0 60 60" fill="none" xmlns="http://www.w3.org/2000/svg">
<path d="M27.8486 52.7V31.7C27.8486 29.8 26.2486 28.4 24.3486 28.7C22.8486 29 21.8486 30.3 21.8486 31.8C21.8486 39.7 28.7486 48.6 39.5486 48.7C45.2486 48.8 49.8486 44.2 49.8486 38.6V24.7C49.8486 20.3 46.2486 16.7 41.8486 16.7C34.8486 16.7 34.8486 24.7 27.8486 24.7M41.8486 27.7C41.8486 27.7 42.8486 30.7 43.8486 33.7C44.8486 36.7 42.8486 36.7 41.8486 36.7H40.8486M49.8486 12.7C49.8486 12.7 48.8486 8.70001 41.8486 8.70001H33.8486M8.84863 42.7C11.6486 42.7 13.8486 40.5 13.8486 37.7V28.7C13.8486 24.3 17.4486 20.7 21.8486 20.7M21.9486 20.7C21.9486 14.1 27.3486 8.70001 33.9486 8.70001" stroke="#0F0F0F" stroke-width="2.5" stroke-miterlimit="10" stroke-linecap="round" stroke-linejoin="round"/>
</svg>
