<svg width="192" height="192" viewBox="0 0 192 192" fill="none" xmlns="http://www.w3.org/2000/svg">
<path d="M110.8 106.4C111.905 106.4 112.8 105.504 112.8 104.4C112.8 103.295 111.905 102.4 110.8 102.4C109.695 102.4 108.8 103.295 108.8 104.4C108.8 105.504 109.695 106.4 110.8 106.4Z" fill="white"/>
<path d="M131.8 100.6C131.8 100.6 136.2 114.2 137.8 118.6C139.8 124.6 135.8 126.6 131.8 126.6H127.8M50 121.2C38.8 109.6 32 93.9998 32 76.7998C32 41.3998 60.6 12.7998 96 12.7998C131.4 12.7998 160 41.3998 160 76.7998M92 92.5998C92 78.1998 103.6 66.5998 118 66.5998H125.8C140.2 66.5998 151.8 78.1998 151.8 92.5998V132.6C151.8 149 138.8 162.4 122.4 162.6C90.8 163 64.8 133.8 63.8 117.4C63.6 113.2 66.8 109 71 108.6C75.8 108.2 79.8 111.8 79.8 116.6V178.6" stroke="white" stroke-width="2.5" stroke-miterlimit="10" stroke-linecap="round" stroke-linejoin="round"/>
</svg>
