<svg width="61" height="60" viewBox="0 0 61 60" fill="none" xmlns="http://www.w3.org/2000/svg">
<path d="M21.3486 53.7001V28.7001C21.3486 26.9001 19.7486 25.4001 17.8486 25.7001C16.4486 25.9001 15.3486 27.4001 15.3486 28.8001C15.4486 36.8001 22.3486 45.6001 33.1486 45.7001C38.7486 45.8001 43.4486 41.2001 43.4486 35.6001V21.1001C43.4486 14.3001 37.8486 8.10013 31.0486 7.70013C24.3486 7.50013 18.7486 12.1001 17.6486 18.4001C17.4486 19.6001 18.3486 20.8001 19.6486 20.8001H22.4486C24.6486 20.8001 26.4486 22.6001 26.4486 24.8001V35.4001C26.4486 36.3001 27.5486 36.7001 28.1486 36.1001C29.6486 34.6001 31.6486 33.8001 33.6486 33.8001H35.4486C36.4486 33.8001 38.4486 33.8001 37.4486 30.8001C36.4486 27.8001 35.4486 24.8001 35.4486 24.8001" stroke="white" stroke-width="2.5" stroke-miterlimit="10" stroke-linecap="round" stroke-linejoin="round"/>
</svg>
