<svg width="121" height="120" viewBox="0 0 121 120" fill="none" xmlns="http://www.w3.org/2000/svg">
<path d="M75 51.5C75 51.5 77.75 60 78.75 62.75C80 66.5 77.5 67.75 75 67.75H72.5M87.5 46.5C87.5 31.25 75.25 19 60 19C44.75 19 32.5 31.25 32.5 46.5V100.25M87.625 46.5V70.25C87.625 81.25 78.625 90.25 67.625 90.25C56.625 90.25 47.625 81.25 47.625 70.25V51.5C47.625 46 52.125 41.5 57.625 41.5H78.875" stroke="white" stroke-width="2.5" stroke-miterlimit="10" stroke-linecap="round" stroke-linejoin="round"/>
<path d="M62.3486 56.2002C63.4532 56.2002 64.3486 55.3048 64.3486 54.2002C64.3486 53.0956 63.4532 52.2002 62.3486 52.2002C61.2441 52.2002 60.3486 53.0956 60.3486 54.2002C60.3486 55.3048 61.2441 56.2002 62.3486 56.2002Z" fill="white"/>
</svg>
