<svg width="192" height="192" viewBox="0 0 192 192" fill="none" xmlns="http://www.w3.org/2000/svg">
<path d="M83.3579 87.52C84.4625 87.52 85.3579 86.6246 85.3579 85.52C85.3579 84.4154 84.4625 83.52 83.3579 83.52C82.2533 83.52 81.3579 84.4154 81.3579 85.52C81.3579 86.6246 82.2533 87.52 83.3579 87.52Z" fill="white"/>
<path d="M103.236 82.3999C103.236 82.3999 107.636 95.9999 109.236 100.4C111.236 106.4 107.236 108.4 103.236 108.4H99.2357M51.2357 160.4V98.3999C51.2357 93.5999 47.2357 89.9999 42.2357 90.3999C37.8357 90.7999 34.8357 94.9999 35.2357 99.3999C36.4357 116 62.4357 144.8 93.8357 144.4C110.236 144.2 123.236 130.8 123.236 114.4V70.3999C123.236 48.3999 105.236 30.3999 83.2357 30.3999C62.6357 30.3999 45.6357 46.1999 43.4357 66.1999C43.2357 68.5999 45.0357 70.5999 47.4357 70.5999H155.236" stroke="white" stroke-width="2.5" stroke-miterlimit="10" stroke-linecap="round" stroke-linejoin="round"/>
</svg>
