<svg width="121" height="120" viewBox="0 0 121 120" fill="none" xmlns="http://www.w3.org/2000/svg">
<path d="M87.1433 58C87.1433 58 88.6433 62.625 89.6433 65.5C90.8933 69.25 88.3933 70.5 85.8933 70.5H83.3933M53.5183 103V64.25C53.5183 61.375 51.0183 59 48.0183 59.25C45.3933 59.5 43.3933 62.125 43.5183 64.75C44.0183 74.875 60.2683 93.125 80.1433 93C90.3933 92.875 98.5183 84.5 98.5183 74.25V64.25M80.8933 56.75C80.8933 60.8921 77.5355 64.25 73.3933 64.25C69.2512 64.25 65.8933 60.8921 65.8933 56.75C65.8933 52.6079 69.2512 49.25 73.3933 49.25C77.5355 49.25 80.8933 52.6079 80.8933 56.75ZM80.8933 56.75H87.1433M87.1433 56.75C87.1433 60.8921 90.5012 64.25 94.6433 64.25C98.7855 64.25 102.143 60.8921 102.143 56.75C102.143 52.6079 98.7855 49.25 94.6433 49.25C90.5012 49.25 87.1433 52.6079 87.1433 56.75ZM58.3933 43H95.8933C97.2683 43 98.3933 41.875 98.3933 40.5C98.3933 28.125 88.2683 18 75.8933 18H63.3933M43.5183 24.75C40.6433 23.375 37.2683 22.75 33.7683 23.25C25.8933 24.125 19.5183 30.5 18.6433 38.375C17.5183 47.25 23.1433 55 31.0183 57.375C32.8933 57.875 34.5183 56.25 34.1433 54.375C33.6433 52.375 33.5183 50.25 33.5183 48C33.5183 31.375 46.8933 18 63.5183 18" stroke="white" stroke-width="2.5" stroke-miterlimit="10" stroke-linecap="round" stroke-linejoin="round"/>
</svg>
