<svg width="121" height="120" viewBox="0 0 121 120" fill="none" xmlns="http://www.w3.org/2000/svg">
<path d="M53.3486 56.2002C54.4532 56.2002 55.3486 55.3048 55.3486 54.2002C55.3486 53.0956 54.4532 52.2002 53.3486 52.2002C52.2441 52.2002 51.3486 53.0956 51.3486 54.2002C51.3486 55.3048 52.2441 56.2002 53.3486 56.2002Z" fill="white"/>
<path d="M65.0223 51.5C65.0223 51.5 67.7723 60 68.7723 62.75C70.0223 66.5 67.5223 67.75 65.0223 67.75H62.5223M32.5223 100.25V61.5C32.5223 58.5 30.0223 56.25 26.8973 56.5C24.1473 56.75 22.2723 59.375 22.5223 62.125C23.2723 72.5 39.5223 90.5 59.1473 90.25C69.3973 90.125 77.5223 81.75 77.5223 71.5V44C77.5223 30.25 66.2723 19 52.5223 19C39.6473 19 29.0223 28.875 27.6473 41.375C27.5223 42.875 28.6473 44.125 30.1473 44.125H97.5223" stroke="white" stroke-width="2.5" stroke-miterlimit="10" stroke-linecap="round" stroke-linejoin="round"/>
</svg>
