<svg width="121" height="120" viewBox="0 0 121 120" fill="none" xmlns="http://www.w3.org/2000/svg">
<path d="M50.1445 30.1001C50.1445 23.9001 54.0445 18.6001 56.9445 14.8001C58.5445 12.7001 61.6445 12.7001 63.2445 14.8001C66.1445 18.6001 70.0445 23.9001 70.0445 30.1001M40.1445 48.1001V43.1001C40.1445 39.3001 42.1445 36.3001 43.6445 34.6001C44.4445 33.7001 45.8445 33.7001 46.6445 34.6001C48.1445 36.3001 50.1445 39.3001 50.1445 43.1001V43.8001C50.1445 45.9001 49.3445 48.0001 47.8445 49.5001L35.4445 61.8001C32.0445 65.2001 30.1445 69.8001 30.1445 74.5001V77.0001C30.1445 78.1001 31.0445 79.0001 32.1445 79.0001H48.1445C49.2445 79.0001 50.1445 78.1001 50.1445 77.0001V56.0001M80.1445 48.1001V43.1001C80.1445 39.3001 78.1445 36.3001 76.6445 34.6001C75.8445 33.7001 74.4445 33.7001 73.6445 34.6001C72.1445 36.3001 70.1445 39.3001 70.1445 43.1001V43.8001C70.1445 45.9001 70.9445 48.0001 72.4445 49.5001L84.9445 61.8001C88.3445 65.2001 90.2445 69.8001 90.2445 74.5001V77.0001C90.2445 78.1001 89.3445 79.0001 88.2445 79.0001H72.2445C71.1445 79.0001 70.2445 78.1001 70.2445 77.0001V56.0001M36.1445 107.1C36.1445 102.7 39.7445 99.1001 44.1445 99.1001C44.1445 94.7001 47.7445 91.1001 52.1445 91.1001C52.1445 86.7001 55.7445 83.1001 60.1445 83.1001C64.5445 83.1001 68.1445 86.7001 68.1445 91.1001C72.5445 91.1001 76.1445 94.7001 76.1445 99.1001C80.5445 99.1001 84.1445 102.7 84.1445 107.1M64.1445 37.1001C64.1445 39.3092 62.3537 41.1001 60.1445 41.1001C57.9354 41.1001 56.1445 39.3092 56.1445 37.1001C56.1445 34.891 57.9354 33.1001 60.1445 33.1001C62.3537 33.1001 64.1445 34.891 64.1445 37.1001Z" stroke="white" stroke-width="2.5" stroke-miterlimit="10" stroke-linecap="round" stroke-linejoin="round"/>
</svg>
