<svg width="32" height="32" viewBox="0 0 32 32" fill="none" xmlns="http://www.w3.org/2000/svg">
<path d="M23.4697 18.4697C23.7626 18.1768 24.2372 18.1768 24.5302 18.4697C24.8231 18.7628 24.8231 19.2374 24.5301 19.5303L23.0604 21L24.5302 22.4699C24.8232 22.7628 24.8232 23.2374 24.5302 23.5303C24.3837 23.6768 24.1923 23.75 23.9999 23.75C23.8075 23.75 23.6161 23.6768 23.4696 23.5302L21.9999 22.0605L20.5302 23.5303C20.3837 23.6768 20.1923 23.75 19.9999 23.75C19.8075 23.75 19.6161 23.6768 19.4697 23.5302C19.1768 23.2374 19.1768 22.7627 19.4697 22.4697L20.9394 21L19.4697 19.5303C19.1768 19.2374 19.1768 18.7629 19.4697 18.4699C19.7626 18.1769 20.2372 18.1769 20.5302 18.4699L21.9999 19.9396L23.4697 18.4697Z" fill="#DB1F2E"/>
<path d="M25.7227 13.7627L29.2373 17.2773C29.5684 17.6074 29.75 18.0469 29.7501 18.5147V23.4864C29.7501 23.9464 29.5636 24.3966 29.2384 24.7218L25.7218 28.2384C25.3966 28.5636 24.9464 28.7501 24.4864 28.7501H19.5137C19.0537 28.7501 18.6035 28.5636 18.2783 28.2384L14.7617 24.7218C14.4365 24.3966 14.25 23.9464 14.25 23.4864V18.5137C14.25 18.0537 14.4365 17.6035 14.7617 17.2783L18.2783 13.7617C18.6035 13.4365 19.0537 13.25 19.5137 13.25H24.4854C24.9532 13.25 25.3926 13.4316 25.7227 13.7627ZM28.1777 23.6611C28.2236 23.6152 28.25 23.5517 28.25 23.4863L28.2499 18.5145C28.2499 18.4481 28.2236 18.3846 28.1767 18.3377L24.6621 14.8231C24.6152 14.7763 24.5517 14.7499 24.4853 14.7499H19.5136C19.4482 14.7499 19.3847 14.7763 19.3388 14.8222L15.8222 18.3388C15.7763 18.3847 15.7499 18.4482 15.7499 18.5136V23.4863C15.7499 23.5517 15.7763 23.6152 15.8222 23.6611L19.3388 27.1777C19.3847 27.2236 19.4482 27.25 19.5136 27.25H24.4863C24.5517 27.25 24.6152 27.2236 24.6611 27.1777L28.1777 23.6611Z" fill="#DB1F2E"/>
</svg>
