<svg width="32" height="32" viewBox="0 0 32 32" fill="none" xmlns="http://www.w3.org/2000/svg">
<path d="M23 3H7C4.24 3 2 5.24 2 8V18C2 20.76 4.24 23 7 23H15C15.55 23 16 22.55 16 22C16 21.45 15.55 21 15 21H7C5.35 21 4 19.65 4 18V8C4 6.35 5.35 5 7 5H23C24.65 5 26 6.35 26 8V16C26 16.55 26.45 17 27 17C27.55 17 28 16.55 28 16V8C28 5.24 25.76 3 23 3Z" fill="#0F0F0F"/>
<path d="M19 9H9C8.45 9 8 9.45 8 10C8 10.55 8.45 11 9 11H19C19.55 11 20 10.55 20 10C20 9.45 19.55 9 19 9Z" fill="#0F0F0F"/>
<path d="M8 14C8 13.45 8.45 13 9 13H13C13.55 13 14 13.45 14 14C14 14.55 13.55 15 13 15H9C8.45 15 8 14.55 8 14Z" fill="#0F0F0F"/>
</svg>
