<svg width="32" height="32" viewBox="0 0 32 32" fill="none" xmlns="http://www.w3.org/2000/svg">
<path d="M17.023 28.2503H19.0024C19.2014 28.2503 19.3921 28.3293 19.5328 28.47C19.6734 28.6106 19.7524 28.8014 19.7524 29.0003C19.7524 29.1992 19.6734 29.39 19.5328 29.5306C19.3921 29.6713 19.2014 29.7503 19.0024 29.7503H3.00244C2.80353 29.7503 2.61276 29.6713 2.47211 29.5306C2.33146 29.39 2.25244 29.1992 2.25244 29.0003C2.25244 28.8014 2.33146 28.6106 2.47211 28.47C2.61276 28.3293 2.80353 28.2503 3.00244 28.2503H12.7232C12.0352 27.692 11.4654 27.0021 11.0471 26.221C10.6288 25.44 10.3704 24.5833 10.2869 23.7012C8.89754 23.5265 7.61955 22.8511 6.69241 21.8016C5.76527 20.7522 5.25261 19.4006 5.25049 18.0003V8.00031C5.25049 6.47531 5.85629 5.01278 6.93463 3.93444C8.01296 2.85611 9.4755 2.25031 11.0005 2.25031C12.5255 2.25031 13.988 2.85611 15.0664 3.93444C16.1447 5.01278 16.7505 6.47531 16.7505 8.00031V18.0003C16.7482 19.3824 16.2485 20.7175 15.3427 21.7614C14.4369 22.8053 13.1856 23.4882 11.8176 23.6854C11.9549 24.9603 12.5662 26.1372 13.5303 26.9827C14.4944 27.8282 15.741 28.2806 17.023 28.2503ZM15.25 18L15.2505 8.00031C15.2504 7.90024 15.2468 7.80054 15.2397 7.70138C15.0864 5.49348 13.2468 3.75 11 3.75C8.65279 3.75 6.75 5.65279 6.75 8V18C6.75 20.3472 8.65279 22.25 11 22.25C13.3472 22.25 15.25 20.3472 15.25 18Z" fill="#0F0F0F"/>
<path d="M25.0484 7.90124C25.2362 7.75952 25.4798 7.71421 25.706 7.77886L29.206 8.77886C29.6043 8.89265 29.8349 9.30777 29.7211 9.70604C29.6073 10.1043 29.1922 10.3349 28.794 10.2211L26.25 9.4943V16.5C26.25 18.2949 24.7949 19.75 23 19.75C21.2051 19.75 19.75 18.2949 19.75 16.5C19.75 14.7051 21.2051 13.25 23 13.25C23.6443 13.25 24.2449 13.4375 24.75 13.7609V8.5C24.75 8.26466 24.8605 8.04295 25.0484 7.90124ZM23 14.75C22.0335 14.75 21.25 15.5335 21.25 16.5C21.25 17.4665 22.0335 18.25 23 18.25C23.9665 18.25 24.75 17.4665 24.75 16.5C24.75 15.5335 23.9665 14.75 23 14.75Z" fill="#0F0F0F"/>
</svg>
