<svg width="32" height="32" viewBox="0 0 32 32" fill="none" xmlns="http://www.w3.org/2000/svg">
<path d="M16.0005 2.25024C13.281 2.25024 10.6226 3.05667 8.3614 4.56754C6.10023 6.07841 4.33786 8.22586 3.29715 10.7383C2.25645 13.2508 1.98415 16.0155 2.5147 18.6827C3.04524 21.35 4.3548 23.8 6.27778 25.723C8.20075 27.6459 10.6508 28.9555 13.318 29.486C15.9852 30.0166 18.7499 29.7443 21.2624 28.7036C23.7749 27.6629 25.9223 25.9005 27.4332 23.6393C28.9441 21.3782 29.7505 18.7197 29.7505 16.0002C29.7465 12.3548 28.2965 8.85974 25.7188 6.28198C23.141 3.70423 19.646 2.25428 16.0005 2.25024ZM16.0005 28.2502C13.5777 28.2502 11.2093 27.5318 9.19476 26.1857C7.18026 24.8397 5.61014 22.9265 4.68297 20.6881C3.7558 18.4497 3.51321 15.9867 3.98587 13.6104C4.45854 11.2341 5.62524 9.05138 7.33844 7.33819C9.05163 5.62499 11.2344 4.45829 13.6106 3.98562C15.9869 3.51296 18.45 3.75555 20.6884 4.68272C22.9268 5.60989 24.84 7.18001 26.186 9.19451C27.532 11.209 28.2505 13.5774 28.2505 16.0002C28.2469 19.248 26.9551 22.3618 24.6586 24.6583C22.362 26.9549 19.2483 28.2466 16.0005 28.2502Z" fill="#0F0F0F"/>
</svg>
