<svg width="32" height="32" viewBox="0 0 32 32" fill="none" xmlns="http://www.w3.org/2000/svg">
<path d="M29 17C28.8687 17.0001 28.7386 16.9743 28.6172 16.924C28.4959 16.8738 28.3856 16.8002 28.2927 16.7073C28.1999 16.6144 28.1262 16.5041 28.076 16.3828C28.0257 16.2614 27.9999 16.1313 28 16C28 18.3734 27.2962 20.6935 25.9776 22.6668C24.6591 24.6402 22.7849 26.1783 20.5922 27.0866C18.3995 27.9948 15.9867 28.2324 13.6589 27.7694C11.3312 27.3064 9.19296 26.1635 7.51472 24.4853C5.83649 22.8071 4.69361 20.6689 4.23058 18.3411C3.76756 16.0133 4.0052 13.6005 4.91345 11.4078C5.8217 9.21509 7.35977 7.34094 9.33316 6.02236C11.3066 4.70379 13.6266 4 16 4C15.7348 4 15.4804 3.89464 15.2929 3.70711C15.1054 3.51957 15 3.26522 15 3C15 2.73478 15.1054 2.48043 15.2929 2.29289C15.4804 2.10536 15.7348 2 16 2C13.2311 2 10.5243 2.82109 8.22202 4.35943C5.91973 5.89777 4.12532 8.08427 3.06569 10.6424C2.00607 13.2006 1.72882 16.0155 2.26901 18.7313C2.80921 21.447 4.14258 23.9416 6.10051 25.8995C8.05845 27.8574 10.553 29.1908 13.2687 29.731C15.9845 30.2712 18.7994 29.9939 21.3576 28.9343C23.9157 27.8747 26.1022 26.0803 27.6406 23.778C29.1789 21.4757 30 18.7689 30 16C30.0001 16.1313 29.9743 16.2614 29.924 16.3828C29.8738 16.5041 29.8002 16.6144 29.7073 16.7073C29.6144 16.8002 29.5041 16.8738 29.3828 16.924C29.2614 16.9743 29.1313 17.0001 29 17Z" fill="#D1D3D4"/>
</svg>
