<svg width="32" height="32" viewBox="0 0 32 32" fill="none" xmlns="http://www.w3.org/2000/svg">
<path d="M15 3C14.9999 3.13134 15.0257 3.26141 15.076 3.38277C15.1262 3.50413 15.1998 3.6144 15.2927 3.70728C15.3856 3.80015 15.4959 3.87381 15.6172 3.92403C15.7386 3.97426 15.8687 4.00008 16 4C19.1815 4.00347 22.2318 5.26887 24.4814 7.51855C26.7311 9.76824 27.9965 12.8185 28 16C28 16.2652 28.1054 16.5196 28.2929 16.7071C28.4804 16.8946 28.7348 17 29 17C29.2652 17 29.5196 16.8946 29.7071 16.7071C29.8946 16.5196 30 16.2652 30 16C29.9958 12.2882 28.5195 8.72971 25.8949 6.10511C23.2703 3.4805 19.7118 2.00417 16 2C15.8687 1.99992 15.7386 2.02574 15.6172 2.07597C15.4959 2.12619 15.3856 2.19985 15.2927 2.29272C15.1998 2.3856 15.1262 2.49587 15.076 2.61723C15.0257 2.73859 14.9999 2.86866 15 3Z" fill="#0F0F0F"/>
</svg>
