<svg width="32" height="32" viewBox="0 0 32 32" fill="none" xmlns="http://www.w3.org/2000/svg">
<path d="M15.9994 16.3684C14.8722 16.3684 13.7912 16.8161 12.9942 17.6131C12.7013 17.906 12.2264 17.906 11.9335 17.6131C11.6406 17.3202 11.6407 16.8453 11.9335 16.5524C13.0119 15.4741 14.4744 14.8684 15.9994 14.8684C17.5243 14.8684 18.9869 15.4741 20.0652 16.5524C20.3581 16.8453 20.3581 17.3202 20.0652 17.6131C19.7723 17.906 19.2975 17.906 19.0046 17.6131C18.2076 16.8161 17.1266 16.3684 15.9994 16.3684Z" fill="#0F0F0F"/>
<path d="M16 20.9109C16.5523 20.9109 17 20.4632 17 19.9109C17 19.3586 16.5523 18.9109 16 18.9109C15.4477 18.9109 15 19.3586 15 19.9109C15 20.4632 15.4477 20.9109 16 20.9109Z" fill="#0F0F0F"/>
<path d="M16 12.3642C14.9164 12.3642 13.8434 12.5779 12.8425 12.9931C11.8416 13.4082 10.9323 14.0166 10.1668 14.7835C9.87416 15.0767 9.39929 15.0771 9.10613 14.7844C8.81298 14.4918 8.81255 14.0169 9.10518 13.7238C10.01 12.8173 11.0848 12.0982 12.2679 11.6075C13.4509 11.1168 14.7192 10.8642 16 10.8642C17.2808 10.8642 18.549 11.1168 19.7321 11.6075C19.9359 11.692 20.1365 11.7833 20.3336 11.8812C20.7046 12.0655 20.856 12.5156 20.6717 12.8866C20.4875 13.2575 20.0373 13.4089 19.6664 13.2247C19.4996 13.1418 19.3299 13.0646 19.1575 12.9931C18.1565 12.5779 17.0836 12.3642 16 12.3642Z" fill="#0F0F0F"/>
<path d="M2.25 10C2.25 7.37665 4.37665 5.25 7 5.25H25C27.6234 5.25 29.75 7.37665 29.75 10V12C29.75 12.4142 29.4142 12.75 29 12.75C28.5858 12.75 28.25 12.4142 28.25 12V10C28.25 8.20507 26.7949 6.75 25 6.75H7C5.20507 6.75 3.75 8.20507 3.75 10V22C3.75 23.7949 5.20507 25.25 7 25.25H19C19.4142 25.25 19.75 25.5858 19.75 26C19.75 26.4142 19.4142 26.75 19 26.75H7C4.37665 26.75 2.25 24.6234 2.25 22V10Z" fill="#0F0F0F"/>
</svg>
