<svg width="32" height="32" viewBox="0 0 32 32" fill="none" xmlns="http://www.w3.org/2000/svg">
<path d="M25.5 13C26.8808 13 28.0001 14.1193 28.0001 15.5V20.0979L29.3763 21.6707C29.5581 21.8786 29.5371 22.1944 29.3293 22.3763C29.1214 22.5581 28.8056 22.5371 28.6237 22.3293L21.6237 14.3293C21.4419 14.1214 21.4629 13.8056 21.6708 13.6237C21.8786 13.4419 22.1945 13.4629 22.3763 13.6707L23.1738 14.5822C23.5397 13.6556 24.4433 13 25.5 13Z" fill="#DB1F2E"/>
<path d="M23 17.4021V20.5C23 21.7177 23.8706 22.732 25.0234 22.9546C25.13 23.9809 25.5959 24.8692 26.3013 25.5H22C21.7239 25.5 21.5 25.7239 21.5 26C21.5 26.2761 21.7239 26.5 22 26.5H29C29.2761 26.5 29.5 26.2761 29.5 26C29.5 25.7239 29.2761 25.5 29 25.5C27.4278 25.5 26.2279 24.4385 26.0291 22.9439C26.5045 22.8415 26.9296 22.6039 27.2623 22.2733L23 17.4021Z" fill="#DB1F2E"/>
</svg>
