<svg width="32" height="32" viewBox="0 0 32 32" fill="none" xmlns="http://www.w3.org/2000/svg">
<path d="M13.171 17.7899C13.9211 17.0398 14.9385 16.6184 15.9994 16.6184C17.0603 16.6184 18.0777 17.0398 18.8278 17.7899C19.2183 18.1804 19.8515 18.1804 20.242 17.7898C20.6325 17.3993 20.6325 16.7662 20.242 16.3756C19.1167 15.2504 17.5906 14.6184 15.9994 14.6184C14.4082 14.6184 12.882 15.2504 11.7568 16.3756C11.3662 16.7662 11.3662 17.3993 11.7568 17.7898C12.1473 18.1804 12.7804 18.1804 13.171 17.7899Z" fill="#0F0F0F"/>
<path d="M16 20.9109C16.5523 20.9109 17 20.4632 17 19.9109C17 19.3586 16.5523 18.9109 16 18.9109C15.4477 18.9109 15 19.3586 15 19.9109C15 20.4632 15.4477 20.9109 16 20.9109Z" fill="#0F0F0F"/>
<path d="M12.9383 13.224C13.9088 12.8214 14.9493 12.6142 16 12.6142C17.0507 12.6142 18.0911 12.8214 19.0617 13.224C19.5718 13.4356 20.1569 13.1935 20.3685 12.6834C20.5801 12.1732 20.338 11.5881 19.8279 11.3766C18.6144 10.8733 17.3137 10.6142 16 10.6142C14.6863 10.6142 13.3855 10.8733 12.1721 11.3766C10.9586 11.8798 9.85633 12.6174 8.92825 13.5472C8.53807 13.938 8.53864 14.5712 8.92951 14.9614C9.32039 15.3516 9.95355 15.351 10.3437 14.9601C11.086 14.2165 11.9677 13.6265 12.9383 13.224Z" fill="#0F0F0F"/>
<path d="M2 10C2 7.23858 4.23858 5 7 5H25C27.7614 5 30 7.23858 30 10V12C30 12.5523 29.5523 13 29 13C28.4477 13 28 12.5523 28 12V10C28 8.34315 26.6569 7 25 7H7C5.34315 7 4 8.34315 4 10V22C4 23.6569 5.34315 25 7 25H19C19.5523 25 20 25.4477 20 26C20 26.5523 19.5523 27 19 27H7C4.23858 27 2 24.7614 2 22V10Z" fill="#0F0F0F"/>
</svg>
