<svg width="32" height="32" viewBox="0 0 32 32" fill="none" xmlns="http://www.w3.org/2000/svg">
<path d="M22.023 28.0003H24.0024C24.2677 28.0003 24.522 28.1057 24.7095 28.2932C24.8971 28.4807 25.0024 28.7351 25.0024 29.0003C25.0024 29.2655 24.8971 29.5199 24.7095 29.7074C24.522 29.8949 24.2677 30.0003 24.0024 30.0003H8.00244C7.73723 30.0003 7.48287 29.8949 7.29533 29.7074C7.1078 29.5199 7.00244 29.2655 7.00244 29.0003C7.00244 28.7351 7.1078 28.4807 7.29533 28.2932C7.48287 28.1057 7.73723 28.0003 8.00244 28.0003H17.0677C15.9604 26.9044 15.2554 25.4668 15.0671 23.9202C13.6565 23.6973 12.3716 22.9788 11.443 21.8938C10.5144 20.8088 10.003 19.4284 10.0005 18.0003V8.00031C10.0005 6.40901 10.6326 4.88287 11.7579 3.75766C12.8831 2.63245 14.4092 2.00031 16.0005 2.00031C17.5918 2.00031 19.1179 2.63245 20.2431 3.75766C21.3684 4.88287 22.0005 6.40901 22.0005 8.00031V18.0003C21.9983 19.4019 21.506 20.7587 20.6087 21.8355C19.7115 22.9123 18.4659 23.6414 17.0877 23.8965C17.2743 25.0621 17.8773 26.1203 18.7849 26.875C19.6924 27.6297 20.843 28.0295 22.023 28.0003ZM20 18L20.0005 8.00031C20.0004 7.8995 19.9965 7.7991 19.9889 7.69928C19.8351 5.63059 18.108 4 16 4C13.7909 4 12 5.79086 12 8V18C12 20.2091 13.7909 22 16 22C18.2091 22 20 20.2091 20 18Z" fill="#0F0F0F"/>
</svg>
