<svg width="32" height="32" viewBox="0 0 32 32" fill="none" xmlns="http://www.w3.org/2000/svg">
<path d="M17.023 28.5003H19.0024C19.135 28.5003 19.2622 28.553 19.356 28.6468C19.4498 28.7405 19.5024 28.8677 19.5024 29.0003C19.5024 29.1329 19.4498 29.2601 19.356 29.3539C19.2622 29.4476 19.135 29.5003 19.0024 29.5003H3.00244C2.86983 29.5003 2.74266 29.4476 2.64889 29.3539C2.55512 29.2601 2.50244 29.1329 2.50244 29.0003C2.50244 28.8677 2.55512 28.7405 2.64889 28.6468C2.74266 28.553 2.86983 28.5003 3.00244 28.5003H13.5127C12.6522 27.9597 11.9326 27.2221 11.4132 26.3486C10.8939 25.4751 10.5897 24.4906 10.5258 23.4763C9.15551 23.3563 7.87975 22.7277 6.94968 21.7143C6.01962 20.7008 5.50263 19.3759 5.50049 18.0003V8.00031C5.50049 6.54162 6.07995 5.14267 7.1114 4.11122C8.14285 3.07977 9.5418 2.50031 11.0005 2.50031C12.4592 2.50031 13.8581 3.07977 14.8896 4.11122C15.921 5.14267 16.5005 6.54162 16.5005 8.00031V18.0003C16.4986 19.3637 15.9911 20.678 15.0761 21.6888C14.1612 22.6997 12.9038 23.3352 11.5474 23.4726C11.6331 24.8559 12.2513 26.1523 13.2722 27.0897C14.2931 28.027 15.6374 28.5326 17.023 28.5003ZM15.5 18L15.5005 8.00031C15.5004 7.90131 15.497 7.80266 15.4905 7.70449C15.3383 5.35696 13.386 3.5 11 3.5C8.51472 3.5 6.5 5.51472 6.5 8V18C6.5 20.4853 8.51472 22.5 11 22.5C13.4853 22.5 15.5 20.4853 15.5 18Z" fill="#0F0F0F"/>
<path d="M25.1989 8.10083C25.3242 8.00635 25.4865 7.97614 25.6374 8.01924L29.1374 9.01924C29.4029 9.0951 29.5566 9.37184 29.4808 9.63735C29.4049 9.90287 29.1282 10.0566 28.8626 9.98077L26 9.16287V16.5C26 18.1569 24.6569 19.5 23 19.5C21.3431 19.5 20 18.1569 20 16.5C20 14.8432 21.3431 13.5 23 13.5C23.7684 13.5 24.4692 13.7889 25 14.2639V8.5C25 8.34311 25.0736 8.19531 25.1989 8.10083ZM23 14.5C21.8954 14.5 21 15.3954 21 16.5C21 17.6046 21.8954 18.5 23 18.5C24.1046 18.5 25 17.6046 25 16.5C25 15.3954 24.1046 14.5 23 14.5Z" fill="#0F0F0F"/>
</svg>
