<svg width="32" height="32" viewBox="0 0 32 32" fill="none" xmlns="http://www.w3.org/2000/svg">
<path d="M15.5 3C15.5 3.06567 15.5129 3.13071 15.538 3.19139C15.5631 3.25207 15.5999 3.3072 15.6464 3.35364C15.6928 3.40008 15.7479 3.4369 15.8086 3.46202C15.8693 3.48713 15.9343 3.50004 16 3.5C19.3141 3.50373 22.4913 4.82188 24.8347 7.16528C27.1781 9.50868 28.4963 12.6859 28.5 16C28.5 16.1326 28.5527 16.2598 28.6464 16.3536C28.7402 16.4473 28.8674 16.5 29 16.5C29.1326 16.5 29.2598 16.4473 29.3536 16.3536C29.4473 16.2598 29.5 16.1326 29.5 16C29.4961 12.4208 28.0725 8.98927 25.5416 6.45838C23.0107 3.92748 19.5792 2.50391 16 2.5C15.9343 2.49996 15.8693 2.51287 15.8086 2.53798C15.7479 2.5631 15.6928 2.59992 15.6464 2.64636C15.5999 2.6928 15.5631 2.74793 15.538 2.80861C15.5129 2.86929 15.5 2.93433 15.5 3Z" fill="#0F0F0F"/>
</svg>
