<svg width="32" height="32" viewBox="0 0 32 32" fill="none" xmlns="http://www.w3.org/2000/svg">
<path d="M27.1112 4.88922C26.6708 4.44879 26.148 4.09941 25.5726 3.86105C24.9972 3.62268 24.3805 3.5 23.7577 3.5C23.1349 3.5 22.5182 3.62268 21.9428 3.86105C21.3674 4.09941 20.8446 4.44879 20.4042 4.88922L3.9393 21.3535C3.79962 21.4925 3.68888 21.6578 3.61347 21.8398C3.53807 22.0219 3.4995 22.2171 3.5 22.4141V26.9998C3.50043 27.3975 3.6586 27.7788 3.93981 28.06C4.22103 28.3412 4.60231 28.4994 5 28.4998H9.5858C9.78286 28.5003 9.97806 28.4617 10.1601 28.3862C10.3422 28.3108 10.5074 28.2 10.6464 28.0603L27.1112 11.5962C27.9991 10.706 28.4977 9.50001 28.4977 8.24272C28.4977 6.98542 27.9991 5.77944 27.1112 4.88922ZM26.4042 10.8892L9.9393 27.3535C9.89296 27.4001 9.83787 27.437 9.7772 27.4621C9.71653 27.4872 9.65148 27.5001 9.5858 27.5H5C4.86745 27.4999 4.74036 27.4471 4.64663 27.3534C4.55289 27.2597 4.50016 27.1326 4.5 27V22.4141C4.50061 22.2816 4.55322 22.1546 4.6465 22.0605L21.1112 5.59622C21.8131 4.89432 22.7651 4.5 23.7577 4.5C24.2492 4.5 24.7359 4.59681 25.19 4.7849C25.6441 4.97299 26.0567 5.24867 26.4042 5.59622C26.7517 5.94376 27.0274 6.35635 27.2155 6.81044C27.4036 7.26453 27.5004 7.75122 27.5004 8.24272C27.5004 8.73422 27.4036 9.2209 27.2155 9.67499C27.0274 10.1291 26.7517 10.5417 26.4042 10.8892Z" fill="#0F0F0F"/>
</svg>
