<svg width="32" height="32" viewBox="0 0 32 32" fill="none" xmlns="http://www.w3.org/2000/svg">
<path d="M27.4647 4.53561C26.9779 4.04877 26.4 3.66258 25.7639 3.39909C25.1279 3.13561 24.4462 3 23.7577 3C23.0692 3 22.3875 3.13561 21.7515 3.39909C21.1154 3.66258 20.5375 4.04877 20.0507 4.53561L3.58581 20.9998C3.39947 21.1851 3.25175 21.4055 3.1512 21.6483C3.05064 21.891 2.99925 22.1513 3.00001 22.4141V26.9998C3.0007 27.53 3.21163 28.0383 3.58655 28.4133C3.96148 28.7882 4.46979 28.9991 5.00001 28.9998H9.58581C9.84855 29.0006 10.1088 28.9492 10.3516 28.8486C10.5943 28.7481 10.8147 28.6004 11 28.4141L27.4647 11.9498C28.4461 10.9657 28.9972 9.63254 28.9972 8.24271C28.9972 6.85287 28.4461 5.51975 27.4647 4.53561ZM26.0507 10.5356L9.58581 26.9998H5.00001V22.4141L21.4647 5.94981C22.0739 5.34687 22.8971 5.00965 23.7542 5.01187C24.6113 5.01408 25.4327 5.35555 26.0388 5.96163C26.6449 6.5677 26.9864 7.38908 26.9886 8.24621C26.9908 9.10334 26.6536 9.92638 26.0507 10.5356Z" fill="#0F0F0F"/>
</svg>
