<svg width="32" height="32" viewBox="0 0 32 32" fill="none" xmlns="http://www.w3.org/2000/svg">
<path d="M15.2979 23.808C15.1581 23.9479 15.0628 24.1261 15.0242 24.32C14.9857 24.514 15.0055 24.7151 15.0811 24.8978C15.1568 25.0805 15.285 25.2367 15.4495 25.3466C15.6139 25.4565 15.8072 25.5151 16.005 25.5151C16.2028 25.5151 16.3961 25.4565 16.5606 25.3466C16.725 25.2367 16.8532 25.0805 16.9289 24.8978C17.0046 24.7151 17.0244 24.514 16.9858 24.32C16.9472 24.1261 16.852 23.9479 16.7121 23.808C16.6193 23.7152 16.509 23.6415 16.3877 23.5912C16.2664 23.541 16.1363 23.5151 16.005 23.5151C15.8737 23.5151 15.7437 23.541 15.6223 23.5912C15.501 23.6415 15.3908 23.7152 15.2979 23.808Z" fill="#0F0F0F"/>
<path d="M11.9523 20.1363C11.9045 20.1821 11.8663 20.2368 11.8399 20.2974C11.8134 20.358 11.7993 20.4232 11.7982 20.4893C11.7971 20.5554 11.8092 20.621 11.8336 20.6824C11.8581 20.7438 11.8945 20.7998 11.9407 20.847C11.9869 20.8943 12.042 20.9319 12.1029 20.9577C12.1638 20.9835 12.2291 20.997 12.2952 20.9974C12.3613 20.9978 12.4268 20.9851 12.488 20.96C12.5491 20.9349 12.6047 20.8979 12.6515 20.8512C13.5501 19.9832 14.7507 19.498 16.0001 19.498C17.2495 19.498 18.4501 19.9832 19.3487 20.8512C19.4422 20.9425 19.5677 20.9936 19.6984 20.9938C19.7977 20.9937 19.8948 20.9641 19.9773 20.9087C20.0597 20.8533 20.1238 20.7745 20.1613 20.6825C20.1988 20.5905 20.2081 20.4894 20.1879 20.3922C20.1677 20.2949 20.119 20.2058 20.048 20.1363C18.9618 19.0868 17.5105 18.5001 16.0001 18.5001C14.4897 18.5001 13.0384 19.0868 11.9523 20.1363Z" fill="#0F0F0F"/>
<path d="M7.71101 15.858C7.66328 15.9038 7.62509 15.9585 7.59864 16.0191C7.5722 16.0797 7.55803 16.1449 7.55695 16.211C7.55588 16.2771 7.56792 16.3427 7.59237 16.4041C7.61683 16.4655 7.65322 16.5215 7.69945 16.5687C7.74567 16.616 7.8008 16.6536 7.86165 16.6794C7.9225 16.7052 7.98787 16.7187 8.05397 16.7191C8.12007 16.7195 8.18559 16.7068 8.24674 16.6817C8.30789 16.6566 8.36346 16.6196 8.41022 16.5729C10.4465 14.6044 13.1679 13.504 16.0001 13.504C18.8323 13.504 21.5537 14.6044 23.5899 16.5729C23.6834 16.6642 23.8089 16.7153 23.9395 16.7155C24.0389 16.7154 24.136 16.6858 24.2184 16.6304C24.3009 16.575 24.365 16.4962 24.4025 16.4042C24.44 16.3122 24.4492 16.2111 24.4291 16.1139C24.4089 16.0166 24.3602 15.9275 24.2891 15.858C22.0653 13.7082 19.0932 12.5065 16.0001 12.5065C12.907 12.5065 9.93486 13.7082 7.71101 15.858Z" fill="#0F0F0F"/>
</svg>
