<svg width="32" height="32" viewBox="0 0 32 32" fill="none" xmlns="http://www.w3.org/2000/svg">
<path d="M28.5246 11.3252C25.1648 8.07608 20.6739 6.25977 16.0001 6.25977C11.3263 6.25977 6.83544 8.07608 3.47572 11.3252C3.33611 11.4648 3.25719 11.6539 3.25611 11.8514C3.25503 12.0488 3.33187 12.2388 3.46996 12.3799C3.60804 12.5211 3.79622 12.6021 3.99366 12.6054C4.1911 12.6086 4.38186 12.5339 4.52455 12.3974C7.60311 9.42076 11.7178 7.75679 16.0001 7.75679C20.2824 7.75679 24.3972 9.42076 27.4757 12.3974C27.6183 12.5344 27.8092 12.6094 28.0069 12.6063C28.2046 12.6032 28.3931 12.5222 28.5313 12.3809C28.6696 12.2395 28.7464 12.0493 28.7452 11.8516C28.7439 11.6539 28.6646 11.4647 28.5246 11.3252Z" fill="#0F0F0F"/>
</svg>
